<?xml version="1.0" encoding="UTF-8" standalone="no"?>
<svg xmlns:svg="http://www.w3.org/2000/svg" xmlns="http://www.w3.org/2000/svg" xmlns:xlink="http://www.w3.org/1999/xlink" version="1.0" width="100%" height="100%" viewBox="0 0 167 242" id="svg2" xml:space="preserve">

<rect x="0.5" y="0.5" width="166" height="241" rx="6" style="fill:#ffffff;stroke:#000000;stroke-width:1;" id="card"/>

<g id="upleft">
<path style="fill:#000000;stroke:none" d="m 14.616,42.503 c -1.810,0 -3.281,1.471 -3.281,3.286 0,0.936 0.396,1.776 1.026,2.373 0.487,0.463 1.179,1.514 1.408,2.354 -0.448,-0.272 -0.854,-0.582 -1.098,-0.835 -0.601,-0.630 -1.442,-1.017 -2.378,-1.017 -1.810,0 -3.281,1.471 -3.281,3.286 0,1.814 1.471,3.281 3.281,3.281 0.936,0 1.776,-0.396 2.378,-1.026 0.257,-0.267 0.687,-0.611 1.170,-0.893 -0.066,3.009 -1.103,4.976 -2.985,4.976 0,0 7.532,0 7.532,0 -1.886,0 -2.932,-1.977 -2.994,-5.000 0.506,0.291 0.974,0.640 1.241,0.917 0.597,0.630 1.437,1.026 2.373,1.026 1.814,0 3.286,-1.466 3.286,-3.281 0,-1.814 -1.471,-3.286 -3.286,-3.286 -0.936,0 -1.776,0.386 -2.373,1.017 -0.253,0.267 -0.692,0.582 -1.170,0.859 0.224,-0.845 0.931,-1.910 1.418,-2.378 0.630,-0.597 1.017,-1.437 1.017,-2.373 0,-1.814 -1.471,-3.286 -3.286,-3.286 z" id="fig"/>
<text transform="scale(0.7,1.255)" y="24.964" x="16.182" style="font-size:25.4px;font-family:sans-serif;text-align:center;letter-spacing:-5px;text-anchor:middle;fill:#000000;">
<tspan y="25" x="20">4</tspan>
</text>
</g>
<use transform="matrix(-1,0,0,-1,167,242)" id="downright" xlink:href="#upleft"/>

<g transform="translate(33,-21)"><use transform="matrix(2.1,0,0,2.1,-16.13,-55.46)" xlink:href="#fig"/></g>
<g transform="translate(33,163)"><use transform="matrix(2.1,0,0,-2.1,-16.13,156.25)" xlink:href="#fig"/></g>
<g transform="translate(105,-21)"><use transform="matrix(2.1,0,0,2.1,-16.13,-55.46)" xlink:href="#fig"/></g>
<g transform="translate(105,163)"><use transform="matrix(2.1,0,0,-2.1,-16.13,156.25)" xlink:href="#fig"/></g>

</svg>
