<?xml version="1.0" encoding="UTF-8" standalone="no"?>
<svg xmlns:svg="http://www.w3.org/2000/svg" xmlns="http://www.w3.org/2000/svg" xmlns:xlink="http://www.w3.org/1999/xlink" version="1.0" width="100%" height="100%" viewBox="0 0 167 242" id="svg2" xml:space="preserve">

<rect x="0.5" y="0.5" width="166" height="241" rx="6" style="fill:#ffffff;stroke:#000000;stroke-width:1;" id="card"/>

<g id="upleft">
<path style="fill:#000000;stroke:none" d="m 14.616,42.503 c -1.810,0 -3.281,1.471 -3.281,3.286 0,0.936 0.396,1.776 1.026,2.373 0.487,0.463 1.179,1.514 1.408,2.354 -0.448,-0.272 -0.854,-0.582 -1.098,-0.835 -0.601,-0.630 -1.442,-1.017 -2.378,-1.017 -1.810,0 -3.281,1.471 -3.281,3.286 0,1.814 1.471,3.281 3.281,3.281 0.936,0 1.776,-0.396 2.378,-1.026 0.257,-0.267 0.687,-0.611 1.170,-0.893 -0.066,3.009 -1.103,4.976 -2.985,4.976 0,0 7.532,0 7.532,0 -1.886,0 -2.932,-1.977 -2.994,-5.000 0.506,0.291 0.974,0.640 1.241,0.917 0.597,0.630 1.437,1.026 2.373,1.026 1.814,0 3.286,-1.466 3.286,-3.281 0,-1.814 -1.471,-3.286 -3.286,-3.286 -0.936,0 -1.776,0.386 -2.373,1.017 -0.253,0.267 -0.692,0.582 -1.170,0.859 0.224,-0.845 0.931,-1.910 1.418,-2.378 0.630,-0.597 1.017,-1.437 1.017,-2.373 0,-1.814 -1.471,-3.286 -3.286,-3.286 z" id="fig"/>
<path style="fill:none;stroke:#000000;stroke-width:1.5px;" d="m 14.060,8.412 c -1.382,0 -2.512,1.496 -2.512,3.329 0,0.566 0.186,1.050 0.374,1.519 -0.992,0.915 -1.697,2.364 -1.697,4.088 0,1.330 0.451,2.475 1.088,3.380 -1.726,1.143 -3.732,4.298 -3.732,9.588 l 0,0.525 12.956,0 0,-0.525 c 0,-5.289 -2.005,-8.444 -3.732,-9.588 0.637,-0.905 1.088,-2.050 1.088,-3.380 0,-1.724 -0.705,-3.173 -1.698,-4.088 0.188,-0.469 0.375,-0.952 0.375,-1.519 0,-1.833 -1.129,-3.329 -2.512,-3.329 z"/>
</g>
<use transform="matrix(-1,0,0,-1,167,242)" id="downright" xlink:href="#upleft"/>

<g transform="matrix(0.47,0,0,0.47,-0.63,-5.8)">
<g id="jack">
 <path d="m 260.220,302.314 -9.531,0.673 -12.224,-2.374 L 225,295.334 l -11.728,-6.625 -9.035,-7.511 -16.653,-20.763 -8.858,-12.401 -8.326,-7.334 -16.192,-11.905 -13.960,-7.476 -17.185,-5.102 -13.429,-1.381 -9.708,-0.177 -11.055,3.259 11.196,19.665 9.531,-0.673 12.259,2.409 13.429,5.244 11.763,6.661 9,7.476 16.688,20.763 8.858,12.437 8.326,7.299 16.157,11.905 13.960,7.511 17.185,5.102 13.429,1.346 9.708,0.177 11.055,-3.224 z" id="path9013" style="fill:#ffff55;fill-rule:nonzero;stroke:none" />
 <path d="m 59.988,30.011 270.000,0 0,359.999 0,0" id="path9015" style="fill:none;stroke:#5555aa;stroke-width:1.984px;stroke-linecap:butt;stroke-opacity:1" />
 <path d="m 170.078,184.429 37.877,30.755 -0.283,62.716 -3.862,2.657 -6.803,-6.803 -10.346,-13.889 -8.574,-12.118 -3.862,-4.145 -4.712,-3.862 z" id="path9021" style="fill:#ffff55;fill-rule:nonzero;stroke:none" />
 <path d="m 222.165,293.279 24.838,-18.035 2.374,4.748 -21.295,16.866 z" id="path9023" style="fill:#ffff55;fill-rule:nonzero;stroke:none" />
 <path d="m 203.811,279.992 36.106,-23.669 2.055,4.712 -33.732,22.216 z" id="path9025" style="fill:#ffff55;fill-rule:nonzero;stroke:none" />
 <path d="m 217.133,208.381 -0.318,63.035 23.988,-15.696 -3.862,-17.751 -2.657,-17.149 -0.602,-15.980 0.318,-8.574 z" id="path9027" style="fill:#ff5555;fill-rule:nonzero;stroke:none" />
 <path d="m 207.673,283.251 34.299,-22.783 c 0,0 2.409,6.094 3.543,9.177 0.708,1.842 2.090,5.598 2.090,5.598 l -25.440,18.354 c 0,0 -6.484,-2.125 -9.177,-4.145 -2.196,-1.629 -5.314,-6.200 -5.314,-6.200 z" id="path9029" style="fill:#000000;fill-rule:nonzero;stroke:none" />
 <path d="M 148.003,167.740 207.248,215.007 234,198 l -0.248,-13.996 0.744,-13.251 0.496,-10.488 -27.248,18.496 -35.007,-28.771 -4.5,-2.232 -2.480,-2.267 -4.003,-0.496 -2.267,-3.259 -2.976,0.779 -3.011,-3.755 -3.011,0 -2.480,-2.267 z" id="path9031" style="fill:#000000;fill-rule:nonzero;stroke:none" />
 <path d="m 138.011,131.492 -0.248,89.007 5.988,2.232 4.996,2.763 -0.248,-89.255 -3.259,-0.496 -3.224,-3.259 -2.019,0.779 z" id="path9033" style="fill:#000000;fill-rule:nonzero;stroke:none" />
 <path d="m 260.007,208.240 20.232,-9.992 c 0,0 3.897,11.055 6.023,16.511 2.125,5.456 4.039,11.019 6.732,16.228 1.807,3.507 3.826,6.909 6.236,10.027 2.374,3.011 8.007,8.220 8.007,8.220 l -0.248,78.519 c 0,0 -9.885,-11.976 -13.996,-18.496 -3.578,-5.704 -6.307,-11.940 -9.248,-18 -3.826,-7.937 -7.901,-15.767 -10.984,-24.023 -2.090,-5.527 -3.543,-11.267 -5.031,-16.972 -1.523,-5.952 -2.870,-11.976 -3.968,-18 -0.814,-4.393 -1.311,-8.858 -2.019,-13.251 -0.566,-3.614 -1.736,-10.771 -1.736,-10.771 z" id="path9035" style="fill:#ff5555;fill-rule:nonzero;stroke:#5555aa;stroke-width:1.984px;stroke-linecap:round;stroke-linejoin:round;stroke-opacity:1" />
 <path d="m 263.763,149.492 27.248,14.740 -2.763,10.275 0.992,9.992 3.011,6.732 -8.007,6.023 -13.748,5.988 -10.240,4.251 -0.992,-9.992 0,-12.011 0.744,-13.996 2.232,-15.732 z" id="path9037" style="fill:#ffff55;fill-rule:nonzero;stroke:none" />
 <path d="m 226.488,296.751 22.748,-17.007 c 0,0 3.968,8.681 6.023,13.003 1.629,3.437 4.996,10.240 4.996,10.240 0,0 -11.090,0.708 -16.511,-0.248 -5.988,-1.062 -17.255,-5.988 -17.255,-5.988 z" id="path9039" style="fill:#5555aa;fill-rule:nonzero;stroke:none" />
 <path d="M 329.988,382.748 313.122,368.114 313.370,88.370 329.988,88.263 Z" id="path9041" style="fill:#000000;fill-rule:nonzero;stroke:none" />
 <path d="m 95.988,148.606 0.177,66.826 -6.909,2.125 c 0,0 -11.196,-15.625 -16.937,-23.350 -4.181,-5.562 -8.681,-10.913 -12.755,-16.618 -0.992,-1.381 -2.834,-4.216 -2.834,-4.216 0,0 11.090,-8.078 16.795,-11.870 4.074,-2.657 8.185,-5.173 12.401,-7.582 3.295,-1.877 10.062,-5.314 10.062,-5.314 z" id="path9043" style="fill:#5555aa;fill-rule:nonzero;stroke:none" />
 <path d="m 112.251,140.492 -0.354,74.232 c 0,0 -5.527,-0.283 -8.291,-0.177 -2.870,0.141 -8.503,0.885 -8.503,0.885 l 0.177,-66.826 c 0,0 6.307,-3.401 9.531,-4.925 2.444,-1.169 7.440,-3.188 7.440,-3.188 z" id="path9045" style="fill:#000000;fill-rule:nonzero;stroke:none" />
 <path d="m 205.228,64.133 c -7.051,0.106 -14.137,-0.106 -21.188,0.354 -5.881,0.354 -11.728,1.027 -17.503,1.913 -3.826,0.602 -7.547,1.559 -11.338,2.303 -0.566,4.145 -1.204,8.255 -1.771,12.366 -0.602,4.677 -1.098,9.318 -1.736,13.996 -0.496,3.472 -0.779,6.980 -1.594,10.417 -0.496,2.055 -1.311,4.003 -1.948,6.023 l -2.657,0.354 c -0.885,-0.885 -1.452,-2.303 -2.657,-2.657 -1.594,-0.496 -3.472,0.070 -4.960,0.885 -2.125,1.133 -3.649,3.224 -4.925,5.279 -1.240,1.984 -2.232,4.216 -2.480,6.555 -0.141,1.488 0.106,3.047 0.708,4.429 0.460,1.027 1.098,2.161 2.125,2.657 0.992,0.460 2.232,0 3.366,0 0.566,0.814 0.956,1.807 1.736,2.444 1.204,0.992 2.834,1.311 4.251,1.948 0.779,0.885 1.240,2.161 2.303,2.657 0.921,0.425 2.019,0 3.011,0 0.885,0.814 1.523,2.019 2.657,2.480 0.921,0.354 1.984,0 2.976,0 1.027,1.169 1.594,2.905 3.011,3.543 1.027,0.425 2.232,-0.141 3.366,-0.177 0.885,1.062 1.417,2.586 2.657,3.188 1.027,0.460 2.232,0 3.366,0 1.098,0.921 2.090,2.055 3.330,2.799 1.452,0.885 3.011,1.559 4.606,1.948 1.665,0.389 3.437,0.673 5.137,0.354 1.842,-0.318 3.614,-1.204 5.137,-2.303 1.665,-1.204 3.082,-2.834 4.216,-4.570 1.594,-2.374 2.657,-5.066 3.543,-7.795 1.594,-4.925 2.090,-10.098 3.011,-15.200 1.169,-6.625 2.019,-13.322 3.188,-19.984 1.133,-6.590 2.409,-13.216 3.685,-19.771 1.098,-5.492 2.267,-10.984 3.366,-16.440 z" id="path9047" style="fill:#ffff55;fill-rule:nonzero;stroke:none" />
 <path d="m 131.988,30.011 20.019,40.003 c 0,0 10.169,-2.692 15.377,-3.543 8.149,-1.311 16.370,-2.196 24.625,-2.480 9.992,-0.318 20.019,0.141 29.976,0.992 11.763,1.062 35.007,5.031 35.007,5.031 l 22.996,-40.003 z" id="path9049" style="fill:#ff5555;fill-rule:nonzero;stroke:#5555aa;stroke-width:1.984px;stroke-linecap:round;stroke-linejoin:round;stroke-opacity:1" />
 <path d="M 146.834,31.464 162,61.015 c 6.484,-2.267 11.409,-2.338 19.700,-3.259 l -3.897,-26.291 -5.740,0 5.102,22.748 c -4.748,0.318 -8.503,0.283 -12.614,1.913 L 153.425,31.464 Z" id="path9051" style="fill:#5555aa;fill-rule:nonzero;stroke:#5555aa;stroke-width:1.984px;stroke-linecap:round;stroke-linejoin:round;stroke-opacity:1" />
 <path d="m 186.696,31.464 3.047,25.299 c 10.063,-0.921 18.141,-1.488 28.204,-0.460 l 5.492,-24.838 -6.448,0 -3.047,19.807 c -7.901,-0.460 -12.578,0.035 -19.204,0.496 l -2.232,-20.303 z" id="path9053" style="fill:#5555aa;fill-rule:nonzero;stroke:#5555aa;stroke-width:1.984px;stroke-linecap:round;stroke-linejoin:round;stroke-opacity:1" />
 <path d="m 233.255,31.464 -7.334,25.051 c 7.370,0.637 18.070,1.594 26.078,3.472 l 13.712,-28.523 -6.342,0 -10.381,23.527 c -4.464,-1.204 -12.011,-1.736 -16.476,-2.374 l 6.236,-21.153 z" id="path9055" style="fill:#5555aa;fill-rule:nonzero;stroke:#5555aa;stroke-width:1.984px;stroke-linecap:round;stroke-linejoin:round;stroke-opacity:1" />
 <path d="m 205.015,64.984 c 0,0 -3.472,16.653 -5.031,25.015 -1.807,9.956 -2.905,20.090 -4.996,30.011 -1.381,6.732 -1.594,13.996 -4.996,19.984 -2.303,4.110 -5.421,8.787 -9.992,9.992 -4.429,1.169 -10.204,-0.177 -13.251,-3.578 -2.551,-2.870 -3.082,-7.795 -1.736,-11.409 1.417,-3.933 5.279,-8.326 9.460,-8.185 4.358,0.141 9.177,4.889 9.248,9.212 0.035,3.897 -4.181,8.255 -8.078,8.503 -2.409,0.177 -5.314,-2.125 -5.633,-4.535 -0.389,-2.799 2.161,-6.838 4.996,-6.803 1.700,0 4.003,1.984 2.940,4.145" id="path9057" style="fill:none;stroke:#5555aa;stroke-width:1.984px;stroke-linecap:round;stroke-linejoin:round;stroke-opacity:1" />
 <path d="m 199.169,64.169 c -2.940,8.964 -3.685,18.070 -5.244,27.177 -1.594,9.035 -2.019,18.248 -4.145,27.177 -1.700,7.086 -3.614,14.633 -6.803,20.763" id="path9059" style="fill:none;stroke:#5555aa;stroke-width:1.984px;stroke-linecap:round;stroke-linejoin:round;stroke-opacity:1" />
 <path d="m 192.472,64.169 c -2.232,7.795 -2.905,16.051 -4.145,24.094 -1.204,7.866 -1.629,15.874 -3.153,23.669 -1.098,5.669 -1.913,11.338 -4.322,16.688" id="path9061" style="fill:none;stroke:#5555aa;stroke-width:1.984px;stroke-linecap:round;stroke-linejoin:round;stroke-opacity:1" />
 <path d="m 186.519,64.559 c -1.984,7.440 -2.586,15.342 -3.685,23.031 -1.063,7.511 -1.452,15.200 -2.799,22.641 -0.992,5.385 -1.700,10.842 -3.862,15.944" id="path9063" style="fill:none;stroke:#5555aa;stroke-width:1.984px;stroke-linecap:round;stroke-linejoin:round;stroke-opacity:1" />
 <path d="m 180.708,65.196 c -1.807,7.086 -2.338,14.562 -3.330,21.897 -0.956,7.122 -1.311,14.385 -2.515,21.472 -0.885,5.137 -1.523,10.311 -3.472,15.129" id="path9065" style="fill:none;stroke:#5555aa;stroke-width:1.984px;stroke-linecap:round;stroke-linejoin:round;stroke-opacity:1" />
 <path d="m 175.003,65.728 c -1.771,6.732 -2.338,13.854 -3.295,20.799 -0.992,6.803 -1.311,13.712 -2.551,20.444 -0.885,4.889 -1.523,9.779 -3.472,14.385" id="path9067" style="fill:none;stroke:#5555aa;stroke-width:1.984px;stroke-linecap:round;stroke-linejoin:round;stroke-opacity:1" />
 <path d="m 168.625,66.614 c -1.736,6.307 -2.125,12.578 -3.047,18.850 -0.921,6.342 -1.275,12.755 -2.480,19.027 -0.850,4.535 -1.452,9.106 -3.366,13.393" id="path9069" style="fill:none;stroke:#5555aa;stroke-width:1.984px;stroke-linecap:round;stroke-linejoin:round;stroke-opacity:1" />
 <path d="m 162.460,67.535 c -1.665,5.740 -2.161,11.799 -3.047,17.716 -0.885,5.775 -1.204,11.657 -2.303,17.397 -0.814,4.145 -1.417,8.326 -3.188,12.259" id="path9071" style="fill:none;stroke:#5555aa;stroke-width:1.984px;stroke-linecap:round;stroke-linejoin:round;stroke-opacity:1" />
 <path d="m 155.480,69.484 c -1.417,5.137 -1.842,10.204 -2.586,15.342 -0.779,5.173 -1.027,10.452 -1.984,15.590 -0.673,3.720 -1.169,7.476 -2.692,10.984" id="path9073" style="fill:none;stroke:#5555aa;stroke-width:1.984px;stroke-linecap:round;stroke-linejoin:round;stroke-opacity:1" />
 <path d="m 175.429,127.204 c -1.629,-1.098 -3.082,-3.082 -5.031,-3.153 -3.224,-0.106 -6.413,2.055 -8.503,4.464 -2.232,2.586 -3.578,6.271 -3.330,9.673 0.141,2.444 1.346,5.066 3.295,6.555 0.956,0.708 2.019,0.531 3.578,0.673" id="path9075" style="fill:none;stroke:#5555aa;stroke-width:1.984px;stroke-linecap:round;stroke-linejoin:round;stroke-opacity:1" />
 <path d="m 168.944,123.980 c -1.346,-1.488 -2.374,-2.657 -3.968,-2.763 -3.224,-0.177 -6.413,2.055 -8.503,4.5 -2.232,2.551 -3.578,6.236 -3.330,9.637 0.141,2.444 1.204,5.279 3.295,6.555 0.992,0.602 1.877,0.708 3.472,-0.070" id="path9077" style="fill:none;stroke:#5555aa;stroke-width:1.984px;stroke-linecap:round;stroke-linejoin:round;stroke-opacity:1" />
 <path d="m 164.055,121.003 c -1.629,-1.098 -3.082,-3.082 -5.031,-3.153 -3.224,-0.106 -6.413,2.055 -8.503,4.5 -2.232,2.551 -3.578,6.236 -3.330,9.637 0.141,2.444 1.204,5.244 3.295,6.555 0.885,0.566 1.629,0.602 3.188,0.070" id="path9079" style="fill:none;stroke:#5555aa;stroke-width:1.984px;stroke-linecap:round;stroke-linejoin:round;stroke-opacity:1" />
 <path d="m 157.322,117.637 c -1.240,-1.771 -2.480,-2.657 -4.145,-2.763 -3.188,-0.141 -6.413,2.055 -8.503,4.5 -2.196,2.551 -3.543,6.236 -3.330,9.637 0.177,2.444 1.311,5.137 3.295,6.555 0.921,0.637 1.629,0.850 3.366,0.460" id="path9081" style="fill:none;stroke:#5555aa;stroke-width:1.984px;stroke-linecap:round;stroke-linejoin:round;stroke-opacity:1" />
 <path d="m 151.618,114.271 c -0.602,-1.488 -2.232,-2.515 -3.755,-2.622 -3.188,-0.212 -6.413,2.055 -8.468,4.464 -2.232,2.586 -3.578,6.271 -3.366,9.673 0.177,2.444 1.311,5.102 3.330,6.519 0.744,0.566 1.169,0.248 2.728,0.389" id="path9083" style="fill:none;stroke:#5555aa;stroke-width:1.984px;stroke-linecap:round;stroke-linejoin:round;stroke-opacity:1" />
 <path d="m 145.665,111.685 c -0.602,-1.771 -1.771,-2.374 -3.082,-2.480 -3.188,-0.318 -6.413,2.019 -8.503,4.464 -2.232,2.586 -3.437,6.236 -3.330,9.637 0.035,1.807 0.637,3.826 1.984,4.996 1.063,0.956 2.551,0.992 4.110,1.098" id="path9085" style="fill:none;stroke:#5555aa;stroke-width:1.984px;stroke-linecap:round;stroke-linejoin:round;stroke-opacity:1" />
 <path d="m 256.783,70.476 c -0.850,10.169 -1.452,20.303 -2.515,30.437 -0.566,5.527 -1.063,11.090 -2.019,16.582 -1.311,7.263 -1.629,14.988 -4.996,21.543 -2.055,3.968 -5.350,7.299 -8.858,9.992 -3.224,2.480 -6.944,4.5 -10.913,5.456 -4.110,1.027 -8.539,1.098 -12.720,0.248 -4.145,-0.885 -7.830,-3.224 -11.551,-5.244 -4.677,-2.515 -8.929,-5.740 -13.393,-8.610" id="path9087" style="fill:none;stroke:#5555aa;stroke-width:1.984px;stroke-linecap:round;stroke-linejoin:round;stroke-opacity:1" />
 <path d="m 202.960,83.870 c 3.933,-1.133 7.759,-2.763 11.799,-3.401 2.622,-0.389 5.421,-0.921 7.972,-0.212 1.275,0.354 3.578,1.381 3.401,2.161 -0.106,0.389 -0.744,0.318 -1.133,0.318 -1.488,0.035 -2.834,-0.921 -4.322,-1.133 -2.161,-0.283 -4.393,-0.212 -6.590,0 -3.755,0.389 -7.405,1.523 -11.125,2.267 z" id="path9089" style="fill:none;stroke:#5555aa;stroke-width:1.984px;stroke-linecap:round;stroke-linejoin:round;stroke-opacity:1" />
 <path d="m 225,92.161 c 0.460,-0.496 1.736,-0.921 1.346,-1.452 -0.460,-0.744 -3.295,-2.551 -5.208,-3.295 -1.807,-0.708 -3.791,-0.992 -5.775,-1.027 -2.055,-0.070 -4.145,0.248 -6.165,0.779 -1.381,0.389 -2.480,0.992 -4.039,1.665" id="path9091" style="fill:none;stroke:#5555aa;stroke-width:1.984px;stroke-linecap:round;stroke-linejoin:round;stroke-opacity:1" />
 <path d="m 200.799,93.437 c 3.330,-0.850 6.590,-2.125 9.992,-2.515 2.409,-0.283 4.889,-0.354 7.263,0.106 1.948,0.389 3.862,1.133 5.492,2.196 1.063,0.744 1.877,1.771 2.692,2.799 -1.629,0.708 -3.153,1.736 -4.889,2.161 -2.728,0.708 -5.598,0.992 -8.397,0.673 -2.374,-0.248 -4.641,-1.169 -6.803,-2.161 -1.913,-0.850 -3.543,-2.196 -5.350,-3.259 z" id="path9093" style="fill:none;stroke:#5555aa;stroke-width:1.984px;stroke-linecap:round;stroke-linejoin:round;stroke-opacity:1" />
 <path d="m 209.196,91.948 c 0.106,1.169 -0.318,2.480 0.248,3.507 0.673,1.240 2.055,2.055 3.401,2.515 1.027,0.318 2.267,0.354 3.295,0 0.992,-0.389 1.842,-1.169 2.374,-2.055 0.744,-1.240 0.602,-2.799 0.921,-4.216" id="path9095" style="fill:none;stroke:#5555aa;stroke-width:1.984px;stroke-linecap:round;stroke-linejoin:round;stroke-opacity:1" />
 <path d="m 212.988,92.763 c -0.318,0.354 -0.177,1.027 0.070,1.417 0.283,0.460 0.814,0.814 1.311,0.814 0.531,0.035 1.062,-0.318 1.311,-0.744 0.318,-0.460 0.496,-1.240 0.106,-1.629 -0.673,-0.637 -2.196,-0.496 -2.799,0.141 z" id="path9097" style="fill:#5555aa;fill-rule:nonzero;stroke:#5555aa;stroke-width:1.984px;stroke-linecap:round;stroke-linejoin:round;stroke-opacity:1" />
 <path d="m 208.877,103.854 c 2.374,-0.460 5.704,-0.992 8.397,-2.019 2.374,-0.921 4.641,-2.692 6.696,-3.649" id="path9099" style="fill:#5555aa;fill-rule:nonzero;stroke:#5555aa;stroke-width:1.984px;stroke-linecap:round;stroke-linejoin:round;stroke-opacity:1" />
 <path d="m 237.153,86.492 c -0.602,1.488 -1.523,2.870 -1.842,4.429 -0.566,3.188 -0.141,6.519 0.248,9.779 0.460,3.968 1.913,7.830 2.586,11.799 0.425,2.267 1.452,4.641 0.921,6.909 -0.248,1.133 -1.098,2.055 -1.913,2.834 -1.027,0.956 -2.444,1.452 -3.649,2.161" id="path9101" style="fill:none;stroke:#5555aa;stroke-width:1.984px;stroke-linecap:round;stroke-linejoin:round;stroke-opacity:1" />
 <path d="m 223.866,111.259 c -1.559,1.700 -3.826,2.940 -4.677,5.102 -0.389,1.027 -0.460,2.267 0,3.295 0.566,1.169 1.700,2.196 2.976,2.480 1.027,0.248 2.125,-0.318 3.047,-0.779 1.204,-0.637 1.877,-2.055 3.082,-2.622 0.850,-0.425 1.913,-0.921 2.834,-0.566 0.283,0.106 0.637,0.496 0.566,0.779 -0.318,1.027 -1.984,0.779 -2.940,1.133 -1.311,0.496 -2.586,0.921 -3.862,1.381" id="path9103" style="fill:none;stroke:#5555aa;stroke-width:1.984px;stroke-linecap:round;stroke-linejoin:round;stroke-opacity:1" />
 <path d="m 216.318,132.448 c 1.594,-0.814 3.862,-0.637 5.775,-0.602 1.984,0.035 3.897,0.956 5.846,0.885 2.232,-0.106 4.287,-1.594 6.555,-1.594 1.629,-0.035 3.507,0.708 4.783,1.062 -0.070,0.566 -0.248,1.311 0,1.736 -1.629,-0.602 -3.968,-1.488 -5.988,-1.240 -1.913,0.248 -3.295,2.444 -5.244,2.480 -2.232,0.070 -3.968,-2.480 -6.236,-2.586 -2.161,-0.070 -4.429,1.629 -6.129,2.019 0.460,-0.637 0.673,-1.700 0.637,-2.161 z" id="path9105" style="fill:#5555aa;fill-rule:nonzero;stroke:#5555aa;stroke-width:1.984px;stroke-linecap:round;stroke-linejoin:round;stroke-opacity:1" />
 <path d="m 220.251,139.393 c 1.594,0.673 3.082,1.700 4.783,2.019 1.240,0.248 2.586,0.212 3.862,-0.035 0.850,-0.141 1.629,-0.566 2.444,-0.885 0.744,-0.318 1.452,-0.708 2.196,-1.027" id="path9107" style="fill:none;stroke:#5555aa;stroke-width:1.984px;stroke-linecap:round;stroke-linejoin:round;stroke-opacity:1" />
 <path d="m 231.767,144.389 c -1.169,-0.496 -2.267,-0.921 -3.437,-0.921 -0.992,0 -1.913,0.389 -2.834,0.814" id="path9109" style="fill:none;stroke:#5555aa;stroke-width:1.984px;stroke-linecap:round;stroke-linejoin:round;stroke-opacity:1" />
 <path d="m 238.287,83.551 c 1.559,-1.842 4.996,-2.303 7.688,-2.515 1.984,-0.141 3.933,0.389 5.846,0.956 1.346,0.389 2.657,1.133 3.933,1.736 -2.161,-0.425 -4.393,-1.204 -6.625,-1.275 -1.948,-0.035 -3.897,0.354 -5.811,0.779 -1.346,0.318 -2.586,0.956 -3.791,1.594 -0.496,0.283 -1.629,-0.814 -1.240,-1.275 z" id="path9111" style="fill:#5555aa;fill-rule:nonzero;stroke:#5555aa;stroke-width:1.984px;stroke-linecap:round;stroke-linejoin:round;stroke-opacity:1" />
 <path d="m 237.720,90.354 c 1.559,-0.779 2.976,-1.842 4.641,-2.267 2.338,-0.673 4.889,-0.992 7.263,-0.566 1.594,0.283 2.940,1.346 4.429,1.984" id="path9113" style="fill:none;stroke:#5555aa;stroke-width:1.984px;stroke-linecap:round;stroke-linejoin:round;stroke-opacity:1" />
 <path d="m 236.692,93.649 c 1.700,-0.673 3.791,-1.204 5.704,-1.452 2.232,-0.283 4.535,-0.354 6.767,-0.070 1.311,0.177 2.692,0.425 3.862,1.098 0.708,0.425 1.169,1.204 1.771,1.807 l -0.354,2.728 c -1.169,0.425 -2.338,1.027 -3.578,1.240 -1.665,0.318 -3.437,0.318 -5.137,0.212 -1.842,-0.106 -3.720,-0.212 -5.456,-0.885 -1.311,-0.531 -2.480,-1.417 -3.578,-2.338 -0.354,-0.318 -0.637,-0.673 -0.956,-1.027 0.318,-0.425 0.460,-1.098 0.956,-1.311 z" id="path9115" style="fill:none;stroke:#5555aa;stroke-width:1.984px;stroke-linecap:round;stroke-linejoin:round;stroke-opacity:1" />
 <path d="m 241.086,92.905 c 0.070,1.169 -0.318,2.480 0.248,3.507 0.673,1.240 2.055,2.090 3.401,2.515 1.027,0.354 2.267,0.389 3.295,0 0.956,-0.354 1.842,-1.133 2.374,-2.055 0.744,-1.204 0.602,-2.799 0.921,-4.181" id="path9117" style="fill:none;stroke:#5555aa;stroke-width:1.984px;stroke-linecap:round;stroke-linejoin:round;stroke-opacity:1" />
 <path d="m 244.559,93.755 c -0.318,0.354 -0.177,0.992 0.070,1.417 0.283,0.425 0.814,0.779 1.311,0.814 0.531,0 1.063,-0.318 1.311,-0.744 0.318,-0.460 0.496,-1.275 0.106,-1.665 -0.673,-0.602 -2.161,-0.496 -2.799,0.177 z" id="path9119" style="fill:#5555aa;fill-rule:nonzero;stroke:#5555aa;stroke-width:1.984px;stroke-linecap:round;stroke-linejoin:round;stroke-opacity:1" />
 <path d="m 237.507,99.070 c 1.275,1.381 2.303,3.011 3.791,4.181 1.204,0.921 2.657,1.417 4.003,2.125" id="path9121" style="fill:none;stroke:#5555aa;stroke-width:1.984px;stroke-linecap:round;stroke-linejoin:round;stroke-opacity:1" />
 <path d="m 253.559,108.602 c 0.673,2.905 1.381,4.854 2.622,7.015 1.275,2.125 2.728,4.251 4.783,5.633 1.629,1.062 3.614,1.913 5.562,1.736 1.771,-0.141 3.649,-0.992 4.748,-2.409 1.098,-1.417 1.275,-3.472 1.169,-5.279 -0.106,-1.629 -0.566,-3.401 -1.665,-4.641 -0.956,-1.133 -2.409,-1.913 -3.862,-2.055 -1.027,-0.106 -2.196,0.070 -2.940,0.779 -0.566,0.531 -0.779,1.452 -0.779,2.232 0.035,0.850 -0.070,1.736 0.992,2.338 -0.779,-0.318 -1.311,-1.311 -1.877,-2.055 -0.744,-1.062 -1.381,-2.267 -1.913,-3.507 -0.637,-1.381 -1.062,-2.870 -1.488,-4.358 -0.531,-2.019 -0.921,-4.110 -1.346,-6.129 -0.708,-3.224 -1.523,-7.086 -2.055,-9.637 -0.566,5.527 -1.346,14.775 -1.948,20.338 z" id="path9123" style="fill:#ffff55;fill-rule:nonzero;stroke:#5555aa;stroke-width:1.984px;stroke-linecap:round;stroke-linejoin:round;stroke-opacity:1" />
 <path d="m 250.830,128.586 c 0.637,2.905 2.586,8.574 4.854,12.366 1.275,2.125 2.799,4.181 4.783,5.633 1.594,1.169 3.472,2.480 5.456,2.338 1.877,-0.141 3.755,-1.452 4.854,-3.011 1.027,-1.452 1.275,-3.472 1.169,-5.244 -0.106,-1.665 -0.566,-3.437 -1.665,-4.677 -0.956,-1.098 -2.409,-1.877 -3.897,-2.055 -0.992,-0.106 -2.161,0.106 -2.905,0.779 -0.566,0.531 -0.814,1.452 -0.779,2.232 0.070,0.814 0.035,1.559 1.062,2.161 -0.779,-0.318 -1.381,-1.133 -1.948,-1.842 -0.814,-1.063 -1.381,-2.303 -1.948,-3.507 -0.602,-1.417 -0.992,-2.940 -1.452,-4.393 -0.531,-1.736 -1.027,-3.507 -1.559,-5.244 -1.169,-4.110 -2.976,-9.708 -3.507,-12.259 -0.566,5.527 -1.948,11.161 -2.515,16.724 z" id="path9125" style="fill:#ffff55;fill-rule:nonzero;stroke:#5555aa;stroke-width:1.984px;stroke-linecap:round;stroke-linejoin:round;stroke-opacity:1" />
 <path d="m 248.598,136.417 c 0,0 0.921,2.870 1.559,4.216 0.744,1.523 2.622,4.358 2.622,4.358 0,0 3.224,1.452 4.889,2.055 1.559,0.566 4.748,1.452 4.748,1.452 0,0 -3.685,-2.870 -5.137,-4.677 -1.275,-1.559 -2.161,-3.401 -3.047,-5.244 -0.814,-1.771 -1.381,-3.685 -2.019,-5.562 -0.566,-1.665 -1.559,-5.066 -1.559,-5.066 0,0 -0.566,3.330 -0.992,4.996 -0.283,1.169 -1.062,3.472 -1.062,3.472 z" id="path9127" style="fill:#ffff55;fill-rule:nonzero;stroke:#5555aa;stroke-width:1.984px;stroke-linecap:round;stroke-linejoin:round;stroke-opacity:1" />
 <path d="m 252.779,144.992 -6.803,-3.897 2.622,-4.748 z" id="path9129" style="fill:#ffff55;fill-rule:nonzero;stroke:#5555aa;stroke-width:1.984px;stroke-linecap:round;stroke-linejoin:round;stroke-opacity:1" />
 <path d="m 182.409,149.208 24.909,20.692 28.062,-18.460 -0.673,8.964 -27.035,18.602 -35.114,-28.984 c 2.834,0.956 6.590,0.814 9.850,-0.814 z" id="path9131" style="fill:#ffff55;fill-rule:nonzero;stroke:#5555aa;stroke-width:1.984px;stroke-linecap:round;stroke-linejoin:round;stroke-opacity:1" />
 <path d="m 112.251,158.527 9.354,10.594 -9.177,9.708" id="path9133" style="fill:none;stroke:#5555aa;stroke-width:1.984px;stroke-linecap:round;stroke-linejoin:round;stroke-opacity:1" />
 <path d="m 112.606,164.940 3.366,3.897 -3.366,3.507" id="path9135" style="fill:none;stroke:#5555aa;stroke-width:1.984px;stroke-linecap:round;stroke-linejoin:round;stroke-opacity:1" />
 <path d="m 125.503,146.515 -9.354,9.708 9,9.885 9.106,-9.885 z m -0.177,4.181 5.350,4.996 -5.350,5.881 -5.173,-5.173 z" id="path9137" style="fill:#5555aa;fill-rule:nonzero;stroke:#5555aa;stroke-width:1.984px;stroke-linecap:round;stroke-linejoin:round;stroke-opacity:1" />
 <path d="m 329.988,52.015 -37.984,36 37.984,0 z" id="path9139" style="fill:#ffff55;fill-rule:nonzero;stroke:#5555aa;stroke-width:1.984px;stroke-linecap:round;stroke-linejoin:round;stroke-opacity:1" />
 <path d="m 329.988,59.988 -22.996,22.003 22.996,0 z" id="path9141" style="fill:#ff5555;fill-rule:nonzero;stroke:#5555aa;stroke-width:1.984px;stroke-linecap:round;stroke-linejoin:round;stroke-opacity:1" />
 <path d="m 111.685,184.110 9.354,10.629 -9.177,9.708" id="path9143" style="fill:none;stroke:#5555aa;stroke-width:1.984px;stroke-linecap:round;stroke-linejoin:round;stroke-opacity:1" />
 <path d="m 112.039,190.559 3.366,3.862 -3.366,3.543" id="path9145" style="fill:none;stroke:#5555aa;stroke-width:1.984px;stroke-linecap:round;stroke-linejoin:round;stroke-opacity:1" />
 <path d="m 137.161,159.625 -9.177,9.850 9.177,9.708" id="path9147" style="fill:none;stroke:#5555aa;stroke-width:1.984px;stroke-linecap:round;stroke-linejoin:round;stroke-opacity:1" />
 <path d="m 136.984,165.295 -3.366,3.897 3.366,3.507" id="path9149" style="fill:none;stroke:#5555aa;stroke-width:1.984px;stroke-linecap:round;stroke-linejoin:round;stroke-opacity:1" />
 <path d="m 136.452,203.669 -8.610,-9.283 9.177,-9.708" id="path9151" style="fill:none;stroke:#5555aa;stroke-width:1.984px;stroke-linecap:round;stroke-linejoin:round;stroke-opacity:1" />
 <path d="m 136.842,198.566 -3.330,-3.862 3.330,-3.543" id="path9153" style="fill:none;stroke:#5555aa;stroke-width:1.984px;stroke-linecap:round;stroke-linejoin:round;stroke-opacity:1" />
 <path d="m 124.511,172.275 -9.354,9.708 9,9.885 9.496,-10.062 z m -0.177,4.181 5.350,4.996 -5.350,5.881 -5.173,-5.173 z" id="path9155" style="fill:#5555aa;fill-rule:nonzero;stroke:#5555aa;stroke-width:1.984px;stroke-linecap:round;stroke-linejoin:round;stroke-opacity:1" />
 <path d="m 124.901,197.645 -9.318,9.708 9,9.425 9.673,-9.212 z m -0.141,4.181 5.350,4.996 -5.350,5.881 -5.208,-5.137 z" id="path9157" style="fill:#5555aa;fill-rule:nonzero;stroke:#5555aa;stroke-width:1.984px;stroke-linecap:round;stroke-linejoin:round;stroke-opacity:1" />
 <path d="m 137.374,152.291 -8.397,-9.070 7.830,-8.397" id="path9159" style="fill:none;stroke:#5555aa;stroke-width:1.984px;stroke-linecap:round;stroke-linejoin:round;stroke-opacity:1" />
 <path d="m 137.232,147.011 -3.366,-3.507 2.763,-3.330" id="path9161" style="fill:none;stroke:#5555aa;stroke-width:1.984px;stroke-linecap:round;stroke-linejoin:round;stroke-opacity:1" />
 <path d="m 112.641,154.204 9.956,-10.417 -5.740,-6.059" id="path9163" style="fill:none;stroke:#5555aa;stroke-width:1.984px;stroke-linecap:round;stroke-linejoin:round;stroke-opacity:1" />
 <path d="m 112.996,147.791 3.366,-3.897 -3.366,-3.543" id="path9165" style="fill:none;stroke:#5555aa;stroke-width:1.984px;stroke-linecap:round;stroke-linejoin:round;stroke-opacity:1" />
 <path d="m 111.755,210.295 3.862,4.606" id="path9167" style="fill:#ff5555;fill-rule:nonzero;stroke:#5555aa;stroke-width:1.984px;stroke-linecap:round;stroke-linejoin:round;stroke-opacity:1" />
 <path d="m 137.480,210.082 -7.086,7.299" id="path9169" style="fill:#ff5555;fill-rule:nonzero;stroke:#5555aa;stroke-width:1.984px;stroke-linecap:round;stroke-linejoin:round;stroke-opacity:1" />
 <path d="m 112.145,140.775 -0.566,73.877" id="path9171" style="fill:#ff5555;fill-rule:nonzero;stroke:#5555aa;stroke-width:1.984px;stroke-linecap:round;stroke-linejoin:round;stroke-opacity:1" />
 <path d="m 137.692,131.740 -0.212,88.405" id="path9173" style="fill:#ff5555;fill-rule:nonzero;stroke:#5555aa;stroke-width:1.984px;stroke-linecap:round;stroke-linejoin:round;stroke-opacity:1" />
 <path d="m 121.181,136.169 4.393,4.393 8.468,-8.433 -1.346,-2.303 z" id="path9175" style="fill:#5555aa;fill-rule:nonzero;stroke:#5555aa;stroke-width:1.984px;stroke-linecap:round;stroke-linejoin:round;stroke-opacity:1" />
 <path d="m 306.992,88.015 0,70.972 6.023,2.019 0,-72.992 z" id="path9177" style="fill:#ffff55;fill-rule:nonzero;stroke:#5555aa;stroke-width:1.984px;stroke-linecap:round;stroke-linejoin:round;stroke-opacity:1" />
 <path d="m 313.015,368.007 0,-202.003 -6.023,0 0,203.988 22.996,20.019 0,-7.015 z" id="path9179" style="fill:#ffff55;fill-rule:nonzero;stroke:#5555aa;stroke-width:1.984px;stroke-linecap:round;stroke-linejoin:round;stroke-opacity:1" />
 <path d="m 321.484,90 c -1.169,0 -2.480,1.311 -2.480,2.515 0,1.169 1.311,2.480 2.480,2.480 1.204,0 2.515,-1.311 2.515,-2.480 C 324,91.311 322.688,90 321.484,90 Z" id="path9181" style="fill:#ffff55;fill-rule:nonzero;stroke:none" />
 <path d="m 321.484,103.996 c -1.169,0 -2.480,1.311 -2.480,2.515 0,1.169 1.311,2.480 2.480,2.480 1.204,0 2.515,-1.311 2.515,-2.480 0,-1.204 -1.311,-2.515 -2.515,-2.515 z" id="path9183" style="fill:#ffff55;fill-rule:nonzero;stroke:none" />
 <path d="m 324.496,97.015 c -1.169,0 -2.480,1.311 -2.480,2.480 0,1.169 1.311,2.515 2.480,2.515 1.169,0 2.515,-1.346 2.515,-2.515 0,-1.169 -1.346,-2.480 -2.515,-2.480 z" id="path9185" style="fill:#ffff55;fill-rule:nonzero;stroke:none" />
 <path d="m 318.507,97.015 c -1.169,0 -2.515,1.311 -2.515,2.480 0,1.169 1.346,2.515 2.515,2.515 1.169,0 2.480,-1.346 2.480,-2.515 0,-1.169 -1.311,-2.480 -2.480,-2.480 z" id="path9187" style="fill:#ffff55;fill-rule:nonzero;stroke:none" />
 <path d="m 321.661,138.755 c -1.204,0 -2.515,1.311 -2.515,2.515 0,1.169 1.311,2.480 2.515,2.480 1.169,0 2.480,-1.311 2.480,-2.480 0,-1.204 -1.311,-2.515 -2.480,-2.515 z" id="path9189" style="fill:#ffff55;fill-rule:nonzero;stroke:none" />
 <path d="m 321.661,152.751 c -1.204,0 -2.515,1.346 -2.515,2.515 0,1.169 1.311,2.480 2.515,2.480 1.169,0 2.480,-1.311 2.480,-2.480 0,-1.169 -1.311,-2.515 -2.480,-2.515 z" id="path9191" style="fill:#ffff55;fill-rule:nonzero;stroke:none" />
 <path d="m 324.637,145.771 c -1.169,0 -2.480,1.311 -2.480,2.480 0,1.204 1.311,2.515 2.480,2.515 1.204,0 2.515,-1.311 2.515,-2.515 0,-1.169 -1.311,-2.480 -2.515,-2.480 z" id="path9193" style="fill:#ffff55;fill-rule:nonzero;stroke:none" />
 <path d="m 318.649,145.771 c -1.169,0 -2.515,1.311 -2.515,2.480 0,1.204 1.346,2.515 2.515,2.515 1.169,0 2.515,-1.311 2.515,-2.515 0,-1.169 -1.346,-2.480 -2.515,-2.480 z" id="path9195" style="fill:#ffff55;fill-rule:nonzero;stroke:none" />
 <path d="m 321.448,187.547 c -1.169,0 -2.480,1.311 -2.480,2.480 0,1.204 1.311,2.515 2.480,2.515 1.169,0 2.515,-1.311 2.515,-2.515 0,-1.169 -1.346,-2.480 -2.515,-2.480 z" id="path9197" style="fill:#ffff55;fill-rule:nonzero;stroke:none" />
 <path d="m 321.448,201.543 c -1.169,0 -2.480,1.311 -2.480,2.480 0,1.204 1.311,2.515 2.480,2.515 1.169,0 2.515,-1.311 2.515,-2.515 0,-1.169 -1.346,-2.480 -2.515,-2.480 z" id="path9199" style="fill:#ffff55;fill-rule:nonzero;stroke:none" />
 <path d="m 324.460,194.527 c -1.169,0 -2.515,1.346 -2.515,2.515 0,1.169 1.346,2.480 2.515,2.480 1.169,0 2.480,-1.311 2.480,-2.480 0,-1.169 -1.311,-2.515 -2.480,-2.515 z" id="path9201" style="fill:#ffff55;fill-rule:nonzero;stroke:none" />
 <path d="m 318.472,194.527 c -1.204,0 -2.515,1.346 -2.515,2.515 0,1.169 1.311,2.480 2.515,2.480 1.169,0 2.480,-1.311 2.480,-2.480 0,-1.169 -1.311,-2.515 -2.480,-2.515 z" id="path9203" style="fill:#ffff55;fill-rule:nonzero;stroke:none" />
 <path d="m 321.271,237.082 c -1.169,0 -2.515,1.311 -2.515,2.480 0,1.204 1.346,2.515 2.515,2.515 1.169,0 2.480,-1.311 2.480,-2.515 0,-1.169 -1.311,-2.480 -2.480,-2.480 z" id="path9205" style="fill:#ffff55;fill-rule:nonzero;stroke:none" />
 <path d="m 321.271,251.078 c -1.169,0 -2.515,1.311 -2.515,2.515 0,1.169 1.346,2.480 2.515,2.480 1.169,0 2.480,-1.311 2.480,-2.480 0,-1.204 -1.311,-2.515 -2.480,-2.515 z" id="path9207" style="fill:#ffff55;fill-rule:nonzero;stroke:none" />
 <path d="m 324.248,244.062 c -1.169,0 -2.480,1.346 -2.480,2.515 0,1.169 1.311,2.515 2.480,2.515 1.204,0 2.515,-1.346 2.515,-2.515 0,-1.169 -1.311,-2.515 -2.515,-2.515 z" id="path9209" style="fill:#ffff55;fill-rule:nonzero;stroke:none" />
 <path d="m 318.259,244.062 c -1.169,0 -2.480,1.346 -2.480,2.515 0,1.169 1.311,2.515 2.480,2.515 1.169,0 2.515,-1.346 2.515,-2.515 0,-1.169 -1.346,-2.515 -2.515,-2.515 z" id="path9211" style="fill:#ffff55;fill-rule:nonzero;stroke:none" />
 <path d="m 321.271,285.484 c -1.169,0 -2.515,1.311 -2.515,2.480 0,1.169 1.346,2.515 2.515,2.515 1.169,0 2.480,-1.346 2.480,-2.515 0,-1.169 -1.311,-2.480 -2.480,-2.480 z" id="path9213" style="fill:#ffff55;fill-rule:nonzero;stroke:none" />
 <path d="m 321.271,299.480 c -1.169,0 -2.515,1.311 -2.515,2.480 0,1.204 1.346,2.515 2.515,2.515 1.169,0 2.480,-1.311 2.480,-2.515 0,-1.169 -1.311,-2.480 -2.480,-2.480 z" id="path9215" style="fill:#ffff55;fill-rule:nonzero;stroke:none" />
 <path d="m 324.248,292.464 c -1.169,0 -2.480,1.311 -2.480,2.515 0,1.169 1.311,2.480 2.480,2.480 1.204,0 2.515,-1.311 2.515,-2.480 0,-1.204 -1.311,-2.515 -2.515,-2.515 z" id="path9217" style="fill:#ffff55;fill-rule:nonzero;stroke:none" />
 <path d="m 318.259,292.464 c -1.169,0 -2.480,1.311 -2.480,2.515 0,1.169 1.311,2.480 2.480,2.480 1.169,0 2.515,-1.311 2.515,-2.480 0,-1.204 -1.346,-2.515 -2.515,-2.515 z" id="path9219" style="fill:#ffff55;fill-rule:nonzero;stroke:none" />
 <path d="m 320.704,334.062 c -1.204,0 -2.515,1.311 -2.515,2.480 0,1.204 1.311,2.515 2.515,2.515 1.169,0 2.480,-1.311 2.480,-2.515 0,-1.169 -1.311,-2.480 -2.480,-2.480 z" id="path9221" style="fill:#ffff55;fill-rule:nonzero;stroke:none" />
 <path d="m 320.704,348.059 c -1.204,0 -2.515,1.311 -2.515,2.480 0,1.204 1.311,2.515 2.515,2.515 1.169,0 2.480,-1.311 2.480,-2.515 0,-1.169 -1.311,-2.480 -2.480,-2.480 z" id="path9223" style="fill:#ffff55;fill-rule:nonzero;stroke:none" />
 <path d="m 323.681,341.043 c -1.169,0 -2.480,1.346 -2.480,2.515 0,1.169 1.311,2.480 2.480,2.480 1.169,0 2.515,-1.311 2.515,-2.480 0,-1.169 -1.346,-2.515 -2.515,-2.515 z" id="path9225" style="fill:#ffff55;fill-rule:nonzero;stroke:none" />
 <path d="m 317.692,341.043 c -1.169,0 -2.515,1.346 -2.515,2.515 0,1.169 1.346,2.480 2.515,2.480 1.169,0 2.480,-1.311 2.480,-2.480 0,-1.169 -1.311,-2.515 -2.480,-2.515 z" id="path9227" style="fill:#ffff55;fill-rule:nonzero;stroke:none" />
 <path d="m 315,126.992 0,-4.996 13.003,-12.011 0,5.031 z" id="path9229" style="fill:#ffff55;fill-rule:nonzero;stroke:none" />
 <path d="m 315,135 0,-4.996 13.003,-12.011 0,4.996 z" id="path9231" style="fill:#ffff55;fill-rule:nonzero;stroke:none" />
 <path d="m 315,176.988 0,-4.996 13.003,-11.976 0,4.996 z" id="path9233" style="fill:#ffff55;fill-rule:nonzero;stroke:none" />
 <path d="M 315,184.996 315,180 l 13.003,-12.011 0,4.996 z" id="path9235" style="fill:#ffff55;fill-rule:nonzero;stroke:none" />
 <path d="m 315,226.984 0,-4.996 13.003,-11.976 0,4.996 z" id="path9237" style="fill:#ffff55;fill-rule:nonzero;stroke:none" />
 <path d="m 315,234.992 0,-4.996 13.003,-12.011 0,5.031 z" id="path9239" style="fill:#ffff55;fill-rule:nonzero;stroke:none" />
 <path d="M 315,274.996 315,270 l 13.003,-12.011 0,4.996 z" id="path9241" style="fill:#ffff55;fill-rule:nonzero;stroke:none" />
 <path d="m 315,283.003 0,-4.996 13.003,-12.011 0,4.996 z" id="path9243" style="fill:#ffff55;fill-rule:nonzero;stroke:none" />
 <path d="m 315,322.015 0,-5.031 13.003,-11.976 0,4.996 z" id="path9245" style="fill:#ffff55;fill-rule:nonzero;stroke:none" />
 <path d="m 315,329.988 0,-4.996 13.003,-11.976 0,4.996 z" id="path9247" style="fill:#ffff55;fill-rule:nonzero;stroke:none" />
 <path d="M 315.141,368.255 315,367.015 l 13.003,-12.011 0,4.996 -9.992,9.885 z" id="path9249" style="fill:#ffff55;fill-rule:nonzero;stroke:none" />
 <path d="m 321.732,373.5 -2.374,-1.984 8.645,-8.503 0,4.996 z" id="path9251" style="fill:#ffff55;fill-rule:nonzero;stroke:none" />
 <path d="m 247.5,170.964 -9.354,9.744 9,9.885 9.673,-9.708 z m -0.177,4.216 5.350,4.996 -5.350,5.846 -5.173,-5.137 z" id="path9253" style="fill:#5555aa;fill-rule:nonzero;stroke:#5555aa;stroke-width:1.984px;stroke-linecap:round;stroke-linejoin:round;stroke-opacity:1" />
 <path d="m 251.220,143.468 -10.523,8.468 7.688,10.948 10.807,-8.397 z m -0.673,4.145 4.641,5.633 -6.059,5.137 -4.464,-5.775 z" id="path9255" style="fill:#5555aa;fill-rule:nonzero;stroke:#5555aa;stroke-width:1.984px;stroke-linecap:round;stroke-linejoin:round;stroke-opacity:1" />
 <path d="m 247.145,196.830 -8.255,9.921 10.027,8.220 8.362,-9.921 z m 0.283,3.897 5.846,4.074 -4.677,5.952 -5.704,-4.251 z" id="path9257" style="fill:#5555aa;fill-rule:nonzero;stroke:#5555aa;stroke-width:1.984px;stroke-linecap:round;stroke-linejoin:round;stroke-opacity:1" />
 <path d="m 249.590,220.216 -7.830,10.984 10.346,8.503 8.185,-11.019 z m 0.460,4.181 6.023,4.145 -4.429,6.590 -5.881,-4.322 z" id="path9259" style="fill:#5555aa;fill-rule:nonzero;stroke:#5555aa;stroke-width:1.984px;stroke-linecap:round;stroke-linejoin:round;stroke-opacity:1" />
 <path d="m 253.771,246.011 -6.023,12.047 11.515,6.803 6.377,-12.153 z m 1.098,4.039 6.590,3.188 -3.366,7.192 -6.484,-3.366 z" id="path9261" style="fill:#5555aa;fill-rule:nonzero;stroke:#5555aa;stroke-width:1.984px;stroke-linecap:round;stroke-linejoin:round;stroke-opacity:1" />
 <path d="m 261.035,271.417 -4.889,12.578 12.118,5.669 5.208,-12.685 z m 1.488,3.933 6.838,2.551 -2.657,7.476 -6.767,-2.728 z" id="path9263" style="fill:#5555aa;fill-rule:nonzero;stroke:#5555aa;stroke-width:1.984px;stroke-linecap:round;stroke-linejoin:round;stroke-opacity:1" />
 <path d="m 271.771,297.070 -2.409,13.251 12.968,3.295 2.692,-13.429 z m 2.196,3.578 7.228,1.204 -1.240,7.830 -7.157,-1.417 z" id="path9265" style="fill:#5555aa;fill-rule:nonzero;stroke:#5555aa;stroke-width:1.984px;stroke-linecap:round;stroke-linejoin:round;stroke-opacity:1" />
 <path d="m 285.236,320.775 -1.275,13.429 13.216,2.161 1.523,-13.641 z m 2.480,3.401 7.299,0.566 -0.531,7.937 -7.263,-0.814 z" id="path9267" style="fill:#5555aa;fill-rule:nonzero;stroke:#5555aa;stroke-width:1.984px;stroke-linecap:round;stroke-linejoin:round;stroke-opacity:1" />
 <path d="m 261.248,158.775 -10.204,8.185 8.078,9.992" id="path9269" style="fill:none;stroke:#5555aa;stroke-width:1.984px;stroke-linecap:round;stroke-linejoin:round;stroke-opacity:1" />
 <path d="m 260.468,163.984 -3.755,3.295 2.940,3.614" id="path9271" style="fill:none;stroke:#5555aa;stroke-width:1.984px;stroke-linecap:round;stroke-linejoin:round;stroke-opacity:1" />
 <path d="m 262.488,149.492 c 0,0 -1.452,12.330 -1.984,18.496 -0.744,8.574 -1.842,17.149 -1.771,25.759 0.106,7.547 1.063,15.023 2.019,22.5 1.027,7.972 2.196,15.909 4.003,23.740 1.984,8.716 4.5,17.326 7.476,25.759 2.728,7.582 5.952,15.023 9.531,22.251 3.826,7.795 8.078,15.413 12.720,22.748 C 298.027,316.346 306,327.011 306,327.011" id="path9273" style="fill:none;stroke:#5555aa;stroke-width:1.984px;stroke-linecap:round;stroke-linejoin:round;stroke-opacity:1" />
 <path d="m 235.027,176.137 10.629,-11.338 -9.496,-11.409" id="path9275" style="fill:none;stroke:#5555aa;stroke-width:1.984px;stroke-linecap:round;stroke-linejoin:round;stroke-opacity:1" />
 <path d="m 235.452,169.618 4.535,-4.748 -4.181,-5.173" id="path9277" style="fill:none;stroke:#5555aa;stroke-width:1.984px;stroke-linecap:round;stroke-linejoin:round;stroke-opacity:1" />
 <path d="m 258.519,184.570 -8.539,8.220 7.901,8.681" id="path9279" style="fill:none;stroke:#5555aa;stroke-width:1.984px;stroke-linecap:round;stroke-linejoin:round;stroke-opacity:1" />
 <path d="m 258.200,189.425 -3.153,3.259 2.905,3.153" id="path9281" style="fill:none;stroke:#5555aa;stroke-width:1.984px;stroke-linecap:round;stroke-linejoin:round;stroke-opacity:1" />
 <path d="m 234.070,206.043 10.240,-11.692 -9.850,-11.090" id="path9283" style="fill:none;stroke:#5555aa;stroke-width:1.984px;stroke-linecap:round;stroke-linejoin:round;stroke-opacity:1" />
 <path d="m 234.283,199.523 4.358,-4.925 -4.358,-4.996" id="path9285" style="fill:none;stroke:#5555aa;stroke-width:1.984px;stroke-linecap:round;stroke-linejoin:round;stroke-opacity:1" />
 <path d="m 236.834,231.342 8.964,-12.685 -10.913,-10.027" id="path9287" style="fill:none;stroke:#5555aa;stroke-width:1.984px;stroke-linecap:round;stroke-linejoin:round;stroke-opacity:1" />
 <path d="m 236.374,224.822 3.826,-5.314 -4.854,-4.570" id="path9289" style="fill:none;stroke:#5555aa;stroke-width:1.984px;stroke-linecap:round;stroke-linejoin:round;stroke-opacity:1" />
 <path d="m 241.582,256.677 7.440,-13.641 -12.047,-8.681" id="path9291" style="fill:none;stroke:#5555aa;stroke-width:1.984px;stroke-linecap:round;stroke-linejoin:round;stroke-opacity:1" />
 <path d="m 240.377,250.263 3.188,-5.740 -5.350,-3.968" id="path9293" style="fill:none;stroke:#5555aa;stroke-width:1.984px;stroke-linecap:round;stroke-linejoin:round;stroke-opacity:1" />
 <path d="m 252,282.755 5.314,-14.633 -13.181,-6.767" id="path9295" style="fill:none;stroke:#5555aa;stroke-width:1.984px;stroke-linecap:round;stroke-linejoin:round;stroke-opacity:1" />
 <path d="m 249.838,276.590 2.303,-6.165 -5.881,-3.118" id="path9297" style="fill:none;stroke:#5555aa;stroke-width:1.984px;stroke-linecap:round;stroke-linejoin:round;stroke-opacity:1" />
 <path d="m 264.543,309.224 3.543,-15.165 -13.925,-5.137" id="path9299" style="fill:none;stroke:#5555aa;stroke-width:1.984px;stroke-linecap:round;stroke-linejoin:round;stroke-opacity:1" />
 <path d="m 261.673,303.342 1.523,-6.377 -6.200,-2.374" id="path9301" style="fill:none;stroke:#5555aa;stroke-width:1.984px;stroke-linecap:round;stroke-linejoin:round;stroke-opacity:1" />
 <path d="m 279.318,333.354 2.019,-15.413 -13.216,-3.897" id="path9303" style="fill:none;stroke:#5555aa;stroke-width:2.055px;stroke-linecap:round;stroke-linejoin:round;stroke-opacity:1" />
 <path d="m 276.165,327.755 0.921,-6.484 -5.917,-1.842" id="path9305" style="fill:none;stroke:#5555aa;stroke-width:2.055px;stroke-linecap:round;stroke-linejoin:round;stroke-opacity:1" />
 <path d="m 297.212,356.704 -0.744,-16.051 -13.677,-1.488" id="path9307" style="fill:none;stroke:#5555aa;stroke-width:2.055px;stroke-linecap:round;stroke-linejoin:round;stroke-opacity:1" />
 <path d="m 293.137,351.070 -0.248,-6.484 -6.129,-0.744" id="path9309" style="fill:none;stroke:#5555aa;stroke-width:2.055px;stroke-linecap:round;stroke-linejoin:round;stroke-opacity:1" />
 <path d="m 260.751,303.732 c 4.003,6.696 7.795,13.464 12.011,20.019 5.385,8.433 10.877,16.795 16.972,24.732 5.173,6.732 11.019,12.862 16.511,19.275" id="path9311" style="fill:none;stroke:#5555aa;stroke-width:1.984px;stroke-linecap:round;stroke-linejoin:round;stroke-opacity:1" />
 <path d="m 300.755,360.248 5.740,0.744" id="path9313" style="fill:none;stroke:#5555aa;stroke-width:1.984px;stroke-linecap:round;stroke-linejoin:round;stroke-opacity:1" />
 <path d="m 306.248,356.988 -5.492,-1.240 0.496,-14.492 4.996,1.240 z" id="path9315" style="fill:#5555aa;fill-rule:nonzero;stroke:#5555aa;stroke-width:1.984px;stroke-linecap:round;stroke-linejoin:round;stroke-opacity:1" />
 <path d="m 302.244,323.255 -0.992,13.003 4.996,1.240" id="path9317" style="fill:none;stroke:#5555aa;stroke-width:1.984px;stroke-linecap:round;stroke-linejoin:round;stroke-opacity:1" />
 <path d="m 259.688,207.814 -7.476,9.283 8.964,7.582" id="path9319" style="fill:none;stroke:#5555aa;stroke-width:1.984px;stroke-linecap:round;stroke-linejoin:round;stroke-opacity:1" />
 <path d="m 259.972,212.704 -2.728,3.649 3.259,2.763" id="path9321" style="fill:none;stroke:#5555aa;stroke-width:1.984px;stroke-linecap:round;stroke-linejoin:round;stroke-opacity:1" />
 <path d="m 261.992,232.440 -5.740,10.381 10.098,5.952" id="path9323" style="fill:none;stroke:#5555aa;stroke-width:1.984px;stroke-linecap:round;stroke-linejoin:round;stroke-opacity:1" />
 <path d="m 263.125,237.188 -2.055,4.039 3.685,2.161" id="path9325" style="fill:none;stroke:#5555aa;stroke-width:1.984px;stroke-linecap:round;stroke-linejoin:round;stroke-opacity:1" />
 <path d="m 268.511,256.783 -4.854,10.842 10.559,5.102" id="path9327" style="fill:none;stroke:#5555aa;stroke-width:1.984px;stroke-linecap:round;stroke-linejoin:round;stroke-opacity:1" />
 <path d="m 270.035,261.460 -1.700,4.181 3.862,1.842" id="path9329" style="fill:none;stroke:#5555aa;stroke-width:1.984px;stroke-linecap:round;stroke-linejoin:round;stroke-opacity:1" />
 <path d="m 276.696,281.232 -2.905,11.515 11.303,3.188" id="path9331" style="fill:none;stroke:#5555aa;stroke-width:1.984px;stroke-linecap:round;stroke-linejoin:round;stroke-opacity:1" />
 <path d="m 279,285.555 -0.956,4.429 4.145,1.133" id="path9333" style="fill:none;stroke:#5555aa;stroke-width:1.984px;stroke-linecap:round;stroke-linejoin:round;stroke-opacity:1" />
 <path d="m 288.673,304.263 -1.559,11.799 11.586,1.842" id="path9335" style="fill:none;stroke:#5555aa;stroke-width:1.984px;stroke-linecap:round;stroke-linejoin:round;stroke-opacity:1" />
 <path d="m 291.472,308.303 -0.425,4.5 4.216,0.673" id="path9337" style="fill:none;stroke:#5555aa;stroke-width:1.984px;stroke-linecap:round;stroke-linejoin:round;stroke-opacity:1" />
 <path d="m 280.984,198.496 c 3.188,8.751 5.811,17.716 9.531,26.255 2.338,5.385 4.606,10.913 7.972,15.732 2.232,3.188 5.350,5.669 8.007,8.503 l -0.248,-13.996 -4.5,0.992 2.515,-6.236 -5.775,-0.248 3.507,-4.251 -5.244,-0.496 3.259,-4.5 -5.775,-0.248 4.003,-4.996 -6.484,-0.496 3.755,-4.996 -5.775,-0.531 3.507,-4.748 -4.996,-0.744 3.259,-5.492 -7.015,-0.248 z" id="path9339" style="fill:#5555aa;fill-rule:nonzero;stroke:#5555aa;stroke-width:1.984px;stroke-linecap:round;stroke-linejoin:round;stroke-opacity:1" />
 <path d="m 292.003,164.232 c 2.338,-2.515 6.200,-3.153 9.496,-4.181 1.771,-0.531 3.649,-1.098 5.492,-0.992 2.090,0.106 4.287,0.531 6.023,1.736 0.921,0.673 1.913,1.629 1.984,2.763 0.070,0.850 -0.602,1.700 -1.240,2.232 -0.602,0.496 -1.488,0.566 -2.267,0.744 -1.240,0.354 -2.622,0.141 -3.755,0.744 -1.027,0.566 -1.984,1.452 -2.409,2.551 -0.531,1.240 -0.354,2.763 -0.106,4.110 0.283,1.523 1.098,3.118 1.771,4.287 l -0.248,14.279 c -2.834,0.318 -5.811,1.240 -8.751,0.992 -1.736,-0.141 -3.685,-0.354 -4.996,-1.488 -2.374,-2.125 -3.011,-5.669 -3.755,-8.751 -0.708,-3.188 -0.956,-6.555 -0.496,-9.744 0.460,-3.259 1.027,-6.874 3.259,-9.283 z" id="path9341" style="fill:#ffffff;fill-rule:nonzero;stroke:#5555aa;stroke-width:1.984px;stroke-linecap:round;stroke-linejoin:round;stroke-opacity:1" />
 <path d="m 260.751,207.496 c 4.5,-1.842 8.078,-3.366 12.011,-5.244 3.366,-1.629 6.696,-3.437 9.992,-5.244 3.118,-1.700 6.732,-3.578 9.248,-5.244" id="path9343" style="fill:#ffffff;fill-rule:nonzero;stroke:#5555aa;stroke-width:1.984px;stroke-linecap:round;stroke-linejoin:round;stroke-opacity:1" />
 <path d="m 262.240,149.244 c 5.421,2.586 10.913,5.066 16.263,7.759 4.287,2.161 8.503,4.5 12.755,6.732" id="path9345" style="fill:#ffffff;fill-rule:nonzero;stroke:#5555aa;stroke-width:1.984px;stroke-linecap:round;stroke-linejoin:round;stroke-opacity:1" />
 <path d="m 286.511,161.503 c 0,0 -2.303,7.228 -2.763,10.984 -0.460,3.826 -0.602,7.724 0,11.515 0.566,3.366 3.259,9.744 3.259,9.744 l -12.755,7.263 5.492,-9 -5.988,-6.023 6.484,-7.228 -5.988,-8.255 5.244,-4.251 -3.259,-9.992 z" id="path9347" style="fill:#ffffff;fill-rule:nonzero;stroke:#5555aa;stroke-width:1.984px;stroke-linecap:round;stroke-linejoin:round;stroke-opacity:1" />
 <path d="m 264.011,151.263 7.476,12.224 -6.484,6.271 6.236,8.503 -6.484,7.972 5.740,5.775 -6.980,13.5" id="path9349" style="fill:none;stroke:#5555aa;stroke-width:1.984px;stroke-linecap:round;stroke-linejoin:round;stroke-opacity:1" />
 <path d="m 262.488,157.748 2.515,4.003 -3.755,3.011" id="path9351" style="fill:none;stroke:#5555aa;stroke-width:1.984px;stroke-linecap:round;stroke-linejoin:round;stroke-opacity:1" />
 <path d="m 260.503,174.755 3.011,3.755 -3.259,4.251" id="path9353" style="fill:none;stroke:#5555aa;stroke-width:1.984px;stroke-linecap:round;stroke-linejoin:round;stroke-opacity:1" />
 <path d="m 259.759,189.248 3.224,4.5 -3.224,4.996" id="path9355" style="fill:none;stroke:#5555aa;stroke-width:1.984px;stroke-linecap:round;stroke-linejoin:round;stroke-opacity:1" />
 <path d="m 266.740,213.732 11.267,-5.492 c 0,0 3.401,11.444 5.492,17.007 1.771,4.748 3.472,9.602 5.988,13.996 2.940,5.066 10.523,13.996 10.523,13.996 l 0,52.263 c 0,0 -9.885,-15.696 -13.996,-23.988 -4.251,-8.574 -8.043,-17.433 -11.019,-26.503 -2.480,-7.582 -4.251,-15.413 -5.740,-23.279 -1.133,-5.917 -2.515,-18 -2.515,-18 z" id="path9357" style="fill:#ffff55;fill-rule:nonzero;stroke:#5555aa;stroke-width:1.984px;stroke-linecap:round;stroke-linejoin:round;stroke-opacity:1" />
 <path d="m 264.685,56.515 c 0,0 0.673,7.299 2.303,10.488 1.594,3.082 4.181,5.740 7.015,7.759 2.444,1.736 5.314,2.905 8.255,3.472 2.444,0.496 4.996,0.248 7.476,0 1.700,-0.141 4.996,-0.992 4.996,-0.992 0,0 -3.188,-1.027 -4.216,-2.232 -2.232,-2.551 -2.551,-6.271 -3.507,-9.496 -0.956,-3.224 -1.169,-6.625 -2.267,-9.779 -1.098,-3.188 -2.090,-6.625 -4.251,-9.248 -1.169,-1.417 -2.763,-2.551 -4.5,-3.224 -1.027,-0.425 -3.295,-0.531 -3.295,-0.531 z" id="path9359" style="fill:#ffff55;fill-rule:nonzero;stroke:#5555aa;stroke-width:1.984px;stroke-linecap:round;stroke-linejoin:round;stroke-opacity:1" />
 <path d="m 269.503,49.464 c 1.204,3.968 2.232,7.795 4.251,11.267 1.700,3.011 4.110,5.527 6.484,8.007 1.559,1.629 3.330,3.011 4.996,4.5" id="path9361" style="fill:none;stroke:#5555aa;stroke-width:1.984px;stroke-linecap:round;stroke-linejoin:round;stroke-opacity:1" />
 <path d="m 278.114,52.618 c -1.771,0.956 -5.704,0.106 -7.653,-0.283 -1.346,2.657 -2.444,4.712 -2.338,7.192" id="path9363" style="fill:none;stroke:#5555aa;stroke-width:1.984px;stroke-linecap:round;stroke-linejoin:round;stroke-opacity:1" />
 <path d="m 279.708,57.153 c -1.771,0.956 -5.102,0.673 -7.051,0.283 -1.346,2.657 -2.444,5.244 -2.338,7.724" id="path9365" style="fill:none;stroke:#5555aa;stroke-width:1.984px;stroke-linecap:round;stroke-linejoin:round;stroke-opacity:1" />
 <path d="m 281.976,63.318 c -1.807,0.956 -4.358,0.248 -6.307,-0.141 -1.346,2.657 -1.062,5.066 -0.956,7.547" id="path9367" style="fill:none;stroke:#5555aa;stroke-width:1.984px;stroke-linecap:round;stroke-linejoin:round;stroke-opacity:1" />
 <path d="m 284.562,67.818 c -1.771,0.992 -2.905,0.070 -4.854,-0.318 -1.346,2.657 -0.637,3.685 -0.531,6.165" id="path9369" style="fill:none;stroke:#5555aa;stroke-width:1.984px;stroke-linecap:round;stroke-linejoin:round;stroke-opacity:1" />
 <path d="m 270,48.366 c 1.771,0.283 3.543,0.425 5.314,-0.354" id="path9371" style="fill:none;stroke:#5555aa;stroke-width:1.984px;stroke-linecap:round;stroke-linejoin:round;stroke-opacity:1" />
 <path d="m 149.917,141.590 c -0.850,0.318 -1.948,0.885 -2.055,1.807 -0.106,0.885 0.885,1.665 1.629,2.161 0.425,0.283 1.027,0.248 1.523,0.425 0.531,0.177 1.240,0.248 1.594,0.744 0.354,0.496 0.106,1.240 0.248,1.842 0.425,1.488 0.602,3.259 1.736,4.287 0.992,0.956 2.515,1.133 3.862,1.275 1.169,0.106 2.338,-0.283 3.472,-0.425 0.921,-0.106 1.807,-0.389 2.728,-0.318 0.460,0.070 0.956,0.106 1.311,0.389 0.318,0.283 0.425,0.744 0.496,1.133 0.212,0.850 0.070,1.736 0.106,2.622 0.035,1.133 -0.177,2.303 0.106,3.366 0.354,1.275 0.885,2.657 1.913,3.472 1.098,0.885 2.622,1.098 4.003,1.169 1.169,0.035 2.303,-0.425 3.472,-0.637 0.885,-0.177 1.736,-0.531 2.657,-0.496 0.389,0 0.850,0 1.133,0.283 0.177,0.141 0.177,0.460 0.212,0.673 0.070,0.744 -0.141,1.452 -0.212,2.196 -0.070,0.992 -0.425,2.019 -0.248,3.011 0.177,1.204 0.531,2.551 1.381,3.437 0.956,0.956 2.444,1.381 3.791,1.629 1.169,0.177 2.374,-0.248 3.543,-0.283 1.452,0 3.224,-0.744 4.358,0.177 0.885,0.708 0.566,2.161 0.779,3.259 0.212,1.027 0.106,2.090 0.496,3.011 0.496,1.133 1.133,2.338 2.161,2.976 0.850,0.531 1.984,0.602 2.976,0.531 0.744,-0.035 1.452,-0.460 2.196,-0.673 0.602,-0.177 1.275,-0.779 1.877,-0.531 0.177,0.070 0.212,0.318 0.248,0.496 0.283,0.602 0.389,1.240 0.602,1.877 0.283,0.779 0.389,1.736 0.956,2.374 0.779,0.921 1.877,1.807 3.082,1.807 1.169,-0.035 2.267,-0.921 3.011,-1.807 0.531,-0.673 0.566,-1.594 0.814,-2.374 0.212,-0.602 0.318,-1.204 0.531,-1.807 0.070,-0.106 0.070,-0.283 0.177,-0.318 0.141,-0.106 0.354,-0.035 0.531,0 0.602,0.141 1.133,0.496 1.700,0.708 0.814,0.283 1.559,0.779 2.409,0.850 1.133,0.070 2.409,0.035 3.295,-0.637 1.027,-0.744 1.523,-2.125 1.807,-3.366 0.248,-1.027 -0.070,-2.055 -0.106,-3.118 -0.035,-0.708 -0.212,-1.452 -0.106,-2.196 0.035,-0.177 0,-0.389 0.141,-0.496 0.283,-0.248 0.744,-0.141 1.098,-0.141 0.814,0.035 1.594,0.283 2.374,0.496 1.063,0.354 2.019,1.204 3.118,1.275 0.956,0.035 2.338,0 2.763,-0.850 0.460,-0.850 -0.283,-2.019 -0.921,-2.728 -0.956,-0.956 -2.480,-1.098 -3.755,-1.488 -1.098,-0.318 -2.196,-0.708 -3.330,-0.708 -1.240,0.035 -2.622,0.106 -3.614,0.850 -1.027,0.779 -1.559,2.125 -1.842,3.366 -0.248,0.992 0.070,2.055 0.070,3.082 0.035,0.779 0.637,1.807 0.070,2.338 -0.460,0.425 -1.240,-0.035 -1.842,-0.177 -0.814,-0.212 -1.523,-0.779 -2.338,-0.921 -1.062,-0.141 -2.232,-0.248 -3.224,0.212 -0.956,0.496 -1.594,1.488 -2.161,2.409 -0.389,0.673 -0.035,2.161 -0.814,2.161 -0.814,0 -0.425,-1.594 -0.814,-2.303 -0.566,-0.956 -1.169,-2.055 -2.196,-2.444 -1.559,-0.637 -3.366,0.425 -5.066,0.389 -0.637,0 -1.452,0.248 -1.948,-0.177 -0.566,-0.531 -0.212,-1.523 -0.425,-2.267 -0.602,-2.090 -0.602,-4.712 -2.303,-6.059 -1.948,-1.559 -4.889,-0.956 -7.370,-1.027 -0.921,0 -1.807,0.354 -2.692,0.248 -0.460,-0.070 -0.992,-0.141 -1.275,-0.496 -0.177,-0.177 -0.212,-0.460 -0.248,-0.744 -0.070,-0.744 0.177,-1.488 0.248,-2.232 0.070,-1.027 0.389,-2.055 0.248,-3.047 -0.212,-1.204 -0.602,-2.551 -1.559,-3.401 -1.027,-0.921 -2.551,-1.204 -3.933,-1.311 -1.169,-0.070 -2.338,0.425 -3.472,0.637 -0.921,0.141 -1.807,0.496 -2.728,0.496 -0.425,0 -0.921,0 -1.240,-0.248 -0.318,-0.248 -0.425,-0.708 -0.531,-1.098 -0.177,-0.850 -0.035,-1.700 -0.070,-2.551 -0.035,-1.133 0.141,-2.303 -0.141,-3.401 -0.318,-1.275 -0.814,-2.657 -1.842,-3.507 -1.027,-0.885 -2.480,-1.169 -3.826,-1.311 -1.169,-0.141 -2.338,0.212 -3.507,0.354 -0.921,0.106 -1.842,0.389 -2.763,0.354 -0.460,-0.035 -1.062,0 -1.346,-0.354 -0.354,-0.354 -0.141,-0.992 -0.248,-1.452 -0.318,-1.452 -0.354,-3.118 -1.311,-4.287 -0.779,-0.992 -2.161,-1.417 -3.330,-1.877 -0.637,-0.248 -1.275,-0.354 -1.948,-0.496 -0.106,-0.035 -0.248,-0.070 -0.354,-0.070 l 0,0 z" id="path9373" style="fill:#ffff55;fill-rule:nonzero;stroke:none" />
 <path d="m 150.023,153.141 c -0.814,0.035 -1.594,0.602 -1.877,1.381 -0.248,0.779 0.035,1.736 0.708,2.232 L 207,202.641 c 0.673,0.496 1.665,0.531 2.374,0.035 l 22.748,-15.944 c 0.921,-0.602 1.204,-1.948 0.566,-2.834 -0.602,-0.885 -1.984,-1.098 -2.834,-0.460 l -21.578,15.129 -56.976,-44.964 c -0.354,-0.283 -0.814,-0.460 -1.275,-0.460 z" id="path9375" style="fill:#ffff55;fill-rule:nonzero;stroke:none" />
 <path d="m 207.070,213.732 0,63.885 9.744,-6.803 0.318,-63.318 z" id="path9377" style="fill:#000000;fill-rule:nonzero;stroke:none" />
 <path d="m 148.5,167.881 21.011,16.866 0.283,54.425 L 148.5,224.681 Z" id="path9379" style="fill:#ff5555;fill-rule:nonzero;stroke:none" />
 <path d="m 169.795,183.826 0.602,56.232" id="path9381" style="fill:none;stroke:#000000;stroke-width:1.984px;stroke-linecap:round;stroke-linejoin:round;stroke-opacity:1" />
 <path d="m 175.712,188.043 0.283,57.330" id="path9383" style="fill:none;stroke:#000000;stroke-width:1.984px;stroke-linecap:round;stroke-linejoin:round;stroke-opacity:1" />
 <path d="m 202.641,210.755 0.283,68.350" id="path9385" style="fill:none;stroke:#000000;stroke-width:1.984px;stroke-linecap:round;stroke-linejoin:round;stroke-opacity:1" />
 <path d="m 240.484,255.437 -36.389,24.236" id="path9387" style="fill:none;stroke:#5555aa;stroke-width:1.984px;stroke-linecap:round;stroke-linejoin:round;stroke-opacity:1" />
 <path d="m 202.606,269.751 -26.326,-26.858 26.503,-25.653 -26.787,-27.496" id="path9389" style="fill:none;stroke:#000000;stroke-width:1.984px;stroke-linecap:round;stroke-linejoin:round;stroke-opacity:1" />
 <path d="m 191.870,201.188 -16.051,16.405 26.787,27.921 -15.165,14.173" id="path9391" style="fill:none;stroke:#000000;stroke-width:1.984px;stroke-linecap:round;stroke-linejoin:round;stroke-opacity:1" />
 <path d="m 189.035,211.429 -4.925,5.279 4.925,5.811 5.102,-5.279 z" id="path9393" style="fill:none;stroke:#000000;stroke-width:1.984px;stroke-linecap:round;stroke-linejoin:round;stroke-opacity:1" />
 <path d="m 188.893,239.102 -4.287,4.712 4.854,4.925 4.322,-4.606 z" id="path9395" style="fill:none;stroke:#000000;stroke-width:1.984px;stroke-linecap:round;stroke-linejoin:round;stroke-opacity:1" />
 <path d="m 176.881,197.681 4.889,5.350 -5.137,5.421 z" id="path9397" style="fill:#000000;fill-rule:nonzero;stroke:#000000;stroke-width:1.984px;stroke-linecap:round;stroke-linejoin:round;stroke-opacity:1" />
 <path d="m 202.074,225.708 -5.244,5.456 5.314,5.173 z" id="path9399" style="fill:#000000;fill-rule:nonzero;stroke:#000000;stroke-width:1.984px;stroke-linecap:round;stroke-linejoin:round;stroke-opacity:1" />
 <path d="m 176.598,225.673 4.818,5.244 -4.925,4.535 z" id="path9401" style="fill:#000000;fill-rule:nonzero;stroke:#000000;stroke-width:1.984px;stroke-linecap:round;stroke-linejoin:round;stroke-opacity:1" />
 <path d="m 202.216,253.204 -4.606,4.748 4.854,4.748 z" id="path9403" style="fill:#000000;fill-rule:nonzero;stroke:#000000;stroke-width:1.984px;stroke-linecap:round;stroke-linejoin:round;stroke-opacity:1" />
 <path d="m 132.944,129.507 c -7.086,3.543 -14.173,7.051 -21.224,10.629 -5.066,2.551 -10.204,5.031 -15.200,7.759 -7.192,3.933 -14.350,7.937 -21.224,12.401 -6.448,4.181 -12.472,8.929 -18.744,13.429 4.145,5.527 8.185,11.125 12.401,16.618 3.578,4.641 7.476,9.070 10.948,13.783 3.224,4.358 6.129,8.964 9.177,13.429 2.480,-0.708 4.889,-1.736 7.440,-2.125 4.996,-0.744 10.133,-0.673 15.200,-0.354 4.039,0.248 8.043,0.992 12.011,1.771 4.287,0.850 8.610,1.736 12.755,3.188 4.251,1.488 8.397,3.472 12.366,5.669 4.535,2.480 8.858,5.421 13.074,8.468 4.535,3.295 9.106,6.625 13.074,10.594 3.862,3.862 6.944,8.433 10.275,12.755 3.614,4.748 6.838,9.814 10.594,14.492 2.551,3.188 5.173,6.342 8.114,9.177 4.074,3.897 8.326,7.618 13.110,10.594 4.393,2.799 9.248,4.889 14.137,6.732 4.677,1.807 9.496,3.543 14.492,4.251 4.889,0.708 9.885,0 14.846,0 -2.728,-5.562 -5.633,-10.984 -8.149,-16.618 -3.118,-7.086 -6.059,-14.244 -8.468,-21.578 -2.267,-6.838 -4.181,-13.818 -5.669,-20.870 -1.488,-7.228 -2.409,-14.562 -3.188,-21.897 -0.566,-5.527 -0.885,-11.090 -1.063,-16.618 -0.177,-6.129 -0.035,-12.259 0,-18.389 0.070,-5.775 0.141,-11.551 0.354,-17.326 0.248,-6.023 0.708,-12.011 1.063,-18.035" id="path9405" style="fill:none;stroke:#5555aa;stroke-width:1.984px;stroke-linecap:round;stroke-linejoin:round;stroke-opacity:1" />
 <path d="m 187.937,269.468 c -0.673,0.070 -1.417,0.673 -2.834,1.700 l -3.118,2.196 -3.082,2.232 c -3.862,2.303 -2.799,2.586 -0.177,5.740 l 2.940,3.543 2.905,3.507 c 2.692,3.614 2.551,3.862 5.704,0.956 l 2.834,-2.586 2.834,-2.586 c 3.330,-2.586 2.657,-2.763 0.141,-5.775 l -2.622,-3.153 -2.657,-3.153 c -1.381,-1.913 -2.019,-2.692 -2.870,-2.622 z m -0.531,5.527 c 0.673,0 1.452,0.248 1.948,0.744 0.318,0.354 0.425,0.885 0.425,1.346 0,0.212 -0.283,0.496 -0.106,0.673 0.141,0.141 0.389,-0.177 0.602,-0.177 0.496,0.035 1.027,0.141 1.381,0.496 0.496,0.460 0.744,1.240 0.744,1.913 0,0.708 -0.248,1.452 -0.744,1.948 -0.354,0.318 -0.885,0.389 -1.381,0.425 -0.212,0.035 -0.460,-0.283 -0.602,-0.106 -0.177,0.141 0.106,0.389 0.106,0.602 0,0.496 -0.106,1.027 -0.425,1.381 -0.496,0.496 -1.275,0.744 -1.948,0.744 -0.673,0 -1.452,-0.248 -1.948,-0.744 -0.318,-0.354 -0.425,-0.885 -0.460,-1.381 0,-0.212 0.318,-0.460 0.177,-0.602 -0.177,-0.177 -0.460,0.141 -0.673,0.106 -0.496,-0.035 -0.992,-0.106 -1.346,-0.425 -0.496,-0.496 -0.744,-1.240 -0.744,-1.948 0,-0.673 0.248,-1.452 0.744,-1.913 0.354,-0.354 0.850,-0.460 1.346,-0.496 0.212,0 0.496,0.318 0.673,0.177 0.141,-0.177 -0.177,-0.460 -0.177,-0.673 0.035,-0.460 0.141,-0.992 0.460,-1.346 0.496,-0.496 1.275,-0.744 1.948,-0.744 z" id="path9795" style="fill:#000000;fill-rule:nonzero;stroke:none" />
 <path d="m 201.437,285.236 c -0.637,0.141 -1.311,0.885 -2.515,2.125 l -2.692,2.692 -2.657,2.692 c -3.472,2.940 -2.338,3.047 0.744,5.704 l 3.507,3.011 3.437,2.976 c 3.259,3.118 3.153,3.401 5.811,0 l 2.338,-3.047 2.374,-2.976 c 2.870,-3.118 2.196,-3.188 -0.814,-5.740 l -3.118,-2.692 -3.118,-2.657 c -1.700,-1.665 -2.480,-2.338 -3.295,-2.090 z m 0.389,5.527 c 0.708,-0.106 1.488,0 2.055,0.425 0.389,0.283 0.566,0.779 0.637,1.240 0.070,0.212 -0.177,0.531 0,0.673 0.177,0.141 0.354,-0.248 0.602,-0.248 0.460,-0.070 1.027,-0.035 1.417,0.212 0.566,0.389 0.956,1.098 1.062,1.807 0.106,0.673 0,1.452 -0.425,2.019 -0.283,0.389 -0.814,0.566 -1.275,0.673 -0.212,0.035 -0.496,-0.212 -0.637,-0.035 -0.106,0.177 0.212,0.389 0.248,0.602 0.035,0.460 0.035,1.027 -0.212,1.417 -0.389,0.566 -1.098,0.956 -1.807,1.062 -0.673,0.106 -1.452,0 -2.019,-0.425 -0.389,-0.283 -0.602,-0.779 -0.708,-1.275 -0.035,-0.212 0.248,-0.496 0.070,-0.637 -0.177,-0.141 -0.389,0.212 -0.637,0.248 -0.460,0.035 -0.992,0.070 -1.381,-0.212 -0.566,-0.389 -0.956,-1.098 -1.062,-1.771 -0.106,-0.708 0,-1.488 0.425,-2.055 0.283,-0.389 0.779,-0.566 1.240,-0.673 0.212,-0.070 0.531,0.212 0.673,0.035 0.106,-0.177 -0.248,-0.389 -0.283,-0.602 -0.035,-0.496 -0.035,-1.027 0.248,-1.417 0.389,-0.566 1.098,-0.956 1.771,-1.062 z" id="path9797" style="fill:#000000;fill-rule:nonzero;stroke:none" />
 <path d="m 217.311,297.566 c -0.566,0.354 -0.956,1.275 -1.736,2.834 l -1.700,3.401 -1.665,3.401 c -2.374,3.862 -1.240,3.614 2.515,5.173 l 4.251,1.736 4.216,1.736 c 4.074,1.913 4.074,2.232 5.492,-1.842 l 1.275,-3.614 1.311,-3.578 c 1.736,-3.897 1.063,-3.720 -2.586,-5.208 l -3.791,-1.523 -3.826,-1.559 c -2.125,-1.027 -3.047,-1.452 -3.755,-0.956 z m 2.125,5.137 c 0.602,-0.318 1.381,-0.460 2.055,-0.248 0.460,0.141 0.779,0.566 1.027,0.956 0.106,0.212 -0.035,0.566 0.177,0.637 0.212,0.106 0.283,-0.318 0.496,-0.425 0.425,-0.177 0.956,-0.354 1.417,-0.212 0.673,0.177 1.240,0.744 1.559,1.346 0.354,0.602 0.460,1.417 0.248,2.055 -0.141,0.460 -0.566,0.779 -0.992,1.027 -0.177,0.141 -0.566,-0.035 -0.602,0.212 -0.070,0.212 0.283,0.283 0.389,0.460 0.212,0.460 0.389,0.956 0.248,1.452 -0.177,0.637 -0.744,1.240 -1.346,1.559 -0.602,0.318 -1.417,0.460 -2.055,0.248 -0.460,-0.141 -0.814,-0.566 -1.063,-0.992 -0.106,-0.177 0.035,-0.566 -0.141,-0.637 -0.212,-0.070 -0.318,0.318 -0.531,0.425 -0.425,0.212 -0.921,0.389 -1.381,0.248 -0.673,-0.177 -1.275,-0.744 -1.594,-1.346 -0.318,-0.637 -0.460,-1.417 -0.248,-2.090 0.141,-0.460 0.566,-0.779 0.992,-1.027 0.177,-0.106 0.566,0.035 0.637,-0.177 0.070,-0.212 -0.354,-0.318 -0.460,-0.496 -0.212,-0.425 -0.318,-0.956 -0.212,-1.417 0.212,-0.673 0.744,-1.240 1.381,-1.559 z" id="path9799" style="fill:#000000;fill-rule:nonzero;stroke:none" />
 <path d="m 236.019,305.397 c -0.425,0.531 -0.566,1.523 -0.814,3.224 l -0.637,3.755 -0.602,3.755 c -1.133,4.358 -0.141,3.791 3.933,4.181 l 4.570,0.425 4.570,0.425 c 4.429,0.637 4.5,0.921 4.677,-3.366 l 0.177,-3.826 0.177,-3.826 c 0.531,-4.216 -0.070,-3.826 -3.968,-4.181 l -4.110,-0.389 -4.110,-0.354 c -2.338,-0.354 -3.330,-0.460 -3.862,0.177 z m 3.507,4.287 c 0.496,-0.460 1.240,-0.850 1.913,-0.814 0.496,0 0.921,0.283 1.275,0.637 0.141,0.141 0.141,0.531 0.354,0.531 0.248,0 0.177,-0.389 0.354,-0.531 0.354,-0.318 0.814,-0.637 1.275,-0.637 0.708,-0.035 1.417,0.318 1.913,0.814 0.496,0.496 0.850,1.204 0.850,1.913 0,0.460 -0.354,0.921 -0.673,1.275 -0.141,0.177 -0.531,0.141 -0.531,0.354 0,0.212 0.389,0.177 0.531,0.354 0.318,0.354 0.673,0.814 0.673,1.275 0,0.708 -0.354,1.417 -0.850,1.913 -0.496,0.496 -1.204,0.850 -1.877,0.850 -0.496,-0.035 -0.956,-0.318 -1.311,-0.673 -0.177,-0.141 -0.106,-0.531 -0.354,-0.531 -0.212,0 -0.177,0.389 -0.354,0.531 -0.354,0.318 -0.779,0.637 -1.275,0.673 -0.673,0 -1.417,-0.354 -1.877,-0.850 -0.496,-0.496 -0.850,-1.204 -0.850,-1.913 0,-0.460 0.283,-0.921 0.602,-1.275 0.177,-0.177 0.602,-0.106 0.566,-0.354 0,-0.212 -0.425,-0.177 -0.566,-0.354 -0.318,-0.354 -0.602,-0.779 -0.602,-1.275 -0.035,-0.673 0.354,-1.417 0.814,-1.913 z" id="path9801" style="fill:#000000;fill-rule:nonzero;stroke:none" />
 <path d="m 173.692,272.692 c 0.637,-0.070 1.417,-0.673 2.834,-1.665 l 3.082,-2.232 3.118,-2.196 c 3.862,-2.303 2.763,-2.622 0.177,-5.775 l -2.940,-3.507 -2.905,-3.543 c -2.692,-3.578 -2.551,-3.862 -5.704,-0.956 l -2.834,2.622 -2.834,2.551 c -3.366,2.586 -2.692,2.763 -0.141,5.775 l 2.622,3.153 2.657,3.153 c 1.381,1.913 2.019,2.728 2.870,2.622 z m 0.531,-5.527 c -0.708,0 -1.452,-0.248 -1.948,-0.744 -0.318,-0.354 -0.425,-0.850 -0.425,-1.346 -0.035,-0.212 0.248,-0.496 0.106,-0.637 -0.141,-0.177 -0.389,0.177 -0.602,0.141 -0.496,-0.035 -1.027,-0.141 -1.381,-0.460 -0.496,-0.496 -0.744,-1.240 -0.744,-1.948 0,-0.673 0.248,-1.452 0.744,-1.948 0.354,-0.318 0.885,-0.389 1.381,-0.425 0.212,0 0.460,0.283 0.602,0.141 0.141,-0.177 -0.141,-0.425 -0.106,-0.637 0,-0.496 0.106,-1.027 0.425,-1.381 0.496,-0.496 1.240,-0.744 1.948,-0.744 0.673,0 1.452,0.248 1.913,0.744 0.354,0.354 0.460,0.885 0.496,1.381 0,0.212 -0.318,0.460 -0.177,0.637 0.177,0.141 0.425,-0.141 0.673,-0.141 0.460,0.035 0.992,0.106 1.346,0.425 0.496,0.496 0.744,1.275 0.744,1.948 0,0.708 -0.248,1.452 -0.744,1.948 -0.354,0.318 -0.885,0.425 -1.346,0.460 -0.248,0.035 -0.496,-0.318 -0.673,-0.141 -0.141,0.141 0.177,0.425 0.177,0.637 -0.035,0.496 -0.141,0.992 -0.496,1.346 -0.460,0.496 -1.240,0.744 -1.913,0.744 z" id="path9803" style="fill:#000000;fill-rule:nonzero;stroke:none" />
 <path d="m 160.476,256.641 c 0.637,-0.177 1.311,-0.921 2.551,-2.125 l 2.657,-2.728 2.692,-2.692 c 3.437,-2.905 2.303,-3.011 -0.779,-5.704 l -3.472,-2.976 -3.472,-3.011 c -3.224,-3.082 -3.118,-3.366 -5.775,0.035 l -2.338,3.011 -2.374,3.011 c -2.870,3.118 -2.196,3.153 0.779,5.704 l 3.118,2.692 3.153,2.657 c 1.700,1.665 2.444,2.338 3.259,2.125 z m -0.389,-5.527 c -0.673,0.106 -1.488,-0.035 -2.019,-0.425 -0.389,-0.283 -0.566,-0.779 -0.673,-1.275 -0.035,-0.212 0.212,-0.531 0.035,-0.637 -0.177,-0.141 -0.389,0.212 -0.602,0.248 -0.460,0.035 -1.027,0.035 -1.417,-0.248 -0.566,-0.389 -0.956,-1.098 -1.062,-1.771 -0.141,-0.673 0,-1.488 0.389,-2.055 0.283,-0.389 0.814,-0.531 1.311,-0.637 0.212,-0.070 0.496,0.212 0.637,0 0.106,-0.177 -0.212,-0.354 -0.248,-0.566 -0.070,-0.496 -0.070,-1.062 0.212,-1.452 0.389,-0.566 1.098,-0.956 1.771,-1.062 0.673,-0.106 1.488,0 2.055,0.425 0.389,0.283 0.566,0.814 0.673,1.275 0.035,0.212 -0.212,0.496 -0.035,0.637 0.177,0.141 0.389,-0.212 0.602,-0.212 0.496,-0.070 1.027,-0.070 1.417,0.177 0.566,0.389 0.956,1.133 1.062,1.807 0.106,0.673 0,1.488 -0.425,2.019 -0.283,0.389 -0.779,0.602 -1.240,0.708 -0.212,0.035 -0.566,-0.248 -0.673,-0.070 -0.106,0.212 0.248,0.425 0.248,0.637 0.070,0.460 0.035,0.992 -0.212,1.417 -0.389,0.566 -1.133,0.921 -1.807,1.062 z" id="path9805" style="fill:#000000;fill-rule:nonzero;stroke:none" />
 <path d="m 143.362,243.035 c 0.566,-0.389 0.956,-1.275 1.736,-2.834 l 1.700,-3.401 1.665,-3.437 c 2.338,-3.826 1.240,-3.578 -2.515,-5.137 l -4.251,-1.736 -4.251,-1.771 c -4.039,-1.913 -4.039,-2.196 -5.456,1.877 l -1.275,3.614 -1.311,3.578 c -1.736,3.862 -1.062,3.685 2.586,5.173 l 3.791,1.559 3.826,1.523 c 2.125,1.062 3.047,1.452 3.755,0.992 z m -2.125,-5.137 c -0.602,0.318 -1.381,0.460 -2.055,0.248 -0.460,-0.141 -0.779,-0.566 -1.027,-0.992 -0.106,-0.177 0.035,-0.566 -0.177,-0.637 -0.212,-0.070 -0.283,0.354 -0.496,0.425 -0.425,0.212 -0.956,0.389 -1.417,0.248 -0.673,-0.177 -1.240,-0.744 -1.594,-1.346 -0.318,-0.637 -0.460,-1.417 -0.248,-2.090 0.177,-0.460 0.602,-0.779 1.027,-1.027 0.177,-0.106 0.531,0.035 0.602,-0.177 0.070,-0.212 -0.318,-0.283 -0.389,-0.496 -0.212,-0.425 -0.389,-0.956 -0.283,-1.417 0.212,-0.673 0.779,-1.240 1.381,-1.559 0.602,-0.318 1.381,-0.460 2.055,-0.248 0.460,0.141 0.814,0.566 1.063,0.992 0.106,0.177 -0.070,0.531 0.141,0.602 0.212,0.070 0.318,-0.318 0.531,-0.389 0.425,-0.212 0.921,-0.389 1.381,-0.248 0.673,0.177 1.240,0.744 1.594,1.346 0.318,0.602 0.460,1.417 0.248,2.055 -0.177,0.460 -0.566,0.814 -0.992,1.062 -0.177,0.106 -0.566,-0.070 -0.637,0.177 -0.070,0.177 0.354,0.283 0.425,0.496 0.212,0.425 0.354,0.921 0.248,1.417 -0.212,0.637 -0.779,1.240 -1.381,1.559 z" id="path9807" style="fill:#000000;fill-rule:nonzero;stroke:none" />
 <path d="m 124.688,235.062 c 0.425,-0.496 0.531,-1.488 0.814,-3.188 l 0.602,-3.755 0.602,-3.755 c 1.133,-4.393 0.141,-3.826 -3.933,-4.216 l -4.570,-0.425 -4.535,-0.425 c -4.429,-0.637 -4.535,-0.921 -4.712,3.401 l -0.141,3.826 -0.212,3.791 c -0.531,4.216 0.070,3.862 4.003,4.216 l 4.074,0.354 4.110,0.354 c 2.338,0.389 3.366,0.496 3.897,-0.177 z m -3.543,-4.287 c -0.496,0.496 -1.204,0.850 -1.913,0.850 -0.460,0 -0.885,-0.318 -1.240,-0.637 -0.177,-0.141 -0.177,-0.566 -0.389,-0.566 -0.212,0 -0.141,0.425 -0.318,0.566 -0.354,0.318 -0.814,0.637 -1.311,0.637 -0.673,0 -1.417,-0.354 -1.913,-0.850 -0.460,-0.460 -0.850,-1.204 -0.814,-1.877 0,-0.496 0.318,-0.921 0.637,-1.275 0.141,-0.177 0.531,-0.141 0.531,-0.354 0,-0.248 -0.389,-0.212 -0.531,-0.354 -0.318,-0.354 -0.637,-0.814 -0.673,-1.311 0,-0.673 0.354,-1.381 0.850,-1.877 0.496,-0.496 1.204,-0.850 1.913,-0.850 0.460,0 0.956,0.318 1.311,0.637 0.141,0.141 0.106,0.566 0.318,0.566 0.212,0 0.212,-0.425 0.389,-0.566 0.354,-0.318 0.744,-0.637 1.240,-0.637 0.708,0 1.417,0.354 1.913,0.850 0.460,0.460 0.850,1.204 0.814,1.877 0,0.496 -0.283,0.921 -0.602,1.275 -0.141,0.177 -0.566,0.141 -0.566,0.354 0,0.248 0.425,0.212 0.566,0.354 0.318,0.354 0.602,0.814 0.637,1.311 0,0.673 -0.354,1.381 -0.850,1.877 z" id="path9809" style="fill:#000000;fill-rule:nonzero;stroke:none" />
 <path d="m 261.283,306.141 -1.559,0.318 c -2.125,0.248 -3.011,0.425 -3.330,1.204 -0.212,0.602 -0.106,1.523 0.070,3.259 l 0.354,3.791 0.354,3.826 c 0.070,4.5 0.779,3.720 4.393,3.047 l 4.003,-0.779 3.897,-0.708 -1.913,-3.295 c -0.248,0.177 -0.531,0.318 -0.779,0.389 -0.425,0.106 -0.885,-0.070 -1.275,-0.283 -0.177,-0.106 -0.212,-0.496 -0.389,-0.425 -0.212,0.035 -0.106,0.425 -0.212,0.637 -0.248,0.389 -0.531,0.779 -0.956,0.885 -0.566,0.212 -1.275,0.070 -1.807,-0.283 -0.531,-0.354 -1.027,-0.992 -1.169,-1.665 -0.106,-0.460 0.035,-0.956 0.212,-1.381 0.070,-0.177 0.496,-0.248 0.425,-0.460 -0.070,-0.212 -0.425,-0.106 -0.602,-0.212 -0.354,-0.248 -0.708,-0.637 -0.814,-1.098 -0.177,-0.673 -0.035,-1.452 0.283,-2.055 0.318,-0.566 0.850,-1.133 1.417,-1.275 0.425,-0.141 0.885,0.070 1.240,0.283 0.177,0.106 0.248,0.496 0.460,0.460 0.035,-0.035 0.070,-0.070 0.106,-0.106 l -2.409,-4.074 z" id="path9811" style="fill:#000000;fill-rule:nonzero;stroke:none" />
 <path d="m 99.354,234.354 1.559,-0.318 c 2.125,-0.248 3.011,-0.425 3.330,-1.204 0.248,-0.602 0.106,-1.559 -0.035,-3.259 l -0.389,-3.826 -0.354,-3.791 c -0.035,-4.5 -0.779,-3.720 -4.358,-3.047 l -4.039,0.779 -3.897,0.708 1.948,3.295 c 0.212,-0.177 0.496,-0.318 0.744,-0.389 0.425,-0.106 0.885,0.070 1.275,0.283 0.177,0.106 0.212,0.460 0.425,0.425 0.177,-0.035 0.070,-0.425 0.177,-0.637 0.248,-0.389 0.531,-0.779 0.956,-0.921 0.566,-0.177 1.275,-0.035 1.807,0.318 0.531,0.354 1.027,0.992 1.204,1.629 0.106,0.496 -0.035,0.956 -0.248,1.417 -0.070,0.177 -0.496,0.248 -0.425,0.460 0.070,0.212 0.425,0.106 0.602,0.212 0.354,0.248 0.708,0.637 0.814,1.098 0.177,0.637 0.035,1.452 -0.283,2.019 -0.283,0.602 -0.814,1.169 -1.417,1.311 -0.425,0.106 -0.850,-0.070 -1.240,-0.283 -0.177,-0.106 -0.248,-0.496 -0.460,-0.460 -0.035,0 -0.070,0.070 -0.106,0.106 l 2.409,4.074 z" id="path9813" style="fill:#000000;fill-rule:nonzero;stroke:none" />
 </g>
 <use height="100%" width="100%" transform="matrix(-1,0,0,-1,360,540)" id="use4769" xlink:href="#jack" y="0" x="0" /> </g>


<g transform="translate(26,-21)"><use transform="matrix(2.1,0,0,2.1,-16.13,-55.46)" xlink:href="#fig"/></g>
<g transform="translate(112,163)"><use transform="matrix(2.1,0,0,-2.1,-16.13,156.25)" xlink:href="#fig"/></g>

</svg>
