<?xml version="1.0" encoding="UTF-8" standalone="no"?>
<svg xmlns:svg="http://www.w3.org/2000/svg" xmlns="http://www.w3.org/2000/svg" xmlns:xlink="http://www.w3.org/1999/xlink" version="1.0" width="100%" height="100%" viewBox="0 0 167 242" id="svg2" xml:space="preserve">

<rect x="0.5" y="0.5" width="166" height="241" rx="6" style="fill:#ffffff;stroke:#000000;stroke-width:1;" id="card"/>

<g id="upleft">
<path style="fill:#e61408;stroke:none" d="m 14.551,42.191 c -0.015,0.468 -0.291,2.218 -3.307,5.114 -2.906,2.786 -4.260,3.120 -4.666,3.151 0.406,0.031 1.760,0.364 4.666,3.151 3.015,2.896 3.291,4.646 3.307,5.109 0.010,-0.463 0.291,-2.213 3.307,-5.109 2.901,-2.786 4.260,-3.120 4.666,-3.151 -0.406,-0.031 -1.765,-0.364 -4.666,-3.151 -3.015,-2.896 -3.297,-4.646 -3.307,-5.114 z" id="fig"/>
<path style="fill:none;stroke:#e61408;stroke-width:1.5px;" d="m 14.407,7.178 a 1.390,1.864 0 0 0 -1.390,1.864 1.390,1.864 0 0 0 0.940,1.762 l -1.175,7.619 -2.014,-7.063 A 1.390,1.864 0 0 0 11.500,9.720 1.390,1.864 0 0 0 10.109,7.856 1.390,1.864 0 0 0 8.718,9.720 1.390,1.864 0 0 0 9.873,11.555 L 9.756,18.911 6.964,13.172 A 1.390,1.864 0 0 0 7.454,11.754 1.390,1.864 0 0 0 6.064,9.890 1.390,1.864 0 0 0 4.673,11.754 1.390,1.864 0 0 0 6.057,13.619 l 1.147,7.695 c 0.015,0.766 0.283,1.290 0.551,1.648 0.275,0.368 0.531,0.636 0.750,1.223 a 0.379,0.508 0 0 0 0.023,0.054 c 0.131,0.265 0.230,0.444 0.286,0.558 0.055,0.114 0.060,0.139 0.065,0.176 0.008,0.069 -0.034,0.432 -0.147,1.193 -0.613,0.731 -0.746,1.571 -0.754,1.736 -0.143,0.252 -0.283,0.509 -0.299,0.777 -0.020,0.349 0.077,0.654 0.192,0.870 0.229,0.430 0.549,0.625 0.549,0.625 a 0.379,0.508 0 0 0 0.045,0.025 0.379,0.508 0 0 0 0.025,0.010 c 3.830,1.778 7.994,1.778 11.824,0.001 a 0.379,0.508 0 0 0 0.021,-0.009 c 0.002,-0.001 0.004,-0.001 0.006,-0.002 a 0.379,0.508 0 0 0 0.085,-0.056 c 0,0 0.276,-0.230 0.422,-0.688 0.127,-0.397 0.048,-0.989 -0.257,-1.538 0.023,-0.141 0.060,-0.243 0.032,-0.546 -0.036,-0.387 -0.220,-0.860 -0.556,-1.255 -0.100,-0.688 -0.149,-1.073 -0.141,-1.140 0.004,-0.036 0.010,-0.061 0.066,-0.176 0.055,-0.114 0.154,-0.293 0.286,-0.558 a 0.379,0.508 0 0 0 0.023,-0.054 c 0.218,-0.587 0.475,-0.854 0.750,-1.223 0.266,-0.356 0.532,-0.877 0.550,-1.639 l 1.148,-7.704 a 1.390,1.864 0 0 0 1.382,-1.864 1.390,1.864 0 0 0 -1.390,-1.864 1.390,1.864 0 0 0 -1.390,1.864 1.390,1.864 0 0 0 0.488,1.419 l -2.791,5.737 -0.116,-7.353 A 1.390,1.864 0 0 0 20.096,9.720 1.390,1.864 0 0 0 18.705,7.856 1.390,1.864 0 0 0 17.315,9.720 1.390,1.864 0 0 0 18.047,11.362 l -2.013,7.062 -1.176,-7.619 A 1.390,1.864 0 0 0 15.798,9.042 1.390,1.864 0 0 0 14.407,7.178 Z"/>
</g>
<use transform="matrix(-1,0,0,-1,167,242)" id="downright" xlink:href="#upleft"/>


<g transform="matrix(0.47,0,0,0.47,-0.63,-5.8)">
<g id="queen">
 <path d="m 60,30 270,0 0,360 0,0" id="path6635-5" style="fill:none;stroke:#5555aa;stroke-width:2;stroke-linecap:butt;stroke-opacity:1" />
 <path style="fill:#000000;stroke:none" id="path7696" d="m 145.061,197.624 1.949,-7.604 c 0,0 8.623,3.267 13.063,4.484 5.248,1.438 10.626,2.376 15.987,3.314 3.168,0.554 6.347,1.104 9.553,1.364 6.479,0.525 12.998,0.517 19.497,0.389 6.574,-0.129 13.142,-0.590 19.692,-1.169 3.324,-0.294 6.640,-0.691 9.943,-1.169 3.785,-0.548 11.308,-1.949 11.308,-1.949 l -12.868,12.478 -24.176,0.194 -12.478,31.195 19.107,1.364 -3.704,21.057 c 0,0 -14.705,-0.680 -22.032,-1.364 -6.782,-0.633 -13.544,-1.502 -20.277,-2.534 -4.309,-0.660 -8.570,-1.605 -12.868,-2.339 -3.243,-0.554 -9.748,-1.559 -9.748,-1.559 0,0 -2.680,-6.968 -4.289,-10.333 -2.521,-5.273 -8.383,-15.402 -8.383,-15.402 l 17.742,4.289 9.748,-29.051 z" />
 <path style="fill:#5555aa;stroke:none" id="path7619" d="m 121.022,177.623 c 0,0 8.462,5.515 12.973,7.762 4.211,2.098 13.081,5.303 13.081,5.303 l -11.667,37.476 c 0,0 -6.506,-9.228 -10.253,-13.435 -3.499,-3.929 -7.411,-7.482 -11.359,-10.960 -3.388,-2.984 -10.560,-8.485 -10.560,-8.485 z" />
 <path style="fill:#5555aa;stroke:none" id="path7615" d="m 123.390,244.429 c 0,0 4.467,13.495 5.303,20.506 0.878,7.373 0.914,14.957 -0.353,22.273 -1.126,6.499 -3.580,12.757 -6.363,18.738 -2.498,5.368 -5.352,10.694 -9.192,15.202 -3.307,3.882 -7.517,6.934 -11.667,9.899 -5.245,3.748 -16.617,9.899 -16.617,9.899 l -3.535,-3.181 c 0,0 1.358,-14.232 2.828,-21.213 1.567,-7.445 3.643,-14.814 6.363,-21.920 2.525,-6.596 5.866,-12.860 9.192,-19.091 3.283,-6.151 6.302,-12.544 10.606,-18.031 3.858,-4.917 13.435,-13.081 13.435,-13.081 z" />
 <path style="fill:#ff5555;stroke:none" id="path7617" d="m 117.026,251.146 c 0,0 4.250,12.793 4.596,19.445 0.382,7.357 -0.834,14.828 -2.828,21.920 -1.956,6.957 -4.832,13.783 -8.838,19.798 -3.049,4.579 -7.084,8.500 -11.313,12.020 -4.849,4.035 -15.909,10.253 -15.909,10.253 0,0 1.498,-14.674 2.828,-21.920 1.006,-5.482 2.060,-10.997 3.889,-16.263 2.300,-6.624 5.590,-12.876 8.838,-19.091 2.593,-4.962 5.208,-9.956 8.485,-14.495 3.030,-4.197 10.253,-11.667 10.253,-11.667 z" />
 <g id="g7342" transform="matrix(1,0,0,1.253,8.906,-698.660)">
 <path style="fill:#ffff55;stroke:#5555aa;stroke-width:1.786;stroke-linecap:round;stroke-linejoin:round;stroke-opacity:1" id="path6924-4" d="m 38.858,737.583 -5.803,10.368 c 0,0 0.831,3.374 2.535,3.977 1.026,0.362 2.321,-0.101 3.25,-0.707 1.186,-0.774 2.5,-3.439 2.5,-3.439 l 4.960,-8.328" />
 <path style="fill:none;stroke:#5555aa;stroke-width:1.786;stroke-linecap:round;stroke-linejoin:round;stroke-opacity:1" id="path6926-2" d="m 34.042,747.655 c 0,0 2.483,-0.805 3.798,-0.873 1.052,-0.054 3.128,0.378 3.128,0.378" />
 </g>
 <path style="fill:#000000;stroke:none" id="path7014" d="m 166.207,65.781 c 0,0 -13.781,14.046 -19.079,22.257 -5.543,8.593 -9.702,18.110 -12.990,27.794 -2.851,8.398 -4.356,17.220 -5.740,25.981 -0.820,5.196 -1.101,10.465 -1.510,15.709 -0.392,5.028 -0.906,15.105 -0.906,15.105 l 45.014,-41.691 c 0,0 -2.715,-9.173 -3.323,-13.897 -0.604,-4.695 -0.251,-9.465 -0.302,-14.199 -0.067,-6.344 0.204,-12.692 0,-19.033 -0.193,-6.018 -1.162,-18.028 -1.162,-18.028 z" />
 <path style="fill:#ffff58;stroke:none" id="path7346-4" d="m 299.778,174.368 c -5.067,2.592 -12.066,6.074 -18.247,8.793 -5.833,2.565 -11.714,5.059 -17.756,7.084 -5.082,1.702 -10.307,2.953 -15.510,4.242 -4.821,1.194 -9.636,2.489 -14.548,3.234 -5.079,0.770 -10.236,0.888 -15.359,1.266 -4.120,0.303 -8.237,0.724 -12.367,0.802 -5.003,0.094 -10.010,-0.118 -15.006,-0.405 -4.588,-0.264 -9.195,-0.499 -13.736,-1.211 -5.118,-0.802 -10.146,-2.121 -15.157,-3.437 -4.316,-1.133 -8.583,-2.452 -12.826,-3.836 -4.652,-1.517 -9.352,-2.947 -13.840,-4.897 -5.263,-2.286 -11.739,-6.174 -15.275,-7.941 l 45.291,-42.049 c 0,0 2.741,0.509 4.103,0.807 2.589,0.565 2.447,0.946 7.730,1.858 2.495,1.037 4.165,3.570 6.645,4.644 3.022,1.308 6.376,2.038 9.669,2.030 6.289,-0.014 13.866,-1.696 18.447,-3.961 2.383,-0.002 4.485,-0.400 6.726,-0.616 3.110,-0.300 6.23,-0.522 9.325,-0.945 3.325,-0.454 6.689,-0.811 9.923,-1.710 2.766,-0.768 5.391,-1.984 8.026,-3.124 2.890,-1.250 8.527,-4.070 8.527,-4.070 3.982,6.638 9.037,15.502 17.591,23.604 4.277,4.050 9.276,9.737 13.550,12.983 4.274,3.245 11.070,5.266 14.070,6.857 z" />
 <path style="fill:#ff5555;stroke:none" id="path7016" d="m 167.193,103.657 c 0,0 -6.094,9.733 -8.583,14.895 -1.787,3.705 -3.386,7.528 -4.531,11.480 -0.902,3.113 -1.514,6.326 -1.817,9.554 -0.257,2.744 0.005,8.270 0.005,8.270 l 19.033,-16.918 c 0,0 -2.644,-8.573 -3.323,-12.990 -0.724,-4.715 -0.781,-14.291 -0.781,-14.291 z" />
 <path style="fill:#000000;stroke:none" id="path6845" d="M 224,30 289.5,114.166 297.333,112.5 238,30 Z" />
 <path style="fill:#ffff55;stroke:#5555aa;stroke-width:2;stroke-linecap:round;stroke-linejoin:round;stroke-opacity:1" id="path17933-2-5" d="m 307,30 c -1.672,9.898 -2.343,19.966 -2,30 0.347,10.168 1.751,20.358 5,30 2.387,7.086 5.763,13.838 10,20 -3.328,-0.219 -6.671,-0.219 -10,0 -4.380,0.289 -8.735,0.959 -13,2 l -59,-82 69,0" />
 <path style="fill:#000000;stroke:#000100;stroke-width:1.999;stroke-linecap:round;stroke-linejoin:round;stroke-opacity:1" id="path17945-51-17" d="m 273.592,55.470 c 0.395,0.990 0.851,1.982 1.518,2.809 0.879,1.091 1.843,2.312 3.191,2.742 1.694,0.540 3.992,0.724 5.390,-0.450 1.363,-1.145 1.790,-3.433 1.346,-5.105 -0.511,-1.929 -4.227,-4.183 -4.227,-4.183 0,0 4.728,-1.580 5.556,-3.612 0.777,-1.908 -0.033,-4.452 -1.439,-5.878 -1.387,-1.406 -3.928,-2.341 -5.796,-1.518 -2.097,0.923 -3.300,6.023 -3.300,6.023 0,0 -0.837,-3.753 -2.050,-5.129 -1.076,-1.222 -2.627,-2.416 -4.290,-2.380 -1.475,0.032 -3.177,0.957 -3.866,2.279 -1.085,2.080 -0.611,4.967 0.625,6.878 1.239,1.915 5.997,3.342 5.997,3.342 0,0 -1.274,-2.703 0.982,-4.262 1.804,-1.246 5.046,0.238 6.046,2.107 0.846,1.582 0.400,4.619 -1.300,5.348 -3.394,1.452 -5.117,-1.721 -5.117,-1.721 0,0 0.388,1.845 0.735,2.713 z" />
 <path style="fill:#000000;stroke:#000100;stroke-width:1.999;stroke-linecap:round;stroke-linejoin:round;stroke-opacity:1" id="path17945-51-17-1" d="m 293.168,82.708 c 0.352,0.896 0.759,1.792 1.354,2.541 0.784,0.987 1.644,2.091 2.847,2.480 1.512,0.488 3.561,0.655 4.809,-0.407 1.216,-1.035 1.597,-3.105 1.201,-4.617 -0.456,-1.744 -3.772,-3.783 -3.772,-3.783 0,0 3.707,-1.826 4.290,-3.600 0.569,-1.731 0.011,-4.034 -1.284,-5.316 -1.095,-1.084 -3.100,-1.674 -4.504,-1.040 -1.881,0.849 -2.944,5.447 -2.944,5.447 0,0 -0.747,-3.394 -1.829,-4.638 -0.960,-1.105 -2.344,-2.185 -3.827,-2.152 -1.316,0.029 -2.834,0.865 -3.449,2.061 -0.968,1.881 -0.545,4.492 0.557,6.220 1.105,1.732 5.351,3.022 5.351,3.022 0,0 -1.137,-2.444 0.876,-3.855 1.609,-1.127 4.502,0.215 5.394,1.906 0.755,1.430 0.357,4.178 -1.160,4.836 -3.028,1.313 -4.566,-1.557 -4.566,-1.557 0,0 0.346,1.669 0.655,2.454 z" />
 <path style="fill:none;stroke:#000000;stroke-width:2;stroke-linecap:round;stroke-linejoin:round;stroke-opacity:1" id="path6821" d="m 247.333,31.666 c 0,0 0.587,11.227 5.5,16.833 4.722,5.388 10.277,5.611 15.166,5.166 0,0 -2.299,13.139 2,18.5 C 274.663,77.980 290,82.5 290,82.5 c 0,0 -3.580,10.047 1.333,17 2.720,3.849 11.833,9.5 11.833,9.5" />
 <path style="font-style:normal;font-variant:normal;font-weight:normal;font-stretch:normal;font-size:medium;line-height:normal;font-family:Sans;-inkscape-font-specification:Sans;text-indent:0;text-align:start;text-decoration:none;text-decoration-line:none;letter-spacing:normal;word-spacing:normal;text-transform:none;direction:ltr;block-progression:tb;writing-mode:lr-tb;baseline-shift:baseline;text-anchor:start;fill:#000000;stroke-width:3;marker:none;" id="path6821-1" d="m 252.093,30.637 c -0.689,0.002 -1.339,0.541 -1.468,1.218 0,0 -1.822,8.333 4.062,14.218 0.910,0.910 2.217,1.693 3.812,2.562 1.594,0.869 3.437,1.76 5.187,2.562 3.054,1.400 5.149,2.199 5.812,2.468 0.003,0.706 -0.022,2.230 0.375,5.031 0.479,3.374 1.087,8.160 3.322,11.322 4.140,5.858 8.886,8.364 12.302,10.052 2.234,1.104 3.759,1.490 4.781,1.687 0.098,0.769 0.278,2.425 0.843,5.281 0.683,3.448 1.614,7.368 3.187,9.906 1.649,2.659 4.928,5.496 7.875,7.843 2.946,2.347 5.562,4.125 5.562,4.125 0.654,0.441 1.652,0.248 2.094,-0.406 0.441,-0.654 -3.085,-3.152 -3.739,-3.593 0,0 -2.356,-3.363 -2.875,-6.802 -2.852,-2.272 -4.934,-2.322 -6.552,-4.395 -1.584,-2.030 -1.956,-3.947 -2.614,-7.270 -0.658,-3.323 -1,-6.125 -1,-6.125 -0.083,-0.681 -0.690,-1.260 -1.375,-1.312 0,0 -5.701,-1.434 -7.843,-3.291 -2.471,-2.142 -5.685,-2.960 -5.041,-8.416 -1.730,-2.448 -5.512,-5.902 -5.958,-9.041 -0.445,-3.138 -0.437,-5.562 -0.437,-5.562 0.018,-0.608 -0.372,-1.209 -0.937,-1.437 0,0 -3.107,-1.242 -6.531,-2.812 -1.711,-0.784 -3.800,-1.049 -5,-2.468 -1.467,-1.735 -1.551,-6.124 -1.958,-6.531 -4.655,-4.655 -4.416,-6.968 -4.416,-6.968 0.207,-0.879 -0.564,-1.848 -1.468,-1.843 z" />
 <path style="fill:#ff5555;stroke:#5555aa;stroke-width:2;stroke-opacity:1" id="path6847" d="M 211,30 224.333,30 330,168.666 330,201 Z" />
 <path style="fill:none;stroke:#5555aa;stroke-width:2;stroke-linecap:round;stroke-linejoin:round;stroke-opacity:1" id="path17967-15-5" d="m 186.993,30 c 0,0 1.769,11.295 14.651,22.174 12.881,10.878 34.358,15.228 34.358,15.228" />
 <path style="fill:none;stroke:#5555aa;stroke-width:2;stroke-linecap:round;stroke-linejoin:round;stroke-opacity:1" id="path17967-7-2-2" d="m 192.160,30 c 0,0 5.212,11.830 12.428,17.842 7.215,6.012 27.531,13.114 27.531,13.114" />
 <path style="fill:none;stroke:#5555aa;stroke-width:2;stroke-linecap:round;stroke-linejoin:round;stroke-opacity:1" id="path17967-6-7-7" d="m 198.267,30 c 0,0 4.410,10.058 9.792,14.639 5.381,4.581 19.924,10.532 19.924,10.532" />
 <path style="fill:none;stroke:#5555aa;stroke-width:1.999;stroke-linecap:round;stroke-linejoin:round;stroke-opacity:1" id="path17967-1-6-6" d="m 203.288,30 c 0,0 2.731,6.831 7.029,10.382 4.297,3.550 12.891,7.390 12.891,7.390" />
 <path style="fill:none;stroke:#5555aa;stroke-width:2;stroke-linecap:round;stroke-linejoin:round;stroke-opacity:1" id="path17967-2-4-1" d="m 188.938,37.538 c 0,0 -0.840,4.085 -6.143,12.956 -5.303,8.871 -15.747,12.632 -15.747,12.632" />
 <path style="fill:none;stroke:#5555aa;stroke-width:2;stroke-linecap:round;stroke-linejoin:round;stroke-opacity:1" id="path17967-7-7-2-4" d="m 185.051,30 c 0,0 -0.173,7.048 -4.997,14.561 -4.823,7.512 -12.940,11.314 -12.940,11.314" />
 <path style="fill:none;stroke:#5555aa;stroke-width:2;stroke-linecap:round;stroke-linejoin:round;stroke-opacity:1" id="path17967-6-9-3-2" d="m 179.68,30 c 0,0 -1.933,7.457 -4.508,12.038 -2.575,4.581 -7.861,7.898 -7.861,7.898" />
 <path style="fill:none;stroke:#5555aa;stroke-width:1.999;stroke-linecap:round;stroke-linejoin:round;stroke-opacity:1" id="path17967-1-5-2-3" d="m 173.554,30 c 0,0 0.180,4.400 -1.942,7.950 -2.123,3.550 -3.590,3.984 -3.590,3.984" />
 <path style="fill:none;stroke:#5555aa;stroke-width:1.999;stroke-linecap:round;stroke-linejoin:round;stroke-opacity:1" id="path18296-2-2" d="m 186.405,83.469 c 0,0 0.589,2.580 0.530,3.887 -0.162,3.576 -1.196,7.097 -2.408,10.465 -0.795,2.208 -2.999,3.951 -3.157,6.293 -0.131,1.946 0.616,4.064 1.895,5.537 0.901,1.037 2.639,0.965 3.676,1.868 0.838,0.730 1.906,2.739 1.906,2.739" />
 <path style="fill:#5555aa;stroke:#5555aa;stroke-width:1.999;stroke-linecap:round;stroke-linejoin:round;stroke-opacity:1" id="path18298-1-2" d="m 198.747,102.780 c 0,0 3.324,3.559 2.859,5.604 -0.304,1.335 -1.914,2.281 -3.267,2.490 -1.779,0.274 -3.399,-1.188 -5.082,-1.827 -1.593,-0.605 -3.126,-2.430 -4.747,-1.901 -0.651,0.212 -1.416,1.141 -1.089,1.743 0.535,0.984 2.242,-0.013 3.361,0.053 3.393,0.204 7.437,3.118 10.144,1.060 0.871,-0.662 0.779,-2.168 0.544,-3.237 -0.345,-1.571 -2.723,-3.985 -2.723,-3.985 z" />
 <path style="fill:#5555aa;stroke:#5555aa;stroke-width:1.999;stroke-linecap:round;stroke-linejoin:round;stroke-opacity:1" id="path18288-6-1" d="m 232.200,79.772 c 0,0 -9.207,-6.281 -14.497,-7.649 -4.161,-1.076 -8.738,-1.368 -12.893,-0.265 -1.671,0.443 -4.451,2.664 -4.451,2.664 0,0 4.075,-1.311 6.188,-1.538 4.269,-0.459 8.713,-0.675 12.877,0.375 4.620,1.166 12.775,6.414 12.775,6.414 z" />
 <path style="fill:#5555aa;stroke:#5555aa;stroke-width:1.999;stroke-linecap:round;stroke-linejoin:round;stroke-opacity:1" id="path18290-8-6" d="m 168.270,74.250 c 0,0 5.566,-2.979 8.539,-2.653 3.704,0.406 9.587,5.525 9.587,5.525 0,0 -6.241,-4.258 -9.859,-4.369 -3.037,-0.093 -8.505,3.151 -8.505,3.151 z" />
 <path style="fill:#5555aa;stroke:#5555aa;stroke-width:1.999;stroke-linecap:round;stroke-linejoin:round;stroke-opacity:1" id="path18312-5-8" d="m 203.940,122.970 c 0,0 -4.704,-1.875 -7.154,-2.044 -1.839,-0.126 -3.646,0.697 -5.487,0.785 -2.101,0.101 -4.257,-0.853 -6.305,-0.291 -1.120,0.307 -3.030,1.936 -3.030,1.936 0,0 2.086,-0.460 3.136,-0.397 2.136,0.128 4.137,1.565 6.276,1.568 2.360,0.004 4.550,-1.456 6.930,-1.712 1.869,-0.200 5.634,0.155 5.634,0.155 z" />
 <path style="fill:none;stroke:#5555aa;stroke-width:1.999;stroke-linecap:round;stroke-linejoin:round;stroke-opacity:1" id="path18316-6-5" d="m 197.578,127.833 c 0,0 -3.943,1.371 -5.990,1.415 -1.753,0.037 -5.173,-0.990 -5.173,-0.990" />
 <path style="fill:none;stroke:#5555aa;stroke-width:1.999;stroke-linecap:round;stroke-linejoin:round;stroke-opacity:1" id="path6597-7" d="m 185.625,82.900 c 0,0 -5.032,-4.105 -9.649,-4.205 -4.941,-0.106 -7.894,2.523 -7.894,2.523" />
 <path style="fill:none;stroke:#5555aa;stroke-width:1.999;stroke-linecap:round;stroke-linejoin:round;stroke-opacity:1" id="path6597-1-6" d="m 228.613,85.045 c 0,0 -9.863,-7.325 -15.526,-7.162 -7.420,0.213 -12.961,5.559 -12.961,5.559" />
 <path style="fill:none;stroke:#5555aa;stroke-width:1.999;stroke-linecap:round;stroke-linejoin:round;stroke-opacity:1" id="path6597-8-1" d="m 229.705,86.621 c -5.852,-0.757 -10.154,-3.299 -15.541,-3.759 -4.618,-0.394 -13.942,1.036 -13.942,1.036" />
 <path style="fill:none;stroke:#5555aa;stroke-width:1.999;stroke-linecap:round;stroke-linejoin:round;stroke-opacity:1" id="path6597-8-9-8" d="m 167.453,86.693 c 5.387,-2.541 4.233,-3.350 9.620,-3.810 4.618,-0.394 9.445,2.225 9.445,2.225" />
 <path style="fill:none;stroke:#5555aa;stroke-width:1.999;stroke-linecap:round;stroke-linejoin:round;stroke-opacity:1" id="path6597-1-2-92" d="m 226.468,87.080 c -5.266,1.199 -10.768,5.081 -16.727,5.378 -4.415,0.219 -9.150,-2.813 -9.539,-6.897" />
 <path style="fill:none;stroke:#5555aa;stroke-width:1.999;stroke-linecap:round;stroke-linejoin:round;stroke-opacity:1" id="path6597-1-2-7-7" d="m 215.381,84.395 c 0.936,5.063 -4.018,6.559 -7.578,6.121 -2.414,-0.296 -4.653,-3.259 -3.491,-6.153" />
 <path style="fill:#5555aa;stroke:#5555aa;stroke-width:1.999;stroke-linecap:round;stroke-linejoin:round;stroke-opacity:1" id="path6678-9" d="m 207.132,87.242 c -0.098,-0.917 0.745,-2.179 1.705,-2.230 0.840,-0.044 1.724,0.977 1.705,1.784 -0.019,0.840 -0.983,1.762 -1.860,1.784 -0.695,0.017 -1.479,-0.674 -1.550,-1.338 z" />
 <path style="fill:#5555aa;stroke:#5555aa;stroke-width:1.999;stroke-linecap:round;stroke-linejoin:round;stroke-opacity:1" id="path6678-4-5" d="m 178.557,87.548 c 0.026,-0.716 -0.846,-1.644 -1.742,-1.625 -0.783,0.016 -1.532,0.862 -1.458,1.486 0.076,0.650 1.038,1.306 1.854,1.270 0.647,-0.028 1.326,-0.612 1.346,-1.131 z" />
 <path style="fill:none;stroke:#5555aa;stroke-width:1.999;stroke-linecap:round;stroke-linejoin:round;stroke-opacity:1" id="path6706-4" d="m 184.967,91.412 c -2.092,2.459 -2.243,4.643 -6.578,6.728" />
 <path style="fill:none;stroke:#5555aa;stroke-width:1.999;stroke-linecap:round;stroke-linejoin:round;stroke-opacity:1" id="path6708-3" d="m 199.941,83.932 c 1.604,7.121 3.449,11.366 8.596,13.521" />
 <path style="fill:none;stroke:#5555aa;stroke-width:2;stroke-linecap:round;stroke-linejoin:round;stroke-opacity:1" id="path6597-1-2-9-1" d="m 167.550,89.414 c 2.855,1.803 6.511,2.869 11.175,2.747 3.455,-0.090 6.968,-2.538 7.029,-5.496" />
 <path style="fill:none;stroke:#5555aa;stroke-width:2;stroke-linecap:round;stroke-linejoin:round;stroke-opacity:1" id="path6597-1-2-7-5-2" d="m 172.825,84.103 c -1.111,4.898 1.095,7.535 5.143,7.452 1.780,-0.036 5.422,-4.039 2.747,-7.844" />
 <path style="fill:none;stroke:#5555aa;stroke-width:2;stroke-linecap:round;stroke-linejoin:round;stroke-opacity:1" id="path6972" d="m 169,30 c 0,0 -2.294,21.970 -2.5,33 -0.161,8.671 0.744,17.330 1,26 0.240,8.164 -0.410,16.382 0.5,24.5 0.645,5.749 0.934,11.814 3.5,17 2.252,4.553 5.706,8.784 10,11.5 3.656,2.313 8.179,3.273 12.5,3.5 4.389,0.229 8.832,-0.812 13,-2.209 5.695,-1.907 10.985,-4.984 16,-8.290 5.042,-3.324 9.857,-7.105 14,-11.5 3.110,-3.298 8,-11 8,-11" />
 <path style="fill:none;stroke:#5555aa;stroke-width:2;stroke-linecap:round;stroke-linejoin:round;stroke-opacity:1" id="path6976" d="m 166.353,136.442 c 4.669,2.406 8.816,2.832 11.949,3.191" />
 <path style="fill:none;stroke:#5555aa;stroke-width:2;stroke-linecap:round;stroke-linejoin:round;stroke-opacity:1" id="path6978" d="m 211.062,142.015 c 7.263,-1.352 16.235,-2.198 24.139,-4.272 6.643,-1.743 12.959,-4.557 19.439,-6.836" />
 <path style="fill:none;stroke:#5555aa;stroke-width:2;stroke-linecap:round;stroke-linejoin:round;stroke-opacity:1" id="path6980" d="m 242.892,116.807 5.981,15.808" />
 <path style="fill:none;stroke:#5555aa;stroke-width:2;stroke-linecap:round;stroke-linejoin:round;stroke-opacity:1" id="path6982" d="m 239.474,121.079 4.913,13.031" />
 <path style="fill:none;stroke:#5555aa;stroke-width:2;stroke-linecap:round;stroke-linejoin:round;stroke-opacity:1" id="path6984" d="m 235.629,125.779 3.204,9.399" />
 <path style="fill:none;stroke:#5555aa;stroke-width:2;stroke-linecap:round;stroke-linejoin:round;stroke-opacity:1" id="path6986" d="m 231.784,129.197 2.990,7.476" />
 <path style="fill:none;stroke:#5555aa;stroke-width:2;stroke-linecap:round;stroke-linejoin:round;stroke-opacity:1" id="path6988" d="m 227.725,132.615 2.777,6.195" />
 <path style="fill:none;stroke:#5555aa;stroke-width:2;stroke-linecap:round;stroke-linejoin:round;stroke-opacity:1" id="path6990" d="m 223.879,135.392 1.709,3.631" />
 <path style="fill:none;stroke:#5555aa;stroke-width:2;stroke-linecap:round;stroke-linejoin:round;stroke-opacity:1" id="path6992" d="m 244.815,80.063 c -0.996,1.851 -2.225,3.595 -2.990,5.554 -1.043,2.670 -1.424,5.554 -2.136,8.331" />
 <path style="fill:none;stroke:#5555aa;stroke-width:2;stroke-linecap:round;stroke-linejoin:round;stroke-opacity:1" id="path6994" d="m 248.874,86.045 c -1.281,2.563 -2.909,4.981 -3.845,7.690 -1.162,3.366 -1.424,6.978 -2.136,10.467" />
 <path style="fill:none;stroke:#5555aa;stroke-width:2;stroke-linecap:round;stroke-linejoin:round;stroke-opacity:1" id="path6996" d="m 252.505,91.385 c -1.139,2.705 -2.590,5.300 -3.418,8.117 -1.283,4.369 -1.566,8.972 -2.349,13.458" />
 <path style="fill:none;stroke:#5555aa;stroke-width:2;stroke-linecap:round;stroke-linejoin:round;stroke-opacity:1" id="path6998" d="m 256.564,96.512 c -1.352,3.489 -3.280,6.807 -4.058,10.467 -1.201,5.648 -0.569,11.535 -0.854,17.303" />
 <path style="fill:none;stroke:#5555aa;stroke-width:2;stroke-linecap:round;stroke-linejoin:round;stroke-opacity:1" id="path7000" d="m 260.837,102.067 c -1.210,2.563 -2.972,4.933 -3.631,7.690 -1.756,7.344 -0.427,15.096 -0.640,22.644" />
 <path style="fill:none;stroke:#5555aa;stroke-width:2;stroke-linecap:round;stroke-linejoin:round;stroke-opacity:1" id="path7002" d="m 265.109,107.621 c -1.281,3.204 -3.34,7.222 -3.845,11.108 -0.985,7.576 1.139,15.238 1.709,22.857" />
 <path style="fill:none;stroke:#5555aa;stroke-width:2;stroke-linecap:round;stroke-linejoin:round;stroke-opacity:1" id="path7004" d="m 268.954,114.457 c -1.068,3.418 -2.236,8.905 -2.349,13.458 -0.187,7.531 1.566,13.885 2.777,22.430" />
 <path style="fill:none;stroke:#5555aa;stroke-width:2;stroke-linecap:round;stroke-linejoin:round;stroke-opacity:1" id="path7006" d="m 273.654,121.079 c -0.712,4.770 -0.910,8.975 -0.640,13.458 0.512,8.507 2.136,17.018 4.272,25.207" />
 <path style="fill:none;stroke:#5555aa;stroke-width:2;stroke-linecap:round;stroke-linejoin:round;stroke-opacity:1" id="path7008" d="m 279.208,129.197 c -0.142,4.486 -0.633,9.584 0,14.312 1.077,8.047 4.130,15.381 6.408,23.498" />
 <path style="fill:none;stroke:#5555aa;stroke-width:2;stroke-linecap:round;stroke-linejoin:round;stroke-opacity:1" id="path7010" d="m 286.044,139.024 c -0.284,3.275 -0.282,7.895 0.427,11.749 1.321,7.175 3.346,13.529 7.049,20.721" />
 <path style="fill:none;stroke:#5555aa;stroke-width:2;stroke-linecap:round;stroke-linejoin:round;stroke-opacity:1" id="path7012" d="m 292.240,147.996 c 0.498,3.702 0.385,7.540 1.495,11.108 1.683,5.412 5.483,10.467 7.690,15.167" />
 <g id="g7264" transform="translate(0,-512.362)">
 <path style="fill:none;stroke:#5555aa;stroke-width:1.999;stroke-linecap:round;stroke-linejoin:round;stroke-opacity:1" id="path6912-3" d="m 89.796,720.324 c 0,0 -4.404,-5.208 -6.868,-7.601 -2.593,-2.518 -5.291,-4.980 -8.299,-7.077 -2.317,-1.615 -4.682,-3.490 -7.440,-4.193 -1.628,-0.415 -3.484,-0.562 -5.040,0.070 -1.143,0.465 -2.419,1.344 -2.686,2.550 -0.508,2.291 1.101,4.727 2.575,6.552 1.495,1.851 3.767,2.992 5.945,3.951 1.314,0.578 2.915,0.902 4.181,1.037 0.829,2.600 -1.655,2.008 -1.127,7.138 0.154,1.504 0.361,3.568 0.361,3.568" />
 <path style="fill:none;stroke:#5555aa;stroke-width:1.999;stroke-linecap:round;stroke-linejoin:round;stroke-opacity:1" id="path6914-4" d="m 63.467,706.048 c 0,0 0.487,1.664 1.144,2.218 0.599,0.505 1.482,0.778 2.289,0.786 0.791,0.008 2.260,-0.725 2.260,-0.725" />
 <path style="fill:none;stroke:#5555aa;stroke-width:1.999;stroke-linecap:round;stroke-linejoin:round;stroke-opacity:1" id="path6916-1" d="m 58.888,703.286 c 0,0 -3.967,-1.814 -5.723,-1.048 -1.849,0.806 -2.854,3.104 -2.861,4.980 -0.011,2.852 2.777,5.117 4.292,7.601 0.921,1.510 1.533,3.329 2.914,4.435 1.353,1.083 3.171,2.203 4.865,1.834 1.323,-0.287 2.386,-1.615 2.861,-2.883 0.424,-1.131 0.582,-2.725 -0.232,-3.617 -1.094,-1.197 -3.222,-1.090 -4.807,-0.746 -0.846,0.183 -1.633,0.748 -2.173,1.426 -0.554,0.696 -0.926,2.505 -0.926,2.505" />
 <path style="fill:none;stroke:#5555aa;stroke-width:1.999;stroke-linecap:round;stroke-linejoin:round;stroke-opacity:1" id="path6918-1" d="m 49.443,708.528 c 0,0 -2.802,0.856 -3.720,1.834 -0.924,0.985 -1.490,2.371 -1.430,3.669 0.096,2.109 1.548,4.031 2.861,5.766 1.536,2.031 3.544,3.847 5.723,5.242 1.616,1.034 3.416,1.906 5.309,2.227 1.413,0.239 3.310,0.782 4.292,-0.262 0.838,-0.890 0.605,-2.607 0,-3.669 -0.457,-0.801 -1.498,-1.146 -2.382,-1.410 -1.200,-0.358 -2.706,-0.857 -3.755,-0.172 -0.940,0.614 -1.209,3.145 -1.209,3.145" />
 <path style="fill:none;stroke:#5555aa;stroke-width:1.999;stroke-linecap:round;stroke-linejoin:round;stroke-opacity:1" id="path6920-3" d="m 44.864,718.489 c 0,0 -3.483,2.211 -3.720,3.931 -0.159,1.163 0.905,2.238 1.717,3.145 2.068,2.311 4.948,3.937 7.727,5.504 1.708,0.962 3.432,2.336 5.437,2.359 0.939,0.010 2.108,-0.302 2.575,-1.048 0.429,-0.686 0.088,-1.645 -0.286,-2.359 -0.701,-1.336 -1.816,-3.194 -3.434,-3.145 -1.013,0.030 -1.603,1.243 -2.003,2.096 -0.414,0.887 -0.286,2.883 -0.286,2.883" />
 <path style="fill:none;stroke:#5555aa;stroke-width:1.999;stroke-linecap:round;stroke-linejoin:round;stroke-opacity:1" id="path6922-8" d="m 43.147,727.663 c 0,0 -1.256,2.044 -1.144,3.145 0.181,1.791 1.484,3.435 2.861,4.718 1.785,1.662 4.173,2.840 6.617,3.497 1.271,0.341 2.960,0.957 3.971,0.172 1.245,-0.967 1.326,-3.129 0.572,-4.455 -0.650,-1.144 -2.328,-2.031 -3.720,-1.834 -1.050,0.148 -1.723,1.235 -2.220,2.096 -0.499,0.867 -0.641,2.883 -0.641,2.883" />
 <path style="fill:none;stroke:#5555aa;stroke-width:1.999;stroke-linecap:round;stroke-linejoin:round;stroke-opacity:1" id="path6914-4-7" d="m 54.737,740.634 c 0,0 0.873,1.363 1.477,1.885 0.568,0.491 1.269,0.815 1.956,1.119 1.364,0.604 4.257,1.382 4.257,1.382" />
 </g>
 <g id="g7328" transform="matrix(0.907,-0.420,0.420,0.907,-278.699,-426.274)">
 <path style="fill:#ffff55;stroke:#5555aa;stroke-width:2;stroke-linecap:round;stroke-linejoin:round;stroke-opacity:1" id="path6928-77" d="m 50.840,703.782 c 0,0 -5.512,-1.228 -8,-2.5 -1.895,-0.968 -3.745,-2.193 -5.116,-3.823 -1.486,-1.766 -2.560,-3.940 -3.133,-6.176 -0.641,-2.503 -0.25,-7.75 -0.25,-7.75 0,0 3.559,2.674 5.5,3.75 2.092,1.159 4.518,1.657 6.573,2.883 1.532,0.914 2.944,2.044 4.219,3.292 1.020,0.999 2.030,2.064 2.707,3.323 0.661,1.230 1.039,2.619 1.25,4 0.176,1.153 0,3.5 0,3.5 z" />
 <path style="fill:none;stroke:#5555aa;stroke-width:2;stroke-linecap:round;stroke-linejoin:round;stroke-opacity:1" id="path6930-9" d="m 39.590,692.282 c 0,0 2.019,2.616 3.262,3.689 1.878,1.620 4.191,2.657 6.237,4.060 1.525,1.046 4.5,3.25 4.5,3.25" />
 </g>
 <path style="fill:#ffff55;stroke:#5555aa;stroke-width:2;stroke-linecap:round;stroke-linejoin:round;stroke-opacity:1" id="path6932-31" d="m 66.526,188.145 0.887,-10.320 3.067,-2.705 2.653,2.679 -0.591,13.759 z" />
 <g id="g7324" transform="matrix(0.861,-0.247,0.269,0.790,-169.530,-351.904)">
 <path style="fill:#ffff55;stroke:#5555aa;stroke-width:2.313;stroke-linecap:round;stroke-linejoin:round;stroke-opacity:1" id="path6934-9" d="m 62.340,706.532 c 0,0 3.313,-3.896 5.5,-5.116 2.535,-1.414 5.506,-2.042 8.396,-2.310 2.698,-0.250 5.395,0.787 8.103,0.676 2.532,-0.103 7.5,-1.25 7.5,-1.25 0,0 -2.140,5.260 -4,7.25 -1.978,2.117 -4.546,3.736 -7.202,4.547 -3.585,1.094 -7.409,0.637 -11.047,0.202 -1.629,-0.194 -3.350,-0.401 -4.75,-1.25 -1.059,-0.642 -2.5,-2.75 -2.5,-2.75 z" />
 <path style="fill:none;stroke:#5555aa;stroke-width:2.313;stroke-linecap:round;stroke-linejoin:round;stroke-opacity:1" id="path6936-8" d="m 63.499,706.782 c 0,0 4.334,-1.826 6.590,-2 2.638,-0.202 5.147,1.413 7.784,1.148 1.931,-0.194 5.582,-1.975 5.582,-1.975" />
 </g>
 <path style="fill:#5555aa;stroke:#5555aa;stroke-width:2;stroke-linecap:round;stroke-linejoin:round;stroke-opacity:1" id="path6946-5" d="m 80.399,159.689 5.842,-4.136 5.615,3.126 -5.643,4.659 z" />
 <path style="fill:#5555aa;stroke:#5555aa;stroke-width:2;stroke-linecap:round;stroke-linejoin:round;stroke-opacity:1" id="path6948-02" d="m 66.641,151.507 -4.279,-5.750 3.976,-5.737 4.306,5.658 z" />
 <path style="fill:#5555aa;stroke:#5555aa;stroke-width:2;stroke-linecap:round;stroke-linejoin:round;stroke-opacity:1" id="path6942-8" d="m 50.828,160.367 -5.474,4.475 6.675,3.082 4.061,-4.416 z" />
 <path style="fill:#ffff55;stroke:#5555aa;stroke-width:1.999;stroke-linecap:round;stroke-linejoin:round;stroke-opacity:1" id="path6938-6" d="m 53.687,165.721 c -1.125,2.214 -2.668,4.573 -2.461,7.034 0.155,1.855 1.294,3.671 2.718,4.953 1.854,1.671 4.485,2.583 6.983,3.029 1.214,0.216 2.560,0.275 3.695,-0.209 2.252,-0.961 5.373,-5.011 5.373,-5.011 0,0 2.912,2.577 4.725,3.059 2.807,0.745 6.145,0.897 8.701,-0.483 1.787,-0.965 3.037,-2.958 3.618,-4.905 0.630,-2.113 0.292,-4.501 -0.367,-6.606 -0.409,-1.304 -1.193,-2.517 -2.153,-3.490 -1.420,-1.438 -5.120,-3.251 -5.120,-3.251 0,0 4.175,-2.927 5.416,-5.065 0.846,-1.457 1.337,-3.242 1.167,-4.918 -0.168,-1.658 -0.971,-3.283 -2.108,-4.534 -1.312,-1.444 -3.103,-2.808 -5.099,-3.059 -2.490,-0.312 -5.141,0.695 -7.202,2.114 -1.097,0.755 -1.710,2.054 -2.421,3.182 -0.935,1.483 -2.404,4.679 -2.404,4.679 0,0 -2.745,-3.520 -4.619,-4.640 -2.374,-1.419 -5.197,-2.728 -7.953,-2.371 -1.733,0.224 -3.445,1.279 -4.403,2.711 -1.173,1.754 -1.235,4.151 -1.012,6.250 0.211,1.986 0.945,4.012 2.182,5.581 1.208,1.531 4.803,3.342 4.803,3.342 -0.409,1.383 -1.326,1.438 -2.056,2.610 z" />
 <path style="fill:#ff5555;stroke:#5555aa;stroke-width:2;stroke-linecap:round;stroke-linejoin:round;stroke-opacity:1" id="path7332" d="m 66.486,156.198 c -3.014,0.396 -6.113,4.017 -5.799,7.042 0.319,3.077 4.178,6.182 7.249,5.799 3.178,-0.396 6.282,-4.496 5.799,-7.663 -0.447,-2.935 -4.305,-5.565 -7.249,-5.178 z" />
 <path style="fill:#000000;stroke:#5555aa;stroke-width:2;stroke-linecap:round;stroke-linejoin:round;stroke-opacity:1" id="path7334" d="m 57.580,154.541 4.142,3.521" />
 <path style="fill:#000000;stroke:#5555aa;stroke-width:2;stroke-linecap:round;stroke-linejoin:round;stroke-opacity:1" id="path7336" d="m 75.807,152.677 -4.142,5.178" />
 <path style="fill:#000000;stroke:#5555aa;stroke-width:2;stroke-linecap:round;stroke-linejoin:round;stroke-opacity:1" id="path7338" d="m 72.907,165.726 4.970,3.728" />
 <path style="fill:#000000;stroke:#5555aa;stroke-width:2;stroke-linecap:round;stroke-linejoin:round;stroke-opacity:1" id="path7340" d="m 64.208,168.004 -4.349,5.592" />
 <path style="fill:#000000;stroke:none" id="path7350" d="m 182.717,166.766 -2.475,13.174 13.059,1.215 1.167,-12.923 z m 5.376,4.116 3.187,3.180 -3.531,2.843 -3.093,-3.187 z" />
 <path style="fill:#000000;stroke:none" id="path7350-0" d="m 173.500,153.106 -3.811,12.146 12.957,2.654 2.502,-12.821 z m 4.348,3.294 3.187,3.180 -3.531,2.843 -3.093,-3.187 z" />
 <path style="fill:#000000;stroke:none" id="path7350-2" d="m 158.882,160.812 -5.141,11.948 13.073,4.406 3.733,-12.732 z m 4.705,5.111 2.302,3.869 -4.124,1.882 -2.209,-3.853 z" />
 <path style="fill:#000000;stroke:none" id="path7350-4" d="m 142.286,167.581 -4.705,10.753 11.891,5.534 5.102,-11.338 z m 5.734,4.861 1.933,4.066 -4.281,1.491 -1.842,-4.041 z" />
 <path style="fill:#000000;stroke:none" id="path7350-8" d="m 155.594,146.262 -5.127,4.224 -3.072,5.867 11.786,4.726 4.525,-10.409 z m 1.520,4.066 1.785,4.133 -4.332,1.336 -1.695,-4.105 z" />
 <path style="fill:#000000;stroke:none" id="path7350-2-6" d="m 166.708,176.525 -3.459,11.330 14.343,3.120 2.777,-11.640 z m 5.533,4.305 3.071,3.292 -3.630,2.715 -2.977,-3.296 z" />
 <path style="fill:#000000;stroke:none" id="path7350-2-6-5" d="m 195.884,156.086 -1.705,12.723 13.190,0.140 0.698,-12.745 z m 5.897,3.454 3.272,3.092 -3.452,2.938 -3.179,-3.102 z" />
 <path style="fill:#000000;stroke:none" id="path7350-2-6-5-0" d="m 192.967,180.480 -1.566,11.937 14.334,0.723 0.555,-12.243 z m 6.482,3.764 3.328,3.032 -3.398,3.001 -3.235,-3.043 z" />
 <path style="fill:#000000;stroke:none" id="path7350-2-6-5-9" d="m 206.834,168.633 -0.959,12.707 13.628,-0.391 -0.879,-12.254 z m 5.877,3.184 3.418,2.930 -3.306,3.102 -3.325,-2.944 z" />
 <path style="fill:#000000;stroke:none" id="path7350-2-6-5-9-0" d="m 217.977,156.200 0.713,12.786 12.563,-2.243 -1.534,-11.489 z m 5.995,3.249 3.679,2.595 -2.999,3.400 -3.588,-2.618 z" />
 <path style="fill:#000000;stroke:none" id="path7350-2-6-5-9-06" d="m 219.299,180.512 0.735,11.249 13.569,-2.218 -1.345,-11.346 z m 6.339,2.007 3.973,1.788 -2.553,3.162 -3.885,-1.816 z" />
 <path style="fill:#000000;stroke:none" id="path7350-2-6-5-9-06-1" d="m 246.390,175.147 2.687,12.174 14.083,-4.272 -4.632,-11.963 z m 7.161,1.288 3.973,1.788 -2.553,3.162 -3.885,-1.816 z" />
 <path style="fill:#000000;stroke:none" id="path7350-2-6-5-9-06-3" d="m 270.946,167.393 3.492,10.792 12.226,-4.535 -5.395,-10.237 z m 6.600,0.811 4.233,1.029 -1.930,3.577 -4.152,-1.073 z" />
 <path style="fill:#000000;stroke:none" id="path7350-2-6-5-9-06-8" d="m 254.910,160.226 3.422,11.089 12.725,-3.957 -4.605,-11.968 z m 5.780,0.791 4.237,1.016 -1.919,3.583 -4.156,-1.061 z" />
 <path style="fill:#000000;stroke:none" id="path7350-2-6-5-9-06-9" d="m 240.047,152.289 2.776,11.687 12.288,-3.989 -4.192,-11.665 z m 6.495,1.425 4.119,1.420 -2.256,3.381 -4.034,-1.457 z" />
 <path style="fill:#000000;stroke:none" id="path7350-2-6-5-9-06-34" d="m 230.980,166.518 1.454,11.763 14.186,-2.731 -3.400,-11.963 z m 6.339,2.521 3.973,1.788 -2.553,3.162 -3.885,-1.816 z" />
 <path style="fill:#000000;stroke:none" id="path7548" d="m 142.592,167.800 5.033,-11.711 -1.849,-0.719 -10.581,9.143 z" />
 <path style="fill:#000000;stroke:none" id="path7550" d="m 260.837,144.377 5.444,10.992 4.520,-1.849 -8.013,-10.170 z" />
 <path style="fill:none;stroke:#5555aa;stroke-width:2;stroke-linecap:round;stroke-linejoin:round;stroke-opacity:1" id="path7572" d="m 156.270,146.141 c 10.667,6.439 22.885,8.506 34.884,10.138 8.608,1.171 17.421,0.578 26.062,-0.323 8.569,-0.895 17.092,-2.579 25.353,-5.026 6.559,-1.942 12.862,-4.701 19.058,-7.616" />
 <path style="fill:none;stroke:#5555aa;stroke-width:2;stroke-linecap:round;stroke-linejoin:round;stroke-opacity:1" id="path7346" d="m 289.913,171.243 c -5.067,2.592 -9.984,5.504 -15.202,7.778 -3.793,1.652 -7.734,2.953 -11.667,4.242 -4.784,1.568 -9.606,3.040 -14.495,4.242 -4.668,1.147 -9.384,2.141 -14.142,2.828 -4.684,0.676 -9.735,1.362 -14.450,1.779 -4.595,0.407 -8.870,0.493 -13.480,0.695 -4.591,0.200 -9.198,0.228 -13.788,0 -4.731,-0.235 -9.456,-0.713 -14.142,-1.414 -4.754,-0.711 -9.486,-1.631 -14.142,-2.828 -4.548,-1.169 -9.008,-2.672 -13.435,-4.242 -4.537,-1.609 -9.038,-3.340 -13.435,-5.303 -3.609,-1.611 -7.071,-3.535 -10.606,-5.303" />
 <path style="font-style:normal;font-variant:normal;font-weight:normal;font-stretch:normal;font-size:medium;line-height:normal;font-family:Sans;-inkscape-font-specification:Sans;text-indent:0;text-align:start;text-decoration:none;text-decoration-line:none;letter-spacing:normal;word-spacing:normal;text-transform:none;direction:ltr;block-progression:tb;writing-mode:lr-tb;baseline-shift:baseline;text-anchor:start;fill:#000000;stroke-width:3;marker:none;" id="path7574" d="m 257.631,135.529 c 0,0 -12.747,5.860 -19.443,7.876 -6.879,2.071 -13.989,3.437 -21.125,4.281 -6.976,0.825 -14.055,1.251 -21.062,0.75 -7.316,-0.523 -14.575,-1.989 -21.656,-3.906 -4.217,-1.142 -12.312,-4.5 -12.312,-4.5 l -2.259,2.403 c 0,0 9.071,3.702 13.790,4.971 7.268,1.955 14.678,3.488 22.218,4.031 7.239,0.521 14.483,0.073 21.656,-0.781 7.304,-0.869 14.581,-2.282 21.625,-4.406 6.964,-2.100 20.228,-8.190 20.228,-8.190 z" />
 <path style="fill:none;stroke:#5555aa;stroke-width:2;stroke-linecap:round;stroke-linejoin:round;stroke-opacity:1" id="path6974" d="m 238.713,70.077 c 0,0 -0.904,14.712 0.286,21.922 1.142,6.916 3.788,13.535 6.5,20 3.489,8.317 7.673,16.379 12.5,24 3.246,5.125 7.012,9.927 11,14.5 5.422,6.217 10.707,12.818 17.5,17.5 4.361,3.005 9.582,4.532 14.5,6.5 4.708,1.883 14.345,5.068 14.345,5.068" />
 <path style="fill:#ffff58;stroke:#000000;stroke-width:2;stroke-linecap:round;stroke-linejoin:round;stroke-opacity:1" id="path7581" d="m 103.405,195.594 c 0,0 13.852,10.113 19.594,16.405 5.328,5.840 13.5,19.5 13.5,19.5 0,0 -14.792,12.238 -21,19.5 -7.178,8.397 -13.320,17.741 -18.5,27.5 -4.382,8.255 -8.005,16.992 -10.5,26 -1.711,6.179 -2.169,12.642 -3,19 C 82.870,328.318 82,338 82,338 l -52,-50 0,-25.5" />
 <path style="fill:#000000;stroke:#000000;stroke-width:2;stroke-linecap:round;stroke-linejoin:round;stroke-opacity:1" id="path7583" d="m 37,266 68,-62.5 c 0,0 8.805,7.601 12.579,12 C 121.152,219.664 127,229 127,229 c 0,0 -11.816,11.578 -17,18 -6.475,8.021 -12.447,16.513 -17.5,25.5 -3.582,6.372 -6.580,13.101 -9,20 -1.993,5.683 -3.551,11.551 -4.5,17.5 -0.814,5.112 -1,15.5 -1,15.5 L 37.5,285 Z" />
 <path style="fill:#ffff58;stroke:none" id="path7585" d="m 91.296,221.979 c -0.059,-1.627 1.149,-4.748 1.149,-4.748 0,0 2.866,1.492 4.078,2.539 1.260,1.089 3.228,3.813 3.228,3.813 0,0 1.293,-2.915 2.239,-4.183 1.064,-1.427 3.796,-3.758 3.796,-3.758 0,0 1.451,3.167 1.626,4.870 0.205,2.004 -0.709,6.003 -0.709,6.003 0,0 3.392,-1.645 5.224,-1.980 1.736,-0.317 5.295,0.002 5.295,0.002 0,0 -1.761,3.630 -3.033,5.172 -1.297,1.572 -4.590,4.040 -4.590,4.040 0,0 2.356,0.827 3.283,1.621 1.071,0.917 2.434,3.461 2.434,3.461 0,0 -2.593,1.547 -4.041,1.873 -1.268,0.285 -3.900,0.032 -3.900,0.032 0,0 0.836,2.795 0.849,4.235 0.013,1.578 -0.849,4.659 -0.849,4.659 0,0 -2.459,-1.168 -3.442,-2.080 -1.092,-1.012 -2.593,-3.637 -2.593,-3.637 0,0 -1.137,3.961 -2.220,5.683 -1.241,1.973 -4.768,5.117 -4.768,5.117 0,0 -0.707,-4.837 -0.690,-7.272 0.014,-2.011 0.654,-5.998 0.654,-5.998 0,0 -3.079,1.636 -4.746,2.101 -1.742,0.485 -5.383,0.685 -5.383,0.685 0,0 0.941,-3.861 1.990,-5.507 1.182,-1.856 4.680,-4.658 4.680,-4.658 0,0 -2.949,-0.719 -4.306,-1.374 -1.658,-0.799 -4.589,-3.073 -4.589,-3.073 0,0 3.268,-2.535 5.224,-2.951 1.896,-0.403 5.790,0.553 5.790,0.553 -1.404,-1.180 -1.614,-3.409 -1.681,-5.243 z" />
 <path style="font-style:normal;font-variant:normal;font-weight:normal;font-stretch:normal;font-size:medium;line-height:normal;font-family:Sans;-inkscape-font-specification:Sans;text-indent:0;text-align:start;text-decoration:none;text-decoration-line:none;letter-spacing:normal;word-spacing:normal;text-transform:none;direction:ltr;block-progression:tb;writing-mode:lr-tb;baseline-shift:baseline;text-anchor:start;fill:#000000;stroke-width:2;marker:none;" id="path7587" d="m 99.031,226.718 c -1.567,0.125 -3.070,1.149 -4.093,2.343 -1.023,1.194 -1.744,2.834 -1.687,4.406 0.065,1.816 1.033,3.645 2.312,4.937 1.268,1.281 3.071,2.352 4.875,2.343 1.718,-0.009 3.444,-1.031 4.625,-2.281 1.189,-1.258 2.121,-3.051 2.031,-4.781 -0.098,-1.890 -1.317,-3.730 -2.75,-4.968 -1.431,-1.237 -3.426,-2.151 -5.312,-2 z m 0.156,2 c 1.384,-0.112 2.825,0.621 3.875,1.531 1.032,0.895 1.964,2.197 2.031,3.562 0.058,1.196 -0.644,2.411 -1.468,3.281 -0.829,0.876 -2.012,1.655 -3.218,1.656 -1.276,4e-4 -2.513,-0.837 -3.406,-1.75 -0.931,-0.952 -1.700,-2.262 -1.75,-3.593 -0.040,-1.097 0.506,-2.226 1.218,-3.062 0.684,-0.803 1.666,-1.539 2.718,-1.625 z" />
 <path style="fill:#ffff58;stroke:none" id="path7589" d="m 57.183,268.378 0,-8.577 c 0,0 6.302,-0.700 8.259,-2.859 1.828,-2.016 1.906,-7.942 1.906,-7.942 l 12.072,0 z" />
 <path style="fill:#ffff58;stroke:none" id="path7591" d="m 71.904,262.266 c -1.273,1.289 -0.719,4.196 0.635,5.400 1.345,1.196 4.127,1.272 5.400,0 1.123,-1.123 1.062,-3.584 0,-4.765 -1.353,-1.503 -4.614,-2.074 -6.036,-0.635 z" />
 <path style="fill:#ffff58;stroke:none" id="path7593" d="m 90.858,259.801 -16.837,20.967 9.212,-1.906 c 0,0 -0.241,-5.351 1.270,-7.306 1.565,-2.024 6.989,-3.176 6.989,-3.176 z" />
 <path style="fill:#ffff58;stroke:none" id="path7595" d="m 41.616,285.851 c 3.375,0.698 6.877,0.770 9.530,5.082 0.390,-7.234 4.253,-10.995 7.942,-14.931 2.067,5.188 3.168,10.377 0,15.566 5.736,-5.013 10.539,-2.564 15.566,-1.906 -2.356,4.606 -5.393,8.758 -11.118,11.119 3.926,3.225 5.419,7.667 6.353,12.389 -1.906,-0.445 -3.812,-0.695 -5.718,-2.223 L 44.158,290.934 c -1.121,-1.694 -1.774,-3.388 -2.541,-5.082 z" />
 <path style="font-style:normal;font-variant:normal;font-weight:normal;font-stretch:normal;font-size:medium;line-height:normal;font-family:Sans;-inkscape-font-specification:Sans;text-indent:0;text-align:start;text-decoration:none;text-decoration-line:none;letter-spacing:normal;word-spacing:normal;text-transform:none;direction:ltr;block-progression:tb;writing-mode:lr-tb;baseline-shift:baseline;text-anchor:start;fill:#000000;stroke-width:2;marker:none;" id="path7597" d="m 55.437,292.5 c -1.331,-0.397 -2.859,0.144 -4.093,0.781 -1.204,0.621 -2.332,1.620 -2.937,2.812 l 1.599,1.087 c 0.345,-0.681 1.354,-1.642 2.275,-2.118 0.859,-0.445 1.918,-0.878 2.843,-0.593 1.534,0.473 2.742,1.979 3.343,3.468 0.576,1.429 0.164,3.092 0,4.625 -0.109,1.027 -0.656,3.031 -0.656,3.031 l 1.911,1.411 c 0,0 0.605,-2.737 0.713,-4.130 0.144,-1.869 0.652,-3.904 -0.093,-5.625 -0.905,-2.088 -2.725,-4.098 -4.906,-4.75 z" />
 <path style="fill:none;stroke:#000000;stroke-width:2;stroke-linecap:round;stroke-linejoin:round;stroke-opacity:1" id="path7599" d="m 137.240,232.480 c 0,0 7.784,15.014 9.848,23.138 1.600,6.297 2.029,12.909 1.853,19.404 -0.239,8.799 -1.341,17.700 -3.935,26.112 -2.609,8.463 -6.598,16.580 -11.524,23.941 -4.867,7.272 -17.525,19.546 -17.525,19.546" />
 <path style="fill:none;stroke:#000000;stroke-width:2;stroke-linecap:round;stroke-linejoin:round;stroke-opacity:1" id="path7601" d="m 133.745,235.339 c 0,0 6.076,12.395 7.624,19.061 1.897,8.172 2.341,16.718 1.906,25.097 -0.380,7.320 -1.715,14.648 -3.926,21.637 -2.218,7.014 -5.361,13.795 -9.265,20.031 -4.125,6.589 -9.138,12.688 -14.763,18.055 -2.957,2.821 -9.848,7.306 -9.848,7.306" />
 <path style="fill:none;stroke:#000000;stroke-width:2;stroke-linecap:round;stroke-linejoin:round;stroke-opacity:1" id="path7603" d="m 129.933,238.834 c 0,0 4.707,11.455 6.036,17.472 1.469,6.655 2.334,13.529 2.082,20.340 -0.288,7.807 -1.792,15.613 -4.103,23.076 -2.177,7.031 -5.056,13.968 -9.098,20.119 -4.321,6.578 -10.001,12.243 -15.884,17.472 -4.766,4.236 -15.566,11.119 -15.566,11.119" />
 <path style="fill:none;stroke:#000000;stroke-width:2;stroke-linecap:round;stroke-linejoin:round;stroke-opacity:1" id="path7605" d="m 126.174,241.225 c 0,0 3.607,9.073 4.712,13.810 1.287,5.517 2.072,11.190 2.197,16.854 0.148,6.735 -0.162,13.585 -1.729,20.137 -1.741,7.281 -4.600,14.380 -8.409,20.826 -3.752,6.350 -8.562,12.146 -13.978,17.155 -6.146,5.683 -20.649,14.295 -20.649,14.295" />
 <path style="fill:#000000;stroke:#5555aa;stroke-width:2;stroke-linecap:round;stroke-linejoin:round;stroke-opacity:1" id="path7018" d="M 171.288,131.100 155.798,145.362 125.895,172.979 90.850,206.119 60.947,234.879 30,263.258" />
 <path style="fill:#ff5555;stroke:none" id="path7621" d="m 142.128,206.245 17.324,4.596 -7.024,21.382 -17.293,-4.242 z" />
 <path style="fill:#ffff55;stroke:none" id="path7623" d="m 180.773,199.850 c -2.213,0.676 -4.427,1.352 -6.640,2.029 1.291,1.168 2.582,2.336 3.873,3.504 -1.783,0.799 -3.566,1.598 -5.349,2.398 1.168,1.291 2.336,2.582 3.504,3.873 -2.152,0.860 -4.304,1.721 -6.456,2.582 1.106,1.414 2.213,2.828 3.320,4.242 -2.152,0.676 -4.304,1.352 -6.456,2.029 1.352,1.475 2.705,2.951 4.058,4.427 -1.967,0.676 -3.935,1.352 -5.902,2.029 0.860,1.537 1.721,3.074 2.582,4.611 -1.475,1.106 -3.146,2.213 -4.622,3.320 7.132,1.168 14.460,2.336 21.592,3.504 -0.860,-1.598 -1.721,-3.197 -2.582,-4.796 1.414,-0.737 2.828,-1.475 4.242,-2.213 -0.799,-1.844 -1.598,-3.689 -2.398,-5.533 2.090,-0.799 4.181,-1.598 6.271,-2.398 -0.922,-1.967 -1.844,-3.935 -2.766,-5.902 1.967,-0.368 3.935,-0.737 5.902,-1.106 -1.291,-1.660 -2.582,-3.320 -3.873,-4.980 1.967,-0.491 3.935,-0.983 5.902,-1.475 -1.045,-1.414 -2.090,-2.828 -3.135,-4.242 1.967,-0.799 3.935,-1.598 5.902,-2.398 -1.636,-0.789 -3.245,-1.679 -4.899,-2.407 -4.023,-0.365 -8.047,-0.731 -12.071,-1.097 z" />
 <path style="fill:none;stroke:#000000;stroke-width:2;stroke-linecap:round;stroke-linejoin:round;stroke-opacity:1" id="path7625" d="m 182.422,200.036 c -2.370,5.564 -5.333,11.432 -7.696,17.277 -2.557,6.326 -4.865,13.409 -7.005,19.237" />
 <path style="fill:none;stroke:#000000;stroke-width:2;stroke-linecap:round;stroke-linejoin:round;stroke-opacity:1" id="path7627" d="m 191.616,201.115 c -2.798,6.057 -5.394,12.145 -7.704,18.371 -2.154,5.808 -4.049,11.720 -5.728,17.680" />
 <path style="font-style:normal;font-variant:normal;font-weight:normal;font-stretch:normal;font-size:medium;line-height:normal;font-family:Sans;-inkscape-font-specification:Sans;text-indent:0;text-align:start;text-decoration:none;text-decoration-line:none;letter-spacing:normal;word-spacing:normal;text-transform:none;direction:ltr;block-progression:tb;writing-mode:lr-tb;baseline-shift:baseline;text-anchor:start;fill:#000000;stroke-width:2;marker:none;" id="path7629" d="m 186.074,200.865 c -0.753,0.103 -1.540,1.102 -1.350,1.839 0.189,0.734 1.356,1.225 2.064,0.953 0.566,-0.217 0.865,-1.086 0.714,-1.673 -0.150,-0.585 -0.829,-1.201 -1.428,-1.118 z" />
 <path style="font-style:normal;font-variant:normal;font-weight:normal;font-stretch:normal;font-size:medium;line-height:normal;font-family:Sans;-inkscape-font-specification:Sans;text-indent:0;text-align:start;text-decoration:none;text-decoration-line:none;letter-spacing:normal;word-spacing:normal;text-transform:none;direction:ltr;block-progression:tb;writing-mode:lr-tb;baseline-shift:baseline;text-anchor:start;fill:#000000;stroke-width:2;marker:none;" id="path7631" d="m 183.417,207.248 c -0.755,0.104 -1.550,1.098 -1.363,1.838 0.188,0.745 1.373,1.252 2.090,0.974 0.572,-0.221 0.866,-1.106 0.709,-1.700 -0.154,-0.585 -0.836,-1.194 -1.436,-1.112 z" />
 <path style="font-style:normal;font-variant:normal;font-weight:normal;font-stretch:normal;font-size:medium;line-height:normal;font-family:Sans;-inkscape-font-specification:Sans;text-indent:0;text-align:start;text-decoration:none;text-decoration-line:none;letter-spacing:normal;word-spacing:normal;text-transform:none;direction:ltr;block-progression:tb;writing-mode:lr-tb;baseline-shift:baseline;text-anchor:start;fill:#000000;stroke-width:2;marker:none;" id="path7633" d="m 180.467,213.797 c -0.768,0.123 -1.561,1.174 -1.331,1.918 0.228,0.739 1.467,1.153 2.170,0.828 0.536,-0.248 0.760,-1.105 0.590,-1.670 -0.172,-0.571 -0.841,-1.170 -1.429,-1.075 z" />
 <path style="font-style:normal;font-variant:normal;font-weight:normal;font-stretch:normal;font-size:medium;line-height:normal;font-family:Sans;-inkscape-font-specification:Sans;text-indent:0;text-align:start;text-decoration:none;text-decoration-line:none;letter-spacing:normal;word-spacing:normal;text-transform:none;direction:ltr;block-progression:tb;writing-mode:lr-tb;baseline-shift:baseline;text-anchor:start;fill:#000000;stroke-width:2;marker:none;" id="path7635" d="m 178.180,220.304 c -0.758,0.096 -1.555,1.092 -1.374,1.835 0.181,0.744 1.350,1.265 2.069,1.000 0.576,-0.212 0.887,-1.091 0.740,-1.688 -0.146,-0.594 -0.827,-1.225 -1.435,-1.147 z" />
 <path style="font-style:normal;font-variant:normal;font-weight:normal;font-stretch:normal;font-size:medium;line-height:normal;font-family:Sans;-inkscape-font-specification:Sans;text-indent:0;text-align:start;text-decoration:none;text-decoration-line:none;letter-spacing:normal;word-spacing:normal;text-transform:none;direction:ltr;block-progression:tb;writing-mode:lr-tb;baseline-shift:baseline;text-anchor:start;fill:#000000;stroke-width:2;marker:none;" id="path7637" d="m 175.868,226.740 c -0.785,0.139 -1.619,1.224 -1.351,1.976 0.270,0.756 1.613,1.074 2.312,0.678 0.497,-0.281 0.626,-1.122 0.431,-1.660 -0.194,-0.536 -0.831,-1.093 -1.393,-0.994 z" />
 <path style="font-style:normal;font-variant:normal;font-weight:normal;font-stretch:normal;font-size:medium;line-height:normal;font-family:Sans;-inkscape-font-specification:Sans;text-indent:0;text-align:start;text-decoration:none;text-decoration-line:none;letter-spacing:normal;word-spacing:normal;text-transform:none;direction:ltr;block-progression:tb;writing-mode:lr-tb;baseline-shift:baseline;text-anchor:start;fill:#000000;stroke-width:2;marker:none;" id="path7639" d="m 173.483,233.188 c -0.768,0.120 -1.570,1.166 -1.342,1.910 0.227,0.742 1.472,1.157 2.176,0.830 0.535,-0.248 0.754,-1.106 0.583,-1.671 -0.171,-0.566 -0.832,-1.161 -1.416,-1.069 z" />
 <path style="fill:#ff5555;stroke:none" id="path7621-6" d="m 205.407,216.416 19.858,0.306 -9.754,24.111 -19.048,-1.513 z" />
 </g>
 <path style="fill:#ff5555;stroke:none" id="path8257" d="m 147.573,253.699 c 0,0 1.787,9.174 2.141,13.823 0.277,3.639 -0.017,10.949 -0.017,10.949 0,0 10.790,0.652 16.173,1.127 5.266,0.464 10.526,1.011 15.769,1.685 4.760,0.612 9.501,1.372 14.239,2.141 5.555,0.901 16.633,2.897 16.633,2.897 0,0 -1.766,-8.082 -2.150,-12.191 -0.402,-4.315 -0.150,-13.001 -0.150,-13.001 0,0 -10.745,-0.300 -16.102,-0.707 -4.910,-0.373 -9.805,-0.944 -14.686,-1.592 -5.582,-0.741 -11.130,-1.730 -16.690,-2.627 -5.056,-0.815 -15.160,-2.504 -15.160,-2.504 z" />
 <path style="fill:#000000;stroke:none" id="path8259" d="M 265.626,190.673 280.498,184.448 330,234 l 0,17 z" />
 <path style="fill:#5555aa;stroke:none" id="path8261" d="m 280.498,184.448 19.022,-9.338 14.872,4.150 L 330,201.049 l 0,33.203 z" />
 <path style="fill:#000000;stroke:none" id="path8259-3" d="M 94.373,349.281 79.501,355.506 30,305.954 l 0,-17 z" />
 <path style="fill:#5555aa;stroke:none" id="path8261-8" d="M 79.501,355.506 60.478,364.845 45.606,360.694 30,338.905 30,305.701 Z" />
 <use height="100%" width="100%" transform="matrix(-1,0,0,-1,360,540.000)" id="use4467" xlink:href="#queen" y="0" x="0" />
 </g>

<g transform="translate(26,-21)"><use transform="matrix(2.1,0,0,2.1,-16.13,-55.46)" xlink:href="#fig"/></g>
<g transform="translate(112,163)"><use transform="matrix(2.1,0,0,-2.1,-16.13,156.25)" xlink:href="#fig"/></g>

</svg>
