<?xml version="1.0" encoding="UTF-8" standalone="no"?>
<svg xmlns:xlink="http://www.w3.org/1999/xlink" xmlns:dc="http://purl.org/dc/elements/1.1/" xmlns:cc="http://creativecommons.org/ns#" xmlns:rdf="http://www.w3.org/1999/02/22-rdf-syntax-ns#" xmlns:svg="http://www.w3.org/2000/svg" xmlns="http://www.w3.org/2000/svg" version="1.1" width="100%" height="100%" viewBox="0 0 160 120" id="jigsaw">
 <defs>
 <style>
    svg#jigsaw #background 		{ opacity:0.2; }
    svg#jigsaw text        		{ cursor:move; font-size:28px;text-anchor:middle;fill:white; }
    svg#jigsaw .result     		{ stroke:black; stroke-width:0.5; fill-opacity:0;cursor:move }
    svg#jigsaw .good .result   	{ fill-opacity:0.3; fill:#0F0; }
    svg#jigsaw .wrong .result  	{ fill-opacity:0.3; fill:#F00; }
    svg#jigsaw .shadow          { opacity:0.4; display:none; }
    svg#jigsaw .drag .shadow    { display:inline; }
    svg#jigsaw .grid			{ stroke:white; stroke-width:0.3; opacity:0.4;fill:none; }
 </style>
 
<clipPath clipPathUnits="userSpaceOnUse" id="c00"><path d="m -19,-23.849 c -2.680,0 -4.849,2.169 -4.849,4.849 v 42.828 c 4.758,-0.393 10.682,-1.655 14.939,-1.777 2.151,-0.061 3.884,0.155 4.841,0.996 0.478,0.420 0.748,1.002 0.748,1.742 2e-5,0.739 -0.257,1.635 -0.804,2.728 -1.062,2.124 -0.792,3.658 0.113,4.693 0.905,1.034 2.485,1.568 4.072,1.568 1.586,0 3.166,-0.533 4.072,-1.568 0.905,-1.034 1.175,-2.569 0.113,-4.693 -0.544,-1.092 -0.802,-1.979 -0.804,-2.705 -0.002,-0.725 0.265,-1.292 0.740,-1.691 0.949,-0.797 2.664,-0.961 4.798,-0.865 4.230,0.190 10.132,1.455 14.886,1.580 0.363,-4.790 1.516,-10.708 1.531,-14.990 C 25.405,6.683 25.109,4.948 24.328,4.009 23.937,3.540 23.434,3.259 22.753,3.195 22.073,3.131 21.213,3.293 20.148,3.738 17.949,4.657 16.247,4.245 15.126,3.173 14.006,2.101 13.460,0.401 13.460,-1.251 c 0,-1.653 0.544,-3.273 1.675,-4.169 1.131,-0.896 2.837,-1.024 5.029,0.251 1.068,0.622 1.934,0.937 2.617,1.003 0.682,0.065 1.177,-0.106 1.560,-0.472 0.766,-0.732 1.066,-2.324 1.060,-4.394 -0.012,-4.103 -1.166,-10.023 -1.539,-14.816 z" /></clipPath>
<clipPath clipPathUnits="userSpaceOnUse" id="c10"><path d="m -23.830,-23.849 c 0.372,4.759 1.522,10.661 1.535,14.814 0.006,2.098 -0.264,3.762 -1.154,4.613 -0.444,0.425 -1.047,0.627 -1.796,0.554 -0.748,-0.072 -1.648,-0.407 -2.740,-1.042 -2.127,-1.238 -3.662,-1.093 -4.691,-0.277 -1.028,0.815 -1.562,2.348 -1.562,3.935 0,1.586 0.534,3.213 1.574,4.208 1.039,0.995 2.576,1.389 4.697,0.503 1.094,-0.457 1.999,-0.635 2.75,-0.564 0.750,0.070 1.343,0.398 1.779,0.921 0.871,1.047 1.144,2.840 1.136,5.029 -0.014,4.329 -1.164,10.234 -1.527,14.992 4.742,0.077 10.370,-0.986 14.458,-1.035 2.066,-0.024 3.748,0.203 4.734,1.035 0.492,0.415 0.800,0.988 0.869,1.722 0.068,0.734 -0.092,1.627 -0.511,2.720 -0.814,2.119 -0.368,3.659 0.664,4.701 1.032,1.041 2.678,1.576 4.265,1.576 1.586,0 3.097,-0.534 3.876,-1.560 C 5.306,31.973 5.402,30.437 4.091,28.308 3.418,27.216 3.066,26.307 2.996,25.541 2.925,24.774 3.147,24.148 3.603,23.679 c 0.911,-0.937 2.684,-1.275 4.904,-1.326 4.392,-0.100 10.570,0.977 15.341,1.478 V -19 c 0,-2.680 -2.169,-4.849 -4.849,-4.849 z" /></clipPath>
<clipPath clipPathUnits="userSpaceOnUse" id="c01"><path d="m -8.902,-25.650 c -4.211,0.120 -10.152,1.389 -14.947,1.783 V 19 c 0,2.680 2.169,4.849 4.849,4.849 H 23.847 C 24.190,19.097 23.335,13.084 23.437,8.843 c 0.051,-2.139 0.333,-3.837 1.218,-4.710 0.442,-0.436 1.043,-0.646 1.789,-0.574 0.745,0.072 1.639,0.413 2.730,1.062 2.128,1.266 3.663,1.137 4.691,0.335 1.027,-0.801 1.562,-2.325 1.562,-3.912 0,-1.586 -0.533,-3.221 -1.574,-4.230 C 32.814,-4.194 31.276,-4.608 29.156,-3.75 c -1.094,0.443 -2.018,0.612 -2.798,0.542 -0.780,-0.069 -1.414,-0.385 -1.906,-0.894 -0.983,-1.018 -1.410,-2.774 -1.552,-4.921 -0.281,-4.253 0.581,-10.076 0.937,-14.841 -4.797,-0.128 -10.693,-1.389 -14.869,-1.578 -2.109,-0.095 -3.768,0.102 -4.593,0.794 -0.412,0.346 -0.632,0.806 -0.630,1.460 0.001,0.654 0.238,1.502 0.771,2.570 1.097,2.195 0.828,3.900 -0.156,5.025 -0.984,1.125 -2.643,1.671 -4.296,1.671 -1.653,0 -3.314,-0.546 -4.298,-1.671 -0.984,-1.125 -1.254,-2.829 -0.156,-5.025 0.534,-1.067 0.773,-1.924 0.773,-2.593 -1.8e-5,-0.669 -0.225,-1.149 -0.644,-1.517 -0.837,-0.735 -2.511,-0.982 -4.636,-0.921 z" /></clipPath>
<clipPath clipPathUnits="userSpaceOnUse" id="c11"><path d="m 8.515,-25.345 c -2.191,0.050 -3.897,0.414 -4.695,1.234 -0.398,0.410 -0.589,0.928 -0.525,1.625 0.064,0.696 0.393,1.568 1.052,2.636 1.349,2.190 1.280,3.897 0.419,5.031 -0.860,1.133 -2.463,1.677 -4.117,1.677 -1.653,0 -3.370,-0.545 -4.478,-1.664 -1.107,-1.118 -1.578,-2.818 -0.732,-5.019 0.408,-1.066 0.556,-1.918 0.494,-2.585 -0.062,-0.667 -0.326,-1.152 -0.763,-1.521 -0.875,-0.738 -2.495,-0.989 -4.537,-0.964 -4.045,0.048 -9.697,1.121 -14.494,1.039 -0.356,4.786 -1.219,10.615 -0.941,14.814 0.140,2.117 0.578,3.808 1.470,4.732 0.446,0.462 1.001,0.742 1.716,0.806 0.715,0.063 1.593,-0.093 2.658,-0.525 2.199,-0.891 3.902,-0.458 5.021,0.626 1.119,1.085 1.666,2.793 1.666,4.447 0,1.653 -0.545,3.267 -1.677,4.150 -1.132,0.883 -2.837,0.987 -5.029,-0.316 -1.068,-0.635 -1.930,-0.956 -2.607,-1.021 -0.677,-0.065 -1.166,0.111 -1.548,0.488 -0.765,0.754 -1.077,2.390 -1.128,4.505 -0.100,4.186 0.752,10.194 0.410,14.998 H 19 c 2.680,0 4.849,-2.169 4.849,-4.849 v -42.867 c -4.792,-0.501 -10.988,-1.578 -15.333,-1.478 z" /></clipPath>

 </defs>
 <rect y="5" x="10" height="96" width="96" style="fill:none;stroke:#ffffff;stroke-width:4" ry="5" />
 <g style="opacity:0.9" transform="translate(10,5)">
    <rect y="0" x="0" height="96" width="96" style="fill:#1a1a1a;stroke-width:1;stroke-linecap:butt;marker:none;" ry="5" />
    <image id="background" xlink:href="" width="96" height="96" x="0" y="0"/>
    <path class="grid" d="m 0,48 c 9.6,-0.76 24.07,-5.19 19.74,3.45 -4.32,8.64 12.96,8.64 8.64,0 C 24.07,42.81 38.4,47.79 48,48 c 9.6,0.21 22.89,-4.41 19.58,4.23 -3.32,8.64 13.96,8.64 8.64,0 C 70.89,43.59 86.4,47.01 96,48 M 48,0 c 0.72,9.6 4.73,23.99 -3.91,18.96 -8.64,-5.03 -8.64,12.25 0,8.64 8.64,-3.61 4.61,10.8 3.91,20.4 -0.7,9.6 -3.54,23.61 5.1,20.11 8.64,-3.5 8.64,13.78 0,8.64 C 44.46,71.61 48.74,86.4 48,96 M 5,0 h 86 a 5,5 0 0 1 5,5 v 86 a 5,5 0 0 1 -5,5 H 5 A 5,5 0 0 1 0,91 V 5 A 5,5 0 0 1 5,0" /> 
 </g>
 
 
 <g id="pieces">
 
<g id="p00" transform="translate(34,29)"><g class="scale">
  <g transform="translate(0.5,1)"><g class="rot" transform="rotate(0)">
    <path class="shadow" d="m -19,-23.849 c -2.680,0 -4.849,2.169 -4.849,4.849 v 42.828 c 4.758,-0.393 10.682,-1.655 14.939,-1.777 2.151,-0.061 3.884,0.155 4.841,0.996 0.478,0.420 0.748,1.002 0.748,1.742 2e-5,0.739 -0.257,1.635 -0.804,2.728 -1.062,2.124 -0.792,3.658 0.113,4.693 0.905,1.034 2.485,1.568 4.072,1.568 1.586,0 3.166,-0.533 4.072,-1.568 0.905,-1.034 1.175,-2.569 0.113,-4.693 -0.544,-1.092 -0.802,-1.979 -0.804,-2.705 -0.002,-0.725 0.265,-1.292 0.740,-1.691 0.949,-0.797 2.664,-0.961 4.798,-0.865 4.230,0.190 10.132,1.455 14.886,1.580 0.363,-4.790 1.516,-10.708 1.531,-14.990 C 25.405,6.683 25.109,4.948 24.328,4.009 23.937,3.540 23.434,3.259 22.753,3.195 22.073,3.131 21.213,3.293 20.148,3.738 17.949,4.657 16.247,4.245 15.126,3.173 14.006,2.101 13.460,0.401 13.460,-1.251 c 0,-1.653 0.544,-3.273 1.675,-4.169 1.131,-0.896 2.837,-1.024 5.029,0.251 1.068,0.622 1.934,0.937 2.617,1.003 0.682,0.065 1.177,-0.106 1.560,-0.472 0.766,-0.732 1.066,-2.324 1.060,-4.394 -0.012,-4.103 -1.166,-10.023 -1.539,-14.816 z"/>
  </g></g>
  <g class="rot" transform="rotate(0)" clip-path="url(#c00)">
    <image id="ip00" xlink:href="" width="72" height="72" x="-36" y="-36"/><text id="tp00" y="10"></text>
    <path class="result" d="m -19,-23.849 c -2.680,0 -4.849,2.169 -4.849,4.849 v 42.828 c 4.758,-0.393 10.682,-1.655 14.939,-1.777 2.151,-0.061 3.884,0.155 4.841,0.996 0.478,0.420 0.748,1.002 0.748,1.742 2e-5,0.739 -0.257,1.635 -0.804,2.728 -1.062,2.124 -0.792,3.658 0.113,4.693 0.905,1.034 2.485,1.568 4.072,1.568 1.586,0 3.166,-0.533 4.072,-1.568 0.905,-1.034 1.175,-2.569 0.113,-4.693 -0.544,-1.092 -0.802,-1.979 -0.804,-2.705 -0.002,-0.725 0.265,-1.292 0.740,-1.691 0.949,-0.797 2.664,-0.961 4.798,-0.865 4.230,0.190 10.132,1.455 14.886,1.580 0.363,-4.790 1.516,-10.708 1.531,-14.990 C 25.405,6.683 25.109,4.948 24.328,4.009 23.937,3.540 23.434,3.259 22.753,3.195 22.073,3.131 21.213,3.293 20.148,3.738 17.949,4.657 16.247,4.245 15.126,3.173 14.006,2.101 13.460,0.401 13.460,-1.251 c 0,-1.653 0.544,-3.273 1.675,-4.169 1.131,-0.896 2.837,-1.024 5.029,0.251 1.068,0.622 1.934,0.937 2.617,1.003 0.682,0.065 1.177,-0.106 1.560,-0.472 0.766,-0.732 1.066,-2.324 1.060,-4.394 -0.012,-4.103 -1.166,-10.023 -1.539,-14.816 z"/>
  </g>
</g></g>
 
<g id="p10" transform="translate(82,29)"><g class="scale">
  <g transform="translate(0.5,1)"><g class="rot" transform="rotate(0)">
    <path class="shadow" d="m -23.830,-23.849 c 0.372,4.759 1.522,10.661 1.535,14.814 0.006,2.098 -0.264,3.762 -1.154,4.613 -0.444,0.425 -1.047,0.627 -1.796,0.554 -0.748,-0.072 -1.648,-0.407 -2.740,-1.042 -2.127,-1.238 -3.662,-1.093 -4.691,-0.277 -1.028,0.815 -1.562,2.348 -1.562,3.935 0,1.586 0.534,3.213 1.574,4.208 1.039,0.995 2.576,1.389 4.697,0.503 1.094,-0.457 1.999,-0.635 2.75,-0.564 0.750,0.070 1.343,0.398 1.779,0.921 0.871,1.047 1.144,2.840 1.136,5.029 -0.014,4.329 -1.164,10.234 -1.527,14.992 4.742,0.077 10.370,-0.986 14.458,-1.035 2.066,-0.024 3.748,0.203 4.734,1.035 0.492,0.415 0.800,0.988 0.869,1.722 0.068,0.734 -0.092,1.627 -0.511,2.720 -0.814,2.119 -0.368,3.659 0.664,4.701 1.032,1.041 2.678,1.576 4.265,1.576 1.586,0 3.097,-0.534 3.876,-1.560 C 5.306,31.973 5.402,30.437 4.091,28.308 3.418,27.216 3.066,26.307 2.996,25.541 2.925,24.774 3.147,24.148 3.603,23.679 c 0.911,-0.937 2.684,-1.275 4.904,-1.326 4.392,-0.100 10.570,0.977 15.341,1.478 V -19 c 0,-2.680 -2.169,-4.849 -4.849,-4.849 z"/>
  </g></g>
  <g class="rot" transform="rotate(0)" clip-path="url(#c10)">
    <image id="ip10" xlink:href="" width="72" height="72" x="-36" y="-36"/><text id="tp10" y="10"></text>
    <path class="result" d="m -23.830,-23.849 c 0.372,4.759 1.522,10.661 1.535,14.814 0.006,2.098 -0.264,3.762 -1.154,4.613 -0.444,0.425 -1.047,0.627 -1.796,0.554 -0.748,-0.072 -1.648,-0.407 -2.740,-1.042 -2.127,-1.238 -3.662,-1.093 -4.691,-0.277 -1.028,0.815 -1.562,2.348 -1.562,3.935 0,1.586 0.534,3.213 1.574,4.208 1.039,0.995 2.576,1.389 4.697,0.503 1.094,-0.457 1.999,-0.635 2.75,-0.564 0.750,0.070 1.343,0.398 1.779,0.921 0.871,1.047 1.144,2.840 1.136,5.029 -0.014,4.329 -1.164,10.234 -1.527,14.992 4.742,0.077 10.370,-0.986 14.458,-1.035 2.066,-0.024 3.748,0.203 4.734,1.035 0.492,0.415 0.800,0.988 0.869,1.722 0.068,0.734 -0.092,1.627 -0.511,2.720 -0.814,2.119 -0.368,3.659 0.664,4.701 1.032,1.041 2.678,1.576 4.265,1.576 1.586,0 3.097,-0.534 3.876,-1.560 C 5.306,31.973 5.402,30.437 4.091,28.308 3.418,27.216 3.066,26.307 2.996,25.541 2.925,24.774 3.147,24.148 3.603,23.679 c 0.911,-0.937 2.684,-1.275 4.904,-1.326 4.392,-0.100 10.570,0.977 15.341,1.478 V -19 c 0,-2.680 -2.169,-4.849 -4.849,-4.849 z"/>
  </g>
</g></g>
 
<g id="p01" transform="translate(34,77)"><g class="scale">
  <g transform="translate(0.5,1)"><g class="rot" transform="rotate(0)">
    <path class="shadow" d="m -8.902,-25.650 c -4.211,0.120 -10.152,1.389 -14.947,1.783 V 19 c 0,2.680 2.169,4.849 4.849,4.849 H 23.847 C 24.190,19.097 23.335,13.084 23.437,8.843 c 0.051,-2.139 0.333,-3.837 1.218,-4.710 0.442,-0.436 1.043,-0.646 1.789,-0.574 0.745,0.072 1.639,0.413 2.730,1.062 2.128,1.266 3.663,1.137 4.691,0.335 1.027,-0.801 1.562,-2.325 1.562,-3.912 0,-1.586 -0.533,-3.221 -1.574,-4.230 C 32.814,-4.194 31.276,-4.608 29.156,-3.75 c -1.094,0.443 -2.018,0.612 -2.798,0.542 -0.780,-0.069 -1.414,-0.385 -1.906,-0.894 -0.983,-1.018 -1.410,-2.774 -1.552,-4.921 -0.281,-4.253 0.581,-10.076 0.937,-14.841 -4.797,-0.128 -10.693,-1.389 -14.869,-1.578 -2.109,-0.095 -3.768,0.102 -4.593,0.794 -0.412,0.346 -0.632,0.806 -0.630,1.460 0.001,0.654 0.238,1.502 0.771,2.570 1.097,2.195 0.828,3.900 -0.156,5.025 -0.984,1.125 -2.643,1.671 -4.296,1.671 -1.653,0 -3.314,-0.546 -4.298,-1.671 -0.984,-1.125 -1.254,-2.829 -0.156,-5.025 0.534,-1.067 0.773,-1.924 0.773,-2.593 -1.8e-5,-0.669 -0.225,-1.149 -0.644,-1.517 -0.837,-0.735 -2.511,-0.982 -4.636,-0.921 z"/>
  </g></g>
  <g class="rot" transform="rotate(0)" clip-path="url(#c01)">
    <image id="ip01" xlink:href="" width="72" height="72" x="-36" y="-36"/><text id="tp01" y="10"></text>
    <path class="result" d="m -8.902,-25.650 c -4.211,0.120 -10.152,1.389 -14.947,1.783 V 19 c 0,2.680 2.169,4.849 4.849,4.849 H 23.847 C 24.190,19.097 23.335,13.084 23.437,8.843 c 0.051,-2.139 0.333,-3.837 1.218,-4.710 0.442,-0.436 1.043,-0.646 1.789,-0.574 0.745,0.072 1.639,0.413 2.730,1.062 2.128,1.266 3.663,1.137 4.691,0.335 1.027,-0.801 1.562,-2.325 1.562,-3.912 0,-1.586 -0.533,-3.221 -1.574,-4.230 C 32.814,-4.194 31.276,-4.608 29.156,-3.75 c -1.094,0.443 -2.018,0.612 -2.798,0.542 -0.780,-0.069 -1.414,-0.385 -1.906,-0.894 -0.983,-1.018 -1.410,-2.774 -1.552,-4.921 -0.281,-4.253 0.581,-10.076 0.937,-14.841 -4.797,-0.128 -10.693,-1.389 -14.869,-1.578 -2.109,-0.095 -3.768,0.102 -4.593,0.794 -0.412,0.346 -0.632,0.806 -0.630,1.460 0.001,0.654 0.238,1.502 0.771,2.570 1.097,2.195 0.828,3.900 -0.156,5.025 -0.984,1.125 -2.643,1.671 -4.296,1.671 -1.653,0 -3.314,-0.546 -4.298,-1.671 -0.984,-1.125 -1.254,-2.829 -0.156,-5.025 0.534,-1.067 0.773,-1.924 0.773,-2.593 -1.8e-5,-0.669 -0.225,-1.149 -0.644,-1.517 -0.837,-0.735 -2.511,-0.982 -4.636,-0.921 z"/>
  </g>
</g></g>
 
<g id="p11" transform="translate(82,77)"><g class="scale">
  <g transform="translate(0.5,1)"><g class="rot" transform="rotate(0)">
    <path class="shadow" d="m 8.515,-25.345 c -2.191,0.050 -3.897,0.414 -4.695,1.234 -0.398,0.410 -0.589,0.928 -0.525,1.625 0.064,0.696 0.393,1.568 1.052,2.636 1.349,2.190 1.280,3.897 0.419,5.031 -0.860,1.133 -2.463,1.677 -4.117,1.677 -1.653,0 -3.370,-0.545 -4.478,-1.664 -1.107,-1.118 -1.578,-2.818 -0.732,-5.019 0.408,-1.066 0.556,-1.918 0.494,-2.585 -0.062,-0.667 -0.326,-1.152 -0.763,-1.521 -0.875,-0.738 -2.495,-0.989 -4.537,-0.964 -4.045,0.048 -9.697,1.121 -14.494,1.039 -0.356,4.786 -1.219,10.615 -0.941,14.814 0.140,2.117 0.578,3.808 1.470,4.732 0.446,0.462 1.001,0.742 1.716,0.806 0.715,0.063 1.593,-0.093 2.658,-0.525 2.199,-0.891 3.902,-0.458 5.021,0.626 1.119,1.085 1.666,2.793 1.666,4.447 0,1.653 -0.545,3.267 -1.677,4.150 -1.132,0.883 -2.837,0.987 -5.029,-0.316 -1.068,-0.635 -1.930,-0.956 -2.607,-1.021 -0.677,-0.065 -1.166,0.111 -1.548,0.488 -0.765,0.754 -1.077,2.390 -1.128,4.505 -0.100,4.186 0.752,10.194 0.410,14.998 H 19 c 2.680,0 4.849,-2.169 4.849,-4.849 v -42.867 c -4.792,-0.501 -10.988,-1.578 -15.333,-1.478 z"/>
  </g></g>
  <g class="rot" transform="rotate(0)" clip-path="url(#c11)">
    <image id="ip11" xlink:href="" width="72" height="72" x="-36" y="-36"/><text id="tp11" y="10"></text>
    <path class="result" d="m 8.515,-25.345 c -2.191,0.050 -3.897,0.414 -4.695,1.234 -0.398,0.410 -0.589,0.928 -0.525,1.625 0.064,0.696 0.393,1.568 1.052,2.636 1.349,2.190 1.280,3.897 0.419,5.031 -0.860,1.133 -2.463,1.677 -4.117,1.677 -1.653,0 -3.370,-0.545 -4.478,-1.664 -1.107,-1.118 -1.578,-2.818 -0.732,-5.019 0.408,-1.066 0.556,-1.918 0.494,-2.585 -0.062,-0.667 -0.326,-1.152 -0.763,-1.521 -0.875,-0.738 -2.495,-0.989 -4.537,-0.964 -4.045,0.048 -9.697,1.121 -14.494,1.039 -0.356,4.786 -1.219,10.615 -0.941,14.814 0.140,2.117 0.578,3.808 1.470,4.732 0.446,0.462 1.001,0.742 1.716,0.806 0.715,0.063 1.593,-0.093 2.658,-0.525 2.199,-0.891 3.902,-0.458 5.021,0.626 1.119,1.085 1.666,2.793 1.666,4.447 0,1.653 -0.545,3.267 -1.677,4.150 -1.132,0.883 -2.837,0.987 -5.029,-0.316 -1.068,-0.635 -1.930,-0.956 -2.607,-1.021 -0.677,-0.065 -1.166,0.111 -1.548,0.488 -0.765,0.754 -1.077,2.390 -1.128,4.505 -0.100,4.186 0.752,10.194 0.410,14.998 H 19 c 2.680,0 4.849,-2.169 4.849,-4.849 v -42.867 c -4.792,-0.501 -10.988,-1.578 -15.333,-1.478 z"/>
  </g>
</g></g>
 

 
 </g>
</svg>
