<?xml version="1.0" encoding="UTF-8" standalone="no"?>
<svg
   xmlns:dc="http://purl.org/dc/elements/1.1/"
   xmlns:cc="http://creativecommons.org/ns#"
   xmlns:rdf="http://www.w3.org/1999/02/22-rdf-syntax-ns#"
   xmlns:svg="http://www.w3.org/2000/svg"
   xmlns="http://www.w3.org/2000/svg"
   xmlns:sodipodi="http://sodipodi.sourceforge.net/DTD/sodipodi-0.dtd"
   xmlns:inkscape="http://www.inkscape.org/namespaces/inkscape"
   viewBox="0 0 192 192"
   id="svg5132"
   version="1.1"
   width="100%"
   height="100%"
   inkscape:version="0.91 r13725"
   sodipodi:docname="glass_3_02.svg">
  <sodipodi:namedview
     pagecolor="#ffffff"
     bordercolor="#666666"
     borderopacity="1"
     objecttolerance="10"
     gridtolerance="10"
     guidetolerance="10"
     inkscape:pageopacity="0"
     inkscape:pageshadow="2"
     inkscape:window-width="939"
     inkscape:window-height="602"
     id="namedview10"
     showgrid="false"
     inkscape:zoom="2.5384612"
     inkscape:cx="98.347604"
     inkscape:cy="90.744932"
     inkscape:window-x="36"
     inkscape:window-y="99"
     inkscape:window-maximized="0"
     inkscape:current-layer="svg5132" />
  <defs
     id="defs5134" />
  <metadata
     id="metadata5137">
    <rdf:RDF>
      <cc:Work
         rdf:about="">
        <dc:format>image/svg+xml</dc:format>
        <dc:type
           rdf:resource="http://purl.org/dc/dcmitype/StillImage" />
        <dc:title></dc:title>
      </cc:Work>
    </rdf:RDF>
  </metadata>
  <path
     sodipodi:nodetypes="ccccccc"
     inkscape:connector-curvature="0"
     id="path4178"
     d="m 96,24.115234 c -34.793117,1.98e-4 -62.998239,13.607388 -62.998047,30.392578 0,33.562265 0,55.479108 0,88.677738 C 33.00177,159.97074 61.20689,173.57792 96,173.57812 c 34.79311,-2e-4 62.99823,-13.60738 62.99805,-30.39257 0.28316,-26.58547 0,-55.930484 0,-88.677738 C 158.99824,37.722621 130.79312,24.115431 96,24.115234 Z"
     style="color:#000000;clip-rule:nonzero;display:inline;overflow:visible;visibility:visible;opacity:1;isolation:auto;mix-blend-mode:normal;color-interpolation:sRGB;color-interpolation-filters:linearRGB;solid-color:#000000;solid-opacity:1;fill:#b4e3ea;fill-opacity:0.61963189;fill-rule:evenodd;stroke:none;stroke-width:2.5;stroke-linecap:butt;stroke-linejoin:miter;stroke-miterlimit:4;stroke-dasharray:none;stroke-dashoffset:0;stroke-opacity:1;marker:none;marker-start:none;marker-mid:none;marker-end:none;color-rendering:auto;image-rendering:auto;shape-rendering:auto;text-rendering:auto;enable-background:accumulate" />
  <ellipse
     style="color:#000000;clip-rule:nonzero;display:inline;overflow:visible;visibility:visible;opacity:1;isolation:auto;mix-blend-mode:normal;color-interpolation:sRGB;color-interpolation-filters:linearRGB;solid-color:#000000;solid-opacity:1;fill:#98d2d2;fill-opacity:0.52760738;fill-rule:evenodd;stroke:none;stroke-width:2.5;stroke-linecap:butt;stroke-linejoin:miter;stroke-miterlimit:4;stroke-dasharray:none;stroke-dashoffset:0;stroke-opacity:1;marker:none;marker-start:none;marker-mid:none;marker-end:none;color-rendering:auto;image-rendering:auto;shape-rendering:auto;text-rendering:auto;enable-background:accumulate"
     id="ellipse4168"
     cx="96"
     cy="135.86441"
     rx="62.998791"
     ry="30.39241" />
  <ellipse
     style="color:#000000;clip-rule:nonzero;display:inline;overflow:visible;visibility:visible;opacity:1;isolation:auto;mix-blend-mode:normal;color-interpolation:sRGB;color-interpolation-filters:linearRGB;solid-color:#000000;solid-opacity:1;fill:#cde9e9;fill-opacity:0.52760738;fill-rule:evenodd;stroke:none;stroke-width:2.17861199;stroke-linecap:butt;stroke-linejoin:miter;stroke-miterlimit:4;stroke-dasharray:none;stroke-dashoffset:0;stroke-opacity:1;marker:none;marker-start:none;marker-mid:none;marker-end:none;color-rendering:auto;image-rendering:auto;shape-rendering:auto;text-rendering:auto;enable-background:accumulate"
     id="path4138"
     cx="96"
     cy="139.11865"
     rx="54.899967"
     ry="26.485308" />
  <ellipse
     ry="26.81329"
     rx="55.579823"
     cy="132.46806"
     cx="96"
     id="ellipse4325"
     style="color:#000000;clip-rule:nonzero;display:inline;overflow:visible;visibility:visible;opacity:1;isolation:auto;mix-blend-mode:normal;color-interpolation:sRGB;color-interpolation-filters:linearRGB;solid-color:#000000;solid-opacity:1;fill:#8f544a;fill-opacity:0.29281768;fill-rule:evenodd;stroke:none;stroke-width:2.17861199;stroke-linecap:butt;stroke-linejoin:miter;stroke-miterlimit:4;stroke-dasharray:none;stroke-dashoffset:0;stroke-opacity:1;marker:none;marker-start:none;marker-mid:none;marker-end:none;color-rendering:auto;image-rendering:auto;shape-rendering:auto;text-rendering:auto;enable-background:accumulate" />
  <path
     style="color:#000000;clip-rule:nonzero;display:inline;overflow:visible;visibility:visible;opacity:1;isolation:auto;mix-blend-mode:normal;color-interpolation:sRGB;color-interpolation-filters:linearRGB;solid-color:#000000;solid-opacity:1;fill:#d52c25;fill-opacity:0.77900552;fill-rule:evenodd;stroke:none;stroke-width:2.17861199;stroke-linecap:butt;stroke-linejoin:miter;stroke-miterlimit:4;stroke-dasharray:none;stroke-dashoffset:0;stroke-opacity:1;marker:none;marker-start:none;marker-mid:none;marker-end:none;color-rendering:auto;image-rendering:auto;shape-rendering:auto;text-rendering:auto;enable-background:accumulate"
     d="M 96,59.633756 C 63.129032,59.633673 36.481474,72.488753 36.480469,88.346644 l 0,45.758406 c 9.91e-4,15.8579 26.648553,28.71298 59.519531,28.7129 32.87098,8e-5 59.51854,-12.855 59.51953,-28.7129 l 0,-45.758406 C 155.51852,72.488753 128.87097,59.633673 96,59.633756 Z"
     id="ellipse4264"
     inkscape:connector-curvature="0"
     sodipodi:nodetypes="sccsccs" />
  <ellipse
     style="color:#000000;clip-rule:nonzero;display:inline;overflow:visible;visibility:visible;opacity:1;isolation:auto;mix-blend-mode:normal;color-interpolation:sRGB;color-interpolation-filters:linearRGB;solid-color:#000000;solid-opacity:1;fill:#f1a99d;fill-opacity:0.37569059;fill-rule:evenodd;stroke:none;stroke-width:2.17861199;stroke-linecap:butt;stroke-linejoin:miter;stroke-miterlimit:4;stroke-dasharray:none;stroke-dashoffset:0;stroke-opacity:1;marker:none;marker-start:none;marker-mid:none;marker-end:none;color-rendering:auto;image-rendering:auto;shape-rendering:auto;text-rendering:auto;enable-background:accumulate"
     id="ellipse4266"
     cx="96"
     cy="88.346855"
     rx="59.519218"
     ry="28.713766" />
  <path
     sodipodi:nodetypes="sccsccs"
     inkscape:connector-curvature="0"
     id="path4281"
     d="M 96,59.633756 C 63.129032,59.633673 36.481474,72.488753 36.480469,88.346644 l 0,45.758406 c 9.91e-4,15.8579 26.648553,28.71298 59.519531,28.7129 32.87098,8e-5 59.51854,-12.855 59.51953,-28.7129 l 0,-45.758406 C 155.51852,72.488753 128.87097,59.633673 96,59.633756 Z"
     style="color:#000000;clip-rule:nonzero;display:inline;overflow:visible;visibility:visible;opacity:1;isolation:auto;mix-blend-mode:normal;color-interpolation:sRGB;color-interpolation-filters:linearRGB;solid-color:#000000;solid-opacity:1;fill:none;fill-opacity:0.77900552;fill-rule:evenodd;stroke:#ba3838;stroke-width:2;stroke-linecap:butt;stroke-linejoin:miter;stroke-miterlimit:4;stroke-dasharray:none;stroke-dashoffset:0;stroke-opacity:1;marker:none;marker-start:none;marker-mid:none;marker-end:none;color-rendering:auto;image-rendering:auto;shape-rendering:auto;text-rendering:auto;enable-background:accumulate" />
  <path
     style="color:#000000;clip-rule:nonzero;display:inline;overflow:visible;visibility:visible;opacity:1;isolation:auto;mix-blend-mode:normal;color-interpolation:sRGB;color-interpolation-filters:linearRGB;solid-color:#000000;solid-opacity:1;fill:none;fill-opacity:0.50920249;fill-rule:evenodd;stroke:#20466a;stroke-width:2;stroke-linecap:round;stroke-linejoin:miter;stroke-miterlimit:4;stroke-dasharray:none;stroke-dashoffset:0;stroke-opacity:1;marker:none;marker-start:none;marker-mid:none;marker-end:none;color-rendering:auto;image-rendering:auto;shape-rendering:auto;text-rendering:auto;enable-background:accumulate"
     d="m 46.878906,151.69141 c 8.037677,4.68667 19.053027,8.10678 31.515625,9.78515"
     id="path4225"
     inkscape:connector-curvature="0"
     sodipodi:nodetypes="cc" />
  <path
     sodipodi:nodetypes="cc"
     inkscape:connector-curvature="0"
     id="path4230"
     d="m 46.878906,128.84292 c 8.037677,4.68667 19.053027,8.10678 31.515625,9.78515"
     style="color:#000000;clip-rule:nonzero;display:inline;overflow:visible;visibility:visible;opacity:1;isolation:auto;mix-blend-mode:normal;color-interpolation:sRGB;color-interpolation-filters:linearRGB;solid-color:#000000;solid-opacity:1;fill:none;fill-opacity:0.50920249;fill-rule:evenodd;stroke:#20466a;stroke-width:2;stroke-linecap:round;stroke-linejoin:miter;stroke-miterlimit:4;stroke-dasharray:none;stroke-dashoffset:0;stroke-opacity:1;marker:none;marker-start:none;marker-mid:none;marker-end:none;color-rendering:auto;image-rendering:auto;shape-rendering:auto;text-rendering:auto;enable-background:accumulate" />
  <path
     style="color:#000000;clip-rule:nonzero;display:inline;overflow:visible;visibility:visible;opacity:1;isolation:auto;mix-blend-mode:normal;color-interpolation:sRGB;color-interpolation-filters:linearRGB;solid-color:#000000;solid-opacity:1;fill:none;fill-opacity:0.50920249;fill-rule:evenodd;stroke:#20466a;stroke-width:2;stroke-linecap:round;stroke-linejoin:miter;stroke-miterlimit:4;stroke-dasharray:none;stroke-dashoffset:0;stroke-opacity:1;marker:none;marker-start:none;marker-mid:none;marker-end:none;color-rendering:auto;image-rendering:auto;shape-rendering:auto;text-rendering:auto;enable-background:accumulate"
     d="m 46.878906,105.60049 c 8.037677,4.68667 19.053027,8.10678 31.515625,9.78515"
     id="path4232"
     inkscape:connector-curvature="0"
     sodipodi:nodetypes="cc" />
  <path
     sodipodi:nodetypes="cc"
     inkscape:connector-curvature="0"
     id="path4234"
     d="m 46.878906,82.358063 c 8.037677,4.68667 19.053027,8.10678 31.515625,9.78515"
     style="color:#000000;clip-rule:nonzero;display:inline;overflow:visible;visibility:visible;opacity:1;isolation:auto;mix-blend-mode:normal;color-interpolation:sRGB;color-interpolation-filters:linearRGB;solid-color:#000000;solid-opacity:1;fill:none;fill-opacity:0.50920249;fill-rule:evenodd;stroke:#20466a;stroke-width:2;stroke-linecap:round;stroke-linejoin:miter;stroke-miterlimit:4;stroke-dasharray:none;stroke-dashoffset:0;stroke-opacity:1;marker:none;marker-start:none;marker-mid:none;marker-end:none;color-rendering:auto;image-rendering:auto;shape-rendering:auto;text-rendering:auto;enable-background:accumulate" />
  <path
     style="color:#000000;clip-rule:nonzero;display:inline;overflow:visible;visibility:visible;opacity:1;isolation:auto;mix-blend-mode:normal;color-interpolation:sRGB;color-interpolation-filters:linearRGB;solid-color:#000000;solid-opacity:1;fill:#fbfdfd;fill-opacity:0.2044199;fill-rule:evenodd;stroke:none;stroke-width:2.5;stroke-linecap:butt;stroke-linejoin:miter;stroke-miterlimit:4;stroke-dasharray:none;stroke-dashoffset:0;stroke-opacity:1;marker:none;marker-start:none;marker-mid:none;marker-end:none;color-rendering:auto;image-rendering:auto;shape-rendering:auto;text-rendering:auto;enable-background:accumulate"
     d="M 96 24.929688 A 62.998791 30.39241 0 0 0 33.001953 55.322266 A 62.998791 30.39241 0 0 0 96 85.714844 A 62.998791 30.39241 0 0 0 158.99805 55.322266 A 62.998791 30.39241 0 0 0 96 24.929688 z M 96 27.037109 A 57.568525 26.449286 0 0 1 153.56836 53.486328 A 57.568525 26.449286 0 0 1 96 79.935547 A 57.568525 26.449286 0 0 1 38.431641 53.486328 A 57.568525 26.449286 0 0 1 96 27.037109 z "
     id="path4206" />
  <path
     inkscape:connector-curvature="0"
     id="path4259"
     style="font-style:normal;font-variant:normal;font-weight:normal;font-stretch:semi-expanded;font-size:medium;line-height:125%;font-family:Ravie;-inkscape-font-specification:'Ravie Semi-Expanded';letter-spacing:0px;word-spacing:0px;fill:#20466a;fill-opacity:1;stroke:none;stroke-width:1px;stroke-linecap:butt;stroke-linejoin:miter;stroke-opacity:1"
     d="m 92.355284,143.50719 q 0,0.10965 -0.05859,0.10965 -0.136718,0 -0.595703,-0.0313 -0.458984,-0.0314 -0.986328,-0.0314 -3.076172,0 -4.84375,0.64224 -0.09766,0.0391 -0.136718,-0.047 -0.09766,-0.50126 -0.09766,-1.23748 0,-1.98935 0.927734,-4.65227 0.722657,-2.06767 1.533203,-3.41479 -1.386718,0.84587 -2.763671,0.84587 -1.503906,0 -2.236329,-0.84587 -0.48828,-0.55608 -0.48828,-1.36279 0,-1.01034 0.820311,-1.49593 0.976564,-0.57957 2.460938,-0.57957 1.806641,0 1.806641,0.86936 0,0.61091 -0.625,1.30796 -0.615234,0.68923 -1.474609,1.06517 -0.166016,0.0705 -0.166016,0.13314 0,0.094 0.283203,0.094 0.820312,0 1.953125,-0.9007 1.171875,-0.93201 1.767578,-2.14599 0.761719,-0.14881 2.197265,-0.46992 0.08789,-0.0235 0.107421,0.008 0.01953,0.0313 -0.0097,0.10965 -1.474609,4.4408 -1.474609,7.94959 0,1.72306 0.458983,2.56892 0.13672,0.25846 0.742188,0.33678 0.263672,0.0314 0.712892,0.16448 0.185546,0.094 0.185546,1.01034 z" />
  <path
     inkscape:connector-curvature="0"
     id="path4256"
     style="font-style:normal;font-variant:normal;font-weight:normal;font-stretch:semi-expanded;font-size:medium;line-height:125%;font-family:Ravie;-inkscape-font-specification:'Ravie Semi-Expanded';letter-spacing:0px;word-spacing:0px;fill:#20466a;fill-opacity:1;stroke:none;stroke-width:1px;stroke-linecap:butt;stroke-linejoin:miter;stroke-opacity:1"
     d="m 97.022302,118.51904 q 0,0.49342 -0.03906,0.78321 -0.136719,0.96335 -1.298829,1.54292 -1.083983,0.54042 -2.568358,0.54042 -1.113282,0 -2.060548,-0.33678 -3.28125,-1.16699 -5.195311,-1.16699 -0.996095,0 -1.523438,0.33678 -0.302734,0.18798 -0.302734,0.64223 0,0.20364 0.06836,0.44644 -1.230468,0.094 -2.001953,0.48559 -0.585938,-1.12783 -0.585938,-2.31047 0,-1.91887 1.386719,-3.1955 1.542969,-1.41761 4.296876,-1.48809 1.591796,-0.047 2.333983,-0.44644 0.947266,-0.50909 1.503907,-1.95802 0.380859,-0.98685 0.380859,-1.55859 0,-0.79105 -0.771485,-1.073 -0.625,-0.22713 -2.265625,-0.24279 -1.035156,-0.008 -1.923827,0.18014 -0.839844,0.18013 -0.839844,0.3681 0,0.0861 0.205078,0.12532 1.552734,0.29761 2.324219,0.71272 1.132812,0.59523 1.132812,1.59775 0,0.53258 -0.791015,0.8537 -0.830079,0.32894 -2.265626,0.32894 -0.71289,0 -1.484374,-0.0784 -2.695313,-0.28196 -2.695313,-1.66825 0,-1.2218 1.298828,-2.09116 1.835938,-1.22965 5.820312,-1.22965 2.998047,0 4.921875,0.79888 2.25586,0.92419 2.25586,2.71774 0,3.75158 -6.220704,3.90822 -2.910156,0.0784 -4.46289,0.97901 -1.416016,0.82237 -1.435547,2.13817 0.791016,-1.46461 3.720703,-1.46461 1.904298,0 3.359375,0.54825 0.351563,0.13315 1.591797,0.75972 0.781249,0.3916 1.328125,0.3916 0.917969,0 0.917969,-0.47776 0,-0.80671 -1.855469,-1.45677 1.914063,-1.15915 2.597656,-1.63691 1.142578,0.91636 1.142578,2.69424 z" />
  <path
     inkscape:connector-curvature="0"
     id="path4253"
     style="font-style:normal;font-variant:normal;font-weight:normal;font-stretch:semi-expanded;font-size:medium;line-height:125%;font-family:Ravie;-inkscape-font-specification:'Ravie Semi-Expanded';letter-spacing:0px;word-spacing:0px;fill:#20466a;fill-opacity:1;stroke:none;stroke-width:1px;stroke-linecap:butt;stroke-linejoin:miter;stroke-opacity:1"
     d="m 97.373873,95.437286 q 0,2.036343 -2.167969,3.156334 -2.285155,1.174816 -6.689452,1.174816 -3.183594,0 -5.146485,-0.939851 -1.318358,-0.626571 -1.708984,-1.401946 -0.146484,-0.281954 -0.146484,-0.563909 0,-0.681396 0.654297,-1.213978 0.771483,-0.626571 2.20703,-0.791047 0.69336,-0.07836 1.54297,-0.07836 1.621093,0 2.656249,0.368106 0.986328,0.352443 0.986328,0.845873 0,0.963341 -1.259765,1.566413 -0.488282,0.234965 -2.041016,0.665733 -0.537109,0.148813 -0.537109,0.28979 0,0.321117 1.777343,0.321117 2.109375,0 3.251953,-0.454267 1.074219,-0.422932 0.986328,-1.135654 -0.253905,-2.114668 -0.605469,-2.756901 -0.732421,-1.34712 -2.83203,-1.34712 -0.478516,0 -1.425781,0.10965 -0.01953,0.01567 -0.05859,0.01567 -0.253906,0 -0.439453,-0.399442 -0.08789,-0.234956 -0.175781,-0.462094 4.296875,-0.579572 5.361327,-2.937034 0.156251,-0.360276 0.156251,-0.610904 0,-0.657897 -0.830078,-0.986844 -0.703125,-0.281956 -1.806641,-0.281956 -0.966796,0 -1.757812,0.195802 -0.791016,0.187971 -0.791016,0.415101 0,0.172307 1.425781,0.509087 1.621094,0.391605 1.621094,1.206147 0,0.407268 -1.132812,0.845863 -1.289063,0.501257 -2.910156,0.501257 -3.183594,0 -3.183594,-1.605584 0,-0.234961 0.06836,-0.430764 0.166016,-0.853699 2.021484,-1.550756 2.119141,-0.791042 5.195313,-0.791042 3.388671,0 5.175781,1.018173 1.523437,0.869363 1.523437,2.192992 0,1.260969 -1.796874,1.824878 -0.937501,0.28979 -3.466797,0.548245 2.763671,0.164477 3.964843,0.51692 2.333984,0.697059 2.333984,2.451448 z" />
  <ellipse
     style="color:#000000;clip-rule:nonzero;display:inline;overflow:visible;visibility:visible;opacity:1;isolation:auto;mix-blend-mode:normal;color-interpolation:sRGB;color-interpolation-filters:linearRGB;solid-color:#000000;solid-opacity:1;fill:#ffffff;fill-opacity:0.74233129;fill-rule:evenodd;stroke:none;stroke-width:2;stroke-linecap:butt;stroke-linejoin:miter;stroke-miterlimit:4;stroke-dasharray:none;stroke-dashoffset:0;stroke-opacity:1;marker:none;marker-start:none;marker-mid:none;marker-end:none;color-rendering:auto;image-rendering:auto;shape-rendering:auto;text-rendering:auto;enable-background:accumulate"
     id="path4211-4"
     cx="102.24524"
     cy="128.45482"
     rx="7.259119"
     ry="1.8147798"
     transform="matrix(0.99309761,-0.11729083,0.11729083,0.99309761,0,0)" />
  <path
     style="color:#000000;clip-rule:nonzero;display:inline;overflow:visible;visibility:visible;opacity:1;isolation:auto;mix-blend-mode:normal;color-interpolation:sRGB;color-interpolation-filters:linearRGB;solid-color:#000000;solid-opacity:1;fill:none;fill-opacity:0.50920249;fill-rule:evenodd;stroke:#0e3b47;stroke-width:1.5;stroke-linecap:butt;stroke-linejoin:miter;stroke-miterlimit:4;stroke-dasharray:none;stroke-dashoffset:0;stroke-opacity:1;marker:none;marker-start:none;marker-mid:none;marker-end:none;color-rendering:auto;image-rendering:auto;shape-rendering:auto;text-rendering:auto;enable-background:accumulate"
     d="M 96,27.037202 A 57.568525,26.449286 0 0 1 153.56921,53.485745 57.568525,26.449286 0 0 1 96,79.936324 57.568525,26.449286 0 0 1 38.430799,53.485745 57.568525,26.449286 0 0 1 96,27.037202 Z"
     id="ellipse4166"
     inkscape:connector-curvature="0" />
  <path
     style="color:#000000;clip-rule:nonzero;display:inline;overflow:visible;visibility:visible;opacity:1;isolation:auto;mix-blend-mode:normal;color-interpolation:sRGB;color-interpolation-filters:linearRGB;solid-color:#000000;solid-opacity:1;fill:#e8f5f5;fill-opacity:0.29834256;fill-rule:evenodd;stroke:none;stroke-width:2.5;stroke-linecap:butt;stroke-linejoin:miter;stroke-miterlimit:4;stroke-dasharray:none;stroke-dashoffset:0;stroke-opacity:1;marker:none;marker-start:none;marker-mid:none;marker-end:none;color-rendering:auto;image-rendering:auto;shape-rendering:auto;text-rendering:auto;enable-background:accumulate"
     d="M 158.99805 55.322266 C 158.99805 55.322266 156.08397 65.837827 150.59766 70.435547 C 150.63216 101.21072 150.66372 130.97357 150.60352 158.33594 C 150.60492 158.33476 150.60601 158.33321 150.60742 158.33203 C 151.58266 157.5155 152.48025 156.67434 153.29883 155.8125 C 153.34462 155.76422 153.39026 155.71639 153.43555 155.66797 C 153.96171 155.10623 154.45578 154.53627 154.91211 153.95703 C 155.11577 153.69852 155.30868 153.43761 155.49805 153.17578 C 155.58913 153.04953 155.67596 152.92192 155.76367 152.79492 C 156.03364 152.40508 156.2857 152.01192 156.52344 151.61523 C 156.63195 151.43361 156.74406 151.25331 156.8457 151.07031 C 156.96617 150.85412 157.07869 150.63604 157.18945 150.41797 C 157.31106 150.1777 157.42547 149.93583 157.53516 149.69336 C 157.60555 149.53833 157.68259 149.38443 157.74805 149.22852 C 157.75784 149.20518 157.76571 149.18155 157.77539 149.1582 C 157.93172 148.77981 158.07036 148.39894 158.19727 148.01562 C 158.24479 147.87271 158.28867 147.72952 158.33203 147.58594 C 158.44763 147.20148 158.55125 146.81476 158.63672 146.42578 C 158.64884 146.37088 158.66622 146.3167 158.67773 146.26172 C 158.67854 146.25783 158.67888 146.25389 158.67969 146.25 C 158.77084 145.81079 158.8367 145.36835 158.88867 144.92383 C 158.90227 144.80807 158.91489 144.69228 158.92578 144.57617 C 158.96884 144.11506 158.99805 143.65179 158.99805 143.18555 C 159.27849 116.85556 159.00531 87.795587 159 55.427734 C 158.99999 55.426965 158.99805 55.322266 158.99805 55.322266 z M 33.449219 60.558594 C 33.294577 60.563932 33.146268 60.596106 33.001953 60.642578 L 33.001953 143.18555 C 33.001948 143.65574 33.032387 144.12291 33.076172 144.58789 C 33.086291 144.69475 33.096963 144.80164 33.109375 144.9082 C 33.162777 145.36916 33.230651 145.82796 33.326172 146.2832 C 33.330438 146.30353 33.337448 146.32343 33.341797 146.34375 C 33.430448 146.75795 33.543231 147.16903 33.666016 147.57812 C 33.712438 147.73211 33.761295 147.88584 33.8125 148.03906 C 33.922746 148.37035 34.043528 148.69972 34.175781 149.02734 C 34.268628 149.25645 34.369181 149.48371 34.472656 149.71094 C 34.583233 149.95467 34.69769 150.19795 34.820312 150.43945 C 34.932254 150.65913 35.048128 150.87793 35.169922 151.0957 C 35.276964 151.28774 35.393207 151.47746 35.507812 151.66797 C 35.736525 152.04699 35.978164 152.42412 36.236328 152.79688 C 36.3301 152.93262 36.423866 153.06824 36.521484 153.20312 C 36.714649 153.46938 36.911187 153.73327 37.119141 153.99609 C 37.1351 154.01626 37.151923 154.03649 37.167969 154.05664 C 37.629145 154.63577 38.127132 155.20606 38.658203 155.76758 C 38.679133 155.78971 38.699666 155.81188 38.720703 155.83398 C 39.557379 156.71302 40.476948 157.57056 41.476562 158.40234 L 41.476562 70.470703 C 37.898316 63.421725 35.299176 60.494729 33.449219 60.558594 z "
     id="path4188" />
  <path
     style="color:#000000;clip-rule:nonzero;display:inline;overflow:visible;visibility:visible;opacity:1;isolation:auto;mix-blend-mode:normal;color-interpolation:sRGB;color-interpolation-filters:linearRGB;solid-color:#000000;solid-opacity:1;fill:none;fill-opacity:1;fill-rule:evenodd;stroke:#0e3b47;stroke-width:2.5;stroke-linecap:butt;stroke-linejoin:miter;stroke-miterlimit:4;stroke-dasharray:none;stroke-dashoffset:0;stroke-opacity:1;marker:none;marker-start:none;marker-mid:none;marker-end:none;color-rendering:auto;image-rendering:auto;shape-rendering:auto;text-rendering:auto;enable-background:accumulate"
     d="m 96,24.115234 c -34.793117,1.98e-4 -62.998239,13.607388 -62.998047,30.392578 0,33.562265 0,55.479108 0,88.677738 C 33.00177,159.97074 61.20689,173.57792 96,173.57812 c 34.79311,-2e-4 62.99823,-13.60738 62.99805,-30.39257 0.28316,-26.58547 0,-55.930484 0,-88.677738 C 158.99824,37.722621 130.79312,24.115431 96,24.115234 Z"
     id="ellipse4159"
     inkscape:connector-curvature="0"
     sodipodi:nodetypes="ccccccc" />
  <ellipse
     style="color:#000000;clip-rule:nonzero;display:inline;overflow:visible;visibility:visible;opacity:1;isolation:auto;mix-blend-mode:normal;color-interpolation:sRGB;color-interpolation-filters:linearRGB;solid-color:#000000;solid-opacity:1;fill:#ffffff;fill-opacity:0.93922651;fill-rule:evenodd;stroke:none;stroke-width:2;stroke-linecap:butt;stroke-linejoin:miter;stroke-miterlimit:4;stroke-dasharray:none;stroke-dashoffset:0;stroke-opacity:1;marker:none;marker-start:none;marker-mid:none;marker-end:none;color-rendering:auto;image-rendering:auto;shape-rendering:auto;text-rendering:auto;enable-background:accumulate"
     id="path4211"
     cx="102.51567"
     cy="109.61735"
     rx="7.259119"
     ry="1.8147798"
     transform="matrix(0.96677736,-0.25561989,0.25561989,0.96677736,0,0)" />
  <ellipse
     style="color:#000000;clip-rule:nonzero;display:inline;overflow:visible;visibility:visible;opacity:1;isolation:auto;mix-blend-mode:normal;color-interpolation:sRGB;color-interpolation-filters:linearRGB;solid-color:#000000;solid-opacity:1;fill:#ffffff;fill-opacity:0.93922651;fill-rule:evenodd;stroke:none;stroke-width:2;stroke-linecap:butt;stroke-linejoin:miter;stroke-miterlimit:4;stroke-dasharray:none;stroke-dashoffset:0;stroke-opacity:1;marker:none;marker-start:none;marker-mid:none;marker-end:none;color-rendering:auto;image-rendering:auto;shape-rendering:auto;text-rendering:auto;enable-background:accumulate"
     id="path4213"
     cx="119.65639"
     cy="104.78218"
     rx="3.4819658"
     ry="2.2284579"
     transform="matrix(0.97409042,-0.2261589,0.2261589,0.97409042,0,0)" />
</svg>
