<?xml version="1.0" encoding="UTF-8" standalone="no"?>
<svg
   xmlns:dc="http://purl.org/dc/elements/1.1/"
   xmlns:cc="http://creativecommons.org/ns#"
   xmlns:rdf="http://www.w3.org/1999/02/22-rdf-syntax-ns#"
   xmlns:svg="http://www.w3.org/2000/svg"
   xmlns="http://www.w3.org/2000/svg"
   height="100%"
   width="100%"
   version="1.1"
   id="svg5132"
   viewBox="0 0 192 192">
  <defs
     id="defs5134" />
  <metadata
     id="metadata5137">
    <rdf:RDF>
      <cc:Work
         rdf:about="">
        <dc:format>image/svg+xml</dc:format>
        <dc:type
           rdf:resource="http://purl.org/dc/dcmitype/StillImage" />
        <dc:title></dc:title>
      </cc:Work>
    </rdf:RDF>
  </metadata>
  <g
     id="layer1">
    <path
       id="ellipse4421"
       d="M 82.816621,63.27595 C 55.802734,66.27958 35.598823,78.32534 35.597867,92.73688 l 0,17.64844 c -10e-4,16.67301 27.030933,30.18944 60.376954,30.18945 33.346019,-1e-5 60.377999,-13.51644 60.376949,-30.18945 0,-6.49224 -0.0758,-11.32194 0,-17.64844 -8.6e-4,-14.41154 -20.20484,-26.4573 -47.21875,-29.46093 6e-4,5.62285 0,25.76164 0,25.91992 -1.2e-4,3.6337 -5.89079,6.57814 -13.158199,6.57812 -7.26728,-6e-5 -13.15808,-2.94448 -13.1582,-6.57812 l 0,-25.91992 z"
       style="color:#000000;clip-rule:nonzero;display:inline;overflow:visible;visibility:visible;opacity:1;isolation:auto;mix-blend-mode:normal;color-interpolation:sRGB;color-interpolation-filters:linearRGB;solid-color:#000000;solid-opacity:1;fill:#1a515d;fill-opacity:1;fill-rule:evenodd;stroke:none;stroke-width:1.5;stroke-linecap:butt;stroke-linejoin:miter;stroke-miterlimit:4;stroke-dasharray:none;stroke-dashoffset:0;stroke-opacity:1;marker:none;marker-start:none;marker-mid:none;marker-end:none;color-rendering:auto;image-rendering:auto;shape-rendering:auto;text-rendering:auto;enable-background:accumulate" />
    <path
       id="ellipse4375"
       d="m 109.13302,63.29938 c 6e-4,5.61353 0,25.73835 0,25.89649 -1.2e-4,3.6337 -5.89079,6.57814 -13.158199,6.57812 -7.26728,-6e-5 -13.15808,-2.94448 -13.1582,-6.57812 l 0,-25.88281 a 60.377003,30.188501 0 0 0 -47.218754,29.42382 60.377003,30.188501 0 0 0 60.376954,30.1875 60.377003,30.188501 0 0 0 60.376949,-30.1875 60.377003,30.188501 0 0 0 -47.21875,-29.4375 z"
       style="color:#000000;clip-rule:nonzero;display:inline;overflow:visible;visibility:visible;opacity:1;isolation:auto;mix-blend-mode:normal;color-interpolation:sRGB;color-interpolation-filters:linearRGB;solid-color:#000000;solid-opacity:1;fill:#007590;fill-opacity:1;fill-rule:evenodd;stroke:none;stroke-width:1.5;stroke-linecap:butt;stroke-linejoin:miter;stroke-miterlimit:4;stroke-dasharray:none;stroke-dashoffset:0;stroke-opacity:1;marker:none;marker-start:none;marker-mid:none;marker-end:none;color-rendering:auto;image-rendering:auto;shape-rendering:auto;text-rendering:auto;enable-background:accumulate" />
    <path
       d="m 102.79973,133.03777 q 0,0.77778 -0.38452,1.84048 -0.56031,1.54016 -2.3291,2.26403 -2.021489,0.83168 -6.152349,0.83168 -6.84448,0 -8.26171,-1.83278 -0.58228,-0.75467 -0.58228,-1.24752 0,-0.56986 0.802,-0.9549 0.76904,-0.36964 2.53784,-0.68537 1.77979,-0.31572 3.18604,-0.31572 2.71362,0 2.71362,0.99339 0,1.70187 -4.02099,2.71837 -0.10987,0.0154 -0.10987,0.0924 0,0.18482 1.12061,0.31573 1.08764,0.13862 2.20825,0.10781 2.24121,-0.0539 2.95532,-0.29263 1.08764,-0.36963 1.08764,-1.54785 0,-0.37734 -0.0439,-0.66226 -0.32959,-2.11001 -0.68115,-2.61056 -0.53834,-0.75468 -2.24121,-0.75468 -0.56031,0 -1.48316,0.0847 -2.06543,0.16942 -4.59228,0.66226 -0.1648,0.0308 -0.26367,0.0308 -0.14283,0 -0.14283,-0.13091 l 0,-0.0616 q 0.0659,-0.35424 0.0659,-0.81628 0,-3.15732 -2.40601,-5.12871 -0.0549,-0.0462 0,-0.077 0.0439,-0.0385 0.14282,-0.0308 3.98804,0.10781 6.36108,0.10781 4.33961,0 6.37208,-0.077 0.1538,-0.88559 0.1538,-1.70187 0,-0.10781 0.0659,-0.0847 0.94481,0.35424 2.548819,0.85478 0.10989,0.0231 0.0439,0.12322 -0.98877,1.44774 -1.538079,2.81078 -0.044,0.13091 -0.17577,0.0924 -1.28541,-0.36963 -4.40553,-0.55445 -1.66992,-0.0924 -2.18627,-0.0924 -0.98877,0 -0.9668,0.46205 0.0879,1.57095 0.0879,1.52475 0,1.06271 -0.10986,1.33993 0.47241,-0.10011 0.95581,-0.20022 1.14258,-0.20022 2.75757,-0.22332 0,0 1.07666,0 2.79054,0 4.086919,0.48515 1.74682,0.64686 1.74682,2.34103 z"
       style="font-style:normal;font-variant:normal;font-weight:normal;font-stretch:semi-expanded;font-size:medium;line-height:125%;font-family:Ravie;-inkscape-font-specification:'Ravie Semi-Expanded';letter-spacing:0px;word-spacing:0px;fill:#0b282a;fill-opacity:1;stroke:none;stroke-width:1px;stroke-linecap:butt;stroke-linejoin:miter;stroke-opacity:1"
       id="path4579" />
    <path
       id="ellipse4602"
       d="M 82.816621,63.36188 A 56.118511,28.059256 0 0 0 39.855679,90.60798 56.118511,28.059256 0 0 0 95.974821,118.66657 56.118511,28.059256 0 0 0 152.09201,90.60798 56.118511,28.059256 0 0 0 109.13302,63.36384 c 6e-4,5.58789 0,25.67429 0,25.83203 -1.2e-4,3.6337 -5.89079,6.57814 -13.158199,6.57812 -7.26728,-6e-5 -13.15808,-2.94448 -13.1582,-6.57812 l 0,-25.83399 z"
       style="color:#000000;clip-rule:nonzero;display:inline;overflow:visible;visibility:visible;opacity:1;isolation:auto;mix-blend-mode:normal;color-interpolation:sRGB;color-interpolation-filters:linearRGB;solid-color:#000000;solid-opacity:1;fill:#0099bd;fill-opacity:1;fill-rule:evenodd;stroke:none;stroke-width:1.5;stroke-linecap:butt;stroke-linejoin:miter;stroke-miterlimit:4;stroke-dasharray:none;stroke-dashoffset:0;stroke-opacity:1;marker:none;marker-start:none;marker-mid:none;marker-end:none;color-rendering:auto;image-rendering:auto;shape-rendering:auto;text-rendering:auto;enable-background:accumulate" />
    <path
       id="path4600"
       d="M 82.816621,63.27595 C 55.802734,66.27958 35.598823,78.32534 35.597867,92.73688 l 0,17.64844 c -10e-4,16.67301 27.030933,30.18944 60.376954,30.18945 33.346019,-1e-5 60.377999,-13.51644 60.376949,-30.18945 0,-6.49224 -0.0758,-11.32194 0,-17.64844 -8.6e-4,-14.41154 -20.20484,-26.4573 -47.21875,-29.46093 6e-4,5.62285 0,25.76164 0,25.91992 -1.2e-4,3.6337 -5.89079,6.57814 -13.158199,6.57812 -7.26728,-6e-5 -13.15808,-2.94448 -13.1582,-6.57812 l 0,-25.91992 z"
       style="color:#000000;clip-rule:nonzero;display:inline;overflow:visible;visibility:visible;opacity:1;isolation:auto;mix-blend-mode:normal;color-interpolation:sRGB;color-interpolation-filters:linearRGB;solid-color:#000000;solid-opacity:1;fill:none;fill-opacity:1;fill-rule:evenodd;stroke:#0d3f44;stroke-width:2.5;stroke-linecap:butt;stroke-linejoin:miter;stroke-miterlimit:4;stroke-dasharray:none;stroke-dashoffset:0;stroke-opacity:1;marker:none;marker-start:none;marker-mid:none;marker-end:none;color-rendering:auto;image-rendering:auto;shape-rendering:auto;text-rendering:auto;enable-background:accumulate" />
  </g>
</svg>
