<?xml version="1.0" encoding="UTF-8" standalone="no"?>
<svg
   xmlns:dc="http://purl.org/dc/elements/1.1/"
   xmlns:cc="http://creativecommons.org/ns#"
   xmlns:rdf="http://www.w3.org/1999/02/22-rdf-syntax-ns#"
   xmlns:svg="http://www.w3.org/2000/svg"
   xmlns="http://www.w3.org/2000/svg"
   width="100%"
   height="100%"
   id="bubble"
   version="1.1"
   viewBox="-24 -24 48 48">
  <metadata
     id="metadata19">
    <rdf:RDF>
      <cc:Work
         rdf:about="">
        <dc:format>image/svg+xml</dc:format>
        <dc:type
           rdf:resource="http://purl.org/dc/dcmitype/StillImage" />
        <dc:title></dc:title>
      </cc:Work>
    </rdf:RDF>
  </metadata>
  <defs
     id="defs17" />
  <path
     id="path4202"
     d="m 3.3961139,-15.925519 c -3.01984855,0.221906 -5.4945811,0.877976 -7.2312351,1.91032 -0.3810992,0.22673 -0.6319492,0.424516 -0.9937524,0.786318 -0.5258206,0.520997 -0.7284301,0.839384 -0.8731516,1.365204 l -0.086833,0.303915 -0.9165675,-0.03377 c -1.5678125,-0.05307 -3.4250678,0.09648 -4.6841428,0.385924 -2.383075,0.540292 -3.830287,1.649821 -4.037721,3.0970329 -0.139897,0.9889281 0.376275,2.0888091 1.374851,2.9088959 0.955161,0.7911425 1.973033,1.1722417 4.037722,1.5002764 2.402372,0.3859231 2.8172387,0.4775799 3.0873855,0.7043098 0.2074331,0.1736654 0.1977854,0.3521549 -0.038595,0.5837088 -0.4679318,0.4727559 -1.0564644,0.7187819 -2.4216676,1.0034003 -1.98268,0.41969142 -2.320363,0.51617221 -2.894424,0.83455882 -0.173666,0.0916567 -0.434163,0.29426643 -0.578885,0.44381167 -0.270146,0.27497025 -0.588532,0.81526271 -0.651245,1.09988104 -0.09166,0.43416357 0.173665,0.84420697 0.718782,1.10952917 0.289442,0.1398971 0.578885,0.2315539 2.223882,0.7139579 1.1529456,0.3376827 1.8138392,0.7621983 2.0839853,1.3459071 0.1109531,0.246026 0.135073,0.3521546 0.1302492,0.6994855 0,0.482404 -0.091657,0.8007905 -0.4775801,1.6449977 -0.2846183,0.6271254 -0.5065239,1.2687223 -0.6367731,1.8765516 -0.135073,0.6367731 -0.1206008,1.9537354 0.024123,2.5181484 0.3714515,1.40862 1.1915381,2.474733 2.4892048,3.232107 1.2928426,0.757374 3.2272823,1.133649 5.1761942,1.0034 3.2610509,-0.212258 5.1713708,-0.988928 5.9094486,-2.392724 0.2460262,-0.467931 0.3376833,-0.892446 0.3376833,-1.538868 0,-0.651245 -0.082009,-1.133649 -0.4196921,-2.4506125 C 3.675909,7.2732909 3.6324931,6.7571186 3.8495748,6.3374266 4.2162018,5.6282932 5.6296455,5.6041726 8.2442752,6.2554185 9.194611,6.4917963 9.8796245,6.5931011 10.265548,6.5448606 c 0.472756,-0.053067 0.829734,-0.2026095 1.114353,-0.4582841 0.463108,-0.4293389 0.665717,-1.0275199 0.75255,-2.2528262 0.08201,-1.2253061 0.178489,-1.9923285 0.279794,-2.3251872 0.192962,-0.61747707 0.535469,-0.98892811 1.061289,-1.14329739 0.385923,-0.11095294 1.234954,-0.0627127 1.813839,0.10130484 1.43274,0.41004334 1.963384,0.49687604 2.720759,0.43898762 1.886199,-0.13507317 3.574613,-1.28801866 4.491181,-3.06808937 0.496876,-0.969632 0.699485,-1.8476072 0.660893,-2.8654795 -0.05789,-1.4906284 -0.699486,-2.643574 -1.910319,-3.4395407 -0.940689,-0.617477 -2.001977,-0.9117429 -3.487781,-0.9599834 -1.847608,-0.062711 -3.121154,0.2797944 -5.422221,1.466508 -2.026097,1.0419925 -2.875128,1.3024906 -4.0811376,1.2590742 C 7.5447895,-6.730897 6.9080154,-6.875618 6.4159638,-7.121644 5.8708471,-7.3966141 5.7309503,-7.7294729 5.9673281,-8.1925808 c 0.2460262,-0.4872278 0.7091334,-0.9262159 2.0598654,-1.9392642 1.0034,-0.75255 1.8572548,-1.572637 2.2142345,-2.127401 1.181889,-1.828311 -0.10613,-3.135626 -3.5215499,-3.574614 -0.5788849,-0.07718 -2.7255826,-0.135073 -3.3237635,-0.09166 z"
     style="fill:#e93c3c;fill-opacity:1;stroke:none" />
  <path
     id="path4204"
     d="m 16.291991,-13.97259 c 2.426698,-1.080948 3.620579,-3.001673 2.574443,-4.174265 -0.702759,-0.784894 -1.659562,-0.649395 -2.927916,0.394015 -1.541562,1.303252 -2.440775,2.782112 -2.213034,3.674631 0.15943,0.624769 1.286285,0.676744 2.566507,0.105625 z"
     style="fill:#e93c3c;fill-opacity:1;stroke:none" />
  <path
     id="path4206"
     d="m 10.760166,-16.680877 c -0.644306,0.05294 -1.2519401,0.569696 -1.5916705,1.37485 -0.178063,0.413803 -0.2064285,0.589297 -0.1638397,0.861228 0.054271,0.321788 0.082431,0.349219 0.4536268,0.458332 0.335025,0.106808 0.5155189,0.09054 1.1081144,-0.08962 1.600682,-0.476969 2.13645,-1.17349 1.541763,-1.999735 -0.181112,-0.242277 -1.034216,-0.634202 -1.34799,-0.605065 z"
     style="fill:#e93c3c;fill-opacity:1;stroke:none" />
  <path
     id="path4208"
     d="m 22.039924,5.6239894 c -0.498886,-0.8349606 -1.227522,-1.1359473 -2.426146,-1.0105 -0.789229,0.07911 -0.868799,0.1087571 -1.036581,0.3662393 -0.228993,0.3576628 -0.107485,0.7896381 0.416106,1.4766728 0.595436,0.7721922 1.380491,1.3881374 1.889153,1.4859927 0.380048,0.060598 0.471001,0.039935 0.739017,-0.1563077 0.610956,-0.4631385 0.80551,-1.4906981 0.41845,-2.1621061 z"
     style="fill:#e93c3c;fill-opacity:1;stroke:none" />
  <path
     id="path4212"
     d="m -18.408545,-3.3878393 c -0.0386,0.00965 -0.236379,0.043417 -0.434164,0.07236 -1.263899,0.2026097 -2.281771,0.7043099 -2.98608,1.4761562 -0.810439,0.88279926 -0.969632,2.0502169 -0.366627,2.64839785 0.588532,0.59335685 1.70771,0.44381165 2.976432,-0.39557127 l 0.32321,-0.21225777 0.385924,0.10130484 c 0.434164,0.11095293 1.186714,0.13024905 1.606405,0.0434166 0.448636,-0.0916568 1.022696,-0.40039532 1.345907,-0.72360596 0.414868,-0.41486739 0.631949,-0.88279932 0.636773,-1.36520332 0.0048,-0.6271251 -0.303914,-1.0709367 -0.955159,-1.3796753 -0.448636,-0.2122577 -0.926216,-0.2894424 -1.746303,-0.2846183 -0.390747,0.00482 -0.747726,0.014472 -0.786318,0.019296 z"
     style="fill:#e93c3c;fill-opacity:1;stroke:none" />
  <path
     id="path4214"
     d="m -13.356685,-11.784211 c 0.681146,0.849347 3.4354549,1.542404 4.2015359,1.084352 1.244882,-0.744335 0.241264,-3.437454 -1.6831129,-4.62674 -0.802917,-0.473216 -1.306722,-0.518635 -1.945123,-0.136925 -1.500242,0.897018 -1.725678,2.331755 -0.5733,3.679313 z"
     style="fill:#e93c3c;fill-opacity:1;stroke:none" />
  <path
     id="path4216"
     d="m -21.076699,5.1456322 c 0.248006,0.08978 0.791796,-0.00516 1.109967,-0.2027294 0.150616,-0.095397 0.45194,-0.3845112 0.667842,-0.6513374 0.31775,-0.4056777 0.385668,-0.5310275 0.377827,-0.7676137 -0.0097,-0.3694686 -0.168192,-0.5106617 -0.704989,-0.5953592 -0.466983,-0.077158 -0.833795,-0.021329 -1.380476,0.2241002 -0.6708,0.2988357 -0.902548,0.7920754 -0.649036,1.3787595 0.165651,0.3662645 0.307157,0.5142156 0.578876,0.6141905 z"
     style="fill:#e93c3c;fill-opacity:1;stroke:none" />
  <path
     id="path4220"
     d="m -12.7148,12.966616 c -0.836141,0.439516 -1.420936,1.090641 -1.458127,1.601489 -0.02529,0.337802 0.18012,0.771248 0.450415,0.945301 0.530833,0.34129 1.457186,-0.07156 2.487333,-1.101137 0.455446,-0.465708 0.811594,-1.153017 0.756998,-1.459499 -0.01918,-0.107679 -0.130053,-0.250308 -0.247154,-0.332002 -0.17418,-0.114259 -0.319427,-0.114019 -0.872933,-0.0069 -0.40588,0.0723 -0.842848,0.209969 -1.116533,0.35272 z"
     style="fill:#e93c3c;fill-opacity:1;stroke:none" />
</svg>
