<?xml version="1.0" encoding="UTF-8" standalone="no"?>
<svg xmlns:dc="http://purl.org/dc/elements/1.1/" xmlns:cc="http://creativecommons.org/ns#" xmlns:rdf="http://www.w3.org/1999/02/22-rdf-syntax-ns#" xmlns:svg="http://www.w3.org/2000/svg" xmlns="http://www.w3.org/2000/svg" version="1.0" width="100%" height="100%" viewBox="0 0 48 48" >
<defs />
<path d="M 26.953 2.759 C 26.645 2.753 26.318 2.790 25.986 2.873 C 24.657 3.202 23.752 4.158 23.964 5.009 C 24.081 5.476 24.829 7.093 25.701 8.410 C 24.416 7.490 22.824 6.689 22.361 6.556 C 21.534 6.318 20.571 7.150 20.177 8.421 C 19.857 8.010 19.359 7.638 18.742 7.402 C 17.462 6.913 16.170 7.186 15.857 8.005 C 15.686 8.454 15.370 10.205 15.332 11.779 C 14.802 10.296 13.961 8.725 13.658 8.353 C 13.104 7.672 11.795 7.825 10.732 8.687 C 9.669 9.549 9.256 10.799 9.810 11.480 C 10.114 11.853 11.477 12.998 12.826 13.820 C 11.272 13.533 9.489 13.486 9.013 13.562 C 8.290 13.677 7.812 14.539 7.796 15.605 C 5.800 15.327 4.172 15.522 3.761 16.042 C 3.321 16.600 4.482 18.428 6.361 20.152 C 6.181 20.304 6.008 20.471 5.849 20.669 C 4.994 21.738 4.856 23.048 5.542 23.595 C 5.919 23.895 7.495 24.724 8.988 25.240 C 7.409 25.290 5.657 25.623 5.208 25.798 C 4.391 26.118 4.133 27.409 4.632 28.683 C 5.132 29.957 6.195 30.735 7.013 30.416 C 7.460 30.241 8.968 29.291 10.160 28.261 C 9.417 29.650 8.829 31.328 8.757 31.802 C 8.626 32.669 9.614 33.542 10.968 33.748 C 12.323 33.953 13.534 33.413 13.666 32.546 C 13.737 32.072 13.672 30.296 13.375 28.75 C 14.207 30.086 15.366 31.440 15.742 31.740 C 15.900 31.866 16.089 31.934 16.294 31.960 C 16.605 32.265 16.917 32.571 17.224 32.859 C 18.578 34.129 19.604 34.997 20.042 35.351 C 20.140 35.807 20.366 36.424 20.699 37.384 C 21.044 38.381 21.505 39.627 21.945 40.894 C 22.384 42.161 22.819 43.452 23.158 44.533 C 23.496 45.613 23.715 46.534 23.748 46.828 L 25.419 46.730 C 25.419 46.725 25.419 46.670 25.419 46.664 C 25.427 46.235 25.744 44.519 26.240 42.335 C 26.368 41.770 26.565 40.998 26.720 40.353 C 31.998 44.770 40.936 35.341 39.830 33.939 C 39.575 33.617 38.842 33.427 37.857 33.388 C 38.937 32.781 39.526 31.769 39.177 31.031 C 38.972 30.595 37.920 29.146 36.806 28.025 C 38.246 28.675 39.967 29.160 40.447 29.201 C 41.322 29.274 42.123 28.229 42.236 26.865 C 42.349 25.501 41.736 24.334 40.861 24.261 C 40.382 24.221 38.611 24.409 37.087 24.808 C 38.366 23.889 39.634 22.642 39.908 22.248 C 40.408 21.527 39.899 20.304 38.773 19.523 C 37.647 18.742 36.330 18.697 35.830 19.417 C 35.556 19.812 34.830 21.436 34.416 22.955 C 34.334 22.150 34.178 21.311 34.017 20.619 C 37.374 17.371 38.630 10.617 37.427 10.140 C 37.055 9.993 36.350 10.185 35.507 10.621 C 35.348 10.401 35.149 10.236 34.904 10.166 C 34.442 10.033 32.668 9.871 31.095 9.964 C 32.529 9.312 34.017 8.338 34.363 8.005 C 34.994 7.397 34.734 6.095 33.783 5.109 C 32.832 4.123 31.547 3.822 30.916 4.431 C 30.570 4.764 29.541 6.216 28.837 7.625 C 28.988 6.057 28.893 4.278 28.777 3.812 C 28.618 3.173 27.875 2.778 26.953 2.759 z M 20.154 10.421 C 20.315 10.873 20.598 11.208 20.988 11.320 C 21.449 11.453 23.224 11.615 24.796 11.521 C 24.698 11.566 24.603 11.620 24.505 11.667 C 24.481 11.664 24.462 11.647 24.437 11.646 C 24.354 11.641 24.257 11.657 24.173 11.677 C 23.942 11.732 23.759 11.894 23.648 12.101 C 23.530 12.166 23.427 12.231 23.314 12.296 C 22.933 11.743 22.417 11.421 21.902 11.503 C 21.428 11.579 19.754 12.187 18.371 12.939 C 19.094 12.089 19.758 11.096 20.154 10.421 z M 30.191 13.064 C 30.618 13.370 31.070 13.651 31.513 13.912 C 31.408 14.035 31.298 14.149 31.197 14.277 C 31.138 14.331 31.093 14.398 31.056 14.470 C 31.048 14.480 31.041 14.491 31.033 14.501 C 30.778 14.023 30.5 13.530 30.191 13.064 z M 27.054 13.861 C 27.028 14.138 27.018 14.421 27.005 14.703 C 26.924 14.587 26.852 14.488 26.773 14.376 C 26.868 14.204 26.968 14.034 27.054 13.861 z M 25.826 15.937 C 25.987 16.166 26.108 16.324 26.273 16.564 C 26.552 16.969 26.831 17.386 27.105 17.798 C 26.997 17.763 26.891 17.730 26.802 17.734 C 26.125 17.764 25.522 19.647 25.402 22.031 C 25.361 22.056 25.308 22.071 25.271 22.099 L 24.601 20.367 C 24.501 20.076 24.218 19.888 23.912 19.908 C 23.689 19.921 23.473 20.046 23.355 20.236 C 23.237 20.425 23.234 20.654 23.322 20.859 L 24.621 24.183 C 24.556 24.869 24.515 25.682 24.539 26.451 C 23.929 24.999 23.002 23.476 22.679 23.121 C 22.285 22.687 21.574 22.651 20.843 22.943 C 20.713 22.522 20.601 22.145 20.437 21.646 C 20.435 21.641 20.433 21.635 20.431 21.630 C 20.613 21.528 20.793 21.415 20.966 21.275 C 22.029 20.412 22.442 19.161 21.888 18.480 C 21.584 18.106 20.216 16.951 18.867 16.128 C 20.073 16.351 21.401 16.434 22.166 16.425 C 23.110 17.363 24.358 17.650 24.976 17.054 C 25.140 16.896 25.462 16.475 25.826 15.937 z M 13.328 17.021 C 13.229 17.137 13.139 17.262 13.042 17.382 C 12.974 17.342 12.903 17.306 12.833 17.267 C 12.999 17.185 13.168 17.108 13.328 17.021 z M 16.367 18.183 C 16.740 19.231 17.264 20.300 17.650 20.982 C 17.552 20.991 17.456 21.008 17.363 21.044 C 17.244 21.091 17.046 21.197 16.804 21.339 C 16.627 20.945 16.419 20.573 16.185 20.224 C 16.273 19.589 16.350 18.876 16.367 18.183 z M 18.734 25.781 C 18.759 26.038 18.842 26.271 19.007 26.453 C 19.140 26.598 19.486 26.877 19.910 27.191 C 19.910 27.203 19.911 27.208 19.912 27.220 C 19.917 27.587 19.912 28.069 19.912 28.490 C 19.650 28.489 19.433 28.497 19.216 28.505 C 19.152 28.247 19.032 28.022 18.835 27.865 C 18.459 27.564 16.876 26.727 15.382 26.210 C 16.653 26.170 18.007 25.955 18.734 25.781 z M 21.583 28.296 C 21.772 28.408 21.956 28.525 22.146 28.626 C 21.961 28.603 21.772 28.593 21.583 28.576 C 21.584 28.482 21.583 28.388 21.583 28.296 z M 33.886 29.419 C 34.045 30.986 34.488 32.712 34.693 33.146 C 34.785 33.342 34.935 33.499 35.126 33.617 C 33.899 33.845 32.579 34.241 31.332 34.851 C 31.638 34.360 31.777 33.849 31.724 33.417 C 32.039 33.348 32.304 33.200 32.472 32.958 C 32.746 32.564 33.472 30.938 33.886 29.419 z M 22.824 31.794 C 22.380 32.377 21.966 33.021 21.628 33.595 C 21.624 33.446 21.619 33.447 21.617 33.287 C 21.613 33.053 21.611 32.729 21.607 32.468 C 22.015 32.259 22.430 32.037 22.824 31.794 z M 25.919 32.789 C 26.095 33.207 26.297 33.622 26.503 34.023 C 26.491 34.073 26.480 34.121 26.468 34.171 C 25.795 36.957 25.109 39.705 24.601 41.943 C 24.489 42.434 24.498 42.562 24.404 42.992 C 24.121 42.131 23.835 41.248 23.519 40.335 C 23.126 39.203 22.761 38.144 22.441 37.218 C 22.541 37.260 22.640 37.305 22.748 37.339 C 24.052 37.758 25.333 37.419 25.601 36.583 C 25.748 36.127 25.967 34.362 25.919 32.789 z M 19.912 33.244 C 19.912 33.266 19.911 33.298 19.912 33.320 C 19.912 33.358 19.911 33.380 19.912 33.417 C 19.869 33.381 19.812 33.328 19.769 33.291 C 19.824 33.271 19.849 33.267 19.912 33.244 z M 27.820 36.150 C 28.079 36.407 28.457 36.507 28.884 36.472 C 28.221 37.052 27.629 37.713 27.171 38.486 C 27.364 37.704 27.520 37.035 27.714 36.238 C 27.750 36.211 27.784 36.178 27.820 36.150 z " style="fill:#333860;fill-rule:evenodd;stroke:#2b315c;stroke-width:0.5;stroke-linecap:round;stroke-linejoin:round;" />
</svg>
