<?xml version="1.0" encoding="UTF-8" standalone="no"?>
<svg xmlns:dc="http://purl.org/dc/elements/1.1/" xmlns:cc="http://creativecommons.org/ns#" xmlns:rdf="http://www.w3.org/1999/02/22-rdf-syntax-ns#" xmlns:svg="http://www.w3.org/2000/svg" xmlns="http://www.w3.org/2000/svg" viewBox="0 0 48 48" height="100%" width="100%" version="1.0" >
<defs />
<path style="fill:#333860;fill-rule:evenodd;stroke:#2b315c;stroke-width:0.5;stroke-linecap:round;stroke-linejoin:round;" d="M 11.042 2.310 C 10.208 2.318 9.414 2.816 9.076 3.632 C 9.071 3.627 9.055 3.628 9.050 3.623 C 8.334 2.688 6.977 2.511 6.042 3.228 C 5.108 3.945 4.930 5.302 5.646 6.236 C 5.648 6.238 5.634 6.259 5.636 6.261 C 4.469 6.415 3.645 7.475 3.798 8.642 C 3.952 9.810 5.035 10.645 6.203 10.492 C 6.216 10.490 6.225 10.478 6.238 10.476 C 6.230 10.493 6.225 10.510 6.218 10.527 C 5.907 11.278 6.067 12.108 6.550 12.701 C 5.357 13.828 4.254 15.574 4.923 16.080 C 5.791 16.734 8.898 16.024 9.640 14.001 C 9.657 14.571 9.693 15.108 9.806 15.517 C 9.865 15.732 10.187 17.179 10.390 18.089 C 9.682 18.283 9.091 18.828 8.892 19.591 C 8.595 20.731 9.286 21.912 10.425 22.208 C 10.438 22.212 10.452 22.205 10.464 22.208 C 10.451 22.221 10.438 22.235 10.425 22.248 C 9.650 23.034 9.621 24.279 10.310 25.113 C 8.925 25.135 7.429 25.485 7.208 26.107 C 7.184 26.177 7.184 26.243 7.193 26.320 C 7.279 27.030 8.452 28.020 9.816 28.365 C 9.155 28.945 8.752 29.549 9.025 29.937 C 9.557 30.693 11.941 30.995 13.453 30.009 C 13.511 30.281 13.559 30.519 13.634 30.847 C 13.896 31.982 14.254 33.394 14.591 34.773 C 14.696 35.203 14.698 35.200 14.800 35.615 C 14.530 35.880 14.254 36.168 13.988 36.494 C 13.833 36.456 13.678 36.435 13.511 36.435 C 13.361 36.435 13.218 36.447 13.078 36.478 C 12.865 36.146 12.505 35.899 12.078 35.818 C 11.750 34.941 11.222 34.061 10.400 33.390 C 10.254 33.796 10.009 34.679 9.908 35.689 C 9.588 34.743 9.048 33.759 8.158 33.033 C 8.052 33.327 7.898 33.878 7.783 34.542 C 6.594 33.103 5.341 32.136 4.833 32.183 C 4.239 32.238 4.306 34.501 5.093 36.843 C 3.573 35.862 2.148 35.337 1.687 35.527 C 1.018 35.802 2.223 38.884 4.316 41.132 C 3.324 40.982 2.209 41.011 1.154 41.462 C 1.778 42.124 4.107 44.135 6.189 44.035 C 5.916 44.224 6.009 44.552 6.349 44.738 C 6.418 45.078 6.589 45.388 6.826 45.628 L 14.033 45.628 C 14.030 45.649 14.019 45.664 14.017 45.685 C 16.582 46.348 17.145 45.996 17.099 45.628 L 17.505 45.628 C 17.853 45.476 18.135 45.210 18.271 44.880 C 19.490 44.461 21.001 43.581 21.816 42.066 C 21.518 42.023 20.950 42.001 20.308 42.015 C 22.403 41.002 24.020 39.606 24.066 39.003 C 24.114 38.374 21.601 38.064 19.001 38.562 C 19.744 36.916 20.092 35.340 19.996 34.603 C 20.333 34.465 20.675 34.327 21.115 34.160 C 22.076 33.794 23.306 33.357 24.515 32.921 C 24.646 33.535 25.040 34.090 25.646 34.396 C 25.662 34.404 25.678 34.412 25.695 34.419 C 25.683 34.427 25.669 34.424 25.658 34.431 C 24.673 35.076 24.395 36.417 25.041 37.402 C 25.686 38.387 27.003 38.652 27.988 38.007 C 27.988 38.012 28.011 38.017 28.011 38.021 C 28.078 39.196 29.099 40.108 30.275 40.042 C 31.451 39.977 32.363 38.958 32.296 37.783 C 32.296 37.775 32.311 37.765 32.310 37.757 C 33.361 38.288 34.647 37.886 35.177 36.835 C 35.708 35.785 35.279 34.487 34.228 33.957 C 34.234 33.952 34.234 33.935 34.240 33.931 C 35.225 33.286 35.502 31.947 34.857 30.962 C 34.212 29.977 32.871 29.698 31.886 30.343 C 31.884 30.345 31.865 30.330 31.863 30.332 C 31.860 30.274 31.843 30.220 31.835 30.164 C 32.864 29.741 33.733 29.357 34.214 29.037 L 34.287 28.990 L 34.328 28.937 C 34.341 28.920 34.355 28.900 34.369 28.882 L 37.330 27.861 C 38.016 29.076 42.025 30.640 42.423 29.498 C 42.790 28.445 41.071 25.597 38.837 25.648 C 39.032 25.099 39.013 24.477 38.720 23.927 C 38.717 23.921 38.724 23.906 38.720 23.900 C 39.897 23.940 40.895 23.035 40.935 21.859 C 40.975 20.682 40.042 19.684 38.865 19.644 C 38.869 19.638 38.863 19.623 38.867 19.617 C 39.490 18.618 39.178 17.285 38.179 16.662 C 37.180 16.039 35.845 16.348 35.222 17.347 C 35.220 17.350 35.199 17.345 35.197 17.347 C 34.643 16.308 33.359 15.909 32.320 16.462 C 31.280 17.016 30.879 18.324 31.433 19.363 C 31.439 19.375 31.454 19.381 31.460 19.392 C 31.442 19.391 31.424 19.391 31.406 19.390 C 30.229 19.350 29.231 20.282 29.191 21.458 C 29.176 21.906 29.301 22.323 29.527 22.671 C 29.477 22.736 29.418 22.816 29.369 22.878 C 29.031 23.308 28.722 23.691 28.468 23.990 C 28.382 23.460 28.304 23.103 28.166 22.113 C 28.059 21.347 27.959 20.541 27.894 19.859 C 27.829 19.176 27.800 18.581 27.826 18.367 C 27.849 18.220 27.796 18.071 27.687 17.970 C 27.563 17.861 27.380 17.835 27.226 17.894 C 27.072 17.954 26.973 18.091 26.955 18.255 C 26.906 18.658 26.934 19.237 27.001 19.941 C 27.069 20.645 27.188 21.456 27.296 22.230 C 27.484 23.578 27.643 24.493 27.691 24.787 C 27.533 24.912 27.315 25.082 27.023 25.283 C 26.555 25.604 25.976 25.978 25.386 26.371 C 24.796 26.763 24.195 27.153 23.716 27.482 C 23.696 27.496 23.684 27.503 23.664 27.517 C 23.719 27.074 23.776 26.595 23.873 26.019 C 24.113 24.580 24.523 22.916 24.992 22.199 C 25.121 22.019 25.099 21.772 24.939 21.619 C 24.844 21.522 24.701 21.467 24.566 21.482 C 24.431 21.497 24.318 21.580 24.246 21.695 C 23.590 22.698 23.243 24.379 22.996 25.859 C 22.796 27.050 22.695 27.921 22.662 28.287 C 22.450 28.504 22.199 28.846 21.798 29.373 C 21.383 29.919 20.873 30.619 20.345 31.314 C 20.106 31.629 19.887 31.901 19.650 32.207 C 19.778 31.781 19.905 31.363 20.041 30.898 C 20.648 28.808 21.241 26.728 21.673 25.068 C 21.890 24.238 22.069 23.489 22.197 22.916 C 22.319 22.368 22.388 22.015 22.400 21.703 C 22.419 21.670 22.441 21.642 22.453 21.605 C 22.677 20.932 23.067 19.743 23.419 18.595 C 23.491 18.363 23.543 18.174 23.609 17.955 C 23.882 18.065 24.179 18.125 24.490 18.113 C 25.666 18.066 26.573 17.074 26.527 15.898 C 26.530 15.900 26.547 15.880 26.550 15.882 C 27.592 16.430 28.900 16.026 29.449 14.984 C 29.997 13.942 29.592 12.633 28.550 12.085 C 28.544 12.082 28.541 12.067 28.535 12.064 C 29.531 11.435 29.848 10.126 29.220 9.130 C 28.592 8.135 27.259 7.834 26.263 8.462 C 26.263 8.455 26.248 8.446 26.248 8.439 C 26.201 7.263 25.196 6.336 24.019 6.382 C 22.842 6.429 21.914 7.435 21.960 8.611 C 21.960 8.614 21.937 8.623 21.937 8.626 C 20.895 8.079 19.610 8.469 19.062 9.511 C 18.745 10.113 18.753 10.799 19.011 11.380 C 18.332 10.655 17.622 10.194 17.220 10.525 C 16.270 11.308 16.350 15.300 18.957 15.958 C 19.131 16.002 19.295 16.014 19.457 16.019 L 20.396 16.759 C 20.594 17.743 20.785 18.737 20.929 19.556 C 21.103 20.544 21.211 21.372 21.205 21.626 C 21.203 21.691 21.153 22.115 21.031 22.666 C 20.908 23.216 20.722 23.945 20.507 24.767 C 20.079 26.411 19.507 28.465 18.902 30.546 C 18.891 30.587 18.886 30.630 18.875 30.671 C 18.623 29.454 18.302 28.200 18.011 27.070 L 18.294 24.148 C 19.197 24.094 20.012 23.478 20.251 22.560 C 20.549 21.421 19.858 20.239 18.718 19.943 C 18.711 19.941 18.706 19.925 18.699 19.923 C 19.526 19.085 19.537 17.738 18.699 16.912 C 17.861 16.085 16.492 16.095 15.666 16.933 C 15.664 16.926 15.650 16.920 15.648 16.914 C 15.526 16.471 15.267 16.103 14.933 15.832 C 14.969 15.773 14.998 15.709 15.013 15.638 C 15.474 14.160 15.865 12.357 16.148 10.841 C 16.290 10.084 16.405 9.385 16.494 8.861 C 16.582 8.337 16.650 7.940 16.666 7.871 C 16.709 7.694 16.673 7.507 16.552 7.371 C 16.431 7.234 16.240 7.164 16.058 7.185 C 15.812 7.214 15.615 7.402 15.574 7.646 C 15.531 7.834 15.490 8.165 15.402 8.687 C 15.314 9.209 15.196 9.869 15.056 10.617 C 14.911 11.395 14.722 12.246 14.525 13.091 C 14.396 12.271 14.251 11.412 14.085 10.570 C 14.005 10.159 13.934 9.855 13.851 9.466 C 14.877 9.196 15.580 8.200 15.439 7.123 C 15.286 5.955 14.202 5.119 13.035 5.273 C 13.027 5.274 13.016 5.262 13.009 5.263 C 13.460 4.175 12.964 2.923 11.876 2.472 C 11.605 2.359 11.321 2.307 11.042 2.310 z M 13.208 12.523 C 13.308 13.094 13.429 13.699 13.501 14.212 C 13.561 14.633 13.597 15.001 13.628 15.351 C 13.423 15.346 13.216 15.360 13.009 15.417 C 11.943 15.711 11.294 16.780 11.476 17.849 C 11.274 16.929 10.968 15.526 10.884 15.220 C 10.788 14.869 10.719 13.790 10.716 12.804 C 10.716 12.738 10.718 12.686 10.718 12.621 C 11.460 13.103 12.457 13.103 13.195 12.537 C 13.200 12.533 13.203 12.527 13.208 12.523 z M 22.269 16.017 C 22.269 16.031 22.261 16.042 22.261 16.056 C 22.278 16.483 22.424 16.874 22.656 17.201 C 22.560 17.542 22.471 17.873 22.357 18.246 C 22.257 18.571 22.190 18.788 22.087 19.111 C 21.933 18.266 21.722 17.298 21.517 16.328 C 21.761 16.276 22.001 16.187 22.224 16.046 C 22.240 16.037 22.254 16.027 22.269 16.017 z M 30.351 23.404 C 30.626 23.545 30.932 23.635 31.261 23.646 C 31.280 23.647 31.298 23.648 31.316 23.648 C 31.309 23.659 31.294 23.662 31.287 23.673 C 30.906 24.284 30.879 25.018 31.140 25.640 L 29.216 28.384 C 28.245 28.633 27.543 29.546 27.601 30.582 C 27.602 30.595 27.612 30.606 27.613 30.619 C 27.597 30.610 27.582 30.601 27.566 30.593 C 26.515 30.063 25.215 30.490 24.685 31.541 C 24.658 31.595 24.643 31.651 24.621 31.707 C 23.242 32.205 21.846 32.708 20.736 33.130 C 20.429 33.247 20.362 33.296 20.095 33.400 C 20.460 32.937 20.836 32.465 21.216 31.964 C 21.747 31.266 22.268 30.583 22.679 30.042 C 23.091 29.501 23.441 29.058 23.468 29.031 C 23.486 29.013 23.881 28.715 24.349 28.394 C 24.817 28.073 25.401 27.669 25.992 27.277 C 26.582 26.884 27.165 26.506 27.644 26.177 C 28.123 25.849 28.447 25.641 28.673 25.416 C 28.967 25.123 29.521 24.463 30.232 23.560 C 30.269 23.513 30.313 23.452 30.351 23.404 z M 31.687 26.406 C 31.777 26.486 31.869 26.563 31.974 26.628 C 32.760 27.118 33.731 27.024 34.416 26.478 C 34.350 26.624 34.286 26.795 34.222 26.931 C 33.949 27.514 33.665 27.972 33.511 28.173 C 33.177 28.383 32.374 28.739 31.412 29.136 C 31.130 28.775 30.733 28.515 30.281 28.396 L 31.687 26.406 z M 14.388 26.445 C 14.888 26.774 15.517 26.904 16.134 26.734 C 16.344 26.676 16.531 26.581 16.705 26.470 C 16.785 26.777 16.847 27.010 16.933 27.343 C 17.408 29.186 17.917 31.341 18.146 33.066 C 17.902 33.870 17.680 34.582 17.455 35.310 C 17.052 35.626 16.637 35.998 16.228 36.412 C 16.210 36.341 16.184 36.241 16.166 36.167 C 16.201 35.641 16.185 35.101 16.042 34.554 C 15.988 34.591 15.876 34.694 15.806 34.746 C 15.778 34.631 15.774 34.627 15.744 34.501 C 15.407 33.125 15.073 31.701 14.814 30.576 C 14.684 30.013 14.576 29.531 14.498 29.152 C 14.466 29.001 14.466 28.978 14.445 28.863 C 14.486 28.773 14.531 28.685 14.564 28.587 C 14.748 28.036 14.752 27.522 14.378 27.160 C 14.383 26.883 14.379 26.833 14.386 26.488 C 14.386 26.476 14.388 26.457 14.388 26.445 z M 35.523 26.630 C 35.925 26.936 36.423 27.092 36.927 27.070 L 35.033 27.724 C 35.088 27.610 35.135 27.510 35.193 27.388 C 35.302 27.155 35.410 26.882 35.523 26.630 z " />
</svg>
