<?xml version="1.0" encoding="UTF-8" standalone="no"?>
<svg
   xmlns:dc="http://purl.org/dc/elements/1.1/"
   xmlns:cc="http://creativecommons.org/ns#"
   xmlns:rdf="http://www.w3.org/1999/02/22-rdf-syntax-ns#"
   xmlns:svg="http://www.w3.org/2000/svg"
   xmlns="http://www.w3.org/2000/svg"
   version="1.0"
   width="100%"
   height="100%"
   viewBox="0 0 48 48"
   id="svg2383">
  <metadata
     id="metadata12">
    <rdf:RDF>
      <cc:Work
         rdf:about="">
        <dc:format>image/svg+xml</dc:format>
        <dc:type
           rdf:resource="http://purl.org/dc/dcmitype/StillImage" />
        <dc:title></dc:title>
      </cc:Work>
    </rdf:RDF>
  </metadata>
  <defs
     id="defs2385" />
  <path
     id="path4594"
     d="M 27.501953 1.6445312 L 18.080078 14.376953 L 2.2480469 13.880859 L 11.445312 26.777344 L 6.0820312 41.679688 L 21.1875 36.917969 L 33.705078 46.625 L 33.726562 44.259766 C 34.081356 44.281159 47.712148 45.097837 47.117188 44.224609 C 46.797516 43.755432 45.037629 33.948662 43.361328 24.316406 L 46.943359 21.880859 L 42.699219 20.460938 C 41.64843 14.354739 40.435547 7.2753906 40.435547 7.2753906 L 29.916016 9.9472656 L 27.501953 1.6445312 z "
     style="opacity:1;vector-effect:none;fill:#e62500;fill-opacity:0.46000001;stroke:none;stroke-width:0.99999994;stroke-linecap:butt;stroke-linejoin:miter;stroke-miterlimit:4;stroke-dasharray:none;stroke-dashoffset:0;stroke-opacity:1;marker:none" />
  <path
     style="opacity:1;vector-effect:none;fill:#ff0000;fill-opacity:1;stroke:none;stroke-width:1.5;stroke-linecap:butt;stroke-linejoin:round;stroke-miterlimit:4;stroke-dasharray:none;stroke-dashoffset:0;stroke-opacity:1;marker:none"
     id="path4589"
     d="M 24.109687,2.0849228 31.1414,16.277754 46.812503,18.579486 35.487238,29.652869 38.140798,45.268248 24.109686,37.919144 10.078573,45.268247 12.732134,29.652868 1.4068688,18.579484 17.077972,16.277754 Z" />
  <path
     d="m 24.109686,11.814794 4.165591,8.40784 9.283569,1.363547 -6.709093,6.559877 1.571971,9.250559 -8.312038,-4.353613 -8.312039,4.353613 1.571972,-9.250559 -6.709093,-6.559878 9.283569,-1.363546 z"
     id="path4610"
     style="opacity:1;vector-effect:none;fill:#e61a00;fill-opacity:1;stroke:#e55700;stroke-width:1.7;stroke-linecap:butt;stroke-linejoin:miter;stroke-miterlimit:4;stroke-dasharray:none;stroke-dashoffset:0;stroke-opacity:1;marker:none" />
  <path
     id="path4486"
     d="M 28.041016 10.019531 L 21.210938 12.087891 L 23.779297 21.292969 L 28.275391 20.222656 L 29.882812 40.943359 L 37.716797 45.044922 C 37.848007 45.042438 37.971343 45.037986 38.101562 45.035156 L 35.486328 29.652344 L 39.302734 25.921875 C 38.332386 21.550969 38.121601 20.541554 37.392578 17.195312 L 31.140625 16.277344 L 28.041016 10.019531 z M 13.074219 25.789062 L 12.589844 29.511719 L 12.732422 29.652344 L 12.041016 33.720703 L 11.791016 35.638672 L 23.351562 34.996094 L 23.351562 27.289062 L 13.074219 25.789062 z "
     style="opacity:1;vector-effect:none;fill:#5f002e;fill-opacity:0.72000002;fill-rule:evenodd;stroke:none;stroke-width:1;stroke-linecap:butt;stroke-linejoin:miter;stroke-miterlimit:4;stroke-dasharray:none;stroke-dashoffset:0;stroke-opacity:1;font-variant-east_asian:normal" />
  <path
     d="M 24.109687,2.0849228 31.1414,16.277754 46.812503,18.579486 35.487238,29.652869 38.140798,45.268248 24.109686,37.919144 10.078573,45.268247 12.732134,29.652868 1.4068688,18.579484 17.077972,16.277754 Z"
     id="path4505"
     style="opacity:1;vector-effect:none;fill:none;fill-opacity:1;stroke:#ffffff;stroke-width:1.5;stroke-linecap:butt;stroke-linejoin:round;stroke-miterlimit:4;stroke-dasharray:none;stroke-dashoffset:0;stroke-opacity:1;marker:none" />
  <path
     style="opacity:1;vector-effect:none;fill:#ef6400;fill-opacity:1;fill-rule:evenodd;stroke:#ffffff;stroke-width:1;stroke-linecap:butt;stroke-linejoin:round;stroke-miterlimit:4;stroke-dasharray:none;stroke-dashoffset:0;stroke-opacity:1"
     d="m 31.56681,4.6827635 -14.12818,4.280394 2.567826,9.2063425 4.496264,-1.071126 1.926383,24.835332 c 0,0 14.13107,0.214929 13.488792,-0.641441 C 39.275616,40.435892 31.56681,4.6827635 31.56681,4.6827635 Z M 9.3013573,22.665764 8.0184723,32.51355 19.578827,31.872107 v -7.707586 z"
     id="path3684" />
</svg>
