<?xml version="1.0" encoding="UTF-8" standalone="no"?>
<!-- Created with Inkscape (http://www.inkscape.org/) -->
<svg xmlns:dc="http://purl.org/dc/elements/1.1/" xmlns:cc="http://creativecommons.org/ns#" xmlns:rdf="http://www.w3.org/1999/02/22-rdf-syntax-ns#" xmlns:svg="http://www.w3.org/2000/svg" xmlns="http://www.w3.org/2000/svg" version="1.1" width="100%" height="100%" viewBox="0 0 48 48" id="svg3904">
<defs id="defs9" />
<path d="m 24.10,46.09 c -0.06,-0.08 -0.07,-0.13 -0.05,-0.22 0.06,-0.29 0.10,-0.56 0.31,-2.20 0.03,-0.24 0.06,-0.48 0.07,-0.51 0.02,-0.07 0.04,-0.21 0.10,-0.76 0.02,-0.22 0.06,-0.53 0.07,-0.67 0.03,-0.26 0.01,-1.86 -0.02,-1.90 -0.05,-0.05 -0.16,0.08 -0.25,0.30 -0.05,0.13 -0.12,0.28 -0.16,0.33 -0.03,0.05 -0.10,0.21 -0.15,0.35 -0.05,0.14 -0.12,0.32 -0.16,0.39 -0.04,0.07 -0.07,0.16 -0.07,0.19 0,0.05 -0.22,0.64 -0.35,0.94 -0.04,0.09 -0.08,0.21 -0.10,0.27 -0.01,0.06 -0.06,0.19 -0.12,0.30 -0.05,0.10 -0.09,0.23 -0.09,0.28 0,0.16 -0.10,0.37 -0.18,0.37 -0.07,0 -0.79,-0.72 -0.91,-0.91 -0.06,-0.10 -0.30,-0.41 -0.40,-0.51 -0.03,-0.03 -0.10,-0.12 -0.15,-0.19 -0.05,-0.07 -0.16,-0.21 -0.24,-0.31 -0.31,-0.37 -1.08,-1.45 -1.27,-1.76 -0.04,-0.06 -0.21,-0.33 -0.37,-0.58 -0.56,-0.87 -0.63,-0.97 -0.71,-1.13 -0.04,-0.08 -0.16,-0.25 -0.25,-0.37 -0.09,-0.11 -0.18,-0.25 -0.20,-0.31 -0.01,-0.05 -0.09,-0.19 -0.17,-0.31 -0.38,-0.56 -0.60,-0.93 -0.80,-1.31 -0.22,-0.42 -0.38,-0.71 -0.50,-0.93 -0.15,-0.26 -0.44,-0.84 -0.50,-0.98 -0.03,-0.08 -0.10,-0.25 -0.15,-0.38 -0.13,-0.29 -0.19,-0.30 -0.60,-0.04 -0.58,0.36 -1.04,0.33 -1.15,-0.06 -0.02,-0.09 -0.10,-0.19 -0.22,-0.29 -0.17,-0.13 -0.20,-0.14 -0.43,-0.14 -0.16,0 -0.29,0.02 -0.40,0.07 -0.10,0.05 -0.19,0.07 -0.28,0.05 -0.09,-0.01 -0.17,0.00 -0.27,0.06 -0.07,0.04 -0.18,0.08 -0.23,0.08 -0.05,0 -0.13,0.02 -0.17,0.05 -0.04,0.03 -0.13,0.05 -0.20,0.05 -0.07,0 -0.19,0.02 -0.26,0.06 -0.12,0.05 -0.15,0.05 -0.30,0.01 -0.09,-0.02 -0.19,-0.07 -0.22,-0.09 -0.03,-0.02 -0.08,-0.02 -0.13,0.00 -0.28,0.12 -0.36,0.13 -0.60,0.04 -0.25,-0.09 -0.52,-0.31 -0.53,-0.44 -0.00,-0.05 -0.05,-0.09 -0.13,-0.12 C 9.80,32.77 9.56,32.47 9.56,32.33 9.56,32.26 9.54,32.20 9.52,32.19 9.50,32.18 9.46,32.09 9.43,32.00 9.40,31.88 9.31,31.75 9.13,31.56 8.79,31.20 8.76,31.11 8.76,30.56 c -4.38e-4,-0.30 -0.01,-0.47 -0.05,-0.54 -0.03,-0.05 -0.05,-0.15 -0.05,-0.20 0,-0.12 -0.15,-0.39 -0.28,-0.49 -0.13,-0.11 -0.47,-0.79 -0.47,-0.97 -4.38e-4,-0.04 -0.03,-0.16 -0.08,-0.26 -0.06,-0.15 -0.08,-0.26 -0.08,-0.78 -0.00,-0.49 0.00,-0.61 0.06,-0.69 0.03,-0.05 0.06,-0.14 0.06,-0.21 1.19e-4,-0.06 0.02,-0.17 0.05,-0.23 0.03,-0.06 0.05,-0.14 0.05,-0.17 0,-0.03 0.03,-0.09 0.07,-0.14 0.04,-0.04 0.20,-0.32 0.37,-0.61 0.49,-0.88 0.81,-1.32 1.16,-1.59 0.04,-0.03 0.09,-0.08 0.10,-0.11 0.01,-0.03 0.11,-0.05 0.35,-0.06 0.18,-0.00 0.35,-0.03 0.37,-0.06 0.02,-0.02 0.17,-0.05 0.35,-0.05 0.17,-0.00 0.35,-0.02 0.39,-0.04 0.04,-0.01 0.30,-0.02 0.57,-0.02 0.48,0.00 0.48,0.00 0.57,0.11 0.07,0.09 0.11,0.11 0.24,0.09 0.15,-0.01 0.15,-0.01 0.23,-0.27 0.14,-0.48 0.22,-0.87 0.22,-1.03 0,-0.08 0.01,-0.18 0.03,-0.22 0.02,-0.03 0.06,-0.22 0.10,-0.42 0.03,-0.19 0.10,-0.50 0.15,-0.69 0.04,-0.18 0.11,-0.43 0.13,-0.55 0.08,-0.39 0.11,-0.49 0.16,-0.71 0.03,-0.12 0.08,-0.36 0.10,-0.53 0.05,-0.33 0.18,-1.02 0.24,-1.25 0.08,-0.33 0.25,-1.26 0.31,-1.74 0.07,-0.60 0.16,-0.96 0.32,-1.30 0.04,-0.09 0.07,-0.23 0.07,-0.31 8.76e-4,-0.08 0.02,-0.21 0.06,-0.30 0.03,-0.08 0.07,-0.23 0.09,-0.31 0.01,-0.08 0.07,-0.26 0.11,-0.39 0.04,-0.12 0.08,-0.27 0.08,-0.31 0,-0.04 0.04,-0.21 0.10,-0.38 0.05,-0.16 0.11,-0.35 0.13,-0.42 0.01,-0.07 0.06,-0.15 0.09,-0.19 0.04,-0.04 0.05,-0.10 0.04,-0.17 -0.01,-0.07 0.00,-0.18 0.05,-0.29 0.04,-0.09 0.09,-0.23 0.10,-0.31 0.04,-0.20 0.14,-0.47 0.24,-0.63 0.04,-0.07 0.12,-0.26 0.17,-0.40 0.06,-0.19 0.12,-0.29 0.20,-0.35 0.08,-0.06 0.11,-0.11 0.11,-0.20 0,-0.14 0.21,-0.60 0.45,-0.95 0.10,-0.15 0.18,-0.30 0.18,-0.34 0,-0.03 0.04,-0.10 0.10,-0.16 0.05,-0.05 0.16,-0.20 0.23,-0.32 0.12,-0.22 0.21,-0.32 0.68,-0.85 0.11,-0.12 0.20,-0.24 0.20,-0.27 0,-0.03 0.18,-0.22 0.90,-0.87 0.30,-0.28 0.73,-0.62 1.01,-0.81 0.60,-0.40 0.75,-0.49 0.93,-0.57 0.11,-0.05 0.33,-0.17 0.47,-0.26 0.14,-0.09 0.34,-0.20 0.44,-0.23 0.09,-0.03 0.29,-0.10 0.43,-0.16 0.48,-0.20 1.13,-0.38 1.43,-0.40 0.16,-0.01 0.33,-0.04 0.38,-0.07 0.05,-0.03 0.21,-0.05 0.48,-0.05 0.39,0 0.39,-0.00 0.46,-0.10 0.14,-0.22 0.59,-0.69 0.81,-0.84 0.12,-0.08 0.31,-0.19 0.43,-0.23 0.11,-0.04 0.25,-0.11 0.31,-0.16 0.41,-0.29 1.38,-0.53 2.47,-0.62 0.47,-0.03 2.21,-0.01 2.64,0.03 0.65,0.07 0.93,0.12 1.15,0.19 0.42,0.14 0.50,0.16 0.59,0.16 0.26,-4.38e-4 1.12,0.20 1.28,0.30 0.04,0.02 0.15,0.07 0.23,0.10 0.08,0.03 0.29,0.13 0.45,0.23 0.16,0.09 0.37,0.20 0.47,0.24 0.27,0.10 0.47,0.26 1.11,0.91 0.12,0.12 0.33,0.28 0.46,0.35 0.22,0.11 0.88,0.34 0.99,0.35 0.09,0.00 0.58,0.23 0.84,0.40 0.14,0.09 0.31,0.20 0.38,0.23 0.16,0.08 0.40,0.46 0.49,0.78 0.03,0.14 0.09,0.33 0.11,0.42 0.05,0.19 -0.01,0.86 -0.10,1.03 -0.03,0.05 -0.10,0.21 -0.16,0.34 -0.05,0.13 -0.18,0.40 -0.28,0.61 -0.13,0.27 -0.18,0.42 -0.19,0.60 -0.01,0.24 -4.38e-4,0.28 0.39,0.93 0.17,0.28 0.33,0.78 0.36,1.13 0.01,0.21 5.85e-4,0.34 -0.10,0.72 -0.20,0.77 -0.47,1.16 -1.21,1.79 l -0.19,0.16 0.06,0.19 c 0.03,0.10 0.09,0.28 0.13,0.39 0.08,0.26 0.10,0.96 0.03,1.17 -0.10,0.28 -0.36,0.68 -0.72,1.09 -0.19,0.22 -0.40,0.48 -0.47,0.57 -0.19,0.26 -0.65,0.70 -0.81,0.78 -0.18,0.09 -0.20,0.12 -0.31,0.43 -0.04,0.14 -0.12,0.34 -0.18,0.45 -0.11,0.21 -0.12,0.38 -0.04,0.38 0.03,0 0.15,-0.05 0.28,-0.11 0.32,-0.17 0.39,-0.15 0.16,0.05 -0.17,0.16 -0.25,0.34 -0.14,0.34 0.04,0 0.20,-0.07 0.23,-0.11 0.02,-0.03 0.23,-0.16 0.25,-0.16 0.06,0 -0.00,0.10 -0.23,0.35 -0.14,0.15 -0.25,0.29 -0.25,0.32 0,0.06 0.12,0.04 0.29,-0.03 0.17,-0.09 0.22,-0.07 0.12,0.03 -0.04,0.05 -0.06,0.11 -0.04,0.18 0.01,0.06 0.00,0.14 -0.01,0.18 -0.05,0.09 0.03,0.12 0.18,0.07 0.14,-0.05 0.12,-0.01 -0.13,0.34 -0.21,0.30 -0.33,0.39 -0.61,0.52 -0.39,0.17 -0.72,0.14 -1.00,-0.09 -0.14,-0.12 -0.14,-0.13 -0.09,-0.25 0.16,-0.40 -0.16,-1.00 -0.62,-1.14 -0.27,-0.07 -0.64,-0.07 -0.87,0.00 -0.43,0.15 -1.01,0.58 -1.15,0.85 -0.13,0.26 -0.31,0.33 -0.36,0.14 -0.02,-0.10 -0.01,-0.13 0.17,-0.31 0.11,-0.11 0.28,-0.26 0.38,-0.34 0.26,-0.21 0.91,-0.58 1.05,-0.60 0.06,-0.00 0.27,-0.03 0.46,-0.06 0.43,-0.05 0.46,-0.06 0.49,-0.19 0.01,-0.07 0.00,-0.11 -0.06,-0.17 -0.08,-0.06 -0.14,-0.07 -0.52,-0.05 -0.38,0.01 -0.44,0.03 -0.64,0.14 -0.29,0.16 -0.32,0.08 -0.03,-0.08 0.38,-0.23 0.58,-0.30 0.95,-0.32 0.40,-0.02 0.65,0.04 1.01,0.28 0.11,0.07 0.24,0.13 0.28,0.13 0.08,-0.01 0.15,-0.14 0.34,-0.62 0.23,-0.59 0.35,-1.01 0.32,-1.14 -0.07,-0.32 -0.42,-0.30 -1.23,0.07 -0.08,0.04 -0.17,0.07 -0.19,0.07 -0.01,0 -0.08,0.02 -0.15,0.05 -0.06,0.03 -0.32,0.13 -0.56,0.22 -0.24,0.09 -0.48,0.18 -0.54,0.20 -0.18,0.07 -0.99,0.90 -1.40,1.45 -0.11,0.15 -0.49,0.87 -0.55,1.06 -0.15,0.47 -0.23,1.03 -0.20,1.36 0.05,0.52 0.21,0.98 0.51,1.48 0.21,0.35 0.21,0.37 0.21,0.65 0,0.15 0.01,0.33 0.04,0.39 0.02,0.05 0.05,0.23 0.06,0.39 0.02,0.26 0.01,0.29 -0.10,0.51 -0.13,0.24 -0.45,0.53 -0.74,0.67 -0.15,0.07 -0.18,0.07 -0.33,0.02 -0.09,-0.02 -0.18,-0.06 -0.20,-0.08 -0.03,-0.02 0.21,-0.25 0.52,-0.48 0.23,-0.17 0.45,-0.49 0.55,-0.81 0.13,-0.43 0.11,-0.50 -0.28,-1.00 -0.19,-0.24 -0.24,-0.28 -0.35,-0.28 -0.13,0 -0.30,-0.09 -0.30,-0.16 0,-0.02 -0.04,-0.10 -0.09,-0.18 -0.05,-0.07 -0.08,-0.15 -0.07,-0.17 0.01,-0.01 0.10,-0.06 0.20,-0.11 0.17,-0.07 0.18,-0.08 0.15,-0.20 -0.14,-0.72 0.09,-2.00 0.50,-2.60 0.09,-0.13 0.24,-0.36 0.32,-0.50 0.18,-0.29 0.73,-0.91 1.06,-1.19 0.18,-0.15 0.23,-0.22 0.25,-0.34 0.01,-0.11 0.08,-0.21 0.30,-0.44 0.49,-0.51 1.15,-0.78 1.91,-0.78 0.30,-0.00 0.42,0.01 0.51,0.06 0.11,0.06 0.12,0.06 0.16,4.38e-4 0.02,-0.03 0.05,-0.12 0.05,-0.18 0.04,-0.84 -0.03,-1.97 -0.20,-2.84 -0.02,-0.11 -0.03,-0.28 -0.03,-0.37 0,-0.09 -0.02,-0.18 -0.04,-0.21 -0.05,-0.05 -0.20,-0.06 -0.31,-0.00 -0.08,0.04 -0.38,0.10 -0.80,0.15 -0.19,0.02 -0.31,0.01 -0.45,-0.02 -0.10,-0.03 -0.23,-0.05 -0.30,-0.05 -0.06,-2.92e-4 -0.20,-0.02 -0.29,-0.06 -0.09,-0.03 -0.22,-0.05 -0.27,-0.03 -0.10,0.02 -0.31,-0.05 -0.44,-0.16 -0.05,-0.04 -0.10,-0.04 -0.35,0.02 -0.15,0.04 -0.29,0.07 -0.30,0.06 -0.00,-0.00 0.03,-0.08 0.09,-0.16 0.15,-0.21 0.09,-0.25 -0.25,-0.19 -0.18,0.03 -0.27,0.03 -0.30,0.00 -0.02,-0.02 -0.13,-0.04 -0.25,-0.04 -0.23,0 -0.25,-0.03 -0.14,-0.23 0.03,-0.06 0.05,-0.13 0.04,-0.14 -0.05,-0.05 -0.32,-0.09 -0.39,-0.05 -0.09,0.04 -0.11,0.00 -0.06,-0.10 0.06,-0.14 -0.00,-0.18 -0.20,-0.09 -0.22,0.10 -0.44,0.07 -0.44,-0.06 0,-0.05 -0.02,-0.09 -0.04,-0.10 -0.02,-0.00 -0.05,-0.08 -0.05,-0.19 -0.00,-0.30 -0.13,-0.38 -0.34,-0.21 -0.06,0.05 -0.15,0.09 -0.19,0.09 -0.04,0 -0.09,0.03 -0.11,0.07 -0.05,0.10 -0.24,0.10 -0.33,0.00 -0.07,-0.08 -0.12,-0.28 -0.09,-0.41 0.03,-0.12 0.43,-0.54 0.51,-0.54 0.03,0 0.08,-0.03 0.10,-0.08 0.03,-0.07 0.06,-0.07 0.20,-0.05 0.10,0.01 0.17,0.00 0.21,-0.02 0.04,-0.03 0.08,-0.03 0.15,-0.00 0.05,0.02 0.12,0.04 0.15,0.04 0.07,0 0.07,-0.10 0.00,-0.13 -0.02,-0.01 0.01,-0.02 0.08,-0.02 0.07,-0.00 0.21,-0.03 0.29,-0.07 0.08,-0.03 0.16,-0.07 0.17,-0.07 0.01,-0.00 0.11,-0.04 0.22,-0.08 0.11,-0.04 0.24,-0.08 0.29,-0.08 0.04,0 0.22,-0.06 0.40,-0.15 0.17,-0.08 0.44,-0.21 0.60,-0.28 0.69,-0.32 1.10,-0.65 1.29,-1.06 0.12,-0.26 0.14,-0.36 0.07,-0.50 -0.15,-0.29 -0.90,-0.62 -1.58,-0.71 -0.35,-0.04 -0.99,-0.03 -1.05,0.01 -0.02,0.02 -0.10,0.01 -0.18,-0.00 -0.11,-0.03 -0.17,-0.02 -0.25,0.01 -0.06,0.03 -0.16,0.04 -0.22,0.03 -0.06,-0.01 -0.24,0.01 -0.39,0.05 -0.52,0.15 -0.99,0.24 -1.35,0.26 -0.19,0.01 -0.37,0.04 -0.39,0.05 -0.07,0.05 -0.70,0.15 -0.94,0.14 -0.14,-0.00 -0.24,-0.03 -0.29,-0.07 -0.06,-0.06 -0.07,-0.06 -0.16,-0.00 -0.08,0.05 -0.11,0.05 -0.30,-0.01 -0.63,-0.23 -1.05,-0.58 -1.24,-1.02 -0.41,-0.99 0.22,-2.29 1.31,-2.71 0.14,-0.05 0.17,-0.15 0.03,-0.15 -0.04,7.30e-4 -0.19,0.03 -0.32,0.06 -0.13,0.03 -0.34,0.06 -0.47,0.07 -0.59,0.02 -1.00,0.34 -1.51,1.15 -0.26,0.43 -0.29,0.50 -0.29,0.68 0,0.15 -0.03,0.26 -0.13,0.45 -0.12,0.23 -0.13,0.26 -0.12,0.62 0.02,0.78 0.25,1.42 0.65,1.82 0.12,0.12 0.23,0.24 0.23,0.25 0,0.06 -0.25,0.01 -0.44,-0.07 C 24.85,8.34 24.65,8.07 24.46,7.47 24.35,7.14 24.33,6.99 24.31,6.58 c -0.01,-0.43 -0.00,-0.55 0.08,-0.96 0.11,-0.53 0.14,-1.15 0.04,-1.19 -0.07,-0.02 -0.40,0.30 -0.51,0.52 -0.08,0.17 -0.09,0.22 -0.09,1.02 -5.84e-4,0.61 -0.01,0.85 -0.05,0.89 -0.03,0.04 -0.04,0.13 -0.01,0.39 0.03,0.34 0.03,0.37 -0.02,0.33 C 23.70,7.56 23.67,7.33 23.65,6.83 23.62,6.36 23.59,6.15 23.54,6.12 c -0.01,-0.01 -0.03,-5.84e-4 -0.03,0.02 0,0.02 -0.03,0.11 -0.06,0.20 -0.06,0.13 -0.07,0.15 -0.17,0.13 -0.15,-0.03 -0.20,0.07 -0.17,0.40 0.04,0.49 0.19,1.01 0.49,1.64 0.20,0.44 0.96,1.56 1.33,1.96 0.16,0.17 0.30,0.33 0.30,0.35 0,0.10 -0.94,-0.93 -1.23,-1.35 C 23.91,9.39 23.82,9.26 23.78,9.22 23.67,9.08 23.26,8.28 23.13,7.92 22.98,7.55 22.82,6.83 22.84,6.64 22.85,6.46 22.80,6.33 22.68,6.24 22.60,6.18 22.56,6.17 22.46,6.21 22.39,6.23 22.19,6.24 22.02,6.23 21.74,6.22 21.71,6.22 21.59,6.32 c -0.06,0.05 -0.14,0.10 -0.16,0.10 -0.02,0 -0.10,0.05 -0.16,0.11 -0.06,0.06 -0.13,0.11 -0.16,0.11 -0.02,0 -0.13,-0.08 -0.24,-0.19 -0.15,-0.15 -0.20,-0.22 -0.21,-0.34 -0.01,-0.23 -0.11,-0.21 -0.39,0.06 -0.12,0.13 -0.28,0.34 -0.33,0.45 -0.05,0.12 -0.21,0.33 -0.37,0.49 -0.15,0.15 -0.32,0.36 -0.38,0.46 -0.05,0.10 -0.19,0.32 -0.29,0.48 -0.22,0.35 -0.39,0.66 -0.39,0.73 0,0.02 -0.02,0.07 -0.05,0.09 -0.09,0.08 -0.24,0.44 -0.29,0.73 -0.02,0.15 -0.06,0.31 -0.08,0.35 -0.01,0.04 -0.05,0.27 -0.08,0.50 -0.05,0.45 -0.01,0.90 0.10,1.08 0.05,0.08 0.25,0.14 0.65,0.19 0.12,0.01 0.24,0.04 0.26,0.06 0.09,0.07 0.18,0.00 0.15,-0.12 -0.01,-0.06 -0.00,-0.12 0.02,-0.14 0.08,-0.05 0.64,-0.08 0.71,-0.04 0.11,0.07 0.37,-0.05 0.39,-0.19 0.01,-0.10 0.03,-0.11 0.24,-0.14 0.20,-0.03 0.23,-0.02 0.33,0.04 0.13,0.10 0.33,0.11 0.33,0.02 0,-0.03 0.02,-0.11 0.06,-0.17 0.06,-0.10 0.05,-0.11 -0.03,-0.30 -0.05,-0.10 -0.10,-0.20 -0.10,-0.22 0,-0.01 -0.07,-0.15 -0.15,-0.29 -0.14,-0.24 -0.19,-0.43 -0.13,-0.49 0.01,-0.01 0.07,0.00 0.13,0.03 0.09,0.04 0.12,0.04 0.19,0.00 0.07,-0.04 0.10,-0.02 0.28,0.14 0.13,0.13 0.21,0.25 0.24,0.36 0.02,0.09 0.08,0.19 0.13,0.22 0.04,0.03 0.09,0.09 0.09,0.14 0,0.09 0.16,0.40 0.29,0.54 0.04,0.05 0.09,0.14 0.12,0.21 0.03,0.09 0.06,0.13 0.15,0.14 0.07,0.00 0.12,0.05 0.16,0.12 0.08,0.16 0.55,0.58 0.78,0.70 0.14,0.07 0.28,0.11 0.49,0.12 0.15,0.01 0.28,0.03 0.28,0.04 0,0.01 -0.12,0.09 -0.26,0.17 -0.28,0.16 -0.47,0.18 -0.86,0.12 l -0.19,-0.03 0.15,0.13 0.15,0.13 -0.11,0.09 c -0.06,0.05 -0.14,0.10 -0.17,0.10 -0.08,0.00 -0.36,0.15 -0.36,0.20 0,0.02 -0.03,0.07 -0.07,0.11 -0.06,0.06 -0.13,0.07 -0.33,0.07 -0.17,0 -0.26,0.01 -0.30,0.05 -0.06,0.07 -0.02,0.17 0.09,0.21 0.07,0.02 0.10,0.06 0.09,0.14 -7.3e-4,0.14 -0.03,0.19 -0.19,0.28 -0.08,0.04 -0.14,0.10 -0.16,0.17 -0.01,0.05 -0.06,0.16 -0.11,0.24 -0.08,0.12 -0.09,0.13 -0.22,0.09 -0.23,-0.06 -0.26,-0.02 -0.23,0.24 0.02,0.23 -0.01,0.39 -0.10,0.39 -0.02,0 -0.08,-0.03 -0.14,-0.08 -0.05,-0.04 -0.13,-0.07 -0.17,-0.05 -0.11,0.03 -0.24,0.06 -0.45,0.09 -0.19,0.02 -0.19,0.03 -0.19,0.16 -5.85e-4,0.24 -0.04,0.31 -0.18,0.29 -0.12,-0.02 -0.27,0.06 -0.27,0.17 0,0.02 -0.04,0.08 -0.09,0.11 -0.05,0.03 -0.10,0.09 -0.11,0.13 -0.01,0.04 -0.06,0.09 -0.12,0.12 -0.08,0.04 -0.11,0.03 -0.19,-0.03 -0.04,-0.04 -0.18,-0.12 -0.30,-0.16 C 18.40,16.27 18.29,16.19 18.07,15.88 17.89,15.64 17.82,15.47 17.72,15.04 c -0.01,-0.07 -0.05,-0.14 -0.08,-0.15 -0.04,-0.01 -0.04,0.02 -0.02,0.19 0.01,0.11 0.05,0.27 0.08,0.35 0.02,0.07 0.08,0.27 0.11,0.43 0.03,0.16 0.12,0.41 0.18,0.55 0.34,0.75 0.46,1.14 0.34,1.15 -0.02,0.00 -0.08,0.00 -0.11,0.00 -0.15,0.01 -0.06,0.15 0.34,0.52 0.46,0.42 0.60,0.59 0.53,0.66 -0.06,0.06 -0.16,-0.01 -0.58,-0.44 -0.50,-0.51 -0.55,-0.57 -0.54,-0.77 0.00,-0.13 -0.01,-0.18 -0.09,-0.26 -0.05,-0.05 -0.18,-0.20 -0.28,-0.34 -0.09,-0.13 -0.19,-0.24 -0.21,-0.24 -0.02,0 -0.14,0.08 -0.27,0.18 -0.27,0.20 -0.61,0.70 -0.73,1.05 -0.03,0.11 -0.09,0.25 -0.12,0.29 -0.02,0.04 -0.07,0.17 -0.11,0.28 -0.03,0.11 -0.09,0.22 -0.12,0.25 -0.04,0.03 -0.05,0.02 -0.05,-0.07 0,-0.06 0.02,-0.26 0.06,-0.44 0.04,-0.25 0.11,-0.42 0.35,-0.85 0.26,-0.49 0.31,-0.56 0.59,-0.79 0.16,-0.14 0.30,-0.28 0.30,-0.31 0,-0.02 -0.04,-0.11 -0.10,-0.19 -0.06,-0.07 -0.13,-0.20 -0.16,-0.28 -0.09,-0.24 -0.18,-0.23 -0.42,0.03 -0.11,0.12 -0.25,0.31 -0.31,0.41 -0.05,0.09 -0.15,0.25 -0.21,0.33 -0.21,0.31 -0.45,1.08 -0.54,1.74 -0.04,0.31 -0.02,1.13 0.03,1.43 0.15,0.75 0.55,1.59 1.12,2.32 0.23,0.30 0.37,0.34 0.89,0.27 0.43,-0.05 0.48,-0.03 0.51,0.24 0.01,0.15 0.00,0.18 -0.10,0.28 -0.09,0.08 -0.16,0.11 -0.33,0.13 -0.40,0.03 -0.38,0.02 -0.38,0.30 0,0.13 0.03,0.36 0.07,0.50 0.07,0.27 0.37,1.01 0.54,1.36 0.14,0.30 0.26,0.71 0.23,0.82 -0.01,0.06 0.00,0.15 0.05,0.26 0.04,0.08 0.08,0.18 0.08,0.20 0,0.02 0.03,0.08 0.07,0.12 0.05,0.06 0.08,0.14 0.08,0.28 0.00,0.11 0.00,0.37 0.01,0.57 0.00,0.24 -0.00,0.42 -0.04,0.50 -0.02,0.07 -0.05,0.17 -0.05,0.24 0,0.06 -0.01,0.12 -0.03,0.15 -0.02,0.02 -0.04,0.18 -0.05,0.37 -0.04,0.84 -0.14,1.29 -0.36,1.62 -0.10,0.16 -0.12,0.22 -0.10,0.30 0.02,0.06 0.01,0.10 -0.02,0.13 -0.03,0.02 -0.05,0.06 -0.05,0.08 0,0.02 -0.05,0.13 -0.12,0.24 -0.06,0.11 -0.13,0.25 -0.15,0.32 -0.01,0.09 -0.04,0.12 -0.14,0.13 -0.15,0.01 -0.18,0.07 -0.15,0.25 0.02,0.13 0.00,0.16 -0.14,0.30 -0.08,0.08 -0.20,0.18 -0.26,0.20 -0.06,0.02 -0.09,0.06 -0.09,0.12 -8.76e-4,0.04 -0.05,0.15 -0.11,0.22 -0.06,0.07 -0.11,0.16 -0.11,0.20 0,0.03 0.05,0.15 0.12,0.25 0.11,0.17 0.19,0.35 0.48,1.04 0.04,0.11 0.14,0.29 0.21,0.39 0.06,0.10 0.16,0.28 0.22,0.41 0.05,0.12 0.13,0.27 0.17,0.34 0.04,0.06 0.14,0.23 0.22,0.38 0.19,0.37 0.81,1.40 1.05,1.74 0.11,0.16 0.62,0.95 0.77,1.19 0.06,0.10 0.14,0.23 0.17,0.28 0.03,0.05 0.14,0.22 0.25,0.39 0.27,0.44 0.44,0.67 0.66,0.94 0.10,0.13 0.29,0.37 0.42,0.53 0.12,0.16 0.28,0.37 0.36,0.46 0.35,0.41 0.70,0.84 0.81,1.00 0.14,0.20 0.27,0.28 0.35,0.20 0.05,-0.05 0.15,-0.36 0.23,-0.77 0.07,-0.35 0.23,-0.72 0.75,-1.74 0.66,-1.31 0.85,-1.68 0.85,-1.72 0,-0.01 0.04,-0.09 0.10,-0.17 0.11,-0.17 0.94,-1.82 0.99,-1.97 0.01,-0.05 0.09,-0.23 0.17,-0.39 0.08,-0.16 0.16,-0.34 0.17,-0.39 0.02,-0.10 0.03,-0.12 0.27,-0.67 0.22,-0.50 0.22,-0.50 -0.20,-0.72 -0.20,-0.10 -0.53,-0.28 -0.75,-0.41 -0.21,-0.12 -0.50,-0.30 -0.65,-0.39 -0.56,-0.32 -2.23,-1.50 -2.81,-1.97 -0.20,-0.16 -0.48,-0.39 -0.61,-0.49 -0.47,-0.38 -1.06,-1.03 -1.49,-1.65 -0.20,-0.28 -0.55,-0.96 -0.55,-1.06 0,-0.11 0.07,-0.09 0.15,0.04 0.15,0.28 0.53,0.75 0.96,1.18 0.75,0.75 1.08,1.04 1.80,1.55 0.06,0.04 0.31,0.22 0.55,0.40 0.24,0.17 0.49,0.36 0.57,0.41 0.07,0.05 0.29,0.20 0.47,0.33 0.18,0.13 0.38,0.26 0.45,0.30 0.06,0.03 0.23,0.15 0.38,0.25 0.15,0.10 0.28,0.19 0.29,0.19 0.01,0 0.12,0.06 0.24,0.15 1.10,0.75 2.11,1.16 3.34,1.36 0.50,0.08 1.08,0.07 1.36,-0.02 0.31,-0.10 0.64,-0.39 0.96,-0.83 0.27,-0.38 0.28,-0.39 0.54,-0.97 0.09,-0.20 0.19,-0.42 0.23,-0.47 0.03,-0.05 0.09,-0.20 0.14,-0.33 0.05,-0.15 0.10,-0.25 0.16,-0.28 0.13,-0.06 0.32,-0.22 0.32,-0.26 0,-0.03 0.21,-0.41 0.52,-0.90 0.06,-0.09 0.17,-0.29 0.25,-0.43 0.08,-0.14 0.26,-0.46 0.41,-0.71 0.14,-0.24 0.27,-0.48 0.27,-0.53 0,-0.04 -0.03,-0.10 -0.08,-0.14 -0.07,-0.06 -0.08,-0.09 -0.05,-0.27 0.02,-0.19 0.06,-0.24 0.41,-0.65 0.21,-0.24 0.40,-0.45 0.42,-0.48 0.05,-0.05 0.38,-0.44 0.46,-0.57 0.58,-0.84 0.72,-1.11 0.78,-1.57 0.02,-0.17 0.05,-0.32 0.06,-0.33 0.00,-0.01 0.02,-0.56 0.03,-1.21 0.01,-1.26 0.04,-1.60 0.14,-1.70 0.10,-0.10 0.15,-0.02 0.14,0.23 -5.84e-4,0.13 0.00,0.58 0.01,1.00 0.02,0.81 -0.02,1.83 -0.11,2.46 -0.08,0.56 -0.31,1.22 -0.54,1.55 -0.08,0.11 -0.14,0.21 -0.14,0.23 0,0.01 -0.10,0.16 -0.22,0.34 -0.26,0.37 -0.31,0.45 -0.47,0.70 -0.06,0.09 -0.17,0.24 -0.23,0.31 -0.26,0.28 -0.42,0.56 -0.82,1.37 -0.06,0.13 -0.18,0.32 -0.25,0.43 -0.07,0.10 -0.20,0.31 -0.27,0.45 -0.07,0.14 -0.17,0.32 -0.22,0.39 -0.19,0.30 -0.38,0.63 -0.38,0.66 0,0.02 -0.06,0.11 -0.14,0.21 -0.14,0.17 -0.22,0.32 -0.35,0.68 -0.03,0.10 -0.15,0.29 -0.26,0.41 -0.10,0.12 -0.22,0.30 -0.27,0.39 -0.17,0.39 -1.02,1.07 -1.48,1.19 -0.29,0.07 -1.03,0.12 -1.21,0.08 -0.09,-0.02 -0.27,-0.03 -0.41,-0.04 -0.13,0 -0.45,-0.05 -0.72,-0.12 -0.39,-0.10 -0.50,-0.11 -0.58,-0.08 -0.10,0.04 -0.27,0.34 -0.36,0.64 -0.03,0.10 -0.12,0.32 -0.20,0.49 -0.08,0.17 -0.17,0.39 -0.20,0.49 -0.02,0.09 -0.14,0.38 -0.25,0.63 -0.10,0.25 -0.24,0.59 -0.31,0.76 -0.06,0.17 -0.15,0.37 -0.21,0.45 -0.05,0.08 -0.10,0.15 -0.10,0.16 0,0.01 -0.04,0.12 -0.10,0.25 -0.05,0.12 -0.14,0.34 -0.18,0.47 -0.07,0.23 -0.08,0.25 -0.01,0.59 0.03,0.19 0.09,0.42 0.12,0.50 0.04,0.10 0.06,0.34 0.07,0.95 0.01,0.79 7.3e-4,1.03 -0.08,1.78 -0.05,0.44 -0.07,0.68 -0.09,1.02 -0.01,0.14 -0.02,0.28 -0.03,0.31 -0.01,0.03 -0.04,0.25 -0.08,0.50 -0.09,0.67 -0.12,0.83 -0.23,1.14 -0.05,0.16 -0.10,0.33 -0.10,0.37 0,0.22 -0.17,0.28 -0.31,0.09 z m 3.40,-11.76 c -0.02,-0.02 -0.10,0.02 -0.10,0.07 0,0.02 0.02,0.02 0.06,-0.00 0.03,-0.02 0.05,-0.05 0.04,-0.06 z M 11.42,32.18 c 0.04,-0.04 0.04,-0.07 0.00,-0.22 -0.02,-0.09 -0.10,-0.22 -0.15,-0.28 -0.13,-0.15 -0.31,-0.47 -0.31,-0.56 0,-0.03 -0.03,-0.11 -0.08,-0.15 -0.05,-0.05 -0.09,-0.16 -0.10,-0.28 -0.01,-0.11 -0.05,-0.24 -0.11,-0.31 -0.05,-0.06 -0.09,-0.14 -0.09,-0.17 0,-0.02 -0.02,-0.15 -0.06,-0.28 -0.05,-0.20 -0.08,-0.24 -0.23,-0.33 -0.09,-0.05 -0.20,-0.10 -0.24,-0.10 -0.03,0 -0.10,-0.02 -0.14,-0.06 -0.08,-0.07 -0.19,-0.04 -0.19,0.05 7.30e-4,0.08 0.05,0.17 0.29,0.50 0.21,0.29 0.21,0.33 0.01,0.56 -0.11,0.13 -0.11,0.14 -0.07,0.27 0.06,0.16 0.02,0.21 -0.16,0.22 -0.12,0.00 -0.13,0.01 -0.12,0.12 0.00,0.09 0.03,0.29 0.04,0.37 0.00,0.01 0.06,0.05 0.14,0.09 0.07,0.04 0.13,0.08 0.13,0.10 0,0.05 0.28,0.35 0.40,0.41 0.23,0.12 0.94,0.14 1.06,0.03 z m 3.96,-0.89 c 0.11,-0.10 0.12,-0.27 0.01,-0.29 -0.10,-0.02 -0.09,-0.07 0.07,-0.32 0.14,-0.21 0.15,-0.21 0.32,-0.21 0.15,0 0.17,-0.01 0.19,-0.09 0.00,-0.06 -0.01,-0.11 -0.07,-0.16 -0.07,-0.05 -0.08,-0.08 -0.04,-0.14 0.11,-0.16 0.56,-0.99 0.56,-1.03 0,-0.08 -0.08,-0.09 -0.18,-0.02 -0.07,0.05 -0.11,0.05 -0.18,0.01 -0.12,-0.06 -0.16,0.00 -0.14,0.27 0.01,0.20 0.00,0.23 -0.04,0.21 -0.03,-0.01 -0.09,-0.03 -0.13,-0.04 -0.12,-0.03 -0.28,-0.19 -0.35,-0.36 -0.14,-0.34 -0.26,-0.68 -0.28,-0.81 -0.03,-0.21 -0.09,-0.29 -0.30,-0.41 -0.47,-0.25 -0.81,-0.55 -0.81,-0.71 0,-0.05 0.02,-0.11 0.06,-0.12 0.03,-0.01 0.05,-0.05 0.04,-0.10 -0.03,-0.13 0.01,-0.18 0.18,-0.20 0.23,-0.03 0.67,0.07 0.94,0.23 0.12,0.07 0.28,0.16 0.35,0.20 0.21,0.11 0.37,0.25 0.45,0.42 0.04,0.08 0.13,0.19 0.19,0.22 0.11,0.06 0.12,0.08 0.13,0.34 0.01,0.21 0.03,0.27 0.08,0.28 0.04,0.00 0.09,-0.05 0.16,-0.23 0.06,-0.16 0.12,-0.26 0.18,-0.28 0.04,-0.02 0.08,-0.06 0.08,-0.09 5.84e-4,-0.03 0.02,-0.09 0.05,-0.13 0.06,-0.08 0.07,-0.30 0.01,-0.30 -0.02,0 -0.06,-0.04 -0.10,-0.09 -0.05,-0.08 -0.05,-0.12 -8.76e-4,-0.39 0.08,-0.39 0.07,-0.72 -0.01,-1.09 -0.04,-0.16 -0.09,-0.40 -0.12,-0.52 -0.06,-0.27 -0.15,-0.48 -0.21,-0.46 -0.02,0.00 -0.03,0.04 -0.02,0.07 0.00,0.03 0.01,0.19 0.02,0.37 0.00,0.31 0.03,0.40 0.19,0.62 0.17,0.23 -0.07,0.32 -0.28,0.10 -0.10,-0.11 -0.14,-0.12 -0.35,-0.12 -0.23,-0.00 -0.24,-0.00 -0.45,-0.21 -0.20,-0.20 -0.22,-0.24 -0.38,-0.71 -0.15,-0.46 -0.16,-0.53 -0.19,-1.11 -0.02,-0.56 -0.01,-0.65 0.06,-1.03 0.10,-0.46 0.12,-0.54 0.29,-0.90 0.13,-0.29 0.13,-0.39 0.03,-0.52 -0.04,-0.05 -0.07,-0.11 -0.07,-0.13 -4.39e-4,-0.01 -0.08,-0.19 -0.17,-0.38 -0.17,-0.35 -0.37,-1.00 -0.38,-1.26 -0.01,-0.39 -0.12,-0.45 -0.19,-0.11 -0.02,0.13 -0.07,0.33 -0.10,0.42 -0.03,0.09 -0.07,0.30 -0.09,0.45 -0.07,0.57 -0.07,0.57 -0.24,0.90 -0.04,0.08 -0.06,0.18 -0.05,0.21 0.05,0.17 0.05,0.29 0.00,0.51 -0.03,0.12 -0.05,0.29 -0.05,0.36 -0.00,0.12 -0.06,0.38 -0.17,0.74 -0.03,0.10 -0.04,0.25 -0.03,0.40 0.01,0.20 0.00,0.26 -0.06,0.37 -0.05,0.08 -0.08,0.20 -0.08,0.32 -0.00,0.12 -0.03,0.22 -0.09,0.32 -0.06,0.10 -0.08,0.16 -0.06,0.25 0.01,0.08 0.00,0.14 -0.04,0.20 -0.05,0.05 -0.07,0.15 -0.08,0.30 -0.00,0.12 -0.04,0.33 -0.08,0.46 -0.04,0.13 -0.09,0.32 -0.10,0.43 -0.05,0.42 -0.30,0.53 -0.35,0.15 -0.02,-0.19 -0.07,-0.24 -0.15,-0.17 -0.04,0.03 -0.07,0.03 -0.15,-0.02 -0.05,-0.03 -0.11,-0.08 -0.13,-0.11 -0.03,-0.05 -0.43,-0.33 -0.48,-0.33 -0.09,0 -0.15,0.06 -0.19,0.18 -0.06,0.18 -0.18,0.21 -0.28,0.08 -0.08,-0.11 -0.18,-0.13 -0.18,-0.04 0,0.03 0.02,0.07 0.05,0.10 0.08,0.07 0.07,0.09 -0.10,0.17 -0.08,0.04 -0.15,0.09 -0.15,0.12 0,0.08 0.24,0.29 0.34,0.29 0.04,5.84e-4 0.16,0.06 0.25,0.14 0.09,0.07 0.21,0.14 0.27,0.16 0.11,0.02 0.21,0.06 0.57,0.23 0.17,0.08 0.23,0.13 0.26,0.23 0.03,0.11 0.03,0.45 8.76e-4,0.43 -0.19,-0.07 -0.24,-0.05 -0.39,0.08 -0.18,0.17 -0.28,0.38 -0.28,0.55 0.00,0.06 -0.02,0.13 -0.06,0.16 -0.05,0.04 -0.05,0.05 -0.01,0.11 0.07,0.09 0.17,0.07 0.28,-0.03 0.05,-0.05 0.11,-0.09 0.13,-0.09 0.07,0.01 0.29,-0.09 0.32,-0.16 0.01,-0.03 0.00,-0.11 -0.02,-0.18 -0.02,-0.07 -0.02,-0.12 -0.00,-0.15 0.02,-0.02 0.05,-0.00 0.07,0.06 0.05,0.14 0.15,0.13 0.16,-0.00 0.00,-0.06 0.01,-0.14 0.01,-0.18 0.00,-0.04 0.01,-0.13 0.01,-0.21 0.00,-0.15 0.05,-0.13 0.14,0.03 0.05,0.10 0.05,0.12 -2.92e-4,0.18 -0.03,0.03 -0.06,0.08 -0.06,0.09 0,0.05 0.17,0.02 0.28,-0.05 0.11,-0.08 0.15,-0.08 0.27,0.01 0.05,0.03 0.08,0.03 0.13,-0.00 0.07,-0.06 0.34,-0.05 0.57,0.00 0.12,0.03 0.16,0.07 0.32,0.38 0.16,0.31 0.18,0.34 0.31,0.37 0.07,0.01 0.15,0.03 0.18,0.05 0.06,0.03 0.06,0.20 0.00,0.24 -0.02,0.01 -0.03,0.09 -0.02,0.19 0.01,0.09 0.02,0.19 0.02,0.22 0.00,0.03 0.03,0.15 0.06,0.26 0.03,0.11 0.05,0.21 0.04,0.23 -0.00,0.01 0.00,0.17 0.01,0.35 0.02,0.25 0.01,0.35 -0.03,0.47 -0.04,0.11 -0.05,0.16 -0.01,0.20 0.03,0.04 0.03,0.08 -0.00,0.17 -0.08,0.20 0.02,0.26 0.18,0.11 z m 0.13,-1.10 c 0,-0.02 0.02,-0.03 0.05,-0.03 0.03,0 0.05,0.01 0.05,0.03 0,0.02 -0.02,0.03 -0.05,0.03 -0.03,0 -0.05,-0.01 -0.05,-0.03 z m 0.85,-0.07 c 0.01,-0.04 0.06,-0.11 0.12,-0.15 0.11,-0.09 0.12,-0.16 0.02,-0.16 -0.07,0 -0.28,0.26 -0.28,0.35 0,0.07 0.11,0.04 0.13,-0.03 z m 0.34,-0.74 c 0.08,-0.07 0.09,-0.13 0.02,-0.13 -0.08,0 -0.20,0.10 -0.17,0.15 0.03,0.06 0.06,0.05 0.14,-0.02 z M 9.90,29.10 c 0.08,-0.14 0.11,-0.14 0.14,-0.03 0.02,0.11 0.12,0.07 0.12,-0.04 0,-0.07 -0.01,-0.09 -0.08,-0.08 -0.05,0.00 -0.10,-0.02 -0.13,-0.06 -0.02,-0.04 -0.05,-0.07 -0.08,-0.07 -0.04,0 -0.10,0.15 -0.14,0.32 -0.03,0.15 0.08,0.14 0.17,-0.00 z m 7.06,-0.11 c 0,-0.03 -0.04,-0.06 -0.08,-0.07 -0.06,-0.00 -0.08,0.00 -0.08,0.07 0,0.06 0.02,0.08 0.08,0.07 0.04,-0.00 0.08,-0.03 0.08,-0.07 z M 9.13,27.80 c 0.03,-0.03 0.10,-0.16 0.16,-0.28 0.10,-0.24 0.33,-0.49 0.77,-0.87 0.34,-0.29 0.35,-0.31 0.32,-0.38 -0.02,-0.07 -0.07,-0.06 -0.32,0.03 -0.28,0.12 -0.45,0.22 -0.70,0.44 -0.26,0.23 -0.37,0.41 -0.34,0.54 0.01,0.05 -0.00,0.14 -0.03,0.21 -0.08,0.17 -0.08,0.36 0.01,0.36 0.04,0 0.10,-0.03 0.13,-0.07 z m 0.69,-1.81 c 0.07,-0.07 0.14,-0.08 0.39,-0.08 0.28,0 0.30,-0.00 0.38,-0.10 0.07,-0.09 0.07,-0.11 0.02,-0.17 -0.03,-0.03 -0.15,-0.07 -0.27,-0.09 -0.11,-0.01 -0.27,-0.04 -0.34,-0.06 -0.11,-0.02 -0.14,-0.00 -0.28,0.14 -0.10,0.11 -0.14,0.18 -0.12,0.21 0.06,0.06 0.04,0.10 -0.03,0.10 -0.09,0 -0.18,0.09 -0.14,0.16 0.04,0.06 0.29,0.00 0.41,-0.09 z m 3.17,-0.55 c 0.08,-0.10 0.17,-0.43 0.12,-0.47 -0.06,-0.06 -0.10,0.00 -0.15,0.21 -0.02,0.09 -0.05,0.21 -0.06,0.24 -0.03,0.08 0.02,0.09 0.09,0.01 z M 12.85,25.21 c 0.05,-0.12 0.02,-0.20 -0.05,-0.20 -0.06,0 -0.10,0.08 -0.10,0.22 0,0.13 0.09,0.12 0.15,-0.02 z m -0.47,-0.24 c 0.04,-0.11 0.04,-0.13 -0.07,-0.23 -0.07,-0.07 -0.17,-0.11 -0.24,-0.11 -0.13,0 -0.15,0.06 -0.05,0.22 0.17,0.28 0.28,0.32 0.37,0.12 z m 1.08,-1.29 c 0.01,-0.08 0.01,-0.12 -0.01,-0.12 -0.02,0 -0.04,0.00 -0.04,0.00 -0.03,0.25 -0.04,0.32 -0.00,0.28 0.02,-0.02 0.05,-0.09 0.06,-0.16 z m 22.67,-3.06 c 0,-0.05 -0.09,-0.12 -0.16,-0.12 -0.07,0 -0.09,0.08 -0.04,0.13 0.03,0.03 0.21,0.03 0.21,-0.00 z m -20.59,-4.76 c 0.03,-0.06 0.17,-0.22 0.29,-0.36 0.24,-0.27 0.25,-0.28 0.19,-0.72 -0.02,-0.16 -0.04,-0.38 -0.04,-0.50 -0.00,-0.15 -0.03,-0.22 -0.07,-0.25 -0.08,-0.05 -0.11,-0.02 -0.15,0.18 -0.05,0.31 -0.10,0.48 -0.16,0.60 -0.03,0.06 -0.07,0.23 -0.08,0.36 -0.01,0.13 -0.06,0.33 -0.10,0.43 -0.04,0.09 -0.07,0.22 -0.07,0.27 0,0.13 0.13,0.12 0.22,-0.01 z m 22.12,-1.13 c 0.26,-0.31 0.43,-0.58 0.39,-0.63 -0.05,-0.05 -0.23,0.05 -0.29,0.16 -0.09,0.18 -0.23,0.04 -0.29,-0.29 -0.03,-0.16 -0.06,-0.24 -0.10,-0.24 -0.03,0 -0.05,0.01 -0.05,0.03 0.00,0.18 0.06,0.97 0.08,1.04 0.03,0.13 0.10,0.10 0.26,-0.07 z m -0.31,-1.72 c 0.03,-0.07 0.07,-0.13 0.09,-0.13 0.01,0 0.16,-0.11 0.32,-0.26 0.16,-0.14 0.39,-0.33 0.51,-0.41 0.82,-0.57 1.39,-1.31 1.51,-1.97 0.05,-0.31 0.03,-0.42 -0.08,-0.58 -0.06,-0.08 -0.10,-0.10 -0.18,-0.08 -0.09,0.02 -0.11,0.00 -0.18,-0.18 C 39.13,8.80 39.16,8.83 38.95,8.86 38.84,8.87 38.69,8.85 38.50,8.79 38.13,8.68 38.01,8.55 37.66,7.85 37.52,7.56 37.52,7.55 37.56,7.31 c 0.05,-0.30 0.28,-0.61 0.60,-0.80 0.29,-0.17 0.43,-0.20 0.55,-0.09 0.11,0.09 0.07,0.09 0.28,0.02 0.09,-0.03 0.21,-0.05 0.26,-0.05 0.05,0 0.18,-0.01 0.29,-0.04 0.37,-0.07 0.50,-0.33 0.28,-0.53 C 39.61,5.57 39.33,5.43 38.97,5.36 37.88,5.15 37.68,5.04 37.00,4.24 36.61,3.80 36.32,3.51 36.25,3.51 c -0.03,0 -0.10,0.06 -0.15,0.14 -0.05,0.09 -0.10,0.13 -0.14,0.11 -0.03,-0.01 -0.10,-0.03 -0.16,-0.04 -0.05,-0.01 -0.12,-0.04 -0.15,-0.06 -0.02,-0.02 -0.20,-0.08 -0.39,-0.13 -0.19,-0.05 -0.47,-0.13 -0.62,-0.17 -0.15,-0.04 -0.41,-0.09 -0.59,-0.11 -0.17,-0.01 -0.36,-0.04 -0.42,-0.06 -0.17,-0.03 -0.20,0.08 -0.05,0.20 0.12,0.09 0.23,0.11 0.33,0.05 0.04,-0.02 0.10,0.00 0.21,0.09 0.08,0.07 0.26,0.18 0.38,0.25 0.12,0.06 0.24,0.14 0.28,0.17 0.05,0.03 0.09,0.02 0.22,-0.09 0.21,-0.19 0.31,-0.21 0.41,-0.11 0.04,0.04 0.16,0.11 0.26,0.15 0.09,0.04 0.21,0.11 0.25,0.16 0.08,0.09 0.07,0.14 -0.17,0.48 -0.08,0.12 -0.19,0.26 -0.22,0.32 -0.08,0.13 -0.79,0.78 -0.92,0.85 -0.11,0.05 -0.52,0.03 -0.57,-0.03 -0.05,-0.08 -0.24,-0.02 -0.37,0.10 -0.07,0.07 -0.16,0.13 -0.19,0.14 -0.03,5.84e-4 -0.09,0.02 -0.13,0.05 -0.11,0.09 -0.21,0.06 -0.28,-0.06 -0.07,-0.15 -0.13,-0.15 -0.34,0.01 -0.23,0.18 -0.55,0.37 -0.63,0.37 -0.08,4.38e-4 -0.15,-0.11 -0.15,-0.25 0,-0.13 -0.09,-0.16 -0.25,-0.06 -0.08,0.04 -0.22,0.08 -0.36,0.09 -0.23,0.01 -0.23,0.01 -0.24,-0.09 -0.00,-0.06 0.01,-0.15 0.04,-0.20 0.07,-0.11 0.07,-0.15 0.00,-0.23 -0.07,-0.07 -0.26,-0.02 -0.36,0.08 -0.22,0.24 -0.32,0.30 -0.53,0.31 -0.14,0.01 -0.22,-0.00 -0.25,-0.03 -0.07,-0.09 -0.09,-0.31 -0.04,-0.45 0.03,-0.09 0.03,-0.14 0.00,-0.17 -0.04,-0.04 -0.10,-0.01 -0.65,0.29 -0.14,0.08 -0.23,0.10 -0.43,0.10 -0.13,-0.00 -0.33,-0.02 -0.43,-0.06 -0.16,-0.05 -0.19,-0.08 -0.26,-0.25 -0.04,-0.10 -0.08,-0.21 -0.08,-0.25 0,-0.03 -0.02,-0.06 -0.06,-0.08 -0.07,-0.03 -0.43,0.29 -0.53,0.49 -0.04,0.07 -0.10,0.16 -0.14,0.19 -0.06,0.04 -0.07,0.04 -0.17,-0.07 -0.15,-0.18 -0.20,-0.16 -0.20,0.10 0,0.65 0.36,1.01 1.12,1.11 0.21,0.02 0.45,0.03 0.54,0.02 0.11,-0.01 0.16,-0.00 0.17,0.03 0.03,0.09 0.68,0.03 0.80,-0.07 0.07,-0.07 0.10,-0.07 0.19,-0.03 0.19,0.08 0.45,0.05 0.63,-0.07 0.13,-0.10 0.17,-0.11 0.33,-0.09 0.09,0.01 0.20,0.04 0.23,0.05 0.04,0.02 0.09,-0.00 0.17,-0.07 l 0.11,-0.10 1.04,-0.00 c 0.57,-0.00 1.09,0.01 1.16,0.03 0.12,0.03 0.39,0.08 0.74,0.13 0.10,0.01 0.20,0.04 0.23,0.07 0.02,0.03 0.08,0.05 0.13,0.05 0.21,0 0.76,0.47 0.95,0.82 0.12,0.22 0.13,0.27 0.09,0.37 -0.02,0.06 -0.03,0.14 -0.02,0.17 0.01,0.03 -0.00,0.09 -0.04,0.13 -0.08,0.09 -0.05,0.19 0.07,0.19 0.11,0 0.18,-0.08 0.24,-0.25 0.06,-0.19 0.15,-0.17 0.32,0.07 0.12,0.18 0.16,0.21 0.23,0.20 0.05,-0.01 0.10,0.00 0.14,0.04 0.09,0.11 0.27,0.49 0.31,0.67 0.06,0.27 0.13,0.18 0.12,-0.14 -0.01,-0.31 0.02,-0.40 0.17,-0.40 0.11,0 0.15,0.05 0.26,0.39 0.10,0.31 0.18,0.36 0.18,0.11 0,-0.22 0.05,-0.27 0.23,-0.21 0.15,0.04 0.16,0.10 0.22,0.65 0.02,0.24 0.06,0.26 0.13,0.07 0.03,-0.11 0.06,-0.13 0.20,-0.15 0.08,-0.00 0.16,-0.00 0.17,0.01 0.04,0.07 0.03,0.77 -0.01,0.86 -0.02,0.05 -0.08,0.19 -0.13,0.31 -0.10,0.26 -0.36,0.58 -0.94,1.18 l -0.43,0.44 0.06,0.28 c 0.05,0.25 0.10,0.38 0.15,0.38 0.00,0 0.04,-0.06 0.07,-0.13 z M 35.88,9.73 C 36.18,9.47 36.26,9.37 36.26,9.25 c 0,-0.11 -0.09,-0.05 -0.27,0.15 -0.09,0.11 -0.20,0.22 -0.24,0.23 -0.12,0.04 -0.27,0.18 -0.27,0.26 0,0.12 0.09,0.08 0.40,-0.18 z M 39.09,8.09 c 0.01,-0.08 0.04,-0.21 0.05,-0.28 0.02,-0.11 0.01,-0.13 -0.04,-0.11 -0.08,0.01 -0.20,0.41 -0.16,0.52 0.04,0.11 0.12,0.04 0.15,-0.12 z m -8.87,33.49 c -0.05,-0.01 -0.23,-0.03 -0.40,-0.03 -0.31,-0.00 -0.37,-0.01 -1.12,-0.24 -0.42,-0.13 -1.44,-0.62 -1.82,-0.89 -0.24,-0.17 -0.50,-0.41 -0.66,-0.63 -0.05,-0.06 -0.16,-0.22 -0.25,-0.34 -0.24,-0.31 -0.52,-0.79 -0.52,-0.89 0,-0.12 0.09,-0.10 0.36,0.09 0.43,0.32 1.10,0.61 2.10,0.91 0.25,0.07 0.65,0.20 0.89,0.27 0.24,0.07 0.50,0.15 0.59,0.16 0.34,0.05 0.75,0.21 0.91,0.36 0.08,0.08 0.22,0.19 0.29,0.25 0.07,0.06 0.19,0.18 0.26,0.28 0.10,0.14 0.13,0.20 0.13,0.36 -2.92e-4,0.10 -0.01,0.21 -0.03,0.24 -0.06,0.09 -0.51,0.15 -0.71,0.08 z M 29.66,30.44 c -0.31,-0.11 -0.59,-0.17 -0.78,-0.17 -0.14,0 -0.21,-0.02 -0.26,-0.07 -0.03,-0.04 -0.24,-0.13 -0.46,-0.20 C 27.79,29.86 27.73,29.83 27.51,29.62 27.37,29.49 27.23,29.38 27.20,29.36 c -0.03,-0.01 -0.09,-0.07 -0.13,-0.14 -0.03,-0.06 -0.15,-0.21 -0.24,-0.31 -0.09,-0.10 -0.17,-0.21 -0.17,-0.23 0,-0.02 -0.05,-0.09 -0.12,-0.17 -0.06,-0.07 -0.10,-0.14 -0.08,-0.16 0.07,-0.04 0.24,0.06 0.56,0.38 0.32,0.31 0.46,0.42 0.74,0.57 0.12,0.06 0.13,0.06 0.24,-0.04 0.25,-0.24 0.10,-0.40 -0.77,-0.85 -0.63,-0.31 -0.64,-0.32 -0.99,-0.70 -0.42,-0.45 -0.69,-0.78 -0.78,-0.95 -0.03,-0.06 -0.08,-0.14 -0.12,-0.16 -0.07,-0.06 -0.08,-0.18 -0.00,-0.21 0.05,-0.02 2.13,-8.77e-4 2.75,0.02 0.61,0.03 1.20,0.17 1.97,0.47 0.42,0.16 0.50,0.18 0.85,0.19 0.57,0.02 1.14,0.17 1.35,0.35 0.21,0.19 0.22,0.35 0.03,0.50 -0.23,0.16 -0.38,0.23 -0.51,0.21 -0.11,-0.01 -0.14,-0.00 -0.21,0.08 -0.10,0.13 -0.10,0.20 0.00,0.22 0.11,0.01 0.13,0.11 0.05,0.27 -0.03,0.07 -0.12,0.28 -0.20,0.46 -0.14,0.33 -0.17,0.37 -0.51,0.80 -0.20,0.25 -0.45,0.41 -0.63,0.40 -0.06,-0.00 -0.16,0.01 -0.22,0.05 -0.13,0.07 -0.17,0.07 -0.35,0.00 z m 1.40,-1.20 c 0.08,-0.14 0.06,-0.20 -0.07,-0.20 -0.16,0 -0.13,-0.22 0.12,-0.74 0.11,-0.24 0.23,-0.45 0.25,-0.46 0.06,-0.03 0.04,-0.16 -0.02,-0.19 -0.03,-0.01 -0.16,-0.02 -0.29,-0.02 -0.12,0 -0.34,-0.02 -0.48,-0.05 -0.13,-0.03 -0.39,-0.08 -0.56,-0.11 -0.17,-0.03 -0.52,-0.12 -0.77,-0.19 -0.67,-0.20 -2.08,-0.44 -2.64,-0.45 -0.17,-0.00 -0.41,-0.01 -0.52,-0.02 -0.18,-0.02 -0.20,-0.01 -0.20,0.05 0,0.04 0.06,0.15 0.15,0.25 0.08,0.09 0.21,0.26 0.29,0.37 0.18,0.25 0.35,0.40 0.62,0.58 0.67,0.43 1.24,0.62 2.40,0.82 0.10,0.01 0.30,0.06 0.43,0.11 0.42,0.14 0.74,0.21 0.91,0.19 0.15,-0.01 0.16,-0.00 0.20,0.11 0.04,0.15 0.09,0.14 0.19,-0.02 z m -2.15,-0.02 c 0,-0.12 -0.10,-0.21 -0.16,-0.15 -0.03,0.03 -0.03,0.07 0.00,0.14 0.06,0.12 0.15,0.12 0.15,0.00 z m 0.35,0.01 c 0,-0.02 -0.01,-0.03 -0.04,-0.03 -0.02,0 -0.03,0.01 -0.01,0.03 0.01,0.02 0.03,0.03 0.04,0.03 0.00,0 0.01,-0.01 0.01,-0.03 z M 24.80,25.62 c -0.03,-0.03 0.01,-0.29 0.07,-0.39 0.03,-0.05 0.12,-0.10 0.22,-0.13 0.51,-0.13 1.42,-0.49 2.19,-0.87 0.46,-0.22 0.70,-0.30 0.49,-0.16 -0.05,0.03 -0.19,0.15 -0.32,0.25 -0.41,0.35 -1.35,0.89 -1.87,1.08 -0.20,0.07 -0.43,0.16 -0.51,0.19 -0.15,0.06 -0.24,0.07 -0.28,0.03 z m 4.69,-0.76 c -0.19,-0.09 -0.23,-0.13 -0.20,-0.21 0.05,-0.14 0.71,-0.34 0.98,-0.28 0.16,0.03 0.33,0.17 0.36,0.31 0.03,0.15 -0.07,0.18 -0.20,0.07 -0.11,-0.10 -0.27,-0.14 -0.52,-0.12 -0.19,0.01 -0.25,0.08 -0.18,0.20 0.08,0.13 -0.01,0.14 -0.24,0.04 z m 0.49,-1.37 c -0.08,-0.03 -0.05,-0.16 0.04,-0.18 0.11,-0.02 0.47,0.09 0.49,0.15 0.01,0.03 -0.05,0.04 -0.23,0.04 -0.13,-0.00 -0.27,-0.01 -0.30,-0.02 z m 4.90,-1.70 c -0.06,-0.15 -0.02,-0.25 0.12,-0.33 0.08,-0.04 0.18,-0.10 0.23,-0.14 0.08,-0.05 0.09,-0.05 0.15,0.03 0.07,0.11 0.05,0.16 -0.15,0.39 -0.11,0.12 -0.32,0.15 -0.36,0.04 z m -1.01,-0.43 c -0.52,-0.16 -0.75,-0.76 -0.46,-1.20 0.07,-0.11 0.15,-0.17 0.33,-0.24 0.31,-0.11 0.58,-0.09 0.81,0.06 0.23,0.17 0.31,0.33 0.29,0.61 -0.02,0.28 -0.13,0.46 -0.40,0.66 -0.22,0.16 -0.30,0.18 -0.58,0.09 z m 0.51,-0.41 0.14,-0.11 -0.01,-0.28 -0.01,-0.28 -0.18,-0.07 c -0.11,-0.04 -0.22,-0.06 -0.29,-0.05 -0.14,0.03 -0.11,0.14 0.06,0.19 0.38,0.09 0.36,0.58 -0.02,0.58 -0.11,0 -0.15,-0.02 -0.21,-0.12 -0.04,-0.07 -0.07,-0.18 -0.07,-0.25 -1.2e-4,-0.08 -0.01,-0.12 -0.05,-0.12 -0.03,0 -0.05,0.03 -0.06,0.08 -2.93e-4,0.04 -0.01,0.12 -0.02,0.17 -0.01,0.06 0.01,0.12 0.13,0.24 0.20,0.20 0.41,0.22 0.63,0.04 z m -16.58,0.07 c -0.30,-0.17 -0.33,-0.23 -0.33,-0.57 0,-0.35 -0.06,-0.45 -0.30,-0.45 -0.08,-0.00 -0.25,-0.04 -0.38,-0.08 -0.21,-0.07 -0.24,-0.10 -0.35,-0.30 -0.10,-0.19 -0.11,-0.24 -0.09,-0.48 0.02,-0.31 0.12,-0.52 0.38,-0.77 0.13,-0.12 0.23,-0.18 0.50,-0.26 0.18,-0.05 0.37,-0.10 0.41,-0.10 0.09,5.84e-4 0.30,0.23 0.30,0.33 0,0.04 -0.03,0.15 -0.08,0.24 -0.08,0.16 -0.08,0.17 -0.28,0.17 -0.21,1.46e-4 -0.32,0.05 -0.57,0.26 -0.11,0.09 -0.14,0.15 -0.16,0.33 -0.04,0.30 0.01,0.37 0.34,0.44 0.22,0.05 0.29,0.08 0.42,0.22 l 0.15,0.16 -0.02,0.27 c -0.02,0.24 -0.01,0.28 0.05,0.35 0.10,0.10 0.24,0.10 0.33,0.00 0.06,-0.06 0.06,-0.12 0.04,-0.44 -0.02,-0.35 -0.02,-0.36 0.04,-0.29 0.04,0.03 0.09,0.13 0.12,0.22 0.04,0.14 0.04,0.19 -0.01,0.42 -0.04,0.18 -0.10,0.29 -0.17,0.35 -0.05,0.04 -0.11,0.08 -0.12,0.08 -0.01,-8.76e-4 -0.10,-0.05 -0.21,-0.11 z m 8.88,0.00 c 0,-0.07 0.12,-0.16 0.23,-0.16 0.05,2.92e-4 0.25,-0.04 0.44,-0.09 0.18,-0.05 0.49,-0.13 0.69,-0.18 0.43,-0.10 0.86,-0.24 1.07,-0.34 0.17,-0.08 0.33,-0.29 0.33,-0.43 0,-0.11 0.06,-0.29 0.11,-0.29 0.07,0 0.12,0.22 0.07,0.38 -0.09,0.35 -0.42,0.57 -1.08,0.72 -0.17,0.04 -0.47,0.11 -0.65,0.15 -0.18,0.04 -0.50,0.11 -0.71,0.15 -0.20,0.04 -0.40,0.08 -0.44,0.10 -0.04,0.01 -0.06,0.01 -0.06,-0.01 z m -0.61,-1.05 c -0.26,-0.11 -0.70,-0.42 -0.66,-0.47 0.02,-0.02 0.15,0.02 0.32,0.11 l 0.29,0.15 1.04,0.00 c 0.90,0.00 1.05,0.01 1.11,0.06 0.05,0.05 0.05,0.06 -0.03,0.09 -0.14,0.05 -1.00,0.12 -1.46,0.12 -0.33,-0.00 -0.45,-0.02 -0.61,-0.08 z m 2.40,-0.69 c -0.17,-0.07 -0.31,-0.09 -0.43,-0.09 -0.36,0.02 -0.58,0.01 -0.96,-0.02 -0.21,-0.02 -0.58,-0.04 -0.82,-0.04 -0.24,0 -0.47,-0.01 -0.51,-0.04 -0.04,-0.02 -0.15,-0.05 -0.24,-0.07 -0.31,-0.06 -0.48,-0.14 -0.50,-0.23 -0.00,-0.04 0.01,-0.09 0.04,-0.10 0.03,-0.01 0.06,-0.06 0.06,-0.11 0,-0.11 0.07,-0.12 0.27,-0.01 0.08,0.04 0.19,0.07 0.23,0.07 0.06,0 0.07,-0.01 0.05,-0.09 -0.03,-0.13 0.01,-0.12 0.31,0.03 0.23,0.13 0.26,0.13 0.64,0.13 0.27,0 0.48,0.02 0.69,0.08 0.16,0.04 0.39,0.10 0.51,0.13 0.44,0.11 0.99,0.35 0.99,0.43 0,0.07 -0.05,0.07 -0.35,-0.05 z M 25.29,18.63 c 0,-0.03 -0.00,-0.05 -0.01,-0.05 -0.00,0 -0.04,-0.01 -0.07,-0.02 -0.04,-0.01 -0.06,-0.00 -0.06,0.03 0,0.05 0.05,0.09 0.12,0.10 0.01,0.00 0.02,-0.02 0.02,-0.05 z m -1.69,0.05 c -0.12,-0.04 -0.26,-0.14 -0.34,-0.23 -0.16,-0.17 -0.14,-0.29 0.01,-0.13 0.17,0.16 0.40,0.25 0.74,0.30 0.46,0.06 0.53,0.08 0.51,0.12 -0.04,0.07 -0.70,0.03 -0.92,-0.05 z m 4.71,-0.15 c -0.25,-0.12 -0.56,-0.27 -0.70,-0.31 -0.13,-0.04 -0.30,-0.11 -0.37,-0.15 -0.07,-0.04 -0.16,-0.07 -0.19,-0.07 -0.08,-1.46e-4 -0.34,-0.12 -0.34,-0.16 0,-0.04 0.02,-0.04 0.53,0.12 0.80,0.26 1.17,0.39 1.28,0.47 0.05,0.04 0.19,0.12 0.29,0.17 0.19,0.10 0.21,0.18 0.05,0.17 -0.04,-0.00 -0.29,-0.10 -0.54,-0.23 z m -9.05,-0.47 c -0.30,-0.08 -0.41,-0.19 -0.61,-0.62 -0.17,-0.36 -0.17,-0.44 -0.02,-0.44 0.14,0 0.26,0.09 0.48,0.38 0.09,0.12 0.27,0.33 0.38,0.45 0.30,0.31 0.25,0.36 -0.22,0.23 z m 11.34,0.03 c -0.01,-0.02 0.04,-0.15 0.12,-0.28 0.30,-0.49 0.35,-0.66 0.28,-1.09 -0.04,-0.30 -0.03,-0.46 0.03,-0.42 0.01,0.01 0.03,0.11 0.03,0.23 8.76e-4,0.12 0.03,0.28 0.08,0.38 0.11,0.24 0.10,0.31 -0.04,0.64 -0.19,0.42 -0.44,0.67 -0.52,0.54 z m -1.42,-0.15 c -0.12,-0.04 -0.29,-0.12 -0.37,-0.19 -0.07,-0.06 -0.24,-0.17 -0.36,-0.24 -0.12,-0.06 -0.32,-0.22 -0.43,-0.34 -0.19,-0.19 -0.31,-0.28 -0.96,-0.71 -0.23,-0.14 -0.78,-0.40 -0.93,-0.43 -0.34,-0.06 -0.40,-0.06 -0.66,0.01 -0.30,0.09 -1.02,0.43 -1.15,0.54 -0.04,0.03 -0.10,0.11 -0.13,0.16 -0.02,0.04 -0.07,0.08 -0.10,0.08 -0.11,0 -0.05,-0.11 0.17,-0.31 0.25,-0.22 1.15,-0.68 1.32,-0.68 0.05,0 0.15,-0.02 0.23,-0.05 0.18,-0.07 0.62,-0.11 0.80,-0.07 0.50,0.12 0.82,0.22 1.22,0.42 0.24,0.11 0.56,0.25 0.70,0.30 0.43,0.15 0.80,0.35 1.04,0.58 0.13,0.13 0.26,0.21 0.31,0.21 0.18,0.00 0.20,0.04 0.13,0.28 -0.07,0.23 -0.28,0.47 -0.40,0.47 -0.04,0 -0.10,0.00 -0.13,0.01 -0.02,0.00 -0.15,-0.01 -0.28,-0.05 z m -9.31,-0.34 c -0.09,-0.01 -0.36,-0.31 -0.36,-0.39 0,-0.16 0.24,-0.08 0.55,0.18 0.23,0.20 0.17,0.28 -0.18,0.21 z m -7.95,-0.85 c -0.02,-0.02 -0.65,-0.14 -1.64,-0.32 -0.50,-0.09 -0.62,-0.22 -0.30,-0.36 0.15,-0.06 0.32,-0.05 1.25,0.12 0.28,0.05 0.64,0.12 0.79,0.15 0.28,0.05 0.45,0.11 0.45,0.17 -8.76e-4,0.09 -0.49,0.29 -0.55,0.23 z m 0.17,-1.63 c -0.13,-0.04 -0.47,-0.20 -0.77,-0.35 -0.69,-0.33 -1.28,-0.60 -1.53,-0.68 -0.41,-0.13 -0.55,-0.25 -0.47,-0.38 0.03,-0.06 0.49,-0.01 0.65,0.06 0.11,0.05 0.36,0.16 1.20,0.52 0.13,0.05 0.30,0.14 0.37,0.19 0.07,0.05 0.16,0.09 0.19,0.09 0.03,0 0.20,0.06 0.37,0.15 0.17,0.08 0.37,0.17 0.43,0.19 0.22,0.09 0.16,0.28 -0.08,0.28 -0.07,-0.00 -0.25,-0.04 -0.38,-0.09 z m 1.16,-1.36 c -0.08,-0.06 -0.52,-0.40 -0.99,-0.75 -0.46,-0.35 -0.93,-0.72 -1.04,-0.82 -0.10,-0.10 -0.21,-0.18 -0.22,-0.18 -0.01,-4.38e-4 -0.05,-0.05 -0.08,-0.11 -0.06,-0.12 -0.04,-0.24 0.03,-0.24 0.04,0 0.26,0.13 0.39,0.23 0.02,0.02 0.20,0.15 0.40,0.29 0.19,0.14 0.41,0.30 0.49,0.36 0.07,0.06 0.17,0.13 0.22,0.15 0.04,0.02 0.35,0.24 0.67,0.48 0.32,0.24 0.60,0.43 0.61,0.43 0.04,0 0.04,0.14 0.00,0.17 -0.01,0.01 -0.10,0.03 -0.18,0.04 -0.13,0.02 -0.17,0.00 -0.30,-0.08 z m 11.45,-1.38 -0.09,-0.06 0.09,0.02 c 0.05,0.01 0.11,0.02 0.12,0.02 0.01,2.92e-4 0.02,0.01 0.02,0.04 0,0.05 -0.04,0.04 -0.15,-0.02 z m -0.62,-0.38 c -0.32,-0.25 -0.91,-0.89 -1.12,-1.22 -0.06,-0.09 -0.13,-0.21 -0.16,-0.24 -0.06,-0.09 -0.25,-0.44 -0.41,-0.79 -0.00,-0.01 4.38e-4,-0.02 0.01,-0.02 0.01,1.46e-4 0.05,0.04 0.07,0.08 0.15,0.32 0.29,0.56 0.49,0.81 0.12,0.16 0.24,0.33 0.28,0.38 0.11,0.17 0.81,0.90 1.02,1.07 0.11,0.09 0.19,0.17 0.17,0.17 -0.02,0 -0.18,-0.11 -0.35,-0.24 z m 0.56,-0.10 c -0.21,-0.11 -0.49,-0.37 -0.69,-0.64 -0.23,-0.30 -0.22,-0.37 0.01,-0.10 0.15,0.18 0.60,0.54 0.67,0.54 0.04,0 0.34,0.21 0.34,0.24 0.00,0.05 -0.21,0.02 -0.33,-0.04 z m 4.69,-0.65 c -0.04,-0.02 -0.16,-0.07 -0.27,-0.10 -0.21,-0.06 -0.25,-0.11 -0.36,-0.49 C 28.58,10.24 28.29,9.67 28.05,9.36 27.87,9.12 27.88,9.08 28.08,9.25 c 0.29,0.24 0.55,0.60 0.85,1.16 0.06,0.12 0.14,0.23 0.17,0.24 0.08,0.02 0.02,-0.31 -0.09,-0.61 -0.18,-0.46 -0.01,-0.39 0.33,0.13 0.18,0.28 0.26,0.51 0.28,0.84 0.00,0.07 -0.00,0.16 -0.02,0.18 -0.03,0.06 -0.18,0.06 -0.28,-0.00 z m -3.97,-0.22 c -0.01,-0.02 -0.00,-0.03 0.01,-0.03 0.02,0 0.05,0.01 0.06,0.03 0.01,0.02 0.00,0.03 -0.01,0.03 -0.02,0 -0.05,-0.01 -0.06,-0.03 z m 2.91,-0.26 c -0.03,-0.03 -0.09,-0.15 -0.12,-0.26 C 27.92,9.87 27.38,9.17 26.73,8.63 26.66,8.57 26.60,8.50 26.61,8.47 c 0.00,-0.02 0.07,0.00 0.15,0.07 0.07,0.06 0.19,0.16 0.27,0.21 0.29,0.20 0.62,0.57 1.05,1.19 0.18,0.26 0.24,0.39 0.27,0.60 0.03,0.20 -0.01,0.27 -0.10,0.16 z M 25.31,9.88 C 24.96,9.71 24.44,9.29 24.39,9.15 24.38,9.10 24.34,9.04 24.30,9.01 24.27,8.99 24.20,8.88 24.14,8.77 24.09,8.67 24.03,8.54 24.00,8.48 23.94,8.37 23.82,7.95 23.81,7.83 c -0.01,-0.16 0.07,-0.09 0.18,0.13 0.05,0.13 0.10,0.25 0.10,0.27 0,0.02 0.03,0.03 0.07,0.03 0.09,0 0.31,0.40 0.35,0.62 0.01,0.09 0.04,0.16 0.07,0.16 0.02,0 0.11,0.06 0.19,0.14 0.14,0.13 0.68,0.50 0.89,0.61 0.05,0.02 0.10,0.05 0.11,0.06 0.01,0.01 -0.11,0.12 -0.15,0.13 -0.01,5.85e-4 -0.16,-0.06 -0.33,-0.15 z M 24.10,7.96 c 0,-0.02 0.02,-0.03 0.06,-0.03 0.03,0 0.05,0.01 0.03,0.03 -0.01,0.02 -0.04,0.03 -0.06,0.03 -0.02,0 -0.03,-0.01 -0.03,-0.03 z M 23.96,7.58 c -0.01,-0.03 -0.01,-0.07 -0.00,-0.08 0.01,-0.01 0.03,0.01 0.04,0.04 0.01,0.03 0.01,0.07 0.00,0.08 -0.01,0.01 -0.03,-0.01 -0.04,-0.04 z" />
</svg>
