<?xml version="1.0" encoding="UTF-8" standalone="no"?>
<!-- Created with Inkscape (http://www.inkscape.org/) -->
<svg xmlns:dc="http://purl.org/dc/elements/1.1/" xmlns:cc="http://creativecommons.org/ns#" xmlns:rdf="http://www.w3.org/1999/02/22-rdf-syntax-ns#" xmlns:svg="http://www.w3.org/2000/svg" xmlns="http://www.w3.org/2000/svg" version="1.1" width="100%" height="100%" viewBox="0 0 48 48" id="svg10288">
<defs id="defs10292" />
<path d="m 23.38,44.41 c -0.03,-0.03 -0.19,-0.10 -0.34,-0.15 -0.15,-0.04 -0.34,-0.18 -0.42,-0.30 -0.08,-0.12 -0.29,-0.28 -0.45,-0.35 -0.16,-0.07 -0.42,-0.24 -0.57,-0.38 -0.14,-0.14 -0.34,-0.27 -0.43,-0.30 -0.09,-0.02 -0.27,-0.14 -0.39,-0.25 -0.12,-0.11 -0.30,-0.22 -0.40,-0.25 -0.09,-0.02 -0.34,-0.18 -0.57,-0.35 -0.54,-0.41 -0.85,-0.57 -1.00,-0.52 -0.06,0.02 -0.37,0.04 -0.67,0.05 -0.29,0.00 -0.66,0.04 -0.80,0.07 -0.14,0.03 -0.34,0.07 -0.45,0.09 -0.12,0.02 -0.22,0.11 -0.28,0.25 -0.04,0.12 -0.21,0.29 -0.35,0.38 -0.14,0.08 -0.38,0.25 -0.52,0.36 -0.34,0.26 -0.92,0.36 -1.57,0.27 -0.64,-0.09 -0.83,-0.22 -1.01,-0.76 -0.28,-0.81 -0.41,-1.11 -0.55,-1.24 -0.07,-0.06 -0.13,-0.16 -0.13,-0.21 0,-0.11 -1.01,-0.17 -1.41,-0.08 -0.15,0.03 -0.60,0.07 -1.00,0.08 -0.57,0.02 -0.76,0.05 -0.97,0.18 -0.16,0.10 -0.43,0.17 -0.71,0.20 -0.74,0.06 -1.61,0.04 -1.78,-0.04 C 6.43,41.09 6.24,40.87 6.10,40.66 5.78,40.19 5.66,40.07 5.49,40.11 5.27,40.16 4.98,39.97 4.74,39.62 4.51,39.28 4.27,38.78 4.34,38.78 c 0.01,0 -0.01,-0.10 -0.08,-0.22 -0.14,-0.28 -0.12,-0.83 0.04,-1.14 0.07,-0.12 0.16,-0.34 0.20,-0.47 0.14,-0.46 0.30,-0.87 0.54,-1.35 0.13,-0.26 0.28,-0.60 0.32,-0.75 0.09,-0.30 0.74,-1.02 1.06,-1.18 0.12,-0.06 0.60,-0.47 1.07,-0.91 0.51,-0.48 0.95,-0.83 1.11,-0.88 0.17,-0.05 0.25,-0.12 0.25,-0.22 0,-0.11 -0.05,-0.14 -0.33,-0.14 -0.40,0 -0.80,-0.15 -0.86,-0.34 C 7.65,30.99 7.32,30.67 7.00,30.45 6.78,30.29 6.12,30.27 5.99,30.41 5.87,30.53 4.79,30.52 4.43,30.40 4.23,30.33 4.15,30.26 4.12,30.10 4.07,29.89 3.82,29.62 3.46,29.40 3.34,29.32 3.12,29.17 2.97,29.05 2.77,28.90 2.65,28.85 2.50,28.88 c -0.10,0.02 -0.30,0.00 -0.44,-0.03 -0.32,-0.08 -0.32,-0.28 0.00,-0.62 0.24,-0.25 0.31,-0.38 0.19,-0.38 -0.03,0 -0.13,-0.06 -0.22,-0.15 -0.12,-0.12 -0.14,-0.17 -0.07,-0.25 0.14,-0.17 0.28,-0.11 0.62,0.23 0.33,0.34 0.34,0.37 0.32,0.68 -0.00,0.15 0.08,0.25 0.56,0.60 0.31,0.23 0.61,0.44 0.65,0.46 0.04,0.02 0.12,0.15 0.19,0.28 0.06,0.13 0.21,0.27 0.31,0.31 0.26,0.10 1.32,0.10 1.42,6.22e-4 0.04,-0.04 0.29,-0.08 0.55,-0.08 l 0.47,0 0.54,0.55 c 0.51,0.52 0.56,0.55 0.92,0.59 0.37,0.03 0.38,0.03 0.46,-0.19 C 9.13,30.61 9.11,30.56 8.78,30.50 8.60,30.47 8.38,30.33 8.14,30.10 7.93,29.91 7.65,29.69 7.51,29.62 7.37,29.55 7.17,29.43 7.08,29.36 6.87,29.20 6.69,29.19 6.30,29.33 5.82,29.50 5.43,29.47 4.90,29.21 4.64,29.08 4.34,28.86 4.22,28.72 4.10,28.57 3.89,28.31 3.75,28.14 3.61,27.96 3.49,27.78 3.49,27.72 c 0,-0.19 -0.62,-0.44 -1.26,-0.51 -0.44,-0.04 -0.57,-0.16 -0.41,-0.35 0.12,-0.14 0.33,-0.13 1.00,0.04 0.69,0.18 0.81,0.26 1.09,0.70 0.12,0.19 0.29,0.42 0.37,0.51 0.08,0.08 0.14,0.17 0.14,0.19 0,0.17 0.81,0.69 1.09,0.69 0.14,0.00 0.01,-0.11 -0.17,-0.16 -0.10,-0.02 -0.09,-0.03 0.05,-0.04 0.11,-0.00 0.27,0.02 0.35,0.07 0.08,0.04 0.17,0.05 0.19,0.01 0.15,-0.21 0.63,-0.25 0.86,-0.07 0.04,0.03 0.35,0.19 0.67,0.35 0.32,0.15 0.73,0.39 0.91,0.53 0.37,0.28 0.51,0.31 0.56,0.12 0.11,-0.39 0.12,-1.84 0.01,-2.43 C 8.89,26.72 8.80,24.98 8.80,23.15 c -0.00,-0.85 -0.02,-1.14 -0.09,-1.14 -0.12,0 -0.31,-0.29 -0.31,-0.49 0,-0.18 0.11,-0.20 0.32,-0.05 0.07,0.05 0.29,0.10 0.49,0.10 0.32,0 0.35,-0.01 0.35,-0.18 0,-0.15 -0.03,-0.18 -0.23,-0.19 -0.13,-0.00 -0.30,-0.00 -0.38,0.00 -0.08,0.00 -0.26,-0.04 -0.41,-0.10 -0.39,-0.17 -0.42,-0.35 -0.07,-0.53 C 8.65,20.43 8.65,20.36 8.42,20.26 8.14,20.13 8.01,19.86 7.99,19.35 c -0.00,-0.25 -0.03,-0.50 -0.06,-0.56 -0.02,-0.06 0.04,-0.26 0.16,-0.49 0.17,-0.30 0.25,-0.38 0.40,-0.38 0.09,-2e-6 0.18,-0.03 0.18,-0.07 0,-0.04 -0.03,-0.07 -0.07,-0.07 -0.03,0 -0.05,-0.04 -0.03,-0.09 C 8.62,17.54 8.41,16.06 8.32,15.88 8.27,15.79 8.19,15.72 8.13,15.72 c -0.12,0 -0.47,0.15 -0.47,0.21 0,0.02 -0.09,0.04 -0.20,0.05 -0.11,0.00 -0.35,0.03 -0.53,0.06 -0.42,0.06 -0.90,-0.15 -0.97,-0.43 -0.02,-0.10 -0.17,-0.26 -0.34,-0.37 l -0.29,-0.18 -0.25,0.15 c -0.25,0.15 -0.46,0.47 -0.46,0.69 0,0.17 -0.35,0.76 -0.65,1.09 -0.14,0.16 -0.38,0.47 -0.52,0.70 -0.38,0.61 -1.07,0.98 -1.42,0.75 -0.23,-0.15 -0.20,-0.54 0.03,-0.65 0.16,-0.07 0.28,-0.33 0.20,-0.46 -0.02,-0.03 -0.16,-0.08 -0.30,-0.11 -0.32,-0.05 -0.54,-0.23 -0.54,-0.44 0,-0.26 0.16,-0.39 0.59,-0.46 0.75,-0.13 1.37,-0.55 1.37,-0.93 0.00,-0.43 0.54,-1.20 1.08,-1.53 0.20,-0.12 0.37,-0.16 0.74,-0.16 0.54,0.00 0.65,0.05 1.17,0.53 0.36,0.34 0.38,0.35 0.71,0.30 0.18,-0.02 0.42,-0.09 0.53,-0.15 0.10,-0.05 0.24,-0.10 0.30,-0.10 0.18,0 0.21,-0.36 0.09,-1.12 C 7.78,11.79 7.78,11.85 8.00,11.41 L 8.20,11.01 8.93,11.01 c 0.66,-0.00 0.75,0.00 1.02,0.18 0.16,0.10 0.33,0.23 0.38,0.29 0.07,0.09 0.08,0.03 0.04,-0.31 -0.03,-0.28 -0.01,-0.45 0.04,-0.52 0.13,-0.16 0.46,-0.12 0.65,0.07 0.09,0.10 0.20,0.18 0.23,0.18 0.03,0 0.28,0.22 0.55,0.49 0.26,0.27 0.72,0.67 1.00,0.89 0.28,0.21 0.77,0.62 1.09,0.89 0.31,0.27 0.70,0.56 0.86,0.64 0.32,0.16 0.72,0.45 1.19,0.88 l 0.32,0.29 0.07,-0.17 c 0.03,-0.09 0.09,-0.33 0.13,-0.53 0.03,-0.19 0.10,-0.41 0.16,-0.47 0.13,-0.15 0.17,-1.26 0.05,-1.42 -0.04,-0.05 -0.13,-0.29 -0.20,-0.52 -0.26,-0.97 -0.02,-2.62 0.54,-3.78 0.11,-0.24 0.23,-0.51 0.27,-0.62 0.03,-0.10 0.13,-0.35 0.22,-0.56 0.09,-0.21 0.17,-0.40 0.17,-0.42 0,-0.04 0.42,-0.65 0.81,-1.16 0.47,-0.63 1.44,-1.28 2.23,-1.50 0.31,-0.08 0.79,-0.23 1.07,-0.32 0.41,-0.14 0.66,-0.17 1.34,-0.17 0.46,-5.45e-5 0.96,0.03 1.12,0.07 0.15,0.04 0.56,0.08 0.91,0.10 0.34,0.01 0.85,0.05 1.13,0.09 0.45,0.06 0.52,0.09 0.78,0.37 0.15,0.16 0.35,0.30 0.43,0.30 0.27,0 0.67,0.22 0.94,0.52 0.15,0.17 0.42,0.38 0.61,0.47 0.37,0.18 0.39,0.20 0.81,0.70 0.54,0.65 0.71,1.03 0.73,1.64 0.01,0.32 -0.02,0.69 -0.08,0.90 -0.05,0.19 -0.10,0.53 -0.10,0.75 0,0.35 0.05,0.48 0.48,1.24 0.26,0.46 0.53,0.94 0.58,1.06 0.05,0.12 0.13,0.27 0.17,0.34 0.03,0.06 0.06,0.39 0.06,0.72 -0.00,0.70 -0.14,1.09 -0.50,1.37 -0.12,0.09 -0.36,0.28 -0.52,0.41 -0.16,0.13 -0.37,0.25 -0.46,0.27 -0.30,0.07 -0.30,0.68 0.00,0.68 0.09,0 0.21,0.01 0.28,0.04 0.07,0.03 0.13,-0.01 0.18,-0.15 0.04,-0.10 0.11,-0.18 0.16,-0.16 0.09,0.03 0.09,0.27 -0.00,0.80 -0.04,0.22 -0.04,0.34 0.00,0.34 0.06,0 0.62,-0.29 1.80,-0.93 0.18,-0.09 0.37,-0.21 0.43,-0.26 0.06,-0.04 0.20,-0.13 0.32,-0.19 0.12,-0.05 0.35,-0.19 0.51,-0.29 0.16,-0.10 0.53,-0.31 0.83,-0.47 0.50,-0.26 0.92,-0.51 2.07,-1.24 0.50,-0.32 1.21,-0.87 1.54,-1.19 0.36,-0.35 0.47,-0.25 0.45,0.41 -0.00,0.30 0.00,0.56 0.02,0.59 0.02,0.02 0.24,-0.02 0.48,-0.10 0.47,-0.16 0.63,-0.14 0.70,0.07 0.03,0.10 0.11,0.13 0.32,0.13 0.62,0 0.85,0.29 0.73,0.93 -0.03,0.18 -0.08,0.85 -0.10,1.48 -0.04,1.33 -0.04,1.34 0.57,1.28 0.60,-0.06 0.82,-0.20 0.88,-0.58 0.10,-0.63 0.20,-0.86 0.56,-1.20 0.29,-0.28 0.40,-0.34 0.65,-0.35 0.16,-0.00 0.40,0.03 0.52,0.09 0.18,0.09 0.26,0.09 0.48,0.02 0.15,-0.04 0.36,-0.07 0.48,-0.05 0.29,0.05 0.84,-0.19 0.99,-0.46 0.23,-0.39 0.36,-0.28 0.45,0.35 0.04,0.34 0.03,0.36 -0.26,0.69 -0.29,0.32 -0.30,0.34 -0.17,0.44 0.07,0.05 0.16,0.10 0.19,0.10 0.10,0.00 0.21,0.30 0.16,0.44 -0.09,0.30 -0.31,0.36 -1.02,0.28 -0.74,-0.08 -1.34,-0.32 -1.53,-0.61 -0.09,-0.13 -0.17,-0.18 -0.31,-0.17 -0.16,0.02 -0.19,0.08 -0.34,0.68 -0.08,0.36 -0.21,0.75 -0.28,0.85 -0.22,0.33 -0.66,0.53 -1.33,0.58 -0.33,0.02 -0.66,0.07 -0.74,0.11 -0.07,0.04 -0.19,0.05 -0.25,0.03 -0.10,-0.03 -0.11,-0.16 -0.07,-0.97 0.06,-1.41 0.12,-3.15 0.11,-3.35 -0.01,-0.40 -0.37,-0.43 -1.06,-0.09 -0.20,0.09 -0.64,0.28 -0.98,0.40 -0.34,0.12 -0.66,0.26 -0.72,0.31 -0.06,0.05 -0.28,0.16 -0.50,0.24 -0.21,0.08 -0.46,0.20 -0.54,0.26 -0.08,0.05 -0.22,0.10 -0.30,0.10 -0.08,0 -0.23,0.06 -0.33,0.13 -0.09,0.07 -0.28,0.16 -0.41,0.18 -0.13,0.02 -0.38,0.14 -0.54,0.25 -0.16,0.10 -0.50,0.27 -0.74,0.35 -0.47,0.16 -0.74,0.30 -1.55,0.79 -0.28,0.17 -0.59,0.31 -0.69,0.31 -0.11,0 -0.21,0.05 -0.26,0.14 -0.04,0.08 -0.15,0.14 -0.23,0.14 -0.08,2.34e-4 -0.24,0.05 -0.35,0.12 -0.75,0.51 -0.91,0.60 -1.03,0.60 -0.07,0 -0.32,0.15 -0.55,0.33 -0.22,0.18 -0.46,0.35 -0.52,0.37 -0.06,0.02 -0.17,0.09 -0.26,0.17 -0.08,0.07 -0.36,0.24 -0.62,0.37 -0.25,0.13 -0.65,0.36 -0.88,0.51 -0.22,0.14 -0.43,0.27 -0.46,0.27 -0.02,0 -0.16,0.08 -0.30,0.19 -0.51,0.39 -1.49,0.81 -1.17,0.50 0.14,-0.14 2.20,-1.42 2.68,-1.67 0.21,-0.10 0.60,-0.35 0.87,-0.54 0.26,-0.19 0.70,-0.45 0.96,-0.59 0.26,-0.13 0.75,-0.41 1.09,-0.61 0.34,-0.20 0.85,-0.48 1.13,-0.63 1.37,-0.72 1.96,-1.01 2.02,-1.01 0.03,0 0.39,-0.16 0.80,-0.35 0.41,-0.19 1.00,-0.46 1.32,-0.58 0.31,-0.12 0.66,-0.27 0.76,-0.33 0.10,-0.05 0.29,-0.15 0.43,-0.22 0.14,-0.06 0.51,-0.24 0.83,-0.39 0.32,-0.15 0.65,-0.30 0.74,-0.32 0.09,-0.02 0.16,-0.09 0.16,-0.15 0,-0.13 0.02,-0.13 -0.54,0.07 -0.26,0.10 -0.53,0.18 -0.60,0.18 -0.06,0 -0.22,0.09 -0.35,0.21 -0.13,0.12 -0.36,0.23 -0.54,0.26 -0.16,0.02 -0.47,0.16 -0.68,0.30 -0.40,0.27 -1.07,0.62 -1.34,0.71 -0.28,0.08 -0.19,-0.14 0.10,-0.28 0.15,-0.06 0.42,-0.21 0.60,-0.33 0.65,-0.42 1.80,-1.05 2.02,-1.11 0.10,-0.02 0.16,-0.13 0.22,-0.42 0.04,-0.21 0.06,-0.40 0.04,-0.41 -0.07,-0.07 -0.69,0.24 -0.81,0.42 -0.11,0.16 -0.51,0.45 -1.09,0.76 -0.08,0.04 -0.47,0.27 -0.87,0.51 -0.40,0.24 -0.90,0.52 -1.12,0.63 -0.21,0.10 -0.52,0.29 -0.68,0.42 -0.15,0.12 -0.49,0.32 -0.73,0.43 -0.24,0.11 -0.53,0.25 -0.63,0.31 -0.10,0.05 -0.33,0.18 -0.52,0.27 -0.18,0.09 -0.39,0.21 -0.46,0.27 -0.06,0.05 -0.24,0.16 -0.39,0.24 -0.77,0.40 -1.06,0.57 -1.16,0.65 -0.06,0.05 -0.43,0.26 -0.83,0.47 -0.40,0.20 -0.79,0.43 -0.87,0.50 -0.08,0.06 -0.27,0.18 -0.43,0.25 -0.36,0.16 -0.61,0.34 -1.11,0.80 -0.69,0.63 -1.76,1.74 -1.76,1.82 0,0.16 -0.41,0.85 -0.53,0.90 -0.32,0.11 -0.55,-0.10 -0.44,-0.43 0.02,-0.08 0.01,-0.14 -0.01,-0.14 -0.03,0 -0.10,0.14 -0.15,0.32 -0.12,0.46 -0.30,0.44 -0.30,-0.02 0,-0.19 0.03,-0.38 0.08,-0.43 0.12,-0.12 -0.04,-0.49 -0.48,-1.00 -0.20,-0.24 -0.39,-0.45 -0.41,-0.47 -0.02,-0.02 -0.35,-0.32 -0.72,-0.67 -0.67,-0.62 -1.06,-0.89 -3.01,-2.08 -0.56,-0.34 -1.03,-0.64 -1.05,-0.67 -0.02,-0.02 -0.23,-0.15 -0.46,-0.28 -0.23,-0.13 -0.54,-0.31 -0.69,-0.41 -0.14,-0.09 -0.32,-0.21 -0.39,-0.26 -0.07,-0.04 -0.28,-0.21 -0.47,-0.36 -0.18,-0.15 -0.58,-0.43 -0.88,-0.63 -0.89,-0.59 -0.96,-0.64 -1.90,-1.45 -0.30,-0.26 -0.68,-0.57 -0.83,-0.69 -0.15,-0.12 -0.55,-0.47 -0.90,-0.78 -0.62,-0.56 -0.80,-0.67 -0.70,-0.43 0.02,0.07 0.08,0.27 0.12,0.45 0.07,0.35 0.50,0.83 0.94,1.06 0.13,0.06 0.37,0.22 0.53,0.35 0.16,0.12 0.52,0.38 0.80,0.57 0.90,0.60 1.81,1.28 2.41,1.81 0.32,0.28 0.69,0.57 0.81,0.64 0.12,0.07 0.24,0.17 0.27,0.21 0.02,0.04 0.12,0.11 0.20,0.15 0.18,0.07 0.45,0.24 1.25,0.78 0.31,0.21 0.61,0.38 0.66,0.38 0.04,7.3e-5 0.11,0.04 0.14,0.09 0.07,0.11 0.36,0.30 0.86,0.56 0.20,0.10 0.49,0.26 0.65,0.35 0.16,0.09 0.49,0.28 0.75,0.41 0.55,0.29 0.72,0.43 1.27,1.00 0.72,0.74 0.77,0.83 0.79,1.35 0.01,0.42 0.00,0.46 -0.12,0.46 -0.11,0 -0.15,-0.05 -0.16,-0.24 -0.01,-0.13 0.01,-0.28 0.05,-0.33 0.06,-0.07 0.02,-0.14 -0.14,-0.28 l -0.22,-0.18 -0.14,0.14 -0.14,0.14 0.14,0.15 c 0.08,0.08 0.16,0.31 0.19,0.49 0.05,0.40 0.21,0.58 0.67,0.79 0.27,0.12 0.43,0.14 0.80,0.11 0.64,-0.05 0.92,-0.27 1.01,-0.79 0.06,-0.37 0.08,-0.39 0.54,-0.70 0.26,-0.17 0.60,-0.38 0.77,-0.47 0.16,-0.08 0.52,-0.31 0.80,-0.49 0.27,-0.18 0.77,-0.48 1.10,-0.67 0.33,-0.18 0.72,-0.43 0.87,-0.54 0.14,-0.11 0.39,-0.27 0.56,-0.34 0.16,-0.07 0.44,-0.23 0.62,-0.37 0.28,-0.20 2.70,-1.41 2.82,-1.41 0.09,0 0.71,-0.32 0.85,-0.45 0.07,-0.07 0.25,-0.16 0.40,-0.21 0.14,-0.04 0.47,-0.19 0.73,-0.33 0.25,-0.13 0.49,-0.24 0.53,-0.24 0.03,0 0.20,-0.09 0.38,-0.21 0.17,-0.12 0.34,-0.21 0.38,-0.21 0.03,0 0.37,-0.15 0.75,-0.35 0.37,-0.19 0.88,-0.42 1.12,-0.51 0.84,-0.32 1.53,-0.61 1.64,-0.71 0.06,-0.05 0.23,-0.09 0.38,-0.09 0.36,0 0.35,0.18 -0.01,0.24 -0.15,0.02 -0.47,0.14 -0.71,0.26 -0.23,0.12 -0.46,0.21 -0.51,0.22 -0.09,0.00 -1.05,0.45 -1.37,0.64 -0.25,0.15 -0.77,0.41 -1.38,0.70 -0.56,0.26 -0.58,0.27 -1.97,0.97 -0.64,0.32 -1.24,0.59 -1.33,0.59 -0.09,-6.22e-4 -0.16,0.02 -0.16,0.05 0,0.06 -0.19,0.16 -1.05,0.57 -0.48,0.22 -1.46,0.80 -1.75,1.03 -0.19,0.15 -0.47,0.31 -0.55,0.31 -0.04,0 -0.15,0.06 -0.23,0.14 -0.08,0.07 -0.38,0.25 -0.67,0.40 -0.29,0.14 -0.52,0.28 -0.52,0.31 0,0.03 -0.18,0.16 -0.41,0.30 -0.23,0.13 -0.56,0.36 -0.75,0.51 -0.18,0.14 -0.52,0.37 -0.76,0.49 -0.24,0.12 -0.47,0.29 -0.52,0.39 -0.11,0.20 -0.17,0.78 -0.19,1.84 -0.00,0.44 -0.03,1.52 -0.06,2.40 -0.03,1.27 -0.05,7.72 -0.02,9.04 0.00,0.16 -0.01,0.91 -0.05,1.67 -0.06,1.61 -0.06,3.18 0.02,5.56 0.00,0.27 0.11,0.26 0.52,-0.05 0.14,-0.11 0.48,-0.31 0.76,-0.46 0.27,-0.14 0.55,-0.29 0.61,-0.33 0.06,-0.03 0.43,-0.22 0.84,-0.42 0.40,-0.19 0.81,-0.40 0.91,-0.47 0.09,-0.06 0.21,-0.12 0.27,-0.12 0.12,0 1.35,-0.77 1.68,-1.06 0.14,-0.12 0.52,-0.36 0.84,-0.54 0.32,-0.17 0.67,-0.37 0.77,-0.44 0.10,-0.07 0.22,-0.13 0.26,-0.13 0.07,0 0.86,-0.75 1.26,-1.20 0.42,-0.47 0.66,-0.57 1.23,-0.51 0.26,0.02 0.50,0.01 0.69,-0.05 0.15,-0.05 0.49,-0.12 0.75,-0.15 0.46,-0.05 0.64,-0.11 1.43,-0.47 0.24,-0.11 0.59,-0.27 0.77,-0.36 0.19,-0.09 0.41,-0.26 0.52,-0.42 0.19,-0.29 0.37,-0.91 0.30,-1.09 -0.02,-0.06 -0.00,-0.57 0.03,-1.13 0.22,-3.01 0.29,-4.75 0.33,-7.61 l 0.04,-3.15 -0.30,-0.26 c -0.25,-0.22 -0.29,-0.31 -0.29,-0.52 0.00,-0.14 -0.03,-0.48 -0.07,-0.75 -0.08,-0.46 -0.07,-0.51 0.11,-1.00 0.29,-0.75 1.16,-1.57 1.51,-1.43 0.20,0.08 0.41,0.74 0.41,1.35 0,0.25 0.03,0.51 0.07,0.59 0.04,0.07 0.05,0.27 0.02,0.43 -0.05,0.33 -0.29,0.53 -0.82,0.64 -0.30,0.06 -0.59,0.25 -0.59,0.38 0,0.07 0.53,0.08 0.78,0.01 0.09,-0.02 0.18,-0.12 0.21,-0.23 0.06,-0.28 0.10,-0.31 0.20,-0.22 0.07,0.05 0.07,0.14 0.03,0.30 -0.09,0.32 -0.27,0.49 -0.58,0.54 -0.27,0.04 -0.27,0.04 -0.32,0.49 -0.03,0.24 -0.06,1.33 -0.07,2.41 -0.00,1.08 -0.03,2.60 -0.06,3.37 -0.06,1.58 -0.05,1.62 0.40,1.62 0.33,0 0.54,-0.24 0.47,-0.54 -0.05,-0.21 -0.26,-0.24 -0.26,-0.03 0,0.20 -0.26,0.19 -0.31,-0.01 -0.19,-0.73 0.22,-1.40 0.98,-1.55 0.28,-0.05 0.80,0.12 1.02,0.34 0.16,0.16 0.18,0.16 0.47,-0.01 0.19,-0.11 0.23,-0.19 0.23,-0.39 0,-0.13 0.03,-0.27 0.07,-0.29 0.14,-0.08 0.43,0.03 0.46,0.20 0.11,0.56 0.10,0.54 0.40,0.59 0.25,0.04 0.29,0.07 0.29,0.23 0,0.21 -0.48,0.76 -0.83,0.95 -0.42,0.22 -0.91,0.31 -1.25,0.22 -0.17,-0.04 -0.31,-0.10 -0.31,-0.13 0,-0.03 -0.13,-0.19 -0.29,-0.36 -0.32,-0.34 -0.29,-0.50 0.07,-0.50 0.15,0 0.26,0.07 0.43,0.29 0.40,0.51 1.02,0.54 1.46,0.06 0.28,-0.31 0.28,-0.43 -0.01,-0.40 -0.19,0.01 -0.23,-0.00 -0.22,-0.12 0.02,-0.23 -0.12,-0.25 -0.39,-0.06 -0.34,0.23 -0.71,0.22 -1.03,-0.00 -0.30,-0.22 -0.36,-0.22 -0.57,-0.02 -0.13,0.12 -0.15,0.20 -0.12,0.41 0.02,0.14 0.11,0.36 0.20,0.48 0.22,0.30 0.21,1.00 -0.02,1.48 l -0.16,0.33 -0.54,0.05 c -0.30,0.02 -0.58,0.06 -0.62,0.08 -0.10,0.03 -0.16,0.45 -0.20,1.35 -0.03,0.80 -0.01,0.91 0.20,0.97 0.08,0.02 0.29,0.19 0.45,0.38 0.15,0.18 0.39,0.46 0.52,0.60 0.13,0.14 0.38,0.55 0.56,0.91 0.28,0.57 0.33,0.73 0.37,1.31 0.02,0.36 0.09,0.73 0.14,0.83 0.10,0.20 0.12,0.39 0.11,0.85 -0.00,0.23 -0.06,0.37 -0.23,0.56 -0.12,0.14 -0.29,0.25 -0.36,0.25 -0.41,0 -0.71,0.36 -0.71,0.87 0,0.15 -0.04,0.31 -0.10,0.36 -0.05,0.04 -0.11,0.20 -0.14,0.34 -0.04,0.25 -0.13,0.36 -1.15,1.30 -0.12,0.11 -0.74,0.29 -1.12,0.33 -0.22,0.02 -0.81,-0.12 -0.94,-0.22 -0.04,-0.03 -0.13,-0.01 -0.20,0.03 -0.09,0.07 -0.27,0.08 -0.63,0.05 -0.27,-0.02 -0.85,-0.00 -1.28,0.04 -0.43,0.04 -0.97,0.09 -1.19,0.11 -0.77,0.05 -0.93,0.11 -1.21,0.44 -0.45,0.55 -1.00,0.72 -1.77,0.55 -0.17,-0.03 -0.36,-0.12 -0.40,-0.18 -0.04,-0.06 -0.17,-0.11 -0.27,-0.11 -0.14,0 -0.20,-0.04 -0.23,-0.20 -0.08,-0.37 -0.28,-0.68 -0.46,-0.71 -0.10,-0.01 -0.33,-0.06 -0.51,-0.10 -0.18,-0.04 -0.75,-0.07 -1.27,-0.08 -0.78,-0.00 -1.00,0.01 -1.27,0.12 -0.27,0.11 -0.88,0.49 -1.30,0.80 -0.22,0.16 -0.66,0.63 -0.66,0.69 0,0.11 -0.41,0.50 -0.53,0.50 -0.06,0 -0.11,0.03 -0.11,0.07 0,0.04 -0.04,0.07 -0.11,0.07 -0.10,0 -0.40,0.13 -0.47,0.22 -0.02,0.02 -0.10,0.06 -0.18,0.08 -0.08,0.02 -0.19,0.06 -0.25,0.08 -0.06,0.02 -0.14,0.01 -0.18,-0.01 z m 0.88,-0.77 c 0.53,-0.25 0.68,-0.40 0.68,-0.68 0,-0.11 -0.04,-0.15 -0.17,-0.15 -0.14,0 -0.16,-0.02 -0.13,-0.15 0.02,-0.08 0.10,-0.18 0.17,-0.23 0.08,-0.05 0.13,-0.16 0.13,-0.32 l 0,-0.24 -0.20,0.15 c -0.14,0.10 -0.35,0.16 -0.74,0.19 -0.48,0.03 -0.56,0.02 -0.74,-0.11 -0.36,-0.29 -0.21,-0.48 0.21,-0.25 0.11,0.05 0.36,0.10 0.55,0.10 0.30,3.9e-4 0.38,-0.03 0.65,-0.28 0.33,-0.30 0.32,-0.47 -0.01,-0.27 -0.29,0.17 -0.97,0.24 -1.24,0.12 -0.21,-0.08 -0.36,-0.26 -0.36,-0.43 0,-0.12 0.27,-0.09 0.35,0.04 0.05,0.09 0.16,0.11 0.55,0.10 0.57,-0.01 0.80,-0.09 0.92,-0.30 0.05,-0.10 0.09,-0.64 0.10,-1.48 0.00,-0.72 0.04,-1.96 0.07,-2.76 0.05,-1.24 0.04,-1.44 -0.04,-1.44 -0.05,0 -0.17,0.04 -0.24,0.10 -0.19,0.14 -1.20,0.14 -1.49,-2.33e-4 -0.17,-0.08 -0.22,-0.09 -0.25,-0.01 -0.03,0.10 -0.07,1.45 -0.06,2.10 0.00,0.22 -7.3e-5,1.39 -0.01,2.61 -0.02,2.07 -0.01,2.23 0.11,2.48 0.16,0.31 0.17,0.33 0.03,0.47 -0.12,0.12 -0.05,0.44 0.14,0.75 0.15,0.23 0.38,0.22 1.02,-0.08 z M 23.30,43.06 c -0.05,-0.13 0.09,-0.40 0.21,-0.40 0.04,0 0.13,0.07 0.18,0.15 0.08,0.13 0.08,0.17 -0.03,0.25 -0.17,0.12 -0.31,0.12 -0.36,-0.00 z m 0.70,-0.06 c 0.00,-0.09 0.04,-0.22 0.10,-0.30 0.08,-0.11 0.12,-0.12 0.21,-0.04 0.21,0.17 0.08,0.51 -0.19,0.51 -0.08,0 -0.13,-0.05 -0.12,-0.16 z m -1.68,-0.24 c 0.08,-0.10 0.16,-0.29 0.18,-0.41 0.04,-0.28 0.11,-5.28 0.13,-9.97 0.01,-3.43 -0.04,-7.68 -0.12,-8.86 -0.03,-0.43 -0.01,-0.61 0.06,-0.72 0.10,-0.13 0.10,-0.13 0.14,0.00 0.07,0.26 0.18,0.87 0.19,1.01 0.01,0.59 0.00,0.85 -0.03,0.92 -0.02,0.04 -0.00,0.06 0.05,0.04 0.05,-0.01 0.31,0.04 0.56,0.13 0.59,0.22 0.90,0.21 1.29,-0.01 0.24,-0.14 0.32,-0.23 0.36,-0.44 0.04,-0.21 0.02,-0.27 -0.10,-0.36 -0.18,-0.13 -0.20,-0.43 -0.03,-0.62 0.07,-0.08 0.12,-0.28 0.13,-0.50 0.01,-0.40 0.02,-0.40 -0.55,-0.17 -1.15,0.45 -2.08,0.04 -2.23,-0.97 -0.06,-0.41 -0.23,-0.65 -0.67,-0.95 -0.18,-0.12 -0.48,-0.34 -0.66,-0.48 -0.18,-0.13 -0.40,-0.28 -0.49,-0.32 -0.09,-0.03 -0.25,-0.13 -0.36,-0.20 -0.85,-0.58 -1.10,-0.74 -1.13,-0.74 -0.03,0 -0.71,-0.46 -1.52,-1.04 -0.21,-0.15 -0.49,-0.35 -0.63,-0.45 -0.14,-0.09 -0.50,-0.37 -0.80,-0.61 -0.52,-0.42 -1.71,-1.23 -2.55,-1.74 -0.22,-0.13 -0.49,-0.33 -0.62,-0.44 -0.12,-0.10 -0.39,-0.31 -0.62,-0.46 -0.22,-0.14 -0.49,-0.34 -0.62,-0.44 -0.45,-0.37 -0.88,-0.70 -1.15,-0.89 l -0.27,-0.19 -0.31,0.32 c -0.40,0.42 -0.68,0.64 -0.97,0.78 -0.12,0.06 -0.25,0.14 -0.26,0.19 -0.01,0.04 6.46e-4,0.31 0.04,0.59 0.03,0.27 0.06,0.67 0.06,0.87 -0.00,0.40 0.17,1.78 0.30,2.29 0.05,0.21 0.19,0.44 0.39,0.65 0.59,0.63 0.47,1.00 -0.34,1.01 -0.51,0.00 -0.67,0.09 -0.49,0.27 0.07,0.07 0.29,0.13 0.59,0.15 0.42,0.03 0.48,0.02 0.53,-0.09 0.07,-0.19 0.17,-0.24 0.33,-0.16 0.14,0.07 0.17,0.29 0.05,0.50 -0.04,0.09 -0.05,0.18 -0.00,0.26 0.04,0.08 0.03,0.19 -0.05,0.34 -0.06,0.12 -0.12,0.38 -0.12,0.58 0,0.36 -0.00,0.36 -0.35,0.54 -0.19,0.10 -0.37,0.23 -0.41,0.29 -0.03,0.06 -0.00,1.17 0.05,2.48 0.17,3.60 0.14,7.76 -0.06,8.53 -0.03,0.14 -0.06,0.57 -0.06,0.96 -2.18e-4,0.39 -0.03,0.72 -0.07,0.75 -0.11,0.07 -0.08,0.29 0.05,0.42 0.07,0.06 0.32,0.16 0.56,0.22 0.99,0.24 1.23,0.37 1.18,0.61 -0.02,0.09 -0.11,0.11 -0.55,0.10 -0.39,-0.01 -0.52,0.00 -0.52,0.08 0,0.05 -0.11,0.18 -0.24,0.28 -0.13,0.10 -0.37,0.39 -0.52,0.64 -0.15,0.25 -0.35,0.55 -0.44,0.68 -0.09,0.12 -0.16,0.26 -0.16,0.31 0,0.09 -0.11,0.11 -0.17,0.02 -0.02,-0.03 0.07,-0.29 0.21,-0.58 0.13,-0.29 0.25,-0.56 0.25,-0.62 0,-0.05 0.07,-0.15 0.15,-0.23 0.18,-0.16 0.57,-0.68 0.57,-0.77 0,-0.03 -0.07,-0.06 -0.16,-0.06 -0.20,0 -0.56,-0.37 -0.57,-0.59 -0.00,-0.09 0.02,-0.46 0.07,-0.82 0.10,-0.90 0.10,-2.15 -0.00,-2.15 -0.12,0 -0.71,0.31 -0.71,0.37 0,0.03 -0.18,0.18 -0.41,0.32 -0.23,0.14 -0.46,0.31 -0.51,0.36 -0.05,0.05 -0.13,0.09 -0.19,0.09 -0.10,0 -0.99,0.96 -0.99,1.08 0,0.04 -0.07,0.16 -0.17,0.27 -0.20,0.24 -0.55,0.92 -0.55,1.07 0,0.10 -0.04,0.22 -0.37,0.97 -0.15,0.36 -0.16,0.42 -0.08,1.02 0.08,0.69 0.16,0.88 0.51,1.28 0.19,0.22 0.27,0.26 0.52,0.26 0.27,0 0.30,0.02 0.51,0.38 0.45,0.81 0.76,0.94 1.73,0.74 l 0.60,-0.12 -0.00,-0.45 c -0.00,-0.33 0.02,-0.51 0.12,-0.67 0.19,-0.30 1.07,-0.99 1.61,-1.26 l 0.45,-0.22 -0.04,-0.44 c -0.02,-0.24 -0.05,-0.48 -0.07,-0.53 -0.11,-0.35 0.46,-0.87 1.32,-1.21 0.55,-0.21 0.77,-0.14 1.41,0.43 0.58,0.53 0.93,0.97 0.99,1.28 0.04,0.24 0.60,0.86 0.76,0.86 0.05,4.67e-4 0.42,0.23 0.82,0.51 0.40,0.28 0.85,0.56 1.00,0.63 0.14,0.06 0.29,0.18 0.31,0.25 0.02,0.07 0.26,0.28 0.53,0.46 0.26,0.18 0.68,0.46 0.91,0.62 0.23,0.16 0.55,0.36 0.71,0.43 0.15,0.07 0.28,0.17 0.28,0.20 0,0.05 0.42,0.35 0.62,0.43 0.04,0.01 0.17,0.09 0.29,0.18 0.12,0.08 0.33,0.21 0.47,0.29 0.14,0.07 0.27,0.16 0.29,0.19 0.06,0.08 0.46,0.28 0.59,0.29 0.06,0.00 0.18,-0.08 0.27,-0.18 z M 8.02,40.09 c -0.10,-0.10 -0.13,-0.19 -0.09,-0.34 0.06,-0.29 0.25,-0.67 0.32,-0.67 0.03,0 0.12,-0.09 0.19,-0.21 0.07,-0.11 0.26,-0.31 0.41,-0.42 0.15,-0.11 0.35,-0.27 0.43,-0.35 0.21,-0.20 0.46,-0.27 0.46,-0.13 0,0.11 -0.09,0.21 -0.51,0.55 -0.12,0.10 -0.39,0.34 -0.59,0.54 -0.36,0.36 -0.36,0.36 -0.31,0.73 0.05,0.43 -0.07,0.56 -0.32,0.31 z M 7.11,40.07 C 6.80,39.98 6.68,39.77 6.90,39.72 c 0.21,-0.05 0.64,0.12 0.64,0.27 0,0.17 -0.08,0.18 -0.43,0.08 z M 7.45,39.22 C 7.14,39.15 6.96,38.98 7.02,38.82 c 0.10,-0.26 0.85,0.02 0.85,0.33 0,0.14 -0.04,0.14 -0.42,0.05 z m 0.00,-1.24 c -0.09,-0.03 -0.16,-0.09 -0.16,-0.12 0,-0.10 0.17,-0.23 0.31,-0.23 0.18,0 0.56,0.22 0.56,0.34 0,0.10 -0.45,0.12 -0.71,0.01 z M 7.87,37.03 c 0,-0.16 0.27,-0.20 0.42,-0.05 0.14,0.14 0.09,0.20 -0.16,0.20 -0.20,0 -0.25,-0.02 -0.25,-0.14 z m 0.36,-0.53 c 0,-0.12 0.17,-0.20 0.33,-0.14 0.16,0.06 0.08,0.20 -0.13,0.23 -0.13,0.01 -0.19,-0.01 -0.19,-0.08 z M 10.37,35.33 C 10.19,35.10 9.86,34.41 9.82,34.19 9.79,34.06 9.66,33.82 9.51,33.66 9.37,33.51 9.26,33.34 9.26,33.28 c 0,-0.16 0.19,-0.28 0.34,-0.20 0.19,0.10 1.23,2.20 1.13,2.30 -0.07,0.07 -0.28,0.04 -0.36,-0.04 z m 13.31,-11.23 c -0.09,-0.13 -0.13,-0.14 -0.18,-0.06 -0.03,0.05 -0.14,0.08 -0.24,0.07 -0.13,-0.01 -0.17,-0.07 -0.19,-0.27 -0.01,-0.13 0.00,-0.27 0.04,-0.31 0.08,-0.08 0.30,0.12 0.30,0.29 0.00,0.09 0.03,0.08 0.14,-0.05 0.18,-0.24 0.40,-0.12 0.40,0.22 0,0.29 -0.12,0.35 -0.27,0.12 z m 0.68,-0.01 c -0.09,-0.11 -0.04,-0.47 0.07,-0.47 0.11,0 0.23,0.28 0.18,0.44 -0.05,0.17 -0.13,0.18 -0.25,0.03 z m 8.33,18.70 c 0.16,-0.04 0.34,-0.16 0.40,-0.27 0.06,-0.10 0.16,-0.23 0.21,-0.28 0.05,-0.05 0.14,-0.18 0.19,-0.30 0.10,-0.19 0.64,-0.69 1.24,-1.13 0.16,-0.11 0.43,-0.36 0.61,-0.54 0.36,-0.37 1.10,-1.72 1.10,-2.02 0,-0.33 -0.13,-0.68 -0.34,-0.91 -0.17,-0.18 -1.11,-0.71 -1.26,-0.71 -0.08,0 -0.87,0.81 -0.83,0.85 0.02,0.02 0.17,-0.10 0.34,-0.26 0.19,-0.18 0.36,-0.29 0.45,-0.28 0.31,0.04 0.16,0.38 -0.39,0.88 -0.13,0.12 -0.36,0.35 -0.51,0.51 -0.14,0.15 -0.33,0.35 -0.41,0.43 -0.08,0.08 -0.19,0.30 -0.24,0.49 -0.05,0.19 -0.12,0.34 -0.15,0.34 -0.03,0 -0.07,0.09 -0.10,0.20 -0.06,0.27 -0.47,0.87 -0.80,1.18 -0.32,0.30 -0.42,0.52 -0.40,0.92 0.01,0.37 -0.11,0.49 -0.39,0.39 -0.18,-0.07 -0.19,-0.09 -0.14,-0.42 0.07,-0.49 0.36,-0.98 0.84,-1.39 0.36,-0.31 0.44,-0.43 0.64,-0.97 0.12,-0.33 0.23,-0.64 0.23,-0.69 0,-0.04 0.14,-0.25 0.32,-0.46 0.18,-0.21 0.31,-0.39 0.30,-0.41 -0.12,-0.12 -1.08,0.82 -1.31,1.29 -0.06,0.14 -0.32,0.46 -0.56,0.72 -0.46,0.49 -0.57,0.50 -0.57,0.05 -0.00,-0.20 -0.01,-0.20 -0.27,-0.15 -0.15,0.02 -0.32,0.09 -0.38,0.15 -0.06,0.05 -0.16,0.10 -0.21,0.10 -0.17,0.00 -0.87,0.43 -0.87,0.53 0,0.12 0.32,0.48 0.43,0.48 0.04,0 0.17,-0.07 0.29,-0.15 0.20,-0.15 0.22,-0.15 0.47,-0.03 0.23,0.11 0.25,0.14 0.25,0.44 0,0.17 0.05,0.49 0.12,0.70 0.11,0.36 0.14,0.39 0.56,0.58 0.49,0.22 0.72,0.25 1.15,0.12 z m 1.20,-2.07 c -0.08,-0.08 0.09,-0.32 0.24,-0.32 0.11,0 0.14,0.04 0.12,0.16 -0.02,0.16 -0.26,0.26 -0.37,0.15 z m -0.14,-0.51 c -0.09,-0.09 -0.04,-0.31 0.08,-0.38 0.21,-0.11 0.23,-0.09 0.21,0.16 -0.02,0.22 -0.18,0.34 -0.30,0.22 z m -0.19,-0.78 c 0,-0.05 0.06,-0.17 0.14,-0.27 0.11,-0.13 0.15,-0.15 0.23,-0.08 0.06,0.06 0.07,0.13 0.00,0.27 -0.08,0.19 -0.37,0.25 -0.37,0.08 z m -18.29,3.20 c 0.17,-0.17 0.15,-0.74 -0.03,-1.04 -0.15,-0.25 -0.14,-0.44 0.02,-0.44 0.14,0 0.39,0.29 0.45,0.52 0.13,0.53 0.50,0.28 0.56,-0.38 0.03,-0.35 0.01,-0.44 -0.15,-0.70 -0.10,-0.16 -0.29,-0.37 -0.41,-0.48 -0.21,-0.18 -0.21,-0.19 -0.09,-0.40 0.14,-0.25 0.11,-0.30 -0.19,-0.30 -0.19,0 -0.30,-0.07 -0.60,-0.41 -0.20,-0.22 -0.37,-0.46 -0.37,-0.51 0,-0.05 -0.08,-0.19 -0.18,-0.31 -0.09,-0.11 -0.21,-0.33 -0.25,-0.49 -0.06,-0.25 -0.28,-0.53 -0.91,-1.18 -0.36,-0.37 -0.73,-0.42 -1.24,-0.17 -0.69,0.34 -0.76,0.42 -0.76,0.93 0.00,0.25 0.06,0.62 0.14,0.85 0.07,0.22 0.14,0.50 0.14,0.63 0.00,0.47 0.54,1.41 0.88,1.51 0.07,0.02 0.19,0.14 0.25,0.25 0.06,0.11 0.15,0.21 0.21,0.21 0.19,0 0.54,0.52 0.62,0.94 0.11,0.58 0.25,0.87 0.41,0.88 0.07,0.00 0.18,0.04 0.25,0.09 0.06,0.04 0.34,0.10 0.62,0.11 0.39,0.01 0.53,-0.00 0.62,-0.09 z M 14.60,40.77 C 14.49,40.66 14.34,40.43 14.27,40.26 14.21,40.09 14.08,39.88 14.00,39.80 c -0.12,-0.12 -0.14,-0.22 -0.13,-0.65 0.01,-0.38 -0.00,-0.53 -0.10,-0.63 -0.06,-0.07 -0.17,-0.27 -0.23,-0.45 -0.06,-0.17 -0.14,-0.35 -0.18,-0.40 -0.11,-0.13 -0.43,-0.78 -0.43,-0.88 -5.45e-4,-0.16 0.13,-0.17 0.27,-0.02 0.07,0.08 0.28,0.43 0.45,0.78 0.17,0.35 0.38,0.72 0.45,0.84 0.08,0.12 0.14,0.36 0.16,0.62 0.01,0.27 0.08,0.53 0.21,0.77 0.10,0.19 0.18,0.39 0.18,0.44 0,0.04 0.11,0.18 0.25,0.31 0.28,0.25 0.31,0.33 0.13,0.40 -0.18,0.07 -0.23,0.05 -0.45,-0.15 z m -2.17,-0.89 c 0.02,-0.04 0.07,-0.07 0.11,-0.07 0.03,0 0.06,0.03 0.06,0.07 0,0.04 -0.05,0.07 -0.11,0.07 -0.06,0 -0.09,-0.03 -0.06,-0.07 z m 0.44,-0.28 c -0.07,-0.11 0.02,-0.22 0.18,-0.22 0.10,0 0.13,0.04 0.12,0.12 -0.02,0.14 -0.24,0.21 -0.31,0.09 z m 0.48,-0.51 c 0.01,-0.04 0.05,-0.08 0.08,-0.08 0.08,0.00 0.07,0.10 -0.02,0.14 -0.04,0.01 -0.07,-0.01 -0.05,-0.05 z m 26.33,2.57 c 0.23,-0.15 0.66,-0.58 0.82,-0.84 0.24,-0.38 0.43,-1.14 0.38,-1.55 -0.05,-0.46 -0.00,-0.50 0.63,-0.55 0.27,-0.02 0.57,-0.09 0.67,-0.15 0.16,-0.10 0.17,-0.14 0.14,-0.57 -0.02,-0.25 -0.06,-0.57 -0.10,-0.71 -0.03,-0.14 -0.06,-0.37 -0.06,-0.51 -0.00,-0.57 -0.61,-1.90 -1.07,-2.33 -0.15,-0.14 -0.35,-0.36 -0.46,-0.50 l -0.19,-0.24 -0.07,0.24 c -0.04,0.14 -0.06,0.51 -0.04,0.90 0.02,0.47 0.00,0.80 -0.08,1.18 -0.10,0.46 -0.16,0.57 -0.48,0.89 -0.35,0.35 -0.53,0.42 -0.51,0.18 0.01,-0.20 -0.41,-0.22 -0.93,-0.04 -0.25,0.09 -0.49,0.19 -0.53,0.22 -0.03,0.03 -0.19,0.06 -0.35,0.06 -0.22,0 -0.27,-0.02 -0.25,-0.12 0.01,-0.06 0.10,-0.16 0.20,-0.21 0.99,-0.49 0.96,-0.49 1.53,-0.47 0.30,0.00 0.61,-0.00 0.70,-0.02 0.17,-0.03 0.31,-0.36 0.31,-0.72 0,-0.27 -0.04,-0.34 -0.20,-0.25 -0.06,0.03 -0.25,0.09 -0.41,0.13 -0.16,0.04 -0.47,0.19 -0.69,0.33 -0.21,0.14 -0.46,0.25 -0.54,0.25 -0.25,0.00 -1.08,0.46 -1.20,0.66 -0.09,0.16 -0.09,0.27 -0.01,0.78 0.09,0.58 0.09,0.60 -0.10,1.08 -0.11,0.26 -0.24,0.55 -0.30,0.63 -0.05,0.07 -0.09,0.21 -0.09,0.30 0,0.23 0.27,0.82 0.42,0.90 0.07,0.03 0.40,0.07 0.74,0.07 0.97,0 1.23,0.17 1.23,0.83 l 0,0.35 0.38,-0.04 c 0.20,-0.02 0.46,-0.09 0.56,-0.16 z m -0.80,-0.02 c -0.08,-0.05 -0.08,-0.09 -0.00,-0.26 0.33,-0.71 0.15,-1.58 -0.37,-1.89 -0.23,-0.13 -1.00,-0.92 -0.98,-1.00 0.05,-0.17 0.26,-0.10 0.72,0.24 0.84,0.63 1.04,0.86 1.18,1.35 0.06,0.24 0.15,0.47 0.20,0.52 0.05,0.06 0.05,0.09 -0.00,0.09 -0.04,0 -0.11,0.17 -0.16,0.39 -0.09,0.42 -0.37,0.68 -0.57,0.55 z m 1.42,-3.49 c -0.04,-0.07 0.39,-0.55 0.61,-0.66 0.11,-0.06 0.14,-0.05 0.14,0.06 0,0.15 -0.25,0.47 -0.48,0.58 -0.19,0.09 -0.22,0.10 -0.27,0.01 z m -0.53,-0.49 c -0.05,-0.02 -0.09,-0.09 -0.09,-0.16 0,-0.20 0.16,-0.35 0.45,-0.39 0.23,-0.03 0.27,-0.02 0.27,0.10 0,0.16 -0.31,0.50 -0.45,0.49 -0.05,-0.00 -0.13,-0.02 -0.18,-0.04 z m -2.69,3.91 c 0.14,-0.08 0.35,-0.14 0.45,-0.14 0.11,0 0.18,-0.04 0.18,-0.10 0,-0.14 -0.58,-0.14 -1.24,-0.00 -0.60,0.13 -0.72,0.18 -0.72,0.30 0,0.17 0.99,0.13 1.33,-0.04 z M 17.40,40.58 c 0,-0.08 -0.12,-0.20 -0.32,-0.31 -0.18,-0.10 -0.38,-0.22 -0.44,-0.28 -0.13,-0.12 -0.43,-0.13 -0.43,-0.02 0,0.18 0.30,0.50 0.47,0.50 0.09,0 0.21,0.06 0.26,0.14 0.11,0.19 0.45,0.17 0.45,-0.02 z M 9.35,40.44 c 0.25,-0.11 0.33,-0.31 0.26,-0.67 -0.02,-0.16 -0.03,-0.37 -0.01,-0.47 0.03,-0.16 0.01,-0.15 -0.26,0.11 -0.25,0.25 -0.30,0.35 -0.33,0.65 -0.04,0.49 0.00,0.54 0.34,0.38 z m 1.71,-0.04 c 0.19,-0.10 0.21,-0.18 0.03,-0.12 -0.07,0.02 -0.25,0.00 -0.41,-0.03 -0.50,-0.13 -0.83,-0.05 -0.83,0.19 0,0.12 0.97,0.09 1.22,-0.03 z m 13.79,-5.54 0.22,-0.19 0.02,-1.95 c 0.01,-1.07 -0.00,-1.95 -0.02,-1.95 -0.02,2.4e-5 -0.15,0.06 -0.29,0.13 -0.24,0.14 -0.78,0.26 -1.04,0.23 -0.22,-0.02 -0.54,-0.16 -0.54,-0.24 0,-0.03 -0.03,-0.04 -0.07,-0.02 -0.04,0.02 -0.07,0.20 -0.07,0.40 0,0.27 0.02,0.36 0.11,0.36 0.06,0 0.24,0.06 0.39,0.14 0.38,0.19 0.72,0.18 1.05,-0.03 0.14,-0.10 0.30,-0.18 0.33,-0.18 0.13,0 0.06,0.19 -0.14,0.40 -0.27,0.26 -0.92,0.33 -1.38,0.15 -0.34,-0.13 -0.36,-0.11 -0.35,0.39 0.00,0.18 -0.00,0.83 -0.02,1.45 -0.02,0.80 -0.01,1.08 0.03,0.96 0.08,-0.19 0.31,-0.21 0.50,-0.03 0.13,0.12 0.71,0.23 0.94,0.18 0.06,-0.01 0.22,-0.11 0.34,-0.22 z m -1.30,-0.64 c -0.35,-0.06 -0.60,-0.45 -0.30,-0.45 0.07,0 0.26,0.05 0.41,0.11 0.26,0.11 0.52,0.10 0.88,-0.00 0.12,-0.04 0.16,-0.02 0.16,0.06 0,0.23 -0.60,0.38 -1.16,0.28 z m 0.78,-3.46 c 0.18,-0.04 0.39,-0.12 0.45,-0.17 0.06,-0.04 0.15,-0.10 0.20,-0.11 0.06,-0.02 0.10,-0.58 0.12,-2.36 0.02,-1.28 0.05,-2.45 0.07,-2.59 0.05,-0.38 -0.02,-0.46 -0.35,-0.32 -0.14,0.06 -0.39,0.11 -0.54,0.11 -0.40,0.00 -1.18,-0.09 -1.22,-0.16 -0.14,-0.23 -0.17,0.10 -0.14,1.83 0.01,1.04 0.05,2.10 0.08,2.35 0.02,0.25 0.05,0.58 0.06,0.74 0.02,0.59 0.03,0.60 0.16,0.57 0.07,-0.01 0.24,0.01 0.38,0.07 0.31,0.13 0.29,0.13 0.71,0.03 z m -0.80,-0.70 c -0.11,-0.06 -0.20,-0.18 -0.20,-0.25 -1.56e-4,-0.11 0.03,-0.12 0.23,-0.08 0.33,0.07 0.87,0.07 1.02,0.00 0.24,-0.11 0.13,0.15 -0.11,0.31 -0.29,0.17 -0.66,0.18 -0.94,0.01 z m -0.26,-3.77 c -0.12,-0.26 -0.10,-0.61 0.02,-0.61 0.14,0 0.25,0.23 0.25,0.54 0,0.31 -0.15,0.35 -0.28,0.07 z m 0.39,-0.07 c -0.09,-0.25 -0.05,-0.40 0.11,-0.38 0.12,0.01 0.16,0.07 0.18,0.26 0.01,0.19 -0.00,0.23 -0.11,0.23 -0.07,0 -0.16,-0.05 -0.18,-0.11 z m 0.70,-0.07 c -0.14,-0.05 -0.10,-0.21 0.08,-0.29 0.19,-0.08 0.26,-0.05 0.26,0.13 0,0.09 -0.16,0.24 -0.24,0.20 -0.00,-0.00 -0.05,-0.02 -0.10,-0.04 z m 17.06,4.25 c 0.14,-0.03 0.20,-0.11 0.27,-0.32 0.11,-0.37 0.10,-0.52 -0.02,-0.52 -0.06,0 -0.10,0.02 -0.10,0.05 0,0.09 -0.47,0.29 -0.80,0.35 -0.19,0.03 -0.30,0.09 -0.33,0.19 -0.05,0.18 0.02,0.25 0.33,0.29 0.26,0.02 0.34,0.02 0.66,-0.04 z M 24.90,20.85 c 0.21,-0.30 0.21,-0.36 -0.01,-0.23 -0.11,0.07 -0.18,0.07 -0.31,0.00 -0.09,-0.04 -0.24,-0.10 -0.33,-0.12 -0.18,-0.05 -0.21,-0.19 -0.07,-0.30 0.05,-0.03 0.32,-0.07 0.62,-0.07 0.44,-0.00 0.52,0.01 0.53,0.11 0.00,0.10 0.01,0.09 0.11,-0.02 0.43,-0.58 1.10,-1.35 1.18,-1.35 0.05,0 0.44,-0.20 0.85,-0.45 0.41,-0.25 1.04,-0.62 1.39,-0.82 0.84,-0.49 0.85,-0.56 0.10,-0.52 -0.66,0.03 -0.83,0.12 -0.63,0.33 0.16,0.18 0.15,0.30 -0.04,0.30 -0.16,0 -0.45,-0.16 -0.60,-0.33 -0.13,-0.15 -0.61,-0.18 -0.82,-0.03 -0.10,0.07 -0.33,0.22 -0.50,0.33 -0.17,0.11 -0.31,0.23 -0.31,0.26 0,0.08 0.12,0.07 0.18,-0.00 0.09,-0.14 0.31,-0.06 0.54,0.18 0.27,0.30 0.23,0.40 -0.12,0.38 -0.26,-0.02 -0.26,-0.01 -0.24,0.21 0.01,0.13 -0.00,0.23 -0.03,0.23 -0.03,0 -0.21,-0.16 -0.40,-0.37 -0.25,-0.27 -0.37,-0.36 -0.47,-0.32 -0.07,0.02 -0.27,0.08 -0.45,0.13 -0.41,0.10 -0.51,0.17 -0.51,0.38 0,0.25 -0.22,0.75 -0.33,0.75 -0.11,0 -0.07,-0.31 0.08,-0.72 0.12,-0.32 0.13,-0.31 -0.09,-0.28 -0.22,0.02 -0.24,0.06 -0.44,0.71 -0.09,0.32 -0.18,0.48 -0.27,0.49 -0.10,0.02 -0.11,-0.00 -0.07,-0.14 0.07,-0.26 0.26,-1.10 0.24,-1.12 -0.00,-0.00 -0.12,-0.05 -0.25,-0.10 -0.23,-0.09 -0.24,-0.08 -0.56,0.22 -0.17,0.17 -0.32,0.34 -0.32,0.37 0,0.03 0.34,0.43 0.77,0.89 0.42,0.45 0.83,0.93 0.91,1.05 0.19,0.32 0.49,0.30 0.74,-0.04 z M 9.71,20.76 c 0.10,-0.03 0.20,-0.14 0.22,-0.23 0.04,-0.15 0.03,-0.15 -0.57,-0.12 -0.43,0.02 -0.64,0.06 -0.68,0.13 -0.12,0.20 0.65,0.36 1.04,0.22 z M 22.62,20.57 c 0,-0.21 -0.77,-0.94 -1.20,-1.13 -0.09,-0.04 -0.17,-0.10 -0.17,-0.13 0,-0.08 -0.43,-0.24 -0.49,-0.17 -0.02,0.03 -0.01,0.07 0.03,0.08 0.13,0.04 0.98,0.62 1.13,0.77 0.07,0.07 0.12,0.15 0.12,0.18 -7.78e-4,0.06 0.45,0.45 0.52,0.45 0.03,0.00 0.05,-0.01 0.05,-0.04 z m 18.63,-0.09 c 0.19,-0.07 0.28,-0.24 0.22,-0.41 -0.02,-0.07 -0.08,-0.09 -0.16,-0.06 -0.06,0.02 -0.27,0.09 -0.47,0.14 -0.41,0.11 -0.44,0.13 -0.38,0.28 0.04,0.12 0.51,0.15 0.79,0.04 z M 21.67,20.32 c -0.10,-0.08 -0.31,-0.23 -0.47,-0.34 -0.16,-0.11 -0.45,-0.31 -0.65,-0.46 -0.36,-0.25 -0.76,-0.41 -0.76,-0.29 0,0.03 0.09,0.09 0.20,0.14 0.43,0.19 0.95,0.50 1.15,0.69 0.11,0.10 0.24,0.19 0.29,0.19 0.04,0 0.12,0.04 0.17,0.10 0.04,0.06 0.12,0.10 0.17,0.10 0.04,-8.88e-4 2.33e-4,-0.06 -0.10,-0.14 z m 19.53,-0.69 c 0.21,-0.13 0.22,-0.39 0.01,-0.39 -0.08,0 -0.27,0.06 -0.43,0.14 -0.27,0.14 -0.35,0.27 -0.23,0.39 0.07,0.07 0.44,-0.00 0.65,-0.14 z M 9.18,19.01 c 0.09,-0.05 0.09,-0.08 0,-0.19 -0.05,-0.06 -0.21,-0.17 -0.34,-0.22 -0.13,-0.05 -0.23,-0.15 -0.23,-0.21 0,-0.09 -0.01,-0.10 -0.10,-0.02 -0.16,0.13 -0.13,0.48 0.05,0.61 0.17,0.12 0.47,0.14 0.63,0.04 z m 10.36,-0.00 c 0,-0.04 -0.02,-0.07 -0.05,-0.07 -0.03,0 -0.12,-0.05 -0.20,-0.12 -0.28,-0.25 -0.75,-0.54 -0.84,-0.51 -0.04,0.01 0.05,0.11 0.23,0.22 0.17,0.10 0.42,0.27 0.54,0.37 0.23,0.19 0.32,0.23 0.32,0.11 z m 21.57,-0.25 c 0.17,-0.17 0.18,-0.33 0.00,-0.32 -0.11,0.00 -0.48,0.33 -0.48,0.43 0,0.14 0.29,0.07 0.48,-0.10 z m -20.84,0.06 c 0,-0.06 -0.31,-0.31 -0.40,-0.31 -0.04,-0.00 -0.19,-0.08 -0.32,-0.19 -0.13,-0.10 -0.41,-0.27 -0.60,-0.38 -0.19,-0.10 -0.43,-0.23 -0.52,-0.28 -0.23,-0.12 -1.12,-0.71 -1.30,-0.85 -0.08,-0.06 -0.35,-0.25 -0.61,-0.42 -0.83,-0.54 -0.92,-0.62 -1.18,-0.92 -0.14,-0.16 -0.27,-0.29 -0.30,-0.29 -0.02,0 -0.19,-0.10 -0.35,-0.24 -0.16,-0.13 -0.48,-0.35 -0.70,-0.48 -0.22,-0.13 -0.55,-0.36 -0.74,-0.50 -0.18,-0.14 -0.43,-0.31 -0.54,-0.38 -1.23,-0.74 -1.95,-1.25 -2.43,-1.70 -0.30,-0.29 -0.42,-0.34 -0.63,-0.32 -0.13,0.01 -0.11,0.15 0.01,0.15 0.06,0 0.10,0.02 0.10,0.06 0,0.03 0.18,0.24 0.40,0.47 0.35,0.35 1.02,0.82 1.71,1.21 0.11,0.06 0.49,0.34 0.84,0.62 0.35,0.27 0.74,0.55 0.86,0.62 0.12,0.06 0.39,0.24 0.62,0.41 0.22,0.16 0.63,0.42 0.91,0.57 0.28,0.14 0.70,0.39 0.93,0.55 0.23,0.15 0.44,0.28 0.45,0.28 0.01,0 0.08,0.05 0.16,0.12 0.21,0.20 0.39,0.34 0.87,0.66 0.24,0.16 0.46,0.33 0.48,0.37 0.02,0.03 0.18,0.13 0.35,0.21 0.16,0.08 0.39,0.20 0.49,0.27 0.50,0.34 0.69,0.45 0.79,0.45 0.06,3.89e-4 0.20,0.06 0.32,0.14 0.22,0.14 0.32,0.17 0.32,0.10 z m 2.19,-0.33 c 0.18,-0.20 0.28,-0.42 0.18,-0.42 -0.01,0 -0.08,-0.01 -0.14,-0.04 -0.07,-0.02 -0.11,-0.00 -0.11,0.05 0,0.05 -0.09,0.17 -0.21,0.26 -0.13,0.09 -0.20,0.20 -0.17,0.26 0.06,0.17 0.23,0.12 0.46,-0.12 z m 2.51,-0.32 c 0.07,-0.03 0.25,-0.09 0.39,-0.12 0.23,-0.04 0.65,-0.36 0.65,-0.49 0,-0.11 -0.23,-0.05 -0.55,0.13 -0.30,0.17 -0.36,0.18 -1.09,0.15 -0.78,-0.03 -1.12,-0.00 -1.12,0.08 0,0.04 0.40,0.24 0.65,0.31 0.18,0.05 0.91,0.00 1.06,-0.07 z m -3.00,-0.07 c 0.12,-0.07 0.24,-0.13 0.25,-0.14 0.01,-0.00 -0.02,-0.09 -0.08,-0.18 -0.12,-0.19 -0.71,-0.37 -1.21,-0.36 -0.52,0.00 -0.51,0.11 0.03,0.47 0.56,0.37 0.67,0.39 0.99,0.21 z m 3.23,-0.46 c -0.02,-0.05 -0.04,-0.04 -0.04,0.04 -0.00,0.07 0.01,0.12 0.03,0.09 0.02,-0.02 0.02,-0.08 0.00,-0.13 z M 3.07,17.34 c 0.39,-0.35 1.07,-1.30 1.07,-1.49 0,-0.05 0.03,-0.21 0.08,-0.34 0.10,-0.30 0.76,-0.73 1.13,-0.73 0.26,0 0.29,0.01 0.89,0.56 0.37,0.34 0.63,0.40 1.01,0.23 0.15,-0.06 0.40,-0.14 0.56,-0.17 0.34,-0.06 0.47,-0.15 0.47,-0.33 0,-0.16 -0.20,-0.24 -0.33,-0.13 -0.05,0.04 -0.37,0.09 -0.70,0.11 C 6.58,15.08 6.37,15.01 5.88,14.58 5.64,14.36 5.56,14.33 5.19,14.33 c -0.35,0 -0.48,0.03 -0.81,0.25 -0.44,0.28 -0.46,0.31 -0.65,0.86 -0.07,0.21 -0.19,0.46 -0.26,0.55 -0.17,0.20 -0.63,0.51 -1.02,0.69 -0.17,0.07 -0.31,0.16 -0.31,0.19 0,0.03 0.11,0.08 0.26,0.10 0.23,0.04 0.25,0.06 0.22,0.24 -0.01,0.10 -0.05,0.24 -0.08,0.31 -0.10,0.24 0.16,0.13 0.56,-0.21 z m 14.46,0.27 c -0.02,-0.04 -0.08,-0.07 -0.13,-0.07 -0.05,6.23e-4 -0.04,0.02 0.02,0.07 0.14,0.09 0.16,0.09 0.10,0 z m 7.68,-0.11 c 0.12,-0.06 0.24,-0.14 0.26,-0.17 0.02,-0.03 0.16,-0.10 0.31,-0.14 0.14,-0.04 0.46,-0.18 0.71,-0.29 0.64,-0.31 1.14,-1.02 1.35,-1.89 0.11,-0.47 0.14,-0.52 0.45,-0.62 0.18,-0.06 0.24,-0.12 0.27,-0.32 0.04,-0.29 0.23,-0.36 0.44,-0.17 0.19,0.17 0.61,0.09 0.87,-0.15 0.25,-0.24 0.44,-1.01 0.36,-1.45 -0.07,-0.37 -0.14,-0.54 -0.23,-0.54 -0.03,0 -0.06,-0.04 -0.06,-0.10 0,-0.16 0.20,-0.13 0.39,0.06 0.26,0.26 0.29,0.61 0.12,1.30 -0.08,0.32 -0.14,0.60 -0.12,0.62 0.01,0.01 0.11,-0.10 0.23,-0.25 0.16,-0.22 0.21,-0.34 0.21,-0.65 8.79e-4,-0.40 0.07,-0.55 0.18,-0.38 0.11,0.18 0.07,0.72 -0.07,1.01 -0.16,0.32 -0.62,0.61 -1.19,0.74 -0.37,0.08 -0.38,0.09 -0.62,0.60 -0.27,0.55 -0.31,0.81 -0.17,0.93 0.05,0.04 0.09,0.11 0.09,0.16 0.00,0.10 0.20,0.34 0.43,0.50 0.12,0.08 0.14,0.12 0.06,0.12 -0.06,0 -0.15,-0.04 -0.20,-0.10 -0.04,-0.06 -0.16,-0.10 -0.25,-0.10 -0.13,0 -0.19,-0.07 -0.32,-0.41 -0.17,-0.47 -0.15,-0.64 0.14,-1.09 0.11,-0.17 0.17,-0.33 0.14,-0.35 -0.03,-0.02 -0.10,0.03 -0.15,0.13 -0.04,0.09 -0.17,0.21 -0.27,0.26 -0.15,0.06 -0.19,0.13 -0.20,0.31 -0.00,0.12 -0.02,0.37 -0.05,0.54 -0.05,0.32 0.08,0.67 0.27,0.67 0.08,0 1.00,0.35 1.34,0.52 0.08,0.04 0.21,0.05 0.28,0.02 0.10,-0.04 0.09,-0.07 -0.10,-0.19 -0.12,-0.07 -0.23,-0.17 -0.23,-0.21 0,-0.10 0.32,-0.17 0.54,-0.11 0.14,0.03 0.19,0.01 0.24,-0.11 0.05,-0.15 0.03,-0.17 -0.25,-0.24 -0.17,-0.04 -0.42,-0.14 -0.55,-0.22 -0.20,-0.12 -0.23,-0.17 -0.23,-0.42 0.00,-0.38 0.33,-0.87 0.65,-0.98 0.40,-0.13 0.87,-0.54 1.01,-0.88 0.09,-0.24 0.11,-0.42 0.07,-0.80 -0.07,-0.71 -0.26,-1.03 -0.80,-1.32 -0.99,-0.52 -1.22,-0.79 -1.31,-1.54 C 29.27,9.44 29.29,9.27 29.36,9.13 29.51,8.85 29.50,8.73 29.33,8.37 29.25,8.20 29.18,8.03 29.18,7.99 c 0,-0.03 -0.31,-0.38 -0.69,-0.77 -0.62,-0.63 -0.77,-0.87 -0.64,-1.00 0.07,-0.07 0.36,0.15 0.56,0.45 0.10,0.15 0.31,0.37 0.47,0.48 0.17,0.12 0.40,0.40 0.58,0.72 0.24,0.43 0.29,0.58 0.30,0.96 0.00,0.31 -0.01,0.47 -0.09,0.55 -0.23,0.23 0.02,0.81 0.55,1.23 0.32,0.26 0.41,0.21 0.18,-0.11 C 30.26,10.31 30.24,10.18 30.20,9.29 30.16,8.34 30.15,8.28 29.89,7.76 29.56,7.10 28.99,6.47 28.47,6.20 28.25,6.09 28.11,5.83 28.17,5.65 c 0.04,-0.12 1.16,0.68 1.47,1.06 0.15,0.18 0.36,0.50 0.46,0.70 0.09,0.20 0.19,0.34 0.20,0.33 0.01,-0.01 0.01,-0.18 -0.01,-0.37 C 30.27,7.10 30.19,6.96 29.90,6.65 29.70,6.44 29.49,6.18 29.44,6.08 29.31,5.85 28.77,5.43 28.59,5.43 c -0.07,0 -0.15,-0.05 -0.19,-0.12 -0.04,-0.08 -0.15,-0.11 -0.34,-0.11 -0.46,0.01 -0.76,-0.27 -0.39,-0.38 0.11,-0.03 0.13,-0.06 0.06,-0.15 -0.07,-0.08 -0.12,-0.08 -0.33,0.04 -0.31,0.19 -0.49,0.13 -0.43,-0.12 0.05,-0.20 -0.11,-0.53 -0.26,-0.53 -0.06,0 -0.06,0.02 0.00,0.08 0.11,0.11 0.11,0.36 -0.01,0.53 -0.05,0.07 -0.10,0.19 -0.10,0.26 -0.00,0.24 -0.15,0.21 -0.44,-0.09 -0.15,-0.17 -0.28,-0.33 -0.28,-0.36 -0.00,-0.02 0.08,-0.07 0.19,-0.11 L 26.23,4.28 25.86,4.12 C 25.61,4.00 25.35,3.94 25.02,3.94 c -0.26,-0.00 -0.52,-0.03 -0.58,-0.07 -0.20,-0.13 -1.53,-0.13 -2.15,-0.00 -0.32,0.06 -0.72,0.13 -0.90,0.14 -0.42,0.03 -1.07,0.29 -1.43,0.58 -0.16,0.12 -0.39,0.28 -0.51,0.35 -0.40,0.23 -1.45,1.83 -1.58,2.39 -0.03,0.16 -0.19,0.57 -0.35,0.89 -0.19,0.38 -0.31,0.75 -0.36,1.09 -0.04,0.28 -0.12,0.71 -0.17,0.96 -0.15,0.65 -0.15,0.66 0.14,1.60 0.06,0.20 0.11,0.44 0.11,0.52 0,0.08 0.03,0.17 0.07,0.19 0.08,0.05 0.09,-0.15 0.07,-1.23 -0.01,-0.56 0.00,-0.77 0.06,-0.74 0.04,0.02 0.08,0.13 0.08,0.23 0,0.09 0.06,0.38 0.15,0.63 0.24,0.73 0.12,1.70 -0.29,2.24 -0.47,0.61 -0.53,1.82 -0.09,1.82 0.06,0 0.16,0.04 0.22,0.09 0.06,0.05 0.27,0.18 0.46,0.29 0.31,0.17 0.35,0.18 0.39,0.07 0.03,-0.08 -0.05,-0.21 -0.29,-0.44 -0.31,-0.29 -0.34,-0.34 -0.29,-0.55 0.10,-0.48 0.38,-0.90 0.83,-1.25 0.34,-0.26 0.45,-0.31 0.48,-0.22 0.04,0.12 -0.23,0.52 -0.42,0.58 -0.21,0.07 -0.48,0.45 -0.53,0.77 -0.05,0.29 -0.04,0.32 0.24,0.57 0.24,0.21 0.30,0.32 0.32,0.55 0.02,0.35 0.13,0.49 0.46,0.61 0.13,0.04 0.24,0.11 0.24,0.13 0,0.02 0.08,0.08 0.18,0.13 0.16,0.07 0.20,0.06 0.36,-0.11 0.11,-0.12 0.17,-0.26 0.16,-0.38 -0.01,-0.15 -0.07,-0.19 -0.37,-0.24 -0.29,-0.05 -0.38,-0.11 -0.60,-0.39 -0.32,-0.42 -0.36,-0.59 -0.23,-0.97 0.08,-0.27 0.37,-0.56 0.65,-0.65 0.13,-0.04 0.18,-1.16 0.06,-1.48 -0.03,-0.09 -0.14,-0.27 -0.23,-0.40 -0.11,-0.16 -0.17,-0.37 -0.21,-0.74 -0.02,-0.28 -0.07,-0.68 -0.10,-0.87 -0.04,-0.31 -0.03,-0.35 0.07,-0.32 0.07,0.01 0.16,0.14 0.21,0.31 0.04,0.16 0.12,0.36 0.17,0.46 0.11,0.20 0.64,0.45 0.85,0.40 0.23,-0.06 0.27,0.09 0.05,0.23 -0.16,0.10 -0.22,0.11 -0.43,0.03 -0.44,-0.16 -0.54,0.11 -0.17,0.52 0.48,0.55 0.47,1.30 -0.02,1.99 -0.27,0.38 -0.36,0.68 -0.19,0.68 0.03,0 0.07,0.06 0.09,0.14 0.05,0.20 0.25,0.26 0.40,0.11 0.12,-0.10 0.14,-0.10 0.31,0.08 0.10,0.11 0.25,0.33 0.33,0.49 0.08,0.16 0.36,0.50 0.62,0.77 0.49,0.50 0.41,0.46 1.65,0.79 0.14,0.03 0.32,0.05 0.40,0.03 0.48,-0.10 0.72,-0.10 0.87,-0.00 0.08,0.05 0.27,0.11 0.40,0.13 0.13,0.01 0.25,0.03 0.25,0.04 0.00,0.00 0.10,-0.03 0.23,-0.10 z m -0.74,-0.89 c -0.07,-0.12 0.03,-0.28 0.23,-0.32 0.10,-0.02 0.21,-0.02 0.24,-0.00 0.08,0.05 -0.01,0.22 -0.14,0.27 -0.06,0.02 -0.16,0.06 -0.20,0.08 -0.04,0.02 -0.10,0.00 -0.12,-0.02 z M 24.15,16.03 c 0,-0.11 0.18,-0.23 0.36,-0.23 0.18,0 0.36,-0.11 0.36,-0.23 0,-0.11 -0.35,-0.05 -0.66,0.12 -0.38,0.22 -0.71,0.24 -0.71,0.04 0,-0.16 0.16,-0.24 0.83,-0.41 0.62,-0.16 1.05,-0.11 1.05,0.12 0,0.18 -0.27,0.42 -0.48,0.42 -0.08,0.00 -0.19,0.05 -0.24,0.11 -0.09,0.11 -0.51,0.15 -0.51,0.05 z m -6.99,-0.68 c -0.10,-0.10 -0.11,-0.75 -0.02,-0.81 0.03,-0.02 0.08,-0.12 0.11,-0.22 0.02,-0.09 0.16,-0.34 0.31,-0.55 0.22,-0.31 0.30,-0.36 0.44,-0.32 0.37,0.09 0.40,-0.44 0.06,-1.21 -0.21,-0.49 -0.23,-0.59 -0.22,-1.23 0.01,-0.69 0.21,-1.68 0.35,-1.72 0.04,-0.01 0.07,0.40 0.06,1.19 -0.00,1.17 0.00,1.24 0.19,1.71 0.23,0.56 0.25,0.89 0.07,1.30 -0.12,0.28 -0.35,0.43 -0.52,0.32 -0.09,-0.06 -0.49,0.49 -0.58,0.81 -0.04,0.16 -0.04,0.30 -6.23e-4,0.38 0.11,0.21 0.08,0.43 -0.06,0.43 -0.07,0 -0.17,-0.03 -0.21,-0.08 z m 6.62,-0.67 c 0,-0.12 0.19,-0.20 0.26,-0.10 0.02,0.04 0.00,0.10 -0.05,0.14 -0.14,0.09 -0.21,0.08 -0.21,-0.03 z m 0.60,-0.06 c 0.01,-0.05 0.09,-0.09 0.16,-0.09 0.07,0 0.14,0.04 0.16,0.09 0.01,0.05 -0.04,0.09 -0.16,0.09 -0.12,0 -0.18,-0.03 -0.16,-0.09 z m 4.01,-1.09 c 0.01,-0.05 0.07,-0.08 0.12,-0.06 0.18,0.04 0.18,-0.14 0.01,-0.50 -0.17,-0.35 -0.17,-0.36 -0.05,-0.79 0.08,-0.28 0.10,-0.54 0.07,-0.74 -0.02,-0.17 -0.04,-0.72 -0.04,-1.22 0.00,-0.83 -0.05,-1.44 -0.18,-1.76 -0.08,-0.21 0.22,-0.15 0.31,0.05 0.22,0.49 0.27,1.69 0.07,2.19 -0.04,0.11 -0.02,0.32 0.05,0.63 0.10,0.41 0.11,0.49 0.01,0.66 -0.05,0.10 -0.10,0.36 -0.10,0.57 -0.00,0.33 0.01,0.37 0.15,0.40 0.10,0.01 0.20,-0.03 0.28,-0.16 0.12,-0.18 0.12,-0.31 -0.01,-0.97 -0.06,-0.31 0.13,-0.32 0.29,-0.02 0.13,0.25 0.13,0.39 0.03,1.00 -0.07,0.43 -0.09,0.47 -0.38,0.64 -0.33,0.19 -0.73,0.24 -0.67,0.08 z m -7.68,-0.23 c 0,-0.06 0.18,-0.36 0.38,-0.61 0.41,-0.52 0.41,-0.52 0.73,-0.47 0.16,0.02 0.41,0.05 0.55,0.06 0.24,0.01 0.25,0.03 0.27,0.29 0.02,0.35 -0.05,0.45 -0.55,0.60 -0.47,0.14 -0.71,0.13 -0.87,-0.02 -0.10,-0.10 -0.12,-0.09 -0.23,0.04 -0.11,0.14 -0.28,0.21 -0.28,0.11 z m 4.32,-0.83 c -0.05,-0.08 -0.17,-0.14 -0.27,-0.14 -0.24,0 -0.30,-0.18 -0.12,-0.42 0.30,-0.40 1.45,-0.65 1.91,-0.41 0.28,0.14 0.28,0.24 0.02,0.27 -0.15,0.01 -0.20,0.06 -0.23,0.24 -0.02,0.17 -0.11,0.25 -0.43,0.41 -0.47,0.23 -0.73,0.25 -0.86,0.05 z M 20.72,12.12 c 0,-0.13 0.58,-0.68 0.78,-0.74 0.10,-0.03 0.26,0.00 0.45,0.10 0.16,0.08 0.35,0.15 0.43,0.15 0.07,0 0.14,0.02 0.14,0.06 0,0.14 -0.21,0.21 -0.66,0.20 -0.40,-0.00 -0.52,0.01 -0.70,0.15 -0.24,0.18 -0.44,0.21 -0.44,0.06 z m 6.79,-0.43 c -0.03,-0.09 -0.08,-0.27 -0.11,-0.41 C 27.31,10.88 27.23,10.77 26.94,10.65 26.62,10.52 25.95,9.82 25.77,9.43 25.70,9.28 25.62,9.16 25.59,9.15 c -0.05,-0.00 -0.13,0.35 -0.16,0.74 -0.01,0.12 -0.02,0.25 -0.02,0.29 -0.00,0.03 -0.12,0.11 -0.27,0.18 l -0.26,0.12 -0.17,-0.21 C 24.48,10.03 24.26,9.41 24.32,9.26 c 0.06,-0.17 0.25,-0.11 0.30,0.09 0.05,0.26 0.27,0.69 0.36,0.72 0.04,0.01 0.07,-0.27 0.07,-0.76 0,-0.68 0.02,-0.85 0.21,-1.33 0.25,-0.65 0.35,-0.79 0.51,-0.66 0.05,0.04 0.12,0.16 0.13,0.24 0.01,0.10 0.03,0.06 0.04,-0.09 0.01,-0.27 0.11,-0.50 0.19,-0.41 0.02,0.02 0.05,0.23 0.06,0.44 0.00,0.21 0.04,0.44 0.09,0.49 0.04,0.05 0.11,0.24 0.16,0.42 0.11,0.42 0.50,1.01 1.04,1.56 0.23,0.24 0.44,0.52 0.46,0.62 0.02,0.10 0.08,0.38 0.15,0.63 0.12,0.50 0.08,0.68 -0.11,0.49 -0.11,-0.10 -0.13,-0.10 -0.17,-0.00 -0.06,0.16 -0.26,0.13 -0.33,-0.05 z m -0.00,-1.18 c 0,-0.02 -0.18,-0.23 -0.41,-0.47 -0.43,-0.46 -0.89,-1.17 -0.89,-1.42 -0.00,-0.08 -0.05,-0.22 -0.11,-0.32 -0.10,-0.17 -0.10,-0.16 -0.06,0.18 0.11,1.06 0.12,1.07 1.02,1.79 0.33,0.26 0.47,0.34 0.47,0.25 z M 20.49,11.32 c -0.10,-0.09 -0.29,-0.33 -0.42,-0.54 -0.21,-0.35 -0.23,-0.43 -0.23,-1.09 -0.00,-0.59 0.02,-0.76 0.15,-1.01 0.08,-0.16 0.21,-0.34 0.28,-0.40 0.07,-0.05 0.24,-0.24 0.38,-0.42 0.36,-0.46 0.94,-0.94 1.15,-0.94 0.19,-0.00 0.07,0.22 -0.26,0.49 -0.29,0.22 -0.64,0.64 -0.83,1.01 -0.02,0.04 -0.07,0.30 -0.12,0.57 -0.07,0.46 -0.06,0.51 0.10,0.86 0.09,0.20 0.22,0.43 0.28,0.50 0.08,0.11 0.63,0.38 1.01,0.51 0.15,0.05 0.16,0.18 0.02,0.23 -0.12,0.04 -1.16,-0.37 -1.28,-0.52 -0.13,-0.16 -0.28,-0.12 -0.28,0.08 0,0.27 0.11,0.44 0.36,0.53 0.12,0.04 0.21,0.11 0.19,0.17 -0.05,0.15 -0.30,0.14 -0.50,-0.03 z m 4.06,0.08 c -0.06,-0.10 0.01,-0.20 0.25,-0.33 0.11,-0.06 0.26,-0.20 0.32,-0.32 0.09,-0.18 0.15,-0.21 0.39,-0.21 0.37,0 0.69,0.24 0.58,0.44 -0.06,0.11 -0.15,0.14 -0.46,0.14 -0.31,0 -0.43,0.03 -0.61,0.18 -0.22,0.19 -0.41,0.23 -0.48,0.10 z m -2.40,-0.65 c -0.33,-0.14 -0.88,-0.70 -0.95,-0.97 -0.05,-0.22 -0.01,-0.44 0.07,-0.44 0.03,0 0.13,0.13 0.21,0.29 0.19,0.40 0.38,0.62 0.71,0.82 0.27,0.16 0.45,0.16 0.28,-0.00 -0.04,-0.04 -0.08,-0.13 -0.08,-0.19 -2.33e-4,-0.06 -0.04,-0.20 -0.10,-0.32 -0.14,-0.28 -0.13,-0.41 0.04,-0.41 0.11,0 0.19,0.10 0.32,0.38 0.18,0.41 0.28,0.53 0.51,0.57 0.18,0.03 0.23,0.26 0.06,0.32 -0.06,0.02 -0.18,0.00 -0.26,-0.04 -0.08,-0.05 -0.17,-0.06 -0.22,-0.02 -0.17,0.13 -0.31,0.13 -0.59,0.01 z m 1.97,-0.22 c -0.18,-0.14 -0.20,-0.14 -0.28,-0.02 -0.05,0.07 -0.16,0.11 -0.26,0.09 -0.29,-0.04 -0.44,-0.54 -0.39,-1.32 0.06,-1.11 0.40,-1.74 1.31,-2.46 0.43,-0.34 0.69,-0.45 0.69,-0.28 0,0.04 -0.22,0.30 -0.51,0.59 -0.59,0.61 -0.81,1.08 -0.81,1.75 0.00,0.55 0.17,1.14 0.40,1.36 0.31,0.30 0.19,0.54 -0.13,0.28 z M 21.77,9.51 C 21.58,9.13 21.67,8.38 22.01,7.71 22.15,7.42 22.31,7.19 22.35,7.20 c 0.11,0.04 0.05,0.33 -0.15,0.68 -0.15,0.26 -0.18,0.41 -0.19,1.03 -0.00,0.40 -0.03,0.75 -0.06,0.77 -0.02,0.02 -0.09,-0.06 -0.16,-0.19 z M 18.21,8.14 c -0.11,-0.18 0.40,-1.22 0.91,-1.80 0.20,-0.23 0.40,-0.44 0.44,-0.45 0.09,-0.03 0.07,0.19 -0.02,0.25 -0.05,0.03 -0.18,0.23 -0.30,0.45 -0.11,0.22 -0.28,0.48 -0.37,0.58 -0.09,0.10 -0.19,0.28 -0.21,0.40 -0.10,0.46 -0.31,0.73 -0.42,0.55 z m 8.90,-0.31 c -0.28,-0.33 -0.55,-0.96 -0.55,-1.31 0,-0.29 0.15,-0.23 0.23,0.08 0.10,0.41 0.50,1.16 0.68,1.28 0.20,0.13 0.22,0.24 0.03,0.24 -0.07,0 -0.25,-0.13 -0.40,-0.30 z M 20.79,7.24 c 0,-0.05 0.05,-0.14 0.12,-0.20 0.46,-0.38 0.80,-0.65 0.84,-0.65 0.06,0 0.92,-0.41 1.08,-0.52 0.09,-0.06 0.14,-0.06 0.20,-0.00 0.05,0.05 0.01,0.12 -0.16,0.26 -0.21,0.16 -0.38,0.25 -1.10,0.61 -0.11,0.05 -0.24,0.10 -0.29,0.10 -0.04,0 -0.12,0.05 -0.16,0.12 -0.12,0.19 -0.53,0.41 -0.53,0.29 z M 27.62,7.08 C 27.29,6.78 26.93,5.50 27.17,5.50 c 0.03,-0.00 0.15,0.26 0.26,0.58 0.22,0.67 0.37,0.92 0.58,0.99 0.08,0.02 0.13,0.07 0.10,0.11 -0.07,0.12 -0.31,0.07 -0.50,-0.10 z m -7.62,-0.08 c 0,-0.19 1.09,-1.21 1.57,-1.46 0.79,-0.41 1.73,-0.68 2.45,-0.68 0.35,-0.00 0.75,0.03 0.90,0.08 0.14,0.04 0.27,0.07 0.29,0.05 0.02,-0.02 -0.60,-0.32 -0.94,-0.44 -0.10,-0.03 -0.11,-0.07 -0.06,-0.12 0.15,-0.15 1.07,0.13 1.55,0.50 0.23,0.17 0.43,0.35 0.43,0.38 0,0.03 0.07,0.07 0.16,0.08 0.17,0.02 0.17,0.04 0.04,0.60 -0.09,0.40 -0.19,0.50 -0.34,0.38 -0.07,-0.05 -0.08,-0.16 -0.05,-0.36 0.05,-0.33 -0.04,-0.48 -0.30,-0.48 -0.10,0 -0.43,-0.06 -0.73,-0.15 -0.41,-0.11 -0.67,-0.14 -1.02,-0.11 -0.55,0.04 -1.90,0.48 -2.39,0.78 -0.18,0.11 -0.48,0.28 -0.66,0.37 -0.20,0.11 -0.38,0.27 -0.47,0.44 -0.14,0.27 -0.40,0.37 -0.40,0.15 z m 6.67,-1.03 c 0.05,-0.23 0.09,-0.27 0.15,-0.21 0.06,0.06 -0.03,0.41 -0.12,0.41 -0.05,0 -0.06,-0.07 -0.02,-0.20 z m -1.60,0.00 c -0.14,-0.11 -0.65,-0.10 -1.03,0.01 -0.09,0.02 -0.16,0.02 -0.16,-0.01 1.56e-4,-0.10 0.78,-0.39 1.08,-0.39 0.31,0 0.45,0.10 0.45,0.34 0,0.19 -0.11,0.21 -0.32,0.05 z M 20.72,5.47 c 0,-0.02 0.22,-0.15 0.49,-0.29 0.27,-0.14 0.76,-0.42 1.10,-0.63 0.46,-0.28 0.68,-0.37 0.91,-0.38 0.22,-0.00 0.30,0.02 0.30,0.10 0,0.07 -0.05,0.10 -0.18,0.08 -0.10,-0.01 -0.33,0.01 -0.53,0.06 -0.26,0.06 -0.37,0.13 -0.45,0.28 -0.07,0.14 -0.26,0.26 -0.70,0.45 -0.68,0.29 -0.93,0.37 -0.93,0.31 z M 17.29,17.40 c 0,-0.03 -0.07,-0.10 -0.16,-0.15 -0.16,-0.08 -0.16,-0.08 -0.02,0.07 0.15,0.17 0.18,0.18 0.18,0.08 z m 25.39,-0.22 c 0.27,0 0.28,-0.01 0.39,-0.34 0.06,-0.19 0.12,-0.54 0.13,-0.78 0.01,-0.23 0.06,-0.50 0.10,-0.58 0.09,-0.17 0.50,-0.39 0.73,-0.39 0.15,0 0.44,0.23 0.44,0.35 0,0.03 0.15,0.17 0.34,0.29 0.30,0.20 0.37,0.22 0.71,0.18 0.50,-0.06 0.54,-0.13 0.19,-0.33 -0.16,-0.09 -0.29,-0.19 -0.29,-0.23 0,-0.13 0.36,-0.42 0.53,-0.42 0.19,0 0.40,-0.17 0.40,-0.33 0,-0.14 -0.01,-0.13 -0.46,0.11 -0.47,0.26 -1.47,0.39 -1.54,0.19 -0.06,-0.16 -0.35,-0.21 -0.69,-0.12 -0.33,0.09 -0.60,0.48 -0.69,1.01 -0.02,0.17 -0.10,0.40 -0.15,0.49 -0.15,0.23 -0.73,0.53 -1.13,0.58 -0.35,0.04 -0.54,0.17 -0.45,0.30 0.02,0.04 0.25,0.07 0.51,0.07 0.32,0 0.47,0.02 0.47,0.09 0.00,0.05 0.03,0.03 0.07,-0.03 0.05,-0.08 0.16,-0.12 0.35,-0.12 z M 16.81,17.05 C 16.64,16.93 16.15,16.55 16.01,16.43 c -0.08,-0.07 -0.24,-0.18 -0.36,-0.24 l -0.21,-0.10 0.18,0.14 c 0.10,0.08 0.23,0.19 0.29,0.24 0.06,0.05 0.24,0.19 0.40,0.31 0.16,0.11 0.33,0.25 0.39,0.30 0.05,0.05 0.11,0.07 0.14,0.05 0.02,-0.02 0.01,-0.06 -0.03,-0.09 z m 11.53,-0.37 c 0.02,-0.03 -0.00,-0.09 -0.05,-0.12 -0.14,-0.08 -0.26,-0.34 -0.26,-0.56 0,-0.10 -0.03,-0.18 -0.08,-0.18 -0.05,0 -0.06,0.09 -0.03,0.31 0.07,0.46 0.31,0.77 0.44,0.57 z m -8.79,-1.09 c -0.27,-0.32 -0.43,-0.44 -0.43,-0.31 0,0.02 0.09,0.15 0.21,0.29 0.12,0.13 0.21,0.28 0.21,0.31 0,0.03 0.06,0.07 0.15,0.07 0.13,0 0.11,-0.04 -0.15,-0.36 z M 9.46,13.06 C 9.71,12.88 9.91,12.70 9.91,12.67 9.90,12.56 9.03,11.99 8.93,12.02 8.63,12.14 8.44,12.86 8.51,13.56 l 0.04,0.36 0.22,-0.26 c 0.12,-0.14 0.43,-0.41 0.68,-0.59 z M 38.00,35.46 c -0.08,-0.08 0.15,-0.60 0.53,-1.17 0.20,-0.31 0.50,-0.81 0.65,-1.11 0.29,-0.59 0.54,-0.87 0.65,-0.75 0.07,0.07 0.01,0.19 -0.43,0.95 -0.13,0.23 -0.40,0.70 -0.58,1.04 -0.57,1.07 -0.67,1.20 -0.82,1.05 z m 1.81,-19.91 c -0.35,-0.21 -0.84,-0.41 -1.26,-0.52 -0.13,-0.03 -0.11,-0.15 0.04,-0.24 0.16,-0.08 0.49,0.01 1.28,0.39 0.28,0.13 0.57,0.26 0.64,0.28 0.19,0.06 0.12,0.29 -0.09,0.31 -0.10,0.01 -0.35,-0.08 -0.61,-0.23 z" />
</svg>
