<?xml version="1.0" encoding="UTF-8" standalone="no"?>
<!-- Created with Inkscape (http://www.inkscape.org/) -->
<svg xmlns:dc="http://purl.org/dc/elements/1.1/" xmlns:cc="http://creativecommons.org/ns#" xmlns:rdf="http://www.w3.org/1999/02/22-rdf-syntax-ns#" xmlns:svg="http://www.w3.org/2000/svg" xmlns="http://www.w3.org/2000/svg" version="1.1" width="100%" height="100%" viewBox="0 0 48 48" id="svg2" xml:space="preserve">
<defs id="defs94" />
<path d="m 26.40,0.71 c -1.25,5.79e-4 -2.36,0.38 -3.23,0.69 -0.05,0.31 -0.24,0.49 -0.55,0.55 -0.13,1.19 -1.43,1.23 -1.55,2.44 0.06,0.30 0.46,0.27 0.44,0.66 -0.31,0.79 -0.78,1.44 -1.00,2.33 0.23,0.31 0.59,0.18 1.00,0.11 -0.03,0.66 0.38,0.87 0.89,1.00 0.08,-0.25 0.47,-0.19 0.66,-0.33 l 0,0.55 c 0.29,0.27 0.37,-0.28 0.66,-0.33 0.38,0.98 1.33,0.53 2.00,0.11 0.32,-0.02 0.34,0.25 0.66,0.22 1.29,-0.03 1.46,-1.20 2.55,-1.44 C 29.18,6.83 30.19,6.35 29.61,5.75 28.80,6.01 28.08,6.96 27.50,7.08 27.56,6.70 27.87,6.56 27.83,6.08 27.21,6.03 27.16,5.97 26.83,6.30 26.88,5.95 26.53,6.01 26.50,5.75 26.71,5.62 27.03,5.61 26.94,5.19 26.47,4.37 25.62,5.43 25.05,5.30 l -0.00,0 C 25.20,5.12 25.36,4.95 25.49,4.74 25.25,4.62 25.19,4.30 24.94,4.19 25.84,3.57 27.43,3.63 27.61,2.30 26.42,2.44 25.85,3.21 24.60,3.30 23.97,2.65 24.79,2.23 25.61,1.74 26.17,1.40 26.95,1.30 26.94,0.74 26.76,0.72 26.58,0.71 26.40,0.71 z m 2.77,0.11 c -0.38,-0.00 -7.13e-4,0.32 0.21,0.02 -0.08,-0.01 -0.15,-0.02 -0.21,-0.02 z m 0.90,0.01 c -0.16,-0.00 -0.32,0.05 -0.35,0.23 0.26,0.05 0.74,0.48 0.89,0 -0.07,-0.11 -0.31,-0.22 -0.53,-0.23 z m 1.20,0.01 C 31.19,1.06 31.09,1.26 31.06,1.52 c 0.76,-0.15 0.18,0.45 0.44,0.66 0.34,0.08 0.32,-0.19 0.66,-0.11 -0.03,0.15 -0.15,0.21 -0.11,0.44 0.29,0.00 0.69,-0.10 0.55,0.33 0.99,-0.18 1.27,0.57 2.11,0.22 0.10,-0.44 0.10,-0.66 0,-1.11 0.48,0.44 1.03,0.82 1.55,1.22 -0.87,0.39 0.40,1.40 -0.11,1.77 0.52,0.35 0.45,0.49 0.44,1.00 0.47,0.02 0.59,-0.29 1.11,-0.22 -0.01,0.27 0.17,0.34 0.22,0.55 -0.31,0.20 -0.35,0.68 -0.44,1.11 0.52,-0.10 0.38,-0.87 0.89,-1.00 0.00,0.22 0.30,0.14 0.22,0.44 -0.10,0.59 -0.82,0.58 -0.77,1.33 0.56,-0.02 0.41,-0.76 1.00,-0.77 0.03,0.44 0.09,0.86 0.44,1.00 -0.00,-1.73 -0.82,-3.62 -1.44,-5.11 -0.39,-0.16 -0.66,-0.44 -0.89,-0.77 -0.31,-0.09 -0.28,0.15 -0.55,0.11 C 35.91,1.86 34.65,0.92 33.62,1.41 l -0.00,0 C 33.42,0.69 32.30,1.04 31.28,0.85 z M 21.49,1.85 C 21.13,2.86 19.98,3.09 18.82,3.30 18.93,3.70 18.42,3.72 18.26,3.96 18.13,4.17 18.08,4.62 17.93,4.97 17.78,5.29 17.52,5.55 17.37,5.86 16.91,6.82 16.62,7.98 16.37,8.75 16.21,9.24 16.09,9.65 16.15,10.20 c -0.30,-0.08 -0.22,0.22 -0.44,0.22 0.02,1.07 -0.24,1.74 -0.22,2.55 0.14,0.11 0.33,0.18 0.44,0.33 0.00,0.99 0.52,1.47 0.55,2.44 -0.26,0.03 -0.45,0.13 -0.66,0.22 -0.14,3.09 1.21,5.29 1.55,8.23 0.54,0.34 0.91,1.00 1.11,1.66 0.03,0.12 -0.14,0.16 -0.11,0.33 0.22,1.23 1.03,2.69 1.33,4.11 0.26,1.23 0.49,2.06 1.11,2.78 -1.19,0.08 -2.42,0.36 -3.22,0.11 0.02,0.21 -0.12,0.24 -0.11,0.44 0.04,0.44 0.47,-0.13 0.55,0.33 -0.62,0.00 -0.81,0.44 -1.44,0.44 0.15,0.82 0.59,0.12 1.00,0 -0.15,0.82 -0.05,1.21 -0.33,1.89 -0.75,-0.32 -1.39,-0.75 -1.66,-1.55 -0.65,0.44 0.50,0.95 0.33,1.22 -0.65,0.09 -0.81,-0.30 -1.11,-0.55 -0.34,0.37 -0.89,-0.53 -1.11,0.11 1.07,0.55 2.17,1.08 3.44,1.44 0.04,0.21 0.31,0.20 0.22,0.55 0.85,0.17 1.62,0.80 2.22,0.89 -0.04,1.16 -0.97,0.85 -1.77,1.11 0.22,-0.22 -0.05,-0.21 -0.11,-0.44 -1.38,-0.39 -2.47,-1.08 -4.33,-1.00 -0.99,0.55 -2.22,0.22 -3.00,0.77 -0.12,-0.09 -0.29,-0.14 -0.55,-0.11 0.08,0.41 -0.59,0.07 -0.44,0.55 0.44,0.14 1.17,0.09 1.66,-0.22 1.65,-0.00 2.28,-0.32 3.89,-0.33 1.79,0.87 3.75,1.58 4.89,3.11 -0.18,0.61 -0.56,0.36 -0.88,0.78 -0.09,-0.32 -0.28,0.14 -0.55,0 -0.16,0.43 -0.24,0.94 -0.55,1.22 -1.27,0.39 -2.30,-0.62 -3.56,-0.66 -1.00,-0.03 -1.96,0.39 -3.11,0.44 l 0,0.55 c 0.16,0.21 0.46,-0.19 0.55,0.22 -0.73,0.26 -1.76,0.38 -2.33,0.22 0.16,0.43 0.55,0.63 1.22,0.55 0.03,0.29 -0.43,0.08 -0.33,0.44 0.55,0.28 1.21,-0.16 1.44,-0.55 0.90,-0.10 1.04,-0.95 2.00,-1.00 0.26,0.88 0.10,2.19 1.11,2.33 0.01,-0.62 -0.46,-1.67 -0.78,-2.33 1.27,-0.33 2.48,1.13 3.89,0.22 0.23,0.43 -0.01,1.34 0.78,1.22 0.10,-0.70 -0.30,-0.87 -0.44,-1.33 0.06,-0.45 0.38,-0.65 0.33,-1.22 0.31,0.26 0.73,-0.09 1.11,-0.11 0.12,-0.46 0.49,-0.69 0.44,-1.33 -0.16,-0.21 -0.89,-0.42 -0.66,-0.66 0.97,0.05 1.21,1.07 2.22,0.77 0.15,0.39 0.19,0.92 0.33,1.33 0.77,0.72 2.40,-0.05 3.44,0.33 -0.85,0.62 -1.48,1.48 -2.11,2.33 -0.61,-0.12 -1.35,-0.12 -1.66,-0.55 0.38,-1.02 0.13,-1.98 -0.11,-2.55 -0.09,-0.22 0.04,-0.70 -0.44,-0.55 -0.61,0.91 -0.41,2.43 -0.22,3.67 0.60,0.07 1.34,-0.39 1.44,0.33 1.14,0.02 2.10,-0.09 3.00,-0.55 0.16,0.16 0.03,0.63 0.44,0.55 0.39,-0.03 -0.27,-0.41 0.11,-0.44 0.88,0.05 2.56,0.10 2.89,-1.22 -0.15,-0.43 -0.49,-0.69 -0.55,-1.22 0.47,-0.00 0.43,-0.52 1.00,-0.44 0.68,0.65 0.93,1.73 1.89,2.11 -0.41,-1.33 -1.60,-1.88 -1.89,-3.33 0.37,-0.24 1.38,-0.96 0.89,-1.33 -0.40,0.34 -0.62,0.85 -1.22,1.00 -0.08,0.33 -0.41,0.84 -0.11,1.22 -0.42,0.42 -0.89,0.22 -1.66,0.33 -0.25,0.03 -0.56,0.20 -0.77,0.22 -0.18,0.01 -0.37,-0.21 -0.55,-0.22 -0.17,-0.00 -0.35,0.21 -0.55,0.22 -0.89,0.02 -1.98,-0.05 -2.44,-0.22 -0.15,-0.48 0.42,-0.23 0.33,-0.66 -0.64,-0.91 -2.00,-1.11 -2.22,-2.44 -0.32,-0.12 -0.53,-0.35 -0.77,-0.55 -0.73,-1.52 -1.36,-3.16 -1.55,-5.23 4.32,-0.44 8.94,-0.38 13.24,-0.55 0.19,1.54 -0.06,3.53 -1.00,4.56 0.21,0.63 -0.34,1.22 -0.44,1.89 0.78,-0.10 0.59,-1.19 1.00,-1.67 0.21,0.20 0.20,-0.06 0.55,0 1.07,-1.31 2.65,-1.96 3.67,-3.22 0.39,-0.49 0.52,-1.03 1.11,-1.22 0.25,-0.85 0.50,-1.71 1.11,-2.22 0.21,1.30 0.51,2.52 1.11,3.44 -0.62,2.45 -1.80,4.35 -2.44,6.78 -0.43,0.33 -0.78,0.78 -1.22,1.11 -0.52,0.38 -1.16,0.67 -1.67,1.11 -0.11,0.10 -0.11,0.33 -0.22,0.44 -0.31,0.31 -1.08,0.49 -1.00,1.11 1.48,-0.63 2.47,-2.34 3.67,-2.89 -0.04,0.92 -0.85,1.53 -0.66,2.33 0.41,0.14 0.72,0.06 1.00,0 0.47,-0.59 0.35,-1.32 0.55,-2.00 0.24,-0.82 0.84,-1.63 1.11,-2.44 0.10,-0.32 0.01,-0.76 0.11,-1.11 0.33,-1.17 1.13,-2.26 1.33,-3.44 0.07,-0.44 -0.08,-1.14 0,-1.67 -0.04,-0.21 -0.43,-0.08 -0.33,-0.44 1.26,0.59 1.98,1.72 3.44,2.11 0.09,-0.19 0.31,-0.28 0.22,-0.66 -0.43,-0.17 -0.03,0.48 -0.33,0.44 -0.27,-0.23 0.09,-0.49 -0.11,-0.66 C 41.90,34.67 41.34,34.49 41.18,33.90 40.35,33.76 40.16,33.00 39.41,32.79 39.29,32.64 39.30,32.37 39.18,32.23 c -0.26,0.04 -0.24,-0.20 -0.55,-0.11 -1.05,-1.84 0.46,-3.75 0.11,-6.23 0.98,-1.09 2.35,-1.73 2.44,-3.44 0.26,-0.03 0.24,-0.34 0.44,-0.44 -0.13,-1.14 0.44,-2.18 0.44,-3.33 -0.00,-1.40 -0.66,-2.71 -1.11,-3.89 0.29,0.03 0.28,-0.23 0.33,-0.44 -0.14,-0.22 -0.58,-0.15 -0.66,-0.44 0.13,-0.34 0.13,-0.82 0.33,-1.11 -0.19,-0.04 -0.28,0.16 -0.33,0 -0.51,-1.01 0.28,-2.79 -0.66,-3.22 -0.23,0.09 0.04,0.70 -0.22,0.77 -0.27,0.01 -0.34,-0.17 -0.55,-0.22 0.16,0.77 -0.05,1.06 0.44,1.77 -0.22,0.18 -0.14,-0.01 -0.44,0 -0.02,0.35 0.19,0.47 0.11,0.89 -0.34,-0.05 -0.45,0.14 -0.55,0.33 0.23,0.72 0.14,1.78 0.66,2.22 -0.83,-0.09 -0.25,1.22 -0.89,1.33 -0.18,-0.33 -0.08,-0.95 -0.44,-1.11 -0.34,-0.05 -0.29,0.30 -0.55,0.33 -0.05,-0.51 -0.42,-0.01 -0.44,-0.55 0.38,-0.08 0.42,0.16 0.78,0.11 0.14,-0.31 0.27,-0.54 0.11,-0.89 -0.28,0.29 -0.93,0.18 -0.89,-0.44 0.28,0.06 0.54,0.44 0.78,0.22 0.09,-0.12 0.14,-0.29 0.11,-0.55 -0.35,-0.20 -0.99,-0.11 -1.11,-0.55 0.54,-0.04 1.30,-0.35 1.55,-0.33 0.02,-0.46 -0.18,-0.52 0,-0.89 -0.40,-0.01 -0.31,0.06 -0.77,-0.22 l 0,0.77 c -0.32,-0.37 -0.29,0.01 -0.78,0 -0.21,0.07 0.02,0.62 -0.22,0.66 -0.48,-0.18 -0.15,-0.82 -0.33,-1.11 -0.60,-0.02 0.16,0.68 -0.22,0.78 -0.01,-0.13 -0.03,-0.26 -0.22,-0.22 0.10,0.62 -0.32,0.71 -0.33,1.22 0.37,0.36 0.44,1.04 1.11,1.11 0.27,0.23 -0.09,0.49 0.11,0.66 0.39,0.23 0.85,0.40 1.11,0.77 -0.34,-0.05 -0.69,-0.47 -1.00,-0.22 0.24,0.61 1.32,0.38 1.67,0.89 -0.23,0.33 -0.46,0.02 -0.55,0.55 -0.62,-0.15 0.29,-0.77 -0.66,-0.77 0.05,1.10 0.81,1.77 0.22,2.89 0.37,0.38 0.76,-0.03 1.00,0.11 -0.40,2.89 0.04,5.91 -0.44,9.01 -0.11,0.75 -0.42,1.60 -1.00,2.00 0.04,1.53 -1.14,1.82 -1.44,3.00 -0.67,0.16 -0.76,1.43 -1.55,1.11 0.84,-0.85 1.16,-2.94 1.11,-4.22 -0.02,-0.67 0.63,-1.73 -0.11,-1.89 -0.32,2.05 -0.31,4.42 -1.11,6.00 -0.41,-0.11 -0.31,0.27 -0.66,0.22 -0.27,0.96 -1.36,1.52 -1.44,2.33 -0.02,-1.49 0.56,-3.26 0.66,-4.45 -0.14,-0.11 -0.33,-0.18 -0.44,-0.33 -1.39,0.51 -3.60,0.06 -5.23,0.22 -0.27,-0.35 -1.01,-0.24 -1.22,-0.66 1.05,-0.03 2.85,-0.37 3.89,-0.55 -0.13,0.49 -0.92,0.33 -1.11,0.77 1.40,0.29 1.07,-1.15 1.78,-1.55 0.59,-0.04 0.53,0.57 1.11,0.55 0.54,-0.48 0.02,-0.53 0,-1.22 0.38,-0.28 0.92,-0.03 1.00,-0.78 -0.28,-0.39 -0.76,-0.04 -1.11,0.11 -0.33,-0.38 -0.60,-0.27 -1.11,-0.33 -0.02,-0.42 -1.17,-0.78 -1.33,-0.33 0.27,0.28 0.91,0.19 0.89,0.77 -0.56,-0.24 -0.85,-0.73 -1.44,-0.66 0.19,-0.75 -0.36,-0.74 -0.55,-1.11 0.60,-0.38 1.21,-0.10 1.77,0.11 0.19,-0.17 0.27,-0.46 0.22,-0.89 -0.07,-0.22 -0.66,0.07 -0.55,-0.33 -0.51,0.04 -0.69,0.41 -1.33,0.33 -0.15,0.47 -0.38,0.87 -0.89,1.00 0.00,-0.71 -0.51,-0.89 -0.89,-1.22 0.27,-1.50 0.78,-3.18 0.22,-4.56 0.73,-1.00 -0.40,-1.83 -0.44,-2.78 -2.15,-0.22 -4.11,-1.89 -6.00,-1.33 -0.80,-0.76 0.26,-1.82 -0.11,-2.33 -0.41,-0.00 -0.12,0.68 -0.55,0.66 l -0.00,0 c -0.36,-0.80 0.59,-1.94 0.33,-2.77 -0.56,-0.15 -0.21,0.60 -0.78,0.44 0.23,-0.86 0.24,-1.72 0.44,-2.78 -0.49,0.32 -0.46,0.09 -0.44,-0.55 -0.48,-0.07 -0.25,0.55 -0.77,0.44 0.22,-0.50 0.75,-1.21 0.55,-1.78 0.61,-0.53 0.98,-1.31 1.55,-1.89 0.06,-0.36 -0.07,-0.51 -0.11,-0.77 0.06,-0.26 0.48,-0.18 0.33,-0.66 -0.17,-0.31 -0.59,0.25 -0.77,-0.11 0.17,-0.27 0.44,-0.37 0.22,-0.78 0.47,-0.25 1.18,-0.78 0.89,-1.44 0.27,0.01 0.34,-0.17 0.55,-0.22 -0.18,-1.03 1.06,-0.63 0.89,-1.66 -0.19,0.00 -0.34,-0.02 -0.44,-0.11 z m 8.79,0.77 c -0.63,0.22 -1.10,0.59 -1.66,0.89 0.17,0.44 -0.10,0.64 0.11,1.00 0.80,-0.42 1.78,-0.66 2.11,-1.55 -0.46,-0.12 -0.43,0.23 -0.78,0.22 0.04,-0.25 0.49,-0.29 0.22,-0.55 z m 2.44,0.55 c -0.83,0.16 -0.78,1.21 -1.78,1.22 -0.09,0.46 -0.67,0.43 -0.66,1.00 0.54,-0.00 0.65,-0.46 1.22,-0.44 -0.03,0.15 -0.15,0.21 -0.11,0.44 0.58,0.10 0.41,-0.54 1.00,-0.44 -0.03,0.26 -0.38,0.20 -0.33,0.55 0.34,-0.01 0.45,0.09 0.55,0.55 C 33.07,5.79 33.77,5.74 33.95,5.19 33.60,4.90 33.44,5.50 33.17,5.63 32.88,5.26 33.66,5.21 33.62,4.74 c -0.48,0.02 -0.01,-0.39 0,-0.55 -0.10,-0.11 -0.41,-0.03 -0.33,-0.33 -0.31,-0.15 -0.56,0.30 -0.66,0 -0.02,-0.33 0.41,-0.37 0.11,-0.66 z M 31.28,3.41 c -0.80,0.34 -1.50,0.79 -2.00,1.44 0.39,0.13 1.02,-0.35 1.33,-0.66 0.33,-0.14 0.72,-0.24 0.66,-0.77 l -0.00,0 z m -6.70,0.75 c 0.23,-0.02 0.21,0.50 -0.08,0.35 l 0,-0.33 c 0.03,-0.01 0.05,-0.02 0.08,-0.02 z m -0.46,0.35 c 0.13,-0.00 0.14,0.11 0.15,0.22 -0.09,-0.02 -0.10,0.04 -0.11,0.11 -0.13,-0.01 -0.09,-0.20 -0.11,-0.33 0.02,-0.00 0.04,-0.00 0.06,-0.00 z m 10.99,0.55 c -0.01,3.92e-4 -0.02,0.00 -0.04,0.00 -0.73,0.48 -1.24,1.27 -2.00,1.78 -0.60,0.40 -1.40,0.37 -1.89,1.00 0.99,0.40 1.49,-0.65 2.44,-0.66 0.27,-0.46 0.80,-0.67 1.00,-1.22 0.23,-0.22 0.92,-0.41 0.66,-0.78 -0.02,-0.07 -0.07,-0.11 -0.17,-0.11 z m 2.84,0.11 c 0.15,0.21 0.25,0.48 0.33,0.78 C 38.02,5.87 38.00,5.52 37.96,5.19 z M 19.36,5.39 c 0.08,-0.02 0.09,0.34 0.01,0.35 -0.06,0.01 -0.14,-0.15 -0.11,-0.22 0.03,-0.08 0.06,-0.12 0.09,-0.13 z m 12.19,1.10 c -0.70,-0.01 -1.59,0.32 -1.71,1.03 0.57,0.00 1.82,-0.23 2.00,-1.00 -0.09,-0.01 -0.18,-0.02 -0.28,-0.03 z M 36.40,6.64 C 36.24,7.29 36.10,7.96 36.07,8.75 36.85,8.78 37.36,6.63 36.40,6.64 z M 29.06,7.75 c -0.48,0.07 -0.91,0.19 -1.00,0.66 0.46,0.30 1.00,-0.14 1.00,-0.66 z m 8.12,0.11 c -0.16,0.53 -0.46,0.93 -0.55,1.55 0.39,0.35 0.60,-0.32 0.77,-0.11 -0.13,0.34 -0.37,0.58 -0.44,1.00 0.02,0.31 0.52,0.14 0.44,0.55 l -0.33,0 c 9.19e-4,0.29 -0.04,0.63 0.11,0.77 0.58,0.01 0.46,-0.35 0.89,0 0.36,-0.56 0.24,-1.60 -0.11,-2.22 0.16,-0.93 -0.28,-1.26 -0.77,-1.55 z m 1.94,1.11 c -0.56,0.00 -0.70,0.82 -0.61,1.11 0.43,-0.16 0.49,-0.69 0.66,-1.11 -0.01,-0.00 -0.03,-0.00 -0.05,-0.00 z M 36.89,11.19 c -0.31,-0.01 -0.34,0.43 -0.04,0.45 -0.02,-0.21 0.12,-0.24 0.11,-0.44 -0.02,-0.00 -0.04,-0.00 -0.06,-0.00 z m -0.48,2.67 c 0.10,0.00 0.08,0.13 0.11,0.22 0.08,-0.05 0.18,-0.11 0.33,-0.11 l 0,0.44 c -0.19,-0.14 -0.43,-0.22 -0.44,-0.55 z m -16.63,0.89 c -0.51,0.02 -0.40,0.67 -0.61,1.00 0.38,-0.17 0.71,-0.39 0.66,-1.00 -0.01,-6.66e-4 -0.03,-7.06e-4 -0.05,0 z m 20.50,0.30 c 0.26,-0.00 0.51,0.12 0.68,0.47 -0.60,-0.18 -1.38,0.65 -1.55,1.55 -0.28,-0.56 0.00,-1.11 0,-1.55 0.24,-0.26 0.56,-0.46 0.86,-0.47 z m 0.38,1.02 c 0.16,0.00 0.21,0.13 0.40,0.11 0.71,3.45 0.12,6.60 -2.11,8.56 -0.00,-0.10 -0.13,-0.08 -0.22,-0.11 0.01,-1.91 -0.02,-3.79 0.22,-5.89 0.19,0.21 0.23,0.58 0.33,0.89 0.29,9.19e-4 0.63,-0.04 0.78,0.11 0.04,0.63 -0.38,0.79 -0.66,1.11 0.06,0.69 0.97,-0.14 0.66,0.89 0.58,-0.40 0.58,-1.69 0.55,-2.22 -0.01,-0.25 0.14,-0.58 0,-1.00 -0.12,-0.35 -0.68,-0.27 -0.77,-0.66 0.12,-0.72 0.52,-1.18 0.77,-1.77 0.01,-8.86e-4 0.02,-0.00 0.03,-0.00 z m -7.26,1.32 c -0.20,0.01 -0.14,0.30 -0.44,0.23 -1.44,-0.59 -2.45,0.88 -4.00,0.89 -0.26,0.44 -1.14,0.26 -1.33,0.78 0.18,0.40 0.67,0.50 1.33,0.44 0.24,0.38 0.16,0.59 0.11,1.11 0.26,0.06 0.50,0.16 0.89,0.11 0.12,1.07 2.05,1.33 2.33,0.33 -0.64,0.01 -1.71,-0.21 -1.89,-1.00 0.67,0.38 1.53,1.05 2.44,0.55 0.13,-0.23 0.13,-0.60 0.44,-0.66 0.14,0.22 0.58,0.15 0.66,0.44 -0.03,0.15 -0.15,0.21 -0.11,0.44 0.20,0.08 0.40,0.18 0.66,0.22 0.32,-0.47 0.23,-0.76 0.44,-1.22 -0.87,-0.52 -2.03,-0.58 -2.56,-1.22 1.14,-0.22 2.41,0.10 3.11,0.66 l 0.55,0 c -0.24,-1.02 -1.34,-1.75 -2.33,-1.66 -0.05,-0.16 -0.16,-0.28 -0.22,-0.44 -0.04,-0.01 -0.07,-0.01 -0.10,-0.01 z m 4.78,1.01 c 0.30,0.02 0.25,0.41 0.44,0.55 -0.07,0.11 -0.25,0.11 -0.22,0.33 -0.21,-0.04 -0.47,-0.04 -0.44,-0.33 0.09,-0.02 0.10,0.04 0.11,0.11 0.24,-0.01 0.04,-0.47 0.11,-0.66 z m -16.92,1.01 c 0.25,0.00 0.52,0.12 0.57,0.32 -0.47,-0.14 -0.55,0.00 -1.11,0 0.03,-0.22 0.28,-0.32 0.54,-0.32 z m 6.57,1.10 c 0.05,0.76 0.41,1.21 1.11,1.33 -0.28,-0.53 -0.45,-1.17 -1.11,-1.33 z m -8.23,0.22 c 0.77,0.67 0.89,1.80 2.55,1.33 0.31,-0.11 -0.03,-0.47 0,-0.66 1.00,0.24 1.27,-0.64 2.00,-0.33 -0.01,0.42 -0.37,0.51 -0.33,1.00 0.55,0.03 0.54,0.63 1.11,0.66 0.08,0.75 -0.15,1.18 -0.11,1.89 -0.14,0.14 -0.29,0.33 -0.44,0.55 -0.10,0.14 -0.21,0.53 -0.33,0.66 -0.41,0.46 -1.37,0.64 -1.22,1.78 0.06,0.49 0.41,0.51 0.66,1.00 -1.01,-0.20 -0.90,0.73 -1.78,0.66 0.24,-0.54 0.45,-1.03 0.11,-1.66 -0.58,0.26 -0.45,1.25 -0.66,1.89 -1.21,-0.45 -0.65,-3.08 -1.11,-4.34 -0.64,-0.51 -0.56,-2.31 -0.44,-3.22 -0.44,-0.07 -0.28,-0.75 -0.55,-1.00 l 0,-0.00 c 0.21,-0.04 0.67,0.15 0.55,-0.22 z m 20.47,1.33 c -0.19,0.29 -0.91,0.96 -0.33,1.33 0.21,-0.28 0.80,-1.07 0.33,-1.33 z m -10.73,3.44 c -0.20,-0.00 -0.38,0.02 -0.39,0.22 0.24,0.38 0.90,0.34 1.11,0.77 -0.33,0.30 -0.08,0.50 0,0.89 1.00,0.67 2.22,0.90 3.11,1.44 0.28,1.21 -0.04,2.35 0.44,3.33 0.50,-1.19 0.27,-2.44 0.33,-3.67 -0.28,-0.31 -0.60,-0.57 -0.89,-0.89 -1.46,-0.35 -2.25,-1.38 -3.33,-2.11 -0.11,0.00 -0.25,-0.00 -0.38,-0.00 z m 5.96,2.68 c -0.07,-0.00 -0.15,0.03 -0.23,0.10 0.09,0.27 0.33,0.40 0.66,0.44 -0.03,-0.24 -0.20,-0.54 -0.42,-0.55 z m -14.59,1.44 c 0.53,0.22 0.74,0.64 0.55,1.33 -0.32,-0.30 -0.57,-0.68 -0.55,-1.33 z m 7.64,0.77 c 0.01,4.66e-4 0.01,0.00 0.02,0.00 0.27,0.05 0.28,0.51 0.55,0.22 -0.24,0.45 -0.93,0.07 -1.33,0.11 -0.26,0.02 -0.44,0.20 -0.66,0.22 -0.60,0.03 -1.05,-0.20 -1.44,-0.11 -0.18,-0.56 1.53,-0.35 2.11,-0.33 0.29,0.00 0.59,-0.12 0.74,-0.11 z M 23.20,31.19 c 0.24,0.00 0.41,0.24 0.40,0.59 -0.01,0.54 -1.00,0.88 -1.00,1.33 -0.88,-0.31 0.45,-0.94 0,-1.55 0.22,-0.26 0.42,-0.37 0.59,-0.37 z m -11.50,1.37 c 0.01,0.35 -0.39,0.27 -0.55,0.44 -0.43,0.43 -0.56,1.13 -1.00,1.55 -0.00,0.45 0.35,0.53 0.33,1.00 -0.77,0.66 -2.58,1.05 -2.11,2.89 -0.20,0.50 -0.61,0.79 -0.89,1.22 -0.14,1.07 0.28,1.56 0.22,2.55 -0.52,0.18 -0.81,0.59 -1.33,0.77 -0.70,1.33 -1.77,2.30 -2.22,3.89 1.48,0.42 2.00,-1.01 2.55,-1.89 0.24,0.29 0.47,0.17 0.89,0.11 0.21,0.52 0.64,0.83 0.89,1.33 0.32,-0.07 0.68,-0.12 0.89,-0.33 -0.45,-1.24 -1.94,-2.15 -1.22,-3.89 0.34,0.07 0.21,0.07 0.55,0 -0.05,-0.97 -0.65,-1.42 -0.55,-2.55 0.21,-0.34 0.55,-0.55 0.78,-0.89 -0.42,-1.43 0.64,-2.54 1.66,-2.11 0.07,-0.65 1.19,-0.75 2.00,-0.77 0.01,-0.65 0.66,-0.31 1.00,-0.44 -0.80,-1.45 -1.92,0.92 -2.78,-0.22 -0.24,-3.81 4.19,-0.93 5.67,-0.89 0.32,-0.85 0.84,-1.68 2.00,-1.11 -0.13,-0.85 -1.49,-0.79 -1.89,-0.22 -0.06,0.41 -0.16,0.80 -0.44,1.00 -1.17,-0.74 -3.04,-1.01 -4.45,-1.44 z m 6.11,2.78 0.33,0 c 0.11,0.29 0.22,0.58 0.22,1.00 -0.50,0.05 -0.40,0.70 -1.11,0.55 0.24,-0.46 0.51,-0.89 0.55,-1.55 z m -1.66,0.78 c 0.28,0.01 0.43,0.15 0.44,0.44 -0.13,-0.16 -0.46,-0.13 -0.44,-0.44 z m 1.55,2.44 c -0.01,0.32 0.90,0.71 1.00,0.22 -0.22,-0.18 -0.69,-0.12 -1.00,-0.22 z m 15.20,1.03 c -0.20,0.00 -0.46,0.08 -0.74,0.07 -0.65,0.83 -2.29,1.25 -2.44,2.22 0.65,0.05 0.55,-0.62 1.00,-0.78 0.83,-0.38 1.41,-1.03 2.55,-1.11 -0.02,-0.33 -0.16,-0.40 -0.37,-0.40 z m 1.59,1.18 c -0.76,0.95 -2.79,1.14 -3.89,1.11 0.21,0.48 1.02,0.45 1.44,0.44 1.19,-0.03 2.53,-0.81 2.78,-1.44 -0.15,0.00 -0.24,-0.05 -0.33,-0.11 z m -20.51,0.17 c -1.51,-0.00 -2.46,0.84 -4.18,0.71 0.08,0.34 -0.30,0.21 -0.22,0.55 1.59,0.32 2.86,-0.97 4.33,-0.89 1.50,0.08 2.54,1.32 4.00,1.55 -0.45,-1.06 -2.15,-0.89 -2.78,-1.78 -0.42,-0.11 -0.80,-0.16 -1.15,-0.16 z m 3.93,0.71 c -0.02,0.51 1.01,0.86 1.22,0.44 -0.32,-0.22 -0.79,-0.31 -1.22,-0.44 z m -0.50,1.45 c -0.32,-0.00 -0.71,0.12 -0.94,0.21 0.37,0.20 1.24,0.59 1.33,-0.11 -0.10,-0.07 -0.24,-0.10 -0.39,-0.10 z" />
</svg>
