<?xml version="1.0" encoding="UTF-8" standalone="no"?>
<!-- Created with Inkscape (http://www.inkscape.org/) -->
<svg xmlns:dc="http://purl.org/dc/elements/1.1/" xmlns:cc="http://creativecommons.org/ns#" xmlns:rdf="http://www.w3.org/1999/02/22-rdf-syntax-ns#" xmlns:svg="http://www.w3.org/2000/svg" xmlns="http://www.w3.org/2000/svg" version="1.1" width="100%" height="100%" viewBox="0 0 48 48">
<defs/>
<path d="m 13.63,13.30 c -0.77,0.09 -1.35,0.38 -1.64,0.97 -0.17,0.02 -0.22,0.15 -0.38,0.18 -0.09,0.40 -0.11,0.89 -0.48,1.02 -0.11,0.00 -0.14,-0.08 -0.29,-0.05 -0.13,0.08 -0.11,0.33 -0.19,0.48 -0.15,0.02 -0.17,-0.08 -0.34,-0.05 -0.22,0.29 -0.09,0.64 -0.18,1.06 0.06,0.03 0.08,0.10 0.09,0.19 0.31,-0.06 0.24,0.03 0.48,0.09 0.11,-0.06 0.11,-0.24 0.29,-0.23 0.19,0.01 0.26,0.34 0.43,0.23 0.06,-0.12 -0.10,-0.23 0,-0.23 0.28,-0.07 0.13,0.27 0.38,0.23 0.29,-0.40 -0.25,-0.69 -0.72,-0.63 -0.15,0.02 -0.12,0.23 -0.29,0.24 -0.15,-0.06 -0.19,-0.45 -0.09,-0.63 0.11,0.03 0.28,0.09 0.38,0 0.11,-0.10 -0.01,-0.19 0,-0.34 0.15,-0.05 0.34,-0.07 0.43,-0.19 0.03,-0.19 -0.06,-0.24 -0.04,-0.43 0.26,0.04 0.34,-0.10 0.47,-0.19 l 0,-0.43 c 0.11,0.01 0.18,-0.00 0.24,-0.04 0.06,-0.09 0.12,-0.19 0.14,-0.34 0.43,-0.17 0.64,-0.58 1.25,-0.58 0.13,0.07 0.20,0.21 0.39,0.23 0.11,-0.27 -0.18,-0.43 -0.34,-0.58 z m 2.13,0 c -0.13,0.04 -0.09,0.26 -0.09,0.43 0.45,-0.06 0.26,0.50 0.67,0.48 0.01,-0.11 0.16,-0.08 0.14,-0.23 -0.22,-0.24 -0.33,-0.60 -0.72,-0.68 z m -0.42,0.13 c -0.18,-10e-4 -0.32,0.22 -0.30,0.49 0.33,0.04 0.39,-0.18 0.38,-0.48 -0.02,-0.01 -0.05,-0.01 -0.08,-0.01 z m -0.71,0.13 c -0.17,0.02 -0.34,0.17 -0.31,0.40 0.03,0.01 0.09,-0.00 0.09,0.04 0.23,-0.04 0.38,-0.16 0.38,-0.43 -0.04,-0.02 -0.10,-0.02 -0.16,-0.01 z m 2.68,0.40 c -0.17,-0.01 -0.37,0.07 -0.34,0.29 0.09,0.07 0.43,0.07 0.53,0 -0.00,-0.06 0.01,-0.10 0.04,-0.14 -0.03,-0.08 -0.13,-0.13 -0.23,-0.14 z m 0.36,0.35 c -0.21,-0.00 -0.33,0.41 -0.41,0.61 -0.10,-0.02 -0.15,-0.14 -0.23,-0.05 0.02,0.26 -0.08,0.40 -0.05,0.68 0.09,0.15 0.20,-0.12 0.23,0 0.12,0.20 -0.10,0.16 -0.09,0.38 0.01,0.13 0.18,0.11 0.24,0.19 0.15,0.30 -0.06,0.96 0.38,0.97 0.11,-0.15 -0.10,-0.33 -0.05,-0.58 0.14,-0.04 0.29,-0.09 0.39,-0.19 -0.07,-0.45 0.30,-0.42 0.23,-0.87 -0.14,-0.21 -0.46,-0.25 -0.63,-0.44 -0.07,-0.33 0.16,-0.34 0.14,-0.62 -0.06,-0.05 -0.11,-0.08 -0.16,-0.08 z m -1.33,1.19 c -6.05e-4,0.09 -0.12,0.06 -0.09,0.19 0.19,0.16 0.34,0.36 0.38,0.68 -0.20,0.07 -0.34,0.20 -0.43,0.38 -0.30,0.01 -0.67,0.22 -0.81,-0.09 0.21,-0.00 0.51,0.06 0.47,-0.19 -0.18,-0.01 -0.72,-0.15 -0.87,0.09 0.15,0.34 0.53,0.47 0.97,0.53 -0.02,0.06 -0.07,0.11 -0.14,0.14 -0.12,-0.05 -0.32,-0.03 -0.39,-0.14 -0.18,0.08 -0.34,0.19 -0.52,0.29 -0.05,0.20 0.00,0.19 0.05,0.38 -0.56,-0.12 -0.73,0.73 -0.19,0.77 0.03,-0.17 -0.08,-0.20 -0.05,-0.38 0.25,-0.24 0.49,-0.50 0.82,-0.68 0.74,0.12 0.77,-0.45 1.06,-0.77 0.15,0.04 0.14,-0.07 0.23,-0.09 0.10,-0.46 -0.08,-1.00 -0.48,-1.11 z M 11.47,16.68 c 0.02,-0.00 0.04,0.00 0.07,0.00 0.04,0.14 -0.10,0.08 -0.19,0.09 0.00,-0.06 0.05,-0.09 0.11,-0.10 z m 5.73,0.15 c -0.11,0.18 0.22,0.76 -0.09,0.87 -0.16,-0.01 -0.27,-0.07 -0.48,-0.05 -0.16,0.15 -0.58,0.05 -0.67,0.29 0.12,0.30 0.30,-0.04 0.58,0 0.07,0.10 0.15,0.19 0.19,0.34 -0.09,0.13 -0.36,0.08 -0.43,0.23 0.28,0.33 0.73,-0.11 1.01,-0.23 0.27,0.28 0.52,0.89 0.09,1.06 -0.00,0.00 -0.43,-0.33 -0.48,-0.05 l 0,-0.23 c -0.35,0.14 -0.59,0.40 -0.67,0.82 0.29,0.10 0.32,-0.44 0.81,-0.29 0.05,0.18 0.21,0.27 0.24,0.48 -0.17,0.14 -0.53,0.11 -0.63,0.34 -0.00,0.29 0.20,0.17 0.09,0.48 -0.17,0.10 -0.18,0.35 -0.38,0.43 l -0.43,0 c -0.00,-0.05 -0.07,-0.05 -0.14,-0.05 -0.30,-0.44 -0.96,-0.46 -1.21,-0.96 -0.09,-0.18 0.00,-0.40 -0.19,-0.58 0.16,-0.08 0.23,-0.56 -0.05,-0.58 -0.15,0.02 -0.04,0.30 -0.23,0.29 -0.58,-0.15 -1.14,-1.13 -0.58,-1.59 0.10,-0.08 0.22,-0.00 0.34,-0.14 0.20,8.08e-4 0.17,0.23 0.38,0.23 0.06,-0.29 -0.21,-0.61 -0.52,-0.67 -0.28,0.15 -0.37,0.49 -0.63,0.67 -0.03,0.20 0.00,0.48 -0.14,0.58 -0.13,-0.27 -0.15,-0.37 -0.14,-0.62 -0.45,-0.01 -0.33,0.68 -0.73,0.58 -0.02,-0.09 0.06,-0.29 -0.09,-0.24 -0.30,-0.04 -0.42,0.29 -0.58,0.24 -0.05,-0.01 -0.07,-0.05 -0.09,-0.10 0.07,-0.34 0.39,-0.44 0.58,-0.67 0.14,-0.02 0.41,-0.09 0.29,-0.23 -0.32,-0.09 -0.70,0.16 -0.97,0.29 -0.26,-0.28 -0.86,-0.68 -1.16,-0.14 -0.01,0.29 0.45,0.09 0.38,0.43 -0.10,0.10 -0.27,0.13 -0.29,0.33 0.19,0.17 0.40,0.34 0.58,0.53 0.30,-0.13 0.35,0.28 0.63,0.05 -0.03,0.25 0.35,0.34 0.39,0.67 -0.11,0.09 -0.16,0.26 -0.29,0.34 -0.09,-0.08 -0.32,-0.03 -0.48,-0.05 -0.56,0.15 -1.04,0.44 -1.45,0.68 -0.38,0.22 -0.63,0.45 -0.96,0.67 -0.17,0.11 -0.41,0.14 -0.58,0.24 -0.54,0.32 -0.85,0.90 -1.35,1.21 -0.03,0.12 -0.14,0.18 -0.19,0.29 C 5.81,23.44 5.19,24.14 4.77,24.68 4.29,25.29 3.63,25.92 3.27,26.57 3.19,26.70 3.14,26.87 3.07,27.00 2.88,27.35 2.83,27.59 2.73,28.02 c -0.07,0.31 -0.13,0.71 -0.14,1.01 -0.01,0.45 -0.24,0.90 -0.29,1.40 -0.02,0.27 0.03,0.57 0,0.87 -0.06,0.07 -0.04,0.24 -0.14,0.29 0.14,0.61 0.23,1.16 0.34,1.74 0.20,1.13 0.91,1.80 1.35,2.71 0.27,0.03 0.33,0.27 0.48,0.43 0.25,0.23 0.75,0.20 0.96,0.48 -0.12,0.10 -0.45,-0.01 -0.52,0.14 0.06,0.62 1.06,0.32 1.35,0.72 l 0,0.38 c 0.12,0.20 0.33,0.12 0.52,0.19 0.54,0.18 1.05,0.50 1.79,0.43 C 8.52,38.39 7.96,38.61 7.67,38.53 7.40,38.46 7.33,38.33 7.19,38.19 6.95,38.24 6.91,38.08 6.70,38.09 6.75,37.82 6.42,37.92 6.41,37.71 6.49,37.13 7.02,36.86 7.34,36.45 7.49,36.25 7.54,36.07 7.67,35.92 c 0.06,-0.07 0.13,-0.12 0.19,-0.19 0.45,-0.52 0.89,-1.35 1.11,-2.08 0.04,-0.13 0.00,-0.30 0.04,-0.43 0.05,-0.19 0.22,-0.33 0.29,-0.53 0.11,-0.30 0.19,-0.65 0.29,-0.97 0.10,-0.35 0.12,-0.74 0.23,-1.06 0.14,-0.39 0.59,-0.81 0.97,-1.21 0.38,-0.40 0.82,-0.75 1.10,-1.05 0.27,-0.29 0.86,-1.16 0.19,-1.40 0.04,0.25 -0.07,0.54 0,0.67 -0.57,0.54 -1.08,1.14 -1.64,1.69 -0.11,0.11 -0.28,0.17 -0.39,0.29 -0.54,0.59 -0.69,1.46 -0.87,2.37 -0.18,0.16 -0.14,0.51 -0.23,0.73 -0.05,0.14 -0.21,0.22 -0.29,0.38 -0.03,0.06 0.02,0.17 0,0.24 -0.06,0.17 -0.25,0.33 -0.29,0.47 -0.04,0.15 0.03,0.33 0,0.48 -0.02,0.09 -0.16,0.25 -0.24,0.39 -0.27,0.46 -0.54,0.83 -0.87,1.16 -0.81,0.32 -1.20,0.76 -2.08,0.63 C 4.87,36.45 4.51,36.21 4.33,36.01 4.18,35.83 4.05,35.75 3.94,35.62 3.82,35.47 3.73,35.27 3.60,35.09 3.49,34.92 3.32,34.77 3.22,34.61 2.77,33.92 2.73,33.24 2.88,32.52 c 0.46,-0.55 1.07,-0.96 1.98,-1.06 -0.09,0.21 -0.33,0.28 -0.29,0.63 0.30,0.02 0.55,-0.21 0.72,-0.39 0.50,-0.51 0.90,-1.35 1.30,-1.93 0.14,-0.21 0.28,-0.51 0.44,-0.67 0.18,-0.19 0.51,-0.33 0.72,-0.48 0.59,-0.43 1.14,-0.86 1.79,-1.26 0.26,-0.03 0.44,-0.24 0.67,-0.38 0.13,-0.08 0.30,-0.10 0.44,-0.19 0.28,-0.18 0.47,-0.52 0.76,-0.72 0.13,-0.09 0.41,-0.19 0.63,-0.34 0.22,-0.14 0.38,-0.32 0.58,-0.38 0.60,-0.17 0.97,0.14 1.26,0.38 0.11,0.10 0.18,0.16 0.24,0.24 0.14,0.19 0.14,0.42 0.23,0.67 0.05,0.13 0.18,0.25 0.23,0.38 0.13,0.33 0.12,0.63 0.19,0.97 -0.44,0.54 -0.52,1.44 -1.30,1.64 -0.11,0.13 -0.17,0.34 -0.34,0.43 -0.03,0.14 0.08,0.14 0.05,0.29 -0.25,0.44 -0.82,0.90 -1.16,1.31 -0.05,0.06 -0.07,0.15 -0.14,0.23 -0.05,0.07 -0.19,0.12 -0.23,0.19 -0.17,0.23 -0.31,0.54 -0.48,0.81 -0.17,0.27 -0.32,0.55 -0.48,0.82 -0.50,0.85 -1.00,1.52 -0.96,2.66 0.03,0.96 0.61,1.10 1.10,1.64 0.67,0 1.68,0.17 1.98,0.82 0.03,0.13 -0.09,0.09 -0.09,0.19 0.21,-0.04 0.51,0.00 0.58,-0.19 -0.10,-0.20 -0.38,-0.22 -0.43,-0.48 0.35,-0.20 0.63,0.06 1.11,0 0.23,-0.26 0.64,-0.34 1.05,-0.43 0.16,-0.01 0.14,0.28 0.29,0.14 0.09,-0.34 -0.19,-0.32 -0.34,-0.43 0.20,-0.50 0.50,-0.17 1.01,-0.14 0.10,0.00 0.22,-0.09 0.34,-0.09 0.22,-0.00 0.41,0.11 0.58,0.09 0.15,-0.01 0.21,-0.09 0.34,-0.09 0.21,0.00 0.41,0.13 0.63,0.14 0.09,0.00 0.20,-0.09 0.29,-0.10 0.23,-0.01 0.60,0.24 0.72,-0.04 0.05,-0.20 -0.20,-0.08 -0.24,-0.19 0.27,-0.03 0.43,0.05 0.68,0.05 0.37,-0.42 1.36,0.19 1.59,-0.24 -0.17,-0.23 -0.57,-0.25 -0.91,-0.29 -0.54,-0.06 -1.19,-0.05 -1.65,-0.19 -0.11,0.05 -0.16,0.15 -0.33,0.15 -0.91,-0.20 -1.82,-0.02 -2.81,-0.24 -0.24,0.22 -0.61,0.03 -0.96,0.14 -0.10,0.10 0.11,0.37 -0.14,0.39 0.02,-0.18 -0.04,-0.28 -0.10,-0.39 -0.43,-0.09 -0.83,-0.22 -0.96,-0.63 -0.65,-0.12 -1.08,-0.56 -1.74,-0.43 0.10,-0.31 -0.24,-0.17 -0.29,-0.34 0.09,-0.10 -0.08,-0.10 -0.09,-0.14 -0.03,-0.23 0.18,-0.72 -0.05,-0.92 0.19,-0.46 0.45,-0.73 0.68,-1.10 0.11,-0.18 0.16,-0.42 0.29,-0.58 0.07,-0.09 0.21,-0.15 0.29,-0.24 0.07,-0.09 0.06,-0.20 0.14,-0.29 0.24,-0.26 0.59,-0.48 0.81,-0.77 0.29,-0.37 0.52,-0.79 0.72,-1.25 0.15,-0.10 0.26,-0.25 0.44,-0.34 0.14,-0.22 0.10,-0.64 0.43,-0.68 0.10,0.01 0.01,0.21 0.09,0.24 0.51,0.38 1.09,0.71 1.60,1.01 0.20,0.12 0.42,0.17 0.62,0.29 0.35,0.21 0.55,0.68 0.92,0.87 0.26,0.12 0.57,0.08 0.82,0.19 0.17,-8.06e-4 0.21,-0.13 0.34,-0.19 0.05,0.05 0.17,0.05 0.29,0.05 0.19,-0.19 0.40,-0.14 0.67,-0.19 0.39,-0.07 0.84,-0.27 1.26,-0.43 0.21,-0.08 0.40,-0.14 0.63,-0.23 0.19,-0.08 0.37,-0.20 0.58,-0.29 0.05,-0.02 0.13,0.02 0.19,0 0.28,-0.10 0.56,-0.36 0.87,-0.48 0.39,-0.15 0.83,-0.15 1.10,-0.29 0.17,-0.08 0.26,-0.28 0.44,-0.34 0.25,-0.08 0.72,0.02 1.10,0 0.31,-0.02 0.45,-0.19 0.63,0.09 -0.02,2.49 0.03,5.11 0.05,7.45 -0.06,0.14 -0.23,0.18 -0.29,0.34 -0.12,0.03 0.11,0.27 -0.10,0.29 -0.03,-0.22 -0.16,-0.24 -0.18,-0.48 -0.01,-0.19 0.28,-0.52 0,-0.67 -0.40,0.38 -0.01,1.04 -0.34,1.39 0.04,-0.20 0.02,-0.19 -0.10,-0.29 -0.03,-0.11 -0.34,0.19 -0.38,-0.04 0.06,-0.22 0.17,0.11 0.29,-0.05 -0.17,-0.34 0.15,-0.81 0.14,-1.21 0.14,-0.04 0.29,-0.09 0.29,-0.29 -0.22,-0.22 -0.40,0.07 -0.67,-0.05 -0.23,0.29 -0.31,0.75 -0.58,1.02 C 24.91,35.95 25.00,35.40 25.50,35.24 c 0.42,-0.14 1.01,0.08 1.35,-0.23 -0.34,-0.29 -0.95,0.09 -1.55,0 -0.01,0.08 -0.08,0.10 -0.19,0.09 -0.15,0.36 -0.38,0.64 -0.63,0.92 -0.25,-0.06 -0.32,-0.47 -0.67,-0.29 -0.28,-0.39 -0.06,-0.74 0.29,-0.77 0.31,-0.03 0.78,0.51 0.97,0.09 -0.26,-0.25 -0.74,-0.24 -1.06,-0.33 -0.47,0.11 -0.69,0.44 -0.63,0.87 0.04,0.28 0.24,0.34 0.43,0.52 0.07,0.07 0.11,0.22 0.19,0.29 0.08,0.07 0.22,0.10 0.33,0.19 0.09,0.07 0.16,0.22 0.24,0.29 0.09,0.07 0.23,0.06 0.34,0.14 0.15,0.11 0.25,0.34 0.38,0.43 0.16,0.11 0.37,0.11 0.52,0.19 0.16,0.08 0.24,0.35 0.44,0.24 -0.00,0.21 0.11,0.29 0.18,0.43 0.59,0.17 0.97,0.79 1.69,0.67 0.10,0.32 0.67,0.19 0.87,0.43 0.17,0.04 0.26,-0.24 0.34,-0.14 0.03,0.21 0.11,0.37 0.34,0.39 0.13,-0.01 0.11,-0.18 0.19,-0.24 0.19,0.18 0.33,-0.01 0.43,0 0.17,0.17 -0.20,0.08 -0.10,0.34 0.19,0.17 0.79,0.30 1.06,0.09 0.00,-0.37 0.04,-0.83 0.05,-1.30 -0.51,-0.56 -1.55,-0.65 -1.93,-1.21 0.33,-0.27 0.52,-0.70 0.87,-0.97 l 0.29,0 c 0.24,-0.24 0.60,-0.18 0.92,-0.29 0.57,-0.18 1.13,-0.54 1.74,-0.72 0.34,-0.10 0.75,-0.15 0.97,-0.23 0.22,-0.08 0.34,-0.17 0.53,-0.24 0.15,0.16 0.35,0.28 0.33,0.63 0.37,0.54 0.85,0.99 0.82,1.93 -0.22,0.24 -0.43,0.49 -0.63,0.77 -0.95,-0.27 -1.22,0.52 -2.03,0.39 -0.15,0.08 -0.23,0.25 -0.29,0.43 0.22,0.16 0.31,0.83 -0.04,0.92 -0.03,-0.10 0.13,-0.15 -0.05,-0.14 -0.09,-0.02 -0.11,-0.10 -0.23,-0.10 -0.07,-0.15 -0.28,-0.29 -0.48,-0.38 -0.16,-0.07 -0.48,-0.27 -0.63,-0.05 0.38,0.26 0.93,0.35 1.16,0.77 -0.50,0.19 -0.80,-0.13 -1.21,-0.19 -0.16,0.20 0.26,0.23 0.10,0.44 -0.30,0.15 -1.02,-0.21 -1.16,0.18 0.34,0.43 0.98,0.08 1.45,0.10 0.54,0.01 1.06,0.29 1.55,0.29 0.09,-0.11 0.28,-0.13 0.23,-0.39 -0.08,-0.17 -0.33,-0.17 -0.23,-0.52 -0.09,-0.01 -0.10,0.05 -0.19,0.04 0.48,-0.77 1.43,0.05 2.47,-0.09 0.21,-0.03 0.39,-0.16 0.58,-0.19 0.48,-0.06 0.84,-0.05 1.06,0.10 -0.16,0.07 -0.37,0.11 -0.43,0.29 -0.08,-0.06 -0.40,0.04 -0.63,0 -0.41,0.33 -0.96,0.55 -1.02,1.25 0.03,0.19 0.64,0.41 0.73,0.10 0.01,-0.22 -0.35,-0.06 -0.34,-0.29 0.22,-0.39 0.52,-0.88 1.16,-0.72 0.49,-0.28 1.13,-0.41 1.55,-0.77 0.13,-0.36 0.14,-0.71 0.05,-1.16 -0.10,-0.52 -0.34,-0.93 -0.48,-1.21 -0.29,-0.56 -0.53,-1.18 -0.92,-1.74 -0.39,-0.57 -0.79,-1.13 -1.11,-1.60 0.26,-0.03 0.29,0.16 0.53,0.14 0.23,-0.47 0.81,-0.38 1.30,-0.18 0.10,-0.18 -0.27,-0.61 0,-0.82 0.65,-0.10 0.64,1.25 0.72,1.84 0.11,0.78 0.39,1.12 0.43,1.64 0.29,0.87 1.28,1.57 0.92,2.71 0.11,0.02 0.10,0.18 0.29,0.14 0.19,-0.01 0.08,-0.33 0.29,-0.34 0.32,0.30 0.94,1.44 0.15,1.69 -0.01,0.18 0.19,0.12 0.14,0.34 -0.41,-0.03 -0.55,0.07 -0.77,0.09 -0.53,0.05 -1.21,-0.02 -1.64,0.10 -0.23,0.07 -0.46,0.37 -0.73,0.09 -0.09,-0.09 0.05,-0.19 0.05,-0.34 -0.20,-0.07 -0.29,0.01 -0.43,-0.14 -0.18,0.13 -0.42,0.22 -0.58,0.39 -0.17,-0.18 0.15,-0.37 0,-0.53 -0.43,-0.03 -0.42,0.51 -0.29,0.77 0.29,0.18 0.89,0.07 1.10,0.34 0.38,0.09 0.69,-0.13 1.06,-0.19 0.18,-0.02 0.39,0.01 0.58,0 0.08,-0.00 0.16,-0.08 0.24,-0.09 0.48,-0.06 1.01,0.05 1.35,0 0.26,-0.04 0.43,-0.27 0.63,-0.39 0.31,-0.08 0.59,-0.03 0.92,-0.09 0.35,-0.06 0.67,-0.31 1.01,-0.29 0.23,0.01 0.41,0.17 0.63,0.19 0.50,0.05 0.79,-0.18 1.25,-0.19 0.13,-0.17 0.35,-0.26 0.63,-0.29 0.09,-0.08 0.07,-0.28 0.14,-0.39 0.19,0.18 0.32,-0.04 0.53,-0.09 0.31,0.04 0.85,0.10 1.06,0.09 0.10,-0.10 -0.04,-0.16 0,-0.33 -0.24,-0.23 -0.65,-0.11 -0.97,-0.14 -0.72,-0.07 -1.44,-0.40 -2.22,-0.34 -0.05,-0.12 -0.25,-0.09 -0.43,-0.10 -0.04,0.07 -0.04,0.18 -0.19,0.14 -0.04,0.17 0.13,0.29 -0.05,0.34 0.06,-0.23 -0.20,-0.12 -0.14,-0.34 0.07,0.05 0.12,0.05 0.19,0 0.13,-0.32 0.36,-0.57 0.53,-0.72 0.04,-0.03 0.05,-0.10 0.09,-0.14 0.09,-0.08 0.24,-0.13 0.34,-0.23 0.28,-0.32 0.69,-1.14 0.77,-1.64 0.10,-0.61 -0.17,-1.10 -0.10,-1.69 0.02,-0.16 0.15,-0.30 0.19,-0.48 0.03,-0.14 -0.03,-0.32 0,-0.48 0.08,-0.35 0.21,-0.83 0.23,-1.16 0.02,-0.40 -0.09,-0.79 -0.14,-1.11 -0.02,-0.16 0.02,-0.36 0,-0.52 -0.07,-0.40 -0.36,-0.82 -0.58,-1.26 -0.21,-0.44 -0.41,-0.91 -0.63,-1.25 -0.16,-0.26 -0.52,-0.46 -0.48,-0.82 -0.22,-0.04 -0.15,0.19 -0.38,0.14 0.00,-0.34 -0.13,-0.53 -0.09,-0.92 -0.54,-0.73 -1.27,-1.28 -2.18,-1.64 -0.20,-0.05 -0.19,0.09 -0.34,0.09 -0.05,-0.12 -0.17,-0.17 -0.38,-0.14 -0.11,-0.53 -0.85,-0.44 -1.16,-0.77 0.22,-0.40 0.87,-0.37 0.77,-1.10 0.33,-0.12 0.53,-0.90 -0.04,-0.92 0.01,0.30 0.01,0.59 -0.29,0.58 -0.26,-0.16 -0.09,-0.44 -0.29,-0.67 0.05,-0.14 0.15,-0.23 0.23,-0.34 0.17,0.08 0.37,0.01 0.52,-0.05 -0.05,-0.36 -0.27,-0.56 -0.47,-0.77 -0.01,-0.24 0.31,-0.33 0.18,-0.52 -0.15,-0.17 -0.29,-0.17 -0.58,-0.14 -0.14,-0.06 -0.03,-0.38 -0.23,-0.39 -0.18,0.01 -0.30,0.17 -0.48,0.24 -0.16,0.06 -0.41,0.01 -0.52,0.18 0.07,0.25 0.45,-0.06 0.58,0.10 0.01,0.20 -0.33,0.04 -0.34,0.23 0.08,0.08 0.28,0.04 0.43,0.05 0.12,-0.08 -0.04,-0.46 0.14,-0.48 0.13,0.20 0.30,0.37 0.63,0.38 -0.02,0.16 -0.07,0.31 -0.05,0.53 0.11,0.14 0.37,0.14 0.29,0.48 -0.20,-0.13 -0.36,0.13 -0.43,0.29 -0.06,-0.11 -0.27,-0.07 -0.38,-0.14 -0.02,-0.09 0.07,-0.33 -0.10,-0.29 -0.35,-0.06 -0.90,0.09 -1.01,0.43 0.20,0.12 0.32,-0.17 0.58,-0.14 -0.03,0.14 -0.07,0.27 -0.18,0.34 -0.24,-0.06 -0.53,-0.08 -0.82,-0.10 -0.17,0.08 -0.22,0.29 -0.38,0.39 0.05,-0.29 -0.20,-0.27 -0.29,-0.44 0.07,-0.09 0.03,-0.31 0.14,-0.38 0.13,0.03 0.11,0.20 0.29,0.19 0.15,-0.22 0.14,-0.33 0.14,-0.72 0.07,-0.15 0.33,-0.11 0.29,-0.39 -0.38,-0.25 -0.31,0.32 -0.58,0.34 -0.09,-0.40 0.20,-0.40 0.33,-0.58 -0.59,-0.40 -0.54,0.73 -0.52,1.01 -0.09,-0.10 -0.10,-0.28 -0.24,-0.34 -0.12,0.08 0.03,0.45 -0.09,0.53 -0.00,-0.05 -0.01,-0.11 -0.09,-0.10 -0.05,0.20 -0.11,0.39 -0.29,0.48 -0.31,-0.03 -0.34,-0.36 -0.48,-0.58 -0.29,-0.12 -0.48,-0.13 -0.53,-0.38 -0.08,-0.39 0.67,-1.14 -0.09,-1.26 0.04,0.16 0.13,0.28 0.09,0.52 -0.13,0.26 -0.27,0.64 -0.14,1.02 0.11,0.13 0.33,0.15 0.39,0.33 -0.44,-0.02 -0.64,-0.28 -0.77,-0.62 0.18,-0.42 0.18,-1.34 -0.43,-1.26 -0.01,0.29 0.27,0.27 0.29,0.52 0.00,0.17 0.14,0.67 -0.09,0.82 -0.10,-0.41 -0.28,-0.74 -0.68,-0.87 -0.09,0.16 -0.29,0.21 -0.43,0.33 0.16,0.31 -0.17,0.19 -0.14,0.48 0.05,0.07 0.40,-0.17 0.48,0.05 -0.08,0.02 -4.04e-4,0.22 -0.10,0.23 0.03,-0.10 -0.13,-0.22 -0.09,-0.04 -0.11,0.23 0.33,0.11 0.52,0.29 0.16,0.14 0.31,0.41 0.10,0.63 -0.22,-0.06 -0.08,-0.50 -0.39,-0.48 -0.12,0.10 -0.21,0.23 -0.38,0.29 -0.13,-0.16 -0.03,-0.34 -0.09,-0.53 -0.10,-0.34 -0.51,-0.59 -0.44,-1.06 0.26,-0.18 0.62,-0.27 0.63,-0.72 -0.23,0.03 -0.52,0.27 -0.67,0.43 -0.53,0.57 0.12,0.98 0.23,1.64 -0.29,0.47 -0.26,1.38 -0.14,1.89 0.37,0.09 0.40,0.52 0.82,0.58 -0.01,-0.24 0.05,-0.39 0.18,-0.48 0.23,0.21 0.25,0.65 0.48,0.87 -0.07,0.54 0.27,0.65 0.43,0.96 -0.79,0.40 -1.14,1.24 -1.59,1.98 -0.15,-0.11 -0.44,-0.10 -0.72,-0.09 -0.54,0.52 -1.21,1.05 -1.11,2.08 0.09,0.18 0.23,0.33 0.23,0.48 -0.13,0.25 -0.31,0.44 -0.62,0.52 -0.06,0.15 -0.01,0.16 0,0.34 -0.15,0.03 -0.24,0.20 -0.39,0.29 -0.04,0.02 -0.14,0.01 -0.19,0.05 -0.10,0.07 -0.16,0.22 -0.29,0.33 -0.33,0.28 -0.84,0.65 -1.06,0.97 -0.07,0.11 -0.07,0.27 -0.14,0.39 -0.13,0.21 -0.36,0.42 -0.52,0.62 -0.18,0.22 -0.37,0.47 -0.63,0.58 -0.09,-1.64 0.02,-3.61 -0.09,-5.57 0.22,-0.24 0.63,-0.08 1.01,-0.09 0.17,-0.27 0.51,-0.29 0.77,-0.43 0.24,-0.13 0.33,-0.48 0.63,-0.48 0.04,-0.26 0.30,-0.30 0.38,-0.52 0.01,-0.19 -0.20,-0.14 -0.23,-0.29 0.22,-0.19 0.15,-0.39 0.23,-0.73 -0.33,-0.47 -1.37,-0.44 -1.88,-0.58 0.07,-0.10 0.14,-0.20 0.14,-0.38 -0.11,-0.27 -0.56,-0.15 -0.73,-0.14 0.10,-0.22 0.18,-0.69 -0.14,-0.73 -0.08,-0.18 -0.20,0.24 -0.29,0.05 -0.02,-1.32 0.01,-2.95 -0.04,-4.30 -0.01,-0.31 0.01,-0.64 0,-0.92 -0.01,-0.32 -0.09,-0.92 -0.53,-0.87 -0.28,1.06 -0.05,2.50 0,3.78 0.05,1.13 -0.01,2.09 0.05,3.04 -0.39,0.06 -0.75,0.06 -1.06,0.19 -0.45,0.19 -0.65,0.61 -0.97,0.92 -0.21,0.20 -0.50,0.42 -0.72,0.58 -0.53,0.36 -1.70,0.26 -2.51,0.48 -0.75,-0.13 -1.75,-0.09 -2.13,-0.68 -0.20,-0.30 -0.33,-0.63 -0.58,-0.96 -0.30,-0.40 -0.61,-0.85 -1.02,-1.06 -0.13,-0.27 -0.31,-0.35 -0.47,-0.58 -0.52,-0.69 -0.55,-1.70 -1.11,-2.18 -0.18,-0.15 -0.48,-0.19 -0.58,-0.48 0.89,0.28 1.30,-0.12 1.54,-0.81 0.02,-0.15 -0.13,-0.13 -0.14,-0.24 0.09,-0.04 0.19,-0.09 0.29,-0.14 -0.10,-0.60 0.53,-0.85 0.58,-1.30 0.04,-0.43 -0.30,-0.62 -0.34,-1.16 0.11,-0.27 0.45,-0.32 0.48,-0.68 -0.29,-0.20 -0.34,0.18 -0.58,0.19 -0.07,-0.21 -0.07,-0.51 -0.29,-0.58 z M 14.64,17.08 c -0.05,0.28 0.20,0.02 0,0 z m -0.92,0.86 c -0.02,-8.3e-5 -0.06,8.58e-4 -0.09,0.00 -0.04,0.18 -0.12,0.31 -0.09,0.58 0.31,0.08 0.12,-0.32 0.38,-0.29 -0.00,0.17 -0.19,0.35 -0.04,0.53 l 0.18,0 c 0.14,-0.25 -0.14,-0.40 0.05,-0.63 -0.12,-0.07 -0.19,-0.20 -0.39,-0.20 z m -2.78,0.22 c 0.04,-0.00 0.10,0.00 0.17,0.03 0.07,0.22 -0.08,0.32 -0.19,0.47 -0.13,0.03 -0.09,-0.09 -0.19,-0.09 -0.01,-0.21 0.07,-0.39 0.22,-0.41 z m 25.64,0.20 c -0.41,-0.00 -0.61,0.20 -0.82,0.40 0.14,0.25 0.12,0.35 -0.05,0.58 0.24,-0.07 0.38,-0.26 0.68,-0.29 0.05,-0.18 -0.18,-0.07 -0.14,-0.23 0.79,-0.30 1.20,1.10 2.08,0.58 0.24,0.15 0.16,0.34 0.19,0.67 -0.16,0.13 -0.50,0.14 -0.68,0.14 0.01,0.16 0.14,0.20 0.24,0.29 0.17,-0.10 0.37,-0.17 0.58,-0.23 0.00,-0.35 0.14,-0.47 0.14,-0.92 -0.25,-0.07 -0.29,-0.35 -0.58,-0.38 -0.10,0.04 -0.14,0.14 -0.29,0.14 -0.56,-0.06 -0.76,-0.50 -1.16,-0.73 -0.06,-0.01 -0.12,-0.01 -0.18,-0.01 z m -25.43,0.20 0.10,0 c -0.00,0.04 0.02,0.04 0.05,0.05 l 0,0.09 c -0.04,-0.00 -0.04,0.02 -0.05,0.05 l -0.10,0 c 0.00,-0.04 -0.01,-0.04 -0.04,-0.05 l 0,-0.09 c 0.04,0.00 0.04,-0.02 0.04,-0.05 z m 6.00,0.05 c -0.00,0.02 -0.00,0.05 -0.05,0.04 l 0,0.10 c 0.02,0.00 0.05,0.00 0.05,0.05 l 0.09,0 c 0.00,-0.02 0.00,-0.05 0.05,-0.05 l 0,-0.10 c -0.02,-0.00 -0.05,-0.00 -0.05,-0.04 l -0.09,0 z m 18.05,0.05 c -0.20,-0.02 -0.51,0.12 -0.72,0.09 -0.20,0.23 -0.50,0.36 -0.48,0.81 0.39,0.05 0.29,-0.37 0.53,-0.47 0.27,-0.06 0.60,-0.06 0.87,-0.14 0.00,-0.20 -0.07,-0.27 -0.19,-0.29 z m -22.90,0.09 c 0.01,0.12 -0.01,0.21 -0.14,0.19 -0.01,-0.12 0.01,-0.21 0.14,-0.19 z m 0.67,0.05 c 0.32,0.03 0.17,0.53 0.53,0.52 -0.14,0.25 -0.14,0.73 -0.05,0.97 0.37,0.06 0.27,-0.33 0.58,-0.34 0.11,0.23 0.21,0.46 0.29,0.67 0.14,0.41 -0.23,0.71 -0.33,1.21 -0.06,0.31 0.05,0.53 -0.10,0.82 -0.18,-0.06 -0.23,-0.28 -0.09,-0.43 -0.12,-0.35 -0.04,-0.92 -0.19,-1.26 -0.23,0.00 -0.12,0.29 -0.14,0.43 -0.05,0.41 0.05,0.98 0.19,1.50 0.00,0.17 0.25,0.10 0.34,0.19 0.03,0.39 -0.37,0.07 -0.48,0.29 -0.02,0.28 0.32,0.18 0.43,0.34 0.10,0.18 0.17,0.40 0.19,0.67 -0.49,-0.47 -1.01,-0.92 -1.69,-1.21 -0.14,0.27 0.19,0.48 0.43,0.53 0.48,0.37 0.90,0.80 1.30,1.26 0.18,0.57 0.61,0.89 1.02,1.25 l 0.33,0 c 0.46,0.34 0.91,0.73 1.35,1.16 0.42,0.40 0.77,0.93 1.21,1.25 0.38,0.28 0.93,0.30 1.69,0.24 0.53,-0.04 1.00,-0.14 1.45,-0.29 1.15,-0.36 2.43,-0.70 3.19,-1.35 0.35,-8.06e-4 0.46,-0.24 0.77,-0.29 0.26,-0.13 0.29,-0.36 0.53,-0.52 0.39,-0.27 1.00,-0.22 1.45,-0.43 0.29,-0.13 0.45,-0.43 0.77,-0.34 0.01,0.35 -0.33,0.34 -0.43,0.58 0.21,0.39 1.18,-0.28 1.40,0.19 -0.03,0.15 -0.22,0.14 -0.10,0.34 -0.46,0.00 -0.97,-0.04 -1.16,0.23 0.42,0.20 1.03,-0.10 1.50,0.05 -0.00,0.19 -0.31,0.29 -0.09,0.43 -0.10,-0.01 -0.60,-0.04 -0.68,-0.23 -0.19,0.12 -0.62,0.01 -0.77,0.18 0.19,0.33 0.98,-0.07 1.21,0.29 0.11,-0.15 0.75,-0.26 0.87,0.05 -0.19,0.01 -0.57,0.10 -0.82,0 -0.12,0.29 -0.75,0.07 -0.87,0.38 0.15,0.14 0.71,-0.06 1.01,-0.09 -0.08,0.26 -0.49,0.21 -0.67,0.39 -0.31,0.00 -0.49,-0.07 -0.87,-0.10 -0.19,0.01 -0.20,0.21 -0.38,0.24 -0.62,-0.00 -1.05,0.11 -1.55,-0.05 -0.20,0.13 -0.46,0.08 -0.67,0.19 -0.15,0.08 -0.28,0.26 -0.44,0.33 -0.23,0.10 -0.51,0.06 -0.72,0.14 -0.14,0.05 -0.29,0.16 -0.43,0.24 -0.12,0.07 -0.35,0.11 -0.38,0.29 -0.32,-0.06 -0.66,0.16 -1.02,0.34 -0.71,0.35 -1.53,0.62 -2.42,0.81 -0.09,-0.03 -0.17,-0.07 -0.29,-0.09 -0.18,-0.03 -0.10,0.18 -0.23,0.19 -1.07,-0.00 -1.30,-0.85 -2.13,-1.11 0.26,-0.25 0.63,0.14 0.87,0.23 0.30,-0.23 -0.16,-0.49 -0.33,-0.62 -0.66,-0.50 -1.57,-1.00 -2.08,-1.60 -0.01,-0.41 -0.26,-0.73 -0.43,-1.11 -0.14,-0.32 -0.23,-0.68 -0.38,-0.91 -0.11,-0.17 -0.33,-0.25 -0.53,-0.44 -0.07,-0.06 -0.07,-0.19 -0.14,-0.23 -1.08,-0.71 -1.93,0.30 -2.85,0.77 -0.35,-0.49 -1.23,-0.66 -1.84,-0.29 0.00,0.12 0.09,0.14 0,0.23 0.30,0.16 0.62,-0.05 0.92,-0.04 0.32,0.01 0.49,0.17 0.77,0.23 -0.06,0.30 -0.43,0.39 -0.67,0.52 -0.39,0.22 -0.81,0.40 -1.11,0.73 -0.56,0.19 -1.04,0.52 -1.50,0.87 -0.06,0.05 -0.13,0.08 -0.19,0.14 -0.12,0.11 -0.22,0.15 -0.38,0.29 -0.59,0.48 -0.86,1.28 -1.35,1.89 -0.30,-0.06 -0.33,0.15 -0.44,0.29 -0.05,0.18 0.18,0.07 0.15,0.23 -0.17,0.16 -0.34,-0.01 -0.53,0 -0.87,0.04 -1.65,0.58 -2.18,1.06 C 2.48,32.02 2.41,31.81 2.39,31.55 2.69,31.35 3.03,31.19 3.31,30.97 3.57,31.02 3.82,30.87 4.09,30.83 4.42,30.77 4.86,30.89 5.06,30.63 4.91,30.40 4.46,30.46 4.23,30.49 3.66,30.55 3.03,30.75 2.64,30.97 2.51,30.65 2.76,30.42 2.83,30.10 c 0.18,-0.81 0.07,-1.76 0.33,-2.47 0.14,-0.39 0.44,-0.82 0.68,-1.21 0.65,-1.08 1.72,-2.09 2.51,-3.00 0.12,-0.01 0.03,0.18 0.19,0.14 0.48,-0.11 0.60,-0.79 0.92,-1.16 0.38,-0.43 1.00,-0.64 1.50,-0.97 0.70,-0.46 1.42,-0.95 2.22,-1.25 0.14,-0.00 0.18,0.10 0.29,0.14 0.41,-0.21 0.50,-0.75 0.72,-1.16 0.13,-0.01 0.25,0.01 0.29,0.10 0.11,-0.28 0.40,-0.17 0.47,-0.43 z m -0.67,1.05 c -0.01,0.35 -0.62,0.31 -0.43,0.73 0.30,-0.10 0.58,-0.47 0.58,-0.73 l -0.14,0 z m 21.12,1.18 c 0.24,-0.03 0.49,0.16 0.52,0.41 -0.20,-0.13 -0.53,-0.14 -0.63,-0.39 0.03,-0.01 0.07,-0.02 0.10,-0.02 z m -18.31,0.06 c 0.09,0.00 0.07,0.21 -0.04,0.15 l 0,-0.14 c 0.01,-0.00 0.03,-0.01 0.04,-0.01 z m 18.88,0.11 c 0.06,0.01 0.02,0.14 0.10,0.14 -0.05,0.15 -0.14,-0.04 -0.10,-0.14 z m -19.25,0.22 c 0.34,-0.02 0.80,0.36 0.90,0.64 0.15,-0.02 0.22,0.02 0.33,0.04 0.55,0.63 0.54,1.41 0.97,2.03 0.41,0.60 1.08,1.06 1.55,1.64 0.30,0.37 0.46,0.91 0.96,1.16 -0.06,0.06 -0.06,0.27 0,0.34 0.90,0.62 2.81,0.45 3.77,0.24 -0.25,0.35 -0.74,0.31 -1.21,0.43 -0.86,0.23 -1.68,0.58 -2.71,0.63 -0.13,0.00 -0.44,0.02 -0.58,0 -0.52,-0.10 -1.01,-0.86 -1.39,-1.26 -0.47,-0.49 -0.98,-0.84 -1.50,-1.16 -0.01,-0.36 -0.14,-0.63 -0.33,-0.82 0.00,-0.32 0.35,-0.42 0.18,-0.82 0.07,-0.24 0.21,0.11 0.34,-0.04 -0.03,-0.45 -0.25,-0.70 -0.52,-0.92 -0.18,-0.00 -0.26,0.28 -0.43,0.14 0.12,-0.79 -0.25,-1.40 -0.82,-1.64 0.07,-0.18 0.22,-0.58 0.43,-0.63 0.02,-0.00 0.04,-0.01 0.06,-0.01 z m 19.25,0.10 c 0.19,0.04 0.13,0.35 0.19,0.53 -0.24,0.06 -0.23,-0.37 -0.34,-0.29 -0.16,-0.10 0.19,-0.09 0.14,-0.24 z m -21.59,0.14 c -0.08,0.44 0.56,0.55 0.87,0.77 -0.06,-0.29 -0.36,-0.34 -0.58,-0.48 -0.03,-0.15 -0.13,-0.25 -0.29,-0.29 z m 22.08,0.13 c 0.12,-0.00 0.28,0.21 0.42,0.25 -0.04,0.11 -0.18,0.12 -0.33,0.14 -0.00,-0.17 -0.07,-0.27 -0.14,-0.39 0.01,-0.01 0.03,-0.01 0.05,-0.01 z m 4.06,0.25 0.10,0 0,0.09 -0.10,0 0,-0.09 z m -2.23,0.27 c 0.03,8.98e-4 0.06,0.00 0.10,0.01 0.03,0.15 0.04,0.34 0.29,0.29 0.03,0.15 0.08,0.29 0.14,0.43 0.24,0.05 0.04,-0.34 0.29,-0.29 0.06,0.14 0.04,0.36 0.04,0.58 0.05,-0.00 0.09,0.01 0.10,0.05 0.25,-0.12 0.33,-0.40 0.33,-0.77 -0.21,-0.06 -0.12,0.16 -0.29,0.14 -0.03,-0.29 0.22,-0.28 0.48,-0.29 0.11,0.09 -0.09,0.31 0.05,0.43 0.09,-0.09 0.08,-0.30 0.23,-0.34 0.37,0.01 0.43,0.34 0.63,0.53 -0.07,0.40 0.05,1.02 -0.29,1.16 0.08,-0.34 0.10,-0.58 -0.14,-0.77 -0.25,0.07 -0.18,0.46 -0.34,0.63 0.04,0.17 0.14,0.03 0.29,0.05 0.06,0.09 0.16,0.31 0.05,0.43 -0.27,0.03 -0.32,-0.16 -0.48,-0.24 -0.13,0.18 0.04,0.49 0,0.77 -0.03,0.25 -0.22,0.43 -0.23,0.68 -0.18,-0.04 -0.23,0.25 -0.39,0.38 -0.10,0.09 -0.37,0.14 -0.52,0.29 -0.17,0.17 -0.22,0.45 -0.68,0.39 -0.16,-0.02 -0.27,-0.12 -0.38,-0.29 0.10,0.09 0.19,-0.12 0.43,-0.05 0.39,-0.44 -0.15,-0.77 -0.53,-0.87 -0.04,-0.24 0.22,-0.17 0.24,-0.34 0.00,-0.17 -0.02,-0.33 -0.19,-0.34 -0.14,-0.01 -0.10,0.16 -0.14,0.24 -0.22,0.02 -0.26,0.21 -0.43,0.29 -0.22,-0.37 -0.11,-1.07 -0.43,-1.35 -0.22,-0.19 -0.51,-0.33 -0.87,-0.39 -0.07,-0.10 -0.05,-0.30 -0.19,-0.34 0.07,-0.23 0.34,-0.34 0.19,-0.67 0.37,0.08 0.42,-0.15 0.52,-0.34 0.32,8.07e-4 0.46,0.18 0.72,0.24 0.00,0.21 -0.15,0.26 -0.29,0.33 -0.02,0.10 0.03,0.12 0.05,0.19 0.37,0.00 0.40,-0.33 0.52,-0.58 0.49,0.19 0.62,-0.31 1.10,-0.30 z m -3.23,0.10 c 0.07,-0.01 0.08,0.04 0.14,0.05 -0.02,0.35 -0.09,0.72 0.04,1.06 0.08,0.21 0.33,0.29 0.34,0.52 -0.12,-0.12 -0.16,0.03 -0.23,0.10 -0.19,-0.07 -0.16,-0.39 -0.44,-0.39 -0.08,-0.54 -0.00,-0.95 0.15,-1.35 z m 5.80,0 c 0.09,0.04 0.19,0.09 0.29,0.14 -0.02,0.04 -0.32,0.10 -0.29,-0.14 z m -24.59,0.14 c 0.08,-0.01 0.08,0.04 0.09,0.10 -0.04,-0.00 -0.04,0.01 -0.05,0.04 -0.05,-0.00 -0.03,-0.08 -0.04,-0.14 z m 24.40,0.05 c 0.06,0.01 0.07,0.08 0.14,0.09 -0.00,0.14 -0.25,0.10 -0.23,-0.04 0.05,0.00 0.08,-0.01 0.09,-0.05 z m -24.45,0.23 c 0.15,-0.02 0.17,0.12 0.09,0.19 0.01,0.14 0.24,0.08 0.19,0.29 -0.16,-0.09 -0.29,-0.22 -0.29,-0.48 z m 24.74,0.05 c 0.15,-0.02 0.16,0.10 0.15,0.23 -0.15,-0.05 -0.13,0.01 -0.24,-0.04 6.05e-4,-0.09 0.12,-0.06 0.09,-0.19 z m -0.76,0.04 c -0.07,-0.00 -0.17,0.01 -0.24,0.00 -0.09,0.17 -0.16,0.30 -0.09,0.52 0.30,0.00 0.30,-0.30 0.48,-0.43 -0.00,-0.07 -0.06,-0.09 -0.14,-0.10 z m 0.86,0.29 c 0.08,0.00 0.06,0.10 0.15,0.10 -0.01,0.21 -0.20,0.50 -0.05,0.72 -0.42,0.19 -0.14,-0.56 -0.14,-0.81 0.01,-0.00 0.03,-0.00 0.04,-0.00 z m -24.40,0.00 0.09,0 c -0.00,0.04 0.02,0.04 0.05,0.04 -0.02,0.07 -0.15,0.04 -0.09,0.19 -0.09,0.02 -0.21,-0.14 -0.19,0.05 -0.19,-0.15 0.18,-0.13 0.14,-0.29 z m 21.27,0.27 c -0.13,-0.00 -0.30,0.05 -0.40,0.06 -0.27,0.04 -0.69,0.27 -0.77,0.52 0.07,0.16 0.21,0.27 0.39,0.34 0.06,0.13 0.10,0.27 0.23,0.34 0.23,-0.18 0.82,-0.26 0.72,-0.63 -0.29,0.01 -0.35,0.24 -0.62,0.29 -0.12,-0.11 -0.28,-0.20 -0.34,-0.39 0.38,-0.04 0.49,-0.37 1.01,-0.29 0.01,-0.20 -0.09,-0.25 -0.22,-0.25 z m -21.36,0.01 c 0.17,-0.01 0.19,0.11 0.23,0.23 -0.14,-0.04 -0.08,0.10 -0.09,0.19 -0.09,-0.01 -0.15,0.00 -0.14,0.09 -0.11,-0.09 -0.03,-0.41 0,-0.52 z m 23.19,0.38 c -0.33,0.01 -0.32,0.37 -0.47,0.58 0.09,0.01 0.09,0.13 0.18,0.14 0.18,-0.14 0.21,-0.46 0.29,-0.72 z m -22.46,0.05 c 0.04,0.02 0.08,0.05 0.09,0 0.07,0.04 0.10,0.11 0.10,0.23 -0.06,0.02 -0.11,-0.18 -0.14,-0.04 -0.06,-0.01 -0.04,-0.12 -0.05,-0.19 z m -0.48,0.09 0,0.34 c 0.18,0.06 0.42,0.35 0.34,0.53 -0.19,0.04 -0.02,-0.27 -0.19,-0.24 -0.07,-0.02 -0.07,0.26 0,0.24 -0.08,0.13 -0.11,-0.09 -0.20,-0.13 0.13,0.00 0.13,-0.33 -0.13,-0.30 0.10,-0.20 -0.02,-0.34 0.19,-0.43 z m 0.39,0 c -0.16,0.29 0.11,0.24 0.14,0.29 0.02,0.03 -0.00,0.22 0.14,0.34 -0.12,-0.00 -0.15,0.07 -0.19,0.14 -0.12,-0.04 -0.05,-0.29 -0.23,-0.29 0.01,-0.19 -0.06,-0.48 0.14,-0.48 z m 18.83,0 c 0.10,0.20 0.50,0.26 0.39,0.53 -0.19,0.09 -0.47,-0.34 -0.39,-0.53 z M 14.50,24.43 c 0.08,0.01 0.11,0.08 0.10,0.19 -0.14,0.04 -0.08,-0.10 -0.10,-0.19 z m 0.73,0.19 c -0.07,0.14 0.21,0.14 0.14,0 l -0.14,0 z m -0.92,0.14 c 0.28,0.06 -0.17,0.22 0,0 z m 20.19,0.05 c 0.23,0.14 0.12,0.38 0.14,0.67 -0.06,-0.20 -0.17,-0.37 -0.14,-0.67 z m -6.87,0.14 c 0.08,0.17 -0.00,0.57 -0.24,0.58 0.02,-0.21 -0.02,-0.35 -0.04,-0.52 0.08,0.19 0.21,0.11 0.29,-0.05 z m -12.88,0.19 c 0.38,0.10 0.78,0.43 0.77,0.76 -0.37,-0.14 -0.74,-0.28 -0.77,-0.76 z m 23.82,0.04 c 0.18,0.06 0.07,0.41 0.24,0.48 0.62,-0.03 1.02,-0.08 1.39,-0.43 0.16,0.07 0.34,0.14 0.44,0.29 0.51,-0.01 0.97,0.41 1.35,0.68 0.45,0.31 0.97,0.70 1.21,1.30 0.07,0.18 0.06,0.39 0.14,0.58 0.11,0.25 0.30,0.49 0.47,0.72 -0.01,0.17 0.05,0.27 0.10,0.39 0.09,-0.02 0.28,0.06 0.23,-0.10 0.41,0.74 0.86,1.46 0.87,2.61 0.07,0.17 -0.16,0.02 -0.14,0.14 -0.00,0.21 0.05,0.39 0.23,0.29 0.10,0.37 -0.01,0.73 -0.05,1.11 -0.04,0.46 0.08,0.78 -0.18,1.06 -0.96,-0.50 -2.08,-1.06 -3.63,-0.72 -0.77,-0.66 -1.12,-1.75 -1.94,-2.37 0.23,-0.31 0.70,-0.40 1.02,-0.63 0.46,0.23 0.41,0.97 1.06,1.02 0.05,-0.25 -0.16,-0.25 -0.19,-0.43 0.17,-0.20 0.39,-0.33 0.38,-0.58 -0.01,-0.55 -0.97,-0.88 -1.30,-0.29 -0.64,0.15 -1.11,0.46 -1.55,0.87 -0.11,0.11 -0.29,0.23 -0.38,0.33 -0.03,0.03 -0.01,0.16 -0.05,0.19 -0.52,0.48 -1.48,0.68 -2.03,1.30 -0.11,0.13 -0.14,0.31 -0.24,0.43 -0.41,0.51 -0.82,0.72 -1.40,1.02 -0.33,0.16 -0.85,0.43 -1.30,0.58 -0.07,0.02 -0.16,-0.01 -0.23,0 -0.21,0.04 -0.52,0.18 -0.77,0.29 -0.46,0.19 -0.86,0.37 -1.35,0.52 -0.05,0.00 -0.04,0.09 -0.05,0.15 -1.28,-0.10 -1.57,1.19 -2.42,1.68 0.00,0.12 0.17,0.07 0.23,0.14 -0.15,0.25 0.08,0.64 0.14,0.97 -0.39,-0.07 -0.65,-0.68 -0.47,-1.01 -0.08,-0.08 -0.19,-0.12 -0.19,-0.29 0.07,-0.31 0.43,-0.34 0.58,-0.58 -0.25,-0.20 -0.78,0.25 -0.67,0.58 -0.24,0.18 -0.49,0.06 -0.73,0.04 -0.29,-0.46 0.72,-0.60 0.58,-1.06 -0.41,0.19 -0.65,0.57 -0.97,0.87 l 0,0.81 c 0.26,-0.14 0.19,-0.09 0.48,0 0.09,-0.05 -0.05,-0.25 0,-0.43 0.21,0.01 0.32,0.12 0.52,0.14 l 0,0.43 c 0.02,0.21 0.36,0.11 0.29,0.43 -0.30,-0.16 -0.57,-0.36 -0.92,-0.47 -0.02,0.29 0.37,0.17 0.39,0.43 -0.26,0.09 -0.68,-0.21 -0.63,-0.43 l -0.43,0 c -0.25,-0.34 0.14,-0.59 0.05,-1.06 0.41,-0.40 0.89,-0.75 1.21,-1.26 0.36,-0.15 0.63,-0.39 0.91,-0.63 l 0.19,0 c 0.77,-0.27 1.36,-0.73 1.98,-1.21 0.48,-0.37 0.94,-0.66 1.50,-1.01 0.39,-0.25 0.68,-0.43 1.16,-0.68 0.46,-0.23 1.03,-0.45 1.50,-0.77 0.46,-0.66 0.89,-1.36 1.64,-1.74 0.06,-0.11 0.17,-0.18 0.29,-0.24 0.26,0.22 -0.30,0.60 -0.14,0.87 0.27,-0.06 0.64,-0.74 0.72,-1.02 0.00,-0.00 0.09,-0.20 -0.05,-0.18 0.65,-0.39 0.82,-1.27 1.50,-1.64 0.34,-0.04 0.72,-0.05 0.82,-0.34 -0.04,-0.17 -0.41,-0.09 -0.48,0 -0.17,-0.29 0.32,-0.65 -0.09,-0.82 -0.14,0.22 -0.22,0.52 -0.24,0.87 -0.86,0.29 -1.22,1.09 -1.74,1.74 -0.15,-0.16 -0.34,-0.30 -0.53,-0.43 -0.16,-0.42 -0.25,-0.90 -0.58,-1.16 -0.25,0.06 -0.42,0.21 -0.58,0.38 -0.89,-0.31 -1.48,0.39 -1.93,1.01 -0.27,0.38 -0.47,0.83 -0.39,1.55 -0.12,0.05 -0.15,0.19 -0.33,0.19 -0.49,0.68 -0.94,1.40 -1.35,2.17 -1.54,0.87 -2.76,2.08 -4.16,3.10 -0.05,-0.38 -0.05,-0.68 0,-1.06 0.18,-0.14 0.38,-0.24 0.58,-0.39 0.20,-0.16 0.42,-0.40 0.63,-0.67 0.16,-0.22 0.26,-0.47 0.43,-0.68 0.08,-0.10 0.25,-0.13 0.34,-0.23 0.07,-0.09 0.07,-0.25 0.14,-0.34 0.35,-0.47 0.87,-0.70 1.30,-1.10 0.16,-0.45 0.56,-0.66 0.87,-0.97 -0.03,-0.17 0.10,-0.18 0.09,-0.34 0.86,-0.95 1.41,-2.22 2.08,-3.38 0.14,-8.08e-4 0.16,-0.12 0.29,-0.14 0.12,-0.18 0.21,-0.39 0.43,-0.48 0.36,0.16 0.30,0.47 0.63,0.72 0.13,0.10 0.43,0.27 0.53,0.29 0.50,0.08 1.01,-0.49 1.45,-0.05 0.04,0.23 -0.13,0.25 -0.09,0.48 0.08,0.32 0.41,0.12 0.58,0.39 0.16,-0.01 0.07,-0.27 0.09,-0.43 0.09,-0.02 0.09,-0.14 0.24,-0.10 0.36,-0.68 0.10,-1.50 0.33,-2.27 z m -11.71,0.39 c 0.03,0.14 -0.05,0.17 -0.05,0.29 -0.58,0.03 -1.09,0.13 -1.35,0.48 0.07,-0.45 0.75,-0.73 1.40,-0.77 z m 8.18,0.23 0.14,0 c 0.01,0.12 -0.01,0.21 -0.14,0.19 -0.08,-0.09 0.00,-0.06 0,-0.19 z m -18.21,0.09 c -0.00,0.07 -0.12,0.04 -0.09,0.15 0.18,0.55 0.65,0.76 1.01,1.10 0.21,0.20 0.30,0.41 0.52,0.63 0.08,-0.93 -1.12,-1.00 -1.30,-1.84 -0.06,-0.00 -0.06,-0.06 -0.14,-0.05 z m 21.16,0.10 c 0.18,0.12 -0.09,0.18 -0.04,0.34 -0.05,-0.09 -0.12,-0.16 -0.15,-0.29 0.07,-0.00 0.18,0.02 0.19,-0.05 z m -8.32,0.28 c 0.09,0.01 0.02,0.21 -0.00,0.24 -0.10,0.00 -0.01,-0.16 -0.04,-0.23 0.02,-0.00 0.03,-0.00 0.05,-0.00 z m -4.26,0.10 c -0.01,0.12 -0.12,0.16 -0.23,0.19 0.06,-0.08 0.09,-0.19 0.23,-0.19 z m 3.73,0 c 0.29,0.07 0.45,0.44 0.77,0.34 -0.05,0.05 -0.04,0.09 0.04,0.09 -0.03,0.19 -0.19,0.02 -0.18,0.19 C 29.50,26.92 29.22,26.89 28.98,26.86 29.09,26.67 29.11,26.60 29.13,26.42 z m 8.76,0.05 0.09,0 c -0.02,0.03 -0.04,0.07 -0.04,0.14 -0.10,-0.02 -0.10,-0.07 -0.05,-0.14 z m -30.17,0.05 c -0.49,0.55 -2.12,0.22 -2.03,1.21 0.32,-0.03 0.43,-0.35 0.77,-0.48 0.51,-0.19 1.27,-0.10 1.39,-0.72 l -0.14,0 z m 29.73,0.03 c 0.01,-0.00 0.02,-7.5e-5 0.04,0.00 -4.03e-4,0.09 -0.12,0.06 -0.09,0.19 -0.10,-0.02 -0.04,-0.19 0.05,-0.20 z m 0.27,0.19 c 0.26,-2.3e-5 0.50,0.32 0.30,0.63 -0.18,-0.11 -0.17,-0.44 -0.39,-0.39 0.01,-0.11 -0.00,-0.17 -0.09,-0.18 0.05,-0.03 0.12,-0.05 0.18,-0.05 z m 1.12,0.24 c -0.08,0.12 -0.16,0.25 -0.14,0.48 0.21,-0.00 0.22,-0.23 0.34,-0.34 -0.04,-0.07 -0.07,-0.15 -0.19,-0.14 z m -9.23,0.15 c 0.16,0.01 0.34,0.11 0.32,0.29 -0.21,0.10 -0.48,0.01 -0.63,0 -0.03,-0.21 0.13,-0.30 0.30,-0.29 z m -21.41,0.14 0,0.29 c 0.15,0.05 0.11,-0.08 0.19,-0.10 -0.00,-0.12 -0.07,-0.18 -0.19,-0.18 z m -0.68,0.14 c -0.05,0.17 0.02,0.48 0.29,0.47 -0.01,-0.19 -0.10,-0.30 -0.14,-0.47 l -0.15,0 z m 11.48,0.09 c 0.09,0.20 0.38,0.53 0.58,0.34 -0.07,-0.23 -0.28,-0.32 -0.58,-0.34 z M 6.65,27.68 c -0.11,0.24 0.00,0.62 0.29,0.63 -0.03,-0.27 -0.10,-0.50 -0.29,-0.63 z m 26.25,0.43 c -0.16,0.61 -0.53,1.06 -0.87,1.55 -0.09,0.13 -0.17,0.38 -0.39,0.38 -0.04,-0.26 -0.10,-0.63 0,-0.92 0.01,-0.04 0.31,-0.42 0.39,-0.52 0.25,-0.34 0.37,-0.47 0.87,-0.48 z m 2.56,0.03 c 0.06,-0.00 0.12,-2.78e-4 0.19,0.01 0.13,0.02 0.17,0.16 0.29,0.23 0.19,0.12 0.48,0.21 0.72,0.39 0.22,0.16 0.43,0.33 0.52,0.58 -1.37,0.36 -1.81,1.66 -2.80,2.42 -0.05,-0.72 -0.74,-0.93 -0.58,-1.98 0.05,-0.35 0.34,-0.64 0.58,-0.92 0.24,-0.28 0.62,-0.70 1.06,-0.73 z m -8.38,0.83 0.14,0 c 0.08,1.34 0.08,2.67 0.05,3.92 -0.21,-0.27 -0.07,-0.79 -0.09,-1.25 -0.01,-0.39 -0.14,-0.79 0,-1.06 -0.07,-0.33 -0.13,-0.59 0,-0.87 -0.10,-0.18 -0.07,-0.26 -0.10,-0.58 -0.05,-0.06 -0.01,-0.07 0,-0.14 z m -3.87,0.05 c -0.42,0.33 -0.94,0.47 -1.50,0.68 -0.52,0.19 -0.91,0.43 -1.45,0.58 -0.13,0.03 -0.49,-0.06 -0.47,0.23 0.38,0.23 0.83,-0.20 1.30,-0.19 0.18,-0.14 0.39,-0.23 0.63,-0.33 0.21,-0.09 0.51,-0.14 0.72,-0.24 0.17,-0.08 0.32,-0.24 0.48,-0.34 0.15,-0.09 0.44,-0.08 0.43,-0.33 -0.06,-0.00 -0.06,-0.06 -0.14,-0.05 z m -7.16,0.14 c 0.04,0.08 0.17,0.07 0.14,0.23 l -0.19,0 c -0.04,-0.13 0.07,-0.12 0.05,-0.23 z m 24.40,0.19 c -0.36,0.39 -0.96,0.55 -1.55,0.72 -0.03,0.14 -0.18,0.16 -0.14,0.38 0.72,-0.28 1.65,-0.37 1.98,-1.06 -0.05,-0.05 -0.17,-0.05 -0.29,-0.04 z m -22.00,1.01 c -0.09,0.01 -0.17,0.07 -0.17,0.19 0.17,0.08 0.31,0.25 0.48,0.09 0.04,-0.19 -0.15,-0.30 -0.30,-0.29 z m 15.12,0.43 c 0.18,0.37 0.52,0.61 0.63,1.06 -0.26,0.10 -0.49,0.25 -0.77,0.34 -0.24,-0.15 -0.39,-0.41 -0.52,-0.68 0.21,-0.25 0.27,-0.65 0.67,-0.72 z m -22.42,0.24 c -0.34,0.50 -0.98,0.97 -1.01,1.64 0.41,-0.03 0.46,-0.52 0.63,-0.77 0.17,-0.26 0.52,-0.46 0.53,-0.82 -0.06,-0.00 -0.07,-0.05 -0.15,-0.04 z m 29.01,0.04 c -0.07,0.06 -0.15,0.23 -0.05,0.34 0.09,0.01 0.10,-0.05 0.19,-0.05 -0.03,-0.10 -0.02,-0.26 -0.14,-0.29 z m -0.82,0.77 0.19,0 c 0.01,0.11 -0.00,0.18 -0.05,0.23 -0.04,-0.03 -0.10,-0.04 -0.18,-0.04 0.03,-0.04 0.04,-0.11 0.04,-0.19 z M 32.66,31.99 c 0.21,0.06 0.31,0.24 0.39,0.44 -0.30,0.16 -0.50,0.42 -0.87,0.52 0.11,-0.36 0.39,-0.56 0.47,-0.97 z m 6.82,0.24 c 0.18,0.03 0.20,0.28 0.43,0.14 0.16,0.28 0.38,0.52 0.48,0.87 0.46,0.39 0.56,1.14 1.01,1.55 -0.02,0.25 0.11,0.36 0.24,0.58 0.17,0.28 0.20,0.36 0.48,0.58 0.30,0.22 0.41,0.39 0.63,0.05 -0.35,-0.47 -0.86,-0.50 -0.97,-1.21 0.25,-0.12 0.58,-0.09 0.87,-0.05 0.11,0.01 0.21,0.11 0.34,0.14 0.12,0.02 0.24,-0.03 0.34,0 0.09,0.03 0.14,0.15 0.23,0.19 0.28,0.10 0.64,0.11 0.92,0.23 0.18,0.08 0.29,0.28 0.48,0.29 -0.09,1.32 -0.52,2.32 -1.40,2.86 -0.33,0.59 -0.87,0.99 -1.50,1.30 -0.41,-0.03 -0.81,-0.40 -1.11,-0.23 -0.41,-0.60 -0.81,-1.24 -1.21,-1.94 -0.11,-0.20 -0.30,-0.41 -0.38,-0.63 -0.12,-0.33 -0.16,-0.70 -0.39,-1.05 -0.08,-0.13 -0.21,-0.87 -0.23,-1.06 -0.06,-0.46 0.01,-0.95 -0.23,-1.40 0.50,-0.22 0.25,-1.18 0.96,-1.21 z M 8.69,32.38 c -0.01,0.18 -0.18,0.20 -0.19,0.38 -0.13,-0.03 -0.09,0.10 -0.19,0.10 -0.12,0.36 -0.48,0.47 -0.62,0.81 -0.19,0.09 -0.45,0.30 -0.24,0.53 0.67,-0.39 1.07,-1.06 1.40,-1.79 -0.06,-0.00 -0.06,-0.06 -0.14,-0.05 z m 26.46,0.73 c -0.25,-0.00 -0.53,0.13 -0.55,0.42 0.27,0.07 0.39,-0.24 0.58,-0.09 -0.01,0.19 -0.31,0.10 -0.29,0.34 0.39,0.16 0.71,-0.13 0.67,-0.39 -0.03,-0.18 -0.21,-0.27 -0.40,-0.28 z m -7.91,0.38 c 0.13,0.31 0.08,0.62 0.05,0.87 -0.14,-0.11 -0.10,-0.58 -0.05,-0.87 z m 15.49,0.38 c 0.77,0.06 1.48,0.55 2.17,0.77 0.03,0.12 0.02,0.41 -0.04,0.58 -0.19,0.03 -0.24,-0.16 -0.43,-0.23 -0.23,-0.10 -0.57,-0.09 -0.82,-0.19 -0.05,-0.02 -0.05,-0.12 -0.09,-0.14 -0.22,-0.12 -0.58,-0.15 -0.87,-0.10 -0.20,-0.28 -0.61,-0.12 -1.01,-0.14 -0.09,-0.11 -0.21,-0.19 -0.23,-0.38 0.26,-0.25 0.49,-0.06 0.77,-0.05 0.19,0.00 0.41,-0.10 0.58,-0.09 z m -8.47,0.43 c -0.45,0.12 -0.86,0.30 -1.35,0.43 -0.44,0.11 -0.87,0.15 -1.26,0.34 -0.37,0.17 -0.73,0.35 -1.11,0.48 -0.31,0.10 -0.95,0.14 -0.87,0.63 0.55,-0.28 1.14,-0.53 1.84,-0.68 0.32,-0.40 1.01,-0.42 1.64,-0.52 0.03,-0.12 0.22,-0.09 0.29,-0.19 0.08,-0.00 0.15,0.01 0.19,0.05 0.10,-0.30 0.75,-0.08 0.77,-0.48 -0.06,-0.00 -0.06,-0.06 -0.14,-0.05 z m 1.45,0 c 0.23,0.06 0.28,0.35 0.39,0.53 0.29,0.51 0.78,1.06 1.06,1.64 0.02,0.05 -0.02,0.13 0,0.18 0.05,0.11 0.16,0.47 0.18,0.77 -0.00,0.23 -0.23,0.25 -0.23,0.48 0.18,0.36 0.43,-0.07 0.68,-0.09 0.04,0.49 0.35,0.96 0.18,1.50 -0.24,-0.09 -0.46,-0.14 -0.72,-0.14 -0.08,9.63e-4 -0.07,0.07 -0.19,0.09 -0.06,0.01 -0.18,-0.05 -0.23,-0.05 -0.23,0.03 -0.50,0.08 -0.72,0.14 -0.20,0.05 -0.37,0.18 -0.58,0.19 -0.28,0.01 -0.73,-0.15 -1.16,-0.19 -0.48,-0.04 -0.97,0.03 -1.01,-0.43 0.31,0.10 0.48,-0.11 0.72,-0.14 0.60,-0.07 1.15,0.19 1.50,-0.29 0.03,-0.04 0.03,-0.19 0.10,-0.29 0.27,-0.37 0.67,-0.47 0.62,-1.16 -0.03,-0.40 -0.36,-0.81 -0.58,-1.21 -0.21,-0.39 -0.45,-0.76 -0.63,-1.11 0.22,-0.13 0.39,-0.31 0.63,-0.43 z m -8.51,0.14 c 0.26,0.19 0.09,0.63 0.09,1.01 -2.02e-4,0.32 0.21,0.82 -0.09,0.97 0.01,-0.83 0.00,-1.33 0,-1.98 z m -16.47,1.06 c 0.05,0.02 0.10,0.06 0.10,0.14 -0.05,-0.02 -0.10,-0.06 -0.10,-0.14 z m 0.14,0.05 0.29,0 c 0.01,0.18 -0.30,0.18 -0.29,0 z m -0.38,0.06 c 0.15,0.01 0.33,0.12 0.52,0.17 0.25,0.05 0.65,-0.02 0.73,0.24 -0.57,-0.07 -0.81,-0.21 -1.45,-0.24 0.15,0.09 0.56,0.19 0.82,0.24 0.34,0.07 0.76,-0.00 0.92,0.23 -0.60,-0.06 -1.32,-0.12 -1.93,-0.34 0.16,-0.07 0.10,-0.17 0.14,-0.29 l 0.09,0 c 0.04,-0.02 0.09,-0.02 0.14,-0.02 z m 15.20,0.22 c 0.05,-0.00 0.09,0.01 0.10,0.05 0.06,0.53 -0.36,0.77 -0.24,1.21 -0.39,-0.36 -0.02,-0.92 0.14,-1.26 z m -1.33,0.23 c 0.10,0.00 0.18,0.16 0.31,0.15 l 0,0.24 c -0.16,-0.08 -0.27,-0.08 -0.34,-0.34 l -0.09,0 c 0.04,-0.04 0.08,-0.05 0.11,-0.05 z m -16.43,0.02 c -0.30,0.01 -0.46,0.58 -0.24,0.85 0.17,0.01 0.18,0.06 0.33,0 0.02,-0.21 -0.09,-0.28 -0.14,-0.43 0.06,-0.13 0.21,-0.16 0.19,-0.38 -0.04,-0.02 -0.09,-0.03 -0.13,-0.03 z m 5.00,0.02 c 0.09,-0.01 0.22,0.06 0.17,0.20 -0.16,0.03 -0.06,-0.19 -0.24,-0.14 0.01,-0.03 0.04,-0.05 0.07,-0.05 z m -0.51,0.00 c 0.13,0.07 0.00,0.29 -0.05,0.34 0.36,0.05 0.79,0.04 0.87,0.38 0.25,-0.01 0.36,0.11 0.58,0.14 -0.06,0.21 -0.29,0.25 -0.24,0.58 -0.14,0.07 -0.10,-0.30 -0.14,-0.04 -0.18,-0.18 0.15,-0.39 -0.04,-0.48 -0.05,-0.02 0.00,0.09 0,0.14 -0.08,-0.06 -0.22,-0.32 -0.39,-0.14 0.03,0.04 0.17,-0.02 0.24,0.09 -0.05,0.21 0.07,0.30 -0.14,0.34 -0.02,-0.15 0.08,-0.17 0.04,-0.34 -0.08,0.00 -0.02,0.16 -0.09,0.19 -0.11,-0.18 -0.33,-0.10 -0.58,-0.05 0.02,-0.23 -0.27,-0.15 -0.34,-0.29 0.03,-0.04 0.08,-0.07 0.14,-0.09 -0.60,-0.17 -1.41,-0.24 -2.13,-0.43 0.02,-0.16 0.31,-0.07 0.48,-0.10 -0.06,-0.16 -0.13,-0.08 -0.23,-0.14 0.61,-0.10 1.36,0.19 1.88,0.19 0.12,-0.01 -0.06,-0.08 0,-0.19 0.07,0.06 0.18,0.07 0.14,-0.09 z m -1.74,0.19 c 0.10,0.21 0.70,0.19 0.92,0.14 -0.34,-0.01 -0.54,-0.16 -0.92,-0.14 z m 1.31,0.18 c -0.09,-0.00 -0.17,0.00 -0.24,0.05 0.16,0.05 0.32,0.06 0.47,0.09 0.23,0.04 0.51,0.18 0.73,0.05 -0.31,0.00 -0.68,-0.17 -0.96,-0.19 z m 13.07,0.05 c 0.07,0.10 0.15,0.19 0.18,0.34 -0.22,0.04 -0.26,-0.24 -0.18,-0.34 z m -11.38,0.08 c 0.21,0.00 0.46,0.14 0.43,0.34 -0.35,0.04 -0.41,-0.19 -0.72,-0.19 0.04,-0.11 0.16,-0.15 0.29,-0.15 z m -2.43,0.10 c 0.01,-0.00 0.04,0.00 0.06,0 -0.02,0.05 -0.06,0.09 -0.15,0.09 -0.01,-0.07 0.03,-0.09 0.08,-0.09 z m -5.75,0.04 c 0.04,0.09 0.11,0.17 0.23,0.19 -0.03,0.09 -0.12,0.12 -0.23,0.14 -0.06,-0.06 -0.06,-0.27 0,-0.34 z m 8.85,0 c 0.15,-0.01 0.19,0.22 0,0.19 l 0,-0.19 z m 1.52,0.02 c 0.07,-0.00 0.17,0.00 0.27,0.02 -0.05,0.25 -0.31,0.20 -0.48,0.24 0.00,-0.19 0.08,-0.26 0.21,-0.27 z m -3.41,0.05 c -0.04,0.00 -0.08,0.03 -0.10,0.07 0.15,0.05 0.39,0.02 0.53,0.09 -0.05,-0.08 -0.29,-0.19 -0.43,-0.17 z m 11.78,0.01 c -0.03,-0.00 -0.06,-0.00 -0.11,0.00 -0.16,0.33 -0.75,0.22 -1.06,0.29 -0.01,0.03 -0.00,0.09 -0.05,0.09 0.18,0.50 1.02,0.36 1.35,0.72 -0.06,0.09 -0.33,-0.01 -0.34,0.14 0.12,0.60 1.03,0.42 1.35,0.82 l 0.29,0 c 0.08,0.13 0.27,0.17 0.34,0.34 0.87,0.44 2.05,0.71 3.10,1.10 0.11,0.20 0.34,0.30 0.58,0.39 0.08,-0.08 0.19,-0.12 0.19,-0.29 -0.78,-0.82 -2.39,-0.83 -3.39,-1.45 -0.35,0.02 -0.47,-0.16 -0.63,-0.33 -0.26,-0.02 -0.55,-0.02 -0.63,-0.24 -0.26,-0.06 -0.64,-0.00 -0.72,-0.23 0.02,-0.06 0.07,-0.11 0.14,-0.14 0.27,0.06 0.47,0.19 0.63,0.38 0.01,-0.06 0.06,-0.09 0.14,-0.09 0.03,-0.40 -0.25,-0.48 -0.58,-0.53 -0.19,-0.26 -0.59,-0.29 -0.87,-0.47 0.08,-0.24 0.42,-0.22 0.52,-0.44 -0.11,0.00 -0.17,-0.03 -0.27,-0.05 z m -13.26,0.15 c 0.06,-0.00 0.14,0.00 0.21,0 -0.02,0.16 -0.24,0.11 -0.34,0.09 0.00,-0.06 0.05,-0.08 0.12,-0.09 z m 0.40,0 c 0.07,-0.01 0.08,0.04 0.14,0.05 -0.01,0.05 -0.09,0.03 -0.09,0.09 -0.05,-0.00 -0.04,-0.08 -0.05,-0.14 z m 2.56,0.09 c 0.08,0.01 0.10,0.08 0.09,0.19 -0.08,-0.01 -0.10,-0.08 -0.09,-0.19 z m 12.39,0.05 c 0.15,-0.01 0.21,0.26 0,0.23 l 0,-0.23 z m -12.01,0.14 c 0.21,-0.00 -0.00,0.11 0.05,0.23 -0.10,0.00 -0.02,-0.16 -0.05,-0.23 z m -1.73,0.01 c 0.08,-6.06e-4 0.18,0.03 0.23,0.07 -0.04,0.24 -0.18,-0.13 -0.29,0.05 -0.07,-0.09 -0.02,-0.12 0.05,-0.12 z m 1.29,0.07 c 0.05,0.01 0.03,0.10 0.10,0.10 -0.02,0.13 -0.15,-0.00 -0.10,-0.10 z m 13.17,0.10 0.14,0 c -0.04,0.15 0.11,0.49 -0.14,0.43 0.15,-0.21 0.02,-0.13 0,-0.43 z m -14.04,0.04 0.09,0 0,0.10 -0.09,0 0,-0.10 z m 0.19,0.05 c 0.03,0.03 0.13,0.07 0.14,0 0.13,0.04 -0.06,0.15 0,0.29 -0.14,-0.03 -0.09,-0.03 -0.24,0 -0.05,-0.18 0.12,-0.13 0.10,-0.29 z m 16.22,0.19 c 0.19,0.14 0.54,0.12 0.62,0.38 -0.28,-0.07 -0.58,-0.11 -0.62,-0.38 z m -19.85,0.09 c 0.05,0.18 -0.02,0.20 0.04,0.34 l 0.19,0 c 0.01,-0.20 -0.13,-0.24 -0.23,-0.34 z m 19.54,0.03 c 0.18,-0.02 0.38,0.28 0.64,0.30 -0.10,0.31 -0.54,0.29 -0.48,0.77 -0.46,-0.10 -0.18,-0.70 -0.33,-0.92 0.05,-0.10 0.11,-0.14 0.17,-0.15 z m -17.40,0.38 c -0.02,0.00 -0.04,0.00 -0.06,0.01 0.00,0.20 0.25,0.16 0.29,0.34 0.02,0.18 0.02,0.39 0.29,0.34 -0.04,-0.32 -0.21,-0.73 -0.51,-0.69 z m 23.17,0.06 0,0.19 c -0.17,-0.01 -0.11,-0.13 -0.29,-0.05 -0.00,-0.14 0.16,-0.12 0.29,-0.14 z m -4.28,0.12 c 0.04,0.02 -0.02,0.46 -0.07,0.59 -0.13,-0.14 -0.25,-0.28 -0.43,-0.38 -0.00,-0.10 0.16,-0.02 0.23,-0.05 -0.04,0.23 0.18,0.12 0.19,0.19 0.10,-0.02 0.02,-0.24 0.05,-0.34 0.01,-0.01 0.01,-0.02 0.02,-0.01 z m -0.75,0.01 c 0.16,0.30 0.45,0.47 0.62,0.77 -0.36,-0.08 -0.73,-0.37 -0.62,-0.77 z m -18.55,0.09 c -0.17,0.15 -0.08,0.63 0.24,0.58 0.01,-0.05 0.05,-0.07 0.09,-0.09 -0.02,-0.25 -0.09,-0.46 -0.34,-0.48 z m 17.05,0.05 c 0.14,0.00 0.23,0.31 0,0.29 0.03,-0.16 -0.09,-0.20 0,-0.29 z m -17.77,0.19 c 0.01,0.14 -0.10,0.14 -0.09,0.29 0.05,0.01 0.07,0.05 0.09,0.09 0.15,0.04 0.14,-0.07 0.23,-0.09 0.01,-0.19 -0.04,-0.30 -0.23,-0.29 z m 1.88,0.09 c -0.06,0.00 -0.11,0.01 -0.14,0.05 -0.05,0.15 0.33,0.04 0.34,-0.05 -0.06,3.03e-4 -0.13,-0.00 -0.19,0 z m 17.14,0.14 c 0.08,0.04 0.16,0.08 0.14,0.23 -0.15,0.02 -0.15,-0.10 -0.14,-0.23 z m 0.92,0.28 c 0.01,-0.00 0.03,8.84e-4 0.05,0.00 -0.02,0.09 -0.01,0.21 -0.14,0.19 0.06,-0.03 0.00,-0.19 0.09,-0.20 z m 13.73,0.26 c 0.02,0.00 0.03,0.08 -0.02,0.08 -0.01,0.11 0.00,0.18 0.04,0.23 -0.15,0.43 0.05,-0.15 -0.23,-0.14 -0.00,-0.04 0.02,-0.04 0.05,-0.04 l 0,-0.10 c 0.04,9.64e-4 0.03,0.06 0.04,0.10 0.04,-0.02 0.09,-0.04 0.10,-0.10 0.00,-0.02 0.01,-0.03 0.02,-0.03 z m -0.94,0.03 0.09,0 0,0.10 -0.09,0 0,-0.10 z m -2.13,0.10 c 0.06,0.01 0.01,0.14 0.09,0.14 -0.05,0.15 -0.13,-0.04 -0.09,-0.14 z m 2.61,0.04 c 0.12,0.10 -0.13,0.27 -0.23,0.14 0.08,-0.04 0.13,-0.12 0.23,-0.14 z m -0.33,0.14 c 0.13,0.08 -0.09,0.23 -0.10,0.34 -0.27,-0.07 0.07,-0.25 0.10,-0.34 z m 0.63,0.05 c 0.11,0.27 -0.13,0.22 0,0 z m 1.26,0.01 c 0.05,-0.00 0.12,0.04 0.28,0.03 0.04,0.17 -0.19,0.06 -0.29,0.09 0.00,-0.05 -0.00,-0.08 -0.04,-0.09 0.01,-0.02 0.03,-0.02 0.05,-0.03 z m -1.45,0.03 c 0.22,0.09 -0.16,0.20 -0.14,0.38 -0.04,-0.03 -0.11,-0.05 -0.19,-0.05 0.04,-0.08 0.13,-0.12 0.09,-0.29 0.14,0.00 0.22,0.20 0.24,-0.04 z m -2.66,0.14 c 0.04,0.00 0.03,0.05 0.05,0.09 0.05,0.00 0.08,-0.01 0.09,-0.05 0.07,0.04 0.07,0.15 0.10,0.24 -0.16,-0.01 -0.21,-0.14 -0.24,-0.29 z m 2.95,0.04 c 0.10,-0.00 0.02,0.17 0.05,0.24 -0.05,-0.05 -0.10,-0.03 -0.10,0.05 -0.03,-0.03 -0.23,-0.12 -0.18,0.04 -0.10,0.10 0.00,-0.23 0.04,-0.29 0.07,-0.00 0.18,0.02 0.19,-0.05 z m -2.85,0.34 c 0.07,-0.01 0.08,0.04 0.14,0.05 -0.00,0.03 -0.05,0.04 -0.05,0.09 l -0.09,0 c 0,-0.04 2.02e-4,-0.09 0,-0.14 z m -3.10,0.11 c -0.12,0.01 -0.26,0.11 -0.38,0.13 0.05,0.36 0.47,0.17 0.58,-0.05 -0.05,-0.07 -0.12,-0.09 -0.19,-0.08 z m -7.26,0.46 c -0.04,-2.71e-4 -0.08,0.01 -0.09,0.05 0.13,-0.03 0.09,0.09 0.19,0.09 0.05,-0.10 -0.02,-0.15 -0.10,-0.15 z m 14.45,0 c -0.03,-0.00 -0.06,0.01 -0.07,0.05 0.04,-2.01e-4 0.06,0.04 0.10,0.05 0.08,-0.04 0.02,-0.10 -0.02,-0.10 z m -8.48,0.06 c 0.07,-0.00 0.15,0.01 0.18,0.08 -0.00,0.13 -0.35,0.17 -0.34,0.05 0.00,-0.08 0.08,-0.12 0.15,-0.13 z m -0.88,0.56 c -0.05,-0.00 -0.09,0.00 -0.09,0.05 0.07,-0.02 0.25,0.05 0.24,-0.05 -0.03,0.01 -0.09,-0.00 -0.15,-0.00 z" id="path4" />
</svg>
