<?xml version="1.0" encoding="UTF-8" standalone="no"?>
<!-- Created with Inkscape (http://www.inkscape.org/) -->
<svg xmlns:dc="http://purl.org/dc/elements/1.1/" xmlns:cc="http://creativecommons.org/ns#" xmlns:rdf="http://www.w3.org/1999/02/22-rdf-syntax-ns#" xmlns:svg="http://www.w3.org/2000/svg" xmlns="http://www.w3.org/2000/svg" version="1.1" width="100%" height="100%" viewBox="0 0 48 48" id="svg3985">
<defs id="defs9" />
<path d="m 21.68,46.16 c -0.05,-0.00 -0.27,-0.16 -0.50,-0.35 -0.58,-0.48 -0.87,-0.70 -1.01,-0.78 -0.06,-0.03 -0.14,-0.10 -0.18,-0.16 -0.03,-0.05 -0.13,-0.15 -0.22,-0.22 -0.09,-0.07 -0.22,-0.17 -0.30,-0.24 -0.07,-0.06 -0.21,-0.16 -0.30,-0.22 -0.08,-0.06 -0.23,-0.17 -0.32,-0.24 -0.09,-0.06 -0.22,-0.15 -0.29,-0.19 -0.20,-0.11 -0.24,-0.13 -0.47,-0.30 -0.29,-0.21 -0.60,-0.41 -0.73,-0.46 -0.06,-0.02 -0.14,-0.08 -0.18,-0.12 -0.15,-0.14 -1.04,-0.72 -1.33,-0.85 -0.12,-0.05 -0.29,-0.16 -0.37,-0.23 -0.07,-0.07 -0.20,-0.15 -0.27,-0.18 -0.17,-0.07 -0.36,-0.18 -0.43,-0.25 -0.03,-0.02 -0.11,-0.08 -0.17,-0.11 -0.06,-0.03 -0.18,-0.12 -0.27,-0.20 -0.15,-0.13 -0.16,-0.15 -0.15,-0.33 0.00,-0.10 0.02,-0.21 0.04,-0.25 0.01,-0.03 0.07,-0.17 0.13,-0.32 0.05,-0.14 0.15,-0.33 0.22,-0.42 0.13,-0.18 0.25,-0.55 0.31,-0.95 0.03,-0.22 0.02,-0.29 -0.02,-0.44 -0.06,-0.20 -0.26,-0.62 -0.39,-0.84 -0.04,-0.08 -0.13,-0.24 -0.19,-0.35 -0.05,-0.11 -0.14,-0.25 -0.18,-0.31 -0.04,-0.06 -0.13,-0.21 -0.20,-0.35 -0.06,-0.13 -0.17,-0.32 -0.24,-0.42 -0.06,-0.10 -0.12,-0.19 -0.12,-0.21 0,-0.01 -0.04,-0.09 -0.10,-0.16 -0.12,-0.15 -0.32,-0.54 -0.45,-0.87 -0.04,-0.12 -0.15,-0.33 -0.22,-0.46 -0.07,-0.13 -0.14,-0.25 -0.14,-0.27 0,-0.01 -0.04,-0.11 -0.09,-0.21 -0.05,-0.10 -0.09,-0.19 -0.09,-0.21 0,-0.01 -0.03,-0.12 -0.08,-0.22 -0.04,-0.10 -0.10,-0.25 -0.13,-0.32 -0.05,-0.15 -0.23,-0.58 -0.33,-0.79 -0.03,-0.08 -0.08,-0.18 -0.09,-0.24 -0.01,-0.05 -0.03,-0.10 -0.05,-0.12 -0.01,-0.02 -0.05,-0.13 -0.09,-0.25 -0.03,-0.12 -0.07,-0.25 -0.09,-0.29 -0.01,-0.04 -0.05,-0.16 -0.09,-0.27 -0.03,-0.11 -0.11,-0.29 -0.17,-0.41 -0.05,-0.11 -0.13,-0.31 -0.17,-0.44 -0.04,-0.12 -0.08,-0.25 -0.10,-0.27 -0.01,-0.02 -0.06,-0.13 -0.09,-0.24 -0.03,-0.11 -0.08,-0.25 -0.11,-0.31 -0.14,-0.32 -0.11,-0.67 0.07,-0.84 0.06,-0.06 0.21,-0.21 0.33,-0.34 0.22,-0.25 0.25,-0.34 0.15,-0.62 -0.06,-0.18 -0.14,-0.97 -0.15,-1.57 -0.00,-0.25 -0.02,-0.72 -0.03,-1.03 -0.02,-0.46 -0.01,-0.64 0.03,-0.96 0.08,-0.49 0.12,-0.59 0.37,-0.86 0.23,-0.24 0.24,-0.31 0.15,-0.68 -0.10,-0.42 0.07,-0.85 0.61,-1.44 0.31,-0.34 0.36,-0.45 0.46,-0.97 0.05,-0.28 0.11,-0.57 0.14,-0.64 0.01,-0.04 0.05,-0.14 0.09,-0.22 0.03,-0.08 0.14,-0.22 0.23,-0.32 0.21,-0.20 0.58,-0.47 0.67,-0.47 0.06,0 0.33,-0.28 0.33,-0.35 0,-0.02 0.03,-0.11 0.08,-0.20 0.05,-0.11 0.12,-0.17 0.20,-0.20 0.06,-0.02 0.14,-0.06 0.18,-0.09 0.03,-0.03 0.20,-0.12 0.38,-0.21 0.54,-0.26 0.53,-0.26 0.53,-0.47 -0.00,-0.10 -0.03,-0.27 -0.06,-0.38 -0.03,-0.11 -0.07,-0.27 -0.09,-0.35 -0.01,-0.08 -0.08,-0.32 -0.16,-0.53 -0.07,-0.21 -0.15,-0.49 -0.17,-0.63 -0.02,-0.13 -0.06,-0.31 -0.08,-0.40 -0.11,-0.53 -0.21,-1.18 -0.23,-1.57 -0.01,-0.24 -0.04,-0.56 -0.07,-0.72 -0.08,-0.43 -0.07,-0.58 0.03,-0.79 0.05,-0.10 0.10,-0.23 0.12,-0.28 0.01,-0.05 0.04,-0.11 0.05,-0.12 0.01,-0.01 0.03,-0.05 0.03,-0.08 0,-0.06 0.04,-0.17 0.18,-0.45 0.03,-0.07 0.09,-0.25 0.12,-0.38 0.03,-0.13 0.09,-0.34 0.14,-0.47 0.11,-0.28 0.20,-0.60 0.20,-0.68 0,-0.03 0.01,-0.07 0.03,-0.09 0.02,-0.01 0.03,-0.06 0.03,-0.11 0,-0.04 0.01,-0.09 0.03,-0.10 0.01,-0.01 0.04,-0.12 0.05,-0.25 0.01,-0.12 0.05,-0.32 0.09,-0.43 0.04,-0.11 0.07,-0.22 0.07,-0.25 0,-0.02 0.04,-0.15 0.08,-0.27 0.04,-0.12 0.10,-0.33 0.11,-0.45 0.03,-0.35 0.12,-0.44 0.59,-0.56 0.09,-0.02 0.23,-0.11 0.38,-0.26 0.13,-0.12 0.32,-0.29 0.42,-0.38 0.10,-0.08 0.37,-0.35 0.61,-0.58 0.41,-0.41 0.67,-0.62 0.93,-0.75 0.06,-0.03 0.13,-0.07 0.14,-0.08 0.01,-0.02 0.18,-0.13 0.38,-0.25 0.13,-0.08 0.33,-0.19 0.61,-0.34 0.15,-0.08 0.38,-0.22 0.52,-0.31 0.13,-0.08 0.25,-0.16 0.27,-0.16 0.01,0 0.19,-0.08 0.40,-0.18 0.36,-0.17 0.55,-0.26 0.84,-0.38 0.12,-0.05 0.41,-0.15 1.14,-0.39 0.16,-0.05 0.36,-0.13 0.42,-0.17 0.19,-0.11 0.57,-0.22 0.79,-0.22 0.10,0 0.26,-0.02 0.33,-0.05 0.07,-0.03 0.28,-0.06 0.48,-0.07 0.19,-0.00 0.44,-0.03 0.55,-0.05 0.11,-0.01 0.28,-0.03 0.39,-0.03 0.10,-0.00 0.20,-0.02 0.22,-0.04 0.02,-0.02 0.33,-0.04 0.86,-0.04 0.48,-0.00 0.85,-0.02 0.90,-0.04 0.13,-0.07 0.45,-0.08 0.54,-0.01 0.18,0.13 0.53,0.26 0.73,0.26 0.19,7.85e-4 0.58,0.10 0.77,0.20 0.09,0.04 0.23,0.11 0.31,0.15 0.29,0.12 0.48,0.22 0.61,0.30 0.18,0.12 0.72,0.70 0.83,0.89 0.05,0.09 0.16,0.26 0.25,0.39 0.08,0.12 0.16,0.23 0.16,0.25 0,0.01 0.03,0.08 0.08,0.16 0.18,0.28 0.54,1.02 0.56,1.15 0.01,0.07 0.04,0.15 0.06,0.18 0.02,0.02 0.04,0.16 0.05,0.29 l 0.01,0.25 -0.13,0.08 c -0.07,0.04 -0.15,0.08 -0.17,0.08 -0.02,0 -0.10,0.05 -0.18,0.12 -0.07,0.07 -0.15,0.12 -0.17,0.12 -0.04,0 -0.18,-0.18 -0.18,-0.24 0,-0.02 -0.01,-0.08 -0.03,-0.11 -0.01,-0.03 -0.05,-0.13 -0.07,-0.23 -0.05,-0.22 -0.34,-0.94 -0.48,-1.23 -0.01,-0.03 -0.03,-0.08 -0.03,-0.11 0,-0.02 -0.02,-0.07 -0.05,-0.09 C 31.87,4.21 31.81,4.13 31.78,4.06 31.67,3.82 31.38,3.44 31.09,3.15 30.87,2.92 30.77,2.85 30.60,2.79 30.11,2.61 29.88,2.78 30.20,3.08 c 0.15,0.14 0.21,0.28 0.11,0.27 -0.03,-0.00 -0.09,-0.01 -0.14,-0.01 -0.08,-0.01 -0.09,-7.85e-4 -0.10,0.16 -0.01,0.16 -0.01,0.17 -0.09,0.15 C 29.87,3.62 29.66,3.48 29.23,3.14 28.81,2.82 28.67,2.78 28.33,2.89 c -0.44,0.14 -0.50,0.17 -0.50,0.27 0,0.05 0.01,0.10 0.03,0.11 0.05,0.03 0.04,0.15 -0.01,0.20 -0.05,0.04 -0.25,-0.00 -0.45,-0.10 -0.18,-0.09 -0.30,-0.10 -0.53,-0.06 -0.31,0.06 -0.55,0.15 -0.84,0.31 -0.03,0.01 -0.08,0.04 -0.12,0.06 -0.08,0.03 -0.22,0.18 -0.32,0.33 -0.08,0.12 -0.07,0.39 0.01,0.52 0.09,0.13 0.06,0.25 -0.06,0.25 -0.10,0 -0.31,0.09 -0.31,0.14 0,0.05 -0.23,0.17 -0.39,0.20 -0.08,0.01 -0.22,0.05 -0.32,0.09 -0.14,0.06 -0.17,0.08 -0.17,0.18 0,0.08 0.02,0.12 0.10,0.17 0.09,0.05 0.39,0.27 1.10,0.80 0.12,0.09 0.36,0.30 0.53,0.47 0.23,0.23 0.29,0.30 0.24,0.31 -0.03,0.00 -0.14,-0.04 -0.24,-0.12 -0.09,-0.07 -0.23,-0.18 -0.30,-0.23 -0.07,-0.04 -0.27,-0.19 -0.45,-0.32 -0.17,-0.12 -0.33,-0.23 -0.34,-0.23 -0.01,0 -0.08,-0.04 -0.16,-0.11 C 24.72,6.13 24.57,6.02 24.46,5.95 24.35,5.87 24.17,5.75 24.08,5.69 23.88,5.55 23.64,5.52 23.51,5.62 c -0.03,0.02 -0.10,0.05 -0.15,0.05 -0.04,6.28e-4 -0.21,0.08 -0.38,0.18 -0.16,0.10 -0.33,0.20 -0.36,0.21 -0.03,0.01 -0.05,0.06 -0.05,0.11 0,0.07 0.07,0.12 0.58,0.38 0.49,0.25 0.88,0.49 1.50,0.92 0.06,0.04 0.15,0.13 0.20,0.20 0.08,0.11 0.08,0.12 0.02,0.24 -0.08,0.16 -0.47,0.38 -0.75,0.44 -0.22,0.04 -0.22,0.04 -0.48,-0.09 C 23.38,8.17 23.20,8.05 22.68,7.66 22.59,7.59 22.45,7.51 22.38,7.47 22.30,7.44 22.18,7.35 22.09,7.28 21.93,7.15 21.67,7.01 21.46,6.97 c -0.15,-0.03 -0.29,0.01 -0.33,0.12 -0.01,0.04 -0.08,0.13 -0.14,0.19 -0.08,0.07 -0.11,0.13 -0.10,0.20 0.01,0.10 0.02,0.11 0.36,0.26 0.42,0.19 0.57,0.24 0.74,0.29 0.21,0.06 0.67,0.25 0.77,0.32 0.11,0.08 0.09,0.14 -0.09,0.25 -0.16,0.09 -0.20,0.10 -0.54,0.09 -0.20,-0.00 -0.41,-0.02 -0.46,-0.03 -0.24,-0.08 -1.05,-0.22 -1.30,-0.22 -0.05,1.57e-4 -0.18,-0.01 -0.27,-0.04 -0.51,-0.11 -0.64,-0.14 -0.90,-0.16 -0.15,-0.01 -0.36,-0.03 -0.45,-0.06 -0.32,-0.08 -0.57,0.05 -0.63,0.34 -0.01,0.09 -0.06,0.16 -0.13,0.21 -0.09,0.06 -0.10,0.09 -0.08,0.21 0.05,0.33 0.05,0.34 -0.16,0.47 -0.11,0.06 -0.21,0.12 -0.23,0.13 -0.02,0.00 -0.02,0.13 -0.00,0.33 0.02,0.29 0.03,0.33 0.13,0.42 0.06,0.06 0.11,0.16 0.13,0.24 0.01,0.12 0.00,0.15 -0.10,0.26 -0.06,0.07 -0.13,0.12 -0.15,0.12 -0.03,0 -0.29,0.19 -0.31,0.23 -0.00,0.01 -0.03,0.02 -0.05,0.02 -0.02,1.57e-4 -0.12,0.07 -0.21,0.16 -0.12,0.11 -0.16,0.18 -0.15,0.22 0.03,0.08 0.47,0.27 0.62,0.28 0.06,1.57e-4 0.21,-0.03 0.33,-0.07 0.12,-0.03 0.29,-0.09 0.38,-0.12 0.09,-0.02 0.26,-0.09 0.38,-0.13 0.12,-0.04 0.40,-0.13 0.63,-0.20 0.43,-0.12 0.42,-0.12 0.54,-0.42 0.14,-0.36 0.17,-0.51 0.13,-0.59 -0.05,-0.10 -0.12,-0.09 -0.38,0.03 -0.36,0.18 -0.74,0.14 -0.92,-0.09 -0.05,-0.07 -0.05,-0.10 -0.02,-0.14 0.02,-0.02 0.06,-0.05 0.09,-0.05 0.06,0 0.19,-0.13 0.19,-0.20 0,-0.03 -0.03,-0.08 -0.08,-0.12 -0.16,-0.13 -0.32,-0.31 -0.32,-0.37 0,-0.14 0.70,-0.31 1.16,-0.27 0.14,0.01 0.20,0.04 0.30,0.14 0.17,0.18 0.16,0.28 -0.03,0.37 -0.19,0.08 -0.29,0.19 -0.28,0.30 0.01,0.10 0.32,0.20 0.43,0.14 0.07,-0.03 0.33,-0.39 0.33,-0.45 0,-0.05 0.30,-0.39 0.35,-0.39 0.07,0 0.34,0.25 0.47,0.46 0.21,0.34 0.27,0.50 0.23,0.64 -0.02,0.06 -0.03,0.18 -0.03,0.25 -4.71e-4,0.07 -0.00,0.17 -0.00,0.22 -6.29e-4,0.05 0.00,0.21 0.02,0.35 0.01,0.20 0.01,0.28 -0.03,0.35 -0.03,0.04 -0.10,0.23 -0.16,0.41 -0.10,0.30 -0.10,0.33 -0.05,0.43 0.03,0.05 0.08,0.10 0.12,0.10 0.03,0 0.10,0.03 0.14,0.08 0.08,0.09 0.07,0.20 -0.03,0.36 -0.06,0.09 -0.17,0.43 -0.20,0.65 -0.01,0.10 0.00,0.14 0.15,0.30 0.16,0.16 0.17,0.19 0.16,0.34 -0.00,0.12 0.00,0.17 0.08,0.24 0.09,0.08 0.14,0.21 0.18,0.45 0.02,0.17 0.05,0.18 0.34,0.21 0.22,0.02 0.24,0.03 0.42,0.22 0.10,0.10 0.24,0.23 0.31,0.27 0.07,0.04 0.13,0.10 0.13,0.13 0.00,0.03 -0.08,0.16 -0.21,0.30 -0.27,0.29 -0.48,0.80 -0.54,1.28 l -0.02,0.19 h 0.10 c 0.08,0 0.13,-0.03 0.19,-0.12 0.04,-0.06 0.12,-0.14 0.16,-0.17 0.04,-0.03 0.13,-0.11 0.21,-0.18 0.09,-0.08 0.25,-0.16 0.49,-0.24 0.19,-0.06 0.37,-0.13 0.39,-0.16 0.02,-0.02 0.06,-0.04 0.09,-0.04 0.02,0 0.11,-0.03 0.19,-0.07 0.07,-0.04 0.21,-0.08 0.30,-0.09 0.08,-0.01 0.18,-0.04 0.21,-0.06 0.03,-0.02 0.29,-0.04 0.63,-0.05 0.46,-0.01 0.59,-0.03 0.65,-0.07 0.08,-0.07 0.64,-0.21 0.91,-0.23 0.10,-0.00 0.28,-0.03 0.40,-0.05 0.39,-0.07 0.72,0.04 1.06,0.35 0.23,0.21 0.27,0.31 0.19,0.44 -0.08,0.12 -0.18,0.21 -0.32,0.26 -0.06,0.02 -0.13,0.06 -0.16,0.08 -0.06,0.05 -0.08,0.05 -0.83,0.18 -0.30,0.05 -0.62,0.10 -0.70,0.12 -0.08,0.01 -0.36,0.05 -0.63,0.07 -0.26,0.02 -0.59,0.06 -0.73,0.08 -0.18,0.03 -0.30,0.03 -0.44,0.00 -0.28,-0.05 -0.59,-0.03 -1.27,0.12 -0.04,0.01 -0.20,0.13 -0.36,0.28 l -0.27,0.26 v 0.21 c 0,0.26 0.04,0.36 0.29,0.59 0.20,0.19 0.23,0.30 0.12,0.51 -0.08,0.15 -0.04,0.49 0.05,0.59 0.07,0.07 0.07,0.07 0.15,0.00 0.06,-0.05 0.07,-0.09 0.05,-0.20 -0.01,-0.11 -0.00,-0.15 0.08,-0.26 0.05,-0.06 0.15,-0.21 0.21,-0.32 0.05,-0.10 0.15,-0.23 0.21,-0.28 0.09,-0.08 0.11,-0.08 0.18,-0.03 0.08,0.05 0.08,0.12 0.03,0.52 -0.01,0.15 -0.00,0.20 0.05,0.28 0.11,0.14 0.21,0.12 0.29,-0.08 0.08,-0.22 0.46,-0.66 0.75,-0.86 0.24,-0.16 0.65,-0.36 0.76,-0.36 0.03,0 0.08,-0.01 0.09,-0.03 0.06,-0.05 0.82,-0.16 1.04,-0.14 0.44,0.03 0.84,0.18 1.08,0.41 0.07,0.06 0.19,0.14 0.26,0.16 0.07,0.02 0.14,0.06 0.16,0.08 0.03,0.05 -0.15,0.21 -0.26,0.21 -0.10,0 -0.27,-0.14 -0.27,-0.23 0,-0.13 -0.53,-0.31 -0.94,-0.31 -0.29,0 -0.35,0.03 -0.35,0.20 -7.85e-4,0.14 -0.09,0.56 -0.15,0.68 -0.05,0.11 -0.45,0.30 -0.63,0.30 -0.20,0 -0.43,-0.12 -0.60,-0.33 -0.08,-0.10 -0.18,-0.18 -0.21,-0.18 -0.12,0 -0.41,0.25 -0.51,0.46 -0.02,0.06 -0.10,0.16 -0.16,0.22 -0.08,0.08 -0.11,0.14 -0.11,0.25 0,0.16 -0.05,0.28 -0.12,0.28 -0.02,0 -0.13,0.09 -0.25,0.21 -0.11,0.11 -0.26,0.23 -0.34,0.26 -0.29,0.10 -0.61,0.27 -0.61,0.32 0,0.08 0.05,0.09 0.35,0.05 0.28,-0.03 0.29,-0.04 0.43,-0.20 0.09,-0.10 0.17,-0.16 0.22,-0.16 0.14,0 0.13,0.05 -0.01,0.23 -0.19,0.22 -0.21,0.35 -0.11,0.54 0.05,0.10 0.07,0.18 0.05,0.27 -0.01,0.06 -0.00,0.16 0.01,0.23 0.04,0.14 -0.00,0.28 -0.20,0.52 -0.06,0.08 -0.16,0.21 -0.21,0.29 -0.04,0.07 -0.10,0.15 -0.12,0.18 -0.02,0.02 -0.06,0.09 -0.08,0.15 -0.04,0.10 -0.03,0.12 0.05,0.27 0.13,0.19 0.94,1.00 1.14,1.13 0.22,0.14 0.60,0.44 0.81,0.63 0.23,0.21 0.31,0.25 0.46,0.24 0.12,-0.00 0.33,0.08 0.38,0.15 0.04,0.06 0.42,0.29 0.49,0.29 0.03,-7.85e-4 0.09,-0.02 0.14,-0.04 0.08,-0.04 0.52,-0.55 0.69,-0.80 0.06,-0.08 0.18,-0.23 0.26,-0.33 0.08,-0.09 0.21,-0.29 0.28,-0.43 0.15,-0.29 0.18,-0.33 0.26,-0.26 0.07,0.06 0.06,0.12 -0.03,0.35 -0.05,0.11 -0.09,0.25 -0.09,0.32 -6.29e-4,0.06 -0.04,0.22 -0.08,0.36 -0.04,0.13 -0.11,0.32 -0.15,0.42 -0.03,0.10 -0.10,0.27 -0.15,0.38 -0.04,0.10 -0.08,0.21 -0.08,0.23 0,0.02 -0.01,0.06 -0.03,0.10 -0.01,0.03 -0.06,0.16 -0.09,0.28 -0.03,0.12 -0.08,0.23 -0.09,0.25 -0.01,0.01 -0.03,0.06 -0.03,0.09 0,0.10 -0.10,0.16 -0.34,0.18 -0.21,0.02 -0.65,0.15 -0.75,0.22 -0.02,0.01 -0.04,0.07 -0.04,0.12 0,0.09 0.26,0.67 0.38,0.84 0.04,0.06 0.15,0.26 0.24,0.44 0.26,0.55 0.31,0.65 0.46,0.92 0.07,0.14 0.16,0.30 0.19,0.37 0.03,0.06 0.06,0.11 0.08,0.12 0.06,0.04 0.15,0.27 0.13,0.35 -0.01,0.07 -0.04,0.08 -0.14,0.08 -0.06,-7.85e-4 -0.15,-0.02 -0.20,-0.04 -0.09,-0.05 -0.31,-0.33 -0.43,-0.54 -0.10,-0.18 -0.51,-0.90 -0.63,-1.10 -0.18,-0.31 -0.62,-1.16 -0.81,-1.56 -0.03,-0.07 -0.10,-0.16 -0.15,-0.20 -0.08,-0.05 -0.09,-0.05 -0.18,0.01 -0.05,0.04 -0.10,0.11 -0.11,0.18 -0.01,0.16 0.06,0.49 0.18,0.71 0.05,0.11 0.10,0.23 0.10,0.27 6.29e-4,0.04 0.06,0.18 0.13,0.31 0.16,0.29 0.36,0.66 0.48,0.89 0.04,0.09 0.12,0.22 0.17,0.27 0.09,0.11 0.17,0.24 0.26,0.45 0.03,0.07 0.13,0.21 0.22,0.31 0.09,0.10 0.24,0.27 0.33,0.39 0.19,0.24 0.52,0.45 0.65,0.41 0.10,-0.03 0.35,-0.26 0.61,-0.59 0.25,-0.31 0.35,-0.48 0.41,-0.68 0.06,-0.24 0.29,-0.46 0.80,-0.75 0.12,-0.07 0.25,-0.16 0.29,-0.20 0.03,-0.04 0.10,-0.07 0.15,-0.07 0.04,0 0.13,-0.02 0.18,-0.05 0.28,-0.14 0.65,-0.29 0.84,-0.34 0.04,-0.01 0.12,-0.04 0.19,-0.07 0.08,-0.03 0.18,-0.04 0.29,-0.03 0.09,0.01 0.34,0.03 0.54,0.04 0.20,0.01 0.43,0.02 0.50,0.03 0.13,0.02 0.93,-0.09 1.16,-0.16 0.10,-0.03 0.43,-0.15 0.69,-0.25 0.05,-0.02 0.23,-0.12 0.38,-0.22 0.51,-0.32 0.67,-0.28 0.67,0.16 0,0.32 -0.07,0.49 -0.30,0.66 -0.26,0.19 -0.32,0.22 -0.80,0.40 -0.55,0.20 -0.56,0.25 -0.09,0.38 0.39,0.10 0.80,0.30 1.13,0.52 0.27,0.18 0.70,0.58 0.83,0.77 0.04,0.07 0.16,0.23 0.25,0.36 0.09,0.13 0.21,0.37 0.28,0.55 0.06,0.17 0.15,0.41 0.19,0.52 0.06,0.17 0.07,0.30 0.07,0.84 0.00,0.37 -0.01,0.65 -0.03,0.68 -0.02,0.02 -0.05,0.15 -0.08,0.28 -0.04,0.24 -0.16,0.62 -0.27,0.85 -0.03,0.06 -0.06,0.16 -0.08,0.21 -0.01,0.05 -0.12,0.25 -0.24,0.45 -0.11,0.19 -0.21,0.36 -0.21,0.38 0,0.01 -0.06,0.13 -0.14,0.26 -0.08,0.13 -0.14,0.26 -0.14,0.28 -0.00,0.09 -0.12,0.18 -0.55,0.43 -0.41,0.23 -0.80,0.46 -0.95,0.54 -0.03,0.01 -0.09,0.05 -0.14,0.08 -0.05,0.02 -0.17,0.09 -0.27,0.14 -0.10,0.05 -0.27,0.15 -0.38,0.22 -0.33,0.21 -0.92,0.24 -1.73,0.08 -0.47,-0.09 -0.70,-0.05 -1.30,0.23 -0.18,0.08 -0.23,0.09 -0.54,0.08 -0.35,-0.01 -0.45,0.01 -0.90,0.25 -0.03,0.02 -0.19,0.03 -0.34,0.02 -0.36,-0.01 -0.38,0.01 -0.29,0.38 0.03,0.14 0.07,0.41 0.10,0.58 0.04,0.39 0.04,1.27 0.00,1.42 -0.01,0.06 -0.05,0.20 -0.07,0.31 -0.07,0.33 -0.14,0.54 -0.29,0.90 -0.01,0.04 -0.04,0.11 -0.05,0.16 -0.03,0.11 -0.11,0.30 -0.39,0.87 -0.11,0.24 -0.21,0.46 -0.21,0.48 0,0.01 -0.04,0.09 -0.10,0.17 -0.05,0.07 -0.21,0.37 -0.35,0.65 -0.13,0.28 -0.28,0.53 -0.33,0.56 -0.10,0.07 -0.57,0.07 -0.60,0 -0.02,-0.07 0.26,-0.69 0.39,-0.85 0.10,-0.12 0.44,-0.74 0.44,-0.81 0,-0.05 0.18,-0.43 0.24,-0.50 0.11,-0.12 0.40,-0.75 0.52,-1.11 0.18,-0.58 0.31,-1.16 0.31,-1.48 0.00,-0.28 -0.07,-1.14 -0.10,-1.20 -0.02,-0.03 -0.04,-0.13 -0.05,-0.21 -0.02,-0.16 -0.08,-0.24 -0.55,-0.73 -0.18,-0.19 -0.40,-0.42 -0.48,-0.51 -0.17,-0.20 -0.31,-0.29 -0.55,-0.38 -0.10,-0.03 -0.23,-0.08 -0.29,-0.11 -0.06,-0.02 -0.20,-0.08 -0.31,-0.12 -0.11,-0.04 -0.23,-0.09 -0.26,-0.11 -0.03,-0.01 -0.19,-0.08 -0.35,-0.14 -0.15,-0.06 -0.33,-0.14 -0.40,-0.17 -0.06,-0.03 -0.17,-0.08 -0.25,-0.11 -0.07,-0.02 -0.21,-0.08 -0.29,-0.12 -0.08,-0.04 -0.25,-0.14 -0.38,-0.21 -0.55,-0.30 -0.56,-0.30 -1.19,-0.81 -0.60,-0.49 -0.87,-0.72 -1.15,-0.97 -0.35,-0.32 -0.38,-0.33 -0.45,-0.26 -0.08,0.08 0.02,0.26 0.31,0.50 0.37,0.32 0.64,0.56 0.64,0.59 0,0.01 0.06,0.13 0.13,0.26 0.27,0.48 0.37,0.69 0.40,0.85 0.01,0.08 0.04,0.21 0.06,0.29 0.04,0.15 -0.08,1.06 -0.19,1.33 -0.11,0.28 -0.21,0.56 -0.25,0.70 -0.05,0.19 -0.21,0.63 -0.24,0.65 -0.01,0.01 -0.02,0.05 -0.02,0.08 0,0.03 -0.04,0.16 -0.09,0.28 -0.05,0.11 -0.13,0.29 -0.18,0.39 -0.21,0.46 -0.53,1.41 -0.53,1.59 0,0.03 -0.03,0.12 -0.07,0.20 -0.04,0.07 -0.07,0.18 -0.07,0.24 0,0.05 -0.02,0.13 -0.06,0.19 -0.05,0.09 -0.11,0.26 -0.22,0.73 -0.02,0.10 -0.06,0.23 -0.08,0.29 -0.02,0.06 -0.04,0.20 -0.05,0.32 -0.01,0.20 -0.01,0.21 0.14,0.37 0.19,0.19 0.50,0.41 0.95,0.67 0.07,0.04 0.23,0.17 0.36,0.29 0.19,0.19 0.23,0.24 0.23,0.35 0,0.15 -0.08,0.24 -0.22,0.22 z m -1.89,-2.29 c 0.01,-0.03 0.08,-0.23 0.13,-0.43 0.05,-0.20 0.15,-0.48 0.20,-0.63 0.05,-0.14 0.10,-0.30 0.10,-0.35 7.5e-5,-0.05 0.03,-0.15 0.07,-0.22 0.03,-0.07 0.10,-0.23 0.14,-0.37 0.04,-0.13 0.11,-0.33 0.15,-0.44 0.08,-0.20 0.14,-0.41 0.38,-1.14 0.07,-0.23 0.22,-0.64 0.33,-0.90 0.31,-0.77 0.33,-0.87 0.18,-0.93 -0.04,-0.01 -0.18,0.10 -0.54,0.47 -0.54,0.56 -0.72,0.71 -0.91,0.75 -0.12,0.02 -0.24,0.10 -0.44,0.27 -0.11,0.10 -0.14,0.09 -0.19,-0.03 -0.05,-0.14 -0.14,-0.16 -0.47,-0.09 -0.23,0.05 -0.47,0.09 -0.77,0.13 -0.03,0.00 -0.11,-0.00 -0.19,-0.02 -0.10,-0.02 -0.13,-0.04 -0.13,-0.10 0,-0.10 0.25,-0.20 0.76,-0.26 0.98,-0.13 0.96,-0.12 1.44,-0.65 0.15,-0.17 0.38,-0.39 0.49,-0.49 0.11,-0.09 0.31,-0.28 0.45,-0.41 0.13,-0.12 0.26,-0.23 0.28,-0.23 0.03,0 0.09,-0.04 0.38,-0.29 0.12,-0.10 0.14,-0.14 0.14,-0.26 0,-0.38 -0.17,-0.73 -0.78,-1.61 C 20.91,35.42 20.76,35.21 20.68,35.10 20.54,34.90 20.21,34.35 20.09,34.12 c -0.03,-0.06 -0.10,-0.17 -0.15,-0.25 -0.05,-0.08 -0.15,-0.26 -0.22,-0.40 -0.07,-0.14 -0.16,-0.32 -0.20,-0.40 -0.07,-0.14 -0.20,-0.54 -0.25,-0.79 -0.05,-0.30 -0.16,-0.32 -0.52,-0.14 -0.21,0.10 -0.23,0.11 -0.29,0.05 -0.09,-0.09 -0.00,-0.19 0.30,-0.35 0.42,-0.21 0.51,-0.31 0.54,-0.61 0.03,-0.34 0.09,-0.39 0.38,-0.32 0.34,0.07 0.52,0.08 0.80,0.03 0.44,-0.07 0.56,-0.14 1.04,-0.67 0.29,-0.32 0.42,-0.39 0.46,-0.26 0.02,0.07 -0.02,0.16 -0.34,0.52 -0.38,0.43 -0.35,0.52 0.20,0.64 0.31,0.06 0.40,0.07 0.59,0.03 0.47,-0.08 0.62,-0.03 0.46,0.18 -0.04,0.05 -0.07,0.13 -0.07,0.16 0,0.03 0.16,0.25 0.36,0.49 0.20,0.24 0.39,0.48 0.42,0.54 0.06,0.13 0.45,0.49 0.52,0.49 0.02,0 0.06,-0.02 0.07,-0.05 0.02,-0.06 -0.04,-0.69 -0.11,-1.00 -0.02,-0.12 -0.05,-0.29 -0.05,-0.37 9.42e-4,-0.13 -0.08,-0.55 -0.21,-1.01 -0.11,-0.40 -0.35,-0.70 -1.05,-1.26 -0.69,-0.56 -0.90,-0.77 -0.94,-0.91 -0.01,-0.04 -0.01,-0.09 -0.00,-0.10 0.03,-0.03 0.14,0.01 0.27,0.12 0.06,0.05 0.22,0.19 0.36,0.30 0.13,0.11 0.30,0.25 0.37,0.32 0.14,0.13 0.27,0.15 0.27,0.05 0,-0.10 -0.09,-0.35 -0.26,-0.69 -0.20,-0.41 -0.41,-0.60 -1.29,-1.18 -0.22,-0.14 -0.43,-0.29 -0.47,-0.33 -0.08,-0.07 -0.17,-0.13 -0.35,-0.22 -0.06,-0.03 -0.16,-0.10 -0.24,-0.16 -0.14,-0.12 -0.63,-0.37 -0.73,-0.37 -0.11,0 -0.12,0.10 -0.01,0.28 0.09,0.15 0.09,0.30 0.01,0.30 -0.04,0 -0.22,-0.12 -0.39,-0.26 -0.14,-0.12 -0.25,-0.12 -0.63,-0.03 -0.69,0.17 -0.94,0.26 -1.36,0.44 -0.08,0.03 -0.18,0.07 -0.22,0.07 -0.03,0 -0.08,0.01 -0.10,0.03 -0.02,0.02 -0.14,0.06 -0.28,0.10 -0.13,0.03 -0.34,0.11 -0.46,0.16 -0.11,0.05 -0.28,0.10 -0.37,0.11 -0.09,0.01 -0.22,0.05 -0.29,0.08 -0.07,0.03 -0.25,0.09 -0.40,0.12 -0.15,0.03 -0.41,0.09 -0.57,0.13 -0.16,0.03 -0.36,0.07 -0.45,0.07 -0.13,-4.72e-4 -0.54,0.10 -0.73,0.18 -0.04,0.01 -0.14,0.05 -0.24,0.09 -0.19,0.07 -0.48,0.33 -0.48,0.44 0,0.04 0.04,0.13 0.10,0.21 0.08,0.12 0.10,0.19 0.14,0.66 0.04,0.51 0.14,1.10 0.25,1.43 0.02,0.09 0.07,0.23 0.09,0.31 0.07,0.26 0.12,0.29 0.37,0.28 0.29,-0.01 0.39,0.07 0.39,0.31 0,0.08 0.02,0.23 0.05,0.33 0.03,0.09 0.11,0.39 0.18,0.65 0.13,0.52 0.43,1.38 0.66,1.89 0.04,0.10 0.10,0.25 0.13,0.33 0.05,0.17 0.21,0.49 0.28,0.58 0.06,0.07 0.08,0.43 0.03,0.50 -0.02,0.03 -0.08,0.03 -0.18,0.02 -0.28,-0.04 -0.49,-0.22 -0.63,-0.54 -0.12,-0.29 -0.14,-0.32 -0.19,-0.34 -0.08,-0.02 -0.03,0.10 0.23,0.64 0.27,0.54 0.27,0.55 0.27,0.82 -0.00,0.27 -0.00,0.28 0.24,0.75 0.14,0.26 0.26,0.49 0.28,0.50 0.01,0.01 0.07,0.10 0.12,0.21 0.09,0.21 0.09,0.25 6.28e-4,0.74 -0.05,0.28 -0.19,0.60 -0.46,1.05 -0.28,0.48 -0.33,0.78 -0.15,0.95 0.14,0.13 1.43,0.96 1.78,1.14 0.09,0.04 0.47,0.29 0.75,0.47 0.08,0.05 0.33,0.20 0.56,0.33 0.22,0.13 0.56,0.35 0.74,0.50 0.38,0.31 0.72,0.53 0.84,0.53 0.04,0 0.09,-0.02 0.11,-0.06 z m -1.31,-1.67 c -0.01,-0.02 0.04,-0.15 0.12,-0.28 0.07,-0.13 0.15,-0.27 0.16,-0.31 0.01,-0.03 0.10,-0.18 0.21,-0.34 0.10,-0.15 0.20,-0.31 0.22,-0.37 0.07,-0.20 0.36,-0.21 0.34,-0.01 -0.01,0.10 -0.34,0.77 -0.48,0.97 -0.18,0.26 -0.51,0.46 -0.58,0.35 z m -0.71,-2.89 c -0.19,-0.21 -0.12,-0.37 0.18,-0.41 0.34,-0.04 0.60,-0.03 0.72,0.03 0.12,0.06 0.19,0.22 0.12,0.29 -0.03,0.03 -0.70,0.17 -0.87,0.17 -0.04,0 -0.11,-0.03 -0.15,-0.08 z m -0.77,-0.85 -0.25,-0.12 -0.27,-0.53 c -0.44,-0.85 -0.49,-1.03 -0.26,-1.03 0.15,0 0.31,0.14 0.48,0.44 0.20,0.34 0.31,0.47 0.50,0.56 0.17,0.08 0.22,0.16 0.30,0.50 0.07,0.33 -0.05,0.38 -0.50,0.18 z m -2.03,-6.18 c -0.25,-0.16 -0.35,-0.31 -0.41,-0.63 -0.07,-0.37 -0.23,-0.96 -0.28,-1.04 -0.02,-0.03 -0.04,-0.16 -0.05,-0.27 -0.00,-0.11 -0.02,-0.26 -0.03,-0.33 -0.05,-0.32 0.39,-0.35 0.54,-0.03 0.03,0.06 0.08,0.28 0.12,0.47 0.03,0.19 0.07,0.36 0.09,0.38 0.03,0.04 0.17,0.46 0.29,0.88 0.04,0.16 0.10,0.33 0.13,0.37 0.07,0.11 0.06,0.22 -0.02,0.26 -0.11,0.06 -0.20,0.04 -0.38,-0.07 z m 0.51,-3.34 c -0.05,-0.04 -0.06,-0.06 -0.03,-0.12 0.06,-0.09 0.27,-0.15 0.79,-0.21 0.25,-0.02 0.67,-0.08 0.93,-0.12 0.25,-0.04 0.53,-0.07 0.60,-0.07 0.07,-1.12e-4 0.20,-0.01 0.28,-0.03 0.20,-0.05 0.59,-0.10 1.19,-0.14 0.28,-0.01 0.67,-0.05 0.87,-0.07 0.49,-0.06 1.20,-0.03 1.28,0.04 0.03,0.03 0.05,0.08 0.04,0.11 -0.03,0.08 -0.35,0.17 -0.65,0.17 -0.30,-1.11e-4 -1.51,0.08 -2.09,0.15 -0.34,0.03 -0.44,0.05 -0.92,0.14 -0.10,0.01 -0.23,0.02 -0.29,0.01 -0.06,-0.01 -0.21,0.00 -0.33,0.03 -0.24,0.06 -0.69,0.11 -1.24,0.14 -0.28,0.01 -0.36,0.00 -0.42,-0.03 z M 28.69,38.90 c 0,-0.03 -0.01,-0.05 -0.03,-0.05 -0.02,0 -0.03,0.02 -0.03,0.05 0,0.03 0.01,0.05 0.03,0.05 0.02,0 0.03,-0.02 0.03,-0.05 z m -0.37,-0.17 c 0.08,-0.06 0.05,-0.23 -0.05,-0.32 -0.18,-0.14 -0.64,-0.07 -0.64,0.09 0,0.02 0.03,0.09 0.08,0.15 0.12,0.14 0.46,0.18 0.60,0.07 z m 3.92,-0.69 c 0.05,-0.08 -0.08,-0.14 -0.43,-0.16 -0.31,-0.02 -0.36,-0.01 -0.38,0.03 -0.03,0.08 -0.02,0.08 0.21,0.12 0.28,0.04 0.58,0.04 0.61,0.00 z m -3.07,-1.60 c 0.14,-0.05 0.25,-0.09 0.26,-0.09 0.00,0 0.02,-0.04 0.04,-0.10 0.03,-0.08 0.02,-0.14 -0.05,-0.37 -0.05,-0.15 -0.11,-0.29 -0.12,-0.31 -0.01,-0.02 -0.04,-0.07 -0.05,-0.12 -0.01,-0.05 -0.09,-0.18 -0.16,-0.29 -0.07,-0.11 -0.16,-0.24 -0.18,-0.30 -0.14,-0.28 -0.41,-0.62 -0.77,-0.99 -0.32,-0.32 -1.08,-0.85 -1.23,-0.85 -0.02,0 -0.07,-0.02 -0.09,-0.06 -0.03,-0.06 -0.04,-0.06 -0.10,0.01 -0.03,0.04 -0.10,0.09 -0.15,0.11 -0.69,0.32 -0.92,0.41 -0.96,0.41 -0.02,1.19e-4 -0.10,0.02 -0.16,0.05 -0.13,0.07 -0.40,0.14 -0.68,0.19 -0.26,0.04 -0.54,-0.03 -0.76,-0.23 -0.10,-0.09 -0.59,-0.69 -0.70,-0.85 -0.03,-0.06 -0.14,-0.21 -0.24,-0.33 -0.09,-0.12 -0.21,-0.29 -0.26,-0.39 -0.13,-0.23 -0.21,-0.30 -0.34,-0.28 -0.21,0.02 -0.28,0.52 -0.11,0.89 0.08,0.17 0.21,0.33 0.66,0.77 0.62,0.61 1.07,1.02 1.34,1.19 0.38,0.24 0.44,0.28 0.56,0.33 0.06,0.03 0.14,0.05 0.18,0.05 0.03,0 0.20,-0.14 0.36,-0.31 0.28,-0.29 0.51,-0.44 0.83,-0.57 0.52,-0.19 1.01,-0.05 1.52,0.43 0.14,0.14 0.28,0.25 0.30,0.25 0.01,0 0.08,0.11 0.16,0.26 0.07,0.14 0.17,0.32 0.23,0.40 0.06,0.08 0.11,0.18 0.11,0.24 0,0.05 0.03,0.20 0.06,0.32 0.03,0.11 0.08,0.27 0.09,0.34 0.02,0.12 0.11,0.25 0.16,0.25 0.01,0 0.14,-0.04 0.28,-0.09 z m 6.85,-1.74 c -0.00,-0.12 -0.02,-0.31 -0.04,-0.42 -0.02,-0.11 -0.06,-0.30 -0.08,-0.42 -0.02,-0.12 -0.05,-0.25 -0.06,-0.29 -0.03,-0.07 -0.29,-0.98 -0.40,-1.36 -0.04,-0.18 -0.04,-0.22 -0.00,-0.24 0.06,-0.03 0.39,-0.03 0.49,0.00 0.10,0.03 0.24,-0.02 0.24,-0.10 -4.72e-4,-0.21 -0.73,-0.96 -1.15,-1.18 -0.51,-0.27 -0.93,-0.47 -0.96,-0.46 -0.07,0.01 -0.44,-0.10 -0.52,-0.17 -0.14,-0.12 -0.55,-0.40 -0.74,-0.49 -0.28,-0.14 -1.07,-0.33 -1.22,-0.28 -0.02,0.00 -0.08,0.02 -0.14,0.04 -0.12,0.03 -0.56,0.19 -0.67,0.24 -0.08,0.04 -0.31,0.15 -0.60,0.28 -0.34,0.15 -0.42,0.22 -0.42,0.32 0,0.06 0.02,0.09 0.08,0.10 0.09,0.01 0.62,0.30 0.90,0.50 0.35,0.24 0.76,0.69 1.03,1.11 0.14,0.22 0.30,0.47 0.36,0.55 0.05,0.08 0.12,0.20 0.14,0.27 0.02,0.06 0.13,0.29 0.23,0.49 0.16,0.31 0.20,0.37 0.28,0.38 0.07,0.00 0.12,-0.02 0.21,-0.12 0.13,-0.15 0.13,-0.14 0.06,-0.43 -0.05,-0.22 -0.16,-0.43 -0.35,-0.67 -0.19,-0.24 -0.18,-0.39 0.02,-0.50 0.05,-0.02 0.17,-0.09 0.25,-0.15 0.23,-0.15 0.72,-0.39 0.89,-0.43 0.21,-0.05 0.25,-0.11 0.22,-0.33 -0.01,-0.10 -0.00,-0.19 0.01,-0.20 0.05,-0.03 0.23,0.07 0.33,0.20 0.05,0.06 0.13,0.17 0.19,0.23 0.05,0.06 0.10,0.12 0.10,0.14 0,0.01 0.04,0.10 0.10,0.19 0.05,0.09 0.12,0.24 0.15,0.32 0.02,0.08 0.11,0.27 0.19,0.42 0.13,0.27 0.37,0.95 0.37,1.08 0,0.03 0.03,0.16 0.07,0.27 0.03,0.11 0.10,0.43 0.14,0.69 0.09,0.55 0.12,0.65 0.21,0.64 0.05,-0.01 0.06,-0.05 0.06,-0.23 z m -6.36,-0.62 c 0.08,-0.16 0.06,-0.15 0.24,-0.15 0.18,-0.00 0.42,-0.14 0.51,-0.30 0.03,-0.05 0.09,-0.10 0.14,-0.11 0.12,-0.01 0.16,-0.05 0.39,-0.36 0.20,-0.27 0.29,-0.32 0.38,-0.21 0.08,0.10 0.37,0.27 0.45,0.27 0.10,0 0.17,-0.06 0.17,-0.16 -3.6e-5,-0.12 -0.30,-0.69 -0.47,-0.89 -0.04,-0.05 -0.08,-0.10 -0.08,-0.11 0,-0.02 -0.03,-0.06 -0.47,-0.50 -0.38,-0.39 -0.63,-0.59 -0.82,-0.67 -0.38,-0.17 -0.45,-0.19 -0.60,-0.19 -0.24,0 -0.38,0.06 -0.50,0.23 -0.23,0.33 -0.25,0.60 -0.08,0.82 0.10,0.13 0.09,0.23 -0.03,0.40 -0.19,0.26 -0.45,0.48 -0.72,0.58 -0.42,0.17 -0.43,0.25 -0.08,0.47 0.10,0.06 0.37,0.30 0.60,0.52 0.22,0.21 0.44,0.40 0.50,0.41 0.05,0.01 0.13,0.03 0.18,0.05 0.16,0.05 0.21,0.03 0.28,-0.08 z m -4.37,-0.92 c 0.05,-0.03 0.20,-0.08 0.32,-0.11 0.28,-0.08 0.57,-0.22 0.57,-0.28 -0.00,-0.07 -0.68,-0.58 -0.78,-0.58 -0.02,0 -0.12,-0.07 -0.22,-0.15 -0.42,-0.35 -0.72,-0.41 -0.72,-0.16 0,0.06 0.02,0.19 0.05,0.28 0.03,0.08 0.07,0.34 0.09,0.56 0.04,0.47 0.07,0.56 0.18,0.58 0.09,0.01 0.34,-0.04 0.49,-0.13 z M 12.23,29.89 c -0.05,-0.47 -0.03,-1.32 0.04,-1.49 0.03,-0.07 0.10,-0.18 0.16,-0.24 0.14,-0.14 0.75,-0.41 1.34,-0.58 0.64,-0.19 1.65,-0.51 2.44,-0.78 0.09,-0.03 0.36,-0.11 0.61,-0.18 0.24,-0.07 0.46,-0.14 0.48,-0.15 0.02,-0.01 0.12,-0.04 0.22,-0.07 0.30,-0.07 0.42,-0.15 0.53,-0.37 0.12,-0.25 0.22,-0.28 0.31,-0.09 0.03,0.07 0.08,0.14 0.11,0.15 0.03,0.01 0.18,-0.00 0.35,-0.03 0.16,-0.03 0.45,-0.05 0.63,-0.05 0.28,0 0.39,0.01 0.64,0.10 0.28,0.10 0.68,0.32 0.90,0.49 0.27,0.22 0.55,0.39 0.61,0.37 0.14,-0.05 -0.00,-0.37 -0.32,-0.70 -0.12,-0.12 -0.39,-0.43 -0.59,-0.69 -0.61,-0.77 -1.06,-1.24 -1.62,-1.71 -0.53,-0.45 -0.69,-0.45 -1.33,-0.02 -0.10,0.07 -0.25,0.16 -0.32,0.20 -0.07,0.03 -0.19,0.11 -0.27,0.17 -0.07,0.05 -0.16,0.10 -0.17,0.10 -0.01,0 -0.19,0.10 -0.40,0.24 -0.20,0.13 -0.38,0.24 -0.40,0.24 -0.01,0 -0.05,0.02 -0.07,0.05 -0.02,0.03 -0.11,0.09 -0.19,0.13 -0.08,0.04 -0.16,0.09 -0.19,0.11 -0.02,0.02 -0.13,0.10 -0.24,0.17 -0.10,0.07 -0.26,0.19 -0.34,0.28 -0.08,0.08 -0.26,0.24 -0.40,0.34 -0.14,0.10 -0.26,0.20 -0.27,0.21 -0.01,0.01 -0.08,0.06 -0.16,0.12 -0.08,0.05 -0.18,0.14 -0.22,0.18 -0.12,0.13 -0.54,0.46 -0.66,0.52 -0.06,0.03 -0.18,0.11 -0.26,0.17 -0.08,0.06 -0.20,0.15 -0.28,0.19 -0.07,0.04 -0.16,0.11 -0.20,0.15 -0.03,0.04 -0.18,0.15 -0.31,0.24 -0.36,0.24 -0.47,0.33 -0.69,0.53 -0.15,0.14 -0.19,0.20 -0.17,0.26 0.04,0.17 0.28,0.80 0.42,1.13 0.08,0.18 0.15,0.37 0.15,0.41 0,0.03 0.03,0.11 0.07,0.16 0.12,0.16 0.15,0.07 0.10,-0.33 z m 0.01,-2.79 c 0.10,-0.08 0.20,-0.14 0.22,-0.14 0.01,0 0.08,-0.05 0.15,-0.11 0.54,-0.46 1.10,-0.90 1.29,-1.02 0.34,-0.22 0.30,-0.39 -0.17,-0.68 -0.37,-0.22 -0.56,-0.39 -0.53,-0.48 0.03,-0.09 0.09,-0.07 0.31,0.08 0.24,0.17 0.58,0.33 0.79,0.36 0.28,0.03 0.46,-0.12 0.75,-0.67 0.17,-0.32 0.24,-0.42 0.31,-0.42 0.07,0 0.08,0.10 0.03,0.31 -0.08,0.32 -0.01,0.35 0.32,0.13 0.67,-0.44 1.20,-0.80 1.28,-0.87 0.11,-0.10 0.10,-0.21 -0.01,-0.29 -0.05,-0.03 -0.23,-0.18 -0.39,-0.33 -0.51,-0.47 -0.47,-0.45 -1.03,-0.44 -0.42,0.00 -0.76,0.04 -1.70,0.19 -0.14,0.02 -0.38,0.05 -0.53,0.07 -0.35,0.03 -1.22,0.21 -1.30,0.26 -0.03,0.02 -0.08,0.03 -0.10,0.03 -0.02,0 -0.11,0.05 -0.20,0.13 -0.19,0.15 -0.19,0.21 -0.06,0.53 0.09,0.23 0.09,0.26 0.11,1.05 0.02,1.59 0.05,2.23 0.10,2.41 0.02,0.08 0.17,0.04 0.37,-0.10 z m 9.14,-1.51 c 0.01,-0.01 -0.04,-0.22 -0.12,-0.45 -0.08,-0.23 -0.17,-0.48 -0.19,-0.56 -0.02,-0.08 -0.09,-0.24 -0.14,-0.35 -0.08,-0.19 -0.11,-0.22 -0.40,-0.39 -0.17,-0.10 -0.34,-0.19 -0.37,-0.19 -0.07,0 -0.13,0.10 -0.15,0.30 -0.01,0.14 -0.00,0.18 0.09,0.33 0.06,0.09 0.14,0.18 0.18,0.20 0.03,0.02 0.20,0.20 0.37,0.41 0.16,0.20 0.37,0.45 0.45,0.55 0.14,0.16 0.25,0.21 0.29,0.14 z m -7.55,-3.23 c 0.08,-0.02 0.16,-0.05 0.19,-0.07 0.06,-0.04 0.05,-0.21 -0.01,-0.32 -0.04,-0.06 -0.06,-0.18 -0.07,-0.42 -0.01,-0.34 -0.06,-0.46 -0.19,-0.46 -0.11,0 -0.42,0.40 -0.66,0.87 -0.12,0.23 -0.13,0.33 -0.04,0.43 0.05,0.06 0.09,0.06 0.36,0.04 0.16,-0.01 0.36,-0.04 0.44,-0.06 z m 3.97,0.03 c 0.07,-0.09 0.08,-0.38 0.02,-0.78 -0.03,-0.21 -0.05,-0.41 -0.04,-0.44 0.01,-0.02 0.07,-0.06 0.14,-0.07 0.06,-0.01 0.23,-0.07 0.38,-0.13 0.14,-0.05 0.31,-0.10 0.36,-0.10 0.05,-7.4e-5 0.19,-0.04 0.29,-0.10 0.10,-0.05 0.25,-0.11 0.32,-0.13 0.18,-0.03 0.25,-0.15 0.16,-0.29 -0.03,-0.05 -0.06,-0.12 -0.06,-0.16 0,-0.29 -0.61,-1.52 -0.99,-1.96 -0.33,-0.39 -0.38,-0.44 -1.01,-0.89 -0.07,-0.05 -0.21,-0.12 -0.31,-0.15 -0.36,-0.12 -0.68,-0.06 -1.20,0.20 -0.13,0.07 -0.31,0.15 -0.40,0.19 -0.40,0.15 -0.39,0.23 0.09,0.69 0.21,0.19 0.45,0.46 0.53,0.59 0.08,0.12 0.21,0.31 0.29,0.41 0.37,0.47 0.61,0.87 0.73,1.21 0.30,0.86 0.38,1.14 0.39,1.31 9.42e-4,0.11 0.11,0.55 0.15,0.62 0.01,0.02 0.04,0.04 0.05,0.04 0.01,0 0.04,-0.02 0.06,-0.04 z m -0.64,-2.74 c -0.04,-0.04 -0.12,-0.17 -0.17,-0.28 -0.12,-0.25 -0.43,-0.63 -0.83,-1.04 -0.53,-0.53 -0.53,-0.54 -0.16,-0.66 0.13,-0.04 0.29,-0.10 0.35,-0.15 0.23,-0.14 0.53,-0.06 0.96,0.25 0.10,0.08 0.23,0.19 0.28,0.25 0.05,0.05 0.20,0.23 0.34,0.39 0.25,0.29 0.46,0.66 0.41,0.73 -0.01,0.02 -0.08,0.06 -0.16,0.09 -0.07,0.03 -0.18,0.12 -0.25,0.20 -0.06,0.07 -0.15,0.14 -0.18,0.14 -0.03,1.49e-4 -0.11,0.03 -0.17,0.07 -0.14,0.09 -0.31,0.09 -0.41,-0.00 z m 5.30,1.48 c 0.32,-0.02 0.66,-0.13 1.01,-0.34 0.15,-0.08 0.31,-0.17 0.37,-0.18 0.11,-0.03 0.22,-0.12 0.22,-0.18 0,-0.09 -0.16,-0.09 -0.31,0.01 -0.08,0.05 -0.15,0.10 -0.16,0.12 -0.05,0.06 -0.29,0.18 -0.36,0.18 -0.09,0 -0.36,0.08 -0.67,0.22 -0.13,0.05 -0.28,0.10 -0.33,0.10 -0.11,0 -0.23,0.08 -0.19,0.14 0.02,0.03 0.04,0.03 0.10,-0.00 0.04,-0.02 0.19,-0.06 0.33,-0.07 z m -7.28,-1.14 c 0,-0.09 0.17,-0.19 0.49,-0.29 0.46,-0.14 0.51,-0.29 0.19,-0.61 -0.19,-0.19 -0.20,-0.20 -0.34,-0.18 -0.07,0.01 -0.29,0.09 -0.48,0.18 -0.19,0.09 -0.40,0.16 -0.47,0.16 -0.13,0 -0.19,0.07 -0.13,0.18 0.03,0.07 0.32,0.42 0.50,0.60 0.08,0.08 0.11,0.09 0.17,0.06 0.04,-0.02 0.07,-0.07 0.07,-0.11 z m -1.22,0.07 c 0.07,-0.02 0.18,-0.07 0.24,-0.12 0.08,-0.06 0.09,-0.10 0.07,-0.17 -0.01,-0.05 -0.04,-0.11 -0.07,-0.13 -0.02,-0.01 -0.11,-0.09 -0.20,-0.17 -0.14,-0.12 -0.18,-0.14 -0.39,-0.15 l -0.23,-0.01 -0.06,0.13 c -0.03,0.07 -0.06,0.15 -0.06,0.19 0,0.08 0.20,0.41 0.29,0.46 0.08,0.04 0.24,0.04 0.41,-0.00 z m 12.35,-0.49 c 0.09,-0.08 0.15,-0.30 0.11,-0.40 -0.04,-0.10 -0.13,-0.05 -0.17,0.09 -0.03,0.11 -0.06,0.16 -0.16,0.20 -0.18,0.07 -0.25,0.06 -0.36,-0.05 -0.05,-0.06 -0.12,-0.11 -0.17,-0.11 -0.19,0 0.00,0.39 0.21,0.41 0.17,0.01 0.44,-0.05 0.54,-0.13 z m -6.12,-0.71 c 0.12,-0.07 0.16,-0.15 0.10,-0.21 -0.03,-0.04 -0.34,-0.11 -0.68,-0.15 -0.08,-0.00 -0.16,-0.02 -0.19,-0.03 -0.07,-0.02 -0.15,0.02 -0.15,0.09 0,0.04 0.05,0.08 0.13,0.12 0.07,0.03 0.20,0.09 0.28,0.15 0.17,0.10 0.35,0.12 0.50,0.03 z m -0.35,-0.90 c 0.06,-0.06 0.02,-0.17 -0.08,-0.21 -0.06,-0.02 -0.17,-0.00 -0.39,0.04 -0.44,0.11 -0.47,0.17 -0.12,0.22 0.27,0.03 0.54,0.01 0.60,-0.04 z m -0.95,-0.03 c -0.00,-0.06 -0.32,-0.33 -0.36,-0.30 -0.06,0.03 -0.04,0.08 0.07,0.22 0.11,0.12 0.29,0.18 0.29,0.08 z m 0.49,-0.52 c 0.17,-0.06 0.22,-0.13 0.12,-0.17 -0.03,-0.01 -0.09,-0.00 -0.15,0.01 -0.05,0.02 -0.22,0.02 -0.38,0.01 -0.27,-0.02 -0.29,-0.01 -0.33,0.05 -0.03,0.06 -0.03,0.09 0.00,0.13 0.06,0.07 0.47,0.04 0.74,-0.04 z m -1.73,-0.70 c 0.03,-0.10 0.02,-0.14 -0.09,-0.27 -0.06,-0.07 -0.14,-0.17 -0.17,-0.22 -0.19,-0.29 -0.39,-0.52 -0.46,-0.53 -0.14,-0.02 -0.56,-0.05 -0.60,-0.03 -0.06,0.02 -0.05,0.11 0.04,0.39 0.16,0.44 0.19,0.48 0.44,0.50 0.21,0.02 0.43,0.10 0.47,0.18 0.03,0.06 0.34,0.04 0.36,-0.02 z m 1.18,-3.18 c 0.36,-0.16 0.43,-0.23 0.35,-0.33 -0.03,-0.04 -0.17,-0.05 -0.63,-0.04 -0.57,0.00 -0.59,0.00 -0.66,0.09 -0.08,0.10 -0.05,0.18 0.12,0.34 0.17,0.15 0.37,0.14 0.81,-0.06 z m -0.01,-1.17 c 0.21,-0.06 0.41,-0.14 0.45,-0.18 0.08,-0.08 0.09,-0.37 0.02,-0.43 -0.05,-0.04 -0.63,0.13 -1.03,0.31 -0.21,0.09 -0.25,0.12 -0.25,0.20 0,0.07 0.03,0.10 0.15,0.16 0.08,0.04 0.18,0.07 0.21,0.06 0.03,-0.00 0.22,-0.06 0.44,-0.13 z m 18.45,20.14 c -0.05,-0.05 -0.01,-0.23 0.10,-0.43 0.07,-0.12 0.17,-0.32 0.21,-0.44 0.14,-0.37 0.31,-0.84 0.35,-1.00 0.02,-0.08 0.06,-0.21 0.09,-0.29 0.02,-0.08 0.06,-0.24 0.08,-0.37 0.04,-0.22 0.13,-0.55 0.19,-0.72 0.01,-0.05 0.08,-0.12 0.15,-0.16 0.08,-0.05 0.12,-0.11 0.15,-0.21 0.03,-0.14 -0.02,-1.67 -0.08,-2.30 -0.01,-0.18 -0.05,-0.50 -0.07,-0.71 -0.02,-0.20 -0.04,-0.39 -0.06,-0.42 -0.01,-0.02 -0.03,-0.15 -0.05,-0.30 -0.05,-0.48 -0.14,-1.14 -0.19,-1.41 -0.05,-0.32 -0.05,-0.86 0.01,-1.00 0.06,-0.12 0.16,-0.15 0.25,-0.06 0.07,0.07 0.09,0.23 0.03,0.47 -0.03,0.14 -0.03,0.17 0.11,1.02 0.08,0.47 0.11,0.75 0.18,1.57 0.02,0.26 0.05,0.56 0.08,0.66 0.02,0.11 0.03,0.32 0.01,0.56 -0.02,0.33 -0.01,0.38 0.03,0.40 0.10,0.03 0.12,-0.03 0.18,-0.46 0.15,-1.16 0.16,-1.42 0.13,-2.06 -0.06,-1.07 -0.11,-1.65 -0.14,-1.92 -0.02,-0.14 -0.04,-0.32 -0.05,-0.40 -0.00,-0.08 -0.04,-0.30 -0.09,-0.50 -0.05,-0.26 -0.07,-0.49 -0.08,-0.90 -0.00,-0.30 -0.01,-0.80 -0.03,-1.11 -0.01,-0.30 -0.04,-0.78 -0.05,-1.05 -0.00,-0.27 -0.04,-0.58 -0.07,-0.68 -0.02,-0.10 -0.08,-0.27 -0.11,-0.38 -0.03,-0.11 -0.07,-0.27 -0.09,-0.35 -0.01,-0.08 -0.05,-0.18 -0.06,-0.22 -0.01,-0.04 -0.07,-0.19 -0.13,-0.35 -0.05,-0.15 -0.11,-0.31 -0.13,-0.35 -0.01,-0.04 -0.05,-0.16 -0.09,-0.27 -0.03,-0.11 -0.11,-0.38 -0.18,-0.61 -0.07,-0.22 -0.13,-0.49 -0.15,-0.59 -0.03,-0.26 -0.07,-0.42 -0.37,-1.37 -0.03,-0.10 -0.06,-0.23 -0.07,-0.29 -0.01,-0.06 -0.03,-0.12 -0.04,-0.14 -0.01,-0.02 -0.05,-0.13 -0.09,-0.25 -0.03,-0.12 -0.07,-0.26 -0.09,-0.32 -0.01,-0.05 -0.08,-0.18 -0.16,-0.28 -0.07,-0.10 -0.14,-0.22 -0.15,-0.27 -0.01,-0.04 -0.06,-0.17 -0.10,-0.28 -0.04,-0.11 -0.11,-0.30 -0.14,-0.42 -0.03,-0.12 -0.11,-0.43 -0.18,-0.68 -0.06,-0.25 -0.13,-0.54 -0.14,-0.63 -0.01,-0.09 -0.05,-0.27 -0.09,-0.38 -0.03,-0.11 -0.09,-0.32 -0.13,-0.45 -0.11,-0.41 -0.16,-0.56 -0.23,-0.66 -0.03,-0.05 -0.08,-0.17 -0.11,-0.26 -0.02,-0.09 -0.07,-0.20 -0.11,-0.25 -0.03,-0.04 -0.07,-0.10 -0.07,-0.12 0,-0.01 -0.05,-0.15 -0.12,-0.29 C 35.16,7.41 35.10,7.24 35.10,7.19 v -0.10 l 0.13,0.12 c 0.07,0.07 0.15,0.12 0.16,0.12 0.01,1.1e-4 0.07,0.08 0.12,0.18 0.05,0.10 0.10,0.17 0.12,0.16 0.01,-0.01 0.02,-0.12 0.02,-0.23 0.00,-0.15 0.02,-0.24 0.07,-0.32 0.04,-0.06 0.09,-0.17 0.12,-0.26 0.04,-0.13 0.03,-0.17 -0.03,-0.33 -0.04,-0.09 -0.13,-0.31 -0.19,-0.47 -0.15,-0.41 -0.25,-0.48 -0.34,-0.25 -0.26,0.61 -0.32,0.87 -0.24,1.05 0.06,0.16 0.04,0.21 -0.05,0.12 -0.03,-0.03 -0.10,-0.06 -0.16,-0.06 -0.11,0 -0.37,-0.21 -0.43,-0.36 -0.03,-0.09 -0.02,-0.16 0.10,-0.56 0.08,-0.26 0.13,-0.47 0.11,-0.48 -0.04,-0.04 -0.09,0.02 -0.15,0.19 -0.02,0.07 -0.06,0.17 -0.08,0.23 -0.04,0.12 -0.17,0.14 -0.17,0.01 -1.57e-4,-0.04 0.06,-0.22 0.13,-0.40 0.13,-0.32 0.19,-0.38 0.30,-0.28 0.07,0.07 0.15,0.00 0.15,-0.12 0,-0.17 -0.22,-0.37 -0.59,-0.52 -0.03,-0.01 -0.11,-0.05 -0.18,-0.09 C 33.96,4.48 33.83,4.43 33.75,4.42 33.60,4.39 33.59,4.38 33.45,4.09 33.37,3.93 33.27,3.75 33.24,3.70 33.13,3.54 33.08,3.31 33.13,3.25 c 0.04,-0.04 0.06,-0.04 0.19,0.01 0.08,0.04 0.15,0.09 0.16,0.12 0.01,0.02 0.10,0.11 0.21,0.18 0.96,0.66 2.10,1.67 2.25,1.98 0.03,0.07 0.09,0.20 0.13,0.29 0.04,0.09 0.16,0.37 0.28,0.63 0.11,0.25 0.20,0.47 0.20,0.49 0,0.01 0.04,0.12 0.09,0.23 0.16,0.37 0.19,0.43 0.27,0.64 0.04,0.11 0.09,0.23 0.11,0.27 0.01,0.04 0.04,0.10 0.05,0.14 0.02,0.08 0.18,0.85 0.26,1.29 0.02,0.16 0.07,0.38 0.09,0.50 0.02,0.11 0.04,0.39 0.05,0.63 0.01,0.63 0.12,1.50 0.22,1.81 0.03,0.11 0.07,0.32 0.08,0.46 0.02,0.33 0.09,0.42 0.33,0.42 0.25,0 0.38,0.10 0.50,0.38 0.08,0.21 0.09,0.29 0.13,1.02 0.01,0.43 0.05,0.91 0.07,1.06 0.02,0.19 0.02,0.36 -0.00,0.59 -0.03,0.27 -0.03,0.38 0.01,0.80 0.03,0.26 0.10,0.65 0.15,0.86 0.11,0.46 0.23,1.46 0.30,2.60 0.02,0.47 0.06,1.02 0.08,1.20 0.01,0.18 0.05,0.67 0.07,1.09 0.02,0.41 0.05,0.80 0.07,0.87 0.03,0.12 0.05,1.61 0.02,2.29 -0.01,0.44 -0.16,1.27 -0.30,1.64 -0.03,0.09 -0.05,0.20 -0.05,0.24 -4.71e-4,0.04 -0.05,0.25 -0.13,0.48 -0.07,0.22 -0.12,0.44 -0.12,0.48 0,0.11 -0.10,0.57 -0.14,0.62 -0.04,0.05 -0.26,0.70 -0.26,0.77 0,0.03 -0.04,0.15 -0.09,0.26 -0.05,0.11 -0.09,0.22 -0.09,0.24 0,0.04 -0.16,0.31 -0.28,0.46 -0.10,0.12 -0.26,0.46 -0.26,0.55 0,0.06 -0.43,0.46 -0.50,0.46 -0.02,0 -0.05,-0.01 -0.06,-0.02 z m 1.28,-16.11 c -0.00,-0.04 -0.01,-0.24 -0.02,-0.46 -0.04,-0.80 -0.13,-1.80 -0.17,-1.90 -0.05,-0.15 -0.13,-0.20 -0.27,-0.20 -0.10,0 -0.13,0.01 -0.15,0.09 -0.03,0.14 0.05,0.99 0.13,1.31 0.03,0.15 0.07,0.35 0.07,0.44 4.72e-4,0.09 0.02,0.20 0.04,0.25 0.02,0.05 0.07,0.17 0.11,0.27 0.03,0.10 0.08,0.20 0.10,0.23 0.05,0.07 0.15,0.03 0.14,-0.04 z m -8.32,12.70 c -0.11,-0.06 -0.13,-0.13 -0.05,-0.16 0.07,-0.03 0.22,0.06 0.22,0.13 0,0.09 -0.05,0.10 -0.17,0.02 z m 0.49,-1.01 c -0.05,-0.01 -0.19,-0.03 -0.32,-0.03 -0.35,-0.00 -0.53,-0.10 -0.33,-0.17 0.04,-0.01 0.33,-0.02 0.64,-0.01 0.53,0.01 0.81,-0.02 0.91,-0.11 0.01,-0.01 0.08,-0.03 0.14,-0.03 0.06,1.12e-4 0.18,-0.02 0.27,-0.05 0.24,-0.07 0.55,-0.16 0.70,-0.18 0.07,-0.01 0.17,-0.04 0.22,-0.07 0.05,-0.02 0.22,-0.08 0.38,-0.13 0.30,-0.08 0.97,-0.31 1.11,-0.38 0.09,-0.04 0.17,-0.01 0.24,0.09 0.02,0.04 0.02,0.09 -0.02,0.19 -0.06,0.14 -0.21,0.24 -0.45,0.33 -0.20,0.07 -0.64,0.20 -0.77,0.24 -0.06,0.01 -0.28,0.07 -0.50,0.14 -0.59,0.16 -0.74,0.18 -1.41,0.18 -0.33,-0.00 -0.64,0.00 -0.68,0.01 -0.03,0.01 -0.11,0.00 -0.16,-0.01 z m -2.14,-0.21 c -0.10,-0.05 -0.12,-0.08 -0.12,-0.17 0,-0.11 -0.00,-0.11 0.61,-0.40 0.15,-0.07 0.33,-0.17 0.40,-0.22 0.06,-0.04 0.20,-0.11 0.31,-0.15 0.10,-0.03 0.22,-0.07 0.25,-0.09 0.03,-0.01 0.10,-0.03 0.14,-0.03 0.04,-1.12e-4 0.13,-0.02 0.19,-0.05 0.05,-0.03 0.16,-0.05 0.23,-0.05 0.07,0 0.28,-0.04 0.48,-0.08 0.30,-0.07 0.67,-0.14 1.17,-0.22 0.75,-0.11 1.07,-0.18 1.24,-0.25 0.39,-0.17 0.47,-0.20 0.49,-0.20 0.01,0 0.10,-0.04 0.21,-0.08 0.10,-0.04 0.28,-0.11 0.38,-0.14 0.10,-0.03 0.26,-0.09 0.34,-0.14 0.17,-0.09 0.19,-0.10 0.48,-0.29 0.11,-0.07 0.25,-0.16 0.31,-0.20 0.06,-0.03 0.19,-0.12 0.29,-0.19 0.19,-0.13 0.31,-0.15 0.38,-0.06 0.05,0.06 0.02,0.16 -0.12,0.49 -0.04,0.09 -0.09,0.20 -0.11,0.25 -0.06,0.15 -0.35,0.62 -0.41,0.66 -0.11,0.09 -0.22,-0.05 -0.31,-0.39 -0.02,-0.09 -0.06,-0.16 -0.10,-0.17 -0.06,-0.02 -0.35,0.08 -0.52,0.20 -0.27,0.18 -1.43,0.63 -1.63,0.63 -0.05,0 -0.10,0.01 -0.10,0.03 0,0.01 -0.07,0.04 -0.17,0.07 -0.09,0.02 -0.36,0.09 -0.59,0.15 -0.23,0.06 -0.46,0.11 -0.51,0.11 -0.05,0 -0.14,0.01 -0.20,0.03 -0.16,0.04 -0.73,0.18 -1.02,0.24 -0.13,0.02 -0.30,0.06 -0.38,0.09 -0.33,0.09 -0.41,0.10 -0.47,0.08 -0.17,-0.05 -0.30,0.17 -0.21,0.35 0.02,0.03 0.02,0.09 0.01,0.12 -0.06,0.16 -0.69,0.23 -0.94,0.10 z m 2.89,-2.94 c -0.14,-0.05 -0.62,-0.11 -1.06,-0.12 -0.32,-0.00 -0.44,-0.02 -0.55,-0.08 -0.17,-0.09 -0.63,-0.55 -0.65,-0.67 -0.06,-0.30 -0.08,-0.51 -0.05,-0.89 0.03,-0.51 0.07,-0.59 0.24,-0.58 0.22,0.01 0.28,0.14 0.30,0.65 0.01,0.41 0.02,0.43 0.10,0.44 0.04,0.00 0.12,-0.02 0.18,-0.06 0.20,-0.14 0.48,-0.25 0.76,-0.31 0.47,-0.09 0.49,-0.15 0.18,-0.55 -0.11,-0.14 -0.20,-0.30 -0.20,-0.34 -1.13e-4,-0.03 -0.01,-0.13 -0.03,-0.20 -0.05,-0.19 -0.18,-0.19 -0.38,0.00 -0.08,0.08 -0.18,0.14 -0.22,0.14 -0.08,0 -0.23,-0.13 -0.34,-0.28 -0.06,-0.09 -0.21,-0.10 -0.32,-0.02 -0.18,0.13 -0.35,0.03 -0.49,-0.29 -0.08,-0.19 -0.08,-0.34 0.01,-0.70 0.09,-0.34 0.04,-0.61 -0.11,-0.61 -0.02,0 -0.08,-0.03 -0.12,-0.08 -0.11,-0.12 -0.10,-0.37 0.03,-0.65 0.27,-0.56 0.33,-0.73 0.33,-0.91 4.71e-4,-0.12 -0.02,-0.17 -0.11,-0.26 -0.14,-0.13 -0.30,-0.23 -0.36,-0.23 -0.10,0 -0.24,-0.15 -0.28,-0.30 -0.02,-0.10 -0.09,-0.20 -0.17,-0.27 -0.15,-0.13 -0.14,-0.23 0.01,-0.23 0.05,0 0.11,-0.01 0.13,-0.02 0.05,-0.05 0.30,-0.12 0.44,-0.12 0.17,-6.29e-4 0.24,0.03 0.54,0.28 0.13,0.11 0.29,0.23 0.37,0.28 0.07,0.04 0.21,0.16 0.31,0.26 0.20,0.19 0.23,0.26 0.40,0.97 0.13,0.53 0.16,0.62 0.27,0.81 0.05,0.09 0.16,0.30 0.24,0.48 0.08,0.17 0.18,0.38 0.23,0.46 0.06,0.10 0.08,0.19 0.08,0.31 -0.01,0.38 -0.00,0.51 0.03,0.83 0.05,0.35 0.07,0.41 0.44,0.89 0.35,0.46 0.61,0.60 1.10,0.60 0.32,0 0.33,0.00 0.35,0.09 0.01,0.05 0.01,0.13 0.00,0.18 -0.02,0.10 -0.24,0.43 -0.41,0.62 -0.06,0.07 -0.14,0.18 -0.17,0.24 -0.03,0.05 -0.10,0.15 -0.17,0.20 -0.10,0.08 -0.14,0.09 -0.45,0.09 -0.18,-0.00 -0.37,-0.01 -0.42,-0.03 z m -0.23,-1.22 c 0.14,-0.05 0.07,-0.12 -0.11,-0.11 -0.17,0.00 -0.35,0.09 -0.35,0.16 0,0.04 0.32,0.01 0.47,-0.04 z m 5.47,-0.02 c -0.06,-0.03 -0.26,-0.22 -0.44,-0.42 -0.18,-0.19 -0.45,-0.45 -0.59,-0.56 -0.35,-0.27 -0.47,-0.46 -0.32,-0.52 0.05,-0.02 0.52,0.18 0.59,0.26 0.07,0.08 0.30,0.24 0.42,0.28 0.10,0.03 0.12,0.03 0.22,-0.06 0.10,-0.10 0.11,-0.10 0.30,-0.05 0.40,0.09 0.76,0.45 0.76,0.77 0,0.10 -0.02,0.12 -0.25,0.24 -0.29,0.14 -0.51,0.16 -0.68,0.06 z m -2.94,-0.77 c -0.20,-0.05 -0.19,-0.22 0.01,-0.32 0.12,-0.05 0.13,-0.05 0.26,-6.28e-4 0.15,0.07 0.16,0.17 0.03,0.28 -0.10,0.07 -0.15,0.08 -0.30,0.04 z m -8.23,-1.90 c -0.20,-0.10 -0.33,-0.26 -0.26,-0.33 0.02,-0.02 0.12,-0.04 0.22,-0.03 0.29,0.01 1.33,-0.26 1.52,-0.40 0.12,-0.09 0.38,-0.09 0.48,0.00 0.23,0.23 -0.09,0.62 -0.59,0.70 -0.11,0.01 -0.26,0.05 -0.31,0.07 -0.05,0.02 -0.27,0.04 -0.49,0.05 -0.35,0.01 -0.40,0.01 -0.55,-0.06 z m 8.52,-2.12 c -0.28,-0.12 -0.46,-0.32 -0.42,-0.44 0.02,-0.05 0.05,-0.05 0.25,-0.03 0.12,0.01 0.31,0.00 0.43,-0.01 0.11,-0.02 0.26,-0.05 0.33,-0.06 0.07,-0.01 0.20,-0.06 0.30,-0.10 0.09,-0.04 0.21,-0.08 0.26,-0.08 0.04,0 0.13,-0.02 0.19,-0.05 0.15,-0.08 0.26,-0.06 0.38,0.05 0.12,0.12 0.13,0.17 0.04,0.28 -0.08,0.10 -0.43,0.29 -0.60,0.33 -0.13,0.02 -0.17,0.04 -0.33,0.12 -0.14,0.07 -0.69,0.08 -0.85,0.01 z m -2.41,-0.04 c -0.06,-0.07 -0.12,-0.26 -0.16,-0.47 -0.01,-0.08 -0.06,-0.22 -0.11,-0.32 -0.10,-0.20 -0.11,-0.46 -0.03,-0.68 0.02,-0.07 0.06,-0.18 0.07,-0.25 0.03,-0.15 0.17,-0.35 0.25,-0.35 0.06,-1.57e-4 0.09,0.12 0.03,0.16 -0.01,0.00 -0.07,0.16 -0.13,0.34 l -0.10,0.32 0.14,0.35 c 0.07,0.19 0.15,0.36 0.16,0.38 0.04,0.05 0.11,0.46 0.09,0.52 -0.02,0.07 -0.14,0.06 -0.21,-0.01 z m -7.03,-0.05 c 0,-0.18 0.75,-0.52 1.44,-0.65 0.09,-0.01 0.24,-0.04 0.34,-0.07 0.25,-0.05 0.76,-0.07 0.91,-0.04 0.07,0.01 0.17,0.04 0.23,0.05 0.12,0.02 0.13,0.12 0.00,0.17 -0.07,0.03 -0.14,0.03 -0.29,-0.00 -0.22,-0.05 -0.61,-0.03 -1.07,0.05 -0.16,0.03 -0.36,0.07 -0.44,0.08 -0.16,0.03 -0.67,0.24 -0.75,0.31 -0.14,0.11 -0.37,0.17 -0.37,0.08 z m 8.12,-0.68 c -0.07,-0.02 -0.05,-0.07 0.08,-0.20 0.07,-0.06 0.21,-0.23 0.31,-0.38 0.19,-0.29 0.28,-0.37 0.65,-0.61 0.55,-0.36 0.81,-0.46 1.34,-0.49 0.53,-0.03 0.94,0.08 1.18,0.33 0.10,0.11 0.26,0.12 0.42,0.02 0.15,-0.09 0.33,-0.18 0.40,-0.18 0.12,0 0.24,0.08 0.26,0.19 0.05,0.23 -0.23,0.43 -0.65,0.46 -0.24,0.01 -0.24,0.01 -0.41,-0.13 -0.09,-0.08 -0.22,-0.16 -0.28,-0.17 -0.06,-0.01 -0.20,-0.06 -0.30,-0.12 -0.18,-0.09 -0.19,-0.09 -0.28,-0.03 -0.10,0.06 -0.12,0.13 -0.05,0.25 0.05,0.09 -0.01,0.32 -0.14,0.49 -0.09,0.13 -0.50,0.31 -0.69,0.31 -0.19,0 -0.27,-0.04 -0.51,-0.27 -0.32,-0.30 -0.46,-0.27 -0.75,0.16 -0.14,0.23 -0.25,0.32 -0.44,0.37 -0.04,0.01 -0.09,0.01 -0.12,0.00 z m 2.06,-0.57 c 0.23,-0.15 0.33,-0.42 0.20,-0.57 -0.03,-0.04 -0.04,-0.03 -0.08,0.01 -0.02,0.03 -0.03,0.09 -0.02,0.13 0.01,0.03 -0.00,0.11 -0.04,0.16 -0.05,0.07 -0.09,0.09 -0.23,0.09 -0.11,0 -0.20,-0.02 -0.26,-0.07 -0.11,-0.08 -0.18,-0.09 -0.21,-0.02 -0.05,0.13 0.20,0.35 0.41,0.35 0.06,7.5e-5 0.17,-0.03 0.24,-0.08 z m -2.37,-0.12 c 0,-0.09 0.51,-0.65 0.77,-0.85 0.15,-0.11 0.36,-0.19 0.56,-0.21 l 0.18,-0.01 -0.24,0.18 c -0.13,0.10 -0.28,0.20 -0.33,0.23 -0.04,0.02 -0.18,0.13 -0.30,0.25 -0.30,0.28 -0.50,0.44 -0.58,0.44 -0.03,1.57e-4 -0.06,-0.00 -0.06,-0.02 z m -0.21,-1.13 c -0.10,-0.10 -0.10,-0.35 -0.00,-0.54 0.03,-0.07 0.14,-0.22 0.23,-0.33 0.09,-0.10 0.20,-0.24 0.24,-0.31 0.12,-0.18 0.40,-0.47 0.52,-0.53 0.05,-0.02 0.14,-0.05 0.20,-0.05 0.06,-4.71e-4 0.22,-0.08 0.43,-0.21 0.27,-0.18 0.34,-0.21 0.44,-0.19 0.09,0.01 0.14,-0.00 0.27,-0.11 0.13,-0.10 0.18,-0.13 0.32,-0.13 0.13,0 0.18,-0.02 0.32,-0.14 0.19,-0.17 0.26,-0.21 0.47,-0.24 0.16,-0.02 0.18,-0.01 0.27,0.08 0.10,0.12 0.19,0.14 0.31,0.06 0.05,-0.03 0.10,-0.03 0.23,0.03 0.23,0.11 0.56,0.40 0.69,0.60 0.10,0.15 0.11,0.20 0.11,0.45 0,0.15 -0.01,0.29 -0.03,0.30 -0.01,0.01 -0.08,-0.03 -0.14,-0.10 -0.16,-0.19 -0.65,-0.43 -0.87,-0.43 -0.06,0 -0.17,0.04 -0.25,0.09 -0.07,0.05 -0.14,0.09 -0.16,0.09 -0.05,0 -0.77,0.38 -0.88,0.46 -0.06,0.04 -0.12,0.08 -0.14,0.08 -0.01,0 -0.18,0.10 -0.37,0.24 -0.19,0.13 -0.36,0.24 -0.37,0.24 -0.01,0 -0.17,0.09 -0.36,0.21 -0.34,0.21 -0.61,0.34 -0.75,0.34 -0.04,0 -0.09,0.01 -0.11,0.04 -0.02,0.02 -0.15,0.05 -0.29,0.06 -0.23,0.01 -0.26,0.01 -0.33,-0.06 z m 2.05,-0.13 c 0.33,-0.16 0.66,-0.23 1.05,-0.23 0.36,0 0.52,0.04 0.46,0.14 -0.02,0.03 -0.10,0.03 -0.32,0.01 -0.17,-0.01 -0.37,-0.00 -0.48,0.01 -0.10,0.02 -0.31,0.06 -0.46,0.09 -0.39,0.08 -0.46,0.07 -0.23,-0.03 z m 1.78,-3.69 c -0.11,-0.10 -0.12,-0.13 -0.11,-0.28 0.00,-0.09 -0.02,-0.34 -0.06,-0.55 -0.04,-0.21 -0.10,-0.49 -0.12,-0.63 -0.02,-0.13 -0.07,-0.30 -0.11,-0.38 -0.03,-0.07 -0.07,-0.25 -0.08,-0.39 -0.01,-0.22 -0.01,-0.25 0.05,-0.28 0.06,-0.03 0.08,-0.02 0.14,0.04 0.10,0.11 0.14,0.24 0.21,0.67 0.09,0.55 0.22,1.13 0.31,1.42 0.04,0.15 0.06,0.42 0.02,0.48 -0.04,0.07 -0.10,0.05 -0.24,-0.07 z m -0.55,-0.02 c -0.14,-0.02 -0.19,-0.10 -0.08,-0.13 0.03,-0.01 0.09,-0.03 0.13,-0.05 0.09,-0.04 0.18,-0.04 0.26,0.02 0.06,0.04 0.06,0.06 0.01,0.10 -0.07,0.06 -0.17,0.08 -0.32,0.06 z M 28.35,7.56 c -0.23,-0.02 -0.44,-0.10 -0.49,-0.17 -0.03,-0.05 -0.08,-0.04 -0.18,0.05 -0.05,0.05 -0.13,0.09 -0.18,0.09 -0.11,0 -0.38,-0.12 -0.57,-0.26 C 26.82,7.19 26.71,7.11 26.65,7.07 26.60,7.04 26.41,6.87 26.23,6.70 25.53,6.05 25.46,5.97 25.46,5.88 c 0,-0.13 0.16,-0.14 0.35,-0.00 0.06,0.04 0.19,0.12 0.29,0.18 0.10,0.05 0.23,0.15 0.30,0.20 0.06,0.05 0.17,0.13 0.24,0.16 0.07,0.03 0.22,0.15 0.35,0.26 0.24,0.22 0.37,0.25 0.41,0.08 0.01,-0.07 0.05,-0.10 0.19,-0.13 0.18,-0.04 0.35,-0.13 0.35,-0.19 0,-0.01 0.12,-0.04 0.27,-0.05 0.26,-0.02 0.28,-0.02 0.55,0.10 0.49,0.23 0.83,0.70 0.62,0.85 -0.03,0.02 -0.16,0.04 -0.28,0.05 -0.12,6.28e-4 -0.24,0.02 -0.26,0.04 -0.08,0.08 -0.28,0.12 -0.53,0.09 z M 29.52,6.72 C 29.39,6.58 29.28,6.46 29.28,6.44 29.28,6.41 28.79,5.63 28.63,5.40 28.48,5.20 28.47,5.16 28.56,5.13 c 0.05,-0.02 0.41,0.33 0.77,0.77 0.19,0.23 0.50,0.82 0.50,0.94 0,0.15 -0.08,0.12 -0.31,-0.12 z m 1.22,0.14 C 30.66,6.85 30.63,6.82 30.48,6.62 30.34,6.42 30.30,6.40 30.27,6.49 30.19,6.72 29.87,6.35 29.48,5.60 29.35,5.34 29.32,5.25 29.35,5.22 c 0.03,-0.03 0.06,-0.03 0.10,-0.00 0.09,0.06 0.52,0.63 0.64,0.87 0.09,0.19 0.18,0.29 0.18,0.22 -0.00,-0.14 -0.17,-0.67 -0.31,-0.96 -0.21,-0.44 -0.23,-0.52 -0.15,-0.55 0.07,-0.02 0.31,0.18 0.39,0.35 0.02,0.05 0.10,0.17 0.16,0.26 0.06,0.09 0.16,0.33 0.23,0.53 0.06,0.20 0.13,0.39 0.15,0.43 0.01,0.03 0.03,0.09 0.03,0.13 0,0.04 0.01,0.11 0.04,0.16 0.05,0.11 0.00,0.20 -0.09,0.17 z" />
</svg>
