<?xml version="1.0" encoding="UTF-8" standalone="no"?>
<!-- Created with Inkscape (http://www.inkscape.org/) -->
<svg xmlns:dc="http://purl.org/dc/elements/1.1/" xmlns:cc="http://creativecommons.org/ns#" xmlns:rdf="http://www.w3.org/1999/02/22-rdf-syntax-ns#" xmlns:svg="http://www.w3.org/2000/svg" xmlns="http://www.w3.org/2000/svg" version="1.1" width="100%" height="100%" viewBox="0 0 48 48" id="svg3985">
<defs id="defs9" />
<path d="m 37.03,46.78 c -0.15,-0.08 -0.42,-0.38 -0.53,-0.60 -0.05,-0.10 -0.12,-0.21 -0.15,-0.24 -0.05,-0.04 -0.19,-0.31 -0.19,-0.37 0,-0.03 -0.32,-0.69 -0.45,-0.93 -0.03,-0.06 -0.14,-0.27 -0.23,-0.47 -0.09,-0.19 -0.19,-0.37 -0.23,-0.39 -0.09,-0.07 -0.14,-0.16 -0.18,-0.41 -0.01,-0.12 -0.08,-0.31 -0.14,-0.42 -0.55,-1.06 -0.57,-1.09 -0.64,-1.17 -0.08,-0.08 -0.14,-0.20 -0.27,-0.55 -0.06,-0.15 -0.14,-0.34 -0.18,-0.41 -0.18,-0.35 -0.25,-0.46 -0.43,-0.77 -0.10,-0.18 -0.27,-0.46 -0.36,-0.63 -0.34,-0.64 -0.95,-1.51 -1.55,-2.23 -0.12,-0.14 -0.21,-0.26 -0.47,-0.64 -0.16,-0.24 -0.18,-0.25 -0.25,-0.23 -0.03,0.01 -0.10,0.08 -0.14,0.16 -0.04,0.07 -0.18,0.29 -0.31,0.49 -0.12,0.19 -0.24,0.38 -0.25,0.41 -0.01,0.03 -0.11,0.19 -0.21,0.36 -0.10,0.16 -0.23,0.35 -0.27,0.42 -0.10,0.15 -0.57,0.62 -0.79,0.79 -0.09,0.07 -0.26,0.20 -0.37,0.28 -0.11,0.08 -0.21,0.15 -0.23,0.15 -0.07,0 0.00,-0.17 0.29,-0.60 0.17,-0.26 0.39,-0.58 0.47,-0.70 0.08,-0.12 0.21,-0.29 0.29,-0.38 0.08,-0.08 0.16,-0.19 0.19,-0.24 0.06,-0.11 0.48,-0.62 0.85,-1.00 0.40,-0.42 0.39,-0.41 0.33,-0.64 -0.02,-0.10 -0.07,-0.29 -0.11,-0.41 -0.06,-0.24 -0.09,-0.31 -0.14,-0.31 -0.01,0 -0.26,0.22 -0.54,0.51 -0.73,0.73 -1.10,1.07 -1.42,1.30 -0.15,0.11 -0.40,0.29 -0.54,0.40 -0.31,0.22 -0.52,0.34 -0.64,0.34 -0.10,0 -0.36,-0.29 -0.36,-0.41 8.32e-4,-0.12 0.03,-0.15 0.28,-0.30 0.23,-0.13 0.43,-0.27 0.84,-0.60 0.13,-0.10 0.31,-0.23 0.41,-0.28 0.09,-0.05 0.26,-0.18 0.38,-0.30 0.31,-0.31 1.34,-1.22 1.39,-1.22 0.01,0 0.03,-0.02 0.06,-0.06 0.11,-0.17 -0.19,-0.83 -0.38,-0.83 -0.00,0 -0.06,0.08 -0.11,0.18 -0.12,0.21 -0.30,0.46 -0.43,0.62 -0.19,0.23 -0.71,0.49 -1.12,0.56 -0.10,0.01 -0.17,0.07 -0.42,0.36 -0.16,0.18 -0.37,0.39 -0.46,0.46 -0.09,0.06 -0.21,0.17 -0.28,0.22 -0.15,0.13 -0.35,0.24 -0.56,0.28 -0.14,0.03 -0.17,0.05 -0.20,0.13 -0.02,0.06 -0.02,0.11 0.01,0.16 0.02,0.04 0.09,0.20 0.14,0.35 0.17,0.50 0.51,1.13 0.75,1.39 0.20,0.21 0.60,0.69 0.65,0.76 0.02,0.04 0.11,0.14 0.19,0.22 0.08,0.08 0.14,0.16 0.14,0.19 9.99e-4,0.05 0.09,0.19 0.51,0.73 0.13,0.18 0.30,0.43 0.35,0.54 0.05,0.11 0.16,0.32 0.24,0.45 0.10,0.18 0.15,0.23 0.21,0.22 0.07,-0.01 0.28,-0.29 0.32,-0.44 0.01,-0.04 0.08,-0.23 0.17,-0.40 0.08,-0.17 0.15,-0.33 0.15,-0.34 0,-0.01 0.03,-0.10 0.08,-0.21 0.04,-0.10 0.11,-0.23 0.13,-0.29 0.02,-0.05 0.10,-0.24 0.17,-0.41 0.06,-0.17 0.18,-0.42 0.24,-0.56 0.12,-0.25 0.19,-0.44 0.39,-0.98 0.05,-0.14 0.12,-0.29 0.15,-0.32 0.05,-0.05 0.05,-0.04 0.04,0.06 -0.04,0.32 -0.17,0.84 -0.28,1.14 -0.06,0.18 -0.13,0.38 -0.15,0.44 -0.01,0.06 -0.04,0.13 -0.06,0.15 -0.01,0.01 -0.03,0.05 -0.03,0.08 1.4e-4,0.06 -0.14,0.42 -0.31,0.76 -0.06,0.14 -0.13,0.29 -0.14,0.32 -0.01,0.03 -0.03,0.09 -0.05,0.12 -0.01,0.02 -0.08,0.15 -0.13,0.27 -0.05,0.12 -0.15,0.29 -0.22,0.38 -0.31,0.40 -0.36,0.59 -0.25,0.86 0.02,0.06 0.07,0.19 0.10,0.28 0.04,0.16 0.07,0.30 0.15,0.92 0.05,0.35 -0.05,1.33 -0.16,1.52 -0.03,0.06 -0.08,0.09 -0.15,0.09 -0.13,0 -0.27,-0.14 -0.25,-0.25 0.15,-0.70 0.06,-1.74 -0.20,-2.62 -0.09,-0.31 -0.20,-0.53 -0.34,-0.74 -0.04,-0.07 -0.14,-0.24 -0.20,-0.37 -0.06,-0.13 -0.22,-0.38 -0.35,-0.54 -0.36,-0.45 -0.48,-0.62 -0.54,-0.74 -0.03,-0.05 -0.20,-0.27 -0.39,-0.48 -0.44,-0.49 -0.60,-0.70 -0.94,-1.27 -0.27,-0.44 -0.54,-1.48 -0.49,-1.86 0.03,-0.26 0.11,-0.46 0.26,-0.69 0.18,-0.28 0.17,-0.36 -0.01,-0.47 -0.29,-0.17 -0.47,-0.16 -0.59,0.03 -0.10,0.15 -0.10,0.29 -0.00,0.29 0.03,0 0.10,-0.02 0.15,-0.05 0.04,-0.02 0.08,-0.04 0.09,-0.02 0.00,0.01 -0.02,0.16 -0.08,0.32 -0.05,0.16 -0.11,0.39 -0.13,0.51 -0.03,0.22 -0.01,0.73 0.03,0.92 0.01,0.05 0.03,0.18 0.05,0.29 0.01,0.10 0.04,0.22 0.06,0.27 0.02,0.04 0.12,0.23 0.21,0.41 0.09,0.18 0.22,0.40 0.29,0.50 0.06,0.09 0.16,0.23 0.21,0.31 0.04,0.07 0.14,0.20 0.21,0.27 0.07,0.07 0.14,0.18 0.17,0.23 0.02,0.05 0.23,0.28 0.45,0.51 0.22,0.23 0.42,0.44 0.43,0.47 0.01,0.03 0.10,0.14 0.19,0.24 0.25,0.29 0.89,1.38 0.89,1.52 1.05e-4,0.02 0.02,0.08 0.04,0.13 0.02,0.04 0.07,0.15 0.10,0.24 0.05,0.13 0.08,0.28 0.23,0.96 0.04,0.20 0.03,0.87 -0.01,1.05 -0.02,0.07 -0.04,0.21 -0.06,0.31 -0.01,0.14 -0.03,0.17 -0.09,0.18 -0.10,0.01 -0.13,-0.11 -0.08,-0.40 0.03,-0.18 0.03,-0.31 -0.01,-0.71 -0.03,-0.26 -0.06,-0.53 -0.08,-0.60 -0.01,-0.06 -0.04,-0.22 -0.05,-0.34 -0.01,-0.13 -0.05,-0.28 -0.10,-0.36 -0.04,-0.07 -0.08,-0.17 -0.08,-0.20 0,-0.03 -0.02,-0.09 -0.04,-0.13 -0.02,-0.03 -0.06,-0.13 -0.08,-0.22 -0.06,-0.22 -0.30,-0.67 -0.53,-0.95 -0.06,-0.07 -0.17,-0.22 -0.24,-0.33 -0.07,-0.11 -0.29,-0.38 -0.49,-0.59 -0.19,-0.21 -0.38,-0.45 -0.42,-0.52 -0.05,-0.11 -0.28,-0.40 -0.44,-0.57 -0.03,-0.03 -0.10,-0.12 -0.14,-0.19 -0.22,-0.33 -0.31,-0.37 -0.51,-0.22 -0.14,0.10 -0.18,0.10 -0.27,0.02 -0.05,-0.05 -0.06,-0.12 -0.06,-0.36 -0.00,-0.33 -0.05,-0.45 -0.21,-0.55 -0.05,-0.03 -0.13,-0.05 -0.18,-0.05 -0.05,0 -0.11,-0.03 -0.18,-0.12 -0.12,-0.16 -0.26,-0.16 -0.46,-0.00 -0.22,0.17 -0.25,0.30 -0.17,0.73 0.03,0.19 0.09,0.41 0.12,0.49 0.10,0.29 0.03,0.89 -0.12,1.06 -0.11,0.12 -0.30,0.11 -0.45,-0.02 -0.14,-0.12 -0.33,-0.40 -0.33,-0.49 0,-0.07 -0.25,-0.55 -0.33,-0.61 -0.07,-0.06 -0.29,-0.01 -0.47,0.10 -0.22,0.14 -0.28,0.13 -0.29,-0.07 l -0.01,-0.16 -0.12,0.02 c -0.16,0.03 -0.27,0.03 -0.44,-0.02 -0.11,-0.03 -0.17,-0.03 -0.28,-0.00 -0.16,0.05 -0.19,0.09 -0.26,0.42 -0.05,0.29 -0.23,0.69 -0.42,0.95 -0.07,0.10 -0.22,0.33 -0.33,0.51 -0.11,0.18 -0.27,0.41 -0.35,0.50 -0.22,0.27 -0.60,1.07 -0.75,1.57 -0.06,0.23 -0.12,0.46 -0.12,0.50 0,0.22 -0.35,0.40 -0.40,0.20 -0.04,-0.19 0.05,-0.72 0.17,-0.94 0.02,-0.04 0.09,-0.17 0.14,-0.28 0.05,-0.10 0.13,-0.24 0.17,-0.29 0.16,-0.22 0.13,-0.44 -0.05,-0.56 -0.14,-0.08 -0.45,-0.37 -0.45,-0.42 0,-0.01 -0.04,-0.08 -0.09,-0.15 -0.08,-0.11 -0.09,-0.15 -0.12,-0.64 -0.01,-0.28 -0.03,-0.56 -0.05,-0.60 -0.01,-0.04 -0.01,-0.30 -0.00,-0.56 0.02,-0.49 0.03,-0.55 0.09,-0.88 0.01,-0.10 0.04,-0.26 0.05,-0.35 0.02,-0.18 0.09,-0.26 0.16,-0.19 0.07,0.06 0.08,0.15 0.13,1.14 0.00,0.10 0.02,0.27 0.04,0.38 0.01,0.10 0.04,0.26 0.05,0.35 0.01,0.09 0.06,0.27 0.10,0.39 0.04,0.12 0.10,0.30 0.11,0.39 0.04,0.20 0.26,0.82 0.32,0.88 0.06,0.07 0.13,0.02 0.27,-0.21 0.07,-0.12 0.18,-0.28 0.23,-0.35 0.05,-0.07 0.12,-0.18 0.16,-0.25 0.03,-0.06 0.13,-0.22 0.21,-0.34 0.27,-0.40 0.30,-0.45 0.30,-0.65 5e-4,-0.20 -0.07,-0.30 -0.27,-0.38 -0.17,-0.07 -0.37,-0.38 -0.48,-0.74 -0.05,-0.17 -0.09,-0.34 -0.07,-0.37 0.04,-0.11 0.13,-0.02 0.29,0.25 0.17,0.33 0.46,0.72 0.53,0.72 0.02,0 0.09,-0.05 0.14,-0.11 0.17,-0.20 0.33,-0.30 0.54,-0.33 0.18,-0.03 0.21,-0.02 0.37,0.04 0.22,0.09 0.50,0.27 0.50,0.31 0,0.05 0.12,0.02 0.19,-0.04 0.05,-0.06 0.09,-0.06 0.27,-0.05 0.11,0.00 0.28,0.03 0.37,0.06 0.15,0.04 0.16,0.04 0.23,-0.01 0.04,-0.03 0.13,-0.19 0.20,-0.34 0.12,-0.26 0.32,-0.49 0.42,-0.49 0.01,-3.33e-4 0.12,-0.04 0.24,-0.08 0.47,-0.20 0.56,-0.18 0.92,0.18 0.24,0.24 0.33,0.39 0.33,0.56 0,0.16 0.03,0.21 0.16,0.21 0.17,0 0.21,-0.10 0.13,-0.35 -0.03,-0.10 -0.08,-0.23 -0.12,-0.29 -0.03,-0.05 -0.06,-0.13 -0.06,-0.16 0,-0.02 -0.03,-0.13 -0.08,-0.23 -0.04,-0.10 -0.09,-0.29 -0.10,-0.41 -0.03,-0.35 -0.06,-0.37 -0.52,-0.39 -0.34,-0.01 -0.40,-0.01 -0.58,0.06 -0.33,0.13 -0.77,0.36 -1.06,0.54 -0.31,0.19 -0.89,0.48 -0.98,0.48 -0.03,0 -0.07,0.01 -0.09,0.03 -0.05,0.05 -0.34,-0.01 -0.84,-0.18 -0.21,-0.07 -0.50,-0.16 -0.62,-0.19 -0.22,-0.06 -0.38,-0.12 -0.90,-0.38 -0.15,-0.07 -0.29,-0.13 -0.33,-0.13 -0.03,0 -0.18,-0.06 -0.34,-0.13 -0.22,-0.10 -0.30,-0.16 -0.37,-0.27 -0.07,-0.11 -0.10,-0.13 -0.20,-0.13 -0.12,0 -0.34,0.09 -0.49,0.21 -0.20,0.15 -0.35,0.23 -0.55,0.28 -0.12,0.03 -0.27,0.10 -0.36,0.17 -0.08,0.06 -0.21,0.13 -0.29,0.15 -0.36,0.09 -0.54,0.16 -0.77,0.30 -0.20,0.12 -0.28,0.15 -0.43,0.16 -0.10,0.00 -0.23,0.03 -0.30,0.05 -0.27,0.11 -0.39,0.15 -0.79,0.22 -0.08,0.01 -0.18,0.04 -0.22,0.06 -0.08,0.04 -0.31,0.13 -0.43,0.16 -0.04,0.01 -0.17,0.08 -0.29,0.15 -0.11,0.07 -0.24,0.13 -0.29,0.13 -0.14,0 -0.73,-0.40 -1.11,-0.76 -0.20,-0.19 -0.40,-0.35 -0.51,-0.40 -0.09,-0.04 -0.30,-0.17 -0.46,-0.30 -0.15,-0.12 -0.38,-0.28 -0.49,-0.35 -0.23,-0.15 -0.83,-0.45 -0.90,-0.45 -0.07,0 -0.20,-0.10 -0.43,-0.32 C 9.07,35.35 8.91,35.23 8.84,35.19 8.62,35.09 8.58,35.04 8.58,34.89 c 0,-0.07 0.01,-0.14 0.03,-0.15 0.01,-0.01 0.03,-0.05 0.03,-0.09 0,-0.07 0.32,-0.76 0.40,-0.86 0.02,-0.02 0.05,-0.09 0.07,-0.16 0.11,-0.37 0.19,-0.53 0.32,-0.70 0.08,-0.09 0.17,-0.24 0.19,-0.31 0.02,-0.07 0.06,-0.17 0.09,-0.22 0.03,-0.04 0.08,-0.13 0.12,-0.20 0.03,-0.06 0.11,-0.17 0.16,-0.24 0.05,-0.06 0.13,-0.19 0.16,-0.27 0.03,-0.08 0.11,-0.18 0.16,-0.23 0.05,-0.04 0.14,-0.16 0.21,-0.26 0.06,-0.09 0.19,-0.28 0.28,-0.40 0.09,-0.12 0.18,-0.25 0.20,-0.28 0.10,-0.17 0.59,-0.79 0.71,-0.93 0.08,-0.08 0.21,-0.24 0.29,-0.35 0.23,-0.31 0.34,-0.27 0.47,0.16 0.03,0.11 0.07,0.25 0.09,0.31 0.04,0.12 0.31,0.39 0.40,0.39 0.07,0 0.28,-0.21 0.36,-0.36 0.06,-0.13 0.18,-0.23 0.24,-0.21 0.06,0.02 0.28,0.42 0.33,0.60 0.04,0.15 0.12,0.21 0.23,0.15 0.03,-0.01 0.20,-0.18 0.37,-0.37 0.42,-0.46 0.68,-0.72 0.85,-0.83 0.20,-0.13 0.45,-0.32 0.48,-0.36 0.04,-0.07 0.02,-0.18 -0.04,-0.24 -0.03,-0.03 -0.15,-0.18 -0.25,-0.34 -0.28,-0.42 -0.26,-0.41 -0.74,-0.43 -0.47,-0.02 -0.58,-0.07 -0.90,-0.38 -0.45,-0.45 -0.67,-0.77 -0.80,-1.19 -0.06,-0.18 -0.18,-0.31 -0.29,-0.31 -0.03,0 -0.10,-0.02 -0.15,-0.04 -0.05,-0.02 -0.17,-0.05 -0.27,-0.07 -0.22,-0.03 -0.52,-0.14 -0.71,-0.27 -0.07,-0.05 -0.15,-0.09 -0.17,-0.09 -0.04,0 -0.46,-0.45 -0.62,-0.69 -0.26,-0.38 -0.33,-0.97 -0.16,-1.37 0.14,-0.33 0.34,-0.55 0.73,-0.81 0.49,-0.33 0.55,-0.49 0.24,-0.64 -0.08,-0.03 -0.25,-0.12 -0.38,-0.18 -0.12,-0.06 -0.34,-0.20 -0.47,-0.32 -0.19,-0.17 -0.27,-0.26 -0.39,-0.52 -0.16,-0.33 -0.18,-0.40 -0.10,-0.66 0.04,-0.14 0.08,-0.19 0.28,-0.34 0.31,-0.23 0.38,-0.26 0.77,-0.25 0.38,0.00 0.62,-0.06 0.72,-0.19 0.09,-0.12 0.08,-0.20 -0.05,-0.30 -0.06,-0.05 -0.12,-0.12 -0.14,-0.15 -0.03,-0.09 -0.25,-0.22 -0.45,-0.26 -0.32,-0.06 -0.50,-0.15 -0.91,-0.43 -0.14,-0.10 -0.44,-0.42 -0.44,-0.48 0,-0.02 -0.04,-0.08 -0.10,-0.14 -0.05,-0.05 -0.13,-0.16 -0.17,-0.23 -0.03,-0.07 -0.10,-0.17 -0.13,-0.22 -0.06,-0.09 -0.27,-0.65 -0.27,-0.75 -1.03e-4,-0.03 -0.02,-0.09 -0.05,-0.15 -0.03,-0.07 -0.04,-0.17 -0.02,-0.47 l 0.02,-0.37 -0.11,-0.09 C 9.03,14.89 8.68,14.51 8.66,14.42 c -0.01,-0.05 -0.05,-0.17 -0.10,-0.27 -0.04,-0.09 -0.09,-0.29 -0.11,-0.42 -0.03,-0.23 -0.03,-0.25 0.04,-0.42 0.04,-0.09 0.08,-0.19 0.08,-0.22 0,-0.15 0.41,-0.72 0.64,-0.87 0.14,-0.09 0.15,-0.11 0.15,-0.26 0,-0.30 0.19,-0.85 0.34,-0.99 0.09,-0.08 0.09,-0.10 0.12,-0.53 0.03,-0.62 0.20,-1.07 0.55,-1.45 l 0.18,-0.20 0,-0.27 c 0,-0.21 0.01,-0.32 0.08,-0.49 0.04,-0.12 0.11,-0.24 0.14,-0.28 0.04,-0.05 0.04,-0.08 0.00,-0.29 -0.06,-0.33 -0.05,-0.53 0.03,-0.89 0.10,-0.37 0.29,-0.78 0.48,-1.00 0.07,-0.09 0.17,-0.21 0.22,-0.26 0.20,-0.25 0.52,-0.55 0.70,-0.65 0.27,-0.15 0.69,-0.33 0.78,-0.33 0.21,0 0.09,0.21 -0.14,0.27 -0.15,0.03 -0.24,0.09 -0.80,0.53 -0.21,0.16 -0.63,0.76 -0.78,1.10 -0.17,0.41 -0.20,0.91 -0.08,1.33 0.04,0.14 0.09,0.29 0.11,0.32 0.02,0.03 0.13,0.23 0.24,0.44 0.17,0.33 0.19,0.38 0.15,0.42 -0.04,0.04 -0.06,0.04 -0.20,-0.02 -0.08,-0.04 -0.22,-0.16 -0.32,-0.26 -0.23,-0.25 -0.28,-0.24 -0.28,0.10 3.33e-4,0.27 0.05,0.48 0.18,0.70 0.11,0.19 0.26,0.36 0.31,0.34 0.03,-0.01 0.17,-0.19 0.20,-0.26 0.01,-0.04 0.44,-0.11 0.48,-0.07 0.02,0.02 0.01,0.11 -0.02,0.25 -0.03,0.12 -0.06,0.29 -0.07,0.39 -0.02,0.19 -0.11,0.57 -0.23,1.00 -0.19,0.68 -0.20,0.72 -0.18,1.60 0.01,0.49 0.04,0.91 0.07,1.06 0.02,0.13 0.06,0.35 0.08,0.48 0.02,0.13 0.07,0.43 0.11,0.67 0.03,0.23 0.09,0.60 0.11,0.81 0.07,0.69 0.09,0.73 0.22,0.69 0.04,-0.01 0.08,-0.11 0.15,-0.34 0.05,-0.18 0.09,-0.34 0.09,-0.37 1.03e-4,-0.11 0.42,-0.43 0.78,-0.60 l 0.25,-0.12 0.36,0.05 c 0.69,0.11 1.22,0.22 1.38,0.30 0.04,0.02 0.14,0.09 0.21,0.15 0.17,0.15 0.18,0.31 0.02,0.48 -0.06,0.06 -0.12,0.10 -0.15,0.09 -0.02,-0.01 -0.19,-0.05 -0.36,-0.10 -0.17,-0.04 -0.35,-0.09 -0.40,-0.11 -0.20,-0.07 -0.82,-0.17 -1.05,-0.16 -0.33,0.01 -0.49,0.09 -0.74,0.35 -0.23,0.25 -0.30,0.37 -0.41,0.71 -0.09,0.29 -0.09,0.35 0.00,0.72 0.09,0.38 0.08,0.42 -0.20,0.42 -0.16,0 -0.20,0.01 -0.21,0.06 -0.00,0.03 0.03,0.08 0.10,0.13 0.07,0.04 0.18,0.16 0.27,0.32 0.15,0.24 0.30,0.36 0.45,0.36 0.07,0 0.05,-0.11 -0.03,-0.20 -0.11,-0.11 -0.20,-0.31 -0.16,-0.35 0.02,-0.02 0.06,-0.00 0.11,0.06 0.20,0.25 0.26,0.29 0.38,0.29 0.18,0 0.19,-0.08 0.02,-0.24 -0.07,-0.07 -0.14,-0.14 -0.14,-0.15 0,-0.01 0.05,-0.01 0.12,-0.00 0.16,0.03 0.23,-0.01 0.37,-0.23 0.06,-0.09 0.18,-0.23 0.26,-0.29 0.43,-0.32 0.53,-0.38 0.64,-0.42 0.21,-0.06 0.63,-0.07 0.87,-0.03 0.12,0.02 0.33,0.05 0.46,0.07 0.24,0.03 0.46,0.13 0.43,0.19 -0.00,0.01 -0.07,0.02 -0.13,0.02 -0.18,-0.01 -0.32,-0.01 -0.79,0.00 -0.35,0.01 -0.46,0.03 -0.58,0.09 -0.08,0.04 -0.27,0.09 -0.42,0.12 -0.38,0.06 -0.54,0.18 -0.43,0.31 0.03,0.04 0.08,0.05 0.30,0.02 0.37,-0.04 1.51,-0.03 1.92,0.00 0.48,0.05 0.59,0.13 0.52,0.37 -0.05,0.17 -0.09,0.22 -0.17,0.21 -0.05,-0.00 -0.07,-0.04 -0.08,-0.14 -0.01,-0.13 -0.02,-0.13 -0.17,-0.16 -0.20,-0.03 -1.05,-0.00 -1.23,0.05 -0.22,0.06 -0.23,0.09 -0.18,0.31 0.04,0.18 0.04,0.19 -0.07,0.40 -0.10,0.19 -0.13,0.22 -0.23,0.23 -0.13,0.01 -0.33,-0.10 -0.40,-0.23 -0.06,-0.12 -0.11,-0.12 -0.28,-0.01 -0.11,0.08 -0.15,0.08 -0.39,0.07 -0.22,-0.01 -0.29,-0.03 -0.49,-0.14 -0.26,-0.14 -0.47,-0.31 -0.47,-0.38 0,-0.02 -0.02,-0.06 -0.05,-0.08 -0.07,-0.06 -0.14,0.01 -0.17,0.18 -0.01,0.11 -0.00,0.14 0.15,0.31 0.25,0.28 0.24,0.38 -0.07,0.61 -0.15,0.10 -0.19,0.11 -0.37,0.11 -0.11,-0.00 -0.28,0.01 -0.36,0.03 -0.20,0.05 -0.51,0.21 -0.54,0.28 -0.02,0.07 0.04,0.14 0.16,0.17 0.06,0.01 0.12,0.06 0.16,0.12 0.32,0.58 0.49,0.85 0.55,0.85 0.01,-9e-6 0.02,-0.16 0.02,-0.37 0.00,-0.32 0.01,-0.39 0.08,-0.54 0.09,-0.19 0.18,-0.26 0.24,-0.20 0.02,0.02 0.02,0.11 -5e-4,0.33 -0.02,0.16 -0.02,0.33 -0.01,0.37 0.03,0.13 0.10,0.26 0.12,0.26 0.01,0 0.03,-0.14 0.04,-0.31 0.01,-0.21 0.05,-0.37 0.10,-0.49 0.04,-0.09 0.10,-0.24 0.13,-0.33 0.04,-0.12 0.07,-0.16 0.12,-0.16 0.13,0 0.20,-0.06 0.20,-0.20 0,-0.07 0.01,-0.14 0.02,-0.15 0.04,-0.02 0.11,0.77 0.14,1.62 0.02,0.70 0.10,1.56 0.15,1.64 0.01,0.01 0.03,0.10 0.05,0.19 0.04,0.26 0.21,0.78 0.30,0.94 0.01,0.02 0.09,0.17 0.17,0.32 0.08,0.15 0.17,0.31 0.21,0.36 0.03,0.05 0.06,0.10 0.06,0.11 0,0.01 0.07,0.14 0.16,0.28 0.77,1.22 0.94,1.53 1.09,1.91 0.05,0.13 0.15,0.34 0.22,0.46 0.07,0.11 0.13,0.22 0.13,0.23 0,0.01 0.07,0.13 0.16,0.27 0.43,0.67 0.93,1.30 1.29,1.62 0.12,0.10 0.37,0.33 0.55,0.51 0.18,0.17 0.35,0.31 0.38,0.31 0.02,0 0.11,-0.05 0.19,-0.11 0.36,-0.27 1.20,-0.71 1.60,-0.82 0.13,-0.03 0.34,-0.10 0.46,-0.15 0.12,-0.04 0.27,-0.10 0.34,-0.13 0.27,-0.10 0.51,-0.20 0.74,-0.32 0.19,-0.09 0.29,-0.12 0.50,-0.13 0.22,-0.01 0.28,-0.00 0.44,0.07 0.10,0.04 0.26,0.11 0.36,0.14 0.15,0.05 0.49,0.20 1.03,0.46 0.21,0.10 0.31,0.16 0.55,0.30 0.07,0.04 0.20,0.12 0.29,0.16 0.08,0.04 0.22,0.13 0.31,0.20 0.08,0.06 0.20,0.15 0.26,0.20 0.06,0.05 0.17,0.22 0.30,0.49 0.11,0.22 0.25,0.47 0.32,0.55 0.20,0.25 0.53,0.39 0.74,0.32 0.15,-0.05 0.45,-0.33 0.75,-0.71 0.39,-0.48 0.77,-1.00 0.79,-1.10 0.01,-0.04 0.05,-0.14 0.10,-0.20 0.20,-0.30 0.24,-0.42 0.24,-0.82 0,-0.32 0.00,-0.37 0.05,-0.37 0.03,5e-6 0.06,0.01 0.07,0.03 0.03,0.05 0.11,0.04 0.17,-0.02 0.70,-0.85 0.68,-0.82 0.58,-1.09 -0.05,-0.16 -0.06,-0.44 -0.01,-0.53 0.06,-0.11 0.10,-0.03 0.09,0.19 -0.00,0.24 0.04,0.32 0.20,0.32 0.04,0 0.12,0.03 0.18,0.07 0.11,0.08 0.35,0.09 0.43,0.02 0.03,-0.02 0.10,-0.10 0.15,-0.18 0.17,-0.24 0.46,-0.51 0.72,-0.67 0.13,-0.08 0.30,-0.20 0.38,-0.26 0.15,-0.12 0.17,-0.13 0.23,-0.06 0.05,0.06 -0.06,0.19 -0.18,0.19 -0.07,0 -0.19,0.07 -0.19,0.13 0,0.01 -0.09,0.12 -0.21,0.24 -0.19,0.20 -0.29,0.37 -0.36,0.58 -0.01,0.04 -0.06,0.16 -0.10,0.25 -0.09,0.19 -0.14,0.55 -0.08,0.63 0.02,0.02 0.07,0.05 0.12,0.05 0.10,0 0.19,0.10 0.19,0.22 -3.32e-4,0.10 -0.27,0.68 -0.46,0.97 -0.06,0.09 -0.11,0.18 -0.11,0.20 0,0.01 -0.02,0.08 -0.06,0.16 -0.14,0.32 -0.38,0.94 -0.38,0.99 0,0.02 -0.03,0.14 -0.07,0.25 -0.04,0.11 -0.08,0.29 -0.10,0.41 -0.01,0.11 -0.04,0.32 -0.06,0.46 -0.07,0.46 0.02,0.93 0.27,1.33 0.04,0.07 0.10,0.17 0.12,0.22 0.02,0.04 0.09,0.15 0.15,0.24 0.16,0.22 0.34,0.61 0.34,0.78 -1.04e-4,0.19 0.09,0.72 0.17,0.94 0.03,0.10 0.08,0.28 0.09,0.39 0.02,0.18 0.06,0.25 0.22,0.49 0.10,0.15 0.26,0.35 0.34,0.44 0.08,0.09 0.18,0.23 0.24,0.31 0.05,0.07 0.13,0.18 0.18,0.24 0.20,0.24 0.28,0.35 0.37,0.51 0.07,0.12 0.11,0.16 0.17,0.16 0.10,0 0.26,-0.23 0.34,-0.49 0.06,-0.21 0.23,-0.48 0.41,-0.64 0.21,-0.19 0.69,-0.54 0.87,-0.63 0.66,-0.32 0.92,-0.39 1.58,-0.42 0.61,-0.02 0.62,-0.03 0.39,-0.35 -0.58,-0.81 -0.75,-1.10 -0.86,-1.41 -0.07,-0.21 -0.18,-0.42 -0.27,-0.54 -0.16,-0.19 -0.51,-0.74 -0.51,-0.81 0,-0.12 0.07,-0.07 0.36,0.20 0.15,0.15 0.30,0.27 0.33,0.27 0.08,0 0.12,-0.09 0.16,-0.35 0.01,-0.12 0.05,-0.26 0.08,-0.32 0.02,-0.05 0.17,-0.35 0.33,-0.66 0.15,-0.31 0.39,-0.78 0.51,-1.03 0.12,-0.25 0.33,-0.69 0.45,-0.96 0.12,-0.27 0.25,-0.55 0.29,-0.62 0.04,-0.06 0.12,-0.25 0.19,-0.41 0.06,-0.16 0.16,-0.36 0.22,-0.45 0.05,-0.08 0.21,-0.34 0.34,-0.57 0.13,-0.22 0.28,-0.44 0.33,-0.49 0.12,-0.13 0.25,-0.34 0.28,-0.45 0.03,-0.14 -0.07,-0.34 -0.18,-0.32 -0.06,0.00 -0.09,0.03 -0.12,0.16 -0.03,0.16 -0.11,0.23 -0.20,0.20 -0.07,-0.02 -0.07,-0.18 0.00,-0.50 0.03,-0.14 0.08,-0.38 0.11,-0.54 0.05,-0.31 0.03,-0.38 -0.09,-0.42 -0.04,-0.01 -0.13,-0.09 -0.20,-0.18 -0.07,-0.08 -0.34,-0.36 -0.59,-0.62 -0.25,-0.25 -0.55,-0.58 -0.67,-0.74 -0.26,-0.37 -0.31,-0.45 -0.25,-0.48 0.04,-0.02 0.01,-0.14 -0.03,-0.14 -0.01,0 -0.03,0.01 -0.04,0.04 -0.01,0.02 -0.04,0.00 -0.09,-0.05 -0.24,-0.30 -0.31,-0.39 -0.41,-0.55 -0.06,-0.09 -0.32,-0.37 -0.58,-0.62 -0.25,-0.25 -0.55,-0.56 -0.65,-0.70 -0.20,-0.27 -0.34,-0.38 -0.56,-0.44 -0.12,-0.03 -0.15,-0.03 -0.27,0.02 -0.07,0.03 -0.21,0.10 -0.32,0.15 -0.10,0.04 -0.24,0.12 -0.31,0.17 -0.07,0.05 -0.16,0.09 -0.20,0.09 -0.07,0 -0.40,0.19 -0.48,0.29 -0.02,0.03 -0.15,0.12 -0.28,0.19 -0.12,0.07 -0.29,0.19 -0.36,0.25 -0.07,0.06 -0.15,0.12 -0.19,0.14 -0.03,0.01 -0.18,0.09 -0.34,0.19 -0.15,0.09 -0.29,0.16 -0.32,0.16 -0.07,0 -0.29,0.16 -0.36,0.27 -0.08,0.13 -0.12,0.60 -0.05,0.65 0.08,0.06 0.60,0.12 1.34,0.13 l 0.71,0.01 0.07,-0.11 c 0.05,-0.09 0.09,-0.12 0.22,-0.14 0.15,-0.02 0.21,-0.07 0.29,-0.22 0.03,-0.06 0.03,-0.13 -8.32e-4,-0.33 -0.04,-0.25 -0.02,-0.34 0.05,-0.29 0.02,0.01 0.09,0.14 0.16,0.28 0.07,0.14 0.21,0.34 0.31,0.45 0.18,0.19 0.25,0.32 0.25,0.46 0,0.17 0.30,0.29 1.34,0.53 0.08,0.01 0.24,0.05 0.36,0.08 0.11,0.02 0.34,0.08 0.51,0.12 0.71,0.15 0.82,0.19 0.98,0.42 0.17,0.24 0.11,0.42 -0.07,0.23 -0.20,-0.20 -0.40,-0.34 -0.48,-0.34 -0.04,-1.39e-4 -0.21,-0.03 -0.37,-0.07 -0.16,-0.03 -0.41,-0.09 -0.57,-0.11 -0.69,-0.11 -1.16,-0.18 -1.41,-0.22 -0.15,-0.02 -0.39,-0.06 -0.53,-0.08 -0.59,-0.11 -0.86,-0.16 -1.12,-0.18 -1.30,-0.13 -1.47,-0.15 -1.73,-0.28 -0.21,-0.10 -0.21,-0.10 -0.36,-0.04 -0.14,0.05 -0.18,0.08 -0.31,0.29 -0.04,0.06 -0.14,0.19 -0.23,0.27 -0.31,0.32 -1.06,1.28 -1.06,1.36 0,0.00 -0.04,0.08 -0.10,0.17 -0.05,0.08 -0.10,0.17 -0.10,0.19 0,0.10 0.13,-7e-5 0.52,-0.41 0.39,-0.41 0.54,-0.52 0.54,-0.40 0,0.02 -0.01,0.05 -0.03,0.07 -0.01,0.01 -0.09,0.12 -0.16,0.25 -0.07,0.12 -0.23,0.34 -0.35,0.47 -0.12,0.13 -0.27,0.30 -0.32,0.38 -0.05,0.07 -0.23,0.27 -0.40,0.44 -0.32,0.33 -0.60,0.69 -0.70,0.88 -0.03,0.07 -0.06,0.20 -0.06,0.32 -0.00,0.18 0.00,0.35 0.06,1.21 0.02,0.35 -0.03,0.70 -0.14,0.88 -0.17,0.27 -0.23,0.22 -0.18,-0.18 0.02,-0.26 0.02,-0.31 -0.02,-0.36 -0.04,-0.04 -0.07,-0.04 -0.23,0.04 -0.09,0.05 -0.23,0.14 -0.30,0.20 -0.13,0.11 -0.59,0.32 -0.77,0.35 -0.09,0.01 -0.13,-7e-5 -0.22,-0.08 -0.08,-0.08 -0.10,-0.11 -0.07,-0.17 0.08,-0.16 1.36,-0.90 1.55,-0.90 0.13,0 0.15,-0.07 0.16,-0.72 0.00,-0.55 0.01,-0.62 0.08,-0.80 0.04,-0.10 0.13,-0.26 0.20,-0.35 0.06,-0.08 0.20,-0.25 0.30,-0.38 0.18,-0.22 0.25,-0.35 0.25,-0.47 0,-0.13 0.14,-0.45 0.34,-0.75 0.24,-0.37 0.90,-1.22 1.17,-1.52 0.11,-0.12 0.21,-0.25 0.23,-0.29 0.01,-0.03 0.04,-0.20 0.05,-0.38 0.02,-0.36 0.11,-0.65 0.25,-0.78 0.05,-0.04 0.19,-0.15 0.31,-0.22 0.37,-0.23 0.42,-0.28 0.40,-0.38 -0.00,-0.06 -0.04,-0.10 -0.12,-0.15 -0.14,-0.07 -0.58,-0.49 -0.61,-0.59 -0.01,-0.03 -0.09,-0.23 -0.18,-0.43 -0.09,-0.20 -0.17,-0.43 -0.19,-0.51 -0.01,-0.08 -0.05,-0.22 -0.09,-0.32 -0.09,-0.23 -0.13,-0.85 -0.10,-1.58 l 0.01,-0.57 -0.11,0 c -0.18,0 -0.37,-0.07 -0.49,-0.19 -0.06,-0.06 -0.18,-0.16 -0.26,-0.23 -0.11,-0.08 -0.16,-0.15 -0.19,-0.25 -0.02,-0.09 -0.08,-0.16 -0.19,-0.24 -0.08,-0.06 -0.15,-0.12 -0.15,-0.14 0,-0.05 0.12,-0.03 0.22,0.03 0.14,0.11 0.43,0.20 0.66,0.20 0.20,0 0.21,0.00 0.28,0.11 0.04,0.06 0.08,0.19 0.10,0.29 0.03,0.19 0.09,0.28 0.16,0.27 0.03,-0.00 0.09,-0.14 0.16,-0.35 0.14,-0.45 0.28,-0.75 0.43,-0.98 0.06,-0.10 0.15,-0.24 0.18,-0.32 0.03,-0.07 0.14,-0.22 0.24,-0.33 0.20,-0.22 0.22,-0.30 0.06,-0.34 -0.05,-0.01 -0.15,-0.04 -0.21,-0.06 -0.09,-0.03 -0.11,-0.03 -0.20,0.02 -0.17,0.12 -0.49,0.25 -0.66,0.28 -0.08,0.01 -0.15,0.03 -0.14,0.05 0.01,0.03 0.13,0.03 0.28,-8.32e-4 0.07,-0.01 0.11,-0.00 0.20,0.09 0.18,0.19 0.18,0.22 0.06,0.33 -0.05,0.05 -0.12,0.13 -0.14,0.18 -0.07,0.15 -0.19,0.16 -0.49,0.03 -0.14,-0.06 -0.31,-0.15 -0.37,-0.20 -0.05,-0.05 -0.16,-0.12 -0.24,-0.16 -0.17,-0.08 -0.28,-0.20 -0.23,-0.25 0.01,-0.01 0.11,-0.04 0.20,-0.06 l 0.16,-0.02 -0.09,-0.06 c -0.05,-0.03 -0.33,-0.16 -0.62,-0.28 -0.31,-0.13 -0.53,-0.23 -0.53,-0.27 -0.00,-0.04 0.00,-0.04 0.13,-0.00 0.27,0.08 0.64,0.20 0.92,0.30 0.25,0.09 0.82,0.07 1.00,-0.02 0.19,-0.11 0.20,-0.16 0.05,-0.30 -0.07,-0.06 -0.12,-0.13 -0.12,-0.15 0,-0.05 0.19,-0.22 0.44,-0.39 0.11,-0.08 0.21,-0.16 0.21,-0.17 3.32e-4,-0.01 -0.04,-0.02 -0.11,-0.00 -0.06,0.01 -0.19,0.03 -0.30,0.05 -0.10,0.01 -0.24,0.04 -0.31,0.05 -0.09,0.01 -0.13,0.00 -0.19,-0.04 -0.10,-0.09 -0.09,-0.13 0.06,-0.32 0.23,-0.26 0.18,-0.29 -0.26,-0.17 -0.17,0.04 -0.47,0.10 -0.66,0.13 -0.34,0.05 -0.36,0.05 -0.65,-0.02 -0.44,-0.11 -0.70,-0.24 -0.95,-0.48 -0.12,-0.11 -0.23,-0.26 -0.26,-0.32 -0.02,-0.06 -0.11,-0.21 -0.19,-0.34 -0.22,-0.34 -0.26,-0.55 -0.11,-0.59 0.07,-0.02 0.48,0.04 0.53,0.09 0.01,0.01 0.07,0.02 0.13,0.02 0.05,0 0.12,0.01 0.15,0.03 0.10,0.05 0.43,0.13 0.72,0.18 0.17,0.02 0.29,0.06 0.30,0.08 0.00,0.02 -0.03,0.09 -0.09,0.14 -0.13,0.12 -0.13,0.15 -0.00,0.25 0.12,0.09 0.12,0.12 0.01,0.29 -0.10,0.14 -0.10,0.16 -0.03,0.21 0.05,0.04 0.05,0.04 0.58,-0.08 0.47,-0.11 1.34,-0.49 1.88,-0.81 0.12,-0.07 0.22,-0.13 0.23,-0.13 0.00,0 0.09,-0.04 0.19,-0.10 0.66,-0.39 1.23,-0.53 1.54,-0.38 0.22,0.11 0.36,0.54 0.22,0.66 -0.07,0.05 -0.12,-0.00 -0.18,-0.20 -0.04,-0.17 -0.19,-0.26 -0.35,-0.23 -0.05,0.01 -0.25,0.12 -0.43,0.24 -0.93,0.62 -0.95,0.68 -0.19,0.55 0.25,-0.04 0.39,-0.04 0.75,-0.01 0.52,0.04 0.60,0.02 0.64,-0.17 0.01,-0.07 0.06,-0.18 0.10,-0.25 0.24,-0.38 0.26,-0.44 0.26,-0.73 0,-0.34 -0.07,-0.46 -0.33,-0.55 -0.09,-0.03 -0.21,-0.08 -0.25,-0.12 C 32.37,10.60 32.08,10.08 32.05,9.85 32.01,9.59 31.93,9.45 31.66,9.19 31.34,8.88 31.17,8.80 30.78,8.80 c -0.19,-0.00 -0.34,0.01 -0.43,0.05 -0.07,0.03 -0.20,0.07 -0.29,0.09 -0.08,0.02 -0.21,0.06 -0.29,0.10 -0.07,0.03 -0.23,0.10 -0.34,0.14 -0.11,0.04 -0.31,0.14 -0.44,0.22 -0.22,0.13 -0.29,0.14 -0.29,0.07 0,-0.07 0.54,-0.37 1.21,-0.67 0.14,-0.06 0.42,-0.14 0.60,-0.18 0.10,-0.02 0.14,-0.04 0.14,-0.10 0.00,-0.04 -0.00,-0.10 -0.02,-0.12 -0.06,-0.07 -0.47,-0.13 -0.86,-0.11 -0.29,0.01 -0.38,0.02 -0.46,0.08 -0.24,0.17 -0.60,0.40 -0.74,0.47 -0.08,0.04 -0.33,0.17 -0.55,0.30 -0.49,0.27 -0.91,0.45 -1.08,0.45 C 26.71,9.61 26.52,9.52 26.12,9.25 25.92,9.11 25.67,8.95 25.55,8.88 25.32,8.75 25.30,8.72 25.39,8.66 c 0.05,-0.03 0.37,0.01 0.46,0.07 0.01,0.01 0.14,0.06 0.27,0.10 0.23,0.07 0.36,0.07 0.36,-1.66e-4 0,-0.05 -0.17,-0.20 -0.35,-0.30 C 25.81,8.38 25.68,8.36 25.08,8.35 c -0.31,-0.00 -0.60,-0.01 -0.64,-0.03 -0.12,-0.04 -0.09,-0.12 0.04,-0.12 0.08,0 0.14,-0.02 0.21,-0.10 L 24.79,7.97 25.29,7.97 c 0.46,-0.00 0.72,0.02 0.96,0.12 0.09,0.03 0.10,0.05 -0.33,-0.44 C 25.52,7.21 24.79,6.86 24.00,6.75 23.86,6.73 23.74,6.63 23.78,6.57 c 0.04,-0.07 0.60,-0.01 0.83,0.08 0.05,0.02 0.21,0.08 0.34,0.14 0.26,0.10 0.50,0.24 0.73,0.44 0.15,0.12 0.22,0.15 0.26,0.09 0.03,-0.05 0.18,-0.03 0.29,0.03 0.11,0.08 0.42,0.20 0.54,0.20 0.04,0 0.10,-0.04 0.15,-0.10 0.05,-0.08 0.09,-0.09 0.14,-0.08 0.09,0.03 0.27,0.03 0.32,0.00 0.06,-0.04 0.00,-0.12 -0.12,-0.16 -0.06,-0.02 -0.24,-0.09 -0.38,-0.16 -0.14,-0.06 -0.33,-0.15 -0.43,-0.19 C 26.38,6.82 26.25,6.76 26.18,6.71 26.12,6.67 25.95,6.60 25.81,6.55 25.67,6.50 25.53,6.44 25.50,6.42 25.37,6.31 25.57,6.08 25.80,6.08 c 0.17,0 0.23,-0.07 0.18,-0.22 -0.06,-0.17 -0.05,-0.22 0.09,-0.32 0.15,-0.11 0.18,-0.16 0.13,-0.25 -0.06,-0.11 -0.03,-0.19 0.12,-0.34 0.16,-0.15 0.18,-0.20 0.11,-0.32 -0.05,-0.10 -0.01,-0.22 0.13,-0.38 0.07,-0.08 0.13,-0.18 0.14,-0.24 0.01,-0.09 0.02,-0.10 0.20,-0.12 0.22,-0.01 0.26,-0.04 0.21,-0.13 -0.05,-0.08 -0.25,-0.14 -0.43,-0.12 -0.20,0.02 -0.28,-0.04 -0.16,-0.15 0.04,-0.03 0.11,-0.07 0.16,-0.07 0.04,0 0.11,-0.02 0.15,-0.04 0.06,-0.04 0.06,-0.04 -0.01,-0.09 -0.13,-0.06 -0.47,-0.02 -0.70,0.08 l -0.19,0.09 -0.28,-0.10 c -0.45,-0.16 -0.49,-0.16 -0.46,0.03 0.02,0.13 0.06,0.62 0.06,0.83 0.00,0.06 -0.02,0.11 -0.08,0.14 -0.20,0.11 -0.38,0.19 -0.43,0.19 -0.12,0 -0.46,0.23 -0.77,0.54 -0.18,0.17 -0.40,0.37 -0.50,0.44 -0.09,0.06 -0.19,0.15 -0.21,0.20 -0.04,0.08 -0.45,0.40 -0.51,0.40 -0.01,0 -0.10,0.05 -0.20,0.12 -0.20,0.13 -0.26,0.14 -0.46,0.05 -0.19,-0.08 -0.48,-0.10 -1.20,-0.06 -0.77,0.04 -0.99,0.07 -1.14,0.15 -0.16,0.09 -0.37,0.16 -0.51,0.16 -0.10,0.00 -0.12,0.01 -0.13,0.10 l -0.01,0.10 -0.27,0.00 c -0.18,0.00 -0.29,-0.00 -0.33,-0.03 C 18.44,6.71 18.34,6.54 18.26,6.36 18.18,6.18 18.06,5.95 17.99,5.86 l -0.12,-0.16 0.07,-0.06 c 0.10,-0.08 0.27,-0.08 0.41,0.01 0.06,0.04 0.16,0.10 0.21,0.14 l 0.09,0.06 -0.05,-0.13 c -0.11,-0.26 -0.11,-0.28 -0.08,-0.31 0.02,-0.01 0.07,0.01 0.12,0.05 0.11,0.09 0.24,0.15 0.26,0.13 0.00,-0.00 -0.00,-0.09 -0.03,-0.18 -0.07,-0.21 -0.03,-0.25 0.16,-0.16 0.18,0.08 0.18,0.08 0.15,-0.00 -0.02,-0.07 -0.48,-0.61 -0.54,-0.64 -0.04,-0.02 -0.27,-0.35 -0.25,-0.37 0.04,-0.04 0.71,0.62 0.86,0.85 0.15,0.23 0.18,0.26 0.35,0.28 0.27,0.04 0.27,0.04 0.28,-0.05 0.01,-0.13 0.09,-0.15 0.21,-0.04 0.12,0.10 0.18,0.08 0.16,-0.06 -0.02,-0.18 0.02,-0.23 0.19,-0.21 0.09,0.01 0.15,0.00 0.17,-0.01 0.03,-0.05 0.17,-0.04 0.22,0.01 0.02,0.02 0.07,0.05 0.11,0.05 0.05,0 0.06,-0.01 0.05,-0.09 -0.02,-0.11 0.00,-0.18 0.07,-0.18 0.02,0 0.18,0.06 0.33,0.14 0.33,0.16 0.41,0.16 0.38,-0.01 -0.03,-0.16 0.00,-0.22 0.15,-0.29 0.15,-0.07 0.21,-0.17 0.18,-0.28 -0.01,-0.04 -0.15,-0.20 -0.31,-0.37 -0.15,-0.16 -0.32,-0.34 -0.37,-0.40 -0.09,-0.12 -0.24,-0.15 -0.28,-0.05 -0.01,0.02 -0.04,0.06 -0.08,0.08 -0.06,0.03 -0.22,-0.04 -0.48,-0.24 -0.07,-0.05 -0.18,-0.10 -0.28,-0.11 -0.15,-0.02 -0.16,-0.01 -0.20,0.06 -0.05,0.11 -0.29,0.22 -0.56,0.25 -0.13,0.01 -0.23,0.04 -0.28,0.08 -0.05,0.05 -0.10,0.06 -0.17,0.04 -0.08,-0.01 -0.11,-0.00 -0.17,0.06 -0.03,0.04 -0.10,0.08 -0.14,0.08 -0.03,0 -0.13,0.02 -0.21,0.05 -0.13,0.05 -0.14,0.05 -0.26,-0.00 -0.11,-0.06 -0.12,-0.06 -0.24,-0.00 -0.12,0.05 -0.12,0.05 -0.22,-0.01 -0.05,-0.03 -0.10,-0.07 -0.11,-0.07 -0.01,0 -0.01,0.08 0.00,0.19 0.02,0.17 0.01,0.19 -0.04,0.19 -0.09,0 -0.22,-0.11 -0.35,-0.30 l -0.11,-0.17 0.09,-0.16 c 0.14,-0.25 0.32,-0.41 0.50,-0.43 0.08,-0.01 0.19,-0.00 0.23,0.01 0.09,0.03 0.20,0.01 0.32,-0.05 0.03,-0.02 0.19,-0.05 0.34,-0.06 0.29,-0.02 0.36,-0.05 0.36,-0.16 0,-0.10 -0.19,-0.42 -0.29,-0.48 -0.04,-0.03 -0.14,-0.05 -0.21,-0.05 -0.09,0 -0.15,-0.02 -0.26,-0.12 -0.19,-0.17 -0.34,-0.16 -0.69,0.03 -0.14,0.08 -0.34,0.22 -0.43,0.31 -0.20,0.19 -0.52,0.58 -0.52,0.64 0,0.04 -0.16,0.21 -0.18,0.18 -0.00,-0.00 9.98e-4,-0.08 0.02,-0.16 0.05,-0.22 0.00,-0.26 -0.31,-0.23 -0.32,0.02 -0.62,0.10 -0.83,0.21 -0.09,0.04 -0.20,0.08 -0.24,0.08 -0.04,0 -0.13,0.04 -0.20,0.09 -0.06,0.05 -0.19,0.13 -0.27,0.18 -0.14,0.08 -0.64,0.59 -0.76,0.78 -0.17,0.26 -0.44,0.47 -0.44,0.33 0,-0.07 0.17,-0.38 0.31,-0.54 0.17,-0.20 0.27,-0.35 0.27,-0.41 0,-0.09 0.22,-0.39 0.44,-0.60 0.19,-0.18 0.60,-0.49 0.65,-0.49 0.00,0 0.06,-0.03 0.12,-0.07 0.05,-0.04 0.19,-0.09 0.29,-0.11 0.10,-0.02 0.27,-0.06 0.36,-0.08 0.09,-0.02 0.18,-0.05 0.20,-0.07 0.01,-0.01 0.17,-0.03 0.34,-0.03 0.24,0 0.32,-0.01 0.40,-0.06 0.11,-0.07 0.37,-0.20 0.71,-0.32 0.13,-0.05 0.36,-0.14 0.51,-0.19 0.18,-0.07 0.36,-0.11 0.57,-0.13 0.33,-0.02 1.57,0.02 1.65,0.06 0.03,0.01 0.11,0.03 0.18,0.04 0.06,0.01 0.24,0.07 0.39,0.14 0.57,0.27 1.11,0.35 1.80,0.29 0.22,-0.02 0.54,-0.03 0.69,-0.03 0.15,0 0.31,-0.01 0.36,-0.03 0.16,-0.06 1.11,0.07 1.22,0.18 0.01,0.01 0.06,0.02 0.10,0.02 0.11,0 0.62,0.25 0.76,0.38 0.26,0.23 0.36,0.28 0.63,0.29 0.43,0.01 0.88,0.15 1.21,0.37 0.11,0.07 0.24,0.15 0.28,0.18 0.04,0.02 0.09,0.07 0.11,0.11 0.04,0.08 0.54,0.58 0.65,0.65 0.04,0.03 0.11,0.11 0.15,0.18 0.03,0.06 0.11,0.14 0.16,0.16 0.05,0.02 0.09,0.05 0.09,0.08 0,0.02 0.02,0.06 0.05,0.08 0.05,0.04 0.19,0.25 0.44,0.63 0.07,0.11 0.21,0.29 0.31,0.40 0.12,0.12 0.18,0.22 0.18,0.28 0,0.04 0.08,0.19 0.18,0.33 0.10,0.14 0.19,0.28 0.20,0.32 0.01,0.04 0.05,0.09 0.10,0.12 0.04,0.03 0.09,0.10 0.10,0.17 0.02,0.13 0.17,0.44 0.30,0.61 0.04,0.06 0.12,0.20 0.18,0.31 0.05,0.11 0.16,0.27 0.25,0.35 0.09,0.09 0.15,0.18 0.16,0.27 0.01,0.08 0.04,0.13 0.11,0.17 0.12,0.07 0.19,0.19 0.22,0.39 0.01,0.08 0.06,0.24 0.10,0.34 0.11,0.26 0.30,0.38 0.75,0.48 0.31,0.07 0.35,0.09 0.55,0.25 0.11,0.09 0.24,0.19 0.28,0.21 0.14,0.07 0.45,0.81 0.46,1.10 0.00,0.14 -0.01,0.20 -0.09,0.31 -0.05,0.07 -0.11,0.22 -0.13,0.32 -0.03,0.14 -0.06,0.19 -0.16,0.26 -0.14,0.09 -0.22,0.21 -0.19,0.29 0.01,0.02 0.08,0.07 0.15,0.09 0.17,0.04 0.38,0.26 0.42,0.43 0.09,0.37 0.09,0.40 0.02,0.54 -0.03,0.07 -0.06,0.18 -0.06,0.24 0,0.06 -0.01,0.15 -0.04,0.20 -0.05,0.12 0.02,0.20 0.27,0.27 0.10,0.03 0.23,0.07 0.29,0.10 0.05,0.02 0.11,0.04 0.14,0.04 0.02,0 0.19,0.06 0.36,0.14 0.28,0.13 0.34,0.17 0.47,0.34 0.08,0.11 0.21,0.31 0.27,0.44 0.11,0.23 0.13,0.25 0.43,0.43 0.36,0.21 0.77,0.62 0.94,0.93 0.05,0.10 0.13,0.22 0.16,0.27 0.03,0.04 0.07,0.15 0.10,0.25 0.02,0.09 0.05,0.22 0.07,0.27 0.06,0.16 0.02,0.67 -0.07,1.19 -0.03,0.16 -0.03,0.19 0.04,0.32 0.04,0.07 0.09,0.17 0.10,0.22 0.01,0.04 0.08,0.18 0.16,0.32 0.07,0.13 0.13,0.27 0.13,0.29 0,0.06 0.16,0.41 0.25,0.54 0.07,0.11 0.07,0.14 -0.03,1.30 -0.07,0.71 -0.09,1.88 -0.04,2.07 0.01,0.06 0.04,0.38 0.05,0.72 0.02,0.78 0.10,1.47 0.19,1.78 0.06,0.21 0.06,0.24 0.01,0.27 -0.02,0.02 -0.10,0.14 -0.16,0.27 -0.06,0.13 -0.17,0.34 -0.25,0.46 -0.08,0.12 -0.18,0.27 -0.22,0.34 -0.11,0.18 -0.48,0.96 -0.51,1.06 -0.01,0.04 -0.07,0.21 -0.13,0.36 -0.06,0.15 -0.12,0.33 -0.13,0.41 -0.01,0.07 -0.05,0.20 -0.10,0.29 -0.12,0.25 -0.21,0.58 -0.17,0.62 0.05,0.05 0.24,-0.11 0.28,-0.26 0.04,-0.14 0.13,-0.17 0.70,-0.22 0.22,-0.01 0.50,-0.05 0.62,-0.06 0.11,-0.01 0.34,-0.04 0.51,-0.05 0.17,-0.00 0.39,-0.04 0.50,-0.07 0.43,-0.12 0.57,-0.09 0.64,0.15 0.02,0.08 0.03,0.20 0.02,0.25 -0.02,0.12 -0.04,0.26 -0.06,0.81 -0.01,0.32 -0.03,0.46 -0.08,0.55 -0.12,0.23 -0.32,0.57 -0.50,0.84 -0.10,0.15 -0.20,0.32 -0.22,0.38 -0.02,0.05 -0.11,0.22 -0.20,0.38 -0.08,0.15 -0.20,0.38 -0.25,0.51 -0.20,0.52 -0.24,0.61 -0.36,0.74 -0.10,0.10 -0.14,0.13 -0.25,0.13 -0.11,0 -0.13,-0.01 -0.19,-0.14 -0.07,-0.18 -0.15,-0.25 -0.31,-0.28 -0.20,-0.04 -0.25,-0.09 -0.26,-0.30 -0.00,-0.09 -0.04,-0.35 -0.09,-0.55 -0.04,-0.20 -0.08,-0.40 -0.08,-0.44 0,-0.03 0.08,-0.15 0.18,-0.26 0.10,-0.10 0.24,-0.30 0.31,-0.43 0.10,-0.19 0.44,-0.71 0.73,-1.12 0.04,-0.05 0.04,-0.06 -0.00,-0.06 -0.02,0 -0.08,0.04 -0.12,0.10 -0.04,0.05 -0.09,0.10 -0.11,0.10 -0.02,0 -0.14,0.09 -0.27,0.20 -0.12,0.11 -0.24,0.20 -0.25,0.20 -0.01,0 -0.08,0.07 -0.16,0.17 -0.16,0.21 -0.21,0.23 -0.44,0.19 -0.40,-0.07 -0.51,-0.18 -0.48,-0.47 0.02,-0.19 -0.02,-0.30 -0.11,-0.24 -0.02,0.01 -0.11,0.19 -0.20,0.40 -0.09,0.20 -0.23,0.48 -0.31,0.60 -0.37,0.59 -0.49,0.79 -0.49,0.84 0,0.05 0.20,0.37 0.52,0.81 0.07,0.10 0.17,0.24 0.21,0.31 0.04,0.06 0.13,0.19 0.20,0.27 0.07,0.08 0.18,0.24 0.25,0.34 0.21,0.34 1.54,1.64 1.98,1.93 0.06,0.04 0.19,0.14 0.28,0.22 0.08,0.07 0.25,0.21 0.37,0.31 0.12,0.09 0.27,0.22 0.34,0.27 0.06,0.05 0.23,0.17 0.36,0.26 0.35,0.24 0.77,0.60 0.81,0.70 0.08,0.21 0.08,0.31 0.00,0.40 -0.05,0.05 -0.11,0.08 -0.19,0.08 -0.15,0 -0.63,-0.15 -0.76,-0.25 -0.05,-0.04 -0.17,-0.12 -0.26,-0.19 -0.16,-0.12 -0.65,-0.58 -1.59,-1.52 -0.73,-0.72 -1.08,-1.03 -1.15,-1.03 -0.03,0 -0.11,0.03 -0.17,0.06 -0.08,0.05 -0.17,0.06 -0.43,0.06 -0.18,-8.32e-4 -0.42,0.02 -0.55,0.05 -0.41,0.09 -1.10,0.36 -1.30,0.50 -0.10,0.07 -0.28,0.20 -0.39,0.27 -0.51,0.36 -0.68,0.65 -0.68,1.17 0,0.27 -0.00,0.30 -0.08,0.38 -0.10,0.10 -0.10,0.20 -0.00,0.34 0.04,0.06 0.14,0.21 0.21,0.32 0.06,0.11 0.18,0.27 0.26,0.36 0.07,0.08 0.20,0.29 0.29,0.44 0.08,0.15 0.22,0.39 0.31,0.52 0.08,0.13 0.17,0.29 0.20,0.36 0.08,0.22 0.12,0.29 0.25,0.47 0.07,0.09 0.13,0.21 0.15,0.25 0.02,0.08 0.09,0.20 0.51,0.93 0.28,0.49 0.27,0.46 0.37,0.70 0.05,0.11 0.10,0.23 0.12,0.25 0.01,0.02 0.05,0.09 0.07,0.13 0.03,0.08 0.24,0.40 0.47,0.74 0.05,0.07 0.14,0.23 0.20,0.36 0.06,0.12 0.15,0.26 0.20,0.31 0.04,0.05 0.12,0.14 0.16,0.21 0.13,0.22 0.25,0.38 0.31,0.43 0.15,0.12 0.21,0.53 0.09,0.68 -0.08,0.10 -0.27,0.13 -0.40,0.06 z m -4.08,-8.40 c 0.10,-0.77 0.17,-0.92 0.70,-1.54 0.27,-0.31 0.16,-0.30 -0.33,0.02 -0.18,0.12 -0.35,0.23 -0.38,0.26 -0.11,0.09 -0.33,0.43 -0.40,0.61 -0.08,0.20 -0.07,0.28 0.05,0.47 0.03,0.05 0.10,0.16 0.15,0.24 0.05,0.08 0.11,0.14 0.13,0.13 0.02,-0.00 0.05,-0.10 0.06,-0.21 z M 19.64,36.01 c 0.01,-0.03 -0.00,-0.16 -0.03,-0.28 -0.03,-0.12 -0.06,-0.28 -0.07,-0.36 -0.01,-0.07 -0.05,-0.26 -0.10,-0.41 -0.14,-0.49 -0.16,-0.65 -0.13,-1.10 0.04,-0.80 0.06,-0.92 0.30,-1.62 0.11,-0.33 0.40,-0.95 0.53,-1.13 0.06,-0.09 0.10,-0.18 0.09,-0.19 -0.01,-0.01 -0.08,0.02 -0.16,0.08 -0.19,0.16 -0.25,0.17 -0.49,0.08 -0.34,-0.12 -0.33,-0.12 -0.46,0.05 -0.21,0.29 -0.40,0.73 -0.44,1.02 -0.02,0.14 -0.02,0.28 -0.01,0.29 0.01,0.01 0.08,0.05 0.16,0.09 0.09,0.04 0.16,0.11 0.21,0.19 0.06,0.11 0.06,0.13 0.02,0.26 -0.03,0.11 -0.03,0.20 -0.00,0.44 0.02,0.16 0.04,0.46 0.05,0.66 0.03,0.62 0.17,1.36 0.31,1.68 0.13,0.29 0.19,0.35 0.24,0.22 z m 6.97,-0.57 c 0.07,-0.11 0.06,-0.13 -0.05,-0.11 -0.12,0.01 -0.18,0.08 -0.12,0.14 0.05,0.06 0.12,0.05 0.18,-0.03 z m 0.46,-0.42 c 0.18,-0.19 0.31,-0.42 0.31,-0.56 9.98e-4,-0.09 -0.11,-0.22 -0.18,-0.19 -0.02,0.01 -0.08,0.12 -0.12,0.25 -0.04,0.12 -0.12,0.32 -0.17,0.43 -0.09,0.18 -0.10,0.26 -0.03,0.26 0.01,0 0.10,-0.08 0.20,-0.18 z m -8.98,0.01 c -0.05,-0.44 -0.07,-0.54 -0.10,-0.62 -0.03,-0.06 -0.03,-0.18 -0.02,-0.43 0.02,-0.37 0.01,-0.40 -0.15,-0.51 -0.05,-0.03 -0.09,-0.07 -0.09,-0.10 -1.66e-4,-0.04 -0.21,-0.27 -0.32,-0.35 -0.06,-0.04 -0.06,-0.08 -0.06,-0.49 1.38e-4,-0.42 0.06,-0.80 0.15,-0.98 0.01,-0.03 0.03,-0.08 0.03,-0.10 0,-0.06 0.21,-0.52 0.35,-0.76 0.11,-0.19 0.13,-0.26 0.05,-0.26 -0.01,0 -0.05,0.03 -0.09,0.07 -0.03,0.04 -0.11,0.13 -0.18,0.21 -0.06,0.07 -0.15,0.20 -0.19,0.28 -0.04,0.07 -0.08,0.15 -0.10,0.16 -0.01,0.01 -0.10,0.24 -0.19,0.51 -0.14,0.46 -0.16,0.51 -0.17,0.94 -0.02,0.69 0.04,0.98 0.33,1.58 0.10,0.22 0.24,0.43 0.37,0.58 0.11,0.12 0.22,0.26 0.24,0.30 0.05,0.10 0.19,0.07 0.17,-0.03 z m 2.43,-0.51 c -0.05,-1.01 0.20,-1.94 0.77,-2.79 0.12,-0.19 0.12,-0.27 -0.01,-0.34 -0.25,-0.13 -0.30,-0.26 -0.14,-0.44 0.04,-0.05 0.12,-0.16 0.17,-0.24 0.28,-0.44 0.78,-0.85 1.16,-0.95 0.17,-0.04 0.21,-0.06 0.22,-0.13 0.02,-0.20 -0.44,0.03 -1.37,0.69 -0.18,0.13 -0.64,0.68 -0.77,0.93 -0.05,0.10 -0.16,0.30 -0.25,0.45 -0.21,0.37 -0.22,0.47 -0.06,0.68 0.06,0.08 0.13,0.20 0.15,0.25 0.05,0.13 0.04,0.88 -5e-4,1.22 -0.02,0.16 -0.03,0.39 -0.02,0.53 0.04,0.47 0.06,0.56 0.13,0.51 0.02,-0.01 0.03,-0.14 0.01,-0.38 z m 0.88,0.26 c 0.00,-0.06 0.01,-0.23 0.00,-0.38 -0.00,-0.23 0.03,-0.57 0.11,-0.94 0.00,-0.04 0.06,-0.13 0.11,-0.19 0.09,-0.11 0.11,-0.11 0.43,-0.14 0.38,-0.02 0.43,-0.06 0.50,-0.31 0.02,-0.09 0.08,-0.20 0.15,-0.27 0.06,-0.06 0.12,-0.16 0.13,-0.21 0.00,-0.05 0.04,-0.16 0.07,-0.26 0.05,-0.15 0.04,-0.17 -0.00,-0.23 -0.05,-0.05 -0.08,-0.06 -0.23,-0.04 -0.17,0.02 -0.18,0.01 -0.25,-0.09 -0.04,-0.06 -0.08,-0.13 -0.10,-0.16 -0.05,-0.08 -0.14,7e-5 -0.35,0.30 -0.55,0.84 -0.77,1.55 -0.77,2.53 4.99e-4,0.45 0.01,0.53 0.11,0.53 0.04,0 0.07,-0.03 0.08,-0.11 z m 4.92,-0.51 c 0.09,-0.19 0.10,-0.38 0.01,-0.45 -0.12,-0.11 -0.25,-0.10 -0.58,0.03 -0.16,0.07 -0.36,0.14 -0.44,0.16 -0.17,0.03 -0.26,0.07 -0.26,0.14 0,0.04 0.03,0.05 0.18,0.03 0.28,-0.03 0.59,0.02 0.78,0.14 0.08,0.05 0.17,0.10 0.19,0.09 0.01,-0.00 0.06,-0.07 0.11,-0.16 z m -1.76,-0.97 c 0.03,-0.05 0.11,-0.17 0.17,-0.26 0.06,-0.08 0.16,-0.24 0.22,-0.36 0.06,-0.11 0.19,-0.29 0.29,-0.40 0.44,-0.44 0.55,-0.58 0.53,-0.63 -0.05,-0.13 -0.34,-0.01 -0.51,0.21 -0.05,0.07 -0.15,0.18 -0.22,0.25 -0.22,0.22 -0.55,0.85 -0.64,1.23 -0.02,0.12 0.08,0.09 0.15,-0.03 z m -0.93,-0.83 c 0.11,-0.03 0.18,-0.11 0.18,-0.22 -4.99e-4,-0.08 -0.26,-0.35 -0.34,-0.35 -0.06,0 -0.25,0.29 -0.29,0.46 -0.04,0.16 8.33e-4,0.20 0.18,0.17 0.09,-0.01 0.21,-0.03 0.27,-0.05 z m 4.88,-1.86 c 0.21,-0.26 0.62,-0.85 0.68,-0.97 0.02,-0.05 0.39,-0.59 0.52,-0.77 0.13,-0.19 0.34,-0.58 0.34,-0.66 0,-0.07 -0.09,-0.16 -0.17,-0.16 -0.06,0 -0.17,0.18 -0.34,0.58 -0.04,0.10 -0.13,0.27 -0.21,0.38 -0.07,0.10 -0.18,0.30 -0.26,0.43 -0.15,0.28 -0.30,0.50 -0.53,0.76 -0.17,0.20 -0.41,0.64 -0.38,0.69 0.04,0.07 0.12,0.01 0.36,-0.28 z m -8.06,-0.04 c 0.02,-0.02 0.03,-0.06 0.01,-0.08 -0.03,-0.04 -0.15,0.01 -0.15,0.08 0,0.06 0.08,0.06 0.13,3.33e-4 z m 4.38,-0.16 c -0.02,-0.06 -0.09,-0.07 -0.09,-0.01 0,0.03 0.02,0.05 0.05,0.05 0.03,0 0.04,-0.01 0.04,-0.04 z m -4.16,-0.11 c 0.00,-0.01 -0.01,-0.03 -0.03,-0.04 -0.02,-0.00 -0.04,0.01 -0.04,0.04 0,0.05 0.06,0.06 0.07,0.00 z m 3.62,-0.17 c 0,-0.03 -0.02,-0.04 -0.05,-0.04 -0.08,0.01 -0.09,0.09 -0.01,0.09 0.04,0 0.07,-0.02 0.07,-0.05 z m 5.45,-2.66 c 0.01,-0.09 -0.08,-0.17 -0.13,-0.12 -0.02,0.02 -0.02,0.06 0.00,0.12 0.04,0.10 0.12,0.09 0.13,-0.00 z m 7.99,-2.64 c -0.07,-0.44 -0.10,-0.74 -0.08,-0.92 0.01,-0.10 0.02,-0.44 0.03,-0.74 0.00,-0.31 0.03,-0.59 0.05,-0.63 0.05,-0.09 0.11,-1.12 0.09,-1.56 -0.01,-0.34 -0.01,-0.36 -0.19,-0.73 -0.10,-0.20 -0.20,-0.40 -0.22,-0.43 -0.02,-0.02 -0.06,-0.12 -0.09,-0.22 -0.08,-0.29 -0.21,-0.55 -0.31,-0.62 -0.55,-0.41 -0.76,-0.58 -0.95,-0.77 -0.12,-0.12 -0.27,-0.25 -0.34,-0.29 -0.06,-0.03 -0.18,-0.12 -0.26,-0.19 -0.16,-0.15 -0.22,-0.15 -0.24,-0.00 -0.01,0.11 -0.05,0.15 -0.18,0.15 -0.09,4.99e-4 -0.53,-0.15 -0.60,-0.21 -0.03,-0.03 -0.17,-0.27 -0.36,-0.62 -0.07,-0.15 -0.05,-0.23 0.07,-0.25 0.07,-0.01 0.10,-0.08 0.04,-0.12 -0.05,-0.03 -0.06,-0.18 -0.02,-0.24 0.03,-0.04 0.05,-0.04 0.22,0.02 l 0.18,0.07 0.13,-0.09 c 0.07,-0.05 0.20,-0.13 0.28,-0.18 0.18,-0.11 0.19,-0.20 0.02,-0.28 -0.24,-0.12 -0.66,-0.06 -0.99,0.14 -0.11,0.07 -0.23,0.13 -0.24,0.13 -0.01,0 -0.11,0.09 -0.22,0.20 -0.27,0.29 -0.25,0.37 0.05,0.21 0.21,-0.10 0.32,0.07 0.24,0.38 -0.06,0.23 -0.05,0.37 0.00,0.43 0.05,0.04 0.25,0.43 0.25,0.49 0,0.04 0.09,0.23 0.23,0.48 0.20,0.36 0.69,0.84 1.02,1.02 0.42,0.23 0.45,0.28 0.57,0.99 0.04,0.27 0.22,0.76 0.32,0.86 0.05,0.05 0.05,0.07 0.00,0.19 -0.07,0.18 -0.20,1.35 -0.16,1.47 0.01,0.05 0.10,0.16 0.19,0.25 0.08,0.09 0.19,0.23 0.23,0.31 0.04,0.08 0.12,0.19 0.17,0.24 0.05,0.04 0.15,0.16 0.22,0.26 0.21,0.28 0.80,0.98 0.83,0.98 0.00,0 8.32e-4,-0.08 -0.01,-0.18 z M 12.51,24.40 c 0.02,-0.06 -0.11,-0.30 -0.31,-0.52 -0.13,-0.14 -0.15,-0.16 -0.20,-0.12 -0.12,0.09 0.05,0.43 0.32,0.61 0.14,0.09 0.16,0.09 0.19,0.03 z m 0.08,-1.08 c -0.04,-0.13 -0.08,-0.25 -0.10,-0.26 -0.06,-0.04 -0.13,0.05 -0.13,0.19 0,0.10 0.02,0.15 0.12,0.26 0.17,0.18 0.21,0.12 0.12,-0.18 z m 18.46,-1.48 c -0.01,-0.07 -0.07,-0.07 -0.09,-0.00 -0.00,0.03 0.00,0.06 0.04,0.06 0.03,0 0.05,-0.02 0.04,-0.05 z m -0.01,-1.64 c 0.02,-0.06 -0.17,-0.56 -0.24,-0.57 -0.06,-0.01 -0.06,0.06 -0.00,0.27 0.08,0.26 0.20,0.41 0.24,0.29 z m 1.76,-1.22 c 0.09,-0.33 0.23,-0.40 0.40,-0.21 0.05,0.05 0.11,0.09 0.13,0.08 0.02,-0.00 0.08,-0.13 0.12,-0.27 0.06,-0.19 0.11,-0.28 0.21,-0.37 0.07,-0.06 0.14,-0.16 0.15,-0.21 0.02,-0.11 -0.04,-0.47 -0.09,-0.45 -0.02,0.00 -0.06,0.10 -0.09,0.21 -0.03,0.11 -0.07,0.25 -0.09,0.30 -0.02,0.05 -0.04,0.14 -0.05,0.19 -0.01,0.06 -0.05,0.10 -0.15,0.14 -0.19,0.07 -0.28,0.07 -0.44,-0.04 -0.16,-0.12 -0.19,-0.12 -0.24,-0.03 -0.03,0.06 -0.01,0.78 0.01,0.84 0.04,0.06 0.08,0.01 0.13,-0.17 z m -1.36,-0.01 c 0.03,-0.16 0.21,-0.37 0.30,-0.37 0.08,0 0.16,0.10 0.23,0.29 0.07,0.20 0.16,0.22 0.15,0.02 -0.01,-0.37 -0.01,-0.66 0.00,-0.76 0.01,-0.07 0.00,-0.12 -0.04,-0.19 -0.08,-0.10 -0.21,-0.12 -0.36,-0.05 -0.07,0.03 -0.11,0.02 -0.24,-0.04 -0.11,-0.06 -0.16,-0.07 -0.19,-0.04 -0.10,0.10 -0.05,1.22 0.05,1.29 0.04,0.03 0.05,0.02 0.09,-0.15 z m -0.80,-0.64 c 0,-0.63 0.05,-0.99 0.22,-1.50 0.07,-0.23 0.16,-0.39 0.48,-0.92 0.13,-0.22 0.36,-0.49 0.51,-0.61 0.11,-0.08 0.15,-0.14 0.15,-0.21 0.00,-0.08 -0.01,-0.09 -0.22,-0.15 -0.29,-0.07 -0.39,-0.04 -0.68,0.22 l -0.21,0.20 0.04,0.11 c 0.09,0.21 0.08,0.39 -0.00,0.59 -0.10,0.21 -0.19,0.46 -0.19,0.56 -3.33e-4,0.03 -0.05,0.17 -0.12,0.30 -0.06,0.13 -0.12,0.25 -0.12,0.28 0,0.02 -0.06,0.09 -0.13,0.16 -0.15,0.13 -0.31,0.16 -0.41,0.07 -0.14,-0.13 -0.24,0.06 -0.24,0.52 -1.66e-4,0.32 0.05,0.42 0.24,0.42 0.13,0 0.29,0.08 0.34,0.18 0.07,0.13 0.24,0.33 0.29,0.33 0.03,0 0.04,-0.12 0.04,-0.58 z M 14.10,18.58 c 0.01,-0.14 0.01,-0.14 -0.10,-0.13 -0.16,0.01 -0.19,0.09 -0.09,0.21 0.11,0.13 0.18,0.10 0.19,-0.07 z m -2.86,-0.43 c 0,-0.02 -0.02,-0.05 -0.05,-0.05 -0.05,0 -0.06,0.04 -0.02,0.08 0.03,0.03 0.08,0.02 0.08,-0.02 z m 2.42,-0.15 c 0,-0.01 -0.01,-0.03 -0.03,-0.03 -0.01,0 -0.03,0.01 -0.03,0.03 0,0.01 0.01,0.03 0.03,0.03 0.01,0 0.03,-0.01 0.03,-0.03 z m -2.14,-0.52 c -1.04e-4,-0.02 -0.05,-0.10 -0.11,-0.17 -0.06,-0.07 -0.15,-0.19 -0.21,-0.28 -0.05,-0.08 -0.18,-0.25 -0.28,-0.36 -0.25,-0.27 -0.33,-0.49 -0.18,-0.53 0.10,-0.02 0.08,-0.10 -0.07,-0.23 -0.26,-0.22 -0.26,-0.22 -0.50,-0.13 -0.27,0.09 -0.30,0.16 -0.24,0.42 0.07,0.34 0.36,0.69 0.81,0.99 0.07,0.05 0.15,0.09 0.17,0.09 0.02,0 0.16,0.05 0.30,0.11 0.31,0.13 0.32,0.13 0.32,0.08 z M 34.59,16.91 c 0,-0.04 -0.06,-0.08 -0.09,-0.05 -0.02,0.02 0.01,0.09 0.05,0.09 0.01,0 0.03,-0.01 0.03,-0.03 z m -1.35,-0.94 c 0.28,-0.23 0.27,-0.29 -0.05,-0.40 -0.13,-0.04 -0.27,-0.10 -0.31,-0.12 -0.04,-0.02 -0.10,-0.04 -0.14,-0.04 -0.10,0 -0.36,0.18 -0.49,0.34 -0.19,0.24 -0.19,0.24 -0.00,0.23 0.09,-0.00 0.22,0.02 0.30,0.05 0.12,0.05 0.29,0.10 0.43,0.11 0.03,0.00 0.15,-0.07 0.26,-0.17 z M 10.61,15.36 c 0.00,-0.02 -0.01,-0.04 -0.05,-0.04 -0.07,0 -0.09,0.03 -0.04,0.08 0.03,0.03 0.08,0.01 0.10,-0.04 z m 0.28,-0.41 c -0.04,-0.07 -0.20,-0.21 -0.25,-0.21 -0.01,0 -0.02,0.03 -0.02,0.07 0.00,0.04 0.06,0.10 0.14,0.15 0.15,0.08 0.17,0.08 0.12,-0.01 z m -0.64,-0.23 c 0.02,-0.09 0.04,-0.30 0.04,-0.46 -7.65e-4,-0.16 0.00,-0.38 0.02,-0.50 l 0.02,-0.20 -0.21,-0.12 C 9.83,13.25 9.74,13.15 9.58,12.81 9.50,12.64 9.42,12.51 9.41,12.50 c -0.04,-0.02 -0.12,0.06 -0.27,0.29 -0.22,0.34 -0.30,0.55 -0.33,0.84 -0.02,0.23 -0.01,0.27 0.08,0.48 0.06,0.13 0.15,0.25 0.22,0.31 0.16,0.12 0.99,0.47 1.07,0.45 0.01,-0.00 0.05,-0.08 0.07,-0.17 z m 0.89,-0.11 c 0.01,-0.01 -0.00,-0.05 -0.03,-0.08 -0.07,-0.07 -0.14,-0.01 -0.08,0.06 0.05,0.06 0.09,0.06 0.12,0.02 z m -0.61,-3.41 c 0.00,-0.09 -0.01,-0.20 -0.06,-0.30 l -0.07,-0.16 0.07,-0.06 c 0.04,-0.03 0.09,-0.06 0.10,-0.06 0.01,-3.32e-4 0.02,-0.09 0.02,-0.21 5.99e-4,-0.25 0.04,-0.36 0.18,-0.44 0.08,-0.04 0.10,-0.08 0.11,-0.19 0.00,-0.15 -0.15,-0.50 -0.24,-0.52 -0.08,-0.01 -0.29,0.28 -0.36,0.50 -0.09,0.31 -0.05,1.24 0.06,1.53 0.06,0.15 0.15,0.11 0.16,-0.06 z M 27.01,8.56 c -1.66e-4,-0.04 -0.18,-0.16 -0.25,-0.16 -0.02,0 0.00,0.04 0.06,0.10 0.10,0.10 0.19,0.13 0.19,0.06 z M 20.82,42.88 c -0.04,-0.05 -0.06,-0.10 -0.05,-0.14 0.03,-0.11 0.08,-0.51 0.08,-0.69 5e-4,-0.09 0.03,-0.29 0.07,-0.44 0.04,-0.15 0.07,-0.37 0.08,-0.50 0.00,-0.15 0.02,-0.25 0.06,-0.31 0.03,-0.04 0.05,-0.10 0.05,-0.12 0,-0.02 0.03,-0.11 0.07,-0.20 0.03,-0.08 0.08,-0.21 0.08,-0.28 0.04,-0.30 0.52,-1.23 0.66,-1.27 0.07,-0.02 0.02,0.19 -0.11,0.48 -0.19,0.41 -0.40,1.09 -0.46,1.49 -0.01,0.11 -0.05,0.31 -0.08,0.44 -0.03,0.13 -0.07,0.45 -0.10,0.70 -0.07,0.71 -0.07,0.74 -0.18,0.84 l -0.09,0.09 -0.07,-0.08 z M 33.02,30.73 c -0.08,-0.06 -0.07,-0.24 0.03,-0.39 0.07,-0.10 0.08,-0.16 0.07,-0.28 -0.01,-0.14 0.05,-0.40 0.19,-0.72 0.03,-0.07 0.05,-0.17 0.05,-0.24 3.32e-4,-0.13 0.07,-0.38 0.15,-0.54 0.03,-0.05 0.05,-0.14 0.05,-0.18 0,-0.11 0.08,-0.18 0.15,-0.12 0.12,0.10 0.16,0.24 0.14,0.51 -0.02,0.27 -0.16,0.97 -0.24,1.17 -0.02,0.06 -0.06,0.17 -0.09,0.23 -0.06,0.16 -0.29,0.50 -0.38,0.56 -0.06,0.04 -0.09,0.04 -0.13,0.00 z m 1.80,-1.92 c 1.03e-4,-0.04 0.02,-0.12 0.05,-0.17 0.02,-0.05 0.05,-0.11 0.05,-0.13 0,-0.01 0.03,-0.11 0.08,-0.21 0.16,-0.34 0.26,-0.57 0.26,-0.59 0,-0.01 0.02,-0.07 0.04,-0.13 0.02,-0.05 0.05,-0.13 0.06,-0.17 0.01,-0.03 0.04,-0.05 0.06,-0.04 0.11,0.04 -0.04,0.72 -0.29,1.21 -0.14,0.28 -0.33,0.43 -0.33,0.25 z m -3.90,-1.35 c 0,-0.15 0.06,-0.24 0.27,-0.43 0.22,-0.18 0.30,-0.19 0.26,-0.02 -0.02,0.10 -0.42,0.54 -0.49,0.54 -0.02,0 -0.04,-0.03 -0.04,-0.08 z m 2.94,-0.09 c -0.04,-0.11 -0.11,-0.64 -0.09,-0.67 0.03,-0.03 0.16,0.11 0.19,0.23 0.01,0.06 0.04,0.18 0.07,0.26 0.02,0.08 0.03,0.16 0.02,0.19 -0.03,0.08 -0.15,0.06 -0.19,-0.02 z m -14.99,0.00 c -0.25,-0.03 -0.43,-0.14 -0.66,-0.39 -0.25,-0.28 -0.35,-0.45 -0.29,-0.51 0.06,-0.06 0.13,-0.00 0.30,0.23 0.15,0.22 0.25,0.26 0.33,0.14 0.04,-0.07 0.07,-0.08 0.33,-0.07 0.25,0.00 0.29,-0.00 0.35,-0.07 0.04,-0.04 0.19,-0.11 0.40,-0.16 0.39,-0.10 0.38,-0.10 0.46,-0.02 0.08,0.09 0.10,0.08 0.18,-0.06 0.04,-0.09 0.10,-0.14 0.16,-0.15 0.28,-0.06 0.38,-0.09 0.49,-0.16 0.15,-0.08 0.20,-0.15 0.20,-0.25 0,-0.07 -0.00,-0.07 -0.16,-0.04 -0.22,0.04 -1.06,0.27 -1.63,0.45 -0.15,0.04 -0.91,0.04 -1.04,-0.00 -0.15,-0.06 -0.10,-0.15 0.09,-0.18 0.09,-0.01 0.32,-0.08 0.51,-0.15 0.52,-0.18 0.66,-0.22 1.02,-0.25 0.18,-0.01 0.42,-0.05 0.53,-0.08 0.45,-0.11 0.52,-0.13 0.67,-0.16 0.08,-0.01 0.22,-0.06 0.31,-0.11 0.13,-0.06 0.16,-0.09 0.18,-0.22 0.03,-0.15 0.08,-0.18 0.14,-0.07 0.05,0.08 0.09,0.08 0.21,-0.00 0.17,-0.13 0.28,-0.00 0.12,0.13 -0.10,0.09 -0.10,0.11 -0.01,0.19 0.09,0.08 0.08,0.20 -0.03,0.38 -0.05,0.08 -0.10,0.16 -0.10,0.18 0,0.09 -0.19,0.36 -0.38,0.52 -0.11,0.10 -0.25,0.22 -0.30,0.26 -0.22,0.21 -0.37,0.28 -1.05,0.52 -0.43,0.15 -0.93,0.20 -1.38,0.13 z m 3.06,-1.97 c 0.03,-0.04 0.06,-0.08 0.05,-0.08 -0.02,-0.02 -0.14,0.05 -0.17,0.11 -0.02,0.07 0.03,0.06 0.11,-0.02 z m 12.57,0.96 c -0.03,-0.02 -0.07,-0.04 -0.08,-0.04 -0.04,-0.03 -0.14,-0.70 -0.14,-0.95 -3.33e-4,-0.25 0.00,-0.30 0.06,-0.33 0.16,-0.08 0.42,0.45 0.47,0.99 0.02,0.21 0.01,0.24 -0.04,0.31 -0.08,0.08 -0.15,0.09 -0.26,0.03 z M 16.68,26.06 c -0.01,-0.02 0.01,-0.09 0.05,-0.14 0.03,-0.05 0.07,-0.14 0.07,-0.19 7e-5,-0.18 0.08,-0.58 0.16,-0.73 0.10,-0.19 0.42,-0.48 0.58,-0.53 0.22,-0.05 0.82,-0.08 0.90,-0.04 0.08,0.04 0.14,0.02 0.41,-0.19 0.10,-0.08 0.21,-0.15 0.24,-0.15 0.02,-1.39e-4 0.09,-0.02 0.15,-0.05 0.41,-0.22 0.59,-0.27 1.19,-0.31 0.45,-0.03 1.12,0.03 1.57,0.15 0.24,0.06 0.98,0.07 1.22,0.00 0.20,-0.05 0.23,-0.01 0.16,0.20 -0.08,0.29 -0.06,0.27 -0.57,0.60 -0.10,0.06 -0.21,0.15 -0.25,0.19 -0.10,0.11 -0.13,0.09 -0.10,-0.09 0.01,-0.09 0.02,-0.23 0.03,-0.31 l 0.00,-0.15 -0.50,0.00 c -0.51,0.00 -0.95,0.04 -1.41,0.13 -0.14,0.02 -0.35,0.05 -0.46,0.06 -0.25,0.02 -0.59,0.12 -0.86,0.25 -0.30,0.14 -0.42,0.18 -0.67,0.21 -0.38,0.05 -0.53,0.09 -0.68,0.20 -0.07,0.05 -0.15,0.10 -0.17,0.10 -0.01,0 -0.06,0.03 -0.10,0.08 -0.05,0.07 -0.06,0.11 -0.03,0.24 0.01,0.08 0.04,0.18 0.06,0.22 0.05,0.09 0.04,0.20 -0.02,0.23 -0.03,0.01 -0.10,0.00 -0.17,-0.02 -0.09,-0.03 -0.16,-0.03 -0.37,0.01 -0.32,0.06 -0.39,0.06 -0.42,0.00 z m 19.44,0.02 c -0.01,-0.01 0.01,-0.14 0.06,-0.28 0.04,-0.13 0.09,-0.30 0.11,-0.35 0.01,-0.07 0.05,-0.10 0.09,-0.10 0.06,0 0.06,0.02 0.06,0.19 -0.00,0.19 -0.11,0.51 -0.19,0.56 -0.05,0.03 -0.11,0.03 -0.14,-0.00 z m -5.90,-1.11 c -0.10,-0.01 -0.27,-0.04 -0.38,-0.06 -0.22,-0.03 -0.33,-0.09 -0.40,-0.22 -0.07,-0.14 -0.01,-0.17 0.22,-0.12 0.14,0.03 0.58,0.03 1.67,0.01 1.17,-0.01 1.49,-0.01 1.55,0.02 0.08,0.04 0.23,0.25 0.20,0.28 -0.00,0.00 -0.07,-0.00 -0.14,-0.03 -0.11,-0.04 -0.15,-0.04 -0.43,0.00 -0.17,0.03 -0.35,0.04 -0.39,0.03 -0.04,-0.00 -0.17,0.00 -0.28,0.02 -0.10,0.02 -0.29,0.04 -0.41,0.04 -0.12,-0.00 -0.39,0.00 -0.60,0.01 -0.20,0.01 -0.46,0.00 -0.57,-0.01 z M 17.13,22.62 c -0.19,-0.01 -0.22,-0.02 -0.25,-0.10 -0.03,-0.07 -0.03,-0.09 0.05,-0.17 0.12,-0.10 0.31,-0.10 0.47,-0.00 0.12,0.08 0.18,0.26 0.08,0.26 -0.02,0 -0.07,0.00 -0.09,0.01 -0.02,0.00 -0.14,0.00 -0.26,-0.00 z m 0.83,-0.35 c -0.03,-0.05 0.00,-0.22 0.12,-0.53 0.09,-0.25 0.10,-0.29 0.08,-0.54 -0.02,-0.25 -0.01,-0.27 0.06,-0.35 0.10,-0.10 0.16,-0.10 0.26,-0.00 0.11,0.11 0.16,0.23 0.19,0.43 l 0.02,0.17 -0.19,0.11 c -0.20,0.11 -0.22,0.14 -0.29,0.41 -0.07,0.27 -0.10,0.34 -0.17,0.34 -0.03,0 -0.07,-0.01 -0.08,-0.03 z m 0.61,-0.07 c -0.11,-0.11 0.00,-0.31 0.33,-0.50 0.13,-0.07 0.20,-0.09 0.40,-0.09 0.29,0 0.57,0.11 0.57,0.23 0,0.13 -0.06,0.15 -0.45,0.15 -0.39,0 -0.50,0.02 -0.62,0.16 -0.07,0.08 -0.15,0.09 -0.22,0.03 z m 1.57,-0.00 c -0.01,-0.04 0.00,-0.16 0.08,-0.42 0.01,-0.05 0.03,-0.25 0.03,-0.44 0,-0.40 -0.02,-0.43 -0.36,-0.52 -0.34,-0.09 -0.46,-0.21 -0.27,-0.29 0.11,-0.05 0.39,0.04 0.50,0.16 0.04,0.04 0.17,0.16 0.29,0.24 0.35,0.27 0.48,0.44 0.56,0.76 0.05,0.19 0.02,0.26 -0.11,0.31 -0.06,0.02 -0.20,0.08 -0.32,0.14 -0.22,0.11 -0.37,0.12 -0.40,0.05 z m -6.08,-2.66 c -0.10,-0.05 -0.18,-0.17 -0.13,-0.20 0.01,-0.00 0.08,-0.02 0.16,-0.04 0.15,-0.02 0.37,-0.09 0.73,-0.21 0.30,-0.10 0.44,-0.09 0.23,0.01 -0.07,0.04 -0.21,0.14 -0.31,0.22 -0.29,0.26 -0.48,0.32 -0.68,0.21 z m 4.54,-0.63 c -0.06,-0.05 -0.11,-0.11 -0.11,-0.13 0,-0.01 -0.02,-0.06 -0.06,-0.09 -0.12,-0.13 -0.18,-0.24 -0.18,-0.34 0,-0.05 -0.03,-0.29 -0.07,-0.51 l -0.07,-0.40 0.07,-0.20 c 0.04,-0.11 0.08,-0.22 0.10,-0.24 0.01,-0.01 0.07,-0.17 0.13,-0.34 0.06,-0.17 0.13,-0.34 0.17,-0.39 0.05,-0.07 0.07,-0.08 0.16,-0.05 0.07,0.02 0.11,0.07 0.17,0.25 0.06,0.18 0.12,0.26 0.35,0.50 0.16,0.16 0.27,0.30 0.27,0.34 -9.98e-4,0.04 -0.11,0.15 -0.29,0.31 -0.16,0.13 -0.33,0.30 -0.38,0.38 -0.10,0.17 -0.15,0.57 -0.10,0.79 0.03,0.14 0.01,0.25 -0.03,0.25 -0.01,0 -0.07,-0.04 -0.13,-0.10 z m 1.76,-1.39 c -0.10,-0.10 0.00,-0.23 0.14,-0.18 0.08,0.03 0.05,0.20 -0.03,0.21 -0.03,0.00 -0.08,-0.00 -0.11,-0.03 z m 1.20,-0.11 c -0.06,-0.08 -0.01,-0.11 0.25,-0.14 0.25,-0.02 0.48,-0.12 0.62,-0.25 0.05,-0.05 0.15,-0.12 0.22,-0.15 0.06,-0.03 0.16,-0.11 0.22,-0.17 0.12,-0.13 0.26,-0.18 0.34,-0.11 0.05,0.04 0.06,0.19 0.02,0.29 -0.03,0.08 -0.49,0.37 -0.67,0.42 -0.08,0.02 -0.23,0.06 -0.32,0.09 -0.09,0.02 -0.27,0.06 -0.41,0.07 -0.20,0.01 -0.25,0.00 -0.29,-0.04 z m -0.73,-0.16 c -0.05,-0.04 -0.13,-0.14 -0.17,-0.23 -0.04,-0.08 -0.10,-0.18 -0.13,-0.20 -0.08,-0.06 -0.15,0.01 -0.15,0.16 0,0.14 -0.09,0.25 -0.25,0.29 -0.13,0.03 -0.15,-0.05 -0.04,-0.20 0.08,-0.10 0.09,-0.14 0.08,-0.33 -0.01,-0.45 0.27,-0.69 0.92,-0.75 0.68,-0.06 0.86,-0.07 1.15,-0.03 0.16,0.02 0.40,0.05 0.54,0.07 0.20,0.02 0.26,0.02 0.36,-0.01 0.23,-0.10 0.56,-0.30 0.65,-0.38 0.11,-0.10 0.16,-0.10 0.16,0.00 -0.00,0.12 0.24,0.26 0.43,0.23 0.11,-0.01 0.13,-0.01 0.12,0.03 -0.01,0.07 -0.32,0.30 -0.44,0.33 -0.04,0.01 -0.11,0.04 -0.14,0.07 -0.10,0.09 -0.31,0.14 -0.39,0.10 -0.03,-0.02 -0.20,-0.06 -0.36,-0.08 -0.65,-0.10 -1.16,-0.08 -1.48,0.07 l -0.15,0.07 -0.02,0.29 c -0.02,0.29 -0.07,0.46 -0.15,0.49 -0.02,0.00 -0.12,0.02 -0.22,0.03 -0.15,0.01 -0.20,0.00 -0.28,-0.05 z m 0.44,-0.65 c 0.02,-0.04 -0.03,-0.08 -0.08,-0.05 -0.03,0.02 -0.01,0.08 0.03,0.08 0.01,0 0.03,-0.01 0.05,-0.03 z m 2.40,-0.69 c 0,-0.01 -0.02,-0.03 -0.05,-0.03 -0.05,0 -0.06,0.04 -0.02,0.07 0.02,0.02 0.08,-0.00 0.08,-0.04 z m -3.68,0.34 c -0.02,-0.04 0.04,-0.26 0.13,-0.46 0.18,-0.37 0.74,-0.56 1.47,-0.50 0.21,0.01 0.57,0.04 0.78,0.06 0.31,0.02 0.40,0.04 0.49,0.11 0.16,0.12 0.13,0.22 -0.03,0.13 -0.10,-0.05 -0.76,-0.13 -1.14,-0.13 -0.32,-1.66e-4 -0.44,0.02 -0.61,0.14 -0.07,0.04 -0.53,0.24 -0.76,0.32 -0.03,0.01 -0.09,0.08 -0.13,0.17 -0.07,0.15 -0.15,0.22 -0.18,0.15 z m -0.47,-1.29 c -0.07,-0.04 -0.16,-0.13 -0.19,-0.19 -0.11,-0.18 -0.04,-0.25 0.66,-0.72 0.15,-0.10 0.51,-0.23 0.64,-0.23 0.04,0 0.27,-0.07 0.51,-0.17 0.56,-0.22 0.91,-0.30 1.40,-0.33 0.33,-0.01 0.44,-0.01 0.69,0.05 0.16,0.04 0.31,0.07 0.34,0.07 0.07,1.66e-4 0.41,0.23 0.61,0.43 0.13,0.13 0.16,0.18 0.13,0.21 -0.04,0.05 -0.08,0.04 -0.58,-0.17 l -0.39,-0.17 -0.51,0.01 c -0.46,0.00 -0.53,0.01 -0.77,0.10 -0.38,0.14 -1.31,0.65 -1.73,0.95 -0.38,0.27 -0.58,0.31 -0.80,0.16 z m 7.63,-0.46 c -0.03,-0.06 0.00,-0.07 0.05,-0.01 0.02,0.03 0.02,0.05 0.00,0.05 -0.02,0 -0.04,-0.01 -0.05,-0.03 z M 28.36,14.31 c -0.14,-0.01 -0.29,-0.04 -0.32,-0.06 -0.03,-0.01 -0.11,-0.04 -0.18,-0.05 -0.13,-0.02 -0.58,-0.20 -0.81,-0.32 -0.15,-0.08 -0.20,-0.13 -0.16,-0.18 0.02,-0.02 0.19,0.02 0.51,0.17 0.31,0.14 0.97,0.24 1.51,0.23 0.20,-0.00 0.35,0.00 0.37,0.03 0.07,0.07 -0.00,0.13 -0.20,0.17 -0.24,0.04 -0.35,0.04 -0.71,0.00 z m -1.32,-2.83 c -0.75,-0.17 -0.95,-0.24 -0.95,-0.34 0,-0.10 0.06,-0.10 0.50,-0.00 0.30,0.07 0.74,0.11 0.91,0.09 0.10,-0.01 0.31,-0.03 0.48,-0.05 0.37,-0.04 0.74,-0.10 0.88,-0.14 0.10,-0.03 0.29,-0.06 0.60,-0.12 0.11,-0.01 0.12,-0.01 0.12,0.04 0,0.11 -0.20,0.21 -0.83,0.39 -0.45,0.13 -1.41,0.19 -1.74,0.12 z m 4.06,-0.67 c -0.04,-0.00 -0.17,-0.03 -0.27,-0.06 -0.14,-0.04 -0.20,-0.04 -0.25,-0.01 -0.10,0.06 -0.13,0.04 -0.13,-0.09 0,-0.10 -0.01,-0.14 -0.08,-0.19 -0.04,-0.02 -0.13,-0.17 -0.20,-0.32 -0.07,-0.15 -0.15,-0.29 -0.17,-0.31 -0.07,-0.06 -0.05,-0.09 0.09,-0.11 0.08,-0.01 0.17,-0.02 0.21,-0.03 0.03,-0.00 0.18,-0.02 0.33,-0.03 0.44,-0.04 0.70,0.10 0.93,0.52 0.07,0.14 0.18,0.28 0.24,0.33 0.12,0.09 0.12,0.23 -0.00,0.28 -0.08,0.03 -0.53,0.07 -0.69,0.05 z M 12.91,8.47 C 12.87,8.45 12.74,8.41 12.61,8.38 12.40,8.33 12.38,8.33 12.31,8.38 12.20,8.45 12.13,8.45 11.98,8.36 11.69,8.19 11.53,7.96 11.36,7.47 c -0.08,-0.24 -0.03,-0.73 0.08,-0.90 0.15,-0.21 0.21,-0.27 0.33,-0.29 0.25,-0.04 0.67,-0.25 0.73,-0.35 0.11,-0.20 0.26,-0.01 0.19,0.25 -0.04,0.20 0.01,0.73 0.11,0.92 0.15,0.29 0.32,0.54 0.38,0.54 0.08,3.32e-4 0.07,-0.04 -0.05,-0.28 -0.28,-0.51 -0.32,-1.00 -0.13,-1.43 0.12,-0.26 0.36,-0.65 0.52,-0.81 0.18,-0.19 0.54,-0.38 0.66,-0.34 0.21,0.06 0.21,0.16 0.00,0.21 -0.21,0.05 -0.44,0.31 -0.66,0.72 l -0.15,0.30 -0.00,0.41 -0.00,0.41 0.12,0.19 c 0.06,0.10 0.21,0.30 0.33,0.44 0.34,0.41 0.80,0.59 1.02,0.39 0.05,-0.04 0.09,-0.11 0.09,-0.14 -4.99e-4,-0.06 -0.18,-0.23 -0.33,-0.31 -0.08,-0.04 -0.39,-0.51 -0.49,-0.75 -0.04,-0.09 -0.06,-0.23 -0.06,-0.36 0,-0.18 0.01,-0.22 0.16,-0.46 0.09,-0.14 0.18,-0.32 0.19,-0.39 0.02,-0.14 0.07,-0.18 0.18,-0.15 0.09,0.02 0.11,0.13 0.10,0.52 -0.00,0.25 0.00,0.35 0.05,0.44 0.08,0.16 0.20,0.13 0.35,-0.09 0.10,-0.15 0.14,-0.16 0.25,-0.05 0.11,0.12 0.23,0.11 0.26,-0.01 0.02,-0.13 0.11,-0.18 0.20,-0.11 0.10,0.07 0.15,0.05 0.17,-0.05 0.05,-0.26 0.25,-0.26 0.49,0.00 0.18,0.20 0.62,0.65 0.96,0.97 0.22,0.21 0.24,0.24 0.20,0.31 -0.02,0.05 -0.13,0.12 -0.29,0.20 -0.18,0.09 -0.27,0.15 -0.32,0.24 -0.05,0.09 -0.09,0.11 -0.18,0.11 -0.09,0 -0.14,0.02 -0.23,0.12 -0.15,0.16 -0.21,0.14 -0.57,-0.14 L 15.80,7.53 15.61,7.59 c -0.10,0.03 -0.19,0.07 -0.20,0.08 -0.00,0.01 -0.07,0.03 -0.13,0.05 -0.14,0.02 -0.17,0.07 -0.20,0.32 -0.03,0.25 -0.07,0.33 -0.21,0.40 -0.24,0.11 -0.54,0.05 -0.86,-0.19 -0.21,-0.15 -0.28,-0.16 -0.34,-0.03 -0.10,0.22 -0.17,0.26 -0.41,0.27 -0.12,0.00 -0.26,-0.00 -0.30,-0.02 z M 15.18,5.57 C 15.06,5.48 14.98,5.39 14.94,5.26 14.93,5.19 14.89,5.11 14.86,5.08 14.75,4.96 14.74,4.80 14.83,4.56 c 0.08,-0.22 0.19,-0.35 0.40,-0.47 0.05,-0.02 0.14,-0.10 0.20,-0.17 0.08,-0.09 0.12,-0.11 0.20,-0.11 0.10,0.00 0.23,0.14 0.23,0.23 0,0.02 0.06,0.17 0.14,0.33 l 0.14,0.29 -0.05,0.16 c -0.06,0.20 -0.14,0.25 -0.40,0.29 -0.22,0.02 -0.26,0.07 -0.24,0.26 0.01,0.10 0.00,0.13 -0.06,0.18 -0.09,0.06 -0.10,0.06 -0.20,-0.00 z" />
</svg>
