<?xml version="1.0" encoding="UTF-8" standalone="no"?>
<!-- Created with Inkscape (http://www.inkscape.org/) -->
<svg xmlns:dc="http://purl.org/dc/elements/1.1/" xmlns:cc="http://creativecommons.org/ns#" xmlns:rdf="http://www.w3.org/1999/02/22-rdf-syntax-ns#" xmlns:svg="http://www.w3.org/2000/svg" xmlns="http://www.w3.org/2000/svg" version="1.1" width="100%" height="100%" viewBox="0 0 48 48" id="svg2" xml:space="preserve">
<defs id="defs430" />
<path d="m 18.52,1.44 c -0.24,0.00 -0.46,0.01 -0.67,0.03 -1.43,0.17 -2.94,0.10 -3.76,0.94 -0.13,0.13 -0.24,0.41 -0.41,0.64 -0.17,0.24 -0.41,0.42 -0.47,0.64 -0.15,0.57 0.11,1.25 0,1.76 C 12.49,5.59 11.74,5.74 10.96,5.89 10.18,6.03 9.26,6.03 8.72,6.36 7.84,6.90 8.14,8.24 8.01,9.24 7.71,9.25 7.50,9.35 7.19,9.36 6.76,9.82 6.05,10.19 5.84,10.95 c -0.43,1.55 0.73,2.83 2.17,2.76 -0.18,6.51 -0.16,14.32 -0.29,19.95 -0.02,0.94 -0.16,2.12 -0.05,3.06 0.11,1.08 1.02,1.34 1.94,1.70 1.76,0.70 3.45,1.33 4.94,2.11 -0.02,0.92 0.04,1.60 0.47,2.17 1.88,0.71 4.21,1.72 6.18,2.53 1.05,0.43 2.24,0.96 3.59,0.64 1.25,-0.29 2.78,-0.78 4.12,-1.17 2.66,-0.79 5.40,-1.58 8.24,-2.35 1.14,-0.31 3.55,-0.75 4.00,-1.35 0.08,-0.11 0.31,-0.71 0.35,-0.94 0.06,-0.39 -0.00,-1.06 0,-1.88 0.00,-0.76 0.11,-1.88 0,-2.11 -0.32,-0.69 -2.10,-0.88 -2.94,-1.17 -1.07,-0.37 -2.06,-0.75 -3.06,-1.05 0.05,-0.68 -0.08,-1.28 0.05,-1.94 1.69,0.43 3.51,1.03 5.23,1.58 0.62,0.20 1.33,0.53 1.88,0.47 0.65,-0.07 1.22,-1.06 1.05,-1.88 -0.19,-0.92 -1.62,-1.16 -2.59,-1.47 -1.80,-0.57 -4.07,-1.22 -5.53,-1.70 -0.37,-1.30 0.30,-2.36 0,-3.47 -0.26,-0.95 -1.89,-1.12 -2.88,-1.35 0.17,-1.09 -0.64,-1.20 -1.17,-1.58 0.79,0.00 1.31,-0.56 1.70,-0.76 2.04,0.55 4.76,1.36 6.88,1.94 1.35,0.37 3.25,1.06 3.41,-0.70 0.13,-1.53 -1.51,-1.52 -2.64,-1.88 -2.57,-0.80 -5.13,-1.66 -7.59,-2.17 0.02,-0.26 -0.02,-0.44 -0.05,-0.64 0.67,-0.34 1.69,-0.42 2.11,-1.00 0.40,-0.55 0.30,-1.78 0.29,-2.76 -0.00,-0.89 0.09,-1.84 0,-2.53 C 35.28,9.16 32.86,7.97 30.62,7.89 30.26,6.64 28.69,6.51 27.27,6.12 26.20,5.83 25.14,5.59 24.32,5.30 24.38,4.82 24.33,4.58 24.32,4.06 23.91,3.35 23.54,1.96 22.50,1.83 21.56,1.71 19.82,1.43 18.52,1.44 z m -0.27,0.26 c 1.41,-0.00 3.12,0.19 4.66,0.53 -0.52,0.47 -1.39,0.49 -2.17,0.52 -2.04,0.09 -4.01,-0.09 -5.59,-0.52 0.57,-0.43 1.85,-0.50 2.82,-0.52 l 6.32e-4,0 c 0.09,-0.00 0.18,-0.00 0.27,-0.00 z m -3.45,0.59 0.00,0 c -6.1e-5,1.97e-4 6e-5,4.34e-4 0,6.30e-4 2.04,0.86 4.60,0.77 7.24,0.58 -0.30,0.29 -1.09,0.11 -1.47,0.35 0.97,0.38 2.10,-0.55 3.00,-0.35 -0.02,0.35 -0.55,0.19 -0.58,0.52 0.24,0.19 0.51,-0.35 0.82,-0.11 -0.04,0.48 -0.78,0.49 -1.23,0.58 -1.05,0.22 -2.31,0.30 -3.53,0.47 1.30,0.11 2.64,0.01 3.70,-0.23 0.41,-0.09 0.84,-0.45 1.17,-0.17 0.00,0.34 -0.50,0.42 -0.76,0.47 -0.32,0.06 -0.74,0.08 -1.05,0.11 -2.15,0.24 -4.35,0.28 -6.71,-0.17 -0.69,-0.13 -1.46,-0.25 -1.88,-0.70 0.54,-0.05 1.03,0.40 1.70,0.41 -0.22,-0.50 -1.20,-0.24 -1.41,-0.76 0.24,-0.32 0.67,0.02 0.94,0.11 1.56,0.53 4.76,0.83 6.88,0.35 -0.27,-0.24 -0.74,-0.02 -1.05,0 -2.33,0.15 -4.85,-0.07 -6.47,-0.88 0.14,-0.55 0.62,-0.10 0.94,0 0.91,0.31 2.36,0.47 3.23,0.41 -1.12,-0.42 -2.91,-0.18 -3.70,-0.94 l 0.11,0 c 0.06,0.00 0.10,-0.01 0.11,-0.05 -4.34e-4,-1.83e-4 -8.3e-4,-4.47e-4 -0.00,-6.30e-4 z m 4.45,0.91 c -0.04,-2.1e-6 -0.07,0.00 -0.09,0.02 l 0,0.17 c 0.13,0.07 0.68,0.16 0.58,-0.17 -0.18,0.03 -0.36,-0.02 -0.48,-0.02 z m -5.86,0.85 c 0.21,0.65 0.24,1.22 0,1.82 l 0,-1.82 z m 3.35,0.05 c -0.04,0.34 0.70,0.38 0.82,0.17 -0.27,-0.18 -0.45,-0.14 -0.82,-0.17 z m -2.94,0.11 0.17,0 c -0.08,0.65 0.15,1.28 -0.17,1.70 -0.04,-0.24 0.03,-1.11 0,-1.70 z m 0.41,0.05 c 0.07,0.08 0.27,0.03 0.35,0.11 0.03,0.48 -0.02,1.28 0,1.94 -0.24,0.04 -0.27,-0.11 -0.47,-0.11 -0.00,-0.69 0.01,-1.36 0.11,-1.94 z m 9.78,0.11 c 0.07,-0.00 0.08,0.05 0.15,0.06 -0.16,0.51 0.20,1.25 -0.17,1.53 -0.02,-0.32 0.01,-1.07 0,-1.58 0.00,-0.00 0.01,-0.00 0.01,-0.00 z m -9.14,0.06 c 0.28,0.28 0.08,1.40 0.05,1.94 C 14.67,6.02 14.79,4.97 14.84,4.48 z m 8.94,0.05 0,1.76 c -0.18,-0.00 -0.19,0.15 -0.41,0.11 0.21,-0.54 -0.29,-1.82 0.41,-1.88 z m -8.65,0.05 c 0.34,0.01 0.36,-0.00 0.58,0.11 -0.00,0.88 -0.01,1.46 -0.05,1.94 l -0.47,0 C 15.06,5.96 15.19,5.32 15.14,4.59 z m 7.88,0.05 0.11,0 c 0.17,0.29 0.25,1.50 -0.05,1.70 l -6.31e-4,0 c -0.28,-0.17 -0.08,-1.26 -0.05,-1.70 z m -0.42,0.04 c 0.03,-0.00 0.08,8.29e-4 0.13,0.00 0.02,0.72 -0.04,1.34 0,1.94 C 22.54,6.72 22.34,6.77 22.08,6.77 22.10,6.33 22.03,5.31 22.14,4.77 l 6.32e-4,0 c 0.19,0.01 0.28,-0.06 0.45,-0.06 z m -6.63,0.06 0.17,0 c 0.11,0.68 0.03,1.40 0,1.88 -0.50,-0.24 -0.01,-1.22 -0.17,-1.88 z m 0.41,0.05 c 0.37,0.01 0.36,0.04 0.70,0.05 0.01,0.68 -0.02,1.41 0,1.94 -0.19,0.08 -0.44,0.04 -0.70,-0.05 -0.06,-0.54 0.06,-1.35 0,-1.94 z m 5.35,0 c 0.35,0.11 0.19,1.45 0.05,1.82 -0.32,-0.24 -0.21,-1.48 -0.05,-1.82 z m -0.41,0.05 c 0.11,0.57 0.03,1.23 0.05,2.00 -0.12,0.16 -0.32,-0.10 -0.35,0.11 0.98,0.24 2.20,-0.30 3.06,-0.70 -1.59,1.33 -4.96,1.29 -7.41,1.00 -1.21,-0.14 -2.50,-0.40 -3.06,-1.11 1.38,0.77 3.62,1.00 5.59,1.00 -0.42,-0.35 -0.06,-1.30 -0.17,-2.17 l 0.88,0 c -0.11,0.58 0.31,2.06 -0.35,2.17 0.26,0.15 0.57,-0.07 0.94,0 0.25,-0.50 0.05,-1.48 0.11,-2.17 l 6.31e-4,0 c 0.17,-0.09 0.50,-0.04 0.70,-0.11 z m -4.00,0.05 0.23,0 c -0.02,0.67 0.06,1.52 -0.11,1.88 C 17.10,6.44 17.28,5.55 17.32,4.95 z m 0.41,0 c 0.26,0.04 0.30,-0.00 0.58,0.05 0.09,0.48 -0.02,1.38 0.05,2.00 -0.33,-0.03 -0.37,0.01 -0.64,-0.05 l 0,-2.00 z m 2.47,0 0.17,0 c 0.06,0.48 0.16,1.49 -0.05,1.88 -0.37,-0.43 -0.07,-1.38 -0.11,-1.88 z m -1.58,0.05 0.23,0 C 18.70,5.66 18.97,6.30 18.73,6.83 18.39,6.43 18.67,5.76 18.61,5.00 z m 5.76,0.64 0.00,0 c 4e-5,2.01e-4 -4e-5,4.29e-4 0,6.31e-4 0.82,0.19 2.08,0.46 2.94,0.82 l -1.47,0 c -0.03,-0.13 0.11,-0.08 0.11,-0.17 -0.06,-0.15 -0.31,-0.11 -0.52,-0.11 -0.08,0.22 0.16,0.11 0.11,0.29 l -0.70,0 c 0.06,-0.49 -0.38,-0.47 -0.47,-0.82 -6.07e-4,-1.41e-4 -0.00,-4.84e-4 -0.00,-6.31e-4 z M 12.55,5.83 c 0.22,0.08 -0.01,0.43 0.05,0.64 0.39,1.15 4.26,1.56 6.24,1.64 2.04,0.08 5.10,-0.13 6.06,-1.47 1.81,0.20 2.18,-0.26 3.82,0.17 -0.16,0.24 -0.73,0.09 -0.88,0.35 0.14,0.52 0.82,0.61 1.29,0.70 1.54,0.30 3.57,0.43 4.59,1.29 -0.27,0.60 -1.04,0.66 -1.58,0.76 C 28.72,10.61 25.92,9.70 22.67,8.77 21.57,8.46 20.53,8.07 19.14,8.48 18.90,8.55 18.61,8.86 18.38,8.89 18.04,8.94 17.36,8.67 16.90,8.54 15.61,8.16 14.02,7.56 12.72,7.30 c 0.25,0.43 0.85,0.40 1.29,0.53 1.34,0.39 2.86,0.84 4.17,1.29 -0.97,0.20 -2.13,-0.72 -3.17,-0.64 0.38,0.25 1.02,0.42 1.58,0.58 0.54,0.15 1.26,0.18 1.41,0.58 C 17.53,9.83 16.99,9.51 16.49,9.36 15.00,8.90 13.29,8.34 11.78,8.07 c 0.38,0.33 0.97,0.43 1.47,0.58 1.50,0.45 3.20,0.85 4.70,1.41 0.05,1.28 -0.05,2.61 -0.05,4.00 -0.72,-0.76 -1.28,-1.67 -2.35,-2.11 -1.05,-0.43 -2.24,-0.64 -3.35,-1.11 0.09,-0.22 -0.07,-0.45 -0.11,-0.70 -0.28,-0.08 -0.78,0.00 -1.00,0.17 C 10.67,9.79 10.54,9.05 9.78,8.95 9.26,8.88 8.89,9.14 8.31,9.13 8.31,8.42 8.30,7.80 8.37,7.30 8.99,7.32 9.63,7.76 10.02,7.65 9.76,7.20 8.95,7.31 8.49,7.07 8.80,6.58 9.44,7.01 9.84,7.12 11.26,7.52 12.81,7.91 14.20,8.30 13.98,7.87 13.39,7.90 12.96,7.77 12.10,7.52 11.14,7.26 10.19,7.01 9.76,6.89 9.27,6.81 8.96,6.54 9.79,6.53 10.21,6.93 11.02,6.95 10.79,6.55 10.06,6.65 9.66,6.42 10.60,6.08 11.52,6.08 12.55,5.83 z m 0.52,0.05 c 0.23,0.10 0.20,0.44 0.41,0.64 0.74,0.74 2.91,1.02 4.59,1.11 2.37,0.13 4.81,-0.10 6.06,-1.05 l -0.00,0 C 24.30,6.51 24.27,6.25 24.38,6.12 25.09,7.06 23.59,7.30 22.85,7.48 20.19,8.12 16.63,8.06 14.08,7.18 13.46,6.97 12.26,6.38 13.08,5.89 z M 27.01,6.88 c -0.12,0.00 -0.28,0.02 -0.39,0.00 l 0,0.23 C 26.81,7.06 27.26,7.25 27.26,7.01 27.24,6.90 27.14,6.88 27.01,6.88 z M 11.94,7.04 c -0.09,0.00 -0.17,0.06 -0.15,0.20 0.27,-0.06 0.38,0.23 0.58,0.05 -0.02,-0.13 -0.26,-0.27 -0.43,-0.26 z m 17.28,0.05 c 0.46,0.00 0.88,0.15 1.03,0.55 -0.47,0.12 -1.56,-0.11 -2.00,-0.41 0.29,-0.08 0.64,-0.15 0.96,-0.14 z M 10.59,7.69 c -0.06,0.00 -0.11,0.00 -0.16,0.02 0.11,0.25 0.62,0.37 0.88,0.29 -0.06,-0.23 -0.44,-0.32 -0.71,-0.31 z m 15.34,0.52 c -0.26,0 -0.53,0.04 -0.61,0.14 0.22,0.08 1.05,0.13 1.23,0 -0.08,-0.09 -0.35,-0.14 -0.61,-0.14 z m -1.73,0.31 c -0.04,0.01 -0.06,0.04 -0.05,0.11 -2.52e-4,0.05 0.04,0.06 0.05,0.11 2.32,-0.04 3.97,0.04 5.41,0.05 0.70,0.00 1.46,0.11 1.82,-0.11 -1.90,-0.18 -4.56,-0.05 -7.24,-0.17 z m -4.18,0.05 c 0.02,6.06e-5 0.04,6.90e-4 0.06,0.00 0.08,0.30 -0.67,0.72 -0.64,1.35 0.43,-0.39 0.59,-1.05 1.11,-1.35 2.65,0.34 5.19,1.65 7.94,1.82 2.21,0.13 3.94,0.04 5.53,-1.00 0.37,0.48 -0.35,0.77 -0.82,0.94 -0.55,0.19 -1.29,0.19 -1.64,0.47 1.09,0.07 2.24,-0.30 2.76,-1.00 0.20,0.15 0.32,0.38 0.47,0.58 0.13,0.26 -0.37,0.31 -0.41,0.58 0.24,0.19 0.30,-0.28 0.58,-0.23 0.17,0.31 0.27,0.70 0.35,1.11 -1.08,0.84 -3.13,0.94 -4.53,1.29 1.61,0.25 3.52,-0.51 4.59,-1.00 l 0,2.23 c 0,0.73 0.14,1.51 -0.17,2.00 -0.05,-1.65 0.12,-2.71 0,-4.00 -0.19,1.49 -0.20,2.77 -0.11,4.29 -0.30,0.00 -0.34,0.28 -0.64,0.29 0.08,-0.55 0.10,-1.45 0,-2.00 -0.27,0.45 -0.03,1.66 -0.11,2.11 -2.63,0.76 -5.75,0.81 -8.35,0.35 -1.86,-0.33 -3.46,-1.24 -5.29,-1.41 -0.01,-1.78 0.13,-3.15 0,-4.94 -0.26,0.23 -0.11,0.71 -0.11,1.05 -0.01,1.10 -0.10,2.46 -0.05,3.88 -0.37,0.01 -0.72,0.05 -0.88,0.29 0.41,0.26 0.86,-0.22 1.23,0 -0.54,0.33 -1.50,0.25 -2.17,0.47 -0.11,-0.80 -0.23,-1.61 -0.58,-2.17 l -0.00,0 c 0.57,-2.03 -0.97,-6.07 1.93,-6.06 z m 0.83,0.17 c -1.05,0.42 -1.26,2.12 -1.11,3.23 0.36,-0.32 0.12,-1.00 0.17,-1.41 0.11,-0.80 0.65,-1.28 0.94,-1.82 z m 8.75,0.11 c -0.64,-0.00 -1.38,0.03 -2.16,0.00 l -6.26e-4,0 c -0.00,0.10 0.01,0.18 0.05,0.23 0.78,-0.06 1.58,-0.01 2.35,0 0.33,0.00 0.81,0.12 1.05,-0.11 C 30.55,8.91 30.11,8.89 29.60,8.88 z m -8.51,0.24 c -0.16,0.52 -0.50,0.86 -0.47,1.58 0.31,-0.01 0.12,-0.30 0.17,-0.47 0.12,-0.42 0.49,-0.79 0.47,-1.11 l -0.17,0 -6.32e-4,0 z M 9.78,9.24 c 1.16,0.37 1.57,2.50 0.82,3.59 -0.40,-0.36 -1.14,0.09 -1.76,0.05 -0.04,-0.18 0.10,-0.17 0.05,-0.35 0.59,-0.23 1.61,-0.03 1.88,-0.58 0.02,-0.18 -0.15,-0.15 -0.17,-0.29 -0.56,0.06 -1.02,0.23 -1.64,0.23 -0.01,-0.21 0.06,-0.32 0.11,-0.47 0.61,-0.11 1.43,-0.01 1.70,-0.47 C 10.54,10.26 9.30,11.01 8.84,10.83 8.79,10.70 8.71,10.60 8.72,10.42 9.25,10.25 10.08,10.37 10.43,10.01 10.42,9.78 10.25,9.71 10.13,9.60 9.55,9.66 8.88,9.96 8.31,9.83 8.56,9.40 9.63,9.78 9.78,9.24 z M 29.52,9.29 c -0.16,0.00 -0.31,0.01 -0.36,0.01 -0.06,0.00 -0.06,0.09 -0.05,0.17 0.39,-0.05 0.85,0.19 1.00,-0.11 l -0.00,0 c -0.11,-0.06 -0.35,-0.07 -0.57,-0.07 z m -7.66,0.01 c -0.05,-1.21e-4 -0.06,0.04 -0.11,0.05 -0.00,0.08 0.02,0.12 0.05,0.17 2.55,0.67 5.03,1.73 7.88,1.47 C 29.32,10.64 28.77,10.86 28.32,10.83 25.86,10.66 23.84,9.84 21.85,9.30 z M 7.43,9.66 c 0.88,0.02 1.37,1.29 1.35,2.29 -0.01,0.53 -0.14,1.33 -0.70,1.41 -0.12,-0.25 0.45,-0.59 0.23,-0.94 -0.30,0.26 -0.22,0.90 -0.76,0.94 0.24,-0.45 0.60,-1.30 0.29,-1.94 -0.28,0.19 0.04,0.53 -0.11,0.82 C 7.58,11.36 7.45,10.48 6.60,10.30 6.86,9.99 7.22,10.47 7.43,10.60 7.74,10.32 7.02,10.17 6.95,9.89 8.01,10.00 8.12,11.05 8.31,12.01 8.62,11.09 7.94,10.15 7.43,9.66 z M 10.13,9.83 C 9.84,10.16 8.96,10.17 8.54,10.19 8.96,9.96 9.56,9.91 10.13,9.83 z M 21.49,10.24 c -0.01,3.37e-4 -0.03,0.00 -0.05,0.00 l -0.11,0 -6.31e-4,0 c -0.00,0.10 0.01,0.18 0.05,0.23 0.78,0.15 1.43,0.45 2.23,0.58 -0.19,-0.49 -1.00,-0.40 -1.53,-0.58 -0.18,-0.06 -0.35,-0.24 -0.59,-0.23 z m -2.19,0.11 c -0.01,4e-6 -0.02,0.00 -0.03,0.00 -0.11,0.12 -0.04,0.43 -0.05,0.64 0.22,0.01 0.30,-0.65 0.09,-0.65 z m -7.57,0.02 c 0.15,-0.00 0.28,0.04 0.29,0.21 -0.25,-0.00 -0.79,0.27 -0.94,0 0.11,-0.07 0.41,-0.21 0.64,-0.21 z m -5.12,0.19 c 0.87,-0.01 1.31,2.30 0.36,2.43 -0.81,0.11 -1.33,-1.96 -0.64,-2.35 0.09,-0.05 0.19,-0.08 0.28,-0.08 z m 24.32,0.13 c -0.16,-0.00 -0.32,0.03 -0.35,0.18 0.07,0.20 0.76,0.18 0.70,-0.11 -0.08,-0.03 -0.22,-0.05 -0.35,-0.06 z m -23.31,0.06 c -0.12,0.16 -0.04,0.52 0.23,0.47 -0.00,-0.22 -0.04,-0.42 -0.23,-0.47 z m 3.79,0.10 c 0.02,-5.84e-4 0.05,0.00 0.08,0.01 -0.03,0.17 -0.09,0.33 -0.29,0.35 0.04,-0.16 -0.08,-0.15 -0.05,-0.29 0.11,0.00 0.15,-0.06 0.26,-0.06 z m -0.91,0.01 c -0.32,0.25 -1.12,0.31 -1.53,0.29 0.44,-0.24 1.03,-0.26 1.53,-0.29 z m 1.23,0.17 c 3.01,0.65 5.76,1.58 6.47,4.59 0.33,1.39 0.45,3.05 0.76,4.65 0.22,1.14 0.40,2.19 0.64,3.41 0.05,0.26 0.34,0.71 0,0.94 C 19.24,24.56 19.26,24.02 19.20,23.73 18.72,21.33 18.34,18.42 17.85,16.01 17.58,14.71 16.68,13.65 15.84,12.83 14.49,12.28 12.93,11.94 11.61,11.36 l 0,-0.11 c 0.05,-0.04 0.03,-0.16 0.11,-0.17 z m 12.82,0.08 c -0.07,-3.27e-4 -0.13,0.01 -0.17,0.03 0.00,0.22 0.25,0.21 0.47,0.23 0.04,-0.20 -0.14,-0.27 -0.29,-0.27 z m -3.17,0.03 0,0.17 c 0.02,0.97 0.03,2.36 0,3.59 -0.00,0.23 -0.24,0.65 0.11,0.76 0.09,-1.77 0.15,-2.96 0.05,-4.53 l -0.17,0 z m 12.18,0.05 c -1.33,0.37 -2.93,0.59 -4.35,0.58 -0.90,-0.00 -1.75,-0.21 -2.53,-0.05 0.57,0.25 1.54,0.28 2.17,0.29 1.48,0.02 3.36,-0.16 4.82,-0.64 0.00,-0.10 -0.04,-0.15 -0.11,-0.17 l -6.26e-4,0 z m -8.12,0.23 0,0.23 c 0.16,-0.00 0.45,0.17 0.58,-0.05 -0.11,-0.14 -0.33,-0.17 -0.58,-0.17 z m -6.29,0.17 0,0.17 c -0.05,0.96 -0.05,1.87 -0.05,3.23 0,0.36 -0.14,0.91 0.17,1.17 -0.11,-1.76 0.24,-3.52 -0.11,-4.59 z m -7.76,0.17 c 0.65,-0.00 1.51,0.33 2.28,0.59 0.70,0.23 1.47,0.41 2.00,0.70 1.27,0.70 1.85,2.24 2.00,3.65 -3.03,-1.01 -6.04,-2.03 -9.18,-2.94 1.23,-0.43 2.71,-0.31 2.76,-2.00 0.04,-0.00 0.08,-0.00 0.12,-0.00 z m -0.89,0.06 c -0.24,0.32 -1.13,0.32 -1.47,0.35 0.31,-0.29 1.00,-0.20 1.47,-0.35 z m 11.36,0.11 0,0.17 c 1.04,0.15 2.17,0.85 3.06,0.70 -0.89,-0.37 -2.10,-0.75 -3.06,-0.88 z M 7.54,12.72 c 0.10,0.18 -0.07,0.59 -0.41,0.52 0.12,-0.18 0.31,-0.31 0.41,-0.52 z m 26.84,0 c 0.02,0.44 -0.24,1.27 0.11,1.58 -0.05,-0.28 0.13,-1.30 -0.11,-1.58 z m -8.88,0.17 c -0.00,0.10 0.01,0.18 0.05,0.23 0.50,0.06 1.05,0.09 1.58,0.11 0.48,0.01 1.11,0.24 1.41,-0.11 -1.07,-0.12 -2.10,-0.10 -3.06,-0.23 z m -5.74,0.11 c -0.00,2.05e-4 -0.01,0.00 -0.02,0.00 -0.00,0.07 -0.07,0.08 -0.05,0.17 l 0,1.53 c 0,0.53 -0.14,1.14 0.17,1.41 0.03,-0.82 0.03,-2.18 0,-3.06 -0.01,-0.04 -0.04,-0.06 -0.09,-0.06 z m -9.93,6.31e-4 c 0.06,-9.08e-4 0.12,-6e-5 0.19,0.00 -0.29,0.18 -0.96,0.28 -1.29,0.23 0.29,-0.15 0.66,-0.23 1.10,-0.23 z m 19.97,0.02 c -0.09,0 -0.18,0.07 -0.17,0.21 0.07,0.08 0.27,0.08 0.35,0 0.00,-0.14 -0.08,-0.21 -0.17,-0.21 z m 3.02,0.56 c -0.00,2.12e-4 -0.01,6.91e-4 -0.02,0.00 l 6.25e-4,6.32e-4 c -0.10,1.14 -0.06,2.66 -0.05,3.82 0.31,-0.11 0.17,-0.54 0.17,-0.82 0.02,-1.03 -0.00,-2.09 0,-2.94 -0.01,-0.04 -0.04,-0.06 -0.09,-0.06 z m -7.67,0.23 c -0.03,0.66 -0.03,1.66 -0.05,2.47 -0.00,0.26 -0.05,0.67 0.17,0.76 0.03,-1.19 -0.02,-1.95 0.05,-3.23 l -0.17,0 z m 4.70,0 c 0.05,0.35 -0.13,0.95 0.11,1.11 0.10,-0.33 0.07,-0.81 0.05,-1.11 l -0.17,0 z M 8.25,14.01 c 3.20,0.97 6.35,2.00 9.47,3.06 0.02,1.40 -0.01,2.82 0,4.47 -0.56,0.10 -1.17,-0.54 -1.82,-0.35 0.46,0.44 1.55,0.25 1.82,0.88 -0.28,0.16 -0.84,-0.40 -1.05,-0.11 0.20,0.24 0.61,0.29 1.00,0.35 0.01,2.51 -0.11,4.43 -0.05,6.82 -1.24,-0.24 -2.36,-0.92 -3.53,-1.05 0.42,0.42 1.10,0.50 1.70,0.70 0.60,0.20 1.22,0.43 1.82,0.58 -0.13,2.52 -0.03,4.80 -0.17,7.12 -0.44,-0.26 -1.00,-0.07 -1.64,0.11 -0.36,0.10 -0.74,0.39 -1.00,0.41 -0.64,0.04 -1.01,-0.57 -1.64,-0.47 0.22,0.50 1.37,0.39 1.53,0.76 -0.16,0.28 -0.65,-0.33 -0.94,-0.11 0.19,0.36 1.20,0.35 0.29,0.41 0.04,0.24 0.38,0.19 0.58,0.29 0.01,0.61 -0.02,1.31 0,1.76 -2.15,-0.68 -4.40,-1.79 -6.59,-2.64 -0.12,-0.95 -0.02,-2.13 -0.05,-3.17 1.27,0.25 2.30,0.75 3.53,1.05 -0.07,-0.37 -0.54,-0.32 -0.82,-0.41 -0.80,-0.26 -1.89,-0.63 -2.70,-1.00 0.38,-0.22 0.98,0.34 1.53,0.35 -0.25,-0.49 -1.00,-0.48 -1.53,-0.70 0.06,-2.39 0.04,-5.30 0.11,-7.82 2.21,0.51 4.12,1.32 6.24,1.94 C 14.16,26.87 13.56,26.81 13.14,26.67 11.81,26.23 10.28,25.71 8.90,25.31 8.82,25.05 9.20,25.42 9.25,25.20 9.04,24.93 8.59,24.92 8.19,24.84 c -0.05,0.30 0.40,0.11 0.41,0.35 -0.15,-0.05 -0.31,-0.12 -0.53,-0.11 0.02,-3.00 0.05,-5.45 0.11,-8.12 0.90,0.31 1.90,0.62 2.88,0.94 0.96,0.31 1.94,0.70 2.76,0.82 C 13.53,18.31 12.93,18.30 12.43,18.13 11.08,17.67 9.28,17.10 8.19,16.72 8.40,16.28 9.12,16.98 9.60,16.90 9.44,16.37 8.55,16.57 8.19,16.25 c 0.03,-0.72 -0.07,-1.60 0.05,-2.23 z m 21.60,1.70 c -0.03,0.59 -0.06,1.21 0,1.88 0.20,-0.27 0.31,-1.52 0,-1.88 z m -8.09,0.89 c 0.47,0.00 0.94,0.09 1.38,0.33 l 0.00,0.00 c 0.50,0.28 0.83,0.91 1.64,0.99 -0.06,0.81 -0.04,1.42 -0.05,2.47 -0.96,0.05 -2.06,0.46 -3.11,0.70 -0.64,0.14 -1.34,0.06 -1.82,0.47 1.64,-0.05 3.20,-0.83 4.88,-0.94 -0.67,0.37 -1.83,0.28 -2.47,0.70 0.64,0.17 1.57,-0.38 2.41,-0.41 -0.05,0.17 -0.34,0.12 -0.47,0.23 0.08,0.25 0.45,0.00 0.58,0.11 0.04,0.98 1.10,0.93 1.88,1.17 -0.51,0.29 -1.12,0.48 -0.94,1.47 -1.02,0.38 -2.61,0.29 -2.88,1.35 -0.27,1.05 0.14,1.88 -0.05,3.11 -1.21,0.25 -2.44,0.49 -3.59,0.82 0.16,0.28 0.56,0.06 0.82,0 0.78,-0.18 1.82,-0.50 2.76,-0.52 -0.17,0.39 -0.92,0.17 -1.11,0.41 0.15,0.41 0.84,-0.17 1.11,0 -0.10,1.61 0.02,3.20 -0.11,4.94 -0.43,0.19 -1.14,0.11 -1.41,0.47 0.38,0.10 1.05,-0.30 1.47,-0.17 0.06,0.30 -0.41,0.05 -0.35,0.35 0.00,0.12 0.24,0.02 0.35,0.05 l 0,0.82 c -1.61,0.48 -3.31,0.87 -5.00,1.29 0.01,-0.68 0.08,-1.42 0.05,-2.29 1.31,-0.25 2.58,-0.55 3.82,-0.88 -1.12,-0.19 -2.52,0.63 -3.82,0.58 0.24,-0.37 1.01,-0.23 1.41,-0.47 -0.34,-0.34 -1.04,0.23 -1.41,0.05 0.10,-1.12 0.03,-2.84 0.05,-4.47 1.27,-0.51 2.98,-0.59 4.23,-1.11 -1.23,-0.09 -2.86,0.74 -4.17,0.76 0.35,-0.33 1.18,-0.19 1.53,-0.53 -0.50,-0.20 -1.06,0.28 -1.58,0.17 0.17,-2.56 0.03,-4.84 0.17,-7.35 0.12,-0.10 0.43,-0.03 0.64,-0.05 0.00,1.09 0.55,2.25 0.58,3.35 0.03,0.93 0.03,1.59 0.58,2.17 0.30,-0.01 0.50,-0.11 0.64,-0.29 -0.07,-0.44 0.09,-0.85 0,-1.29 -0.04,-0.22 -0.28,-0.39 -0.35,-0.58 -0.36,-1.03 -0.23,-2.19 -0.58,-3.35 0.89,-0.20 1.90,-0.29 2.64,-0.64 -0.70,-0.13 -1.75,0.34 -2.70,0.47 -0.22,-1.36 -0.47,-2.70 -0.70,-4.06 1.02,-0.10 2.05,-0.45 3.03,-0.45 z m 13.27,0.45 c -1.65,1.13 -4.02,1.28 -6.47,1.17 -1.68,-0.07 -3.56,-0.27 -4.82,-1.11 l 0,-6.32e-4 c 2.96,1.06 8.47,1.34 11.30,-0.05 z M 9.33,17.60 c -0.00,4e-5 -0.01,5.49e-4 -0.01,0.00 -0.05,-1.21e-4 -0.06,0.04 -0.11,0.05 l 0,0.17 c 2.76,0.78 5.26,1.83 8.06,2.58 -0.51,-0.46 -1.25,-0.54 -1.88,-0.76 -2.03,-0.69 -3.99,-1.41 -6.00,-2.00 -0.00,-0.03 -0.00,-0.06 -0.04,-0.06 z m 7.92,2.82 c 6.65e-4,5.99e-4 0.00,0.00 0.00,0.00 l 0,-0.00 c -6.41e-4,-1.81e-4 -0.00,-4.56e-4 -0.00,-6.31e-4 z m 7.71,-2.41 c 2.16,0.59 4.80,0.53 6.94,0.47 -0.21,0.51 -0.79,1.17 -0.70,1.94 0.04,0.38 0.24,0.65 0.64,0.82 0.02,0.27 -0.18,0.61 0.05,0.76 0.13,-0.13 0.02,-0.52 0.05,-0.76 0.28,-0.02 0.43,0.06 0.58,0.17 0.03,0.22 -0.10,0.28 -0.05,0.52 -1.92,0.74 -5.94,0.82 -7.53,-0.41 -0.02,-1.05 0.01,-2.24 0,-3.53 z m 7.87,0.23 c 0.21,0.00 0.17,0.52 0.01,0.53 -0.27,0.05 -0.21,-0.49 -0.05,-0.52 0.01,-0.00 0.03,-0.00 0.04,-0.00 z m -0.51,0.11 c 0.11,0.00 0.22,0.03 0.23,0.12 -0.03,0.28 -0.35,0.14 -0.52,0.11 l 0,-0.17 0,-6.32e-4 c 0.04,-0.03 0.17,-0.07 0.29,-0.06 z m -7.00,0.01 c 0.07,0.63 -0.15,2.25 0.11,2.70 0.13,-0.78 0.02,-1.82 0.05,-2.70 l -0.17,0 z m -7.35,0.11 c 0.32,0.69 0.35,1.68 0.52,2.53 -0.13,0.04 -0.22,0.12 -0.41,0.11 0.00,-0.11 0.19,-0.04 0.17,-0.17 -0.04,-0.23 -0.27,-0.00 -0.35,-0.11 l 6.32e-4,-6.32e-4 c 0.13,-0.67 0.02,-1.58 0.05,-2.35 z m 8.61,0.35 c -0.00,3.82e-4 -0.01,0.00 -0.01,0.00 l -6.25e-4,-6.31e-4 c 0.05,0.96 -0.15,2.20 0.05,2.88 0.15,-0.78 0.08,-1.81 0.11,-2.82 -0.07,-0.00 -0.08,-0.06 -0.16,-0.06 z m 4.04,0.00 c 0.02,1.00 -0.07,2.34 0,3.23 0.36,-0.67 0.09,-2.13 0.17,-3.23 l -0.17,0 z m 1.84,0.07 c 0.20,6.52e-4 0.43,0.06 0.68,0.21 -0.30,0.48 -0.64,0.92 -0.52,1.82 -0.49,-0.03 -1.00,-0.05 -1.11,-0.47 0.25,0.03 0.43,0.15 0.70,0.17 -0.00,-0.37 -0.42,-0.32 -0.76,-0.35 -0.01,-0.79 0.39,-1.39 1.02,-1.39 z m 0.92,0.33 c 1.80,0.23 5.03,1.35 7.24,2.00 0.98,0.28 2.59,0.47 2.70,1.35 l 0.00,0.00 c 0.26,1.93 -2.50,0.99 -3.47,0.58 -0.04,-0.15 0.27,0.04 0.23,-0.11 -0.79,-0.41 -1.88,-0.54 -2.76,-0.88 -0.14,0.14 0.03,0.26 0.19,0.29 -0.74,-0.07 -1.57,-0.35 -2.37,-0.58 -0.78,-0.22 -1.65,-0.38 -2.23,-0.82 1.33,0.23 2.55,0.89 3.82,1.00 -1.19,-0.55 -2.65,-0.84 -3.94,-1.29 0.06,-0.64 0.24,-1.17 0.58,-1.53 z m -20.13,0.23 0,0.23 c 0.66,0.14 1.33,0.43 2.00,0.64 0.68,0.21 1.38,0.55 2.00,0.47 -1.26,-0.52 -2.63,-0.93 -4.00,-1.35 z m 19.46,1.93 c 0.08,-0.00 0.12,0.04 0.19,0.06 0.02,0.18 -0.05,0.26 -0.23,0.23 l 0,-0.00 0,-0.29 c 0.01,-0.00 0.02,-0.00 0.04,-0.00 z m -14.52,0.02 c -0.08,0.00 -0.19,0.09 -0.17,0.22 l 0.29,0 c 0.03,-0.15 -0.03,-0.22 -0.11,-0.22 z m 24.37,0.63 0,6.25e-4 c 0.56,0.68 0.17,1.33 -0.64,1.41 0.82,0.54 1.57,-0.99 0.76,-1.41 l -0.11,0 z m -4.94,0.41 c 0.52,0.15 1.07,0.29 1.58,0.47 6.06e-4,1.6e-5 0.00,-1.2e-5 0.00,0 l 0,6.25e-4 c -6.26e-4,-2.22e-4 -0.00,-4.24e-4 -0.00,-6.25e-4 -0.44,-0.01 -1.23,-0.17 -1.58,-0.47 z m -7.27,0.13 c 0.94,-0.01 2.83,0.64 1.68,1.21 -0.64,0.32 -2.14,0.26 -3.00,0.35 0.26,-0.42 1.01,-0.36 1.17,-0.88 0.03,-0.29 -0.30,-0.20 -0.35,-0.41 -0.01,-0.09 0.05,-0.10 0.05,-0.17 0.07,-0.06 0.23,-0.09 0.43,-0.10 z m -2.73,0.05 c 0.26,-0.00 0.49,0.01 0.65,0.04 l 0,0.52 c -0.79,0.06 -1.78,0.86 -2.35,0.11 l 6.32e-4,-6.25e-4 c 0.18,-0.52 1.03,-0.68 1.69,-0.69 z m 1.55,0.03 c 0.17,-0.00 0.33,0.01 0.44,0.06 -0.07,0.36 0.11,0.62 -0.11,0.82 -0.25,-0.05 -0.05,-0.57 -0.11,-0.82 -0.30,0.18 -0.10,0.54 -0.11,0.94 -0.29,0.07 -0.47,0.27 -0.76,0.35 -0.13,-0.37 0.05,-0.77 -0.00,-1.35 0.20,0.01 0.44,-0.00 0.66,-0.00 z m 12.11,0.53 c -0.08,8.88e-4 -0.17,0.00 -0.24,0.00 l -6.25e-4,0 c -0.01,0.22 0.32,0.29 0.47,0.17 0.02,-0.15 -0.08,-0.18 -0.22,-0.17 z M 28.14,23.72 c 0.03,2.02e-4 0.07,0.00 0.12,0.00 -0.02,0.55 -0.10,0.71 -0.11,1.23 -0.45,0.20 -1.03,0.29 -1.53,0.47 -0.07,-0.27 0.02,-0.91 0.05,-1.41 l 0.00,0.00 c 0.53,-0.05 0.87,-0.30 1.46,-0.30 z m -2.24,0.00 c 0.22,-8.88e-4 0.27,0.16 0.42,0.23 -0.04,0.53 0.00,1.01 -0.11,1.35 -0.45,-0.24 -0.03,-0.93 -0.11,-1.41 -0.35,0.05 -0.09,0.72 -0.17,1.05 l -6.31e-4,6.26e-4 c -0.23,-0.29 -0.08,-0.88 -0.05,-1.23 0.01,-0.00 0.03,-0.00 0.04,-0.00 z m 6.42,0.17 c 0.25,0.34 0.11,0.81 0.17,1.41 -0.92,0.49 -2.91,0.67 -4.17,0.41 0.03,-0.45 0.03,-0.94 0.11,-1.35 1.13,0.13 2.62,0.03 3.65,-0.29 0.07,0.47 -0.01,0.75 0.11,1.29 0.33,-0.31 -0.12,-1.06 0.11,-1.47 z m -6.71,0.41 c 0.03,0.25 -0.04,0.38 -0.05,0.58 -0.37,0.02 -0.60,-0.10 -1.00,-0.05 0.16,-0.08 0.11,-0.19 -0.05,-0.23 -0.28,-0.00 -0.07,0.20 -0.17,0.29 -0.09,-0.07 -0.51,-0.12 -0.52,0.05 0.51,0.28 1.04,-0.07 1.64,0.11 0.54,0.17 0.65,0.62 1.11,0.64 0.47,0.02 1.06,-0.54 1.58,-0.11 -0.03,0.21 0.03,0.31 0.11,0.41 1.57,0.18 3.49,0.19 4.59,-0.76 -0.00,-0.30 -0.09,-0.53 -0.05,-0.88 0.97,0.23 2.24,0.18 2.35,1.29 -0.76,0.84 -2.17,1.04 -3.59,1.23 -0.07,0.01 -0.04,0.14 -0.05,0.23 l -0.76,0 c -0.28,-0.45 -1.42,-0.04 -1.88,-0.23 -0.08,0.22 0.16,0.11 0.11,0.29 -0.40,0.01 -0.64,-0.04 -0.88,-0.05 0.03,-0.05 0.13,-0.06 0.11,-0.17 -0.20,-0.22 -0.38,0.08 -0.47,0.17 -0.80,-0.39 -3.74,-0.45 -4.35,-1.41 l -0.00,0.00 c -0.60,-0.94 1.22,-1.39 2.23,-1.41 z m 5.82,0.17 c 0.05,0.19 -0.12,0.74 0.17,0.82 0.08,-0.21 -0.04,-0.48 0,-0.82 l -0.17,0 z m -0.94,0.35 0,0.00 c -0.09,0.12 -0.02,0.46 0.11,0.52 0.09,-0.08 0.05,-0.30 0.05,-0.47 -0.08,0.00 -0.12,-0.02 -0.17,-0.05 z m -10.71,0.00 c 0.09,-0.00 0.17,0.02 0.24,0.10 -0.08,0.18 -0.42,0.11 -0.64,0.17 l 0,-0.23 c 0.14,-0.00 0.28,-0.04 0.40,-0.05 z m 13.65,0.06 c -0.14,0.00 -0.25,0.07 -0.22,0.21 0.20,0.02 0.44,0.02 0.64,0 -0.00,-0.13 -0.23,-0.22 -0.42,-0.21 z m -8.57,0.27 c -0.13,0.00 -0.31,0.06 -0.47,0.00 l -6.31e-4,-6.26e-4 c -0.04,0.38 0.55,0.11 0.70,0.17 -0.03,-0.14 -0.12,-0.18 -0.23,-0.17 z m 8.98,0.09 c -0.35,0.00 -0.73,0.04 -0.92,0.02 l 0,0.17 c 0.19,0.03 0.54,-0.07 0.64,0.05 -0.02,0.18 -0.22,0.20 -0.23,0.41 0.22,2.63e-4 0.64,-0.19 0.94,-0.29 -0.03,-0.11 -0.27,-0.03 -0.29,-0.17 0.31,-0.04 0.50,0.09 0.70,0 -0.13,-0.17 -0.47,-0.20 -0.83,-0.20 z m -14.08,0.02 c 0.04,-7.87e-4 0.09,0.00 0.15,0.00 -0.06,0.14 0.12,0.33 0.17,0.17 0.16,0.24 -0.51,0.14 -0.70,0.23 l 0,-0.35 c 0.11,-0.03 0.23,-0.06 0.37,-0.06 z m 4.96,0.18 c -0.06,0.00 -0.12,0.01 -0.16,0.06 -0.06,0.25 0.54,0.25 0.47,0 -0.08,-0.02 -0.20,-0.06 -0.30,-0.06 z m 10.54,0.23 c 0.16,0.53 -0.87,0.88 -1.53,1.00 l 6.26e-4,-6.25e-4 c 0.52,-0.31 1.26,-0.41 1.53,-1.00 z M 20.10,25.84 c 0.03,-2.22e-4 0.06,9.28e-4 0.09,0.00 -0.01,0.19 0.04,0.47 -0.05,0.58 l -0.35,0 c -0.05,-0.18 -0.19,-0.27 -0.23,-0.47 0.16,-0.06 0.32,-0.12 0.54,-0.12 z m -10.73,0.06 c -0.04,0.01 -0.06,0.04 -0.05,0.11 2.56,0.89 5.35,1.86 7.88,2.59 C 16.72,28.16 16.01,28.06 15.37,27.85 13.41,27.19 11.26,26.47 9.37,25.90 z m 7.82,2.70 c 3.31e-4,3.22e-4 9.31e-4,3.22e-4 0.00,6.25e-4 l 0,-6.25e-4 c -3.86e-4,-2.02e-4 -8.76e-4,2.01e-4 -0.00,0 z m 5.82,-2.47 0.17,0 c -0.07,0.33 0.17,1.00 -0.17,1.05 0.02,-0.41 -0.04,-0.79 0,-1.05 z m 0.35,0.23 c 0.43,0.36 0.05,1.02 0.29,1.41 0.69,1.13 2.11,-0.55 2.94,-0.47 -0.06,0.42 0.07,0.77 -0.05,1.17 -0.16,0.00 -0.14,-0.16 -0.23,-0.23 -0.20,0.18 -0.45,0.32 -0.82,0.35 0.44,0.37 1.11,-0.06 1.58,-0.11 0.71,-0.07 1.48,0.24 2.47,0.11 0.00,0.22 -0.04,0.51 0.11,0.58 0.13,-0.08 0.02,-0.40 0.05,-0.58 0.33,0.01 0.75,-0.04 1.00,0.05 -0.04,0.29 -0.36,0.09 -0.41,0.29 0.20,0.31 0.45,-0.16 0.76,-0.11 0.09,0.09 0.04,0.34 0.05,0.52 -2.49,0.23 -4.24,0.06 -6.76,-0.52 -0.01,-0.18 0.03,-0.43 -0.05,-0.52 -0.19,0.00 -0.05,0.33 -0.17,0.41 -0.34,-0.06 -0.54,-0.27 -0.82,-0.41 l -6.31e-4,6.25e-4 c -0.02,-0.70 0.05,-1.43 0.05,-1.94 z m 11.81,0.05 c 0.02,-9.48e-4 0.05,2.22e-4 0.08,0.00 -0.11,0.31 0.09,0.59 -0.05,0.88 l -0.29,0 -6.25e-4,0 c 0.01,-0.37 -0.09,-0.87 0.27,-0.88 z m -11.45,0.18 0.17,0 c 0.04,0.37 -0.01,0.68 0.11,1.05 0.81,0.41 1.20,-0.38 1.88,-0.47 l 6.32e-4,6.26e-4 c -0.53,0.74 -2.49,1.20 -2.17,-0.58 z m 0.43,0.11 c 0.39,-0.00 0.90,0.26 1.33,0.35 -0.24,0.28 -0.77,0.58 -1.29,0.41 -0.08,-0.20 -0.06,-0.52 -0.11,-0.76 l 6.32e-4,0 c 0.02,-0.00 0.05,-0.00 0.07,-0.00 z m 10.57,0.00 c 0.01,2.02e-4 0.03,6.25e-4 0.05,0.00 0.07,0.51 -0.30,0.49 -0.17,0.76 -0.28,-0.06 -0.44,0.17 -0.58,0.05 0.10,-0.24 -0.03,-0.38 0.05,-0.64 0.20,-0.06 0.37,-0.18 0.64,-0.17 z m -0.82,0.29 0,0.64 c -0.47,0.07 -0.97,0.42 -1.53,0.23 -0.19,0.16 0.23,0.13 0.05,0.29 -0.27,0.04 -0.24,-0.06 -0.17,-0.23 -0.53,0.45 -1.53,0.42 -2.53,0.41 -0.03,-0.28 0.07,-0.41 0,-0.58 -0.31,0.05 -0.03,0.42 -0.17,0.58 -0.53,-0.03 -1.21,0.07 -1.64,-0.05 -0.00,-0.17 0.29,-0.05 0.29,-0.23 -0.37,-0.06 -0.91,0.34 -1.41,0.17 -0.04,-0.15 0.03,-0.61 0,-0.94 2.63,0.20 4.90,0.18 7.12,-0.29 z m -10.83,0.41 c 0.24,0.00 0.05,0.45 0.11,0.64 l -6.32e-4,-6.26e-4 c -0.28,0.04 -0.18,-0.52 -0.11,-0.64 z m 12.12,0.11 c 0.02,0.48 -0.04,0.80 0,1.17 -0.56,0.06 -0.74,-0.27 -1.11,-0.23 -0.76,0.07 -1.32,1.57 -0.88,2.41 0.22,0.42 0.64,0.41 1.11,0.58 -0.47,0.25 -1.27,0.48 -1.82,0.47 -0.12,-1.23 -0.04,-2.41 0.05,-3.59 l 0.00,0.00 c 0.77,-0.38 1.83,-0.48 2.64,-0.82 z m -11.28,0.60 c -0.11,0.00 -0.24,0.04 -0.24,0.15 0.10,0.15 0.40,0.02 0.41,-0.11 -0.02,-0.02 -0.09,-0.04 -0.16,-0.03 z m -0.95,0.27 0.23,0 c -0.02,0.53 -0.00,0.83 -0.05,1.11 -0.29,-0.13 -0.13,-0.72 -0.17,-1.11 z m 9.24,0 c 0.11,0.17 0.03,0.55 0.05,0.82 -0.39,0.10 -0.57,0.06 -1.00,0.11 0.07,-0.33 0.00,-0.47 0.05,-0.76 0.26,-0.08 0.55,-0.15 0.88,-0.17 z m -5.06,0.18 c -0.16,-7.87e-4 -0.36,0.07 -0.35,0.22 0.09,0.04 0.49,0.01 0.52,-0.17 l 0,-6.25e-4 c -0.03,-0.03 -0.10,-0.04 -0.17,-0.04 z m -3.82,0.04 c 0.34,0.10 0.62,0.27 0.94,0.41 -0.10,0.26 -0.04,0.70 -0.05,1.05 -0.42,0.01 -0.56,-0.26 -0.88,-0.35 l 0,-1.11 z m 10.65,0.11 c 2.39,0.56 4.86,1.35 7.41,2.17 0.57,0.18 1.73,0.50 1.94,0.82 0.49,0.76 -0.23,1.69 -0.76,1.76 -0.73,0.09 -1.62,-0.41 -2.35,-0.64 l 6.25e-4,0.00 c -2.30,-0.71 -4.72,-1.34 -6.82,-2.17 0.16,-0.31 0.50,0.14 0.82,0.05 -0.02,-0.40 -0.54,-0.31 -0.88,-0.41 -0.07,-0.60 0.20,-1.31 0.64,-1.58 z m -9.59,0.35 c 2.00,0.52 4.54,0.70 6.76,0.58 -0.04,0.47 -0.06,0.65 0,1.11 -2.29,0.20 -4.74,0.06 -6.76,-0.58 -0.03,-0.19 0.02,-0.74 0,-1.11 l 0,-6.25e-4 z m -8.02,0.17 c -0.03,2.02e-4 -0.06,0.00 -0.10,0.00 l 0,0.17 c 0.38,-0.00 0.90,0.45 1.17,0.17 -0.28,-0.14 -0.73,-0.36 -1.07,-0.36 z m 1.07,0.36 c 2.34e-4,2.01e-4 3.96e-4,5.04e-4 6.32e-4,6.25e-4 l 0,-0.00 c -2.06e-4,2.02e-4 -4.26e-4,4.24e-4 -6.32e-4,6.25e-4 z m 4.82,-0.23 c -0.06,0 -0.13,0.02 -0.17,0.06 -0.00,0.08 0.02,0.12 0.05,0.17 0.18,0.02 0.24,-0.07 0.29,-0.17 l 0.00,0 c -0.03,-0.04 -0.10,-0.06 -0.17,-0.06 z m 9.94,0.17 c 0.16,0.34 -0.03,0.79 0.05,1.11 -0.29,0.07 -0.67,0.07 -1.00,0.11 0.07,-0.45 -0.07,-0.74 0.05,-1.17 0.19,0 0.53,-0.04 0.88,-0.05 z m -5.35,0.17 0,6.25e-4 c -0.16,0.07 -0.21,0.81 0,0.88 0.05,-0.24 0.19,-0.75 0,-0.88 z m -3.86,0.05 c 0.07,-0.00 0.08,0.05 0.15,0.06 0.08,1.22 -0.13,3.38 0.05,4.35 0.12,-0.87 0.11,-1.52 0.05,-2.17 0.27,-0.16 0.59,0.05 0.94,0 -0.03,1.08 -0.05,1.81 -0.05,3.23 -0.23,0.07 -0.54,0.08 -0.76,0.17 -0.23,0.05 -0.02,-0.32 -0.23,-0.29 -0.18,0.18 0.09,0.83 -0.17,0.94 -0.18,-1.85 0.07,-4.00 0,-6.29 0.00,-0.00 0.01,-0.00 0.01,-0.00 z m -5.97,0.13 c -0.06,0.00 -0.12,0.04 -0.16,0.16 0.04,0.13 0.44,0.19 0.47,0 -0.09,-0.08 -0.20,-0.16 -0.30,-0.16 z m 12.93,0.09 c -0.01,0 -0.02,0.00 -0.03,0.00 0.04,0.24 -0.09,0.30 -0.05,0.52 0.34,0.15 0.31,-0.53 0.09,-0.53 z m -6.68,0.06 c 0.41,0.05 0.67,0.26 1.00,0.41 -0.10,0.25 -0.04,0.66 -0.05,1.00 -0.12,0.03 -0.38,-0.07 -0.41,0.05 0.02,0.31 0.32,-0.01 0.35,0.29 -0.34,0.03 -0.56,-0.17 -0.82,-0.05 l -0.00,0.00 c -0.08,-0.43 0.05,-1.16 -0.05,-1.70 z m 1.11,0.41 c 1.52,0.58 3.54,0.52 5.18,0.76 -0.06,0.49 0.09,1.12 -0.05,1.64 -0.18,-0.23 -0.88,-0.21 -0.94,0.17 -0.27,0.01 -0.59,-0.00 -0.70,0.17 0.40,0.27 1.27,-0.22 1.70,-0.11 l 0,0.70 c -0.27,0.05 -0.65,0.00 -0.76,0.23 0.61,0.19 1.43,-0.40 2.29,-0.35 l 0,0.82 c -0.27,0.01 -0.23,0.04 -0.29,0.23 -0.23,0.07 -0.15,-0.16 -0.23,-0.23 -0.12,0.03 -0.20,0.11 -0.23,0.23 0.09,0.37 0.52,0.18 0.76,0.17 -0.08,0.25 0.02,0.36 0,0.70 0.33,0.01 0.00,-0.28 0.17,-0.41 0.41,0.17 1.06,0.11 1.53,0.23 -0.00,0.14 -0.11,0.18 0,0.29 0.32,-0.04 0.62,-0.19 0.82,-0.05 0.05,0.18 -0.19,0.08 -0.17,0.23 0.03,0.17 0.26,0.16 0.35,0.29 0.00,0.39 -0.04,0.48 0,0.82 -0.13,0.05 -0.28,0.10 -0.47,0.11 -0.14,0.33 0.13,0.40 0.47,0.41 0.26,-0.28 0.12,-1.01 0.11,-1.41 0.22,-0.05 0.50,-0.26 0.88,-0.05 -0.03,-0.49 -0.86,-0.19 -0.88,-0.70 0.18,-0.11 0.46,0.08 0.64,-0.11 0.18,0.01 0.09,0.29 0.11,0.47 0.32,-0.17 -0.00,-0.99 0.17,-1.29 0.55,0.20 0.29,1.73 0.11,2.00 -0.21,0.06 -0.11,-0.19 -0.23,-0.23 -0.21,-0.03 -0.31,0.03 -0.41,0.11 0.00,0.23 0.27,0.19 0.35,0.35 -0.03,0.33 -0.07,0.50 0,0.82 -1.05,0.55 -2.65,0.79 -4.00,0.88 -0.05,-0.04 -0.03,-0.16 -0.11,-0.17 -0.53,0.45 -0.82,-0.23 -1.41,-0.05 -0.12,-0.00 -0.02,0.20 -0.05,0.29 -1.51,-0.11 -3.18,-0.17 -4.59,-0.58 -0.54,-0.16 -1.29,-0.41 -1.29,-1.00 0.12,-0.12 0.16,0.02 0.35,0 -0.01,-0.36 -0.43,-0.30 -0.29,-0.82 1.19,-0.72 3.25,-0.90 4.94,-0.94 -0.19,0.13 -0.18,0.25 -0.05,0.47 -0.77,0.49 -1.91,1.11 -3.00,1.23 -0.40,0.04 -0.61,0.06 -0.70,0.47 0.06,0.24 0.68,0.23 0.82,0.05 0.00,-0.20 -0.17,-0.21 -0.29,-0.29 0.17,-0.15 0.54,-0.11 0.82,-0.17 0.08,0.33 0.64,0.32 0.82,0.11 -0.02,-0.27 -0.35,0.09 -0.47,-0.11 0.07,-0.27 0.60,-0.35 0.76,-0.35 0.13,0.13 -0.00,0.28 0,0.47 0.18,0.11 0.65,0.09 0.70,-0.11 0.02,-0.25 -0.26,-0.20 -0.41,-0.29 0.26,-0.30 0.78,-0.34 1.00,-0.70 0.01,-0.11 -0.16,0.01 -0.17,0.05 -0.07,-0.27 0.56,-0.34 0.82,-0.47 0.06,-0.25 -0.19,-0.19 -0.17,-0.41 0.40,0.05 1.08,0.26 1.64,0.05 -0.10,-0.35 -0.44,-0.13 -0.70,-0.35 -1.36,0.22 -2.73,0.12 -4.12,0.35 0.85,-0.41 2.09,-0.45 2.94,-0.88 -1.30,-0.10 -2.67,0.74 -4.12,0.88 -0.03,-1.25 0.07,-2.23 0,-3.11 0.92,-0.03 1.83,-0.09 2.41,-0.47 -0.49,-0.07 -1.49,0.33 -2.35,0.29 0.02,-0.30 -0.11,-0.92 0,-1.35 z m 10.83,0.35 c -0.04,0.01 -0.06,0.04 -0.05,0.11 l 0,0.11 c 1.01,0.31 2.16,0.54 3.23,0.88 1.03,0.32 2.15,0.89 3.00,0.82 l 6.25e-4,-6.26e-4 c -1.79,-0.73 -4.14,-1.27 -6.18,-1.94 z m -3.16,0.17 c 0.04,-4.43e-4 0.10,4.64e-4 0.16,0.00 -0.00,0.47 -0.05,0.99 0.23,1.17 0.85,0.02 1.49,-0.45 2.23,-0.47 0.01,0.76 0.14,2.12 -0.70,1.64 l 0,-1.17 c -0.44,0.19 0.11,1.02 -0.35,1.17 0.01,0.24 0.34,0.16 0.23,0.52 -0.49,0.14 -0.84,-0.32 -1.41,-0.29 0.07,0.47 0.92,0.17 1.05,0.58 -0.60,-0.08 -0.87,0.31 -1.64,0.23 -0.00,-0.10 0.07,-0.12 0.05,-0.23 -0.18,0.01 -0.35,0.04 -0.35,0.23 0.12,0.35 0.64,0.18 0.94,0.11 0.14,0.13 -0.06,0.13 -0.11,0.23 0.18,0.03 0.92,0.47 1.17,0.05 -0.09,-0.16 -0.26,0.08 -0.47,0 0.04,-0.08 0.18,-0.08 0.29,-0.11 0.08,-0.22 -0.26,-0.01 -0.17,-0.23 0.21,-0.07 0.36,-0.22 0.58,-0.29 0.01,0.37 0.03,0.87 0,1.35 -0.91,-0.07 -1.71,-0.65 -2.53,-0.47 -0.16,-0.41 0.07,-0.89 0,-1.41 0.26,0.02 0.57,0.12 0.82,0 -0.01,-0.38 -0.78,0.00 -0.88,-0.29 0.33,-0.39 0.84,0.09 1.29,-0.23 -0.38,-0.24 -0.77,-0.14 -1.23,-0.11 l 0,-0.70 c 0.14,-0.05 0.33,-0.05 0.35,-0.23 -0.05,-0.16 -0.24,0.01 -0.35,0 l 0,-0.99 c 0.38,0.00 0.44,-0.06 0.77,-0.06 z m -1.09,0.11 c 0.06,2.02e-4 0.13,6.26e-4 0.19,0.00 -0.04,0.36 -0.07,0.74 -0.05,1.17 -0.49,0.11 -0.84,0.37 -1.35,0.47 l 0,-1.58 c 0.25,-0.05 0.74,-0.06 1.21,-0.06 z m 3.90,0.47 c 0.13,0.01 0.24,0.07 0.35,0.11 -0.18,0.75 0.07,2.07 -0.11,2.64 -0.34,-0.08 -0.29,-0.63 -0.29,-0.94 0.00,-0.48 0.11,-1.08 0.05,-1.64 l 0,-6.26e-4 c -0.07,-0.07 -0.02,-0.09 0,-0.17 z m 8.06,0.23 c 0.35,0.56 -0.00,1.36 -0.82,1.05 0.37,0.97 1.74,-0.49 0.94,-1.05 l -0.11,0 z m -17.11,0.13 c -0.17,-0.00 -0.39,0.08 -0.65,0.10 -0.00,0.29 0.77,0.15 0.82,-0.05 -0.05,-0.02 -0.10,-0.04 -0.16,-0.04 z m 5.19,0.70 c 0.06,-0.00 0.10,0.09 0.15,0.21 -0.06,0.18 -0.42,0.09 -0.47,0.29 0.06,0.25 0.33,-0.05 0.41,0.17 -0.31,0.25 -0.92,0.21 -1.35,0.35 0.00,-0.10 -0.07,-0.12 -0.05,-0.23 0.11,-0.12 0.49,0.02 0.47,-0.23 -0.10,-0.18 -0.41,0.06 -0.47,-0.05 0.17,-0.33 0.75,-0.50 1.17,-0.41 0.05,-0.06 0.10,-0.09 0.13,-0.09 z m 1.94,0.44 c -0.04,1.5e-5 -0.09,0.00 -0.14,0.00 l -6.26e-4,0 c 0.01,0.24 0.24,0.26 0.47,0.29 0.05,-0.26 -0.11,-0.29 -0.32,-0.29 z m -10.81,0.58 c -0.01,5.05e-4 -0.02,0.00 -0.04,0.00 -0.42,0.14 -1.00,0.29 -1.53,0.41 -0.24,0.05 -0.71,-0.04 -0.76,0.29 0.24,0.11 0.46,-0.06 0.70,-0.11 0.61,-0.13 1.33,-0.15 1.82,-0.52 -0.06,-0.01 -0.10,-0.06 -0.19,-0.06 z m 12.41,0.04 c 0.04,-0.00 0.08,0.00 0.13,0.01 l 0,0.41 c -0.26,0.05 -0.28,-0.14 -0.52,-0.11 l 0,0.17 c 0.11,0.12 0.39,0.07 0.52,0.17 -0.01,0.19 0.04,0.47 -0.05,0.58 -0.31,-0.13 -0.45,-0.00 -0.58,0.17 -0.17,-0.26 0.00,-0.81 -0.05,-1.05 0.18,-0.13 0.33,-0.36 0.56,-0.37 z m 1.17,0.33 c 0.12,-2.01e-4 0.32,0.13 0.43,0.15 -0.12,0.14 -0.34,-0.12 -0.52,-0.11 0.02,-0.02 0.05,-0.03 0.09,-0.03 z m 0.49,0.15 c 1.01,0.37 2.14,0.64 3.12,1.05 l 0.00,6.26e-4 c -0.27,0.13 -0.76,-0.33 -1.06,-0.17 0.74,0.47 1.84,0.58 2.59,1.05 -0.61,0.08 -1.32,-0.23 -2.00,-0.47 -0.96,-0.33 -1.90,-0.64 -2.76,-1.00 -0.21,-0.08 -0.64,-0.04 -0.58,-0.41 0.38,0.05 0.57,0.29 1.00,0.29 0.04,-0.26 -0.31,-0.11 -0.29,-0.35 z M 9.43,34.50 c -0.04,0.01 -0.06,0.04 -0.05,0.11 1.33,0.56 2.81,0.98 4.29,1.41 l 0,-6.26e-4 C 13.13,35.60 12.37,35.43 11.66,35.21 10.95,34.97 10.20,34.78 9.55,34.50 l -0.11,0 z m 28.02,0.41 c -0.01,0.26 0.40,0.30 0.52,0.23 -0.01,-0.24 -0.28,-0.22 -0.52,-0.23 z m -1.94,0.05 c 1.68,0.40 3.31,1.14 4.88,1.47 -0.14,0.32 -0.50,0.22 -0.76,0.29 -1.92,0.52 -4.13,1.20 -5.94,1.64 0.10,-0.40 1.27,-0.25 1.41,-0.82 0.24,0.10 0.71,0.20 0.94,0 0.00,-0.33 -0.44,-0.21 -0.64,-0.35 -0.05,-0.32 0.47,-0.07 0.58,-0.23 0.05,-0.35 -0.47,-0.11 -0.53,-0.35 -0.04,-0.32 0.48,-0.06 0.53,-0.29 0.13,-0.41 -0.47,-0.07 -0.47,-0.35 0.01,-0.25 0.55,0.00 0.52,-0.29 0.03,-0.33 -0.42,-0.16 -0.58,-0.29 l -6.26e-4,0.00 c 0.00,-0.15 -0.02,-0.33 0.05,-0.41 z m -5.29,0.51 c -0.03,-2.01e-4 -0.07,0.00 -0.11,0.01 0.03,0.23 0.10,0.44 0.41,0.41 0.16,-0.22 -0.02,-0.42 -0.29,-0.42 z m 9.55,0.01 c 0.16,-0.00 0.34,0.16 0.51,0.17 2.22e-4,-2.02e-4 4.03e-4,-4.44e-4 6.25e-4,-6.25e-4 l 6.26e-4,6.25e-4 c -4.04e-4,-1.2e-5 -8.48e-4,1.4e-5 -0.00,0 -0.13,0.11 -0.42,-0.11 -0.64,-0.11 0.04,-0.03 0.08,-0.05 0.13,-0.05 z m -12.72,0.03 c -0.46,0.01 -0.15,0.77 0.40,0.31 -0.03,-0.10 -0.27,0.00 -0.29,-0.11 0.10,-0.01 0.29,0.05 0.23,-0.11 l -6.26e-4,6.26e-4 c -0.14,-0.06 -0.25,-0.08 -0.34,-0.08 z m -3.19,0.02 c 0.14,0.20 -0.42,0.19 -0.52,0.35 -0.26,-0.33 0.41,-0.21 0.52,-0.35 z m -12.06,0.05 0,6.26e-4 0,0.23 c 0.95,0.06 1.81,0.84 2.64,0.64 -0.84,-0.33 -1.75,-0.59 -2.64,-0.88 z m 24.93,0.08 c -0.12,7.87e-4 -0.25,0.04 -0.44,0.09 l 0,0.29 c 0.27,0.10 0.82,0.12 0.82,-0.23 -0.14,-0.11 -0.25,-0.15 -0.37,-0.15 z m 3.85,0.03 c 0.48,0.04 0.83,0.51 0.53,1.00 -1.59,0.50 -3.67,0.96 -5.47,1.47 -0.44,0.12 -1.12,0.17 -1.35,0.64 0.97,-0.13 2.32,-0.67 3.29,-0.82 0.16,1.27 -0.11,2.08 0.11,3.17 0.05,-0.72 0.09,-1.74 0.11,-2.53 0.00,-0.26 -0.23,-0.65 0.11,-0.76 0.38,0.13 -0.12,1.24 0.23,1.64 0.13,-0.45 0.02,-1.15 0.05,-1.70 0.88,-0.25 1.73,-0.53 2.70,-0.70 -0.09,0.55 -0.05,1.24 -0.05,1.88 0.38,-0.33 0.06,-1.57 0.23,-1.94 0.25,1.11 0.08,2.27 0,3.06 -0.29,-0.00 0.01,-0.48 -0.11,-0.52 -0.41,0.05 -0.02,0.78 -0.11,0.88 -1.15,0.37 -2.31,0.74 -3.53,1.05 -0.02,-0.57 0.02,-1.84 0,-2.41 -0.39,0.36 0.04,1.81 -0.29,2.53 -0.26,0.01 -0.00,-0.50 -0.17,-0.58 -0.18,0.08 -0.09,0.45 -0.11,0.70 -2.27,0.57 -4.46,1.22 -6.71,1.82 -0.13,-0.55 0.15,-1.98 -0.05,-2.58 -0.22,0.69 -0.02,1.90 -0.17,2.64 -0.36,-0.44 0.09,-1.81 -0.17,-2.17 -0.17,0.79 -0.02,1.40 -0.17,2.29 -0.23,0.01 -0.01,-0.41 -0.17,-0.47 -0.13,0.06 -0.02,0.36 -0.05,0.52 -1.83,0.32 -3.40,1.22 -5.29,1.29 0.01,-0.29 0.19,-0.93 -0.05,-1.11 -0.22,0.20 0.02,0.73 -0.05,1.17 l -0.41,0 c -0.10,-0.97 0.12,-2.42 -0.05,-3.47 -0.30,0.88 0.03,2.42 -0.17,3.41 -0.24,0.01 -0.37,-0.09 -0.58,-0.11 -0.00,-0.24 0.10,-0.32 0,-0.52 -0.19,0.00 -0.05,0.33 -0.17,0.41 -1.45,-0.48 -2.80,-1.07 -4.17,-1.64 0.04,-1.03 0.24,-2.24 0,-3.17 -0.13,0.96 0.00,2.20 -0.17,3.12 -0.46,-0.59 0.03,-1.69 -0.17,-2.35 -0.31,0.41 -0.01,1.43 -0.23,2.17 -0.44,0.02 -0.04,-0.45 -0.23,-0.64 -0.18,0.01 -0.09,0.29 -0.11,0.47 -0.76,-0.19 -1.39,-0.52 -2.06,-0.82 -0.18,-1.05 0.21,-2.58 -0.11,-3.70 -0.13,1.00 -0.02,2.25 -0.05,3.35 -0.54,-0.94 -0.06,-2.70 -0.17,-3.70 1.13,0.73 2.48,1.24 3.76,1.82 0.10,0.51 -0.12,1.67 0.05,2.41 0.27,-0.55 0.04,-1.60 0.11,-2.35 1.99,0.49 3.62,2.08 5.94,1.64 1.68,-0.31 3.68,-1.21 5.53,-1.53 0.00,0.95 -0.01,2.11 0,2.88 0.31,-0.21 0.10,-0.74 0.11,-1.17 0.01,-0.62 0.00,-1.32 0.17,-1.82 0.36,0.08 0.09,0.80 0.17,1.17 0.36,-0.10 0.11,-0.87 0.11,-1.17 0.64,-0.43 1.89,-0.26 2.35,-0.88 -1.45,0.27 -2.90,0.67 -4.35,1.05 -1.45,0.38 -2.90,0.97 -4.35,1.17 -1.65,0.22 -3.32,-0.69 -4.76,-1.29 -1.41,-0.58 -2.99,-1.11 -4.12,-2.00 1.69,0.71 3.56,1.55 5.35,2.29 1.06,0.44 2.34,1.00 3.70,0.76 1.57,-0.28 3.18,-0.83 4.82,-1.29 3.24,-0.90 6.62,-1.69 10.06,-2.64 0.49,-0.13 1.19,-0.23 1.47,-0.76 l -0.00,0.00 c 0,-0.33 -0.43,-0.22 -0.46,-0.53 z m -11.15,0.10 c -0.12,0.00 -0.23,0.02 -0.32,0.07 l 0,0.17 c 0.06,0.23 0.77,0.27 0.82,6.26e-4 -0.03,-0.17 -0.26,-0.25 -0.49,-0.24 z m -3.42,0.01 c -0.35,0.00 -0.76,0.44 -0.01,0.47 0.06,-0.18 -0.09,-0.14 -0.11,-0.23 0.22,-0.04 0.28,0.07 0.47,0.05 -0.04,-0.21 -0.18,-0.29 -0.33,-0.29 z m 5.43,0.00 c -0.17,-0.00 -0.28,0.32 -0.39,0.17 l -6.26e-4,-0.00 c 0.04,-0.01 0.06,-0.04 0.05,-0.11 -0.13,-0.07 -0.50,0.01 -0.52,0.23 0.10,0.16 0.40,0.13 0.58,0.23 -0.15,0.09 -0.20,0.30 -0.47,0.29 -0.00,-0.10 0.01,-0.18 0.05,-0.23 -0.36,0.14 -0.63,0.38 -1.00,0.52 -0.00,-0.16 0.09,-0.11 0,-0.23 l -0.41,0 c -0.13,0.03 -0.15,0.19 -0.29,0.23 -0.47,0.26 -1.34,0.27 -1.64,0.52 0.12,0.21 0.50,-0.15 0.52,0.11 -0.19,0.14 -0.55,0.11 -0.52,0.47 l -0.29,0 c -0.09,-0.11 0.00,-0.07 0,-0.23 -0.18,-0.05 -0.18,0.09 -0.29,0.11 0.02,0.32 0.40,0.30 0.76,0.29 0.06,-0.06 0.06,-0.20 0.05,-0.35 0.32,-0.13 0.50,-0.04 0.94,-0.05 0.43,-0.49 1.23,-0.60 1.76,-1.00 0.05,0.29 0.50,0.20 0.70,0.35 -0.03,0.10 0.07,0.34 -0.05,0.35 -0.29,-0.02 -0.53,0.01 -0.70,0.11 0.40,1.03 1.46,-0.42 0.70,-0.88 0.03,-0.18 0.21,-0.21 0.35,-0.29 0.02,0.28 0.82,0.38 0.82,0 -0.12,-0.13 -0.20,0.04 -0.41,0 7.47e-4,-0.11 0.16,-0.07 0.11,-0.23 -0.22,-0.04 -0.28,0.07 -0.47,0.05 -0.02,-0.20 0.02,-0.33 0.05,-0.47 -0.00,-8.07e-4 -0.01,-0.00 -0.01,-0.00 z m -8.87,0.05 c 0.26,0.49 -0.08,0.99 0.29,1.41 0.05,0.18 -0.19,0.08 -0.17,0.23 0.18,0.54 0.96,-0.10 1.00,0.58 l 0.76,0 c -0.00,0.14 0.09,0.18 0.11,0.29 1.12,-0.15 2.10,0.26 3.29,0.29 -0.05,0.18 0.09,0.18 0.11,0.29 0.28,-0.02 0.72,0.09 0.70,-0.23 1.02,0.10 2.29,-0.27 3.00,0.05 -0.08,0.20 -0.44,0.14 -0.64,0.23 -0.06,-0.29 -0.59,-0.38 -0.82,-0.17 -0.07,0.25 0.28,0.24 0.11,0.41 -0.24,-0.04 -0.30,0.09 -0.52,0.05 0.02,-0.45 -0.69,-0.39 -0.76,-0.05 -0.02,0.17 0.19,0.12 0.29,0.17 -0.15,0.18 -0.54,0.12 -0.70,0.29 -0.23,-0.07 0.01,-0.12 0,-0.29 -0.10,-0.23 -0.71,-0.24 -0.76,0.05 -0.02,0.24 0.27,0.15 0.41,0.23 -0.19,0.17 -0.60,0.14 -0.88,0.23 0.02,-0.45 -0.67,-0.29 -0.82,-0.11 0.04,0.12 0.11,0.23 0.29,0.23 -0.07,0.13 -0.31,0.11 -0.47,0.17 -0.24,-0.20 -0.51,-0.39 -0.88,-0.17 -0.01,0.16 -0.00,0.32 0.17,0.29 -0.07,0.15 -0.29,0.17 -0.52,0.17 -0.20,0.00 0.01,-0.20 -0.17,-0.29 -0.32,-0.03 -0.56,0.02 -0.70,0.17 -0.04,0.18 0.16,0.11 0.11,0.29 -0.14,0.07 -0.18,-0.02 -0.23,0.05 -0.33,-0.48 -0.89,-0.12 -1.35,-0.17 0.42,-0.72 -0.70,-0.33 -1.00,-0.35 -0.05,-0.18 0.15,-0.12 0.17,-0.23 -0.22,-0.60 -0.85,0.08 -1.29,-0.23 -0.00,-0.20 0.29,-0.09 0.29,-0.29 -0.21,-0.55 -0.84,0.04 -1.11,-0.05 -0.02,-0.19 0.26,-0.09 0.17,-0.35 -0.43,-0.42 -0.79,0.22 -1.23,-0.05 0.04,-0.15 0.26,-0.12 0.29,-0.29 -0.29,-0.45 -0.80,0.07 -1.17,-0.05 -0.01,-0.19 0.18,-0.16 0.23,-0.29 -0.00,-0.30 -0.76,-0.34 -0.82,-0.05 -0.48,-0.17 -0.94,-0.39 -1.35,-0.64 -4.36e-4,2.02e-4 -8.25e-4,4.64e-4 -0.00,6.25e-4 l 0,-0.00 c 3.95e-4,2.42e-4 8.65e-4,3.84e-4 0.00,6.26e-4 2.08,-0.79 4.64,-1.20 6.59,-1.82 z m 15.17,0.20 c -0.17,0.00 -0.35,0.06 -0.45,0.14 0.06,0.37 0.47,0.26 0.82,0.23 0.01,-0.04 0.00,-0.11 0.05,-0.11 -0.04,-0.20 -0.22,-0.27 -0.42,-0.26 z m -9.39,0.14 c -0.24,-0.00 -0.40,0.07 -0.53,0.18 0.02,0.35 0.52,0.31 0.82,0.23 0.02,-0.22 -0.11,-0.27 -0.17,-0.41 l -6.26e-4,0 c -0.03,-0.00 -0.07,-0.00 -0.10,-0.00 z m -3.53,0.01 c -0.16,0.00 -0.29,0.13 -0.41,0.10 -0.01,0.41 0.80,0.47 0.82,0.05 -0.12,-0.15 -0.36,0.23 -0.23,-0.11 -0.05,-0.03 -0.11,-0.05 -0.16,-0.04 z m -1.75,0.04 c 0.01,-2.01e-4 0.02,2.02e-4 0.03,6.26e-4 l 0,0.29 c -0.19,0.04 -0.21,-0.09 -0.23,-0.23 0.04,-0.03 0.11,-0.05 0.19,-0.05 z m 2.98,0.06 c -0.21,0.12 -0.63,0.03 -0.76,0.23 0.20,0.08 0.80,0.11 0.76,-0.23 l -6.26e-4,0 z m 10.57,0.04 c -0.20,0.00 -0.41,0.07 -0.44,0.19 0.06,0.27 0.84,0.37 0.88,0 l -6.26e-4,0 c -0.02,-0.13 -0.23,-0.19 -0.43,-0.19 z m 2.06,0.00 c -0.19,0.00 -0.40,0.07 -0.44,0.19 0.05,0.35 0.72,0.35 0.82,0.05 l 6.25e-4,6.25e-4 c 0.00,-0.18 -0.17,-0.25 -0.37,-0.25 z m -21.81,0.24 c 0.04,-10e-4 0.08,0 0.11,0.00 -0.55,0.34 -2.30,0.39 -1.41,1.29 -1.66,-0.53 0.43,-1.27 1.29,-1.29 z m 18.13,0.00 c 0.20,0.08 0.20,0.82 -0.11,0.76 -0.11,-0.14 -0.03,-0.47 -0.05,-0.70 l -6.25e-4,-6.26e-4 c 0.08,0.00 0.16,0.01 0.17,-0.05 z m -2.20,0.05 c -0.13,0 -0.28,0.02 -0.38,0.06 l 0,0.29 c 0.28,0.10 0.59,0.13 0.82,-0.05 0.00,-0.22 -0.21,-0.30 -0.43,-0.30 z m 4.78,0.00 c -0.26,0.00 -0.51,0.14 -0.34,0.41 0.30,-0.02 0.77,0.10 0.76,-0.23 l -6.25e-4,0 C 37.92,36.79 37.73,36.73 37.55,36.73 z m -14.58,0.10 c 0.18,-0.01 0.21,0.20 0.11,0.30 -0.10,-0.05 -0.20,-0.10 -0.17,-0.29 0.02,-0.00 0.04,-0.00 0.06,-0.01 z m 1.19,0.01 c -0.00,2.01e-4 -0.01,0.00 -0.02,0.00 0.14,0.60 -0.46,0.08 -0.58,0.41 0.12,0.18 0.55,0.07 0.70,0.23 0.06,-0.12 0.16,-0.65 -0.09,-0.65 z m -6.73,0.05 c -0.21,0.23 -0.64,0.25 -1.00,0.35 0.18,-0.26 0.59,-0.30 1.00,-0.35 z m 4.57,0.05 c -0.19,0.00 -0.37,0.08 -0.39,0.29 0.29,0.22 0.65,0.34 0.88,0 l -6.31e-4,0 c -0.03,-0.18 -0.27,-0.29 -0.49,-0.29 z m 14.26,0.05 c 0.00,0.13 -0.10,0.17 -0.05,0.35 0.20,0.09 0.77,0.12 0.76,-0.17 -0.08,-0.25 -0.57,-0.11 -0.70,-0.17 l -6.26e-4,-6.26e-4 z m -7.09,0.10 c 0.05,-0.00 0.10,0.00 0.14,0.01 -0.15,0.18 -0.60,0.35 -0.82,0.29 0.09,-0.18 0.43,-0.30 0.67,-0.30 z m 2.51,0.01 c -0.20,-4.04e-4 -0.37,0.02 -0.36,0.23 0.07,0.20 0.33,0.21 0.58,0.23 0.16,-0.13 0.03,-0.19 0.05,-0.47 -0.08,0.00 -0.18,-0.00 -0.27,-0.00 z m -10.74,0.17 c -0.19,0.00 -0.36,0.11 -0.33,0.35 0.18,0.14 0.72,0.19 0.82,-0.05 l 0,-6.26e-4 c -0.01,-0.18 -0.26,-0.30 -0.48,-0.29 z m -12.63,0.11 0.17,0 c 1.48,0.64 3.08,1.37 4.59,2.00 0.51,0.21 1.11,0.26 1.47,0.70 -2.12,-0.74 -4.05,-1.66 -6.12,-2.47 -0.00,-0.11 -0.16,-0.07 -0.11,-0.23 z m 21.07,0.05 c 0.13,0.33 -0.26,0.13 -0.23,0.35 0.15,0.17 0.68,0.16 0.76,-0.05 -0.04,-0.23 -0.26,-0.28 -0.52,-0.29 z m -3.37,0.09 c -0.21,0.00 -0.45,0.15 -0.33,0.43 0.11,0.10 0.38,0.04 0.58,0.05 0.05,-0.25 -0.38,-0.00 -0.35,-0.23 0.07,-0.08 0.25,-0.05 0.41,-0.05 l 6.26e-4,0 c -0.01,-0.13 -0.16,-0.20 -0.31,-0.19 z m -6.12,0.00 c -0.19,0.00 -0.39,0.08 -0.39,0.24 0.07,0.25 0.70,0.33 0.82,0.05 l 6.31e-4,6.26e-4 c 0.03,-0.21 -0.20,-0.31 -0.42,-0.30 z m 12.96,0.06 c -0.27,0.00 -0.43,0.11 -0.47,0.35 0.28,0.11 0.81,0.19 0.70,-0.17 -0.20,0.18 -0.09,-0.07 -0.17,-0.17 l -6.26e-4,-6.25e-4 c -0.01,-7.87e-4 -0.03,-0.00 -0.05,-0.00 z m -10.98,0.04 c -0.25,0.01 -0.50,0.14 -0.32,0.43 0.33,-0.02 0.68,0.18 0.76,-0.17 0.02,-0.17 -0.21,-0.26 -0.44,-0.25 z m 10.03,0.19 -6.25e-4,6.26e-4 c -0.01,0.08 0.02,0.21 -0.05,0.23 l -0.23,0 c -0.13,-0.08 0.11,-0.18 -0.11,-0.17 -0.08,-0.00 -0.12,0.02 -0.17,0.05 0.03,0.35 0.59,0.33 0.82,0.17 0.01,-0.13 -0.00,-0.22 -0.05,-0.29 l -0.17,0 z m 6.53,0 c -0.06,0.13 -0.17,0.74 0.11,0.70 -0.06,-0.21 0.13,-0.68 -0.11,-0.70 z m -19.69,0.05 c -0.12,0.00 -0.26,0.01 -0.38,0.00 l 0,6.25e-4 c -0.06,0.18 -0.00,0.13 0,0.35 0.18,0.05 0.74,0.16 0.76,-0.11 0.00,-0.21 -0.17,-0.24 -0.38,-0.24 z m 2.04,0.05 c -0.18,0.00 -0.35,0.07 -0.36,0.24 0.01,0.23 0.82,0.30 0.82,0 l 6.32e-4,0 c -0.02,-0.15 -0.24,-0.24 -0.45,-0.24 z m 2.00,0.08 c -0.19,0.00 -0.37,0.09 -0.36,0.33 0.22,0.10 0.85,0.26 0.82,-0.17 l 0,-6.26e-4 c -0.09,-0.09 -0.28,-0.16 -0.45,-0.16 z m -3.08,0.22 c -0.11,0.00 -0.24,0.02 -0.34,0.05 -0.05,0.49 0.77,0.50 0.82,0.11 l 0,-6.26e-4 c -0.09,-0.13 -0.27,-0.17 -0.47,-0.17 z m 2.02,0.09 c -0.22,-0.00 -0.45,0.10 -0.42,0.31 0.11,0.20 0.79,0.30 0.82,-0.05 l 0,-6.25e-4 c -0.00,-0.16 -0.19,-0.24 -0.39,-0.25 z m 2.09,0.02 c -0.17,0.00 -0.34,0.10 -0.40,0.28 0.14,0.27 0.64,0.25 0.82,0.05 l 6.32e-4,6.25e-4 c -0.03,-0.24 -0.22,-0.35 -0.41,-0.34 z m 8.91,0.01 c 0.12,-8.27e-4 0.23,0.01 0.27,0.03 -0.13,0.16 -0.62,0.27 -0.82,0.17 0.08,-0.16 0.33,-0.20 0.54,-0.20 z m -6.70,0.14 c -0.22,-0.00 -0.47,0.13 -0.43,0.35 0.34,0.08 0.53,0.16 0.76,0 0.04,-0.24 -0.13,-0.35 -0.32,-0.35 z m -5.38,0.02 c -0.12,0.00 -0.24,0.02 -0.34,0.04 -0.13,0.54 0.67,0.47 0.82,0.23 -0.08,-0.22 -0.27,-0.27 -0.47,-0.27 z m 13.07,0.09 c -0.21,0.02 -0.33,0.13 -0.35,0.35 0.15,0.11 0.37,-0.10 0.35,-0.35 l -6.25e-4,0 z m -11.01,0.08 c -0.18,0.00 -0.35,0.08 -0.40,0.26 0.07,0.24 0.91,0.31 0.82,-0.11 -0.09,-0.09 -0.26,-0.15 -0.42,-0.14 z m 2.06,0.03 c -0.13,-7.26e-4 -0.29,0.02 -0.40,0.05 -0.12,0.48 0.71,0.52 0.76,0.17 l -6.31e-4,6.26e-4 c -0.02,-0.17 -0.18,-0.23 -0.36,-0.23 z m 2.40,0.16 c -0.19,0.00 -0.38,0.07 -0.39,0.24 0.11,0.24 0.87,0.37 0.82,-0.11 -0.07,-0.08 -0.26,-0.12 -0.43,-0.12 z m -5.50,0.16 c -0.22,-0.00 -0.46,0.09 -0.47,0.25 0.06,0.23 0.61,0.22 0.82,0.11 0.07,-0.25 -0.12,-0.36 -0.35,-0.37 z m 2.05,0.11 c -0.19,0.00 -0.37,0.08 -0.35,0.25 0.03,0.25 0.80,0.28 0.76,-0.05 l -6.31e-4,-6.25e-4 c -0.01,-0.12 -0.21,-0.19 -0.41,-0.19 z m 2.06,0.00 c -0.20,-0.00 -0.41,0.07 -0.42,0.24 0.17,0.22 0.79,0.34 0.82,-0.05 l 6.25e-4,-6.25e-4 c -0.04,-0.12 -0.22,-0.18 -0.40,-0.18 z m -1.12,0.28 c -0.18,0.00 -0.35,0.08 -0.35,0.25 0.06,0.24 0.68,0.23 0.82,0.05 0.02,-0.20 -0.23,-0.31 -0.47,-0.31 z m -2.18,0.00 c -0.22,0.00 -0.44,0.11 -0.40,0.36 0.24,0.08 0.73,0.20 0.82,-0.11 l 6.32e-4,6.26e-4 c -0.02,-0.16 -0.22,-0.24 -0.42,-0.24 z m 1.17,0.34 c -0.19,-0.00 -0.40,0.07 -0.45,0.18 0.06,0.35 0.59,0.28 0.82,0.17 l 6.31e-4,6.25e-4 c 0.06,-0.25 -0.14,-0.36 -0.36,-0.36 z m -4.57,0.12 0,6.26e-4 c -0.00,0.11 -0.21,0.71 0.11,0.76 -0.04,-0.24 0.10,-0.69 -0.11,-0.76 z m 16.01,0.17 c -0.95,0.08 -1.76,0.32 -2.47,0.64 0.03,0.45 -0.09,1.07 0.11,1.35 0.68,-0.07 1.83,-0.01 2.35,-0.23 0.12,-0.50 0.04,-1.24 0,-1.76 l -6.26e-4,0 z m -0.45,0.25 c 0.09,-8.88e-4 0.17,0.01 0.22,0.03 -0.00,0.34 -0.65,0.04 -0.82,0.23 -0.09,-0.15 0.31,-0.26 0.59,-0.27 z m 6.40,0.21 c -0.46,0.54 -1.27,0.61 -1.94,0.82 -3.35,1.06 -6.94,1.93 -10.47,2.94 -1.39,0.39 -2.87,1.04 -4.23,1.17 -1.43,0.13 -2.22,-0.33 -3.29,-0.76 -1.41,-0.56 -2.79,-1.11 -4.17,-1.70 -0.67,-0.28 -1.54,-0.36 -1.88,-1.05 0.61,0.50 1.71,0.52 2.23,1.11 2.06,0.36 3.80,1.74 6.00,2.17 0.15,0.03 0.42,-0.12 0.52,0.11 4.53,-1.07 8.93,-2.60 13.36,-3.59 1.09,-0.57 2.64,-0.69 3.76,-1.23 l 0.00,0.00 c 0.03,0 0.07,-6.26e-4 0.11,-0.00 z m -6.18,0.23 c -0.00,0.45 -0.00,0.59 -0.05,0.94 -0.56,0.05 -1.22,0.02 -1.88,0.11 -0.08,-0.07 -0.05,-0.25 -0.05,-0.41 0.16,0.09 0.26,0.24 0.58,0.17 0.08,-0.03 0.14,-0.09 0.17,-0.17 0.05,-0.18 -0.09,-0.18 -0.11,-0.29 -0.33,-0.09 -0.52,0.25 -0.64,0.17 -0.10,-0.11 0.01,-0.32 0.05,-0.47 l 6.25e-4,-6.26e-4 c 0.70,0.04 1.27,-0.06 1.94,-0.05 z m -0.53,0.42 c -0.07,0 -0.15,0.01 -0.23,0.05 -0.06,0.25 0.54,0.25 0.47,0 l -6.25e-4,0 c -0.08,-0.03 -0.15,-0.05 -0.23,-0.05 z m -11.80,0.16 c -0.00,2.22e-4 -0.01,0.00 -0.02,0.00 -0.05,0.82 -0.07,1.82 -0.05,2.82 0.31,-0.23 0.17,-0.80 0.17,-1.29 l 0,-1.47 c -0.01,-0.04 -0.04,-0.06 -0.09,-0.06 z m 1.32,0.06 c -0.05,0.50 -0.17,1.53 0.05,1.94 0.06,-0.49 0.17,-1.54 -0.05,-1.94 z m 0.82,0.11 c -0.12,1.07 -0.04,2.41 -0.05,3.29 0.28,-0.25 0.17,-0.85 0.17,-1.41 0.00,-0.58 -0.00,-1.23 0,-1.76 -0.01,-0.06 -0.06,-0.09 -0.11,-0.11 z m 0.78,0.58 c -0.00,3.84e-4 -0.01,0.00 -0.01,0.00 l -6.32e-4,0 c 0.03,0.51 -0.09,1.67 0.05,2.11 0.14,-0.51 0.01,-1.36 0.11,-2.06 -0.07,-0.00 -0.08,-0.06 -0.15,-0.06 z" />
</svg>
