<?xml version="1.0" encoding="UTF-8" standalone="no"?>
<!-- Created with Inkscape (http://www.inkscape.org/) -->

<svg
 xmlns:dc="http://purl.org/dc/elements/1.1/"
 xmlns:cc="http://creativecommons.org/ns#"
 xmlns:rdf="http://www.w3.org/1999/02/22-rdf-syntax-ns#"
 xmlns:svg="http://www.w3.org/2000/svg"
 xmlns="http://www.w3.org/2000/svg"
 version="1.1"
 width="100%"
 height="100%"
 viewBox="0 0 48 48"
 id="svg2985">
<metadata
 id="metadata16">
<rdf:RDF>
<cc:Work
 rdf:about="">
<dc:format>image/svg+xml
</dc:format>
<dc:type
 rdf:resource="http://purl.org/dc/dcmitype/StillImage" />
<dc:title></dc:title>
</cc:Work>
</rdf:RDF>
</metadata>
<defs
 id="defs2987" />
<g
 id="layer1">
<path
 d="M 7.4,33.93 41.12,38.09 40.93,39.65 7.18,35.5 7.4,33.93 z"
 id="rect3778"
 style="color:#000000;fill:#241f1c;fill-opacity:1;fill-rule:evenodd;stroke:none;stroke-width:0.99000001;marker:none;visibility:visible;display:inline;overflow:visible;enable-background:accumulate" />
<path
 d="m 38.28,32.85 -2.57,0 0,12 2.57,0 z"
 id="rect3776"
 style="color:#000000;fill:#333333;fill-opacity:1;fill-rule:evenodd;stroke:#191615;stroke-width:0.30000001;stroke-miterlimit:4;stroke-opacity:1;marker:none;visibility:visible;display:inline;overflow:visible;enable-background:accumulate" />
<path
 d="m 47,32 0,2 -20,0 0,-2 20,0 z"
 id="rect2998"
 style="color:#000000;fill:#d3bc5f;fill-opacity:1;fill-rule:evenodd;stroke:#191615;stroke-width:0.40000001;stroke-miterlimit:4;stroke-opacity:1;stroke-dasharray:none;marker:none;visibility:visible;display:inline;overflow:visible;enable-background:accumulate" />
<path
 d="m 12,28.85 -2.57,0 0,12 2.57,0 z"
 id="rect3791"
 style="color:#000000;fill:#333333;fill-opacity:1;fill-rule:evenodd;stroke:#191615;stroke-width:0.30000001;stroke-miterlimit:4;stroke-opacity:1;marker:none;visibility:visible;display:inline;overflow:visible;enable-background:accumulate" />
<path
 d="m 21,28 0,2 -20,0 0,-2 20,0 z"
 id="rect3772"
 style="color:#000000;fill:#d3bc5f;fill-opacity:1;fill-rule:evenodd;stroke:#191615;stroke-width:0.40000001;stroke-linecap:butt;stroke-linejoin:miter;stroke-miterlimit:4;stroke-opacity:1;stroke-dasharray:none;stroke-dashoffset:0;marker:none;visibility:visible;display:inline;overflow:visible;enable-background:accumulate" />
<path
 d="m 24,33 c 3.86,0 7,3.13 7,7 0,0.79 -0.13,1.56 -0.37,2.28 l -3.34,0 C 27.72,41.63 28,40.84 28,40 c 0,-2.2 -1.79,-4 -4,-4 -2.2,0 -4,1.79 -4,4 0,0.84 0.27,1.63 0.71,2.28 l -3.34,0 C 17.13,41.56 17,40.79 17,40 c 0,-3.86 3.13,-7 7,-7 z m 0,3.84 c 1.73,0 3.15,1.42 3.15,3.15 0,0.9 -0.41,1.7 -1.03,2.28 l -4.25,0 C 21.25,41.7 20.84,40.9 20.84,40 c 0,-1.73 1.42,-3.15 3.15,-3.15 z m 0,1.37 c -0.99,0 -1.78,0.78 -1.78,1.78 0,0.99 0.78,1.78 1.78,1.78 0.99,0 1.78,-0.78 1.78,-1.78 C 25.78,39 25,38.21 24,38.21 z"
 id="path3774"
 style="color:#000000;fill:#917c6f;fill-opacity:1;fill-rule:evenodd;stroke:none;stroke-width:0.99000001;marker:none;visibility:visible;display:inline;overflow:visible;enable-background:accumulate" />
<path
 d="m 26.87,34.78 c 0.12,0.02 0.22,0.04 0.34,0.12 0.46,0.3 0.61,0.94 0.31,1.4 l -2.96,4.45 c -0.3,0.46 -0.91,0.58 -1.37,0.28 -0.46,-0.3 -0.58,-0.91 -0.28,-1.37 l 2.93,-4.46 c 0.22,-0.34 0.64,-0.47 1.03,-0.4 z"
 id="rect3793"
 style="color:#000000;fill:#ff0000;fill-opacity:1;fill-rule:evenodd;stroke:#4b1400;stroke-width:0.5;stroke-miterlimit:4;stroke-opacity:1;stroke-dasharray:none;marker:none;visibility:visible;display:inline;overflow:visible;enable-background:accumulate" />
<path
 d="m 42,40 c 1.1,0 2,0.89 2,2 l 0,1.56 0,0.44 0,2 -2,0 L 6,46 4,46 4,44 4,43.56 4,42 c 0,-1.1 0.89,-2 2,-2 l 36,0 z"
 id="rect2993"
 style="color:#000000;fill:#30251c;fill-opacity:1;fill-rule:evenodd;stroke:#191615;stroke-width:0.40000001;stroke-miterlimit:4;stroke-opacity:1;stroke-dasharray:none;marker:none;visibility:visible;display:inline;overflow:visible;enable-background:accumulate" />
<path
 d="m 17,40 c 0,-3.86 3.13,-7 7,-7 3.86,0 7,3.13 7,7"
 id="path3817"
 style="color:#000000;fill:none;stroke:#191615;stroke-width:0.40000001;stroke-miterlimit:4;stroke-opacity:1;stroke-dasharray:none;marker:none;visibility:visible;display:inline;overflow:visible;enable-background:accumulate" />
</g>
<rect
 width="10"
 height="10"
 rx="2"
 ry="2"
 x="18.119217"
 y="-3.1088095"
 transform="matrix(0.97283009,0.23152021,-0.23152021,0.97283009,0,0)"
 id="rect2994"
 style="color:#000000;fill:#af0000;fill-opacity:1;fill-rule:evenodd;stroke:#650000;stroke-width:0.5;stroke-linecap:butt;stroke-linejoin:miter;stroke-miterlimit:4;stroke-opacity:1;stroke-dasharray:none;stroke-dashoffset:0;marker:none;visibility:visible;display:inline;overflow:visible;enable-background:accumulate" />
<rect
 width="10"
 height="10"
 rx="2"
 ry="2"
 x="32.32"
 y="21.700001"
 id="rect3109"
 style="color:#000000;fill:#2242cd;fill-opacity:1;fill-rule:evenodd;stroke:#00084c;stroke-width:0.5;stroke-linecap:butt;stroke-linejoin:miter;stroke-miterlimit:4;stroke-opacity:1;stroke-dasharray:none;stroke-dashoffset:0;marker:none;visibility:visible;display:inline;overflow:visible;enable-background:accumulate" />
<path
 d="m 13.8125,9.53125 c -1.883846,1.255897 -2.957542,3.19707 -3.5,5.28125 -0.4330065,1.663657 -0.5548984,3.445921 -0.59375,5.3125 l -3.84375,0 c -0.4068519,0.345055 -0.4062834,0.887375 0.03125,1.21875 l 4.75,3.59375 c 0.453431,0.343416 1.202819,0.343416 1.65625,0 l 4.75,-3.59375 c 0.435582,-0.329897 0.463786,-0.87363 0.0625,-1.21875 l -4.40625,0 c 0.04351,-1.725079 0.166582,-3.281473 0.5,-4.5625 0.423644,-1.627684 1.082998,-2.753248 2.25,-3.53125 l -1.65625,-2.5 z"
 id="path2996"
 style="font-size:medium;font-style:normal;font-variant:normal;font-weight:normal;font-stretch:normal;text-indent:0;text-align:start;text-decoration:none;line-height:normal;letter-spacing:normal;word-spacing:normal;text-transform:none;direction:ltr;block-progression:tb;writing-mode:lr-tb;text-anchor:start;baseline-shift:baseline;color:#000000;fill:#f4df5b;fill-opacity:1;stroke:#471c00;stroke-width:0.5;stroke-miterlimit:4;stroke-opacity:1;stroke-dasharray:none;marker:none;visibility:visible;display:inline;overflow:visible;enable-background:accumulate;font-family:Sans;-inkscape-font-specification:Sans" />
</svg>
