<?xml version="1.0" encoding="UTF-8" standalone="no"?>
<svg
   xmlns:dc="http://purl.org/dc/elements/1.1/"
   xmlns:cc="http://creativecommons.org/ns#"
   xmlns:rdf="http://www.w3.org/1999/02/22-rdf-syntax-ns#"
   xmlns:svg="http://www.w3.org/2000/svg"
   xmlns="http://www.w3.org/2000/svg"
   viewBox="0 0 32 32"
   version="1.1"
   id="SVGRoot"
   height="100%"
   width="100%">
  <defs
     id="defs6229" />
  <metadata
     id="metadata6232">
    <rdf:RDF>
      <cc:Work
         rdf:about="">
        <dc:format>image/svg+xml</dc:format>
        <dc:type
           rdf:resource="http://purl.org/dc/dcmitype/StillImage" />
        <dc:title></dc:title>
      </cc:Work>
    </rdf:RDF>
  </metadata>
  <rect
     transform="scale(-1,1)"
     ry="4.5"
     rx="4.5"
     y="0.25"
     x="-31.75"
     height="31.5"
     width="31.5"
     id="rect5094-5-6"
     style="color:#000000;clip-rule:nonzero;display:inline;overflow:visible;visibility:visible;opacity:1;isolation:auto;mix-blend-mode:normal;color-interpolation:sRGB;color-interpolation-filters:linearRGB;solid-color:#000000;solid-opacity:1;fill:#ffffff;fill-opacity:1;fill-rule:evenodd;stroke:#000000;stroke-width:0.5;stroke-linecap:butt;stroke-linejoin:miter;stroke-miterlimit:4;stroke-dasharray:none;stroke-dashoffset:0;stroke-opacity:1;marker:none;marker-start:none;marker-mid:none;marker-end:none;color-rendering:auto;image-rendering:auto;shape-rendering:auto;text-rendering:auto;enable-background:accumulate" />
  <path
     id="path6023-1-9"
     d="m 13.349609,19.03125 c -0.855489,0.0328 -1.308676,0.184255 -1.630859,0.658203 l -0.115234,-0.123047 c -0.593268,0.55837 -1.166278,1.321706 -1.8867191,2.195313 -0.7204416,0.873606 -1.5274035,1.809337 -2.1992188,2.421875 -0.161055,0.146844 -0.253179,0.192683 -0.3886719,0.294922 -0.040861,-0.239731 -0.091766,-0.361009 -0.097656,-0.796875 -0.6879782,-1.442428 -1.8963303,-0.456445 -3,0.04102 0.012899,0.954549 0.1030853,1.710704 0.3671875,2.402344 0.2641022,0.69164 0.8537613,1.412464 1.6660156,1.634766 0.8122543,0.222301 1.5053583,-0.02414 2.0390625,-0.304688 0.5159676,-0.271227 0.9572435,-0.623694 1.390625,-1.015625 0.00163,1.285057 0.023696,2.712157 0.041016,3.982422 l 12.9570312,0 c 0.01793,-1.315744 0.04492,-2.805259 0.04492,-4.125 0,-0.402289 -0.08474,-0.890059 -0.21289,-1.410156 l 1.660156,-0.710938 c -0.781739,-1.830188 -1.891994,-3.335836 -3.716797,-4.560547 -0.32042,-0.421598 -0.774555,-0.552718 -1.589844,-0.583984 -0.87773,-0.0044 -1.754952,-0.01143 -2.632812,0 -0.0204,-2.87e-4 -0.04015,2.66e-4 -0.06055,0 -0.87787,-0.01143 -1.757046,-0.0044 -2.634762,-5e-6 z"
     style="color:#000000;clip-rule:nonzero;display:inline;overflow:visible;visibility:visible;opacity:1;isolation:auto;mix-blend-mode:normal;color-interpolation:sRGB;color-interpolation-filters:linearRGB;solid-color:#000000;solid-opacity:1;fill:#ffffff;fill-opacity:1;fill-rule:evenodd;stroke:#000000;stroke-width:0.5;stroke-linecap:butt;stroke-linejoin:miter;stroke-miterlimit:4;stroke-dasharray:none;stroke-dashoffset:0;stroke-opacity:1;marker:none;color-rendering:auto;image-rendering:auto;shape-rendering:auto;text-rendering:auto;enable-background:accumulate" />
  <path
     style="color:#000000;clip-rule:nonzero;display:inline;overflow:visible;visibility:visible;opacity:1;isolation:auto;mix-blend-mode:normal;color-interpolation:sRGB;color-interpolation-filters:linearRGB;solid-color:#000000;solid-opacity:1;fill:#ffffff;fill-opacity:1;fill-rule:evenodd;stroke:#000000;stroke-width:0.5;stroke-linecap:butt;stroke-linejoin:miter;stroke-miterlimit:4;stroke-dasharray:none;stroke-dashoffset:0;stroke-opacity:1;marker:none;color-rendering:auto;image-rendering:auto;shape-rendering:auto;text-rendering:auto;enable-background:accumulate"
     d="m 15.996347,4.2773343 c 4.39443,0 7.949629,3.972546 7.949629,8.8486657 0,0.914273 -0.11618,1.797303 -0.34888,2.626951 -1.445449,2.86789 -2.648579,3.439254 -3.663319,4.175462 -0.92737,0.672829 -1.50394,1.672522 -3.09013,1.9633 -0.0159,0.002 -0.0333,-0.0019 -0.0499,0 -0.26752,0.03019 -0.52282,0.0553 -0.79747,0.0553 -0.27465,0 -0.55486,-0.02512 -0.82237,-0.0553 -0.009,-9.3e-4 -0.0159,9.56e-4 -0.0248,0 -0.009,-0.0015 -0.0159,0.0015 -0.0249,0 -1.58357,-0.291981 -2.16372,-1.291162 -3.09014,-1.9633 C 11.035497,19.203951 9.860447,18.641 8.445517,15.89121 8.185977,15.019618 8.021856,14.093712 8.021856,13.126 c 0,-4.8761197 3.580141,-8.8486657 7.974571,-8.8486657 z"
     id="path2436-3-3-4" />
  <path
     id="path2597-0-7"
     d="m 15.312859,16.990396 c 0,0.28682 0.12401,0.57367 0.3307,0.69656"
     style="display:inline;fill:none;stroke:#000000;stroke-width:0.40000001;stroke-linecap:round;stroke-linejoin:miter;stroke-miterlimit:4;stroke-dasharray:none;stroke-opacity:1" />
  <path
     id="path2599-6-5"
     d="m 14.12573,19.218776 c 0.48134,0.14543 1.20334,0.21813 1.90965,0.21813 0.7063,0 1.39692,-0.0727 1.81547,-0.21813"
     style="display:inline;fill:none;stroke:#000000;stroke-width:0.40000001;stroke-linecap:round;stroke-linejoin:miter;stroke-miterlimit:4;stroke-dasharray:none;stroke-opacity:1" />
  <path
     style="display:inline;fill:none;stroke:#000000;stroke-width:0.50000012;stroke-linecap:butt;stroke-linejoin:miter;stroke-miterlimit:4;stroke-dasharray:none;stroke-opacity:1"
     d="m 21.016207,12.131085 c -0.49075,-0.53981 -1.3073,-0.78776 -1.78557,-0.55518"
     id="path2618-3-0" />
  <path
     style="color:#000000;clip-rule:nonzero;display:inline;overflow:visible;visibility:visible;opacity:1;isolation:auto;mix-blend-mode:normal;color-interpolation:sRGB;color-interpolation-filters:linearRGB;solid-color:#000000;solid-opacity:1;fill:#ffffff;fill-opacity:1;fill-rule:evenodd;stroke:#000000;stroke-width:0.5;stroke-linecap:butt;stroke-linejoin:miter;stroke-miterlimit:4;stroke-dasharray:none;stroke-dashoffset:0;stroke-opacity:1;marker:none;marker-start:none;marker-mid:none;marker-end:none;color-rendering:auto;image-rendering:auto;shape-rendering:auto;text-rendering:auto;enable-background:accumulate"
     d="m 8.4186665,13.428542 c -0.23713,-0.08281 -0.47816,-0.119259 -0.70922,-0.107246 -0.96759,0.05032 -1.54181,0.920814 -1.28265,1.944471 0.25939,1.023645 1.25396,1.812755 2.22163,1.762679 0.23104,-0.01239 0.44748,-0.07305 0.63684,-0.178444"
     id="path5180-3-2" />
  <path
     style="display:inline;fill:none;fill-rule:evenodd;stroke:#000000;stroke-width:0.30000001;stroke-linecap:round;stroke-linejoin:miter;stroke-miterlimit:4;stroke-dasharray:none;stroke-opacity:1"
     d="m 8.3390065,13.439101 c 0,0 -0.10467,0.732641 -0.0349,1.081518 -0.73265,-0.313989 -1.08153,-0.174438 -1.11642,0.313989"
     id="path5182-6-9" />
  <path
     style="display:inline;fill:none;fill-rule:evenodd;stroke:#000000;stroke-width:0.30000001;stroke-linecap:round;stroke-linejoin:miter;stroke-miterlimit:4;stroke-dasharray:none;stroke-opacity:1"
     d="m 8.2896565,14.566789 c -0.2467,0.222024 -0.37004,0.814087 0.27136,1.134789"
     id="path5184-0-6" />
  <path
     style="color:#000000;clip-rule:nonzero;display:inline;overflow:visible;visibility:visible;opacity:1;isolation:auto;mix-blend-mode:normal;color-interpolation:sRGB;color-interpolation-filters:linearRGB;solid-color:#000000;solid-opacity:1;fill:#ffffff;fill-opacity:1;fill-rule:evenodd;stroke:#000000;stroke-width:0.5;stroke-linecap:round;stroke-linejoin:round;stroke-miterlimit:4;stroke-dasharray:none;stroke-dashoffset:0;stroke-opacity:1;marker:none;color-rendering:auto;image-rendering:auto;shape-rendering:auto;text-rendering:auto;enable-background:accumulate"
     d="m 20.311479,6.0202243 c -0.59372,-1.481006 -2.85497,-4.224375 -3.34365,-4.447267 -0.16502,0.42652 -0.31288,1.333139 -0.31288,1.333139 0,0 -1.72325,-1.140194 -2.86348,-1.099444 0.0728,0.357931 0.22079,1.1338 0.22079,1.1338 0,0 -2.23119,-0.220707 -3.32209,1.200327 0.60441,0.09858 1.69965,0.480059 1.69965,0.480059 0,0 -0.93017,0.874488 -1.25593,1.847553 1.11664,-0.700885 1.95896,-0.670899 2.56766,-0.452297"
     id="path4829-6-8-6" />
  <path
     id="path5838-4"
     d="m 23.581333,13.428542 c 0.23713,-0.08281 0.47816,-0.119259 0.709221,-0.107246 0.967589,0.05032 1.541809,0.920814 1.282649,1.944471 -0.259389,1.023645 -1.25396,1.812755 -2.22163,1.762679 -0.23104,-0.01239 -0.447479,-0.07305 -0.63684,-0.178444"
     style="color:#000000;clip-rule:nonzero;display:inline;overflow:visible;visibility:visible;opacity:1;isolation:auto;mix-blend-mode:normal;color-interpolation:sRGB;color-interpolation-filters:linearRGB;solid-color:#000000;solid-opacity:1;fill:#ffffff;fill-opacity:1;fill-rule:evenodd;stroke:#000000;stroke-width:0.5;stroke-linecap:butt;stroke-linejoin:miter;stroke-miterlimit:4;stroke-dasharray:none;stroke-dashoffset:0;stroke-opacity:1;marker:none;marker-start:none;marker-mid:none;marker-end:none;color-rendering:auto;image-rendering:auto;shape-rendering:auto;text-rendering:auto;enable-background:accumulate" />
  <path
     id="path5840-9"
     d="m 23.660993,13.439101 c 0,0 0.104671,0.732641 0.0349,1.081518 0.73265,-0.313989 1.08153,-0.174438 1.116421,0.313989"
     style="display:inline;fill:none;fill-rule:evenodd;stroke:#000000;stroke-width:0.30000001;stroke-linecap:round;stroke-linejoin:miter;stroke-miterlimit:4;stroke-dasharray:none;stroke-opacity:1" />
  <path
     id="path5842-9"
     d="m 23.710343,14.566789 c 0.2467,0.222024 0.37004,0.814087 -0.27136,1.134789"
     style="display:inline;fill:none;fill-rule:evenodd;stroke:#000000;stroke-width:0.30000001;stroke-linecap:round;stroke-linejoin:miter;stroke-miterlimit:4;stroke-dasharray:none;stroke-opacity:1" />
  <path
     id="path2602-4-08-6-8"
     d="m 13.861202,13.931016 c 0.47524,1.67612 0.20153,1.49875 -1.04505,1.84612 -0.80241,0.22359 -1.6367,-0.24053 -1.86225,-1.03599 -0.22554,-0.79549 0.24263,-1.622541 1.04506,-1.846131 0.80241,-0.22359 1.6367,0.24053 1.86224,1.036001 z"
     style="display:inline;overflow:visible;visibility:visible;fill:#ffffff;fill-opacity:1;fill-rule:evenodd;stroke:#000000;stroke-width:0.30000001;stroke-linecap:round;stroke-linejoin:round;stroke-miterlimit:4;stroke-dasharray:none;stroke-dashoffset:0;stroke-opacity:1;marker:none;enable-background:accumulate" />
  <ellipse
     cy="14.329809"
     cx="12.660806"
     id="path2604-4-0-4-5"
     style="display:inline;overflow:visible;visibility:visible;fill:#000000;fill-opacity:1;fill-rule:evenodd;stroke:none;stroke-width:0.49999997;marker:none;enable-background:accumulate"
     rx="1.0066569"
     ry="0.99793828" />
  <ellipse
     cy="14.038736"
     cx="12.409142"
     id="path2606-4-1-2-9"
     style="display:inline;overflow:visible;visibility:visible;fill:#ffffff;fill-opacity:1;fill-rule:evenodd;stroke:none;stroke-width:0.5;marker:none;enable-background:accumulate"
     rx="0.42386398"
     ry="0.40046838" />
  <path
     style="display:inline;overflow:visible;visibility:visible;fill:#ffffff;fill-opacity:1;fill-rule:evenodd;stroke:#000000;stroke-width:0.30000001;stroke-linecap:round;stroke-linejoin:round;stroke-miterlimit:4;stroke-dasharray:none;stroke-dashoffset:0;stroke-opacity:1;marker:none;enable-background:accumulate"
     d="m 18.067702,13.931016 c -0.47525,1.67612 -0.20154,1.49875 1.04505,1.84612 0.80241,0.22359 1.63669,-0.24053 1.86224,-1.03599 0.22555,-0.79549 -0.24263,-1.622541 -1.04505,-1.846131 -0.80241,-0.22359 -1.63671,0.24053 -1.86224,1.036001 z"
     id="path2612-4-3-4-2" />
  <ellipse
     transform="scale(-1,1)"
     cy="14.329809"
     cx="-19.268122"
     style="display:inline;overflow:visible;visibility:visible;fill:#000000;fill-opacity:1;fill-rule:evenodd;stroke:none;stroke-width:0.49999997;marker:none;enable-background:accumulate"
     id="path2614-4-6-8-6"
     rx="1.0066569"
     ry="0.99793828" />
  <ellipse
     transform="scale(-1,1)"
     ry="0.40046838"
     rx="0.42386398"
     cy="14.038736"
     cx="-19.068903"
     style="display:inline;overflow:visible;visibility:visible;fill:#ffffff;fill-opacity:1;fill-rule:evenodd;stroke:none;stroke-width:0.5;marker:none;enable-background:accumulate"
     id="path2616-9-09-2-3" />
  <path
     id="path4626-5"
     d="m 10.983793,12.131085 c 0.49075,-0.53981 1.3073,-0.78776 1.78557,-0.55518"
     style="display:inline;fill:none;stroke:#000000;stroke-width:0.50000012;stroke-linecap:butt;stroke-linejoin:miter;stroke-miterlimit:4;stroke-dasharray:none;stroke-opacity:1" />
  <path
     style="display:inline;opacity:1;fill:#ffffff;fill-opacity:1;fill-rule:evenodd;stroke:#000000;stroke-width:0.5;stroke-linecap:round;stroke-linejoin:miter;stroke-miterlimit:4;stroke-dasharray:none;stroke-dashoffset:0;stroke-opacity:1"
     d="m 22.298828,24.902344 c -0.17978,-0.683709 -0.658633,-1.705876 -0.741512,-1.807172"
     id="path1867-6" />
  <path
     style="color:#000000;font-style:normal;font-variant:normal;font-weight:normal;font-stretch:normal;font-size:medium;line-height:normal;font-family:sans-serif;text-indent:0;text-align:start;text-decoration:none;text-decoration-line:none;text-decoration-style:solid;text-decoration-color:#000000;letter-spacing:normal;word-spacing:normal;text-transform:none;direction:ltr;writing-mode:lr-tb;baseline-shift:baseline;text-anchor:start;white-space:normal;clip-rule:nonzero;display:inline;overflow:visible;visibility:visible;opacity:1;isolation:auto;mix-blend-mode:normal;color-interpolation:sRGB;color-interpolation-filters:linearRGB;solid-color:#000000;solid-opacity:1;fill:#ffffff;fill-opacity:1;fill-rule:evenodd;stroke:#000000;stroke-width:0.57485139;stroke-linecap:round;stroke-linejoin:round;stroke-miterlimit:4;stroke-dasharray:none;stroke-dashoffset:0;stroke-opacity:1;marker:none;marker-start:none;marker-mid:none;marker-end:none;color-rendering:auto;image-rendering:auto;shape-rendering:auto;text-rendering:auto;enable-background:accumulate"
     d="m 22.617213,28.917911 a 0.54429414,0.49549431 13.215547 0 0 0.608482,-0.266291 c 0.37118,-0.743434 0.446246,-1.437923 0.481974,-2.060339 a 0.54450699,0.49568808 13.215547 1 0 -1.082654,-0.09355 c -0.0339,0.589884 -0.09514,1.120686 -0.388343,1.707925 a 0.54429414,0.49549431 13.215547 0 0 0.3805,0.712253 z"
     id="path1734-7-3" />
  <path
     id="path780-5-4-1"
     d="m 22.367415,29.651408 a 0.60006002,0.54626039 21.085157 0 0 0.704702,-0.198969 c 0.517575,-0.755854 0.704383,-1.502958 0.837354,-2.177288 a 0.6002947,0.54647403 21.085157 1 0 -1.168217,-0.265587 c -0.126061,0.639079 -0.273069,1.209509 -0.681905,1.806559 a 0.60006002,0.54626039 21.085157 0 0 0.30802,0.83527 z"
     style="color:#000000;font-style:normal;font-variant:normal;font-weight:normal;font-stretch:normal;font-size:medium;line-height:normal;font-family:sans-serif;text-indent:0;text-align:start;text-decoration:none;text-decoration-line:none;text-decoration-style:solid;text-decoration-color:#000000;letter-spacing:normal;word-spacing:normal;text-transform:none;direction:ltr;writing-mode:lr-tb;baseline-shift:baseline;text-anchor:start;white-space:normal;clip-rule:nonzero;display:inline;overflow:visible;visibility:visible;opacity:1;isolation:auto;mix-blend-mode:normal;color-interpolation:sRGB;color-interpolation-filters:linearRGB;solid-color:#000000;solid-opacity:1;fill:#ffffff;fill-opacity:1;fill-rule:evenodd;stroke:#000000;stroke-width:0.57485139;stroke-linecap:round;stroke-linejoin:round;stroke-miterlimit:4;stroke-dasharray:none;stroke-dashoffset:0;stroke-opacity:1;marker:none;marker-start:none;marker-mid:none;marker-end:none;color-rendering:auto;image-rendering:auto;shape-rendering:auto;text-rendering:auto;enable-background:accumulate" />
  <path
     id="path780-1-5-5"
     d="m 22.560766,30.133995 a 0.68166259,0.62054671 21.922002 0 0 0.803752,-0.214315 c 0.600438,-0.849964 0.825023,-1.695477 0.987247,-2.459223 A 0.68192916,0.62078938 21.922002 1 0 23.02923,27.139403 c -0.153793,0.723818 -0.330237,1.369314 -0.804528,2.040701 a 0.68166259,0.62054671 21.922002 0 0 0.336012,0.953869 z"
     style="color:#000000;font-style:normal;font-variant:normal;font-weight:normal;font-stretch:normal;font-size:medium;line-height:normal;font-family:sans-serif;text-indent:0;text-align:start;text-decoration:none;text-decoration-line:none;text-decoration-style:solid;text-decoration-color:#000000;letter-spacing:normal;word-spacing:normal;text-transform:none;direction:ltr;writing-mode:lr-tb;baseline-shift:baseline;text-anchor:start;white-space:normal;clip-rule:nonzero;display:inline;overflow:visible;visibility:visible;opacity:1;isolation:auto;mix-blend-mode:normal;color-interpolation:sRGB;color-interpolation-filters:linearRGB;solid-color:#000000;solid-opacity:1;fill:#ffffff;fill-opacity:1;fill-rule:evenodd;stroke:#000000;stroke-width:0.57485139;stroke-linecap:round;stroke-linejoin:round;stroke-miterlimit:4;stroke-dasharray:none;stroke-dashoffset:0;stroke-opacity:1;marker:none;marker-start:none;marker-mid:none;marker-end:none;color-rendering:auto;image-rendering:auto;shape-rendering:auto;text-rendering:auto;enable-background:accumulate" />
  <path
     id="path4919-9-5-2-8"
     d="m 23.442486,29.619243 c 0.170377,-0.0282 0.314743,-0.125055 0.394788,-0.264849 0.46535,-0.789081 0.600733,-1.548502 0.687862,-2.230272 0.03164,-0.375915 0.01696,-0.746572 -0.03786,-1.065978 -0.03519,-0.220188 -0.106937,-0.631664 -0.106937,-0.631664 -0.176925,-1.106918 -0.742265,-1.936773 -1.261468,-1.853428 -0.09615,0.01233 -0.182344,0.0332 -0.269079,0.04898 -0.540881,0.08639 -0.879822,0.779815 -0.757183,1.54908 0.06092,0.382061 0.229484,0.729818 0.466258,0.961904 0.0118,0.08079 0.02258,0.148882 0.0344,0.227896 0.08053,0.504685 0.340822,0.896209 0.65385,1.096085 -0.08295,0.44587 -0.198409,0.880026 -0.463847,1.330117 -0.183607,0.302544 -0.005,0.699687 0.365146,0.81192 0.09593,0.02934 0.19701,0.0363 0.293992,0.02026 z"
     style="color:#000000;clip-rule:nonzero;display:inline;overflow:visible;visibility:visible;opacity:1;isolation:auto;mix-blend-mode:normal;color-interpolation:sRGB;color-interpolation-filters:linearRGB;solid-color:#000000;solid-opacity:1;fill:#ffffff;fill-opacity:1;fill-rule:evenodd;stroke:#000000;stroke-width:0.57485139;stroke-linecap:round;stroke-linejoin:round;stroke-miterlimit:4;stroke-dasharray:none;stroke-dashoffset:0;stroke-opacity:1;marker:none;marker-start:none;marker-mid:none;marker-end:none;color-rendering:auto;image-rendering:auto;shape-rendering:auto;text-rendering:auto;enable-background:accumulate" />
  <path
     id="path3835-8-3-5-7"
     d="m 23.346957,27.892697 c 0.01478,-0.419585 0.223654,-0.699664 0.334849,-0.717856"
     style="color:#000000;clip-rule:nonzero;display:inline;overflow:visible;visibility:visible;opacity:1;isolation:auto;mix-blend-mode:normal;color-interpolation:sRGB;color-interpolation-filters:linearRGB;solid-color:#000000;solid-opacity:1;fill:none;fill-opacity:1;fill-rule:evenodd;stroke:#000000;stroke-width:0.2;stroke-linecap:butt;stroke-linejoin:miter;stroke-miterlimit:4;stroke-dasharray:none;stroke-dashoffset:0;stroke-opacity:1;color-rendering:auto;image-rendering:auto;shape-rendering:auto;text-rendering:auto;enable-background:accumulate" />
  <path
     id="rect4946-9-3-20-2-6-4-8"
     d="m 23.198538,25.516507 -0.161706,0.942897 c -0.05811,0.33883 -0.360216,0.541081 -0.677376,0.453476 -0.31716,-0.0876 -0.525711,-0.43091 -0.467604,-0.76974 l 0.323404,-1.885793"
     style="color:#000000;clip-rule:nonzero;display:inline;overflow:visible;visibility:visible;opacity:1;isolation:auto;mix-blend-mode:normal;color-interpolation:sRGB;color-interpolation-filters:linearRGB;solid-color:#000000;solid-opacity:1;fill:#ffffff;fill-opacity:1;fill-rule:evenodd;stroke:#000000;stroke-width:0.57485139;stroke-linecap:round;stroke-linejoin:round;stroke-miterlimit:4;stroke-dasharray:none;stroke-dashoffset:0;stroke-opacity:1;marker:none;marker-start:none;marker-mid:none;marker-end:none;color-rendering:auto;image-rendering:auto;shape-rendering:auto;text-rendering:auto;enable-background:accumulate" />
  <path
     style="color:#000000;clip-rule:nonzero;display:inline;overflow:visible;visibility:visible;opacity:1;isolation:auto;mix-blend-mode:normal;color-interpolation:sRGB;color-interpolation-filters:linearRGB;solid-color:#000000;solid-opacity:1;fill:#ff0000;fill-opacity:1;fill-rule:evenodd;stroke:#ffffff;stroke-width:0.2;stroke-linecap:round;stroke-linejoin:round;stroke-miterlimit:4;stroke-dasharray:none;stroke-dashoffset:0;stroke-opacity:1;marker:none;marker-start:none;marker-mid:none;marker-end:none;color-rendering:auto;image-rendering:auto;shape-rendering:auto;text-rendering:auto;enable-background:accumulate"
     d="m 6.8481424,25.593415 c -0.3935674,1.543153 0.5116446,3.144689 2.0523159,3.585276 1.5682827,0.448483 3.2215657,-0.467914 3.6700497,-2.036197 0.389252,-1.36116 -0.253914,-2.781786 -1.455692,-3.426848 l 0.2873,-1.004649 c -0.08216,-0.132896 -0.252231,-0.18223 -0.390337,-0.105489 L 9.1228208,23.655922 C 9.0517058,23.6954 9.003908,23.759176 8.98327,23.831345 c -0.020638,0.07217 -0.013784,0.151566 0.025705,0.22268 l 1.048537,1.888421 c 0.07668,0.138098 0.246568,0.18803 0.38657,0.118661 l 0.298578,-1.044084 c 0.521021,0.403979 0.771048,1.08996 0.577192,1.767849 C 11.06454,27.677661 10.150351,28.18526 9.2575624,27.929949 8.3924957,27.682565 7.8968474,26.816777 8.0987819,25.951091 L 6.8481347,25.593442 Z"
     id="path5465-2" />
  <path
     id="path4919-367-8-3"
     d="m 6.3813291,1.078643 c -0.328596,0 -0.652343,0.28968 -0.652343,0.65039 l 0,1.79293 c -0.09915,-0.2455 -0.337029,-0.41992 -0.619141,-0.41992 -0.371497,0 -0.669922,0.29842 -0.669922,0.66992 l 0,0.29688 c -0.03553,-0.32667 -0.300286,-0.58203 -0.636719,-0.58203 l -0.02344,0 c -0.360712,0 -0.652344,0.28968 -0.652344,0.65039 l 0,0.36914 c -0.03144,-0.28132 -0.260798,-0.50196 -0.5507811,-0.50196 -0.311528,0 -0.5625,0.25097 -0.5625,0.5625 l 0,1.2168 c 0,0.0167 0.0084,0.0306 0.0098,0.0469 -7.61e-4,0.0139 -0.0078,0.027 -0.0078,0.041 0,0.22085 0.01953,0.63477 0.01953,0.63477 -1e-6,1.11021 1.1622671,2.01011 2.5957031,2.00976 1.433436,3.5e-4 2.534172,-0.8832 2.78125,-1.93164 0.09956,-0.43064 0.402523,-0.74588 0.154297,-1.30273 l -0.40039,-0.80664 c -0.02485,-0.0501 -0.06325,-0.0861 -0.09766,-0.12696 -0.03728,-0.0401 -0.0261,-0.26928 -0.03711,-0.38281 l 0,-2.23629 c 0,-0.37375 -0.321834,-0.6504 -0.65043,-0.6504 z"
     style="color:#000000;clip-rule:nonzero;display:inline;overflow:visible;visibility:visible;opacity:1;isolation:auto;mix-blend-mode:normal;color-interpolation:sRGB;color-interpolation-filters:linearRGB;solid-color:#000000;solid-opacity:1;fill:#ffffff;fill-opacity:1;fill-rule:evenodd;stroke:#000000;stroke-width:0.5;stroke-linecap:round;stroke-linejoin:miter;stroke-miterlimit:4;stroke-dasharray:none;stroke-dashoffset:0;stroke-opacity:1;marker:none;marker-start:none;marker-mid:none;marker-end:none;color-rendering:auto;image-rendering:auto;shape-rendering:auto;text-rendering:auto;enable-background:accumulate" />
  <path
     style="display:inline;fill:none;fill-rule:evenodd;stroke:#000000;stroke-width:0.30000001;stroke-linecap:butt;stroke-linejoin:miter;stroke-miterlimit:4;stroke-dasharray:none;stroke-opacity:1"
     d="m 6.0517321,5.798493 c -0.384012,0.12629 -0.735246,0.32665 -0.902317,0.5233"
     id="path4940-35-4-8" />
  <path
     style="display:inline;fill:none;fill-rule:evenodd;stroke:#000000;stroke-width:0.2;stroke-linecap:butt;stroke-linejoin:miter;stroke-miterlimit:4;stroke-dasharray:none;stroke-opacity:1"
     d="m 7.0044301,5.059553 c -1.31261,-0.7242 -4.11886,-0.3621 -5.0693701,0.49788"
     id="path4942-70-2-8" />
  <path
     style="display:inline;fill:none;fill-rule:evenodd;stroke:#000000;stroke-width:0.2;stroke-linecap:butt;stroke-linejoin:miter;stroke-miterlimit:4;stroke-dasharray:none;stroke-opacity:1"
     d="m 5.6918201,4.697453 c -0.13578,0.90525 -2.21785,1.49366 -3.5304401,1.71997"
     id="path4944-9-3-2" />
  <path
     style="display:inline;fill:none;fill-rule:evenodd;stroke:#000000;stroke-width:0.5;stroke-linecap:round;stroke-linejoin:miter;stroke-miterlimit:4;stroke-dasharray:none;stroke-opacity:1"
     d="m 3.1290611,4.208903 0,0.37665"
     id="path365-3-5-3" />
  <path
     id="path367-6-5-4"
     d="m 4.4456271,3.750833 0,0.59874"
     style="display:inline;fill:none;fill-rule:evenodd;stroke:#000000;stroke-width:0.5;stroke-linecap:round;stroke-linejoin:miter;stroke-miterlimit:4;stroke-dasharray:none;stroke-opacity:1" />
  <path
     style="display:inline;fill:none;fill-rule:evenodd;stroke:#000000;stroke-width:0.5;stroke-linecap:round;stroke-linejoin:miter;stroke-miterlimit:4;stroke-dasharray:none;stroke-opacity:1"
     d="m 5.7443261,3.715773 0,0.62452"
     id="path369-0-7-8" />
  <rect
     style="color:#000000;clip-rule:nonzero;display:inline;overflow:visible;visibility:visible;opacity:1;isolation:auto;mix-blend-mode:normal;color-interpolation:sRGB;color-interpolation-filters:linearRGB;solid-color:#000000;solid-opacity:1;fill:#ffffff;fill-opacity:1;fill-rule:evenodd;stroke:#000000;stroke-width:0.5;stroke-linecap:round;stroke-linejoin:miter;stroke-miterlimit:4;stroke-dasharray:none;stroke-dashoffset:0;stroke-opacity:1;marker:none;marker-start:none;marker-mid:none;marker-end:none;color-rendering:auto;image-rendering:auto;shape-rendering:auto;text-rendering:auto;enable-background:accumulate"
     id="rect398-6-6"
     width="1.3411446"
     height="1.7482188"
     x="4.4066591"
     y="2.334084"
     rx="0.47402421"
     ry="0.47402421" />
  <rect
     style="color:#000000;clip-rule:nonzero;display:inline;overflow:visible;visibility:visible;opacity:1;isolation:auto;mix-blend-mode:normal;color-interpolation:sRGB;color-interpolation-filters:linearRGB;solid-color:#000000;solid-opacity:1;fill:#ffffff;fill-opacity:1;fill-rule:evenodd;stroke:#000000;stroke-width:0.5;stroke-linecap:round;stroke-linejoin:miter;stroke-miterlimit:4;stroke-dasharray:none;stroke-dashoffset:0;stroke-opacity:1;marker:none;marker-start:none;marker-mid:none;marker-end:none;color-rendering:auto;image-rendering:auto;shape-rendering:auto;text-rendering:auto;enable-background:accumulate"
     id="rect402-5-5"
     width="1.3257675"
     height="1.677398"
     x="3.094918"
     y="2.4895711"
     rx="0.47725323"
     ry="0.47725323" />
  <rect
     ry="0.4531301"
     rx="0.4531301"
     y="3.0081408"
     x="1.9820756"
     height="1.3907181"
     width="1.124649"
     id="rect404-56-3"
     style="color:#000000;clip-rule:nonzero;display:inline;overflow:visible;visibility:visible;opacity:1;isolation:auto;mix-blend-mode:normal;color-interpolation:sRGB;color-interpolation-filters:linearRGB;solid-color:#000000;solid-opacity:1;fill:#ffffff;fill-opacity:1;fill-rule:evenodd;stroke:#000000;stroke-width:0.5;stroke-linecap:round;stroke-linejoin:miter;stroke-miterlimit:4;stroke-dasharray:none;stroke-dashoffset:0;stroke-opacity:1;marker:none;marker-start:none;marker-mid:none;marker-end:none;color-rendering:auto;image-rendering:auto;shape-rendering:auto;text-rendering:auto;enable-background:accumulate" />
  <path
     id="rect363-9-1-1"
     d="m 6.3528991,5.884123 -0.399733,-0.8056 c -0.166825,-0.33621 -0.03046,-0.74118 0.305749,-0.908 0.33621,-0.16683 0.74118,-0.0305 0.908005,0.30575 l 0.399733,0.8056"
     style="color:#000000;clip-rule:nonzero;display:inline;overflow:visible;visibility:visible;opacity:1;isolation:auto;mix-blend-mode:normal;color-interpolation:sRGB;color-interpolation-filters:linearRGB;solid-color:#000000;solid-opacity:1;fill:#ffffff;fill-opacity:1;fill-rule:evenodd;stroke:#000000;stroke-width:0.5;stroke-linecap:round;stroke-linejoin:round;stroke-miterlimit:4;stroke-dasharray:none;stroke-dashoffset:0;stroke-opacity:1;marker:none;marker-start:none;marker-mid:none;marker-end:none;color-rendering:auto;image-rendering:auto;shape-rendering:auto;text-rendering:auto;enable-background:accumulate" />
  <rect
     ry="0.65110451"
     rx="0.65110397"
     y="17.119751"
     x="4.4479403"
     height="4.8835163"
     width="1.3022079"
     id="rect5636-2-5"
     style="color:#000000;clip-rule:nonzero;display:inline;overflow:visible;visibility:visible;opacity:1;isolation:auto;mix-blend-mode:normal;color-interpolation:sRGB;color-interpolation-filters:linearRGB;solid-color:#000000;solid-opacity:1;fill:#ffffff;fill-opacity:1;fill-rule:evenodd;stroke:#000000;stroke-width:0.5;stroke-linecap:round;stroke-linejoin:round;stroke-miterlimit:4;stroke-dasharray:none;stroke-dashoffset:0;stroke-opacity:1;marker:none;marker-start:none;marker-mid:none;marker-end:none;color-rendering:auto;image-rendering:auto;shape-rendering:auto;text-rendering:auto;enable-background:accumulate" />
  <path
     id="path1376-1-3"
     d="m 7.5881065,18.950641 c -0.643559,-0.37876 -1.367238,-0.44624 -1.956611,-0.203 -0.589371,0.24324 -1.0124001,0.74208 -1.2578911,1.32506 a 0.67327106,0.67327106 0 1 0 1.2408881,0.52285 c 0.137918,-0.3275 0.339988,-0.52467 0.52993,-0.60306 0.18994,-0.0784 0.399945,-0.0927 0.759172,0.11872 a 0.67369407,0.67369407 0 1 0 0.684511,-1.16056 z"
     style="color:#000000;font-style:normal;font-variant:normal;font-weight:normal;font-stretch:normal;font-size:medium;line-height:normal;font-family:sans-serif;text-indent:0;text-align:start;text-decoration:none;text-decoration-line:none;text-decoration-style:solid;text-decoration-color:#000000;letter-spacing:normal;word-spacing:normal;text-transform:none;direction:ltr;writing-mode:lr-tb;baseline-shift:baseline;text-anchor:start;white-space:normal;clip-rule:nonzero;display:inline;overflow:visible;visibility:visible;opacity:1;isolation:auto;mix-blend-mode:normal;color-interpolation:sRGB;color-interpolation-filters:linearRGB;solid-color:#000000;solid-opacity:1;fill:none;fill-opacity:1;fill-rule:evenodd;stroke:#000000;stroke-width:0.5;stroke-linecap:round;stroke-linejoin:miter;stroke-miterlimit:4;stroke-dasharray:none;stroke-dashoffset:0;stroke-opacity:1;marker:none;marker-start:none;marker-mid:none;marker-end:none;color-rendering:auto;image-rendering:auto;shape-rendering:auto;text-rendering:auto;enable-background:accumulate" />
  <path
     style="color:#000000;font-style:normal;font-variant:normal;font-weight:normal;font-stretch:normal;font-size:medium;line-height:normal;font-family:sans-serif;text-indent:0;text-align:start;text-decoration:none;text-decoration-line:none;text-decoration-style:solid;text-decoration-color:#000000;letter-spacing:normal;word-spacing:normal;text-transform:none;direction:ltr;writing-mode:lr-tb;baseline-shift:baseline;text-anchor:start;white-space:normal;clip-rule:nonzero;display:inline;overflow:visible;visibility:visible;opacity:1;isolation:auto;mix-blend-mode:normal;color-interpolation:sRGB;color-interpolation-filters:linearRGB;solid-color:#000000;solid-opacity:1;fill:#ffffff;fill-opacity:1;fill-rule:evenodd;stroke:#000000;stroke-width:0.5;stroke-linecap:round;stroke-linejoin:miter;stroke-miterlimit:4;stroke-dasharray:none;stroke-dashoffset:0;stroke-opacity:1;marker:none;marker-start:none;marker-mid:none;marker-end:none;color-rendering:auto;image-rendering:auto;shape-rendering:auto;text-rendering:auto;enable-background:accumulate"
     d="m 7.4095345,18.887111 c -0.643559,-0.37877 -1.367237,-0.44624 -1.956611,-0.203 -0.589371,0.24324 -1.0124001,0.74207 -1.2578901,1.32505 a 0.67327106,0.67327106 0 1 0 1.2408881,0.52285 c 0.137918,-0.3275 0.339988,-0.52466 0.529929,-0.60305 0.18994,-0.0784 0.399945,-0.0927 0.759173,0.11871 a 0.67369383,0.67369383 0 1 0 0.68451,-1.16056 z"
     id="path1378-7-1" />
  <path
     id="path4919-9-59-1-8"
     d="m 6.0110435,18.762821 c -0.467116,-0.0203 -0.902697,0.11194 -1.233621,0.37383 -0.4412351,0.34919 -0.6805381,0.87513 -0.7476491,1.42933 -0.03892,0.34549 -0.143213,0.57544 -0.140734,0.92576 0,0.25105 0.0066,0.72126 0.0066,0.72126 0,1.26207 0.481056,2.28513 1.0730961,2.28473 0.109085,0.003 0.208621,-0.007 0.307856,-0.009 0.354669,4e-5 0.657356,-0.24912 0.861995,-0.61571 a 0.73959603,1.2829726 0 0 0 0.384819,-0.35623 c 0.516998,-0.10023 0.997612,-0.34872 1.310584,-0.77844 0.329263,-0.45209 0.420642,-1.08384 0.230891,-1.71079 a 0.59095649,0.59095649 0 1 0 -1.130269,0.34304 c 0.105922,0.34995 0.04894,0.52718 -0.05717,0.67288 -0.04067,0.0558 -0.109503,0.10386 -0.180315,0.15173 a 0.73959603,1.2829726 0 0 0 -0.664089,-0.8642 c -0.03848,-0.52748 -0.252098,-0.96952 -0.556339,-1.21383 0.01352,-0.013 0.02344,-0.0374 0.03738,-0.0484 0.1422,-0.11253 0.316819,-0.17596 0.672885,-0.0836 0.787685,0.23587 1.101863,-0.97233 0.299059,-1.15006 -0.159474,-0.0414 -0.319272,-0.0658 -0.474976,-0.0726 z"
     style="color:#000000;clip-rule:nonzero;display:inline;overflow:visible;visibility:visible;opacity:1;isolation:auto;mix-blend-mode:normal;color-interpolation:sRGB;color-interpolation-filters:linearRGB;solid-color:#000000;solid-opacity:1;fill:#ffffff;fill-opacity:1;fill-rule:evenodd;stroke:#000000;stroke-width:0.5;stroke-linecap:round;stroke-linejoin:miter;stroke-miterlimit:4;stroke-dasharray:none;stroke-dashoffset:0;stroke-opacity:1;marker:none;marker-start:none;marker-mid:none;marker-end:none;color-rendering:auto;image-rendering:auto;shape-rendering:auto;text-rendering:auto;enable-background:accumulate" />
  <path
     id="path3835-8-2-3-5"
     d="m 5.2389685,20.128311 c -0.05363,0.24479 -0.170281,0.27327 -0.294673,0.29815"
     style="color:#000000;clip-rule:nonzero;display:inline;overflow:visible;visibility:visible;opacity:1;isolation:auto;mix-blend-mode:normal;color-interpolation:sRGB;color-interpolation-filters:linearRGB;solid-color:#000000;solid-opacity:1;fill:none;fill-opacity:1;fill-rule:evenodd;stroke:#000000;stroke-width:0.2;stroke-linecap:butt;stroke-linejoin:miter;stroke-miterlimit:4;stroke-dasharray:none;stroke-dashoffset:0;stroke-opacity:1;color-rendering:auto;image-rendering:auto;shape-rendering:auto;text-rendering:auto;enable-background:accumulate" />
  <path
     style="color:#000000;clip-rule:nonzero;display:inline;overflow:visible;visibility:visible;opacity:1;isolation:auto;mix-blend-mode:normal;color-interpolation:sRGB;color-interpolation-filters:linearRGB;solid-color:#000000;solid-opacity:1;fill:none;fill-opacity:1;fill-rule:evenodd;stroke:#000000;stroke-width:0.2;stroke-linecap:butt;stroke-linejoin:miter;stroke-miterlimit:4;stroke-dasharray:none;stroke-dashoffset:0;stroke-opacity:1;color-rendering:auto;image-rendering:auto;shape-rendering:auto;text-rendering:auto;enable-background:accumulate"
     d="m 5.9099245,21.409691 c -0.104481,0.74618 -1.009549,0.65703 -1.133007,0.62787"
     id="path1409-43-8" />
  <path
     id="path1469-6-0"
     d="m 6.1618235,23.056201 c 0.01341,0.40219 -0.09384,0.68373 -0.281533,0.95185"
     style="display:inline;opacity:1;fill:none;fill-opacity:1;fill-rule:evenodd;stroke:#000000;stroke-width:0.2;stroke-linecap:round;stroke-linejoin:miter;stroke-miterlimit:4;stroke-dasharray:none;stroke-dashoffset:0;stroke-opacity:1" />
  <path
     id="path1485-9-3"
     d="m 6.5841225,22.325561 c 0.09385,0.41559 -0.0067,0.8513 -0.180985,1.10602"
     style="display:inline;opacity:1;fill:none;fill-opacity:1;fill-rule:evenodd;stroke:#000000;stroke-width:0.2;stroke-linecap:butt;stroke-linejoin:miter;stroke-miterlimit:4;stroke-dasharray:none;stroke-dashoffset:0;stroke-opacity:1" />
</svg>
