<?xml version="1.0" encoding="UTF-8" standalone="no"?>
<!-- Created with Inkscape (http://www.inkscape.org/) -->

<svg
 xmlns:dc="http://purl.org/dc/elements/1.1/"
 xmlns:cc="http://creativecommons.org/ns#"
 xmlns:rdf="http://www.w3.org/1999/02/22-rdf-syntax-ns#"
 xmlns:svg="http://www.w3.org/2000/svg"
 xmlns="http://www.w3.org/2000/svg"
 version="1.1"
 width="100%"
 height="100%"
 viewBox="0 0 200 200"
 id="ppvs">
<defs
 id="defs5015" />
<metadata
 id="metadata5018">
<rdf:RDF>
<cc:Work
 rdf:about="">
<dc:format>image/svg+xml</dc:format>
<dc:type
 rdf:resource="http://purl.org/dc/dcmitype/StillImage" />
<dc:title></dc:title>
</cc:Work>
</rdf:RDF>
</metadata>
<rect
 width="200"
 height="200"
 x="0"
 y="0"
 id="rect4191"
 style="color:#000000;fill:#ffffff;fill-opacity:1;fill-rule:evenodd;stroke:none;stroke-width:0.30000001;marker:none;visibility:visible;display:inline;overflow:visible;enable-background:accumulate" />
<g
 transform="translate(8.3719192,-2.954795)"
 id="g4088">
<path
 d="m 34.807309,132.88165 -8.559175,-5.70611 -7.988562,-31.383643 5.135504,-7.417951 -5.706116,-15.977126 6.847339,-1.711835 27.389358,7.417951 0,-8.559174 34.236697,-2.282446 0.570612,-5.135505 6.847339,-1.141223 -1.141223,-6.276728 -26.818746,0.570612 -7.417951,-35.37792 61.626055,-7.988563 32.52486,1.141223 -9.12978,31.383639 -32.52487,8.559174 -1.14122,4.564893 7.98856,1.141224 0.57061,5.135504 39.37221,5.135505 -1.71184,15.977125 23.96569,7.417951 6.84734,9.129783 -1.14123,13.12407 -8.55917,11.41223 -12.55345,7.41795 -15.97713,1.71184 -24.5363,-2.85306 -7.41795,-6.84734 -2.28245,-7.41795 -27.389354,-1.14122 1.141223,7.98856 -4.564893,3.99428 -22.253853,5.1355 -9.129786,1.14123 z"
 id="path4086"
 style="fill:#ffffff;fill-opacity:1;stroke:none" />
<path
 d="m 59.2,21.050183 c 0.995121,7.62043 4.042291,14.846901 4.535047,22.541606 -0.179772,6.158899 0.587831,14.880465 8.873074,11.075272 7.872912,-1.407736 15.97302,-0.596719 23.717273,-2.932358 9.206056,-1.484457 18.144146,-4.788294 27.568346,-4.730755 6.13296,-5.314296 -1.63784,-15.337945 -0.26282,-22.775092 -0.23804,-5.855423 -0.0147,-16.4898998 -8.3588,-11.16243 -8.12446,2.610137 -17.039767,1.450393 -25.414081,3.345304 C 79.771049,19.017223 69.006684,17.255732 59.2,21.050183 z"
 id="path3931"
 style="fill:none;stroke:#000000;stroke-width:0.30000001" />
<path
 d="m 58.722581,21.050183 c 0.670068,10.455816 4.008135,20.478738 6.001603,30.699054 -1.724743,-9.322766 -4.713913,-18.484 -5.219594,-27.985077 0.887167,-3.68955 5.406282,-4.247617 8.583019,-3.87527 3.989009,0.283091 8.040533,0.167496 11.91807,-0.861546 10.838119,-1.21992 21.798831,-1.074815 32.593021,-2.728758 3.10796,-1.65575 7.67197,-2.316061 10.21105,0.674818 1.6097,3.480109 -0.21069,7.45375 1.20733,10.978136 0.77358,5.131258 1.65993,10.244508 2.52876,15.360233 -1.37249,3.531137 -5.82425,3.758329 -9.03851,3.335055 -5.22692,-0.710082 -10.43426,0.684276 -15.67087,0.41301 -9.700184,0.131979 -19.412143,1.739548 -28.467383,5.280175 -2.406496,0.816163 -4.803105,1.666677 -7.246496,2.368234 4.749241,-0.19465 9.31826,-1.753527 14.069397,-1.996879 3.344395,-0.734907 6.722595,-1.208001 10.116012,-1.751733 3.418501,-0.203491 6.697814,-1.437059 10.09284,-1.923605 3.47208,-0.816363 7.05403,-0.732569 10.51315,-1.619851 4.41913,-0.658835 8.9547,-0.645702 13.31195,-1.65091 l 0.38052,-0.127989"
 id="path3937"
 style="color:#000000;fill:none;stroke:#000000;stroke-width:0.30000001" />
<path
 d="m 120.7871,12.217925 c 4.08304,0.377001 8.12023,1.221386 12.24798,0.935097 4.76067,0.20849 9.56139,0.353218 14.29713,0.06046 3.82724,-0.620848 8.90682,0.795759 5.41643,5.288861 -2.79506,7.476769 -6.29583,14.671616 -8.74596,22.272972 -0.75805,4.912706 -6.24054,3.766935 -9.79546,4.306186 -2.54003,0.06871 -8.70553,2.130152 -8.78123,1.519633 5.56062,-1.365301 11.1299,-3.29684 16.91425,-2.722279 4.10308,-0.968276 3.14843,-7.402247 5.47744,-10.534055 1.13328,-6.435135 2.14211,-12.955882 4.24148,-19.178355 -1.2349,-2.426008 -5.54554,0.97711 -8.09907,-0.266533 -7.16563,-0.216953 -14.31863,-0.371601 -21.45229,-0.994005 -0.61249,-0.17386 -1.32003,-0.105968 -1.7207,-0.687979 z"
 id="path3966"
 style="color:#000000;fill:none;stroke:#000000;stroke-width:0.30000001" />
<path
 d="m 63.297462,23.315471 c 1.629921,5.921422 3.761809,11.770165 3.934941,17.990483 0.5017,3.398808 -0.599918,11.978387 5.069747,8.735133 6.012413,-0.527999 12.028893,-0.998212 18.036828,-1.520149 6.392892,-0.132565 12.649492,-1.425598 18.831322,-2.930337 3.77298,-1.314198 13.11943,-0.183041 11.08998,-6.48097 -1.63923,-6.382064 -4.14403,-12.624412 -4.35577,-19.303127 -0.85705,-5.339545 -7.12658,-0.08744 -10.74661,-1.223388 -5.787116,0.611738 -11.581984,0.864237 -17.394103,0.993757 -6.513929,0.861496 -13.291137,-0.299231 -19.626616,1.935618 -1.655043,0.458756 -3.340272,0.961102 -4.839719,1.80298 z"
 id="path3979"
 style="color:#000000;fill:none;stroke:#000000;stroke-width:0.30000001" />
<path
 d="m 64.141428,23.653057 c 2.196657,7.505477 5.657501,15.143479 4.161853,23.136788 1.814721,6.438031 9.922901,2.825853 14.647394,2.565202 10.210617,-2.190391 20.573675,-3.50038 30.963485,-4.439483 3.81181,0.04112 7.74793,-3.368218 5.64555,-7.327122 -2.67255,-5.478629 -3.26858,-11.59046 -4.77554,-17.4248 -2.95605,-4.316734 -8.64044,-1.818627 -12.86429,-1.838541 -10.654673,-0.366843 -21.425345,-0.07074 -31.917541,1.921542 -2.17222,0.682516 -4.217195,1.821252 -5.860911,3.406414 z"
 id="path3990"
 style="color:#000000;fill:none;stroke:#000000;stroke-width:0.30000001" />
<path
 d="m 69.711605,22.640298 c 4.163833,7.192942 4.164808,15.74545 5.213448,23.764211 0.149958,3.116199 -1.678456,-3.568626 -1.890072,-4.852893 -1.716056,-6.233942 0.225356,-13.242594 -3.178063,-19.017767 9.776058,-0.612491 19.36666,-2.955903 29.18799,-3.090358 4.323302,-0.485736 8.714692,-0.875269 13.030052,-0.742482 3.63617,2.37296 2.87921,7.789087 5.29634,11.155547 1.36314,3.489542 5.77439,10.62311 0.29515,12.209679 -6.98405,-0.286981 -13.66826,2.700466 -20.66953,2.770024 -5.69572,0.270573 -11.319883,1.516923 -16.934901,2.433638 -1.428387,-0.286761 -7.460141,0.590496 -2.889642,-0.01348 5.781747,-0.617269 11.626949,-0.834121 17.332842,-2.111241 6.364121,-1.212627 12.739091,-2.5272 19.187451,-3.084055 1.96737,-0.529267 3.82434,-1.408944 5.81297,-1.866329"
 id="path4006"
 style="color:#000000;fill:none;stroke:#000000;stroke-width:0.30000001" />
<path
 d="m 128.45363,13.144789 c 0.1036,2.219354 -0.0797,4.438968 -0.30162,6.645718 0.12934,1.289032 1.39277,2.071788 2.59262,2.16771 1.50242,0.166882 3.01283,-0.07312 4.52067,0.01145 2.33043,0.04646 4.67603,0.07846 6.98686,-0.247103 2.66884,0.134832 5.36954,-0.03516 7.96475,-0.698664 -3.52475,-0.07193 -7.06523,0.189226 -10.57555,-0.226793 -2.43656,-0.166837 -4.89095,0.202669 -7.31642,-0.103902 -1.0373,-0.04629 -2.07771,0.3763 -3.1022,0.125944 -0.94722,-0.521637 -0.12087,-1.740316 -0.3154,-2.560328 0.0648,-1.708056 0.25035,-3.501469 -0.45371,-5.114031 z"
 id="path4069"
 style="color:#000000;fill:none;stroke:#000000;stroke-width:0.30000001" />
<path
 d="m 86.19286,64.000964 c -0.04595,0.626062 1.23397,2.540818 1.20405,4.411742 -1.346327,-2.169187 -1.86224,-6.882895 2.073296,-5.861882 4.036716,-0.267946 7.848256,-1.779441 11.845414,-2.167286 3.5259,-0.510323 7.09845,0.114105 10.60679,-0.349727 2.07859,-0.180028 6.92828,-1.748647 6.21417,1.926009 -0.40042,1.189107 -0.90102,4.605221 -1.54704,4.490947 0.74769,-2.322748 2.41439,-7.743917 -1.87763,-7.009492 -3.4358,0.07593 -6.86547,0.331947 -10.30731,0.291775 -3.07397,0.492388 -6.368255,-0.385438 -9.248106,1.119192 -2.972703,0.748355 -5.504198,2.956308 -8.582958,3.166651 l -0.380676,-0.01793 z"
 id="path4082"
 style="color:#000000;fill:none;stroke:#000000;stroke-width:0.30000001" />
<path
 d="m 94.310747,60.658305 c -0.05492,-2.786959 0.634588,-5.731094 1.423205,-8.310197 1.856318,-0.494075 4.185238,-0.807902 5.977478,-0.625163 0.9501,1.856699 -1.34869,6.509113 -1.27478,6.593595 0.94699,-2.141266 0.3986,-6.039312 1.70166,-7.19225 0.52056,1.304353 -1.52791,4.349992 0.178,1.583088 1.47402,-2.663756 4.62489,-1.488298 6.99424,-2.030793 -2.35841,0.747463 -2.38,3.704486 -3.74916,5.411089 -1.99438,1.928964 0.69732,5.528652 2.31743,2.616547 0.3293,-2.492407 1.2409,-4.738521 2.28701,-7.009741 0.85153,-1.725297 -0.73198,-2.097985 -2.00648,-1.302904"
 id="path4094"
 style="color:#000000;fill:none;stroke:#000000;stroke-width:0.30000001" />
<path
 d="m 100.27978,59.703259 c 0.25483,-1.431068 0.15454,-2.903687 0.4721,-4.32717 -0.3032,-1.622741 0.70599,-3.066863 2.36634,-3.256047 1.56442,-0.117942 2.88721,-1.625923 4.46741,-1.125521 0.63299,1.375601 -0.90427,2.994928 -1.03648,4.489165 -0.43351,1.35654 -0.49789,2.796772 -0.6002,4.208299 -1.20446,1.119509 -0.87196,-1.901643 -0.91188,-2.617803 0.0134,-2.082874 1.21611,-3.949218 1.22015,-6.033502 0.0962,2.196656 -0.66746,4.314239 -0.92669,6.469606 -0.73344,2.177306 1.77153,1.726691 3.10151,1.767493 1.63647,-0.0153 0.87256,-2.220206 1.67267,-3.234171 0.49915,-1.782662 1.22481,-3.587112 0.87167,-5.470461 -0.0231,-0.262035 -0.26336,-0.07597 -0.19069,0.05721"
 id="path4108"
 style="color:#000000;fill:none;stroke:#000000;stroke-width:0.30000001" />
<path
 d="m 69.479563,55.405554 c 7.070349,-0.05289 14.102114,-1.414096 21.17985,-0.894016 1.604366,-0.317452 5.793907,-0.237405 1.950661,0.116759 -7.35918,0.839509 -14.829785,-0.37824 -22.144804,0.84293 l -0.492136,-0.0087 -0.493571,-0.05694 0,-10e-7 z"
 id="path4122"
 style="color:#000000;fill:none;stroke:#000000;stroke-width:0.30000001" />
<path
 d="m 109.59148,52.301656 c 2.44302,-0.358949 6.21041,-1.114018 9.15805,-1.877756 7.52188,-2.039337 15.21024,-3.55813 22.55145,-6.155823 -0.24271,0.967672 -5.98848,1.632272 -8.1964,2.191753 -4.37372,1.297064 -8.90045,1.755656 -13.35935,2.622186 -3.16839,0.408819 -7.94041,3.043464 -10.03966,2.350996 -0.85905,-3.343426 -5.10752,-0.366653 -4.58276,1.952233 -1.99339,0.633242 -4.01914,-0.273533 -0.84392,-0.137116 2.15506,-0.593885 -1.84727,0.208418 -2.08907,0.247333"
 id="path4136"
 style="color:#000000;fill:none;stroke:#000000;stroke-width:0.30000001" />
<path
 d="m 72.3447,30.57437 c 10.820712,-1.341036 21.79272,-1.40293 32.49213,-3.649787 2.8202,-0.185236 9.29854,-1.569748 9.59681,-1.997528 -9.50866,2.294979 -19.256251,3.375135 -29.022758,3.697311 -4.294688,0.834121 -9.100402,-0.02096 -13.066182,1.950004 z"
 id="path4150"
 style="color:#000000;fill:none;stroke:#000000;stroke-width:0.30000001" />
<path
 d="m 73.777268,36.782166 c 7.649781,-0.996698 15.253324,-2.488296 22.983857,-2.648598 6.352915,-0.526201 12.658645,-1.393343 18.941275,-2.431817 -8.47628,1.087615 -16.965523,2.240742 -25.486672,2.76582 -5.38958,1.504912 -11.027576,1.033717 -16.43846,2.314595 l 0,0 z"
 id="path4163"
 style="color:#000000;fill:none;stroke:#000000;stroke-width:0.30000001" />
<path
 d="m 107.17679,26.962708 c -0.67626,-0.04088 -1.36425,-0.05714 -1.90116,0.395787 -0.54675,0.489677 -1.13191,1.198759 -0.96877,1.974434 0.0447,0.935708 -0.0163,1.881157 -0.002,2.822748 0.51573,0.362628 0.78566,1.080888 1.42658,1.141804 0.65985,0.191525 1.54555,0.234207 2.15028,-0.09445 0.58093,-0.196282 1.56256,-0.816895 1.4306,-1.58903 0.23938,-0.807231 0.30235,-1.648147 0.26044,-2.523654 0.14751,-0.668474 -0.5126,-0.964857 -0.72926,-1.495849 -0.34639,0.275429 -0.60326,-0.761952 -1.17088,-0.532744 -0.16513,-0.03303 -0.33026,-0.06606 -0.49541,-0.09904 z"
 id="path4176"
 style="color:#000000;fill:none;stroke:#000000;stroke-width:0.30000001" />
<path
 d="m 108.14393,26.246424 c -2.19703,-0.310847 -3.98843,1.61158 -5.52134,2.870766 -0.65708,2.363909 2.04972,4.063601 4.03466,4.54204 2.46362,1.06239 4.9732,-1.464862 4.38471,-3.935648 -0.39636,-1.963099 -2.6624,-3.969 -4.71569,-3.014293 -1.72651,1.52633 0.33548,4.964109 2.4103,5.178179 2.46914,-0.07863 2.02816,-4.365102 -0.39386,-4.295223 -2.36939,-0.165678 -3.22027,3.254365 -2.142,4.903978 1.66366,2.562622 5.31962,0.288878 4.24852,-2.381068 -0.57962,-2.263427 -2.68254,-4.905853 -5.29224,-3.721465 -2.37805,0.958066 -3.54303,4.910038 -1.19007,6.50545 2.17798,0.645333 5.24944,1.640402 7.0468,-0.29822 1.05499,-1.965286 1.15648,-5.032886 -1.19818,-6.115708"
 id="path4188"
 style="color:#000000;fill:none;stroke:#000000;stroke-width:0.30000001" />
<path
 d="m 81.521609,27.498979 c -3.220152,0.363039 -5.956009,3.678637 -4.743342,6.914829 1.463862,2.885107 5.756936,3.857491 8.568148,2.858126 2.892467,-2.527756 0.972414,-6.958768 -1.86411,-8.665419 -3.068616,-2.851597 -5.960078,0.852608 -5.495416,4.07112 -1.247866,3.670571 2.814952,5.361644 5.824567,4.893523 3.088107,-0.02135 4.270494,-3.894773 4.415463,-6.416802 -0.991356,-2.94736 -4.549652,-4.698366 -7.491349,-4.771526 -4.214537,0.784154 -5.48135,7.334501 -1.629423,9.442203 2.741489,1.486927 8.262833,2.250523 8.828348,-1.992541 0.844592,-3.268966 -2.209727,-5.728599 -5.152071,-6.100449 -0.417413,-0.0923 -0.838356,-0.167987 -1.260815,-0.233064 z"
 id="path4229"
 style="color:#000000;fill:none;stroke:#000000;stroke-width:0.30000001" />
<path
 d="m 18.360723,73.523191 c 1.558675,5.325775 4.891574,9.921689 6.818124,15.11291 3.407136,6.538018 7.206315,12.910539 9.411587,19.984849 2.080047,4.28416 -2.681429,-4.73894 -3.537131,-6.52578 -3.465491,-5.551351 -6.65815,-11.370121 -8.275463,-17.75605 -0.997248,-3.92608 -7.210353,-9.83211 -3.014351,-12.926773 1.963885,-0.96822 5.858008,-0.874128 1.443553,0.16727 -4.332252,2.273538 3.256399,-2.538941 5.292344,-0.158496 5.840711,3.08881 12.525645,3.760263 18.839387,5.38377 3.335981,1.117315 8.61739,0.689137 9.440551,5.055027 0.78883,4.840439 0.185862,9.879083 2.078058,14.536491 2.511853,4.818501 -3.834406,6.305021 -6.962638,7.941001 -3.587107,0.81681 -9.975016,3.65719 -11.307473,4.80362 4.60063,-2.39321 9.616583,-3.68192 14.405168,-5.5869 5.76813,-2.05795 4.220834,-8.937411 2.890024,-13.409154 -0.970591,-4.273747 0.147035,-12.262928 -6.196802,-11.920353 -6.193012,0.225871 -11.999054,-2.074652 -17.853288,-3.764825 -4.694536,-1.388414 -9.222744,-6.280675 -13.47165,-0.936607 z"
 id="path4246"
 style="color:#000000;fill:none;stroke:#000000;stroke-width:0.30000001" />
<path
 d="m 23.991345,71.075094 c 3.469792,4.71313 4.963763,10.470326 7.077134,15.837747 1.3928,5.717898 4.704646,10.674718 6.99955,16.032959 1.377305,1.12177 1.770597,3.35258 0.402104,4.64088 -0.696956,1.10702 -3.022293,1.62943 -3.329423,2.09365 1.69522,-0.73292 3.527817,-1.51542 4.611766,-3.08529 2.509417,-2.44592 6.306906,-2.09399 9.357883,-3.40501 2.591988,-0.85152 5.350937,-1.14382 7.867871,-2.23156 -3.925004,2.59075 -8.717955,3.02784 -13.19117,4.05208 -1.454515,0.88214 -3.644128,1.95299 -5.069788,0.45562 -0.875083,-1.56521 -1.403562,-3.33103 -2.469113,-4.8226 C 34.457723,97.800369 33.037639,94.757249 31.53023,91.761816 28.921775,86.180594 27.518169,80.150163 25.832788,74.261947 25.563042,73.05487 25.152676,71.714599 23.991345,71.075094 z"
 id="path4259"
 style="color:#000000;fill:none;stroke:#000000;stroke-width:0.30000001" />
<path
 d="m 55.082169,83.560386 c 1.210162,-0.228349 2.089585,0.870764 2.677282,1.801593 0.75092,0.99339 0.780832,2.32672 1.02526,3.530193 0.246986,1.095976 -0.656191,1.902511 -0.992219,2.759691 -0.256864,0.385042 -1.900979,1.045966 -0.677145,1.188686 0.490068,-0.751176 1.350506,-1.123126 1.254705,-2.270165 0.509676,-1.078618 0.517938,-2.438709 0.209858,-3.560549 -0.558044,-1.388889 -1.979841,-2.149037 -3.402048,-2.323666 -1.337185,-0.620038 0.617596,-1.599155 0.919052,-0.259261 0.836594,0.515158 1.925429,0.725216 2.033694,1.97773 0.102174,0.936118 0.333538,1.97412 0.381405,2.968139 0.132329,1.213366 -0.134622,2.471745 -1.003331,3.372622 -0.293005,0.39716 -0.371416,0.81113 -0.957681,0.60637"
 id="path4283"
 style="color:#000000;fill:none;stroke:#000000;stroke-width:0.30000001" />
<path
 d="m 104.28891,84.050005 c -1.71791,4.06811 -1.04434,8.925604 -3.7344,12.550854 -2.468399,3.814931 -0.2898,8.445321 1.87644,11.727721 2.99602,3.19648 9.57049,3.3688 8.65264,-2.49959 0.6506,-4.8066 3.17224,-9.145331 4.88838,-13.658854 2.11777,-4.944289 3.9356,-10.249986 4.01286,-15.626277 -1.28943,-6.086764 -7.18293,-2.640125 -9.81249,0.350596 -2.00052,1.130162 -7.08153,5.275113 -5.97459,5.884029 1.84014,-3.477151 5.17839,-6.240329 7.39764,-9.619357 3.3946,-3.144164 10.50614,0.20641 8.1452,5.173849 -1.97643,6.337893 -5.34363,12.244246 -6.38713,18.888483 -0.95472,4.260671 -1.82035,8.805901 -4.20862,12.472131 -4.51723,1.80432 -7.79101,-2.74077 -9.484295,-6.28674 -3.592722,-4.691091 2.139395,-9.200341 3.255545,-13.71317 0.54675,-1.766727 1.65265,-3.803989 1.37282,-5.643675 z"
 id="path4296"
 style="color:#000000;fill:none;stroke:#000000;stroke-width:0.30000001" />
<path
 d="m 115.06053,72.788762 c -0.46515,4.800838 -3.52196,8.845572 -4.80121,13.439357 -1.74414,5.217343 -2.56338,10.74047 -5.24102,15.621261 -1.39999,2.80714 -4.27361,8.25801 1.1219,7.13455 2.1553,-0.44248 4.98907,2.02063 1.37711,0.68693 -3.31528,-0.66721 -6.45466,-2.36665 -4.1795,-6.15227 1.46729,-4.198251 2.16088,-8.635091 4.56061,-12.493062 2.26738,-5.257328 3.965,-10.76462 5.23509,-16.334722 1.32271,-2.054991 1.51644,-4.659008 4.37958,-2.434015 1.81021,0.80194 4.64579,2.847826 0.81929,2.006366 -1.07378,-0.312929 -2.64347,-0.423122 -3.27185,-1.474395 z"
 id="path4309"
 style="color:#000000;fill:none;stroke:#000000;stroke-width:0.30000001" />
<path
 d="m 128.44506,82.766044 c -5.01874,5.215009 -10.72955,10.406815 -13.01654,17.479376 -1.47763,8.72326 -2.66342,18.39684 1.88394,26.45291 2.93583,4.96971 9.16772,6.34082 14.52576,6.64393 4.96791,0.2377 9.95707,0.28594 14.86518,1.17801 7.95844,0.93337 16.69645,0.44365 23.41542,-4.39404 7.65666,-3.69677 14.85278,-10.38308 16.21034,-19.12808 1.17805,-6.59235 -0.67897,-14.494921 -6.82412,-18.053761 -8.11696,-3.810317 -16.82784,-6.186804 -25.48395,-8.442505 -8.49188,-1.019779 -17.06307,-0.976351 -25.57603,-1.73584 z"
 id="path4321"
 style="color:#000000;fill:none;stroke:#000000;stroke-width:0.30000001" />
<path
 d="m 154.75726,88.305454 c -5.22857,3.991778 -9.9692,9.057415 -13.03826,14.871506 -3.66132,7.36603 -4.3257,15.74252 -4.89345,23.79539 1.75269,9.17978 13.82905,4.5633 20.32451,4.88482 7.28786,-0.315 15.96539,-2.18429 19.0573,-9.71948 3.10882,-6.46025 8.21998,-13.17466 6.87234,-20.7426 -2.31895,-6.032521 -10.21334,-6.708171 -15.54908,-8.931841 -4.04064,-1.385997 -10.14448,-0.221881 -12.77336,-4.157795 z"
 id="path4334"
 style="color:#000000;fill:none;stroke:#000000;stroke-width:0.30000001" />
<path
 d="m 128.27196,83.804683 c -0.77434,0.130703 -3.16541,2.645591 -4.65296,3.845803 -1.46708,0.927081 -4.51543,4.228923 -0.81689,4.111333 4.1467,0.403882 8.30527,0.367117 12.47013,0.353502 2.63051,-0.118315 5.18049,0.752588 7.79446,0.759658 2.10128,0.38275 4.18807,2.86193 6.29912,1.27134 1.79448,-1.14428 2.24174,-3.559766 4.35354,-4.312408 3.00387,-2.659413 -3.5452,-1.846017 -5.1309,-3.12205 -2.46396,-0.48922 -4.97165,-0.681779 -7.43724,-1.189252 -2.39049,-0.501985 -4.79726,-0.538898 -7.22602,-0.536963 -1.91719,0.180806 -4.77356,-1.388011 -5.93652,-0.430306 l -0.12489,0.150348 -0.28424,-0.03553"
 id="path4347"
 style="color:#000000;fill:none;stroke:#000000;stroke-width:0.30000001" />
<path
 d="m 119.78974,92.286905 c -0.84944,2.321814 -2.21892,4.448794 -3.72927,6.436664 -2.1097,2.808051 1.79455,3.542971 3.92689,3.438361 4.87746,0.35092 9.80522,0.10565 14.6297,1.00335 2.16126,0.0921 4.48797,2.50522 6.4126,0.83237 1.98004,-2.29528 3.28787,-5.140921 5.19722,-7.458141 -1.64115,-1.63212 -4.44663,-1.27377 -6.6359,-1.75219 -3.47007,-0.74672 -6.95516,-1.45017 -10.51187,-1.62919 -2.79688,-0.36277 -5.59789,-0.65866 -8.42384,-0.52499 l -0.43526,-0.16673 -0.43027,-0.179504 0,0 z"
 id="path4358"
 style="color:#000000;fill:none;stroke:#000000;stroke-width:0.30000001" />
<path
 d="m 115.11586,104.40436 c -0.91438,2.51227 -1.08365,5.22159 -1.4096,7.83917 0.93663,3.03607 5.3641,1.08765 7.82543,1.73944 5.2099,0.21861 10.4204,0.75526 15.4852,2.03465 2.16848,-1.15139 1.67691,-4.18261 2.74397,-6.12639 1.64653,-3.82282 -3.1958,-2.95444 -5.43972,-3.33614 -5.97757,-0.62283 -11.91239,-1.60523 -17.86088,-2.36126 -0.45119,0.0102 -0.92612,0.0215 -1.3444,0.21053 z"
 id="path4369"
 style="color:#000000;fill:none;stroke:#000000;stroke-width:0.30000001" />
<path
 d="m 131.73409,83.45847 c 5.61177,-0.577913 11.22561,0.460181 16.67919,1.701296 2.50282,1.120755 5.23252,1.632421 7.72624,2.772934 1.12312,0.176379 2.4991,0.546516 3.49692,-0.140374 -0.27544,-1.180263 -1.814,-1.735965 -2.72353,-2.481779 -3.6928,-2.074483 -8.06734,-1.696419 -12.1235,-2.278758 -4.07088,-0.311335 -8.17329,-0.497789 -12.24364,-0.07741 -1.80693,0.629096 -3.65377,-0.582551 -5.48283,-0.273771 -1.30757,0.854321 1.09871,0.736951 1.7129,0.838614 0.90771,0.01947 2.94689,0.192637 3.19519,0.04023 -0.079,-0.03366 -0.15796,-0.06732 -0.23694,-0.100983 z"
 id="path4381"
 style="color:#000000;fill:none;stroke:#000000;stroke-width:0.30000001" />
<path
 d="m 114.42343,115.8294 c -0.0486,1.93563 -0.58245,4.01027 0.29395,5.83909 0.59955,1.19534 2.02611,1.45186 3.14811,1.92963 5.25471,1.89762 11.0535,2.31543 16.50873,1.07716 1.11636,0.20267 2.42468,-0.26416 2.80087,-1.42307 0.50616,-1.33816 0.46112,-2.79853 0.74608,-4.18666 0.25217,-1.05095 -0.72296,-1.87508 -1.72842,-1.73373 -1.59372,-0.0278 -3.20377,0.65155 -4.77929,0.20673 -3.51863,0.32495 -7.03111,-0.31613 -10.4572,-1.05911 -2.09579,-0.0644 -4.10552,-0.9079 -6.21492,-0.78701 l -0.15899,0.0685 -0.15892,0.0685 0,0 z"
 id="path4411"
 style="color:#000000;fill:none;stroke:#000000;stroke-width:0.30000001" />
<path
 d="m 117.02003,125.69647 c 1.30923,0.62057 1.62882,2.17012 2.38219,3.27873 0.41869,0.71531 1.24756,1.19138 2.08535,1.0236 3.13727,-0.30878 6.29497,-0.12734 9.43945,-0.2747 1.89335,0.0209 3.92123,0.59182 5.70536,-0.3013 0.99178,-0.43106 1.32745,-1.84358 0.61686,-2.66995 -0.69562,-0.94836 -2.16682,-1.26607 -3.13079,-0.53809 -2.97804,0.87969 -6.11523,0.31424 -9.15502,0.7058 -2.45834,0.13722 -4.67345,-1.21771 -7.08719,-1.39695 -0.29198,0.0127 -0.58307,0.0678 -0.85621,0.17286 z"
 id="path4425"
 style="color:#000000;fill:none;stroke:#000000;stroke-width:0.30000001" />
<path
 d="m 185.74333,101.98087 c -5.43941,-9.126611 -16.95148,-9.976301 -25.90911,-13.487324 -6.69631,-3.473627 -12.23387,2.896928 -16.95261,6.737973 -5.37555,4.20517 -8.33387,10.568901 -8.746,17.314521 -0.92069,5.83767 -1.26991,12.17923 0.59816,17.84047 1.59292,2.37985 4.66232,2.78331 7.21361,3.44597"
 id="path4439"
 style="color:#000000;fill:none;stroke:#000000;stroke-width:0.30000001" />
<path
 d="m 123.59808,131.06277 c 4.16802,0.19886 8.36248,0.40468 12.51861,-0.0886 1.37228,-1.53073 6.0829,0.59854 2.96897,1.60095 -4.18039,0.45354 -8.40443,0.15792 -12.5826,-0.10383 -1.06228,-0.24341 -1.99137,-0.8419 -2.90498,-1.40852 z"
 id="path4452"
 style="color:#000000;fill:none;stroke:#000000;stroke-width:0.30000001" />
<path
 d="m 132.0803,82.939151 c -1.82445,2.409678 -5.578,0.710562 -7.436,3.067559 -0.85877,1.72558 -3.23998,3.525201 -3.62577,4.882954 1.24002,0.537603 0.27872,2.325335 -0.88258,1.743435 1.4354,0.5589 0.76964,-2.707833 0.71239,-0.490612 -1.49688,0.768092 -1.79899,2.874312 -2.4779,4.438742 -0.80063,1.39886 -3.07717,2.50981 -2.41551,4.368921 1.27308,0.48975 1.58823,1.79293 0.21604,2.48775 -1.22323,0.65205 0.53847,-1.5062 0.37555,-1.74874 0.59341,1.69266 -1.3382,2.44724 -1.46145,4.03043 -0.38527,1.70183 -0.22826,3.50439 -0.8357,5.15104 -0.0924,1.70665 2.49048,3.15151 0.93585,4.82742 0.40299,-0.9586 -0.49643,-2.61592 -0.0856,-0.63038 -1.58645,2.15727 0.75061,4.46163 0.55351,6.73427 -0.0697,1.69414 2.35804,1.8403 1.9642,3.27081 0.57693,-1.03282 -1.26896,-2.85068 -0.27932,-0.91005 -0.32452,2.10288 0.39865,4.00672 2.24104,5.15242 0.94242,1.11486 4.48766,1.16911 4.51431,1.62804 -0.62922,-0.28024 -1.33084,-0.97111 -2.05328,-0.74594"
 id="path4468"
 style="color:#000000;fill:none;stroke:#000000;stroke-width:0.30000001" />
<path
 d="m 154.75726,88.47856 c -3.4275,1.674183 -5.4058,5.714549 -9.37876,6.363369 -1.90568,1.07199 0.5596,0.92119 0.66175,-0.25422 -0.72864,1.99421 -0.68177,4.48129 -3.02996,5.465301 -1.33427,1.77885 -2.44537,3.93636 -4.70006,4.67779 -2.21957,0.6479 0.63652,3.88175 -0.15806,1.06775 2.45994,0.25736 1.49652,3.88956 1.37928,5.63757 0.39248,2.70094 -2.76457,3.36891 -3.47171,5.3548 0.66091,1.4029 0.2911,-0.86082 1.08253,1.05485 1.6449,2.06465 -0.0554,4.01352 -0.76296,5.95909 0.27094,2.23608 0.76214,4.97246 0.57637,6.79263 1.08817,0.80539 2.47494,0.99132 3.7799,1.15784"
 id="path4479"
 style="color:#000000;fill:none;stroke:#000000;stroke-width:0.30000001" />
<path
 d="m 53.123691,102.90035 c 1.816253,3.75522 1.985906,11.85494 2.454792,13.42479 -0.608979,-2.91817 -1.932136,-9.42193 -2.060051,-10.06844 2.27575,3.51309 0.13074,11.11101 5.466604,10.8152 7.308309,-0.68612 14.666736,-1.43517 22.019759,-0.65954 10.65779,1.30575 21.401335,0.78822 32.103055,1.4734 -8.23808,0.62851 -16.492082,-0.78812 -24.755424,-0.3123 -10.507991,0.25878 -21.002504,-0.44236 -31.503943,-0.17175 l -0.787076,-0.0579"
 id="path4493"
 style="color:#000000;fill:none;stroke:#000000;stroke-width:0.30000001" />
<path
 d="m 51.899643,78.174574 c -0.277863,-1.896161 0.375277,-7.86315 0.939368,-6.795227 0.577895,1.823755 -0.818152,8.927934 -0.928049,3.956471 -0.613653,-3.555944 0.09313,-7.430202 4.537063,-6.338562 9.782652,-0.277754 19.593871,-0.223666 29.348652,-1.081636 0.466695,-1.738171 -6.050491,0.261103 -8.141762,-0.266299 -7.83268,0.588222 -15.687997,2.198613 -23.569859,1.193848 10.206238,0.0654 20.4127,0.01055 30.619036,0.02863 0.788806,-1.039155 2.524842,-0.520939 3.182525,-1.713668"
 id="path4505"
 style="color:#000000;fill:none;stroke:#000000;stroke-width:0.30000001" />
<path
 d="m 117.50863,64.710044 c 6.58975,1.348716 13.37007,0.546302 20.01083,1.432755 6.71912,0.455146 13.28148,2.062573 19.93146,3.027881 2.36354,0.428036 2.70624,3.213683 2.37392,5.165827 -0.31066,2.011738 -0.60453,4.019388 -0.66596,6.049911 -0.30963,1.112152 -0.29737,3.035103 -1.39245,3.476361 -0.70736,-1.544898 0.0172,-3.262543 0.16205,-4.865234 0.48379,-2.908627 1.1113,-5.808152 1.21174,-8.764413 0.22329,4.175061 -1.90387,7.959126 -2.64785,11.977625 -0.0989,0.803341 -0.82473,1.370404 -0.62162,0.108803 0.1878,-2.266493 0.29691,-4.677651 1.45677,-6.692768 0.80782,-2.043422 1.13285,-4.891549 -0.68764,-6.496504 -1.42482,-1.110102 -3.16824,-0.141793 -4.76102,-0.283953 -4.95853,0.08294 -9.92482,0.08106 -14.87866,-0.146726 -6.23836,-0.447995 -12.31141,-2.075548 -18.40326,-3.347397 -0.39697,-0.147011 -0.77028,-0.361856 -1.08831,-0.642168 z"
 id="path4522"
 style="color:#000000;fill:none;stroke:#000000;stroke-width:0.30000001" />
<path
 d="m 131.95239,74.25762 c 6.55391,-3.013123 19.39351,-3.700211 22.87145,-4.424296 -6.33256,1.130186 -13.00167,1.140809 -19.12081,2.650443 -4.87969,0.817546 -4.08704,13.755948 -1.81701,5.781643 -1.00328,-7.274515 -10.07168,-8.528581 -16.04067,-7.772827 -16.58245,1.159044 -33.216092,-0.795708 -49.816947,-1.067357 -3.829871,-0.139511 -14.003891,-0.201643 -13.628137,-0.01974 17.178844,0.402567 34.365322,0.06338 51.537204,0.430744 9.41544,-0.661242 18.78409,0.663032 28.16702,1.277169 7.31228,-0.263362 14.60506,-1.145781 21.83925,-2.241588"
 id="path4535"
 style="color:#000000;fill:none;stroke:#000000;stroke-width:0.30000001" />
<path
 d="m 103.79929,86.253292 c -0.95937,0.170162 -1.86139,0.454641 -2.5837,1.05457 -1.08708,0.616262 -2.291131,1.493552 -2.155583,2.909971 -0.528972,1.187252 0.203914,2.366706 0.834647,3.327306 0.387266,0.48715 1.355976,1.46321 0.214046,0.7227 -0.762203,-0.78731 -0.936915,-1.81355 -1.148457,-2.908829 -0.149969,-1.009031 -0.178756,-2.241395 0.398,-3.168118 0.707137,-0.731061 1.305627,-1.696844 2.302257,-1.963116 0.72757,-0.518572 1.4185,-0.49211 2.13879,0.02552 z"
 id="path4555"
 style="color:#000000;fill:none;stroke:#000000;stroke-width:0.30000001" />
<path
 d="m 87.64185,67.892569 c 6.139737,0.59274 12.312253,0.02755 18.44853,0.102728 3.68098,0.328546 7.44486,0.30313 10.92863,-1.08194"
 id="path4568"
 style="color:#000000;fill:none;stroke:#000000;stroke-width:0.30000001" />
<path
 d="m 62.671267,116.60969 c -1.353106,-2.86261 -1.358515,-6.13631 -2.169845,-9.16132 -0.368263,-3.38708 -0.662272,-6.74651 -0.524915,-10.156921 -1.107584,-4.12958 3.781096,-2.34535 6.1426,-2.70321 3.804265,-0.13193 7.563183,0.30238 11.363741,0.28564 6.814726,0.40521 13.626126,0.64904 20.441011,0.927 0.753914,-0.81566 4.285021,-0.66253 1.303218,-0.48963 -6.469819,-0.0932 -12.965554,0.2406 -19.405822,-0.27914 -4.847808,0.22017 -9.68388,-0.46124 -14.533159,-0.18508 -2.459405,-0.17867 -5.977854,-0.92323 -4.753233,2.72831 0.633849,3.060241 -0.534277,6.098781 0.111549,9.165551 0.363904,3.33056 0.471528,6.8226 2.024855,9.8688 z"
 id="path4582"
 style="color:#000000;fill:none;stroke:#000000;stroke-width:0.30000001" />
<path
 d="m 105.02333,109.51021 c -0.16688,0.97965 0.41726,1.91931 0.22642,2.8986 0.10646,1.07418 0.27373,2.14182 0.48538,3.20014 -0.0622,0.61749 0.27893,1.18785 0.28622,1.79907 -0.10832,0.42085 -0.23964,-0.17817 -0.25809,-0.35206 -0.10237,-0.75838 0.10144,-1.52193 -0.006,-2.28038 0.001,-1.34054 0.003,-2.68109 -0.004,-4.02162 -0.18718,-0.44562 -0.49213,-0.82655 -0.73009,-1.24375 z"
 id="path4593"
 style="color:#000000;fill:none;stroke:#000000;stroke-width:0.30000001" />
<path
 d="m 52.144453,73.523191 c 11.880069,1.453233 23.867452,0.683571 35.776953,0.03109 7.730802,-0.0185 15.530124,0.594288 23.222174,0.213714"
 id="path4607"
 style="color:#000000;fill:none;stroke:#000000;stroke-width:0.30000001" />
<path
 d="m 119.71191,74.01281 c 1.68091,-0.514634 3.46009,-0.132705 5.18584,-0.2437 1.87345,0.002 3.74691,-1.74e-4 5.62033,-0.01064 0.63501,0.377281 1.47834,0.31064 2.16874,0.499174"
 id="path4620"
 style="color:#000000;fill:none;stroke:#000000;stroke-width:0.30000001" />
<path
 d="m 54.592549,81.11229 c 13.192969,-0.08527 26.38018,0.441587 39.570517,-0.03537 3.525814,-0.168224 7.133194,0.409627 10.615434,-0.209417"
 id="path4632"
 style="color:#000000;fill:none;stroke:#000000;stroke-width:0.30000001" />
<path
 d="m 119.4671,80.86748 c 2.85966,-0.106666 5.69545,0.510431 8.53622,0.51127 1.68059,-0.101606 3.24013,-1.10498 4.92831,-1.000918"
 id="path4645"
 style="color:#000000;fill:none;stroke:#000000;stroke-width:0.30000001" />
<path
 d="m 56.551026,73.768 c -1.026096,1.83491 -2.212644,4.058329 -2.731944,5.864664 1.194998,1.704867 3.555152,1.270217 5.346807,1.162269 1.522105,-0.867189 1.136471,-3.887438 3.38955,-4.262021 1.282038,-1.576995 3.079955,-2.875154 5.079671,-1.944828 1.999584,-0.887925 6.040002,0.111546 4.003497,2.858443 -0.647756,0.935598 -2.552371,2.37309 -2.035936,3.243166 2.414556,-0.41066 5.296168,0.693103 7.280227,-1.22985 2.028198,-1.499026 3.539511,-3.581737 5.477735,-5.162471 1.754326,-0.898869 4.628554,-1.099192 6.054473,-0.0084 0.30779,2.43697 -2.338525,3.650413 -3.297943,5.562991 -0.807415,2.40579 2.184629,0.532429 3.411094,1.166357 1.582193,0.271922 3.62463,0.270357 4.470398,-1.368725 1.318579,-1.792635 2.388688,-3.784638 3.976942,-5.366284 1.777457,-0.855126 5.639713,-1.684646 6.375633,0.511314 -0.20994,2.277243 -3.36679,2.954901 -3.31541,5.325537 1.20493,1.491644 3.23912,-0.0482 4.74271,0.502509"
 id="path4666"
 style="color:#000000;fill:none;stroke:#000000;stroke-width:0.30000001" />
<path
 d="m 120.25838,73.428831 c -0.35431,0.805453 0.95572,0.863968 1.17426,0.289975 0.38067,0.238362 0.7364,0.461633 1.19942,0.256336 0.60154,-0.02106 1.08759,0.426908 1.67628,0.310441 0.41944,0.230226 0.74505,0.362315 1.22705,0.313611 0.45991,0.176716 0.89886,0.629277 0.87493,1.160362 -0.0203,0.610249 -0.0523,1.223773 0.004,1.833307 -0.51308,0.360778 -0.16233,0.94243 -0.59581,1.336361 -0.0887,0.300124 -0.3048,0.620064 -0.4577,0.943772 -0.19916,0.144866 -0.11333,0.546079 -0.41353,0.733173 0.0791,0.189977 -0.19121,0.49794 -0.16469,0.412437 0.36936,0.613956 1.13076,0.138892 1.69575,0.307968 0.63546,-0.295094 1.30586,-0.303391 1.94964,-0.50111 0.51575,-0.336468 1.21368,0.158997 1.62477,-0.351537 0.19627,-0.178607 0.25177,-0.594293 0.49136,-0.252018 0.21738,-0.21505 0.13586,-0.859384 0.63158,-0.681992 0.25604,-0.435638 0.34869,-0.952486 0.71403,-1.301312 0.075,-0.361946 0.26709,-0.578913 0.47957,-0.765526 0.11326,-0.01777 0.25367,-0.123659 0.14894,-0.249701"
 id="path4735"
 style="color:#000000;fill:none;stroke:#000000;stroke-width:0.30000001" />
<path
 d="m 24.810588,88.315184 c -0.733636,1.503117 0.08003,-0.818063 -0.983361,0.903457 -2.612146,2.245818 -5.262149,5.075048 -5.310849,8.730668 -0.978132,5.829001 2.034226,11.181941 3.293048,16.696571 0.999507,3.86358 2.791547,7.49811 5.321853,10.57718 1.981311,3.44808 4.068001,7.88781 8.515521,8.43272 6.922144,1.10668 13.987677,-0.12485 20.904942,1.07895 4.89472,0.42132 9.652295,-1.01141 14.260302,-2.44153 4.209637,-0.94435 8.661542,-1.467 12.400895,-3.78693 3.904566,-0.91407 5.101872,-5.41902 3.839063,-8.82322 -0.155887,-0.91553 -0.310703,-1.83401 -0.360888,-2.76272"
 id="path4748"
 style="color:#000000;fill:none;stroke:#000000;stroke-width:0.30000001" />
<path
 d="m 51.956291,103.20154 c 0.536326,0.38913 -0.417383,1.09244 -0.09219,0.20101 -0.257899,2.65812 -1.114742,5.22743 -1.205065,7.90767 -0.597276,4.9782 -0.06946,10.36173 2.886032,14.5655 1.204582,2.13957 2.761782,4.34892 5.249413,5.05979 2.443391,0.6412 4.997118,0.22369 7.487179,0.21694 1.993659,-0.0874 3.945303,-0.55018 5.855061,-1.07506 3.062128,-0.26223 6.037947,-1.06496 8.966192,-1.95974 1.911167,-0.5681 3.457272,-1.99648 4.241676,-3.82012 0.945996,-1.9462 1.308032,-4.6317 -0.362761,-6.29654 l -0.161436,-0.11441 -0.172499,-0.0906"
 id="path4762"
 style="color:#000000;fill:none;stroke:#000000;stroke-width:0.30000001" />
<path
 d="m 141.27441,131.80669 c 0.86996,-0.24915 0.6557,1.00312 0.42831,1.32189 0.27074,0.65642 0.38888,1.60233 1.23927,1.74584 0.98692,0.31623 2.0313,0.0955 3.04558,0.14293 2.22348,-0.0137 4.447,0.016 6.67048,4.4e-4 0.4665,-0.58496 1.25664,-0.23169 1.87514,-0.22405 0.68464,-0.003 1.48074,-0.55541 1.3583,-1.31189 -0.004,-0.68974 -0.10497,-1.55816 -0.8006,-1.89882 -0.82747,-0.22857 -1.68563,0.0701 -2.52269,-0.0711 -1.07109,-0.003 -2.14228,0.0194 -3.21328,-0.003 -0.58615,-0.52507 -1.45665,-0.0733 -2.08953,-0.48294 -0.7874,-0.25434 -1.61859,0.0125 -2.42019,-0.12299 -0.7776,0.12639 -1.60083,0.24917 -2.31338,0.56296 -0.3799,0.20993 -0.81242,0.41045 -1.25741,0.34033 z"
 id="path4776"
 style="color:#000000;fill:none;stroke:#000000;stroke-width:0.30000001" />
<path
 d="m 174.2579,94.444859 c 1.75054,1.07563 1.68724,3.36747 1.72674,5.17401 -0.0981,3.077261 0.34416,6.211731 -0.27242,9.247621 -1.16293,3.77879 -2.14967,7.693 -4.34683,11.03837 -1.59946,2.76105 -3.26901,5.57451 -5.80892,7.58428 -1.93844,1.67637 -4.52879,2.17818 -6.80852,3.21891 -0.11348,0.18982 -1.08567,0.17614 -0.83587,0.51485"
 id="path4818"
 style="color:#000000;fill:none;stroke:#000000;stroke-width:0.30000001" />
<path
 d="m 167.25255,95.612419 c 1.56275,-1.38901 3.73393,-2.03307 5.79988,-1.74244 1.53358,-0.11462 3.22902,0.0179 4.41316,1.11654 2.46366,1.97854 3.49696,5.173171 3.95665,8.190681 0.2544,1.57866 0.30241,3.30002 -0.56064,4.71474 -0.55661,1.01818 -1.18024,2.00299 -1.73617,3.01836 -1.29696,1.62762 -3.50138,1.84891 -5.32228,2.56306 -1.42678,0.38357 -2.94361,0.30678 -4.39506,0.13278 -2.3838,-0.54096 -4.12193,-2.62572 -4.87443,-4.87123 -0.6397,-1.93893 -0.86226,-4.01339 -0.78496,-6.04765 0.11719,-2.17741 1.15447,-4.200101 2.4471,-5.911221 0.96532,-1.25954 2.48263,-2.04889 4.07786,-2.03879 1.88043,-0.1118 3.81201,-3.7e-4 5.62423,0.51672 1.41039,0.62874 3.08452,1.26112 3.70618,2.80812 1.12124,2.795041 2.56171,5.602611 2.55726,8.687341 0.0931,1.69363 -0.76805,3.28895 -2.02345,4.38111 -1.73435,1.69026 -4.14658,2.40725 -6.46801,2.84336 -1.24421,0.13259 -2.50213,0.12861 -3.73462,0.36432 -1.43844,0.19848 -2.8031,-0.59212 -3.57594,-1.77625 -1.20129,-1.63071 -1.47525,-3.71972 -1.48127,-5.68897 -0.35504,-2.09783 -0.28841,-4.23205 -0.25283,-6.34855 0.16105,-1.687441 0.46874,-3.668811 2.04935,-4.627281 0.18284,-0.11332 0.37655,-0.20922 0.57799,-0.28475 z"
 id="path4834"
 style="color:#000000;fill:none;stroke:#000000;stroke-width:0.30000001" />
<path
 d="m 177.75309,95.200779 c -1.75134,4.3e-4 -3.50267,-6.2e-4 -5.25401,0 -0.86141,0.6321 -2.09935,0.35852 -2.88948,1.16411 -0.98498,0.40992 -1.48424,1.33629 -2.0064,2.19779 -0.63483,0.74438 -0.19556,1.675951 -0.43871,2.518871 -0.15725,0.71781 -0.40042,1.46693 -0.19369,2.20138 -0.13509,1.05184 0.0685,2.08994 0.36645,3.09075 0.28844,1.37343 0.62991,2.83278 1.70806,3.82186 0.73689,0.98042 2.00299,1.05658 2.99634,1.61344 0.79938,0.80597 1.99351,1.03626 3.0872,0.90242 0.35329,-0.004 1.96868,-0.10607 0.95836,0.31498 -1.06724,0.0187 -1.94168,-0.7498 -2.8924,-1.13582 -0.81438,-0.61594 -1.71015,-1.11956 -2.33623,-1.94368 -0.80373,-0.90024 -1.45179,-1.93129 -2.07457,-2.96199 -0.48717,-0.9021 -0.76383,-1.91988 -0.67334,-2.95065 0.11354,-1.29243 -0.28216,-2.67111 0.34885,-3.87694 0.47197,-1.721731 1.84209,-3.001961 3.35725,-3.845831 1.05198,-0.55836 1.99421,-1.64082 3.29392,-1.46344 0.95417,0.28803 2.12295,0.0168 2.92715,0.6716 0.37055,0.61391 1.56623,1.19118 1.24092,1.94209 -0.74446,0.22388 -1.2499,-0.62579 -1.6818,-1.08216 0.13279,-0.37539 0.51406,-1.16955 -0.2804,-1.0205 -0.52259,0.33853 -0.78281,1.08143 -1.56358,1.03167 -1.03828,0.0474 -2.13318,-0.16575 -3.10807,0.3159 -0.74508,0.31335 -1.44314,0.78638 -2.2666,0.85227 -1.11007,0.32234 -1.42319,1.52511 -1.8522,2.452121 -0.57711,1.30482 -0.89084,2.75081 -0.68659,4.17408 -0.10026,1.09423 0.0814,2.23384 0.75539,3.13053 0.5273,0.8193 1.15993,1.50404 1.87349,2.13691 0.65758,0.26056 1.10528,0.8281 1.57713,1.35362 0.43127,0.5633 1.1064,0.76965 1.74728,0.94454 0.95471,0.2783 1.95765,0.009 2.93562,0.0856 0.73079,0.003 1.4616,0.009 2.19239,0.003 0.13019,0.11332 -0.002,0.53996 0.29189,0.29189"
 id="path4853"
 style="color:#000000;fill:none;stroke:#000000;stroke-width:0.30000001" />
<path
 d="m 137.99199,115.75278 c 0.91357,0.23493 1.78949,-0.44048 2.70611,-0.23744 0.95209,-0.0633 1.86964,-0.51076 2.83534,-0.36731 0.90278,-0.0483 1.64206,0.588 2.45803,0.86365 0.71286,0.30459 1.19627,1.01723 1.80963,1.49975 0.80381,1.17238 1.49436,2.50008 1.72938,3.98704 0.32295,0.81986 -0.0525,1.67398 0.30483,2.48906 0.31507,0.71992 -0.0708,1.40652 -0.21777,2.10072 -0.18991,0.99885 -0.3728,2.03707 -0.9305,2.86444 -0.65945,1.14913 -1.88676,1.51447 -2.87195,2.16056 -0.53285,0.21798 0.60785,0.0646 0.7483,0.13363 0.97873,-0.007 2.21949,-0.33992 2.57159,-1.53804 0.36492,-1.15686 0.19342,-2.417 0.46045,-3.59968 0.26916,-1.29385 0.0466,-2.62699 -0.34125,-3.85495 -0.22339,-0.89161 -0.44095,-1.81136 -1.00229,-2.51523 -0.49405,-0.71307 -0.85629,-1.51686 -1.42974,-2.16711 -0.30492,-0.5094 -0.87918,-0.72588 -1.29357,-1.1226 -0.92207,-0.77653 -2.09442,-1.23859 -3.23782,-0.94837 -0.51017,0.19411 -1.08416,0.0867 -1.54003,0.47824 -0.48637,0.3058 -0.94841,0.85185 -1.53295,0.81692 -0.37191,-0.20242 -0.80797,-1.50524 -1.15093,-0.69993 0.26023,0.48 1.20522,1.15623 0.30584,1.51691 -0.21426,0.37885 -0.91217,1.22656 -0.85802,0.21072 0.0727,-0.77879 0.29813,-2.3054 1.1743,-2.13455 0.2828,0.0709 0.66265,0.12012 0.82697,-0.22835"
 id="path4867"
 style="color:#000000;fill:none;stroke:#000000;stroke-width:0.30000001" />
<path
 d="m 149.7392,103.78532 c -0.7601,-0.0126 -1.52151,0.0293 -2.28053,-0.0278 -0.29438,0.55376 -0.91871,0.88132 -1.09031,1.5081 -0.59913,-0.003 -0.46969,0.74068 -0.43011,1.14082 0.0277,0.68181 -0.0155,1.36599 0.005,2.04879 0.51105,0.36 0.57567,1.14509 1.25349,1.32659 0.61979,0.40395 1.20171,0.87519 1.90797,1.12589 0.48713,0.28052 0.95913,0.49287 1.51067,0.60101 0.47888,0.17488 1.00853,0.32468 1.50788,0.13587 0.75615,-0.16959 1.37118,-0.67131 2.08664,-0.94133 0.3332,-0.14927 0.0577,-0.52296 0.45806,-0.57543 0.43881,-0.36728 0.3639,-0.99617 0.30948,-1.50396 0.20458,-0.68654 -0.28944,-1.2809 -0.51818,-1.88353 -0.38613,-0.57946 -0.89795,-1.10636 -1.47469,-1.49331 -0.68556,-0.29229 -1.3457,-0.62931 -1.98715,-1.00822 -0.52374,-0.18782 -1.03402,-0.51818 -1.61844,-0.44799 -0.48565,0.10845 -0.95828,0.24659 -1.45319,0.32827 -0.66216,0.12917 -0.46769,1.14371 -1.18149,1.14901 -0.31869,0.4247 -0.39208,1.02218 -0.51021,1.53456 -0.0341,0.56779 0.0562,1.14028 -0.0251,1.70495 0.29205,0.38987 0.44223,0.8096 0.74711,1.19643 0.26135,0.47946 0.72681,0.85923 1.29998,0.79395 0.49971,0.3389 1.14379,0.25281 1.73237,0.50705 0.66161,0.21089 1.36135,0.0165 2.04132,0.0596 0.56297,0.0832 1.06532,0.0675 1.5294,-0.30493 0.61589,-0.21919 1.10892,-0.62128 1.62625,-1.01089 0.41342,-0.54463 0.89517,-1.11609 0.99219,-1.82182 0.006,-0.51061 -0.11118,-1.03008 0.0219,-1.53239 -0.19297,-0.63535 -0.59517,-1.34413 -1.20242,-1.61389 -0.48777,-0.43406 -1.08494,-0.65811 -1.66224,-0.92844 -0.53109,-0.47278 -1.2331,-0.44513 -1.89105,-0.36709 -0.57793,0.0321 -1.14371,0.17056 -1.70495,0.30008 z"
 id="path4882"
 style="color:#000000;fill:none;stroke:#000000;stroke-width:0.30000001" />
<path
 d="m 153.53376,104.07721 c 0.32524,-0.49777 -0.50783,-0.93096 -0.86318,-0.56306 -0.33611,0.59669 -0.96815,-0.26523 -1.46091,-0.0619 -0.41342,0.097 -0.86363,0.0155 -1.29161,0.04 -0.37867,0.0861 -0.97779,-0.20497 -1.16527,0.20506 -0.35763,0.44867 -1.12194,0.43162 -1.32673,1.02481 -0.15337,0.56898 0.0597,1.15554 -0.0175,1.7331 -0.003,0.60082 -0.0143,1.20157 -0.0188,1.80238 0.45621,0.28696 0.53562,1.03286 1.06314,1.1189 0.30775,0.28044 0.59192,0.61105 1.00306,0.66284 0.44985,0.3994 0.98639,0.70077 1.56283,0.86464 0.50917,0.31562 1.11434,0.63815 1.72935,0.44786 0.35695,-0.0602 0.83415,0.67887 1.03954,0.12979 -0.37104,-0.12607 -0.71026,-0.32517 -0.96685,-0.6244 -0.34162,-0.3081 -0.78237,-0.46435 -1.11802,-0.77989 -0.482,-0.39115 -1.05129,-0.66314 -1.50573,-1.08496 -0.33663,-0.26233 -0.77119,-0.54234 -0.78699,-1.01695 -0.41885,-0.46704 -0.6415,-1.1146 -0.54835,-1.73891 -0.11984,-0.54579 0.0865,-1.03634 0.37799,-1.4839 0.2556,-0.44412 0.76746,-0.43803 1.14284,-0.69525 0.49684,0.23796 0.8115,-0.27913 1.25374,-0.33969 0.39675,0.0575 0.26954,0.46541 -0.0845,0.35509 -0.59715,-0.0309 -1.20563,0.37108 -1.61213,0.80262 -0.25937,0.29805 -0.56033,0.81711 -0.95996,0.67301 -0.24573,0.68508 -0.22262,1.50014 0.20846,2.10884 0.27786,0.52039 0.73117,0.93325 1.26744,1.1727 0.27958,0.18543 0.099,0.55063 0.46357,0.69249 0.36954,0.3196 0.6584,0.75488 1.19859,0.71246 0.41465,0.31113 0.91874,0.19965 1.36374,0.51028 0.51945,0.32345 1.28875,0.60985 1.81816,0.1564 0.36662,-0.0429 0.29751,-0.34137 0.26231,-0.63725 l 0.0133,-0.058"
 id="path4898"
 style="color:#000000;fill:none;stroke:#000000;stroke-width:0.30000001" />
<path
 d="m 138.35552,114.58522 c 1.88302,-0.95372 3.9435,-1.95957 6.11722,-1.53639 1.26027,0.40977 3.07321,0.10046 2.64424,-1.59037 -0.0926,-1.70594 -2.74086,-2.18643 -2.29558,-4.12242 -0.10253,-1.63217 -0.32014,-3.67043 1.16342,-4.78346 1.56638,-0.94581 3.52874,-1.10549 5.31678,-0.88139 1.3069,0.17476 2.48511,0.82831 3.54966,1.54999 1.57972,0.60299 1.83043,3.02455 3.69793,3.09166 1.51788,-0.15255 3.04862,-0.28498 4.53529,-0.64361 -1.13701,-1.52426 -0.79637,-3.57388 -0.71028,-5.34765 0.40905,-2.696261 1.9211,-5.301161 4.2501,-6.766001 0.6017,-0.29366 1.27478,-0.4233 1.94175,-0.42444"
 id="path4914"
 style="color:#000000;fill:none;stroke:#000000;stroke-width:0.30000001" />
<path
 d="m 144.97707,120.13112 c -0.53708,-0.39558 -1.19122,-0.46106 -1.80027,-0.60942 -0.48903,-0.0562 -0.90131,0.27768 -1.32116,0.49729 -0.39941,0.212 -0.7105,0.6019 -1.12999,0.76963 -0.21393,0.48383 -0.91159,0.63362 -0.81358,1.29698 -0.0591,0.57349 -0.0806,1.22655 0.28254,1.68264 0.37863,0.58805 0.54418,1.37613 1.11263,1.77992 0.53361,0.39932 1.13943,0.81374 1.80335,0.69967 0.5404,0.0561 1.10507,0.0331 1.58424,-0.28974 0.35898,-0.31708 0.65087,-0.74425 0.88325,-1.18814 0.1828,-0.49937 0.19467,-1.05429 0.35575,-1.56234 0.10709,-0.62242 0.0558,-1.26324 0.0464,-1.89205 -0.0711,-0.53911 -0.44187,-0.97882 -0.88686,-1.14052 -0.43197,-0.2969 -0.90133,-0.61525 -1.42717,-0.49723 -0.39607,0.12682 -0.82921,0.0328 -1.20771,0.21248 -0.37094,0.25307 -0.51898,0.79322 -0.92633,0.99465 -0.47597,0.3697 -0.5579,1.08003 -0.89487,1.57729 -0.24661,0.48528 -0.18807,1.07188 -0.30084,1.59569 -0.23318,0.59991 0.0692,1.28953 0.4911,1.66108 0.33696,0.41879 0.47368,1.07815 0.98872,1.27045 0.54809,0.30879 1.09227,0.64883 1.67661,0.85586 0.46897,0.0921 0.94616,-0.0503 1.41587,0.0438 0.52064,-0.036 0.91095,-0.5176 1.21399,-0.95758 0.47424,-0.83511 0.37353,-1.8766 0.37004,-2.82279 0.0333,-0.56552 0.26255,-1.11089 0.10758,-1.68065 -0.0573,-0.48665 -0.18926,-0.96919 -0.50438,-1.31944 -0.32152,-0.39101 -0.70742,-0.7235 -1.11889,-0.97755 z"
 id="path4926"
 style="color:#000000;fill:none;stroke:#000000;stroke-width:0.30000001" />
<path
 d="m 175.90155,101.88804 c 0.22945,-0.31112 -0.28679,-0.75183 -0.37115,-0.30893 -0.30171,-0.0339 -0.58399,-0.42436 -0.89126,-0.21359 -0.36688,0.26534 -0.65302,0.69982 -1.02953,0.94264 -0.22062,0.30988 -0.56928,0.32676 -0.80216,0.60849 -0.0665,0.28262 -0.32322,0.41564 -0.32539,0.74874 0.0108,0.45686 0.31282,0.76953 0.55197,1.0321 0.44737,0.4697 0.9798,0.77796 1.53522,0.90282 0.37814,0.14333 0.73518,0.43473 1.14036,0.39726 0.49664,0.0157 0.92996,-0.43332 1.22229,-0.9462 0.15885,-0.26612 0.30357,-0.5666 0.25309,-0.9315 -0.0178,-0.35772 0.007,-0.71594 -0.006,-1.07362 -0.17069,-0.41051 -0.45772,-0.70686 -0.74084,-0.96225 -0.28594,-0.18089 -0.66333,-0.13964 -0.8631,-0.52947 -0.21524,-0.34217 -0.5403,-0.45766 -0.84541,-0.55312 -0.30405,0.0277 -0.60631,0.007 -0.90909,0.0107 -0.30327,0.0704 -0.58863,0.26743 -0.83864,0.50405 -0.16016,0.34595 -0.25378,0.72813 -0.52533,0.93817 -0.16019,0.36031 -0.36709,0.77245 -0.28731,1.21552 0.083,0.53746 0.37511,0.94425 0.56233,1.41564 0.17523,0.32432 0.39432,0.64707 0.65074,0.83827 0.36529,0.17313 0.69616,0.48174 1.08376,0.56209 0.38476,0.16973 0.79313,0.0344 1.18703,0.0832 0.29798,-0.0127 0.44449,-0.39382 0.64923,-0.6221 0.28421,-0.22979 0.461,-0.62344 0.52179,-1.06353 0.0504,-0.47344 0.2361,-0.92777 0.13626,-1.41722 -0.0632,-0.47701 -0.18267,-1.00344 -0.51856,-1.24757 -0.16647,-0.15072 -0.35991,-0.22637 -0.54061,-0.33061 z"
 id="path4941"
 style="color:#000000;fill:none;stroke:#000000;stroke-width:0.30000001" />
<path
 d="m 151.34459,131.22291 c 0.14079,-0.6805 0.61909,0.14706 0.0238,-0.16642 1.88598,-2.06098 2.12402,-5.00837 2.15952,-7.6702 -0.0572,-1.23972 0.25358,-2.61389 -0.3275,-3.75356 -0.99372,-0.66553 -0.6388,-2.48822 0.7262,-1.84234 1.00803,0.75945 2.20367,0.59495 3.37011,0.7458 1.35656,0.21033 2.82063,0.53305 4.11575,-0.10563 1.48944,-0.53996 2.94507,-1.46881 3.70199,-2.89843 0.32375,-0.77582 0.3667,-2.30487 1.52588,-1.39546 1.52831,1.21116 3.55292,1.57741 5.46581,1.48146 0.47922,-0.0362 1.03246,0.0424 1.42204,-0.30347"
 id="path4955"
 style="color:#000000;fill:none;stroke:#000000;stroke-width:0.30000001" />
<path
 d="m 156.74454,119.98517 c -0.32805,-0.004 -0.65645,0.009 -0.98422,-0.01 -0.0305,0.0971 -0.11376,0.20893 -0.16782,0.19722 -0.022,0.14289 -0.17461,0.2305 -0.1534,0.35346 -0.14042,0.12147 -0.15238,0.3699 -0.19268,0.46896 -0.24948,0.14827 -0.0416,0.50117 -0.0983,0.73562 -0.005,0.19163 -0.0783,0.41919 0.063,0.57931 0.10904,0.0174 0.0772,0.22757 0.21437,0.18045 -0.0112,0.21615 0.39458,0.0598 0.34099,0.27368 0.21234,-0.007 0.32686,0.21247 0.47146,0.29145 0.13804,-0.0415 0.2472,6.7e-4 0.25143,0.13233 0.21313,0.0681 0.50892,-0.1061 0.63236,0.14473 0.21047,0.0794 0.45764,0.005 0.57639,-0.13415 0.10304,0.0175 0.2796,7.3e-4 0.23751,-0.14714 0.24435,0.0635 0.0138,-0.40458 0.2687,-0.2931 -0.0102,-0.10824 -0.0331,-0.35135 0.14266,-0.3059 -0.001,-0.10198 -0.0226,-0.36057 0.14923,-0.27788 0.004,-0.43783 0.001,-0.87567 0,-1.3135 -0.14347,0.0712 -0.17147,-0.18357 -0.28249,-0.18679 -0.0195,-0.14233 -0.19072,-0.0992 -0.20961,-0.24107 -0.10575,-0.0591 -0.1728,-0.22442 -0.34663,-0.16226 -0.0733,-0.0674 -0.0635,-0.21377 -0.20886,-0.14974 -0.23944,-0.0179 -0.4675,-0.10156 -0.70416,-0.13568 z"
 id="path4968"
 style="color:#000000;fill:none;stroke:#000000;stroke-width:0.30000001" />
<path
 d="m 155.72293,122.46623 c 0.20047,-0.0985 0.39033,-0.22 0.60124,-0.29619 0.19569,0.0356 0.3094,-0.16127 0.41671,-0.28908 0.12079,-0.14046 0.26039,-0.33598 0.47184,-0.30394 0.14822,-0.0343 0.0897,-0.31022 0.24189,-0.32939 -0.006,-0.12613 0.1767,-0.20212 0.20307,-0.0467 0.11327,-0.125 0.098,-0.35027 0.24539,-0.43315 0.003,-0.11571 0.1169,-0.23129 0.23644,-0.20401 -0.16672,-0.0157 0.15752,0.1954 -0.0504,0.15253 -0.0443,0.0567 -0.0356,0.16697 -0.11857,0.0997 -0.0619,0.0816 -0.0996,0.23145 -0.18174,0.22394 -0.0142,0.12397 -0.20159,0.12123 -0.2014,0.25229 -0.14882,0.007 -0.11044,0.18575 -0.25927,0.19555 0.004,0.1547 -0.1261,0.11365 -0.22579,0.0839 -0.0704,0.0692 -0.10592,0.17565 -0.21515,0.21921 -0.0428,0.10478 -0.17061,0.15441 -0.24121,0.26443 -0.0746,0.0969 -0.22037,0.15578 -0.27048,0.27379 -0.17932,0.071 -0.37964,0.0556 -0.56213,0.11913 -0.0301,0.006 -0.0604,0.0119 -0.0904,0.018 z"
 id="path4980"
 style="color:#000000;fill:none;stroke:#000000;stroke-width:0.30000001" />
<path
 d="m 167.3985,115.89872 c -0.43845,-0.19931 -0.92996,-0.12551 -1.39571,-0.15582 -0.13335,0.20429 -0.36841,0.32174 -0.43783,0.55907 -0.16766,0.22987 -0.39535,0.4561 -0.37679,0.76508 0.0444,0.23771 -0.0507,0.5526 0.20078,0.69536 0.12293,0.0946 0.18048,0.22285 0.35324,0.19028 0.088,0.082 0.12059,0.1968 0.27859,0.1374 0.14391,-0.0619 0.22073,0.0736 0.27813,0.1333 0.25381,-0.022 0.50827,0.0466 0.71004,0.16078 0.37379,-0.008 0.74885,-0.0206 1.12157,0.008 0.14498,-0.0533 0.27429,-0.21007 0.41923,-0.19116 0.10066,-0.16053 0.29653,-0.23408 0.36642,-0.40502 0.18781,-0.096 0.0465,-0.41155 0.0911,-0.60256 -0.0224,-0.17176 0.0442,-0.45889 -0.0374,-0.55712 -0.13671,0.0385 -0.35265,-0.11661 -0.23529,-0.2569 -0.15454,-0.0392 -0.19899,-0.25482 -0.37556,-0.17951 -0.16299,-0.15433 -0.3323,-0.37188 -0.6044,-0.31064 -0.11872,0.006 -0.23726,0.0227 -0.35615,0.01 z"
 id="path4994"
 style="color:#000000;fill:none;stroke:#000000;stroke-width:0.30000001" />
<path
 d="m 157.9121,134.72558 c -0.37417,-0.53669 -0.30062,-1.22048 -0.43716,-1.83076 0.21287,-0.53775 -0.35247,-0.90224 -0.61107,-1.29482 -0.44011,-0.70081 0.60096,-0.95582 1.11441,-0.91179 1.17449,-0.1552 2.39984,-0.0671 3.53039,-0.46391 0.53631,-0.33326 1.16331,-0.3046 1.75705,-0.43683 0.53209,-0.17764 1.05633,-0.12483 1.59424,-0.0321 0.64794,0.0199 1.29838,0.0176 1.93689,0.14535 0.59913,0.16546 1.40099,-0.16355 1.85015,0.35237 0.27093,0.53306 -0.34996,0.86915 -0.52496,1.31928 -0.30446,0.49197 -0.86569,0.66066 -1.38861,0.79951 -0.8791,0.28822 -1.75883,0.57406 -2.64973,0.82097 -0.65445,0.25271 -1.32459,0.45505 -2.00356,0.62848 -0.6443,0.22066 -1.28556,0.45883 -1.95783,0.57882 -0.58752,0.20018 -1.13714,0.75465 -1.80141,0.52401 -0.14102,-0.0563 -0.26723,-0.14341 -0.4088,-0.19856 z"
 id="path5008"
 style="color:#000000;fill:none;stroke:#000000;stroke-width:0.30000001" />
<path
 d="m 164.33366,128.30401 c 0.94055,-0.1021 1.85212,0.21201 2.7537,0.41571 0.93799,0.0429 2.01945,-0.0881 2.76713,0.60673 0.70466,0.53978 1.51906,0.0509 2.22758,-0.18271 0.58685,-0.24166 1.45588,-0.26452 1.65195,-0.98888 0.15218,-0.48463 0.26067,-1.13584 0.84384,-1.26944 0.90009,-0.36111 1.78985,-0.75358 2.6732,-1.15068 0.59833,-0.3438 0.63205,-1.33128 -0.006,-1.65209 -0.64293,-0.28713 -0.73035,-1.23266 -1.47006,-1.36706 -0.72256,0.0452 -1.37307,0.44637 -2.1065,0.44194 -0.93907,0.10697 -1.90687,0.17729 -2.77469,0.58567 -0.69411,0.26903 -1.53432,-0.66634 -2.10702,-0.008 -0.24938,0.52791 -0.16245,1.30826 -0.82655,1.54955 -0.67824,0.48454 -1.1552,1.18594 -1.68508,1.80821 -0.5637,0.39583 -0.88436,1.11071 -1.57355,1.32799 -0.12925,-0.0121 -0.25291,-0.0579 -0.36747,-0.11718 z"
 id="path5023"
 style="color:#000000;fill:none;stroke:#000000;stroke-width:0.30000001" />
<path
 d="m 170.17145,122.17434 c 2.41081,0.006 4.82167,-0.0118 7.23244,0.009 0.59109,0.52874 1.22761,1.29621 2.11494,1.13614 1.4371,0.0275 2.88221,-0.87794 3.31968,-2.27757 0.3793,-0.75693 0.83405,-1.48351 1.04321,-2.31337 0.18999,-0.8263 0.98456,-1.42821 0.98987,-2.28944 -0.085,-0.77549 -0.84701,-1.15526 -1.38778,-1.60284 -0.62494,-0.40267 -1.25904,-0.84013 -1.97235,-1.05969 -0.86452,-0.20857 -1.47094,0.48202 -2.09295,0.92548 -1.24137,0.6356 -2.67626,0.73697 -3.93635,1.33382 -0.67436,0.33242 -1.43524,0.52623 -2.0485,0.95647 -0.55595,0.65159 -0.89265,1.46272 -1.31517,2.20208 -0.3007,0.70413 -0.63811,1.38717 -0.93295,2.0927 -0.28986,0.61244 -1.16839,0.62043 -1.07942,1.43055 l -0.0806,0.0407"
 id="path5040"
 style="color:#000000;fill:none;stroke:#000000;stroke-width:0.30000001" />
<path
 d="m 173.96601,114.58522 c 1.30974,-0.17232 2.51062,-0.84783 3.84713,-0.8758 0.83622,-0.138 1.68609,-0.44929 2.30326,-1.04369 0.76259,-0.55231 1.72372,-0.16981 2.5813,-0.25167 0.64243,0.003 1.26709,-0.36562 1.89676,-0.0667 0.47108,0.18322 1.19189,0.25861 1.38937,-0.3415 0.51254,-0.8082 0.96117,-1.74644 0.82486,-2.72878 0.004,-0.63828 -0.0555,-1.2691 -0.21978,-1.88767 -0.15325,-0.54783 -0.22419,-1.14791 -0.53135,-1.63322 -0.5936,-0.68192 -1.58643,-0.50266 -2.36753,-0.35685 -0.46418,0.0772 -0.93244,0.16279 -1.40516,0.13729"
 id="path5055"
 style="color:#000000;fill:none;stroke:#000000;stroke-width:0.30000001" />
<path
 d="m 181.99296,102.90965 c 1.36215,-4.7e-4 2.7243,6.7e-4 4.08645,0 0.49678,-0.39476 0.25843,-1.05849 -0.005,-1.50742 -0.31463,-0.89175 -0.52836,-1.814331 -0.77906,-2.724051 -0.20207,-0.55583 -0.44595,-1.09419 -0.78883,-1.5792 -0.32958,-0.81639 -1.05901,-1.37238 -1.73978,-1.89057 -0.40925,-0.22289 -0.96004,-0.71802 -1.41645,-0.46331 -0.31551,0.41994 -0.52136,0.94154 -0.98151,1.2339 -0.32086,0.28337 -0.66127,0.54343 -1.00294,0.80093"
 id="path5069"
 style="color:#000000;fill:none;stroke:#000000;stroke-width:0.30000001" />
<path
 d="m 159.2256,85.396291 c 0.10856,-0.26351 0.61208,0.118422 0.2015,0.01203 -0.24735,0.490699 0.60215,0.31356 0.79938,0.183139 0.65969,0.06073 1.26624,0.369258 1.92472,0.44114 1.52235,0.32204 3.08822,0.434016 4.58611,0.867031 0.79114,0.07251 1.45583,0.534849 2.1197,0.923714 0.53867,0.258057 1.0657,0.548601 1.55538,0.885753 0.67292,0.291866 0.74411,1.141787 0.63315,1.774735 -0.14298,0.489121 0.30615,1.216539 -0.24639,1.532828 -0.88433,0.253552 -1.67709,-0.394483 -2.54361,-0.435482 -1.54305,-0.20037 -3.12879,-0.405103 -4.52006,-1.152017 -0.48453,-0.140918 -0.75883,-0.546006 -1.09425,-0.89025 -0.47845,-0.473804 -1.00194,-0.903239 -1.52764,-1.319569 -0.46389,-0.28885 -1.13107,-0.305154 -1.4391,-0.804321 -0.23269,-0.643319 -0.45916,-1.330594 -0.44889,-2.018731 z"
 id="path5083"
 style="color:#000000;fill:none;stroke:#000000;stroke-width:0.30000001" />
<path
 d="m 169.73361,88.315183 c 0.16471,0.651071 1.13766,0.196016 1.40797,0.793099 1.05053,0.537127 2.11624,1.042359 3.17086,1.570437 0.60056,0.25026 1.24588,0.367629 1.83988,0.640535 0.86344,0.39201 1.71798,0.80505 2.58373,1.192975 0.7909,-0.0594 1.27381,0.70311 1.60966,1.31024 0.29781,0.50333 0.49956,1.06632 0.5527,1.64752 0.1791,0.72602 -0.89273,0.84578 -1.33636,0.5269 -0.653,-0.34018 -1.33803,-0.60234 -2.03214,-0.84356 -0.86335,-0.36066 -1.72174,-0.7511 -2.64107,-0.9463 -0.7801,-0.26689 -1.55133,-0.57186 -2.30371,-0.90383 -0.56215,-0.37009 -1.25965,-0.47025 -1.80538,-0.8694 -0.0303,-0.265812 0.30307,-0.501051 0.12146,-0.761887"
 id="path5098"
 style="color:#000000;fill:none;stroke:#000000;stroke-width:0.30000001" />
<path
 d="m 139.37713,133.26613 c 2.93908,0.83296 5.8128,2.17487 8.90077,1.48634 3.01781,0.25006 6.15196,0.20522 9.00937,-0.90971 2.88688,2.375 6.17088,-0.68763 9.19087,-1.09096 2.3912,-0.34554 1.22855,-3.94402 3.78608,-3.05398 3.09033,-0.56287 6.22028,-2.63606 7.45509,-5.58461 0.84733,-2.21689 3.29491,0.31419 4.25973,-2.17944 1.85519,-2.21435 2.97283,-5.3793 2.0013,-8.17729 0.81742,-2.11556 3.1145,-3.42067 2.10523,-6.15729 -1.20308,-3.26134 0.68347,-6.78851 -1.30048,-9.816001 -1.71311,-3.05362 -5.13809,-4.61468 -8.09735,-6.234433 -5.7937,-1.021177 -11.02684,-4.114032 -16.83131,-5.19332 -5.0705,-1.843867 -10.35199,-3.176748 -15.76803,-3.332823 -4.87625,-0.368064 -9.8253,-0.956575 -14.69125,-0.273294 -0.42925,0.122848 -0.85036,0.274739 -1.25776,0.457602"
 id="path5112"
 style="color:#000000;fill:none;stroke:#000000;stroke-width:0.30000001" />
<path
 d="m 23.952693,89.159407 c -1.046077,0.362794 -1.844515,1.169198 -2.604894,1.939363 -0.479728,0.294775 -1.140936,0.506685 -1.289348,1.120457 -0.212514,0.371022 -0.354553,0.799592 -0.69913,1.032092 -0.134517,0.27453 -0.504242,0.24967 -0.332528,0.63114 0.124674,0.31066 -0.06928,0.58286 -0.30189,0.70839 -0.0659,0.35995 -0.187788,1.24574 0.381394,1.15217 0.278931,-0.10863 0.627849,-0.0332 0.649368,0.26321 0.586874,0.12216 1.18773,-0.0134 1.780093,0.0438 1.790002,5e-5 3.580005,2e-5 5.370007,-8e-5 -0.197265,-0.45369 0.417955,-0.33467 0.65623,-0.32812"
 id="path5124"
 style="color:#000000;fill:none;stroke:#000000;stroke-width:0.30000001" />
<path
 d="m 28.546361,98.018619 c -3.238518,-0.003 -6.477044,0.005 -9.715557,-0.004 -0.534019,2.195151 0.340637,4.405011 0.986953,6.467631 0.707604,1.26224 -0.04996,3.02791 1.104192,4.07533 1.496156,0.64058 3.249884,0.32769 4.843974,0.60998 1.750246,0.29846 3.536158,0.37828 5.278603,0.37367 1.359581,0.31301 2.808392,0.39744 4.130234,-0.0658 1.564068,0.0784 3.157265,0.0762 4.673697,-0.34138 1.714217,-0.0114 3.393436,0.61032 5.113221,0.35051 1.677354,0.19719 3.353667,0.56146 5.038923,0.36196 1.725826,-0.55771 1.459531,-2.68873 1.570366,-4.11418 -0.09622,-0.75162 -0.429272,-1.44194 -0.712513,-2.13581"
 id="path5137"
 style="color:#000000;fill:none;stroke:#000000;stroke-width:0.30000001" />
<path
 d="m 21.327741,112.45586 c 0.908013,0.32414 -0.289217,1.72286 -0.06023,0.48037 0.795213,0.13941 0.878663,1.73293 1.262524,2.48909 0.392625,1.20902 0.92751,2.36903 1.556747,3.47252 0.152441,1.28943 1.078064,2.83927 2.582075,2.44643 2.922194,-0.0902 5.844865,-0.006 8.767974,-0.029 1.531904,0.77508 3.265949,0.0665 4.883114,0.3281 1.981605,3e-5 3.96321,10e-5 5.944815,2e-5 1.431727,-0.58998 3.007994,-0.50391 4.51508,-0.71267 0.968044,-1.18915 0.376227,-2.83985 -0.150167,-4.08494 -0.761419,-1.3551 -0.28399,-2.93905 -0.424899,-4.39573 -0.555737,-1.28245 -2.248403,-0.52132 -3.295612,-0.46161 -2.091649,0.38257 -4.2187,0.60452 -6.344694,0.44941 -1.362725,0.0384 -2.744756,0.091 -4.071627,-0.27664 -1.709735,-0.29282 -3.452733,-0.4507 -5.182343,-0.33505 -1.542725,-0.25668 -3.117123,-0.56498 -4.67692,-0.26483 -1.413577,3.3e-4 -2.939093,-0.86761 -4.259055,0.009 -0.400603,0.22554 -0.756752,0.52963 -1.046782,0.88527 z"
 id="path5152"
 style="color:#000000;fill:none;stroke:#000000;stroke-width:0.30000001" />
<path
 d="m 26.249527,124.59627 c 0.773319,-0.0191 1.102988,1.89068 0.193443,0.75043 -0.401809,-1.11423 0.711033,0.0317 0.814796,0.48798 1.035428,1.10577 1.349004,2.57945 2.126921,3.82298 0.54335,1.40086 2.189773,1.61104 3.499553,1.5046 2.426187,-0.0736 4.95771,0.29368 7.276544,-0.63473 1.343016,-0.41032 2.736212,-0.82873 4.157032,-0.68516 1.278739,-0.43541 2.605523,-0.79719 3.937773,-0.99432 1.634686,-0.0844 3.318093,0.27238 4.910626,-0.2438 1.013509,0.31051 2.783061,-0.44512 1.560235,-1.58494 -1.13756,-1.18802 -2.849098,-1.50069 -4.129178,-2.4682 -0.81199,-0.48091 -1.68547,-2.63381 -0.501199,-2.66224 -0.871765,0.75078 -2.076862,1.12978 -3.212404,1.2886 -1.409869,0.24309 -2.842836,0.0139 -4.261036,0.12627 -1.141922,0.49922 -2.458738,0.20803 -3.624714,0.61337 -1.473309,0.0493 -2.963327,0.0776 -4.423708,-0.0668 -1.273663,0.35466 -2.480291,0.88752 -3.818273,0.9989 -1.486063,0.16014 -3.058195,0.15133 -4.506411,-0.2529 z"
 id="path5166"
 style="color:#000000;fill:none;stroke:#000000;stroke-width:0.30000001" />
<path
 d="m 35.436862,133.45548 c 0.437492,0 0.874984,0 1.312476,0 1.086864,-0.73797 2.48061,-0.62283 3.660774,-1.12697 2.480065,-0.66961 4.963834,-1.36642 7.528337,-1.62765 1.806359,-0.20662 3.370891,-1.22555 5.099282,-1.71674 0.892146,-0.17003 1.70782,-1.06363 2.629643,-0.66294 1.175564,0.46229 1.976904,1.52371 3.139055,2.01308 0.698975,0.81723 2.098178,0.70225 2.664609,1.45338 -0.399863,0.74421 -1.375841,0.8972 -2.006579,1.44171 -1.094871,0.55082 -2.234766,1.02094 -3.371177,1.4713 -1.864396,0.48805 -3.708516,-0.48425 -5.582054,-0.24701 -3.322884,-0.015 -6.646028,-0.0348 -9.969086,0.004 -1.124845,-0.59911 -2.497294,-0.38533 -3.611854,-1.01088 -0.497862,-0.0143 -0.99584,0.0336 -1.493426,0.009 z"
 id="path5173"
 style="color:#000000;fill:none;stroke:#000000;stroke-width:0.30000001" />
<path
 d="m 48.889744,105.23724 c -0.28489,3.42458 -1.030661,6.801 -1.132656,10.2419 -0.326559,2.39892 -0.09548,4.85299 0.781128,7.11555 0.744478,2.4182 1.603423,4.96571 3.586479,6.66127 1.778816,1.94748 3.647551,4.13306 6.380977,4.64434 1.000385,0.0788 3.384679,0.85446 3.362638,-0.44218 0.09989,-2.11661 2.550427,-2.46206 4.181912,-2.7752 1.834359,-0.0573 3.826998,-1.46404 5.533234,-0.59633 0.331747,0.81655 -2.216109,2.07292 -0.20448,2.07749 2.275819,0.15764 2.58758,-2.39079 4.247987,-3.2217 2.123999,-0.26042 4.440813,-2.36316 6.406851,-1.60969 0.462677,1.39344 1.825469,2.69983 2.944164,1.03997 1.713217,-1.47104 -1.62746,-2.82025 0.150568,-4.32439 1.325821,-0.85457 3.309706,-2.26548 1.580271,-3.84854 -0.978478,-0.3128 -2.377511,-0.5689 -1.599987,-2.00777 l 0.219192,-0.14515 0.311062,-0.013"
 id="path5188"
 style="color:#000000;fill:none;stroke:#000000;stroke-width:0.30000001" />
<path
 d="m 24.454477,88.610749 c -1.923941,1.724777 -6.551027,4.63392 -4.809533,7.16733 2.372252,1.35548 -2.507967,3.66915 -0.51302,5.851981 0.6525,2.81861 0.17906,6.38557 3.125118,7.54456 0.766432,2.60875 -2.556374,4.6009 -0.101801,7.01706 1.065959,2.51947 2.30724,4.4878 4.553365,5.6849 0.3508,3.3183 1.598926,6.52097 4.321824,8.62841 2.732472,1.01757 5.215314,1.70627 7.686028,3.43486 2.424848,0.52896 4.944752,0.55091 7.402805,1.04425 3.471809,0.30007 7.004945,1.28659 10.476569,0.60218 2.776988,-2.10969 6.257586,-1.0118 9.567737,-2.09597 3.283,0.44316 5.528344,-2.16051 8.49785,-2.70335 2.959206,-1.16133 7.359588,-0.77064 9.290885,-3.62716 2.031797,-0.88512 4.474998,-1.4243 4.003825,-4.3499 0.08167,-1.98351 -0.958886,-3.93117 -0.367538,-5.90868"
 id="path5213"
 style="color:#000000;fill:none;stroke:#000000;stroke-width:0.30000001" />
<path
 d="m 51.785952,103.95474 c -0.534637,1.89857 0.314958,4.19535 -1.137458,5.79884 -1.866343,1.13101 0.150513,3.2634 -0.210992,4.85082 -0.08849,1.87335 0.201144,3.78099 -0.27849,5.62095 -1.253001,0.96037 -0.140609,2.35349 0.989818,2.56829 0.999568,1.6293 3.129036,2.65269 3.290264,4.63878 0.0096,1.90787 1.650148,2.60383 3.270774,2.51415 1.717506,0.31572 3.106698,2.35237 4.908461,1.39783 1.972091,-0.57054 4.029528,-0.85413 6.07811,-0.68712 2.052428,-0.12755 4.091941,-0.93069 6.156996,-0.47824 1.441193,-1.60204 3.73424,-1.66326 5.59763,-2.4778 1.451766,-1.67926 1.192625,-4.05953 1.413667,-6.11828 0.04845,-1.42564 -0.09969,-2.88127 -0.66947,-4.20228"
 id="path5226"
 style="color:#000000;fill:none;stroke:#000000;stroke-width:0.30000001" />
<path
 d="m 50.507287,116.74139 c 0.905721,-3.1e-4 1.811443,4.4e-4 2.717164,0 -0.07241,-0.35336 0.518463,0.0359 0.488004,-0.30124 0.188753,-0.0124 0.147127,-0.18597 0.298555,-0.22829 0.04448,-0.25876 0.357669,0.0411 0.380092,-0.25682 0.147335,-0.004 0.09814,-0.22341 0.276857,-0.2161 -0.06514,-0.15088 0.327412,-0.13912 0.131593,-0.3158 -0.02892,-0.14561 0.255956,-0.11217 0.202775,-0.26918 0.339469,-0.013 -0.05359,-0.50244 0.276912,-0.56523 0.05164,-0.22154 0.04547,-0.50052 -0.0074,-0.70945 -0.11618,-0.0453 -0.341485,-0.0291 -0.162906,0.001 -0.151931,0.12263 -0.110012,0.2634 -0.137548,0.42021 -0.129204,0.0772 -0.153202,0.0907 -0.148538,0.2503 -0.05815,0.24075 -0.442303,0.26394 -0.314009,0.54353 -0.09952,0.12023 -0.372383,-0.035 -0.369152,0.19344 -0.17218,0.11373 -0.390197,0.17071 -0.557284,0.25463 -0.02146,0.13808 -0.07288,0.30449 -0.215962,0.26732 -0.126135,0.10445 -0.311285,0.18142 -0.39634,0.28946 -0.101809,-0.0122 -0.316089,0.0145 -0.225184,0.16242 -0.162119,-0.0485 -0.350773,0.0382 -0.375707,0.15073 -0.11023,0.0306 -0.181084,0.20272 -0.250289,0.23342 -0.04769,0.18396 -0.383921,0.008 -0.378474,0.25659 -0.141043,0.0456 -0.492434,-0.11289 -0.434028,0.15843 -0.284087,-0.0573 -0.532885,-0.21334 -0.799175,-0.31967 z"
 id="path5239"
 style="color:#000000;fill:none;stroke:#000000;stroke-width:0.30000001" />
<path
 d="m 52.585121,124.41335 c -0.701266,0.0107 -0.447974,-1.10665 0.115978,-1.15381 0.63835,-0.27763 1.192606,-0.75305 1.893357,-0.87814 0.927006,-0.28577 1.840822,-0.66 2.800668,-0.8085 0.635111,0.0382 1.277438,0.2303 1.764501,0.65137 0.698333,0.41492 1.21551,1.09336 1.535203,1.83067 0.468408,0.76818 0.505388,1.6786 0.678387,2.53739 0.02419,0.70077 -0.03011,1.40454 0.03434,2.10315 -0.06655,0.63757 -0.495487,1.16124 -0.916161,1.61304 -0.171939,0.12242 -0.409361,0.3106 -0.07031,0.12264 0.692115,-0.32028 1.283216,-0.8691 1.666816,-1.52512 0.20449,-0.54534 0.04356,-1.1353 0.09015,-1.70169 0.0079,-1.57058 -0.75923,-3.03175 -1.696341,-4.24764 -0.749216,-0.42912 -1.43926,-1.12726 -2.364993,-1.09176 -0.751148,-0.0228 -1.506572,-0.0158 -2.25562,0.0214 -0.679607,0.10998 -1.333771,0.36965 -1.907187,0.7501 -0.469868,0.4996 -0.665175,1.22909 -0.560597,1.89912 -0.126216,0.51989 0.0823,1.18505 0.735268,0.912 0.464025,-0.40514 -0.602375,-0.79364 -0.08941,-1.27156 0.359906,-0.3845 0.711628,-0.86624 1.261681,-0.97317 0.648187,-0.11486 1.298654,-0.29668 1.961045,-0.24547 0.521773,0.002 0.910472,0.41679 1.381591,0.57978 0.368462,0.33394 0.767889,0.66096 0.953673,1.134 0.302596,0.51071 0.203091,1.1194 0.162182,1.68088 -0.112047,0.55891 -0.507405,1.02021 -0.786853,1.51592 -0.192138,0.23077 -0.272632,0.61952 -0.697104,0.58122 -0.178088,0.10067 -0.859812,0.24338 -0.755085,0.27139 0.522351,0.0637 1.092413,0.0351 1.385416,-0.48611 0.447879,-0.2539 0.334927,-0.77329 0.571405,-1.12922 0.278384,-0.17841 0.05506,-0.75524 0.161669,-1.10349 0.0444,-0.48508 -0.176098,-0.9499 -0.474556,-1.31618 -0.377071,-0.30675 -0.742676,-0.63463 -1.194698,-0.82896 -0.46562,-0.30507 -0.995242,-0.53069 -1.558887,-0.58316 -0.612102,-0.12087 -0.972618,0.41626 -1.235509,0.87114 -0.04483,0.55444 -0.621957,0.65873 -0.897397,1.05587 -0.188019,0.23688 -0.343917,0.54057 -0.622518,0.24433 -0.430524,-0.19646 -0.161833,0.28506 0.03592,0.36928 0.119108,0.4025 0.02847,0.38817 0.49227,0.35689"
 id="path5251"
 style="color:#000000;fill:none;stroke:#000000;stroke-width:0.30000001" />
<path
 d="m 63.293942,117.86022 c 0.337006,1.30592 0.486754,2.8204 1.565844,3.76138 1.08868,0.83465 2.540643,0.57495 3.801765,0.45112 2.452472,-0.3271 4.931787,-0.3736 7.384226,-0.7054 1.180116,-0.28719 1.790911,-1.78539 1.231622,-2.84298 -0.426314,-0.58813 0.267354,-1.84524 0.842513,-0.97063 0.295999,0.64896 0.440988,1.36385 0.611696,2.05427 0.111023,0.71263 0.09038,1.43803 0.03148,2.15446 -0.322198,0.85782 -1.376022,0.97935 -2.166903,1.0766 -0.980935,0.12062 -1.951823,0.38206 -2.948076,0.30436 -1.026339,0.0912 -1.970845,0.61623 -3.015779,0.59573 -1.718039,0.10528 -3.478453,0.045 -5.134618,-0.45826 -0.729605,-0.33158 -1.510284,-0.58003 -2.193415,-0.99769 -0.885977,-0.75913 -0.87954,-2.03492 -1.38399,-3.0152 -0.303554,-0.531 -0.763032,-1.87614 0.297089,-1.76066 0.386406,0.0348 0.700939,0.28318 1.076549,0.3529 z"
 id="path5267"
 style="color:#000000;fill:none;stroke:#000000;stroke-width:0.30000001" />
<path
 d="m 93.981913,53.767114 c -3.221221,2.701543 3.986811,9.449522 -2.218351,7.902902 -3.724127,-0.621025 -5.778461,2.824283 -6.143455,5.327231 -5.677067,1.772262 -11.73196,1.469147 -17.598758,2.032977 -5.303377,0.200742 -10.610693,0.01669 -15.91573,0.08088 -0.421864,3.058575 1.582828,9.947569 -3.714343,7.827088 -5.33476,-0.0051 -10.062409,-2.26673 -15.013258,-3.780091 -4.878109,-0.900608 -9.986541,-2.417556 -14.744478,-0.219161 -1.096847,3.952224 3.631372,8.158993 4.979799,12.11465 2.357627,4.624145 3.542802,9.751679 5.932554,14.376299 2.355833,3.412151 2.827552,11.089191 8.271884,10.073511 4.108306,-2.7715 8.940678,-2.35964 13.379986,-4.05285 2.038617,-0.69479 6.098042,-4.56615 2.862372,-0.60555 -2.118476,3.09236 2.619588,6.03072 1.674832,9.70715 1.044377,5.18719 7.569161,0.33138 11.193013,1.56263 6.289488,-0.27424 12.55419,0.13726 18.797702,0.8858 8.102771,0.78976 16.264458,0.74559 24.385038,1.30293 1.3548,-0.0182 2.7188,-0.17763 4.01017,-0.60312"
 id="path5294"
 style="color:#000000;fill:none;stroke:#000000;stroke-width:0.30000001" />
<path
 d="m 157.59552,85.414085 c -2.0978,-5.485438 1.1561,-11.658613 -1.5868,-16.979622 -5.39518,-1.387376 -11.13159,-0.194367 -16.46584,-1.97652 -5.35688,-0.511047 -10.76986,-0.02414 -16.10846,-0.783705 -4.22833,2.080092 -6.25997,-3.20852 -6.05221,-5.857749 -3.48892,-0.956333 -10.87159,-1.957525 -7.13926,-7.195432 4.09401,-3.880165 10.57545,-1.639423 15.57107,-3.673757 5.09177,-1.109104 10.22586,-2.480767 14.85945,-4.656874 4.42284,-3.4413 2.25466,-9.287021 4.13055,-13.826072 1.23343,-4.16158 2.96363,-8.151731 4.7273,-12.110362 0.21687,-2.322077 4.47808,-6.96319 -0.78701,-5.838698 -18.40635,-0.670109 -37.05366,-1.694563 -55.214875,2.116931 -9.823434,1.961061 -20.004276,1.43803 -29.719886,3.987695 -6.331595,-0.757656 -6.548388,7.453198 -4.22968,11.397449 1.280052,6.981149 2.623577,13.989147 3.640061,20.980903 1.691509,6.582731 9.321115,5.054514 14.421668,5.314713 5.419415,0.04345 10.863756,0.470885 16.020649,-1.586872"
 id="path5305"
 style="color:#000000;fill:none;stroke:#000000;stroke-width:0.30000001" />
</g>
<g
 transform="translate(128.33779,-21.629279)"
 id="g4073">
<path
 d="m -117.48249,185.68236 -7.7424,-58.90956 18.1778,-9.76215 51.840416,-2.01976 6.732521,58.23631 -13.128416,12.11854 z"
 id="path4071"
 style="fill:#ffffff;fill-opacity:1;stroke:none" />
<path
 d="m -124.8316,126.23401 c 2.49495,7.94193 -0.28987,16.39032 2.22296,24.32968 0.0622,4.13253 -0.68494,8.51758 1.45064,12.34117 0.83364,4.21419 0.49832,8.69085 2.56838,12.63528 1.06866,4.31184 -0.7155,9.06405 1.73356,13.10398 -0.74745,-4.46743 -2.70468,-8.66481 -3.60341,-13.10113 0.75248,-7.77164 -2.20498,-15.46394 -0.96907,-23.22827 -0.40146,-4.45656 -1.58339,-8.85292 -1.41313,-13.34576 -0.42668,-4.17923 -1.47868,-8.27222 -2.43261,-12.36834 4.55587,0.67658 8.76926,4.00761 13.55913,2.65231 6.35244,-0.20017 12.889406,0.71513 19.064496,-1.09087 9.6351,0.49329 18.78323,-3.98892 28.44378,-2.86439 4.35633,2.4418 0.71488,7.46621 1.61915,11.09748 -0.1323,5.68315 -0.0855,11.42173 1.47733,16.95909 1.65409,9.14214 0.76749,18.4937 -0.62001,27.59745 0.29807,2.84195 4.14584,8.26471 -1.61381,8.0925 -3.47186,-0.47386 -6.96055,-0.44238 -10.43652,-0.88564 -3.51601,-0.38951 -7.06239,-0.78642 -10.60842,-0.53989 -5.05922,-2.51568 -11.19279,0.54326 -16.216366,-2.08938 -5.52402,0.12124 -11.04991,0.0645 -16.57487,0.0767 17.488656,-9.5e-4 34.977296,0.001 52.465946,0 0.29305,-8.3962 4.70153,-16.10073 5.29823,-24.46248 1.46814,-8.35842 2.24825,-17.10822 -0.53096,-25.31855 -0.8288,-3.30474 -1.75291,-6.65928 -3.67423,-9.59101"
 id="path3958"
 style="fill:none;stroke:#000000;stroke-width:0.30000001;stroke-linecap:butt;stroke-linejoin:miter;stroke-miterlimit:4;stroke-opacity:1;stroke-dasharray:none" />
<path
 d="m -60.648234,187.97168 c 2.12068,0.4448 5.83679,-5.1693 7.8237,-8.07493 1.33574,-1.30189 4.11063,-4.9661 3.73494,-5.34374 -3.12468,4.19318 -7.74458,7.09849 -11.87713,10.36838 1.21269,3.02641 3.86433,-3.367 6.1756,-3.22232 2.97907,-2.01992 8.40674,-4.9506 8.3258,-8.27209 -4.80272,-0.25142 -4.21515,-5.82113 -4.90918,-9.01993 -0.12659,-5.60899 -0.0973,-11.22636 -0.0152,-16.8357 0.66028,-7.18905 0.38603,-14.45473 -1.3692,-21.50456 -0.69854,-3.45767 -1.47654,-7.03207 -0.34372,-10.48648 -1.98078,4.20241 -6.86074,6.12614 -10.42761,8.97338 -4.4227,0.64321 1.71744,-5.66036 3.29975,-6.90091 1.53348,-1.20228 3.80437,-3.02227 5.71965,-2.74372 -9.19323,1.63991 -18.52445,2.77688 -27.90665,2.80455 -6.63935,0.0576 -13.29396,0.20669 -19.880876,-0.70501 -4.39698,-0.56845 -8.80115,0.47437 -12.55186,2.6046 -3.24499,1.8626 -8.33604,3.40356 -10.30766,5.80175 5.75798,-0.60455 10.67604,-3.86748 16.04896,-5.65402 3.61768,-1.48932 7.49707,-2.22502 11.455906,-2.0964 9.64102,-0.55868 19.30022,-0.20764 28.95223,-0.29774 4.64567,-0.9834 9.62235,-1.98623 14.13045,-2.66356 0.77378,0.52278 0.76519,1.56537 0.44074,2.31053"
 id="path3967"
 style="fill:none;stroke:#000000;stroke-width:0.30000001;stroke-linecap:butt;stroke-linejoin:miter;stroke-miterlimit:4;stroke-opacity:1;stroke-dasharray:none" />
<path
 d="m -125.74182,127.49057 c 2.38492,3.21899 0.38829,7.81781 2.55222,11.34147 1.08703,5.18521 0.95034,10.5069 1.89804,15.70614 0.83183,7.58431 -0.6893,15.28151 1.02756,22.78403 -0.69889,4.76183 2.44205,9.24397 7.67922,7.98396 7.89427,-0.35362 15.828736,-0.23768 23.702236,0.43535 5.11078,-0.0501 10.24637,0.0771 15.33426,0.20928 4.35926,-1.0242 9.18422,-0.4543 13.2723,-2.21949 4.12081,-2.41709 7.66104,-5.81184 10.57188,-9.56609 2.28412,-4.4296 -0.20207,-9.33371 -0.40408,-13.94487 -1.12419,-7.27923 -1.70546,-14.6295 -1.7565,-21.98831 -0.44499,-6.24004 -1.1545,-12.49228 -2.74662,-18.55537 0.64804,-5.52537 -5.64658,-6.86506 -9.76115,-5.52226 -7.04355,0.13272 -14.16795,-0.68065 -21.11379,0.88652 -7.80307,0.92763 -16.072116,-1.21697 -23.538926,1.84804 -4.0943,1.87594 -7.64824,4.68715 -11.49632,6.98905 -1.0679,2.8516 -7.01498,-1.5569 -5.17968,2.99467 4.09149,1.26255 5.52402,-4.67794 9.34719,-5.27175 5.04202,-2.91287 10.84793,-4.66029 16.709026,-4.03398 7.77603,0.0298 15.59614,0.14216 23.34541,-0.109 5.48341,-1.23243 11.39343,0.38214 16.64376,-2.0634 5.59296,-1.50207 6.96649,5.64862 7.14753,9.71795 1.14483,6.5944 2.48767,13.23904 1.90073,19.96913 -0.56616,4.88852 1.10562,9.50456 2.0875,14.20317 1.12226,5.64293 2.517327,11.81092 0.22674,17.34266 -2.0913,3.61967 -6.49308,4.72498 -10.0557,6.39356 -3.89278,1.26378 -7.13336,4.13936 -11.31836,4.47329 -9.31833,0.96513 -18.71764,0.39078 -28.07074,0.59877 -3.850256,0.13944 -7.641946,-0.25071 -11.446026,-0.67841 -3.40363,-0.10634 -6.91522,0.40865 -10.21338,-0.68441 0.10634,-0.28378 0.4107,-0.29475 0.64579,-0.40683"
 id="path3973"
 style="fill:none;stroke:#000000;stroke-width:0.30000001;stroke-linecap:butt;stroke-linejoin:miter;stroke-miterlimit:4;stroke-opacity:1;stroke-dasharray:none" />
<path
 d="m -112.92669,129.8206 c -0.63779,4.05832 -4.30146,7.13468 -4.11852,11.39482 -0.78808,4.75209 -3.42526,8.94835 -4.32321,13.67123 -2.55274,2.49734 1.00676,5.70329 0.36323,8.61006 0.38494,3.0496 -1.22252,6.51377 0.98194,9.15385 0.42664,2.24733 -1.81395,1.74851 -1.2161,-0.17964 0.17081,-4.07956 2.42415,-7.65153 4.05535,-11.2742 2.21559,-3.60234 4.68087,-7.23017 5.25794,-11.52489 0.72217,-3.51701 2.11334,-6.87811 4.24741,-9.77383 1.64177,-2.64612 3.21748,-5.49537 3.46488,-8.66178 1.48211,-2.77197 5.124906,-3.54048 6.393836,-6.47975 3.13069,-3.03477 7.4727,-4.27836 10.85082,-6.97006 0.29556,-2.00016 -3.28078,-0.17178 -4.50117,-0.74236 -3.16117,-0.0158 -6.43795,1.02527 -8.46153,3.5682 -2.522946,2.12372 -5.002566,4.32118 -7.664276,6.26629 -2.24416,1.8502 -6.83683,1.60804 -6.4069,5.55057 0.23288,2.84615 -2.38137,4.49356 -3.29688,6.96491 -1.43717,2.59149 -2.03823,5.50139 -2.71034,8.34872 -1.28299,3.5549 -4.12173,6.84866 -3.36277,10.87018 -0.18197,2.93847 -0.50692,6.23551 1.77603,8.51223 2.37819,2.68904 3.30188,-2.24344 4.49728,-3.6716 2.03634,-3.81696 3.22144,-8.0168 4.95034,-11.9516 1.76095,-2.36172 3.58828,-4.67385 5.24314,-7.11872 1.76741,-2.07256 3.0189,-4.51264 3.6045,-7.17637 0.49292,-2.10998 1.20918,-4.16718 1.48548,-6.30595 1.13694,-2.85248 4.272806,-3.98803 6.389856,-5.98427 2.58573,-2.06842 5.36114,-3.89755 8.30736,-5.40658 2.55603,-2.03266 -1.17729,-4.00065 -3.16153,-3.09272 -2.50027,-0.0362 -5.00072,0.0696 -7.50081,0.006"
 id="path3980"
 style="fill:none;stroke:#000000;stroke-width:0.30000001;stroke-linecap:butt;stroke-linejoin:miter;stroke-miterlimit:4;stroke-opacity:1;stroke-dasharray:none" />
<path
 d="m -90.208974,128.65558 c -0.002,4.85421 0.002,9.70843 0,14.56264 -1.69384,3.41663 0.40769,7.30629 -0.9215,10.81691 -1.04091,7.66532 -1.35221,15.42328 -2.87738,23.01899 -0.21679,2.89038 -0.4829,5.79578 -0.30161,8.68145 1.00034,3.46758 5.39066,0.85688 7.95541,1.88332 3.54909,-0.0445 1.68476,-4.96914 2.71057,-7.27977 -0.27739,-4.20103 -0.11756,-8.43667 -0.15825,-12.6555 1.74008,-3.55855 1.59829,-7.63499 2.3265,-11.44832 0.19651,-4.21703 -0.48613,-8.4817 0.46547,-12.64828 0.20282,-4.65095 0.71295,-9.27603 1.20805,-13.902 -0.18257,-3.72666 4.18098,-4.34264 4.62694,-7.80154 0.7182,-2.97986 3.45993,-4.34486 5.49673,-5.97305 -1.23624,-1.62041 -4.19538,-0.30547 -6.14456,-0.33847 -2.18969,0.59969 -5.10486,0.72507 -6.36931,2.78112 -1.6752,2.78329 -3.13888,5.71107 -4.78794,8.48626 -1.69539,1.45883 -4.04858,2.21148 -2.83618,4.96365 0.80504,3.65653 -0.21965,7.21268 -0.845,10.78573 -0.32296,4.79177 -0.7543,9.57643 -1.38951,14.34054 0.86408,4.17475 -1.38082,8.06993 -1.97716,12.11742 -1.01584,5.08466 -1.54532,10.28157 -1.75576,15.45349 0.992,2.81918 4.60875,1.94574 6.93734,2.46845 1.76859,0.79483 4.55266,1.29533 4.00373,-1.66449 0.0154,-2.70967 0.81954,-5.30097 0.44416,-8.05242 -0.16073,-2.70175 0.13322,-5.4519 1.05866,-7.97807 0.0772,-3.53569 0.23105,-7.10499 1.10852,-10.54052 0.35545,-6.27757 1.52678,-12.47449 1.99325,-18.73655 0.22084,-3.2482 0.65296,-6.47712 0.52744,-9.7986 1.49531,-3.4219 4.49592,-6.22164 5.67059,-9.96316 0.1282,-1.98777 4.14143,-3.57322 3.04262,-4.86038 -3.38837,-0.20821 -7.12224,-0.52793 -10.22079,1.08903 -3.61708,2.5579 -5.72136,6.60061 -8.11448,10.21386 -0.34679,0.6332 -0.64963,1.29222 -0.87655,1.97826 z"
 id="path3989"
 style="fill:none;stroke:#000000;stroke-width:0.30000001;stroke-linecap:butt;stroke-linejoin:miter;stroke-miterlimit:4;stroke-opacity:1;stroke-dasharray:none" />
<path
 d="m -103.0241,133.31563 c 1.3734,-0.68894 1.93387,1.99866 0.56634,2.22895 0.83784,1.60354 0.80865,3.49113 1.58078,5.12533 0.81533,1.96452 1.051436,4.18575 2.383216,5.91074 0.51523,1.45807 0.81617,3.02375 1.66798,4.32961 0.16623,1.20815 0.38116,2.3997 1.18447,3.30759 0.48171,1.47812 0.53212,3.14627 1.54061,4.40049 0.83471,1.26077 -0.016,2.72428 0.78005,3.9786 0.49933,1.1886 -1.18813,1.14884 -1.22983,0.063 -0.29919,-1.40904 -0.89547,-2.68393 -1.69683,-3.87467 -0.84567,-1.46622 -1.48738,-3.081 -1.61468,-4.77944 -0.41232,-1.73836 -0.91135,-3.45648 -1.27913,-5.19997 -0.55408,-1.52975 -0.38462,-3.13122 -1.000736,-4.64682 -0.25612,-1.56842 -0.67812,-3.0857 -1.49922,-4.45932 -0.20712,-1.5342 -1.36879,-2.75876 -1.46162,-4.31442 0.0721,-0.68518 0.17078,-1.37986 0.0786,-2.06967 z"
 id="path3996"
 style="fill:none;stroke:#000000;stroke-width:0.30000001;stroke-linecap:butt;stroke-linejoin:miter;stroke-miterlimit:4;stroke-opacity:1;stroke-dasharray:none" />
<path
 d="m -98.364064,126.32556 c 1.12479,-0.0214 2.25272,0.0522 3.37482,-0.0556 -1.00365,0.43627 -1.9404,-0.69223 -2.94644,-0.28267 -0.67532,0.76124 0.45221,1.66101 1.23045,1.54484 0.83316,0.005 1.44549,0.80128 1.30597,1.60315 -0.28983,0.81873 0.15378,1.58511 0.42145,2.33963 0.22063,0.86128 0.57437,1.66845 0.84731,2.51399 0.32833,1.0242 0.54869,2.10758 1.15031,3.01512 0.41535,0.92083 0.54938,1.93395 0.93691,2.86649 0.2559,0.85687 0.85149,1.6324 0.67802,2.57501 0.19028,0.58608 -0.25544,1.23061 -0.80291,0.66816 -0.96152,-0.82047 -1.15269,-2.19831 -0.86215,-3.3723 0.11649,-0.93204 -1.02524,-1.63683 -0.62909,-2.58265 0.2765,-1.02903 -0.77584,-1.81319 -0.66746,-2.83678 0.002,-0.92491 0.12999,-1.84944 0.0242,-2.77302 0.002,-0.86684 0.19494,-1.88482 -0.46101,-2.58127 -0.24229,-1.13401 -1.71024,-0.57535 -1.68905,0.39359 -0.32295,1.02695 -1.781,0.96327 -1.83778,-0.17286 -0.0129,-0.87134 -0.39711,-1.89901 0.0999,-2.67829 0.75252,-0.72977 1.60369,0.12022 2.16737,0.63586 0.89979,0.74422 1.53607,1.83775 1.7238,2.99052 -0.11322,1.07775 0.76632,1.96024 0.67488,3.03213 -0.28777,1.02552 -0.1569,2.19615 0.47118,3.07535 0.20475,1.03533 -0.0887,2.08496 0.0199,3.12585 -0.45292,0.97755 0.89574,1.70334 0.56865,2.68241 -0.18421,1.01904 0.32528,1.99433 0.80516,2.85497 0.0588,0.12937 0.79909,0.61253 0.38673,0.64056"
 id="path4007"
 style="fill:none;stroke:#000000;stroke-width:0.30000001;stroke-linecap:butt;stroke-linejoin:miter;stroke-miterlimit:4;stroke-opacity:1;stroke-dasharray:none" />
<path
 d="m -84.383914,176.42106 c 1.61503,-1.1366 2.61893,1.76864 1.23002,2.48021 0.274,0.80183 1.43163,1.30303 1.27455,2.14499 1.49929,0.93331 0.84013,3.04274 1.78993,4.36233 0.74373,1.01411 -0.25572,3.06252 1.25132,3.37181 1.20006,-0.22629 2.39402,-0.13255 3.60804,-0.11555 1.45585,-0.0252 2.91928,-0.0638 4.36673,0.0957 1.14049,0.0218 2.51104,-1.52027 1.31807,-2.41318 -0.0295,1.0549 0.86468,-0.91975 -0.22555,-0.74311 -1.46384,-0.0192 -1.00302,-1.71687 -1.66769,-2.56633 -0.85427,-1.36017 -1.80762,-2.66444 -2.41253,-4.16722 -0.6416,-1.5125 -1.62586,-2.87349 -1.97732,-4.50143 -0.60163,-1.41907 -1.18929,-2.83702 -1.62403,-4.32592 -0.85108,-1.89087 -0.88312,-4.06962 -1.96848,-5.87 -0.5104,-1.18764 -0.68467,-2.52094 -1.5036,-3.55853 -0.0929,-0.60096 -1.30256,-1.82578 -0.65854,-2.00772 0.70011,0.84194 1.13189,1.90494 1.59225,2.89218 0.66471,1.18931 1.72638,2.14786 2.1608,3.46123 1.76847,2.48233 2.5391,5.46795 3.27734,8.37716 0.39886,1.44556 1.16383,2.83009 1.23633,4.3414 -0.20407,1.50312 0.0283,3.03839 0.50586,4.4692 -0.11089,1.62936 0.7429,3.12754 1.02557,4.66815 -0.82072,1.08115 -2.46461,0.65746 -3.64998,0.64957 -2.18555,-0.14657 -4.39787,0.28356 -6.56279,-0.13977 0.0673,-1.56034 -1.10117,-2.82712 -1.20592,-4.35477 -0.54986,-0.74769 -0.87269,-2.76041 -1.51413,-2.73399 1.41584,-0.59826 1.40599,1.95366 1.99927,2.93817 0.69404,0.92727 0.63873,2.0757 0.71982,3.17058 -0.18149,1.05744 1.34202,0.94005 1.1089,1.72488"
 id="path4017"
 style="fill:none;stroke:#000000;stroke-width:0.30000001;stroke-linecap:butt;stroke-linejoin:miter;stroke-miterlimit:4;stroke-opacity:1;stroke-dasharray:none" />
<path
 d="m -110.01417,128.07308 c -0.61602,-0.12437 -1.78459,0.80619 -1.98721,-0.0896 0.55029,-0.5277 1.39627,0.51277 1.93778,-0.1103 0.47488,-0.56246 0.25857,-1.80766 -0.60546,-1.80392 -0.82229,0.0303 -1.22235,0.8829 -1.89853,1.22768 -0.6578,0.66157 -0.91155,-0.35934 -1.48722,-0.45687 -0.70342,-0.28743 -1.61673,-0.50796 -2.06823,-1.16926 -0.51749,-0.58133 -1.51579,-0.47641 -1.86038,-1.24878 -0.4772,-0.46519 -1.1722,-0.55282 -1.71878,-0.90471 -0.66626,0.11331 -1.07885,-0.80475 -0.16255,-0.7309 0.93769,-0.26216 1.68751,-0.9366 2.60654,-1.2465 0.65415,-0.40371 1.11847,-1.11419 1.90238,-1.28003 0.68966,-0.47306 1.53946,-0.4039 2.31913,-0.30968 0.73305,-0.0165 1.4706,-0.12135 2.20114,-0.011 0.27484,0.92828 1.4884,0.23259 1.99989,0.85786 0.71617,0.32232 1.56583,0.5931 1.94675,1.34219 0.76506,0.0314 1.19047,0.70609 1.71478,1.12424 0.49811,0.0963 0.65985,0.62402 0.0387,0.69947 -0.84579,0.32444 -1.66963,-0.12997 -2.39728,-0.50808 -0.65979,-0.2588 -1.3045,-0.55812 -1.91884,-0.91214 -0.83406,-0.15977 -1.36765,-1.10608 -2.30583,-0.90262 -0.82272,-0.24882 -1.51885,-0.79031 -2.30187,-1.13428 -0.61852,-0.23441 -1.1042,-0.71394 -1.80274,-0.60614 -0.69914,-0.05 -1.53727,-0.0425 -2.00984,0.56578 -0.57538,0.67784 -1.62026,0.36206 -2.17231,0.99496 -0.36539,0.16397 -0.5056,0.93896 -0.8193,0.80811 0.45908,0.24394 0.85133,0.85696 1.51117,0.56351 0.85592,-0.18156 0.99494,1.27885 1.90265,1.22546 0.73059,0.24714 1.35105,0.71597 2.0385,1.03707 0.90603,0.12831 1.22246,1.07489 2.0427,1.31683 0.86386,0.29252 1.32162,1.16818 2.29929,1.23995 0.37059,0.0966 0.71159,0.26105 1.05499,0.42169 z"
 id="path4026"
 style="fill:none;stroke:#000000;stroke-width:0.30000001;stroke-linecap:butt;stroke-linejoin:miter;stroke-miterlimit:4;stroke-opacity:1;stroke-dasharray:none" />
<path
 d="m -80.225094,138.77492 c 0.49456,-1.06772 1.84648,-1.34404 2.55817,-2.21934 0.85777,-0.46858 1.50166,-1.19041 2.06185,-1.95084 0.24714,-1.12656 1.17448,-2.57232 2.35969,-1.42193 0.79674,0.73576 1.60115,1.61356 2.28924,2.30401 0.41252,0.24046 1.17024,1.17852 1.89682,1.71847 0.76384,0.91934 1.8419,1.55824 2.47317,2.60673 -0.73354,0.78241 -1.9666,0.5975 -2.93714,0.75206 -1.42515,0.56204 -0.61665,2.37968 -0.49813,3.48793 0.0619,1.81835 -0.0188,3.64067 0.0105,5.4609 0.46304,1.20707 0.25959,2.59121 0.4826,3.82136 0.24455,1.0818 0.1554,2.7963 -1.40793,2.47804 -1.18525,-0.0999 -2.39521,0.13456 -3.56058,-0.12257 -1.4425,-0.0366 -1.65979,-1.44276 -1.91895,-2.59332 -0.53535,-1.30703 -0.97729,-2.67933 -0.9498,-4.11297 -0.0245,-0.86383 -0.32039,-1.71443 -0.25227,-2.59555 0.0309,-1.06371 -0.0902,-2.14456 0.27987,-3.16726 0.10681,-0.7725 1.01701,-2.35221 -0.42978,-2.12258 -0.4369,-0.009 -1.63818,0.10191 -1.59059,0.0461 0.69796,0.19357 1.76369,-0.33339 2.20725,-0.0666 0.0756,1.0019 0.2142,2.00267 0.28382,2.99529 0.0739,1.21548 0.45226,2.40818 0.30987,3.63527 -0.0105,2.37852 0.005,4.75706 5.3e-4,7.1356 1.07106,0.52843 2.27014,-0.39411 3.36062,-0.22955 1.05552,-0.43483 2.25612,0.16015 3.27123,-0.23446 0.47688,-0.92411 0.0373,-2.05225 0.176,-3.06634 -7.4e-4,-1.03683 -0.001,-2.07367 -1.3e-4,-3.1105 0.5458,-1.16736 0.29967,-2.51005 0.61814,-3.73755 0.42418,-1.18699 0.39413,-2.61493 -0.96453,-3.03126 -0.28098,-0.57724 1.12898,-0.54256 1.51042,-0.87972 0.92604,-0.17609 1.96812,-0.55203 2.85057,-0.45686 -1.02113,0.14425 -1.69021,-1.0484 -1.99707,-1.82188 -0.63358,-0.84252 -1.39165,-1.55986 -2.04442,-2.37077 -0.70798,-0.70893 -1.25393,-1.28445 -2.14678,-1.77919 -0.75414,-0.48031 -1.54552,-0.90011 -2.31179,-1.36649 -1.02856,1.52666 -2.12924,3.00397 -3.27475,4.44404 -0.76948,0.71628 -1.89778,0.90652 -2.7154,1.57181 z"
 id="path4043"
 style="fill:none;stroke:#000000;stroke-width:0.30000001;stroke-linecap:butt;stroke-linejoin:miter;stroke-miterlimit:4;stroke-opacity:1;stroke-dasharray:none" />
</g>
<g
 transform="translate(187.54396,155.10462)"
 id="g4179">
<path
 d="m -130.09945,-14.336145 8.55918,26.818746 2.28244,23.965688 51.355048,0 7.988562,-13.124068 3.42367,-10.84162 -2.282446,-42.22526 -5.706117,-3.994281 -35.948527,-0.570612 z"
 id="path4177"
 style="fill:#ffffff;fill-opacity:1;stroke:none" />
<path
 d="m -129.04677,-14.23159 c 2.95961,8.2062995 4.96013,16.6419095 7.59444,24.94018 2.39215,7.94825 2.13423,16.282254 1.90093,24.473584 -0.7579,-12.88577 -2.69916,-25.8304245 -6.23956,-38.2194745 -4.049,-5.18192 -4.9312,-13.6672595 4.02991,-11.0200395 9.87697,-0.58776 19.82075,0.4138 29.642289,-1.11487 6.32469,0.62649 18.215456,-7.17766 20.340187,1.80465 1.137388,9.0857395 -0.28257,18.4049195 2.368416,27.33748 0.582545,7.44486 3.153531,15.183334 2.926394,22.330364 -7.488797,0.97862 -15.669027,0.16138 -23.402547,-0.25606 -8.18303,-0.28724 -16.372429,-2.81759 -24.513309,-0.47516 -9.01635,1.69351 4.99036,1.95789 8.29033,2.28371 9.823389,-0.40135 19.627419,1.17665 29.432294,0.53082 3.639767,-0.56795 6.868152,-2.79619 10.55392,-3.03896"
 id="path3888"
 style="fill:none;stroke:#000000;stroke-width:0.30000001;stroke-linecap:butt;stroke-linejoin:miter;stroke-miterlimit:4;stroke-opacity:1;stroke-dasharray:none" />
<path
 d="m -129.04677,-14.23159 c 6.95887,-3.75292 12.43414,-9.66893 19.13832,-13.78958 3.14472,-2.4222 6.69345,-4.66028 10.578529,-5.58212 -1.310109,2.92418 -5.606069,4.16272 -8.217749,6.17183 -3.65182,2.10147 -6.9829,5.02124 -11.04941,6.25767 2.23155,-2.35462 7.20793,-4.65151 10.59377,-6.81612 4.19165,-1.88708 7.3689,-6.17932 12.273569,-5.95664 8.83943,-0.51453 17.638149,1.03694 26.478711,0.94515 2.578059,0.2806 10.148707,-0.66304 8.3582,3.71363 -2.906832,2.67458 -5.342112,5.76767 -7.459116,9.12007 -1.779755,2.49506 -5.077173,7.0906 -8.46714,4.32854 2.509457,-7.75294 8.001882,-14.80709 15.365266,-18.45935 3.730656,6.91684 2.67293,15.07447 4.057161,22.56921 0.586611,10.2354795 2.298449,21.2634395 -2.70138,30.742 -2.731358,4.941584 -3.606309,10.829704 -6.98491,15.417324 -1.87469,0.59771 -0.187852,-4.37427 -0.135163,-6.04101 1.449116,-7.017464 4.700048,-13.482214 8.080385,-19.7410845 4.221998,1.30619 1.525457,6.8580405 0.654618,9.7041305 -1.971351,4.679054 -3.284442,9.558184 -5.131103,14.266644 -0.304469,0.56283 -0.703871,1.09051 -1.237648,1.45479"
 id="path3894"
 style="fill:none;stroke:#000000;stroke-width:0.30000001;stroke-linecap:butt;stroke-linejoin:miter;stroke-miterlimit:4;stroke-opacity:1;stroke-dasharray:none" />
<path
 d="m -100.44508,-33.93498 c -7.64557,4.06176 -14.51825,9.42236 -20.91934,15.2169 -3.89528,1.01191 -7.07487,4.71588 -6.35718,8.8825195 0.62452,5.65575 4.03285,10.53829001 4.64903,16.21147 1.28267,7.1009605 1.51732,14.5492805 4.65869,21.1746245 -1.11896,3.72542 0.97484,8.14225 5.10931,8.57271 6.71724,1.3214 13.717789,-0.67327 20.362219,1.04549 7.81014,-0.54665 15.961611,2.94226 23.493751,-0.32294 2.99131,-1.07584 4.443695,-3.84377 5.646619,-6.56554 4.206566,-7.94366 9.199444,-16.596484 7.539054,-25.9445545 -0.274891,-8.71452 -0.562794,-17.4892695 -2.358958,-26.0502195 1.02182,-3.75535 -0.02544,-8.54651 -4.012744,-10.06899 -6.011956,-2.67755 -12.564808,-0.21395 -18.823352,-1.07669 -4.63428,-0.25193 -9.24933,-0.95559 -13.88163,-1.10605 11.16809,0.53127 22.429536,-0.14188 33.511503,1.63814 4.294482,7.83491 1.650061,16.88745 1.619502,25.3025595 -0.360114,4.2717 -1.580103,8.69036 0.152086,12.9392 1.392908,4.9845705 3.725113,10.4353105 1.338791,15.5032105 -2.118228,6.126204 -5.558675,12.137964 -11.068734,15.793984 -8.182745,1.5422 -16.690968,-0.27917 -24.774428,2.00208 -7.979029,-0.89793 -16.822559,1.83192 -24.075619,-2.69128 -3.38739,-3.56827 -3.55182,-9.35748 -5.35855,-13.91086 -1.28315,-5.223134 -3.61972,-10.157264 -4.26094,-15.5159845 -1.41419,-7.16902999 -4.2105,-14.87218 -1.09942,-21.9874595 7.13356,-6.98102 15.71763,-12.28248 24.71471,-16.50785 1.43695,-0.77865 2.84768,-1.60909 4.19563,-2.53447 z"
 id="path3901"
 style="fill:none;stroke:#000000;stroke-width:0.30000001;stroke-linecap:butt;stroke-linejoin:miter;stroke-miterlimit:4;stroke-opacity:1;stroke-dasharray:none" />
<path
 d="m -126.5044,-15.50278 c 1.78685,-1.58943 2.71818,1.66178 0.80623,0.0784 3.52724,-1.43376 7.96469,-0.58188 11.83886,-0.61873 3.81617,0.86423 7.69956,0.41132 11.56509,0.5426 -5.30808,-0.42568 -11.09499,0.86456 -16.05798,-0.68879 -2.2195,-0.21802 -4.07242,0.34059 -0.73076,0.0416 6.35961,0.0707 12.72038,-0.081 19.07934,0.066 1.025729,-4.14559 6.759989,-4.74173 9.432429,-7.89581 2.57369,-2.70126 2.17727,-7.39107 5.84377,-9.35293 0.98936,0.15543 -2.54114,4.80995 -3.93515,6.36337 -3.10855,3.16075 -6.97727,5.69167 -8.99266,9.76462 -1.83111,0.72171 2.22118,-4.00819 3.23753,-5.17688 2.97045,-2.9407 7.15265,-4.74567 9.14826,-8.61428 3.02291,-1.75531 1.04572,-4.06011 -1.6567,-2.94185 -3.83425,0.23375 -7.49455,-0.15874 -11.08794,-0.67129 -1.8617,0.14208 -3.737909,-0.0181 -5.608969,0.0361"
 id="path3908"
 style="fill:none;stroke:#000000;stroke-width:0.30000001;stroke-linecap:butt;stroke-linejoin:miter;stroke-miterlimit:4;stroke-opacity:1;stroke-dasharray:none" />
<path
 d="m -97.267111,-17.40956 c 3.44879,-0.41192 6.89835,-1.07142 10.37099,-0.54741 3.0133,-0.56102 6.07446,-1.12983 9.097598,-0.23327 2.968945,0.45411 0.452448,2.11786 -1.311792,1.40276 -5.529236,-0.16003 -11.101756,0.32072 -16.603336,-0.20797 -0.51771,-0.13844 -1.02874,-0.3026 -1.55346,-0.41411 z"
 id="path3914"
 style="fill:none;stroke:#000000;stroke-width:0.30000001;stroke-linecap:butt;stroke-linejoin:miter;stroke-miterlimit:4;stroke-opacity:1;stroke-dasharray:none" />
<path
 d="m -122.05525,-9.1468505 c 2.54351,2.86737 0.92459,7.69019 3.72695,10.08156001 3.67088,0.11575999 7.27367,-1.32325 11.02474,-0.45346 4.17872,1.16200999 4.34337,-3.76802001 3.30943,-6.47032001 -0.32252,-3.29229 -2.88113,-6.0793495 -6.39647,-5.0971595 -3.70645,0.17982 -7.7008,-0.3298 -11.07428,1.5648995 -1.26224,3.18297 3.7866,4.66831 2.9752,7.99356 0.52964,4.78893 6.15134,1.43436001 9.13322,3.03902 2.78499,0.94032 7.0211,0.16976 5.00066,-3.52991 -1.29617,-2.71577 -0.29567,-6.65399 -3.46142,-8.2455695 -3.92785,-0.40065 -8.20534,-0.31935 -12.19758,0.2246 -0.71613,0.2037695 -1.40639,0.5016295 -2.04045,0.8927795 z"
 id="path3923"
 style="fill:none;stroke:#000000;stroke-width:0.30000001;stroke-linecap:butt;stroke-linejoin:miter;stroke-miterlimit:4;stroke-opacity:1;stroke-dasharray:none" />
<path
 d="m -118.32654,4.6106515 c 2.11382,-0.105928 4.45095,0.492516 6.22479,-0.986421 1.6839,-0.108866 3.09767,2.912525 4.26701,0.527764 1.43414,-1.065351 3.30524,-0.41495 4.95906,-0.591582 -3.32607,-0.01986 -6.6523,0.01836 -9.9783,-0.0187 -1.41651,0.61186 -2.64338,2.130982 -4.3214,1.050514 -0.37418,-0.104676 -0.78444,-0.131916 -1.15116,0.01843 z"
 id="path3940"
 style="fill:none;stroke:#000000;stroke-width:0.30000001;stroke-linecap:butt;stroke-linejoin:miter;stroke-miterlimit:4;stroke-opacity:1;stroke-dasharray:none" />
<path
 d="m -117.97508,7.7738365 c 1.59134,0.05986 3.18907,0.388646 4.73602,0.644138 1.8431,0.0411 3.54359,0.59153 5.34527,0.0261 1.57433,-0.180778 3.17596,-0.437701 4.81525,-0.338688 0.76435,-0.581381 2.14731,-0.800707 0.43139,-0.67368 -2.40108,-0.02768 -4.80232,-0.0054 -7.20346,-0.0023 -1.47233,1.389319 -3.61778,0.585795 -5.31988,1.590209 -1.14693,0.3409 -1.80784,-0.909973 -2.80459,-1.245848 z"
 id="path3942"
 style="fill:none;stroke:#000000;stroke-width:0.30000001;stroke-linecap:butt;stroke-linejoin:miter;stroke-miterlimit:4;stroke-opacity:1;stroke-dasharray:none" />
<path
 d="m -116.56922,11.991415 c 1.90929,0.45319 3.90435,0.47471 5.83697,0.73496 2.05224,0.0829 4.04123,-0.65931 6.0935,-0.34523 1.30543,-0.16219 2.50877,-0.58282 3.87027,-0.38961 -3.63573,0.006 -7.2715,-0.0112 -10.90721,0.007 -1.34886,0.62844 -3.58236,0.43693 -4.57975,0.009 1.64535,0.50025 3.31043,0.90908 5.07017,0.6621 2.00077,0.43363 3.73034,-0.90248 5.64085,-1.21752 1.32253,-0.0995 3.57081,-0.5712 4.43967,0.1888"
 id="path3944"
 style="fill:none;stroke:#000000;stroke-width:0.30000001;stroke-linecap:butt;stroke-linejoin:miter;stroke-miterlimit:4;stroke-opacity:1;stroke-dasharray:none" />
</g>
</svg>
