<?xml version="1.0" encoding="UTF-8" standalone="no"?>
<!-- Created with Inkscape (http://www.inkscape.org/) -->
<svg xmlns:dc="http://purl.org/dc/elements/1.1/" xmlns:cc="http://creativecommons.org/ns#" xmlns:rdf="http://www.w3.org/1999/02/22-rdf-syntax-ns#" xmlns:svg="http://www.w3.org/2000/svg" xmlns="http://www.w3.org/2000/svg" version="1.0" width="100%" height="100%" viewBox="0 0 48 48" id="svg2418">
<defs id="defs33" />
<path d="M 33.36,1.47 C 23.08,5.22 12.80,8.98 2.52,12.73 c -0.23,0.87 -0.05,1.95 -0.11,2.90 0.00,7.53 -0.08,15.08 -0.02,22.60 0.44,0.49 1.48,-0.30 1.61,0.57 0.30,0.35 0.32,1.37 0.99,1.12 0.94,-0.45 1.17,0.42 1.48,1.12 0.20,0.79 1.14,0.35 1.71,0.40 0.36,0.48 0.40,1.29 0.92,1.61 0.55,0.15 1.43,-0.36 1.57,0.42 0.28,0.46 0.40,1.17 0.92,1.36 0.96,-0.34 1.27,0.41 1.57,1.18 0.04,0.42 0.48,0.49 0.71,0.20 9.86,-4.09 19.75,-8.14 29.59,-12.27 0.22,-1.00 0.08,-2.12 0.19,-3.16 0.14,-3.68 0.28,-7.37 0.42,-11.06 1.39,-0.20 1.23,-1.67 1.17,-2.73 C 45.24,13.62 45.18,10.19 45.13,6.76 42.27,3.30 37.80,1.47 33.36,1.47 z m 0.07,0.54 c 4.11,0.01 8.25,1.66 10.99,4.78 -4.27,1.54 -8.55,3.09 -12.83,4.64 C 29.83,8.11 26.00,6.72 22.51,6.00 26.15,4.67 29.79,3.34 33.43,2.02 z M 22.02,6.19 C 25.55,6.89 29.51,8.16 31.34,11.54 30.12,10.68 28.82,8.62 26.96,8.10 25.64,7.22 22.17,6.81 21.93,6.22 l 0.09,-0.03 0,1.32e-5 z M 21.14,6.51 c 3.51,0.92 7.65,1.83 9.64,5.21 C 24.86,13.87 18.94,16.01 13.01,18.15 10.70,15.31 7.39,13.21 3.69,12.88 9.51,10.76 15.32,8.64 21.14,6.51 z m 23.44,0.52 c 0.03,3.90 0.19,7.81 0.14,11.70 -0.80,0.75 -2.07,0.90 -3.09,1.38 -3.31,1.25 -6.63,2.50 -9.95,3.76 -0.27,-1.40 1.65,-2.62 0.01,-3.72 -0.00,-2.82 -0.01,-5.65 -0.01,-8.47 4.30,-1.55 8.60,-3.10 12.90,-4.65 z m -13.17,4.76 c -0.01,3.16 0.04,6.33 -0.00,9.48 -0.92,-0.80 -0.05,-3.78 -0.35,-5.29 0.23,-1.24 -0.38,-3.33 0.36,-4.19 z m -0.58,0.21 c -0.03,2.78 -0.07,5.57 -0.05,8.35 -1.76,1.23 0.52,2.36 10e-5,3.86 -5.57,2.11 -11.16,4.21 -16.75,6.32 -1.28,-0.06 -0.79,-1.86 -0.90,-2.78 -0.03,-3.11 -0.06,-6.22 -0.09,-9.33 5.93,-2.14 11.86,-4.28 17.80,-6.42 z M 3.74,13.41 C 4.10,14.08 4.86,14.62 4.62,15.46 4.60,23.23 4.58,30.99 4.56,38.75 4.34,38.33 4.21,37.58 3.56,37.84 2.46,38.21 3.02,36.88 2.89,36.25 c 0.02,-7.59 0.04,-15.19 0.06,-22.79 0.26,-0.01 0.52,-0.02 0.78,-0.04 z m 0.35,0.04 c 3.34,0.38 6.42,2.39 8.37,5.04 -0.31,0.79 -1.29,0.08 -1.40,-0.63 C 10.89,17.10 9.95,17.72 9.48,17.53 9.10,17.06 8.90,16.36 8.45,15.99 7.88,15.90 6.97,16.40 6.82,15.55 6.47,15.19 6.46,14.19 5.75,14.45 5.34,14.36 4.74,14.79 4.60,14.20 4.43,13.95 4.27,13.70 4.10,13.45 z m 1.94,1.25 c 0.59,0.90 1.06,1.83 0.80,2.95 -0.02,7.59 -0.06,15.19 -0.08,22.78 C 6.47,40.01 6.40,38.98 5.62,39.32 4.49,39.79 4.89,38.50 4.83,37.81 4.86,30.13 4.86,22.40 4.91,14.75 c 0.37,0.02 0.75,-0.03 1.13,-0.03 z m 2.33,1.55 c 0.46,0.77 1.12,1.49 0.90,2.46 -0.04,7.83 -0.08,15.66 -0.13,23.50 -0.34,-0.45 -0.35,-1.56 -1.18,-1.27 -1.91,0.43 -0.45,-2.68 -0.91,-3.77 0.02,-6.95 0.05,-13.90 0.08,-20.85 0.41,-0.01 0.83,-0.03 1.24,-0.05 z m 2.32,1.50 c 0.43,0.68 0.89,1.37 0.70,2.22 -0.02,7.87 -0.05,15.74 -0.08,23.61 -0.26,-0.42 -0.33,-1.32 -1.06,-1.06 -1.13,0.40 -0.79,-0.72 -0.82,-1.46 0.05,-7.74 0.05,-15.58 0.15,-23.26 0.37,0.00 0.74,-0.03 1.12,-0.04 z m 1.78,1.25 c 0.03,3.52 0.05,7.05 0.10,10.57 0.36,1.18 1.22,1.87 0.89,3.25 -0.02,4.15 -0.04,8.30 -0.06,12.46 -0.24,-0.41 -0.34,-1.26 -1.04,-0.99 -0.92,0.37 -0.82,-0.52 -0.77,-1.14 0.04,-8.00 0.02,-16.04 0.11,-24.04 0.20,-0.09 0.53,-0.05 0.77,-0.10 z m 31.08,0.96 c -0.17,4.55 -0.34,9.10 -0.51,13.65 -3.91,1.62 -7.82,3.24 -11.74,4.86 0.11,-4.67 0.23,-9.34 0.35,-14.01 3.96,-1.49 7.93,-2.99 11.90,-4.49 z m -11.87,0.64 c 1.19,0.57 -0.57,2.92 0.33,0.82 0.17,-0.40 -0.42,-0.48 -0.33,-0.82 z m -0.92,0.05 c -0.64,0.74 0.44,2.85 -0.43,1.00 -0.02,-0.37 0.13,-0.77 0.43,-1.00 z m 0.91,0.50 c 0.53,1.15 -0.83,0.51 0,0 z m -0.89,0.05 c 0.64,0.50 -0.39,1.15 1.89e-4,-4.67e-4 l -1.89e-4,4.67e-4 z m 0.44,0.64 c 0.48,0.45 0.05,1.51 0.16,2.21 -0.12,4.83 -0.24,9.66 -0.37,14.49 -0.80,0.45 -0.18,-1.19 -0.34,-1.69 0.13,-4.96 0.27,-9.93 0.41,-14.90 l 0.13,-0.11 0,-5.3e-5 z m -0.48,2.93 c -0.13,4.68 -0.26,9.37 -0.39,14.06 -5.46,2.26 -10.93,4.53 -16.40,6.79 0.02,-4.85 0.05,-9.71 0.08,-14.56 5.56,-2.06 11.14,-4.19 16.71,-6.28 z" />
</svg>
