<?xml version="1.0" encoding="UTF-8" standalone="no"?>
<!-- Created with Inkscape (http://www.inkscape.org/) -->
<svg xmlns:dc="http://purl.org/dc/elements/1.1/" xmlns:cc="http://creativecommons.org/ns#" xmlns:rdf="http://www.w3.org/1999/02/22-rdf-syntax-ns#" xmlns:svg="http://www.w3.org/2000/svg" xmlns="http://www.w3.org/2000/svg" version="1.0" width="100%" height="100%" viewBox="0 0 48 48" id="svg2">
<defs id="defs22" />
<path d="m 24.30,6.05 c -0.04,0.00 -0.23,0.06 -0.42,0.15 -0.19,0.07 -0.73,0.25 -1.21,0.41 -1.17,0.36 -1.21,0.39 -1.21,0.90 0,0.88 -0.76,1.43 -1.64,1.18 -0.28,-0.08 -0.38,-0.15 -0.54,-0.42 -0.10,-0.18 -0.25,-0.34 -0.32,-0.35 -0.14,-0.03 -1.60,0.40 -2.02,0.60 -0.22,0.11 -0.25,0.15 -0.25,0.48 0,0.44 -0.08,0.67 -0.32,0.93 -0.56,0.60 -1.46,0.54 -1.94,-0.14 -0.26,-0.37 -0.32,-0.39 -0.75,-0.23 -0.15,0.06 -0.59,0.20 -0.96,0.31 -0.37,0.11 -0.72,0.25 -0.78,0.31 -0.06,0.06 -0.10,0.25 -0.10,0.48 0,0.41 -0.11,0.70 -0.41,0.97 -0.50,0.47 -1.63,0.25 -1.82,-0.34 -0.09,-0.31 -0.29,-0.34 -0.93,-0.13 -0.32,0.10 -0.66,0.22 -0.74,0.25 -0.08,0.03 -0.28,0.10 -0.44,0.16 -0.38,0.12 -0.43,0.19 -0.46,0.70 -0.03,0.67 -0.44,1.08 -1.13,1.14 -0.44,0.03 -0.82,-0.15 -1.11,-0.55 -0.12,-0.17 -0.27,-0.31 -0.32,-0.31 -0.26,0 -2.77,0.86 -2.87,0.99 -0.09,0.10 -0.11,0.20 -0.06,0.38 0.11,0.44 0.54,1.76 0.66,2.02 l 0.12,0.24 0.50,-0.04 c 0.83,-0.06 1.32,0.30 1.33,1.00 0.00,0.43 -0.20,0.77 -0.58,0.96 -0.13,0.06 -0.31,0.18 -0.39,0.28 -0.13,0.15 -0.13,0.16 0.14,1.01 0.15,0.47 0.33,0.92 0.39,1.01 0.09,0.16 0.41,0.29 0.41,0.17 0,-0.11 0.63,-0.06 0.91,0.06 0.14,0.06 0.34,0.25 0.44,0.39 0.35,0.51 0.06,1.26 -0.58,1.56 -0.39,0.17 -0.40,0.30 -0.06,1.31 0.31,0.98 0.34,1.00 0.93,0.95 0.73,-0.06 1.23,0.24 1.30,0.82 0.05,0.42 -0.12,0.79 -0.50,1.03 -0.14,0.09 -0.35,0.22 -0.44,0.30 l -0.18,0.14 0.28,0.88 c 0.32,1.01 0.40,1.14 0.66,1.14 0.09,0 0.35,-0.00 0.57,-0.01 0.30,-0.00 0.45,0.02 0.62,0.15 0.66,0.48 0.55,1.33 -0.22,1.77 -0.22,0.12 -0.38,0.27 -0.41,0.37 -0.03,0.15 0.43,1.68 0.60,1.94 0.05,0.07 0.18,0.09 0.54,0.05 0.83,-0.08 1.32,0.25 1.32,0.93 0,0.46 -0.18,0.76 -0.65,0.99 -0.25,0.12 -0.38,0.24 -0.39,0.35 -0.01,0.09 0.11,0.59 0.29,1.11 0.36,1.09 0.50,1.24 0.93,1.02 0.26,-0.13 1.43,-0.51 1.59,-0.51 0.05,-0.00 0.23,-0.06 0.40,-0.15 0.16,-0.08 0.35,-0.14 0.42,-0.15 0.16,0 0.22,-0.15 0.22,-0.61 0,-0.69 0.51,-1.16 1.24,-1.14 0.45,0.01 0.73,0.15 0.95,0.54 0.13,0.22 0.24,0.31 0.37,0.31 0.23,0 0.69,-0.16 0.69,-0.25 0,-0.03 0.03,-0.04 0.06,-0.02 0.06,0.04 1.13,-0.27 1.37,-0.41 0.08,-0.04 0.12,-0.19 0.12,-0.51 0,-0.35 0.03,-0.51 0.15,-0.67 0.24,-0.32 0.70,-0.55 1.12,-0.55 0.32,0 0.39,0.03 0.69,0.34 0.19,0.18 0.34,0.37 0.34,0.41 0,0.21 0.57,0.14 1.25,-0.15 0.08,-0.03 0.38,-0.13 0.67,-0.22 l 0.52,-0.15 0.15,0.15 c 0.22,0.23 0.21,0.78 -0.01,1.03 -0.22,0.24 -0.62,0.38 -0.91,0.31 -0.35,-0.07 -0.47,0.12 -0.68,1.09 -0.15,0.73 -0.16,0.87 -0.07,0.96 0.11,0.10 1.73,0.53 2.36,0.61 0.35,0.04 0.37,0.03 0.50,-0.19 0.24,-0.44 0.36,-0.54 0.70,-0.60 0.44,-0.08 0.78,0.02 1.06,0.34 0.17,0.19 0.23,0.34 0.23,0.54 0,0.38 0.11,0.50 0.60,0.61 0.22,0.04 0.64,0.14 0.92,0.21 0.58,0.14 0.73,0.10 0.83,-0.20 0.10,-0.29 0.51,-0.54 0.93,-0.55 0.25,-0.01 0.39,0.03 0.60,0.19 0.34,0.25 0.41,0.38 0.46,0.80 0.01,0.18 0.05,0.35 0.09,0.38 0.03,0.03 0.38,0.13 0.78,0.21 1.33,0.28 1.26,0.29 1.47,-0.10 0.16,-0.31 0.28,-0.40 0.70,-0.48 0.67,-0.12 1.24,0.29 1.24,0.93 0,0.42 0.10,0.49 1.12,0.69 0.51,0.10 0.96,0.19 1.00,0.19 0.04,0 0.13,-0.12 0.20,-0.28 0.19,-0.41 0.58,-0.65 0.99,-0.60 0.36,0.03 0.80,0.31 0.92,0.57 0.04,0.09 0.08,0.28 0.08,0.41 0,0.41 -0.01,0.40 1.40,0.74 0.87,0.20 1.44,0.26 1.51,0.15 0.02,-0.04 0.12,-0.48 0.22,-0.98 0.19,-0.91 0.17,-1.16 -0.07,-1.16 -0.22,0 -0.71,-0.31 -0.83,-0.53 -0.34,-0.65 0.16,-1.24 1.03,-1.21 0.20,0.01 0.40,-0.01 0.44,-0.05 0.09,-0.09 0.40,-1.70 0.35,-1.83 -0.02,-0.05 -0.19,-0.16 -0.37,-0.24 -0.78,-0.33 -0.97,-1.06 -0.40,-1.54 0.11,-0.09 0.29,-0.13 0.66,-0.13 0.41,0 0.52,-0.03 0.58,-0.13 0.11,-0.21 0.32,-1.17 0.34,-1.53 0.01,-0.34 0.01,-0.34 -0.35,-0.51 -0.41,-0.19 -0.51,-0.27 -0.64,-0.52 -0.20,-0.37 -0.06,-0.80 0.33,-1.08 0.21,-0.14 0.32,-0.17 0.64,-0.14 0.22,0.02 0.42,4.76e-4 0.48,-0.04 0.11,-0.09 0.43,-1.36 0.43,-1.72 0,-0.19 -0.04,-0.25 -0.28,-0.34 -0.54,-0.21 -0.62,-0.28 -0.74,-0.57 -0.28,-0.70 0.21,-1.27 1.06,-1.21 0.34,0.02 0.39,0.00 0.47,-0.15 0.13,-0.27 0.41,-1.63 0.37,-1.79 -0.02,-0.08 -0.21,-0.19 -0.42,-0.27 -0.61,-0.22 -0.83,-0.72 -0.56,-1.28 0.15,-0.31 0.41,-0.44 0.95,-0.44 0.25,0 0.46,-0.03 0.51,-0.09 0.09,-0.11 0.47,-1.73 0.47,-2.03 0,-0.28 -0.07,-0.32 -0.87,-0.51 -1.79,-0.41 -1.91,-0.41 -2.11,0.00 -0.23,0.50 -1.02,0.68 -1.46,0.34 -0.39,-0.31 -0.48,-0.45 -0.48,-0.84 0,-0.41 0.01,-0.41 -1.02,-0.65 -0.99,-0.22 -1.15,-0.21 -1.28,0.09 -0.15,0.37 -0.48,0.57 -0.93,0.57 -0.63,0 -1.09,-0.41 -1.09,-1.01 0,-0.33 -0.08,-0.39 -0.64,-0.50 -0.25,-0.05 -0.59,-0.12 -0.76,-0.16 -0.62,-0.15 -0.73,-0.13 -0.92,0.20 -0.31,0.55 -0.87,0.70 -1.45,0.40 -0.35,-0.19 -0.54,-0.51 -0.54,-0.92 0,-0.15 -0.03,-0.29 -0.07,-0.31 -0.12,-0.07 -1.20,-0.32 -1.65,-0.38 -0.38,-0.04 -0.39,-0.04 -0.58,0.24 -0.32,0.51 -0.44,0.58 -0.96,0.54 -0.35,-0.02 -0.50,-0.07 -0.65,-0.22 -0.22,-0.20 -0.41,-0.58 -0.41,-0.85 0,-0.09 -0.08,-0.25 -0.19,-0.35 -0.10,-0.09 -0.20,-0.28 -0.23,-0.42 -0.02,-0.13 -0.11,-0.31 -0.19,-0.38 -0.12,-0.11 -0.19,-0.12 -0.45,-0.05 -0.72,0.19 -1.44,-0.25 -1.44,-0.89 0,-0.17 0.05,-0.41 0.11,-0.52 0.11,-0.22 0.57,-0.63 0.82,-0.71 0.06,-0.03 0.15,-0.09 0.17,-0.15 0.06,-0.15 -0.49,-1.88 -0.66,-2.06 -0.12,-0.12 -0.17,-0.13 -0.47,-0.06 -0.50,0.13 -1.15,-0.07 -1.34,-0.44 -0.09,-0.17 -0.09,-0.80 0,-0.98 0.12,-0.23 0.55,-0.63 0.75,-0.67 0.36,-0.09 0.35,-0.21 -0.02,-1.42 -0.34,-1.07 -0.52,-1.41 -0.76,-1.39 z m -0.34,0.85 c 0.13,-0.00 0.22,0.10 0.31,0.39 0.06,0.21 0.14,0.53 0.17,0.70 0.05,0.32 0.04,0.34 -0.28,0.64 -0.82,0.76 -0.90,1.81 -0.19,2.49 0.42,0.41 0.66,0.53 1.16,0.53 0.50,0.00 0.60,0.09 0.72,0.64 l 0.09,0.41 -0.42,0.41 c -0.69,0.68 -0.79,1.37 -0.32,2.20 0.17,0.31 0.19,0.40 0.12,0.57 -0.12,0.32 -0.46,1.97 -0.42,2.08 0.02,0.05 0.19,0.16 0.38,0.23 0.42,0.17 0.64,0.51 0.64,0.98 0,0.43 -0.30,0.76 -0.72,0.77 l -0.27,0.00 -0.63,-1.90 c -0.35,-1.05 -1.02,-3.07 -1.48,-4.51 -0.47,-1.43 -0.88,-2.60 -0.90,-2.60 -0.02,0 -0.41,0.12 -0.88,0.27 -2.06,0.67 -3.59,1.18 -3.70,1.22 -0.06,0.02 -0.15,0.05 -0.20,0.06 -0.19,0.03 -2.35,0.73 -2.61,0.83 -0.14,0.05 -0.50,0.17 -0.79,0.26 -0.28,0.09 -1.23,0.39 -2.09,0.67 -0.86,0.28 -2.33,0.76 -3.27,1.06 -0.94,0.30 -1.73,0.57 -1.76,0.60 -0.04,0.03 0.60,2.02 3.35,10.29 0.22,0.64 0.79,2.36 1.27,3.80 0.47,1.43 0.87,2.65 0.87,2.71 0,0.04 0.04,0.14 0.09,0.21 0.08,0.11 0.18,0.09 1.19,-0.25 0.60,-0.20 1.27,-0.42 1.49,-0.48 0.44,-0.12 3.65,-1.15 3.87,-1.25 0.08,-0.03 0.30,-0.09 0.49,-0.15 0.19,-0.05 0.68,-0.21 1.10,-0.35 0.41,-0.14 0.93,-0.31 1.14,-0.36 0.21,-0.06 0.52,-0.15 0.70,-0.20 0.30,-0.08 0.35,-0.08 0.66,0.08 0.51,0.27 0.72,0.85 0.44,1.27 -0.18,0.27 -0.38,0.36 -0.94,0.41 l -0.49,0.03 -0.12,0.49 c -0.19,0.71 -0.35,1.31 -0.38,1.33 -0.01,0.00 -0.26,0.09 -0.54,0.18 l -0.53,0.15 -0.26,-0.24 c -0.15,-0.13 -0.28,-0.26 -0.31,-0.29 -0.25,-0.24 -1.37,-0.31 -1.84,-0.11 -0.60,0.25 -1.08,0.84 -1.19,1.50 -0.05,0.31 -0.05,0.31 -0.61,0.48 l -0.56,0.16 -0.30,-0.25 c -0.57,-0.49 -1.37,-0.62 -2.14,-0.33 -0.56,0.20 -0.95,0.66 -1.14,1.30 -0.08,0.26 -0.18,0.50 -0.22,0.53 -0.03,0.03 -0.38,0.16 -0.76,0.28 -0.37,0.12 -0.73,0.24 -0.80,0.26 -0.14,0.06 -0.35,-0.35 -0.42,-0.83 -0.03,-0.30 -0.03,-0.34 0.18,-0.45 0.31,-0.18 0.61,-0.64 0.72,-1.09 0.22,-0.97 -0.54,-1.91 -1.63,-2.00 -0.41,-0.03 -0.52,-0.13 -0.65,-0.58 -0.10,-0.37 -0.01,-0.59 0.34,-0.82 0.31,-0.20 0.48,-0.64 0.48,-1.21 0,-0.57 -0.10,-0.83 -0.50,-1.18 C 8.24,28.74 7.88,28.58 7.38,28.52 L 7.00,28.48 6.86,28.03 6.72,27.60 7.01,27.26 C 7.57,26.63 7.63,26.54 7.68,26.21 7.76,25.70 7.60,25.22 7.26,24.86 6.84,24.42 6.67,24.33 6.16,24.28 5.91,24.25 5.66,24.20 5.62,24.16 5.56,24.11 5.46,23.89 5.39,23.66 L 5.26,23.24 5.57,22.96 C 6.39,22.24 6.49,21.22 5.81,20.52 5.42,20.11 5.10,19.96 4.57,19.91 L 4.12,19.87 3.99,19.45 C 3.80,18.88 3.80,18.88 4.13,18.55 4.53,18.15 4.64,17.99 4.74,17.70 4.92,17.19 4.79,16.59 4.41,16.11 4.16,15.81 3.50,15.49 3.09,15.49 2.94,15.49 2.77,15.46 2.73,15.43 2.61,15.35 2.24,14.21 2.29,14.09 c 0.04,-0.12 0.20,-0.19 0.99,-0.44 0.74,-0.24 0.92,-0.25 0.98,-0.05 0.03,0.08 0.08,0.13 0.12,0.11 0.03,-0.03 0.06,-0.01 0.06,0.03 0,0.03 0.19,0.16 0.43,0.27 0.36,0.17 0.50,0.20 0.85,0.16 0.97,-0.09 1.74,-0.69 1.92,-1.51 0.08,-0.37 0.31,-0.70 0.45,-0.62 0.03,0.02 0.18,-0.01 0.33,-0.08 0.39,-0.15 0.45,-0.15 0.77,0.15 0.23,0.22 0.35,0.31 0.67,0.42 0.01,0.00 0.18,0.03 0.37,0.06 0.39,0.06 0.97,-0.06 1.31,-0.27 0.46,-0.29 0.92,-0.98 0.92,-1.38 0,-0.28 0.17,-0.47 0.44,-0.47 0.11,-0.00 0.28,-0.05 0.39,-0.11 0.28,-0.15 0.34,-0.14 0.66,0.15 0.15,0.14 0.30,0.26 0.33,0.26 0.03,0 0.15,0.03 0.27,0.09 0.11,0.04 0.26,0.09 0.32,0.10 0.06,0.00 0.18,0.02 0.26,0.03 0.30,0.04 0.90,-0.09 1.23,-0.30 0.36,-0.22 0.86,-0.88 0.86,-1.16 0,-0.41 0.08,-0.51 0.48,-0.63 0.73,-0.20 0.76,-0.20 0.95,-0.03 0.47,0.41 0.72,0.51 1.30,0.53 0.57,0.01 0.63,0.00 1.01,-0.15 0.52,-0.21 0.98,-0.81 1.08,-1.40 0.04,-0.31 0.22,-0.48 0.60,-0.55 0.13,-0.02 0.27,-0.07 0.29,-0.11 0.02,-0.03 0.13,-0.06 0.24,-0.06 0.11,-0.00 0.28,-0.05 0.39,-0.11 0.09,-0.05 0.16,-0.08 0.23,-0.08 z m 2.11,9.50 c 0.08,-0.00 0.24,0.04 0.73,0.17 0.37,0.09 0.70,0.20 0.73,0.24 0.02,0.03 0.09,0.20 0.13,0.37 0.23,0.81 1.42,1.34 2.26,0.99 0.13,-0.06 0.26,-0.09 0.29,-0.07 0.01,0.02 0.15,-0.10 0.31,-0.27 0.29,-0.32 0.36,-0.34 0.88,-0.20 0.44,0.12 0.53,0.18 0.53,0.37 0,0.25 0.42,0.89 0.60,0.89 0.04,0 0.08,0.03 0.08,0.06 0,0.09 0.69,0.31 1.00,0.31 0.43,0 0.98,-0.21 1.28,-0.50 0.23,-0.23 0.29,-0.25 0.57,-0.21 0.47,0.06 0.79,0.20 0.78,0.33 -0.00,0.21 0.15,0.52 0.44,0.84 0.48,0.54 1.56,0.70 2.10,0.30 0.11,-0.08 0.24,-0.15 0.28,-0.15 0.04,0 0.13,-0.08 0.20,-0.19 0.14,-0.21 0.36,-0.24 0.89,-0.09 0.30,0.07 0.34,0.11 0.42,0.42 0.06,0.24 0.19,0.43 0.44,0.66 0.19,0.18 0.40,0.33 0.47,0.33 0.06,0 0.15,0.03 0.20,0.09 0.13,0.13 0.95,0.09 1.33,-0.07 0.17,-0.07 0.40,-0.25 0.50,-0.38 0.10,-0.13 0.25,-0.24 0.32,-0.24 0.19,0 1.44,0.30 1.51,0.37 0.02,0.02 -0.02,0.31 -0.10,0.63 -0.15,0.55 -0.17,0.59 -0.36,0.59 -0.51,0 -1.26,0.53 -1.45,1.04 -0.19,0.51 0.02,1.29 0.47,1.62 0.58,0.44 0.54,0.38 0.43,0.83 -0.08,0.35 -0.13,0.41 -0.29,0.44 -0.38,0.04 -0.99,0.34 -1.21,0.59 -0.50,0.57 -0.46,1.47 0.08,2.01 0.15,0.15 0.35,0.29 0.41,0.29 0.18,0 0.25,0.22 0.16,0.56 -0.09,0.40 -0.15,0.45 -0.47,0.47 -0.45,0.02 -0.99,0.37 -1.21,0.78 -0.42,0.77 -0.11,1.66 0.75,2.17 0.12,0.07 0.12,0.11 0.03,0.47 l -0.09,0.39 -0.43,0.08 c -0.72,0.14 -1.15,0.57 -1.28,1.26 -0.11,0.61 0.16,1.15 0.81,1.56 0.22,0.14 0.24,0.18 0.19,0.43 -0.07,0.41 -0.16,0.54 -0.36,0.54 -0.26,0 -0.66,0.15 -0.94,0.35 -0.48,0.36 -0.69,1.13 -0.44,1.72 0.09,0.23 0.68,0.83 0.87,0.89 0.08,0.03 0.08,0.12 0.00,0.48 l -0.09,0.43 -0.27,-0.04 c -0.15,-0.02 -0.51,-0.10 -0.80,-0.17 -0.50,-0.12 -0.54,-0.15 -0.60,-0.39 -0.18,-0.70 -0.86,-1.22 -1.65,-1.26 -0.50,-0.02 -0.97,0.15 -1.37,0.54 l -0.26,0.25 -0.48,-0.13 c -0.46,-0.12 -0.47,-0.13 -0.59,-0.47 -0.40,-1.21 -2.08,-1.57 -2.97,-0.64 l -0.25,0.27 -0.47,-0.10 c -0.47,-0.09 -0.51,-0.13 -0.67,-0.58 -0.42,-1.13 -2.07,-1.44 -2.91,-0.54 -0.25,0.25 -0.32,0.27 -0.86,0.15 -0.35,-0.08 -0.38,-0.11 -0.47,-0.40 -0.20,-0.69 -0.79,-1.15 -1.57,-1.23 -0.56,-0.06 -1.09,0.13 -1.43,0.54 l -0.23,0.26 -0.79,-0.18 -0.79,-0.18 0.02,-0.32 c 0.04,-0.56 0.11,-0.66 0.50,-0.71 0.54,-0.08 1.04,-0.46 1.21,-0.92 0.09,-0.25 0.12,-0.48 0.09,-0.67 -0.05,-0.31 -0.31,-0.89 -0.41,-0.89 -0.03,0 -0.17,-0.12 -0.32,-0.26 l -0.28,-0.25 0.09,-0.40 c 0.07,-0.34 0.11,-0.40 0.27,-0.42 0.74,-0.08 1.24,-0.44 1.44,-1.03 0.19,-0.58 -0.09,-1.28 -0.71,-1.75 -0.23,-0.18 -0.25,-0.22 -0.22,-0.48 0.06,-0.42 0.14,-0.52 0.45,-0.58 1.34,-0.25 1.80,-1.66 0.83,-2.57 -0.16,-0.15 -0.32,-0.28 -0.36,-0.28 -0.07,0 -0.07,-0.47 0,-0.76 0.03,-0.15 0.12,-0.20 0.44,-0.27 0.20,-0.04 0.48,-0.14 0.60,-0.21 0.32,-0.19 0.65,-0.70 0.69,-1.06 0.06,-0.53 -0.34,-1.28 -0.82,-1.53 l -0.20,-0.09 0.09,-0.46 c 0.11,-0.54 0.11,-0.54 0.39,-0.57 0.64,-0.06 1.26,-0.56 1.36,-1.08 0.12,-0.66 -0.13,-1.30 -0.66,-1.63 -0.16,-0.10 -0.29,-0.24 -0.29,-0.32 0,-0.25 0.23,-1.07 0.32,-1.13 0.04,-0.02 0.06,-0.04 0.11,-0.04 z m 2.29,3.38 c -0.05,-0.00 -0.09,0.04 -0.14,0.16 -0.04,0.11 -0.15,0.53 -0.23,0.92 -0.08,0.39 -0.25,1.18 -0.38,1.75 -0.22,0.96 -0.50,2.28 -0.95,4.37 -0.10,0.50 -0.27,1.28 -0.38,1.75 -0.31,1.37 -1.18,5.36 -1.29,5.91 l -0.09,0.51 0.19,0 c 0.15,0 1.29,0.24 2.46,0.53 0.40,0.09 1.96,0.46 3.46,0.79 0.29,0.06 0.79,0.18 1.10,0.26 0.31,0.08 0.84,0.20 1.18,0.27 0.33,0.06 0.66,0.13 0.72,0.14 0.06,0.01 0.64,0.15 1.29,0.29 1.59,0.35 3.17,0.72 3.30,0.77 0.12,0.04 0.13,0.00 0.34,-0.95 0.43,-2.07 1.17,-5.49 1.37,-6.39 0.12,-0.56 0.28,-1.28 0.35,-1.59 0.06,-0.31 0.14,-0.69 0.17,-0.83 0.03,-0.14 0.32,-1.43 0.64,-2.86 0.53,-2.39 0.62,-2.84 0.55,-2.84 -0.10,0 -1.04,-0.19 -1.53,-0.30 -0.33,-0.08 -1.32,-0.30 -2.20,-0.49 -1.73,-0.37 -1.85,-0.40 -4.11,-0.90 -0.83,-0.18 -1.86,-0.41 -2.28,-0.50 -0.41,-0.08 -1.02,-0.22 -1.33,-0.29 -0.31,-0.07 -0.89,-0.19 -1.29,-0.27 -0.39,-0.07 -0.77,-0.15 -0.85,-0.19 -0.02,-0.01 -0.04,-0.01 -0.06,-0.01 z" />
</svg>
