<?xml version="1.0" encoding="UTF-8" standalone="no"?>
<!-- Created with Inkscape (http://www.inkscape.org/) -->
<svg
   xmlns:svg="http://www.w3.org/2000/svg"
   xmlns="http://www.w3.org/2000/svg"
   version="1.0"
   width="100%"
   height="100%"
   viewBox="0 0 48 48"
   id="svg2">
  <defs
     id="defs2385" />
  <path
     d="M 0,0 L 0,48 L 48,48 L 48,0 L 0,0 z M 24,2 C 36.126575,2 46,11.873425 46,24 C 46,36.126575 36.126575,46 24,46 C 11.873425,46 2,36.126575 2,24 C 2,11.873425 11.873425,2 24,2 z"
     id="rect2385"
     style="opacity:1;fill:#ffffff;fill-opacity:1;fill-rule:nonzero;stroke:none;stroke-width:1;stroke-linecap:butt;stroke-linejoin:miter;marker:none;marker-start:none;marker-mid:none;marker-end:none;stroke-miterlimit:4;stroke-dasharray:none;stroke-dashoffset:0;stroke-opacity:1;visibility:visible;display:inline;overflow:visible;enable-background:accumulate" />
  <path
     d="M 24,6 C 14.035185,6 6,14.035185 6,24 C 6,33.964815 14.035185,42 24,42 C 33.964815,42 42,33.964815 42,24 C 42,14.035185 33.964815,6 24,6 z"
     id="p3178"
     style="fill:#285d6e;fill-opacity:1;fill-rule:nonzero;stroke:none;marker:none;visibility:visible;display:inline;overflow:visible;enable-background:accumulate" />
  <path
     d="M 24,6 C 16.481005,6 10.073725,10.567038 7.375,17.09375 C 11.199369,19.669898 17.339003,21.34375 24.25,21.34375 C 30.935053,21.34375 36.8787,19.755871 40.71875,17.3125 C 38.074348,10.668984 31.603083,6 24,6 z"
     id="p3182"
     style="fill:#6fceed;fill-opacity:0.08999999;fill-rule:nonzero;stroke:none;marker:none;visibility:visible;display:inline;overflow:visible;enable-background:accumulate" />
  <path
     d="M 27.149911,13.293432 L 27.149911,37.774151 L 20.385286,37.774151 L 20.385286,21.732794 C 19.290678,22.564705 18.228917,23.237883 17.200001,23.75233 C 16.182018,24.266806 14.901338,24.759375 13.357957,25.23004 L 13.357957,19.746096 C 15.634719,19.012733 17.402495,18.131581 18.661292,17.102638 C 19.920072,16.073736 20.905211,14.804002 21.616711,13.293432 L 27.149911,13.293432"
     transform="scale(1.0786002,0.9271276)"
     id="text3286"
     style="font-size:33.62609863px;font-style:normal;font-variant:normal;font-weight:normal;font-stretch:normal;text-align:start;line-height:80.00000119%;writing-mode:lr-tb;text-anchor:start;fill:#aee2e6;fill-opacity:1;stroke:none;stroke-width:1px;stroke-linecap:butt;stroke-linejoin:miter;stroke-opacity:1;font-family:Arial Black;-inkscape-font-specification:Arial Black" />
</svg>
