<?xml version="1.0" encoding="UTF-8" standalone="no"?>
<svg
   xmlns:dc="http://purl.org/dc/elements/1.1/"
   xmlns:cc="http://creativecommons.org/ns#"
   xmlns:rdf="http://www.w3.org/1999/02/22-rdf-syntax-ns#"
   xmlns:svg="http://www.w3.org/2000/svg"
   xmlns="http://www.w3.org/2000/svg"
   xmlns:xlink="http://www.w3.org/1999/xlink"
   id="ontology"
   viewBox="0 0 48 48"
   height="100%"
   width="100%"
   version="1.0">
  <metadata
     id="metadata3399">
    <rdf:RDF>
      <cc:Work
         rdf:about="">
        <dc:format>image/svg+xml</dc:format>
        <dc:type
           rdf:resource="http://purl.org/dc/dcmitype/StillImage" />
        <dc:title></dc:title>
      </cc:Work>
    </rdf:RDF>
  </metadata>
  <defs
     id="defs2385">
    <linearGradient
       id="linearGradient4249">
      <stop
         id="stop4251"
         style="stop-color:#ffffff;stop-opacity:0.59116024"
         offset="0" />
      <stop
         id="stop4253"
         style="stop-color:#ffffff;stop-opacity:0"
         offset="1" />
    </linearGradient>
    <linearGradient
       id="linearGradient3220">
      <stop
         offset="0"
         style="stop-color:#b9d1f9;stop-opacity:1"
         id="stop3222" />
      <stop
         offset="1"
         style="stop-color:#0e1f77;stop-opacity:1"
         id="stop3224" />
    </linearGradient>
    <linearGradient
       id="linearGradient3210">
      <stop
         offset="0"
         style="stop-color:#1e327e;stop-opacity:1"
         id="stop3212" />
      <stop
         offset="1"
         style="stop-color:#82c2fa;stop-opacity:1"
         id="stop3214" />
    </linearGradient>
    <linearGradient
       gradientUnits="userSpaceOnUse"
       xlink:href="#linearGradient3210"
       id="linearGradient3496"
       y2="0"
       x2="24"
       y1="48"
       x1="24" />
    <radialGradient
       gradientTransform="matrix(2.351355,0,0,1.8182318,-32.43252,-35.370889)"
       gradientUnits="userSpaceOnUse"
       xlink:href="#linearGradient3220"
       id="radialGradient3597"
       fy="43.228447"
       fx="24"
       r="23.5"
       cy="43.228447"
       cx="24" />
    <linearGradient
       id="linearGradient4347">
      <stop
         offset="0"
         style="stop-color:#acb0a7;stop-opacity:1"
         id="stop4349" />
      <stop
         offset="1"
         style="stop-color:#ffffff;stop-opacity:1"
         id="stop4351" />
    </linearGradient>
    <linearGradient
       id="linearGradient4933">
      <stop
         offset="0"
         style="stop-color:#ffffff;stop-opacity:1"
         id="stop4935" />
      <stop
         offset="1"
         style="stop-color:#ffffff;stop-opacity:0"
         id="stop4937" />
    </linearGradient>
    <linearGradient
       gradientTransform="matrix(0.8950846,0,0,0.846007,3.8685744,5.2253769)"
       gradientUnits="userSpaceOnUse"
       xlink:href="#linearGradient4933"
       id="linearGradient2518"
       y2="26.366886"
       x2="22.120455"
       y1="3.5600939"
       x1="22.120455" />
    <linearGradient
       gradientTransform="matrix(0.8668913,0,0,0.8193596,3.5498683,4.7606878)"
       gradientUnits="userSpaceOnUse"
       xlink:href="#linearGradient4347"
       id="linearGradient2522"
       y2="-11.102687"
       x2="17.993687"
       y1="35.237659"
       x1="28.820486" />
    <radialGradient
       gradientUnits="userSpaceOnUse"
       r="18.293781"
       fy="45.161308"
       fx="23.024931"
       cy="45.161308"
       cx="23.024931"
       id="radialGradient4244"
       xlink:href="#linearGradient4249" />
    <linearGradient
       gradientUnits="userSpaceOnUse"
       y2="0.15248287"
       x2="14.065429"
       y1="45.80994"
       x1="14.065429"
       id="linearGradient4177"
       xlink:href="#linearGradient3210" />
  </defs>
  <path
     style="fill:url(#radialGradient3597);fill-opacity:1;fill-rule:nonzero;stroke:none;stroke-width:1;stroke-linecap:butt;stroke-linejoin:round;marker:none;stroke-miterlimit:4;stroke-dasharray:none;stroke-dashoffset:0;stroke-opacity:1;visibility:visible;display:inline;overflow:visible;enable-background:accumulate"
     id="rect3218"
     d="M 9.625,0.5 C 4.5670164,0.5 0.5,4.5670164 0.5,9.625 L 0.5,38.375 C 0.5,43.432984 4.5670164,47.5 9.625,47.5 L 38.375,47.5 C 43.432984,47.5 47.5,43.432986 47.5,38.375 L 47.5,9.625 C 47.5,4.5670164 43.432986,0.5 38.375,0.5 L 9.625,0.5 z" />
  <path
     d="m 11.242382,3.1440678 c -4.4888921,0 -8.0983142,3.6094221 -8.0983142,8.0983142 l 0,25.515236 c 0,4.488893 3.6094221,8.098314 8.0983142,8.098314 l 25.515236,0 c 4.488893,0 8.098314,-3.60942 8.098314,-8.098314 l 0,-25.515236 c 0,-4.4888921 -3.60942,-8.0983142 -8.098314,-8.0983142 l -25.515236,0 z"
     id="path3418"
     style="display:inline;overflow:visible;visibility:visible;fill:#b9ceee;fill-opacity:0.23312883;fill-rule:nonzero;stroke:none;stroke-width:1;stroke-linecap:butt;stroke-linejoin:round;stroke-miterlimit:4;stroke-dasharray:none;stroke-dashoffset:0;stroke-opacity:1;marker:none;enable-background:accumulate" />
  <path
     style="fill:#caeef2;fill-opacity:0.34090911;fill-rule:evenodd;stroke:none;stroke-width:1;stroke-linecap:round;stroke-linejoin:round;marker:none;marker-start:none;marker-mid:none;marker-end:none;stroke-miterlimit:4;stroke-dasharray:none;stroke-dashoffset:0;stroke-opacity:1;visibility:visible;display:inline;overflow:visible;enable-background:accumulate"
     id="path3228"
     d="M 9.625,0.5 C 4.5670164,0.5 0.5,4.5670164 0.5,9.625 L 0.5,18.78125 C 6.9980288,21.8908 15.151882,23.75 24,23.75 C 32.848118,23.75 41.001971,21.8908 47.5,18.78125 L 47.5,9.625 C 47.5,4.5670164 43.432986,0.5 38.375,0.5 L 9.625,0.5 z" />
  <path
     id="path4236"
     d="M 23.025391 26.867188 A 18.293781 18.293781 0 0 0 4.7304688 45.162109 A 18.293781 18.293781 0 0 0 4.7636719 46.097656 C 6.1703019 46.982239 7.832587 47.5 9.625 47.5 L 38.375 47.5 C 39.369039 47.5 40.322657 47.337691 41.216797 47.046875 A 18.293781 18.293781 0 0 0 41.318359 45.162109 A 18.293781 18.293781 0 0 0 23.025391 26.867188 z "
     style="color:#000000;clip-rule:nonzero;display:inline;overflow:visible;visibility:visible;opacity:0.708;isolation:auto;mix-blend-mode:normal;color-interpolation:sRGB;color-interpolation-filters:linearRGB;solid-color:#000000;solid-opacity:1;fill:url(#radialGradient4244);fill-opacity:1;fill-rule:evenodd;stroke:none;stroke-width:1;stroke-linecap:butt;stroke-linejoin:round;stroke-miterlimit:4;stroke-dasharray:none;stroke-dashoffset:0;stroke-opacity:1;marker:none;marker-start:none;marker-mid:none;marker-end:none;color-rendering:auto;image-rendering:auto;shape-rendering:auto;text-rendering:auto;enable-background:accumulate" />
  <path
     style="fill:none;fill-rule:evenodd;stroke:#fbfbfe;stroke-width:0.9;stroke-linecap:butt;stroke-linejoin:miter;stroke-miterlimit:4;stroke-dasharray:none;stroke-opacity:0.49723756"
     d="m 14.929517,0.44394568 0,47.11021632"
     id="path4169" />
  <path
     id="path3367"
     d="m 14.415429,0.44394568 0,47.11021632"
     style="fill:none;fill-rule:evenodd;stroke:url(#linearGradient4177);stroke-width:0.7;stroke-linecap:butt;stroke-linejoin:miter;stroke-opacity:1;stroke-miterlimit:4;stroke-dasharray:none" />
  <rect
     style="fill:none;fill-opacity:1;fill-rule:nonzero;stroke:url(#linearGradient3496);stroke-width:1;stroke-linecap:butt;stroke-linejoin:round;marker:none;stroke-miterlimit:4;stroke-dasharray:none;stroke-dashoffset:0;stroke-opacity:1;visibility:visible;display:inline;overflow:visible;enable-background:accumulate"
     id="r2393"
     y="0.5"
     x="0.5"
     ry="9.1299343"
     height="47"
     width="47" />
  <path
     id="path4220"
     d="M 1.2305598,10.983051 C 1.0867415,3.5695429 6.6574034,1.3445924 8.2875152,1.3445924"
     style="fill:none;fill-rule:evenodd;stroke:#92b4e9;stroke-width:0.8;stroke-linecap:round;stroke-linejoin:miter;stroke-miterlimit:4;stroke-dasharray:none;stroke-opacity:1" />
  <path
     id="path4222"
     d="M 2.5230542,5.4251165 C 3.482115,3.8434609 4.4782666,2.9523997 5.3649122,2.392506"
     style="fill:none;fill-rule:evenodd;stroke:#cee1fb;stroke-width:1;stroke-linecap:butt;stroke-linejoin:miter;stroke-miterlimit:4;stroke-dasharray:none;stroke-opacity:1" />
  <path
     style="fill:none;fill-rule:evenodd;stroke:#92b4e9;stroke-width:0.80000001;stroke-linecap:round;stroke-linejoin:miter;stroke-miterlimit:4;stroke-dasharray:none;stroke-opacity:1"
     d="M 46.945415,10.983051 C 47.089233,3.5695429 41.518571,1.3445924 39.88846,1.3445924"
     id="path4224" />
  <path
     style="fill:none;fill-rule:evenodd;stroke:#cee1fb;stroke-width:1;stroke-linecap:butt;stroke-linejoin:miter;stroke-miterlimit:4;stroke-dasharray:none;stroke-opacity:1"
     d="M 45.652921,5.4251165 C 44.69386,3.8434609 43.697708,2.9523997 42.811063,2.392506"
     id="path4226" />
  <path
     style="fill:none;fill-rule:evenodd;stroke:#92b4e9;stroke-width:0.80000001;stroke-linecap:round;stroke-linejoin:miter;stroke-miterlimit:4;stroke-dasharray:none;stroke-opacity:1"
     d="m 1.2305598,36.838823 c -0.1438183,7.413508 5.4268436,9.638458 7.0569554,9.638458"
     id="path4228" />
  <path
     style="fill:none;fill-rule:evenodd;stroke:#cee1fb;stroke-width:1;stroke-linecap:butt;stroke-linejoin:miter;stroke-miterlimit:4;stroke-dasharray:none;stroke-opacity:1"
     d="m 2.5230542,42.396757 c 0.9590608,1.581656 1.9552124,2.472717 2.841858,3.032611"
     id="path4230" />
  <path
     id="path4232"
     d="m 46.722387,36.950337 c 0.143818,7.413508 -5.426844,9.638458 -7.056955,9.638458"
     style="fill:none;fill-rule:evenodd;stroke:#92b4e9;stroke-width:0.80000001;stroke-linecap:round;stroke-linejoin:miter;stroke-miterlimit:4;stroke-dasharray:none;stroke-opacity:1" />
  <path
     id="path4234"
     d="m 45.429893,42.508271 c -0.959061,1.581656 -1.955213,2.472717 -2.841858,3.032611"
     style="fill:none;fill-rule:evenodd;stroke:#cee1fb;stroke-width:1;stroke-linecap:butt;stroke-linejoin:miter;stroke-miterlimit:4;stroke-dasharray:none;stroke-opacity:1" />
  <path
     style="font-style:normal;font-variant:normal;font-weight:800;font-stretch:normal;font-size:medium;line-height:125%;font-family:'Rockwell Extra Bold';-inkscape-font-specification:'Rockwell Extra Bold, Ultra-Bold';letter-spacing:0px;word-spacing:0px;fill:none;fill-opacity:1;stroke:#c8e3eb;stroke-width:2.43026829;stroke-linecap:butt;stroke-linejoin:round;stroke-opacity:0.65030673;color:#000000;clip-rule:nonzero;display:inline;overflow:visible;visibility:visible;opacity:1;isolation:auto;mix-blend-mode:normal;color-interpolation:sRGB;color-interpolation-filters:linearRGB;solid-color:#000000;solid-opacity:1;fill-rule:evenodd;stroke-miterlimit:4;stroke-dasharray:none;stroke-dashoffset:0;marker:none;marker-start:none;marker-mid:none;marker-end:none;filter-blend-mode:normal;filter-gaussianBlur-deviation:0;color-rendering:auto;image-rendering:auto;shape-rendering:auto;text-rendering:auto;enable-background:accumulate"
     d="M 10.119141 7.7207031 C 8.1614587 7.7207031 6.5708748 8.8631235 5.3457031 11.146484 C 4.1205314 13.429846 3.5078125 16.204528 3.5078125 19.472656 C 3.5078125 22.719141 4.1336643 25.467854 5.3847656 27.71875 C 6.6293844 29.980468 8.5476691 31.111328 11.140625 31.111328 C 13.039965 31.111328 14.530722 30.338507 15.613281 28.791016 C 16.682876 27.254346 17.367826 25.278454 17.666016 22.865234 L 14.154297 20.804688 C 13.81073 24.105281 12.975374 25.753906 11.646484 25.753906 C 10.129605 25.753906 9.3710938 23.644258 9.3710938 19.423828 C 9.3710938 15.214219 10.103339 13.109375 11.568359 13.109375 C 12.099915 13.109375 12.573408 13.401961 12.988281 13.986328 C 13.403154 14.581517 13.698023 15.393821 13.873047 16.421875 L 17.248047 16.421875 L 17.248047 8.1757812 L 14 8.1757812 L 14 9.6855469 C 13.001712 8.3761314 11.707326 7.7207031 10.119141 7.7207031 z M 40.130859 7.7207031 C 38.856764 7.7207031 37.801144 8.2567851 36.964844 9.328125 C 36.134156 10.410287 35.688693 12.243712 35.626953 14.830078 L 38.640625 15.009766 C 38.640625 12.89955 39.073136 11.84375 39.9375 11.84375 C 40.341619 11.84375 40.645597 12.054519 40.847656 12.476562 C 41.049716 12.898606 41.150391 13.439491 41.150391 14.099609 C 41.150391 14.781371 41.000602 15.457966 40.703125 16.128906 C 40.40565 16.778204 39.741731 17.838808 38.708984 19.310547 C 38.097194 20.165455 37.57696 21.015289 37.150391 21.859375 C 36.723821 22.703461 36.389785 23.553296 36.148438 24.408203 C 35.676966 26.074732 35.441406 27.957247 35.441406 30.056641 C 35.441406 30.067463 35.447758 30.299398 35.458984 30.753906 L 44.779297 30.753906 L 44.878906 23.693359 L 42.455078 23.693359 L 42.412109 25.576172 L 38.724609 25.576172 C 38.909831 24.905232 39.1796 24.303697 39.533203 23.773438 C 39.881194 23.264822 40.56637 22.513167 41.587891 21.517578 C 42.85076 20.273092 43.707229 19.104701 44.15625 18.011719 C 44.594045 16.918735 44.8125 15.729179 44.8125 14.441406 C 44.8125 12.439408 44.379989 10.814798 43.515625 9.5703125 C 42.651261 8.3366483 41.522822 7.7207031 40.130859 7.7207031 z M 19.40625 8.1757812 L 19.40625 13.580078 L 20.474609 13.580078 L 20.474609 25.349609 L 19.425781 25.349609 L 19.425781 30.753906 L 32.328125 30.753906 L 32.328125 23.53125 L 28.779297 23.53125 L 28.779297 25.349609 L 25.707031 25.349609 L 25.707031 21.648438 L 28.380859 21.648438 L 28.380859 17.054688 L 25.707031 17.054688 L 25.707031 13.580078 L 28.779297 13.580078 L 28.779297 15.398438 L 32.328125 15.398438 L 32.328125 8.1757812 L 19.40625 8.1757812 z "
     id="path4204" />
  <path
     id="path4179"
     d="M 10.119141 7.7207031 C 8.1614587 7.7207031 6.5708748 8.8631235 5.3457031 11.146484 C 4.1205314 13.429846 3.5078125 16.204528 3.5078125 19.472656 C 3.5078125 22.719141 4.1336643 25.467854 5.3847656 27.71875 C 6.6293844 29.980468 8.5476691 31.111328 11.140625 31.111328 C 13.039965 31.111328 14.530722 30.338507 15.613281 28.791016 C 16.682876 27.254346 17.367826 25.278454 17.666016 22.865234 L 14.154297 20.804688 C 13.81073 24.105281 12.975374 25.753906 11.646484 25.753906 C 10.129605 25.753906 9.3710938 23.644258 9.3710938 19.423828 C 9.3710938 15.214219 10.103339 13.109375 11.568359 13.109375 C 12.099915 13.109375 12.573408 13.401961 12.988281 13.986328 C 13.403154 14.581517 13.698023 15.393821 13.873047 16.421875 L 17.248047 16.421875 L 17.248047 8.1757812 L 14 8.1757812 L 14 9.6855469 C 13.001712 8.3761314 11.707326 7.7207031 10.119141 7.7207031 z M 40.130859 7.7207031 C 38.856764 7.7207031 37.801144 8.2567851 36.964844 9.328125 C 36.134156 10.410287 35.688693 12.243712 35.626953 14.830078 L 38.640625 15.009766 C 38.640625 12.89955 39.073136 11.84375 39.9375 11.84375 C 40.341619 11.84375 40.645597 12.054519 40.847656 12.476562 C 41.049716 12.898606 41.150391 13.439491 41.150391 14.099609 C 41.150391 14.781371 41.000602 15.457966 40.703125 16.128906 C 40.40565 16.778204 39.741731 17.838808 38.708984 19.310547 C 38.097194 20.165455 37.57696 21.015289 37.150391 21.859375 C 36.723821 22.703461 36.389785 23.553296 36.148438 24.408203 C 35.676966 26.074732 35.441406 27.957247 35.441406 30.056641 C 35.441406 30.067463 35.447758 30.299398 35.458984 30.753906 L 44.779297 30.753906 L 44.878906 23.693359 L 42.455078 23.693359 L 42.412109 25.576172 L 38.724609 25.576172 C 38.909831 24.905232 39.1796 24.303697 39.533203 23.773438 C 39.881194 23.264822 40.56637 22.513167 41.587891 21.517578 C 42.85076 20.273092 43.707229 19.104701 44.15625 18.011719 C 44.594045 16.918735 44.8125 15.729179 44.8125 14.441406 C 44.8125 12.439408 44.379989 10.814798 43.515625 9.5703125 C 42.651261 8.3366483 41.522822 7.7207031 40.130859 7.7207031 z M 19.40625 8.1757812 L 19.40625 13.580078 L 20.474609 13.580078 L 20.474609 25.349609 L 19.425781 25.349609 L 19.425781 30.753906 L 32.328125 30.753906 L 32.328125 23.53125 L 28.779297 23.53125 L 28.779297 25.349609 L 25.707031 25.349609 L 25.707031 21.648438 L 28.380859 21.648438 L 28.380859 17.054688 L 25.707031 17.054688 L 25.707031 13.580078 L 28.779297 13.580078 L 28.779297 15.398438 L 32.328125 15.398438 L 32.328125 8.1757812 L 19.40625 8.1757812 z "
     style="font-style:normal;font-variant:normal;font-weight:800;font-stretch:normal;font-size:medium;line-height:125%;font-family:'Rockwell Extra Bold';-inkscape-font-specification:'Rockwell Extra Bold, Ultra-Bold';letter-spacing:0px;word-spacing:0px;fill:#214478;fill-opacity:1;stroke:none;stroke-width:1px;stroke-linecap:butt;stroke-linejoin:miter;stroke-opacity:1" />
</svg>
