<?xml version="1.0" encoding="UTF-8" standalone="no"?>
<!-- Created with Inkscape (http://www.inkscape.org/) -->

<svg
   xmlns:dc="http://purl.org/dc/elements/1.1/"
   xmlns:cc="http://creativecommons.org/ns#"
   xmlns:rdf="http://www.w3.org/1999/02/22-rdf-syntax-ns#"
   xmlns:svg="http://www.w3.org/2000/svg"
   xmlns="http://www.w3.org/2000/svg"
   xmlns:sodipodi="http://sodipodi.sourceforge.net/DTD/sodipodi-0.dtd"
   xmlns:inkscape="http://www.inkscape.org/namespaces/inkscape"
   version="1.0"
   width="100%"
   height="100%"
   viewBox="0 0 48 48"
   id="ontology"
   inkscape:version="0.91 r13725"
   sodipodi:docname="cm1.svg">
  <metadata
     id="metadata3399">
    <rdf:RDF>
      <cc:Work
         rdf:about="">
        <dc:format>image/svg+xml</dc:format>
        <dc:type
           rdf:resource="http://purl.org/dc/dcmitype/StillImage" />
        <dc:title></dc:title>
      </cc:Work>
    </rdf:RDF>
  </metadata>
  <sodipodi:namedview
     pagecolor="#ffffff"
     bordercolor="#666666"
     borderopacity="1"
     objecttolerance="10"
     gridtolerance="10"
     guidetolerance="10"
     inkscape:pageopacity="0"
     inkscape:pageshadow="2"
     inkscape:window-width="756"
     inkscape:window-height="700"
     id="namedview3397"
     showgrid="false"
     inkscape:zoom="4.2868349"
     inkscape:cx="31.767566"
     inkscape:cy="40.811493"
     inkscape:window-x="453"
     inkscape:window-y="284"
     inkscape:window-maximized="0"
     inkscape:current-layer="ontology" />
  <defs
     id="defs2385" />
  <rect
     style="color:#000000;clip-rule:nonzero;display:inline;overflow:visible;visibility:visible;opacity:1;isolation:auto;mix-blend-mode:normal;color-interpolation:sRGB;color-interpolation-filters:linearRGB;solid-color:#000000;solid-opacity:1;fill:#68d9db;fill-opacity:1;fill-rule:nonzero;stroke:none;stroke-width:1;stroke-linecap:butt;stroke-linejoin:round;stroke-miterlimit:4;stroke-dasharray:none;stroke-dashoffset:0;stroke-opacity:1;marker:none;marker-start:none;marker-mid:none;marker-end:none;color-rendering:auto;image-rendering:auto;shape-rendering:auto;text-rendering:auto;enable-background:accumulate;filter-blend-mode:normal;filter-gaussianBlur-deviation:0"
     id="rect4170"
     width="48"
     height="48.529865"
     x="0"
     y="0"
     ry="0"
     rx="0" />
  <path
     inkscape:connector-curvature="0"
     id="path4169"
     d="m 14.929517,-0.12174263 0,48.80728163"
     style="fill:none;fill-rule:evenodd;stroke:#fbfbfe;stroke-width:0.89999998;stroke-linecap:butt;stroke-linejoin:miter;stroke-miterlimit:4;stroke-dasharray:none;stroke-opacity:0.49723756"
     sodipodi:nodetypes="cc" />
  <path
     style="fill:none;fill-rule:evenodd;stroke:#235e61;stroke-width:0.69999999;stroke-linecap:butt;stroke-linejoin:miter;stroke-miterlimit:4;stroke-dasharray:none;stroke-opacity:1"
     d="m 14.415429,-0.12174263 0,48.73657063"
     id="path3367"
     inkscape:connector-curvature="0"
     sodipodi:nodetypes="cc" />
  <path
     id="path4156"
     d="M 9.4414062 7.7226562 C 7.7802543 7.7226562 6.4282669 8.8350413 5.3886719 11.060547 C 4.3490768 13.286053 3.8300781 15.992414 3.8300781 19.177734 C 3.8300781 22.34196 4.3602779 25.02098 5.421875 27.214844 C 6.4779716 29.419255 8.1064396 30.521484 10.306641 30.521484 C 11.918288 30.521484 13.182978 29.768048 14.101562 28.259766 C 15.009146 26.762032 15.590727 24.83645 15.84375 22.484375 L 12.865234 20.474609 C 12.573708 23.691572 11.863931 25.300781 10.736328 25.300781 C 9.4492101 25.300781 8.8046875 23.244353 8.8046875 19.130859 C 8.8046875 15.027913 9.4268079 12.976563 10.669922 12.976562 C 11.120963 12.976562 11.522967 13.260517 11.875 13.830078 C 12.227032 14.410186 12.476487 15.20112 12.625 16.203125 L 15.488281 16.203125 L 15.488281 8.1660156 L 12.732422 8.1660156 L 12.732422 9.6367188 C 11.885345 8.360481 10.78903 7.7226562 9.4414062 7.7226562 z M 41.337891 7.7226562 C 41.068366 8.471523 40.621198 9.1214561 39.994141 9.6699219 C 39.378085 10.20784 38.708847 10.476562 37.988281 10.476562 C 37.916775 10.476562 37.847257 10.471484 37.78125 10.460938 L 37.78125 15.333984 C 37.891261 15.365631 38.030297 15.380859 38.195312 15.380859 C 38.71236 15.380859 39.118989 15.305868 39.416016 15.158203 L 39.416016 25.111328 L 37.78125 25.111328 L 37.78125 30.173828 L 44.646484 30.173828 L 44.646484 25.111328 L 43.0625 25.111328 L 43.0625 7.7226562 L 41.337891 7.7226562 z M 17.279297 8.1660156 L 17.279297 13.435547 L 18.185547 13.435547 L 18.185547 24.904297 L 17.302734 24.904297 L 17.302734 30.173828 L 21.75 30.173828 L 21.75 24.904297 L 20.84375 24.904297 L 20.84375 12.769531 L 24.275391 30.173828 L 25.992188 30.173828 L 29.457031 12.611328 L 29.457031 24.904297 L 28.541016 24.904297 L 28.541016 30.173828 L 34.53125 30.173828 L 34.53125 24.904297 L 33.607422 24.904297 L 33.607422 13.435547 L 34.505859 13.435547 L 34.505859 8.1660156 L 27.625 8.1660156 L 25.892578 16.662109 L 24.201172 8.1660156 L 17.279297 8.1660156 z "
     style="font-style:normal;font-variant:normal;font-weight:800;font-stretch:normal;font-size:medium;line-height:125%;font-family:'Rockwell Extra Bold';-inkscape-font-specification:'Rockwell Extra Bold, Ultra-Bold';letter-spacing:0px;word-spacing:0px;fill:none;fill-opacity:1;stroke:#e4f5f5;stroke-width:2.43026829;stroke-linecap:butt;stroke-linejoin:round;stroke-opacity:0.65030673;color:#000000;clip-rule:nonzero;display:inline;overflow:visible;visibility:visible;opacity:1;isolation:auto;mix-blend-mode:normal;color-interpolation:sRGB;color-interpolation-filters:linearRGB;solid-color:#000000;solid-opacity:1;fill-rule:evenodd;stroke-miterlimit:4;stroke-dasharray:none;stroke-dashoffset:0;marker:none;marker-start:none;marker-mid:none;marker-end:none;filter-blend-mode:normal;filter-gaussianBlur-deviation:0;color-rendering:auto;image-rendering:auto;shape-rendering:auto;text-rendering:auto;enable-background:accumulate" />
  <path
     style="font-style:normal;font-variant:normal;font-weight:800;font-stretch:normal;font-size:medium;line-height:125%;font-family:'Rockwell Extra Bold';-inkscape-font-specification:'Rockwell Extra Bold, Ultra-Bold';letter-spacing:0px;word-spacing:0px;fill:#0f6470;fill-opacity:1;stroke:none;stroke-width:1px;stroke-linecap:butt;stroke-linejoin:miter;stroke-opacity:1"
     d="M 9.4414062 7.7226562 C 7.7802543 7.7226562 6.4282669 8.8350413 5.3886719 11.060547 C 4.3490768 13.286053 3.8300781 15.992414 3.8300781 19.177734 C 3.8300781 22.34196 4.3602779 25.02098 5.421875 27.214844 C 6.4779716 29.419255 8.1064396 30.521484 10.306641 30.521484 C 11.918288 30.521484 13.182978 29.768048 14.101562 28.259766 C 15.009146 26.762032 15.590727 24.83645 15.84375 22.484375 L 12.865234 20.474609 C 12.573708 23.691572 11.863931 25.300781 10.736328 25.300781 C 9.4492101 25.300781 8.8046875 23.244353 8.8046875 19.130859 C 8.8046875 15.027913 9.4268079 12.976563 10.669922 12.976562 C 11.120963 12.976562 11.522967 13.260517 11.875 13.830078 C 12.227032 14.410186 12.476487 15.20112 12.625 16.203125 L 15.488281 16.203125 L 15.488281 8.1660156 L 12.732422 8.1660156 L 12.732422 9.6367188 C 11.885345 8.360481 10.78903 7.7226562 9.4414062 7.7226562 z M 41.337891 7.7226562 C 41.068366 8.471523 40.621198 9.1214561 39.994141 9.6699219 C 39.378085 10.20784 38.708847 10.476562 37.988281 10.476562 C 37.916775 10.476562 37.847257 10.471484 37.78125 10.460938 L 37.78125 15.333984 C 37.891261 15.365631 38.030297 15.380859 38.195312 15.380859 C 38.71236 15.380859 39.118989 15.305868 39.416016 15.158203 L 39.416016 25.111328 L 37.78125 25.111328 L 37.78125 30.173828 L 44.646484 30.173828 L 44.646484 25.111328 L 43.0625 25.111328 L 43.0625 7.7226562 L 41.337891 7.7226562 z M 17.279297 8.1660156 L 17.279297 13.435547 L 18.185547 13.435547 L 18.185547 24.904297 L 17.302734 24.904297 L 17.302734 30.173828 L 21.75 30.173828 L 21.75 24.904297 L 20.84375 24.904297 L 20.84375 12.769531 L 24.275391 30.173828 L 25.992188 30.173828 L 29.457031 12.611328 L 29.457031 24.904297 L 28.541016 24.904297 L 28.541016 30.173828 L 34.53125 30.173828 L 34.53125 24.904297 L 33.607422 24.904297 L 33.607422 13.435547 L 34.505859 13.435547 L 34.505859 8.1660156 L 27.625 8.1660156 L 25.892578 16.662109 L 24.201172 8.1660156 L 17.279297 8.1660156 z "
     id="path4146" />
</svg>
