<?xml version="1.0" encoding="UTF-8" standalone="no"?>
<svg
   xmlns:dc="http://purl.org/dc/elements/1.1/"
   xmlns:cc="http://creativecommons.org/ns#"
   xmlns:rdf="http://www.w3.org/1999/02/22-rdf-syntax-ns#"
   xmlns:svg="http://www.w3.org/2000/svg"
   xmlns="http://www.w3.org/2000/svg"
   xmlns:sodipodi="http://sodipodi.sourceforge.net/DTD/sodipodi-0.dtd"
   xmlns:inkscape="http://www.inkscape.org/namespaces/inkscape"
   version="1.0"
   width="100%"
   height="100%"
   viewBox="0 0 48 576"
   id="confetti"
   style="display:inline"
   inkscape:version="0.91 r13725"
   sodipodi:docname="ink01.svg">
  <metadata
     id="metadata2677">
    <rdf:RDF>
      <cc:Work
         rdf:about="">
        <dc:format>image/svg+xml</dc:format>
        <dc:type
           rdf:resource="http://purl.org/dc/dcmitype/StillImage" />
      </cc:Work>
    </rdf:RDF>
  </metadata>
  <sodipodi:namedview
     pagecolor="#ffffff"
     bordercolor="#666666"
     borderopacity="1"
     objecttolerance="10"
     gridtolerance="10"
     guidetolerance="10"
     inkscape:pageopacity="0"
     inkscape:pageshadow="2"
     inkscape:window-width="1267"
     inkscape:window-height="619"
     id="namedview2675"
     showgrid="false"
     inkscape:zoom="0.86637055"
     inkscape:cx="39.666938"
     inkscape:cy="196.22537"
     inkscape:window-x="1359"
     inkscape:window-y="143"
     inkscape:window-maximized="0"
     inkscape:current-layer="confetti" />
  <defs
     id="defs3" />
  <circle
     style="color:#000000;clip-rule:nonzero;display:inline;overflow:visible;visibility:visible;opacity:1;isolation:auto;mix-blend-mode:normal;color-interpolation:sRGB;color-interpolation-filters:linearRGB;solid-color:#000000;solid-opacity:1;fill:#000000;fill-opacity:1;fill-rule:evenodd;stroke:none;stroke-width:0.2;stroke-linecap:butt;stroke-linejoin:round;stroke-miterlimit:4;stroke-dasharray:none;stroke-dashoffset:0;stroke-opacity:1;marker:none;marker-start:none;marker-mid:none;marker-end:none;color-rendering:auto;image-rendering:auto;shape-rendering:auto;text-rendering:auto;enable-background:accumulate"
     id="circle4286"
     cx="24"
     cy="72"
     r="10.762053" />
  <path
     style="color:#000000;clip-rule:nonzero;display:inline;overflow:visible;visibility:visible;opacity:1;isolation:auto;mix-blend-mode:normal;color-interpolation:sRGB;color-interpolation-filters:linearRGB;solid-color:#000000;solid-opacity:1;fill:#85e3ef;fill-opacity:1;fill-rule:evenodd;stroke:none;stroke-width:2.43026829;stroke-linecap:butt;stroke-linejoin:round;stroke-miterlimit:4;stroke-dasharray:none;stroke-dashoffset:0;stroke-opacity:0.65030673;marker:none;marker-start:none;marker-mid:none;marker-end:none;color-rendering:auto;image-rendering:auto;shape-rendering:auto;text-rendering:auto;enable-background:accumulate;filter-blend-mode:normal;filter-gaussianBlur-deviation:0"
     d="M 25.427734 57.070312 A 11.165667 11.165667 0 0 1 28.304688 64.533203 A 11.165667 11.165667 0 0 1 17.138672 75.699219 A 11.165667 11.165667 0 0 1 9.0058594 72.171875 A 15 15 0 0 0 24 87 A 15 15 0 0 0 39 72 A 15 15 0 0 0 25.427734 57.070312 z "
     id="circle4275" />
  <path
     style="color:#000000;clip-rule:nonzero;display:inline;overflow:visible;visibility:visible;opacity:1;isolation:auto;mix-blend-mode:normal;color-interpolation:sRGB;color-interpolation-filters:linearRGB;solid-color:#000000;solid-opacity:1;fill:#000000;fill-opacity:1;fill-rule:evenodd;stroke:none;stroke-width:2.43026829;stroke-linecap:butt;stroke-linejoin:round;stroke-miterlimit:4;stroke-dasharray:none;stroke-dashoffset:0;stroke-opacity:0.65030673;marker:none;marker-start:none;marker-mid:none;marker-end:none;color-rendering:auto;image-rendering:auto;shape-rendering:auto;text-rendering:auto;enable-background:accumulate"
     d="m 24.621094,108.41406 c -2.413764,1.59256 -4.215048,-0.10296 -6.880549,0.41738 -3.960746,0.91106 -3.675002,5.87264 -2.504612,8.20566 -2.03365,2.72608 0.09967,5.62005 -2.398429,8.05079 -1.641703,5.76966 7.828023,8.37437 9.338277,2.53516 3.039029,0.54952 4.555147,-0.81196 6.407697,2.06404 3.350008,1.6667 5.575409,-2.44541 5.325642,-4.77947 3.955858,-2.01153 1.798533,-6.41138 0.801818,-9.02676 0.321084,-3.74277 -4.188384,-5.26961 -6.619221,-4.88939 -0.432263,-1.49998 -1.909768,-2.59711 -3.470623,-2.57741 z m 0.58789,43.36719 c -4.36541,-0.09 -4.310744,5.86243 -1.571259,7.30488 1.151532,4.58888 -2.482626,8.08342 -3.707017,0.71203 2.834494,-6.02708 -7.613906,-9.66596 -9.131058,-3.17263 1.072898,3.45049 -1.9593768,4.41782 -2.315275,7.70259 -0.6337794,3.57828 5.761876,4.40683 0.7146164,5.8806 -4.9411255,4.45501 3.2745616,11.84932 7.1816906,6.46196 3.050691,-0.48381 -1.88353,3.61522 -0.242598,5.86612 1.58681,6.14567 11.518777,2.91009 9.209572,-2.97625 -0.486389,-11.3031 7.055412,-8.5393 4.957077,-0.99682 1.848726,5.98044 10.621015,-0.0422 5.726446,-3.91869 3.627746,-0.22155 6.323806,-7.37521 1.429759,-9.35012 5.185011,-4.01807 -2.248351,-11.96322 -6.603591,-7.0583 -1.790545,1.17725 -2.531248,-2.0477 -2.177708,-3.89606 -0.438901,-1.49316 -1.914521,-2.58119 -3.470655,-2.55931 z m 0.269532,46.65625 c -4.587754,-0.0527 -3.801547,6.38532 -0.768997,7.04907 -1.053763,2.43257 0.73005,5.65616 1.63818,7.18068 4.558156,3.05695 -1.526399,9.77789 -5.039105,5.57884 -2.917903,-3.55931 3.094759,-7.17743 -1.151447,-10.86172 -1.418341,-2.89649 -3.186947,-8.66818 -7.754656,-6.2608 -3.1213769,0.86589 -1.217523,5.03847 -2.4397243,5.92949 -5.0426198,1.90664 -1.4997503,10.01338 3.3145773,7.64421 3.216217,5.55111 -3.7896134,0.76137 -5.6407046,4.24574 -4.2953633,5.27399 6.2067196,10.08585 7.3672666,3.34801 -0.301484,1.61867 5.532761,4.18116 2.4156,4.57398 -5.157542,3.41572 1.98352,10.95915 5.67749,5.99319 1.509228,-5.46918 2.128648,-17.30011 8.901801,-7.26356 -1.624832,4.73035 6.792207,5.66287 6.198105,0.65777 -0.126461,-2.7939 -4.173781,-3.91808 -5.718386,-1.58248 -2.828755,-7.79733 2.783088,-0.69101 6.357103,-2.84893 4.87788,-2.34266 1.020917,-10.26836 -3.8239,-7.89911 -0.04344,-1.35535 5.476328,-1.10446 4.930908,-4.70354 0.62989,-6.07695 -9.565908,-5.49361 -8.262939,0.46135 -3.628505,1.68305 1.747387,-4.12557 -2.168014,-5.37988 -2.653236,-0.20716 2.012464,-4.88443 -4.033158,-5.86231 z m 0.191406,46.81055 c -4.127251,0.17094 -3.508144,5.41441 -0.539694,6.74388 1.330895,2.37078 -0.171919,5.57078 2.015832,5.95698 4.067863,2.77847 3.150381,7.91213 7.152985,10.48197 2.891143,5.20833 10.705969,-0.99592 6.306788,-4.99745 -1.61722,-3.19526 -6.401277,1.29333 -6.035471,-0.68504 1.692227,-2.90087 9.035952,-3.94022 5.898508,-8.91267 -2.307545,-3.82378 -8.688364,-0.5825 -6.978636,3.52951 -6.973223,2.02904 -1.814278,-1.09323 -1.947979,-4.14553 -0.333004,-2.72103 -4.722217,-1.85574 -2.800067,-4.89939 0.03277,-1.6534 -1.417838,-3.10484 -3.072266,-3.07226 z m -12.41211,2.54101 c -3.556333,-0.36288 -4.3194474,4.32273 -3.7643885,6.02553 -5.8122719,0.57355 -3.224396,9.98016 2.0468615,7.54424 3.550338,4.21699 -4.2397139,3.18473 -5.704547,6.16493 -2.8240644,5.16862 6.568499,8.3202 7.407585,2.46189 -0.901704,-6.80088 10.849637,-9.23502 3.750818,-16.98565 0.908984,-2.46544 -1.100856,-5.27954 -3.736329,-5.21094 z m 5.285157,18.85742 c -4.194111,0.57657 -4.548423,5.75004 -1.818858,8.20832 -0.05745,1.79336 -3.612212,4.15867 -1.296503,6.68838 3.032859,4.79449 10.230371,-1.38321 5.951298,-5.10568 2.212518,-9.25786 12.584246,-7.19257 12.253722,0.60035 3.484486,4.59161 8.130547,-4.16725 2.349794,-4.45777 -5.103431,-3.39019 -6.364334,-5.47897 -12.462435,-2.62174 -1.713308,-0.7085 -2.398905,-3.45212 -4.977018,-3.31186 z m 7.318359,25.67969 c -3.990957,0.19648 -3.145331,5.27718 -0.264135,6.37212 1.357019,3.68693 0.295757,11.40488 4.584328,4.67482 3.320566,-1.65437 0.912623,-5.294 -1.370752,-6.20601 -0.316604,-1.84106 0.216291,-4.77597 -2.949441,-4.84093 z m -13.46289,2.73242 c -3.7023667,-0.41541 -4.1757009,4.84473 -3.1449993,6.12244 -6.1597659,-0.86417 -4.7331293,9.57471 0.9600233,7.11673 2.775935,-4.83767 3.526898,-1.10702 6.038491,-5.03018 -2.16769,-1.907 1.935986,-6.59826 -2.50323,-7.95611 -0.429217,-0.16707 -0.889796,-0.25327 -1.350285,-0.25288 z m 25.863281,4.80664 c -4.567409,-0.25198 -2.500675,5.83848 -6.260922,6.46933 -1.139032,3.64207 3.080171,6.91267 3.699327,10.21895 2.929925,4.82147 9.948036,-1.55506 5.439643,-4.93456 -3.668592,0.0977 -7.749758,-4.30933 -2.138401,-4.38269 4.336436,-0.84584 3.697561,-7.38978 -0.739647,-7.37103 z m -26.376953,9.76368 c -1.261272,3.77874 -5.1343006,3.50272 -6.9458835,6.37644 -2.2368511,5.7049 8.1386015,6.6017 6.9045945,0.59176 -0.731038,-3.15089 6.055469,-4.59106 0.04129,-6.9682 z m 6.02539,5.99023 c -4.140031,0.0164 -4.446457,5.09542 -2.220362,7.46325 0.823866,2.38579 -3.643553,5.14532 -0.456823,7.76207 3.73587,3.88653 9.233847,-3.28444 4.485779,-5.87376 -1.098007,-2.70283 4.662481,-6.02567 0.202267,-8.76156 -0.595576,-0.3837 -1.302495,-0.59102 -2.010861,-0.59 z m 16.826172,3.91211 c -4.335851,1.6931 -0.80433,5.02872 1.028671,7.3073 4.5537,2.21541 5.637798,-6.36558 0.664689,-5.33074 -0.564453,-0.65885 -1.128907,-1.31771 -1.69336,-1.97656 z m -8.708984,20.1875 c -3.490422,0.10102 -3.205486,4.53909 -0.825434,5.96346 0.596562,2.79962 4.278825,7.42337 6.779673,3.56102 1.672618,-3.2429 -2.731121,-3.5962 -3.684708,-5.26276 1.24419,-1.73576 -0.131866,-4.32264 -2.269531,-4.26172 z m -14.144532,2.83984 c -3.4182299,-0.15944 -4.4475251,4.2774 -2.742187,6.32813 -5.7016738,-2.22359 -6.5827617,8.14099 -0.5794719,6.90464 3.7859409,-0.89221 2.2809259,-6.02715 6.0057349,-7.20999 2.102958,-2.21464 0.381543,-6.09917 -2.684076,-6.02278 z m 27.128907,4.97852 c -6.23201,0.004 -3.075601,10.09631 2.038643,6.59102 2.919346,-1.88325 1.440204,-6.68093 -2.038643,-6.59102 z m 0.46289,11.62109 c -6.231815,0.005 -3.076011,10.09513 2.038985,6.59213 2.921997,-1.8828 1.441834,-6.68393 -2.038985,-6.59213 z m -32.083984,2.37891 c -6.2318153,0.005 -3.0760108,10.09513 2.0389848,6.59213 2.9219952,-1.8828 1.4418332,-6.68393 -2.0389848,-6.59213 z m 10.039063,2.66406 c -4.856151,0.22795 -3.5198,5.77156 -2.212957,8.63749 -0.542081,2.13093 -2.781268,6.32742 1.286619,7.41494 3.865204,1.30424 6.266368,-4.83787 2.518134,-6.48602 -2.011239,-2.98932 3.934188,-4.24726 1.577635,-7.68633 -0.611438,-1.14384 -1.872529,-1.8918 -3.169431,-1.88008 z m 20.248046,6.00586 c -5.386092,0.29713 -0.93559,8.40681 2.208568,4.04429 1.141646,-1.66907 -0.180577,-4.10306 -2.208568,-4.04429 z m -11.585937,17.16016 c -3.336499,0.13244 -2.884136,4.35156 -0.531224,5.55802 1.114541,2.16486 3.569861,7.21024 6.41643,3.79258 2.320192,-3.71744 -4.299547,-3.39851 -3.440111,-6.2703 0.39775,-1.51802 -0.873389,-3.12273 -2.445095,-3.0803 z m -14.785156,2.90429 c -3.0083883,-0.16682 -4.6055394,4.08646 -2.2246098,5.9375 -1.8917753,-0.33631 -6.6515994,0.70652 -5.3681923,4.4052 1.7759751,4.65117 7.2616811,1.41015 7.8420231,-2.22309 2.410198,-1.7993 5.080924,-6.49146 0.656341,-7.99624 -0.294421,-0.0818 -0.600074,-0.1234 -0.905562,-0.12337 z m 28.34375,5.10547 c -5.844496,0.005 -2.884814,9.46957 1.912373,6.18368 2.73992,-1.76611 1.352307,-6.26933 -1.912373,-6.18368 z m 0.40039,12.13282 c -5.847041,0.003 -2.88715,9.47138 1.912373,6.18368 2.739905,-1.76618 1.352325,-6.26929 -1.912373,-6.18368 z m -33.4277341,2.25195 c -5.84449737,0.005 -2.8839308,9.46737 1.9123731,6.18173 2.740043,-1.76601 1.3514789,-6.26728 -1.9123731,-6.18173 z m 10.2304691,3.04687 c -6.197864,0.566 -1.173732,7.8175 -2.813632,10.71575 -3.201858,4.8142 6.216549,7.67028 6.210116,1.87019 0.232347,-2.41893 -5.265898,-4.85504 -1.566114,-6.34925 2.831752,-1.71498 1.485358,-6.32134 -1.83037,-6.23669 z m 21.464843,5.95899 c -4.537288,0.0559 -1.866557,7.30239 1.61829,4.43237 1.79917,-1.39679 0.657832,-4.52099 -1.61829,-4.43237 z M 26.21875,434.79102 c -3.522641,0.26343 -2.44984,4.51435 -0.04849,5.466 1.39905,1.77613 2.570028,6.89149 5.788501,4.2541 2.571961,-3.88459 -4.535358,-4.46465 -3.647169,-8.47865 -0.403802,-0.75525 -1.236486,-1.24912 -2.092843,-1.24145 z m -15.359375,3.17578 c -2.6083969,-0.13608 -4.2173992,3.35478 -2.4121094,5.24609 -0.8837961,1.55285 -4.9001005,-0.25402 -5.3023286,3.01115 -1.2528832,4.64904 6.1705138,5.62226 6.7599834,1.01619 1.1521396,-2.73214 6.9354186,-5.97976 2.3967926,-8.92749 -0.444596,-0.22684 -0.943311,-0.34638 -1.442338,-0.34594 z m 29.367187,5.36328 c -5.239749,-0.0529 -3.022203,8.52039 1.524411,5.97014 2.871155,-1.46759 1.70564,-6.05277 -1.524411,-5.97014 z M 40.625,455.91016 c -5.23975,-0.0529 -3.022205,8.5204 1.524411,5.97014 2.871155,-1.46759 1.70564,-6.05277 -1.524411,-5.97014 z m -34.7050781,2.05859 c -5.23974997,-0.0528 -3.0222035,8.5204 1.5244106,5.97014 2.8711545,-1.46759 1.7056399,-6.05277 -1.5244106,-5.97014 z m 10.5507811,3.36719 c -6.323512,0.78142 -0.24543,8.09037 -2.775902,11.03601 -2.50251,4.35681 5.67659,6.84244 5.957387,1.75733 -0.442538,-2.80172 -4.509197,-5.80373 -0.584304,-7.78119 1.510011,-1.99875 -0.08293,-5.09121 -2.597181,-5.01215 z m 22.294922,6.00586 c -4.696144,0.18675 -1.180023,7.42016 1.86804,3.86719 1.254744,-1.48276 0.0794,-3.92692 -1.86804,-3.86719 z m -12.482422,15.04101 c -5.430795,0.66163 0.78558,10.01941 2.886719,4.42578 -1.712733,-1.00388 0.603578,-4.28684 -2.886719,-4.42578 z m -15.871094,3.47266 c -3.2912079,-0.14116 -2.6937355,3.6231 -3.1195362,5.25652 -1.810373,0.34557 -5.83665,1.32257 -4.4228447,4.5725 1.1191215,3.1372 6.2720234,1.76449 5.6830063,-1.50871 1.2887222,-2.43024 6.8494716,-3.59653 4.1306266,-7.26379 -0.553439,-0.6637 -1.407201,-1.06073 -2.271252,-1.05652 z m 20.027344,2.13867 c -4.491985,0.17826 -1.128516,7.09535 1.786765,3.69792 1.200687,-1.41796 0.0756,-3.75547 -1.786765,-3.69792 z m 10.361328,3.28711 c -4.895676,-0.048 -2.823412,7.96155 1.424821,5.58004 2.684676,-1.3712 1.594905,-5.65823 -1.424821,-5.58004 z m 0.208985,12.90039 c -4.898314,-0.0507 -2.82549,7.96449 1.424582,5.5791 2.681954,-1.37203 1.59313,-5.65528 -1.424582,-5.5791 z m -35.6015629,1.76367 c -5.06897554,-0.0515 -2.9244045,8.24298 1.474616,5.77608 2.7778657,-1.41946 1.6506483,-5.85653 -1.474616,-5.77608 z m 10.6777349,3.79102 c -3.160567,-0.18198 -4.102453,4.736 -1.09375,5.73047 0.875153,4.74804 3.777168,-0.008 4.066098,-2.71956 0.05881,-1.60815 -1.36377,-3.04881 -2.972348,-3.01091 z m 23.126953,6.09375 c -4.491985,0.17826 -1.128509,7.09534 1.786765,3.69791 1.200688,-1.41796 0.07559,-3.75546 -1.786765,-3.69791 z m -23.179688,3.48633 c -4.898356,-0.0507 -2.82525,7.96439 1.424582,5.5791 2.681987,-1.37197 1.593102,-5.65531 -1.424582,-5.5791 z m 10.314453,10.72265 c -4.647666,0.36876 -0.328204,8.09708 2.288376,4.08633 -0.517861,-1.37861 0.523803,-3.96251 -2.288376,-4.08633 z m -16.255859,3.47266 c -3.3919455,-0.1162 -2.5029547,3.7674 -2.8822953,5.31712 -1.4216703,0.90797 -5.7215051,0.3795 -4.9256737,3.9479 0.9432971,3.82814 5.8438739,2.1507 6.2683633,-1.006 1.9352367,-1.94116 7.0555067,-5.62959 2.5777427,-8.06431 -0.330013,-0.12844 -0.684092,-0.19479 -1.038137,-0.19471 z m 20.603515,2.13867 c -4.288139,0.1692 -1.077466,6.77435 1.70475,3.52907 1.144076,-1.35321 0.07191,-3.58275 -1.70475,-3.52907 z m 10.552735,3.47852 c -5.646159,0.22552 -1.419449,8.92261 2.246894,4.65233 1.510515,-1.7834 0.09667,-4.72537 -2.246894,-4.65233 z m 0.208984,13.2207 c -5.646561,0.22509 -1.417598,8.92142 2.246155,4.64885 1.508271,-1.78275 0.09457,-4.72021 -2.246155,-4.64885 z m -36.6874998,1.74023 c -5.64936422,0.22292 -1.4194901,8.92302 2.2461547,4.64886 1.5082698,-1.78275 0.094581,-4.72022 -2.2461547,-4.64886 z m 10.9335938,4.07032 c -2.898511,-0.16798 -3.968288,4.24029 -1.310547,5.41601 0.880565,4.60332 3.93564,0.14814 4.177734,-2.54883 0.03034,-1.54295 -1.323277,-2.89734 -2.867187,-2.86718 z m 23.957031,6.1582 c -4.284981,0.17181 -1.076566,6.7716 1.705489,3.5306 1.146481,-1.35364 0.07292,-3.58588 -1.705489,-3.5306 z m -24.076172,3.6543 c -5.6743692,0.31147 -0.984979,8.85289 2.325569,4.25682 1.201444,-1.75715 -0.191563,-4.31806 -2.325569,-4.25682 z"
     id="path4316"
     inkscape:connector-curvature="0" />
  <path
     style="color:#000000;clip-rule:nonzero;display:inline;overflow:visible;visibility:visible;opacity:1;isolation:auto;mix-blend-mode:normal;color-interpolation:sRGB;color-interpolation-filters:linearRGB;solid-color:#000000;solid-opacity:1;fill:#ffd220;fill-opacity:1;fill-rule:evenodd;stroke:none;stroke-width:2.43026829;stroke-linecap:butt;stroke-linejoin:round;stroke-miterlimit:4;stroke-dasharray:none;stroke-dashoffset:0;stroke-opacity:0.65030673;marker:none;marker-start:none;marker-mid:none;marker-end:none;color-rendering:auto;image-rendering:auto;shape-rendering:auto;text-rendering:auto;enable-background:accumulate;filter-blend-mode:normal;filter-gaussianBlur-deviation:0"
     d="M 33.240234 108.19141 A 15.201807 15.201807 0 0 1 35.166016 115.56055 A 15.201807 15.201807 0 0 1 19.962891 130.76172 A 15.201807 15.201807 0 0 1 11.421875 128.13281 A 15 15 0 0 0 24 135 A 15 15 0 0 0 39 120 A 15 15 0 0 0 33.240234 108.19141 z "
     id="path4293" />
  <circle
     style="color:#000000;clip-rule:nonzero;display:inline;overflow:visible;visibility:visible;opacity:1;isolation:auto;mix-blend-mode:normal;color-interpolation:sRGB;color-interpolation-filters:linearRGB;solid-color:#000000;solid-opacity:1;fill:#ffffff;fill-opacity:1;fill-rule:evenodd;stroke:none;stroke-width:2.43026829;stroke-linecap:butt;stroke-linejoin:round;stroke-miterlimit:4;stroke-dasharray:none;stroke-dashoffset:0;stroke-opacity:0.65030673;marker:none;marker-start:none;marker-mid:none;marker-end:none;color-rendering:auto;image-rendering:auto;shape-rendering:auto;text-rendering:auto;enable-background:accumulate"
     id="path4369"
     cx="88.231911"
     cy="0"
     r="0" />
</svg>
