<?xml version="1.0" encoding="UTF-8" standalone="no"?>

<svg xmlns:svg="http://www.w3.org/2000/svg" xmlns="http://www.w3.org/2000/svg" version="1.0" width="100%" height="100%" viewBox="0 0 48 64" id="svg2985" style="display:inline">
<defs id="defs2987"/>
<path d="M 24.00,19.72 L 2.65,30.47 L 2.71,51.59 L 24.00,62.27 L 24.00,19.72 z" id="p2396" style="fill:#b18755;fill-opacity:1;stroke:none"/>
<path d="M 23.96,19.91 L 23.96,62.29 L 45.39,51.62 L 45.39,30.39 L 23.96,19.91 z" id="p2398" style="fill:#bd996f;fill-opacity:1;stroke:none"/>
<path d="M 24.00,41.10 L 24.00,61.68" id="p2400" style="fill:none;fill-opacity:1;fill-rule:nonzero;stroke:#cba981;stroke-width:2;stroke-linecap:butt;stroke-linejoin:miter;marker:none;stroke-miterlimit:4;stroke-dasharray:none;stroke-dashoffset:0;stroke-opacity:1;visibility:visible;display:inline;overflow:visible;enable-background:accumulate"/>
<path d="M 24.05,41.01 L 45.36,30.34 L 24.05,19.66 L 2.71,30.39 L 24.05,41.01 z" id="p2402" style="fill:#d2b18a;fill-opacity:1;stroke:none"/>
<path d="M 24.05,39.91 L 4.18,30.04" id="p3538" style="fill:none;fill-opacity:1;fill-rule:nonzero;stroke:#e3ceb6;stroke-width:0.60;stroke-linecap:round;stroke-linejoin:round;marker:none;stroke-miterlimit:4;stroke-dasharray:none;stroke-dashoffset:0;stroke-opacity:1;visibility:visible;display:inline;overflow:visible;enable-background:accumulate"/>
<path d="M 31.71,23.5 L 10.34,34.18 L 15.96,36.96 L 37.31,26.31 L 31.71,23.5 z" id="r3529" style="fill:#e5dacd;fill-opacity:1;fill-rule:nonzero;stroke:none;marker:none;visibility:visible;display:inline;overflow:visible;enable-background:accumulate"/>
<path d="M 44.84,30.61 L 24.05,41.01 L 3.21,30.59" id="p2404" style="fill:none;fill-opacity:1;fill-rule:nonzero;stroke:#d9be9f;stroke-width:1.5;stroke-linecap:butt;stroke-linejoin:round;marker:none;stroke-miterlimit:4;stroke-dasharray:none;stroke-dashoffset:0;stroke-opacity:1;visibility:visible;display:inline;overflow:visible;enable-background:accumulate"/>
<path d="M 13.60,35.35 L 34.25,25.14" id="p3536" style="fill:none;fill-rule:evenodd;stroke:#4e2f1c;stroke-width:1px;stroke-linecap:butt;stroke-linejoin:miter;stroke-opacity:1"/>
<path d="M 23.64,40.32 L 3.76,30.45" id="p3534" style="fill:none;fill-opacity:1;fill-rule:evenodd;stroke:#4e2f1c;stroke-width:0.69;stroke-linecap:round;stroke-linejoin:miter;marker:none;stroke-miterlimit:4;stroke-dasharray:none;stroke-dashoffset:0;stroke-opacity:1;visibility:visible;display:inline;overflow:visible;enable-background:accumulate"/>
<path d="M 18.80,40.91 C 18.67,40.84 18.53,40.86 18.43,41.00 L 16.31,43.81 C 16.12,44.06 16.11,44.62 16.28,45.09 L 17.69,45.81 L 17.69,49.71 C 17.69,50.13 17.88,50.56 18.11,50.68 L 19.46,51.37 C 19.69,51.49 19.88,51.24 19.88,50.82 L 19.88,46.92 L 21.33,47.66 C 21.50,47.36 21.49,46.80 21.29,46.35 L 19.18,41.38 C 19.07,41.14 18.94,40.98 18.80,40.91 z" id="r3515" style="fill:#9a3b3b;fill-opacity:1;fill-rule:nonzero;stroke:none;marker:none;visibility:visible;display:inline;overflow:visible;enable-background:accumulate"/>
<path d="M 33.62,38.25 C 33.52,38.25 33.39,38.28 33.28,38.34 L 26.5,41.65 C 26.02,41.88 25.62,42.50 25.62,43.03 L 25.62,49.18 C 25.62,49.71 26.02,49.94 26.5,49.71 L 33.28,46.40 C 33.75,46.17 34.12,45.55 34.12,45.03 L 34.12,38.87 C 34.12,38.48 33.93,38.24 33.62,38.25 z" id="r3523" style="fill:#d9d9d9;fill-opacity:1;fill-rule:nonzero;stroke:none;marker:none;visibility:visible;display:inline;overflow:visible;enable-background:accumulate"/>
<path d="M 4.43,45.93 C 4.23,45.93 4.09,46.05 4.09,46.31 L 4.09,49.96 C 4.09,50.30 4.35,50.69 4.65,50.84 L 9.78,53.40 C 10.08,53.55 10.34,53.40 10.34,53.06 L 10.34,49.43 C 10.34,49.09 10.08,48.71 9.78,48.56 L 4.65,46 C 4.58,45.96 4.50,45.93 4.43,45.93 z" id="r3525" style="fill:#cfcfcf;fill-opacity:1;fill-rule:nonzero;stroke:none;marker:none;visibility:visible;display:inline;overflow:visible;enable-background:accumulate"/>
<path d="M 14.04,26.55 L 7.26,29.95 L 11.51,32.08 L 18.29,28.67 L 14.04,26.55 z" id="p3542" style="fill:#ebe2b2;fill-opacity:1;stroke:none"/>
<path d="M 35.48,53.95 L 42.63,50.38" id="p3547" style="fill:none;fill-rule:evenodd;stroke:#574134;stroke-width:0.80;stroke-linecap:round;stroke-linejoin:miter;stroke-miterlimit:4;stroke-dasharray:none;stroke-opacity:1"/>
<path d="M 35.48,52.44 L 42.63,48.87" id="p3549" style="fill:none;fill-rule:evenodd;stroke:#574134;stroke-width:0.80;stroke-linecap:round;stroke-linejoin:miter;stroke-miterlimit:4;stroke-dasharray:none;stroke-opacity:1"/>
<path d="M 35.48,50.79 L 42.63,47.21" id="p3551" style="fill:none;fill-rule:evenodd;stroke:#574134;stroke-width:0.80;stroke-linecap:round;stroke-linejoin:miter;stroke-miterlimit:4;stroke-dasharray:none;stroke-opacity:1"/>
<g id="g2466">
<path d="M 24.93,20.53 L 6.18,32.12 L 3.25,51.59 L 6.78,53.34 L 9.65,34.03 L 28.46,22.31 L 24.93,20.53 z" id="r2397" style="fill:#eff12a;fill-opacity:1;fill-rule:nonzero;stroke:none;marker:none;visibility:visible;display:inline;overflow:visible;enable-background:accumulate"/>
<path d="M 6.18,32.12 L 3.25,51.59 L 6.78,53.34 L 9.65,34.06 L 9.65,34.03 L 6.21,32.12 L 6.18,32.12 z" id="p3390" style="fill:#e9d732;fill-opacity:1;fill-rule:nonzero;stroke:none;marker:none;visibility:visible;display:inline;overflow:visible;enable-background:accumulate"/>
<path d="M 24.93,20.53 L 6.18,32.12 L 3.25,51.59 L 6.78,53.34 L 9.65,34.03 L 28.46,22.31 L 24.93,20.53 z" id="p3395" style="fill:none;fill-opacity:1;fill-rule:nonzero;stroke:#c3983a;stroke-width:0.40;stroke-linecap:round;stroke-linejoin:round;marker:none;stroke-miterlimit:4;stroke-dasharray:none;stroke-dashoffset:0;stroke-opacity:1;visibility:visible;display:inline;overflow:visible;enable-background:accumulate"/>
</g>
<g id="g2450">
<path d="M 38.21,27.15 L 18.12,38.06 L 10,54.96 L 13.31,56.62 L 21.43,39.68 L 41.75,28.93 L 38.21,27.15 z" id="r3397" style="fill:#eff12a;fill-opacity:1;fill-rule:nonzero;stroke:none;marker:none;visibility:visible;display:inline;overflow:visible;enable-background:accumulate"/>
<path d="M 18.06,38.18 L 10,54.96 L 13.31,56.62 L 21.37,39.81 L 18.06,38.18 z" id="p3411" style="fill:#e9d732;fill-opacity:1;fill-rule:nonzero;stroke:none;marker:none;visibility:visible;display:inline;overflow:visible;enable-background:accumulate"/>
<path d="M 38.21,27.15 L 18.12,38.06 L 10,54.96 L 13.31,56.62 L 21.43,39.68 L 41.75,28.93 L 38.21,27.15 z" id="p3416" style="fill:none;fill-opacity:1;fill-rule:nonzero;stroke:#c3983a;stroke-width:0.40;stroke-linecap:round;stroke-linejoin:round;marker:none;stroke-miterlimit:4;stroke-dasharray:none;stroke-dashoffset:0;stroke-opacity:1;visibility:visible;display:inline;overflow:visible;enable-background:accumulate"/>
</g>
<g id="g2458">
<path d="M 33.06,24.59 L 14.31,36.19 L 11.38,55.65 L 14.91,57.40 L 17.78,38.09 L 36.60,26.37 L 33.06,24.59 z" id="p3478" style="fill:#eff12a;fill-opacity:1;fill-rule:nonzero;stroke:none;marker:none;visibility:visible;display:inline;overflow:visible;enable-background:accumulate"/>
<path d="M 14.31,36.19 L 11.38,55.65 L 14.91,57.40 L 17.78,38.12 L 17.78,38.09 L 14.35,36.19 L 14.31,36.19 z" id="p3480" style="fill:#e9d732;fill-opacity:1;fill-rule:nonzero;stroke:none;marker:none;visibility:visible;display:inline;overflow:visible;enable-background:accumulate"/>
<path d="M 33.06,24.59 L 14.31,36.19 L 11.38,55.65 L 14.91,57.40 L 17.78,38.09 L 36.60,26.37 L 33.06,24.59 z" id="p3482" style="fill:none;fill-opacity:1;fill-rule:nonzero;stroke:#c3983a;stroke-width:0.40;stroke-linecap:round;stroke-linejoin:round;marker:none;stroke-miterlimit:4;stroke-dasharray:none;stroke-dashoffset:0;stroke-opacity:1;visibility:visible;display:inline;overflow:visible;enable-background:accumulate"/>
</g>
<g id="g2442">
<path d="M 10.53,26.90 L 29.28,38.5 L 32.21,57.96 L 28.68,59.71 L 25.81,40.40 L 7,28.68 L 10.53,26.90 z" id="p3425" style="fill:#eff12a;fill-opacity:1;fill-rule:nonzero;stroke:none;marker:none;visibility:visible;display:inline;overflow:visible;enable-background:accumulate"/>
<path d="M 29.28,38.5 L 32.21,57.96 L 28.68,59.71 L 25.81,40.43 L 25.81,40.40 L 29.25,38.5 L 29.28,38.5 z" id="p3427" style="fill:#e9d732;fill-opacity:1;fill-rule:nonzero;stroke:none;marker:none;visibility:visible;display:inline;overflow:visible;enable-background:accumulate"/>
<path d="M 10.53,26.90 L 29.28,38.5 L 32.21,57.96 L 28.68,59.71 L 25.81,40.40 L 7,28.68 L 10.53,26.90 z" id="p3429" style="fill:none;fill-opacity:1;fill-rule:nonzero;stroke:#c3983a;stroke-width:0.40;stroke-linecap:round;stroke-linejoin:round;marker:none;stroke-miterlimit:4;stroke-dasharray:none;stroke-dashoffset:0;stroke-opacity:1;visibility:visible;display:inline;overflow:visible;enable-background:accumulate"/>
</g>
<g id="g2434">
<path d="M 16.15,23.78 L 36.25,34.68 L 44.37,51.59 L 41.06,53.25 L 32.93,36.31 L 12.62,25.56 L 16.15,23.78 z" id="p3446" style="fill:#eff12a;fill-opacity:1;fill-rule:nonzero;stroke:none;marker:none;visibility:visible;display:inline;overflow:visible;enable-background:accumulate"/>
<path d="M 36.31,34.81 L 44.37,51.59 L 41.06,53.25 L 33,36.43 L 36.31,34.81 z" id="p3448" style="fill:#e9d732;fill-opacity:1;fill-rule:nonzero;stroke:none;marker:none;visibility:visible;display:inline;overflow:visible;enable-background:accumulate"/>
<path d="M 16.15,23.78 L 36.25,34.68 L 44.37,51.59 L 41.06,53.25 L 32.93,36.31 L 12.62,25.56 L 16.15,23.78 z" id="p3450" style="fill:none;fill-opacity:1;fill-rule:nonzero;stroke:#c3983a;stroke-width:0.40;stroke-linecap:round;stroke-linejoin:round;marker:none;stroke-miterlimit:4;stroke-dasharray:none;stroke-dashoffset:0;stroke-opacity:1;visibility:visible;display:inline;overflow:visible;enable-background:accumulate"/>
</g>
<g id="g2426">
<path d="M 22.72,20.89 L 41.47,32.48 L 44.41,51.95 L 40.88,53.70 L 38.01,34.39 L 19.19,22.67 L 22.72,20.89 z" id="p3462" style="fill:#eff12a;fill-opacity:1;fill-rule:nonzero;stroke:none;marker:none;visibility:visible;display:inline;overflow:visible;enable-background:accumulate"/>
<path d="M 41.47,32.48 L 44.41,51.95 L 40.88,53.70 L 38.01,34.42 L 38.01,34.39 L 41.44,32.48 L 41.47,32.48 z" id="p3464" style="fill:#e9d732;fill-opacity:1;fill-rule:nonzero;stroke:none;marker:none;visibility:visible;display:inline;overflow:visible;enable-background:accumulate"/>
<path d="M 22.72,20.89 L 41.47,32.48 L 44.41,51.95 L 40.88,53.70 L 38.01,34.39 L 19.19,22.67 L 22.72,20.89 z" id="p3466" style="fill:none;fill-opacity:1;fill-rule:nonzero;stroke:#c3983a;stroke-width:0.40;stroke-linecap:round;stroke-linejoin:round;marker:none;stroke-miterlimit:4;stroke-dasharray:none;stroke-dashoffset:0;stroke-opacity:1;visibility:visible;display:inline;overflow:visible;enable-background:accumulate"/>
</g>
<path d="M 24.00,20.06 L 2.99,30.56 L 2.99,51.45 L 24.00,61.95 L 45.01,51.45 L 45.01,30.56 L 24.00,20.06 z" id="p2406" style="fill:none;fill-opacity:1;fill-rule:nonzero;stroke:#8c7250;stroke-width:1;stroke-linecap:butt;stroke-linejoin:round;marker:none;stroke-miterlimit:4;stroke-dasharray:none;stroke-dashoffset:0;stroke-opacity:1;visibility:visible;display:inline;overflow:visible;enable-background:accumulate"/>
</svg>
