<?xml version="1.0" encoding="UTF-8" standalone="no"?>

<svg xmlns:svg="http://www.w3.org/2000/svg" xmlns="http://www.w3.org/2000/svg" version="1.0" width="100%" height="100%" viewBox="0 0 48 64" id="svg2985" style="display:inline">
<defs id="defs2987"/>
<path d="M 24.00,19.72 L 2.65,30.47 L 2.71,51.59 L 24.00,62.27 L 24.00,19.72 z" id="p2396" style="fill:#b18755;fill-opacity:1;stroke:none"/>
<path d="M 23.96,19.91 L 23.96,62.29 L 45.39,51.62 L 45.39,30.39 L 23.96,19.91 z" id="p2398" style="fill:#bd996f;fill-opacity:1;stroke:none"/>
<path d="M 24.00,41.10 L 24.00,61.68" id="p2400" style="fill:none;fill-opacity:1;fill-rule:nonzero;stroke:#cba981;stroke-width:2;stroke-linecap:butt;stroke-linejoin:miter;marker:none;stroke-miterlimit:4;stroke-dasharray:none;stroke-dashoffset:0;stroke-opacity:1;visibility:visible;display:inline;overflow:visible;enable-background:accumulate"/>
<path d="M 24.05,41.01 L 45.36,30.34 L 24.05,19.66 L 2.71,30.39 L 24.05,41.01 z" id="p2402" style="fill:#d2b18a;fill-opacity:1;stroke:none"/>
<path d="M 24.05,39.91 L 4.18,30.04" id="p3538" style="fill:none;fill-opacity:1;fill-rule:nonzero;stroke:#e3ceb6;stroke-width:0.60;stroke-linecap:round;stroke-linejoin:round;marker:none;stroke-miterlimit:4;stroke-dasharray:none;stroke-dashoffset:0;stroke-opacity:1;visibility:visible;display:inline;overflow:visible;enable-background:accumulate"/>
<path d="M 31.71,23.5 L 10.34,34.18 L 15.96,36.96 L 37.31,26.31 L 31.71,23.5 z" id="r3529" style="fill:#e5dacd;fill-opacity:1;fill-rule:nonzero;stroke:none;marker:none;visibility:visible;display:inline;overflow:visible;enable-background:accumulate"/>
<path d="M 44.84,30.61 L 24.05,41.01 L 3.21,30.59" id="p2404" style="fill:none;fill-opacity:1;fill-rule:nonzero;stroke:#d9be9f;stroke-width:1.5;stroke-linecap:butt;stroke-linejoin:round;marker:none;stroke-miterlimit:4;stroke-dasharray:none;stroke-dashoffset:0;stroke-opacity:1;visibility:visible;display:inline;overflow:visible;enable-background:accumulate"/>
<path d="M 13.60,35.35 L 34.25,25.14" id="p3536" style="fill:none;fill-rule:evenodd;stroke:#4e2f1c;stroke-width:1px;stroke-linecap:butt;stroke-linejoin:miter;stroke-opacity:1"/>
<path d="M 23.64,40.32 L 3.76,30.45" id="p3534" style="fill:none;fill-opacity:1;fill-rule:evenodd;stroke:#4e2f1c;stroke-width:0.69;stroke-linecap:round;stroke-linejoin:miter;marker:none;stroke-miterlimit:4;stroke-dasharray:none;stroke-dashoffset:0;stroke-opacity:1;visibility:visible;display:inline;overflow:visible;enable-background:accumulate"/>
<path d="M 18.80,40.91 C 18.67,40.84 18.53,40.86 18.43,41.00 L 16.31,43.81 C 16.12,44.06 16.11,44.62 16.28,45.09 L 17.69,45.81 L 17.69,49.71 C 17.69,50.13 17.88,50.56 18.11,50.68 L 19.46,51.37 C 19.69,51.49 19.88,51.24 19.88,50.82 L 19.88,46.92 L 21.33,47.66 C 21.50,47.36 21.49,46.80 21.29,46.35 L 19.18,41.38 C 19.07,41.14 18.94,40.98 18.80,40.91 z" id="r3515" style="fill:#9a3b3b;fill-opacity:1;fill-rule:nonzero;stroke:none;marker:none;visibility:visible;display:inline;overflow:visible;enable-background:accumulate"/>
<path d="M 33.62,38.25 C 33.52,38.25 33.39,38.28 33.28,38.34 L 26.5,41.65 C 26.02,41.88 25.62,42.50 25.62,43.03 L 25.62,49.18 C 25.62,49.71 26.02,49.94 26.5,49.71 L 33.28,46.40 C 33.75,46.17 34.12,45.55 34.12,45.03 L 34.12,38.87 C 34.12,38.48 33.93,38.24 33.62,38.25 z" id="r3523" style="fill:#d9d9d9;fill-opacity:1;fill-rule:nonzero;stroke:none;marker:none;visibility:visible;display:inline;overflow:visible;enable-background:accumulate"/>
<path d="M 14.04,26.55 L 7.26,29.95 L 11.51,32.08 L 18.29,28.67 L 14.04,26.55 z" id="p3542" style="fill:#ebe2b2;fill-opacity:1;stroke:none"/>
<path d="M 35.48,53.95 L 42.63,50.38" id="p3547" style="fill:none;fill-rule:evenodd;stroke:#574134;stroke-width:0.80;stroke-linecap:round;stroke-linejoin:miter;stroke-miterlimit:4;stroke-dasharray:none;stroke-opacity:1"/>
<path d="M 14.73,51.27 C 14.53,51.27 14.38,51.39 14.38,51.65 L 14.38,55.30 C 14.38,55.65 14.64,56.03 14.95,56.18 L 20.07,58.74 C 20.38,58.89 20.63,58.74 20.63,58.40 L 20.63,54.77 C 20.63,54.43 20.38,54.05 20.07,53.90 L 14.95,51.34 C 14.87,51.30 14.79,51.28 14.73,51.27 z" id="p2602" style="fill:#cfcfcf;fill-opacity:1;fill-rule:nonzero;stroke:none;marker:none;visibility:visible;display:inline;overflow:visible;enable-background:accumulate"/>
<path d="M 5.28,36.32 C 4.76,36.30 4.38,36.63 4.38,37.30 L 4.38,46.85 C 4.38,47.74 5.05,48.74 5.85,49.14 L 15.26,53.70 C 16.05,54.09 16.73,53.69 16.73,52.80 L 16.73,43.33 C 16.73,42.44 16.05,41.44 15.26,41.04 L 5.85,36.48 C 5.65,36.38 5.45,36.32 5.28,36.32 z" id="p3190" style="fill:#dddd51;fill-opacity:1;fill-rule:nonzero;stroke:none;marker:none;visibility:visible;display:inline;overflow:visible;enable-background:accumulate"/>
<path d="M 6.81,38.74 C 6.63,38.66 6.49,38.67 6.49,38.78 L 6.49,41.90 C 6.49,41.92 6.50,41.93 6.50,41.94 C 6.49,41.99 6.49,42.04 6.49,42.09 C 6.49,43.26 7.89,44.91 9.71,45.94 L 9.71,48.98 L 7.01,47.67 C 6.84,47.59 6.70,47.60 6.70,47.70 L 6.70,47.84 C 6.70,47.94 6.84,48.10 7.01,48.18 L 13.50,51.32 C 13.67,51.41 13.82,51.39 13.82,51.29 L 13.82,51.15 C 13.82,51.05 13.67,50.90 13.50,50.81 L 10.78,49.49 L 10.78,46.45 C 12.56,47.15 13.93,46.85 13.93,45.69 C 13.93,45.64 13.92,45.59 13.92,45.54 C 13.92,45.53 13.93,45.52 13.93,45.51 L 13.93,42.38 C 13.93,42.27 13.79,42.12 13.61,42.03 L 9.87,40.22 L 9.13,40.70 L 9.83,41.28 C 9.87,41.31 9.90,41.35 9.91,41.39 C 9.93,41.43 9.92,41.45 9.90,41.47 L 8.78,42.06 L 9.40,42.59 C 9.44,42.63 9.47,42.67 9.48,42.70 C 9.49,42.74 9.48,42.76 9.46,42.78 L 8.73,43.15 C 8.67,43.18 8.56,43.14 8.47,43.06 C 8.39,42.99 8.37,42.91 8.42,42.88 L 9.05,42.56 L 8.45,42.03 C 8.36,41.95 8.34,41.88 8.39,41.85 L 9.49,41.26 L 8.80,40.68 C 8.76,40.65 8.73,40.61 8.72,40.58 C 8.70,40.54 8.70,40.51 8.73,40.49 L 9.45,40.02 L 6.81,38.74 z" id="p3210" style="fill:#666666;fill-opacity:1;fill-rule:nonzero;stroke:none;marker:none;visibility:visible;display:inline;overflow:visible;enable-background:accumulate"/>
<path d="M 35.48,50.79 L 42.63,47.21" id="p3551" style="fill:none;fill-rule:evenodd;stroke:#574134;stroke-width:0.80;stroke-linecap:round;stroke-linejoin:miter;stroke-miterlimit:4;stroke-dasharray:none;stroke-opacity:1"/>
<path d="M 41.29,36.00 C 41.81,35.99 42.19,36.31 42.19,36.98 L 42.19,46.53 C 42.19,47.42 41.52,48.42 40.72,48.82 L 31.31,53.38 C 30.52,53.78 29.84,53.37 29.84,52.48 L 29.84,43.01 C 29.84,42.12 30.52,41.12 31.31,40.72 L 40.72,36.16 C 40.92,36.06 41.12,36.01 41.29,36.00 z" id="p3212" style="fill:#dddd51;fill-opacity:1;fill-rule:nonzero;stroke:none;marker:none;visibility:visible;display:inline;overflow:visible;enable-background:accumulate"/>
<path d="M 39.76,38.42 C 39.94,38.34 40.08,38.35 40.08,38.46 L 40.08,41.59 C 40.08,41.60 40.08,41.61 40.07,41.63 C 40.08,41.67 40.08,41.72 40.08,41.77 C 40.08,42.94 38.68,44.59 36.86,45.62 L 36.86,48.66 L 39.56,47.35 C 39.73,47.27 39.88,47.28 39.88,47.39 L 39.88,47.52 C 39.88,47.63 39.73,47.78 39.56,47.87 L 33.07,51.00 C 32.90,51.09 32.76,51.07 32.76,50.97 L 32.76,50.83 C 32.76,50.73 32.90,50.58 33.07,50.49 L 35.80,49.18 L 35.80,46.13 C 34.01,46.83 32.64,46.53 32.64,45.37 C 32.64,45.32 32.65,45.27 32.65,45.22 C 32.65,45.21 32.64,45.20 32.64,45.19 L 32.64,42.06 C 32.64,41.96 32.79,41.80 32.96,41.72 L 36.70,39.90 L 37.44,40.38 L 36.74,40.96 C 36.70,41.00 36.67,41.04 36.66,41.07 C 36.64,41.11 36.65,41.14 36.68,41.15 L 37.79,41.74 L 37.17,42.27 C 37.13,42.31 37.10,42.35 37.09,42.39 C 37.08,42.42 37.09,42.45 37.12,42.46 L 37.85,42.83 C 37.90,42.86 38.01,42.82 38.10,42.74 C 38.18,42.67 38.21,42.59 38.15,42.57 L 37.52,42.24 L 38.13,41.71 C 38.21,41.64 38.23,41.56 38.18,41.53 L 37.08,40.94 L 37.77,40.36 C 37.81,40.33 37.84,40.29 37.85,40.26 C 37.87,40.22 37.87,40.19 37.85,40.18 L 37.12,39.70 L 39.76,38.42 z" id="p3214" style="fill:#666666;fill-opacity:1;fill-rule:nonzero;stroke:none;marker:none;visibility:visible;display:inline;overflow:visible;enable-background:accumulate"/>
<path d="M 35.48,52.44 L 42.63,48.87" id="p3549" style="fill:none;fill-rule:evenodd;stroke:#574134;stroke-width:0.80;stroke-linecap:round;stroke-linejoin:miter;stroke-miterlimit:4;stroke-dasharray:none;stroke-opacity:1"/>
<g id="g2466">
<path d="M 24.93,20.53 L 6.18,32.12 L 3.25,51.59 L 6.78,53.34 L 9.65,34.03 L 28.46,22.31 L 24.93,20.53 z" id="r2397" style="fill:#eff12a;fill-opacity:1;fill-rule:nonzero;stroke:none;marker:none;visibility:visible;display:inline;overflow:visible;enable-background:accumulate"/>
<path d="M 6.18,32.12 L 3.25,51.59 L 6.78,53.34 L 9.65,34.06 L 9.65,34.03 L 6.21,32.12 L 6.18,32.12 z" id="p3390" style="fill:#e9d732;fill-opacity:1;fill-rule:nonzero;stroke:none;marker:none;visibility:visible;display:inline;overflow:visible;enable-background:accumulate"/>
<path d="M 24.93,20.53 L 6.18,32.12 L 3.25,51.59 L 6.78,53.34 L 9.65,34.03 L 28.46,22.31 L 24.93,20.53 z" id="p3395" style="fill:none;fill-opacity:1;fill-rule:nonzero;stroke:#c3983a;stroke-width:0.40;stroke-linecap:round;stroke-linejoin:round;marker:none;stroke-miterlimit:4;stroke-dasharray:none;stroke-dashoffset:0;stroke-opacity:1;visibility:visible;display:inline;overflow:visible;enable-background:accumulate"/>
</g>
<g id="g2450">
<path d="M 38.21,27.15 L 18.12,38.06 L 10,54.96 L 13.31,56.62 L 21.43,39.68 L 41.75,28.93 L 38.21,27.15 z" id="r3397" style="fill:#eff12a;fill-opacity:1;fill-rule:nonzero;stroke:none;marker:none;visibility:visible;display:inline;overflow:visible;enable-background:accumulate"/>
<path d="M 18.06,38.18 L 10,54.96 L 13.31,56.62 L 21.37,39.81 L 18.06,38.18 z" id="p3411" style="fill:#e9d732;fill-opacity:1;fill-rule:nonzero;stroke:none;marker:none;visibility:visible;display:inline;overflow:visible;enable-background:accumulate"/>
<path d="M 38.21,27.15 L 18.12,38.06 L 10,54.96 L 13.31,56.62 L 21.43,39.68 L 41.75,28.93 L 38.21,27.15 z" id="p3416" style="fill:none;fill-opacity:1;fill-rule:nonzero;stroke:#c3983a;stroke-width:0.40;stroke-linecap:round;stroke-linejoin:round;marker:none;stroke-miterlimit:4;stroke-dasharray:none;stroke-dashoffset:0;stroke-opacity:1;visibility:visible;display:inline;overflow:visible;enable-background:accumulate"/>
</g>
<g id="g2458">
<path d="M 33.06,24.59 L 14.31,36.19 L 11.38,55.65 L 14.91,57.40 L 17.78,38.09 L 36.60,26.37 L 33.06,24.59 z" id="p3478" style="fill:#eff12a;fill-opacity:1;fill-rule:nonzero;stroke:none;marker:none;visibility:visible;display:inline;overflow:visible;enable-background:accumulate"/>
<path d="M 14.31,36.19 L 11.38,55.65 L 14.91,57.40 L 17.78,38.12 L 17.78,38.09 L 14.35,36.19 L 14.31,36.19 z" id="p3480" style="fill:#e9d732;fill-opacity:1;fill-rule:nonzero;stroke:none;marker:none;visibility:visible;display:inline;overflow:visible;enable-background:accumulate"/>
<path d="M 33.06,24.59 L 14.31,36.19 L 11.38,55.65 L 14.91,57.40 L 17.78,38.09 L 36.60,26.37 L 33.06,24.59 z" id="p3482" style="fill:none;fill-opacity:1;fill-rule:nonzero;stroke:#c3983a;stroke-width:0.40;stroke-linecap:round;stroke-linejoin:round;marker:none;stroke-miterlimit:4;stroke-dasharray:none;stroke-dashoffset:0;stroke-opacity:1;visibility:visible;display:inline;overflow:visible;enable-background:accumulate"/>
</g>
<g id="g2442">
<path d="M 10.53,26.90 L 29.28,38.5 L 32.21,57.96 L 28.68,59.71 L 25.81,40.40 L 7,28.68 L 10.53,26.90 z" id="p3425" style="fill:#eff12a;fill-opacity:1;fill-rule:nonzero;stroke:none;marker:none;visibility:visible;display:inline;overflow:visible;enable-background:accumulate"/>
<path d="M 29.28,38.5 L 32.21,57.96 L 28.68,59.71 L 25.81,40.43 L 25.81,40.40 L 29.25,38.5 L 29.28,38.5 z" id="p3427" style="fill:#e9d732;fill-opacity:1;fill-rule:nonzero;stroke:none;marker:none;visibility:visible;display:inline;overflow:visible;enable-background:accumulate"/>
<path d="M 10.53,26.90 L 29.28,38.5 L 32.21,57.96 L 28.68,59.71 L 25.81,40.40 L 7,28.68 L 10.53,26.90 z" id="p3429" style="fill:none;fill-opacity:1;fill-rule:nonzero;stroke:#c3983a;stroke-width:0.40;stroke-linecap:round;stroke-linejoin:round;marker:none;stroke-miterlimit:4;stroke-dasharray:none;stroke-dashoffset:0;stroke-opacity:1;visibility:visible;display:inline;overflow:visible;enable-background:accumulate"/>
</g>
<g id="g2434">
<path d="M 16.15,23.78 L 36.25,34.68 L 44.37,51.59 L 41.06,53.25 L 32.93,36.31 L 12.62,25.56 L 16.15,23.78 z" id="p3446" style="fill:#eff12a;fill-opacity:1;fill-rule:nonzero;stroke:none;marker:none;visibility:visible;display:inline;overflow:visible;enable-background:accumulate"/>
<path d="M 36.31,34.81 L 44.37,51.59 L 41.06,53.25 L 33,36.43 L 36.31,34.81 z" id="p3448" style="fill:#e9d732;fill-opacity:1;fill-rule:nonzero;stroke:none;marker:none;visibility:visible;display:inline;overflow:visible;enable-background:accumulate"/>
<path d="M 16.15,23.78 L 36.25,34.68 L 44.37,51.59 L 41.06,53.25 L 32.93,36.31 L 12.62,25.56 L 16.15,23.78 z" id="p3450" style="fill:none;fill-opacity:1;fill-rule:nonzero;stroke:#c3983a;stroke-width:0.40;stroke-linecap:round;stroke-linejoin:round;marker:none;stroke-miterlimit:4;stroke-dasharray:none;stroke-dashoffset:0;stroke-opacity:1;visibility:visible;display:inline;overflow:visible;enable-background:accumulate"/>
</g>
<g id="g2426">
<path d="M 22.72,20.89 L 41.47,32.48 L 44.41,51.95 L 40.88,53.70 L 38.01,34.39 L 19.19,22.67 L 22.72,20.89 z" id="p3462" style="fill:#eff12a;fill-opacity:1;fill-rule:nonzero;stroke:none;marker:none;visibility:visible;display:inline;overflow:visible;enable-background:accumulate"/>
<path d="M 41.47,32.48 L 44.41,51.95 L 40.88,53.70 L 38.01,34.42 L 38.01,34.39 L 41.44,32.48 L 41.47,32.48 z" id="p3464" style="fill:#e9d732;fill-opacity:1;fill-rule:nonzero;stroke:none;marker:none;visibility:visible;display:inline;overflow:visible;enable-background:accumulate"/>
<path d="M 22.72,20.89 L 41.47,32.48 L 44.41,51.95 L 40.88,53.70 L 38.01,34.39 L 19.19,22.67 L 22.72,20.89 z" id="p3466" style="fill:none;fill-opacity:1;fill-rule:nonzero;stroke:#c3983a;stroke-width:0.40;stroke-linecap:round;stroke-linejoin:round;marker:none;stroke-miterlimit:4;stroke-dasharray:none;stroke-dashoffset:0;stroke-opacity:1;visibility:visible;display:inline;overflow:visible;enable-background:accumulate"/>
</g>
<path d="M 24.00,20.06 L 2.99,30.56 L 2.99,51.45 L 24.00,61.95 L 45.01,51.45 L 45.01,30.56 L 24.00,20.06 z" id="p2406" style="fill:none;fill-opacity:1;fill-rule:nonzero;stroke:#8c7250;stroke-width:1;stroke-linecap:butt;stroke-linejoin:round;marker:none;stroke-miterlimit:4;stroke-dasharray:none;stroke-dashoffset:0;stroke-opacity:1;visibility:visible;display:inline;overflow:visible;enable-background:accumulate"/>
</svg>
