<?xml version="1.0" encoding="UTF-8" standalone="no"?>

<svg xmlns:svg="http://www.w3.org/2000/svg" xmlns="http://www.w3.org/2000/svg" version="1.0" width="100%" height="100%" viewBox="0 0 48 64" id="svg2985" style="display:inline">
<defs id="defs2987"/>
<path d="M 24.05,19.72 L 45.40,30.47 L 45.34,51.59 L 24.05,62.27 L 24.05,19.72 z" id="p2396" style="fill:#bd996f;fill-opacity:1;stroke:none"/>
<path d="M 24.09,19.91 L 24.09,62.29 L 2.66,51.62 L 2.66,30.39 L 24.09,19.91 z" id="p2398" style="fill:#b18755;fill-opacity:1;stroke:none"/>
<path d="M 24.05,41.10 L 24.05,61.68" id="p2400" style="fill:none;fill-opacity:1;fill-rule:nonzero;stroke:#cba981;stroke-width:2;stroke-linecap:butt;stroke-linejoin:miter;marker:none;stroke-miterlimit:4;stroke-dasharray:none;stroke-dashoffset:0;stroke-opacity:1;visibility:visible;display:inline;overflow:visible;enable-background:accumulate"/>
<path d="M 41.11,34.30 C 41.25,34.23 41.38,34.25 41.49,34.39 L 43.60,37.19 C 43.80,37.45 43.81,38.00 43.64,38.47 L 42.22,39.20 L 42.22,43.09 C 42.22,43.52 42.04,43.95 41.81,44.07 L 40.45,44.76 C 40.22,44.88 40.04,44.63 40.04,44.21 L 40.04,40.31 L 38.59,41.05 C 38.42,40.75 38.43,40.19 38.62,39.73 L 40.74,34.77 C 40.84,34.52 40.98,34.37 41.11,34.30 z" id="r3515" style="fill:#9a3b3b;fill-opacity:1;fill-rule:nonzero;stroke:none;marker:none;visibility:visible;display:inline;overflow:visible;enable-background:accumulate"/>
<path d="M 31.75,51.96 C 31.68,51.97 31.60,51.99 31.53,52.03 L 26.40,54.59 C 26.10,54.74 25.84,55.12 25.84,55.46 L 25.84,59.09 C 25.84,59.43 26.10,59.58 26.40,59.43 L 31.53,56.87 C 31.83,56.72 32.09,56.30 32.09,55.96 L 32.09,52.34 C 32.09,52.08 31.94,51.96 31.75,51.96 z" id="r3525" style="fill:#cfcfcf;fill-opacity:1;fill-rule:nonzero;stroke:none;marker:none;visibility:visible;display:inline;overflow:visible;enable-background:accumulate"/>
<path d="M 5.18,33.90 C 4.88,33.89 4.65,34.10 4.65,34.5 L 4.65,43.5 C 4.65,44.02 5.06,44.63 5.53,44.87 L 13.15,48.68 C 13.62,48.92 14,48.68 14,48.15 L 14,39.18 C 14,38.66 13.62,38.04 13.15,37.81 L 5.53,34 C 5.41,33.94 5.28,33.90 5.18,33.90 z M 5.25,45.78 C 4.89,45.76 4.65,46.04 4.65,46.5 L 4.65,46.87 C 4.65,47.48 5.11,48.19 5.65,48.46 L 13.03,52.25 C 13.57,52.52 14,52.26 14,51.65 L 14,51.28 C 14,50.67 13.57,49.96 13.03,49.68 L 5.65,45.90 C 5.52,45.83 5.36,45.78 5.25,45.78 z" id="r3651" style="fill:#9a7850;fill-opacity:1;fill-rule:nonzero;stroke:none;marker:none;visibility:visible;display:inline;overflow:visible;enable-background:accumulate"/>
<path d="M 6.18,36.69 L 11.89,39.65" id="p3656" style="fill:none;fill-rule:evenodd;stroke:#a97f54;stroke-width:0.60;stroke-linecap:round;stroke-linejoin:miter;stroke-miterlimit:4;stroke-dasharray:none;stroke-opacity:1"/>
<path d="M 6.18,38.30 L 11.89,41.25" id="p3666" style="fill:none;fill-rule:evenodd;stroke:#a97f54;stroke-width:0.60;stroke-linecap:round;stroke-linejoin:miter;stroke-miterlimit:4;stroke-dasharray:none;stroke-opacity:1"/>
<path d="M 6.18,39.95 L 11.89,42.91" id="p3668" style="fill:none;fill-rule:evenodd;stroke:#a97f54;stroke-width:0.60;stroke-linecap:round;stroke-linejoin:miter;stroke-miterlimit:4;stroke-dasharray:none;stroke-opacity:1"/>
<path d="M 6.18,41.65 L 11.89,44.61" id="p3670" style="fill:none;fill-rule:evenodd;stroke:#a97f54;stroke-width:0.60;stroke-linecap:round;stroke-linejoin:miter;stroke-miterlimit:4;stroke-dasharray:none;stroke-opacity:1"/>
<path d="M 24.07,41.28 L 45.38,30.60 L 24.07,19.93 L 2.73,30.66 L 24.07,41.28 z" id="p2783" style="fill:#5c4931;fill-opacity:1;stroke:none"/>
<path d="M 23.79,20.07 L 2.73,30.67 L 23.79,41.14 L 23.79,20.07 z" id="p3200" style="fill:#af8a5e;fill-opacity:1;fill-rule:nonzero;stroke:none;marker:none;visibility:visible;display:inline;overflow:visible;enable-background:accumulate"/>
<path d="M 17.69,27.94 L 22.64,25.51 L 31.58,29.59 L 21.48,36.59 L 17.69,27.94 z" id="p3213" style="fill:#4e5c4d;fill-opacity:1;fill-rule:evenodd;stroke:#374137;stroke-width:0.60;stroke-linecap:round;stroke-linejoin:round;stroke-miterlimit:4;stroke-dasharray:none;stroke-opacity:1"/>
<path d="M 27.05,9.23 L 47.62,18.70 L 45.39,30.67 L 24.97,20.42 L 27.05,9.23 z" id="p3174" style="fill:#a07b4e;fill-opacity:1;fill-rule:nonzero;stroke:none;marker:none;visibility:visible;display:inline;overflow:visible;enable-background:accumulate"/>
<path d="M 41.04,21.69 L 45.32,30.91 L 23.85,41.69 L 23.38,39.97 L 22.29,30.25 L 41.04,21.69 z" id="p3179" style="fill:#c4a37d;fill-opacity:1;fill-rule:nonzero;stroke:none;marker:none;visibility:visible;display:inline;overflow:visible;enable-background:accumulate"/>
<path d="M 1.32,19.75 L 22.29,30.25 L 23.50,41.17 L 3.27,30.91 L 1.32,19.75 z" id="p2399" style="fill:#9e7a4e;fill-opacity:1;fill-rule:nonzero;stroke:none;marker:none;visibility:visible;display:inline;overflow:visible;enable-background:accumulate"/>
<path d="M 29.41,16.72 L 24.85,20.44 L 13.82,26.00 L 12.32,25.25 L 29.41,16.72 z" id="p3185" style="fill:#564530;fill-opacity:1;fill-rule:nonzero;stroke:none;marker:none;visibility:visible;display:inline;overflow:visible;enable-background:accumulate"/>
<path d="M 11.80,25.00 L 22.29,30.25 L 23.50,41.17" id="p3205" style="fill:none;fill-opacity:1;fill-rule:nonzero;stroke:#8c7250;stroke-width:1;stroke-linecap:round;stroke-linejoin:round;marker:none;stroke-miterlimit:4;stroke-dasharray:none;stroke-dashoffset:0;stroke-opacity:1;visibility:visible;display:inline;overflow:visible;enable-background:accumulate"/>
<path d="M 25.14,18.85 L 29.41,16.72 L 24.85,20.44" id="p3207" style="fill:none;fill-opacity:1;fill-rule:nonzero;stroke:#8c7250;stroke-width:1;stroke-linecap:round;stroke-linejoin:round;marker:none;stroke-miterlimit:4;stroke-dasharray:none;stroke-dashoffset:0;stroke-opacity:1;visibility:visible;display:inline;overflow:visible;enable-background:accumulate"/>
<path d="M 22.29,30.25 L 41.04,21.69 L 45.32,30.91" id="p3209" style="fill:none;fill-opacity:1;fill-rule:nonzero;stroke:#8c7250;stroke-width:1;stroke-linecap:round;stroke-linejoin:round;marker:none;stroke-miterlimit:4;stroke-dasharray:none;stroke-dashoffset:0;stroke-opacity:1;visibility:visible;display:inline;overflow:visible;enable-background:accumulate"/>
<path d="M 3.45,31.19 L 23.80,41.58 L 44.88,31.44" id="p3215" style="fill:none;fill-opacity:1;fill-rule:nonzero;stroke:#997d5d;stroke-width:0.5;stroke-linecap:round;stroke-linejoin:round;marker:none;stroke-miterlimit:4;stroke-dasharray:none;stroke-dashoffset:0;stroke-opacity:1;visibility:visible;display:inline;overflow:visible;enable-background:accumulate"/>
<path d="M 26.90,9.20 L 25.31,18.75 L 12.31,25.25 L 1.31,19.75 L 3.21,30.5 L 3.06,30.56 L 3.06,51.46 L 24.06,61.96 L 45.06,51.46 L 45.06,31.03 L 45.31,30.90 L 47.49,18.67 L 26.90,9.20 z" id="p2406" style="fill:none;fill-opacity:1;fill-rule:nonzero;stroke:#8c7250;stroke-width:1;stroke-linecap:butt;stroke-linejoin:round;marker:none;stroke-miterlimit:4;stroke-dasharray:none;stroke-dashoffset:0;stroke-opacity:1;visibility:visible;display:inline;overflow:visible;enable-background:accumulate"/>
<path d="M 14.19,30.66 L 21.16,34.15 L 21.57,37.78 L 14.84,34.37 L 14.19,30.66 z" id="p3662" style="fill:#bba890;fill-opacity:1;fill-rule:nonzero;stroke:none;marker:none;visibility:visible;display:inline;overflow:visible;enable-background:accumulate"/>
</svg>
