<?xml version="1.0" encoding="UTF-8" standalone="no"?>

<svg xmlns:svg="http://www.w3.org/2000/svg" xmlns="http://www.w3.org/2000/svg" version="1.0" width="100%" height="100%" viewBox="0 0 48 64" id="svg2985" style="display:inline">
<defs id="defs2987"/>
<path d="M 24.00,19.72 L 2.65,30.47 L 2.71,51.59 L 24.00,62.27 L 24.00,19.72 z" id="p2396" style="fill:#b18755;fill-opacity:1;stroke:none"/>
<path d="M 23.96,19.91 L 23.96,62.29 L 45.39,51.62 L 45.39,30.39 L 23.96,19.91 z" id="p2398" style="fill:#bd996f;fill-opacity:1;stroke:none"/>
<path d="M 24.00,41.10 L 24.00,61.68" id="p2400" style="fill:none;fill-opacity:1;fill-rule:nonzero;stroke:#cba981;stroke-width:2;stroke-linecap:butt;stroke-linejoin:miter;marker:none;stroke-miterlimit:4;stroke-dasharray:none;stroke-dashoffset:0;stroke-opacity:1;visibility:visible;display:inline;overflow:visible;enable-background:accumulate"/>
<path d="M 24.05,41.01 L 45.36,30.34 L 24.05,19.66 L 2.71,30.39 L 24.05,41.01 z" id="p2402" style="fill:#55432d;fill-opacity:1;stroke:none"/>
<path d="M 23.78,19.81 L 2.71,30.40 L 23.78,40.87 L 23.78,19.81 z" id="p3200" style="opacity:1;fill:#af8a5e;fill-opacity:1;fill-rule:nonzero;stroke:none;marker:none;visibility:visible;display:inline;overflow:visible;enable-background:accumulate"/>
<path d="M 18.80,40.91 C 18.67,40.84 18.53,40.86 18.43,41.00 L 16.31,43.81 C 16.12,44.06 16.11,44.62 16.28,45.09 L 17.69,45.81 L 17.69,49.71 C 17.69,50.13 17.88,50.56 18.11,50.68 L 19.46,51.37 C 19.69,51.49 19.88,51.24 19.88,50.82 L 19.88,46.92 L 21.33,47.66 C 21.50,47.36 21.49,46.80 21.29,46.35 L 19.18,41.38 C 19.07,41.14 18.94,40.98 18.80,40.91 z" id="r3515" style="fill:#9a3b3b;fill-opacity:1;fill-rule:nonzero;stroke:none;marker:none;visibility:visible;display:inline;overflow:visible;enable-background:accumulate"/>
<path d="M 33.62,38.25 C 33.52,38.25 33.39,38.28 33.28,38.34 L 26.5,41.65 C 26.02,41.88 25.62,42.50 25.62,43.03 L 25.62,49.18 C 25.62,49.71 26.02,49.94 26.5,49.71 L 33.28,46.40 C 33.75,46.17 34.12,45.55 34.12,45.03 L 34.12,38.87 C 34.12,38.48 33.93,38.24 33.62,38.25 z" id="r3523" style="fill:#d9d9d9;fill-opacity:1;fill-rule:nonzero;stroke:none;marker:none;visibility:visible;display:inline;overflow:visible;enable-background:accumulate"/>
<path d="M 4.43,45.93 C 4.23,45.93 4.09,46.05 4.09,46.31 L 4.09,49.96 C 4.09,50.30 4.35,50.69 4.65,50.84 L 9.78,53.40 C 10.08,53.55 10.34,53.40 10.34,53.06 L 10.34,49.43 C 10.34,49.09 10.08,48.71 9.78,48.56 L 4.65,46 C 4.58,45.96 4.50,45.93 4.43,45.93 z" id="r3525" style="fill:#cfcfcf;fill-opacity:1;fill-rule:nonzero;stroke:none;marker:none;visibility:visible;display:inline;overflow:visible;enable-background:accumulate"/>
<path d="M 35.48,53.95 L 42.63,50.38" id="p3547" style="fill:none;fill-rule:evenodd;stroke:#574134;stroke-width:0.80;stroke-linecap:round;stroke-linejoin:miter;stroke-miterlimit:4;stroke-dasharray:none;stroke-opacity:1"/>
<path d="M 35.48,52.44 L 42.63,48.87" id="p3549" style="fill:none;fill-rule:evenodd;stroke:#574134;stroke-width:0.80;stroke-linecap:round;stroke-linejoin:miter;stroke-miterlimit:4;stroke-dasharray:none;stroke-opacity:1"/>
<path d="M 35.48,50.79 L 42.63,47.21" id="p3551" style="fill:none;fill-rule:evenodd;stroke:#574134;stroke-width:0.80;stroke-linecap:round;stroke-linejoin:miter;stroke-miterlimit:4;stroke-dasharray:none;stroke-opacity:1"/>
<path d="M 17.67,27.67 L 22.62,25.25 L 31.56,29.33 L 21.46,36.32 L 17.67,27.67 z" id="p3213" style="fill:#4e5c4d;fill-opacity:1;fill-rule:evenodd;stroke:#374137;stroke-width:0.60;stroke-linecap:round;stroke-linejoin:round;stroke-miterlimit:4;stroke-dasharray:none;stroke-opacity:1"/>
<path d="M 21.18,9.25 L 0.61,18.71 L 3.33,30.37 L 23.75,20.12 L 21.18,9.25 z" id="p3174" style="opacity:1;fill:#d2b18a;fill-opacity:1;fill-rule:nonzero;stroke:none;marker:none;visibility:visible;display:inline;overflow:visible;enable-background:accumulate"/>
<path d="M 7.68,21.56 L 3.40,30.78 L 24.87,41.56 L 25.34,39.84 L 26.43,30.12 L 7.68,21.56 z" id="p3179" style="opacity:1;fill:#b89265;fill-opacity:1;fill-rule:nonzero;stroke:none;marker:none;visibility:visible;display:inline;overflow:visible;enable-background:accumulate"/>
<path d="M 24.99,41.20 L 24.17,31.72 L 28.97,31.03 L 24.99,41.20 z" id="p3211" style="opacity:1;fill:#6a573f;fill-opacity:1;fill-rule:nonzero;stroke:none;marker:none;visibility:visible;display:inline;overflow:visible;enable-background:accumulate"/>
<path d="M 47.40,19.62 L 26.43,30.12 L 25.22,41.04 L 45.45,30.78 L 47.40,19.62 z" id="p2399" style="opacity:1;fill:#a68257;fill-opacity:1;fill-rule:nonzero;stroke:none;marker:none;visibility:visible;display:inline;overflow:visible;enable-background:accumulate"/>
<path d="M 19.31,16.59 L 23.87,20.31 L 34.90,25.87 L 36.40,25.12 L 19.31,16.59 z" id="p3185" style="opacity:1;fill:#483a29;fill-opacity:1;fill-rule:nonzero;stroke:none;marker:none;visibility:visible;display:inline;overflow:visible;enable-background:accumulate"/>
<path d="M 45.45,30.78 L 47.40,19.62 L 26.43,30.12 L 25.22,41.04" id="p3205" style="opacity:1;fill:none;fill-opacity:1;fill-rule:nonzero;stroke:#8c7250;stroke-width:1;stroke-linecap:round;stroke-linejoin:round;marker:none;stroke-miterlimit:4;stroke-dasharray:none;stroke-dashoffset:0;stroke-opacity:1;visibility:visible;display:inline;overflow:visible;enable-background:accumulate"/>
<path d="M 3.43,31.10 L 24.51,41.61 L 44.86,31.17" id="p3215" style="opacity:1;fill:none;fill-opacity:1;fill-rule:nonzero;stroke:#997d5d;stroke-width:0.5;stroke-linecap:round;stroke-linejoin:round;marker:none;stroke-miterlimit:4;stroke-dasharray:none;stroke-dashoffset:0;stroke-opacity:1;visibility:visible;display:inline;overflow:visible;enable-background:accumulate"/>
<path d="M 36.40,25.12 L 19.31,16.59 L 23.87,20.31" id="p3207" style="opacity:1;fill:none;fill-opacity:1;fill-rule:nonzero;stroke:#8c7250;stroke-width:1;stroke-linecap:round;stroke-linejoin:round;marker:none;stroke-miterlimit:4;stroke-dasharray:none;stroke-dashoffset:0;stroke-opacity:1;visibility:visible;display:inline;overflow:visible;enable-background:accumulate"/>
<path d="M 26.43,30.12 L 7.68,21.56 L 3.40,30.78" id="p3209" style="opacity:1;fill:none;fill-opacity:1;fill-rule:nonzero;stroke:#8c7250;stroke-width:1;stroke-linecap:round;stroke-linejoin:round;marker:none;stroke-miterlimit:4;stroke-dasharray:none;stroke-dashoffset:0;stroke-opacity:1;visibility:visible;display:inline;overflow:visible;enable-background:accumulate"/>
<path d="M 21.18,9.25 L 0.55,18.65 L 3.24,30.21 L 3,30.56 L 3,51.46 L 24,61.96 L 45,51.46 L 45,31.03 L 45.46,30.78 L 47.40,19.62 L 36.40,25.12 L 23.40,18.62 L 21.18,9.25 z" id="p2406" style="fill:none;fill-opacity:1;fill-rule:nonzero;stroke:#8c7250;stroke-width:1;stroke-linecap:butt;stroke-linejoin:round;marker:none;stroke-miterlimit:4;stroke-dasharray:none;stroke-dashoffset:0;stroke-opacity:1;visibility:visible;display:inline;overflow:visible;enable-background:accumulate"/>
</svg>
