<?xml version="1.0" encoding="UTF-8" standalone="no"?>

<svg xmlns:svg="http://www.w3.org/2000/svg" xmlns="http://www.w3.org/2000/svg" version="1.0" width="100%" height="100%" viewBox="0 0 48 64" id="svg2985" style="display:inline">
<defs id="defs2987"/>
<g id="g2677">
<path d="M 24,36.07 L 2.65,46.82 L 2.70,51.60 L 24,62.28 L 24,36.07 z" id="p2597" style="opacity:1;fill:#b18755;fill-opacity:1;stroke:none"/>
<path d="M 23.96,36.40 L 23.96,62.30 L 45.12,51.46 L 45.12,46.71 L 23.96,36.40 z" id="p2599" style="opacity:1;fill:#bd996f;fill-opacity:1;stroke:none"/>
<path d="M 3.94,35.15 L 3.94,46.10 L 24,56.13 L 44.05,46.10 L 44.05,35.15 L 3.94,35.15 z" id="p2463" style="opacity:1;fill:#b18755;fill-opacity:1;fill-rule:nonzero;stroke:none;marker:none;visibility:visible;display:inline;overflow:visible;enable-background:accumulate"/>
<path d="M 24.05,35.14 L 23.93,56.11 L 23.99,56.14 L 44.05,46.11 L 44.05,35.14 L 24.05,35.14 z" id="p2465" style="opacity:1;fill:#bd996f;fill-opacity:1;fill-rule:nonzero;stroke:none;marker:none;visibility:visible;display:inline;overflow:visible;enable-background:accumulate"/>
<path d="M 23.96,20.09 L 23.96,45.99 L 45.12,35.14 L 45.12,30.39 L 23.96,20.09 z" id="p2439" style="opacity:1;fill:#bd996f;fill-opacity:1;stroke:none"/>
<path d="M 24,19.75 L 2.65,30.51 L 2.70,35.29 L 24,45.96 L 24,19.75 z" id="p2437" style="opacity:1;fill:#b18755;fill-opacity:1;stroke:none"/>
<path d="M 24,41.33 L 24,61.69" id="p2605" style="opacity:1;fill:none;fill-opacity:1;fill-rule:nonzero;stroke:#cba981;stroke-width:2;stroke-linecap:butt;stroke-linejoin:miter;marker:none;stroke-miterlimit:4;stroke-dasharray:none;stroke-dashoffset:0;stroke-opacity:1;visibility:visible;display:inline;overflow:visible;enable-background:accumulate"/>
<path d="M 44.83,46.97 L 24.05,57.36 L 3.21,46.94" id="p2607" style="opacity:1;fill:none;fill-opacity:1;fill-rule:nonzero;stroke:#d9be9f;stroke-width:1.5;stroke-linecap:butt;stroke-linejoin:round;marker:none;stroke-miterlimit:4;stroke-dasharray:none;stroke-dashoffset:0;stroke-opacity:1;visibility:visible;display:inline;overflow:visible;enable-background:accumulate"/>
<path d="M 24.05,41.18 L 45.36,30.51 L 24.05,19.84 L 2.71,30.56 L 24.05,41.18 z" id="p2443" style="opacity:1;fill:#d2b18a;fill-opacity:1;stroke:none"/>
<path d="M 44.83,30.65 L 24.05,41.05 L 3.21,30.62" id="p2445" style="opacity:1;fill:none;fill-opacity:1;fill-rule:nonzero;stroke:#d9be9f;stroke-width:1.5;stroke-linecap:butt;stroke-linejoin:round;marker:none;stroke-miterlimit:4;stroke-dasharray:none;stroke-dashoffset:0;stroke-opacity:1;visibility:visible;display:inline;overflow:visible;enable-background:accumulate"/>
<path d="M 24,19.68 L 2.99,30.18 L 2.99,35.14 L 24,45.65 L 45.00,35.14 L 45.00,30.18 L 24,19.68 z" id="p2447" style="opacity:1;fill:none;fill-opacity:1;fill-rule:nonzero;stroke:#8c7250;stroke-width:1;stroke-linecap:butt;stroke-linejoin:round;marker:none;stroke-miterlimit:4;stroke-dasharray:none;stroke-dashoffset:0;stroke-opacity:1;visibility:visible;display:inline;overflow:visible;enable-background:accumulate"/>
<path d="M 2.99,35.14 L 24,45.65 L 45.00,35.14" id="p2472" style="opacity:1;fill:none;fill-opacity:1;fill-rule:nonzero;stroke:#8c7250;stroke-width:1;stroke-linecap:butt;stroke-linejoin:round;marker:none;stroke-miterlimit:4;stroke-dasharray:none;stroke-dashoffset:0;stroke-opacity:1;visibility:visible;display:inline;overflow:visible;enable-background:accumulate"/>
<path d="M 23.99,19.68 L 2.99,30.18 L 2.99,35.14 L 3.93,35.61 L 3.93,46.02 L 2.99,46.49 L 2.99,51.46 L 23.99,61.96 L 44.99,51.46 L 44.99,46.49 L 44.05,46.02 L 44.05,35.61 L 44.99,35.14 L 44.99,30.18 L 23.99,19.68 z" id="p2613" style="opacity:1;fill:none;fill-opacity:1;fill-rule:nonzero;stroke:#8c7250;stroke-width:1;stroke-linecap:butt;stroke-linejoin:round;marker:none;stroke-miterlimit:4;stroke-dasharray:none;stroke-dashoffset:0;stroke-opacity:1;visibility:visible;display:inline;overflow:visible;enable-background:accumulate"/>
<path d="M 3.94,46.10 L 24,56.13 L 44.05,46.10" id="p2481" style="opacity:1;fill:none;fill-opacity:1;fill-rule:nonzero;stroke:#8c7250;stroke-width:1;stroke-linecap:butt;stroke-linejoin:round;marker:none;stroke-miterlimit:4;stroke-dasharray:none;stroke-dashoffset:0;stroke-opacity:1;visibility:visible;display:inline;overflow:visible;enable-background:accumulate"/>
<path d="M 33.90,24.63 L 12.90,35.13 L 12.90,40.10 L 13.83,40.57 L 13.83,50.97 L 12.90,51.44 L 12.90,56.41" id="p2483" style="opacity:1;fill:none;fill-opacity:1;fill-rule:nonzero;stroke:#8c7250;stroke-width:0.5;stroke-linecap:butt;stroke-linejoin:round;marker:none;stroke-miterlimit:4;stroke-dasharray:none;stroke-dashoffset:0;stroke-opacity:1;visibility:visible;display:inline;overflow:visible;enable-background:accumulate"/>
<path d="M 28.56,21.91 L 7.56,32.41 L 7.56,37.38 L 8.49,37.85 L 8.49,48.25 L 7.56,48.72 L 7.56,53.69" id="p3255" style="opacity:1;fill:none;fill-opacity:1;fill-rule:nonzero;stroke:#8c7250;stroke-width:0.5;stroke-linecap:butt;stroke-linejoin:round;marker:none;stroke-miterlimit:4;stroke-dasharray:none;stroke-dashoffset:0;stroke-opacity:1;visibility:visible;display:inline;overflow:visible;enable-background:accumulate"/>
<path d="M 39.24,27.44 L 18.24,37.94 L 18.24,42.91 L 19.18,43.38 L 19.18,53.79 L 18.24,54.26 L 18.24,59.23" id="p3257" style="opacity:1;fill:none;fill-opacity:1;fill-rule:nonzero;stroke:#8c7250;stroke-width:0.5;stroke-linecap:butt;stroke-linejoin:round;marker:none;stroke-miterlimit:4;stroke-dasharray:none;stroke-dashoffset:0;stroke-opacity:1;visibility:visible;display:inline;overflow:visible;enable-background:accumulate"/>
<path d="M 24.45,38.57 L 29.71,36.00 L 19.10,30.69 L 13.82,33.28 L 24.45,38.57 z" id="p3259" style="opacity:1;fill:#e6e6e6;fill-opacity:1;stroke:none"/>
<path d="M 35.99,44.86 C 35.86,44.87 35.71,44.91 35.55,44.99 L 26.65,49.39 C 26.03,49.70 25.52,50.49 25.52,51.18 L 25.52,52.55 C 25.52,53.23 26.03,53.54 26.65,53.24 L 35.55,48.83 C 36.17,48.53 36.65,47.73 36.65,47.05 L 36.65,45.68 C 36.65,45.16 36.39,44.85 35.99,44.86 z" id="r3261" style="opacity:1;fill:#cccccc;fill-opacity:1;fill-rule:nonzero;stroke:none;marker:none;visibility:visible;display:inline;overflow:visible;enable-background:accumulate"/>
<path d="M 26.80,52.03 L 35.15,47.83" id="p3263" style="opacity:1;fill:none;fill-rule:evenodd;stroke:#74625a;stroke-width:0.69;stroke-linecap:round;stroke-linejoin:miter;stroke-miterlimit:4;stroke-dasharray:none;stroke-opacity:1"/>
<path d="M 26.80,50.77 L 35.15,46.60" id="p3265" style="opacity:1;fill:none;fill-rule:evenodd;stroke:#74625a;stroke-width:0.69;stroke-linecap:round;stroke-linejoin:miter;stroke-miterlimit:4;stroke-dasharray:none;stroke-opacity:1"/>
</g>
</svg>
