<?xml version="1.0" encoding="UTF-8" standalone="no"?>

<svg xmlns:svg="http://www.w3.org/2000/svg" xmlns="http://www.w3.org/2000/svg" version="1.0" width="100%" height="100%" viewBox="0 0 48 64" id="svg2985" style="display:inline">
<defs id="defs2987"/>
<path d="M 24,19.72 2.65,30.47 2.71,51.59 24,62.27 24,19.72 z" id="p2396" style="fill:#c44242;fill-opacity:1;stroke:none"/>
<path d="m 23.96,19.91 0,42.38 21.43,-10.67 0,-21.23 -21.43,-10.48 z" id="p2398" style="fill:#cf5d5d;fill-opacity:1;stroke:none"/>
<path d="m 24,41.1 0,20.58" id="p2400" style="fill:none;stroke:#d67676;stroke-width:2;stroke-linecap:butt;stroke-linejoin:miter;stroke-miterlimit:4;stroke-opacity:1;stroke-dasharray:none;stroke-dashoffset:0;marker:none;visibility:visible;display:inline;overflow:visible;enable-background:accumulate"/>
<path d="M 24.05,41.01 45.36,30.34 24.05,19.66 2.71,30.39 24.05,41.01 z" id="p2402" style="fill:#de7e7e;fill-opacity:1;stroke:none"/>
<path d="M 24.05,39.91 4.18,30.04" id="p3538" style="fill:none;stroke:#e8cccc;stroke-width:0.60;stroke-linecap:round;stroke-linejoin:round;stroke-miterlimit:4;stroke-opacity:1;stroke-dasharray:none;stroke-dashoffset:0;marker:none;visibility:visible;display:inline;overflow:visible;enable-background:accumulate"/>
<path d="M 31.71,23.5 10.34,34.18 15.96,36.96 37.31,26.31 31.71,23.5 z" id="r3529" style="fill:#e5cdcd;fill-opacity:1;fill-rule:nonzero;stroke:none;marker:none;visibility:visible;display:inline;overflow:visible;enable-background:accumulate"/>
<path d="M 44.84,30.61 24.05,41.01 3.21,30.59" id="p2404" style="fill:none;stroke:#e39595;stroke-width:1.5;stroke-linecap:butt;stroke-linejoin:round;stroke-miterlimit:4;stroke-opacity:1;stroke-dasharray:none;stroke-dashoffset:0;marker:none;visibility:visible;display:inline;overflow:visible;enable-background:accumulate"/>
<path d="M 13.6,35.35 34.25,25.14" id="p3536" style="fill:none;stroke:#4e1c1c;stroke-width:1px;stroke-linecap:butt;stroke-linejoin:miter;stroke-opacity:1"/>
<path d="M 23.64,40.32 3.76,30.45" id="p3534" style="fill:none;stroke:#4e1c1c;stroke-width:0.69;stroke-linecap:round;stroke-linejoin:miter;stroke-miterlimit:4;stroke-opacity:1;stroke-dasharray:none;stroke-dashoffset:0;marker:none;visibility:visible;display:inline;overflow:visible;enable-background:accumulate"/>
<path d="M 18.8,40.91 C 18.67,40.84 18.53,40.86 18.43,41 l -2.12,2.81 c -0.19,0.25 -0.2,0.81 -0.03,1.28 l 1.41,0.72 0,3.9 c 0,0.42 0.19,0.85 0.42,0.97 l 1.35,0.69 c 0.23,0.12 0.42,-0.13 0.42,-0.55 l 0,-3.9 1.45,0.74 c 0.17,-0.3 0.16,-0.86 -0.04,-1.31 l -2.11,-4.97 c -0.11,-0.24 -0.24,-0.4 -0.38,-0.47 z" id="r3515" style="fill:#612b2b;fill-opacity:1;fill-rule:nonzero;stroke:none;marker:none;visibility:visible;display:inline;overflow:visible;enable-background:accumulate"/>
<path d="m 33.62,38.25 c -0.1,0 -0.23,0.03 -0.34,0.09 l -6.78,3.31 c -0.48,0.23 -0.88,0.85 -0.88,1.38 l 0,6.15 c 0,0.53 0.4,0.76 0.88,0.53 l 6.78,-3.31 c 0.47,-0.23 0.84,-0.85 0.84,-1.37 l 0,-6.16 c 0,-0.39 -0.19,-0.63 -0.5,-0.62 z" id="r3523" style="fill:#d9d9d9;fill-opacity:1;fill-rule:nonzero;stroke:none;marker:none;visibility:visible;display:inline;overflow:visible;enable-background:accumulate"/>
<path d="m 4.43,45.93 c -0.2,0 -0.34,0.12 -0.34,0.38 l 0,3.65 c 0,0.34 0.26,0.73 0.56,0.88 l 5.13,2.56 c 0.3,0.15 0.56,0 0.56,-0.34 l 0,-3.63 c 0,-0.34 -0.26,-0.72 -0.56,-0.87 L 4.65,46 C 4.58,45.96 4.5,45.93 4.43,45.93 z" id="r3525" style="fill:#cfcfcf;fill-opacity:1;fill-rule:nonzero;stroke:none;marker:none;visibility:visible;display:inline;overflow:visible;enable-background:accumulate"/>
<path d="m 14.04,26.55 -6.78,3.4 4.25,2.13 6.78,-3.41 -4.25,-2.12 z" id="p3542" style="fill:#e5e3e3;fill-opacity:1;stroke:none"/>
<path d="m 35.48,53.95 7.15,-3.57" id="p3547" style="fill:none;stroke:#5f2727;stroke-width:0.80;stroke-linecap:round;stroke-linejoin:miter;stroke-miterlimit:4;stroke-opacity:1;stroke-dasharray:none"/>
<path d="m 35.48,52.44 7.15,-3.57" id="p3549" style="fill:none;stroke:#5f2727;stroke-width:0.80;stroke-linecap:round;stroke-linejoin:miter;stroke-miterlimit:4;stroke-opacity:1;stroke-dasharray:none"/>
<path d="m 35.48,50.79 7.15,-3.58" id="p3551" style="fill:none;stroke:#5f2727;stroke-width:0.80;stroke-linecap:round;stroke-linejoin:miter;stroke-miterlimit:4;stroke-opacity:1;stroke-dasharray:none"/>
<path d="m 24,20.06 -21.01,10.5 0,20.89 21.01,10.5 21.01,-10.5 0,-20.89 L 24,20.06 z" id="p2406" style="fill:none;stroke:#923636;stroke-width:1;stroke-linecap:butt;stroke-linejoin:round;stroke-miterlimit:4;stroke-opacity:1;stroke-dasharray:none;stroke-dashoffset:0;marker:none;visibility:visible;display:inline;overflow:visible;enable-background:accumulate"/>
</svg>
