<?xml version="1.0" encoding="UTF-8" standalone="no"?>

<svg xmlns:svg="http://www.w3.org/2000/svg" xmlns="http://www.w3.org/2000/svg" version="1.0" width="100%" height="100%" viewBox="0 0 48 64" id="svg2985" style="display:inline">
<defs id="defs2987"/>
<path d="m 24.05,19.72 21.35,10.75 -0.06,21.12 -21.29,10.68 0,-42.55 z" id="p2396" style="fill:#7bc37d;fill-opacity:1;stroke:none"/>
<path d="m 24.09,19.91 0,42.38 -21.43,-10.67 0,-21.23 21.43,-10.48 z" id="p2398" style="fill:#55b160;fill-opacity:1;stroke:none"/>
<path d="m 24.05,41.1 0,20.58" id="p2400" style="fill:none;stroke:#81cb91;stroke-width:2;stroke-linecap:butt;stroke-linejoin:miter;stroke-miterlimit:4;stroke-opacity:1;stroke-dasharray:none;stroke-dashoffset:0;marker:none;visibility:visible;display:inline;overflow:visible;enable-background:accumulate"/>
<path d="M 24,41.01 2.69,30.34 24,19.66 45.34,30.39 24,41.01 z" id="p2402" style="fill:#8dd28a;fill-opacity:1;stroke:none"/>
<path d="M 24,39.91 43.87,30.04" id="p3538" style="fill:none;stroke:#c6e8c2;stroke-width:0.60;stroke-linecap:round;stroke-linejoin:round;stroke-miterlimit:4;stroke-opacity:1;stroke-dasharray:none;stroke-dashoffset:0;marker:none;visibility:visible;display:inline;overflow:visible;enable-background:accumulate"/>
<path d="M 16.34,23.5 37.71,34.18 32.09,36.96 10.74,26.31 16.34,23.5 z" id="r3529" style="fill:#cfe5cd;fill-opacity:1;fill-rule:nonzero;stroke:none;marker:none;visibility:visible;display:inline;overflow:visible;enable-background:accumulate"/>
<path d="M 3.21,30.61 24,41.01 44.84,30.59" id="p2404" style="fill:none;stroke:#9fd9a4;stroke-width:1.5;stroke-linecap:butt;stroke-linejoin:round;stroke-miterlimit:4;stroke-opacity:1;stroke-dasharray:none;stroke-dashoffset:0;marker:none;visibility:visible;display:inline;overflow:visible;enable-background:accumulate"/>
<path d="M 34.45,35.35 13.8,25.14" id="p3536" style="fill:none;stroke:#325433;stroke-width:1px;stroke-linecap:butt;stroke-linejoin:miter;stroke-opacity:1"/>
<path d="M 24.41,40.32 44.29,30.45" id="p3534" style="fill:none;stroke:#305a32;stroke-width:0.69;stroke-linecap:round;stroke-linejoin:miter;stroke-miterlimit:4;stroke-opacity:1;stroke-dasharray:none;stroke-dashoffset:0;marker:none;visibility:visible;display:inline;overflow:visible;enable-background:accumulate"/>
<path d="m 41.11,34.3 c 0.14,-0.07 0.27,-0.05 0.38,0.09 l 2.11,2.8 c 0.2,0.26 0.21,0.81 0.04,1.28 l -1.42,0.73 0,3.89 c 0,0.43 -0.18,0.86 -0.41,0.98 l -1.36,0.69 c -0.23,0.12 -0.41,-0.13 -0.41,-0.55 l 0,-3.9 -1.45,0.74 c -0.17,-0.3 -0.16,-0.86 0.03,-1.32 l 2.12,-4.96 c 0.1,-0.25 0.24,-0.4 0.37,-0.47 z" id="r3515" style="fill:#4c8952;fill-opacity:1;fill-rule:nonzero;stroke:none;marker:none;visibility:visible;display:inline;overflow:visible;enable-background:accumulate"/>
<path d="m 31.75,51.96 c -0.07,0.01 -0.15,0.03 -0.22,0.07 l -5.13,2.56 c -0.3,0.15 -0.56,0.53 -0.56,0.87 l 0,3.63 c 0,0.34 0.26,0.49 0.56,0.34 l 5.13,-2.56 c 0.3,-0.15 0.56,-0.57 0.56,-0.91 l 0,-3.62 c 0,-0.26 -0.15,-0.38 -0.34,-0.38 z" id="r3525" style="fill:#c3dcc2;fill-opacity:1;fill-rule:nonzero;stroke:none;marker:none;visibility:visible;display:inline;overflow:visible;enable-background:accumulate"/>
<path d="m 21.56,32.96 6.78,3.41 -4.25,2.13 -6.78,-3.41 4.25,-2.13 z" id="p3542" style="fill:#b6ebb2;fill-opacity:1;stroke:none"/>
<path d="m 5.18,33.9 c -0.3,-0.01 -0.53,0.2 -0.53,0.6 l 0,9 c 0,0.52 0.41,1.13 0.88,1.37 l 7.62,3.81 c 0.47,0.24 0.85,0 0.85,-0.53 l 0,-8.97 c 0,-0.52 -0.38,-1.14 -0.85,-1.37 L 5.53,34 C 5.41,33.94 5.28,33.9 5.18,33.9 z m 0.07,11.88 c -0.36,-0.02 -0.6,0.26 -0.6,0.72 l 0,0.37 c 0,0.61 0.46,1.32 1,1.59 l 7.38,3.79 c 0.54,0.27 0.97,0.01 0.97,-0.6 l 0,-0.37 c 0,-0.61 -0.43,-1.32 -0.97,-1.6 L 5.65,45.9 C 5.52,45.83 5.36,45.78 5.25,45.78 z" id="r3651" style="fill:#588351;fill-opacity:1;fill-rule:nonzero;stroke:none;marker:none;visibility:visible;display:inline;overflow:visible;enable-background:accumulate"/>
<path d="m 6.18,36.69 5.71,2.96" id="p3656" style="fill:none;stroke:#54a95a;stroke-width:0.60;stroke-linecap:round;stroke-linejoin:miter;stroke-miterlimit:4;stroke-opacity:1;stroke-dasharray:none"/>
<path d="m 6.18,38.3 5.71,2.95" id="p3666" style="fill:none;stroke:#54a95a;stroke-width:0.60;stroke-linecap:round;stroke-linejoin:miter;stroke-miterlimit:4;stroke-opacity:1;stroke-dasharray:none"/>
<path d="m 6.18,39.95 5.71,2.96" id="p3668" style="fill:none;stroke:#54a95a;stroke-width:0.60;stroke-linecap:round;stroke-linejoin:miter;stroke-miterlimit:4;stroke-opacity:1;stroke-dasharray:none"/>
<path d="m 6.18,41.65 5.71,2.96" id="p3670" style="fill:none;stroke:#54a95a;stroke-width:0.60;stroke-linecap:round;stroke-linejoin:miter;stroke-miterlimit:4;stroke-opacity:1;stroke-dasharray:none"/>
<path d="m 24.05,20.06 21.01,10.5 0,20.89 -21.01,10.5 -21.01,-10.5 0,-20.89 21.01,-10.5 z" id="p2406" style="fill:none;stroke:#508c56;stroke-width:1;stroke-linecap:butt;stroke-linejoin:round;stroke-miterlimit:4;stroke-opacity:1;stroke-dasharray:none;stroke-dashoffset:0;marker:none;visibility:visible;display:inline;overflow:visible;enable-background:accumulate"/>
</svg>
