<?xml version="1.0" encoding="UTF-8" standalone="no"?>

<svg xmlns:svg="http://www.w3.org/2000/svg" xmlns="http://www.w3.org/2000/svg" version="1.0" width="100%" height="100%" viewBox="0 0 48 64" id="svg2985" style="display:inline">
<defs id="defs2987"/>
<path d="M 24.00,19.72 L 2.65,30.47 L 2.71,51.59 L 24.00,62.27 L 24.00,19.72 z" id="p2396" style="fill:#b18755;fill-opacity:1;stroke:none"/>
<path d="M 23.96,19.91 L 23.96,62.29 L 45.39,51.62 L 45.39,30.39 L 23.96,19.91 z" id="p2398" style="fill:#bd996f;fill-opacity:1;stroke:none"/>
<path d="M 24.00,41.10 L 24.00,61.68" id="p2400" style="fill:none;fill-opacity:1;fill-rule:nonzero;stroke:#cba981;stroke-width:2;stroke-linecap:butt;stroke-linejoin:miter;marker:none;stroke-miterlimit:4;stroke-dasharray:none;stroke-dashoffset:0;stroke-opacity:1;visibility:visible;display:inline;overflow:visible;enable-background:accumulate"/>
<path d="M 24.05,41.01 L 45.36,30.34 L 24.05,19.66 L 2.71,30.39 L 24.05,41.01 z" id="p2402" style="fill:#55432d;fill-opacity:1;stroke:none"/>
<path d="M 23.78,19.81 L 2.71,30.40 L 23.78,40.87 L 23.78,19.81 z" id="p3200" style="opacity:1;fill:#af8a5e;fill-opacity:1;fill-rule:nonzero;stroke:none;marker:none;visibility:visible;display:inline;overflow:visible;enable-background:accumulate"/>
<path d="M 18.80,40.91 C 18.67,40.84 18.53,40.86 18.43,41.00 L 16.31,43.81 C 16.12,44.06 16.11,44.62 16.28,45.09 L 17.69,45.81 L 17.69,49.71 C 17.69,50.13 17.88,50.56 18.11,50.68 L 19.46,51.37 C 19.69,51.49 19.88,51.24 19.88,50.82 L 19.88,46.92 L 21.33,47.66 C 21.50,47.36 21.49,46.80 21.29,46.35 L 19.18,41.38 C 19.07,41.14 18.94,40.98 18.80,40.91 z" id="r3515" style="fill:#9a3b3b;fill-opacity:1;fill-rule:nonzero;stroke:none;marker:none;visibility:visible;display:inline;overflow:visible;enable-background:accumulate"/>
<path d="M 33.62,38.25 C 33.52,38.25 33.39,38.28 33.28,38.34 L 26.5,41.65 C 26.02,41.88 25.62,42.50 25.62,43.03 L 25.62,49.18 C 25.62,49.71 26.02,49.94 26.5,49.71 L 33.28,46.40 C 33.75,46.17 34.12,45.55 34.12,45.03 L 34.12,38.87 C 34.12,38.48 33.93,38.24 33.62,38.25 z" id="r3523" style="fill:#d9d9d9;fill-opacity:1;fill-rule:nonzero;stroke:none;marker:none;visibility:visible;display:inline;overflow:visible;enable-background:accumulate"/>
<path d="M 14.73,51.27 C 14.53,51.27 14.38,51.39 14.38,51.65 L 14.38,55.30 C 14.38,55.65 14.64,56.03 14.95,56.18 L 20.07,58.74 C 20.38,58.89 20.63,58.74 20.63,58.40 L 20.63,54.77 C 20.63,54.43 20.38,54.05 20.07,53.90 L 14.95,51.34 C 14.87,51.30 14.79,51.28 14.73,51.27 z" id="r3525" style="fill:#cfcfcf;fill-opacity:1;fill-rule:nonzero;stroke:none;marker:none;visibility:visible;display:inline;overflow:visible;enable-background:accumulate"/>
<path d="M 35.48,53.95 L 42.63,50.38" id="p3547" style="fill:none;fill-rule:evenodd;stroke:#574134;stroke-width:0.80;stroke-linecap:round;stroke-linejoin:miter;stroke-miterlimit:4;stroke-dasharray:none;stroke-opacity:1"/>
<path d="M 35.48,52.44 L 42.63,48.87" id="p3549" style="fill:none;fill-rule:evenodd;stroke:#574134;stroke-width:0.80;stroke-linecap:round;stroke-linejoin:miter;stroke-miterlimit:4;stroke-dasharray:none;stroke-opacity:1"/>
<path d="M 35.48,50.79 L 42.63,47.21" id="p3551" style="fill:none;fill-rule:evenodd;stroke:#574134;stroke-width:0.80;stroke-linecap:round;stroke-linejoin:miter;stroke-miterlimit:4;stroke-dasharray:none;stroke-opacity:1"/>
<path d="M 17.67,27.67 L 22.62,25.25 L 31.56,29.33 L 21.46,36.32 L 17.67,27.67 z" id="p3213" style="fill:#4e5c4d;fill-opacity:1;fill-rule:evenodd;stroke:#374137;stroke-width:0.60;stroke-linecap:round;stroke-linejoin:round;stroke-miterlimit:4;stroke-dasharray:none;stroke-opacity:1"/>
<path d="M 21.18,9.25 L 0.61,18.71 L 3.33,30.37 L 23.75,20.12 L 21.18,9.25 z" id="p3174" style="opacity:1;fill:#d2b18a;fill-opacity:1;fill-rule:nonzero;stroke:none;marker:none;visibility:visible;display:inline;overflow:visible;enable-background:accumulate"/>
<path d="M 7.68,21.56 L 3.40,30.78 L 24.87,41.56 L 25.34,39.84 L 26.43,30.12 L 7.68,21.56 z" id="p3179" style="opacity:1;fill:#b89265;fill-opacity:1;fill-rule:nonzero;stroke:none;marker:none;visibility:visible;display:inline;overflow:visible;enable-background:accumulate"/>
<path d="M 24.99,41.20 L 24.17,31.72 L 28.97,31.03 L 24.99,41.20 z" id="p3211" style="opacity:1;fill:#6a573f;fill-opacity:1;fill-rule:nonzero;stroke:none;marker:none;visibility:visible;display:inline;overflow:visible;enable-background:accumulate"/>
<path d="M 47.40,19.62 L 26.43,30.12 L 25.22,41.04 L 45.45,30.78 L 47.40,19.62 z" id="p2399" style="opacity:1;fill:#a68257;fill-opacity:1;fill-rule:nonzero;stroke:none;marker:none;visibility:visible;display:inline;overflow:visible;enable-background:accumulate"/>
<path d="M 19.31,16.59 L 23.87,20.31 L 34.90,25.87 L 36.40,25.12 L 19.31,16.59 z" id="p3185" style="opacity:1;fill:#483a29;fill-opacity:1;fill-rule:nonzero;stroke:none;marker:none;visibility:visible;display:inline;overflow:visible;enable-background:accumulate"/>
<path d="M 45.45,30.78 L 47.40,19.62 L 26.43,30.12 L 25.22,41.04" id="p3205" style="opacity:1;fill:none;fill-opacity:1;fill-rule:nonzero;stroke:#8c7250;stroke-width:1;stroke-linecap:round;stroke-linejoin:round;marker:none;stroke-miterlimit:4;stroke-dasharray:none;stroke-dashoffset:0;stroke-opacity:1;visibility:visible;display:inline;overflow:visible;enable-background:accumulate"/>
<path d="M 3.43,31.10 L 24.51,41.61 L 44.86,31.17" id="p3215" style="opacity:1;fill:none;fill-opacity:1;fill-rule:nonzero;stroke:#997d5d;stroke-width:0.5;stroke-linecap:round;stroke-linejoin:round;marker:none;stroke-miterlimit:4;stroke-dasharray:none;stroke-dashoffset:0;stroke-opacity:1;visibility:visible;display:inline;overflow:visible;enable-background:accumulate"/>
<path d="M 36.40,25.12 L 19.31,16.59 L 23.87,20.31" id="p3207" style="opacity:1;fill:none;fill-opacity:1;fill-rule:nonzero;stroke:#8c7250;stroke-width:1;stroke-linecap:round;stroke-linejoin:round;marker:none;stroke-miterlimit:4;stroke-dasharray:none;stroke-dashoffset:0;stroke-opacity:1;visibility:visible;display:inline;overflow:visible;enable-background:accumulate"/>
<path d="M 26.43,30.12 L 7.68,21.56 L 3.40,30.78" id="p3209" style="opacity:1;fill:none;fill-opacity:1;fill-rule:nonzero;stroke:#8c7250;stroke-width:1;stroke-linecap:round;stroke-linejoin:round;marker:none;stroke-miterlimit:4;stroke-dasharray:none;stroke-dashoffset:0;stroke-opacity:1;visibility:visible;display:inline;overflow:visible;enable-background:accumulate"/>
<path d="M 21.18,9.25 L 0.55,18.65 L 3.24,30.21 L 3,30.56 L 3,51.46 L 24,61.96 L 45,51.46 L 45,31.03 L 45.46,30.78 L 47.40,19.62 L 36.40,25.12 L 23.40,18.62 L 21.18,9.25 z" id="p2406" style="fill:none;fill-opacity:1;fill-rule:nonzero;stroke:#8c7250;stroke-width:1;stroke-linecap:butt;stroke-linejoin:round;marker:none;stroke-miterlimit:4;stroke-dasharray:none;stroke-dashoffset:0;stroke-opacity:1;visibility:visible;display:inline;overflow:visible;enable-background:accumulate"/>
<path d="M 5.28,36.32 C 4.76,36.30 4.38,36.63 4.38,37.30 L 4.38,46.85 C 4.38,47.74 5.05,48.74 5.85,49.14 L 15.26,53.70 C 16.05,54.09 16.73,53.69 16.73,52.80 L 16.73,43.33 C 16.73,42.44 16.05,41.44 15.26,41.04 L 5.85,36.48 C 5.65,36.38 5.45,36.32 5.28,36.32 z" id="p3190" style="fill:#dddd51;fill-opacity:1;fill-rule:nonzero;stroke:none;marker:none;visibility:visible;display:inline;overflow:visible;enable-background:accumulate"/>
<path d="M 6.81,38.74 C 6.63,38.66 6.49,38.67 6.49,38.78 L 6.49,41.90 C 6.49,41.92 6.50,41.93 6.50,41.94 C 6.49,41.99 6.49,42.04 6.49,42.09 C 6.49,43.26 7.89,44.91 9.71,45.94 L 9.71,48.98 L 7.01,47.67 C 6.84,47.59 6.70,47.60 6.70,47.70 L 6.70,47.84 C 6.70,47.94 6.84,48.10 7.01,48.18 L 13.50,51.32 C 13.67,51.41 13.82,51.39 13.82,51.29 L 13.82,51.15 C 13.82,51.05 13.67,50.90 13.50,50.81 L 10.78,49.49 L 10.78,46.45 C 12.56,47.15 13.93,46.85 13.93,45.69 C 13.93,45.64 13.92,45.59 13.92,45.54 C 13.92,45.53 13.93,45.52 13.93,45.51 L 13.93,42.38 C 13.93,42.27 13.79,42.12 13.61,42.03 L 9.87,40.22 L 9.13,40.70 L 9.83,41.28 C 9.87,41.31 9.90,41.35 9.91,41.39 C 9.93,41.43 9.92,41.45 9.90,41.47 L 8.78,42.06 L 9.40,42.59 C 9.44,42.63 9.47,42.67 9.48,42.70 C 9.49,42.74 9.48,42.76 9.46,42.78 L 8.73,43.15 C 8.67,43.18 8.56,43.14 8.47,43.06 C 8.39,42.99 8.37,42.91 8.42,42.88 L 9.05,42.56 L 8.45,42.03 C 8.36,41.95 8.34,41.88 8.39,41.85 L 9.49,41.26 L 8.80,40.68 C 8.76,40.65 8.73,40.61 8.72,40.58 C 8.70,40.54 8.70,40.51 8.73,40.49 L 9.45,40.02 L 6.81,38.74 z" id="p3210" style="opacity:1;fill:#666666;fill-opacity:1;fill-rule:nonzero;stroke:none;marker:none;visibility:visible;display:inline;overflow:visible;enable-background:accumulate"/>
<path d="M 41.29,36.00 C 41.81,35.99 42.19,36.31 42.19,36.98 L 42.19,46.53 C 42.19,47.42 41.52,48.42 40.72,48.82 L 31.31,53.38 C 30.52,53.78 29.84,53.37 29.84,52.48 L 29.84,43.01 C 29.84,42.12 30.52,41.12 31.31,40.72 L 40.72,36.16 C 40.92,36.06 41.12,36.01 41.29,36.00 z" id="p3212" style="fill:#dddd51;fill-opacity:1;fill-rule:nonzero;stroke:none;marker:none;visibility:visible;display:inline;overflow:visible;enable-background:accumulate"/>
<path d="M 39.76,38.42 C 39.94,38.34 40.08,38.35 40.08,38.46 L 40.08,41.59 C 40.08,41.60 40.08,41.61 40.07,41.63 C 40.08,41.67 40.08,41.72 40.08,41.77 C 40.08,42.94 38.68,44.59 36.86,45.62 L 36.86,48.66 L 39.56,47.35 C 39.73,47.27 39.88,47.28 39.88,47.39 L 39.88,47.52 C 39.88,47.63 39.73,47.78 39.56,47.87 L 33.07,51.00 C 32.90,51.09 32.76,51.07 32.76,50.97 L 32.76,50.83 C 32.76,50.73 32.90,50.58 33.07,50.49 L 35.80,49.18 L 35.80,46.13 C 34.01,46.83 32.64,46.53 32.64,45.37 C 32.64,45.32 32.65,45.27 32.65,45.22 C 32.65,45.21 32.64,45.20 32.64,45.19 L 32.64,42.06 C 32.64,41.96 32.79,41.80 32.96,41.72 L 36.70,39.90 L 37.44,40.38 L 36.74,40.96 C 36.70,41.00 36.67,41.04 36.66,41.07 C 36.64,41.11 36.65,41.14 36.68,41.15 L 37.79,41.74 L 37.17,42.27 C 37.13,42.31 37.10,42.35 37.09,42.39 C 37.08,42.42 37.09,42.45 37.12,42.46 L 37.85,42.83 C 37.90,42.86 38.01,42.82 38.10,42.74 C 38.18,42.67 38.21,42.59 38.15,42.57 L 37.52,42.24 L 38.13,41.71 C 38.21,41.64 38.23,41.56 38.18,41.53 L 37.08,40.94 L 37.77,40.36 C 37.81,40.33 37.84,40.29 37.85,40.26 C 37.87,40.22 37.87,40.19 37.85,40.18 L 37.12,39.70 L 39.76,38.42 z" id="p3214" style="fill:#666666;fill-opacity:1;fill-rule:nonzero;stroke:none;marker:none;visibility:visible;display:inline;overflow:visible;enable-background:accumulate"/>
</svg>
