<?xml version="1.0" encoding="UTF-8" standalone="no"?>

<svg xmlns:svg="http://www.w3.org/2000/svg" xmlns="http://www.w3.org/2000/svg" version="1.0" width="100%" height="100%" viewBox="0 0 48 64" id="svg2985" style="display:inline">
<defs id="defs2987"/>
<path d="M 24.05,63.74 L 47.42,52.04 L 24.05,40.33 L 0.65,52.09 L 24.05,63.74 z" id="p3220" style="fill:#222222;fill-opacity:0.39;stroke:none;display:inline"/>
<path d="M 25.63,59.04 C 25.63,60.49 24.46,61.67 23.01,61.67 C 21.56,61.67 20.39,60.49 20.39,59.04 C 20.39,57.59 21.56,56.42 23.01,56.42 C 24.46,56.42 25.63,57.59 25.63,59.04 z" id="p3206" style="opacity:1;fill:#3b3b3b;fill-opacity:1;fill-rule:nonzero;stroke:#383835;stroke-width:1;stroke-linecap:butt;stroke-linejoin:round;marker:none;stroke-miterlimit:4;stroke-dasharray:none;stroke-dashoffset:0;stroke-opacity:1;visibility:visible;display:inline;overflow:visible;enable-background:accumulate"/>
<path d="M 4.40,47.09 C 2.95,47.09 1.78,48.27 1.78,49.71 C 1.78,51.16 2.95,52.34 4.40,52.34 C 5.85,52.34 7.03,51.16 7.03,49.71 C 7.03,48.27 5.85,47.09 4.40,47.09 z" id="p3208" style="opacity:1;fill:#3b3b3b;fill-opacity:1;fill-rule:nonzero;stroke:#383835;stroke-width:1;stroke-linecap:butt;stroke-linejoin:round;marker:none;stroke-miterlimit:4;stroke-dasharray:none;stroke-dashoffset:0;stroke-opacity:1;visibility:visible;display:inline;overflow:visible;enable-background:accumulate"/>
<path d="M 45.35,49.70 C 45.35,51.15 44.18,52.33 42.73,52.33 C 41.28,52.33 40.11,51.15 40.11,49.70 C 40.11,48.25 41.28,47.08 42.73,47.08 C 44.18,47.08 45.35,48.25 45.35,49.70 z" id="p3210" style="opacity:1;fill:#3b3b3b;fill-opacity:1;fill-rule:nonzero;stroke:#383835;stroke-width:1;stroke-linecap:butt;stroke-linejoin:round;marker:none;stroke-miterlimit:4;stroke-dasharray:none;stroke-dashoffset:0;stroke-opacity:1;visibility:visible;display:inline;overflow:visible;enable-background:accumulate"/>
<path d="M 24.00,32.38 L 0.98,43.89 L 0.98,46.77 L 24.00,58.28 L 47.02,46.77 L 47.02,43.89 L 24.00,32.38 z" id="p3188" style="fill:#595959;fill-opacity:1;fill-rule:nonzero;stroke:none;marker:none;visibility:visible;display:inline;overflow:visible;enable-background:accumulate"/>
<path d="M 1.06,46.69 L 1.16,43.87 L 23.98,55.14 L 23.79,58.15 L 1.06,46.69 z" id="p3194" style="fill:#3f3f3f;fill-opacity:1;fill-rule:evenodd;stroke:none;"/>
<path d="M 23.79,55.14 L 23.88,58.34 L 47.00,46.79 L 46.90,43.68 L 23.79,55.14 z" id="p3196" style="fill:#4d4d4d;fill-opacity:1;fill-rule:evenodd;stroke:none;"/>
<path d="M 23.88,55.24 L 23.88,57.96" id="p3192" style="fill:none;fill-opacity:1;fill-rule:nonzero;stroke:#55554f;stroke-width:1.5;stroke-linecap:butt;stroke-linejoin:round;marker:none;stroke-miterlimit:4;stroke-dasharray:none;stroke-dashoffset:0;stroke-opacity:1;visibility:visible;display:inline;overflow:visible;enable-background:accumulate"/>
<path d="M 0.98,43.66 L 24.00,55.17 L 47.02,43.66" id="p3190" style="fill:none;fill-opacity:1;fill-rule:nonzero;stroke:#727268;stroke-width:1;stroke-linecap:butt;stroke-linejoin:round;marker:none;stroke-miterlimit:4;stroke-dasharray:none;stroke-dashoffset:0;stroke-opacity:1;visibility:visible;display:inline;overflow:visible;enable-background:accumulate"/>
<path d="M 24.00,32.38 L 0.98,43.89 L 0.98,46.77 L 24.00,58.28 L 47.02,46.77 L 47.02,43.89 L 24.00,32.38 z" id="p2397" style="fill:none;fill-opacity:1;fill-rule:nonzero;stroke:#383835;stroke-width:1;stroke-linecap:butt;stroke-linejoin:round;marker:none;stroke-miterlimit:4;stroke-dasharray:none;stroke-dashoffset:0;stroke-opacity:1;visibility:visible;display:inline;overflow:visible;enable-background:accumulate"/>
<g id="g3239">
<path d="M 24.00,11.20 L 2.65,21.96 L 2.71,43.08 L 24.00,53.75 L 24.00,11.20 z" id="p2396" style="fill:#b18755;fill-opacity:1;stroke:none"/>
<path d="M 23.96,11.40 L 23.96,53.78 L 45.39,43.10 L 45.39,21.87 L 23.96,11.40 z" id="p2398" style="fill:#bd996f;fill-opacity:1;stroke:none"/>
<path d="M 24.00,32.58 L 24.00,53.16" id="p2400" style="fill:none;fill-opacity:1;fill-rule:nonzero;stroke:#cba981;stroke-width:2;stroke-linecap:butt;stroke-linejoin:miter;marker:none;stroke-miterlimit:4;stroke-dasharray:none;stroke-dashoffset:0;stroke-opacity:1;visibility:visible;display:inline;overflow:visible;enable-background:accumulate"/>
<path d="M 24.05,32.49 L 45.36,21.82 L 24.05,11.15 L 2.71,21.87 L 24.05,32.49 z" id="p2402" style="fill:#d2b18a;fill-opacity:1;stroke:none"/>
<path d="M 24.05,31.39 L 4.18,21.52" id="p3538" style="fill:none;fill-opacity:1;fill-rule:nonzero;stroke:#e3ceb6;stroke-width:0.60;stroke-linecap:round;stroke-linejoin:round;marker:none;stroke-miterlimit:4;stroke-dasharray:none;stroke-dashoffset:0;stroke-opacity:1;visibility:visible;display:inline;overflow:visible;enable-background:accumulate"/>
<path d="M 31.71,14.98 L 10.34,25.67 L 15.96,28.45 L 37.31,17.79 L 31.71,14.98 z" id="r3529" style="fill:#e5dacd;fill-opacity:1;fill-rule:nonzero;stroke:none;marker:none;visibility:visible;display:inline;overflow:visible;enable-background:accumulate"/>
<path d="M 44.84,22.10 L 24.05,32.49 L 3.21,22.07" id="p2404" style="fill:none;fill-opacity:1;fill-rule:nonzero;stroke:#d9be9f;stroke-width:1.5;stroke-linecap:butt;stroke-linejoin:round;marker:none;stroke-miterlimit:4;stroke-dasharray:none;stroke-dashoffset:0;stroke-opacity:1;visibility:visible;display:inline;overflow:visible;enable-background:accumulate"/>
<path d="M 13.60,26.83 L 34.25,16.62" id="p3536" style="fill:none;fill-rule:evenodd;stroke:#4e2f1c;stroke-width:1px;stroke-linecap:butt;stroke-linejoin:miter;stroke-opacity:1"/>
<path d="M 23.64,31.81 L 3.76,21.93" id="p3534" style="fill:none;fill-opacity:1;fill-rule:evenodd;stroke:#4e2f1c;stroke-width:0.69;stroke-linecap:round;stroke-linejoin:miter;marker:none;stroke-miterlimit:4;stroke-dasharray:none;stroke-dashoffset:0;stroke-opacity:1;visibility:visible;display:inline;overflow:visible;enable-background:accumulate"/>
<path d="M 24.00,11.54 L 2.99,22.04 L 2.99,42.94 L 24.00,53.44 L 45.01,42.94 L 45.01,22.04 L 24.00,11.54 z" id="p2406" style="fill:none;fill-opacity:1;fill-rule:nonzero;stroke:#8c7250;stroke-width:1;stroke-linecap:butt;stroke-linejoin:round;marker:none;stroke-miterlimit:4;stroke-dasharray:none;stroke-dashoffset:0;stroke-opacity:1;visibility:visible;display:inline;overflow:visible;enable-background:accumulate"/>
<path d="M 18.80,32.40 C 18.67,32.33 18.53,32.35 18.43,32.49 L 16.31,35.29 C 16.12,35.55 16.11,36.10 16.28,36.57 L 17.69,37.29 L 17.69,41.19 C 17.69,41.61 17.88,42.05 18.11,42.17 L 19.46,42.86 C 19.69,42.97 19.88,42.73 19.88,42.31 L 19.88,38.41 L 21.33,39.15 C 21.50,38.85 21.49,38.29 21.29,37.83 L 19.18,32.87 C 19.07,32.62 18.94,32.47 18.80,32.40 z" id="r3515" style="fill:#9a3b3b;fill-opacity:1;fill-rule:nonzero;stroke:none;marker:none;visibility:visible;display:inline;overflow:visible;enable-background:accumulate"/>
<path d="M 33.62,29.75 C 33.52,29.75 33.39,29.78 33.28,29.84 L 26.5,33.12 C 26.02,33.35 25.62,33.97 25.62,34.5 L 25.62,40.65 C 25.62,41.18 26.02,41.41 26.5,41.18 L 33.28,37.90 C 33.75,37.67 34.12,37.05 34.12,36.53 L 34.12,30.37 C 34.12,29.98 33.93,29.74 33.62,29.75 z" id="r3523" style="fill:#d9d9d9;fill-opacity:1;fill-rule:nonzero;stroke:none;marker:none;visibility:visible;display:inline;overflow:visible;enable-background:accumulate"/>
<path d="M 4.43,37.40 C 4.23,37.40 4.09,37.55 4.09,37.81 L 4.09,41.43 C 4.09,41.77 4.35,42.19 4.65,42.34 L 9.78,44.90 C 10.08,45.05 10.34,44.90 10.34,44.56 L 10.34,40.93 C 10.34,40.59 10.08,40.18 9.78,40.03 L 4.65,37.46 C 4.58,37.43 4.50,37.40 4.43,37.40 z" id="r3525" style="fill:#cfcfcf;fill-opacity:1;fill-rule:nonzero;stroke:none;marker:none;visibility:visible;display:inline;overflow:visible;enable-background:accumulate"/>
<path d="M 14.04,18.03 L 7.26,21.44 L 11.51,23.56 L 18.29,20.16 L 14.04,18.03 z" id="p3542" style="fill:#ebe2b2;fill-opacity:1;stroke:none"/>
<path d="M 35.48,45.44 L 42.63,41.86" id="p3547" style="fill:none;fill-rule:evenodd;stroke:#574134;stroke-width:0.80;stroke-linecap:round;stroke-linejoin:miter;stroke-miterlimit:4;stroke-dasharray:none;stroke-opacity:1"/>
<path d="M 35.48,43.93 L 42.63,40.35" id="p3549" style="fill:none;fill-rule:evenodd;stroke:#574134;stroke-width:0.80;stroke-linecap:round;stroke-linejoin:miter;stroke-miterlimit:4;stroke-dasharray:none;stroke-opacity:1"/>
<path d="M 35.48,42.28 L 42.63,38.70" id="p3551" style="fill:none;fill-rule:evenodd;stroke:#574134;stroke-width:0.80;stroke-linecap:round;stroke-linejoin:miter;stroke-miterlimit:4;stroke-dasharray:none;stroke-opacity:1"/>
</g>
</svg>
