<?xml version="1.0" encoding="UTF-8" standalone="no"?>

<svg xmlns:svg="http://www.w3.org/2000/svg" xmlns="http://www.w3.org/2000/svg" version="1.0" width="100%" height="100%" viewBox="0 0 48 64" id="svg2985" style="display:inline">
<defs id="defs2987"/>
<path d="M 24.05,63.74 L 47.42,52.04 L 24.05,40.33 L 0.65,52.09 L 24.05,63.74 z" id="p3220" style="fill:#222222;fill-opacity:0.39;stroke:none;display:inline"/>
<path d="M 25.63,59.04 C 25.63,60.49 24.46,61.67 23.01,61.67 C 21.56,61.67 20.39,60.49 20.39,59.04 C 20.39,57.59 21.56,56.42 23.01,56.42 C 24.46,56.42 25.63,57.59 25.63,59.04 z" id="p3206" style="opacity:1;fill:#3b3b3b;fill-opacity:1;fill-rule:nonzero;stroke:#383835;stroke-width:1;stroke-linecap:butt;stroke-linejoin:round;marker:none;stroke-miterlimit:4;stroke-dasharray:none;stroke-dashoffset:0;stroke-opacity:1;visibility:visible;display:inline;overflow:visible;enable-background:accumulate"/>
<path d="M 4.40,47.09 C 2.95,47.09 1.78,48.27 1.78,49.71 C 1.78,51.16 2.95,52.34 4.40,52.34 C 5.85,52.34 7.03,51.16 7.03,49.71 C 7.03,48.27 5.85,47.09 4.40,47.09 z" id="p3208" style="opacity:1;fill:#3b3b3b;fill-opacity:1;fill-rule:nonzero;stroke:#383835;stroke-width:1;stroke-linecap:butt;stroke-linejoin:round;marker:none;stroke-miterlimit:4;stroke-dasharray:none;stroke-dashoffset:0;stroke-opacity:1;visibility:visible;display:inline;overflow:visible;enable-background:accumulate"/>
<path d="M 45.35,49.70 C 45.35,51.15 44.18,52.33 42.73,52.33 C 41.28,52.33 40.11,51.15 40.11,49.70 C 40.11,48.25 41.28,47.08 42.73,47.08 C 44.18,47.08 45.35,48.25 45.35,49.70 z" id="p3210" style="opacity:1;fill:#3b3b3b;fill-opacity:1;fill-rule:nonzero;stroke:#383835;stroke-width:1;stroke-linecap:butt;stroke-linejoin:round;marker:none;stroke-miterlimit:4;stroke-dasharray:none;stroke-dashoffset:0;stroke-opacity:1;visibility:visible;display:inline;overflow:visible;enable-background:accumulate"/>
<path d="M 24.00,32.38 L 0.98,43.89 L 0.98,46.77 L 24.00,58.28 L 47.02,46.77 L 47.02,43.89 L 24.00,32.38 z" id="p3188" style="fill:#595959;fill-opacity:1;fill-rule:nonzero;stroke:none;marker:none;visibility:visible;display:inline;overflow:visible;enable-background:accumulate"/>
<path d="M 1.06,46.69 L 1.16,43.87 L 23.98,55.14 L 23.79,58.15 L 1.06,46.69 z" id="p3194" style="fill:#3f3f3f;fill-opacity:1;fill-rule:evenodd;stroke:none;"/>
<path d="M 23.79,55.14 L 23.88,58.34 L 47.00,46.79 L 46.90,43.68 L 23.79,55.14 z" id="p3196" style="fill:#4d4d4d;fill-opacity:1;fill-rule:evenodd;stroke:none;"/>
<path d="M 23.88,55.24 L 23.88,57.96" id="p3192" style="fill:none;fill-opacity:1;fill-rule:nonzero;stroke:#55554f;stroke-width:1.5;stroke-linecap:butt;stroke-linejoin:round;marker:none;stroke-miterlimit:4;stroke-dasharray:none;stroke-dashoffset:0;stroke-opacity:1;visibility:visible;display:inline;overflow:visible;enable-background:accumulate"/>
<path d="M 0.98,43.66 L 24.00,55.17 L 47.02,43.66" id="p3190" style="fill:none;fill-opacity:1;fill-rule:nonzero;stroke:#727268;stroke-width:1;stroke-linecap:butt;stroke-linejoin:round;marker:none;stroke-miterlimit:4;stroke-dasharray:none;stroke-dashoffset:0;stroke-opacity:1;visibility:visible;display:inline;overflow:visible;enable-background:accumulate"/>
<path d="M 24.00,32.38 L 0.98,43.89 L 0.98,46.77 L 24.00,58.28 L 47.02,46.77 L 47.02,43.89 L 24.00,32.38 z" id="p2397" style="fill:none;fill-opacity:1;fill-rule:nonzero;stroke:#383835;stroke-width:1;stroke-linecap:butt;stroke-linejoin:round;marker:none;stroke-miterlimit:4;stroke-dasharray:none;stroke-dashoffset:0;stroke-opacity:1;visibility:visible;display:inline;overflow:visible;enable-background:accumulate"/>
<g id="g3484">
<path d="M 24.01,11.19 L 2.66,21.94 L 2.71,43.06 L 24.01,53.74 L 24.01,11.19 z" id="p3429" style="fill:#b18755;fill-opacity:1;stroke:none"/>
<path d="M 23.97,11.38 L 23.97,53.76 L 45.40,43.09 L 45.40,21.86 L 23.97,11.38 z" id="p3431" style="fill:#bd996f;fill-opacity:1;stroke:none"/>
<path d="M 24.01,32.57 L 24.01,53.15" id="p3433" style="fill:none;fill-opacity:1;fill-rule:nonzero;stroke:#cba981;stroke-width:2;stroke-linecap:butt;stroke-linejoin:miter;marker:none;stroke-miterlimit:4;stroke-dasharray:none;stroke-dashoffset:0;stroke-opacity:1;visibility:visible;display:inline;overflow:visible;enable-background:accumulate"/>
<path d="M 24.06,32.48 L 45.37,21.81 L 24.06,11.13 L 2.72,21.86 L 24.06,32.48 z" id="p3435" style="fill:#55432d;fill-opacity:1;stroke:none"/>
<path d="M 23.79,11.28 L 2.72,21.87 L 23.79,32.34 L 23.79,11.28 z" id="p3200" style="fill:#af8a5e;fill-opacity:1;fill-rule:nonzero;stroke:none;marker:none;visibility:visible;display:inline;overflow:visible;enable-background:accumulate"/>
<path d="M 18.81,32.38 C 18.68,32.31 18.54,32.33 18.44,32.47 L 16.32,35.28 C 16.13,35.54 16.12,36.09 16.29,36.56 L 17.70,37.28 L 17.70,41.18 C 17.70,41.60 17.89,42.04 18.12,42.15 L 19.47,42.84 C 19.70,42.96 19.89,42.71 19.89,42.29 L 19.89,38.39 L 21.34,39.13 C 21.51,38.84 21.50,38.27 21.30,37.82 L 19.19,32.85 C 19.08,32.61 18.95,32.45 18.81,32.38 z" id="p3438" style="fill:#9a3b3b;fill-opacity:1;fill-rule:nonzero;stroke:none;marker:none;visibility:visible;display:inline;overflow:visible;enable-background:accumulate"/>
<path d="M 33.62,29.71 C 33.52,29.72 33.39,29.75 33.28,29.81 L 26.5,33.12 C 26.02,33.35 25.65,33.97 25.65,34.5 L 25.65,40.65 C 25.65,41.18 26.02,41.41 26.5,41.18 L 33.28,37.87 C 33.75,37.64 34.15,37.02 34.15,36.5 L 34.15,30.34 C 34.15,29.94 33.93,29.71 33.62,29.71 z" id="r3440" style="fill:#d9d9d9;fill-opacity:1;fill-rule:nonzero;stroke:none;marker:none;visibility:visible;display:inline;overflow:visible;enable-background:accumulate"/>
<path d="M 4.43,37.40 C 4.23,37.40 4.12,37.55 4.12,37.81 L 4.12,41.43 C 4.12,41.77 4.35,42.16 4.65,42.31 L 9.81,44.87 C 10.11,45.02 10.34,44.87 10.34,44.53 L 10.34,40.90 C 10.34,40.56 10.11,40.18 9.81,40.03 L 4.65,37.46 C 4.58,37.43 4.50,37.40 4.43,37.40 z" id="r3442" style="fill:#cfcfcf;fill-opacity:1;fill-rule:nonzero;stroke:none;marker:none;visibility:visible;display:inline;overflow:visible;enable-background:accumulate"/>
<path d="M 35.49,45.43 L 42.64,41.85" id="p3444" style="fill:none;fill-rule:evenodd;stroke:#574134;stroke-width:0.80;stroke-linecap:round;stroke-linejoin:miter;stroke-miterlimit:4;stroke-dasharray:none;stroke-opacity:1"/>
<path d="M 35.49,43.91 L 42.64,40.34" id="p3446" style="fill:none;fill-rule:evenodd;stroke:#574134;stroke-width:0.80;stroke-linecap:round;stroke-linejoin:miter;stroke-miterlimit:4;stroke-dasharray:none;stroke-opacity:1"/>
<path d="M 35.49,42.26 L 42.64,38.69" id="p3448" style="fill:none;fill-rule:evenodd;stroke:#574134;stroke-width:0.80;stroke-linecap:round;stroke-linejoin:miter;stroke-miterlimit:4;stroke-dasharray:none;stroke-opacity:1"/>
<path d="M 17.68,19.15 L 22.63,16.72 L 31.57,20.80 L 21.47,27.79 L 17.68,19.15 z" id="p3213" style="fill:#4e5c4d;fill-opacity:1;fill-rule:evenodd;stroke:#374137;stroke-width:0.60;stroke-linecap:round;stroke-linejoin:round;stroke-miterlimit:4;stroke-dasharray:none;stroke-opacity:1"/>
<path d="M 21.19,0.72 L 0.62,10.18 L 3.34,21.84 L 23.75,11.59 L 21.19,0.72 z" id="p3174" style="fill:#d2b18a;fill-opacity:1;fill-rule:nonzero;stroke:none;marker:none;visibility:visible;display:inline;overflow:visible;enable-background:accumulate"/>
<path d="M 7.69,13.03 L 3.41,22.25 L 24.88,33.03 L 25.35,31.31 L 26.44,21.59 L 7.69,13.03 z" id="p3179" style="fill:#b89265;fill-opacity:1;fill-rule:nonzero;stroke:none;marker:none;visibility:visible;display:inline;overflow:visible;enable-background:accumulate"/>
<path d="M 25.00,32.67 L 24.18,23.19 L 28.98,22.51 L 25.00,32.67 z" id="p3211" style="fill:#6a573f;fill-opacity:1;fill-rule:nonzero;stroke:none;marker:none;visibility:visible;display:inline;overflow:visible;enable-background:accumulate"/>
<path d="M 47.41,11.09 L 26.44,21.59 L 25.23,32.51 L 45.46,22.25 L 47.41,11.09 z" id="p2399" style="fill:#a68257;fill-opacity:1;fill-rule:nonzero;stroke:none;marker:none;visibility:visible;display:inline;overflow:visible;enable-background:accumulate"/>
<path d="M 19.32,8.06 L 23.88,11.78 L 34.91,17.34 L 36.41,16.59 L 19.32,8.06 z" id="p3185" style="fill:#483a29;fill-opacity:1;fill-rule:nonzero;stroke:none;marker:none;visibility:visible;display:inline;overflow:visible;enable-background:accumulate"/>
<path d="M 45.46,22.25 L 47.41,11.09 L 26.44,21.59 L 25.23,32.51" id="p3205" style="fill:none;fill-opacity:1;fill-rule:nonzero;stroke:#8c7250;stroke-width:1;stroke-linecap:round;stroke-linejoin:round;marker:none;stroke-miterlimit:4;stroke-dasharray:none;stroke-dashoffset:0;stroke-opacity:1;visibility:visible;display:inline;overflow:visible;enable-background:accumulate"/>
<path d="M 3.44,22.57 L 24.52,33.08 L 44.87,22.64" id="p3215" style="fill:none;fill-opacity:1;fill-rule:nonzero;stroke:#997d5d;stroke-width:0.5;stroke-linecap:round;stroke-linejoin:round;marker:none;stroke-miterlimit:4;stroke-dasharray:none;stroke-dashoffset:0;stroke-opacity:1;visibility:visible;display:inline;overflow:visible;enable-background:accumulate"/>
<path d="M 36.41,16.59 L 19.32,8.06 L 23.88,11.78" id="p3207" style="fill:none;fill-opacity:1;fill-rule:nonzero;stroke:#8c7250;stroke-width:1;stroke-linecap:round;stroke-linejoin:round;marker:none;stroke-miterlimit:4;stroke-dasharray:none;stroke-dashoffset:0;stroke-opacity:1;visibility:visible;display:inline;overflow:visible;enable-background:accumulate"/>
<path d="M 26.44,21.59 L 7.69,13.03 L 3.41,22.25" id="p3209" style="fill:none;fill-opacity:1;fill-rule:nonzero;stroke:#8c7250;stroke-width:1;stroke-linecap:round;stroke-linejoin:round;marker:none;stroke-miterlimit:4;stroke-dasharray:none;stroke-dashoffset:0;stroke-opacity:1;visibility:visible;display:inline;overflow:visible;enable-background:accumulate"/>
<path d="M 21.19,0.72 L 0.56,10.12 L 3.25,21.69 L 3.00,22.03 L 3.00,42.94 L 24.00,53.44 L 45.00,42.94 L 45.00,22.50 L 45.47,22.25 L 47.41,11.09 L 36.41,16.59 L 23.41,10.09 L 21.19,0.72 z" id="p3460" style="fill:none;fill-opacity:1;fill-rule:nonzero;stroke:#8c7250;stroke-width:1;stroke-linecap:butt;stroke-linejoin:round;marker:none;stroke-miterlimit:4;stroke-dasharray:none;stroke-dashoffset:0;stroke-opacity:1;visibility:visible;display:inline;overflow:visible;enable-background:accumulate"/>
</g>
</svg>
