<?xml version="1.0" encoding="UTF-8" standalone="no"?>

<svg xmlns:svg="http://www.w3.org/2000/svg" xmlns="http://www.w3.org/2000/svg" version="1.0" width="100%" height="100%" viewBox="0 0 48 64" id="svg2985" style="display:inline">
<defs id="defs2987"/>
<path d="M 24.05,63.74 L 47.42,52.04 L 24.05,40.33 L 0.65,52.09 L 24.05,63.74 z" id="p3220" style="fill:#222222;fill-opacity:0.39;stroke:none;display:inline"/>
<path d="M 25.63,59.04 C 25.63,60.49 24.46,61.67 23.01,61.67 C 21.56,61.67 20.39,60.49 20.39,59.04 C 20.39,57.59 21.56,56.42 23.01,56.42 C 24.46,56.42 25.63,57.59 25.63,59.04 z" id="p3206" style="opacity:1;fill:#3b3b3b;fill-opacity:1;fill-rule:nonzero;stroke:#383835;stroke-width:1;stroke-linecap:butt;stroke-linejoin:round;marker:none;stroke-miterlimit:4;stroke-dasharray:none;stroke-dashoffset:0;stroke-opacity:1;visibility:visible;display:inline;overflow:visible;enable-background:accumulate"/>
<path d="M 4.40,47.09 C 2.95,47.09 1.78,48.27 1.78,49.71 C 1.78,51.16 2.95,52.34 4.40,52.34 C 5.85,52.34 7.03,51.16 7.03,49.71 C 7.03,48.27 5.85,47.09 4.40,47.09 z" id="p3208" style="opacity:1;fill:#3b3b3b;fill-opacity:1;fill-rule:nonzero;stroke:#383835;stroke-width:1;stroke-linecap:butt;stroke-linejoin:round;marker:none;stroke-miterlimit:4;stroke-dasharray:none;stroke-dashoffset:0;stroke-opacity:1;visibility:visible;display:inline;overflow:visible;enable-background:accumulate"/>
<path d="M 45.35,49.70 C 45.35,51.15 44.18,52.33 42.73,52.33 C 41.28,52.33 40.11,51.15 40.11,49.70 C 40.11,48.25 41.28,47.08 42.73,47.08 C 44.18,47.08 45.35,48.25 45.35,49.70 z" id="p3210" style="opacity:1;fill:#3b3b3b;fill-opacity:1;fill-rule:nonzero;stroke:#383835;stroke-width:1;stroke-linecap:butt;stroke-linejoin:round;marker:none;stroke-miterlimit:4;stroke-dasharray:none;stroke-dashoffset:0;stroke-opacity:1;visibility:visible;display:inline;overflow:visible;enable-background:accumulate"/>
<path d="M 24.00,32.38 L 0.98,43.89 L 0.98,46.77 L 24.00,58.28 L 47.02,46.77 L 47.02,43.89 L 24.00,32.38 z" id="p3188" style="fill:#595959;fill-opacity:1;fill-rule:nonzero;stroke:none;marker:none;visibility:visible;display:inline;overflow:visible;enable-background:accumulate"/>
<path d="M 1.06,46.69 L 1.16,43.87 L 23.98,55.14 L 23.79,58.15 L 1.06,46.69 z" id="p3194" style="fill:#3f3f3f;fill-opacity:1;fill-rule:evenodd;stroke:none;"/>
<path d="M 23.79,55.14 L 23.88,58.34 L 47.00,46.79 L 46.90,43.68 L 23.79,55.14 z" id="p3196" style="fill:#4d4d4d;fill-opacity:1;fill-rule:evenodd;stroke:none;"/>
<path d="M 23.88,55.24 L 23.88,57.96" id="p3192" style="fill:none;fill-opacity:1;fill-rule:nonzero;stroke:#55554f;stroke-width:1.5;stroke-linecap:butt;stroke-linejoin:round;marker:none;stroke-miterlimit:4;stroke-dasharray:none;stroke-dashoffset:0;stroke-opacity:1;visibility:visible;display:inline;overflow:visible;enable-background:accumulate"/>
<path d="M 0.98,43.66 L 24.00,55.17 L 47.02,43.66" id="p3190" style="fill:none;fill-opacity:1;fill-rule:nonzero;stroke:#727268;stroke-width:1;stroke-linecap:butt;stroke-linejoin:round;marker:none;stroke-miterlimit:4;stroke-dasharray:none;stroke-dashoffset:0;stroke-opacity:1;visibility:visible;display:inline;overflow:visible;enable-background:accumulate"/>
<path d="M 24.00,32.38 L 0.98,43.89 L 0.98,46.77 L 24.00,58.28 L 47.02,46.77 L 47.02,43.89 L 24.00,32.38 z" id="p2397" style="fill:none;fill-opacity:1;fill-rule:nonzero;stroke:#383835;stroke-width:1;stroke-linecap:butt;stroke-linejoin:round;marker:none;stroke-miterlimit:4;stroke-dasharray:none;stroke-dashoffset:0;stroke-opacity:1;visibility:visible;display:inline;overflow:visible;enable-background:accumulate"/>
<g id="g2627">
<path d="M 23.99,11.20 L 2.64,21.95 L 2.69,43.08 L 23.99,53.75 L 23.99,11.20 z" id="p2566" style="opacity:1;fill:#b18755;fill-opacity:1;stroke:none"/>
<path d="M 23.95,11.40 L 23.95,53.78 L 45.38,43.10 L 45.38,21.87 L 23.95,11.40 z" id="p2568" style="opacity:1;fill:#bd996f;fill-opacity:1;stroke:none"/>
<path d="M 23.99,32.58 L 23.99,53.16" id="p2570" style="opacity:1;fill:none;fill-opacity:1;fill-rule:nonzero;stroke:#cba981;stroke-width:2;stroke-linecap:butt;stroke-linejoin:miter;marker:none;stroke-miterlimit:4;stroke-dasharray:none;stroke-dashoffset:0;stroke-opacity:1;visibility:visible;display:inline;overflow:visible;enable-background:accumulate"/>
<path d="M 24.04,32.49 L 45.35,21.82 L 24.04,11.15 L 2.70,21.87 L 24.04,32.49 z" id="p2572" style="opacity:1;fill:#d2b18a;fill-opacity:1;stroke:none"/>
<path d="M 24.04,31.39 L 4.17,21.52" id="p2574" style="opacity:1;fill:none;fill-opacity:1;fill-rule:nonzero;stroke:#e3ceb6;stroke-width:0.60;stroke-linecap:round;stroke-linejoin:round;marker:none;stroke-miterlimit:4;stroke-dasharray:none;stroke-dashoffset:0;stroke-opacity:1;visibility:visible;display:inline;overflow:visible;enable-background:accumulate"/>
<path d="M 31.70,14.98 L 10.33,25.67 L 15.95,28.45 L 37.30,17.79 L 31.70,14.98 z" id="p2576" style="opacity:1;fill:#e5dacd;fill-opacity:1;fill-rule:nonzero;stroke:none;marker:none;visibility:visible;display:inline;overflow:visible;enable-background:accumulate"/>
<path d="M 44.82,22.10 L 24.04,32.49 L 3.20,22.07" id="p2578" style="opacity:1;fill:none;fill-opacity:1;fill-rule:nonzero;stroke:#d9be9f;stroke-width:1.5;stroke-linecap:butt;stroke-linejoin:round;marker:none;stroke-miterlimit:4;stroke-dasharray:none;stroke-dashoffset:0;stroke-opacity:1;visibility:visible;display:inline;overflow:visible;enable-background:accumulate"/>
<path d="M 13.58,26.83 L 34.23,16.62" id="p2580" style="opacity:1;fill:none;fill-rule:evenodd;stroke:#4e2f1c;stroke-width:1px;stroke-linecap:butt;stroke-linejoin:miter;stroke-opacity:1"/>
<path d="M 23.63,31.80 L 3.75,21.93" id="p2582" style="opacity:1;fill:none;fill-opacity:1;fill-rule:evenodd;stroke:#4e2f1c;stroke-width:0.69;stroke-linecap:round;stroke-linejoin:miter;marker:none;stroke-miterlimit:4;stroke-dasharray:none;stroke-dashoffset:0;stroke-opacity:1;visibility:visible;display:inline;overflow:visible;enable-background:accumulate"/>
<path d="M 23.99,11.54 L 2.98,22.04 L 2.98,42.93 L 23.99,53.44 L 44.99,42.93 L 44.99,22.04 L 23.99,11.54 z" id="p2584" style="opacity:1;fill:none;fill-opacity:1;fill-rule:nonzero;stroke:#8c7250;stroke-width:1;stroke-linecap:butt;stroke-linejoin:round;marker:none;stroke-miterlimit:4;stroke-dasharray:none;stroke-dashoffset:0;stroke-opacity:1;visibility:visible;display:inline;overflow:visible;enable-background:accumulate"/>
<path d="M 18.79,32.39 C 18.66,32.32 18.52,32.35 18.42,32.48 L 16.30,35.29 C 16.11,35.55 16.10,36.10 16.27,36.57 L 17.68,37.29 L 17.68,41.19 C 17.68,41.61 17.87,42.05 18.10,42.16 L 19.45,42.85 C 19.68,42.97 19.87,42.73 19.87,42.30 L 19.87,38.41 L 21.32,39.14 C 21.48,38.85 21.48,38.28 21.28,37.83 L 19.17,32.86 C 19.06,32.62 18.93,32.46 18.79,32.39 z" id="p2586" style="opacity:1;fill:#9a3b3b;fill-opacity:1;fill-rule:nonzero;stroke:none;marker:none;visibility:visible;display:inline;overflow:visible;enable-background:accumulate"/>
<path d="M 33.61,29.73 C 33.51,29.73 33.38,29.76 33.27,29.82 L 26.48,33.13 C 26.01,33.36 25.61,33.98 25.61,34.51 L 25.61,40.67 C 25.61,41.19 26.01,41.43 26.48,41.20 L 33.27,37.88 C 33.74,37.65 34.11,37.04 34.11,36.51 L 34.11,30.35 C 34.11,29.96 33.92,29.72 33.61,29.73 z" id="p2588" style="opacity:1;fill:#d9d9d9;fill-opacity:1;fill-rule:nonzero;stroke:none;marker:none;visibility:visible;display:inline;overflow:visible;enable-background:accumulate"/>
<path d="M 14.03,18.03 L 7.25,21.43 L 11.50,23.56 L 18.28,20.15 L 14.03,18.03 z" id="p2590" style="opacity:1;fill:#ebe2b2;fill-opacity:1;stroke:none"/>
<path d="M 35.47,45.44 L 42.62,41.86" id="p2592" style="opacity:1;fill:none;fill-rule:evenodd;stroke:#574134;stroke-width:0.80;stroke-linecap:round;stroke-linejoin:miter;stroke-miterlimit:4;stroke-dasharray:none;stroke-opacity:1"/>
<path d="M 35.47,43.92 L 42.62,40.35" id="p2594" style="opacity:1;fill:none;fill-rule:evenodd;stroke:#574134;stroke-width:0.80;stroke-linecap:round;stroke-linejoin:miter;stroke-miterlimit:4;stroke-dasharray:none;stroke-opacity:1"/>
<path d="M 35.47,42.27 L 42.62,38.70" id="p2596" style="opacity:1;fill:none;fill-rule:evenodd;stroke:#574134;stroke-width:0.80;stroke-linecap:round;stroke-linejoin:miter;stroke-miterlimit:4;stroke-dasharray:none;stroke-opacity:1"/>
<path d="M 14.72,42.76 C 14.52,42.75 14.37,42.88 14.37,43.13 L 14.37,46.79 C 14.37,47.13 14.63,47.51 14.93,47.66 L 20.06,50.23 C 20.36,50.38 20.62,50.22 20.62,49.88 L 20.62,46.26 C 20.62,45.92 20.36,45.53 20.06,45.38 L 14.93,42.82 C 14.86,42.78 14.78,42.76 14.72,42.76 z" id="p2598" style="opacity:1;fill:#cfcfcf;fill-opacity:1;fill-rule:nonzero;stroke:none;marker:none;visibility:visible;display:inline;overflow:visible;enable-background:accumulate"/>
<path d="M 5.27,27.80 C 4.75,27.79 4.37,28.11 4.37,28.78 L 4.37,38.33 C 4.37,39.22 5.04,40.22 5.84,40.62 L 15.25,45.18 C 16.04,45.58 16.72,45.17 16.72,44.28 L 16.72,34.81 C 16.72,33.92 16.04,32.92 15.25,32.52 L 5.84,27.96 C 5.64,27.87 5.44,27.81 5.27,27.80 z" id="p2600" style="opacity:1;fill:#dddd51;fill-opacity:1;fill-rule:nonzero;stroke:none;marker:none;visibility:visible;display:inline;overflow:visible;enable-background:accumulate"/>
<path d="M 6.80,30.22 C 6.62,30.14 6.48,30.16 6.48,30.26 L 6.48,33.39 C 6.48,33.40 6.48,33.41 6.49,33.43 C 6.48,33.47 6.48,33.52 6.48,33.57 C 6.48,34.74 7.88,36.39 9.70,37.42 L 9.70,40.46 L 7.00,39.16 C 6.83,39.07 6.68,39.08 6.68,39.19 L 6.68,39.32 C 6.68,39.43 6.83,39.58 7.00,39.67 L 13.49,42.81 C 13.66,42.89 13.80,42.87 13.80,42.77 L 13.80,42.63 C 13.80,42.53 13.66,42.38 13.49,42.29 L 10.76,40.98 L 10.76,37.93 C 12.55,38.63 13.92,38.33 13.92,37.17 C 13.92,37.12 13.91,37.07 13.91,37.02 C 13.91,37.01 13.92,37.00 13.92,36.99 L 13.92,33.86 C 13.92,33.76 13.77,33.60 13.60,33.52 L 9.86,31.70 L 9.12,32.18 L 9.82,32.76 C 9.86,32.80 9.89,32.84 9.90,32.87 C 9.92,32.91 9.91,32.94 9.88,32.95 L 8.77,33.54 L 9.39,34.08 C 9.43,34.11 9.46,34.15 9.47,34.19 C 9.48,34.22 9.47,34.25 9.44,34.26 L 8.71,34.63 C 8.66,34.66 8.55,34.62 8.46,34.55 C 8.38,34.47 8.35,34.39 8.41,34.37 L 9.04,34.04 L 8.43,33.51 C 8.35,33.44 8.33,33.36 8.38,33.33 L 9.48,32.74 L 8.79,32.16 C 8.75,32.13 8.72,32.10 8.71,32.06 C 8.69,32.02 8.69,31.99 8.71,31.98 L 9.44,31.50 L 6.80,30.22 z" id="p2602" style="opacity:1;fill:#666666;fill-opacity:1;fill-rule:nonzero;stroke:none;marker:none;visibility:visible;display:inline;overflow:visible;enable-background:accumulate"/>
<path d="M 41.28,27.48 C 41.80,27.47 42.18,27.80 42.18,28.46 L 42.18,38.02 C 42.18,38.91 41.51,39.90 40.71,40.30 L 31.30,44.86 C 30.51,45.26 29.83,44.85 29.83,43.96 L 29.83,34.49 C 29.83,33.60 30.51,32.60 31.30,32.20 L 40.71,27.65 C 40.91,27.55 41.11,27.49 41.28,27.48 z" id="p3212" style="opacity:1;fill:#dddd51;fill-opacity:1;fill-rule:nonzero;stroke:none;marker:none;visibility:visible;display:inline;overflow:visible;enable-background:accumulate"/>
<path d="M 39.75,29.91 C 39.93,29.82 40.07,29.84 40.07,29.94 L 40.07,33.07 C 40.07,33.08 40.06,33.10 40.06,33.11 C 40.07,33.16 40.07,33.20 40.07,33.26 C 40.07,34.42 38.67,36.07 36.85,37.10 L 36.85,40.14 L 39.55,38.84 C 39.72,38.75 39.86,38.76 39.86,38.87 L 39.86,39.00 C 39.86,39.11 39.72,39.26 39.55,39.35 L 33.06,42.49 C 32.89,42.57 32.74,42.56 32.74,42.45 L 32.74,42.32 C 32.74,42.21 32.89,42.06 33.06,41.98 L 35.78,40.66 L 35.78,37.61 C 34.00,38.31 32.63,38.01 32.63,36.86 C 32.63,36.81 32.64,36.75 32.64,36.70 C 32.64,36.69 32.63,36.68 32.63,36.67 L 32.63,33.54 C 32.63,33.44 32.78,33.28 32.95,33.20 L 36.69,31.39 L 37.43,31.87 L 36.73,32.44 C 36.69,32.48 36.66,32.52 36.65,32.55 C 36.63,32.59 36.64,32.62 36.66,32.63 L 37.78,33.22 L 37.16,33.76 C 37.12,33.79 37.09,33.83 37.08,33.87 C 37.07,33.90 37.08,33.93 37.10,33.94 L 37.83,34.31 C 37.89,34.34 38.00,34.30 38.09,34.23 C 38.17,34.15 38.19,34.08 38.14,34.05 L 37.51,33.72 L 38.11,33.19 C 38.20,33.12 38.22,33.04 38.17,33.01 L 37.07,32.42 L 37.76,31.85 C 37.80,31.81 37.83,31.78 37.84,31.74 C 37.86,31.71 37.86,31.67 37.83,31.66 L 37.11,31.18 L 39.75,29.91 z" id="p3214" style="opacity:1;fill:#666666;fill-opacity:1;fill-rule:nonzero;stroke:none;marker:none;visibility:visible;display:inline;overflow:visible;enable-background:accumulate"/>
</g>
</svg>
