<?xml version="1.0" encoding="UTF-8" standalone="no"?>

<svg xmlns:svg="http://www.w3.org/2000/svg" xmlns="http://www.w3.org/2000/svg" version="1.0" width="100%" height="100%" viewBox="0 0 48 64" id="svg2985" style="display:inline">
<defs id="defs2987"/>
<path d="M 24.05,63.74 L 47.42,52.04 L 24.05,40.33 L 0.65,52.09 L 24.05,63.74 z" id="p3220" style="fill:#222222;fill-opacity:0.39;stroke:none;display:inline"/>
<path d="M 25.63,59.04 C 25.63,60.49 24.46,61.67 23.01,61.67 C 21.56,61.67 20.39,60.49 20.39,59.04 C 20.39,57.59 21.56,56.42 23.01,56.42 C 24.46,56.42 25.63,57.59 25.63,59.04 z" id="p3206" style="opacity:1;fill:#3b3b3b;fill-opacity:1;fill-rule:nonzero;stroke:#383835;stroke-width:1;stroke-linecap:butt;stroke-linejoin:round;marker:none;stroke-miterlimit:4;stroke-dasharray:none;stroke-dashoffset:0;stroke-opacity:1;visibility:visible;display:inline;overflow:visible;enable-background:accumulate"/>
<path d="M 4.40,47.09 C 2.95,47.09 1.78,48.27 1.78,49.71 C 1.78,51.16 2.95,52.34 4.40,52.34 C 5.85,52.34 7.03,51.16 7.03,49.71 C 7.03,48.27 5.85,47.09 4.40,47.09 z" id="p3208" style="opacity:1;fill:#3b3b3b;fill-opacity:1;fill-rule:nonzero;stroke:#383835;stroke-width:1;stroke-linecap:butt;stroke-linejoin:round;marker:none;stroke-miterlimit:4;stroke-dasharray:none;stroke-dashoffset:0;stroke-opacity:1;visibility:visible;display:inline;overflow:visible;enable-background:accumulate"/>
<path d="M 45.35,49.70 C 45.35,51.15 44.18,52.33 42.73,52.33 C 41.28,52.33 40.11,51.15 40.11,49.70 C 40.11,48.25 41.28,47.08 42.73,47.08 C 44.18,47.08 45.35,48.25 45.35,49.70 z" id="p3210" style="opacity:1;fill:#3b3b3b;fill-opacity:1;fill-rule:nonzero;stroke:#383835;stroke-width:1;stroke-linecap:butt;stroke-linejoin:round;marker:none;stroke-miterlimit:4;stroke-dasharray:none;stroke-dashoffset:0;stroke-opacity:1;visibility:visible;display:inline;overflow:visible;enable-background:accumulate"/>
<path d="M 24.00,32.38 L 0.98,43.89 L 0.98,46.77 L 24.00,58.28 L 47.02,46.77 L 47.02,43.89 L 24.00,32.38 z" id="p3188" style="fill:#595959;fill-opacity:1;fill-rule:nonzero;stroke:none;marker:none;visibility:visible;display:inline;overflow:visible;enable-background:accumulate"/>
<path d="M 1.06,46.69 L 1.16,43.87 L 23.98,55.14 L 23.79,58.15 L 1.06,46.69 z" id="p3194" style="fill:#3f3f3f;fill-opacity:1;fill-rule:evenodd;stroke:none;"/>
<path d="M 23.79,55.14 L 23.88,58.34 L 47.00,46.79 L 46.90,43.68 L 23.79,55.14 z" id="p3196" style="fill:#4d4d4d;fill-opacity:1;fill-rule:evenodd;stroke:none;"/>
<path d="M 23.88,55.24 L 23.88,57.96" id="p3192" style="fill:none;fill-opacity:1;fill-rule:nonzero;stroke:#55554f;stroke-width:1.5;stroke-linecap:butt;stroke-linejoin:round;marker:none;stroke-miterlimit:4;stroke-dasharray:none;stroke-dashoffset:0;stroke-opacity:1;visibility:visible;display:inline;overflow:visible;enable-background:accumulate"/>
<path d="M 0.98,43.66 L 24.00,55.17 L 47.02,43.66" id="p3190" style="fill:none;fill-opacity:1;fill-rule:nonzero;stroke:#727268;stroke-width:1;stroke-linecap:butt;stroke-linejoin:round;marker:none;stroke-miterlimit:4;stroke-dasharray:none;stroke-dashoffset:0;stroke-opacity:1;visibility:visible;display:inline;overflow:visible;enable-background:accumulate"/>
<path d="M 24.00,32.38 L 0.98,43.89 L 0.98,46.77 L 24.00,58.28 L 47.02,46.77 L 47.02,43.89 L 24.00,32.38 z" id="p2397" style="fill:none;fill-opacity:1;fill-rule:nonzero;stroke:#383835;stroke-width:1;stroke-linecap:butt;stroke-linejoin:round;marker:none;stroke-miterlimit:4;stroke-dasharray:none;stroke-dashoffset:0;stroke-opacity:1;visibility:visible;display:inline;overflow:visible;enable-background:accumulate"/>
<g id="g2439">
<path d="M 24.00,11.19 L 45.34,21.95 L 45.29,43.07 L 24.00,53.74 L 24.00,11.19 z" id="p2396" style="opacity:1;fill:#bd996f;fill-opacity:1;stroke:none"/>
<path d="M 24.03,11.39 L 24.03,53.77 L 2.60,43.10 L 2.60,21.87 L 24.03,11.39 z" id="p2398" style="opacity:1;fill:#b18755;fill-opacity:1;stroke:none"/>
<path d="M 24.00,32.58 L 24.00,53.15" id="p2400" style="opacity:1;fill:none;fill-opacity:1;fill-rule:nonzero;stroke:#cba981;stroke-width:2;stroke-linecap:butt;stroke-linejoin:miter;marker:none;stroke-miterlimit:4;stroke-dasharray:none;stroke-dashoffset:0;stroke-opacity:1;visibility:visible;display:inline;overflow:visible;enable-background:accumulate"/>
<path d="M 41.06,25.77 C 41.19,25.71 41.33,25.73 41.43,25.86 L 43.55,28.67 C 43.74,28.93 43.75,29.48 43.58,29.95 L 42.17,30.67 L 42.17,34.57 C 42.17,34.99 41.98,35.43 41.75,35.55 L 40.40,36.24 C 40.17,36.35 39.98,36.11 39.98,35.68 L 39.98,31.79 L 38.53,32.53 C 38.36,32.23 38.37,31.66 38.57,31.21 L 40.68,26.25 C 40.79,26.00 40.92,25.84 41.06,25.77 z" id="r3515" style="opacity:1;fill:#9a3b3b;fill-opacity:1;fill-rule:nonzero;stroke:none;marker:none;visibility:visible;display:inline;overflow:visible;enable-background:accumulate"/>
<path d="M 31.68,43.43 C 31.62,43.43 31.54,43.46 31.46,43.5 L 26.34,46.06 C 26.03,46.21 25.81,46.59 25.81,46.93 L 25.81,50.56 C 25.81,50.90 26.03,51.05 26.34,50.90 L 31.46,48.34 C 31.77,48.19 32.03,47.80 32.03,47.46 L 32.03,43.84 C 32.03,43.58 31.88,43.43 31.68,43.43 z" id="r3525" style="opacity:1;fill:#cfcfcf;fill-opacity:1;fill-rule:nonzero;stroke:none;marker:none;visibility:visible;display:inline;overflow:visible;enable-background:accumulate"/>
<path d="M 5.13,25.38 C 4.82,25.37 4.59,25.58 4.59,25.97 L 4.59,34.97 C 4.59,35.50 5.00,36.11 5.47,36.35 L 13.09,40.16 C 13.57,40.39 13.94,40.15 13.94,39.63 L 13.94,30.66 C 13.94,30.13 13.57,29.52 13.09,29.28 L 5.47,25.47 C 5.35,25.41 5.23,25.38 5.13,25.38 z M 5.19,37.25 C 4.84,37.24 4.59,37.52 4.59,37.97 L 4.59,38.35 C 4.59,38.95 5.05,39.66 5.59,39.94 L 12.97,43.72 C 13.51,44.00 13.94,43.74 13.94,43.13 L 13.94,42.75 C 13.94,42.15 13.51,41.44 12.97,41.16 L 5.59,37.38 C 5.46,37.31 5.31,37.26 5.19,37.25 z" id="r3651" style="opacity:1;fill:#9a7850;fill-opacity:1;fill-rule:nonzero;stroke:none;marker:none;visibility:visible;display:inline;overflow:visible;enable-background:accumulate"/>
<path d="M 6.13,28.17 L 11.84,31.13" id="p3656" style="opacity:1;fill:none;fill-rule:evenodd;stroke:#a97f54;stroke-width:0.60;stroke-linecap:round;stroke-linejoin:miter;stroke-miterlimit:4;stroke-dasharray:none;stroke-opacity:1"/>
<path d="M 6.13,29.77 L 11.84,32.73" id="p3666" style="opacity:1;fill:none;fill-rule:evenodd;stroke:#a97f54;stroke-width:0.60;stroke-linecap:round;stroke-linejoin:miter;stroke-miterlimit:4;stroke-dasharray:none;stroke-opacity:1"/>
<path d="M 6.13,31.43 L 11.84,34.39" id="p3668" style="opacity:1;fill:none;fill-rule:evenodd;stroke:#a97f54;stroke-width:0.60;stroke-linecap:round;stroke-linejoin:miter;stroke-miterlimit:4;stroke-dasharray:none;stroke-opacity:1"/>
<path d="M 6.13,33.13 L 11.84,36.09" id="p3670" style="opacity:1;fill:none;fill-rule:evenodd;stroke:#a97f54;stroke-width:0.60;stroke-linecap:round;stroke-linejoin:miter;stroke-miterlimit:4;stroke-dasharray:none;stroke-opacity:1"/>
<path d="M 24.01,32.75 L 45.32,22.08 L 24.01,11.41 L 2.68,22.13 L 24.01,32.75 z" id="p2783" style="opacity:1;fill:#5c4931;fill-opacity:1;stroke:none"/>
<path d="M 23.74,11.55 L 2.68,22.15 L 23.74,32.61 L 23.74,11.55 z" id="p2586" style="opacity:1;fill:#af8a5e;fill-opacity:1;fill-rule:nonzero;stroke:none;marker:none;visibility:visible;display:inline;overflow:visible;enable-background:accumulate"/>
<path d="M 17.63,19.42 L 22.58,16.99 L 31.52,21.07 L 21.42,28.06 L 17.63,19.42 z" id="p2588" style="opacity:1;fill:#4e5c4d;fill-opacity:1;fill-rule:evenodd;stroke:#374137;stroke-width:0.60;stroke-linecap:round;stroke-linejoin:round;stroke-miterlimit:4;stroke-dasharray:none;stroke-opacity:1"/>
<path d="M 26.99,0.71 L 47.56,10.17 L 45.33,22.14 L 24.92,11.90 L 26.99,0.71 z" id="p2590" style="opacity:1;fill:#a07b4e;fill-opacity:1;fill-rule:nonzero;stroke:none;marker:none;visibility:visible;display:inline;overflow:visible;enable-background:accumulate"/>
<path d="M 40.98,13.16 L 45.26,22.38 L 23.79,33.16 L 23.32,31.45 L 22.23,21.73 L 40.98,13.16 z" id="p2592" style="opacity:1;fill:#c4a37d;fill-opacity:1;fill-rule:nonzero;stroke:none;marker:none;visibility:visible;display:inline;overflow:visible;enable-background:accumulate"/>
<path d="M 1.26,11.23 L 22.23,21.73 L 23.44,32.65 L 3.21,22.39 L 1.26,11.23 z" id="p2594" style="opacity:1;fill:#9e7a4e;fill-opacity:1;fill-rule:nonzero;stroke:none;marker:none;visibility:visible;display:inline;overflow:visible;enable-background:accumulate"/>
<path d="M 29.36,8.20 L 24.79,11.91 L 13.76,17.48 L 12.26,16.73 L 29.36,8.20 z" id="p2596" style="opacity:1;fill:#564530;fill-opacity:1;fill-rule:nonzero;stroke:none;marker:none;visibility:visible;display:inline;overflow:visible;enable-background:accumulate"/>
<path d="M 11.75,16.48 L 22.23,21.73 L 23.44,32.65" id="p2598" style="opacity:1;fill:none;fill-opacity:1;fill-rule:nonzero;stroke:#8c7250;stroke-width:1;stroke-linecap:round;stroke-linejoin:round;marker:none;stroke-miterlimit:4;stroke-dasharray:none;stroke-dashoffset:0;stroke-opacity:1;visibility:visible;display:inline;overflow:visible;enable-background:accumulate"/>
<path d="M 25.08,10.33 L 29.36,8.20 L 24.79,11.91" id="p2600" style="opacity:1;fill:none;fill-opacity:1;fill-rule:nonzero;stroke:#8c7250;stroke-width:1;stroke-linecap:round;stroke-linejoin:round;marker:none;stroke-miterlimit:4;stroke-dasharray:none;stroke-dashoffset:0;stroke-opacity:1;visibility:visible;display:inline;overflow:visible;enable-background:accumulate"/>
<path d="M 22.23,21.73 L 40.98,13.16 L 45.26,22.38" id="p2602" style="opacity:1;fill:none;fill-opacity:1;fill-rule:nonzero;stroke:#8c7250;stroke-width:1;stroke-linecap:round;stroke-linejoin:round;marker:none;stroke-miterlimit:4;stroke-dasharray:none;stroke-dashoffset:0;stroke-opacity:1;visibility:visible;display:inline;overflow:visible;enable-background:accumulate"/>
<path d="M 3.39,22.67 L 23.74,33.06 L 44.82,22.91" id="p2604" style="opacity:1;fill:none;fill-opacity:1;fill-rule:nonzero;stroke:#997d5d;stroke-width:0.5;stroke-linecap:round;stroke-linejoin:round;marker:none;stroke-miterlimit:4;stroke-dasharray:none;stroke-dashoffset:0;stroke-opacity:1;visibility:visible;display:inline;overflow:visible;enable-background:accumulate"/>
<path d="M 26.84,0.67 L 25.25,10.22 L 12.25,16.72 L 1.25,11.22 L 3.16,21.97 L 3.00,22.03 L 3.00,42.94 L 24.00,53.44 L 45.00,42.94 L 45.00,22.50 L 45.25,22.38 L 47.43,10.14 L 26.84,0.67 z" id="p2406" style="opacity:1;fill:none;fill-opacity:1;fill-rule:nonzero;stroke:#8c7250;stroke-width:1;stroke-linecap:butt;stroke-linejoin:round;marker:none;stroke-miterlimit:4;stroke-dasharray:none;stroke-dashoffset:0;stroke-opacity:1;visibility:visible;display:inline;overflow:visible;enable-background:accumulate"/>
<path d="M 14.14,22.14 L 21.11,25.63 L 21.51,29.26 L 14.79,25.85 L 14.14,22.14 z" id="p3662" style="opacity:1;fill:#bba890;fill-opacity:1;fill-rule:nonzero;stroke:none;marker:none;visibility:visible;display:inline;overflow:visible;enable-background:accumulate"/>
</g>
</svg>
