<?xml version="1.0" encoding="UTF-8" standalone="no"?>
<!-- Created with Inkscape (http://www.inkscape.org/) -->

<svg
 xmlns:dc="http://purl.org/dc/elements/1.1/"
 xmlns:cc="http://creativecommons.org/ns#"
 xmlns:rdf="http://www.w3.org/1999/02/22-rdf-syntax-ns#"
 xmlns:svg="http://www.w3.org/2000/svg"
 xmlns="http://www.w3.org/2000/svg"
 version="1.1"
 width="100%"
 height="100%"
 viewBox="0 0 48 48"
 id="svg2985">
<defs
 id="defs2987" />
<metadata
 id="metadata2990">
<rdf:RDF>
<cc:Work
 rdf:about="">
<dc:format>image/svg+xml
</dc:format>
<dc:type
 rdf:resource="http://purl.org/dc/dcmitype/StillImage" />
<dc:title></dc:title>
</cc:Work>
</rdf:RDF>
</metadata>
<path
 d="M 23.793305,2.6510467 C 0.14660218,3.4763679 3.4603918,5.9648363 3.260314,24.009359 3.0477312,42.041377 4.9109564,44.742428 24.618626,44.329767 44.313791,43.917107 45.351695,46.192992 44.726452,22.346212 44.113713,-1.5005691 41.825323,2.8511245 23.793305,2.6510467 z"
 id="path3065"
 style="color:#000000;fill:#c41010;fill-opacity:1;stroke-width:0.5" />
<path
 d="M 23.83082,6.1774191 C 4.2106838,6.8651867 6.9617545,8.9284897 6.7866864,23.90932 6.6116182,38.877645 8.1622217,41.116016 24.518587,40.778385 40.874953,40.428249 41.725284,42.328989 41.212584,22.533785 40.699885,2.7385807 38.799145,6.3524872 23.83082,6.1774191 z"
 id="path3084"
 style="color:#000000;fill:#ed1b1b;fill-opacity:1;stroke-width:0.5" />
<path
 d="M 20.726381,9.1338497 C 7.6281163,9.5929983 9.4647124,10.970444 9.3478381,20.971543 9.2309676,30.964292 10.266136,32.458612 21.185531,32.233212 32.104926,31.999463 32.672601,33.268384 32.330326,20.053244 31.988052,6.8381049 30.719132,9.2507239 20.726381,9.1338497 z"
 id="path3757"
 style="color:#000000;fill:#ffbeab;fill-opacity:0.15315312;stroke-width:0.5" />
<path
 d="m 34.5725,2.4509688 c -2.751071,0 -6.264938,0.2375925 -10.779195,0.187573 C 1.096972,3.4388533 3.2478091,5.9273217 3.2728188,22.071105 c 5.914802,1.8007 12.6924392,2.851109 19.9327572,2.851109 7.890571,0 15.218423,-1.237982 21.483361,-3.351304 C 44.213752,4.4392426 42.725673,2.4384639 34.5725,2.4509688 z"
 id="path3103"
 style="color:#000000;fill:#7a0700;fill-opacity:0.20270272;stroke-width:0.5" />
<path
 d="M 40.524817,10.716686 A 5.0430024,3.1158997 25.14 0 1 31.396264,6.4275164 5.0430024,3.1158997 25.14 1 1 40.524817,10.716686 z"
 id="path3836"
 style="color:#000000;fill:#e2a9a9;fill-opacity:0.36936939;stroke-width:1.5" />
<path
 d="M 11.563545,38.489994 A 3.5539625,1.8020092 53.51 0 1 7.3369005,32.77527 3.5539625,1.8020092 53.51 0 1 11.563545,38.489994 z"
 id="path3838"
 style="color:#000000;fill:#eac4c4;fill-opacity:0.43243247;stroke-width:1.5" />
<path
 d="m 18.028561,39.915549 a 2.3634198,1.2254769 5.54 1 1 -4.701829,-0.450175 2.3634198,1.2254769 5.54 1 1 4.701829,0.450175 z"
 id="path3840"
 style="color:#000000;fill:#eac4c4;fill-opacity:0.43243247;stroke-width:1.5" />
<path
 d="m 35.034993,32.439624 c -3.711163,0.130091 -3.190797,0.520367 -3.223911,3.354004 -0.03311,2.831269 0.260183,3.254659 3.354004,3.190796 3.093819,-0.06622 3.254659,0.293297 3.157681,-3.45098 -0.09698,-3.744279 -0.456503,-3.060706 -3.287774,-3.09382 z"
 id="path3759"
 style="color:#000000;fill:#ffbeab;fill-opacity:0.15315312;stroke-width:0.5" />
<path
 d="m 33.96875,2.46875 c -1.250342,0.015252 -2.590208,0.047266 -4.15625,0.09375 l 0,41.71875 c 1.479914,-0.01491 2.947991,-0.05382 4.15625,-0.09375 l 0,-41.71875 z m -10.1875,0.1875 C 22.964078,2.6847711 22.254036,2.7169332 21.5,2.75 l 0,41.625 c 0.99137,-0.0015 2.025231,-0.0082 3.125,-0.03125 0.38864,-0.0081 0.657009,0.0063 1.03125,0 l 0,-41.6875 c -0.615447,0.0032 -1.218494,0.00728 -1.875,0 z M 38.125,2.6875 l 0,41.15625 c 1.817617,-0.289859 3.165044,-0.794953 4.15625,-1.71875 l 0,-36.96875 C 41.326989,3.6915154 39.988486,2.9938987 38.125,2.6875 z M 17.34375,3 c -1.510681,0.1082454 -2.918584,0.2172404 -4.125,0.375 l 0,40.53125 c 1.219441,0.185013 2.598291,0.30309 4.125,0.375 L 17.34375,3 z M 9.0625,4.21875 C 7.1067465,4.7965975 5.7808672,5.5657165 4.90625,6.65625 l 0,32.1875 c 0.8807095,1.827997 2.2038935,3.115743 4.15625,3.96875 l 0,-38.59375 z"
 id="rect3780"
 style="color:#000000;fill:#ffb246;fill-opacity:0.3248945;fill-rule:nonzero;stroke:none;stroke-width:0.27011174;marker:none;visibility:visible;display:inline;overflow:visible;enable-background:accumulate" />
<path
 d="M 23.793305,2.6510467 C 0.14660218,3.4763679 3.4603918,5.9648363 3.260314,24.009359 3.0477312,42.041377 4.9109564,44.742428 24.618626,44.329767 44.313791,43.917107 45.351695,46.192992 44.726452,22.346212 44.113713,-1.5005691 41.825323,2.8511245 23.793305,2.6510467 z"
 id="path2994"
 style="color:#000000;fill:none;stroke:#5b0505;stroke-width:0.5;stroke-miterlimit:4;stroke-opacity:1;stroke-dasharray:none" />
</svg>
