<?xml version="1.0" encoding="UTF-8" standalone="no"?>
<!-- Created with Inkscape (http://www.inkscape.org/) -->
<svg xmlns:dc="http://purl.org/dc/elements/1.1/" xmlns:cc="http://creativecommons.org/ns#" xmlns:rdf="http://www.w3.org/1999/02/22-rdf-syntax-ns#" xmlns:svg="http://www.w3.org/2000/svg" xmlns="http://www.w3.org/2000/svg" version="1.1" width="100%" height="100%" viewBox="0 0 48 48" id="svg2">
<defs id="defs4" />
<path d="m 17.31,11.17 c -0.34,-0.00 -0.69,0.03 -1,0.28 -0.30,0.24 -0.48,0.64 -0.5,1.18 l 0,0.03 0,4.78 c 0.00,0.22 0.06,0.42 0.15,0.59 0.09,0.16 0.23,0.28 0.37,0.34 0.27,0.12 0.51,0.09 0.62,0.12 l 0,0.03 0.03,0 c 0,0 0.37,0.05 0.40,0.06 -0.11,0.86 -0.29,2.20 -0.43,3.65 l -1.84,-0.09 -0.03,0 c -0.78,-0.08 -1.57,-0.11 -2.37,0 l -8.06,0.81 c -0.59,0.08 -0.94,0.15 -1.18,0.25 -0.12,0.04 -0.24,0.07 -0.34,0.25 -0.01,0.01 -0.02,0.03 -0.03,0.06 l -0.03,0 c -0.09,0.03 -0.23,0.14 -0.31,0.28 -0.08,0.13 -0.14,0.27 -0.21,0.5 l 0,0.06 0,0.06 0.06,1.43 0,0.03 0,0.03 c 0.06,0.40 0.32,0.71 0.62,0.87 0.29,0.15 0.60,0.18 0.90,0.21 0,0 0.61,0.05 0.68,0.06 -0.00,3.32 -0.65,5.85 -1.25,8.53 -0.00,0.02 -0.02,0.04 -0.03,0.06 l 0.03,0 c -0.11,0.31 -0.15,0.60 0,0.84 0.17,0.25 0.41,0.28 0.59,0.31 l 1.46,0.18 0.12,0 c 0.27,0.07 0.59,0.07 0.87,-0.03 0.37,-0.14 0.68,-0.45 0.93,-0.90 l 0,-0.03 0,-0.03 c 0.46,-1.27 0.75,-2.62 0.96,-4.03 l 8.43,-1.12 c 0.13,1.53 0.28,3 0.28,3 l 0,0.03 c 0.16,0.73 0.33,1.13 0.56,1.40 0.22,0.27 0.51,0.36 0.65,0.40 l 0.06,0 0.06,0 1.21,-0.03 0.40,-0.03 0,-0.03 c 0.06,-0.02 0.13,-0.03 0.18,-0.06 0.27,-0.13 0.50,-0.33 0.71,-0.5 0.17,-0.12 0.17,-0.22 0.18,-0.31 0.01,-0.08 -0.00,-0.15 0,-0.25 0.00,-0.18 0.02,-0.43 0,-0.71 -0.04,-0.56 -0.15,-1.29 -0.25,-2.12 -0.12,-1.03 -0.22,-2.14 -0.31,-3.18 2.96,0.30 5.41,0.56 7.03,0.75 -0.57,2.45 -0.88,5.37 -1.71,8.25 -0.07,0.31 -0.03,0.63 0.12,0.84 0.15,0.19 0.34,0.26 0.5,0.31 0.00,0.00 0.02,-0.00 0.03,0 l 0.90,0.31 0.06,0.03 0.06,0 c -0.00,10e-5 0.05,0.01 0.15,0.03 0.10,0.02 0.26,0.03 0.43,0 0.07,-0.01 0.14,-0.07 0.21,-0.12 0.04,-0.00 0.07,0.00 0.12,0 0.09,-0.01 0.18,-0.02 0.28,-0.06 0.39,-0.13 0.91,-0.38 1.25,-0.5 l 0.03,0 c 0.47,-0.20 0.75,-0.53 0.90,-0.87 0.15,-0.34 0.21,-0.69 0.28,-0.96 l 0,-0.06 0,-0.06 c -0.04,-0.54 -0.05,-1.07 -0.03,-1.59 l 6.90,-1.18 c 0.04,0.34 0.09,0.80 0.09,0.81 2e-5,1.7e-4 0,0.03 0,0.03 l 0.28,0 -0.28,0.09 c 0.10,0.30 0.18,0.70 0.37,1.06 0.18,0.35 0.60,0.61 1.12,0.59 0.00,-2e-4 -0.00,0.03 0,0.03 0.01,-2.7e-4 0.01,2.7e-4 0.03,0 0.52,-0.01 0.19,-0.01 1.34,-0.03 0.00,6.6e-4 0.02,-3e-5 0.03,0 0.04,1.42e-4 0.10,-0.01 0.15,-0.03 0.31,0.16 0.66,0.06 1.03,-0.12 0.18,-0.09 0.40,-0.22 0.56,-0.46 0.14,-0.23 0.19,-0.52 0.12,-0.87 -0.00,-0.01 0.00,-0.01 0,-0.03 l 0,-0.03 -0.09,-1.18 0,-0.03 0,-0.03 c -0.24,-0.92 -0.57,-1.77 -0.87,-2.75 -0.26,-0.87 -0.44,-1.79 -0.56,-2.71 0.27,-0.04 0.54,-0.08 0.78,-0.15 0.17,-0.05 0.34,-0.09 0.5,-0.25 0.11,-0.11 0.14,-0.34 0.12,-0.53 l 0.03,0 0,-0.15 0,-1.93 0,-0.03 c -0.02,-0.20 -0.01,-0.42 -0.12,-0.65 -0.05,-0.11 -0.16,-0.24 -0.34,-0.31 -0.10,-0.03 -0.21,-0.02 -0.31,0 -0.01,-0.00 -0.01,-0.02 -0.03,-0.03 -0.08,-0.03 -0.15,-0.07 -0.25,-0.09 -0.14,-0.03 -0.33,-0.04 -0.53,-0.06 0.04,-1.30 0.15,-2.62 0.25,-3.62 0.00,1.2e-5 0.09,0 0.09,0 l 0.03,0 c 0.12,-0.00 0.21,-0.03 0.31,-0.06 0.10,0.06 0.20,0.11 0.31,0.12 0.25,0.01 0.50,-0.03 0.78,-0.09 0.00,-0.00 0.02,0.00 0.03,0 0.31,-0.03 0.59,-0.18 0.75,-0.40 0.15,-0.22 0.23,-0.51 0.28,-0.75 l 0.96,-5.96 a 0.36,0.36 0 0 0 0,-0.06 c -0.02,-0.51 -0.12,-0.85 -0.34,-1.06 -0.21,-0.20 -0.41,-0.22 -0.5,-0.28 a 0.36,0.36 0 0 0 -0.18,-0.06 l -1.21,0 a 0.36,0.36 0 0 0 -0.06,0 0.36,0.36 0 0 0 -0.09,0 c -0.23,-0.04 -0.44,-0.01 -0.62,0 -0.18,0.01 -0.34,0.00 -0.37,0 l -0.03,0 -0.03,0 c 0,0 -8.99,0.05 -13.59,0 -3.63,-0.04 -10.93,-0.25 -10.93,-0.25 z m 0,0.71 c 0,0 7.28,0.20 10.93,0.25 4.59,0.05 13.44,4.9e-4 13.53,0 l 0.06,0 c 0.18,0.01 0.34,0.01 0.5,0 0.17,-0.01 0.34,-0.04 0.43,-0.03 0.02,0.00 0.01,-0.00 0.03,0 4.04e-4,0.00 0.03,-0.00 0.03,0 0.00,0.02 -0.00,0.05 0,0.09 0.01,0.14 0.01,0.33 0,0.59 -0.00,0.18 -0.04,0.42 -0.06,0.65 -0.00,0.08 -0.02,0.15 -0.03,0.25 l -0.43,2.96 c -0.03,0.17 -0.06,0.35 -0.09,0.53 -0.11,0.68 -0.20,1.31 -0.28,1.90 -0.00,0.05 -0.02,0.13 -0.03,0.18 -0.01,0.00 -0.01,0.02 -0.06,0.03 l 0,-0.03 c 0,0 -9.30,-0.04 -13.87,-0.31 -3.59,-0.21 -10.73,-1.14 -10.81,-1.15 -0.02,-0.00 -0.03,0.00 -0.06,0 -0.21,-0.05 -0.41,-0.06 -0.46,-0.09 -0.03,-0.01 -0.01,-0.00 -0.03,-0.03 -0.01,-0.02 -0.06,-0.10 -0.06,-0.25 l 0,-4.78 c 0.01,-0.41 0.11,-0.57 0.21,-0.65 0.10,-0.08 0.29,-0.12 0.56,-0.12 z m 26.28,0.25 0.59,0 c 0.12,0.06 0.25,0.12 0.28,0.15 0.03,0.03 0.09,0.17 0.12,0.5 l 0,0.06 -0.96,5.87 c -0.04,0.20 -0.09,0.35 -0.15,0.43 -0.06,0.08 -0.10,0.14 -0.25,0.15 a 0.36,0.36 0 0 0 -0.03,0 c -0.25,0.04 -0.44,0.06 -0.56,0.06 0.00,-0.03 -0.00,-0.08 0,-0.12 0.00,-0.03 0.02,-0.08 0.03,-0.12 0.00,-0.02 0.02,-0.06 0.03,-0.09 l 0,-0.06 0.03,-0.03 0.34,-2.43 c 0.09,-0.55 0.20,-1.09 0.28,-1.62 0.11,-0.72 0.18,-1.36 0.21,-1.90 0.00,-0.02 -0.00,-0.06 0,-0.09 l 0,-0.03 c 0.05,-0.26 0.05,-0.51 0.03,-0.71 z m -25.46,6.53 c 0.24,0.03 0.66,0.10 1.09,0.15 -0.10,0.58 -0.24,1.40 -0.34,2.37 -0.04,0.37 -0.09,0.72 -0.12,1.12 l -1.03,-0.03 c 0.14,-1.47 0.30,-2.85 0.40,-3.62 z m 1.81,0.25 c 0.26,0.03 0.26,0.02 0.56,0.06 -0.15,0.82 -0.31,1.98 -0.43,3.40 l -0.53,-0.03 c 0.06,-0.77 0.10,-1.50 0.18,-2.12 0.07,-0.51 0.14,-0.92 0.21,-1.31 z m 1.28,0.15 c 2.24,0.25 4.91,0.51 6.71,0.62 2.85,0.16 6.78,0.23 9.90,0.28 -0.02,0.86 -0.07,2.07 -0.09,3.43 -3.03,-0.21 -5.86,-0.48 -8.31,-0.59 l -8.65,-0.40 c 0.11,-1.36 0.27,-2.49 0.43,-3.34 z m 17.37,0.90 c 0.46,0.00 0.75,0.02 1.09,0.03 -0.06,0.41 -0.10,0.83 -0.15,1.37 -9.43e-4,0.01 9.32e-4,0.01 0,0.03 -0.05,0.61 -0.11,1.32 -0.12,2.09 -0.30,-0.01 -0.63,-0.01 -0.93,-0.03 0.02,-1.42 0.09,-2.67 0.12,-3.5 z m 1.84,0.03 c 0.13,0.00 0.54,0.03 0.62,0.03 -0.09,0.92 -0.22,2.22 -0.28,3.56 -0.22,-0.01 -0.43,-0.01 -0.65,-0.03 0.02,-0.70 0.07,-1.42 0.12,-2.09 0.00,-0.04 -0.00,-0.07 0,-0.12 0.05,-0.55 0.11,-0.95 0.18,-1.34 z m -26.53,2.78 c 0.37,0.00 0.77,0.05 1.15,0.09 l 14.34,0.65 c 3.02,0.13 6.74,0.53 10.68,0.75 -2.92,0.58 -5.91,1.10 -8.96,1.5 -0.02,0.00 -0.04,-0.00 -0.06,0 l -0.31,0 0,0.03 c -0.64,-0.02 -9.70,-0.36 -14.46,-0.75 -1.84,-0.15 -4.47,-0.44 -6.78,-0.71 -0.16,-0.02 -0.24,-0.04 -0.40,-0.06 -0.18,-0.02 -0.16,-0.00 -0.34,-0.03 -1.07,-0.14 -2.08,-0.29 -2.81,-0.40 -0.49,-0.07 -0.74,-0.10 -1.09,-0.15 l 7.96,-0.81 c 0.36,-0.05 0.71,-0.09 1.09,-0.09 z m -10.40,1.43 c 0.05,0.00 0.12,0.02 0.18,0.03 0.00,0.00 0.02,-0.00 0.03,0 0.17,0.05 0.35,0.10 0.40,0.12 l 0.03,0.03 0.06,0 c 0,0 2.09,0.28 4.68,0.59 1.60,0.21 3.52,0.44 5.96,0.68 5.26,0.52 15.33,0.79 15.78,0.81 l 0,0.25 c -0.06,0.69 -0.09,1.34 -0.03,1.90 -0.12,0.01 -0.39,0.01 -0.68,0.03 l -0.84,-0.03 c -0.82,-0.09 -7.41,-0.84 -11.06,-1.18 -3.26,-0.31 -7.83,-0.66 -10.81,-0.90 l -0.37,-0.03 c -0.59,-0.04 -1.35,-0.10 -1.62,-0.12 l -0.40,-0.03 c -0.06,-0.00 -0.62,-0.06 -0.62,-0.06 -0.27,-0.02 -0.51,-0.08 -0.65,-0.15 -0.12,-0.06 -0.18,-0.12 -0.21,-0.31 l 0,-0.03 -0.03,-0.96 0.21,-0.62 z m 38.78,0.43 c 0.00,0.05 0.01,0.10 0.03,0.18 0.00,0.02 -0.00,0.03 0,0.06 l 0,2 0,0.03 c -0.02,0.01 -0.03,0.01 -0.09,0.03 -0.23,0.07 -0.63,0.11 -1.06,0.18 l -9.68,1.34 c -0.06,-0.52 -0.04,-1.19 0.03,-2 2.18,-0.28 4.31,-0.64 6.43,-1.03 l 3.59,-0.56 0.03,0 c 0.30,-0.07 0.51,-0.13 0.68,-0.21 0.01,-0.00 0.01,-0.02 0.03,-0.03 z m -36.78,2.5 1.25,0.09 c -0.01,0.39 -0.03,0.77 -0.06,1.15 -0.02,0.29 -0.06,0.58 -0.09,0.87 -0.00,0.01 0.00,0.02 0,0.03 -0.01,0.17 -0.04,0.35 -0.06,0.53 -0.24,1.85 -0.62,3.67 -0.96,5.5 -0.07,0.31 -0.14,0.62 -0.21,0.93 l -1.09,-0.15 c -0.04,-0.00 -0.07,-0.02 -0.09,-0.03 0.00,-0.03 0.01,-0.08 0.06,-0.18 l 0.03,-0.03 0,-0.03 c 0.59,-2.65 1.23,-5.28 1.25,-8.68 z m 1.96,0.15 0.81,0.09 c -0.23,3.10 -0.49,5.90 -1.37,8.34 -0.20,0.36 -0.39,0.52 -0.56,0.59 -0.08,0.03 -0.18,-0.02 -0.28,-0.03 0.35,-1.48 0.64,-2.94 0.87,-4.37 0.01,-0.06 0.01,-0.12 0.03,-0.18 0.00,-0.04 -0.00,-0.08 0,-0.12 0.25,-1.39 0.45,-2.81 0.5,-4.31 z m 1.53,0.09 c 2.59,0.20 5.39,0.46 7.78,0.68 0.00,0.20 0.01,0.41 0.03,0.62 l -8,0.81 c 0.06,-0.69 0.13,-1.39 0.18,-2.12 z m 32,0.56 c 0.11,0.95 0.24,1.92 0.53,2.84 0.29,0.97 0.61,1.78 0.84,2.62 l 0.09,1.25 0,0.03 0,0.03 c 0.05,0.26 0.03,0.34 0,0.40 -0.03,0.06 -0.13,0.14 -0.28,0.21 -0.27,0.13 -0.37,0.09 -0.37,0.09 -6.51e-4,-4.1e-4 -0.03,-0.02 -0.06,-0.09 -0.00,-0.04 -0.01,-0.10 -0.03,-0.15 l 0,-0.03 0,-0.03 c 0,0 -0.02,-0.08 -0.03,-0.09 -0.11,-0.45 -0.31,-1.10 -0.5,-1.93 -0.30,-1.37 -0.57,-3.26 -0.78,-5.06 l 0.59,-0.09 z m -23.5,0.18 c 0.13,0.01 0.34,0.01 0.46,0.03 0.21,0.02 0.57,0.07 0.81,0.09 0.13,1.97 0.34,3.91 0.5,5.25 0.05,0.61 0.11,1.36 0.12,1.43 l -0.71,0.03 c -0.18,-0.05 -0.21,-0.03 -0.31,-0.15 -0.09,-0.11 -0.25,-0.43 -0.40,-1.06 0,0 -0.14,-1.53 -0.28,-3.09 0.47,-0.23 0.76,-0.67 0.71,-1.12 -0.03,-0.27 -0.18,-0.55 -0.43,-0.71 -0.12,-0.08 -0.27,-0.16 -0.43,-0.18 -0.01,-0.16 -0.01,-0.33 -0.03,-0.5 z m 22.15,0 c 0.09,0.85 0.20,1.71 0.34,2.56 -0.05,0.00 -0.12,0.04 -0.18,0.06 l 0,-0.03 -1.06,0.21 c -0.08,-0.89 -0.16,-1.80 -0.21,-2.65 l 1.12,-0.15 z m -20.12,0.18 c 0.15,0.01 0.33,0.04 0.5,0.06 0.09,1.08 0.21,2.23 0.34,3.31 0.09,0.82 0.17,1.58 0.21,2.12 0.02,0.27 0.00,0.48 0,0.62 -0.00,0.05 0.00,0.06 0,0.09 -0.00,0.00 7.5e-4,0.02 0,0.03 -0.17,0.13 -0.32,0.24 -0.43,0.31 -0.03,-0.27 -0.13,-1.07 -0.28,-2.43 -0.11,-1.25 -0.23,-2.77 -0.34,-4.12 z m 18.28,0.06 c 0.06,0.86 0.15,1.78 0.25,2.68 l -6.37,1.31 c 0.19,-1.07 0.46,-2.14 0.71,-3.25 l 5.40,-0.75 z m -6.18,0.87 c -0.41,1.76 -0.85,3.49 -0.93,5.40 l -0.03,0.18 c -0.01,0.46 0.02,0.94 0.06,1.43 -0.08,0.32 -0.12,0.59 -0.21,0.81 -0.09,0.20 -0.21,0.36 -0.5,0.5 -0.01,0.00 -0.01,0.02 -0.03,0.03 -0.29,0.10 -0.64,0.23 -0.93,0.34 0.00,-0.01 -0.00,-0.01 0,-0.03 l 0,-0.03 c 0.12,-2.22 0.44,-4.00 1.03,-6.28 0.17,-0.67 0.36,-1.29 0.62,-2.18 l 0.62,-0.12 0.18,0 0,-0.03 0.12,-0.03 z m -3.12,0.06 0.40,0.03 c 0.08,0.00 0.65,0.06 0.65,0.06 l 0.03,0 c 0.20,-0.00 0.23,-0.02 0.37,-0.03 -0.23,0.84 -0.46,1.58 -0.65,2.31 -0.82,3.12 -0.87,4.29 -1.09,6.40 -0.03,0.04 -0.06,0.09 -0.09,0.15 -0.02,0.00 -0.02,0.00 -0.06,0 -0.05,-0.01 -0.13,-0.02 -0.21,-0.03 l -0.09,-0.03 -0.81,-0.28 c -0.12,-0.04 -0.18,-0.08 -0.18,-0.09 -0.00,-0.00 -0.04,-4.9e-4 0,-0.18 0.86,-2.98 1.18,-5.92 1.75,-8.31 z m -11.09,0.03 c 0.06,0.00 0.11,0.03 0.15,0.06 0.07,0.05 0.11,0.10 0.12,0.18 0.01,0.15 -0.07,0.41 -0.46,0.5 -0.01,0.00 -0.01,-0.00 -0.03,0 l -8.40,1.12 c 0.05,-0.33 0.13,-0.66 0.18,-1 l 8.12,-0.84 0.03,0 c 0.12,-0.01 0.21,-0.03 0.28,-0.03 z m 22.46,2.06 c 0.05,0.07 0.11,0.25 0.15,0.43 0.03,0.17 0.04,0.34 0,0.46 -0.04,0.11 -0.11,0.19 -0.28,0.25 -0.01,0.00 -0.01,-0.00 -0.03,0 l -8.18,1.37 0.12,-0.84 8.21,-1.68 z m 0.53,1.53 c 0.18,0.86 0.57,2.23 0.59,2.31 0.00,0.02 0.02,0.03 0.03,0.06 0.00,0.02 -0.00,0.06 0,0.09 -0.60,0.01 -0.64,0.02 -1.12,0.03 l -0.03,0 c -0.31,0.02 -0.35,-0.03 -0.46,-0.25 -0.1,-0.18 -0.18,-0.52 -0.28,-0.84 -0.01,-0.04 -0.01,-0.07 -0.03,-0.12 -0.00,-0.01 -0.05,-0.47 -0.09,-0.81 l 0.87,-0.15 0.03,0 c 0.20,-0.05 0.36,-0.17 0.5,-0.31 z" />
</svg>
