<?xml version="1.0" encoding="UTF-8" standalone="no"?>
<!-- Created with Inkscape (http://www.inkscape.org/) -->
<svg xmlns:dc="http://purl.org/dc/elements/1.1/" xmlns:cc="http://creativecommons.org/ns#" xmlns:rdf="http://www.w3.org/1999/02/22-rdf-syntax-ns#" xmlns:svg="http://www.w3.org/2000/svg" xmlns="http://www.w3.org/2000/svg" version="1.1" width="100%" height="100%" viewBox="0 0 48 48" id="svg2">
<defs id="defs4" />
<path d="m 28.05,5.57 c -0.46,0.04 -0.61,0.12 -0.92,0.23 -8.04,2.91 -15.87,5.91 -24.20,9.04 -0.24,0.05 -0.62,0.67 -0.61,1.16 0.00,0.59 0.29,1.12 0.55,1.18 0.55,0.17 0.95,0.31 1.51,0.48 l 0,17.95 c 0,0 -0.00,0.29 0.03,0.40 0.06,0.14 0.24,0.26 0.37,0.30 0.61,0.21 0.95,0.30 1.72,0.59 0.07,0.01 0.35,0.13 0.55,0.13 0.20,0 0.35,-0.02 0.53,-0.11 0.37,-0.17 0.47,-0.23 0.91,-0.42 0.16,-0.07 0.32,-0.21 0.35,-0.34 0.05,-0.29 0.09,-0.41 0.10,-0.95 l 0.00,-12.28 c 3.68,1.37 7.45,2.62 11.17,3.96 l -0.01,13.77 c 0,0 -8.51e-4,0.37 0.06,0.47 0.11,0.15 0.27,0.20 0.42,0.25 0.60,0.17 1.01,0.26 1.75,0.45 0.11,0.01 0.40,0.07 0.50,0.07 0.10,0 0.23,-0.05 0.36,-0.12 0.33,-0.20 0.63,-0.41 0.97,-0.67 0.25,-0.20 0.36,-0.26 0.45,-0.46 0.04,-0.11 0.03,-0.22 0.03,-0.71 l 0,-13.28 c 0.96,-0.53 1.72,-0.95 2.70,-1.50 -0.01,0.90 0,1.61 0,2.48 0,0.15 0.03,0.28 0.11,0.41 0.05,0.10 0.19,0.12 0.34,0.17 0.27,0.08 0.67,0.22 0.95,0.30 0.17,0.05 0.34,0.11 0.48,0.08 0.20,-0.02 0.37,-0.13 0.59,-0.23 0.12,-0.05 0.64,-0.35 0.77,-0.41 0.16,-0.07 0.17,-0.11 0.23,-0.20 0.06,-0.09 0.08,-0.21 0.08,-0.38 0,-1.43 0.02,-2.94 0.02,-4.28 3.13,-1.76 5.88,-3.66 9.01,-5.42 l -0.00,12.60 c 0,0 -0.01,0.26 0.08,0.40 0.09,0.11 0.45,0.21 0.45,0.21 l 1.10,0.20 c 0,-0.00 0.21,0.04 0.41,0.03 0.17,0 0.41,-0.11 0.58,-0.20 0.20,-0.12 0.47,-0.28 0.66,-0.41 0.08,-0.05 0.25,-0.21 0.32,-0.32 0.07,-0.14 0.07,-0.21 0.08,-0.38 0,-5.86 0.06,-11.53 0.06,-17.65 0.67,-0.38 0.96,-0.59 1.65,-0.97 0.23,-0.12 0.40,-0.85 0.35,-1.33 0.00,-1.10 -0.83,-1.09 -1.42,-1.24 C 38.94,7.57 33.75,6.58 29.00,5.68 28.68,5.60 28.34,5.56 28.05,5.57 z m 0.05,0.37 c 0.20,-0.01 1.06,0.08 1.06,0.08 l 15.02,3.19 c 0,0 0.43,0.04 0.44,0.14 0,0.12 -0.33,0.27 -0.33,0.27 L 23.97,20.80 c 0,0 -0.41,0.26 -0.70,0.23 -0.27,-0.01 -0.52,-0.13 -0.52,-0.13 0,0 -17.89,-5.41 -18.13,-5.48 -0.19,-0.05 -0.53,-0.05 -0.52,-0.19 0.01,-0.17 0.55,-0.27 1.05,-0.44 C 5.41,14.67 23.27,7.72 27.26,6.23 27.62,6.10 27.84,5.98 28.11,5.96 z m 17.03,3.69 c 0.20,-0.11 0.34,0.22 0.33,0.45 0,0.17 -0.01,0.43 -0.29,0.61 -6.46,3.71 -14.68,8.29 -21.04,11.82 -0.12,0.08 -0.38,-0.01 -0.52,-0.41 -0.06,-0.20 0.09,-0.53 0.21,-0.70 6.89,-3.75 14.27,-7.91 21.31,-11.77 z m -1.93,2.93 0.02,17.30 c -0.25,0.18 -0.71,0.53 -0.83,0.59 0,-5.51 -0.05,-11.71 -0.08,-17.41 0.29,-0.16 0.59,-0.33 0.89,-0.50 z m -1.34,0.76 0.06,17.19 c -0.37,-0.06 -0.82,-0.11 -1.17,-0.18 l 0,-13.03 c 0.21,-0.11 0.42,-0.23 0.64,-0.35 l 0,-3.34 c 0.14,-0.08 0.29,-0.17 0.45,-0.25 z m -17.04,12.77 0,-2.83 C 30.35,20.16 36.03,16.66 40.96,13.87 l 0,2.82 C 35.47,19.78 29.77,23.34 24.81,26.14 z M 3.58,15.66 c 6.24,1.91 12.88,3.85 19.20,5.79 0.20,0.04 0.29,0.57 0.28,0.79 -0.02,0.31 -0.27,0.49 -0.41,0.47 C 21.83,22.47 20.93,22.19 20.16,21.95 14.36,20.00 8.46,18.25 3.56,16.63 3.34,16.58 3.29,16.45 3.28,16.17 3.27,15.89 3.46,15.67 3.59,15.67 z m 1.54,2.29 c 0.47,0.15 1.13,0.40 1.62,0.55 0,5.83 0,11.95 0.02,17.88 C 6.25,36.21 5.60,35.97 5.06,35.77 5.03,29.96 5.12,23.86 5.12,17.95 z m 2.08,0.70 c 0.11,0.00 0.31,0.13 0.41,0.14 l -0.02,3.62 c 0.19,0.05 0.45,0.20 0.65,0.27 l -0.00,13.25 c -0.42,0.25 -0.79,0.39 -0.96,0.46 0,-5.05 -0.03,-11.99 -0.05,-17.75 z m 0.84,3.50 0.05,-3.20 c 4.10,1.30 8.26,2.66 11.98,3.85 l 0.02,3.62 C 15.99,24.95 11.56,23.47 8.06,22.16 z m 12.84,0.68 c 0.49,0.14 1.05,0.36 1.52,0.51 l 0.11,17.74 c -0.60,-0.11 -1.20,-0.28 -1.77,-0.42 0,-5.65 0.10,-11.91 0.11,-17.83 z m 3.09,0.41 c 0,5.64 0.06,11.68 0.06,17.17 -0.34,0.28 -0.65,0.48 -0.96,0.67 -0.03,-5.61 -0.09,-12.00 -0.11,-17.71 0.57,0.04 0.89,-0.00 1.01,-0.13 z m 6.53,0.19 0,4.03 c -0.37,0.20 -0.66,0.36 -0.98,0.49 -0.02,-1.11 -0.04,-2.46 -0.05,-3.75 0.35,-0.26 0.61,-0.45 1.05,-0.77 z m -1.49,1.03 0.03,3.43 c -0.39,-0.08 -0.71,-0.17 -0.98,-0.27 l 1e-6,-2.69 c 0.19,-0.09 0.58,-0.28 0.95,-0.45 z" id="path4" />
</svg>
