<?xml version="1.0" encoding="UTF-8" standalone="no"?>
<svg xmlns:svg="http://www.w3.org/2000/svg" xmlns="http://www.w3.org/2000/svg" xmlns:xlink="http://www.w3.org/1999/xlink" version="1.0" width="100%" height="100%" viewBox="0 0 48 576" id="slider02">
<defs>
    <style type="text/css">
        #template   { display:none; }
        path        { fill:#ffffff;fill-opacity:0.25;stroke:#373737;stroke-width:0.5; }
    </style>
</defs>
<g id="template">
<path d="M -0.62,-14.20 L -1.59,-12.07 L -1.66,-11.32 L -1.47,-10.04 L -3.74,-9.43 L -4.22,-10.64 L -4.66,-11.25 L -6.55,-12.60 L -7.64,-11.97 L -7.41,-9.66 L -7.10,-8.97 L -6.29,-7.96 L -7.96,-6.29 L -8.97,-7.10 L -9.66,-7.41 L -11.97,-7.64 L -12.60,-6.55 L -11.25,-4.66 L -10.64,-4.22 L -9.43,-3.74 L -10.04,-1.47 L -11.32,-1.66 L -12.07,-1.59 L -14.20,-0.62 L -14.20,0.62 L -12.07,1.59 L -11.32,1.66 L -10.04,1.47 L -9.43,3.74 L -10.64,4.22 L -11.25,4.66 L -12.60,6.55 L -11.97,7.64 L -9.66,7.41 L -8.97,7.10 L -7.96,6.29 L -6.29,7.96 L -7.10,8.97 L -7.41,9.66 L -7.64,11.97 L -6.55,12.60 L -4.66,11.25 L -4.22,10.64 L -3.74,9.43 L -1.47,10.04 L -1.66,11.32 L -1.59,12.07 L -0.62,14.20 L 0.62,14.20 L 1.59,12.07 L 1.66,11.32 L 1.47,10.04 L 3.74,9.43 L 4.22,10.64 L 4.66,11.25 L 6.55,12.60 L 7.64,11.97 L 7.41,9.66 L 7.10,8.97 L 6.29,7.96 L 7.96,6.29 L 8.97,7.10 L 9.66,7.41 L 11.97,7.64 L 12.60,6.55 L 11.25,4.66 L 10.64,4.22 L 9.43,3.74 L 10.04,1.47 L 11.32,1.66 L 12.07,1.59 L 14.20,0.62 L 14.20,-0.62 L 12.07,-1.59 L 11.32,-1.66 L 10.04,-1.47 L 9.43,-3.74 L 10.64,-4.22 L 11.25,-4.66 L 12.60,-6.55 L 11.97,-7.64 L 9.66,-7.41 L 8.97,-7.10 L 7.96,-6.29 L 6.29,-7.96 L 7.10,-8.97 L 7.41,-9.66 L 7.64,-11.97 L 6.55,-12.60 L 4.66,-11.25 L 4.22,-10.64 L 3.74,-9.43 L 1.47,-10.04 L 1.66,-11.32 L 1.59,-12.07 L 0.62,-14.20 L -0.62,-14.20 z M 0,-6.06 C 3.35,-6.06 6.06,-3.35 6.06,0 C 6.06,3.35 3.35,6.06 0,6.06 C -3.35,6.06 -6.06,3.35 -6.06,0 C -6.06,-3.35 -3.35,-6.06 0,-6.06 z" id="g12"/>
<path d="M -0.54,-10.13 L -1.58,-7.96 L -1.60,-7.46 L -1.27,-5.95 L -3.30,-5.11 L -4.14,-6.40 L -4.51,-6.75 L -6.77,-7.55 L -7.55,-6.77 L -6.75,-4.51 L -6.40,-4.14 L -5.11,-3.30 L -5.95,-1.27 L -7.46,-1.60 L -7.96,-1.58 L -10.13,-0.54 L -10.13,0.54 L -7.96,1.58 L -7.46,1.60 L -5.95,1.27 L -5.11,3.30 L -6.40,4.14 L -6.75,4.51 L -7.55,6.77 L -6.77,7.55 L -4.51,6.75 L -4.14,6.40 L -3.30,5.11 L -1.27,5.95 L -1.60,7.46 L -1.58,7.96 L -0.54,10.13 L 0.54,10.13 L 1.58,7.96 L 1.60,7.46 L 1.27,5.95 L 3.30,5.11 L 4.14,6.40 L 4.51,6.75 L 6.77,7.55 L 7.55,6.77 L 6.75,4.51 L 6.40,4.14 L 5.11,3.30 L 5.95,1.27 L 7.46,1.60 L 7.96,1.58 L 10.13,0.54 L 10.13,-0.54 L 7.96,-1.58 L 7.46,-1.60 L 5.95,-1.27 L 5.11,-3.30 L 6.40,-4.14 L 6.75,-4.51 L 7.55,-6.77 L 6.77,-7.55 L 4.51,-6.75 L 4.14,-6.40 L 3.30,-5.11 L 1.27,-5.95 L 1.60,-7.46 L 1.58,-7.96 L 0.54,-10.13 L -0.54,-10.13 z M 0,-2.54 C 1.40,-2.54 2.54,-1.40 2.54,0 C 2.54,1.40 1.40,2.54 0,2.54 C -1.40,2.54 -2.54,1.40 -2.54,0 C -2.54,-1.40 -1.40,-2.54 0,-2.54 z" id="g8"/>
</g>

<g id="move">
    <g transform="translate(0,0)">
        <g transform="translate(16,19)"><g transform="rotate(0)"><use x="0" y="0" xlink:href="#g12"/></g></g>
        <g transform="translate(36,27)"><g transform="rotate(-12)"><use x="0" y="0" xlink:href="#g8"/></g></g>
    </g>

    <g transform="translate(0,48)">
        <g transform="translate(16,19)"><g transform="rotate(7.5)"><use x="0" y="0" xlink:href="#g12"/></g></g>
        <g transform="translate(36,27)"><g transform="rotate(-23.25)"><use x="0" y="0" xlink:href="#g8"/></g></g>
    </g>

    <g transform="translate(0,96)">
        <g transform="translate(16,19)"><g transform="rotate(15)"><use x="0" y="0" xlink:href="#g12"/></g></g>
        <g transform="translate(36,27)"><g transform="rotate(-34.5)"><use x="0" y="0" xlink:href="#g8"/></g></g>
    </g>

    <g transform="translate(0,144)">
        <g transform="translate(16,19)"><g transform="rotate(22.5)"><use x="0" y="0" xlink:href="#g12"/></g></g>
        <g transform="translate(36,27)"><g transform="rotate(-45.75)"><use x="0" y="0" xlink:href="#g8"/></g></g>
    </g>
</g>
<use x="0" y="0" xlink:href="#move" transform="translate(0,192)"/>
<use x="0" y="0" xlink:href="#move" transform="translate(0,384)"/>

</svg>
