<?xml version="1.0" encoding="UTF-8" standalone="no"?>
<!-- Created with Inkscape (http://www.inkscape.org/) -->
<svg xmlns:dc="http://purl.org/dc/elements/1.1/" xmlns:cc="http://creativecommons.org/ns#" xmlns:rdf="http://www.w3.org/1999/02/22-rdf-syntax-ns#" xmlns:svg="http://www.w3.org/2000/svg" xmlns="http://www.w3.org/2000/svg" version="1.0" width="100%" height="100%" viewBox="0 0 48 48" id="svg2">
<defs id="defs10" />
<path d="m 19.44,13.53 c -0.27,3.8e-4 -0.56,0.00 -0.87,0.01 -3.65,0.05 -8.39,0.02 -11.35,2.22 -1.23,0.91 -1.84,1.39 -3.08,2.30 -0.55,0.42 -1.04,0.92 -1.21,1.70 l -0.00,0.02 0.00,0.01 c 0.05,0.11 0.07,0.21 0.07,0.29 -10e-4,0.00 10e-4,0.00 0,0.01 -0.01,0.03 -0.02,0.07 -0.03,0.10 -0.01,0.03 -0.01,0.07 -0.03,0.10 -4.49e-4,0.00 4.49e-4,0.00 0,0.00 l -0.00,0 c -0.13,0.19 -0.41,0.29 -0.55,0.36 -0.01,0.00 -0.03,0.01 -0.04,0.02 -0.01,0.00 -0.02,0.01 -0.03,0.03 -0.00,0.00 -0.01,0.02 -0.01,0.04 8.98e-4,0.02 0.01,0.04 0.02,0.05 0.02,0.02 0.03,0.02 0.05,0.02 0.07,0.01 0.20,0.02 0.45,0.03 l 0.04,0.00 0.01,-0.04 c 0.05,-0.12 0.10,-0.28 0.15,-0.46 l 0.00,0 c 4.5e-4,-0.00 -5.99e-4,-0.00 0,-0.00 l 0.00,0 c 0.00,-0.00 0.00,-0.01 0.00,-0.01 0.01,-0.04 0.02,-0.07 0.04,-0.12 0.01,-0.04 0.03,-0.07 0.04,-0.12 3e-4,-0.00 -2.99e-4,-0.00 0,-0.01 10e-4,-0.00 0.00,-0.00 0.00,-0.01 8.98e-4,-0.00 -8.98e-4,-0.00 0,-0.01 0.16,-0.45 0.38,-0.98 0.71,-1.35 0.33,-0.38 0.78,-0.61 1.43,-0.50 l 0.00,0 0.00,0 c 0.40,-0.05 1.51,-0.19 2.30,-0.19 0.32,-9.5e-4 1.91,0.07 1.57,0.49 -0.14,0.35 -0.43,0.92 -0.50,1.26 -0.40,1.64 0.17,3.36 0.52,4.95 -0.06,0.09 -0.12,0.16 -0.15,0.19 -0.04,0.03 -0.05,0.02 -0.06,0.02 -0.00,-0.00 -0.03,-0.02 -0.05,-0.07 -0.02,-0.04 -0.03,-0.10 -0.05,-0.16 -0.01,-0.06 -0.03,-0.12 -0.05,-0.18 -0.01,-0.05 -0.03,-0.11 -0.07,-0.15 -0.01,-0.02 -0.04,-0.03 -0.07,-0.04 -0.03,-0.00 -0.06,-9.3e-4 -0.09,0.01 -0.03,0.01 -0.05,0.06 -0.08,0.09 -0.20,-0.61 -0.39,-1.02 -0.57,-1.42 -0.18,-0.42 -0.36,-0.85 -0.55,-1.62 -4.49e-4,-0.00 2.99e-4,-0.00 0,-0.00 -0.02,-0.14 -0.04,-0.24 -0.05,-0.31 -0.00,-0.03 -0.01,-0.06 -0.02,-0.08 -0.00,-0.02 -0.00,-0.03 -0.02,-0.05 -0.00,-0.01 -0.02,-0.02 -0.05,-0.02 -0.02,0 -0.04,0.01 -0.05,0.02 -0.01,0.02 -0.02,0.03 -0.02,0.05 -0.01,0.03 -0.01,0.07 -0.02,0.12 -0.00,0.04 -0.01,0.09 -0.02,0.13 -0.00,0.00 -0.00,0.01 -0.00,0.01 -0.01,-0.01 -0.01,-0.01 -0.02,-0.05 l 0,-0.00 -0.00,-0.00 C 6.74,20.76 6.42,20.51 6.08,20.43 c -0.33,-0.07 -0.68,0.01 -0.96,0.21 -0.56,0.40 -0.90,1.25 -0.52,2.08 0.08,0.21 0.13,0.37 0.14,0.49 0.01,0.11 -0.00,0.18 -0.01,0.21 -0.01,0.02 -0.03,0.02 -0.07,0.01 C 4.59,23.44 4.53,23.40 4.46,23.34 4.33,23.23 4.19,23.03 4.14,22.82 4.08,22.62 4.11,22.40 4.28,22.22 l -0.08,-0.10 c -0.04,0.03 -0.08,0.05 -0.10,0.06 -0.02,0.00 -0.03,0.00 -0.04,0 -0.00,-0.00 -0.01,-0.00 -0.02,-0.02 -0.00,-0.01 -0.01,-0.05 -0.01,-0.08 -0.01,-0.15 0.03,-0.41 0.08,-0.65 0.02,-0.11 0.05,-0.23 0.07,-0.32 0.02,-0.08 0.03,-0.15 0.04,-0.19 8.98e-4,-0.01 0.00,-0.01 -0.00,-0.04 -9.18e-4,-0.00 -0.00,-0.00 -0.00,-0.01 0.29,-0.13 0.35,-0.77 0.79,-0.85 0.77,-0.41 1.79,-0.18 2.31,0.52 0.77,0.98 1.07,2.24 1.15,3.47 C 8.99,23.73 8.46,22.96 8.50,22.51 8.23,21.44 7.73,20.31 6.74,19.72 6.41,19.56 6.03,19.52 5.67,19.57 c -0.69,0.00 -1.52,0.54 -1.57,1.25 -0.01,0.01 -0.02,0.02 -0.02,0.03 -0.00,0.01 -0.01,0.02 -0.02,0.03 -0.03,0.06 -0.08,0.17 -0.16,0.35 l 0,0.00 0,0.00 c -0.04,0.14 -0.09,0.24 -0.14,0.30 -0.04,0.05 -0.07,0.07 -0.10,0.07 -0.03,0.00 -0.07,-0.01 -0.12,-0.04 -0.04,-0.03 -0.10,-0.08 -0.16,-0.13 -0.11,-0.10 -0.24,-0.23 -0.39,-0.26 -0.07,-0.01 -0.16,-0.01 -0.24,0.03 -0.06,0.04 -0.12,0.12 -0.19,0.22 -0.12,0.00 -0.23,0.01 -0.30,0.02 -0.08,0.01 -0.13,0.02 -0.18,0.06 -0.02,0.01 -0.03,0.03 -0.04,0.06 -0.00,0.02 -0.00,0.06 0.00,0.08 0.02,0.04 0.06,0.07 0.10,0.10 0.08,0.06 0.19,0.14 0.30,0.23 0.10,0.08 0.20,0.18 0.23,0.28 0.03,0.10 0.01,0.21 -0.14,0.36 -0.23,0.04 -0.41,0.08 -0.53,0.11 -0.12,0.02 -0.19,0.04 -0.24,0.07 -0.01,0.00 -0.02,0.01 -0.03,0.02 -0.00,0.00 -0.01,0.02 -0.01,0.04 -4.49e-4,0.02 0.00,0.04 0.01,0.05 0.01,0.02 0.03,0.02 0.04,0.02 0.01,0.00 0.02,0.00 0.03,0.00 0.05,0.00 0.12,0.00 0.22,0.01 0.19,0.00 0.46,0.00 0.73,0.02 0.27,0.02 0.53,0.06 0.70,0.14 l 0.00,0.00 0.00,0 c 0.54,0.08 0.86,0.32 1.08,0.65 0.22,0.32 0.34,0.74 0.44,1.18 0.10,0.44 0.19,0.91 0.36,1.34 0.16,0.46 0.47,0.78 0.86,1.07 l 0.08,-0.09 C 5.59,26.49 5.06,25.14 5.06,23.90 l 0,-0.01 -0.00,-0.01 c -0.07,-0.13 -0.06,-0.46 0,-0.81 0.06,-0.35 0.17,-0.75 0.26,-1.06 0.04,-0.15 0.08,-0.29 0.11,-0.39 0.01,-0.05 0.02,-0.09 0.03,-0.13 0.00,-0.01 0.00,-0.03 0.00,-0.04 0.00,-0.01 0.00,-0.02 0,-0.04 -0.00,-0.01 -0.00,-0.02 -0.03,-0.04 -0.02,-0.01 -0.05,-0.01 -0.06,-0.00 -0.02,0.01 -0.03,0.02 -0.04,0.03 -0.01,0.02 -0.03,0.05 -0.06,0.10 -0.05,0.09 -0.13,0.25 -0.25,0.49 l -0.00,0.01 0,0.01 c -0.04,0.30 -0.09,0.47 -0.13,0.54 -0.02,-0.07 -0.04,-0.22 -0.05,-0.39 -0.00,-0.16 0.00,-0.35 0.03,-0.53 1.49e-4,-0.00 -3e-4,-0.00 0,-0.00 0.17,-0.43 0.40,-0.65 0.64,-0.72 0.24,-0.07 0.51,0.01 0.79,0.19 0.54,0.36 1.04,1.15 1.17,1.87 l 0,0.00 c 0.16,0.60 0.43,1.51 0.87,2.13 0.22,0.31 0.48,0.56 0.80,0.65 0.31,0.09 0.67,0.03 1.07,-0.22 2.21,0.43 4.43,0.88 6.64,1.38 l 0.00,0 c 0.15,0.02 0.49,0.12 0.88,0.26 0.38,0.13 0.82,0.29 1.16,0.41 0.17,0.06 0.32,0.12 0.44,0.15 0.05,0.02 0.10,0.03 0.14,0.04 0.03,0.01 0.06,0.01 0.09,0.01 0.00,0 0.01,9.5e-4 0.03,-0.00 0.00,-0.00 0.01,-0.00 0.02,-0.01 0.01,-0.01 0.01,-0.02 0.01,-0.04 0.00,-0.02 -0.01,-0.04 -0.01,-0.05 -0.00,-0.00 -0.00,-0.01 -0.01,-0.01 -0.02,-0.01 -0.05,-0.03 -0.10,-0.06 -0.09,-0.05 -0.25,-0.13 -0.50,-0.25 -0.03,-0.05 -0.08,-0.10 -0.15,-0.14 -0.08,-0.05 -0.18,-0.10 -0.29,-0.14 -0.22,-0.09 -0.47,-0.18 -0.67,-0.26 -0.09,-0.03 -0.17,-0.07 -0.22,-0.10 -0.25,-0.22 -0.27,-0.33 -0.42,-1.00 -0.09,-0.32 -0.16,-0.72 -0.17,-1.06 -0.00,-0.34 0.04,-0.63 0.17,-0.77 0.65,-0.08 1.81,0.22 2.36,0.19 0.05,-0.00 0.07,-0.11 0.03,-0.12 -0.44,-0.10 -1.77,-0.23 -2.20,-0.42 -0.11,-0.06 -0.21,-0.13 -0.28,-0.20 -0.06,-0.07 -0.08,-0.13 -0.07,-0.21 0.22,-1.21 -0.28,-2.48 0.14,-3.67 0.10,-0.20 0.25,-0.35 0.48,-0.44 2.37,0.09 4.74,0.45 7.11,0.68 l 0.01,0 c 1.96,0.35 4.04,1.02 5.95,1.59 -1.71,0.64 -1.32,2.76 -1.73,4.36 -0.03,0.30 -0.01,0.60 0.15,0.80 0.01,0.01 0.03,0.03 0.04,0.05 0.01,0.17 0.06,0.32 0.13,0.45 -0.03,0.08 -0.13,0.15 -0.25,0.19 -0.12,0.04 -0.27,0.07 -0.38,0.09 -0.05,0.01 -0.09,0.01 -0.13,0.03 -0.00,0.00 -0.01,0.01 -0.02,0.02 -0.01,0.01 -0.02,0.03 -0.02,0.05 0,0.02 0.01,0.03 0.01,0.05 0.01,0.01 0.01,0.01 0.02,0.02 0.03,0.02 0.09,0.04 0.18,0.07 0.06,0.01 0.16,0.04 0.26,0.07 -0.09,0.10 -0.19,0.20 -0.26,0.24 -0.09,0.05 -0.17,0.06 -0.24,0.04 -0.13,-0.03 -0.26,-0.20 -0.38,-0.45 -0.11,-0.24 -0.21,-0.57 -0.33,-0.87 -0.11,-0.29 -0.23,-0.56 -0.39,-0.75 -0.01,-0.22 -0.17,-0.49 -0.37,-0.76 -0.76,-1.26 -1.61,-1.89 -2.66,-2.48 -1.42,-0.82 -3.13,-0.03 -3.67,1.45 -0.52,1.33 -0.64,2.97 0.10,4.22 -3.29,-0.64 -6.55,-1.70 -9.91,-2.17 -0.00,-0.00 -0.01,-0.00 -0.01,-0.00 -0.00,0 -0.00,0.00 -0.00,0 l -0.02,0.13 c 0.00,0.00 0.00,-0.00 0.00,0 3.30,0.96 6.70,1.53 9.99,2.48 0.43,1.84 1.44,3.87 3.40,4.46 l 0.00,0.00 0.01,0 0.32,0.02 0.00,0 0.33,0 0.01,0 0.01,-0.00 c 0.72,-0.21 1.54,-0.36 2.29,-0.64 0.75,-0.27 1.43,-0.69 1.86,-1.43 l 0.01,-0.01 0,-0.01 c -0.02,-0.34 0.11,-0.53 0.33,-0.65 0.22,-0.11 0.54,-0.13 0.85,-0.11 0.31,0.02 0.62,0.10 0.84,0.19 0.10,0.04 0.19,0.09 0.23,0.13 0.01,0.01 0.02,0.02 0.02,0.02 l -0.04,0.05 0.07,0.04 c 0.16,0.10 0.40,0.06 0.70,-0.01 0.29,-0.07 0.65,-0.20 1.02,-0.33 0.75,-0.26 1.59,-0.53 2.17,-0.43 l 0.01,0 0.01,0 c 1.70,-0.25 3.24,-1.11 4.83,-1.66 0.10,-0.04 0.35,-0.11 0.63,-0.18 0.27,-0.07 0.59,-0.15 0.87,-0.23 0.27,-0.07 0.49,-0.14 0.60,-0.21 0.02,-0.01 0.05,-0.03 0.07,-0.06 0.00,-0.01 0.01,-0.04 0.00,-0.07 -0.00,-0.02 -0.02,-0.03 -0.04,-0.04 -0.02,-0.01 -0.06,-0.02 -0.10,-0.03 -0.04,-0.00 -0.09,-0.00 -0.15,-0.01 -0.22,-0.01 -0.37,-0.03 -0.45,-0.07 -0.04,-0.01 -0.07,-0.03 -0.08,-0.04 -0.01,-0.01 -0.01,-0.01 -0.01,-0.02 0.00,-0.01 0.03,-0.07 0.10,-0.13 0.07,-0.06 0.18,-0.12 0.31,-0.19 0.25,-0.13 0.59,-0.26 0.91,-0.35 0.30,-0.08 0.58,-0.13 0.73,-0.13 0.12,0.18 0.23,0.28 0.35,0.29 0.13,0.01 0.23,-0.06 0.32,-0.16 0.08,-0.10 0.17,-0.23 0.25,-0.35 0.08,-0.11 0.16,-0.22 0.25,-0.28 0.00,-0.00 0.00,-0.00 0.00,-0.00 0.34,-0.06 0.54,-0.12 0.65,-0.22 0.05,-0.05 0.09,-0.11 0.09,-0.18 0.00,-0.06 -0.00,-0.13 -0.02,-0.20 -0.07,-0.26 -0.25,-0.58 -0.01,-1.10 l 0.02,-0.06 -0.06,-0.02 c -1.22,-0.42 -2.35,-1.42 -3.37,-2.40 -0.29,-0.99 -1.03,-1.45 -1.88,-1.72 -0.85,-0.26 -1.83,-0.36 -2.61,-0.67 -2.07,-0.78 -4.31,-0.88 -6.49,-0.93 -0.00,-6e-4 -0.00,4.5e-4 -0.01,0 -0.82,-0.14 -1.65,-0.24 -2.49,-0.33 -0.81,-0.12 -1.34,-0.65 -1.95,-1.23 -0.29,-0.02 -1.45,-1.45 -2.85,-2.30 -1.28,-0.78 -2.51,-0.91 -4.45,-0.91 z m -0.00,0.56 c 1.34,8.9e-4 2.70,0.12 4.00,0.35 1.44,0.84 2.28,1.78 3.89,3.30 -2.97,-0.16 -5.91,0.29 -8.86,0.47 -0.48,0.02 -0.97,0.05 -1.45,0.05 -0.63,-0.66 -1.78,-3.13 -1.57,-3.79 1.29,-0.26 2.64,-0.38 3.99,-0.38 z m -6.33,0.50 c 0.50,0.00 0.98,0.09 1.32,0.34 0.44,1.26 1.21,2.44 1.48,3.71 -1.13,-0.15 -4.76,0.20 -5.92,-0.55 -0.23,-0.93 0.43,-2.40 0.86,-3.16 0.48,-0.11 1.40,-0.34 2.24,-0.33 z m -3.64,0.60 c 0.67,-0.04 -0.28,2.02 -0.47,2.58 -0.65,-0.03 -1.35,-0.00 -2.01,-0.10 -0.47,-0.07 -0.67,-0.42 -0.38,-0.67 0.73,-0.65 1.87,-1.56 2.80,-1.79 0.02,-0.00 0.04,-0.01 0.07,-0.01 z m 17.40,2.97 c 0.00,0 0.00,-1.5e-4 0.00,0 1.82,0.11 3.65,0.43 5.45,0.75 l 0.01,0.00 c 1.74,0.61 4.60,0.91 6.18,1.71 -0.99,0.62 -3.26,0.36 -4.40,0.60 -1.84,0.39 -3.67,-0.52 -5.43,-1.00 l 0,0.00 c -1.76,-0.54 -3.48,-0.96 -5.18,-1.10 -0.30,-0.00 -0.70,-0.04 -1.12,-0.08 -0.66,-0.07 -1.20,-0.17 -1.61,-0.26 2.04,-0.24 4.05,-0.61 6.10,-0.62 z m 5.77,0.46 c 1.50,0.15 3.00,0.29 4.44,0.76 0.00,0.00 0.01,0.00 0.01,0.00 0.20,0.11 0.50,0.19 0.85,0.26 0.35,0.07 0.74,0.12 1.09,0.19 0.35,0.07 0.67,0.15 0.86,0.26 0.09,0.05 0.15,0.11 0.18,0.17 0.02,0.04 0.00,0.10 -0.01,0.16 -0.45,0.06 -0.77,0.26 -1.19,0.05 -1.53,-0.77 -3.91,-0.94 -5.30,-1.58 l -0.00,0 c -0.30,-0.11 -0.61,-0.22 -0.93,-0.30 z m -23.19,0.05 c 1.54,0.52 5.75,-0.11 7.31,0.66 0.36,1.21 -0.04,2.47 0.07,3.71 0.04,0.16 -0.39,0.13 -0.57,0.14 -1.92,0.10 -6.04,-0.79 -7.05,-1.00 -0.22,-0.04 -0.22,-0.05 -0.24,-0.26 -0.30,-1.14 -0.04,-2.20 0.48,-3.26 z m 31.27,1.80 c 0.06,-0.00 0.11,0.04 0.08,0.17 0.01,0.09 0.06,0.19 0.13,0.28 0.13,0.19 0.35,0.38 0.60,0.57 0.49,0.39 1.12,0.79 1.43,1.15 l 0.01,0.01 0.01,0.00 c 0.17,0.10 0.29,0.20 0.37,0.28 0.07,0.07 0.10,0.13 0.10,0.16 0.00,0.03 -0.00,0.05 -0.05,0.08 -0.04,0.03 -0.11,0.06 -0.20,0.09 -0.17,0.05 -0.41,0.08 -0.63,0.12 -0.22,0.03 -0.41,0.07 -0.54,0.14 l -0.05,0.03 0.03,0.05 c 0.00,0.01 0.01,0.02 0.00,0.03 -0.00,0.01 -0.01,0.03 -0.04,0.05 -0.04,0.04 -0.14,0.09 -0.27,0.13 -0.26,0.08 -0.65,0.17 -1.08,0.24 -0.85,0.14 -1.85,0.25 -2.35,0.36 -0.00,0.00 -0.00,0 -0.00,0 -0.34,0.05 -0.68,0.10 -1.03,0.15 -0.38,0.04 -0.66,0.40 -0.84,0.65 -0.06,0.06 -0.28,0.15 -0.54,0.20 -0.25,0.04 -0.55,0.07 -0.79,0.08 -0.12,0.00 -0.22,0.00 -0.30,-0.00 -0.03,-0.00 -0.07,-0.01 -0.09,-0.01 -0.01,-0.00 -0.01,-0.00 -0.01,-0.01 l -0.02,-0.02 -0.03,0.00 c -1.30,0.17 -3.76,0.03 -5.03,-0.34 0.42,-1.58 -0.32,-3.19 1.88,-3.85 l 0.00,0 c 1.72,0.70 3.60,1.84 4.92,3.17 0.22,0.17 0.40,0.21 0.44,0.05 -0.41,-0.23 -1.04,-0.78 -1.44,-1.15 -0.60,-0.55 -1.21,-1.15 -1.87,-1.55 1.40,-0.64 3.78,-0.44 5.46,-0.82 1.01,-0.22 2.68,1.71 3.40,2.24 0.04,0.02 0.08,0.05 0.13,0.07 0.07,0.00 0.08,-0.06 0.07,-0.08 -0.66,-0.86 -1.72,-1.43 -2.30,-2.37 0.04,-0.15 0.32,-0.42 0.48,-0.44 z m 0.50,0.13 c 0.07,0.00 0.17,0.08 0.33,0.25 0.18,0.19 0.40,0.54 0.32,0.59 -0.07,0.04 -0.48,-0.39 -0.52,-0.44 -0.03,-0.05 -0.27,-0.36 -0.15,-0.39 0.01,-0.00 0.01,-0.00 0.02,-0.00 z m -18.07,0.28 c -1.07,0.03 -2.09,0.67 -2.62,1.61 -0.76,1.16 -1.01,2.68 -0.52,4.00 0.47,0.08 0.07,-0.58 0.04,-0.82 -0.06,-0.41 -0.02,-0.85 0.02,-1.27 0.19,-1.23 0.90,-2.44 2.05,-3.00 1.33,-0.52 2.85,-0.08 3.98,0.71 1.14,0.80 1.93,2.10 2.10,3.49 0.36,-0.16 0.22,-0.61 0.09,-0.89 -0.16,-0.29 -0.22,-0.63 -0.38,-0.93 -0.83,-1.59 -2.50,-2.73 -4.30,-2.87 -0.15,-0.02 -0.30,-0.02 -0.46,-0.02 z m 8.42,0.87 c -0.87,0.11 -1.03,1.15 -0.67,1.79 0.19,0.28 0.50,0.49 0.85,0.68 0.80,0.33 2.08,0.87 2.79,1.03 -0.17,-0.10 -0.94,-0.41 -1.31,-0.57 -0.36,-0.16 -0.73,-0.35 -0.90,-0.52 -0.08,-0.08 -0.11,-0.15 -0.09,-0.22 0.51,-0.39 0.50,-0.87 0.20,-1.54 -0.19,-0.36 -0.51,-0.63 -0.85,-0.64 z m -28.53,0.08 c 0.07,-0.00 0.16,0.00 0.25,0.03 0.34,0.11 0.70,0.47 0.62,1.12 -0.03,0.01 -0.06,0.01 -0.12,0.01 -0.06,-0.01 -0.14,-0.04 -0.22,-0.08 -0.14,-0.06 -0.29,-0.14 -0.43,-0.16 -0.00,-0.00 -0.00,-0.00 -0.00,-0.00 -0.21,-0.21 -0.32,-0.38 -0.37,-0.52 -0.03,-0.09 -0.03,-0.16 -0.01,-0.21 0.01,-0.05 0.04,-0.09 0.09,-0.12 0.05,-0.02 0.11,-0.04 0.19,-0.05 z M 31.50,22.11 c 0.34,-0.03 0.70,0.35 0.80,0.86 0.10,0.50 -0.09,0.93 -0.44,0.97 -0.34,0.03 -0.70,-0.35 -0.80,-0.85 -0.10,-0.50 0.09,-0.94 0.44,-0.97 z m -24.96,0.03 -0.02,0.00 c -0.39,0.09 -0.66,0.34 -0.83,0.67 -0.16,0.32 -0.22,0.73 -0.20,1.14 0.03,0.83 0.37,1.71 0.85,2.18 l 0.01,0.01 0.01,0.00 c 0.21,0.04 0.40,0.02 0.55,-0.04 0.15,-0.07 0.27,-0.21 0.36,-0.37 C 7.46,25.43 7.51,24.97 7.49,24.48 7.46,24.00 7.36,23.49 7.20,23.06 7.04,22.64 6.83,22.30 6.57,22.16 l -0.02,-0.01 z m 16.55,0.29 c 0.04,-0.00 0.1,-8.5e-4 0.14,0 0.11,0.00 0.22,0.01 0.34,0.03 2.24,0.70 3.53,2.65 4.21,4.77 0.22,0.68 0.52,1.32 1.23,1.68 0.21,0.11 0.29,0.22 0.32,0.32 0.02,0.09 0.00,0.19 -0.04,0.28 -0.04,0.09 -0.11,0.18 -0.15,0.27 -0.02,0.04 -0.03,0.08 -0.03,0.13 0.00,0.02 0.03,0.05 0.05,0.07 -0.01,0.69 -0.43,1.22 -1.01,1.62 -0.58,0.40 -1.32,0.66 -1.95,0.80 l -0.00,0 0,0.00 c -0.65,0.22 -1.33,0.38 -2.00,0.22 -1.14,-0.46 -1.93,-1.37 -2.42,-2.46 -0.48,-1.09 -0.67,-2.36 -0.58,-3.52 l 0,-0.00 0,-0.01 c -0.08,-0.74 0.27,-1.53 0.75,-2.19 0.47,-0.66 1.05,-1.20 1.36,-1.46 l -0.06,-0.11 c -0.00,0.00 -0.01,0.00 -0.01,0.01 -0.87,0.36 -1.44,1.06 -1.81,1.88 -0.33,0.76 -0.48,1.62 -0.53,2.43 -0.20,-0.37 -0.27,-0.97 -0.21,-1.61 0.07,-0.73 0.31,-1.51 0.64,-2.01 l 0,-0.00 c 0.37,-0.67 1.05,-1.12 1.79,-1.16 z m -13.92,0.07 c 0.03,0.00 0.08,0.00 0.13,0.01 l 6.96,1.00 c 0.28,0.04 0.35,0.09 0.46,0.19 0.02,0.26 0.12,0.55 0.16,0.86 0.06,0.60 0.22,1.66 -0.00,1.87 C 15.62,26.29 10.58,25.86 9.54,24.73 9.34,24.47 9.22,24.13 9.14,23.74 9.08,23.40 9.04,23.04 9.01,22.68 c -0.00,-0.10 0.05,-0.16 0.16,-0.15 z m -2.83,0.08 c 0.20,0.00 0.35,0.12 0.48,0.31 0.14,0.21 0.24,0.53 0.29,0.88 0.10,0.68 0.01,1.49 -0.17,1.89 -0.14,0.08 -0.26,0.13 -0.37,0.12 -0.11,-0.00 -0.21,-0.06 -0.29,-0.15 C 6.09,25.48 5.97,25.14 5.89,24.75 5.82,24.35 5.80,23.91 5.84,23.52 c 0.03,-0.37 0.11,-0.70 0.21,-0.86 0.07,-0.02 0.13,-0.04 0.19,-0.05 0.03,-0.00 0.05,-0.00 0.08,-0.00 z m 37.13,1.21 c 0.55,0.20 0.88,0.56 0.99,1.00 0.11,0.42 0.01,0.94 -0.27,1.47 -0.21,-0.17 -0.46,-0.24 -0.73,-0.24 -0.30,0.00 -0.62,0.09 -0.94,0.20 -0.65,0.22 -1.34,0.55 -1.92,0.57 l -0.00,0 -0.01,0.00 c -0.09,0.02 -0.15,0.02 -0.19,0.01 -0.03,-0.00 -0.04,-0.03 -0.05,-0.05 0.02,-0.12 0.02,-0.24 0.02,-0.36 0,-0.02 0.00,-0.04 0.00,-0.07 0.05,-0.19 0.12,-0.42 0.16,-0.62 0.02,-0.10 0.03,-0.19 0.03,-0.28 -0.00,-0.08 -0.01,-0.17 -0.07,-0.23 l -0.01,-0.01 -0.02,-0.00 c -0.23,-0.04 -0.44,-0.12 -0.60,-0.21 -0.15,-0.09 -0.26,-0.19 -0.29,-0.26 -0.01,-0.03 -0.01,-0.06 -0.00,-0.07 0.01,-0.01 0.03,-0.04 0.08,-0.06 0.11,-0.04 0.33,-0.06 0.68,-0.02 l 0.00,0 0.00,0 c 1.07,-0.03 2.14,-0.65 3.15,-0.72 z m 0.52,0.04 c 0.32,0.05 0.64,0.15 0.95,0.42 l 0.08,0.07 0.01,-0.11 c 0.01,-0.11 0.05,-0.16 0.06,-0.17 0.00,0.00 0.00,0.00 0.01,0.01 0.05,0.05 0.13,0.26 0.15,0.49 0.02,0.23 0.00,0.49 -0.08,0.69 -0.08,0.17 -0.23,0.30 -0.45,0.35 0.15,-0.50 0.17,-0.92 -0.01,-1.23 -0.14,-0.23 -0.41,-0.39 -0.74,-0.52 z m -5.37,0.87 c 0.03,9.4e-4 0.07,0.00 0.10,0.01 0.28,0.02 0.54,0.11 0.76,0.26 0.43,0.29 0.70,0.79 0.73,1.34 -0.04,0.17 -0.06,0.32 -0.03,0.44 0,0.00 -0.00,0.00 0,0.00 l 0,0.00 c -0.05,0.25 -0.17,0.51 -0.35,0.75 -0.23,-0.17 -0.50,-0.26 -0.79,-0.27 -0.30,-0.01 -0.63,0.04 -0.97,0.13 -0.67,0.17 -1.37,0.43 -1.98,0.42 l -0.00,0 -0.00,0 C 34.76,28.08 33.46,27.69 32.14,27.55 l -0.00,0 c -0.50,-0.01 -1.04,-0.01 -1.51,-0.09 -0.46,-0.08 -0.84,-0.24 -1.03,-0.57 0.02,-0.13 -0.01,-0.28 -0.14,-0.47 0,-0.00 0.00,-0.00 0,-0.00 -0.01,-0.16 0.00,-0.36 0.05,-0.59 2.28,-0.11 4.62,0.46 6.95,0.03 l 0.02,-0.00 0.01,-0.02 c 0.13,-0.20 0.23,-0.46 0.41,-0.64 0.17,-0.18 0.42,-0.30 0.84,-0.24 l 0.01,0 0.01,-0.00 c 0.25,-0.10 0.49,-0.16 0.72,-0.17 0.03,-0.00 0.07,-0.00 0.11,-0.00 z m -14.69,0.34 c -0.27,0.00 -0.56,0.11 -0.85,0.32 l -0.00,0 -0.00,0.00 c -0.72,0.77 -0.96,1.92 -0.76,2.98 0.19,1.06 0.81,2.05 1.81,2.47 l 0.01,0.00 0.00,0 c 0.41,0.05 0.76,-0.02 1.04,-0.21 0.28,-0.18 0.48,-0.45 0.64,-0.78 0.29,-0.64 0.36,-1.45 0.27,-2.07 l 0,-0.00 c -0.02,-0.56 -0.26,-1.24 -0.64,-1.78 -0.38,-0.54 -0.90,-0.95 -1.51,-0.94 z M 9.15,25.23 c 0.12,-0.00 0.29,0.02 0.40,0.06 0.05,0.01 0.09,0.04 0.10,0.06 0.00,0.00 0.00,0.00 0.00,0.01 0,0 -0.00,0.00 -0.00,0.00 l -0.26,0.05 c -0.14,-0.05 -0.25,-0.09 -0.32,-0.13 -0.05,-0.02 -0.05,-0.03 -0.06,-0.04 0.03,-0.01 0.08,-0.01 0.14,-0.01 z m 14.74,0.15 c 0.03,-0.00 0.06,-0.00 0.09,0 0.24,0.01 0.51,0.11 0.79,0.36 0.00,0.00 0.00,0.00 0.01,0.01 0.50,0.61 0.89,1.52 0.96,2.40 0.07,0.88 -0.15,1.73 -0.86,2.26 -0.31,0.14 -0.59,0.14 -0.85,0.06 -0.25,-0.08 -0.49,-0.26 -0.69,-0.50 -0.40,-0.47 -0.66,-1.16 -0.74,-1.68 l 0,-0.01 -0.00,-0.00 c -0.20,-0.52 -0.13,-1.27 0.13,-1.87 0.13,-0.30 0.31,-0.56 0.53,-0.75 0.18,-0.16 0.39,-0.26 0.62,-0.27 z m -13.78,0.39 -0.13,0.01 c 1.5e-4,0.00 0,0.01 0,0.01 0.00,0.46 -0.15,0.78 -0.43,0.99 -0.77,0.55 -1.79,0.50 -2.70,0.69 l -0.39,0.27 c 1.29,0.04 2.49,-0.10 3.46,-0.97 0.23,-0.21 0.27,-0.59 0.20,-0.99 -8.98e-4,-0.00 0.00,-0.01 0,-0.01 z m 31.06,1.57 c 0.09,-0.00 0.16,0.03 0.23,0.12 -1.96,0.73 -4.05,1.16 -6.14,1.49 -0.22,0.03 -0.38,0.07 -0.50,0.09 -0.11,0.02 -0.17,0.04 -0.22,0.06 -0.01,0.00 -0.02,0.01 -0.03,0.02 -0.00,0.00 -0.01,0.01 -0.01,0.03 -0.00,0.01 3.7e-4,0.04 0.01,0.05 0.01,0.02 0.03,0.02 0.04,0.02 0.01,0.00 0.02,0.00 0.03,0.01 0.04,0.00 0.11,0.00 0.20,0 0.29,-0.01 0.79,-0.08 1.15,-0.15 -0.02,0.01 -0.03,0.02 -0.06,0.03 -0.20,0.07 -0.53,0.16 -0.89,0.27 -0.71,0.20 -1.57,0.42 -1.95,0.58 -0.79,0.34 -1.65,0.02 -2.51,-0.04 -0.24,-0.01 -0.42,-0.05 -0.54,-0.08 -0.11,-0.03 -0.17,-0.08 -0.19,-0.11 -0.01,-0.02 -0.00,-0.05 0.03,-0.11 0.04,-0.05 0.11,-0.11 0.21,-0.18 0.40,-0.25 1.17,-0.49 1.57,-0.50 l 0.03,0 0.01,-0.03 c 0.02,-0.03 0.03,-0.06 0.02,-0.10 -0.00,-0.02 -0.02,-0.04 -0.03,-0.06 -0.01,-0.01 -0.03,-0.01 -0.05,-0.01 -0.06,-0.01 -0.13,0.00 -0.23,0.02 -0.20,0.04 -0.49,0.14 -0.79,0.21 -0.30,0.07 -0.62,0.11 -0.88,0.07 -0.25,-0.03 -0.43,-0.15 -0.50,-0.41 l -0.01,-0.02 -0.02,-0.01 c -0.29,-0.18 -0.41,-0.32 -0.42,-0.39 -0.00,-0.03 0.00,-0.05 0.03,-0.09 0.02,-0.03 0.08,-0.07 0.14,-0.10 0.13,-0.06 0.31,-0.13 0.49,-0.20 0.15,-0.06 0.30,-0.13 0.40,-0.23 0.69,0.13 1.59,0.21 2.43,0.30 0.71,0.08 1.34,0.18 1.78,0.32 -0.12,0.02 -0.27,0.04 -0.37,0.07 -0.18,0.04 -0.31,0.09 -0.38,0.14 -0.01,0.01 -0.03,0.02 -0.05,0.04 -0.00,0.01 -0.01,0.02 -0.01,0.04 0,0.01 0.01,0.03 0.02,0.05 0.02,0.02 0.04,0.03 0.06,0.03 0.02,0.00 0.04,0.00 0.07,0.00 0.12,0 0.33,-0.02 0.67,-0.09 0.00,-0.00 0.00,0 0.01,0 1.75,-0.11 2.14,-0.34 3.73,-0.73 l 0.01,-0.00 0.01,-0.01 c 0.22,-0.16 0.43,-0.21 0.66,-0.21 0.22,0 0.45,0.05 0.67,0.11 0.22,0.05 0.44,0.11 0.65,0.11 0.17,-0.00 0.33,-0.07 0.48,-0.21 0.00,0.01 0.00,0.02 0.01,0.03 0.02,0.03 0.07,0.05 0.11,0.05 0.08,0.00 0.15,-0.04 0.24,-0.08 0.17,-0.09 0.38,-0.23 0.55,-0.23 z m -3.80,1.69 c -0.18,0.09 -0.45,0.20 -0.71,0.25 l -0.00,0.00 -0.21,0.06 c -0.14,0.03 -0.15,0.02 -0.25,0.05 0.25,-0.09 0.50,-0.20 0.78,-0.25 l 0.00,0 0.00,-0.00 c 0.21,-0.07 0.29,-0.08 0.39,-0.11 z m -0.68,0.37 c 0,0 0.00,0.00 0,0.00 -0.04,0.01 -0.08,0.02 -0.12,0.03 l 0.12,-0.03 z"/>
</svg>
