<?xml version="1.0" encoding="UTF-8" standalone="no"?>
<!-- Created with Inkscape (http://www.inkscape.org/) -->
<svg xmlns:dc="http://purl.org/dc/elements/1.1/" xmlns:cc="http://creativecommons.org/ns#" xmlns:rdf="http://www.w3.org/1999/02/22-rdf-syntax-ns#" xmlns:svg="http://www.w3.org/2000/svg" xmlns="http://www.w3.org/2000/svg" version="1.1" width="100%" height="100%" viewBox="0 0 48 48" id="Layer_1" xml:space="preserve">
<defs id="defs157" />
<path d="m 15.63,4.13 c 0.23,0.63 0.70,1.09 0.71,1.94 0.02,1.88 -0.64,4.64 -1.32,5.81 -0.43,0.01 -0.76,-0.87 -1.02,-0.40 0.34,0.36 0.79,0.63 1.12,1.01 -0.30,5.90 -0.45,11.60 -1.22,17.04 -0.04,0.19 -0.39,0.07 -0.30,0.40 0.55,0.66 -0.02,1.41 -0.10,2.14 -0.08,0.84 0.17,1.75 -0.40,2.24 0.25,0.16 0.26,0.82 -0.10,0.91 -0.73,-2.80 -0.31,-5.77 -0.51,-8.26 -0.03,-0.26 0.39,-0.08 0.30,-0.40 -0.42,-0.66 -1.23,-0.94 -1.73,-1.53 -0.18,-0.96 -0.13,-2.37 -0.20,-3.16 -0.79,0.22 0.09,2.08 -0.61,2.44 C 8.96,23.55 7.73,22.46 6.65,21.58 6.30,21.30 5.91,20.80 5.43,20.87 c -0.02,0.43 0.48,0.33 0.51,0.71 -0.25,2.77 -0.66,5.70 -1.12,8.47 -0.20,1.23 -0.10,2.58 -0.81,3.57 0.31,0.98 -0.13,2.48 -1.12,2.85 -0.20,0.07 -0.44,-0.24 -0.51,0.20 0.24,0.44 0.82,0.26 1.52,0.30 2.24,0.13 4.77,0.56 6.94,0.71 0.06,0.64 0.31,1.11 0.51,1.63 0.18,0.19 0.74,0.00 0.71,0.40 -2.19,0.42 -4.23,-0.35 -6.43,0.10 0.44,0.50 1.09,0.04 1.63,0 0.67,-0.05 1.21,0.14 1.73,0.20 0.64,0.07 1.43,-0.23 1.73,0.10 0.04,0.28 -0.55,-0.08 -0.51,0.20 0.48,0.13 0.97,-0.09 1.43,0.20 -0.27,0.00 -0.60,-0.05 -0.61,0.20 1.73,-0.13 2.44,0.16 4.18,0.30 -0.11,-0.76 -1.60,-0.16 -2.14,-0.51 0.29,-0.26 1.08,0.07 1.01,-0.30 0.08,-0.39 -0.46,0.13 -0.61,-0.30 0.47,-0.25 0.75,0.16 1.22,0.20 0.31,0.00 0.31,-0.19 0.71,-0.30 2.04,0.65 4.94,-0.24 6.32,0.20 0.16,-0.07 -0.02,-0.50 0.30,-0.40 -0.08,0.32 -0.08,0.21 0.10,0.40 1.06,0.20 2.11,-0.34 3.16,-0.20 0.26,0.03 0.45,0.19 0.71,0.20 0.29,0.01 0.51,-0.10 0.81,-0.10 0.59,-0.00 1.24,0.20 1.83,0.20 0.62,-8.41e-4 1.20,-0.17 1.73,-0.10 0.31,0.04 0.52,0.20 0.81,0.20 0.50,-0.00 1.31,-0.64 1.63,0.10 -0.17,0.05 -0.59,-0.12 -0.61,0.10 0.26,0.03 0.55,0.05 0.71,0.20 -0.14,0.05 -0.52,-0.12 -0.51,0.10 0.18,0.12 0.59,0.01 0.71,0.20 -0.56,0.22 -1.12,0.43 -1.73,0.61 0.41,0.03 0.66,0.22 1.02,0.30 -0.05,0.41 -0.82,0.12 -0.91,0.51 0.31,0.11 0.61,-0.16 0.91,-0.20 0.65,-0.08 1.56,0.19 1.94,-0.40 -0.65,-0.06 -1.09,0.60 -1.73,0.20 0.20,-0.18 0.82,-0.32 1.12,-0.10 0.01,-0.56 1.31,0.15 1.32,-0.40 -0.79,0.08 -1.30,-0.12 -1.83,-0.30 0.02,-0.17 0.17,-0.23 0.40,-0.20 -0.63,-0.93 0.31,-1.85 0.30,-3.16 1.86,-0.65 3.71,-1.34 5.61,-2.03 2.14,-0.78 4.53,-1.97 6.73,-2.24 -0.12,-0.76 -0.65,-0.29 -1.22,-0.20 -1.32,-2.14 -3.04,-3.96 -4.59,-5.92 -1.97,-2.50 -3.95,-5.19 -5.92,-7.54 -0.44,-0.52 -0.94,-1.06 -1.32,-1.63 -0.17,-0.25 -0.15,-0.59 -0.51,-0.71 -0.35,0.58 0.19,2.62 -0.30,3.37 -1.92,-2.08 -4.02,-4.44 -5.81,-6.53 -0.22,-0.26 -0.48,-0.77 -0.91,-0.71 0.04,0.55 0.59,0.67 0.71,1.12 0.22,0.80 -0.05,1.87 -0.10,2.65 -0.18,3.26 -0.56,7.07 -1.02,10.00 -0.03,0.24 -0.35,0.19 -0.30,0.51 0.33,0.47 -0.00,1.74 -0.40,2.14 -0.14,0.38 0.27,0.19 0.20,0.51 -0.51,1.72 -0.45,4.03 -1.32,5.40 0.15,-1.03 0.11,-2.26 0.61,-2.95 -0.38,-0.47 -0.06,-1.41 0.20,-2.04 -0.04,-0.19 -0.21,-0.25 -0.20,-0.51 0.48,-2.98 0.74,-6.19 0.71,-9.69 0.13,-0.25 0.30,0.18 0.40,-0.10 -0.20,-0.53 -0.94,-0.55 -1.12,-1.12 0.30,-0.40 0.30,-1.11 0.61,-1.53 l 0.00,0.00 c 0.06,0.64 -0.13,1.56 0.10,2.03 0.16,-1.84 0.10,-3.29 0,-5.00 l 0.40,0 C 24.64,13.69 21.82,12.24 22.47,10.46 22.13,9.26 22.36,7.16 22.27,5.66 c -0.58,0.20 -1.09,0.46 -1.73,0.61 0.11,0.59 -0.20,0.74 -0.30,1.12 0.84,0.08 1.06,-0.50 1.73,0 0.10,0.43 0.02,0.68 0,1.02 -0.07,0.98 0.19,2.24 -0.10,2.65 C 20.12,9.01 18.21,6.92 16.55,4.95 16.32,4.67 16.02,4.24 15.63,4.13 z m 0.81,1.63 c 0.35,0.22 0.61,0.53 0.91,0.81 -0.01,2.47 -0.65,4.30 -1.12,6.32 0.79,-1.61 1.14,-3.78 1.22,-5.81 1.17,0.14 1.03,1.42 0.81,2.86 -0.20,1.38 -0.79,2.91 -0.91,3.87 -0.85,-0.47 -1.61,-1.04 -2.13,-1.83 1.02,-1.63 1.26,-3.71 1.22,-6.22 z m 5.47,0.53 c 0.06,0.02 0.02,0.54 0.03,0.68 -0.15,0.31 -0.08,-0.44 -0.10,-0.61 0.02,-0.05 0.04,-0.08 0.06,-0.07 z m -0.90,0.04 c 0.04,2.21e-4 0.08,0.01 0.12,0.03 -0.09,0.18 -0.24,0.29 -0.30,0.51 C 20.61,6.77 20.73,6.34 21.01,6.34 z m 0.34,0.45 c 0.04,0.00 0.09,0.03 0.09,0.08 -0.09,0.06 -0.18,0.12 -0.20,0 0.01,-0.06 0.06,-0.08 0.11,-0.08 z m -2.76,1.41 c 0.64,0.03 0.49,0.86 1.02,1.02 -0.34,2.08 -0.73,3.57 -1.12,5.51 -0.60,-0.00 -0.61,-0.61 -1.12,-0.71 0.76,-1.58 1.02,-3.67 1.22,-5.81 z m 1.12,1.12 c 0.45,0.19 0.45,0.83 0.91,1.01 -0.06,1.12 -0.28,2.09 -0.40,3.16 0.37,-0.67 0.45,-1.65 0.51,-2.65 0.42,0.15 0.70,0.44 1.01,0.71 -0.10,0.23 -0.17,0.49 -0.20,0.81 0.17,-0.09 0.22,-0.31 0.20,-0.61 0.36,0.37 0.20,1.05 0.20,1.63 0.00,0.61 0.10,1.24 0,1.73 l 0.00,0 c -0.15,0.76 -0.78,1.24 -1.02,1.63 -0.24,-0.09 -1.25,-0.58 -1.32,-0.91 -0.05,-0.26 0.79,-1.39 0.61,-2.13 -0.38,0.47 -0.43,1.26 -0.61,1.93 -0.33,0.12 -0.72,-0.46 -1.01,-0.71 0.43,-1.80 0.97,-3.51 1.12,-5.61 z m 1.42,1.42 c 0.13,0.03 0.16,0.17 0.30,0.20 -0.04,0.25 -0.39,0.00 -0.30,-0.20 z m 1.22,1.53 c 0.27,0.23 0.26,0.76 0.81,0.71 0.24,0.57 0.18,1.11 0.10,1.83 0.27,-0.16 0.11,-0.77 0.30,-1.02 0.51,0.16 0.41,0.94 1.02,1.02 0.33,1.71 -0.11,3.38 -0.61,4.59 -0.39,-0.08 -0.52,-0.42 -0.81,-0.61 0.01,-0.36 0.28,-0.45 0.30,-0.81 -0.26,0.07 -0.19,0.48 -0.40,0.61 -0.35,-0.12 -0.67,-0.36 -0.71,-0.61 -0.08,-0.46 0.31,-0.43 0.51,-0.91 0.26,-0.63 0.25,-1.36 0.35,-1.91 -0.18,0.67 -0.52,1.19 -0.66,1.91 -0.22,-1.86 -0.03,-2.93 -0.20,-4.79 z m -0.81,0.30 c 0.04,1.16 -0.56,2.22 -0.40,3.16 0.11,-1.00 0.66,-2.12 0.40,-3.16 z m -6.32,0.30 c 0.39,0.25 0.68,0.60 1.12,0.81 0.06,0.51 -0.13,1.29 0.10,1.63 0.14,-0.15 -0.09,-0.78 0,-1.22 0.00,-0.47 0.23,0.11 0.40,0.10 0.08,0.21 0.45,0.16 0.61,0.30 0.51,0.74 0.26,3.42 0.20,4.79 -0.16,3.48 -0.48,7.65 -0.91,10.51 -0.14,0.19 -0.41,0.27 -0.40,0.61 -0.05,0.33 0.03,0.51 0.20,0.61 -0.40,1.85 -0.55,3.42 -0.91,5.20 -0.56,-0.12 -0.55,0.32 -1.12,0.20 0.25,-2.09 0.68,-4.00 0.81,-6.22 -0.25,0.62 -0.14,1.62 -0.40,2.24 -0.28,0.01 0.08,-0.63 -0.20,-0.61 -0.30,0.13 -0.29,0.91 0.10,0.91 0.05,0.95 -0.16,1.04 -0.20,1.94 -0.45,-0.02 0.05,-0.53 -0.20,-0.61 -0.40,-0.06 -0.11,0.55 -0.20,0.81 0.01,0.36 0.33,-0.21 0.30,0.10 -0.10,0.44 -0.15,0.93 -0.30,1.32 -0.42,0.08 -0.52,-0.15 -0.91,-0.10 0.99,-7.99 2.05,-14.74 1.93,-23.37 z m 8.06,2.04 c -0.01,0.06 -0.03,0.12 -0.04,0.19 0.01,-0.06 0.03,-0.12 0.04,-0.19 z m -5.40,0.10 c 0.61,0.09 0.65,0.77 1.22,0.91 -0.01,2.45 0.15,5.43 -0.30,8.37 -0.01,0.09 -0.06,0.34 -0.10,0.51 -0.03,0.12 -0.20,0.28 -0.20,0.30 -0.01,0.12 0.19,0.17 0.20,0.30 0.00,0.03 -0.07,0.78 -0.10,1.12 l -0.00,0 c -0.23,2.83 -0.81,5.66 -1.22,8.46 -0.41,0.08 0.12,-0.45 -0.20,-0.61 -0.25,0.15 -0.25,0.83 0.10,1.02 -0.09,0.41 -0.20,0.81 -0.30,1.22 -0.20,0.10 -0.83,-0.06 -1.32,0 0.36,-0.94 0.62,-2.14 0.81,-3.36 0.57,-3.61 1.15,-8.04 1.42,-12.24 0.13,-2.05 0.11,-3.95 0,-6.02 z m 6.22,0.10 c -0.27,0.34 -0.10,0.88 -0.20,1.32 -0.13,0.56 -0.71,1.10 -0.30,1.42 0.18,-0.83 0.77,-1.81 0.51,-2.75 z m 2.65,0.30 c 0.59,0.18 0.85,0.71 0.81,1.53 0.13,-0.03 0.08,-0.25 0.10,-0.40 0.80,0.04 0.86,0.83 1.02,1.52 0.22,0.01 0.04,-0.36 0.10,-0.51 0.47,0.41 1.01,0.74 1.02,1.63 0.21,-0.60 0.72,0.54 1.12,0.71 0.07,4.90 -0.61,9.04 -1.53,12.95 -0.45,0.04 -0.74,-0.07 -1.02,-0.20 0.39,-1.98 0.84,-3.92 1.02,-6.12 -0.36,0.83 -0.34,2.03 -0.61,2.95 -0.23,-0.07 -0.03,-0.57 -0.10,-0.81 -0.26,0.15 -0.49,1.01 0.10,0.91 -0.17,0.26 -0.00,0.87 -0.20,1.12 -0.00,0.50 -0.23,-0.22 -0.40,0.10 -0.04,0.71 0.22,1.22 0,1.83 -0.45,0.04 -0.74,-0.07 -1.02,-0.20 0.00,-0.77 0.39,-1.16 0.30,-2.04 -0.49,0.35 -0.17,1.53 -0.51,2.04 -0.91,-0.15 -1.29,-0.22 -2.14,-0.40 0.85,-5.41 1.77,-11.10 1.93,-16.63 z m -10.40,0.00 c -0.10,2.85 -0.13,5.78 -0.40,8.46 0.40,-0.18 0.17,-0.73 0.20,-1.02 0.21,-2.52 0.50,-4.45 0.40,-7.24 -0.02,-0.11 -0.11,-0.15 -0.20,-0.20 z m 4.59,0.40 c 0.04,0.26 -0.35,0.58 -0.10,0.71 0.05,-0.16 0.39,-0.54 0.10,-0.71 z m 0.91,0.00 c 0.18,0.35 -0.11,1.10 0,1.73 -0.62,0.00 -0.26,-0.64 -0.81,-0.51 0.04,-0.36 0.26,-0.56 0.40,-0.81 0.21,0.43 0.34,-0.10 0.40,-0.40 z m 5.81,0.20 c 0.20,0.03 0.20,0.27 0.40,0.30 -0.10,0.25 -0.45,-0.07 -0.40,-0.30 z m -8.23,0.45 c 0.21,7.5e-5 0.50,0.11 0.58,0.16 l 0.00,0 c 0.38,0.24 0.54,0.90 0.50,1.43 0.22,0.01 0.04,-0.36 0.10,-0.51 0.63,-0.02 0.74,0.47 1.12,0.71 -0.80,6.12 -1.15,12.92 -1.93,18.77 -0.64,0.04 -1.70,-0.13 -2.65,-0.30 1.21,-6.17 2.32,-13.04 2.04,-20.10 0.00,-0.12 0.10,-0.16 0.23,-0.16 z m 1.19,0.57 c 0.13,0.03 0.16,0.17 0.30,0.20 -0.04,0.25 -0.39,0.00 -0.30,-0.20 z m 6.94,0.20 c -0.13,0.30 -0.10,0.77 -0.10,1.22 -0.07,0.22 0.10,0.64 0.10,0.20 l 0,-0.71 c 0.10,-0.13 0.09,-0.37 0.20,-0.51 -0.13,-0.00 -0.09,-0.17 -0.20,-0.20 z m -7.04,1.02 c -0.12,5.38 -0.94,12.42 -2.04,18.47 0.33,-0.14 0.22,-0.54 0.30,-0.81 0.46,-1.59 0.54,-3.63 0.81,-5.51 0.13,-0.93 0.40,-1.81 0.51,-2.75 0.36,-3.35 0.61,-6.36 0.40,-9.38 z m 12.56,0.21 c 0.04,0.00 0.09,0.03 0.09,0.08 -0.04,0.14 -0.08,-0.01 -0.20,0 0.01,-0.06 0.06,-0.08 0.10,-0.08 z m -4.39,0.08 c 0.07,0.31 -0.10,0.37 -0.10,0.61 0.16,0.02 0.06,1.09 0.20,0.51 -0.06,-0.34 0.13,-0.95 -0.10,-1.12 z m -6.22,0.00 c 0.35,0.42 0.59,0.97 1.12,1.22 0.02,3.58 -0.51,7.15 -0.71,10.81 0.49,-3.24 0.87,-6.85 0.81,-10.71 0.34,0.19 0.54,0.53 0.91,0.71 -0.01,2.86 -0.13,6.30 -0.51,9.28 -0.32,2.58 -0.64,5.17 -1.22,7.45 -0.53,-0.54 -0.14,-1.89 -0.20,-3.16 -0.04,-1.10 0.09,-2.23 0.20,-3.36 -0.22,0.04 -0.00,0.54 -0.20,0.61 -0.14,-4.10 -0.17,-9.31 -0.20,-12.85 z m 10.61,0.20 c 0.19,0.53 0.13,1.69 0,2.24 -0.17,-0.52 -0.15,-1.72 0,-2.24 z m 0.30,0.10 c 0.36,0.23 0.76,0.85 1.12,1.32 0.30,0.40 0.71,0.77 0.91,1.12 0.07,0.12 -0.16,0.49 0.20,0.40 0.37,3.36 0.05,6.91 -0.10,10.30 -0.01,0.42 0.10,0.98 0,1.42 -0.14,0.62 -0.77,1.15 -1.43,1.43 0.14,-1.11 0.07,-2.44 0.61,-3.16 -0.34,-0.47 -0.15,-1.46 0.20,-1.83 -0.40,-0.56 -0.08,-1.16 0,-1.83 0.16,-1.32 -0.11,-2.87 0.30,-4.08 -0.57,-0.88 -1.34,-1.57 -2.04,-2.34 l 0.00,0 c 0.22,-0.74 -0.00,-2.29 0.20,-2.75 z m -3.06,0.10 c 0.48,0.15 0.13,0.50 0,0 z m -8.49,0.40 c 0.06,0.00 0.11,0.04 0.12,0.10 -0.16,5.02 -0.58,9.28 -0.81,14.38 -0.02,0.63 0.56,2.31 -0.91,2.14 0.03,-1.19 0.35,-2.96 0.40,-4.49 0.01,-0.37 0.14,-0.25 0.40,-0.20 -0.14,-0.33 -0.09,-0.86 -0.30,-1.12 0.43,-3.63 0.67,-7.33 1.02,-10.81 0.02,-0.00 0.05,-0.00 0.07,-0.00 z m 8.04,0.17 c -0.01,-0.00 -0.03,0.00 -0.06,0.03 0.03,0.27 -0.09,1.24 0.10,1.02 -0.03,-0.24 0.06,-1.01 -0.04,-1.05 z m -2.37,0.01 c -0.01,-6.69e-4 -0.02,0.00 -0.03,0.01 l 0,0.00 c 0.04,0.36 -0.10,1.46 0.10,1.32 -0.04,-0.34 0.08,-1.33 -0.06,-1.34 z m 3.69,0.31 c 0.05,-7.4e-5 0.14,0.24 0.25,0.20 -0.09,0.33 -0.19,-0.11 -0.30,-0.10 0.01,-0.07 0.02,-0.10 0.04,-0.10 z m -9.03,0.20 c 0.30,4.23 0.16,11.46 0.20,16.12 0.00,0.44 0.43,1.18 -0.20,1.42 l 0,-17.55 z m 8.87,0.20 c 1.40,0.22 0.77,2.11 0.81,3.26 0.09,-0.07 0.15,-0.18 0.20,-0.30 0.28,0.16 -0.14,0.45 0,0.81 0.30,-0.37 0.19,-1.16 0.30,-1.73 0.17,0.47 0.10,1.10 -0.10,1.63 0.34,0.10 0.16,-0.31 0.20,-0.51 0.23,2.67 0.03,5.22 -0.10,7.75 0.07,0.33 -0.21,0.16 -0.30,0.10 -0.12,0.33 0.05,0.86 0.10,1.32 0.16,-0.10 0.11,-0.43 0.20,-0.61 0.20,0.14 0.12,0.86 0,1.02 -0.20,-0.59 -0.14,0.23 -0.81,0 l 0,-0.51 c -0.18,0.12 -0.02,0.59 -0.51,0.40 0.26,-1.36 0.56,-2.69 0.61,-4.28 -0.23,0.82 -0.39,1.71 -0.51,2.65 0.01,-2.26 0.74,-4.70 0.91,-7.14 -0.68,2.75 -0.96,5.90 -1.53,8.77 -0.42,0.05 -0.68,-0.05 -0.91,-0.20 0.13,-0.51 0.39,-0.89 0.40,-1.53 0.18,-0.27 0.07,0.60 0.10,0.81 0.68,-0.73 -0.56,-1.85 0.40,-2.34 0.00,-2.98 0.78,-6.37 0.51,-9.38 z m -2.44,0.30 c 0.00,1.05 -0.27,2.37 -0.10,3.26 0.01,-0.15 -0.03,-0.37 0.10,-0.40 -0.07,-0.43 0.07,-0.85 0.10,-1.32 0.04,-0.62 0.15,-1.42 -0.10,-1.53 z m 3.46,0.61 c 0.81,0.27 0.03,1.20 0.10,1.94 -0.23,-0.44 -0.03,-1.32 -0.10,-1.94 z m -4.69,0.10 c 0.04,0.48 -0.29,1.12 0,1.52 0.14,-0.30 0.18,-1.23 0,-1.52 z m -21.32,0.61 c 1.17,-0.05 0.85,1.58 0.81,2.44 -0.05,1.28 -0.12,2.85 -0.30,4.08 -0.27,1.91 -0.80,3.47 -0.81,4.89 0.84,-3.12 1.32,-7.08 1.32,-10.71 0.50,0.17 0.90,0.45 0.91,1.12 0.27,0.07 -0.07,-0.48 0.20,-0.40 0.38,0.29 0.60,0.75 1.01,1.02 -0.13,3.88 -0.56,7.46 -1.32,10.71 -0.29,-0.14 0.22,-0.60 -0.10,-0.81 -0.30,0.03 -0.36,1.12 0.10,1.02 -0.11,0.29 -0.18,0.63 -0.20,1.02 0.75,-1.69 0.84,-4.08 1.22,-6.32 0.26,-1.58 0.54,-3.69 0.40,-5.40 0.23,0.03 0.38,0.16 0.71,0.10 0.47,1.44 0.13,3.27 0,4.28 -0.16,1.21 -0.23,2.40 -0.40,3.57 C 9.42,33.90 8.93,35.15 8.69,36.69 7.84,36.68 7.33,36.35 6.55,36.28 6.66,35.79 6.76,35.27 7.06,34.95 7.41,31.13 8.34,27.62 8.07,23.93 7.86,28.42 7.34,32.58 6.34,36.28 6.00,36.18 5.64,36.10 5.32,35.97 5.40,35.21 5.76,34.72 5.73,33.83 5.34,34.32 5.32,35.20 5.12,35.87 4.60,35.98 4.53,35.64 4.09,35.67 4.92,31.27 5.73,26.62 6.03,21.99 z m 27.01,0.01 c 0.05,-0.01 0.12,0.02 0.12,0.08 -0.09,0.06 -0.18,0.12 -0.20,0 0.00,-0.04 0.04,-0.07 0.07,-0.08 z m 0.22,0.18 c 0.12,0.04 0.21,0.12 0.20,0.30 -0.17,0.03 -0.19,-0.07 -0.20,-0.20 -0.23,0.43 0.85,0.44 0.71,1.12 0.23,0.27 0.60,0.40 0.91,0.61 -0.29,2.85 -0.27,6.39 -0.91,9.18 l -0.71,0 c -0.05,-0.87 0.25,-1.38 0.30,-2.14 -0.57,0.27 -0.29,1.40 -0.51,2.04 -0.17,-3.36 -0.16,-7.45 0,-10.81 0.08,-0.01 0.10,-0.10 0.20,-0.10 z m 2.55,0.20 c 0.60,0.00 0.54,0.68 0.81,1.02 0.12,0.14 0.38,0.15 0.51,0.30 0.14,0.51 0.57,0.87 0.71,1.42 0.18,0.75 0.05,1.72 0.10,2.65 0.08,1.86 0.24,3.87 -0.10,6.02 -0.42,0.08 -0.52,-0.15 -0.91,-0.10 0.25,-2.80 0.33,-6.29 0,-9.08 -0.10,2.57 0.21,6.42 -0.20,9.08 -0.44,0.07 -0.57,-0.17 -1.02,-0.10 0.33,-3.48 0.46,-7.52 0.10,-11.22 z m -6.12,0.20 c 0.03,1.18 -0.48,2.36 -0.20,3.46 0.10,-1.05 0.41,-2.44 0.20,-3.46 z m 6.99,0.32 c 0.08,-0.02 0.20,0.30 0.34,0.28 -0.17,0.35 -0.20,-0.25 -0.40,-0.20 0.01,-0.05 0.03,-0.07 0.06,-0.07 z m -9.44,0.18 c -0.11,1.04 -0.43,2.42 -0.30,3.36 0.15,-1.00 0.50,-2.35 0.30,-3.36 z m 6.99,0.10 c 0.05,-7.3e-5 0.14,0.24 0.25,0.20 -0.09,0.33 -0.20,-0.11 -0.30,-0.10 0.01,-0.07 0.03,-0.10 0.05,-0.10 z M 8.69,23.62 c 0.13,0.03 0.16,0.18 0.30,0.20 -0.04,0.25 -0.39,0.00 -0.30,-0.20 z m 25.41,0.10 c -0.21,2.20 -0.12,4.70 -0.61,6.63 l 0,-0.91 c -0.51,0.08 -0.14,0.51 -0.30,1.02 0.28,0.06 0.23,0.02 0.40,0.30 0.20,-0.07 -0.02,-0.57 0.20,-0.61 -0.02,0.23 0.02,0.38 0.20,0.40 0.17,-0.16 0.08,-0.59 0.10,-0.91 -0.36,-0.15 -0.06,0.34 -0.30,0.30 0.18,-2.17 0.36,-3.77 0.30,-6.22 z m 2.68,0.23 c -0.01,8.58e-4 -0.02,0.01 -0.03,0.06 -0.02,0.13 0.06,0.39 0.10,0.20 0.02,-0.10 -0.02,-0.27 -0.06,-0.27 z M 10.53,24.13 c 0.22,0.01 0.04,0.43 0.10,0.61 -0.27,-0.00 -0.24,-0.48 -0.10,-0.61 z m 5.40,0 c -0.05,0.22 -0.24,0.83 0,1.02 0.01,-0.31 0.35,-0.95 0,-1.02 z m 16.33,0.61 -0.00,0.00 c 1.6e-5,0.00 -1.6e-5,0.00 0,0.01 0.00,-0.00 0.00,-0.01 0.00,-0.01 z m -0.00,0.01 c -0.25,1.02 0.03,2.60 -0.61,3.25 0.01,0.04 0.03,0.08 0.05,0.12 -0.06,0.04 -0.06,0.16 -0.05,0.28 0.06,-0.00 0.09,-0.06 0.10,-0.12 0.28,1.04 -0.35,2.41 -0.20,3.70 -0.08,0.34 0.15,0.58 0.10,0.10 0.22,-2.35 0.62,-5.08 0.61,-7.33 z m 5.61,0.09 c 0.34,0.02 0.28,0.45 0.51,0.61 0.19,0.04 0.61,-0.14 0.51,0.20 -0.66,-0.01 0.17,0.30 0,0.71 1.74,0.41 1.34,4.42 1.42,7.14 0.27,-1.73 0.10,-3.81 -0.10,-5.61 1.64,0.59 0.88,3.26 1.32,5.20 0.29,-1.21 -0.28,-2.43 -0.10,-3.87 0.60,0.55 1.05,1.25 1.02,2.44 0.23,-0.17 0.03,-0.77 0.10,-1.12 0.23,0.44 0.62,0.73 0.91,1.12 l 0,1.83 c -1.31,0.21 -2.70,0.35 -4.28,0.30 0.17,-2.35 0.19,-4.66 -0.10,-6.83 -0.09,2.23 0.16,4.32 0,6.83 l -1.12,0 c 0.52,-2.68 0.31,-6.33 -0.10,-8.98 z m -9.61,0.09 c -0.02,-0.00 -0.04,-4.2e-4 -0.07,0.00 0.12,0.93 -0.39,1.78 -0.10,2.55 0.02,-0.89 0.32,-1.51 0.30,-2.45 -0.01,-0.05 -0.05,-0.09 -0.12,-0.10 z m -17.69,0.09 c 0.16,-0.04 0.13,0.36 -0.14,0.11 0.05,-0.07 0.10,-0.10 0.14,-0.11 z m -0.14,0.31 c 0.68,0.34 0.37,1.15 0.40,1.73 0.15,2.39 0.12,4.37 -0.20,6.43 -0.17,1.10 -0.48,2.22 -0.71,3.16 l 0,0.20 C 9.46,36.93 9.17,36.82 8.89,36.69 9.00,36.28 9.05,35.83 9.30,35.56 9.72,32.21 10.40,29.12 10.42,25.36 z m 1.12,0.71 c 1.12,0.35 0.65,2.47 0.51,3.57 -0.41,-0.94 -0.35,-2.37 -0.81,-3.26 -0.03,-0.23 0.29,-0.11 0.30,-0.30 z m 10.20,0.20 c 0.29,0.50 0.09,1.23 0.10,2.04 0.02,1.27 0.30,2.83 0.10,4.08 -0.06,0.36 -0.42,0.65 -0.30,1.02 -0.16,0.41 0.51,-0.07 0.20,0.20 0.10,1.06 0.15,2.53 0,3.67 l -0.40,0 c -0.38,-0.13 -0.19,-0.66 -0.20,-0.91 l -0.00,-0.00 c -0.03,-2.77 0.54,-6.60 0.51,-10.10 z M 11.34,27.30 c 0.23,1.34 0.82,2.82 0.61,4.28 0.03,0.21 0.27,-0.15 0.30,0.20 l 0,0.00 c 0.08,1.40 0.17,3.31 -0.10,5.20 -0.27,-1.73 -0.56,-3.94 -0.51,-5.81 0.02,-0.77 -0.26,-1.68 -0.30,-2.44 -0.03,-0.56 0.01,-1.37 0,-1.43 z m 15.30,0 0,0.00 c 0.02,1.07 -0.55,2.09 -0.30,3.05 -0.03,-0.51 0.23,-0.71 0.20,-1.22 0.14,-0.00 0.22,0.05 0.30,0.10 -0.01,-0.58 0.25,-0.98 -0.20,-1.22 0.06,-0.12 0.42,-0.74 0,-0.71 z m -11.01,0.11 c -0.04,-0.00 -0.10,0.02 -0.11,0.09 0.19,0.64 -0.46,1.84 -0.10,2.65 0.15,-0.83 0.17,-1.79 0.30,-2.65 -5.41e-4,-0.05 -0.04,-0.08 -0.09,-0.09 z m 12.29,0.38 c -0.01,1.36e-4 -0.03,0.00 -0.05,0.00 -0.14,0.73 -0.54,1.76 -0.30,2.55 0.13,-0.81 0.28,-1.62 0.51,-2.34 -0.00,-0.10 -0.02,-0.21 -0.14,-0.21 z m -1.89,0.21 c 0.06,0.39 -0.43,0.87 0,1.02 0.01,-0.24 0.45,-0.96 0,-1.02 z m 3.46,0.91 c -0.06,0.24 -0.14,0.46 -0.10,0.81 0.36,-0.08 0.31,-0.64 0.10,-0.81 z m 2.65,0.40 c -0.04,0.20 -0.25,0.75 0,0.91 0.11,-0.12 0.20,-0.80 0,-0.91 z m -19.90,0.40 c 0.23,0.24 0.03,0.91 0.10,1.32 -0.31,-0.36 -0.11,-0.78 -0.10,-1.32 z m 2.65,0.20 c -0.10,0.24 -0.17,0.50 -0.20,0.81 0.28,0.00 0.35,-0.72 0.20,-0.81 z m 0.81,0 c -0.09,0.24 -0.17,0.50 -0.20,0.81 0.34,0.06 0.41,-0.66 0.20,-0.81 z m 1.59,0.19 c -0.01,-0.00 -0.03,-2.85e-4 -0.06,0.00 0.00,0.30 -0.30,0.81 0.10,0.91 -0.13,-0.33 0.22,-0.90 -0.04,-0.92 z m 1.77,0.10 c -0.09,0.12 -0.28,0.96 0.10,0.91 -0.06,-0.27 0.13,-0.80 -0.10,-0.91 z m 0.81,0.10 c -0.05,0.18 -0.47,0.86 0,0.91 0.16,-0.07 0.16,-0.84 0,-0.91 z m 5.71,0 c -0.17,0.16 -0.08,0.60 -0.10,0.91 0.45,0.11 0.40,-0.90 0.10,-0.91 z m 0.81,0.10 c -0.01,0.18 -0.34,0.05 -0.40,0.20 0.00,0.51 -0.07,0.94 -0.20,1.32 0.38,-0.12 0.25,-0.76 0.51,-1.02 0.00,0.16 -0.01,0.35 0.20,0.30 -0.11,-0.40 0.30,-0.71 -0.10,-0.81 z m -3.16,0.40 c 0.07,0.23 -0.18,0.79 0.20,0.71 -0.12,-0.18 -0.01,-0.59 -0.20,-0.71 z m 6.02,0 c -0.09,0.12 -0.28,0.96 0.10,0.91 -0.06,-0.27 0.12,-0.81 -0.10,-0.91 z m -18.26,0.20 c 0.36,1.03 0.32,2.46 0.40,3.77 0.07,0.27 -0.21,0.19 -0.30,0.30 0.16,0.46 -0.03,0.74 0.10,1.12 0.09,-0.07 0.15,-0.18 0.20,-0.30 0.24,0.20 0.20,0.67 0.20,1.12 -0.42,0.18 -1.14,-0.12 -1.63,-0.20 0.06,-0.51 0.34,-0.81 0.30,-1.43 0.17,0.02 0.23,0.17 0.20,0.40 0.31,-0.31 0.37,-0.89 0,-1.12 0.20,-1.19 0.46,-2.32 0.51,-3.67 z m 22.86,0.40 c 0.07,0.45 -0.13,0.61 -0.10,1.02 0.37,0.08 0.48,-1.00 0.10,-1.02 z m -2.96,0.10 c 0.26,0.33 -0.01,0.99 -0.10,1.32 -0.19,-0.26 0.10,-0.91 0.10,-1.32 z m 1.79,0.00 c 0.06,-0.02 0.05,0.39 0.04,0.50 -0.11,0.33 -0.11,-0.27 -0.10,-0.40 0.02,-0.06 0.04,-0.08 0.05,-0.09 z m -17.30,0.30 c 0.05,0.39 -0.18,0.49 -0.10,0.91 0.28,-0.04 0.40,-0.90 0.10,-0.91 z m 1.94,0.20 c -0.17,0.23 -0.24,0.57 -0.20,1.02 0.24,-0.12 0.59,-0.87 0.20,-1.02 z m 26.33,0 c 0.41,0.36 0.85,0.70 1.01,1.32 -0.35,0.05 -0.66,0.15 -1.12,0.10 -0.02,-0.53 0.00,-1.02 0.10,-1.43 z m -25.41,0.30 c 0.00,0.30 -0.30,0.81 0.10,0.91 0.13,-0.16 0.22,-0.89 -0.10,-0.91 z m 6.43,0 c 0.47,0.08 0.67,0.33 1.01,0.30 -0.29,0.89 -0.37,2.00 -0.71,2.85 -0.25,-0.08 -0.54,-0.13 -0.91,-0.10 0.23,-0.98 0.35,-2.09 0.61,-3.05 z m -4.73,0.19 c -0.01,-0.00 -0.03,-4.65e-4 -0.06,0.00 0.06,0.24 -0.12,0.73 0.10,0.81 0.08,-0.09 0.25,-0.78 -0.03,-0.81 z m 5.95,0.00 c 0.33,0.00 0.50,0.17 0.91,0.10 0.07,0.09 0.10,0.23 0.10,0.40 0.16,-0.50 0.78,-0.17 1.22,-0.10 -0.37,0.81 -0.44,1.93 -0.81,2.75 l -0.81,0 c -0.19,-0.18 0.08,-0.25 0,-0.61 -0.15,0.08 -0.21,0.25 -0.20,0.51 -0.45,0.05 -0.76,-0.05 -1.12,-0.10 0.23,-0.98 0.46,-1.98 0.71,-2.95 z m -5.20,0.10 c 0.06,0.36 -0.32,0.79 0.10,0.91 0.09,-0.12 0.28,-0.96 -0.10,-0.91 z m 2.45,0.20 c -0.12,0.15 -0.19,0.87 0,1.01 0.05,-0.28 0.40,-0.90 0,-1.01 z m 5.27,0.09 c 0.38,8.29e-4 0.67,0.10 0.94,0.21 -0.24,0.90 -0.41,1.90 -0.81,2.65 l -1.02,0 c 0.09,-0.78 0.60,-1.77 0.71,-2.85 0.05,-0.00 0.11,-0.00 0.17,-0.00 z m 1.15,0.10 c 0.24,0.06 0.46,0.14 0.81,0.10 -0.03,1.20 -0.37,1.72 -0.40,2.75 l -1.12,0 -0.00,0 c 0.12,-1.06 0.50,-1.87 0.71,-2.85 z m 1.02,0.20 0.71,0 c -0.00,0.54 0.06,1.15 -0.20,1.43 l -0.61,0 c -0.02,-0.53 0.00,-1.02 0.10,-1.43 z m 0.91,0 c 0.54,0.15 0.53,0.06 0.91,0.10 l 0,2.54 c -0.37,-0.03 -0.90,0.08 -1.12,-0.10 0.30,-0.44 0.48,-1.01 0.51,-1.73 -0.22,0.04 -0.00,0.54 -0.20,0.61 -0.38,-0.14 -0.18,-1.11 -0.10,-1.43 z m 2.10,0.06 c 0.10,-0.00 0.21,0.01 0.34,0.04 -0.00,1.08 -0.03,2.14 -1.02,2.24 0.09,-0.88 -0.30,-2.27 0.67,-2.29 z m -6.79,0.14 c -0.08,0.42 -0.48,1.08 -0.20,1.53 0.00,-0.51 0.46,-1.09 0.20,-1.53 z m -21.94,0.10 c 0.05,0.37 -0.33,0.88 0.10,1.02 -0.01,-0.10 0.34,-0.89 -0.10,-1.02 z m 30.82,0.20 c 1.47,0.26 3.26,0.20 5.00,0.20 -1.69,0.54 -3.74,0.74 -5.51,1.22 0.03,-0.61 0.48,-0.80 0.51,-1.43 z m 7.95,0.10 c 0.32,0.23 -0.26,0.19 -0.30,0.20 -2.73,1.18 -6.40,2.18 -9.38,3.26 0.19,-0.38 0.00,-1.14 0.20,-1.53 3.15,-0.65 6.34,-1.27 9.49,-1.94 z m -31.22,0.00 c 0.37,0.71 0.83,2.34 0.10,2.95 -0.34,-0.82 0.08,-1.72 -0.10,-2.95 z m -6.18,0.09 c -0.26,0.02 -0.24,0.93 0.05,0.82 l 0,-0.81 c -0.02,-0.00 -0.03,-0.00 -0.05,-0.00 z m 8.83,0.21 c 0.06,0.27 -0.12,0.80 0.10,0.91 0.09,-0.12 0.28,-0.96 -0.10,-0.91 z m 20.10,0.10 c 0.03,0.31 -0.23,1.18 -1.02,1.02 0.24,-0.43 0.79,-0.56 1.02,-1.02 z M 8.38,34.54 c -0.02,0.45 -0.16,0.70 0.10,1.02 0.00,-0.19 0.32,-0.86 -0.10,-1.02 z m 9.55,0.10 c -0.01,-0.00 -0.04,-4.51e-4 -0.06,0.00 0.05,0.24 -0.12,0.73 0.10,0.81 0.08,-0.09 0.25,-0.78 -0.03,-0.81 z m 1.89,0.09 c -0.34,0.00 -0.20,0.50 -0.23,0.82 0.34,-0.03 0.28,-0.46 0.30,-0.81 -0.02,-0.00 -0.05,-0.00 -0.07,-0.00 z m 0.68,0.00 c 0.06,0.31 -0.13,0.88 0.10,1.02 0.09,-0.14 0.29,-1.04 -0.10,-1.02 z m -10.71,0.10 c -0.20,0.25 -0.05,0.81 0.20,0.91 -0.06,-0.51 0.08,-0.78 -0.20,-0.91 z m 13.06,0 0,1.02 c 0.36,0.03 0.27,-1.03 0,-1.02 z m 7.97,0.03 c 0.08,-0.00 0.18,0.01 0.29,0.06 0.15,0.33 -0.09,0.66 -0.20,1.02 l -0.61,0 c 0.01,-0.48 0.14,-1.05 0.51,-1.08 z m -9.29,0.06 c -0.15,0.14 -0.08,0.52 -0.10,0.81 0.34,0.10 0.24,-0.76 0.10,-0.81 z m 9.89,0 c 0.25,0.01 0.02,0.34 0,0.40 -0.30,-0.06 0.09,-0.21 0,-0.40 z m 1.32,0.65 c 0.04,0.00 -0.30,0.34 -0.10,0.06 0.06,-0.04 0.09,-0.06 0.10,-0.06 z m -8.67,0.06 c 1.73,0.35 4.26,0.40 5.91,0.51 -0.21,0.81 -1.56,0.62 -2.44,0.81 -0.41,0.09 -1.23,0.31 -1.94,0.30 -0.07,-0.43 -0.14,-0.87 -0.40,-1.12 -0.54,0.25 -0.94,2.00 -1.63,1.12 -0.18,0.09 -0.13,0.41 -0.51,0.30 0.11,-0.56 0.29,-1.06 0.51,-1.53 0.27,0.49 0.43,-0.11 0.51,-0.40 z M 3.89,35.87 c 1.95,0.46 3.88,0.94 6.02,1.22 C 7.98,37.12 5.52,36.79 3.48,36.59 3.05,36.52 3.81,36.08 3.89,35.87 z m 26.79,0.19 c 0.14,0 0.28,0.03 0.35,0.10 -0.09,0.24 -0.40,0.27 -0.71,0.30 l 0,-0.30 c 0.06,-0.07 0.21,-0.10 0.35,-0.10 z M 20.73,36.18 c 0.03,-0.00 0.07,-0.00 0.10,0 0.15,0.20 0.15,0.91 0,1.12 -0.37,0.03 -0.56,-0.11 -0.81,-0.20 0.01,-0.53 0.19,-0.89 0.70,-0.91 z m -7.23,0.37 c 0.34,0.00 0.80,0.23 1.31,0.13 -0.06,0.43 0.07,0.67 0.10,1.02 -0.37,0.27 -0.85,-0.05 -1.32,0 -0.19,-0.28 -0.23,-0.71 -0.30,-1.12 0.06,-0.02 0.13,-0.03 0.21,-0.03 z m -0.31,0.03 c -0.07,0.44 0.27,0.79 0,1.12 -0.38,-0.02 -0.72,-0.08 -1.02,-0.20 0.40,-0.23 0.42,-0.86 1.02,-0.91 z m 17.55,0.03 c 0.06,-0.00 0.10,0.09 0,0.37 -0.17,-0.18 -0.07,-0.36 0,-0.37 z m -18.98,0.06 c 0.16,0.17 0.13,0.54 0.20,0.81 -0.23,-0.10 -0.21,-0.47 -0.20,-0.81 z m 18.67,0 c 0.08,0.65 -0.28,1.15 0.10,1.53 -0.21,0.29 -0.65,0.06 -0.81,0.20 -0.19,-0.13 0.23,-0.33 0,-0.61 0.19,0.04 0.18,0.29 0.51,0.20 -0.00,-0.37 -0.24,-1.29 0.20,-1.32 z M 15.32,36.79 c 0.27,0.10 0.34,0.86 -0.20,0.71 l -0.00,0 c -0.06,-0.36 0.11,-0.49 0.20,-0.71 z m 9.89,0 c 0.26,0.01 0.20,0.34 0.20,0.61 -0.17,-0.05 -0.59,0.12 -0.61,-0.10 0.00,-0.43 0.53,0.14 0.40,-0.51 z m -9.26,0.03 c 0.03,-0.00 0.06,0.00 0.07,0.07 0.55,0.03 1.79,0.31 2.55,0.40 0.42,0.05 0.92,-0.26 1.12,0.20 -0.05,0.53 -1.21,0.30 -1.83,0.30 -0.75,0 -1.54,0.07 -2.03,-0.10 -0.24,-0.23 0.01,-0.49 0,-0.81 0.04,-0.03 0.09,-0.06 0.12,-0.07 z m 12.83,0.17 c 0.36,0.01 0.15,1.05 -0.10,1.12 -0.01,-0.42 0.17,-0.63 0.10,-1.12 z m 0.61,0 c -0.11,0.29 -0.09,0.72 -0.20,1.02 -0.20,-0.21 -0.13,-1.02 0.20,-1.02 z m 0.09,0.10 c 0.30,0.21 -0.13,0.53 0,0.91 -0.32,-0.02 -0.06,-0.66 0,-0.91 z m -18.53,0.08 c 0.16,-0.02 0.37,0.18 0.57,0.12 -0.06,0.21 -0.62,0.09 -0.71,0 0.03,-0.07 0.08,-0.11 0.13,-0.12 z m 17.17,0.01 c 0.30,0.01 0.05,0.58 0.13,0.82 0.14,-0.02 0.03,-0.30 0.20,-0.30 -0.00,-0.96 0.17,-0.08 0.10,0.40 -0.21,0.13 -0.30,-0.05 -0.61,0.10 -0.03,-0.40 0.18,-0.56 0.10,-1.02 0.02,-0.00 0.04,-0.00 0.06,-0.00 z m 2.49,0.01 c 0.04,0.00 0.09,0.03 0.09,0.09 -0.04,0.14 -0.08,-0.01 -0.20,0 0.01,-0.06 0.06,-0.09 0.10,-0.09 z m -3.27,0.09 c 0.15,0.16 0.25,1.13 -0.20,1.02 l -0.00,0 c 0.02,-0.38 0.09,-0.72 0.20,-1.02 z m 0.30,0 c 0.43,0.01 0.13,0.81 0.10,1.02 -0.41,-0.11 0.04,-0.56 -0.10,-1.02 z m -7.19,0.08 c 0.18,0 0.37,0.03 0.45,0.11 -0.06,0.34 -0.49,0.32 -0.91,0.30 l 0,-0.30 0.00,0 c 0.08,-0.07 0.26,-0.11 0.45,-0.11 z m 6.07,0.01 c 0.27,0.01 0.17,1.01 -0.20,1.01 -0.02,-0.43 0.09,-0.71 0.20,-1.01 z m 0.40,0 c 0.15,0.16 0.25,1.12 -0.20,1.01 -0.02,-0.43 0.09,-0.71 0.20,-1.01 z m -5.71,0.10 0.61,0 c 0.09,0.36 -0.40,0.14 -0.61,0.20 l 0,-0.20 z m 4.69,0 0.30,0 c -0.00,0.40 -0.05,0.76 -0.20,1.02 -0.49,-0.08 -0.00,-0.68 -0.10,-1.02 z m -0.91,0.10 c 0.40,0.11 0.05,0.73 0,1.02 -0.19,-0.14 -0.12,-0.86 0,-1.02 z m 0.40,0 0.30,0 c -0.00,0.47 0.13,1.08 -0.51,0.91 0.00,-0.36 0.15,-0.58 0.20,-0.91 z m -1.32,0.10 c 0.30,0.01 0.34,1.03 -0.10,0.91 -0.10,-0.13 -0.00,-0.68 0.10,-0.91 z m 0.40,0 c 0.50,0.07 0.17,0.51 0.20,0.91 -0.54,0.01 -0.20,-0.60 -0.20,-0.91 z m -1.12,0.10 c 0.17,0.20 0.14,0.82 -0.10,0.91 -0.43,-0.26 -0.07,-0.26 -0.51,0 l 0,-0.81 c 0.31,0.07 0.37,-0.10 0.61,-0.10 z m 0.51,0 c -0.02,0.35 0.03,0.78 -0.30,0.81 0.01,-0.36 -0.07,-0.82 0.30,-0.81 z m -10.75,0.07 c 0.15,-0.01 0.34,0.04 0.24,0.22 -0.09,-0.07 -0.22,-0.10 -0.40,-0.10 -0.01,-0.06 0.06,-0.11 0.15,-0.12 z m 0.93,0.01 c 0.16,0.01 0.24,0.11 0.22,0.30 l -0.30,0 0,-0.30 c 0.02,-0.00 0.05,-0.00 0.07,-0.00 z m 7.57,0.00 c 0.15,0.14 0.15,0.66 0,0.81 -0.22,-0.01 -0.21,-0.25 -0.20,-0.51 -0.20,0.33 -0.16,0.02 -0.51,0 -0.32,0.14 0.14,0.50 -0.10,0.61 -0.31,-0.00 -0.23,-0.66 -0.10,-0.81 0.40,0.06 0.58,-0.09 0.91,-0.10 z m 0.30,0 c 0.58,0.01 0.21,0.79 0.10,1.01 0.16,0.34 0.32,-0.32 0.51,0 0.06,0.46 -0.51,0.19 -0.71,0.20 -0.16,0.01 -0.27,0.20 -0.30,0.20 -0.26,0.00 -0.60,-0.35 -0.91,-0.10 0.09,-0.59 0.96,-0.05 1.32,-0.30 -0.08,-0.25 -0.19,-0.78 0,-1.01 z m 0.51,0 c 0.25,-0.03 0.19,0.79 -0.10,0.81 0.01,-0.29 -0.05,-0.66 0.10,-0.81 z m 8.26,0 0.20,0 0,0.30 -0.30,0 c -0.02,-0.16 0.09,-0.17 0.10,-0.30 z m -16.99,0.03 c 0.03,0.00 0.07,0.07 0.15,0.06 -0.02,0.12 -0.20,0.10 -0.20,0 0.01,-0.05 0.03,-0.06 0.05,-0.06 z m 0.86,0.04 c 0.19,0.01 0.06,0.36 0.10,0.52 -0.35,0.07 -0.36,-0.35 -0.20,-0.51 0.04,-0.01 0.07,-0.02 0.10,-0.01 z m 0.67,0.00 c 0.28,-0.00 0.32,0.62 0.34,0.01 0.11,0.08 0.27,0.13 0.51,0.10 l 0,0.40 c -0.21,0.04 -0.19,-0.14 -0.20,-0.30 -0.07,0.26 -0.29,0.38 -0.71,0.30 l 0,-0.51 c 0.02,-0.00 0.04,-0.01 0.06,-0.01 z m 4.90,0 c 0.10,-0.00 0.22,0.00 0.34,0.01 -0.01,0.29 0.05,0.66 -0.10,0.81 -0.17,-0.02 -0.23,-0.17 -0.20,-0.40 -0.27,-0.03 0.09,0.56 -0.30,0.40 l 0,-0.40 c -0.01,-0.18 -0.34,-0.06 -0.40,-0.20 -0.29,-0.01 0.12,0.66 -0.30,0.51 -0.07,-0.31 0.17,-0.29 0.10,-0.61 0.27,-0.05 0.55,-0.10 0.88,-0.11 z m -2.57,0.07 c 0.49,-0.00 0.95,0.02 1.49,0.04 -0.00,0.27 0.03,0.58 -0.10,0.71 -0.22,-0.01 -0.22,-0.25 -0.20,-0.50 -0.27,-0.03 0.09,0.56 -0.30,0.40 l 0,-0.51 c -0.22,-0.01 -0.04,0.36 -0.10,0.51 -0.30,0.10 -0.17,-0.22 -0.20,-0.40 -0.35,0.05 -0.16,0.59 -0.10,0.81 -0.41,-0.10 -0.70,-0.10 -1.12,0 0.05,-0.56 0.63,-0.02 0.91,-0.30 -0.11,-0.12 -0.11,-0.36 -0.10,-0.61 -0.38,0.00 -0.00,0.39 -0.20,0.40 -0.30,0.10 -0.17,-0.22 -0.20,-0.40 -0.13,0.03 -0.08,0.25 -0.10,0.40 -0.31,0.04 -0.32,-0.21 -0.30,-0.51 -0.29,0.16 -0.04,0.32 -0.20,0.51 -0.22,0.01 -0.04,-0.36 -0.10,-0.51 0.35,-0.02 0.66,-0.04 0.95,-0.04 z m -2.69,0.04 c 0.46,0.06 -0.08,0.61 0,0 z m 1.43,0 c 0.25,0.01 0.24,0.38 0.10,0.51 -0.25,-0.01 -0.24,-0.38 -0.10,-0.51 z m 12.81,0.06 c 0.11,0.00 0.20,0.08 0.24,0.34 -0.29,-0.18 -0.35,0.09 -0.40,0.10 -0.59,0.09 -1.39,-0.13 -1.73,0.40 -0.14,-0.05 -0.25,-0.16 -0.30,-0.30 -0.10,0.10 -0.29,0.31 -0.61,0.30 -0.10,-0.00 -0.16,-0.19 -0.20,-0.20 -0.15,-0.02 -0.58,0.05 -0.81,0.10 -0.07,0.01 -0.18,0.20 -0.20,0.20 -0.11,0.01 -0.15,-0.19 -0.20,-0.20 -0.18,-0.02 -0.42,0.42 -0.51,0.10 0.21,-0.54 1.01,-0.24 1.63,-0.30 0.56,-0.06 1.66,-0.22 2.44,-0.30 0.22,-0.02 0.48,-0.24 0.67,-0.24 z m -14.52,0.44 c 0.02,1.73e-4 0.04,0.00 0.07,0.00 l 0,0.40 c -0.31,0.02 -0.39,-0.41 -0.07,-0.41 z m 0.27,0.10 0.20,0 0,0.20 -0.20,0 0,-0.20 z m 1.02,0 c 0.18,0.08 0.31,0.34 0.40,0 0.17,0.02 0.23,0.17 0.20,0.40 -0.28,-0.16 -0.43,0.11 -0.71,-0.10 0.05,-0.08 0.10,-0.16 0.10,-0.30 z m 7.75,0.10 c 0.29,0.09 0.31,0.09 0.61,0 l 0,0.30 c -0.29,-0.09 -0.31,-0.09 -0.61,0 l 0,-0.30 z m -3.71,0.09 c 0.27,-0.02 0.10,0.34 0.04,0.42 -0.13,-0.03 -0.08,-0.25 -0.10,-0.40 0.02,-0.00 0.04,-0.00 0.06,-0.01 z m -0.36,0.01 c 0.44,0.04 -0.10,0.59 0,0 z m 3.16,0 c 0.59,0.13 -0.36,0.48 0,0 z m 0.51,0 0.20,0 c 0.02,0.16 -0.09,0.17 -0.10,0.30 l -0.20,0 c -0.02,-0.16 0.09,-0.17 0.10,-0.30 z m -4.28,0.02 c 0.16,-0.01 0.36,0.07 0.40,0.07 0.05,0.41 -0.30,-0.05 -0.61,0.10 0.02,-0.12 0.10,-0.17 0.20,-0.18 z m 1.40,0.06 c 0.12,0.01 0.08,0.34 -0.17,0.11 0.07,-0.09 0.13,-0.12 0.17,-0.11 z m 7.57,0.11 c 0.29,0.08 -0.06,0.32 0,0.51 -0.23,-0.02 -0.05,-0.44 0,-0.51 z m 1.12,0.10 c 0.18,-0.03 0.18,0.57 -0.10,0.40 -0.01,-0.18 0.12,-0.21 0.10,-0.40 z m -2.75,0.10 c 0.21,0.05 0.21,0.16 0.10,0.30 l -0.20,0 c -0.02,-0.16 0.09,-0.17 0.10,-0.30 z m 0.30,0 0.20,0 0,0.40 -0.20,0 0,-0.40 z m -1.13,0.07 c 0.19,0.01 0.16,0.46 -0.09,0.33 l 0,-0.30 c 0.03,-0.01 0.06,-0.02 0.09,-0.02 z m 0.51,0.06 c 0.04,0.00 -0.30,0.34 -0.10,0.06 0.06,-0.04 0.09,-0.06 0.10,-0.06 z m -1.53,0.06 0.20,0 0,0.20 -0.20,0 0,-0.20 z m 0.61,0.01 c 0.04,0.00 0.09,0.03 0.09,0.08 -0.09,0.06 -0.18,0.12 -0.20,0 0.01,-0.06 0.06,-0.08 0.11,-0.08 z m -13.17,0.28 c 0.15,0.22 0.58,0.16 0.61,0.51 l -1.32,0 c 0.11,-0.29 0.63,-0.18 0.71,-0.51 z m 25.82,0.10 c -1.32,0.00 -2.68,0.14 -3.87,0.10 0.56,0.13 1.17,0.26 1.83,0.30 0.69,0.04 1.42,-0.21 2.14,-0.20 0.32,0.00 0.67,0.17 1.02,0.20 0.93,0.06 1.89,-0.02 2.75,0 -0.45,-0.58 -1.24,-0.19 -1.94,-0.20 -0.64,-0.00 -1.27,-0.20 -1.93,-0.20 z m -16.51,0.28 c -0.17,0.00 -0.40,0.06 -0.52,0.01 -0.01,0.58 -0.79,0.21 -1.01,0.10 -0.41,0.37 -1.30,-0.19 -1.63,0.10 0.84,0.64 2.32,0.16 3.46,0 0.03,-0.20 -0.10,-0.23 -0.28,-0.22 z m -6.33,0.00 c -0.07,0.00 -0.11,0.02 -0.11,0.11 0.14,-0.05 0.52,0.11 0.51,-0.10 -0.09,0.03 -0.27,-0.01 -0.39,-0.01 z m 14.60,0 c -0.11,0.00 -0.17,0.04 -0.12,0.11 0.48,-0.20 0.60,0.47 0.91,0.10 -0.05,-0.12 -0.55,-0.23 -0.79,-0.21 z M 16.04,40.36 c -0.17,-0.00 -0.26,0.08 -0.30,0.20 0.17,0.00 0.26,-0.08 0.30,-0.20 z m 16.12,0 c -0.29,0.11 -0.79,0.02 -1.02,0.20 0.24,0.04 0.78,0.10 1.02,0 -0.12,-0.02 -0.06,-0.11 0,-0.20 z m -7.32,0.16 c -0.37,0.00 -0.71,0.05 -0.94,0.24 0.51,-0.06 0.84,0.23 0.81,-0.10 0.67,0.39 1.58,0.12 2.44,0.10 0.31,-0.00 0.81,0.30 1.02,-0.10 -0.55,-0.18 -1.38,-0.10 -2.14,-0.10 -0.40,0 -0.82,-0.04 -1.20,-0.03 z m 10.96,0.02 c -0.63,0.00 -1.21,0.06 -1.49,0.41 0.43,0.00 1.55,0.48 1.63,-0.10 -0.27,-0.11 -0.60,0.19 -0.61,0 0.25,-0.22 0.92,-0.02 1.12,-0.30 -0.21,-0.00 -0.43,-0.01 -0.64,-0.01 z m 1.26,0.01 c -1.01,0 1.23,0.43 1.12,0 -0.46,0.07 -0.81,0 -1.12,0 z m -14.61,0.02 c -0.21,0.01 -0.41,0.08 -0.58,0.28 0.77,-0.08 1.27,0.05 1.83,-0.10 -0.47,-0.05 -0.89,-0.20 -1.25,-0.18 z m 8.57,0.27 c -0.02,9.78e-4 -0.04,0.00 -0.07,0.01 -0.06,0.52 -0.78,-0.20 -0.91,0.30 0.43,-0.07 1.20,0.18 1.32,-0.20 -0.12,-0.02 -0.17,-0.11 -0.33,-0.11 z m 6.25,0.01 c -0.16,0.28 0.43,0.28 0.40,0.10 -0.19,0.02 -0.22,-0.11 -0.40,-0.10 z m -0.56,0.07 c -0.12,-0.01 -0.27,0.03 -0.25,0.12 0.19,-0.02 0.22,0.11 0.40,0.10 0.08,-0.14 -0.02,-0.21 -0.15,-0.22 z m -30.42,0.04 c -0.14,-0.00 -0.32,0.05 -0.45,0.07 -0.00,0.32 0.64,0.26 0.71,0.20 -0.00,-0.21 -0.12,-0.27 -0.26,-0.28 z m 17.67,0.02 c -0.22,0.00 -0.43,0.06 -0.57,0.25 0.56,-0.08 1.07,-0.02 1.42,-0.10 -0.24,-0.06 -0.56,-0.15 -0.85,-0.15 z m 0.85,0.15 c 0.00,6.03e-4 0.00,0.00 0.00,0.00 l 0,-0.00 c -0.00,5.65e-4 -0.00,-5.51e-4 -0.00,0 z M 29.51,41.08 c -0.24,0.06 -0.46,0.14 -0.81,0.10 -0.05,0.50 0.67,0.27 0.91,0.20 0.34,0.01 0.79,0.59 1.01,0.10 -0.54,0.04 -0.80,-0.21 -1.11,-0.40 l -0.00,0 z m -16.93,0.00 c -0.13,0.00 -0.24,0.03 -0.31,0.10 0.15,0.25 0.87,-0.06 1.02,0.20 0.01,0.28 -0.62,-0.08 -0.61,0.20 l 0,0.00 c 0.39,0.30 0.87,-0.23 1.22,-0.00 0.20,0.14 -0.23,0.48 0.30,0.40 0.04,-0.38 -0.32,-0.36 -0.40,-0.61 0.52,-0.24 0.59,0.47 0.81,0.20 -0.41,-0.16 0.66,-0.19 0.20,-0.40 -0.52,0.24 -1.64,-0.13 -2.24,-0.10 z m 12.86,0.08 c -0.04,0.00 -0.08,0.04 -0.11,0.12 0.03,0.11 0.40,0.38 0.51,0.10 -0.09,-0.02 -0.26,-0.24 -0.39,-0.22 z m -15.47,0.00 c -0.08,0.00 -0.14,0.03 -0.15,0.11 0.17,-0.05 0.59,0.12 0.61,-0.10 -0.11,0.03 -0.31,-0.01 -0.46,-0.01 z m 23.21,0.11 c -0.01,0.12 -0.18,0.08 -0.30,0.10 0.01,-0.11 0.18,-0.08 0.30,-0.10 z m -16.16,0.00 c -0.24,0.01 -0.48,0.14 -0.46,0.40 0.75,-0.30 2.27,0.16 2.85,-0.30 -0.68,0.18 -1.27,-0.13 -1.93,0.10 -0.07,-0.14 -0.26,-0.20 -0.45,-0.19 z m -4.05,0.59 c -0.09,0.00 -0.17,0.03 -0.18,0.11 0.15,0.08 -0.02,0.15 0.10,0.40 0.45,0.08 0.56,-0.18 0.61,-0.51 -0.13,0.03 -0.36,-0.02 -0.52,-0.01 z m 20.73,0.60 c -0.35,-0.00 -0.72,0.03 -0.91,0.12 0.43,-0.07 1.33,0.20 1.83,0 -0.19,-0.07 -0.55,-0.12 -0.91,-0.12 z" />
</svg>
