<?xml version="1.0" encoding="UTF-8" standalone="no"?>
<svg xmlns:dc="http://purl.org/dc/elements/1.1/" xmlns:cc="http://creativecommons.org/ns#" xmlns:rdf="http://www.w3.org/1999/02/22-rdf-syntax-ns#" xmlns:svg="http://www.w3.org/2000/svg" xmlns="http://www.w3.org/2000/svg" viewBox="0 0 36 36" version="1.1" id="svg8" width="100%" height="100%" >
<defs id="defs2" />
<path id="rect2892" d="M 0 0 L 0 36 L 36 36 L 36 0 L 0 0 z " style="fill:#ffffff;fill-opacity:0.994;stroke:none;stroke-width:0.600;stroke-linejoin:round" />
<path id="rect3757" d="M 0 0 L 0 33.392 L 36 33.392 L 36 0 L 0 0 z " style="fill:#526e79;stroke-width:1.855" />
<path id="use4789" d="M 1.056 0 L 1.056 25.236 L 11.822 25.236 L 11.822 0 L 1.056 0 z M 24.054 0 L 24.054 25.236 L 34.822 25.236 L 34.822 0 L 24.054 0 z " style="color:#000000;solid-color:#000000;solid-opacity:1;fill:#5a7580;fill-rule:evenodd;stroke:none;stroke-width:3.740;stroke-linecap:round;stroke-linejoin:miter;marker:none;marker-start:none;marker-mid:none;marker-end:none" />
<path id="path4225" d="M -3.774,-54.865" style="clip-rule:evenodd;fill:#557c3e;fill-rule:evenodd;stroke-width:0.644" />
<path id="path4227" d="M 4.447,-44.574" style="clip-rule:evenodd;fill:#557c3e;fill-rule:evenodd;stroke-width:0.644" />
<path id="path4229" d="M -5.585,-47.615" style="clip-rule:evenodd;fill:#557c3e;fill-rule:evenodd;stroke-width:0.644" />
<path id="rect4741" d="M 0 4.183 L 0 11.990 L 34.839 11.990 L 34.839 4.183 L 0 4.183 z " style="fill:#cdcdcd;stroke-width:1.271" />
<path id="rect4499" d="M 0 10.435 L 0 33.912 L 34.839 33.912 L 34.839 10.435 L 0 10.435 z " style="fill:#ad7357;stroke-width:2.640" />
<path id="rect4076" d="M 5.640 0 L 5.640 24.361 C 5.640 25.399 6.477 26.234 7.515 26.234 L 36 26.234 L 36 0 L 5.640 0 z " style="fill:#8a6142;fill-rule:evenodd;stroke:none;stroke-width:0.381;stroke-linecap:round;stroke-linejoin:round;marker:none;marker-start:none;marker-mid:none;marker-end:none" />
<path id="path4935" d="M 9.195 9.906 C 8.251 9.906 7.482 11.103 7.394 12.025 L 7.972 12.025 C 8.057 11.410 8.554 10.939 9.195 10.939 L 35.007 10.939 C 35.431 10.939 35.779 11.156 36 11.474 L 36 10.367 C 35.715 10.091 35.375 9.906 35.007 9.906 L 9.195 9.906 z " style="color:#000000;font-size:medium;font-family:sans-serif;text-indent:0;text-align:start;text-decoration:none;text-decoration-line:none;text-decoration-style:solid;text-decoration-color:#000000;text-transform:none;writing-mode:lr-tb;direction:ltr;baseline-shift:baseline;text-anchor:start;solid-color:#000000;solid-opacity:1;fill:#b18b53;fill-rule:evenodd;stroke:none;stroke-width:0.635;stroke-linecap:round;stroke-linejoin:round;marker:none" />
<path id="path4100" d="M 13.955 1.103 L 13.955 2.783 L 13.955 4.412 L 13.955 6.093 C 13.947 6.416 14.093 6.705 14.322 6.933 C 14.550 7.161 14.840 7.309 15.164 7.300 L 29.537 7.300 C 29.851 7.295 30.160 7.160 30.378 6.933 C 30.595 6.707 30.702 6.407 30.693 6.093 L 30.693 4.412 L 30.693 2.783 L 30.693 1.103 L 28.326 1.103 L 28.326 2.783 L 28.326 3.255 L 16.324 3.255 L 16.324 2.783 L 16.324 1.103 L 13.955 1.103 z " style="fill:#666666;fill-rule:evenodd;stroke:none;stroke-width:1.779;stroke-linecap:butt;stroke-linejoin:round" />
<path id="path4091" d="M 13.933 1.113 L 13.933 4.423 C 13.925 4.746 14.071 5.035 14.300 5.263 C 14.528 5.491 14.818 5.639 15.142 5.630 L 29.513 5.630 C 29.827 5.625 30.137 5.490 30.355 5.263 C 30.572 5.037 30.680 4.737 30.671 4.423 L 30.671 1.113 L 28.302 1.113 L 28.302 3.267 L 16.302 3.267 L 16.302 1.113 L 13.933 1.113 z " style="fill:#ffffff;fill-rule:evenodd;stroke:none;stroke-width:1.779;stroke-linecap:butt;stroke-linejoin:round" />
<path id="path4107" d="M 13.955 14.734 L 13.955 16.416 L 13.955 18.044 L 13.955 19.724 C 13.947 20.047 14.093 20.336 14.322 20.564 C 14.550 20.792 14.840 20.940 15.164 20.931 L 29.537 20.931 C 29.851 20.926 30.160 20.791 30.378 20.564 C 30.595 20.338 30.702 20.038 30.693 19.724 L 30.693 18.044 L 30.693 16.416 L 30.693 14.734 L 28.326 14.734 L 28.326 16.416 L 28.326 16.888 L 16.324 16.888 L 16.324 16.416 L 16.324 14.734 L 13.955 14.734 z " style="fill:#666666;fill-rule:evenodd;stroke:none;stroke-width:1.779;stroke-linecap:butt;stroke-linejoin:round" />
<path id="path4109" d="M 13.933 14.744 L 13.933 18.054 C 13.925 18.377 14.071 18.666 14.300 18.894 C 14.528 19.122 14.818 19.270 15.142 19.261 L 29.513 19.261 C 29.827 19.256 30.137 19.121 30.355 18.894 C 30.572 18.668 30.680 18.368 30.671 18.054 L 30.671 14.744 L 28.302 14.744 L 28.302 16.898 L 16.302 16.898 L 16.302 14.744 L 13.933 14.744 z " style="fill:#ffffff;fill-rule:evenodd;stroke:none;stroke-width:1.779;stroke-linecap:butt;stroke-linejoin:round" />
<path id="path4743" d="M 0 0 L 0 17.421 A 16.233 16.233 0 0 0 3.441 14.197 L 20.533 29.921 L 34.921 29.921 L 4.648 12.441 A 16.233 16.233 0 0 0 6.669 7.023 L 36 13.589 L 36 4.941 L 6.902 4.941 A 16.233 16.233 0 0 0 6.943 4.154 A 16.233 16.233 0 0 0 6.369 0 L 0 0 z M 0 19.755 L 0 28.505 L 0.443 29.921 L 5.869 29.921 L 0 19.755 z " style="fill:#f9f130;fill-opacity:0.110;fill-rule:evenodd;stroke:none;stroke-width:1.909;stroke-linecap:butt;stroke-linejoin:miter" />
<path id="rect4211" d="M 0 0 L 0 10.726 L 1.154 10.726 L 1.154 0 L 0 0 z " style="color:#000000;font-size:medium;font-family:sans-serif;text-indent:0;text-align:start;text-decoration:none;text-decoration-line:none;text-decoration-style:solid;text-decoration-color:#000000;text-transform:none;writing-mode:lr-tb;direction:ltr;text-orientation:mixed;baseline-shift:baseline;text-anchor:start;shape-padding:0;solid-color:#000000;solid-opacity:1;vector-effect:none;fill:#ffffff;fill-rule:evenodd;stroke:none;stroke-width:1.907;stroke-linecap:butt;stroke-linejoin:miter;marker:none" />
<path id="rect4999-3" d="M 0 0 L 0 9.777 L 0.199 9.777 L 0.199 0 L 0 0 z " style="color:#000000;solid-color:#000000;solid-opacity:1;fill:#c34d3b;fill-rule:evenodd;stroke:none;stroke-width:0.635;stroke-linecap:butt;stroke-linejoin:miter;marker:none;marker-start:none;marker-mid:none;marker-end:none" />
<path id="path5044" d="M 0.197 2.857 L 0 2.873 L 0 3.603 L 0.197 3.685 L 0.197 2.857 z M 0.197 3.753 L 0 4.419 L 0 4.777 L 0.197 4.705 L 0.197 3.753 z M 0 6.691 L 0 7.050 L 0.197 7.029 L 0.197 6.763 L 0 6.691 z " style="color:#000000;solid-color:#000000;solid-opacity:1;fill:#dcc381;fill-rule:evenodd;stroke:none;stroke-width:0.635;stroke-linecap:round;stroke-linejoin:miter;marker:none;marker-start:none;marker-mid:none;marker-end:none" />
</svg>
