<?xml version="1.0" encoding="UTF-8" standalone="no"?>
<svg xmlns:dc="http://purl.org/dc/elements/1.1/" xmlns:cc="http://creativecommons.org/ns#" xmlns:rdf="http://www.w3.org/1999/02/22-rdf-syntax-ns#" xmlns:svg="http://www.w3.org/2000/svg" xmlns="http://www.w3.org/2000/svg" viewBox="0 0 36 36" version="1.1" id="svg8" width="100%" height="100%" >
<defs id="defs2" />
<path id="rect2892" d="M 0 0 L 0 36 L 36 36 L 36 0 L 0 0 z " style="fill:#ffffff;fill-opacity:0.994;stroke:none;stroke-width:0.600;stroke-linejoin:round" />
<path id="rect3757" d="M 0 0 L 0 36 L 36 36 L 36 0 L 0 0 z " style="fill:#526e79;stroke-width:1.855" />
<path id="use4789" d="M 1.056 0 L 1.056 36 L 11.822 36 L 11.822 0 L 1.056 0 z M 24.054 0 L 24.054 36 L 34.822 36 L 34.822 0 L 24.054 0 z " style="color:#000000;solid-color:#000000;solid-opacity:1;fill:#5a7580;fill-rule:evenodd;stroke:none;stroke-width:3.740;stroke-linecap:round;stroke-linejoin:miter;marker:none;marker-start:none;marker-mid:none;marker-end:none" />
<path id="rect4580" d="M 0 1.046 L 0 3.591 L 31.884 3.591 L 31.884 36 L 34.427 36 L 34.427 1.046 L 0 1.046 z " style="color:#000000;font-size:medium;font-family:sans-serif;text-indent:0;text-align:start;text-decoration:none;text-decoration-line:none;text-decoration-style:solid;text-decoration-color:#000000;text-transform:none;writing-mode:lr-tb;direction:ltr;text-orientation:mixed;baseline-shift:baseline;text-anchor:start;shape-padding:0;solid-color:#000000;solid-opacity:1;vector-effect:none;fill:#ffffff;fill-rule:nonzero;stroke:none;stroke-width:2.543;stroke-linecap:butt;stroke-linejoin:miter;marker:none" />
<path id="rect4136" d="M 0 2.320 L 0 36 L 33.154 36 L 33.154 2.320 L 0 2.320 z " style="fill:#a9c6cb;stroke-width:1.291;stroke-linecap:butt;marker:none" />
<path id="path4917" d="M 22.919 6.107 C 22.835 6.118 22.763 6.148 22.710 6.203 C 22.681 6.266 22.643 6.317 22.601 6.361 C 22.392 6.419 22.197 6.509 22.015 6.617 C 21.871 6.648 21.739 6.679 21.677 6.757 C 21.510 6.868 21.482 6.918 21.539 6.982 C 21.465 7.059 21.394 7.140 21.337 7.226 C 20.628 7.319 21.940 8.332 22.191 8.378 C 22.068 7.784 22.126 7.576 22.644 7.203 C 22.178 6.068 24.337 6.415 23.630 7.130 C 22.965 7.001 22.503 7.885 22.376 8.111 C 22.851 8.495 23.669 9.034 24.363 8.833 C 24.340 8.380 24.747 7.647 24.314 7.136 C 24.775 7.283 26.101 8.399 25.605 8.705 C 24.909 9.220 23.728 9.422 23.906 10.597 C 23.688 10.619 23.114 10.225 23.308 10.953 C 23.562 11.361 24.056 11.304 24.423 11.556 C 24.424 11.566 24.428 11.571 24.429 11.582 C 24.422 11.565 24.430 11.568 24.427 11.556 C 24.481 11.594 24.534 11.639 24.582 11.693 C 25.058 11.617 26.750 11.816 26.185 11.048 C 24.970 11.600 26.518 10.356 25.947 9.814 C 25.421 9.407 25.591 8.948 26.242 9.230 C 26.964 10.167 27.468 11.264 27.748 12.412 C 27.330 12.964 27.197 13.571 26.412 13.628 C 26.206 14.122 25.793 14.488 25.888 13.748 C 25.004 13.857 25.414 15.117 25.333 15.673 C 25.829 16.065 26.441 15.772 26.777 16.439 C 27.405 16.058 27.935 16.559 28.582 16.339 C 28.594 16.824 29.085 18.060 28.279 17.238 C 27.154 16.635 26.159 17.746 26.291 18.855 C 25.473 18.779 25.147 19.801 24.941 20.095 C 24.825 19.592 24.436 19.351 24.312 20.041 C 24.658 20.717 24.670 21.700 25.736 21.423 C 26.196 22.152 26.726 22.009 27.207 21.484 C 27.595 21.991 28.790 21.081 28.214 20.839 C 27.561 20.935 27.420 21.002 27.896 20.527 C 27.877 19.951 27.563 19.441 27.103 19.119 C 26.366 18.578 27.585 16.986 28.367 18.056 C 29.293 18.877 29.052 20.255 29.332 21.349 C 29.349 21.916 29.799 23.091 28.824 22.507 C 27.933 22.508 27.534 23.403 26.619 23.023 C 26.066 23.254 25.667 23.530 25.109 23.605 C 25.072 24.145 24.851 24.364 24.890 23.675 C 23.944 23.550 25.038 24.680 24.619 25.087 C 24.642 25.176 24.679 25.256 24.724 25.328 C 24.725 25.337 24.720 25.333 24.722 25.345 C 24.730 25.346 24.730 25.342 24.736 25.343 C 24.804 25.446 24.890 25.529 24.986 25.593 C 24.985 25.611 24.988 25.637 25.005 25.681 C 25.070 25.689 25.097 25.678 25.105 25.660 C 25.409 25.801 25.753 25.749 25.845 25.429 C 25.157 25.576 24.869 25.019 24.980 24.572 C 24.511 24.214 24.720 23.909 25.023 24.435 C 25.537 24.825 25.104 23.220 25.515 23.796 C 25.505 24.321 26.010 24.779 25.240 24.773 C 25.488 25.127 26.034 25.444 26.322 25.630 C 26.740 25.909 27.476 25.628 26.740 26.134 C 26.416 26.713 26.023 25.423 25.636 25.892 C 25.628 26.137 25.709 26.286 25.835 26.380 C 25.844 26.387 25.855 26.399 25.861 26.394 C 25.919 26.432 25.985 26.462 26.058 26.478 C 26.069 26.498 26.081 26.516 26.105 26.546 C 26.319 26.581 26.349 26.549 26.310 26.505 C 26.616 26.505 26.950 26.415 27.132 26.365 C 27.157 26.378 27.182 26.380 27.207 26.392 C 27.209 26.441 27.258 26.487 27.390 26.519 C 27.292 26.436 27.687 26.594 27.648 26.513 C 27.916 26.455 28.023 26.417 28.035 26.380 C 28.394 26.180 28.469 25.778 27.746 25.765 C 28.825 25.228 28.027 23.950 28.279 23.273 C 28.423 23.195 28.559 23.151 28.683 23.134 C 28.683 23.134 28.685 23.132 28.685 23.132 C 28.690 23.132 28.695 23.132 28.701 23.132 C 29.573 23.034 29.986 24.306 29.839 25.121 C 29.834 26.148 30.383 27.299 29.777 28.246 C 29.365 28.309 30.057 27.390 29.376 27.757 C 29.045 28.252 29.581 28.737 28.736 28.519 C 28.219 28.821 27.982 29.369 27.349 28.888 C 26.273 28.540 25.760 30.091 25.490 30.322 C 25.691 29.796 24.941 29.632 24.970 30.462 C 25.520 30.867 24.644 31.689 25.400 32.072 C 25.405 32.088 25.405 32.089 25.410 32.107 C 25.445 32.141 25.489 32.148 25.537 32.142 C 25.540 32.143 25.541 32.143 25.544 32.144 C 25.546 32.143 25.550 32.143 25.552 32.142 C 25.716 32.112 25.931 31.920 26.101 31.896 C 26.096 31.895 26.091 31.890 26.085 31.888 C 26.250 31.836 26.381 31.844 26.443 31.976 C 26.438 31.997 26.434 32.012 26.429 32.046 C 26.499 32.114 26.526 32.103 26.537 32.070 C 26.957 32.224 27.085 31.669 27.431 32.035 C 27.608 32.330 29.016 31.846 28.015 32.410 C 27.547 32.520 27.506 32.617 27.296 32.158 C 26.748 32.093 26.983 33.012 26.667 32.318 C 26.630 32.480 26.563 32.516 26.488 32.492 C 26.515 32.412 26.464 32.418 26.421 32.451 C 26.177 32.279 25.887 31.680 26.068 32.384 C 26.555 33.179 27.392 32.614 28.011 32.591 C 28.766 32.819 28.791 31.445 27.966 32.003 C 28.665 31.557 29.182 30.480 28.628 29.638 C 28.057 28.894 30.018 29.062 29.964 29.910 C 30.146 31.458 30.266 33.065 30.447 34.613 L 30.472 34.613 C 30.473 34.611 30.474 34.609 30.476 34.605 C 30.476 34.606 30.476 34.611 30.476 34.613 L 31.111 34.613 C 30.977 33.030 30.763 31.452 30.75 29.859 C 30.719 29.053 31.885 30.183 32.320 30.285 C 32.988 30.510 33.133 29.543 32.441 29.658 C 33.059 29.337 32.081 29.267 32.673 28.787 C 33.158 27.658 32.108 27.034 32.195 25.972 C 31.920 25.013 30.673 25.877 30.511 25.796 C 30.400 25.151 30.602 24.525 30.511 23.910 C 30.751 23.470 30.715 22.422 30.166 23.005 C 30.218 22.014 29.699 20.882 30.013 19.990 C 30.066 19.533 30.113 18.570 29.882 18.369 C 29.551 19.545 29.475 17.520 29.361 17.144 C 28.754 16.193 30.257 16.080 30.027 15.287 C 29.770 15.597 29.223 15.846 29.621 15.171 C 29.998 14.337 30.049 13.026 29.117 12.535 C 27.890 12.743 28.205 11.335 27.767 10.564 C 27.931 9.973 29.017 10.511 28.406 9.855 C 28.331 9.836 28.262 9.801 28.189 9.777 C 28.202 9.753 28.153 9.736 28.035 9.724 C 27.357 9.472 26.750 9.018 26.378 8.337 C 26.074 7.271 25.202 6.780 24.232 6.544 C 24.100 6.460 23.957 6.402 23.810 6.357 C 23.562 6.219 23.186 6.071 22.919 6.107 z M 23.128 6.267 L 23.130 6.267 C 23.159 6.266 23.191 6.278 23.222 6.281 C 23.172 6.281 23.122 6.276 23.072 6.279 C 23.091 6.277 23.108 6.268 23.128 6.267 z M 26.095 26.558 L 26.115 26.570 C 26.111 26.566 26.111 26.564 26.107 26.560 C 26.102 26.559 26.101 26.558 26.095 26.558 z M 28.890 28.697 C 29.364 28.640 29.842 29.102 30.179 29.333 L 30.158 29.972 C 30.053 29.587 29.846 29.252 29.414 29.033 C 28.966 28.538 27.766 29.841 28.404 28.986 C 28.560 28.803 28.724 28.718 28.890 28.697 z M 30.134 28.878 C 30.148 28.872 30.174 28.882 30.193 28.882 L 30.179 29.304 C 30.059 29.148 30.032 29.001 30.080 28.923 C 30.119 28.916 30.135 28.899 30.134 28.878 z " style="fill:#82a2a8;stroke-width:0.644" />
<path id="path4572" d="M 10.199 3.816 C 9.632 3.752 9.308 4.620 9.744 5.337 C 9.827 5.827 10.059 7.203 9.531 6.021 C 8.949 5.350 8.111 4.253 7.246 4.751 C 6.974 5.506 7.373 6.292 7.554 6.990 C 7.088 6.157 5.023 5.182 5.113 6.693 C 4.965 7.365 6.502 8.650 5.056 8.037 C 3.997 7.520 1.903 8.721 3.408 9.638 C 3.957 9.844 6.178 10.600 4.382 10.464 C 3.297 10.419 1.800 11.652 3.228 12.279 C 4.248 12.440 2.550 12.809 2.925 13.429 C 3.002 14.753 4.740 14.086 5.650 14.312 C 4.753 14.790 3.260 15.766 3.699 17.070 C 4.144 17.244 4.486 17.107 4.085 17.759 C 3.879 19.005 5.356 19.007 6.093 18.316 C 6.810 18.123 8.012 17.236 8.400 17.320 C 7.580 18.211 7.277 19.440 6.902 20.570 C 6.902 21.267 7.791 20.840 7.765 21.582 C 7.848 21.560 7.922 21.521 8 21.488 C 8.046 21.529 8.096 21.551 8.148 21.570 C 7.898 21.785 8.558 21.955 8.914 21.492 C 8.952 22.325 9.062 23.719 8.689 24.507 C 8.979 25.779 8.101 23.455 8.275 24.707 C 8.966 25.772 8.771 27.012 8.720 28.220 C 8.720 29.363 8.650 30.519 8.765 31.656 C 9.204 31.508 9.152 31.868 9.437 32.320 L 9.505 32.312 C 9.386 30.601 9.386 28.871 9.425 27.146 C 9.206 26.294 9.514 25.822 10.367 26.300 C 10.987 25.835 9.146 25.888 10.296 25.642 C 10.877 25.255 9.523 25.378 10.400 24.958 C 11.155 23.912 11.703 22.596 11.574 21.285 C 11.045 21.285 11.408 22.821 10.736 23.248 C 10.258 23.648 9.187 25.482 9.523 23.841 C 9.684 22.808 9.420 21.562 9.896 20.664 C 10.658 19.747 11.291 18.689 11.769 17.623 C 11.846 18.985 11.589 20.528 12.117 21.878 C 12.678 22.452 13.983 22.685 13.945 21.382 C 14.112 20.969 14.179 19.296 14.398 20.666 C 14.423 21.647 15.185 23.185 16.173 22.074 C 16.328 21.112 16.740 22.512 17.380 22.042 C 18.736 21.913 17.645 19.975 17.890 19.736 C 18.393 20.453 19.795 21.103 20.222 20.128 C 19.919 19.508 21.253 19.162 20.511 18.322 C 19.749 17.379 21.409 18.579 21.642 17.580 C 22.004 16.414 20.628 15.704 19.730 15.246 C 19.110 15.091 18.174 14.600 19.388 14.787 C 20.390 14.852 21.611 14.650 21.837 13.623 C 21.437 13.023 22.074 12.410 21.332 11.777 C 20.505 11.370 19.175 11.745 18.601 11.609 C 19.492 11.099 20.868 9.601 19.886 8.755 C 19.052 9.181 19.956 7.471 19.013 7.445 C 18.083 6.890 16.967 8.153 16.257 8.767 C 15.927 9.005 14.636 11.001 15.269 9.632 C 15.863 8.476 15.901 7.126 15.843 5.855 C 15.384 4.996 14.610 5.023 14.087 4.144 C 12.925 3.705 13.149 6.901 12.613 5.107 C 12.355 4.357 11.283 3.556 10.830 4.234 C 10.606 3.965 10.391 3.840 10.201 3.818 L 10.199 3.816 z M 9.535 32.318 L 9.509 32.320 L 9.509 32.322 C 9.510 32.335 9.511 32.349 9.511 32.363 L 9.535 32.318 z " style="fill:#597a80;stroke-width:0.644" />
<path id="path4" d="M 10.203 3.816 C 9.635 3.751 9.310 4.620 9.746 5.337 C 9.829 5.827 10.062 7.203 9.533 6.021 C 8.952 5.350 8.113 4.253 7.248 4.75 C 6.977 5.505 7.377 6.292 7.558 6.990 C 7.093 6.157 5.026 5.182 5.117 6.693 C 4.969 7.364 6.504 8.651 5.058 8.037 C 3.999 7.521 1.907 8.721 3.412 9.638 C 3.961 9.844 6.182 10.600 4.386 10.464 C 3.301 10.419 1.803 11.652 3.230 12.279 C 4.250 12.440 2.552 12.807 2.927 13.427 C 3.004 14.751 4.742 14.086 5.652 14.312 C 4.755 14.790 3.263 15.765 3.703 17.070 C 4.148 17.244 4.490 17.108 4.089 17.761 C 3.883 19.007 5.361 19.007 6.097 18.316 C 6.814 18.123 8.016 17.238 8.404 17.322 C 7.584 18.213 7.281 19.439 6.906 20.570 C 6.906 21.267 7.797 20.842 7.771 21.585 C 8.966 21.263 9.410 19.892 10.140 19.117 C 10.701 18.762 11.316 17.367 11.652 17.406 C 10.813 18.859 9.985 20.474 8.525 21.410 C 7.524 21.661 8.474 22.076 8.919 21.494 C 8.957 22.327 9.067 23.721 8.693 24.509 C 8.983 25.781 8.107 23.458 8.281 24.710 C 8.972 25.775 8.778 27.015 8.726 28.222 C 8.726 29.365 8.655 30.521 8.771 31.658 C 9.210 31.510 9.157 31.872 9.441 32.324 L 9.509 32.316 C 9.391 30.607 9.391 28.880 9.429 27.158 C 9.210 26.306 9.518 25.834 10.371 26.312 C 10.991 25.847 9.151 25.899 10.300 25.654 C 10.881 25.267 9.526 25.390 10.404 24.970 C 11.159 23.924 11.707 22.605 11.578 21.294 C 11.049 21.294 11.412 22.831 10.740 23.257 C 10.262 23.657 9.189 25.491 9.525 23.851 C 9.686 22.818 9.423 21.571 9.900 20.673 C 10.662 19.756 11.295 18.698 11.773 17.632 C 11.850 18.994 11.593 20.538 12.121 21.888 C 12.682 22.462 13.987 22.694 13.949 21.390 C 14.116 20.977 14.180 19.304 14.400 20.673 C 14.425 21.654 15.189 23.193 16.177 22.082 C 16.332 21.120 16.745 22.521 17.384 22.050 C 18.740 21.921 17.648 19.983 17.894 19.744 C 18.397 20.461 19.798 21.113 20.224 20.138 C 19.921 19.518 21.258 19.170 20.515 18.330 C 19.753 17.387 21.411 18.587 21.644 17.587 C 22.004 16.415 20.628 15.705 19.730 15.246 C 19.110 15.091 18.174 14.599 19.388 14.787 C 20.389 14.851 21.611 14.652 21.837 13.625 C 21.437 13.024 22.075 12.410 21.332 11.777 C 20.505 11.370 19.176 11.745 18.601 11.609 C 19.492 11.099 20.868 9.601 19.886 8.755 C 19.053 9.182 19.956 7.469 19.013 7.443 C 18.083 6.887 16.966 8.153 16.255 8.767 C 15.926 9.006 14.634 11.003 15.267 9.634 C 15.861 8.477 15.901 7.126 15.843 5.855 C 15.384 4.996 14.608 5.023 14.085 4.144 C 12.923 3.705 13.149 6.901 12.613 5.105 C 12.355 4.356 11.284 3.556 10.832 4.234 C 10.607 3.964 10.392 3.838 10.203 3.816 z M 9.509 32.316 C 9.510 32.331 9.510 32.347 9.511 32.363 L 9.537 32.312 L 9.509 32.316 z M 10.244 4.103 C 10.283 4.090 10.360 4.152 10.507 4.357 C 11.359 5.216 11.081 6.688 11.437 7.806 C 11.566 8.826 12.057 9.839 12.082 10.828 C 11.979 10.905 11.662 11.008 11.675 10.777 L 11.683 10.763 C 11.211 9.639 10.487 8.580 10.306 7.333 C 10.093 6.403 9.989 5.113 9.880 4.357 C 10.326 4.850 10.124 4.142 10.244 4.103 z M 11.458 4.294 C 11.512 4.312 11.607 4.437 11.753 4.724 C 12.037 4.982 12.676 7.191 12.482 5.867 C 12.231 4.750 13.147 6.860 12.527 7.183 C 12.252 7.625 12.407 9.080 12.009 9.103 C 11.752 7.833 11.540 6.544 11.289 5.267 C 10.941 4.673 11.153 4.092 11.365 5.054 C 11.397 5.583 12.120 6.546 11.707 5.460 C 11.494 5.146 11.297 4.242 11.458 4.294 z M 13.779 4.525 C 13.586 5.623 13.134 6.894 13.269 7.921 C 13.695 6.927 13.695 5.654 13.921 4.550 C 14.812 4.646 14.697 6.256 14.509 7.076 C 14.238 8.354 13.902 9.821 12.824 10.673 C 12.830 10.840 12.676 10.937 12.560 10.789 L 12.560 10.810 C 12.296 9.674 12.611 8.458 12.876 7.308 C 13.069 6.411 13.126 5.068 13.779 4.525 z M 12.025 4.716 C 12.094 4.677 12.511 5.283 12.115 5.027 C 12.018 4.814 12.002 4.730 12.025 4.716 z M 7.523 4.900 C 7.820 4.778 8.427 5.952 8.298 5.164 C 9.234 5.977 10.015 7.068 10.228 8.328 C 10.518 9.018 11.427 11.101 10.669 11.099 C 9.965 10.104 8.904 9.213 8.349 8.044 C 7.980 7.314 7.276 6.009 7.490 5.441 C 8.019 6.235 8.310 7.747 9.066 8.076 C 8.588 7.017 7.962 5.940 7.523 4.900 z M 14.273 5.197 C 14.238 5.246 14.211 5.426 14.212 5.804 C 14.263 5.894 14.026 6.811 14.335 6.533 C 14.568 6.087 14.379 5.050 14.273 5.197 z M 10.453 5.320 C 10.321 5.273 10.226 5.413 10.455 5.830 C 10.455 5.933 10.591 6.016 10.669 5.925 C 10.753 5.599 10.584 5.367 10.453 5.320 z M 15.187 5.441 C 15.387 6.713 14.969 7.979 14.607 9.193 C 15.181 9.155 15.349 7.288 15.427 6.539 C 15.318 5.519 15.723 6.016 15.587 6.726 C 15.529 8.269 15.200 10.040 13.837 10.964 C 13.959 11.093 14.056 11.815 13.792 11.357 L 13.794 11.363 C 12.884 10.595 14.516 9.388 14.503 8.322 C 15.077 7.522 14.491 5.796 15.187 5.441 z M 8.492 5.888 C 8.918 6.372 9.175 7.462 9.679 7.708 C 9.537 7.139 8.989 5.946 8.492 5.888 z M 6.056 6.177 C 7.167 6.732 7.949 7.734 8.505 8.832 C 8.827 9.729 10.242 10.453 10.035 11.357 L 9.808 11.292 L 9.802 11.312 C 7.864 10.595 6.418 8.980 5.488 7.191 C 5.275 6.448 6.263 8.037 5.876 7.062 C 5.411 6.648 5.352 5.701 5.947 6.546 C 6.431 6.908 7.239 8.121 7.671 7.837 C 7.213 7.301 6.191 6.700 6.056 6.177 z M 10.585 6.564 C 10.753 7.204 10.784 8.458 11.281 8.781 C 11.087 8.219 11.088 6.571 10.585 6.564 z M 14.050 7.337 C 14.007 7.342 13.935 7.460 13.830 7.755 C 13.862 7.858 13.301 8.871 13.779 8.587 C 14.050 8.326 14.180 7.324 14.050 7.337 z M 18.644 7.529 C 18.656 7.645 17.385 8.665 18.380 8.142 C 19.510 7.077 19.001 8.904 18.343 9.181 C 18.439 9.956 19.854 7.302 19.189 8.833 C 18.485 10.163 17.231 11.062 15.933 11.753 C 15.604 11.895 15.050 12.340 14.759 12.140 L 14.736 12.140 C 14.478 11.966 14.220 12.212 14.414 11.683 C 13.601 11.535 15.261 11.283 15.138 10.656 C 16.042 9.384 17.107 8.039 18.644 7.529 z M 6.132 7.667 C 6.022 7.653 6.037 7.781 6.367 8.142 C 6.502 8.271 6.598 8.594 6.837 8.490 C 6.846 8.110 6.316 7.692 6.132 7.667 z M 4.503 8.294 C 5.196 8.284 6.020 8.480 6.302 9.052 C 7.219 10.272 8.504 11.169 9.945 11.673 C 10.270 11.692 9.959 12.042 9.816 11.869 C 9.816 11.869 9.814 11.869 9.814 11.869 C 8.090 11.526 6.353 11.020 4.925 9.949 C 4.531 9.717 2.568 9.226 4.048 9.316 C 4.448 9.458 6.068 9.542 4.906 9.187 C 4.506 8.987 2.342 9.290 3.492 8.722 C 4.189 8.831 4.332 8.380 3.544 8.496 C 3.721 8.379 4.088 8.300 4.503 8.294 z M 17.826 8.386 C 16.870 8.889 16.102 9.988 15.359 10.835 C 15.359 10.983 15.598 10.943 15.630 10.828 L 15.630 10.822 C 16.275 9.963 17.335 9.245 17.826 8.386 z M 4.808 8.498 C 4.635 8.453 4.241 8.859 4.861 8.728 C 4.898 8.576 4.866 8.512 4.808 8.498 z M 7.296 8.916 C 7.235 8.915 7.184 8.933 7.148 8.974 C 7.691 9.348 8.297 10.104 8.917 10.175 C 8.686 9.853 7.727 8.922 7.296 8.916 z M 19.712 9.166 C 20.174 9.097 18.928 10.175 18.775 10.486 C 18.336 11.029 17.251 11.286 17.044 11.816 C 18.078 11.448 18.930 10.711 19.634 9.898 C 20.429 9.355 18.916 11.236 18.445 11.384 C 17.437 12.004 16.256 12.694 15.087 12.855 L 15.080 12.863 C 15.313 11.978 16.934 11.830 17.593 11.029 C 18.349 10.777 19.098 9.090 19.402 9.271 C 19.546 9.209 19.646 9.175 19.712 9.166 z M 18.115 9.478 C 17.728 10.111 16.365 10.687 16.365 11.203 L 16.605 11.093 C 17.064 10.660 18.354 10.007 18.115 9.478 z M 14.445 9.490 C 14.360 9.492 14.229 9.610 14.103 9.917 C 13.955 10.000 14.122 10.214 14.232 10.091 C 14.595 9.801 14.585 9.485 14.445 9.490 z M 6.152 9.742 C 6.041 9.726 5.995 9.773 6.068 9.923 C 6.553 10.124 7.108 10.654 7.599 10.648 C 7.415 10.420 6.484 9.790 6.152 9.742 z M 14.898 10.388 C 14.937 10.396 14.889 10.523 14.671 10.847 C 14.677 10.969 14.426 11.151 14.355 10.990 C 14.524 10.695 14.833 10.375 14.898 10.388 z M 11.302 10.662 C 11.387 10.678 11.395 11.087 11.197 10.816 C 11.237 10.695 11.274 10.656 11.302 10.662 z M 5.369 10.75 C 5.622 10.774 5.830 10.831 5.906 10.933 C 7.042 11.630 8.399 11.836 9.646 12.230 C 9.026 13.178 7.315 12.849 6.242 12.765 L 6.244 12.759 C 5.417 12.398 3.640 12.489 3.355 11.953 C 3.846 11.688 2.200 11.693 3.201 11.273 C 3.556 11.054 5.473 11.267 4.175 10.951 C 3.434 10.879 4.607 10.675 5.369 10.75 z M 13.060 10.843 C 13.125 10.865 13.134 11.123 12.980 10.925 C 13.010 10.854 13.038 10.836 13.060 10.843 z M 11.580 10.974 C 11.676 10.932 11.933 11.278 11.566 11.177 C 11.534 11.046 11.547 10.988 11.580 10.974 z M 12.003 11.136 C 12.072 11.166 12.025 11.529 11.894 11.253 C 11.944 11.153 11.980 11.126 12.003 11.136 z M 12.835 11.199 C 13.338 11.085 13.228 11.897 13.097 12.275 C 13.536 11.978 13.600 12.527 13.097 12.482 C 13.180 12.571 13.103 12.977 12.962 12.712 L 12.962 12.720 C 12.517 12.114 13.464 11.372 12.580 11.308 C 12.678 11.250 12.764 11.215 12.835 11.199 z M 10.421 11.224 C 10.598 11.270 10.915 11.555 10.455 11.519 C 10.261 11.255 10.316 11.196 10.421 11.224 z M 13.468 11.298 C 13.544 11.280 13.656 11.677 13.419 11.494 C 13.422 11.358 13.443 11.305 13.468 11.298 z M 11.152 11.375 C 11.390 11.345 11.792 11.776 11.017 11.597 C 11.011 11.445 11.072 11.384 11.152 11.375 z M 11.802 11.441 C 11.991 11.383 12.006 11.843 11.566 11.712 C 11.656 11.536 11.739 11.460 11.802 11.441 z M 15.755 11.482 C 15.577 11.454 15.089 11.612 15.214 11.849 C 15.330 11.855 15.441 11.791 15.544 11.753 C 15.859 11.582 15.862 11.498 15.755 11.482 z M 12.677 11.646 C 12.748 11.674 12.734 12.018 12.580 11.757 C 12.620 11.662 12.654 11.637 12.677 11.646 z M 4.292 11.712 C 4.025 11.659 3.610 12.046 4.390 11.978 L 4.460 11.945 C 4.454 11.796 4.382 11.730 4.292 11.712 z M 12.261 11.730 C 12.442 11.746 12.554 11.900 12.476 12.275 C 11.863 12.120 11.656 13.133 12.347 12.455 C 13.109 12.372 12.193 13.177 12.683 13.623 C 12.612 13.635 12.509 13.648 12.464 13.578 L 12.449 13.574 C 12.224 13.141 12.510 12.289 11.812 12.947 C 11.644 12.560 11.779 12.333 11.333 12.423 C 11.467 12.060 11.960 11.703 12.261 11.730 z M 13.660 11.767 C 13.757 11.726 14.091 12.017 13.679 11.945 C 13.623 11.832 13.627 11.781 13.660 11.767 z M 10.966 11.802 C 11.155 11.748 11.478 12.144 10.863 12.042 C 10.857 11.889 10.903 11.820 10.966 11.802 z M 13.371 11.830 C 13.418 11.856 13.357 12.142 13.285 11.919 C 13.328 11.842 13.355 11.821 13.371 11.830 z M 20.275 11.867 C 20.848 11.915 21.325 12.146 20.259 12.126 C 18.955 12.268 17.695 12.642 16.468 13.113 C 17.172 13.423 18.767 12.358 19.839 12.410 C 20.413 12.178 22.339 12.399 20.886 12.720 C 20.505 13.372 18.639 13.442 18.865 14.017 C 19.711 13.811 20.575 13.056 21.292 12.914 C 20.511 13.747 19.343 14.302 18.232 14.619 C 17.968 14.651 17.702 14.625 17.437 14.587 C 16.856 14.477 18.924 14.180 17.761 14.173 C 17.076 14.483 15.113 14.586 15.080 14.005 C 15.610 13.630 14.363 13.398 15.287 13.501 C 16.669 12.765 18.077 11.829 19.724 11.894 C 19.882 11.854 20.084 11.850 20.275 11.867 z M 10.492 11.910 C 10.562 11.930 10.584 12.178 10.410 11.990 C 10.439 11.920 10.468 11.903 10.492 11.910 z M 4.886 11.933 C 5.332 12.301 6.618 12.469 7.283 12.398 C 6.980 12.017 5.565 11.978 4.886 11.933 z M 12.429 11.955 C 12.385 11.873 11.144 12.240 11.953 12.216 C 12.324 12.058 12.444 11.982 12.429 11.955 z M 10.091 12.128 C 10.263 12.172 10.376 12.511 9.847 12.507 C 9.864 12.183 9.989 12.102 10.091 12.128 z M 13.720 12.199 C 13.806 12.189 13.887 12.506 13.646 12.347 C 13.664 12.242 13.692 12.202 13.720 12.199 z M 14.683 12.367 C 14.772 12.351 14.925 12.606 14.634 12.496 C 14.631 12.407 14.653 12.372 14.683 12.367 z M 10.693 12.425 C 10.846 12.450 11.025 12.712 10.585 12.740 C 10.520 12.481 10.601 12.411 10.693 12.425 z M 13.851 12.468 C 13.982 12.410 14.451 12.881 13.884 12.746 C 13.802 12.567 13.808 12.488 13.851 12.468 z M 13.371 12.628 C 13.416 12.653 13.427 12.883 13.316 12.695 C 13.335 12.634 13.355 12.620 13.371 12.628 z M 4.437 12.652 C 5.189 12.726 6.018 13.188 6.761 13.160 C 7.807 13.315 8.925 12.980 9.875 12.947 C 9.151 14.128 7.568 13.980 6.367 14.103 C 6.063 14.109 5.753 14.077 5.449 14.058 L 5.443 14.044 C 5.030 13.857 3.427 14.284 3.634 13.890 C 4.099 13.922 5.417 13.393 4.242 13.484 C 3.739 13.800 2.581 13.747 3.667 13.244 C 4.635 12.779 3.436 13.109 3.203 13.128 C 3.563 12.702 3.986 12.607 4.437 12.652 z M 10.083 12.849 C 10.211 12.805 10.649 13.184 10.107 13.068 C 10.033 12.924 10.041 12.864 10.083 12.849 z M 12.917 12.875 C 12.943 12.869 13.019 12.908 13.185 13.017 C 13.604 13.036 13.425 13.856 12.935 13.482 C 13.211 13.318 12.840 12.892 12.917 12.875 z M 11.210 12.960 C 11.351 12.991 11.553 13.248 11.166 13.251 C 11.064 13.005 11.126 12.942 11.210 12.960 z M 11.599 13.128 C 11.670 13.122 11.759 13.418 11.546 13.263 C 11.554 13.166 11.575 13.130 11.599 13.128 z M 11.871 13.185 C 11.988 13.137 12.518 13.898 11.947 13.574 C 11.839 13.307 11.831 13.201 11.871 13.185 z M 9.857 13.375 C 9.946 13.361 10.088 13.677 9.802 13.527 C 9.802 13.420 9.827 13.379 9.857 13.375 z M 6.367 13.474 C 5.894 13.452 5.410 13.506 5.230 13.638 C 5.920 13.676 6.707 13.869 7.429 13.759 C 7.295 13.592 6.837 13.496 6.367 13.474 z M 21.361 13.5 C 21.455 13.508 21.461 13.606 21.326 13.845 C 20.732 13.941 20.131 14.324 21.146 14.123 C 21.397 14.284 19.861 14.601 19.654 14.439 C 20.012 14.251 21.079 13.473 21.361 13.5 z M 11.546 13.589 C 11.660 13.545 11.790 13.992 11.457 13.837 C 11.473 13.673 11.509 13.604 11.546 13.589 z M 13.863 13.75 C 13.937 13.790 13.910 14.102 13.755 13.832 C 13.802 13.753 13.838 13.736 13.863 13.75 z M 12.773 13.773 C 12.882 13.748 13.088 14.185 12.720 13.992 C 12.711 13.840 12.736 13.781 12.773 13.773 z M 12.300 13.849 C 12.404 13.843 12.549 14.205 12.230 14.011 C 12.236 13.893 12.266 13.851 12.300 13.849 z M 9.535 14.003 C 10.041 13.985 10.630 14.073 10.150 14.421 C 10.867 15.002 9.504 16.189 8.845 16.642 C 7.644 17.410 6.263 17.850 5.042 18.593 L 4.990 18.580 L 4.984 18.572 C 5.339 17.707 6.817 17.565 7.515 16.919 C 6.663 17.015 5.416 17.610 4.738 18.353 C 4.028 18.604 4.596 16.669 5.228 16.378 C 6.306 15.319 7.656 14.504 9.097 14.052 C 9.205 14.028 9.366 14.010 9.535 14.003 z M 12.390 14.189 C 12.481 14.178 12.582 14.492 12.316 14.337 C 12.330 14.233 12.360 14.193 12.390 14.189 z M 7.638 14.232 C 8.413 14.232 6.683 14.709 6.548 14.941 C 5.521 15.367 4.947 16.582 4.029 16.996 L 4.021 17.003 C 3.615 15.976 4.758 15.000 5.695 14.632 C 6.218 14.735 4.113 15.440 4.384 16.060 C 5.378 15.272 6.249 14.148 7.638 14.232 z M 14.435 14.312 C 14.565 14.289 14.758 14.652 14.351 14.498 C 14.356 14.370 14.392 14.320 14.435 14.312 z M 14.732 14.417 C 14.859 14.397 15.179 14.807 14.705 14.619 C 14.668 14.478 14.689 14.424 14.732 14.417 z M 15.191 14.683 C 16.786 14.741 18.459 14.825 19.867 15.671 C 20.357 15.800 21.952 17.073 20.867 16.783 C 21.286 17.112 21.545 17.661 20.925 17.480 C 21.021 17.686 21.177 17.983 20.771 17.757 L 20.771 17.771 C 20.132 17.707 18.729 16.570 18.910 16.402 C 19.465 16.518 20.511 17.602 20.828 17.208 C 20.008 16.517 18.955 16.317 18.154 16.013 C 17.315 15.316 15.927 15.213 15.191 14.683 z M 8.275 14.732 C 8.187 14.747 8.062 14.811 7.904 14.949 C 7.394 15.052 7.478 15.587 7.968 15.187 C 8.472 15.071 8.539 14.686 8.275 14.732 z M 10.595 14.826 C 10.688 14.773 10.882 15.095 10.558 15.033 C 10.544 14.904 10.564 14.843 10.595 14.826 z M 14.828 15.101 C 15.345 15.085 16.311 15.614 16.849 15.671 C 18.295 16.297 19.736 17.292 20.408 18.771 C 19.853 18.371 19.150 17.080 18.226 16.693 C 17.703 16.538 16.565 15.452 16.339 15.937 C 17.708 16.725 19.324 17.417 20.041 18.935 C 20.590 19.639 19.402 18.871 19.906 19.619 L 19.802 19.619 L 19.642 19.535 L 19.628 19.523 C 18.711 18.741 17.574 18.282 16.650 17.539 C 15.804 16.913 15.189 15.730 14.156 15.484 C 13.788 15.904 13.988 14.659 14.492 15.337 C 14.532 15.173 14.655 15.107 14.828 15.101 z M 9.697 15.187 C 9.612 15.219 9.477 15.320 9.285 15.525 C 9.066 15.570 8.885 16.151 9.273 15.873 C 9.752 15.626 9.951 15.092 9.697 15.187 z M 17.580 15.197 C 17.431 15.196 17.342 15.239 17.367 15.337 C 17.961 15.433 18.568 15.905 19.123 15.898 C 19.016 15.573 18.027 15.198 17.580 15.197 z M 10.839 15.365 C 11.116 15.642 11.510 15.958 11.814 15.609 C 11.814 16.713 10.929 17.701 10.224 18.535 C 9.688 19.096 8.481 20.543 8.062 20.369 C 8.266 19.697 7.413 21.012 7.185 20.771 C 7.412 19.689 7.882 18.539 8.558 17.605 C 9.178 16.759 10.038 15.927 10.839 15.365 z M 12.228 15.505 C 12.353 15.486 12.599 15.970 12.173 15.738 C 12.159 15.575 12.186 15.512 12.228 15.505 z M 12.955 15.539 C 13.059 15.508 13.266 15.851 12.908 15.726 C 12.895 15.602 12.920 15.549 12.955 15.539 z M 6.591 15.544 C 6.178 15.899 4.345 17.340 4.984 17.605 C 5.151 16.792 6.823 16.061 6.591 15.544 z M 13.910 15.908 C 14.413 15.972 15.170 17.062 15.326 17.564 C 15.978 18.862 16.403 20.438 16.009 21.878 C 15.777 21.375 15.997 20.070 15.628 19.314 C 15.596 18.869 14.783 17.034 15.068 18.423 C 15.481 19.618 15.861 20.921 15.603 22.181 L 15.527 22.214 L 15.449 22.181 L 15.435 22.167 C 15.518 21.754 15.008 20.741 15.183 21.710 C 15.195 22.659 14.738 20.729 14.660 20.451 C 14.118 19.218 14.112 17.809 13.460 16.607 C 13.505 16.060 13.681 15.879 13.910 15.908 z M 12.498 15.978 C 12.797 16.043 13.466 16.842 13.427 17.191 C 13.905 18.573 14.195 20.130 13.601 21.531 C 13.337 22.487 13.498 21.639 13.195 21.626 C 13.105 21.735 13.123 22.266 12.865 21.982 L 12.865 21.996 C 12.194 21.564 12.078 20.776 12.091 19.755 C 11.956 18.560 12.232 17.333 12.361 16.203 C 12.338 16.017 12.398 15.957 12.498 15.978 z M 20.039 16.212 C 19.932 16.228 19.960 16.330 20.306 16.550 C 20.428 16.575 20.654 16.841 20.796 16.699 C 20.760 16.400 20.215 16.186 20.039 16.212 z M 14.064 16.255 C 13.981 16.265 13.992 16.413 14.242 16.777 C 14.267 16.880 14.454 17.274 14.589 17.035 C 14.601 16.611 14.202 16.239 14.064 16.255 z M 14.992 16.294 C 16.122 17.398 17.213 18.638 17.626 20.208 C 18.013 20.744 17.543 22.463 17.517 20.964 C 17.337 19.970 16.957 18.800 16.220 18.134 C 16.562 19.109 17.259 20.039 17.285 21.150 C 17.253 21.246 17.465 21.919 17.130 21.732 L 17.123 21.738 C 16.574 20.750 16.334 19.684 16.095 18.593 C 16.050 17.838 14.843 16.501 14.992 16.294 z M 11.890 16.503 C 11.956 16.470 12.118 16.706 11.876 16.648 C 11.859 16.556 11.868 16.515 11.890 16.503 z M 13.001 16.539 C 12.685 17.165 13.479 18.677 13.343 19.646 C 13.485 20.072 12.981 21.337 13.419 21.427 L 13.427 21.427 C 13.808 19.806 13.485 18.108 13.001 16.539 z M 9.822 16.783 C 9.009 17.480 8.576 18.553 7.859 19.367 C 7.789 19.391 7.526 19.875 7.841 19.740 C 8.475 18.810 9.595 17.699 9.822 16.783 z M 7.841 19.740 C 7.841 19.740 7.839 19.742 7.839 19.742 L 7.847 19.740 C 7.844 19.741 7.844 19.738 7.841 19.740 z M 16.703 17.050 C 16.370 17.062 17.773 17.929 18.039 18.076 C 18.568 18.295 19.001 19.000 19.556 19.007 C 18.911 18.265 17.851 17.669 16.960 17.101 C 16.834 17.063 16.750 17.049 16.703 17.050 z M 10.394 17.535 C 9.794 18.394 8.979 19.124 8.320 19.912 C 8.345 19.976 8.442 20.035 8.507 19.964 C 9.133 19.312 10.484 18.290 10.394 17.535 z M 12.505 18.187 C 12.614 18.755 12.157 20.214 12.75 20.382 C 12.589 19.808 13.072 18.090 12.505 18.187 z M 17.144 18.277 C 17.320 18.190 18.433 19.049 18.728 19.205 C 18.954 19.301 20.510 20.568 19.380 20.207 L 19.388 20.212 C 18.768 20.308 17.741 19.476 17.347 18.740 C 17.132 18.439 17.086 18.306 17.144 18.277 z M 14.304 18.462 C 14.523 19.088 14.647 20.349 15.093 20.607 C 14.958 20.006 14.711 18.514 14.304 18.462 z M 18.134 19.066 C 18.000 19.018 18.014 19.116 18.382 19.484 C 18.575 19.593 18.807 20.078 19.078 19.923 C 18.993 19.629 18.359 19.146 18.134 19.066 z M 9.392 19.917 C 8.979 20.382 8.436 21.125 7.855 21.255 C 7.964 20.713 9.043 20.105 9.392 19.917 z M 12.691 20.646 C 12.527 20.598 12.300 21.010 12.755 21.345 C 12.864 20.870 12.789 20.675 12.691 20.646 z M 16.498 20.972 C 16.571 20.948 16.716 21.101 16.806 21.482 C 17.154 22.011 16.716 21.868 16.613 21.519 C 16.422 21.197 16.424 20.996 16.498 20.972 z M 9.398 21.111 C 9.484 21.108 9.531 21.449 9.308 21.261 C 9.337 21.151 9.369 21.112 9.398 21.111 z M 9.273 21.505 C 9.364 21.503 9.550 22.146 9.236 21.783 C 9.223 21.578 9.243 21.506 9.273 21.505 z M 9.267 22.107 C 9.338 22.190 9.335 23.121 9.175 22.400 C 9.212 22.146 9.244 22.079 9.267 22.107 z M 9.193 22.771 C 9.270 22.723 9.434 23.458 9.164 23.148 C 9.151 22.890 9.167 22.787 9.193 22.771 z M 9.117 23.398 C 9.215 23.319 9.482 24.306 9.105 23.923 C 9.069 23.570 9.084 23.424 9.117 23.398 z M 10.552 23.687 C 10.667 23.675 10.599 24.040 10.183 24.234 C 10.348 23.837 10.483 23.694 10.552 23.687 z M 9.197 24.259 C 9.225 24.301 9.242 24.455 9.234 24.775 C 9.183 24.871 9.337 25.697 9.041 25.400 C 8.930 25.008 9.112 24.133 9.197 24.259 z M 10.033 24.404 C 10.126 24.390 10.098 24.765 9.900 24.582 C 9.956 24.456 10.001 24.408 10.033 24.404 z M 9.628 24.787 C 9.806 24.717 9.857 25.129 9.421 25.052 C 9.496 24.886 9.569 24.810 9.628 24.787 z M 9.496 25.355 C 9.624 25.387 9.780 25.789 9.414 25.849 C 9.351 25.450 9.418 25.336 9.496 25.355 z M 9.875 25.5 C 9.918 25.515 9.895 25.667 9.808 25.546 C 9.837 25.506 9.860 25.494 9.875 25.5 z M 9.175 25.751 C 9.150 26.526 9.330 27.985 8.988 28.457 C 9.117 27.657 8.840 26.384 9.175 25.751 z M 9.001 28.771 C 9.079 28.765 9.268 29.524 8.982 29.103 C 8.961 28.859 8.976 28.773 9.001 28.771 z M 8.927 29.287 C 9.015 29.161 9.408 30.267 8.982 29.923 C 8.901 29.508 8.898 29.329 8.927 29.287 z M 9.060 30.261 C 9.088 30.289 9.126 30.420 9.181 30.710 C 9.156 30.832 9.368 31.788 9.033 31.330 C 8.999 31.030 8.977 30.178 9.060 30.261 z " style="fill:#333333;stroke-width:0.644" />
<path id="path4151" d="M 4.042 6.240 C 3.230 6.391 2.014 6.758 2.140 7.806 C 1.958 7.025 0.366 6.145 0.054 6.921 C 0.237 7.871 1.010 9.194 2.123 8.812 C 2.262 9.494 2.275 10.987 1.818 11.255 C 1.489 11.773 1.524 11.460 1.689 10.964 C 1.059 11.240 0.811 12.475 0.644 11.222 C 0.526 10.808 0.113 12.445 0.015 12.896 C 0.007 12.867 0.007 12.824 0 12.792 L 0 17.447 C 0.011 17.482 0.029 17.502 0.035 17.548 C 0.393 18.057 0.842 19.520 0.654 19.578 C 0.473 19.323 0.247 19.115 0 18.947 L 0 30.144 C 0.228 30.323 0.5 30.537 0.457 29.904 C 0.408 28.735 1.287 30.866 1.154 31.388 C 1.176 32.184 1.564 33.301 1.361 33.900 C 0.907 33.944 0.453 33.988 0 34.033 L 0 34.240 C 2.408 34.208 4.815 34.175 7.224 34.144 C 5.939 34.007 4.469 34.068 3.294 33.812 C 3.333 32.689 3.209 31.571 2.972 30.472 C 4.068 30.174 4.485 28.026 4.271 27.601 C 3.416 27.920 2.795 28.719 2.714 29.634 C 2.862 28.824 1.277 27.023 2.671 27.179 C 3.253 27.182 4.076 26.128 4.156 27.189 C 4.669 27.550 4.757 26.768 4.982 27.650 C 5.339 28.140 5.150 26.543 5.472 27.619 C 5.658 28.112 5.685 28.708 5.710 27.855 C 5.619 27.155 5.830 26.988 6.386 27.443 C 6.609 26.881 5.701 26.312 6.498 26.992 C 7.673 27.217 6.182 25.834 6.285 25.937 C 7.341 25.487 8.196 24.536 8.443 23.400 L 2.009 23.400 C 1.883 24.065 2.847 24.810 1.832 25.029 C 1.572 26.168 1.547 24.014 1.539 23.582 C 1.623 22.469 1.841 21.269 2.564 20.392 C 3.079 20.769 3.461 21.164 2.654 21.529 C 2.188 21.880 1.416 23.571 2.494 23.398 L 8.445 23.398 C 8.446 23.395 8.446 23.391 8.447 23.388 L 8.451 23.398 L 8.453 23.398 C 8.760 22.540 8.203 21.281 8.003 20.820 C 8.870 20.945 7.231 20.216 8.132 20.177 C 8.424 19.596 6.859 19.765 7.998 19.423 C 9.091 19.090 7.809 19.306 7.822 19.044 C 7.428 18.641 8.624 18.324 7.964 18.115 C 7.454 18.038 7.246 18.051 7.810 17.664 C 7.451 17.636 6.443 17.795 7.183 17.392 C 7.989 16.552 5.913 17.447 6.810 16.701 C 7.402 15.830 7.301 14.371 6.246 13.886 C 5.788 13.408 4.707 14.071 5.107 13.064 C 4.593 13.078 4.216 13.755 4.363 12.863 C 3.674 12.951 4.972 11.686 3.876 12.171 C 3.566 12.321 3.908 11.169 3.310 11.880 C 2.639 12.574 2.304 12.154 2.634 11.382 C 3.147 11.473 4.289 11.086 4.537 10.201 C 5.152 9.185 2.878 9.984 2.656 10.642 C 2.939 9.788 1.839 8.514 3.103 8.421 C 3.652 7.968 4.293 6.598 4.042 6.240 z M 8.451 23.398 L 8.445 23.398 C 8.445 23.398 8.443 23.400 8.443 23.400 L 8.451 23.400 L 8.451 23.398 z " style="clip-rule:evenodd;fill:#333333;fill-rule:evenodd;stroke-width:0.085" />
<path id="path4175" d="M 2.720 11.031 C 2.689 11.024 2.709 11.039 2.699 11.050 C 2.709 11.040 2.727 11.060 2.720 11.031 z " style="clip-rule:evenodd;fill:#557c3e;fill-rule:evenodd;stroke-width:0.644" />
<path id="path4219" d="M 0 8.441 L 0 10.468 C 0.120 10.448 0.201 10.501 0.300 10.404 C 0.397 10.307 0.418 10.181 0.462 10.050 C 0.556 9.764 0.558 9.549 0.558 9.244 C 0.558 8.991 0.386 8.812 0.220 8.646 C 0.143 8.566 0.072 8.504 0 8.441 z " style="clip-rule:evenodd;fill:#010101;fill-rule:evenodd;stroke-width:0.644" />
<path id="path4225" d="M -3.774,17.135" style="clip-rule:evenodd;fill:#557c3e;fill-rule:evenodd;stroke-width:0.644" />
<path id="path4227" d="M 4.447,27.426" style="clip-rule:evenodd;fill:#557c3e;fill-rule:evenodd;stroke-width:0.644" />
<path id="path4229" d="M -5.585,24.385" style="clip-rule:evenodd;fill:#557c3e;fill-rule:evenodd;stroke-width:0.644" />
<path id="path4171" d="M 3.865 6.519 C 2.967 6.701 2.228 7.316 2.441 8.333 C 3.280 8.486 3.653 7.232 3.865 6.519 z M 0.498 6.908 C 0.241 7.487 1.152 8.778 2.039 8.656 C 2.243 8.046 1.419 6.879 0.609 6.908 L 0.546 6.908 L 0.5 6.908 L 0.498 6.908 z M 0 8.843 L 0 10.105 C 0.522 9.888 0.381 9.326 0 8.843 z M 4.341 10.007 C 3.867 9.969 2.418 10.795 3.003 11.113 C 3.614 11.246 4.385 10.320 4.341 10.007 z M 2.441 10.597 L 2.439 10.599 C 2.439 10.606 2.439 10.612 2.439 10.619 C 2.439 10.611 2.441 10.605 2.441 10.597 z M 2.439 10.619 C 2.433 12.016 1.047 12.962 1.236 14.357 C 1.341 16.046 2.440 17.516 2.314 19.244 C 2.231 20.616 2.869 18.049 2.355 17.572 C 2.008 16.647 1.817 15.589 1.664 14.673 C 1.858 14.315 1.606 13.758 1.792 13.349 C 2.040 12.585 2.468 11.844 2.431 10.998 C 2.437 10.871 2.439 10.745 2.439 10.619 z M 1.917 11.615 C 1.737 12.040 1.342 12.239 1.341 11.626 C 1.264 12.087 0.877 13.419 0.677 12.259 C 0.695 11.429 0.092 13.003 0.230 13.367 C 0.218 13.856 1.054 15.295 1.029 14.951 C 0.648 13.685 1.372 12.672 1.917 11.619 L 1.917 11.615 z M 3.478 12.146 C 2.945 12.467 1.660 12.862 2.847 12.669 C 3.418 12.445 4.277 13.830 4.083 13.150 C 3.394 13.204 4.467 12.154 3.664 12.464 C 3.570 12.392 3.466 12.283 3.478 12.150 L 3.478 12.146 z M 2.783 12.851 C 2.137 12.896 1.656 14.276 2.312 13.312 C 3.088 12.582 4.051 13.960 3.865 14.218 C 4.475 13.981 3.983 14.781 4.390 14.365 C 5.282 14.730 4.366 14.187 4.636 14.152 C 3.648 14.331 5.552 13.297 4.576 13.634 C 4.055 13.811 4.060 14.438 3.839 13.582 C 3.638 13.320 3.379 13.045 3.066 12.923 L 3.066 12.925 C 2.970 12.866 2.875 12.845 2.783 12.851 z M 2.859 13.402 C 1.799 13.400 1.894 15.617 2.179 15.503 C 2.365 14.802 3.529 14.296 2.312 14.267 C 2.698 14.046 4.249 14.221 3.210 13.515 L 2.986 13.429 L 2.859 13.402 z M 0 13.554 L 0 14.509 C 0.068 14.628 0.122 14.753 0.205 14.863 C 1.071 15.959 1.494 17.423 1.667 18.814 C 1.705 20.105 1.511 21.414 1.056 22.619 C 0.917 22.517 1.380 21.176 1.369 20.560 C 1.366 19.521 1.107 18.456 0.673 17.503 C 0.561 17.168 0.304 16.905 0 16.720 L 0 17.042 C 0.195 17.294 0.365 17.578 0.496 17.800 C 1.026 18.881 1.176 20.072 1.103 21.253 C 0.790 22.448 0.177 23.552 0.261 24.839 C 0.286 26.129 0.458 27.435 0.976 28.628 C 1.160 28.981 1.485 29.936 0.880 29.117 C 0.702 28.663 0.384 28.320 0 28.052 L 0 28.738 C 0.284 28.997 0.564 29.259 0.841 29.511 C 1.539 30.563 1.507 31.901 1.685 33.111 C 1.589 33.942 1.958 34.141 2.681 34.017 C 3.489 34.179 2.892 33.077 3.023 32.593 C 3.050 30.914 2.337 29.353 1.949 27.751 C 1.324 25.805 1.004 23.642 1.648 21.648 C 2.346 20.037 2.092 18.144 1.484 16.539 C 0.999 15.536 0.350 14.616 0 13.554 z M 5.623 14.080 L 5.621 14.082 C 4.706 14.125 5.293 14.537 5.703 14.843 C 5.690 15.092 4.214 14.213 4.328 15.222 C 4.179 15.865 4.127 14.433 3.912 14.779 C 3.464 15.094 2.497 16.093 3.082 15.074 C 3.765 14.172 2.089 15.568 2.453 16.167 C 2.572 17.446 4.120 18.147 5.246 17.626 C 6.366 17.252 7.207 15.948 6.693 14.806 C 6.526 14.356 6.080 14.121 5.623 14.080 z M 0 15.109 L 0 16.347 C 0.750 16.745 1.204 18.067 1.312 18.273 C 1.051 17.164 0.675 16.041 0 15.109 z M 6.966 17.318 C 6.269 17.392 5.771 17.915 5.070 18.095 C 4.232 18.631 2.710 17.463 2.617 17.556 C 2.930 17.988 2.719 19.034 2.904 19.136 C 3.618 18.348 4.640 19.688 5.173 18.728 C 5.601 18.285 6.444 18.537 6.255 18.904 C 6.676 18.766 7.893 18.575 7.714 18.363 C 7.081 18.500 6.698 18.168 7.113 17.968 C 6.681 17.969 5.767 18.076 6.582 17.582 C 6.754 17.577 6.809 17.310 6.964 17.322 L 6.966 17.318 z M 7.175 17.968 L 7.226 17.968 L 7.175 17.968 z M 7.617 18.554 C 7.569 18.582 7.543 18.611 7.525 18.640 C 7.556 18.614 7.592 18.576 7.617 18.554 z M 7.525 18.640 C 7.179 18.939 6.546 19.462 7.443 19.126 C 7.739 19.002 7.418 18.812 7.525 18.640 z M 5.935 18.748 C 5.084 18.851 4.660 19.463 4.835 20.236 C 5.158 20.100 6.749 18.742 6.003 19.777 C 5.365 20.455 7.219 19.826 7.511 20.531 C 8.129 20.801 6.825 19.947 7.744 20.105 C 7.977 19.962 6.113 19.765 7.242 19.533 C 7.659 19.380 6.669 19.497 6.482 19.460 C 5.869 19.559 7.200 18.879 6.404 19.128 C 6.012 19.195 5.617 19.264 5.224 19.332 C 5.463 19.141 5.700 18.947 5.935 18.75 L 5.935 18.748 z M 3.652 19.134 L 3.650 19.136 C 2.818 18.977 1.970 20.882 3.005 19.767 C 3.836 18.901 5.028 19.921 4.253 20.816 C 3.949 20.722 2.851 20.756 3.738 20.880 C 4.684 20.614 3.441 21.501 4.068 21.125 C 4.698 20.567 4.913 19.159 3.798 19.138 L 3.652 19.134 z M 0 19.466 L 0 22.744 C 0.621 22.060 0.949 21.131 0.632 20.208 C 0.619 19.956 0.334 19.675 0 19.466 z M 3.896 19.714 C 3.088 19.746 2.386 20.582 3.585 20.494 C 4.212 20.766 4.609 19.831 3.896 19.714 z M 2.449 20.246 L 2.443 20.300 L 2.449 20.246 z M 5.119 20.363 C 4.628 20.519 3.739 21.687 4.097 21.693 C 4.287 21.330 4.476 20.962 4.837 21.400 C 4.670 21.121 4.519 20.773 5.005 20.884 C 6.077 20.908 5.128 20.757 4.578 20.820 C 4.685 20.697 5.173 20.481 5.119 20.365 L 5.119 20.363 z M 5.810 20.480 L 5.808 20.482 C 4.637 20.466 7.657 21.136 6.339 21.113 C 5.532 21.083 4.719 20.990 5.287 21.912 C 5.405 22.466 4.304 20.881 4.199 21.964 C 3.811 22.546 3.387 23.221 3.640 22.201 C 4.079 21.205 2.933 21.650 2.658 22.259 C 1.947 23.477 2.729 25.134 3.996 25.603 C 5.704 26.444 7.876 25.132 8.175 23.318 C 8.534 22.069 7.656 20.367 6.216 20.490 L 6.015 20.484 L 5.810 20.480 z M 3.218 20.753 C 3.247 20.753 3.319 20.753 3.347 20.753 C 3.204 20.753 3.189 20.753 3.218 20.753 z M 0.177 23.082 C 0.106 23.126 0.061 23.177 0 23.224 L 0 24.533 C 0.079 24.237 0.021 23.404 0.177 23.082 z M 2.478 25.029 C 1.760 25.247 1.749 27.139 2.378 25.800 C 2.506 25.589 2.548 25.228 2.478 25.029 z M 2.830 25.150 C 2.950 25.887 2.156 26.382 2.054 26.796 C 2.477 27.542 3.949 26.624 4.275 26.054 C 3.728 25.872 3.210 25.610 2.832 25.152 L 2.830 25.150 z M 0 25.703 L 0 27.787 C 0.370 28.005 0.664 28.072 0.292 27.431 C 0.114 26.853 0.203 26.205 0 25.703 z M 5.621 26.175 C 5.147 26.381 4.474 26.023 4.292 26.513 C 4.221 27.358 4.565 26.891 4.978 27.066 C 5.226 27.433 4.932 26.265 5.361 26.968 C 5.408 26.954 5.802 26.936 6.003 26.984 C 5.407 26.617 5.609 26.159 6.357 26.513 C 7.258 27.441 6.242 25.971 5.677 26.25 L 5.669 26.189 L 5.621 26.177 L 5.621 26.175 z M 4.123 28.060 C 3.306 28.496 2.995 29.441 3.044 30.318 C 3.771 29.889 4.013 28.870 4.123 28.060 z M 0 29.062 L 0 29.810 C 0.100 29.925 0.192 30.013 0.238 29.939 C 0.325 29.566 0.204 29.294 0 29.062 z " style="fill:#82a2a8;stroke-width:0.644px;stroke-linecap:butt" />
<path id="path4-3" d="M 22.919 6.107 C 22.836 6.117 22.764 6.148 22.710 6.203 C 22.682 6.266 22.645 6.317 22.603 6.361 C 22.756 6.319 22.915 6.290 23.074 6.279 C 22.628 6.337 22.356 6.851 22.255 7.343 C 21.895 7.383 21.967 7.866 21.744 7.875 C 21.721 7.612 20.975 6.934 21.710 7.416 C 22.361 7.570 22.402 6.381 21.906 7.277 C 21.735 7.124 21.597 7.051 21.542 6.988 C 21.468 7.065 21.396 7.143 21.339 7.230 C 20.631 7.322 21.942 8.336 22.193 8.382 C 22.070 7.788 22.129 7.581 22.646 7.208 C 22.181 6.074 24.339 6.419 23.632 7.134 C 22.967 7.005 22.505 7.891 22.378 8.117 C 22.853 8.501 23.671 9.038 24.365 8.837 C 24.343 8.384 24.749 7.651 24.316 7.140 C 24.777 7.287 26.103 8.403 25.607 8.710 C 24.911 9.225 23.732 9.427 23.910 10.601 C 23.692 10.623 23.117 10.231 23.312 10.958 C 23.565 11.366 24.060 11.307 24.427 11.558 C 24.380 10.901 23.660 11.485 23.509 10.964 C 24.448 11.062 23.930 9.975 24.443 9.574 C 25.163 8.922 26.470 10.179 25.427 10.658 C 24.926 11.035 24.789 10.767 24.982 11.232 C 24.880 11.589 24.033 10.954 24.650 11.451 C 24.667 11.656 24.384 11.388 24.433 11.556 C 24.487 11.593 24.539 11.637 24.587 11.691 C 25.063 11.615 26.756 11.814 26.191 11.046 C 24.976 11.598 26.523 10.356 25.953 9.814 C 25.427 9.408 25.597 8.946 26.248 9.228 C 26.969 10.165 27.475 11.264 27.755 12.412 C 27.337 12.963 27.202 13.568 26.417 13.625 C 26.211 14.118 25.799 14.487 25.894 13.746 C 25.010 13.855 25.422 15.113 25.341 15.669 C 25.837 16.061 26.446 15.767 26.783 16.433 C 27.411 16.052 27.942 16.554 28.589 16.335 C 28.601 16.820 29.093 18.056 28.287 17.234 C 27.162 16.632 26.166 17.741 26.298 18.851 C 25.481 18.776 25.155 19.798 24.949 20.091 C 24.833 19.588 24.445 19.347 24.320 20.037 C 24.665 20.713 24.677 21.696 25.744 21.419 C 26.203 22.148 26.735 22.005 27.216 21.480 C 27.604 21.987 28.798 21.077 28.222 20.835 C 27.569 20.930 27.428 20.996 27.904 20.521 C 27.885 19.945 27.571 19.436 27.111 19.115 C 26.374 18.575 27.593 16.983 28.375 18.052 C 29.3 18.873 29.058 20.251 29.337 21.345 C 29.354 21.912 29.805 23.086 28.830 22.501 C 27.939 22.502 27.541 23.397 26.626 23.017 C 26.073 23.248 25.673 23.523 25.115 23.599 C 25.079 24.139 24.859 24.358 24.898 23.669 C 23.953 23.545 25.046 24.674 24.628 25.082 C 24.651 25.170 24.687 25.249 24.732 25.322 C 24.722 25.146 24.888 25.348 24.742 25.335 C 24.809 25.438 24.897 25.521 24.992 25.585 C 24.999 25.510 25.131 25.605 25.111 25.652 C 25.415 25.793 25.759 25.740 25.851 25.421 C 25.163 25.567 24.874 25.011 24.986 24.564 C 24.517 24.206 24.727 23.902 25.029 24.429 C 25.543 24.818 25.110 23.215 25.521 23.791 C 25.511 24.315 26.016 24.773 25.246 24.767 C 25.494 25.120 26.040 25.438 26.328 25.625 C 26.745 25.904 27.482 25.620 26.746 26.126 C 26.422 26.704 26.028 25.415 25.642 25.884 C 25.636 26.113 25.708 26.255 25.820 26.349 C 25.882 26.249 25.895 26.362 25.867 26.386 C 25.925 26.424 25.991 26.452 26.064 26.468 C 25.971 26.308 26.246 26.418 26.316 26.496 C 26.622 26.495 26.956 26.406 27.138 26.355 C 27.162 26.368 27.187 26.370 27.212 26.382 C 27.206 26.239 27.595 26.068 27.621 26.125 C 27.848 26.257 28.058 26.314 28.039 26.371 C 28.398 26.171 28.473 25.768 27.751 25.755 C 28.830 25.218 28.033 23.940 28.285 23.263 C 28.428 23.185 28.564 23.142 28.689 23.125 C 28.328 23.154 27.970 23.279 27.755 23.416 C 28.130 22.524 30.208 22.731 29.882 23.812 L 29.830 23.787 L 29.830 23.798 C 29.678 23.231 29.194 23.087 28.710 23.123 C 29.582 23.025 29.994 24.296 29.847 25.111 C 29.842 26.138 30.391 27.290 29.785 28.236 C 29.374 28.299 30.065 27.381 29.384 27.748 C 29.054 28.243 29.588 28.728 28.744 28.509 C 28.227 28.811 27.992 29.359 27.359 28.878 C 26.283 28.530 25.77 30.081 25.5 30.312 C 25.7 29.787 24.950 29.624 24.980 30.453 C 25.530 30.857 24.654 31.677 25.410 32.060 C 25.326 31.753 25.310 31.755 25.150 31.421 C 25.720 31.254 25.625 31.715 26.097 31.878 C 26.262 31.826 26.392 31.833 26.455 31.964 C 26.498 31.803 26.571 31.985 26.548 32.058 C 26.967 32.212 27.095 31.656 27.441 32.023 C 27.617 32.318 29.027 31.834 28.027 32.398 C 27.559 32.507 27.516 32.606 27.306 32.148 C 26.758 32.083 26.993 33.001 26.677 32.308 C 26.640 32.469 26.575 32.505 26.5 32.480 C 26.526 32.400 26.476 32.407 26.433 32.439 C 26.189 32.267 25.899 31.671 26.080 32.375 C 26.567 33.17 27.404 32.603 28.023 32.580 C 28.777 32.808 28.803 31.436 27.978 31.994 C 28.676 31.548 29.194 30.469 28.640 29.626 C 28.069 28.882 30.031 29.051 29.976 29.898 C 30.154 31.410 30.173 32.979 30.347 34.494 C 29.620 34.215 28.778 34.490 28.466 34.490 C 26.624 34.490 27.796 34.688 29.201 34.722 C 29.756 34.734 30.428 34.742 31.037 34.744 C 31.066 34.789 31.089 34.837 31.126 34.876 L 31.158 35.007 C 31.152 34.920 31.142 34.832 31.134 34.744 C 32.018 34.743 32.707 34.721 32.414 34.623 C 32.230 34.562 31.701 34.533 31.113 34.515 C 30.979 32.963 30.774 31.413 30.761 29.849 C 30.731 29.043 31.897 30.173 32.332 30.275 C 33.000 30.500 33.144 29.532 32.451 29.648 C 33.069 29.328 32.091 29.258 32.683 28.777 C 33.168 27.648 32.119 27.024 32.205 25.962 C 31.931 25.003 30.684 25.870 30.521 25.789 C 30.410 25.145 30.612 24.518 30.521 23.904 C 30.760 23.465 30.723 22.416 30.175 22.998 C 30.226 22.008 29.709 20.875 30.023 19.982 C 30.075 19.526 30.123 18.564 29.892 18.363 C 29.554 19.528 29.477 17.503 29.363 17.128 C 28.757 16.178 30.260 16.063 30.031 15.271 C 29.774 15.580 29.227 15.831 29.626 15.158 C 30.001 14.332 30.051 13.020 29.119 12.529 C 27.893 12.737 28.208 11.331 27.769 10.560 C 27.934 9.970 29.019 10.506 28.408 9.849 C 28.334 9.831 28.264 9.798 28.191 9.775 C 28.132 9.884 27.100 10.140 27.593 10.705 C 27.713 11.205 28.202 12.117 27.976 12.439 C 27.949 11.518 26.702 10.338 27.742 9.703 C 27.882 9.705 27.964 9.711 28.037 9.718 C 27.358 9.467 26.753 9.014 26.382 8.332 C 26.074 7.271 25.202 6.780 24.232 6.544 C 24.100 6.460 23.957 6.402 23.810 6.357 C 24.110 6.524 24.218 6.674 23.677 6.443 C 23.510 6.336 23.361 6.291 23.222 6.279 C 23.421 6.278 23.620 6.298 23.810 6.355 C 23.563 6.219 23.186 6.071 22.919 6.107 z M 25.820 26.349 C 25.818 26.352 25.818 26.347 25.816 26.351 C 25.826 26.370 25.832 26.368 25.839 26.373 C 25.831 26.367 25.827 26.356 25.820 26.349 z M 22.601 6.363 C 22.392 6.422 22.196 6.511 22.013 6.619 C 22.213 6.575 22.442 6.531 22.601 6.363 z M 22.013 6.619 C 21.870 6.650 21.739 6.682 21.677 6.761 C 21.511 6.870 21.484 6.922 21.539 6.984 C 21.674 6.843 21.836 6.722 22.013 6.619 z M 24.574 6.763 C 25.128 6.792 25.938 7.270 25.945 7.927 C 25.929 8.184 26.813 8.895 26.054 8.636 C 25.778 7.913 24.895 6.185 24.078 7.255 C 24.000 6.891 24.240 6.745 24.574 6.763 z M 24.978 7.156 C 25.015 7.187 24.999 7.392 24.925 7.203 C 24.948 7.154 24.966 7.145 24.978 7.156 z M 23.511 7.359 C 24.143 7.321 24.810 8.131 23.867 8.609 C 23.833 8.729 23.877 8.889 23.736 8.687 C 23.413 8.506 23.185 8.348 22.843 8.248 C 23.566 7.990 22.482 8.294 22.953 7.728 C 23.095 7.481 23.302 7.374 23.513 7.361 L 23.511 7.359 z M 23.156 7.630 C 23.074 7.612 22.946 7.928 23.207 7.789 C 23.206 7.679 23.184 7.637 23.156 7.630 z M 24.089 7.753 C 24.075 7.730 24.029 7.755 23.937 7.871 C 23.987 8.249 23.002 8.371 23.763 8.464 C 23.898 8.368 24.132 7.827 24.089 7.753 z M 24.111 8.630 C 24.154 8.648 24.114 8.834 24.039 8.683 C 24.073 8.634 24.097 8.623 24.111 8.630 z M 26.150 8.828 C 26.777 8.875 27.441 9.315 27.388 9.814 L 27.306 9.789 L 27.302 9.769 C 26.986 8.857 25.757 8.921 25.224 9.244 C 25.412 8.918 25.777 8.804 26.154 8.832 L 26.150 8.828 z M 26.617 9.240 C 26.622 9.233 26.633 9.234 26.650 9.246 L 26.648 9.240 C 26.693 9.271 26.782 9.376 26.931 9.589 C 26.969 9.671 27.251 10.106 26.988 10 C 26.797 9.753 26.577 9.288 26.617 9.240 z M 25.238 9.712 C 25.089 9.718 25.033 9.860 25.445 10.103 C 25.407 10.169 25.651 10.174 25.593 10.128 C 25.630 9.832 25.388 9.705 25.238 9.712 z M 28.033 9.722 C 28.084 9.740 28.133 9.759 28.185 9.775 C 28.198 9.751 28.152 9.733 28.033 9.722 z M 24.531 10.072 C 24.448 10.045 24.239 10.379 24.548 10.25 C 24.571 10.13 24.558 10.081 24.531 10.072 z M 24.478 10.433 L 24.476 10.435 C 24.416 10.427 24.379 10.497 24.423 10.714 C 24.556 10.698 24.453 11.044 24.714 10.876 C 24.746 10.692 24.580 10.448 24.478 10.433 z M 23.523 10.669 C 23.541 10.685 23.476 10.839 23.472 10.712 C 23.502 10.672 23.517 10.663 23.523 10.669 z M 25.605 10.849 L 25.605 10.851 C 25.632 10.869 25.599 10.972 25.429 11.214 C 25.750 11.516 26.376 11.443 25.601 11.603 C 24.875 11.505 25.524 10.792 25.605 10.849 z M 24.423 11.564 C 24.424 11.574 24.427 11.579 24.427 11.591 C 24.420 11.575 24.429 11.576 24.427 11.564 L 24.425 11.564 C 24.425 11.564 24.423 11.564 24.423 11.564 z M 28.345 12.523 L 28.347 12.523 C 28.956 12.460 29.659 12.880 29.566 13.605 C 29.725 14.663 28.872 15.535 29.031 16.580 C 29.088 17.071 29.321 17.833 29.244 18.187 C 28.842 17.296 28.576 16.042 29.058 15.107 C 29.675 14.314 29.526 12.307 28.162 12.763 C 27.915 12.994 27.460 14.091 27.548 13.201 C 27.650 12.775 27.981 12.562 28.345 12.523 z M 28.601 12.882 C 29.415 13.054 29.388 14.564 28.904 14.904 C 28.957 14.271 28.414 13.298 28.603 12.890 L 28.601 12.882 z M 28.324 13.050 C 28.420 13.816 28.865 14.669 28.675 15.392 C 28.593 15.480 28.549 15.245 28.568 15.316 C 28.761 14.559 27.868 13.526 28.324 13.050 z M 27.914 13.429 C 27.989 13.370 28.267 13.804 27.935 13.691 C 27.886 13.522 27.889 13.449 27.914 13.429 z M 27.251 13.691 C 27.978 13.727 28.714 14.623 28.201 15.376 C 28.150 15.416 27.825 15.498 27.863 15.373 C 28.282 15.036 27.396 14.384 27.251 14.019 C 26.873 14.122 25.872 14.782 26.572 13.988 C 26.767 13.772 27.010 13.689 27.253 13.701 L 27.251 13.691 z M 26.951 14.248 C 27.322 14.161 27.558 14.648 27.753 15.066 C 27.724 15.024 27.380 15.151 27.386 15.021 C 27.233 14.457 26.947 14.662 26.533 14.554 C 26.689 14.374 26.827 14.280 26.951 14.251 L 26.951 14.248 z M 25.794 14.330 L 25.798 14.330 C 26.252 14.662 25.597 14.586 26.126 14.828 C 26.216 15.223 26.757 15.852 26.947 15.562 C 26.932 15.305 27.373 16.192 27.107 15.404 C 27.357 14.947 27.314 16.193 27.468 15.525 C 27.650 15.829 28.873 15.065 28.208 15.798 C 27.420 15.755 28.989 16.466 27.912 16.292 C 27.630 15.708 26.428 16.751 26.480 15.691 C 26.169 16.038 25.161 15.513 25.621 15.369 C 26.190 15.676 25.748 15.365 25.642 15.091 C 26.488 15.133 25.002 14.228 25.794 14.330 z M 26.138 14.574 C 26.187 14.526 26.504 14.712 26.208 14.716 C 26.134 14.633 26.121 14.590 26.138 14.574 z M 26.707 14.802 C 27.217 14.791 27.290 15.453 26.732 15.277 C 26.641 15.075 26.831 14.978 26.707 14.802 z M 27.611 15.248 C 27.650 15.249 27.663 15.400 27.566 15.310 C 27.582 15.264 27.597 15.247 27.611 15.248 z M 26.125 15.525 C 26.049 15.499 25.864 15.757 26.144 15.669 C 26.162 15.574 26.15 15.534 26.125 15.525 z M 26.710 15.802 C 26.638 15.784 26.515 16.036 26.751 15.935 C 26.752 15.846 26.735 15.809 26.710 15.802 z M 29.296 15.824 C 29.333 15.841 29.309 16.019 29.238 15.876 C 29.263 15.830 29.284 15.818 29.296 15.824 z M 26.917 15.902 C 26.844 15.887 26.733 16.154 26.964 16.037 C 26.963 15.944 26.941 15.907 26.917 15.902 z M 27.257 15.910 C 27.185 15.861 26.946 16.052 27.248 16.054 C 27.286 15.969 27.281 15.926 27.257 15.910 z M 27.775 17.455 L 27.777 17.455 C 28.343 17.480 28.953 17.817 29.197 18.341 C 29.782 19.388 29.607 20.639 29.822 21.785 C 29.746 21.975 30.144 23.355 29.746 22.972 C 29.550 21.883 29.470 20.704 29.335 19.580 C 29.279 18.649 28.563 17.584 27.531 17.669 C 26.776 17.470 26.552 19.978 26.630 18.433 C 26.688 17.716 27.209 17.429 27.775 17.455 z M 26.427 19.132 C 27.014 19.157 27.357 19.807 26.541 19.908 C 26.511 20.474 25.551 19.821 25.265 20.259 C 25.085 19.240 26.068 20.043 26.337 19.980 C 26.022 19.603 25.110 19.446 26.164 19.162 C 26.255 19.138 26.343 19.130 26.427 19.134 L 26.427 19.132 z M 29.800 19.132 C 29.881 19.147 29.955 19.328 29.779 19.626 C 29.629 19.264 29.719 19.116 29.800 19.132 z M 27.283 19.718 C 27.562 19.716 27.818 20.990 27.357 20.873 C 27.769 20.214 25.994 20.136 27.095 19.957 C 27.153 19.788 27.217 19.721 27.281 19.720 L 27.283 19.718 z M 24.589 20.109 C 24.654 20.119 24.760 20.204 24.886 20.382 C 25.286 20.679 25.464 20.381 25.525 20.828 C 25.849 20.757 25.672 21.118 25.935 21.025 C 26.098 21.103 26.977 21.413 26.765 20.867 C 27.025 21.021 27.644 21.493 28.066 21.146 C 27.641 22.003 27.053 20.855 26.619 21.642 C 26.620 21.750 26.234 21.900 26.304 21.830 C 25.926 21.389 25.641 21.184 25.052 21.347 C 24.538 20.962 25.660 20.727 24.691 20.630 C 24.481 20.289 24.480 20.095 24.589 20.113 L 24.589 20.109 z M 25.730 20.259 C 25.826 20.230 25.891 20.512 25.634 20.419 C 25.663 20.315 25.698 20.270 25.730 20.259 z M 26.132 20.341 C 26.384 20.377 26.745 20.701 26.046 20.714 C 25.869 20.400 25.982 20.319 26.132 20.341 z M 26.984 20.585 C 27.048 20.556 27.269 20.785 26.994 20.720 C 26.958 20.633 26.962 20.595 26.984 20.585 z M 25.255 20.994 C 25.168 20.985 25.049 21.233 25.316 21.113 C 25.310 21.030 25.284 20.997 25.255 20.994 z M 25.498 21.119 C 25.438 21.122 25.357 21.358 25.541 21.214 C 25.537 21.140 25.518 21.117 25.498 21.119 z M 26.148 21.259 C 26.066 21.232 25.879 21.496 26.173 21.408 C 26.189 21.310 26.175 21.268 26.148 21.259 z M 26.468 21.318 C 26.278 21.297 26.014 21.621 26.599 21.486 C 26.587 21.373 26.532 21.325 26.468 21.318 z M 30.412 23.273 L 30.412 23.275 C 30.432 23.305 30.415 23.438 30.322 23.726 C 30.260 23.855 30.413 24.453 30.146 24.332 C 29.930 24.011 30.348 23.181 30.412 23.273 z M 27.041 23.382 L 27.042 23.384 C 27.190 23.360 27.332 23.395 27.455 23.519 C 27.590 23.907 28.050 23.755 27.859 24.226 C 28.617 23.756 27.530 25.985 27.437 25.312 C 27.339 24.435 26.653 24.503 25.951 24.580 C 26.096 24.087 26.594 23.456 27.041 23.382 z M 26.419 23.437 C 26.435 23.469 26.356 23.585 26.105 23.820 C 25.951 23.842 25.904 24.575 25.757 24.402 C 25.462 23.981 26.370 23.337 26.419 23.437 z M 26.580 24.693 C 27.015 24.703 27.525 25.735 26.955 25.408 C 26.678 24.963 25.208 24.903 26.400 24.757 C 26.455 24.711 26.516 24.693 26.578 24.695 L 26.580 24.693 z M 30.140 24.714 C 30.158 24.714 30.180 24.717 30.203 24.728 C 30.100 25.200 30.496 26.057 30.203 26.357 C 30.120 26.025 29.854 24.731 30.140 24.714 z M 28.091 25.005 C 28.152 24.980 28.153 25.072 28.005 25.398 C 27.978 25.507 27.822 25.653 27.728 25.619 C 27.725 25.423 27.988 25.048 28.091 25.005 z M 26.103 25.101 C 26.254 25.078 26.728 25.721 26.111 25.406 C 26.038 25.191 26.053 25.108 26.103 25.101 z M 24.728 25.341 C 24.729 25.349 24.724 25.346 24.726 25.357 C 24.734 25.358 24.733 25.356 24.740 25.357 L 24.738 25.355 C 24.735 25.350 24.731 25.346 24.728 25.341 z M 24.988 25.605 C 24.987 25.623 24.990 25.648 25.007 25.691 C 25.072 25.699 25.097 25.690 25.105 25.671 C 25.065 25.654 25.026 25.631 24.988 25.605 z M 31.603 25.669 L 31.605 25.669 C 32.177 25.694 32.295 27.087 31.908 26.072 C 31.274 25.465 30.496 26.331 30.453 26.998 C 30.463 27.089 30.332 27.214 30.257 27.109 C 30.071 26.412 30.860 25.765 31.484 25.683 C 31.525 25.673 31.565 25.667 31.603 25.669 z M 27.289 25.839 C 27.341 25.834 27.405 26.086 27.248 25.953 C 27.254 25.870 27.271 25.841 27.289 25.839 z M 25.880 26.121 C 25.898 26.137 25.832 26.293 25.828 26.167 C 25.858 26.127 25.874 26.116 25.880 26.121 z M 31.253 26.130 L 31.255 26.130 C 31.683 26.069 32.144 26.380 31.671 26.720 C 31.386 26.566 30.964 26.835 30.728 26.720 C 30.751 26.338 30.996 26.167 31.253 26.130 z M 25.837 26.390 C 25.846 26.397 25.857 26.410 25.863 26.404 C 25.855 26.399 25.845 26.395 25.837 26.390 z M 28.029 26.394 C 27.818 26.508 27.516 26.545 27.210 26.402 C 27.211 26.451 27.261 26.497 27.392 26.529 C 27.294 26.447 27.689 26.604 27.650 26.525 C 27.913 26.468 28.013 26.430 28.029 26.394 z M 26.060 26.490 C 26.071 26.510 26.082 26.527 26.107 26.556 C 26.104 26.556 26.102 26.557 26.097 26.556 L 26.117 26.568 C 26.114 26.564 26.113 26.562 26.109 26.558 L 26.109 26.556 C 26.319 26.590 26.351 26.559 26.312 26.515 C 26.225 26.515 26.139 26.509 26.060 26.490 z M 32.119 26.652 C 32.149 26.634 32.161 26.779 32.085 26.738 C 32.096 26.682 32.109 26.658 32.119 26.652 z M 31.685 26.947 L 31.685 26.949 C 32.081 26.971 32.419 27.258 32.345 27.873 C 32.291 28.199 32.198 28.805 31.962 28.300 C 31.658 28.995 32.144 29.304 32.408 28.535 C 32.577 28.202 32.328 26.600 32.601 27.705 C 32.898 28.581 31.479 29.494 32.669 29.943 C 32.630 30.183 32.213 29.980 32.173 30.056 C 32.533 30.014 31.940 29.641 31.832 29.365 C 31.437 29.379 31.325 28.703 30.763 28.996 C 30.609 28.475 29.811 28.585 30.304 27.802 C 30.160 27.220 31.607 26.486 30.699 27.371 C 30.564 27.671 30.095 28.807 30.623 28.035 C 30.571 27.326 31.175 26.918 31.685 26.947 z M 30.755 28.050 C 30.677 28.099 30.697 28.375 30.968 28.373 C 30.884 28.108 30.802 28.043 30.755 28.064 L 30.755 28.050 z M 29.451 28.335 C 29.506 28.327 29.597 28.552 29.419 28.441 C 29.419 28.365 29.432 28.337 29.451 28.335 z M 31.503 28.517 C 31.392 28.487 31.182 28.638 31.472 28.804 C 31.603 28.620 31.570 28.535 31.503 28.517 z M 31.771 28.576 C 31.691 28.609 31.566 28.880 31.781 28.880 C 31.849 28.621 31.817 28.555 31.771 28.576 z M 29.791 28.642 C 29.868 28.610 30.126 28.754 30.132 28.835 C 30.204 28.804 30.324 28.839 30.470 28.988 C 30.445 30.071 30.564 31.157 30.605 32.242 C 30.860 32.902 30.693 33.852 30.914 34.486 C 30.780 34.483 30.666 34.476 30.527 34.474 C 30.778 33.860 30.339 32.685 30.378 31.925 C 30.145 30.913 30.535 29.562 29.412 28.990 C 28.965 28.496 27.762 29.798 28.400 28.943 C 29.025 28.212 29.782 29.046 30.232 29.332 C 30.059 29.152 30.024 28.971 30.078 28.882 C 30.038 28.888 29.975 28.886 29.880 28.873 C 29.767 28.728 29.754 28.662 29.791 28.642 z M 31.996 29.105 C 31.947 29.098 31.870 29.327 32.027 29.212 C 32.026 29.136 32.013 29.107 31.996 29.105 z M 30.902 29.195 C 31.132 29.174 31.723 29.334 31.193 29.478 C 30.754 29.289 30.764 29.209 30.902 29.195 z M 27.433 29.220 L 27.437 29.220 C 27.592 29.239 27.716 29.326 27.769 29.507 C 27.012 29.234 27.629 30.097 27.859 29.646 C 29.040 29.509 28.821 31.746 28.033 31.595 C 27.877 31.633 27.969 31.976 27.755 31.724 C 28.047 31.374 28.220 30.388 27.890 31.027 C 27.321 30.956 26.155 31.335 26.283 30.259 C 25.442 30.279 26.755 29.134 27.433 29.220 z M 32.361 29.343 C 32.444 29.322 32.568 29.556 32.308 29.470 C 32.311 29.385 32.334 29.350 32.361 29.343 z M 31.697 29.605 C 31.768 29.589 31.882 29.842 31.656 29.734 C 31.656 29.646 31.673 29.610 31.697 29.605 z M 27.904 29.851 C 27.810 29.817 27.584 30.104 27.927 30.017 C 27.950 29.908 27.934 29.862 27.904 29.851 z M 28.501 30.312 C 28.420 30.336 28.300 30.683 28.513 30.753 L 28.527 30.748 C 28.585 30.399 28.548 30.298 28.501 30.312 z M 25.216 30.466 L 25.218 30.466 C 25.306 30.504 25.475 30.699 25.531 30.953 C 25.530 31.000 25.337 30.960 25.390 30.921 C 25.124 30.552 25.130 30.433 25.216 30.466 z M 26.009 30.554 L 26.009 30.556 C 26.086 30.565 26.172 30.642 26.240 30.830 C 26.488 30.972 26.374 31.294 26.171 31.029 C 25.611 31.092 25.776 30.525 26.009 30.554 z M 28.212 30.681 C 28.163 30.669 28.129 30.795 28.201 31.179 C 28.122 31.297 27.955 31.529 28.244 31.417 C 28.435 31.126 28.295 30.705 28.212 30.681 z M 27.724 31.037 C 28.025 30.989 27.497 32.007 27.419 31.914 C 27.337 31.418 26.388 31.212 27.369 31.269 C 27.542 31.118 27.654 31.048 27.724 31.037 z M 26.289 31.232 C 26.555 31.248 27.010 31.598 26.300 31.687 C 26.035 31.332 26.128 31.222 26.289 31.232 z M 25.558 31.804 C 25.498 31.766 25.315 31.994 25.558 31.951 C 25.583 31.859 25.577 31.817 25.558 31.804 z M 26.093 31.902 C 25.936 31.951 25.751 32.050 25.562 32.154 C 25.726 32.124 25.939 31.934 26.109 31.910 C 26.104 31.909 26.100 31.904 26.093 31.902 z M 26.455 31.990 C 26.450 32.010 26.445 32.026 26.441 32.060 C 26.509 32.126 26.535 32.114 26.546 32.082 C 26.525 32.075 26.507 32.074 26.484 32.062 C 26.478 32.033 26.465 32.012 26.455 31.990 z M 25.406 32.082 L 25.406 32.083 C 25.410 32.099 25.412 32.099 25.417 32.117 C 25.452 32.150 25.496 32.158 25.544 32.152 C 25.485 32.133 25.452 32.105 25.406 32.082 z M 25.544 32.154 C 25.547 32.154 25.548 32.155 25.552 32.156 C 25.553 32.155 25.555 32.156 25.558 32.154 C 25.553 32.154 25.549 32.153 25.544 32.154 z " style="fill:#333333;stroke-width:0.644" />
<path id="path4735" d="M 17.228 19.890 C 16.715 19.900 16.233 19.964 15.054 20.152 C 14.158 20.294 13.552 20.463 12.623 20.826 C 12.541 20.858 12.323 20.942 12.138 21.013 C 9.407 22.064 7.401 23.711 6.580 25.574 C 6.508 25.738 6.400 25.963 6.341 26.072 C 6.282 26.181 6.232 26.315 6.232 26.371 C 6.232 26.451 5.547 27.923 5.255 28.470 C 5.217 28.541 5.187 28.667 5.187 28.748 C 5.187 29.226 4.916 29.081 3.796 28.007 C 3.222 27.455 3.134 27.397 2.638 27.224 C 2.142 27.051 1.094 27.121 0 27.328 L 0 34.892 C 0.171 34.927 0.362 34.955 0.529 34.955 C 0.782 34.955 1.227 35.004 1.519 35.066 C 1.820 35.129 2.546 35.185 3.205 35.197 C 3.841 35.207 4.363 35.221 4.363 35.228 C 4.363 35.235 4.168 35.360 3.929 35.505 C 3.636 35.683 3.409 35.851 3.25 36 L 8.115 36 C 8.382 35.878 8.661 35.778 8.949 35.728 C 9.080 35.706 9.315 35.638 9.472 35.580 C 9.720 35.487 9.811 35.488 10.201 35.589 C 10.653 35.706 12.256 35.745 12.962 35.656 C 13.889 35.538 13.942 35.555 14.242 36 L 18.718 36 C 19.781 34.875 22.629 33.703 23.455 33.820 L 23.455 33.822 C 23.690 33.855 23.758 33.994 23.568 34.269 C 23.108 34.937 22.980 35.537 22.968 36 L 26.935 36 C 26.881 35.609 26.912 35.047 27.021 34.980 C 27.056 34.959 27.085 34.881 27.085 34.806 C 27.085 34.732 27.135 34.627 27.197 34.576 C 27.258 34.525 27.308 34.436 27.308 34.378 C 27.308 34.254 27.385 34.154 27.800 33.730 C 27.967 33.559 28.135 33.365 28.173 33.298 C 28.275 33.120 28.955 32.708 29.150 32.708 C 30.054 32.708 31.111 31.374 31.181 30.142 C 31.223 29.381 31.288 29.233 31.712 28.939 C 32.213 28.592 32.308 28.139 31.984 27.630 C 31.754 27.269 31.450 27.000 31.347 27.064 C 31.302 27.092 31.180 27.060 31.076 26.992 C 30.932 26.898 30.693 26.868 30.033 26.863 C 29.146 26.856 29.109 26.844 28.919 26.498 C 28.680 26.064 28.170 25.263 28.048 25.134 C 27.971 25.051 27.908 24.958 27.908 24.925 C 27.908 24.814 26.564 23.517 26.449 23.517 C 26.429 23.517 26.197 23.350 25.935 23.144 C 25.673 22.938 25.435 22.771 25.408 22.771 C 25.380 22.771 25.209 22.668 25.029 22.544 C 24.849 22.420 24.557 22.251 24.380 22.167 C 24.034 22.003 23.379 21.654 22.806 21.328 C 22.609 21.217 22.416 21.126 22.378 21.126 C 22.340 21.126 21.979 20.972 21.578 20.783 C 20.213 20.141 19.344 19.937 17.781 19.894 C 17.575 19.889 17.401 19.886 17.230 19.890 L 17.228 19.890 z M 0 35.876 L 0 36 L 0.187 36 C 0.170 35.985 0.153 35.978 0.136 35.962 C 0.098 35.926 0.048 35.902 0 35.876 z M 1.605 35.980 C 1.531 35.969 1.448 35.978 1.363 36 L 1.656 36 C 1.637 35.994 1.625 35.983 1.605 35.980 z " style="fill:#bed4d8;stroke-width:0.644" />
<path id="path4139" d="M 17.779 19.908 C 16.952 19.886 16.622 19.917 15.050 20.166 C 14.153 20.309 13.547 20.476 12.619 20.839 C 12.537 20.871 12.318 20.954 12.134 21.025 C 9.402 22.076 7.397 23.724 6.576 25.587 C 6.503 25.752 6.395 25.975 6.337 26.083 C 6.278 26.193 6.230 26.328 6.230 26.382 C 6.230 26.463 5.544 27.937 5.253 28.482 C 5.215 28.553 5.183 28.679 5.183 28.759 C 5.183 29.237 4.913 29.093 3.794 28.019 C 3.219 27.467 3.132 27.408 2.636 27.236 C 2.141 27.063 1.092 27.134 0 27.339 L 0 27.941 C 0.633 27.796 1.935 27.678 2.066 27.781 C 2.116 27.821 2.260 27.877 2.382 27.906 C 2.761 27.997 2.955 28.317 2.691 28.417 C 2.376 28.537 2.544 28.962 3.003 29.207 L 3.289 29.355 L 3.539 29.138 L 3.787 28.921 L 3.962 29.085 C 4.158 29.271 4.184 29.373 4.033 29.373 C 3.885 29.373 3.539 29.854 3.539 30.060 C 3.539 30.393 4.011 30.792 4.406 30.792 C 4.513 30.792 5.033 30.283 5.033 30.179 C 5.033 30.097 5.239 30.104 5.289 30.187 C 5.312 30.224 5.213 30.372 5.070 30.515 C 4.757 30.829 4.730 31.094 4.994 31.267 C 5.330 31.487 5.667 31.397 6.011 30.992 L 6.203 30.765 L 6.546 30.931 C 6.961 31.133 7.046 31.532 6.744 31.867 C 6.444 32.198 5.721 31.914 6.001 31.576 C 6.193 31.346 6.025 31.309 5.789 31.529 C 5.490 31.808 5.508 31.891 5.927 32.136 C 6.106 32.240 6.263 32.358 6.275 32.398 C 6.323 32.552 5.111 33.255 4.798 33.255 C 4.552 33.255 4.655 33.512 4.912 33.541 C 5.243 33.578 6.820 32.868 7.169 32.525 C 7.267 32.429 7.434 32.359 7.556 32.359 C 7.674 32.359 7.793 32.335 7.822 32.308 C 7.875 32.256 8.390 32.063 8.482 32.062 C 8.511 32.062 8.554 32.125 8.578 32.203 C 8.629 32.361 8.975 32.507 9.298 32.507 C 9.521 32.507 9.782 32.286 9.892 32.003 C 10.032 31.647 10.634 32.075 10.634 32.529 C 10.634 32.726 10.306 32.940 10.220 32.800 C 10.190 32.750 10.137 32.754 10.068 32.812 C 9.892 32.958 9.863 32.827 10.031 32.646 C 10.222 32.440 10.229 32.357 10.056 32.357 C 9.938 32.357 9.711 32.610 9.705 32.748 C 9.689 33.060 8.840 33.111 8.769 32.804 C 8.697 32.495 8.407 32.507 8.421 32.818 L 8.431 33.064 L 7.609 33.083 C 6.049 33.121 6.227 33.431 7.816 33.447 C 8.359 33.453 8.899 33.482 9.013 33.511 C 9.155 33.548 9.260 33.530 9.347 33.455 C 9.512 33.312 10.506 33.074 10.746 33.119 C 10.851 33.139 10.968 33.111 11.015 33.054 C 11.061 32.998 11.164 32.953 11.242 32.953 C 11.321 32.953 11.563 32.890 11.781 32.814 C 12.190 32.671 12.425 32.706 12.425 32.912 C 12.425 33.006 11.592 33.218 10.968 33.283 C 10.845 33.296 10.603 33.379 10.431 33.466 C 10.198 33.584 9.953 33.631 9.488 33.644 C 9.100 33.656 8.813 33.702 8.740 33.763 C 8.672 33.820 8.349 33.880 8.001 33.902 C 7.396 33.942 7.156 34.023 7.238 34.156 C 7.260 34.193 7.370 34.222 7.480 34.222 C 7.971 34.225 7.841 34.351 7.294 34.402 C 6.973 34.432 6.592 34.470 6.449 34.484 C 5.683 34.564 3.798 34.578 2.748 34.509 C 2.090 34.465 1.342 34.422 1.087 34.414 C 0.508 34.395 0.503 34.070 1.083 34.070 C 1.251 34.070 2.345 33.482 2.611 33.248 C 2.750 33.126 2.953 33.005 3.062 32.978 C 3.172 32.951 3.346 32.882 3.451 32.828 C 3.557 32.773 3.685 32.728 3.734 32.728 C 3.815 32.727 3.978 32.505 3.978 32.396 C 3.978 32.308 3.424 32.359 3.312 32.457 C 2.770 32.932 0.792 32.975 0.302 32.521 C 0.182 32.409 0.075 32.368 0 32.378 L 0 32.841 C 0.156 33.084 0.480 33.172 1.214 33.183 C 1.522 33.188 1.706 33.208 1.628 33.228 C 1.548 33.248 1.436 33.311 1.380 33.367 C 1.322 33.424 1.231 33.470 1.177 33.470 C 1.123 33.470 0.599 33.625 0.015 33.812 C 0.009 33.814 0.006 33.814 0 33.816 L 0 34.906 C 0.172 34.941 0.363 34.968 0.529 34.968 C 0.781 34.968 1.226 35.018 1.517 35.078 C 1.819 35.141 2.547 35.198 3.205 35.208 C 3.842 35.219 4.361 35.233 4.361 35.240 C 4.361 35.247 4.166 35.372 3.927 35.517 C 3.642 35.690 3.416 35.855 3.257 36 L 5.609 36 C 5.561 35.954 5.559 35.928 5.654 35.892 C 5.729 35.863 5.829 35.877 5.875 35.923 L 5.873 35.925 C 5.900 35.953 5.908 35.976 5.914 36 L 8.144 36 C 8.402 35.885 8.668 35.789 8.945 35.742 C 9.077 35.719 9.312 35.653 9.468 35.595 C 9.717 35.502 9.809 35.503 10.199 35.603 C 10.652 35.718 12.252 35.758 12.958 35.669 C 13.877 35.554 13.942 35.569 14.232 36 L 15.757 36 C 15.770 35.989 15.789 35.990 15.798 35.978 C 15.884 35.875 15.942 35.909 15.980 36 L 16.408 36 C 16.359 35.941 16.324 35.876 16.324 35.806 C 16.324 35.554 16.939 35.177 17.095 35.333 C 17.176 35.415 17.187 35.770 17.138 36 L 19.351 36 C 19.406 35.919 19.450 35.855 19.503 35.775 C 19.882 35.207 21.442 34.498 22.542 34.394 C 23.267 34.324 23.313 34.437 22.816 35.060 C 22.698 35.208 22.639 35.611 22.648 36 L 23.216 36 L 23.187 35.673 L 23.458 35.673 C 23.771 35.673 24.011 35.477 24.042 35.195 C 24.059 35.040 24.031 35.009 23.876 35.009 C 23.739 35.009 23.691 35.049 23.691 35.158 C 23.691 35.257 23.632 35.315 23.523 35.330 C 23.336 35.357 23.284 35.164 23.460 35.097 C 23.517 35.075 23.604 34.937 23.652 34.791 C 23.770 34.435 23.946 34.444 24.365 34.830 C 24.579 35.027 24.742 35.121 24.816 35.093 C 24.881 35.068 25.088 35.128 25.275 35.228 C 25.602 35.400 25.625 35.403 25.791 35.283 C 26.123 35.042 25.928 34.653 25.441 34.585 C 25.178 34.548 25.126 34.072 25.388 34.082 C 25.929 34.105 26.436 34.726 26.277 35.167 C 26.191 35.404 26.210 35.700 26.289 36 L 26.931 36 C 26.878 35.609 26.911 35.052 27.019 34.986 C 27.054 34.964 27.082 34.886 27.082 34.812 C 27.082 34.737 27.132 34.634 27.193 34.583 C 27.254 34.532 27.304 34.444 27.304 34.386 C 27.304 34.262 27.380 34.161 27.794 33.738 C 27.961 33.567 28.129 33.372 28.167 33.306 C 28.269 33.127 28.948 32.718 29.142 32.718 C 30.047 32.718 31.104 31.383 31.173 30.152 C 31.216 29.390 31.282 29.240 31.705 28.947 C 32.205 28.599 32.298 28.147 31.974 27.640 C 31.744 27.279 31.443 27.010 31.341 27.072 C 31.295 27.100 31.172 27.068 31.070 27.001 C 30.926 26.907 30.685 26.878 30.027 26.873 C 29.139 26.866 29.104 26.854 28.914 26.509 C 28.675 26.076 28.162 25.273 28.042 25.144 C 27.964 25.061 27.902 24.967 27.902 24.935 C 27.902 24.823 26.557 23.527 26.443 23.527 C 26.421 23.527 26.190 23.359 25.929 23.154 C 25.667 22.948 25.431 22.781 25.404 22.781 C 25.376 22.781 25.205 22.679 25.025 22.556 C 24.845 22.432 24.554 22.262 24.378 22.179 C 24.031 22.016 23.374 21.666 22.802 21.341 C 22.605 21.230 22.414 21.140 22.376 21.140 C 22.338 21.140 21.977 20.985 21.576 20.796 C 20.211 20.153 19.341 19.949 17.779 19.908 z M 17.082 20.748 C 18.452 20.710 19.553 20.894 18.515 20.986 C 18.268 21.008 18.107 21.056 18.128 21.099 C 18.150 21.140 18.284 21.162 18.427 21.152 C 18.789 21.124 19.413 21.462 19.675 21.826 C 19.789 21.986 19.962 22.217 20.058 22.337 C 20.387 22.747 20.178 22.826 18.632 22.871 C 18.156 22.885 17.968 22.919 17.939 22.994 C 17.873 23.163 17.933 23.172 18.892 23.160 C 20.444 23.138 20.704 23.018 20.484 22.427 C 20.236 21.761 19.786 21.261 19.292 21.101 C 18.990 21.002 19.297 20.896 19.726 20.949 C 20.099 20.996 20.152 21.025 20.193 21.199 C 20.257 21.459 20.952 22.467 21.164 22.605 C 21.341 22.721 21.711 22.699 22.406 22.535 C 22.746 22.455 22.792 22.410 22.765 22.201 C 22.743 22.033 22.791 22.053 24.068 22.738 C 24.859 23.163 25.226 23.479 25.226 23.732 C 25.226 24.275 25.912 24.827 26.355 24.644 C 26.545 24.565 26.597 24.571 26.722 24.685 C 26.896 24.844 26.913 25.019 26.755 25.019 C 26.693 25.019 26.603 25.111 26.556 25.224 C 26.509 25.337 26.37 25.537 26.25 25.667 C 26.013 25.923 26.017 26.140 26.259 26.140 C 26.444 26.140 27.095 25.443 27.095 25.246 C 27.095 25.162 27.129 25.095 27.169 25.095 C 27.210 25.095 27.242 25.134 27.242 25.183 C 27.242 25.233 27.366 25.401 27.515 25.554 L 27.787 25.832 L 27.533 26.335 C 27.238 26.914 26.581 27.556 26.072 27.763 C 25.665 27.930 25.649 28.135 26.046 28.097 C 26.189 28.083 26.358 28.033 26.419 27.986 C 26.481 27.939 26.616 27.851 26.718 27.794 C 27.264 27.486 27.701 27.087 27.880 26.734 L 28.070 26.357 L 28.199 26.531 C 28.271 26.627 28.396 26.839 28.476 27.001 C 28.772 27.600 29.636 28.236 30.150 28.236 C 30.362 28.236 30.197 27.928 29.853 27.681 C 29.356 27.324 29.423 27.236 30.150 27.285 C 30.840 27.332 31.301 27.551 31.083 27.724 C 30.753 27.985 30.304 28.449 30.304 28.527 C 30.304 28.749 30.541 28.656 30.945 28.277 C 31.451 27.804 31.431 27.813 31.619 28.023 C 31.761 28.181 31.759 28.182 31.427 28.451 C 30.659 29.072 30.453 29.470 30.453 30.318 C 30.453 31.350 28.821 32.361 27.351 32.242 C 26.500 32.173 25.860 32.288 25.322 32.607 C 25.081 32.749 24.544 33.034 24.130 33.240 L 24.138 33.238 C 23.392 33.610 22.783 33.746 22.351 33.644 C 21.883 33.532 21.356 33.346 20.955 33.152 C 20.165 32.770 18.623 32.677 17.898 32.966 C 16.726 33.435 15.368 33.212 13.974 32.324 C 13.303 31.896 12.571 31.290 11.640 30.394 C 10.862 29.645 8.338 29.741 7.242 30.562 C 7.192 30.598 7.094 30.572 7 30.494 C 6.703 30.247 6.859 30.046 7.617 29.693 C 8.671 29.202 8.773 29.180 10.091 29.173 C 11.975 29.162 12.293 29.290 13.230 30.439 C 13.464 30.725 13.718 30.991 13.796 31.027 C 13.874 31.064 13.955 31.149 13.976 31.216 C 14.225 32.000 16.406 32.724 17.462 32.378 C 17.808 32.264 18.208 32.161 18.351 32.150 C 18.494 32.139 18.792 32.087 19.009 32.035 C 19.518 31.913 20.181 32.066 21.154 32.533 C 22.239 33.054 22.364 33.091 22.976 33.091 C 23.639 33.091 24.226 32.852 24.740 32.378 C 25.356 31.809 25.990 31.638 27.507 31.632 C 29.208 31.624 30.489 30.946 30.205 30.205 C 30.151 30.061 29.863 30.263 29.863 30.445 C 29.863 30.497 29.754 30.615 29.621 30.708 C 29.488 30.801 29.360 30.904 29.339 30.935 C 29.139 31.219 28.531 31.311 26.931 31.306 C 26.146 31.303 25.337 31.496 24.974 31.773 C 24.833 31.881 24.699 31.968 24.677 31.968 C 24.654 31.968 24.474 32.080 24.279 32.216 C 23.391 32.839 22.977 32.855 21.804 32.306 C 20.062 31.491 19.316 31.423 17.644 31.933 C 16.704 32.220 16.373 32.177 15.337 31.632 C 14.467 31.173 14.237 30.578 14.632 29.810 C 14.966 29.160 14.909 29.003 14.318 28.949 C 14.133 28.932 13.796 28.881 13.570 28.837 C 13.344 28.791 12.806 28.701 12.375 28.636 C 11.943 28.570 11.381 28.479 11.128 28.437 C 10.730 28.369 10.650 28.376 10.544 28.482 C 10.376 28.650 10.138 28.636 9.939 28.449 L 9.775 28.294 L 9.726 28.449 C 9.677 28.602 9.614 28.629 9.070 28.716 C 8.797 28.761 8.723 28.706 8.857 28.564 C 8.982 28.430 9.032 28.009 8.925 27.982 C 8.693 27.922 7.695 27.601 7.593 27.554 C 6.824 27.199 6.729 26.980 7.107 26.423 C 7.210 26.271 7.294 26.120 7.294 26.087 C 7.294 26.053 7.347 25.948 7.412 25.855 L 7.531 25.687 L 7.742 26.021 C 8.037 26.485 8.739 26.692 9.384 26.509 C 9.533 26.466 9.500 27.251 9.347 27.406 C 9.191 27.563 8.406 27.313 7.914 26.951 C 7.583 26.709 7.216 26.618 7.312 26.804 C 7.325 26.829 7.385 26.948 7.443 27.066 C 7.595 27.373 8.363 27.710 8.910 27.710 C 9.136 27.710 9.383 27.743 9.460 27.783 C 9.619 27.868 9.757 27.696 9.757 27.414 C 9.757 27.329 9.876 27.006 10.019 26.695 C 10.163 26.383 10.279 26.094 10.279 26.054 C 10.279 26.013 10.364 25.870 10.466 25.736 C 10.569 25.601 10.652 25.468 10.652 25.441 C 10.652 25.315 11.731 23.813 11.859 23.761 C 12.344 23.561 12.270 23.270 11.714 23.191 C 10.702 23.046 10.245 22.799 10.546 22.562 C 10.794 22.367 10.800 22.368 11.261 22.566 C 11.895 22.839 13.177 22.747 13.302 22.421 C 13.354 22.289 13.141 22.221 13.011 22.328 C 12.951 22.377 12.659 22.419 12.357 22.421 C 11.361 22.431 11.059 22.084 11.828 21.814 C 11.984 21.760 12.212 21.672 12.335 21.621 C 12.697 21.468 14.235 21.124 14.318 21.175 C 14.362 21.203 14.250 21.383 14.054 21.601 C 13.605 22.099 13.414 22.375 13.472 22.433 C 13.592 22.552 13.792 22.455 14.025 22.169 C 14.567 21.502 15.08 21.000 15.25 20.968 C 15.525 20.915 15.623 21.019 15.423 21.152 C 14.799 21.568 14.110 22.459 14.265 22.648 C 14.904 23.430 16.923 23.211 17.009 22.351 C 17.030 22.136 17.091 21.920 17.140 21.871 C 17.239 21.771 17.260 21.300 17.173 21.162 C 17.143 21.115 16.907 21.034 16.648 20.984 C 15.999 20.856 16.153 20.773 17.082 20.748 z M 17.507 21.146 C 17.404 21.179 17.344 21.354 17.289 21.740 C 17.251 22.001 17.200 22.319 17.177 22.445 C 17.147 22.606 17.171 22.714 17.257 22.800 C 17.452 22.995 17.507 22.951 17.556 22.570 C 17.581 22.375 17.635 22.138 17.673 22.044 C 17.790 21.760 17.759 21.209 17.626 21.158 C 17.581 21.140 17.542 21.135 17.507 21.146 z M 16.152 21.214 C 16.247 21.220 16.359 21.235 16.498 21.257 L 16.787 21.304 L 16.742 21.611 C 16.594 22.602 16.600 22.585 16.322 22.679 C 15.795 22.859 14.679 22.731 14.679 22.492 C 14.679 22.386 15.157 21.798 15.494 21.488 C 15.731 21.270 15.865 21.198 16.152 21.214 z M 20.673 21.222 C 20.877 21.199 22.063 21.634 22.468 21.880 C 22.742 22.047 22.587 22.255 22.189 22.255 C 22.051 22.255 21.917 22.288 21.892 22.328 L 21.888 22.326 C 21.822 22.433 21.362 22.419 21.273 22.308 C 21.231 22.257 21.128 22.081 21.046 21.917 C 20.963 21.753 20.799 21.533 20.683 21.431 L 20.472 21.246 L 20.673 21.222 z M 23.613 23.039 C 23.558 23.031 23.516 23.038 23.494 23.060 C 23.432 23.122 23.464 23.188 23.617 23.314 C 24.264 23.848 25.005 24.726 25.259 25.263 C 25.331 25.416 25.416 25.542 25.447 25.542 C 25.478 25.542 25.526 25.627 25.552 25.732 L 25.556 25.732 C 25.582 25.838 25.644 25.910 25.693 25.894 C 25.828 25.848 25.848 25.393 25.720 25.251 C 25.659 25.183 25.587 25.043 25.562 24.941 C 25.536 24.839 25.383 24.612 25.224 24.437 C 25.063 24.262 24.911 24.042 24.884 23.951 C 24.817 23.731 24.629 23.523 24.5 23.523 C 24.443 23.523 24.332 23.465 24.255 23.394 C 24.054 23.207 23.777 23.061 23.613 23.039 z M 9.796 23.097 C 9.923 23.084 10.061 23.139 10.304 23.255 C 10.507 23.352 10.832 23.456 11.027 23.484 C 11.468 23.549 11.468 23.592 11.023 24.113 C 10.637 24.566 10.125 25.360 9.970 25.744 C 9.917 25.875 9.821 26.003 9.757 26.027 L 9.755 26.027 C 8.347 26.568 8.087 25.019 9.486 24.419 C 10.101 24.155 9.873 23.899 9.085 23.966 C 8.765 23.993 8.863 23.774 9.359 23.357 C 9.554 23.194 9.670 23.111 9.796 23.097 z M 22.316 23.263 C 22.016 23.321 20.898 23.442 20.121 23.498 C 19.843 23.519 19.617 23.565 19.617 23.601 C 19.617 23.679 19.892 24.182 20.021 24.343 C 20.114 24.457 20.218 24.698 20.519 25.501 C 20.686 25.946 20.981 26.532 21.126 26.712 C 21.224 26.831 21.386 26.830 21.425 26.712 C 21.449 26.640 21.533 26.641 21.824 26.714 C 22.533 26.894 23.378 26.724 23.570 26.365 C 23.695 26.132 23.459 26.115 23.195 26.337 C 23.000 26.499 22.938 26.517 22.822 26.445 C 22.746 26.397 22.585 26.357 22.468 26.357 C 21.897 26.357 21.836 25.523 22.363 24.921 C 22.457 24.812 22.459 24.772 22.376 24.671 C 22.291 24.569 22.295 24.540 22.402 24.480 C 22.576 24.383 22.568 24.119 22.392 24.119 C 22.176 24.119 21.259 25.059 21.259 25.279 C 21.259 25.381 21.226 25.462 21.187 25.462 C 21.072 25.462 20.812 25.148 20.812 25.009 C 20.812 24.939 20.710 24.677 20.587 24.429 C 20.286 23.821 20.264 23.847 21.123 23.789 C 21.542 23.760 21.943 23.705 22.015 23.667 C 22.586 23.360 24.358 25.001 24.917 26.351 C 24.979 26.497 25.070 26.585 25.156 26.585 C 25.328 26.585 25.341 26.338 25.183 26.035 C 25.121 25.916 25.070 25.782 25.070 25.736 C 25.069 25.690 24.953 25.504 24.810 25.324 C 24.666 25.143 24.550 24.972 24.550 24.943 C 24.550 24.886 24.326 24.635 23.699 23.982 C 23.197 23.459 22.682 23.192 22.316 23.263 z M 13.271 23.488 C 13.158 23.601 13.379 23.742 13.742 23.787 C 13.971 23.815 14.172 23.859 14.187 23.884 L 14.189 23.884 C 14.227 23.947 15.117 23.931 15.181 23.867 C 15.320 23.728 14.952 23.609 14.158 23.537 C 13.685 23.494 13.286 23.473 13.271 23.488 z M 12.591 23.494 C 12.469 23.500 12.130 23.788 11.666 24.351 C 11.298 24.799 10.667 26.219 10.593 26.773 C 10.582 26.856 10.552 27.029 10.527 27.156 C 10.415 27.707 11.489 28.210 13.035 28.330 L 13.037 28.326 C 13.794 28.385 14.902 28.228 15.058 28.039 C 15.182 27.889 15.079 27.764 14.908 27.855 C 13.886 28.401 10.273 27.370 10.855 26.699 C 10.927 26.616 11.063 26.380 11.156 26.175 C 11.249 25.970 11.354 25.750 11.390 25.689 C 11.427 25.627 11.529 25.432 11.617 25.257 C 11.705 25.081 11.977 24.661 12.218 24.324 C 12.620 23.763 12.714 23.487 12.591 23.494 z M 16.398 23.582 C 16.297 23.596 16.255 23.626 16.255 23.675 C 16.255 23.792 16.987 23.926 17.849 23.968 L 18.732 24.011 L 19.105 24.871 C 19.311 25.344 19.510 25.849 19.550 25.992 C 19.590 26.136 19.653 26.320 19.689 26.402 C 19.726 26.484 19.793 26.786 19.839 27.072 C 19.886 27.359 19.962 27.638 20.007 27.693 C 20.283 28.015 20.275 26.402 19.998 25.859 C 19.910 25.686 19.839 25.497 19.839 25.439 C 19.839 25.381 19.787 25.290 19.724 25.238 C 19.661 25.185 19.625 25.104 19.642 25.058 C 19.660 25.011 19.628 24.909 19.572 24.832 C 19.515 24.754 19.468 24.619 19.468 24.533 C 19.468 24.447 19.431 24.339 19.386 24.294 C 19.340 24.248 19.263 24.133 19.216 24.039 C 19.069 23.746 18.670 23.525 18.398 23.585 C 18.157 23.639 17.693 23.639 16.890 23.585 C 16.657 23.569 16.498 23.567 16.398 23.582 z M 15.968 23.763 C 15.899 23.776 15.817 23.872 15.789 23.974 C 15.761 24.075 15.735 24.107 15.732 24.044 C 15.713 23.760 15.275 23.695 15.275 23.978 C 15.275 24.053 15.241 24.135 15.201 24.160 C 15.160 24.185 15.128 24.280 15.128 24.371 C 15.128 24.462 15.079 24.605 15.021 24.689 C 14.843 24.945 14.733 27.492 14.894 27.619 L 14.892 27.621 C 15.046 27.742 15.099 27.531 15.164 26.552 C 15.223 25.664 15.349 24.871 15.427 24.871 C 15.462 24.871 15.501 24.747 15.513 24.597 C 15.526 24.446 15.577 24.308 15.628 24.292 C 15.751 24.252 15.743 24.463 15.607 24.835 C 15.546 25.000 15.476 25.404 15.451 25.732 C 15.425 26.061 15.375 26.367 15.341 26.410 C 15.249 26.528 15.354 27.473 15.468 27.568 C 15.653 27.721 15.722 27.555 15.722 26.955 C 15.722 26.270 15.834 25.429 15.988 24.962 C 16.146 24.484 16.134 23.732 15.968 23.763 z M 25.644 23.824 C 25.756 23.824 26.187 24.211 26.152 24.277 C 26.087 24.380 26.008 24.360 25.792 24.191 C 25.615 24.051 25.523 23.824 25.644 23.824 z M 8.658 24.527 C 8.679 24.530 8.691 24.544 8.691 24.576 C 8.691 24.616 8.667 24.648 8.636 24.648 C 8.579 24.648 8.511 24.762 8.287 25.238 C 8.193 25.441 8.187 25.549 8.25 25.787 L 8.248 25.785 C 8.348 26.154 8.324 26.181 8.107 25.937 C 7.995 25.811 7.951 25.687 7.978 25.587 C 8.001 25.501 8.019 25.398 8.019 25.357 C 8.020 25.316 8.100 25.196 8.197 25.091 C 8.294 24.985 8.396 24.829 8.423 24.744 C 8.462 24.623 8.594 24.518 8.658 24.527 z M 13.281 24.617 C 13.207 24.627 13.098 24.663 12.937 24.724 C 11.568 25.248 11.124 26.730 12.162 27.312 L 12.164 27.314 C 12.515 27.511 13.923 27.366 14.201 27.105 C 14.546 26.782 14.394 26.629 13.980 26.882 C 13.760 27.017 13.512 27.064 13.136 27.046 C 12.331 27.006 12.331 26.112 13.136 25.470 C 13.363 25.288 13.531 25.112 13.511 25.080 C 13.447 24.977 13.181 25.013 13.136 25.130 C 13.112 25.191 13.051 25.242 13.001 25.242 C 12.629 25.242 12.076 26.182 12.214 26.574 C 12.313 26.854 12.260 26.966 12.105 26.806 C 11.642 26.330 12.536 24.867 13.289 24.867 C 13.431 24.867 13.488 24.772 13.416 24.656 C 13.394 24.620 13.355 24.606 13.281 24.617 z M 17.818 24.736 C 17.728 24.747 17.600 24.788 17.433 24.861 C 15.897 25.528 15.852 27.423 17.371 27.505 L 17.371 27.509 C 17.638 27.524 17.901 27.541 17.953 27.548 C 18.228 27.589 19.089 26.924 19.089 26.671 C 19.089 26.470 18.892 26.518 18.683 26.767 C 18.252 27.279 17.906 27.357 17.494 27.033 C 16.940 26.597 16.965 26.053 17.568 25.410 C 18.007 24.942 18.087 24.703 17.818 24.736 z M 21.941 24.884 C 22.011 24.888 21.977 24.990 21.839 25.251 C 21.743 25.431 21.654 25.730 21.642 25.914 C 21.616 26.280 21.606 26.311 21.533 26.238 C 21.368 26.072 21.613 24.995 21.835 24.910 C 21.882 24.892 21.918 24.883 21.941 24.884 z M 16.708 26.076 C 16.747 26.090 16.776 26.195 16.777 26.382 C 16.778 26.556 16.828 26.766 16.888 26.845 C 16.948 26.925 16.998 27.018 16.998 27.050 C 16.998 27.177 16.864 27.102 16.693 26.878 C 16.494 26.615 16.498 26.638 16.578 26.308 C 16.620 26.137 16.670 26.061 16.708 26.076 z M 23.605 26.966 C 23.511 26.967 23.330 27.015 23.029 27.111 C 22.775 27.192 22.365 27.285 22.119 27.316 C 21.769 27.361 21.666 27.404 21.646 27.511 L 21.644 27.513 C 21.579 27.859 23.456 27.479 23.654 27.107 C 23.704 27.013 23.698 26.966 23.605 26.966 z M 6.667 27.458 L 7.138 27.695 C 7.397 27.826 7.793 27.991 8.019 28.060 C 8.571 28.230 8.593 28.257 8.425 28.609 C 8.324 28.819 8.210 28.933 8.044 28.988 C 7.913 29.032 7.680 29.167 7.529 29.287 C 7.376 29.408 7.221 29.507 7.185 29.507 C 7.100 29.507 6.939 29.634 6.689 29.898 L 6.687 29.900 C 6.440 30.161 6.420 30.159 5.933 29.820 C 5.456 29.488 5.422 29.420 5.626 29.216 C 5.710 29.131 5.779 29.008 5.779 28.945 C 5.779 28.822 6.273 27.955 6.521 27.644 L 6.667 27.458 z M 28.087 27.597 C 28.053 27.588 28.001 27.590 27.931 27.607 C 26.807 27.877 26.436 29.286 27.414 29.568 C 27.663 29.639 27.796 29.621 28.191 29.460 C 28.529 29.322 28.515 29.104 28.156 28.929 C 27.916 28.811 27.872 28.753 27.853 28.513 C 27.822 28.124 27.643 28.144 27.576 28.544 C 27.531 28.810 27.547 28.877 27.681 28.986 C 27.892 29.157 27.881 29.277 27.656 29.277 C 27.443 29.277 27.167 29.013 27.167 28.810 C 27.167 28.575 27.496 28.082 27.652 28.082 C 27.676 28.082 27.796 28.008 27.917 27.919 C 28.132 27.760 28.190 27.626 28.087 27.597 z M 19.410 27.816 C 19.169 27.890 16.967 27.933 16.533 27.871 C 16.298 27.839 16.067 27.835 16.021 27.863 C 15.891 27.943 16.075 28.232 16.255 28.232 C 16.337 28.232 16.421 28.275 16.441 28.328 L 16.443 28.328 C 16.491 28.453 18.180 28.49 18.605 28.375 C 18.770 28.33 19.005 28.271 19.128 28.244 C 19.480 28.166 19.643 28.043 19.589 27.900 C 19.559 27.821 19.491 27.791 19.410 27.816 z M 25.220 28.064 C 25.002 28.006 24.951 28.209 25.134 28.408 C 25.306 28.595 25.599 29.126 25.599 29.25 C 25.599 29.295 25.666 29.393 25.746 29.466 C 25.827 29.539 25.915 29.671 25.941 29.757 C 25.967 29.844 26.041 29.973 26.103 30.044 L 26.105 30.048 C 26.401 30.387 26.564 30.115 26.343 29.652 C 25.893 28.710 25.484 28.133 25.220 28.064 z M 0.623 28.121 C 0.478 28.105 0.284 28.112 0 28.126 L 0 28.462 C 0.248 28.448 0.676 28.519 0.955 28.650 C 1.494 28.906 1.530 28.960 1.472 29.460 L 1.470 29.460 C 1.413 29.943 1.321 30.002 1.25 29.599 C 1.195 29.286 0.890 28.833 0.738 28.833 C 0.683 28.833 0.596 28.781 0.544 28.718 C 0.491 28.655 0.360 28.609 0.255 28.615 C 0.136 28.622 0.069 28.617 0 28.613 L 0 29.398 C 0.376 29.480 0.973 29.885 1.078 30.162 C 1.258 30.633 1.612 30.329 1.849 29.501 C 1.943 29.174 2.019 29.052 2.175 28.978 C 2.376 28.880 2.497 28.291 2.304 28.339 C 2.263 28.348 2.241 28.398 2.251 28.445 C 2.306 28.684 1.941 28.771 1.845 28.541 C 1.742 28.296 1.536 28.174 1.453 28.310 C 1.413 28.374 1.301 28.356 1.042 28.242 C 0.887 28.174 0.775 28.137 0.623 28.121 z M 24.310 28.173 C 24.277 28.159 23.958 28.238 23.601 28.349 C 22.873 28.576 22.391 28.652 21.042 28.755 C 20.047 28.832 19.906 28.884 20.113 29.091 C 20.230 29.207 20.356 29.217 21.257 29.183 C 22.255 29.144 22.439 29.116 23.605 28.810 C 24.399 28.602 24.737 28.912 25.304 30.371 L 25.302 30.373 C 25.552 31.013 25.750 31.178 25.804 30.792 C 25.834 30.578 25.558 29.754 25.367 29.488 C 25.287 29.377 25.222 29.250 25.222 29.208 C 25.222 29.129 24.420 28.218 24.310 28.173 z M 3 28.300 C 3.051 28.299 3.111 28.321 3.173 28.373 C 3.419 28.580 3.473 28.734 3.343 28.865 C 3.165 29.043 2.943 29.010 2.861 28.792 C 2.758 28.522 2.845 28.304 3 28.300 z M 29.576 28.529 C 29.462 28.540 29.328 28.714 29.328 28.908 C 29.328 29.078 29.031 29.604 28.871 29.716 C 28.795 29.770 28.732 29.863 28.732 29.921 C 28.732 29.981 28.707 30.028 28.677 30.029 C 28.646 30.030 28.491 30.149 28.333 30.291 C 28.175 30.434 28.000 30.550 27.947 30.550 C 27.816 30.550 27.615 30.757 27.615 30.890 L 27.609 30.894 C 27.609 31.153 28.283 30.868 28.857 30.365 C 29.495 29.808 29.911 28.898 29.677 28.578 C 29.649 28.539 29.614 28.525 29.576 28.529 z M 12.789 28.992 C 13.041 28.969 13.414 29.002 13.685 29.113 C 13.817 29.167 14.015 29.210 14.123 29.210 C 14.338 29.210 14.336 29.162 14.154 29.882 C 14.110 30.067 14.090 30.310 14.111 30.423 L 14.111 30.425 C 14.174 30.743 13.990 30.680 13.662 30.275 C 13.194 29.698 12.821 29.315 12.623 29.210 C 12.406 29.095 12.536 29.015 12.789 28.992 z M 18.453 29.033 C 18.367 29.033 18.275 29.041 18.175 29.058 C 17.895 29.107 17.188 29.136 16.574 29.125 L 15.474 29.105 L 15.287 29.398 C 15.184 29.561 15.069 29.845 15.035 30.029 C 15.000 30.214 14.954 30.451 14.933 30.554 C 14.907 30.678 14.946 30.808 15.050 30.941 L 15.050 30.945 C 15.269 31.222 15.426 31.143 15.431 30.753 C 15.444 29.865 15.623 29.303 15.861 29.400 C 15.963 29.442 16.333 29.486 16.884 29.523 C 16.925 29.525 17.333 29.502 17.789 29.472 C 18.458 29.426 18.632 29.435 18.683 29.517 C 18.810 29.718 19.005 30.374 19.054 30.759 C 19.148 31.497 19.448 31.251 19.396 30.480 C 19.327 29.468 19.053 29.033 18.453 29.033 z M 19.685 29.138 C 19.662 29.140 19.641 29.150 19.623 29.169 C 19.464 29.333 19.826 30.673 20.123 31.017 L 20.125 31.017 C 20.402 31.339 20.414 31.121 20.183 30.029 C 20.076 29.526 19.843 29.126 19.685 29.138 z M 30.062 29.294 C 29.955 29.274 29.933 29.323 29.933 29.572 L 29.931 29.572 C 29.931 29.881 29.967 29.923 30.142 29.812 C 30.285 29.722 30.223 29.324 30.062 29.294 z M 22.191 29.402 C 22.111 29.388 21.970 29.415 21.804 29.490 C 20.393 30.130 20.414 31.468 21.837 31.818 L 21.839 31.810 C 22.624 32.003 23.795 31.577 23.470 31.218 C 23.352 31.088 23.354 31.078 23.492 31.035 C 23.632 30.990 23.766 30.783 23.699 30.716 C 23.682 30.699 23.524 30.757 23.351 30.845 C 22.828 31.111 21.952 31.117 22.115 30.853 C 22.143 30.807 22.245 30.771 22.339 30.771 C 22.561 30.771 22.731 30.587 22.591 30.501 C 22.537 30.468 22.404 30.452 22.296 30.462 C 21.897 30.504 22.056 30.037 22.486 29.904 C 22.636 29.857 22.751 29.743 22.753 29.640 C 22.754 29.614 22.611 29.611 22.437 29.634 C 22.158 29.672 22.133 29.663 22.216 29.562 C 22.292 29.471 22.271 29.416 22.191 29.402 z M 4.310 29.421 L 4.494 29.605 C 4.692 29.805 4.734 30.112 4.585 30.291 L 4.587 30.292 C 4.224 30.730 3.846 30.209 4.150 29.693 L 4.310 29.421 z M 3.031 29.656 C 2.876 29.659 2.767 29.798 2.843 29.892 C 3.003 30.092 3.039 30.621 2.896 30.675 C 2.666 30.763 2.471 30.428 2.527 30.050 C 2.581 29.691 2.554 29.667 2.341 29.880 C 2.123 30.097 2.135 30.593 2.359 30.712 C 2.452 30.762 2.561 30.845 2.601 30.896 C 2.642 30.948 2.761 31.004 2.863 31.021 L 2.865 31.023 C 2.967 31.041 3.058 31.059 3.064 31.064 C 3.153 31.136 3.377 30.524 3.339 30.318 C 3.284 30.027 3.110 29.655 3.031 29.656 z M 16.666 29.726 C 16.467 29.739 16.048 29.984 15.876 30.234 C 15.498 30.783 15.695 31.598 16.207 31.601 C 16.292 31.601 16.413 31.634 16.474 31.673 L 16.474 31.667 C 16.867 31.922 18.026 31.581 17.986 31.224 C 17.957 30.968 17.941 30.964 17.535 31.109 C 17.094 31.267 16.716 31.218 16.419 30.962 L 16.214 30.785 L 16.421 30.568 C 16.535 30.448 16.787 30.269 16.980 30.173 L 17.332 29.998 L 17.052 29.931 C 16.897 29.894 16.773 29.834 16.773 29.798 C 16.773 29.743 16.732 29.722 16.666 29.726 z M 21.978 29.736 L 22.195 29.736 L 21.902 29.984 L 21.609 30.232 L 21.734 30.498 C 21.803 30.644 21.859 30.830 21.859 30.910 C 21.859 31.143 22.008 31.214 22.628 31.269 C 23.163 31.317 23.194 31.329 23.050 31.429 L 23.052 31.433 C 22.468 31.842 21.111 31.413 21.111 30.820 C 21.111 30.373 21.622 29.735 21.978 29.736 z M 0 29.949 L 0 31.066 C 0.002 31.066 0.005 31.066 0.007 31.066 C 0.386 31.042 0.525 30.842 0.195 30.796 C 0.012 30.769 -0.021 30.639 0.119 30.498 C 0.190 30.426 0.190 30.376 0.119 30.261 C 0.068 30.181 0.027 30.065 0.027 30.007 C 0.027 29.993 0.009 29.969 0 29.949 z M 5.564 30.333 C 5.652 30.344 5.744 30.405 5.792 30.511 C 5.900 30.749 5.834 30.907 5.578 31.019 C 5.464 31.069 5.353 31.129 5.333 31.152 C 5.312 31.175 5.242 31.140 5.179 31.074 C 5.068 30.960 5.105 30.766 5.263 30.628 C 5.287 30.608 5.329 30.531 5.355 30.460 C 5.390 30.364 5.476 30.323 5.564 30.333 z M 1.771 30.437 C 1.688 30.428 1.522 30.518 1.289 30.748 C 0.861 31.167 0.378 31.402 0 31.419 L 0 31.757 C 0.490 31.803 1.042 31.590 1.441 31.158 C 1.820 30.748 1.909 30.452 1.771 30.437 z M 11.607 31.257 C 11.699 31.267 11.666 31.346 11.431 31.488 C 11.046 31.722 10.966 31.868 11.164 31.974 C 11.249 32.020 11.296 32.088 11.273 32.126 L 11.275 32.128 C 11.199 32.250 10.663 32.211 10.613 32.080 C 10.5 31.783 10.568 31.676 11.023 31.447 C 11.296 31.308 11.515 31.248 11.607 31.257 z M 3.714 31.312 C 3.218 31.293 2.990 31.649 3.367 31.853 C 3.671 32.018 3.786 31.995 3.935 31.742 C 4.114 31.439 4.056 31.324 3.714 31.312 z M 2.488 31.515 C 2.441 31.531 2.373 31.587 2.255 31.693 C 1.807 32.093 1.701 32.133 1.550 31.966 C 1.478 31.886 1.391 31.822 1.357 31.822 C 1.238 31.822 1.293 32.187 1.423 32.263 L 1.423 32.265 C 1.788 32.477 2.770 31.899 2.591 31.578 C 2.561 31.523 2.535 31.499 2.488 31.515 z M 9.277 31.986 C 9.577 31.957 9.586 32.083 9.298 32.232 C 9.013 32.381 8.984 32.374 9.011 32.177 C 9.029 32.048 9.091 32.003 9.277 31.986 z M 4.794 32.050 C 4.632 32.050 4.208 32.431 4.208 32.576 C 4.208 32.656 4.158 32.722 4.099 32.722 C 4.004 32.722 3.835 32.933 3.835 33.050 C 3.835 33.072 3.929 33.139 4.041 33.199 C 4.331 33.356 5.099 32.975 5.103 32.673 C 5.106 32.529 4.889 32.497 4.814 32.632 C 4.762 32.722 4.717 32.735 4.660 32.679 C 4.602 32.621 4.622 32.560 4.730 32.462 C 4.892 32.314 4.934 32.050 4.794 32.050 z M 11.880 32.208 C 11.909 32.219 11.907 32.249 11.886 32.304 C 11.858 32.375 11.837 32.448 11.837 32.464 C 11.837 32.482 11.751 32.494 11.648 32.494 L 11.646 32.494 C 11.542 32.494 11.382 32.545 11.289 32.605 C 11.139 32.704 11.100 32.703 10.955 32.601 C 10.715 32.433 10.753 32.366 11.109 32.322 C 11.284 32.300 11.541 32.258 11.681 32.230 C 11.791 32.207 11.851 32.198 11.880 32.208 z M 4.572 32.759 C 4.596 32.783 4.565 32.833 4.505 32.871 C 4.366 32.958 4.283 32.960 4.283 32.876 C 4.283 32.793 4.514 32.701 4.572 32.759 z M 13.564 32.916 C 13.708 33.004 13.087 33.468 12.826 33.468 C 12.733 33.468 12.658 33.497 12.658 33.533 C 12.658 33.569 12.582 33.617 12.490 33.638 L 12.486 33.640 C 12.394 33.662 12.244 33.702 12.152 33.730 C 12.029 33.768 11.984 33.753 11.984 33.671 C 11.984 33.603 12.084 33.539 12.238 33.511 C 12.516 33.459 13.376 33.051 13.445 32.939 C 13.469 32.902 13.523 32.891 13.564 32.916 z M 26.628 33.216 C 26.996 33.250 27.375 33.446 27.162 33.578 C 27.122 33.602 27.091 33.587 27.091 33.544 C 27.091 33.446 26.668 33.443 26.607 33.542 L 26.605 33.537 C 26.504 33.700 26.046 33.571 26.046 33.382 C 26.046 33.353 26.154 33.292 26.287 33.246 C 26.384 33.212 26.506 33.205 26.628 33.216 z M 14.056 33.660 C 14.118 33.661 14.184 33.733 14.275 33.875 C 14.428 34.117 14.427 34.126 14.294 34.300 C 14.110 34.541 14.120 34.628 14.351 34.810 C 14.549 34.964 14.900 35.020 14.900 34.896 C 14.900 34.797 15.127 34.731 15.285 34.781 C 15.509 34.852 15.445 34.953 15.144 35.007 C 14.990 35.034 14.776 35.121 14.667 35.197 L 14.667 35.199 C 14.557 35.276 14.457 35.333 14.443 35.330 C 14.429 35.326 14.268 35.240 14.087 35.140 C 13.704 34.929 13.367 34.929 13.384 35.140 C 13.394 35.257 13.358 35.269 13.123 35.228 C 12.972 35.202 12.446 35.164 11.953 35.144 C 10.859 35.097 10.774 35.074 11.029 34.904 C 11.135 34.834 11.329 34.669 11.460 34.537 C 11.677 34.318 12.062 34.154 12.484 34.103 C 12.572 34.092 12.710 34.046 12.792 34.003 C 12.907 33.942 13.008 33.957 13.230 34.064 C 13.562 34.226 13.722 34.177 13.871 33.869 C 13.939 33.729 13.995 33.659 14.056 33.660 z M 25.906 33.664 C 25.942 33.688 25.954 33.737 25.931 33.775 C 25.875 33.860 25.695 33.863 25.642 33.777 C 25.592 33.696 25.810 33.604 25.906 33.664 z M 26.867 33.697 C 27.041 33.697 26.852 34.131 26.582 34.349 C 26.411 34.487 26.345 34.464 26.345 34.269 C 26.345 34.100 26.712 33.697 26.867 33.697 z M 18.472 33.716 C 18.961 33.684 20.342 34.043 20.414 34.261 C 20.441 34.342 19.637 34.591 19.351 34.591 C 19.243 34.591 19.100 34.621 19.031 34.656 C 18.858 34.747 17.870 34.837 17.802 34.769 C 17.771 34.739 17.746 34.624 17.746 34.517 C 17.746 34.410 17.708 34.284 17.662 34.238 C 17.520 34.096 17.646 33.940 17.947 33.884 C 18.104 33.854 18.274 33.796 18.324 33.755 C 18.351 33.733 18.402 33.721 18.472 33.716 z M 16.714 34.177 C 16.997 34.161 17.302 34.283 17.396 34.558 C 17.526 34.939 17.509 34.956 17.240 34.707 C 16.994 34.479 16.921 34.519 16.921 34.882 C 16.921 35.145 16.908 35.163 16.730 35.130 L 16.728 35.130 C 16.591 35.103 16.479 35.149 16.332 35.289 C 16.115 35.496 16.039 35.479 15.808 35.173 C 15.726 35.064 15.745 35.031 15.943 34.929 C 16.104 34.846 16.171 34.755 16.171 34.628 C 16.171 34.348 16.432 34.194 16.714 34.177 z M 15.720 34.380 C 15.748 34.377 15.774 34.386 15.796 34.408 C 15.905 34.517 15.781 34.669 15.650 34.589 C 15.564 34.535 15.561 34.502 15.634 34.429 C 15.664 34.401 15.692 34.384 15.720 34.380 z M 24.884 34.408 C 24.918 34.405 24.944 34.414 24.955 34.431 C 25.002 34.515 24.744 34.756 24.677 34.689 C 24.591 34.603 24.622 34.523 24.771 34.443 C 24.810 34.422 24.851 34.410 24.884 34.408 z M 25.560 34.814 C 25.621 34.814 25.671 34.844 25.671 34.880 C 25.671 34.917 25.621 34.965 25.560 34.988 C 25.492 35.014 25.449 34.989 25.449 34.923 C 25.449 34.863 25.499 34.814 25.560 34.814 z M 15.277 35.339 C 15.458 35.350 15.618 35.415 15.634 35.529 C 15.649 35.635 15.596 35.711 15.464 35.771 L 15.462 35.771 C 14.965 35.998 14.508 35.797 14.796 35.480 C 14.893 35.373 15.096 35.329 15.277 35.339 z M 24.761 35.458 C 24.642 35.441 24.491 35.504 24.287 35.644 C 24.118 35.760 24.009 35.879 23.933 36 L 24.304 36 C 24.325 35.983 24.339 35.965 24.363 35.949 C 24.677 35.734 24.874 35.794 24.832 36 L 25.085 36 C 25.086 35.918 25.077 35.836 25.044 35.757 C 24.968 35.575 24.880 35.476 24.761 35.458 z M 4.708 35.576 C 4.736 35.564 4.761 35.561 4.775 35.576 C 4.795 35.597 4.791 35.667 4.767 35.730 C 4.708 35.881 4.511 35.958 4.511 35.828 C 4.511 35.744 4.626 35.612 4.708 35.576 z M 25.720 35.888 C 25.672 35.886 25.620 35.897 25.566 35.921 C 25.530 35.938 25.501 35.969 25.472 36 L 25.906 36 C 25.861 35.935 25.799 35.892 25.720 35.888 z M 0 35.890 L 0 36 L 0.167 36 C 0.157 35.990 0.147 35.986 0.136 35.976 C 0.098 35.940 0.048 35.916 0 35.890 z M 1.603 35.994 C 1.540 35.984 1.470 35.986 1.398 36 L 1.619 36 C 1.613 35.998 1.609 35.995 1.603 35.994 z " style="fill:#333333;stroke-width:0.644" />
<path id="path4743" d="M 0 0 L 0 36 L 0.292 36 L 8.353 0 L 0 0 z M 36 1.130 L 15.867 36 L 28.148 36 L 36 27.466 L 36 1.130 z " style="fill:#f9f130;fill-opacity:0.110;fill-rule:evenodd;stroke:none;stroke-width:1.909;stroke-linecap:butt;stroke-linejoin:miter" />
</svg>
