<?xml version="1.0" encoding="UTF-8" standalone="no"?>
<svg xmlns:dc="http://purl.org/dc/elements/1.1/" xmlns:cc="http://creativecommons.org/ns#" xmlns:rdf="http://www.w3.org/1999/02/22-rdf-syntax-ns#" xmlns:svg="http://www.w3.org/2000/svg" xmlns="http://www.w3.org/2000/svg" viewBox="0 0 36 36" version="1.1" id="svg8" width="100%" height="100%" >
<defs id="defs2" />
<path id="rect2892" d="M 0 0 L 0 36 L 36 36 L 36 0 L 0 0 z " style="fill:#ffffff;fill-opacity:0.994;stroke:none;stroke-width:0.600;stroke-linejoin:round" />
<path id="rect3757" d="M 0 0 L 0 36 L 36 36 L 36 0 L 0 0 z " style="fill:#526e79;stroke-width:1.855" />
<path id="use4789" d="M 4.056 0 L 4.056 36 L 14.824 36 L 14.824 0 L 4.056 0 z M 27.056 0 L 27.056 36 L 36 36 L 36 0 L 27.056 0 z " style="color:#000000;solid-color:#000000;solid-opacity:1;fill:#5a7580;fill-rule:evenodd;stroke:none;stroke-width:3.740;stroke-linecap:round;stroke-linejoin:miter;marker:none;marker-start:none;marker-mid:none;marker-end:none" />
<path id="path4225" d="M 68.226,-6.865" style="clip-rule:evenodd;fill:#557c3e;fill-rule:evenodd;stroke-width:0.644" />
<path id="path4227" d="M 76.447,3.426" style="clip-rule:evenodd;fill:#557c3e;fill-rule:evenodd;stroke-width:0.644" />
<path id="path4229" d="M 66.415,0.385" style="clip-rule:evenodd;fill:#557c3e;fill-rule:evenodd;stroke-width:0.644" />
<path id="rect4489" d="M 0 18.755 L 0 21.298 L 36 21.298 L 36 18.755 L 0 18.755 z " style="color:#000000;font-size:medium;font-family:sans-serif;text-indent:0;text-align:start;text-decoration:none;text-decoration-line:none;text-decoration-style:solid;text-decoration-color:#000000;text-transform:none;writing-mode:lr-tb;direction:ltr;text-orientation:mixed;baseline-shift:baseline;text-anchor:start;shape-padding:0;solid-color:#000000;solid-opacity:1;vector-effect:none;fill:#ffffff;fill-rule:nonzero;stroke:none;stroke-width:2.543;stroke-linecap:butt;stroke-linejoin:miter" />
<path id="rect0001" d="M 0 0 L 0 20.027 L 36 20.027 L 36 0 L 0 0 z " style="fill:#335779;stroke-width:0.164" />
<path id="path4386" d="M 17.779 0 C 16.959 0.403 16.200 0.777 15.933 1.628 C 17.180 0.811 18.350 0.298 19.429 0 L 17.779 0 z M 24.431 0 C 25.168 0.206 25.780 0.459 26.226 0.664 C 27.748 1.361 31.336 1.596 34.556 0 L 33.695 0 C 32.047 0.425 29.791 0.890 28.730 0 L 24.431 0 z " style="fill:#6292b0;stroke-width:0.081;stroke-linecap:round;stroke-linejoin:round;marker:none" />
<path id="rect4819" d="M 0.796 4.855 C 0.747 4.855 0.710 4.967 0.707 5.111 C 0.622 5.134 0.560 5.191 0.560 5.255 C 0.560 5.319 0.621 5.371 0.708 5.394 L 0.708 5.474 C 0.622 5.506 0.560 5.583 0.560 5.677 C 0.560 5.769 0.621 5.847 0.708 5.880 L 0.708 6.367 L 0 6.367 L 0 6.542 L 0.708 6.542 L 0.708 7.308 L 0 7.308 L 0 7.482 L 0.691 7.482 L 0.691 7.794 L 0 7.794 L 0 20.025 L 36 20.025 L 36 4.951 C 35.955 4.966 35.919 5.064 35.917 5.197 C 35.832 5.220 35.775 5.276 35.775 5.339 C 35.775 5.403 35.833 5.455 35.919 5.478 L 35.919 5.560 C 35.833 5.592 35.775 5.668 35.775 5.761 C 35.775 5.854 35.833 5.933 35.919 5.966 L 35.919 6.367 L 35.050 6.367 L 35.050 6.072 C 35.136 6.040 35.199 5.962 35.199 5.869 C 35.199 5.776 35.137 5.700 35.050 5.667 L 35.050 5.585 C 35.136 5.563 35.199 5.511 35.199 5.447 C 35.199 5.384 35.139 5.328 35.054 5.304 C 35.052 5.161 35.013 5.048 34.964 5.048 C 34.915 5.048 34.872 5.161 34.869 5.304 C 34.784 5.327 34.728 5.383 34.728 5.447 C 34.728 5.511 34.786 5.562 34.873 5.585 L 34.873 5.667 C 34.787 5.699 34.728 5.776 34.728 5.869 C 34.728 5.962 34.786 6.039 34.873 6.072 L 34.873 6.367 L 34.001 6.367 L 34.001 5.949 C 34.087 5.917 34.150 5.837 34.150 5.744 C 34.150 5.651 34.088 5.576 34.001 5.544 L 34.001 5.462 C 34.087 5.440 34.150 5.388 34.150 5.324 C 34.150 5.261 34.088 5.205 34.003 5.181 C 34.001 5.038 33.963 4.923 33.914 4.923 C 33.865 4.923 33.822 5.037 33.820 5.181 C 33.735 5.204 33.679 5.260 33.679 5.324 C 33.679 5.388 33.737 5.439 33.824 5.462 L 33.824 5.544 C 33.738 5.576 33.679 5.651 33.679 5.744 C 33.679 5.837 33.737 5.916 33.824 5.949 L 33.824 6.367 L 32.943 6.367 L 32.943 5.880 C 33.029 5.848 33.093 5.770 33.093 5.677 C 33.093 5.584 33.029 5.507 32.943 5.474 L 32.943 5.394 C 33.029 5.372 33.093 5.319 33.093 5.255 C 33.093 5.192 33.032 5.135 32.947 5.111 C 32.945 4.968 32.906 4.855 32.857 4.855 C 32.808 4.855 32.765 4.967 32.763 5.111 C 32.678 5.134 32.621 5.191 32.621 5.255 C 32.621 5.319 32.680 5.371 32.767 5.394 L 32.767 5.474 C 32.681 5.506 32.621 5.584 32.621 5.677 C 32.621 5.770 32.680 5.847 32.767 5.880 L 32.767 6.367 L 31.873 6.367 L 31.873 5.880 C 31.959 5.848 32.017 5.770 32.017 5.677 C 32.017 5.585 31.959 5.507 31.873 5.474 L 31.873 5.394 C 31.959 5.372 32.017 5.319 32.017 5.255 C 32.017 5.192 31.96 5.135 31.875 5.111 C 31.873 4.968 31.832 4.855 31.783 4.855 C 31.734 4.855 31.694 4.967 31.691 5.111 C 31.606 5.134 31.546 5.191 31.546 5.255 C 31.546 5.319 31.610 5.371 31.697 5.394 L 31.697 5.474 C 31.611 5.506 31.546 5.583 31.546 5.677 C 31.546 5.769 31.610 5.847 31.697 5.880 L 31.697 6.367 L 30.828 6.367 L 30.828 5.949 C 30.914 5.917 30.972 5.837 30.972 5.744 C 30.972 5.652 30.914 5.577 30.828 5.544 L 30.828 5.462 C 30.914 5.440 30.972 5.388 30.972 5.324 C 30.972 5.261 30.915 5.205 30.830 5.181 C 30.828 5.038 30.787 4.923 30.738 4.923 L 30.736 4.923 C 30.687 4.923 30.649 5.037 30.646 5.181 C 30.561 5.204 30.501 5.260 30.501 5.324 C 30.501 5.388 30.563 5.439 30.650 5.462 L 30.650 5.544 C 30.564 5.576 30.501 5.651 30.501 5.744 C 30.501 5.836 30.563 5.916 30.650 5.949 L 30.650 6.367 L 29.777 6.367 L 29.777 6.072 C 29.863 6.040 29.923 5.962 29.923 5.869 C 29.923 5.777 29.864 5.700 29.777 5.667 L 29.777 5.585 C 29.863 5.563 29.923 5.511 29.923 5.447 C 29.923 5.384 29.866 5.328 29.781 5.304 C 29.779 5.161 29.737 5.048 29.687 5.048 C 29.638 5.048 29.600 5.161 29.597 5.304 C 29.512 5.327 29.451 5.383 29.451 5.447 C 29.451 5.511 29.512 5.562 29.599 5.585 L 29.599 5.667 C 29.513 5.699 29.451 5.775 29.451 5.869 C 29.451 5.961 29.512 6.039 29.599 6.072 L 29.599 6.367 L 28.730 6.367 L 28.730 5.966 C 28.816 5.934 28.876 5.854 28.876 5.761 C 28.876 5.669 28.817 5.593 28.730 5.560 L 28.730 5.478 C 28.816 5.456 28.876 5.404 28.876 5.339 C 28.876 5.276 28.819 5.220 28.734 5.197 C 28.732 5.054 28.689 4.939 28.640 4.939 C 28.591 4.939 28.553 5.053 28.550 5.197 C 28.465 5.220 28.404 5.276 28.404 5.339 C 28.404 5.403 28.467 5.455 28.554 5.478 L 28.554 5.560 C 28.468 5.592 28.404 5.668 28.404 5.761 C 28.404 5.853 28.467 5.933 28.554 5.966 L 28.554 6.367 L 27.685 6.367 L 27.685 5.880 C 27.771 5.848 27.830 5.770 27.830 5.677 C 27.830 5.585 27.772 5.507 27.685 5.474 L 27.685 5.394 C 27.771 5.372 27.830 5.319 27.830 5.255 C 27.830 5.192 27.774 5.135 27.689 5.111 C 27.687 4.968 27.644 4.855 27.595 4.855 C 27.546 4.855 27.507 4.967 27.505 5.111 C 27.420 5.134 27.361 5.191 27.361 5.255 C 27.361 5.319 27.422 5.371 27.509 5.394 L 27.509 5.474 C 27.423 5.506 27.361 5.583 27.361 5.677 C 27.361 5.769 27.422 5.847 27.509 5.880 L 27.509 6.367 L 26.718 6.367 L 26.718 5.880 C 26.804 5.848 26.863 5.770 26.863 5.677 C 26.863 5.585 26.805 5.507 26.718 5.474 L 26.718 5.394 C 26.804 5.372 26.863 5.319 26.863 5.255 C 26.863 5.192 26.807 5.135 26.722 5.111 C 26.720 4.968 26.677 4.855 26.628 4.855 C 26.579 4.855 26.542 4.967 26.539 5.111 C 26.454 5.134 26.392 5.191 26.392 5.255 C 26.392 5.319 26.455 5.371 26.542 5.394 L 26.542 5.474 C 26.456 5.506 26.392 5.583 26.392 5.677 C 26.392 5.769 26.455 5.847 26.542 5.880 L 26.542 6.367 L 25.660 6.367 L 25.660 5.949 C 25.746 5.917 25.806 5.837 25.806 5.744 C 25.806 5.652 25.746 5.577 25.660 5.544 L 25.660 5.462 C 25.746 5.440 25.806 5.388 25.806 5.324 C 25.806 5.261 25.749 5.205 25.664 5.181 C 25.662 5.038 25.619 4.923 25.570 4.923 C 25.521 4.923 25.482 5.037 25.480 5.181 C 25.395 5.204 25.335 5.260 25.335 5.324 C 25.335 5.388 25.397 5.439 25.484 5.462 L 25.484 5.544 C 25.398 5.576 25.335 5.651 25.335 5.744 C 25.335 5.836 25.397 5.916 25.484 5.949 L 25.484 6.367 L 24.611 6.367 L 24.611 6.072 C 24.697 6.040 24.757 5.962 24.757 5.869 C 24.757 5.777 24.698 5.700 24.611 5.667 L 24.611 5.585 C 24.697 5.563 24.757 5.511 24.757 5.447 C 24.757 5.384 24.700 5.328 24.615 5.304 C 24.613 5.161 24.572 5.048 24.523 5.048 C 24.474 5.048 24.436 5.161 24.433 5.304 C 24.348 5.327 24.287 5.383 24.287 5.447 C 24.287 5.511 24.348 5.562 24.435 5.585 L 24.435 5.667 C 24.349 5.699 24.287 5.775 24.287 5.869 C 24.287 5.961 24.348 6.039 24.435 6.072 L 24.435 6.367 L 23.566 6.367 L 23.566 5.966 C 23.652 5.934 23.710 5.854 23.710 5.761 C 23.710 5.669 23.653 5.593 23.566 5.560 L 23.566 5.478 C 23.652 5.456 23.710 5.404 23.710 5.339 C 23.710 5.276 23.655 5.220 23.570 5.197 C 23.568 5.054 23.525 4.939 23.476 4.939 C 23.427 4.939 23.389 5.053 23.386 5.197 C 23.301 5.220 23.240 5.276 23.240 5.339 C 23.240 5.403 23.301 5.455 23.388 5.478 L 23.388 5.560 C 23.302 5.592 23.240 5.668 23.240 5.761 C 23.240 5.853 23.301 5.933 23.388 5.966 L 23.388 6.367 L 22.519 6.367 L 22.519 5.880 C 22.605 5.848 22.666 5.770 22.666 5.677 C 22.666 5.585 22.606 5.507 22.519 5.474 L 22.519 5.394 C 22.605 5.372 22.666 5.319 22.666 5.255 C 22.666 5.192 22.608 5.135 22.523 5.111 C 22.521 4.968 22.480 4.855 22.431 4.855 C 22.382 4.855 22.344 4.967 22.341 5.111 C 22.256 5.134 22.195 5.191 22.195 5.255 C 22.195 5.319 22.256 5.371 22.343 5.394 L 22.343 5.474 C 22.257 5.506 22.195 5.583 22.195 5.677 C 22.195 5.769 22.256 5.847 22.343 5.880 L 22.343 6.367 L 10.343 6.367 L 10.343 5.880 C 10.429 5.848 10.492 5.770 10.492 5.677 C 10.492 5.584 10.430 5.507 10.343 5.474 L 10.343 5.394 C 10.429 5.372 10.492 5.319 10.492 5.255 C 10.492 5.192 10.430 5.135 10.345 5.111 C 10.343 4.968 10.304 4.855 10.255 4.855 C 10.206 4.855 10.164 4.967 10.162 5.111 C 10.077 5.134 10.021 5.191 10.021 5.255 C 10.021 5.319 10.080 5.371 10.167 5.394 L 10.167 5.474 C 10.081 5.506 10.021 5.584 10.021 5.677 C 10.021 5.770 10.080 5.847 10.167 5.880 L 10.167 6.367 L 9.296 6.367 L 9.296 5.966 C 9.382 5.934 9.445 5.854 9.445 5.761 C 9.445 5.668 9.383 5.593 9.296 5.560 L 9.296 5.478 C 9.382 5.456 9.445 5.404 9.445 5.339 C 9.445 5.276 9.383 5.220 9.298 5.197 C 9.296 5.054 9.257 4.939 9.208 4.939 C 9.159 4.939 9.117 5.053 9.115 5.197 C 9.030 5.220 8.974 5.276 8.974 5.339 C 8.974 5.403 9.033 5.455 9.119 5.478 L 9.119 5.560 C 9.033 5.592 8.974 5.668 8.974 5.761 C 8.974 5.854 9.033 5.933 9.119 5.966 L 9.119 6.367 L 8.248 6.367 L 8.248 6.072 C 8.334 6.040 8.398 5.962 8.398 5.869 C 8.398 5.776 8.335 5.700 8.248 5.667 L 8.248 5.585 C 8.334 5.563 8.398 5.511 8.398 5.447 C 8.398 5.384 8.338 5.328 8.253 5.304 C 8.251 5.161 8.211 5.048 8.162 5.048 C 8.113 5.048 8.072 5.161 8.070 5.304 C 7.985 5.327 7.927 5.383 7.927 5.447 C 7.927 5.511 7.986 5.562 8.072 5.585 L 8.072 5.667 C 7.986 5.699 7.927 5.776 7.927 5.869 C 7.927 5.962 7.986 6.039 8.072 6.072 L 8.072 6.367 L 7.197 6.367 L 7.197 5.949 C 7.283 5.917 7.347 5.837 7.347 5.744 C 7.347 5.651 7.284 5.576 7.197 5.544 L 7.197 5.462 C 7.283 5.440 7.347 5.388 7.347 5.324 C 7.347 5.261 7.286 5.205 7.201 5.181 C 7.199 5.038 7.160 4.923 7.111 4.923 C 7.062 4.923 7.021 5.037 7.019 5.181 C 6.934 5.204 6.876 5.260 6.876 5.324 C 6.876 5.388 6.935 5.439 7.021 5.462 L 7.021 5.544 C 6.935 5.576 6.876 5.651 6.876 5.744 C 6.876 5.837 6.935 5.916 7.021 5.949 L 7.021 6.367 L 6.150 6.367 L 6.150 5.880 C 6.236 5.848 6.300 5.770 6.300 5.677 C 6.300 5.584 6.237 5.507 6.150 5.474 L 6.150 5.394 C 6.236 5.372 6.300 5.319 6.300 5.255 C 6.300 5.192 6.239 5.135 6.154 5.111 C 6.152 4.968 6.113 4.855 6.064 4.855 C 6.015 4.855 5.972 4.967 5.970 5.111 C 5.885 5.134 5.828 5.191 5.828 5.255 C 5.828 5.319 5.887 5.371 5.974 5.394 L 5.974 5.474 C 5.888 5.506 5.828 5.584 5.828 5.677 C 5.828 5.770 5.887 5.847 5.974 5.880 L 5.974 6.367 L 5.080 6.367 L 5.080 5.880 C 5.166 5.848 5.226 5.770 5.226 5.677 C 5.226 5.585 5.167 5.507 5.080 5.474 L 5.080 5.394 C 5.166 5.372 5.226 5.319 5.226 5.255 C 5.226 5.192 5.168 5.135 5.083 5.111 C 5.081 4.968 5.040 4.855 4.990 4.855 C 4.941 4.855 4.902 4.967 4.900 5.111 C 4.815 5.134 4.753 5.191 4.753 5.255 C 4.753 5.319 4.817 5.371 4.904 5.394 L 4.904 5.474 C 4.818 5.506 4.753 5.583 4.753 5.677 C 4.753 5.769 4.817 5.847 4.904 5.880 L 4.904 6.367 L 4.035 6.367 L 4.035 5.949 C 4.121 5.917 4.179 5.837 4.179 5.744 C 4.179 5.652 4.121 5.577 4.035 5.544 L 4.035 5.462 C 4.121 5.440 4.179 5.388 4.179 5.324 C 4.179 5.261 4.122 5.205 4.037 5.181 C 4.035 5.038 3.994 4.923 3.945 4.923 C 3.896 4.923 3.857 5.037 3.855 5.181 C 3.770 5.204 3.708 5.260 3.708 5.324 C 3.708 5.388 3.772 5.439 3.859 5.462 L 3.859 5.544 C 3.773 5.576 3.708 5.651 3.708 5.744 C 3.708 5.836 3.772 5.916 3.859 5.949 L 3.859 6.367 L 2.980 6.367 L 2.980 6.072 C 3.066 6.040 3.126 5.962 3.126 5.869 C 3.126 5.777 3.067 5.700 2.980 5.667 L 2.980 5.585 C 3.066 5.563 3.126 5.511 3.126 5.447 C 3.126 5.384 3.069 5.328 2.984 5.304 C 2.982 5.161 2.939 5.048 2.890 5.048 C 2.841 5.048 2.803 5.161 2.800 5.304 C 2.715 5.327 2.654 5.383 2.654 5.447 C 2.654 5.511 2.715 5.562 2.802 5.585 L 2.802 5.667 C 2.716 5.699 2.654 5.775 2.654 5.869 C 2.654 5.961 2.715 6.039 2.802 6.072 L 2.802 6.367 L 1.933 6.367 L 1.933 5.966 C 2.019 5.934 2.080 5.854 2.080 5.761 C 2.080 5.669 2.020 5.593 1.933 5.560 L 1.933 5.478 C 2.019 5.456 2.080 5.404 2.080 5.339 C 2.080 5.276 2.022 5.220 1.937 5.197 C 1.935 5.054 1.893 4.939 1.843 4.939 C 1.794 4.939 1.756 5.053 1.753 5.197 C 1.668 5.220 1.607 5.276 1.607 5.339 C 1.607 5.403 1.668 5.455 1.755 5.478 L 1.755 5.560 C 1.669 5.592 1.607 5.668 1.607 5.761 C 1.607 5.853 1.668 5.933 1.755 5.966 L 1.755 6.367 L 0.886 6.367 L 0.886 5.880 C 0.972 5.848 1.033 5.770 1.033 5.677 C 1.033 5.585 0.973 5.507 0.886 5.474 L 0.886 5.394 C 0.972 5.372 1.033 5.319 1.033 5.255 C 1.033 5.192 0.975 5.135 0.890 5.111 C 0.888 4.968 0.846 4.855 0.796 4.855 z M 0 5.156 L 0 5.349 C 0.034 5.323 0.060 5.293 0.060 5.255 C 0.060 5.217 0.035 5.183 0 5.156 z M 0 5.539 L 0 5.816 C 0.034 5.778 0.060 5.732 0.060 5.677 C 0.060 5.622 0.035 5.577 0 5.539 z M 0.886 6.542 L 1.755 6.542 L 1.755 7.308 L 0.886 7.308 L 0.886 6.542 z M 1.933 6.542 L 2.802 6.542 L 2.802 7.308 L 1.933 7.308 L 1.933 6.542 z M 2.980 6.542 L 3.853 6.542 L 3.853 7.308 L 2.980 7.308 L 2.980 6.542 z M 4.029 6.542 L 4.898 6.542 L 4.898 7.308 L 4.029 7.308 L 4.029 6.542 z M 5.076 6.542 L 5.972 6.542 L 5.972 7.308 L 5.076 7.308 L 5.076 6.542 z M 6.148 6.542 L 7.019 6.542 L 7.019 7.308 L 6.150 7.308 L 6.148 6.542 z M 7.195 6.542 L 8.068 6.542 L 8.068 7.308 L 7.197 7.308 L 7.195 6.542 z M 8.246 6.542 L 9.115 6.542 L 9.115 7.308 L 8.248 7.308 L 8.246 6.542 z M 9.292 6.542 L 10.162 6.542 L 10.162 7.308 L 9.296 7.308 L 9.292 6.542 z M 10.339 6.542 L 22.337 6.542 L 22.337 7.308 L 10.343 7.308 L 10.339 6.542 z M 22.511 6.542 L 23.380 6.542 L 23.380 7.308 L 22.511 7.308 L 22.511 6.542 z M 23.558 6.542 L 24.427 6.542 L 24.427 7.308 L 23.558 7.308 L 23.558 6.542 z M 24.605 6.542 L 25.478 6.542 L 25.478 7.308 L 24.605 7.308 L 24.605 6.542 z M 25.654 6.542 L 26.523 6.542 L 26.523 7.308 L 25.660 7.308 L 25.654 6.542 z M 26.701 6.542 L 27.494 6.542 L 27.494 7.308 L 26.701 7.308 L 26.701 6.542 z M 27.671 6.542 L 28.541 6.542 L 28.541 7.308 L 27.671 7.308 L 27.671 6.542 z M 28.718 6.542 L 29.589 6.542 L 29.589 7.308 L 28.718 7.308 L 28.718 6.542 z M 29.765 6.542 L 30.638 6.542 L 30.638 7.308 L 29.765 7.308 L 29.765 6.542 z M 30.816 6.542 L 31.685 6.542 L 31.685 7.308 L 30.816 7.308 L 30.816 6.542 z M 31.863 6.542 L 32.757 6.542 L 32.757 7.308 L 31.863 7.308 L 31.863 6.542 z M 32.935 6.542 L 33.804 6.542 L 33.804 7.308 L 32.935 7.308 L 32.935 6.542 z M 33.982 6.542 L 34.855 6.542 L 34.855 7.308 L 33.982 7.308 L 33.982 6.542 z M 35.033 6.542 L 35.902 6.542 L 35.902 7.308 L 35.033 7.308 L 35.033 6.542 z M 0.869 7.482 L 1.738 7.482 L 1.738 7.794 L 0.869 7.794 L 0.869 7.482 z M 1.916 7.482 L 2.785 7.482 L 2.785 7.794 L 1.916 7.794 L 1.916 7.482 z M 2.962 7.482 L 3.835 7.482 L 3.835 7.794 L 2.962 7.794 L 2.962 7.482 z M 4.013 7.482 L 4.882 7.482 L 4.882 7.794 L 4.013 7.794 L 4.013 7.482 z M 5.060 7.482 L 5.955 7.482 L 5.955 7.794 L 5.060 7.794 L 5.060 7.482 z M 6.132 7.482 L 7.019 7.482 L 7.019 7.794 L 6.150 7.794 L 6.132 7.482 z M 7.179 7.482 L 8.052 7.482 L 8.052 7.794 L 7.197 7.794 L 7.179 7.482 z M 8.228 7.482 L 9.097 7.482 L 9.097 7.794 L 8.248 7.794 L 8.228 7.482 z M 9.275 7.482 L 10.144 7.482 L 10.144 7.794 L 9.296 7.794 L 9.275 7.482 z M 10.322 7.482 L 22.337 7.482 L 22.337 7.794 L 10.343 7.794 L 10.322 7.482 z M 22.494 7.482 L 23.363 7.482 L 23.363 7.794 L 22.494 7.794 L 22.494 7.482 z M 23.541 7.482 L 24.410 7.482 L 24.410 7.794 L 23.541 7.794 L 23.541 7.482 z M 24.587 7.482 L 25.460 7.482 L 25.460 7.794 L 24.587 7.794 L 24.587 7.482 z M 25.638 7.482 L 26.507 7.482 L 26.507 7.794 L 25.660 7.794 L 25.638 7.482 z M 26.685 7.482 L 27.476 7.482 L 27.476 7.794 L 26.685 7.794 L 26.685 7.482 z M 27.654 7.482 L 28.523 7.482 L 28.523 7.794 L 27.654 7.794 L 27.654 7.482 z M 28.701 7.482 L 29.572 7.482 L 29.572 7.794 L 28.701 7.794 L 28.701 7.482 z M 29.748 7.482 L 30.621 7.482 L 30.621 7.794 L 29.748 7.794 L 29.748 7.482 z M 30.798 7.482 L 31.667 7.482 L 31.667 7.794 L 30.798 7.794 L 30.798 7.482 z M 31.845 7.482 L 32.740 7.482 L 32.740 7.794 L 31.845 7.794 L 31.845 7.482 z M 32.919 7.482 L 33.787 7.482 L 33.787 7.794 L 32.919 7.794 L 32.919 7.482 z M 33.966 7.482 L 34.839 7.482 L 34.839 7.794 L 33.966 7.794 L 33.966 7.482 z M 35.015 7.482 L 35.884 7.482 L 35.884 7.794 L 35.015 7.794 L 35.015 7.482 z " style="fill:#28445f;stroke-width:0.164" />
<path id="rect4574" d="M 5.222 0 C 5.067 0.441 4.905 0.936 5.044 1.521 C 4.837 1.355 4.617 1.215 4.412 1.070 C 4.425 1.397 4.418 1.779 4.509 2.166 C 4.346 2.020 4.174 1.889 4.015 1.753 C 3.998 2.112 3.952 2.532 4.035 2.966 C 3.862 2.828 3.681 2.705 3.513 2.578 C 3.517 2.974 3.489 3.448 3.640 3.921 C 3.556 4.333 3.487 4.800 3.638 5.296 C 3.414 5.189 3.185 5.106 2.968 5.013 C 3.064 5.377 3.146 5.814 3.380 6.220 C 3.086 6.136 2.789 6.098 2.507 6.044 C 2.721 6.456 2.939 6.984 3.419 7.363 C 3.181 7.430 2.956 7.516 2.732 7.589 C 2.959 7.738 3.208 7.923 3.496 8.070 C 3.198 8.050 2.907 8.069 2.626 8.072 C 2.865 8.365 3.120 8.735 3.503 9.011 C 3.332 9.109 3.168 9.214 3.005 9.310 C 3.379 9.453 3.814 9.657 4.316 9.693 C 4.139 9.792 3.970 9.902 3.802 10 C 4.186 10.149 4.634 10.361 5.156 10.390 C 5.192 10.587 5.210 10.774 5.222 10.955 C 5.168 10.959 5.108 10.968 5.042 10.986 C 5.070 10.863 5.072 10.762 5.023 10.730 C 4.949 10.683 4.784 10.803 4.632 10.960 C 4.582 10.651 4.459 10.323 4.332 10.328 C 4.262 10.330 4.203 10.437 4.158 10.582 C 4.099 10.512 4.043 10.468 3.994 10.480 C 3.891 10.504 3.857 10.751 3.867 11.013 C 3.624 10.973 3.326 10.940 3.042 10.943 C 3.434 10.718 3.747 10.474 3.722 10.441 C 3.697 10.407 3.283 10.457 2.837 10.582 C 3.058 10.165 3.190 9.736 3.144 9.718 C 3.118 9.709 2.991 9.795 2.830 9.935 C 2.924 9.660 2.968 9.443 2.935 9.433 C 2.896 9.421 2.649 9.629 2.400 9.916 C 2.452 9.458 2.416 9.012 2.367 9.009 C 2.309 9.006 2.003 9.510 1.853 10.015 C 1.608 9.531 1.203 9.048 1.152 9.072 C 1.119 9.088 1.132 9.332 1.195 9.638 C 0.901 9.483 0.658 9.386 0.638 9.412 C 0.618 9.438 0.741 9.632 0.937 9.863 C 0.913 9.944 0.888 10.041 0.867 10.150 C 0.641 9.893 0.433 9.709 0.402 9.728 C 0.362 9.752 0.443 10.147 0.615 10.552 C 0.352 10.399 0.140 10.305 0 10.255 L 0 10.472 C 0.064 10.559 0.132 10.652 0.228 10.757 C 0.142 10.745 0.080 10.745 0 10.738 L 0 20.019 L 36 20.019 L 36 8.703 C 35.941 8.786 35.858 8.875 35.810 8.957 C 35.644 8.437 35.325 7.848 34.775 7.169 C 35.120 7.839 35.212 8.769 35.214 9.703 C 34.881 9.343 34.400 8.990 33.722 8.660 C 33.722 8.533 33.692 8.339 33.646 8.164 C 33.819 8.401 34.081 8.630 34.146 8.585 C 34.189 8.555 34.132 8.414 34.037 8.253 C 34.198 8.350 34.347 8.406 34.382 8.367 C 34.429 8.314 34.254 8.111 34.054 7.935 C 34.307 8.014 34.581 8.043 34.607 7.978 C 34.628 7.926 34.483 7.830 34.296 7.742 C 34.502 7.735 34.680 7.696 34.687 7.640 C 34.693 7.593 34.577 7.546 34.421 7.511 C 34.574 7.464 34.689 7.406 34.685 7.359 C 34.680 7.300 34.490 7.282 34.273 7.292 C 34.464 7.186 34.618 7.062 34.597 7.007 C 34.580 6.960 34.439 6.976 34.271 7.023 C 34.395 6.899 34.477 6.780 34.449 6.738 C 34.410 6.679 34.163 6.800 33.941 6.951 C 34.083 6.723 34.183 6.459 34.126 6.416 C 34.080 6.382 33.944 6.507 33.810 6.673 C 33.855 6.464 33.862 6.272 33.808 6.251 C 33.756 6.231 33.665 6.374 33.583 6.556 C 33.573 6.355 33.533 6.185 33.478 6.179 C 33.422 6.173 33.369 6.342 33.335 6.546 C 33.273 6.348 33.189 6.187 33.132 6.195 C 33.099 6.199 33.082 6.265 33.078 6.361 C 33.023 6.283 32.971 6.235 32.939 6.244 C 32.866 6.266 32.926 6.579 33.017 6.851 C 32.829 6.634 32.565 6.438 32.505 6.486 C 32.490 6.498 32.494 6.528 32.505 6.564 C 32.433 6.561 32.331 6.571 32.216 6.595 C 32.377 6.467 32.496 6.331 32.468 6.281 C 32.445 6.240 32.324 6.271 32.177 6.335 C 32.271 6.206 32.329 6.090 32.298 6.054 C 32.259 6.010 32.095 6.108 31.927 6.246 C 32.017 6.047 32.067 5.857 32.017 5.824 C 31.975 5.797 31.871 5.892 31.765 6.031 C 31.790 5.857 31.788 5.712 31.742 5.695 C 31.675 5.672 31.548 5.916 31.460 6.169 C 31.439 5.901 31.362 5.628 31.291 5.628 C 31.233 5.628 31.198 5.811 31.189 6.023 C 31.102 5.828 30.995 5.670 30.939 5.685 C 30.886 5.699 30.897 5.869 30.939 6.064 C 30.811 5.910 30.678 5.796 30.630 5.824 C 30.581 5.852 30.638 6.021 30.732 6.205 C 30.564 6.084 30.399 6.004 30.359 6.044 C 30.335 6.068 30.361 6.131 30.416 6.210 C 30.325 6.180 30.254 6.172 30.234 6.199 C 30.189 6.261 30.424 6.476 30.660 6.640 C 30.379 6.578 30.051 6.577 30.031 6.650 C 30.016 6.709 30.201 6.796 30.419 6.861 C 30.194 6.897 29.996 6.967 29.998 7.029 C 29.999 7.075 30.111 7.103 30.263 7.115 C 30.126 7.182 30.027 7.254 30.037 7.298 C 30.051 7.361 30.280 7.342 30.517 7.292 C 30.323 7.439 30.168 7.613 30.201 7.669 C 30.217 7.697 30.278 7.691 30.363 7.662 C 30.316 7.737 30.292 7.799 30.312 7.824 C 30.344 7.864 30.479 7.800 30.630 7.695 C 30.547 7.860 30.502 8.009 30.544 8.041 C 30.577 8.066 30.660 8.009 30.753 7.914 C 30.725 8.044 30.720 8.148 30.757 8.167 C 30.798 8.188 30.878 8.096 30.962 7.964 C 30.967 7.967 30.974 7.972 30.980 7.976 C 30.978 8.130 30.997 8.252 31.042 8.263 C 31.080 8.272 31.126 8.197 31.171 8.083 C 31.195 8.203 31.230 8.290 31.269 8.292 C 31.299 8.294 31.326 8.244 31.349 8.167 C 31.374 8.178 31.396 8.191 31.421 8.203 C 31.619 8.299 31.757 8.358 31.800 8.378 C 31.802 8.410 31.805 8.455 31.806 8.513 C 31.807 8.604 31.806 8.717 31.806 8.832 C 31.806 8.947 31.805 9.062 31.806 9.156 C 31.806 9.160 31.806 9.163 31.806 9.167 C 31.787 9.151 31.765 9.127 31.744 9.109 C 31.771 8.981 31.782 8.888 31.757 8.875 C 31.733 8.864 31.684 8.915 31.623 9.003 C 31.452 8.842 31.264 8.637 31.210 8.509 C 31.198 8.476 31.163 8.456 31.128 8.464 C 31.107 8.468 31.088 8.483 31.078 8.503 C 31.068 8.522 31.069 8.544 31.078 8.564 C 31.154 8.742 31.348 8.942 31.525 9.109 C 31.532 9.116 31.537 9.120 31.544 9.126 C 31.524 9.160 31.503 9.192 31.482 9.232 C 31.161 8.788 30.818 8.432 30.726 8.439 C 30.721 8.439 30.718 8.440 30.714 8.443 C 30.639 8.502 31.017 9.129 31.251 9.724 C 31.242 9.747 31.233 9.768 31.224 9.792 C 30.871 9.376 30.445 9.017 30.390 9.074 C 30.330 9.135 30.784 9.698 31.017 10.191 C 30.477 9.843 29.641 9.559 29.605 9.652 C 29.576 9.727 30.152 10.037 30.560 10.378 C 29.912 10.441 28.997 10.809 29.033 10.908 C 29.065 10.999 29.981 10.777 30.533 10.847 C 30.009 10.968 29.328 11.326 29.134 11.501 L 28.369 11.501 C 28.606 11.320 28.766 11.167 28.748 11.140 C 28.721 11.099 28.280 11.160 27.806 11.310 C 28.040 10.809 28.182 10.291 28.134 10.271 C 28.107 10.260 27.971 10.364 27.800 10.533 C 27.900 10.202 27.947 9.941 27.912 9.929 C 27.870 9.914 27.606 10.165 27.343 10.509 C 27.398 9.958 27.361 9.422 27.310 9.419 C 27.248 9.415 26.925 10.021 26.765 10.630 C 26.505 10.048 26.074 9.466 26.021 9.496 C 25.986 9.515 26.001 9.809 26.068 10.177 C 25.864 10.056 25.690 9.969 25.583 9.929 C 25.599 9.922 25.615 9.913 25.632 9.906 C 25.299 9.735 24.900 9.479 24.382 9.519 C 24.780 9.142 24.824 8.679 24.917 8.267 C 24.742 8.349 24.540 8.433 24.345 8.554 C 24.417 8.246 24.386 7.944 24.382 7.658 C 24.080 7.902 23.669 8.173 23.503 8.697 C 23.373 8.481 23.202 8.303 23.054 8.121 C 22.973 8.485 22.829 8.933 22.990 9.423 C 22.836 9.366 22.682 9.323 22.533 9.273 C 22.591 9.436 22.646 9.623 22.730 9.808 C 22.400 9.552 22.060 9.509 21.732 9.496 L 21.732 5.212 L 21.751 5.212 C 21.993 5.212 22.187 5.018 22.187 4.775 L 22.187 4.490 L 22.126 4.490 C 21.448 3.260 21.173 1.978 20.759 0 L 10.826 0 C 10.413 1.972 10.139 3.254 9.486 4.480 C 9.464 4.476 9.442 4.471 9.421 4.466 L 9.421 4.765 C 9.421 4.929 9.512 5.069 9.644 5.144 L 9.644 6.083 C 9.644 6.158 9.697 6.221 9.767 6.238 L 9.767 11.261 L 9.679 11.261 L 9.443 11.261 L 9.443 11.5 L 8.878 11.5 C 9.112 11.402 9.302 11.280 9.285 11.177 C 9.262 11.038 8.884 10.980 8.537 10.992 C 8.581 10.635 8.552 10.219 8.408 10.185 C 8.353 10.172 8.290 10.220 8.224 10.298 C 8.174 10.137 8.110 10.020 8.031 10.017 C 7.889 10.011 7.753 10.374 7.697 10.720 C 7.527 10.545 7.343 10.411 7.259 10.464 C 7.204 10.5 7.206 10.612 7.238 10.75 C 7.047 10.698 6.883 10.688 6.837 10.761 C 6.759 10.883 7.023 11.196 7.302 11.421 C 7.256 11.445 7.213 11.471 7.173 11.498 L 6.484 11.498 C 6.422 11.112 6.393 10.692 6.457 10.318 C 7.027 10.249 7.479 9.955 7.871 9.744 C 7.802 9.714 7.733 9.684 7.664 9.652 C 8.119 9.551 8.500 9.322 8.835 9.150 C 8.678 9.079 8.521 9.001 8.357 8.927 C 8.708 8.732 8.986 8.468 9.240 8.257 C 8.836 8.174 8.416 8.048 7.957 8.072 C 8.294 7.874 8.562 7.615 8.808 7.406 C 8.604 7.366 8.396 7.316 8.181 7.279 C 8.462 6.948 8.626 6.567 8.789 6.253 C 8.559 6.296 8.319 6.333 8.078 6.390 C 8.360 5.874 8.368 5.321 8.412 4.871 C 8.253 4.971 8.086 5.070 7.919 5.177 C 8.233 4.672 8.266 4.113 8.333 3.662 C 8.116 3.784 7.886 3.899 7.664 4.041 C 7.757 3.536 7.654 3.056 7.599 2.652 C 7.557 2.694 7.514 2.738 7.470 2.781 C 7.463 2.326 7.318 1.914 7.220 1.558 C 7.126 1.683 7.024 1.809 6.925 1.939 C 7.073 1.487 7.058 1.031 7.074 0.650 C 6.941 0.745 6.802 0.839 6.662 0.937 C 6.710 0.605 6.687 0.290 6.666 0 L 6.412 0 C 6.384 0.023 6.357 0.044 6.330 0.068 C 6.322 0.044 6.310 0.023 6.302 0 L 5.222 0 z M 32.529 6.666 L 32.531 6.666 C 32.566 6.730 32.611 6.801 32.667 6.875 C 32.567 6.823 32.468 6.781 32.388 6.759 C 32.447 6.727 32.496 6.696 32.529 6.666 z M 32.246 6.828 C 32.253 6.839 32.260 6.852 32.271 6.865 C 32.268 6.864 32.265 6.861 32.261 6.861 C 32.253 6.860 32.243 6.863 32.234 6.865 C 32.217 6.869 32.202 6.879 32.191 6.892 C 32.164 6.889 32.139 6.884 32.111 6.882 C 32.157 6.866 32.202 6.847 32.246 6.828 z M 31.919 7.310 C 31.965 7.324 32.016 7.334 32.064 7.345 C 32.035 7.358 32.015 7.374 32.011 7.390 C 31.980 7.363 31.950 7.335 31.919 7.310 z M 32.097 7.464 C 32.112 7.471 32.125 7.477 32.146 7.484 C 32.137 7.487 32.134 7.491 32.126 7.494 C 32.117 7.484 32.107 7.474 32.097 7.464 z M 32.279 7.666 C 32.300 7.667 32.319 7.668 32.341 7.669 C 32.325 7.677 32.313 7.685 32.298 7.693 C 32.292 7.684 32.287 7.676 32.279 7.666 z M 32.117 7.759 C 32.128 7.764 32.135 7.766 32.146 7.771 C 32.143 7.778 32.141 7.784 32.140 7.792 C 32.139 7.793 32.137 7.795 32.136 7.796 C 32.131 7.785 32.124 7.772 32.117 7.759 z M 31.884 7.822 L 31.886 7.822 C 32.015 7.926 32.133 7.989 32.171 7.958 C 32.178 7.953 32.181 7.943 32.181 7.931 L 32.214 8.013 C 32.174 8.060 32.152 8.100 32.164 8.123 C 32.174 8.144 32.211 8.146 32.263 8.138 L 32.332 8.316 C 32.327 8.339 32.325 8.358 32.333 8.369 C 32.337 8.374 32.347 8.377 32.355 8.378 L 32.554 8.892 C 32.540 8.954 32.524 9.019 32.509 9.082 C 32.399 9.077 32.283 9.074 32.164 9.074 C 32.092 8.819 32.012 8.616 31.958 8.562 C 31.958 8.543 31.959 8.518 31.958 8.5 C 31.957 8.406 31.958 8.342 31.949 8.292 C 31.942 8.257 31.926 8.198 31.904 8.126 C 31.913 8.127 31.922 8.128 31.929 8.125 C 31.972 8.104 31.944 7.976 31.884 7.822 z M 31.382 7.826 C 31.417 7.922 31.460 8.009 31.501 8.082 C 31.484 8.074 31.483 8.074 31.462 8.064 C 31.427 8.047 31.394 8.030 31.359 8.013 C 31.368 7.955 31.376 7.892 31.382 7.826 z M 31.681 8.003 C 31.703 8.072 31.724 8.140 31.740 8.191 C 31.724 8.184 31.698 8.173 31.683 8.166 C 31.688 8.125 31.688 8.069 31.681 8.003 z M 32.480 8.072 C 32.459 8.098 32.441 8.125 32.423 8.150 L 32.404 8.101 C 32.428 8.092 32.453 8.083 32.480 8.072 z M 32.882 8.244 L 32.884 8.244 C 32.882 8.253 32.881 8.260 32.878 8.269 C 32.879 8.261 32.881 8.253 32.882 8.244 z M 32.546 8.306 C 32.533 8.334 32.524 8.361 32.515 8.386 L 32.494 8.335 C 32.509 8.327 32.528 8.317 32.546 8.306 z M 32.654 8.468 C 32.642 8.526 32.629 8.586 32.615 8.646 L 32.568 8.523 C 32.592 8.512 32.622 8.494 32.654 8.468 z M 33.064 8.480 C 33.065 8.503 33.066 8.525 33.068 8.548 C 33.006 8.641 32.944 8.742 32.880 8.847 C 32.826 8.935 32.773 9.018 32.722 9.095 C 32.713 9.094 32.702 9.094 32.693 9.093 C 32.742 8.888 32.790 8.685 32.830 8.503 C 32.815 8.623 32.819 8.717 32.853 8.732 C 32.900 8.751 32.983 8.637 33.064 8.480 z M 33.291 8.539 C 33.333 8.699 33.389 8.822 33.437 8.820 C 33.475 8.819 33.499 8.739 33.511 8.626 C 33.565 8.726 33.621 8.793 33.658 8.785 C 33.679 8.781 33.690 8.750 33.695 8.705 C 33.956 8.943 34.193 9.250 34.408 9.597 C 34.051 9.371 33.582 9.200 32.960 9.121 C 33.002 9.043 33.028 8.982 33.011 8.964 C 33.005 8.958 32.994 8.957 32.980 8.960 C 32.987 8.949 32.993 8.937 33.001 8.925 C 33.035 8.869 33.069 8.813 33.103 8.759 C 33.114 8.788 33.129 8.809 33.146 8.812 C 33.193 8.820 33.245 8.702 33.287 8.542 L 33.291 8.539 z M 32.179 9.109 C 32.279 9.137 32.380 9.173 32.480 9.214 C 32.479 9.220 32.477 9.228 32.476 9.234 C 32.465 9.280 32.456 9.317 32.445 9.363 C 32.390 9.416 32.333 9.468 32.275 9.527 C 32.248 9.379 32.215 9.240 32.179 9.109 z M 31.679 9.257 L 31.681 9.259 C 31.733 9.304 31.774 9.338 31.798 9.357 C 31.808 9.405 31.830 9.470 31.865 9.572 C 31.877 9.608 31.895 9.659 31.910 9.701 C 31.907 9.777 31.902 9.850 31.892 9.919 C 31.819 9.772 31.727 9.621 31.630 9.472 C 31.649 9.389 31.662 9.329 31.679 9.257 z M 32.808 9.369 L 32.810 9.369 C 33.049 9.498 33.288 9.657 33.523 9.835 C 33.314 9.846 33.086 9.877 32.839 9.929 C 33.000 9.748 33.118 9.614 33.093 9.580 C 33.060 9.534 32.797 9.675 32.498 9.892 C 32.502 9.875 32.507 9.856 32.511 9.839 C 32.616 9.667 32.719 9.508 32.808 9.369 z M 21.703 9.943 C 21.722 9.965 21.742 9.988 21.763 10.011 C 21.743 10.009 21.723 10.006 21.703 10.003 L 21.703 9.943 z M 25.464 9.955 C 25.504 10.048 25.612 10.224 25.765 10.427 C 25.740 10.524 25.714 10.642 25.691 10.773 C 25.491 10.514 25.305 10.319 25.230 10.275 C 25.177 10.226 25.122 10.180 25.060 10.136 C 25.202 10.084 25.333 10.019 25.464 9.955 z M 32.626 10.167 C 32.873 10.197 33.129 10.257 33.388 10.337 C 33.069 10.369 32.641 10.452 32.302 10.578 C 32.307 10.571 32.312 10.563 32.318 10.556 L 32.363 10.554 L 32.363 10.548 C 32.363 10.539 32.368 10.502 32.371 10.482 C 32.450 10.375 32.537 10.271 32.625 10.169 L 32.626 10.167 z M 21.701 10.417 C 21.776 10.529 21.861 10.639 21.966 10.740 C 21.875 10.753 21.787 10.777 21.701 10.804 L 21.701 10.417 z M 33.710 10.443 C 34.035 10.560 34.361 10.702 34.679 10.855 C 34.680 10.856 34.683 10.857 34.685 10.859 C 34.303 10.907 33.868 11.045 33.367 11.302 C 33.108 11.210 32.760 11.115 32.410 11.052 C 32.746 10.780 33.437 10.571 33.710 10.445 L 33.710 10.443 z M 21.701 11.320 C 21.709 11.324 21.717 11.328 21.726 11.332 C 21.717 11.339 21.709 11.348 21.701 11.355 L 21.701 11.320 z M 5.222 11.339 C 5.221 11.385 5.222 11.433 5.220 11.478 L 5.083 11.478 C 5.133 11.432 5.179 11.387 5.222 11.339 z " style="fill:#1a3548;stroke-width:0.164" />
<path id="path3296-9" d="M 12.810 8.289 L 12.810 8.857 L 13.158 8.857 L 13.158 8.289 L 12.810 8.289 z " style="fill:#ffff00;stroke-width:0.082;marker:none" />
<path id="path3339-4" d="M 12.416 2.304 A 0.752 0.752 0 0 0 11.742 2.982 L 12.416 2.982 L 12.416 2.304 z M 12.564 2.304 L 12.564 2.982 L 13.238 2.982 A 0.752 0.752 0 0 0 12.564 2.304 z M 11.744 3.130 A 0.752 0.752 0 0 0 12.416 3.802 L 12.416 3.130 L 11.744 3.130 z M 12.564 3.130 L 12.564 3.800 A 0.752 0.752 0 0 0 13.238 3.130 L 12.564 3.130 z " style="fill:#ffff00;stroke-width:0.037;marker:none" />
<path id="path4165-7" d="M 9.421 4.468 L 9.421 4.767 C 9.421 5.009 9.616 5.203 9.859 5.203 L 21.728 5.203 C 21.970 5.203 22.164 5.010 22.164 4.767 L 22.164 4.490 L 9.560 4.490 C 9.513 4.490 9.465 4.478 9.421 4.468 z " style="fill:none;stroke-width:0.082;marker:none" />
<path id="path4782-2" d="M 15.677 7.421 L 15.677 8.695 L 16.714 8.695 L 16.714 7.421 L 15.677 7.421 z M 17.066 7.421 L 17.066 8.695 L 18.101 8.695 L 18.101 7.421 L 17.066 7.421 z M 15.677 8.917 L 15.677 9.152 L 15.810 9.152 L 15.810 8.917 L 15.677 8.917 z M 15.951 8.917 L 15.951 9.152 L 16.712 9.152 L 16.712 8.917 L 15.951 8.917 z M 17.066 8.917 L 17.066 9.152 L 17.800 9.152 L 17.800 8.917 L 17.066 8.917 z M 17.941 8.917 L 17.941 9.152 L 18.099 9.152 L 18.099 8.917 L 17.941 8.917 z " style="fill:#ffff00;stroke-width:0.082;marker:none" />
<path id="path4933" d="M 33.589 7.917 C 33.527 8.090 33.407 8.567 33.443 9.017 C 33.354 8.948 33.255 8.886 33.146 8.837 C 33.133 9.018 33.137 9.499 33.283 9.919 C 33.241 9.935 33.199 9.956 33.162 9.982 C 32.896 9.760 32.523 9.551 32.093 9.539 C 32.138 9.677 32.273 9.985 32.478 10.273 C 32.191 10.230 31.867 10.238 31.560 10.369 C 31.740 10.561 32.415 11.147 33.019 11.117 C 32.940 11.171 32.968 11.266 33.066 11.320 C 33.085 11.418 33.134 11.510 33.203 11.580 L 35.291 11.580 C 35.290 11.585 35.288 11.589 35.287 11.595 C 35.646 11.689 35.866 11.711 36 11.699 L 36 8.976 C 35.958 8.999 35.937 9.005 35.892 9.033 C 35.930 8.820 35.934 8.591 35.876 8.361 C 35.757 8.442 35.502 8.654 35.281 8.925 C 35.237 8.915 35.193 8.908 35.144 8.908 C 35.101 8.908 35.059 8.912 35.019 8.921 C 34.958 8.825 34.854 8.752 34.730 8.728 C 34.635 8.473 34.482 8.218 34.244 8.023 C 34.202 8.141 34.130 8.397 34.101 8.691 C 34.009 8.416 33.853 8.129 33.595 7.917 L 33.589 7.917 z " style="fill:#1a3548;fill-rule:nonzero;stroke-width:0.164;stroke-linecap:butt;marker:none" />
<path id="path5064-4" d="M 1.179 0 L 1 0.271 L 0.537 0.279 L 0.824 0.642 L 0.689 1.085 L 1.123 0.923 L 1.503 1.187 L 1.482 0.724 L 1.853 0.445 L 1.406 0.322 L 1.294 0 L 1.179 0 z " style="fill:#e2ecef;fill-rule:nonzero;stroke-width:0.103;stroke-linecap:butt;marker:none" />
<path id="path5060-2" d="M 25.361 2.025 L 25.210 2.466 L 24.765 2.591 L 25.136 2.867 L 25.117 3.330 L 25.496 3.064 L 25.931 3.224 L 25.794 2.781 L 26.082 2.417 L 25.619 2.410 L 25.361 2.025 z " style="fill:#e2ecef;fill-rule:nonzero;stroke-width:0.103;stroke-linecap:butt;marker:none" />
<path id="path4491" d="M 0.945 16.738 A 1.113 1.113 0 0 0 0 17.267 L 0 18.439 A 1.113 1.113 0 0 0 0.945 18.964 A 1.113 1.113 0 0 0 2.058 17.851 A 1.113 1.113 0 0 0 0.945 16.738 z " style="color:#000000;solid-color:#000000;solid-opacity:1;fill:#666666;fill-rule:evenodd;stroke:none;stroke-width:0.082;stroke-linecap:butt;stroke-linejoin:miter;marker:none;marker-start:none;marker-mid:none;marker-end:none" />
<path id="rect5057-3" d="M 17.212 24.132 C 14.305 24.132 11.964 26.471 11.964 29.375 L 11.964 36 L 36 36 L 36 24.132 L 17.212 24.132 z " style="color:#000000;solid-color:#000000;solid-opacity:1;fill:#a4754b;fill-rule:evenodd;stroke:none;stroke-width:0.635;stroke-linecap:butt;stroke-linejoin:miter;marker:none;marker-start:none;marker-mid:none;marker-end:none" />
<path id="rect5059-1" d="M 17.212 27.630 C 14.305 27.630 11.964 29.965 11.964 32.869 L 11.964 36 L 36 36 L 36 27.630 L 17.212 27.630 z " style="color:#000000;solid-color:#000000;solid-opacity:1;fill:#7a5738;fill-rule:evenodd;stroke:none;stroke-width:0.635;stroke-linecap:butt;stroke-linejoin:miter;marker:none;marker-start:none;marker-mid:none;marker-end:none" />
<path id="path2488-4" d="M 36 8.427 C 26.138 10.242 18.667 18.784 18.667 29.050 C 18.667 29.170 18.666 29.286 18.667 29.406 C 17.745 32.270 16.524 34.638 15.171 36 L 18.593 36 C 18.996 35.856 19.371 35.692 19.687 35.511 C 19.573 35.675 19.485 35.837 19.384 36 L 36 36 L 36 8.427 z " style="fill:#b06832;fill-rule:evenodd;stroke:none;stroke-width:0.635;stroke-linecap:butt;stroke-linejoin:miter;marker:none" />
<path id="path4367-4" d="M 28.025 16.693 C 28.782 20.953 27.332 27.734 22.779 35.884 A 17.997 17.997 0 0 0 22.828 36 L 36 36 L 36 19.048 C 34.671 18.486 34.238 17.802 34.238 17.802 L 34.802 20.011 C 32.262 20.839 28.872 17.798 28.025 16.693 z " style="fill:#ffc78f;fill-rule:evenodd;stroke:none;stroke-width:0.635;stroke-linecap:round;stroke-linejoin:round;marker:none" />
<path id="path4884-9" d="M 31.949 32.757 C 29.914 32.802 28.656 33.411 28.656 35.662 C 28.656 35.776 28.673 35.887 28.679 36 L 36 36 L 36 33.017 C 34.470 32.880 33.081 32.732 31.949 32.757 z " style="fill:#321a1a;fill-rule:evenodd;stroke:none;stroke-width:0.635;stroke-linecap:round;stroke-linejoin:round;marker:none" />
<path id="path4879-6" d="M 31.949 32.712 C 30.163 32.751 28.976 33.225 28.712 34.863 C 29.416 35.288 30.189 35.667 31.011 36 L 36 36 L 36 32.970 C 34.470 32.833 33.081 32.687 31.949 32.712 z " style="fill:#ffffff;fill-rule:evenodd;stroke:none;stroke-width:0.635;stroke-linecap:round;stroke-linejoin:round;marker:none" />
<path id="path4743" d="M 0 0 L 0 14.634 L 36 35.421 L 36 27.398 L 6.220 0 L 0 0 z M 34.441 0 L 36 2.699 L 36 0 L 34.441 0 z " style="fill:#f9f130;fill-opacity:0.110;fill-rule:evenodd;stroke:none;stroke-width:1.909;stroke-linecap:butt;stroke-linejoin:miter" />
<path id="path4869-7-5" d="M 32.738 23.542 L 32.740 23.544 C 30.939 23.544 29.384 24.601 28.837 26.146 A 0.636 0.636 0 1 0 30.033 26.570 C 30.385 25.573 31.433 24.814 32.738 24.814 C 34.092 24.814 35.169 25.626 35.480 26.679 A 0.636 0.636 0 0 0 36 27.150 L 36 25.035 C 35.244 24.120 34.060 23.542 32.738 23.542 z " style="color:#000000;font-size:medium;font-family:sans-serif;text-indent:0;text-align:start;text-decoration:none;text-decoration-line:none;text-decoration-style:solid;text-decoration-color:#000000;text-transform:none;writing-mode:lr-tb;direction:ltr;baseline-shift:baseline;text-anchor:start;solid-color:#000000;solid-opacity:1;fill:#333333;fill-rule:nonzero;stroke:none;stroke-width:1.271;stroke-linecap:round;stroke-linejoin:miter;marker:none" />
</svg>
