<?xml version="1.0" encoding="UTF-8" standalone="no"?>
<!-- Created with Inkscape (http://www.inkscape.org/) -->

<svg
 xmlns:dc="http://purl.org/dc/elements/1.1/"
 xmlns:cc="http://creativecommons.org/ns#"
 xmlns:rdf="http://www.w3.org/1999/02/22-rdf-syntax-ns#"
 xmlns:svg="http://www.w3.org/2000/svg"
 xmlns="http://www.w3.org/2000/svg"
 xmlns:xlink="http://www.w3.org/1999/xlink"
 version="1.0"
 width="100%"
 height="100%"
 viewBox="0 0 96 96"
 id="svg2383">
<metadata
 id="metadata21">
<rdf:RDF>
<cc:Work
 rdf:about="">
<dc:format>image/svg+xml</dc:format>
<dc:type
 rdf:resource="http://purl.org/dc/dcmitype/StillImage" />
<dc:title></dc:title>
</cc:Work>
</rdf:RDF>
</metadata>
<defs
 id="defs2385" />
<g
 transform="translate(13.747781,14.809977)"
 id="g3212">
<path
 d="m 4.59,-1.18 c -0.17,0 -0.32,0.05 -0.47,0.09 L 1.09,0.09 C 0.45,0.3 0,0.88 0,1.59 l 0,6.06 c 0,0.89 0.7,1.6 1.59,1.6 l 6.06,0 0.6,-0.13 C 9.28,8.71 10.33,8.3 11.37,7.9 11.89,7.63 12.25,7.06 12.25,6.43 l 0,-6.03 c 0,-0.88 -0.71,-1.58 -1.6,-1.58 l -6.06,0 z"
 id="path5"
 style="fill:#000080" />
<rect
 width="9.25"
 height="9.25"
 ry="1.6"
 x="0"
 y="0"
 id="rect7"
 style="fill:#0000ff" />
<path
 d="m 4.59,-1.18 c -0.17,0 -0.32,0.05 -0.47,0.09 L 1.09,0.09 C 0.45,0.3 0,0.88 0,1.59 l 0,6.06 c 0,0.89 0.7,1.6 1.59,1.6 l 6.06,0 0.6,-0.13 C 9.28,8.71 10.33,8.3 11.37,7.9 11.89,7.63 12.25,7.06 12.25,6.43 l 0,-6.03 c 0,-0.88 -0.71,-1.58 -1.6,-1.58 l -6.06,0 z"
 id="path9"
 style="fill:none;stroke:#091340;stroke-width:0.30000001" />
</g>
<use
 transform="translate(49.435076,68.373344)"
 id="use2431"
 x="0"
 y="0"
 width="96"
 height="96"
 xlink:href="#g3212" />
<use
 transform="translate(52.430059,-0.64421308)"
 id="use2433"
 x="0"
 y="0"
 width="96"
 height="96"
 xlink:href="#g3212" />
<use
 transform="translate(-11.16811,19.067113)"
 id="use2477"
 x="0"
 y="0"
 width="96"
 height="96"
 xlink:href="#g3212" />
<use
 transform="translate(58.196554,23.561868)"
 id="use2479"
 x="0"
 y="0"
 width="96"
 height="96"
 xlink:href="#g3212" />
<use
 transform="translate(61.403081,48.565094)"
 id="use2545"
 x="0"
 y="0"
 width="96"
 height="96"
 xlink:href="#g3212" />
<use
 transform="translate(21.831474,18.783443)"
 id="use2547"
 x="0"
 y="0"
 width="96"
 height="96"
 xlink:href="#g3212" />
<use
 transform="translate(23.006422,-6.9972348)"
 id="use2549"
 x="0"
 y="0"
 width="96"
 height="96"
 xlink:href="#g3212" />
<use
 transform="translate(27.732597,43.118644)"
 id="use2392"
 x="0"
 y="0"
 width="96"
 height="96"
 xlink:href="#g3212" />
<use
 transform="translate(-0.33345459,42.509348)"
 id="use2394"
 x="0"
 y="0"
 width="96"
 height="96"
 xlink:href="#g3212" />
<use
 transform="translate(19.342111,64.997453)"
 id="use2396"
 x="0"
 y="0"
 width="96"
 height="96"
 xlink:href="#g3212" />
</svg>
