<?xml version="1.0" encoding="UTF-8" standalone="no"?>
<!-- Created with Inkscape (http://www.inkscape.org/) -->
<svg
   xmlns:svg="http://www.w3.org/2000/svg"
   xmlns="http://www.w3.org/2000/svg"
   xmlns:xlink="http://www.w3.org/1999/xlink"
   version="1.0"
   width="100%"
   height="100%"
   viewBox="0 0 96 96"
   id="svg2383">
  <defs
     id="defs2385" />
  <g
     transform="translate(5.2054077,8.3015021)"
     id="g3212">
    <path
       d="M 4.59,-1.18 C 4.42,-1.18 4.27,-1.13 4.12,-1.09 L 1.09,0.09 C 0.45,0.3 -1.73e-18,0.88 0,1.59 L 0,7.65 C 0,8.54 0.7,9.25 1.59,9.25 L 7.65,9.25 L 8.25,9.12 C 9.28,8.71 10.33,8.3 11.37,7.9 C 11.89,7.63 12.25,7.06 12.25,6.43 L 12.25,0.4 C 12.25,-0.48 11.54,-1.18 10.65,-1.18 L 4.59,-1.18 z"
       id="path5"
       style="fill:#000080" />
    <rect
       width="9.25"
       height="9.25"
       ry="1.6"
       x="0"
       y="0"
       id="rect7"
       style="fill:#0000ff" />
    <path
       d="M 4.59,-1.18 C 4.42,-1.18 4.27,-1.13 4.12,-1.09 L 1.09,0.09 C 0.45,0.3 -1.73e-18,0.88 0,1.59 L 0,7.65 C 0,8.54 0.7,9.25 1.59,9.25 L 7.65,9.25 L 8.25,9.12 C 9.28,8.71 10.33,8.3 11.37,7.9 C 11.89,7.63 12.25,7.06 12.25,6.43 L 12.25,0.4 C 12.25,-0.48 11.54,-1.18 10.65,-1.18 L 4.59,-1.18 z"
       id="path9"
       style="fill:none;stroke:#091340;stroke-width:0.30000001" />
  </g>
  <use
     transform="translate(71.069099,0.2002148)"
     id="use2387"
     x="0"
     y="0"
     width="96"
     height="96"
     xlink:href="#g3212" />
  <use
     transform="translate(64.892703,67.153005)"
     id="use2431"
     x="0"
     y="0"
     width="96"
     height="96"
     xlink:href="#g3212" />
  <use
     transform="translate(45.108025,-2.6781114)"
     id="use2433"
     x="0"
     y="0"
     width="96"
     height="96"
     xlink:href="#g3212" />
  <use
     transform="translate(1.4420598,28.016266)"
     id="use2477"
     x="0"
     y="0"
     width="96"
     height="96"
     xlink:href="#g3212" />
  <use
     transform="translate(66.738927,30.070343)"
     id="use2479"
     x="0"
     y="0"
     width="96"
     height="96"
     xlink:href="#g3212" />
  <use
     transform="translate(46.759013,44.904077)"
     id="use2545"
     x="0"
     y="0"
     width="96"
     height="96"
     xlink:href="#g3212" />
  <use
     transform="translate(38.10266,21.630901)"
     id="use2547"
     x="0"
     y="0"
     width="96"
     height="96"
     xlink:href="#g3212" />
  <use
     transform="translate(18.531846,10.087511)"
     id="use2549"
     x="0"
     y="0"
     width="96"
     height="96"
     xlink:href="#g3212" />
  <use
     transform="translate(21.630902,48)"
     id="use2392"
     x="0"
     y="0"
     width="96"
     height="96"
     xlink:href="#g3212" />
  <use
     transform="translate(5.7682403,64.06867)"
     id="use2394"
     x="0"
     y="0"
     width="96"
     height="96"
     xlink:href="#g3212" />
  <use
     transform="translate(33.579399,73.133047)"
     id="use2396"
     x="0"
     y="0"
     width="96"
     height="96"
     xlink:href="#g3212" />
</svg>
