<?xml version="1.0" encoding="UTF-8" standalone="no"?>
<!-- Created with Inkscape (http://www.inkscape.org/) -->
<svg
   xmlns:svg="http://www.w3.org/2000/svg"
   xmlns="http://www.w3.org/2000/svg"
   xmlns:xlink="http://www.w3.org/1999/xlink"
   version="1.0"
   width="100%"
   height="100%"
   viewBox="0 0 48 48"
   id="ontology">
  <defs
     id="defs2385">
    <linearGradient
       id="linearGradient5044">
      <stop
         id="stop5046"
         style="stop-color:#c5fbed;stop-opacity:1"
         offset="0" />
      <stop
         id="stop5048"
         style="stop-color:#6feee1;stop-opacity:0"
         offset="1" />
    </linearGradient>
    <linearGradient
       id="linearGradient3220">
      <stop
         id="stop3222"
         style="stop-color:#b9f6f9;stop-opacity:1"
         offset="0" />
      <stop
         id="stop3224"
         style="stop-color:#0c5e68;stop-opacity:1"
         offset="1" />
    </linearGradient>
    <linearGradient
       id="linearGradient3210">
      <stop
         id="stop3212"
         style="stop-color:#1e7e7e;stop-opacity:1"
         offset="0" />
      <stop
         id="stop3214"
         style="stop-color:#82faf4;stop-opacity:1"
         offset="1" />
    </linearGradient>
    <linearGradient
       x1="24"
       y1="48"
       x2="24"
       y2="0"
       id="linearGradient3496"
       xlink:href="#linearGradient3210"
       gradientUnits="userSpaceOnUse" />
    <radialGradient
       cx="24"
       cy="43.228447"
       r="23.5"
       fx="24"
       fy="43.228447"
       id="radialGradient3597"
       xlink:href="#linearGradient3220"
       gradientUnits="userSpaceOnUse"
       gradientTransform="matrix(2.351355,0,0,1.8182318,-32.43252,-35.370889)" />
    <radialGradient
       cx="23.999998"
       cy="28.612509"
       r="23.5"
       fx="23.999998"
       fy="28.612509"
       id="radialGradient5040"
       xlink:href="#linearGradient5044"
       gradientUnits="userSpaceOnUse"
       gradientTransform="matrix(1.5870545,4.6792776e-8,-4.7351043e-8,1.605989,-22.68007,-33.349655)" />
    <marker
       refX="0"
       refY="0"
       orient="auto"
       id="Arrow2Lend"
       style="overflow:visible">
      <path
         d="M 8.71,4.03 L -2.2,0.01 L 8.71,-4 C 6.97,-1.62 6.98,1.61 8.71,4.03 z"
         transform="matrix(-1.1,0,0,-1.1,-1.1,0)"
         id="p4171"
         style="font-size:12px;fill-rule:evenodd;stroke-width:0.62;stroke-linejoin:round" />
    </marker>
  </defs>
  <path
     d="M 9.625,0.5 C 4.5670164,0.5 0.5,4.5670164 0.5,9.625 L 0.5,38.375 C 0.5,43.432984 4.5670164,47.5 9.625,47.5 L 38.375,47.5 C 43.432984,47.5 47.5,43.432986 47.5,38.375 L 47.5,9.625 C 47.5,4.5670164 43.432986,0.5 38.375,0.5 L 9.625,0.5 z"
     id="rect3218"
     style="fill:url(#radialGradient3597);fill-opacity:1;fill-rule:nonzero;stroke:none;stroke-width:1;stroke-linecap:butt;stroke-linejoin:round;marker:none;stroke-miterlimit:4;stroke-dasharray:none;stroke-dashoffset:0;stroke-opacity:1;visibility:visible;display:inline;overflow:visible;enable-background:accumulate" />
  <path
     d="M 23.781266,4.4267096 L 22.649702,6.920343 L 22.565881,7.8214024 L 22.77543,9.3301555 L 20.114159,10.042622 L 19.548377,8.6176894 L 19.024504,7.9052234 L 16.803286,6.3126515 L 15.525038,7.0460712 L 15.797452,9.7702099 L 16.153685,10.566494 L 17.11761,11.760924 L 15.147849,13.730685 L 13.953422,12.766758 L 13.157135,12.410525 L 10.432998,12.138113 L 9.6995762,13.416361 L 11.292149,15.63758 L 12.004615,16.161453 L 13.429549,16.727236 L 12.696127,19.388507 L 11.20833,19.178957 L 10.307268,19.262776 L 7.8136365,20.39434 L 7.8136365,21.421132 L 17.096656,21.421132 C 17.092749,21.322133 17.0757,21.227719 17.0757,21.127762 C 17.0757,17.147344 20.206375,13.888258 24.137499,13.688775 C 24.264311,13.682338 24.386286,13.688775 24.514688,13.688775 C 28.623506,13.688773 31.953675,17.018944 31.953675,21.127762 C 31.953675,21.227719 31.936626,21.322133 31.932721,21.421132 L 41.215742,21.421132 L 41.215742,20.39434 L 38.722109,19.262776 L 37.821047,19.178957 L 36.33325,19.388507 L 35.620784,16.727236 L 37.024763,16.161453 L 37.737229,15.63758 L 39.329801,13.416361 L 38.596379,12.138113 L 35.872243,12.410525 L 35.075956,12.766758 L 33.881526,13.730685 L 31.911765,11.760924 L 32.87569,10.566494 L 33.231925,9.7702099 L 33.504337,7.0460712 L 32.226089,6.3126515 L 30.00487,7.9052234 L 29.480997,8.6176894 L 28.915215,10.042622 L 26.253944,9.3301555 L 26.463493,7.8214024 L 26.400628,6.920343 L 25.248108,4.4267096 L 23.781266,4.4267096 z M 5.1314098,22.196461 L 5.1314098,24.941553 L 43.499825,24.941553 L 43.499825,22.196461 L 5.1314098,22.196461 z M 6.8916214,25.73784 L 6.8916214,37.095392 L 11.983661,37.095392 L 11.983661,25.73784 L 6.8916214,25.73784 z M 14.540157,25.73784 L 14.540157,37.095392 L 19.611242,37.095392 L 19.611242,25.73784 L 14.540157,25.73784 z M 21.979145,25.73784 L 21.979145,37.095392 L 27.071185,37.095392 L 27.071185,25.73784 L 21.979145,25.73784 z M 29.606728,25.73784 L 29.606728,37.095392 L 34.698767,37.095392 L 34.698767,25.73784 L 29.606728,25.73784 z M 37.045718,25.73784 L 37.045718,37.095392 L 42.137758,37.095392 L 42.137758,25.73784 L 37.045718,25.73784 z M 5.1314098,38.268868 L 5.1314098,40.993004 L 43.499825,40.993004 L 43.499825,38.268868 L 5.1314098,38.268868 z"
     id="path3845"
     style="opacity:1;fill:none;fill-opacity:1;fill-rule:evenodd;stroke:#ffffff;stroke-width:2.5;stroke-linecap:butt;stroke-linejoin:miter;marker:none;marker-start:none;marker-mid:none;marker-end:none;stroke-miterlimit:4;stroke-dasharray:none;stroke-dashoffset:0;stroke-opacity:0.56818183;visibility:visible;display:inline;overflow:visible;enable-background:accumulate" />
  <path
     d="M 9.625,0.5 C 4.5670164,0.5 0.5,4.5670164 0.5,9.625 L 0.5,18.78125 C 6.9980288,21.8908 15.151882,23.75 24,23.75 C 32.848118,23.75 41.001971,21.8908 47.5,18.78125 L 47.5,9.625 C 47.5,4.5670164 43.432986,0.5 38.375,0.5 L 9.625,0.5 z"
     id="path3228"
     style="fill:#caeef2;fill-opacity:0.22727272;fill-rule:evenodd;stroke:none;stroke-width:1;stroke-linecap:round;stroke-linejoin:round;marker:none;marker-start:none;marker-mid:none;marker-end:none;stroke-miterlimit:4;stroke-dasharray:none;stroke-dashoffset:0;stroke-opacity:1;visibility:visible;display:inline;overflow:visible;enable-background:accumulate" />
  <path
     d="M 9.625,0.5 C 4.5670164,0.5 0.5,4.5670164 0.5,9.625 L 0.5,38.375 C 0.5,43.432984 4.5670164,47.5 9.625,47.5 L 38.375,47.5 C 43.432984,47.5 47.5,43.432986 47.5,38.375 L 47.5,9.625 C 47.5,4.5670164 43.432986,0.5 38.375,0.5 L 9.625,0.5 z"
     id="path5032"
     style="fill:url(#radialGradient5040);fill-opacity:1;fill-rule:nonzero;stroke:none;stroke-width:1;stroke-linecap:butt;stroke-linejoin:round;marker:none;stroke-miterlimit:4;stroke-dasharray:none;stroke-dashoffset:0;stroke-opacity:1;visibility:visible;display:inline;overflow:visible;enable-background:accumulate" />
  <rect
     width="47"
     height="47"
     ry="9.1299343"
     x="0.5"
     y="0.5"
     id="r2393"
     style="fill:none;fill-opacity:1;fill-rule:nonzero;stroke:url(#linearGradient3496);stroke-width:1;stroke-linecap:butt;stroke-linejoin:round;marker:none;stroke-miterlimit:4;stroke-dasharray:none;stroke-dashoffset:0;stroke-opacity:1;visibility:visible;display:inline;overflow:visible;enable-background:accumulate" />
  <path
     d="M 23.781266,4.4267096 L 22.649702,6.920343 L 22.565881,7.8214024 L 22.77543,9.3301555 L 20.114159,10.042622 L 19.548377,8.6176894 L 19.024504,7.9052234 L 16.803286,6.3126515 L 15.525038,7.0460712 L 15.797452,9.7702099 L 16.153685,10.566494 L 17.11761,11.760924 L 15.147849,13.730685 L 13.953422,12.766758 L 13.157135,12.410525 L 10.432998,12.138113 L 9.6995762,13.416361 L 11.292149,15.63758 L 12.004615,16.161453 L 13.429549,16.727236 L 12.696127,19.388507 L 11.20833,19.178957 L 10.307268,19.262776 L 7.8136365,20.39434 L 7.8136365,21.421132 L 17.096656,21.421132 C 17.092749,21.322133 17.0757,21.227719 17.0757,21.127762 C 17.0757,17.147344 20.206375,13.888258 24.137499,13.688775 C 24.264311,13.682338 24.386286,13.688775 24.514688,13.688775 C 28.623506,13.688773 31.953675,17.018944 31.953675,21.127762 C 31.953675,21.227719 31.936626,21.322133 31.932721,21.421132 L 41.215742,21.421132 L 41.215742,20.39434 L 38.722109,19.262776 L 37.821047,19.178957 L 36.33325,19.388507 L 35.620784,16.727236 L 37.024763,16.161453 L 37.737229,15.63758 L 39.329801,13.416361 L 38.596379,12.138113 L 35.872243,12.410525 L 35.075956,12.766758 L 33.881526,13.730685 L 31.911765,11.760924 L 32.87569,10.566494 L 33.231925,9.7702099 L 33.504337,7.0460712 L 32.226089,6.3126515 L 30.00487,7.9052234 L 29.480997,8.6176894 L 28.915215,10.042622 L 26.253944,9.3301555 L 26.463493,7.8214024 L 26.400628,6.920343 L 25.248108,4.4267096 L 23.781266,4.4267096 z M 5.1314098,22.196461 L 5.1314098,24.941553 L 43.499825,24.941553 L 43.499825,22.196461 L 5.1314098,22.196461 z M 6.8916214,25.73784 L 6.8916214,37.095392 L 11.983661,37.095392 L 11.983661,25.73784 L 6.8916214,25.73784 z M 14.540157,25.73784 L 14.540157,37.095392 L 19.611242,37.095392 L 19.611242,25.73784 L 14.540157,25.73784 z M 21.979145,25.73784 L 21.979145,37.095392 L 27.071185,37.095392 L 27.071185,25.73784 L 21.979145,25.73784 z M 29.606728,25.73784 L 29.606728,37.095392 L 34.698767,37.095392 L 34.698767,25.73784 L 29.606728,25.73784 z M 37.045718,25.73784 L 37.045718,37.095392 L 42.137758,37.095392 L 42.137758,25.73784 L 37.045718,25.73784 z M 5.1314098,38.268868 L 5.1314098,40.993004 L 43.499825,40.993004 L 43.499825,38.268868 L 5.1314098,38.268868 z"
     id="rect2715"
     style="fill:#31898b;fill-opacity:1;fill-rule:nonzero;stroke:none;stroke-width:1;stroke-linecap:butt;stroke-linejoin:miter;marker:none;marker-start:none;marker-mid:none;marker-end:none;stroke-miterlimit:4;stroke-dasharray:2, 2;stroke-dashoffset:0;stroke-opacity:1;visibility:visible;display:inline;overflow:visible;enable-background:accumulate" />
</svg>
