<?xml version="1.0" encoding="UTF-8" standalone="no"?>
<!-- Created with Inkscape (http://www.inkscape.org/) -->
<svg
   xmlns:svg="http://www.w3.org/2000/svg"
   xmlns="http://www.w3.org/2000/svg"
   xmlns:xlink="http://www.w3.org/1999/xlink"
   version="1.0"
   width="100%"
   height="100%"
   viewBox="0 0 48 48"
   id="ontology">
  <defs
     id="defs2385">
    <linearGradient
       id="linearGradient5044">
      <stop
         id="stop5046"
         style="stop-color:#c5fbed;stop-opacity:1"
         offset="0" />
      <stop
         id="stop5048"
         style="stop-color:#6feee1;stop-opacity:0"
         offset="1" />
    </linearGradient>
    <linearGradient
       id="linearGradient3220">
      <stop
         id="stop3222"
         style="stop-color:#b9f6f9;stop-opacity:1"
         offset="0" />
      <stop
         id="stop3224"
         style="stop-color:#0c5e68;stop-opacity:1"
         offset="1" />
    </linearGradient>
    <linearGradient
       id="linearGradient3210">
      <stop
         id="stop3212"
         style="stop-color:#1e7e7e;stop-opacity:1"
         offset="0" />
      <stop
         id="stop3214"
         style="stop-color:#82faf4;stop-opacity:1"
         offset="1" />
    </linearGradient>
    <linearGradient
       x1="24"
       y1="48"
       x2="24"
       y2="0"
       id="linearGradient3496"
       xlink:href="#linearGradient3210"
       gradientUnits="userSpaceOnUse" />
    <radialGradient
       cx="24"
       cy="43.228447"
       r="23.5"
       fx="24"
       fy="43.228447"
       id="radialGradient3597"
       xlink:href="#linearGradient3220"
       gradientUnits="userSpaceOnUse"
       gradientTransform="matrix(2.351355,0,0,1.8182318,-32.43252,-35.370889)" />
    <radialGradient
       cx="23.999998"
       cy="28.612509"
       r="23.5"
       fx="23.999998"
       fy="28.612509"
       id="radialGradient5040"
       xlink:href="#linearGradient5044"
       gradientUnits="userSpaceOnUse"
       gradientTransform="matrix(1.5870545,4.6792776e-8,-4.7351043e-8,1.605989,-22.68007,-33.349655)" />
    <linearGradient
       x1="24"
       y1="48"
       x2="24"
       y2="0"
       id="linearGradient2736"
       xlink:href="#linearGradient3210"
       gradientUnits="userSpaceOnUse" />
    <radialGradient
       cx="10.79"
       cy="39.720001"
       r="20.780001"
       fx="10.79"
       fy="39.720001"
       id="rg3048"
       xlink:href="#lg3953"
       gradientUnits="userSpaceOnUse"
       gradientTransform="matrix(0.25,0.25,-1.55,1.59,69.84,-27.62)" />
    <radialGradient
       cx="8.3900003"
       cy="44.470001"
       r="14.78"
       fx="8.3900003"
       fy="44.470001"
       id="rg3044"
       xlink:href="#lg3996"
       gradientUnits="userSpaceOnUse"
       gradientTransform="matrix(0.66,0.83,-1.69,1.35,78.27,-25.35)" />
    <linearGradient
       id="lg3953">
      <stop
         id="s3955"
         style="stop-color:#c2dfff;stop-opacity:1"
         offset="0" />
      <stop
         id="s3957"
         style="stop-color:#7e9fc1;stop-opacity:1"
         offset="1" />
    </linearGradient>
    <linearGradient
       id="lg3996">
      <stop
         id="s3998"
         style="stop-color:#13294c;stop-opacity:0.46000001"
         offset="0" />
      <stop
         id="s4000"
         style="stop-color:#bde2e2;stop-opacity:0.55000001"
         offset="1" />
    </linearGradient>
    <radialGradient
       cx="23.999998"
       cy="28.612509"
       r="23.5"
       fx="23.999998"
       fy="28.612509"
       id="radialGradient2750"
       xlink:href="#linearGradient5044"
       gradientUnits="userSpaceOnUse"
       gradientTransform="matrix(1.0027638,2.9565527e-8,-2.9918262e-8,1.0147274,-6.6329222e-2,-12.380614)" />
    <radialGradient
       cx="24"
       cy="43.228447"
       r="23.5"
       fx="24"
       fy="43.228447"
       id="radialGradient2748"
       xlink:href="#linearGradient3220"
       gradientUnits="userSpaceOnUse"
       gradientTransform="matrix(2.351355,0,0,1.8182318,-32.43252,-35.370889)" />
    <linearGradient
       x1="24"
       y1="48"
       x2="24"
       y2="0"
       id="linearGradient2746"
       xlink:href="#linearGradient3210"
       gradientUnits="userSpaceOnUse" />
    <linearGradient
       id="linearGradient2740">
      <stop
         id="stop2742"
         style="stop-color:#1e7e32;stop-opacity:1"
         offset="0" />
      <stop
         id="stop2744"
         style="stop-color:#82fa8f;stop-opacity:1"
         offset="1" />
    </linearGradient>
    <linearGradient
       id="linearGradient2734">
      <stop
         id="stop2736"
         style="stop-color:#b9f9b9;stop-opacity:1"
         offset="0" />
      <stop
         id="stop2738"
         style="stop-color:#0e770e;stop-opacity:1"
         offset="1" />
    </linearGradient>
    <linearGradient
       id="linearGradient2728">
      <stop
         id="stop2730"
         style="stop-color:#def049;stop-opacity:1"
         offset="0" />
      <stop
         id="stop2732"
         style="stop-color:#eeee6f;stop-opacity:0"
         offset="1" />
    </linearGradient>
    <radialGradient
       cx="24"
       cy="43.228447"
       r="23.5"
       fx="24"
       fy="43.228447"
       id="radialGradient2775"
       xlink:href="#linearGradient3220"
       gradientUnits="userSpaceOnUse"
       gradientTransform="matrix(2.351355,0,0,1.8182318,-32.43252,-35.370889)" />
    <radialGradient
       cx="23.999998"
       cy="28.612509"
       r="23.5"
       fx="23.999998"
       fy="28.612509"
       id="radialGradient2777"
       xlink:href="#linearGradient5044"
       gradientUnits="userSpaceOnUse"
       gradientTransform="matrix(1.5870545,4.6792776e-8,-4.7351043e-8,1.605989,-22.68007,-33.349655)" />
    <linearGradient
       x1="24"
       y1="48"
       x2="24"
       y2="0"
       id="linearGradient2779"
       xlink:href="#linearGradient3210"
       gradientUnits="userSpaceOnUse" />
    <linearGradient
       x1="24"
       y1="48"
       x2="24"
       y2="0"
       id="linearGradient2794"
       xlink:href="#linearGradient3210"
       gradientUnits="userSpaceOnUse"
       gradientTransform="translate(-60.28367,-29.804537)" />
    <radialGradient
       cx="23.999998"
       cy="28.612509"
       r="23.5"
       fx="23.999998"
       fy="28.612509"
       id="radialGradient2797"
       xlink:href="#linearGradient5044"
       gradientUnits="userSpaceOnUse"
       gradientTransform="matrix(1.5870545,4.6792776e-8,-4.7351043e-8,1.605989,-82.96374,-63.154192)" />
    <radialGradient
       cx="24"
       cy="43.228447"
       r="23.5"
       fx="24"
       fy="43.228447"
       id="radialGradient2802"
       xlink:href="#linearGradient3220"
       gradientUnits="userSpaceOnUse"
       gradientTransform="matrix(2.351355,0,0,1.8182318,-92.71619,-65.175426)" />
  </defs>
  <path
     d="M 9.625,0.5 C 4.5670164,0.5 0.5,4.5670164 0.5,9.625 L 0.5,38.375 C 0.5,43.432984 4.5670164,47.5 9.625,47.5 L 38.375,47.5 C 43.432984,47.5 47.5,43.432986 47.5,38.375 L 47.5,9.625 C 47.5,4.5670164 43.432986,0.5 38.375,0.5 L 9.625,0.5 z"
     id="rect3218"
     style="fill:url(#radialGradient3597);fill-opacity:1;fill-rule:nonzero;stroke:none;stroke-width:1;stroke-linecap:butt;stroke-linejoin:round;marker:none;stroke-miterlimit:4;stroke-dasharray:none;stroke-dashoffset:0;stroke-opacity:1;visibility:visible;display:inline;overflow:visible;enable-background:accumulate" />
  <path
     d="M 9.625,0.5 C 4.5670164,0.5 0.5,4.5670164 0.5,9.625 L 0.5,18.78125 C 6.9980288,21.8908 15.151882,23.75 24,23.75 C 32.848118,23.75 41.001971,21.8908 47.5,18.78125 L 47.5,9.625 C 47.5,4.5670164 43.432986,0.5 38.375,0.5 L 9.625,0.5 z"
     id="path3228"
     style="fill:#caeef2;fill-opacity:0.22727272;fill-rule:evenodd;stroke:none;stroke-width:1;stroke-linecap:round;stroke-linejoin:round;marker:none;marker-start:none;marker-mid:none;marker-end:none;stroke-miterlimit:4;stroke-dasharray:none;stroke-dashoffset:0;stroke-opacity:1;visibility:visible;display:inline;overflow:visible;enable-background:accumulate" />
  <path
     d="M 9.625,0.5 C 6.7798842,0.5 4.2656648,1.7849458 2.59375,3.8125 L 0.5,17.09375 L 0.5,34.71875 L 11.59375,0.5 L 9.625,0.5 z M 17.40625,0.5 L 0.5,38.5 C 0.51470535,39.600701 0.72539208,40.652863 1.09375,41.625 L 27.75,0.5 L 17.40625,0.5 z M 35.53125,0.5 L 1.53125,42.59375 C 1.7953186,43.099852 2.1181083,43.586917 2.46875,44.03125 L 46.03125,4.6875 C 44.408215,2.1747993 41.60136,0.5 38.375,0.5 L 35.53125,0.5 z M 47.5,12.25 L 2.96875,44.625 C 3.3842378,45.067905 3.8472773,45.459817 4.34375,45.8125 L 47.5,23.75 L 47.5,12.25 z M 47.5,30.15625 L 5.28125,46.40625 C 6.4027867,47.013998 7.6535777,47.378382 9,47.46875 L 47.4375,39.25 C 47.464616,38.962185 47.5,38.670142 47.5,38.375 L 47.5,30.15625 z M 44.6875,45 L 20.875,47.5 L 38.375,47.5 C 40.823411,47.5 43.051218,46.558269 44.6875,45 z"
     id="path2843"
     style="fill:#e5eeaf;fill-opacity:0.21818183;fill-rule:evenodd;stroke:none;stroke-width:0.75539851px;stroke-linecap:butt;stroke-linejoin:miter;stroke-opacity:1" />
  <path
     d="M 9.625,0.5 C 4.5670164,0.5 0.5,4.5670164 0.5,9.625 L 0.5,38.375 C 0.5,43.432984 4.5670164,47.5 9.625,47.5 L 38.375,47.5 C 43.432984,47.5 47.5,43.432986 47.5,38.375 L 47.5,9.625 C 47.5,4.5670164 43.432986,0.5 38.375,0.5 L 9.625,0.5 z"
     id="path5032"
     style="fill:url(#radialGradient5040);fill-opacity:1;fill-rule:nonzero;stroke:none;stroke-width:1;stroke-linecap:butt;stroke-linejoin:round;marker:none;stroke-miterlimit:4;stroke-dasharray:none;stroke-dashoffset:0;stroke-opacity:1;visibility:visible;display:inline;overflow:visible;enable-background:accumulate" />
  <rect
     width="47"
     height="47"
     ry="9.1299343"
     x="0.5"
     y="0.5"
     id="r2393"
     style="fill:none;fill-opacity:1;fill-rule:nonzero;stroke:url(#linearGradient3496);stroke-width:1;stroke-linecap:butt;stroke-linejoin:round;marker:none;stroke-miterlimit:4;stroke-dasharray:none;stroke-dashoffset:0;stroke-opacity:1;visibility:visible;display:inline;overflow:visible;enable-background:accumulate" />
  <rect
     width="47"
     height="47"
     ry="9.1299343"
     x="0.5"
     y="0.5"
     id="rect2629"
     style="fill:none;fill-opacity:1;fill-rule:nonzero;stroke:url(#linearGradient2736);stroke-width:1;stroke-linecap:butt;stroke-linejoin:round;marker:none;stroke-miterlimit:4;stroke-dasharray:none;stroke-dashoffset:0;stroke-opacity:1;visibility:visible;display:inline;overflow:visible;enable-background:accumulate" />
  <g
     transform="translate(59.845404,30.111038)"
     id="g2804">
    <path
       d="M -37.43992,-25.054537 L -54.06492,-24.960787 C -55.642805,-24.953157 -56.9163,-23.694922 -56.90867,-22.117037 L -56.81492,-5.492037 C -56.80729,-3.914152 -55.549055,-2.640658 -53.97117,-2.648287 L -48.28367,-2.679537 L -48.56492,-0.867037 C -48.81917,0.690248 -47.778455,2.159961 -46.22117,2.414213 L -40.28367,3.382963 L -41.09617,5.476713 C -41.672277,6.945685 -40.971392,8.588107 -39.50242,9.164213 L -24.03367,15.226713 C -22.564698,15.80282 -20.891026,15.070687 -20.31492,13.601713 L -14.25242,-1.867037 C -13.676313,-3.336009 -14.408446,-4.978431 -15.87742,-5.554537 L -24.62742,-8.992037 L -23.87742,-13.648287 C -23.62317,-15.205572 -24.663886,-16.675287 -26.22117,-16.929537 L -34.56492,-18.304537 L -34.59617,-22.210787 C -34.6038,-23.788672 -35.862035,-25.062167 -37.43992,-25.054537 z"
       id="rect2868"
       style="fill:none;fill-opacity:1;fill-rule:nonzero;stroke:#e5e5e5;stroke-width:2.5;stroke-linecap:butt;stroke-linejoin:round;marker:none;marker-start:none;marker-mid:none;marker-end:none;stroke-miterlimit:4;stroke-dasharray:none;stroke-dashoffset:0;stroke-opacity:0.45;visibility:visible;display:inline;overflow:visible;enable-background:accumulate" />
    <path
       d="M -54.069662,-24.964328 C -55.647547,-24.956698 -56.911687,-23.680273 -56.904057,-22.102388 L -56.823718,-5.488077 C -56.816088,-3.910192 -55.539663,-2.646052 -53.961778,-2.653681 L -37.347467,-2.73402 C -35.769582,-2.74165 -34.505442,-4.018076 -34.513072,-5.59596 L -34.593411,-22.210271 C -34.601041,-23.788156 -35.877466,-25.052297 -37.455351,-25.044667 L -54.069662,-24.964328 z"
       id="path2572"
       style="fill:#faf1b8;fill-opacity:1;fill-rule:evenodd;stroke:none;marker:none;visibility:visible;display:inline;overflow:visible;enable-background:accumulate" />
    <path
       d="M -37.914781,-25.042445 C -37.053906,-25.046608 -36.283395,-24.671166 -35.759087,-24.073788 C -35.795719,-21.445191 -35.837493,-19.048904 -35.808726,-19.000131 C -35.797797,-18.989307 -35.406547,-18.829674 -35.035769,-18.677509 L -34.997321,-10.726374 C -35.576948,-10.542971 -36.12604,-10.365784 -36.137762,-10.349996 C -36.182735,-10.290941 -36.406119,-6.456909 -36.62138,-2.989719 C -36.980622,-2.82417 -37.38421,-2.733843 -37.806897,-2.731799 L -40.684733,-2.717883 C -42.52933,-5.328375 -44.388604,-7.958083 -44.44849,-7.980784 C -44.56737,-8.022932 -56.74871,-4.790622 -56.820419,-4.894711 C -56.887404,-5.003569 -49.278927,-15.038849 -49.2748,-15.167039 C -49.270709,-15.267763 -53.720464,-22.169334 -55.359162,-24.824581 C -55.095698,-24.906105 -54.819859,-24.9607 -54.529092,-24.962106 L -52.867661,-24.97014 C -49.320651,-23.781502 -44.022518,-21.949451 -43.937598,-21.972238 C -43.897133,-21.985944 -42.721581,-23.391332 -41.371151,-25.025732 L -37.914781,-25.042445 z"
       id="path2574"
       style="fill:#f2eb92;fill-opacity:1;fill-rule:evenodd;stroke:none;marker:none;visibility:visible;display:inline;overflow:visible;enable-background:accumulate" />
    <rect
       width="22.310907"
       height="22.310907"
       ry="2.8482008"
       x="-56.796516"
       y="-25.225489"
       transform="matrix(0.9999883,-4.8354712e-3,4.8354712e-3,0.9999883,0,0)"
       id="rect2576"
       style="fill:none;fill-opacity:1;fill-rule:evenodd;stroke:#b16537;stroke-width:0.47470015;marker:none;stroke-opacity:1;visibility:visible;display:inline;overflow:visible;enable-background:accumulate" />
    <path
       d="M -42.823367,-23.38524 L -42.823367,-5.907541 L -47.652885,-5.907541 L -47.652885,-17.360064 C -48.434367,-16.766132 -49.192397,-16.285525 -49.926979,-15.918242 C -50.653755,-15.550939 -51.56808,-15.199275 -52.669958,-14.86325 L -52.669958,-18.778442 C -51.044492,-19.302017 -49.782411,-19.931104 -48.883709,-20.665705 C -47.985019,-21.400277 -47.281692,-22.306787 -46.773725,-23.38524 L -42.823367,-23.38524"
       id="text2844"
       style="font-size:24.00692558px;font-style:normal;font-variant:normal;font-weight:normal;font-stretch:normal;text-align:start;line-height:80.00000119%;writing-mode:lr-tb;text-anchor:start;fill:#b16537;fill-opacity:1;stroke:none;stroke-width:1px;stroke-linecap:butt;stroke-linejoin:miter;stroke-opacity:1;font-family:Arial Black;-inkscape-font-specification:Arial Black" />
    <path
       d="M -42.633374,-19.605146 C -44.190659,-19.859396 -45.649042,-18.810382 -45.903292,-17.253098 L -48.580416,-0.855696 C -48.834666,0.701589 -47.785653,2.159973 -46.228368,2.414223 L -29.830966,5.091346 C -28.273682,5.345597 -26.815298,4.296583 -26.561048,2.739299 L -23.883924,-13.658103 C -23.629674,-15.215388 -24.678687,-16.673772 -26.235972,-16.928022 L -42.633374,-19.605146 z"
       id="path2826"
       style="fill:#faf1b8;fill-opacity:1;fill-rule:evenodd;stroke:none;marker:none;visibility:visible;display:inline;overflow:visible;enable-background:accumulate" />
    <path
       d="M -26.689404,-17.002052 C -25.839768,-16.863336 -25.142221,-16.365267 -24.724285,-15.689184 C -25.1965,-13.10309 -25.635244,-10.746941 -25.614967,-10.694072 C -25.605985,-10.681585 -25.24664,-10.459255 -24.906245,-10.247685 L -26.18744,-2.400357 C -26.789461,-2.315656 -27.36034,-2.23202 -27.374519,-2.218396 C -27.428666,-2.167621 -28.285029,1.57622 -29.072521,4.959651 C -29.454249,5.063306 -29.867229,5.085426 -30.284399,5.017317 L -33.124663,4.553601 C -34.510612,1.673262 -35.907845,-1.228461 -35.963135,-1.260783 C -36.073376,-1.32207 -48.622156,-0.155462 -48.675603,-0.270005 C -48.723601,-0.388468 -39.555686,-9.022419 -39.530349,-9.148148 C -39.509605,-9.246797 -42.752711,-16.790951 -43.928189,-19.681266 C -43.654851,-19.717951 -43.373777,-19.726027 -43.086806,-19.679175 L -41.447066,-19.411463 C -38.146407,-17.65084 -33.225635,-14.965206 -33.138112,-14.973589 C -33.095934,-14.980392 -31.703516,-16.171278 -30.100649,-17.558989 L -26.689404,-17.002052 z"
       id="path2828"
       style="fill:#f2eb92;fill-opacity:1;fill-rule:evenodd;stroke:none;marker:none;visibility:visible;display:inline;overflow:visible;enable-background:accumulate" />
    <rect
       width="22.310907"
       height="22.310907"
       ry="2.8482008"
       x="-48.083492"
       y="-12.479376"
       transform="matrix(0.9869329,0.1611317,-0.1611317,0.9869329,0,0)"
       id="rect2830"
       style="fill:none;fill-opacity:1;fill-rule:evenodd;stroke:#b16537;stroke-width:0.47470015;marker:none;stroke-opacity:1;visibility:visible;display:inline;overflow:visible;enable-background:accumulate" />
    <path
       d="M -30.311583,2.3270453 L -44.626622,0.060991014 C -44.238859,-1.3265888 -43.532785,-2.5757213 -42.508399,-3.6864104 C -41.474972,-4.8036657 -39.680016,-6.0285279 -37.123523,-7.3609996 C -35.561189,-8.1783821 -34.542126,-8.8256026 -34.066333,-9.3026626 C -33.590562,-9.7797037 -33.314347,-10.260327 -33.237688,-10.744534 C -33.154871,-11.267768 -33.279644,-11.743822 -33.61201,-12.172699 C -33.935352,-12.608125 -34.389879,-12.872203 -34.975589,-12.964935 C -35.58475,-13.06135 -36.114853,-12.949134 -36.565901,-12.628289 C -37.009158,-12.306181 -37.373811,-11.671446 -37.659862,-10.72408 L -42.378157,-11.867245 C -41.978094,-13.180816 -41.468813,-14.17291 -40.850313,-14.843527 C -40.230585,-15.521925 -39.436237,-15.988574 -38.467266,-16.243475 C -37.489263,-16.504917 -36.195867,-16.508312 -34.587075,-16.25366 C -32.908018,-15.98785 -31.634101,-15.59006 -30.765319,-15.06029 C -29.888756,-14.529253 -29.247989,-13.82342 -28.843017,-12.942786 C -28.429032,-12.068701 -28.299914,-11.139659 -28.455666,-10.155657 C -28.62134,-9.1091592 -29.088061,-8.1583603 -29.855828,-7.3032578 C -30.615816,-6.4469055 -31.894344,-5.5765831 -33.691416,-4.6922883 C -34.757091,-4.1805258 -35.474942,-3.8178447 -35.844968,-3.6042431 C -36.207205,-3.3893992 -36.640985,-3.1018299 -37.146309,-2.7415343 L -29.695929,-1.5621475 L -30.311583,2.3270453"
       id="text2848"
       style="font-size:24.2898941px;font-style:normal;font-variant:normal;font-weight:normal;font-stretch:normal;text-align:start;line-height:80.00000119%;writing-mode:lr-tb;text-anchor:start;fill:#b16537;fill-opacity:1;stroke:none;stroke-width:1px;stroke-linecap:butt;stroke-linejoin:miter;stroke-opacity:1;font-family:Arial Black;-inkscape-font-specification:Arial Black" />
    <path
       d="M -31.343617,-11.610909 C -32.81259,-12.187016 -34.458989,-11.468211 -35.035096,-9.999238 L -41.101201,5.46828 C -41.677308,6.937253 -40.958503,8.583652 -39.489531,9.159759 L -24.022012,15.225864 C -22.55304,15.801971 -20.90664,15.083166 -20.330534,13.614193 L -14.264428,-1.853325 C -13.688321,-3.322297 -14.407127,-4.968697 -15.876099,-5.544803 L -31.343617,-11.610909 z"
       id="path2834"
       style="fill:#faf1b8;fill-opacity:1;fill-rule:evenodd;stroke:none;marker:none;visibility:visible;display:inline;overflow:visible;enable-background:accumulate" />
    <path
       d="M -16.303817,-5.712548 C -15.502364,-5.398231 -14.925179,-4.764588 -14.658793,-4.015725 C -15.664378,-1.586802 -16.588877,0.62436 -16.580173,0.680312 C -16.574018,0.694409 -16.269475,0.987346 -15.981194,1.265778 L -18.884259,8.668091 C -19.490628,8.624274 -20.066328,8.585966 -20.083055,8.596303 C -20.14667,8.634553 -21.771319,12.114527 -23.252833,15.256639 C -23.647824,15.277686 -24.056219,15.212449 -24.449731,15.05812 L -27.128926,14.007384 C -27.878049,10.89997 -28.633707,7.769277 -28.680962,7.726049 C -28.775846,7.642946 -41.289288,6.144071 -41.317448,6.020849 C -41.339455,5.89494 -30.560643,-0.617583 -30.509428,-0.735171 C -30.468399,-0.82725 -32.052195,-8.884767 -32.593457,-11.957666 C -32.318518,-11.936039 -32.042033,-11.884816 -31.771336,-11.778653 L -30.224584,-11.172043 C -27.368072,-8.756576 -23.122246,-5.096032 -23.034917,-5.085819 C -22.992252,-5.083598 -21.380502,-5.954977 -19.521614,-6.974514 L -16.303817,-5.712548 z"
       id="path2836"
       style="fill:#f2eb92;fill-opacity:1;fill-rule:evenodd;stroke:none;marker:none;visibility:visible;display:inline;overflow:visible;enable-background:accumulate" />
    <rect
       width="22.310905"
       height="22.310905"
       ry="2.8482008"
       x="-36.26725"
       y="0.63448858"
       transform="matrix(0.9309648,0.365109,-0.365109,0.9309648,0,0)"
       id="rect2838"
       style="fill:none;fill-opacity:1;fill-rule:evenodd;stroke:#b16537;stroke-width:0.47470012;marker:none;stroke-opacity:1;visibility:visible;display:inline;overflow:visible;enable-background:accumulate" />
    <path
       d="M -28.194882,-2.0442585 L -31.977408,-4.4591321 C -31.101754,-5.6205073 -30.040229,-6.3495726 -28.792831,-6.6463303 C -27.538378,-6.9401462 -26.027136,-6.7227951 -24.259099,-5.9942758 C -22.229422,-5.1579081 -20.917869,-4.1748699 -20.324435,-3.0451574 C -19.731036,-1.9154254 -19.670372,-0.77772414 -20.142443,0.36794819 C -20.419303,1.0398042 -20.853792,1.5722361 -21.445913,1.9652482 C -22.038067,2.3582694 -22.789929,2.6068768 -23.701504,2.7110699 C -23.161587,3.1072896 -22.773297,3.4699734 -22.536633,3.7991256 C -22.151521,4.3301041 -21.925339,4.9155414 -21.858085,5.5554402 C -21.780877,6.1911838 -21.890885,6.8697314 -22.18811,7.5910857 C -22.561134,8.4963132 -23.156487,9.268557 -23.97417,9.9078201 C -24.788967,10.540005 -25.735153,10.898817 -26.81273,10.984255 C -27.887415,11.062612 -29.149641,10.803095 -30.599413,10.205702 C -32.013839,9.6228727 -33.062748,8.996247 -33.746142,8.3258209 C -34.422473,7.6583064 -34.894704,6.8970257 -35.162837,6.0419774 C -35.420988,5.1827723 -35.491887,4.2104482 -35.375533,3.1250019 L -30.821971,4.3312394 C -31.010686,5.2710478 -30.998176,5.9835352 -30.784442,6.4687017 C -30.560737,6.9497104 -30.173069,7.3038665 -29.621437,7.5311687 C -29.041534,7.7701269 -28.473208,7.7561246 -27.916457,7.4891627 C -27.352655,7.225113 -26.925041,6.7394843 -26.633617,6.0322745 C -26.336388,5.3109221 -26.293582,4.6750022 -26.505201,4.1245132 C -26.70977,3.5769443 -27.130292,3.1720228 -27.766771,2.9097468 C -28.106241,2.7698731 -28.607969,2.662405 -29.271956,2.5873442 L -27.777166,-0.40783238 C -27.551296,-0.27338379 -27.37117,-0.17847936 -27.23679,-0.12311763 C -26.671033,0.11001917 -26.126429,0.12347081 -25.602975,-0.082764711 C -25.072474,-0.28607169 -24.705223,-0.6352516 -24.50122,-1.1303059 C -24.305987,-1.6041284 -24.291523,-2.0407673 -24.457828,-2.4402263 C -24.62416,-2.8396649 -24.954843,-3.1413845 -25.449877,-3.3453836 C -25.95908,-3.5551908 -26.436908,-3.5700813 -26.883363,-3.3900549 C -27.326926,-3.2170806 -27.764098,-2.7684825 -28.194882,-2.0442585"
       id="text2852"
       style="font-size:23.4976387px;font-style:normal;font-variant:normal;font-weight:normal;font-stretch:normal;text-align:start;line-height:80.00000119%;writing-mode:lr-tb;text-anchor:start;fill:#b16537;fill-opacity:1;stroke:none;stroke-width:1px;stroke-linecap:butt;stroke-linejoin:miter;stroke-opacity:1;font-family:Arial Black;-inkscape-font-specification:Arial Black" />
  </g>
</svg>
