<?xml version="1.0" encoding="UTF-8" standalone="no"?>
<!-- Created with Inkscape (http://www.inkscape.org/) -->
<svg
   xmlns:svg="http://www.w3.org/2000/svg"
   xmlns="http://www.w3.org/2000/svg"
   xmlns:xlink="http://www.w3.org/1999/xlink"
   version="1.0"
   width="100%"
   height="100%"
   viewBox="0 0 48 48"
   id="ontology">
  <defs
     id="defs2385">
    <linearGradient
       id="linearGradient3471">
      <stop
         id="stop3473"
         style="stop-color:#4c98c5;stop-opacity:1"
         offset="0" />
      <stop
         id="stop3475"
         style="stop-color:#deecf4;stop-opacity:1"
         offset="1" />
    </linearGradient>
    <linearGradient
       id="linearGradient3220">
      <stop
         id="stop3222"
         style="stop-color:#b9d1f9;stop-opacity:1"
         offset="0" />
      <stop
         id="stop3224"
         style="stop-color:#0e1f77;stop-opacity:1"
         offset="1" />
    </linearGradient>
    <linearGradient
       id="linearGradient3210">
      <stop
         id="stop3212"
         style="stop-color:#1e327e;stop-opacity:1"
         offset="0" />
      <stop
         id="stop3214"
         style="stop-color:#82c2fa;stop-opacity:1"
         offset="1" />
    </linearGradient>
    <linearGradient
       x1="24"
       y1="48"
       x2="24"
       y2="0"
       id="linearGradient3496"
       xlink:href="#linearGradient3210"
       gradientUnits="userSpaceOnUse" />
    <radialGradient
       cx="24"
       cy="43.228447"
       r="23.5"
       fx="24"
       fy="43.228447"
       id="radialGradient3597"
       xlink:href="#linearGradient3220"
       gradientUnits="userSpaceOnUse"
       gradientTransform="matrix(2.351355,0,0,1.8182318,-32.43252,-35.370889)" />
    <linearGradient
       x1="17.293322"
       y1="2.1559632"
       x2="39.387768"
       y2="45.309048"
       id="linearGradient3477"
       xlink:href="#linearGradient3471"
       gradientUnits="userSpaceOnUse"
       gradientTransform="translate(-0.2060086,0.4120172)" />
    <linearGradient
       x1="17.293322"
       y1="2.1559632"
       x2="39.387768"
       y2="45.309048"
       id="linearGradient2425"
       xlink:href="#linearGradient3471"
       gradientUnits="userSpaceOnUse"
       gradientTransform="matrix(1.5616364,0,0,0.6056596,-0.3217105,2.5540765)" />
  </defs>
  <path
     d="M 9.625,0.5 C 4.5670164,0.5 0.5,4.5670164 0.5,9.625 L 0.5,38.375 C 0.5,43.432984 4.5670164,47.5 9.625,47.5 L 38.375,47.5 C 43.432984,47.5 47.5,43.432986 47.5,38.375 L 47.5,9.625 C 47.5,4.5670164 43.432986,0.5 38.375,0.5 L 9.625,0.5 z"
     id="rect3218"
     style="fill:url(#radialGradient3597);fill-opacity:1;fill-rule:nonzero;stroke:none;stroke-width:1;stroke-linecap:butt;stroke-linejoin:round;marker:none;stroke-miterlimit:4;stroke-dasharray:none;stroke-dashoffset:0;stroke-opacity:1;visibility:visible;display:inline;overflow:visible;enable-background:accumulate" />
  <path
     d="M 4.5625,4.78125 L 4.5625,9.4375 L 27.9375,12.90625 L 4.5625,16.40625 L 4.5625,21.0625 L 43,14.84375 L 43,10.96875 L 4.5625,4.78125 z M 42.96875,26.25 L 4.53125,32.4375 L 4.53125,36.34375 L 42.96875,42.53125 L 42.96875,37.90625 L 19.625,34.40625 L 42.96875,30.90625 L 42.96875,26.25 z"
     id="text2418"
     style="font-size:44.34500504px;font-style:normal;font-variant:normal;font-weight:normal;font-stretch:normal;text-align:start;line-height:80.00000119%;writing-mode:lr-tb;text-anchor:start;opacity:1;fill:url(#linearGradient2425);fill-opacity:1;fill-rule:nonzero;stroke:none;stroke-width:1;stroke-linecap:butt;stroke-linejoin:miter;marker:none;marker-start:none;marker-mid:none;marker-end:none;stroke-miterlimit:4;stroke-dasharray:none;stroke-dashoffset:0;stroke-opacity:1;visibility:visible;display:inline;overflow:visible;enable-background:accumulate;font-family:Arial Black;-inkscape-font-specification:Arial Black" />
  <path
     d="M 9.625,0.5 C 4.5670164,0.5 0.5,4.5670164 0.5,9.625 L 0.5,18.78125 C 6.9980288,21.8908 15.151882,23.75 24,23.75 C 32.848118,23.75 41.001971,21.8908 47.5,18.78125 L 47.5,9.625 C 47.5,4.5670164 43.432986,0.5 38.375,0.5 L 9.625,0.5 z"
     id="path3228"
     style="fill:#caeef2;fill-opacity:0.34090911;fill-rule:evenodd;stroke:none;stroke-width:1;stroke-linecap:round;stroke-linejoin:round;marker:none;marker-start:none;marker-mid:none;marker-end:none;stroke-miterlimit:4;stroke-dasharray:none;stroke-dashoffset:0;stroke-opacity:1;visibility:visible;display:inline;overflow:visible;enable-background:accumulate" />
  <path
     d="M 43.78,8.1652067 C 43.57,8.1552067 43.35,8.1952067 43.21,8.3252067 C 42.92,8.5852067 41.74,9.6252067 41.74,9.6252067 C 41.74,9.6252067 41.07,9.6352067 39.43,10.205207 C 37.78,10.785207 34.6,13.545207 32.9,15.285207 C 31.2,17.025207 28.84,19.665207 29.21,19.955207 C 29.57,20.245207 30.7,19.555207 30.7,19.555207 C 30.7,19.555207 21.67,27.535207 18.94,29.955207 C 16.21,32.365207 7.86,40.455207 6.85,41.545207 C 5.83,42.635207 6.1,43.325207 6.1,43.325207 C 6.1,43.325207 4.93,44.045207 5.34,44.515207 C 5.73,44.965207 6.67,43.915207 6.67,43.915207 C 6.67,43.915207 7.52,44.215207 8.42,43.345207 C 9.32,42.495207 20.12,33.845207 21.37,32.685207 C 22.63,31.545207 44.7,11.775207 45.03,11.445207 C 45.35,11.125207 45.72,10.825207 45.77,10.425207 C 45.83,10.015207 45.47,9.6252067 45.47,9.6252067 C 45.47,9.6252067 45.79,9.4452067 45.74,9.1952067 C 45.68,8.9552067 45.1,8.3252067 44.97,8.3252067 C 44.83,8.3152067 44.63,8.6152067 44.63,8.6152067 C 44.63,8.6152067 44.44,8.3952067 44.28,8.2852067 C 44.19,8.2252067 43.99,8.1852067 43.78,8.1652067 z"
     id="path3481"
     style="fill:none;fill-opacity:1;fill-rule:evenodd;stroke:#b6e0e5;stroke-width:2.5;stroke-linecap:butt;stroke-linejoin:round;stroke-miterlimit:4;stroke-dasharray:none;stroke-opacity:0.56363639" />
  <rect
     width="47"
     height="47"
     ry="9.1299343"
     x="0.5"
     y="0.5"
     id="r2393"
     style="fill:none;fill-opacity:1;fill-rule:nonzero;stroke:url(#linearGradient3496);stroke-width:1;stroke-linecap:butt;stroke-linejoin:round;marker:none;stroke-miterlimit:4;stroke-dasharray:none;stroke-dashoffset:0;stroke-opacity:1;visibility:visible;display:inline;overflow:visible;enable-background:accumulate" />
  <path
     d="M 43.78,8.1652067 C 43.57,8.1552067 43.35,8.1952067 43.21,8.3252067 C 42.92,8.5852067 41.74,9.6252067 41.74,9.6252067 C 41.74,9.6252067 41.07,9.6352067 39.43,10.205207 C 37.78,10.785207 34.6,13.545207 32.9,15.285207 C 31.2,17.025207 28.84,19.665207 29.21,19.955207 C 29.57,20.245207 30.7,19.555207 30.7,19.555207 C 30.7,19.555207 21.67,27.535207 18.94,29.955207 C 16.21,32.365207 7.86,40.455207 6.85,41.545207 C 5.83,42.635207 6.1,43.325207 6.1,43.325207 C 6.1,43.325207 4.93,44.045207 5.34,44.515207 C 5.73,44.965207 6.67,43.915207 6.67,43.915207 C 6.67,43.915207 7.52,44.215207 8.42,43.345207 C 9.32,42.495207 20.12,33.845207 21.37,32.685207 C 22.63,31.545207 44.7,11.775207 45.03,11.445207 C 45.35,11.125207 45.72,10.825207 45.77,10.425207 C 45.83,10.015207 45.47,9.6252067 45.47,9.6252067 C 45.47,9.6252067 45.79,9.4452067 45.74,9.1952067 C 45.68,8.9552067 45.1,8.3252067 44.97,8.3252067 C 44.83,8.3152067 44.63,8.6152067 44.63,8.6152067 C 44.63,8.6152067 44.44,8.3952067 44.28,8.2852067 C 44.19,8.2252067 43.99,8.1852067 43.78,8.1652067 z M 36.92,13.625207 C 37.08,13.655207 37.13,13.795207 37.13,13.795207 L 31.06,19.175207 C 30.96,19.055207 31.02,18.875207 31.27,18.645207 C 31.52,18.415207 36.45,13.775207 36.74,13.645207 C 36.8,13.615207 36.87,13.625207 36.92,13.625207 z"
     id="p2516"
     style="fill:#1a1a1a;fill-opacity:1;fill-rule:evenodd;stroke:none" />
  <path
     d="M 44.49,8.5452067 L 19.21,30.835207 L 20.31,32.405207 L 45.52,9.9052067 L 44.49,8.5452067 z"
     id="p3477"
     style="fill:#000000;fill-opacity:0.41000001;fill-rule:evenodd;stroke:none;display:inline" />
  <path
     d="M 19.07,29.825207 C 19.04,29.855207 18.97,29.925207 18.94,29.955207 C 16.21,32.365207 7.86,40.455207 6.85,41.545207 C 5.83,42.635207 6.1,43.325207 6.1,43.325207 C 6.1,43.325207 4.92,44.045207 5.33,44.515207 C 5.72,44.955207 6.67,43.915207 6.67,43.915207 C 6.67,43.915207 7.51,44.205207 8.42,43.335207 C 9.31,42.485207 20.12,33.845207 21.37,32.685207 C 21.37,32.685207 21.41,32.665207 21.41,32.665207 C 20.71,31.785207 19.91,30.815207 19.07,29.825207 z"
     id="p3474"
     style="fill:#f8f5ee;fill-opacity:1;fill-rule:evenodd;stroke:none" />
  <path
     d="M 44.62,9.3752067 L 44.96,9.7752067"
     id="p3485"
     style="fill:none;fill-rule:evenodd;stroke:#cee5f7;stroke-width:0.38999999;stroke-linecap:round;stroke-linejoin:miter;stroke-miterlimit:4;stroke-dasharray:none;stroke-opacity:0.62000002;display:inline" />
  <path
     d="M 45.57,9.5052067 L 44.72,8.4752067"
     id="p3483"
     style="fill:none;fill-opacity:0.56000001;fill-rule:evenodd;stroke:#f1f8ff;stroke-width:0.60000002;stroke-linecap:butt;stroke-linejoin:miter;stroke-miterlimit:4;stroke-dasharray:none;stroke-opacity:0.62000002;display:inline" />
  <path
     d="M 19.88,30.745207 L 9.98,39.505207 L 10.83,40.485207 L 20.73,31.815207 C 20.52,31.555207 20.09,31.005207 19.88,30.745207 z"
     id="p3498"
     style="fill:#2c2c2c;fill-opacity:1;fill-rule:evenodd;stroke:none;display:inline" />
  <path
     d="M 10.01,39.475207 L 7.82,41.405207 L 7.9,41.655207 L 5.19,44.065207 L 5.82,44.685207 L 8.44,42.275207 L 8.74,42.325207 L 10.86,40.445207 L 10.01,39.475207 z"
     id="p3508"
     style="fill:#d8c277;fill-opacity:1;fill-rule:evenodd;stroke:none;display:inline" />
  <path
     d="M 8.05,41.675207 L 17.76,33.135207"
     id="p3511"
     style="fill:none;fill-rule:evenodd;stroke:#f2f2ee;stroke-width:0.30000001;stroke-linecap:round;stroke-linejoin:miter;stroke-miterlimit:4;stroke-dasharray:none;stroke-opacity:0.62000002;display:inline" />
  <path
     d="M 18.7,32.415207 L 19.82,31.395207"
     id="p3513"
     style="fill:none;fill-rule:evenodd;stroke:#e1e1e1;stroke-width:0.30000001;stroke-linecap:round;stroke-linejoin:miter;stroke-miterlimit:4;stroke-dasharray:none;stroke-opacity:0.6;display:inline" />
  <path
     d="M 8.44,40.875207 L 8.21,41.045207 L 9.08,42.025207 L 9.3,41.815207 L 8.44,40.875207 z"
     id="p3529"
     style="fill:#514632;fill-opacity:0.65;fill-rule:evenodd;stroke:none;display:inline" />
  <path
     d="M 6.26,43.535207 L 8.06,41.935207"
     id="p3539"
     style="fill:none;fill-rule:evenodd;stroke:#84642b;stroke-width:0.30000001;stroke-linecap:butt;stroke-linejoin:miter;stroke-miterlimit:4;stroke-dasharray:none;stroke-opacity:0.33000004;display:inline" />
  <path
     d="M 7.65,42.705207 L 8.08,42.305207"
     id="p3542"
     style="fill:none;fill-rule:evenodd;stroke:#f3f3f3;stroke-width:0.30000001;stroke-linecap:round;stroke-linejoin:miter;stroke-miterlimit:4;stroke-dasharray:none;stroke-opacity:0.7" />
  <path
     d="M 41.96,11.275207 L 44.05,9.3352067"
     id="p3546"
     style="fill:none;fill-rule:evenodd;stroke:#f5f5f5;stroke-width:0.30000001;stroke-linecap:round;stroke-linejoin:miter;stroke-miterlimit:4;stroke-dasharray:none;stroke-opacity:0.27000002;display:inline" />
  <path
     d="M 20.12,30.895207 L 39.99,13.065207"
     id="p3544"
     style="fill:none;fill-rule:evenodd;stroke:#f5f5f5;stroke-width:0.30000001;stroke-linecap:round;stroke-linejoin:miter;stroke-miterlimit:4;stroke-dasharray:none;stroke-opacity:0.37000002;display:inline" />
  <path
     d="M 39.94,12.195207 C 39.84,12.495207 40.43,13.035207 40.61,13.035207 C 40.79,13.045207 41.88,12.055207 41.88,11.895207 C 41.89,11.745207 41.45,11.315207 41.27,11.305207 C 41.09,11.295207 40.45,11.575207 39.94,12.195207 z"
     id="p3550"
     style="fill:#b8b4ab;fill-opacity:0.86000001;fill-rule:evenodd;stroke:none;display:inline" />
  <path
     d="M 37.24,12.955207 C 37.1,12.945207 36.93,12.955207 36.77,12.995207 C 36.12,13.165207 30.64,18.575207 30.6,18.805207 C 30.57,19.025207 30.8,18.975207 30.83,19.375207 L 31.06,19.135207 C 30.98,19.025207 31.03,18.865207 31.27,18.645207 C 31.52,18.415207 36.45,13.775207 36.74,13.645207 C 36.8,13.615207 36.87,13.625207 36.92,13.625207 C 37.08,13.655207 37.13,13.795207 37.13,13.795207 L 37.91,13.185207 C 37.91,13.185207 37.65,12.995207 37.24,12.955207 z"
     id="p3553"
     style="fill:#0d0b0b;fill-opacity:0.31000001;fill-rule:evenodd;stroke:none;display:inline" />
  <path
     d="M 40.15,10.935207 C 40.01,10.925207 39.78,10.975207 39.45,11.185207 C 38.79,11.585207 38.63,12.125207 38.11,12.305207 L 36.9,12.625207 C 36.77,12.645207 36.64,12.735207 36.53,12.765207 C 36.4,12.795207 36.28,12.925207 36.1,13.055207 C 35.93,13.195207 35.71,13.365207 35.46,13.585207 C 34.95,14.035207 34.3,14.635207 33.62,15.295207 C 32.35,16.515207 30.99,17.905207 30.07,18.935207 C 29.92,18.935207 29.84,18.945207 29.7,18.945207 C 29.33,19.445207 29.08,19.855207 29.21,19.955207 C 29.57,20.245207 30.7,19.555207 30.7,19.555207 L 31.38,18.965207 C 31.38,18.965207 31.3,18.965207 31.29,18.965207 L 31.06,19.175207 C 31.01,19.115207 31,19.045207 31.04,18.955207 C 31,18.945207 31.03,18.945207 30.98,18.945207 C 30.89,18.945207 30.64,18.955207 30.48,18.955207 C 31.38,17.955207 32.64,16.675207 33.82,15.505207 C 34.5,14.865207 35.12,14.265207 35.63,13.815207 C 35.88,13.595207 36.11,13.415207 36.28,13.285207 C 36.45,13.155207 36.58,13.085207 36.6,13.075207 C 37.06,12.845207 37.54,12.955207 37.88,13.125207 L 40.33,11.005207 C 40.33,11.005207 40.28,10.945207 40.15,10.935207 z M 30.7,19.555207 C 30.7,19.555207 30.5,19.695207 30.5,19.705207 L 30.59,19.685207 L 30.7,19.555207 z"
     id="p3556"
     style="fill:#a4a492;fill-opacity:0.37000002;fill-rule:evenodd;stroke:none;display:inline" />
  <path
     d="M 37.89,12.775207 L 39.61,11.325207"
     id="p3579"
     style="fill:none;fill-rule:evenodd;stroke:#e9e9e9;stroke-width:0.38999999;stroke-linecap:round;stroke-linejoin:miter;stroke-miterlimit:4;stroke-dasharray:none;stroke-opacity:0.12000002;display:inline" />
  <path
     d="M 39.97,12.145207 C 39.79,12.585207 40.43,13.035207 40.61,13.035207 C 40.79,13.045207 41.88,12.055207 41.88,11.895207 C 41.89,11.745207 41.45,11.315207 41.27,11.305207 C 41.09,11.295207 40.14,11.725207 39.97,12.145207 z"
     id="p3582"
     style="fill:none;fill-opacity:0.86000001;fill-rule:evenodd;stroke:#000000;stroke-width:0.19;stroke-linecap:butt;stroke-linejoin:miter;stroke-miterlimit:4;stroke-dasharray:none;stroke-opacity:1;display:inline" />
  <path
     d="M 41.86,11.795207 C 40.78,12.245207 40.32,12.745207 40.52,13.015207 C 40.54,13.025207 40.59,13.045207 40.61,13.045207 C 40.79,13.055207 41.88,12.045207 41.88,11.885207 C 41.89,11.865207 41.87,11.825207 41.86,11.795207 z"
     id="p3584"
     style="fill:#0d0d0b;fill-opacity:0.41000001;fill-rule:evenodd;stroke:none" />
  <path
     d="M 43.78,8.1652067 C 43.57,8.1552067 43.35,8.1952067 43.21,8.3252067 C 42.92,8.5852067 41.74,9.6252067 41.74,9.6252067 C 41.74,9.6252067 41.07,9.6352067 39.43,10.205207 C 37.78,10.785207 34.6,13.545207 32.9,15.285207 C 31.2,17.025207 28.84,19.665207 29.21,19.955207 C 29.57,20.245207 30.7,19.555207 30.7,19.555207 C 30.7,19.555207 21.67,27.535207 18.94,29.955207 C 16.21,32.365207 7.86,40.455207 6.85,41.545207 C 5.83,42.635207 6.1,43.325207 6.1,43.325207 C 6.1,43.325207 4.93,44.045207 5.34,44.515207 C 5.73,44.965207 6.67,43.915207 6.67,43.915207 C 6.67,43.915207 7.52,44.215207 8.42,43.345207 C 9.32,42.495207 20.12,33.845207 21.37,32.685207 C 22.63,31.545207 44.7,11.775207 45.03,11.445207 C 45.35,11.125207 45.72,10.825207 45.77,10.425207 C 45.83,10.015207 45.47,9.6252067 45.47,9.6252067 C 45.47,9.6252067 45.79,9.4452067 45.74,9.1952067 C 45.68,8.9552067 45.1,8.3252067 44.97,8.3252067 C 44.83,8.3152067 44.63,8.6152067 44.63,8.6152067 C 44.63,8.6152067 44.44,8.3952067 44.28,8.2852067 C 44.19,8.2252067 43.99,8.1852067 43.78,8.1652067 z"
     id="stroke01"
     style="fill:none;fill-opacity:1;fill-rule:evenodd;stroke:#000000;stroke-width:0.49000001;stroke-linecap:butt;stroke-linejoin:round;stroke-miterlimit:4;stroke-dasharray:none;stroke-opacity:1" />
</svg>
