<?xml version="1.0" encoding="UTF-8" standalone="no"?>
<!-- Created with Inkscape (http://www.inkscape.org/) -->
<svg
   xmlns:svg="http://www.w3.org/2000/svg"
   xmlns="http://www.w3.org/2000/svg"
   xmlns:xlink="http://www.w3.org/1999/xlink"
   version="1.0"
   width="100%"
   height="100%"
   viewBox="0 0 48 48"
   id="ontology">
  <defs
     id="defs2385">
    <linearGradient
       id="linearGradient5044">
      <stop
         id="stop5046"
         style="stop-color:#def049;stop-opacity:1"
         offset="0" />
      <stop
         id="stop5048"
         style="stop-color:#eeee6f;stop-opacity:0"
         offset="1" />
    </linearGradient>
    <linearGradient
       id="linearGradient3220">
      <stop
         id="stop3222"
         style="stop-color:#b9f9b9;stop-opacity:1"
         offset="0" />
      <stop
         id="stop3224"
         style="stop-color:#0e770e;stop-opacity:1"
         offset="1" />
    </linearGradient>
    <linearGradient
       id="linearGradient3210">
      <stop
         id="stop3212"
         style="stop-color:#1e7e32;stop-opacity:1"
         offset="0" />
      <stop
         id="stop3214"
         style="stop-color:#82fa8f;stop-opacity:1"
         offset="1" />
    </linearGradient>
    <linearGradient
       x1="24"
       y1="48"
       x2="24"
       y2="0"
       id="linearGradient3496"
       xlink:href="#linearGradient3210"
       gradientUnits="userSpaceOnUse" />
    <radialGradient
       cx="24"
       cy="43.228447"
       r="23.5"
       fx="24"
       fy="43.228447"
       id="radialGradient3597"
       xlink:href="#linearGradient3220"
       gradientUnits="userSpaceOnUse"
       gradientTransform="matrix(2.351355,0,0,1.8182318,-32.43252,-35.370889)" />
    <radialGradient
       cx="23.999998"
       cy="28.612509"
       r="23.5"
       fx="23.999998"
       fy="28.612509"
       id="radialGradient5040"
       xlink:href="#linearGradient5044"
       gradientUnits="userSpaceOnUse"
       gradientTransform="matrix(1.0027638,2.9565527e-8,-2.9918262e-8,1.0147274,-6.6329222e-2,-12.380614)" />
  </defs>
  <path
     d="M 9.625,0.5 C 4.5670164,0.5 0.5,4.5670164 0.5,9.625 L 0.5,38.375 C 0.5,43.432984 4.5670164,47.5 9.625,47.5 L 38.375,47.5 C 43.432984,47.5 47.5,43.432986 47.5,38.375 L 47.5,9.625 C 47.5,4.5670164 43.432986,0.5 38.375,0.5 L 9.625,0.5 z"
     id="rect3218"
     style="fill:url(#radialGradient3597);fill-opacity:1;fill-rule:nonzero;stroke:none;stroke-width:1;stroke-linecap:butt;stroke-linejoin:round;marker:none;stroke-miterlimit:4;stroke-dasharray:none;stroke-dashoffset:0;stroke-opacity:1;visibility:visible;display:inline;overflow:visible;enable-background:accumulate" />
  <path
     d="M 9.625,0.5 C 4.5670164,0.5 0.5,4.5670164 0.5,9.625 L 0.5,18.78125 C 6.9980288,21.8908 15.151882,23.75 24,23.75 C 32.848118,23.75 41.001971,21.8908 47.5,18.78125 L 47.5,9.625 C 47.5,4.5670164 43.432986,0.5 38.375,0.5 L 9.625,0.5 z"
     id="path3228"
     style="fill:#d5f2ca;fill-opacity:0.22727272;fill-rule:evenodd;stroke:none;stroke-width:1;stroke-linecap:round;stroke-linejoin:round;marker:none;marker-start:none;marker-mid:none;marker-end:none;stroke-miterlimit:4;stroke-dasharray:none;stroke-dashoffset:0;stroke-opacity:1;visibility:visible;display:inline;overflow:visible;enable-background:accumulate" />
  <path
     d="M 9.625,0.5 C 4.5670164,0.5 0.5,4.5670164 0.5,9.625 L 0.5,38.375 C 0.5,43.432984 4.5670164,47.5 9.625,47.5 L 38.375,47.5 C 43.432984,47.5 47.5,43.432986 47.5,38.375 L 47.5,9.625 C 47.5,4.5670164 43.432986,0.5 38.375,0.5 L 9.625,0.5 z"
     id="path5032"
     style="fill:url(#radialGradient5040);fill-opacity:1;fill-rule:nonzero;stroke:none;stroke-width:1;stroke-linecap:butt;stroke-linejoin:round;marker:none;stroke-miterlimit:4;stroke-dasharray:none;stroke-dashoffset:0;stroke-opacity:1;visibility:visible;display:inline;overflow:visible;enable-background:accumulate" />
  <path
     d="M 22.985255,4.8937741 C 22.650221,4.9202241 22.33282,4.9643076 22.103587,5.0260243 C 21.160201,5.2728915 20.622383,8.7202154 20.587117,9.5225337 C 20.560667,10.007451 20.966234,11.18007 21.354168,12.193989 C 21.142568,12.149906 20.948601,12.141089 20.781084,12.141089 C 20.507767,12.141089 20.331433,12.193989 20.252083,12.299789 C 20.014032,12.67009 19.731898,13.066841 19.590831,13.269625 C 19.529115,13.269625 19.352781,13.269625 19.291064,13.269625 C 19.08828,13.260808 18.885497,13.278442 18.682713,13.296075 C 17.659977,13.031574 15.852557,12.652457 15.376456,13.128558 C 14.424254,12.61719 13.701286,12.282156 13.260452,12.361506 C 13.172285,12.370323 13.101751,12.396773 13.040034,12.440856 C 12.511033,12.811157 11.550015,13.128558 10.500829,13.657559 C 9.4604603,14.177743 6.0836699,16.628782 6.5333209,18.418569 C 6.4627874,19.238521 7.1240388,20.137822 7.7147566,20.51694 C 8.3142912,20.887241 9.663244,20.887241 10.033545,20.296523 C 10.350945,19.793972 12.211266,17.501634 13.859986,16.875649 C 13.286902,18.674253 12.581567,22.491877 12.511033,23.355912 C 12.4405,24.325748 12.211266,26.115535 12.511033,29.324808 C 12.581567,30.09186 12.634467,30.982345 12.705,31.908097 C 11.408948,33.239416 10.324495,34.808786 10.201062,35.796255 C 10.059995,36.915974 12.3347,38.635228 13.666019,37.612492 C 14.018686,38.582327 14.512421,39.437546 15.182489,40.063531 C 17.651161,42.382319 19.908232,43.12292 23.117505,43.12292 C 26.317962,43.12292 32.278041,42.294152 34.297062,38.635228 C 34.464579,38.33546 34.588013,37.938709 34.711446,37.533142 C 36.025132,38.705761 38.432087,36.942424 38.29102,35.796255 C 38.15877,34.738253 36.906801,32.983732 35.478498,31.60833 C 35.610748,26.785603 35.064114,21.266358 34.596829,19.547105 C 34.394045,18.78887 34.085461,18.004185 33.715161,17.263583 C 35.143464,18.154068 36.51005,19.864505 36.77455,20.296523 C 37.153668,20.887241 38.493804,20.887241 39.093339,20.51694 C 39.692873,20.137822 40.380575,19.238521 40.301224,18.418569 C 40.750875,16.628782 37.382902,14.177743 36.333716,13.657559 C 35.293347,13.128558 34.323512,12.811157 33.803328,12.440856 C 33.415393,12.167539 32.613075,12.502573 31.484539,13.102108 C 30.981988,12.705357 29.412618,13.013941 28.3987,13.269625 C 28.090116,13.251991 27.710998,13.243175 27.358331,13.243175 C 27.208447,13.031574 26.93513,12.661274 26.697079,12.299789 C 26.591279,12.149906 26.273879,12.114639 25.841861,12.167539 C 26.247429,11.135987 26.617729,10.086802 26.529562,9.822301 C 26.335595,9.2580331 26.168078,5.8459761 25.594994,5.3346083 C 25.304043,5.0789245 24.678059,4.9290408 23.990357,4.8937741 C 23.655323,4.8761407 23.311472,4.867324 22.985255,4.8937741 z"
     id="path2830"
     style="opacity:1;fill:none;fill-opacity:1;fill-rule:nonzero;stroke:#e5e5e5;stroke-width:3.5;stroke-linecap:butt;stroke-linejoin:round;marker:none;marker-start:none;marker-mid:none;marker-end:none;stroke-miterlimit:4;stroke-dasharray:none;stroke-dashoffset:0;stroke-opacity:0.45;visibility:visible;display:inline;overflow:visible;enable-background:accumulate" />
  <rect
     width="47"
     height="47"
     ry="9.1299343"
     x="0.5"
     y="0.5"
     id="r2393"
     style="fill:none;fill-opacity:1;fill-rule:nonzero;stroke:url(#linearGradient3496);stroke-width:1;stroke-linecap:butt;stroke-linejoin:round;marker:none;stroke-miterlimit:4;stroke-dasharray:none;stroke-dashoffset:0;stroke-opacity:1;visibility:visible;display:inline;overflow:visible;enable-background:accumulate" />
  <path
     d="M 20.781084,12.141089 C 20.507767,12.141089 20.331433,12.193989 20.252083,12.299789 C 20.014032,12.67009 19.731898,13.066841 19.590831,13.269625 C 19.529115,13.269625 19.352781,13.269625 19.291064,13.269625 C 19.08828,13.260808 18.885497,13.278442 18.682713,13.296075 C 17.659977,13.031574 15.852557,12.652457 15.376456,13.128558 C 15.147222,13.357792 15.279472,13.930876 15.543973,14.565678 C 14.847455,15.085862 14.32727,15.720663 14.080403,16.267298 C 13.489685,17.616251 12.590383,22.37726 12.511033,23.355912 C 12.4405,24.325748 12.211266,26.115535 12.511033,29.324808 C 12.810801,32.534082 12.722634,37.753559 15.182489,40.063531 C 17.651161,42.382319 19.908232,43.12292 23.117505,43.12292 C 26.317962,43.12292 32.278041,42.294152 34.297062,38.635228 C 36.316083,34.976303 35.346247,22.315544 34.596829,19.547105 C 34.041378,17.492817 32.771775,15.315096 31.484539,14.177743 C 31.64324,13.701642 31.72259,13.313708 31.546256,13.128558 C 31.087789,12.678907 29.447885,13.005124 28.3987,13.269625 C 28.090116,13.251991 27.710998,13.243175 27.358331,13.243175 C 27.208447,13.031574 26.93513,12.661274 26.697079,12.299789 C 26.441396,11.920672 24.792675,12.185173 23.443723,13.075658 C 22.500337,12.45849 21.424702,12.132272 20.781084,12.141089 z"
     id="p3582"
     style="fill:#2f2fc2;fill-opacity:1;fill-rule:evenodd;stroke:none;display:inline" />
  <path
     d="M 22.897088,13.437142 C 22.456254,13.437142 19.467398,14.274727 19.370414,14.618578 C 19.326331,15.156395 19.617281,16.575882 20.058116,16.822749 C 20.507767,17.069616 21.574585,16.417181 22.456254,16.522982 C 23.337922,16.619965 24.519358,17.096066 25.013093,16.849199 C 25.506827,16.602332 26.326779,15.297462 26.282695,14.759645 C 26.229795,14.21301 23.337922,13.437142 22.897088,13.437142 z M 28.927701,15.747113 C 28.575033,16.161497 27.464131,17.836668 27.464131,18.251052 C 27.464131,18.674253 28.698467,19.02692 29.253918,19.441304 C 29.809369,19.855689 30.505887,20.613923 30.990805,20.67564 C 31.475723,20.746174 32.868759,20.957774 32.868759,20.957774 C 32.868759,20.957774 32.507275,18.806503 32.092891,18.118802 C 31.678506,17.422283 29.827003,15.67658 28.927701,15.747113 z M 16.284574,16.769849 C 15.89664,16.840382 15.411723,17.078433 15.270656,17.148966 C 15.076689,17.254766 14.124487,18.286319 13.974603,18.727153 C 13.727736,19.264971 13.736553,20.35824 13.833536,20.402323 C 13.93052,20.455223 16.249308,20.278889 16.593158,20.181906 C 16.937009,20.084922 17.421927,18.97402 17.474827,18.533186 C 17.51891,18.092352 16.989909,16.866832 16.646059,16.769849 C 16.557892,16.743399 16.416825,16.743399 16.284574,16.769849 z M 22.764838,18.97402 C 21.812636,18.982837 20.781084,19.123904 20.172733,19.467754 C 19.634915,20.155456 18.991297,21.169375 19.044197,21.557309 C 19.08828,21.95406 19.229347,23.638046 19.617281,23.928997 C 20.014032,24.228764 25.048359,24.017164 25.33931,23.57633 C 25.639077,23.135495 25.31286,19.511838 24.819126,19.220887 C 24.572258,19.071004 23.699407,18.956387 22.764838,18.97402 z M 27.605198,19.494204 C 27.190814,20.322973 27.534665,21.239908 27.464131,21.998143 C 27.393598,22.765195 27.807982,23.091412 28.42515,23.161945 C 29.051134,23.232479 30.303104,21.372158 30.303104,21.372158 C 30.303104,21.372158 27.737448,19.282604 27.605198,19.494204 z M 16.152324,22.774011 C 15.473439,22.826911 13.427969,23.452896 13.260452,23.62923 C 12.960684,24.167047 13.092934,25.128066 13.092934,25.471917 C 13.092934,25.815768 12.916601,27.13827 13.260452,27.341054 C 13.604302,27.535021 15.993624,27.429221 16.284574,27.279337 C 16.584342,27.13827 16.981093,25.33085 17.033993,25.031083 C 17.078076,24.740132 16.584342,22.950345 16.346291,22.800461 C 16.311025,22.782828 16.249308,22.765195 16.152324,22.774011 z M 31.070155,23.188395 C 30.876188,23.197212 30.717488,23.241296 30.576421,23.320646 C 30.038603,23.646863 28.319349,24.784215 28.37225,24.951732 C 28.213549,25.43665 28.901251,26.76797 29.227468,27.199987 C 29.553685,27.632005 32.568992,27.420404 33.001009,27.420404 C 33.433027,27.420404 33.274326,25.798134 33.274326,25.366117 C 33.274326,24.934099 33.26551,23.76148 32.780592,23.541063 C 32.419108,23.382363 31.660873,23.153129 31.070155,23.188395 z M 22.703121,26.371219 C 21.424702,26.397669 20.075749,26.459386 19.758348,26.512286 C 19.414498,26.856136 18.90313,28.072839 18.85023,28.663557 C 18.79733,29.245458 19.767165,30.814828 20.058116,31.061695 C 20.357883,31.299746 24.748592,31.158679 25.092443,31.114595 C 25.436293,31.061695 26.282695,29.139658 26.335595,28.795807 C 26.388495,28.451956 25.480377,26.503469 25.28641,26.397669 C 25.189426,26.353585 23.98154,26.353585 22.703121,26.371219 z M 29.782919,30.09186 C 29.412618,30.083043 29.112851,30.109493 29.007051,30.11831 C 28.680834,30.550327 27.658098,31.89928 27.710998,32.384198 C 27.763898,32.869116 28.160649,34.367952 28.486867,34.473752 C 28.804267,34.579552 31.995907,34.967487 32.366208,34.747069 C 32.745325,34.535469 33.380127,30.691394 33.001009,30.426894 C 32.718875,30.22411 30.876188,30.109493 29.782919,30.09186 z M 15.73794,30.400444 C 14.988522,30.391627 13.683652,30.488611 13.507319,30.647311 C 13.295718,31.167495 13.392702,32.657515 13.533769,33.045449 C 13.674836,33.424567 13.965786,34.694169 14.415437,34.694169 C 14.865088,34.694169 16.972276,34.711803 17.25441,34.500202 C 17.527727,34.297419 17.633527,32.683965 17.633527,32.410648 C 17.633527,32.128514 16.478542,30.559144 16.231674,30.453344 C 16.169958,30.426894 15.984807,30.400444 15.73794,30.400444 z M 20.278533,33.706701 C 19.934682,33.980018 19.811248,35.470038 19.811248,35.716905 C 19.811248,35.954955 21.204285,37.374442 21.548135,37.480242 C 21.900803,37.577225 24.104974,37.550775 24.378291,37.480242 C 24.660425,37.409708 25.727244,36.122472 25.868311,35.743355 C 26.009378,35.364237 25.409843,33.768417 25.092443,33.733151 C 24.783859,33.697884 21.944886,33.874218 20.278533,33.706701 z M 28.680834,36.572123 C 28.301716,36.563307 27.984315,36.58094 27.825615,36.625023 C 27.446498,36.889524 26.529562,38.035693 26.476662,38.41481 C 26.423762,38.793928 27.940232,39.657963 28.37225,39.710863 C 28.804267,39.763763 29.923986,39.287662 30.408904,38.802745 C 30.902638,38.317827 31.599156,37.330358 31.546256,37.012958 C 31.502173,36.76609 29.800553,36.572123 28.680834,36.572123 z M 17.30731,36.871891 C 16.460908,36.863074 14.953255,36.915974 14.988522,37.118758 C 14.882722,37.444975 17.695244,40.03708 17.968561,39.98418 C 18.241879,39.93128 20.031666,38.793928 19.925865,38.582327 C 19.820065,38.36191 18.074362,36.951241 17.853944,36.898341 C 17.801044,36.889524 17.589444,36.871891 17.30731,36.871891 z M 22.01542,39.657963 C 21.980153,39.66678 21.93607,39.684413 21.909619,39.710863 C 21.689202,39.922464 21.795003,40.186964 21.521685,40.504365 C 21.257185,40.830582 20.49895,41.059816 20.49895,41.280233 C 20.613567,41.659351 22.835371,42.020835 23.575973,42.020835 C 24.334208,42.020835 25.788961,42.020835 26.168078,41.800417 C 26.547196,41.588817 27.076197,41.333133 26.917497,41.112716 C 26.74998,40.901116 24.819126,39.657963 24.598708,39.657963 C 24.387108,39.657963 23.734673,39.87838 23.311472,39.87838 C 22.932355,39.87838 22.315187,39.578613 22.01542,39.657963 z"
     id="p3553"
     style="fill:#3e32fa;fill-opacity:1;fill-rule:evenodd;stroke:none;display:inline" />
  <path
     d="M 20.781084,12.141089 C 20.507767,12.141089 20.331433,12.193989 20.252083,12.299789 C 20.031666,12.634823 19.793615,12.969858 19.652548,13.181458 C 19.943499,13.304892 20.296166,13.296075 20.754634,13.128558 C 21.054401,13.022758 21.345352,12.678907 21.636302,12.273339 C 21.310085,12.193989 21.010318,12.141089 20.781084,12.141089 z M 25.921211,12.141089 C 25.621444,12.167539 25.23351,12.255706 24.845576,12.387956 C 25.436293,12.934591 26.018195,13.357792 26.282695,13.401875 C 26.423762,13.437142 26.846963,13.287258 27.270164,13.128558 C 27.12028,12.916957 26.899863,12.61719 26.697079,12.299789 C 26.600096,12.158723 26.317962,12.097006 25.921211,12.141089 z M 15.958357,12.908141 C 15.702673,12.934591 15.49989,13.013941 15.376456,13.128558 C 15.147222,13.357792 15.279472,13.930876 15.543973,14.565678 C 15.455806,14.627394 15.376456,14.689111 15.297106,14.759645 C 15.52634,14.935978 15.68504,15.015328 15.79084,15.032962 C 15.958357,15.059412 16.989909,13.939693 17.633527,13.075658 C 17.042809,12.961041 16.416825,12.855241 15.958357,12.908141 z M 30.629321,12.908141 C 30.36482,12.916957 30.056236,12.943407 29.747652,12.996308 C 29.835819,13.419508 29.932803,13.913243 30.082686,14.098393 C 30.23257,14.283544 30.946722,14.309994 31.625606,14.31881 C 31.581523,14.274727 31.53744,14.221827 31.484539,14.177743 C 31.64324,13.701642 31.72259,13.313708 31.546256,13.128558 C 31.369923,12.961041 31.043705,12.908141 30.629321,12.908141 z M 22.764838,14.204193 C 22.17412,14.204193 21.124935,14.459877 20.833984,14.759645 C 20.613567,14.971245 20.648834,15.879364 20.939784,16.020431 C 21.239551,16.170314 22.262287,15.403263 22.650221,15.500246 C 23.046972,15.59723 23.681773,16.082147 24.016807,16.082147 C 24.360658,16.082147 24.819126,15.191662 24.819126,14.944795 C 24.819126,14.706744 23.346739,14.204193 22.764838,14.204193 z M 29.809369,17.148966 C 29.324452,17.360567 29.059951,18.101168 29.059951,18.445019 C 29.059951,18.797686 30.576421,19.494204 30.849738,19.767522 C 31.131872,20.049656 31.951824,19.908589 31.951824,19.908589 C 31.951824,19.908589 31.61679,18.586086 31.405189,18.312769 C 31.193589,18.030635 29.94162,17.290033 29.809369,17.148966 z M 15.87019,17.4311 C 15.755573,17.439917 15.649773,17.484 15.649773,17.51045 C 15.358823,17.757317 14.829821,18.242235 14.635854,18.586086 C 14.441887,18.929937 13.974603,19.855689 14.22147,19.908589 C 14.468337,19.952672 15.84374,19.714622 15.84374,19.714622 C 15.84374,19.714622 16.593158,18.965203 16.593158,18.727153 C 16.593158,18.480286 16.425641,17.660334 16.231674,17.51045 C 16.134691,17.439917 15.993624,17.413467 15.87019,17.4311 z M 22.209387,19.987939 C 21.821453,19.987939 21.274818,20.578657 20.833984,20.428773 C 20.44605,20.825524 20.005216,21.213458 20.005216,21.504409 C 20.005216,21.804176 20.3667,23.091412 20.613567,23.188395 C 20.860434,23.285379 24.228408,23.135495 24.378291,22.941528 C 24.528175,22.738745 24.034441,21.945243 23.937457,21.504409 C 23.840474,21.063574 24.175508,20.446406 23.884557,20.349423 C 23.593606,20.252439 22.606138,19.987939 22.209387,19.987939 z M 28.566217,20.296523 C 28.143016,20.287706 27.931415,20.684457 27.931415,21.231091 C 27.931415,21.857076 28.010766,22.412527 28.707284,22.280277 C 29.394985,22.13921 29.888719,21.865893 29.888719,21.865893 L 30.223753,21.451508 L 28.786634,20.322973 C 28.7161,20.305339 28.627933,20.296523 28.566217,20.296523 z M 15.103139,23.876097 C 14.609404,23.928997 13.807086,24.114147 13.701286,24.264031 C 13.498502,24.704865 13.392702,26.309502 13.586669,26.459386 C 13.780636,26.600453 15.217756,26.600453 15.464623,26.397669 C 15.702673,26.203702 15.905457,25.38375 15.958357,25.083983 C 16.002441,24.793032 15.702673,23.92018 15.464623,23.876097 C 15.402906,23.86728 15.270656,23.858464 15.103139,23.876097 z M 31.378739,23.928997 C 31.255306,23.94663 31.158322,23.955447 31.070155,24.017164 C 30.752755,24.228764 29.606586,25.057533 29.394985,25.057533 C 29.394985,25.709967 29.923986,26.318319 30.082686,26.485836 C 30.241387,26.644536 32.154607,26.803236 32.427925,26.485836 C 32.692425,26.159618 32.313308,24.449181 32.260408,24.175864 C 32.216324,23.97308 31.740223,23.884914 31.378739,23.928997 z M 23.76994,27.367504 C 22.791288,27.385138 20.975051,27.490938 20.640017,27.535021 C 20.199183,27.825972 20.005216,28.52249 20.005216,28.769357 C 20.005216,29.016224 20.701734,30.074226 21.001501,30.11831 C 21.292452,30.17121 23.98154,30.215293 24.325391,30.11831 C 24.669242,30.021326 25.15416,28.901607 25.20706,28.663557 C 25.251143,28.41669 24.651609,27.490938 24.404741,27.393954 C 24.343025,27.367504 24.104974,27.358687 23.76994,27.367504 z M 29.888719,31.246846 C 29.562502,31.520163 29.112851,32.110881 29.007051,32.489998 C 28.901251,32.869116 29.121668,33.680251 29.394985,33.733151 C 29.659486,33.786051 31.325839,33.891851 31.652056,33.838951 C 31.978274,33.786051 32.198691,31.63478 31.98709,31.414363 C 31.766673,31.202762 30.373637,31.414363 29.888719,31.246846 z M 14.829821,31.502529 C 14.468337,31.520163 14.11567,31.590696 14.080403,31.66123 C 13.948153,31.943364 14.380171,33.759601 14.547688,33.891851 C 14.724021,34.032918 16.284574,33.900668 16.425641,33.733151 C 16.566708,33.556817 16.681325,32.807399 16.646059,32.604615 C 16.610792,32.393015 15.826107,31.599513 15.649773,31.528979 C 15.570423,31.493713 15.191306,31.476079 14.829821,31.502529 z M 24.272491,34.526652 C 23.884557,34.526652 22.403354,34.808786 21.327718,34.667719 C 21.089668,34.77352 20.745817,35.637555 20.781084,35.875605 C 20.816351,36.122472 21.786186,36.677923 21.98897,36.677923 C 22.20057,36.677923 24.060891,36.76609 24.272491,36.598573 C 24.475275,36.42224 24.898476,35.787438 24.898476,35.575838 C 24.898476,35.364237 24.651609,34.526652 24.272491,34.526652 z M 30.056236,37.392075 C 29.544869,37.339175 28.53095,37.515509 28.204733,37.559592 C 27.719815,37.832909 27.305431,38.194393 27.464131,38.41481 C 27.622831,38.626411 28.354616,39.181862 28.733734,39.023162 C 29.112851,38.855645 30.408904,37.885809 30.356004,37.559592 C 30.347187,37.480242 30.223753,37.409708 30.056236,37.392075 z M 16.672509,37.480242 C 16.346291,37.489059 16.072974,37.559592 16.152324,37.674209 C 16.205224,37.885809 17.369027,39.049612 17.748144,39.102512 C 18.127262,39.155412 18.656263,38.846828 18.656263,38.582327 C 18.656263,38.30901 17.686427,37.665392 17.474827,37.559592 C 17.369027,37.506692 17.007543,37.462608 16.672509,37.480242 z M 22.403354,40.504365 C 22.077137,40.830582 21.856719,41.121533 21.856719,41.386033 C 21.856719,41.659351 22.941172,41.862134 23.364373,41.862134 C 23.787573,41.862134 25.401027,41.818051 25.33931,41.333133 C 25.28641,40.848215 23.990357,40.566082 23.71704,40.566082 C 23.452539,40.566082 22.509154,40.566082 22.403354,40.504365 z"
     id="p3484"
     style="fill:#4646ff;fill-opacity:1;fill-rule:evenodd;stroke:none;display:inline" />
  <g
     transform="matrix(0.8816685,0,0,0.8816685,23.434906,25.859851)"
     id="g3664">
    <path
       d="M -0.51,-23.78 C -0.89,-23.75 -1.25,-23.7 -1.51,-23.63 C -2.58,-23.35 -3.19,-19.44 -3.23,-18.53 C -3.26,-17.98 -2.8,-16.65 -2.36,-15.5 C -1.66,-15.36 -0.78,-15.02 0.01,-14.5 C 0.93,-15.1 1.98,-15.44 2.73,-15.53 C 3.19,-16.7 3.61,-17.89 3.51,-18.19 C 3.29,-18.83 3.1,-22.7 2.45,-23.28 C 2.12,-23.57 1.41,-23.74 0.63,-23.78 C 0.25,-23.8 -0.14,-23.81 -0.51,-23.78 z M -11.54,-15.31 C -11.64,-15.3 -11.72,-15.27 -11.79,-15.22 C -12.39,-14.8 -13.48,-14.44 -14.67,-13.84 C -15.85,-13.25 -19.68,-10.47 -19.17,-8.44 C -19.25,-7.51 -18.5,-6.49 -17.83,-6.06 C -17.15,-5.64 -15.62,-5.64 -15.2,-6.31 C -14.84,-6.88 -12.73,-9.48 -10.86,-10.19 C -10.77,-10.45 -10.68,-10.7 -10.61,-10.88 C -10.33,-11.5 -9.74,-12.22 -8.95,-12.81 C -9.25,-13.53 -9.4,-14.18 -9.14,-14.44 C -10.22,-15.02 -11.04,-15.4 -11.54,-15.31 z M 11.16,-15.31 C 10.67,-15.25 9.98,-14.92 9.13,-14.47 C 9.15,-14.46 9.18,-14.45 9.2,-14.44 C 9.4,-14.23 9.31,-13.79 9.13,-13.25 C 10.04,-12.45 10.96,-11.19 11.66,-9.78 C 11.67,-9.78 11.66,-9.75 11.66,-9.75 C 13.28,-8.74 14.83,-6.8 15.13,-6.31 C 15.56,-5.64 17.08,-5.64 17.76,-6.06 C 18.44,-6.49 19.22,-7.51 19.13,-8.44 C 19.64,-10.47 15.82,-13.25 14.63,-13.84 C 13.45,-14.44 12.35,-14.8 11.76,-15.22 C 11.61,-15.33 11.41,-15.34 11.16,-15.31 z M 13.66,6.52 C 13.59,9.15 13.31,11.55 12.79,13.24 C 14.28,14.57 17.01,12.57 16.85,11.27 C 16.7,10.07 15.28,8.08 13.66,6.52 z M -12.17,6.86 C -13.64,8.37 -14.87,10.15 -15.01,11.27 C -15.17,12.54 -12.59,14.49 -11.08,13.33 C -11.78,11.38 -12.01,9.01 -12.17,6.86 z"
       id="p3269"
       style="fill:#9b9bdf;fill-opacity:1;fill-rule:evenodd;stroke:none;display:inline" />
    <path
       d="M -17.86,-8.91 C -18.28,-8.89 -18.71,-8.76 -19.17,-8.59 C -19.16,-8.54 -19.18,-8.49 -19.17,-8.44 C -19.25,-7.51 -18.5,-6.49 -17.83,-6.06 C -17.15,-5.64 -15.62,-5.64 -15.2,-6.31 C -15.11,-6.45 -14.85,-6.76 -14.58,-7.09 C -15.07,-7.61 -15.83,-8.14 -16.48,-8.56 C -16.89,-8.83 -17.37,-8.93 -17.86,-8.91 z M 17.45,-8.91 C 17.09,-8.88 16.76,-8.76 16.45,-8.56 C 15.79,-8.14 15.04,-7.61 14.54,-7.09 C 14.81,-6.76 15.08,-6.45 15.16,-6.31 C 15.59,-5.64 17.11,-5.64 17.79,-6.06 C 18.47,-6.49 19.22,-7.51 19.13,-8.44 C 19.15,-8.49 19.13,-8.54 19.13,-8.59 C 18.67,-8.76 18.24,-8.89 17.82,-8.91 C 17.7,-8.91 17.57,-8.92 17.45,-8.91 z"
       id="p3275"
       style="fill:#4545a4;fill-opacity:0.97000002;fill-rule:evenodd;stroke:none;marker:none;visibility:visible;display:inline;overflow:visible;enable-background:accumulate" />
    <path
       d="M -0.51,-23.78 C -0.89,-23.75 -1.25,-23.7 -1.51,-23.63 C -2.52,-23.36 -3.1,-19.93 -3.2,-18.78 C -2.68,-19.13 -2.22,-19.72 -1.67,-19.81 C -0.93,-19.94 -0.5,-19.56 0.1,-19.56 C 0.71,-19.56 1.18,-19.81 1.79,-19.75 C 2.21,-19.71 2.91,-19.38 3.41,-18.84 C 3.23,-20.13 2.99,-22.8 2.45,-23.28 C 2.12,-23.57 1.41,-23.74 0.63,-23.78 C 0.25,-23.8 -0.14,-23.81 -0.51,-23.78 z M -11.17,-13.75 C -11.91,-13.64 -12.55,-13.15 -13.42,-12.72 C -14.91,-11.98 -17.09,-9.38 -18.33,-6.47 C -18.16,-6.3 -17.99,-6.17 -17.83,-6.06 C -17.15,-5.64 -15.62,-5.64 -15.2,-6.31 C -15.1,-6.47 -14.89,-6.79 -14.58,-7.16 C -14.31,-7.48 -13.98,-7.81 -13.61,-8.19 C -13.46,-8.34 -13.3,-8.51 -13.14,-8.66 C -13.08,-8.71 -13.01,-8.76 -12.95,-8.81 C -12.75,-8.99 -12.54,-9.18 -12.33,-9.34 C -12.31,-9.36 -12.28,-9.36 -12.26,-9.38 C -12,-9.58 -11.75,-9.75 -11.48,-9.91 C -11.27,-10.03 -11.06,-10.11 -10.86,-10.19 C -10.85,-10.2 -10.86,-10.21 -10.86,-10.22 C -10.78,-10.47 -10.68,-10.71 -10.61,-10.88 C -10.33,-11.5 -9.74,-12.22 -8.95,-12.81 C -8.97,-12.87 -8.99,-12.92 -9.01,-12.97 C -9.9,-13.64 -10.57,-13.84 -11.17,-13.75 z M 10.54,-13.75 C 10.15,-13.69 9.74,-13.51 9.23,-13.16 C 10.11,-12.35 10.98,-11.14 11.66,-9.78 C 11.67,-9.78 11.66,-9.75 11.66,-9.75 C 11.87,-9.62 12.06,-9.5 12.26,-9.34 C 12.27,-9.34 12.28,-9.35 12.29,-9.34 C 12.48,-9.2 12.67,-9.01 12.85,-8.84 C 13.23,-8.52 13.57,-8.18 13.88,-7.84 C 14.24,-7.47 14.47,-7.19 14.7,-6.91 C 14.88,-6.68 15.1,-6.42 15.16,-6.31 C 15.27,-6.15 15.43,-6.02 15.63,-5.94 C 15.64,-5.93 15.66,-5.94 15.66,-5.94 C 15.76,-5.9 15.87,-5.84 15.98,-5.81 C 16.11,-5.78 16.24,-5.79 16.38,-5.78 C 16.89,-5.76 17.43,-5.86 17.76,-6.06 C 17.94,-6.18 18.11,-6.32 18.29,-6.5 C 17.06,-9.4 14.87,-11.98 13.38,-12.72 C 12.52,-13.15 11.87,-13.64 11.13,-13.75 C 10.95,-13.78 10.74,-13.78 10.54,-13.75 z"
       id="p3277"
       style="fill:#5959be;fill-opacity:0.76000001;fill-rule:evenodd;stroke:none;marker:none;visibility:visible;display:inline;overflow:visible;enable-background:accumulate" />
    <path
       d="M -0.51,-23.78 C -0.89,-23.75 -1.25,-23.7 -1.51,-23.63 C -1.87,-23.53 -2.17,-23.01 -2.42,-22.34 C -1.04,-22.91 -0.37,-22.75 0.23,-22.75 C 0.74,-22.75 1.82,-23.02 2.73,-22.75 C 2.64,-22.99 2.55,-23.19 2.45,-23.28 C 2.12,-23.57 1.41,-23.74 0.63,-23.78 C 0.25,-23.8 -0.14,-23.81 -0.51,-23.78 z"
       id="p3281"
       style="fill:#8282cb;fill-opacity:0.97000002;fill-rule:evenodd;stroke:none;marker:none;visibility:visible;display:inline;overflow:visible;enable-background:accumulate" />
  </g>
  <g
     transform="matrix(0.8816685,0,0,0.8816685,23.434906,25.859851)"
     id="g3766">
    <path
       d="M -0.49,-14.81 C -3.1,-14.1 -5.21,-13.58 -6.38,-12.5 C -6.38,-11.91 -4.52,-9.7 -4.52,-8.94 C -4.52,-8.18 -6.63,-6.32 -6.63,-5.22 C -6.63,-4.11 -5.96,-1.83 -5.87,-0.47 C -5.79,0.87 -7.48,2.65 -7.4,3.58 C -7.31,4.51 -5.02,6.71 -4.94,7.56 C -4.85,8.41 -6.04,10.52 -5.87,11.2 C -5.7,11.88 -2.4,13.83 -2.31,14.42 C -2.23,15.01 -5.79,16.87 -5.19,17.3 C -4.6,17.72 -2.57,18.65 -2.06,18.74 C -2.48,18.91 -2.82,19.5 -2.82,19.5"
       id="p3252"
       style="fill:none;fill-opacity:1;fill-rule:evenodd;stroke:#151258;stroke-width:0.60000002;stroke-linecap:butt;stroke-linejoin:miter;marker:none;stroke-miterlimit:4;stroke-dasharray:none;stroke-dashoffset:0;stroke-opacity:1;visibility:visible;display:inline;overflow:visible;enable-background:accumulate" />
    <path
       d="M 0.12,-14.54 C 1.05,-14.2 4.53,-13.6 4.62,-12.84 C 4.7,-12.07 2.76,-9.79 2.76,-9.03 C 2.76,-8.26 3.6,-7.33 3.69,-5.89 C 3.77,-4.45 3.77,-1.83 4.03,-0.73 C 4.28,0.36 5.55,2.48 5.38,3.16 C 5.21,3.83 3.35,6.63 3.43,7.56 C 3.52,8.49 4.87,10.02 4.7,10.78 C 4.53,11.54 1.91,13.66 1.99,14.5 C 2.08,15.35 5.3,16.03 5.38,17.04 C 5.47,18.06 3.69,18.57 3.09,18.74 C 3.35,18.99 4.53,18.99 4.53,18.99"
       id="p3254"
       style="fill:none;fill-opacity:1;fill-rule:evenodd;stroke:#151258;stroke-width:0.60000002;stroke-linecap:butt;stroke-linejoin:miter;marker:none;stroke-miterlimit:4;stroke-dasharray:none;stroke-dashoffset:0;stroke-opacity:1;visibility:visible;display:inline;overflow:visible;enable-background:accumulate" />
    <path
       d="M -4.52,-9.05 C -3.07,-9.6 2,-9.43 2.67,-9.15"
       id="p3256"
       style="fill:none;fill-opacity:1;fill-rule:evenodd;stroke:#151258;stroke-width:0.60000002;stroke-linecap:butt;stroke-linejoin:miter;marker:none;stroke-miterlimit:4;stroke-dasharray:none;stroke-dashoffset:0;stroke-opacity:1;visibility:visible;display:inline;overflow:visible;enable-background:accumulate" />
    <path
       d="M -5.77,-0.65 C -4.49,-0.92 2.11,-0.76 3.89,-0.92"
       id="p3258"
       style="fill:none;fill-opacity:1;fill-rule:evenodd;stroke:#151258;stroke-width:0.60000002;stroke-linecap:butt;stroke-linejoin:miter;marker:none;stroke-miterlimit:4;stroke-dasharray:none;stroke-dashoffset:0;stroke-opacity:1;visibility:visible;display:inline;overflow:visible;enable-background:accumulate" />
    <path
       d="M -4.94,7.4 C -3.55,7.52 2.34,7.79 3.34,7.46"
       id="p3260"
       style="fill:none;fill-opacity:1;fill-rule:evenodd;stroke:#151258;stroke-width:0.60000002;stroke-linecap:butt;stroke-linejoin:miter;marker:none;stroke-miterlimit:4;stroke-dasharray:none;stroke-dashoffset:0;stroke-opacity:1;visibility:visible;display:inline;overflow:visible;enable-background:accumulate" />
    <path
       d="M -2.27,14.24 C -1.32,14.46 1.22,14.63 2,14.46"
       id="p3262"
       style="fill:none;fill-opacity:1;fill-rule:evenodd;stroke:#151258;stroke-width:0.60000002;stroke-linecap:butt;stroke-linejoin:miter;marker:none;stroke-miterlimit:4;stroke-dasharray:none;stroke-dashoffset:0;stroke-opacity:1;visibility:visible;display:inline;overflow:visible;enable-background:accumulate" />
    <path
       d="M -2.16,18.69 C -0.49,18.8 1.95,18.91 3.23,18.69"
       id="p3264"
       style="fill:none;fill-opacity:1;fill-rule:evenodd;stroke:#151258;stroke-width:0.60000002;stroke-linecap:butt;stroke-linejoin:miter;marker:none;stroke-miterlimit:4;stroke-dasharray:none;stroke-dashoffset:0;stroke-opacity:1;visibility:visible;display:inline;overflow:visible;enable-background:accumulate" />
    <path
       d="M -9.63,-12.18 C -9.52,-11.68 -9.33,-10.93 -9.33,-10.6 C -9.33,-10.26 -11.02,-9.31 -11.3,-8.53"
       id="p3266"
       style="fill:none;fill-opacity:1;fill-rule:evenodd;stroke:#151258;stroke-width:0.60000002;stroke-linecap:butt;stroke-linejoin:miter;marker:none;stroke-miterlimit:4;stroke-dasharray:none;stroke-dashoffset:0;stroke-opacity:1;visibility:visible;display:inline;overflow:visible;enable-background:accumulate" />
    <path
       d="M -11.66,-6.82 C -11.61,-6.37 -11.16,-5.31 -11.27,-5.04 C -11.38,-4.76 -12.11,-3.98 -12.38,-2.98"
       id="p3268"
       style="fill:none;fill-opacity:1;fill-rule:evenodd;stroke:#151258;stroke-width:0.60000002;stroke-linecap:butt;stroke-linejoin:miter;marker:none;stroke-miterlimit:4;stroke-dasharray:none;stroke-dashoffset:0;stroke-opacity:1;visibility:visible;display:inline;overflow:visible;enable-background:accumulate" />
    <path
       d="M -12.44,2.51 L -11.83,3.68 L -12.33,5.18"
       id="p3270"
       style="fill:none;fill-opacity:1;fill-rule:evenodd;stroke:#151258;stroke-width:0.60000002;stroke-linecap:butt;stroke-linejoin:miter;marker:none;stroke-miterlimit:4;stroke-dasharray:none;stroke-dashoffset:0;stroke-opacity:1;visibility:visible;display:inline;overflow:visible;enable-background:accumulate" />
    <path
       d="M -11.83,9.46 L -10.83,10.85 L -11.33,12.8"
       id="p3272"
       style="fill:none;fill-opacity:1;fill-rule:evenodd;stroke:#151258;stroke-width:0.60000002;stroke-linecap:butt;stroke-linejoin:miter;marker:none;stroke-miterlimit:4;stroke-dasharray:none;stroke-dashoffset:0;stroke-opacity:1;visibility:visible;display:inline;overflow:visible;enable-background:accumulate" />
    <path
       d="M -11.16,-5.04 C -10.66,-5.09 -7.27,-5.37 -6.83,-5.37"
       id="p3288"
       style="fill:none;fill-opacity:1;fill-rule:evenodd;stroke:#151258;stroke-width:0.60000002;stroke-linecap:butt;stroke-linejoin:miter;marker:none;stroke-miterlimit:4;stroke-dasharray:none;stroke-dashoffset:0;stroke-opacity:1;visibility:visible;display:inline;overflow:visible;enable-background:accumulate" />
    <path
       d="M -11.83,3.68 C -11.16,3.62 -7.94,3.4 -7.55,3.51"
       id="p3326"
       style="fill:none;fill-opacity:1;fill-rule:evenodd;stroke:#151258;stroke-width:0.60000002;stroke-linecap:butt;stroke-linejoin:miter;marker:none;stroke-miterlimit:4;stroke-dasharray:none;stroke-dashoffset:0;stroke-opacity:1;visibility:visible;display:inline;overflow:visible;enable-background:accumulate" />
    <path
       d="M -9.34,-10.56 C -8.79,-11.03 -6.79,-12.41 -6.39,-12.52"
       id="p3328"
       style="fill:none;fill-opacity:1;fill-rule:evenodd;stroke:#151258;stroke-width:0.60000002;stroke-linecap:butt;stroke-linejoin:miter;marker:none;stroke-miterlimit:4;stroke-dasharray:none;stroke-dashoffset:0;stroke-opacity:1;visibility:visible;display:inline;overflow:visible;enable-background:accumulate" />
    <path
       d="M -11.34,12.54 C -10.68,13.57 -7.73,16.71 -5.33,17.18"
       id="p3337"
       style="fill:none;fill-opacity:1;fill-rule:evenodd;stroke:#151258;stroke-width:0.60000002;stroke-linecap:butt;stroke-linejoin:miter;marker:none;stroke-miterlimit:4;stroke-dasharray:none;stroke-dashoffset:0;stroke-opacity:1;visibility:visible;display:inline;overflow:visible;enable-background:accumulate" />
    <path
       d="M -10.83,10.77 C -9.89,11.13 -6.43,11.36 -5.96,11.29"
       id="p3339"
       style="fill:none;fill-opacity:1;fill-rule:evenodd;stroke:#151258;stroke-width:0.60000002;stroke-linecap:butt;stroke-linejoin:miter;marker:none;stroke-miterlimit:4;stroke-dasharray:none;stroke-dashoffset:0;stroke-opacity:1;visibility:visible;display:inline;overflow:visible;enable-background:accumulate" />
    <path
       d="M 4.56,-12.96 C 6.61,-12.48 8.97,-11.62 9.52,-10.75 C 10.07,-9.89 11.25,-7.85 11.32,-6.9 C 11.4,-5.96 11.87,-5.09 11.64,-4.7 C 11.4,-4.31 12.74,-0.85 12.58,-0.22 C 12.42,0.4 11.87,3.31 11.87,3.78 C 11.87,4.25 12.19,7.24 12.03,8.26 C 11.87,9.28 10.77,10.77 10.62,11.4 C 10.46,12.03 8.73,15.1 8.18,15.96 C 7.63,16.83 5.51,16.98 5.51,16.98"
       id="p3349"
       style="fill:none;fill-opacity:1;fill-rule:evenodd;stroke:#151258;stroke-width:0.60000002;stroke-linecap:butt;stroke-linejoin:miter;marker:none;stroke-miterlimit:4;stroke-dasharray:none;stroke-dashoffset:0;stroke-opacity:1;visibility:visible;display:inline;overflow:visible;enable-background:accumulate" />
    <path
       d="M 4.96,-14.26 L 5.82,-12.64"
       id="p3351"
       style="fill:none;fill-opacity:1;fill-rule:evenodd;stroke:#151258;stroke-width:0.60000002;stroke-linecap:butt;stroke-linejoin:miter;marker:none;stroke-miterlimit:4;stroke-dasharray:none;stroke-dashoffset:0;stroke-opacity:1;visibility:visible;display:inline;overflow:visible;enable-background:accumulate" />
    <path
       d="M 8.73,-11.3 C 8.73,-11.3 9.44,-12.56 9.44,-13.03"
       id="p3353"
       style="fill:none;fill-opacity:1;fill-rule:evenodd;stroke:#151258;stroke-width:0.60000002;stroke-linecap:butt;stroke-linejoin:miter;marker:none;stroke-miterlimit:4;stroke-dasharray:none;stroke-dashoffset:0;stroke-opacity:1;visibility:visible;display:inline;overflow:visible;enable-background:accumulate" />
    <path
       d="M 10.62,-8.95 L 12.35,-8.16"
       id="p3355"
       style="fill:none;fill-opacity:1;fill-rule:evenodd;stroke:#151258;stroke-width:0.60000002;stroke-linecap:butt;stroke-linejoin:miter;marker:none;stroke-miterlimit:4;stroke-dasharray:none;stroke-dashoffset:0;stroke-opacity:1;visibility:visible;display:inline;overflow:visible;enable-background:accumulate" />
    <path
       d="M 11.8,-3.6 L 13.29,-3.52"
       id="p3357"
       style="fill:none;fill-opacity:1;fill-rule:evenodd;stroke:#151258;stroke-width:0.60000002;stroke-linecap:butt;stroke-linejoin:miter;marker:none;stroke-miterlimit:4;stroke-dasharray:none;stroke-dashoffset:0;stroke-opacity:1;visibility:visible;display:inline;overflow:visible;enable-background:accumulate" />
    <path
       d="M 12.42,0.79 L 13.53,0.95"
       id="p3359"
       style="fill:none;fill-opacity:1;fill-rule:evenodd;stroke:#151258;stroke-width:0.60000002;stroke-linecap:butt;stroke-linejoin:miter;marker:none;stroke-miterlimit:4;stroke-dasharray:none;stroke-dashoffset:0;stroke-opacity:1;visibility:visible;display:inline;overflow:visible;enable-background:accumulate" />
    <path
       d="M 12.03,5.66 C 12.03,5.66 13.29,5.51 13.45,4.96"
       id="p3361"
       style="fill:none;fill-opacity:1;fill-rule:evenodd;stroke:#151258;stroke-width:0.60000002;stroke-linecap:butt;stroke-linejoin:miter;marker:none;stroke-miterlimit:4;stroke-dasharray:none;stroke-dashoffset:0;stroke-opacity:1;visibility:visible;display:inline;overflow:visible;enable-background:accumulate" />
    <path
       d="M 11.48,9.83 C 11.48,9.83 12.98,9.6 13.37,10.15"
       id="p3363"
       style="fill:none;fill-opacity:1;fill-rule:evenodd;stroke:#151258;stroke-width:0.60000002;stroke-linecap:butt;stroke-linejoin:miter;marker:none;stroke-miterlimit:4;stroke-dasharray:none;stroke-dashoffset:0;stroke-opacity:1;visibility:visible;display:inline;overflow:visible;enable-background:accumulate" />
    <path
       d="M 8.02,16.36 L 9.36,17.22"
       id="p3365"
       style="fill:none;fill-opacity:1;fill-rule:evenodd;stroke:#151258;stroke-width:0.60000002;stroke-linecap:butt;stroke-linejoin:miter;marker:none;stroke-miterlimit:4;stroke-dasharray:none;stroke-dashoffset:0;stroke-opacity:1;visibility:visible;display:inline;overflow:visible;enable-background:accumulate" />
    <path
       d="M 9.67,13.68 C 9.67,13.68 11.56,15.02 11.87,15.26"
       id="p3367"
       style="fill:none;fill-opacity:1;fill-rule:evenodd;stroke:#151258;stroke-width:0.60000002;stroke-linecap:butt;stroke-linejoin:miter;marker:none;stroke-miterlimit:4;stroke-dasharray:none;stroke-dashoffset:0;stroke-opacity:1;visibility:visible;display:inline;overflow:visible;enable-background:accumulate" />
    <path
       d="M 4.8,10.7 C 6.45,11.17 9.75,11.48 10.46,11.4"
       id="p3369"
       style="fill:none;fill-opacity:1;fill-rule:evenodd;stroke:#151258;stroke-width:0.60000002;stroke-linecap:butt;stroke-linejoin:miter;marker:none;stroke-miterlimit:4;stroke-dasharray:none;stroke-dashoffset:0;stroke-opacity:1;visibility:visible;display:inline;overflow:visible;enable-background:accumulate" />
    <path
       d="M 5.51,3.23 C 7.08,3.62 10.77,3.86 11.8,3.62"
       id="p3371"
       style="fill:none;fill-opacity:1;fill-rule:evenodd;stroke:#151258;stroke-width:0.60000002;stroke-linecap:butt;stroke-linejoin:miter;marker:none;stroke-miterlimit:4;stroke-dasharray:none;stroke-dashoffset:0;stroke-opacity:1;visibility:visible;display:inline;overflow:visible;enable-background:accumulate" />
    <path
       d="M 4.01,-1.01 C 5.27,-2.26 7.08,-4.39 7.79,-4.86 C 8.49,-5.33 11.01,-4.15 11.48,-4.07"
       id="p3373"
       style="fill:none;fill-opacity:1;fill-rule:evenodd;stroke:#151258;stroke-width:0.60000002;stroke-linecap:butt;stroke-linejoin:miter;marker:none;stroke-miterlimit:4;stroke-dasharray:none;stroke-dashoffset:0;stroke-opacity:1;visibility:visible;display:inline;overflow:visible;enable-background:accumulate" />
    <path
       d="M 2.76,-9.1 C 4.33,-7.92 7,-5.42 7.87,-4.95"
       id="p3375"
       style="fill:none;fill-opacity:1;fill-rule:evenodd;stroke:#151258;stroke-width:0.60000002;stroke-linecap:butt;stroke-linejoin:miter;marker:none;stroke-miterlimit:4;stroke-dasharray:none;stroke-dashoffset:0;stroke-opacity:1;visibility:visible;display:inline;overflow:visible;enable-background:accumulate" />
  </g>
  <path
     d="M 20.781084,12.141089 C 20.507767,12.141089 20.331433,12.193989 20.252083,12.299789 C 20.014032,12.67009 19.731898,13.066841 19.590831,13.269625 C 19.529115,13.269625 19.352781,13.269625 19.291064,13.269625 C 19.08828,13.260808 18.885497,13.278442 18.682713,13.296075 C 17.659977,13.031574 15.852557,12.652457 15.376456,13.128558 C 15.147222,13.357792 15.279472,13.930876 15.543973,14.565678 C 14.847455,15.085862 14.32727,15.720663 14.080403,16.267298 C 13.489685,17.616251 12.590383,22.37726 12.511033,23.355912 C 12.4405,24.325748 12.211266,26.115535 12.511033,29.324808 C 12.810801,32.534082 12.722634,37.753559 15.182489,40.063531 C 17.651161,42.382319 19.908232,43.12292 23.117505,43.12292 C 26.317962,43.12292 32.278041,42.294152 34.297062,38.635228 C 36.316083,34.976303 35.346247,22.315544 34.596829,19.547105 C 34.041378,17.492817 32.771775,15.315096 31.484539,14.177743 C 31.64324,13.701642 31.72259,13.313708 31.546256,13.128558 C 31.087789,12.678907 29.447885,13.005124 28.3987,13.269625 C 28.090116,13.251991 27.710998,13.243175 27.358331,13.243175 C 27.208447,13.031574 26.93513,12.661274 26.697079,12.299789 C 26.441396,11.920672 24.792675,12.185173 23.443723,13.075658 C 22.500337,12.45849 21.424702,12.132272 20.781084,12.141089 z"
     id="p3265"
     style="fill:none;fill-opacity:1;fill-rule:evenodd;stroke:#151258;stroke-width:0.52900112;stroke-linecap:butt;stroke-linejoin:miter;marker:none;stroke-miterlimit:4;stroke-dasharray:none;stroke-dashoffset:0;stroke-opacity:1;visibility:visible;display:inline;overflow:visible;enable-background:accumulate" />
  <path
     d="M 22.985255,4.8937741 C 22.650221,4.9202241 22.33282,4.9643076 22.103587,5.0260243 C 21.160201,5.2728915 20.622383,8.7202154 20.587117,9.5225337 C 20.560667,10.007451 20.966234,11.18007 21.354168,12.193989 C 21.142568,12.149906 20.948601,12.141089 20.781084,12.141089 C 20.507767,12.141089 20.331433,12.193989 20.252083,12.299789 C 20.014032,12.67009 19.731898,13.066841 19.590831,13.269625 C 19.529115,13.269625 19.352781,13.269625 19.291064,13.269625 C 19.08828,13.260808 18.885497,13.278442 18.682713,13.296075 C 17.659977,13.031574 15.852557,12.652457 15.376456,13.128558 C 14.424254,12.61719 13.701286,12.282156 13.260452,12.361506 C 13.172285,12.370323 13.101751,12.396773 13.040034,12.440856 C 12.511033,12.811157 11.550015,13.128558 10.500829,13.657559 C 9.4604603,14.177743 6.0836699,16.628782 6.5333209,18.418569 C 6.4627874,19.238521 7.1240388,20.137822 7.7147566,20.51694 C 8.3142912,20.887241 9.663244,20.887241 10.033545,20.296523 C 10.350945,19.793972 12.211266,17.501634 13.859986,16.875649 C 13.286902,18.674253 12.581567,22.491877 12.511033,23.355912 C 12.4405,24.325748 12.211266,26.115535 12.511033,29.324808 C 12.581567,30.09186 12.634467,30.982345 12.705,31.908097 C 11.408948,33.239416 10.324495,34.808786 10.201062,35.796255 C 10.059995,36.915974 12.3347,38.635228 13.666019,37.612492 C 14.018686,38.582327 14.512421,39.437546 15.182489,40.063531 C 17.651161,42.382319 19.908232,43.12292 23.117505,43.12292 C 26.317962,43.12292 32.278041,42.294152 34.297062,38.635228 C 34.464579,38.33546 34.588013,37.938709 34.711446,37.533142 C 36.025132,38.705761 38.432087,36.942424 38.29102,35.796255 C 38.15877,34.738253 36.906801,32.983732 35.478498,31.60833 C 35.610748,26.785603 35.064114,21.266358 34.596829,19.547105 C 34.394045,18.78887 34.085461,18.004185 33.715161,17.263583 C 35.143464,18.154068 36.51005,19.864505 36.77455,20.296523 C 37.153668,20.887241 38.493804,20.887241 39.093339,20.51694 C 39.692873,20.137822 40.380575,19.238521 40.301224,18.418569 C 40.750875,16.628782 37.382902,14.177743 36.333716,13.657559 C 35.293347,13.128558 34.323512,12.811157 33.803328,12.440856 C 33.415393,12.167539 32.613075,12.502573 31.484539,13.102108 C 30.981988,12.705357 29.412618,13.013941 28.3987,13.269625 C 28.090116,13.251991 27.710998,13.243175 27.358331,13.243175 C 27.208447,13.031574 26.93513,12.661274 26.697079,12.299789 C 26.591279,12.149906 26.273879,12.114639 25.841861,12.167539 C 26.247429,11.135987 26.617729,10.086802 26.529562,9.822301 C 26.335595,9.2580331 26.168078,5.8459761 25.594994,5.3346083 C 25.304043,5.0789245 24.678059,4.9290408 23.990357,4.8937741 C 23.655323,4.8761407 23.311472,4.867324 22.985255,4.8937741 z"
     id="p3455"
     style="fill:none;fill-rule:evenodd;stroke:#151258;stroke-width:0.88166851;stroke-linecap:butt;stroke-linejoin:miter;stroke-miterlimit:4;stroke-dasharray:none;stroke-opacity:1;display:inline" />
</svg>
