<?xml version="1.0" encoding="UTF-8" standalone="no"?>
<!-- Created with Inkscape (http://www.inkscape.org/) -->
<svg
   xmlns:svg="http://www.w3.org/2000/svg"
   xmlns="http://www.w3.org/2000/svg"
   xmlns:xlink="http://www.w3.org/1999/xlink"
   version="1.0"
   width="100%"
   height="100%"
   viewBox="0 0 48 48"
   id="ontology">
  <defs
     id="defs2385">
    <linearGradient
       id="linearGradient5044">
      <stop
         id="stop5046"
         style="stop-color:#c5fbed;stop-opacity:1"
         offset="0" />
      <stop
         id="stop5048"
         style="stop-color:#6feee1;stop-opacity:0"
         offset="1" />
    </linearGradient>
    <linearGradient
       id="linearGradient3220">
      <stop
         id="stop3222"
         style="stop-color:#b9f6f9;stop-opacity:1"
         offset="0" />
      <stop
         id="stop3224"
         style="stop-color:#0c5e68;stop-opacity:1"
         offset="1" />
    </linearGradient>
    <linearGradient
       id="linearGradient3210">
      <stop
         id="stop3212"
         style="stop-color:#1e7e7e;stop-opacity:1"
         offset="0" />
      <stop
         id="stop3214"
         style="stop-color:#82faf4;stop-opacity:1"
         offset="1" />
    </linearGradient>
    <linearGradient
       x1="24"
       y1="48"
       x2="24"
       y2="0"
       id="linearGradient3496"
       xlink:href="#linearGradient3210"
       gradientUnits="userSpaceOnUse" />
    <radialGradient
       cx="24"
       cy="43.228447"
       r="23.5"
       fx="24"
       fy="43.228447"
       id="radialGradient3597"
       xlink:href="#linearGradient3220"
       gradientUnits="userSpaceOnUse"
       gradientTransform="matrix(2.351355,0,0,1.8182318,-32.43252,-35.370889)" />
    <radialGradient
       cx="23.999998"
       cy="28.612509"
       r="23.5"
       fx="23.999998"
       fy="28.612509"
       id="radialGradient5040"
       xlink:href="#linearGradient5044"
       gradientUnits="userSpaceOnUse"
       gradientTransform="matrix(1.5870545,4.6792776e-8,-4.7351043e-8,1.605989,-22.68007,-33.349655)" />
  </defs>
  <path
     d="M 9.625,0.5 C 4.5670164,0.5 0.5,4.5670164 0.5,9.625 L 0.5,38.375 C 0.5,43.432984 4.5670164,47.5 9.625,47.5 L 38.375,47.5 C 43.432984,47.5 47.5,43.432986 47.5,38.375 L 47.5,9.625 C 47.5,4.5670164 43.432986,0.5 38.375,0.5 L 9.625,0.5 z"
     id="rect3218"
     style="fill:url(#radialGradient3597);fill-opacity:1;fill-rule:nonzero;stroke:none;stroke-width:1;stroke-linecap:butt;stroke-linejoin:round;marker:none;stroke-miterlimit:4;stroke-dasharray:none;stroke-dashoffset:0;stroke-opacity:1;visibility:visible;display:inline;overflow:visible;enable-background:accumulate" />
  <path
     d="M 2.5294462,28.455326 C 2.5294462,28.455326 3.4394462,29.965326 3.5194462,30.045326 C 3.5894462,30.125326 4.7294462,30.875326 4.7294462,30.875326 C 4.7294462,30.875326 7.2294462,33.155327 7.5294462,33.385326 C 7.8394462,33.605326 22.239446,41.565326 22.849446,41.875326 C 23.449446,42.175326 24.439446,42.475327 25.119446,42.325327 C 25.799446,42.175326 25.649446,41.875326 25.649446,41.875326 L 26.869446,41.645327 C 26.869446,41.645327 30.809446,36.945327 30.809446,36.485326 C 30.809446,36.035326 30.879446,35.655327 30.879446,35.655327 C 30.879446,35.655327 34.449446,29.815327 34.519446,29.365326 C 34.599446,28.905327 34.369446,28.685326 34.369446,28.685326 L 39.379446,20.945327 L 40.359446,20.185326 C 40.359446,20.185326 43.919446,14.275327 43.919446,13.975326 C 43.919446,13.665326 43.619446,13.515327 43.619446,13.515327 C 43.619446,13.515327 44.299446,12.915326 44.229446,12.605327 C 44.149446,12.305326 43.239446,11.695327 43.239446,11.695327 L 42.639446,11.925326 L 42.329446,11.315326 L 42.939446,10.635326 L 41.729446,9.8053265 C 41.729446,9.8053265 42.939446,7.5253265 42.939446,6.9953265 C 42.939446,6.4653265 42.639446,6.2353265 42.099446,6.0853265 C 41.569446,5.9353265 37.099446,6.2353265 32.479446,6.7753265 C 27.849446,7.3053265 24.289446,7.7553265 23.989446,7.8353265 C 23.679446,7.9053265 17.089446,14.655326 15.799446,15.865326 C 14.509446,17.085327 8.6694462,22.765327 7.3094462,24.055326 C 5.9394462,25.345326 2.6794462,28.145326 2.5294462,28.455326 z"
     id="path2815"
     style="fill:none;fill-opacity:1;fill-rule:evenodd;stroke:#ffffff;stroke-width:2.5;stroke-linecap:butt;stroke-linejoin:miter;stroke-miterlimit:4;stroke-dasharray:none;stroke-opacity:0.56818183;display:inline" />
  <path
     d="M 9.625,0.5 C 4.5670164,0.5 0.5,4.5670164 0.5,9.625 L 0.5,18.78125 C 6.9980288,21.8908 15.151882,23.75 24,23.75 C 32.848118,23.75 41.001971,21.8908 47.5,18.78125 L 47.5,9.625 C 47.5,4.5670164 43.432986,0.5 38.375,0.5 L 9.625,0.5 z"
     id="path3228"
     style="fill:#caeef2;fill-opacity:0.22727272;fill-rule:evenodd;stroke:none;stroke-width:1;stroke-linecap:round;stroke-linejoin:round;marker:none;marker-start:none;marker-mid:none;marker-end:none;stroke-miterlimit:4;stroke-dasharray:none;stroke-dashoffset:0;stroke-opacity:1;visibility:visible;display:inline;overflow:visible;enable-background:accumulate" />
  <path
     d="M 9.625,0.5 C 4.5670164,0.5 0.5,4.5670164 0.5,9.625 L 0.5,38.375 C 0.5,43.432984 4.5670164,47.5 9.625,47.5 L 38.375,47.5 C 43.432984,47.5 47.5,43.432986 47.5,38.375 L 47.5,9.625 C 47.5,4.5670164 43.432986,0.5 38.375,0.5 L 9.625,0.5 z"
     id="path5032"
     style="fill:url(#radialGradient5040);fill-opacity:1;fill-rule:nonzero;stroke:none;stroke-width:1;stroke-linecap:butt;stroke-linejoin:round;marker:none;stroke-miterlimit:4;stroke-dasharray:none;stroke-dashoffset:0;stroke-opacity:1;visibility:visible;display:inline;overflow:visible;enable-background:accumulate" />
  <rect
     width="47"
     height="47"
     ry="9.1299343"
     x="0.5"
     y="0.5"
     id="r2393"
     style="fill:none;fill-opacity:1;fill-rule:nonzero;stroke:url(#linearGradient3496);stroke-width:1;stroke-linecap:butt;stroke-linejoin:round;marker:none;stroke-miterlimit:4;stroke-dasharray:none;stroke-dashoffset:0;stroke-opacity:1;visibility:visible;display:inline;overflow:visible;enable-background:accumulate" />
  <path
     d="M 2.5294462,28.455326 C 2.5294462,28.455326 3.4394462,29.965326 3.5194462,30.045326 C 3.5894462,30.125326 4.7294462,30.875326 4.7294462,30.875326 C 4.7294462,30.875326 7.2294462,33.155327 7.5294462,33.385326 C 7.8394462,33.605326 22.239446,41.565326 22.849446,41.875326 C 23.449446,42.175326 24.439446,42.475327 25.119446,42.325327 C 25.799446,42.175326 25.649446,41.875326 25.649446,41.875326 L 26.869446,41.645327 C 26.869446,41.645327 30.809446,36.945327 30.809446,36.485326 C 30.809446,36.035326 30.879446,35.655327 30.879446,35.655327 C 30.879446,35.655327 34.449446,29.815327 34.519446,29.365326 C 34.599446,28.905327 34.369446,28.685326 34.369446,28.685326 L 39.379446,20.945327 L 40.359446,20.185326 C 40.359446,20.185326 43.919446,14.275327 43.919446,13.975326 C 43.919446,13.665326 43.619446,13.515327 43.619446,13.515327 C 43.619446,13.515327 44.299446,12.915326 44.229446,12.605327 C 44.149446,12.305326 43.239446,11.695327 43.239446,11.695327 L 42.639446,11.925326 L 42.329446,11.315326 L 42.939446,10.635326 L 41.729446,9.8053265 C 41.729446,9.8053265 42.939446,7.5253265 42.939446,6.9953265 C 42.939446,6.4653265 42.639446,6.2353265 42.099446,6.0853265 C 41.569446,5.9353265 37.099446,6.2353265 32.479446,6.7753265 C 27.849446,7.3053265 24.289446,7.7553265 23.989446,7.8353265 C 23.679446,7.9053265 17.089446,14.655326 15.799446,15.865326 C 14.509446,17.085327 8.6694462,22.765327 7.3094462,24.055326 C 5.9394462,25.345326 2.6794462,28.145326 2.5294462,28.455326 z"
     id="p3391"
     style="fill:#806225;fill-opacity:1;fill-rule:evenodd;stroke:none;display:inline" />
  <path
     d="M 6.8494462,24.455326 C 5.3394462,25.845326 2.6794462,28.175327 2.5394462,28.455326 C 2.5394462,28.455326 3.4294462,29.975327 3.5094462,30.055326 C 3.5794462,30.125326 4.7294462,30.895327 4.7294462,30.895327 C 4.7194462,30.895327 7.2294462,33.165326 7.5394462,33.395327 C 7.8394462,33.625326 22.239446,41.555326 22.849446,41.865327 C 23.439446,42.155327 24.389446,42.455326 25.069446,42.335327 L 24.409446,41.145327 L 23.409446,41.425326 L 22.069446,39.985326 L 21.259446,39.265327 L 20.729446,38.265327 L 20.439446,35.305326 L 16.509446,30.305326 L 6.8494462,24.455326 z"
     id="p3398"
     style="fill:#72654b;fill-opacity:1;fill-rule:evenodd;stroke:none" />
  <path
     d="M 21.809446,39.815326 L 25.329446,36.025326 L 27.109446,35.755327 C 27.109446,35.755327 24.489446,39.995326 23.989446,40.565326 C 23.499446,41.125326 23.309446,41.305326 23.309446,41.305326 L 21.809446,39.815326 z"
     id="p3566"
     style="fill:#240d05;fill-opacity:0.56000001;fill-rule:evenodd;stroke:none;display:inline" />
  <path
     d="M 21.239446,39.495326 C 21.239446,39.495326 23.729446,36.845326 24.209446,36.285326 C 24.689446,35.725327 27.259446,32.345326 27.259446,32.345326 L 24.129446,30.345326 L 20.519446,37.565326 L 21.239446,39.495326 z"
     id="p3595"
     style="fill:#240d05;fill-opacity:0.56000001;fill-rule:evenodd;stroke:none;display:inline" />
  <path
     d="M 41.039446,6.0553265 C 39.339446,6.0953265 35.939446,6.3753265 32.479446,6.7653265 C 27.849446,7.2953265 24.279446,7.7553265 23.979446,7.8353265 C 23.669446,7.9053265 17.079446,14.645326 15.789446,15.865326 C 14.499446,17.075326 8.6794462,22.765327 7.3194462,24.055326 C 5.9494462,25.335327 2.6894462,28.155327 2.5394462,28.455326 C 5.7994462,30.185326 19.969446,37.635326 21.159446,37.395327 C 22.509446,37.125326 23.039446,36.135326 23.849446,35.145327 C 24.609446,34.205326 40.169446,11.945327 41.909446,9.4553265 C 42.169446,8.9553265 42.939446,7.4353265 42.939446,6.9853265 C 42.939446,6.4553265 42.629446,6.2353265 42.099446,6.0853265 C 41.969446,6.0453265 41.599446,6.0353265 41.039446,6.0553265 z"
     id="p3394"
     style="fill:#968749;fill-opacity:1;fill-rule:evenodd;stroke:none" />
  <path
     d="M 17.439446,15.825326 C 19.269446,16.855327 19.199446,17.075326 19.859446,18.465326 C 20.519446,19.855327 20.009446,21.245327 19.489446,21.615326 C 18.979446,21.975327 19.129446,22.415326 20.079446,22.415326 C 21.029446,22.415326 22.349446,21.245327 23.159446,21.315327 C 23.959446,21.395326 25.939446,20.955326 26.079446,19.925327 C 26.229446,18.905327 26.889446,19.415326 27.699446,19.485326 C 28.499446,19.565327 29.449446,18.825326 29.379446,18.315327 C 29.309446,17.805326 27.329446,18.535327 27.619446,17.435326 C 27.909446,16.345326 29.449446,15.315327 30.109446,15.245327 C 30.769446,15.165326 30.039446,18.095326 32.309446,16.415326 C 34.579446,14.725326 33.989446,13.415326 32.669446,12.975326 C 31.359446,12.535327 28.279446,13.045326 26.819446,13.705326 C 25.349446,14.365327 26.009446,13.265327 23.959446,13.555326 C 21.909446,13.855327 18.689446,13.775327 18.689446,13.775327 L 17.439446,15.825326 z"
     id="p3419"
     style="fill:#2d160b;fill-opacity:0.27000002;fill-rule:evenodd;stroke:none;display:inline" />
  <path
     d="M 18.519446,14.165326 C 17.409446,16.895326 16.809446,17.755326 18.349446,18.695327 C 19.889446,19.635326 22.279446,18.775326 23.309446,18.175327 C 24.329446,17.585327 28.599446,13.905326 29.539446,14.595327 C 30.479446,15.275326 27.919446,17.925327 28.689446,18.695327 C 29.459446,19.465326 31.339446,16.895326 31.589446,18.005326 C 31.849446,19.115326 29.969446,23.645326 32.789446,20.745327 C 35.609446,17.835327 32.359446,20.825326 32.529446,18.865326 C 32.699446,16.895326 32.279446,16.815327 31.339446,16.125326 C 30.399446,15.445327 32.109446,14.075326 32.529446,14.245326 C 32.959446,14.415326 32.359446,16.385326 33.469446,14.505326 C 34.579446,12.625326 33.809446,11.945327 32.449446,11.775327 C 31.079446,11.605327 27.319446,13.825326 27.319446,14.245326 C 27.319446,14.675326 29.199446,14.165326 25.439446,16.295326 C 21.679446,18.435326 19.889446,16.645326 20.659446,15.615326 C 21.429446,14.595327 23.049446,15.785327 24.069446,14.765327 C 25.099446,13.735326 25.869446,14.245326 22.959446,13.395326 C 20.059446,12.545326 18.609446,14.165326 18.519446,14.165326 z"
     id="p3528"
     style="fill:#12120d;fill-opacity:0.41000001;fill-rule:evenodd;stroke:none;display:inline" />
  <path
     d="M 27.849446,7.3053265 C 26.189446,7.5053265 25.149446,7.6553265 24.629446,7.7353265 L 23.979446,8.6153265 C 24.229446,10.575326 25.449446,10.075326 26.129446,10.675326 C 26.809446,11.275327 25.369446,12.025327 25.539446,12.455326 C 25.709446,12.885326 26.799446,11.075326 27.569446,10.985326 C 28.339446,10.905326 28.959446,11.075326 28.789446,10.395326 C 28.619446,9.7153265 26.199446,10.315326 26.539446,9.5553265 C 26.879446,8.7853265 28.939446,9.7253265 28.599446,8.2653265 C 28.499446,7.8553265 28.209446,7.5453265 27.849446,7.3053265 z"
     id="p3530"
     style="fill:#12120d;fill-opacity:0.47000002;fill-rule:evenodd;stroke:none;display:inline" />
  <path
     d="M 28.729446,7.2053265 C 26.189446,7.5153265 24.179446,7.7753265 23.979446,7.8353265 C 23.669446,7.9053265 17.079446,14.645326 15.789446,15.865326 C 14.499446,17.075326 8.6794462,22.765327 7.3194462,24.055326 C 5.9494462,25.335327 2.6894462,28.155327 2.5394462,28.455326 C 2.9494462,28.675327 3.9094462,29.175327 4.6294462,29.555326 L 5.1294462,29.015327 C 6.0094462,28.945327 9.5194462,27.475327 10.259446,27.765327 C 10.989446,28.065327 11.009446,29.515327 11.229446,28.925327 C 11.439446,28.335327 12.109446,29.515327 12.039446,28.485326 C 11.959446,27.465326 12.449446,24.315327 13.479446,23.585327 C 14.499446,22.845326 18.339446,22.935326 16.509446,22.645326 C 14.679446,22.355327 14.499446,22.725327 16.039446,21.555326 C 17.579446,20.375326 18.319446,19.495327 19.189446,19.645326 C 20.069446,19.795326 21.829446,18.305326 23.009446,18.455326 C 24.179446,18.605327 26.229446,17.495327 24.909446,17.645326 C 23.589446,17.795326 23.599446,16.785327 24.259446,16.055326 C 24.919446,15.315327 22.999446,15.475327 22.849446,15.765327 C 22.699446,16.065327 20.159446,17.675327 20.819446,16.205326 C 21.479446,14.745326 23.149446,15.005326 23.879446,14.645326 C 24.589446,14.285327 23.599446,13.695327 24.479446,13.455326 C 23.889446,13.565326 22.399446,13.765327 23.289446,12.985326 C 24.529446,11.885326 24.479446,11.365327 25.069446,10.485326 C 25.649446,9.6053265 27.049446,10.335326 26.979446,9.2353265 C 26.899446,8.1353265 28.419446,9.3153265 28.789446,8.3653265 C 28.889446,8.0953265 28.839446,7.6753265 28.729446,7.2053265 z M 18.909446,16.055326 C 19.319446,15.965326 18.489446,17.375326 17.909446,18.115326 C 17.339446,18.855327 16.879446,18.765327 15.979446,17.865326 L 16.689446,16.865326 C 16.689446,16.865326 16.779446,17.675327 17.189446,17.925327 C 17.599446,18.175327 18.499446,16.135326 18.909446,16.055326 z"
     id="p3417"
     style="fill:#020509;fill-opacity:0.43000004;fill-rule:evenodd;stroke:none;display:inline" />
  <path
     d="M 7.0994462,28.105327 C 10.879446,27.365326 11.859446,27.365326 12.929446,28.765327 C 13.989446,30.155327 15.299446,32.865327 15.299446,30.975327 C 15.299446,29.085327 15.799446,30.155327 17.519446,31.305326 C 19.239446,32.455326 23.009446,32.205326 23.009446,33.355326 C 23.009446,34.505327 26.209446,31.715326 27.519446,29.415326 C 28.829446,27.125326 28.749446,22.205326 26.619446,24.665326 C 24.489446,27.125326 21.619446,27.775326 21.619446,27.775326 C 21.619446,27.775326 21.859446,26.055326 20.959446,25.725327 C 20.059446,25.395326 18.829446,25.565327 19.159446,25.975327 C 19.489446,26.385326 20.799446,27.535327 19.159446,27.445327 C 17.519446,27.365326 12.269446,25.805326 12.269446,24.165326 C 12.269446,22.525326 13.749446,24.165326 10.469446,24.985326 C 7.1894462,25.805326 5.6294462,26.545326 5.7894462,27.035327 C 5.9594462,27.535327 7.0994462,28.105327 7.0994462,28.105327 z"
     id="p3508"
     style="fill:#4c3f20;fill-opacity:0.45;fill-rule:evenodd;stroke:none" />
  <path
     d="M 9.7194462,22.625326 C 9.7194462,22.625326 16.039446,25.955326 17.069446,27.495327 C 18.089446,29.025326 16.639446,28.775326 13.479446,26.555326 C 10.319446,24.335327 8.7794462,24.245327 8.7794462,24.245327 C 8.7794462,24.245327 6.1294462,24.925327 7.6694462,26.635326 C 10.889446,30.215326 16.559446,30.315327 18.179446,31.255327 C 19.799446,32.195327 21.339446,31.425326 22.959446,30.655327 C 24.589446,29.885326 27.149446,27.325326 26.119446,29.795326 C 25.099446,32.275326 28.179446,27.665326 29.109446,26.635326 C 30.049446,25.615326 29.629446,21.685326 26.299446,24.245327 C 22.959446,26.805326 21.599446,26.805326 21.599446,24.585327 C 21.599446,22.365326 22.539446,21.855327 21.509446,21.595326 C 20.489446,21.345326 20.569446,22.365326 20.319446,24.155327 C 20.059446,25.955326 20.909446,26.895326 19.199446,26.635326 C 17.499446,26.385326 11.259446,22.965326 11.259446,21.855327 C 11.259446,20.745327 9.7194462,22.705326 9.7194462,22.625326 z"
     id="p3526"
     style="fill:#12120d;fill-opacity:0.33000004;fill-rule:evenodd;stroke:none;display:inline" />
  <path
     d="M 6.0394462,27.365326 C 8.2494462,27.365326 12.679446,27.695327 13.499446,28.355327 C 14.319446,29.005326 14.889446,29.415326 15.879446,30.485326 C 16.859446,31.545327 13.419446,27.365326 14.479446,27.945327 C 15.549446,28.515327 12.929446,26.385326 13.169446,25.235326 C 13.419446,24.085327 14.729446,22.115326 13.989446,21.545326 C 13.249446,20.975327 13.749446,20.885326 14.809446,20.805326 C 15.879446,20.725327 18.909446,22.525326 17.349446,19.245327 C 15.799446,15.975327 11.779446,20.975327 11.779446,20.975327 L 6.0394462,27.365326 z"
     id="p3502"
     style="fill:#06090c;fill-opacity:0.27000002;fill-rule:evenodd;stroke:none;display:inline" />
  <path
     d="M 26.319446,7.4853265 C 25.079446,7.6453265 24.109446,7.7953265 23.979446,7.8353265 C 23.669446,7.9053265 17.079446,14.645326 15.789446,15.865326 C 14.499446,17.075326 8.6794462,22.765327 7.3194462,24.055326 C 5.9494462,25.335327 2.6894462,28.155327 2.5394462,28.455326 C 2.9794462,28.685326 3.9794462,29.205326 4.7594462,29.615326 L 26.319446,7.4853265 z"
     id="p3396"
     style="fill:#453112;fill-opacity:1;fill-rule:evenodd;stroke:none" />
  <path
     d="M 41.039446,6.0553265 C 40.279446,6.0753265 39.079446,6.1353265 37.789446,6.2353265 C 35.449446,7.3953265 33.249446,8.4253265 34.009446,8.3653265 C 34.879446,8.2853265 37.269446,9.6153265 35.659446,9.3953265 C 34.049446,9.1753265 32.889446,9.5153265 32.599446,10.175326 C 32.309446,10.835326 31.859446,11.505326 32.229446,12.455326 C 32.589446,13.405326 31.559446,14.715326 30.539446,14.205326 C 29.509446,13.695327 30.709446,15.325326 31.659446,14.955326 C 32.609446,14.595327 33.349446,13.115327 34.009446,12.895326 C 34.669446,12.675326 36.619446,12.155326 36.909446,13.765327 C 37.069446,14.615327 37.399446,14.915326 38.129446,14.865326 C 39.369446,13.095326 41.559446,9.9553265 41.909446,9.4553265 C 42.169446,8.9553265 42.939446,7.4353265 42.939446,6.9853265 C 42.939446,6.4553265 42.629446,6.2353265 42.099446,6.0853265 C 41.969446,6.0453265 41.599446,6.0353265 41.039446,6.0553265 z"
     id="p3423"
     style="fill:#020509;fill-opacity:0.45;fill-rule:evenodd;stroke:none;display:inline" />
  <path
     d="M 6.6794462,25.415326 L 7.6294462,25.565327 L 8.7994462,24.395326 L 9.1694462,23.365326 C 9.1694462,23.365326 9.7594462,23.515327 10.119446,23.145326 C 10.489446,22.785327 9.4594462,22.715326 9.4594462,22.715326 L 8.5794462,23.885326 L 6.6794462,25.415326 z"
     id="p3415"
     style="fill:#06090c;fill-opacity:0.4;fill-rule:evenodd;stroke:none;display:inline" />
  <path
     d="M 9.2894462,33.455326 L 9.2894462,34.365327 C 12.109446,35.965326 22.309446,41.595326 22.849446,41.865327 C 23.439446,42.155327 24.389446,42.455326 25.069446,42.335327 L 24.629446,41.515327 L 23.289446,41.485326 L 9.2894462,33.455326 z"
     id="p3551"
     style="fill:#e8cf9f;fill-opacity:0.81000001;fill-rule:evenodd;stroke:none;display:inline" />
  <path
     d="M 31.229446,20.395326 C 30.689446,20.415326 29.729446,21.135326 29.539446,21.455326 C 29.319446,21.825326 29.019446,19.995327 27.629446,20.585327 C 26.239446,21.165326 25.489446,23.965326 24.319446,23.675327 C 23.149446,23.385326 22.849446,24.535327 22.849446,25.485326 C 22.829446,25.015327 22.739446,23.775326 22.289446,23.675327 C 21.629446,23.525326 19.939446,25.065327 20.599446,25.585327 C 21.259446,26.095326 21.109446,27.335327 20.159446,27.335327 C 19.209446,27.335327 17.579446,26.885326 16.849446,27.615326 C 16.119446,28.345326 17.019446,28.435326 14.159446,28.805326 C 16.729446,29.165326 18.839446,29.375326 18.479446,30.335327 C 18.109446,31.285326 16.639446,32.515327 17.439446,33.175326 C 18.249446,33.835327 19.639446,33.025326 19.789446,33.615327 C 19.929446,34.195327 19.499446,35.675326 21.909446,35.455326 C 22.749446,35.375326 23.469446,35.125326 24.159446,34.705326 C 24.769446,33.905327 27.439446,30.095326 30.629446,25.555326 C 30.809446,24.555326 30.789446,23.765327 30.629446,23.305326 C 30.269446,22.205326 31.879446,20.675327 31.439446,20.455326 C 31.389446,20.425327 31.299446,20.395326 31.229446,20.395326 z"
     id="p3425"
     style="fill:#020509;fill-opacity:0.37999998;fill-rule:evenodd;stroke:none;display:inline" />
  <path
     d="M 43.259446,11.705326 L 42.689446,11.895326 C 41.629446,13.585326 35.309446,23.655327 33.689446,26.015327 C 31.939446,28.585327 25.209446,39.125326 24.039446,40.955326 L 23.819446,41.455326 L 24.789446,42.365327 C 24.899446,42.355326 25.029446,42.355326 25.129446,42.335327 C 25.809446,42.175326 25.659446,41.865327 25.659446,41.865327 L 26.879446,41.645327 C 26.879446,41.645327 30.819446,36.945327 30.819446,36.485326 C 30.819446,36.035326 30.879446,35.645327 30.879446,35.645327 C 30.879446,35.645327 34.459446,29.815327 34.539446,29.365326 C 34.609446,28.905327 34.379446,28.675327 34.379446,28.675327 L 39.379446,20.955326 L 40.349446,20.175327 C 40.349446,20.175327 43.909446,14.295326 43.909446,13.985326 C 43.909446,13.685327 43.629446,13.515327 43.629446,13.515327 C 43.629446,13.515327 44.299446,12.915326 44.229446,12.615327 C 44.149446,12.305326 43.259446,11.705326 43.259446,11.705326 z"
     id="p3427"
     style="fill:#c8b184;fill-opacity:1;fill-rule:evenodd;stroke:none;display:inline" />
  <path
     d="M 24.079446,32.945327 C 21.289446,34.335327 19.899446,34.585327 19.809446,34.175326 C 19.729446,33.765327 21.699446,33.275326 20.799446,32.455326 C 19.899446,31.635326 20.139446,30.895327 19.569446,32.365327 C 18.989446,33.845326 17.679446,34.005327 17.599446,32.865327 C 17.519446,31.715326 18.419446,30.075326 19.489446,30.075326 C 20.549446,30.075326 21.779446,29.665326 22.269446,29.415326 C 22.769446,29.175327 21.779446,30.315327 22.189446,30.895327 C 22.599446,31.465326 22.599446,31.385326 24.159446,30.815326 C 25.719446,30.235326 21.039446,29.335327 23.009446,28.595326 C 24.979446,27.855327 24.979446,28.595326 26.289446,29.175327 C 27.599446,29.745327 21.859446,25.395326 23.909446,25.075326 C 25.959446,24.745327 26.619446,27.695327 27.279446,25.975327 C 27.929446,24.255326 28.179446,20.475327 28.829446,23.105327 C 29.489446,25.725327 28.669446,27.445327 28.669446,27.445327 L 25.139446,32.945327 L 24.079446,32.945327 z"
     id="p3498"
     style="fill:#06090c;fill-opacity:0.21000001;fill-rule:evenodd;stroke:none;display:inline" />
  <path
     d="M 5.2794462,31.095326 L 7.3794462,33.295327 L 12.229446,34.695327 L 5.2794462,31.095326 z"
     id="p3553"
     style="fill:#e8cf9f;fill-opacity:0.81000001;fill-rule:evenodd;stroke:none;display:inline" />
  <path
     d="M 8.9794462,31.695327 L 14.029446,35.245326 L 14.329446,35.045327 L 14.679446,35.595326 L 15.279446,35.895327 C 15.279446,35.895327 15.379446,35.345326 15.529446,35.245326 C 15.679446,35.145327 16.379446,35.095326 16.379446,35.095326 L 8.9794462,31.695327 z"
     id="p3555"
     style="fill:#e8cf9f;fill-opacity:0.81000001;fill-rule:evenodd;stroke:none;display:inline" />
  <path
     d="M 9.6294462,33.495326 L 21.789446,39.945327"
     id="p3560"
     style="fill:none;fill-rule:evenodd;stroke:#d0b989;stroke-width:0.2;stroke-linecap:round;stroke-linejoin:miter;stroke-miterlimit:4;stroke-dasharray:none;stroke-opacity:1;display:inline" />
  <path
     d="M 30.359446,28.265327 L 42.459446,11.235326"
     id="p3581"
     style="fill:none;fill-rule:evenodd;stroke:#151107;stroke-width:0.60000002;stroke-linecap:butt;stroke-linejoin:miter;stroke-miterlimit:4;stroke-dasharray:none;stroke-opacity:1;display:inline" />
  <path
     d="M 42.189446,10.145326 C 40.859446,12.085326 37.329446,17.245327 36.909446,17.925327 C 36.409446,18.735326 32.789446,23.705326 32.039446,24.835327 C 31.289446,25.955326 25.129446,34.515327 24.759446,35.145327 C 24.379446,35.765327 23.379446,37.265327 23.509446,37.895327 C 23.509446,37.895327 24.759446,38.545327 25.509446,38.235326 C 26.249446,37.925326 26.979446,36.205326 27.409446,35.265327 C 27.849446,34.335327 28.979446,32.705326 29.039446,32.145327 C 29.099446,31.585327 32.479446,24.955326 32.479446,24.955326 L 42.349446,11.365327 L 42.319446,11.335326 L 42.569446,11.055326 L 42.879446,10.615327 L 42.189446,10.145326 z"
     id="p3569"
     style="fill:#c8b184;fill-opacity:1;fill-rule:evenodd;stroke:none;display:inline" />
  <path
     d="M 27.599446,37.085327 L 25.009446,41.615327 L 25.599446,42.115327 C 25.689446,41.995326 25.659446,41.865327 25.659446,41.865327 L 26.879446,41.645327 C 26.879446,41.645327 28.249446,39.995326 29.379446,38.555326 L 27.599446,37.085327 z"
     id="p3572"
     style="fill:#a9814c;fill-opacity:1;fill-rule:evenodd;stroke:none;display:inline" />
  <path
     d="M 25.009446,41.745326 L 27.339446,37.725327"
     id="p3597"
     style="fill:none;fill-rule:evenodd;stroke:#3a2917;stroke-width:0.30000001;stroke-linecap:round;stroke-linejoin:miter;stroke-miterlimit:4;stroke-dasharray:none;stroke-opacity:0.91000001;display:inline" />
  <path
     d="M 28.099446,36.145327 L 27.289446,36.585327 L 27.099446,38.425326 L 29.129446,38.865327 C 29.329446,38.605326 29.509446,38.385326 29.689446,38.145327 L 28.099446,36.145327 z"
     id="p3575"
     style="fill:#b6903c;fill-opacity:0.9;fill-rule:evenodd;stroke:none;display:inline" />
  <path
     d="M 28.239446,36.445327 L 34.849446,25.965326 C 34.849446,25.965326 40.219446,18.285327 40.839446,17.535327 C 41.459446,16.795326 43.649446,13.425326 43.649446,13.425326"
     id="p3578"
     style="fill:none;fill-rule:evenodd;stroke:#0b0702;stroke-width:0.30000001;stroke-linecap:butt;stroke-linejoin:miter;stroke-miterlimit:4;stroke-dasharray:none;stroke-opacity:0.73000004;display:inline" />
  <path
     d="M 23.889446,41.185327 C 23.249446,41.665326 23.409446,41.985326 23.409446,41.985326"
     id="p3599"
     style="fill:none;fill-rule:evenodd;stroke:#281a0e;stroke-width:1px;stroke-linecap:butt;stroke-linejoin:miter;stroke-opacity:0.87999998;display:inline" />
  <path
     d="M 9.3494462,22.085327 C 9.1194462,22.305326 8.8894462,22.515327 8.6894462,22.705326 L 10.159446,23.115326 L 10.909446,22.425327 L 9.3494462,22.085327 z"
     id="p3608"
     style="fill:#805f2e;fill-opacity:0.37999998;fill-rule:evenodd;stroke:none;display:inline" />
  <path
     d="M 14.789446,16.835327 C 14.569446,17.045326 14.229446,17.375326 13.939446,17.645326 L 15.689446,18.175327 L 16.289446,17.515327 L 14.789446,16.835327 z"
     id="p3610"
     style="fill:#805f2e;fill-opacity:0.31000001;fill-rule:evenodd;stroke:none;display:inline" />
  <path
     d="M 26.319446,7.4853265 C 25.079446,7.6453265 24.109446,7.7953265 23.979446,7.8353265 C 23.799446,7.8753265 21.669446,10.015327 19.509446,12.175326 L 20.479446,12.145326 C 20.479446,12.145326 20.769446,12.765327 20.289446,12.765327 C 19.959446,12.765327 20.459446,12.925326 20.879446,13.055326 L 26.319446,7.4853265 z"
     id="p3612"
     style="fill:#6f5c3e;fill-opacity:0.37000002;fill-rule:evenodd;stroke:none;display:inline" />
  <path
     d="M 38.179446,13.425326 C 33.669446,12.605327 26.459446,12.695327 23.499446,15.235326 C 20.549446,17.775326 21.129446,17.695327 21.129446,17.695327"
     id="p3479"
     style="fill:none;fill-rule:evenodd;stroke:#ae9851;stroke-width:0.2;stroke-linecap:butt;stroke-linejoin:miter;stroke-miterlimit:4;stroke-dasharray:none;stroke-opacity:0.95" />
  <path
     d="M 9.4794462,24.905327 C 10.629446,26.135326 15.469446,26.545326 15.469446,26.545326"
     id="p3481"
     style="fill:none;fill-rule:evenodd;stroke:#ae9851;stroke-width:0.30000001;stroke-linecap:round;stroke-linejoin:miter;stroke-miterlimit:4;stroke-dasharray:none;stroke-opacity:0.95" />
  <path
     d="M 7.9194462,30.405327 C 12.019446,28.025326 20.389446,22.365326 24.409446,21.055326"
     id="p3483"
     style="fill:none;fill-rule:evenodd;stroke:#ae9851;stroke-width:0.30000001;stroke-linecap:round;stroke-linejoin:miter;stroke-miterlimit:4;stroke-dasharray:none;stroke-opacity:0.95" />
  <path
     d="M 21.039446,17.935326 C 26.539446,18.675327 32.769446,15.975327 36.049446,14.335326"
     id="p3485"
     style="fill:none;fill-rule:evenodd;stroke:#ae9851;stroke-width:0.30000001;stroke-linecap:butt;stroke-linejoin:miter;stroke-miterlimit:4;stroke-dasharray:none;stroke-opacity:0.95" />
  <path
     d="M 17.439446,34.415326 C 20.469446,33.185327 25.549446,31.055326 25.549446,31.055326"
     id="p3487"
     style="fill:none;fill-rule:evenodd;stroke:#ae9851;stroke-width:0.40000001;stroke-linecap:butt;stroke-linejoin:miter;stroke-miterlimit:4;stroke-dasharray:none;stroke-opacity:0.95" />
  <path
     d="M 22.029446,14.905327 C 25.959446,15.805326 29.159446,17.035327 30.309446,17.775326 C 31.459446,18.515327 31.869446,19.655327 32.599446,19.335327 C 33.339446,19.005326 33.919446,18.595326 33.919446,18.595326"
     id="p3489"
     style="fill:none;fill-rule:evenodd;stroke:#ae9851;stroke-width:0.2;stroke-linecap:butt;stroke-linejoin:miter;stroke-miterlimit:4;stroke-dasharray:none;stroke-opacity:0.95" />
  <path
     d="M 12.759446,23.435326 L 15.959446,27.775326"
     id="p3491"
     style="fill:none;fill-rule:evenodd;stroke:#ae9851;stroke-width:0.2;stroke-linecap:round;stroke-linejoin:miter;stroke-miterlimit:4;stroke-dasharray:none;stroke-opacity:0.95" />
  <path
     d="M 41.039446,6.0553265 C 40.259446,6.0753265 39.049446,6.1353265 37.729446,6.2353265 C 38.909446,7.0253265 39.399446,7.2753265 39.849446,7.0553265 C 40.439446,6.7553265 41.529446,6.4453265 41.819446,6.7353265 C 42.109446,7.0353265 41.979446,7.8453265 41.539446,7.9853265 C 41.099446,8.1353265 41.079446,8.8853265 40.789446,9.1753265 C 40.489446,9.4653265 39.429446,11.135326 38.909446,11.425326 C 38.399446,11.715326 38.369446,11.725326 38.439446,12.235326 C 38.519446,12.755326 37.079446,14.655326 36.569446,15.455326 C 36.059446,16.265327 31.349446,21.615326 30.689446,23.305326 C 30.029446,24.985326 26.219446,30.345326 25.849446,30.485326 C 25.479446,30.635326 25.059446,32.145327 24.479446,32.585327 C 23.889446,33.025326 21.699446,34.715326 20.819446,34.645327 C 19.939446,34.575327 17.299446,34.855326 16.789446,34.265327 C 16.269446,33.685327 16.269446,33.325327 15.759446,33.175326 C 15.239446,33.025326 14.799446,33.635326 13.849446,33.055326 C 12.899446,32.465326 13.329446,32.145327 12.599446,31.925326 C 11.869446,31.705326 9.8394462,30.835327 9.0394462,30.615326 C 8.2294462,30.395326 6.4694462,29.885326 5.6594462,29.515327 C 4.8594462,29.155327 4.2594462,29.305326 4.2594462,29.305326 L 4.2594462,29.365326 C 8.9894462,31.845326 20.089446,37.605326 21.159446,37.395327 C 22.509446,37.125326 23.039446,36.135326 23.849446,35.145327 C 24.609446,34.205326 40.169446,11.945327 41.909446,9.4553265 C 42.169446,8.9553265 42.939446,7.4353265 42.939446,6.9853265 C 42.939446,6.4553265 42.629446,6.2353265 42.099446,6.0853265 C 41.969446,6.0453265 41.599446,6.0353265 41.039446,6.0553265 z"
     id="p3421"
     style="fill:#b4a172;fill-opacity:0.97000002;fill-rule:evenodd;stroke:none;display:inline" />
  <path
     d="M 30.059446,7.1153265 C 29.819446,10.555326 28.749446,18.025326 28.829446,18.835327 C 28.909446,19.655327 29.079446,20.725327 29.079446,20.725327"
     id="p3493"
     style="fill:none;fill-rule:evenodd;stroke:#ae9851;stroke-width:0.2;stroke-linecap:butt;stroke-linejoin:miter;stroke-miterlimit:4;stroke-dasharray:none;stroke-opacity:0.95" />
  <path
     d="M 37.929446,13.345326 C 36.209446,13.105327 34.159446,13.015327 34.159446,13.015327"
     id="p3495"
     style="fill:none;fill-rule:evenodd;stroke:#b4a464;stroke-width:0.40000001;stroke-linecap:round;stroke-linejoin:miter;stroke-miterlimit:4;stroke-dasharray:none;stroke-opacity:1" />
  <path
     d="M 26.349446,31.675326 C 26.049446,31.915326 25.529446,32.335327 24.849446,32.955326 C 23.909446,33.815326 23.639446,34.505327 21.849446,35.365327 C 18.859446,35.535326 18.189446,36.465326 20.409446,36.555326 C 21.409446,36.585327 22.059446,36.665326 22.599446,36.615327 C 23.039446,36.195327 23.419446,35.665326 23.849446,35.145327 C 24.009446,34.945327 25.109446,33.425326 26.349446,31.675326 z"
     id="p3532"
     style="fill:#533d0f;fill-opacity:0.73000004;fill-rule:evenodd;stroke:none;display:inline" />
  <path
     d="M 33.479446,20.645326 L 31.549446,23.515327 C 31.549446,23.515327 30.909446,23.695327 30.759446,24.055326 C 30.609446,24.405327 25.799446,31.265327 24.889446,32.465326 C 23.979446,33.675326 23.199446,34.635326 21.949446,36.195327 L 22.189446,36.955326 C 22.849446,36.505327 23.289446,35.825327 23.849446,35.145327 C 24.279446,34.615327 29.049446,27.815327 33.789446,21.055326 L 33.479446,20.645326 z"
     id="p3604"
     style="fill:#483211;fill-opacity:0.51000001;fill-rule:evenodd;stroke:none;display:inline" />
  <path
     d="M 23.259446,22.445327 C 23.179446,23.595326 22.679446,25.805326 22.679446,25.805326"
     id="p3510"
     style="fill:none;fill-rule:evenodd;stroke:#a89650;stroke-width:0.2;stroke-linecap:round;stroke-linejoin:miter;stroke-miterlimit:4;stroke-dasharray:none;stroke-opacity:0.87999998" />
  <path
     d="M 27.769446,23.025326 L 30.139446,23.755326"
     id="p3512"
     style="fill:none;fill-rule:evenodd;stroke:#a89650;stroke-width:0.2;stroke-linecap:round;stroke-linejoin:miter;stroke-miterlimit:4;stroke-dasharray:none;stroke-opacity:0.87999998" />
  <path
     d="M 20.879446,35.155327 L 21.779446,31.465326"
     id="p3514"
     style="fill:none;fill-rule:evenodd;stroke:#a89650;stroke-width:0.2;stroke-linecap:round;stroke-linejoin:miter;stroke-miterlimit:4;stroke-dasharray:none;stroke-opacity:0.87999998" />
  <path
     d="M 23.259446,16.055326 L 29.409446,18.345326"
     id="p3516"
     style="fill:none;fill-rule:evenodd;stroke:#a89650;stroke-width:0.2;stroke-linecap:round;stroke-linejoin:miter;stroke-miterlimit:4;stroke-dasharray:none;stroke-opacity:0.87999998" />
  <path
     d="M 24.729446,15.475327 L 19.159446,23.845326"
     id="p3518"
     style="fill:none;fill-rule:evenodd;stroke:#a89650;stroke-width:0.2;stroke-linecap:round;stroke-linejoin:miter;stroke-miterlimit:4;stroke-dasharray:none;stroke-opacity:0.87999998" />
  <path
     d="M 12.929446,30.075326 C 13.909446,28.845326 15.549446,28.025326 15.549446,28.025326"
     id="p3520"
     style="fill:none;fill-rule:evenodd;stroke:#a89650;stroke-width:0.2;stroke-linecap:round;stroke-linejoin:miter;stroke-miterlimit:4;stroke-dasharray:none;stroke-opacity:0.87999998" />
  <path
     d="M 33.339446,8.6753265 L 35.799446,9.8253265"
     id="p3522"
     style="fill:none;fill-rule:evenodd;stroke:#a89650;stroke-width:0.2;stroke-linecap:round;stroke-linejoin:miter;stroke-miterlimit:4;stroke-dasharray:none;stroke-opacity:0.87999998" />
  <path
     d="M 20.479446,28.915326 C 20.149446,29.785327 20.149446,30.385326 20.609446,30.385326 C 21.079446,30.385326 20.549446,29.315327 21.409446,29.315327 C 22.279446,29.315327 21.079446,28.585327 20.479446,28.915326 z"
     id="p3545"
     style="fill:#a0954d;fill-opacity:0.47999998;fill-rule:evenodd;stroke:none" />
  <path
     d="M 22.679446,27.445327 C 23.349446,28.445327 23.819446,29.115326 23.279446,29.385326 C 22.749446,29.645326 25.279446,29.185326 24.419446,28.445327 C 23.549446,27.715326 22.679446,27.515327 22.679446,27.445327 z"
     id="p3547"
     style="fill:#a0954d;fill-opacity:0.47999998;fill-rule:evenodd;stroke:none" />
  <path
     d="M 24.419446,22.775326 C 24.219446,23.975327 24.279446,25.645326 24.679446,25.575326 C 25.079446,25.515327 26.549446,25.845326 25.549446,24.775326 C 24.549446,23.705326 25.079446,22.645326 25.079446,22.645326 L 24.419446,22.775326 z"
     id="p3549"
     style="fill:#a0954d;fill-opacity:0.47999998;fill-rule:evenodd;stroke:none" />
  <path
     d="M 2.6194462,28.475327 C 7.3494462,30.965326 20.089446,37.605326 21.159446,37.395327 C 22.509446,37.125326 23.039446,36.135326 23.849446,35.145327 C 24.609446,34.205326 40.169446,11.945327 41.909446,9.4553265 C 42.169446,8.9553265 42.939446,7.4353265 42.939446,6.9853265 C 42.939446,6.4553265 42.629446,6.2353265 42.099446,6.0853265"
     id="p3524"
     style="fill:none;fill-opacity:0.97000002;fill-rule:evenodd;stroke:#110f07;stroke-width:0.5;stroke-linecap:butt;stroke-linejoin:miter;stroke-miterlimit:4;stroke-dasharray:none;stroke-opacity:0.97000002;display:inline" />
  <path
     d="M 2.5294462,28.455326 C 2.5294462,28.455326 3.4394462,29.965326 3.5194462,30.045326 C 3.5894462,30.125326 4.7294462,30.875326 4.7294462,30.875326 C 4.7294462,30.875326 7.2294462,33.155327 7.5294462,33.385326 C 7.8394462,33.605326 22.239446,41.565326 22.849446,41.875326 C 23.449446,42.175326 24.439446,42.475327 25.119446,42.325327 C 25.799446,42.175326 25.649446,41.875326 25.649446,41.875326 L 26.869446,41.645327 C 26.869446,41.645327 30.809446,36.945327 30.809446,36.485326 C 30.809446,36.035326 30.879446,35.655327 30.879446,35.655327 C 30.879446,35.655327 34.449446,29.815327 34.519446,29.365326 C 34.599446,28.905327 34.369446,28.685326 34.369446,28.685326 L 39.379446,20.945327 L 40.359446,20.185326 C 40.359446,20.185326 43.919446,14.275327 43.919446,13.975326 C 43.919446,13.665326 43.619446,13.515327 43.619446,13.515327 C 43.619446,13.515327 44.299446,12.915326 44.229446,12.605327 C 44.149446,12.305326 43.239446,11.695327 43.239446,11.695327 L 42.639446,11.925326 L 42.329446,11.315326 L 42.939446,10.635326 L 41.729446,9.8053265 C 41.729446,9.8053265 42.939446,7.5253265 42.939446,6.9953265 C 42.939446,6.4653265 42.639446,6.2353265 42.099446,6.0853265 C 41.569446,5.9353265 37.099446,6.2353265 32.479446,6.7753265 C 27.849446,7.3053265 24.289446,7.7553265 23.989446,7.8353265 C 23.679446,7.9053265 17.089446,14.655326 15.799446,15.865326 C 14.509446,17.085327 8.6694462,22.765327 7.3094462,24.055326 C 5.9394462,25.345326 2.6794462,28.145326 2.5294462,28.455326 z"
     id="stroke01"
     style="fill:none;fill-opacity:1;fill-rule:evenodd;stroke:#070402;stroke-width:0.5;stroke-linecap:butt;stroke-linejoin:miter;stroke-miterlimit:4;stroke-dasharray:none;stroke-opacity:1;display:inline" />
</svg>
