<?xml version="1.0" encoding="UTF-8" standalone="no"?>
<!-- Created with Inkscape (http://www.inkscape.org/) -->
<svg
   xmlns:svg="http://www.w3.org/2000/svg"
   xmlns="http://www.w3.org/2000/svg"
   xmlns:xlink="http://www.w3.org/1999/xlink"
   version="1.0"
   width="100%"
   height="100%"
   viewBox="0 0 48 48"
   id="ontology">
  <defs
     id="defs2385">
    <linearGradient
       id="linearGradient3220">
      <stop
         id="stop3222"
         style="stop-color:#f26b6b;stop-opacity:1"
         offset="0" />
      <stop
         id="stop3224"
         style="stop-color:#581717;stop-opacity:1"
         offset="1" />
    </linearGradient>
    <linearGradient
       id="linearGradient3210">
      <stop
         id="stop3212"
         style="stop-color:#7c1313;stop-opacity:1"
         offset="0" />
      <stop
         id="stop3214"
         style="stop-color:#f39898;stop-opacity:1"
         offset="1" />
    </linearGradient>
    <linearGradient
       x1="24"
       y1="48"
       x2="24"
       y2="0"
       id="linearGradient3496"
       xlink:href="#linearGradient3210"
       gradientUnits="userSpaceOnUse" />
    <radialGradient
       cx="24"
       cy="43.228447"
       r="23.5"
       fx="24"
       fy="43.228447"
       id="radialGradient3597"
       xlink:href="#linearGradient3220"
       gradientUnits="userSpaceOnUse"
       gradientTransform="matrix(2.351355,0,0,1.8182318,-32.43252,-35.370889)" />
    <radialGradient
       cx="23.999998"
       cy="28.612509"
       r="23.5"
       fx="23.999998"
       fy="28.612509"
       id="radialGradient5040"
       xlink:href="#linearGradient5044"
       gradientUnits="userSpaceOnUse"
       gradientTransform="matrix(1.5870545,4.6792776e-8,-4.7351043e-8,1.605989,-22.68007,-33.349655)" />
    <linearGradient
       id="linearGradient5044">
      <stop
         id="stop5046"
         style="stop-color:#c5fbed;stop-opacity:1"
         offset="0" />
      <stop
         id="stop5048"
         style="stop-color:#6feee1;stop-opacity:0"
         offset="1" />
    </linearGradient>
    <radialGradient
       cx="24"
       cy="43.228447"
       r="23.5"
       fx="24"
       fy="43.228447"
       id="radialGradient3655"
       xlink:href="#linearGradient3220"
       gradientUnits="userSpaceOnUse"
       gradientTransform="matrix(2.351355,0,0,1.8182318,-32.43252,-35.370889)" />
    <linearGradient
       x1="24"
       y1="48"
       x2="24"
       y2="0"
       id="linearGradient3657"
       xlink:href="#linearGradient3210"
       gradientUnits="userSpaceOnUse" />
  </defs>
  <path
     d="M 9.625,0.5 C 4.5670164,0.5 0.5,4.5670164 0.5,9.625 L 0.5,38.375 C 0.5,43.432984 4.5670164,47.5 9.625,47.5 L 38.375,47.5 C 43.432984,47.5 47.5,43.432986 47.5,38.375 L 47.5,9.625 C 47.5,4.5670164 43.432986,0.5 38.375,0.5 L 9.625,0.5 z"
     id="rect3218"
     style="fill:url(#radialGradient3597);fill-opacity:1;fill-rule:nonzero;stroke:none;stroke-width:1;stroke-linecap:butt;stroke-linejoin:round;marker:none;stroke-miterlimit:4;stroke-dasharray:none;stroke-dashoffset:0;stroke-opacity:1;visibility:visible;display:inline;overflow:visible;enable-background:accumulate" />
  <path
     d="M 7.4375,4.4375 C 5.4259807,4.4375 3.8124999,6.0509806 3.8125,8.0625 L 3.8125,29.21875 C 3.8125,31.230269 5.4259807,32.874999 7.4375,32.875 L 13.4375,32.875 L 13.0625,34.6875 C 12.650708,36.64913 13.91337,38.588209 15.875,39 L 36.5,43.3125 C 38.46163,43.724292 40.400707,42.49288 40.8125,40.53125 L 45.125,19.875 C 45.536792,17.91337 44.305379,16.005542 42.34375,15.59375 L 32.25,13.46875 L 32.25,8.0625 C 32.25,6.0509807 30.636519,4.4375 28.625,4.4375 L 7.4375,4.4375 z"
     id="rect2809"
     style="opacity:1;fill:none;fill-opacity:1;fill-rule:nonzero;stroke:#e5e5e5;stroke-width:2.5;stroke-linecap:butt;stroke-linejoin:round;marker:none;marker-start:none;marker-mid:none;marker-end:none;stroke-miterlimit:4;stroke-dasharray:none;stroke-dashoffset:0;stroke-opacity:0.45;visibility:visible;display:inline;overflow:visible;enable-background:accumulate" />
  <path
     d="M 9.625,0.5 C 4.5670164,0.5 0.5,4.5670164 0.5,9.625 L 0.5,18.78125 C 6.9980288,21.8908 15.151882,23.75 24,23.75 C 32.848118,23.75 41.001971,21.8908 47.5,18.78125 L 47.5,9.625 C 47.5,4.5670164 43.432986,0.5 38.375,0.5 L 9.625,0.5 z"
     id="path3228"
     style="fill:#edbaba;fill-opacity:0.36818183;fill-rule:evenodd;stroke:none;stroke-width:1;stroke-linecap:round;stroke-linejoin:round;marker:none;marker-start:none;marker-mid:none;marker-end:none;stroke-miterlimit:4;stroke-dasharray:none;stroke-dashoffset:0;stroke-opacity:1;visibility:visible;display:inline;overflow:visible;enable-background:accumulate" />
  <rect
     width="47"
     height="47"
     ry="9.1299343"
     x="0.5"
     y="0.5"
     id="r2393"
     style="fill:none;fill-opacity:1;fill-rule:nonzero;stroke:url(#linearGradient3496);stroke-width:1;stroke-linecap:butt;stroke-linejoin:round;marker:none;stroke-miterlimit:4;stroke-dasharray:none;stroke-dashoffset:0;stroke-opacity:1;visibility:visible;display:inline;overflow:visible;enable-background:accumulate" />
  <g
     transform="matrix(0.6051502,0,0,0.6051502,3.5021459,4.1201716)"
     id="g2504">
    <path
       d="M 6.5,0.5 C 3.176,0.5 0.5,3.176 0.5,6.5 L 0.5,41.5 C 0.5,44.824 3.176,47.5 6.5,47.5 L 41.5,47.5 C 44.824,47.5 47.5,44.824 47.5,41.5 L 47.5,6.5 C 47.5,3.176 44.824,0.5 41.5,0.5 L 6.5,0.5 z"
       id="r3173"
       style="fill:#edd322;fill-opacity:1;fill-rule:evenodd;stroke:none;marker:none;visibility:visible;display:inline;overflow:visible;enable-background:accumulate" />
    <path
       d="M 6.5,0.5 C 4.6864647,0.5 3.0671555,1.2987428 1.96875,2.5625 C 2.0726946,8.0994474 2.1851043,13.146964 2.125,13.25 C 2.102087,13.272913 1.279518,13.613176 0.5,13.9375 L 0.5,30.6875 C 1.7228909,31.067948 2.8813961,31.435611 2.90625,31.46875 C 3.0015912,31.592694 3.5112202,39.667069 4,46.96875 C 4.7584537,47.31383 5.6095588,47.5 6.5,47.5 L 12.5625,47.5 C 16.421678,41.98203 20.311577,36.423432 20.4375,36.375 C 20.6875,36.285001 46.38125,42.97 46.53125,42.75 C 46.671251,42.52 30.54125,21.4575 30.53125,21.1875 C 30.521607,20.975361 39.825019,6.3914034 43.25,0.78125 C 42.694165,0.61219817 42.112535,0.5 41.5,0.5 L 38,0.5 C 30.540089,3.0400781 19.397871,6.9533872 19.21875,6.90625 C 19.133368,6.877789 16.642672,3.9292178 13.78125,0.5 L 6.5,0.5 z"
       id="p3223"
       style="fill:#e6da39;fill-opacity:1;fill-rule:evenodd;stroke:none;marker:none;visibility:visible;display:inline;overflow:visible;enable-background:accumulate" />
    <path
       d="M 39.5625,0.5 C 39.348177,1.8787329 39.110881,3.4743037 39.09375,3.5 C 39.02375,3.57 28.9575,5.61875 28.9375,5.71875 C 28.9275,5.82875 38.1375,10.4 38.1875,10.5 C 38.2375,10.59 37.06625,20.835 37.15625,20.875 C 37.256248,20.914999 44.4625,13.55125 44.5625,13.53125 C 44.588148,13.5227 46.124005,14.224222 47.5,14.84375 L 47.5,6.5 C 47.5,3.176 44.824,0.5 41.5,0.5 L 39.5625,0.5 z M 8.34375,0.625 C 8.3172941,0.5787023 5.9128753,0.92946779 3.46875,1.3125 C 1.6881307,2.3508987 0.5,4.2818692 0.5,6.5 L 0.5,15.28125 C 3.1702684,16.472026 6.0780475,17.765702 6.125,17.71875 C 6.1950001,17.648751 1.4275,8.50625 1.4375,8.40625 C 1.4575001,8.3062504 8.39375,0.715 8.34375,0.625 z M 14.625,4.3125 C 14.585,4.3125001 13.28,7.69875 13.25,7.71875 C 13.21,7.73875 9.60375,7.6575 9.59375,7.6875 C 9.5837498,7.7275002 12.365,10.0225 12.375,10.0625 C 12.385,10.0925 11.19875,13.50125 11.21875,13.53125 C 11.24875,13.55125 14.30375,11.59375 14.34375,11.59375 C 14.38375,11.59375 17.25125,13.77 17.28125,13.75 C 17.311249,13.72 16.39625,10.25875 16.40625,10.21875 C 16.41625,10.18875 19.385,8.12375 19.375,8.09375 C 19.364999,8.0537498 15.74875,7.8325 15.71875,7.8125 C 15.69875,7.7825001 14.665,4.3125 14.625,4.3125 z M 27.1875,13.8125 C 27.1375,13.7925 24.32125,18.01125 24.28125,18.03125 C 24.231249,18.041249 19.27,16.835 19.25,16.875 C 19.22,16.914999 22.375,20.91875 22.375,20.96875 C 22.374999,21.028751 19.68875,25.335 19.71875,25.375 C 19.758751,25.414999 24.54375,23.6775 24.59375,23.6875 C 24.64375,23.7075 27.92875,27.5825 27.96875,27.5625 C 28.018751,27.542501 27.81375,22.44625 27.84375,22.40625 C 27.87375,22.36625 32.5625,20.45625 32.5625,20.40625 C 32.552499,20.35625 27.68625,18.9775 27.65625,18.9375 C 27.62625,18.8975 27.2375,13.8225 27.1875,13.8125 z M 12.21875,22.53125 C 12.13875,22.521249 9.06,29.98125 9,30.03125 C 8.93,30.071249 0.87375,29.70125 0.84375,29.78125 C 0.81375003,29.851249 6.94875,35.1075 6.96875,35.1875 C 6.98875,35.2675 4.18,42.825 4.25,42.875 C 4.31,42.925001 11.16,38.6875 11.25,38.6875 C 11.33,38.6975 17.64875,43.7375 17.71875,43.6875 C 17.788751,43.6475 15.87625,35.79875 15.90625,35.71875 C 15.93625,35.648751 22.67625,31.17375 22.65625,31.09375 C 22.63625,31.01375 14.59125,30.39375 14.53125,30.34375 C 14.46125,30.29375 12.30875,22.53125 12.21875,22.53125 z M 39.6875,25.3125 C 39.6375,25.312501 37.79,29.9175 37.75,29.9375 C 37.7,29.9675 32.76,29.79375 32.75,29.84375 C 32.73,29.89375 36.5425,33.04375 36.5625,33.09375 C 36.572499,33.14375 34.8975,37.81375 34.9375,37.84375 C 34.9775,37.87375 39.16875,35.21875 39.21875,35.21875 C 39.268751,35.228751 43.17875,38.27 43.21875,38.25 C 43.268751,38.22 42.0425,33.425 42.0625,33.375 C 42.082499,33.325001 46.16625,30.54 46.15625,30.5 C 46.146248,30.45 41.19625,30.12375 41.15625,30.09375 C 41.116248,30.06375 39.7375,25.3125 39.6875,25.3125 z M 40.78125,41.1875 C 40.715104,41.206399 40.212234,44.5503 39.75,47.5 L 41.5,47.5 C 42.439877,47.5 43.334584,47.288299 44.125,46.90625 C 42.674375,44.395233 40.842371,41.178768 40.78125,41.1875 z"
       id="p3198"
       style="fill:#efc731;fill-opacity:1;fill-rule:evenodd;stroke:none;marker:none;visibility:visible;display:inline;overflow:visible;enable-background:accumulate" />
    <rect
       width="47"
       height="47"
       ry="6"
       x="0.5"
       y="0.5"
       id="rect2526"
       style="fill:none;fill-opacity:1;fill-rule:evenodd;stroke:#b16537;marker:none;stroke-opacity:1;visibility:visible;display:inline;overflow:visible;enable-background:accumulate" />
    <rect
       width="41.566242"
       height="41.566242"
       ry="5.3063288"
       x="3.2168791"
       y="3.2168791"
       id="rect3346"
       style="fill:none;fill-opacity:1;fill-rule:evenodd;stroke:#ffe341;stroke-width:1;stroke-linecap:round;marker:none;stroke-miterlimit:4;stroke-dasharray:none;stroke-dashoffset:0;stroke-opacity:1;visibility:visible;display:inline;overflow:visible;enable-background:accumulate" />
  </g>
  <g
     transform="matrix(0.9786685,0.2054457,-0.2054457,0.9786685,6.6620241,-4.4627304)"
     id="g2775">
    <g
       transform="matrix(0.6030043,0,0,0.6030043,14.008584,11.9897)"
       id="g2570">
      <path
         d="M 6.5,0.5 C 3.176,0.5 0.5,3.176 0.5,6.5 L 0.5,41.5 C 0.5,44.824 3.176,47.5 6.5,47.5 L 41.5,47.5 C 44.824,47.5 47.5,44.824 47.5,41.5 L 47.5,6.5 C 47.5,3.176 44.824,0.5 41.5,0.5 L 6.5,0.5 z"
         id="path2572"
         style="fill:#faf1b8;fill-opacity:1;fill-rule:evenodd;stroke:none;marker:none;visibility:visible;display:inline;overflow:visible;enable-background:accumulate" />
      <path
         d="M 40.532156,0.5 C 42.345691,0.5 43.965001,1.2987428 45.063406,2.5625 C 44.959462,8.0994474 44.847052,13.146964 44.907156,13.25 C 44.930069,13.272913 45.752638,13.613176 46.532156,13.9375 L 46.532156,30.6875 C 45.309265,31.067948 44.15076,31.435611 44.125906,31.46875 C 44.030565,31.592694 43.520936,39.667069 43.032156,46.96875 C 42.273702,47.31383 41.422597,47.5 40.532156,47.5 L 34.469656,47.5 C 30.610478,41.98203 26.720579,36.423432 26.594656,36.375 C 26.344656,36.285001 0.65090611,42.97 0.50090611,42.75 C 0.36090511,42.52 16.490906,21.4575 16.500906,21.1875 C 16.510549,20.975361 7.2071371,6.3914034 3.7821561,0.78125 C 4.3379911,0.61219817 4.9196211,0.5 5.5321561,0.5 L 9.0321561,0.5 C 16.492067,3.0400781 27.634285,6.9533872 27.813406,6.90625 C 27.898788,6.877789 30.389484,3.9292178 33.250906,0.5 L 40.532156,0.5 z"
         id="path2574"
         style="fill:#f2eb92;fill-opacity:1;fill-rule:evenodd;stroke:none;marker:none;visibility:visible;display:inline;overflow:visible;enable-background:accumulate" />
      <rect
         width="47"
         height="47"
         ry="6"
         x="0.5"
         y="0.5"
         id="rect2576"
         style="fill:none;fill-opacity:1;fill-rule:evenodd;stroke:#b16537;marker:none;stroke-opacity:1;visibility:visible;display:inline;overflow:visible;enable-background:accumulate" />
    </g>
    <g
       transform="matrix(0.5027627,0.1420927,-0.1420927,0.5027627,19.162118,10.380685)"
       id="content"
       style="opacity:1;display:inline">
      <path
         d="M 20.53,27.68 C 18.25,27.55 16.48,29.39 16.03,29.65 C 15.47,29.97 9.48,31.51 11,37.96 C 13.07,42.03 16.18,43.61 18.5,43.37 C 20.81,43.13 26.16,40.89 26.71,36.9 C 26.76,36.56 26.78,36.26 26.81,35.93 C 27.47,38.18 29.32,41.74 31.81,42.75 C 35.03,44.05 39.12,42.19 40.56,39.56 C 41.99,36.93 41.54,32.54 37.87,29.28 C 36.83,28.56 35.57,27.07 30.78,28.21 C 28.43,28.77 27.15,31.23 26.71,33.12 C 26.3,31.15 25.02,29.59 22.15,28.15 C 21.58,27.87 21.05,27.71 20.53,27.68 z"
         id="p2464"
         style="fill:#cf0e11;fill-opacity:1;fill-rule:evenodd;stroke:none" />
      <path
         d="M 38.28,29.68 C 40.21,32.86 41.49,35.73 38.15,37.43 C 33.61,39.74 29.09,36.95 28.53,36.46 C 27.82,35.81 26.61,34.13 26.43,33.87 C 25.94,35.2 24.25,36.6 21.59,37.71 C 18.93,38.83 14.51,37.85 13.21,37.03 C 12.44,36.54 11.74,35.76 11.62,32.84 C 10.86,34.05 10.46,35.7 11,37.96 C 13.07,42.03 16.18,43.61 18.5,43.37 C 20.53,43.16 24.93,41.4 26.34,38.28 C 26.69,37.54 26.72,36.73 26.81,35.93 C 27.68,38.79 29.25,41.17 31.81,42.75 C 35.03,44.05 39.12,42.19 40.56,39.56 C 41.94,37.03 41.56,32.9 38.28,29.68 z"
         id="p3243"
         style="fill:#ba6668;fill-opacity:0.45;fill-rule:evenodd;stroke:none" />
      <path
         d="M 11.03,34.12 C 10.7,35.16 10.63,36.41 11,37.96 C 13.07,42.03 16.18,43.61 18.5,43.37 C 19.61,43.25 21.44,42.67 23.09,41.65 C 21.67,41.93 19.82,42.27 18.56,42.37 C 16.8,42.52 13.35,40.11 12.4,38.87 C 11.63,37.87 11.32,35.99 11.03,34.12 z"
         id="p3258"
         style="fill:#d8b9ba;fill-opacity:0.45;fill-rule:evenodd;stroke:none" />
      <path
         d="M 26.93,35.37 C 26.8,35.37 26.78,35.74 26.78,36.25 C 26.78,36.14 26.8,36.04 26.81,35.93 C 27.47,38.18 29.32,41.74 31.81,42.75 C 33.69,43.51 35.85,43.19 37.62,42.28 C 36.77,42.3 35.76,42.2 34.83,42.16 C 32.86,42.09 30.03,40.33 29.22,39.31 C 28.42,38.28 27.3,35.37 26.93,35.37 z"
         id="p3263"
         style="fill:#d8b9ba;fill-opacity:0.45;fill-rule:evenodd;stroke:none" />
      <path
         d="M 17.52,35.51 C 17.38,36.67 19.06,38.04 19.42,38.06 C 20.62,38.13 22.02,38.02 23.51,36.67 C 24.16,36.08 25.41,34.78 25.63,34.26 C 25.85,33.75 23.95,32.95 23.95,32.95 C 23.95,32.95 22.34,34.56 21.61,34.78 C 20.88,34.99 17.74,35.21 17.52,35.51 z"
         id="p3280"
         style="fill:#d8b9ba;fill-opacity:0.45;fill-rule:evenodd;stroke:none" />
      <path
         d="M 34.47,35.43 C 34.1,36.09 35.05,38.33 35.41,38.33 C 35.78,38.33 38.17,38.08 39.52,36.22 C 40.27,35.19 38.78,33.75 38.27,33.68 C 37.76,33.61 35.42,35.36 34.47,35.43 z"
         id="p3282"
         style="fill:#d8b9ba;fill-opacity:0.45;fill-rule:evenodd;stroke:none" />
      <path
         d="M 21.25,33.31 C 19.5,34.41 18.84,33.61 18.84,33.61 L 19.35,33.24 C 19.35,33.24 20.01,33.68 20.45,33.24 C 20.88,32.8 20.88,31.56 20.88,31.56 L 21.54,31.56 C 21.54,31.56 21.91,32.66 21.25,33.31 z"
         id="p3284"
         style="fill:#f2dbdb;fill-opacity:0.81000001;fill-rule:evenodd;stroke:none" />
      <path
         d="M 28.92,33.75 C 28.92,33.75 29.87,34.56 29.94,35.21 C 30.01,35.87 30.09,34.04 30.96,33.97 C 31.84,33.9 33.15,34.04 33.23,33.68 C 33.3,33.31 30.89,33.17 30.89,33.17 L 31.11,32.51 C 31.11,32.51 29.36,32.95 28.92,33.75 z"
         id="p3286"
         style="fill:#efddde;fill-opacity:0.76000001;fill-rule:evenodd;stroke:none" />
      <path
         d="M 20.53,27.68 C 18.25,27.55 16.48,29.39 16.03,29.65 C 15.75,29.81 14.17,30.25 12.81,31.43 C 12.8,31.44 12.81,31.45 12.81,31.46 C 12.79,31.48 12.76,31.48 12.75,31.5 C 12.64,31.67 12.58,31.83 12.5,31.93 C 11.72,32.9 12.56,34.93 12.56,34.93 C 12.62,33.12 13.97,31.99 14.81,32.06 C 15.65,32.12 17.46,33.49 17.46,33.5 L 18.12,33.56 C 18.12,33.56 17.8,33.24 17.09,32.59 C 16.38,31.94 16.64,30.76 16.84,30.37 C 17.03,29.98 19.93,28.06 21.87,28.96 C 23.81,29.87 25.12,32.59 25.12,32.59 C 25.12,32.59 25.43,32.07 25.43,31.62 C 25.43,31.34 24.88,30.34 24.37,29.53 C 23.76,29.05 23.04,28.6 22.15,28.15 C 21.58,27.87 21.05,27.71 20.53,27.68 z"
         id="p3288"
         style="fill:#e8cecf;fill-opacity:0.82999998;fill-rule:evenodd;stroke:none" />
      <path
         d="M 30.88,30.97 C 30.88,30.97 32.43,30.97 32.88,30.9 C 33.34,30.84 33.98,30 33.98,30 C 33.98,30 32.3,29.28 30.88,30.97 z"
         id="p3293"
         style="fill:#e8cecf;fill-opacity:0.66000001;fill-rule:evenodd;stroke:none" />
      <path
         d="M 33.78,27.81 C 32.97,27.82 31.98,27.93 30.78,28.21 C 29.65,28.48 28.78,29.22 28.12,30.09 C 28.06,30.7 28.03,31.16 28.03,31.28 C 28.03,31.66 28.62,31.75 28.62,31.75 C 29.91,28.77 32.56,27.93 35.21,28.9 C 37.87,29.87 36.83,30.77 36.25,30.84 C 35.66,30.9 34.9,31.43 34.9,31.43 C 34.9,31.43 35.47,31.41 35.28,32.12 C 35.08,32.83 34.12,33.09 34.12,33.09 C 34.12,33.09 33.93,33.5 34.9,33.25 C 35.87,32.99 36.45,31.93 37.81,32 C 39.17,32.06 40.21,34.46 40.21,34.46 C 40.21,34.46 40.47,34.04 40.75,33.37 C 40.21,31.95 39.28,30.53 37.87,29.28 C 37.09,28.74 36.2,27.78 33.78,27.81 z"
         id="p3295"
         style="fill:#f9eaea;fill-opacity:0.75;fill-rule:evenodd;stroke:none" />
      <path
         d="M 27.9,30.37 C 27.31,31.25 26.92,32.24 26.71,33.12 C 26.53,32.25 26.18,31.45 25.59,30.71 C 25.68,31.97 25.66,33.04 25.37,33.84 C 24.93,35.04 23.99,36.32 24.5,37.71 C 24.72,38.32 25.19,38.89 25.68,39.34 C 26.21,38.62 26.59,37.8 26.71,36.9 C 26.76,36.56 26.78,36.26 26.81,35.93 C 26.92,36.32 27.09,36.77 27.28,37.21 C 27.47,36.84 27.73,36.54 27.78,36.71 C 27.84,36.97 28.48,39.06 29.18,38.87 C 29.88,38.68 30.31,36.57 30.06,35.56 C 29.8,34.54 28.43,32.38 28.43,31.87 C 28.43,31.5 27.96,31.4 27.9,30.37 z"
         id="p3300"
         style="fill:#bb0a0d;fill-opacity:0.7;fill-rule:evenodd;stroke:none" />
      <path
         d="M 14.21,34.15 C 12.96,34.14 11.75,34.57 10.78,35.43 C 10.71,36.18 10.77,37.01 11,37.96 C 13.07,42.03 16.18,43.61 18.5,43.37 C 18.73,43.35 19.02,43.28 19.31,43.21 C 20.67,41.19 20.5,38.31 18.68,36.25 C 17.49,34.89 15.82,34.16 14.21,34.15 z"
         id="p3308"
         style="opacity:1;fill:#710608;fill-opacity:0.2;fill-rule:evenodd;stroke:none;marker:none;visibility:visible;display:inline;overflow:visible;enable-background:accumulate" />
      <path
         d="M 34.15,33.09 L 34.57,33.43 C 34.57,33.43 36.99,32.53 36.92,31.42 C 36.85,30.31 35.12,31.35 35.12,31.35 C 35.12,31.35 36.16,32.18 34.15,33.09 z"
         id="p3313"
         style="fill:#f9f6f6;fill-opacity:0.72000002;fill-rule:evenodd;stroke:none" />
      <path
         d="M 18.15,33.66 C 17.73,34.08 15.18,32.04 15.18,32.04 L 16.79,30.86 C 16.79,30.86 16.45,32.55 18.15,33.66 z"
         id="p3315"
         style="fill:#f9f6f6;fill-opacity:0.72000002;fill-rule:evenodd;stroke:none" />
      <path
         d="M 20.53,27.68 C 18.25,27.55 16.48,29.39 16.03,29.65 C 15.93,29.71 15.53,29.88 15.18,30.03 C 17.55,29.57 18.85,28.71 19.49,28.71 C 20.25,28.71 22.82,29.4 23.5,30 C 23.85,30.31 24.52,30.3 24.96,30.06 C 24.27,29.39 23.36,28.75 22.15,28.15 C 21.58,27.87 21.05,27.71 20.53,27.68 z"
         id="p3317"
         style="fill:#f9f6f6;fill-opacity:0.72000002;fill-rule:evenodd;stroke:none" />
      <path
         d="M 20.53,27.68 C 18.25,27.55 16.48,29.39 16.03,29.65 C 15.47,29.97 9.48,31.51 11,37.96 C 13.07,42.03 16.18,43.61 18.5,43.37 C 20.81,43.13 26.16,40.89 26.71,36.9 C 26.76,36.56 26.78,36.26 26.81,35.93 C 27.47,38.18 29.32,41.74 31.81,42.75 C 35.03,44.05 39.12,42.19 40.56,39.56 C 41.99,36.93 41.54,32.54 37.87,29.28 C 36.83,28.56 35.57,27.07 30.78,28.21 C 28.43,28.77 27.15,31.23 26.71,33.12 C 26.3,31.15 25.02,29.59 22.15,28.15 C 21.58,27.87 21.05,27.71 20.53,27.68 z"
         id="stroke01"
         style="fill:none;fill-opacity:1;fill-rule:evenodd;stroke:#720101;stroke-width:0.5;stroke-linecap:butt;stroke-linejoin:miter;stroke-miterlimit:4;stroke-dasharray:none;stroke-opacity:1" />
      <path
         d="M 17.25,31.87 C 17.25,32.76 19.89,33.29 20.21,32.76 C 20.61,32.11 19.93,31.3 19.93,31.3 C 19.93,31.3 19.97,24.01 20.7,21.25 C 21.43,18.5 23.27,14.6 24.26,12.34 C 24.57,11.65 25.24,10.8 25.24,10.8 C 25.24,10.8 28.11,16.23 28.52,17.2 C 28.92,18.18 31.19,24.9 31.68,27.09 C 32.16,29.28 32.49,30.98 32.41,31.47 C 32.33,31.95 31.51,31.79 31.6,32.44 C 31.68,33.09 33.71,33.49 34.67,32.28 C 34.99,31.88 34.11,31.55 33.78,31.06 C 33.46,30.57 31.51,22.47 30.7,20.2 C 29.89,17.93 26.57,11.05 26.57,10.64 C 26.57,10.24 26.17,9.75 26.17,9.75 C 26.17,9.75 26.41,9.75 26.49,9.18 C 26.57,8.62 26.33,7.4 26.65,6.99 C 26.98,6.59 26.9,5.54 26.65,5.21 C 26.41,4.89 25.84,4.48 25.52,4.56 C 25.19,4.65 24.47,5.62 24.47,5.94 C 24.47,6.27 24.63,7.64 24.3,7.97 C 23.98,8.29 24.3,9.26 24.3,9.26 C 24.3,9.26 23.9,10.24 23.57,10.97 C 23.25,11.69 20.62,17.89 19.97,20.62 C 19.62,22.05 18.94,27.83 18.71,29.36 C 18.35,31.84 17.54,30.73 17.25,31.87 z"
         id="p3323"
         style="fill:#90a832;fill-opacity:1;fill-rule:evenodd;stroke:none" />
      <path
         d="M 19,27.37 C 18.91,28.06 18.77,29.02 18.71,29.37 C 18.61,30.09 18.46,30.49 18.31,30.75 C 18.37,31.38 18.08,32.1 17.87,32.56 C 18.07,32.66 18.31,32.74 18.56,32.81 C 18.79,32.26 19.39,32.12 19.81,32.09 C 19.99,32.08 20.08,31.85 20.12,31.59 C 20.02,31.42 19.93,31.31 19.93,31.31 C 19.93,31.31 19.93,30.88 19.93,30.59 C 19.72,30.59 19.24,30.83 19,30.65 C 18.79,30.5 18.9,29.8 19,27.37 z"
         id="p3329"
         style="fill:#315923;fill-opacity:0.73999999;fill-rule:evenodd;stroke:none" />
      <path
         d="M 31.5,26.4 C 31.55,26.61 31.65,26.93 31.68,27.09 C 32.17,29.28 32.48,30.98 32.4,31.46 C 32.38,31.62 32.27,31.71 32.15,31.78 C 32.14,32.12 32.12,32.58 32.12,32.68 C 32.12,32.75 32.09,32.83 32.06,32.9 C 32.33,33.02 32.71,33.05 33.09,33.03 C 33.16,32.57 33.16,31.96 33,31.06 C 32.59,28.84 32.09,27.56 31.5,26.4 z"
         id="p3334"
         style="fill:#315923;fill-opacity:0.76000001;fill-rule:evenodd;stroke:none" />
      <path
         d="M 24.46,6.25 C 24.49,6.75 24.58,7.69 24.31,7.96 C 23.98,8.29 24.31,9.28 24.31,9.28 C 24.31,9.28 23.91,10.23 23.59,10.96 C 23.35,11.5 21.84,14.95 20.81,17.84 C 20.81,17.85 20.8,17.86 20.81,17.87 C 20.97,18.43 21.18,18.77 21.46,19 C 22.33,16.64 23.53,14.02 24.28,12.34 C 24.58,11.65 25.25,10.81 25.25,10.81 C 25.25,10.81 28.12,16.24 28.53,17.21 C 28.54,17.24 28.57,17.36 28.59,17.4 C 28.6,17.42 28.61,17.42 28.62,17.43 C 29.56,18.94 30.48,20.66 31.21,21.81 C 31.04,21.22 30.84,20.57 30.71,20.21 C 29.9,17.94 26.56,11.06 26.56,10.65 C 26.56,10.25 26.18,9.75 26.18,9.75 C 26.18,9.75 26.41,9.75 26.5,9.18 C 26.58,8.62 26.33,7.4 26.65,7 C 26.69,6.94 26.72,6.88 26.75,6.81 C 26.24,6.61 25.47,6.43 24.46,6.25 z"
         id="p3358"
         style="fill:#ffec43;fill-opacity:0.51999996;fill-rule:evenodd;stroke:none" />
      <path
         d="M 24.23,9.51 C 24.23,9.51 24.83,10.62 25.15,10.69 C 25.47,10.75 26.39,10.18 26.39,10.18"
         id="p3339"
         style="fill:none;fill-rule:evenodd;stroke:#4c2407;stroke-width:0.40000001;stroke-linecap:butt;stroke-linejoin:miter;stroke-miterlimit:4;stroke-dasharray:none;stroke-opacity:0.81999972" />
      <path
         d="M 24.33,9.36 C 24.33,9.36 24.99,9.36 25.5,9.36 C 26.01,9.36 26.39,9.45 26.39,9.45"
         id="p3341"
         style="fill:none;fill-rule:evenodd;stroke:#592209;stroke-width:0.40000001;stroke-linecap:butt;stroke-linejoin:miter;stroke-miterlimit:4;stroke-dasharray:none;stroke-opacity:0.83999999" />
      <path
         d="M 25.53,4.56 C 25.2,4.64 24.46,5.61 24.46,5.93 C 24.46,6.26 24.63,7.64 24.31,7.96 C 24.2,8.07 24.15,8.25 24.15,8.43 C 24.52,8.46 24.82,8.43 24.96,8.56 C 25.21,8.77 25.86,9.03 26.5,9.03 C 26.53,8.42 26.35,7.37 26.65,7 C 26.98,6.59 26.89,5.54 26.65,5.21 C 26.41,4.89 25.85,4.48 25.53,4.56 z"
         id="p3343"
         style="fill:#453d2e;fill-opacity:0.73999999;fill-rule:evenodd;stroke:none" />
      <path
         d="M 26.31,4.87 C 25.9,5.44 25.59,5.97 25.56,6.34 C 25.5,6.89 25.68,8.31 25.68,8.31 L 26.5,8.46 C 26.47,7.9 26.43,7.27 26.65,7 C 26.98,6.59 26.89,5.54 26.65,5.21 C 26.57,5.1 26.45,4.98 26.31,4.87 z"
         id="p3353"
         style="fill:#d2b02b;fill-opacity:0.76999996;fill-rule:evenodd;stroke:none" />
      <path
         d="M 25.53,4.56 C 25.2,4.64 24.46,5.61 24.46,5.93 C 24.46,5.99 24.46,6.19 24.46,6.31 C 24.57,6.34 24.69,6.37 24.87,6.37 C 25.5,6.37 26.4,6.42 26.87,6.09 C 26.86,5.73 26.77,5.38 26.65,5.21 C 26.41,4.89 25.85,4.48 25.53,4.56 z"
         id="p3348"
         style="fill:#fffcf5;fill-opacity:0.41999996;fill-rule:evenodd;stroke:none" />
      <path
         d="M 34.67,32.28 C 34.99,31.88 34.11,31.55 33.78,31.06 C 33.46,30.57 31.51,22.47 30.7,20.2 C 29.89,17.93 26.57,11.05 26.57,10.64 C 26.57,10.24 26.17,9.75 26.17,9.75 C 26.17,9.75 26.41,9.75 26.49,9.18 C 26.57,8.62 26.33,7.4 26.65,6.99 C 26.98,6.59 26.9,5.54 26.65,5.21 C 26.41,4.89 25.84,4.48 25.52,4.56 C 25.19,4.65 24.47,5.62 24.47,5.94 C 24.47,6.27 24.63,7.64 24.3,7.97 C 23.98,8.29 24.3,9.26 24.3,9.26 C 24.3,9.26 23.9,10.24 23.57,10.97 C 23.25,11.69 20.62,17.89 19.97,20.62 C 19.62,22.05 18.94,27.83 18.71,29.36 C 18.35,31.84 17.54,30.73 17.25,31.87 M 20.21,32.76 C 20.61,32.11 19.93,31.3 19.93,31.3 C 19.93,31.3 19.97,24.01 20.7,21.25 C 21.43,18.5 23.27,14.6 24.26,12.34 C 24.57,11.65 25.24,10.8 25.24,10.8 C 25.24,10.8 28.11,16.23 28.52,17.2 C 28.92,18.18 31.19,24.9 31.68,27.09 C 32.16,29.28 32.49,30.98 32.41,31.47 C 32.33,31.95 31.51,31.79 31.6,32.44"
         id="stroke02"
         style="opacity:1;fill:none;fill-opacity:1;fill-rule:evenodd;stroke:#081705;stroke-width:0.40000001;stroke-linecap:round;stroke-linejoin:miter;stroke-miterlimit:4;stroke-dasharray:none;stroke-opacity:1;display:inline" />
    </g>
  </g>
</svg>
