<?xml version="1.0" encoding="UTF-8" standalone="no"?>
<!-- Created with Inkscape (http://www.inkscape.org/) -->
<svg
   xmlns:svg="http://www.w3.org/2000/svg"
   xmlns="http://www.w3.org/2000/svg"
   xmlns:xlink="http://www.w3.org/1999/xlink"
   version="1.0"
   width="100%"
   height="100%"
   viewBox="0 0 48 48"
   id="ontology">
  <defs
     id="defs2385">
    <linearGradient
       id="linearGradient3221">
      <stop
         id="stop3223"
         style="stop-color:#132846;stop-opacity:1"
         offset="0" />
      <stop
         id="stop3225"
         style="stop-color:#4172c7;stop-opacity:1"
         offset="1" />
    </linearGradient>
    <linearGradient
       id="linearGradient3929">
      <stop
         id="stop3931"
         style="stop-color:#e38c64;stop-opacity:0.61403507"
         offset="0" />
      <stop
         id="stop3933"
         style="stop-color:#e6c699;stop-opacity:0"
         offset="1" />
    </linearGradient>
    <linearGradient
       id="linearGradient3921">
      <stop
         id="stop3923"
         style="stop-color:#d4954f;stop-opacity:0.49122807"
         offset="0" />
      <stop
         id="stop3925"
         style="stop-color:#e69999;stop-opacity:0"
         offset="1" />
    </linearGradient>
    <linearGradient
       id="linearGradient3220">
      <stop
         id="stop3222"
         style="stop-color:#ff8282;stop-opacity:1"
         offset="0" />
      <stop
         id="stop3224"
         style="stop-color:#7b0606;stop-opacity:1"
         offset="1" />
    </linearGradient>
    <linearGradient
       id="linearGradient3210">
      <stop
         id="stop3212"
         style="stop-color:#491010;stop-opacity:1"
         offset="0" />
      <stop
         id="stop3214"
         style="stop-color:#b50707;stop-opacity:1"
         offset="1" />
    </linearGradient>
    <linearGradient
       x1="24"
       y1="48"
       x2="24"
       y2="0"
       id="linearGradient3496"
       xlink:href="#linearGradient3210"
       gradientUnits="userSpaceOnUse" />
    <radialGradient
       cx="24"
       cy="43.228447"
       r="23.5"
       fx="24"
       fy="43.228447"
       id="radialGradient3597"
       xlink:href="#linearGradient3220"
       gradientUnits="userSpaceOnUse"
       gradientTransform="matrix(2.351355,0,0,1.8182318,-32.43252,-35.370889)" />
    <radialGradient
       cx="24"
       cy="24"
       r="23.5"
       fx="24"
       fy="24"
       id="radialGradient3927"
       xlink:href="#linearGradient3921"
       gradientUnits="userSpaceOnUse"
       gradientTransform="matrix(1.3943123,0,0,1.2376551,-9.463496,-5.7037232)" />
    <radialGradient
       cx="24"
       cy="24"
       r="23.5"
       fx="24"
       fy="24"
       id="radialGradient3935"
       xlink:href="#linearGradient3929"
       gradientUnits="userSpaceOnUse" />
    <linearGradient
       x1="37.903618"
       y1="6.4499111"
       x2="37.903618"
       y2="23.850552"
       id="linearGradient3249"
       xlink:href="#linearGradient3221"
       gradientUnits="userSpaceOnUse" />
  </defs>
  <path
     d="M 9.625,0.5 C 4.5670164,0.5 0.5,4.5670164 0.5,9.625 L 0.5,38.375 C 0.5,43.432984 4.5670164,47.5 9.625,47.5 L 38.375,47.5 C 43.432984,47.5 47.5,43.432986 47.5,38.375 L 47.5,9.625 C 47.5,4.5670164 43.432986,0.5 38.375,0.5 L 9.625,0.5 z"
     id="rect3218"
     style="fill:url(#radialGradient3597);fill-opacity:1;fill-rule:nonzero;stroke:none;stroke-width:1;stroke-linecap:butt;stroke-linejoin:round;marker:none;stroke-miterlimit:4;stroke-dasharray:none;stroke-dashoffset:0;stroke-opacity:1;visibility:visible;display:inline;overflow:visible;enable-background:accumulate" />
  <path
     d="M 28.25,0.5 C 27.167616,4.9305774 25.119856,14.011884 23.96875,18.84375 C 21.493952,13.401838 17.389622,4.1785036 17.25,4.21875 C 17.092558,4.2641327 21.041661,16.708899 22.5,21.5625 C 19.627409,19.563568 9.6423875,12.073351 1.3125,5.875 C 1.1884026,6.1509179 1.0654739,6.4289056 0.96875,6.71875 C 6.4429049,11.081918 12.722998,16.04233 16.90625,19.40625 C 10.45899,16.552393 1.3388958,12.467733 0.5,12.25 L 0.5,12.3125 C 1.3315445,13.022226 14.832084,21.036 19.6875,24.03125 C 13.922337,24.691795 2.7551005,25.847878 2.75,26 C 2.7453928,26.137409 11.828454,26.22171 17.8125,26.3125 C 13.638375,29.311678 6.6913651,34.208933 0.5,38.59375 C 0.50791462,38.932218 0.55028816,39.265562 0.59375,39.59375 C 7.994239,34.703186 16.48019,29.073841 20.3125,26.625 C 16.600622,30.859091 4.9158078,43.663196 5.0625,43.8125 C 5.2093553,43.96197 18.247248,32.466689 22.53125,28.84375 C 21.488732,34.070728 18.847251,46.444646 19,46.5 C 19.13826,46.550105 22.476246,36.588727 24.375,31.0625 C 25.722105,35.317242 27.677589,41.632821 29.5,47.5 L 30.53125,47.5 C 28.895545,41.59637 27.126726,35.242667 25.96875,30.96875 C 28.709931,35.657704 33.513709,44.037798 35.59375,47.5 L 36.03125,47.5 C 34.493357,43.662229 30.1714,33.599732 28.1875,28.8125 C 33.0546,31.552486 43.434366,37.530613 43.53125,37.40625 C 43.6389,37.268069 31.499714,28.358622 28.25,25.84375 C 28.946508,25.681783 29.938662,25.445767 31.125,25.1875 C 31.141559,25.183895 31.170866,25.19112 31.1875,25.1875 C 35.554682,25.2246 41.726495,25.328804 47.5,25.40625 L 47.5,24.40625 C 43.895033,24.248521 40.349376,24.086864 37.03125,23.9375 C 40.790641,23.135253 44.667353,22.287391 47.5,21.65625 L 47.5,20.9375 C 42.848113,21.296772 35.106167,21.9909 30.40625,22.375 C 34.784975,18.365962 42.520086,11.403322 42.4375,11.28125 C 42.338813,11.135379 29.97306,20.026551 26.65625,22.28125 C 26.672672,21.717633 26.839598,19.573258 27.125,16.78125 C 28.593042,12.392122 30.713715,6.2255441 32.65625,0.5 L 31.59375,0.5 C 30.275011,4.0196225 28.976502,7.4822011 27.75,10.75 C 28.164185,6.7814232 28.58518,2.9597248 28.8125,0.5 L 28.25,0.5 z"
     id="path3901"
     style="opacity:1;fill:url(#radialGradient3927);fill-opacity:1;fill-rule:evenodd;stroke:none;stroke-width:2.5;stroke-linecap:round;stroke-linejoin:round;marker:none;marker-start:none;marker-mid:none;marker-end:none;stroke-miterlimit:4;stroke-dasharray:none;stroke-dashoffset:0;stroke-opacity:0.61363639;visibility:visible;display:inline;overflow:visible;enable-background:accumulate" />
  <path
     d="M 20.9375,0.5 C 21.683672,7.1402134 22.526682,14.627069 22.96875,18.90625 C 19.592108,15.160442 11.952322,6.4130914 7.03125,0.875 C 6.6695696,0.98143466 6.309994,1.1016654 5.96875,1.25 C 10.130611,7.4539119 16.987639,17.476577 19.75,21.65625 C 14.04786,19.89685 5.0125374,17.022943 4.96875,17.15625 C 4.9286095,17.278454 12.377815,19.861333 18,21.8125 C 13.399148,21.045526 6.4956066,19.837699 0.5,18.8125 L 0.5,19.59375 C 7.9787338,21.134947 16.701416,22.903145 20.6875,23.78125 C 19.611771,24.390629 8.9029661,28.981865 0.5,32.625 L 0.5,34.34375 C 7.8731745,32.212371 17.099315,29.499294 20.875,28.46875 C 20.838989,28.538286 20.818036,28.585298 20.78125,28.65625 C 17.328306,33.551078 12.360956,40.483654 12.46875,40.5625 C 12.553128,40.624219 15.766861,36.402831 18.90625,32.25 C 16.47735,36.886183 13.384186,42.759755 10.90625,47.5 L 11.65625,47.5 C 15.33696,41.059012 20.015122,32.758696 22.59375,28.3125 C 22.797683,29.144626 23.7053,38.807091 24.53125,47.5 L 26.5625,47.5 C 26.849624,38.323743 27.133018,28.021127 27.28125,27.90625 C 27.47542,28.10226 27.632751,28.254876 27.84375,28.46875 C 31.427989,33.252502 36.949622,40.737707 37.0625,40.65625 C 37.151261,40.592196 33.821783,35.852386 30.71875,31.40625 C 34.959556,35.743987 40.304755,41.26442 44.28125,45.3125 C 44.429567,45.186498 44.578871,45.072627 44.71875,44.9375 C 40.25639,39.990445 33.818929,32.974179 29.625,28.34375 C 33.280598,29.116032 40.851201,30.853688 47.5,32.34375 L 47.5,30.34375 C 38.745034,27.192298 28.658495,23.586332 28.59375,23.40625 C 28.587247,23.388162 28.804312,22.975387 28.90625,22.78125 C 34.364408,20.906057 44.795828,17.455099 44.75,17.3125 C 44.708686,17.183947 36.361523,19.734355 30.625,21.46875 C 35.080809,19.244806 41.857354,15.921382 47.5,13.125 L 47.5,12.3125 C 41.872009,14.854324 35.104606,17.950299 30.46875,20.03125 C 33.184924,15.372573 38.195942,7.0166736 41.65625,1.125 C 41.250646,0.96926886 40.83774,0.81606636 40.40625,0.71875 C 35.05508,7.5510849 27.000837,18.014649 25.21875,20.125 C 25.117,14.560628 25.06143,2.7817481 24.90625,2.78125 C 24.758631,2.7807761 24.601041,13.38622 24.46875,19.21875 C 23.825967,15.094465 22.718158,7.3470282 21.71875,0.5 L 20.9375,0.5 z"
     id="path3903"
     style="opacity:1;fill:url(#radialGradient3935);fill-opacity:1;fill-rule:evenodd;stroke:none;stroke-width:2.5;stroke-linecap:round;stroke-linejoin:round;marker:none;marker-start:none;marker-mid:none;marker-end:none;stroke-miterlimit:4;stroke-dasharray:none;stroke-dashoffset:0;stroke-opacity:0.61363639;visibility:visible;display:inline;overflow:visible;enable-background:accumulate" />
  <path
     d="M 9.625,0.5 C 4.5670164,0.5 0.5,4.5670164 0.5,9.625 L 0.5,18.78125 C 6.9980288,21.8908 15.151882,23.75 24,23.75 C 32.848118,23.75 41.001971,21.8908 47.5,18.78125 L 47.5,9.625 C 47.5,4.5670164 43.432986,0.5 38.375,0.5 L 9.625,0.5 z"
     id="path3228"
     style="fill:#f2d7ca;fill-opacity:0.29545456;fill-rule:evenodd;stroke:none;stroke-width:1;stroke-linecap:round;stroke-linejoin:round;marker:none;marker-start:none;marker-mid:none;marker-end:none;stroke-miterlimit:4;stroke-dasharray:none;stroke-dashoffset:0;stroke-opacity:1;visibility:visible;display:inline;overflow:visible;enable-background:accumulate" />
  <rect
     width="47"
     height="47"
     ry="9.1299343"
     x="0.5"
     y="0.5"
     id="r2393"
     style="fill:none;fill-opacity:1;fill-rule:nonzero;stroke:url(#linearGradient3496);stroke-width:1;stroke-linecap:butt;stroke-linejoin:round;marker:none;stroke-miterlimit:4;stroke-dasharray:none;stroke-dashoffset:0;stroke-opacity:1;visibility:visible;display:inline;overflow:visible;enable-background:accumulate" />
  <g
     transform="matrix(1,0,0,0.751571,0,5.6174364)"
     id="g3245">
    <path
       d="M 15.768305,11.603532 L 11.349277,10.81155 C 11.716571,9.4035971 12.420554,8.3246667 13.461228,7.5747558 C 14.509547,6.8248769 15.990207,6.4499294 17.903212,6.4499123 C 20.099325,6.4499294 21.687113,6.8593108 22.66658,7.6780577 C 23.646022,8.4968364 24.135749,9.5260289 24.135763,10.765638 C 24.135749,11.49259 23.936798,12.150661 23.538907,12.739853 C 23.140991,13.329067 22.54031,13.845577 21.736862,14.289383 C 22.38727,14.450084 22.884649,14.637557 23.229002,14.851804 C 23.787584,15.196153 24.219921,15.651446 24.526015,16.217686 C 24.839732,16.776288 24.996598,17.445837 24.996613,18.226335 C 24.996598,19.205795 24.740256,20.146989 24.227587,21.049922 C 23.71489,21.945207 22.976473,22.637712 22.012334,23.127439 C 21.048172,23.609514 19.781768,23.850552 18.213118,23.850552 C 16.682712,23.850552 15.473698,23.67073 14.586071,23.311087 C 13.706088,22.951443 12.97915,22.427282 12.405252,21.738601 C 11.839003,21.042272 11.40284,20.169945 11.096761,19.121618 L 15.768305,18.501807 C 15.951947,19.443006 16.235071,20.097252 16.617677,20.464544 C 17.007922,20.82419 17.501475,21.004012 18.098338,21.00401 C 18.725793,21.004012 19.246128,20.774453 19.659345,20.31533 C 20.080195,19.856214 20.290625,19.244055 20.290635,18.478851 C 20.290625,17.698353 20.087847,17.093846 19.682301,16.665328 C 19.284388,16.236823 18.741097,16.022567 18.052426,16.02256 C 17.685123,16.022567 17.180091,16.114391 16.537331,16.298032 L 16.778368,12.957935 C 17.03853,12.996206 17.241307,13.015336 17.386702,13.015325 C 17.998854,13.015336 18.507711,12.82021 18.913275,12.429948 C 19.326474,12.039707 19.533078,11.576762 19.533087,11.04111 C 19.533078,10.528439 19.380038,10.119058 19.073967,9.8129648 C 18.767879,9.506899 18.34702,9.3538592 17.811388,9.353845 C 17.260437,9.3538592 16.812796,9.5222029 16.468463,9.8588767 C 16.124117,10.187926 15.890731,10.769477 15.768305,11.603532 M 27.395513,18.880581 L 32.388441,18.880581 L 32.388441,23.563602 L 27.395513,23.563602 L 27.395513,18.880581 M 45.381531,6.4499123 L 45.381531,23.563602 L 40.652597,23.563602 L 40.652597,12.349602 C 39.887392,12.931164 39.145149,13.401761 38.425866,13.761395 C 37.714227,14.121048 36.818944,14.465388 35.740016,14.794414 L 35.740016,10.960764 C 37.331627,10.448094 38.567424,9.8321085 39.447408,9.1128071 C 40.327381,8.3935346 41.01606,7.5059039 41.513447,6.4499123 L 45.381531,6.4499123 M 58.523835,20.418632 L 50.007163,20.418632 L 50.007163,16.573504 L 58.523835,6.4499123 L 62.598523,6.4499123 L 62.598523,16.791586 L 64.710474,16.791586 L 64.710474,20.418632 L 62.598523,20.418632 L 62.598523,23.563602 L 58.523835,23.563602 L 58.523835,20.418632 M 58.523835,16.791586 L 58.523835,11.50023 L 54.024461,16.791586 L 58.523835,16.791586"
       transform="scale(0.6216517,1.6086179)"
       id="text2441"
       style="font-size:23.50693321px;font-style:normal;font-variant:normal;font-weight:normal;font-stretch:normal;text-align:center;line-height:80.00000119%;writing-mode:lr-tb;text-anchor:middle;fill:none;fill-opacity:1;fill-rule:evenodd;stroke:#f3cbcb;stroke-width:2.5;stroke-linecap:butt;stroke-linejoin:miter;marker:none;marker-start:none;marker-mid:none;marker-end:none;stroke-miterlimit:4;stroke-dashoffset:0;stroke-opacity:0.61363639;visibility:visible;display:inline;overflow:visible;enable-background:accumulate;font-family:Arial Black;-inkscape-font-specification:Arial Black" />
    <path
       d="M 15.768305,11.603532 L 11.349277,10.81155 C 11.716571,9.4035971 12.420554,8.3246667 13.461228,7.5747558 C 14.509547,6.8248769 15.990207,6.4499294 17.903212,6.4499123 C 20.099325,6.4499294 21.687113,6.8593108 22.66658,7.6780577 C 23.646022,8.4968364 24.135749,9.5260289 24.135763,10.765638 C 24.135749,11.49259 23.936798,12.150661 23.538907,12.739853 C 23.140991,13.329067 22.54031,13.845577 21.736862,14.289383 C 22.38727,14.450084 22.884649,14.637557 23.229002,14.851804 C 23.787584,15.196153 24.219921,15.651446 24.526015,16.217686 C 24.839732,16.776288 24.996598,17.445837 24.996613,18.226335 C 24.996598,19.205795 24.740256,20.146989 24.227587,21.049922 C 23.71489,21.945207 22.976473,22.637712 22.012334,23.127439 C 21.048172,23.609514 19.781768,23.850552 18.213118,23.850552 C 16.682712,23.850552 15.473698,23.67073 14.586071,23.311087 C 13.706088,22.951443 12.97915,22.427282 12.405252,21.738601 C 11.839003,21.042272 11.40284,20.169945 11.096761,19.121618 L 15.768305,18.501807 C 15.951947,19.443006 16.235071,20.097252 16.617677,20.464544 C 17.007922,20.82419 17.501475,21.004012 18.098338,21.00401 C 18.725793,21.004012 19.246128,20.774453 19.659345,20.31533 C 20.080195,19.856214 20.290625,19.244055 20.290635,18.478851 C 20.290625,17.698353 20.087847,17.093846 19.682301,16.665328 C 19.284388,16.236823 18.741097,16.022567 18.052426,16.02256 C 17.685123,16.022567 17.180091,16.114391 16.537331,16.298032 L 16.778368,12.957935 C 17.03853,12.996206 17.241307,13.015336 17.386702,13.015325 C 17.998854,13.015336 18.507711,12.82021 18.913275,12.429948 C 19.326474,12.039707 19.533078,11.576762 19.533087,11.04111 C 19.533078,10.528439 19.380038,10.119058 19.073967,9.8129648 C 18.767879,9.506899 18.34702,9.3538592 17.811388,9.353845 C 17.260437,9.3538592 16.812796,9.5222029 16.468463,9.8588767 C 16.124117,10.187926 15.890731,10.769477 15.768305,11.603532 M 27.395513,18.880581 L 32.388441,18.880581 L 32.388441,23.563602 L 27.395513,23.563602 L 27.395513,18.880581 M 45.381531,6.4499123 L 45.381531,23.563602 L 40.652597,23.563602 L 40.652597,12.349602 C 39.887392,12.931164 39.145149,13.401761 38.425866,13.761395 C 37.714227,14.121048 36.818944,14.465388 35.740016,14.794414 L 35.740016,10.960764 C 37.331627,10.448094 38.567424,9.8321085 39.447408,9.1128071 C 40.327381,8.3935346 41.01606,7.5059039 41.513447,6.4499123 L 45.381531,6.4499123 M 58.523835,20.418632 L 50.007163,20.418632 L 50.007163,16.573504 L 58.523835,6.4499123 L 62.598523,6.4499123 L 62.598523,16.791586 L 64.710474,16.791586 L 64.710474,20.418632 L 62.598523,20.418632 L 62.598523,23.563602 L 58.523835,23.563602 L 58.523835,20.418632 M 58.523835,16.791586 L 58.523835,11.50023 L 54.024461,16.791586 L 58.523835,16.791586"
       transform="scale(0.6216517,1.6086179)"
       id="text3215"
       style="font-size:23.50693321px;font-style:normal;font-variant:normal;font-weight:normal;font-stretch:normal;text-align:center;line-height:80.00000119%;writing-mode:lr-tb;text-anchor:middle;fill:url(#linearGradient3249);fill-opacity:1;fill-rule:evenodd;stroke:none;stroke-width:2.5;stroke-linecap:butt;stroke-linejoin:miter;marker:none;marker-start:none;marker-mid:none;marker-end:none;stroke-miterlimit:4;stroke-dashoffset:0;stroke-opacity:0.61363639;visibility:visible;display:inline;overflow:visible;enable-background:accumulate;font-family:Arial Black;-inkscape-font-specification:Arial Black" />
  </g>
  <path
     d="M 24.75,3.5398707 C 24.674781,3.5515874 24.601305,3.5725808 24.53125,3.6023707 L 23.53125,4.0398707 L 13.40625,8.6961207 C 13.024471,8.8813091 12.81853,9.303284 12.907437,9.7181877 C 12.996345,10.133091 13.357111,10.433629 13.78125,10.446121 L 17.6875,10.446121 C 17.815486,10.451582 17.943204,10.430296 18.0625,10.383621 L 24.90625,7.2273707 L 31.75,10.383621 C 31.869296,10.430296 31.997014,10.451582 32.125,10.446121 L 35.9375,10.446121 C 36.361639,10.433629 36.722405,10.133091 36.811313,9.7181877 C 36.90022,9.303284 36.694279,8.8813091 36.3125,8.6961207 L 26.21875,4.0398707 L 25.28125,3.6023707 C 25.114243,3.5294619 24.929368,3.5077118 24.75,3.5398707 L 24.75,3.5398707 z"
     id="path3240"
     style="fill:#e7a691;fill-opacity:0.65454544;fill-rule:evenodd;stroke:none;stroke-width:1px;stroke-linecap:butt;stroke-linejoin:miter;stroke-opacity:1" />
  <use
     transform="matrix(1,0,0,-1,0,48.059163)"
     id="use3243"
     x="0"
     y="0"
     width="48"
     height="48"
     xlink:href="#path3240" />
</svg>
