<?xml version="1.0" encoding="UTF-8" standalone="no"?>
<!-- Created with Inkscape (http://www.inkscape.org/) -->
<svg
   xmlns:svg="http://www.w3.org/2000/svg"
   xmlns="http://www.w3.org/2000/svg"
   xmlns:xlink="http://www.w3.org/1999/xlink"
   version="1.0"
   width="100%"
   height="100%"
   viewBox="0 0 48 48"
   id="ontology">
  <defs
     id="defs2385">
    <linearGradient
       id="linearGradient3220">
      <stop
         id="stop3222"
         style="stop-color:#f26b6b;stop-opacity:1"
         offset="0" />
      <stop
         id="stop3224"
         style="stop-color:#581717;stop-opacity:1"
         offset="1" />
    </linearGradient>
    <linearGradient
       id="linearGradient3210">
      <stop
         id="stop3212"
         style="stop-color:#7c1313;stop-opacity:1"
         offset="0" />
      <stop
         id="stop3214"
         style="stop-color:#f39898;stop-opacity:1"
         offset="1" />
    </linearGradient>
    <linearGradient
       x1="24"
       y1="48"
       x2="24"
       y2="0"
       id="linearGradient3496"
       xlink:href="#linearGradient3210"
       gradientUnits="userSpaceOnUse" />
    <radialGradient
       cx="24"
       cy="43.228447"
       r="23.5"
       fx="24"
       fy="43.228447"
       id="radialGradient3597"
       xlink:href="#linearGradient3220"
       gradientUnits="userSpaceOnUse"
       gradientTransform="matrix(2.351355,0,0,1.8182318,-32.43252,-35.370889)" />
  </defs>
  <path
     d="M 9.625,0.5 C 4.5670164,0.5 0.5,4.5670164 0.5,9.625 L 0.5,38.375 C 0.5,43.432984 4.5670164,47.5 9.625,47.5 L 38.375,47.5 C 43.432984,47.5 47.5,43.432986 47.5,38.375 L 47.5,9.625 C 47.5,4.5670164 43.432986,0.5 38.375,0.5 L 9.625,0.5 z"
     id="rect3218"
     style="fill:url(#radialGradient3597);fill-opacity:1;fill-rule:nonzero;stroke:none;stroke-width:1;stroke-linecap:butt;stroke-linejoin:round;marker:none;stroke-miterlimit:4;stroke-dasharray:none;stroke-dashoffset:0;stroke-opacity:1;visibility:visible;display:inline;overflow:visible;enable-background:accumulate" />
  <path
     d="M 4.4306581,30.161158 C 3.4324534,32.247496 4.2508014,33.416565 5.0601565,33.875199 C 5.8785045,34.324841 23.774246,43.092855 25.132164,43.722354 C 26.490082,44.360845 28.837212,43.992139 29.745489,42.004722 C 30.644772,40.017306 38.423574,24.468694 39.592643,22.031636 C 40.770704,19.585584 41.220346,17.328383 42.218551,15.16111 C 43.216755,12.984844 43.576469,11.995632 43.936182,11.177284 C 44.295896,10.367929 43.576469,10.008215 42.488336,9.6395089 C 41.400203,9.2797955 23.774246,4.2168294 22.874963,4.0369727 C 21.966686,3.857116 21.337188,4.2168294 20.887546,4.945249 C 20.428912,5.6646758 18.081782,10.008215 17.353362,11.815775 C 16.633935,13.623335 15.186089,15.610751 14.01702,17.058598 C 12.838959,18.506444 5.1500849,28.99209 4.4306581,30.161158 z"
     id="path3795"
     style="fill:none;fill-opacity:1;fill-rule:evenodd;stroke:#fdfdfd;stroke-width:2.5;stroke-linecap:butt;stroke-linejoin:miter;stroke-miterlimit:4;stroke-dasharray:none;stroke-opacity:0.61818183" />
  <path
     d="M 9.625,0.5 C 4.5670164,0.5 0.5,4.5670164 0.5,9.625 L 0.5,18.78125 C 6.9980288,21.8908 15.151882,23.75 24,23.75 C 32.848118,23.75 41.001971,21.8908 47.5,18.78125 L 47.5,9.625 C 47.5,4.5670164 43.432986,0.5 38.375,0.5 L 9.625,0.5 z"
     id="path3228"
     style="fill:#edbaba;fill-opacity:0.36818183;fill-rule:evenodd;stroke:none;stroke-width:1;stroke-linecap:round;stroke-linejoin:round;marker:none;marker-start:none;marker-mid:none;marker-end:none;stroke-miterlimit:4;stroke-dasharray:none;stroke-dashoffset:0;stroke-opacity:1;visibility:visible;display:inline;overflow:visible;enable-background:accumulate" />
  <rect
     width="47"
     height="47"
     ry="9.1299343"
     x="0.5"
     y="0.5"
     id="r2393"
     style="fill:none;fill-opacity:1;fill-rule:nonzero;stroke:url(#linearGradient3496);stroke-width:1;stroke-linecap:butt;stroke-linejoin:round;marker:none;stroke-miterlimit:4;stroke-dasharray:none;stroke-dashoffset:0;stroke-opacity:1;visibility:visible;display:inline;overflow:visible;enable-background:accumulate" />
  <path
     d="M 4.4306581,30.161158 C 3.4324534,32.247496 4.2508014,33.416565 5.0601565,33.875199 C 5.8785045,34.324841 23.774246,43.092855 25.132164,43.722354 C 26.490082,44.360845 28.837212,43.992139 29.745489,42.004722 C 30.644772,40.017306 38.423574,24.468694 39.592643,22.031636 C 40.770704,19.585584 41.220346,17.328383 42.218551,15.16111 C 43.216755,12.984844 43.576469,11.995632 43.936182,11.177284 C 44.295896,10.367929 43.576469,10.008215 42.488336,9.6395089 C 41.400203,9.2797955 23.774246,4.2168294 22.874963,4.0369727 C 21.966686,3.857116 21.337188,4.2168294 20.887546,4.945249 C 20.428912,5.6646758 18.081782,10.008215 17.353362,11.815775 C 16.633935,13.623335 15.186089,15.610751 14.01702,17.058598 C 12.838959,18.506444 5.1500849,28.99209 4.4306581,30.161158 z"
     id="p3286"
     style="fill:#bcb5bb;fill-opacity:1;fill-rule:evenodd;stroke:none" />
  <path
     d="M 20.312005,5.979425 C 19.484664,7.45425 17.964875,10.322964 17.362355,11.824768 C 17.182498,12.265417 16.96667,12.715058 16.714871,13.173693 L 39.592643,22.022643 C 40.761711,19.585584 41.238332,17.337376 42.236536,15.170102 C 42.632221,14.288805 42.893013,13.70427 43.13582,13.146715 L 20.312005,5.979425 z"
     id="p3307"
     style="fill:#e2e2e2;fill-opacity:0.18000004;fill-rule:evenodd;stroke:none;marker:none;visibility:visible;display:inline;overflow:visible;enable-background:accumulate" />
  <path
     d="M 19.466678,7.5261927 C 18.738259,8.9020964 18.027825,10.322964 17.560197,11.402105 L 40.348041,20.224076 C 41.022504,18.46148 41.490131,16.797806 42.236536,15.170102 C 42.254522,15.116145 42.263515,15.107153 42.290493,15.053196 L 19.466678,7.5261927 z"
     id="p3311"
     style="fill:#e2e2e2;fill-opacity:0.43000004;fill-rule:evenodd;stroke:none;marker:none;visibility:visible;display:inline;overflow:visible;enable-background:accumulate" />
  <path
     d="M 18.513438,9.3247597 C 18.027825,10.278 17.605161,11.213255 17.362355,11.824768 L 40.177177,20.646739 C 40.626819,19.522635 40.995525,18.443494 41.364231,17.391333 L 18.513438,9.3247597 z"
     id="p3309"
     style="fill:#e2e2e2;fill-opacity:0.5;fill-rule:evenodd;stroke:none;display:inline" />
  <path
     d="M 36.256301,19.783427 C 36.804864,18.686301 37.23652,16.725863 37.677169,15.745644 C 38.108825,14.873339 38.91818,13.713263 39.466743,12.076567"
     id="p3451"
     style="fill:none;fill-rule:evenodd;stroke:#f3f3f3;stroke-width:7.81477308;stroke-linecap:butt;stroke-linejoin:miter;stroke-miterlimit:4;stroke-dasharray:none;stroke-opacity:0.38999999" />
  <path
     d="M 26.912746,5.1610771 C 25.707706,7.0585652 23.918132,9.8553369 23.40554,11.258219 C 22.67712,13.245636 22.13755,14.513625 21.328195,15.871544 C 20.509847,17.229462 9.3047747,33.227715 8.7652046,34.135991 C 8.4774338,34.612612 8.414484,35.152182 8.4234768,35.538874 C 12.020611,37.328448 16.984656,39.729535 21.130353,41.752923 C 21.256252,40.835653 21.544023,40.646804 21.687908,40.287091 C 21.867765,39.837449 31.912762,22.112571 32.821038,20.39494 C 33.720322,18.677308 34.259892,16.878741 35.797667,13.173693 C 36.642993,11.123327 37.461341,9.5136092 38.072854,8.3355478 C 34.682555,7.3553288 30.716715,6.2312244 26.912746,5.1610771 z"
     id="p3292"
     style="fill:#222335;fill-opacity:1;fill-rule:evenodd;stroke:none;display:inline" />
  <path
     d="M 26.912746,5.1610771 C 25.707706,7.0585652 23.918132,9.8553369 23.40554,11.258219 C 22.67712,13.245636 22.13755,14.513625 21.328195,15.871544 C 20.914525,16.554999 17.874946,20.943502 14.889325,25.260063 C 18.846173,26.258268 22.785034,28.020864 26.436125,31.806847 C 29.259876,26.797838 32.335425,21.321202 32.821038,20.39494 C 33.720322,18.677308 34.259892,16.878741 35.797667,13.173693 C 36.642993,11.123327 37.461341,9.5136092 38.072854,8.3355478 C 34.682555,7.3553288 30.716715,6.2312244 26.912746,5.1610771 z"
     id="p3348"
     style="fill:#181926;fill-opacity:0.33000004;fill-rule:evenodd;stroke:none;marker:none;visibility:visible;display:inline;overflow:visible;enable-background:accumulate" />
  <path
     d="M 4.2597942,33.029873 C 6.6249098,34.16297 24.124967,42.787099 25.608785,43.443576 C 27.101595,44.100053 28.981098,42.69717 29.502682,42.166593"
     id="p2509"
     style="fill:none;fill-rule:evenodd;stroke:#fafafa;stroke-width:0.53957009;stroke-linecap:round;stroke-linejoin:miter;stroke-miterlimit:4;stroke-dasharray:none;stroke-opacity:0.23999999" />
  <path
     d="M 22.254457,4.0099942 C 21.669923,4.072944 21.211288,4.3966861 20.878553,4.9362562 C 20.671718,5.2599982 20.033227,6.4380596 19.385743,7.6610852 C 27.146559,9.4596522 36.562058,10.81757 43.918197,11.258219 C 43.927189,11.240234 43.936182,11.195269 43.945175,11.177284 C 44.304888,10.358936 43.567476,9.9902294 42.488336,9.630516 C 41.400203,9.2708026 23.774246,4.2168294 22.86597,4.0369727 C 22.641149,3.9920085 22.443307,3.9920085 22.254457,4.0099942 z"
     id="p3371"
     style="fill:#797a7d;fill-opacity:0.16000001;fill-rule:evenodd;stroke:none" />
  <path
     d="M 26.912746,5.1610771 C 25.707706,7.0585652 23.918132,9.8553369 23.40554,11.258219 C 22.67712,13.245636 22.13755,14.513625 21.328195,15.871544 C 21.067403,16.294207 19.700492,18.27263 18.063796,20.646739 C 22.758056,20.826596 27.515266,21.734872 31.499091,22.724084 C 31.804848,22.175521 32.713124,20.583789 32.821038,20.39494 C 33.720322,18.677308 34.259892,16.878741 35.797667,13.173693 C 36.642993,11.123327 37.461341,9.5136092 38.072854,8.3355478 C 34.682555,7.3553288 30.716715,6.2312244 26.912746,5.1610771 z"
     id="p3346"
     style="fill:#181926;fill-opacity:0.33000004;fill-rule:evenodd;stroke:none" />
  <path
     d="M 32.263482,15.853558 L 34.934354,16.90572"
     id="p3472"
     style="fill:none;fill-rule:evenodd;stroke:#fdfdfd;stroke-width:5.30577278;stroke-linecap:round;stroke-linejoin:miter;stroke-miterlimit:4;stroke-dasharray:none;stroke-opacity:0.08999999;display:inline" />
  <path
     d="M 25.401949,7.5801497 C 24.529644,8.9830319 23.720289,10.376921 23.40554,11.258219 C 22.812013,12.876929 22.335393,14.010027 21.741865,15.107153 L 33.20773,19.549613 C 33.900178,18.04781 34.502698,16.285214 35.797667,13.173693 C 36.103423,12.427288 36.400187,11.752825 36.69695,11.123327 L 25.401949,7.5801497 z"
     id="p3331"
     style="fill:#6d82a0;fill-opacity:0.12000002;fill-rule:evenodd;stroke:none;marker:none;visibility:visible;display:inline;overflow:visible;enable-background:accumulate" />
  <path
     d="M 33.198737,19.144935 C 33.549458,18.317595 34.044064,17.058598 34.142985,16.806798 C 34.232913,16.563992 34.781476,15.125138 34.916369,14.819382"
     id="p3477"
     style="fill:none;fill-rule:evenodd;stroke:#ffffff;stroke-width:0.1798567;stroke-linecap:round;stroke-linejoin:miter;stroke-miterlimit:4;stroke-dasharray:none;stroke-opacity:0.12999998" />
  <path
     d="M 24.439716,9.1808743 C 23.990074,9.9812366 23.594389,10.736635 23.40554,11.258219 C 23.108776,12.058581 22.847984,12.724051 22.587192,13.344557 L 33.9991,17.751046 C 34.457734,16.581978 34.970326,15.16111 35.797667,13.173693 C 35.824645,13.092758 35.851624,13.020815 35.878602,12.948872 L 24.439716,9.1808743 z"
     id="p3333"
     style="fill:#8ba7c0;fill-opacity:0.12000002;fill-rule:evenodd;stroke:none;marker:none;visibility:visible;display:inline;overflow:visible;enable-background:accumulate" />
  <path
     d="M 23.486475,11.060377 C 23.459497,11.123327 23.423526,11.204262 23.40554,11.258219 C 23.045827,12.247431 22.713092,13.029808 22.38935,13.758227 L 33.801257,18.173709 C 34.133992,17.337376 34.529677,16.357157 35.006297,15.143124 L 23.486475,11.060377 z"
     id="p3335"
     style="fill:#859ebb;fill-opacity:0.17000002;fill-rule:evenodd;stroke:none;display:inline" />
  <path
     d="M 26.912746,5.1610771 C 25.860584,6.8247515 24.35878,9.1718815 23.657339,10.673685 C 28.369585,9.9722438 32.713124,11.519011 35.653781,13.479449 C 35.707738,13.362543 35.74371,13.2906 35.797667,13.173693 C 36.642993,11.123327 37.461341,9.5136092 38.072854,8.3355478 C 34.682555,7.3553288 30.716715,6.2312244 26.912746,5.1610771 z"
     id="p3366"
     style="fill:#141520;fill-opacity:0.37999998;fill-rule:evenodd;stroke:none" />
  <path
     d="M 34.655577,11.617933 L 26.35519,9.1359101 L 25.042236,11.689875 L 33.468522,14.477654 L 34.655577,11.617933 z"
     id="p3361"
     style="fill:#676661;fill-opacity:1;fill-rule:evenodd;stroke:none;display:inline" />
  <path
     d="M 24.835401,11.528004 L 26.238283,8.7851896"
     id="p3364"
     style="fill:none;fill-rule:evenodd;stroke:#8eabc1;stroke-width:0.1798567;stroke-linecap:round;stroke-linejoin:miter;stroke-miterlimit:4;stroke-dasharray:none;stroke-opacity:0.51000001" />
  <path
     d="M 24.970293,15.008231 C 25.105186,14.783411 25.240078,14.639525 25.56382,14.738446 C 25.887562,14.828375 29.790453,16.204278 30.159159,16.393128 C 30.527865,16.572985 30.392973,16.806798 30.348009,17.076583 C 30.303044,17.355361 30.159159,17.679103 30.114195,17.903924 C 30.069231,18.137738 29.790453,18.227666 29.376782,18.092774 C 28.963112,17.948888 25.195114,16.572985 24.871372,16.483056 C 24.556623,16.393128 24.682523,16.069386 24.727487,15.835572 C 24.772451,15.610751 24.835401,15.349959 24.970293,15.008231 z"
     id="p3453"
     style="fill:#000000;fill-opacity:1;fill-rule:evenodd;stroke:none;display:inline" />
  <path
     d="M 25.437921,15.125138 C 25.249071,15.134131 25.141157,15.260031 25.042236,15.430895 C 24.907343,15.76363 24.862379,16.015429 24.817415,16.249243 C 24.808422,16.294207 24.799429,16.357157 24.790437,16.411114 C 24.817415,16.429099 24.826408,16.456078 24.871372,16.474063 C 25.195114,16.563992 28.954119,17.957881 29.36779,18.101767 C 29.78146,18.236659 30.078224,18.128745 30.123188,17.903924 C 30.168152,17.670111 30.303044,17.364354 30.348009,17.085576 C 30.357001,17.031619 30.365994,16.977662 30.38398,16.923705 C 30.339016,16.878741 30.303044,16.84277 30.240095,16.806798 C 29.871388,16.626942 25.977491,15.242045 25.662742,15.152117 C 25.581806,15.125138 25.491878,15.116145 25.437921,15.125138 z"
     id="p3456"
     style="fill:#2f1c23;fill-opacity:1;fill-rule:evenodd;stroke:none;display:inline" />
  <path
     d="M 33.567443,18.200688 C 33.855214,17.517232 34.340827,16.168307 34.547663,15.754637"
     id="p3475"
     style="fill:none;fill-rule:evenodd;stroke:#f5f5f5;stroke-width:0.26978505;stroke-linecap:round;stroke-linejoin:miter;stroke-miterlimit:4;stroke-dasharray:none;stroke-opacity:0.3" />
  <path
     d="M 19.547614,16.132336 C 19.673513,16.743849 19.142936,17.373347 18.369552,17.535218 C 17.596169,17.688096 16.867749,17.328383 16.741849,16.707877 C 16.606957,16.096364 17.137534,15.466866 17.910918,15.313988 C 18.684302,15.152117 19.421714,15.520823 19.547614,16.132336 z"
     id="p3479"
     style="fill:#525163;fill-opacity:1;fill-rule:evenodd;stroke:none;marker:none;visibility:visible;display:inline;overflow:visible;enable-background:accumulate" />
  <path
     d="M 17.50624,18.911122 C 17.63214,19.549613 17.101563,20.20609 16.319186,20.376954 C 15.536809,20.547818 14.799397,20.161126 14.664504,19.513642 C 14.538605,18.87515 15.069182,18.218673 15.851559,18.04781 C 16.642928,17.876946 17.38034,18.263638 17.50624,18.911122 z"
     id="p3481"
     style="fill:#525163;fill-opacity:1;fill-rule:evenodd;stroke:none;marker:none;visibility:visible;display:inline;overflow:visible;enable-background:accumulate" />
  <path
     d="M 15.392924,21.968686 C 15.518824,22.634155 14.979254,23.308618 14.187884,23.488475 C 13.396515,23.659339 12.650109,23.263654 12.515217,22.598184 C 12.389317,21.932714 12.919894,21.258252 13.720257,21.078395 C 14.511626,20.907531 15.258031,21.303216 15.392924,21.968686 z"
     id="p3483"
     style="fill:#525163;fill-opacity:1;fill-rule:evenodd;stroke:none;marker:none;visibility:visible;display:inline;overflow:visible;enable-background:accumulate" />
  <path
     d="M 13.261622,25.37697 C 13.216658,26.132368 12.515217,26.824817 11.687876,26.923738 C 10.860535,27.022659 10.213051,26.492082 10.258015,25.736684 C 10.302979,24.972293 11.00442,24.279844 11.831761,24.180923 C 12.668095,24.082002 13.306586,24.621572 13.261622,25.37697 z"
     id="p3487"
     style="fill:#525163;fill-opacity:1;fill-rule:evenodd;stroke:none;marker:none;visibility:visible;display:inline;overflow:visible;enable-background:accumulate" />
  <path
     d="M 11.049385,28.722305 C 11.00442,29.495689 10.240029,30.206123 9.3317532,30.305044 C 8.4234768,30.403965 7.7310285,29.864395 7.7759927,29.091011 C 7.8209569,28.317627 8.5853479,27.607193 9.4936242,27.499279 C 10.401901,27.400358 11.094349,27.948921 11.049385,28.722305 z"
     id="p3489"
     style="fill:#525163;fill-opacity:1;fill-rule:evenodd;stroke:none;marker:none;visibility:visible;display:inline;overflow:visible;enable-background:accumulate" />
  <path
     d="M 23.828203,17.472268 C 23.954103,18.128745 23.414533,18.794215 22.61417,18.965079 C 21.804815,19.135943 21.049417,18.740258 20.914525,18.092774 C 20.788625,17.44529 21.328195,16.77982 22.13755,16.608956 C 22.937913,16.438092 23.693311,16.824784 23.828203,17.472268 z"
     id="p3491"
     style="fill:#353348;fill-opacity:1;fill-rule:evenodd;stroke:none;marker:none;visibility:visible;display:inline;overflow:visible;enable-background:accumulate" />
  <path
     d="M 27.605194,18.740258 C 27.740086,19.423713 27.173538,20.134147 26.328211,20.314004 C 25.482885,20.493861 24.691515,20.08019 24.556623,19.387742 C 24.42173,18.704287 24.988279,17.993853 25.833605,17.813996 C 26.669939,17.634139 27.461309,18.04781 27.605194,18.740258 z"
     id="p3493"
     style="fill:#353348;fill-opacity:1;fill-rule:evenodd;stroke:none;marker:none;visibility:visible;display:inline;overflow:visible;enable-background:accumulate" />
  <path
     d="M 31.508084,20.152133 C 31.660962,20.880553 31.04945,21.617965 30.150166,21.806815 C 29.250883,21.995664 28.396563,21.564008 28.252678,20.835588 C 28.108793,20.116162 28.711313,19.369756 29.610596,19.180907 C 30.50988,18.992057 31.364199,19.423713 31.508084,20.152133 z"
     id="p3495"
     style="fill:#353348;fill-opacity:1;fill-rule:evenodd;stroke:none;marker:none;visibility:visible;display:inline;overflow:visible;enable-background:accumulate" />
  <path
     d="M 36.013495,21.590987 C 36.418172,22.247464 36.112416,23.074804 35.321046,23.443511 C 34.529677,23.812217 33.558451,23.578403 33.153773,22.930919 C 32.749096,22.274442 33.063845,21.447101 33.855214,21.078395 C 34.646584,20.709689 35.608817,20.943502 36.013495,21.590987 z"
     id="p3497"
     style="fill:#525163;fill-opacity:1;fill-rule:evenodd;stroke:none;marker:none;visibility:visible;display:inline;overflow:visible;enable-background:accumulate" />
  <path
     d="M 21.876758,20.421918 C 22.002658,21.069402 21.47208,21.725879 20.689704,21.896743 C 19.907327,22.067607 19.169915,21.680915 19.035022,21.033431 C 18.909122,20.385947 19.4397,19.72947 20.222076,19.567599 C 21.013446,19.396735 21.750858,19.783427 21.876758,20.421918 z"
     id="p3499"
     style="fill:#353348;fill-opacity:1;fill-rule:evenodd;stroke:none;marker:none;visibility:visible;display:inline;overflow:visible;enable-background:accumulate" />
  <path
     d="M 25.62677,21.752858 C 25.761663,22.445306 25.195114,23.146747 24.349788,23.326604 C 23.513454,23.50646 22.722084,23.09279 22.578199,22.409335 C 22.443307,21.716886 23.009855,21.015445 23.855182,20.835588 C 24.700508,20.655732 25.491878,21.069402 25.62677,21.752858 z"
     id="p3503"
     style="fill:#353348;fill-opacity:1;fill-rule:evenodd;stroke:none;marker:none;visibility:visible;display:inline;overflow:visible;enable-background:accumulate" />
  <path
     d="M 29.475704,23.236675 C 29.619589,23.929124 29.044047,24.630565 28.198721,24.810422 C 27.362387,24.990278 26.571018,24.576608 26.427132,23.893152 C 26.29224,23.200704 26.858789,22.499263 27.704115,22.319406 C 28.549442,22.13955 29.340811,22.55322 29.475704,23.236675 z"
     id="p3505"
     style="fill:#353348;fill-opacity:1;fill-rule:evenodd;stroke:none;marker:none;visibility:visible;display:inline;overflow:visible;enable-background:accumulate" />
  <path
     d="M 34.403777,24.864379 C 34.835433,25.556827 34.502698,26.438125 33.666365,26.833809 C 32.839024,27.220501 31.822833,26.977695 31.391177,26.285246 C 30.968514,25.592798 31.301249,24.7115 32.12859,24.315816 C 32.955931,23.929124 33.981114,24.17193 34.403777,24.864379 z"
     id="p3507"
     style="fill:#525163;fill-opacity:1;fill-rule:evenodd;stroke:none;marker:none;visibility:visible;display:inline;overflow:visible;enable-background:accumulate" />
  <path
     d="M 19.85337,23.542432 C 19.988263,24.23488 19.421714,24.936321 18.576388,25.116178 C 17.740054,25.296035 16.948684,24.882364 16.804799,24.198909 C 16.669907,23.50646 17.236455,22.805019 18.081782,22.625163 C 18.927108,22.445306 19.718478,22.849983 19.85337,23.542432 z"
     id="p3509"
     style="fill:#353348;fill-opacity:1;fill-rule:evenodd;stroke:none;marker:none;visibility:visible;display:inline;overflow:visible;enable-background:accumulate" />
  <path
     d="M 23.522447,24.8374 C 23.774246,25.493877 23.34259,26.285246 22.542228,26.608989 C 21.741865,26.932731 20.887546,26.662946 20.635747,26.006469 C 20.374955,25.358984 20.815603,24.558622 21.615966,24.23488 C 22.416328,23.911138 23.270647,24.180923 23.522447,24.8374 z"
     id="p3511"
     style="fill:#353348;fill-opacity:1;fill-rule:evenodd;stroke:none;marker:none;visibility:visible;display:inline;overflow:visible;enable-background:accumulate" />
  <path
     d="M 27.551237,26.608989 C 27.695122,27.346401 27.101595,28.092806 26.220297,28.290649 C 25.338999,28.479498 24.511659,28.038849 24.367773,27.31043 C 24.223888,26.573017 24.826408,25.817619 25.698713,25.62877 C 26.580011,25.43992 27.407352,25.880569 27.551237,26.608989 z"
     id="p3513"
     style="fill:#353348;fill-opacity:1;fill-rule:evenodd;stroke:none;marker:none;visibility:visible;display:inline;overflow:visible;enable-background:accumulate" />
  <path
     d="M 32.461325,28.335613 C 32.892981,29.073025 32.560246,29.999287 31.732905,30.412958 C 30.896571,30.826628 29.880381,30.565836 29.448725,29.837416 C 29.026062,29.100004 29.358797,28.173742 30.186138,27.760071 C 31.022471,27.346401 32.038662,27.5982 32.461325,28.335613 z"
     id="p3515"
     style="fill:#525163;fill-opacity:1;fill-rule:evenodd;stroke:none;marker:none;visibility:visible;display:inline;overflow:visible;enable-background:accumulate" />
  <path
     d="M 17.63214,26.977695 C 17.767032,27.7241 17.200484,28.488491 16.355157,28.677341 C 15.518824,28.875183 14.718461,28.425541 14.583569,27.688129 C 14.448676,26.941723 15.015225,26.186325 15.860551,25.988483 C 16.696885,25.790641 17.497247,26.240282 17.63214,26.977695 z"
     id="p3517"
     style="fill:#353348;fill-opacity:1;fill-rule:evenodd;stroke:none;marker:none;visibility:visible;display:inline;overflow:visible;enable-background:accumulate" />
  <path
     d="M 21.409131,28.560434 C 21.490066,29.306839 20.851575,30.026266 19.997255,30.170151 C 19.133943,30.314037 18.378545,29.828423 18.29761,29.082018 C 18.225667,28.335613 18.864158,27.616186 19.718478,27.472301 C 20.58179,27.328415 21.337188,27.814028 21.409131,28.560434 z"
     id="p3519"
     style="fill:#353348;fill-opacity:1;fill-rule:evenodd;stroke:none;marker:none;visibility:visible;display:inline;overflow:visible;enable-background:accumulate" />
  <path
     d="M 25.554827,30.206123 C 25.698713,30.970514 25.0872,31.743897 24.178924,31.950733 C 23.270647,32.148575 22.416328,31.68994 22.272443,30.925549 C 22.119565,30.170151 22.74007,29.387775 23.639354,29.189932 C 24.54763,28.99209 25.401949,29.450724 25.554827,30.206123 z"
     id="p3521"
     style="fill:#353348;fill-opacity:1;fill-rule:evenodd;stroke:none;marker:none;visibility:visible;display:inline;overflow:visible;enable-background:accumulate" />
  <path
     d="M 30.545851,31.986704 C 30.9865,32.787066 30.644772,33.794264 29.790453,34.243905 C 28.936133,34.693547 27.883972,34.414769 27.443323,33.614407 C 27.002674,32.814045 27.344402,31.806847 28.198721,31.357205 C 29.05304,30.907564 30.105202,31.195334 30.545851,31.986704 z"
     id="p3523"
     style="fill:#525163;fill-opacity:1;fill-rule:evenodd;stroke:none;marker:none;visibility:visible;display:inline;overflow:visible;enable-background:accumulate" />
  <path
     d="M 15.473859,30.430943 C 15.617745,31.21332 15.015225,32.013682 14.115941,32.220518 C 13.216658,32.427353 12.371331,31.959725 12.227446,31.168356 C 12.074568,30.385979 12.686081,29.585617 13.585364,29.378782 C 14.484648,29.171947 15.329974,29.639574 15.473859,30.430943 z"
     id="p3525"
     style="fill:#353348;fill-opacity:1;fill-rule:evenodd;stroke:none;marker:none;visibility:visible;display:inline;overflow:visible;enable-background:accumulate" />
  <path
     d="M 19.304807,32.220518 C 19.385743,33.002894 18.720273,33.767285 17.820989,33.920163 C 16.912713,34.073042 16.121344,33.56045 16.040408,32.769081 C 15.959473,31.977711 16.624942,31.222313 17.533219,31.069435 C 18.432502,30.916556 19.223872,31.429148 19.304807,32.220518 z"
     id="p3527"
     style="fill:#353348;fill-opacity:1;fill-rule:evenodd;stroke:none;marker:none;visibility:visible;display:inline;overflow:visible;enable-background:accumulate" />
  <path
     d="M 23.333597,34.091027 C 23.414533,34.882397 22.749063,35.637795 21.849779,35.790673 C 20.950496,35.943551 20.150134,35.43096 20.069198,34.63959 C 19.997255,33.857214 20.662725,33.092823 21.562009,32.939944 C 22.461292,32.787066 23.252662,33.308651 23.333597,34.091027 z"
     id="p3529"
     style="fill:#353348;fill-opacity:1;fill-rule:evenodd;stroke:none;marker:none;visibility:visible;display:inline;overflow:visible;enable-background:accumulate" />
  <path
     d="M 28.585413,35.916573 C 29.044047,36.716935 28.693327,37.724133 27.794043,38.173774 C 26.903753,38.623416 25.806627,38.335645 25.347992,37.544276 C 24.889358,36.743914 25.240078,35.736716 26.139362,35.287074 C 27.029652,34.837433 28.126778,35.125203 28.585413,35.916573 z"
     id="p3531"
     style="fill:#525163;fill-opacity:1;fill-rule:evenodd;stroke:none;marker:none;visibility:visible;display:inline;overflow:visible;enable-background:accumulate" />
  <path
     d="M 22.416328,16.572985 C 22.317407,16.572985 22.236471,16.581978 22.13755,16.599963 C 21.337188,16.770827 20.797618,17.436297 20.93251,18.092774 C 20.950496,18.173709 20.977474,18.245652 21.013446,18.317595 C 21.328195,18.659322 21.876758,18.830186 22.452299,18.704287 C 23.252662,18.533423 23.783239,17.867953 23.657339,17.220469 C 23.639354,17.148526 23.630361,17.085576 23.603382,17.022626 C 23.34259,16.71687 22.901941,16.546006 22.416328,16.572985 z M 26.130369,17.778025 C 26.022455,17.787017 25.923534,17.787017 25.824613,17.805003 C 24.979286,17.98486 24.42173,18.695294 24.556623,19.378749 C 24.565616,19.450692 24.583601,19.513642 24.61058,19.576592 C 24.619573,19.585584 24.628565,19.594577 24.637558,19.60357 C 24.646551,19.612563 24.637558,19.630549 24.637558,19.639541 C 24.970293,20.008248 25.554827,20.188104 26.157347,20.053212 C 27.002674,19.873355 27.587208,19.171914 27.452316,18.479466 C 27.443323,18.425509 27.443323,18.362559 27.425337,18.317595 C 27.416344,18.299609 27.398359,18.299609 27.398359,18.290616 C 27.128574,17.948888 26.651953,17.760039 26.130369,17.778025 z M 29.952324,19.12695 C 29.84441,19.135943 29.727503,19.162921 29.610596,19.1899 C 28.711313,19.378749 28.117785,20.116162 28.261671,20.844581 C 28.279657,20.925517 28.288649,20.997459 28.324621,21.069402 C 28.324621,21.078395 28.342606,21.087388 28.351599,21.096381 C 28.693327,21.492065 29.322825,21.680915 29.979302,21.546022 C 30.878586,21.357173 31.508084,20.610768 31.355206,19.891341 C 31.346213,19.828391 31.319235,19.774434 31.301249,19.720477 C 31.292256,19.702491 31.283263,19.675513 31.274271,19.66652 C 30.995493,19.306807 30.500887,19.108964 29.952324,19.12695 z M 20.509847,19.522635 C 20.410926,19.522635 20.32999,19.531627 20.231069,19.549613 C 19.4397,19.720477 18.918115,20.39494 19.044015,21.042424 C 19.062001,21.123359 19.097972,21.195302 19.133943,21.267245 C 19.4397,21.590987 19.97927,21.752858 20.536826,21.626958 C 21.319202,21.465087 21.849779,20.80861 21.714887,20.170119 C 21.696901,20.089183 21.642944,20.01724 21.606973,19.945298 C 21.346181,19.675513 20.950496,19.504649 20.509847,19.522635 z M 24.160938,20.790624 C 24.062017,20.790624 23.954103,20.817603 23.855182,20.844581 C 23.009855,21.024438 22.452299,21.725879 22.587192,22.418327 C 22.605178,22.481277 22.623163,22.55322 22.641149,22.61617 C 22.650142,22.625163 22.668127,22.634155 22.67712,22.643148 C 22.67712,22.652141 22.668127,22.661134 22.67712,22.670127 C 23.000862,23.02984 23.585397,23.191711 24.187917,23.065812 C 25.033243,22.885955 25.617777,22.175521 25.482885,21.492065 C 25.473892,21.438108 25.473892,21.375159 25.455906,21.321202 C 25.446913,21.312209 25.437921,21.303216 25.428928,21.294223 C 25.159143,20.952495 24.682523,20.763646 24.160938,20.790624 z M 28.009871,22.274442 C 27.91095,22.283435 27.812029,22.283435 27.704115,22.301421 C 26.858789,22.481277 26.301233,23.191711 26.436125,23.875167 C 26.454111,23.947109 26.472097,24.010059 26.499075,24.073009 C 26.499075,24.082002 26.517061,24.090995 26.526054,24.099988 C 26.526054,24.10898 26.517061,24.126966 26.526054,24.135959 C 26.849796,24.504665 27.43433,24.684522 28.03685,24.549629 C 28.882176,24.369773 29.439732,23.668331 29.30484,22.975883 C 29.286854,22.903941 29.277861,22.823005 29.250883,22.751062 C 28.981098,22.436313 28.51347,22.256456 28.009871,22.274442 z M 18.405524,22.589191 C 18.29761,22.589191 18.198688,22.589191 18.090774,22.61617 C 17.254441,22.796026 16.660914,23.497468 16.795806,24.189916 C 16.804799,24.23488 16.84077,24.279844 16.858756,24.324808 C 16.867749,24.342794 16.867749,24.369773 16.885735,24.387758 C 17.200484,24.783443 17.794011,24.999271 18.432502,24.864379 C 19.268836,24.684522 19.835384,23.974088 19.691499,23.290632 C 19.682506,23.209697 19.664521,23.128761 19.637542,23.065812 C 19.367757,22.742069 18.909122,22.562213 18.405524,22.589191 z M 22.227479,24.099988 C 22.029636,24.117973 21.804815,24.162937 21.606973,24.243873 C 20.806611,24.567615 20.365962,25.358984 20.617761,26.015461 C 20.977474,26.474096 21.705894,26.626974 22.38935,26.348196 C 23.180719,26.033447 23.612375,25.260063 23.378561,24.612579 C 23.369569,24.603586 23.378561,24.585601 23.378561,24.585601 C 23.360576,24.549629 23.333597,24.522651 23.315612,24.495672 C 23.063812,24.216894 22.668127,24.082002 22.227479,24.099988 z M 26.013462,25.592798 C 25.905548,25.601791 25.81562,25.592798 25.707706,25.619777 C 24.826408,25.808626 24.214895,26.573017 24.35878,27.31043 C 24.376766,27.37338 24.385759,27.436329 24.412737,27.508272 C 24.42173,27.517265 24.430723,27.517265 24.439716,27.535251 C 24.448709,27.544243 24.439716,27.553236 24.439716,27.562229 C 24.781444,27.975899 25.419935,28.182735 26.076412,28.038849 C 26.948717,27.85 27.533251,27.085609 27.398359,26.348196 C 27.380373,26.267261 27.344402,26.195318 27.30843,26.123375 C 27.290445,26.087404 27.272459,26.051433 27.254473,26.015461 C 27.24548,26.006469 27.236488,25.997476 27.227495,25.988483 C 26.930731,25.709705 26.48109,25.574813 26.013462,25.592798 z M 16.184293,25.961504 C 16.076379,25.961504 15.977458,25.961504 15.869544,25.988483 C 15.033211,26.177332 14.439683,26.932731 14.583569,27.670143 C 14.592562,27.769064 14.628533,27.841007 14.664504,27.921942 C 14.979254,28.362591 15.581773,28.578419 16.211272,28.434534 C 17.047606,28.236692 17.614154,27.463308 17.470269,26.716903 C 17.461276,26.635967 17.44329,26.564024 17.416312,26.492082 C 17.407319,26.474096 17.398326,26.45611 17.389333,26.438125 C 17.119548,26.10539 16.669907,25.934526 16.184293,25.961504 z M 20.033227,27.445322 C 19.925313,27.445322 19.826392,27.454315 19.718478,27.472301 C 18.864158,27.616186 18.216674,28.335613 18.288617,29.082018 C 18.29761,29.171947 18.315595,29.270868 18.342574,29.360796 C 18.639337,29.783459 19.205886,30.026266 19.835384,29.918352 C 20.689704,29.774466 21.319202,29.064032 21.238267,28.317627 C 21.229274,28.182735 21.18431,28.065828 21.130353,27.957914 C 20.878553,27.652157 20.491861,27.454315 20.033227,27.445322 z M 23.963096,29.135975 C 23.855182,29.135975 23.765253,29.162954 23.657339,29.189932 C 22.749063,29.387775 22.128557,30.170151 22.281436,30.934542 C 22.299421,31.024471 22.3264,31.132385 22.362371,31.21332 C 22.713092,31.62699 23.360576,31.833826 24.026046,31.68994 C 24.925329,31.492098 25.545835,30.709721 25.401949,29.94533 C 25.374971,29.828423 25.312021,29.738495 25.258064,29.639574 C 24.952308,29.306839 24.48468,29.108997 23.963096,29.135975 z M 13.909106,29.333818 C 13.792199,29.333818 13.711264,29.360796 13.594357,29.387775 C 12.695073,29.59461 12.074568,30.376986 12.218453,31.159363 C 12.236439,31.258284 12.263417,31.348213 12.299389,31.438141 C 12.641116,31.896776 13.288601,32.121596 13.963063,31.968718 C 14.862347,31.770876 15.455874,30.961521 15.311988,30.170151 C 15.294003,30.089216 15.258031,29.999287 15.22206,29.918352 C 15.213067,29.900366 15.204074,29.88238 15.195082,29.864395 C 14.907311,29.513674 14.430691,29.306839 13.909106,29.333818 z M 17.865954,31.042456 C 17.75804,31.042456 17.641133,31.051449 17.533219,31.069435 C 16.624942,31.222313 15.959473,31.968718 16.040408,32.760088 C 16.058394,32.912966 16.112351,33.047858 16.184293,33.182751 C 16.202279,33.209729 16.211272,33.236708 16.23825,33.263686 C 16.579978,33.596421 17.110555,33.7493 17.668111,33.659371 C 18.567395,33.506493 19.241857,32.760088 19.160922,31.968718 C 19.142936,31.842818 19.12495,31.716919 19.079986,31.609005 C 18.819194,31.258284 18.369552,31.051449 17.865954,31.042456 z M 21.885751,32.903973 C 21.777837,32.89498 21.66093,32.912966 21.553016,32.930952 C 20.64474,33.074837 20.006248,33.857214 20.087184,34.63959 C 20.105169,34.792468 20.159126,34.936354 20.231069,35.062253 C 20.249055,35.089232 20.258048,35.125203 20.285026,35.152182 C 20.617761,35.475924 21.130353,35.637795 21.687908,35.538874 C 22.587192,35.385995 23.261655,34.612612 23.180719,33.830235 C 23.162733,33.668364 23.099784,33.533471 23.036834,33.407572 C 23.018848,33.380593 23.009855,33.344622 22.982877,33.317643 C 22.713092,33.056851 22.317407,32.903973 21.885751,32.903973 z"
     id="p3558"
     style="fill:#525163;fill-opacity:1;fill-rule:evenodd;stroke:none;marker:none;visibility:visible;display:inline;overflow:visible;enable-background:accumulate" />
  <path
     d="M 17.614154,17.25644 C 18.081782,17.346368 18.64833,17.25644 18.990058,16.90572"
     id="p3621"
     style="fill:none;fill-rule:evenodd;stroke:#747689;stroke-width:0.26978505;stroke-linecap:round;stroke-linejoin:miter;stroke-miterlimit:4;stroke-dasharray:none;stroke-opacity:1" />
  <path
     d="M 15.581773,20.098176 C 16.049401,20.188104 16.61595,20.098176 16.957677,19.738463"
     id="p3627"
     style="fill:none;fill-rule:evenodd;stroke:#747689;stroke-width:0.26978505;stroke-linecap:round;stroke-linejoin:miter;stroke-miterlimit:4;stroke-dasharray:none;stroke-opacity:1;display:inline" />
  <path
     d="M 13.810185,23.254661 C 14.277812,23.254661 14.610547,23.056819 14.952275,22.697105"
     id="p3629"
     style="fill:none;fill-rule:evenodd;stroke:#747689;stroke-width:0.26978505;stroke-linecap:round;stroke-linejoin:miter;stroke-miterlimit:4;stroke-dasharray:none;stroke-opacity:1;display:inline" />
  <path
     d="M 11.463055,26.626974 C 12.002625,26.591003 12.443274,26.357189 12.731045,25.934526"
     id="p3631"
     style="fill:none;fill-rule:evenodd;stroke:#747689;stroke-width:0.26978505;stroke-linecap:round;stroke-linejoin:miter;stroke-miterlimit:4;stroke-dasharray:none;stroke-opacity:1;display:inline" />
  <path
     d="M 9.2058535,30.017273 C 9.7454236,29.972309 10.195065,29.738495 10.473843,29.315832"
     id="p3633"
     style="fill:none;fill-rule:evenodd;stroke:#747689;stroke-width:0.26978505;stroke-linecap:round;stroke-linejoin:miter;stroke-miterlimit:4;stroke-dasharray:none;stroke-opacity:1;display:inline" />
  <path
     d="M 21.78683,18.632344 C 22.209493,18.749251 22.767049,18.623351 23.171726,18.299609"
     id="p3635"
     style="fill:none;fill-opacity:1;fill-rule:evenodd;stroke:#606272;stroke-width:0.26978505;stroke-linecap:round;stroke-linejoin:miter;marker:none;stroke-miterlimit:4;stroke-dasharray:none;stroke-dashoffset:0;stroke-opacity:1;visibility:visible;display:inline;overflow:visible;enable-background:accumulate" />
  <path
     d="M 19.871356,21.590987 C 20.285026,21.698901 20.851575,21.573001 21.256252,21.249259"
     id="p3637"
     style="fill:none;fill-opacity:1;fill-rule:evenodd;stroke:#606272;stroke-width:0.26978505;stroke-linecap:round;stroke-linejoin:miter;marker:none;stroke-miterlimit:4;stroke-dasharray:none;stroke-dashoffset:0;stroke-opacity:1;visibility:visible;display:inline;overflow:visible;enable-background:accumulate" />
  <path
     d="M 17.740054,24.8374 C 18.162717,24.954307 18.729266,24.828407 19.12495,24.504665"
     id="p3639"
     style="fill:none;fill-opacity:1;fill-rule:evenodd;stroke:#606272;stroke-width:0.26978505;stroke-linecap:round;stroke-linejoin:miter;marker:none;stroke-miterlimit:4;stroke-dasharray:none;stroke-dashoffset:0;stroke-opacity:1;visibility:visible;display:inline;overflow:visible;enable-background:accumulate" />
  <path
     d="M 25.491878,20.008248 C 25.914541,20.125154 26.472097,19.990262 26.876774,19.66652"
     id="p3641"
     style="fill:none;fill-opacity:1;fill-rule:evenodd;stroke:#606272;stroke-width:0.26978505;stroke-linecap:round;stroke-linejoin:miter;marker:none;stroke-miterlimit:4;stroke-dasharray:none;stroke-dashoffset:0;stroke-opacity:1;visibility:visible;display:inline;overflow:visible;enable-background:accumulate" />
  <path
     d="M 23.513454,23.002862 C 23.927124,23.119769 24.493673,22.984876 24.898351,22.670127"
     id="p3643"
     style="fill:none;fill-opacity:1;fill-rule:evenodd;stroke:#606272;stroke-width:0.26978505;stroke-linecap:round;stroke-linejoin:miter;marker:none;stroke-miterlimit:4;stroke-dasharray:none;stroke-dashoffset:0;stroke-opacity:1;visibility:visible;display:inline;overflow:visible;enable-background:accumulate" />
  <path
     d="M 21.463088,26.339203 C 21.876758,26.447117 22.443307,26.321218 22.847984,25.997476"
     id="p3645"
     style="fill:none;fill-opacity:1;fill-rule:evenodd;stroke:#606272;stroke-width:0.26978505;stroke-linecap:round;stroke-linejoin:miter;marker:none;stroke-miterlimit:4;stroke-dasharray:none;stroke-dashoffset:0;stroke-opacity:1;visibility:visible;display:inline;overflow:visible;enable-background:accumulate" />
  <path
     d="M 29.313833,21.438108 C 29.736496,21.555015 30.294052,21.420123 30.698729,21.096381"
     id="p3647"
     style="fill:none;fill-opacity:1;fill-rule:evenodd;stroke:#606272;stroke-width:0.26978505;stroke-linecap:round;stroke-linejoin:miter;marker:none;stroke-miterlimit:4;stroke-dasharray:none;stroke-dashoffset:0;stroke-opacity:1;visibility:visible;display:inline;overflow:visible;enable-background:accumulate" />
  <path
     d="M 27.37138,24.459701 C 27.794043,24.576608 28.360592,24.441715 28.756277,24.117973"
     id="p3649"
     style="fill:none;fill-opacity:1;fill-rule:evenodd;stroke:#606272;stroke-width:0.26978505;stroke-linecap:round;stroke-linejoin:miter;marker:none;stroke-miterlimit:4;stroke-dasharray:none;stroke-dashoffset:0;stroke-opacity:1;visibility:visible;display:inline;overflow:visible;enable-background:accumulate" />
  <path
     d="M 25.401949,27.957914 C 25.824613,28.074821 26.382168,27.939928 26.786846,27.616186"
     id="p3651"
     style="fill:none;fill-opacity:1;fill-rule:evenodd;stroke:#606272;stroke-width:0.26978505;stroke-linecap:round;stroke-linejoin:miter;marker:none;stroke-miterlimit:4;stroke-dasharray:none;stroke-dashoffset:0;stroke-opacity:1;visibility:visible;display:inline;overflow:visible;enable-background:accumulate" />
  <path
     d="M 15.545802,28.335613 C 15.959473,28.45252 16.526021,28.32662 16.930699,28.002878"
     id="p3653"
     style="fill:none;fill-opacity:1;fill-rule:evenodd;stroke:#606272;stroke-width:0.26978505;stroke-linecap:round;stroke-linejoin:miter;marker:none;stroke-miterlimit:4;stroke-dasharray:none;stroke-dashoffset:0;stroke-opacity:1;visibility:visible;display:inline;overflow:visible;enable-background:accumulate" />
  <path
     d="M 19.295814,29.801445 C 19.718478,29.918352 20.276033,29.783459 20.680711,29.46871"
     id="p3655"
     style="fill:none;fill-opacity:1;fill-rule:evenodd;stroke:#606272;stroke-width:0.26978505;stroke-linecap:round;stroke-linejoin:miter;marker:none;stroke-miterlimit:4;stroke-dasharray:none;stroke-dashoffset:0;stroke-opacity:1;visibility:visible;display:inline;overflow:visible;enable-background:accumulate" />
  <path
     d="M 23.432518,31.617998 C 23.846189,31.725912 24.412737,31.600012 24.817415,31.27627"
     id="p3657"
     style="fill:none;fill-opacity:1;fill-rule:evenodd;stroke:#606272;stroke-width:0.26978505;stroke-linecap:round;stroke-linejoin:miter;marker:none;stroke-miterlimit:4;stroke-dasharray:none;stroke-dashoffset:0;stroke-opacity:1;visibility:visible;display:inline;overflow:visible;enable-background:accumulate" />
  <path
     d="M 13.315579,31.905768 C 13.738242,32.013682 14.304791,31.887783 14.700476,31.564041"
     id="p3659"
     style="fill:none;fill-opacity:1;fill-rule:evenodd;stroke:#606272;stroke-width:0.26978505;stroke-linecap:round;stroke-linejoin:miter;marker:none;stroke-miterlimit:4;stroke-dasharray:none;stroke-dashoffset:0;stroke-opacity:1;visibility:visible;display:inline;overflow:visible;enable-background:accumulate" />
  <path
     d="M 17.164512,33.587428 C 17.587176,33.704335 18.144731,33.569443 18.549409,33.245701"
     id="p3661"
     style="fill:none;fill-opacity:1;fill-rule:evenodd;stroke:#606272;stroke-width:0.26978505;stroke-linecap:round;stroke-linejoin:miter;marker:none;stroke-miterlimit:4;stroke-dasharray:none;stroke-dashoffset:0;stroke-opacity:1;visibility:visible;display:inline;overflow:visible;enable-background:accumulate" />
  <path
     d="M 21.175317,35.466931 C 21.588987,35.574845 22.155536,35.448945 22.560213,35.125203"
     id="p3663"
     style="fill:none;fill-opacity:1;fill-rule:evenodd;stroke:#606272;stroke-width:0.26978505;stroke-linecap:round;stroke-linejoin:miter;marker:none;stroke-miterlimit:4;stroke-dasharray:none;stroke-dashoffset:0;stroke-opacity:1;visibility:visible;display:inline;overflow:visible;enable-background:accumulate" />
  <path
     d="M 26.031448,37.796075 C 26.508068,38.074853 27.110588,38.12881 27.62318,37.859025"
     id="p3665"
     style="fill:none;fill-rule:evenodd;stroke:#747689;stroke-width:0.26978505;stroke-linecap:round;stroke-linejoin:miter;stroke-miterlimit:4;stroke-dasharray:none;stroke-opacity:1;display:inline" />
  <path
     d="M 28.135771,33.830235 C 28.603399,34.109013 29.214911,34.16297 29.71851,33.893185"
     id="p3667"
     style="fill:none;fill-rule:evenodd;stroke:#747689;stroke-width:0.26978505;stroke-linecap:round;stroke-linejoin:miter;stroke-miterlimit:4;stroke-dasharray:none;stroke-opacity:1;display:inline" />
  <path
     d="M 30.078224,30.00828 C 30.545851,30.287058 31.148371,30.341015 31.660962,30.07123"
     id="p3669"
     style="fill:none;fill-rule:evenodd;stroke:#747689;stroke-width:0.26978505;stroke-linecap:round;stroke-linejoin:miter;stroke-miterlimit:4;stroke-dasharray:none;stroke-opacity:1;display:inline" />
  <path
     d="M 31.984705,26.447117 C 32.452332,26.725895 33.054852,26.779852 33.567443,26.510067"
     id="p3671"
     style="fill:none;fill-rule:evenodd;stroke:#747689;stroke-width:0.26978505;stroke-linecap:round;stroke-linejoin:miter;stroke-miterlimit:4;stroke-dasharray:none;stroke-opacity:1;display:inline" />
  <path
     d="M 33.729315,23.074804 C 34.205935,23.362575 34.808455,23.407539 35.312053,23.137754"
     id="p3673"
     style="fill:none;fill-rule:evenodd;stroke:#747689;stroke-width:0.26978505;stroke-linecap:round;stroke-linejoin:miter;stroke-miterlimit:4;stroke-dasharray:none;stroke-opacity:1;display:inline" />
  <path
     d="M 20.033227,19.900334 C 20.087184,19.693498 20.276033,19.774434 20.473876,19.864362 C 20.797618,19.990262 21.12136,20.107169 21.445102,20.233069 C 21.256252,20.502854 20.662725,20.493861 20.39294,20.736667 C 20.024234,20.790624 19.934306,21.366166 19.538621,21.168323 C 19.610564,20.898538 20.123155,20.61976 20.491861,20.448897 C 20.833589,20.33199 21.18431,20.260047 20.662725,20.134147 C 20.45589,20.053212 20.249055,19.981269 20.033227,19.900334 z"
     id="text3675"
     style="font-size:2.83999991px;font-style:normal;font-variant:normal;font-weight:normal;font-stretch:normal;fill:#ffffff;fill-opacity:1;stroke:none;font-family:Arial;-inkscape-font-specification:Arial" />
  <path
     d="M 23.810218,21.797822 C 23.288633,21.438108 24.169931,21.006452 24.637558,21.34818 C 25.105186,21.53703 24.916336,22.103578 24.367773,22.01365 C 24.853386,22.310413 24.349788,22.840991 23.774246,22.706098 C 23.27964,22.643148 22.919927,22.211492 23.234676,21.932714 C 23.351583,21.806815 23.594389,21.752858 23.810218,21.797822 L 23.810218,21.797822 z M 23.954103,21.510051 C 23.684318,21.860772 24.718494,22.049621 24.628565,21.626958 C 24.592594,21.402137 24.088995,21.303216 23.954103,21.510051 z M 23.441511,22.085593 C 23.081798,22.661134 24.67353,22.67912 24.232881,22.103578 C 24.053024,21.896743 23.576404,21.869764 23.441511,22.085593 L 23.441511,22.085593 z"
     id="text3679"
     style="font-size:2.83999991px;font-style:normal;font-variant:normal;font-weight:normal;font-stretch:normal;fill:#ffffff;fill-opacity:1;stroke:none;display:inline;font-family:Arial;-inkscape-font-specification:Arial" />
  <path
     d="M 26.975695,23.587396 C 27.407352,23.623367 27.119581,24.144952 27.731094,24.019052 C 28.045843,23.938117 28.495485,23.551425 27.865986,23.704303 C 27.164545,23.641353 27.092602,22.957898 27.632172,22.778041 C 28.306635,22.517249 29.008076,23.173726 28.603399,23.56941 C 28.432535,23.947109 27.830015,24.414737 27.191523,24.073009 C 26.95771,23.965095 26.876774,23.749267 26.975695,23.587396 L 26.975695,23.587396 z M 28.396563,23.380561 C 28.810234,22.858976 27.425337,22.715091 27.551237,23.28164 C 27.596201,23.596389 28.261671,23.677324 28.396563,23.380561 L 28.396563,23.380561 z"
     id="text3683"
     style="font-size:2.83999991px;font-style:normal;font-variant:normal;font-weight:normal;font-stretch:normal;fill:#ffffff;fill-opacity:1;stroke:none;display:inline;font-family:Arial;-inkscape-font-specification:Arial" />
  <path
     d="M 17.874946,24.387758 C 17.901925,24.288837 18.162717,24.135959 18.04581,24.064016 C 17.767032,23.965095 17.488255,23.866174 17.209477,23.75826 C 17.263434,23.614374 17.452283,23.56941 17.641133,23.515453 C 18.063796,23.380561 18.477466,23.245668 18.90013,23.119769 C 19.214879,23.164733 19.008044,23.299625 18.927108,23.416532 C 18.77423,23.623367 18.621352,23.82121 18.468474,24.028045 C 18.71128,24.055023 18.819194,24.198909 18.612359,24.261859 C 18.387538,24.117973 18.288617,24.216894 18.216674,24.36078 C 18.135739,24.540636 18.090774,24.459701 17.874946,24.387758 z M 18.216674,23.938117 C 18.36056,23.740274 18.513438,23.551425 18.657323,23.353582 C 18.29761,23.470489 17.928903,23.587396 17.56919,23.704303 C 17.785018,23.785238 18.000846,23.857181 18.216674,23.938117 z"
     id="text3687"
     style="font-size:2.8499999px;font-style:normal;font-variant:normal;font-weight:normal;font-stretch:normal;fill:#ffffff;fill-opacity:1;stroke:none;display:inline;font-family:Arial;-inkscape-font-specification:Arial" />
  <path
     d="M 21.148338,25.358984 C 21.633951,25.385963 21.211288,25.826612 21.72388,25.889562 C 22.524242,26.051433 22.560213,25.035242 21.72388,25.170135 C 21.47208,25.224092 21.310209,25.02625 21.562009,24.927328 C 21.741865,24.765457 21.921722,24.603586 22.092586,24.441715 C 22.434314,24.576608 22.776041,24.702508 23.117769,24.8374 C 23.072805,25.035242 22.910934,24.990278 22.713092,24.891357 C 22.533235,24.819414 22.362371,24.747472 22.182514,24.684522 C 22.056615,24.792436 21.930715,24.909343 21.813808,25.017257 C 22.380357,24.945314 22.883956,25.43992 22.587192,25.781648 C 22.380357,26.150354 21.606973,26.177332 21.256252,25.844598 C 21.094381,25.700712 21.05841,25.511863 21.148338,25.358984 L 21.148338,25.358984 z"
     id="text3691"
     style="font-size:2.97000003px;font-style:normal;font-variant:normal;font-weight:normal;font-stretch:normal;fill:#ffffff;fill-opacity:1;stroke:none;display:inline;font-family:Arial;-inkscape-font-specification:Arial" />
  <path
     d="M 26.795839,26.743881 C 26.373175,26.653953 26.642961,26.078411 25.977491,26.240282 C 25.716699,26.312225 25.27605,26.662946 25.833605,26.537046 C 26.589004,26.599996 26.660946,27.418344 26.022455,27.553236 C 25.491878,27.715107 24.826408,27.220501 25.033243,26.833809 C 25.2131,26.465103 25.545835,25.997476 26.184326,26.051433 C 26.615982,26.10539 26.993681,26.447117 26.795839,26.743881 L 26.795839,26.743881 z M 25.347992,26.842802 C 24.898351,27.364387 26.256269,27.643165 26.193319,27.013666 C 26.184326,26.689924 25.518856,26.555032 25.347992,26.842802 L 25.347992,26.842802 z"
     id="text3695"
     style="font-size:2.94000006px;font-style:normal;font-variant:normal;font-weight:normal;font-stretch:normal;fill:#ffffff;fill-opacity:1;stroke:none;display:inline;font-family:Arial;-inkscape-font-specification:Arial" />
  <path
     d="M 15.734652,27.867985 C 15.401917,27.823021 15.527816,27.688129 15.644723,27.553236 C 15.842566,27.292444 16.049401,27.031652 16.247243,26.77086 C 15.923501,26.878774 15.311988,26.716903 15.833573,26.626974 C 16.076379,26.680931 16.894727,26.366182 16.624942,26.698917 C 16.328179,27.085609 16.031415,27.481294 15.734652,27.867985 z"
     id="text3699"
     style="font-size:2.8499999px;font-style:normal;font-variant:normal;font-weight:normal;font-stretch:normal;fill:#ffffff;fill-opacity:1;stroke:none;display:inline;font-family:Arial;-inkscape-font-specification:Arial" />
  <path
     d="M 20.051212,29.504681 C 20.006248,29.720509 19.799413,29.621588 19.592578,29.53166 C 19.25085,29.396767 18.918115,29.270868 18.576388,29.135975 C 18.954087,28.695326 19.961284,28.947126 20.383947,28.542448 C 20.608768,28.092806 19.682506,28.056835 19.475671,28.236692 C 19.053008,28.002878 20.078191,27.796043 20.338983,28.047842 C 21.05841,28.335613 20.563804,28.983097 19.889341,28.956118 C 19.637542,29.010075 18.702287,29.05504 19.322793,29.216911 C 19.565599,29.315832 19.808406,29.40576 20.051212,29.504681 z"
     id="text3703"
     style="font-size:2.97000003px;font-style:normal;font-variant:normal;font-weight:normal;font-stretch:normal;fill:#ffffff;fill-opacity:1;stroke:none;display:inline;font-family:Arial;-inkscape-font-specification:Arial" />
  <path
     d="M 23.045827,30.448929 C 23.540432,30.475908 23.090791,30.988499 23.693311,31.006485 C 24.340795,31.069435 24.268852,30.394972 23.765253,30.341015 C 23.873167,30.080223 24.511659,30.502886 24.529644,30.080223 C 24.511659,29.666552 23.873167,29.828423 23.684318,29.873388 C 23.306619,29.549646 24.619573,29.504681 24.718494,29.909359 C 25.069214,30.224108 24.394752,30.466915 24.340795,30.502886 C 24.754465,30.871592 24.106981,31.33922 23.558418,31.15037 C 23.162733,31.051449 22.874963,30.727707 23.045827,30.448929 L 23.045827,30.448929 z"
     id="text3707"
     style="font-size:2.94000006px;font-style:normal;font-variant:normal;font-weight:normal;font-stretch:normal;fill:#ffffff;fill-opacity:1;stroke:none;display:inline;font-family:Arial;-inkscape-font-specification:Arial" />
  <path
     d="M 13.081765,30.359001 C 13.252629,29.981302 14.035006,29.65756 14.511626,30.080223 C 14.835368,30.439936 14.466662,30.835621 14.169898,31.114399 C 13.819178,31.528069 12.713059,31.231306 12.87493,30.754685 C 12.910901,30.619793 12.991837,30.4849 13.081765,30.359001 z M 13.342558,30.448929 C 12.883923,30.709721 13.279608,31.429148 13.882128,31.042456 C 14.20587,30.808642 14.763426,30.089216 13.891121,30.035259 C 13.60335,30.098209 13.47745,30.296051 13.342558,30.448929 L 13.342558,30.448929 z"
     id="text3711"
     style="font-size:2.8499999px;font-style:normal;font-variant:normal;font-weight:normal;font-stretch:normal;fill:#ffffff;fill-opacity:1;stroke:none;display:inline;font-family:Arial;-inkscape-font-specification:Arial" />
  <path
     d="M 17.101563,32.715123 C 17.164512,32.526274 17.299405,32.490303 17.524226,32.625195 C 17.479262,32.787066 17.353362,32.876995 17.146527,32.724116 L 17.110555,32.715123 L 17.101563,32.715123 z"
     id="text3715"
     style="font-size:2.97000003px;font-style:normal;font-variant:normal;font-weight:normal;font-stretch:normal;fill:#ffffff;fill-opacity:1;stroke:none;display:inline;font-family:Arial;-inkscape-font-specification:Arial" />
  <path
     d="M 22.470285,34.333834 C 22.029636,34.153977 21.579994,33.97412 21.139346,33.794264 C 21.18431,33.569443 21.391145,33.68635 21.588987,33.776278 C 21.921722,33.902178 22.254457,34.03707 22.587192,34.171963 C 22.551221,34.22592 22.506256,34.279877 22.470285,34.333834 z M 22.182514,34.756497 C 21.732873,34.57664 21.283231,34.396784 20.842582,34.216927 C 20.887546,33.992106 21.094381,34.109013 21.292224,34.198941 C 21.624959,34.324841 21.957694,34.459733 22.290428,34.594626 C 22.254457,34.648583 22.218486,34.70254 22.182514,34.756497 z"
     id="text3719"
     style="font-size:2.94000006px;font-style:normal;font-variant:normal;font-weight:normal;font-stretch:normal;fill:#ffffff;fill-opacity:1;stroke:none;display:inline;font-family:Arial;-inkscape-font-specification:Arial" />
  <path
     d="M 31.813841,25.637762 C 32.416361,25.403949 33.018881,25.179128 33.6214,24.945314 C 33.945143,25.098192 33.603415,25.125171 33.468522,25.197113 C 32.973916,25.385963 32.47931,25.574813 31.984705,25.763662 C 31.930748,25.718698 31.876791,25.682727 31.813841,25.637762 z"
     id="text3723"
     style="font-size:2.83999991px;font-style:normal;font-variant:normal;font-weight:normal;font-stretch:normal;fill:#ffffff;fill-opacity:1;stroke:none;display:inline;font-family:Arial;-inkscape-font-specification:Arial" />
  <path
     d="M 29.835417,29.180939 C 30.132181,29.073025 30.428944,28.965111 30.7347,28.857197 C 30.671751,28.632376 30.617794,28.407556 30.563837,28.173742 C 30.79765,28.236692 30.941536,28.335613 30.914557,28.51547 C 30.878586,28.857197 31.175349,28.704319 31.454127,28.596405 C 31.562041,28.506477 32.047654,28.704319 31.714919,28.722305 C 31.490099,28.80324 31.256285,28.884176 31.031464,28.956118 C 31.094414,29.207918 31.157364,29.459717 31.220314,29.711517 C 30.9865,29.648567 30.842614,29.549646 30.8606,29.369789 C 30.806643,29.261875 30.887579,28.947126 30.653765,29.100004 C 30.464915,29.153961 30.294052,29.270868 30.105202,29.288853 C 30.015274,29.252882 29.925345,29.216911 29.835417,29.180939 z"
     id="text3727"
     style="font-size:2.94000006px;font-style:normal;font-variant:normal;font-weight:normal;font-stretch:normal;fill:#ffffff;fill-opacity:1;stroke:none;display:inline;font-family:Arial;-inkscape-font-specification:Arial" />
  <path
     d="M 28.441528,32.553252 C 28.486492,32.490303 28.522463,32.436346 28.558434,32.382389 C 28.819227,32.48131 29.071026,32.589224 29.322825,32.688145 C 29.286854,32.751095 29.24189,32.805052 29.205919,32.859009 C 28.954119,32.760088 28.693327,32.652174 28.441528,32.553252 z"
     id="text3731"
     style="font-size:2.94000006px;font-style:normal;font-variant:normal;font-weight:normal;font-stretch:normal;fill:#ffffff;fill-opacity:1;stroke:none;display:inline;font-family:Arial;-inkscape-font-specification:Arial" />
  <path
     d="M 26.526054,36.950749 C 26.615982,36.824849 26.70591,36.698949 26.795839,36.57305 C 26.606989,36.501107 26.427132,36.429164 26.238283,36.348229 C 26.274254,36.294272 26.310226,36.249308 26.35519,36.195351 C 26.535047,36.267293 26.714903,36.339236 26.903753,36.411179 C 26.993681,36.285279 27.074617,36.159379 27.164545,36.03348 C 27.24548,36.069451 27.326416,36.096429 27.398359,36.132401 C 27.317423,36.2583 27.227495,36.3842 27.137566,36.5101 C 27.317423,36.582043 27.506273,36.653985 27.686129,36.725928 C 27.650158,36.779885 27.614187,36.833842 27.578215,36.887799 C 27.398359,36.815856 27.209509,36.743914 27.029652,36.662978 C 26.939724,36.788878 26.849796,36.92377 26.759867,37.04967 C 26.678932,37.013699 26.606989,36.98672 26.526054,36.950749 z"
     id="text3735"
     style="font-size:2.94000006px;font-style:normal;font-variant:normal;font-weight:normal;font-stretch:normal;fill:#ffffff;fill-opacity:1;stroke:none;display:inline;font-family:Arial;-inkscape-font-specification:Arial" />
  <path
     d="M 33.846221,21.47408 C 34.160971,20.880553 35.060254,21.644944 34.385791,21.932714 C 34.017085,22.130557 33.603415,21.734872 33.846221,21.47408 L 33.846221,21.47408 z M 34.331834,21.393144 C 33.828236,21.28523 33.927157,22.157535 34.340827,21.743865 C 34.41277,21.644944 34.520684,21.47408 34.331834,21.393144 z M 33.612408,22.61617 C 34.178956,22.292428 34.745505,21.959693 35.312053,21.635951 C 35.653781,21.698901 35.249104,21.806815 35.150182,21.896743 C 34.691548,22.157535 34.241906,22.418327 33.783272,22.67912 C 33.729315,22.661134 33.675358,22.634155 33.612408,22.61617 z M 34.547663,22.55322 C 34.862412,21.959693 35.761695,22.724084 35.07824,23.011855 C 34.709534,23.209697 34.295863,22.814012 34.547663,22.55322 L 34.547663,22.55322 z M 35.033276,22.472284 C 34.520684,22.36437 34.628598,23.236675 35.042268,22.823005 C 35.114211,22.724084 35.213132,22.55322 35.033276,22.472284 L 35.033276,22.472284 z"
     id="text3739"
     style="font-size:2.5px;font-style:normal;font-variant:normal;font-weight:normal;font-stretch:normal;fill:#ffffff;fill-opacity:1;stroke:none;display:inline;font-family:Arial;-inkscape-font-specification:Arial" />
  <path
     d="M 28.801241,20.385947 C 28.99009,20.116162 29.17894,19.846377 29.36779,19.567599 C 29.664553,19.612563 29.610596,19.774434 29.565632,19.927312 C 29.529661,20.116162 29.502682,20.305011 29.466711,20.493861 C 29.745489,20.305011 30.024266,20.125154 30.312037,19.936305 C 30.635779,19.990262 30.428944,20.14314 30.348009,20.278033 C 30.213116,20.457889 30.078224,20.646739 29.952324,20.835588 C 29.646567,20.781631 29.970309,20.601775 30.006281,20.475875 C 30.096209,20.349975 30.186138,20.224076 30.276066,20.089183 C 29.997288,20.278033 29.71851,20.457889 29.448725,20.637746 C 29.17894,20.583789 29.376782,20.376954 29.358797,20.251054 C 29.385775,20.08019 29.412754,19.918319 29.439732,19.756448 C 29.277861,19.981269 29.11599,20.215083 28.954119,20.448897 C 28.900162,20.430911 28.846205,20.403932 28.801241,20.385947 z M 30.303044,20.664725 C 30.365994,20.457889 30.644772,20.700696 30.815636,20.736667 C 30.815636,20.93451 30.50988,20.718682 30.348009,20.68271 L 30.32103,20.664725 L 30.303044,20.664725 z"
     id="text3743"
     style="font-size:1.73000002px;font-style:normal;font-variant:normal;font-weight:normal;font-stretch:normal;fill:#ffffff;fill-opacity:1;stroke:none;display:inline;font-family:Arial;-inkscape-font-specification:Arial" />
  <path
     d="M 24.808422,19.00105 C 24.970293,18.704287 25.141157,18.39853 25.312021,18.101767 C 25.554827,18.137738 25.56382,18.27263 25.509863,18.434502 C 25.491878,18.65033 25.464899,18.87515 25.437921,19.090978 C 25.68972,18.87515 25.950512,18.668315 26.211304,18.452487 C 26.499075,18.488459 26.373175,18.641337 26.283247,18.776229 C 26.157347,18.992057 26.040441,19.216878 25.914541,19.432706 C 25.635763,19.396735 25.896555,19.216878 25.923534,19.099971 C 26.013462,18.9381 26.10339,18.785222 26.184326,18.623351 C 25.932527,18.830186 25.680727,19.037021 25.428928,19.243857 C 25.186121,19.207885 25.347992,18.992057 25.321014,18.857165 C 25.347992,18.668315 25.365978,18.479466 25.383964,18.290616 C 25.240078,18.551408 25.096193,18.803208 24.952308,19.055007 C 24.907343,19.037021 24.853386,19.019036 24.808422,19.00105 z M 26.526054,19.495656 C 26.606989,19.360764 26.759867,19.207885 26.472097,19.171914 C 26.202312,19.081986 26.517061,18.983064 26.660946,19.12695 C 26.83181,19.207885 26.759867,18.785222 26.975695,18.947093 C 27.002674,19.055007 26.723896,19.234864 27.029652,19.270835 C 27.317423,19.333785 27.056631,19.495656 26.89476,19.342778 C 26.696918,19.198892 26.76886,19.639541 26.580011,19.513642 L 26.553032,19.504649 L 26.526054,19.495656 z"
     id="text3747"
     style="font-size:1.75px;font-style:normal;font-variant:normal;font-weight:normal;font-stretch:normal;fill:#ffffff;fill-opacity:1;stroke:none;display:inline;font-family:Arial;-inkscape-font-specification:Arial" />
  <path
     d="M 21.139346,17.706082 C 21.337188,17.427304 21.53503,17.148526 21.732873,16.869748 C 21.948701,16.860755 21.741865,17.13054 21.696901,17.301404 C 21.571002,17.571189 21.454095,17.813996 21.777837,17.463275 C 21.930715,17.346368 22.110572,17.076583 22.245464,17.067591 C 22.398342,17.103562 22.0746,17.38234 22.011651,17.517232 C 21.885751,17.643132 21.768844,17.993853 21.642944,17.903924 C 21.804815,17.670111 21.975679,17.436297 22.13755,17.202483 C 21.912729,17.409318 21.687908,17.625146 21.463088,17.831982 C 21.310209,17.805003 21.553016,17.517232 21.579994,17.364354 C 21.651937,17.184497 21.804815,16.878741 21.579994,17.220469 C 21.463088,17.391333 21.337188,17.571189 21.220281,17.742053 C 21.193303,17.73306 21.166324,17.724068 21.139346,17.706082 z M 21.849779,17.98486 C 22.047622,17.706082 22.245464,17.427304 22.443307,17.148526 C 22.578199,17.238454 22.910934,17.202483 22.80302,17.490254 C 22.641149,17.813996 22.353378,17.625146 22.434314,17.948888 C 22.461292,18.182702 22.236471,18.281623 22.317407,18.011838 C 22.443307,17.787017 22.245464,17.463275 22.0746,17.813996 C 21.984672,17.912917 21.939708,18.083781 21.849779,17.98486 z M 22.26345,17.544211 C 22.380357,17.73306 22.92892,17.490254 22.605178,17.328383 C 22.443307,17.202483 22.416328,17.337376 22.26345,17.544211 z M 23.099784,18.101767 C 23.207698,18.407523 22.272443,18.470473 22.632156,17.966874 C 22.794027,17.409318 23.684318,17.283419 23.369569,17.805003 C 23.360576,17.616154 23.108776,17.373347 22.821006,17.822989 C 22.533235,18.146731 22.785034,18.452487 23.099784,18.101767 L 23.099784,18.101767 z"
     id="text3751"
     style="font-size:1.25px;font-style:normal;font-variant:normal;font-weight:normal;font-stretch:normal;fill:#ffffff;fill-opacity:1;stroke:none;display:inline;font-family:Arial;-inkscape-font-specification:Arial" />
  <path
     d="M 11.436077,25.457906 C 11.472048,25.484884 11.508019,25.511863 11.543991,25.538841 C 11.400105,25.700712 11.184277,25.817619 11.00442,25.790641 C 10.824564,25.763662 10.671686,25.646755 10.680678,25.448913 C 10.698664,25.215099 10.851542,24.945314 11.058377,24.765457 C 11.328163,24.531644 11.705862,24.558622 11.813776,24.783443 C 11.849747,24.864379 11.85874,24.999271 11.79579,25.089199 C 11.750826,25.080207 11.705862,25.080207 11.660897,25.071214 C 11.705862,24.954307 11.696869,24.819414 11.597948,24.77445 C 11.481041,24.702508 11.292191,24.720493 11.148306,24.855386 C 10.986435,24.999271 10.860535,25.197113 10.833557,25.385963 C 10.797585,25.619777 11.076363,25.745676 11.310177,25.574813 C 11.355141,25.538841 11.400105,25.50287 11.436077,25.457906 L 11.436077,25.457906 z M 11.481041,25.943519 C 11.705862,25.574813 11.939675,25.215099 12.173489,24.846393 C 12.39831,24.927328 12.632124,25.017257 12.856944,25.098192 C 12.829966,25.143156 12.802987,25.179128 12.776009,25.224092 C 12.587159,25.161142 12.407303,25.089199 12.218453,25.02625 C 12.146511,25.134164 12.074568,25.242078 12.002625,25.358984 C 12.182482,25.421934 12.353346,25.484884 12.52421,25.547834 C 12.497231,25.592798 12.470253,25.637762 12.443274,25.673734 C 12.27241,25.610784 12.092554,25.547834 11.92169,25.484884 C 11.840754,25.610784 11.759819,25.736684 11.687876,25.862583 C 11.876725,25.934526 12.074568,25.997476 12.263417,26.069418 C 12.236439,26.114383 12.20946,26.159347 12.182482,26.204311 C 11.948668,26.114383 11.714854,26.033447 11.481041,25.943519 z"
     id="text3755"
     style="font-size:1.75px;font-style:normal;font-variant:normal;font-weight:normal;font-stretch:normal;fill:#ffffff;fill-opacity:1;stroke:none;display:inline;font-family:Arial;-inkscape-font-specification:Arial" />
  <path
     d="M 13.009823,21.797822 C 13.117737,21.626958 13.297593,21.47408 13.459464,21.447101 C 13.657307,21.41113 13.792199,21.555015 13.720257,21.770843 C 13.648314,21.986671 13.450472,22.229478 13.234644,22.319406 C 13.009823,22.409335 12.820973,22.283435 12.883923,22.049621 C 12.910901,21.959693 12.955866,21.878757 13.009823,21.797822 z M 13.090758,21.8248 C 12.982844,21.968686 12.93788,22.148542 13.027808,22.211492 C 13.108744,22.283435 13.270615,22.247464 13.396515,22.112571 C 13.531407,21.977679 13.657307,21.770843 13.621335,21.644944 C 13.585364,21.501058 13.360543,21.519044 13.207665,21.689908 C 13.162701,21.734872 13.12673,21.779836 13.090758,21.8248 z M 13.405507,22.472284 C 13.60335,22.193507 13.801192,21.914729 13.999035,21.626958 C 14.133927,21.680915 14.26882,21.734872 14.403712,21.788829 C 14.385726,21.8248 14.358748,21.860772 14.340762,21.88775 C 14.232848,21.842786 14.115941,21.806815 14.008027,21.76185 C 13.945078,21.851779 13.891121,21.932714 13.828171,22.022643 C 13.918099,22.058614 14.01702,22.094585 14.106949,22.130557 C 14.088963,22.166528 14.061984,22.202499 14.043999,22.229478 C 13.945078,22.193507 13.855149,22.157535 13.756228,22.121564 C 13.6663,22.247464 13.576371,22.373363 13.486443,22.499263 C 13.459464,22.49027 13.432486,22.481277 13.405507,22.472284 z M 13.927092,22.670127 C 14.124934,22.391349 14.322777,22.112571 14.520619,21.833793 C 14.655511,21.88775 14.790404,21.941707 14.925297,21.995664 C 14.898318,22.022643 14.880332,22.058614 14.853354,22.094585 C 14.74544,22.049621 14.637526,22.004657 14.529612,21.959693 C 14.466662,22.049621 14.403712,22.13955 14.340762,22.220485 C 14.439683,22.256456 14.529612,22.301421 14.628533,22.337392 C 14.601554,22.36437 14.583569,22.400342 14.55659,22.436313 C 14.466662,22.400342 14.367741,22.36437 14.277812,22.319406 C 14.187884,22.454299 14.097956,22.580198 14.008027,22.706098 C 13.981049,22.697105 13.95407,22.688112 13.927092,22.670127 z"
     id="text3759"
     style="font-size:1.25px;font-style:normal;font-variant:normal;font-weight:normal;font-stretch:normal;fill:#ffffff;fill-opacity:1;stroke:none;display:inline;font-family:Arial;-inkscape-font-specification:Arial" />
  <path
     d="M 15.060189,18.929107 L 15.006232,19.369756 L 16.031415,18.380545 L 17.065591,18.803208"
     id="p3763"
     style="fill:none;fill-rule:evenodd;stroke:#ffffff;stroke-width:0.1798567;stroke-linecap:butt;stroke-linejoin:bevel;stroke-miterlimit:4;stroke-dasharray:none;stroke-opacity:1" />
  <path
     d="M 17.191491,16.671906 L 19.106965,15.790608"
     id="p3765"
     style="fill:none;fill-rule:evenodd;stroke:#ffffff;stroke-width:0.1798567;stroke-linecap:butt;stroke-linejoin:miter;stroke-miterlimit:4;stroke-dasharray:none;stroke-opacity:1" />
  <path
     d="M 18.126746,16.599963 L 18.720273,16.797806"
     id="p3767"
     style="fill:none;fill-opacity:1;fill-rule:evenodd;stroke:#ffffff;stroke-width:0.1798567;stroke-linecap:butt;stroke-linejoin:miter;marker:none;stroke-miterlimit:4;stroke-dasharray:none;stroke-dashoffset:0;stroke-opacity:1;visibility:visible;display:inline;overflow:visible;enable-background:accumulate" />
  <path
     d="M 17.578183,15.691687 L 18.144731,15.916508"
     id="p3769"
     style="fill:none;fill-opacity:1;fill-rule:evenodd;stroke:#ffffff;stroke-width:0.1798567;stroke-linecap:butt;stroke-linejoin:miter;marker:none;stroke-miterlimit:4;stroke-dasharray:none;stroke-dashoffset:0;stroke-opacity:1;visibility:visible;display:inline;overflow:visible;enable-background:accumulate" />
  <path
     d="M 18.018832,15.547801 L 17.686097,16.096364"
     id="p3771"
     style="fill:none;fill-opacity:1;fill-rule:evenodd;stroke:#ffffff;stroke-width:0.1798567;stroke-linecap:butt;stroke-linejoin:miter;marker:none;stroke-miterlimit:4;stroke-dasharray:none;stroke-dashoffset:0;stroke-opacity:1;visibility:visible;display:inline;overflow:visible;enable-background:accumulate" />
  <path
     d="M 8.630312,28.029856 C 8.7202404,27.903957 8.8731186,27.778057 9.0080111,27.742086 C 9.2058535,27.688129 9.3587317,27.805036 9.2957818,27.993885 C 9.2418248,28.164749 9.0799538,28.362591 8.8911042,28.461513 C 8.6662834,28.569427 8.468441,28.470505 8.5134052,28.272663 C 8.522398,28.191727 8.5673622,28.110792 8.630312,28.029856 L 8.630312,28.029856 z M 8.7022547,28.056835 C 8.6213192,28.164749 8.5673622,28.299642 8.630312,28.371584 C 8.684269,28.443527 8.8371472,28.434534 8.9630469,28.32662 C 9.0799538,28.227699 9.178875,28.101799 9.2058535,27.984892 C 9.232832,27.832014 9.0889466,27.769064 8.9270756,27.85 C 8.8371472,27.894964 8.7652046,27.984892 8.7022547,28.056835 L 8.7022547,28.056835 z M 8.9990183,28.614391 C 9.178875,28.371584 9.3587317,28.128778 9.5475812,27.885971 C 9.5745597,27.894964 9.5925454,27.903957 9.6195239,27.91295 C 9.5745597,28.13777 9.5295955,28.362591 9.4846314,28.587412 C 9.6285167,28.398563 9.7724021,28.209713 9.9162874,28.020864 C 9.9432659,28.029856 9.9612516,28.038849 9.9882301,28.047842 C 9.8083734,28.290649 9.6195239,28.533455 9.4396672,28.767269 C 9.4126887,28.758276 9.3857102,28.749283 9.3587317,28.74029 C 9.4036958,28.51547 9.4576529,28.290649 9.502617,28.065828 C 9.3587317,28.254677 9.2058535,28.443527 9.0619681,28.632376 C 9.0439824,28.623384 9.0170039,28.614391 8.9990183,28.614391 z"
     id="text3773"
     style="font-size:1.11000001px;font-style:normal;font-variant:normal;font-weight:normal;font-stretch:normal;fill:#ffffff;fill-opacity:1;stroke:none;display:inline;font-family:Arial;-inkscape-font-specification:Arial" />
  <path
     d="M 9.6015382,29.549646 C 9.6195239,29.567631 9.6375096,29.576624 9.6554952,29.59461 C 9.5745597,29.666552 9.4756385,29.729502 9.3857102,29.738495 C 9.3137675,29.738495 9.2508176,29.711517 9.2148463,29.666552 C 9.1698821,29.612595 9.1968606,29.513674 9.2508176,29.423746 C 9.3137675,29.315832 9.4216815,29.198925 9.5385884,29.135975 C 9.6734809,29.064032 9.7993806,29.082018 9.8533376,29.153961 C 9.8893089,29.198925 9.8803161,29.270868 9.8353519,29.34281 C 9.8083734,29.34281 9.7903877,29.34281 9.7634092,29.34281 C 9.7903877,29.279861 9.7993806,29.216911 9.7634092,29.180939 C 9.7094522,29.144968 9.6195239,29.144968 9.5295955,29.207918 C 9.4306743,29.270868 9.3587317,29.369789 9.3047747,29.46871 C 9.2688033,29.53166 9.2688033,29.603603 9.3047747,29.630581 C 9.3497388,29.675545 9.4396672,29.675545 9.5295955,29.612595 C 9.556574,29.59461 9.5835525,29.576624 9.6015382,29.549646 L 9.6015382,29.549646 z"
     id="text3781"
     style="font-size:0.94px;font-style:normal;font-variant:normal;font-weight:normal;font-stretch:normal;fill:#ffffff;fill-opacity:1;stroke:none;display:inline;font-family:Arial;-inkscape-font-specification:Arial" />
  <path
     d="M 8.5044123,29.414753 L 10.410893,28.524462"
     id="p3785"
     style="fill:none;fill-rule:evenodd;stroke:#ffffff;stroke-width:0.1798567;stroke-linecap:butt;stroke-linejoin:miter;stroke-miterlimit:4;stroke-dasharray:none;stroke-opacity:1;display:inline" />
  <path
     d="M 28.549442,10.691671 L 28.972105,10.871527 L 28.729298,11.384119"
     id="p3381"
     style="fill:none;fill-opacity:1;fill-rule:evenodd;stroke:#10171d;stroke-width:0.26978505;stroke-linecap:round;stroke-linejoin:round;marker:none;stroke-miterlimit:4;stroke-dasharray:none;stroke-dashoffset:0;stroke-opacity:1;visibility:visible;display:inline;overflow:visible;enable-background:accumulate" />
  <path
     d="M 28.207714,11.474047 L 28.612391,11.60894 L 28.288649,12.14851"
     id="p3383"
     style="fill:none;fill-opacity:1;fill-rule:evenodd;stroke:#10171d;stroke-width:0.26978505;stroke-linecap:round;stroke-linejoin:round;marker:none;stroke-miterlimit:4;stroke-dasharray:none;stroke-dashoffset:0;stroke-opacity:1;visibility:visible;display:inline;overflow:visible;enable-background:accumulate" />
  <path
     d="M 27.695122,12.130524 L 28.081814,12.283402"
     id="p3385"
     style="fill:none;fill-opacity:1;fill-rule:evenodd;stroke:#10171d;stroke-width:0.26978505;stroke-linecap:round;stroke-linejoin:round;marker:none;stroke-miterlimit:4;stroke-dasharray:none;stroke-dashoffset:0;stroke-opacity:1;visibility:visible;display:inline;overflow:visible;enable-background:accumulate" />
  <path
     d="M 28.360592,12.517216 L 28.261671,12.661101"
     id="p3387"
     style="fill:none;fill-opacity:1;fill-rule:evenodd;stroke:#10171d;stroke-width:0.26978505;stroke-linecap:round;stroke-linejoin:round;marker:none;stroke-miterlimit:4;stroke-dasharray:none;stroke-dashoffset:0;stroke-opacity:1;visibility:visible;display:inline;overflow:visible;enable-background:accumulate" />
  <path
     d="M 29.979302,11.204262 L 29.709517,11.707861"
     id="p3389"
     style="fill:none;fill-opacity:1;fill-rule:evenodd;stroke:#10171d;stroke-width:0.26978505;stroke-linecap:round;stroke-linejoin:round;marker:none;stroke-miterlimit:4;stroke-dasharray:none;stroke-dashoffset:0;stroke-opacity:1;visibility:visible;display:inline;overflow:visible;enable-background:accumulate" />
  <path
     d="M 29.538653,12.049589 L 29.259876,12.535202"
     id="p3391"
     style="fill:none;fill-opacity:1;fill-rule:evenodd;stroke:#10171d;stroke-width:0.26978505;stroke-linecap:round;stroke-linejoin:round;marker:none;stroke-miterlimit:4;stroke-dasharray:none;stroke-dashoffset:0;stroke-opacity:1;visibility:visible;display:inline;overflow:visible;enable-background:accumulate" />
  <path
     d="M 30.401966,11.384119 L 30.141173,11.887718"
     id="p3393"
     style="fill:none;fill-opacity:1;fill-rule:evenodd;stroke:#10171d;stroke-width:0.26978505;stroke-linecap:round;stroke-linejoin:round;marker:none;stroke-miterlimit:4;stroke-dasharray:none;stroke-dashoffset:0;stroke-opacity:1;visibility:visible;display:inline;overflow:visible;enable-background:accumulate" />
  <path
     d="M 30.959521,11.60894 L 30.698729,12.103546"
     id="p3395"
     style="fill:none;fill-opacity:1;fill-rule:evenodd;stroke:#10171d;stroke-width:0.26978505;stroke-linecap:round;stroke-linejoin:round;marker:none;stroke-miterlimit:4;stroke-dasharray:none;stroke-dashoffset:0;stroke-opacity:1;visibility:visible;display:inline;overflow:visible;enable-background:accumulate" />
  <path
     d="M 30.464915,12.454266 L 30.19513,12.957865"
     id="p3397"
     style="fill:none;fill-opacity:1;fill-rule:evenodd;stroke:#10171d;stroke-width:0.26978505;stroke-linecap:round;stroke-linejoin:round;marker:none;stroke-miterlimit:4;stroke-dasharray:none;stroke-dashoffset:0;stroke-opacity:1;visibility:visible;display:inline;overflow:visible;enable-background:accumulate" />
  <path
     d="M 31.975712,11.806782 L 31.714919,12.310381"
     id="p3399"
     style="fill:none;fill-opacity:1;fill-rule:evenodd;stroke:#10171d;stroke-width:0.26978505;stroke-linecap:round;stroke-linejoin:round;marker:none;stroke-miterlimit:4;stroke-dasharray:none;stroke-dashoffset:0;stroke-opacity:1;visibility:visible;display:inline;overflow:visible;enable-background:accumulate" />
  <path
     d="M 31.535063,12.697073 L 31.274271,13.191679"
     id="p3401"
     style="fill:none;fill-opacity:1;fill-rule:evenodd;stroke:#10171d;stroke-width:0.26978505;stroke-linecap:round;stroke-linejoin:round;marker:none;stroke-miterlimit:4;stroke-dasharray:none;stroke-dashoffset:0;stroke-opacity:1;visibility:visible;display:inline;overflow:visible;enable-background:accumulate" />
  <path
     d="M 32.371396,12.004624 L 32.110604,12.49923"
     id="p3403"
     style="fill:none;fill-opacity:1;fill-rule:evenodd;stroke:#10171d;stroke-width:0.26978505;stroke-linecap:round;stroke-linejoin:round;marker:none;stroke-miterlimit:4;stroke-dasharray:none;stroke-dashoffset:0;stroke-opacity:1;visibility:visible;display:inline;overflow:visible;enable-background:accumulate" />
  <path
     d="M 32.569239,12.957865 L 32.299454,13.461464"
     id="p3405"
     style="fill:none;fill-opacity:1;fill-rule:evenodd;stroke:#10171d;stroke-width:0.26978505;stroke-linecap:round;stroke-linejoin:round;marker:none;stroke-miterlimit:4;stroke-dasharray:none;stroke-dashoffset:0;stroke-opacity:1;visibility:visible;display:inline;overflow:visible;enable-background:accumulate" />
  <path
     d="M 33.360608,12.265417 L 33.099816,12.769015"
     id="p3407"
     style="fill:none;fill-opacity:1;fill-rule:evenodd;stroke:#10171d;stroke-width:0.26978505;stroke-linecap:round;stroke-linejoin:round;marker:none;stroke-miterlimit:4;stroke-dasharray:none;stroke-dashoffset:0;stroke-opacity:1;visibility:visible;display:inline;overflow:visible;enable-background:accumulate" />
  <path
     d="M 33.963128,12.49923 L 33.702336,13.002829"
     id="p3409"
     style="fill:none;fill-opacity:1;fill-rule:evenodd;stroke:#10171d;stroke-width:0.26978505;stroke-linecap:round;stroke-linejoin:round;marker:none;stroke-miterlimit:4;stroke-dasharray:none;stroke-dashoffset:0;stroke-opacity:1;visibility:visible;display:inline;overflow:visible;enable-background:accumulate" />
  <path
     d="M 33.540465,13.35355 L 33.27068,13.857148"
     id="p3411"
     style="fill:none;fill-opacity:1;fill-rule:evenodd;stroke:#10171d;stroke-width:0.26978505;stroke-linecap:round;stroke-linejoin:round;marker:none;stroke-miterlimit:4;stroke-dasharray:none;stroke-dashoffset:0;stroke-opacity:1;visibility:visible;display:inline;overflow:visible;enable-background:accumulate" />
  <path
     d="M 30.19513,12.058581 L 30.464915,12.14851"
     id="p3413"
     style="fill:none;fill-opacity:1;fill-rule:evenodd;stroke:#10171d;stroke-width:0.26978505;stroke-linecap:round;stroke-linejoin:round;marker:none;stroke-miterlimit:4;stroke-dasharray:none;stroke-dashoffset:0;stroke-opacity:1;visibility:visible;display:inline;overflow:visible;enable-background:accumulate" />
  <path
     d="M 32.614203,11.95966 L 32.874995,12.049589"
     id="p3415"
     style="fill:none;fill-opacity:1;fill-rule:evenodd;stroke:#10171d;stroke-width:0.26978505;stroke-linecap:round;stroke-linejoin:round;marker:none;stroke-miterlimit:4;stroke-dasharray:none;stroke-dashoffset:0;stroke-opacity:1;visibility:visible;display:inline;overflow:visible;enable-background:accumulate" />
  <path
     d="M 32.200533,12.706066 L 32.461325,12.795994"
     id="p3417"
     style="fill:none;fill-opacity:1;fill-rule:evenodd;stroke:#10171d;stroke-width:0.26978505;stroke-linecap:round;stroke-linejoin:round;marker:none;stroke-miterlimit:4;stroke-dasharray:none;stroke-dashoffset:0;stroke-opacity:1;visibility:visible;display:inline;overflow:visible;enable-background:accumulate" />
  <path
     d="M 31.786862,13.398514 L 32.047654,13.488442"
     id="p3419"
     style="fill:none;fill-opacity:1;fill-rule:evenodd;stroke:#10171d;stroke-width:0.26978505;stroke-linecap:round;stroke-linejoin:round;marker:none;stroke-miterlimit:4;stroke-dasharray:none;stroke-dashoffset:0;stroke-opacity:1;visibility:visible;display:inline;overflow:visible;enable-background:accumulate" />
  <path
     d="M 33.549458,12.265417 L 33.819243,12.355345"
     id="p3421"
     style="fill:none;fill-opacity:1;fill-rule:evenodd;stroke:#10171d;stroke-width:0.26978505;stroke-linecap:round;stroke-linejoin:round;marker:none;stroke-miterlimit:4;stroke-dasharray:none;stroke-dashoffset:0;stroke-opacity:1;visibility:visible;display:inline;overflow:visible;enable-background:accumulate" />
  <path
     d="M 33.180752,13.029808 L 33.450537,13.119736"
     id="p3423"
     style="fill:none;fill-opacity:1;fill-rule:evenodd;stroke:#10171d;stroke-width:0.26978505;stroke-linecap:round;stroke-linejoin:round;marker:none;stroke-miterlimit:4;stroke-dasharray:none;stroke-dashoffset:0;stroke-opacity:1;visibility:visible;display:inline;overflow:visible;enable-background:accumulate" />
  <path
     d="M 32.758088,13.812184 L 33.018881,13.902113"
     id="p3425"
     style="fill:none;fill-opacity:1;fill-rule:evenodd;stroke:#10171d;stroke-width:0.26978505;stroke-linecap:round;stroke-linejoin:round;marker:none;stroke-miterlimit:4;stroke-dasharray:none;stroke-dashoffset:0;stroke-opacity:1;visibility:visible;display:inline;overflow:visible;enable-background:accumulate" />
  <path
     d="M 25.042236,11.689875 L 33.468522,14.477654 L 34.655577,11.617933"
     id="p3429"
     style="fill:none;fill-opacity:1;fill-rule:evenodd;stroke:#10171d;stroke-width:0.1798567;stroke-linecap:round;stroke-linejoin:round;stroke-miterlimit:4;stroke-dasharray:none;stroke-opacity:1;display:inline" />
  <path
     d="M 24.970293,15.008231 C 25.105186,14.783411 25.240078,14.639525 25.56382,14.738446 C 25.887562,14.828375 29.790453,16.204278 30.159159,16.393128 C 30.527865,16.572985 30.392973,16.806798 30.348009,17.076583 C 30.303044,17.355361 30.159159,17.679103 30.114195,17.903924 C 30.069231,18.137738 29.790453,18.227666 29.376782,18.092774 C 28.963112,17.948888 25.195114,16.572985 24.871372,16.483056 C 24.556623,16.393128 24.682523,16.069386 24.727487,15.835572 C 24.772451,15.610751 24.835401,15.349959 24.970293,15.008231 z"
     id="p3461"
     style="fill:none;fill-opacity:1;fill-rule:evenodd;stroke:#0f1828;stroke-width:0.1798567;stroke-linecap:butt;stroke-linejoin:miter;stroke-miterlimit:4;stroke-dasharray:none;stroke-opacity:1;display:inline" />
  <path
     d="M 21.130353,41.752923 C 21.256252,40.835653 21.544023,40.646804 21.687908,40.287091 C 21.867765,39.837449 31.912762,22.112571 32.821038,20.39494 C 33.720322,18.677308 34.259892,16.878741 35.797667,13.173693 C 36.642993,11.123327 37.461341,9.5136092 38.072854,8.3355478"
     id="p3470"
     style="fill:none;fill-opacity:1;fill-rule:evenodd;stroke:#0c0f1a;stroke-width:0.26978505;stroke-linecap:butt;stroke-linejoin:miter;stroke-miterlimit:4;stroke-dasharray:none;stroke-opacity:1;display:inline" />
  <path
     d="M 4.4306581,30.161158 C 3.4324534,32.247496 4.2508014,33.416565 5.0601565,33.875199 C 5.8785045,34.324841 23.774246,43.092855 25.132164,43.722354 C 26.490082,44.360845 28.837212,43.992139 29.745489,42.004722 C 30.644772,40.017306 38.423574,24.468694 39.592643,22.031636 C 40.770704,19.585584 41.220346,17.328383 42.218551,15.16111 C 43.216755,12.984844 43.576469,11.995632 43.936182,11.177284 C 44.295896,10.367929 43.576469,10.008215 42.488336,9.6395089 C 41.400203,9.2797955 23.774246,4.2168294 22.874963,4.0369727 C 21.966686,3.857116 21.337188,4.2168294 20.887546,4.945249 C 20.428912,5.6646758 18.081782,10.008215 17.353362,11.815775 C 16.633935,13.623335 15.186089,15.610751 14.01702,17.058598 C 12.838959,18.506444 5.1500849,28.99209 4.4306581,30.161158 z"
     id="stroke01"
     style="fill:none;fill-opacity:1;fill-rule:evenodd;stroke:#141414;stroke-width:0.5;stroke-linecap:butt;stroke-linejoin:miter;stroke-miterlimit:4;stroke-dasharray:none;stroke-opacity:1" />
  <path
     d="M 4.4306581,30.161158 C 3.4324534,32.247496 4.2508014,33.416565 5.0601565,33.875199 C 5.8785045,34.324841 23.774246,43.092855 25.132164,43.722354 C 26.490082,44.360845 28.837212,43.992139 29.745489,42.004722 C 30.644772,40.017306 38.423574,24.468694 39.592643,22.031636 C 40.770704,19.585584 41.220346,17.328383 42.218551,15.16111 C 43.216755,12.984844 43.576469,11.995632 43.936182,11.177284 C 44.295896,10.367929 43.576469,10.008215 42.488336,9.6395089 C 41.400203,9.2797955 23.774246,4.2168294 22.874963,4.0369727 C 21.966686,3.857116 21.337188,4.2168294 20.887546,4.945249 C 20.428912,5.6646758 18.081782,10.008215 17.353362,11.815775 C 16.633935,13.623335 15.186089,15.610751 14.01702,17.058598 C 12.838959,18.506444 5.1500849,28.99209 4.4306581,30.161158 z"
     id="path3793"
     style="fill:none;fill-opacity:1;fill-rule:evenodd;stroke:#141414;stroke-width:0.5;stroke-linecap:butt;stroke-linejoin:miter;stroke-miterlimit:4;stroke-dasharray:none;stroke-opacity:1" />
</svg>
