<?xml version="1.0" encoding="UTF-8" standalone="no"?>
<!-- Created with Inkscape (http://www.inkscape.org/) -->
<svg
   xmlns:svg="http://www.w3.org/2000/svg"
   xmlns="http://www.w3.org/2000/svg"
   xmlns:xlink="http://www.w3.org/1999/xlink"
   version="1.0"
   width="100%"
   height="100%"
   viewBox="0 0 48 48"
   id="ontology">
  <defs
     id="defs2385">
    <linearGradient
       id="linearGradient5044">
      <stop
         id="stop5046"
         style="stop-color:#c5fbed;stop-opacity:1"
         offset="0" />
      <stop
         id="stop5048"
         style="stop-color:#6feee1;stop-opacity:0"
         offset="1" />
    </linearGradient>
    <linearGradient
       id="linearGradient3220">
      <stop
         id="stop3222"
         style="stop-color:#b9f6f9;stop-opacity:1"
         offset="0" />
      <stop
         id="stop3224"
         style="stop-color:#0c5e68;stop-opacity:1"
         offset="1" />
    </linearGradient>
    <linearGradient
       id="linearGradient3210">
      <stop
         id="stop3212"
         style="stop-color:#1e7e7e;stop-opacity:1"
         offset="0" />
      <stop
         id="stop3214"
         style="stop-color:#82faf4;stop-opacity:1"
         offset="1" />
    </linearGradient>
    <linearGradient
       x1="24"
       y1="48"
       x2="24"
       y2="0"
       id="linearGradient3496"
       xlink:href="#linearGradient3210"
       gradientUnits="userSpaceOnUse" />
    <radialGradient
       cx="24"
       cy="43.228447"
       r="23.5"
       fx="24"
       fy="43.228447"
       id="radialGradient3597"
       xlink:href="#linearGradient3220"
       gradientUnits="userSpaceOnUse"
       gradientTransform="matrix(2.351355,0,0,1.8182318,-32.43252,-35.370889)" />
    <radialGradient
       cx="23.999998"
       cy="28.612509"
       r="23.5"
       fx="23.999998"
       fy="28.612509"
       id="radialGradient5040"
       xlink:href="#linearGradient5044"
       gradientUnits="userSpaceOnUse"
       gradientTransform="matrix(1.5870545,4.6792776e-8,-4.7351043e-8,1.605989,-22.68007,-33.349655)" />
    <linearGradient
       x1="24"
       y1="48"
       x2="24"
       y2="0"
       id="linearGradient2736"
       xlink:href="#linearGradient3210"
       gradientUnits="userSpaceOnUse" />
    <radialGradient
       cx="10.79"
       cy="39.720001"
       r="20.780001"
       fx="10.79"
       fy="39.720001"
       id="rg3048"
       xlink:href="#lg3953"
       gradientUnits="userSpaceOnUse"
       gradientTransform="matrix(0.25,0.25,-1.55,1.59,69.84,-27.62)" />
    <radialGradient
       cx="8.3900003"
       cy="44.470001"
       r="14.78"
       fx="8.3900003"
       fy="44.470001"
       id="rg3044"
       xlink:href="#lg3996"
       gradientUnits="userSpaceOnUse"
       gradientTransform="matrix(0.66,0.83,-1.69,1.35,78.27,-25.35)" />
    <linearGradient
       id="lg3953">
      <stop
         id="s3955"
         style="stop-color:#c2dfff;stop-opacity:1"
         offset="0" />
      <stop
         id="s3957"
         style="stop-color:#7e9fc1;stop-opacity:1"
         offset="1" />
    </linearGradient>
    <linearGradient
       id="lg3996">
      <stop
         id="s3998"
         style="stop-color:#13294c;stop-opacity:0.46000001"
         offset="0" />
      <stop
         id="s4000"
         style="stop-color:#bde2e2;stop-opacity:0.55000001"
         offset="1" />
    </linearGradient>
  </defs>
  <path
     d="M 9.625,0.5 C 4.5670164,0.5 0.5,4.5670164 0.5,9.625 L 0.5,38.375 C 0.5,43.432984 4.5670164,47.5 9.625,47.5 L 38.375,47.5 C 43.432984,47.5 47.5,43.432986 47.5,38.375 L 47.5,9.625 C 47.5,4.5670164 43.432986,0.5 38.375,0.5 L 9.625,0.5 z"
     id="rect3218"
     style="fill:url(#radialGradient3597);fill-opacity:1;fill-rule:nonzero;stroke:none;stroke-width:1;stroke-linecap:butt;stroke-linejoin:round;marker:none;stroke-miterlimit:4;stroke-dasharray:none;stroke-dashoffset:0;stroke-opacity:1;visibility:visible;display:inline;overflow:visible;enable-background:accumulate" />
  <path
     d="M 9.625,0.5 C 4.5670164,0.5 0.5,4.5670164 0.5,9.625 L 0.5,18.78125 C 6.9980288,21.8908 15.151882,23.75 24,23.75 C 32.848118,23.75 41.001971,21.8908 47.5,18.78125 L 47.5,9.625 C 47.5,4.5670164 43.432986,0.5 38.375,0.5 L 9.625,0.5 z"
     id="path3228"
     style="fill:#caeef2;fill-opacity:0.22727272;fill-rule:evenodd;stroke:none;stroke-width:1;stroke-linecap:round;stroke-linejoin:round;marker:none;marker-start:none;marker-mid:none;marker-end:none;stroke-miterlimit:4;stroke-dasharray:none;stroke-dashoffset:0;stroke-opacity:1;visibility:visible;display:inline;overflow:visible;enable-background:accumulate" />
  <path
     d="M 9.625,0.5 C 6.7798842,0.5 4.2656648,1.7849458 2.59375,3.8125 L 0.5,17.09375 L 0.5,34.71875 L 11.59375,0.5 L 9.625,0.5 z M 17.40625,0.5 L 0.5,38.5 C 0.51470535,39.600701 0.72539208,40.652863 1.09375,41.625 L 27.75,0.5 L 17.40625,0.5 z M 35.53125,0.5 L 1.53125,42.59375 C 1.7953186,43.099852 2.1181083,43.586917 2.46875,44.03125 L 46.03125,4.6875 C 44.408215,2.1747993 41.60136,0.5 38.375,0.5 L 35.53125,0.5 z M 47.5,12.25 L 2.96875,44.625 C 3.3842378,45.067905 3.8472773,45.459817 4.34375,45.8125 L 47.5,23.75 L 47.5,12.25 z M 47.5,30.15625 L 5.28125,46.40625 C 6.4027867,47.013998 7.6535777,47.378382 9,47.46875 L 47.4375,39.25 C 47.464616,38.962185 47.5,38.670142 47.5,38.375 L 47.5,30.15625 z M 44.6875,45 L 20.875,47.5 L 38.375,47.5 C 40.823411,47.5 43.051218,46.558269 44.6875,45 z"
     id="path2843"
     style="fill:#e5eeaf;fill-opacity:0.21818183;fill-rule:evenodd;stroke:none;stroke-width:0.75539851px;stroke-linecap:butt;stroke-linejoin:miter;stroke-opacity:1" />
  <path
     d="M 9.625,0.5 C 4.5670164,0.5 0.5,4.5670164 0.5,9.625 L 0.5,38.375 C 0.5,43.432984 4.5670164,47.5 9.625,47.5 L 38.375,47.5 C 43.432984,47.5 47.5,43.432986 47.5,38.375 L 47.5,9.625 C 47.5,4.5670164 43.432986,0.5 38.375,0.5 L 9.625,0.5 z"
     id="path5032"
     style="fill:url(#radialGradient5040);fill-opacity:1;fill-rule:nonzero;stroke:none;stroke-width:1;stroke-linecap:butt;stroke-linejoin:round;marker:none;stroke-miterlimit:4;stroke-dasharray:none;stroke-dashoffset:0;stroke-opacity:1;visibility:visible;display:inline;overflow:visible;enable-background:accumulate" />
  <rect
     width="47"
     height="47"
     ry="9.1299343"
     x="0.5"
     y="0.5"
     id="r2393"
     style="fill:none;fill-opacity:1;fill-rule:nonzero;stroke:url(#linearGradient3496);stroke-width:1;stroke-linecap:butt;stroke-linejoin:round;marker:none;stroke-miterlimit:4;stroke-dasharray:none;stroke-dashoffset:0;stroke-opacity:1;visibility:visible;display:inline;overflow:visible;enable-background:accumulate" />
  <path
     d="M 18.5,12.3125 C 18.307214,12.321068 18.11189,12.32233 17.90625,12.34375 C 16.376809,12.49798 13.81604,14.469084 14.21875,17.34375 C 14.29158,17.579378 14.407009,17.802929 14.53125,18 L 14.25,19.40625 L 13.09375,19.34375 C 13.09375,19.16154 13.09375,18.918316 13.09375,18.75 C 13.09375,17.32766 11.379224,16.1875 9.25,16.1875 C 7.1207766,16.1875 5.375,17.327661 5.375,18.75 C 5.3749999,19.414042 5.375,20.023958 5.375,20.59375 C 5.3749999,21.657291 6.3661522,22.578156 7.75,22.96875 L 6.53125,23.71875 C 6.312758,23.855842 6.125,24.180451 6.125,24.4375 L 6.125,28.21875 C 6.1250001,28.475799 6.3127582,28.539058 6.53125,28.40625 L 7.8125,27.59375 L 7.84375,28.96875 C 6.5627927,29.386028 5.6875,30.26449 5.6875,31.28125 C 5.6875002,31.945294 5.6875,32.555208 5.6875,33.125 C 5.6875002,34.543054 7.4020265,35.71875 9.53125,35.71875 C 11.660473,35.718749 13.375,34.543054 13.375,33.125 C 13.375,33.099295 13.375,33.087768 13.375,33.0625 L 14.71875,33.09375 L 14.71875,34.28125 C 14.71875,34.672864 15.045886,35 15.4375,35 L 24.6875,35 C 25.079114,35 25.40625,34.672866 25.40625,34.28125 L 25.40625,32.875 L 26.375,32.90625 C 26.375,32.975073 26.375,33.057398 26.375,33.125 C 26.375,34.543054 28.089526,35.71875 30.21875,35.71875 C 32.347973,35.718749 34.0625,34.543054 34.0625,33.125 C 34.0625,32.777984 34.0625,32.561889 34.0625,32.28125 L 38.15625,30.21875 L 38.53125,30.21875 L 38.53125,31.5 C 38.531249,31.500001 38.063214,31.541322 36.59375,31.25 C 35.115719,31.25 35.218537,35.0625 36.59375,35.0625 C 37.729052,35.0625 38.75,35.0625 38.75,35.0625 L 42.40625,32.90625 L 42.40625,24.5 L 42.0625,23.65625 L 38.75,20.4375 C 38.749999,20.4375 37.72905,20.22706 36.59375,20 C 36.520921,19.987148 36.470512,19.995716 36.40625,20 C 35.847363,20.369587 35.499357,21.296908 35.53125,22.15625 L 34.03125,20.875 C 34.045966,20.783809 34.0625,20.687521 34.0625,20.59375 C 34.0625,19.835455 34.0625,19.272666 34.0625,18.75 C 34.0625,17.32766 32.347974,16.1875 30.21875,16.1875 C 28.138662,16.1875 26.452158,17.279552 26.375,18.65625 C 25.171735,18.480764 24.483141,18.242417 23.5,17.5625 C 23.461443,17.545363 23.444807,17.517137 23.40625,17.5 C 23.586184,17.00304 23.617434,16.411521 23.4375,15.6875 C 22.974812,13.811041 21.391803,12.231101 18.5,12.3125 z"
     id="path3340"
     style="opacity:1;fill:none;fill-opacity:1;fill-rule:evenodd;stroke:#ccfdf1;stroke-width:2.5;stroke-linecap:butt;stroke-linejoin:round;marker:none;marker-start:none;marker-mid:none;marker-end:none;stroke-miterlimit:4;stroke-dasharray:none;stroke-dashoffset:0;stroke-opacity:0.78181823;visibility:visible;display:inline;overflow:visible;enable-background:accumulate" />
  <rect
     width="47"
     height="47"
     ry="9.1299343"
     x="0.5"
     y="0.5"
     id="rect2629"
     style="fill:none;fill-opacity:1;fill-rule:nonzero;stroke:url(#linearGradient2736);stroke-width:1;stroke-linecap:butt;stroke-linejoin:round;marker:none;stroke-miterlimit:4;stroke-dasharray:none;stroke-dashoffset:0;stroke-opacity:1;visibility:visible;display:inline;overflow:visible;enable-background:accumulate" />
  <rect
     width="15.290138"
     height="6.7175503"
     ry="0"
     x="9.0525932"
     y="26.552717"
     id="r3717"
     style="fill:#333333;fill-opacity:1;fill-rule:evenodd;stroke:none;marker:none;visibility:visible;display:inline;overflow:visible;enable-background:accumulate" />
  <use
     transform="translate(-20.773853,-12.308369)"
     id="use3715"
     x="0"
     y="0"
     width="144"
     height="80"
     xlink:href="#g4217" />
  <use
     transform="translate(0,-12.308369)"
     id="use3708"
     x="0"
     y="0"
     width="144"
     height="80"
     xlink:href="#g4217" />
  <g
     transform="matrix(0.4284152,0,0,0.4284152,2.1979503,3.3197612)"
     id="g3703">
    <path
       d="M 79.84,38.93 C 77.36,40.57 76.83,46.99 80.31,47.87 C 83.74,47.87 84.84,48.18 84.84,48.18 L 84.84,65.75 C 84.84,65.75 83.74,65.86 80.31,65.18 C 76.86,65.18 77.1,74.06 80.31,74.06 C 82.96,74.06 85.31,74.06 85.31,74.06 L 93.87,69.09 L 93.87,49.43 L 93.02,47.49 L 85.31,39.93 C 85.31,39.93 82.96,39.49 80.31,38.96 C 80.14,38.93 79.99,38.92 79.84,38.93 z"
       id="p3664"
       style="opacity:1;fill:#265d9b;fill-opacity:1;fill-rule:evenodd;stroke:none;marker:none;visibility:visible;display:inline;overflow:visible;enable-background:accumulate" />
    <path
       d="M 80.3,38.95 C 77.65,38.43 76.87,44.52 80.3,45.2 C 83.74,45.87 84.84,46.4 84.84,46.4 L 84.84,65.75 C 84.84,65.75 83.74,65.84 80.3,65.17 C 76.87,64.49 77.65,70.86 80.3,71.39 C 82.96,71.91 85.3,72.37 85.3,72.37 L 93.09,67.68 L 93.09,47.56 L 85.3,39.93 C 85.3,39.93 82.96,39.47 80.3,38.95 z"
       id="p3673"
       style="opacity:1;fill:#006aff;fill-opacity:1;fill-rule:evenodd;stroke:none;marker:none;visibility:visible;display:inline;overflow:visible;enable-background:accumulate" />
    <path
       d="M 79.84,38.93 C 77.36,40.57 76.83,46.99 80.31,47.87 C 83.74,47.87 84.84,48.18 84.84,48.18 L 84.84,65.75 C 84.84,65.75 83.74,65.86 80.31,65.18 C 76.86,65.18 77.1,74.06 80.31,74.06 C 82.96,74.06 85.31,74.06 85.31,74.06 L 93.87,69.09 L 93.87,49.43 L 93.02,47.49 L 85.31,39.93 C 85.31,39.93 82.96,39.49 80.31,38.96 C 80.14,38.93 79.99,38.92 79.84,38.93 z"
       id="p3701"
       style="opacity:1;fill:none;fill-opacity:1;fill-rule:evenodd;stroke:#1f3242;stroke-width:0.69;stroke-linecap:butt;stroke-linejoin:miter;marker:none;stroke-miterlimit:4;stroke-dasharray:none;stroke-dashoffset:0;stroke-opacity:1;visibility:visible;display:inline;overflow:visible;enable-background:accumulate" />
  </g>
  <path
     d="M 23.44306,33.180301 L 32.928173,33.180301 L 37.854947,30.339908 L 37.854947,24.226423 L 34.264828,21.08614 L 23.108896,21.08614 L 23.44306,33.180301 z"
     id="p3751"
     style="fill:#333333;fill-opacity:1;fill-rule:evenodd;stroke:none" />
  <path
     d="M 23.134601,21.081855 L 23.147454,21.673068 L 8.6627357,21.673068 C 8.0415336,21.673068 7.5360037,22.174314 7.5360037,22.795516 L 7.5360037,31.256716 C 7.5360037,31.882203 8.0415336,32.383448 8.6627357,32.383448 L 30.297703,32.383448 C 30.589026,32.383448 30.846075,32.27206 31.04743,32.087842 L 32.936741,32.087842 L 37.846379,29.251733 L 37.846379,24.230707 L 34.260544,21.081855 L 23.134601,21.081855 z"
     id="p3684"
     style="fill:#535353;fill-opacity:1;fill-rule:evenodd;stroke:none" />
  <path
     d="M 23.134601,21.081855 L 23.147454,21.673068 L 8.6627357,21.673068 C 8.0415336,21.673068 7.5360037,22.174314 7.5360037,22.795516 L 7.5360037,31.256716 C 7.5360037,31.882203 8.0415336,32.383448 8.6627357,32.383448 L 30.297703,32.383448 C 30.589026,32.383448 30.846075,32.27206 31.04743,32.087842 L 32.936741,32.087842 L 37.846379,29.251733 L 37.846379,24.230707 L 34.260544,21.081855 L 23.134601,21.081855 z"
     id="p3719"
     style="fill:none;fill-opacity:1;fill-rule:evenodd;stroke:#252626;stroke-width:0.42841521px;stroke-linecap:butt;stroke-linejoin:miter;marker:none;stroke-miterlimit:4;stroke-dasharray:none;stroke-dashoffset:0;stroke-opacity:1;visibility:visible;display:inline;overflow:visible;enable-background:accumulate" />
  <g
     transform="matrix(0.4284152,0,0,0.4284152,2.1979503,3.7010507)"
     id="g3752">
    <rect
       width="17.690001"
       height="9.3599997"
       ry="2.6099999"
       x="12.82"
       y="37.669998"
       id="r3741"
       style="opacity:1;fill:#114a9b;fill-opacity:1;fill-rule:evenodd;stroke:none;marker:none;visibility:visible;display:inline;overflow:visible;enable-background:accumulate" />
    <path
       d="M 15.43,37.68 C 13.98,37.68 12.81,38.83 12.81,40.28 L 12.81,41.71 C 13.28,42.37 14.06,42.81 14.93,42.81 L 28.4,42.81 C 29.27,42.81 30.05,42.37 30.53,41.71 L 30.53,40.28 C 30.53,38.83 29.35,37.68 27.9,37.68 L 15.43,37.68 z"
       id="r3743"
       style="opacity:1;fill:#115ac1;fill-opacity:1;fill-rule:evenodd;stroke:none;marker:none;visibility:visible;display:inline;overflow:visible;enable-background:accumulate" />
    <rect
       width="17.690001"
       height="9.3599997"
       ry="2.6099999"
       x="12.82"
       y="37.669998"
       id="r3748"
       style="opacity:1;fill:none;fill-opacity:1;fill-rule:evenodd;stroke:#101a36;stroke-width:0.41999999px;stroke-linecap:butt;stroke-linejoin:miter;marker:none;stroke-miterlimit:4;stroke-dasharray:none;stroke-dashoffset:0;stroke-opacity:1;visibility:visible;display:inline;overflow:visible;enable-background:accumulate" />
    <path
       d="M 20.39,46.91 L 20.39,44.21 L 28.21,44.21 L 28.21,46.91"
       id="p3750"
       style="opacity:1;fill:none;fill-opacity:1;fill-rule:evenodd;stroke:#101a36;stroke-width:0.41999999px;stroke-linecap:butt;stroke-linejoin:miter;marker:none;stroke-miterlimit:4;stroke-dasharray:none;stroke-dashoffset:0;stroke-opacity:1;visibility:visible;display:inline;overflow:visible;enable-background:accumulate" />
  </g>
  <use
     transform="translate(0,-4.1684799)"
     id="use4046"
     x="0"
     y="0"
     width="144"
     height="80"
     xlink:href="#g4042" />
  <path
     d="M 19.70728,16.570643 L 14.52774,17.992982 C 13.910822,21.441724 14.900461,21.673068 14.80621,24.69768 L 17.23104,29.050378 C 17.23104,29.050378 22.787585,30.241372 24.325595,28.017897 C 24.372721,27.949351 24.411278,27.872236 24.445552,27.790837 C 24.449836,27.786553 24.445552,27.782269 24.445552,27.777985 L 24.929661,27.589482 L 24.873967,27.482378 C 27.200261,25.807275 24.766863,22.388522 23.066055,20.482074 C 23.528743,19.599539 23.77294,18.905506 23.511606,17.54743 C 21.819366,17.560282 20.636941,17.997266 19.70728,16.570643 z"
     id="p3741"
     style="fill:#414b96;fill-opacity:1;fill-rule:evenodd;stroke:none" />
  <path
     d="M 23.297399,20.734839 C 23.04035,20.764828 22.894689,21.017593 22.920394,21.604522 C 23.031781,24.110751 24.3513,27.242466 25.597989,26.638401 C 25.602273,26.638401 25.606557,26.629832 25.610841,26.625548 C 26.437682,24.907603 24.711169,22.375669 23.297399,20.734839 z"
     id="p4048"
     style="fill:#a9afda;fill-opacity:1;fill-rule:evenodd;stroke:none" />
  <path
     d="M 19.70728,16.570643 L 14.52774,17.992982 C 13.910822,21.441724 14.900461,21.673068 14.80621,24.69768 L 17.23104,29.050378 C 17.23104,29.050378 22.787585,30.241372 24.325595,28.017897 C 24.372721,27.949351 24.411278,27.872236 24.445552,27.790837 C 24.449836,27.786553 24.445552,27.782269 24.445552,27.777985 L 24.929661,27.589482 L 24.873967,27.482378 C 27.200261,25.807275 24.766863,22.388522 23.066055,20.482074 C 23.528743,19.599539 23.77294,18.905506 23.511606,17.54743 C 21.819366,17.560282 20.636941,17.997266 19.70728,16.570643 z"
     id="p3688"
     style="fill:none;fill-opacity:1;fill-rule:evenodd;stroke:#262b4c;stroke-width:0.2142076;stroke-linecap:butt;stroke-linejoin:miter;stroke-miterlimit:4;stroke-dasharray:none;stroke-opacity:1" />
  <path
     d="M 13.936527,19.385331 C 13.272483,19.36391 12.899762,19.505287 13.066844,20.910489 C 13.255347,22.517046 13.580942,24.971865 13.628068,26.102882 C 13.675194,27.165351 15.088964,27.281023 15.812985,30.134269 L 16.091455,31.552323 L 23.160306,31.488061 L 23.04035,30.883995 L 23.083191,30.738334 C 22.843279,28.090728 20.808307,28.750487 18.636242,28.514859 C 16.554144,28.287799 17.496657,25.73016 15.050406,24.723385 L 14.244986,19.398184 C 14.137882,19.389615 14.030778,19.385331 13.936527,19.385331 z"
     id="p3743"
     style="fill:#6c5353;fill-rule:evenodd;stroke:none" />
  <path
     d="M 14.900461,26.372783 C 14.437773,26.368499 14.09504,26.56557 13.962232,26.882597 C 14.420636,27.448105 15.238909,28.073591 15.757291,29.971471 C 15.770144,30.00146 15.78728,30.035733 15.800133,30.065722 C 15.804417,30.091427 15.804417,30.112848 15.812985,30.134269 C 15.885816,30.344192 15.962931,30.562684 16.027193,30.815449 L 16.172854,31.552323 L 22.894689,31.488061 C 22.487694,29.315996 20.555542,29.890072 18.503433,29.667296 C 16.768351,29.474509 17.12822,27.670881 15.877248,26.492739 C 15.517379,26.419909 15.191783,26.372783 14.900461,26.372783 z"
     id="p3736"
     style="fill:#523f46;fill-opacity:1;fill-rule:evenodd;stroke:none;marker:none;visibility:visible;display:inline;overflow:visible;enable-background:accumulate" />
  <path
     d="M 13.936527,19.385331 C 13.272483,19.36391 12.899762,19.505287 13.066844,20.910489 C 13.255347,22.517046 13.580942,24.971865 13.628068,26.102882 C 13.675194,27.165351 15.088964,27.281023 15.812985,30.134269 L 16.091455,31.552323 L 23.160306,31.488061 L 23.04035,30.883995 L 23.083191,30.738334 C 22.843279,28.090728 20.808307,28.750487 18.636242,28.514859 C 16.554144,28.287799 17.496657,25.73016 15.050406,24.723385 L 14.244986,19.398184 C 14.137882,19.389615 14.030778,19.385331 13.936527,19.385331 z"
     id="p3692"
     style="fill:none;fill-rule:evenodd;stroke:#423830;stroke-width:0.2142076;stroke-linecap:butt;stroke-linejoin:miter;stroke-miterlimit:4;stroke-dasharray:none;stroke-opacity:1" />
  <use
     transform="translate(0,7.5186868)"
     id="use3758"
     x="0"
     y="0"
     width="144"
     height="80"
     xlink:href="#g3752" />
  <g
     transform="matrix(0.4284152,0,0,0.4284152,4.0615564,3.7824496)"
     id="g3731">
    <rect
       width="12.9"
       height="8.6000004"
       ry="2.95"
       x="23.26"
       y="58.380001"
       id="r3747"
       style="opacity:1;fill:#44707c;fill-opacity:1;fill-rule:evenodd;stroke:#2f2f2f;stroke-width:0.5;stroke-linecap:butt;stroke-linejoin:miter;marker:none;stroke-miterlimit:4;stroke-dasharray:none;stroke-dashoffset:0;stroke-opacity:1;visibility:visible;display:inline;overflow:visible;enable-background:accumulate" />
    <path
       d="M 30.25,58.39 L 30.25,66.79"
       id="p3721"
       style="fill:none;fill-rule:evenodd;stroke:#2f2f2f;stroke-width:0.5;stroke-linecap:butt;stroke-linejoin:miter;stroke-miterlimit:4;stroke-dasharray:none;stroke-opacity:1" />
    <path
       d="M 31.21,58.39 L 31.21,66.79"
       id="p3725"
       style="fill:none;fill-rule:evenodd;stroke:#2f2f2f;stroke-width:0.5;stroke-linecap:butt;stroke-linejoin:miter;stroke-miterlimit:4;stroke-dasharray:none;stroke-opacity:1" />
    <path
       d="M 32.17,58.39 L 32.17,66.79"
       id="p3727"
       style="fill:none;fill-rule:evenodd;stroke:#2f2f2f;stroke-width:0.5;stroke-linecap:butt;stroke-linejoin:miter;stroke-miterlimit:4;stroke-dasharray:none;stroke-opacity:1" />
    <path
       d="M 33.05,58.39 L 33.05,66.79"
       id="p3729"
       style="fill:none;fill-rule:evenodd;stroke:#2f2f2f;stroke-width:0.5;stroke-linecap:butt;stroke-linejoin:miter;stroke-miterlimit:4;stroke-dasharray:none;stroke-opacity:1" />
  </g>
  <g
     transform="matrix(0.4284152,0,0,0.4284152,2.1979503,3.3197612)"
     id="g4242">
    <rect
       width="24.940001"
       height="9.9700003"
       ry="1.65"
       x="29.219999"
       y="63.959999"
       id="r4086"
       style="opacity:1;fill:#115ac1;fill-opacity:1;fill-rule:evenodd;stroke:none;marker:none;visibility:visible;display:inline;overflow:visible;enable-background:accumulate" />
    <path
       d="M 30.87,67.28 C 29.95,67.28 29.21,67.99 29.21,68.9 L 29.21,72.28 C 29.21,73.19 29.95,73.93 30.87,73.93 L 52.53,73.93 C 53.44,73.93 54.18,73.19 54.18,72.28 L 54.18,68.9 C 54.18,67.99 53.44,67.28 52.53,67.28 L 30.87,67.28 z"
       id="r4206"
       style="opacity:1;fill:#114a9b;fill-opacity:1;fill-rule:evenodd;stroke:none;marker:none;visibility:visible;display:inline;overflow:visible;enable-background:accumulate" />
    <path
       d="M 31.93,63.96 L 31.93,73.93 L 38,73.93 L 38,63.96 L 31.93,63.96 z"
       id="r4225"
       style="opacity:1;fill:#b4c111;fill-opacity:1;fill-rule:evenodd;stroke:none;marker:none;visibility:visible;display:inline;overflow:visible;enable-background:accumulate" />
    <path
       d="M 35.25,70.37 C 34.87,70.37 34.56,70.65 34.56,71.03 L 34.56,73.93 L 48,73.93 L 48,71.03 C 48,70.65 47.68,70.37 47.31,70.37 L 35.25,70.37 z"
       id="r4235"
       style="opacity:1;fill:#ddd9b4;fill-opacity:1;fill-rule:evenodd;stroke:none;marker:none;visibility:visible;display:inline;overflow:visible;enable-background:accumulate" />
    <path
       d="M 31.93,67.28 L 31.93,73.93 L 38,73.93 L 38,67.28 L 31.93,67.28 z"
       id="p4230"
       style="opacity:1;fill:#a89919;fill-opacity:1;fill-rule:evenodd;stroke:none;marker:none;visibility:visible;display:inline;overflow:visible;enable-background:accumulate" />
    <rect
       width="24.940001"
       height="9.9700003"
       ry="1.65"
       x="29.219999"
       y="63.959999"
       id="r4240"
       style="opacity:1;fill:none;fill-opacity:1;fill-rule:evenodd;stroke:#101a36;stroke-width:0.41999999px;stroke-linecap:butt;stroke-linejoin:miter;marker:none;stroke-miterlimit:4;stroke-dasharray:none;stroke-dashoffset:0;stroke-opacity:1;visibility:visible;display:inline;overflow:visible;enable-background:accumulate" />
  </g>
  <path
     d="M 23.361661,17.466031 C 25.345224,18.314293 25.169573,19.929419 23.284546,19.873725 C 22.804721,19.895145 23.751519,19.333921 23.361661,17.466031 z"
     id="p3723"
     style="fill:#cb7c2f;fill-opacity:1;fill-rule:evenodd;stroke:#6f3d19;stroke-width:0.2142076;stroke-linecap:butt;stroke-linejoin:miter;stroke-miterlimit:4;stroke-dasharray:none;stroke-opacity:1" />
  <path
     d="M 14.223565,17.346075 C 13.820855,14.471409 16.365641,12.492131 17.895083,12.333617 C 21.17246,11.999453 22.950383,13.674557 23.44306,15.675256 C 24.214207,18.806971 21.103913,19.616675 18.631957,19.685222 C 17.213903,19.723779 14.823346,19.282512 14.223565,17.346075 z"
     id="p3733"
     style="fill:#71bcc2;fill-opacity:1;fill-rule:evenodd;stroke:none" />
  <g
     transform="matrix(0.4284152,0,0,0.4284152,2.1979503,3.3197612)"
     id="g4058">
    <path
       d="M 47.56,60.19 C 50.68,58.63 53.33,58.94 55.52,60.34 C 56.14,61.44 60.97,55.35 61.29,52.55 C 61.6,49.74 59.88,49.58 59.26,49.43 C 58.63,49.27 58.32,49.58 57.7,49.58 C 57.23,52.08 56.14,55.67 55.2,56.76 C 54.11,56.76 53.18,57.23 53.18,57.23 C 53.18,57.23 51.15,56.45 49.74,57.07 C 48.17,58.15 46.67,60.75 47.56,60.19 z"
       id="p3730"
       style="fill:#c87630;fill-opacity:1;fill-rule:evenodd;stroke:none" />
    <path
       d="M 58.46,49.43 C 58.23,49.49 58.03,49.59 57.71,49.59 C 57.25,52.08 56.15,55.65 55.21,56.75 C 54.12,56.75 53.18,57.21 53.18,57.21 C 53.18,57.21 51.15,56.43 49.75,57.06 C 49.54,57.2 49.32,57.37 49.12,57.56 C 53.02,57.54 53.28,57.97 53.84,58.15 C 54.34,57.85 55.96,57.66 56.56,58.06 C 58.75,55.22 61.41,50.64 58.62,49.43 C 58.57,49.44 58.51,49.42 58.46,49.43 z"
       id="p4053"
       style="fill:#f1a21f;fill-opacity:1;fill-rule:evenodd;stroke:none" />
    <path
       d="M 47.56,60.19 C 50.68,58.63 53.33,58.94 55.52,60.34 C 56.14,61.44 60.97,55.35 61.29,52.55 C 61.6,49.74 59.88,49.58 59.26,49.43 C 58.63,49.27 58.32,49.58 57.7,49.58 C 57.23,52.08 56.14,55.67 55.2,56.76 C 54.11,56.76 53.18,57.23 53.18,57.23 C 53.18,57.23 51.15,56.45 49.74,57.07"
       id="p4120"
       style="fill:none;fill-opacity:1;fill-rule:evenodd;stroke:#393029;stroke-width:0.5;stroke-linecap:round;stroke-linejoin:miter;stroke-miterlimit:4;stroke-dasharray:none;stroke-opacity:1" />
  </g>
  <g
     transform="matrix(0.4284152,0,0,0.4284152,2.1979503,3.3197612)"
     id="g4064">
    <path
       d="M 57.01,65.33 L 54.8,65.33 L 54.8,60.81 C 54.8,60.81 58.77,54.63 59.77,53.2 C 60.76,51.76 67.15,54.96 66.27,56.73 C 65.39,58.49 62.08,65.66 62.08,65.66 L 57.01,65.33 z"
       id="p3755"
       style="fill:#a99566;fill-opacity:1;fill-rule:evenodd;stroke:none" />
    <path
       d="M 60.4,58.12 C 59.92,58.1 59.56,58.23 59.37,58.5 C 58.49,59.76 55.63,64.2 54.9,65.34 L 57,65.34 L 62.09,65.65 C 62.18,65.45 62.41,64.96 62.56,64.65 C 62.98,63.73 63.73,62.13 64.75,59.96 C 63.52,59 61.62,58.16 60.4,58.12 z"
       id="p3690"
       style="fill:#967a54;fill-opacity:1;fill-rule:evenodd;stroke:none" />
    <path
       d="M 57.01,65.33 L 54.8,65.33 L 54.8,60.81 C 54.8,60.81 58.77,54.63 59.77,53.2 C 60.76,51.76 67.15,54.96 66.27,56.73 C 65.39,58.49 62.08,65.66 62.08,65.66 L 57.01,65.33 z"
       id="p2918"
       style="fill:none;fill-opacity:1;fill-rule:evenodd;stroke:#3d3428;stroke-width:0.5;stroke-linecap:butt;stroke-linejoin:miter;stroke-miterlimit:4;stroke-dasharray:none;stroke-opacity:1" />
  </g>
  <path
     d="M 30.164895,24.41921 L 29.012458,26.599843 L 29.680785,26.959712 L 30.846075,24.779079 L 30.164895,24.41921 z"
     id="p3757"
     style="fill:#7a7a7a;fill-opacity:1;fill-rule:evenodd;stroke:#333232;stroke-width:0.12852457;stroke-linecap:butt;stroke-linejoin:miter;stroke-miterlimit:4;stroke-dasharray:none;stroke-opacity:1" />
  <use
     transform="translate(0,-4.4426656)"
     id="use4062"
     x="0"
     y="0"
     width="144"
     height="80"
     xlink:href="#g4058" />
  <g
     transform="matrix(0.4284152,0,0,0.4284152,2.1979503,3.3197612)"
     id="g3693">
    <path
       d="M 81.25,47.24 C 75.32,44.59 67.06,38.98 60.82,38.2 C 60.19,38.51 58.95,38.98 58.95,38.98 C 58.95,38.98 59.88,41.01 59.88,43.35 C 59.88,45.68 59.57,48.34 59.57,48.34 L 61.6,48.49 C 61.6,48.49 64.9,48.99 66.74,51.46 C 68.15,53.33 69.71,55.35 72.51,56.29 C 76.5,57.62 80.78,61.59 80.78,61.59 L 80.94,61.58 C 83.92,63.12 83.36,60.37 83.36,55.62 C 83.36,50.88 83.81,48.24 81.25,47.24 z"
       id="p3749"
       style="fill:#2580ff;fill-opacity:1;fill-rule:evenodd;stroke:none" />
    <path
       d="M 60.75,38.25 C 60.11,38.56 58.93,38.96 58.93,38.96 C 58.93,38.96 59.87,41 59.87,43.34 C 59.87,45.68 59.56,48.34 59.56,48.34 L 61.53,48.5 C 61.75,47.19 61.96,45.56 61.96,43.93 C 61.96,42.09 61.35,39.93 60.75,38.25 z"
       id="p2883"
       style="fill:#279cff;fill-opacity:1;fill-rule:evenodd;stroke:none" />
    <path
       d="M 59.68,47.06 C 59.62,47.7 59.56,48.34 59.56,48.34 L 61.59,48.5 C 61.59,48.5 64.9,49 66.75,51.46 C 68.15,53.34 69.72,55.34 72.53,56.28 C 76.51,57.6 80.78,61.59 80.78,61.59 L 80.93,61.59 C 82,62.14 82.61,62.12 82.96,61.68 C 77.76,56.63 69.15,51.04 67.15,49.34 C 65.25,47.72 62.86,47.18 59.68,47.06 z"
       id="p2885"
       style="fill:#274966;fill-opacity:0.65;fill-rule:evenodd;stroke:none" />
    <path
       d="M 81.25,47.24 C 75.32,44.59 67.06,38.98 60.82,38.2 C 60.19,38.51 58.95,38.98 58.95,38.98 C 58.95,38.98 59.88,41.01 59.88,43.35 C 59.88,45.68 59.57,48.34 59.57,48.34 L 61.6,48.49 C 61.6,48.49 64.9,48.99 66.74,51.46 C 68.15,53.33 69.71,55.35 72.51,56.29 C 76.5,57.62 80.78,61.59 80.78,61.59 L 80.94,61.58 C 83.92,63.12 83.36,60.37 83.36,55.62 C 83.36,50.88 83.81,48.24 81.25,47.24 z"
       id="p3691"
       style="fill:none;fill-opacity:1;fill-rule:evenodd;stroke:#27323d;stroke-width:0.5;stroke-linecap:butt;stroke-linejoin:miter;stroke-miterlimit:4;stroke-dasharray:none;stroke-opacity:1" />
  </g>
  <g
     transform="matrix(0.4284152,0,0,0.4284152,2.1979503,3.3197612)"
     id="g4115">
    <path
       d="M 73.66,63.56 L 76.53,62.24 C 76.53,62.24 78.29,57.06 78.95,54.96 C 79.62,52.87 76.64,51.54 75.76,52.98 C 74.87,54.41 71.68,59.26 71.68,59.26 L 69.03,61.03 L 73.66,63.56 z"
       id="p3753"
       style="fill:#ad9e62;fill-opacity:1;fill-rule:evenodd;stroke:none" />
    <path
       d="M 75.96,52.71 C 75.88,52.79 75.81,52.86 75.75,52.96 C 74.86,54.4 71.68,59.28 71.68,59.28 L 69.03,61.03 L 72.56,62.96 L 75.43,61.65 C 75.43,61.65 77.11,57.4 77.78,55.31 C 78.21,53.92 77.05,52.85 75.96,52.71 z"
       id="p4108"
       style="fill:#baad7a;fill-opacity:1;fill-rule:evenodd;stroke:none" />
    <path
       d="M 73.66,63.56 L 76.53,62.24 C 76.53,62.24 78.29,57.06 78.95,54.96 C 79.62,52.87 76.64,51.54 75.76,52.98 C 74.87,54.41 71.68,59.26 71.68,59.26 L 69.03,61.03 L 73.66,63.56 z"
       id="p4113"
       style="fill:none;fill-opacity:1;fill-rule:evenodd;stroke:#393329;stroke-width:0.5;stroke-linecap:butt;stroke-linejoin:miter;stroke-miterlimit:4;stroke-dasharray:none;stroke-opacity:1" />
  </g>
  <g
     transform="matrix(0.4284152,0,0,0.4284152,2.1979503,3.3197612)"
     id="g4217">
    <path
       d="M 65.4,59.28 C 60.43,59.28 56.4,61.96 56.4,65.28 C 56.4,66.83 56.4,68.26 56.4,69.59 C 56.4,72.9 60.43,75.59 65.4,75.59 C 70.37,75.59 74.4,72.9 74.4,69.59 C 74.4,67.82 74.4,66.5 74.4,65.28 C 74.4,61.96 70.37,59.28 65.4,59.28 z"
       id="p4102"
       style="fill:#3f4556;fill-opacity:1;fill-rule:evenodd;stroke:none;marker:none;visibility:visible;display:inline;overflow:visible;enable-background:accumulate" />
    <path
       d="M 25,71.5 C 25,74.813708 20.970563,77.5 16,77.5 C 11.029437,77.5 7,74.813708 7,71.5 C 7,68.186292 11.029437,65.5 16,65.5 C 20.970563,65.5 25,68.186292 25,71.5 z"
       transform="translate(49.4,-1.92)"
       id="p3312"
       style="fill:#5c6477;fill-opacity:1;fill-rule:evenodd;stroke:none;marker:none;visibility:visible;display:inline;overflow:visible;enable-background:accumulate" />
    <path
       d="M 65.4,65.62 C 61.4,65.62 58.15,67.8 58.15,70.46 C 58.15,73.13 61.4,75.28 65.4,75.28 C 69.4,75.28 72.65,73.13 72.65,70.46 C 72.65,67.8 69.4,65.62 65.4,65.62 z"
       id="p4098"
       style="fill:#353944;fill-opacity:1;fill-rule:evenodd;stroke:none;marker:none;visibility:visible;display:inline;overflow:visible;enable-background:accumulate" />
    <path
       d="M 65.4,68.31 C 63.63,68.31 62.18,69.28 62.18,70.46 C 62.18,71.65 63.63,72.59 65.4,72.59 C 67.18,72.59 68.62,71.65 68.62,70.46 C 68.62,69.28 67.18,68.31 65.4,68.31 z"
       id="p4100"
       style="opacity:1;fill:#3f4656;fill-opacity:1;fill-rule:evenodd;stroke:none;marker:none;visibility:visible;display:inline;overflow:visible;enable-background:accumulate" />
    <path
       d="M 65.4,68.31 C 63.92,68.31 62.68,68.99 62.31,69.9 C 62.68,70.81 63.92,71.5 65.4,71.5 C 66.89,71.5 68.12,70.81 68.5,69.9 C 68.12,68.99 66.89,68.31 65.4,68.31 z"
       id="p4107"
       style="fill:#cbc27d;fill-opacity:1;fill-rule:evenodd;stroke:none;marker:none;visibility:visible;display:inline;overflow:visible;enable-background:accumulate" />
    <path
       d="M 65.4,59.28 C 60.43,59.28 56.4,61.96 56.4,65.28 C 56.4,66.83 56.4,68.26 56.4,69.59 C 56.4,72.9 60.43,75.59 65.4,75.59 C 70.37,75.59 74.4,72.9 74.4,69.59 C 74.4,67.82 74.4,66.5 74.4,65.28 C 74.4,61.96 70.37,59.28 65.4,59.28 z"
       id="p4112"
       style="fill:none;fill-opacity:1;fill-rule:evenodd;stroke:#121319;stroke-width:0.69;stroke-linecap:round;stroke-linejoin:round;marker:none;stroke-miterlimit:4;stroke-dasharray:none;stroke-dashoffset:0;stroke-opacity:1;visibility:visible;display:inline;overflow:visible;enable-background:accumulate" />
  </g>
  <path
     d="M 18.49058,12.299344 C 18.297794,12.307912 18.105007,12.320765 17.899367,12.342185 C 16.369925,12.496415 13.816571,14.475693 14.219281,17.350359 C 14.330669,17.710228 14.506319,18.018687 14.729095,18.284304 C 16.819761,13.468917 21.433793,15.259693 23.241705,17.830184 C 23.554448,17.277528 23.665836,16.574927 23.44306,15.675256 C 22.980372,13.798797 21.382383,12.217945 18.49058,12.299344 z"
     id="p3754"
     style="fill:#b8dee1;fill-opacity:1;fill-rule:evenodd;stroke:none" />
  <g
     transform="matrix(0.4284152,0,0,0.4284152,2.1979503,3.3197612)"
     id="g4101">
    <path
       d="M 57.43,35.84 C 57.03,35.83 56.53,36.23 55.96,37.09 C 54.46,39.38 53.08,44.01 52.9,47.43 C 52.78,49.72 53.26,50.8 53.78,50.75 C 54.41,50.78 55.03,50.87 55.65,50.93 C 56.05,50.95 56.55,50.58 57.12,49.71 C 58.62,47.43 59.98,42.8 60.15,39.37 C 60.27,37.05 59.8,36.23 59.06,36.09 C 58.4,35.98 57.96,35.94 57.43,35.84 z"
       id="p4074"
       style="opacity:1;fill:#a3b3bd;fill-opacity:1;fill-rule:evenodd;stroke:none;marker:none;visibility:visible;display:inline;overflow:visible;enable-background:accumulate" />
    <path
       d="M 57.43,35.84 C 57.03,35.83 56.53,36.23 55.96,37.09 C 54.46,39.38 53.08,44.01 52.9,47.43 C 52.73,50.86 53.81,51.78 55.31,49.5 C 56.81,47.21 58.2,42.58 58.37,39.15 C 58.48,37.01 58.1,35.85 57.43,35.84 z"
       id="p4072"
       style="opacity:1;fill:#5d7589;fill-opacity:1;fill-rule:evenodd;stroke:none;marker:none;visibility:visible;display:inline;overflow:visible;enable-background:accumulate" />
    <path
       d="M 56.5,39.75 C 56.3,39.74 56.05,39.93 55.78,40.34 C 55.06,41.43 54.42,43.64 54.34,45.28 C 54.26,46.91 54.78,47.37 55.5,46.28 C 56.21,45.18 56.85,42.97 56.93,41.34 C 56.98,40.32 56.81,39.75 56.5,39.75 z"
       id="p4085"
       style="opacity:1;fill:#a3b3bd;fill-opacity:1;fill-rule:evenodd;stroke:none;marker:none;visibility:visible;display:inline;overflow:visible;enable-background:accumulate" />
    <path
       d="M 56.68,41.34 C 56.56,41.34 56.42,41.45 56.25,41.71 C 55.78,42.42 55.36,43.85 55.31,44.9 C 55.27,45.66 55.42,46.02 55.68,45.9 C 55.68,45.9 55.71,45.91 55.71,45.9 C 56.31,44.79 56.79,43 56.9,41.56 C 56.9,41.55 56.9,41.53 56.9,41.53 C 56.85,41.41 56.76,41.34 56.68,41.34 z"
       id="p4094"
       style="opacity:1;fill:#688399;fill-opacity:1;fill-rule:evenodd;stroke:none;marker:none;visibility:visible;display:inline;overflow:visible;enable-background:accumulate" />
    <path
       d="M 57.43,35.84 C 57.03,35.83 56.53,36.23 55.96,37.09 C 54.46,39.38 53.08,44.01 52.9,47.43 C 52.78,49.72 53.26,50.8 53.78,50.75 C 54.41,50.78 55.03,50.87 55.65,50.93 C 56.05,50.95 56.55,50.58 57.12,49.71 C 58.62,47.43 59.98,42.8 60.15,39.37 C 60.27,37.05 59.8,36.23 59.06,36.09 C 58.4,35.98 57.96,35.94 57.43,35.84 z"
       id="p4099"
       style="opacity:1;fill:none;fill-opacity:1;fill-rule:evenodd;stroke:#252e3e;stroke-width:0.5;stroke-linecap:butt;stroke-linejoin:miter;marker:none;stroke-miterlimit:4;stroke-dasharray:none;stroke-dashoffset:0;stroke-opacity:1;visibility:visible;display:inline;overflow:visible;enable-background:accumulate" />
  </g>
  <g
     transform="matrix(0.4284152,0,0,0.4284152,2.1979503,3.3197612)"
     id="g4042">
    <path
       d="M 42.1,46.15 C 48.65,44.9 56.92,43.81 56.92,46.15 C 56.92,48.49 52.86,52.86 48.34,52.86"
       id="p3714"
       style="opacity:1;fill:#4550a0;fill-opacity:1;fill-rule:evenodd;stroke:none;marker:none;visibility:visible;display:inline;overflow:visible;enable-background:accumulate" />
    <path
       d="M 53.25,46.9 C 50.8,46.79 47.16,47.24 43.68,47.84 L 48.34,52.87 C 51.72,52.87 54.85,50.42 56.21,48.21 C 56.21,48.2 56.21,48.19 56.21,48.18 C 56.14,47.37 54.98,46.98 53.25,46.9 z"
       id="p4037"
       style="opacity:1;fill:#3a4386;fill-opacity:1;fill-rule:evenodd;stroke:none;marker:none;visibility:visible;display:inline;overflow:visible;enable-background:accumulate" />
  </g>
  <use
     transform="translate(-20.692454,0)"
     id="use3710"
     x="0"
     y="0"
     width="144"
     height="80"
     xlink:href="#g4217" />
  <path
     d="M 26.523365,18.742708 C 26.107803,18.352851 25.178142,18.357135 24.608349,18.40426 C 24.415563,18.095801 24.042841,17.800195 23.511606,17.54743 C 23.473049,17.530293 23.44306,17.513157 23.404503,17.49602 C 23.584437,16.999059 23.622994,16.399277 23.44306,15.675256 C 22.980372,13.798797 21.382383,12.217945 18.49058,12.299344 C 18.297794,12.307912 18.105007,12.320765 17.899367,12.342185 C 16.369925,12.496415 13.816571,14.475693 14.219281,17.350359 C 14.292111,17.585987 14.403499,17.795911 14.52774,17.992982 C 14.52774,17.992982 14.523456,18.00155 14.52774,18.005834 L 14.244986,19.398184"
     id="p3694"
     style="fill:none;fill-rule:evenodd;stroke:#000000;stroke-width:0.29560649;stroke-linecap:butt;stroke-linejoin:miter;stroke-miterlimit:4;stroke-dasharray:none;stroke-opacity:1" />
  <path
     d="M 20.23423,23.091123 C 23.04035,22.555604 26.583343,22.088631 26.583343,23.091123 C 26.583343,24.093614 24.843978,25.965789 22.907541,25.965789"
     id="p3710"
     style="fill:none;fill-opacity:1;fill-rule:evenodd;stroke:#262b4c;stroke-width:0.2142076;stroke-linecap:round;stroke-linejoin:miter;marker:none;stroke-miterlimit:4;stroke-dasharray:none;stroke-dashoffset:0;stroke-opacity:1;visibility:visible;display:inline;overflow:visible;enable-background:accumulate" />
  <path
     d="M 9.236812,22.088631 C 9.1896864,22.092915 9.1297082,22.105768 9.0782984,22.140041 L 6.5206597,23.733745 C 6.3021679,23.870838 6.1308018,24.187866 6.1308018,24.444915 L 6.1308018,28.2064 C 6.1308018,28.463449 6.3021679,28.553416 6.5206597,28.420608 L 9.0782984,26.826903 C 9.292506,26.694095 9.4767245,26.385636 9.4810087,26.132871 L 9.4810087,22.367101 C 9.4810087,22.178598 9.3781891,22.071495 9.236812,22.088631 z"
     id="r3739"
     style="fill:#9c8d5c;fill-opacity:1;fill-rule:evenodd;stroke:#342f2a;stroke-width:0.16279778;stroke-linecap:butt;stroke-linejoin:miter;marker:none;stroke-miterlimit:4;stroke-dasharray:none;stroke-dashoffset:0;stroke-opacity:1;visibility:visible;display:inline;overflow:visible;enable-background:accumulate" />
</svg>
