<?xml version="1.0" encoding="UTF-8" standalone="no"?>
<svg
   xmlns:dc="http://purl.org/dc/elements/1.1/"
   xmlns:cc="http://creativecommons.org/ns#"
   xmlns:rdf="http://www.w3.org/1999/02/22-rdf-syntax-ns#"
   xmlns:svg="http://www.w3.org/2000/svg"
   xmlns="http://www.w3.org/2000/svg"
   width="100%"
   height="100%"
   id="SVGRoot"
   version="1.1"
   viewBox="0 0 32 32">
  <defs
     id="defs6229" />
  <metadata
     id="metadata6232">
    <rdf:RDF>
      <cc:Work
         rdf:about="">
        <dc:format>image/svg+xml</dc:format>
        <dc:type
           rdf:resource="http://purl.org/dc/dcmitype/StillImage" />
        <dc:title></dc:title>
      </cc:Work>
    </rdf:RDF>
  </metadata>
  <rect
     ry="4.5"
     rx="4.5"
     y="0.25000301"
     x="-31.75"
     height="31.5"
     width="31.5"
     id="rect5094-5-4"
     style="color:#000000;clip-rule:nonzero;display:inline;overflow:visible;visibility:visible;opacity:1;isolation:auto;mix-blend-mode:normal;color-interpolation:sRGB;color-interpolation-filters:linearRGB;solid-color:#000000;solid-opacity:1;fill:#ffffff;fill-opacity:1;fill-rule:evenodd;stroke:#000000;stroke-width:0.5;stroke-linecap:butt;stroke-linejoin:miter;stroke-miterlimit:4;stroke-dasharray:none;stroke-dashoffset:0;stroke-opacity:1;marker:none;marker-start:none;marker-mid:none;marker-end:none;color-rendering:auto;image-rendering:auto;shape-rendering:auto;text-rendering:auto;enable-background:accumulate"
     transform="scale(-1,1)" />
  <path
     style="display:inline;overflow:visible;visibility:visible;fill:#ffffff;fill-opacity:1;stroke:#000000;stroke-width:0.5;stroke-linecap:round;stroke-linejoin:miter;stroke-miterlimit:4;stroke-dashoffset:0;stroke-opacity:1;marker:none;enable-background:accumulate"
     d="m 13.349609,19.03125 c -1.04707,0.04015 -1.501057,0.229593 -1.835937,1.011719 -0.5358,1.251401 -2.0214845,4.50942 -2.0214845,6.253906 0,1.319739 0.025029,2.809256 0.042969,4.125 H 22.492188 c 0.01793,-1.315744 0.04492,-2.805259 0.04492,-4.125 0,-0.27684 -0.04623,-0.600448 -0.111328,-0.939453 0.19158,-0.155337 0.393048,-0.333624 0.609375,-0.523438 0.827141,-0.725749 1.450811,-1.356809 1.054688,-1.80664 l -2.025391,-2.300782 c -0.406431,-0.461537 -0.97535,-0.682964 -1.542969,-0.669921 -0.0015,-0.0034 -0.0044,-0.01028 -0.0059,-0.01367 -0.33489,-0.782126 -0.790821,-0.971564 -1.837891,-1.011719 -0.87773,-0.0044 -1.754952,-0.01143 -2.632812,0 -0.0204,-2.87e-4 -0.04015,2.66e-4 -0.06055,0 -0.87787,-0.01143 -1.757046,-0.0044 -2.634766,0 z"
     id="path5543-9-7" />
  <path
     style="color:#000000;clip-rule:nonzero;display:inline;overflow:visible;visibility:visible;opacity:1;isolation:auto;mix-blend-mode:normal;color-interpolation:sRGB;color-interpolation-filters:linearRGB;solid-color:#000000;solid-opacity:1;fill:#ffffff;fill-opacity:1;fill-rule:evenodd;stroke:#000000;stroke-width:0.5;stroke-linecap:butt;stroke-linejoin:miter;stroke-miterlimit:4;stroke-dasharray:none;stroke-dashoffset:0;stroke-opacity:1;marker:none;color-rendering:auto;image-rendering:auto;shape-rendering:auto;text-rendering:auto;enable-background:accumulate"
     d="m 15.996346,4.277332 c 4.39443,0 7.949629,3.972546 7.949629,8.848665 0,0.914273 -0.11618,1.797303 -0.34888,2.626951 -1.445449,2.86789 -2.648579,3.439254 -3.663319,4.175462 -0.92737,0.672829 -1.50394,1.672522 -3.09013,1.9633 -0.0159,0.002 -0.0333,-0.0019 -0.0499,0 -0.26752,0.03019 -0.52282,0.0553 -0.79747,0.0553 -0.27465,0 -0.55486,-0.02512 -0.82237,-0.0553 -0.009,-9.3e-4 -0.0159,9.56e-4 -0.0248,0 -0.009,-0.0015 -0.0159,0.0015 -0.0249,0 -1.58357,-0.291981 -2.16372,-1.291162 -3.09014,-1.9633 -0.99857,-0.724462 -2.17362,-1.287413 -3.58855,-4.037203 -0.25954,-0.871592 -0.423661,-1.797498 -0.423661,-2.76521 0,-4.876119 3.580141,-8.848665 7.974571,-8.848665 z"
     id="path2436-3-3-05" />
  <g
     transform="translate(-0.27147371,0.18098248)"
     id="g4201">
    <path
       id="path3208"
       d="m 13.891013,18.470188 c -0.993782,0 -0.502276,1.760081 2.149638,1.89674 0.30398,0 0.5402,0 0.809276,0 2.660541,-0.132816 3.144649,-1.89674 2.149637,-1.89674 -1.702844,0 -3.405697,0 -5.108551,0 z"
       style="display:inline;fill:#000000;fill-opacity:1;fill-rule:evenodd;stroke:none" />
    <path
       id="path3210"
       d="m 16.394709,19.178304 c -0.813046,0 -1.482107,0.36531 -1.77029,0.885145 0.3807,0.150193 0.83527,0.27354 1.416232,0.303479 0.30398,0 0.5402,0 0.809276,0 0.557874,-0.02785 0.992738,-0.13821 1.365652,-0.278189 -0.277816,-0.53542 -0.992495,-0.910435 -1.82087,-0.910435 z"
       style="display:inline;overflow:visible;visibility:visible;fill:#5b1f1f;fill-opacity:1;fill-rule:evenodd;stroke:none;stroke-width:0.5;marker:none;enable-background:accumulate" />
    <path
       id="path3212"
       d="m 14.295651,18.470188 c 0.289373,0.422404 0.86187,0.822023 1.82087,0.885145 0.237992,0 0.446874,0 0.657536,0 0.962124,-0.06135 1.532032,-0.462373 1.82087,-0.885145 -1.433089,0 -2.866179,0 -4.299276,0 z"
       style="display:inline;fill:#ffffff;fill-opacity:1;fill-rule:evenodd;stroke:none" />
    <path
       style="color:#000000;clip-rule:nonzero;display:inline;overflow:visible;visibility:visible;opacity:1;isolation:auto;mix-blend-mode:normal;color-interpolation:sRGB;color-interpolation-filters:linearRGB;solid-color:#000000;solid-opacity:1;fill:none;fill-opacity:1;fill-rule:nonzero;stroke:#000000;stroke-width:0.40000001;stroke-linecap:round;stroke-linejoin:miter;stroke-miterlimit:4;stroke-dasharray:none;stroke-dashoffset:0;stroke-opacity:1;color-rendering:auto;image-rendering:auto;shape-rendering:auto;text-rendering:auto;enable-background:accumulate"
       d="m 13.891013,18.470188 c -0.993782,0 -0.502276,1.760081 2.149638,1.89674 0.30398,0 0.5402,0 0.809276,0 2.660541,-0.132816 3.144649,-1.89674 2.149637,-1.89674 -1.702844,0 -3.405697,0 -5.108551,0 z"
       id="path3214" />
  </g>
  <path
     id="path2597-0-69"
     d="m 16.687143,16.990393 c 0,0.28682 -0.12401,0.57367 -0.3307,0.69656"
     style="display:inline;fill:none;stroke:#000000;stroke-width:0.40000001;stroke-linecap:round;stroke-linejoin:miter;stroke-miterlimit:4;stroke-dasharray:none;stroke-opacity:1" />
  <path
     style="display:inline;fill:none;stroke:#000000;stroke-width:0.50000012;stroke-linecap:butt;stroke-linejoin:miter;stroke-miterlimit:4;stroke-dasharray:none;stroke-opacity:1"
     d="m 21.016206,12.131082 c -0.49075,-0.53981 -1.3073,-0.78776 -1.78557,-0.55518"
     id="path2618-3-1" />
  <path
     style="color:#000000;clip-rule:nonzero;display:inline;overflow:visible;visibility:visible;opacity:1;isolation:auto;mix-blend-mode:normal;color-interpolation:sRGB;color-interpolation-filters:linearRGB;solid-color:#000000;solid-opacity:1;fill:#ffffff;fill-opacity:1;fill-rule:evenodd;stroke:#000000;stroke-width:0.5;stroke-linecap:butt;stroke-linejoin:miter;stroke-miterlimit:4;stroke-dasharray:none;stroke-dashoffset:0;stroke-opacity:1;marker:none;marker-start:none;marker-mid:none;marker-end:none;color-rendering:auto;image-rendering:auto;shape-rendering:auto;text-rendering:auto;enable-background:accumulate"
     d="m 8.418666,13.428539 c -0.237131,-0.08281 -0.47816,-0.119259 -0.709221,-0.107246 -0.967589,0.05032 -1.541809,0.920814 -1.282649,1.944471 0.259389,1.023645 1.25396,1.812755 2.221629,1.762679 0.23104,-0.01239 0.44748,-0.07305 0.63684,-0.178444"
     id="path5180-3-3" />
  <path
     style="display:inline;fill:none;fill-rule:evenodd;stroke:#000000;stroke-width:0.30000001;stroke-linecap:round;stroke-linejoin:miter;stroke-miterlimit:4;stroke-dasharray:none;stroke-opacity:1"
     d="m 8.339005,13.439098 c 0,0 -0.10467,0.732641 -0.0349,1.081518 -0.73265,-0.313989 -1.08153,-0.174438 -1.11642,0.313989"
     id="path5182-6-6" />
  <path
     style="display:inline;fill:none;fill-rule:evenodd;stroke:#000000;stroke-width:0.30000001;stroke-linecap:round;stroke-linejoin:miter;stroke-miterlimit:4;stroke-dasharray:none;stroke-opacity:1"
     d="m 8.289655,14.566786 c -0.2467,0.222024 -0.370039,0.814087 0.271361,1.134789"
     id="path5184-0-69" />
  <path
     style="color:#000000;clip-rule:nonzero;display:inline;overflow:visible;visibility:visible;opacity:1;isolation:auto;mix-blend-mode:normal;color-interpolation:sRGB;color-interpolation-filters:linearRGB;solid-color:#000000;solid-opacity:1;fill:#ffffff;fill-opacity:1;fill-rule:evenodd;stroke:#000000;stroke-width:0.5;stroke-linecap:round;stroke-linejoin:round;stroke-miterlimit:4;stroke-dasharray:none;stroke-dashoffset:0;stroke-opacity:1;marker:none;color-rendering:auto;image-rendering:auto;shape-rendering:auto;text-rendering:auto;enable-background:accumulate"
     d="m 20.311478,6.020222 c -0.59372,-1.481006 -2.85497,-4.224375 -3.34365,-4.447267 -0.16502,0.42652 -0.31288,1.333139 -0.31288,1.333139 0,0 -1.72325,-1.140194 -2.86348,-1.099444 0.0728,0.357931 0.22079,1.1338 0.22079,1.1338 0,0 -2.23119,-0.220707 -3.32209,1.200327 0.60441,0.09858 1.69965,0.480059 1.69965,0.480059 0,0 -0.93017,0.874488 -1.25593,1.847553 1.11664,-0.700885 1.95896,-0.670899 2.56766,-0.452297"
     id="path4829-6-8-7" />
  <path
     id="path5838-1"
     d="m 23.581332,13.428539 c 0.23713,-0.08281 0.47816,-0.119259 0.709221,-0.107246 0.967589,0.05032 1.541809,0.920814 1.282649,1.944471 -0.259389,1.023645 -1.25396,1.812755 -2.22163,1.762679 -0.23104,-0.01239 -0.447479,-0.07305 -0.63684,-0.178444"
     style="color:#000000;clip-rule:nonzero;display:inline;overflow:visible;visibility:visible;opacity:1;isolation:auto;mix-blend-mode:normal;color-interpolation:sRGB;color-interpolation-filters:linearRGB;solid-color:#000000;solid-opacity:1;fill:#ffffff;fill-opacity:1;fill-rule:evenodd;stroke:#000000;stroke-width:0.5;stroke-linecap:butt;stroke-linejoin:miter;stroke-miterlimit:4;stroke-dasharray:none;stroke-dashoffset:0;stroke-opacity:1;marker:none;marker-start:none;marker-mid:none;marker-end:none;color-rendering:auto;image-rendering:auto;shape-rendering:auto;text-rendering:auto;enable-background:accumulate" />
  <path
     id="path5840-8"
     d="m 23.660992,13.439098 c 0,0 0.104671,0.732641 0.0349,1.081518 0.73265,-0.313989 1.08153,-0.174438 1.116421,0.313989"
     style="display:inline;fill:none;fill-rule:evenodd;stroke:#000000;stroke-width:0.30000001;stroke-linecap:round;stroke-linejoin:miter;stroke-miterlimit:4;stroke-dasharray:none;stroke-opacity:1" />
  <path
     id="path5842-4"
     d="m 23.710342,14.566786 c 0.2467,0.222024 0.37004,0.814087 -0.27136,1.134789"
     style="display:inline;fill:none;fill-rule:evenodd;stroke:#000000;stroke-width:0.30000001;stroke-linecap:round;stroke-linejoin:miter;stroke-miterlimit:4;stroke-dasharray:none;stroke-opacity:1" />
  <path
     id="path2602-4-08-6-1"
     d="m 13.861201,13.931013 c 0.47524,1.67612 0.20153,1.49875 -1.04505,1.84612 -0.80241,0.22359 -1.6367,-0.24053 -1.86225,-1.03599 -0.22554,-0.79549 0.24263,-1.622541 1.04506,-1.846131 0.80241,-0.22359 1.6367,0.24053 1.86224,1.036001 z"
     style="display:inline;overflow:visible;visibility:visible;fill:#ffffff;fill-opacity:1;fill-rule:evenodd;stroke:#000000;stroke-width:0.30000001;stroke-linecap:round;stroke-linejoin:round;stroke-miterlimit:4;stroke-dasharray:none;stroke-dashoffset:0;stroke-opacity:1;marker:none;enable-background:accumulate" />
  <ellipse
     cy="14.773204"
     cx="13.048781"
     id="path2604-4-0-4-3"
     style="display:inline;overflow:visible;visibility:visible;fill:#000000;fill-opacity:1;fill-rule:evenodd;stroke:none;stroke-width:0.49999997;marker:none;enable-background:accumulate"
     rx="1.0066569"
     ry="0.99793828" />
  <ellipse
     cy="14.482135"
     cx="12.797118"
     id="path2606-4-1-2-6"
     style="display:inline;overflow:visible;visibility:visible;fill:#ffffff;fill-opacity:1;fill-rule:evenodd;stroke:none;stroke-width:0.5;marker:none;enable-background:accumulate"
     rx="0.42386398"
     ry="0.40046838" />
  <path
     style="display:inline;overflow:visible;visibility:visible;fill:#ffffff;fill-opacity:1;fill-rule:evenodd;stroke:#000000;stroke-width:0.30000001;stroke-linecap:round;stroke-linejoin:round;stroke-miterlimit:4;stroke-dasharray:none;stroke-dashoffset:0;stroke-opacity:1;marker:none;enable-background:accumulate"
     d="m 18.067701,13.931013 c -0.47525,1.67612 -0.20154,1.49875 1.04505,1.84612 0.80241,0.22359 1.63669,-0.24053 1.86224,-1.03599 0.22555,-0.79549 -0.24263,-1.622541 -1.04505,-1.846131 -0.80241,-0.22359 -1.63671,0.24053 -1.86224,1.036001 z"
     id="path2612-4-3-4-0" />
  <ellipse
     transform="scale(-1,1)"
     cy="14.773204"
     cx="-19.656099"
     style="display:inline;overflow:visible;visibility:visible;fill:#000000;fill-opacity:1;fill-rule:evenodd;stroke:none;stroke-width:0.49999997;marker:none;enable-background:accumulate"
     id="path2614-4-6-8-3"
     rx="1.0066569"
     ry="0.99793828" />
  <ellipse
     transform="scale(-1,1)"
     ry="0.40046838"
     rx="0.42386398"
     cy="14.482135"
     cx="-19.456881"
     style="display:inline;overflow:visible;visibility:visible;fill:#ffffff;fill-opacity:1;fill-rule:evenodd;stroke:none;stroke-width:0.5;marker:none;enable-background:accumulate"
     id="path2616-9-09-2-8" />
  <path
     id="path4626-7"
     d="m 10.983792,12.131082 c 0.49075,-0.53981 1.3073,-0.78776 1.78557,-0.55518"
     style="display:inline;fill:none;stroke:#000000;stroke-width:0.50000012;stroke-linecap:butt;stroke-linejoin:miter;stroke-miterlimit:4;stroke-dasharray:none;stroke-opacity:1" />
  <path
     style="color:#000000;clip-rule:nonzero;display:inline;overflow:visible;visibility:visible;opacity:1;isolation:auto;mix-blend-mode:normal;color-interpolation:sRGB;color-interpolation-filters:linearRGB;solid-color:#000000;solid-opacity:1;fill:#ffffff;fill-opacity:1;fill-rule:evenodd;stroke:#000000;stroke-width:0.5;stroke-linecap:round;stroke-linejoin:round;stroke-miterlimit:4;stroke-dasharray:none;stroke-dashoffset:0;stroke-opacity:1;marker:none;marker-start:none;marker-mid:none;marker-end:none;color-rendering:auto;image-rendering:auto;shape-rendering:auto;text-rendering:auto;enable-background:accumulate"
     d="m 5.3909077,1.5293383 c -0.400024,-0.01221 -0.731144,0.320108 -0.74414,0.746094 l -0.07031,2.300781 c -0.03294,0.0023 -0.06707,0.0029 -0.09961,0.0059 l -0.50586,-1.90625 c -0.09251,-0.348646 -0.446276,-0.555406 -0.794922,-0.46289 l -0.02344,0.0059 c -0.348646,0.09252 -0.555406,0.448229 -0.462891,0.796875 l 0.503906,1.896484 c -0.03338,0.01572 -0.07168,0.02833 -0.103515,0.04492 l -0.810547,-1.222656 c -0.189884,-0.287036 -0.535397,-0.391186 -0.775391,-0.232422 l -0.07227,0.04687 c -0.239994,0.158764 -0.279728,0.517651 -0.08984,0.804688 l 0.980469,1.482422 c -0.0062,0.03922 -0.02151,0.07711 -0.02148,0.117187 0,0.220843 0.01953,0.634766 0.01953,0.634766 -10e-7,1.11021 1.162267,2.010115 2.595703,2.009765 0.837127,2.05e-4 1.574155,-0.31066 2.048828,-0.787109 0.0677,-0.02113 0.136007,-0.03971 0.199219,-0.08008 l 1.998046,-1.277344 c 0.359199,-0.229367 0.475154,-0.68613 0.259766,-1.023437 -0.215388,-0.337307 -0.677911,-0.422727 -1.037109,-0.19336 l -0.882813,0.5625 c -0.03476,-0.166695 -0.120745,-0.323141 -0.255859,-0.466797 l 0.830078,-2.179687 c 0.128155,-0.337179 -0.03977,-0.711689 -0.376953,-0.839844 -0.337179,-0.128155 -0.713642,0.03978 -0.841797,0.376953 l -0.767578,2.023438 c -0.02463,-0.0066 -0.0472,-0.01525 -0.07227,-0.02149 l 0.07227,-2.371093 c 0.013,-0.425986 -0.299195,-0.778812 -0.699219,-0.791016 z"
     id="path4919-3-7" />
  <path
     id="path4940-3-0"
     d="m 7.4355397,5.8015433 c -0.596366,-0.199332 -1.667159,0.208819 -2.001301,0.602119"
     style="display:inline;fill:none;fill-rule:evenodd;stroke:#000000;stroke-width:0.30000001;stroke-linecap:butt;stroke-linejoin:miter;stroke-miterlimit:4;stroke-dasharray:none;stroke-opacity:1" />
  <path
     id="path4942-7-8"
     d="m 7.2892537,5.1414203 c -1.31261,-0.724197 -4.11886,-0.362099 -5.06937,0.497885"
     style="display:inline;fill:none;fill-rule:evenodd;stroke:#000000;stroke-width:0.2;stroke-linecap:butt;stroke-linejoin:miter;stroke-miterlimit:4;stroke-dasharray:none;stroke-opacity:1" />
  <path
     id="path4944-6-0"
     d="m 5.9766437,4.7793213 c -0.13578,0.905246 -2.21785,1.493656 -3.53044,1.719967"
     style="display:inline;fill:none;fill-rule:evenodd;stroke:#000000;stroke-width:0.2;stroke-linecap:butt;stroke-linejoin:miter;stroke-miterlimit:4;stroke-dasharray:none;stroke-opacity:1" />
  <path
     style="color:#000000;clip-rule:nonzero;display:inline;overflow:visible;visibility:visible;opacity:1;isolation:auto;mix-blend-mode:normal;color-interpolation:sRGB;color-interpolation-filters:linearRGB;solid-color:#000000;solid-opacity:1;fill:#ffffff;fill-opacity:1;fill-rule:evenodd;stroke:#000000;stroke-width:0.5;stroke-linecap:round;stroke-linejoin:round;stroke-miterlimit:4;stroke-dasharray:none;stroke-dashoffset:0;stroke-opacity:1;marker:none;marker-start:none;marker-mid:none;marker-end:none;color-rendering:auto;image-rendering:auto;shape-rendering:auto;text-rendering:auto;enable-background:accumulate"
     d="m 26.811084,1.5293383 c 0.400024,-0.01221 0.731144,0.320108 0.74414,0.746094 l 0.07031,2.300781 c 0.03294,0.0023 0.06707,0.0029 0.09961,0.0059 l 0.50586,-1.90625 c 0.09251,-0.348646 0.446276,-0.555406 0.794922,-0.46289 l 0.02344,0.0059 c 0.348646,0.09252 0.555406,0.448229 0.462891,0.796875 l -0.503906,1.896484 c 0.03338,0.01572 0.07168,0.02833 0.103515,0.04492 l 0.810547,-1.222656 c 0.189884,-0.287036 0.535397,-0.391186 0.775391,-0.232422 l 0.07227,0.04687 c 0.239994,0.158764 0.279728,0.517651 0.08984,0.804688 l -0.980469,1.482422 c 0.0062,0.03922 0.02151,0.07711 0.02148,0.117187 0,0.220843 -0.01953,0.634766 -0.01953,0.634766 10e-7,1.11021 -1.162267,2.010115 -2.595703,2.009765 -0.837127,2.05e-4 -1.574155,-0.31066 -2.048828,-0.787109 -0.0677,-0.02113 -0.136007,-0.03971 -0.199219,-0.08008 l -1.998046,-1.277344 c -0.359199,-0.229367 -0.475154,-0.68613 -0.259766,-1.023437 0.215388,-0.337307 0.677911,-0.422727 1.037109,-0.19336 l 0.882813,0.5625 c 0.03476,-0.166695 0.120745,-0.323141 0.255859,-0.466797 l -0.830078,-2.179687 c -0.128155,-0.337179 0.03977,-0.711689 0.376953,-0.839844 0.337179,-0.128155 0.713642,0.03978 0.841797,0.376953 l 0.767578,2.023438 c 0.02463,-0.0066 0.0472,-0.01525 0.07227,-0.02149 l -0.07227,-2.371093 c -0.013,-0.425986 0.299195,-0.778812 0.699219,-0.791016 z"
     id="path4919-3-79" />
  <path
     id="path4940-3-01"
     d="m 24.766452,5.8015433 c 0.596366,-0.199332 1.667159,0.208819 2.001301,0.602119"
     style="display:inline;fill:none;fill-rule:evenodd;stroke:#000000;stroke-width:0.30000001;stroke-linecap:butt;stroke-linejoin:miter;stroke-miterlimit:4;stroke-dasharray:none;stroke-opacity:1" />
  <path
     id="path4942-7-4"
     d="m 24.912738,5.1414203 c 1.31261,-0.724197 4.11886,-0.362099 5.06937,0.497885"
     style="display:inline;fill:none;fill-rule:evenodd;stroke:#000000;stroke-width:0.2;stroke-linecap:butt;stroke-linejoin:miter;stroke-miterlimit:4;stroke-dasharray:none;stroke-opacity:1" />
  <path
     id="path4944-6-3"
     d="m 26.225348,4.7793213 c 0.13578,0.905246 2.21785,1.493656 3.53044,1.719967"
     style="display:inline;fill:none;fill-rule:evenodd;stroke:#000000;stroke-width:0.2;stroke-linecap:butt;stroke-linejoin:miter;stroke-miterlimit:4;stroke-dasharray:none;stroke-opacity:1" />
  <path
     style="color:#000000;clip-rule:nonzero;display:inline;overflow:visible;visibility:visible;opacity:1;isolation:auto;mix-blend-mode:normal;color-interpolation:sRGB;color-interpolation-filters:linearRGB;solid-color:#000000;solid-opacity:1;fill:#ffffff;fill-opacity:1;fill-rule:evenodd;stroke:#000000;stroke-width:0.5;stroke-linecap:round;stroke-linejoin:round;stroke-miterlimit:4;stroke-dasharray:none;stroke-dashoffset:0;stroke-opacity:1;marker:none;marker-start:none;marker-mid:none;marker-end:none;color-rendering:auto;image-rendering:auto;shape-rendering:auto;text-rendering:auto;enable-background:accumulate"
     d="m 29.766301,26.272539 c -0.08173,0.391775 -0.482308,0.63594 -0.899508,0.548895 L 26.613437,26.35141 c -0.0099,0.03149 -0.01851,0.06453 -0.02904,0.09546 l 1.734955,0.937877 c 0.317319,0.171525 0.435558,0.563851 0.264027,0.881169 l -0.01122,0.02141 c -0.171534,0.317317 -0.565749,0.435101 -0.883067,0.263572 l -1.725918,-0.933692 c -0.02309,0.02877 -0.04432,0.06306 -0.0679,0.09013 l 0.999043,1.074144 c 0.234635,0.251778 0.255043,0.61207 0.04453,0.80825 l -0.06248,0.0593 c -0.210515,0.19618 -0.568736,0.150832 -0.80337,-0.100951 l -1.211836,-1.300133 c -0.03958,-0.0031 -0.08,0.0029 -0.11896,-0.0065 -0.214711,-0.05168 -0.612573,-0.167522 -0.612573,-0.167522 -1.079387,-0.259788 -1.682337,-1.600365 -1.346574,-2.993922 0.195688,-0.813933 0.670386,-1.457757 1.244681,-1.807763 0.03638,-0.06088 0.07043,-0.122939 0.124474,-0.174949 l 1.709422,-1.643676 c 0.307051,-0.295555 0.778267,-0.301408 1.055808,-0.01307 0.277542,0.288337 0.25236,0.758007 -0.05469,1.053561 l -0.753461,0.726679 c 0.153933,0.0728 0.285915,0.193007 0.393966,0.357986 l 2.31341,-0.296987 c 0.357806,-0.0457 0.682624,0.2052 0.72832,0.56301 0.0457,0.357806 -0.205667,0.684521 -0.563467,0.730219 l -2.146874,0.272785 c 6.54e-4,0.02549 0.0038,0.04946 0.004,0.07529 l 2.322175,0.484571 c 0.417202,0.08704 0.687179,0.47313 0.605438,0.864903 z"
     id="path4919-3-2" />
  <path
     id="path4940-3-7"
     d="m 26.091149,23.284979 c 0.05425,0.626453 -0.593136,1.57201 -1.053705,1.804843"
     style="display:inline;fill:none;fill-rule:evenodd;stroke:#000000;stroke-width:0.30000001;stroke-linecap:butt;stroke-linejoin:miter;stroke-miterlimit:4;stroke-dasharray:none;stroke-opacity:1" />
  <path
     id="path4942-7-2"
     d="m 26.698714,23.581672 c 0.396941,1.44563 -0.611765,4.089238 -1.670291,4.812123"
     style="display:inline;fill:none;fill-rule:evenodd;stroke:#000000;stroke-width:0.2;stroke-linecap:butt;stroke-linejoin:miter;stroke-miterlimit:4;stroke-dasharray:none;stroke-opacity:1" />
  <path
     id="path4944-6-32"
     d="m 26.74361,24.942571 c -0.911886,-0.07982 -1.971163,1.806761 -2.498336,3.029952"
     style="display:inline;fill:none;fill-rule:evenodd;stroke:#000000;stroke-width:0.2;stroke-linecap:butt;stroke-linejoin:miter;stroke-miterlimit:4;stroke-dasharray:none;stroke-opacity:1" />
  <path
     id="path5231-8"
     d="m 24.365103,21.524495 c 0.07866,0.392404 -0.193861,0.774248 -0.611732,0.858013 l -2.256934,0.452534 c 0.0032,0.03285 0.0083,0.06662 0.01077,0.09921 l 1.963877,0.181298 c 0.359184,0.03315 0.621977,0.347537 0.588823,0.706722 l -0.0019,0.02409 c -0.03316,0.359186 -0.349462,0.622303 -0.708647,0.58915 l -1.953923,-0.180998 c -0.0099,0.03553 -0.016,0.0754 -0.02705,0.109545 l 1.340579,0.595586 c 0.314654,0.139424 0.474896,0.462764 0.358318,0.725851 l -0.03417,0.07907 c -0.116574,0.263085 -0.46383,0.362038 -0.778486,0.222606 L 20.629596,25.2673 c -0.03763,0.01267 -0.07246,0.03402 -0.111981,0.04068 -0.217756,0.03679 -0.629153,0.08647 -0.629153,0.08647 -1.094702,0.184912 -2.175619,-0.811238 -2.414021,-2.22471 -0.139629,-0.825399 0.04414,-1.60391 0.434872,-2.151307 0.0096,-0.07028 0.0165,-0.140721 0.04578,-0.209774 l 0.926717,-2.182886 c 0.166336,-0.392385 0.597406,-0.582796 0.965876,-0.426596 0.36847,0.1562 0.529733,0.598035 0.363392,0.990419 l -0.407605,0.964169 c 0.170156,0.0065 0.338738,0.06524 0.502891,0.174538 l 2.010988,-1.181522 c 0.311124,-0.182525 0.708372,-0.07932 0.890896,0.231807 0.182526,0.311124 0.07964,0.7103 -0.231482,0.892823 l -1.867331,1.093871 c 0.01058,0.0232 0.02293,0.04399 0.03326,0.06767 l 2.325936,-0.466179 c 0.417872,-0.08377 0.817766,0.165301 0.896425,0.557705 z"
     style="color:#000000;clip-rule:nonzero;display:inline;overflow:visible;visibility:visible;opacity:1;isolation:auto;mix-blend-mode:normal;color-interpolation:sRGB;color-interpolation-filters:linearRGB;solid-color:#000000;solid-opacity:1;fill:#ffffff;fill-opacity:1;fill-rule:evenodd;stroke:#000000;stroke-width:0.5;stroke-linecap:round;stroke-linejoin:round;stroke-miterlimit:4;stroke-dasharray:none;stroke-dashoffset:0;stroke-opacity:1;marker:none;marker-start:none;marker-mid:none;marker-end:none;color-rendering:auto;image-rendering:auto;shape-rendering:auto;text-rendering:auto;enable-background:accumulate" />
  <path
     style="display:inline;overflow:visible;visibility:visible;fill:#ffffff;fill-opacity:1;stroke:#000000;stroke-width:0.5;stroke-linecap:round;stroke-linejoin:miter;stroke-miterlimit:4;stroke-dashoffset:0;stroke-opacity:1;marker:none;enable-background:accumulate"
     d="m 18.688761,23.396224 c 0.391997,1.150055 0.275489,2.108359 -0.415235,2.123757 l -4.061634,0.686624 c -1.102437,0.02457 -2.008114,-0.841342 -2.030651,-1.941507 -0.02254,-1.100162 0.846842,-2.005642 1.949285,-2.030207 l 3.36166,-0.652226 c 0.599235,-0.01335 0.804579,0.663503 1.196575,1.813559 z"
     id="path4398-6-8" />
  <path
     id="path5245-7"
     d="m 20.671039,20.996343 -0.434535,0.243032"
     style="display:inline;fill:none;fill-rule:evenodd;stroke:#000000;stroke-width:0.30000001;stroke-linecap:butt;stroke-linejoin:miter;stroke-miterlimit:4;stroke-dasharray:none;stroke-opacity:1" />
  <path
     id="path5247-3"
     d="m 21.116071,22.322263 c -0.17052,-0.02507 -0.580394,0.106861 -0.580394,0.106861"
     style="display:inline;fill:none;fill-rule:evenodd;stroke:#000000;stroke-width:0.30000001;stroke-linecap:butt;stroke-linejoin:miter;stroke-miterlimit:4;stroke-dasharray:none;stroke-opacity:1" />
  <path
     id="path5249-6"
     d="m 21.220446,23.637072 -0.505986,0.008"
     style="display:inline;fill:none;fill-rule:evenodd;stroke:#000000;stroke-width:0.30000001;stroke-linecap:butt;stroke-linejoin:miter;stroke-miterlimit:4;stroke-dasharray:none;stroke-opacity:1" />
  <path
     id="path5251-3"
     d="m 21.094603,24.827427 -0.366522,-0.12541"
     style="display:inline;fill:none;fill-rule:evenodd;stroke:#000000;stroke-width:0.30000001;stroke-linecap:butt;stroke-linejoin:miter;stroke-miterlimit:4;stroke-dasharray:none;stroke-opacity:1" />
  <path
     id="path6015"
     d="m 26.663504,17.22831 c 1.549524,-0.367685 3.135685,0.564205 3.550424,2.112034 0.422173,1.575568 -0.521767,3.213283 -2.097337,3.635455 -1.367484,0.366417 -2.777146,-0.300435 -3.402004,-1.512842 l -1.009317,0.270446 c -0.131502,-0.08437 -0.177983,-0.255246 -0.09894,-0.392048 l 1.081882,-1.871113 c 0.04066,-0.07044 0.105231,-0.117168 0.177734,-0.136595 0.0725,-0.01943 0.151776,-0.01124 0.222219,0.02943 l 1.870607,1.079996 c 0.136796,0.07898 0.183877,0.249681 0.112174,0.388502 l -1.048934,0.281061 c 0.395202,0.527709 1.076902,0.789183 1.75794,0.606699 0.896938,-0.240333 1.419766,-1.145899 1.179433,-2.042835 -0.232871,-0.869085 -1.090242,-1.379155 -1.959186,-1.191737 l -0.336667,-1.256458 z"
     style="color:#000000;clip-rule:nonzero;display:inline;overflow:visible;visibility:visible;opacity:1;isolation:auto;mix-blend-mode:normal;color-interpolation:sRGB;color-interpolation-filters:linearRGB;solid-color:#000000;solid-opacity:1;fill:#0045ff;fill-opacity:1;fill-rule:evenodd;stroke:#ffffff;stroke-width:0.2;stroke-linecap:round;stroke-linejoin:round;stroke-miterlimit:4;stroke-dasharray:none;stroke-dashoffset:0;stroke-opacity:1;marker:none;marker-start:none;marker-mid:none;marker-end:none;color-rendering:auto;image-rendering:auto;shape-rendering:auto;text-rendering:auto;enable-background:accumulate" />
  <path
     id="path4735-2-9"
     d="m 20.322135,26.542997 c -0.346842,0.0068 -0.698375,0.06627 -1.020993,0.193384 -0.108594,0.08423 -0.05336,0.234653 -0.0669,0.351783 0.0072,0.14646 -0.01515,0.296963 0.01261,0.440689 0.04534,0.116774 0.202188,0.120627 0.284061,0.04082 0.241974,-0.134191 0.530058,-0.285025 0.811622,-0.194684 0.197193,0.08442 0.17611,0.3621 0.03767,0.493525 -0.242737,0.245525 -0.514185,0.461605 -0.769495,0.694224 -0.118681,0.110388 -0.249933,0.209037 -0.360379,0.327136 -0.04781,0.113706 -0.01345,0.243666 -0.02386,0.364423 0.01359,0.116727 -0.03641,0.255549 0.04771,0.352504 0.0964,0.08072 0.232169,0.03246 0.347083,0.04562 0.595694,-0.002 1.191873,0.004 1.787262,-0.003 0.125589,-0.02081 0.138915,-0.16023 0.128489,-0.262736 -0.0071,-0.158251 0.01494,-0.320418 -0.01223,-0.476053 -0.05982,-0.139554 -0.228804,-0.08878 -0.347417,-0.09809 -0.193936,0 -0.387871,0 -0.581807,0 0.304049,-0.278312 0.660759,-0.52533 0.843233,-0.906221 0.192257,-0.420477 0.03687,-0.981885 -0.383788,-1.199054 -0.221966,-0.124743 -0.481308,-0.164031 -0.732883,-0.164256 z m -3.560546,0.734375 c -0.144679,-0.0068 -0.212855,0.189152 -0.108004,0.282222 0.216991,0.293947 0.433981,0.587893 0.650972,0.88184 -0.241103,0.327902 -0.488416,0.651732 -0.725642,0.982177 -0.06487,0.123285 0.06517,0.258335 0.192492,0.228761 0.231598,-0.0046 0.46502,0.0093 0.695468,-0.0071 0.112791,-0.05074 0.154405,-0.182926 0.232203,-0.272417 0.0599,-0.08521 0.119799,-0.170427 0.179698,-0.255641 0.123058,0.165851 0.233386,0.342706 0.364749,0.50139 0.105429,0.06382 0.237039,0.02152 0.354292,0.03377 0.161235,-0.0043 0.324185,0.0089 0.484321,-0.0069 0.125839,-0.0337 0.145534,-0.203947 0.05388,-0.284728 -0.227675,-0.307737 -0.455351,-0.615475 -0.683026,-0.923212 0.228718,-0.310986 0.463716,-0.61785 0.688529,-0.931399 0.06446,-0.122234 -0.06373,-0.257595 -0.190535,-0.228757 -0.231598,0.0046 -0.46502,-0.0093 -0.695468,0.0071 -0.112898,0.05066 -0.154072,0.183159 -0.231657,0.2728 -0.04901,0.07011 -0.09803,0.140224 -0.147041,0.210336 -0.108622,-0.150374 -0.204177,-0.311706 -0.321265,-0.454996 -0.105445,-0.06618 -0.238709,-0.02271 -0.35676,-0.03524 -0.145736,-10e-7 -0.291477,3e-6 -0.437209,-2e-6 z"
     style="color:#000000;font-style:normal;font-variant:normal;font-weight:bold;font-stretch:normal;font-size:medium;line-height:125%;font-family:sans-serif;-inkscape-font-specification:'sans-serif Bold';letter-spacing:0px;word-spacing:0px;clip-rule:nonzero;display:inline;overflow:visible;visibility:visible;opacity:1;isolation:auto;mix-blend-mode:normal;color-interpolation:sRGB;color-interpolation-filters:linearRGB;solid-color:#000000;solid-opacity:1;fill:#ff0000;fill-opacity:1;fill-rule:evenodd;stroke:#ffffff;stroke-width:0.2;stroke-linecap:round;stroke-linejoin:round;stroke-miterlimit:4;stroke-dasharray:none;stroke-dashoffset:0;stroke-opacity:1;marker:none;marker-start:none;marker-mid:none;marker-end:none;color-rendering:auto;image-rendering:auto;shape-rendering:auto;text-rendering:auto;enable-background:accumulate" />
  <path
     id="path4735-2-2"
     d="m 29.79142,12.249474 c -0.346842,0.0068 -0.698375,0.06627 -1.020993,0.193384 -0.108594,0.08423 -0.05336,0.234653 -0.0669,0.351783 0.0072,0.14646 -0.01515,0.296963 0.01261,0.440689 0.04534,0.116774 0.202188,0.120627 0.284061,0.04082 0.241974,-0.134191 0.530058,-0.285025 0.811622,-0.194684 0.197193,0.08442 0.17611,0.3621 0.03767,0.493525 -0.242737,0.245525 -0.514185,0.461605 -0.769495,0.694224 -0.118681,0.110388 -0.249933,0.209037 -0.360379,0.327136 -0.04781,0.113706 -0.01345,0.243666 -0.02386,0.364423 0.01359,0.116727 -0.03641,0.255549 0.04771,0.352504 0.0964,0.08072 0.232169,0.03246 0.347083,0.04562 0.595694,-0.002 1.191873,0.004 1.787262,-0.003 0.125589,-0.02081 0.138915,-0.16023 0.128489,-0.262736 -0.0071,-0.158251 0.01494,-0.320418 -0.01223,-0.476053 -0.05982,-0.139554 -0.228804,-0.08878 -0.347417,-0.09809 -0.193936,0 -0.387871,0 -0.581807,0 0.304049,-0.278312 0.660759,-0.52533 0.843233,-0.906221 0.192257,-0.420477 0.03687,-0.981885 -0.383788,-1.199054 -0.221966,-0.124743 -0.481308,-0.164031 -0.732883,-0.164256 z m -3.560546,0.734375 c -0.144679,-0.0068 -0.212855,0.189152 -0.108004,0.282222 0.216991,0.293947 0.433981,0.587893 0.650972,0.88184 -0.241103,0.327902 -0.488416,0.651732 -0.725642,0.982177 -0.06487,0.123285 0.06517,0.258335 0.192492,0.228761 0.231598,-0.0046 0.46502,0.0093 0.695468,-0.0071 0.112791,-0.05074 0.154405,-0.182926 0.232203,-0.272417 0.0599,-0.08521 0.119799,-0.170427 0.179698,-0.255641 0.123058,0.165851 0.233386,0.342706 0.364749,0.50139 0.105429,0.06382 0.237039,0.02152 0.354292,0.03377 0.161235,-0.0043 0.324185,0.0089 0.484321,-0.0069 0.125839,-0.0337 0.145534,-0.203947 0.05388,-0.284728 -0.227675,-0.307737 -0.455351,-0.615475 -0.683026,-0.923212 0.228718,-0.310986 0.463716,-0.61785 0.688529,-0.931399 0.06446,-0.122234 -0.06373,-0.257595 -0.190535,-0.228757 -0.231598,0.0046 -0.46502,-0.0093 -0.695468,0.0071 -0.112898,0.05066 -0.154072,0.183159 -0.231657,0.2728 -0.04901,0.07011 -0.09803,0.140224 -0.147041,0.210336 -0.108622,-0.150374 -0.204177,-0.311706 -0.321265,-0.454996 -0.105445,-0.06618 -0.238709,-0.02271 -0.35676,-0.03524 -0.145736,-1e-6 -0.291477,3e-6 -0.437209,-2e-6 z"
     style="color:#000000;font-style:normal;font-variant:normal;font-weight:bold;font-stretch:normal;font-size:medium;line-height:125%;font-family:sans-serif;-inkscape-font-specification:'sans-serif Bold';letter-spacing:0px;word-spacing:0px;clip-rule:nonzero;display:inline;overflow:visible;visibility:visible;opacity:1;isolation:auto;mix-blend-mode:normal;color-interpolation:sRGB;color-interpolation-filters:linearRGB;solid-color:#000000;solid-opacity:1;fill:#0045ff;fill-opacity:1;fill-rule:evenodd;stroke:#ffffff;stroke-width:0.2;stroke-linecap:round;stroke-linejoin:round;stroke-miterlimit:4;stroke-dasharray:none;stroke-dashoffset:0;stroke-opacity:1;marker:none;marker-start:none;marker-mid:none;marker-end:none;color-rendering:auto;image-rendering:auto;shape-rendering:auto;text-rendering:auto;enable-background:accumulate" />
  <path
     id="path6041"
     d="m 24.66057,19.326758 c -1.080618,0 -1.970703,-0.890085 -1.970703,-1.970704 0,-1.080618 0.890085,-1.970703 1.970703,-1.970703 0.981477,0 1.794985,0.737138 1.9375,1.681641 h 1.082031 c 0.105185,0.115534 0.103904,0.292613 -0.0078,0.404297 l -1.527344,1.527344 c -0.05705,0.05706 -0.132571,0.08548 -0.207031,0.08594 h -0.002 c -0.07446,-4.54e-4 -0.149975,-0.02888 -0.207031,-0.08594 l -1.527344,-1.527344 c -0.111693,-0.111693 -0.11299,-0.288764 -0.0078,-0.404297 h 1.06836 c -0.103793,-0.228285 -0.328543,-0.382813 -0.601563,-0.382813 -0.378046,0 -0.669922,0.293829 -0.669922,0.671875 0,0.378047 0.291876,0.669922 0.669922,0.669922 0.02454,0 0.04461,-0.01127 0.06836,-0.01367 v 1.306641 c -0.02324,8.3e-4 -0.04493,0.0078 -0.06836,0.0078 z"
     style="color:#000000;clip-rule:nonzero;display:inline;overflow:visible;visibility:visible;opacity:1;isolation:auto;mix-blend-mode:normal;color-interpolation:sRGB;color-interpolation-filters:linearRGB;solid-color:#000000;solid-opacity:1;fill:#ff0000;fill-opacity:1;fill-rule:evenodd;stroke:#ffffff;stroke-width:0.2;stroke-linecap:round;stroke-linejoin:round;stroke-miterlimit:4;stroke-dasharray:none;stroke-dashoffset:0;stroke-opacity:1;marker:none;marker-start:none;marker-mid:none;marker-end:none;color-rendering:auto;image-rendering:auto;shape-rendering:auto;text-rendering:auto;enable-background:accumulate" />
</svg>
