<?xml version="1.0" encoding="UTF-8" standalone="no"?>
<svg
   xmlns:dc="http://purl.org/dc/elements/1.1/"
   xmlns:cc="http://creativecommons.org/ns#"
   xmlns:rdf="http://www.w3.org/1999/02/22-rdf-syntax-ns#"
   xmlns:svg="http://www.w3.org/2000/svg"
   xmlns="http://www.w3.org/2000/svg"
   viewBox="0 0 32 32"
   version="1.1"
   id="SVGRoot"
   height="100%"
   width="100%">
  <defs
     id="defs6229" />
  <metadata
     id="metadata6232">
    <rdf:RDF>
      <cc:Work
         rdf:about="">
        <dc:format>image/svg+xml</dc:format>
        <dc:type
           rdf:resource="http://purl.org/dc/dcmitype/StillImage" />
        <dc:title></dc:title>
      </cc:Work>
    </rdf:RDF>
  </metadata>
  <rect
     transform="scale(-1,1)"
     ry="4.5"
     rx="4.5"
     y="0.25"
     x="-31.75"
     height="31.5"
     width="31.5"
     id="rect5094-5-36"
     style="color:#000000;clip-rule:nonzero;display:inline;overflow:visible;visibility:visible;opacity:1;isolation:auto;mix-blend-mode:normal;color-interpolation:sRGB;color-interpolation-filters:linearRGB;solid-color:#000000;solid-opacity:1;fill:#ffffff;fill-opacity:1;fill-rule:evenodd;stroke:#000000;stroke-width:0.5;stroke-linecap:butt;stroke-linejoin:miter;stroke-miterlimit:4;stroke-dasharray:none;stroke-dashoffset:0;stroke-opacity:1;marker:none;marker-start:none;marker-mid:none;marker-end:none;color-rendering:auto;image-rendering:auto;shape-rendering:auto;text-rendering:auto;enable-background:accumulate" />
  <path
     id="path6023-1-5"
     d="m 13.349609,19.03125 c -1.04707,0.04015 -1.501057,0.229593 -1.835937,1.011719 -0.5358,1.251401 -2.0214845,4.50942 -2.0214845,6.253906 0,1.319739 0.025029,2.809256 0.042969,4.125 l 12.9570315,0 c 0.01793,-1.315744 0.04492,-2.805259 0.04492,-4.125 0,-0.402289 -0.08474,-0.890059 -0.21289,-1.410156 l 1.660156,-0.710938 c -0.781739,-1.830188 -1.891994,-3.335836 -3.716797,-4.560547 -0.32042,-0.421598 -0.774555,-0.552718 -1.589844,-0.583984 -0.87773,-0.0044 -1.754952,-0.01143 -2.632812,0 -0.0204,-2.87e-4 -0.04015,2.66e-4 -0.06055,0 -0.87787,-0.01143 -1.757046,-0.0044 -2.634766,0 z"
     style="display:inline;overflow:visible;visibility:visible;opacity:1;fill:#ffffff;fill-opacity:1;stroke:#000000;stroke-width:0.5;stroke-linecap:butt;stroke-linejoin:miter;stroke-miterlimit:4;stroke-dasharray:none;stroke-dashoffset:0;stroke-opacity:1;marker:none;enable-background:accumulate" />
  <path
     id="path5341"
     d="m 11.814453,19.1875 c -1.9586664,1.502045 -3.0609641,2.913184 -3.3789061,4.435547 -0.317942,1.522363 0.4342295,2.977261 1.4433593,3.728515 1.0091298,0.751255 2.2075108,1.048231 3.3847658,0.951172 1.177255,-0.09706 2.587796,-0.784118 2.986328,-2.220703 -1.126378,-0.291004 -2.666719,-0.714405 -3.485388,-1.09149 -0.410488,0.03384 -0.806943,0.206898 -1.007077,0.450201"
     style="color:#000000;font-style:normal;font-variant:normal;font-weight:normal;font-stretch:normal;font-size:medium;line-height:normal;font-family:sans-serif;text-indent:0;text-align:start;text-decoration:none;text-decoration-line:none;text-decoration-style:solid;text-decoration-color:#000000;letter-spacing:normal;word-spacing:normal;text-transform:none;direction:ltr;writing-mode:lr-tb;baseline-shift:baseline;text-anchor:start;white-space:normal;clip-rule:nonzero;display:inline;overflow:visible;visibility:visible;opacity:1;isolation:auto;mix-blend-mode:normal;color-interpolation:sRGB;color-interpolation-filters:linearRGB;solid-color:#000000;solid-opacity:1;fill:#ffffff;fill-opacity:1;fill-rule:evenodd;stroke:#000000;stroke-width:0.5;stroke-linecap:round;stroke-linejoin:miter;stroke-miterlimit:4;stroke-dasharray:none;stroke-dashoffset:0;stroke-opacity:1;color-rendering:auto;image-rendering:auto;shape-rendering:auto;text-rendering:auto;enable-background:accumulate" />
  <path
     style="color:#000000;clip-rule:nonzero;display:inline;overflow:visible;visibility:visible;opacity:1;isolation:auto;mix-blend-mode:normal;color-interpolation:sRGB;color-interpolation-filters:linearRGB;solid-color:#000000;solid-opacity:1;fill:#ffffff;fill-opacity:1;fill-rule:evenodd;stroke:#000000;stroke-width:0.5;stroke-linecap:butt;stroke-linejoin:miter;stroke-miterlimit:4;stroke-dasharray:none;stroke-dashoffset:0;stroke-opacity:1;marker:none;color-rendering:auto;image-rendering:auto;shape-rendering:auto;text-rendering:auto;enable-background:accumulate"
     d="m 15.996347,4.2773347 c 4.39443,0 7.949629,3.972546 7.949629,8.8486653 0,0.914273 -0.11618,1.797303 -0.34888,2.626951 -1.445449,2.86789 -2.648579,3.439254 -3.663319,4.175462 -0.92737,0.672829 -1.50394,1.672522 -3.09013,1.9633 -0.0159,0.002 -0.0333,-0.0019 -0.0499,0 -0.26752,0.03019 -0.52282,0.0553 -0.79747,0.0553 -0.27465,0 -0.55486,-0.02512 -0.82237,-0.0553 -0.009,-9.3e-4 -0.0159,9.56e-4 -0.0248,0 -0.009,-0.0015 -0.0159,0.0015 -0.0249,0 -1.58357,-0.291981 -2.16372,-1.291162 -3.09014,-1.9633 C 11.035497,19.203951 9.860447,18.641 8.445517,15.89121 8.185977,15.019618 8.021856,14.093712 8.021856,13.126 c 0,-4.8761193 3.580141,-8.8486653 7.974571,-8.8486653 z"
     id="path2436-3-3-3" />
  <path
     id="path2597-0-56"
     d="m 15.312859,16.990396 c 0,0.28682 0.12401,0.57367 0.3307,0.69656"
     style="display:inline;fill:none;stroke:#000000;stroke-width:0.40000001;stroke-linecap:round;stroke-linejoin:miter;stroke-miterlimit:4;stroke-dasharray:none;stroke-opacity:1" />
  <path
     style="display:inline;fill:none;stroke:#000000;stroke-width:0.50000012;stroke-linecap:butt;stroke-linejoin:miter;stroke-miterlimit:4;stroke-dasharray:none;stroke-opacity:1"
     d="m 21.016207,12.131085 c -0.49075,-0.53981 -1.3073,-0.78776 -1.78557,-0.55518"
     id="path2618-3-9" />
  <path
     style="color:#000000;clip-rule:nonzero;display:inline;overflow:visible;visibility:visible;opacity:1;isolation:auto;mix-blend-mode:normal;color-interpolation:sRGB;color-interpolation-filters:linearRGB;solid-color:#000000;solid-opacity:1;fill:#ffffff;fill-opacity:1;fill-rule:evenodd;stroke:#000000;stroke-width:0.5;stroke-linecap:butt;stroke-linejoin:miter;stroke-miterlimit:4;stroke-dasharray:none;stroke-dashoffset:0;stroke-opacity:1;marker:none;marker-start:none;marker-mid:none;marker-end:none;color-rendering:auto;image-rendering:auto;shape-rendering:auto;text-rendering:auto;enable-background:accumulate"
     d="m 8.4186665,13.428542 c -0.23713,-0.08281 -0.47816,-0.119259 -0.70922,-0.107246 -0.96759,0.05032 -1.54181,0.920814 -1.28265,1.944471 0.25939,1.023645 1.25396,1.812755 2.22163,1.762679 0.23104,-0.01239 0.44748,-0.07305 0.63684,-0.178444"
     id="path5180-3-12" />
  <path
     style="display:inline;fill:none;fill-rule:evenodd;stroke:#000000;stroke-width:0.30000001;stroke-linecap:round;stroke-linejoin:miter;stroke-miterlimit:4;stroke-dasharray:none;stroke-opacity:1"
     d="m 8.3390065,13.439101 c 0,0 -0.10467,0.732641 -0.0349,1.081518 -0.73265,-0.313989 -1.08153,-0.174438 -1.11642,0.313989"
     id="path5182-6-70" />
  <path
     style="display:inline;fill:none;fill-rule:evenodd;stroke:#000000;stroke-width:0.30000001;stroke-linecap:round;stroke-linejoin:miter;stroke-miterlimit:4;stroke-dasharray:none;stroke-opacity:1"
     d="m 8.2896565,14.566789 c -0.2467,0.222024 -0.37004,0.814087 0.27136,1.134789"
     id="path5184-0-9" />
  <path
     style="color:#000000;clip-rule:nonzero;display:inline;overflow:visible;visibility:visible;opacity:1;isolation:auto;mix-blend-mode:normal;color-interpolation:sRGB;color-interpolation-filters:linearRGB;solid-color:#000000;solid-opacity:1;fill:#ffffff;fill-opacity:1;fill-rule:evenodd;stroke:#000000;stroke-width:0.5;stroke-linecap:round;stroke-linejoin:round;stroke-miterlimit:4;stroke-dasharray:none;stroke-dashoffset:0;stroke-opacity:1;marker:none;color-rendering:auto;image-rendering:auto;shape-rendering:auto;text-rendering:auto;enable-background:accumulate"
     d="m 20.311479,6.0202247 c -0.59372,-1.481006 -2.85497,-4.224375 -3.34365,-4.447267 -0.16502,0.42652 -0.31288,1.333139 -0.31288,1.333139 0,0 -1.72325,-1.140194 -2.86348,-1.099444 0.0728,0.357931 0.22079,1.1338 0.22079,1.1338 0,0 -2.23119,-0.220707 -3.32209,1.200327 0.60441,0.09858 1.69965,0.480059 1.69965,0.480059 0,0 -0.93017,0.874488 -1.25593,1.847553 1.11664,-0.700885 1.95896,-0.670899 2.56766,-0.452297"
     id="path4829-6-8-3" />
  <path
     id="path5838-60"
     d="m 23.581333,13.428542 c 0.23713,-0.08281 0.47816,-0.119259 0.709221,-0.107246 0.967589,0.05032 1.541809,0.920814 1.282649,1.944471 -0.259389,1.023645 -1.25396,1.812755 -2.22163,1.762679 -0.23104,-0.01239 -0.447479,-0.07305 -0.63684,-0.178444"
     style="color:#000000;clip-rule:nonzero;display:inline;overflow:visible;visibility:visible;opacity:1;isolation:auto;mix-blend-mode:normal;color-interpolation:sRGB;color-interpolation-filters:linearRGB;solid-color:#000000;solid-opacity:1;fill:#ffffff;fill-opacity:1;fill-rule:evenodd;stroke:#000000;stroke-width:0.5;stroke-linecap:butt;stroke-linejoin:miter;stroke-miterlimit:4;stroke-dasharray:none;stroke-dashoffset:0;stroke-opacity:1;marker:none;marker-start:none;marker-mid:none;marker-end:none;color-rendering:auto;image-rendering:auto;shape-rendering:auto;text-rendering:auto;enable-background:accumulate" />
  <path
     id="path5840-6"
     d="m 23.660993,13.439101 c 0,0 0.104671,0.732641 0.0349,1.081518 0.73265,-0.313989 1.08153,-0.174438 1.116421,0.313989"
     style="display:inline;fill:none;fill-rule:evenodd;stroke:#000000;stroke-width:0.30000001;stroke-linecap:round;stroke-linejoin:miter;stroke-miterlimit:4;stroke-dasharray:none;stroke-opacity:1" />
  <path
     id="path5842-2"
     d="m 23.710343,14.566789 c 0.2467,0.222024 0.37004,0.814087 -0.27136,1.134789"
     style="display:inline;fill:none;fill-rule:evenodd;stroke:#000000;stroke-width:0.30000001;stroke-linecap:round;stroke-linejoin:miter;stroke-miterlimit:4;stroke-dasharray:none;stroke-opacity:1" />
  <path
     id="path2602-4-08-6-6"
     d="m 13.861202,13.931016 c 0.47524,1.67612 0.20153,1.49875 -1.04505,1.84612 -0.80241,0.22359 -1.6367,-0.24053 -1.86225,-1.03599 -0.22554,-0.79549 0.24263,-1.622541 1.04506,-1.846131 0.80241,-0.22359 1.6367,0.24053 1.86224,1.036001 z"
     style="display:inline;overflow:visible;visibility:visible;fill:#ffffff;fill-opacity:1;fill-rule:evenodd;stroke:#000000;stroke-width:0.30000001;stroke-linecap:round;stroke-linejoin:round;stroke-miterlimit:4;stroke-dasharray:none;stroke-dashoffset:0;stroke-opacity:1;marker:none;enable-background:accumulate" />
  <ellipse
     cy="14.32981"
     cx="12.660806"
     id="path2604-4-0-4-1"
     style="display:inline;overflow:visible;visibility:visible;fill:#000000;fill-opacity:1;fill-rule:evenodd;stroke:none;stroke-width:0.49999997;marker:none;enable-background:accumulate"
     rx="1.0066569"
     ry="0.99793828" />
  <ellipse
     cy="14.038737"
     cx="12.409142"
     id="path2606-4-1-2-8"
     style="display:inline;overflow:visible;visibility:visible;fill:#ffffff;fill-opacity:1;fill-rule:evenodd;stroke:none;stroke-width:0.5;marker:none;enable-background:accumulate"
     rx="0.42386398"
     ry="0.40046838" />
  <path
     style="display:inline;overflow:visible;visibility:visible;fill:#ffffff;fill-opacity:1;fill-rule:evenodd;stroke:#000000;stroke-width:0.30000001;stroke-linecap:round;stroke-linejoin:round;stroke-miterlimit:4;stroke-dasharray:none;stroke-dashoffset:0;stroke-opacity:1;marker:none;enable-background:accumulate"
     d="m 18.067702,13.931016 c -0.47525,1.67612 -0.20154,1.49875 1.04505,1.84612 0.80241,0.22359 1.63669,-0.24053 1.86224,-1.03599 0.22555,-0.79549 -0.24263,-1.622541 -1.04505,-1.846131 -0.80241,-0.22359 -1.63671,0.24053 -1.86224,1.036001 z"
     id="path2612-4-3-4-7" />
  <ellipse
     transform="scale(-1,1)"
     cy="14.32981"
     cx="-19.268122"
     style="display:inline;overflow:visible;visibility:visible;fill:#000000;fill-opacity:1;fill-rule:evenodd;stroke:none;stroke-width:0.49999997;marker:none;enable-background:accumulate"
     id="path2614-4-6-8-9"
     rx="1.0066569"
     ry="0.99793828" />
  <ellipse
     transform="scale(-1,1)"
     ry="0.40046838"
     rx="0.42386398"
     cy="14.038737"
     cx="-19.068903"
     style="display:inline;overflow:visible;visibility:visible;fill:#ffffff;fill-opacity:1;fill-rule:evenodd;stroke:none;stroke-width:0.5;marker:none;enable-background:accumulate"
     id="path2616-9-09-2-2" />
  <path
     id="path4626-0"
     d="m 10.983793,12.131085 c 0.49075,-0.53981 1.3073,-0.78776 1.78557,-0.55518"
     style="display:inline;fill:none;stroke:#000000;stroke-width:0.50000012;stroke-linecap:butt;stroke-linejoin:miter;stroke-miterlimit:4;stroke-dasharray:none;stroke-opacity:1" />
  <path
     style="display:inline;opacity:1;fill:#ffffff;fill-opacity:1;fill-rule:evenodd;stroke:#000000;stroke-width:0.5;stroke-linecap:round;stroke-linejoin:miter;stroke-miterlimit:4;stroke-dasharray:none;stroke-dashoffset:0;stroke-opacity:1"
     d="m 22.298828,24.902344 c -0.17978,-0.683709 -0.658633,-1.705876 -0.741512,-1.807172"
     id="path1867-3" />
  <path
     style="color:#000000;font-style:normal;font-variant:normal;font-weight:normal;font-stretch:normal;font-size:medium;line-height:normal;font-family:sans-serif;text-indent:0;text-align:start;text-decoration:none;text-decoration-line:none;text-decoration-style:solid;text-decoration-color:#000000;letter-spacing:normal;word-spacing:normal;text-transform:none;direction:ltr;writing-mode:lr-tb;baseline-shift:baseline;text-anchor:start;white-space:normal;clip-rule:nonzero;display:inline;overflow:visible;visibility:visible;opacity:1;isolation:auto;mix-blend-mode:normal;color-interpolation:sRGB;color-interpolation-filters:linearRGB;solid-color:#000000;solid-opacity:1;fill:#ffffff;fill-opacity:1;fill-rule:evenodd;stroke:#000000;stroke-width:0.57485139;stroke-linecap:round;stroke-linejoin:round;stroke-miterlimit:4;stroke-dasharray:none;stroke-dashoffset:0;stroke-opacity:1;marker:none;marker-start:none;marker-mid:none;marker-end:none;color-rendering:auto;image-rendering:auto;shape-rendering:auto;text-rendering:auto;enable-background:accumulate"
     d="m 22.617213,28.917911 a 0.54429414,0.49549431 13.215547 0 0 0.608482,-0.266291 c 0.37118,-0.743434 0.446246,-1.437923 0.481974,-2.060339 a 0.54450699,0.49568808 13.215547 1 0 -1.082654,-0.09355 c -0.0339,0.589884 -0.09514,1.120686 -0.388343,1.707925 a 0.54429414,0.49549431 13.215547 0 0 0.3805,0.712253 z"
     id="path1734-7-7" />
  <path
     id="path780-5-4-5"
     d="m 22.367415,29.651408 a 0.60006002,0.54626039 21.085157 0 0 0.704702,-0.198969 c 0.517575,-0.755854 0.704383,-1.502958 0.837354,-2.177288 a 0.6002947,0.54647403 21.085157 1 0 -1.168217,-0.265587 c -0.126061,0.639079 -0.273069,1.209509 -0.681905,1.806559 a 0.60006002,0.54626039 21.085157 0 0 0.30802,0.83527 z"
     style="color:#000000;font-style:normal;font-variant:normal;font-weight:normal;font-stretch:normal;font-size:medium;line-height:normal;font-family:sans-serif;text-indent:0;text-align:start;text-decoration:none;text-decoration-line:none;text-decoration-style:solid;text-decoration-color:#000000;letter-spacing:normal;word-spacing:normal;text-transform:none;direction:ltr;writing-mode:lr-tb;baseline-shift:baseline;text-anchor:start;white-space:normal;clip-rule:nonzero;display:inline;overflow:visible;visibility:visible;opacity:1;isolation:auto;mix-blend-mode:normal;color-interpolation:sRGB;color-interpolation-filters:linearRGB;solid-color:#000000;solid-opacity:1;fill:#ffffff;fill-opacity:1;fill-rule:evenodd;stroke:#000000;stroke-width:0.57485139;stroke-linecap:round;stroke-linejoin:round;stroke-miterlimit:4;stroke-dasharray:none;stroke-dashoffset:0;stroke-opacity:1;marker:none;marker-start:none;marker-mid:none;marker-end:none;color-rendering:auto;image-rendering:auto;shape-rendering:auto;text-rendering:auto;enable-background:accumulate" />
  <path
     id="path780-1-5-9"
     d="m 22.560766,30.133995 a 0.68166259,0.62054671 21.922002 0 0 0.803752,-0.214315 c 0.600438,-0.849964 0.825023,-1.695477 0.987247,-2.459223 A 0.68192916,0.62078938 21.922002 1 0 23.02923,27.139403 c -0.153793,0.723818 -0.330237,1.369314 -0.804528,2.040701 a 0.68166259,0.62054671 21.922002 0 0 0.336012,0.953869 z"
     style="color:#000000;font-style:normal;font-variant:normal;font-weight:normal;font-stretch:normal;font-size:medium;line-height:normal;font-family:sans-serif;text-indent:0;text-align:start;text-decoration:none;text-decoration-line:none;text-decoration-style:solid;text-decoration-color:#000000;letter-spacing:normal;word-spacing:normal;text-transform:none;direction:ltr;writing-mode:lr-tb;baseline-shift:baseline;text-anchor:start;white-space:normal;clip-rule:nonzero;display:inline;overflow:visible;visibility:visible;opacity:1;isolation:auto;mix-blend-mode:normal;color-interpolation:sRGB;color-interpolation-filters:linearRGB;solid-color:#000000;solid-opacity:1;fill:#ffffff;fill-opacity:1;fill-rule:evenodd;stroke:#000000;stroke-width:0.57485139;stroke-linecap:round;stroke-linejoin:round;stroke-miterlimit:4;stroke-dasharray:none;stroke-dashoffset:0;stroke-opacity:1;marker:none;marker-start:none;marker-mid:none;marker-end:none;color-rendering:auto;image-rendering:auto;shape-rendering:auto;text-rendering:auto;enable-background:accumulate" />
  <path
     id="path4919-9-5-2-2"
     d="m 23.442486,29.619243 c 0.170377,-0.0282 0.314743,-0.125055 0.394788,-0.264849 0.46535,-0.789081 0.600733,-1.548502 0.687862,-2.230272 0.03164,-0.375915 0.01696,-0.746572 -0.03786,-1.065978 -0.03519,-0.220188 -0.106937,-0.631664 -0.106937,-0.631664 -0.176925,-1.106918 -0.742265,-1.936773 -1.261468,-1.853428 -0.09615,0.01233 -0.182344,0.0332 -0.269079,0.04898 -0.540881,0.08639 -0.879822,0.779815 -0.757183,1.54908 0.06092,0.382061 0.229484,0.729818 0.466258,0.961904 0.0118,0.08079 0.02258,0.148882 0.0344,0.227896 0.08053,0.504685 0.340822,0.896209 0.65385,1.096085 -0.08295,0.44587 -0.198409,0.880026 -0.463847,1.330117 -0.183607,0.302544 -0.005,0.699687 0.365146,0.81192 0.09593,0.02934 0.19701,0.0363 0.293992,0.02026 z"
     style="color:#000000;clip-rule:nonzero;display:inline;overflow:visible;visibility:visible;opacity:1;isolation:auto;mix-blend-mode:normal;color-interpolation:sRGB;color-interpolation-filters:linearRGB;solid-color:#000000;solid-opacity:1;fill:#ffffff;fill-opacity:1;fill-rule:evenodd;stroke:#000000;stroke-width:0.57485139;stroke-linecap:round;stroke-linejoin:round;stroke-miterlimit:4;stroke-dasharray:none;stroke-dashoffset:0;stroke-opacity:1;marker:none;marker-start:none;marker-mid:none;marker-end:none;color-rendering:auto;image-rendering:auto;shape-rendering:auto;text-rendering:auto;enable-background:accumulate" />
  <path
     id="path3835-8-3-5-2"
     d="m 23.346957,27.892697 c 0.01478,-0.419585 0.223654,-0.699664 0.334849,-0.717856"
     style="color:#000000;clip-rule:nonzero;display:inline;overflow:visible;visibility:visible;opacity:1;isolation:auto;mix-blend-mode:normal;color-interpolation:sRGB;color-interpolation-filters:linearRGB;solid-color:#000000;solid-opacity:1;fill:none;fill-opacity:1;fill-rule:evenodd;stroke:#000000;stroke-width:0.2;stroke-linecap:butt;stroke-linejoin:miter;stroke-miterlimit:4;stroke-dasharray:none;stroke-dashoffset:0;stroke-opacity:1;color-rendering:auto;image-rendering:auto;shape-rendering:auto;text-rendering:auto;enable-background:accumulate" />
  <path
     id="rect4946-9-3-20-2-6-4-8"
     d="m 23.198538,25.516507 -0.161706,0.942897 c -0.05811,0.33883 -0.360216,0.541081 -0.677376,0.453476 -0.31716,-0.0876 -0.525711,-0.43091 -0.467604,-0.76974 l 0.323404,-1.885793"
     style="color:#000000;clip-rule:nonzero;display:inline;overflow:visible;visibility:visible;opacity:1;isolation:auto;mix-blend-mode:normal;color-interpolation:sRGB;color-interpolation-filters:linearRGB;solid-color:#000000;solid-opacity:1;fill:#ffffff;fill-opacity:1;fill-rule:evenodd;stroke:#000000;stroke-width:0.57485139;stroke-linecap:round;stroke-linejoin:round;stroke-miterlimit:4;stroke-dasharray:none;stroke-dashoffset:0;stroke-opacity:1;marker:none;marker-start:none;marker-mid:none;marker-end:none;color-rendering:auto;image-rendering:auto;shape-rendering:auto;text-rendering:auto;enable-background:accumulate" />
  <path
     id="path3661-9"
     d="m 13.398016,19.796381 c 0.360712,0 0.65039,0.289679 0.65039,0.650391 l 0,1.451172 c 0.0626,-0.309744 0.32165,-0.546875 0.650391,-0.546875 0.375323,0 0.677735,0.302411 0.677735,0.677734 l 0,0.154297 c 0.0079,3.11e-4 0.0156,-3.48e-4 0.02344,0 0.08472,-0.26105 0.323268,-0.453125 0.613278,-0.453125 l 0.02344,0 c 0.360712,0 0.65039,0.291632 0.65039,0.652344 l 0,0.04492 c 0.01107,0.0042 0.02031,0.0094 0.03125,0.01367 0.07948,-0.220824 0.262132,-0.375 0.476563,-0.375 l 0.08594,0 c 0.287755,0 0.519532,0.276934 0.519532,0.621093 -0.0066,0.290369 -0.0013,0.610607 -0.002,0.878907 0,0.220842 -0.01953,0.634765 -0.01953,0.634765 10e-7,1.11021 -1.162267,2.010116 -2.595703,2.009766 -1.433436,3.5e-4 -2.595704,-0.899555 -2.595703,-2.009766 0,-0.101253 -0.0066,-0.244199 -0.01172,-0.376953 -0.06069,-0.0728 -0.108258,-0.158075 -0.134765,-0.255859 -0.08096,-0.298652 0.05541,-0.593394 0.30664,-0.746094 l 0,-2.375 c 0,-0.360712 0.289679,-0.650391 0.650382,-0.650387 z"
     style="color:#000000;clip-rule:nonzero;display:inline;overflow:visible;visibility:visible;opacity:1;isolation:auto;mix-blend-mode:normal;color-interpolation:sRGB;color-interpolation-filters:linearRGB;solid-color:#000000;solid-opacity:1;fill:#ffffff;fill-opacity:1;fill-rule:evenodd;stroke:none;stroke-width:0.47633168;stroke-linecap:round;stroke-linejoin:round;stroke-miterlimit:4;stroke-dasharray:none;stroke-dashoffset:0;stroke-opacity:1;marker:none;marker-start:none;marker-mid:none;marker-end:none;color-rendering:auto;image-rendering:auto;shape-rendering:auto;text-rendering:auto;enable-background:accumulate" />
  <path
     style="display:inline;fill:none;fill-rule:evenodd;stroke:#000000;stroke-width:0.30000001;stroke-linecap:butt;stroke-linejoin:miter;stroke-miterlimit:4;stroke-dasharray:none;stroke-opacity:1"
     d="m 13.5275,22.733342 0.16726,0.468944"
     id="path5245-3-3" />
  <path
     style="display:inline;fill:none;fill-rule:evenodd;stroke:#000000;stroke-width:0.30000001;stroke-linecap:butt;stroke-linejoin:miter;stroke-miterlimit:4;stroke-dasharray:none;stroke-opacity:1"
     d="m 14.909022,22.515365 c -0.05312,0.163962 0.0087,0.590085 0.0087,0.590085"
     id="path5247-9-1" />
  <path
     style="display:inline;fill:none;fill-rule:evenodd;stroke:#000000;stroke-width:0.30000001;stroke-linecap:butt;stroke-linejoin:miter;stroke-miterlimit:4;stroke-dasharray:none;stroke-opacity:1"
     d="M 16.22285,22.631436 16.1465,23.131694"
     id="path5249-2-9" />
  <path
     style="display:inline;fill:none;fill-rule:evenodd;stroke:#000000;stroke-width:0.30000001;stroke-linecap:butt;stroke-linejoin:miter;stroke-miterlimit:4;stroke-dasharray:none;stroke-opacity:1"
     d="m 17.375618,22.953781 -0.184704,0.340515"
     id="path5251-1-4" />
  <path
     id="path3696-7"
     d="m 14.053534,21.624714 0,0.574524"
     style="color:#000000;clip-rule:nonzero;display:inline;overflow:visible;visibility:visible;opacity:1;isolation:auto;mix-blend-mode:normal;color-interpolation:sRGB;color-interpolation-filters:linearRGB;solid-color:#000000;solid-opacity:1;fill:#ffffff;fill-opacity:1;fill-rule:evenodd;stroke:#000000;stroke-width:0.5;stroke-linecap:round;stroke-linejoin:round;stroke-miterlimit:4;stroke-dasharray:none;stroke-dashoffset:0;stroke-opacity:1;marker:none;marker-start:none;marker-mid:none;marker-end:none;color-rendering:auto;image-rendering:auto;shape-rendering:auto;text-rendering:auto;enable-background:accumulate" />
  <ellipse
     ry="0.794101"
     rx="0.62283319"
     cy="-16.017685"
     cx="19.381987"
     id="path5110"
     style="color:#000000;clip-rule:nonzero;display:inline;overflow:visible;visibility:visible;opacity:1;isolation:auto;mix-blend-mode:normal;color-interpolation:sRGB;color-interpolation-filters:linearRGB;solid-color:#000000;solid-opacity:1;fill:none;fill-opacity:1;fill-rule:nonzero;stroke:#000000;stroke-width:0.40000001;stroke-linecap:round;stroke-linejoin:miter;stroke-miterlimit:4;stroke-dasharray:none;stroke-dashoffset:0;stroke-opacity:1;marker:none;marker-start:none;marker-mid:none;marker-end:none;color-rendering:auto;image-rendering:auto;shape-rendering:auto;text-rendering:auto;enable-background:accumulate;filter-blend-mode:normal;filter-gaussianBlur-deviation:0"
     transform="matrix(0,1,-1,0,0,0)" />
  <path
     style="color:#000000;clip-rule:nonzero;display:inline;overflow:visible;visibility:visible;opacity:1;isolation:auto;mix-blend-mode:normal;color-interpolation:sRGB;color-interpolation-filters:linearRGB;solid-color:#000000;solid-opacity:1;fill:#ffffff;fill-opacity:1;fill-rule:evenodd;stroke:#000000;stroke-width:0.35127696;stroke-linecap:round;stroke-linejoin:round;stroke-miterlimit:4;stroke-dasharray:none;stroke-dashoffset:0;stroke-opacity:1;marker:none;marker-start:none;marker-mid:none;marker-end:none;color-rendering:auto;image-rendering:auto;shape-rendering:auto;text-rendering:auto;enable-background:accumulate"
     d="m 5.3480922,1.2279827 c -0.2534196,0 -0.456934,0.2035144 -0.456934,0.4569341 l 0,1.3118002 C 4.6491101,2.9341405 4.3810092,2.8965398 4.0939239,2.8965483 3.0789183,2.8965209 2.2561785,3.3352327 2.2565811,3.8762815 c 0,0.1551541 0.013721,0.4459573 0.013721,0.4459573 -7e-7,0.7799824 0.8165552,1.412214 1.8236212,1.4119681 1.0070661,2.459e-4 1.823622,-0.631985 1.8236213,-1.4119681 0,-0.1197876 0.00896,-0.2914362 0.013721,-0.4459573 9.2e-5,-0.124116 -0.047317,-0.2419926 -0.1262405,-0.351277 l 0,-1.8400877 c 0,-0.2534197 -0.2035151,-0.4569341 -0.4569348,-0.4569341 z"
     id="path5195" />
  <rect
     style="color:#000000;clip-rule:nonzero;display:inline;overflow:visible;visibility:visible;opacity:1;isolation:auto;mix-blend-mode:normal;color-interpolation:sRGB;color-interpolation-filters:linearRGB;solid-color:#000000;solid-opacity:1;fill:#ffffff;fill-opacity:1;fill-rule:evenodd;stroke:#000000;stroke-width:0.35127696;stroke-linecap:round;stroke-linejoin:round;stroke-miterlimit:4;stroke-dasharray:none;stroke-dashoffset:0;stroke-opacity:1;marker:none;marker-start:none;marker-mid:none;marker-end:none;color-rendering:auto;image-rendering:auto;shape-rendering:auto;text-rendering:auto;enable-background:accumulate"
     id="rect5197"
     width="0.95193076"
     height="1.5837519"
     x="3.9577136"
     y="2.3199687"
     rx="0.47596538"
     ry="0.47596538" />
  <rect
     style="color:#000000;clip-rule:nonzero;display:inline;overflow:visible;visibility:visible;opacity:1;isolation:auto;mix-blend-mode:normal;color-interpolation:sRGB;color-interpolation-filters:linearRGB;solid-color:#000000;solid-opacity:1;fill:#ffffff;fill-opacity:1;fill-rule:evenodd;stroke:#000000;stroke-width:0.35127696;stroke-linecap:round;stroke-linejoin:round;stroke-miterlimit:4;stroke-dasharray:none;stroke-dashoffset:0;stroke-opacity:1;marker:none;marker-start:none;marker-mid:none;marker-end:none;color-rendering:auto;image-rendering:auto;shape-rendering:auto;text-rendering:auto;enable-background:accumulate"
     id="rect5199"
     width="0.93142313"
     height="1.4374839"
     x="3.0368786"
     y="2.5864642"
     rx="0.45743603"
     ry="0.45743603" />
  <rect
     ry="0.43644539"
     rx="0.36491579"
     y="2.8217413"
     x="2.2550468"
     height="1.2788948"
     width="0.79012656"
     id="rect5201"
     style="color:#000000;clip-rule:nonzero;display:inline;overflow:visible;visibility:visible;opacity:1;isolation:auto;mix-blend-mode:normal;color-interpolation:sRGB;color-interpolation-filters:linearRGB;solid-color:#000000;solid-opacity:1;fill:#ffffff;fill-opacity:1;fill-rule:evenodd;stroke:#000000;stroke-width:0.35127696;stroke-linecap:round;stroke-linejoin:round;stroke-miterlimit:4;stroke-dasharray:none;stroke-dashoffset:0;stroke-opacity:1;marker:none;marker-start:none;marker-mid:none;marker-end:none;color-rendering:auto;image-rendering:auto;shape-rendering:auto;text-rendering:auto;enable-background:accumulate" />
  <rect
     ry="0.47596538"
     rx="0.47596538"
     y="-6.8256364"
     x="1.6916138"
     height="1.5837519"
     width="0.95193076"
     id="rect5203"
     style="color:#000000;clip-rule:nonzero;display:inline;overflow:visible;visibility:visible;opacity:1;isolation:auto;mix-blend-mode:normal;color-interpolation:sRGB;color-interpolation-filters:linearRGB;solid-color:#000000;solid-opacity:1;fill:#ffffff;fill-opacity:1;fill-rule:evenodd;stroke:#000000;stroke-width:0.35127696;stroke-linecap:round;stroke-linejoin:round;stroke-miterlimit:4;stroke-dasharray:none;stroke-dashoffset:0;stroke-opacity:1;marker:none;marker-start:none;marker-mid:none;marker-end:none;color-rendering:auto;image-rendering:auto;shape-rendering:auto;text-rendering:auto;enable-background:accumulate"
     transform="matrix(-0.26163585,0.96516666,-0.96516666,-0.26163585,0,0)" />
  <path
     style="color:#000000;clip-rule:nonzero;display:inline;overflow:visible;visibility:visible;opacity:1;isolation:auto;mix-blend-mode:normal;color-interpolation:sRGB;color-interpolation-filters:linearRGB;solid-color:#000000;solid-opacity:1;fill:#ffffff;fill-opacity:1;fill-rule:evenodd;stroke:#000000;stroke-width:0.33687633;stroke-linecap:round;stroke-linejoin:round;stroke-miterlimit:4;stroke-dasharray:none;stroke-dashoffset:0;stroke-opacity:1;marker:none;marker-start:none;marker-mid:none;marker-end:none;color-rendering:auto;image-rendering:auto;shape-rendering:auto;text-rendering:auto;enable-background:accumulate"
     d="m 5.3052487,7.8133637 c -0.2430307,0 -0.438202,0.1951713 -0.438202,0.438202 l 0,0.4035617 C 4.6349214,8.5951162 4.3778113,8.559057 4.1024951,8.5590651 3.1290997,8.5590388 2.3400881,8.9797657 2.3404742,9.498634 c 0,0.1487936 0.013158,0.4276753 0.013158,0.4276753 -7e-7,0.7480077 0.7830805,1.3543207 1.7488618,1.3540847 0.9657814,2.36e-4 1.7488625,-0.606077 1.7488619,-1.3540847 0,-0.1148768 0.0086,-0.2794887 0.013158,-0.4276753 8.9e-5,-0.1190278 -0.045376,-0.232072 -0.1210645,-0.3368763 l 0,-0.910192 c 0,-0.2430307 -0.195172,-0.438202 -0.4382027,-0.438202 z"
     id="path5205" />
  <rect
     style="color:#000000;clip-rule:nonzero;display:inline;overflow:visible;visibility:visible;opacity:1;isolation:auto;mix-blend-mode:normal;color-interpolation:sRGB;color-interpolation-filters:linearRGB;solid-color:#000000;solid-opacity:1;fill:#ffffff;fill-opacity:1;fill-rule:evenodd;stroke:#000000;stroke-width:0.33687633;stroke-linecap:round;stroke-linejoin:round;stroke-miterlimit:4;stroke-dasharray:none;stroke-dashoffset:0;stroke-opacity:1;marker:none;marker-start:none;marker-mid:none;marker-end:none;color-rendering:auto;image-rendering:auto;shape-rendering:auto;text-rendering:auto;enable-background:accumulate"
     id="rect5207"
     width="0.91290629"
     height="1.518826"
     x="3.9718685"
     y="8.0061226"
     rx="0.45645314"
     ry="0.45645314" />
  <rect
     style="color:#000000;clip-rule:nonzero;display:inline;overflow:visible;visibility:visible;opacity:1;isolation:auto;mix-blend-mode:normal;color-interpolation:sRGB;color-interpolation-filters:linearRGB;solid-color:#000000;solid-opacity:1;fill:#ffffff;fill-opacity:1;fill-rule:evenodd;stroke:#000000;stroke-width:0.33687633;stroke-linecap:round;stroke-linejoin:round;stroke-miterlimit:4;stroke-dasharray:none;stroke-dashoffset:0;stroke-opacity:1;marker:none;marker-start:none;marker-mid:none;marker-end:none;color-rendering:auto;image-rendering:auto;shape-rendering:auto;text-rendering:auto;enable-background:accumulate"
     id="rect5209"
     width="0.89323944"
     height="1.3785542"
     x="3.088784"
     y="8.261693"
     rx="0.43868342"
     ry="0.43868342" />
  <rect
     ry="0.41855329"
     rx="0.34995607"
     y="8.4873257"
     x="2.3390038"
     height="1.2264664"
     width="0.75773531"
     id="rect5211"
     style="color:#000000;clip-rule:nonzero;display:inline;overflow:visible;visibility:visible;opacity:1;isolation:auto;mix-blend-mode:normal;color-interpolation:sRGB;color-interpolation-filters:linearRGB;solid-color:#000000;solid-opacity:1;fill:#ffffff;fill-opacity:1;fill-rule:evenodd;stroke:#000000;stroke-width:0.33687633;stroke-linecap:round;stroke-linejoin:round;stroke-miterlimit:4;stroke-dasharray:none;stroke-dashoffset:0;stroke-opacity:1;marker:none;marker-start:none;marker-mid:none;marker-end:none;color-rendering:auto;image-rendering:auto;shape-rendering:auto;text-rendering:auto;enable-background:accumulate" />
  <rect
     ry="0.45645314"
     rx="0.45645314"
     y="-8.2286606"
     x="7.155993"
     height="1.518826"
     width="0.91290629"
     id="rect5213"
     style="color:#000000;clip-rule:nonzero;display:inline;overflow:visible;visibility:visible;opacity:1;isolation:auto;mix-blend-mode:normal;color-interpolation:sRGB;color-interpolation-filters:linearRGB;solid-color:#000000;solid-opacity:1;fill:#ffffff;fill-opacity:1;fill-rule:evenodd;stroke:#000000;stroke-width:0.33687633;stroke-linecap:round;stroke-linejoin:round;stroke-miterlimit:4;stroke-dasharray:none;stroke-dashoffset:0;stroke-opacity:1;marker:none;marker-start:none;marker-mid:none;marker-end:none;color-rendering:auto;image-rendering:auto;shape-rendering:auto;text-rendering:auto;enable-background:accumulate"
     transform="matrix(-0.26163585,0.96516666,-0.96516666,-0.26163585,0,0)" />
  <rect
     style="color:#000000;clip-rule:nonzero;display:inline;overflow:visible;visibility:visible;opacity:1;isolation:auto;mix-blend-mode:normal;color-interpolation:sRGB;color-interpolation-filters:linearRGB;solid-color:#000000;solid-opacity:1;fill:#ffffff;fill-opacity:1;fill-rule:evenodd;stroke:#000000;stroke-width:0.33687633;stroke-linecap:round;stroke-linejoin:round;stroke-miterlimit:4;stroke-dasharray:none;stroke-dashoffset:0;stroke-opacity:1;marker:none;marker-start:none;marker-mid:none;marker-end:none;color-rendering:auto;image-rendering:auto;shape-rendering:auto;text-rendering:auto;enable-background:accumulate"
     id="rect5215"
     width="0.91290617"
     height="1.0468205"
     x="4.9512262"
     y="7.3823285"
     rx="0.38914248"
     ry="0.45645314" />
  <path
     id="rect5215-1"
     d="m 12.762716,21.796036 0,-1.357188 c 0,-0.357557 0.287852,-0.64541 0.645409,-0.64541 0.357557,0 0.645409,0.287853 0.645409,0.64541 l 0,1.185866"
     style="color:#000000;clip-rule:nonzero;display:inline;overflow:visible;visibility:visible;opacity:1;isolation:auto;mix-blend-mode:normal;color-interpolation:sRGB;color-interpolation-filters:linearRGB;solid-color:#000000;solid-opacity:1;fill:#ffffff;fill-opacity:1;fill-rule:evenodd;stroke:#666666;stroke-width:0.47633168;stroke-linecap:round;stroke-linejoin:round;stroke-miterlimit:4;stroke-dasharray:none;stroke-dashoffset:0;stroke-opacity:1;marker:none;marker-start:none;marker-mid:none;marker-end:none;color-rendering:auto;image-rendering:auto;shape-rendering:auto;text-rendering:auto;enable-background:accumulate" />
  <path
     style="color:#000000;clip-rule:nonzero;display:inline;overflow:visible;visibility:visible;opacity:1;isolation:auto;mix-blend-mode:normal;color-interpolation:sRGB;color-interpolation-filters:linearRGB;solid-color:#000000;solid-opacity:1;fill:none;fill-opacity:1;fill-rule:evenodd;stroke:#000000;stroke-width:0.47633168;stroke-linecap:round;stroke-linejoin:round;stroke-miterlimit:4;stroke-dasharray:none;stroke-dashoffset:0;stroke-opacity:1;marker:none;marker-start:none;marker-mid:none;marker-end:none;color-rendering:auto;image-rendering:auto;shape-rendering:auto;text-rendering:auto;enable-background:accumulate"
     d="m 13.398016,21.009825 c 0.360712,0 0.65039,0.289679 0.65039,0.650391 l 0,0.237728 c 0.0626,-0.309744 0.32165,-0.546875 0.650391,-0.546875 0.375323,0 0.677735,0.302411 0.677735,0.677734 l 0,0.154297 c 0.0079,3.11e-4 0.0156,-3.48e-4 0.02344,0 0.08472,-0.26105 0.323268,-0.453125 0.613278,-0.453125 l 0.02344,0 c 0.360712,0 0.65039,0.291632 0.65039,0.652344 l 0,0.04492 c 0.01107,0.0042 0.02031,0.0094 0.03125,0.01367 0.07948,-0.220824 0.262132,-0.375 0.476563,-0.375 l 0.08594,0 c 0.287755,0 0.519532,0.276934 0.519532,0.621093 -0.0066,0.290369 -0.0013,0.610607 -0.002,0.878907 0,0.220842 -0.01953,0.634765 -0.01953,0.634765 10e-7,1.11021 -1.162267,2.010116 -2.595703,2.009766 -1.433436,3.5e-4 -2.595704,-0.899555 -2.595703,-2.009766 0,-0.101253 -0.0066,-0.244199 -0.01172,-0.376953 -0.06069,-0.0728 -0.108258,-0.158075 -0.134765,-0.255859 -0.08096,-0.298652 0.05541,-0.593394 0.30664,-0.746094 l 0,-1.161556 c 0,-0.360712 0.289679,-0.650391 0.650382,-0.650387 z"
     id="path5258" />
  <path
     id="path5400-5"
     d="m 9.9345055,20.321482 c -0.3078805,0.0063 -0.6239702,0.03696 -0.9121031,0.148429 -0.1419887,0.195109 -0.048478,0.47867 -0.062499,0.707031 0.063129,0.190582 0.286809,0.08857 0.4174513,0.03477 0.2296977,-0.06351 0.5041896,-0.128945 0.7169993,0.0098 0.106645,0.214133 -0.2035892,0.267796 -0.3562892,0.243533 -0.1591564,-0.004 -0.4443214,-0.04621 -0.436361,0.192388 0.039908,0.191159 -0.1018689,0.502494 0.1345154,0.592445 0.2342911,0.032 0.5164359,-0.05757 0.7119908,0.114749 0.13089,0.163219 -0.10576,0.31427 -0.2592515,0.29603 -0.297655,0.03318 -0.5939974,-0.07254 -0.8567967,-0.190722 C 8.8481313,22.443575 8.8196723,22.652896 8.835672,22.790218 8.814202,22.903276 8.892086,23.28928 8.7549,23.047231 8.55028,22.769636 8.3462176,22.49163 8.1415365,22.214079 8.3664299,21.906681 8.598419,21.603196 8.8173215,21.292207 8.9049995,20.99744 8.5012202,21.047822 8.3227775,21.051271 c -0.2289587,-0.01 -0.5105749,-0.04765 -0.5974124,0.229849 -0.062895,0.07774 -0.1165123,0.162777 -0.1756255,0.243506 -0.1376549,-0.153764 -0.20224,-0.413738 -0.4138706,-0.47331 -0.2453067,0.0048 -0.492757,-0.0063 -0.7379179,0.0053 -0.151954,0.03734 -0.146727,0.231908 -0.052268,0.321859 0.2066892,0.279825 0.4133785,0.559651 0.6200677,0.839476 -0.2367839,0.324028 -0.482184,0.643019 -0.7128944,0.970701 -0.085001,0.293769 0.3166145,0.248177 0.4959638,0.24209 0.2276012,0.0081 0.5087451,0.04669 0.5959632,-0.22899 0.073525,-0.09258 0.1372593,-0.192849 0.2069092,-0.288483 0.1537367,0.166438 0.2321882,0.44082 0.4558006,0.51754 0.2477298,-0.0043 0.4976874,0.0112 0.7453684,-0.0097 0.1139797,-0.0039 0.084759,-0.235137 0.1847587,-0.08767 0.4977681,0.170464 1.0546392,0.208262 1.5655287,0.06645 0.424206,-0.08992 0.753045,-0.501423 0.722674,-0.937831 8.2e-5,-0.261722 -0.132191,-0.520694 -0.347958,-0.669873 0.43633,-0.31766 0.349664,-1.092858 -0.135598,-1.311392 -0.246873,-0.131399 -0.532786,-0.157478 -0.8077615,-0.159311 z"
     style="font-style:normal;font-variant:normal;font-weight:bold;font-stretch:normal;font-size:medium;line-height:125%;font-family:sans-serif;-inkscape-font-specification:'sans-serif Bold';letter-spacing:0px;word-spacing:0px;display:inline;opacity:1;fill:#ff0000;fill-opacity:1;stroke:#ffffff;stroke-width:0.2;stroke-linecap:round;stroke-linejoin:round;stroke-miterlimit:4;stroke-dasharray:none;stroke-dashoffset:0;stroke-opacity:1;marker:none;marker-start:none;marker-mid:none;marker-end:none" />
  <path
     id="rect5391-25"
     d="m 7.7040789,3.5015426 c -0.07506,0 -0.151468,0.028428 -0.208984,0.085938 l -1.52539,1.5273438 c -0.111693,0.1116919 -0.11299,0.2887643 -0.00781,0.4042968 l 1.126953,0 0,1.3666969 -1.126953,0 c -0.105177,0.115532 -0.10388,0.2926049 0.00781,0.4042969 l 1.52539,1.5273439 c 0.057516,0.05751 0.133924,0.08594 0.208984,0.08594 0.075062,0 0.149522,-0.02842 0.207032,-0.08594 L 9.4384546,7.290115 c 0.111716,-0.111683 0.112996,-0.2887638 0.0078,-0.4042969 l -1.0585817,0 0,-1.3666969 1.0585937,0 c 0.105184,-0.1155335 0.103904,-0.2926139 -0.0078,-0.4042968 L 7.9111109,3.5874806 c -0.05751,-0.05752 -0.13197,-0.085937 -0.207032,-0.085938 z"
     style="color:#000000;clip-rule:nonzero;display:inline;overflow:visible;visibility:visible;opacity:1;isolation:auto;mix-blend-mode:normal;color-interpolation:sRGB;color-interpolation-filters:linearRGB;solid-color:#000000;solid-opacity:1;fill:#000000;fill-opacity:1;fill-rule:evenodd;stroke:#ffffff;stroke-width:0.2;stroke-linecap:round;stroke-linejoin:round;stroke-miterlimit:4;stroke-dasharray:none;stroke-dashoffset:0;stroke-opacity:1;marker:none;marker-start:none;marker-mid:none;marker-end:none;color-rendering:auto;image-rendering:auto;shape-rendering:auto;text-rendering:auto;enable-background:accumulate" />
  <path
     style="color:#000000;clip-rule:nonzero;display:inline;overflow:visible;visibility:visible;opacity:1;isolation:auto;mix-blend-mode:normal;color-interpolation:sRGB;color-interpolation-filters:linearRGB;solid-color:#000000;solid-opacity:1;fill:#000000;fill-opacity:1;fill-rule:nonzero;stroke:none;stroke-width:0.40000001;stroke-linecap:round;stroke-linejoin:miter;stroke-miterlimit:4;stroke-dasharray:none;stroke-dashoffset:0;stroke-opacity:1;marker:none;marker-start:none;marker-mid:none;marker-end:none;color-rendering:auto;image-rendering:auto;shape-rendering:auto;text-rendering:auto;enable-background:accumulate;filter-blend-mode:normal;filter-gaussianBlur-deviation:0"
     d="M 15.357422 19.035156 A 0.794101 0.62283319 0 0 0 15.222656 19.382812 A 0.794101 0.62283319 0 0 0 16.017578 20.003906 A 0.794101 0.62283319 0 0 0 16.8125 19.382812 A 0.794101 0.62283319 0 0 0 16.677734 19.035156 A 0.794101 0.62283319 0 0 1 16.017578 19.3125 A 0.794101 0.62283319 0 0 1 15.357422 19.035156 z "
     id="ellipse4253" />
</svg>
