<?xml version="1.0" encoding="UTF-8" standalone="no"?>
<svg
   xmlns:dc="http://purl.org/dc/elements/1.1/"
   xmlns:cc="http://creativecommons.org/ns#"
   xmlns:rdf="http://www.w3.org/1999/02/22-rdf-syntax-ns#"
   xmlns:svg="http://www.w3.org/2000/svg"
   xmlns="http://www.w3.org/2000/svg"
   width="100%"
   height="100%"
   id="SVGRoot"
   version="1.1"
   viewBox="0 0 32 32">
  <defs
     id="defs6229" />
  <metadata
     id="metadata6232">
    <rdf:RDF>
      <cc:Work
         rdf:about="">
        <dc:format>image/svg+xml</dc:format>
        <dc:type
           rdf:resource="http://purl.org/dc/dcmitype/StillImage" />
        <dc:title></dc:title>
      </cc:Work>
    </rdf:RDF>
  </metadata>
  <rect
     style="color:#000000;clip-rule:nonzero;display:inline;overflow:visible;visibility:visible;opacity:1;isolation:auto;mix-blend-mode:normal;color-interpolation:sRGB;color-interpolation-filters:linearRGB;solid-color:#000000;solid-opacity:1;fill:#ffffff;fill-opacity:1;fill-rule:evenodd;stroke:#000000;stroke-width:0.5;stroke-linecap:butt;stroke-linejoin:miter;stroke-miterlimit:4;stroke-dasharray:none;stroke-dashoffset:0;stroke-opacity:1;marker:none;marker-start:none;marker-mid:none;marker-end:none;color-rendering:auto;image-rendering:auto;shape-rendering:auto;text-rendering:auto;enable-background:accumulate"
     id="rect5094-5-6"
     width="31.5"
     height="31.5"
     x="0.25"
     y="0.25"
     rx="4.5"
     ry="4.5" />
  <path
     style="display:inline;overflow:visible;visibility:visible;opacity:1;vector-effect:none;fill:#ffffff;fill-opacity:1;stroke:#000000;stroke-width:0.5;stroke-linecap:round;stroke-linejoin:miter;stroke-miterlimit:4;stroke-dasharray:none;stroke-dashoffset:0;stroke-opacity:1;marker:none;enable-background:accumulate"
     d="m 13.349609,19.03125 c -0.799274,0.03065 -1.251387,0.152838 -1.570312,0.554688 -1.9830629,1.320753 -4.1041581,3.628616 -3.1718751,5.660156 l 1.0097656,0.05078 c -0.072287,0.361729 -0.125,0.70699 -0.125,1 0,1.319739 0.025029,2.809256 0.042969,4.125 H 22.492188 c 0.01793,-1.315744 0.04492,-2.805259 0.04492,-4.125 0,-0.402289 -0.08474,-0.890059 -0.21289,-1.410156 l 1.660156,-0.710938 c -0.781739,-1.830188 -1.891994,-3.335836 -3.716797,-4.560547 -0.32042,-0.421598 -0.774555,-0.552718 -1.589844,-0.583984 -0.87773,-0.0044 -1.754952,-0.01143 -2.632812,0 -0.0204,-2.87e-4 -0.04015,2.66e-4 -0.06055,0 -0.87787,-0.01143 -1.757046,-0.0044 -2.634766,0 z"
     id="path6023-1-3" />
  <path
     id="path2436-3-3-0"
     d="m 15.996347,4.2773347 c 4.39443,0 7.949629,3.972546 7.949629,8.8486653 0,0.914273 -0.11618,1.797303 -0.34888,2.626951 -1.445449,2.86789 -2.648579,3.439254 -3.663319,4.175462 -0.92737,0.672829 -1.50394,1.672522 -3.09013,1.9633 -0.0159,0.002 -0.0333,-0.0019 -0.0499,0 -0.26752,0.03019 -0.52282,0.0553 -0.79747,0.0553 -0.27465,0 -0.55486,-0.02512 -0.82237,-0.0553 -0.009,-9.3e-4 -0.0159,9.56e-4 -0.0248,0 -0.009,-0.0015 -0.0159,0.0015 -0.0249,0 -1.58357,-0.291981 -2.16372,-1.291162 -3.09014,-1.9633 C 11.035497,19.203951 9.860447,18.641 8.445517,15.89121 8.185977,15.019618 8.021856,14.093712 8.021856,13.126 c 0,-4.8761193 3.580141,-8.8486653 7.974571,-8.8486653 z"
     style="color:#000000;clip-rule:nonzero;display:inline;overflow:visible;visibility:visible;opacity:1;isolation:auto;mix-blend-mode:normal;color-interpolation:sRGB;color-interpolation-filters:linearRGB;solid-color:#000000;solid-opacity:1;fill:#ffffff;fill-opacity:1;fill-rule:evenodd;stroke:#000000;stroke-width:0.5;stroke-linecap:butt;stroke-linejoin:miter;stroke-miterlimit:4;stroke-dasharray:none;stroke-dashoffset:0;stroke-opacity:1;marker:none;color-rendering:auto;image-rendering:auto;shape-rendering:auto;text-rendering:auto;enable-background:accumulate" />
  <path
     style="display:inline;fill:none;stroke:#000000;stroke-width:0.40000001;stroke-linecap:round;stroke-linejoin:miter;stroke-miterlimit:4;stroke-dasharray:none;stroke-opacity:1"
     d="m 15.312859,16.990396 c 0,0.28682 0.12401,0.57367 0.3307,0.69656"
     id="path2597-0-5" />
  <path
     style="display:inline;overflow:visible;visibility:visible;fill:#ffffff;fill-opacity:1;fill-rule:evenodd;stroke:#000000;stroke-width:0.30000001;stroke-linecap:round;stroke-linejoin:round;stroke-miterlimit:4;stroke-dasharray:none;stroke-dashoffset:0;stroke-opacity:1;marker:none;enable-background:accumulate"
     d="m 13.861202,13.931016 c 0.47524,1.67612 0.20153,1.49875 -1.04505,1.84612 -0.80241,0.22359 -1.6367,-0.24053 -1.86225,-1.03599 -0.22554,-0.79549 0.24263,-1.622541 1.04506,-1.846131 0.80241,-0.22359 1.6367,0.24053 1.86224,1.036001 z"
     id="path2602-4-08" />
  <ellipse
     ry="0.99793828"
     rx="1.0066569"
     style="display:inline;overflow:visible;visibility:visible;fill:#000000;fill-opacity:1;fill-rule:evenodd;stroke:none;stroke-width:0.49999997;marker:none;enable-background:accumulate"
     id="path2604-4-0"
     cx="12.660807"
     cy="14.32981" />
  <ellipse
     ry="0.40046838"
     rx="0.42386398"
     style="display:inline;overflow:visible;visibility:visible;fill:#ffffff;fill-opacity:1;fill-rule:evenodd;stroke:none;stroke-width:0.5;marker:none;enable-background:accumulate"
     id="path2606-4-1"
     cx="12.409143"
     cy="14.038737" />
  <path
     id="path2612-4-3"
     d="m 18.067702,13.931016 c -0.47525,1.67612 -0.20154,1.49875 1.04505,1.84612 0.80241,0.22359 1.63669,-0.24053 1.86224,-1.03599 0.22555,-0.79549 -0.24263,-1.622541 -1.04505,-1.846131 -0.80241,-0.22359 -1.63671,0.24053 -1.86224,1.036001 z"
     style="display:inline;overflow:visible;visibility:visible;fill:#ffffff;fill-opacity:1;fill-rule:evenodd;stroke:#000000;stroke-width:0.30000001;stroke-linecap:round;stroke-linejoin:round;stroke-miterlimit:4;stroke-dasharray:none;stroke-dashoffset:0;stroke-opacity:1;marker:none;enable-background:accumulate" />
  <ellipse
     ry="0.99793828"
     rx="1.0066569"
     id="path2614-4-6"
     style="display:inline;overflow:visible;visibility:visible;fill:#000000;fill-opacity:1;fill-rule:evenodd;stroke:none;stroke-width:0.49999997;marker:none;enable-background:accumulate"
     cx="-19.268122"
     cy="14.32981"
     transform="scale(-1,1)" />
  <ellipse
     id="path2616-9-09"
     style="display:inline;overflow:visible;visibility:visible;fill:#ffffff;fill-opacity:1;fill-rule:evenodd;stroke:none;stroke-width:0.5;marker:none;enable-background:accumulate"
     cx="-19.068903"
     cy="14.038737"
     rx="0.42386398"
     ry="0.40046838"
     transform="scale(-1,1)" />
  <path
     id="path5180-3-1"
     d="m 8.4186665,13.428542 c -0.23713,-0.08281 -0.47816,-0.119259 -0.70922,-0.107246 -0.96759,0.05032 -1.54181,0.920814 -1.28265,1.944471 0.25939,1.023645 1.25396,1.812755 2.22163,1.762679 0.23104,-0.01239 0.44748,-0.07305 0.63684,-0.178444"
     style="color:#000000;clip-rule:nonzero;display:inline;overflow:visible;visibility:visible;opacity:1;isolation:auto;mix-blend-mode:normal;color-interpolation:sRGB;color-interpolation-filters:linearRGB;solid-color:#000000;solid-opacity:1;fill:#ffffff;fill-opacity:1;fill-rule:evenodd;stroke:#000000;stroke-width:0.5;stroke-linecap:butt;stroke-linejoin:miter;stroke-miterlimit:4;stroke-dasharray:none;stroke-dashoffset:0;stroke-opacity:1;marker:none;marker-start:none;marker-mid:none;marker-end:none;color-rendering:auto;image-rendering:auto;shape-rendering:auto;text-rendering:auto;enable-background:accumulate" />
  <path
     id="path5182-6-5"
     d="m 8.3390065,13.439101 c 0,0 -0.10467,0.732641 -0.0349,1.081518 -0.73265,-0.313989 -1.08153,-0.174438 -1.11642,0.313989"
     style="display:inline;fill:none;fill-rule:evenodd;stroke:#000000;stroke-width:0.30000001;stroke-linecap:round;stroke-linejoin:miter;stroke-miterlimit:4;stroke-dasharray:none;stroke-opacity:1" />
  <path
     id="path5184-0-42"
     d="m 8.2896565,14.566789 c -0.2467,0.222024 -0.37004,0.814087 0.27136,1.134789"
     style="display:inline;fill:none;fill-rule:evenodd;stroke:#000000;stroke-width:0.30000001;stroke-linecap:round;stroke-linejoin:miter;stroke-miterlimit:4;stroke-dasharray:none;stroke-opacity:1" />
  <path
     id="path4829-6-8-4"
     d="m 20.311479,6.0202247 c -0.59372,-1.481006 -2.85497,-4.224375 -3.34365,-4.447267 -0.16502,0.42652 -0.31288,1.333139 -0.31288,1.333139 0,0 -1.72325,-1.140194 -2.86348,-1.099444 0.0728,0.357931 0.22079,1.1338 0.22079,1.1338 0,0 -2.23119,-0.220707 -3.32209,1.200327 0.60441,0.09858 1.69965,0.480059 1.69965,0.480059 0,0 -0.93017,0.874488 -1.25593,1.847553 1.11664,-0.700885 1.95896,-0.670899 2.56766,-0.452297"
     style="color:#000000;clip-rule:nonzero;display:inline;overflow:visible;visibility:visible;opacity:1;isolation:auto;mix-blend-mode:normal;color-interpolation:sRGB;color-interpolation-filters:linearRGB;solid-color:#000000;solid-opacity:1;fill:#ffffff;fill-opacity:1;fill-rule:evenodd;stroke:#000000;stroke-width:0.5;stroke-linecap:round;stroke-linejoin:round;stroke-miterlimit:4;stroke-dasharray:none;stroke-dashoffset:0;stroke-opacity:1;marker:none;color-rendering:auto;image-rendering:auto;shape-rendering:auto;text-rendering:auto;enable-background:accumulate" />
  <path
     style="color:#000000;clip-rule:nonzero;display:inline;overflow:visible;visibility:visible;opacity:1;isolation:auto;mix-blend-mode:normal;color-interpolation:sRGB;color-interpolation-filters:linearRGB;solid-color:#000000;solid-opacity:1;fill:#ffffff;fill-opacity:1;fill-rule:evenodd;stroke:#000000;stroke-width:0.5;stroke-linecap:butt;stroke-linejoin:miter;stroke-miterlimit:4;stroke-dasharray:none;stroke-dashoffset:0;stroke-opacity:1;marker:none;marker-start:none;marker-mid:none;marker-end:none;color-rendering:auto;image-rendering:auto;shape-rendering:auto;text-rendering:auto;enable-background:accumulate"
     d="m 23.581333,13.428542 c 0.23713,-0.08281 0.47816,-0.119259 0.709221,-0.107246 0.967589,0.05032 1.541809,0.920814 1.282649,1.944471 -0.259389,1.023645 -1.25396,1.812755 -2.22163,1.762679 -0.23104,-0.01239 -0.447479,-0.07305 -0.63684,-0.178444"
     id="path5838-4" />
  <path
     style="display:inline;fill:none;fill-rule:evenodd;stroke:#000000;stroke-width:0.30000001;stroke-linecap:round;stroke-linejoin:miter;stroke-miterlimit:4;stroke-dasharray:none;stroke-opacity:1"
     d="m 23.660993,13.439101 c 0,0 0.104671,0.732641 0.0349,1.081518 0.73265,-0.313989 1.08153,-0.174438 1.116421,0.313989"
     id="path5840-2" />
  <path
     style="display:inline;fill:none;fill-rule:evenodd;stroke:#000000;stroke-width:0.30000001;stroke-linecap:round;stroke-linejoin:miter;stroke-miterlimit:4;stroke-dasharray:none;stroke-opacity:1"
     d="m 23.710343,14.566789 c 0.2467,0.222024 0.37004,0.814087 -0.27136,1.134789"
     id="path5842-58" />
  <path
     style="color:#000000;clip-rule:nonzero;display:inline;overflow:visible;visibility:visible;opacity:1;isolation:auto;mix-blend-mode:normal;color-interpolation:sRGB;color-interpolation-filters:linearRGB;solid-color:#000000;solid-opacity:1;fill:#ffffff;fill-opacity:1;fill-rule:evenodd;stroke:#000000;stroke-width:0.5;stroke-linecap:round;stroke-linejoin:round;stroke-miterlimit:4;stroke-dasharray:none;stroke-dashoffset:0;stroke-opacity:1;marker:none;marker-start:none;marker-mid:none;marker-end:none;color-rendering:auto;image-rendering:auto;shape-rendering:auto;text-rendering:auto;enable-background:accumulate"
     d="m 13.738476,22.121357 c -0.353421,-0.07215 -0.69519,0.153723 -0.767344,0.507145 l -0.373501,1.82945 c -0.319746,-0.156187 -0.682936,-0.28496 -1.083311,-0.366688 -1.41553,-0.289034 -2.687842,0.08854 -2.84133,0.843211 -0.044176,0.21638 -0.1078393,0.625844 -0.1078393,0.625844 -0.2220805,1.087771 0.736685,2.201981 2.1412193,2.488373 1.404395,0.287079 2.723184,-0.362144 2.945262,-1.449917 0.03411,-0.167057 0.09548,-0.403888 0.14611,-0.61803 0.03547,-0.173067 0.0029,-0.350958 -0.07604,-0.525838 l 0.523917,-2.566206 c 0.07215,-0.353422 -0.153725,-0.695191 -0.507146,-0.767345 z"
     id="path4919-2-3" />
  <rect
     style="color:#000000;clip-rule:nonzero;display:inline;overflow:visible;visibility:visible;opacity:1;isolation:auto;mix-blend-mode:normal;color-interpolation:sRGB;color-interpolation-filters:linearRGB;solid-color:#000000;solid-opacity:1;fill:#ffffff;fill-opacity:1;fill-rule:evenodd;stroke:#000000;stroke-width:0.5;stroke-linecap:round;stroke-linejoin:round;stroke-miterlimit:4;stroke-dasharray:none;stroke-dashoffset:0;stroke-opacity:1;marker:none;marker-start:none;marker-mid:none;marker-end:none;color-rendering:auto;image-rendering:auto;shape-rendering:auto;text-rendering:auto;enable-background:accumulate"
     id="rect4938-8-54"
     width="1.3549576"
     height="2.2542782"
     x="15.906789"
     y="20.480413"
     rx="0.67747879"
     ry="0.67747879"
     transform="rotate(11.538933)" />
  <rect
     style="color:#000000;clip-rule:nonzero;display:inline;overflow:visible;visibility:visible;opacity:1;isolation:auto;mix-blend-mode:normal;color-interpolation:sRGB;color-interpolation-filters:linearRGB;solid-color:#000000;solid-opacity:1;fill:#ffffff;fill-opacity:1;fill-rule:evenodd;stroke:#000000;stroke-width:0.5;stroke-linecap:round;stroke-linejoin:round;stroke-miterlimit:4;stroke-dasharray:none;stroke-dashoffset:0;stroke-opacity:1;marker:none;marker-start:none;marker-mid:none;marker-end:none;color-rendering:auto;image-rendering:auto;shape-rendering:auto;text-rendering:auto;enable-background:accumulate"
     id="rect4950-4-6"
     width="1.3257675"
     height="2.0460835"
     x="14.596094"
     y="20.859737"
     rx="0.65110451"
     ry="0.65110451"
     transform="rotate(11.538933)" />
  <rect
     ry="0.62122691"
     rx="0.51941323"
     y="21.194626"
     x="13.483252"
     height="1.8203511"
     width="1.124649"
     id="rect4952-1-3"
     style="color:#000000;clip-rule:nonzero;display:inline;overflow:visible;visibility:visible;opacity:1;isolation:auto;mix-blend-mode:normal;color-interpolation:sRGB;color-interpolation-filters:linearRGB;solid-color:#000000;solid-opacity:1;fill:#ffffff;fill-opacity:1;fill-rule:evenodd;stroke:#000000;stroke-width:0.5;stroke-linecap:round;stroke-linejoin:round;stroke-miterlimit:4;stroke-dasharray:none;stroke-dashoffset:0;stroke-opacity:1;marker:none;marker-start:none;marker-mid:none;marker-end:none;color-rendering:auto;image-rendering:auto;shape-rendering:auto;text-rendering:auto;enable-background:accumulate"
     transform="rotate(11.538933)" />
  <rect
     ry="0.67747879"
     rx="0.67747879"
     y="-24.125511"
     x="16.299742"
     height="2.2542782"
     width="1.3549576"
     id="rect3659-9"
     style="color:#000000;clip-rule:nonzero;display:inline;overflow:visible;visibility:visible;opacity:1;isolation:auto;mix-blend-mode:normal;color-interpolation:sRGB;color-interpolation-filters:linearRGB;solid-color:#000000;solid-opacity:1;fill:#ffffff;fill-opacity:1;fill-rule:evenodd;stroke:#000000;stroke-width:0.5;stroke-linecap:round;stroke-linejoin:round;stroke-miterlimit:4;stroke-dasharray:none;stroke-dashoffset:0;stroke-opacity:1;marker:none;marker-start:none;marker-mid:none;marker-end:none;color-rendering:auto;image-rendering:auto;shape-rendering:auto;text-rendering:auto;enable-background:accumulate"
     transform="rotate(116.70608)" />
  <path
     style="display:inline;fill:none;stroke:#000000;stroke-width:0.40000001;stroke-linecap:round;stroke-linejoin:miter;stroke-miterlimit:4;stroke-dasharray:none;stroke-opacity:1"
     d="m 14.12573,19.435958 c 0.48134,-0.14543 1.20334,-0.21813 1.90965,-0.21813 0.7063,0 1.39692,0.0727 1.81547,0.21813"
     id="path2599-6-3" />
  <path
     style="display:inline;fill:#ffffff;fill-opacity:1;stroke:none"
     d="m 11.47412,13.114054 2.979181,0.789049 0.500673,-0.426901 c 0,0 0.377527,-1.172199 -1.405377,-1.715703 -1.782905,-0.543504 -3.040305,1.040958 -2.074477,1.353555 z"
     id="path4531" />
  <path
     style="display:inline;fill:none;stroke:#000000;stroke-width:0.40000001;stroke-linecap:round;stroke-linejoin:miter;stroke-miterlimit:4;stroke-dasharray:none;stroke-opacity:1"
     d="m 11.313326,13.098353 c 0,0 2.162104,0.558142 2.686399,0.74927 0.524293,0.191121 0.811285,-0.111107 0.925443,-0.363038"
     id="path4529" />
  <path
     id="path4592"
     d="m 20.52588,13.114054 -2.979181,0.789049 -0.500673,-0.426901 c 0,0 -0.377527,-1.172199 1.405377,-1.715703 1.782905,-0.543504 3.040305,1.040958 2.074477,1.353555 z"
     style="display:inline;fill:#ffffff;fill-opacity:1;stroke:none" />
  <path
     id="path4594"
     d="m 20.686674,13.098353 c 0,0 -2.162104,0.558142 -2.686399,0.74927 -0.524293,0.191121 -0.811285,-0.111107 -0.925443,-0.363038"
     style="display:inline;fill:none;stroke:#000000;stroke-width:0.40000001;stroke-linecap:round;stroke-linejoin:miter;stroke-miterlimit:4;stroke-dasharray:none;stroke-opacity:1" />
  <path
     style="color:#000000;clip-rule:nonzero;display:inline;overflow:visible;visibility:visible;opacity:1;isolation:auto;mix-blend-mode:normal;color-interpolation:sRGB;color-interpolation-filters:linearRGB;solid-color:#000000;solid-opacity:1;fill:#ff0000;fill-opacity:1;fill-rule:evenodd;stroke:#ffffff;stroke-width:0.2;stroke-linecap:round;stroke-linejoin:round;stroke-miterlimit:4;stroke-dasharray:none;stroke-dashoffset:0;stroke-opacity:1;marker:none;marker-start:none;marker-mid:none;marker-end:none;color-rendering:auto;image-rendering:auto;shape-rendering:auto;text-rendering:auto;enable-background:accumulate"
     d="m 16.310462,19.381943 c -0.06986,-0.01981 -0.147417,-0.01442 -0.216797,0.02148 L 15.82804,20.39561 c -0.621747,-0.145282 -1.268277,-0.226562 -1.933593,-0.226562 -0.875004,0 -1.716148,0.141463 -2.511719,0.386718 l -0.31836,-0.992187 c -0.142101,-0.06494 -0.310492,-0.0096 -0.382812,0.130859 L 9.6932751,21.61436 c -0.03723,0.07231 -0.04242,0.151171 -0.01953,0.222656 0.02289,0.07149 0.07221,0.134641 0.144532,0.171875 l 1.9218749,0.990235 c 0.140429,0.07235 0.308758,0.01822 0.386718,-0.117187 l -0.347656,-1.085938 c 0.670755,-0.203969 1.376707,-0.328125 2.115235,-0.328125 0.551222,0 1.080146,0.08121 1.595703,0.197265 L 15.19523,22.77061 c 0.08448,0.131434 0.25585,0.176774 0.392578,0.09766 l 1.869141,-1.082032 c 0.07041,-0.04072 0.11735,-0.105215 0.136718,-0.177734 0.01937,-0.07252 0.01142,-0.152247 -0.0293,-0.222657 l -1.082031,-1.871093 c -0.03954,-0.06837 -0.102019,-0.113006 -0.171875,-0.132813 z"
     id="rect5391-2-5" />
  <path
     style="color:#000000;font-style:normal;font-variant:normal;font-weight:bold;font-stretch:normal;font-size:medium;line-height:125%;font-family:sans-serif;-inkscape-font-specification:'sans-serif Bold';letter-spacing:0px;word-spacing:0px;clip-rule:nonzero;display:inline;overflow:visible;visibility:visible;opacity:1;isolation:auto;mix-blend-mode:normal;color-interpolation:sRGB;color-interpolation-filters:linearRGB;solid-color:#000000;solid-opacity:1;fill:#ff0000;fill-opacity:1;fill-rule:evenodd;stroke:#ffffff;stroke-width:0.2;stroke-linecap:round;stroke-linejoin:round;stroke-miterlimit:4;stroke-dasharray:none;stroke-dashoffset:0;stroke-opacity:1;marker:none;marker-start:none;marker-mid:none;marker-end:none;color-rendering:auto;image-rendering:auto;shape-rendering:auto;text-rendering:auto;enable-background:accumulate"
     d="m 5.7774747,19.185695 c -0.346842,0.0068 -0.698375,0.06627 -1.020993,0.193384 -0.108594,0.08423 -0.05336,0.234653 -0.0669,0.351783 0.0072,0.14646 -0.01515,0.296963 0.01261,0.440689 0.04534,0.116774 0.202188,0.120627 0.284061,0.04082 0.241974,-0.134191 0.530058,-0.285025 0.811622,-0.194684 0.197193,0.08442 0.17611,0.3621 0.03767,0.493525 -0.242737,0.245525 -0.514185,0.461605 -0.769495,0.694224 -0.118681,0.110388 -0.249933,0.209037 -0.360379,0.327136 -0.04781,0.113706 -0.01345,0.243666 -0.02386,0.364423 0.01359,0.116727 -0.03641,0.255549 0.04771,0.352504 0.0964,0.08072 0.232169,0.03246 0.347083,0.04562 0.595694,-0.002 1.191873,0.004 1.787262,-0.003 0.125589,-0.02081 0.138915,-0.16023 0.128489,-0.262736 -0.0071,-0.158251 0.01494,-0.320418 -0.01223,-0.476053 -0.05982,-0.139554 -0.228804,-0.08878 -0.347417,-0.09809 -0.193936,0 -0.387871,0 -0.581807,0 0.304049,-0.278312 0.660759,-0.52533 0.843233,-0.906221 0.192257,-0.420477 0.03687,-0.981885 -0.383788,-1.199054 -0.221966,-0.124743 -0.481308,-0.164031 -0.732883,-0.164256 z m -3.560546,0.734375 c -0.144679,-0.0068 -0.212855,0.189152 -0.108004,0.282222 0.216991,0.293947 0.433981,0.587893 0.650972,0.88184 -0.241103,0.327902 -0.488416,0.651732 -0.725642,0.982177 -0.06487,0.123285 0.06517,0.258335 0.192492,0.228761 0.231598,-0.0046 0.46502,0.0093 0.695468,-0.0071 0.112791,-0.05074 0.154405,-0.182926 0.232203,-0.272417 0.0599,-0.08521 0.119799,-0.170427 0.179698,-0.255641 0.123058,0.165851 0.233386,0.342706 0.364749,0.50139 0.105429,0.06382 0.237039,0.02152 0.354292,0.03377 0.161235,-0.0043 0.324185,0.0089 0.484321,-0.0069 0.125839,-0.0337 0.145534,-0.203947 0.05388,-0.284728 -0.227675,-0.307737 -0.455351,-0.615475 -0.683026,-0.923212 0.228718,-0.310986 0.463716,-0.61785 0.688529,-0.931399 0.06446,-0.122234 -0.06373,-0.257595 -0.190535,-0.228757 -0.231598,0.0046 -0.46502,-0.0093 -0.695468,0.0071 -0.112898,0.05066 -0.154072,0.183159 -0.231657,0.2728 -0.04901,0.07011 -0.09803,0.140224 -0.147041,0.210336 -0.108622,-0.150374 -0.204177,-0.311706 -0.321265,-0.454996 -0.105445,-0.06618 -0.238709,-0.02271 -0.35676,-0.03524 -0.145736,-1e-6 -0.291477,3e-6 -0.437209,-2e-6 z"
     id="path4735" />
  <path
     id="path1867-7"
     d="m 22.298828,24.902344 c -0.17978,-0.683709 -0.658633,-1.705876 -0.741512,-1.807172"
     style="display:inline;opacity:1;vector-effect:none;fill:#ffffff;fill-opacity:1;fill-rule:evenodd;stroke:#000000;stroke-width:0.5;stroke-linecap:round;stroke-linejoin:miter;stroke-miterlimit:4;stroke-dasharray:none;stroke-dashoffset:0;stroke-opacity:1" />
  <path
     id="path1734-7-5"
     d="m 22.617213,28.917911 a 0.54429414,0.49549431 13.215547 0 0 0.608482,-0.266291 c 0.37118,-0.743434 0.446246,-1.437923 0.481974,-2.060339 a 0.54450699,0.49568808 13.215547 1 0 -1.082654,-0.09355 c -0.0339,0.589884 -0.09514,1.120686 -0.388343,1.707925 a 0.54429414,0.49549431 13.215547 0 0 0.3805,0.712253 z"
     style="color:#000000;font-style:normal;font-variant:normal;font-weight:normal;font-stretch:normal;font-size:medium;line-height:normal;font-family:sans-serif;font-variant-ligatures:normal;font-variant-position:normal;font-variant-caps:normal;font-variant-numeric:normal;font-variant-alternates:normal;font-feature-settings:normal;text-indent:0;text-align:start;text-decoration:none;text-decoration-line:none;text-decoration-style:solid;text-decoration-color:#000000;letter-spacing:normal;word-spacing:normal;text-transform:none;writing-mode:lr-tb;direction:ltr;text-orientation:mixed;dominant-baseline:auto;baseline-shift:baseline;text-anchor:start;white-space:normal;shape-padding:0;clip-rule:nonzero;display:inline;overflow:visible;visibility:visible;opacity:1;isolation:auto;mix-blend-mode:normal;color-interpolation:sRGB;color-interpolation-filters:linearRGB;solid-color:#000000;solid-opacity:1;vector-effect:none;fill:#ffffff;fill-opacity:1;fill-rule:evenodd;stroke:#000000;stroke-width:0.57485139;stroke-linecap:round;stroke-linejoin:round;stroke-miterlimit:4;stroke-dasharray:none;stroke-dashoffset:0;stroke-opacity:1;marker:none;marker-start:none;marker-mid:none;marker-end:none;color-rendering:auto;image-rendering:auto;shape-rendering:auto;text-rendering:auto;enable-background:accumulate" />
  <path
     style="color:#000000;font-style:normal;font-variant:normal;font-weight:normal;font-stretch:normal;font-size:medium;line-height:normal;font-family:sans-serif;font-variant-ligatures:normal;font-variant-position:normal;font-variant-caps:normal;font-variant-numeric:normal;font-variant-alternates:normal;font-feature-settings:normal;text-indent:0;text-align:start;text-decoration:none;text-decoration-line:none;text-decoration-style:solid;text-decoration-color:#000000;letter-spacing:normal;word-spacing:normal;text-transform:none;writing-mode:lr-tb;direction:ltr;text-orientation:mixed;dominant-baseline:auto;baseline-shift:baseline;text-anchor:start;white-space:normal;shape-padding:0;clip-rule:nonzero;display:inline;overflow:visible;visibility:visible;opacity:1;isolation:auto;mix-blend-mode:normal;color-interpolation:sRGB;color-interpolation-filters:linearRGB;solid-color:#000000;solid-opacity:1;vector-effect:none;fill:#ffffff;fill-opacity:1;fill-rule:evenodd;stroke:#000000;stroke-width:0.57485139;stroke-linecap:round;stroke-linejoin:round;stroke-miterlimit:4;stroke-dasharray:none;stroke-dashoffset:0;stroke-opacity:1;marker:none;marker-start:none;marker-mid:none;marker-end:none;color-rendering:auto;image-rendering:auto;shape-rendering:auto;text-rendering:auto;enable-background:accumulate"
     d="m 22.367415,29.651408 a 0.60006002,0.54626039 21.085157 0 0 0.704702,-0.198969 c 0.517575,-0.755854 0.704383,-1.502958 0.837354,-2.177288 a 0.6002947,0.54647403 21.085157 1 0 -1.168217,-0.265587 c -0.126061,0.639079 -0.273069,1.209509 -0.681905,1.806559 a 0.60006002,0.54626039 21.085157 0 0 0.30802,0.83527 z"
     id="path780-5-4-3" />
  <path
     style="color:#000000;font-style:normal;font-variant:normal;font-weight:normal;font-stretch:normal;font-size:medium;line-height:normal;font-family:sans-serif;font-variant-ligatures:normal;font-variant-position:normal;font-variant-caps:normal;font-variant-numeric:normal;font-variant-alternates:normal;font-feature-settings:normal;text-indent:0;text-align:start;text-decoration:none;text-decoration-line:none;text-decoration-style:solid;text-decoration-color:#000000;letter-spacing:normal;word-spacing:normal;text-transform:none;writing-mode:lr-tb;direction:ltr;text-orientation:mixed;dominant-baseline:auto;baseline-shift:baseline;text-anchor:start;white-space:normal;shape-padding:0;clip-rule:nonzero;display:inline;overflow:visible;visibility:visible;opacity:1;isolation:auto;mix-blend-mode:normal;color-interpolation:sRGB;color-interpolation-filters:linearRGB;solid-color:#000000;solid-opacity:1;vector-effect:none;fill:#ffffff;fill-opacity:1;fill-rule:evenodd;stroke:#000000;stroke-width:0.57485139;stroke-linecap:round;stroke-linejoin:round;stroke-miterlimit:4;stroke-dasharray:none;stroke-dashoffset:0;stroke-opacity:1;marker:none;marker-start:none;marker-mid:none;marker-end:none;color-rendering:auto;image-rendering:auto;shape-rendering:auto;text-rendering:auto;enable-background:accumulate"
     d="m 22.560766,30.133995 a 0.68166259,0.62054671 21.922002 0 0 0.803752,-0.214315 c 0.600438,-0.849964 0.825023,-1.695477 0.987247,-2.459223 A 0.68192916,0.62078938 21.922002 1 0 23.02923,27.139403 c -0.153793,0.723818 -0.330237,1.369314 -0.804528,2.040701 a 0.68166259,0.62054671 21.922002 0 0 0.336012,0.953869 z"
     id="path780-1-5-5" />
  <path
     style="color:#000000;clip-rule:nonzero;display:inline;overflow:visible;visibility:visible;opacity:1;isolation:auto;mix-blend-mode:normal;color-interpolation:sRGB;color-interpolation-filters:linearRGB;solid-color:#000000;solid-opacity:1;vector-effect:none;fill:#ffffff;fill-opacity:1;fill-rule:evenodd;stroke:#000000;stroke-width:0.57485139;stroke-linecap:round;stroke-linejoin:round;stroke-miterlimit:4;stroke-dasharray:none;stroke-dashoffset:0;stroke-opacity:1;marker:none;marker-start:none;marker-mid:none;marker-end:none;color-rendering:auto;image-rendering:auto;shape-rendering:auto;text-rendering:auto;enable-background:accumulate"
     d="m 23.442486,29.619243 c 0.170377,-0.0282 0.314743,-0.125055 0.394788,-0.264849 0.46535,-0.789081 0.600733,-1.548502 0.687862,-2.230272 0.03164,-0.375915 0.01696,-0.746572 -0.03786,-1.065978 -0.03519,-0.220188 -0.106937,-0.631664 -0.106937,-0.631664 -0.176925,-1.106918 -0.742265,-1.936773 -1.261468,-1.853428 -0.09615,0.01233 -0.182344,0.0332 -0.269079,0.04898 -0.540881,0.08639 -0.879822,0.779815 -0.757183,1.54908 0.06092,0.382061 0.229484,0.729818 0.466258,0.961904 0.0118,0.08079 0.02258,0.148882 0.0344,0.227896 0.08053,0.504685 0.340822,0.896209 0.65385,1.096085 -0.08295,0.44587 -0.198409,0.880026 -0.463847,1.330117 -0.183607,0.302544 -0.005,0.699687 0.365146,0.81192 0.09593,0.02934 0.19701,0.0363 0.293992,0.02026 z"
     id="path4919-9-5-2-6" />
  <path
     style="color:#000000;clip-rule:nonzero;display:inline;overflow:visible;visibility:visible;opacity:1;isolation:auto;mix-blend-mode:normal;color-interpolation:sRGB;color-interpolation-filters:linearRGB;solid-color:#000000;solid-opacity:1;fill:none;fill-opacity:1;fill-rule:evenodd;stroke:#000000;stroke-width:0.2;stroke-linecap:butt;stroke-linejoin:miter;stroke-miterlimit:4;stroke-dasharray:none;stroke-dashoffset:0;stroke-opacity:1;color-rendering:auto;image-rendering:auto;shape-rendering:auto;text-rendering:auto;enable-background:accumulate"
     d="m 23.346957,27.892697 c 0.01478,-0.419585 0.223654,-0.699664 0.334849,-0.717856"
     id="path3835-8-3-5-2" />
  <path
     style="color:#000000;clip-rule:nonzero;display:inline;overflow:visible;visibility:visible;opacity:1;isolation:auto;mix-blend-mode:normal;color-interpolation:sRGB;color-interpolation-filters:linearRGB;solid-color:#000000;solid-opacity:1;vector-effect:none;fill:#ffffff;fill-opacity:1;fill-rule:evenodd;stroke:#000000;stroke-width:0.57485139;stroke-linecap:round;stroke-linejoin:round;stroke-miterlimit:4;stroke-dasharray:none;stroke-dashoffset:0;stroke-opacity:1;marker:none;marker-start:none;marker-mid:none;marker-end:none;color-rendering:auto;image-rendering:auto;shape-rendering:auto;text-rendering:auto;enable-background:accumulate"
     d="m 23.198538,25.516507 -0.161706,0.942897 c -0.05811,0.33883 -0.360216,0.541081 -0.677376,0.453476 -0.31716,-0.0876 -0.525711,-0.43091 -0.467604,-0.76974 l 0.323404,-1.885793"
     id="rect4946-9-3-20-2-6-4-9" />
  <path
     style="color:#000000;clip-rule:nonzero;display:inline;overflow:visible;visibility:visible;opacity:1;isolation:auto;mix-blend-mode:normal;color-interpolation:sRGB;color-interpolation-filters:linearRGB;solid-color:#000000;solid-opacity:1;fill:#ffffff;fill-opacity:1;fill-rule:evenodd;stroke:#000000;stroke-width:0.5;stroke-linecap:round;stroke-linejoin:round;stroke-miterlimit:4;stroke-dasharray:none;stroke-dashoffset:0;stroke-opacity:1;marker:none;marker-start:none;marker-mid:none;marker-end:none;color-rendering:auto;image-rendering:auto;shape-rendering:auto;text-rendering:auto;enable-background:accumulate"
     d="m 6.7261671,2.275545 c -0.360712,0 -0.65039,0.289678 -0.65039,0.65039 v 1.867188 c -0.344526,-0.08907 -0.726135,-0.14259 -1.134766,-0.142578 -1.444737,-3.9e-5 -2.615807,0.624414 -2.615234,1.394531 0,0.220843 0.01953,0.634766 0.01953,0.634766 -10e-7,1.11021 1.162267,2.010115 2.595703,2.009765 1.433436,3.5e-4 2.595704,-0.899554 2.595703,-2.009765 0,-0.170503 0.01276,-0.414824 0.01953,-0.634766 1.31e-4,-0.176664 -0.06735,-0.344447 -0.179688,-0.5 V 2.925935 c 0,-0.360712 -0.289679,-0.65039 -0.650391,-0.65039 z"
     id="path4919-2-2" />
  <rect
     style="color:#000000;clip-rule:nonzero;display:inline;overflow:visible;visibility:visible;opacity:1;isolation:auto;mix-blend-mode:normal;color-interpolation:sRGB;color-interpolation-filters:linearRGB;solid-color:#000000;solid-opacity:1;fill:#ffffff;fill-opacity:1;fill-rule:evenodd;stroke:#000000;stroke-width:0.5;stroke-linecap:round;stroke-linejoin:round;stroke-miterlimit:4;stroke-dasharray:none;stroke-dashoffset:0;stroke-opacity:1;marker:none;marker-start:none;marker-mid:none;marker-end:none;color-rendering:auto;image-rendering:auto;shape-rendering:auto;text-rendering:auto;enable-background:accumulate"
     id="rect4938-8-9"
     width="1.3549576"
     height="2.2542782"
     x="4.7471323"
     y="3.8298547"
     rx="0.67747879"
     ry="0.67747879" />
  <rect
     style="color:#000000;clip-rule:nonzero;display:inline;overflow:visible;visibility:visible;opacity:1;isolation:auto;mix-blend-mode:normal;color-interpolation:sRGB;color-interpolation-filters:linearRGB;solid-color:#000000;solid-opacity:1;fill:#ffffff;fill-opacity:1;fill-rule:evenodd;stroke:#000000;stroke-width:0.5;stroke-linecap:round;stroke-linejoin:round;stroke-miterlimit:4;stroke-dasharray:none;stroke-dashoffset:0;stroke-opacity:1;marker:none;marker-start:none;marker-mid:none;marker-end:none;color-rendering:auto;image-rendering:auto;shape-rendering:auto;text-rendering:auto;enable-background:accumulate"
     id="rect4950-4-31"
     width="1.3257675"
     height="2.0460835"
     x="3.4364367"
     y="4.2091784"
     rx="0.65110451"
     ry="0.65110451" />
  <rect
     ry="0.62122691"
     rx="0.51941323"
     y="4.5440669"
     x="2.3235941"
     height="1.8203511"
     width="1.124649"
     id="rect4952-1-9"
     style="color:#000000;clip-rule:nonzero;display:inline;overflow:visible;visibility:visible;opacity:1;isolation:auto;mix-blend-mode:normal;color-interpolation:sRGB;color-interpolation-filters:linearRGB;solid-color:#000000;solid-opacity:1;fill:#ffffff;fill-opacity:1;fill-rule:evenodd;stroke:#000000;stroke-width:0.5;stroke-linecap:round;stroke-linejoin:round;stroke-miterlimit:4;stroke-dasharray:none;stroke-dashoffset:0;stroke-opacity:1;marker:none;marker-start:none;marker-mid:none;marker-end:none;color-rendering:auto;image-rendering:auto;shape-rendering:auto;text-rendering:auto;enable-background:accumulate" />
  <rect
     ry="0.67747879"
     rx="0.67747879"
     y="-8.9981956"
     x="3.1489472"
     height="2.2542782"
     width="1.3549576"
     id="rect3659-4"
     style="color:#000000;clip-rule:nonzero;display:inline;overflow:visible;visibility:visible;opacity:1;isolation:auto;mix-blend-mode:normal;color-interpolation:sRGB;color-interpolation-filters:linearRGB;solid-color:#000000;solid-opacity:1;fill:#ffffff;fill-opacity:1;fill-rule:evenodd;stroke:#000000;stroke-width:0.5;stroke-linecap:round;stroke-linejoin:round;stroke-miterlimit:4;stroke-dasharray:none;stroke-dashoffset:0;stroke-opacity:1;marker:none;marker-start:none;marker-mid:none;marker-end:none;color-rendering:auto;image-rendering:auto;shape-rendering:auto;text-rendering:auto;enable-background:accumulate"
     transform="rotate(105.16715)" />
</svg>
