<?xml version="1.0" encoding="UTF-8" standalone="no"?>
<!-- Created with Inkscape (http://www.inkscape.org/) -->

<svg
 xmlns:dc="http://purl.org/dc/elements/1.1/"
 xmlns:cc="http://creativecommons.org/ns#"
 xmlns:rdf="http://www.w3.org/1999/02/22-rdf-syntax-ns#"
 xmlns:svg="http://www.w3.org/2000/svg"
 xmlns="http://www.w3.org/2000/svg"
 version="1.0"
 width="100%"
 height="100%"
 viewBox="0 0 48 48"
 id="ontology">
<metadata
 id="metadata32">
<rdf:RDF>
<cc:Work
 rdf:about="">
<dc:format>image/svg+xml</dc:format>
<dc:type
 rdf:resource="http://purl.org/dc/dcmitype/StillImage" />
<dc:title></dc:title>
</cc:Work>
</rdf:RDF>
</metadata>
<defs
 id="defs2385" />
<rect
 width="47"
 height="47"
 ry="9.1800003"
 x="0.5"
 y="0.5"
 id="r2393"
 style="fill:#ecc669;fill-opacity:1;fill-rule:nonzero;stroke:#cc9954;stroke-width:1;stroke-linecap:butt;stroke-linejoin:round;stroke-miterlimit:4;stroke-opacity:1;stroke-dasharray:none;stroke-dashoffset:0;marker:none;visibility:visible;display:inline;overflow:visible;enable-background:accumulate" />
<path
 d="m 9.71,31.25 c 0.29,1.71 2.14,3.06 4.41,3.06 2.27,0 4.12,-1.35 4.41,-3.06 l -8.82,0 z"
 id="p3173"
 style="fill:#ecc669;fill-opacity:1;fill-rule:evenodd;stroke:none;marker:none;visibility:visible;display:inline;overflow:visible;enable-background:accumulate" />
<path
 d="m 42.68,33.26 c -0.01,0 -0.02,0 -0.02,-0.01 0.01,0.01 0.01,0.01 0.02,0.01 z"
 id="p3531"
 style="fill:#f6e1b9;stroke:none" />
<path
 d="m 21.85,2.53 c -0.02,0 -0.04,0.02 -0.04,0.04 0.01,0.04 0.05,0.01 0.06,-0.02 0,-0.02 -0.01,-0.02 -0.02,-0.02 z"
 id="p3529"
 style="fill:#f6e1b9;stroke:none" />
<path
 d="m 3.79,2.58 c 0,0 0,0 -0.01,0 C 3.74,2.58 3.74,2.62 3.77,2.65 3.8,2.68 3.81,2.62 3.8,2.59 3.81,2.58 3.8,2.58 3.79,2.58 z"
 id="p3527"
 style="fill:#f6e1b9;stroke:none" />
<path
 d="m 21.11,2.92 c -0.05,0 -0.11,0.03 -0.15,0.05 -0.02,0.02 -0.08,0.04 -0.05,0.07 0.05,0.03 0.1,-0.02 0.15,-0.02 0.03,-0.02 0.06,-0.01 0.09,-0.03 0.02,0 0.03,0 0.05,-0.01 0.01,-0.03 -0.04,-0.05 -0.07,-0.05 0,0 -0.01,-0.01 -0.02,-0.01 z"
 id="p3523"
 style="fill:#f6e1b9;stroke:none" />
<path
 d="M 3.86,3.17 C 3.82,3.18 3.83,3.25 3.87,3.24 3.91,3.25 3.92,3.17 3.88,3.18 3.87,3.18 3.87,3.17 3.86,3.17 z"
 id="p3517"
 style="fill:#f6e1b9;stroke:none" />
<path
 d="m 5.6,5.57 c -0.03,0.02 0,0.06 -0.02,0.09 -0.01,0.04 0.01,0.08 0.05,0.06 0.05,0 0,-0.04 -0.01,-0.06 -0.02,-0.03 0.03,-0.06 0,-0.09 -0.01,0 -0.01,0 -0.02,0 z"
 id="p3515"
 style="fill:#f6e1b9;stroke:none" />
<path
 d="m 25.46,6.68 c -0.01,0 -0.02,0.01 -0.02,0.01 0.01,0 0.02,0 0.02,0 0,0 0,-0.01 0,-0.01 z"
 id="p3513"
 style="fill:#f6e1b9;stroke:none" />
<path
 d="m 25.38,6.72 c -0.02,0 -0.04,0.01 -0.04,0.01 0,0 0.01,0 0.01,0 0,0 0.02,-0.01 0.03,-0.01 z"
 id="p3511"
 style="fill:#f6e1b9;stroke:none" />
<path
 d="m 28.79,8.68 c -0.01,0.01 0,0.01 0.01,0.01 0,0 0,0 0.01,0 -0.01,0 -0.02,-0.01 -0.02,-0.01 z"
 id="p3505"
 style="fill:#f6e1b9;stroke:none" />
<path
 d="m 30.5,10.7 c 0,0.03 0,0.05 -0.01,0.07 0,0 0.01,-0.03 0.01,-0.07 l 0,0 z"
 id="p3503"
 style="fill:#f6e1b9;stroke:none" />
<path
 d="m 37.04,14.13 c 0,0 0,0 0,0 0,0 0,0 0,0 0,0 0,0 0,0 z"
 id="p3491"
 style="fill:#f6e1b9;stroke:none" />
<path
 d="m 35.1,26.36 c -0.02,0.02 -0.03,0.03 -0.05,0.04 0.02,0 0.03,0 0.05,-0.01 l 0,-0.03 z"
 id="p3489"
 style="fill:#f6e1b9;stroke:none" />
<path
 d="m 45.6,36.97 c -0.03,0 -0.04,0.03 -0.02,0.05 0.02,0.03 0.05,-0.01 0.04,-0.04 l 0,-0.01 c -0.01,0 -0.02,-0.01 -0.02,0 z"
 id="p3485"
 style="fill:#f6e1b9;stroke:none" />
<path
 d="m 45.39,38.32 c -0.02,0 -0.02,0.05 -0.05,0.04 -0.02,0.03 -0.01,0.07 -0.02,0.11 -0.02,0.02 0,0.06 0.01,0.08 0.01,0.03 0.04,0.06 0.05,0.02 0.02,-0.05 0.07,-0.08 0.08,-0.13 0.02,-0.04 -0.05,-0.03 -0.03,-0.07 -0.01,-0.01 -0.01,-0.03 -0.02,-0.04 -0.01,-0.01 -0.01,-0.01 -0.02,-0.01 z"
 id="p3481"
 style="fill:#f6e1b9;stroke:none" />
<path
 d="m 14.55,38.33 c 0,0 0,0.01 0,0.01 0,0.01 0,0.01 0,0.01 0,0 0,0 0,-0.01 0.02,0.01 0.03,0.01 0.06,0.01 l 0,-0.02 -0.05,0 c 0.01,0 0.01,0.02 -0.01,0.01 0,0 0,-0.01 0,-0.01 l 0,0 z"
 id="p3479"
 style="fill:#f6e1b9;stroke:none" />
<path
 d="m 18.33,39.14 c -0.01,0 -0.01,0 -0.01,0 0,0 0.01,0 0.02,0 0,0 -0.01,0 -0.01,0 z"
 id="p3477"
 style="fill:#f6e1b9;stroke:none" />
<path
 d="m 18.28,39.16 c -0.05,0 -0.1,0.01 -0.12,0.03 -0.06,0.03 -0.08,0.04 -0.09,0.05 l 0.01,0 c 0,0 0,0 0,0 0.02,-0.02 0.11,-0.06 0.2,-0.08 z"
 id="p3475"
 style="fill:#f6e1b9;stroke:none" />
<path
 d="m 22.57,39.31 c 0,0 0,0 0,0.01 l 0.01,0 -0.01,-0.01 z"
 id="p3473"
 style="fill:#f6e1b9;stroke:none" />
<path
 d="m 18.66,39.36 c 0,0 0,0.01 0.01,0.02 0,0 0,0 0,0 0,0 0,-0.01 -0.01,-0.02 z"
 id="p3471"
 style="fill:#f6e1b9;stroke:none" />
<path
 d="m 21.58,40.07 c 0,0.01 0.01,0.02 0.06,0.06 0,0 0.02,0.01 0.02,0.01 -0.04,-0.02 -0.07,-0.05 -0.08,-0.06 0,0 0,0 0,-0.01 z"
 id="p3467"
 style="fill:#f6e1b9;stroke:none" />
<path
 d="m 22.04,40.16 c 0,0 0,0 0,0 l -0.02,0.02 c 0.01,-0.01 0.02,-0.01 0.03,-0.02 l -0.01,0 z"
 id="p3465"
 style="fill:#f6e1b9;stroke:none" />
<path
 d="m 104.67281,31.836271 c -0.01,0 -0.02,0 -0.02,-0.01 0.01,0.01 0.01,0.01 0.02,0.01 z"
 id="p3531-2"
 style="fill:#f6e1b9;stroke:none" />
<path
 d="m 83.84281,1.1062712 c -0.02,0 -0.04,0.02 -0.04,0.04 0.01,0.04 0.05,0.01 0.06,-0.02 0,-0.02 -0.01,-0.02 -0.02,-0.02 z"
 id="p3529-6"
 style="fill:#f6e1b9;stroke:none" />
<path
 d="m 65.78281,1.1562712 c 0,0 0,0 -0.01,0 -0.04,0 -0.04,0.04 -0.01,0.07 0.03,0.03 0.04,-0.03 0.03,-0.06 0.01,-0.01 0,-0.01 -0.01,-0.01 z"
 id="p3527-7"
 style="fill:#f6e1b9;stroke:none" />
<path
 d="m 83.10281,1.4962712 c -0.05,0 -0.11,0.03 -0.15,0.05 -0.02,0.02 -0.08,0.04 -0.05,0.07 0.05,0.03 0.1,-0.02 0.15,-0.02 0.03,-0.02 0.06,-0.01 0.09,-0.03 0.02,0 0.03,0 0.05,-0.01 0.01,-0.03 -0.04,-0.05 -0.07,-0.05 0,0 -0.01,-0.01 -0.02,-0.01 z"
 id="p3523-9"
 style="fill:#f6e1b9;stroke:none" />
<path
 d="m 65.85281,1.7462712 c -0.04,0.01 -0.03,0.08 0.01,0.07 0.04,0.01 0.05,-0.07 0.01,-0.06 -0.01,0 -0.01,-0.01 -0.02,-0.01 z"
 id="p3517-9"
 style="fill:#f6e1b9;stroke:none" />
<path
 d="m 67.59281,4.1462712 c -0.03,0.02 0,0.06 -0.02,0.09 -0.01,0.04 0.01,0.08 0.05,0.06 0.05,0 0,-0.04 -0.01,-0.06 -0.02,-0.03 0.03,-0.06 0,-0.09 -0.01,0 -0.01,0 -0.02,0 z"
 id="p3515-4"
 style="fill:#f6e1b9;stroke:none" />
<path
 d="m 87.45281,5.2562712 c -0.01,0 -0.02,0.01 -0.02,0.01 0.01,0 0.02,0 0.02,0 0,0 0,-0.01 0,-0.01 z"
 id="p3513-4"
 style="fill:#f6e1b9;stroke:none" />
<path
 d="m 87.37281,5.2962712 c -0.02,0 -0.04,0.01 -0.04,0.01 0,0 0.01,0 0.01,0 0,0 0.02,-0.01 0.03,-0.01 z"
 id="p3511-1"
 style="fill:#f6e1b9;stroke:none" />
<path
 d="m 90.78281,7.2562712 c -0.01,0.01 0,0.01 0.01,0.01 0,0 0,0 0.01,0 -0.01,0 -0.02,-0.01 -0.02,-0.01 z"
 id="p3505-9"
 style="fill:#f6e1b9;stroke:none" />
<path
 d="m 92.49281,9.2762712 c 0,0.03 0,0.05 -0.01,0.07 0,0 0.01,-0.03 0.01,-0.07 l 0,0 z"
 id="p3503-1"
 style="fill:#f6e1b9;stroke:none" />
<path
 d="m 99.03281,12.706271 c 0,0 0,0 0,0 0,0 0,0 0,0 0,0 0,0 0,0 z"
 id="p3491-5"
 style="fill:#f6e1b9;stroke:none" />
<path
 d="m 97.09281,24.936271 c -0.02,0.02 -0.03,0.03 -0.05,0.04 0.02,0 0.03,0 0.05,-0.01 l 0,-0.03 z"
 id="p3489-0"
 style="fill:#f6e1b9;stroke:none" />
<path
 d="m 107.59281,35.546271 c -0.03,0 -0.04,0.03 -0.02,0.05 0.02,0.03 0.05,-0.01 0.04,-0.04 l 0,-0.01 c -0.01,0 -0.02,-0.01 -0.02,0 z"
 id="p3485-5"
 style="fill:#f6e1b9;stroke:none" />
<path
 d="m 107.38281,36.896271 c -0.02,0 -0.02,0.05 -0.05,0.04 -0.02,0.03 -0.01,0.07 -0.02,0.11 -0.02,0.02 0,0.06 0.01,0.08 0.01,0.03 0.04,0.06 0.05,0.02 0.02,-0.05 0.07,-0.08 0.08,-0.13 0.02,-0.04 -0.05,-0.03 -0.03,-0.07 -0.01,-0.01 -0.01,-0.03 -0.02,-0.04 -0.01,-0.01 -0.01,-0.01 -0.02,-0.01 z"
 id="p3481-3"
 style="fill:#f6e1b9;stroke:none" />
<path
 d="m 76.54281,36.906271 c 0,0 0,0.01 0,0.01 0,0.01 0,0.01 0,0.01 0,0 0,0 0,-0.01 0.02,0.01 0.03,0.01 0.06,0.01 l 0,-0.02 -0.05,0 c 0.01,0 0.01,0.02 -0.01,0.01 0,0 0,-0.01 0,-0.01 l 0,0 z"
 id="p3479-3"
 style="fill:#f6e1b9;stroke:none" />
<path
 d="m 80.32281,37.716271 c -0.01,0 -0.01,0 -0.01,0 0,0 0.01,0 0.02,0 0,0 -0.01,0 -0.01,0 z"
 id="p3477-9"
 style="fill:#f6e1b9;stroke:none" />
<path
 d="m 80.27281,37.736271 c -0.05,0 -0.1,0.01 -0.12,0.03 -0.06,0.03 -0.08,0.04 -0.09,0.05 l 0.01,0 c 0,0 0,0 0,0 0.02,-0.02 0.11,-0.06 0.2,-0.08 z"
 id="p3475-7"
 style="fill:#f6e1b9;stroke:none" />
<path
 d="m 84.56281,37.886271 c 0,0 0,0 0,0.01 l 0.01,0 -0.01,-0.01 z"
 id="p3473-3"
 style="fill:#f6e1b9;stroke:none" />
<path
 d="m 80.65281,37.936271 c 0,0 0,0.01 0.01,0.02 0,0 0,0 0,0 0,0 0,-0.01 -0.01,-0.02 z"
 id="p3471-3"
 style="fill:#f6e1b9;stroke:none" />
<path
 d="m 83.57281,38.646271 c 0,0.01 0.01,0.02 0.06,0.06 0,0 0.02,0.01 0.02,0.01 -0.04,-0.02 -0.07,-0.05 -0.08,-0.06 0,0 0,0 0,-0.01 z"
 id="p3467-0"
 style="fill:#f6e1b9;stroke:none" />
<path
 d="m 84.03281,38.736271 c 0,0 0,0 0,0 l -0.02,0.02 c 0.01,-0.01 0.02,-0.01 0.03,-0.02 l -0.01,0 z"
 id="p3465-3"
 style="fill:#f6e1b9;stroke:none" />
<path
 d="m 16.654091,7.7438526 c -0.86,0.02 -1.62,0.23 -2.29,0.64 -0.68,0.4 -1.3,1.07 -1.7,1.7700004 -0.39,0.679999 -0.59,1.459999 -0.62,2.339999 -0.92,-0.14 -1.62,-0.21 -2.1199999,-0.2 -0.51,0 -0.81,0.08 -0.92,0.24 -0.29,-0.07 -0.65,-0.24 -1.11,-0.5 -0.46,-0.28 -0.83,-0.7 -1.64,-1.08 -0.83,-0.379999 -1.92,-0.759999 -3.31,-1.1599994 0.15,0.5800004 0.3,1.3799994 0.44,2.4499994 0.13,1.07 0.29,3.100001 0.39,3.880001 0.1,0.76 0.17,0.99 0.21,0.7 -0.02,0.27 0.02,0.61 0.15,1.06 0.12,0.44 0.33,0.97 0.62,1.6 l -0.35,0.5 0.37,0 -0.15,0.22 c 0.8,-0.16 1.45,-0.14 2.01,-0.15 0.14,0 0.27,0 0.4,0 0.02,2.3e-5 0.03,-1.29e-4 0.05,0 -0.08,-0.1 -0.17,-0.18 -0.07,-0.23 0.18,-0.09 0.96,0 1.28,-0.05 0.29,-0.07 0.33,-0.34 0.56,-0.34 0.23,0 0.57,0.16 0.83,0.32 0.25,0.14 0.5599999,0.35 0.6699999,0.55 0.09,0.18 0.04,0.42 -0.06,0.6 -0.11,0.17 -0.3699999,0.32 -0.5999999,0.45 -0.17,0.16 -0.36,0.3 -0.7,0.29 -0.35,-0.04 -0.94,-0.36 -1.29,-0.42 -0.35,-0.08 -0.73,0.16 -0.8,0.02 -0.01,-0.02 -0.01,-0.03 -0.01,-0.05 -0.62,0.09 -1.37,0.22 -1.9,0.36 -0.09,0.02 -0.17,0.04 -0.26,0.07 -0.01,0.04 -0.03,0.09 -0.05,0.14 -0.05,0.11 -0.13,0.23 -0.24,0.35 l 0.57,-0.12 c -0.05,0.16 -0.1,0.32 -0.16,0.47 -0.06,0.15 -0.13,0.28 -0.2,0.42 l 0.37,-0.04 c 0.02,0.2 0.02,0.41 0,0.58 -0.02,0.16 -0.08,0.31 -0.17,0.44 l 0.44,-0.08 c 0,0.23 -0.02,0.41 -0.09,0.59 -0.07,0.17 -0.18,0.31 -0.33,0.44 l 0.68,-0.06 c -0.01,0.31 -0.06,0.55 -0.15,0.73 -0.09,0.17 -0.21,0.27 -0.37,0.31 l 0.66,-0.02 c -0.05,0.28 -0.13,0.5 -0.22,0.66 -0.08,0.15 -0.19,0.23 -0.31,0.26 l 0.42,0.11 -0.24,0.35 c 0.26,0.04 0.47,0.04 0.62,0 0.1,-0.03 0.18,-0.1 0.23,-0.2 -0.06,0.18 -0.11,0.33 -0.18,0.44 -0.07,0.12 -0.16,0.2 -0.24,0.22 l 0.5,-0.09 c 0.01,0.21 -0.03,0.39 -0.1,0.48 -0.07,0.08 -0.18,0.12 -0.32,0.11 l 0.6,0.08 -0.51,0.53 c 0.16,0.07 0.3,0.07 0.44,0 0.14,-0.08 0.26,-0.23 0.39,-0.46 -0.04,0.31 -0.12,0.57 -0.2,0.75 -0.08,0.18 -0.19,0.29 -0.3,0.35 0.29,0.04 0.52,0.06 0.68,0.06 0.15,0 0.24,-0.01 0.26,-0.06 0.08,0.15 0.1,0.32 0.07,0.48 -0.04,0.15 -0.14,0.33 -0.31,0.48 l 0.66,-0.02 -0.37,0.73 c 0.17,0.08 0.35,0.08 0.53,0 0.17,-0.09 0.35,-0.27 0.54,-0.53 0.11,0.18 0.14,0.37 0.07,0.57 -0.08,0.19 -0.23,0.39 -0.51,0.6 0.45,-0.02 0.8,-0.11 1.04,-0.24 0.24,-0.13 0.37,-0.32 0.41,-0.55 0.1,0.26 0.1,0.55 0,0.86 -0.11,0.3 -0.31,0.64 -0.64,0.99 l 1.17,-0.91 -0.28,1 0.6599999,-0.71 c 0,0.56 -0.06,1 -0.15,1.33 -0.09,0.31 -0.1999999,0.38 -0.3899999,0.59 -0.2,0.2 -0.58,0.33 -0.79,0.68 -0.21,0.35 -0.54,1.05 -0.48,1.39 0.03,0.32 0.49,0.51 0.75,0.61 0.26,0.1 0.51,0.1 0.8,0 0.4299999,0.16 0.8899999,0.23 1.3699999,0.2 0.47,-0.02 1.06,-0.12 1.51,-0.4 0.44,-0.29 0.8,-0.73 1.11,-1.33 0.17,0.74 0.27,1.35 0.28,1.86 0,0.5 -0.05,0.88 -0.22,1.15 -0.14,0.18 -0.28,0.4 -0.42,0.64 -0.14,0.23 -0.43,0.45 -0.42,0.81 0,0.36 0.08,1.02 0.44,1.33 0.36,0.3 1.18,0.53 1.73,0.5 0.53,-0.03 1.02,-0.24 1.46,-0.66 0.55,0.21 0.98,0.26 1.28,0.13 0.29,-0.13 0.4,-0.51 0.53,-0.91 0.13,-0.41 0.22,-1.09 0.26,-1.48 0.03,-0.39 -0.07,-0.47 -0.04,-0.84 0.02,-0.38 0.08,-0.85 0.17,-1.44 0.02,0.24 0.13,0.46 0.35,0.66 0.21,0.2 0.6,0.44 0.93,0.55 0.31,0.09 0.64,0.12 0.97,0.06 0.39,0.19 0.76,0.28 1.11,0.29 0.34,-0.01 0.76,-0.14 0.95,-0.29 0.17,-0.14 0.22,-0.32 0.13,-0.55 0.32,0.03 0.58,-0.06 0.75,-0.31 0.16,-0.25 0.19,-0.75 0.26,-1.15 0.07,-0.39 0.14,-0.79 0.2,-1.19 -0.04,-0.07 -0.01,-0.15 0.06,-0.24 0.07,-0.09 0.23,-0.2 0.44,-0.31 -0.15,-0.04 -0.18,-0.22 -0.13,-0.53 0.04,-0.32 0.33,-1.03 0.48,-1.33 0.16,-0.29 0.34,-0.44 0.48,-0.44 0.13,0 0.23,0.14 0.3,0.43 0.12,-0.41 0.37,-0.6 0.77,-0.59 0.4,0.01 0.92,0.21 1.6,0.64 0.11,-0.32 0.31,-0.4 0.61,-0.24 0.3,0.16 0.68,0.56 1.17,1.22 0.29,-0.07 0.64,-0.02 1.04,0.11 0.39,0.14 0.82,0.39 1.3,0.75 -0.34,-0.25 -0.25,-0.34 0.26,-0.26 0.52,0.06 2.17,0.66 2.86,0.71 0.67,0.03 0.67,-0.49 1.22,-0.46 0.55,0.01 1.5,0.46 2.08,0.57 0.56,0.1 0.9,0.07 1.33,0.11 0.42,0.03 0.83,0.08 1.22,0.13 0.06,-0.14 0.22,-0.2 0.48,-0.22 0.25,-0.01 0.6,0.04 1.06,0.15 0.01,-0.09 0.13,-0.14 0.4,-0.11 0.26,0.02 0.63,0.1 1.15,0.26 -0.16,-0.05 -0.18,-0.09 -0.08,-0.13 0.09,-0.03 0.31,-0.08 0.66,-0.11 -0.19,-0.18 -0.22,-0.27 -0.1,-0.3 0.09,-0.03 0.3,0 0.62,0.06 -0.16,-0.04 -0.29,-0.11 -0.38,-0.2 -0.12,-0.12 -0.13,-0.36 -0.15,-0.44 -0.52,-0.25 -0.85,-0.45 -0.99,-0.62 -0.14,-0.16 -0.1,-0.27 0.13,-0.33 -0.35,-0.19 -0.58,-0.36 -0.71,-0.53 -0.12,-0.16 -0.14,-0.32 -0.04,-0.46 -0.38,-0.13 -0.64,-0.24 -0.79,-0.33 -0.14,-0.08 -0.17,-0.16 -0.08,-0.2 -0.42,-0.02 -0.73,-0.06 -0.97,-0.13 -0.24,-0.07 -0.19,-0.23 -0.44,-0.3 -0.25,-0.08 -0.74,-0.09 -1.02,-0.17 -0.27,-0.08 -0.34,-0.26 -0.62,-0.33 -0.29,-0.08 -0.89,-0.03 -1.13,-0.11 -0.24,-0.07 -0.34,-0.18 -0.3,-0.33 -0.37,0.02 -0.65,0.02 -0.84,0 -0.2,-0.02 -0.29,-0.07 -0.3,-0.15 -0.37,-0.03 -0.61,-0.1 -0.75,-0.15 -0.14,-0.05 -0.17,-0.13 -0.09,-0.21 -0.86,0.06 -1.57,0 -2.15,-0.15 -0.57,-0.16 -0.77,-0.51 -1.28,-0.8 -0.52,-0.29 -1.38,-0.67 -1.8,-0.93 -0.41,-0.26 -0.55,-0.4 -0.68,-0.59 -0.14,-0.19 -0.19,-0.38 -0.15,-0.57 -0.15,-0.17 -0.27,-0.35 -0.33,-0.5 -0.06,-0.16 -0.09,-0.3 -0.06,-0.44 -0.3,-0.29 -0.46,-0.53 -0.5,-0.71 -0.03,-0.18 0.04,-0.29 0.26,-0.35 -0.26,-0.14 -0.42,-0.29 -0.46,-0.44 -0.04,-0.15 0,-0.3 0.17,-0.46 -0.31,-0.16 -0.49,-0.3 -0.57,-0.44 -0.07,-0.14 -0.04,-0.25 0.11,-0.37 -0.2,-0.16 -0.31,-0.32 -0.33,-0.46 -0.02,-0.15 0.03,-0.28 0.19,-0.41 -0.18,-0.04 -0.32,-0.12 -0.42,-0.22 -0.11,-0.1 -0.09,-0.29 -0.17,-0.4 -0.08,-0.09 -0.26,-0.12 -0.3,-0.22 -0.05,-0.11 -0.03,-0.25 0.02,-0.44 -0.3,-0.11 -0.49,-0.22 -0.6,-0.31 -0.1,-0.08 -0.1,-0.16 0,-0.22 -0.21,-0.16 -0.34,-0.29 -0.37,-0.37 -0.03,-0.08 0.01,-0.12 0.15,-0.13 -0.19,-0.14 -0.38,-0.3 -0.57,-0.48 -0.2,-0.19 -0.37,-0.4 -0.59,-0.59 -0.23,-0.19 -0.57,-0.39 -0.73,-0.51 -0.16,-0.11 -0.2,-0.11 -0.19,-0.17 0,-0.05 0.06,-0.13 0.19,-0.2 l -0.73,-0.44 c -0.25,-0.06 -0.41,-0.14 -0.51,-0.24 -0.09,-0.09 -0.11,-0.21 -0.06,-0.33 -0.44,-0.13 -0.74,-0.24 -0.93,-0.33 -0.19,-0.08 -0.23,-0.16 -0.17,-0.2 -0.28,-0.26 -0.46,-0.42 -0.55,-0.5 -0.16,-0.07 -0.83,-0.290001 -0.95,-0.390001 -0.11,-0.1 -0.03,-0.16 0.24,-0.2 -0.46,-0.09 -0.89,-0.26 -1.32,-0.51 -0.43,-0.25 -0.73,-0.74 -1.24,-0.97 -0.51,-0.23 -1.1,-0.36 -1.81,-0.39 -0.07,-0.23 -0.18,-0.6 -0.33,-1.13 -0.15,-0.53 -0.53,-1.349999 -0.57,-1.9899994 -0.04,-0.65 0.05,-1.23 0.29,-1.82 z M 4.7240911,21.633853 c 0.01,-0.04 0.02,-0.07 0.02,-0.11 -0.77,0.26 -1.74,0.66 -2.2,0.87 -0.55,0.25 -0.75,0.4 -0.61,0.46 0.49,-0.26 0.99,-0.5 1.5,-0.72 0.43,-0.18 0.8,-0.35 1.28,-0.49 z m 2.16,-0.43 c 0.09,-0.01 0.19,-0.02 0.28,-0.03 0.53,-0.06 1.01,-0.08 1.44,-0.06 0.03,0.02 0.08,0.03 0.14,0.03 0.04,0 0.07,0 0.1,-0.01 0,5.79e-4 0.01,0 0.02,0 0,0 0,0 -0.01,0 0.04,-0.01 0.07,-0.04 0.07,-0.07 0,-0.05 -0.08,-0.09 -0.18,-0.09 -0.06,0 -0.12,0.01 -0.15,0.04 0,0 0,0 -0.01,0 -0.34,-0.02 -0.78,-0.01 -1.34,0.04 -0.1,0.01 -0.22,0.02 -0.33,0.03 -0.02,0.05 -0.03,0.1 -0.03,0.14 z m 0.03,-0.14 c 0.05,-0.14 0.17,-0.32 0.24,-0.48 -0.2,0.01 -0.41,0.02 -0.64,0.05 -0.58,0.06 -1.35,0.19 -1.95,0.34 l -0.18,0.55 c 0.09,-0.05 0.17,-0.09 0.24,-0.11 0.05,-0.02 0.1,-0.02 0.13,0 0,0.03 0,0.06 -0.01,0.09 0.17,-0.06 0.34,-0.11 0.49,-0.15 0.63,-0.19 1.18,-0.24 1.67,-0.29 z m -2.35,-0.08 0.05,-0.15 c 0,0 -0.01,0 -0.02,0 -0.8,0.22 -2.13,0.78 -2.69,1.04 -0.55,0.25 -0.76,0.4 -0.61,0.46 0.49,-0.26 0.99,-0.5 1.5,-0.72 0.5,-0.22 0.92,-0.4 1.55,-0.56 0.07,-0.02 0.15,-0.04 0.23,-0.05 z m 0.05,-0.15 c 0.76,-0.23 1.42,-0.25 1.98,-0.31 0.22,-0.02 0.43,-0.04 0.62,-0.05 0.01,-0.03 0.01,-0.06 0.02,-0.08 0,-0.05 -0.01,-0.09 -0.03,-0.14 -0.2,0 -0.41,0 -0.64,0 -0.6,0.01 -1.4,0.08 -2.03,0.18 l -0.2,0.3 0.31,0 -0.03,0.1 z m -0.07,-0.43 0.11,-0.16 c 0,8.96e-4 0,0 -0.01,0 -0.81,0.16 -2.2,0.59 -2.77,0.8 -0.57,0.2 -0.78,0.33 -0.65,0.4 0.51,-0.22 1.02,-0.42 1.55,-0.59 0.52,-0.17 0.94,-0.33 1.59,-0.43 0.05,-0.01 0.12,-0.02 0.18,-0.03 z m 2.67,-0.18 c 0.28,0 0.55,0.02 0.79,0.05 0.03,0.02 0.09,0.04 0.16,0.04 0.03,0 0.05,0 0.08,-0.01 0,0 0.01,0 0.02,0 0,0 -0.01,0 -0.01,0 0.05,-0.01 0.08,-0.04 0.08,-0.07 0,-0.05 -0.08,-0.09 -0.18,-0.09 -0.05,0 -0.11,0.01 -0.14,0.03 0,0 -0.01,0 -0.02,-0.01 -0.24,-0.04 -0.53,-0.06 -0.87,-0.06 0.03,0.03 0.06,0.07 0.08,0.12 z m 0.01,0.22 c -0.01,0.03 -0.03,0.08 -0.05,0.12 0.29,-0.01 0.56,-0.01 0.82,0 0.03,0.01 0.08,0.03 0.13,0.03 0.1,0 0.18,-0.04 0.18,-0.09 0,-0.05 -0.08,-0.09 -0.18,-0.09 -0.07,0 -0.12,0.02 -0.16,0.04 0,0 -0.01,0 -0.02,-0.01 -0.2,-0.01 -0.44,-0.01 -0.71,0 z M 14.714091,9.5738526 c 0.25,0.01 0.11,1.0100004 0.4,1.4399994 0.29,0.43 1.22,0.83 1.33,1.2 0.09,0.36 -0.35,0.87 -0.71,1.01 -0.36,0.12 -1.06,-0.11 -1.46,-0.19 -0.41,-0.07 -0.82,0.02 -0.97,-0.25 -0.15,-0.29 -0.17,-0.91 0.06,-1.44 0.23,-0.55 1.01,-1.6999994 1.31,-1.7599994 0,0 0.01,0 0.02,0 z M 4.7740911,11.493852 c 0.01,-6.12e-4 0.02,0 0.03,0 0.4,0.04 2.13,1.13 2.56,1.55 0.41,0.39 0.2,0.6 -0.06,0.86 -0.27,0.24 -1.21,0.45 -1.55,0.64 -0.34,0.18 -0.26,0.36 -0.49,0.47 -0.23,0.100001 -0.71,0.300001 -0.86,0.140001 -0.14,-0.170001 -0.1,-0.710001 0,-1.120001 0.09,-0.4 0.46,-0.82 0.53,-1.25 0.06,-0.42 -0.5,-1.29 -0.16,-1.31 z m 6.3899999,1.33 c 0.1,0 0.23,0.42 0.19,0.66 -0.05,0.23 -0.38,0.58 -0.48,0.73 -0.11,0.14 -0.11,0.29 -0.14,0.16 -0.03,-0.14 -0.08,-0.68 -0.01,-0.94 0.07,-0.26 0.33,-0.61 0.45,-0.6 z m -1.5299999,0.36 c 0,2.01e-4 0.01,0 0.02,0 0.13,0.06 0.3599999,0.5 0.4199999,0.82 0.05,0.31 0,0.96 -0.07,1.01 -0.06,0.04 -0.1899999,-0.56 -0.3099999,-0.79 -0.14,-0.22 -0.43,-0.37 -0.43,-0.54 -0.01,-0.17 0.22,-0.5 0.37,-0.5 z m -0.77,0.99 c 0,0 0,-7.39e-4 0.01,0 0,7.88e-4 0.01,0 0.01,0 0.11,0.05 0.58,0.53 0.78,0.84 0.18,0.310001 0.31,0.670001 0.3699999,0.980001 0.06,0.3 0.06,0.54 0.03,0.8 -0.03,0.24 -0.1199999,0.56 -0.2099999,0.66 -0.11,0.09 -0.24,0.06 -0.4,-0.09 -0.15,-0.13 -0.34,-0.61 -0.52,-0.81 -0.18,-0.2 -0.36,-0.3 -0.57,-0.36 -0.21,-0.06 -0.51,-0.08 -0.71,-0.03 -0.21,0.03 -0.4,0.3 -0.52,0.28 -0.12,-0.02 -0.23,-0.32 -0.16,-0.41 0.06,-0.1 0.39,-0.09 0.59,-0.17 0.18,-0.09 0.46,-0.2 0.57,-0.37 0.08,-0.17 -0.03,-0.590001 0.03,-0.620001 0.07,-0.03 0.24,0.270001 0.39,0.390001 0.13,0.09 0.33,0.34 0.41,0.25 0.06,-0.1 0.03,-0.600001 0.01,-0.820001 -0.01,-0.2 -0.17,-0.46 -0.13,-0.49 z m 2.6799999,0.32 c 0.09,0 0.08,0.46 0.2,0.59 0.12,0.140001 0.3,0.320001 0.51,0.270001 0.2,-0.06 0.63,-0.640001 0.75,-0.660001 0.1,-0.02 -0.27,0.400001 -0.12,0.530001 0.14,0.11 0.8,0.12 1,0.23 0.19,0.11 0.23,0.36 0.16,0.42 -0.07,0.05 -0.35,-0.06 -0.6,-0.07 -0.26,0 -0.64,-0.16 -0.93,0.01 -0.29,0.17 -0.57,0.72 -0.75,1.04 -0.17,0.31 -0.12,0.69 -0.23,0.8 -0.12,0.08 -0.29,-0.04 -0.42,-0.19 -0.13,-0.15 -0.3,-0.45 -0.34,-0.69 -0.03,-0.26 0.01,-0.4 0.14,-0.78 0.11,-0.39 0.44,-1.320001 0.59,-1.480001 0.01,-0.01 0.03,-0.02 0.04,-0.02 z m 1.52,1.610001 c 0.02,-8.72e-4 0.04,7.29e-4 0.06,0 0.16,0.01 0.36,0.11 0.46,0.27 0.08,0.16 0.12,0.43 0.06,0.66 -0.07,0.21 -0.27,0.51 -0.49,0.63 -0.22,0.1 -0.61,0.04 -0.82,0.02 -0.22,-0.03 -0.43,-0.06 -0.46,-0.2 -0.02,-0.14 0.18,-0.44 0.3,-0.64 0.11,-0.2 0.21,-0.43 0.38,-0.55 0.13,-0.11 0.33,-0.18 0.5,-0.19 z m 2.42,0 c 0.03,0 0.09,0.01 0.21,0.08 0.23,0.14 1.01,0.71 1.11,0.84 0.07,0.11 -0.66,-0.27 -0.62,-0.12 0.03,0.15 0.85,0.96 0.84,1.04 -0.02,0.05 -0.68,-0.4 -0.96,-0.59 -0.29,-0.2 -0.64,-0.37 -0.73,-0.51 -0.08,-0.13 0.18,-0.15 0.21,-0.27 0.01,-0.11 -0.13,-0.32 -0.1,-0.39 0.01,-0.03 0.01,-0.06 0.05,-0.07 z m -10.2499999,0.2 c 0.02,0.01 0.16,0.46 0.21,0.69 0.02,0.22 0.09,0.53 0.01,0.62 -0.07,0.08 -0.39,-0.22 -0.46,-0.09 -0.08,0.12 0.04,0.9 -0.01,0.86 -0.09,-0.03 -0.44,-0.88 -0.4,-1.13 0.05,-0.25 0.57,-0.2 0.68,-0.36 0.1,-0.16 -0.06,-0.61 -0.03,-0.59 z m 2.69,0.09 c 0.02,0 0.04,-4.56e-4 0.06,0 0.14,0 0.29,0.03 0.42,0.1 0.2,0.1 0.45,0.29 0.61,0.49 0.14,0.18 0.23,0.46 0.28,0.59 0.04,0.11 0.04,0.09 0.03,0.13 -0.01,0.02 0.05,0.01 -0.13,0.09 -0.2,0.07 -0.72,0.42 -1.04,0.39 -0.32,-0.03 -0.68,-0.34 -0.84,-0.55 -0.15,-0.21 -0.16,-0.52 -0.08,-0.72 0.06,-0.21 0.3,-0.43 0.5,-0.5 0.05,-0.01 0.11,-0.03 0.17,-0.03 z m 5.1399999,0.05 c -0.08,3.75e-4 -0.17,0.01 -0.23,0.04 -0.13,0.04 -0.24,0.19 -0.28,0.31 -0.05,0.1 -0.07,0.26 0,0.33 0.07,0.05 0.32,0.07 0.47,0.04 0.14,-0.03 0.34,-0.14 0.39,-0.25 0.03,-0.12 -0.01,-0.36 -0.11,-0.43 -0.05,-0.03 -0.13,-0.05 -0.22,-0.05 z m -2.69,0.08 c 0.02,0 0.02,0.63 0.1,0.85 0.08,0.22 0.21,0.33 0.39,0.5 0.16,0.15 0.53,0.29 0.6,0.43 0.05,0.13 -0.14,0.21 -0.24,0.39 -0.11,0.18 -0.26,0.52 -0.38,0.67 -0.11,0.13 -0.21,0.24 -0.31,0.15 -0.09,-0.08 -0.19,-0.48 -0.32,-0.66 -0.14,-0.18 -0.3999999,-0.27 -0.4899999,-0.4 -0.08,-0.14 -0.09,-0.32 -0.05,-0.42 0.02,-0.1 0.12,-0.08 0.21,-0.2 0.08,-0.13 0.2599999,-0.32 0.3499999,-0.54 0.07,-0.22 0.09,-0.79 0.13,-0.78 z m 3.84,0.1 c 0.07,0 0.2,0.2 0.27,0.38 0.05,0.17 0.15,0.4 0.07,0.63 -0.09,0.21 -0.4,0.46 -0.57,0.64 -0.17,0.16 -0.25,0.27 -0.44,0.33 -0.18,0.03 -0.49,-0.05 -0.68,-0.07 -0.19,-0.02 -0.41,0 -0.46,-0.08 -0.05,-0.08 0.02,-0.33 0.16,-0.4 0.12,-0.07 0.36,0.01 0.56,-0.02 0.19,-0.05 0.4,-0.12 0.56,-0.28 0.14,-0.17 0.25,-0.49 0.34,-0.68 0.07,-0.19 0.1,-0.42 0.18,-0.42 z m -1.33,0.12 c 0.02,-0.01 0.1,0.02 0.14,0.05 0.02,0.02 0.06,0.07 0.05,0.11 -0.02,0.03 -0.11,0.07 -0.15,0.07 -0.04,-0.01 -0.08,-0.09 -0.08,-0.12 -0.01,-0.05 0.02,-0.1 0.05,-0.12 z m -4.9099999,0.16 c -0.01,0 -0.03,0 -0.04,0 -0.13,0.01 -0.32,0.04 -0.32,0.16 0,0.11 0.15,0.43 0.32,0.53 0.17,0.09 0.55,0.11 0.69,0.05 0.11,-0.06 0.13,-0.28 0.08,-0.4 -0.05,-0.12 -0.21,-0.23 -0.35,-0.29 -0.12,-0.05 -0.26,-0.07 -0.38,-0.07 z m -1.29,0.07 c 0.07,0 0.15,0.04 0.2,0.09 0.06,0.07 0.03,0.25 0.08,0.43 0.05,0.17 0.05,0.46 0.22,0.62 0.15,0.15 0.49,0.24 0.73,0.28 0.24,0.02 0.58,-0.1 0.72,-0.05 0.12,0.05 0.2,0.3 0.05,0.4 -0.16,0.09 -0.67,0.19 -0.96,0.17 -0.27,0 -0.52,-0.19 -0.74,-0.36 -0.22,-0.18 -0.48,-0.42 -0.55,-0.67 -0.07,-0.26 0.05,-0.69 0.13,-0.83 0.02,-0.05 0.06,-0.07 0.11,-0.07 z m 1.57,0.2 c 0.03,0 0.07,6.45e-4 0.1,0.01 0.06,0.02 0.12,0.14 0.11,0.19 -0.03,0.04 -0.17,0.09 -0.24,0.07 -0.07,-0.03 -0.13,-0.18 -0.11,-0.22 0.01,-0.02 0.07,-0.05 0.14,-0.05 z m 3.9999999,1.81 c 0.28,-0.01 0.55,0.26 0.9,0.38 0.37,0.11 1,0.14 1.28,0.32 0.04,0.03 0.08,0.07 0.11,0.11 0.49,0 1.06,0.01 1.74,0.15 0.13,0.02 0.28,0.06 0.44,0.1 -0.11,-0.13 -0.48,-0.38 -0.48,-0.45 0,-0.04 0.04,-0.07 0.13,-0.07 0.08,-3.75e-4 0.21,0.02 0.36,0.09 0.3,0.13 1.23,0.63 1.3,0.75 0.03,0.05 -0.25,-0.03 -0.51,-0.09 0.59,0.17 1.18,0.36 1.52,0.48 0.57,0.2 0.78,0.33 0.65,0.4 -0.51,-0.22 -1.03,-0.42 -1.55,-0.59 -0.35,-0.11 -0.66,-0.22 -1.01,-0.31 0.03,0.13 0.59,0.6 0.52,0.65 -0.08,0.05 -0.72,-0.21 -1,-0.36 -0.23,-0.13 -0.55,-0.38 -0.63,-0.49 -0.46,-0.05 -0.97,-0.1 -1.41,-0.12 0.03,0.09 0.05,0.2 0.07,0.3 0.47,0.04 1.01,0.11 1.63,0.29 0.79,0.22 2.12,0.78 2.69,1.04 0.55,0.25 0.75,0.39 0.61,0.45 -0.49,-0.26 -0.99,-0.5 -1.5,-0.72 -0.51,-0.21 -0.93,-0.4 -1.55,-0.56 -0.53,-0.14 -1.25,-0.27 -1.86,-0.36 0,0.02 0.01,0.04 0.02,0.06 0.1,0.17 0.39,0.17 0.27,0.32 -0.03,0.02 -0.08,0.07 -0.15,0.11 0.24,0.04 0.51,0.09 0.79,0.18 0.79,0.23 2.13,0.77 2.7,1.04 0.55,0.24 0.75,0.4 0.61,0.46 -0.49,-0.26 -0.99,-0.5 -1.5,-0.72 -0.51,-0.22 -0.93,-0.4 -1.54,-0.56 -0.36,-0.09 -0.81,-0.18 -1.26,-0.26 -0.22,0.12 -0.49,0.25 -0.7,0.3 -0.37,0.08 -0.77,-0.01 -1.12,0 -0.35,0 -0.64,0.04 -0.94,0 -0.31,-0.04 -0.72,-0.13 -0.88,-0.26 -0.16,-0.13 -0.06,-0.36 -0.07,-0.5 -0.02,-0.14 -0.07,-0.21 -0.02,-0.35 0.05,-0.14 0.16,-0.27 0.37,-0.47 0.21,-0.2 0.56,-0.66 0.88,-0.71 0.01,0 0.03,0 0.05,0 z m 2.43,2.01 c 0.07,-0.04 0.14,-0.08 0.2,-0.12 -0.45,-0.07 -0.85,-0.1 -1.21,-0.14 -0.56,-0.06 -1,-0.07 -1.34,-0.04 0,0 0,0 0,0 -5.67e-4,-4.2e-4 0,4.14e-4 0,0 -0.03,-0.02 -0.09,-0.04 -0.15,-0.04 -0.1,0 -0.18,0.04 -0.18,0.09 0,0.02 0.02,0.05 0.06,0.07 0,0 0,0 0,0 0,-3.99e-4 0.01,3.88e-4 0.01,0 0.03,0.01 0.06,0.02 0.11,0.02 0.05,0 0.11,-0.01 0.14,-0.03 0.42,-0.01 0.9,0 1.44,0.06 0.27,0.03 0.59,0.08 0.92,0.13 z m 0.05,-0.62 c -0.01,-0.04 -0.02,-0.09 -0.03,-0.14 -0.12,-0.01 -0.25,-0.02 -0.36,-0.03 -0.56,-0.06 -1,-0.08 -1.34,-0.04 0,0 -0.01,0 -0.02,0.01 -0.02,-0.03 -0.09,-0.05 -0.17,-0.05 -0.1,0 -0.18,0.04 -0.18,0.09 0,0.03 0.03,0.06 0.09,0.07 -10e-4,4.5e-4 0,0 0,0 0,-1.99e-4 0,1.98e-4 0,0 0.02,0 0.05,0.01 0.08,0.01 0.04,0 0.08,0 0.11,-0.02 0.44,-0.02 0.93,0 1.5,0.06 0.1,0.01 0.21,0.02 0.32,0.04 z m -0.11,-0.44 c -0.01,-0.04 -0.03,-0.08 -0.06,-0.13 -0.09,0 -0.19,0 -0.28,0 -0.14,0 -0.27,0 -0.4,0 -0.37,0 -0.68,0.02 -0.93,0.07 0,0 -0.01,0 -0.02,0.01 -0.03,-0.02 -0.08,-0.03 -0.14,-0.03 -0.1,0 -0.18,0.04 -0.18,0.09 0,0.03 0.03,0.06 0.09,0.07 0,0 -0.01,0 -0.02,0.01 0.01,0 0.02,0 0.03,0 0.02,0 0.05,0.01 0.08,0.01 0.06,0 0.12,-0.01 0.15,-0.04 0.42,-0.05 0.89,-0.07 1.44,-0.05 0.08,0 0.17,0 0.26,0.01 z m 1.41,0.12 c 0.19,0.02 0.37,0.05 0.54,0.08 0.2,0.03 0.39,0.07 0.57,0.12 0,-0.01 0,-0.01 0,-0.02 0,-0.01 0.03,-0.01 0.06,-0.01 0.07,-1.88e-4 0.19,0.02 0.33,0.05 -0.27,-0.08 -0.55,-0.15 -0.8,-0.22 0.02,0.03 0.04,0.05 0.03,0.07 -0.04,0.05 -0.75,-0.19 -0.77,-0.12 0,0.01 0,0.03 0.02,0.05 z m 3.81,-0.43 c 0.01,-5e-4 0.02,0 0.03,0 0.25,0.01 1.6,0.32 1.71,0.39 0.1,0.06 -1.17,-0.04 -1.09,0.03 0.08,0.07 1.51,0.34 1.54,0.39 0,0.03 -1.48,-0.21 -1.48,-0.16 -0.01,0.04 1.41,0.39 1.43,0.45 0,0.03 -1.23,-0.22 -1.36,-0.18 -0.13,0.03 0.66,0.4 0.59,0.42 -0.09,0.02 -0.93,-0.31 -1.05,-0.28 -0.11,0.02 0.44,0.44 0.35,0.42 -0.09,-0.02 -0.82,-0.45 -0.91,-0.57 -0.08,-0.12 0.35,-0.05 0.39,-0.14 0.01,-0.1 -0.24,-0.32 -0.23,-0.41 0.01,-0.08 0.28,-0.03 0.3,-0.08 0,-0.06 -0.39,-0.28 -0.23,-0.28 z m -9.24,1.47 c 0,0 0.01,-8.42e-4 0.02,0 0.02,0 0.06,0.02 0.15,0.04 0.19,0.02 0.57,0.1 0.82,0.23 0.23,0.11 0.65,0.3 0.56,0.5 -0.1,0.19 -0.75,0.61 -1.14,0.66 -0.4,0.02 -1.0199999,-0.3 -1.2199999,-0.45 -0.19,-0.14 -0.06,-0.26 0.05,-0.41 0.11,-0.16 0.4799999,-0.42 0.6399999,-0.51 0.05,-0.03 0.08,-0.05 0.1,-0.05 z m 13.73,0.03 c 0.03,5.03e-4 0.05,0 0.07,0 0.06,0.04 -0.67,0.29 -0.71,0.37 -0.03,0.06 0.53,0.04 0.48,0.09 -0.07,0.05 -0.72,0.19 -0.84,0.19 -0.11,-0.01 0.12,-0.18 0.12,-0.26 -0.02,-0.09 -0.36,-0.18 -0.21,-0.25 0.14,-0.06 0.85,-0.15 1.09,-0.15 z m -9.15,0.06 c 0.38,0 0.68,0.09 0.93,0.23 0.23,0.13 0.42,0.34 0.53,0.61 -0.26,0.01 -0.51,-0.04 -0.75,-0.19 -0.25,-0.14 -0.47,-0.36 -0.7,-0.65 z m -1.15,0.41 c 0.16,0 0.29,0.01 0.39,0.06 0.45,0.05 0.77,0.17 0.97,0.37 0.19,0.19 5.41e-4,0.47 0.21,0.81 0.2,0.33 0.78,0.84 1.01,1.2 0.23,0.34 0.32,0.62 0.33,0.86 -0.07,-0.02 -0.18,-0.13 -0.33,-0.29 -0.15,-0.16 -0.34,-0.38 -0.57,-0.66 0.05,0.22 0.13,0.44 0.26,0.67 0.12,0.23 0.27,0.45 0.48,0.69 -0.14,0 -0.28,-0.03 -0.43,-0.11 -0.15,-0.08 -0.3,-0.19 -0.47,-0.35 0,0.1 0.06,0.19 0.12,0.32 0.06,0.11 0.17,0.23 0.29,0.37 -0.21,-0.02 -0.41,-0.07 -0.58,-0.16 -0.16,-0.09 -0.31,-0.21 -0.42,-0.38 0.02,0.18 0.05,0.32 0.09,0.43 0.03,0.1 0.07,0.18 0.11,0.22 -0.11,0.03 -0.28,0.01 -0.48,-0.08 -0.2,-0.1 -0.46,-0.25 -0.75,-0.5 0.05,0.19 0.12,0.37 0.2,0.53 0.07,0.15 0.16,0.29 0.26,0.41 -0.08,-0.01 -0.19,-0.07 -0.32,-0.13 -0.12,-0.07 -0.27,-0.15 -0.44,-0.26 0.16,0.29 0.34,0.52 0.55,0.68 0.2,0.15 0.43,0.24 0.68,0.26 -0.13,0.03 -0.29,0.03 -0.49,-0.01 -0.2,-0.04 -0.43,-0.13 -0.7,-0.26 -0.05,0.17 -0.05,0.32 0,0.43 0.04,0.11 0.14,0.2 0.29,0.25 -0.14,0 -0.27,-0.02 -0.45,-0.09 -0.16,-0.06 -0.35,-0.18 -0.54,-0.32 0,0.13 0.07,0.26 0.2,0.42 0.13,0.15 0.3,0.32 0.56,0.51 -0.29,-0.09 -0.51,-0.19 -0.65,-0.27 -0.14,-0.09 -0.21,-0.17 -0.2,-0.25 -0.01,0.22 0,0.41 0.03,0.59 0.03,0.17 0.09,0.33 0.18,0.46 -0.15,0.01 -0.3,-0.03 -0.42,-0.14 -0.13,-0.11 -0.23,-0.27 -0.33,-0.5 -0.08,0 -0.11,0.11 -0.08,0.33 0.02,0.21 0.1,0.53 0.25,0.96 -0.12,0 -0.23,-0.07 -0.34,-0.21 -0.1,-0.14 -0.2,-0.34 -0.29,-0.61 -0.1,0.3 -0.15,0.55 -0.13,0.79 0.01,0.22 0.07,0.42 0.21,0.59 -0.24,-0.15 -0.41,-0.28 -0.51,-0.4 -0.1,-0.12 -0.13,-0.22 -0.09,-0.32 -0.09,0.19 -0.13,0.4 -0.13,0.63 0,0.22 0.03,0.45 0.11,0.71 l -0.43,-0.6 c 0.1,0.22 0.1,0.48 0,0.76 -0.1,0.27 -0.3,0.57 -0.6,0.91 l -0.09,-0.74 c -0.09,0.24 -0.2,0.42 -0.35,0.55 -0.14,0.12 -0.3099999,0.18 -0.5099999,0.2 l -0.36,-0.58 c 0.03,0.15 0,0.29 -0.09,0.47 -0.11,0.17 -0.28,0.34 -0.52,0.53 0.12,-0.11 0.17,-0.27 0.16,-0.46 -0.02,-0.2 -0.11,-0.45 -0.26,-0.73 l -0.36,0.26 -0.02,-0.78 -0.69,0.46 c 0.12,-0.14 0.2,-0.3 0.19,-0.48 -0.01,-0.18 -0.09,-0.38 -0.24,-0.6 -0.05,0.06 -0.14,0.1 -0.25,0.13 -0.11,0.02 -0.26,0.03 -0.42,0.02 0.11,-0.24 0.17,-0.47 0.19,-0.67 0,-0.2 -0.03,-0.38 -0.11,-0.54 l -0.49,0.09 c 0.08,-0.07 0.12,-0.18 0.15,-0.31 0.02,-0.13 0.01,-0.27 -0.01,-0.45 l -0.27,0.1 c 0.04,-0.04 0.07,-0.12 0.08,-0.24 0,-0.12 0.01,-0.27 -0.01,-0.46 -0.06,0.07 -0.13,0.11 -0.21,0.15 -0.08,0.03 -0.17,0.04 -0.27,0.05 0.08,-0.08 0.15,-0.18 0.22,-0.29 0.05,-0.12 0.11,-0.24 0.15,-0.39 -0.08,0.12 -0.16,0.21 -0.26,0.27 -0.09,0.05 -0.19,0.09 -0.29,0.09 0.08,-0.12 0.14,-0.26 0.17,-0.41 0.03,-0.15 0.05,-0.31 0.05,-0.48 0.01,0.03 0.1,-0.01 0.28,-0.13 0.2,-0.14 0.5,-0.39 0.92,-0.74 -0.23,0.11 -0.46,0.21 -0.67,0.26 -0.21,0.05 -0.42,0.07 -0.62,0.06 0.2,-0.08 0.37,-0.19 0.54,-0.35 0.16,-0.16 0.3,-0.35 0.43,-0.59 -0.11,0.07 -0.24,0.12 -0.42,0.15 -0.17,0.01 -0.38,0 -0.62,-0.03 0.26,-0.03 0.48,-0.12 0.66,-0.26 0.18,-0.14 0.31,-0.34 0.41,-0.6 -0.1,0.07 -0.23,0.1 -0.39,0.07 -0.16,-0.03 -0.35,-0.1 -0.56,-0.24 0.11,-0.01 0.26,-0.08 0.43,-0.23 0.17,-0.15 0.36,-0.36 0.61,-0.64 l -0.39,0.06 c 0,-0.01 0.13,-0.07 0.35,-0.17 0.22,-0.11 0.65,-0.41 0.97,-0.43 0.3,-0.03 0.52,0.15 0.87,0.27 0.33,0.11 0.76,0.34 1.16,0.46 0.3899999,0.11 0.7899999,0.29 1.1799999,0.25 0.38,-0.04 0.77,-0.31 1.1,-0.48 0.31,-0.17 0.49,-0.39 0.78,-0.5 0.29,-0.11 0.65,-0.17 0.92,-0.17 0.06,0 0.11,0 0.17,-0.01 z m -7.5199999,0.1 c 0.09,0 0.18,0.02 0.26,0.06 -0.28,0.2 -0.52,0.33 -0.73,0.4 -0.21,0.07 -0.38,0.07 -0.51,0.02 0.25,-0.21 0.48,-0.37 0.69,-0.43 0.1,-0.03 0.2,-0.05 0.29,-0.05 z m 9.2499999,0.32 c 0.17,0.1 0.31,0.19 0.45,0.29 0.12,0.09 0.22,0.19 0.3,0.29 -0.31,-0.07 -0.51,-0.15 -0.64,-0.25 -0.12,-0.09 -0.16,-0.21 -0.1,-0.33 z m 4.84,0.29 c 0.01,-1.19e-4 0.02,5.41e-4 0.04,0 0.23,0.03 1.05,0.51 1.07,0.6 0,0.08 -1,-0.13 -0.98,-0.05 0.01,0.07 1.06,0.43 1.09,0.49 0.01,0.05 -0.85,-0.17 -0.96,-0.14 -0.11,0.04 0.37,0.35 0.3,0.37 -0.08,0 -0.6,-0.18 -0.75,-0.32 -0.14,-0.16 -0.15,-0.41 -0.1,-0.57 0.02,-0.15 0.09,-0.39 0.29,-0.39 z m -4.63,0.37 c 0.2,0.09 0.38,0.19 0.51,0.32 0.12,0.11 0.23,0.25 0.29,0.39 -0.17,0 -0.33,-0.07 -0.47,-0.18 -0.13,-0.12 -0.24,-0.29 -0.34,-0.53 z m 6.92,1.23 c 0.46,0 1.56,0.08 1.61,0.12 0.05,0.04 -1.26,0.03 -1.41,0.12 -0.15,0.07 0.53,0.28 0.52,0.34 -0.02,0.03 -0.65,-0.1 -0.68,-0.03 -0.03,0.07 0.54,0.41 0.5,0.48 -0.06,0.03 -0.68,-0.01 -0.78,-0.15 -0.1,-0.14 0.15,-0.49 0.17,-0.64 0,-0.14 -0.37,-0.21 -0.09,-0.22 0.03,0 0.08,0 0.15,0 z m -0.94,2.41 c 0.02,5.81e-4 0.05,0 0.09,0.01 0.28,0.03 1.31,0.32 1.41,0.39 0.08,0.05 -0.92,-0.07 -0.89,-0.01 0.02,0.05 1.08,0.29 1.05,0.37 -0.04,0.06 -1.28,-0.07 -1.27,0.05 0.02,0.13 1.42,0.71 1.36,0.73 -0.09,0 -1.57,-0.5 -1.84,-0.68 -0.26,-0.18 0.29,-0.29 0.28,-0.41 -0.01,-0.11 -0.34,-0.21 -0.35,-0.28 -0.02,-0.07 -0.02,-0.17 0.15,-0.17 z m -8.99,1.84 c 0.07,0.13 0.16,0.22 0.29,0.25 0.12,0.03 0.25,0.01 0.42,-0.05 l 0.01,0.35 c 0.13,0.19 0.36,0.34 0.67,0.42 0.31,0.08 0.7,0.12 1.19,0.09 l -0.79,0.11 c 0.02,0.2 0.15,0.35 0.37,0.47 0.22,0.1 0.51,0.16 0.92,0.18 l -1.14,0.07 c -0.04,0.15 -0.01,0.29 0.09,0.43 0.1,0.13 0.29,0.26 0.55,0.38 -0.01,0.07 -0.12,0.07 -0.29,0.02 -0.18,-0.05 -0.44,-0.18 -0.78,-0.37 -0.02,0.16 0.03,0.31 0.17,0.46 0.13,0.14 0.34,0.28 0.64,0.42 -0.2,0.02 -0.43,0.02 -0.65,-0.03 -0.22,-0.05 -0.46,-0.16 -0.69,-0.29 0.02,0.13 0.08,0.25 0.17,0.38 0.08,0.12 0.2,0.25 0.35,0.37 -0.11,0.02 -0.23,0 -0.39,-0.05 -0.15,-0.06 -0.33,-0.18 -0.54,-0.33 0.08,0.19 0.1,0.36 0.09,0.53 -0.01,0.16 -0.07,0.31 -0.17,0.45 -0.1,-0.03 -0.2,-0.09 -0.27,-0.18 -0.08,-0.09 -0.14,-0.21 -0.19,-0.36 0,0.12 0,0.27 0.01,0.43 0,0.15 0,0.33 0,0.52 -0.1,-0.04 -0.18,-0.11 -0.28,-0.22 -0.08,-0.11 -0.18,-0.26 -0.26,-0.44 0.06,0.23 0.08,0.4 0.04,0.52 -0.03,0.11 -0.12,0.18 -0.27,0.19 l -0.32,-0.41 -0.55,0.48 c -0.05,-0.12 -0.11,-0.24 -0.19,-0.36 -0.08,-0.12 -0.17,-0.23 -0.29,-0.35 l -0.34,0.3 c 0.03,-0.1 0.03,-0.21 0,-0.36 -0.02,-0.14 -0.08,-0.31 -0.16,-0.5 l -0.26,0.38 0.01,-0.55 -0.3699999,0.13 -0.03,-0.59 c 0.17,0.01 0.3199999,0 0.4299999,-0.07 0.11,-0.07 0.19,-0.18 0.24,-0.35 l 0.2,0.38 c 0.23,-0.13 0.43,-0.3 0.56,-0.5 0.12,-0.2 0.22,-0.43 0.24,-0.69 l 0.48,0.3 c -0.06,-0.25 -0.1,-0.46 -0.1,-0.63 0,-0.17 0.02,-0.29 0.08,-0.38 l 0.81,0.36 c -0.11,-0.19 -0.19,-0.36 -0.23,-0.51 -0.04,-0.15 -0.05,-0.27 -0.03,-0.38 0.08,0.11 0.17,0.19 0.29,0.23 0.11,0.03 0.24,0.01 0.38,-0.04 -0.05,-0.13 -0.09,-0.25 -0.11,-0.36 -0.01,-0.11 -0.03,-0.2 -0.01,-0.29 z m 5.82,2.05 c 0.1,0 0.18,0 0.2,0.03 0.05,0.09 -0.81,0.48 -0.93,0.75 -0.12,0.26 0.25,0.67 0.19,0.83 -0.07,0.14 -0.49,-0.08 -0.6,0.07 -0.1,0.15 0.08,0.7 -0.03,0.83 -0.12,0.1 -0.48,-0.22 -0.67,-0.14 -0.19,0.07 -0.36,0.57 -0.47,0.6 -0.11,0.02 -0.17,-0.29 -0.26,-0.46 -0.11,-0.18 -0.28,-0.38 -0.36,-0.56 -0.09,-0.18 -0.32,-0.43 -0.17,-0.49 0.14,-0.05 0.79,0.23 1.02,0.14 0.21,-0.1 0.18,-0.64 0.3,-0.74 0.11,-0.11 0.26,0.2 0.39,0.1 0.1,-0.11 0.02,-0.58 0.29,-0.74 0.2,-0.12 0.8,-0.22 1.12,-0.22 z m 2.89,1.05 c 0.14,-0.02 0.39,0.47 0.63,0.49 0.23,0.01 0.35,-0.38 0.74,-0.39 0.38,-0.01 1.44,0.2 1.54,0.31 0.07,0.09 -0.86,0.12 -1.04,0.28 -0.18,0.15 0.16,0.56 -0.05,0.65 -0.23,0.07 -1.13,-0.35 -1.3,-0.19 -0.17,0.16 0.38,1.12 0.28,1.16 -0.13,0.02 -0.76,-0.99 -0.97,-0.95 -0.19,0.04 -0.07,1.11 -0.19,1.22 -0.13,0.08 -0.43,-0.64 -0.61,-0.64 -0.18,0 -0.43,0.7 -0.49,0.67 -0.07,-0.04 0.09,-0.6 0.09,-0.9 -0.01,-0.31 -0.16,-0.78 -0.1,-0.9 0.05,-0.11 0.36,0.25 0.44,0.19 0.06,-0.07 -0.13,-0.53 0,-0.6 0.14,-0.06 0.62,0.25 0.81,0.19 0.17,-0.08 0.09,-0.59 0.24,-0.61 z m -7.84,1.38 c 0,0 0.01,0.01 0.02,0.03 0.04,0.17 0.03,1.16 -0.01,1.54 -0.06,0.36 -0.23,0.59 -0.35,0.65 -0.11,0.04 -0.07,-0.39 -0.35,-0.33 -0.29,0.05 -1.14,0.68 -1.36,0.67 -0.21,-0.02 -0.17,-0.59 0.03,-0.77 0.21,-0.18 1.21,-0.19 1.2,-0.32 -0.04,-0.13 -1.3,-0.37 -1.36,-0.47 -0.04,-0.1 0.75,-0.11 1.07,-0.17 0.31,-0.07 0.64,-0.14 0.83,-0.26 0.16,-0.12 0.22,-0.55 0.27,-0.54 z m 4.69,0.56 c 0.13,0 -0.24,0.51 -0.33,0.77 -0.09,0.25 0.03,0.61 -0.23,0.76 -0.28,0.13 -1.16,-0.05 -1.39,0.07 -0.23,0.11 0.18,0.63 0.01,0.64 -0.19,0 -0.78,-0.39 -1.09,-0.65 -0.3,-0.27 -0.65,-0.75 -0.67,-0.95 -0.02,-0.2 0.16,-0.29 0.54,-0.26 0.09,0.15 0.19,0.31 0.28,0.48 0.17,0.24 0.39,0.35 0.68,0.35 0.28,-0.01 0.67,-0.21 1.04,-0.4 0.35,-0.2 1.01,-0.79 1.15,-0.79 z m -8.6599999,0.99 c 0.1699999,-0.01 0.4399999,0.13 0.5599999,0.24 0.11,0.1 0.03,0.28 0.15,0.39 0.12,0.1 0.39,0.06 0.56,0.23 0.15,0.17 0.26,0.51 0.39,0.76 0.11,0.23 0.4,0.5 0.33,0.65 -0.08,0.13 -0.52,0.17 -0.77,0.19 -0.25,0 -0.57,-0.05 -0.74,-0.12 -0.17,-0.07 -0.23,-0.14 -0.26,-0.31 -0.03,-0.17 0.06,-0.63 0.05,-0.71 -0.02,-0.07 -0.1499999,0.07 -0.1899999,0.23 -0.03,0.14 0,0.52 -0.05,0.67 -0.06,0.13 -0.17,0.16 -0.32,0.15 -0.15,-0.01 -0.44,-0.09 -0.58,-0.19 -0.14,-0.09 -0.23,-0.17 -0.24,-0.35 -0.02,-0.19 0,-0.5 0.1,-0.75 0.09,-0.26 0.29,-0.56 0.47,-0.74 0.16,-0.19 0.34,-0.31 0.53,-0.33 z m 14.2199999,0 c 0.14,0 0.3,0.48 0.28,0.71 -0.04,0.2 -0.43,0.32 -0.49,0.58 -0.05,0.25 0.15,0.69 0.1,0.92 -0.06,0.21 -0.33,0.4 -0.44,0.35 -0.1,-0.06 -0.14,-0.64 -0.19,-0.7 -0.05,-0.06 -0.19,0.12 -0.17,0.31 0,0.17 0.24,0.54 0.21,0.76 -0.04,0.21 -0.19,0.39 -0.46,0.47 -0.28,0.07 -0.97,0.03 -1.17,-0.03 -0.19,-0.07 -0.04,-0.18 0,-0.42 0.02,-0.26 0.18,-0.78 0.17,-1.06 -0.02,-0.28 -0.16,-0.66 -0.24,-0.56 -0.07,0.09 -0.08,0.79 -0.17,1.1 -0.1,0.29 -0.18,0.55 -0.4,0.65 -0.23,0.08 -0.71,0.02 -0.99,-0.1 -0.29,-0.14 -0.65,-0.41 -0.71,-0.69 -0.05,-0.28 0.11,-0.69 0.33,-0.95 0.2,-0.26 0.48,-0.43 0.9,-0.56 0.41,-0.13 1.08,-0.17 1.57,-0.19 0.48,-0.01 0.98,0.15 1.3,0.07 0.31,-0.1 0.41,-0.65 0.56,-0.63 z m 22.06,0.02 c 0.05,0.01 0.11,0.02 0.18,0.04 -0.06,-0.01 -0.12,-0.02 -0.18,-0.04 z m -31.55,1.2 c 0.03,0 0.08,0 0.12,0.02 0.15,0.07 0.34,0.43 0.6,0.6 0.26,0.14 0.9,0.17 0.9,0.29 -0.02,0.11 -0.93,0.32 -0.97,0.46 -0.02,0.12 0.86,0.19 0.79,0.33 -0.09,0.14 -1.08,0.54 -1.31,0.49 -0.23,-0.07 -0.01,-0.65 -0.05,-0.88 -0.05,-0.23 -0.2,-0.32 -0.23,-0.46 -0.02,-0.14 0.08,-0.22 0.07,-0.33 -0.02,-0.11 -0.18,-0.27 -0.15,-0.35 0.02,-0.07 0.11,-0.16 0.23,-0.17 z m 3.96,3 c 0.03,0.001 0.05,0.01 0.07,0.05 0.07,0.2 -0.17,1.14 -0.26,1.52 -0.09,0.36 -0.14,0.56 -0.3,0.69 -0.15,0.11 -0.44,0.09 -0.62,0.05 -0.18,-0.04 -0.42,-0.11 -0.49,-0.26 -0.07,-0.15 -0.01,-0.43 0.01,-0.62 0.02,-0.18 0.14,-0.4 0.12,-0.47 -0.04,-0.08 -0.21,-0.06 -0.29,0.05 -0.07,0.11 -0.11,0.46 -0.14,0.67 -0.03,0.18 0.12,0.36 -0.05,0.53 -0.18,0.16 -0.68,0.4 -1.04,0.47 -0.37,0.06 -0.83,0.05 -1.16,-0.1 -0.34,-0.16 -0.72,-0.54 -0.82,-0.86 -0.1,-0.34 0.09,-0.84 0.22,-1.09 0.12,-0.24 0.29,-0.29 0.55,-0.35 0.27,-0.06 0.73,-0.07 1.02,-0.05 0.26,0 0.37,0.11 0.6,0.12 0.22,0 0.42,-0.05 0.75,-0.05 0.32,0 0.85,0.07 1.18,0.03 0.25,-0.03 0.51,-0.32 0.65,-0.32 z"
 id="path5199"
 style="fill:#30251c;fill-opacity:1" />
</svg>
