<?xml version="1.0" encoding="UTF-8" standalone="no"?>
<!-- Created with Inkscape (http://www.inkscape.org/) -->

<svg
 xmlns:dc="http://purl.org/dc/elements/1.1/"
 xmlns:cc="http://creativecommons.org/ns#"
 xmlns:rdf="http://www.w3.org/1999/02/22-rdf-syntax-ns#"
 xmlns:svg="http://www.w3.org/2000/svg"
 xmlns="http://www.w3.org/2000/svg"
 version="1.0"
 width="100%"
 height="100%"
 viewBox="0 0 48 48"
 id="ontology">
<metadata
 id="metadata8">
<rdf:RDF>
<cc:Work
 rdf:about="">
<dc:format>image/svg+xml</dc:format>
<dc:type
 rdf:resource="http://purl.org/dc/dcmitype/StillImage" />
<dc:title></dc:title>
</cc:Work>
</rdf:RDF>
</metadata>
<defs
 id="defs2385" />
<rect
 width="47"
 height="47"
 ry="9.1800003"
 x="0.5"
 y="0.5"
 id="r2393"
 style="fill:#ecc669;fill-opacity:1;fill-rule:nonzero;stroke:#cc9954;stroke-width:1;stroke-linecap:butt;stroke-linejoin:round;stroke-miterlimit:4;stroke-opacity:1;stroke-dasharray:none;stroke-dashoffset:0;marker:none;visibility:visible;display:inline;overflow:visible;enable-background:accumulate" />
<path
 d="m 21.625,3.8125 c -1.05,-0.04 -2.12875,0.18375 -2.96875,0.84375 -1.06,0.8 -1.4625,2.1675 -1.5625,3.4375 -0.1,1.44 -0.0625,2.99125 0.6875,4.28125 0.49,0.9 1.39625,1.5275 2.40625,1.6875 1.13,0.18 2.35625,0.2075 3.40625,-0.3125 1.27,-0.66 1.8875,-2.1825 1.6875,-3.5625 -0.15,-1.5 -1.43875,-2.845 -2.96875,-2.875 -0.91,-0.08 -1.79625,0.34 -2.40625,1 0.05,-0.53 0.09875,-1.0525 0.21875,-1.5625 0.1,-0.64 0.6125,-1.30875 1.3125,-1.21875 0.55,0.02 0.83625,0.5825 0.90625,1.0625 C 23.26375,6.47375 24.205,6.36 25.125,6.25 25.085,6.11 25.01875,5.97375 24.96875,5.84375 c -0.35,-1 -1.23125,-1.72625 -2.28125,-1.90625 -0.34,-0.06 -0.7125,-0.115 -1.0625,-0.125 z M 8.5625,5.0625 C 8.3425,5.1425 8.325,5.56875 8.125,5.71875 7.425,6.77875 6.2325,7.38 5.0625,7.75 l 0,2.28125 c 1.05,-0.31 2.04625,-0.78875 2.90625,-1.46875 l 0,6.6875 2.84375,0 0,-10.1875 -2.15625,0 c -0.04,-0.01 -0.06375,-0.01 -0.09375,0 z m 31.375,1.84375 c -0.58,0.01 -1.15875,0.09 -1.71875,0.25 -1.09,0.31 -1.90625,1.25375 -2.15625,2.34375 0.87,0.15 1.78625,0.31875 2.65625,0.46875 0.03,-0.19 0.055,-0.3825 0.125,-0.5625 0.15,-0.56 0.7625,-0.86 1.3125,-0.75 0.65,0.06 0.94875,0.815 0.71875,1.375 -0.23,0.61 -0.9525,0.9 -1.5625,0.75 -0.01481,0.19555 -0.0152,0.396705 -0.03125,0.59375 1.847315,1.106185 3.24765,2.845186 3.90625,4.9375 0.673575,-0.651946 1.062618,-1.616274 1,-2.5625 -0.01,-0.98 -0.71625,-1.86375 -1.65625,-2.09375 -0.29,-0.04 -0.27,-0.09875 0,-0.21875 0.74,-0.43 1.26625,-1.28625 1.15625,-2.15625 -0.05,-1.09 -0.99125,-1.9775 -2.03125,-2.1875 -0.56,-0.13 -1.13875,-0.1875 -1.71875,-0.1875 z m -18.5,2.125 c 0.19,0.01 0.3925,0.0875 0.5625,0.1875 0.72,0.46 0.785,1.45875 0.625,2.21875 -0.12,0.67 -0.83,1.14875 -1.5,0.96875 -0.77,-0.15 -1.175,-0.9575 -1.125,-1.6875 0,-0.26 0.035,-0.53125 0.125,-0.78125 0.18,-0.56 0.7425,-0.94625 1.3125,-0.90625 z m 4.5,8.53125 c -0.375356,0.447346 -0.748874,0.896404 -1.125,1.34375 l 0,2.28125 1.3125,0 C 25.944823,20.482247 25.84375,19.761389 25.84375,19 c 0,-0.485907 0.01869,-0.972778 0.09375,-1.4375 z M 7.59375,18.65625 c -0.9,0 -1.8025,0.10375 -2.5625,0.59375 -0.89,0.55 -1.245,1.60375 -1.375,2.59375 0.85,0.07 1.7125,0.14875 2.5625,0.21875 0.46,0.13 0.22875,-0.60375 0.46875,-0.84375 0.36,-0.83 1.665,-0.895 2.125,-0.125 0.37,0.57 0.03375,1.28875 -0.40625,1.71875 -0.93,0.92 -2.09125,1.58 -3.03125,2.5 -1.02,0.9 -1.75625,2.16125 -1.90625,3.53125 l 8.34375,0 0,-2.28125 -4.125,0 c -0.46,0.06 0.18125,-0.31875 0.28125,-0.46875 1.05,-0.86 2.305,-1.505 3.125,-2.625 0.76,-1 0.915,-2.49125 0.125,-3.53125 -0.61,-0.88 -1.73,-1.19 -2.75,-1.25 -0.29,-0.01 -0.575,-0.03125 -0.875,-0.03125 z M 41.3125,24.9375 c -1.273369,1.415194 -2.99121,2.412305 -4.9375,2.78125 -0.07001,0.425647 -0.0783,0.85842 0,1.28125 0.22,1.46 1.5625,2.7075 3.0625,2.6875 0.88,0.06 1.75375,-0.35 2.34375,-1 -0.05,0.53 -0.09875,1.07375 -0.21875,1.59375 -0.1,0.63 -0.64375,1.2775 -1.34375,1.1875 -0.55,-0.02 -0.84625,-0.54125 -0.90625,-1.03125 -0.93,0.12 -1.86125,0.22375 -2.78125,0.34375 l 0.03125,0.09375 0.03125,0.09375 c 0.33,1.05 1.25375,1.89375 2.34375,2.09375 1.34,0.23 2.83875,0.215 3.96875,-0.625 1.1,-0.77 1.505,-2.1675 1.625,-3.4375 0.11,-1.49 0.07125,-3.08625 -0.71875,-4.40625 -0.51,-0.9 -1.4275,-1.50625 -2.4375,-1.65625 -0.02013,-0.0031 -0.0423,0.003 -0.0625,0 z M 20,25.8125 l 0,2.375 4.9375,0 c -0.51,0.64 -1.0175,1.3 -1.4375,2 -1.08,1.7 -1.5525,3.67625 -1.8125,5.65625 l 2.6875,0 c 0.19,-0.13 0.06625,-0.59375 0.15625,-0.84375 0.31,-2.74 1.50375,-5.43125 3.59375,-7.28125 l 0,-1.90625 -8.125,0 z m 20.21875,0.75 c 0.08,0 0.17,0.01125 0.25,0.03125 0.8,0.12 1.2375,0.96875 1.1875,1.71875 0,0.29 -0.015,0.57375 -0.125,0.84375 -0.28,0.74 -1.26625,1.04375 -1.90625,0.59375 -0.68,-0.48 -0.74375,-1.41625 -0.59375,-2.15625 0.09,-0.57 0.6275,-1.02125 1.1875,-1.03125 z M 11.1875,32.84375 c -0.29,1.79 -0.61625,3.585 -0.90625,5.375 0.64,0.1 1.2975,0.18125 1.9375,0.28125 0.18,-0.01 0.41125,0.14875 0.53125,-0.03125 0.5,-0.62 1.5275,-0.85375 2.1875,-0.34375 0.6,0.49 0.57875,1.34125 0.46875,2.03125 -0.09,0.67 -0.71625,1.25625 -1.40625,1.15625 -0.71,-0.04 -1.2,-0.715 -1.25,-1.375 -0.84,0.09 -1.67,0.19125 -2.5,0.28125 -0.36,-0.04 -0.3475,0.1575 -0.1875,0.4375 0.38,1.13 1.3925,1.99875 2.5625,2.21875 1.11,0.2 2.295,0.22375 3.375,-0.15625 1.1,-0.38 1.89625,-1.38 2.15625,-2.5 0.3,-1.16 0.0125,-2.5225 -0.9375,-3.3125 -1.12,-0.98 -2.85625,-0.99375 -4.15625,-0.34375 0.08,-0.5 0.17,-1 0.25,-1.5 l 4.46875,0 0,-2.21875 -6.59375,0 z m 20.21875,1.0625 c -0.7125,0.0525 -1.4,0.24375 -2,0.65625 -0.75,0.49 -1.255,1.38125 -1.125,2.28125 0.06,0.82 0.655,1.50375 1.375,1.84375 -0.26,0.11 -0.52,0.23625 -0.75,0.40625 -0.9,0.64 -1.0825,1.88625 -0.8125,2.90625 0.25,1.05 1.1375,1.87375 2.1875,2.09375 1.24,0.25 2.55125,0.24625 3.78125,-0.09375 1.06,-0.28 1.8725,-1.22125 2.0625,-2.28125 0.24,-1.11 -0.32375,-2.37625 -1.34375,-2.90625 -0.43,-0.12 0.0075,-0.2575 0.1875,-0.4375 0.83,-0.64 1.10625,-1.84125 0.65625,-2.78125 -0.45,-0.99 -1.5325,-1.505 -2.5625,-1.625 -0.31,-0.03 -0.6175,-0.0525 -0.9375,-0.0625 -0.24,-0.0075 -0.48125,-0.0175 -0.71875,0 z m 0.5625,1.65625 c 0.07557,-0.0023 0.175,0.01625 0.25,0.03125 0.64,0.06 1.0475,0.73375 0.9375,1.34375 -0.04,0.62 -0.65,1.0575 -1.25,0.9375 -0.58,-0.03 -1.04,-0.57625 -1,-1.15625 0,-0.06 -0.01,-0.09625 0,-0.15625 0.04375,-0.55125 0.533535,-0.98373 1.0625,-1 z m 0,3.96875 c 0.67,-0.05 1.285,0.5275 1.375,1.1875 0.16,0.76 -0.29375,1.6625 -1.09375,1.8125 -0.84,0.14 -1.56,-0.7 -1.5,-1.5 -0.03,-0.62 0.29625,-1.2375 0.90625,-1.4375 0.1,-0.03 0.2225,-0.0625 0.3125,-0.0625 z"
 id="text2386"
 style="font-size:14px;font-style:normal;font-variant:normal;font-weight:normal;font-stretch:normal;fill:#cc9954;fill-opacity:1;stroke:none;font-family:Arial Black;-inkscape-font-specification:Arial Black" />
<g
 transform="matrix(0.98523857,-0.1711869,0.1711869,0.98523857,-51.610195,18.291495)"
 id="g3058">
<rect
 width="42.398785"
 height="5.1699905"
 x="55.219223"
 y="-8.3406801"
 transform="matrix(0.9016165,0.43253634,-0.43253634,0.9016165,0,0)"
 id="rect3952"
 style="fill:#cc9954;fill-opacity:1" />
<rect
 width="42.398785"
 height="2.067996"
 x="55.219223"
 y="-8.3406801"
 transform="matrix(0.9016165,0.43253634,-0.43253634,0.9016165,0,0)"
 id="rect3907"
 style="fill:#ecc669;fill-opacity:0.70270272" />
<path
 d="m 54.58882,16.937319 -0.894483,1.86454"
 id="path3909" />
<path
 d="m 67.729511,23.241359 -0.447242,0.932269"
 id="path6949"
 style="color:#000000;fill:none;stroke:#30251c;stroke-width:0.5;stroke-linecap:butt;stroke-linejoin:miter;stroke-miterlimit:4;stroke-opacity:1;stroke-dasharray:none;stroke-dashoffset:0;marker:none;visibility:visible;display:inline;overflow:visible;enable-background:accumulate" />
<path
 d="m 68.924118,23.814453 -0.447241,0.93227"
 id="path6951"
 style="color:#000000;fill:none;stroke:#30251c;stroke-width:0.5;stroke-linecap:butt;stroke-linejoin:miter;stroke-miterlimit:4;stroke-opacity:1;stroke-dasharray:none;stroke-dashoffset:0;marker:none;visibility:visible;display:inline;overflow:visible;enable-background:accumulate" />
<path
 d="m 70.118726,24.387547 -0.447242,0.93227"
 id="path6953"
 style="color:#000000;fill:none;stroke:#30251c;stroke-width:0.5;stroke-linecap:butt;stroke-linejoin:miter;stroke-miterlimit:4;stroke-opacity:1;stroke-dasharray:none;stroke-dashoffset:0;marker:none;visibility:visible;display:inline;overflow:visible;enable-background:accumulate" />
<path
 d="m 71.313334,24.960641 -0.447242,0.93227"
 id="path6955"
 style="color:#000000;fill:none;stroke:#30251c;stroke-width:0.5;stroke-linecap:butt;stroke-linejoin:miter;stroke-miterlimit:4;stroke-opacity:1;stroke-dasharray:none;stroke-dashoffset:0;marker:none;visibility:visible;display:inline;overflow:visible;enable-background:accumulate" />
<path
 d="M 72.507941,25.533736 72.0607,26.466005"
 id="path6957"
 style="color:#000000;fill:none;stroke:#30251c;stroke-width:0.5;stroke-linecap:butt;stroke-linejoin:miter;stroke-miterlimit:4;stroke-opacity:1;stroke-dasharray:none;stroke-dashoffset:0;marker:none;visibility:visible;display:inline;overflow:visible;enable-background:accumulate" />
<path
 d="M 73.702549,26.10683 73.255307,27.0391"
 id="path6959"
 style="color:#000000;fill:none;stroke:#30251c;stroke-width:0.5;stroke-linecap:butt;stroke-linejoin:miter;stroke-miterlimit:4;stroke-opacity:1;stroke-dasharray:none;stroke-dashoffset:0;marker:none;visibility:visible;display:inline;overflow:visible;enable-background:accumulate" />
<path
 d="m 74.897157,26.679924 -0.447242,0.93227"
 id="path6961"
 style="color:#000000;fill:none;stroke:#30251c;stroke-width:0.5;stroke-linecap:butt;stroke-linejoin:miter;stroke-miterlimit:4;stroke-opacity:1;stroke-dasharray:none;stroke-dashoffset:0;marker:none;visibility:visible;display:inline;overflow:visible;enable-background:accumulate" />
<path
 d="m 76.091765,27.253019 -0.447242,0.932269"
 id="path6963"
 style="color:#000000;fill:none;stroke:#30251c;stroke-width:0.5;stroke-linecap:butt;stroke-linejoin:miter;stroke-miterlimit:4;stroke-opacity:1;stroke-dasharray:none;stroke-dashoffset:0;marker:none;visibility:visible;display:inline;overflow:visible;enable-background:accumulate" />
<path
 d="m 77.286372,27.826113 -0.447242,0.93227"
 id="path6965"
 style="color:#000000;fill:none;stroke:#30251c;stroke-width:0.5;stroke-linecap:butt;stroke-linejoin:miter;stroke-miterlimit:4;stroke-opacity:1;stroke-dasharray:none;stroke-dashoffset:0;marker:none;visibility:visible;display:inline;overflow:visible;enable-background:accumulate" />
<path
 d="m 78.48098,28.399207 -0.894484,1.86454"
 id="path6967"
 style="color:#000000;fill:none;stroke:#30251c;stroke-width:0.5;stroke-linecap:butt;stroke-linejoin:miter;stroke-miterlimit:4;stroke-opacity:1;stroke-dasharray:none;stroke-dashoffset:0;marker:none;visibility:visible;display:inline;overflow:visible;enable-background:accumulate" />
<path
 d="m 79.675584,28.9723 -0.447242,0.932269"
 id="path6971"
 style="color:#000000;fill:none;stroke:#30251c;stroke-width:0.5;stroke-linecap:butt;stroke-linejoin:miter;stroke-miterlimit:4;stroke-opacity:1;stroke-dasharray:none;stroke-dashoffset:0;marker:none;visibility:visible;display:inline;overflow:visible;enable-background:accumulate" />
<path
 d="m 80.870191,29.545394 -0.447241,0.93227"
 id="path6973"
 style="color:#000000;fill:none;stroke:#30251c;stroke-width:0.5;stroke-linecap:butt;stroke-linejoin:miter;stroke-miterlimit:4;stroke-opacity:1;stroke-dasharray:none;stroke-dashoffset:0;marker:none;visibility:visible;display:inline;overflow:visible;enable-background:accumulate" />
<path
 d="m 82.064799,30.118488 -0.447242,0.93227"
 id="path6975"
 style="color:#000000;fill:none;stroke:#30251c;stroke-width:0.5;stroke-linecap:butt;stroke-linejoin:miter;stroke-miterlimit:4;stroke-opacity:1;stroke-dasharray:none;stroke-dashoffset:0;marker:none;visibility:visible;display:inline;overflow:visible;enable-background:accumulate" />
<path
 d="m 83.259407,30.691582 -0.447242,0.93227"
 id="path6977"
 style="color:#000000;fill:none;stroke:#30251c;stroke-width:0.5;stroke-linecap:butt;stroke-linejoin:miter;stroke-miterlimit:4;stroke-opacity:1;stroke-dasharray:none;stroke-dashoffset:0;marker:none;visibility:visible;display:inline;overflow:visible;enable-background:accumulate" />
<path
 d="m 84.454015,31.264677 -0.447242,0.932269"
 id="path6979"
 style="color:#000000;fill:none;stroke:#30251c;stroke-width:0.5;stroke-linecap:butt;stroke-linejoin:miter;stroke-miterlimit:4;stroke-opacity:1;stroke-dasharray:none;stroke-dashoffset:0;marker:none;visibility:visible;display:inline;overflow:visible;enable-background:accumulate" />
<path
 d="m 85.648622,31.837771 -0.447242,0.93227"
 id="path6981"
 style="color:#000000;fill:none;stroke:#30251c;stroke-width:0.5;stroke-linecap:butt;stroke-linejoin:miter;stroke-miterlimit:4;stroke-opacity:1;stroke-dasharray:none;stroke-dashoffset:0;marker:none;visibility:visible;display:inline;overflow:visible;enable-background:accumulate" />
<path
 d="m 86.84323,32.410865 -0.447242,0.93227"
 id="path6983"
 style="color:#000000;fill:none;stroke:#30251c;stroke-width:0.5;stroke-linecap:butt;stroke-linejoin:miter;stroke-miterlimit:4;stroke-opacity:1;stroke-dasharray:none;stroke-dashoffset:0;marker:none;visibility:visible;display:inline;overflow:visible;enable-background:accumulate" />
<path
 d="m 88.037838,32.98396 -0.447242,0.932269"
 id="path6985"
 style="color:#000000;fill:none;stroke:#30251c;stroke-width:0.5;stroke-linecap:butt;stroke-linejoin:miter;stroke-miterlimit:4;stroke-opacity:1;stroke-dasharray:none;stroke-dashoffset:0;marker:none;visibility:visible;display:inline;overflow:visible;enable-background:accumulate" />
<path
 d="m 89.232445,33.557054 -0.447241,0.93227"
 id="path6987"
 style="color:#000000;fill:none;stroke:#30251c;stroke-width:0.5;stroke-linecap:butt;stroke-linejoin:miter;stroke-miterlimit:4;stroke-opacity:1;stroke-dasharray:none;stroke-dashoffset:0;marker:none;visibility:visible;display:inline;overflow:visible;enable-background:accumulate" />
<path
 d="m 90.427053,34.130148 -0.894484,1.86454"
 id="path6989"
 style="color:#000000;fill:none;stroke:#30251c;stroke-width:0.5;stroke-linecap:butt;stroke-linejoin:miter;stroke-miterlimit:4;stroke-opacity:1;stroke-dasharray:none;stroke-dashoffset:0;marker:none;visibility:visible;display:inline;overflow:visible;enable-background:accumulate" />
<rect
 width="42.398785"
 height="5.1699905"
 x="55.219223"
 y="-8.340682"
 transform="matrix(0.9016165,0.43253634,-0.43253634,0.9016165,0,0)"
 id="rect3905"
 style="fill:none;stroke:#30251c;stroke-width:0.5;stroke-miterlimit:4;stroke-opacity:1;stroke-dasharray:none" />
<path
 d="m 55.783431,17.510415 -0.447242,0.932269"
 id="path3912"
 style="color:#000000;fill:none;stroke:#30251c;stroke-width:0.5;stroke-linecap:butt;stroke-linejoin:miter;stroke-miterlimit:4;stroke-opacity:1;stroke-dasharray:none;stroke-dashoffset:0;marker:none;visibility:visible;display:inline;overflow:visible;enable-background:accumulate" />
<path
 d="m 56.978038,18.083509 -0.447242,0.93227"
 id="path3914"
 style="color:#000000;fill:none;stroke:#30251c;stroke-width:0.5;stroke-linecap:butt;stroke-linejoin:miter;stroke-miterlimit:4;stroke-opacity:1;stroke-dasharray:none;stroke-dashoffset:0;marker:none;visibility:visible;display:inline;overflow:visible;enable-background:accumulate" />
<path
 d="m 58.172646,18.656603 -0.447242,0.93227"
 id="path3916"
 style="color:#000000;fill:none;stroke:#30251c;stroke-width:0.5;stroke-linecap:butt;stroke-linejoin:miter;stroke-miterlimit:4;stroke-opacity:1;stroke-dasharray:none;stroke-dashoffset:0;marker:none;visibility:visible;display:inline;overflow:visible;enable-background:accumulate" />
<path
 d="m 59.367254,19.229697 -0.447242,0.93227"
 id="path3918"
 style="color:#000000;fill:none;stroke:#30251c;stroke-width:0.5;stroke-linecap:butt;stroke-linejoin:miter;stroke-miterlimit:4;stroke-opacity:1;stroke-dasharray:none;stroke-dashoffset:0;marker:none;visibility:visible;display:inline;overflow:visible;enable-background:accumulate" />
<path
 d="M 60.561862,19.802792 60.11462,20.735061"
 id="path3920"
 style="color:#000000;fill:none;stroke:#30251c;stroke-width:0.5;stroke-linecap:butt;stroke-linejoin:miter;stroke-miterlimit:4;stroke-opacity:1;stroke-dasharray:none;stroke-dashoffset:0;marker:none;visibility:visible;display:inline;overflow:visible;enable-background:accumulate" />
<path
 d="m 61.756469,20.375886 -0.447242,0.93227"
 id="path3922"
 style="color:#000000;fill:none;stroke:#30251c;stroke-width:0.5;stroke-linecap:butt;stroke-linejoin:miter;stroke-miterlimit:4;stroke-opacity:1;stroke-dasharray:none;stroke-dashoffset:0;marker:none;visibility:visible;display:inline;overflow:visible;enable-background:accumulate" />
<path
 d="m 62.951077,20.94898 -0.447242,0.93227"
 id="path3924"
 style="color:#000000;fill:none;stroke:#30251c;stroke-width:0.5;stroke-linecap:butt;stroke-linejoin:miter;stroke-miterlimit:4;stroke-opacity:1;stroke-dasharray:none;stroke-dashoffset:0;marker:none;visibility:visible;display:inline;overflow:visible;enable-background:accumulate" />
<path
 d="m 64.145685,21.522075 -0.447242,0.932269"
 id="path3926"
 style="color:#000000;fill:none;stroke:#30251c;stroke-width:0.5;stroke-linecap:butt;stroke-linejoin:miter;stroke-miterlimit:4;stroke-opacity:1;stroke-dasharray:none;stroke-dashoffset:0;marker:none;visibility:visible;display:inline;overflow:visible;enable-background:accumulate" />
<path
 d="m 65.340292,22.095169 -0.447242,0.93227"
 id="path3928"
 style="color:#000000;fill:none;stroke:#30251c;stroke-width:0.5;stroke-linecap:butt;stroke-linejoin:miter;stroke-miterlimit:4;stroke-opacity:1;stroke-dasharray:none;stroke-dashoffset:0;marker:none;visibility:visible;display:inline;overflow:visible;enable-background:accumulate" />
<path
 d="m 66.5349,22.668263 -0.894484,1.86454"
 id="path3930"
 style="color:#000000;fill:none;stroke:#30251c;stroke-width:0.5;stroke-linecap:butt;stroke-linejoin:miter;stroke-miterlimit:4;stroke-opacity:1;stroke-dasharray:none;stroke-dashoffset:0;marker:none;visibility:visible;display:inline;overflow:visible;enable-background:accumulate" />
</g>
<path
 d="m 31.764099,27.944261 c -3.153749,-1.111614 -5.104143,-3.349876 -6.083184,-6.978188 -0.131549,-0.481505 -0.224454,-1.445401 -0.212084,-2.143596 0.05365,-2.210482 1.163671,-4.761651 2.772179,-6.348586 1.755383,-1.736997 4.947503,-2.9169663 7.065517,-2.6155293 1.115511,0.1640643 1.326984,0.1529983 1.38473,-0.04985 0.03032,-0.106495 -0.114713,-0.290318 -0.328475,-0.4059938 C 36.150456,9.2817696 35.800291,8.9134601 35.581971,8.5826827 35.227291,8.037657 35.203973,7.888483 35.357483,7.0988963 c 0.155697,-0.7780002 0.237384,-0.9301743 0.7454,-1.3666606 0.683135,-0.5894745 1.161828,-0.6341116 2.499172,-0.2479135 1.834314,0.5277035 2.458777,1.4345743 2.025678,2.9559268 -0.281515,0.9888797 -0.688212,1.3390837 -1.719443,1.4566747 -0.855256,0.09642 -1.115848,0.2415213 -0.783227,0.4403733 0.08914,0.05278 0.580447,0.329707 1.094226,0.623987 3.06961,1.734556 4.758403,4.583615 4.833516,8.151955 0.02731,1.290599 -0.564445,3.523323 -1.269386,4.786378 -1.321673,2.370307 -4.62296,4.511468 -7.126612,4.621052 -1.016086,0.04515 -2.896535,-0.243478 -3.883301,-0.590176 z m 2.217929,-0.492442 c 2.4164,0.293186 4.97928,-0.736985 6.834351,-2.747123 1.046192,-1.133012 1.423537,-1.880807 1.873741,-3.693327 0.360043,-1.437989 0.39157,-1.779872 0.256875,-2.519933 -0.08591,-0.468512 -0.146425,-0.891419 -0.131988,-0.942131 0.01299,-0.04564 -0.149024,-0.574193 -0.361084,-1.177297 -0.976013,-2.733858 -3.168716,-4.640902 -6.119251,-5.310915 -4.041508,-0.920287 -8.34978,1.696227 -9.506856,5.779968 -1.040823,3.656334 0.567131,7.617186 3.893371,9.60571 0.872497,0.517009 1.950513,0.85131 3.259397,1.010119 z m -2.976627,-1.444942 c -1.227596,-0.733224 -1.757475,-1.202035 -2.395694,-2.118333 -0.747013,-1.073358 -1.222475,-2.195501 -1.442338,-3.387417 -0.184184,-0.989882 -0.09063,-3.128702 0.141798,-3.194106 0.06589,-0.01962 0.06041,0.307751 -0.0094,0.726438 -0.400531,2.254269 0.545203,5.133009 2.186367,6.647307 1.849936,1.705305 4.457961,2.442276 6.961987,1.965492 1.037671,-0.19799 2.840801,-1.236125 3.738003,-2.153891 0.378416,-0.385667 0.664292,-0.60032 0.626757,-0.468469 -0.100097,0.371701 -2.033305,1.94295 -2.85932,2.321802 -1.167711,0.53924 -2.844864,0.768985 -4.175512,0.571087 -1.468275,-0.21515 -1.727649,-0.305434 -2.769713,-0.920054 z m 1.441297,-0.72998 c 0.207888,-0.730249 0.366982,-0.980995 0.521413,-0.810942 0.113822,0.120115 -0.46919,1.648132 -0.606116,1.609152 -0.07099,-0.02021 -0.03005,-0.37586 0.08977,-0.796768 z m 0.499596,0.61369 c 0.09471,-0.15943 0.285583,-0.521737 0.420027,-0.801428 0.12936,-0.28114 0.293578,-0.492051 0.354432,-0.474728 0.131852,0.03754 0.3519,1.42138 0.268168,1.715508 -0.101057,0.354982 -0.309863,0.125593 -0.355981,-0.386413 l -0.04105,-0.510562 -0.273366,0.421055 c -0.303017,0.467435 -0.656407,0.51485 -0.375121,0.04671 z m -2.291947,-1.173277 0.22839,-0.494161 -0.442306,0.224942 c -0.727511,0.379483 -0.620644,0.0426 0.160349,-0.486121 1.067585,-0.726726 1.127034,-0.665944 0.492307,0.562276 -0.428683,0.831858 -0.821795,0.999536 -0.44234,0.186558 z m 5.287726,0.682988 c 0.01111,-0.501195 0.08026,-0.898154 0.151253,-0.877944 0.167351,0.04764 1.102953,1.421385 1.061087,1.568449 -0.06063,0.212989 -0.365015,0.01121 -0.630486,-0.404256 -0.161763,-0.259853 -0.256707,-0.33074 -0.243529,-0.184453 0.04423,0.807504 0.02116,0.927028 -0.161399,0.875056 -0.111566,-0.03176 -0.180749,-0.424242 -0.168229,-0.968894 z m -6.472339,-1.16276 c -0.06167,-0.110748 0.808693,-1.069052 1.206061,-1.328716 0.34888,-0.224128 0.243492,0.146071 -0.164557,0.57812 -0.599073,0.640816 -0.956611,0.895372 -1.040045,0.745529 z m -0.330921,-0.68628 c 0.329117,-0.443558 1.264884,-1.169434 1.270843,-0.99779 0.0096,0.216544 -1.093869,1.261976 -1.28295,1.21363 -0.06596,-0.01863 -0.06166,-0.110755 0.01718,-0.214396 z m 4.789454,0.700123 c -0.01453,-0.06444 0.01478,-0.456296 0.07015,-0.862657 0.05538,-0.406361 0.07889,-0.816313 0.04983,-0.906818 -0.02397,-0.08906 -0.01117,-0.326627 0.04006,-0.525847 0.269094,-1.08013 0.331091,-2.164395 0.146827,-2.479994 -0.111716,-0.185304 -0.143805,-0.419207 -0.07437,-0.509082 0.07233,-0.100017 -0.06844,-0.375823 -0.377998,-0.694201 -0.27984,-0.287986 -0.612089,-0.854036 -0.743569,-1.25877 -0.337059,-1.04985 -0.587393,-1.53776 -0.912095,-1.783697 -0.153653,-0.115005 -0.260295,-0.298868 -0.229978,-0.405363 0.02887,-0.101424 -0.09094,-0.43157 -0.26288,-0.732696 -0.17338,-0.296055 -0.347572,-0.685538 -0.383958,-0.865843 -0.03638,-0.180305 0.105721,-0.02473 0.332767,0.352393 0.216916,0.374235 0.557718,0.794701 0.752678,0.937918 0.189889,0.141769 0.322626,0.349506 0.290865,0.461072 -0.06352,0.223132 0.381147,0.952757 1.176578,1.91381 0.285683,0.344472 0.551972,0.853369 0.589174,1.127105 0.04305,0.330219 0.168528,0.524923 0.366307,0.581227 0.410764,0.116937 0.730055,0.767013 0.443403,0.926623 -0.201961,0.112453 -0.686104,2.024954 -0.650833,2.5558 0.02128,0.291132 -0.446802,2.339777 -0.533015,2.315234 -0.03041,-0.0087 -0.07321,-0.07018 -0.09139,-0.141143 z m -5.681342,-1.80376 c -0.0218,-0.07747 0.146028,-0.281876 0.380526,-0.450851 l 0.42195,-0.307489 -0.444711,-0.01696 c -0.244085,-0.0092 -0.478025,-0.01548 -0.522923,-0.01181 -0.04345,-0.0014 -0.06596,-0.05715 -0.04286,-0.138292 0.03802,-0.153641 1.677826,-0.289858 1.762704,-0.145087 0.04716,0.0847 -1.342285,1.268008 -1.453851,1.236247 -0.02536,-0.0072 -0.06526,-0.07888 -0.09213,-0.1578 z m 10.040009,1.898815 c -0.146026,-0.469179 -0.226085,-0.881204 -0.175413,-0.905153 0.04563,-0.02539 0.441266,0.202373 0.872503,0.51701 0.486309,0.352246 0.717585,0.598998 0.611904,0.662109 -0.104234,0.05804 -0.263631,0.0017 -0.415131,-0.140108 -0.425535,-0.411697 -0.574672,-0.349991 -0.390224,0.157536 0.156126,0.43368 0.09986,0.669842 -0.140659,0.590406 -0.04563,-0.01299 -0.201737,-0.408289 -0.346314,-0.882537 z M 27.713979,21.04597 c -0.02541,-0.08399 0.404619,-0.246635 0.95568,-0.352903 0.551059,-0.106268 0.957343,-0.12766 0.902375,-0.05011 -0.150432,0.220318 -1.810084,0.581136 -1.858055,0.403015 z m 11.498547,2.533318 c -0.529953,-0.545583 -0.676536,-0.839491 -0.367192,-0.751427 0.197773,0.0563 1.213519,1.167789 1.177427,1.294568 -0.05053,0.177491 -0.210691,0.06611 -0.806611,-0.536627 z m -11.71712,-3.132793 c 0.03898,-0.136922 1.960148,-0.434256 1.994313,-0.303922 0.0182,0.07096 -0.359764,0.204583 -0.846375,0.296305 -0.854479,0.151463 -1.184737,0.156124 -1.14287,0.0091 z m -0.0092,-0.506971 c 0.03609,-0.126779 1.524207,-0.366483 1.798052,-0.288525 0.35498,0.101056 -0.04321,0.26729 -0.761606,0.325919 -0.449006,0.03664 -0.876283,0.07399 -0.944355,0.08202 -0.06807,0.008 -0.103608,-0.04045 -0.08195,-0.116531 z m 13.939593,2.855449 c 0.14524,-0.336922 0.336151,-0.660842 0.4288,-0.716699 0.180235,-0.113156 -0.183831,0.66583 -0.500868,1.085416 -0.113572,0.14858 -0.08835,0.0023 0.07064,-0.36364 z M 27.598733,17.926707 c 0.02165,-0.07607 0.415694,-0.03516 0.887312,0.0991 0.461476,0.131373 0.865064,0.31205 0.892672,0.407627 0.02618,0.100655 -0.299049,0.06837 -0.887304,-0.0991 -0.527404,-0.150142 -0.915779,-0.326488 -0.89268,-0.407629 z m 12.049824,3.408419 c -0.01454,-0.06444 0.03898,-0.136922 0.122961,-0.162354 0.220837,-0.06322 1.702544,0.566913 1.662121,0.708907 -0.03898,0.136922 -1.73423,-0.378576 -1.786529,-0.541487 z M 27.693059,17.34504 c -0.02541,-0.08399 0.114974,-0.192038 0.313377,-0.234235 0.327295,-0.07129 0.346103,-0.09883 0.167724,-0.319558 -0.337914,-0.430608 -0.12589,-0.616946 0.248934,-0.219687 0.320446,0.337921 0.371153,0.352357 0.774438,0.225977 0.487278,-0.151835 0.740802,-0.118038 0.680168,0.09495 -0.02165,0.07607 -0.233053,0.163905 -0.47421,0.182966 l -0.432349,0.0359 0.345062,0.328484 c 0.228349,0.218507 0.286424,0.36113 0.162642,0.430052 -0.11727,0.0653 -0.275954,-0.01278 -0.476063,-0.234207 -0.26899,-0.306827 -0.334916,-0.325594 -0.788216,-0.235348 -0.284578,0.05604 -0.507675,0.0309 -0.536728,-0.05959 z m 12.238043,3.324945 c 0.02166,-0.07607 0.441047,-0.02794 0.963378,0.120755 0.522331,0.148698 0.905632,0.3236 0.882533,0.40474 -0.02165,0.07607 -0.441047,0.02794 -0.963379,-0.120754 -0.52233,-0.148697 -0.905631,-0.323599 -0.882532,-0.404741 z m 2.241168,0.331017 c 0.0447,-0.195597 0.117456,-0.624422 0.166394,-0.950385 0.08063,-0.514298 0.09797,-0.536771 0.138145,-0.196405 0.02628,0.215802 -0.04646,0.644633 -0.166394,0.950384 -0.114869,0.307193 -0.177789,0.393442 -0.138145,0.196406 z M 27.35052,16.622559 c 0.02165,-0.07607 0.101275,-0.124669 0.182415,-0.10157 0.07607,0.02165 0.12467,0.101275 0.101571,0.182415 -0.02165,0.07607 -0.101275,0.12467 -0.182416,0.101571 -0.07607,-0.02166 -0.124669,-0.101275 -0.10157,-0.182416 z m 12.784138,3.332391 c 0.02165,-0.07607 0.415688,-0.03516 0.887311,0.0991 0.461473,0.131373 0.86506,0.31205 0.892674,0.407628 0.02618,0.100655 -0.299055,0.06837 -0.887311,-0.0991 -0.527404,-0.150142 -0.915773,-0.326487 -0.892674,-0.407628 z M 27.71417,15.942134 c 0.05246,-0.204353 0.342586,-0.741242 0.647788,-1.19709 2.956573,-4.377338 9.32406,-4.560145 12.503219,-0.360324 0.577963,0.762089 1.267409,2.230222 1.383964,2.937708 0.05175,0.338179 0.03072,0.315747 -0.131921,-0.114308 -0.111083,-0.283803 -0.51018,-1.077206 -0.886,-1.759821 -0.832882,-1.503484 -1.98259,-2.58732 -3.505646,-3.284048 -3.399718,-1.576352 -7.723527,-0.06069 -9.662713,3.361823 -0.24727,0.44493 -0.402813,0.625418 -0.348691,0.416057 z m 14.637754,2.829433 c -0.0063,-0.517113 0.006,-0.541025 0.11781,-0.240569 0.109641,0.288874 0.06385,0.873392 -0.068,0.835856 -0.02536,-0.0072 -0.04878,-0.271548 -0.05126,-0.590219 z M 30.354042,15.142203 c -0.114151,-0.465587 -0.171415,-0.514781 -0.662506,-0.561389 -0.405624,-0.03872 -0.511415,-0.09076 -0.420279,-0.218326 0.05928,-0.09277 0.285952,-0.137881 0.501089,-0.104047 0.339731,0.05834 0.376633,0.02499 0.29742,-0.255224 -0.149683,-0.514077 0.142922,-0.502047 0.356358,0.01922 0.157535,0.390223 0.278575,0.484984 0.638557,0.510714 0.519335,0.04368 0.426198,0.351581 -0.09528,0.334698 -0.244086,-0.0092 -0.304864,0.05026 -0.249641,0.241414 0.0901,0.299757 0.0158,0.618501 -0.131279,0.57663 -0.05578,-0.01588 -0.161756,-0.259853 -0.22938,-0.542248 z m 9.723921,3.086174 c -0.05959,-0.214323 -0.121855,-0.188191 0.930995,-0.420234 1.069502,-0.232786 1.229003,-0.06129 0.245041,0.256151 -1.069392,0.347942 -1.120807,0.355235 -1.174592,0.159012 z m -0.120109,-0.63723 c -0.04579,-0.166537 1.437742,-0.659724 1.743453,-0.578177 0.289058,0.08229 0.192779,0.131633 -0.773081,0.443261 -0.506823,0.162718 -0.939876,0.220348 -0.970372,0.134916 z m -7.433219,-3.969061 c 0.09239,-0.324554 0.03791,-0.499049 -0.247706,-0.76675 -0.198624,-0.188117 -0.309633,-0.395148 -0.242337,-0.458223 0.07526,-0.07177 0.205657,-0.02917 0.357165,0.112637 0.193558,0.186672 0.246416,0.17431 0.314268,-0.06404 0.04475,-0.157207 0.143142,-0.271734 0.224282,-0.248635 0.07607,0.02165 0.09724,0.19763 0.04238,0.390334 -0.0693,0.243417 0.0084,0.451928 0.262844,0.69431 0.346502,0.323411 0.450512,0.786111 0.118557,0.527145 -0.579114,-0.449934 -0.562457,-0.450674 -0.596845,-0.06027 -0.02007,0.224539 -0.1025,0.360054 -0.188715,0.33551 -0.0862,-0.02454 -0.10379,-0.232386 -0.03738,-0.465661 z m 6.077488,1.779476 c -0.0653,-0.117269 1.005695,-1.067791 1.310525,-1.156442 0.380855,-0.105382 0.243487,0.146069 -0.386784,0.723179 -0.651264,0.593065 -0.79026,0.657656 -0.917224,0.429636 z m -4.954972,-2.62214 c -0.08521,-0.49024 -0.09716,-0.871912 -0.02109,-0.850256 0.116634,0.0332 0.491777,1.526985 0.432587,1.734904 -0.08084,0.283985 -0.272436,-0.121413 -0.407868,-0.878133 z m 1.363071,0.777273 c 0.02021,-0.071 0.156166,-0.27899 0.31027,-0.454406 0.22354,-0.265292 0.247305,-0.406545 0.149144,-0.812759 -0.130847,-0.503232 0.04938,-0.616389 0.251896,-0.153058 0.09509,0.224427 0.160278,0.226539 0.466436,0.01766 0.380711,-0.258923 0.406288,-0.02139 0.03438,0.360648 -0.148325,0.155132 -0.199558,0.354351 -0.158749,0.634594 0.0962,0.624941 0.261255,0.54584 0.539326,-0.257627 0.13725,-0.404982 0.29917,-0.704262 0.349177,-0.668098 0.05145,0.0311 0.08772,0.09625 0.07618,0.136812 l -0.242535,0.851958 c -0.207888,0.730248 -0.242637,0.775178 -0.562096,0.684234 -0.187633,-0.05342 -0.349279,-0.198114 -0.360271,-0.332813 -0.02639,-0.33096 -0.264701,-0.360426 -0.466476,-0.05604 -0.172128,0.257999 -0.46759,0.294494 -0.396851,0.04601 z m 1.949148,0.182097 c 0.190564,-0.669395 0.541923,-1.325908 0.688989,-1.284041 0.141992,0.04042 -1.54e-4,0.597512 -0.344941,1.327163 -0.295613,0.634008 -0.533924,0.604541 -0.349135,-0.04457 z M 38.911556,8.7685247 C 39.589877,8.4463069 39.841334,7.8326219 39.556835,7.2143793 39.3558,6.784362 39.193452,6.6613938 38.467497,6.399908 37.663291,6.1051825 37.581445,6.1038105 37.053743,6.3976372 c -0.625423,0.3482419 -0.864623,0.89963 -0.652567,1.5027321 0.133625,0.3779341 0.569859,0.6172467 0.783333,0.4258399 0.05934,-0.054381 0.0092,-0.1673183 -0.127706,-0.2446781 -0.347836,-0.2031835 -0.289125,-0.9101138 0.09803,-1.2494366 0.604257,-0.5242139 2.074264,-0.00705 2.012665,0.7100203 -0.04231,0.4374919 -0.37139,0.9194359 -0.59959,0.8544718 -0.111567,-0.031761 -0.244011,0.067589 -0.288764,0.2247953 -0.105388,0.3701963 0.08006,0.4120256 0.644003,0.1449587 z M 37.816821,7.6071418 c 0.02151,-0.2296099 -0.01336,-0.3382159 -0.07773,-0.2468987 -0.106312,0.1616105 -0.124725,0.6113876 -0.01821,0.6417092 0.03041,0.00866 0.0694,-0.1666368 0.09596,-0.3948083 z m 0.553982,-0.078025 c -0.0081,-0.1064642 -0.07026,-0.00355 -0.131601,0.2311609 -0.06641,0.2332745 -0.0591,0.3230713 0.02191,0.1926324 0.0745,-0.1268103 0.12426,-0.3209659 0.115978,-0.4274848 z m 0.466401,-0.020726 c -0.0081,-0.1064632 -0.07026,-0.00355 -0.131592,0.2311646 -0.06641,0.2332736 -0.0591,0.3230704 0.0219,0.1926287 0.0745,-0.1268093 0.12426,-0.3209659 0.116459,-0.4273479 z m -1.370555,-0.269558 c 0.09038,-0.182593 0.09966,-0.3115214 0.02723,-0.2882839 -0.136845,0.037796 -0.356507,0.5782967 -0.244944,0.6100563 0.02536,0.00722 0.12589,-0.134108 0.221325,-0.3152622 z"
 id="path4941"
 style="fill:#30251c;fill-opacity:1" />
</svg>
