<?xml version="1.0" encoding="UTF-8" standalone="no"?>
<!-- Created with Inkscape (http://www.inkscape.org/) -->
<svg
   xmlns:svg="http://www.w3.org/2000/svg"
   xmlns="http://www.w3.org/2000/svg"
   version="1.0"
   width="100%"
   height="100%"
   viewBox="0 0 48 48"
   id="ontology">
  <defs
     id="defs2385" />
  <rect
     width="47"
     height="47"
     ry="9.1800003"
     x="0.5"
     y="0.5"
     id="r2393"
     style="opacity:1;fill:#ecc669;fill-opacity:1;fill-rule:nonzero;stroke:#cc9954;stroke-width:1;stroke-linecap:butt;stroke-linejoin:round;marker:none;stroke-miterlimit:4;stroke-dasharray:none;stroke-dashoffset:0;stroke-opacity:1;visibility:visible;display:inline;overflow:visible;enable-background:accumulate" />
  <path
     d="M 24,0 L 24,48"
     id="path2382"
     style="opacity:1;fill:none;fill-opacity:1;fill-rule:nonzero;stroke:#cc9954;stroke-width:1;stroke-linecap:butt;stroke-linejoin:round;marker:none;marker-start:none;marker-mid:none;marker-end:none;stroke-miterlimit:4;stroke-dasharray:3, 3;stroke-dashoffset:0;stroke-opacity:1;visibility:visible;display:inline;overflow:visible;enable-background:accumulate" />
  <path
     d="M 29.111034,25.191634 L 36.11411,24.752926 C 36.265754,25.890323 36.574474,26.756906 37.040271,27.352675 C 37.798521,28.316754 38.881749,28.79879 40.289958,28.798786 C 41.340676,28.79879 42.147681,28.555064 42.710974,28.067607 C 43.28507,27.569327 43.572126,26.995216 43.572141,26.345272 C 43.572126,25.727839 43.301319,25.175393 42.75972,24.687932 C 42.218091,24.200488 40.961547,23.740116 38.990083,23.306815 C 35.762053,22.581062 33.460193,21.616989 32.084498,20.414594 C 30.697962,19.212223 30.004696,17.679456 30.004698,15.816287 C 30.004696,14.592256 30.356745,13.438619 31.060847,12.35537 C 31.775774,11.261331 32.842753,10.405581 34.261788,9.7881174 C 35.691643,9.1598685 37.646869,8.8457324 40.127473,8.8457082 C 43.171331,8.8457324 45.489439,9.4144271 47.081803,10.551794 C 48.684961,11.678373 49.638202,13.476532 49.941528,15.946274 L 43.003446,16.352485 C 42.819282,15.280106 42.42932,14.500182 41.833559,14.01271 C 41.248602,13.525277 40.436181,13.281551 39.396294,13.281531 C 38.540532,13.281551 37.896012,13.465699 37.46273,13.833978 C 37.029429,14.191462 36.812784,14.630169 36.812793,15.150101 C 36.812784,15.529249 36.991516,15.870465 37.348991,16.173752 C 37.695614,16.487905 38.518868,16.780377 39.818753,17.051168 C 43.035928,17.74445 45.337787,18.448548 46.724338,19.163464 C 48.121683,19.867576 49.134501,20.744991 49.762795,21.795711 C 50.401878,22.846453 50.72143,24.021755 50.721453,25.321621 C 50.72143,26.84898 50.298971,28.257176 49.454075,29.546214 C 48.609136,30.835259 47.428417,31.81558 45.911916,32.487181 C 44.395379,33.14795 42.483482,33.478335 40.176219,33.478335 C 36.124934,33.478335 33.319374,32.698411 31.759529,31.138561 C 30.199677,29.578714 29.316847,27.596407 29.111034,25.191634"
     transform="scale(0.8794166,1.1371175)"
     id="text3154"
     style="font-size:33.27679443px;font-style:normal;font-variant:normal;font-weight:normal;font-stretch:normal;text-align:start;line-height:80.00000119%;writing-mode:lr-tb;text-anchor:start;fill:#30251c;fill-opacity:1;stroke:none;stroke-width:1px;stroke-linecap:butt;stroke-linejoin:miter;stroke-opacity:1;font-family:Arial Black;-inkscape-font-specification:Arial Black" />
  <path
     d="M 22.399273,28.645848 L 16.240652,28.146985 C 16.107294,29.440339 15.8358,30.425746 15.426171,31.103205 C 14.759353,32.199477 13.806744,32.747608 12.568342,32.747604 C 11.644323,32.747608 10.93463,32.470463 10.43926,31.916167 C 9.9343909,31.349564 9.6819491,30.696733 9.6819359,29.95767 C 9.6819491,29.255576 9.9201013,28.62738 10.396392,28.07308 C 10.87271,27.518798 11.977736,26.995301 13.711474,26.502587 C 16.550257,25.677321 18.574551,24.581056 19.78436,23.213792 C 21.003703,21.846555 21.613372,20.103619 21.613371,17.984977 C 21.613372,16.59311 21.303775,15.281289 20.684576,14.049507 C 20.055857,12.805457 19.117538,11.832368 17.869615,11.13024 C 16.612177,10.415847 14.892718,10.058637 12.711234,10.05861 C 10.034415,10.058637 7.9958322,10.70531 6.5954809,11.99863 C 5.1856371,13.279682 4.3473412,15.3244 4.0805912,18.132787 L 10.182056,18.594697 C 10.344013,17.375276 10.686952,16.488411 11.210874,15.934098 C 11.725295,15.379829 12.439751,15.102684 13.354245,15.102661 C 14.106816,15.102684 14.673618,15.312082 15.054653,15.730858 C 15.435705,16.13736 15.626227,16.636221 15.626219,17.227445 C 15.626227,17.658581 15.469047,18.046583 15.154677,18.391456 C 14.849851,18.748685 14.125868,19.08126 12.982728,19.389182 C 10.153491,20.177525 8.1291975,20.978167 6.9098415,21.79111 C 5.6809931,22.591768 4.7903042,23.589492 4.237772,24.784284 C 3.6757518,25.979102 3.3947325,27.315558 3.3947123,28.793658 C 3.3947325,30.530445 3.7662499,32.131729 4.5092655,33.597517 C 5.2523189,35.063313 6.2906628,36.178053 7.6242989,36.941742 C 8.9579667,37.693114 10.639321,38.068801 12.668366,38.068801 C 16.231133,38.068801 18.698389,37.181935 20.070143,35.408203 C 21.441903,33.634473 22.218278,31.380357 22.399273,28.645848"
     id="path3159"
     style="font-size:33.27679443px;font-style:normal;font-variant:normal;font-weight:normal;font-stretch:normal;text-align:start;line-height:80.00000119%;writing-mode:lr-tb;text-anchor:start;fill:#30251c;fill-opacity:1;stroke:none;stroke-width:1px;stroke-linecap:butt;stroke-linejoin:miter;stroke-opacity:1;font-family:Arial Black;-inkscape-font-specification:Arial Black" />
</svg>
