<?xml version="1.0" encoding="UTF-8" standalone="no"?>

<svg xmlns:svg="http://www.w3.org/2000/svg" xmlns="http://www.w3.org/2000/svg" version="1.0" width="100%" height="100%" viewBox="0 0 48 48" id="ontology">
<defs id="defs2385"/>
<rect width="47" height="47" ry="9.18" x="0.5" y="0.5" id="r2393" style="opacity:1;fill:#ecc669;fill-opacity:1;fill-rule:nonzero;stroke:#cc9954;stroke-width:1;stroke-linecap:butt;stroke-linejoin:round;marker:none;stroke-miterlimit:4;stroke-dasharray:none;stroke-dashoffset:0;stroke-opacity:1;visibility:visible;display:inline;overflow:visible;enable-background:accumulate"/>
<path d="M 23.25,5.90 L 22.18,10.55 C 21.18,10.71 20.23,10.98 19.31,11.33 L 16.06,7.82 L 15.21,8.32 L 15.01,8.43 L 14.16,8.92 L 15.58,13.49 C 14.80,14.11 14.10,14.83 13.48,15.60 L 8.89,14.19 L 8.41,15.04 L 8.29,15.24 L 7.79,16.09 L 11.31,19.34 C 10.96,20.25 10.70,21.21 10.54,22.20 L 5.87,23.27 L 5.87,24.26 L 5.87,24.49 L 5.87,25.47 L 10.56,26.54 C 10.72,27.53 10.97,28.48 11.33,29.39 L 7.79,32.66 L 8.29,33.51 L 8.41,33.71 L 8.89,34.56 L 13.51,33.14 C 14.13,33.90 14.81,34.61 15.58,35.23 L 14.16,39.83 L 15.01,40.31 L 15.21,40.43 L 16.06,40.93 L 19.35,37.38 C 20.25,37.72 21.19,37.99 22.18,38.14 L 23.25,42.84 L 24.23,42.84 L 24.46,42.84 L 25.45,42.84 L 26.51,38.13 C 27.49,37.97 28.45,37.72 29.35,37.38 L 32.63,40.93 L 33.48,40.43 L 33.68,40.31 L 34.53,39.83 L 33.12,35.23 C 33.88,34.61 34.57,33.90 35.18,33.14 L 39.80,34.56 L 40.29,33.71 L 40.40,33.51 L 40.90,32.66 L 37.37,29.39 C 37.72,28.48 37.98,27.53 38.13,26.54 L 42.82,25.47 L 42.82,24.49 L 42.82,24.26 L 42.82,23.27 L 38.15,22.20 C 38.00,21.21 37.74,20.25 37.38,19.34 L 40.90,16.09 L 40.40,15.24 L 40.29,15.04 L 39.80,14.19 L 35.22,15.60 C 34.59,14.83 33.89,14.11 33.12,13.49 L 34.53,8.92 L 33.68,8.43 L 33.48,8.32 L 32.63,7.82 L 29.38,11.33 C 28.47,10.98 27.51,10.71 26.51,10.55 L 25.45,5.90 L 24.46,5.90 L 24.23,5.90 L 23.25,5.90 z M 24.35,15.27 C 29.36,15.27 33.42,19.34 33.42,24.36 C 33.42,29.37 29.36,33.43 24.35,33.43 C 19.34,33.43 15.26,29.37 15.26,24.36 C 15.26,19.34 19.34,15.27 24.35,15.27 z" id="p3436" style="opacity:1;fill:none;fill-opacity:1;fill-rule:evenodd;stroke:#30251c;stroke-width:1;stroke-linecap:butt;stroke-linejoin:miter;marker:none;stroke-miterlimit:4;stroke-dasharray:none;stroke-dashoffset:0;stroke-opacity:1;visibility:visible;display:inline;overflow:visible;enable-background:accumulate"/>
</svg>
