<?xml version="1.0" encoding="UTF-8" standalone="no"?>
<!-- Created with Inkscape (http://www.inkscape.org/) -->

<svg
 xmlns:dc="http://purl.org/dc/elements/1.1/"
 xmlns:cc="http://creativecommons.org/ns#"
 xmlns:rdf="http://www.w3.org/1999/02/22-rdf-syntax-ns#"
 xmlns:svg="http://www.w3.org/2000/svg"
 xmlns="http://www.w3.org/2000/svg"
 version="1.0"
 width="100%"
 height="100%"
 viewBox="0 0 48 48"
 id="ontology">
<metadata
 id="metadata32">
<rdf:RDF>
<cc:Work
 rdf:about="">
<dc:format>image/svg+xml</dc:format>
<dc:type
 rdf:resource="http://purl.org/dc/dcmitype/StillImage" />
<dc:title></dc:title>
</cc:Work>
</rdf:RDF>
</metadata>
<defs
 id="defs2385" />
<rect
 width="47"
 height="47"
 ry="9.1800003"
 x="0.5"
 y="0.5"
 id="r2393"
 style="fill:#ecc669;fill-opacity:1;fill-rule:nonzero;stroke:#cc9954;stroke-width:1;stroke-linecap:butt;stroke-linejoin:round;stroke-miterlimit:4;stroke-opacity:1;stroke-dasharray:none;stroke-dashoffset:0;marker:none;visibility:visible;display:inline;overflow:visible;enable-background:accumulate" />
<path
 d="m 9.71,31.25 c 0.29,1.71 2.14,3.06 4.41,3.06 2.27,0 4.12,-1.35 4.41,-3.06 l -8.82,0 z"
 id="p3173"
 style="fill:#ecc669;fill-opacity:1;fill-rule:evenodd;stroke:none;marker:none;visibility:visible;display:inline;overflow:visible;enable-background:accumulate" />
<path
 d="m 42.68,33.26 c -0.01,0 -0.02,0 -0.02,-0.01 0.01,0.01 0.01,0.01 0.02,0.01 z"
 id="p3531"
 style="fill:#f6e1b9;stroke:none" />
<path
 d="m 21.85,2.53 c -0.02,0 -0.04,0.02 -0.04,0.04 0.01,0.04 0.05,0.01 0.06,-0.02 0,-0.02 -0.01,-0.02 -0.02,-0.02 z"
 id="p3529"
 style="fill:#f6e1b9;stroke:none" />
<path
 d="m 3.79,2.58 c 0,0 0,0 -0.01,0 C 3.74,2.58 3.74,2.62 3.77,2.65 3.8,2.68 3.81,2.62 3.8,2.59 3.81,2.58 3.8,2.58 3.79,2.58 z"
 id="p3527"
 style="fill:#f6e1b9;stroke:none" />
<path
 d="m 21.11,2.92 c -0.05,0 -0.11,0.03 -0.15,0.05 -0.02,0.02 -0.08,0.04 -0.05,0.07 0.05,0.03 0.1,-0.02 0.15,-0.02 0.03,-0.02 0.06,-0.01 0.09,-0.03 0.02,0 0.03,0 0.05,-0.01 0.01,-0.03 -0.04,-0.05 -0.07,-0.05 0,0 -0.01,-0.01 -0.02,-0.01 z"
 id="p3523"
 style="fill:#f6e1b9;stroke:none" />
<path
 d="M 3.86,3.17 C 3.82,3.18 3.83,3.25 3.87,3.24 3.91,3.25 3.92,3.17 3.88,3.18 3.87,3.18 3.87,3.17 3.86,3.17 z"
 id="p3517"
 style="fill:#f6e1b9;stroke:none" />
<path
 d="m 5.6,5.57 c -0.03,0.02 0,0.06 -0.02,0.09 -0.01,0.04 0.01,0.08 0.05,0.06 0.05,0 0,-0.04 -0.01,-0.06 -0.02,-0.03 0.03,-0.06 0,-0.09 -0.01,0 -0.01,0 -0.02,0 z"
 id="p3515"
 style="fill:#f6e1b9;stroke:none" />
<path
 d="m 25.46,6.68 c -0.01,0 -0.02,0.01 -0.02,0.01 0.01,0 0.02,0 0.02,0 0,0 0,-0.01 0,-0.01 z"
 id="p3513"
 style="fill:#f6e1b9;stroke:none" />
<path
 d="m 25.38,6.72 c -0.02,0 -0.04,0.01 -0.04,0.01 0,0 0.01,0 0.01,0 0,0 0.02,-0.01 0.03,-0.01 z"
 id="p3511"
 style="fill:#f6e1b9;stroke:none" />
<path
 d="m 28.79,8.68 c -0.01,0.01 0,0.01 0.01,0.01 0,0 0,0 0.01,0 -0.01,0 -0.02,-0.01 -0.02,-0.01 z"
 id="p3505"
 style="fill:#f6e1b9;stroke:none" />
<path
 d="m 30.5,10.7 c 0,0.03 0,0.05 -0.01,0.07 0,0 0.01,-0.03 0.01,-0.07 l 0,0 z"
 id="p3503"
 style="fill:#f6e1b9;stroke:none" />
<path
 d="m 37.04,14.13 c 0,0 0,0 0,0 0,0 0,0 0,0 0,0 0,0 0,0 z"
 id="p3491"
 style="fill:#f6e1b9;stroke:none" />
<path
 d="m 35.1,26.36 c -0.02,0.02 -0.03,0.03 -0.05,0.04 0.02,0 0.03,0 0.05,-0.01 l 0,-0.03 z"
 id="p3489"
 style="fill:#f6e1b9;stroke:none" />
<path
 d="m 45.6,36.97 c -0.03,0 -0.04,0.03 -0.02,0.05 0.02,0.03 0.05,-0.01 0.04,-0.04 l 0,-0.01 c -0.01,0 -0.02,-0.01 -0.02,0 z"
 id="p3485"
 style="fill:#f6e1b9;stroke:none" />
<path
 d="m 45.39,38.32 c -0.02,0 -0.02,0.05 -0.05,0.04 -0.02,0.03 -0.01,0.07 -0.02,0.11 -0.02,0.02 0,0.06 0.01,0.08 0.01,0.03 0.04,0.06 0.05,0.02 0.02,-0.05 0.07,-0.08 0.08,-0.13 0.02,-0.04 -0.05,-0.03 -0.03,-0.07 -0.01,-0.01 -0.01,-0.03 -0.02,-0.04 -0.01,-0.01 -0.01,-0.01 -0.02,-0.01 z"
 id="p3481"
 style="fill:#f6e1b9;stroke:none" />
<path
 d="m 14.55,38.33 c 0,0 0,0.01 0,0.01 0,0.01 0,0.01 0,0.01 0,0 0,0 0,-0.01 0.02,0.01 0.03,0.01 0.06,0.01 l 0,-0.02 -0.05,0 c 0.01,0 0.01,0.02 -0.01,0.01 0,0 0,-0.01 0,-0.01 l 0,0 z"
 id="p3479"
 style="fill:#f6e1b9;stroke:none" />
<path
 d="m 18.33,39.14 c -0.01,0 -0.01,0 -0.01,0 0,0 0.01,0 0.02,0 0,0 -0.01,0 -0.01,0 z"
 id="p3477"
 style="fill:#f6e1b9;stroke:none" />
<path
 d="m 18.28,39.16 c -0.05,0 -0.1,0.01 -0.12,0.03 -0.06,0.03 -0.08,0.04 -0.09,0.05 l 0.01,0 c 0,0 0,0 0,0 0.02,-0.02 0.11,-0.06 0.2,-0.08 z"
 id="p3475"
 style="fill:#f6e1b9;stroke:none" />
<path
 d="m 22.57,39.31 c 0,0 0,0 0,0.01 l 0.01,0 -0.01,-0.01 z"
 id="p3473"
 style="fill:#f6e1b9;stroke:none" />
<path
 d="m 18.66,39.36 c 0,0 0,0.01 0.01,0.02 0,0 0,0 0,0 0,0 0,-0.01 -0.01,-0.02 z"
 id="p3471"
 style="fill:#f6e1b9;stroke:none" />
<path
 d="m 21.58,40.07 c 0,0.01 0.01,0.02 0.06,0.06 0,0 0.02,0.01 0.02,0.01 -0.04,-0.02 -0.07,-0.05 -0.08,-0.06 0,0 0,0 0,-0.01 z"
 id="p3467"
 style="fill:#f6e1b9;stroke:none" />
<path
 d="m 22.04,40.16 c 0,0 0,0 0,0 l -0.02,0.02 c 0.01,-0.01 0.02,-0.01 0.03,-0.02 l -0.01,0 z"
 id="p3465"
 style="fill:#f6e1b9;stroke:none" />
<path
 d="m 104.67281,31.836271 c -0.01,0 -0.02,0 -0.02,-0.01 0.01,0.01 0.01,0.01 0.02,0.01 z"
 id="p3531-2"
 style="fill:#f6e1b9;stroke:none" />
<path
 d="m 83.84281,1.1062712 c -0.02,0 -0.04,0.02 -0.04,0.04 0.01,0.04 0.05,0.01 0.06,-0.02 0,-0.02 -0.01,-0.02 -0.02,-0.02 z"
 id="p3529-6"
 style="fill:#f6e1b9;stroke:none" />
<path
 d="m 65.78281,1.1562712 c 0,0 0,0 -0.01,0 -0.04,0 -0.04,0.04 -0.01,0.07 0.03,0.03 0.04,-0.03 0.03,-0.06 0.01,-0.01 0,-0.01 -0.01,-0.01 z"
 id="p3527-7"
 style="fill:#f6e1b9;stroke:none" />
<path
 d="m 83.10281,1.4962712 c -0.05,0 -0.11,0.03 -0.15,0.05 -0.02,0.02 -0.08,0.04 -0.05,0.07 0.05,0.03 0.1,-0.02 0.15,-0.02 0.03,-0.02 0.06,-0.01 0.09,-0.03 0.02,0 0.03,0 0.05,-0.01 0.01,-0.03 -0.04,-0.05 -0.07,-0.05 0,0 -0.01,-0.01 -0.02,-0.01 z"
 id="p3523-9"
 style="fill:#f6e1b9;stroke:none" />
<path
 d="m 65.85281,1.7462712 c -0.04,0.01 -0.03,0.08 0.01,0.07 0.04,0.01 0.05,-0.07 0.01,-0.06 -0.01,0 -0.01,-0.01 -0.02,-0.01 z"
 id="p3517-9"
 style="fill:#f6e1b9;stroke:none" />
<path
 d="m 67.59281,4.1462712 c -0.03,0.02 0,0.06 -0.02,0.09 -0.01,0.04 0.01,0.08 0.05,0.06 0.05,0 0,-0.04 -0.01,-0.06 -0.02,-0.03 0.03,-0.06 0,-0.09 -0.01,0 -0.01,0 -0.02,0 z"
 id="p3515-4"
 style="fill:#f6e1b9;stroke:none" />
<path
 d="m 87.45281,5.2562712 c -0.01,0 -0.02,0.01 -0.02,0.01 0.01,0 0.02,0 0.02,0 0,0 0,-0.01 0,-0.01 z"
 id="p3513-4"
 style="fill:#f6e1b9;stroke:none" />
<path
 d="m 87.37281,5.2962712 c -0.02,0 -0.04,0.01 -0.04,0.01 0,0 0.01,0 0.01,0 0,0 0.02,-0.01 0.03,-0.01 z"
 id="p3511-1"
 style="fill:#f6e1b9;stroke:none" />
<path
 d="m 90.78281,7.2562712 c -0.01,0.01 0,0.01 0.01,0.01 0,0 0,0 0.01,0 -0.01,0 -0.02,-0.01 -0.02,-0.01 z"
 id="p3505-9"
 style="fill:#f6e1b9;stroke:none" />
<path
 d="m 92.49281,9.2762712 c 0,0.03 0,0.05 -0.01,0.07 0,0 0.01,-0.03 0.01,-0.07 l 0,0 z"
 id="p3503-1"
 style="fill:#f6e1b9;stroke:none" />
<path
 d="m 99.03281,12.706271 c 0,0 0,0 0,0 0,0 0,0 0,0 0,0 0,0 0,0 z"
 id="p3491-5"
 style="fill:#f6e1b9;stroke:none" />
<path
 d="m 97.09281,24.936271 c -0.02,0.02 -0.03,0.03 -0.05,0.04 0.02,0 0.03,0 0.05,-0.01 l 0,-0.03 z"
 id="p3489-0"
 style="fill:#f6e1b9;stroke:none" />
<path
 d="m 107.59281,35.546271 c -0.03,0 -0.04,0.03 -0.02,0.05 0.02,0.03 0.05,-0.01 0.04,-0.04 l 0,-0.01 c -0.01,0 -0.02,-0.01 -0.02,0 z"
 id="p3485-5"
 style="fill:#f6e1b9;stroke:none" />
<path
 d="m 107.38281,36.896271 c -0.02,0 -0.02,0.05 -0.05,0.04 -0.02,0.03 -0.01,0.07 -0.02,0.11 -0.02,0.02 0,0.06 0.01,0.08 0.01,0.03 0.04,0.06 0.05,0.02 0.02,-0.05 0.07,-0.08 0.08,-0.13 0.02,-0.04 -0.05,-0.03 -0.03,-0.07 -0.01,-0.01 -0.01,-0.03 -0.02,-0.04 -0.01,-0.01 -0.01,-0.01 -0.02,-0.01 z"
 id="p3481-3"
 style="fill:#f6e1b9;stroke:none" />
<path
 d="m 76.54281,36.906271 c 0,0 0,0.01 0,0.01 0,0.01 0,0.01 0,0.01 0,0 0,0 0,-0.01 0.02,0.01 0.03,0.01 0.06,0.01 l 0,-0.02 -0.05,0 c 0.01,0 0.01,0.02 -0.01,0.01 0,0 0,-0.01 0,-0.01 l 0,0 z"
 id="p3479-3"
 style="fill:#f6e1b9;stroke:none" />
<path
 d="m 80.32281,37.716271 c -0.01,0 -0.01,0 -0.01,0 0,0 0.01,0 0.02,0 0,0 -0.01,0 -0.01,0 z"
 id="p3477-9"
 style="fill:#f6e1b9;stroke:none" />
<path
 d="m 80.27281,37.736271 c -0.05,0 -0.1,0.01 -0.12,0.03 -0.06,0.03 -0.08,0.04 -0.09,0.05 l 0.01,0 c 0,0 0,0 0,0 0.02,-0.02 0.11,-0.06 0.2,-0.08 z"
 id="p3475-7"
 style="fill:#f6e1b9;stroke:none" />
<path
 d="m 84.56281,37.886271 c 0,0 0,0 0,0.01 l 0.01,0 -0.01,-0.01 z"
 id="p3473-3"
 style="fill:#f6e1b9;stroke:none" />
<path
 d="m 80.65281,37.936271 c 0,0 0,0.01 0.01,0.02 0,0 0,0 0,0 0,0 0,-0.01 -0.01,-0.02 z"
 id="p3471-3"
 style="fill:#f6e1b9;stroke:none" />
<path
 d="m 83.57281,38.646271 c 0,0.01 0.01,0.02 0.06,0.06 0,0 0.02,0.01 0.02,0.01 -0.04,-0.02 -0.07,-0.05 -0.08,-0.06 0,0 0,0 0,-0.01 z"
 id="p3467-0"
 style="fill:#f6e1b9;stroke:none" />
<path
 d="m 84.03281,38.736271 c 0,0 0,0 0,0 l -0.02,0.02 c 0.01,-0.01 0.02,-0.01 0.03,-0.02 l -0.01,0 z"
 id="p3465-3"
 style="fill:#f6e1b9;stroke:none" />
<path
 d="M 23.747258,45.229018 C 17.710464,44.857083 13.209095,41.929286 9.7090898,36.102302 9.2417867,35.329821 8.6028212,33.699028 8.27857,32.478318 7.2772061,28.606378 7.944782,23.618632 9.9570466,20.061406 12.15051,16.170392 17.119183,12.536872 20.952976,12.012348 c 2.021801,-0.267031 2.384199,-0.391009 2.384199,-0.772481 0,-0.200273 -0.343324,-0.448229 -0.77248,-0.543597 C 22.135539,10.591365 21.343985,10.124062 20.800387,9.6567586 19.913465,8.8842779 19.799023,8.6363211 19.675045,7.1867277 19.560603,5.7562078 19.627361,5.4510303 20.294937,4.4401296 21.191396,3.0763674 22.002024,2.761653 24.519739,2.7711898 c 3.452321,0.00954 4.987745,1.2779311 4.987745,4.1389707 0,1.8596758 -0.53406,2.6703037 -2.269758,3.3855635 -1.440056,0.591282 -1.821528,0.972753 -1.144416,1.153953 0.1812,0.04768 1.173027,0.286104 2.212538,0.543597 6.198919,1.497278 10.547699,5.617175 12.445522,11.787484 0.68665,2.231611 0.762944,6.408728 0.162126,8.955054 -1.125343,4.777936 -5.807911,10.137617 -10.109007,11.568137 -1.745234,0.581744 -5.159408,1.0109 -7.047694,0.896459 z m 3.614447,-1.955044 c 4.34878,-0.686649 8.297015,-3.747962 10.528626,-8.163499 1.258857,-2.489105 1.544961,-3.976846 1.430519,-7.352872 -0.08583,-2.679841 -0.200272,-3.290196 -0.801091,-4.510906 -0.381472,-0.772481 -0.696186,-1.478204 -0.696186,-1.573572 0,-0.08583 -0.543598,-0.925069 -1.211174,-1.869213 -3.051775,-4.272485 -7.810638,-6.504096 -13.275224,-6.208456 -7.486387,0.400546 -13.685306,7.085842 -13.6757692,14.762965 1.135e-4,6.876032 4.7588632,12.970046 11.5299902,14.782038 1.773844,0.467303 3.814719,0.514987 6.170309,0.143052 z m -5.893742,-1.039511 c -2.498641,-0.667576 -3.652594,-1.22071 -5.216629,-2.498641 -1.831065,-1.497277 -3.213901,-3.213901 -4.186655,-5.178482 -0.810628,-1.630792 -1.707087,-5.397828 -1.335152,-5.626711 0.104905,-0.06676 0.257494,0.50545 0.343325,1.268394 0.419619,4.119897 3.490469,8.659414 7.095378,10.480942 4.062677,2.050412 8.964591,2.040875 13.084489,-0.02861 1.707087,-0.858312 4.329706,-3.557226 5.435975,-5.598101 0.467303,-0.858312 0.858312,-1.373299 0.858312,-1.125342 0.0095,0.696186 -2.574936,4.386927 -3.824257,5.455048 -1.764307,1.516352 -4.568126,2.746599 -6.980936,3.061313 -2.660767,0.352861 -3.156681,0.324251 -5.27385,-0.228883 z m 2.14578,-1.983654 c 0,-1.373299 0.152588,-1.888286 0.50545,-1.66894 0.257494,0.152589 0,3.09946 -0.257494,3.09946 -0.133515,0 -0.23842,-0.638966 -0.23842,-1.43052 z m 1.173026,0.820165 c 0.08583,-0.324251 0.23842,-1.049048 0.333788,-1.602182 0.08583,-0.553135 0.26703,-1.001364 0.381472,-1.001364 0.247957,0 1.316078,2.298368 1.316078,2.851503 0,0.667576 -0.47684,0.371935 -0.810628,-0.495914 l -0.324251,-0.867849 -0.26703,0.867849 c -0.295641,0.963217 -0.886923,1.22071 -0.629429,0.26703 z m -4.568127,-0.905996 0.152589,-0.972753 -0.658039,0.610355 c -1.077658,1.020437 -1.058585,0.381472 0.03815,-0.92507 1.497278,-1.792918 1.630793,-1.716624 1.134879,0.734334 -0.333788,1.659403 -0.934606,2.145779 -0.677113,0.543597 z m 9.536799,-1.43052 c -0.228883,-0.877385 -0.305177,-1.602182 -0.171662,-1.602182 0.314714,0 2.622619,1.926433 2.622619,2.203 0,0.400546 -0.629428,0.200273 -1.297004,-0.391008 -0.410083,-0.371935 -0.610355,-0.44823 -0.514987,-0.200273 0.47684,1.382836 0.495913,1.602182 0.152588,1.602182 -0.209809,0 -0.524524,-0.648502 -0.77248,-1.602182 z m -11.835167,1.182563 c -0.162126,-0.162125 0.877385,-2.260221 1.440056,-2.908723 0.495914,-0.562672 0.495914,0.133515 3.8e-5,1.087195 -0.724797,1.411446 -1.220711,2.031338 -1.440057,1.811991 z m -0.915533,-1.029974 c 0.352862,-0.934606 1.621256,-2.660767 1.716624,-2.365126 0.123978,0.371935 -1.277931,2.737061 -1.630793,2.746598 -0.123978,2.65e-4 -0.162125,-0.162126 -0.07629,-0.381472 z m 8.678487,-1.153953 c -0.05722,-0.104904 -0.200273,-0.801091 -0.305178,-1.535424 -0.104904,-0.734334 -0.26703,-1.459131 -0.362398,-1.602183 -0.08583,-0.143052 -0.181199,-0.562671 -0.190736,-0.934606 -0.06676,-2.012264 -0.495913,-3.929161 -0.972753,-4.386927 -0.286104,-0.267031 -0.457767,-0.658039 -0.381472,-0.848775 0.07629,-0.20981 -0.305178,-0.619892 -1.001364,-1.020438 -0.629429,-0.362398 -1.487741,-1.182563 -1.916897,-1.821528 -1.106268,-1.659403 -1.783381,-2.3842 -2.470031,-2.651231 -0.324251,-0.123978 -0.600818,-0.391008 -0.600818,-0.591281 0,-0.190736 -0.371935,-0.705723 -0.820165,-1.144416 -0.448229,-0.429156 -0.944143,-1.020437 -1.096732,-1.316078 -0.152588,-0.295641 0.171663,-0.09537 0.753408,0.448229 0.562671,0.543598 1.363762,1.106269 1.773844,1.258858 0.400546,0.152589 0.734334,0.448229 0.734334,0.658039 0,0.419619 1.134879,1.468667 2.994554,2.746598 0.667576,0.457766 1.382836,1.211173 1.583109,1.66894 0.23842,0.553134 0.553134,0.829701 0.92507,0.829701 0.77248,0 1.649866,0.972754 1.230247,1.392373 -0.295641,0.295641 -0.190736,3.862403 0.133515,4.768399 0.181199,0.495914 0.381472,4.29156 0.219346,4.29156 -0.05722,0 -0.162125,-0.08583 -0.228883,-0.200273 z M 14.906645,37.408843 c -0.07629,-0.123978 0.114442,-0.562671 0.438693,-0.972753 l 0.581745,-0.743871 -0.782018,0.190736 c -0.429156,0.104905 -0.839238,0.20981 -0.915532,0.23842 -0.0763,0.01907 -0.143052,-0.06676 -0.143052,-0.219346 -0.0095,-0.286104 2.775208,-1.335152 2.994554,-1.125342 0.123979,0.123978 -1.707087,2.870576 -1.916896,2.870576 -0.04768,0 -0.152589,-0.104905 -0.23842,-0.228883 z m 18.406022,-1.66894 c -0.486377,-0.74387 -0.829701,-1.420983 -0.753407,-1.48774 0.06676,-0.06676 0.867849,0.133515 1.773845,0.467303 1.020437,0.371935 1.544961,0.686649 1.392372,0.848775 -0.152589,0.152589 -0.457766,0.133515 -0.791554,-0.03815 -0.944143,-0.505451 -1.173026,-0.324251 -0.600818,0.467303 0.486376,0.677113 0.50545,1.115805 0.04768,1.096732 -0.08583,0 -0.553135,-0.610355 -1.039512,-1.363762 z m -20.027278,-0.50545 c -0.08583,-0.133515 0.581745,-0.629429 1.487741,-1.087195 0.905996,-0.457766 1.602182,-0.696186 1.544962,-0.534061 -0.152589,0.457767 -2.86104,1.90736 -3.032703,1.621256 z m 21.257525,-1.287468 c -1.1921,-0.686649 -1.592645,-1.125342 -1.010901,-1.125342 0.371936,0 2.689378,1.43052 2.689378,1.66894 0,0.333788 -0.333788,0.219346 -1.66894,-0.534061 z m -21.934637,0.352862 c 0,-0.257494 3.194827,-1.726161 3.318806,-1.516351 0.06676,0.114441 -0.524524,0.53406 -1.325615,0.934606 -1.411447,0.686649 -1.983654,0.858312 -1.983654,0.581745 z m -0.267031,-0.877386 c 0,-0.23842 2.470031,-1.392372 2.985018,-1.392372 0.667576,0 0.05722,0.486376 -1.163489,0.944143 -0.762944,0.286104 -1.487741,0.562671 -1.602182,0.610355 -0.114442,0.04768 -0.200273,-0.01907 -0.200273,-0.162126 z m 25.663526,-1.93597 c 0.08583,-0.658039 0.257494,-1.316078 0.391009,-1.45913 0.257493,-0.286104 0.0095,1.24932 -0.333788,2.136243 -0.123978,0.314714 -0.152589,0.04768 -0.05722,-0.667576 z M 11.540155,29.865235 c 0,-0.143052 0.705723,-0.26703 1.592646,-0.26703 0.867848,0 1.659403,0.114441 1.754771,0.26703 0.09537,0.162126 -0.486377,0.267031 -1.592646,0.267031 -0.991827,0 -1.754771,-0.114442 -1.754771,-0.267031 z m 22.649898,-0.03815 c -0.05722,-0.104905 0,-0.257494 0.133515,-0.343325 0.352861,-0.219346 3.242511,0.143052 3.242511,0.410083 0,0.257493 -3.204364,0.200272 -3.376026,-0.05722 z M 11.416177,28.806651 c -0.08583,-0.133516 0.104905,-0.391009 0.429156,-0.562672 0.534061,-0.286104 0.553134,-0.343324 0.133515,-0.638965 -0.801091,-0.581745 -0.524524,-1.010901 0.324251,-0.50545 0.724797,0.429156 0.820165,0.429156 1.45913,0.0095 0.772481,-0.50545 1.230247,-0.572208 1.230247,-0.171662 0,0.143052 -0.324251,0.400546 -0.734333,0.553134 l -0.734334,0.276567 0.762944,0.400546 c 0.505451,0.26703 0.677113,0.486377 0.495914,0.667576 -0.171662,0.171662 -0.486377,0.114442 -0.944143,-0.171662 -0.619892,-0.400546 -0.74387,-0.400546 -1.487741,-0.01907 -0.467303,0.23842 -0.867848,0.305178 -0.963216,0.162126 z m 22.936001,-0.276568 c 0,-0.143052 0.753407,-0.26703 1.735698,-0.26703 0.98229,0 1.735697,0.114442 1.735697,0.26703 0,0.143052 -0.753407,0.267031 -1.735697,0.267031 -0.982291,0 -1.735698,-0.114442 -1.735698,-0.267031 z m 4.062676,-0.53406 c -0.01907,-0.362399 -0.104904,-1.144416 -0.181199,-1.735698 -0.114441,-0.934606 -0.09537,-0.98229 0.143052,-0.410082 0.152589,0.362398 0.23842,1.144416 0.181199,1.735697 -0.04768,0.591282 -0.114441,0.772481 -0.143052,0.410083 z M 10.462497,27.719455 c 0,-0.143051 0.114442,-0.26703 0.26703,-0.26703 0.143052,0 0.267031,0.114442 0.267031,0.26703 0,0.143052 -0.114442,0.267031 -0.267031,0.267031 -0.143052,0 -0.26703,-0.114442 -0.26703,-0.267031 z m 23.889681,-0.53406 c 0,-0.143052 0.705723,-0.267031 1.592646,-0.267031 0.867848,0 1.659403,0.114442 1.754771,0.267031 0.09537,0.162125 -0.486377,0.26703 -1.592646,0.26703 -0.991827,0 -1.754771,-0.114441 -1.754771,-0.26703 z m -23.59404,-0.829702 c -0.0095,-0.381472 0.228883,-1.45913 0.534061,-2.403273 2.975481,-9.079033 13.961873,-12.550427 21.572239,-6.818811 1.382835,1.039511 3.309269,3.252048 3.862403,4.425074 0.257494,0.562672 0.20981,0.534061 -0.286104,-0.133515 -0.333788,-0.438692 -1.420983,-1.621256 -2.41281,-2.622619 -2.193464,-2.203001 -4.730252,-3.519079 -7.724807,-3.976846 -6.694833,-1.058584 -13.46596,3.719352 -15.144437,10.633531 -0.209809,0.896459 -0.391008,1.287468 -0.400545,0.896459 z M 37.6233,24.028714 c -0.26703,-0.896459 -0.257493,-0.944143 0.08583,-0.47684 0.333788,0.44823 0.543598,1.487741 0.295641,1.487741 -0.04768,0 -0.219346,-0.44823 -0.381472,-1.001364 z M 14.954329,23.656779 c -0.429156,-0.753407 -0.553134,-0.810628 -1.43052,-0.648502 -0.724796,0.133515 -0.934606,0.09537 -0.839238,-0.171663 0.05722,-0.190735 0.429156,-0.381471 0.820165,-0.429155 0.619892,-0.06676 0.667576,-0.143052 0.391009,-0.591282 -0.514988,-0.820165 0,-0.944143 0.629428,-0.143052 0.467303,0.600818 0.724797,0.705723 1.363763,0.572208 0.925069,-0.181199 0.915532,0.400546 0,0.629429 -0.429156,0.104904 -0.505451,0.23842 -0.314715,0.543597 0.305178,0.47684 0.333788,1.068122 0.05722,1.068122 -0.104905,0 -0.410082,-0.371935 -0.667576,-0.829702 z m 18.444169,0.553135 c -0.209809,-0.343325 -0.305177,-0.267031 1.411446,-1.1921 1.745235,-0.934607 2.107633,-0.71526 0.553135,0.324251 -1.688014,1.134879 -1.773845,1.173026 -1.964581,0.858312 z m -0.524524,-1.049048 c -0.162125,-0.267031 2.17439,-1.859676 2.746598,-1.869213 0.543598,0 0.400546,0.133515 -1.125342,1.153953 -0.801091,0.53406 -1.525888,0.848775 -1.621256,0.71526 z M 17.977495,19.937428 c 0,-0.610355 -0.1812,-0.886923 -0.810628,-1.211174 -0.438693,-0.228883 -0.734334,-0.534061 -0.648503,-0.677113 0.09537,-0.162125 0.343325,-0.152588 0.677113,0.01907 0.429156,0.228883 0.514987,0.181199 0.514987,-0.26703 0,-0.295641 0.114442,-0.543598 0.267031,-0.543598 0.143052,0 0.26703,0.295641 0.26703,0.658039 0,0.457767 0.23842,0.782018 0.801091,1.077659 0.762944,0.391008 1.173026,1.144415 0.467303,0.858311 -1.230247,-0.495913 -1.201637,-0.50545 -1.068121,0.190736 0.07629,0.400546 0,0.677113 -0.162126,0.677113 -0.162125,0 -0.295641,-0.352861 -0.295641,-0.791554 z m 11.453695,0.08583 c -0.171662,-0.171663 1.22071,-2.355589 1.707087,-2.660767 0.610355,-0.371935 0.495913,0.133515 -0.314714,1.449593 -0.839239,1.354226 -1.049048,1.535425 -1.382836,1.201637 z m -9.918271,-2.107633 c -0.391009,-0.810628 -0.600818,-1.468667 -0.457766,-1.468667 0.219346,0 1.611719,2.41281 1.611719,2.803819 0,0.534061 -0.534061,-0.07629 -1.144416,-1.325615 z m 2.756135,0.677113 c 0,-0.133515 0.133515,-0.562671 0.314714,-0.944143 0.257494,-0.572208 0.228884,-0.829702 -0.143052,-1.487741 -0.47684,-0.810628 -0.219346,-1.096732 0.362399,-0.391008 0.276567,0.343324 0.391008,0.314714 0.820164,-0.200273 0.534061,-0.638966 0.696187,-0.23842 0.23842,0.610355 -0.181199,0.343325 -0.171662,0.71526 0.03815,1.182563 0.47684,1.039511 0.724796,0.820165 0.810628,-0.71526 0.03815,-0.772481 0.171662,-1.373299 0.276567,-1.335152 0.104904,0.02861 0.200272,0.123979 0.200272,0.200273 v 1.602182 c 0,1.373299 -0.03815,1.468667 -0.638965,1.468667 -0.352862,0 -0.705723,-0.171662 -0.791554,-0.400545 -0.20981,-0.562671 -0.638966,-0.495914 -0.839239,0.133515 -0.171662,0.534061 -0.667576,0.74387 -0.667576,0.276567 z m 3.480932,-0.648502 c 0,-1.258858 0.286104,-2.574936 0.562671,-2.574936 0.26703,0 0.29564,1.039511 0.05722,2.479568 -0.200273,1.24932 -0.629429,1.316078 -0.629429,0.09537 z M 26.684592,8.3311435 C 27.705029,7.4346844 27.838545,6.2425846 27.037453,5.3079783 26.474782,4.659476 26.131458,4.5259608 24.739085,4.4305928 23.194123,4.3161512 23.051072,4.3542984 22.278591,5.1267791 21.363058,6.0423118 21.220006,7.1199701 21.887582,8.0641132 22.307201,8.6553947 23.184587,8.8556675 23.461154,8.4169747 23.537448,8.2929963 23.394396,8.121334 23.117829,8.0545764 22.412106,7.8733772 22.164149,6.6145197 22.6696,5.8325022 c 0.791554,-1.2111734 3.60491,-1.039511 3.852866,0.23842 0.143052,0.7820175 -0.190736,1.7833814 -0.619892,1.7833814 -0.209809,0 -0.391008,0.23842 -0.391008,0.5340607 0,0.6961863 0.343324,0.6771127 1.192099,-0.066758 z M 24.205024,6.8529397 C 24.12873,6.4428574 24.014288,6.271195 23.947531,6.461931 c -0.104905,0.3337879 0.08583,1.1253422 0.286104,1.1253422 0.05722,0 0.03815,-0.3242511 -0.02861,-0.7343335 z m 0.92507,-0.4100823 c -0.06676,-0.1811992 -0.123979,0.02861 -0.114442,0.4673031 0,0.4386928 0.05722,0.5912815 0.133515,0.3242512 0.06676,-0.2574936 0.05722,-0.619892 -0.0095,-0.8010911 z M 25.931185,6.175827 c -0.06676,-0.1811992 -0.123979,0.02861 -0.114442,0.4673031 0,0.4386928 0.05722,0.5912816 0.133515,0.3242512 0.06676,-0.2574936 0.05722,-0.6198919 -0.0095,-0.8010911 z M 23.41347,6.3856366 C 23.48023,6.0232382 23.43254,5.794355 23.3181,5.8706494 c -0.219346,0.1335152 -0.333788,1.1825631 -0.123979,1.1825631 0.04768,0 0.152589,-0.2956408 0.228884,-0.6580391 z"
 id="path4941"
 style="fill:#30251c;fill-opacity:1" />
</svg>
