<?xml version="1.0" encoding="UTF-8" standalone="no"?>

<svg xmlns:svg="http://www.w3.org/2000/svg" xmlns="http://www.w3.org/2000/svg" version="1.0" width="100%" height="100%" viewBox="0 0 48 48" id="ontology">
<defs id="defs2385"/>
<rect width="47" height="47" ry="9.18" x="0.5" y="0.5" id="r2393" style="opacity:1;fill:#ecc669;fill-opacity:1;fill-rule:nonzero;stroke:#cc9954;stroke-width:1;stroke-linecap:butt;stroke-linejoin:round;marker:none;stroke-miterlimit:4;stroke-dasharray:none;stroke-dashoffset:0;stroke-opacity:1;visibility:visible;display:inline;overflow:visible;enable-background:accumulate"/>
<path d="M 23.96,11.62 C 23.29,11.63 22.65,11.90 22.18,12.37 L 13.31,21.25 L 13.28,21.28 C 12.56,21.92 12.26,22.91 12.5,23.84 C 12.72,24.76 13.44,25.45 14.37,25.68 C 15.29,25.91 16.29,25.64 16.93,24.93 L 16.93,24.90 L 16.93,24.87 L 20.31,21.53 L 21.40,20.43 L 21.40,22 L 21.40,34.43 L 21.40,34.46 C 21.39,35.40 21.87,36.24 22.68,36.71 C 23.48,37.18 24.50,37.18 25.31,36.71 C 26.12,36.24 26.60,35.37 26.59,34.43 L 26.59,22 L 26.59,20.43 L 27.68,21.53 L 31.06,24.87 L 31.06,24.90 L 31.06,24.93 C 31.69,25.64 32.70,25.91 33.62,25.68 C 34.56,25.45 35.26,24.77 35.5,23.84 C 35.73,22.91 35.42,21.92 34.71,21.28 L 34.68,21.25 L 25.84,12.40 C 25.34,11.91 24.66,11.61 23.96,11.62 z" id="p3226" style="fill:#30251c;fill-opacity:1;fill-rule:evenodd;stroke:none;marker:none;visibility:visible;display:inline;overflow:visible;enable-background:accumulate"/>
</svg>
