<?xml version="1.0" encoding="UTF-8" standalone="no"?>
<!-- Created with Inkscape (http://www.inkscape.org/) -->

<svg
 xmlns:dc="http://purl.org/dc/elements/1.1/"
 xmlns:cc="http://creativecommons.org/ns#"
 xmlns:rdf="http://www.w3.org/1999/02/22-rdf-syntax-ns#"
 xmlns:svg="http://www.w3.org/2000/svg"
 xmlns="http://www.w3.org/2000/svg"
 version="1.0"
 width="100%"
 height="100%"
 viewBox="0 0 48 48"
 id="ontology">
<metadata
 id="metadata32">
<rdf:RDF>
<cc:Work
 rdf:about="">
<dc:format>image/svg+xml</dc:format>
<dc:type
 rdf:resource="http://purl.org/dc/dcmitype/StillImage" />
<dc:title></dc:title>
</cc:Work>
</rdf:RDF>
</metadata>
<defs
 id="defs2385" />
<rect
 width="47"
 height="47"
 ry="9.1800003"
 x="0.5"
 y="0.5"
 id="r2393"
 style="fill:#ecc669;fill-opacity:1;fill-rule:nonzero;stroke:#cc9954;stroke-width:1;stroke-linecap:butt;stroke-linejoin:round;stroke-miterlimit:4;stroke-opacity:1;stroke-dasharray:none;stroke-dashoffset:0;marker:none;visibility:visible;display:inline;overflow:visible;enable-background:accumulate" />
<path
 d="m 9.71,31.25 c 0.29,1.71 2.14,3.06 4.41,3.06 2.27,0 4.12,-1.35 4.41,-3.06 l -8.82,0 z"
 id="p3173"
 style="fill:#ecc669;fill-opacity:1;fill-rule:evenodd;stroke:none;marker:none;visibility:visible;display:inline;overflow:visible;enable-background:accumulate" />
<path
 d="m 42.68,33.26 c -0.01,0 -0.02,0 -0.02,-0.01 0.01,0.01 0.01,0.01 0.02,0.01 z"
 id="p3531"
 style="fill:#f6e1b9;stroke:none" />
<path
 d="m 21.85,2.53 c -0.02,0 -0.04,0.02 -0.04,0.04 0.01,0.04 0.05,0.01 0.06,-0.02 0,-0.02 -0.01,-0.02 -0.02,-0.02 z"
 id="p3529"
 style="fill:#f6e1b9;stroke:none" />
<path
 d="m 3.79,2.58 c 0,0 0,0 -0.01,0 C 3.74,2.58 3.74,2.62 3.77,2.65 3.8,2.68 3.81,2.62 3.8,2.59 3.81,2.58 3.8,2.58 3.79,2.58 z"
 id="p3527"
 style="fill:#f6e1b9;stroke:none" />
<path
 d="m 21.11,2.92 c -0.05,0 -0.11,0.03 -0.15,0.05 -0.02,0.02 -0.08,0.04 -0.05,0.07 0.05,0.03 0.1,-0.02 0.15,-0.02 0.03,-0.02 0.06,-0.01 0.09,-0.03 0.02,0 0.03,0 0.05,-0.01 0.01,-0.03 -0.04,-0.05 -0.07,-0.05 0,0 -0.01,-0.01 -0.02,-0.01 z"
 id="p3523"
 style="fill:#f6e1b9;stroke:none" />
<path
 d="M 3.86,3.17 C 3.82,3.18 3.83,3.25 3.87,3.24 3.91,3.25 3.92,3.17 3.88,3.18 3.87,3.18 3.87,3.17 3.86,3.17 z"
 id="p3517"
 style="fill:#f6e1b9;stroke:none" />
<path
 d="m 5.6,5.57 c -0.03,0.02 0,0.06 -0.02,0.09 -0.01,0.04 0.01,0.08 0.05,0.06 0.05,0 0,-0.04 -0.01,-0.06 -0.02,-0.03 0.03,-0.06 0,-0.09 -0.01,0 -0.01,0 -0.02,0 z"
 id="p3515"
 style="fill:#f6e1b9;stroke:none" />
<path
 d="m 25.46,6.68 c -0.01,0 -0.02,0.01 -0.02,0.01 0.01,0 0.02,0 0.02,0 0,0 0,-0.01 0,-0.01 z"
 id="p3513"
 style="fill:#f6e1b9;stroke:none" />
<path
 d="m 25.38,6.72 c -0.02,0 -0.04,0.01 -0.04,0.01 0,0 0.01,0 0.01,0 0,0 0.02,-0.01 0.03,-0.01 z"
 id="p3511"
 style="fill:#f6e1b9;stroke:none" />
<path
 d="m 28.79,8.68 c -0.01,0.01 0,0.01 0.01,0.01 0,0 0,0 0.01,0 -0.01,0 -0.02,-0.01 -0.02,-0.01 z"
 id="p3505"
 style="fill:#f6e1b9;stroke:none" />
<path
 d="m 30.5,10.7 c 0,0.03 0,0.05 -0.01,0.07 0,0 0.01,-0.03 0.01,-0.07 l 0,0 z"
 id="p3503"
 style="fill:#f6e1b9;stroke:none" />
<path
 d="m 37.04,14.13 c 0,0 0,0 0,0 0,0 0,0 0,0 0,0 0,0 0,0 z"
 id="p3491"
 style="fill:#f6e1b9;stroke:none" />
<path
 d="m 35.1,26.36 c -0.02,0.02 -0.03,0.03 -0.05,0.04 0.02,0 0.03,0 0.05,-0.01 l 0,-0.03 z"
 id="p3489"
 style="fill:#f6e1b9;stroke:none" />
<path
 d="m 45.6,36.97 c -0.03,0 -0.04,0.03 -0.02,0.05 0.02,0.03 0.05,-0.01 0.04,-0.04 l 0,-0.01 c -0.01,0 -0.02,-0.01 -0.02,0 z"
 id="p3485"
 style="fill:#f6e1b9;stroke:none" />
<path
 d="m 45.39,38.32 c -0.02,0 -0.02,0.05 -0.05,0.04 -0.02,0.03 -0.01,0.07 -0.02,0.11 -0.02,0.02 0,0.06 0.01,0.08 0.01,0.03 0.04,0.06 0.05,0.02 0.02,-0.05 0.07,-0.08 0.08,-0.13 0.02,-0.04 -0.05,-0.03 -0.03,-0.07 -0.01,-0.01 -0.01,-0.03 -0.02,-0.04 -0.01,-0.01 -0.01,-0.01 -0.02,-0.01 z"
 id="p3481"
 style="fill:#f6e1b9;stroke:none" />
<path
 d="m 14.55,38.33 c 0,0 0,0.01 0,0.01 0,0.01 0,0.01 0,0.01 0,0 0,0 0,-0.01 0.02,0.01 0.03,0.01 0.06,0.01 l 0,-0.02 -0.05,0 c 0.01,0 0.01,0.02 -0.01,0.01 0,0 0,-0.01 0,-0.01 l 0,0 z"
 id="p3479"
 style="fill:#f6e1b9;stroke:none" />
<path
 d="m 18.33,39.14 c -0.01,0 -0.01,0 -0.01,0 0,0 0.01,0 0.02,0 0,0 -0.01,0 -0.01,0 z"
 id="p3477"
 style="fill:#f6e1b9;stroke:none" />
<path
 d="m 18.28,39.16 c -0.05,0 -0.1,0.01 -0.12,0.03 -0.06,0.03 -0.08,0.04 -0.09,0.05 l 0.01,0 c 0,0 0,0 0,0 0.02,-0.02 0.11,-0.06 0.2,-0.08 z"
 id="p3475"
 style="fill:#f6e1b9;stroke:none" />
<path
 d="m 22.57,39.31 c 0,0 0,0 0,0.01 l 0.01,0 -0.01,-0.01 z"
 id="p3473"
 style="fill:#f6e1b9;stroke:none" />
<path
 d="m 18.66,39.36 c 0,0 0,0.01 0.01,0.02 0,0 0,0 0,0 0,0 0,-0.01 -0.01,-0.02 z"
 id="p3471"
 style="fill:#f6e1b9;stroke:none" />
<path
 d="m 21.58,40.07 c 0,0.01 0.01,0.02 0.06,0.06 0,0 0.02,0.01 0.02,0.01 -0.04,-0.02 -0.07,-0.05 -0.08,-0.06 0,0 0,0 0,-0.01 z"
 id="p3467"
 style="fill:#f6e1b9;stroke:none" />
<path
 d="m 22.04,40.16 c 0,0 0,0 0,0 l -0.02,0.02 c 0.01,-0.01 0.02,-0.01 0.03,-0.02 l -0.01,0 z"
 id="p3465"
 style="fill:#f6e1b9;stroke:none" />
<path
 d="m 104.67281,31.836271 c -0.01,0 -0.02,0 -0.02,-0.01 0.01,0.01 0.01,0.01 0.02,0.01 z"
 id="p3531-2"
 style="fill:#f6e1b9;stroke:none" />
<path
 d="m 83.84281,1.1062712 c -0.02,0 -0.04,0.02 -0.04,0.04 0.01,0.04 0.05,0.01 0.06,-0.02 0,-0.02 -0.01,-0.02 -0.02,-0.02 z"
 id="p3529-6"
 style="fill:#f6e1b9;stroke:none" />
<path
 d="m 65.78281,1.1562712 c 0,0 0,0 -0.01,0 -0.04,0 -0.04,0.04 -0.01,0.07 0.03,0.03 0.04,-0.03 0.03,-0.06 0.01,-0.01 0,-0.01 -0.01,-0.01 z"
 id="p3527-7"
 style="fill:#f6e1b9;stroke:none" />
<path
 d="m 83.10281,1.4962712 c -0.05,0 -0.11,0.03 -0.15,0.05 -0.02,0.02 -0.08,0.04 -0.05,0.07 0.05,0.03 0.1,-0.02 0.15,-0.02 0.03,-0.02 0.06,-0.01 0.09,-0.03 0.02,0 0.03,0 0.05,-0.01 0.01,-0.03 -0.04,-0.05 -0.07,-0.05 0,0 -0.01,-0.01 -0.02,-0.01 z"
 id="p3523-9"
 style="fill:#f6e1b9;stroke:none" />
<path
 d="m 65.85281,1.7462712 c -0.04,0.01 -0.03,0.08 0.01,0.07 0.04,0.01 0.05,-0.07 0.01,-0.06 -0.01,0 -0.01,-0.01 -0.02,-0.01 z"
 id="p3517-9"
 style="fill:#f6e1b9;stroke:none" />
<path
 d="m 67.59281,4.1462712 c -0.03,0.02 0,0.06 -0.02,0.09 -0.01,0.04 0.01,0.08 0.05,0.06 0.05,0 0,-0.04 -0.01,-0.06 -0.02,-0.03 0.03,-0.06 0,-0.09 -0.01,0 -0.01,0 -0.02,0 z"
 id="p3515-4"
 style="fill:#f6e1b9;stroke:none" />
<path
 d="m 87.45281,5.2562712 c -0.01,0 -0.02,0.01 -0.02,0.01 0.01,0 0.02,0 0.02,0 0,0 0,-0.01 0,-0.01 z"
 id="p3513-4"
 style="fill:#f6e1b9;stroke:none" />
<path
 d="m 87.37281,5.2962712 c -0.02,0 -0.04,0.01 -0.04,0.01 0,0 0.01,0 0.01,0 0,0 0.02,-0.01 0.03,-0.01 z"
 id="p3511-1"
 style="fill:#f6e1b9;stroke:none" />
<path
 d="m 90.78281,7.2562712 c -0.01,0.01 0,0.01 0.01,0.01 0,0 0,0 0.01,0 -0.01,0 -0.02,-0.01 -0.02,-0.01 z"
 id="p3505-9"
 style="fill:#f6e1b9;stroke:none" />
<path
 d="m 92.49281,9.2762712 c 0,0.03 0,0.05 -0.01,0.07 0,0 0.01,-0.03 0.01,-0.07 l 0,0 z"
 id="p3503-1"
 style="fill:#f6e1b9;stroke:none" />
<path
 d="m 99.03281,12.706271 c 0,0 0,0 0,0 0,0 0,0 0,0 0,0 0,0 0,0 z"
 id="p3491-5"
 style="fill:#f6e1b9;stroke:none" />
<path
 d="m 97.09281,24.936271 c -0.02,0.02 -0.03,0.03 -0.05,0.04 0.02,0 0.03,0 0.05,-0.01 l 0,-0.03 z"
 id="p3489-0"
 style="fill:#f6e1b9;stroke:none" />
<path
 d="m 107.59281,35.546271 c -0.03,0 -0.04,0.03 -0.02,0.05 0.02,0.03 0.05,-0.01 0.04,-0.04 l 0,-0.01 c -0.01,0 -0.02,-0.01 -0.02,0 z"
 id="p3485-5"
 style="fill:#f6e1b9;stroke:none" />
<path
 d="m 107.38281,36.896271 c -0.02,0 -0.02,0.05 -0.05,0.04 -0.02,0.03 -0.01,0.07 -0.02,0.11 -0.02,0.02 0,0.06 0.01,0.08 0.01,0.03 0.04,0.06 0.05,0.02 0.02,-0.05 0.07,-0.08 0.08,-0.13 0.02,-0.04 -0.05,-0.03 -0.03,-0.07 -0.01,-0.01 -0.01,-0.03 -0.02,-0.04 -0.01,-0.01 -0.01,-0.01 -0.02,-0.01 z"
 id="p3481-3"
 style="fill:#f6e1b9;stroke:none" />
<path
 d="m 76.54281,36.906271 c 0,0 0,0.01 0,0.01 0,0.01 0,0.01 0,0.01 0,0 0,0 0,-0.01 0.02,0.01 0.03,0.01 0.06,0.01 l 0,-0.02 -0.05,0 c 0.01,0 0.01,0.02 -0.01,0.01 0,0 0,-0.01 0,-0.01 l 0,0 z"
 id="p3479-3"
 style="fill:#f6e1b9;stroke:none" />
<path
 d="m 80.32281,37.716271 c -0.01,0 -0.01,0 -0.01,0 0,0 0.01,0 0.02,0 0,0 -0.01,0 -0.01,0 z"
 id="p3477-9"
 style="fill:#f6e1b9;stroke:none" />
<path
 d="m 80.27281,37.736271 c -0.05,0 -0.1,0.01 -0.12,0.03 -0.06,0.03 -0.08,0.04 -0.09,0.05 l 0.01,0 c 0,0 0,0 0,0 0.02,-0.02 0.11,-0.06 0.2,-0.08 z"
 id="p3475-7"
 style="fill:#f6e1b9;stroke:none" />
<path
 d="m 84.56281,37.886271 c 0,0 0,0 0,0.01 l 0.01,0 -0.01,-0.01 z"
 id="p3473-3"
 style="fill:#f6e1b9;stroke:none" />
<path
 d="m 80.65281,37.936271 c 0,0 0,0.01 0.01,0.02 0,0 0,0 0,0 0,0 0,-0.01 -0.01,-0.02 z"
 id="p3471-3"
 style="fill:#f6e1b9;stroke:none" />
<path
 d="m 83.57281,38.646271 c 0,0.01 0.01,0.02 0.06,0.06 0,0 0.02,0.01 0.02,0.01 -0.04,-0.02 -0.07,-0.05 -0.08,-0.06 0,0 0,0 0,-0.01 z"
 id="p3467-0"
 style="fill:#f6e1b9;stroke:none" />
<path
 d="m 84.03281,38.736271 c 0,0 0,0 0,0 l -0.02,0.02 c 0.01,-0.01 0.02,-0.01 0.03,-0.02 l -0.01,0 z"
 id="p3465-3"
 style="fill:#f6e1b9;stroke:none" />
<path
 d="m 16.35006,3.1166909 c -0.177997,0.4590467 -0.309154,0.9555667 -0.337259,1.461455 0,0.1592611 0.04684,0.3841003 -0.0281,0.5433614 -0.07495,0.1498928 -0.215471,-0.05621 -0.281049,-0.1217879 -0.11242,0.3559954 -0.09368,0.7494641 -0.131157,1.1148278 -0.0094,0.093683 -0.04684,0.5808347 -0.196734,0.2904173 -0.01874,-0.037473 -0.159261,-0.4028369 -0.206103,-0.2342075 -0.03747,0.1592611 -0.02811,0.3372589 -0.03747,0.49652 -0.0094,0.3934686 0.01874,0.8618837 -0.09368,1.2553523 -0.05621,0.1967343 -0.131156,-0.1311562 -0.159261,-0.1967343 -0.06558,-0.1779977 -0.206103,-0.281049 -0.262312,-0.018737 -0.06558,0.3372588 6.91e-4,0.7119909 0.03747,1.058618 0.01874,0.1592611 0.131156,0.6370445 0,0.7869373 -0.08432,0.093683 -0.337259,-0.4590468 -0.459047,-0.4403102 -0.131156,0.00937 -0.03747,0.9649349 0,1.4801919 -0.177998,0.07495 -0.346627,0.177998 -0.49652,0.32789 -0.543361,0.533994 -0.871252,1.189775 -0.768201,1.976712 0.09368,0.72136 0.543362,1.302194 1.124197,1.7144 0.03747,0.05621 0.08431,0.112419 0.112419,0.177997 0.04684,0.08432 0.09368,0.177998 0.131156,0.271681 -0.234207,0.140525 -0.449678,0.318522 -0.627676,0.55273 -0.449678,0.571466 -0.740096,1.358404 -0.393468,2.061026 0.0094,0.05621 0.0281,0.103051 0.04684,0.159261 -0.04684,0.04684 -0.11242,0.09368 -0.159261,0.140525 -0.618308,0.580834 -0.88062,1.349035 -1.227247,2.089131 -0.121788,-0.290417 -0.290418,-0.702623 -0.627677,-0.702623 0.03747,0.177998 0.121788,0.402837 0.07495,0.590203 -0.103052,0.290418 -0.618308,-0.49652 -0.66515,-0.562098 -0.234207,-0.365364 -0.524624,-0.674517 -0.7213578,-1.067986 -0.09368,-0.187366 -0.2623129,-0.562098 -0.5339936,-0.505888 0.037473,0.07495 0.2997856,0.730727 0.2529441,0.749464 -0.2435758,0.131156 -0.4403102,-0.421574 -0.49652,-0.55273 -0.1592701,-0.402837 -0.374741,-0.777569 -0.562107,-1.152301 -0.1686295,-0.327891 -0.4403102,-0.599571 -0.6089396,-0.927462 -0.093683,0.187366 -0.1124196,0.412205 -0.065578,0.618308 0.028105,0.121788 0.1030513,0.262312 0.074946,0.402837 -0.065578,0.299786 -0.4028366,-0.131156 -0.4684147,-0.215471 -0.2248393,-0.299786 -0.4496785,-0.60894 -0.6464128,-0.93683 -0.1686294,-0.290417 -0.3653638,-0.646413 -0.683886,-0.805674 0,0.140525 -0.018737,0.281049 0.00937,0.421574 0.028105,0.131156 0.093683,0.27168 0.074946,0.421573 C 5.9231418,15.407902 5.5296731,14.892646 5.2017826,14.368021 4.8364189,13.787186 4.9769434,14.583492 4.7521041,14.70528 4.6677894,14.546019 4.5178966,14.414862 4.4710551,14.227496 4.4242136,14.04013 4.3773721,13.843396 4.2836891,13.674767 4.1993744,13.506137 4.0775865,13.365613 3.9464303,13.234456 3.815274,13.112669 3.7496959,12.953407 3.627908,12.82225 c -0.074946,0.496521 -0.2061026,1.030514 -0.046842,1.527034 0.018737,0.07495 0.2529441,0.974304 0.046842,0.871252 -0.2061026,-0.112419 -0.2997856,-0.140524 -0.2904173,0.177998 0,0.49652 0.1686294,1.067986 0.2904173,1.555138 -0.2154709,0.04684 -0.3372588,-0.243576 -0.468415,-0.374732 0,0.355995 0.1405245,0.693254 0.187366,1.039881 0.046842,0.374732 0.1030513,0.749464 0.1779977,1.114828 -0.2529441,0.03747 -0.3559954,-0.299786 -0.468415,-0.468415 -0.2248393,0.121788 -0.05621,0.459047 0.00937,0.637045 0.1311562,0.299785 0.1405245,0.627676 0.2529441,0.93683 0.074946,0.206102 0.2154709,0.393468 0.2435758,0.627676 0.028105,0.252944 -0.1217879,0.271681 -0.2623124,0.09368 -0.05621,-0.07495 -0.281049,-0.459047 -0.4122053,-0.309154 -0.1498928,0.187366 0.1311563,0.608939 0.215471,0.777569 0.1405245,0.271681 0.1779977,0.599571 0.2997856,0.889988 0.1124196,0.290418 0.1967343,0.60894 0.1967343,0.927462 -0.1592611,-0.159261 -0.281049,-0.421573 -0.468415,-0.55273 -0.1217879,-0.08431 0.028105,0.384101 0.046841,0.421574 0.1498928,0.430942 0.3653637,0.796306 0.5902029,1.208511 0.093683,0.177998 0.2435759,0.44031 0.2623125,0.655781 0.00937,0.140524 -0.4122053,-0.271681 -0.4590468,-0.299786 -0.3185222,-0.177997 0.037473,0.299786 0.074946,0.355996 0.2435759,0.374732 0.4590468,0.777569 0.7494641,1.124196 0.1217879,0.149893 0.3278905,0.355995 0.3559954,0.562098 0.028105,0.281049 -0.5339931,-0.11242 -0.5902029,-0.187366 0.3466271,0.702622 1.1241961,1.058618 1.4895598,1.76124 -0.028105,0 -0.05621,0 -0.093683,0.0094 -0.1592611,-0.0094 -0.3934686,-0.06558 -0.4590467,-0.177998 -0.00937,0.103051 0.018737,0.196734 0.074946,0.281049 -1.1148278,0.3841 -1.9486066,1.37714 -1.555138,2.660598 0.3466272,1.152301 1.4708233,1.620716 2.6231243,1.695662 -0.2154709,0.290417 -0.3934686,0.60894 -0.4777833,0.918094 -0.2248393,0.740095 -0.084315,1.592611 0.468415,2.154709 0.4309419,0.646413 1.2928255,0.82441 2.0141847,0.721359 0.777569,-0.103051 1.5832428,-0.749464 2.0703952,-1.349035 0.159261,-0.196735 0.309154,-0.430942 0.44031,-0.683886 0.196734,0.234207 0.393468,0.477783 0.646412,0.674517 0.290418,0.22484 0.637045,0.271681 0.99304,0.318523 0.730728,0.103051 1.527033,0.206102 2.201551,-0.16863 0.599571,-0.337259 0.889989,-1.021145 0.843147,-1.695662 -0.04684,-0.786938 -0.459047,-1.470824 -1.039881,-1.967344 0.215471,-0.08431 0.421573,-0.187366 0.627676,-0.299785 0.337259,-0.177998 0.618308,-0.430942 0.889988,-0.702623 0.215471,0.02811 0.440311,0.06558 0.66515,0.103052 0.505888,0.08431 0.99304,0.103051 1.508296,0.08431 0.384101,-0.0094 0.786938,-0.0094 1.180406,-0.01874 0.01874,0.05621 0.04684,0.121788 0.08432,0.187366 0.468415,0.93683 0.983672,1.854923 1.611348,2.69807 0.599571,0.805674 1.367772,1.442719 2.004816,2.229656 0.309154,0.3841 0.49652,0.805674 0.843147,1.161669 0.299786,0.299786 0.487152,0.66515 0.833779,0.93683 0.618308,0.49652 1.349035,0.964935 2.154709,0.964935 0.908725,0 1.770609,-0.131156 2.491968,-0.740095 0.07495,-0.06558 0.149893,-0.131157 0.22484,-0.206103 0.430941,0.571466 0.899356,1.10546 1.470823,1.583243 0.402837,0.32789 0.815042,0.655781 1.199142,1.011776 0.16863,0.159262 0.374732,0.318523 0.515257,0.515257 0.03747,0.05621 0.0281,0.159261 0.112419,0.196734 0.09368,0.04684 0.177998,0.11242 0.243576,0.187366 0.637045,0.693255 1.227248,1.405245 2.164078,1.714399 0.459047,0.149893 0.93683,0.402837 1.43335,0.355996 0.44031,-0.03747 0.899357,-0.16863 1.32093,-0.309154 0.852516,-0.281049 1.667558,-1.011777 1.742504,-1.957975 0.01874,-0.281049 -9.3e-5,-0.562098 0.06558,-0.843147 0.04684,-0.224839 0.121788,-0.449679 0.187366,-0.683886 0.11242,-0.449679 0.290418,-0.871252 0.393469,-1.330299 0.196734,-0.889988 0.711991,-1.667557 1.086723,-2.491968 0.871252,-1.901765 0.562098,-4.065843 -0.852515,-5.611612 -0.131157,-0.149893 -0.281049,-0.281049 -0.430942,-0.412205 -0.05621,-0.22484 -0.281049,-0.421574 -0.505888,-0.590203 0.0094,-0.0094 0.0281,-0.01874 0.04684,-0.02811 0.04684,-0.03747 0.412205,-0.309154 0.281049,-0.393469 -0.131156,-0.08432 -0.393469,0.06558 -0.515257,0.121788 -0.04684,0.01874 -0.103051,0.03747 -0.149892,0.06558 -0.0094,0 -0.01874,-0.0094 -0.0281,-0.01874 -0.08432,-0.05621 -0.16863,-0.112419 -0.262313,-0.168629 0.04684,-0.05621 0.09368,-0.11242 0.11242,-0.121788 0.459047,-0.505888 1.021145,-0.918093 1.452087,-1.461455 0.177997,-0.224839 0.402837,-0.393468 0.608939,-0.599571 0.271681,-0.271681 0.0094,-0.299786 -0.234207,-0.140525 -0.177998,0.103052 -0.786938,0.477784 -0.533994,-0.0281 0.215471,-0.440311 0.543362,-0.796306 0.824411,-1.199143 0.281049,-0.412205 0.674518,-0.777569 0.908725,-1.217879 0.06558,-0.131156 0.16863,-0.327891 0.159261,-0.487152 0,-0.168629 -0.346627,0.04684 -0.402837,0.06558 -0.243575,0.11242 -0.702622,0.337259 -0.543361,-0.112419 0.07495,-0.22484 0.196734,-0.44031 0.337259,-0.637045 0.309154,-0.468415 0.646412,-0.918093 0.964935,-1.386508 0.121788,-0.187366 0.515256,-0.627676 0.421573,-0.908726 -0.05621,-0.177997 -0.665149,0.477784 -0.7682,0.524625 -0.290418,0.121788 -0.16863,-0.252944 -0.11242,-0.3841 0.309154,-0.777569 0.786937,-1.48956 1.171038,-2.229656 0.0094,-0.02811 0.421573,-0.815042 0.177997,-0.796305 -0.149892,0 -0.290417,0.252944 -0.3841,0.346627 -0.131156,0.131156 -0.327891,0.196734 -0.449678,0.355995 -0.04684,-0.608939 0.346627,-1.142932 0.562098,-1.686294 0.206102,-0.515256 0.562098,-1.021145 0.562098,-1.601979 -0.177998,0.177997 -0.402837,0.515256 -0.646413,0.618308 -0.149893,0.06558 -0.08431,-0.309154 -0.07495,-0.355996 0.08432,-0.477783 0.355996,-0.918093 0.505889,-1.37714 0.05621,-0.187366 0.365363,-0.618308 0.318522,-0.833779 -0.01874,-0.103052 -0.618308,0.262313 -0.665149,0.346627 0,-0.281049 0.159261,-0.524626 0.309154,-0.749465 0.121787,-0.187366 0.187366,-0.430941 0.365363,-0.590203 0.159261,-0.131155 0.281049,-0.374731 0.44031,-0.533992 0.196735,-0.196735 0.449679,-0.355996 0.646413,-0.55273 -0.599571,0 -1.208511,0.140524 -1.76124,0.3841 -0.290418,0.121788 -0.580835,0.281049 -0.843147,0.468415 -0.187367,0.131156 -0.384101,0.318522 -0.627677,0.355995 -0.365363,0.05621 -0.177997,-0.365363 -0.430942,-0.430941 -0.177997,-0.04684 -0.44031,0.140524 -0.590202,0.224839 -0.262313,0.131156 -0.515257,0.281049 -0.768201,0.430942 -0.262313,0.149892 -0.571467,0.374731 -0.88062,0.421573 -0.327891,0.04684 -0.03747,-0.412205 0.0094,-0.533993 0.177998,-0.402837 -0.281049,-0.177998 -0.477783,-0.06558 -0.299786,0.168629 -0.571467,0.3841 -0.871252,0.552729 -0.215471,0.121788 -0.468416,0.187366 -0.674518,0.33726 -0.131156,0.103052 -0.271681,0.196735 -0.412205,0.290418 -0.121788,0.07495 -0.55273,0.309153 -0.477784,-0.01874 0.04684,-0.224839 0.206103,-0.421575 0.262313,-0.655782 0.06558,-0.262312 -0.562098,0.140524 -0.627676,0.187366 -0.374733,0.309155 -0.796306,0.562099 -1.208511,0.83378 -0.281049,0.187366 -0.524625,0.421573 -0.796306,0.627676 -0.06558,0.04684 -0.590203,0.337259 -0.505888,0.06558 0.05621,-0.206103 0.131156,-0.412205 0.168629,-0.627676 0.01874,-0.09368 0.08431,-0.449679 -0.112419,-0.309154 -0.430942,0.299785 -0.880621,0.590203 -1.311562,0.899357 -0.440311,0.309154 -0.861884,0.674517 -1.311563,0.983671 -0.05621,0.03747 -0.3841,0.252944 -0.430941,0.11242 -0.02811,-0.09368 0.04684,-0.224839 0.09368,-0.299786 0.06558,-0.140524 0.281049,-0.430942 0.252944,-0.599571 -0.02811,-0.187366 -0.674518,0.449679 -0.72136,0.487152 -0.365363,0.393468 -0.702622,0.815042 -1.086722,1.208511 -0.149893,0.149892 -0.290418,0.309153 -0.412206,0.496519 -0.09368,0.140525 -0.309154,0.08432 -0.402837,0.22484 0,-0.318523 -0.04684,-0.580835 0.04684,-0.889989 0.03747,-0.121788 -0.08432,-0.187366 -0.177998,-0.112419 -0.08432,0.06558 -0.168629,0.177997 -0.234207,0.27168 -0.318523,0.459047 -0.599572,0.955567 -0.871252,1.452087 -0.140525,0.271681 -0.327891,0.543361 -0.515257,0.796305 -0.08432,0.11242 -0.271681,0.215471 -0.281049,0 0,-0.08431 0.04684,-0.796305 -0.11242,-0.758832 -0.177997,0.355996 -0.290417,0.740096 -0.449678,1.114828 -0.03747,0.08432 -0.07495,0.177998 -0.11242,0.262312 0,-0.03747 0,-0.08431 0,-0.121788 0.0094,-0.459046 -0.112419,-0.908725 -0.187366,-1.358403 -0.683886,0.187366 -1.37714,0.374732 -2.070394,0.562098 0.131156,0.393468 0.337259,0.88062 0.03747,1.255352 -0.140524,0.177998 -0.346627,0.290418 -0.562098,0.374732 -0.09368,0.03747 -0.309154,0.234208 -0.402837,0.234208 0.06558,-0.103052 0.131156,-0.224839 0.187366,-0.365364 0.252944,-0.674518 0.196734,-1.470823 -0.06558,-2.201551 0.0094,-0.0094 0.0094,-0.02811 0.01874,-0.04684 0.861883,0.06558 1.808082,-0.159261 2.42639,-0.580835 0.618307,-0.421573 1.152301,-1.171038 1.067986,-1.957975 -0.04684,-0.468415 -0.318522,-0.861884 -0.674518,-1.161669 0,-0.0094 0.0094,-0.0094 0.01874,-0.01874 0.365363,-0.3841 0.815042,-0.693254 1.26472,-0.983672 0.374732,-0.234208 0.740096,-0.49652 1.133565,-0.702623 0.07495,0.03747 0.149893,0.06558 0.224839,0.09368 0.224839,0.05621 0.721359,0.177998 0.908725,-0.0094 0.09368,-0.09368 0.337259,-0.07495 0.459047,-0.09368 0.121788,-0.0094 0.281049,-0.131156 0.3841,-0.11242 0.16863,0.01874 0.355996,-0.187365 0.487152,-0.27168 0.149893,-0.103051 0.318522,-0.215471 0.412205,-0.3841 0.252944,-0.421574 -0.08431,-0.627676 -0.318522,-0.93683 -0.09368,0.01874 -0.149893,-0.09368 -0.243576,-0.09368 -0.02811,-5.66e-4 -0.05621,0 -0.09368,0 0.262313,-0.4028373 0.449679,-0.8712523 0.505888,-1.358404 0.04684,-0.4028369 0.01874,-1.0211448 -0.337258,-1.3021938 -0.299786,-0.3185223 -0.964935,-0.05621 -1.498929,0.2154709 -0.01874,-0.1311562 -0.04684,-0.2435758 -0.09368,-0.3466271 -0.05621,-0.1405246 -0.196734,-0.2342076 -0.32789,-0.2904174 -0.03747,-0.00937 -0.08432,-0.018737 -0.121788,-0.00937 -0.131156,0.00937 -0.262312,0.093683 -0.3841,0.093683 -0.159262,0.1498928 -0.337259,0.2623125 -0.505889,0.4122053 -0.131156,0.1124196 -0.215471,0.2716807 -0.32789,0.4028369 -0.224839,0.2716807 -0.430942,0.6932543 -0.524625,1.0398814 -0.05621,0.2342076 -0.06558,0.5339932 0,0.7963056 -0.177998,0.046841 -0.365364,0.1030513 -0.543361,0.2154712 -0.49652,0.299786 -0.880621,0.768201 -1.255353,1.199142 -0.44031,0.49652 -0.805674,1.002409 -1.096091,1.60198 -0.02811,0.06558 -0.06558,0.121789 -0.09368,0.187367 -0.131156,0.0094 -0.271681,0.02811 -0.412205,0.04684 0.196734,-0.271681 0.346627,-0.571467 0.402837,-0.927462 0.196734,-1.264721 -0.674518,-2.6137565 -1.901765,-2.9791203 -0.243576,-0.065578 -0.477784,-0.1217879 -0.72136,-0.1217879 -0.0281,1.387e-4 -0.05621,0 -0.08431,0 -0.03747,-0.1686294 -0.09368,-0.3934686 -0.252944,-0.468415 -0.159262,-0.074946 -0.08432,0.4496784 -0.08432,0.5339931 0,3.729e-4 0,-3.766e-4 0,0 C 19.919383,8.7564081 19.928751,8.2973614 19.732017,7.913261 19.544651,7.5291607 19.460336,7.0888505 19.263602,6.6953819 c -0.196734,0.1124196 -0.103051,0.4309418 -0.121788,0.6089395 -0.02811,0.2997857 -0.206103,0.1967344 -0.290417,0 -0.243576,-0.5995712 -0.412206,-1.245984 -0.702623,-1.836187 -0.159261,0.093683 -0.103051,0.3372589 -0.09368,0.49652 0,0.046842 -0.0094,0.3278905 -0.11242,0.2061026 C 17.699096,5.9178129 17.633518,5.5618175 17.539835,5.2432952 17.483625,5.0652975 17.389942,4.6062508 17.193207,4.5313043 17.005841,4.4657262 17.099524,5.0465609 16.912158,4.9997194 17.01521,4.5968825 16.874685,4.2596236 16.696687,3.9036282 16.565531,3.6506841 16.603004,3.2946886 16.35006,3.1166909 z m 0.327891,1.4052451 c 0,0 0.0094,-9.002e-4 0.0094,0 0.01874,0 0.03747,0.037473 0.05621,0.121788 0.04684,0.2529441 0.03747,0.5246248 0.09368,0.7775689 0.05621,0.2529442 0.224839,0.4590468 0.337259,0.6932543 -0.01874,-0.1779977 0.112419,-0.3185222 0.187366,-0.468415 0.290417,0.4309418 0.271681,1.0211448 0.655781,1.4052451 0,-0.1498928 -0.04684,-0.3091539 0,-0.4590467 0.05621,-0.2435759 0.252944,0.065578 0.290417,0.1498928 0.215471,0.4965199 0.318522,1.0398814 0.562098,1.527033 0.140525,-0.093683 0.206103,-0.3091539 0.177998,-0.4777833 -0.0094,-0.093683 -0.03747,-0.3185222 0.121788,-0.2529441 0.243576,0.093683 0.243576,0.6651493 0.309154,0.8806203 0.05621,0.2061026 0.149893,0.4122052 0.168629,0.6276761 0,0.05621 0,0.1124196 0.0094,0.1779978 -0.206103,0.05621 -0.421574,0.1217879 -0.618308,0.2342075 -0.281109,0.2342075 -0.590263,0.4965199 -0.843207,0.8056743 -0.02811,-0.131157 -0.06558,-0.262313 -0.09368,-0.3934691 C 17.942671,9.2904013 17.699096,8.7470398 17.502361,8.1755734 17.333732,7.6603169 16.987105,7.2200067 16.818475,6.6953819 c -0.01874,0.2529441 0.131157,0.5058882 0.22484,0.7307275 0.112419,0.2904173 0.215471,0.5808346 0.299785,0.8899886 0.159261,0.5808346 0.309154,1.1804059 0.430942,1.779977 0.0094,0.06558 0.01874,0.140525 0.02811,0.215471 C 17.708464,10.021129 17.567939,9.7307114 17.361837,9.4777673 17.165102,9.2341915 16.912158,9.0468254 16.612373,8.9531424 16.46248,8.9156692 16.312587,8.8688277 16.153326,8.8688277 c -0.131156,0 -0.252944,0.074946 -0.393469,0.093683 0.290418,0 0.590203,-0.00937 0.852516,0.1405245 0.309154,0.1873661 0.562098,0.5152566 0.758832,0.8244105 0.177998,0.2904173 0.318522,0.6089393 0.430942,0.9368303 -0.03747,0.08432 -0.08432,0.177998 -0.11242,0.262312 -0.04684,0.121788 -0.08431,0.262313 -0.131156,0.412206 -0.487152,-0.449679 -1.030513,-0.833779 -1.695662,-1.002409 -0.337259,-0.08431 -0.711991,-0.131156 -1.077355,-0.09368 -0.01874,-0.09368 -0.03747,-0.196734 -0.02811,-0.281049 0,-0.05621 -0.0094,-0.5620978 0.103051,-0.505888 0.121788,0.046842 0.187366,0.2342075 0.281049,0.3278905 0.187366,-0.562098 -0.149892,-1.1429327 0,-1.7050307 0.04684,-0.1873661 0.243576,0.4122052 0.384101,0.2529441 0.168629,-0.1967343 0.08432,-0.6651494 0.07495,-0.9087252 0,-0.1030513 -0.04684,-0.4590468 0.03747,-0.5339932 0.05621,-0.046842 0.215471,0.2248392 0.234208,0.2623125 0.07495,-0.2248393 0.08432,-0.4684151 0.08432,-0.7026226 6.28e-4,-0.1217879 -0.04684,-0.4871517 0.08431,-0.5808347 0.11242,-0.065578 0.271681,0.3091539 0.290418,0.046842 0.01874,-0.2529441 -0.0094,-0.5152565 0.01874,-0.7682007 0.02811,-0.2154709 0.09368,-0.4496784 0.187366,-0.6464127 0.03747,-0.074946 0.07495,-0.1498928 0.11242,-0.1686295 z m 11.148278,3.0915394 c 0.01874,4.3e-4 0.04684,0 0.06558,0.00937 0.187366,0.05621 0.16863,0.3559954 0.121788,0.5995712 -0.04684,-0.1217879 -0.11242,-0.2248392 -0.206103,-0.2716807 -0.196734,-0.093683 -0.533993,0.1686294 -0.627676,0.3372589 -0.187366,0.3841003 -0.459046,0.8056738 -0.580834,1.245984 0,-0.05621 0,-0.1217879 0,-0.1686294 0.03747,-0.2810491 0.196734,-0.5339932 0.299785,-0.7963056 0.187366,-0.187366 0.571467,-0.964935 0.918094,-0.964935 z m 1.723767,0.2435758 c 0.131157,0 0.262313,0.028105 0.337259,0.1311562 0.281049,0.3559955 0.02811,1.1616693 -0.149893,1.5270331 -0.112419,0.2154709 -0.262312,0.468415 -0.459046,0.6838865 -0.07495,-0.04684 -0.177998,-0.02811 -0.262313,-0.01874 -0.159261,0.0094 -0.281049,-0.07495 -0.44031,-0.09368 -0.196734,-0.0094 -0.430942,0.07495 -0.627676,0.112419 -0.06558,0.0094 -0.149893,0.02811 -0.224839,0.04684 0.290417,-0.4871516 0.505888,-1.0679863 0.412205,-1.620716 0,-0.028105 -0.0094,-0.065578 -0.01874,-0.1030513 0.234208,-0.1967343 0.49652,-0.3841004 0.786938,-0.5058883 0.149892,-0.05621 0.421573,-0.1498928 0.655781,-0.1498928 z m -1.883028,0.2716807 c 0.01874,0 0.03747,0 0.06558,0.00937 0.421574,0.1873661 0.131156,1.2459841 0.02811,1.5738746 -0.05621,0.1967343 -0.234208,0.3278905 -0.318522,0.5152565 -0.06558,0.149893 -0.215471,0.49652 -0.449679,0.393469 -0.49652,-0.206103 -0.149893,-0.955567 -0.08431,-1.3021941 0.08431,-0.2529442 0.131156,-0.5339932 0.309153,-0.7494641 0.07495,-0.093683 0.28105,-0.4215736 0.449679,-0.4403102 z m -7.756953,1.0117765 c 0.02811,0 0.05621,0.00937 0.08431,0.018737 -0.04684,0.00937 -0.09368,0.028105 -0.140524,0.037473 0,-0.028105 -0.0094,-0.046841 -0.01874,-0.065578 0.01874,0 0.04684,0 0.06558,0 z m 0.402837,0.6089396 c 0.374732,-7.073e-4 0.7682,0.074946 1.077354,0.262312 0.833779,0.505889 1.461455,1.817451 0.908725,2.726176 -0.149892,0.252945 -0.44031,0.384101 -0.627676,0.618308 -0.168629,0.215471 -0.402837,0.374732 -0.637044,0.515257 -0.140525,0.08432 -0.281049,0.177998 -0.421574,0.271681 -0.103051,0.06558 -0.234207,0.04684 -0.337259,0.112419 -0.21547,0.131156 -0.430941,0.318522 -0.702622,0.318522 0.103051,-0.103051 0.281049,-0.140524 0.355995,-0.290417 0.04684,-0.09368 0.11242,-0.112419 0.22484,-0.168629 0.224839,-0.11242 0.421573,-0.16863 0.337258,-0.477784 -0.04684,-0.206102 -0.196734,-0.533993 -0.402837,-0.627676 -0.140524,-0.06558 -0.412205,0.524625 -0.524624,0.637045 0.103051,-0.206103 0.206102,-0.590203 0.131156,-0.824412 -0.05621,-0.168629 -0.271681,-0.03747 -0.337259,0.04684 -0.11242,0.16863 -0.03747,0.421574 -0.0094,0.618309 0.0094,0.121787 -0.103052,0.637044 -0.149893,0.309153 -0.0094,-0.103051 0.08432,-0.449678 -0.08432,-0.468415 -0.234207,-0.01874 -0.374732,0.187366 -0.224839,0.384101 0.168629,0.234207 0.112419,0.487151 0.112419,0.758832 -0.103051,-0.32789 -0.243575,-0.646413 -0.44031,-0.93683 -0.159261,-0.234207 -0.337258,-0.477783 -0.412205,-0.768202 -0.103051,-0.412205 -0.11242,-0.88062 0,-1.302193 0.0094,0 0.0094,-0.01874 0.0094,-0.04684 0.04684,-0.159261 0.121788,-0.318522 0.215471,-0.468415 0.299786,-0.459047 0.72136,-0.9555667 1.274089,-1.1148278 0.206103,-0.05621 0.430942,-0.084315 0.66515,-0.084315 z m 8.094212,0.515257 c 0.365363,0 0.93683,-0.01874 1.236615,0.243576 0.374732,0.346627 -0.374732,0.590202 -0.599571,0.646412 -0.562098,0.140525 -1.067986,0.177998 -1.630084,-0.02811 -0.346627,-0.131156 -0.224839,-0.421573 0.02811,-0.571466 0.299785,-0.159261 0.646412,-0.177998 0.964935,-0.290417 z m -1.957975,0.01874 c 0.04684,0.03747 0.09368,0.07495 0.159261,0.103051 0.02811,0.09368 0.05621,0.196734 0.11242,0.281049 -0.140525,0.187366 -0.309154,0.374732 -0.505889,0.515257 -0.112419,0.07495 -0.206102,0.177997 -0.290417,0.290417 -0.08432,0.121788 -0.243576,0.149893 -0.337259,0.271681 0.346627,0.02811 0.637045,-0.196735 0.927462,-0.355996 0.168629,-0.09368 0.374732,-0.177997 0.580835,-0.224839 0.01874,0.01874 0.04684,0.03747 0.06558,0.04684 -0.0094,0.07495 0,0.168629 0.01874,0.262312 0.0094,0.04684 0.03747,0.09368 0.06558,0.140525 -0.243575,0.149893 -0.505888,0.27168 -0.758832,0.430941 -0.60894,0.374732 -1.133564,0.861884 -1.648821,1.367773 -0.07495,-0.03747 -0.159261,-0.08432 -0.243576,-0.121788 -0.271681,-0.121788 -0.571466,-0.196734 -0.88062,-0.234207 0.215471,-0.309155 0.44031,-0.618309 0.655781,-0.927463 0.196734,-0.281049 0.318522,-0.618307 0.562098,-0.871252 0.224839,-0.243575 0.505888,-0.459046 0.786937,-0.646412 0.206103,-0.140525 0.449679,-0.234208 0.683886,-0.318523 z m 3.494376,0.393468 c 0.590203,0.140525 -0.08432,0.543362 -0.393469,0.674518 -0.309154,0.121788 -0.843147,0.281049 -1.292825,0.243576 0.03747,-0.04684 0.07495,-0.103051 0.09368,-0.159261 0.131156,-0.0094 0.271681,-0.03747 0.430942,-0.07495 0.309154,-0.08432 0.562098,-0.08432 0.843147,-0.271681 0.121788,-0.08432 0.112419,-0.131156 0.234207,-0.196734 0.06558,-0.02811 0.08432,-0.121788 0.08432,-0.196735 z m -14.848757,0.393469 c 0.515257,-0.01874 1.04925,0.224839 1.498928,0.459046 0.468415,0.243576 0.88062,0.599571 1.227248,1.002408 0.32789,0.402838 0.402837,0.955568 0.402837,1.461456 -0.149893,-0.11242 -0.22484,-0.393469 -0.421574,-0.449679 -0.04684,-0.0094 0,0.44031 0.196734,0.533994 0.03747,0 0.07495,0.0094 0.121788,0.0094 -0.04684,0.0094 -0.08431,0 -0.121788,-0.0094 -0.234207,-0.02811 -0.3841,-0.131157 -0.627676,-0.215471 -0.196734,-0.06558 -0.309154,0.09368 -0.103051,0.196734 0.177998,0.08432 0.946198,0.06558 0.861884,0.412205 -0.11242,-0.196734 -0.49652,-0.196734 -0.693255,-0.177998 -0.131156,0.0094 -0.524625,-0.206102 -0.262312,0.09368 0.196734,0.22484 0.355995,0.16863 0.637044,0.187366 0.149893,0 0.459047,0.04684 0.412206,0.271681 -0.290418,-0.140524 -0.599572,-0.262312 -0.918094,-0.159261 -0.271681,0.08432 -0.533993,0.168629 -0.82441,0.149893 -0.55273,-0.01874 -1.114828,-0.16863 -1.592612,-0.477783 -0.7682,-0.49652 -1.648821,-1.452088 -1.105459,-2.426391 0.252944,-0.44031 0.693254,-0.805674 1.217879,-0.871252 0.02811,0 0.06558,0 0.103051,0 z m 28.489003,1.433349 c -0.149892,0.149893 -0.243575,0.355995 -0.449678,0.459048 -0.177998,0.08431 -0.252944,0.374732 -0.487152,0.3841 -0.177997,0.159261 -0.224839,0.412205 -0.309154,0.627676 -0.04684,0.11242 -0.140524,0.206103 -0.224839,0.299786 -0.07495,0.07495 -0.0094,0.196734 -0.0094,0.290417 0.112419,-0.07495 0.346627,-0.262312 0.49652,-0.224839 0.103051,0.01874 -0.252944,0.927462 -0.290418,1.030513 -0.131156,0.318522 -0.430941,0.674518 -0.412205,1.039881 0.0094,0.346628 0.599571,-0.346627 0.683886,-0.430941 0,1.030513 -0.93683,1.789345 -0.93683,2.819858 0.121788,-0.121788 0.252944,-0.252944 0.3841,-0.3841 0.103052,-0.103051 0.262313,-0.140525 0.355996,-0.262313 0.03747,0.402837 -0.234208,0.833779 -0.44031,1.16167 -0.262313,0.421573 -0.459047,0.871252 -0.693255,1.32093 -0.02811,0.06558 -0.281049,0.580835 -0.09368,0.55273 0.355996,-0.04684 0.459047,-0.562098 0.852516,-0.505888 -0.140525,0.44031 -0.44031,0.805674 -0.721359,1.180406 -0.271681,0.365363 -0.468415,0.796305 -0.72136,1.189774 -0.206102,0.318522 -0.04684,0.44031 0.290418,0.252944 0.215471,-0.121788 0.655781,-0.281049 0.402837,0.121788 -0.421574,0.683886 -0.964935,1.264721 -1.423982,1.92987 -0.749464,1.096091 0.580835,0.234207 0.580835,0.224839 0,0.206103 -0.177998,0.355996 -0.309154,0.487152 -0.215471,0.206102 -0.412206,0.430942 -0.627677,0.637044 -0.224839,0.215471 -0.44031,0.44031 -0.674517,0.66515 -0.187366,0.187366 -0.44031,0.355995 -0.533993,0.627676 0.346627,0 0.637044,-0.290418 0.964935,-0.290418 0.177997,0 -0.22484,0.365364 -0.290418,0.430942 -0.06558,0.06558 -0.149892,0.121788 -0.234207,0.177998 -0.55273,-0.234207 -1.16167,-0.355995 -1.761241,-0.243576 -0.449678,0.07495 -0.889988,0.140525 -1.32093,0.318522 -0.09368,0.03747 -0.196735,0.09368 -0.299786,0.140525 -0.168629,-0.515257 -0.318522,-1.349035 0.309154,-1.564506 0.355996,-0.206103 0.533993,-0.243576 0.318522,-0.683886 -0.224839,-0.477784 -0.402837,-0.983672 -0.599571,-1.480192 -0.711991,0.355996 -1.442718,0.768201 -1.864292,1.480192 -0.252944,0.421573 -0.365364,0.899357 -0.374732,1.37714 -0.215471,-0.768201 -0.599571,-1.508296 -1.105459,-2.117236 -0.234208,-0.290417 -0.533994,-0.459047 -0.833779,-0.674518 0,-0.02811 0,-0.05621 0,-0.08431 0,-0.08432 -0.06558,-0.177998 -0.177998,-0.271681 l 0.01874,0 c 0.03747,-0.07495 0.09368,-0.149893 0.140524,-0.234208 0.0094,0 0.01874,-0.0094 0.02811,-0.01874 0.543362,-0.299786 1.142933,-0.618308 1.770609,-0.740096 0.665149,-0.131156 1.358404,-0.121788 2.014185,0.05621 0.262312,0.07495 0.459046,0.149893 0.655781,0.337259 0.05621,0.05621 0.243576,0.168629 0.271681,0.27168 -0.0281,-0.449678 -0.459047,-0.777569 -0.833779,-0.964935 -0.55273,-0.27168 -1.152301,-0.32789 -1.751873,-0.177997 -0.618307,0.149892 -1.227247,0.374732 -1.798713,0.655781 0.04684,-0.07495 0.103051,-0.159261 0.159261,-0.243576 0.01874,0.0094 0.05621,0 0.09368,-0.05621 l 0,0 c 0.03747,-0.07495 0.07495,-0.159261 0.121788,-0.243576 0.3841,-0.543361 0.815042,-1.067986 1.26472,-1.573874 0.06558,-0.06558 0.131157,-0.140525 0.196735,-0.215471 0.05621,-0.02811 0.121788,-0.06558 0.187366,-0.09368 0.580834,-0.262313 1.096091,-0.515257 1.742504,-0.599572 0.318522,-0.03747 0.618308,-0.121787 0.93683,-0.01874 0.234207,0.06558 0.477783,0.0094 0.711991,0.121788 0.196734,0.09368 0.421573,0.243576 0.580834,0.393468 0.05621,0.04684 0.243576,0.290418 0.337259,0.262313 -0.215471,-0.121788 -0.252944,-0.430942 -0.421573,-0.60894 -0.159262,-0.168629 -0.393469,-0.290417 -0.599572,-0.3841 -0.49652,-0.224839 -1.096091,-0.262313 -1.639452,-0.177998 -0.402837,0.05621 -0.777569,0.215471 -1.142933,0.402837 0.590203,-0.580835 1.227247,-1.142933 1.87366,-1.676926 0.149893,-0.112419 0.299786,-0.234207 0.44031,-0.355995 0.0094,0 0.0094,-0.0094 0.01874,-0.01874 0.04684,-0.0094 0.09368,-0.02811 0.140524,-0.03747 0.66515,-0.168629 1.442719,-0.206103 2.089131,0.05621 0.159262,0.06558 0.730728,0.309154 0.824411,0.55273 -0.05621,-0.430942 -0.515257,-0.711991 -0.871252,-0.899357 -0.468415,-0.243576 -0.983672,-0.271681 -1.498928,-0.196735 0.730727,-0.552729 1.517665,-1.039881 2.285865,-1.545769 0.393469,-0.252944 0.805674,-0.49652 1.245984,-0.674518 0.309154,-0.131156 0.702623,-0.215471 0.918094,-0.505888 -0.815042,0.318522 -1.630085,0.627676 -2.445127,0.974303 -0.571466,0.243576 -1.114828,0.533993 -1.648821,0.852515 0.318523,-0.7682 0.393469,-1.676925 -0.224839,-2.304602 -0.01874,0.243576 0.168629,0.449679 0.187366,0.693255 0.01874,0.346627 -0.0094,0.674517 -0.121788,1.002408 -0.121788,0.365364 -0.299785,0.711991 -0.524625,1.030513 -0.468415,0.299786 -0.93683,0.60894 -1.386508,0.946198 0.0281,-0.103051 0.06558,-0.206102 0.09368,-0.318522 0.149893,-0.599571 0.187366,-1.302194 -0.05621,-1.883028 -0.121788,-0.290418 -0.393469,-0.983672 -0.815042,-0.908726 0.815042,0.683886 0.693254,1.967344 0.337259,2.866701 -0.103052,0.281049 -0.243576,0.562098 -0.393469,0.833778 -0.262312,0.16863 -0.524625,0.346627 -0.786937,0.524625 -0.0094,0.06558 0.07495,0.05621 0.206102,0.01874 -0.32789,0.290417 -0.655781,0.599571 -0.964935,0.918093 -0.04684,0.04684 -0.09368,0.09368 -0.140524,0.140525 0.06558,-0.309154 0.112419,-0.618308 0.131156,-0.946199 0.0281,-0.590203 -0.07495,-1.311562 -0.402837,-1.826818 -0.131156,-0.224839 -0.374732,-0.355996 -0.571466,-0.524625 -0.16863,-0.149893 -0.355996,-0.365364 -0.60894,-0.327891 0.149893,0.177998 0.355996,0.281049 0.505888,0.459047 0.196735,0.224839 0.346628,0.543362 0.449679,0.833779 0.224839,0.674518 0.234207,1.405245 0.07495,2.098499 -0.06558,0.318523 -0.149893,0.646413 -0.243576,0.964935 -0.468415,0.55273 -0.908725,1.133565 -1.302193,1.751873 0.08431,-0.402837 0.121787,-0.824411 0.121787,-1.236616 0,-0.543362 -0.06558,-1.086723 -0.355995,-1.564506 -0.224839,-0.365364 -0.646413,-0.927462 -1.133564,-0.861884 0.168629,0.206103 0.421573,0.32789 0.618307,0.524625 0.187367,0.187366 0.28105,0.468415 0.355996,0.730727 0.168629,0.655781 0.177998,1.302194 0.04684,1.967343 -0.08431,0.430942 -0.206102,0.871252 -0.346627,1.302194 -0.03747,-0.0094 -0.08431,-0.03747 -0.112419,-0.04684 -0.983672,-0.44031 -2.032922,-0.365364 -3.044698,-0.05621 -0.0094,0 -0.02811,0.0094 -0.04684,0.0094 -0.09368,-0.309154 -0.131156,-0.637044 -0.09368,-0.964935 0.03747,-0.365363 0.262313,-0.552729 0.55273,-0.749464 0.187366,-0.02811 0.374732,-0.05621 0.562098,-0.09368 -0.196734,-0.608939 -0.402837,-1.227247 -0.608939,-1.836187 1.57e-4,-0.06558 -0.03747,-0.103051 -0.11242,-0.103051 -0.215471,0 -0.665149,0.224839 -0.749464,0.262312 -0.05621,0.01874 -0.11242,0.04684 -0.16863,0.08432 0.07495,-0.131156 0.149893,-0.355995 0.187367,-0.449678 0.103051,-0.290418 0.262312,-0.571467 0.337258,-0.871252 0.02811,-0.131157 0.03747,-0.281049 0.08432,-0.412206 0.05621,-0.168629 0.215471,-0.262312 0.299786,-0.421573 0.177997,-0.02811 0.07495,0.580834 0.112419,0.683886 0.11242,0.252944 0.618308,-0.693255 0.655781,-0.777569 0.131157,-0.243576 0.309154,-0.449679 0.449679,-0.693255 0.121788,-0.206102 0.243576,-0.477783 0.459047,-0.618307 0.252944,-0.149893 0.103051,0.552729 0.07495,0.646412 0.355995,0.0281 0.571466,-0.355995 0.768201,-0.580834 0.355995,-0.393469 0.702622,-0.815042 1.086723,-1.180406 0.0281,-0.02811 0.365363,-0.355996 0.355995,-0.149893 0,0.187366 -0.11242,0.3841 -0.177998,0.55273 -0.02811,0.07495 -0.131156,0.252944 0.01874,0.206102 0.234207,-0.06558 0.449678,-0.252944 0.646413,-0.393468 0.290417,-0.215471 0.571466,-0.449679 0.871252,-0.674518 0.206102,-0.149893 0.412205,-0.299786 0.627676,-0.44031 0.103051,-0.06558 0.393468,-0.299786 0.533993,-0.234208 0.140524,0.05621 -0.196734,0.590203 -0.206103,0.702623 -0.0094,0.271681 0.468415,-0.02811 0.55273,-0.07495 0.562098,-0.355996 1.067986,-0.786938 1.639453,-1.142933 0.04684,-0.02811 0.459047,-0.299786 0.477783,-0.140525 0.0094,0.11242 -0.32789,0.571467 -0.234207,0.637045 0.215471,0.149893 0.608939,-0.159261 0.777569,-0.271681 0.346627,-0.234207 0.683886,-0.468415 1.058618,-0.674518 0.206102,-0.112419 0.955566,-0.571466 0.646412,0.04684 -0.04684,0.09368 -0.149892,0.290417 0.04684,0.243576 0.281049,-0.06558 0.543361,-0.234208 0.796305,-0.374732 0.196735,-0.11242 0.421574,-0.196735 0.60894,-0.327891 0.121788,-0.08432 0.281049,-0.224839 0.449678,-0.224839 0.318523,0 -0.01874,0.637044 0.524625,0.3841 0.355996,-0.159261 0.66515,-0.402837 1.011777,-0.599571 0.477783,-0.262313 1.077354,-0.421574 1.630084,-0.421574 z m -20.488474,1.180407 c 0.852515,0 2.04229,0.243576 2.210919,1.180406 0.196734,1.124196 -1.349035,1.864292 -2.239024,1.948606 -0.281049,0.01874 -0.646413,0.02811 -0.983671,-0.02811 -0.196735,-0.318522 -0.430942,-0.608939 -0.711991,-0.843147 -0.01874,-0.131156 -0.131157,-0.318522 -0.262313,-0.318522 -0.05621,0 -0.103051,0.01874 -0.149893,0.02811 -0.01874,-0.0094 -0.04684,-0.01874 -0.06558,-0.03747 -0.131156,-0.06558 -0.27168,-0.121788 -0.412205,-0.187366 0.187366,-0.0094 0.3841,-0.05621 0.562098,0.02811 0.131156,0.06558 0.243576,0.07495 0.374732,0 0.318522,-0.224839 -0.721359,-0.206103 -0.805674,-0.206103 0.290418,-0.140524 0.590203,-0.131156 0.889989,-0.206102 0.159261,-0.03747 0.337259,-0.252945 0.06558,-0.318523 -0.187366,-0.03747 -0.365364,0.177998 -0.515257,0.262313 -0.215471,0.112419 -0.487151,0.112419 -0.721359,0.168629 0.215471,-0.215471 0.374732,-0.449678 0.711991,-0.477783 0.206103,-0.0094 0.365364,-0.271681 0.103051,-0.355996 -0.421573,-0.131156 -0.805673,0.515257 -1.086722,0.740096 0.477783,-0.946198 1.742503,-1.236616 2.716807,-1.330299 0.103051,-0.0094 0.215471,-0.01874 0.337259,-0.01874 z m -2.941646,0.03747 c 0.01874,0 0.03747,0 0.06558,0 -0.07495,0.03747 -0.03747,0.131156 -0.09368,0.187366 l -0.22484,0.224839 c -0.112419,0.11242 -0.243575,0.252944 -0.421573,0.234208 0.187366,-0.187366 0.365364,-0.627676 0.683886,-0.655781 z M 4.3773721,14.517914 c -0.028105,0.393468 0.2716807,0.805674 0.49652,1.114827 0.046842,0.06558 0.5058882,0.599572 0.5152565,0.562099 0.046842,-0.16863 -0.074946,-0.749465 0.2342075,-0.449679 0.1779978,0.16863 0.2904174,0.402837 0.4496785,0.590203 0.2061026,0.243576 0.3934686,0.515257 0.5433614,0.805674 0,-0.168629 0.037473,-0.355996 -0.00937,-0.524625 -0.028105,-0.103051 -0.1217879,-0.243576 0.00937,-0.309154 0.1779978,0.346627 0.4590468,0.637045 0.6745177,0.964935 0.2154709,0.318522 0.4496785,0.627676 0.7307275,0.908725 0,-0.224839 -0.05621,-0.459046 -0.037473,-0.693254 0.028105,-0.393469 0.3185222,-0.05621 0.4215735,0.11242 0.2248393,0.374732 0.4122053,0.758832 0.6089396,1.161669 0.074946,0.168629 0.2435758,0.674518 0.5058883,0.627676 -0.046841,-0.159261 -0.3278906,-0.524625 -0.093683,-0.655781 0.2997857,0.599571 0.8150414,1.10546 1.1804054,1.667558 0.03747,0.06558 0.309154,0.477783 0.309154,0.177997 0,-0.140524 -0.02811,-0.299785 -0.07495,-0.44031 0.281049,-0.04684 0.477784,0.430942 0.599572,0.721359 -0.07495,0.159262 -0.159262,0.318523 -0.243576,0.477784 -0.09368,0.187366 -0.271681,0.318522 -0.393469,0.49652 -0.121788,0.168629 -0.187366,0.3841 -0.309154,0.562098 -0.103051,0.243576 -0.243575,0.402837 -0.393468,0.571466 -0.1779975,0.187366 -0.2810485,0.393469 -0.3934683,0.637045 -0.074946,0.168629 -0.2623124,0.224839 -0.3934687,0.346627 -0.028105,0.02811 -0.065578,0.05621 -0.1030513,0.09368 C 9.033415,23.34285 8.8085758,22.640228 8.5462634,21.96571 c -4.301e-4,0 4.309e-4,0 0,0 0,-0.103051 0.00937,-0.206103 0.018737,-0.309154 0.037473,-0.430942 0.065578,-0.99304 0.3559954,-1.339667 0.2061026,-0.252944 0.5527298,-0.337259 0.7588324,-0.599571 -0.3934687,-0.02811 -0.6932543,0.299785 -0.9743033,0.533993 -0.2997857,0.262312 -0.3466272,0.674518 -0.4215736,1.039881 0,0.02811 -0.00937,0.05621 -0.00937,0.08432 C 7.9935363,20.916463 7.6937507,20.485521 7.4220699,20.035843 6.6351326,18.743017 5.7357758,17.487665 4.6584211,16.41031 c -0.037473,0.271681 0.2529442,0.49652 0.4122053,0.683886 0.2623124,0.318523 0.4871516,0.674518 0.6932543,1.04925 0.3841003,0.711991 0.843147,1.386509 1.1710376,2.135973 -0.00937,-0.0094 -0.028105,-0.01874 -0.046841,-0.03747 -0.3466272,-0.262313 -0.8056739,-0.477784 -1.2553524,-0.430942 -0.1967343,0.01874 -0.3841003,0.103051 -0.5902029,0.140524 -0.065578,0.0094 -0.1592611,0.0094 -0.2061026,0.06558 -0.046842,0.04684 -0.046842,0.159261 -0.121788,0.16863 0.074947,0 0.1592612,-0.05621 0.2248393,-0.08432 0.084315,-0.02811 0.187366,-0.0094 0.281049,-0.02811 0.2529441,-0.05621 0.4122052,-0.03747 0.6651494,0.04684 0.4496784,0.168629 0.9368301,0.393468 1.2928255,0.740095 0,0 0.00937,0.0094 0.018737,0.01874 0.2623124,0.637045 0.5152566,1.283457 0.7400958,1.939238 C 7.7405922,22.677704 7.5344895,22.537179 7.3471235,22.36855 7.019233,22.068764 6.5601862,22.134342 6.1292444,22.162447 c -0.4496785,0.01874 -0.8618837,0.243576 -1.1804059,0.55273 0.1779977,0.02811 0.2716807,-0.177998 0.4122052,-0.243576 0.1967343,-0.08432 0.4309419,-0.121788 0.6464128,-0.112419 0.4777833,0.01874 0.9180935,0.206102 1.3115621,0.477783 0.309154,0.206103 0.5808347,0.477783 0.8431471,0.749464 0.1124196,0.402837 0.2154709,0.824411 0.2904173,1.245984 C 8.387005,24.804303 8.3120585,24.766833 8.2371121,24.729362 7.7593288,24.523259 7.2440722,24.429576 6.7288157,24.570101 6.2885055,24.691889 5.9980882,25.038516 5.6889342,25.34767 c 0.084315,0.01874 0.2716808,-0.16863 0.3278906,-0.22484 0.1686294,-0.140524 0.3185222,-0.224839 0.5527297,-0.243575 0.5620981,-0.02811 1.1148279,0.121787 1.6113478,0.393468 0.018737,0.0094 0.046842,0.02811 0.074946,0.04684 -0.1405245,0.177997 -0.2716807,0.374732 -0.374732,0.580834 -0.1686294,0.327891 -0.2997856,0.683886 -0.3747321,1.04925 -0.074946,0.374732 -0.00937,0.711991 0.037473,1.086723 0,0.0094 0,0.0094 0,0.01874 C 7.0941788,27.933322 6.6163954,27.867744 6.1386121,27.88648 6.1105071,27.86774 6.0730341,27.83964 6.0355608,27.81153 5.9887188,27.77406 5.4547261,27.408693 5.5858823,27.31501 c 0.065578,-0.04684 0.4590468,0.187366 0.5620981,0.187366 -0.4871517,-0.477784 -0.9180935,-1.011777 -1.4052452,-1.498928 -0.046842,-0.187366 0.1967344,0.01874 0.2435759,0.04684 0.065578,0.02811 0.3091539,0.09368 0.3185222,0.196735 0.074946,-0.824411 -1.245984,-1.086723 -1.1335644,-1.948607 0.028105,0.05621 0.5339931,0.393469 0.5527297,0.374732 C 4.7895766,24.626308 4.611579,24.345257 4.5741058,24.270311 4.4616862,23.951789 4.2555836,23.689476 4.1150591,23.389691 4.0213761,23.17422 4.0213761,22.865066 3.8152734,22.724541 3.9839029,22.687071 4.1525323,23.052432 4.33053,23.0618 c 0.2435758,0 -0.2623124,-0.955567 -0.3091539,-1.039881 -0.046842,-0.08432 -0.4871517,-1.030513 -0.2716808,-1.04925 0.1967344,-0.0094 0.3372589,0.393469 0.5339932,0.346627 -0.1686288,-0.69325 -0.4215729,-1.367768 -0.5620975,-2.07039 0.2810491,-0.06558 0.2810491,0.44031 0.5620981,0.374732 -0.1217879,-0.515257 -0.2623124,-1.030513 -0.3559954,-1.564507 -0.093683,-0.562098 0.1498928,-0.131156 0.3559954,-0.0281 0,-0.430942 -0.1592611,-0.843148 -0.1779977,-1.283458 -0.028105,-0.3841 0.1686294,-0.112419 0.3653637,-0.149893 C 4.3680038,16.269786 4.3492672,15.932527 4.2743208,15.595268 4.1900061,15.2018 4.2555842,14.902014 4.3773721,14.517914 z m 14.4084469,0.27168 c 0.05621,0 0.112419,0.01874 0.159261,0.06558 0.103051,0.11242 -0.0094,0.07495 -0.06558,0.121788 -0.177998,0.177998 -0.281049,0.05621 -0.281049,-0.187366 0.04684,0 0.112419,-0.0094 0.177997,0 z m 0.71199,0.07495 c 0.121788,-0.0094 0.131157,0.224839 0.131157,0.299785 L 19.4416,15.351695 c 0,-0.112419 -0.140525,-0.459046 0.04684,-0.487151 z m -3.082171,0.168629 c 0.149893,0 0.299786,0.01874 0.440311,0.05621 0.196734,0.05621 0.505888,0.281049 0.730727,0.159261 0.103051,-0.04684 0.04684,-0.08431 0.206103,-0.121788 0.159261,-0.03747 0.337259,-0.05621 0.505888,-0.05621 -0.121788,0.215471 -0.468415,0.243576 -0.693254,0.299786 -0.337259,0.09368 -0.430942,0.159261 -0.430942,0.543362 0,0.299785 0.206102,0.524624 0.477783,0.27168 0.121788,-0.103051 0.206103,-0.234207 0.346627,-0.32789 0.09368,-0.06558 0.206103,-0.121788 0.290418,-0.215471 2.61e-4,0 -3.29e-4,0.0094 0,0.0094 -0.06558,0.168629 -0.01874,0.487152 -0.215471,0.571466 -0.04684,0.01874 -0.346627,0.07495 -0.309154,0.16863 0,0.01874 0.0094,0.03747 0.01874,0.05621 -0.337258,-0.07495 -0.693254,-0.11242 -1.039881,-0.09368 -0.402837,0.0094 -0.815042,0.08431 -1.199143,0.206102 -0.571466,0.177998 -1.152301,0.477784 -1.676925,0.843147 -0.04684,-0.290417 -0.01874,-0.599571 0.07495,-0.861883 0.215471,-0.55273 0.60894,-0.889989 1.124196,-1.180406 0.365364,-0.196735 0.88062,-0.346627 1.349035,-0.337259 z m 1.854924,0.215471 c 0.0094,0 0.01874,0 0.03747,0 l -0.55273,0.55273 c -0.121787,0.121788 -0.318522,0.11242 -0.477783,0.187366 0,-0.271681 0.290417,-0.290417 0.44031,-0.44031 0.09368,-0.09368 0.252944,-0.06558 0.346627,-0.159261 0.05621,-0.05621 0.103052,-0.131157 0.187366,-0.140525 z m 0.693254,0 c -0.0094,0.121788 0.159261,0.290417 0,0.374732 -0.103051,0.01874 -0.168629,-0.06558 -0.177997,-0.159261 -0.0094,-0.121788 0.08431,-0.159261 0.177997,-0.206103 z m 0.337259,0.271681 c 0.271681,1.2e-5 0.3841,0.44031 0.693254,0.3841 0.206103,0.11242 -0.140524,0.131156 -0.215471,0.103052 -0.252944,-0.06558 -0.32789,-0.327891 -0.524624,-0.477784 0.01874,0 0.03747,0 0.05621,0 z m -0.918093,0.459047 c 0.01874,0.03747 0.05621,0.08431 0.103051,0.103051 -0.11242,0.131156 -0.215471,0.252944 -0.309154,0.3841 0,-1.24e-4 -0.0094,3e-5 -0.0094,0 -0.05621,-3.41e-4 -0.121788,0 -0.16863,0.01874 0.121788,-0.08432 0.271681,-0.309154 0.393469,-0.515257 z m 2.014184,0.103051 c 0.0094,0 0.03747,0 0.05621,0 0.430942,0.215471 0.749464,0.618308 1.039882,0.99304 0.299785,0.3841 0.505888,0.861884 0.552729,1.358403 0.01874,0.299786 3.1e-4,0.646413 -0.09368,0.955567 -0.224839,-0.590203 -0.49652,-1.152301 -0.908725,-1.676926 -0.290417,-0.374732 -0.740096,-0.562098 -1.161669,-0.786937 -0.03747,-0.01874 -0.09368,-0.03747 -0.140525,-0.06558 -0.103051,-0.177998 -0.149893,-0.393469 -0.215471,-0.590203 0.07495,0.06558 0.393469,0.580835 0.562098,0.365364 0.06558,-0.08432 -0.412205,-0.309154 -0.468415,-0.365364 0.131157,0.03747 0.505889,0.337259 0.627677,0.11242 0.04684,-0.09368 0.0281,-0.290418 0.149892,-0.309154 z m -1.161669,0.09368 c 0.206103,0.11242 0.149893,0.365364 0.177998,0.580835 -0.04684,-0.0094 -0.09368,-0.01874 -0.149893,-0.02811 0,-0.04684 -0.0094,-0.09368 -0.01874,-0.140525 -0.0094,-0.06558 -0.112419,-0.177998 -0.07495,-0.243576 0.01874,-0.04684 0.08432,-0.07495 0.06558,-0.149892 z m -0.187366,0.09368 c -0.01874,0.04684 -0.06558,0.215471 -0.08432,0.374732 -0.04684,-0.0094 -0.09368,-0.01874 -0.140524,-0.02811 0.05621,-0.11242 0.140524,-0.224839 0.224839,-0.337259 z m -2.351444,0.655781 c 0.03747,0 0.08432,-7.69e-4 0.121788,0 0.299786,0 0.590203,0.06558 0.889989,0.140525 -0.03747,0.27168 -0.02811,0.552729 0.187366,0.721359 0.271681,0.206102 0.627676,0.234207 0.918093,0.412205 0.327891,0.206103 0.384101,0.60894 0.49652,0.955567 -0.44031,-0.03747 -0.805673,0.374732 -1.20851,0.515256 -0.16863,0.05621 -0.393469,0.281049 -0.533994,0.402837 -0.187366,0.159261 -0.32789,0.374732 -0.430941,0.599571 -0.06558,0.140525 -0.11242,0.290418 -0.159262,0.440311 -0.0094,-0.01874 -0.01874,-0.04684 -0.0094,-0.08432 -0.243576,0.121788 -0.571466,0.599571 -0.318522,0.852515 0.06558,0.06558 0.140524,0.103052 0.215471,0.11242 -0.0094,0.580835 0.06558,1.171037 0.103051,1.742504 0.44031,-0.365364 0.852516,-0.730728 1.339667,-1.04925 0.206103,-0.131156 0.374732,-0.318522 0.599571,-0.449678 0.01874,-0.0094 0.05621,-0.02811 0.09368,-0.04684 -0.121787,0.215471 -0.224839,0.543362 -0.07495,0.702623 -0.177998,0.187366 -0.393469,0.346627 -0.646413,0.449678 -0.721359,0.281049 -1.452086,0.505888 -2.154709,0.861884 0.355996,0.187366 0.711991,0.3841 1.077355,0.571466 0.121788,0.06558 0.243576,0.149893 0.393468,0.177998 0.131157,0.01874 0.281049,-0.04684 0.402837,0.04684 0.06558,0.05621 0.149893,0.08432 0.243576,0.103052 -0.112419,0.224839 -0.159261,0.477783 0.11242,0.627676 0.07495,0.03747 0.168629,0.01874 0.252944,0.01874 0.09368,0 0.159261,0.09368 0.262312,0.08431 0.09368,0 0.355996,-0.07495 0.16863,-0.177997 -0.09368,-0.177998 -0.318523,-0.01874 -0.468415,-0.09368 -0.149893,-0.06558 -0.206103,-0.281049 -0.11242,-0.421574 0.103051,0.0094 0.206103,0.03747 0.290417,0.103051 0.08432,0.06558 0.215471,0.0094 0.299786,0.09368 0.09368,0.09368 0.234208,0.103052 0.346627,0.159261 l 0,0 c 0.346627,0 0.637045,0.09368 0.955567,0.06558 -1.077355,1.096091 -1.620716,2.773017 -1.245984,4.262576 -0.711991,0.03747 -1.43335,0.03747 -2.154709,0 -0.196735,-0.0094 -0.384101,-0.04684 -0.571467,-0.08431 0.121788,-0.149893 0.224839,-0.309154 0.281049,-0.505888 0.103052,-0.355996 0.149893,-0.758833 0.131156,-1.133565 -0.01874,-0.3841 -0.234207,-0.693254 -0.477783,-0.983671 -0.206103,-0.252945 -0.562098,-0.309154 -0.852515,-0.421574 -0.07495,-0.02811 -0.159261,-0.04684 -0.243576,-0.06558 0.03747,-0.09368 0.103051,-0.243576 -0.0094,-0.243576 -0.103052,0 -0.206103,0.11242 -0.271681,0.215471 -0.196734,0 -0.402837,0.01874 -0.599571,0.04684 -0.402837,0.04684 -0.871252,0.196735 -1.208511,0.440311 -0.06558,0.04684 -0.131156,0.09368 -0.206103,0.140524 0.07495,-0.524625 0.01874,-1.04925 -0.234207,-1.517665 -0.337259,-0.599571 -0.880621,-1.039881 -1.527033,-1.292825 -0.271681,-0.103051 -0.562098,-0.215471 -0.861884,-0.215471 -0.03747,4.22e-4 -0.07495,0 -0.121788,0.0094 -0.2716808,0.0281 -0.543361,0.121788 -0.8150418,0.215471 0.1873661,-0.140524 0.4309419,-0.252944 0.590203,-0.412205 0.3278908,-0.318522 0.5339928,-0.796306 0.8056738,-1.180406 0.346627,-0.49652 0.71199,-0.99304 1.039881,-1.498928 0.05621,-0.08432 0.11242,-0.177998 0.168629,-0.271681 0.0094,-0.01874 0.02811,-0.04684 0.03747,-0.06558 0,-0.0094 0.0094,-0.01874 0.01874,-0.03747 0.09368,-0.16863 0.187366,-0.337259 0.281049,-0.515257 0.206103,-0.412205 0.309154,-0.88062 0.543362,-1.292825 0.224839,-0.402837 0.571466,-0.730728 0.927462,-1.021145 0.07495,-0.05621 0.159261,-0.121788 0.234207,-0.177998 0.665149,-0.477783 1.470823,-0.871252 2.276497,-1.011776 0.121788,-0.01874 0.252944,-0.03747 0.374732,-0.03747 z m 4.421839,0.271681 c -0.04684,0.06558 -0.196735,0.196734 -0.159262,0.299785 0.01874,0.06558 0.121788,0.215471 0.215471,0.140525 0.215471,-0.177998 0.07495,-0.309154 -0.04684,-0.44031 z m -2.070395,0.187366 c 0.599571,0.299785 1.208511,0.590203 1.676926,1.096091 0.402837,0.430942 0.637044,0.974303 0.796305,1.54577 0,0.02811 0.0094,0.05621 0.01874,0.08431 0.04684,0.177998 0.09368,0.384101 0.159261,0.580835 0.11242,-0.0094 0.224839,-0.02811 0.337259,-0.04684 0.0094,0 0.02811,0 0.04684,0 0.121787,-0.01874 0.243575,-0.03747 0.365363,-0.06558 0.44031,-0.08431 0.833779,-0.421573 1.133565,-0.749464 0.140524,-0.159261 0.252944,-0.365363 0.299785,-0.580834 0.03747,-0.196735 -0.03747,-0.421574 0.04684,-0.60894 0.140524,-0.281049 0.562098,-0.224839 0.82441,-0.290417 0.08432,0.459047 0.05621,1.058618 -0.121788,1.583243 -0.01874,-0.103052 -0.140524,-0.393469 -0.243575,-0.234208 -0.140525,0.206103 -0.121788,0.524625 -0.149893,0.777569 0,0.05621 -0.0094,0.121788 -0.01874,0.187366 -0.149893,0.16863 -0.346627,0.309154 -0.571466,0.3841 -0.131156,0.03747 -0.252944,0.08432 -0.355996,0.177998 0,0 -0.0094,0.0094 -0.01874,0.01874 0,0 0,0 0,0 -0.01874,0.01874 -0.04684,0.03747 -0.06558,0.05621 0,0 -0.0094,0 -0.0094,0 -0.02811,0.01874 -0.06558,0.0281 -0.103051,0.0281 l -0.889989,0 c -0.04684,0 -0.09368,0 -0.140524,-0.01874 0.06558,0.07495 0.140524,0.149893 0.234207,0.215471 0.05621,0.02811 0.11242,0.05621 0.177998,0.08432 0.02811,0.0094 0.06558,0.0281 0.09368,0.03747 0.05621,0.01874 0.121788,0.04684 0.177998,0.07495 0,0 0.0094,0 0.0094,0 0.01874,0.0094 0.04684,0.01874 0.06558,0.03747 0,0 0.0094,0 0.0094,0.0094 0,0 0,0 0,0 0.03747,0.02811 0.07495,0.05621 0.103051,0.103051 0,0 0,0.0094 0.0094,0.01874 0,0 0.0094,0.0094 0.0094,0.01874 0.06558,0.131156 0.168629,0.224839 0.281049,0.327891 -0.0094,0.44031 0.0094,0.88062 0.04684,1.32093 -0.103051,0.01874 -0.215471,0.03747 -0.318522,0.09368 -0.412205,0.206103 -0.852516,0.393469 -1.217879,0.683886 -0.0094,0.0094 -0.01874,0.01874 -0.02811,0.02811 -0.01874,-0.337259 -0.06558,-0.683886 -0.140525,-1.021145 -0.112419,0.355996 -0.187366,0.749464 -0.468415,1.030513 -0.112419,0.11242 -0.196734,0.281049 -0.355995,0.355996 -0.159261,0.07495 -0.365364,0.08431 -0.543362,0.09368 -0.843147,0.08431 -1.630084,-0.327891 -2.388916,-0.646413 0.177997,0 0.365363,-0.177998 0.543361,-0.234208 0.215471,-0.06558 0.468415,-0.121787 0.674518,-0.234207 0.262312,-0.131156 0.459046,-0.505888 0.655781,-0.730728 0.01874,-0.0281 0.04684,-0.05621 0.06558,-0.08431 0.04684,-3.5e-4 0.103051,0 0.103051,-0.02811 5.46e-4,-0.02811 0,-0.06558 0,-0.103051 0.05621,-0.08432 0.103051,-0.177998 0.11242,-0.290418 0.05621,-0.459047 0.149893,-0.918093 0.252944,-1.367772 -0.262313,0.02811 -0.524625,0.05621 -0.786937,0.08432 -0.206103,0.01874 -0.374732,0.168629 -0.543362,0.271681 -0.421573,0.262312 -0.861884,0.505888 -1.292825,0.758832 -0.04684,-0.374732 -0.09368,-0.627676 0.09368,-0.964935 0.149892,-0.262312 0.290417,-0.533993 0.49652,-0.768201 0.365363,-0.393468 0.889988,-0.665149 1.423981,-0.7682 0.159261,-0.02811 0.346627,-0.0094 0.505889,-0.09368 0.234207,-0.11242 -0.0094,-0.487152 -0.09368,-0.637045 -0.215471,-0.477783 -0.618308,-0.983671 -0.955567,-1.545769 z m -1.770609,0.580834 c -0.103051,0.01874 -0.159261,0.206103 -0.196734,0.290418 -0.08432,0.177997 -0.234208,0.590203 0.103051,0.590203 0.149893,0 0.318522,0.07495 0.459047,0.0094 0.08432,-0.03747 0.206102,-0.327891 0.01874,-0.290417 -0.121787,-0.0094 -0.346627,0.187366 -0.449678,0.04684 -0.05621,-0.09368 0.0094,-0.252944 0.06558,-0.337259 0.04684,-0.06558 0.206103,-0.27168 0.03747,-0.309154 -0.0094,0 -0.02811,0 -0.04684,0 z m -2.941646,0.72136 c -0.07495,0 -0.159262,0.09368 -0.149893,0.281049 0.01874,0.243575 0.0281,0.477783 0.243576,0.646412 0.07495,0.05621 0.206102,0.140525 0.290417,0.03747 0.07495,-0.09368 -0.103051,-0.187366 -0.159261,-0.234208 -0.159261,-0.159261 -0.149893,-0.252944 -0.103051,-0.468415 0.0281,-0.168629 -0.03747,-0.252944 -0.11242,-0.252944 z m 25.097678,0.552729 c 0,0.01874 0,0.04684 0,0.07495 0,-0.01874 0,-0.04684 0,-0.07495 z m -13.537195,0.946199 c 0.07495,-0.0094 0.11242,0.346627 0.121788,0.3841 0.01874,0.09368 0.05621,0.140525 0.08432,0.16863 -0.196735,0.121787 -0.374732,0.281049 -0.543362,0.459046 0.02811,-0.206102 0.06558,-0.421573 0.131156,-0.627676 0.02811,-0.11242 0.07495,-0.299786 0.177998,-0.3841 0,0 0.0094,0 0.0094,0 z m 1.002408,0.730727 c 0.08432,0.271681 0.412205,0.683886 0.140525,0.946199 -0.131156,0.131156 -0.318522,0.196734 -0.449679,0.337258 -0.149893,0.16863 -0.252944,0.374733 -0.309154,0.599572 -0.159261,0.627676 0.03747,1.274089 0.309154,1.864292 0.22484,-0.02811 0.449679,-0.09368 0.674518,-0.159261 0.590203,-0.16863 1.217879,-0.234208 1.826819,-0.103052 0.552729,0.121788 1.011776,0.430942 1.480191,0.730728 -0.393468,0 -0.777569,-0.121788 -1.180406,-0.08432 -0.215471,0.01874 -0.44031,0.03747 -0.665149,0.06558 -0.196734,0.01874 -0.393469,0.11242 -0.599571,0.11242 0.318522,0.646412 0.44031,1.442718 0.252944,2.154709 -0.07495,0.309154 -0.206103,0.683886 -0.355996,0.964935 -0.121788,0.234207 -0.412205,0.271681 -0.646412,0.355995 -0.03747,-0.49652 -0.121788,-0.99304 -0.07495,-1.489559 0.03747,-0.449679 -0.187366,-0.843148 -0.3841,-1.236616 L 26.1493,26.752909 c -0.234207,0.234207 -0.468415,0.459047 -0.533993,0.805674 -0.05621,0.337258 -0.196734,0.618308 -0.140525,0.983671 0.04684,0.365364 0.140525,0.721359 0.140525,1.096091 -0.543361,-0.44031 -1.199143,-0.815042 -1.564506,-1.452086 -0.196735,-0.355996 -0.365364,-0.66515 -0.224839,-1.077355 0.131156,-0.393468 0.318522,-0.693254 0.571466,-1.039881 -0.262313,0.149893 -0.515257,0.318522 -0.796306,0.430942 -0.290417,0.112419 -0.580834,0.224839 -0.82441,0.421573 -0.224839,0.177998 -0.477784,0.327891 -0.646413,0.571467 -0.177998,0.252944 -0.290417,0.543361 -0.44031,0.82441 -0.206103,-0.412205 -0.515257,-0.815042 -0.55273,-1.302194 -0.03747,-0.524625 0.159261,-1.067986 0.430942,-1.517665 0,-0.0094 0.0094,-0.0281 0.01874,-0.04684 0.01874,-0.02811 0.03747,-0.06558 0.05621,-0.09368 0,0 0.0094,-0.0094 0.0094,-0.01874 0.0094,-0.01874 0.02811,-0.04684 0.04684,-0.06558 0.03747,-0.05621 0.09368,-0.112419 0.140525,-0.168629 0.224839,-0.234208 0.505888,-0.402837 0.843147,-0.543362 0.524625,-0.215471 0.918093,-0.459046 1.517665,-0.459046 0.07495,0 0.140524,0.04684 0.21547,0.07495 0.140525,0.05621 0.299786,0.0094 0.459047,0.01874 0.299786,0.0094 0.515257,0.187366 0.768201,0.337258 0.05621,0.02811 0.11242,0.05621 0.177998,0.07495 -0.04684,-0.04684 -0.09368,-0.103051 -0.140525,-0.149893 -0.337259,-0.3841 -0.3841,-0.93683 -0.355995,-1.43335 0.04684,-0.955567 0.7682,-1.705031 1.592611,-2.117236 z m -12.51605,0.318522 c -0.09368,0 -0.206103,0.149893 -0.243576,0.215471 -0.112419,0.177998 -0.168629,0.55273 0.05621,0.674518 0.121788,0.06558 0.355996,0.05621 0.487152,0.02811 0.103051,-0.01874 0.215471,-0.234208 0.05621,-0.196734 -0.121788,0 -0.290418,0.07495 -0.393469,-0.01874 -0.11242,-0.11242 -0.121788,-0.318522 0.0094,-0.412205 0.08432,-0.05621 0.187366,-0.187366 0.05621,-0.271681 -0.0094,0 -0.01874,-0.0094 -0.03747,-0.0094 z m 2.566915,0.243576 c -0.01874,0.121788 -0.02811,0.243576 -0.03747,0.365364 -0.02811,0 -0.05621,0 -0.05621,-0.03747 0,-0.05621 0.07495,-0.243576 0.103051,-0.327891 z m 7.204223,0.03747 c -0.02811,0.187366 -0.06558,0.374732 -0.103051,0.552729 -0.04684,-0.06558 -0.09368,-0.140524 -0.149893,-0.215471 -0.02811,-0.03747 -0.06558,-0.07495 -0.09368,-0.112419 0.121788,-0.05621 0.243576,-0.140525 0.355995,-0.215471 z m 0.665149,0.477783 c 0.03747,-0.0094 0.07495,0.04684 0.11242,0.140524 -0.06558,0.16863 -0.121788,0.337259 -0.159261,0.515257 -0.0094,0.04684 -0.0094,0.103051 -0.01874,0.159261 -0.02811,-0.252944 -0.07495,-0.55273 0.02811,-0.777569 0.0094,-0.01874 0.01874,-0.03747 0.03747,-0.03747 z M 19.4416,22.134335 c -0.06558,0.206103 -0.159261,0.402837 -0.281049,0.590203 -0.01874,-0.112419 0.01874,-0.262312 0.07495,-0.355995 0.01874,-0.02811 0.09368,-0.131156 0.159261,-0.224839 0.0094,0 0.02811,0 0.03747,0 z m -6.239289,1.302194 c -0.04684,0 -0.09368,0.02811 -0.140524,0.06558 -0.22484,0.215471 0.234207,0.412206 0.3841,0.468415 0.121788,0.04684 0.224839,0.206103 0.365364,0.206103 0.131156,0 0.06558,-0.206103 0.06558,-0.281049 -0.11242,0.01874 -0.224839,-0.08432 -0.355996,-0.07495 -0.09368,0 -0.262312,-0.0094 -0.187366,-0.149893 0.07495,-0.140525 0.0094,-0.224839 -0.08431,-0.234208 -0.0094,0 -0.02811,0 -0.04684,0 z m 2.782386,0.505888 c 0,0 -0.0094,0 -0.01874,0 -0.06558,0.0094 -0.140525,0.103052 -0.168629,0.149893 -0.05621,0.131156 -0.22484,0.22484 -0.22484,0.384101 0,0.159261 0.131157,0.337258 0.309154,0.355995 0.121788,0.0094 0.318522,-0.01874 0.421574,-0.103051 0.103051,-0.07495 0.09368,-0.206103 -0.05621,-0.177998 l 0,0 c -0.121788,0 -0.580835,7.22e-4 -0.365364,-0.215471 0.07495,-0.08432 0.243576,-0.177998 0.187366,-0.318522 -0.0094,-0.04684 -0.03747,-0.06558 -0.06558,-0.06558 z m -5.752137,1.16167 c 1.021145,0.0094 2.164077,0.852515 2.107867,1.939238 -0.03747,0.646413 -0.299785,1.292826 -0.683885,1.81745 -0.187367,0.252945 -0.421574,0.468416 -0.599572,0.730728 -0.103051,0.159261 -0.121788,0.374732 -0.355995,0.374732 0.103051,-0.327891 0.449678,-0.562098 0.543361,-0.889989 0.05621,-0.224839 -0.252944,-0.430941 -0.412205,-0.533993 -0.08431,-0.05621 -0.374732,-0.243576 -0.477783,-0.131156 -0.06558,0.06558 0.01874,0.252944 0.01874,0.337259 0.0094,0.159261 -0.0094,0.318522 -0.04684,0.468415 -0.09368,-0.196734 -0.08432,-0.44031 -0.177998,-0.646413 -0.03747,-0.09368 -0.2342068,-0.32789 -0.3185218,-0.131156 -0.046841,0.11242 -0.046841,0.318522 0,0.430942 0.05621,0.112419 0.16863,0.187366 0.2342078,0.290417 0.08431,0.131156 0.06558,0.281049 0.06558,0.430942 -0.07495,-0.07495 -0.2810488,-0.524625 -0.3841004,-0.477783 -0.05621,0.02811 -0.2997856,0.224839 -0.2623124,0.309154 0.037473,0.112419 0.281049,0.08431 0.374732,0.168629 0.1592608,0.131156 0.1873658,0.374732 0.2623118,0.562098 C 9.6704692,29.703923 9.042793,29.44161 8.6305878,28.935722 8.2183825,28.439202 7.9935433,27.830262 8.077858,27.18385 c 0.05621,-0.477784 0.2529441,-0.927462 0.5527298,-1.292826 0,0 0,0 0,0 0.028105,-0.03747 0.065578,-0.08432 0.1124196,-0.121788 0,0 0.00937,-0.0094 0.018737,-0.01874 0.028105,-0.02811 0.065578,-0.06558 0.093683,-0.09368 0.3091539,-0.271681 0.7026226,-0.468416 1.1523016,-0.505889 0.06558,0 0.131156,0 0.196734,0 z m 20.657103,0.374732 c 0.121788,0.09368 0.243576,0.196734 0.355996,0.299785 l -0.402837,0.22484 0.655781,0.187366 0,-0.140525 c 0.693254,0.796306 1.096091,1.845555 1.133564,2.904174 0.01874,0.71199 -0.09368,1.442718 -0.421573,2.079762 -0.365364,0.711991 -0.955567,1.283458 -1.330299,2.014185 -0.159261,0.318522 -0.299785,0.665149 -0.430942,1.011777 -0.112419,0.0094 -0.159261,0.159261 -0.159261,0.262312 0,0.04684 0,0.252944 -0.09368,0.234208 -0.131156,-0.01874 -0.08432,-0.22484 -0.187366,-0.290418 -0.103051,-0.187366 -0.206102,0.08432 -0.177998,0.187366 0.01874,0.103052 0.206103,0.262313 0.309154,0.290418 0.0094,0 0.02811,0 0.04684,0 -0.03747,0.103051 -0.07495,0.206102 -0.121788,0.309153 -0.03747,0.09368 -0.07495,0.187366 -0.121788,0.290418 -0.0094,0.03747 -0.02811,0.07495 -0.04684,0.112419 0,0 0,0 0,0.0094 -0.0094,0.03747 -0.01874,0.07495 -0.03747,0.112419 0,0.01874 -0.0094,0.04684 -0.01874,0.06558 -0.09368,0.346628 -0.131156,0.693255 -0.234208,1.021145 -3.62e-4,0 3.64e-4,0 0,0 -0.0094,0.03747 -0.01874,0.07495 -0.03747,0.11242 0,0 0,0.0094 0,0.0094 -0.0094,0.0281 -0.02811,0.05621 -0.03747,0.09368 0,0 0,0.0094 -0.0094,0.01874 -0.04684,0.103051 -0.103052,0.196734 -0.187366,0.290417 -0.03747,0.05621 -0.09368,0.103051 -0.149893,0.159261 -0.646413,0.590203 -1.817451,0.918094 -2.679334,0.637045 C 26.03686,37.835673 25.549708,37.470309 25.165608,37.170523 24.809612,36.889474 24.528563,36.533479 24.275619,36.158747 23.694784,35.287495 22.94532,34.547399 22.214593,33.797935 21.502602,33.067208 20.940504,32.205324 20.472089,31.305967 20.322196,31.01555 20.162935,30.706396 20.02241,30.397242 19.94746,30.219244 19.863149,30.02251 19.806939,29.835144 19.675783,29.422939 19.610205,28.991997 19.675783,28.53295 c 0.07495,-0.524625 0.215471,-1.067986 0.459047,-1.54577 0.149893,-0.309154 0.374732,-0.571466 0.618308,-0.805674 -0.04684,0.149893 -0.09368,0.299786 -0.131156,0.459047 -0.07495,0.281049 -0.0094,0.571467 0.09368,0.852516 -0.09368,0.0281 -0.196735,0.08431 -0.22484,0.112419 -0.187366,0.159261 -0.177997,0.487152 0.09368,0.562098 0.103052,0.02811 0.309154,0.06558 0.412206,0.01874 0,0 0.0094,0 0.01874,-0.0094 0.121788,0.281049 0.262313,0.562098 0.402837,0.843147 0,0.0094 -0.0094,0.02811 -0.0094,0.04684 0,0.05621 -0.08432,0.234208 -0.16863,0.11242 -0.04684,-0.07495 -0.01874,-0.215471 -0.112419,-0.262313 -0.02811,-0.02811 -0.05621,-0.05621 -0.09368,-0.09368 0.02811,0.121788 -0.121788,0.09368 -0.04684,0.281049 0.05621,0.131157 0.103052,0.290418 0.243576,0.365364 0.131156,0.06558 0.243576,-0.03747 0.309154,-0.177998 0.0094,0.02811 0.02811,0.05621 0.04684,0.09368 0.252944,-0.430941 0.505888,-0.861883 0.7682,-1.302193 0.187366,-0.327891 0.524625,-0.543362 0.824411,-0.768201 0,0.768201 0.608939,1.43335 1.161669,1.911133 0.03747,0.03747 0.08432,0.07495 0.131156,0.11242 -0.03747,0.224839 -0.215471,0.533993 -0.421573,0.543361 -0.196735,0.0094 -0.299786,-0.27168 -0.412206,-0.393468 -0.06558,-0.121788 -0.21547,-0.02811 -0.177997,0.08431 0.02811,0.09368 0.159261,0.16863 0.224839,0.243576 0.103051,0.131156 0.262312,0.374732 0.477783,0.290418 0.196735,-0.07495 0.346627,-0.299786 0.430942,-0.487152 0.0094,-0.01874 0.03747,-0.08432 0.05621,-0.149893 0.55273,0.449679 1.142933,0.861884 1.714399,1.302194 -0.103051,-0.777569 -0.234207,-1.564506 -0.32789,-2.342075 -0.01874,-0.206103 0,-0.402837 0.04684,-0.580835 0.318522,0.168629 0.543362,-0.224839 0.665149,-0.477783 0.0094,0.693254 0.04684,1.395876 0.08432,2.089131 0.327891,-0.140525 0.66515,-0.281049 0.99304,-0.430942 0.06558,0.140524 0.187366,0.252944 0.355995,0.234207 0.206103,-0.01874 0.374733,-0.140524 0.430942,-0.337258 0.0094,-0.05621 0.07495,-0.16863 0.04684,-0.22484 -0.0094,-0.04684 -0.07495,-0.103051 -0.06558,-0.168629 -0.187366,0.09368 -0.177998,0.3841 -0.384101,0.468415 -0.06558,0.01874 -0.103051,-0.01874 -0.131156,-0.07495 0,0 0,0 0,0 0.412205,-0.196735 0.468415,-0.618308 0.683886,-0.983672 0.131156,-0.234208 0.234208,-0.449678 0.224839,-0.730727 0,-0.196735 -0.0094,-0.384101 0.01874,-0.580835 0.05621,-0.271681 -7.86e-4,-0.365364 -0.06558,-0.60894 -0.01874,-0.07495 -0.121788,-0.299785 -0.03747,-0.374732 0.08431,-0.07495 0.234207,-0.06558 0.337258,-0.07495 0.243576,-0.02811 0.49652,-0.0094 0.749465,0.0094 0.187366,0.01874 0.49652,0.103051 0.683886,0.03747 0.06558,-0.01874 0.131156,-0.112419 0.196734,-0.234207 z m 4.093948,0.159261 0.374732,0.843147 c -0.627676,0.206103 -0.946198,0.918094 -0.815042,1.54577 0.07495,0.3841 0.149893,0.777569 0.32789,1.142932 0.03747,0.07495 0.09368,0.149893 0.149893,0.215471 0.140525,-0.04684 0.271681,-0.112419 0.402837,-0.159261 0.55273,-0.224839 1.161669,-0.402837 1.770609,-0.355995 0.637045,0.03747 1.236616,0.290417 1.826819,0.533993 -0.637045,0.121788 -1.292826,0.140524 -1.939239,0.252944 -0.121787,0.01874 -0.318522,0.04684 -0.421573,0.140525 -0.140525,0.131156 0.177998,0.552729 0.243576,0.674517 0.131156,0.262313 0.103051,0.55273 0.168629,0.833779 0.06558,0.309154 0.06558,0.599571 -0.0281,0.899357 -0.07495,0.234207 -0.112419,0.487152 -0.224839,0.711991 -0.121788,0.252944 -0.374732,0.281049 -0.60894,0.402837 -0.08431,-0.487152 -0.21547,-0.983672 -0.21547,-1.48956 0,-0.44031 -0.28105,-0.796306 -0.524625,-1.133565 -0.393469,0.459047 -0.899357,0.908726 -1.077355,1.508297 -0.103051,0.337259 -0.196734,0.758832 -0.09368,1.114828 0.103051,0.374732 0.206103,0.758832 0.327891,1.133564 -0.637045,-0.402837 -1.423982,-0.758832 -1.873661,-1.405245 -0.430941,-0.637044 -0.159261,-1.367772 0.177998,-1.976711 -0.05621,0.03747 -0.11242,0.07495 -0.177998,0.112419 0,-0.0094 0.01874,-0.02811 0.01874,-0.04684 0.337259,-0.646413 0.477783,-1.358404 0.459047,-2.070395 0.03747,0 0.08431,0.0094 0.121788,0.01874 0.243575,0.05621 0.393468,0.290417 0.627676,0.3841 0.131156,0.04684 0.271681,0.06558 0.412205,0.05621 -0.487152,-0.3841 -0.82441,-0.93683 -0.833779,-1.611348 0,-1.002408 0.515257,-1.854924 1.414614,-2.304602 z m -4.037738,1.124196 c -0.03747,0 -0.08431,0.0094 -0.112419,0.05621 -0.06558,0.08432 -0.05621,0.206102 -0.131157,0.299786 -0.281049,0.374732 -0.149892,-0.16863 -0.318522,-0.262313 -0.112419,-0.187366 -0.196734,0.11242 -0.168629,0.206103 0.03747,0.131156 0.224839,0.374732 0.374732,0.3841 0.187366,0.0094 0.49652,-0.365364 0.505888,-0.543361 0,-0.07495 -0.05621,-0.140525 -0.121788,-0.140525 z m -4.24384,0.187366 c 0,0.06558 0,0.131156 0,0.196734 -0.03747,0.0094 -0.07495,0.04684 -0.09368,0.07495 -0.11242,0.149893 -0.11242,0.374732 -0.262313,0.515256 -0.07495,0.07495 -0.149892,0.05621 -0.21547,0 0.121787,-0.299785 0.337258,-0.562098 0.580834,-0.805674 z m -11.897742,0.430942 c 0.07495,0 0.149892,-3.87e-4 0.215471,0 0,0 0.0094,0 0.0094,0 0.121788,0.04684 0.337259,0.103051 0.430942,0.07495 0.149893,0.04684 0.299785,0.131157 0.430942,0.243576 0.637044,0.562098 0.290417,1.339667 -0.206103,1.957975 -0.03747,0.04684 -0.07495,0.09368 -0.11242,0.140525 -0.03747,0.03747 -0.07495,0.08431 -0.121788,0.131156 -0.03747,0.03747 -0.07495,0.08432 -0.121788,0.121788 0,0 -0.0094,0.01874 -0.01874,0.01874 -0.02811,0.02811 -0.06558,0.05621 -0.09368,0.08432 -0.121788,0.103051 -0.234208,0.206103 -0.337259,0.281049 -0.402837,0.299786 -0.93683,0.468415 -1.452087,0.468415 -0.252944,0 -0.524624,-0.05621 -0.758832,-0.168629 -0.01874,-0.0094 -0.449678,-0.271681 -0.449678,-0.262313 0.103051,-0.08431 0.355995,0.140525 0.459046,0.16863 0.243576,0.08431 0.196735,-0.187366 0.06558,-0.281049 -0.206102,-0.159261 -0.206102,-0.0094 -0.3841,0.01874 -0.168629,0.01874 -0.337259,0 -0.505888,0 0.187366,-0.09368 0.3841,-0.168629 0.580834,-0.252944 0.08432,-0.02811 0.252945,-0.140524 0.355996,-0.112419 -0.131156,-0.271681 -0.281049,-0.08432 -0.477783,0 -0.07495,0.0281 -0.355996,0.03747 -0.365364,0.159261 -0.01874,-0.22484 0.299785,-0.318523 0.449678,-0.421574 0.03747,-0.01874 0.571467,-0.421573 0.318523,-0.459047 -0.159262,-0.01874 -0.449679,0.140525 -0.477784,0.309154 -0.04684,0.309154 -0.355995,0.421574 -0.580834,0.60894 0.08431,-0.309154 0.08431,-0.524625 0.355995,-0.702623 0.09368,-0.06558 0.3841,-0.290417 0.177998,-0.402837 -0.262313,-0.140524 -0.477784,0.131157 -0.524625,0.365364 -0.05621,0.271681 -0.215471,0.515257 -0.384101,0.740096 0,-0.252944 0.07495,-0.468415 0.215471,-0.674518 0.149893,-0.224839 0.234208,-0.487151 0.430942,-0.683886 0.393469,-0.412205 0.918094,-0.749464 1.414614,-1.030513 0.402837,-0.224839 0.946198,-0.430942 1.470823,-0.459047 z m 5.939502,0.430942 c 0.03747,0.08431 0.07495,0.168629 0.11242,0.262312 l -0.365364,0 c 0.08432,-0.04684 0.177998,-0.149893 0.252944,-0.262312 z m -3.344483,0.05621 c -0.04684,0 -0.09368,0.03747 -0.140524,0.112419 -0.103052,0.149893 -0.177998,0.374732 0,0.505888 0.177997,0.131157 0.412205,0.140525 0.627676,0.149893 0.196734,0.0094 0.149892,-0.149893 0.149892,-0.290417 l -0.655781,-0.09368 0.281049,-0.281049 C 17.567942,27.90522 17.483625,27.849006 17.39931,27.867743 z M 6.3915568,28.411104 c 0.05621,-9.11e-4 0.1124196,4.43e-4 0.1779977,0 0.05621,0 0.121788,0 0.1779978,0.0094 1.0305131,0.103052 2.0797628,0.730728 2.5200729,1.611348 l 0,0 c -0.187366,0.03747 -0.3185222,-0.206103 -0.5058882,-0.243576 -0.2061026,-0.03747 -0.1405245,0.177998 -0.065578,0.271681 0.1217879,0.149893 0.2997856,-0.02811 0.4496784,0.04684 0.187366,0.09368 -0.1311562,0.196734 -0.1967343,0.196734 -0.1124196,0 -0.2435758,0.01874 -0.3559954,0 -0.046841,-0.0094 -0.1873661,-0.11242 -0.2342076,-0.06558 -0.093683,0.08431 -0.00937,0.262312 0.1030513,0.262312 0.309154,0.01874 0.683886,-0.393468 0.9087252,0 -0.2154709,0 -0.4215735,0.121788 -0.6464127,0.09368 -0.093683,-0.0094 -0.2061026,0.0094 -0.2904174,0.04684 -0.1498928,0.05621 -0.028105,0.168629 0.065578,0.196734 0.1686295,0.05621 0.3278906,-0.02811 0.4871517,-0.09368 0.1405245,-0.05621 0.281049,-0.09368 0.4403101,-0.07495 0.028105,0 0.215471,0.0094 0.1030514,0.06558 -0.1124197,0.05621 -0.2623125,0.02811 -0.3841004,0.04684 -0.1592611,0.01874 -0.281049,0.121788 -0.3934686,0.234208 C 8.1996389,31.568221 7.5438578,31.793061 6.7475523,31.811797 6.1854542,31.868007 5.5952512,31.690009 5.1080996,31.418329 4.5553698,31.099806 4.1900061,30.631391 4.311794,29.966242 c 0.1217879,-0.674518 0.6651494,-1.189774 1.3021938,-1.405245 0.065578,-0.01874 0.1311563,-0.03747 0.1967344,-0.05621 0.05621,-0.0094 0.1124196,-0.01874 0.1686294,-0.02811 0.05621,-0.0094 0.1217879,-0.0094 0.187366,-0.01874 0.05621,0 0.1217879,-0.0094 0.187366,-0.0094 z m 4.3281542,0.215471 c 0.140525,0 0.07495,0.318522 -0.0281,0.374732 l 0,-0.374732 c 0.0094,0 0.01874,0 0.0281,0 z m 0.149893,0.374732 c 0,0.346627 -0.131156,0.599571 -0.374732,0.843147 0.149893,-0.243576 0.243576,-0.533993 0.384101,-0.815042 z m 21.013099,0.468415 c -0.08431,0.11242 -0.524624,0.524625 -0.655781,0.281049 -0.103051,-0.187366 -0.27168,0.103051 -0.140524,0.224839 0.09368,0.08432 0.271681,0.07495 0.393468,0.05621 0.140525,-0.01874 0.299786,-0.07495 0.412206,-0.187366 0.159261,-0.149893 -0.03747,-0.224839 -0.0094,-0.3841 z m 7.504009,0.243576 c 0.149893,0.09368 0.290418,0.187366 0.430942,0.290417 l -0.299785,0.196735 0.655781,0.09368 c 0.234207,0.224839 0.449678,0.477783 0.637044,0.796305 0.384101,0.683886 0.693255,1.405245 0.749464,2.201551 0.121788,1.733136 -1.114828,3.082171 -1.545769,4.693519 -0.11242,0.430942 -0.290418,0.843147 -0.449679,1.274089 -0.149893,0.412205 -0.206102,0.82441 -0.224839,1.274089 -0.02811,0.702622 -0.281049,1.349035 -0.93683,1.70503 -0.843147,0.449679 -1.779977,0.571467 -2.688703,0.215471 -0.88062,-0.337259 -1.611347,-1.039881 -2.239023,-1.733135 -0.337259,-0.374732 -0.655782,-0.777569 -1.039882,-1.124197 -0.355995,-0.318522 -0.758832,-0.571466 -1.114828,-0.889988 -0.487151,-0.430942 -0.899357,-0.93683 -1.283457,-1.470823 0.02811,-0.05621 0.06558,-0.121788 0.09368,-0.187366 0,-0.0094 0.0094,-0.02811 0.01874,-0.04684 9.37e-4,0 0,0 0,0 0.0094,-0.04684 0.02811,-0.09368 0.03747,-0.149893 0.08432,-0.412205 0.04684,-0.843147 0.262312,-1.227247 0.215471,-0.384101 0.243576,-0.796306 0.402837,-1.199143 0.06558,-0.159261 0.234208,-0.243576 0.262313,-0.421573 0.02811,-0.16863 0.121788,-0.355996 0.196734,-0.524625 0.09368,-0.224839 0.290417,-0.412205 0.412205,-0.627676 0.04684,-0.09368 0.103052,-0.187366 0.159261,-0.290418 0.04684,0.327891 0.22484,0.637045 0.459047,0.871252 0.243576,0.243576 0.459047,0.524625 0.730728,0.749464 -0.04684,0.04684 -0.103052,0.187366 -0.11242,0.22484 -0.02811,0.187366 -0.159261,0.459046 -0.402837,0.44031 -0.206103,-0.0094 -0.187366,-0.271681 -0.318522,-0.384101 -0.149893,-0.0281 -0.281049,0.28105 -0.11242,0.28105 0.09368,0 0.309154,0.149892 0.309154,0.252944 0,0.187366 0.262313,0.103051 0.365364,0.06558 0.177998,-0.06558 0.318522,-0.262313 0.355995,-0.459047 0.01874,-0.103051 0.03747,-0.243576 0.01874,-0.355995 0.693254,0.524624 1.527033,0.889988 2.276497,1.330298 -0.196734,-0.711991 -0.449678,-1.423981 -0.599571,-2.154709 -0.03747,-0.224839 -0.04684,-0.44031 -0.01874,-0.655781 0.271681,0.04684 0.49652,-0.252944 0.60894,-0.49652 0.08431,0.627676 0.187366,1.264721 0.290417,1.901765 0.318522,-0.159261 0.637045,-0.318522 0.955567,-0.477783 0.140524,0.365364 0.524625,0.121788 0.674517,-0.09368 0.06558,-0.103052 0.159262,-0.262313 0.103052,-0.393469 -0.03747,-0.08432 -0.09368,-0.05621 -0.149893,0 0.168629,-0.49652 0.412205,-1.04925 0.3841,-1.583243 -0.0094,-0.234207 -0.05621,-0.477783 -0.112419,-0.721359 -0.01874,-0.103051 -0.01874,-0.524625 -0.11242,-0.562098 -0.168629,-0.06558 0.03747,-0.234207 0.131156,-0.262312 0.131157,-0.03747 0.281049,-0.03747 0.421574,-0.03747 0.32789,0 0.88062,0.131157 1.171037,-0.06558 0.05621,-0.03747 0.11242,-0.121788 0.159262,-0.215471 z m -28.610791,0.49652 c 0.121788,0.05621 0.187366,0.140524 0.187366,0.281049 0,0.08432 -0.03747,0.281049 -0.131156,0.112419 -0.06558,-0.112419 -0.04684,-0.262312 -0.04684,-0.402836 z m -0.618307,0.196734 c 0.06558,0 0.121788,0.01874 0.140524,0.07495 0.06558,0.21547 -0.290417,0.243575 -0.3747318,0.09368 -0.01874,-0.09368 0.1030508,-0.16863 0.2248388,-0.16863 z m 19.692168,0.346627 c -0.09368,0 -0.309154,0.384101 -0.337259,0.412206 -0.206102,0.187366 -0.234207,-0.252945 -0.346627,-0.309154 -0.337259,0 -0.131156,0.3841 0.0094,0.49652 0.309154,0.243575 0.711991,-0.103052 0.72136,-0.440311 0,-0.112419 -0.0094,-0.159261 -0.04684,-0.159261 z m -17.659247,0.09368 c 0.918093,0.22484 1.854923,0.740096 2.379548,1.555138 0.374732,0.580835 0.533993,1.508297 -0.03747,2.014185 -0.702623,0.618308 -1.864292,0.281049 -2.548178,-0.187366 -0.374732,-0.262312 -0.768201,-0.580835 -0.983672,-1.002408 -0.21547,-0.44031 -0.112419,-0.964935 -0.01874,-1.423982 0,0.159261 0.02811,0.393469 0.159261,0.505888 0.140524,0.121788 0.290417,0.02811 0.309154,-0.131156 0.02811,-0.177998 -0.55273,-0.505888 -0.290417,-0.655781 0.168629,0.168629 0.49652,0.918093 0.833778,0.637044 -0.0094,0.0094 -0.337258,-0.374732 -0.468415,-0.533993 -0.01874,-0.01874 -0.05621,-0.04684 -0.07495,-0.09368 0,0 0.05621,0.06558 0.07495,0.09368 0.159261,0.131157 0.355996,-0.04684 0.571467,0 -0.05621,-0.103051 -0.16863,-0.131156 -0.299786,-0.140524 0.08432,0 0.168629,-0.0094 0.224839,-0.06558 0.131156,-0.140525 -0.0281,-0.421574 0.159261,-0.533993 z m -1.761241,0.01874 c 0.04684,-2.73e-4 0.16863,0.196734 0.159261,0.252944 -0.112419,0.206103 -0.206102,-0.140524 -0.177997,-0.243576 0,-0.0094 0,-0.0094 0.0094,-0.0094 z m 16.310212,0 c -0.02811,0 -0.06558,0.04684 -0.112419,0.140524 -0.02811,0.05621 -0.08431,0.327891 -0.196735,0.281049 -0.112419,-0.04684 -0.206102,-0.224839 -0.177998,-0.355995 -0.05621,-0.103051 -0.281049,-0.05621 -0.281049,0.06558 0,0.131156 0.103052,0.271681 0.187366,0.365364 0.206103,0.234207 0.468416,0.149893 0.627677,-0.09368 0.09368,-0.140525 0.04684,-0.421574 -0.04684,-0.393469 z m -15.448328,0.01874 c 0.140524,0 0.27168,0.0094 0.337259,0.140524 0.07495,-0.01874 0.07495,0.09368 0.07495,0.09368 -0.131156,0 -0.281049,0.0094 -0.412205,0 -0.11242,-0.01874 -0.346627,-0.06558 -0.412205,-0.177998 0.103051,0 0.262312,-0.03747 0.402836,-0.04684 z m -1.6113475,0.03747 c 0.018737,0 0.046842,-6.61e-4 0.074946,0 -0.05621,0.112419 -0.1030513,0.243576 -0.2342075,0.299785 -0.065578,0.02811 -0.1405246,0.06558 -0.1873661,0.121788 -0.074946,0.09368 -0.1592611,0.346627 -0.3185222,0.309154 0.05621,0.177998 0.037473,0.505888 0.1592611,0.637045 0.1311562,0.140524 0.3466272,0.06558 0.4684151,-0.04684 0.074946,-0.07495 0.037473,-0.234207 0.084315,-0.337259 0.028105,-0.06558 0.074946,-0.121788 0.1124192,-0.187366 0.04684,-0.06558 0.1779979,-0.187366 0.1873659,-0.290417 0.02811,0.168629 0.206103,0.421574 0.03747,0.562098 -0.09368,0.08432 -0.4122055,0.355995 -0.1124199,0.430942 0.3372589,0.08432 0.2810489,-1.021145 0.2529439,-1.133565 l 0.09368,0 c 0.721359,1.086723 0.01874,2.407654 -0.6557808,3.325747 -0.6183079,0.93683 -1.7987138,1.442719 -2.6699658,0.637045 -0.402837,-0.365364 -0.5995713,-0.964935 -0.5527298,-1.498928 0.037473,-0.533994 0.4122053,-1.030513 0.7682007,-1.405246 0.3841004,-0.402836 0.9461984,-0.627676 1.4801916,-0.721359 0.2435758,-0.03747 0.4777833,-0.08431 0.6464127,-0.281049 0.1030513,-0.121788 0.1779978,-0.309154 0.3466272,-0.32789 z m 29.9223525,0.04684 c -0.0094,2.8e-4 -0.01874,3.3e-4 -0.02811,0 -0.159261,0.05621 -0.103051,0.299786 -0.140524,0.430942 -0.05621,0.196734 -0.299786,-0.252944 -0.355995,-0.290417 -0.11242,-0.196735 -0.187366,0.07495 -0.140525,0.177997 0.05621,0.159262 0.159261,0.346628 0.346627,0.374732 0.140525,0.01874 0.290417,-0.0094 0.327891,-0.168629 0.03747,-0.187366 0.09368,-0.196734 0.187366,-0.355995 0.05621,-0.09368 -0.09368,-0.177998 -0.187366,-0.16863 z M 9.8016182,31.249698 c 0.02811,0.0094 0.02811,0.08432 -0.028105,0.243576 -0.103051,0.262314 -0.2623121,0.562099 -0.4871514,0.740097 -0.2061026,0.03747 0.2904174,-0.749464 0.3466272,-0.833779 0.065578,-0.103051 0.1311562,-0.159261 0.1686292,-0.149893 z m 1.6394528,0.234208 c 0.07495,0 0.196734,0.02811 0.299785,0.03747 -0.103051,0 -0.215471,0 -0.299785,-0.03747 z m 10.829756,0.09368 c -0.402837,0.196734 0.196734,0.608939 0.421573,0.655781 0.196734,0.03747 0.281049,-0.206103 0.309154,-0.374732 0.01874,-0.121788 -0.11242,-0.196735 -0.215471,-0.103051 -0.07495,0.07495 -0.09368,0.196734 -0.140524,0.290417 l -0.374732,-0.468415 z m 13.096884,0.09368 c 0,0.05621 0.0094,0.112419 0.01874,0.177998 0,1.47e-4 0,-1.74e-4 0,0 -0.159261,0.0094 -0.149893,0.309153 -0.177998,0.421573 -0.03747,0.159261 -0.149893,0.281049 -0.290417,0.224839 0.08431,-0.290417 0.243576,-0.571466 0.449678,-0.833779 z m -7.344748,1.030513 c -0.430941,0 0,0.346627 0.16863,0.412205 0.140524,0.04684 0.337259,0.0094 0.402837,-0.140524 0.112419,-0.262313 -0.243576,-0.02811 -0.290418,0.0094 L 28.022963,32.701811 z M 25.11879,32.80483 c -0.05621,0.0094 -0.140524,0.07495 -0.177998,0.215471 -0.03747,0.131156 -0.112419,0.327891 -0.290417,0.234208 -0.07495,-0.03747 -0.06558,-0.215471 -0.187366,-0.187366 -0.09368,-0.16863 -0.177998,0.03747 -0.177998,0.140524 0,0.140525 0.131156,0.187366 0.243576,0.224839 0.374732,0.09368 0.49652,-0.06558 0.646413,-0.3841 0.07495,-0.168629 0.01874,-0.252944 -0.04684,-0.234207 z m 12.141318,0.571467 c -0.01874,0.08431 -0.04684,0.187366 -0.140524,0.21547 -0.04684,0.0094 -0.08432,0 -0.11242,-0.0094 0.09368,-0.04684 0.187366,-0.112419 0.262312,-0.196734 z m -7.438431,0.21547 c -0.02811,0 -0.06558,0.04684 -0.08432,0.140525 -0.0094,0.07495 -0.04684,0.196734 -0.159261,0.187366 -0.140524,-0.0094 -0.121788,-0.140524 -0.224839,-0.196734 -0.290417,0 -0.11242,0.206102 0.0094,0.309154 0.215471,0.168629 0.440311,0.112419 0.55273,-0.140525 0.06558,-0.168629 -0.01874,-0.318522 -0.09368,-0.299786 z m 10.970281,0.07495 c -0.0281,0 -0.05621,0.01874 -0.103052,0.05621 -0.08431,0.07495 -0.01874,0.224839 -0.168629,0.262312 -0.11242,0.01874 -0.234208,-0.02811 -0.337259,-0.07495 -0.262312,-0.05621 -0.121788,0.290417 0.0094,0.355995 0.206103,0.09368 0.505889,-0.08431 0.627677,-0.252944 0.07495,-0.103051 0.08431,-0.355995 -0.02811,-0.337259 z m -13.612142,0.861884 c -0.0094,0 -0.01874,0 -0.03747,0 -0.196734,0.07495 -0.11242,0.309154 -0.140524,0.477783 -0.02811,0.168629 -0.206103,0.355995 -0.384101,0.187366 -0.121788,-0.11242 -0.103051,-0.318522 -0.168629,-0.459047 -0.402837,0 0,0.580835 0.121788,0.693254 0.337259,0.318523 0.543361,-0.149892 0.618308,-0.430941 0.0094,-0.07495 0.168629,-0.505889 0,-0.477784 z m -2.92291,0.252944 c -0.03747,0 -0.07495,0.02811 -0.08431,0.09368 -0.03747,0.243576 -0.02811,0.3841 -0.271681,0.140524 -0.05621,-0.112419 -0.187366,-0.04684 -0.224839,0.03747 -0.05621,0.140525 0.140524,0.290418 0.243576,0.337259 0.234207,0.11242 0.393468,0.03747 0.477783,-0.196734 0.03747,-0.121788 0.09368,-0.252944 0,-0.365364 -0.02811,-0.03747 -0.08432,-0.06558 -0.131156,-0.05621 z m 14.61455,0.365363 c -0.08432,0 -0.121788,0.196735 -0.140525,0.262313 -0.0281,0.103051 -0.09368,0.252944 -0.234207,0.177998 -0.11242,-0.05621 -0.07495,-0.215471 -0.187366,-0.281049 -0.365364,0 -0.187366,0.281049 -0.02811,0.44031 0.299786,0.309154 0.477783,0 0.618308,-0.262313 0.01874,-0.04684 0.121788,-0.346627 -0.01874,-0.337259 z m -2.988488,0.459047 c -0.0094,8.62e-4 -0.0281,0 -0.04684,0.0094 -0.131156,0.05621 -0.140524,0.196734 -0.177997,0.32789 -0.04684,0.187366 -0.318523,-0.224839 -0.355996,-0.262312 -0.27168,-0.05621 -0.140524,0.32789 -0.01874,0.421573 0.281049,0.215471 0.618308,0.07495 0.683886,-0.262312 0.0094,-0.06558 0.01874,-0.234208 -0.06558,-0.224839 z m -6.970016,0.627676 c -0.234208,0.03747 -0.09368,0.468415 -0.309154,0.580835 0.03747,-0.149893 -0.03747,-0.0094 -0.09368,-0.09368 -0.03747,-0.06558 -0.0094,-0.140524 -0.09368,-0.187366 0.03747,-0.149893 -0.187366,-0.06558 -0.187366,0.04684 0,0.140524 0.140524,0.290417 0.252944,0.355995 0.224839,0.131156 0.44031,0.07495 0.515257,-0.177998 0.01874,-0.09368 0.149892,-0.515256 -0.02811,-0.524625 -0.01874,-9.11e-4 -0.02811,0 -0.04684,0 z m -2.595019,0.177998 c -0.07495,0 -0.140525,0.121788 -0.149893,0.196734 -0.04684,0.374732 -0.271681,0.206103 -0.468415,0 -0.309154,-0.06558 -0.03747,0.374732 0.07495,0.449679 0.299786,0.177998 0.487152,0 0.580835,-0.271681 0.02811,-0.08432 0.103051,-0.234207 0.03747,-0.32789 -0.01874,-0.03747 -0.04684,-0.05621 -0.07495,-0.05621 z m 5.208775,0.206103 c -0.281049,0.281049 0.08431,0.702622 0.421573,0.674517 0.16863,-0.0094 0.271681,-0.215471 0.299786,-0.374732 0.0094,-0.09368 -0.07495,-0.206102 -0.187366,-0.177997 -0.09368,0.01874 -0.131156,0.177997 -0.159261,0.252944 l -0.374732,-0.374732 z m 5.742768,0.562098 c -0.177997,0 -0.234207,0.159261 -0.06558,0.243576 0.177998,0.08431 0.402837,0.168629 0.60894,0.103051 0.06558,-0.01874 0.196734,-0.252944 0.06558,-0.262313 -0.103051,-0.0094 -0.271681,0.05621 -0.234208,0.187367 -0.103051,-0.06558 -0.281049,-0.09368 -0.374732,-0.215471 z m -2.801122,0.393468 c -0.04684,0 -0.140524,0.177998 -0.187366,0.309154 -0.0281,0.07495 -0.224839,0.337259 -0.318522,0.196735 -0.04684,-0.07495 -0.01874,-0.187366 -0.159261,-0.159261 -0.07495,-0.131157 -0.271681,0 -0.168629,0.09368 0.09368,0.09368 0.177997,0.224839 0.318522,0.262312 0.309154,0.07495 0.55273,-0.206103 0.571466,-0.49652 0.0094,-0.159261 0,-0.215471 -0.03747,-0.215471 z m 4.740361,0.243576 c -0.11242,0.0094 -0.03747,0.318522 -0.07495,0.393469 -0.08431,0.196734 -0.374732,-0.121788 -0.44031,-0.196734 -0.168629,-0.03747 -0.149893,0.206102 -0.07495,0.290417 0.08431,0.08431 0.224839,0.168629 0.355995,0.187366 0.140525,0.01874 0.290418,-0.06558 0.346627,-0.206103 0.0094,-0.01874 0.103052,-0.27168 0.09368,-0.290417 -0.0281,-0.05621 -0.121788,-0.187366 -0.206102,-0.177998 z m -2.604388,1.264721 c -0.11242,0 -0.103051,0.3841 -0.09368,0.430942 0,0.112419 -0.04684,0.412205 -0.224839,0.355995 -0.16863,-0.03747 -0.252944,-0.309154 -0.318522,-0.449678 -0.159262,-0.281049 -0.177998,0.140524 -0.121788,0.262312 0.07495,0.196734 0.243576,0.402837 0.459046,0.459047 0.374732,0.08432 0.393469,-0.449679 0.449679,-0.683886 0.01874,-0.11242 0.01874,-0.281049 -0.07495,-0.355996 -0.01874,-0.0094 -0.03747,-0.01874 -0.04684,-0.01874 z m -2.801122,0.459047 c -0.08431,0 -0.103051,0.177997 -0.09368,0.243575 0.0094,0.08431 0.140525,0.393469 -0.06558,0.384101 -0.159261,0 -0.103051,-0.224839 -0.224839,-0.290418 -0.355996,0 -0.08432,0.327891 0.06558,0.421574 0.271681,0.149893 0.477783,-0.103051 0.49652,-0.355995 0.0094,-0.121788 -0.0094,-0.309154 -0.131156,-0.384101 -0.0094,-0.0094 -0.02811,-0.0094 -0.03747,-0.0094 z m 4.824675,1.124196 c -0.06558,0.0094 -0.131156,0.103051 -0.131156,0.281049 0,0.103051 -0.0281,0.299785 -0.187366,0.243576 -0.121788,-0.03747 -0.07495,-0.215471 -0.187366,-0.281049 -0.365364,0 -0.08431,0.412205 0.09368,0.487151 0.262312,0.103052 0.487152,-0.27168 0.515256,-0.487151 0.01874,-0.177998 -0.0281,-0.252945 -0.09368,-0.243576 z m -2.641861,0.412205 c -0.09368,0 -0.112419,0.224839 -0.131156,0.346627 -0.03747,0.3841 -0.271681,-0.06558 -0.459047,-0.03747 -0.3841,0 0.08431,0.290417 0.206103,0.346627 0.140524,0.06558 0.290417,0.103051 0.402837,-0.03747 0.09368,-0.131156 0.215471,-0.355996 0.103051,-0.515257 -0.04684,-0.06558 -0.08431,-0.09368 -0.112419,-0.09368 z"
 id="path5575"
 style="fill:#30251c;fill-opacity:1" />
</svg>
