<?xml version="1.0" encoding="UTF-8" standalone="no"?>
<svg
   xmlns:dc="http://purl.org/dc/elements/1.1/"
   xmlns:cc="http://creativecommons.org/ns#"
   xmlns:rdf="http://www.w3.org/1999/02/22-rdf-syntax-ns#"
   xmlns:svg="http://www.w3.org/2000/svg"
   xmlns="http://www.w3.org/2000/svg"
   width="100%"
   height="100%"
   id="bubble"
   version="1.1"
   viewBox="-24 -24 48 48">
  <metadata
     id="metadata19">
    <rdf:RDF>
      <cc:Work
         rdf:about="">
        <dc:format>image/svg+xml</dc:format>
        <dc:type
           rdf:resource="http://purl.org/dc/dcmitype/StillImage" />
        <dc:title></dc:title>
      </cc:Work>
    </rdf:RDF>
  </metadata>
  <defs
     id="defs17" />
  <circle
     class="circle1"
     cx="0"
     cy="0"
     r="19"
     style="fill:#885350;stroke:none;fill-opacity:1"
     id="circle3" />
  <circle
     class="circle2"
     cx="0"
     cy="0"
     r="16"
     style="fill:#884f47;stroke:none;fill-opacity:1"
     id="circle5" />
  <path
     d="M 0,-19.5 A 19.5,19.5 0 0 0 -19.5,0 19.5,19.5 0 0 0 -19.45,1.22 21.89,19.97 0 0 0 0,12.14 21.89,19.97 0 0 0 19.43,1.32 19.5,19.5 0 0 0 19.5,0 19.5,19.5 0 0 0 0,-19.5 Z"
     class="path1"
     style="fill:#6f4640;fill-opacity:0.37000003;stroke:none"
     id="path7" />
  <circle
     r="9.78"
     cy="-6.75"
     cx="-4.45"
     class="circle3"
     style="fill:#814e4b;stroke:none;fill-opacity:1"
     id="circle9" />
  <path
     class="path2"
     d="M -3.62,-14.32 A 3.53,3.53 0 0 0 -7.16,-10.78 3.53,3.53 0 0 0 -3.62,-7.25 3.53,3.53 0 0 0 -0.08,-10.78 3.53,3.53 0 0 0 -3.62,-14.32 Z m -6.25,6.25 a 2,2 0 0 0 -2,2 2,2 0 0 0 2,2 2,2 0 0 0 2,-2 2,2 0 0 0 -2,-2 z M 13.74,-0.57 A 2,2 0 0 0 11.73,1.43 2,2 0 0 0 13.74,3.44 2,2 0 0 0 15.75,1.43 2,2 0 0 0 13.74,-0.57 Z"
     style="fill:#9a6356;stroke:none;fill-opacity:1"
     id="path11" />
  <circle
     r="19"
     cy="0"
     cx="0"
     class="circle4"
     style="fill:none;stroke:#7b4750;stroke-width:2;stroke-opacity:1"
     id="circle13" />
</svg>
