<?xml version="1.0" encoding="UTF-8" standalone="no"?>

<svg xmlns:svg="http://www.w3.org/2000/svg" xmlns="http://www.w3.org/2000/svg" version="1.0" width="100%" height="100%" viewBox="0 0 48 48" id="svg2383">
<defs id="defs2385"/>
<path d="M 18.41,-0.01 C 18.31,0.00 16.80,6.71 15.77,11.22 C 11.27,10.03 5.60,8.51 5.53,8.58 C 5.47,8.65 7.43,13.55 9.09,17.70 C 4.91,19.43 0.06,21.42 0.05,21.51 C 0.04,21.61 4.99,24.56 8.90,26.89 C 6.33,30.87 2.56,36.63 2.61,36.72 C 2.66,36.81 9.37,36.37 13.99,36.07 C 14.35,40.53 14.77,45.61 14.85,45.64 C 14.93,45.68 18.39,42.63 21.59,39.84 C 24.55,43.47 28.39,48.20 28.49,48.18 C 28.60,48.16 30.40,40.98 31.54,36.52 C 36.12,37.61 42.28,39.08 42.35,39.00 C 42.41,38.94 40.52,34.50 38.82,30.52 C 42.90,28.95 47.38,27.21 47.39,27.12 C 47.40,27.02 42.15,23.74 38.25,21.28 C 40.72,17.25 44.61,10.92 44.55,10.82 C 44.50,10.74 38.37,11.29 33.78,11.70 C 33.55,7.37 33.29,2.68 33.21,2.64 C 33.13,2.61 29.26,5.81 25.89,8.61 C 22.82,5.01 18.51,-0.04 18.41,-0.01 z" id="p3169" style="opacity:1;fill:#149000;fill-opacity:0.51;fill-rule:nonzero;stroke:none;marker:none;visibility:visible;display:inline;overflow:visible;enable-background:accumulate"/>
<path d="M 15.36,1.86 C 15.27,1.89 14.75,8.49 14.39,12.93 C 9.94,12.40 4.33,11.73 4.28,11.81 C 4.22,11.89 6.77,16.28 8.91,20.00 C 5.17,22.22 0.82,24.78 0.83,24.87 C 0.83,24.96 5.94,27.10 9.99,28.79 C 8.08,32.93 5.28,38.92 5.34,39.01 C 5.40,39.09 11.73,37.75 16.09,36.83 C 17.04,41.03 18.13,45.81 18.22,45.83 C 18.30,45.85 21.18,42.47 23.84,39.38 C 27.15,42.44 31.46,46.41 31.55,46.38 C 31.65,46.35 32.38,39.27 32.86,34.86 C 37.37,35.28 43.44,35.83 43.50,35.75 C 43.54,35.68 41.14,31.72 38.97,28.15 C 42.64,26.10 46.67,23.83 46.67,23.74 C 46.67,23.65 41.22,21.24 37.17,19.43 C 38.97,15.26 41.81,8.70 41.74,8.61 C 41.68,8.54 35.92,9.90 31.60,10.92 C 30.79,6.83 29.90,2.40 29.82,2.38 C 29.74,2.35 26.50,5.92 23.67,9.05 C 20.25,6.05 15.46,1.82 15.36,1.86 z" id="p2386" style="opacity:1;fill:#1fda00;fill-opacity:1;fill-rule:nonzero;stroke:#20ac00;stroke-width:0.57;stroke-linecap:round;stroke-linejoin:round;marker:none;stroke-miterlimit:4;stroke-dasharray:none;stroke-dashoffset:0;stroke-opacity:1;visibility:visible;display:inline;overflow:visible;enable-background:accumulate"/>
<path d="M 17.05,6.33 C 16.97,6.36 16.56,11.63 16.27,15.18 C 12.71,14.76 8.23,14.22 8.19,14.29 C 8.15,14.34 10.18,17.86 11.89,20.83 C 8.90,22.60 5.43,24.65 5.43,24.72 C 5.44,24.79 9.52,26.50 12.75,27.85 C 11.23,31.16 8.99,35.95 9.04,36.01 C 9.09,36.08 14.15,35.01 17.63,34.27 C 18.39,37.63 19.26,41.45 19.33,41.47 C 19.39,41.48 21.69,38.79 23.82,36.31 C 26.47,38.76 29.91,41.93 29.98,41.91 C 30.06,41.88 30.65,36.22 31.03,32.70 C 34.63,33.03 39.48,33.48 39.53,33.41 C 39.56,33.36 37.64,30.19 35.91,27.34 C 38.84,25.70 42.06,23.89 42.06,23.82 C 42.06,23.74 37.71,21.82 34.47,20.37 C 35.91,17.04 38.18,11.79 38.13,11.73 C 38.08,11.67 33.47,12.76 30.03,13.57 C 29.37,10.31 28.66,6.76 28.60,6.75 C 28.53,6.73 25.94,9.58 23.69,12.08 C 20.95,9.68 17.13,6.30 17.05,6.33 z" id="p3167" style="opacity:1;fill:#79ff00;fill-opacity:1;fill-rule:nonzero;stroke:none;marker:none;visibility:visible;display:inline;overflow:visible;enable-background:accumulate"/>
<path d="M 17.90,8.60 C 17.84,8.62 17.48,13.22 17.22,16.32 C 14.12,15.95 10.21,15.48 10.17,15.54 C 10.14,15.59 11.91,18.66 13.40,21.25 C 10.79,22.80 7.76,24.58 7.77,24.64 C 7.77,24.71 11.33,26.20 14.15,27.37 C 12.82,30.26 10.87,34.44 10.91,34.50 C 10.95,34.55 15.37,33.62 18.41,32.98 C 19.07,35.91 19.83,39.24 19.89,39.26 C 19.95,39.27 21.96,36.92 23.81,34.76 C 26.12,36.89 29.13,39.66 29.19,39.64 C 29.26,39.62 29.77,34.68 30.10,31.61 C 33.25,31.90 37.48,32.29 37.52,32.23 C 37.55,32.18 35.87,29.42 34.36,26.93 C 36.92,25.50 39.73,23.92 39.73,23.86 C 39.73,23.79 35.93,22.11 33.11,20.85 C 34.36,17.94 36.34,13.36 36.29,13.31 C 36.25,13.25 32.23,14.20 29.23,14.92 C 28.66,12.07 28.04,8.98 27.98,8.96 C 27.92,8.94 25.66,11.43 23.69,13.61 C 21.31,11.52 17.97,8.57 17.90,8.60 z" id="p3171" style="opacity:1;fill:#125d00;fill-opacity:1;fill-rule:nonzero;stroke:none;marker:none;visibility:visible;display:inline;overflow:visible;enable-background:accumulate"/>
<path d="M 24.31,13.81 C 23.97,15.20 23.50,16.36 22.90,17.31 C 22.30,18.26 21.46,19.07 20.37,19.75 L 20.37,24.81 C 21.11,24.37 21.73,23.91 22.21,23.43 C 22.71,22.96 23.19,22.32 23.71,21.56 L 23.71,36.34 L 26.96,36.34 L 26.96,13.81 L 24.31,13.81 z M 35.21,13.81 C 33.60,13.81 32.41,14.62 31.62,16.31 C 30.84,17.99 30.43,20.97 30.43,25.18 C 30.43,26.90 30.53,28.45 30.68,29.87 C 30.84,31.28 31.03,32.40 31.31,33.21 C 31.69,34.36 32.18,35.24 32.78,35.84 C 32.81,35.53 32.84,35.16 32.87,34.87 C 34.54,35.02 36.31,35.19 38.03,35.34 C 38.32,34.95 38.57,34.48 38.78,33.93 C 39.20,32.81 39.48,31.22 39.65,29.31 C 39.41,28.90 39.21,28.55 38.96,28.15 C 39.25,27.99 39.49,27.85 39.78,27.68 C 39.81,26.87 39.84,26.02 39.84,25.09 C 39.84,23.49 39.76,21.98 39.59,20.5 C 38.76,20.12 37.96,19.78 37.18,19.43 C 37.60,18.46 38.08,17.33 38.56,16.21 C 38.49,16.07 38.41,15.92 38.34,15.78 C 38.03,15.18 37.62,14.70 37.12,14.34 C 36.62,13.97 35.99,13.81 35.21,13.81 z M 35.12,17.90 C 35.64,17.90 36.02,18.41 36.28,19.43 C 36.54,20.44 36.65,22.39 36.65,25.34 C 36.65,27.35 36.61,28.83 36.5,29.78 C 36.39,30.72 36.20,31.43 35.96,31.87 C 35.73,32.30 35.44,32.53 35.12,32.53 C 34.63,32.53 34.26,32.02 34,31 C 33.74,29.96 33.62,28.01 33.62,25.18 C 33.62,22.39 33.73,20.49 33.96,19.46 C 34.20,18.42 34.59,17.90 35.12,17.90 z M 8.56,20.28 L 11.43,27.93 L 8.40,36.34 L 11.87,36.34 L 13.68,31.18 L 15.21,36.34 L 18.93,36.34 L 15.90,27.93 L 18.75,20.28 L 15.21,20.28 L 13.68,24.78 L 12.37,20.28 L 8.56,20.28 z" id="p3308" style="font-size:22.30px;font-style:normal;font-variant:normal;font-weight:normal;font-stretch:normal;opacity:1;fill:#0b3c00;fill-opacity:0.56;fill-rule:evenodd;stroke:none;marker:none;visibility:visible;display:inline;overflow:visible;enable-background:accumulate;font-family:Arial Black;-inkscape-font-specification:Arial Black"/>
<path d="M 9.57,12.76 L 14.83,12.76 L 16.68,15.98 L 18.81,12.76 L 23.70,12.76 L 19.76,18.27 L 23.98,24.33 L 18.81,24.33 L 16.68,20.60 L 14.16,24.33 L 9.36,24.33 L 13.56,18.27 L 9.57,12.76 M 35.11,8.08 L 35.11,24.33 L 30.62,24.33 L 30.62,13.68 C 29.89,14.23 29.19,14.68 28.51,15.02 C 27.83,15.36 26.98,15.69 25.96,16.00 L 25.96,12.37 C 27.47,11.88 28.64,11.29 29.47,10.61 C 30.31,9.93 30.96,9.09 31.44,8.08 L 35.11,8.08 M 39.95,16.28 C 39.95,13.24 40.50,11.12 41.59,9.90 C 42.68,8.69 44.35,8.08 46.59,8.08 C 47.66,8.08 48.54,8.22 49.23,8.49 C 49.92,8.75 50.49,9.09 50.92,9.52 C 51.36,9.94 51.70,10.39 51.95,10.86 C 52.20,11.33 52.40,11.87 52.56,12.50 C 52.85,13.69 53.00,14.93 53.00,16.22 C 53.00,19.12 52.51,21.24 51.53,22.58 C 50.55,23.93 48.86,24.60 46.47,24.60 C 45.12,24.60 44.04,24.38 43.21,23.96 C 42.38,23.53 41.70,22.90 41.17,22.07 C 40.79,21.48 40.49,20.68 40.27,19.66 C 40.06,18.64 39.95,17.51 39.95,16.28 M 44.35,16.29 C 44.35,18.32 44.53,19.71 44.89,20.46 C 45.25,21.20 45.77,21.57 46.46,21.57 C 46.91,21.57 47.30,21.41 47.62,21.10 C 47.96,20.78 48.20,20.28 48.35,19.60 C 48.51,18.92 48.59,17.85 48.59,16.41 C 48.59,14.29 48.41,12.86 48.05,12.14 C 47.69,11.40 47.15,11.04 46.44,11.04 C 45.70,11.04 45.17,11.41 44.84,12.16 C 44.52,12.90 44.35,14.27 44.35,16.29" transform="scale(0.71,1.38)" id="text3300" style="font-size:22.30px;font-style:normal;font-variant:normal;font-weight:normal;font-stretch:normal;fill:#29d800;fill-opacity:1;fill-rule:evenodd;stroke:#b1f14d;stroke-width:0.60;stroke-linecap:butt;stroke-linejoin:round;marker:none;stroke-miterlimit:4;stroke-dashoffset:0;stroke-opacity:1;visibility:visible;display:inline;overflow:visible;enable-background:accumulate;font-family:Arial Black;-inkscape-font-specification:Arial Black"/>
</svg>
