<?xml version="1.0" encoding="UTF-8" standalone="no"?>

<svg xmlns:svg="http://www.w3.org/2000/svg" xmlns="http://www.w3.org/2000/svg" version="1.0" width="100%" height="100%" viewBox="0 0 48 48" id="svg2383">
<defs id="defs2385"/>
<path d="M 18.41,-0.01 C 18.31,0.00 16.80,6.71 15.77,11.22 C 11.27,10.03 5.60,8.51 5.53,8.58 C 5.47,8.65 7.43,13.55 9.09,17.70 C 4.91,19.43 0.06,21.42 0.05,21.51 C 0.04,21.61 4.99,24.56 8.90,26.89 C 6.33,30.87 2.56,36.63 2.61,36.72 C 2.66,36.81 9.37,36.37 13.99,36.07 C 14.35,40.53 14.77,45.61 14.85,45.64 C 14.93,45.68 18.39,42.63 21.59,39.84 C 24.55,43.47 28.39,48.20 28.49,48.18 C 28.60,48.16 30.40,40.98 31.54,36.52 C 36.12,37.61 42.28,39.08 42.35,39.00 C 42.41,38.94 40.52,34.50 38.82,30.52 C 42.90,28.95 47.38,27.21 47.39,27.12 C 47.40,27.02 42.15,23.74 38.25,21.28 C 40.72,17.25 44.61,10.92 44.55,10.82 C 44.50,10.74 38.37,11.29 33.78,11.70 C 33.55,7.37 33.29,2.68 33.21,2.64 C 33.13,2.61 29.26,5.81 25.89,8.61 C 22.82,5.01 18.51,-0.04 18.41,-0.01 z" id="p3169" style="opacity:1;fill:#149000;fill-opacity:0.51;fill-rule:nonzero;stroke:none;marker:none;visibility:visible;display:inline;overflow:visible;enable-background:accumulate"/>
<path d="M 15.36,1.86 C 15.27,1.89 14.75,8.49 14.39,12.93 C 9.94,12.40 4.33,11.73 4.28,11.81 C 4.22,11.89 6.77,16.28 8.91,20.00 C 5.17,22.22 0.82,24.78 0.83,24.87 C 0.83,24.96 5.94,27.10 9.99,28.79 C 8.08,32.93 5.28,38.92 5.34,39.01 C 5.40,39.09 11.73,37.75 16.09,36.83 C 17.04,41.03 18.13,45.81 18.22,45.83 C 18.30,45.85 21.18,42.47 23.84,39.38 C 27.15,42.44 31.46,46.41 31.55,46.38 C 31.65,46.35 32.38,39.27 32.86,34.86 C 37.37,35.28 43.44,35.83 43.50,35.75 C 43.54,35.68 41.14,31.72 38.97,28.15 C 42.64,26.10 46.67,23.83 46.67,23.74 C 46.67,23.65 41.22,21.24 37.17,19.43 C 38.97,15.26 41.81,8.70 41.74,8.61 C 41.68,8.54 35.92,9.90 31.60,10.92 C 30.79,6.83 29.90,2.40 29.82,2.38 C 29.74,2.35 26.50,5.92 23.67,9.05 C 20.25,6.05 15.46,1.82 15.36,1.86 z" id="p2386" style="opacity:1;fill:#1fda00;fill-opacity:1;fill-rule:nonzero;stroke:#20ac00;stroke-width:0.57;stroke-linecap:round;stroke-linejoin:round;marker:none;stroke-miterlimit:4;stroke-dasharray:none;stroke-dashoffset:0;stroke-opacity:1;visibility:visible;display:inline;overflow:visible;enable-background:accumulate"/>
<path d="M 17.05,6.33 C 16.97,6.36 16.56,11.63 16.27,15.18 C 12.71,14.76 8.23,14.22 8.19,14.29 C 8.15,14.34 10.18,17.86 11.89,20.83 C 8.90,22.60 5.43,24.65 5.43,24.72 C 5.44,24.79 9.52,26.50 12.75,27.85 C 11.23,31.16 8.99,35.95 9.04,36.01 C 9.09,36.08 14.15,35.01 17.63,34.27 C 18.39,37.63 19.26,41.45 19.33,41.47 C 19.39,41.48 21.69,38.79 23.82,36.31 C 26.47,38.76 29.91,41.93 29.98,41.91 C 30.06,41.88 30.65,36.22 31.03,32.70 C 34.63,33.03 39.48,33.48 39.53,33.41 C 39.56,33.36 37.64,30.19 35.91,27.34 C 38.84,25.70 42.06,23.89 42.06,23.82 C 42.06,23.74 37.71,21.82 34.47,20.37 C 35.91,17.04 38.18,11.79 38.13,11.73 C 38.08,11.67 33.47,12.76 30.03,13.57 C 29.37,10.31 28.66,6.76 28.60,6.75 C 28.53,6.73 25.94,9.58 23.69,12.08 C 20.95,9.68 17.13,6.30 17.05,6.33 z" id="p3167" style="opacity:1;fill:#79ff00;fill-opacity:1;fill-rule:nonzero;stroke:none;marker:none;visibility:visible;display:inline;overflow:visible;enable-background:accumulate"/>
<path d="M 17.90,8.60 C 17.84,8.62 17.48,13.22 17.22,16.32 C 14.12,15.95 10.21,15.48 10.17,15.54 C 10.14,15.59 11.91,18.66 13.40,21.25 C 10.79,22.80 7.76,24.58 7.77,24.64 C 7.77,24.71 11.33,26.20 14.15,27.37 C 12.82,30.26 10.87,34.44 10.91,34.50 C 10.95,34.55 15.37,33.62 18.41,32.98 C 19.07,35.91 19.83,39.24 19.89,39.26 C 19.95,39.27 21.96,36.92 23.81,34.76 C 26.12,36.89 29.13,39.66 29.19,39.64 C 29.26,39.62 29.77,34.68 30.10,31.61 C 33.25,31.90 37.48,32.29 37.52,32.23 C 37.55,32.18 35.87,29.42 34.36,26.93 C 36.92,25.50 39.73,23.92 39.73,23.86 C 39.73,23.79 35.93,22.11 33.11,20.85 C 34.36,17.94 36.34,13.36 36.29,13.31 C 36.25,13.25 32.23,14.20 29.23,14.92 C 28.66,12.07 28.04,8.98 27.98,8.96 C 27.92,8.94 25.66,11.43 23.69,13.61 C 21.31,11.52 17.97,8.57 17.90,8.60 z" id="p3171" style="opacity:1;fill:#125d00;fill-opacity:1;fill-rule:nonzero;stroke:none;marker:none;visibility:visible;display:inline;overflow:visible;enable-background:accumulate"/>
<path d="M 31.84,14.06 C 30.42,14.06 29.30,14.31 28.5,14.84 C 27.69,15.35 27.09,16.11 26.65,17.09 C 26.21,18.06 25.88,19.41 25.71,21.15 L 29.96,21.65 C 30.08,20.40 30.31,19.52 30.65,19.03 C 31.00,18.53 31.42,18.28 31.96,18.28 C 32.48,18.28 32.91,18.51 33.25,19 C 33.59,19.47 33.78,20.07 33.78,20.75 C 33.78,21.37 33.59,22.02 33.25,22.71 C 32.90,23.41 32.11,24.43 30.87,25.78 C 28.85,27.97 27.48,29.88 26.75,31.5 C 26.01,33.10 25.58,34.79 25.43,36.62 L 32.68,36.62 C 32.74,36.04 32.81,35.39 32.87,34.87 C 34.56,35.03 36.36,35.18 38.09,35.34 L 38.09,31.62 L 31.5,31.62 C 31.88,31.06 32.21,30.59 32.5,30.25 C 32.79,29.90 33.36,29.32 34.21,28.46 C 35.64,26.99 36.61,25.63 37.15,24.40 C 37.70,23.17 37.96,21.88 37.96,20.53 C 37.96,20.27 37.95,20.02 37.93,19.78 C 37.68,19.66 37.43,19.54 37.18,19.43 C 37.34,19.08 37.52,18.63 37.68,18.25 C 37.57,17.84 37.45,17.46 37.28,17.09 C 36.81,16.06 36.14,15.30 35.31,14.81 C 34.49,14.31 33.32,14.06 31.84,14.06 z M 11,20.56 L 14.81,28.21 L 10.81,36.62 L 15.37,36.62 L 17.75,31.46 L 19.78,36.62 L 24.71,36.62 L 20.68,28.21 L 24.43,20.56 L 19.78,20.56 L 17.75,25.03 L 16,20.56 L 11,20.56 z" id="p3217" style="font-size:25.65px;font-style:normal;font-variant:normal;font-weight:normal;font-stretch:normal;opacity:1;fill:#0b3c00;fill-opacity:0.56;fill-rule:evenodd;stroke:none;marker:none;visibility:visible;display:inline;overflow:visible;enable-background:accumulate;font-family:Arial Black;-inkscape-font-specification:Arial Black"/>
<path d="M 11.37,14.71 L 17.42,14.71 L 19.53,18.42 L 21.99,14.71 L 27.61,14.71 L 23.08,21.05 L 27.94,28.01 L 21.99,28.01 L 19.53,23.73 L 16.64,28.01 L 11.11,28.01 L 15.95,21.05 L 11.37,14.71 M 44.10,28.01 L 28.79,28.01 C 28.97,26.50 29.50,25.08 30.38,23.75 C 31.27,22.42 32.94,20.84 35.39,19.03 C 36.89,17.92 37.84,17.08 38.26,16.50 C 38.68,15.93 38.89,15.38 38.89,14.86 C 38.89,14.30 38.68,13.83 38.26,13.43 C 37.85,13.03 37.33,12.83 36.71,12.83 C 36.06,12.83 35.52,13.04 35.10,13.45 C 34.69,13.85 34.42,14.58 34.28,15.61 L 29.17,15.20 C 29.37,13.76 29.73,12.64 30.27,11.84 C 30.80,11.03 31.55,10.41 32.52,9.99 C 33.50,9.55 34.85,9.34 36.57,9.34 C 38.36,9.34 39.76,9.54 40.75,9.95 C 41.75,10.36 42.54,10.99 43.11,11.84 C 43.68,12.69 43.97,13.63 43.97,14.69 C 43.97,15.80 43.64,16.87 42.98,17.89 C 42.33,18.91 41.14,20.03 39.41,21.25 C 38.39,21.96 37.70,22.46 37.35,22.74 C 37.00,23.02 36.60,23.40 36.13,23.85 L 44.10,23.85 L 44.10,28.01" transform="scale(0.82,1.20)" id="text3212" style="font-size:25.65px;font-style:normal;font-variant:normal;font-weight:normal;font-stretch:normal;opacity:1;fill:#29d800;fill-opacity:1;fill-rule:evenodd;stroke:#b1f14d;stroke-width:0.60;stroke-linecap:butt;stroke-linejoin:round;marker:none;stroke-miterlimit:4;stroke-dasharray:none;stroke-dashoffset:0;stroke-opacity:1;visibility:visible;display:inline;overflow:visible;enable-background:accumulate;font-family:Arial Black;-inkscape-font-specification:Arial Black"/>
</svg>
