<?xml version="1.0" encoding="UTF-8" standalone="no"?>

<svg xmlns:svg="http://www.w3.org/2000/svg" xmlns="http://www.w3.org/2000/svg" version="1.0" width="100%" height="100%" viewBox="0 0 48 48" id="svg2383">
<defs id="defs2385"/>
<path d="M 40.10,-3.73 L 40.22,-2.77 L 40.44,-2.16 L 40.57,-1.96 L 39.80,-1.37 L 39.64,-1.56 L 39.12,-1.94 L 38.22,-2.31 L 37.78,-1.88 L 38.14,-0.98 L 38.51,-0.44 L 38.70,-0.28 L 38.10,0.47 L 37.91,0.34 L 37.30,0.10 L 36.33,-0.02 L 36.02,0.52 L 36.60,1.29 L 37.11,1.70 L 37.32,1.81 L 36.94,2.71 L 36.71,2.62 L 36.07,2.55 L 35.11,2.68 L 34.94,3.28 L 35.70,3.88 L 36.29,4.15 L 36.53,4.19 L 36.39,5.14 L 36.15,5.13 L 35.51,5.23 L 34.61,5.59 L 34.60,6.22 L 35.50,6.61 L 36.14,6.71 L 36.38,6.69 L 36.50,7.66 L 36.26,7.70 L 35.66,7.97 L 34.89,8.56 L 35.05,9.16 L 36.01,9.29 L 36.66,9.24 L 36.89,9.16 L 37.25,10.06 L 37.03,10.16 L 36.53,10.57 L 35.94,11.33 L 36.25,11.88 L 37.21,11.76 L 37.82,11.54 L 38.02,11.41 L 38.61,12.18 L 38.42,12.34 L 38.04,12.87 L 37.66,13.76 L 38.10,14.20 L 39.00,13.84 L 39.53,13.47 L 39.69,13.29 L 40.46,13.89 L 40.33,14.08 L 40.09,14.68 L 39.96,15.65 L 40.50,15.97 L 41.27,15.38 L 41.69,14.88 L 41.80,14.67 L 42.69,15.04 L 42.61,15.28 L 42.53,15.92 L 42.67,16.88 L 43.27,17.04 L 43.87,16.28 L 44.13,15.70 L 44.18,15.45 L 45.14,15.59 L 45.13,15.82 L 45.23,16.47 L 45.59,17.37 L 46.22,17.38 L 46.60,16.48 L 46.71,15.83 L 46.69,15.60 L 47.66,15.48 L 47.70,15.72 L 47.97,16.31 L 48.56,17.08 L 49.16,16.93 L 49.29,15.97 L 49.23,15.32 L 49.16,15.09 L 50.06,14.73 L 50.16,14.94 L 50.57,15.45 L 51.33,16.04 L 51.88,15.73 L 51.76,14.77 L 51.54,14.16 L 51.41,13.96 L 52.18,13.37 L 52.34,13.56 L 52.86,13.94 L 53.76,14.31 L 54.20,13.88 L 53.84,12.98 L 53.47,12.44 L 53.28,12.28 L 53.88,11.52 L 54.07,11.65 L 54.68,11.89 L 55.65,12.02 L 55.96,11.47 L 55.38,10.70 L 54.87,10.29 L 54.66,10.18 L 55.04,9.28 L 55.27,9.37 L 55.91,9.44 L 56.87,9.31 L 57.04,8.71 L 56.28,8.11 L 55.69,7.84 L 55.45,7.80 L 55.58,6.84 L 55.82,6.85 L 56.46,6.75 L 57.36,6.39 L 57.38,5.76 L 56.48,5.37 L 55.83,5.27 L 55.60,5.29 L 55.48,4.32 L 55.72,4.28 L 56.31,4.01 L 57.08,3.42 L 56.92,2.82 L 55.96,2.69 L 55.32,2.74 L 55.08,2.82 L 54.72,1.92 L 54.94,1.82 L 55.44,1.41 L 56.03,0.65 L 55.72,0.10 L 54.77,0.22 L 54.16,0.44 L 53.96,0.57 L 53.37,-0.19 L 53.55,-0.35 L 53.93,-0.88 L 54.31,-1.77 L 53.88,-2.21 L 52.98,-1.85 L 52.44,-1.48 L 52.28,-1.29 L 51.51,-1.89 L 51.65,-2.08 L 51.89,-2.69 L 52.02,-3.66 L 51.47,-3.97 L 50.70,-3.39 L 50.28,-2.89 L 50.17,-2.67 L 49.29,-3.04 L 49.37,-3.28 L 49.45,-3.92 L 49.31,-4.88 L 48.71,-5.04 L 48.11,-4.28 L 47.85,-3.70 L 47.80,-3.45 L 46.84,-3.59 L 46.85,-3.82 L 46.75,-4.47 L 46.39,-5.37 L 45.76,-5.38 L 45.38,-4.48 L 45.27,-3.83 L 45.29,-3.60 L 44.32,-3.48 L 44.28,-3.72 L 44.01,-4.31 L 43.42,-5.08 L 42.82,-4.93 L 42.69,-3.97 L 42.75,-3.32 L 42.82,-3.09 L 41.92,-2.73 L 41.82,-2.94 L 41.41,-3.45 L 40.65,-4.04 L 40.10,-3.73 z M 41.71,0.96 L 44.29,5.51 L 39.72,8.11 C 38.85,5.55 39.64,2.70 41.71,0.96 z M 43.86,-0.25 C 46.41,-1.14 49.26,-0.35 51.02,1.69 L 46.44,4.29 L 43.86,-0.25 z M 40.94,10.26 L 45.52,7.67 L 48.12,12.25 C 45.55,13.13 42.69,12.33 40.94,10.26 z M 47.67,6.45 L 52.24,3.85 C 53.12,6.41 52.34,9.27 50.27,11.03 L 47.67,6.45 z" id="path5" style="opacity:0.3;fill:#808080"/>
<path d="M 29.32,1.27 L 28.91,2.18 L 28.88,2.51 L 28.96,3.06 L 27.98,3.32 L 27.77,2.8 L 27.58,2.54 L 26.77,1.96 L 26.3,2.23 L 26.4,3.23 L 26.53,3.52 L 26.88,3.96 L 26.16,4.68 L 25.72,4.33 L 25.43,4.2 L 24.43,4.1 L 24.16,4.57 L 24.74,5.38 L 25,5.57 L 25.52,5.78 L 25.26,6.76 L 24.71,6.68 L 24.38,6.71 L 23.47,7.12 L 23.47,7.67 L 24.38,8.08 L 24.71,8.11 L 25.26,8.03 L 25.52,9.01 L 25,9.22 L 24.74,9.41 L 24.16,10.22 L 24.43,10.69 L 25.43,10.59 L 25.72,10.46 L 26.16,10.11 L 26.88,10.83 L 26.53,11.27 L 26.4,11.56 L 26.3,12.56 L 26.77,12.83 L 27.58,12.25 L 27.77,11.99 L 27.98,11.47 L 28.96,11.73 L 28.88,12.28 L 28.91,12.61 L 29.32,13.52 L 29.87,13.52 L 30.28,12.61 L 30.31,12.28 L 30.23,11.73 L 31.21,11.47 L 31.42,11.99 L 31.61,12.25 L 32.42,12.83 L 32.89,12.56 L 32.79,11.56 L 32.66,11.27 L 32.31,10.83 L 33.03,10.11 L 33.47,10.46 L 33.76,10.59 L 34.76,10.69 L 35.03,10.22 L 34.45,9.41 L 34.19,9.22 L 33.67,9.01 L 33.93,8.03 L 34.48,8.11 L 34.81,8.08 L 35.72,7.67 L 35.72,7.12 L 34.81,6.71 L 34.48,6.68 L 33.93,6.76 L 33.67,5.78 L 34.19,5.57 L 34.45,5.38 L 35.03,4.57 L 34.76,4.1 L 33.76,4.2 L 33.47,4.33 L 33.03,4.68 L 32.31,3.96 L 32.66,3.52 L 32.79,3.23 L 32.89,2.23 L 32.42,1.96 L 31.61,2.54 L 31.42,2.8 L 31.21,3.32 L 30.23,3.06 L 30.31,2.51 L 30.28,2.18 L 29.87,1.27 L 29.32,1.27 z M 29.44,4.38 C 29.49,4.38 29.54,4.38 29.6,4.38 C 31.26,4.38 32.61,5.73 32.61,7.4 C 32.61,9.06 31.26,10.41 29.6,10.41 C 27.93,10.41 26.58,9.06 26.58,7.4 C 26.58,5.78 27.85,4.46 29.44,4.38 z" id="path7" style="opacity:0.3;fill:#808080"/>
<path d="M 18.45,-7.37 L 18.06,-6.47 L 18,-6.04 L 18.05,-5.59 L 17.05,-5.39 L 16.93,-5.82 L 16.71,-6.2 L 16,-6.88 L 15.46,-6.66 L 15.44,-5.67 L 15.56,-5.26 L 15.77,-4.86 L 14.93,-4.29 L 14.64,-4.64 L 14.3,-4.91 L 13.38,-5.27 L 12.97,-4.86 L 13.33,-3.94 L 13.6,-3.6 L 13.95,-3.31 L 13.38,-2.47 L 12.98,-2.68 L 12.57,-2.8 L 11.58,-2.78 L 11.36,-2.24 L 12.04,-1.53 L 12.42,-1.31 L 12.85,-1.19 L 12.65,-0.19 L 12.2,-0.24 L 11.77,-0.18 L 10.87,0.2 L 10.87,0.79 L 11.77,1.18 L 12.2,1.24 L 12.65,1.19 L 12.85,2.19 L 12.42,2.31 L 12.04,2.53 L 11.36,3.24 L 11.58,3.78 L 12.57,3.8 L 12.98,3.68 L 13.38,3.47 L 13.95,4.31 L 13.6,4.6 L 13.33,4.94 L 12.97,5.86 L 13.38,6.27 L 14.3,5.91 L 14.64,5.64 L 14.93,5.29 L 15.77,5.86 L 15.56,6.26 L 15.44,6.67 L 15.46,7.66 L 16,7.88 L 16.71,7.2 L 16.93,6.82 L 17.05,6.39 L 18.05,6.59 L 18,7.04 L 18.06,7.47 L 18.45,8.37 L 19.04,8.37 L 19.43,7.47 L 19.49,7.04 L 19.44,6.59 L 20.44,6.39 L 20.56,6.82 L 20.78,7.2 L 21.49,7.88 L 22.03,7.66 L 22.05,6.67 L 21.93,6.26 L 21.72,5.86 L 22.56,5.29 L 22.85,5.64 L 23.19,5.91 L 24.11,6.27 L 24.52,5.86 L 24.16,4.94 L 23.89,4.6 L 23.54,4.31 L 24.11,3.47 L 24.51,3.68 L 24.92,3.8 L 25.91,3.78 L 26.13,3.24 L 25.45,2.53 L 25.07,2.31 L 24.64,2.19 L 24.84,1.19 L 25.29,1.24 L 25.72,1.18 L 26.62,0.79 L 26.62,0.2 L 25.72,-0.18 L 25.29,-0.24 L 24.84,-0.19 L 24.64,-1.19 L 25.07,-1.31 L 25.45,-1.53 L 26.13,-2.24 L 25.91,-2.78 L 24.92,-2.8 L 24.51,-2.68 L 24.11,-2.47 L 23.54,-3.31 L 23.89,-3.6 L 24.16,-3.94 L 24.52,-4.86 L 24.11,-5.27 L 23.19,-4.91 L 22.85,-4.64 L 22.56,-4.29 L 21.72,-4.86 L 21.93,-5.26 L 22.05,-5.67 L 22.03,-6.66 L 21.49,-6.88 L 20.78,-6.2 L 20.56,-5.82 L 20.44,-5.39 L 19.44,-5.59 L 19.49,-6.04 L 19.43,-6.47 L 19.04,-7.37 L 18.45,-7.37 z M 18.75,-0.13 C 19.09,-0.13 19.38,0.15 19.38,0.5 C 19.38,0.84 19.09,1.13 18.75,1.13 C 18.4,1.13 18.11,0.84 18.11,0.5 C 18.11,0.15 18.4,-0.13 18.75,-0.13 z" id="path9" style="opacity:0.3;fill:#808080"/>
<path d="M 11.20,28.91 L 10.80,29.80 L 10.75,30.22 L 10.80,30.64 L 9.82,30.85 L 9.70,30.43 L 9.49,30.06 L 8.79,29.38 L 8.27,29.61 L 8.25,30.57 L 8.37,30.97 L 8.58,31.37 L 7.74,31.93 L 7.48,31.58 L 7.13,31.32 L 6.24,30.97 L 5.84,31.37 L 6.19,32.26 L 6.45,32.61 L 6.80,32.87 L 6.24,33.71 L 5.84,33.50 L 5.44,33.38 L 4.48,33.40 L 4.25,33.92 L 4.93,34.62 L 5.30,34.83 L 5.72,34.95 L 5.51,35.93 L 5.09,35.88 L 4.67,35.93 L 3.78,36.33 L 3.78,36.89 L 4.67,37.29 L 5.09,37.34 L 5.51,37.29 L 5.72,38.27 L 5.30,38.39 L 4.93,38.60 L 4.25,39.30 L 4.48,39.82 L 5.44,39.84 L 5.84,39.72 L 6.24,39.51 L 6.80,40.35 L 6.45,40.61 L 6.19,40.96 L 5.84,41.85 L 6.24,42.25 L 7.13,41.90 L 7.48,41.64 L 7.74,41.29 L 8.58,41.85 L 8.37,42.25 L 8.25,42.65 L 8.27,43.61 L 8.79,43.84 L 9.49,43.16 L 9.70,42.79 L 9.82,42.37 L 10.80,42.58 L 10.75,43.00 L 10.80,43.42 L 11.20,44.31 L 11.76,44.31 L 12.16,43.42 L 12.21,43.00 L 12.16,42.58 L 13.14,42.37 L 13.26,42.79 L 13.47,43.16 L 14.17,43.84 L 14.69,43.61 L 14.71,42.65 L 14.59,42.25 L 14.38,41.85 L 15.22,41.29 L 15.48,41.64 L 15.83,41.90 L 16.72,42.25 L 17.12,41.85 L 16.77,40.96 L 16.51,40.61 L 16.16,40.35 L 16.72,39.51 L 17.12,39.72 L 17.52,39.84 L 18.48,39.82 L 18.71,39.30 L 18.03,38.60 L 17.66,38.39 L 17.24,38.27 L 17.45,37.29 L 17.87,37.34 L 18.29,37.29 L 19.18,36.89 L 19.18,36.33 L 18.29,35.93 L 17.87,35.88 L 17.45,35.93 L 17.24,34.95 L 17.66,34.83 L 18.03,34.62 L 18.71,33.92 L 18.48,33.40 L 17.52,33.38 L 17.12,33.50 L 16.72,33.71 L 16.16,32.87 L 16.51,32.61 L 16.77,32.26 L 17.12,31.37 L 16.72,30.97 L 15.83,31.32 L 15.48,31.58 L 15.22,31.93 L 14.38,31.37 L 14.59,30.97 L 14.71,30.57 L 14.69,29.61 L 14.17,29.38 L 13.47,30.06 L 13.26,30.43 L 13.14,30.85 L 12.16,30.64 L 12.21,30.22 L 12.16,29.80 L 11.76,28.91 L 11.20,28.91 z M 11.48,31.44 C 11.84,31.44 12.14,31.73 12.14,32.09 C 12.14,32.45 11.84,32.75 11.48,32.75 C 11.12,32.75 10.82,32.45 10.82,32.09 C 10.82,31.73 11.12,31.44 11.48,31.44 z M 8.27,32.68 C 8.44,32.68 8.59,32.74 8.72,32.87 C 8.97,33.12 8.97,33.52 8.72,33.78 C 8.46,34.03 8.06,34.03 7.81,33.78 C 7.55,33.52 7.55,33.12 7.81,32.87 C 7.93,32.74 8.11,32.68 8.27,32.68 z M 14.66,32.75 C 14.83,32.75 15.00,32.81 15.13,32.94 C 15.39,33.19 15.39,33.62 15.13,33.87 C 14.88,34.13 14.45,34.13 14.19,33.87 C 13.94,33.62 13.94,33.19 14.19,32.94 C 14.32,32.81 14.50,32.75 14.66,32.75 z M 11.48,33.31 C 13.30,33.31 14.78,34.79 14.78,36.61 C 14.78,38.43 13.30,39.91 11.48,39.91 C 9.66,39.91 8.18,38.43 8.18,36.61 C 8.18,34.79 9.66,33.31 11.48,33.31 z M 6.94,35.84 C 7.30,35.84 7.60,36.13 7.60,36.49 C 7.60,36.85 7.30,37.15 6.94,37.15 C 6.58,37.15 6.28,36.85 6.28,36.49 C 6.28,36.13 6.58,35.84 6.94,35.84 z M 15.90,35.95 C 16.26,35.95 16.56,36.25 16.56,36.61 C 16.56,36.97 16.26,37.27 15.90,37.27 C 15.54,37.27 15.25,36.97 15.25,36.61 C 15.25,36.25 15.54,35.95 15.90,35.95 z M 8.18,39.07 C 8.35,39.07 8.52,39.13 8.65,39.25 C 8.90,39.51 8.90,39.91 8.65,40.17 C 8.39,40.42 7.99,40.42 7.74,40.17 C 7.48,39.91 7.48,39.51 7.74,39.25 C 7.86,39.13 8.01,39.07 8.18,39.07 z M 14.59,39.14 C 14.76,39.14 14.91,39.20 15.04,39.32 C 15.29,39.58 15.29,40.01 15.04,40.26 C 14.78,40.52 14.38,40.52 14.12,40.26 C 13.87,40.01 13.87,39.58 14.12,39.32 C 14.25,39.20 14.43,39.14 14.59,39.14 z M 11.36,40.38 C 11.72,40.38 12.02,40.67 12.02,41.03 C 12.02,41.39 11.72,41.69 11.36,41.69 C 11.00,41.69 10.71,41.39 10.71,41.03 C 10.71,40.67 11.00,40.38 11.36,40.38 z" style="opacity:0.3;fill:#808080"/>
<path d="M 24.00,35.57 L 23.61,36.47 L 23.55,36.90 L 23.60,37.35 L 22.60,37.55 L 22.48,37.12 L 22.26,36.74 L 21.55,36.06 L 21.01,36.28 L 20.99,37.27 L 21.11,37.68 L 21.32,38.08 L 20.48,38.65 L 20.19,38.30 L 19.85,38.03 L 18.93,37.67 L 18.52,38.08 L 18.88,39.00 L 19.15,39.34 L 19.50,39.63 L 18.93,40.47 L 18.53,40.26 L 18.12,40.14 L 17.13,40.16 L 16.91,40.70 L 17.59,41.41 L 17.97,41.63 L 18.40,41.75 L 18.20,42.75 L 17.75,42.70 L 17.32,42.76 L 16.42,43.14 L 16.42,43.73 L 17.32,44.12 L 17.75,44.18 L 18.20,44.13 L 18.40,45.13 L 17.97,45.25 L 17.59,45.47 L 16.91,46.18 L 17.13,46.72 L 18.12,46.74 L 18.53,46.62 L 18.93,46.41 L 19.50,47.25 L 19.15,47.54 L 18.88,47.88 L 18.52,48.80 L 18.93,49.21 L 19.85,48.85 L 20.19,48.58 L 20.48,48.23 L 21.32,48.80 L 21.11,49.20 L 20.99,49.61 L 21.01,50.60 L 21.55,50.82 L 22.26,50.14 L 22.48,49.76 L 22.60,49.33 L 23.60,49.53 L 23.55,49.98 L 23.61,50.41 L 24.00,51.31 L 24.59,51.31 L 24.98,50.41 L 25.04,49.98 L 24.99,49.53 L 25.99,49.33 L 26.11,49.76 L 26.33,50.14 L 27.04,50.82 L 27.58,50.60 L 27.60,49.61 L 27.48,49.20 L 27.27,48.80 L 28.11,48.23 L 28.40,48.58 L 28.74,48.85 L 29.66,49.21 L 30.07,48.80 L 29.71,47.88 L 29.44,47.54 L 29.09,47.25 L 29.66,46.41 L 30.06,46.62 L 30.47,46.74 L 31.46,46.72 L 31.68,46.18 L 31.00,45.47 L 30.62,45.25 L 30.19,45.13 L 30.39,44.13 L 30.84,44.18 L 31.27,44.12 L 32.17,43.73 L 32.17,43.14 L 31.27,42.76 L 30.84,42.70 L 30.39,42.75 L 30.19,41.75 L 30.62,41.63 L 31.00,41.41 L 31.68,40.70 L 31.46,40.16 L 30.47,40.14 L 30.06,40.26 L 29.66,40.47 L 29.09,39.63 L 29.44,39.34 L 29.71,39.00 L 30.07,38.08 L 29.66,37.67 L 28.74,38.03 L 28.40,38.30 L 28.11,38.65 L 27.27,38.08 L 27.48,37.68 L 27.60,37.27 L 27.58,36.28 L 27.04,36.06 L 26.33,36.74 L 26.11,37.12 L 25.99,37.55 L 24.99,37.35 L 25.04,36.90 L 24.98,36.47 L 24.59,35.57 L 24.00,35.57 z M 24.30,42.81 C 24.64,42.81 24.93,43.09 24.93,43.44 C 24.93,43.78 24.64,44.07 24.30,44.07 C 23.95,44.07 23.66,43.78 23.66,43.44 C 23.66,43.09 23.95,42.81 24.30,42.81 z" style="opacity:0.3;fill:#808080"/>
<path d="M 0.59,37.21 L 0.18,38.12 L 0.15,38.45 L 0.23,39.00 L -0.74,39.26 L -0.95,38.74 L -1.14,38.48 L -1.95,37.90 L -2.42,38.17 L -2.32,39.17 L -2.19,39.46 L -1.84,39.90 L -2.56,40.62 L -3.00,40.27 L -3.29,40.14 L -4.29,40.04 L -4.56,40.51 L -3.98,41.32 L -3.72,41.51 L -3.20,41.72 L -3.46,42.70 L -4.01,42.62 L -4.34,42.65 L -5.25,43.06 L -5.25,43.61 L -4.34,44.02 L -4.01,44.05 L -3.46,43.97 L -3.20,44.95 L -3.72,45.16 L -3.98,45.35 L -4.56,46.16 L -4.29,46.63 L -3.29,46.53 L -3.00,46.40 L -2.56,46.05 L -1.84,46.77 L -2.19,47.21 L -2.32,47.50 L -2.42,48.50 L -1.95,48.77 L -1.14,48.19 L -0.95,47.93 L -0.74,47.41 L 0.23,47.67 L 0.15,48.22 L 0.18,48.55 L 0.59,49.46 L 1.14,49.46 L 1.55,48.55 L 1.58,48.22 L 1.50,47.67 L 2.48,47.41 L 2.69,47.93 L 2.88,48.19 L 3.69,48.77 L 4.16,48.50 L 4.06,47.50 L 3.93,47.21 L 3.58,46.77 L 4.30,46.05 L 4.74,46.40 L 5.03,46.53 L 6.03,46.63 L 6.30,46.16 L 5.72,45.35 L 5.46,45.16 L 4.94,44.95 L 5.20,43.97 L 5.75,44.05 L 6.08,44.02 L 6.99,43.61 L 6.99,43.06 L 6.08,42.65 L 5.75,42.62 L 5.20,42.70 L 4.94,41.72 L 5.46,41.51 L 5.72,41.32 L 6.30,40.51 L 6.03,40.04 L 5.03,40.14 L 4.74,40.27 L 4.30,40.62 L 3.58,39.90 L 3.93,39.46 L 4.06,39.17 L 4.16,38.17 L 3.69,37.90 L 2.88,38.48 L 2.69,38.74 L 2.48,39.26 L 1.50,39.00 L 1.58,38.45 L 1.55,38.12 L 1.14,37.21 L 0.59,37.21 z M 0.71,40.32 C 0.76,40.32 0.81,40.32 0.87,40.32 C 2.53,40.32 3.88,41.67 3.88,43.34 C 3.88,45.00 2.53,46.35 0.87,46.35 C -0.79,46.35 -2.14,45.00 -2.14,43.34 C -2.14,41.72 -0.87,40.40 0.71,40.32 z" style="opacity:0.3;fill:#808080"/>
<path d="M -13.01,24.06 L -13.19,23.09 L -13.14,22.75 L -12.93,22.25 L -13.81,21.78 L -13.87,21.77 C -13.92,21.76 -13.96,21.73 -13.95,21.69 L -13.33,19.10 C -13.32,19.06 -13.27,19.02 -13.22,19.03 L 100.58,46.18 C 100.62,46.19 100.66,46.25 100.65,46.30 L 100.03,48.88 C 100.02,48.93 99.97,48.93 99.92,48.92 L 99.59,48.84 L 98.56,48.85 L 98.53,49.39 L 98.42,49.72 L 97.81,50.50 L 97.26,50.37 L 97.08,49.40 L 97.13,49.06 L 97.34,48.56 L 96.57,48.15 L 95.73,48.18 L 95.70,48.71 L 95.59,49.04 L 94.98,49.83 L 94.44,49.70 L 94.25,48.72 L 94.30,48.38 L 94.52,47.89 L 93.78,47.48 L 92.90,47.50 L 92.87,48.04 L 92.76,48.37 L 92.16,49.15 L 91.61,49.02 L 91.42,48.05 L 91.47,47.71 L 91.69,47.21 L 90.92,46.80 L 90.08,46.83 L 90.05,47.37 L 89.94,47.69 L 89.33,48.48 L 88.78,48.35 L 88.60,47.37 L 88.65,47.03 L 88.86,46.54 L 88.12,46.14 L 87.25,46.15 L 87.22,46.69 L 87.11,47.02 L 86.50,47.81 L 85.96,47.68 L 85.77,46.70 L 85.82,46.36 L 86.03,45.86 L 85.26,45.45 L 84.42,45.48 L 84.39,46.02 L 84.28,46.34 L 83.68,47.13 L 83.13,47.00 L 82.94,46.03 L 82.99,45.68 L 83.21,45.19 L 82.47,44.79 L 81.60,44.80 L 81.56,45.34 L 81.45,45.67 L 80.85,46.46 L 80.30,46.33 L 80.12,45.35 L 80.17,45.01 L 80.38,44.51 L 79.61,44.11 L 78.77,44.13 L 78.74,44.67 L 78.63,45.00 L 78.02,45.78 L 77.48,45.65 L 77.29,44.68 L 77.34,44.33 L 77.55,43.84 L 76.81,43.44 L 75.94,43.46 L 75.91,43.99 L 75.80,44.32 L 75.20,45.11 L 74.65,44.98 L 74.46,44.00 L 74.51,43.66 L 74.73,43.17 L 73.96,42.76 L 73.12,42.78 L 73.08,43.32 L 72.97,43.65 L 72.37,44.43 L 71.82,44.30 L 71.64,43.33 L 71.69,42.99 L 71.90,42.49 L 71.16,42.09 L 70.29,42.11 L 70.26,42.65 L 70.15,42.97 L 69.54,43.76 L 68.99,43.63 L 68.81,42.65 L 68.86,42.31 L 69.07,41.82 L 68.30,41.41 L 67.46,41.43 L 67.43,41.97 L 67.32,42.30 L 66.71,43.09 L 66.17,42.95 L 65.98,41.98 L 66.03,41.64 L 66.25,41.14 L 65.51,40.74 L 64.64,40.76 L 64.60,41.30 L 64.49,41.62 L 63.89,42.41 L 63.34,42.28 L 63.16,41.30 L 63.20,40.96 L 63.42,40.47 L 62.65,40.06 L 61.81,40.08 L 61.78,40.62 L 61.67,40.95 L 61.06,41.74 L 60.51,41.61 L 60.33,40.63 L 60.38,40.29 L 60.59,39.79 L 59.85,39.39 L 58.98,39.41 L 58.95,39.95 L 58.84,40.27 L 58.23,41.06 L 57.69,40.93 L 57.50,39.96 L 57.55,39.61 L 57.77,39.12 L 57.00,38.71 L 56.15,38.73 L 56.12,39.27 L 56.01,39.60 L 55.41,40.39 L 54.86,40.26 L 54.67,39.28 L 54.72,38.94 L 54.91,38.44 L 54.17,38.04 L 53.33,38.06 L 53.30,38.60 L 53.19,38.93 L 52.58,39.71 L 52.03,39.58 L 51.85,38.61 L 51.90,38.27 L 52.08,37.76 L 51.34,37.36 L 50.50,37.39 L 50.47,37.92 L 50.36,38.25 L 49.75,39.04 L 49.21,38.91 L 49.02,37.93 L 49.07,37.59 L 49.25,37.09 L 48.51,36.69 L 47.67,36.71 L 47.64,37.25 L 47.53,37.58 L 46.93,38.36 L 46.38,38.23 L 46.19,37.26 L 46.24,36.92 L 46.43,36.41 L 45.69,36.01 L 44.85,36.04 L 44.81,36.58 L 44.70,36.90 L 44.10,37.69 L 43.55,37.56 L 43.37,36.58 L 43.42,36.24 L 43.60,35.74 L 42.86,35.34 L 42.02,35.36 L 41.99,35.90 L 41.88,36.23 L 41.24,37.01 L 40.73,36.89 L 40.54,35.91 L 40.59,35.57 L 40.77,35.07 L 40.03,34.66 L 39.19,34.69 L 39.16,35.23 L 39.05,35.55 L 38.41,36.33 L 37.90,36.21 L 37.71,35.24 L 37.76,34.89 L 37.95,34.39 L 37.21,33.99 L 36.37,34.01 L 36.33,34.55 L 36.22,34.88 L 35.59,35.66 L 35.07,35.54 L 34.89,34.56 L 34.94,34.22 L 35.12,33.72 L 34.38,33.32 L 33.54,33.34 L 33.51,33.88 L 33.40,34.21 L 32.76,34.99 L 32.24,34.86 L 32.06,33.89 L 32.11,33.54 L 32.29,33.04 L 31.55,32.64 L 30.71,32.67 L 30.65,33.20 L 30.57,33.53 L 29.93,34.31 L 29.42,34.19 L 29.23,33.21 L 29.28,32.87 L 29.47,32.37 L 28.73,31.97 L 27.89,31.99 L 27.82,32.52 L 27.71,32.85 L 27.11,33.64 L 26.59,33.51 L 26.41,32.54 L 26.45,32.20 L 26.64,31.69 L 25.90,31.29 L 25.06,31.32 L 25.00,31.85 L 24.89,32.18 L 24.28,32.96 L 23.76,32.84 L 23.58,31.86 L 23.63,31.52 L 23.81,31.02 L 23.07,30.62 L 22.23,30.64 L 22.17,31.17 L 22.06,31.50 L 21.45,32.29 L 20.94,32.16 L 20.75,31.19 L 20.80,30.85 L 20.99,30.34 L 20.25,29.94 L 19.40,29.97 L 19.34,30.50 L 19.23,30.83 L 18.63,31.61 L 18.11,31.49 L 17.92,30.51 L 17.97,30.17 L 18.16,29.67 L 17.42,29.27 L 16.58,29.29 L 16.52,29.82 L 16.40,30.15 L 15.80,30.94 L 15.28,30.82 L 15.10,29.84 L 15.15,29.50 L 15.33,29.00 L 14.59,28.59 L 13.75,28.62 L 13.69,29.15 L 13.58,29.48 L 12.97,30.26 L 12.46,30.14 L 12.27,29.17 L 12.32,28.82 L 12.50,28.32 L 11.76,27.92 L 10.92,27.94 L 10.86,28.48 L 10.75,28.80 L 10.15,29.59 L 9.63,29.47 L 9.44,28.49 L 9.49,28.15 L 9.68,27.65 L 8.94,27.25 L 8.10,27.27 L 8.03,27.80 L 7.92,28.13 L 7.32,28.92 L 6.80,28.79 L 6.59,27.81 L 6.67,27.48 L 6.85,26.97 L 6.11,26.57 L 5.27,26.60 L 5.21,27.13 L 5.10,27.45 L 4.49,28.24 L 3.98,28.12 L 3.76,27.14 L 3.84,26.80 L 4.02,26.30 L 3.28,25.90 L 2.44,25.92 L 2.38,26.45 L 2.27,26.78 L 1.66,27.57 L 1.15,27.44 L 0.93,26.46 L 0.98,26.12 L 1.20,25.62 L 0.46,25.22 L -0.37,25.25 L -0.44,25.78 L -0.55,26.11 L -1.15,26.89 L -1.67,26.77 L -1.88,25.79 L -1.83,25.44 L -1.62,24.95 L -2.36,24.55 L -3.20,24.57 L -3.26,25.10 L -3.37,25.43 L -3.98,26.22 L -4.50,26.10 L -4.71,25.11 L -4.66,24.77 L -4.45,24.28 L -5.19,23.87 L -6.03,23.90 L -6.09,24.43 L -6.20,24.76 L -6.81,25.54 L -7.35,25.41 L -7.54,24.44 L -7.49,24.10 L -7.27,23.60 L -8.01,23.20 L -8.85,23.22 L -8.92,23.76 L -9.03,24.08 L -9.63,24.87 L -10.18,24.74 L -10.36,23.76 L -10.32,23.42 L -10.10,22.93 L -10.84,22.53 L -11.68,22.55 L -11.74,23.08 L -11.85,23.41 L -12.46,24.20 L -13.01,24.06 z" style="opacity:0.3;fill:#808080"/>
</svg>
