<?xml version="1.0" encoding="UTF-8" standalone="no"?>

<svg xmlns:svg="http://www.w3.org/2000/svg" xmlns="http://www.w3.org/2000/svg" version="1.0" width="100%" height="100%" viewBox="0 0 48 576" id="svg2383">
<defs id="defs2385">
    <style>
        * { fill:none; stroke:#1ba3b5;stroke-width:1; }
        path { fill:#9be9f0;fill-opacity:0.6; }
    </style>
</defs>
<g id="layer1">

<g id="g3186">
<rect width="40" height="40" ry="8" x="4" y="4" id="r2393"/>
<path d="M 2.07,14.34 L 8.75,21.03 C 10.40,22.67 10.40,25.31 8.75,26.96 L 2.07,33.65 L 2.07,14.34 z" id="p3174"/>
<path d="M 45.92,14.34 L 39.24,21.03 C 37.59,22.67 37.59,25.31 39.24,26.96 L 45.92,33.65 L 45.92,14.34 z" id="p3180"/>
<path d="M 14.34,45.92 L 21.03,39.24 C 22.67,37.59 25.31,37.59 26.96,39.24 L 33.65,45.92 L 14.34,45.92 z" id="p3182"/>
<path d="M 14.34,2.07 L 21.03,8.75 C 22.67,10.40 25.31,10.40 26.96,8.75 L 33.65,2.07 L 14.34,2.07 z" id="p3184"/>
</g>

<g transform="translate(0,48)" id="g3193">
<rect width="40" height="40" ry="8" x="4" y="4" id="r3195"/>
<path d="M 2.07,14.34 L 8.75,21.03 C 10.40,22.67 10.40,25.31 8.75,26.96 L 2.07,33.65 L 2.07,14.34 z" id="p3197"/>
<path d="M 45.92,14.34 L 39.24,21.03 C 37.59,22.67 37.59,25.31 39.24,26.96 L 45.92,33.65 L 45.92,14.34 z" id="p3199"/>
<path d="M 14.34,45.92 L 21.03,39.24 C 22.67,37.59 25.31,37.59 26.96,39.24 L 33.65,45.92 L 14.34,45.92 z" id="p3201"/>
<path d="M 14.34,2.07 L 21.03,8.75 C 22.67,10.40 25.31,10.40 26.96,8.75 L 33.65,2.07 L 14.34,2.07 z" id="p3203"/>
</g>

<g transform="translate(0,96)" id="g3205">
<rect width="40" height="40" ry="8" x="4" y="4" id="r3207"/>
<path d="M 2.07,14.34 L 8.75,21.03 C 10.40,22.67 10.40,25.31 8.75,26.96 L 2.07,33.65 L 2.07,14.34 z" id="p3209"/>
<path d="M 45.92,14.34 L 39.24,21.03 C 37.59,22.67 37.59,25.31 39.24,26.96 L 45.92,33.65 L 45.92,14.34 z" id="p3211"/>
<path d="M 14.34,45.92 L 21.03,39.24 C 22.67,37.59 25.31,37.59 26.96,39.24 L 33.65,45.92 L 14.34,45.92 z" id="p3213"/>
<path d="M 14.34,2.07 L 21.03,8.75 C 22.67,10.40 25.31,10.40 26.96,8.75 L 33.65,2.07 L 14.34,2.07 z" id="p3215"/>
</g>

<g transform="translate(0,144)" id="g3217">
<rect width="40" height="40" ry="8" x="4" y="4" id="r3219"/>
<path d="M 2.07,14.34 L 8.75,21.03 C 10.40,22.67 10.40,25.31 8.75,26.96 L 2.07,33.65 L 2.07,14.34 z" id="p3221"/>
<path d="M 45.92,14.34 L 39.24,21.03 C 37.59,22.67 37.59,25.31 39.24,26.96 L 45.92,33.65 L 45.92,14.34 z" id="p3223"/>
<path d="M 14.34,45.92 L 21.03,39.24 C 22.67,37.59 25.31,37.59 26.96,39.24 L 33.65,45.92 L 14.34,45.92 z" id="p3225"/>
<path d="M 14.34,2.07 L 21.03,8.75 C 22.67,10.40 25.31,10.40 26.96,8.75 L 33.65,2.07 L 14.34,2.07 z" id="p3227"/>
</g>

<g transform="translate(0,192)" id="g3257">
<rect width="40" height="40" ry="8" x="4" y="4" id="r3259"/>
<path d="M 2.07,14.34 L 8.75,21.03 C 10.40,22.67 10.40,25.31 8.75,26.96 L 2.07,33.65 L 2.07,14.34 z" id="p3261"/>
<path d="M 45.92,14.34 L 39.24,21.03 C 37.59,22.67 37.59,25.31 39.24,26.96 L 45.92,33.65 L 45.92,14.34 z" id="p3263"/>
<path d="M 14.34,45.92 L 21.03,39.24 C 22.67,37.59 25.31,37.59 26.96,39.24 L 33.65,45.92 L 14.34,45.92 z" id="p3265"/>
<path d="M 14.34,2.07 L 21.03,8.75 C 22.67,10.40 25.31,10.40 26.96,8.75 L 33.65,2.07 L 14.34,2.07 z" id="p3267"/>
</g>

<g transform="translate(0,240)" id="g3269">
<rect width="40" height="40" ry="8" x="4" y="4" id="r3271"/>
<path d="M 2.07,14.34 L 8.75,21.03 C 10.40,22.67 10.40,25.31 8.75,26.96 L 2.07,33.65 L 2.07,14.34 z" id="p3273"/>
<path d="M 45.92,14.34 L 39.24,21.03 C 37.59,22.67 37.59,25.31 39.24,26.96 L 45.92,33.65 L 45.92,14.34 z" id="p3275"/>
<path d="M 14.34,45.92 L 21.03,39.24 C 22.67,37.59 25.31,37.59 26.96,39.24 L 33.65,45.92 L 14.34,45.92 z" id="p3277"/>
<path d="M 14.34,2.07 L 21.03,8.75 C 22.67,10.40 25.31,10.40 26.96,8.75 L 33.65,2.07 L 14.34,2.07 z" id="p3279"/>
</g>

<g transform="translate(0,288)" id="g3281">
<rect width="40" height="40" ry="8" x="4" y="4" id="r3283"/>
<path d="M 2.07,14.34 L 8.75,21.03 C 10.40,22.67 10.40,25.31 8.75,26.96 L 2.07,33.65 L 2.07,14.34 z" id="p3285"/>
<path d="M 45.92,14.34 L 39.24,21.03 C 37.59,22.67 37.59,25.31 39.24,26.96 L 45.92,33.65 L 45.92,14.34 z" id="p3287"/>
<path d="M 14.34,45.92 L 21.03,39.24 C 22.67,37.59 25.31,37.59 26.96,39.24 L 33.65,45.92 L 14.34,45.92 z" id="p3289"/>
<path d="M 14.34,2.07 L 21.03,8.75 C 22.67,10.40 25.31,10.40 26.96,8.75 L 33.65,2.07 L 14.34,2.07 z" id="p3291"/>
</g>

<g transform="translate(0,336)" id="g3293">
<rect width="40" height="40" ry="8" x="4" y="4" id="r3295"/>
<path transform="translate(3,0)" d="M 2.07,14.34 L 8.75,21.03 C 10.40,22.67 10.40,25.31 8.75,26.96 L 2.07,33.65 L 2.07,14.34 z" id="p3297"/>
<path transform="translate(-3,0)" d="M 45.92,14.34 L 39.24,21.03 C 37.59,22.67 37.59,25.31 39.24,26.96 L 45.92,33.65 L 45.92,14.34 z" id="p3299"/>
<path transform="translate(0,-3)" d="M 14.34,45.92 L 21.03,39.24 C 22.67,37.59 25.31,37.59 26.96,39.24 L 33.65,45.92 L 14.34,45.92 z" id="p3301"/>
<path transform="translate(0,3)"  d="M 14.34,2.07 L 21.03,8.75 C 22.67,10.40 25.31,10.40 26.96,8.75 L 33.65,2.07 L 14.34,2.07 z" id="p3303"/>
</g>

<g transform="translate(0,384)" id="g3307">
<rect width="40" height="40" ry="8" x="4" y="4" id="r3309"/>
<path transform="translate(5,0)" d="M 2.07,14.34 L 8.75,21.03 C 10.40,22.67 10.40,25.31 8.75,26.96 L 2.07,33.65 L 2.07,14.34 z" id="p3311"/>
<path transform="translate(-5,0)" d="M 45.92,14.34 L 39.24,21.03 C 37.59,22.67 37.59,25.31 39.24,26.96 L 45.92,33.65 L 45.92,14.34 z" id="p3313"/>
<path transform="translate(0,-5)"  d="M 14.34,45.92 L 21.03,39.24 C 22.67,37.59 25.31,37.59 26.96,39.24 L 33.65,45.92 L 14.34,45.92 z" id="p3315"/>
<path transform="translate(0,5)"  d="M 14.34,2.07 L 21.03,8.75 C 22.67,10.40 25.31,10.40 26.96,8.75 L 33.65,2.07 L 14.34,2.07 z" id="p3317"/>
</g>

<g transform="translate(0,432)" id="g3319">
<rect width="40" height="40" ry="8" x="4" y="4" id="r3321"/>
<path transform="translate(6,0)" d="M 2.07,14.34 L 8.75,21.03 C 10.40,22.67 10.40,25.31 8.75,26.96 L 2.07,33.65 L 2.07,14.34 z" id="p3323"/>
<path transform="translate(-6,0)" d="M 45.92,14.34 L 39.24,21.03 C 37.59,22.67 37.59,25.31 39.24,26.96 L 45.92,33.65 L 45.92,14.34 z" id="p3325"/>
<path transform="translate(0,-6)"  d="M 14.34,45.92 L 21.03,39.24 C 22.67,37.59 25.31,37.59 26.96,39.24 L 33.65,45.92 L 14.34,45.92 z" id="p3327"/>
<path transform="translate(0,6)"  d="M 14.34,2.07 L 21.03,8.75 C 22.67,10.40 25.31,10.40 26.96,8.75 L 33.65,2.07 L 14.34,2.07 z" id="p3329"/>
</g>

<g transform="translate(0,480)" id="g3331">
<rect width="40" height="40" ry="8" x="4" y="4" id="r3333"/>
<path transform="translate(5,0)" d="M 2.07,14.34 L 8.75,21.03 C 10.40,22.67 10.40,25.31 8.75,26.96 L 2.07,33.65 L 2.07,14.34 z" id="p3335"/>
<path transform="translate(-5,0)" d="M 45.92,14.34 L 39.24,21.03 C 37.59,22.67 37.59,25.31 39.24,26.96 L 45.92,33.65 L 45.92,14.34 z" id="p3337"/>
<path transform="translate(0,-5)"  d="M 14.34,45.92 L 21.03,39.24 C 22.67,37.59 25.31,37.59 26.96,39.24 L 33.65,45.92 L 14.34,45.92 z" id="p3339"/>
<path transform="translate(0,5)"  d="M 14.34,2.07 L 21.03,8.75 C 22.67,10.40 25.31,10.40 26.96,8.75 L 33.65,2.07 L 14.34,2.07 z" id="p3341"/>
</g>

<g transform="translate(0,528)" id="g3343">
<rect width="40" height="40" ry="8" x="4" y="4" id="r3345"/>
<path transform="translate(3,0)" d="M 2.07,14.34 L 8.75,21.03 C 10.40,22.67 10.40,25.31 8.75,26.96 L 2.07,33.65 L 2.07,14.34 z" id="p3347"/>
<path transform="translate(-3,0)" d="M 45.92,14.34 L 39.24,21.03 C 37.59,22.67 37.59,25.31 39.24,26.96 L 45.92,33.65 L 45.92,14.34 z" id="p3349"/>
<path transform="translate(0,-3)"  d="M 14.34,45.92 L 21.03,39.24 C 22.67,37.59 25.31,37.59 26.96,39.24 L 33.65,45.92 L 14.34,45.92 z" id="p3351"/>
<path transform="translate(0,3)"  d="M 14.34,2.07 L 21.03,8.75 C 22.67,10.40 25.31,10.40 26.96,8.75 L 33.65,2.07 L 14.34,2.07 z" id="p3353"/>
</g>

</g>
</svg>
