<?xml version="1.0" encoding="UTF-8" standalone="no"?>
<svg
   xmlns:dc="http://purl.org/dc/elements/1.1/"
   xmlns:cc="http://creativecommons.org/ns#"
   xmlns:rdf="http://www.w3.org/1999/02/22-rdf-syntax-ns#"
   xmlns:svg="http://www.w3.org/2000/svg"
   xmlns="http://www.w3.org/2000/svg"
   xmlns:sodipodi="http://sodipodi.sourceforge.net/DTD/sodipodi-0.dtd"
   xmlns:inkscape="http://www.inkscape.org/namespaces/inkscape"
   version="1.0"
   width="32"
   height="32"
   id="svg2"
   inkscape:version="0.91 r13725"
   sodipodi:docname="whitedots02.svg">
  <defs
     id="defs6" />
  <metadata
     id="metadata17">
    <rdf:RDF>
      <cc:Work
         rdf:about="">
        <dc:format>image/svg+xml</dc:format>
        <dc:type
           rdf:resource="http://purl.org/dc/dcmitype/StillImage" />
        <dc:title></dc:title>
      </cc:Work>
    </rdf:RDF>
  </metadata>
  <sodipodi:namedview
     pagecolor="#ffffff"
     bordercolor="#666666"
     borderopacity="1"
     objecttolerance="10"
     gridtolerance="10"
     guidetolerance="10"
     inkscape:pageopacity="0"
     inkscape:pageshadow="2"
     inkscape:window-width="848"
     inkscape:window-height="480"
     id="namedview15"
     showgrid="false"
     inkscape:zoom="7.375"
     inkscape:cx="16.925208"
     inkscape:cy="16"
     inkscape:window-x="1412"
     inkscape:window-y="410"
     inkscape:window-maximized="0"
     inkscape:current-layer="svg2" />
  <path
     style="color:#000000;clip-rule:nonzero;display:inline;overflow:visible;visibility:visible;opacity:1;isolation:auto;mix-blend-mode:normal;color-interpolation:sRGB;color-interpolation-filters:linearRGB;solid-color:#000000;solid-opacity:1;fill:#ffffff;fill-opacity:0.1254902;fill-rule:nonzero;stroke:none;stroke-width:0.5;stroke-linecap:butt;stroke-linejoin:round;stroke-miterlimit:4;stroke-dasharray:none;stroke-dashoffset:0;stroke-opacity:1;marker:none;marker-start:none;marker-mid:none;marker-end:none;color-rendering:auto;image-rendering:auto;shape-rendering:auto;text-rendering:auto;enable-background:accumulate"
     d="M 0 1 A 1 1 0 0 0 -1 2 A 1 1 0 0 0 0 3 A 1 1 0 0 0 1 2 A 1 1 0 0 0 0 1 z M 8 1 A 1 1 0 0 0 7 2 A 1 1 0 0 0 8 3 A 1 1 0 0 0 9 2 A 1 1 0 0 0 8 1 z M 16 1 A 1 1 0 0 0 15 2 A 1 1 0 0 0 16 3 A 1 1 0 0 0 17 2 A 1 1 0 0 0 16 1 z M 24 1 A 1 1 0 0 0 23 2 A 1 1 0 0 0 24 3 A 1 1 0 0 0 25 2 A 1 1 0 0 0 24 1 z M 32 1 A 1 1 0 0 0 31 2 A 1 1 0 0 0 32 3 A 1 1 0 0 0 33 2 A 1 1 0 0 0 32 1 z M 4 5 A 1 1 0 0 0 3 6 A 1 1 0 0 0 4 7 A 1 1 0 0 0 5 6 A 1 1 0 0 0 4 5 z M 12 5 A 1 1 0 0 0 11 6 A 1 1 0 0 0 12 7 A 1 1 0 0 0 13 6 A 1 1 0 0 0 12 5 z M 20 5 A 1 1 0 0 0 19 6 A 1 1 0 0 0 20 7 A 1 1 0 0 0 21 6 A 1 1 0 0 0 20 5 z M 28 5 A 1 1 0 0 0 27 6 A 1 1 0 0 0 28 7 A 1 1 0 0 0 29 6 A 1 1 0 0 0 28 5 z M 0 9 A 1 1 0 0 0 -1 10 A 1 1 0 0 0 0 11 A 1 1 0 0 0 1 10 A 1 1 0 0 0 0 9 z M 8 9 A 1 1 0 0 0 7 10 A 1 1 0 0 0 8 11 A 1 1 0 0 0 9 10 A 1 1 0 0 0 8 9 z M 16 9 A 1 1 0 0 0 15 10 A 1 1 0 0 0 16 11 A 1 1 0 0 0 17 10 A 1 1 0 0 0 16 9 z M 24 9 A 1 1 0 0 0 23 10 A 1 1 0 0 0 24 11 A 1 1 0 0 0 25 10 A 1 1 0 0 0 24 9 z M 32 9 A 1 1 0 0 0 31 10 A 1 1 0 0 0 32 11 A 1 1 0 0 0 33 10 A 1 1 0 0 0 32 9 z M 4 13 A 1 1 0 0 0 3 14 A 1 1 0 0 0 4 15 A 1 1 0 0 0 5 14 A 1 1 0 0 0 4 13 z M 12 13 A 1 1 0 0 0 11 14 A 1 1 0 0 0 12 15 A 1 1 0 0 0 13 14 A 1 1 0 0 0 12 13 z M 20 13 A 1 1 0 0 0 19 14 A 1 1 0 0 0 20 15 A 1 1 0 0 0 21 14 A 1 1 0 0 0 20 13 z M 28 13 A 1 1 0 0 0 27 14 A 1 1 0 0 0 28 15 A 1 1 0 0 0 29 14 A 1 1 0 0 0 28 13 z M 0 17 A 1 1 0 0 0 -1 18 A 1 1 0 0 0 0 19 A 1 1 0 0 0 1 18 A 1 1 0 0 0 0 17 z M 8 17 A 1 1 0 0 0 7 18 A 1 1 0 0 0 8 19 A 1 1 0 0 0 9 18 A 1 1 0 0 0 8 17 z M 16 17 A 1 1 0 0 0 15 18 A 1 1 0 0 0 16 19 A 1 1 0 0 0 17 18 A 1 1 0 0 0 16 17 z M 24 17 A 1 1 0 0 0 23 18 A 1 1 0 0 0 24 19 A 1 1 0 0 0 25 18 A 1 1 0 0 0 24 17 z M 32 17 A 1 1 0 0 0 31 18 A 1 1 0 0 0 32 19 A 1 1 0 0 0 33 18 A 1 1 0 0 0 32 17 z M 4 21 A 1 1 0 0 0 3 22 A 1 1 0 0 0 4 23 A 1 1 0 0 0 5 22 A 1 1 0 0 0 4 21 z M 12 21 A 1 1 0 0 0 11 22 A 1 1 0 0 0 12 23 A 1 1 0 0 0 13 22 A 1 1 0 0 0 12 21 z M 20 21 A 1 1 0 0 0 19 22 A 1 1 0 0 0 20 23 A 1 1 0 0 0 21 22 A 1 1 0 0 0 20 21 z M 28 21 A 1 1 0 0 0 27 22 A 1 1 0 0 0 28 23 A 1 1 0 0 0 29 22 A 1 1 0 0 0 28 21 z M 0 25 A 1 1 0 0 0 -1 26 A 1 1 0 0 0 0 27 A 1 1 0 0 0 1 26 A 1 1 0 0 0 0 25 z M 8 25 A 1 1 0 0 0 7 26 A 1 1 0 0 0 8 27 A 1 1 0 0 0 9 26 A 1 1 0 0 0 8 25 z M 16 25 A 1 1 0 0 0 15 26 A 1 1 0 0 0 16 27 A 1 1 0 0 0 17 26 A 1 1 0 0 0 16 25 z M 24 25 A 1 1 0 0 0 23 26 A 1 1 0 0 0 24 27 A 1 1 0 0 0 25 26 A 1 1 0 0 0 24 25 z M 32 25 A 1 1 0 0 0 31 26 A 1 1 0 0 0 32 27 A 1 1 0 0 0 33 26 A 1 1 0 0 0 32 25 z M 4 29 A 1 1 0 0 0 3 30 A 1 1 0 0 0 4 31 A 1 1 0 0 0 5 30 A 1 1 0 0 0 4 29 z M 12 29 A 1 1 0 0 0 11 30 A 1 1 0 0 0 12 31 A 1 1 0 0 0 13 30 A 1 1 0 0 0 12 29 z M 20 29 A 1 1 0 0 0 19 30 A 1 1 0 0 0 20 31 A 1 1 0 0 0 21 30 A 1 1 0 0 0 20 29 z M 28 29 A 1 1 0 0 0 27 30 A 1 1 0 0 0 28 31 A 1 1 0 0 0 29 30 A 1 1 0 0 0 28 29 z "
     id="path4134" />
</svg>
