<?xml version="1.0" encoding="UTF-8" standalone="no"?>
<!-- Created with Inkscape (http://www.inkscape.org/) -->
<svg xmlns:dc="http://purl.org/dc/elements/1.1/" xmlns:cc="http://creativecommons.org/ns#" xmlns:rdf="http://www.w3.org/1999/02/22-rdf-syntax-ns#" xmlns:svg="http://www.w3.org/2000/svg" xmlns="http://www.w3.org/2000/svg" version="1.1" width="100%" height="100%" viewBox="0 0 48 48" id="svg2" style="overflow:visible">
<defs id="defs155" />
<path d="m 23.75,2.13 c -7.95,0 -14.93,4.09 -18.83,10.24 -0.07,0.04 -0.14,0.10 -0.18,0.12 -0.10,0.06 -0.09,0.04 -0.09,0.18 -0.00,0.04 -0.01,0.09 -0.01,0.15 -0.10,0.17 -0.21,0.35 -0.31,0.53 -0.06,-0.02 -0.18,0.12 -0.24,0.19 -0.07,0.04 -0.13,0.05 -0.12,0.20 -0.00,0.06 4.53e-4,0.17 0.01,0.29 -0.13,0.25 -0.25,0.50 -0.37,0.76 -0.06,0.06 -0.11,0.15 -0.14,0.21 -0.04,0.06 -0.04,0.12 -0.04,0.20 -0.10,0.23 -0.20,0.47 -0.30,0.71 -0.00,0.01 -0.01,0.02 -0.02,0.03 -0.08,0.12 -0.14,0.25 -0.16,0.45 -0.83,2.26 -1.28,4.71 -1.28,7.25 0,11.91 9.91,21.58 22.14,21.58 12.22,0 22.13,-9.67 22.13,-21.58 0,-4.53 -1.43,-8.73 -3.88,-12.21 -0.02,-0.09 -0.06,-0.18 -0.13,-0.26 -0.05,-0.06 -0.12,-0.13 -0.20,-0.20 -0.26,-0.35 -0.54,-0.70 -0.82,-1.04 0.01,0.00 0.02,0.00 0.03,0.01 C 40.78,9.67 40.63,9.39 40.43,9.20 40.26,9.05 40.04,8.94 39.82,8.87 35.79,4.72 30.08,2.13 23.75,2.13 z m -0.15,0.42 c 6.04,0 11.43,2.32 15.31,6.12 -0.00,2.47e-4 -0.01,-4.39e-4 -0.02,0 0.03,0.02 0.07,0.05 0.10,0.08 0.38,0.37 0.75,0.77 1.10,1.18 -0.27,-0.12 -0.62,-0.21 -1.04,-0.27 0.11,0.16 0.27,0.31 0.44,0.45 0.17,0.14 0.39,0.27 0.57,0.37 0.14,0.08 0.21,0.02 0.35,0.09 0.12,0.05 0.26,0.14 0.40,0.24 0.20,0.26 0.40,0.54 0.60,0.81 -0.17,-0.15 -0.38,-0.27 -0.33,-0.18 0.05,0.12 0.59,0.86 0.78,1.05 0.07,0.07 0.14,0.10 0.19,0.11 1.97,3.21 3.10,6.99 3.10,11.08 0,2.74 -0.50,5.34 -1.43,7.70 -0.09,0.11 -0.19,0.22 -0.30,0.32 0.25,-0.90 0.40,-1.55 0.45,-1.97 0.03,-0.44 -0.13,-0.61 -0.19,-0.55 -0.08,0.06 -0.13,0.52 -0.23,0.91 -0.11,0.35 -0.25,0.94 -0.37,1.24 -0.11,0.29 -0.23,0.45 -0.33,0.50 l 0,-0.00 c -0.08,-0.08 -0.10,-0.03 -0.03,0.12 0.04,0.16 0.35,0.54 0.36,0.83 5.53e-4,0.02 0.00,0.05 0,0.08 -3.41,6.97 -10.70,11.59 -19.40,11.59 -1.18,0 -2.34,-0.08 -3.47,-0.24 -0.01,-0.00 -0.04,-0.01 -0.05,-0.02 -0.19,-0.10 -0.40,-0.18 -0.64,-0.27 -0.16,-0.15 -0.52,-0.52 -0.81,-0.80 -0.31,-0.28 -0.91,-0.96 -0.93,-0.85 -0.02,0.11 0.57,1.17 0.85,1.50 0.07,0.08 0.15,0.15 0.22,0.20 -0.42,-0.08 -0.83,-0.19 -1.24,-0.30 -0.11,-0.17 -0.27,-0.42 -0.41,-0.58 -0.20,-0.23 -0.56,-0.58 -0.59,-0.51 -0.02,0.07 0.21,0.65 0.38,0.93 C 8.24,40.95 2.10,33.31 2.10,23.78 c 0,-2.23 0.33,-4.37 0.95,-6.38 0.07,0.12 0.22,0.11 0.25,0.01 0.00,-0.10 -0.06,-0.28 -0.10,-0.49 0.15,-0.45 0.31,-0.89 0.49,-1.33 0.07,-0.08 0.15,-0.17 0.17,-0.22 0.00,-0.03 -0.00,-0.07 -0.03,-0.10 0.00,-0.01 0.01,-0.03 0.02,-0.05 0.00,-0.00 0.02,-0.02 0.03,-0.03 0.15,-0.19 0.31,-0.36 0.47,-0.54 0.00,-0.00 0.01,-0.00 0.02,-0.01 0.00,-0.00 -5.64e-4,-0.01 0,-0.01 0.01,-0.01 0.03,-0.03 0.04,-0.05 0.17,-0.23 0.52,-0.64 0.55,-0.67 -0.00,-0.04 -0.31,0.27 -0.47,0.44 -0.06,0.05 -0.11,0.10 -0.16,0.17 -0.02,-0.05 -0.04,-0.12 -0.06,-0.19 0.12,-0.26 0.26,-0.52 0.40,-0.77 0.05,0.15 0.14,0.30 0.23,0.33 0.04,0.00 0.11,-0.03 0.18,-0.09 -0.02,0.03 -0.05,0.07 -0.08,0.12 -0.14,0.19 -0.37,0.57 -0.42,0.84 -0.05,0.27 0.04,0.52 0.08,0.73 0.04,0.16 0.06,0.36 0.13,0.30 0.04,-0.06 0.07,-0.40 0.15,-0.68 0.08,-0.31 0.17,-0.80 0.31,-1.09 0.13,-0.32 0.44,-0.54 0.47,-0.64 0,-0.08 -0.22,0.02 -0.35,0.13 -0.04,0.02 -0.09,0.06 -0.14,0.10 0.01,-0.02 0.01,-0.04 0.02,-0.06 0.03,-0.16 -0.09,-0.43 -0.09,-0.62 -0.00,-0.07 0.00,-0.16 0.01,-0.25 C 8.96,6.55 15.69,2.56 23.60,2.56 z M 10.53,9.82 c -0.14,0.00 -0.60,0.26 -0.80,0.44 -0.22,0.19 -0.38,0.43 -0.46,0.69 -0.08,0.24 -0.09,0.43 -0.06,0.77 0.00,0.26 0.04,0.76 0.10,1.00 -0.03,9.68e-4 -0.07,-5.5e-4 -0.11,0 -0.00,-0.01 -0.02,-0.00 -0.05,0 -0.02,5.1e-5 -0.05,5.5e-4 -0.07,0 C 8.83,12.69 8.63,12.61 8.48,12.61 c -0.00,-7.46e-4 -0.01,2.48e-4 -0.02,0 C 8.47,12.60 8.48,12.58 8.49,12.56 8.57,12.35 8.34,11.99 8.41,11.63 8.46,11.26 8.72,10.68 8.78,10.40 8.80,10.09 8.82,9.76 8.65,9.90 8.46,10.06 7.90,10.85 7.74,11.28 c -0.15,0.41 -0.04,0.72 0,0.99 0.02,0.22 0.08,0.38 0.20,0.45 -0.20,-0.01 -0.48,-0.06 -0.65,-0.04 -0.01,-0.06 -0.04,-0.15 -0.03,-0.38 0.03,-0.34 0.20,-1.20 0.20,-1.46 -0.04,-0.25 -0.25,-0.21 -0.37,-0.04 -0.11,0.15 -0.21,0.69 -0.25,1.01 -0.04,0.29 -0.03,0.68 0.05,0.84 0.02,0.04 0.07,0.07 0.12,0.09 -0.02,0.00 -0.05,0.02 -0.08,0.03 0.00,-0.00 0.01,-0.02 0.02,-0.03 0.00,-0.05 -0.07,0.00 -0.18,0.09 -0.16,0.04 -0.41,0.08 -0.55,0.12 0.04,-0.13 -0.12,-0.28 -0.10,-0.53 0.01,-0.27 0.15,-0.92 0.13,-1.03 -0.06,-0.10 -0.32,0.14 -0.42,0.35 -0.10,0.17 -0.17,0.52 -0.16,0.76 -0.00,0.22 0.05,0.55 0.15,0.63 0.06,0.04 0.26,-0.02 0.36,-0.12 0.06,0.00 0.17,0.00 0.27,-0.00 0.05,-0.00 0.11,-0.03 0.18,-0.06 -0.06,0.06 -0.13,0.12 -0.18,0.17 -0.20,0.14 -0.43,0.33 -0.61,0.57 -0.17,0.23 -0.30,0.49 -0.36,0.74 -0.05,0.21 -0.04,0.40 0.03,0.57 0.04,0.14 0.19,0.43 0.28,0.35 0.06,-0.11 0.09,-0.63 0.18,-0.91 0.06,-0.30 0.18,-0.51 0.34,-0.79 0.13,-0.23 0.43,-0.63 0.57,-0.81 0.04,-0.01 0.09,-0.02 0.13,-0.02 0.18,-0.03 0.31,-0.00 0.57,0.01 0.04,-0.00 0.12,7.33e-4 0.18,0 -0.09,0.04 -0.20,0.11 -0.30,0.20 -0.21,0.17 -0.50,0.62 -0.68,0.87 -0.18,0.22 -0.33,0.37 -0.35,0.60 -0.03,0.23 0.05,0.87 0.20,0.81 0.14,-0.10 0.45,-0.95 0.67,-1.32 0.19,-0.36 0.41,-0.63 0.52,-0.84 0.08,-0.16 0.14,-0.28 0.14,-0.33 0.17,-3.58e-4 0.33,-0.00 0.43,0 0.14,-0.02 0.05,-0.07 0.15,-0.06 0.09,0 0.21,0.01 0.40,0.06 -0.03,0.02 -0.06,0.04 -0.10,0.07 -0.19,0.13 -0.64,0.43 -0.84,0.71 -0.23,0.26 -0.39,0.57 -0.47,0.84 -0.08,0.24 4.56e-4,0.43 0.03,0.61 0.01,0.16 0.01,0.56 0.15,0.38 0.14,-0.20 0.36,-1.06 0.63,-1.50 0.22,-0.43 0.67,-0.91 0.79,-1.10 0.05,0.00 0.11,0.00 0.18,0.00 0.04,0.07 0.09,0.05 0.13,0.01 0.08,0.00 0.17,0.01 0.25,0.04 0.22,0.06 0.45,0.22 0.66,0.30 -0.22,0.09 -0.50,0.24 -0.70,0.39 -0.29,0.22 -0.59,0.59 -0.75,0.87 -0.14,0.25 -0.24,0.46 -0.22,0.69 -0.02,0.22 -0.01,0.73 0.15,0.62 0.15,-0.15 0.54,-1.05 0.79,-1.42 0.23,-0.37 0.42,-0.52 0.59,-0.73 0.10,-0.13 0.27,-0.30 0.36,-0.40 0.12,-0.01 0.24,-0.05 0.40,-0.03 0.20,0.02 0.47,0.17 0.69,0.23 0.05,0.01 0.10,0.02 0.15,0.03 -0.21,0.10 -0.50,0.28 -0.74,0.52 -0.32,0.29 -0.79,0.89 -0.93,1.18 -0.14,0.27 0.06,0.25 0.11,0.45 0.02,0.18 0.02,0.67 0.12,0.64 0.07,-0.05 0.23,-0.45 0.50,-0.90 0.27,-0.46 1.01,-1.42 1.20,-1.75 0.01,-0.02 0.01,-0.03 0.02,-0.05 0.07,0.04 0.16,0.05 0.26,0.05 0.07,0.03 0.15,0.06 0.21,0.06 0.11,0.00 0.25,-0.09 0.23,-0.10 -0.02,-0.01 -0.07,-0.01 -0.12,-0.02 0.00,-0.00 0.00,-0.00 0.01,-0.00 0.09,-0.07 0.01,-0.19 0,-0.49 -0.00,-0.31 -0.07,-0.92 -0.03,-1.32 0.02,-0.41 0.24,-0.93 0.20,-1.11 -0.08,-0.20 -0.39,-0.26 -0.55,0 -0.16,0.26 -0.32,1.08 -0.36,1.59 -0.05,0.42 -0.06,0.88 0.02,1.16 -0.10,-0.03 -0.20,-0.07 -0.31,-0.11 -0.20,-0.08 -0.40,-0.15 -0.60,-0.19 0.02,-0.03 0.03,-0.10 0.05,-0.24 0.04,-0.39 0.06,-1.52 0.11,-1.98 0.03,-0.47 0.19,-0.78 0.11,-0.79 -0.08,-0.01 -0.46,0.41 -0.60,0.71 -0.16,0.27 -0.26,0.56 -0.30,0.96 -0.05,0.39 -0.03,1.10 0.04,1.35 -0.05,0.00 -0.09,-0.00 -0.14,-0.01 -0.21,-0.05 -0.35,-0.25 -0.57,-0.30 -0.08,-0.02 -0.17,-0.02 -0.27,-0.03 0.04,-0.13 -0.01,-0.28 0.05,-0.61 0.02,-0.34 0.12,-0.95 0.26,-1.33 0.14,-0.40 0.68,-0.85 0.66,-0.94 -0.00,-0.01 -0.02,-0.01 -0.04,-0.01 z m 28.03,0.45 c -0.09,0.01 -0.14,0.04 -0.05,0.10 0.17,0.12 1.10,0.43 1.46,0.65 0.35,0.20 0.63,0.57 0.68,0.55 0.02,-0.04 -0.31,-0.66 -0.46,-0.82 -0.15,-0.15 -0.21,-0.10 -0.41,-0.16 -0.23,-0.09 -0.63,-0.27 -0.85,-0.31 -0.11,-0.02 -0.26,-0.04 -0.35,-0.03 z m -23.90,0.53 c -0.08,-0.01 -0.46,0.41 -0.60,0.71 -0.16,0.27 -0.26,0.56 -0.30,0.96 -0.05,0.40 -0.03,1.11 0.04,1.36 -0.14,-0.00 -0.27,-0.00 -0.41,-0.00 0.08,0.06 0.16,0.11 0.25,0.15 -0.22,0.09 -0.50,0.24 -0.70,0.39 -0.32,0.22 -0.58,0.61 -0.76,0.88 -0.14,0.25 -0.24,0.46 -0.22,0.68 -0.00,0.21 -0.02,0.74 0.15,0.62 0.17,-0.15 0.53,-1.04 0.79,-1.42 0.22,-0.37 0.41,-0.54 0.59,-0.74 0.09,-0.12 0.24,-0.26 0.33,-0.37 0.01,0.00 0.02,0.00 0.03,0.00 0.18,0.01 0.48,-0.06 0.63,-0.03 0.13,0.02 0.11,0.12 0.24,0.21 0.13,0.05 0.34,0.11 0.55,0.16 0.18,0.03 0.33,0.09 0.54,0.08 -0.04,0.02 -0.08,0.05 -0.13,0.08 -0.22,0.13 -0.70,0.43 -0.93,0.71 -0.25,0.26 -0.44,0.58 -0.51,0.84 -0.08,0.23 4.56e-4,0.43 0.03,0.61 0.02,0.16 0.01,0.56 0.16,0.38 0.14,-0.20 0.42,-1.06 0.70,-1.50 0.26,-0.45 0.78,-0.95 0.89,-1.13 0.00,-0.02 0.01,-0.03 0.01,-0.04 0.18,0.03 0.42,-0.05 0.51,-0.11 0.09,-0.09 -0.03,-0.19 -0.07,-0.48 -0.05,-0.32 -0.19,-0.87 -0.21,-1.30 -0.04,-0.42 0.12,-0.95 0.04,-1.13 -0.10,-0.19 -0.42,-0.19 -0.54,0.08 -0.12,0.29 -0.17,1.11 -0.14,1.62 0.00,0.47 0.09,1.03 0.25,1.24 0.00,0.00 0.00,0.00 0.01,0.01 -0.02,0.00 -0.06,0.01 -0.08,0.01 -0.14,0.01 -0.20,0.02 -0.19,0.01 -0.32,-0.07 -0.55,-0.12 -0.72,-0.20 -0.16,-0.08 -0.14,-0.21 -0.27,-0.26 -0.11,-0.03 -0.24,-0.04 -0.37,-0.04 0.07,-0.03 0.13,0.08 0.17,-0.27 0.04,-0.39 0.06,-1.52 0.11,-1.98 0.03,-0.47 0.19,-0.78 0.11,-0.79 z m 23.22,0.08 c -0.14,0.00 0.31,0.18 0.65,0.42 0.32,0.22 1.03,0.70 1.24,0.96 0.17,0.23 -0.19,0.28 -0.14,0.46 0.05,0.14 0.23,0.24 0.44,0.51 0.19,0.26 0.50,0.77 0.65,1.08 0.10,0.29 0.04,0.75 0.07,0.71 0.02,-0.05 0.25,-0.63 0.15,-1.02 -0.12,-0.42 -0.77,-1.09 -0.85,-1.36 -0.10,-0.27 0.13,-0.26 0.30,-0.21 0.16,0.03 0.40,0.14 0.68,0.46 0.25,0.28 0.78,1.32 0.88,1.35 0.07,0.00 -0.16,-0.87 -0.33,-1.19 -0.19,-0.32 -0.49,-0.57 -0.68,-0.73 -0.19,-0.17 -0.30,-0.27 -0.41,-0.27 -0.11,-0.02 -0.20,0.23 -0.27,0.21 -0.07,-0.04 -0.08,-0.21 -0.19,-0.37 -0.13,-0.17 -0.25,-0.45 -0.60,-0.61 -0.40,-0.18 -1.41,-0.40 -1.58,-0.40 z m -20.18,0.72 c -0.00,-8.08e-4 -0.01,0.00 -0.01,0.00 -0.08,0.00 -0.23,0.56 -0.25,0.89 -0.01,0.31 -0.02,0.62 0.11,1.00 0.10,0.33 0.34,0.85 0.52,1.12 -0.00,0.00 -0.00,0.00 -0.01,0.00 -0.19,0.05 -0.60,0.29 -0.91,0.59 -0.32,0.29 -0.79,0.88 -0.93,1.18 -0.14,0.27 0.06,0.25 0.11,0.45 0.02,0.18 0.02,0.67 0.13,0.64 0.07,-0.05 0.23,-0.46 0.50,-0.89 0.28,-0.46 1.00,-1.42 1.19,-1.76 0.01,-0.02 0.02,-0.04 0.03,-0.07 0.13,0.05 0.25,-0.14 0.34,-0.21 0.07,-0.08 0.14,0.01 0.05,-0.34 -0.12,-0.37 -0.55,-1.41 -0.71,-1.85 -0.14,-0.41 -0.14,-0.76 -0.20,-0.77 z m 19.45,0.01 c -0.13,0.00 -0.23,0.02 -0.24,0.06 -0.02,0.07 0.47,0.30 0.81,0.55 0.32,0.23 0.92,0.58 1.07,0.83 0.13,0.23 -0.32,0.33 -0.27,0.57 0.04,0.19 0.39,0.39 0.59,0.70 0.19,0.30 0.45,1.12 0.53,1.13 0.05,-0.02 -0.03,-0.84 -0.13,-1.21 -0.11,-0.37 -0.46,-0.69 -0.50,-0.93 -0.05,-0.25 0.38,-0.30 0.21,-0.55 -0.18,-0.26 -0.88,-0.84 -1.26,-1.01 -0.24,-0.11 -0.58,-0.15 -0.81,-0.14 z m -1.56,0.45 c -0.04,-0.00 -0.06,0.00 -0.06,0.02 0,0.12 1.51,1.20 1.82,1.52 0.29,0.29 -0.04,0.23 0,0.39 0.02,0.13 0.10,0.12 0.21,0.53 0.10,0.38 0.30,1.72 0.44,1.85 0.13,0.11 0.31,-0.75 0.31,-1.14 -0.04,-0.43 -0.41,-1.03 -0.46,-1.32 -0.04,-0.28 0.23,-0.17 0.18,-0.34 -0.08,-0.19 -0.24,-0.55 -0.65,-0.80 -0.38,-0.24 -1.51,-0.68 -1.79,-0.70 z m -16.16,0.21 c -0.04,-7.46e-4 -0.06,0.00 -0.09,0.02 -0.12,0.05 -0.13,0.26 -0.02,0.60 0.11,0.32 0.60,0.98 0.75,1.32 0.10,0.23 0.05,0.41 0.08,0.52 -0.17,0.02 -0.26,0.04 -0.44,0.04 -0.22,-0.01 -0.72,-0.15 -0.77,-0.12 -0.02,0.03 0.29,0.19 0.49,0.25 0.07,0.01 0.16,0.03 0.25,0.04 -0.01,0.01 -0.03,0.02 -0.05,0.04 -0.17,0.13 -0.35,0.41 -0.50,0.75 -0.16,0.31 -0.36,0.81 -0.40,1.13 -0.04,0.29 0.02,0.58 0.16,0.66 0.10,0.05 0.30,0.12 0.54,-0.24 0.22,-0.38 0.68,-1.63 0.81,-2.02 0.05,-0.23 0.02,-0.29 -0.03,-0.32 0.27,-0.03 0.63,-0.13 0.89,-0.10 0.26,0.01 0.36,0.20 0.65,0.24 0.15,0.00 0.41,-3.8e-4 0.63,-0.01 -0.13,0.12 -0.26,0.30 -0.41,0.52 -0.22,0.32 -0.56,0.91 -0.67,1.22 -0.11,0.29 -0.14,0.45 -0.05,0.50 0.20,0.31 0.41,0.40 0.62,0.31 0.19,-0.10 0.38,-0.53 0.59,-0.91 0.19,-0.40 0.39,-1.12 0.57,-1.45 0.16,-0.32 0.53,-0.19 0.44,-0.50 -0.11,-0.34 -0.70,-1.09 -1.03,-1.47 -0.35,-0.40 -0.77,-0.74 -0.93,-0.78 -0.16,-0.03 -0.16,0.23 -0.01,0.55 0.14,0.29 0.68,0.95 0.87,1.28 0.17,0.32 0.22,0.49 0.17,0.60 -0.01,0.01 -0.03,0.03 -0.05,0.04 -0.28,-0.02 -0.68,-0.05 -0.87,-0.09 -0.31,-0.06 -0.37,-0.22 -0.60,-0.23 -0.03,-0.00 -0.06,-0.00 -0.10,-0.00 0.06,-0.07 0.08,-0.18 0.07,-0.30 -0.02,-0.17 -0.09,-0.38 -0.25,-0.67 -0.17,-0.31 -0.57,-0.92 -0.78,-1.15 -0.18,-0.18 -0.37,-0.26 -0.49,-0.26 z m 12.49,0.00 c -0.16,-0.01 0.05,0.32 0.29,0.55 0.25,0.23 0.96,0.68 1.25,1.00 0.24,0.27 0.26,0.62 0.36,0.82 -0.06,0.00 -0.11,0.05 -0.12,0.16 -0.02,0.20 0.18,0.82 0.20,1.24 -0.01,0.41 -0.27,1.03 -0.18,1.21 0.09,0.14 0.59,-0.01 0.72,-0.27 0.08,-0.28 0.00,-0.93 -0.06,-1.31 -0.05,-0.28 -0.15,-0.57 -0.24,-0.75 0.01,-0.00 0.02,-0.01 0.03,-0.01 0.07,-0.07 0.23,-0.30 0.23,-0.53 0.00,-0.23 0.14,-0.44 -0.23,-0.78 -0.41,-0.36 -1.83,-1.16 -2.16,-1.29 -0.04,-0.01 -0.06,-0.02 -0.09,-0.03 z m 2.34,0.00 c -0.02,3.5e-5 -0.05,0.00 -0.06,0.01 -0.11,0.05 0.25,0.46 0.48,0.70 0.20,0.22 0.60,0.45 0.81,0.65 0.18,0.19 0.33,0.34 0.38,0.47 -0.10,0.17 -0.17,0.42 -0.23,0.79 -0.07,0.34 -0.11,1.03 -0.10,1.34 0.01,0.30 0.05,0.45 0.15,0.47 0.29,0.19 0.50,0.21 0.64,0.04 0.13,-0.17 0.11,-0.62 0.15,-1.04 0,-0.44 -0.08,-1.14 -0.06,-1.50 0.02,-0.37 0.34,-0.35 0.18,-0.61 -0.19,-0.28 -0.83,-0.73 -1.23,-0.95 -0.35,-0.20 -0.90,-0.37 -1.09,-0.37 z M 23.99,12.56 c -0.07,-0.00 -0.14,0.01 -0.18,0.05 -0.10,0.08 -0.10,0.30 0.08,0.65 0.19,0.32 0.81,0.97 1.06,1.31 0.20,0.32 0.11,0.56 0.26,0.64 0.13,0.04 0.51,-0.09 0.64,-0.21 0.11,-0.10 0.14,-0.26 0.09,-0.44 -0.04,-0.19 -0.18,-0.39 -0.40,-0.68 -0.25,-0.31 -0.78,-0.92 -1.07,-1.12 -0.19,-0.13 -0.37,-0.20 -0.50,-0.21 z m 2.06,0.14 c -0.16,-0.01 -0.13,0.27 0.07,0.58 0.19,0.29 0.81,0.86 1.06,1.17 0.22,0.29 0.30,0.48 0.27,0.59 -0.16,0.15 -0.31,0.40 -0.46,0.77 -0.17,0.37 -0.38,1.03 -0.46,1.38 -0.08,0.32 -0.06,0.48 0.03,0.52 0.25,0.28 0.47,0.35 0.66,0.22 0.19,-0.14 0.29,-0.61 0.44,-1.05 0.11,-0.44 0.21,-1.23 0.33,-1.59 0.11,-0.37 0.48,-0.28 0.35,-0.60 -0.16,-0.35 -0.86,-1.00 -1.24,-1.35 -0.40,-0.35 -0.89,-0.64 -1.05,-0.65 z m 4.15,0.02 c -0.02,-7.93e-4 -0.04,0.00 -0.06,0.00 -0.14,-0.01 -0.10,0.11 0.15,0.37 0.23,0.26 1.00,0.89 1.29,1.21 0.25,0.27 0.28,0.49 0.41,0.57 -0.10,0.03 -0.21,0.07 -0.30,0.08 -0.34,0.05 -0.54,-0.03 -0.78,-0.02 -0.11,0 -0.21,-3.7e-5 -0.32,0 0.05,-0.05 0.08,-0.11 0.04,-0.24 -0.13,-0.33 -0.74,-0.97 -1.11,-1.29 -0.37,-0.34 -1.02,-0.66 -1.14,-0.63 -0.12,0.04 0.15,0.55 0.35,0.85 0.17,0.30 0.54,0.59 0.72,0.87 0.17,0.23 0.25,0.44 0.29,0.58 -0.00,0.00 -0.01,0.01 -0.01,0.02 -0.04,0.01 -0.08,0.03 -0.11,0.05 -0.17,0.05 -0.42,0.11 -0.45,0.18 -0.06,0.05 0.01,0.20 0.21,0.16 0.03,-0.01 0.08,-0.03 0.13,-0.05 -0.06,0.11 -0.11,0.25 -0.17,0.41 -0.13,0.36 -0.36,1.07 -0.40,1.40 -0.06,0.31 -0.04,0.49 0.05,0.52 0.26,0.26 0.50,0.34 0.67,0.19 0.15,-0.16 0.29,-0.61 0.38,-1.06 0.09,-0.45 0.15,-1.25 0.25,-1.61 0.02,-0.11 0.08,-0.18 0.13,-0.23 0.25,-0.06 0.32,-0.01 0.58,0.01 0.16,0.02 0.39,0.07 0.63,0.09 -0.07,0.02 -0.13,0.10 -0.14,0.23 -0.01,0.26 0.18,0.99 0.24,1.37 0.02,0.37 -0.15,0.67 -0.07,0.79 0.05,0.10 0.34,0.07 0.47,-0.17 0.11,-0.30 0.30,-1.11 0.26,-1.49 -0.04,-0.37 -0.37,-0.62 -0.50,-0.70 -0.02,-0.01 -0.04,-0.02 -0.06,-0.03 0.05,10e-5 0.09,1.89e-4 0.14,-0.00 0.31,-0.08 0.60,-0.39 0.90,-0.47 0.29,-0.06 0.76,0.07 0.80,0.08 -0.01,-0.02 -0.43,-0.21 -0.77,-0.18 -0.12,0.00 -0.26,0.04 -0.41,0.09 0.00,-0.00 0.00,-0.00 0.00,-0.01 0.05,-0.12 0.07,-0.28 -0.12,-0.55 C 32.13,13.87 31.53,13.27 31.15,13.04 30.81,12.84 30.40,12.73 30.21,12.73 z M 4.15,14.58 c 0.03,0.01 0.07,0.02 0.11,0.03 -0.03,0.04 -0.07,0.09 -0.12,0.14 -0.04,0.05 -0.09,0.11 -0.15,0.17 0.05,-0.11 0.10,-0.23 0.16,-0.35 z m 0.13,0.20 c -0.02,0.00 -0.04,0.01 -0.06,0.04 -0.11,0.11 -0.37,0.58 -0.40,0.91 -0.04,0.29 0.18,0.76 0.23,0.91 0.04,0.12 0.11,0.02 0.13,-0.10 0,-0.14 -0.08,-0.47 -0.05,-0.72 0.02,-0.27 0.24,-0.64 0.26,-0.81 0.00,-0.14 -0.05,-0.24 -0.11,-0.23 z m 20.66,0.39 c -0.09,-0.00 -0.20,0.02 -0.31,0.11 -0.18,0.14 -0.38,0.44 -0.54,0.80 -0.17,0.32 -0.39,0.88 -0.43,1.20 -0.05,0.32 0.04,0.61 0.17,0.72 0.11,0.07 0.32,0.13 0.57,-0.26 0.23,-0.44 0.75,-1.72 0.87,-2.16 0.11,-0.42 -0.08,-0.34 -0.17,-0.37 -0.04,-0.02 -0.09,-0.04 -0.15,-0.04 z m 17.30,14.80 c -0.00,-7.45e-4 -0.01,-4.2e-5 -0.02,0.00 -0.10,0.08 -0.21,1.08 -0.29,1.53 -0.08,0.44 -0.13,0.80 -0.23,1.09 -0.13,0.25 -0.33,0.39 -0.48,0.47 -0.17,0.05 -0.40,0.00 -0.45,-0.07 -0.04,-0.09 0.08,-0.06 0.15,-0.40 0.02,-0.36 0.18,-1.32 0.11,-1.62 -0.07,-0.30 -0.39,-0.40 -0.50,-0.07 -0.13,0.34 -0.08,1.62 -0.19,2.10 -0.12,0.47 -0.30,0.56 -0.44,0.72 -0.14,0.14 -0.26,0.17 -0.38,0.11 l 0,0.00 c -0.14,-0.01 -0.18,0.02 -0.10,0.05 0.07,0.03 0.38,0.07 0.57,0.17 0.16,0.07 0.36,0.13 0.44,0.33 0.07,0.19 0.06,0.45 -0.01,0.81 0.17,0.04 0.29,-0.05 0.38,-0.29 0.08,-0.25 0.07,-0.90 0.11,-1.17 0.02,-0.29 -0.05,-0.45 0.07,-0.48 0.11,-0.02 0.49,0.11 0.64,0.33 0.11,0.19 0.16,0.49 0.11,0.88 0.26,-0.23 0.46,-0.48 0.52,-0.76 0.03,-0.28 -0.09,-0.66 -0.12,-0.87 -0.02,-0.22 -0.04,-0.33 0.04,-0.45 0.05,-0.07 0.13,-0.14 0.25,-0.20 -0.15,0.03 -0.23,-0.00 -0.25,-0.13 -0.03,-0.20 0.29,-0.73 0.30,-1.07 0.00,-0.34 -0.15,-0.98 -0.25,-1.00 z m 0.20,2.21 c 0.06,-0.01 0.13,-0.04 0.22,-0.08 -0.08,0.02 -0.16,0.05 -0.22,0.08 z m -3.36,-0.62 c -0.09,0.01 -0.21,0.12 -0.29,0.34 -0.13,0.35 -0.22,1.42 -0.33,1.89 -0.10,0.43 -0.24,0.68 -0.37,0.85 -0.07,0.08 -0.15,0.14 -0.24,0.16 0.17,0.02 0.32,0.09 0.47,0.22 0.22,0.19 0.36,0.78 0.59,0.89 0.20,0.06 0.55,-0.20 0.62,-0.40 0.02,-0.20 -0.23,-0.57 -0.35,-0.76 -0.11,-0.20 -0.29,-0.25 -0.31,-0.38 -0.02,-0.15 0.05,-0.29 0.13,-0.39 0.04,-0.07 0.10,-0.13 0.17,-0.17 -0.04,0.00 -0.06,-0.03 -0.06,-0.12 -0.00,-0.16 0.06,-0.46 0.10,-0.80 0.02,-0.35 0.04,-1.06 0,-1.22 -0.03,-0.06 -0.08,-0.09 -0.13,-0.09 z m 0.10,2.25 c 0.02,-0.00 0.06,-0.01 0.09,-0.05 -0.03,0.01 -0.06,0.03 -0.09,0.05 z m 4.45,-2.13 c -0.09,0.22 -0.19,0.44 -0.29,0.66 -0.01,-0.12 -0.00,-0.23 0.04,-0.34 0.06,-0.10 0.14,-0.21 0.24,-0.32 z m -6.61,0.62 c -0.10,-0.00 -0.20,0.05 -0.24,0.21 -0.08,0.31 0.06,1.34 -0.02,1.85 -0.10,0.50 -0.26,0.88 -0.54,1.15 l 0,0.00 c 0.01,0.02 0.02,0.03 0.04,0.05 -0.19,0.07 -0.38,0.14 -0.58,0.17 -0.17,0.02 -0.36,0.00 -0.54,0.00 0.07,-0.31 0.12,-0.91 0.11,-1.24 -0.05,-0.38 -0.23,-0.88 -0.35,-0.84 -0.12,0.05 -0.27,0.68 -0.31,1.11 -0.03,0.33 -0.02,0.86 0.03,1.15 -0.07,0.09 -0.13,0.21 -0.19,0.30 -0.12,0.14 -0.13,0.37 -0.31,0.46 -0.19,0.08 -0.52,0.01 -0.79,0.05 -0.16,0.01 -0.34,0.00 -0.51,0.01 0.11,-0.08 0.25,-0.21 0.32,-0.34 0.08,-0.21 0.07,-0.49 0.05,-0.80 -0.04,-0.31 -0.18,-0.90 -0.29,-1.03 -0.11,-0.14 -0.28,-0.01 -0.34,0.23 -0.05,0.24 -0.06,0.90 -0.04,1.25 0.01,0.31 0.00,0.60 0.08,0.72 -0.03,0.01 -0.07,0.02 -0.10,0.05 -0.21,0.13 -0.33,0.57 -0.47,0.72 -0.16,0.13 -0.28,0.06 -0.45,0.10 -0.12,0.01 -0.26,0.02 -0.38,0.05 0.00,-0.01 0.01,-0.03 0.02,-0.05 0.06,-0.32 -0.10,-1.25 -0.19,-1.58 -0.11,-0.34 -0.36,-0.49 -0.43,-0.40 -0.09,0.08 -0.05,0.48 -0.05,0.87 -0.02,0.36 -0.06,1.17 0.05,1.36 0.02,0.04 0.06,0.06 0.11,0.07 -8.51e-4,0.00 8.49e-4,0.00 0,0.00 -0.14,0.30 -0.27,0.48 -0.35,0.62 -0.08,0.12 -0.15,0.15 -0.17,0.11 -0.01,0.02 0.01,0.02 0.10,0.02 0.06,-0.00 0.17,-0.01 0.28,-0.05 0.20,0.06 0.40,0.14 0.64,0.22 0.25,0.07 0.56,0.32 0.81,0.31 0.25,-0.01 0.42,-0.14 0.62,-0.37 -0.07,-0.02 -0.23,-0.08 -0.52,-0.19 -0.29,-0.11 -0.68,-0.27 -1.20,-0.48 l -0.00,0 c 0.03,0.07 0.02,0.14 -0.03,0.23 -0.03,0.03 -0.08,0.07 -0.14,0.11 0.03,-0.15 0.01,-0.38 0.22,-0.49 0.24,-0.15 0.91,-0.13 1.22,-0.29 0.07,-0.04 0.12,-0.10 0.17,-0.17 0.26,0.19 0.95,0.56 1.26,0.63 0.32,0.03 0.70,-0.16 0.64,-0.31 -0.08,-0.14 -0.76,-0.36 -1.05,-0.49 -0.23,-0.13 -0.43,-0.24 -0.58,-0.27 0.04,-0.03 0.10,-0.07 0.17,-0.10 0.33,-0.16 1.08,-0.20 1.53,-0.29 0.35,0.18 0.69,0.32 1.03,0.41 0.36,0.08 0.89,0.15 1.01,0.09 0.07,-0.09 -0.15,-0.36 -0.44,-0.52 -0.26,-0.13 -0.63,-0.25 -1.11,-0.33 0.03,-0.09 0.05,-0.19 0.12,-0.25 0.11,-0.13 0.23,-0.08 0.48,-0.19 0.20,-0.09 0.50,-0.22 0.85,-0.37 0.30,0.40 0.58,0.66 0.87,0.84 0.28,0.16 0.70,0.21 0.83,0.13 0.10,-0.10 0.04,-0.47 -0.11,-0.72 -0.16,-0.25 -0.45,-0.49 -0.86,-0.75 0.22,-0.47 0.35,-0.91 0.40,-1.35 0.04,-0.45 0.00,-1.04 -0.09,-1.24 -0.05,-0.11 -0.16,-0.18 -0.27,-0.19 z m 0.63,2.50 c -0.03,9.68e-4 -0.07,6.22e-4 -0.10,0.00 0.10,0.02 0.20,0.03 0.29,0.01 -0.05,-0.00 -0.12,-0.01 -0.18,-0.01 z m -9.08,2.00 c -0.01,0.00 -0.02,0.01 -0.03,0.02 -0.08,0.08 -0.07,0.48 -0.06,0.87 0,0.37 -0.06,1.17 0.06,1.36 0.06,0.09 0.25,0.09 0.40,0.01 -0.02,0.07 -0.05,0.16 -0.15,0.25 -0.18,0.14 -0.79,0.37 -0.83,0.47 -0.05,0.06 0.21,0.09 0.39,0.05 -0.01,0.01 -0.02,0.02 -0.04,0.03 0.15,0.13 0.38,0.24 0.69,0.31 0.30,0.08 0.80,0.14 1.13,0.12 0.31,-0.04 0.55,-0.17 0.74,-0.38 -0.38,0.06 -0.74,0.05 -1.07,-0.04 -0.33,-0.10 -0.64,-0.27 -0.94,-0.54 0.02,-0.01 0.04,-0.04 0.07,-0.05 0.21,-0.16 0.72,-0.29 0.76,-0.35 0,-0.06 -0.41,-0.09 -0.59,-0.03 0.02,-0.03 0.04,-0.07 0.06,-0.12 0.05,-0.32 -0.09,-1.24 -0.19,-1.58 -0.09,-0.30 -0.30,-0.44 -0.39,-0.42 z m -1.73,0.93 c -0.01,0.00 -0.02,0.01 -0.03,0.02 -0.08,0.08 -0.07,0.48 -0.06,0.87 0,0.37 -0.07,1.15 0.06,1.36 0.11,0.17 0.53,0.03 0.62,-0.25 0.06,-0.32 -0.10,-1.24 -0.19,-1.58 -0.09,-0.30 -0.30,-0.44 -0.39,-0.42 z m -2.64,1.46 c -0.12,0.01 -0.24,0.36 -0.25,0.55 -0.01,0.21 0.03,0.48 0.22,0.75 0.17,0.26 0.44,0.50 0.83,0.78 -0.16,0.17 -0.20,0.30 -0.08,0.41 0.11,0.10 0.33,0.18 0.76,0.22 0.40,0.02 0.96,0.00 1.68,-0.06 -0.61,-0.09 -1.07,-0.20 -1.43,-0.32 -0.35,-0.12 -0.59,-0.27 -0.69,-0.44 l 0.00,-0.00 0.17,-0.25 C 25.20,40.78 25.00,40.59 24.81,40.32 24.60,40.02 24.41,39.34 24.26,39.25 c -0.01,-0.01 -0.03,-0.01 -0.05,-0.01 z m 4.65,0.17 c 0.01,0.03 -0.02,0.08 -0.09,0.16 -0.04,0.04 -0.09,0.09 -0.17,0.15 0.08,-0.10 0.16,-0.22 0.26,-0.31 z m -5.99,0.54 c -0.13,0.00 -0.27,0.29 -0.32,0.50 -0.05,0.21 -0.02,0.48 0.11,0.78 0.14,0.28 0.36,0.57 0.71,0.90 -0.19,0.13 -0.24,0.27 -0.14,0.39 0.08,0.10 0.30,0.24 0.72,0.33 0.40,0.08 0.94,0.13 1.66,0.17 -0.57,-0.17 -1.05,-0.35 -1.36,-0.51 -0.32,-0.18 -0.54,-0.36 -0.61,-0.53 l 0.20,-0.23 c -0.20,-0.13 -0.36,-0.34 -0.52,-0.65 -0.16,-0.32 -0.26,-1.01 -0.39,-1.14 -0.01,-0.01 -0.03,-0.01 -0.05,-0.01 z m 4.23,0.36 c 0.04,0.04 4.2e-5,0.09 -0.07,0.19 -0.08,0.09 -0.23,0.19 -0.44,0.35 0.15,0.13 0.38,0.23 0.69,0.31 0.30,0.07 0.80,0.16 1.13,0.13 0.31,-0.04 0.55,-0.17 0.74,-0.38 -0.38,0.06 -0.73,0.05 -1.07,-0.04 -0.34,-0.10 -0.66,-0.29 -0.97,-0.56 z m -6.25,0.54 c -0.12,0.01 -0.24,0.30 -0.25,0.50 -0.03,0.20 0.02,0.43 0.18,0.72 0.15,0.25 0.39,0.50 0.74,0.78 -0.16,0.14 -0.19,0.28 -0.09,0.38 0.09,0.10 0.29,0.18 0.69,0.24 0.38,0.04 0.90,0.04 1.58,0.02 C 23.14,43.43 22.69,43.30 22.37,43.17 22.04,43.03 21.84,42.88 21.75,42.72 l -0.00,0 0.17,-0.23 C 21.72,42.38 21.54,42.18 21.38,41.92 c -0.17,-0.28 -0.35,-0.95 -0.47,-1.04 -0.01,-0.01 -0.03,-0.01 -0.05,-0.01 z m -1.70,0.77 c -0.01,-0.00 -0.03,0.00 -0.04,0.01 -0.06,0.10 0.00,0.84 0.21,1.17 0.17,0.29 0.47,0.51 0.89,0.64 -0.07,0.16 -0.04,0.30 0.09,0.40 0.13,0.08 0.41,0.16 0.70,0.19 0.28,0.04 1.04,0.09 0.95,0 -0.11,-0.11 -0.63,-0.33 -1.59,-0.67 -0.23,-0.48 -0.42,-0.86 -0.64,-1.15 -0.19,-0.26 -0.46,-0.59 -0.58,-0.60 z" />
</svg>
