<?xml version="1.0" encoding="UTF-8" standalone="no"?>
<!-- Created with Inkscape (http://www.inkscape.org/) -->
<svg xmlns:dc="http://purl.org/dc/elements/1.1/" xmlns:cc="http://creativecommons.org/ns#" xmlns:rdf="http://www.w3.org/1999/02/22-rdf-syntax-ns#" xmlns:svg="http://www.w3.org/2000/svg" xmlns="http://www.w3.org/2000/svg" version="1.0" width="100%" height="100%" viewBox="0 0 48 48" id="svg2">
<defs id="defs7" />
<path d="m 23.10,46.22 c -0.02,-0.03 -0.05,-0.10 -0.06,-0.15 -0.01,-0.07 -0.02,-0.08 -0.13,-0.06 -0.27,0.04 -0.28,0.04 -0.30,-0.10 l -0.01,-0.13 -0.40,-0.03 c -0.22,-0.02 -0.54,-0.04 -0.71,-0.04 -0.17,-0.00 -0.33,-0.01 -0.35,-0.03 -0.05,-0.03 -0.95,-0.04 -1.02,-0.00 -0.08,0.04 -0.06,0.08 0.08,0.14 0.09,0.04 0.13,0.07 0.13,0.11 0,0.08 -0.07,0.10 -0.24,0.05 -0.11,-0.03 -0.22,-0.04 -0.48,-0.02 -0.23,0.01 -0.33,0.00 -0.35,-0.01 -0.05,-0.08 0.13,-0.15 0.48,-0.16 0.13,-0.00 0.19,-0.03 0.13,-0.07 -0.05,-0.03 -0.82,-0.06 -1.00,-0.03 -0.15,0.02 -0.53,-0.03 -0.59,-0.08 -0.02,-0.01 -0.04,-0.08 -0.04,-0.14 -0.00,-0.10 -0.01,-0.11 -0.11,-0.11 -0.08,-0.00 -0.11,0.00 -0.18,0.08 l -0.07,0.09 -0.20,-0.03 c -0.11,-0.01 -0.32,-0.04 -0.46,-0.04 -0.21,-0.01 -0.28,-0.00 -0.37,0.03 -0.09,0.04 -0.14,0.05 -0.30,0.03 -0.57,-0.07 -0.96,-0.09 -1.14,-0.06 -0.21,0.03 -0.98,0.04 -1.28,0.01 l -0.20,-0.02 0.17,-0.11 0.17,-0.11 0.44,-0.02 c 0.53,-0.03 1.34,-0.03 1.99,-0.00 0.42,0.01 0.49,0.01 0.60,-0.03 0.14,-0.06 0.22,-0.06 0.46,-0.02 0.29,0.05 0.30,0.04 0.32,-0.31 0.01,-0.22 0.03,-0.33 0.07,-0.38 0.02,-0.03 0.06,-0.12 0.08,-0.19 0.04,-0.16 0.35,-0.62 0.47,-0.69 0.06,-0.03 0.10,-0.10 0.13,-0.19 0.02,-0.07 0.09,-0.19 0.14,-0.25 0.06,-0.07 0.13,-0.21 0.18,-0.37 0.09,-0.28 0.18,-0.41 0.26,-0.38 0.04,0.01 0.05,0.04 0.03,0.22 -0.01,0.11 -0.02,0.42 -0.04,0.70 -0.02,0.41 -0.03,0.51 -0.08,0.55 -0.08,0.09 -0.11,0.02 -0.09,-0.22 0.03,-0.48 0.03,-0.47 -0.02,-0.47 -0.04,0 -0.07,0.03 -0.11,0.14 -0.03,0.08 -0.09,0.19 -0.14,0.25 -0.04,0.06 -0.08,0.13 -0.08,0.15 0,0.04 0.25,0.22 0.31,0.22 0.02,0 0.05,0.03 0.08,0.08 0.05,0.10 0.05,0.15 0.01,0.15 -0.04,0 -0.35,-0.21 -0.42,-0.29 -0.05,-0.06 -0.15,-0.08 -0.18,-0.03 -0.01,0.01 0.02,0.07 0.08,0.13 0.05,0.05 0.10,0.11 0.10,0.13 0,0.01 0.10,0.10 0.23,0.19 0.31,0.22 0.47,0.22 0.39,0.00 -0.03,-0.08 -0.03,-0.11 0.00,-0.15 0.02,-0.02 0.06,-0.09 0.08,-0.15 0.01,-0.05 0.05,-0.12 0.07,-0.14 0.02,-0.02 0.07,-0.16 0.10,-0.31 0.05,-0.22 0.06,-0.28 0.03,-0.39 -0.01,-0.07 -0.03,-0.18 -0.03,-0.24 0,-0.08 -0.01,-0.12 -0.06,-0.15 -0.04,-0.03 -0.06,-0.08 -0.08,-0.23 -0.02,-0.18 -0.02,-0.19 -0.10,-0.20 -0.08,-0.00 -0.08,-0.01 -0.07,-0.14 0.01,-0.13 0.19,-0.66 0.37,-1.06 0.05,-0.11 0.10,-0.28 0.12,-0.37 0.03,-0.15 0.09,-0.29 0.14,-0.29 0.01,0 0.05,0.04 0.09,0.10 0.04,0.07 0.07,0.10 0.11,0.08 0.06,-0.02 0.09,0.02 0.07,0.10 -0.01,0.04 -0.02,0.05 -0.07,0.02 -0.04,-0.02 -0.06,-0.01 -0.08,0.03 -0.03,0.07 0.00,0.17 0.07,0.17 0.02,0 0.06,0.03 0.09,0.07 0.05,0.07 0.17,0.10 0.21,0.03 0.03,-0.05 0.03,-0.46 0.00,-0.55 -0.02,-0.05 -0.04,-0.06 -0.10,-0.05 -0.06,0.01 -0.09,-0.00 -0.14,-0.06 -0.05,-0.07 -0.07,-0.07 -0.15,-0.04 l -0.09,0.03 0.01,-0.11 c 0.01,-0.15 0.17,-0.69 0.20,-0.74 0.01,-0.02 0.04,-0.03 0.06,-0.03 0.04,0 0.13,0.22 0.11,0.28 -0.04,0.12 0.05,0.22 0.30,0.29 0.03,0.01 0.07,0.03 0.08,0.06 0.00,0.02 0.05,0.04 0.10,0.04 0.06,0 0.10,0.02 0.13,0.07 0.05,0.08 0.12,0.09 0.20,0.03 0.03,-0.02 0.07,-0.04 0.10,-0.04 0.07,-0.00 0.13,-0.09 0.15,-0.23 0.02,-0.15 -0.01,-0.24 -0.11,-0.24 -0.07,0 -0.10,0.04 -0.10,0.18 0,0.05 -0.01,0.08 -0.02,0.07 -0.01,-0.01 -0.02,-0.06 -0.02,-0.12 0,-0.16 -0.04,-0.22 -0.16,-0.20 -0.07,0.01 -0.10,0.00 -0.11,-0.02 -0.01,-0.02 -0.04,-0.04 -0.08,-0.04 -0.03,0 -0.09,-0.02 -0.13,-0.05 -0.04,-0.03 -0.10,-0.05 -0.13,-0.05 -0.03,0 -0.05,-0.01 -0.05,-0.02 0,-0.01 -0.04,-0.04 -0.10,-0.07 -0.12,-0.05 -0.12,-0.08 -0.04,-0.28 0.07,-0.19 0.07,-0.31 -0.00,-0.44 -0.04,-0.08 -0.07,-0.20 -0.11,-0.55 -0.06,-0.62 -0.06,-0.74 0.01,-0.92 0.08,-0.20 0.08,-0.36 -0.01,-0.71 -0.10,-0.40 -0.11,-0.46 -0.05,-0.64 0.05,-0.14 0.05,-0.16 0.00,-0.27 -0.02,-0.06 -0.05,-0.17 -0.06,-0.25 -0.00,-0.08 -0.08,-0.28 -0.20,-0.52 -0.27,-0.55 -0.54,-1.10 -0.63,-1.27 -0.04,-0.08 -0.12,-0.24 -0.18,-0.35 -0.05,-0.11 -0.19,-0.35 -0.29,-0.53 -0.10,-0.17 -0.22,-0.40 -0.25,-0.49 -0.03,-0.09 -0.11,-0.24 -0.17,-0.33 -0.05,-0.09 -0.10,-0.17 -0.10,-0.18 0,-0.01 -0.04,-0.11 -0.10,-0.23 -0.19,-0.41 -0.34,-0.75 -0.34,-0.81 0,-0.03 -0.04,-0.15 -0.10,-0.26 -0.05,-0.11 -0.11,-0.25 -0.12,-0.30 -0.01,-0.05 -0.10,-0.24 -0.20,-0.42 -0.17,-0.32 -0.32,-0.67 -0.32,-0.78 0,-0.03 -0.04,-0.13 -0.09,-0.23 -0.09,-0.18 -0.11,-0.24 -0.26,-0.81 -0.07,-0.28 -0.09,-0.42 -0.10,-0.79 -0.01,-0.32 -0.00,-0.45 0.01,-0.47 0.02,-0.01 0.03,-0.10 0.03,-0.23 0,-0.23 0.11,-0.69 0.22,-0.93 0.04,-0.10 0.07,-0.20 0.07,-0.31 -0.00,-0.22 0.22,-0.80 0.42,-1.09 0.04,-0.06 0.10,-0.17 0.12,-0.22 0.01,-0.05 0.07,-0.14 0.13,-0.20 0.05,-0.06 0.09,-0.13 0.09,-0.16 8.6e-5,-0.02 0.05,-0.15 0.11,-0.28 0.06,-0.12 0.11,-0.25 0.11,-0.27 0,-0.01 0.04,-0.08 0.09,-0.15 0.07,-0.09 0.08,-0.13 0.07,-0.20 -0.01,-0.04 -0.02,-0.14 -0.02,-0.21 -0.00,-0.12 8.68e-4,-0.13 0.22,-0.41 0.06,-0.07 0.13,-0.36 0.13,-0.54 6.07e-4,-0.06 0.02,-0.15 0.04,-0.18 0.05,-0.07 0.28,-0.19 0.43,-0.22 0.05,-0.01 0.16,-0.04 0.23,-0.06 0.09,-0.03 0.14,-0.03 0.20,-0.01 0.07,0.03 0.09,0.13 0.04,0.20 -0.03,0.04 -0.43,0.18 -0.55,0.18 -0.16,8.69e-4 -0.22,0.09 -0.22,0.35 0,0.22 -0.01,0.27 -0.20,0.52 -0.14,0.19 -0.15,0.21 -0.14,0.34 0.00,0.07 0.03,0.19 0.05,0.26 0.03,0.11 0.03,0.13 -0.09,0.44 -0.07,0.17 -0.15,0.38 -0.18,0.46 -0.06,0.17 -0.13,0.24 -0.27,0.24 -0.16,0 -0.20,0.03 -0.23,0.17 -0.01,0.06 -0.08,0.24 -0.16,0.40 -0.15,0.30 -0.18,0.47 -0.10,0.58 0.05,0.07 0.13,0.06 0.29,-0.05 0.17,-0.12 0.25,-0.14 0.68,-0.19 0.26,-0.02 0.36,-0.02 0.48,8.67e-4 0.18,0.04 0.22,0.02 0.27,-0.15 0.06,-0.25 0.18,-0.36 0.28,-0.28 0.06,0.05 0.05,0.11 -0.05,0.32 -0.05,0.10 -0.11,0.24 -0.13,0.30 -0.04,0.14 -0.13,0.19 -0.27,0.14 -0.12,-0.04 -0.43,-0.04 -0.76,0.01 -0.26,0.03 -0.29,0.05 -0.47,0.19 -0.21,0.16 -0.26,0.17 -0.42,0.05 -0.07,-0.05 -0.09,-0.05 -0.13,-0.02 -0.02,0.02 -0.04,0.07 -0.04,0.13 1.73e-4,0.08 -0.05,0.39 -0.16,0.85 -0.04,0.19 -0.06,1.07 -0.02,1.17 0.01,0.02 0.05,0.06 0.10,0.09 0.08,0.04 0.08,0.04 0.08,0.30 0.00,0.26 0.04,0.42 0.13,0.55 0.02,0.03 0.08,0.11 0.12,0.16 0.04,0.05 0.08,0.14 0.09,0.20 0.03,0.19 0.10,0.26 0.16,0.15 0.03,-0.07 -0.00,-0.52 -0.06,-0.70 l -0.04,-0.11 -0.05,0.12 -0.05,0.13 -0.03,-0.11 c -0.02,-0.06 -0.04,-0.16 -0.04,-0.22 -2.61e-4,-0.05 -0.01,-0.17 -0.03,-0.25 -0.03,-0.17 -0.00,-0.25 0.10,-0.23 0.05,0.00 0.06,0.03 0.06,0.15 0.00,0.08 0.01,0.20 0.02,0.27 l 0.01,0.13 0.07,-0.06 c 0.05,-0.05 0.08,-0.06 0.12,-0.03 0.04,0.02 0.04,0.07 0.04,0.30 l -0.01,0.27 0.24,0.24 c 0.13,0.13 0.27,0.29 0.32,0.36 0.11,0.17 0.41,0.51 0.91,1.04 0.24,0.26 0.52,0.57 0.61,0.68 0.08,0.11 0.20,0.24 0.26,0.28 0.18,0.12 0.62,0.54 0.73,0.69 0.05,0.08 0.19,0.22 0.30,0.32 0.34,0.30 0.82,0.84 0.92,1.05 0.03,0.06 0.11,0.18 0.19,0.27 0.11,0.13 0.13,0.17 0.13,0.28 0,0.08 0.02,0.17 0.08,0.26 0.07,0.12 0.08,0.16 0.07,0.39 -0.00,0.22 -0.01,0.27 -0.09,0.43 -0.06,0.13 -0.10,0.17 -0.16,0.18 -0.05,0.00 -0.07,0.03 -0.09,0.10 -0.01,0.07 -0.03,0.10 -0.11,0.12 l -0.09,0.02 -0.01,0.23 c -0.02,0.51 -0.02,0.74 0.00,0.75 0.01,0.00 0.05,-0.03 0.08,-0.08 0.03,-0.07 0.05,-0.17 0.05,-0.40 0,-0.16 0.00,-0.32 0.01,-0.35 0.03,-0.07 0.07,-0.05 0.07,0.04 6.08e-4,0.12 0.03,0.18 0.10,0.16 0.05,-0.01 0.05,-0.00 0.03,-0.41 l -0.00,-0.13 0.11,-0.01 c 0.09,-0.01 0.15,-0.05 0.30,-0.21 0.19,-0.20 0.26,-0.23 0.35,-0.15 0.07,0.07 0.05,0.12 -0.17,0.34 -0.24,0.23 -0.38,0.44 -0.66,1.05 -0.07,0.16 -0.17,0.43 -0.22,0.59 -0.04,0.16 -0.12,0.34 -0.15,0.40 -0.10,0.15 -0.11,0.19 -0.04,0.27 0.05,0.06 0.05,0.07 0.01,0.11 -0.08,0.07 -0.13,0.20 -0.11,0.32 0.04,0.25 0.07,0.32 0.15,0.36 0.06,0.03 0.08,0.06 0.09,0.14 0.00,0.06 -0.00,0.13 -0.02,0.17 -0.03,0.05 -0.03,0.05 -0.10,0.01 -0.09,-0.06 -0.11,-0.02 -0.12,0.22 -0.01,0.21 0.01,0.25 0.08,0.14 0.02,-0.04 0.09,-0.06 0.25,-0.07 0.45,-0.04 1.24,0.17 1.86,0.52 0.24,0.14 0.31,0.13 0.40,-0.05 0.03,-0.07 0.06,-0.15 0.06,-0.17 0,-0.07 -0.16,-0.19 -0.87,-0.62 -0.23,-0.14 -0.47,-0.24 -0.78,-0.32 -0.20,-0.05 -0.29,-0.06 -0.50,-0.05 -0.18,0.01 -0.25,0.00 -0.26,-0.02 -0.00,-0.02 0.00,-0.11 0.03,-0.21 0.06,-0.24 0.06,-0.35 -0.01,-0.40 -0.08,-0.05 -0.07,-0.06 0.04,-0.14 0.12,-0.07 0.39,-0.08 0.83,-0.01 0.14,0.02 0.33,0.03 0.40,0.02 0.13,-0.01 0.13,-0.01 0.27,0.15 0.07,0.09 0.23,0.23 0.34,0.32 0.10,0.08 0.29,0.24 0.40,0.35 0.11,0.10 0.25,0.22 0.31,0.26 0.05,0.03 0.13,0.09 0.15,0.13 0.05,0.08 0.06,0.19 0.00,0.19 -0.05,0 -0.12,0.08 -0.17,0.21 -0.08,0.23 0.06,0.20 0.39,-0.07 0.07,-0.06 0.15,-0.15 0.16,-0.18 0.01,-0.03 0.06,-0.13 0.11,-0.22 0.11,-0.18 0.11,-0.18 0.04,-0.25 -0.07,-0.07 -0.07,-0.13 0.01,-0.24 0.04,-0.04 0.16,-0.26 0.26,-0.47 0.14,-0.29 0.21,-0.40 0.27,-0.43 0.18,-0.09 0.21,-0.14 0.21,-0.34 0,-0.11 0.01,-0.22 0.04,-0.28 0.06,-0.12 0.38,-0.61 0.45,-0.69 0.08,-0.08 0.10,-0.19 0.04,-0.21 -0.07,-0.03 -0.25,0.10 -0.43,0.34 l -0.17,0.22 -0.15,-0.00 c -0.16,-0.00 -0.29,0.03 -0.47,0.17 -0.13,0.10 -0.22,0.09 -0.27,-0.00 -0.04,-0.08 0.00,-0.15 0.15,-0.24 0.07,-0.04 0.16,-0.12 0.20,-0.17 0.05,-0.06 0.12,-0.11 0.22,-0.15 0.08,-0.02 0.19,-0.09 0.25,-0.16 0.08,-0.08 0.14,-0.12 0.23,-0.13 0.15,-0.02 0.32,-0.12 0.49,-0.29 l 0.12,-0.13 -0.01,-0.24 c -0.02,-0.55 -0.35,-1.78 -0.58,-2.22 -0.03,-0.06 -0.06,-0.14 -0.06,-0.18 0,-0.03 -0.05,-0.19 -0.11,-0.34 -0.06,-0.15 -0.11,-0.28 -0.11,-0.29 0,-0.02 -0.44,-1.01 -0.47,-1.04 -0.01,-0.01 -0.12,-0.25 -0.24,-0.52 -0.30,-0.68 -0.38,-0.83 -0.54,-1.03 -0.10,-0.14 -0.16,-0.18 -0.28,-0.22 -0.11,-0.03 -0.15,-0.06 -0.16,-0.12 -0.03,-0.14 0.10,-0.20 0.25,-0.11 0.08,0.04 0.20,0.05 0.20,0.01 0,-0.01 -0.05,-0.07 -0.11,-0.14 -0.06,-0.06 -0.15,-0.19 -0.21,-0.29 -0.05,-0.09 -0.15,-0.24 -0.21,-0.32 -0.12,-0.17 -0.14,-0.29 -0.03,-0.30 0.09,-0.01 0.17,0.08 0.32,0.38 0.07,0.14 0.16,0.30 0.20,0.36 0.04,0.06 0.07,0.15 0.07,0.19 0,0.05 0.02,0.10 0.07,0.13 0.07,0.04 0.09,0.11 0.15,0.41 0.01,0.08 0.09,0.25 0.16,0.38 0.15,0.26 0.36,0.69 0.39,0.79 0.01,0.03 0.07,0.17 0.13,0.29 0.06,0.12 0.12,0.27 0.14,0.33 0.01,0.05 0.06,0.15 0.10,0.20 0.08,0.12 0.25,0.50 0.39,0.85 0.05,0.15 0.14,0.38 0.19,0.50 0.11,0.28 0.44,1.32 0.44,1.41 0,0.03 0.02,0.15 0.06,0.25 0.09,0.28 0.10,0.65 0.04,0.90 -0.02,0.11 -0.07,0.25 -0.10,0.31 -0.02,0.06 -0.10,0.23 -0.15,0.39 -0.05,0.15 -0.17,0.41 -0.26,0.57 -0.12,0.22 -0.16,0.32 -0.18,0.46 -0.01,0.13 -0.05,0.24 -0.17,0.46 -0.17,0.31 -0.37,0.72 -0.55,1.11 -0.19,0.43 -0.36,0.73 -0.45,0.77 -0.18,0.08 -0.45,0.15 -0.51,0.12 -0.04,-0.02 -0.06,-0.01 -0.11,0.03 -0.03,0.03 -0.05,0.07 -0.05,0.08 0,0.01 -0.12,0.29 -0.28,0.61 -0.15,0.32 -0.31,0.67 -0.35,0.77 -0.03,0.10 -0.14,0.32 -0.23,0.50 -0.21,0.42 -0.59,1.61 -0.59,1.86 8.68e-4,0.04 0.03,0.12 0.07,0.17 0.14,0.19 0.08,0.27 -0.18,0.22 -0.15,-0.02 -0.18,-0.02 -0.37,0.06 -0.33,0.16 -0.33,0.21 -0.00,0.35 0.12,0.05 0.28,0.14 0.35,0.20 0.07,0.05 0.15,0.09 0.18,0.09 0.02,-0.00 0.07,-0.05 0.09,-0.11 0.05,-0.12 0.35,-0.38 0.43,-0.38 0.05,0 0.13,0.07 0.29,0.28 0.13,0.17 0.14,0.21 0.05,0.29 -0.08,0.08 -0.07,0.13 0.03,0.21 0.04,0.02 0.14,0.10 0.22,0.18 0.07,0.07 0.16,0.12 0.18,0.12 0.02,0 0.14,0.04 0.26,0.09 0.19,0.08 0.24,0.09 0.69,0.11 l 0.47,0.02 0.18,0.10 c 0.20,0.11 0.23,0.16 0.28,0.38 0.04,0.20 0.11,0.24 0.39,0.17 0.14,-0.03 0.33,-0.04 0.63,-0.04 0.23,0.00 0.54,0.00 0.68,0.00 0.13,-8.68e-4 0.41,0.01 0.60,0.03 0.34,0.03 0.35,0.03 0.42,-0.03 0.08,-0.08 0.13,-0.08 0.72,-0.02 0.25,0.02 0.70,0.06 0.99,0.08 1.03,0.06 1.17,0.09 1.17,0.25 0,0.11 -0.10,0.14 -0.32,0.08 -0.10,-0.02 -0.35,-0.06 -0.56,-0.07 -0.20,-0.01 -0.41,-0.03 -0.47,-0.04 -0.08,-0.01 -0.11,-0.00 -0.18,0.07 -0.08,0.09 -0.09,0.09 -0.28,0.07 -0.10,-0.01 -0.24,-0.03 -0.29,-0.04 -0.11,-0.03 -0.20,0.00 -0.23,0.09 -0.02,0.08 -0.08,0.09 -0.25,0.04 -0.08,-0.02 -0.20,-0.04 -0.25,-0.04 -0.05,-8.68e-4 -0.21,-0.02 -0.35,-0.04 -0.14,-0.02 -0.33,-0.05 -0.42,-0.07 -0.09,-0.01 -0.20,-0.03 -0.25,-0.04 -0.07,-0.01 -0.11,-0.00 -0.18,0.06 -0.09,0.08 -0.09,0.08 -0.29,0.04 -0.10,-0.01 -0.36,-0.04 -0.55,-0.06 -0.48,-0.03 -1.09,-0.10 -1.14,-0.13 -0.02,-0.01 -0.10,0.02 -0.20,0.10 l -0.16,0.12 -0.34,-0.02 c -0.19,-0.01 -0.41,-0.02 -0.50,-0.01 -0.42,0.01 -0.91,0.05 -0.98,0.09 -0.04,0.01 -0.10,0.02 -0.14,0.01 -0.03,-0.00 -0.10,0.01 -0.16,0.04 -0.13,0.08 -0.18,0.07 -0.23,-0.00 z m 1.08,-0.33 c 0.05,-0.07 0.01,-0.09 -0.18,-0.11 -0.20,-0.01 -0.38,-0.08 -0.27,-0.10 0.15,-0.02 0.19,-0.04 0.19,-0.07 0,-0.04 -0.06,-0.07 -0.15,-0.07 -0.03,0 -0.10,-0.02 -0.16,-0.05 -0.15,-0.08 -0.50,-0.09 -0.55,-0.02 -0.07,0.11 0.14,0.21 0.55,0.22 0.01,8.69e-4 -0.00,0.02 -0.05,0.06 -0.16,0.12 -0.09,0.17 0.29,0.18 0.13,0.00 0.25,0.01 0.27,0.01 0.01,0.00 0.04,-0.01 0.06,-0.03 z m 1.17,-0.39 c 0.02,-0.05 -0.00,-0.10 -0.05,-0.10 -0.05,0 -0.08,0.05 -0.06,0.10 0.02,0.05 0.09,0.05 0.11,-0.00 z m -0.31,-0.04 c 0.09,-0.07 -0.14,-0.22 -0.30,-0.18 -0.08,0.02 -0.09,0.10 -0.02,0.17 0.08,0.07 0.23,0.08 0.32,0.01 z m -5.67,-0.04 c 0.05,-0.01 0.06,-0.08 0.01,-0.11 -0.04,-0.02 -0.48,-0.07 -0.52,-0.05 -0.06,0.02 -0.03,0.13 0.05,0.16 0.09,0.02 0.39,0.03 0.45,0.00 z m 5.07,-0.01 c 0.05,-0.05 0.04,-0.13 -0.04,-0.23 -0.09,-0.10 -0.20,-0.12 -0.25,-0.03 -0.08,0.15 0.16,0.38 0.29,0.26 z m -4.34,-0.10 c 0.03,-0.03 0.03,-0.07 -0.01,-0.19 -0.06,-0.19 -0.06,-0.26 0.02,-0.37 0.08,-0.10 0.09,-0.15 0.04,-0.26 -0.02,-0.05 -0.06,-0.07 -0.15,-0.08 -0.06,-0.00 -0.18,-0.02 -0.25,-0.03 -0.11,-0.01 -0.12,-0.01 -0.11,0.03 0.00,0.03 0.05,0.07 0.12,0.09 0.21,0.07 0.23,0.13 0.13,0.38 -0.06,0.15 -0.06,0.36 0.00,0.44 0.04,0.05 0.16,0.05 0.21,-0.00 z m 3.85,-0.07 c 0.03,-0.11 -0.07,-0.23 -0.29,-0.31 -0.36,-0.12 -0.38,0.02 -0.03,0.25 0.20,0.13 0.30,0.14 0.33,0.05 z M 21.59,44.92 c 0.06,-0.03 0.00,-0.12 -0.10,-0.15 -0.12,-0.03 -0.17,-0.08 -0.13,-0.14 0.04,-0.08 0.15,-0.06 0.38,0.05 0.17,0.09 0.21,0.10 0.25,0.07 0.06,-0.05 0.05,-0.15 -0.02,-0.25 -0.06,-0.08 -0.07,-0.08 -0.29,-0.08 -0.12,0.00 -0.32,-0.00 -0.44,-0.01 -0.34,-0.04 -0.39,0.05 -0.14,0.31 0.18,0.19 0.40,0.29 0.50,0.22 z m -3.22,-0.23 c 0.04,-0.02 0.12,-0.22 0.12,-0.29 0,-0.02 0.03,-0.09 0.07,-0.15 0.08,-0.12 0.09,-0.18 0.01,-0.25 -0.05,-0.04 -0.06,-0.04 -0.11,0.01 -0.03,0.03 -0.06,0.07 -0.06,0.09 0,0.01 -0.04,0.13 -0.10,0.24 -0.11,0.22 -0.12,0.28 -0.06,0.33 0.04,0.04 0.08,0.04 0.13,0.01 z m 1.04,-0.04 c -0.01,-0.04 -0.06,-0.03 -0.07,0.00 -0.00,0.01 0.01,0.02 0.03,0.02 0.02,0 0.04,-0.01 0.03,-0.03 z m 1.36,-0.08 c 0.01,-0.01 -0.00,-0.09 -0.04,-0.16 -0.06,-0.14 -0.15,-0.17 -0.17,-0.05 -0.01,0.13 0.16,0.31 0.21,0.22 z m -0.38,-0.45 c 0.03,-0.08 0.07,-0.17 0.08,-0.20 0.01,-0.05 0.16,-0.07 0.21,-0.02 0.01,0.01 0.18,0.07 0.38,0.13 0.26,0.07 0.38,0.10 0.47,0.08 0.13,-0.02 0.21,-0.09 0.19,-0.16 -0.01,-0.04 0.01,-0.06 0.14,-0.10 0.14,-0.04 0.34,-0.20 0.34,-0.28 0,-0.04 0.19,-0.14 0.34,-0.18 0.21,-0.04 0.24,-0.08 0.24,-0.32 -0.00,-0.19 0.05,-0.36 0.17,-0.53 0.04,-0.06 0.04,-0.06 -0.01,-0.12 -0.13,-0.13 -0.48,0.01 -0.76,0.31 -0.17,0.19 -0.23,0.28 -0.42,0.73 -0.08,0.20 -0.11,0.30 -0.10,0.36 0.02,0.09 0.01,0.09 -0.32,0.07 -0.19,-0.00 -0.34,-0.05 -0.34,-0.11 0,-0.01 0.02,-0.05 0.06,-0.09 0.09,-0.11 0.11,-0.19 0.15,-0.57 0.05,-0.70 0.03,-0.96 -0.07,-0.96 -0.06,0 -0.09,0.07 -0.15,0.34 -0.07,0.33 -0.16,0.60 -0.27,0.82 -0.04,0.09 -0.08,0.20 -0.08,0.24 0,0.04 -0.02,0.08 -0.08,0.10 -0.04,0.01 -0.15,0.10 -0.23,0.19 -0.16,0.17 -0.24,0.35 -0.18,0.45 0.03,0.06 0.03,0.06 0.12,0.01 0.06,-0.03 0.11,-0.09 0.15,-0.20 z m 0.85,-2.85 c 0.01,-0.03 0.02,-0.09 0.01,-0.13 -0.00,-0.03 -0.00,-0.13 0.01,-0.20 0.04,-0.17 -7.81e-4,-0.26 -0.11,-0.24 -0.05,0.01 -0.10,-0.00 -0.14,-0.04 -0.11,-0.10 -0.16,-0.04 -0.18,0.23 -0.01,0.26 0.01,0.36 0.12,0.36 0.03,8.67e-4 0.09,0.02 0.12,0.04 0.07,0.05 0.12,0.05 0.16,-0.01 z M 23.48,41.02 c 0.02,-0.02 0.04,-0.06 0.04,-0.08 0,-0.01 0.02,-0.09 0.06,-0.16 0.10,-0.20 0.07,-0.24 -0.22,-0.39 -0.23,-0.11 -0.47,-0.19 -0.82,-0.27 -0.06,-0.01 -0.25,-0.03 -0.43,-0.05 -0.43,-0.03 -0.47,-0.01 -0.54,0.24 -0.07,0.29 -0.07,0.30 0.42,0.31 0.46,0.01 0.56,0.03 1.05,0.28 0.17,0.09 0.33,0.16 0.35,0.16 0.01,0 0.05,-0.02 0.08,-0.04 z m 0.42,-0.88 c 0.07,-0.08 0.13,-0.23 0.12,-0.32 -0.00,-0.03 -0.04,-0.08 -0.08,-0.10 -0.67,-0.33 -0.81,-0.38 -1.38,-0.50 -0.28,-0.05 -0.60,-0.05 -0.69,0.00 -0.03,0.02 -0.08,0.11 -0.11,0.21 -0.05,0.16 -0.05,0.16 0.01,0.21 0.05,0.04 0.10,0.04 0.25,0.03 0.34,-0.02 1.11,0.18 1.59,0.44 0.19,0.10 0.22,0.10 0.29,0.02 z m -2.38,-1.06 c 0.01,-0.02 0.02,-0.40 0.02,-0.85 0.00,-0.65 0.01,-0.82 0.05,-0.91 0.02,-0.06 0.04,-0.15 0.04,-0.20 0,-0.08 -0.06,-0.20 -0.12,-0.20 -0.04,0 -0.08,0.11 -0.12,0.30 -0.02,0.10 -0.05,0.18 -0.07,0.18 -0.01,0.00 -0.04,0.00 -0.06,0.00 -0.03,0.00 -0.06,0.16 -0.04,0.27 0.02,0.10 0.07,0.10 0.10,-0.00 0.00,-0.04 0.02,-0.05 0.03,-0.03 0.01,0.01 0.00,0.05 -0.02,0.08 -0.02,0.03 -0.03,0.07 -0.01,0.12 0.01,0.04 0.03,0.29 0.04,0.55 0.01,0.50 0.00,0.57 -0.10,0.47 -0.06,-0.06 -0.08,-0.05 -0.13,0.02 -0.03,0.05 -0.03,0.08 -0.01,0.14 0.02,0.06 0.04,0.07 0.20,0.07 0.13,-0.00 0.18,-0.01 0.19,-0.04 z m -0.53,-0.15 c 0.01,-0.02 0.02,-0.09 0.02,-0.17 0.00,-0.07 0.01,-0.16 0.02,-0.20 0.01,-0.05 0.00,-0.07 -0.08,-0.11 l -0.10,-0.04 -0.01,-0.30 c -0.02,-0.40 -0.02,-0.33 0.00,-0.81 0.02,-0.40 0.06,-0.62 0.10,-0.69 0.01,-0.01 -0.00,-0.07 -0.04,-0.12 -0.06,-0.08 -0.06,-0.11 -0.06,-0.47 0.00,-0.40 -0.01,-0.50 -0.10,-0.50 -0.09,0 -0.11,0.06 -0.13,0.39 -0.02,0.30 -0.01,0.32 0.06,0.49 0.06,0.14 0.07,0.20 0.06,0.29 -0.05,0.28 -0.06,0.76 -0.04,1.40 l 0.02,0.70 0.11,0.09 c 0.12,0.10 0.14,0.11 0.17,0.05 z m 0.27,-0.45 c -0.01,-0.09 -0.07,-0.12 -0.09,-0.04 -0.02,0.07 0.00,0.12 0.06,0.12 0.03,0 0.04,-0.02 0.03,-0.07 z m 0.09,-1.48 c 0.01,-0.04 0.03,-0.10 0.03,-0.13 0,-0.07 0.05,-0.10 0.07,-0.04 0.02,0.07 0.06,0.05 0.11,-0.04 0.05,-0.10 0.05,-0.25 0.00,-0.29 -0.04,-0.03 -0.29,-0.03 -0.34,-8.68e-4 -0.02,0.01 -0.03,0.09 -0.01,0.27 0.00,0.13 0.02,0.26 0.02,0.28 0.01,0.05 0.06,0.04 0.09,-0.03 z m 0.49,-0.22 c 0.05,-0.08 0.05,-0.12 -3.47e-4,-0.18 -0.07,-0.07 -0.16,-0.00 -0.16,0.11 0,0.15 0.07,0.19 0.16,0.07 z m -0.20,-0.75 c 0.01,-0.02 0.00,-0.12 -0.00,-0.22 -0.02,-0.12 -0.01,-0.21 0.00,-0.31 0.02,-0.07 0.03,-0.18 0.03,-0.24 0.00,-0.12 0.06,-0.09 0.06,0.03 0.00,0.05 0.01,0.12 0.02,0.15 0.02,0.05 0.02,0.05 0.04,-0.01 0.01,-0.03 0.02,-0.17 0.03,-0.30 0.02,-0.26 0.02,-0.25 -0.21,-0.26 -0.14,-0.00 -0.14,-0.00 -0.14,0.08 0.00,0.04 -0.00,0.19 -0.02,0.32 -0.02,0.17 -0.03,0.21 -0.05,0.17 -0.03,-0.08 -0.03,-0.40 -0.00,-0.67 0.01,-0.17 0.01,-0.21 -0.02,-0.24 -0.06,-0.05 -0.12,-0.02 -0.17,0.07 -0.02,0.06 -0.02,0.10 0.02,0.24 0.05,0.16 0.04,0.30 -0.03,0.33 -0.04,0.01 -0.15,-0.16 -0.15,-0.26 l -0.00,-0.07 -0.07,0.08 c -0.03,0.04 -0.08,0.07 -0.09,0.06 -0.01,-0.01 -0.02,-0.11 -0.03,-0.21 -0.01,-0.21 0.01,-0.28 0.09,-0.22 0.03,0.02 0.05,0.02 0.07,0.00 0.04,-0.04 -0.00,-0.12 -0.07,-0.12 -0.05,0 -0.07,-0.02 -0.08,-0.08 -0.02,-0.10 -0.08,-0.22 -0.11,-0.23 -0.09,-0.02 -0.10,0.04 -0.11,0.46 -0.00,0.47 0.01,0.52 0.16,0.50 0.07,-0.01 0.09,0 0.11,0.07 0.03,0.09 0.13,0.13 0.22,0.08 0.10,-0.05 0.14,0.03 0.13,0.29 -0.00,0.12 -0.01,0.25 -0.01,0.30 -0.00,0.06 0.00,0.07 0.08,0.08 0.06,0.00 0.10,0.03 0.14,0.09 0.05,0.09 0.16,0.11 0.19,0.03 z m -0.61,-0.17 c 0,-0.02 -0.01,-0.03 -0.03,-0.02 -0.01,0.01 -0.02,0.03 -0.01,0.04 0.02,0.04 0.04,0.03 0.04,-0.01 z m 0.80,-0.20 c -0.01,-0.06 -0.02,-0.11 -0.03,-0.12 -0.02,-0.02 -0.02,0.28 -0.00,0.32 0.03,0.05 0.06,-0.08 0.04,-0.20 z m 0.35,-0.98 c 0.01,-0.25 -0.02,-0.49 -0.07,-0.51 -0.02,-0.00 -0.08,0.01 -0.12,0.04 l -0.08,0.06 -0.01,-0.07 c -0.00,-0.03 -0.00,-0.13 0.00,-0.21 0.01,-0.13 0.01,-0.13 -0.05,-0.12 -0.06,0.00 -0.07,0.02 -0.07,0.12 -0.00,0.09 -0.04,0.20 -0.04,0.12 -0.00,-0.17 -0.03,-0.45 -0.04,-0.51 -0.01,-0.06 -0.02,-0.06 -0.11,-0.05 -0.10,0.01 -0.10,0.01 -0.10,-0.09 0,-0.06 -0.01,-0.13 -0.04,-0.17 -0.03,-0.04 -0.05,-0.05 -0.12,-0.02 -0.08,0.03 -0.09,0.03 -0.11,-0.09 -0.00,-0.03 -0.03,-0.05 -0.06,-0.05 -0.05,0 -0.05,0.02 -0.05,0.16 0,0.15 0.00,0.16 0.07,0.15 0.06,-0.00 0.08,0.00 0.11,0.08 0.01,0.05 0.02,0.12 0.01,0.16 -0.01,0.05 -0.03,0.07 -0.12,0.06 -0.13,-0.00 -0.27,-0.08 -0.32,-0.17 -0.04,-0.09 -0.04,-0.34 -0.00,-0.47 0.02,-0.07 0.02,-0.15 -0.03,-0.39 -0.06,-0.29 -0.12,-0.37 -0.17,-0.28 -0.01,0.02 -0.01,0.23 -0.00,0.50 0.01,0.25 0.01,0.54 0.01,0.63 -0.00,0.22 0.05,0.33 0.17,0.30 0.26,-0.05 0.26,-0.05 0.28,0.00 0.01,0.03 0.04,0.06 0.07,0.07 0.03,0.00 0.07,0.05 0.10,0.09 0.05,0.07 0.13,0.09 0.18,0.03 0.02,-0.02 0.03,-0.02 0.05,0.02 0.06,0.18 0.07,0.19 0.17,0.18 0.09,-0.01 0.10,-0.00 0.10,0.05 0,0.11 0.03,0.16 0.10,0.16 0.07,0 0.10,0.04 0.10,0.17 0,0.11 0.08,0.21 0.15,0.20 0.05,-0.00 0.06,-0.03 0.07,-0.18 z m -0.75,-0.86 c -0.02,-0.08 0.00,-0.14 0.04,-0.12 0.03,0.02 0.03,0.15 -0.00,0.17 -0.01,0.00 -0.03,-0.01 -0.04,-0.05 z m -0.93,0.54 c 0.01,-0.14 0.00,-0.29 -0.00,-0.35 -0.03,-0.12 -0.11,-0.16 -0.18,-0.11 -0.04,0.03 -0.05,0.07 -0.03,0.28 0.01,0.27 0.08,0.45 0.16,0.43 0.04,-0.00 0.05,-0.05 0.06,-0.26 z m -0.35,-0.59 c -0.00,-0.10 -0.01,-0.38 -0.03,-0.62 -0.01,-0.23 -0.02,-0.62 -0.01,-0.84 0.01,-0.45 -0.00,-0.55 -0.12,-0.57 -0.10,-0.01 -0.13,0.07 -0.09,0.38 0.02,0.22 0.04,0.83 0.05,1.58 0.00,0.12 0.10,0.29 0.17,0.27 0.04,-0.00 0.05,-0.04 0.04,-0.20 z m 0.26,-0.10 c 0.03,-0.03 0.03,-0.11 0.02,-0.39 -0.00,-0.19 -0.01,-0.51 -0.00,-0.72 0.00,-0.28 -0.00,-0.38 -0.03,-0.43 -0.03,-0.04 -0.05,-0.05 -0.09,-0.02 -0.04,0.02 -0.05,0.07 -0.04,0.23 0.00,0.23 0.03,1.36 0.03,1.37 0.00,0.02 0.09,8.68e-4 0.12,-0.03 z M 19.81,33.21 c 0.03,-0.10 -0.06,-0.38 -0.11,-0.32 -0.03,0.03 -0.05,0.22 -0.03,0.30 0.02,0.08 0.12,0.10 0.14,0.02 z m -0.24,-0.48 c 0.02,-0.05 0.02,-0.11 -0.01,-0.27 -0.05,-0.26 -0.12,-0.89 -0.09,-0.93 0.03,-0.05 -0.04,-0.35 -0.09,-0.37 -0.09,-0.03 -0.13,0.04 -0.11,0.20 0.00,0.08 0.02,0.38 0.04,0.67 0.02,0.49 0.05,0.64 0.12,0.73 0.04,0.05 0.10,0.04 0.14,-0.02 z m 0.17,-0.06 c -0.01,-0.08 -0.08,-0.10 -0.08,-0.03 0,0.06 0.02,0.09 0.06,0.09 0.01,0 0.02,-0.02 0.01,-0.06 z m -0.01,-0.88 c 0.01,-0.26 0.00,-0.35 -0.02,-0.38 -0.03,-0.03 -0.05,-0.02 -0.10,0.01 -0.06,0.05 -0.06,0.06 -0.02,0.18 0.02,0.07 0.05,0.22 0.06,0.33 0.01,0.11 0.03,0.20 0.04,0.20 0.01,0 0.03,-0.15 0.04,-0.35 z m -0.56,0.24 c 0.05,-0.05 0.05,-0.02 0.00,-0.25 -0.02,-0.10 -0.05,-0.30 -0.06,-0.45 -0.02,-0.31 -0.07,-0.46 -0.16,-0.46 -0.08,0 -0.11,0.07 -0.08,0.21 0.01,0.06 0.04,0.29 0.07,0.49 0.05,0.45 0.11,0.57 0.23,0.46 z m -0.40,-0.96 c 0.00,-0.09 -0.00,-0.20 -0.08,-0.54 -0.03,-0.15 -0.01,-0.19 0.09,-0.21 0.10,-0.02 0.11,-0.09 0.02,-0.17 -0.04,-0.04 -0.10,-0.05 -0.25,-0.05 -0.20,0.00 -0.18,0.02 -0.23,-0.21 -0.00,-0.03 -0.09,-0.14 -0.19,-0.24 -0.20,-0.20 -0.22,-0.29 -0.08,-0.34 0.04,-0.01 0.08,-0.05 0.08,-0.07 0,-0.06 -0.25,-0.31 -0.31,-0.30 -0.04,0.00 -0.05,0.03 -0.05,0.15 0.00,0.30 0.04,0.44 0.23,0.77 0.20,0.37 0.24,0.41 0.31,0.39 0.07,-0.02 0.11,0.05 0.16,0.38 0.02,0.15 0.05,0.31 0.07,0.36 0.08,0.23 0.21,0.29 0.23,0.10 z m -0.41,-1.60 c 0,-0.01 -0.02,-0.05 -0.06,-0.08 -0.11,-0.10 -0.15,-0.06 -0.06,0.05 0.04,0.06 0.13,0.09 0.13,0.03 z m 2.93,16.65 c -0.13,-0.09 0.01,-0.22 0.28,-0.25 0.15,-0.01 0.26,0.04 0.26,0.14 0,0.05 -0.03,0.06 -0.27,0.10 -0.08,0.01 -0.16,0.02 -0.17,0.03 -0.01,0.00 -0.05,-0.00 -0.08,-0.02 z m -1.71,-3.13 c 0,-0.05 0.02,-0.11 0.04,-0.13 0.03,-0.03 0.04,-0.02 0.04,0.05 0,0.04 -0.00,0.11 -0.01,0.13 -0.03,0.08 -0.07,0.05 -0.07,-0.05 z m 1.47,-3.09 c -0.01,-0.01 -0.00,-0.04 0.01,-0.06 0.02,-0.02 0.03,-0.01 0.03,0.03 0,0.07 -0.01,0.08 -0.04,0.03 z m 2.36,-2.69 c -0.03,-0.09 -0.01,-0.29 0.03,-0.49 0.03,-0.10 0.12,-0.39 0.19,-0.64 0.14,-0.46 0.26,-0.74 0.52,-1.17 0.08,-0.13 0.19,-0.32 0.25,-0.42 0.05,-0.09 0.11,-0.23 0.12,-0.32 0.01,-0.08 0.04,-0.17 0.06,-0.19 0.07,-0.09 0.23,8.69e-4 0.23,0.14 0,0.12 -0.05,0.24 -0.40,0.91 -0.26,0.51 -0.37,0.74 -0.51,1.16 -0.09,0.28 -0.19,0.61 -0.21,0.72 -0.04,0.22 -0.09,0.30 -0.21,0.33 -0.05,0.01 -0.08,0.00 -0.09,-0.03 z m 2.24,-3.15 c -0.06,-0.10 -0.13,-0.12 -0.23,-0.07 -0.04,0.02 -0.07,0.01 -0.15,-0.06 -0.13,-0.13 -0.38,-0.20 -0.52,-0.12 -0.09,0.04 -0.09,0.04 -0.20,-0.04 l -0.10,-0.09 -0.24,0.05 c -0.13,0.02 -0.30,0.06 -0.39,0.08 -0.19,0.04 -0.30,0.01 -0.32,-0.08 -0.02,-0.11 0.05,-0.19 0.23,-0.19 0.13,0 0.14,-0.00 0.21,-0.11 0.07,-0.12 0.11,-0.13 0.24,-0.08 0.09,0.03 0.16,-0.00 0.16,-0.10 0,-0.08 0.08,-0.19 0.14,-0.19 0.02,0 0.09,0.04 0.13,0.09 0.13,0.14 0.34,0.26 0.46,0.26 0.05,0 0.14,0.02 0.19,0.06 0.04,0.03 0.17,0.10 0.28,0.16 0.24,0.12 0.38,0.27 0.38,0.41 0,0.07 -0.01,0.11 -0.05,0.13 -0.09,0.05 -0.15,0.03 -0.21,-0.07 z M 24.19,32.80 c -0.01,-0.02 -0.04,-0.10 -0.06,-0.18 -0.02,-0.15 -0.04,-0.17 -0.26,-0.32 -0.16,-0.11 -0.24,-0.12 -0.37,-0.07 -0.06,0.02 -0.11,0.01 -0.38,-0.13 -0.17,-0.09 -0.34,-0.16 -0.39,-0.16 -0.05,0 -0.12,-0.03 -0.18,-0.08 -0.36,-0.30 -0.82,-0.62 -0.96,-0.66 -0.05,-0.01 -0.14,-0.06 -0.19,-0.11 -0.13,-0.11 -0.76,-0.58 -0.85,-0.62 -0.04,-0.02 -0.18,-0.14 -0.31,-0.26 -0.37,-0.34 -0.74,-0.66 -0.90,-0.75 -0.26,-0.15 -0.56,-0.45 -1.03,-1.01 -0.30,-0.35 -0.40,-0.59 -0.26,-0.59 0.02,0 0.13,0.11 0.25,0.26 0.29,0.37 0.73,0.84 0.95,1.02 0.10,0.08 0.19,0.17 0.20,0.20 0.03,0.11 0.09,0.12 0.20,0.05 0.12,-0.07 0.18,-0.05 0.31,0.12 0.04,0.06 0.25,0.28 0.46,0.49 0.36,0.35 0.37,0.36 0.50,0.36 0.11,0 0.15,0.01 0.33,0.18 0.31,0.27 0.44,0.37 0.58,0.43 0.07,0.03 0.24,0.14 0.39,0.25 0.14,0.10 0.27,0.19 0.30,0.19 0.02,0 0.21,0.08 0.42,0.19 0.20,0.10 0.40,0.19 0.43,0.19 0.10,0 0.05,-0.12 -0.10,-0.32 -0.09,-0.10 -0.20,-0.25 -0.25,-0.32 -0.05,-0.07 -0.14,-0.19 -0.20,-0.26 -0.05,-0.06 -0.18,-0.26 -0.28,-0.43 -0.09,-0.17 -0.23,-0.41 -0.30,-0.54 -0.14,-0.26 -0.21,-0.40 -0.51,-1.14 -0.11,-0.27 -0.21,-0.51 -0.23,-0.55 -0.04,-0.06 -0.16,-0.39 -0.25,-0.69 -0.03,-0.12 -0.12,-0.29 -0.18,-0.38 -0.09,-0.14 -0.11,-0.19 -0.13,-0.40 -0.02,-0.30 0.00,-0.39 0.15,-0.39 h 0.10 l 0.00,0.23 c 0.00,0.22 0.00,0.24 0.13,0.45 0.07,0.11 0.17,0.36 0.23,0.53 0.06,0.17 0.18,0.50 0.28,0.72 0.09,0.22 0.21,0.51 0.27,0.65 0.24,0.60 0.68,1.40 1.06,1.91 0.13,0.18 0.32,0.44 0.40,0.57 0.08,0.13 0.18,0.27 0.22,0.30 0.15,0.17 0.62,0.48 1.05,0.70 0.24,0.12 0.30,0.20 0.25,0.33 -0.05,0.11 -0.18,0.10 -0.32,-0.02 -0.06,-0.05 -0.13,-0.10 -0.16,-0.10 -0.02,0 -0.07,0.04 -0.10,0.10 -0.06,0.11 -0.17,0.14 -0.23,0.06 z m -4.62,-4.23 c -0.19,-0.13 -0.89,-0.59 -1.13,-0.74 -0.05,-0.03 -0.08,-0.07 -0.08,-0.12 0,-0.11 -0.04,-0.17 -0.21,-0.29 -0.08,-0.05 -0.17,-0.12 -0.19,-0.15 -0.08,-0.09 0.01,-0.22 0.14,-0.18 0.03,0.01 0.21,0.14 0.38,0.29 0.17,0.15 0.36,0.30 0.42,0.34 0.05,0.03 0.14,0.11 0.20,0.18 0.05,0.06 0.25,0.22 0.44,0.35 0.36,0.24 0.45,0.34 0.38,0.42 -0.06,0.07 -0.12,0.05 -0.36,-0.11 z m 4.40,-1.21 c -0.02,-0.03 -0.06,-0.12 -0.09,-0.20 -0.02,-0.07 -0.11,-0.24 -0.19,-0.37 -0.15,-0.25 -0.17,-0.34 -0.09,-0.40 0.07,-0.06 0.17,0.01 0.35,0.28 0.09,0.13 0.17,0.25 0.19,0.25 0.01,0 0.03,-0.01 0.05,-0.03 0.02,-0.02 0.04,-0.02 0.08,0.01 0.04,0.04 0.04,0.06 0.01,0.16 -0.05,0.16 -0.16,0.34 -0.21,0.36 -0.02,0.00 -0.06,-0.02 -0.09,-0.05 z m 0.13,-0.77 c -0.02,-0.02 -0.08,-0.13 -0.14,-0.25 -0.05,-0.11 -0.13,-0.23 -0.16,-0.27 -0.03,-0.04 -0.05,-0.15 -0.07,-0.38 -0.01,-0.27 -0.03,-0.33 -0.09,-0.40 -0.09,-0.11 -0.08,-0.18 0.05,-0.31 l 0.12,-0.11 -0.00,-0.41 c -0.00,-0.22 -0.01,-0.42 -0.01,-0.43 -0.02,-0.04 -0.15,-0.02 -0.20,0.03 -0.05,0.05 -0.05,0.12 0.00,0.49 0.01,0.10 0.00,0.13 -0.04,0.18 -0.03,0.03 -0.07,0.06 -0.09,0.05 -0.01,-0.00 -0.11,-0.08 -0.21,-0.18 -0.10,-0.09 -0.31,-0.25 -0.47,-0.34 -0.16,-0.09 -0.28,-0.19 -0.29,-0.22 -0.00,-0.02 0.03,-0.10 0.08,-0.17 0.08,-0.10 0.10,-0.15 0.11,-0.30 0.02,-0.32 -0.02,-0.38 -0.30,-0.42 -0.09,-0.01 -0.21,-0.06 -0.31,-0.12 -0.19,-0.12 -0.25,-0.20 -0.19,-0.27 0.05,-0.06 0.13,-0.05 0.22,0.04 0.08,0.08 0.10,0.08 0.44,0.10 0.41,0.02 0.45,0.04 0.39,0.20 -0.03,0.09 -0.03,0.11 0.03,0.18 0.03,0.04 0.14,0.11 0.23,0.17 0.31,0.17 0.73,0.50 0.84,0.63 0.22,0.30 0.19,0.28 0.43,0.25 0.18,-0.02 0.23,-0.04 0.32,-0.12 0.18,-0.18 0.43,-0.80 0.37,-0.95 -0.01,-0.02 -0.04,-0.05 -0.07,-0.05 -0.06,0 -0.28,0.22 -0.31,0.32 -0.03,0.11 -0.19,0.10 -0.19,-0.01 0,-0.05 -0.09,-0.00 -0.25,0.14 -0.13,0.12 -0.19,0.14 -0.25,0.06 -0.05,-0.06 -0.01,-0.11 0.21,-0.26 0.10,-0.07 0.23,-0.16 0.29,-0.21 0.21,-0.17 0.51,-0.36 0.61,-0.38 0.15,-0.02 0.19,0.01 0.19,0.24 0,0.10 -0.01,0.28 -0.03,0.40 -0.02,0.17 -0.02,0.21 0.01,0.25 0.04,0.04 0.05,0.03 0.14,-0.07 0.08,-0.10 0.09,-0.13 0.07,-0.24 -0.01,-0.07 -0.00,-0.16 0.02,-0.24 0.02,-0.06 0.04,-0.24 0.05,-0.39 l 0.01,-0.26 -0.09,-0.00 c -0.11,-0.01 -0.12,-0.04 -0.00,-0.14 0.04,-0.04 0.11,-0.12 0.15,-0.18 0.03,-0.06 0.11,-0.16 0.17,-0.24 0.08,-0.10 0.10,-0.15 0.10,-0.24 -0.00,-0.12 0.01,-0.15 0.17,-0.20 0.06,-0.02 0.15,-0.08 0.22,-0.17 0.06,-0.07 0.17,-0.17 0.24,-0.21 0.16,-0.10 0.38,-0.30 0.38,-0.35 0,-0.06 -0.11,-0.15 -0.21,-0.15 -0.16,0 -0.28,0.05 -0.42,0.17 -0.07,0.06 -0.22,0.16 -0.33,0.22 -0.20,0.10 -0.40,0.23 -0.82,0.56 -0.26,0.20 -0.32,0.21 -0.57,0.08 -0.16,-0.08 -0.20,-0.09 -0.60,-0.10 -0.31,-0.01 -0.46,-0.03 -0.53,-0.06 -0.13,-0.06 -0.94,-0.08 -1.13,-0.02 -0.09,0.02 -0.14,0.02 -0.24,-0.01 -0.07,-0.02 -0.19,-0.05 -0.27,-0.06 -0.16,-0.01 -0.27,-0.09 -0.24,-0.17 0.03,-0.08 0.18,-0.10 0.52,-0.06 0.23,0.02 0.51,-0.02 0.71,-0.12 0.11,-0.05 0.22,-0.05 0.24,0.01 0.00,0.03 0.04,0.07 0.07,0.10 0.05,0.04 0.07,0.04 0.27,0.00 0.20,-0.04 0.23,-0.04 0.44,0.01 0.24,0.06 0.62,0.07 0.72,0.02 0.03,-0.01 0.15,-0.09 0.25,-0.15 0.18,-0.12 0.20,-0.12 0.49,-0.14 0.16,-0.01 0.35,-0.03 0.43,-0.06 0.07,-0.02 0.19,-0.05 0.26,-0.07 0.13,-0.03 0.24,-0.12 0.24,-0.19 0,-0.07 -0.14,-0.08 -0.39,-0.03 -0.26,0.05 -0.51,0.08 -0.76,0.09 -0.09,0.00 -0.24,0.01 -0.34,0.02 -0.20,0.02 -0.30,-0.01 -0.30,-0.10 0,-0.09 0.16,-0.15 0.32,-0.13 0.15,0.01 0.29,0 0.89,-0.12 0.34,-0.07 0.46,-0.08 0.61,-0.06 0.17,0.02 0.48,0.11 0.64,0.19 0.10,0.05 0.22,0.19 0.26,0.32 0.06,0.18 0.17,0.19 0.32,0.03 0.03,-0.04 0.11,-0.08 0.16,-0.09 0.11,-0.02 0.16,-0.06 0.16,-0.12 0,-0.02 -0.06,-0.14 -0.13,-0.27 -0.10,-0.17 -0.13,-0.26 -0.12,-0.33 0.00,-0.08 0.01,-0.09 0.09,-0.09 0.08,0 0.10,0.02 0.25,0.31 0.17,0.33 0.37,0.62 0.42,0.62 0.01,0.00 0.12,0.00 0.24,0.01 0.11,0.00 0.29,0.01 0.39,0.03 0.18,0.02 0.18,0.02 0.36,-0.10 0.09,-0.07 0.19,-0.16 0.20,-0.20 0.01,-0.04 0.04,-0.11 0.05,-0.16 0.01,-0.04 0.06,-0.15 0.10,-0.24 0.07,-0.17 0.05,-0.24 -0.05,-0.26 -0.03,-0.00 -0.08,-0.03 -0.12,-0.06 -0.03,-0.03 -0.09,-0.05 -0.12,-0.05 -0.02,0 -0.08,-0.03 -0.13,-0.08 -0.04,-0.05 -0.11,-0.08 -0.15,-0.08 -0.07,0 -0.13,-0.05 -0.31,-0.28 -0.11,-0.14 -0.14,-0.26 -0.08,-0.29 0.01,-0.01 0.09,-0.00 0.18,0.00 0.11,0.01 0.17,0.04 0.25,0.12 0.05,0.05 0.13,0.10 0.16,0.10 0.10,8.68e-4 0.13,0.03 0.26,0.29 0.06,0.13 0.14,0.25 0.16,0.26 0.01,0.00 0.05,-0.02 0.07,-0.07 0.04,-0.11 0.01,-1.00 -0.04,-1.26 -0.03,-0.15 -0.03,-0.25 -0.01,-0.46 0.01,-0.14 0.02,-0.34 0.02,-0.44 -0.00,-0.14 0.00,-0.19 0.05,-0.23 0.14,-0.13 0.24,0.06 0.13,0.26 -0.04,0.08 -0.04,0.11 -0.01,0.17 0.01,0.04 0.03,0.15 0.03,0.25 0,0.09 0.02,0.32 0.05,0.51 0.08,0.50 0.10,1.01 0.05,1.23 -0.02,0.09 -0.05,0.24 -0.06,0.31 -0.02,0.19 -0.17,0.61 -0.26,0.77 -0.10,0.17 -0.23,0.30 -0.38,0.38 -0.09,0.04 -0.17,0.05 -0.48,0.05 -0.21,0 -0.40,-0.01 -0.44,-0.03 -0.04,-0.01 -0.11,-0.09 -0.15,-0.16 -0.06,-0.11 -0.08,-0.12 -0.17,-0.12 -0.14,0 -0.27,0.06 -0.45,0.21 -0.20,0.17 -0.26,0.17 -0.44,0.00 -0.07,-0.07 -0.15,-0.13 -0.18,-0.13 -0.02,0 -0.11,0.06 -0.18,0.15 -0.07,0.08 -0.24,0.26 -0.38,0.40 -0.43,0.44 -0.59,0.75 -0.60,1.13 -8.68e-4,0.07 -0.02,0.23 -0.04,0.34 -0.02,0.11 -0.04,0.26 -0.04,0.33 0,0.10 -0.02,0.15 -0.15,0.30 -0.08,0.09 -0.16,0.18 -0.17,0.18 -0.01,0 -0.08,0.07 -0.15,0.15 -0.06,0.08 -0.22,0.26 -0.34,0.38 l -0.21,0.23 H 24.61 c -0.15,0 -0.24,-0.01 -0.34,-0.06 -0.12,-0.05 -0.13,-0.06 -0.18,-0.01 -0.03,0.03 -0.04,0.06 -0.01,0.16 0.05,0.20 0.04,0.27 -0.08,0.40 -0.06,0.06 -0.12,0.15 -0.13,0.18 -0.02,0.08 0.04,0.50 0.10,0.62 0.06,0.13 0.20,0.63 0.19,0.70 -0.00,0.05 -0.01,0.05 -0.04,0.01 z m -2.03,-0.21 c -0.06,-0.05 -0.13,-0.07 -0.22,-0.07 -0.07,0 -0.20,-0.03 -0.32,-0.09 -0.16,-0.07 -0.23,-0.09 -0.36,-0.08 -0.33,0.01 -0.37,0.01 -0.59,8.68e-4 -0.19,-0.00 -0.23,-0.00 -0.33,0.05 -0.05,0.03 -0.15,0.06 -0.21,0.06 -0.05,0 -0.16,0.02 -0.24,0.04 -0.10,0.03 -0.15,0.04 -0.21,0.01 -0.16,-0.07 -0.03,-0.27 0.30,-0.44 0.20,-0.10 0.35,-0.11 0.49,-0.05 0.14,0.05 0.28,0.06 0.36,8.68e-4 0.05,-0.03 0.08,-0.04 0.17,-0.01 0.07,0.02 0.20,0.03 0.37,0.01 l 0.26,-0.01 0.31,0.16 c 0.17,0.08 0.34,0.18 0.38,0.22 0.08,0.07 0.08,0.19 0.00,0.23 -0.07,0.03 -0.06,0.04 -0.18,-0.04 z m 0.92,-0.35 c -0.15,-0.15 -0.44,-0.31 -0.55,-0.31 -0.05,0 -0.17,-0.03 -0.27,-0.08 -0.10,-0.04 -0.26,-0.09 -0.36,-0.10 -0.21,-0.02 -0.34,-0.11 -0.31,-0.21 0.02,-0.08 0.11,-0.10 0.32,-0.06 0.10,0.01 0.23,0.03 0.29,0.04 0.06,0.00 0.32,0.12 0.57,0.25 0.25,0.13 0.47,0.23 0.49,0.23 0.05,0 0.02,-0.06 -0.12,-0.23 -0.18,-0.22 -0.58,-0.52 -0.74,-0.56 -0.06,-0.01 -0.12,-0.05 -0.13,-0.07 -0.03,-0.08 0.01,-0.18 0.11,-0.21 0.10,-0.03 0.18,-0.00 0.29,0.11 0.05,0.06 0.10,0.08 0.20,0.09 0.12,0.00 0.14,0.01 0.30,0.23 0.24,0.31 0.47,0.69 0.47,0.78 0,0.08 -0.02,0.10 -0.17,0.16 -0.21,0.08 -0.27,0.07 -0.38,-0.03 z m -2.33,-0.38 c -0.03,-0.04 -0.04,-0.10 -0.02,-0.20 0.01,-0.11 0.00,-0.16 -0.06,-0.29 -0.11,-0.23 -0.11,-0.37 0.02,-0.55 0.06,-0.08 0.13,-0.19 0.15,-0.25 0.04,-0.10 0.10,-0.49 0.11,-0.74 0.00,-0.08 0.02,-0.16 0.05,-0.19 0.02,-0.03 0.04,-0.06 0.04,-0.08 0,-0.06 -0.19,-0.21 -0.27,-0.21 -0.04,0 -0.11,-0.01 -0.15,-0.02 -0.06,-0.02 -0.07,-0.04 -0.06,-0.12 0.00,-0.08 0.02,-0.09 0.10,-0.10 0.07,-0.00 0.12,0.01 0.20,0.08 0.05,0.05 0.13,0.09 0.17,0.09 0.03,0 0.11,0.03 0.17,0.06 0.05,0.03 0.19,0.11 0.30,0.16 0.45,0.23 0.62,0.50 0.29,0.50 -0.07,0 -0.27,-0.13 -0.51,-0.33 -0.12,-0.10 -0.17,-0.07 -0.12,0.06 0.04,0.12 0.04,0.24 -0.01,0.59 -0.05,0.33 -0.07,0.40 -0.21,0.63 l -0.10,0.16 0.07,0.17 c 0.10,0.23 0.12,0.41 0.05,0.54 -0.06,0.12 -0.16,0.14 -0.22,0.05 z m 2.59,-2.50 c -0.04,-0.03 -0.07,-0.08 -0.07,-0.11 0,-0.05 0.42,-0.47 0.63,-0.63 0.06,-0.04 0.15,-0.08 0.19,-0.08 0.04,0 0.21,-0.06 0.38,-0.15 0.30,-0.15 0.58,-0.23 0.77,-0.23 0.06,0 0.15,-0.03 0.23,-0.09 0.25,-0.17 0.45,-0.25 0.45,-0.18 0,0.04 -0.25,0.24 -0.46,0.35 -0.11,0.06 -0.26,0.12 -0.33,0.13 -0.07,0.01 -0.25,0.06 -0.40,0.12 -0.23,0.08 -0.26,0.10 -0.30,0.19 -0.04,0.10 -0.09,0.13 -0.29,0.18 -0.13,0.03 -0.31,0.20 -0.47,0.44 -0.09,0.14 -0.19,0.16 -0.32,0.06 z M 19.74,22.72 c -0.10,-0.05 -0.17,-0.07 -0.35,-0.07 -0.18,0 -0.22,-0.01 -0.28,-0.06 -0.12,-0.12 -0.00,-0.52 0.20,-0.66 0.06,-0.04 0.12,-0.07 0.13,-0.07 0.01,0 0.09,0.03 0.18,0.07 0.08,0.04 0.25,0.08 0.37,0.10 0.11,0.01 0.24,0.03 0.28,0.04 0.10,0.02 0.08,0.13 -0.05,0.25 -0.11,0.09 -0.12,0.12 -0.14,0.28 l -0.01,0.17 -0.10,0.00 c -0.06,0.00 -0.16,-0.02 -0.23,-0.06 z m 1.64,-0.08 c -0.10,-0.04 -0.15,-0.14 -0.09,-0.21 0.06,-0.08 0.24,-0.03 0.36,0.10 0.11,0.12 -0.06,0.19 -0.26,0.10 z M 20.65,22.34 c -0.04,-0.03 -0.07,-0.08 -0.07,-0.10 0,-0.04 0.08,-0.12 0.13,-0.12 0.13,0 0.28,0.15 0.24,0.25 -0.02,0.07 -0.21,0.05 -0.30,-0.02 z m 3.49,-1.87 c -0.06,-0.13 0.11,-0.23 0.18,-0.10 0.02,0.04 0.02,0.07 -0.01,0.11 -0.06,0.07 -0.12,0.07 -0.16,-0.01 z m 2.84,-0.40 c -0.04,-0.08 -0.06,-0.08 -0.23,-0.08 -0.23,0 -0.30,-0.05 -0.41,-0.33 l -0.07,-0.20 0.06,-0.10 c 0.03,-0.05 0.06,-0.11 0.06,-0.13 0,-0.01 -0.04,-0.14 -0.09,-0.27 -0.10,-0.26 -0.10,-0.38 0.01,-0.38 0.03,0 0.08,0.01 0.10,0.03 0.05,0.06 0.29,0.74 0.31,0.89 0.01,0.10 0.05,0.17 0.14,0.28 0.06,0.07 0.14,0.13 0.16,0.13 0.02,0 0.09,-0.09 0.17,-0.25 0.06,-0.13 0.14,-0.26 0.16,-0.27 0.02,-0.01 0.07,-0.07 0.10,-0.12 0.07,-0.11 0.17,-0.14 0.17,-0.04 0,0.12 -0.50,0.95 -0.58,0.95 -0.02,0 -0.06,-0.03 -0.09,-0.08 z m -7.92,-0.02 c -0.01,-0.01 -0.00,-0.10 0.00,-0.20 0.01,-0.16 0.01,-0.17 -0.07,-0.26 -0.05,-0.05 -0.09,-0.11 -0.09,-0.13 0,-0.06 0.35,-0.73 0.42,-0.82 0.09,-0.10 0.16,-0.25 0.16,-0.35 0,-0.04 0.03,-0.17 0.07,-0.29 0.03,-0.11 0.08,-0.25 0.09,-0.32 0.01,-0.06 0.04,-0.15 0.06,-0.20 0.06,-0.11 0.18,-0.52 0.18,-0.59 2.6e-4,-0.03 0.04,-0.13 0.09,-0.23 0.04,-0.09 0.12,-0.25 0.16,-0.36 0.10,-0.28 0.14,-0.33 0.25,-0.33 0.06,0 0.09,0.01 0.12,0.06 0.02,0.05 0.00,0.11 -0.10,0.33 -0.08,0.16 -0.15,0.37 -0.19,0.55 -0.07,0.30 -0.17,0.66 -0.25,0.90 -0.24,0.71 -0.32,0.89 -0.47,1.13 -0.05,0.08 -0.10,0.17 -0.10,0.19 0,0.02 0.05,0.07 0.11,0.10 0.17,0.08 0.16,0.15 -0.04,0.36 -0.13,0.12 -0.18,0.20 -0.21,0.30 -0.01,0.07 -0.04,0.14 -0.04,0.17 -0.01,0.04 -0.12,0.04 -0.14,0.00 z m 4.94,-0.67 c -0.04,-0.02 -0.15,-0.04 -0.23,-0.04 -0.07,-8.67e-4 -0.22,-0.02 -0.32,-0.05 -0.47,-0.14 -0.94,-0.17 -1.49,-0.07 -0.28,0.04 -0.52,0.05 -0.96,0.01 -0.13,-0.01 -0.69,0.06 -0.84,0.11 -0.28,0.09 -0.36,0.07 -0.32,-0.09 0.02,-0.09 0.25,-0.19 0.64,-0.25 0.17,-0.03 0.41,-0.07 0.52,-0.09 0.54,-0.09 1.53,-0.09 1.93,-0.01 0.11,0.02 0.28,0.05 0.37,0.07 0.09,0.01 0.27,0.06 0.40,0.11 0.13,0.04 0.29,0.09 0.36,0.10 0.13,0.02 0.22,0.10 0.21,0.18 -0.01,0.06 -0.15,0.08 -0.27,0.02 z m 1.82,-0.27 c -0.09,-0.08 -0.12,-0.14 -0.14,-0.25 -0.02,-0.14 -0.09,-0.25 -0.16,-0.25 -0.02,0 -0.10,-0.05 -0.18,-0.11 -0.07,-0.06 -0.16,-0.11 -0.18,-0.11 -0.02,0 -0.11,-0.06 -0.20,-0.13 -0.09,-0.07 -0.22,-0.15 -0.30,-0.18 -0.15,-0.05 -0.21,-0.13 -0.21,-0.27 0,-0.21 0.11,-0.23 0.35,-0.06 0.46,0.33 0.78,0.61 0.85,0.74 0.03,0.05 0.09,0.15 0.15,0.22 0.19,0.25 0.29,0.54 0.18,0.54 -0.01,0 -0.08,-0.05 -0.15,-0.11 z m 1.84,-0.08 c -0.05,-0.05 -0.01,-0.18 0.11,-0.30 0.07,-0.07 0.21,-0.24 0.30,-0.38 0.09,-0.13 0.21,-0.30 0.27,-0.37 0.05,-0.06 0.14,-0.18 0.20,-0.26 0.07,-0.10 0.11,-0.14 0.16,-0.14 0.15,0 0.12,0.13 -0.08,0.36 -0.06,0.07 -0.15,0.18 -0.17,0.23 -0.05,0.10 -0.47,0.65 -0.61,0.80 -0.07,0.08 -0.14,0.10 -0.18,0.06 z m -0.15,-0.85 c -0.03,-0.04 -0.08,-0.13 -0.10,-0.23 -0.03,-0.16 -0.14,-0.37 -0.22,-0.44 -0.02,-0.02 -0.06,-0.10 -0.08,-0.18 -0.02,-0.07 -0.08,-0.19 -0.13,-0.26 -0.10,-0.13 -0.11,-0.25 -0.01,-0.26 0.11,-0.01 0.53,0.58 0.71,1.02 0.11,0.28 0.12,0.32 0.05,0.38 -0.06,0.06 -0.12,0.05 -0.20,-0.02 z m -5.60,-0.17 c -0.13,-0.08 -0.35,-0.20 -0.48,-0.26 -0.34,-0.15 -0.37,-0.18 -0.34,-0.34 0.01,-0.07 0.01,-0.25 0.01,-0.39 0,-0.22 0.00,-0.27 0.07,-0.36 0.03,-0.05 0.13,-0.19 0.20,-0.30 0.07,-0.10 0.19,-0.24 0.25,-0.29 0.06,-0.05 0.16,-0.17 0.22,-0.25 0.07,-0.11 0.13,-0.17 0.23,-0.21 0.29,-0.12 0.37,-0.23 0.34,-0.48 -0.01,-0.15 -0.01,-0.17 0.06,-0.25 0.04,-0.04 0.14,-0.15 0.21,-0.24 0.31,-0.39 0.54,-0.59 0.86,-0.74 l 0.30,-0.15 0.37,0.18 c 0.49,0.24 0.51,0.25 0.50,0.49 -8.68e-4,0.09 0.01,0.25 0.02,0.33 0.03,0.19 0.02,0.22 -0.24,0.63 -0.12,0.17 -0.26,0.40 -0.31,0.50 -0.10,0.20 -0.22,0.29 -0.42,0.31 -0.17,0.02 -0.22,0.09 -0.17,0.27 0.05,0.19 0.04,0.27 -0.08,0.45 -0.20,0.27 -0.59,0.83 -0.69,1.00 -0.11,0.18 -0.22,0.24 -0.52,0.26 -0.19,0.01 -0.19,0.01 -0.43,-0.14 z m 0.65,-0.82 c 0.11,-0.15 0.26,-0.37 0.34,-0.47 0.25,-0.32 0.25,-0.37 0.00,-0.50 -0.07,-0.04 -0.18,-0.10 -0.23,-0.13 -0.07,-0.04 -0.10,-0.05 -0.15,-0.02 -0.03,0.01 -0.06,0.04 -0.06,0.06 0,0.03 -0.48,0.75 -0.60,0.88 -0.14,0.16 -0.12,0.21 0.19,0.38 0.28,0.14 0.28,0.14 0.51,-0.18 z m 1.09,-1.68 c 0.04,-0.07 0.20,-0.26 0.35,-0.43 0.34,-0.39 0.34,-0.41 0.01,-0.57 -0.17,-0.08 -0.25,-0.11 -0.29,-0.09 -0.05,0.02 -0.29,0.36 -0.40,0.58 -0.03,0.07 -0.11,0.18 -0.17,0.23 -0.05,0.05 -0.10,0.11 -0.10,0.14 0,0.03 0.06,0.09 0.17,0.16 0.28,0.18 0.29,0.18 0.43,-0.03 z m 5.98,1.43 c -0.08,-0.01 -0.15,-0.04 -0.15,-0.06 0,-0.01 0.06,-0.08 0.13,-0.14 0.07,-0.06 0.13,-0.12 0.13,-0.14 0,-0.02 -0.03,-0.07 -0.07,-0.11 -0.10,-0.09 -0.17,-0.23 -0.23,-0.46 -0.02,-0.10 -0.07,-0.23 -0.10,-0.30 -0.07,-0.13 -0.08,-0.29 -0.01,-0.29 0.09,0 0.19,0.13 0.28,0.38 0.16,0.46 0.22,0.64 0.27,0.71 0.05,0.08 0.06,0.17 0.01,0.33 -0.03,0.13 -0.05,0.14 -0.26,0.10 z m -9.21,-1.25 c -0.04,-0.05 -0.01,-0.16 0.12,-0.43 0.08,-0.17 0.11,-0.25 0.11,-0.37 0,-0.18 0.05,-0.26 0.19,-0.31 0.05,-0.01 0.15,-0.09 0.22,-0.17 0.06,-0.07 0.16,-0.16 0.22,-0.20 0.05,-0.03 0.14,-0.12 0.19,-0.19 0.04,-0.07 0.21,-0.26 0.37,-0.42 0.15,-0.16 0.33,-0.35 0.39,-0.42 0.05,-0.06 0.14,-0.13 0.20,-0.15 0.08,-0.02 0.10,-0.04 0.10,-0.13 0,-0.13 -0.03,-0.18 -0.83,-1.18 -0.89,-1.12 -0.92,-1.16 -0.82,-1.16 0.03,0 0.03,-0.01 0.01,-0.06 -0.01,-0.04 -0.05,-0.06 -0.11,-0.06 -0.04,-0.00 -0.10,-0.00 -0.11,-0.00 -0.03,-0.00 -0.35,-0.40 -0.60,-0.74 C 20.07,9.49 19.93,9.31 19.82,9.17 19.70,9.03 19.55,8.84 19.47,8.74 19.40,8.64 19.20,8.38 19.02,8.17 18.84,7.95 18.57,7.61 18.42,7.41 18.18,7.08 17.84,6.64 17.58,6.31 17.53,6.25 17.38,6.05 17.24,5.88 17.10,5.70 16.83,5.35 16.64,5.11 16.34,4.74 16.03,4.34 15.39,3.49 14.89,2.84 14.74,2.58 14.67,2.27 c -0.03,-0.17 -0.03,-0.19 0.03,-0.32 0.10,-0.20 0.43,-0.50 0.62,-0.56 0.19,-0.05 0.44,-0.05 0.57,-0.00 0.12,0.05 0.39,0.30 0.54,0.50 0.05,0.08 0.15,0.19 0.20,0.25 0.12,0.13 0.17,0.25 0.12,0.31 -0.07,0.09 -0.14,0.03 -0.42,-0.37 -0.24,-0.34 -0.52,-0.53 -0.79,-0.53 -0.20,-8.59e-4 -0.71,0.38 -0.67,0.49 0.01,0.02 0.03,0.13 0.04,0.22 0.03,0.20 0.09,0.33 0.17,0.37 0.05,0.02 0.05,0.01 0.06,-0.11 0.00,-0.12 0.01,-0.14 0.08,-0.14 0.06,0 0.07,0.02 0.12,0.20 0.04,0.15 0.10,0.28 0.27,0.53 0.32,0.48 0.38,0.57 0.51,0.71 0.18,0.20 0.30,0.36 0.34,0.44 0.01,0.04 0.04,0.07 0.05,0.07 0.07,0 0.80,0.86 0.88,1.04 0.03,0.07 0.11,0.20 0.19,0.29 0.07,0.09 0.16,0.21 0.20,0.26 0.03,0.05 0.16,0.21 0.28,0.34 0.41,0.47 0.67,0.82 0.67,0.90 0,0.10 0.15,0.33 0.31,0.46 0.07,0.06 0.19,0.20 0.27,0.31 0.13,0.19 0.14,0.21 0.27,0.22 0.12,0.01 0.13,0.02 0.25,0.22 0.06,0.11 0.20,0.33 0.30,0.48 0.10,0.15 0.20,0.30 0.21,0.35 0.01,0.04 0.09,0.14 0.18,0.23 0.27,0.27 0.73,0.82 0.75,0.91 0.02,0.10 0.12,0.23 0.18,0.23 0.06,0 0.30,-0.15 0.32,-0.21 0.01,-0.02 4.34e-4,-0.07 -0.02,-0.10 -0.02,-0.02 -0.14,-0.18 -0.26,-0.34 C 21.49,9.86 21.34,9.64 21.28,9.55 21.22,9.45 21.14,9.33 21.10,9.29 21.06,9.25 21.00,9.16 20.97,9.08 20.94,9.01 20.81,8.80 20.69,8.61 20.57,8.43 20.33,8.06 20.16,7.79 19.69,7.06 19.57,6.87 19.26,6.40 18.80,5.70 17.95,4.42 17.70,4.03 17.56,3.83 17.40,3.58 17.33,3.47 17.25,3.36 17.11,3.15 17.01,3.01 16.81,2.74 16.79,2.68 16.87,2.61 c 0.08,-0.06 0.17,0.00 0.31,0.26 0.07,0.13 0.33,0.53 0.58,0.89 0.24,0.35 0.46,0.68 0.48,0.72 0.02,0.04 0.11,0.17 0.21,0.29 0.09,0.12 0.21,0.31 0.26,0.41 0.05,0.10 0.15,0.26 0.22,0.35 0.06,0.09 0.19,0.27 0.26,0.40 0.07,0.13 0.19,0.31 0.26,0.39 0.06,0.08 0.16,0.22 0.22,0.32 0.18,0.31 0.78,1.22 0.82,1.26 0.02,0.01 0.09,0.12 0.16,0.24 0.06,0.11 0.15,0.24 0.20,0.30 0.04,0.05 0.11,0.16 0.15,0.24 0.03,0.07 0.11,0.21 0.18,0.30 0.06,0.09 0.15,0.22 0.19,0.29 0.03,0.07 0.18,0.29 0.31,0.48 0.13,0.19 0.27,0.40 0.31,0.47 0.18,0.37 1.14,1.75 1.33,1.94 0.05,0.04 0.09,0.11 0.09,0.15 0,0.03 -0.00,0.06 -0.00,0.06 -0.05,8.68e-4 -0.46,0.19 -0.53,0.25 -0.04,0.04 -0.14,0.10 -0.20,0.13 -0.06,0.03 -0.12,0.09 -0.14,0.14 -0.01,0.04 -0.08,0.13 -0.14,0.19 -0.06,0.06 -0.20,0.22 -0.32,0.35 -0.11,0.13 -0.27,0.31 -0.36,0.39 -0.14,0.14 -0.15,0.15 -0.13,0.26 0.02,0.18 -0.04,0.32 -0.19,0.38 -0.19,0.07 -0.58,0.53 -0.81,0.96 -0.05,0.09 -0.11,0.11 -0.17,0.05 z m 1.96,-3.93 c 0,-0.06 -0.13,-0.19 -0.19,-0.19 -0.02,0 0.00,0.17 0.04,0.22 0.05,0.06 0.14,0.04 0.14,-0.03 z m -0.25,-0.38 c -0.02,-0.05 -0.09,-0.17 -0.15,-0.26 -0.08,-0.12 -0.13,-0.16 -0.19,-0.17 -0.12,-0.01 -0.10,0.07 0.06,0.31 0.19,0.25 0.27,0.32 0.30,0.26 0.01,-0.02 0.00,-0.08 -0.02,-0.13 z m 6.85,3.84 c -0.14,-0.15 -0.17,-0.28 -0.09,-0.31 0.06,-0.02 0.17,0.05 0.28,0.20 0.20,0.27 0.04,0.37 -0.19,0.11 z m -0.32,-0.40 c -0.02,-0.00 -0.08,-0.05 -0.12,-0.11 -0.03,-0.05 -0.12,-0.14 -0.19,-0.19 -0.13,-0.09 -0.21,-0.22 -0.16,-0.26 0.04,-0.04 0.22,0.04 0.42,0.22 0.15,0.14 0.18,0.18 0.17,0.26 -0.00,0.09 -0.03,0.11 -0.12,0.08 z m -0.86,-0.79 c -0.05,-0.02 -0.14,-0.06 -0.19,-0.10 -0.16,-0.13 -1.04,-0.50 -1.42,-0.59 -0.11,-0.02 -0.28,-0.08 -0.36,-0.11 -0.09,-0.03 -0.26,-0.06 -0.44,-0.08 -0.33,-0.02 -0.39,-0.05 -0.47,-0.29 -0.09,-0.26 -0.13,-0.28 -0.46,-0.30 -0.15,-0.00 -0.35,-0.01 -0.44,-0.01 -0.16,0.00 -0.24,-0.03 -0.24,-0.11 0,-0.11 0.07,-0.13 0.42,-0.09 0.17,0.01 0.37,0.05 0.42,0.08 0.09,0.04 0.11,0.04 0.26,-0.00 0.12,-0.03 0.17,-0.07 0.22,-0.15 0.06,-0.11 0.28,-0.26 0.46,-0.31 0.14,-0.04 0.27,-0.19 0.35,-0.43 0.07,-0.22 0.06,-0.30 -0.08,-0.42 -0.17,-0.13 -0.21,-0.27 -0.23,-0.70 -0.01,-0.42 -0.00,-0.50 0.09,-0.54 0.03,-0.01 0.09,-0.08 0.12,-0.15 0.08,-0.19 0.27,-0.28 0.23,-0.11 -0.01,0.07 -0.00,0.09 0.08,0.15 0.05,0.03 0.10,0.08 0.10,0.10 0,0.02 0.02,0.05 0.05,0.07 0.07,0.03 0.14,0.18 0.14,0.27 0,0.03 -0.02,0.10 -0.05,0.16 -0.04,0.06 -0.05,0.13 -0.05,0.23 0.01,0.22 -0.13,0.26 -0.24,0.06 -0.04,-0.07 -0.03,-0.08 0.05,-0.16 0.10,-0.09 0.12,-0.20 0.04,-0.28 -0.05,-0.05 -0.04,-0.05 -0.16,-0.01 -0.20,0.07 -0.24,0.15 -0.17,0.46 0.02,0.12 0.05,0.17 0.22,0.32 0.16,0.15 0.19,0.19 0.17,0.24 -0.01,0.03 -0.03,0.11 -0.04,0.18 -0.01,0.06 -0.10,0.24 -0.19,0.40 -0.08,0.15 -0.16,0.31 -0.16,0.35 0,0.07 -0.06,0.08 -0.24,0.02 -0.10,-0.03 -0.12,-0.02 -0.19,0.03 -0.04,0.03 -0.12,0.09 -0.17,0.12 -0.12,0.08 -0.13,0.12 -0.08,0.31 0.05,0.17 0.12,0.23 0.25,0.20 0.13,-0.02 0.55,0.08 1.08,0.29 0.33,0.13 0.53,0.19 0.61,0.19 0.11,0 0.14,0.01 0.30,0.17 0.09,0.09 0.19,0.19 0.22,0.20 0.06,0.03 0.61,0.18 0.68,0.18 0.02,0 0.10,-0.05 0.16,-0.12 0.06,-0.06 0.17,-0.14 0.24,-0.17 0.07,-0.03 0.23,-0.13 0.35,-0.22 0.12,-0.09 0.26,-0.19 0.30,-0.22 0.15,-0.10 0.40,-0.52 0.58,-0.99 0.25,-0.68 0.25,-0.70 0.12,-0.71 -0.04,-0.00 -0.08,-0.02 -0.10,-0.04 -0.01,-0.02 -0.10,-0.03 -0.25,-0.03 -0.28,0 -0.39,-0.05 -0.41,-0.18 -0.00,-0.07 0.00,-0.10 0.07,-0.14 0.04,-0.02 0.15,-0.13 0.25,-0.22 0.14,-0.14 0.19,-0.17 0.33,-0.20 0.19,-0.04 0.30,-0.00 0.34,0.09 0.06,0.16 -0.04,0.24 -0.20,0.15 -0.10,-0.06 -0.24,-0.05 -0.33,0.01 -0.08,0.07 -0.05,0.10 0.15,0.19 0.13,0.05 0.16,0.08 0.22,0.19 l 0.06,0.13 0.05,-0.10 c 0.03,-0.05 0.09,-0.14 0.13,-0.18 0.12,-0.11 0.20,-0.48 0.15,-0.63 -0.01,-0.02 -0.09,-0.08 -0.19,-0.13 l -0.17,-0.09 -0.08,0.06 c -0.08,0.05 -0.09,0.06 -0.26,0.02 -0.16,-0.03 -0.18,-0.03 -0.24,0.01 -0.03,0.03 -0.08,0.05 -0.10,0.05 -0.05,0 -0.21,-0.17 -0.23,-0.26 -0.03,-0.12 0.11,-0.15 0.23,-0.04 0.02,0.02 0.05,0.03 0.06,0.02 0.03,-0.03 -0.06,-0.14 -0.18,-0.20 -0.10,-0.05 -0.13,-0.05 -0.25,-0.02 -0.12,0.03 -0.14,0.03 -0.30,-0.06 -0.16,-0.09 -0.17,-0.09 -0.47,-0.08 -0.16,0.00 -0.32,-0.00 -0.34,-0.01 -0.06,-0.03 -0.04,-0.13 0.03,-0.17 0.09,-0.04 0.83,0.04 1.03,0.12 0.07,0.03 0.17,0.05 0.20,0.05 0.06,0 0.42,0.11 0.72,0.24 0.09,0.04 0.24,0.09 0.32,0.12 0.09,0.03 0.21,0.11 0.34,0.23 0.10,0.10 0.25,0.23 0.33,0.30 0.14,0.12 0.25,0.16 0.25,0.08 0,-0.06 -0.19,-0.37 -0.28,-0.43 -0.09,-0.07 -0.10,-0.17 -0.01,-0.17 0.03,0 0.07,0.01 0.08,0.03 0.06,0.07 0.23,0.34 0.23,0.37 0,0.04 0.12,0.25 0.19,0.34 0.09,0.11 0.08,0.20 -0.00,0.28 -0.11,0.08 -0.26,0.07 -0.55,-0.02 -0.31,-0.11 -0.40,-0.11 -0.42,-0.00 -0.00,0.04 -0.04,0.12 -0.07,0.18 -0.03,0.05 -0.06,0.15 -0.07,0.20 -0.04,0.19 -0.36,1.12 -0.42,1.21 -0.03,0.04 -0.10,0.15 -0.16,0.24 -0.15,0.22 -0.35,0.42 -0.63,0.60 -0.13,0.08 -0.32,0.22 -0.42,0.30 -0.11,0.09 -0.23,0.15 -0.30,0.17 -0.18,0.03 -0.49,0.02 -0.61,-0.01 z M 26.19,9.84 c -0.02,-0.00 -0.04,-0.00 -0.05,0.00 -0.01,0.00 0.00,0.01 0.03,0.01 0.03,-0.00 0.04,-0.00 0.01,-0.01 z m 2.33,3.38 c -0.09,-0.05 -0.14,-0.05 -0.28,-0.04 -0.25,0.02 -0.31,-0.08 -0.14,-0.23 0.11,-0.09 0.18,-0.09 0.35,-0.01 0.07,0.03 0.16,0.05 0.21,0.05 0.07,8.69e-4 0.17,0.06 0.17,0.12 0,0.03 -0.13,0.17 -0.17,0.17 -0.01,0 -0.07,-0.02 -0.14,-0.06 z m -1.97,-0.47 c -0.26,-0.23 -0.30,-0.32 -0.35,-0.81 -0.01,-0.15 -0.01,-0.18 0.04,-0.23 0.08,-0.07 0.13,-0.02 0.17,0.18 0.03,0.16 0.23,0.61 0.35,0.79 0.03,0.04 0.06,0.11 0.06,0.15 8.69e-4,0.11 -0.09,0.08 -0.28,-0.08 z m 2.31,0.04 c -0.38,-0.14 -0.58,-0.19 -0.74,-0.17 -0.13,0.01 -0.17,0.00 -0.21,-0.03 -0.06,-0.06 -0.06,-0.14 -0.00,-0.20 0.06,-0.06 0.12,-0.05 0.23,0.00 0.05,0.03 0.17,0.06 0.28,0.07 0.41,0.03 0.65,0.11 0.71,0.22 0.07,0.13 -0.04,0.18 -0.26,0.10 z m -2.91,-0.49 c -0.03,-0.03 -0.04,-0.14 -0.01,-0.14 0.04,0 0.15,0.09 0.15,0.13 0,0.05 -0.09,0.05 -0.14,0.00 z m 2.98,-0.06 c -0.11,-0.11 -0.08,-0.16 0.12,-0.22 0.06,-0.01 0.14,-0.06 0.17,-0.09 0.06,-0.07 0.12,-0.06 0.13,0.04 0.01,0.11 -0.04,0.25 -0.14,0.30 -0.12,0.06 -0.19,0.05 -0.28,-0.03 z m -0.42,-0.21 c -0.03,-0.02 -0.06,-0.07 -0.06,-0.10 0,-0.06 0.10,-0.14 0.19,-0.14 0.17,0 0.26,0.21 0.11,0.26 -0.10,0.04 -0.16,0.03 -0.24,-0.01 z m 0.37,-0.90 c -0.06,-0.03 -0.06,-0.08 -0.01,-0.19 0.04,-0.08 0.16,-0.13 0.20,-0.07 0.04,0.06 0.03,0.17 -0.03,0.23 -0.06,0.06 -0.08,0.07 -0.15,0.02 z m -0.38,-0.31 -0.06,-0.10 -0.09,0.05 c -0.08,0.05 -0.11,0.05 -0.21,0.02 -0.34,-0.09 -0.25,-0.35 0.12,-0.37 0.22,-0.01 0.38,0.07 0.44,0.23 0.08,0.23 -0.08,0.36 -0.20,0.15 z m 0.10,-0.57 c -0.27,-0.13 -0.28,-0.13 -0.57,-0.08 -0.17,0.03 -0.24,-0.09 -0.11,-0.18 0.09,-0.06 0.60,-0.09 0.70,-0.04 0.14,0.07 0.41,0.30 0.41,0.34 0,0.03 -0.12,0.11 -0.15,0.09 -0.00,-8.68e-4 -0.12,-0.06 -0.27,-0.13 z m -1.83,0.01 C 26.73,10.20 26.62,9.96 26.57,9.75 26.53,9.59 26.52,9.58 26.35,9.48 26.25,9.42 26.20,9.37 26.21,9.35 c 0.00,-0.02 0.01,-0.12 0.02,-0.22 0.00,-0.14 0.02,-0.19 0.08,-0.26 0.05,-0.05 0.08,-0.13 0.10,-0.26 0.01,-0.10 0.07,-0.28 0.12,-0.41 0.05,-0.12 0.14,-0.33 0.19,-0.47 0.10,-0.29 0.23,-0.48 0.38,-0.56 0.19,-0.10 0.46,-0.18 0.57,-0.16 0.12,0.01 0.49,-0.11 0.69,-0.25 0.30,-0.20 0.75,-0.28 1.18,-0.19 0.13,0.02 0.26,0.06 0.29,0.07 0.02,0.01 0.15,0.13 0.29,0.27 0.15,0.16 0.31,0.28 0.43,0.34 0.24,0.12 0.36,0.22 0.41,0.31 0.12,0.24 0.15,1.19 0.04,1.60 C 31.03,9.29 31.00,9.50 30.98,9.63 30.97,9.76 30.94,9.88 30.92,9.91 30.85,9.97 30.75,9.90 30.62,9.71 30.53,9.57 30.47,9.52 30.23,9.39 30.08,9.31 29.88,9.21 29.79,9.17 c -0.08,-0.03 -0.17,-0.07 -0.19,-0.08 -0.05,-0.04 -0.24,-0.09 -0.53,-0.13 -0.68,-0.10 -0.74,-0.10 -1.01,-0.05 -0.15,0.02 -0.32,0.04 -0.41,0.03 -0.11,-0.01 -0.20,-0.00 -0.34,0.04 -0.10,0.03 -0.23,0.05 -0.30,0.05 -0.28,9.54e-4 -0.30,0.13 -0.04,0.34 0.18,0.14 0.18,0.14 0.41,0.14 0.24,0.00 0.29,0.01 0.29,0.09 0,0.09 -0.07,0.13 -0.27,0.10 -0.23,-0.02 -0.32,0.02 -0.32,0.18 0,0.26 -0.13,0.43 -0.27,0.32 z m 3.42,-1.46 c 0.00,-0.09 -0.00,-0.13 -0.08,-0.21 -0.10,-0.12 -0.14,-0.21 -0.14,-0.33 0,-0.04 -0.03,-0.21 -0.07,-0.38 l -0.07,-0.30 0.07,-0.09 c 0.08,-0.10 0.09,-0.20 0.03,-0.26 -0.03,-0.03 -0.20,-0.07 -0.48,-0.11 -0.11,-0.01 -0.12,-0.01 -0.16,0.05 -0.03,0.06 -0.02,0.09 0.04,0.19 0.09,0.13 0.10,0.10 -0.13,0.49 -0.07,0.13 -0.14,0.25 -0.14,0.27 0,0.06 -0.12,0.18 -0.22,0.19 -0.11,0.02 -0.17,0.09 -0.15,0.20 0.01,0.08 0.11,0.13 0.34,0.15 0.17,0.01 0.18,0.01 0.21,-0.04 0.02,-0.05 0.02,-0.08 -0.02,-0.15 -0.15,-0.20 -0.03,-0.29 0.30,-0.21 0.38,0.08 0.41,0.11 0.27,0.28 -0.11,0.13 -0.09,0.23 0.07,0.31 0.07,0.03 0.17,0.06 0.23,0.05 0.09,-0.00 0.10,-0.01 0.11,-0.12 z M 29.42,8.10 c -0.07,-0.04 -0.06,-0.14 0.01,-0.29 0.08,-0.16 0.16,-0.17 0.21,-0.02 0.05,0.16 0.04,0.29 -0.01,0.32 -0.07,0.03 -0.15,0.03 -0.21,-0.00 z" />
</svg>
