<?xml version="1.0" encoding="UTF-8" standalone="no"?>
<!-- Created with Inkscape (http://www.inkscape.org/) -->
<svg xmlns:dc="http://purl.org/dc/elements/1.1/" xmlns:cc="http://creativecommons.org/ns#" xmlns:rdf="http://www.w3.org/1999/02/22-rdf-syntax-ns#" xmlns:svg="http://www.w3.org/2000/svg" xmlns="http://www.w3.org/2000/svg" version="1.1" width="100%" height="100%" viewBox="0 0 48 48" id="Layer_1" xml:space="preserve" style="overflow:visible">
<defs id="defs53" />
<path d="m 24.54,1.07 c -0.00,0.18 0.36,0.35 0.44,0.22 C 24.87,1.19 24.70,1.14 24.54,1.07 z m 0.66,0 c -0.03,0.23 0.15,0.23 0.36,0.22 0.01,-0.20 -0.18,-0.21 -0.36,-0.22 z m -1.25,0.07 c -0.18,0.00 -0.37,0.01 -0.36,0.22 0.18,-0.00 0.37,-0.01 0.36,-0.22 z m 2.73,0.29 c 0.02,0.19 0.19,0.24 0.36,0.29 -0.01,-0.20 -0.12,-0.31 -0.36,-0.29 z m -3.57,0.07 c -0.89,0.05 -1.27,0.93 -0.55,1.47 -0.40,0.45 -0.21,1.12 -0.29,1.77 -0.04,0.39 -0.27,0.79 -0.29,1.25 -0.03,0.89 0.16,2.68 0.44,3.17 0.18,0.15 0.56,0.12 0.66,0.36 C 22.67,9.69 22.39,9.94 22.11,10.21 21.94,9.65 21.47,9.38 21.15,8.96 21.41,7.72 20.35,6.19 19.38,5.42 16.68,3.27 12.03,4.56 10.91,7.93 c -1.09,3.30 1.00,6.13 3.75,7.07 0.11,0.97 0.52,2.20 0.88,3.17 0.73,0.28 1.05,-0.11 1.47,-0.29 0.47,-0.20 1.07,-0.21 1.47,-0.36 1.29,-0.49 2.04,-1.88 3.09,-2.50 0.23,0.08 0.43,0.20 0.73,0.22 1.37,1.62 2.52,3.47 4.20,4.79 -0.13,1.28 -0.85,1.99 -1.47,2.79 -0.43,0.15 -0.83,0.34 -1.03,0.73 -0.03,0.28 0.12,0.35 0.07,0.66 -0.26,0.34 -0.76,0.46 -0.88,0.95 0.08,0.01 0.07,0.11 0.07,0.22 0.46,0.29 0.95,0.57 1.32,0.95 0.27,1.72 -1.17,1.92 -1.99,2.57 -0.54,0.43 -1.24,1.69 -1.40,2.43 -0.33,0.29 -0.88,0.38 -1.03,0.88 0.16,0.86 -0.43,1.43 -1.47,1.32 -0.24,-0.21 -0.31,-0.62 -0.36,-1.03 1.35,-2.62 2.79,-5.16 4.86,-7.07 -1.66,1.25 -3.15,3.11 -4.12,5.08 -0.25,0.52 -0.75,1.08 -0.88,1.54 -0.75,2.58 2.91,2.21 3.61,3.53 0.20,0.39 -0.00,2.21 -0.14,2.65 -0.16,0.50 -0.65,0.70 -0.88,1.10 0.47,2.12 2.66,0.57 3.24,-0.44 0.48,0.72 0.95,1.83 2.20,1.54 -0.14,0.15 -0.19,0.38 -0.51,0.36 -0.35,0.00 -0.34,-0.33 -0.66,-0.36 -0.06,0.20 0.10,0.18 0.07,0.36 -0.20,0.00 -0.14,-0.12 -0.29,0 -0.67,1.82 -2.02,2.99 -3.54,3.98 -0.13,0.86 0.71,1.38 1.18,1.47 2.75,0.54 3.47,-2.63 5.15,-3.16 0.75,-0.93 0.23,-2.28 -0.44,-2.95 0.19,-0.50 -0.30,-0.88 -0.36,-1.25 -0.18,-1.01 0.16,-2.03 -0.07,-2.65 -0.21,-0.56 -1.07,-0.99 -1.25,-1.47 -0.22,-0.59 0.06,-1.02 0.29,-1.40 1.62,-0.85 3.33,-1.62 4.93,-2.50 0.36,-1.07 1.31,-1.41 2.65,-1.47 0.53,-0.02 1.14,0.24 1.54,-0.14 -0.38,-0.67 -0.03,-2.01 0.29,-2.65 -0.11,-0.61 -0.44,-1.09 -0.29,-1.77 -0.14,-0.22 -0.38,-0.34 -0.44,-0.66 0.95,-1.21 -0.25,-2.74 -1.10,-3.46 0.67,1.04 1.91,2.17 0.95,3.61 -0.19,-0.07 -0.35,-0.18 -0.36,-0.44 0.57,-0.76 0.01,-1.58 -0.51,-2.06 0.40,0.69 0.66,1.37 0.14,2.13 0.24,0.11 0.42,0.49 0.59,0.88 -0.58,0.44 -0.86,1.42 -0.29,2.06 -0.11,0.23 -0.24,0.44 -0.29,0.73 0.68,-0.24 0.49,-1.08 0.22,-1.62 0.25,-0.43 0.66,-0.70 0.88,-1.18 0.44,1.38 0.09,2.63 -0.29,3.90 -0.88,-0.03 -1.29,-0.80 -1.91,-1.32 -1.24,-1.04 -2.97,-1.45 -4.93,-1.32 0.24,-0.65 1.05,-0.78 1.69,-1.10 0.34,-0.16 0.66,-0.40 0.88,-0.44 0.39,-0.05 0.83,0.31 1.17,0 -1.69,-1.32 -3.10,1.02 -4.49,0.29 -0.05,-0.20 0.35,0.05 0.29,-0.14 -0.53,-0.13 -0.94,-0.37 -1.47,-0.51 -0.05,0.45 0.28,0.50 0.36,0.81 -0.27,0.60 0.25,1.19 0.29,1.62 -1.04,0.06 -2.08,-0.89 -2.80,-1.62 0.32,-0.43 0.98,-0.60 0.66,-1.47 0.27,-0.24 0.70,-0.32 1.25,-0.29 0.15,1.28 1.57,0.89 2.50,0.88 0.00,-1.23 -1.66,-0.79 -1.84,-1.84 0.60,-0.34 1.09,0.66 1.91,0.81 0.55,0.10 1.23,-0.27 2.14,-0.22 0.71,0.04 1.32,0.39 1.84,0.14 0.29,-0.14 0.52,-0.79 0.66,-0.88 -1.28,-0.69 -2.64,0.81 -3.98,0.29 0.04,-0.87 -0.08,-1.30 -0.36,-1.69 0.51,0.36 1.05,0.16 1.54,0.14 0.82,-0.03 1.59,0.24 2.36,-0.07 0.36,-0.15 0.57,-0.63 0.81,-0.66 0.22,-0.02 -0.00,0.38 0.22,0.07 0.67,-0.91 0.02,-2.32 0,-3.32 -0.01,-0.44 0.24,-0.88 0.29,-1.39 0.06,-0.64 -0.21,-1.26 -0.22,-1.91 -0.00,-0.60 0.26,-1.21 0.14,-1.76 -0.53,-2.53 -3.84,-2.59 -5.82,-3.39 0.30,0.32 1.09,0.18 1.25,0.66 -1.93,0.41 -1.52,3.79 -4.04,2.95 l 0,-0.66 c 0.14,-0.22 0.52,-0.20 0.51,-0.58 -0.19,-0.51 -0.87,-0.54 -0.88,-1.25 C 24.76,9.36 25.08,9.10 24.98,8.74 25.33,8.59 25.72,8.50 25.87,8.15 24.86,8.28 24.13,9.37 23.07,9.18 22.00,8.99 22.57,7.51 22.33,6.23 22.24,5.75 22.23,5.27 22.48,4.91 c 0.13,0.06 0.18,0.20 0.44,0.14 0.33,-0.50 4.61e-4,-1.02 -0.44,-1.17 0.07,-0.39 0.33,-0.59 0.44,-0.95 0.14,0.02 0.06,0.28 0.29,0.22 0.01,-0.13 0.04,-0.24 0.14,-0.29 0.12,0.34 0.83,0.15 1.03,-0.07 0.31,0.11 0.67,0.23 1.03,0.14 C 24.94,1.97 23.57,2.60 22.78,2.11 c 0.16,-0.12 0.66,-0.16 0.51,-0.36 -0.11,-0.01 -0.05,-0.16 0,-0.22 -0.06,-0.00 -0.12,-0.00 -0.18,0 z m 2.32,1.40 c -0.34,0.72 0.38,0.90 0.36,1.54 0.12,0.06 0.36,0.02 0.44,0.14 -0.23,0.39 -0.14,0.69 -0.22,1.18 l 0.44,0 c 0.23,-0.20 0.18,-0.70 0.59,-0.73 0.79,0.60 -0.02,1.90 -0.66,1.91 0.50,0.20 0.43,0.99 0.95,1.18 0.01,-0.28 -0.26,-0.27 -0.22,-0.59 1.13,-1.10 2.04,-4.36 0.36,-5.60 -0.01,0.11 0.02,0.27 -0.07,0.29 -0.15,-0.04 -0.20,-0.18 -0.44,-0.14 -0.06,0.42 -0.39,0.58 -0.95,0.51 -0.14,0.24 -0.29,0.48 -0.51,0.66 -0.02,-0.12 0.23,-0.39 -0.07,-0.36 z M 26.66,1.95 c -0.01,1.93e-4 -0.03,0.00 -0.05,0.00 l 0,0.29 c 0.26,0.05 0.28,-0.30 0.05,-0.30 z m -2.44,2.18 c -0.31,-5.4e-4 -0.63,0.06 -0.77,0.17 0.30,0.18 0.22,0.75 0.66,0.81 0.27,-0.05 0.54,-0.25 0.73,0 0.06,-0.50 -0.54,-0.33 -0.73,-0.59 0.35,-0.00 0.74,-0.28 0.95,0 -0.02,-0.28 -0.43,-0.39 -0.84,-0.39 z m -8.17,0.41 c 0.45,-0.01 0.91,0.03 1.35,0.13 1.93,0.45 3.41,2.23 3.68,4.19 -0.29,-0.12 -0.38,-0.44 -0.66,-0.59 -0.62,0.40 0.58,1.02 0,1.62 -0.36,-0.01 -0.96,-0.73 -1.10,-0.07 0.63,-0.15 1.49,0.50 2.13,0.81 -0.06,-0.96 -0.82,-1.24 -1.03,-2.06 1.76,0.71 1.61,3.41 2.80,5.00 0.31,0.41 0.66,0.54 0.95,1.03 l 0.00,0 c 1.65,1.09 3.56,1.94 5.23,3.02 -0.15,-0.70 -0.46,-0.95 -0.29,-1.77 0.14,-0.68 1.13,-1.02 1.17,-1.54 0.04,-0.54 -0.91,-0.96 -0.81,-1.91 0.04,-0.41 0.35,-0.98 0.59,-1.25 0.29,-0.32 0.67,-0.39 0.66,-0.73 -0.01,-0.39 -0.58,-0.62 -1.03,-0.59 -0.18,0.00 -0.14,0.24 -0.14,0.44 -0.98,0.46 -1.65,1.76 -1.18,3.24 -1.38,-0.54 -0.33,-2.78 0.59,-3.53 0.28,-0.23 0.68,-0.30 0.81,-0.59 1.62,0.20 4.36,2.24 3.02,3.75 0.18,0.84 -0.51,1.66 -0.81,2.65 -0.23,0.77 -0.11,1.64 -0.36,2.36 -0.26,0.73 -1.22,2.30 -1.99,2.35 -1.04,0.07 -1.69,-1.93 -3.02,-1.77 -0.34,-0.34 -0.58,-0.78 -1.10,-0.95 -0.25,0.13 0.12,0.25 0.07,0.44 -1.47,-1.15 -2.38,-2.87 -4.19,-3.68 -0.05,-0.85 -1.15e-4,-1.57 -0.66,-1.77 -0.49,-0.14 -1.25,0.41 -1.54,-0.22 2.45,0.37 2.65,-1.86 0.73,-2.28 -0.16,0.14 0.33,0.24 0.29,0.51 -0.60,0.82 -1.53,1.70 -2.65,1.76 0.83,-0.56 2.03,-0.76 2.36,-1.84 -0.59,-0.20 -1.00,0.17 -1.40,0.51 -1.20,-0.54 -3.39,-0.01 -4.79,-0.51 -0.19,-0.38 -0.15,-0.80 0.14,-1.03 1.92,-0.01 3.27,0.05 5.15,-0.22 C 19.46,8.99 20.11,8.70 20.19,7.85 20.12,7.63 20.12,8.06 20.05,8.07 18.76,6.32 15.94,5.14 12.82,5.94 13.39,5.13 14.68,4.59 16.04,4.55 z m 11.00,1.01 c -0.01,0.10 -0.17,0.06 -0.29,0.07 0.08,0.30 -0.15,0.28 -0.14,0.51 0.28,0.20 0.73,-0.46 0.44,-0.59 z m -12.39,0.43 c 2.32,-0.02 4.25,1.09 5.32,2.22 -0.41,1.30 -2.74,1.29 -4.79,1.25 -0.92,-0.01 -1.96,-0.05 -2.64,-0.14 -0.50,-0.07 -1.19,-0.19 -1.40,-0.59 0.40,0.07 0.89,0.41 1.25,0.29 0.09,-0.29 -0.01,-0.67 0.29,-0.88 C 12.29,7.90 11.94,7.61 11.64,7.26 12.00,6.62 12.92,6.20 13.63,6.08 13.98,6.03 14.32,6.01 14.65,6.00 z m 8.01,0.22 c -0.03,6.39e-4 -0.07,6.71e-4 -0.11,0.00 0.01,0.25 0.62,0.44 0.73,0.14 C 23.11,6.30 22.93,6.22 22.67,6.23 z m -0.04,0.74 c 0.13,0.60 0.91,0.15 1.25,0.59 0.02,-0.69 -0.94,-0.41 -1.25,-0.59 z m 0.54,0.64 c -0.11,0.00 -0.21,0.03 -0.24,0.08 0.08,0.16 0.72,0.42 0.73,0 -0.06,-0.05 -0.30,-0.09 -0.48,-0.08 z M 12.23,12.44 c 0.09,-0.01 0.44,0.09 0.51,0.13 -0.14,0.22 -0.32,-0.11 -0.51,-0.07 -0.04,-0.03 -0.03,-0.05 0,-0.06 z m 8.55,0.57 c 0.39,0.49 0.15,1.03 0.22,1.62 -0.51,0.16 -0.75,0.62 -1.54,0.51 -0.43,0.39 -0.70,0.96 -1.25,1.25 -0.29,-0.31 -0.05,-1.17 -0.22,-1.62 1.13,-0.34 1.70,-1.62 2.80,-1.77 z m -5.74,1.99 c 0.26,0.10 0.71,0.01 0.95,0.14 -0.14,0.49 -0.59,0.67 -0.58,1.32 -0.25,-0.36 -0.47,-0.97 -0.36,-1.47 z m 12.87,11.31 c 2.07,-0.07 3.96,0.83 4.66,2.02 0.07,0.20 -0.30,0.11 -0.36,0.14 -0.29,0.14 -0.53,0.57 -0.88,0.88 -0.95,0.83 -2.12,1.63 -3.60,2.06 -0.38,0.10 -0.94,0.21 -1.32,0.36 -0.88,0.36 -1.65,2.34 -2.65,0.81 -0.48,0.51 -0.99,1.01 -1.10,1.91 -0.57,0.62 -1.54,-0.13 -1.62,-0.81 -0.04,-0.37 0.67,-1.92 1.03,-2.35 0.73,-0.88 1.58,-1.29 2.43,-1.84 1.30,-0.84 1.85,-2.40 2.94,-2.80 0.03,-0.23 -0.17,-0.30 0.07,-0.36 0.14,-0.01 0.28,-0.02 0.42,-0.02 z m -3.04,8.87 c 0.68,-0.03 1.44,0.42 1.51,1.17 -0.10,0.22 -0.37,-0.15 -0.51,0.07 -0.19,0.19 -0.06,0.72 -0.29,0.88 -1.03,-0.03 -1.58,-0.73 -1.69,-1.47 0.19,-0.43 0.57,-0.63 0.98,-0.66 z m 1.65,4.24 c 0.15,-0.02 0.30,0.05 0.45,0.32 -0.13,0.18 -0.15,0.48 -0.36,0.59 -0.22,0.02 -0.15,-0.24 -0.22,-0.36 -0.22,0.17 -1.01,0.56 -1.10,0 0.50,0.03 0.89,-0.49 1.24,-0.54 z m -1.17,1.61 c 0.16,-0.04 0.36,0.18 0.52,0.25 -0.32,0.36 -0.22,1.14 -0.51,1.54 -0.38,-0.05 -0.51,-0.36 -0.88,-0.44 -0.05,-0.32 0.21,-0.32 0.22,-0.59 0.31,0.00 0.24,0.39 0.66,0.29 0.05,-0.47 -0.74,-0.30 -0.44,-0.81 0.30,-0.00 0.29,0.29 0.66,0.22 0.11,-0.36 -0.37,-0.11 -0.29,-0.44 0.02,-0.01 0.04,-0.02 0.06,-0.03 z m -1.02,1.43 c 0.29,0.19 0.51,0.46 0.66,0.81 -0.30,0.22 -0.46,-0.31 -0.88,-0.22 0.06,0.33 0.37,0.40 0.44,0.73 -0.37,0.07 -0.41,-0.16 -0.73,-0.14 -0.04,0.35 0.37,0.51 0.14,0.81 -0.35,-0.01 -0.42,-0.31 -0.73,-0.36 -0.27,0.20 0.24,0.47 0,0.66 -0.22,-0.01 -0.33,-0.15 -0.51,-0.22 -0.25,0.20 0.16,0.61 -0.07,0.81 -0.34,-0.02 -0.48,-0.24 -0.59,-0.51 0.85,-0.68 1.70,-1.39 2.28,-2.36 z" />
</svg>
