<?xml version="1.0" encoding="UTF-8" standalone="no"?>
<!-- Created with Inkscape (http://www.inkscape.org/) -->
<svg xmlns:dc="http://purl.org/dc/elements/1.1/" xmlns:cc="http://creativecommons.org/ns#" xmlns:rdf="http://www.w3.org/1999/02/22-rdf-syntax-ns#" xmlns:svg="http://www.w3.org/2000/svg" xmlns="http://www.w3.org/2000/svg" version="1.0" width="100%" height="100%" viewBox="0 0 48 48" id="Layer_1" xml:space="preserve" style="overflow:visible">
<defs id="defs37" />
<path d="m 21.09,2.21 c -1.39,-0.01 -2.66,0.63 -3.25,2.15 -0.93,0.26 -1.64,1.27 -1.5,2.15 0.15,0.96 1.60,1.29 2.06,1.93 C 18.15,8.46 17.87,8.43 17.75,8.56 17.61,8.83 18.01,9.06 17.46,9.12 17.85,9.23 18.40,8.87 18.93,9.03 19.27,8.06 19.46,7.41 19.87,6.43 c 0.41,0.11 0.34,0.68 0.93,0.62 0.06,-0.61 -0.60,-0.03 -0.56,-0.71 0.49,-0.14 0.70,0.21 1.03,0.18 0.65,-0.06 0.53,-0.57 1.03,-0.75 -0.47,-0.46 -0.59,0.70 -0.93,0.37 -0.28,-0.37 0.39,-0.43 0.46,-0.75 -1.09,-1.05 1.39,-2.38 1.68,-0.84 -0.53,-0.13 -0.87,0.00 -1.21,0.28 0.20,0.21 0.64,-0.24 0.93,0 -0.07,0.26 -0.45,0.23 -0.65,0.37 0.39,0.22 0.50,0.33 0.65,0.65 0.40,-0.51 0.03,-0.78 0.28,-1.12 0.06,0.68 0.59,0.90 0.75,1.5 -0.19,0.20 -0.26,-0.04 -0.56,0 0.16,0.30 0.09,0.27 0.18,0.65 C 23.66,6.85 23.57,6.75 23.43,6.96 23.80,7.30 23.83,7.48 24,8.09 24.09,7.33 23.68,6.60 24.46,6.15 23.56,5.49 23.52,3.90 24.18,3.25 24.60,3.07 24.32,3.58 24.53,3.62 24.94,2.51 23.73,3.45 23.34,3.25 22.67,2.89 22.26,2.28 21.37,2.21 c -0.09,-0.00 -0.18,0.00 -0.28,0 z M 24,8.09 c -0.57,0.54 -2.14,0.11 -2.25,1.12 0.05,0.22 0.19,-0.22 0.28,-0.28 0.21,0.49 0.14,1.49 0.18,1.87 0.32,0.25 0.28,-0.47 0.28,-0.84 0.35,0.11 0.75,0.18 1.21,0.18 -0.53,1.32 -1.99,1.73 -2.53,3.06 -0.55,-0.24 -1.29,-1.31 -1.96,-1.84 -0.40,-0.31 -0.73,-0.27 -0.81,-0.75 -0.07,-0.45 0.52,-0.58 0.53,-1.21 -0.58,0.21 -0.50,1.09 -1,1.40 0.77,0.45 2.17,1.65 3.06,2.59 C 20.58,13.08 20.04,13.12 19.31,12.75 18.27,12.22 17.60,10.62 16.34,11.75 16.25,11.34 16.71,10.68 17,10.34 c 0.29,-0.04 0.21,0.28 0.56,0.18 0.32,-0.55 -0.62,-0.73 -0.28,-1.31 -0.46,0.23 -0.99,0.47 -1.12,0.93 -0.04,0.15 0.18,0.52 0.18,0.56 0.10,2.03 -2.74,1.38 -2.15,4.18 0.03,0.17 0.24,0.21 0.28,0.56 0.01,0.18 -0.17,0.49 -0.09,0.84 0.11,0.49 0.82,0.64 0.93,1.31 0.05,0.33 -0.32,0.60 -0.28,1 0.06,0.56 0.48,0.47 0.65,1.03 -1.01,0.56 -1.78,1.06 -2.68,1.68 -0.71,0.49 -1.62,1.65 -2.43,1.87 C 9.78,23.42 6.47,23.27 5.62,22.93 5.39,22.84 5.30,22.59 5.06,22.56 4.11,22.44 2.85,23.26 1.62,23.40 1.00,23.47 0.48,23.32 0,23.37 l 0,0.93 C 2.43,24.28 4.87,24.26 6.81,24.12 4.71,24.66 2.38,24.93 0,25.18 L 0,28 C 0.94,27.87 1.94,27.59 3.09,27.40 2.46,28.27 1.01,28.32 0,28.81 L 0,29.5 C 0.29,29.36 0.51,29.16 0.68,28.90 0.96,29.11 1.01,29.01 1.43,29 1.09,29.36 0.48,29.44 0,29.65 l 0,1.5 c 1.41,0.04 3.04,-1.07 4.12,-1.06 0.81,-0.48 2.60,-0.96 4.18,-1.37 -0.07,0.32 0.13,0.33 0.09,0.62 -0.47,0.04 -0.58,0.21 -0.84,0.37 -0.22,0.13 -0.78,0.36 -0.81,0.37 -0.16,0.05 -0.45,-0.06 -0.65,0 -0.25,0.09 -0.48,0.38 -0.75,0.46 C 3.82,31.03 1.40,31.48 0.31,32.53 0.81,32.71 1.03,32.13 1.34,32.43 0.84,32.64 0.45,32.99 0,33.25 l 0,1.62 C 2.38,33.48 5.08,32.08 7.65,31.21 5.91,32.15 4.23,33.65 2.53,34.31 2.60,33.98 3.16,34.13 3.18,33.75 2.17,34.18 1.12,34.74 0,35.28 l 0,1.40 c 0.16,0.04 0.31,0.05 0.40,-0.06 0.09,0.20 -0.15,0.35 -0.40,0.5 l 0,0.5 c 0.40,-0.21 0.87,-1.03 1.53,-1.28 0.10,-0.03 0.24,0.05 0.34,0 0.60,-0.32 1.02,-1.00 1.5,-0.93 -0.79,1.07 -2.20,1.52 -3.15,2.43 0.22,0.15 0.74,-0.19 0.93,-0.37 C 1.12,37.92 0.54,38.32 0,38.62 l 0,1.03 C 0.97,39.41 1.42,38.55 2.06,38.12 2.46,37.85 3.03,37.77 3.46,37.56 4.77,36.92 5.91,35.89 7.37,35.40 6.18,36.49 4.62,37.03 3.18,37.93 1.78,38.81 0.18,39.74 0.31,40.90 0.23,41.02 0.11,41.13 0,41.21 l 0,0.81 c 0.05,0.10 0.08,0.25 0.12,0.37 -0.04,-0.01 -0.09,-0.00 -0.12,0 L 0,43.37 c 1.30,-0.20 2.55,-0.31 3.84,-0.59 3.68,-0.79 6.96,-3.20 10.15,-3.62 0.91,-0.11 1.37,-0.00 1.78,0.46 -0.17,0.03 -0.40,0.03 -0.37,0.28 0.72,2.02 2.67,2.28 4.56,3.06 1.76,0.72 4.18,1.58 6.06,1.96 0.56,0.11 1.19,-0.04 1.59,0.46 -0.28,0.03 -0.47,-0.24 -0.56,0.09 0.49,-0.21 0.06,0.14 0.28,0.28 0.11,-0.16 0.53,-0.51 0.65,-0.37 -0.15,0.07 -0.34,0.22 -0.46,0.37 0.28,0.00 0.58,-0.47 0.75,-0.28 -0.00,0.11 -0.12,0.13 -0.09,0.28 0.29,0.08 0.19,-0.24 0.37,-0.28 5.33,0.99 13.70,0.92 19.43,0.06 l 0,-0.34 c -0.95,-0.07 -1.88,0.47 -2.56,0.28 0.21,0.02 0.36,-0.01 0.46,-0.09 0.06,-0.28 -0.25,-0.18 -0.18,-0.46 0.54,-0.50 0.86,-0.06 1.18,-0.75 -0.31,-0.50 -0.99,0.20 -1.18,-0.18 0.46,0.09 0.46,-0.29 0.84,-0.28 0.02,-0.18 -0.12,-0.18 -0.18,-0.28 0.44,-0.17 1.26,-0.51 1.62,-0.87 l 0,-0.59 c -0.09,-0.07 -0.24,-0.15 -0.43,-0.21 0.02,0.43 -0.77,0.50 -1,0.37 0.67,-0.20 0.93,-0.64 1.43,-1.25 l 0,-0.25 c -0.14,0.00 -0.37,0.07 -0.34,-0.09 0.10,-0.04 0.23,-0.03 0.34,-0.06 L 48,40 C 47.60,39.86 47.09,40.37 46.84,40.18 47.17,40.10 47.29,39.79 47,39.53 c -0.28,0.21 -0.64,0.32 -0.90,0.56 -0.00,-0.65 0.67,-0.61 0.81,-1.12 0.25,0.08 0.16,0.42 0.37,0.09 -0.17,-0.08 -0.36,-0.43 -0.37,-1.03 0.44,-0.17 0.71,-0.53 0.93,-0.93 -0.06,-0.18 -0.52,0.02 -0.56,-0.18 0.25,-0.21 0.16,-0.42 -0.09,-0.56 0.17,-0.19 0.78,0.02 0.75,-0.37 C 47.42,35.33 46.76,36.14 46.37,36.06 46.90,35.51 47.32,34.90 48,34.5 l 0,-0.87 c -0.73,-0.07 -1.27,0.34 -1.71,0.21 0.29,-0.07 0.54,-0.17 0.62,-0.46 -0.37,-0.18 -0.92,0.13 -1.09,0.46 -0.51,-0.54 -1.49,0.31 -1.87,0.18 0.66,-0.63 1.89,-0.73 2.71,-1.21 0.12,-0.40 -0.44,-0.11 -0.37,-0.46 C 46.75,32.05 47.31,31.88 48,31.81 l 0,-0.59 c -2.31,0.00 -3.84,1.44 -5.46,2.34 -0.29,-0.15 0.19,-0.29 0.18,-0.46 -0.30,-0.05 -0.43,0.06 -0.65,0.09 0.10,-0.53 -0.30,-1.02 -0.09,-1.5 0.37,-0.82 4.21,-1.16 6.03,-1.12 l 0,-1.15 C 47.56,29.25 47.38,28.82 47.09,28.62 46.55,28.25 45.54,28.28 44.87,27.87 44.70,27.77 44.74,27.57 44.59,27.5 43.78,27.11 42.79,27.07 42.06,26.56 c 0.47,-0.04 0.91,0.45 1.21,0.28 -0.60,-0.38 -1.56,-0.40 -2.21,-0.75 0.37,-0.46 -1.00,-0.63 -1.40,-0.93 0.04,-0.23 0.13,-0.43 0.28,-0.56 2.64,1.29 5.24,2.65 8.06,3.78 l 0,-1.93 C 47.34,26.27 46.71,26.80 46.09,26.75 45.59,26.70 45.35,26.15 44.87,26 c -0.74,-0.24 -1.10,0.20 -1.78,-0.09 0.11,-0.37 0.80,-0.08 1.40,-0.18 0.37,-0.06 0.97,-0.48 1.5,-0.56 0.47,-0.07 1.91,0.06 1.37,-0.84 -0.15,-0.26 -0.75,-0.25 -1.18,-0.09 0.06,-0.46 1.07,-0.27 1.37,-0.46 0.56,-0.36 0.14,-1.39 -0.18,-2.12 -0.01,-0.43 0.33,0.09 0.46,-0.18 C 47.88,20.27 46.83,20.22 46,19.93 46.27,19.55 45.64,19.23 45.62,19 c 0.86,-0.08 0.90,0.62 1.56,0.75 0.18,-0.82 -1.12,-1.06 -1.84,-1.5 -0.03,-0.02 0.03,-0.26 0,-0.28 -0.41,-0.19 -0.95,-0.04 -1.31,-0.34 -0.05,-0.04 0.03,-0.30 0,-0.37 -0.40,-0.76 -1.52,-0.51 -1.96,-1.12 0.34,-0.06 0.40,0.15 0.75,0.09 -0.28,-0.96 -1.65,-0.56 -2.12,-0.46 -2.64,0.52 -5.73,2.76 -8.5,3.90 -0.41,0.17 -0.99,0.55 -1.12,0.56 -0.88,0.03 -1.54,-1.06 -2.5,-1.21 1.84,-0.77 0.29,-3.64 -1.5,-2.21 0.52,-1.36 1.77,-0.87 2.90,-0.37 -0.05,1.27 0.83,2.24 0.09,3.15 0.92,-0.30 0.44,-3.01 -0.37,-3.53 0.01,-1.31 -1.25,-2.13 -0.65,-3.43 1.06,-0.33 2.12,0.41 2.87,-0.28 -0.78,-0.32 -1.32,-0.51 -2.12,-0.37 -0.39,0.06 -0.89,0.50 -1.21,0.46 C 27.96,12.33 27.55,11.34 27.06,11 26.95,10.92 26.70,11.05 26.59,11 26.21,10.81 26.17,10.20 25.65,10.25 25.95,9.43 26.72,9.60 27.81,9.40 28.55,9.26 28.87,8.46 29.59,8.56 28.28,7.08 26.00,8.75 23.90,8.46 23.96,8.33 23.98,8.22 24,8.09 z m 3.53,37.68 c -0.15,0.18 -0.22,0.35 0.09,0.53 0.20,-0.19 -0.12,-0.24 -0.09,-0.53 z M 21,7.43 C 21.22,7.99 22.39,8.11 22.96,8 22.45,7.67 21.43,7.84 21,7.43 z m 3.75,2.12 c 0.05,-0.01 0.09,3.50e-4 0.15,0 0.16,-9.36e-4 0.33,0.05 0.56,0.21 -1.17,1.31 -2.67,2.27 -4.09,3.34 0.44,-0.82 1.71,-1.63 2.43,-2.5 0.32,-0.39 0.56,-0.93 0.93,-1.06 z m 0.71,0.84 c 0.08,-0.00 0.16,0.00 0.28,0.03 0.18,0.03 0.39,0.59 0.75,0.75 0.11,0.05 0.36,-0.07 0.46,0 0.47,0.35 0.67,1.18 1.31,1.31 -0.78,0.51 -2.05,0.54 -2.90,1 0.07,-0.85 0.36,-1.48 0.65,-2.12 -0.64,0.22 -0.91,0.80 -0.93,1.65 -0.44,-0.70 0.21,-1.61 0.46,-2.21 -0.57,0.25 -1.50,1.83 -0.75,2.87 -0.13,0.36 -0.71,0.25 -1.09,0.37 -0.25,-0.88 0.68,-1.79 0.90,-2.5 0.16,-0.50 0.23,-1.12 0.84,-1.15 z m -8,1.25 c 0.29,0.49 0.34,0.90 0.56,1.37 0.31,0.69 0.96,1.04 1.09,1.87 0.11,0.75 0.46,1.64 0.75,2.62 -0.31,-0.24 -0.35,-0.76 -0.93,-0.75 -0.34,-1.74 -1.28,-2.85 -1.75,-4.46 -0.21,0.27 0.00,0.89 0.09,1.18 -0.20,0.14 -0.46,-0.47 -0.75,-0.56 0.45,1.03 1.81,2.01 2.06,3.56 -0.55,-0.28 -0.94,-0.75 -1.21,-1.31 0.35,0.14 0.39,0.60 0.75,0.75 -0.22,-0.67 -0.66,-1.15 -1.31,-1.40 0.09,1.49 1.83,2.14 2.78,3.09 -2.10,0.62 -2.87,-1.72 -4.75,-1.03 -0.18,-0.12 -0.36,-0.26 -0.28,-0.65 0.21,0.18 0.64,0.28 0.84,0 -0.75,-0.44 -1.43,-1.57 -0.84,-2.81 0.46,-0.96 2.15,-1.04 2.90,-1.46 z M 28.75,12.84 c -0.48,0.97 0.63,1.97 0.84,3.09 -0.46,0.28 -0.60,-0.33 -1.03,-0.37 -0.96,-0.10 -2.20,0.83 -2.43,1.68 -0.21,0.00 -0.27,-0.16 -0.56,-0.09 0.26,-0.40 -0.32,-0.79 -0.28,-1.12 0.10,-0.72 1.28,-0.83 1.78,-1.40 0.51,-0.58 0.70,-1.66 1.68,-1.78 z m -6.71,0.18 c -0.73,0.48 0.43,2.36 -0.75,2.43 0.02,-0.64 -0.31,-0.93 -0.46,-1.40 -0.02,-0.29 0.27,0.23 0.28,-0.09 0.14,0.13 0.23,0.32 0.28,0.56 0.22,-0.20 0.02,-0.76 -0.09,-0.93 0.25,0.06 0.32,-0.52 0.75,-0.56 z m 4.75,1.03 c -0.09,0.31 -0.69,0.93 -1.21,1.12 0.12,-0.64 0.83,-0.73 1.21,-1.12 z m 0.93,0.84 c -0.79,0.49 -1.93,-0.00 -2.25,1.21 0.56,-0.41 1.77,-0.41 2.25,-1.21 z M 19.5,15 c 0.44,-0.01 0.79,0.89 1.5,0.93 -0.24,0.41 -0.71,0.60 -0.84,1.12 C 19.80,16.51 19.84,15.55 19.5,15 z m 5.5,0.46 c -0.28,0.47 -0.72,1.13 -0.18,1.68 -0.28,0.22 -0.90,0.04 -1.25,0 0.40,0.29 1.10,0.44 1.71,0.18 -0.28,0.59 -1.17,0.06 -1.84,0.18 -0.13,-0.29 -0.35,-0.52 -0.28,-1.03 -0.49,0.60 0.28,1.43 1.21,1.21 0.11,0.57 -0.55,1.19 -0.18,1.75 -0.28,0.12 -0.52,-0.60 -0.84,-0.75 0.07,-0.23 0.32,0.26 0.46,0 -0.40,-0.90 -1.17,-1.42 -2.06,-1.84 0.37,-0.30 0.73,-0.64 1.12,-0.93 0.27,0.08 0.10,0.14 0.09,0.37 0.28,0.09 0.16,-0.20 0.18,-0.37 C 24.06,16.06 24.47,15.72 25,15.46 z M 23.53,16.12 c -0.42,0.34 -0.33,0.73 0,1 -0.00,-0.50 -0.11,-0.70 0,-1 z m 19.37,0 c 0.10,0.32 0.51,0.36 0.75,0.56 -0.02,-0.41 -0.37,-0.50 -0.75,-0.56 z M 14.93,16.68 c 0.79,0.56 1.70,0.47 2.43,1.03 -1.14,0.56 -1.89,-0.25 -2.43,-1.03 z M 25.65,17.25 c -0.02,0.00 0.86,0.19 0.84,0.18 0.06,0.02 0.12,0.05 0.18,0.09 0.00,-0.00 0.02,0.00 0.03,0 0.98,-0.68 2.44,0.67 1.28,1.28 -0.05,-0.16 0.11,-0.55 -0.09,-0.56 -0.40,0.64 -0.71,1.41 -1.31,1.87 -0.11,-0.39 0.56,-0.81 0.56,-1.40 -0.38,-0.10 -0.48,1.38 -0.93,1.21 -0.31,0.09 -0.14,-0.29 -0.18,-0.46 -0.15,0.12 -0.14,0.41 -0.28,0.56 -0.21,-0.12 -0.47,-0.21 -0.37,-0.65 0.17,-0.17 0.17,0.05 0.46,0 0.06,-0.31 -0.15,-0.34 -0.37,-0.37 0.11,-0.32 0.46,-0.77 0.18,-1.18 -0.08,0.56 -0.30,0.97 -0.37,1.56 -0.80,-0.29 -0.20,-1.94 0.37,-2.12 z m 1.06,0.28 c 0.37,0.21 0.74,0.55 1,0.71 -0.04,-0.53 -0.60,-0.53 -1,-0.71 z M 17.93,17.68 c 1.00,0.00 2.38,0.49 3.15,0.75 -0.21,0.99 0.86,0.70 0.75,1.59 -0.91,0.30 -1.11,-0.38 -1.5,-0.84 -0.37,0.23 0.21,0.91 0.56,1.03 -0.17,0.35 -0.61,0.45 -0.65,0.93 -0.40,-0.18 -0.86,-0.32 -1.5,-0.28 0.54,0.41 1.64,0.29 1.40,1.5 -0.15,-0.02 -0.16,0.08 -0.28,0.09 -0.34,-0.01 -0.23,-0.13 -0.18,-0.37 -0.93,-0.18 -1.47,-0.75 -2.59,-0.75 -0.29,-1.22 -1.20,-1.86 -1.96,-2.62 -1.87e-4,-0.31 0.30,-0.32 0.28,-0.65 0.55,0.83 1.38,-0.27 2.34,-0.34 0.06,-0.00 0.12,-0.03 0.18,-0.03 z m 6.84,0.18 c 0.04,-0.00 0.07,-0.00 0.12,0 -0.00,0.30 -0.12,0.50 -0.37,0.56 -0.18,-0.21 -0.04,-0.53 0.25,-0.56 z M 42.87,17.96 c 0.41,-0.01 0.57,0.01 -0.25,0.09 -0.29,0.02 -0.47,0.15 -1.03,0.09 0.17,-0.11 0.86,-0.17 1.28,-0.18 z m -16.46,0.31 c -0.09,0.27 -0.43,0.78 -0.28,1 0.05,-0.31 0.59,-0.62 0.28,-1 z m -3.78,0.43 c 0.04,-0.00 0.11,-0.01 0.15,0 1.12,0.25 1.60,2.48 3.06,2.53 -0.24,0.02 -0.80,0.23 -1.03,0.18 -0.58,-0.13 -0.72,-1.03 -1.18,-1.40 -0.72,-0.58 -1.75,-0.41 -2.15,-1.12 0.36,0.13 0.80,-0.16 1.15,-0.18 z m 17.31,0 c -0.59,0.39 -1.42,0.57 -2.06,0.93 0.15,-0.46 1.29,-0.76 2.06,-0.93 z m 1.12,0 c -0.03,0.40 -0.61,0.25 -0.93,0.37 -0.98,0.35 -1.97,1.18 -3.09,1.40 1.11,-0.80 2.55,-1.32 4.03,-1.78 z m -16.78,0.18 0.25,0 c -0.05,0.41 0.49,0.56 0.18,0.93 -0.18,-0.24 -0.65,-0.57 -0.43,-0.93 z M 27.81,19 c 0.01,-0.00 0.04,4e-4 0.06,0 0.32,-0.00 0.99,0.52 1.43,0.75 1.66,0.86 5.43,2.59 6.96,3.37 0.49,0.25 0.74,0.10 1.21,0.37 0.04,0.02 0.07,0.24 0.09,0.25 0.17,0.05 0.81,-0.20 0.46,0.28 0.55,-0.19 0.92,0.22 1.40,0.37 -0.21,0.94 -0.85,0.22 -1.21,0.46 -0.98,-0.53 -1.88,-1.11 -2.96,-1.56 -0.22,0.19 0.48,0.22 0.56,0.43 -0.15,-0.05 -1.05,-0.37 -1.31,-0.71 -0.02,-0.02 0.14,-0.14 0.09,-0.18 -0.29,-0.23 -0.78,-0.48 -1.21,-0.65 -1.40,-0.55 -2.98,-1.42 -4.09,-1.87 0.27,0.37 0.67,0.61 1.09,0.84 -1.05,0.06 -1.92,-1.65 -2.87,-1.40 -0.15,0.04 0.15,0.40 0.28,0.46 -0.79,0.13 -0.46,-1.08 0,-1.21 z m 13.87,0.09 c -0.24,0.51 -0.54,0.31 -0.90,0.46 -1.12,0.47 -2.44,1.43 -3.75,2.15 -0.84,0.46 -1.21,1.04 -2.03,0.37 2.15,-1.07 4.15,-2.30 6.68,-3 z m 1.84,0.18 c 0.19,-9.3e-5 0.44,0.04 0.59,0 0.11,0.03 -0.80,0.31 -0.84,0.18 -0.01,-0.16 0.10,-0.18 0.25,-0.18 z m -1.87,0.40 c 0.09,0.00 0.21,0.01 0.40,0.06 -0.28,0.21 -0.59,0.37 -0.90,0.56 -0.14,0.02 0.25,-0.43 0.25,-0.53 0.08,-0.04 0.14,-0.09 0.25,-0.09 z m -25.87,0.06 c 0.11,0.04 0.19,0.12 0.18,0.28 C 15.15,20.71 13.13,21.25 14,22.43 13.35,21.71 12.48,22.35 11.59,23.12 10.04,24.46 8.37,26.33 8.03,28.53 7.74,28.46 7.78,28.69 7.5,28.62 8.46,23.87 12.55,22.23 15.78,19.75 z m 9.31,0 c 0.11,0.50 0.75,0.79 1.21,0.65 0.10,0.35 0.22,0.71 0.46,0.93 -0.02,0.24 -0.16,-0.12 -0.37,0 0.10,0.32 0.63,0.24 0.65,0.65 -0.89,-0.59 -1.71,-1.25 -2.59,-1.87 0.26,-0.07 0.39,-0.25 0.62,-0.37 z m 16.06,0.09 c -0.17,0.20 -0.47,0.22 -0.28,0.56 -0.54,0.01 -0.85,0.27 -1.31,0.37 0.35,-0.48 0.96,-0.72 1.59,-0.93 z M 16.06,20.12 c 0.24,0.03 0.31,0.24 0.37,0.46 -0.81,0.49 -1.49,1.13 -2.34,1.59 0.01,-0.16 -0.11,-0.20 -0.09,-0.37 0.66,0.14 2.02,-0.89 2.06,-1.68 z m 10.43,0.09 0.37,0 c 0.13,0.23 0.33,0.91 0.28,1.03 C 26.77,21.06 26.60,20.67 26.5,20.21 z m 9.87,0.18 c -0.71,0.46 -1.38,1.35 -2.31,1.31 0.59,-0.61 1.55,-0.85 2.31,-1.31 z m -8.25,0.37 c 0.11,0.00 0.25,0.02 0.43,0.09 -0.07,0.45 -0.72,0.34 -1.21,0.37 0.32,-0.26 0.43,-0.48 0.78,-0.46 z M 16.53,21.06 c -0.22,0.41 0.12,0.71 0.09,1.21 0.41,0.04 0.46,-0.12 0.75,0 0.02,0.51 -0.55,0.44 -0.65,0.84 0.20,0.14 0.51,-0.41 0.93,-0.37 0.48,1.08 -1.94,1.96 -0.65,2.68 -0.40,0.06 -0.78,0.15 -1.03,0.37 -0.17,-0.09 0.23,-0.37 0.28,-0.56 -0.20,-0.22 -0.46,0.66 -0.75,0.37 -0.02,-0.43 -0.15,-0.78 -0.37,-1.03 0.24,-0.71 1.11,-0.80 1.5,-1.37 -0.51,-0.01 -1.04,0.74 -1.68,0.90 -0.10,-0.54 -0.29,-0.98 -0.56,-1.37 0.66,-0.60 1.37,-1.19 2.15,-1.68 z m 12.37,0.09 c 0.20,0.00 0.45,0.09 0.59,0.18 -0.16,0.50 -0.64,0.13 -1.03,0.09 0.07,-0.19 0.23,-0.28 0.43,-0.28 z M 23.06,21.37 c 0.56,-0.02 1.30,0.20 2.03,0.25 -0.03,0.12 -0.16,0.14 -0.18,0.28 1.01,-1.15 2.91,0.78 1.78,1.68 -0.05,-0.33 0.03,-0.52 0.28,-0.56 -0.38,-0.12 -0.56,-0.42 -0.84,-0.84 -0.25,0.35 0.47,0.51 0.37,1.03 -0.21,0.02 -0.35,0.14 -0.65,0.09 -0.10,-0.26 -0.13,-0.62 -0.37,-0.75 -0.25,0.22 0.31,0.42 0.28,0.75 -0.28,-0.06 -0.34,0.09 -0.56,0.09 0.00,-0.34 -0.15,-0.53 -0.37,-0.65 -0.23,0.32 0.36,0.43 0.28,0.90 -0.15,-0.00 -0.24,0.07 -0.28,0.18 -0.54,-1.00 -1.70,-0.69 -2.68,-1.18 -0.00,-0.97 0.37,-1.25 0.93,-1.28 z m 6.81,0.06 c -0.15,0.18 -0.25,0.43 -0.56,0.46 0.05,-0.28 0.21,-0.47 0.56,-0.46 z m -2.31,0.03 c 0.33,0.01 0.62,0.25 0.90,0.43 -0.31,0.12 -0.90,-0.28 -1.40,-0.28 0.17,-0.10 0.34,-0.16 0.5,-0.15 z m 2.5,0.15 c 1.34,0.61 2.85,1.03 3.71,2.12 -0.57,0.16 -1.26,-0.37 -1.87,-0.71 C 31.23,22.65 30.58,22.32 29.96,22 29.95,21.83 30.08,21.80 30.06,21.62 z M 17.75,21.68 c 0.48,0.00 1.04,0.41 1.46,0.59 -0.58,0.64 -0.43,1.62 -1.28,2.12 -0.04,-0.35 0.50,-0.89 0.46,-1.56 -0.49,-0.15 -0.56,-0.75 -0.84,-1.12 0.06,-0.01 0.11,-0.03 0.18,-0.03 z M 28.56,22 c 0.02,-0.00 0.04,3e-4 0.06,0 0.30,-0.00 0.41,0.35 0.21,0.56 C 28.69,22.43 28.60,22.23 28.56,22 z M 27.25,22.06 c 0.36,0.01 0.41,0.35 0.37,0.78 -0.31,-0.11 -0.58,-0.29 -0.56,-0.75 0.06,-0.01 0.13,-0.03 0.18,-0.03 z m 0.53,0 c 0.69,-0.02 0.96,1.00 1.15,1.68 -0.74,0.00 -0.97,0.22 -1.5,0.28 0.87,0.76 2.23,-0.41 2.96,0.37 -0.32,1.62 1.04,2.22 0.84,3.65 -0.71,-0.28 -1.06,-1.33 -1.93,-1.87 -0.65,-0.40 -1.79,-0.57 -2.71,-0.84 -0.99,-0.28 -1.95,-0.72 -2.78,-0.65 -0.21,0.01 -0.44,0.07 -0.68,0.15 -0.71,0.24 -1.51,0.73 -2.21,1.06 -1.57,0.72 -3.46,1.15 -3.06,3.81 -0.43,-0.16 -0.41,-0.65 -0.65,-1.18 -0.17,-0.39 -0.69,-0.91 -0.56,-1.31 0.17,-0.53 2.55,-1.05 3.62,-1.40 0.65,-0.21 1.29,-0.44 1.87,-0.65 0.35,-0.12 0.67,-0.20 1,-0.31 0.56,-0.18 1.09,-0.40 1.34,-0.81 0.67,0.41 2.07,-0.02 2.68,0.28 0.17,-0.81 0.93,-1.37 0.46,-2.21 0.05,-0.01 0.10,-0.02 0.15,-0.03 z m 11.12,0.03 c -0.31,0.39 -1.01,0.42 -1.21,0.93 0.16,0.19 0.58,-0.16 0.75,-0.28 0.07,0.27 -0.92,0.80 -1.31,0.37 0.50,-0.43 1.09,-0.78 1.78,-1.03 z m -25.75,0.09 c 0.84,0.63 -0.58,1.23 -1.18,1.75 -0.76,0.64 -1.30,1.28 -1.68,1.68 0.01,0.23 0.17,0.32 0.28,0.46 -0.99,-0.22 -1.22,0.90 -1.59,1.59 0.34,0.09 0.15,-0.35 0.46,-0.28 0.00,0.30 0.40,0.22 0.37,0.56 -0.22,-0.08 -0.40,-0.21 -0.75,-0.18 -0.19,0.02 -0.02,0.41 -0.18,0.46 -0.26,-0.07 -0.24,0.13 -0.46,0.09 0.08,-3.19 3.74,-3.96 4.5,-5.59 -0.25,0.11 -0.55,0.19 -0.75,0.37 -0.05,-0.33 0.77,-0.57 1,-0.93 z M 29.12,22.40 c 0.06,-1.04e-4 0.09,0.20 -0.09,0.62 -0.10,-0.37 0.01,-0.62 0.09,-0.62 z m -8.90,0.18 c 0.74,0.00 1.20,0.76 1.71,0.81 0.45,0.04 0.54,-0.41 1.03,-0.28 -1.59,0.79 -3.48,1.28 -5.21,1.93 0.45,-1.06 1.61,-1.39 2.12,-2.40 0.11,-0.03 0.23,-0.06 0.34,-0.06 z m 9.75,0.15 c 1.44,0.23 2.27,1.04 3.43,1.56 -0.15,0.59 -0.54,0.95 -0.65,1.59 -0.76,-0.20 -1.05,-0.89 -1.96,-0.93 -0.02,-0.75 -0.40,-1.12 -1.18,-1.12 0.06,-0.43 0.30,-0.66 0.37,-1.09 z m 14.12,0.15 c 0.10,-7.19e-4 0.20,0.02 0.31,0.03 -0.65,0.38 -1.40,1.02 -2.15,1.46 -0.38,0.22 -1.02,0.50 -1.37,0.37 0.39,-0.40 0.99,-0.60 1.46,-0.93 -0.75,-0.31 -1.53,0.75 -2.40,0.56 1.03,-0.78 2.55,-1.48 4.15,-1.5 z m 2.37,0.25 c 0.27,0.00 0.54,0.06 0.81,0.15 -1.98,-0.18 -2.30,1.21 -4.18,0.90 0.93,-0.35 2.16,-1.06 3.37,-1.06 z m -23.06,0.15 c 0.24,-0.00 0.42,0.13 0.5,0.62 -1.37,0.68 -2.14,0.82 -3.65,1.31 -0.81,0.26 -1.74,0.65 -2.5,0.84 -0.13,0.03 0.01,-0.18 0,-0.18 -0.81,0.00 -1.36,0.66 -1.93,0.96 0.04,-0.00 0.07,0.04 0.06,0.15 -0.38,0.10 -0.70,0.30 -1.03,0.46 -0.29,0.08 -0.12,-0.30 -0.37,-0.28 -0.07,0.51 -0.77,0.38 -1,0.75 -0.28,-0.09 0.10,-0.25 0.09,-0.37 -0.13,0.08 -0.36,0.07 -0.28,0.37 -0.48,0.03 -1.11,0.26 -1.68,0.46 -0.00,-0.31 0.43,-0.19 0.56,-0.37 -0.16,-0.19 -0.49,0.25 -0.84,0.18 0.06,0.09 0.21,0.09 0.18,0.28 -0.76,0.21 -1.75,0.37 -2.53,0.81 0.16,-0.23 0.46,-0.32 0.75,-0.43 C 9.49,28.86 8.87,29.04 8.87,29.09 8.58,29.13 8.80,28.66 8.59,28.62 c 4.27,-1.51 8.79,-3.30 13.34,-4.78 0.59,-0.19 1.10,-0.52 1.46,-0.53 z M 15.81,26.87 c -0.18,0.10 -0.38,0.16 -0.59,0.15 0.10,0.26 0.44,-0.13 0.59,-0.15 z M 27.25,23.31 c 0.13,0.10 -0.08,0.62 -0.37,0.62 -0.03,-0.37 0.31,-0.34 0.37,-0.62 z m 12.12,0 c 0.01,0.70 -0.68,0.55 -1.12,0.34 0.18,-0.30 0.82,-0.14 1.12,-0.34 z m -26.03,0.09 c 0.14,0.64 0.42,1.16 0.28,1.75 -0.08,0.34 -0.87,0.86 -1.18,1.40 -0.22,0.39 -0.45,0.75 -1.03,0.75 -0.13,-0.52 -0.78,-0.91 -0.75,-1.31 0.05,-0.73 2.36,-1.96 2.68,-2.59 z m 1.03,0 c 0.35,0.67 1.06,1.95 0.93,2.5 -0.29,-0.85 -0.78,-1.50 -0.93,-2.5 z m 9.68,0 c 0.02,-0.01 0.06,-9e-4 0.09,0 0.18,0.00 0.40,0.23 0.21,0.34 -0.29,0.08 -0.19,-0.21 -0.37,-0.25 0.01,-0.03 0.03,-0.07 0.06,-0.09 z M 17.93,23.5 c 0.09,0.52 -0.45,1.20 -1.12,1.28 0.27,-0.53 0.79,-0.80 1.12,-1.28 z m 7.81,0 c 0.16,0.08 0.20,0.26 0.18,0.53 -0.37,0.09 -0.41,-0.14 -0.56,-0.28 0.02,-0.19 0.41,0.00 0.37,-0.25 z m 8.56,0 c 0.06,0.00 0.14,0.04 0.21,0.09 -0.28,0.14 -0.37,0.46 -0.75,0.53 0.07,-0.25 0.25,-0.63 0.53,-0.62 z M 7.03,23.93 c 0.22,0.05 0.48,0.08 0.46,0.37 -0.29,-0.04 -0.36,0.20 -0.56,0 -0.01,-0.16 0.11,-0.19 0.09,-0.37 z m 27.65,0.12 c 0.05,-0.01 0.09,-3.13e-4 0.15,0 0.75,0.00 1.93,0.92 1.15,1.37 -0.59,-0.30 -0.98,-0.79 -1.65,-1.03 0.05,-0.19 0.17,-0.30 0.34,-0.34 z m 1.03,0.15 c 0.01,-0.00 0.04,0.00 0.06,0 0.33,-0.02 1.35,0.49 1.81,0.75 -0.50,0.14 -0.70,0.29 -1.31,0.46 0.06,-0.21 0.31,-0.25 0.37,-0.46 -0.13,-0.42 -0.58,-0.54 -0.93,-0.75 z m 8.12,0.09 c -0.48,0.72 -1.69,0.59 -2.34,0.84 0.59,-0.46 1.58,-0.54 2.34,-0.84 z m -26.56,0.46 c 0.28,0.17 -0.26,0.28 -0.46,0.28 -0.14,-0.39 0.48,-0.01 0.46,-0.28 z m 28.15,0 c 0.18,0.00 0.36,0.01 0.46,0.09 -0.77,0.09 -1.35,0.57 -2.25,0.28 0.39,-0.15 1.21,-0.38 1.78,-0.37 z m -11.37,0.18 c 1.21,0.26 2.10,1.07 1.21,2.25 -0.73,-0.16 -1.08,-0.73 -1.78,-0.93 0.16,-0.45 0.42,-0.82 0.56,-1.31 z m -19.78,0.18 c 0.11,0.31 0.20,0.67 0.37,0.93 -0.63,0.38 -1.42,0.61 -2.21,0.84 0.57,-0.63 0.97,-1.43 1.84,-1.78 z m 16.5,0 c 0.73,0.19 1.14,0.73 1.78,1.03 -0.32,0.29 -0.95,0.29 -1.5,0.37 -0.22,-0.33 -0.14,-0.98 -0.28,-1.40 z m 7.25,0.15 c 0.25,0.00 0.59,0.29 0.68,0.5 -0.39,-0.03 -0.46,-0.41 -0.84,-0.46 0.05,-0.03 0.09,-0.03 0.15,-0.03 z M 14.56,25.34 c 0.31,0.16 0.42,0.18 0.56,0.65 -0.08,0.07 -0.21,0.10 -0.37,0.09 0.06,-0.37 -0.24,-0.37 -0.18,-0.75 z m 22.46,0 c 0.65,0.48 1.24,0.68 1.12,1.78 -0.54,-0.51 -1.75,-0.89 -1.12,-1.78 z m 2.62,0 c 0.21,0.09 0.59,0.03 0.56,0.37 -0.15,-0.15 -0.58,-0.03 -0.56,-0.37 z m -2.03,0.06 c 0.31,0.01 0.69,0.45 0.90,0.68 C 38.01,26.04 37.86,25.63 37.5,25.43 c 0.04,-0.01 0.08,-0.03 0.12,-0.03 z m -4.5,0.03 c 0.15,0.22 -0.08,0.84 -0.37,0.93 0.07,-0.35 0.27,-0.59 0.37,-0.93 z m 12.90,0.21 C 45.82,25.65 45.64,25.74 45.62,26 c 0.31,-0.09 1.01,0.20 1.03,-0.18 -0.16,-0.07 -0.41,-0.15 -0.62,-0.15 z M 36.18,25.81 c -0.12,0.18 -0.17,0.44 -0.28,0.65 -0.20,-0.15 0.07,-0.60 0.28,-0.65 z M 41.59,26 c -0.11,0.00 -0.23,0.03 -0.28,0.09 0.30,0.04 0.50,0.18 0.84,0.18 C 42.14,26.09 41.84,25.98 41.59,26 z m -8.78,0.53 c 0.77,0.00 1.48,0.23 2,0.78 0.01,0.33 -0.43,0.18 -0.37,0.56 0.01,0.12 0.14,0.11 0.25,0.06 -0.56,0.45 -2.79,0.22 -3.25,0.5 0.39,-0.35 1.12,-0.38 1.87,-0.37 -0.34,-0.51 -1.39,0.14 -1.78,-0.09 0.09,-0.56 -0.13,-0.80 -0.18,-1.21 0.51,-0.14 1.00,-0.22 1.46,-0.21 z m -27,0.03 c -0.14,0.22 -0.40,0.35 -0.75,0.37 0.04,-0.32 0.50,-0.24 0.75,-0.37 z M 36.75,26.75 c 0.73,0.57 2.22,1.72 2.71,2.68 0.03,0.06 0.27,0.83 0.28,0.75 -0.02,0.59 -0.75,0.77 -0.75,1.5 -0.95,-1.09 -1.71,-2.38 -2.81,-3.34 0.16,-0.54 0.32,-1.12 0.56,-1.59 z m 3,0 c 0.26,0.41 0.62,0.75 0.84,1.21 C 40.26,28.03 39.68,27.08 39.75,26.75 z M 7.78,26.84 C 7.59,27.24 7.44,27.69 6.84,27.68 6.89,27.49 7.64,27.19 7.12,27.03 7.26,26.89 7.53,26.88 7.78,26.84 z m 2.68,0.09 c 0.11,0.23 0.37,0.31 0.37,0.65 -0.29,-0.04 -0.25,-0.42 -0.37,-0.65 z m 28.81,0 c 0.40,0.21 0.48,0.76 0.84,1.03 -0.09,0.28 -0.25,-0.10 -0.37,-0.09 0.11,0.65 1.15,1.46 0.46,2.03 -0.50,-0.98 -1.19,-1.78 -1.87,-2.59 0.41,0.20 1.08,0.16 1.31,0.56 0.00,-0.44 -0.36,-0.51 -0.37,-0.93 z M 9.81,27.03 c 0.14,0.25 0.38,0.43 0.46,0.75 -0.46,0.00 -0.79,-0.50 -0.46,-0.75 z m 25.71,0 c 0.04,0.35 -0.32,1.08 -0.62,1.40 0.15,-0.52 0.41,-0.92 0.62,-1.40 z m -19.68,0.28 c 0.06,-0.01 0.13,-0.00 0.21,0 -0.02,0.45 0.28,0.59 0.28,1.03 -0.55,0.02 -0.45,-0.60 -0.65,-0.93 0.04,-0.03 0.09,-0.07 0.15,-0.09 z m -1.06,0.34 c 0.36,-0.01 0.64,0.20 0.62,0.78 -0.78,-0.07 -1.29,0.14 -2.06,0.09 0.18,-0.36 0.90,-0.85 1.43,-0.87 z m 1.65,0.12 c 0.18,0.12 0.31,0.30 0.37,0.56 -0.29,-0.01 -0.41,-0.21 -0.37,-0.56 z M 4.37,27.96 c 0.09,-0.01 0.20,0.00 0.31,0 -0.16,0.27 -0.52,0.35 -0.93,0.37 0.09,-0.22 0.33,-0.34 0.62,-0.37 z m 8.96,0.09 c 0.12,0.42 -0.85,0.75 -1.37,0.56 0.38,-0.27 0.99,-0.29 1.37,-0.56 z m 22.37,0.28 c 0.44,0.44 1.74,1.24 2.15,2.12 0.05,0.11 -0.06,0.34 0,0.46 0.53,0.95 1.02,0.73 0.37,2.06 -0.38,0.78 -0.86,1.44 -2.15,1.12 -0.36,-0.91 -0.94,-1.59 -1.65,-2.15 0.27,-1.36 0.87,-2.38 1.28,-3.62 z M 17,28.53 c 0.09,0.40 0.23,0.73 0.46,1 -0.01,0.26 -0.64,-0.07 -0.65,0.18 0.15,0.29 0.65,-0.10 0.75,0.09 -0.97,0.49 -2.74,0.48 -4.21,0.65 -0.53,0.06 -0.96,0.25 -1.28,0.18 -0.72,-0.15 -0.82,-0.91 -1.21,-1.37 1.52,-0.64 3.96,-0.54 6.15,-0.75 z m 17.81,0 c 0.07,0.97 -0.95,2.51 -1.40,3.53 -0.23,-0.50 0.46,-1.17 0.75,-1.87 0.24,-0.60 0.27,-1.12 0.65,-1.65 z m 5.84,0 c 0.06,-0.01 0.13,-0.00 0.21,0 0.84,1.72 1.11,4.40 0.62,6.68 -8.49,-1.64 -18.82,-0.69 -26.09,1.5 -0.39,0.26 0.38,0.79 -0.09,0.84 -0.46,-0.09 -0.34,-0.46 -0.09,-0.75 -1.09,-0.54 -2.18,-1.32 -3.25,-2.03 -1.02,-0.68 -2.29,-1.28 -2.62,-2.43 0.48,-0.33 0.81,0.18 1.12,0.46 0.77,0.72 2.14,1.99 3.43,2.31 0.24,0.05 0.61,-0.04 0.93,0 0.35,0.04 0.68,0.32 1.03,0.37 0.47,0.06 1.05,-0.14 1.59,-0.09 0.27,0.02 0.61,0.27 0.84,0.28 0.89,0.02 2.44,-0.49 4,-0.71 4.02,-0.57 8.60,-0.87 13.40,-0.65 0.56,0.02 0.95,0.15 1.40,0.09 0.26,-0.03 0.58,-0.26 0.84,-0.28 0.60,-0.03 1.45,0.31 1.87,0.18 1.16,-0.34 1.48,-2.53 1.12,-4.21 -0.37,-0.22 -0.62,0.34 -1.03,0.37 0.82,-0.40 0.85,-1.12 0.56,-1.84 0.04,-0.03 0.09,-0.07 0.15,-0.09 z m -9.03,0.18 0.28,0 C 31.80,29.20 31.45,29.42 31.43,30 31.09,29.53 31.63,29.16 31.62,28.71 z m -21.15,0.37 c 0.69,1.08 1.34,2.19 1.87,3.43 -0.74,-1.02 -1.36,-2.17 -1.87,-3.43 z m 23.68,0 c 0.00,0.57 -0.52,1.38 -0.75,2.03 -0.21,-0.12 -0.36,-0.32 -0.56,-0.46 0.42,-0.53 0.95,-0.95 1.31,-1.56 z M 9.25,29.43 c 0.78,0.46 0.58,1.91 1.03,2.71 C 9.31,32.00 9.74,30.16 9.25,29.43 z m 5.96,0.46 c -0.72,0.21 -1.49,-0.06 -1.96,0.28 0.50,-0.02 1.64,0.18 1.96,-0.28 z M 7.78,30 c 0.66,0.23 0.42,1.35 1,1.68 C 9.00,31.60 8.56,31.40 8.68,31.12 8.79,31.14 8.85,31.10 8.87,31.03 9.18,31.22 9.36,31.54 9.53,31.87 9.42,32.04 8.92,31.82 9.06,32.25 8.36,31.76 8.07,30.88 7.78,30 z m 4.18,0.18 c 0.06,0.44 0.52,-0.06 0.75,0.18 -0.03,-0.15 -0.12,-0.18 -0.21,-0.18 -0.15,0.00 -0.34,0.11 -0.53,0 z m 5.34,0.09 c 0.10,-6.55e-4 0.22,-0.00 0.34,0 -0.23,0.46 -0.00,0.33 0.28,0.65 -0.53,0.20 -1.35,0.15 -1.78,0.46 -0.06,-0.27 0.13,-0.27 0.09,-0.53 -0.47,0.61 -0.39,1.92 -1.68,1.56 0.44,-1.18 1.12,-2.14 2.75,-2.15 z M 8.75,30.34 C 8.85,30.34 8.92,30.43 8.87,30.75 8.14,30.82 8.51,30.33 8.75,30.34 z m 1.53,0.21 c 0.59,0.77 1.02,1.73 1.40,2.71 -1.19,-0.17 -1.48,-1.27 -1.40,-2.71 z m 4.81,0 c 0.16,9.51e-4 0.31,0.01 0.40,0.09 -0.53,0.42 -0.90,1.03 -1.21,1.68 C 13.83,31.91 13.48,31.38 13.25,30.75 c 0.55,0.05 1.33,-0.19 1.84,-0.18 z m 25.59,0 c 0.31,0.76 0.05,2.11 0,2.71 -0.18,-0.47 -0.29,-1.98 0,-2.71 z m -24,0.03 c -0.17,0.03 -0.30,0.12 -0.40,0.25 0.43,0.01 0.77,-0.07 1.09,-0.18 -0.28,-0.09 -0.51,-0.10 -0.68,-0.06 z m 15.40,0.12 c 0.42,-0.01 0.89,0.26 1.12,0.59 0.06,0.34 -0.20,0.36 -0.18,0.65 0.22,0.60 0.75,0.07 1.12,0.18 0.77,0.24 1.20,1.17 1.56,1.87 l -1.84,0 c -0.53,-1.23 -1.62,-1.94 -2.43,-2.90 0.16,-0.27 0.40,-0.39 0.65,-0.40 z m -19.03,0.12 c 0.32,1.10 1.21,1.67 1.5,2.81 -0.81,-0.67 -1.13,-1.83 -1.75,-2.71 0.01,-0.10 0.14,-0.07 0.25,-0.09 z m 26.5,0 c 0.01,-0.00 0.01,10e-5 0.03,0 0.10,-9.62e-4 0.14,0.08 0.15,0.18 -0.78,0.76 -0.86,2.26 -1.78,2.90 0.48,-1.07 1.13,-2.00 1.59,-3.09 z m -31.62,0.56 c 1.60,2.21 4.43,4.02 7,5.59 -0.51,0.44 -1.45,-0.37 -2.03,-0.75 C 11.04,35.04 8.96,33.42 7.93,31.40 z m 23.5,0 c 0.28,0.05 0.47,0.21 0.46,0.56 -0.32,-0.07 -0.39,0.17 -0.56,0 -0.06,-0.28 0.16,-0.27 0.09,-0.56 z m -13.78,0.56 c 0.21,-0.00 0.24,0.03 -0.28,0.09 -0.19,0.02 -0.22,0.12 -0.56,0.09 0.24,-0.14 0.63,-0.18 0.84,-0.18 z m 22.37,0.18 c 0.03,0.54 0.42,1.79 -0.18,1.87 -0.30,-0.69 -0.11,-1.34 0.18,-1.87 z m -7.84,0.06 c 0.11,-0.00 0.20,0.01 0.28,0.12 -0.35,0.26 -0.33,0.39 -0.93,0.46 0.00,-0.21 -0.16,-0.27 -0.09,-0.56 0.31,0.05 0.56,-0.02 0.75,-0.03 z m -23.78,0.31 c -0.13,0.27 -1.14,0.90 -1,0.56 0.44,-0.07 0.45,-0.57 1,-0.56 z m 7.71,0 c 0.28,-0.02 0.54,0.09 0.40,0.37 0.40,0.00 0.84,0.03 1.12,-0.09 -0.56,0.62 -1.59,-0.27 -1.96,0.37 -0.34,-0.38 0.07,-0.63 0.43,-0.65 z m 29.15,0 c 0.04,-0.00 0.10,-0.00 0.15,0 0.13,0.29 -0.53,0.44 -0.46,0.09 0.08,-0.05 0.17,-0.09 0.31,-0.09 z M 12.34,32.62 c 0.50,0.58 0.80,1.36 1.18,2.06 -0.61,-0.46 -0.97,-1.18 -1.18,-2.06 z M 4.87,32.81 C 4.44,32.97 3.83,32.96 3.65,33.37 4.12,33.25 4.67,33.19 4.87,32.81 z m 27.87,0 c 0.06,-3.5e-4 0.12,-0.00 0.18,0 0.09,0.28 -0.20,0.16 -0.37,0.18 0.96,0.20 -0.31,0.25 -0.75,0.37 C 31.68,33.31 31.79,33.01 31.62,33 31.92,32.86 32.31,32.81 32.75,32.81 z M 47.59,33 c -0.24,0.01 -0.52,0.16 -0.5,0.37 0.12,0.09 0.62,0.00 0.84,-0.09 C 47.95,33.06 47.78,32.99 47.59,33 z M 8.12,33.18 C 7.95,33.45 7.78,33.69 7.31,33.65 7.50,33.41 7.84,33.34 8.12,33.18 z m 8.65,0.09 c 0.53,-0.00 1.08,0.09 1.34,0.18 -0.19,0.30 -0.87,0.13 -1.21,0.28 0.22,0.12 0.96,-0.03 1.31,-0.09 -0.81,0.63 -1.94,0.03 -2.90,0.28 0.07,-0.48 0.77,-0.65 1.46,-0.65 z m 22.31,0 c 0.25,0.12 0.28,0.46 0.28,0.84 -0.11,-0.10 -0.33,-0.10 -0.56,-0.09 0.01,-0.32 0.26,-0.42 0.28,-0.75 z m -6.15,0.06 c 0.28,-0.01 0.52,0.07 0.56,0.31 -0.41,-0.07 -0.56,0.12 -0.93,0.09 0.27,0.26 0.67,-0.13 1.12,0 -0.37,0.41 -1.00,0.12 -1.59,0.18 0.00,-0.13 0.01,-0.26 -0.09,-0.28 0.12,-0.11 0.57,-0.29 0.93,-0.31 z m -21.25,0.03 c 0.21,0.06 0.47,0.08 0.65,0.18 -0.10,0.18 -0.77,0.15 -0.65,-0.18 z m 32.25,0 c -0.30,0.66 -1.18,0.75 -1.78,1.12 0.28,-0.67 0.94,-1.00 1.78,-1.12 z m -3.06,0.18 c -0.03,0.43 -0.54,1.18 -0.18,1.40 0.05,-0.37 0.54,-1.22 0.18,-1.40 z M 5.34,33.65 c -0.24,0.40 -0.74,0.56 -1.03,0.93 0.02,0.11 0.18,0.09 0.18,0 0.26,0.15 -0.35,0.20 -0.37,0.37 -0.09,-0.06 -0.09,-0.21 -0.28,-0.18 0.49,-0.37 0.86,-0.89 1.5,-1.12 z M 7.12,33.75 C 7.04,33.95 6.89,34.08 6.56,34.03 6.64,33.83 6.84,33.74 7.12,33.75 z m 5.25,0.09 c 0.18,-0.02 0.35,0.34 0.53,0.37 -0.20,0.25 -0.38,-0.29 -0.65,-0.28 0.04,-0.05 0.08,-0.08 0.12,-0.09 z m 2.68,0 c 0.02,-0.00 0.04,-0.00 0.06,0 0.12,0.86 -0.37,1.12 -1.12,1.12 -0.42,-0.73 0.63,-1.10 1.06,-1.12 z m 0.84,0.09 c 0.08,-0.00 0.16,-0.00 0.25,0 -0.16,0.18 -0.48,0.20 -0.84,0.18 0.12,-0.13 0.34,-0.17 0.59,-0.18 z m 2.40,0.09 c 0.14,0.13 0.46,0.59 0.37,0.65 -0.23,0.00 -0.11,-0.07 -0.09,-0.18 -0.36,0.10 -0.87,0.06 -1.21,0.18 0.21,0.26 0.55,-0.13 0.93,0 -0.32,0.27 -2.47,0.27 -3.28,0.28 -0.03,-0.22 0.17,-0.20 0.09,-0.46 1.05,-0.15 2.28,-0.15 3.18,-0.46 z M 6.09,34.06 C 6.17,34.05 6.28,34.09 6.37,34.12 6.12,34.36 5.60,34.75 5.25,34.59 5.57,34.43 5.75,34.08 6.09,34.06 z m 0.75,0.53 C 7.06,34.97 5.66,35.64 5.15,35.87 5.12,35.62 5.51,35.79 5.43,35.5 5.05,35.14 4.83,35.77 4.40,35.68 4.95,35.05 5.93,34.87 6.84,34.59 z m 3.06,0 c -0.56,0.54 -1.39,0.82 -1.96,1.37 0.20,-0.54 1.22,-1.06 1.96,-1.37 z m 34.68,0 c -0.10,0.20 -0.46,0.16 -0.56,0.37 -0.23,-0.18 0.30,-0.37 0.56,-0.37 z M 10.18,34.68 c 1.63,0.88 3.17,2.65 5.5,3.15 0.10,0.61 0.38,1.06 0.56,1.59 0.04,-0.76 -0.55,-1.70 -0.75,-2.53 7.07,-2.15 17.39,-2.96 25.90,-1.5 -0.70,2.25 -2.36,3.52 -3.06,5.78 l -0.46,0 c -0.13,0.41 0.31,0.24 0.28,0.56 -0.66,0.76 -0.96,1.91 -1.40,2.90 -0.28,0.06 -0.27,-0.16 -0.56,-0.09 0.65,0.33 -1.30,0.15 -1.93,0.18 -1.05,0.04 -1.87,0.13 -3,0.18 -0.89,0.04 -2.28,0.33 -2.96,0.28 -0.93,-0.07 -2.69,-0.72 -3.84,-1.03 -1.10,-0.29 -2.16,-0.62 -3.15,-1.12 -0.28,-0.14 -1.01,-0.31 -1.87,-0.65 -0.52,-0.20 -1.47,-0.40 -1.65,-0.56 -0.38,-0.33 -0.40,-1.28 -0.56,-1.75 -0.21,-0.62 -0.52,-1.01 -0.65,-1.59 -0.19,0.45 0.56,1.22 0.37,1.68 -0.38,0.05 -0.44,-1.10 -0.65,-0.37 -0.27,-0.87 -1.11,-0.73 -1.78,-1.03 -0.61,-0.26 -2.13,-1.47 -2.68,-2.06 C 11.18,36.07 10.84,35.20 10.18,34.68 z M 43.75,34.96 c -0.26,0.32 -0.69,0.46 -0.93,0.81 -0.13,-0.35 0.50,-0.71 0.93,-0.81 z m 2.06,0 c -0.57,0.66 -1.78,0.80 -2.34,1.18 -0.16,0.11 -0.14,0.29 -0.28,0.46 -0.72,0.86 -2.17,1.10 -3.06,1.96 0.37,-1.02 1.14,-2.45 2.5,-2.81 -0.22,0.20 -0.50,0.37 -0.65,0.65 1.01,-0.23 2.04,-1.45 3,-1.12 0.21,-0.19 0.49,-0.28 0.84,-0.34 z m -27.03,0.06 c 0.20,-0.00 0.37,0.01 0.53,0.09 -0.42,0.31 -0.96,0.29 -1.46,0.09 0.23,-0.07 0.59,-0.17 0.93,-0.18 z m -8.5,0.28 c 0.11,0.04 0.19,0.12 0.18,0.28 -0.90,0.28 -1.54,0.83 -2.43,1.12 0.28,-0.92 1.78,-0.65 2.25,-1.40 z m 4.37,0.18 c 0.60,0.23 1.40,1.01 2.06,0.37 -0.61,0.26 -1.30,-0.38 -1.93,-0.37 -0.04,7.19e-4 -0.08,-0.00 -0.12,0 z m -3.81,0.37 c -0.25,0.39 -0.78,0.53 -1.21,0.75 0.27,-0.37 0.72,-0.58 1.21,-0.75 z m 35.25,0.18 c 0.11,0.40 -0.60,0.55 -0.56,0.09 0.28,0.06 0.34,-0.09 0.56,-0.09 z M 1.18,36.15 c 0.04,-0.00 0.11,-0.00 0.15,0 -0.19,0.14 -0.38,0.30 -0.65,0.37 0.05,-0.23 0.21,-0.36 0.5,-0.37 z m 4.34,1.12 c -0.17,0.17 -0.17,0.07 -0.09,0.37 -0.55,0.12 -0.90,0.47 -1.31,0.75 0.09,-0.37 0.79,-0.95 1.40,-1.12 z m 7.93,1.15 C 13.63,38.42 13.82,38.74 14,38.78 13.70,39.13 13.52,38.57 13.34,38.5 c 0.03,-0.04 0.08,-0.06 0.12,-0.06 z m -12.5,0.06 c 0.02,-7.03e-4 0.06,-0.00 0.09,0 0.01,0.37 -0.24,0.24 -0.46,0.18 0.06,-0.12 0.18,-0.18 0.37,-0.18 z m 4,0 c -0.57,0.69 -1.77,0.73 -2.5,1.28 0.34,-0.55 1.62,-0.94 2.5,-1.28 z m 3.81,0.37 C 8.28,39.64 6.96,39.57 6.18,40.06 6.66,39.62 7.95,39.25 8.78,38.87 z M 5.81,40.09 c 0.11,0.02 0.09,0.18 0,0.18 -1.72,0.57 -3.13,1.44 -4.84,2.03 0.83,-1.35 3.14,-1.49 4.84,-2.21 z m 9.96,0 c 0.69,-0.01 1.61,0.54 1.59,1.56 -0.81,-0.24 -1.01,-1.08 -1.59,-1.56 z m 27.68,0.25 c -0.30,0.19 -0.67,0.72 -1.03,0.56 0.30,-0.22 0.52,-0.54 1.03,-0.56 z M 40.87,41.75 c 0.22,-0.01 -0.72,0.30 -0.84,0.56 -0.28,-0.38 0.52,-0.47 0.84,-0.56 z m 2.87,0.84 c -0.17,0.44 -0.78,0.47 -1.21,0.65 0.19,-0.42 0.74,-0.50 1.21,-0.65 z m -14.90,3.18 c -0.17,0.62 -0.12,0.87 -0.18,1.56 -0.17,-0.17 -0.48,-0.01 -0.56,0.18 l 0.65,0 c 0.05,-0.72 0.34,-1.36 0.09,-1.75 z M 28.18,45.87 c -0.08,0.53 0.06,0.77 -0.46,0.90 0.16,0.25 0.06,0.26 0.18,0.46 0.37,-0.32 0.59,-0.96 0.28,-1.37 z" />
</svg>
