<?xml version="1.0" encoding="UTF-8" standalone="no"?>
<!-- Created with Inkscape (http://www.inkscape.org/) -->
<svg xmlns:dc="http://purl.org/dc/elements/1.1/" xmlns:cc="http://creativecommons.org/ns#" xmlns:rdf="http://www.w3.org/1999/02/22-rdf-syntax-ns#" xmlns:svg="http://www.w3.org/2000/svg" xmlns="http://www.w3.org/2000/svg" version="1.0" width="100%" height="100%" viewBox="0 0 48 48" id="svg1540">
<defs id="defs7" />
<path d="M 20.52,45.69 C 13.28,44.53 6.71,39.65 3.77,32.89 0.55,25.75 1.54,16.86 6.45,10.72 10.29,5.59 16.45,2.16 22.91,2.11 28.52,1.77 34.16,3.75 38.33,7.52 43.20,11.76 45.93,18.26 45.69,24.70 45.66,33.04 40.23,41.02 32.50,44.16 28.74,45.86 24.57,46.00 20.52,45.69 z m 5.66,-0.51 c 1.91,0.68 5.84,-2.12 3.23,-3.43 -2.54,-0.73 -5.19,-2.07 -7.85,-1.05 -1.64,0.68 -6.51,0.35 -4.50,3.12 1.78,1.56 4.36,1.28 6.57,1.51 0.85,0.01 1.70,-0.03 2.55,-0.14 z m 5.44,-1.31 c 3.42,-1.28 6.51,-3.49 8.78,-6.37 -2.03,-1.52 -3.63,1.78 -5.31,2.60 -1.38,1.25 -5.07,1.69 -4.34,4.03 0.31,0.02 0.60,-0.13 0.87,-0.27 z M 16.28,43.67 C 16.05,40.79 12.33,40.72 10.87,38.66 9.68,37.78 7.60,34.35 6.53,36.70 c 2.46,3.14 5.66,5.98 9.59,7.10 l 0.09,-0.08 0.05,-0.04 z m 16.46,-2.75 c 2.08,-1.24 4.85,-2.59 5.38,-5.16 -0.12,-2.41 2.01,-6.16 -0.51,-7.69 -2.31,-0.14 -4.98,-2.38 -6.95,-0.22 -1.95,2.01 -4.67,3.17 -6.41,5.40 0.22,2.11 -1.11,5.29 0.71,6.64 2.26,0.57 4.62,1.98 6.96,1.44 l 0.40,-0.18 0.40,-0.23 z m -14.51,0.08 c 1.73,-0.90 5.74,-0.11 5.48,-2.76 -0.23,-2.21 0.85,-5.29 -1.63,-6.49 -2.11,-1.66 -4.33,-3.19 -6.51,-4.78 -2.26,0.31 -5.29,0.54 -6.76,2.32 -0.23,2.26 -0.59,4.87 0.22,7.00 1.75,1.91 3.77,3.74 6.18,4.80 0.99,0.40 2.03,0.16 3.02,-0.09 z m 22.77,-4.57 c 1.96,-2.03 2.74,-4.86 3.67,-7.46 0.72,-2.16 -0.10,-4.55 -1.50,-6.19 -1.54,0.60 -1.94,3.14 -2.99,4.57 -1.29,2.22 -0.77,4.83 -1.47,7.21 -0.35,1.63 0.81,2.32 2.30,1.86 z M 8.00,35.24 C 8.04,32.71 8.96,29.77 7.60,27.50 6.36,26.06 4.93,21.48 2.74,24.20 c -0.96,2.80 0.69,5.68 1.38,8.37 0.57,1.63 1.91,3.77 3.86,2.67 z m 16.86,-3.38 c 2.24,-1.83 4.63,-3.48 6.74,-5.48 -0.41,-2.68 -1.67,-5.14 -2.19,-7.79 -1.13,-2.64 -4.33,-1.04 -6.48,-1.43 -2.05,-0.00 -4.56,-0.62 -4.80,2.10 -0.83,2.13 -1.53,4.31 -2.31,6.46 0.84,2.47 3.81,3.15 5.56,4.84 0.94,0.71 2.22,2.47 3.49,1.30 z M 9.74,27.84 c 1.95,-0.86 5.14,-0.49 5.84,-3.03 0.96,-2.58 1.91,-5.17 2.70,-7.81 -1.47,-1.77 -2.52,-5.77 -5.20,-5.22 -2.22,0.58 -5.23,0.78 -6.13,3.27 -1.21,2.22 -2.05,4.68 -2.14,7.23 1.39,1.83 2.28,5.14 4.57,5.65 l 0.35,-0.08 z m 29.49,0.01 c 1.14,-2.30 3.13,-4.54 3.37,-7.08 -0.32,-2.41 -1.23,-4.75 -2.60,-6.77 -2.26,-0.45 -5.18,-3.30 -7.09,-1.52 -1.33,2.01 -4.21,3.95 -2.92,6.63 1.07,2.20 0.96,4.93 2.58,6.83 1.61,1.18 3.79,1.09 5.62,1.86 0.34,0.06 0.69,0.08 1.04,0.05 z m 5.85,-3.57 c 0.23,-4.19 -1.23,-8.32 -3.31,-11.89 -2.39,0.61 0.40,3.81 0.66,5.39 0.88,2.09 0.73,5.13 2.65,6.50 z M 3.36,23.11 c 1.89,-2.00 1.11,-5.15 2.64,-7.39 0.71,-0.87 2.34,-4.02 0.45,-3.74 -1.80,1.78 -2.64,4.39 -3.37,6.77 -0.07,1.34 -1.34,3.96 -0.23,4.67 L 3.14,23.26 3.36,23.11 z M 28.87,16.56 c 1.23,-1.81 4.32,-3.88 3.62,-6.04 -1.70,-1.89 -2.86,-4.84 -5.54,-5.43 -2.40,-0.08 -5.05,-0.62 -7.30,0.42 -1.83,1.48 -3.50,3.51 -4.42,5.68 0.92,2.02 2.39,4.57 4.60,5.48 2.99,-0.12 6.02,0.03 9.03,-0.11 z M 40.48,12.39 C 41.17,9.82 38.19,8.35 36.63,6.87 34.82,5.57 32.86,4.42 30.69,3.85 c -2.93,1.65 1.02,4.11 1.85,5.88 1.85,2.02 4.77,2.43 7.20,3.40 0.42,0.08 0.76,-0.36 0.73,-0.75 z M 9.00,12.36 C 11.26,11.45 14.28,11.62 15.65,9.22 16.46,7.52 20.23,5.33 17.92,3.59 c -1.97,-0.09 -3.66,1.37 -5.38,2.21 -1.87,1.24 -3.81,2.64 -5.02,4.55 -0.30,0.88 0.24,2.83 1.49,2.01 z M 29.08,4.53 C 30.26,2.50 26.24,3.09 25.04,2.82 23.25,2.95 19.74,2.02 19.25,4.15 c 1.76,1.18 4.06,-0.36 6.06,0.18 1.24,0.12 2.52,0.62 3.76,0.19 z" />
</svg>
