<?xml version="1.0" encoding="UTF-8" standalone="no"?>
<svg
   xmlns:dc="http://purl.org/dc/elements/1.1/"
   xmlns:cc="http://creativecommons.org/ns#"
   xmlns:rdf="http://www.w3.org/1999/02/22-rdf-syntax-ns#"
   xmlns:svg="http://www.w3.org/2000/svg"
   xmlns="http://www.w3.org/2000/svg"
   id="svg2"
   version="1.1"
   viewBox="0 0 48 48"
   width="100%"
   height="100%">
  <metadata
     id="metadata8">
    <rdf:RDF>
      <cc:Work
         rdf:about="">
        <dc:format>image/svg+xml</dc:format>
        <dc:type
           rdf:resource="http://purl.org/dc/dcmitype/StillImage" />
        <dc:title></dc:title>
      </cc:Work>
    </rdf:RDF>
  </metadata>
  <defs
     id="defs4" />
  <path
     style="display:inline;overflow:visible;visibility:visible;fill:#1a1a1a;fill-opacity:0.5;fill-rule:evenodd;stroke:none;marker:none;enable-background:accumulate"
     id="p2533-4"
     d="m 36.73,41.01 c 0,2.4 -5.84,4.35 -13.05,4.35 -7.21,0 -13.06,-1.95 -13.06,-4.35 0,-2.41 5.85,-4.35 13.06,-4.35 7.21,0 13.05,1.94 13.05,4.35 z" />
  <path
     style="display:inline;overflow:visible;visibility:visible;fill:#64462e;fill-opacity:1;fill-rule:evenodd;stroke:none;marker:none;enable-background:accumulate"
     id="p2535-1"
     d="m 17.4,25.84 c -5.1,2.5 -5.49,6.5 -5.34,8.25 0.09,1.07 1.13,1.84 2.22,2.03 l 0,0.03 c 1.03,4.22 3.11,5.47 4.25,5.47 1.13,0 1.76,-2.06 3.72,-2.06 1.57,0 3.69,0.36 6.12,-0.78 l 0.06,0.06 c 0.62,0.82 1.28,1.77 2.25,1.31 2.34,-1.11 5.12,-8.04 1.16,-11.4 L 17.4,25.84 Z" />
  <path
     style="display:inline;overflow:visible;visibility:visible;fill:#0000cc;fill-opacity:1;fill-rule:evenodd;stroke:none;marker:none;enable-background:accumulate"
     id="p2538-9"
     d="m 29.84,28.34 -3.34,5.53 -5.41,1.91 -4.53,-0.44 -2.25,0.97 c 0.34,1.33 0.79,2.34 1.28,3.12 l 2.59,-0.53 1,1.1 1.47,0.12 c 0.43,-0.31 0.93,-0.56 1.6,-0.56 1.57,0 3.69,0.36 6.12,-0.78 l 0.06,0.06 c 0.1,0.13 0.18,0.27 0.28,0.41 l 1.63,-1.44 2.03,0.62 c 1.61,-2.56 2.47,-7.14 -0.53,-9.68 l -2,-0.41 z" />
  <path
     style="display:inline;overflow:visible;visibility:visible;opacity:1;fill:none;fill-opacity:1;fill-rule:evenodd;stroke:#24211e;stroke-width:0.60000002;stroke-linecap:round;stroke-linejoin:miter;stroke-miterlimit:4;stroke-dasharray:none;stroke-dashoffset:0;stroke-opacity:1;marker:none;enable-background:accumulate"
     id="p2622-1"
     d="m 18.73,32.11 c 0.67,2.2 2.39,3.64 4.69,2.68" />
  <path
     style="display:inline;overflow:visible;visibility:visible;fill:none;fill-opacity:1;fill-rule:evenodd;stroke:#000059;stroke-width:0.69;stroke-linecap:butt;stroke-linejoin:miter;stroke-miterlimit:4;stroke-dasharray:none;stroke-dashoffset:0;stroke-opacity:1;marker:none;enable-background:accumulate"
     id="p2540-6"
     d="m 29.84,28.34 -3.34,5.53 -5.41,1.91 -4.53,-0.44 m 13.78,2.47 2.03,0.62 m -16.78,1 2.59,-0.53 1,1.1 1.47,0.12" />
  <path
     style="display:inline;overflow:visible;visibility:visible;fill:none;fill-opacity:1;fill-rule:evenodd;stroke:#24211e;stroke-width:1;stroke-linecap:round;stroke-linejoin:miter;stroke-miterlimit:4;stroke-dasharray:none;stroke-dashoffset:0;stroke-opacity:1;marker:none;enable-background:accumulate"
     id="p2543-0"
     d="m 17.17,25.93 c -5.1,2.5 -5.26,6.4 -5.11,8.14 0.14,1.75 2.81,2.77 4.12,1.61 1.31,-1.17 1.39,-3.56 2.7,-3.71" />
  <path
     style="display:inline;overflow:visible;visibility:visible;fill:none;fill-opacity:1;fill-rule:evenodd;stroke:#24211e;stroke-width:1;stroke-linecap:round;stroke-linejoin:miter;stroke-miterlimit:4;stroke-dasharray:none;stroke-dashoffset:0;stroke-opacity:1;marker:none;enable-background:accumulate"
     id="p2545-4"
     d="m 14.27,36.16 c 1.03,4.21 3.13,5.45 4.27,5.45 1.13,0 1.75,-2.06 3.7,-2.06 1.96,0 4.74,0.62 7.94,-1.86" />
  <path
     style="display:inline;overflow:visible;visibility:visible;fill:none;fill-opacity:1;fill-rule:evenodd;stroke:#24211e;stroke-width:1;stroke-linecap:butt;stroke-linejoin:miter;stroke-miterlimit:4;stroke-dasharray:none;stroke-dashoffset:0;stroke-opacity:1;marker:none;enable-background:accumulate"
     id="p2547-1"
     d="m 28.42,38.83 c 0.62,0.82 1.3,1.8 2.27,1.34 2.34,-1.11 5.13,-8.06 1.16,-11.42" />
  <path
     style="display:inline;overflow:visible;visibility:visible;opacity:1;fill:none;fill-opacity:1;fill-rule:evenodd;stroke:#24211e;stroke-width:0.60000002;stroke-linecap:round;stroke-linejoin:miter;stroke-miterlimit:4;stroke-dasharray:none;stroke-dashoffset:0;stroke-opacity:1;marker:none;enable-background:accumulate"
     id="p3394-2"
     d="m 23.26,32.49 c 0,0.16 -0.13,0.29 -0.29,0.29 -0.17,0 -0.29,-0.13 -0.29,-0.29 0,-0.17 0.12,-0.29 0.29,-0.29 0.16,0 0.29,0.12 0.29,0.29 z" />
  <path
     style="display:inline;overflow:visible;visibility:visible;opacity:1;fill:#251814;fill-opacity:1;fill-rule:evenodd;stroke:#1d1613;stroke-width:0.69;stroke-linecap:butt;stroke-linejoin:miter;stroke-miterlimit:4;stroke-dasharray:none;stroke-dashoffset:0;stroke-opacity:1;marker:none;enable-background:accumulate"
     id="p3437-2"
     d="m 19.31,2.37 c -0.55,0 -1.03,0.29 -1.35,0.69 -0.23,-0.12 -0.47,-0.19 -0.75,-0.19 -0.69,0 -1.29,0.4 -1.56,1 -0.14,-0.04 -0.31,-0.06 -0.47,-0.06 -0.58,0 -1.06,0.28 -1.37,0.72 -0.79,0.16 -1.38,0.85 -1.38,1.68 0,0.45 0.16,0.85 0.44,1.16 -0.22,0.29 -0.34,0.64 -0.34,1.03 0,0.3 0.08,0.57 0.22,0.81 -0.37,0.32 -0.6,0.77 -0.6,1.29 0,0.77 0.51,1.44 1.22,1.65 0,0.02 0,0.04 0,0.06 0,0.95 0.77,1.72 1.72,1.72 0.43,0 0.82,-0.15 1.12,-0.4 0.79,0.46 1.71,0.75 2.69,0.75 2.93,0 5.31,-2.39 5.31,-5.32 0,-0.6 -0.12,-1.17 -0.31,-1.71 0.4,-0.33 0.66,-0.8 0.66,-1.35 0,-0.95 -0.77,-1.72 -1.72,-1.72 -0.12,0 -0.23,0.04 -0.34,0.07 C 22.3,3.51 21.64,2.96 20.84,2.96 20.76,2.96 20.69,2.99 20.62,3 20.3,2.62 19.83,2.37 19.31,2.37 Z" />
  <path
     style="display:inline;overflow:visible;visibility:visible;fill:#64462e;fill-opacity:1;fill-rule:evenodd;stroke:none;marker:none;enable-background:accumulate"
     id="p2551-7"
     d="m 24.64,7.4 c -6.93,-0.3 -10.95,4.81 -8.91,12.88 -0.73,0.57 -1.22,1.49 -1.22,2.53 0,1.73 1.32,3.15 2.94,3.15 0.24,0 0.47,-0.03 0.69,-0.09 0.77,1.13 1.66,1.96 2.56,2.44 1.75,0.92 7,3.09 10.09,1.34 C 33.88,27.9 40.27,10.92 28.01,7.93 26.83,7.62 25.7,7.45 24.64,7.4 Z" />
  <path
     style="display:inline;overflow:visible;visibility:visible;opacity:1;fill:#3e130e;fill-opacity:0.4;fill-rule:evenodd;stroke:none;marker:none;enable-background:accumulate"
     id="p3501-5"
     d="m 34.5,20.84375 c -0.631163,0.12011 -1.255251,0.71015 -1.53125,1.53125 -0.364,1.0829 -0.0063,2.19275 0.8125,2.46875 0.0097,0.003 0.02147,-0.003 0.03125,0 0.46657,-1.22535 0.874031,-2.57782 1.125,-4 -0.145744,-0.024 -0.290645,-0.028 -0.4375,0 z" />
  <path
     style="display:inline;fill:none;fill-rule:evenodd;stroke:#24211e;stroke-width:1;stroke-linecap:butt;stroke-linejoin:miter;stroke-miterlimit:4;stroke-dasharray:none;stroke-opacity:1"
     id="p2558-1"
     d="m 24.64,7.4 c -6.93,-0.3 -10.95,4.81 -8.91,12.88 -0.73,0.57 -1.22,1.49 -1.22,2.53 0,1.73 1.32,3.15 2.94,3.15 0.24,0 0.47,-0.03 0.69,-0.09 0.77,1.13 1.66,1.96 2.56,2.44 1.75,0.92 7,3.09 10.09,1.34 C 33.88,27.9 40.27,10.92 28.01,7.93 26.83,7.62 25.7,7.45 24.64,7.4 Z" />
  <path
     style="display:inline;overflow:visible;visibility:visible;fill:none;fill-opacity:1;fill-rule:evenodd;stroke:#24211e;stroke-width:0.69;stroke-linecap:round;stroke-linejoin:miter;stroke-miterlimit:4;stroke-dasharray:none;stroke-dashoffset:0;stroke-opacity:1;marker:none;enable-background:accumulate"
     id="p2560-2"
     d="m 15.63,20.49 c 0.94,-0.64 1.69,-0.07 2.22,0.55 -0.35,0.88 -0.62,1.15 -0.71,1.5 -0.62,-0.44 -1.06,-0.18 -1.06,0.44" />
  <path
     style="display:inline;overflow:visible;visibility:visible;fill:#382a1d;fill-opacity:1;fill-rule:evenodd;stroke:#24211e;stroke-width:0.69;stroke-linecap:round;stroke-linejoin:miter;stroke-miterlimit:4;stroke-dasharray:none;stroke-dashoffset:0;stroke-opacity:1;marker:none;enable-background:accumulate"
     id="p2589-3"
     d="m 26.04,21.08 c 0,0.57 -0.41,1.05 -0.91,1.05 -0.51,0 -0.91,-0.48 -0.91,-1.05 0,-0.58 0.4,-1.05 0.91,-1.05 0.5,0 0.91,0.47 0.91,1.05 l 0,0 z" />
  <path
     style="display:inline;overflow:visible;visibility:visible;fill:#382a1d;fill-opacity:1;fill-rule:evenodd;stroke:#24211e;stroke-width:0.69;stroke-linecap:round;stroke-linejoin:miter;stroke-miterlimit:4;stroke-dasharray:none;stroke-dashoffset:0;stroke-opacity:1;marker:none;enable-background:accumulate"
     id="p2591-5"
     d="m 31.22,21.3 c 0,0.62 -0.36,1.13 -0.8,1.13 -0.45,0 -0.8,-0.51 -0.8,-1.13 0,-0.63 0.35,-1.13 0.8,-1.13 0.44,0 0.8,0.5 0.8,1.13 l 0,0 z" />
  <path
     style="display:inline;overflow:visible;visibility:visible;opacity:1;fill:none;fill-opacity:1;fill-rule:evenodd;stroke:#24211e;stroke-width:0.69;stroke-linecap:round;stroke-linejoin:miter;stroke-miterlimit:4;stroke-dasharray:none;stroke-dashoffset:0;stroke-opacity:1;marker:none;enable-background:accumulate"
     id="p3427-9"
     d="m 23.04,19.49 c 0.47,-2.1 3.06,-1.81 3.53,-0.67" />
  <path
     style="display:inline;overflow:visible;visibility:visible;opacity:1;fill:none;fill-opacity:1;fill-rule:evenodd;stroke:#24211e;stroke-width:0.69;stroke-linecap:round;stroke-linejoin:miter;stroke-miterlimit:4;stroke-dasharray:none;stroke-dashoffset:0;stroke-opacity:1;marker:none;enable-background:accumulate"
     id="p3429-0"
     d="m 32.41,19.49 c -0.48,-2.1 -3.06,-1.81 -3.54,-0.67" />
  <path
     style="display:inline;overflow:visible;visibility:visible;opacity:1;fill:#251814;fill-opacity:1;fill-rule:evenodd;stroke:#1d1613;stroke-width:0.69;stroke-linecap:butt;stroke-linejoin:miter;stroke-miterlimit:4;stroke-dasharray:none;stroke-dashoffset:0;stroke-opacity:1;marker:none;enable-background:accumulate"
     id="p3442-7"
     d="M 26.37,6.31 C 25.96,6.31 25.6,6.43 25.28,6.62 25.05,6.54 24.81,6.5 24.56,6.5 24.25,6.5 23.98,6.54 23.71,6.65 23.45,6.54 23.14,6.5 22.84,6.5 22.27,6.5 21.76,6.71 21.37,7.06 21.11,6.95 20.85,6.87 20.56,6.87 c -1.02,0 -1.88,0.69 -2.13,1.63 -1.21,0 -2.18,0.97 -2.18,2.18 0,0.14 0.03,0.31 0.06,0.44 -1.02,0.19 -1.78,1.08 -1.78,2.16 0,0.52 0.19,0.99 0.5,1.37 -0.42,0.4 -0.69,0.97 -0.69,1.6 0,0.36 0.09,0.69 0.25,1 -0.27,0.36 -0.44,0.79 -0.44,1.28 0,1.21 1.12,1.04 2.26,1.47 0.89,0.34 1.91,1.45 2.76,-0.92 -0.26,-2.09 0.28,-6.03 1.92,-7.75 2.4,-2.51 9.87,-2.94 11.62,0.57 1.13,2.26 1.7,4.89 2.25,7.53 0.69,-0.37 1.16,-1.1 1.16,-1.93 0,-0.38 -0.08,-0.76 -0.25,-1.07 0.17,-0.31 0.25,-0.68 0.25,-1.06 0,-0.83 -0.47,-1.53 -1.16,-1.91 0.2,-0.33 0.32,-0.74 0.32,-1.15 0,-1.22 -0.98,-2.19 -2.19,-2.19 -0.04,0 -0.09,0.03 -0.13,0.03 C 32.78,9.54 32.35,9.07 31.78,8.81 31.47,7.96 30.67,7.34 29.71,7.34 29.23,7.34 28.8,7.51 28.43,7.78 28.13,6.92 27.33,6.31 26.37,6.31 Z" />
  <path
     style="display:inline;overflow:visible;visibility:visible;opacity:1;fill:#3e130e;fill-opacity:0.4;fill-rule:evenodd;stroke:none;marker:none;enable-background:accumulate"
     id="p3499-1"
     d="m 25.1672,24.1212 c 0,1.1466 -0.945,2.0916 -2.0916,2.0916 -1.1592,0 -2.0916,-0.945 -2.0916,-2.0916 0,-1.1592 0.9324,-2.0916 2.0916,-2.0916 1.1466,0 2.0916,0.9324 2.0916,2.0916 l 0,0 z" />
  <path
     style="display:inline;overflow:visible;visibility:visible;opacity:1;fill:none;fill-opacity:1;fill-rule:evenodd;stroke:#24211e;stroke-width:0.69;stroke-linecap:round;stroke-linejoin:miter;stroke-miterlimit:4;stroke-dasharray:none;stroke-dashoffset:0;stroke-opacity:1;marker:none;enable-background:accumulate"
     id="p3506-0"
     d="m 23.9,25.57 c 2.93,2.25 8.1,2.64 7.42,-0.39" />
  <path
     style="display:inline;overflow:visible;visibility:visible;fill:#64462e;fill-opacity:1;fill-rule:evenodd;stroke:#24211e;stroke-width:0.69;stroke-linecap:round;stroke-linejoin:miter;stroke-miterlimit:4;stroke-dasharray:none;stroke-dashoffset:0;stroke-opacity:1;marker:none;enable-background:accumulate"
     id="p2585-3"
     d="m 28.3,22.65 c 0,0 1.23,-0.37 2.1,-0.42 2.2,-0.13 1.82,4.41 -0.43,3.66 -0.87,-0.29 -2.1,-1.2 -2.1,-1.2" />
</svg>
