<?xml version="1.0" encoding="UTF-8" standalone="no"?>
<svg
   xmlns:dc="http://purl.org/dc/elements/1.1/"
   xmlns:cc="http://creativecommons.org/ns#"
   xmlns:rdf="http://www.w3.org/1999/02/22-rdf-syntax-ns#"
   xmlns:svg="http://www.w3.org/2000/svg"
   xmlns="http://www.w3.org/2000/svg"
   height="100%"
   width="100%"
   viewBox="0 0 48 48"
   version="1.1"
   id="svg2">
  <metadata
     id="metadata8">
    <rdf:RDF>
      <cc:Work
         rdf:about="">
        <dc:format>image/svg+xml</dc:format>
        <dc:type
           rdf:resource="http://purl.org/dc/dcmitype/StillImage" />
        <dc:title></dc:title>
      </cc:Work>
    </rdf:RDF>
  </metadata>
  <defs
     id="defs4" />
  <path
     style="display:inline;overflow:visible;visibility:visible;fill:#1a1a1a;fill-opacity:0.5;fill-rule:evenodd;stroke:none;marker:none;enable-background:accumulate"
     id="p3656"
     d="m 36.73,41.01 c 0,2.4 -5.84,4.35 -13.05,4.35 -7.21,0 -13.06,-1.95 -13.06,-4.35 0,-2.41 5.85,-4.35 13.06,-4.35 7.21,0 13.05,1.94 13.05,4.35 z" />
  <path
     style="display:inline;fill:#9e6f49;fill-opacity:1;fill-rule:evenodd;stroke:none"
     id="p3658"
     d="m 17.4,25.84 c -5.1,2.5 -5.49,6.5 -5.34,8.25 0.09,1.07 1.13,1.84 2.22,2.03 l 0,0.03 c 1.03,4.22 3.11,5.47 4.25,5.47 1.13,0 1.76,-2.06 3.72,-2.06 1.57,0 3.69,0.36 6.12,-0.78 l 0.06,0.06 c 0.62,0.82 1.28,1.77 2.25,1.31 2.34,-1.11 5.12,-8.04 1.16,-11.4 L 17.4,25.84 Z" />
  <path
     style="display:inline;fill:#ff0000;fill-opacity:1;fill-rule:evenodd;stroke:none"
     id="p3660"
     d="m 17.4,25.84 c -2.1,1.03 -3.39,2.31 -4.19,3.59 l 0.54,1.32 2.37,-0.38 -0.12,1.88 2.62,-0.38 -2.62,3.88 -1.66,0.59 c 0.29,1.11 0.63,2 1.03,2.72 l 1.13,0.06 1.25,-1.37 1.12,1.62 1.13,-0.62 0.96,1.15 c 0.36,-0.2 0.78,-0.34 1.29,-0.34 1.57,0 3.69,0.36 6.12,-0.78 l 0.06,0.06 c 0.02,0.03 0.04,0.06 0.07,0.09 l 1.62,-1.06 2.16,0.69 c 1.66,-2.54 2.61,-7.23 -0.44,-9.81 L 28.12,28 27.5,33.5 22,26.78 17.4,25.84 Z" />
  <path
     style="display:inline;fill:none;fill-rule:evenodd;stroke:#590000;stroke-width:0.69;stroke-linecap:butt;stroke-linejoin:miter;stroke-miterlimit:4;stroke-dasharray:none;stroke-opacity:1"
     id="p3662"
     d="m 13.17,29.55 0.66,1.32 2.31,-0.5 -0.09,1.73 2.23,-0.08" />
  <path
     style="display:inline;overflow:visible;visibility:visible;fill:none;fill-opacity:1;fill-rule:evenodd;stroke:#4d0707;stroke-width:0.69;stroke-linecap:butt;stroke-linejoin:miter;stroke-miterlimit:4;stroke-dasharray:none;stroke-dashoffset:0;stroke-opacity:1;marker:none;enable-background:accumulate"
     id="p3664"
     d="m 24.45,29.96 3.13,3.62 0.33,-3.13" />
  <path
     style="display:inline;overflow:visible;visibility:visible;fill:none;fill-opacity:1;fill-rule:evenodd;stroke:#4d0707;stroke-width:0.69;stroke-linecap:butt;stroke-linejoin:miter;stroke-miterlimit:4;stroke-dasharray:none;stroke-dashoffset:0;stroke-opacity:1;marker:none;enable-background:accumulate"
     id="p3666"
     d="m 15.56,38.94 0.91,0.16 1.31,-1.32 1.16,1.57 1.15,-0.58 0.74,0.91" />
  <path
     style="display:inline;overflow:visible;visibility:visible;fill:none;fill-opacity:1;fill-rule:evenodd;stroke:#4d0707;stroke-width:0.69;stroke-linecap:butt;stroke-linejoin:miter;stroke-miterlimit:4;stroke-dasharray:none;stroke-dashoffset:0;stroke-opacity:1;marker:none;enable-background:accumulate"
     id="p3668"
     d="m 29.98,37.96 2.13,0.48" />
  <path
     style="display:inline;overflow:visible;visibility:visible;fill:none;fill-opacity:1;fill-rule:evenodd;stroke:#4d0707;stroke-width:0.69;stroke-linecap:butt;stroke-linejoin:miter;stroke-miterlimit:4;stroke-dasharray:none;stroke-dashoffset:0;stroke-opacity:1;marker:none;enable-background:accumulate"
     id="p3606"
     d="m 19.15,31.96 c 0.49,2.48 2.66,3.21 3.93,2.72" />
  <path
     style="display:inline;overflow:visible;visibility:visible;fill:none;fill-opacity:1;fill-rule:evenodd;stroke:#24211e;stroke-width:1;stroke-linecap:round;stroke-linejoin:miter;stroke-miterlimit:4;stroke-dasharray:none;stroke-dashoffset:0;stroke-opacity:1;marker:none;enable-background:accumulate;color:#000000;clip-rule:nonzero;opacity:1;isolation:auto;mix-blend-mode:normal;color-interpolation:sRGB;color-interpolation-filters:linearRGB;solid-color:#000000;solid-opacity:1;filter-blend-mode:normal;filter-gaussianBlur-deviation:0;color-rendering:auto;image-rendering:auto;shape-rendering:auto;text-rendering:auto"
     id="p3670"
     d="m 17.17,25.93 c -5.1,2.5 -5.26,6.4 -5.11,8.14 0.14,1.75 2.81,2.77 4.12,1.61 1.31,-1.17 1.39,-3.56 2.7,-3.71" />
  <path
     style="display:inline;overflow:visible;visibility:visible;fill:none;fill-opacity:1;fill-rule:evenodd;stroke:#24211e;stroke-width:1;stroke-linecap:round;stroke-linejoin:miter;stroke-miterlimit:4;stroke-dasharray:none;stroke-dashoffset:0;stroke-opacity:1;marker:none;enable-background:accumulate"
     id="p3672"
     d="m 14.27,36.16 c 1.03,4.21 3.13,5.45 4.27,5.45 1.13,0 1.75,-2.06 3.7,-2.06 1.96,0 4.74,0.62 7.94,-1.86" />
  <path
     style="display:inline;overflow:visible;visibility:visible;fill:none;fill-opacity:1;fill-rule:evenodd;stroke:#24211e;stroke-width:1;stroke-linecap:butt;stroke-linejoin:miter;stroke-miterlimit:4;stroke-dasharray:none;stroke-dashoffset:0;stroke-opacity:1;marker:none;enable-background:accumulate"
     id="p3674"
     d="m 28.42,38.83 c 0.62,0.82 1.3,1.8 2.27,1.34 2.34,-1.11 5.13,-8.06 1.16,-11.42" />
  <path
     d="m 24.64,7.4 c -6.93,-0.3 -10.95,4.81 -8.91,12.88 -0.73,0.57 -1.22,1.49 -1.22,2.53 0,1.73 1.32,3.15 2.94,3.15 0.24,0 0.47,-0.03 0.69,-0.09 0.77,1.13 1.66,1.96 2.56,2.44 1.75,0.92 7,3.09 10.09,1.34 C 33.88,27.9 40.27,10.92 28.01,7.93 26.83,7.62 25.7,7.45 24.64,7.4 Z"
     id="p2734"
     style="display:inline;overflow:visible;visibility:visible;fill:#9e6f49;fill-opacity:1;fill-rule:evenodd;stroke:none;marker:none;enable-background:accumulate" />
  <path
     d="m 28,24.75 1.42,0.26 c 0.38,0.1 0.77,-0.02 1.03,-0.32 0.26,-0.3 0.34,-0.72 0.19,-1.09 -0.15,-0.37 -0.48,-0.63 -0.88,-0.66 l -1.48,-0.26"
     id="p2736"
     style="display:inline;overflow:visible;visibility:visible;fill:none;fill-opacity:1;fill-rule:evenodd;stroke:#24211e;stroke-width:0.69;stroke-linecap:round;stroke-linejoin:miter;stroke-miterlimit:4;stroke-dasharray:none;stroke-dashoffset:0;stroke-opacity:1;marker:none;enable-background:accumulate" />
  <path
     d="m 21.96,21.76 3.8,-0.27"
     id="p2740"
     style="display:inline;overflow:visible;visibility:visible;fill:none;fill-opacity:1;fill-rule:evenodd;stroke:#24211e;stroke-width:1;stroke-linecap:round;stroke-linejoin:miter;stroke-miterlimit:4;stroke-dasharray:none;stroke-dashoffset:0;stroke-opacity:1;marker:none;enable-background:accumulate" />
  <path
     d="m 29.92,21.26 2.14,-0.08"
     id="p2742"
     style="display:inline;overflow:visible;visibility:visible;fill:none;fill-opacity:1;fill-rule:evenodd;stroke:#24211e;stroke-width:1;stroke-linecap:round;stroke-linejoin:miter;stroke-miterlimit:4;stroke-dasharray:none;stroke-dashoffset:0;stroke-opacity:1;marker:none;enable-background:accumulate" />
  <path
     d="M 24.22,19.62 25.9,19.21"
     id="p2744"
     style="display:inline;overflow:visible;visibility:visible;fill:none;fill-opacity:1;fill-rule:evenodd;stroke:#24211e;stroke-width:1;stroke-linecap:round;stroke-linejoin:miter;stroke-miterlimit:4;stroke-dasharray:none;stroke-dashoffset:0;stroke-opacity:1;marker:none;enable-background:accumulate" />
  <path
     d="m 30.01,19.21 1.01,0.5"
     id="p2746"
     style="display:inline;overflow:visible;visibility:visible;fill:none;fill-opacity:1;fill-rule:evenodd;stroke:#24211e;stroke-width:1;stroke-linecap:round;stroke-linejoin:miter;stroke-miterlimit:4;stroke-dasharray:none;stroke-dashoffset:0;stroke-opacity:1;marker:none;enable-background:accumulate" />
  <path
     d="m 24.7,25.31 c 0,0.85 -0.7,1.55 -1.56,1.55 -0.86,0 -1.55,-0.7 -1.55,-1.55 0,-0.86 0.69,-1.56 1.55,-1.56 0.86,0 1.56,0.7 1.56,1.56 z"
     id="p2832"
     style="display:inline;overflow:visible;visibility:visible;opacity:1;fill:#e4906d;fill-opacity:0.45;fill-rule:evenodd;stroke:none;marker:none;enable-background:accumulate" />
  <path
     d="m 35.4481,23.4505 c -0.17,0.8245 -0.849,1.3915 -1.5112,1.2539 -0.6622,-0.1376 -1.0535,-0.927 -0.8835,-1.7515 0.172,-0.8342 0.8433,-1.4028 1.5055,-1.2652 0.6622,0.1376 1.0612,0.9286 0.8892,1.7628 z"
     id="p3604"
     style="display:inline;overflow:visible;visibility:visible;opacity:1;fill:#e4906d;fill-opacity:0.45;fill-rule:evenodd;stroke:none;marker:none;enable-background:accumulate" />
  <path
     d="m 24.64,7.4 c -6.93,-0.3 -10.95,4.81 -8.91,12.88 -0.73,0.57 -1.22,1.49 -1.22,2.53 0,1.73 1.32,3.15 2.94,3.15 0.24,0 0.47,-0.03 0.69,-0.09 0.77,1.13 1.66,1.96 2.56,2.44 1.75,0.92 7,3.09 10.09,1.34 C 33.88,27.9 40.27,10.92 28.01,7.93 26.83,7.62 25.7,7.45 24.64,7.4 Z"
     id="p2748"
     style="display:inline;fill:none;fill-rule:evenodd;stroke:#24211e;stroke-width:1;stroke-linecap:butt;stroke-linejoin:miter;stroke-miterlimit:4;stroke-dasharray:none;stroke-opacity:1" />
  <path
     d="m 15.63,20.49 c 0.94,-0.64 1.69,-0.07 2.22,0.55 -0.35,0.88 -0.62,1.15 -0.71,1.5 -0.62,-0.44 -1.06,-0.18 -1.06,0.44"
     id="p2750"
     style="display:inline;overflow:visible;visibility:visible;fill:none;fill-opacity:1;fill-rule:evenodd;stroke:#24211e;stroke-width:0.69;stroke-linecap:round;stroke-linejoin:miter;stroke-miterlimit:4;stroke-dasharray:none;stroke-dashoffset:0;stroke-opacity:1;marker:none;enable-background:accumulate" />
  <path
     d="M 26.09,6.22 C 15.2,6.1 13.52,11.01 13.28,15.8 c -0.24,4.78 -0.48,7.06 -0.96,8.14 -0.47,1.07 1.8,3.95 3.6,2.03 -0.84,-1.08 -2.04,-3.83 -0.72,-5.27 0.84,0 2.27,0 2.27,0 0,0 0.72,6.23 2.04,5.63 0.24,-1.08 0.48,-2.63 0.48,-2.63 0,0 -0.84,3.71 -0.12,5.5 0.71,1.8 4.42,-12.33 9.69,-13.64 5.27,-1.32 4.91,7.9 4.91,7.9 0,0 -1.08,2.87 -1.92,4.31 2.64,2.03 6.35,-6.83 3.24,-14.85 -3.12,-8.02 -9.7,-6.58 -9.7,-6.7 z"
     id="p2826"
     style="display:inline;overflow:visible;visibility:visible;opacity:1;fill:#402a23;fill-opacity:1;fill-rule:evenodd;stroke:#2b211d;stroke-width:0.69;stroke-linecap:butt;stroke-linejoin:miter;stroke-miterlimit:4;stroke-dasharray:none;stroke-dashoffset:0;stroke-opacity:1;marker:none;enable-background:accumulate" />
  <path
     d="m 25.73,26.33 c 1.68,1.02 3.47,1.2 3.17,-1.2"
     id="p2830"
     style="display:inline;overflow:visible;visibility:visible;opacity:1;fill:none;fill-opacity:1;fill-rule:evenodd;stroke:#24211e;stroke-width:0.69;stroke-linecap:round;stroke-linejoin:miter;stroke-miterlimit:4;stroke-dasharray:none;stroke-dashoffset:0;stroke-opacity:1;marker:none;enable-background:accumulate" />
</svg>
