<?xml version="1.0" encoding="UTF-8" standalone="no"?>
<svg
   xmlns:dc="http://purl.org/dc/elements/1.1/"
   xmlns:cc="http://creativecommons.org/ns#"
   xmlns:rdf="http://www.w3.org/1999/02/22-rdf-syntax-ns#"
   xmlns:svg="http://www.w3.org/2000/svg"
   xmlns="http://www.w3.org/2000/svg"
   id="svg2"
   version="1.1"
   viewBox="0 0 48 48"
   width="100%"
   height="100%">
  <metadata
     id="metadata8">
    <rdf:RDF>
      <cc:Work
         rdf:about="">
        <dc:format>image/svg+xml</dc:format>
        <dc:type
           rdf:resource="http://purl.org/dc/dcmitype/StillImage" />
        <dc:title></dc:title>
      </cc:Work>
    </rdf:RDF>
  </metadata>
  <defs
     id="defs4" />
  <path
     d="m 36.73,41.01 c 0,2.4 -5.84,4.35 -13.05,4.35 -7.21,0 -13.06,-1.95 -13.06,-4.35 0,-2.41 5.85,-4.35 13.06,-4.35 7.21,0 13.05,1.94 13.05,4.35 z"
     id="p2465"
     style="display:inline;overflow:visible;visibility:visible;fill:#1a1a1a;fill-opacity:0.5;fill-rule:evenodd;stroke:none;marker:none;enable-background:accumulate" />
  <path
     d="m 17.4,25.84 c -5.1,2.5 -5.49,6.5 -5.34,8.25 0.09,1.07 1.13,1.84 2.22,2.03 l 0,0.03 c 1.03,4.22 3.11,5.47 4.25,5.47 1.13,0 1.76,-2.06 3.72,-2.06 1.57,0 3.69,0.36 6.12,-0.78 l 0.06,0.06 c 0.62,0.82 1.28,1.77 2.25,1.31 2.34,-1.11 5.12,-8.04 1.16,-11.4 L 17.4,25.84 Z"
     id="p2467"
     style="display:inline;fill:#9e6f49;fill-opacity:1;fill-rule:evenodd;stroke:none" />
  <path
     d="m 18.62,26.09 c 0.43,2.71 0.46,5.1 0.28,6 -1.43,2.77 -5.12,3.38 -3.78,6.44 0.91,0.52 1.91,0.93 1.91,0.93 l 2.12,-0.93 2.03,1.28 c 0.31,-0.15 0.66,-0.25 1.07,-0.25 1.57,0 3.69,0.36 6.12,-0.78 l 0.06,0.06 c 0.01,0.01 0.03,0.02 0.03,0.03 l 1.85,-1.16 2.06,0.69 c 0.65,-1.05 1.18,-2.41 1.38,-3.84 -0.85,-1.89 -2.07,-4.09 -3.88,-6.22 L 18.62,26.09 Z"
     id="p3360"
     style="fill:#0000cc;fill-opacity:1;fill-rule:evenodd;stroke:none" />
  <path
     d="M 33.75,34.56 C 32.9,32.67 31.68,30.47 29.87,28.34 L 18.62,26.09 c 0.43,2.71 0.46,5.1 0.28,6 m 11.41,5.62 2.06,0.69 m -17.25,0.13 c 0.91,0.52 1.91,0.93 1.91,0.93 l 2.12,-0.93 2.03,1.28"
     id="p3365"
     style="display:inline;overflow:visible;visibility:visible;fill:none;fill-opacity:1;fill-rule:evenodd;stroke:#000059;stroke-width:0.69;stroke-linecap:butt;stroke-linejoin:miter;stroke-miterlimit:4;stroke-dasharray:none;stroke-dashoffset:0;stroke-opacity:1;marker:none;enable-background:accumulate" />
  <path
     d="m 17.17,25.93 c -5.1,2.5 -5.26,6.4 -5.11,8.14 0.14,1.75 2.81,2.77 4.12,1.61 1.31,-1.17 1.39,-3.56 2.7,-3.71"
     id="p2479"
     style="display:inline;overflow:visible;visibility:visible;fill:none;fill-opacity:1;fill-rule:evenodd;stroke:#24211e;stroke-width:1;stroke-linecap:round;stroke-linejoin:miter;stroke-miterlimit:4;stroke-dasharray:none;stroke-dashoffset:0;stroke-opacity:1;marker:none;enable-background:accumulate" />
  <path
     d="m 14.27,36.16 c 1.03,4.21 3.13,5.45 4.27,5.45 1.13,0 1.75,-2.06 3.7,-2.06 1.96,0 4.74,0.62 7.94,-1.86"
     id="p2481"
     style="display:inline;overflow:visible;visibility:visible;fill:none;fill-opacity:1;fill-rule:evenodd;stroke:#24211e;stroke-width:1;stroke-linecap:round;stroke-linejoin:miter;stroke-miterlimit:4;stroke-dasharray:none;stroke-dashoffset:0;stroke-opacity:1;marker:none;enable-background:accumulate" />
  <path
     d="m 28.42,38.83 c 0.62,0.82 1.3,1.8 2.27,1.34 2.34,-1.11 5.13,-8.06 1.16,-11.42"
     id="p2483"
     style="display:inline;overflow:visible;visibility:visible;fill:none;fill-opacity:1;fill-rule:evenodd;stroke:#24211e;stroke-width:1;stroke-linecap:butt;stroke-linejoin:miter;stroke-miterlimit:4;stroke-dasharray:none;stroke-dashoffset:0;stroke-opacity:1;marker:none;enable-background:accumulate" />
  <path
     style="display:inline;overflow:visible;visibility:visible;fill:#9e6f49;fill-opacity:1;fill-rule:evenodd;stroke:none;marker:none;enable-background:accumulate"
     id="p2487"
     d="m 24.64,7.4 c -6.93,-0.3 -10.95,4.81 -8.91,12.88 -0.73,0.57 -1.22,1.49 -1.22,2.53 0,1.73 1.32,3.15 2.94,3.15 0.24,0 0.47,-0.03 0.69,-0.09 0.77,1.13 1.66,1.96 2.56,2.44 1.75,0.92 7,3.09 10.09,1.34 C 33.88,27.9 40.27,10.92 28.01,7.93 26.83,7.62 25.7,7.45 24.64,7.4 Z" />
  <path
     style="display:inline;overflow:visible;visibility:visible;fill:none;fill-opacity:1;fill-rule:evenodd;stroke:#24211e;stroke-width:1;stroke-linecap:round;stroke-linejoin:miter;stroke-miterlimit:4;stroke-dasharray:none;stroke-dashoffset:0;stroke-opacity:1;marker:none;enable-background:accumulate"
     id="p2495"
     d="m 30.07,21.23 2.65,-0.29" />
  <path
     style="display:inline;fill:none;fill-rule:evenodd;stroke:#24211e;stroke-width:1;stroke-linecap:butt;stroke-linejoin:miter;stroke-miterlimit:4;stroke-dasharray:none;stroke-opacity:1"
     id="p2501"
     d="m 24.64,7.4 c -6.93,-0.3 -10.95,4.81 -8.91,12.88 -0.73,0.57 -1.22,1.49 -1.22,2.53 0,1.73 1.32,3.15 2.94,3.15 0.24,0 0.47,-0.03 0.69,-0.09 0.77,1.13 1.66,1.96 2.56,2.44 1.75,0.92 7,3.09 10.09,1.34 C 33.88,27.9 40.27,10.92 28.01,7.93 26.83,7.62 25.7,7.45 24.64,7.4 Z" />
  <path
     style="display:inline;overflow:visible;visibility:visible;fill:none;fill-opacity:1;fill-rule:evenodd;stroke:#24211e;stroke-width:0.69;stroke-linecap:round;stroke-linejoin:miter;stroke-miterlimit:4;stroke-dasharray:none;stroke-dashoffset:0;stroke-opacity:1;marker:none;enable-background:accumulate"
     id="p2503"
     d="m 15.63,20.49 c 0.94,-0.64 1.69,-0.07 2.22,0.55 -0.35,0.88 -0.62,1.15 -0.71,1.5 -0.62,-0.44 -1.06,-0.18 -1.06,0.44" />
  <path
     style="display:inline;overflow:visible;visibility:visible;opacity:1;fill:#c18c32;fill-opacity:1;fill-rule:evenodd;stroke:#372517;stroke-width:0.69;stroke-linecap:butt;stroke-linejoin:miter;stroke-miterlimit:4;stroke-dasharray:none;stroke-dashoffset:0;stroke-opacity:1;marker:none;enable-background:accumulate"
     id="p3423"
     d="m 19.28,21.13 c 1.64,1.84 3.79,3.17 4.61,4.82 1.65,0 7.49,-0.11 8.11,0.1 0.92,-1.54 1.95,-2.26 2.25,-2.46 0.21,1.95 0.62,3.69 0,5.84 -0.39,1.37 -9.84,3.08 -12,1.75 -2.15,-1.34 -3.48,-4.11 -4.1,-5.13 0.72,-1.75 0.41,-5.03 -0.2,-5.54 0.3,-0.21 1.43,0.72 1.33,0.62 z" />
  <path
     style="fill:#c18c32;fill-opacity:1;fill-rule:evenodd;stroke:#372517;stroke-width:0.69;stroke-linecap:butt;stroke-linejoin:miter;stroke-miterlimit:4;stroke-dasharray:none;stroke-opacity:1"
     id="p2578"
     d="m 22.93,5.78 c -8.64,0.1 -9.97,11 -9.43,13.03 0.58,2.23 3.31,1.28 3.31,1.28 0,0 1.99,1.17 2.94,2.34 0.23,-1.41 1.5,-4.7 2.09,-6.34 0.76,0.68 0.68,3.12 0.47,5.37 l 2.97,1.57 c 2.42,-1.57 5.42,-4.18 7.28,-7.75 2.47,3.64 1.53,3.75 2.47,5.28 1.05,0.47 1.99,1.06 2.34,-1.88 C 37.72,15.74 37.12,8.71 25.84,6.12 24.78,5.88 23.83,5.77 22.93,5.78 Z" />
  <path
     style="display:inline;overflow:visible;visibility:visible;opacity:1;fill:#c18c32;fill-opacity:1;fill-rule:evenodd;stroke:#372517;stroke-width:0.69;stroke-linecap:butt;stroke-linejoin:miter;stroke-miterlimit:4;stroke-dasharray:none;stroke-dashoffset:0;stroke-opacity:1;marker:none;enable-background:accumulate"
     id="p3395"
     d="m 27.48,24.51 c -2.46,-0.1 -4,0.92 -3.18,2.05 0.83,1.13 2.06,-0.51 2.88,0.1 0.82,0.62 2.66,0.31 3.18,-0.41 0.51,0.72 1.43,0.93 1.64,0.62 0.2,-0.31 0.92,-2.15 -0.93,-2.15 0,0.41 -0.51,0.82 -3.59,-0.21 z" />
  <path
     style="display:inline;overflow:visible;visibility:visible;fill:none;fill-opacity:1;fill-rule:evenodd;stroke:#24211e;stroke-width:0.69;stroke-linecap:round;stroke-linejoin:miter;stroke-miterlimit:4;stroke-dasharray:none;stroke-dashoffset:0;stroke-opacity:1;marker:none;enable-background:accumulate"
     id="p3350"
     d="m 28.9,20.44 c 0,0 1.3,2.35 2.12,4 0.82,1.64 -3.06,0.23 -3.53,0.23" />
  <path
     style="display:inline;overflow:visible;visibility:visible;fill:none;fill-opacity:1;fill-rule:evenodd;stroke:#24211e;stroke-width:0.69;stroke-linecap:round;stroke-linejoin:miter;stroke-miterlimit:4;stroke-dasharray:none;stroke-dashoffset:0;stroke-opacity:1;marker:none;enable-background:accumulate"
     id="p3352"
     d="m 29.49,19.62 c 1.65,-0.94 3.41,-1.06 4,-0.35" />
</svg>
