<?xml version="1.0" encoding="UTF-8" standalone="no"?>
<svg
   xmlns:dc="http://purl.org/dc/elements/1.1/"
   xmlns:cc="http://creativecommons.org/ns#"
   xmlns:rdf="http://www.w3.org/1999/02/22-rdf-syntax-ns#"
   xmlns:svg="http://www.w3.org/2000/svg"
   xmlns="http://www.w3.org/2000/svg"
   id="svg2"
   version="1.1"
   viewBox="0 0 48 48"
   width="100%"
   height="100%">
  <metadata
     id="metadata8">
    <rdf:RDF>
      <cc:Work
         rdf:about="">
        <dc:format>image/svg+xml</dc:format>
        <dc:type
           rdf:resource="http://purl.org/dc/dcmitype/StillImage" />
        <dc:title></dc:title>
      </cc:Work>
    </rdf:RDF>
  </metadata>
  <defs
     id="defs4" />
  <path
     style="display:inline;overflow:visible;visibility:visible;fill:#1a1a1a;fill-opacity:0.5;fill-rule:evenodd;stroke:none;marker:none;enable-background:accumulate"
     id="p2446"
     d="m 36.73,41.01 c 0,2.4 -5.84,4.35 -13.05,4.35 -7.21,0 -13.06,-1.95 -13.06,-4.35 0,-2.41 5.85,-4.35 13.06,-4.35 7.21,0 13.05,1.94 13.05,4.35 z" />
  <path
     style="display:inline;fill:#9e6f49;fill-opacity:1;fill-rule:evenodd;stroke:none"
     id="p2448"
     d="m 17.4,25.84 c -5.1,2.5 -5.49,6.5 -5.34,8.25 0.09,1.07 1.13,1.84 2.22,2.03 l 0,0.03 c 1.03,4.22 3.11,5.47 4.25,5.47 1.13,0 1.76,-2.06 3.72,-2.06 1.57,0 3.69,0.36 6.12,-0.78 l 0.06,0.06 c 0.62,0.82 1.28,1.77 2.25,1.31 2.34,-1.11 5.12,-8.04 1.16,-11.4 L 17.4,25.84 Z" />
  <path
     style="display:inline;fill:#0000cc;fill-opacity:1;fill-rule:evenodd;stroke:none"
     id="p3233"
     d="m 17.4,25.84 c -2.1,1.03 -3.39,2.31 -4.19,3.59 l 0.54,1.32 2.37,-0.38 -0.12,1.88 2.62,-0.38 -2.62,3.88 -1.66,0.59 c 0.29,1.11 0.63,2 1.03,2.72 l 1.13,0.06 1.25,-1.37 1.12,1.62 1.13,-0.62 0.96,1.15 c 0.36,-0.2 0.78,-0.34 1.29,-0.34 1.57,0 3.69,0.36 6.12,-0.78 l 0.06,0.06 c 0.02,0.03 0.04,0.06 0.07,0.09 l 1.62,-1.06 2.16,0.69 c 1.66,-2.54 2.61,-7.23 -0.44,-9.81 L 28.12,28 27.5,33.5 22,26.78 17.4,25.84 Z" />
  <path
     style="display:inline;fill:none;fill-rule:evenodd;stroke:#000059;stroke-width:0.69;stroke-linecap:butt;stroke-linejoin:miter;stroke-miterlimit:4;stroke-dasharray:none;stroke-opacity:1"
     id="p3385"
     d="m 13.17,29.55 0.66,1.32 2.31,-0.5 -0.09,1.73 2.23,-0.08" />
  <path
     style="display:inline;overflow:visible;visibility:visible;fill:none;fill-opacity:1;fill-rule:evenodd;stroke:#000059;stroke-width:0.69;stroke-linecap:butt;stroke-linejoin:miter;stroke-miterlimit:4;stroke-dasharray:none;stroke-dashoffset:0;stroke-opacity:1;marker:none;enable-background:accumulate"
     id="p3387"
     d="m 24.45,29.96 3.13,3.62 0.33,-3.13" />
  <path
     style="display:inline;overflow:visible;visibility:visible;fill:none;fill-opacity:1;fill-rule:evenodd;stroke:#000059;stroke-width:0.69;stroke-linecap:butt;stroke-linejoin:miter;stroke-miterlimit:4;stroke-dasharray:none;stroke-dashoffset:0;stroke-opacity:1;marker:none;enable-background:accumulate"
     id="p3389"
     d="m 15.56,38.94 0.91,0.16 1.31,-1.32 1.16,1.57 1.15,-0.58 0.74,0.91" />
  <path
     style="display:inline;overflow:visible;visibility:visible;fill:none;fill-opacity:1;fill-rule:evenodd;stroke:#000059;stroke-width:0.69;stroke-linecap:butt;stroke-linejoin:miter;stroke-miterlimit:4;stroke-dasharray:none;stroke-dashoffset:0;stroke-opacity:1;marker:none;enable-background:accumulate"
     id="p3391"
     d="m 29.98,37.96 2.13,0.48" />
  <path
     style="display:inline;overflow:visible;visibility:visible;fill:none;fill-opacity:1;fill-rule:evenodd;stroke:#24211e;stroke-width:1;stroke-linecap:round;stroke-linejoin:miter;stroke-miterlimit:4;stroke-dasharray:none;stroke-dashoffset:0;stroke-opacity:1;marker:none;enable-background:accumulate"
     id="p2408"
     d="m 17.17,25.93 c -5.1,2.5 -5.26,6.4 -5.11,8.14 0.14,1.75 2.81,2.77 4.12,1.61 1.31,-1.17 1.39,-3.56 2.7,-3.71" />
  <path
     style="display:inline;overflow:visible;visibility:visible;fill:none;fill-opacity:1;fill-rule:evenodd;stroke:#24211e;stroke-width:1;stroke-linecap:round;stroke-linejoin:miter;stroke-miterlimit:4;stroke-dasharray:none;stroke-dashoffset:0;stroke-opacity:1;marker:none;enable-background:accumulate"
     id="p2410"
     d="m 14.27,36.16 c 1.03,4.21 3.13,5.45 4.27,5.45 1.13,0 1.75,-2.06 3.7,-2.06 1.96,0 4.74,0.62 7.94,-1.86" />
  <path
     style="display:inline;overflow:visible;visibility:visible;fill:none;fill-opacity:1;fill-rule:evenodd;stroke:#24211e;stroke-width:1;stroke-linecap:butt;stroke-linejoin:miter;stroke-miterlimit:4;stroke-dasharray:none;stroke-dashoffset:0;stroke-opacity:1;marker:none;enable-background:accumulate"
     id="p2412"
     d="m 28.42,38.83 c 0.62,0.82 1.3,1.8 2.27,1.34 2.34,-1.11 5.13,-8.06 1.16,-11.42" />
  <path
     style="display:inline;overflow:visible;visibility:visible;fill:#9e6f49;fill-opacity:1;fill-rule:evenodd;stroke:none;marker:none;enable-background:accumulate"
     id="p2460"
     d="m 24.64,7.4 c -6.93,-0.3 -10.95,4.81 -8.91,12.88 -0.73,0.57 -1.22,1.49 -1.22,2.53 0,1.73 1.32,3.15 2.94,3.15 0.24,0 0.47,-0.03 0.69,-0.09 0.77,1.13 1.66,1.96 2.56,2.44 1.75,0.92 7,3.09 10.09,1.34 C 33.88,27.9 40.27,10.92 28.01,7.93 26.83,7.62 25.7,7.45 24.64,7.4 Z" />
  <path
     style="display:inline;overflow:visible;visibility:visible;fill:none;fill-opacity:1;fill-rule:evenodd;stroke:#24211e;stroke-width:0.69;stroke-linecap:round;stroke-linejoin:miter;stroke-miterlimit:4;stroke-dasharray:none;stroke-dashoffset:0;stroke-opacity:1;marker:none;enable-background:accumulate"
     id="p3240"
     d="m 28,24.75 3.21,0.5 c 0.39,0.1 0.77,-0.02 1.04,-0.32 0.26,-0.3 0.33,-0.72 0.18,-1.09 -0.15,-0.37 -0.47,-0.63 -0.87,-0.66 l -3.28,-0.5" />
  <path
     style="display:inline;overflow:visible;visibility:visible;fill:none;fill-opacity:1;fill-rule:evenodd;stroke:#24211e;stroke-width:0.69;stroke-linecap:round;stroke-linejoin:miter;stroke-miterlimit:4;stroke-dasharray:none;stroke-dashoffset:0;stroke-opacity:1;marker:none;enable-background:accumulate"
     id="p3251"
     d="m 29.34,24.93 c 0.27,0.61 0.35,0.97 0.8,1.06 -1.15,0.7 -3.89,1.15 -6.28,0.17" />
  <path
     style="display:inline;overflow:visible;visibility:visible;fill:none;fill-opacity:1;fill-rule:evenodd;stroke:#24211e;stroke-width:1;stroke-linecap:round;stroke-linejoin:miter;stroke-miterlimit:4;stroke-dasharray:none;stroke-dashoffset:0;stroke-opacity:1;marker:none;enable-background:accumulate"
     id="p3253"
     d="m 21.96,21.76 4.02,-0.81" />
  <path
     style="display:inline;overflow:visible;visibility:visible;fill:none;fill-opacity:1;fill-rule:evenodd;stroke:#24211e;stroke-width:1;stroke-linecap:round;stroke-linejoin:miter;stroke-miterlimit:4;stroke-dasharray:none;stroke-dashoffset:0;stroke-opacity:1;marker:none;enable-background:accumulate"
     id="p3255"
     d="M 29.52,20.77 32.1,21.4" />
  <path
     style="display:inline;overflow:visible;visibility:visible;fill:none;fill-opacity:1;fill-rule:evenodd;stroke:#24211e;stroke-width:1;stroke-linecap:round;stroke-linejoin:miter;stroke-miterlimit:4;stroke-dasharray:none;stroke-dashoffset:0;stroke-opacity:1;marker:none;enable-background:accumulate"
     id="p3257"
     d="m 23.68,19.8 2.04,0.26" />
  <path
     style="display:inline;overflow:visible;visibility:visible;fill:none;fill-opacity:1;fill-rule:evenodd;stroke:#24211e;stroke-width:1;stroke-linecap:round;stroke-linejoin:miter;stroke-miterlimit:4;stroke-dasharray:none;stroke-dashoffset:0;stroke-opacity:1;marker:none;enable-background:accumulate"
     id="p3259"
     d="m 29.61,20.06 1.41,-0.35" />
  <path
     style="display:inline;fill:none;fill-rule:evenodd;stroke:#24211e;stroke-width:1;stroke-linecap:butt;stroke-linejoin:miter;stroke-miterlimit:4;stroke-dasharray:none;stroke-opacity:1"
     id="p2429"
     d="m 24.64,7.4 c -6.93,-0.3 -10.95,4.81 -8.91,12.88 -0.73,0.57 -1.22,1.49 -1.22,2.53 0,1.73 1.32,3.15 2.94,3.15 0.24,0 0.47,-0.03 0.69,-0.09 0.77,1.13 1.66,1.96 2.56,2.44 1.75,0.92 7,3.09 10.09,1.34 C 33.88,27.9 40.27,10.92 28.01,7.93 26.83,7.62 25.7,7.45 24.64,7.4 Z" />
  <path
     style="display:inline;overflow:visible;visibility:visible;fill:none;fill-opacity:1;fill-rule:evenodd;stroke:#24211e;stroke-width:0.69;stroke-linecap:round;stroke-linejoin:miter;stroke-miterlimit:4;stroke-dasharray:none;stroke-dashoffset:0;stroke-opacity:1;marker:none;enable-background:accumulate"
     id="p3261"
     d="m 15.63,20.49 c 0.94,-0.64 1.69,-0.07 2.22,0.55 -0.35,0.88 -0.62,1.15 -0.71,1.5 -0.62,-0.44 -1.06,-0.18 -1.06,0.44" />
  <g
     style="display:inline"
     id="g3307">
    <path
       style="display:inline;fill:none;fill-rule:evenodd;stroke:#201915;stroke-width:0.5;stroke-linecap:round;stroke-linejoin:miter;stroke-miterlimit:4;stroke-dasharray:none;stroke-opacity:1"
       id="p3269"
       d="m 19.72,26.5 -1.19,1.23" />
    <path
       style="display:inline;fill:none;fill-rule:evenodd;stroke:#201915;stroke-width:0.5;stroke-linecap:round;stroke-linejoin:miter;stroke-miterlimit:4;stroke-dasharray:none;stroke-opacity:1"
       id="p3271"
       d="m 21.24,27.72 -0.72,1.36" />
    <path
       style="display:inline;fill:none;fill-rule:evenodd;stroke:#201915;stroke-width:0.5;stroke-linecap:round;stroke-linejoin:miter;stroke-miterlimit:4;stroke-dasharray:none;stroke-opacity:1"
       id="p3273"
       d="m 22.97,28.44 -0.38,1.61" />
    <path
       style="display:inline;fill:none;fill-rule:evenodd;stroke:#201915;stroke-width:0.5;stroke-linecap:round;stroke-linejoin:miter;stroke-miterlimit:4;stroke-dasharray:none;stroke-opacity:1"
       id="p3275"
       d="m 24.82,28.91 -0.29,1.9" />
    <path
       style="display:inline;fill:none;fill-rule:evenodd;stroke:#201915;stroke-width:0.5;stroke-linecap:round;stroke-linejoin:miter;stroke-miterlimit:4;stroke-dasharray:none;stroke-opacity:1"
       id="p3277"
       d="m 26.47,29.33 -0.04,1.78" />
    <path
       style="display:inline;fill:none;fill-rule:evenodd;stroke:#201915;stroke-width:0.5;stroke-linecap:round;stroke-linejoin:miter;stroke-miterlimit:4;stroke-dasharray:none;stroke-opacity:1"
       id="p3279"
       d="m 28.41,29.41 0.34,1.74" />
    <path
       style="display:inline;fill:none;fill-rule:evenodd;stroke:#201915;stroke-width:0.5;stroke-linecap:round;stroke-linejoin:miter;stroke-miterlimit:4;stroke-dasharray:none;stroke-opacity:1"
       id="p3281"
       d="m 30.06,28.95 0.85,1.52" />
    <path
       style="display:inline;fill:none;fill-rule:evenodd;stroke:#201915;stroke-width:0.5;stroke-linecap:round;stroke-linejoin:miter;stroke-miterlimit:4;stroke-dasharray:none;stroke-opacity:1"
       id="p3283"
       d="m 31.5,28.06 0.93,0.93" />
    <path
       style="display:inline;fill:none;fill-rule:evenodd;stroke:#201915;stroke-width:0.5;stroke-linecap:round;stroke-linejoin:miter;stroke-miterlimit:4;stroke-dasharray:none;stroke-opacity:1"
       id="p3285"
       d="m 32.13,26.92 1.31,0.72" />
  </g>
  <path
     style="display:inline;overflow:visible;visibility:visible;opacity:1;fill:#402a23;fill-opacity:1;fill-rule:evenodd;stroke:#2b211d;stroke-width:0.69;stroke-linecap:butt;stroke-linejoin:miter;stroke-miterlimit:4;stroke-dasharray:none;stroke-dashoffset:0;stroke-opacity:1;marker:none;enable-background:accumulate"
     id="p2556"
     d="m 24.53,6.25 c -3.29,0 -6.39,1.05 -8.63,4 -2.03,1.44 -2.87,2.33 -4.34,2.46 -1.16,0.11 -0.07,2.16 2.19,1.75 -0.16,0.5 -0.31,1.01 -0.44,1.57 -0.22,6.87 2.37,4.29 4.09,4.72 1.94,6.01 2.17,1.1 2.81,-0.19 -1.29,3.87 0.64,6.86 1.29,4.5 0.64,-2.37 1.29,-2.81 2.15,-5.81 -0.43,2.79 3.65,0.21 4.72,-1.94 0.21,6.02 2.14,1.08 3,-1.5 1.72,1.07 0.88,7.53 3.03,6.03 0.43,1.93 1.08,2.78 1.94,1.28 0.86,-1.5 -0.45,-3.87 0.62,-5.16 C 36.1,13.66 33.95,7.63 27.93,6.56 26.8,6.36 25.65,6.24 24.53,6.25 Z" />
</svg>
