<?xml version="1.0" encoding="UTF-8" standalone="no"?>
<svg
   xmlns:dc="http://purl.org/dc/elements/1.1/"
   xmlns:cc="http://creativecommons.org/ns#"
   xmlns:rdf="http://www.w3.org/1999/02/22-rdf-syntax-ns#"
   xmlns:svg="http://www.w3.org/2000/svg"
   xmlns="http://www.w3.org/2000/svg"
   id="svg2"
   version="1.1"
   viewBox="0 0 48 48"
   width="100%"
   height="100%">
  <metadata
     id="metadata8">
    <rdf:RDF>
      <cc:Work
         rdf:about="">
        <dc:format>image/svg+xml</dc:format>
        <dc:type
           rdf:resource="http://purl.org/dc/dcmitype/StillImage" />
        <dc:title></dc:title>
      </cc:Work>
    </rdf:RDF>
  </metadata>
  <defs
     id="defs4" />
  <path
     style="display:inline;overflow:visible;visibility:visible;opacity:1;fill:#c18c32;fill-opacity:1;fill-rule:evenodd;stroke:#372517;stroke-width:0.69;stroke-linecap:butt;stroke-linejoin:miter;stroke-miterlimit:4;stroke-dasharray:none;stroke-dashoffset:0;stroke-opacity:1;marker:none;enable-background:accumulate"
     id="p3638"
     d="M 15.37,30.39 C 9.19,27.92 7.77,21.2 9.36,17.66 10.96,14.13 14.67,5.29 24.39,5.82 c 9.72,0.53 12.9,7.25 11.84,15.02 -1.06,7.78 1.95,8.14 -3.71,10.26 -5.65,2.12 -16.97,-0.36 -17.15,-0.71 z" />
  <path
     d="m 36.73,41.01 c 0,2.4 -5.84,4.35 -13.05,4.35 -7.21,0 -13.06,-1.95 -13.06,-4.35 0,-2.41 5.85,-4.35 13.06,-4.35 7.21,0 13.05,1.94 13.05,4.35 z"
     id="p3557"
     style="display:inline;overflow:visible;visibility:visible;fill:#1a1a1a;fill-opacity:0.5;fill-rule:evenodd;stroke:none;marker:none;enable-background:accumulate" />
  <path
     d="m 17.4,25.84 c -5.1,2.5 -5.49,6.5 -5.34,8.25 0.09,1.07 1.13,1.84 2.22,2.03 l 0,0.03 c 1.03,4.22 3.11,5.47 4.25,5.47 1.13,0 1.76,-2.06 3.72,-2.06 1.57,0 3.69,0.36 6.12,-0.78 l 0.06,0.06 c 0.62,0.82 1.28,1.77 2.25,1.31 2.34,-1.11 5.12,-8.04 1.16,-11.4 L 17.4,25.84 Z"
     id="p3559"
     style="display:inline;fill:#9e6f49;fill-opacity:1;fill-rule:evenodd;stroke:none" />
  <path
     d="m 18.62,26.09 c 0.43,2.71 0.46,5.1 0.28,6 -1.43,2.77 -5.12,3.38 -3.78,6.44 0.91,0.52 1.91,0.93 1.91,0.93 l 2.12,-0.93 2.03,1.28 c 0.31,-0.15 0.66,-0.25 1.07,-0.25 1.57,0 3.69,0.36 6.12,-0.78 l 0.06,0.06 c 0.01,0.01 0.03,0.02 0.03,0.03 l 1.85,-1.16 2.06,0.69 c 0.65,-1.05 1.18,-2.41 1.38,-3.84 -0.85,-1.89 -2.07,-4.09 -3.88,-6.22 L 18.62,26.09 Z"
     id="p3561"
     style="fill:#0000cc;fill-opacity:1;fill-rule:evenodd;stroke:none" />
  <path
     d="M 33.75,34.56 C 32.9,32.67 31.68,30.47 29.87,28.34 L 18.62,26.09 c 0.43,2.71 0.46,5.1 0.28,6 m 11.41,5.62 2.06,0.69 m -17.25,0.13 c 0.91,0.52 1.91,0.93 1.91,0.93 l 2.12,-0.93 2.03,1.28"
     id="p3563"
     style="display:inline;overflow:visible;visibility:visible;fill:none;fill-opacity:1;fill-rule:evenodd;stroke:#000059;stroke-width:0.69;stroke-linecap:butt;stroke-linejoin:miter;stroke-miterlimit:4;stroke-dasharray:none;stroke-dashoffset:0;stroke-opacity:1;marker:none;enable-background:accumulate" />
  <path
     d="m 18.98,31.98 c 0.48,2.48 2.66,3.2 3.93,2.72"
     id="p3608"
     style="display:inline;overflow:visible;visibility:visible;fill:none;fill-opacity:1;fill-rule:evenodd;stroke:#000059;stroke-width:0.69;stroke-linecap:butt;stroke-linejoin:miter;stroke-miterlimit:4;stroke-dasharray:none;stroke-dashoffset:0;stroke-opacity:1;marker:none;enable-background:accumulate" />
  <path
     d="m 17.17,25.93 c -5.1,2.5 -5.26,6.4 -5.11,8.14 0.14,1.75 2.81,2.77 4.12,1.61 1.31,-1.17 1.39,-3.56 2.7,-3.71"
     id="p3565"
     style="display:inline;overflow:visible;visibility:visible;fill:none;fill-opacity:1;fill-rule:evenodd;stroke:#24211e;stroke-width:1;stroke-linecap:round;stroke-linejoin:miter;stroke-miterlimit:4;stroke-dasharray:none;stroke-dashoffset:0;stroke-opacity:1;marker:none;enable-background:accumulate" />
  <path
     d="m 14.27,36.16 c 1.03,4.21 3.13,5.45 4.27,5.45 1.13,0 1.75,-2.06 3.7,-2.06 1.96,0 4.74,0.62 7.94,-1.86"
     id="p3567"
     style="display:inline;overflow:visible;visibility:visible;fill:none;fill-opacity:1;fill-rule:evenodd;stroke:#24211e;stroke-width:1;stroke-linecap:round;stroke-linejoin:miter;stroke-miterlimit:4;stroke-dasharray:none;stroke-dashoffset:0;stroke-opacity:1;marker:none;enable-background:accumulate" />
  <path
     d="m 28.42,38.83 c 0.62,0.82 1.3,1.8 2.27,1.34 2.34,-1.11 5.13,-8.06 1.16,-11.42"
     id="p3569"
     style="display:inline;overflow:visible;visibility:visible;fill:none;fill-opacity:1;fill-rule:evenodd;stroke:#24211e;stroke-width:1;stroke-linecap:butt;stroke-linejoin:miter;stroke-miterlimit:4;stroke-dasharray:none;stroke-dashoffset:0;stroke-opacity:1;marker:none;enable-background:accumulate" />
  <path
     d="m 31.65,30.81 c 1.28,2.07 -0.27,3.62 -1.63,3.62"
     id="p3610"
     style="display:inline;overflow:visible;visibility:visible;fill:none;fill-opacity:1;fill-rule:evenodd;stroke:#000059;stroke-width:0.69;stroke-linecap:butt;stroke-linejoin:miter;stroke-miterlimit:4;stroke-dasharray:none;stroke-dashoffset:0;stroke-opacity:1;marker:none;enable-background:accumulate" />
  <path
     d="m 24.64,7.4 c -6.93,-0.3 -10.95,4.81 -8.91,12.88 -0.73,0.57 -1.22,1.49 -1.22,2.53 0,1.73 1.32,3.15 2.94,3.15 0.24,0 0.47,-0.03 0.69,-0.09 0.77,1.13 1.66,1.96 2.56,2.44 1.75,0.92 7,3.09 10.09,1.34 C 33.88,27.9 40.27,10.92 28.01,7.93 26.83,7.62 25.7,7.45 24.64,7.4 Z"
     id="p3573"
     style="display:inline;overflow:visible;visibility:visible;fill:#9e6f49;fill-opacity:1;fill-rule:evenodd;stroke:none;marker:none;enable-background:accumulate" />
  <path
     d="m 34.3175,23.8656 c -0.221,0.816 -0.942,1.348 -1.6042,1.176 -0.6622,-0.172 -1.0115,-0.982 -0.7905,-1.798 0.2236,-0.8256 0.9369,-1.3596 1.5991,-1.1876 0.6622,0.172 1.0192,0.984 0.7956,1.8096 z"
     id="p3650"
     style="display:inline;overflow:visible;visibility:visible;opacity:1;fill:#e4906d;fill-opacity:0.45;fill-rule:evenodd;stroke:none;marker:none;enable-background:accumulate" />
  <path
     d="m 24.64,7.4 c -6.93,-0.3 -10.95,4.81 -8.91,12.88 -0.73,0.57 -1.22,1.49 -1.22,2.53 0,1.73 1.32,3.15 2.94,3.15 0.24,0 0.47,-0.03 0.69,-0.09 0.77,1.13 1.66,1.96 2.56,2.44 1.75,0.92 7,3.09 10.09,1.34 C 33.88,27.9 40.27,10.92 28.01,7.93 26.83,7.62 25.7,7.45 24.64,7.4 Z"
     id="p3577"
     style="display:inline;fill:none;fill-rule:evenodd;stroke:#24211e;stroke-width:1;stroke-linecap:butt;stroke-linejoin:miter;stroke-miterlimit:4;stroke-dasharray:none;stroke-opacity:1" />
  <path
     d="m 15.63,20.49 c 0.94,-0.64 1.69,-0.07 2.22,0.55 -0.35,0.88 -0.62,1.15 -0.71,1.5 -0.62,-0.44 -1.06,-0.18 -1.06,0.44"
     id="p3579"
     style="display:inline;overflow:visible;visibility:visible;fill:none;fill-opacity:1;fill-rule:evenodd;stroke:#24211e;stroke-width:0.69;stroke-linecap:round;stroke-linejoin:miter;stroke-miterlimit:4;stroke-dasharray:none;stroke-dashoffset:0;stroke-opacity:1;marker:none;enable-background:accumulate" />
  <path
     d="m 28.9,20.44 c 0,0 0.3,2.04 1.13,3.69 0.82,1.64 -2.07,0.54 -2.54,0.54"
     id="p3587"
     style="display:inline;overflow:visible;visibility:visible;fill:none;fill-opacity:1;fill-rule:evenodd;stroke:#24211e;stroke-width:0.69;stroke-linecap:round;stroke-linejoin:miter;stroke-miterlimit:4;stroke-dasharray:none;stroke-dashoffset:0;stroke-opacity:1;marker:none;enable-background:accumulate" />
  <path
     d="m 19.98,15.84 c 0.73,2.2 1.47,2.25 1.96,2.98 2.25,-1.32 9.61,-1.35 10.83,-1.47 0,-1.11 0.16,-2.19 -0.46,-3.3 0.98,1.47 2.33,5.15 2.21,8.94 -0.37,3.06 1.83,-3.43 1.59,-6.61 C 35.87,13.2 33.17,5.97 23.75,6.46 c -9.43,0.49 -9.87,8.15 -9.01,14.03 0.73,-0.49 2.14,-0.91 3.13,0.05 1.22,-1.34 1.55,-2.45 2.11,-4.7 z"
     id="p3632"
     style="display:inline;overflow:visible;visibility:visible;opacity:1;fill:#c18c32;fill-opacity:1;fill-rule:evenodd;stroke:none;marker:none;enable-background:accumulate" />
  <path
     d="m 17.87,20.54 c 1.22,-1.34 1.55,-2.45 2.11,-4.7 0.73,2.2 1.47,2.25 1.96,2.98 2.25,-1.32 9.61,-1.35 10.83,-1.47 0,-1.11 0.16,-2.19 -0.46,-3.3 0.98,1.47 3.4,5.66 2.01,9.77"
     id="p3640"
     style="display:inline;overflow:visible;visibility:visible;opacity:1;fill:none;fill-opacity:1;fill-rule:evenodd;stroke:#372517;stroke-width:0.69;stroke-linecap:butt;stroke-linejoin:miter;stroke-miterlimit:4;stroke-dasharray:none;stroke-dashoffset:0;stroke-opacity:1;marker:none;enable-background:accumulate" />
  <path
     d="m 26.04,21.66 c 0,0.7 -0.61,1.27 -1.36,1.27 -0.76,0 -1.36,-0.57 -1.36,-1.27 0,-0.71 0.6,-1.28 1.36,-1.28 0.75,0 1.36,0.57 1.36,1.28 z"
     id="p3642"
     style="display:inline;overflow:visible;visibility:visible;opacity:1;fill:#1d6381;fill-opacity:0.68000034;fill-rule:evenodd;stroke:#24211e;stroke-width:0.69;stroke-linecap:round;stroke-linejoin:miter;stroke-miterlimit:4;stroke-dasharray:none;stroke-dashoffset:0;stroke-opacity:1;marker:none;enable-background:accumulate" />
  <path
     d="m 32.35,21.31 c 0,0.7 -0.61,1.27 -1.36,1.27 -0.76,0 -1.36,-0.57 -1.36,-1.27 0,-0.71 0.6,-1.28 1.36,-1.28 0.75,0 1.36,0.57 1.36,1.28 z"
     id="p3644"
     style="display:inline;overflow:visible;visibility:visible;opacity:1;fill:#1d6381;fill-opacity:0.68000034;fill-rule:evenodd;stroke:#24211e;stroke-width:0.69;stroke-linecap:round;stroke-linejoin:miter;stroke-miterlimit:4;stroke-dasharray:none;stroke-dashoffset:0;stroke-opacity:1;marker:none;enable-background:accumulate" />
  <path
     d="M 23.76,27.05 31.39,26.26 29.9,25.03"
     id="p3646"
     style="display:inline;overflow:visible;visibility:visible;opacity:1;fill:none;fill-opacity:1;fill-rule:evenodd;stroke:#24211e;stroke-width:0.69;stroke-linecap:round;stroke-linejoin:miter;stroke-miterlimit:4;stroke-dasharray:none;stroke-dashoffset:0;stroke-opacity:1;marker:none;enable-background:accumulate" />
  <path
     d="m 23.01,25.17 c 0,0.85 -0.7,1.55 -1.56,1.55 -0.86,0 -1.55,-0.7 -1.55,-1.55 0,-0.86 0.69,-1.56 1.55,-1.56 0.86,0 1.56,0.7 1.56,1.56 z"
     id="p3648"
     style="display:inline;overflow:visible;visibility:visible;opacity:1;fill:#e4906d;fill-opacity:0.45;fill-rule:evenodd;stroke:none;marker:none;enable-background:accumulate" />
</svg>
