<?xml version="1.0" encoding="UTF-8" standalone="no"?>
<svg xmlns:svg="http://www.w3.org/2000/svg" xmlns:xlink="http://www.w3.org/1999/xlink" xmlns="http://www.w3.org/2000/svg" version="1.0" width="100%" height="100%" viewBox="0 0 120 90" id="skills">
<defs id="defs2385">
    <style type="text/css">

        /* THEME DARK */

        .background rect                    { fill:#241f1c; }
        .background text                    { font-size:6px;fill:#4c4237; }
        .c1                                 { fill:#4c4237; }
        .available .c1                      { fill:#EEEE88; }
        .c3                                 { fill:#241f1c; }
        .star                               { stroke:#241f1c;stroke-width:0.1;}
        #nodes text                         { font-size:4px;font-weight:bold;text-anchor:middle;
                                              font-family:Times New Roman;stroke:#241f1c;stroke-width:0.1;}
        #nodes text.nb                      { stroke:none; }
        .available.blue .c2                 { fill:#44BBFF; }
        .available.green .c2                { fill:#55EE22; }
        .available.yellow .c2               { fill:#FFFF00; }
        .available.orange .c2               { fill:#FF5522; }
        .available.red .c2                  { fill:#FF2200; }

        .star                               { fill:#4c4237; stroke:#241f1c;stroke-width:0.2;}
        .available.blue .star               { fill:#66CCFF; }
        .available.green .star              { fill:#88FF77; }
        .available.yellow .star             { fill:#FFFF77; }
        .available.orange .star             { fill:#FF7744; }
        .available.red .star                { fill:#FF4422; }

        .node                               { cursor:pointer; }
        #nodes .available.blue text         { fill:#44BBFF; }
        #nodes .available.green text        { fill:#55EE22; }
        #nodes .available.yellow text       { fill:#FFFF00; }
        #nodes .available.orange text       { fill:#FF5522; }
        #nodes .available.red text          { fill:#FF2200; }
        #nodes text                         { fill:#4c4237; }
        .c2                                 { fill:#4c4237; }
        .link>*                             { fill:none;stroke:#4c4237;stroke-width:0.6; }
        .available.link>*                   { stroke:#EEEE88; }
        .rbg                                { fill:none;stroke:#4c4237;stroke-width:8;stroke-opacity:0.5; }
        .rgg                                { fill:#4c4237;fill-opacity:0.5; }
        .rfg                                { fill:none;stroke:#4c4237;stroke-width:5;stroke-opacity:0.5; }
        .rbd                                { fill:none;stroke:#4c4237;stroke-width:1;stroke-opacity:0.8; }
        .rbb                                { fill:none;stroke:#4c4237;stroke-width:.6;stroke-opacity:0.8; }

        rect.w                              { fill:none;stroke:#4c4237;stroke-width:.4;}
        text.w                              { font-size:4px;fill:#4c4237; text-anchor:middle; }

        .debug .dbg                         { display:inline; }
        .debug #release                     { display:none; }
        .dbg                                { display:none; }
    </style>
</defs>

<!-- WIDGET TEMPLATE -->
<g style="display:none;">

    <g id="wcalc">
        <rect x="-8" y="-12" width="16" height="29" rx="2" class="w"/>
        <rect x="-7" y="-11" width="14" height="6" rx="0.5" class="w"/>
        <rect x="-7" y="-4" width="4" height="4" rx="0.5" class="w"/>
        <rect x="-2" y="-4" width="4" height="4" rx="0.5" class="w"/>
        <rect x="3" y="-4" width="4" height="4" rx="0.5" class="w"/>
        <rect x="-7" y="1" width="4" height="4" rx="0.5" class="w"/>
        <rect x="-2" y="1" width="4" height="4" rx="0.5" class="w"/>
        <rect x="3" y="1" width="4" height="4" rx="0.5" class="w"/>
        <rect x="-7" y="6" width="4" height="4" rx="0.5" class="w"/>
        <rect x="-2" y="6" width="4" height="4" rx="0.5" class="w"/>
        <rect x="3" y="6" width="4" height="4" rx="0.5" class="w"/>
        <rect x="-7" y="11" width="9" height="4" rx="0.5" class="w"/>
        <rect x="3" y="11" width="4" height="4" rx="0.5" class="w"/>
        <text transform="translate(-5,-0.8)" class="w">7</text>
        <text transform="translate(0,-0.8)" class="w">8</text>
        <text transform="translate(5,-0.8)" class="w">9</text>
        <text transform="translate(-5,4.2)" class="w">4</text>
        <text transform="translate(0,4.2)" class="w">5</text>
        <text transform="translate(5,4.2)" class="w">6</text>
        <text transform="translate(-5,9.2)" class="w">1</text>
        <text transform="translate(0,9.2)" class="w">2</text>
        <text transform="translate(5,9.2)" class="w">3</text>
        <text transform="translate(-5,14.2)" class="w">0</text>
    </g>

</g>
<!-- SKILL TEMPLATE -->

<g style="display:none;">
    <g id="r1"><circle cx="0" cy="0" r="7" class="rgg"/><circle cx="0" cy="0" r="7" class="rbb"/></g>
    <g id="r2"><circle cx="0" cy="0" r="10" class="rgg"/><circle cx="0" cy="0" r="10" class="rbd"/></g>
    <g id="r3"><circle cx="0" cy="0" r="10" class="rbg"/><circle cx="0" cy="0" r="10" class="rfg"/><circle cx="0" cy="0" r="6" class="rbd"/><circle cx="0" cy="0" r="14" class="rbd"/></g>
    <g id="r4"><circle cx="0" cy="0" r="10" class="rbg"/><circle cx="0" cy="0" r="10" class="rfg"/><circle cx="0" cy="0" r="6" class="rbd"/><circle cx="0" cy="0" r="16" class="rfg"/><circle cx="0" cy="0" r="20" class="rbb"/></g>
</g>


<!-- LINKS TEMPLATE -->
<g style="display:none;">
    <path id="l03.180" d="M 3.03,1.75 C 3.32,1.23 3.5,0.63 3.5,0 C 3.5,-1.93 1.93,-3.5 0,-3.5"/>
    <path id="l06.180" d="M 0,6 C 3.312,6 6,3.312 6,0 C 6,-3.312 3.312,-6 0,-6"/>
    <path id="l06.090" d="M 6,0 C 6,-3.312 3.312,-6 0,-6"/>
    <path id="l10.180" d="M 0,10 C 5.52,10 10,5.52 10,0 C 10,-5.52 5.52,-10 0,-10"/>
    <path id="l10.180" d="M 10,0 C 10,-5.52 5.52,-10 0,-10"/>
    <path id="l10" d="M 8.65,-5 C 6.92,-7.98 3.7,-10 0,-10"/>
    <path id="l10" d="M 7.06,-7.06 C 5.25,-8.87 2.76,-10 0,-10"/>
    <path id="l14.180" d="M 14,0 C 14,-7.728 7.728,-14 0,-14 C -7.728,-14 -14,-7.728 -14,0"/>
    <path id="l14.135" d="M 0,14 C 7.728,14 14,7.728 14,0 C 14,-3.864 12.44,-7.37 9.90,-9.90"/>
    <path id="l14.90" d="M 0,14 C 7.728,14 14,7.728 14,0"/>
    <path id="l20.180" d="M 0,20 C 11.03,20 20,11.03 20,0 C 20,-11.03 11.03,-20 0,-20"/>
    <path id="l20.90" d="M 20,0 C 20,-11.04 11.04,-20 0,-20"/>
    <path id="l20.45" d="M 14.125,-14.125 C 10.505,-17.745 5.52,-20 0,-20"/>
    <path id="l20.30" d="M 10,-17.31 C 7.05,-19.01 3.64,-20 0,-20"/>

</g>

<!-- BACKGROUND -->
<g class="background">
    <rect width="640" height="480" x="0" y="0" id="mapbg"/>
</g>

<!-- SKILLS -->
<g id="nodes">
    <g id="release">

    <!-- [10] numeration until 10 -->
    <g transform="translate(80,30)">
    <use x="0" y="0" xlink:href="#r4"/>
    <g id="l1" class="link s1 d2"><line x1="0" y1="0" x2="-10" y2="0"/></g>
    <g id="l2" class="link s1 d3"><line x1="0" y1="0" x2="10" y2="0"/></g>
    <g id="l3" class="link s2 d5"><path d="M 8.65,-5 C 6.92,-7.98 3.7,-10 0,-10" transform="rotate(270)"/></g>
    <g id="l4" class="link s3 d4"><path d="M 8.65,-5 C 6.92,-7.98 3.7,-10 0,-10" transform="rotate(30)"/></g>
    <g id="l5" class="link s4 d5"><path d="M 8.65,-5 C 6.92,-7.98 3.7,-10 0,-10" transform="rotate(330)"/></g>
    <g id="l6" class="link s10 d11"><path d="M 20,0 C 20,-11.04 11.04,-20 0,-20" transform="rotate(225)"/></g>
    <g id="l7" class="link s12 d13"><path d="M 14.125,-14.125 C 10.505,-17.745 5.52,-20 0,-20" transform="rotate(135)"/></g>
    <g id="l8" class="link s11 d12"><path d="M 14.125,-14.125 C 10.505,-17.745 5.52,-20 0,-20" transform="rotate(180)"/></g>
    <g id="l9" class="link s7 d10"><path d="M 14.125,-14.125 C 10.505,-17.745 5.52,-20 0,-20" transform="rotate(315)"/></g>
    <g id="l10" class="link s6 d7"><path d="M 10,-17.31 C 7.05,-19.01 3.64,-20 0,-20" transform="rotate(0)"/></g>
    <g id="l11" class="link s8 d6"><path d="M 10,-17.31 C 7.05,-19.01 3.64,-20 0,-20" transform="rotate(30)"/></g>
    <g id="l13" class="link s4 d8"><line x1="17.32" y1="-10" x2="5" y2="-8.66"/></g>
    <g id="l14" class="link"><line x1="-14.14" y1="-14.14" x2="-5" y2="-8.66"/></g>
    <g id="l15" class="link"><path d="M 0,-20 L 0,-25 C -13.8,-25 -25,-13.8 -25,0 C -25,13.8 -13.8,25 0,25 L 0,20"/></g>
    <g id="l16" class="link"><path d="M 8.65,-5 C 6.92,-7.98 3.7,-10 0,-10" transform="rotate(140)"/></g>
    <g id="l17" class="link s13 d14"><line x1="14.14" y1="14.14" x2="5" y2="8.66"/></g>

    <g id="1" transform="translate(0,0)"  class="blue node">
        <circle cx="0" cy="0" r="3.5" class="c1"/><circle cx="0" cy="0" r="3" class="c2"/><circle cx="0" cy="0" r="2" class="c3"/>
        <text y="1">10</text>
    </g>

    <g id="2" transform="translate(-10,0)" class="blue node">
        <circle cx="0" cy="0" r="3.5" class="c1"/><circle cx="0" cy="0" r="3" class="c2"/><circle cx="0" cy="0" r="2" class="c3"/>
        <text y="1">+5</text>
    </g>

    <g id="3" transform="translate(10,0)" class="blue node">
        <circle cx="0" cy="0" r="3.5" class="c1"/><circle cx="0" cy="0" r="3" class="c2"/><circle cx="0" cy="0" r="2" class="c3"/>
        <text y="1" class="nb">0</text>
    </g>

    <g id="4" transform="translate(5,-8.66)" class="blue node">
        <circle cx="0" cy="0" r="3.5" class="c1"/><circle cx="0" cy="0" r="3" class="c2"/><circle cx="0" cy="0" r="2" class="c3"/>
        <text y="1">20</text>
    </g>

    <g id="5" transform="translate(-5,-8.66)" class="blue node">
        <circle cx="0" cy="0" r="3.5" class="c1"/><circle cx="0" cy="0" r="3" class="c2"/><circle cx="0" cy="0" r="2" class="c3"/>
        <text y="1">+10</text>
    </g>

    <g id="6" transform="translate(10,-17.32)" class="blue node">
        <circle cx="0" cy="0" r="3.5" class="c1"/><circle cx="0" cy="0" r="3" class="c2"/><circle cx="0" cy="0" r="2" class="c3"/>
        <text y="1" class="nb">x</text>
    </g>

    <g id="7" transform="translate(0,-20)" class="green node">
        <circle cx="0" cy="0" r="3.5" class="c1"/><circle cx="0" cy="0" r="3" class="c2"/><circle cx="0" cy="0" r="2" class="c3"/>
        <text y="1" class="nb">x</text>
    </g>

    <g id="8" transform="translate(17.32,-10)" class="green node">
        <circle cx="0" cy="0" r="3.5" class="c1"/><circle cx="0" cy="0" r="3" class="c2"/><circle cx="0" cy="0" r="2" class="c3"/>
        <text y="1">N+</text>
    </g>

    <g id="10" transform="translate(-14.14,-14.14)" class="blue node">
        <circle cx="0" cy="0" r="3.5" class="c1"/><circle cx="0" cy="0" r="3" class="c2"/><circle cx="0" cy="0" r="2" class="c3"/>
        <text y="1" class="nb">+</text>
    </g>

    <g id="11" transform="translate(-14.14,14.14)" class="green node">
        <circle cx="0" cy="0" r="3.5" class="c1"/><circle cx="0" cy="0" r="3" class="c2"/><circle cx="0" cy="0" r="2" class="c3"/>
        <text y="1" class="nb">-</text>
    </g>

    <g id="12" transform="translate(0,20)" class="green node">
        <circle cx="0" cy="0" r="3.5" class="c1"/><circle cx="0" cy="0" r="3" class="c2"/><circle cx="0" cy="0" r="2" class="c3"/>
        <text y="1" class="nb">/</text>
    </g>

    <g id="13" transform="translate(14.14,14.14)" class="yellow node">
        <circle cx="0" cy="0" r="3.5" class="c1"/><circle cx="0" cy="0" r="3" class="c2"/><circle cx="0" cy="0" r="2" class="c3"/>
        <path class="star" d="M 0,-2.9 C 0.02,-2.9 0.80,-1.04 0.82,-1.03 C 0.84,-1.02 2.84,-0.84 2.85,-0.82 C 2.86,-0.81 1.34,0.51 1.33,0.53 C 1.32,0.55 1.78,2.51 1.76,2.52 C 1.74,2.54 0.02,1.5 0,1.5 C -0.02,1.5 -1.74,2.54 -1.76,2.53 C -1.78,2.51 -1.32,0.55 -1.33,0.53 C -1.34,0.51 -2.86,-0.80 -2.85,-0.83 C -2.84,-0.84 -0.84,-1.02 -0.82,-1.03 C -0.80,-1.04 -0.02,-2.9 0,-2.9 z"/>
    </g>

    <g id="14" transform="translate(5,8.66)" class="orange node">
        <circle cx="0" cy="0" r="3.5" class="c1"/><circle cx="0" cy="0" r="3" class="c2"/><circle cx="0" cy="0" r="2" class="c3"/>
        <text y="1">+-*/</text>
    </g>

    <g id="15" transform="translate(-5,8.66)" class="red node">
        <circle cx="0" cy="0" r="3.5" class="c1"/><circle cx="0" cy="0" r="3" class="c2"/><circle cx="0" cy="0" r="2" class="c3"/>
        <text y="1">+-*/</text>
    </g>
    </g>

    <!-- SUDOKU -->
    <!--
    <g transform="translate(100,50)">
    <use x="0" y="0" xlink:href="#r4"/>
    <g id="l9001" class="link"><line x1="0" y1="-20" x2="0" y2="-10"/></g>
    <g id="l9002" class="link"><line x1="17.32" y1="-10" x2="8.66" y2="-5"/></g>
    <g id="l9003" class="link"><line x1="17.32" y1="10" x2="8.66" y2="5"/></g>
    <g id="l9004" class="link"><line x1="0" y1="20" x2="0" y2="10"/></g>
    <g id="l9005" class="link"><line x1="-17.32" y1="10" x2="-8.66" y2="5"/></g>
    <g id="l9011" class="link"><path id="l4g" d="M 17.31,-10 C 13.85,-15.97 7.39,-20 0,-20" transform="rotate(0)"/></g>
    <g id="l9012" class="link"><path id="l4g" d="M 17.31,-10 C 13.85,-15.97 7.39,-20 0,-20" transform="rotate(60)"/></g>
    <g id="l9013" class="link"><path id="l4g" d="M 17.31,-10 C 13.85,-15.97 7.39,-20 0,-20" transform="rotate(120)"/></g>
    <g id="l9014" class="link"><path id="l4g" d="M 17.31,-10 C 13.85,-15.97 7.39,-20 0,-20" transform="rotate(180)"/></g>

    <g id="9001" transform="translate(0,-20)" class="blue node">
        <circle cx="0" cy="0" r="3.5" class="c1"/><circle cx="0" cy="0" r="3" class="c2"/><circle cx="0" cy="0" r="2" class="c3"/>
        <text y="1">#1</text>
    </g>

    <g id="9002" transform="translate(17.32,-10)" class="green node">
        <circle cx="0" cy="0" r="3.5" class="c1"/><circle cx="0" cy="0" r="3" class="c2"/><circle cx="0" cy="0" r="2" class="c3"/>
        <text y="1">#2</text>
    </g>

    <g id="9003" transform="translate(17.32,10)" class="yellow node">
        <circle cx="0" cy="0" r="3.5" class="c1"/><circle cx="0" cy="0" r="3" class="c2"/><circle cx="0" cy="0" r="2" class="c3"/>
        <text y="1">#3</text>
    </g>

    <g id="9004" transform="translate(0,20)" class="orange node">
        <circle cx="0" cy="0" r="3.5" class="c1"/><circle cx="0" cy="0" r="3" class="c2"/><circle cx="0" cy="0" r="2" class="c3"/>
        <text y="1">#4</text>
    </g>

    <g id="9005" transform="translate(-17.32,10)" class="red node">
        <circle cx="0" cy="0" r="3.5" class="c1"/><circle cx="0" cy="0" r="3" class="c2"/><circle cx="0" cy="0" r="2" class="c3"/>
        <text y="1">#5</text>
    </g>

    <g id="9011" transform="translate(0,-10)" class="blue node">
        <circle cx="0" cy="0" r="3.5" class="c1"/><circle cx="0" cy="0" r="3" class="c2"/><circle cx="0" cy="0" r="2" class="c3"/>
        <text y="1" class="nb">...</text>
    </g>

    <g id="9012" transform="translate(8.66,-5)" class="green node">
        <circle cx="0" cy="0" r="3.5" class="c1"/><circle cx="0" cy="0" r="3" class="c2"/><circle cx="0" cy="0" r="2" class="c3"/>
        <text y="1" class="nb">...</text>
    </g>

    <g id="9013" transform="translate(8.66,5)" class="yellow node">
        <circle cx="0" cy="0" r="3.5" class="c1"/><circle cx="0" cy="0" r="3" class="c2"/><circle cx="0" cy="0" r="2" class="c3"/>
        <text y="1" class="nb">...</text>
    </g>

    <g id="9014" transform="translate(0,10)" class="orange node">
        <circle cx="0" cy="0" r="3.5" class="c1"/><circle cx="0" cy="0" r="3" class="c2"/><circle cx="0" cy="0" r="2" class="c3"/>
        <text y="1" class="nb">...</text>
    </g>

    <g id="9015" transform="translate(-8.66,5)" class="red node">
        <circle cx="0" cy="0" r="3.5" class="c1"/><circle cx="0" cy="0" r="3" class="c2"/><circle cx="0" cy="0" r="2" class="c3"/>
        <text y="1" class="nb">...</text>
    </g>
    </g>
    -->

    <!-- PROGRAMMATION -->
    <g transform="translate(25,40)">
    <use x="0" y="0" xlink:href="#r4"/>
    <g id="1000" transform="translate(0,-20)" class="blue node">
        <circle cx="0" cy="0" r="3.5" class="c1"/><circle cx="0" cy="0" r="3" class="c2"/><circle cx="0" cy="0" r="2" class="c3"/>
        <text y="1">0#1</text>
    </g>
    </g>

    </g>


    <!-- DEBUG -->
    <g class="dbg" transform="translate(40,110)">
        <rect x="-32" y="-32" rx="5" width="64" height="64" class="c3" style="stroke:black;fill-opacity:0.8;stroke:#4c4237;stroke-width:1;"/>
        <use x="-10" y="-15" xlink:href="#r2"/><use x="10" y="8" xlink:href="#r3"/>
        <text transform="translate(0,30)">Propagation d'activation</text>

        <g class="link s9990 d9991" transform="translate(-10,-15)"><path d="M 0,10 C 5.52,10 10,5.52 10,0 C 10,-5.52 5.52,-10 0,-10" transform="rotate(270)"/></g>
        <g class="link s9990 d9992"><path d="M -20,-15 L -20,0 Q -20,8 -12,8 L -4,8"/></g>
        <g class="link s9991 d9993"><path d="M 0,-15 L 0,-10 Q 0,-6 4,-6 L 10,-6"/></g>
        <g class="link s9992 d9994" transform="translate(10,8)"><path d="M 0,14 C 7.728,14 14,7.728 14,0 C 14,-3.864 12.44,-7.37 9.90,-9.90" transform="rotate(90)"/></g>
        <g class="link s9993 d9994" transform="translate(10,8)"><path d="M 0,14 C 7.728,14 14,7.728 14,0 C 14,-3.864 12.44,-7.37 9.90,-9.90" transform="rotate(315)"/></g>

        <g id="9990" transform="translate(-20,-15)" class="blue node">
            <circle cx="0" cy="0" r="3.5" class="c1"/><circle cx="0" cy="0" r="3" class="c2"/><circle cx="0" cy="0" r="2" class="c3"/>
            <text y="1">...</text>
        </g>
        <g id="9991" transform="translate(0,-15)" class="green node">
            <circle cx="0" cy="0" r="3.5" class="c1"/><circle cx="0" cy="0" r="3" class="c2"/><circle cx="0" cy="0" r="2" class="c3"/>
            <text y="1">...</text>
        </g>
        <g id="9992" transform="translate(-4,8)" class="yellow node">
            <circle cx="0" cy="0" r="3.5" class="c1"/><circle cx="0" cy="0" r="3" class="c2"/><circle cx="0" cy="0" r="2" class="c3"/>
            <text y="1">...</text>
        </g>
        <g id="9993" transform="translate(10,-6)" class="orange node">
            <circle cx="0" cy="0" r="3.5" class="c1"/><circle cx="0" cy="0" r="3" class="c2"/><circle cx="0" cy="0" r="2" class="c3"/>
            <text y="1">...</text>
        </g>
        <g id="9994" transform="translate(20,18)" class="red node">
            <circle cx="0" cy="0" r="3.5" class="c1"/><circle cx="0" cy="0" r="3" class="c2"/><circle cx="0" cy="0" r="2" class="c3"/>
            <text y="1">...</text>
        </g>
    </g>

    <!-- UNCLASSED NODES -->
    <g class="dbg" transform="translate(40,40)">
        <rect x="-32" y="-32" rx="5" width="64" height="64" class="c3" style="stroke:black;fill-opacity:0.8;stroke:#4c4237;stroke-width:1;"/>
        <text transform="translate(0,30)">Noeuds à valider</text>

        <g id="1" transform="translate(-25,-25)"  class="blue node">
            <circle cx="0" cy="0" r="3.5" class="c1"/><circle cx="0" cy="0" r="3" class="c2"/><circle cx="0" cy="0" r="2" class="c3"/>
            <text y="1">10</text>
        </g>
        <g id="2" transform="translate(-15,-25)"  class="blue node">
            <circle cx="0" cy="0" r="3.5" class="c1"/><circle cx="0" cy="0" r="3" class="c2"/><circle cx="0" cy="0" r="2" class="c3"/>
            <text y="1">+5</text>
        </g>
        <g id="3" transform="translate(-5,-25)" class="blue node">
            <circle cx="0" cy="0" r="3.5" class="c1"/><circle cx="0" cy="0" r="3" class="c2"/><circle cx="0" cy="0" r="2" class="c3"/>
            <text y="1" class="nb">0</text>
        </g>
        <g id="13" transform="translate(5,-25)" class="yellow node">
            <circle cx="0" cy="0" r="3.5" class="c1"/><circle cx="0" cy="0" r="3" class="c2"/><circle cx="0" cy="0" r="2" class="c3"/>
            <path class="star" d="M 0,-2.9 C 0.02,-2.9 0.80,-1.04 0.82,-1.03 C 0.84,-1.02 2.84,-0.84 2.85,-0.82 C 2.86,-0.81 1.34,0.51 1.33,0.53 C 1.32,0.55 1.78,2.51 1.76,2.52 C 1.74,2.54 0.02,1.5 0,1.5 C -0.02,1.5 -1.74,2.54 -1.76,2.53 C -1.78,2.51 -1.32,0.55 -1.33,0.53 C -1.34,0.51 -2.86,-0.80 -2.85,-0.83 C -2.84,-0.84 -0.84,-1.02 -0.82,-1.03 C -0.80,-1.04 -0.02,-2.9 0,-2.9 z"/>
        </g>
    </g>

</g>

</svg>
