<?xml version="1.0" encoding="UTF-8" standalone="no"?>
<svg xmlns:svg="http://www.w3.org/2000/svg" xmlns:xlink="http://www.w3.org/1999/xlink" xmlns="http://www.w3.org/2000/svg" version="1.0" width="100%" height="100%" viewBox="0 0 360 270" id="skills">
<defs id="defs2385">
    <style type="text/css">

        /* DEFAULT THEME : KRAKEN */

        .background rect                    { fill:#241f1c; }
        .background text                    { font-size:6px;fill:#4c4237; }
        .c1                                 { fill:#4c4237; }
        .available .c1                      { fill:#EEEE88; }
        .c2                                 { fill:#4c4237; }
        .c3                                 { fill:#241f1c; }
        .star                               { stroke:#241f1c;stroke-width:0.1;}
        #nodes text                         { font-size:4px;font-weight:bold;text-anchor:middle;
                                              font-family:Times New Roman;stroke:#241f1c;stroke-width:0.1; fill:#4c4237;}
        #nodes text.nb                      { stroke:none; }
        .available.blue .c2                 { fill:#44BBFF; }
        .available.green .c2                { fill:#55EE22; }
        .available.yellow .c2               { fill:#FFFF00; }
        .available.orange .c2               { fill:#FF5522; }
        .available.red .c2                  { fill:#FF2200; }

        .star                               { fill:#4c4237; stroke:#241f1c;stroke-width:0.2;}
        .available.blue .star               { fill:#66CCFF; }
        .available.green .star              { fill:#88FF77; }
        .available.yellow .star             { fill:#FFFF77; }
        .available.orange .star             { fill:#FF7744; }
        .available.red .star                { fill:#FF4422; }

        .node                               { cursor:pointer; }
        #nodes .available.blue text         { fill:#44BBFF; }
        #nodes .available.green text        { fill:#55EE22; }
        #nodes .available.yellow text       { fill:#FFFF00; }
        #nodes .available.orange text       { fill:#FF5522; }
        #nodes .available.red text          { fill:#FF2200; }
        .link>*                             { fill:none;stroke:#4c4237;stroke-width:0.6; }
        .available.link>*                   { stroke:#EEEE88; }
        .rbg                                { fill:none;stroke:#4c4237;stroke-width:8;stroke-opacity:0.5; }
        .rgg                                { fill:#4c4237;fill-opacity:0.5; }
        .rfg                                { fill:none;stroke:#4c4237;stroke-width:5;stroke-opacity:0.5; }
        .rbd                                { fill:none;stroke:#4c4237;stroke-width:1;stroke-opacity:0.8; }
        .rbb                                { fill:none;stroke:#4c4237;stroke-width:.6;stroke-opacity:0.8; }

        rect.w                              { fill:none;stroke:#4c4237;stroke-width:.4;}
        text.w                              { font-size:4px;fill:#4c4237; text-anchor:middle; }

        .debug .dbg                         { display:inline; }
        .debug #release                     { display:none; }
        .dbg                                { display:none; }
        .available.current .c1              { fill:#EEEE88; stroke:#EEEE88; stroke-width:1; }
        .available.source .c1               { fill:#FF5555; stroke:#FF5555; stroke-width:1; }
        .available.dest .c1                 { fill:#80EEEE; stroke:#80EEEE; stroke-width:1; }
        .available.source.link>*            { stroke:#FF5555; stroke-width:1; }
        .available.dest.link>*              { stroke:#80EEEE; stroke-width:1; }

        /* THEME : NEMO */

        .Nemo .background rect              { fill:#66BBFF; }
        .Nemo .c1                           { fill:#88CCFF; }
        .Nemo .available .c1                { fill:white; }
        .Nemo .c2                           { fill:#66BBFF; }
        .Nemo .c3                           { fill:#336688; }
        .Nemo #nodes text                   { stroke:gray;fill:#336688;}
        .Nemo #nodes .available text        { fill:white; }
        .Nemo .link>*                       { stroke:#88CCFF; }
        .Nemo .available.link>*             { stroke:white;stroke-width:0.8; }

        .Nemo .rbg                          { stroke:white; }
        .Nemo .rgg                          { fill:white; }
        .Nemo .rfg                          { stroke:white; }
        .Nemo .rbd                          { stroke:white; }
        .Nemo .rbb                          { stroke:white; }

        /* THEME : Ulysse */
        .Ulysse .background rect              { fill:white; }
        .Ulysse .c1                           { fill:#ddd; }
        .Ulysse .available .c1                { fill:red; }
        .Ulysse .c2                           { fill:gray; }
        .Ulysse .c3                           { fill:#eee; }
        .Ulysse .link>*                       { stroke:#ddd; }
        .Ulysse #nodes text                   { stroke:black;fill:#eee;}
        .Ulysse #nodes .available text        { fill:black; }
        .Ulysse .available.link>*             { stroke:red; }
        .Ulysse .available .c2                { fill:#F88 !important; }
        .Ulysse .rbg                          { stroke:gray; }
        .Ulysse .rgg                          { fill:gray; }
        .Ulysse .rfg                          { stroke:gray; }
        .Ulysse .rbd                          { stroke:gray; }
        .Ulysse .rbb                          { stroke:gray; }


    </style>
</defs>

<!-- SKILL TEMPLATE -->

<g style="display:none;">
    <g id="r1"><circle cx="0" cy="0" r="7" class="rgg"/><circle cx="0" cy="0" r="7" class="rbb"/></g>
    <g id="r2"><circle cx="0" cy="0" r="10" class="rgg"/><circle cx="0" cy="0" r="10" class="rbd"/></g>
    <g id="r3"><circle cx="0" cy="0" r="10" class="rbg"/><circle cx="0" cy="0" r="10" class="rfg"/><circle cx="0" cy="0" r="6" class="rbd"/><circle cx="0" cy="0" r="14" class="rbd"/></g>
    <g id="r4"><circle cx="0" cy="0" r="10" class="rbg"/><circle cx="0" cy="0" r="10" class="rfg"/><circle cx="0" cy="0" r="6" class="rbd"/><circle cx="0" cy="0" r="16" class="rfg"/><circle cx="0" cy="0" r="20" class="rbb"/></g>
</g>


<!-- LINKS TEMPLATE -->
<g style="display:none;">
    <path id="l03.180" d="M 3.03,1.75 C 3.32,1.23 3.5,0.63 3.5,0 C 3.5,-1.93 1.93,-3.5 0,-3.5"/>
    <path id="l06.180" d="M 0,6 C 3.312,6 6,3.312 6,0 C 6,-3.312 3.312,-6 0,-6"/>
    <path id="l06.090" d="M 6,0 C 6,-3.312 3.312,-6 0,-6"/>
    <path id="l07.180" d="M 0,7 C 3.864,7 7,3.864 7,0 C 7,-3.864 3.864,-7 0,-7"/>
    <path id="l07.120" d="M 6.06,3.5 C 6.66,2.47 7,1.27 7,0 C 7,-3.864 3.864,-7 0,-7"/>
    <path id="l07.090" d="M 7,0 C 7,-3.864 3.864,-7 0,-7"/>
    <path id="l10.180" d="M 0,10 C 5.52,10 10,5.52 10,0 C 10,-5.52 5.52,-10 0,-10"/>
    <path id="l10.090" d="M 10,0 C 10,-5.52 5.52,-10 0,-10"/>
    <path id="l10.60" d="M 8.65,-5 C 6.92,-7.98 3.7,-10 0,-10"/>
    <path id="l10.45" d="M 7.06,-7.06 C 5.25,-8.87 2.76,-10 0,-10"/>
    <path id="l14.180" d="M 14,0 C 14,-7.728 7.728,-14 0,-14 C -7.728,-14 -14,-7.728 -14,0"/>
    <path id="l14.135" d="M 0,14 C 7.728,14 14,7.728 14,0 C 14,-3.864 12.44,-7.37 9.90,-9.90"/>
    <path id="l14.90" d="M 0,14 C 7.728,14 14,7.728 14,0"/>
    <path id="l14.45" d="M 9.9,-9.9 C 7.37,-12.44 3.86,-14 0,-14"/>
    <path id="l20.180" d="M 0,20 C 11.03,20 20,11.03 20,0 C 20,-11.03 11.03,-20 0,-20"/>
    <path id="l20.90" d="M 20,0 C 20,-11.04 11.04,-20 0,-20"/>
    <path id="l20.60" d="M 17.31,-10 C 13.62,-16.26 7.13,-19.79 0,-20"/>
    <path id="l20.45" d="M 14.125,-14.125 C 10.505,-17.745 5.52,-20 0,-20"/>
    <path id="l20.30" d="M 10,-17.31 C 7.05,-19.01 3.64,-20 0,-20"/>

</g>

<!-- BACKGROUND -->
<g class="background">
    <rect width="640" height="480" x="0" y="0" id="mapbg"/>
</g>

<!-- SKILLS -->
<g id="nodes">
  <g id="release">

    <!-- SUDOKU -->
    <g transform="translate(145,60)">
        <use x="0" y="0" xlink:href="#r4"/>
        <g class="link s9001 d9002" transform="rotate(120)"><path d="M 17.31,-10 C 13.62,-16.26 7.13,-19.79 0,-20"/></g>
        <g class="link s9002 d9003" transform="rotate(60)"><path d="M 17.31,-10 C 13.62,-16.26 7.13,-19.79 0,-20"/></g>
        <g class="link s9003 d9004" transform="rotate(0)"><path d="M 17.31,-10 C 13.62,-16.26 7.13,-19.79 0,-20"/></g>
        <g class="link s9004 d9005" transform="rotate(-60)"><path d="M 17.31,-10 C 13.62,-16.26 7.13,-19.79 0,-20"/></g>
        <g class="link s9001 d9011"><path d="M 0,20 L 0,10"/></g>
        <g class="link s9002 d9012"><path d="M 17.32,10 L 8.66,5"/></g>
        <g class="link s9003 d9013"><path d="M 17.32,-10 L 8.66,-5"/></g>
        <g class="link s9004 d9014"><path d="M 0,-20 L 0,-10"/></g>
        <g class="link s9005 d9015"><path d="M -17.32,-10 L -8.66,-5"/></g>

        <g id="9001" transform="translate(0,20)"  class="blue node">
            <circle cx="0" cy="0" r="3.5" class="c1"/><circle cx="0" cy="0" r="3" class="c2"/><circle cx="0" cy="0" r="2" class="c3"/>
            <text y="1">...</text>
        </g>
        <g id="9002" transform="translate(17.32,10)"  class="green node">
            <circle cx="0" cy="0" r="3.5" class="c1"/><circle cx="0" cy="0" r="3" class="c2"/><circle cx="0" cy="0" r="2" class="c3"/>
            <text y="1">...</text>
        </g>
        <g id="9003" transform="translate(17.32,-10)"  class="yellow node">
            <circle cx="0" cy="0" r="3.5" class="c1"/><circle cx="0" cy="0" r="3" class="c2"/><circle cx="0" cy="0" r="2" class="c3"/>
            <text y="1">...</text>
        </g>
        <g id="9004" transform="translate(0,-20)"  class="orange node">
            <circle cx="0" cy="0" r="3.5" class="c1"/><circle cx="0" cy="0" r="3" class="c2"/><circle cx="0" cy="0" r="2" class="c3"/>
            <text y="1">...</text>
        </g>
        <g id="9005" transform="translate(-17.32,-10)"  class="red node">
            <circle cx="0" cy="0" r="3.5" class="c1"/><circle cx="0" cy="0" r="3" class="c2"/><circle cx="0" cy="0" r="2" class="c3"/>
            <text y="1">...</text>
        </g>
        <g id="9011" transform="translate(0,10)"  class="blue node">
            <circle cx="0" cy="0" r="3.5" class="c1"/><circle cx="0" cy="0" r="3" class="c2"/><circle cx="0" cy="0" r="2" class="c3"/>
            <text y="1">1</text>
        </g>
        <g id="9012" transform="translate(8.66,5)"  class="green node">
            <circle cx="0" cy="0" r="3.5" class="c1"/><circle cx="0" cy="0" r="3" class="c2"/><circle cx="0" cy="0" r="2" class="c3"/>
            <text y="1">2</text>
        </g>
        <g id="9013" transform="translate(8.66,-5)"  class="yellow node">
            <circle cx="0" cy="0" r="3.5" class="c1"/><circle cx="0" cy="0" r="3" class="c2"/><circle cx="0" cy="0" r="2" class="c3"/>
            <text y="1">3</text>
        </g>
        <g id="9014" transform="translate(0,-10)"  class="orange node">
            <circle cx="0" cy="0" r="3.5" class="c1"/><circle cx="0" cy="0" r="3" class="c2"/><circle cx="0" cy="0" r="2" class="c3"/>
            <text y="1">4</text>
        </g>
        <g id="9015" transform="translate(-8.66,-5)"  class="red node">
            <circle cx="0" cy="0" r="3.5" class="c1"/><circle cx="0" cy="0" r="3" class="c2"/><circle cx="0" cy="0" r="2" class="c3"/>
            <text y="1">5</text>
        </g>
    </g>


    <!-- FRENCH -->
    <g transform="translate(40,120)">

        <g transform="translate(-20,0)">
            <use x="0" y="0" xlink:href="#r1"/>
            <g class="link s10001 d10002" transform="rotate(-90)"><path d="M 6.06,3.5 C 6.66,2.47 7,1.27 7,0 C 7,-3.864 3.864,-7 0,-7"/></g>
            <g class="link s10001 d10003" transform="rotate(150)"><path d="M 6.06,3.5 C 6.66,2.47 7,1.27 7,0 C 7,-3.864 3.864,-7 0,-7"/></g>
            <g class="link s10002 d10011"><path d="M 3.5,-6.06 L 15,-6.06 Q 15,0 21,0"/></g>
            <g class="link s10003 d10011"><path d="M 3.5,6.06 L 15,6.06 Q 15,0 21,0"/></g>

            <g id="10001" transform="translate(-7,0)"  class="blue node">
                <circle cx="0" cy="0" r="3.5" class="c1"/><circle cx="0" cy="0" r="3" class="c2"/><circle cx="0" cy="0" r="2" class="c3"/>
                <text y="1">Nom</text>
            </g>
            <g id="10002" transform="translate(3.5,-6.06)"  class="blue node">
                <circle cx="0" cy="0" r="3.5" class="c1"/><circle cx="0" cy="0" r="3" class="c2"/><circle cx="0" cy="0" r="2" class="c3"/>
                <text y="1">-s</text>
            </g>
            <g id="10003" transform="translate(3.5,6.06)"  class="blue node">
                <circle cx="0" cy="0" r="3.5" class="c1"/><circle cx="0" cy="0" r="3" class="c2"/><circle cx="0" cy="0" r="2" class="c3"/>
                <text y="1">-e</text>
            </g>
        </g>

        <g transform="translate(15,0)">
            <use x="0" y="0" xlink:href="#r3"/>
            <g class="link s10011 d10012" transform="rotate(-90)"><path d="M 9.9,-9.9 C 7.37,-12.44 3.86,-14 0,-14"/></g>
            <g class="link s10012 d10013" transform="rotate(-45)"><path d="M 9.9,-9.9 C 7.37,-12.44 3.86,-14 0,-14"/></g>
            <g class="link s10013 d10014" transform="rotate(0)"><path d="M 9.9,-9.9 C 7.37,-12.44 3.86,-14 0,-14"/></g>
            <g class="link s10014 d10018" transform="rotate(45)"><path d="M 9.9,-9.9 C 7.37,-12.44 3.86,-14 0,-14"/></g>
            <g class="link s10011 d10015" transform="rotate(-135)"><path d="M 9.9,-9.9 C 7.37,-12.44 3.86,-14 0,-14"/></g>
            <g class="link s10015 d10016" transform="rotate(180)"><path d="M 9.9,-9.9 C 7.37,-12.44 3.86,-14 0,-14"/></g>
            <g class="link s10016 d10017" transform="rotate(135)"><path d="M 9.9,-9.9 C 7.37,-12.44 3.86,-14 0,-14"/></g>
            <g class="link s10017 d10018" transform="rotate(90)"><path d="M 9.9,-9.9 C 7.37,-12.44 3.86,-14 0,-14"/></g>
            <g class="link s8 d10014"><path d="M 9.9,-9.9 L 9.9,-20 Q 9.9,-30 20,-30 L 105,-30 Q 127,-30 133,-10 L 123,-10"/></g>
            <g class="link s10018 d10051"><path d="M 14,0 L 20,0 Q 25,0 25,5 L 25,10"/></g>
            <g id="10011" transform="translate(-14,0)"  class="blue node">
                <circle cx="0" cy="0" r="3.5" class="c1"/><circle cx="0" cy="0" r="3" class="c2"/><circle cx="0" cy="0" r="2" class="c3"/>
                <text y="1">Dét.</text>
            </g>
            <g id="10012" transform="translate(-9.9,-9.9)"  class="blue node">
                <circle cx="0" cy="0" r="3.5" class="c1"/><circle cx="0" cy="0" r="3" class="c2"/><circle cx="0" cy="0" r="2" class="c3"/>
                <text y="1">Un</text>
            </g>
            <g id="10013" transform="translate(-0,-14)"  class="green node">
                <circle cx="0" cy="0" r="3.5" class="c1"/><circle cx="0" cy="0" r="3" class="c2"/><circle cx="0" cy="0" r="2" class="c3"/>
                <text y="1">Tel</text>
            </g>
            <g id="10014" transform="translate(9.9,-9.9)"  class="yellow node">
                <circle cx="0" cy="0" r="3.5" class="c1"/><circle cx="0" cy="0" r="3" class="c2"/><circle cx="0" cy="0" r="2" class="c3"/>
                <text y="1">Num</text>
            </g>
            <g id="10015" transform="translate(-9.9,9.9)"  class="blue node">
                <circle cx="0" cy="0" r="3.5" class="c1"/><circle cx="0" cy="0" r="3" class="c2"/><circle cx="0" cy="0" r="2" class="c3"/>
                <text y="1">Le</text>
            </g>
            <g id="10016" transform="translate(0,14)"  class="green node">
                <circle cx="0" cy="0" r="3.5" class="c1"/><circle cx="0" cy="0" r="3" class="c2"/><circle cx="0" cy="0" r="2" class="c3"/>
                <text y="1">Ma</text>
            </g>
            <g id="10017" transform="translate(9.9,9.9)"  class="green node">
                <circle cx="0" cy="0" r="3.5" class="c1"/><circle cx="0" cy="0" r="3" class="c2"/><circle cx="0" cy="0" r="2" class="c3"/>
                <text y="1">Cet</text>
            </g>
            <g id="10018" transform="translate(14,0)"  class="yellow node">
                <circle cx="0" cy="0" r="3.5" class="c1"/><circle cx="0" cy="0" r="3" class="c2"/><circle cx="0" cy="0" r="2" class="c3"/>
                <text y="1">!?</text>
            </g>
        </g>

        <g transform="translate(40,20)">
            <use x="0" y="0" xlink:href="#r2"/>
            <g class="link s10051 d10052" transform="rotate(180)"><path d="M 0,10 C 5.52,10 10,5.52 10,0 C 10,-5.52 5.52,-10 0,-10"/></g>
            <g class="link s10051 d10501" transform="rotate(0)"><path d="M 10,0 C 10,-5.52 5.52,-10 0,-10"/></g>
            <g class="link s10052 d10111"><path d="M 0,10 L 0,15 Q 0,20 -5,20 L -11,20"/></g>

            <g id="10051" transform="translate(0,-10)"  class="blue node">
                <circle cx="0" cy="0" r="3.5" class="c1"/><circle cx="0" cy="0" r="3" class="c2"/><circle cx="0" cy="0" r="2" class="c3"/>
                <text y="1">Adj</text>
            </g>
            <g id="10052" transform="translate(0,10)"  class="blue node">
                <circle cx="0" cy="0" r="3.5" class="c1"/><circle cx="0" cy="0" r="3" class="c2"/><circle cx="0" cy="0" r="2" class="c3"/>
                <text y="1">GN</text>
            </g>
            <g id="10501" transform="translate(10,0)"  class="blue node">
                <circle cx="0" cy="0" r="3.5" class="c1"/><circle cx="0" cy="0" r="3" class="c2"/><circle cx="0" cy="0" r="2" class="c3"/>
                <text y="1">V</text>
            </g>
        </g>

        <g transform="translate(15,40)">
            <use x="0" y="0" xlink:href="#r3"/>
            <g class="link s10111 d10112" transform="rotate(45)"><path d="M 9.9,-9.9 C 7.37,-12.44 3.86,-14 0,-14"/></g>
            <g class="link s10112 d10114" transform="rotate(0)"><path d="M 9.9,-9.9 C 7.37,-12.44 3.86,-14 0,-14"/></g>
            <g class="link s10111 d10115" transform="rotate(90)"><path d="M 9.9,-9.9 C 7.37,-12.44 3.86,-14 0,-14"/></g>
            <g class="link s10115 d10116" transform="rotate(135)"><path d="M 9.9,-9.9 C 7.37,-12.44 3.86,-14 0,-14"/></g>
            <g class="link s10116 d10117" transform="rotate(180)"><path d="M 9.9,-9.9 C 7.37,-12.44 3.86,-14 0,-14"/></g>
            <g class="link s10117 d10118" transform="rotate(225)"><path d="M 9.9,-9.9 C 7.37,-12.44 3.86,-14 0,-14"/></g>

            <g id="10111" transform="translate(14,0)"  class="blue node">
                <circle cx="0" cy="0" r="3.5" class="c1"/><circle cx="0" cy="0" r="3" class="c2"/><circle cx="0" cy="0" r="2" class="c3"/>
                <text y="1">Pro</text>
            </g>
            <g id="10112" transform="translate(9.9,-9.9)"  class="blue node">
                <circle cx="0" cy="0" r="3.5" class="c1"/><circle cx="0" cy="0" r="3" class="c2"/><circle cx="0" cy="0" r="2" class="c3"/>
                <text y="1">On</text>
            </g>
            <g id="10114" transform="translate(0,-14)"  class="blue node">
                <circle cx="0" cy="0" r="3.5" class="c1"/><circle cx="0" cy="0" r="3" class="c2"/><circle cx="0" cy="0" r="2" class="c3"/>
                <text y="1">Num</text>
            </g>
            <g id="10115" transform="translate(9.9,9.9)"  class="blue node">
                <circle cx="0" cy="0" r="3.5" class="c1"/><circle cx="0" cy="0" r="3" class="c2"/><circle cx="0" cy="0" r="2" class="c3"/>
                <text y="1">Je</text>
            </g>
            <g id="10116" transform="translate(0,14)"  class="blue node">
                <circle cx="0" cy="0" r="3.5" class="c1"/><circle cx="0" cy="0" r="3" class="c2"/><circle cx="0" cy="0" r="2" class="c3"/>
                <text y="1">Mien</text>
            </g>
            <g id="10117" transform="translate(-9.9,9.9)"  class="blue node">
                <circle cx="0" cy="0" r="3.5" class="c1"/><circle cx="0" cy="0" r="3" class="c2"/><circle cx="0" cy="0" r="2" class="c3"/>
                <text y="1">Ce</text>
            </g>
            <g id="10118" transform="translate(-14,0)"  class="blue node">
                <circle cx="0" cy="0" r="3.5" class="c1"/><circle cx="0" cy="0" r="3" class="c2"/><circle cx="0" cy="0" r="2" class="c3"/>
                <text y="1">Où</text>
            </g>
        </g>
    </g>


    <!-- [10] numeration until 10 -->
    <g transform="translate(160,120)">
        <use x="0" y="0" xlink:href="#r4"/>
        <g class="link s1 d2"><line x1="0" y1="0" x2="-10" y2="0"/></g>
        <g class="link s1 d3"><line x1="0" y1="0" x2="10" y2="0"/></g>
        <g class="link s2 d5"><path d="M 8.65,-5 C 6.92,-7.98 3.7,-10 0,-10" transform="rotate(270)"/></g>
        <g class="link s3 d4"><path d="M 8.65,-5 C 6.92,-7.98 3.7,-10 0,-10" transform="rotate(30)"/></g>
        <g class="link s4 d5"><path d="M 8.65,-5 C 6.92,-7.98 3.7,-10 0,-10" transform="rotate(330)"/></g>
        <g class="link s12 d13"><path d="M 14.125,-14.125 C 10.505,-17.745 5.52,-20 0,-20" transform="rotate(135)"/></g>
        <g class="link s5 d10"><line x1="-17.32" y1="-10" x2="-5" y2="-8.66"/></g>
        <g class="link s4 d8"><line x1="17.32" y1="-10" x2="5" y2="-8.66"/></g>
        <g class="link s13 d14"><line x1="14.14" y1="14.14" x2="5" y2="8.66"/></g>
        <g class="link s14 d15"><path d="M 8.65,-5 C 6.92,-7.98 3.7,-10 0,-10" transform="rotate(150)"/></g>
        <g class="link s6 d7"><path d="M 10,-17.31 C 7.05,-19.01 3.64,-20 0,-20" transform="rotate(0)"/></g>
        <g class="link s8 d6"><path d="M 10,-17.31 C 7.05,-19.01 3.64,-20 0,-20" transform="rotate(30)"/></g>
        <g class="link s7 d9"><path d="M 10,-17.31 C 7.05,-19.01 3.64,-20 0,-20" transform="rotate(-30)"/></g>
        <g class="link s10 d9"><path d="M 10,-17.31 C 7.05,-19.01 3.64,-20 0,-20" transform="rotate(-60)"/></g>
        <g class="link s10 d11"><path d="M 17.31,-10 C 13.62,-16.26 7.13,-19.79 0,-20" transform="rotate(-120)"/></g>
        <g class="link s11 d12"><path d="M 17.31,-10 C 13.62,-16.26 7.13,-19.79 0,-20" transform="rotate(180)"/></g>
        <g class="link s8 d21"><path d="M 17.32,-10 Q 20,-5 20,0 L 28,0"/></g>
        <g class="link s13 d22"><path d="M 14.14,14.14 L 43,14.14 Q 50,14.14 50,7 L50,0 L 42,0"/></g>
        <g class="link s9 d12"><path d="M -10,-17.31 L -15,-25.97 C -23.96,-20.78 -30,-11.1 -30,0 C -30,16.56 -16.56,30 0,30 L 0,20"/></g>
        <g class="link s13 d31"><line x1="14.14" y1="14.14" x2="14.14" y2="30"/></g>

        <g id="1" transform="translate(0,0)"  class="blue node">
            <circle cx="0" cy="0" r="3.5" class="c1"/><circle cx="0" cy="0" r="3" class="c2"/><circle cx="0" cy="0" r="2" class="c3"/>
            <text y="1">10</text>
        </g>

        <g id="2" transform="translate(-10,0)" class="blue node">
            <circle cx="0" cy="0" r="3.5" class="c1"/><circle cx="0" cy="0" r="3" class="c2"/><circle cx="0" cy="0" r="2" class="c3"/>
            <text y="1">+5</text>
        </g>

        <g id="3" transform="translate(10,0)" class="blue node">
            <circle cx="0" cy="0" r="3.5" class="c1"/><circle cx="0" cy="0" r="3" class="c2"/><circle cx="0" cy="0" r="2" class="c3"/>
            <text y="1" class="nb">0</text>
        </g>

        <g id="4" transform="translate(5,-8.66)" class="blue node">
            <circle cx="0" cy="0" r="3.5" class="c1"/><circle cx="0" cy="0" r="3" class="c2"/><circle cx="0" cy="0" r="2" class="c3"/>
            <text y="1">100</text>
        </g>

        <g id="5" transform="translate(-5,-8.66)" class="blue node">
            <circle cx="0" cy="0" r="3.5" class="c1"/><circle cx="0" cy="0" r="3" class="c2"/><circle cx="0" cy="0" r="2" class="c3"/>
            <text y="1">+10</text>
        </g>

        <g id="6" transform="translate(10,-17.32)" class="blue node">
            <circle cx="0" cy="0" r="3.5" class="c1"/><circle cx="0" cy="0" r="3" class="c2"/><circle cx="0" cy="0" r="2" class="c3"/>
            <text y="1" class="nb">x</text>
        </g>

        <g id="7" transform="translate(0,-20)" class="green node">
            <circle cx="0" cy="0" r="3.5" class="c1"/><circle cx="0" cy="0" r="3" class="c2"/><circle cx="0" cy="0" r="2" class="c3"/>
            <text y="1" class="nb">x</text>
        </g>

        <g id="8" transform="translate(17.32,-10)" class="green node">
            <circle cx="0" cy="0" r="3.5" class="c1"/><circle cx="0" cy="0" r="3" class="c2"/><circle cx="0" cy="0" r="2" class="c3"/>
            <text y="1">N+</text>
        </g>

        <g id="9" transform="translate(-10,-17.32)" class="yellow node">
            <circle cx="0" cy="0" r="3.5" class="c1"/><circle cx="0" cy="0" r="3" class="c2"/><circle cx="0" cy="0" r="2" class="c3"/>
            <text y="1" class="nb">x</text>
        </g>

        <g id="10" transform="translate(-17.32,-10)" class="blue node">
            <circle cx="0" cy="0" r="3.5" class="c1"/><circle cx="0" cy="0" r="3" class="c2"/><circle cx="0" cy="0" r="2" class="c3"/>
            <text y="1" class="nb">+</text>
        </g>

        <g id="11" transform="translate(-17.32,10)" class="green node">
            <circle cx="0" cy="0" r="3.5" class="c1"/><circle cx="0" cy="0" r="3" class="c2"/><circle cx="0" cy="0" r="2" class="c3"/>
            <text y="1" class="nb">-</text>
        </g>

        <g id="12" transform="translate(0,20)" class="green node">
            <circle cx="0" cy="0" r="3.5" class="c1"/><circle cx="0" cy="0" r="3" class="c2"/><circle cx="0" cy="0" r="2" class="c3"/>
            <text y="1" class="nb">/</text>
        </g>

        <g id="13" transform="translate(14.14,14.14)" class="yellow node">
            <circle cx="0" cy="0" r="3.5" class="c1"/><circle cx="0" cy="0" r="3" class="c2"/><circle cx="0" cy="0" r="2" class="c3"/>
            <path class="star" d="M 0,-2.9 C 0.02,-2.9 0.80,-1.04 0.82,-1.03 C 0.84,-1.02 2.84,-0.84 2.85,-0.82 C 2.86,-0.81 1.34,0.51 1.33,0.53 C 1.32,0.55 1.78,2.51 1.76,2.52 C 1.74,2.54 0.02,1.5 0,1.5 C -0.02,1.5 -1.74,2.54 -1.76,2.53 C -1.78,2.51 -1.32,0.55 -1.33,0.53 C -1.34,0.51 -2.86,-0.80 -2.85,-0.83 C -2.84,-0.84 -0.84,-1.02 -0.82,-1.03 C -0.80,-1.04 -0.02,-2.9 0,-2.9 z"/>
        </g>

        <g id="14" transform="translate(5,8.66)" class="orange node">
            <circle cx="0" cy="0" r="3.5" class="c1"/><circle cx="0" cy="0" r="3" class="c2"/><circle cx="0" cy="0" r="2" class="c3"/>
            <text y="1">+-*/</text>
        </g>

        <g id="15" transform="translate(-5,8.66)" class="red node">
            <circle cx="0" cy="0" r="3.5" class="c1"/><circle cx="0" cy="0" r="3" class="c2"/><circle cx="0" cy="0" r="2" class="c3"/>
            <text y="1">+-*/</text>
        </g>
    </g>

    <!-- -->
    <g transform="translate(174,160)">
        <g class="link s31 d51"><path d="M 0,-10 Q -10,-10 -10,0 L -10,13"/></g>
        <g class="link s31 d61"><path d="M 10,0 C 10,-5.52 5.52,-10 0,-10" transform="rotate(0)"/></g>
        <g class="link s31 d71"><path d="M 0,-10 Q 10,-10 10,-20 L 31,-20 Q 41,-20 41,-10"/></g>
        <g class="link s61 d72"><path d="M 10,3 L 41,3"/></g>
        <g class="link s62 d74"><path d="M 16,13.5 L 35,13.5"/></g>
        <g id="31" transform="translate(0,-10)" class="blue node">
            <circle cx="0" cy="0" r="3.5" class="c1"/><circle cx="0" cy="0" r="3" class="c2"/><circle cx="0" cy="0" r="2" class="c3"/>
            <text y="1">+*</text>
        </g>
        <g transform="translate(-10,20)">
            <use x="0" y="0" xlink:href="#r1"/>
            <g class="link s51 d52"><path d="M 6.06,3.5 C 6.66,2.47 7,1.27 7,0 C 7,-3.864 3.864,-7 0,-7" transform="rotate(0)"/></g>
            <g class="link s52 d75"><path d="M 6.06,3.5 L 36,3.5"/></g>
            <g id="51" transform="translate(0,-7)" class="blue node">
                <circle cx="0" cy="0" r="3.5" class="c1"/><circle cx="0" cy="0" r="3" class="c2"/><circle cx="0" cy="0" r="2" class="c3"/>
                <text y="1">-1</text>
            </g>
            <g id="52" transform="translate(6.06,3.5)" class="blue node">
                <circle cx="0" cy="0" r="3.5" class="c1"/><circle cx="0" cy="0" r="3" class="c2"/><circle cx="0" cy="0" r="2" class="c3"/>
                <text y="1">Z</text>
            </g>
        </g>
        <g transform="translate(10,10)">
            <use x="0" y="0" xlink:href="#r1"/>
            <g class="link s61 d62">
                <path d="M 6.06,3.5 C 6.66,2.47 7,1.27 7,0 C 7,-3.864 3.864,-7 0,-7" transform="rotate(-120)"/>
                <path d="M 6.06,3.5 C 6.66,2.47 7,1.27 7,0 C 7,-3.864 3.864,-7 0,-7" transform="rotate(120)"/></g>
            <g id="61" transform="translate(0,-7)" class="green node">
                <circle cx="0" cy="0" r="3.5" class="c1"/><circle cx="0" cy="0" r="3" class="c2"/><circle cx="0" cy="0" r="2" class="c3"/>
                <text y="1">7</text>
            </g>
            <g id="62" transform="translate(6.06,3.5)" class="yellow node">
                <circle cx="0" cy="0" r="3.5" class="c1"/><circle cx="0" cy="0" r="3" class="c2"/><circle cx="0" cy="0" r="2" class="c3"/>
                <text y="1">m/d</text>
            </g>
        </g>
    </g>

    <!-- FRACTION -->
    <g transform="translate(215,170)">
        <use x="0" y="0" xlink:href="#r1"/>
        <g class="link s71 d72"><path d="M 0,-20 L 0,-7"/></g>
        <g class="link s72 d73"><path d="M 6.06,3.5 C 6.66,2.47 7,1.27 7,0 C 7,-3.864 3.864,-7 0,-7" transform="rotate(0)"/></g>
        <g class="link s73 d74"><path d="M 6.06,3.5 C 6.66,2.47 7,1.27 7,0 C 7,-3.864 3.864,-7 0,-7" transform="rotate(120)"/></g>
        <g class="link s74 d75"><path d="M -6.06,3.5 L -6.06,8.5 Q -6.06,13.5 -11.06,13.5 L -15,13.5"/></g>
        <g id="71" transform="translate(0,-20)" class="green node">
            <circle cx="0" cy="0" r="3.5" class="c1"/><circle cx="0" cy="0" r="3" class="c2"/><circle cx="0" cy="0" r="2" class="c3"/>
            <text y="1">1/2</text>
        </g>
        <g id="72" transform="translate(0,-7)" class="green node">
            <circle cx="0" cy="0" r="3.5" class="c1"/><circle cx="0" cy="0" r="3" class="c2"/><circle cx="0" cy="0" r="2" class="c3"/>
            <text y="1">*</text>
        </g>
        <g id="73" transform="translate(6.06,3.5)" class="green node">
            <circle cx="0" cy="0" r="3.5" class="c1"/><circle cx="0" cy="0" r="3" class="c2"/><circle cx="0" cy="0" r="2" class="c3"/>
            <text y="1">+</text>
        </g>
        <g id="74" transform="translate(-6.06,3.5)" class="yellow node">
            <circle cx="0" cy="0" r="3.5" class="c1"/><circle cx="0" cy="0" r="3" class="c2"/><circle cx="0" cy="0" r="2" class="c3"/>
            <text y="1">++</text>
        </g>
        <g id="75" transform="translate(-15,13.5)" class="orange node">
            <circle cx="0" cy="0" r="3.5" class="c1"/><circle cx="0" cy="0" r="3" class="c2"/><circle cx="0" cy="0" r="2" class="c3"/>
            <text y="1">/-1</text>
        </g>
    </g>

    <!-- BASE, CALCUL LOGIQUE ET INFORMATIQUE -->
    <g transform="translate(195,120)">
        <use x="0" y="0" xlink:href="#r1"/>
        <g class="link s21 d22"><path d="M 0,7 C 3.864,7 7,3.864 7,0 C 7,-3.864 3.864,-7 0,-7" transform="rotate(90)"/></g>
        <g class="link s21 d1501"><path d="M -7,0 C -7,-3.864 -3.864,-7 0,-7 L 0,-30"/></g>

        <g id="21" transform="translate(-7,0)" class="green node">
            <circle cx="0" cy="0" r="3.5" class="c1"/><circle cx="0" cy="0" r="3" class="c2"/><circle cx="0" cy="0" r="2" class="c3"/>
            <text y="1">0xF</text>
        </g>
        <g id="22" transform="translate(7,0)" class="green node">
            <circle cx="0" cy="0" r="3.5" class="c1"/><circle cx="0" cy="0" r="3" class="c2"/><circle cx="0" cy="0" r="2" class="c3"/>
            <text y="1">OR</text>
        </g>
    </g>

    <!-- INFORMATIQUE -->
    <g transform="translate(195,80)">
        <use x="0" y="0" xlink:href="#r2"/>

        <!-- ROBOT -->
      <g transform="translate(-4,-40)">
        <use x="0" y="0" xlink:href="#r1"/>
        <g class="link s1001 d1002" transform="rotate(-120)"><path d="M 6.06,3.5 C 6.66,2.47 7,1.27 7,0 C 7,-3.864 3.864,-7 0,-7"/></g>
        <g class="link s1002 d1003" transform="rotate(120)"><path d="M 6.06,3.5 C 6.66,2.47 7,1.27 7,0 C 7,-3.864 3.864,-7 0,-7"/></g>
        <g class="link s1002 d1501"><path d="M -6.06,3.5 L -12,3.5 Q -17,3.5 -17,8.5 L -17,45 C -12,46 -4,53 -2,57 L 4,50"/></g>
        <g class="link s1001 d1101"><path d="M 0,-7 L 0,-14 Q 0,-24 10,-24 L 54,-24 Q 64,-24 64,-14"/></g>

        <g id="1001" transform="translate(0,-7)" class="blue node">
            <circle cx="0" cy="0" r="3.5" class="c1"/><circle cx="0" cy="0" r="3" class="c2"/><circle cx="0" cy="0" r="2" class="c3"/>
            <text y="1">++</text>
        </g>
        <g id="1002" transform="translate(-6.06,3.5)" class="blue node">
            <circle cx="0" cy="0" r="3.5" class="c1"/><circle cx="0" cy="0" r="3" class="c2"/><circle cx="0" cy="0" r="2" class="c3"/>
            <text y="1">!?</text>
        </g>
        <g id="1003" transform="translate(6.06,3.5)" class="blue node">
            <circle cx="0" cy="0" r="3.5" class="c1"/><circle cx="0" cy="0" r="3" class="c2"/><circle cx="0" cy="0" r="2" class="c3"/>
            <text y="1">for</text>
        </g>
      </g>

      <!-- LOGO -->
      <g transform="translate(60,-34)">
        <use x="0" y="0" xlink:href="#r4"/>
        <g class="link s1101 d1102"><path d="M 14.125,-14.125 C 10.505,-17.745 5.52,-20 0,-20" transform="rotate(-45)"/></g>
        <g class="link s1102 d1103"><path d="M 14.125,-14.125 C 10.505,-17.745 5.52,-20 0,-20" transform="rotate(-90)"/></g>
        <g class="link s1103 d1104"><path d="M 14.125,-14.125 C 10.505,-17.745 5.52,-20 0,-20" transform="rotate(-135)"/></g>
        <g class="link s1101 d1201"><path d="M 0,-20 L 30,-20"/></g>
        <g id="1101" transform="translate(0,-20)" class="blue node">
            <circle cx="0" cy="0" r="3.5" class="c1"/><circle cx="0" cy="0" r="3" class="c2"/><circle cx="0" cy="0" r="2" class="c3"/>
            <text y="1">AV</text>
        </g>
        <g id="1102" transform="translate(-14.14,-14.14)" class="blue node">
            <circle cx="0" cy="0" r="3.5" class="c1"/><circle cx="0" cy="0" r="3" class="c2"/><circle cx="0" cy="0" r="2" class="c3"/>
            <text y="1" class="nb">+</text>
        </g>
        <g id="1103" transform="translate(-20,0)" class="green node">
            <circle cx="0" cy="0" r="3.5" class="c1"/><circle cx="0" cy="0" r="3" class="c2"/><circle cx="0" cy="0" r="2" class="c3"/>
            <text y="1">rep</text>
        </g>
        <g id="1104" transform="translate(-14.14,14.14)" class="green node">
            <circle cx="0" cy="0" r="3.5" class="c1"/><circle cx="0" cy="0" r="3" class="c2"/><circle cx="0" cy="0" r="2" class="c3"/>
            <text y="1" class="nb">fct</text>
        </g>
      </g>

      <!-- ASM -->
      <g transform="translate(0,0)">
        <g class="link s1501 d1502"><path d="M 10,0 C 10,-5.52 5.52,-10 0,-10" transform="rotate(180)"/></g>
        <g class="link s1502 d1503"><path d="M -10,0 L 0,0"/></g>
        <g id="1501" transform="translate(0,10)" class="blue node">
            <circle cx="0" cy="0" r="3.5" class="c1"/><circle cx="0" cy="0" r="3" class="c2"/><circle cx="0" cy="0" r="2" class="c3"/>
            <text y="1">A9</text>
        </g>
        <g id="1502" transform="translate(-10,0)" class="blue node">
            <circle cx="0" cy="0" r="3.5" class="c1"/><circle cx="0" cy="0" r="3" class="c2"/><circle cx="0" cy="0" r="2" class="c3"/>
            <text y="1">8D</text>
        </g>
        <g id="1503" transform="translate(0,0)" class="blue node">
            <circle cx="0" cy="0" r="3.5" class="c1"/><circle cx="0" cy="0" r="3" class="c2"/><circle cx="0" cy="0" r="2" class="c3"/>
            <text y="1">69</text>
        </g>
      </g>

      <!-- CODE -->
      <g transform="translate(100,-54)">
        <use x="0" y="0" xlink:href="#r2"/>
        <g class="link s1201 d1202"><path d="M 10,0 C 10,-5.52 5.52,-10 0,-10" transform="rotate(-90)"/></g>
        <g class="link s1202 d1203"><path d="M 10,0 C 10,-5.52 5.52,-10 0,-10" transform="rotate(0)"/></g>
        <g id="1201" transform="translate(-10,0)" class="blue node">
            <circle cx="0" cy="0" r="3.5" class="c1"/><circle cx="0" cy="0" r="3" class="c2"/><circle cx="0" cy="0" r="2" class="c3"/>
            <text y="1">C</text>
        </g>
        <g id="1202" transform="translate(0,-10)" class="blue node">
            <circle cx="0" cy="0" r="3.5" class="c1"/><circle cx="0" cy="0" r="3" class="c2"/><circle cx="0" cy="0" r="2" class="c3"/>
            <text y="1">++</text>
        </g>
        <g id="1203" transform="translate(10,0)" class="green node">
            <circle cx="0" cy="0" r="3.5" class="c1"/><circle cx="0" cy="0" r="3" class="c2"/><circle cx="0" cy="0" r="2" class="c3"/>
            <text y="1">rep</text>
        </g>
      </g>

    </g>

</g>


    <!-- DEBUG -->
    <g class="dbg" transform="translate(40,40)">
        <rect x="-32" y="-32" rx="5" width="64" height="64" class="c3" style="stroke:black;fill-opacity:0.8;stroke:#4c4237;stroke-width:1;"/>
        <use x="-10" y="-15" xlink:href="#r2"/><use x="10" y="8" xlink:href="#r3"/>
        <text transform="translate(0,30)">Propagation d'activation</text>

        <g class="link s9990 d9991" transform="translate(-10,-15)"><path d="M 0,10 C 5.52,10 10,5.52 10,0 C 10,-5.52 5.52,-10 0,-10" transform="rotate(270)"/></g>
        <g class="link s9990 d9992"><path d="M -20,-15 L -20,0 Q -20,8 -12,8 L -4,8"/></g>
        <g class="link s9991 d9993"><path d="M 0,-15 L 0,-10 Q 0,-6 4,-6 L 10,-6"/></g>
        <g class="link s9992 d9994" transform="translate(10,8)"><path d="M 0,14 C 7.728,14 14,7.728 14,0 C 14,-3.864 12.44,-7.37 9.90,-9.90" transform="rotate(90)"/></g>
        <g class="link s9993 d9994" transform="translate(10,8)"><path d="M 0,14 C 7.728,14 14,7.728 14,0 C 14,-3.864 12.44,-7.37 9.90,-9.90" transform="rotate(315)"/></g>

        <g id="9990" transform="translate(-20,-15)" class="blue node">
            <circle cx="0" cy="0" r="3.5" class="c1"/><circle cx="0" cy="0" r="3" class="c2"/><circle cx="0" cy="0" r="2" class="c3"/>
            <text y="1">...</text>
        </g>
        <g id="9991" transform="translate(0,-15)" class="green node">
            <circle cx="0" cy="0" r="3.5" class="c1"/><circle cx="0" cy="0" r="3" class="c2"/><circle cx="0" cy="0" r="2" class="c3"/>
            <text y="1">...</text>
        </g>
        <g id="9992" transform="translate(-4,8)" class="yellow node">
            <circle cx="0" cy="0" r="3.5" class="c1"/><circle cx="0" cy="0" r="3" class="c2"/><circle cx="0" cy="0" r="2" class="c3"/>
            <text y="1">...</text>
        </g>
        <g id="9993" transform="translate(10,-6)" class="orange node">
            <circle cx="0" cy="0" r="3.5" class="c1"/><circle cx="0" cy="0" r="3" class="c2"/><circle cx="0" cy="0" r="2" class="c3"/>
            <text y="1">...</text>
        </g>
        <g id="9994" transform="translate(20,18)" class="red node">
            <circle cx="0" cy="0" r="3.5" class="c1"/><circle cx="0" cy="0" r="3" class="c2"/><circle cx="0" cy="0" r="2" class="c3"/>
            <text y="1">...</text>
        </g>

    </g>


</g>

</svg>
