<?xml version="1.0" encoding="UTF-8" standalone="no"?>
<!-- Created with Inkscape (http://www.inkscape.org/) -->

<svg
 xmlns:dc="http://purl.org/dc/elements/1.1/"
 xmlns:cc="http://creativecommons.org/ns#"
 xmlns:rdf="http://www.w3.org/1999/02/22-rdf-syntax-ns#"
 xmlns:svg="http://www.w3.org/2000/svg"
 xmlns="http://www.w3.org/2000/svg"
 version="1.1"
 width="100%"
 height="100%"
 viewBox="0 0 48 48"
 id="svg2985">
<defs
 id="defs2987" />
<metadata
 id="metadata2990">
<rdf:RDF>
<cc:Work
 rdf:about="">
<dc:format>image/svg+xml
</dc:format>
<dc:type
 rdf:resource="http://purl.org/dc/dcmitype/StillImage" />
<dc:title></dc:title>
</cc:Work>
</rdf:RDF>
</metadata>
<path
 d="m 45.762712,24.813559 a 21.966103,21.966103 0 1 1 -43.9322047,0 21.966103,21.966103 0 1 1 43.9322047,0 z"
 transform="translate(0,-1.0169492)"
 id="path3871"
 style="color:#000000;fill:#25910c;fill-opacity:1;fill-rule:nonzero;stroke:none;stroke-width:2;marker:none;visibility:visible;display:inline;overflow:visible;enable-background:accumulate" />
<path
 d="m 45.762712,24.813559 a 21.966103,21.966103 0 1 1 -43.9322047,0 21.966103,21.966103 0 1 1 43.9322047,0 z"
 transform="matrix(0.78943354,0,0,0.78943354,5.0107679,4.207954)"
 id="path3901"
 style="color:#000000;fill:#36b419;fill-opacity:1;fill-rule:nonzero;stroke:none;stroke-width:2;marker:none;visibility:visible;display:inline;overflow:visible;enable-background:accumulate" />
<path
 d="m 45.762712,24.813559 a 21.966103,21.966103 0 1 1 -43.9322047,0 21.966103,21.966103 0 1 1 43.9322047,0 z"
 transform="matrix(0.20295351,0,0,0.20295351,30.368372,18.642776)"
 id="path3950"
 style="color:#000000;fill:#45e021;fill-opacity:0.23873877;fill-rule:nonzero;stroke:none;stroke-width:2;marker:none;visibility:visible;display:inline;overflow:visible;enable-background:accumulate" />
<path
 d="m 45.762712,24.813559 a 21.966103,21.966103 0 1 1 -43.9322047,0 21.966103,21.966103 0 1 1 43.9322047,0 z"
 transform="matrix(0.43521434,0,0,0.43521434,8.3210266,9.7212602)"
 id="path3948"
 style="color:#000000;fill:#45e021;fill-opacity:0.20720717;fill-rule:nonzero;stroke:none;stroke-width:2;marker:none;visibility:visible;display:inline;overflow:visible;enable-background:accumulate" />
<path
 d="M 22.65625,1.84375 C 13.880106,2.2886137 6.4704234,7.9038401 3.375,15.6875 c 5.4740284,4.738638 12.597832,7.59375 20.40625,7.59375 7.808418,0 14.963472,-2.855112 20.4375,-7.59375 C 40.991274,7.5717856 33.04706,1.84375 23.78125,1.84375 c -0.379111,0 -0.750606,-0.018978 -1.125,0 z"
 id="path3903"
 style="color:#000000;fill:#145e0b;fill-opacity:0.1261261;fill-rule:nonzero;stroke:none;stroke-width:2;marker:none;visibility:visible;display:inline;overflow:visible;enable-background:accumulate" />
<path
 d="M 36.44069,10.17859 A 4.8444977,2.9932504 25.14 1 1 27.671459,6.0582528 4.8444977,2.9932504 25.14 0 1 36.44069,10.17859 z"
 id="path3836"
 style="color:#000000;fill:#bdf7c8;fill-opacity:0.2837838;stroke-width:1.5" />
<path
 d="m 16.178344,39.860596 a 3.4140705,1.7310779 42.879265 1 1 -5.003333,-4.646522 3.4140705,1.7310779 42.879265 0 1 5.003333,4.646522 z"
 id="path3838"
 style="color:#000000;fill:#bdf7c8;fill-opacity:0.2837838;stroke-width:1.5" />
<path
 d="m 39.87831,16.902624 a 2.6746693,1.6525872 56.51796 0 1 -2.948989,-4.463057 2.6746693,1.6525872 56.51796 0 1 2.948989,4.463057 z"
 id="path3944"
 style="color:#000000;fill:#bdf7c8;fill-opacity:0.2837838;stroke-width:1.5" />
<path
 d="M 11.65625,5.5 C 9.9003477,6.6657161 8.3209477,8.0480531 6.96875,9.65625 l 33.65625,0 C 39.277431,8.0535577 37.686182,6.6634022 35.9375,5.5 l -24.28125,0 z m -7.4375,8.3125 C 3.5477796,15.125528 3.0229653,16.519383 2.625,17.96875 l 42.34375,0 C 44.570785,16.519383 44.04597,15.125528 43.375,13.8125 l -39.15625,0 z m -2.3125,8.28125 c -0.04331,0.5634 -0.0625,1.112997 -0.0625,1.6875 0,0.831977 0.034924,1.66081 0.125,2.46875 l 43.65625,0 c 0.09008,-0.80794 0.125,-1.636773 0.125,-2.46875 0,-0.574064 -0.01926,-1.124521 -0.0625,-1.6875 l -43.78125,0 z m 0.9375,8.3125 c 0.4581818,1.456408 1.0453645,2.848247 1.78125,4.15625 l 38.34375,0 c 0.735886,-1.308003 1.323068,-2.699842 1.78125,-4.15625 l -41.90625,0 z m 4.84375,8.3125 c 1.508123,1.626585 3.25065,3.045069 5.1875,4.15625 l 21.84375,0 c 1.93685,-1.111181 3.679377,-2.529665 5.1875,-4.15625 l -32.21875,0 z"
 id="rect3780"
 style="color:#000000;fill:#64ff46;fill-opacity:0.3248945;fill-rule:nonzero;stroke:none;stroke-width:0.27011174;marker:none;visibility:visible;display:inline;overflow:visible;enable-background:accumulate" />
<path
 d="m 45.762712,24.813559 a 21.966103,21.966103 0 1 1 -43.9322047,0 21.966103,21.966103 0 1 1 43.9322047,0 z"
 transform="translate(0,-1.0169492)"
 id="path3852"
 style="color:#000000;fill:none;stroke:#143f06;stroke-width:2;stroke-linecap:butt;stroke-linejoin:miter;stroke-miterlimit:4;stroke-opacity:1;stroke-dasharray:none;stroke-dashoffset:0;marker:none;visibility:visible;display:inline;overflow:visible;enable-background:accumulate" />
</svg>
