<?xml version="1.0" encoding="UTF-8" standalone="no"?>
<!-- Created with Inkscape (http://www.inkscape.org/) -->

<svg
 xmlns:dc="http://purl.org/dc/elements/1.1/"
 xmlns:cc="http://creativecommons.org/ns#"
 xmlns:rdf="http://www.w3.org/1999/02/22-rdf-syntax-ns#"
 xmlns:svg="http://www.w3.org/2000/svg"
 xmlns="http://www.w3.org/2000/svg"
 version="1.1"
 width="100%"
 height="100%"
 viewBox="0 0 48 48"
 id="svg2985">
<defs
 id="defs2987" />
<metadata
 id="metadata2990">
<rdf:RDF>
<cc:Work
 rdf:about="">
<dc:format>image/svg+xml
</dc:format>
<dc:type
 rdf:resource="http://purl.org/dc/dcmitype/StillImage" />
<dc:title></dc:title>
</cc:Work>
</rdf:RDF>
</metadata>
<path
 d="m 45.762712,24.813559 a 21.966103,21.966103 0 1 1 -43.9322047,0 21.966103,21.966103 0 1 1 43.9322047,0 z"
 transform="translate(0,-1.0169492)"
 id="path3871"
 style="color:#000000;fill:#25910c;fill-opacity:1;fill-rule:nonzero;stroke:none;stroke-width:0.5;marker:none;visibility:visible;display:inline;overflow:visible;enable-background:accumulate" />
<path
 d="m 45.762712,24.813559 a 21.966103,21.966103 0 1 1 -43.9322047,0 21.966103,21.966103 0 1 1 43.9322047,0 z"
 transform="matrix(0.78943354,0,0,0.78943354,5.0107679,4.207954)"
 id="path3901"
 style="color:#000000;fill:#36b419;fill-opacity:1;fill-rule:nonzero;stroke:none;stroke-width:0.5;marker:none;visibility:visible;display:inline;overflow:visible;enable-background:accumulate" />
<path
 d="m 45.762712,24.813559 a 21.966103,21.966103 0 1 1 -43.9322047,0 21.966103,21.966103 0 1 1 43.9322047,0 z"
 transform="matrix(0.20295351,0,0,0.20295351,30.368372,18.642776)"
 id="path3950"
 style="color:#000000;fill:#45e021;fill-opacity:0.23873877;fill-rule:nonzero;stroke:none;stroke-width:0.5;marker:none;visibility:visible;display:inline;overflow:visible;enable-background:accumulate" />
<path
 d="m 45.762712,24.813559 a 21.966103,21.966103 0 1 1 -43.9322047,0 21.966103,21.966103 0 1 1 43.9322047,0 z"
 transform="matrix(0.43521434,0,0,0.43521434,8.3210266,9.7212602)"
 id="path3948"
 style="color:#000000;fill:#45e021;fill-opacity:0.20720717;fill-rule:nonzero;stroke:none;stroke-width:0.5;marker:none;visibility:visible;display:inline;overflow:visible;enable-background:accumulate" />
<path
 d="M 22.65625,1.84375 C 13.880106,2.2886137 6.4704234,7.9038401 3.375,15.6875 c 5.4740284,4.738638 12.597832,7.59375 20.40625,7.59375 7.808418,0 14.963472,-2.855112 20.4375,-7.59375 C 40.991274,7.5717856 33.04706,1.84375 23.78125,1.84375 c -0.379111,0 -0.750606,-0.018978 -1.125,0 z"
 id="path3903"
 style="color:#000000;fill:#145e0b;fill-opacity:0.1261261;fill-rule:nonzero;stroke:none;stroke-width:0.5;marker:none;visibility:visible;display:inline;overflow:visible;enable-background:accumulate" />
<path
 d="M 36.44069,10.17859 A 4.8444977,2.9932504 25.14 1 1 27.671459,6.0582528 4.8444977,2.9932504 25.14 0 1 36.44069,10.17859 z"
 id="path3836"
 style="color:#000000;fill:#bdf7c8;fill-opacity:0.2837838;stroke-width:1.5" />
<path
 d="m 16.178344,39.860596 a 3.4140705,1.7310779 42.879265 1 1 -5.003333,-4.646522 3.4140705,1.7310779 42.879265 0 1 5.003333,4.646522 z"
 id="path3838"
 style="color:#000000;fill:#bdf7c8;fill-opacity:0.2837838;stroke-width:1.5" />
<path
 d="m 39.87831,16.902624 a 2.6746693,1.6525872 56.51796 0 1 -2.948989,-4.463057 2.6746693,1.6525872 56.51796 0 1 2.948989,4.463057 z"
 id="path3944"
 style="color:#000000;fill:#bdf7c8;fill-opacity:0.2837838;stroke-width:1.5" />
<path
 d="m 22.65625,1.84375 c -0.246057,0.012473 -0.474895,0.041995 -0.71875,0.0625 l 0,43.78125 c 0.614689,0.05167 1.215703,0.0625 1.84375,0.0625 0.778885,0 1.554547,-0.01467 2.3125,-0.09375 l 0,-43.71875 c -0.757953,-0.079082 -1.533615,-0.09375 -2.3125,-0.09375 -0.379111,0 -0.750606,-0.018978 -1.125,0 z m -4.875,0.84375 C 16.331769,3.0994469 14.935638,3.6270318 13.625,4.3125 l 0,38.96875 c 1.312924,0.686664 2.704028,1.244092 4.15625,1.65625 l 0,-42.25 z m 12.4375,0.09375 0,42.03125 c 1.456362,-0.443706 2.84558,-1.029166 4.15625,-1.75 l 0,-38.53125 c -1.31067,-0.720834 -2.699888,-1.3062942 -4.15625,-1.75 z m -20.75,4.375 C 7.8620167,8.540866 6.4634251,10.146088 5.3125,11.9375 l 0,23.71875 c 1.1495568,1.786862 2.5529211,3.399568 4.15625,4.78125 l 0,-33.28125 z m 29.09375,0.375 0,32.53125 c 1.605467,-1.45919 3.007636,-3.157132 4.125,-5.03125 l 0,-22.46875 C 41.570136,10.688382 40.167967,8.9904405 38.5625,7.53125 z"
 id="rect3780"
 style="color:#000000;fill:#64ff46;fill-opacity:0.3248945;fill-rule:nonzero;stroke:none;stroke-width:0.27011174;marker:none;visibility:visible;display:inline;overflow:visible;enable-background:accumulate" />
<path
 d="m 45.762712,24.813559 a 21.966103,21.966103 0 1 1 -43.9322047,0 21.966103,21.966103 0 1 1 43.9322047,0 z"
 transform="translate(0,-1.0169492)"
 id="path3852"
 style="color:#000000;fill:none;stroke:#143f06;stroke-width:0.5;stroke-linecap:butt;stroke-linejoin:miter;stroke-miterlimit:4;stroke-opacity:1;stroke-dasharray:none;stroke-dashoffset:0;marker:none;visibility:visible;display:inline;overflow:visible;enable-background:accumulate" />
</svg>
