<?xml version="1.0" encoding="UTF-8" standalone="no"?>
<!-- Created with Inkscape (http://www.inkscape.org/) -->

<svg
   xmlns:dc="http://purl.org/dc/elements/1.1/"
   xmlns:cc="http://creativecommons.org/ns#"
   xmlns:rdf="http://www.w3.org/1999/02/22-rdf-syntax-ns#"
   xmlns:svg="http://www.w3.org/2000/svg"
   xmlns="http://www.w3.org/2000/svg"
   xmlns:sodipodi="http://sodipodi.sourceforge.net/DTD/sodipodi-0.dtd"
   xmlns:inkscape="http://www.inkscape.org/namespaces/inkscape"
   version="1.1"
   width="100%"
   height="100%"
   viewBox="0 0 48 48"
   id="svg2985"
   inkscape:version="0.91 r13725"
   sodipodi:docname="orange07.svg">
  <sodipodi:namedview
     pagecolor="#ffffff"
     bordercolor="#666666"
     borderopacity="1"
     objecttolerance="10"
     gridtolerance="10"
     guidetolerance="10"
     inkscape:pageopacity="0"
     inkscape:pageshadow="2"
     inkscape:window-width="991"
     inkscape:window-height="859"
     id="namedview15"
     showgrid="false"
     inkscape:zoom="9.5791181"
     inkscape:cx="33.705315"
     inkscape:cy="11.447976"
     inkscape:window-x="0"
     inkscape:window-y="0"
     inkscape:window-maximized="0"
     inkscape:current-layer="svg2985" />
  <defs
     id="defs2987" />
  <metadata
     id="metadata2990">
    <rdf:RDF>
      <cc:Work
         rdf:about="">
        <dc:format>image/svg+xml
</dc:format>
        <dc:type
           rdf:resource="http://purl.org/dc/dcmitype/StillImage" />
        <dc:title />
      </cc:Work>
    </rdf:RDF>
  </metadata>
  <path
     sodipodi:nodetypes="cssssc"
     inkscape:connector-curvature="0"
     id="path4182"
     d="M 2.8474577,15.864407 C 3.0508475,9.5593226 11.59322,3.8644073 14.644067,3.6610175 17.694915,3.4576277 27.864407,3.4576276 32.745763,3.4576276 c 4.881356,0 12.302656,7.3264484 12.101695,11.8983054 -0.40678,9.254237 -13.525424,28.57627 -20.440679,28.57627 -6.915254,0 -21.5593213,-22.169491 -21.5593213,-28.067796 z"
     style="fill:#ba4b00;fill-rule:nonzero;stroke:none;stroke-width:2;stroke-linecap:butt;stroke-linejoin:miter;stroke-opacity:1;color:#000000;clip-rule:nonzero;display:inline;overflow:visible;visibility:visible;opacity:1;isolation:auto;mix-blend-mode:normal;color-interpolation:sRGB;color-interpolation-filters:linearRGB;solid-color:#000000;solid-opacity:1;fill-opacity:1;stroke-miterlimit:4;stroke-dasharray:none;stroke-dashoffset:0;filter-blend-mode:normal;filter-gaussianBlur-deviation:0;color-rendering:auto;image-rendering:auto;shape-rendering:auto;text-rendering:auto;enable-background:accumulate" />
  <path
     sodipodi:nodetypes="cssssc"
     inkscape:connector-curvature="0"
     id="path3366"
     d="M 6.6220035,17.321499 C 6.7888396,12.149577 13.795961,7.4781627 16.298503,7.3113266 18.801047,7.1444904 27.142857,7.1444903 31.146926,7.1444903 c 4.004069,0 10.091599,6.0097247 9.926755,9.7599187 -0.333673,7.591047 -11.094608,21.713812 -16.76704,21.713812 -5.672431,0 -17.6846375,-16.458472 -17.6846375,-21.296722 z"
     style="fill:#ff6e0d;fill-rule:nonzero;stroke:none;stroke-width:2;stroke-linecap:butt;stroke-linejoin:miter;stroke-opacity:1;color:#000000;clip-rule:nonzero;display:inline;overflow:visible;visibility:visible;opacity:1;isolation:auto;mix-blend-mode:normal;color-interpolation:sRGB;color-interpolation-filters:linearRGB;solid-color:#000000;solid-opacity:1;fill-opacity:1;stroke-miterlimit:4;stroke-dasharray:none;stroke-dashoffset:0;filter-blend-mode:normal;filter-gaussianBlur-deviation:0;color-rendering:auto;image-rendering:auto;shape-rendering:auto;text-rendering:auto;enable-background:accumulate" />
  <path
     style="fill:#ff8f3a;fill-rule:nonzero;stroke:none;stroke-width:2;stroke-linecap:butt;stroke-linejoin:miter;stroke-opacity:1;color:#000000;clip-rule:nonzero;display:inline;overflow:visible;visibility:visible;opacity:1;isolation:auto;mix-blend-mode:normal;color-interpolation:sRGB;color-interpolation-filters:linearRGB;solid-color:#000000;solid-opacity:1;fill-opacity:1;stroke-miterlimit:4;stroke-dasharray:none;stroke-dashoffset:0;filter-blend-mode:normal;filter-gaussianBlur-deviation:0;color-rendering:auto;image-rendering:auto;shape-rendering:auto;text-rendering:auto;enable-background:accumulate"
     d="M 31.044922 9.1015625 C 28.882187 9.1015625 19.065986 9.4335938 17.402344 9.4335938 C 14.740516 9.4335938 12.412109 13.093613 12.412109 14.091797 C 12.412109 15.089983 19.732775 14.423828 24.224609 14.423828 C 28.716443 14.423828 36.701172 14.924316 36.701172 13.759766 C 36.701172 12.595218 33.207657 9.1015625 31.044922 9.1015625 z M 29.070312 16.947266 C 26.252386 16.947266 20.382297 16.947039 18.621094 17.064453 C 16.859891 17.181866 11.92796 18.97346 11.810547 22.613281 C 11.810547 26.018275 20.263797 36.375 24.255859 36.375 C 28.24792 36.375 35.821814 27.660677 36.056641 22.318359 C 36.172653 19.679101 31.888237 16.947266 29.070312 16.947266 z "
     id="path3362" />
  <path
     style="color:#000000;clip-rule:nonzero;display:inline;overflow:visible;visibility:visible;opacity:1;isolation:auto;mix-blend-mode:normal;color-interpolation:sRGB;color-interpolation-filters:linearRGB;solid-color:#000000;solid-opacity:1;fill:#b25100;fill-opacity:0.42541435;fill-rule:nonzero;stroke:none;stroke-width:2;stroke-linecap:butt;stroke-linejoin:miter;stroke-miterlimit:4;stroke-dasharray:none;stroke-dashoffset:0;stroke-opacity:1;color-rendering:auto;image-rendering:auto;shape-rendering:auto;text-rendering:auto;enable-background:accumulate"
     d="M 32.746094 3.4570312 C 27.864738 3.4570313 17.695379 3.4567665 14.644531 3.6601562 C 11.593684 3.863546 3.0510461 9.56015 2.8476562 15.865234 C 2.8476562 16.368021 2.9611977 16.995498 3.1601562 17.710938 A 41.084747 25.220339 0 0 0 23.796875 21.152344 A 41.084747 25.220339 0 0 0 44.527344 17.669922 C 44.701465 16.849312 44.816263 16.069662 44.847656 15.355469 C 45.048617 10.783612 37.62745 3.4570312 32.746094 3.4570312 z "
     id="path4239" />
  <path
     d="m 37.309967,12.517619 a 5.0430025,3.1158997 25.14 0 1 -9.128553,-4.28917 5.0430025,3.1158997 25.14 1 1 9.128553,4.28917 z"
     id="path3836"
     style="color:#000000;fill:#e2c3a9;fill-opacity:0.36936939;stroke-width:1.5"
     inkscape:connector-curvature="0" />
  <path
     d="m 20.071403,35.116457 a 3.5539625,1.8020092 53.51 0 1 -4.226644,-5.714724 3.5539625,1.8020092 53.51 0 1 4.226644,5.714724 z"
     id="path3838"
     style="color:#000000;fill:#febd7e;fill-opacity:0.40331492;stroke-width:1.5"
     inkscape:connector-curvature="0" />
  <path
     d="m 26.536419,36.542012 a 2.3634198,1.2254769 5.54 1 1 -4.701829,-0.450175 2.3634198,1.2254769 5.54 1 1 4.701829,0.450175 z"
     id="path3840"
     style="color:#000000;fill:#febd7e;fill-opacity:0.40331492;stroke-width:1.5"
     inkscape:connector-curvature="0" />
  <path
     style="fill:none;fill-rule:nonzero;stroke:#5b2205;stroke-width:2;stroke-linecap:butt;stroke-linejoin:miter;stroke-opacity:1;color:#000000;clip-rule:nonzero;display:inline;overflow:visible;visibility:visible;opacity:1;isolation:auto;mix-blend-mode:normal;color-interpolation:sRGB;color-interpolation-filters:linearRGB;solid-color:#000000;solid-opacity:1;fill-opacity:1;stroke-miterlimit:4;stroke-dasharray:none;stroke-dashoffset:0;filter-blend-mode:normal;filter-gaussianBlur-deviation:0;color-rendering:auto;image-rendering:auto;shape-rendering:auto;text-rendering:auto;enable-background:accumulate"
     d="M 2.8474577,15.864407 C 3.0508475,9.5593226 11.59322,3.8644073 14.644067,3.6610175 17.694915,3.4576277 27.864407,3.4576276 32.745763,3.4576276 c 4.881356,0 12.302656,7.3264484 12.101695,11.8983054 -0.40678,9.254237 -13.525424,28.57627 -20.440679,28.57627 -6.915254,0 -21.5593213,-22.169491 -21.5593213,-28.067796 z"
     id="path3343"
     inkscape:connector-curvature="0"
     sodipodi:nodetypes="cssssc" />
</svg>
