<?xml version="1.0" encoding="UTF-8" standalone="no"?>
<!-- Created with Inkscape (http://www.inkscape.org/) -->

<svg
 xmlns:dc="http://purl.org/dc/elements/1.1/"
 xmlns:cc="http://creativecommons.org/ns#"
 xmlns:rdf="http://www.w3.org/1999/02/22-rdf-syntax-ns#"
 xmlns:svg="http://www.w3.org/2000/svg"
 xmlns="http://www.w3.org/2000/svg"
 version="1.1"
 width="100%"
 height="100%"
 viewBox="0 0 48 48"
 id="svg2985">
<defs
 id="defs2987" />
<metadata
 id="metadata2990">
<rdf:RDF>
<cc:Work
 rdf:about="">
<dc:format>image/svg+xml
</dc:format>
<dc:type
 rdf:resource="http://purl.org/dc/dcmitype/StillImage" />
<dc:title></dc:title>
</cc:Work>
</rdf:RDF>
</metadata>
<path
 d="M 10.048908,2.8028258 C 8.0908469,6.4666827 8.0908469,40.91895 9.5684023,43.117264 11.033945,45.315578 36.44069,46.04835 38.146486,44.090288 39.864294,42.14424 40.597066,4.7608871 37.653967,3.2953443 34.722882,1.8298016 11.274198,1.8298016 10.048908,2.8028258 z"
 id="path3040"
 style="color:#000000;fill:#c89700;fill-opacity:1;stroke-width:0.5" />
<path
 d="M 12.69169,5.7699493 C 11.106021,8.8331739 11.106021,37.567422 12.295273,39.405357 13.484525,41.243291 34.110237,41.855936 35.503704,40.222216 36.885158,38.588497 37.48579,7.4036691 35.107287,6.1783792 32.71677,4.9530894 13.68874,4.9530894 12.69169,5.7699493 z"
 id="path3843"
 style="color:#000000;fill:#e0c513;fill-opacity:1;stroke-width:0.5" />
<path
 d="m 18.0625,6.8125 c -2.073731,-0.022401 -4.081691,0.070793 -4.28125,0.25 -0.634742,1.3440488 -0.632307,13.97482 -0.15625,14.78125 0.476056,0.806429 8.723447,1.060576 9.28125,0.34375 C 23.459245,21.470674 23.702112,7.7876195 22.75,7.25 22.271539,6.9811903 20.136231,6.8349008 18.0625,6.8125 z m 11.28125,0 c -2.073731,-0.022401 -4.081691,0.070793 -4.28125,0.25 -0.634742,1.3440488 -0.632306,13.97482 -0.15625,14.78125 0.476057,0.806429 8.723448,1.060576 9.28125,0.34375 C 34.740496,21.470674 34.983362,7.7876195 34.03125,7.25 33.552789,6.9811903 31.417481,6.8349008 29.34375,6.8125 z M 18.0625,23.78125 C 15.988769,23.758849 13.980809,23.820794 13.78125,24 13.146508,25.344048 13.148943,37.974821 13.625,38.78125 14.101056,39.58768 22.348447,39.841826 22.90625,39.125 23.459245,38.408174 23.702112,24.72512 22.75,24.1875 22.271539,23.918691 20.136231,23.803651 18.0625,23.78125 z m 11.28125,0 c -2.073731,-0.0224 -4.081691,0.03954 -4.28125,0.21875 -0.634742,1.344048 -0.632306,13.974821 -0.15625,14.78125 0.476057,0.80643 8.723448,1.060576 9.28125,0.34375 0.552996,-0.716826 0.795862,-14.39988 -0.15625,-14.9375 -0.478461,-0.268809 -2.613769,-0.383849 -4.6875,-0.40625 z"
 id="path3756"
 style="color:#000000;fill:#fcd363;fill-opacity:0.71171169;stroke-width:0.5" />
<path
 d="M 18.529836,2.1421303 C 14.085157,2.2021936 10.505389,2.4424465 10.048908,2.8148385 9.2921114,4.2323307 8.8596562,10.334755 8.6674539,17.374165 c 4.4206531,1.873972 10.2107491,3.003161 16.5534251,3.003161 5.35764,0 10.294837,-0.780822 14.367124,-2.174289 C 39.431839,10.490919 38.843219,3.8959766 37.641955,3.2953443 35.80402,2.3823833 25.965663,2.0220039 18.529836,2.1421303 z"
 id="path3821"
 style="color:#000000;fill:#983f12;fill-opacity:0.1261261;stroke-width:0.5" />
<path
 d="M 15.706864,40.28228 A 3.4140702,1.7310778 53.51 1 1 11.64659,34.792501 3.4140702,1.7310778 53.51 0 1 15.706864,40.28228 z"
 id="path3838"
 style="color:#000000;fill:#f3f7bd;fill-opacity:0.2837838;stroke-width:1.5" />
<path
 d="M 36.44069,10.17859 A 4.8444977,2.9932504 25.14 1 1 27.671459,6.0582528 4.8444977,2.9932504 25.14 0 1 36.44069,10.17859 z"
 id="path3836"
 style="color:#000000;fill:#f3f7bd;fill-opacity:0.2837838;stroke-width:1.5" />
<path
 d="m 9.53125,4.90625 c -0.1832959,1.0931169 -0.3685179,2.4948368 -0.5,4.15625 l 30.09375,0 C 38.954376,7.3584126 38.733628,5.9087941 38.46875,4.90625 l -28.9375,0 z m -0.75,8.3125 c -0.062194,1.313124 -0.084964,2.703307 -0.125,4.125 l 30.9375,0 c -0.03585,-1.421342 -0.120103,-2.82665 -0.1875,-4.125 l -30.625,0 z M 8.5625,21.5 c -0.018482,1.407147 -0.032292,2.758513 -0.03125,4.15625 l 31.09375,0 c 0.01628,-1.388768 0.0074,-2.769065 0,-4.15625 l -31.0625,0 z m 0,8.3125 c 0.022692,1.498908 0.078734,2.810051 0.125,4.15625 l 30.6875,0 c 0.06385,-1.316289 0.146373,-2.719163 0.1875,-4.15625 l -31,0 z m 0.28125,8.3125 c 0.1199158,1.823679 0.2867005,3.285891 0.46875,4.15625 l 29.34375,0 C 38.832316,41.247949 38.98956,39.828172 39.125,38.125 l -30.28125,0 z"
 id="rect3780"
 style="color:#000000;fill:#ff0202;fill-opacity:0.3;fill-rule:nonzero;stroke:none;stroke-width:0.27011174;marker:none;visibility:visible;display:inline;overflow:visible;enable-background:accumulate" />
<path
 d="M 10.048908,2.8028258 C 8.0908469,6.4666827 8.0908469,40.91895 9.5684023,43.117264 11.033945,45.315578 36.44069,46.04835 38.146486,44.090288 39.864294,42.14424 40.597066,4.7608871 37.653967,3.2953443 34.722882,1.8298016 11.274198,1.8298016 10.048908,2.8028258 z"
 id="path3021"
 style="color:#000000;fill:none;stroke:#5c3009;stroke-width:2;stroke-miterlimit:4;stroke-opacity:1;stroke-dasharray:none" />
</svg>
