<?xml version="1.0" encoding="UTF-8" standalone="no"?>
<svg
   xmlns:dc="http://purl.org/dc/elements/1.1/"
   xmlns:cc="http://creativecommons.org/ns#"
   xmlns:rdf="http://www.w3.org/1999/02/22-rdf-syntax-ns#"
   xmlns:svg="http://www.w3.org/2000/svg"
   xmlns="http://www.w3.org/2000/svg"
   viewBox="0 0 32 32"
   version="1.1"
   id="SVGRoot"
   height="100%"
   width="100%">
  <defs
     id="defs6229" />
  <metadata
     id="metadata6232">
    <rdf:RDF>
      <cc:Work
         rdf:about="">
        <dc:format>image/svg+xml</dc:format>
        <dc:type
           rdf:resource="http://purl.org/dc/dcmitype/StillImage" />
        <dc:title></dc:title>
      </cc:Work>
    </rdf:RDF>
  </metadata>
  <rect
     style="color:#000000;clip-rule:nonzero;display:inline;overflow:visible;visibility:visible;opacity:1;isolation:auto;mix-blend-mode:normal;color-interpolation:sRGB;color-interpolation-filters:linearRGB;solid-color:#000000;solid-opacity:1;fill:#ffffff;fill-opacity:1;fill-rule:evenodd;stroke:#000000;stroke-width:0.5;stroke-linecap:butt;stroke-linejoin:miter;stroke-miterlimit:4;stroke-dasharray:none;stroke-dashoffset:0;stroke-opacity:1;marker:none;marker-start:none;marker-mid:none;marker-end:none;color-rendering:auto;image-rendering:auto;shape-rendering:auto;text-rendering:auto;enable-background:accumulate"
     id="rect5094-5-0"
     width="31.5"
     height="31.5"
     x="-31.75"
     y="0.25"
     rx="4.5"
     ry="4.5"
     transform="scale(-1,1)" />
  <path
     style="color:#000000;font-style:normal;font-variant:normal;font-weight:normal;font-stretch:normal;font-size:medium;line-height:normal;font-family:sans-serif;font-variant-ligatures:normal;font-variant-position:normal;font-variant-caps:normal;font-variant-numeric:normal;font-variant-alternates:normal;font-feature-settings:normal;text-indent:0;text-align:start;text-decoration:none;text-decoration-line:none;text-decoration-style:solid;text-decoration-color:#000000;letter-spacing:normal;word-spacing:normal;text-transform:none;writing-mode:lr-tb;direction:ltr;text-orientation:mixed;dominant-baseline:auto;baseline-shift:baseline;text-anchor:start;white-space:normal;shape-padding:0;clip-rule:nonzero;display:inline;overflow:visible;visibility:visible;opacity:1;isolation:auto;mix-blend-mode:normal;color-interpolation:sRGB;color-interpolation-filters:linearRGB;solid-color:#000000;solid-opacity:1;vector-effect:none;fill:#ffffff;fill-opacity:1;fill-rule:evenodd;stroke:#000000;stroke-width:0.5;stroke-linecap:butt;stroke-linejoin:miter;stroke-miterlimit:4;stroke-dasharray:none;stroke-dashoffset:0;stroke-opacity:1;color-rendering:auto;image-rendering:auto;shape-rendering:auto;text-rendering:auto;enable-background:accumulate"
     d="m 13.349609,19.03125 c -0.659366,0.02528 -1.069604,0.130353 -1.376953,0.384766 -0.637426,0.124326 -1.158682,0.467062 -1.55664,0.808593 -0.5517593,0.473524 -0.9812135,1.01991 -1.3730472,1.550782 -0.3918339,0.530871 -0.7386559,1.050181 -1.015625,1.423828 C 7.9085019,23.359543 7.7904824,23.46817 7.7050781,23.550781 7.470097,23.513223 6.9003906,23.303628 6.9003906,21.667969 h -3 c 0,3.729773 2.9146436,5.760451 5.1777344,4.628906 0.1750287,-0.08751 0.3111897,-0.178091 0.4375,-0.269531 -0.00628,0.08804 -0.023437,0.187778 -0.023437,0.269531 0,1.319739 0.025029,2.809256 0.042969,4.125 h 12.957031 c 0.01793,-1.315744 0.04492,-2.805259 0.04492,-4.125 0,-0.402289 -0.08474,-0.890059 -0.21289,-1.410156 l 1.660156,-0.710938 c -0.781739,-1.830188 -1.891994,-3.335836 -3.716797,-4.560547 -0.32042,-0.421598 -0.774555,-0.552718 -1.589844,-0.583984 -0.87773,-0.0044 -1.754952,-0.01143 -2.632812,0 -0.0204,-2.87e-4 -0.04015,2.66e-4 -0.06055,0 -0.87787,-0.01143 -1.757046,-0.0044 -2.634766,0 z"
     id="path1573" />
  <path
     id="path2436-3-3-6"
     d="m 15.996347,4.2773347 c 4.39443,0 7.949629,3.972546 7.949629,8.8486653 0,0.914273 -0.11618,1.797303 -0.34888,2.626951 -1.445449,2.86789 -2.648579,3.439254 -3.663319,4.175462 -0.92737,0.672829 -1.50394,1.672522 -3.09013,1.9633 -0.0159,0.002 -0.0333,-0.0019 -0.0499,0 -0.26752,0.03019 -0.52282,0.0553 -0.79747,0.0553 -0.27465,0 -0.55486,-0.02512 -0.82237,-0.0553 -0.009,-9.3e-4 -0.0159,9.56e-4 -0.0248,0 -0.009,-0.0015 -0.0159,0.0015 -0.0249,0 -1.58357,-0.291981 -2.16372,-1.291162 -3.09014,-1.9633 C 11.035497,19.203951 9.860447,18.641 8.445517,15.89121 8.185977,15.019618 8.021856,14.093712 8.021856,13.126 c 0,-4.8761193 3.580141,-8.8486653 7.974571,-8.8486653 z"
     style="color:#000000;clip-rule:nonzero;display:inline;overflow:visible;visibility:visible;opacity:1;isolation:auto;mix-blend-mode:normal;color-interpolation:sRGB;color-interpolation-filters:linearRGB;solid-color:#000000;solid-opacity:1;fill:#ffffff;fill-opacity:1;fill-rule:evenodd;stroke:#000000;stroke-width:0.5;stroke-linecap:butt;stroke-linejoin:miter;stroke-miterlimit:4;stroke-dasharray:none;stroke-dashoffset:0;stroke-opacity:1;marker:none;color-rendering:auto;image-rendering:auto;shape-rendering:auto;text-rendering:auto;enable-background:accumulate" />
  <path
     style="display:inline;fill:none;stroke:#000000;stroke-width:0.40000001;stroke-linecap:round;stroke-linejoin:miter;stroke-miterlimit:4;stroke-dasharray:none;stroke-opacity:1"
     d="m 15.312859,16.990396 c 0,0.28682 0.12401,0.57367 0.3307,0.69656"
     id="path2597-0-2" />
  <path
     style="display:inline;fill:none;stroke:#000000;stroke-width:0.40000001;stroke-linecap:round;stroke-linejoin:miter;stroke-miterlimit:4;stroke-dasharray:none;stroke-opacity:1"
     d="m 14.12573,19.218776 c 0.48134,0.14543 1.20334,0.21813 1.90965,0.21813 0.7063,0 1.39692,-0.0727 1.81547,-0.21813"
     id="path2599-6-6" />
  <path
     id="path2618-3-1"
     d="m 21.016207,10.914296 c -0.49075,-0.53981 -1.3073,-0.78776 -1.78557,-0.55518"
     style="display:inline;fill:none;stroke:#000000;stroke-width:0.50000012;stroke-linecap:butt;stroke-linejoin:miter;stroke-miterlimit:4;stroke-dasharray:none;stroke-opacity:1" />
  <path
     id="path5180-3-8"
     d="m 8.4186665,13.428542 c -0.23713,-0.08281 -0.47816,-0.119259 -0.70922,-0.107246 -0.96759,0.05032 -1.54181,0.920814 -1.28265,1.944471 0.25939,1.023645 1.25396,1.812755 2.22163,1.762679 0.23104,-0.01239 0.44748,-0.07305 0.63684,-0.178444"
     style="color:#000000;clip-rule:nonzero;display:inline;overflow:visible;visibility:visible;opacity:1;isolation:auto;mix-blend-mode:normal;color-interpolation:sRGB;color-interpolation-filters:linearRGB;solid-color:#000000;solid-opacity:1;fill:#ffffff;fill-opacity:1;fill-rule:evenodd;stroke:#000000;stroke-width:0.5;stroke-linecap:butt;stroke-linejoin:miter;stroke-miterlimit:4;stroke-dasharray:none;stroke-dashoffset:0;stroke-opacity:1;marker:none;marker-start:none;marker-mid:none;marker-end:none;color-rendering:auto;image-rendering:auto;shape-rendering:auto;text-rendering:auto;enable-background:accumulate" />
  <path
     id="path5182-6-7"
     d="m 8.3390065,13.439101 c 0,0 -0.10467,0.732641 -0.0349,1.081518 -0.73265,-0.313989 -1.08153,-0.174438 -1.11642,0.313989"
     style="display:inline;fill:none;fill-rule:evenodd;stroke:#000000;stroke-width:0.30000001;stroke-linecap:round;stroke-linejoin:miter;stroke-miterlimit:4;stroke-dasharray:none;stroke-opacity:1" />
  <path
     id="path5184-0-9"
     d="m 8.2896565,14.566789 c -0.2467,0.222024 -0.37004,0.814087 0.27136,1.134789"
     style="display:inline;fill:none;fill-rule:evenodd;stroke:#000000;stroke-width:0.30000001;stroke-linecap:round;stroke-linejoin:miter;stroke-miterlimit:4;stroke-dasharray:none;stroke-opacity:1" />
  <path
     id="path4829-6-8-2"
     d="m 20.311479,6.0202247 c -0.59372,-1.481006 -2.85497,-4.224375 -3.34365,-4.447267 -0.16502,0.42652 -0.31288,1.333139 -0.31288,1.333139 0,0 -1.72325,-1.140194 -2.86348,-1.099444 0.0728,0.357931 0.22079,1.1338 0.22079,1.1338 0,0 -2.23119,-0.220707 -3.32209,1.200327 0.60441,0.09858 1.69965,0.480059 1.69965,0.480059 0,0 -0.93017,0.874488 -1.25593,1.847553 1.11664,-0.700885 1.95896,-0.670899 2.56766,-0.452297"
     style="color:#000000;clip-rule:nonzero;display:inline;overflow:visible;visibility:visible;opacity:1;isolation:auto;mix-blend-mode:normal;color-interpolation:sRGB;color-interpolation-filters:linearRGB;solid-color:#000000;solid-opacity:1;fill:#ffffff;fill-opacity:1;fill-rule:evenodd;stroke:#000000;stroke-width:0.5;stroke-linecap:round;stroke-linejoin:round;stroke-miterlimit:4;stroke-dasharray:none;stroke-dashoffset:0;stroke-opacity:1;marker:none;color-rendering:auto;image-rendering:auto;shape-rendering:auto;text-rendering:auto;enable-background:accumulate" />
  <path
     style="color:#000000;clip-rule:nonzero;display:inline;overflow:visible;visibility:visible;opacity:1;isolation:auto;mix-blend-mode:normal;color-interpolation:sRGB;color-interpolation-filters:linearRGB;solid-color:#000000;solid-opacity:1;fill:#ffffff;fill-opacity:1;fill-rule:evenodd;stroke:#000000;stroke-width:0.5;stroke-linecap:butt;stroke-linejoin:miter;stroke-miterlimit:4;stroke-dasharray:none;stroke-dashoffset:0;stroke-opacity:1;marker:none;marker-start:none;marker-mid:none;marker-end:none;color-rendering:auto;image-rendering:auto;shape-rendering:auto;text-rendering:auto;enable-background:accumulate"
     d="m 23.581333,13.428542 c 0.23713,-0.08281 0.47816,-0.119259 0.709221,-0.107246 0.967589,0.05032 1.541809,0.920814 1.282649,1.944471 -0.259389,1.023645 -1.25396,1.812755 -2.22163,1.762679 -0.23104,-0.01239 -0.447479,-0.07305 -0.63684,-0.178444"
     id="path5838-0" />
  <path
     style="display:inline;fill:none;fill-rule:evenodd;stroke:#000000;stroke-width:0.30000001;stroke-linecap:round;stroke-linejoin:miter;stroke-miterlimit:4;stroke-dasharray:none;stroke-opacity:1"
     d="m 23.660993,13.439101 c 0,0 0.104671,0.732641 0.0349,1.081518 0.73265,-0.313989 1.08153,-0.174438 1.116421,0.313989"
     id="path5840-2" />
  <path
     style="display:inline;fill:none;fill-rule:evenodd;stroke:#000000;stroke-width:0.30000001;stroke-linecap:round;stroke-linejoin:miter;stroke-miterlimit:4;stroke-dasharray:none;stroke-opacity:1"
     d="m 23.710343,14.566789 c 0.2467,0.222024 0.37004,0.814087 -0.27136,1.134789"
     id="path5842-3" />
  <path
     style="display:inline;overflow:visible;visibility:visible;fill:#ffffff;fill-opacity:1;fill-rule:evenodd;stroke:#000000;stroke-width:0.30000001;stroke-linecap:round;stroke-linejoin:round;stroke-miterlimit:4;stroke-dasharray:none;stroke-dashoffset:0;stroke-opacity:1;marker:none;enable-background:accumulate"
     d="m 13.861202,13.931016 c 0.47524,1.67612 0.20153,1.49875 -1.04505,1.84612 -0.80241,0.22359 -1.6367,-0.24053 -1.86225,-1.03599 -0.22554,-0.79549 0.24263,-1.622541 1.04506,-1.846131 0.80241,-0.22359 1.6367,0.24053 1.86224,1.036001 z"
     id="path2602-4-08-6-7" />
  <ellipse
     ry="0.99793828"
     rx="1.0066569"
     style="display:inline;overflow:visible;visibility:visible;fill:#000000;fill-opacity:1;fill-rule:evenodd;stroke:none;stroke-width:0.49999997;marker:none;enable-background:accumulate"
     id="path2604-4-0-4-5"
     cx="11.976361"
     cy="14.203061" />
  <ellipse
     ry="0.40046838"
     rx="0.42386398"
     style="display:inline;overflow:visible;visibility:visible;fill:#ffffff;fill-opacity:1;fill-rule:evenodd;stroke:none;stroke-width:0.5;marker:none;enable-background:accumulate"
     id="path2606-4-1-2-9"
     cx="11.724697"
     cy="13.911988" />
  <path
     id="path2612-4-3-4-2"
     d="m 18.067702,13.931016 c -0.47525,1.67612 -0.20154,1.49875 1.04505,1.84612 0.80241,0.22359 1.63669,-0.24053 1.86224,-1.03599 0.22555,-0.79549 -0.24263,-1.622541 -1.04505,-1.846131 -0.80241,-0.22359 -1.63671,0.24053 -1.86224,1.036001 z"
     style="display:inline;overflow:visible;visibility:visible;fill:#ffffff;fill-opacity:1;fill-rule:evenodd;stroke:#000000;stroke-width:0.30000001;stroke-linecap:round;stroke-linejoin:round;stroke-miterlimit:4;stroke-dasharray:none;stroke-dashoffset:0;stroke-opacity:1;marker:none;enable-background:accumulate" />
  <ellipse
     ry="0.99793828"
     rx="1.0066569"
     id="path2614-4-6-8-2"
     style="display:inline;overflow:visible;visibility:visible;fill:#000000;fill-opacity:1;fill-rule:evenodd;stroke:none;stroke-width:0.49999997;marker:none;enable-background:accumulate"
     cx="-19.014624"
     cy="14.304461"
     transform="scale(-1,1)" />
  <ellipse
     id="path2616-9-09-2-8"
     style="display:inline;overflow:visible;visibility:visible;fill:#ffffff;fill-opacity:1;fill-rule:evenodd;stroke:none;stroke-width:0.5;marker:none;enable-background:accumulate"
     cx="-18.815405"
     cy="14.013388"
     rx="0.42386398"
     ry="0.40046838"
     transform="scale(-1,1)" />
  <path
     style="display:inline;fill:none;stroke:#000000;stroke-width:0.50000012;stroke-linecap:butt;stroke-linejoin:miter;stroke-miterlimit:4;stroke-dasharray:none;stroke-opacity:1"
     d="m 10.983793,10.914296 c 0.49075,-0.53981 1.3073,-0.78776 1.78557,-0.55518"
     id="path4626-9" />
  <path
     id="path1867-3"
     d="m 22.298828,24.902344 c -0.17978,-0.683709 -0.658633,-1.705876 -0.741512,-1.807172"
     style="display:inline;opacity:1;vector-effect:none;fill:#ffffff;fill-opacity:1;fill-rule:evenodd;stroke:#000000;stroke-width:0.5;stroke-linecap:round;stroke-linejoin:miter;stroke-miterlimit:4;stroke-dasharray:none;stroke-dashoffset:0;stroke-opacity:1" />
  <path
     id="path1734-7-6"
     d="m 22.617213,28.917911 a 0.54429414,0.49549431 13.215547 0 0 0.608482,-0.266291 c 0.37118,-0.743434 0.446246,-1.437923 0.481974,-2.060339 a 0.54450699,0.49568808 13.215547 1 0 -1.082654,-0.09355 c -0.0339,0.589884 -0.09514,1.120686 -0.388343,1.707925 a 0.54429414,0.49549431 13.215547 0 0 0.3805,0.712253 z"
     style="color:#000000;font-style:normal;font-variant:normal;font-weight:normal;font-stretch:normal;font-size:medium;line-height:normal;font-family:sans-serif;font-variant-ligatures:normal;font-variant-position:normal;font-variant-caps:normal;font-variant-numeric:normal;font-variant-alternates:normal;font-feature-settings:normal;text-indent:0;text-align:start;text-decoration:none;text-decoration-line:none;text-decoration-style:solid;text-decoration-color:#000000;letter-spacing:normal;word-spacing:normal;text-transform:none;writing-mode:lr-tb;direction:ltr;text-orientation:mixed;dominant-baseline:auto;baseline-shift:baseline;text-anchor:start;white-space:normal;shape-padding:0;clip-rule:nonzero;display:inline;overflow:visible;visibility:visible;opacity:1;isolation:auto;mix-blend-mode:normal;color-interpolation:sRGB;color-interpolation-filters:linearRGB;solid-color:#000000;solid-opacity:1;vector-effect:none;fill:#ffffff;fill-opacity:1;fill-rule:evenodd;stroke:#000000;stroke-width:0.57485139;stroke-linecap:round;stroke-linejoin:round;stroke-miterlimit:4;stroke-dasharray:none;stroke-dashoffset:0;stroke-opacity:1;marker:none;marker-start:none;marker-mid:none;marker-end:none;color-rendering:auto;image-rendering:auto;shape-rendering:auto;text-rendering:auto;enable-background:accumulate" />
  <path
     style="color:#000000;font-style:normal;font-variant:normal;font-weight:normal;font-stretch:normal;font-size:medium;line-height:normal;font-family:sans-serif;font-variant-ligatures:normal;font-variant-position:normal;font-variant-caps:normal;font-variant-numeric:normal;font-variant-alternates:normal;font-feature-settings:normal;text-indent:0;text-align:start;text-decoration:none;text-decoration-line:none;text-decoration-style:solid;text-decoration-color:#000000;letter-spacing:normal;word-spacing:normal;text-transform:none;writing-mode:lr-tb;direction:ltr;text-orientation:mixed;dominant-baseline:auto;baseline-shift:baseline;text-anchor:start;white-space:normal;shape-padding:0;clip-rule:nonzero;display:inline;overflow:visible;visibility:visible;opacity:1;isolation:auto;mix-blend-mode:normal;color-interpolation:sRGB;color-interpolation-filters:linearRGB;solid-color:#000000;solid-opacity:1;vector-effect:none;fill:#ffffff;fill-opacity:1;fill-rule:evenodd;stroke:#000000;stroke-width:0.57485139;stroke-linecap:round;stroke-linejoin:round;stroke-miterlimit:4;stroke-dasharray:none;stroke-dashoffset:0;stroke-opacity:1;marker:none;marker-start:none;marker-mid:none;marker-end:none;color-rendering:auto;image-rendering:auto;shape-rendering:auto;text-rendering:auto;enable-background:accumulate"
     d="m 22.367415,29.651408 a 0.60006002,0.54626039 21.085157 0 0 0.704702,-0.198969 c 0.517575,-0.755854 0.704383,-1.502958 0.837354,-2.177288 a 0.6002947,0.54647403 21.085157 1 0 -1.168217,-0.265587 c -0.126061,0.639079 -0.273069,1.209509 -0.681905,1.806559 a 0.60006002,0.54626039 21.085157 0 0 0.30802,0.83527 z"
     id="path780-5-4-1" />
  <path
     style="color:#000000;font-style:normal;font-variant:normal;font-weight:normal;font-stretch:normal;font-size:medium;line-height:normal;font-family:sans-serif;font-variant-ligatures:normal;font-variant-position:normal;font-variant-caps:normal;font-variant-numeric:normal;font-variant-alternates:normal;font-feature-settings:normal;text-indent:0;text-align:start;text-decoration:none;text-decoration-line:none;text-decoration-style:solid;text-decoration-color:#000000;letter-spacing:normal;word-spacing:normal;text-transform:none;writing-mode:lr-tb;direction:ltr;text-orientation:mixed;dominant-baseline:auto;baseline-shift:baseline;text-anchor:start;white-space:normal;shape-padding:0;clip-rule:nonzero;display:inline;overflow:visible;visibility:visible;opacity:1;isolation:auto;mix-blend-mode:normal;color-interpolation:sRGB;color-interpolation-filters:linearRGB;solid-color:#000000;solid-opacity:1;vector-effect:none;fill:#ffffff;fill-opacity:1;fill-rule:evenodd;stroke:#000000;stroke-width:0.57485139;stroke-linecap:round;stroke-linejoin:round;stroke-miterlimit:4;stroke-dasharray:none;stroke-dashoffset:0;stroke-opacity:1;marker:none;marker-start:none;marker-mid:none;marker-end:none;color-rendering:auto;image-rendering:auto;shape-rendering:auto;text-rendering:auto;enable-background:accumulate"
     d="m 22.560766,30.133995 a 0.68166259,0.62054671 21.922002 0 0 0.803752,-0.214315 c 0.600438,-0.849964 0.825023,-1.695477 0.987247,-2.459223 A 0.68192916,0.62078938 21.922002 1 0 23.02923,27.139403 c -0.153793,0.723818 -0.330237,1.369314 -0.804528,2.040701 a 0.68166259,0.62054671 21.922002 0 0 0.336012,0.953869 z"
     id="path780-1-5-2" />
  <path
     style="color:#000000;clip-rule:nonzero;display:inline;overflow:visible;visibility:visible;opacity:1;isolation:auto;mix-blend-mode:normal;color-interpolation:sRGB;color-interpolation-filters:linearRGB;solid-color:#000000;solid-opacity:1;vector-effect:none;fill:#ffffff;fill-opacity:1;fill-rule:evenodd;stroke:#000000;stroke-width:0.57485139;stroke-linecap:round;stroke-linejoin:round;stroke-miterlimit:4;stroke-dasharray:none;stroke-dashoffset:0;stroke-opacity:1;marker:none;marker-start:none;marker-mid:none;marker-end:none;color-rendering:auto;image-rendering:auto;shape-rendering:auto;text-rendering:auto;enable-background:accumulate"
     d="m 23.442486,29.619243 c 0.170377,-0.0282 0.314743,-0.125055 0.394788,-0.264849 0.46535,-0.789081 0.600733,-1.548502 0.687862,-2.230272 0.03164,-0.375915 0.01696,-0.746572 -0.03786,-1.065978 -0.03519,-0.220188 -0.106937,-0.631664 -0.106937,-0.631664 -0.176925,-1.106918 -0.742265,-1.936773 -1.261468,-1.853428 -0.09615,0.01233 -0.182344,0.0332 -0.269079,0.04898 -0.540881,0.08639 -0.879822,0.779815 -0.757183,1.54908 0.06092,0.382061 0.229484,0.729818 0.466258,0.961904 0.0118,0.08079 0.02258,0.148882 0.0344,0.227896 0.08053,0.504685 0.340822,0.896209 0.65385,1.096085 -0.08295,0.44587 -0.198409,0.880026 -0.463847,1.330117 -0.183607,0.302544 -0.005,0.699687 0.365146,0.81192 0.09593,0.02934 0.19701,0.0363 0.293992,0.02026 z"
     id="path4919-9-5-2-9" />
  <path
     style="color:#000000;clip-rule:nonzero;display:inline;overflow:visible;visibility:visible;opacity:1;isolation:auto;mix-blend-mode:normal;color-interpolation:sRGB;color-interpolation-filters:linearRGB;solid-color:#000000;solid-opacity:1;fill:none;fill-opacity:1;fill-rule:evenodd;stroke:#000000;stroke-width:0.2;stroke-linecap:butt;stroke-linejoin:miter;stroke-miterlimit:4;stroke-dasharray:none;stroke-dashoffset:0;stroke-opacity:1;color-rendering:auto;image-rendering:auto;shape-rendering:auto;text-rendering:auto;enable-background:accumulate"
     d="m 23.346957,27.892697 c 0.01478,-0.419585 0.223654,-0.699664 0.334849,-0.717856"
     id="path3835-8-3-5-3" />
  <path
     style="color:#000000;clip-rule:nonzero;display:inline;overflow:visible;visibility:visible;opacity:1;isolation:auto;mix-blend-mode:normal;color-interpolation:sRGB;color-interpolation-filters:linearRGB;solid-color:#000000;solid-opacity:1;vector-effect:none;fill:#ffffff;fill-opacity:1;fill-rule:evenodd;stroke:#000000;stroke-width:0.57485139;stroke-linecap:round;stroke-linejoin:round;stroke-miterlimit:4;stroke-dasharray:none;stroke-dashoffset:0;stroke-opacity:1;marker:none;marker-start:none;marker-mid:none;marker-end:none;color-rendering:auto;image-rendering:auto;shape-rendering:auto;text-rendering:auto;enable-background:accumulate"
     d="m 23.198538,25.516507 -0.161706,0.942897 c -0.05811,0.33883 -0.360216,0.541081 -0.677376,0.453476 -0.31716,-0.0876 -0.525711,-0.43091 -0.467604,-0.76974 l 0.323404,-1.885793"
     id="rect4946-9-3-20-2-6-4-1" />
  <path
     style="color:#000000;clip-rule:nonzero;display:inline;overflow:visible;visibility:visible;opacity:1;isolation:auto;mix-blend-mode:normal;color-interpolation:sRGB;color-interpolation-filters:linearRGB;solid-color:#000000;solid-opacity:1;vector-effect:none;fill:#ffffff;fill-opacity:1;fill-rule:evenodd;stroke:#000000;stroke-width:0.32606611;stroke-linecap:round;stroke-linejoin:round;stroke-miterlimit:4;stroke-dasharray:none;stroke-dashoffset:0;stroke-opacity:1;marker:none;marker-start:none;marker-mid:none;marker-end:none;color-rendering:auto;image-rendering:auto;shape-rendering:auto;text-rendering:auto;enable-background:accumulate"
     d="m 4.4235973,1.1882398 c -0.2422652,0 -0.4368778,0.1946119 -0.4368778,0.4368777 V 2.0288793 C 3.9635493,1.815844 3.790894,1.6493175 3.5714952,1.6493175 h -0.015286 c -0.2352319,0 -0.4254145,0.188909 -0.4254145,0.4241409 V 2.6262422 C 3.1105264,2.4252962 2.9745621,2.2683338 2.8009077,2.2683338 h -0.056044 c -0.1876543,0 -0.3388036,0.1805976 -0.3388036,0.4050354 v 1.3004436 c 0,0.01946 0.00672,0.036056 0.00891,0.054766 -0.00117,0.013799 -0.00765,0.026809 -0.00764,0.040758 0,0.1440188 0.012736,0.4139513 0.012736,0.4139513 -6e-7,0.7240037 0.7579518,1.3108608 1.6927416,1.3106325 0.9347898,2.283e-4 1.6927422,-0.5866281 1.6927416,-1.3106325 0,-0.1111905 0.00832,-0.2705201 0.012736,-0.4139513 8.61e-5,-0.1152083 -0.043921,-0.224625 -0.1171797,-0.3260662 V 2.0352448 c 0,-0.2352319 -0.188909,-0.4241403 -0.4241409,-0.4241403 -0.2193988,0 -0.3920541,0.1665259 -0.415225,0.3795612 V 1.6251149 C 4.8617414,1.3828491 4.6658559,1.1882372 4.4235901,1.1882372 Z"
     id="path4919-36-0" />
  <path
     id="path4940-5-3"
     d="M 5.7765362,3.9704296 C 5.3876267,3.8404387 4.6893281,4.1066072 4.4714233,4.3630908"
     style="display:inline;fill:none;fill-rule:evenodd;stroke:#000000;stroke-width:0.19563967;stroke-linecap:butt;stroke-linejoin:miter;stroke-miterlimit:4;stroke-dasharray:none;stroke-opacity:1" />
  <path
     id="path4942-1-6"
     d="M 5.6594804,3.5399421 C 4.8034852,3.0676699 2.9734391,3.3038057 2.3535809,3.8646289"
     style="display:inline;fill:none;fill-rule:evenodd;stroke:#000000;stroke-width:0.13042645;stroke-linecap:butt;stroke-linejoin:miter;stroke-miterlimit:4;stroke-dasharray:none;stroke-opacity:1" />
  <path
     id="path4944-2-1"
     d="M 4.8034852,3.3038057 C 4.7149386,3.8941457 3.3571537,4.2778669 2.5011715,4.4254516"
     style="display:inline;fill:none;fill-rule:evenodd;stroke:#000000;stroke-width:0.13042645;stroke-linecap:butt;stroke-linejoin:miter;stroke-miterlimit:4;stroke-dasharray:none;stroke-opacity:1" />
  <rect
     transform="rotate(105.16715)"
     style="color:#000000;clip-rule:nonzero;display:inline;overflow:visible;visibility:visible;opacity:1;isolation:auto;mix-blend-mode:normal;color-interpolation:sRGB;color-interpolation-filters:linearRGB;solid-color:#000000;solid-opacity:1;fill:#ffffff;fill-opacity:1;fill-rule:evenodd;stroke:#000000;stroke-width:0.32606611;stroke-linecap:round;stroke-linejoin:round;stroke-miterlimit:4;stroke-dasharray:none;stroke-dashoffset:0;stroke-opacity:1;marker:none;marker-start:none;marker-mid:none;marker-end:none;color-rendering:auto;image-rendering:auto;shape-rendering:auto;text-rendering:auto;enable-background:accumulate"
     id="rect363-0"
     width="0.8836115"
     height="1.4700874"
     x="1.8185228"
     y="-6.7658477"
     rx="0.44180575"
     ry="0.44180575" />
  <path
     id="path365-6"
     d="M 3.1307947,2.6262422 V 3.2563969"
     style="display:inline;fill:none;fill-rule:evenodd;stroke:#000000;stroke-width:0.32606611;stroke-linecap:round;stroke-linejoin:miter;stroke-miterlimit:4;stroke-dasharray:none;stroke-opacity:1" />
  <path
     style="display:inline;fill:none;fill-rule:evenodd;stroke:#000000;stroke-width:0.32606611;stroke-linecap:round;stroke-linejoin:miter;stroke-miterlimit:4;stroke-dasharray:none;stroke-opacity:1"
     d="M 3.9827709,1.9597194 V 3.1548397"
     id="path367-3" />
  <path
     id="path369-2"
     d="M 4.8571941,1.8403512 V 3.0897948"
     style="display:inline;fill:none;fill-rule:evenodd;stroke:#000000;stroke-width:0.32606611;stroke-linecap:round;stroke-linejoin:miter;stroke-miterlimit:4;stroke-dasharray:none;stroke-opacity:1" />
  <path
     id="rect5391-25"
     d="m 7.7040789,3.501543 c -0.07506,0 -0.151468,0.028428 -0.208984,0.085938 l -1.52539,1.5273438 c -0.111693,0.1116919 -0.11299,0.2887643 -0.00781,0.4042968 h 1.126953 v 1.3666969 h -1.126953 c -0.105177,0.115532 -0.10388,0.2926049 0.00781,0.4042969 l 1.52539,1.5273439 c 0.057516,0.05751 0.133924,0.08594 0.208984,0.08594 0.075062,0 0.149522,-0.02842 0.207032,-0.08594 L 9.4384546,7.2901154 c 0.111716,-0.111683 0.112996,-0.2887638 0.0078,-0.4042969 H 8.3876729 V 5.5191216 h 1.0585937 c 0.105184,-0.1155335 0.103904,-0.2926139 -0.0078,-0.4042968 L 7.9111109,3.587481 c -0.05751,-0.05752 -0.13197,-0.085937 -0.207032,-0.085938 z"
     style="color:#000000;clip-rule:nonzero;display:inline;overflow:visible;visibility:visible;opacity:1;isolation:auto;mix-blend-mode:normal;color-interpolation:sRGB;color-interpolation-filters:linearRGB;solid-color:#000000;solid-opacity:1;fill:#000000;fill-opacity:1;fill-rule:evenodd;stroke:#ffffff;stroke-width:0.2;stroke-linecap:round;stroke-linejoin:round;stroke-miterlimit:4;stroke-dasharray:none;stroke-dashoffset:0;stroke-opacity:1;marker:none;marker-start:none;marker-mid:none;marker-end:none;color-rendering:auto;image-rendering:auto;shape-rendering:auto;text-rendering:auto;enable-background:accumulate" />
  <path
     style="color:#000000;clip-rule:nonzero;display:inline;overflow:visible;visibility:visible;opacity:1;isolation:auto;mix-blend-mode:normal;color-interpolation:sRGB;color-interpolation-filters:linearRGB;solid-color:#000000;solid-opacity:1;vector-effect:none;fill:#ffffff;fill-opacity:1;fill-rule:evenodd;stroke:#000000;stroke-width:0.31822389;stroke-linecap:round;stroke-linejoin:round;stroke-miterlimit:4;stroke-dasharray:none;stroke-dashoffset:0;stroke-opacity:1;marker:none;marker-start:none;marker-mid:none;marker-end:none;color-rendering:auto;image-rendering:auto;shape-rendering:auto;text-rendering:auto;enable-background:accumulate"
     d="m 4.1125226,8.7879416 c -0.9194996,-2.5e-5 -1.6648252,0.397407 -1.6644606,0.887546 0,0.140555 0.01243,0.4039954 0.01243,0.4039954 -6e-7,0.706591 0.739723,1.279333 1.6520301,1.27911 0.9123071,2.23e-4 1.6520307,-0.572519 1.6520301,-1.27911 0,-0.1085164 0.00812,-0.2640134 0.01243,-0.4039954 3.648e-4,-0.490139 -0.74496,-0.887571 -1.6644596,-0.887546 z"
     id="path4919-0-7" />
  <path
     id="path4940-1-4"
     d="M 5.7154755,9.5788106 C 5.3359197,9.4519456 4.6544159,9.7117126 4.4417519,9.9620276"
     style="display:inline;fill:none;fill-rule:evenodd;stroke:#000000;stroke-width:0.19093433;stroke-linecap:butt;stroke-linejoin:miter;stroke-miterlimit:4;stroke-dasharray:none;stroke-opacity:1" />
  <path
     id="path4942-5-5"
     d="M 5.622372,9.1586766 C 4.7869644,8.6977626 3.0009328,8.9282196 2.3959822,9.4755546"
     style="display:inline;fill:none;fill-rule:evenodd;stroke:#000000;stroke-width:0.12728955;stroke-linecap:butt;stroke-linejoin:miter;stroke-miterlimit:4;stroke-dasharray:none;stroke-opacity:1" />
  <path
     id="path4944-69-2"
     d="M 4.7869644,8.9282196 C 4.7005472,9.5043616 3.3754187,9.8788536 2.5400231,10.022888"
     style="display:inline;fill:none;fill-rule:evenodd;stroke:#000000;stroke-width:0.12728955;stroke-linecap:butt;stroke-linejoin:miter;stroke-miterlimit:4;stroke-dasharray:none;stroke-opacity:1" />
  <rect
     ry="0.43117988"
     rx="0.43117988"
     y="-8.1961832"
     x="7.2647481"
     height="1.4347303"
     width="0.86235976"
     id="rect618-5"
     style="color:#000000;clip-rule:nonzero;display:inline;overflow:visible;visibility:visible;opacity:1;isolation:auto;mix-blend-mode:normal;color-interpolation:sRGB;color-interpolation-filters:linearRGB;solid-color:#000000;solid-opacity:1;fill:#ffffff;fill-opacity:1;fill-rule:evenodd;stroke:#000000;stroke-width:0.31822389;stroke-linecap:round;stroke-linejoin:round;stroke-miterlimit:4;stroke-dasharray:none;stroke-dashoffset:0;stroke-opacity:1;marker:none;marker-start:none;marker-mid:none;marker-end:none;color-rendering:auto;image-rendering:auto;shape-rendering:auto;text-rendering:auto;enable-background:accumulate"
     transform="rotate(105.16715)" />
  <rect
     style="color:#000000;clip-rule:nonzero;display:inline;overflow:visible;visibility:visible;opacity:1;isolation:auto;mix-blend-mode:normal;color-interpolation:sRGB;color-interpolation-filters:linearRGB;solid-color:#000000;solid-opacity:1;fill:#ffffff;fill-opacity:1;fill-rule:evenodd;stroke:#000000;stroke-width:0.31822389;stroke-linecap:round;stroke-linejoin:round;stroke-miterlimit:4;stroke-dasharray:none;stroke-dashoffset:0;stroke-opacity:1;marker:none;marker-start:none;marker-mid:none;marker-end:none;color-rendering:auto;image-rendering:auto;shape-rendering:auto;text-rendering:auto;enable-background:accumulate"
     id="rect620-4"
     width="0.76394981"
     height="1.3359423"
     x="4.965982"
     y="8.0839491"
     rx="0.38197491"
     ry="0.38197491" />
  <rect
     ry="0.43117988"
     rx="0.43117988"
     y="7.928896"
     x="4.0699773"
     height="1.4347303"
     width="0.86235976"
     id="rect622-7"
     style="color:#000000;clip-rule:nonzero;display:inline;overflow:visible;visibility:visible;opacity:1;isolation:auto;mix-blend-mode:normal;color-interpolation:sRGB;color-interpolation-filters:linearRGB;solid-color:#000000;solid-opacity:1;fill:#ffffff;fill-opacity:1;fill-rule:evenodd;stroke:#000000;stroke-width:0.31822389;stroke-linecap:round;stroke-linejoin:round;stroke-miterlimit:4;stroke-dasharray:none;stroke-dashoffset:0;stroke-opacity:1;marker:none;marker-start:none;marker-mid:none;marker-end:none;color-rendering:auto;image-rendering:auto;shape-rendering:auto;text-rendering:auto;enable-background:accumulate" />
  <rect
     ry="0.41439402"
     rx="0.41439402"
     y="8.1703157"
     x="3.2357879"
     height="1.3022254"
     width="0.84378183"
     id="rect624-4"
     style="color:#000000;clip-rule:nonzero;display:inline;overflow:visible;visibility:visible;opacity:1;isolation:auto;mix-blend-mode:normal;color-interpolation:sRGB;color-interpolation-filters:linearRGB;solid-color:#000000;solid-opacity:1;fill:#ffffff;fill-opacity:1;fill-rule:evenodd;stroke:#000000;stroke-width:0.31822389;stroke-linecap:round;stroke-linejoin:round;stroke-miterlimit:4;stroke-dasharray:none;stroke-dashoffset:0;stroke-opacity:1;marker:none;marker-start:none;marker-mid:none;marker-end:none;color-rendering:auto;image-rendering:auto;shape-rendering:auto;text-rendering:auto;enable-background:accumulate" />
  <rect
     style="color:#000000;clip-rule:nonzero;display:inline;overflow:visible;visibility:visible;opacity:1;isolation:auto;mix-blend-mode:normal;color-interpolation:sRGB;color-interpolation-filters:linearRGB;solid-color:#000000;solid-opacity:1;fill:#ffffff;fill-opacity:1;fill-rule:evenodd;stroke:#000000;stroke-width:0.31822389;stroke-linecap:round;stroke-linejoin:round;stroke-miterlimit:4;stroke-dasharray:none;stroke-dashoffset:0;stroke-opacity:1;marker:none;marker-start:none;marker-mid:none;marker-end:none;color-rendering:auto;image-rendering:auto;shape-rendering:auto;text-rendering:auto;enable-background:accumulate"
     id="rect626-4"
     width="0.71578038"
     height="1.1585584"
     x="2.5275216"
     y="8.3834534"
     rx="0.3305794"
     ry="0.3953785" />
  <rect
     style="color:#000000;clip-rule:nonzero;display:inline;overflow:visible;visibility:visible;opacity:1;isolation:auto;mix-blend-mode:normal;color-interpolation:sRGB;color-interpolation-filters:linearRGB;solid-color:#000000;solid-opacity:1;vector-effect:none;fill:#ffffff;fill-opacity:1;fill-rule:evenodd;stroke:#666666;stroke-width:0.5;stroke-linecap:round;stroke-linejoin:round;stroke-miterlimit:4;stroke-dasharray:none;stroke-dashoffset:0;stroke-opacity:1;marker:none;marker-start:none;marker-mid:none;marker-end:none;color-rendering:auto;image-rendering:auto;shape-rendering:auto;text-rendering:auto;enable-background:accumulate"
     id="rect4938-4"
     width="1.3411465"
     height="3.9105282"
     x="5.486692"
     y="15.369405"
     rx="0.67057323"
     ry="0.67057323" />
  <rect
     ry="0.65110451"
     rx="0.65110451"
     y="16.01795"
     x="6.8138099"
     height="3.9328647"
     width="1.302209"
     id="rect4948-9"
     style="color:#000000;clip-rule:nonzero;display:inline;overflow:visible;visibility:visible;opacity:1;isolation:auto;mix-blend-mode:normal;color-interpolation:sRGB;color-interpolation-filters:linearRGB;solid-color:#000000;solid-opacity:1;vector-effect:none;fill:#ffffff;fill-opacity:1;fill-rule:evenodd;stroke:#666666;stroke-width:0.5;stroke-linecap:round;stroke-linejoin:round;stroke-miterlimit:4;stroke-dasharray:none;stroke-dashoffset:0;stroke-opacity:1;marker:none;marker-start:none;marker-mid:none;marker-end:none;color-rendering:auto;image-rendering:auto;shape-rendering:auto;text-rendering:auto;enable-background:accumulate" />
  <rect
     style="color:#000000;clip-rule:nonzero;display:inline;overflow:visible;visibility:visible;opacity:1;isolation:auto;mix-blend-mode:normal;color-interpolation:sRGB;color-interpolation-filters:linearRGB;solid-color:#000000;solid-opacity:1;vector-effect:none;fill:#ffffff;fill-opacity:1;fill-rule:evenodd;stroke:#666666;stroke-width:0.5;stroke-linecap:round;stroke-linejoin:round;stroke-miterlimit:4;stroke-dasharray:none;stroke-dashoffset:0;stroke-opacity:1;marker:none;marker-start:none;marker-mid:none;marker-end:none;color-rendering:auto;image-rendering:auto;shape-rendering:auto;text-rendering:auto;enable-background:accumulate"
     id="rect4950-2"
     width="1.3257692"
     height="3.9210835"
     x="4.1749511"
     y="16.076853"
     rx="0.65110451"
     ry="0.65110451" />
  <rect
     ry="0.62122691"
     rx="0.51941323"
     y="17.025618"
     x="3.0621085"
     height="3.2369559"
     width="1.1246483"
     id="rect4952-0"
     style="color:#000000;clip-rule:nonzero;display:inline;overflow:visible;visibility:visible;opacity:1;isolation:auto;mix-blend-mode:normal;color-interpolation:sRGB;color-interpolation-filters:linearRGB;solid-color:#000000;solid-opacity:1;vector-effect:none;fill:#ffffff;fill-opacity:1;fill-rule:evenodd;stroke:#666666;stroke-width:0.5;stroke-linecap:round;stroke-linejoin:round;stroke-miterlimit:4;stroke-dasharray:none;stroke-dashoffset:0;stroke-opacity:1;marker:none;marker-start:none;marker-mid:none;marker-end:none;color-rendering:auto;image-rendering:auto;shape-rendering:auto;text-rendering:auto;enable-background:accumulate" />
  <path
     style="color:#000000;clip-rule:nonzero;display:inline;overflow:visible;visibility:visible;opacity:1;isolation:auto;mix-blend-mode:normal;color-interpolation:sRGB;color-interpolation-filters:linearRGB;solid-color:#000000;solid-opacity:1;vector-effect:none;fill:#ffffff;fill-opacity:1;fill-rule:evenodd;stroke:#000000;stroke-width:0.5;stroke-linecap:round;stroke-linejoin:round;stroke-miterlimit:4;stroke-dasharray:none;stroke-dashoffset:0;stroke-opacity:1;marker:none;marker-start:none;marker-mid:none;marker-end:none;color-rendering:auto;image-rendering:auto;shape-rendering:auto;text-rendering:auto;enable-background:accumulate"
     d="m 5.5299205,18.631812 c -1.444737,-3.9e-5 -2.615808,0.624414 -2.615235,1.394531 0,0.220843 0.01953,0.634765 0.01953,0.634765 -1e-6,1.11021 1.162268,2.010116 2.595704,2.009766 1.433436,3.5e-4 2.595705,-0.899555 2.595704,-2.009766 0,-0.170503 0.01276,-0.414823 0.01953,-0.634765 5.73e-4,-0.770117 -1.170497,-1.394571 -2.615235,-1.394531 z"
     id="path4919-0-3" />
  <path
     id="path4940-1-0"
     d="M 8.0485135,19.874441 C 7.4521475,19.675109 6.3813545,20.08326 6.0472125,20.47656"
     style="display:inline;fill:none;fill-rule:evenodd;stroke:#000000;stroke-width:0.30000001;stroke-linecap:butt;stroke-linejoin:miter;stroke-miterlimit:4;stroke-dasharray:none;stroke-opacity:1" />
  <path
     id="path4942-5-7"
     d="m 7.9022275,19.214318 c -1.31261,-0.724197 -4.11886,-0.362099 -5.069371,0.497885"
     style="display:inline;fill:none;fill-rule:evenodd;stroke:#000000;stroke-width:0.2;stroke-linecap:butt;stroke-linejoin:miter;stroke-miterlimit:4;stroke-dasharray:none;stroke-opacity:1" />
  <path
     id="path4944-69-8"
     d="m 6.5896175,18.852219 c -0.13578,0.905246 -2.21785,1.493656 -3.530441,1.719967"
     style="display:inline;fill:none;fill-rule:evenodd;stroke:#000000;stroke-width:0.2;stroke-linecap:butt;stroke-linejoin:miter;stroke-miterlimit:4;stroke-dasharray:none;stroke-opacity:1" />
  <rect
     ry="0.67747879"
     rx="0.67747879"
     y="-13.240846"
     x="16.314283"
     height="2.2542782"
     width="1.3549576"
     id="rect618-6"
     style="color:#000000;clip-rule:nonzero;display:inline;overflow:visible;visibility:visible;opacity:1;isolation:auto;mix-blend-mode:normal;color-interpolation:sRGB;color-interpolation-filters:linearRGB;solid-color:#000000;solid-opacity:1;fill:#ffffff;fill-opacity:1;fill-rule:evenodd;stroke:#000000;stroke-width:0.5;stroke-linecap:round;stroke-linejoin:round;stroke-miterlimit:4;stroke-dasharray:none;stroke-dashoffset:0;stroke-opacity:1;marker:none;marker-start:none;marker-mid:none;marker-end:none;color-rendering:auto;image-rendering:auto;shape-rendering:auto;text-rendering:auto;enable-background:accumulate"
     transform="rotate(105.16715)" />
  <rect
     style="color:#000000;clip-rule:nonzero;display:inline;overflow:visible;visibility:visible;opacity:1;isolation:auto;mix-blend-mode:normal;color-interpolation:sRGB;color-interpolation-filters:linearRGB;solid-color:#000000;solid-opacity:1;fill:#ffffff;fill-opacity:1;fill-rule:evenodd;stroke:#000000;stroke-width:0.5;stroke-linecap:round;stroke-linejoin:round;stroke-miterlimit:4;stroke-dasharray:none;stroke-dashoffset:0;stroke-opacity:1;marker:none;marker-start:none;marker-mid:none;marker-end:none;color-rendering:auto;image-rendering:auto;shape-rendering:auto;text-rendering:auto;enable-background:accumulate"
     id="rect620-8"
     width="1.2003338"
     height="2.0990603"
     x="6.870894"
     y="17.525684"
     rx="0.60016692"
     ry="0.60016692" />
  <rect
     ry="0.67747879"
     rx="0.67747879"
     y="17.282063"
     x="5.4630723"
     height="2.2542782"
     width="1.3549576"
     id="rect622-8"
     style="color:#000000;clip-rule:nonzero;display:inline;overflow:visible;visibility:visible;opacity:1;isolation:auto;mix-blend-mode:normal;color-interpolation:sRGB;color-interpolation-filters:linearRGB;solid-color:#000000;solid-opacity:1;fill:#ffffff;fill-opacity:1;fill-rule:evenodd;stroke:#000000;stroke-width:0.5;stroke-linecap:round;stroke-linejoin:round;stroke-miterlimit:4;stroke-dasharray:none;stroke-dashoffset:0;stroke-opacity:1;marker:none;marker-start:none;marker-mid:none;marker-end:none;color-rendering:auto;image-rendering:auto;shape-rendering:auto;text-rendering:auto;enable-background:accumulate" />
  <rect
     ry="0.65110451"
     rx="0.65110451"
     y="17.661385"
     x="4.1523767"
     height="2.0460835"
     width="1.3257675"
     id="rect624-43"
     style="color:#000000;clip-rule:nonzero;display:inline;overflow:visible;visibility:visible;opacity:1;isolation:auto;mix-blend-mode:normal;color-interpolation:sRGB;color-interpolation-filters:linearRGB;solid-color:#000000;solid-opacity:1;fill:#ffffff;fill-opacity:1;fill-rule:evenodd;stroke:#000000;stroke-width:0.5;stroke-linecap:round;stroke-linejoin:round;stroke-miterlimit:4;stroke-dasharray:none;stroke-dashoffset:0;stroke-opacity:1;marker:none;marker-start:none;marker-mid:none;marker-end:none;color-rendering:auto;image-rendering:auto;shape-rendering:auto;text-rendering:auto;enable-background:accumulate" />
  <rect
     style="color:#000000;clip-rule:nonzero;display:inline;overflow:visible;visibility:visible;opacity:1;isolation:auto;mix-blend-mode:normal;color-interpolation:sRGB;color-interpolation-filters:linearRGB;solid-color:#000000;solid-opacity:1;fill:#ffffff;fill-opacity:1;fill-rule:evenodd;stroke:#000000;stroke-width:0.5;stroke-linecap:round;stroke-linejoin:round;stroke-miterlimit:4;stroke-dasharray:none;stroke-dashoffset:0;stroke-opacity:1;marker:none;marker-start:none;marker-mid:none;marker-end:none;color-rendering:auto;image-rendering:auto;shape-rendering:auto;text-rendering:auto;enable-background:accumulate"
     id="rect626-1"
     width="1.124649"
     height="1.8203511"
     x="3.0395341"
     y="17.996273"
     rx="0.51941323"
     ry="0.62122691" />
  <path
     style="display:inline;opacity:1;vector-effect:none;fill:#ffffff;fill-opacity:1;fill-rule:evenodd;stroke:#000000;stroke-width:0.5;stroke-linecap:round;stroke-linejoin:miter;stroke-miterlimit:4;stroke-dasharray:none;stroke-dashoffset:0;stroke-opacity:1"
     d="m 9.515625,26.027344 c 0.042144,-0.743614 0.4413624,-1.80037 0.4413624,-1.80037"
     id="path1611" />
  <path
     style="font-style:normal;font-variant:normal;font-weight:bold;font-stretch:normal;font-size:medium;line-height:125%;font-family:sans-serif;-inkscape-font-specification:'sans-serif Bold';letter-spacing:0px;word-spacing:0px;display:inline;opacity:1;vector-effect:none;fill:#ff0000;fill-opacity:1;stroke:#ffffff;stroke-width:0.2;stroke-linecap:round;stroke-linejoin:round;stroke-miterlimit:4;stroke-dasharray:none;stroke-dashoffset:0;stroke-opacity:1;marker:none;marker-start:none;marker-mid:none;marker-end:none"
     d="m 5.8096224,26.891733 c -0.3078805,0.0063 -0.6239702,0.03696 -0.9121031,0.148429 -0.1419887,0.195109 -0.048478,0.478671 -0.062499,0.707031 0.063129,0.190582 0.286809,0.08857 0.4174513,0.03477 0.2296977,-0.06351 0.5041896,-0.128945 0.7169991,0.0098 0.1066449,0.214133 -0.203589,0.267796 -0.356289,0.243533 -0.1591564,-0.0039 -0.4443214,-0.04621 -0.436361,0.192389 0.039908,0.191158 -0.1018689,0.502493 0.1345154,0.592444 0.2342911,0.032 0.5164359,-0.05757 0.7119905,0.114749 0.1308899,0.163219 -0.1057593,0.31427 -0.2592512,0.296031 -0.297655,0.03318 -0.5939974,-0.07254 -0.8567967,-0.190723 -0.1840305,-0.02636 -0.2124895,0.182961 -0.1964898,0.320283 -0.02147,0.113058 0.056414,0.499063 -0.080772,0.257013 -0.20462,-0.277595 -0.4086824,-0.555601 -0.6133635,-0.833152 0.2248934,-0.307398 0.4568825,-0.610883 0.675785,-0.921872 0.087678,-0.294767 -0.3161013,-0.244385 -0.494544,-0.240936 -0.2289587,-0.01 -0.5105749,-0.04765 -0.5974124,0.229849 -0.062895,0.07774 -0.1165123,0.162777 -0.1756255,0.243506 -0.1376549,-0.153764 -0.20224,-0.413738 -0.4138706,-0.47331 -0.2453067,0.0048 -0.492757,-0.0063 -0.7379179,0.0053 -0.151954,0.03734 -0.146727,0.231909 -0.052268,0.321859 0.2066892,0.279825 0.4133785,0.559651 0.6200677,0.839476 -0.2367839,0.324028 -0.482184,0.643019 -0.7128944,0.970701 -0.085001,0.293769 0.3166145,0.248177 0.4959638,0.24209 0.2276012,0.0081 0.5087451,0.04669 0.5959632,-0.228989 0.073525,-0.09258 0.1372593,-0.192849 0.2069092,-0.288484 0.1537367,0.166438 0.2321882,0.440821 0.4558006,0.51754 0.2477298,-0.0043 0.4976874,0.0112 0.7453684,-0.0097 0.1139797,-0.0039 0.084759,-0.235136 0.1847587,-0.08767 0.4977681,0.170465 1.0546392,0.208262 1.5655289,0.06645 C 6.8024721,29.880229 7.1313105,29.468728 7.10094,29.03232 7.1010222,28.770587 6.9687489,28.511615 6.7529818,28.362436 7.1893124,28.044776 7.1026457,27.269578 6.6173843,27.051044 6.3705108,26.919645 6.0845975,26.893566 5.8096224,26.891733 Z"
     id="path5400" />
</svg>
