<?xml version="1.0" encoding="UTF-8" standalone="no"?>
<!-- Created with Inkscape (http://www.inkscape.org/) -->
<svg
   xmlns:svg="http://www.w3.org/2000/svg"
   xmlns="http://www.w3.org/2000/svg"
   version="1.0"
   width="100%"
   height="100%"
   viewBox="0 0 48 48"
   id="svg2383">
  <defs
     id="defs2385" />
  <path
     d="M 15.407379,32.911254 C 16.06705,34.638656 15.201291,36.573737 13.473776,37.233109 C 11.74626,37.892481 9.8113294,37.026389 9.152256,35.298759 C 8.4925853,33.571356 9.3583428,31.636275 11.085858,30.976903 C 12.813373,30.317531 14.748306,31.183623 15.407379,32.911254 z"
     id="path2385"
     style="fill:#352222;fill-opacity:1;fill-rule:evenodd;stroke:#000000;stroke-width:0;stroke-linecap:butt;stroke-linejoin:miter;marker:none;marker-start:none;marker-mid:none;marker-end:none;stroke-miterlimit:4;stroke-dasharray:none;stroke-dashoffset:0;stroke-opacity:1;visibility:visible;display:inline;overflow:visible;enable-background:accumulate" />
  <path
     d="M 43.603556,22.149116 C 44.263226,23.876518 43.397468,25.8116 41.669952,26.470972 C 39.942436,27.130343 38.007504,26.264251 37.348431,24.536621 C 36.68876,22.809219 37.554518,20.874137 39.282034,20.214765 C 41.00955,19.555394 42.944483,20.421485 43.603556,22.149116 z"
     id="path2386"
     style="fill:#352222;fill-opacity:1;fill-rule:evenodd;stroke:#000000;stroke-width:0;stroke-linecap:butt;stroke-linejoin:miter;marker:none;marker-start:none;marker-mid:none;marker-end:none;stroke-miterlimit:4;stroke-dasharray:none;stroke-dashoffset:0;stroke-opacity:1;visibility:visible;display:inline;overflow:visible;enable-background:accumulate" />
  <path
     d="M 29.553584,27.51182 C 30.213254,29.239221 29.347496,31.174303 27.61998,31.833675 C 25.892464,32.493047 23.957532,31.626955 23.298459,29.899325 C 22.638788,28.171922 23.504546,26.236841 25.232062,25.577469 C 26.959578,24.918097 28.894511,25.784189 29.553584,27.51182 z"
     id="path2388"
     style="fill:#352222;fill-opacity:1;fill-rule:evenodd;stroke:#000000;stroke-width:0;stroke-linecap:butt;stroke-linejoin:miter;marker:none;marker-start:none;marker-mid:none;marker-end:none;stroke-miterlimit:4;stroke-dasharray:none;stroke-dashoffset:0;stroke-opacity:1;visibility:visible;display:inline;overflow:visible;enable-background:accumulate" />
  <path
     d="M 11.924638,34.185449 L 40.313279,23.34985"
     id="path2392"
     style="fill:none;fill-opacity:1;fill-rule:evenodd;stroke:#352222;stroke-width:2;stroke-linecap:butt;stroke-linejoin:miter;marker:none;marker-start:none;marker-mid:none;marker-end:none;stroke-miterlimit:4;stroke-dasharray:none;stroke-dashoffset:0;stroke-opacity:1;visibility:visible;display:inline;overflow:visible;enable-background:accumulate" />
  <path
     d="M 12.840759,-6.0204652 L 36.532153,56.049615"
     id="path2390"
     style="fill:none;fill-opacity:1;fill-rule:evenodd;stroke:#352222;stroke-width:2;stroke-linecap:butt;stroke-linejoin:miter;marker:none;marker-start:none;marker-mid:none;marker-end:none;stroke-miterlimit:4;stroke-dasharray:none;stroke-dashoffset:0;stroke-opacity:1;visibility:visible;display:inline;overflow:visible;enable-background:accumulate" />
</svg>
