<?xml version="1.0" encoding="UTF-8" standalone="no"?>
<!-- Created with Inkscape (http://www.inkscape.org/) -->
<svg
   xmlns:svg="http://www.w3.org/2000/svg"
   xmlns="http://www.w3.org/2000/svg"
   version="1.0"
   width="100%"
   height="100%"
   viewBox="0 0 48 48"
   id="svg2383">
  <defs
     id="defs2385" />
  <path
     d="M 12.087581,43.56509 C 11.084977,43.56509 10.082372,43.56509 9.0797682,43.56509 C 9.0797682,39.479478 9.0797682,35.393866 9.0797682,31.308254 C 10.082372,31.308254 11.084977,31.308254 12.087581,31.308254 C 12.242596,31.859619 11.907766,31.92114 11.43857,31.848293 C 10.9941,31.848293 10.549629,31.848293 10.105159,31.848293 C 10.105159,35.576158 10.105159,39.304022 10.105159,43.031887 C 10.765966,43.031887 11.426773,43.031887 12.087581,43.031887 C 12.087581,43.209621 12.087581,43.387356 12.087581,43.56509 z M 19.039728,37.686184 C 17.843439,37.686184 16.647151,37.686184 15.450862,37.686184 C 15.160775,38.440939 14.729688,39.154765 14.589534,39.955715 C 14.677141,40.536151 16.450022,40.716611 15.143568,40.7897 C 14.343655,40.7897 13.543743,40.7897 12.743831,40.7897 C 12.886439,40.274724 14.020072,40.260954 14.06103,39.397305 C 15.23424,36.708614 16.370409,34.003451 17.528988,31.308254 C 17.974954,31.245589 17.927282,31.924594 18.144031,32.206318 C 19.193969,34.676646 20.187891,37.172195 21.276463,39.625134 C 21.226264,40.398898 22.92875,40.404105 22.45778,40.7897 C 21.281971,40.7897 20.106162,40.7897 18.930353,40.7897 C 19.105799,40.380655 20.396282,40.265777 19.719901,39.32211 C 19.504282,38.772353 19.265749,38.231749 19.039728,37.686184 z M 18.848324,37.180325 C 18.324235,35.931627 17.800145,34.682929 17.276056,33.434231 C 16.738296,34.682929 16.200536,35.931627 15.662776,37.180325 C 16.724625,37.180325 17.786475,37.180325 18.848324,37.180325 z M 23.503595,43.120754 C 23.629769,42.444756 24.978848,42.311814 24.955805,41.332729 C 25.230744,40.240795 23.348319,41.602273 23.503596,40.235989 C 23.643387,38.838242 25.673341,39.511089 25.535151,40.699765 C 25.645496,41.914308 24.580132,42.821408 23.503596,43.120754 L 23.503595,43.120754 z M 32.718441,36.059231 C 34.009796,36.185841 35.144168,37.440892 34.762379,38.7637 C 34.460734,40.113863 33.038246,40.769518 31.758681,40.761662 C 30.001511,40.818449 28.242188,40.777068 26.484064,40.7897 C 26.57737,40.25616 28.117993,40.634025 27.814081,39.504971 C 27.819803,37.205326 27.852253,34.902535 27.79603,32.604204 C 28.125166,31.574539 26.093272,32.016892 26.613866,31.520168 C 28.446297,31.559036 30.290163,31.419312 32.111642,31.645782 C 33.460862,31.794048 34.716513,33.090426 34.333638,34.497544 C 34.153056,35.283168 33.467498,35.840442 32.71844,36.059231 L 32.718441,36.059231 z M 29.13641,35.69009 C 30.267394,35.802203 31.678847,36.024719 32.549675,35.118865 C 33.582004,33.956545 32.567605,32.098474 31.102138,32.034258 C 30.520441,32.062072 29.077876,31.66034 29.136409,32.517973 C 29.136409,33.575346 29.13641,34.632718 29.13641,35.69009 z M 29.13641,40.119778 C 30.419755,40.392848 32.152271,40.548121 32.984288,39.293699 C 33.680867,38.186919 32.88421,36.649318 31.635795,36.418974 C 30.946385,36.393302 29.206268,35.797812 29.136409,36.708402 C 29.136409,37.845527 29.13641,38.982653 29.13641,40.119778 z M 36.115902,31.308254 C 37.118506,31.308254 38.12111,31.308254 39.123714,31.308254 C 39.123714,35.396145 39.123714,39.484035 39.123714,43.571926 C 38.12111,43.571926 37.118506,43.571926 36.115902,43.571926 C 35.960887,43.020561 36.295716,42.959041 36.764912,43.031887 C 37.209383,43.031887 37.653853,43.031887 38.098324,43.031887 C 38.098324,39.304022 38.098324,35.576158 38.098324,31.848293 C 37.437517,31.848293 36.776709,31.848293 36.115902,31.848293 C 36.115902,31.66828 36.115902,31.488267 36.115902,31.308254 z"
     id="text2381"
     style="font-size:14px;font-style:normal;font-variant:normal;font-weight:normal;font-stretch:normal;fill:#352222;fill-opacity:1;stroke:none;stroke-width:1px;stroke-linecap:butt;stroke-linejoin:miter;stroke-opacity:1;font-family:Times New Roman;-inkscape-font-specification:Times New Roman" />
  <path
     d="M 11.330472,21.167381 C 11.330792,23.016457 9.8319087,24.515599 7.9828325,24.515599 C 6.1337562,24.515599 4.6348733,23.016457 4.6351929,21.167381 C 4.6348733,19.318305 6.1337562,17.819163 7.9828325,17.819163 C 9.8319087,17.819163 11.330792,19.318305 11.330472,21.167381 z"
     transform="translate(2.3690987,0)"
     id="path2385"
     style="opacity:1;fill:#352222;fill-opacity:1;fill-rule:evenodd;stroke:#000000;stroke-width:0;stroke-linecap:butt;stroke-linejoin:miter;marker:none;marker-start:none;marker-mid:none;marker-end:none;stroke-miterlimit:4;stroke-dasharray:none;stroke-dashoffset:0;stroke-opacity:1;visibility:visible;display:inline;overflow:visible;enable-background:accumulate" />
  <path
     d="M 11.330472,21.167381 C 11.330792,23.016457 9.8319087,24.515599 7.9828325,24.515599 C 6.1337562,24.515599 4.6348733,23.016457 4.6351929,21.167381 C 4.6348733,19.318305 6.1337562,17.819163 7.9828325,17.819163 C 9.8319087,17.819163 11.330792,19.318305 11.330472,21.167381 z"
     transform="translate(27.862661,-7.0557933)"
     id="path2387"
     style="opacity:1;fill:#352222;fill-opacity:1;fill-rule:evenodd;stroke:#000000;stroke-width:0;stroke-linecap:butt;stroke-linejoin:miter;marker:none;marker-start:none;marker-mid:none;marker-end:none;stroke-miterlimit:4;stroke-dasharray:none;stroke-dashoffset:0;stroke-opacity:1;visibility:visible;display:inline;overflow:visible;enable-background:accumulate" />
  <path
     d="M 10.403433,21.11588 L 35.742489,13.905579"
     id="path2389"
     style="fill:none;fill-rule:evenodd;stroke:#352222;stroke-width:2;stroke-linecap:butt;stroke-linejoin:miter;stroke-miterlimit:4;stroke-dasharray:none;stroke-opacity:1" />
</svg>
