<?xml version="1.0" encoding="UTF-8" standalone="no"?>
<svg xmlns:dc="http://purl.org/dc/elements/1.1/" xmlns:cc="http://creativecommons.org/ns#" xmlns:rdf="http://www.w3.org/1999/02/22-rdf-syntax-ns#" xmlns:svg="http://www.w3.org/2000/svg" xmlns="http://www.w3.org/2000/svg" viewBox="0 0 24 24" version="1.1" id="svg11767" height="100%" width="100%" >
<defs id="defs11761" />
<path style="fill:#ffffff" d="M 4,4 V 24 H 24 V 4 Z" id="rect5" />
<path style="fill:#000000" d="m 11.013,14.103 c -0.090,0.009 -0.174,0.081 -0.162,0.208 v 0.002 c 0.022,0.3 0.046,0.599 0.085,0.898 0.047,0.349 0.076,0.699 0.111,1.050 0.029,0.328 0.060,0.655 0.085,0.984 0.017,0.304 0.026,0.609 0.035,0.914 10e-4,0.258 0.016,0.518 0.027,0.777 0.006,0.232 0.011,0.463 0.023,0.695 0.01,0.252 0.025,0.504 0.039,0.757 0.011,0.266 0.053,0.529 0.076,0.794 0.011,0.246 0.013,0.492 0.021,0.738 0.005,0.309 0.021,0.617 0.042,0.925 0.02,0.27 0.053,0.537 0.060,0.808 4.65e-4,0.113 6.32e-4,0.226 0.002,0.339 h 0.361 c -0.001,-0.117 -10e-4,-0.234 -0.002,-0.351 -0.007,-0.275 -0.037,-0.548 -0.058,-0.822 -0.02,-0.304 -0.037,-0.609 -0.042,-0.914 -0.007,-0.253 -0.010,-0.506 -0.023,-0.759 -0.023,-0.261 -0.065,-0.520 -0.076,-0.783 -0.014,-0.251 -0.027,-0.502 -0.037,-0.753 -0.011,-0.231 -0.015,-0.461 -0.023,-0.693 -0.011,-0.256 -0.027,-0.513 -0.029,-0.771 -0.009,-0.31 -0.017,-0.619 -0.035,-0.929 -0.025,-0.331 -0.057,-0.662 -0.087,-0.994 -0.035,-0.353 -0.061,-0.709 -0.109,-1.062 -0.038,-0.294 -0.062,-0.591 -0.085,-0.888 -0.012,-0.127 -0.108,-0.181 -0.199,-0.171 z" id="path2830" />
<path style="fill:#000000" d="m 18.406,13.917 c -0.293,-2.29e-4 -0.585,0.015 -0.878,0.025 -0.29,0.009 -0.582,0.025 -0.873,0.021 -0.305,-0.002 -0.609,-0.001 -0.914,0.005 -0.322,0.008 -0.642,0.025 -0.964,0.035 -0.333,0.005 -0.667,0.005 -1,0.015 -0.292,10e-4 -0.583,-0.014 -0.875,-0.029 -0.275,-0.004 -0.552,-0.003 -0.828,-0.005 -0.285,-0.003 -0.570,-0.014 -0.855,-0.041 -0.255,-0.024 -0.290,0.336 -0.035,0.361 h 0.002 c 0.294,0.027 0.590,0.037 0.886,0.041 0.275,0.002 0.549,0.001 0.824,0.005 0.294,0.015 0.587,0.030 0.882,0.029 0.334,-0.009 0.668,-0.012 1.003,-0.017 0.323,-0.009 0.645,-0.024 0.968,-0.033 0.3,-0.007 0.601,-0.008 0.902,-0.005 0.296,0.003 0.591,-0.009 0.886,-0.019 0.289,-0.009 0.577,-0.026 0.867,-0.025 0.289,7.65e-4 0.580,1.1e-5 0.869,0.009 0.18,0.007 0.361,0.013 0.541,0.029 0.008,10e-4 0.016,0.002 0.025,0.003 0.254,0.033 0.300,-0.326 0.046,-0.359 -0.013,-0.001 -0.026,-0.001 -0.039,-0.003 -0.186,-0.017 -0.374,-0.025 -0.562,-0.033 -0.293,-0.01 -0.587,-0.008 -0.880,-0.009 z" id="path2836" />
<path style="fill:#000000" d="m 19.939,14.031 c -0.090,0.006 -0.176,0.077 -0.166,0.205 l -0.002,-0.002 c 0.018,0.258 0.037,0.516 0.056,0.775 0.01,0.247 0.059,0.490 0.097,0.734 0.038,0.261 0.043,0.525 0.050,0.789 0.012,0.305 0.032,0.609 0.035,0.914 -5.5e-4,0.307 0.005,0.615 0.005,0.923 0.001,0.272 -0.015,0.544 -0.013,0.816 0.01,0.298 8.6e-4,0.595 0.005,0.894 0.006,0.232 0.023,0.465 0.039,0.697 0.007,0.234 0.028,0.469 0.052,0.703 0.02,0.255 0.035,0.509 0.052,0.765 0.012,0.2 0.025,0.402 0.031,0.603 -3.9e-4,0.214 0.004,0.428 0.009,0.642 0.002,0.168 0.006,0.337 0.009,0.505 h 0.363 c -0.003,-0.170 -0.006,-0.342 -0.009,-0.513 -0.005,-0.215 -0.009,-0.429 -0.009,-0.644 -0.006,-0.205 -0.018,-0.411 -0.031,-0.617 -0.017,-0.259 -0.031,-0.518 -0.052,-0.777 -0.022,-0.229 -0.045,-0.458 -0.052,-0.689 -0.014,-0.225 -0.032,-0.453 -0.039,-0.679 -0.003,-0.297 0.004,-0.594 -0.005,-0.892 -0.002,-0.271 0.017,-0.541 0.015,-0.812 -1.36e-4,-0.309 -0.006,-0.618 -0.005,-0.927 -0.003,-0.307 -0.022,-0.612 -0.035,-0.919 -0.007,-0.279 -0.014,-0.559 -0.056,-0.835 -0.036,-0.233 -0.083,-0.465 -0.093,-0.703 -0.018,-0.259 -0.037,-0.518 -0.056,-0.777 -0.009,-0.127 -0.104,-0.184 -0.195,-0.177 z" id="path2838" />
<path style="fill:#000000" d="m 2.589,13.029 c -0.254,-0.015 -0.277,0.341 -0.025,0.361 0.38,0.028 0.760,0.037 1.142,0.042 0.043,10e-4 0.087,0.001 0.130,0.003 0.256,0.01 0.269,-0.351 0.013,-0.361 -0.046,-0.002 -0.091,-0.003 -0.138,-0.005 -0.374,-0.004 -0.749,-0.013 -1.123,-0.041 z" id="path2894" />
<path style="fill:#000000" d="m 3.869,13.111 c -0.090,0.006 -0.178,0.075 -0.169,0.203 h 0.001 c 0.019,0.234 0.018,0.470 0.027,0.705 0.019,0.24 0.033,0.477 0.029,0.718 -0.002,0.238 8.055e-4,0.475 -0.005,0.714 -0.008,0.239 -0.014,0.479 -0.015,0.718 0.009,0.249 0.013,0.5 0.011,0.748 -0.006,0.279 0.002,0.558 0.013,0.837 0.011,0.284 0.014,0.567 0.007,0.851 -0.019,0.296 -0.039,0.594 -0.044,0.892 -0.005,0.246 0.005,0.492 0.007,0.738 -0.003,0.212 -0.016,0.422 -0.027,0.634 -0.014,0.209 -0.017,0.420 -0.019,0.630 -0.004,0.181 0.002,0.361 0,0.542 -0.004,0.162 -0.007,0.324 -0.017,0.486 -0.013,0.172 -0.022,0.345 -0.033,0.517 -0.013,0.188 -0.021,0.377 -0.023,0.566 6.479e-4,0.126 -3.29e-5,0.253 0,0.380 h 0.363 c 7.78e-5,-0.126 -9.854e-4,-0.252 -0.001,-0.378 10e-4,-0.182 0.010,-0.364 0.023,-0.546 0.01,-0.173 0.021,-0.344 0.035,-0.517 0.01,-0.168 0.010,-0.335 0.015,-0.503 0.002,-0.181 -0.001,-0.362 0.001,-0.544 0.001,-0.204 0.003,-0.411 0.017,-0.615 0.011,-0.218 0.025,-0.437 0.029,-0.656 -10e-4,-0.243 -0.012,-0.485 -0.007,-0.728 0.005,-0.295 0.023,-0.592 0.042,-0.888 0.006,-0.292 0.003,-0.584 -0.007,-0.876 -0.011,-0.273 -0.019,-0.546 -0.013,-0.820 0.001,-0.25 -0.002,-0.5 -0.011,-0.75 7.031e-4,-0.236 0.006,-0.472 0.015,-0.707 0.007,-0.239 0.003,-0.478 0.005,-0.718 0.004,-0.247 -0.008,-0.493 -0.029,-0.740 -0.009,-0.238 -0.007,-0.478 -0.027,-0.716 -0.008,-0.128 -0.102,-0.183 -0.193,-0.177 z" id="path2896" />
<path style="fill:#000000" d="m 2.644,13.830 c -0.169,-0.018 -0.197,0.222 -0.027,0.240 h 0.001 c 0.132,0.013 0.265,0.020 0.398,0.029 0.17,0.01 0.183,-0.231 0.013,-0.242 -0.129,-0.008 -0.257,-0.013 -0.386,-0.027 z" id="path2908" />
<path style="fill:#000000" d="m 2.990,13.689 c -0.056,0.021 -0.098,0.082 -0.068,0.162 0.082,0.247 0.155,0.498 0.228,0.748 0.047,0.164 0.280,0.094 0.232,-0.068 -0.074,-0.256 -0.149,-0.510 -0.234,-0.763 -0.03,-0.08 -0.101,-0.099 -0.158,-0.078 z" id="path2916" />
<path style="fill:#000000" d="m 3.234,14.527 c -0.060,0 -0.121,0.043 -0.121,0.128 h -0.001 c -10e-4,0.329 0.003,0.659 0.009,0.988 0.01,0.356 0.025,0.711 0.025,1.068 -0.004,0.258 0.011,0.515 0.011,0.773 -0.001,0.252 0.005,0.502 0.005,0.755 0.002,0.168 -0.004,0.340 -0.011,0.509 -0.008,0.17 0.232,0.180 0.240,0.009 0.008,-0.173 0.015,-0.346 0.013,-0.519 -6.725e-4,-0.252 -0.007,-0.503 -0.005,-0.755 -1.07e-4,-0.258 -0.016,-0.515 -0.011,-0.773 -6.725e-4,-0.357 -0.015,-0.716 -0.025,-1.074 -0.006,-0.327 -0.011,-0.654 -0.009,-0.982 0,-0.085 -0.058,-0.128 -0.119,-0.128 z" id="path2918" />
<path style="fill:#000000" d="m 2.923,13.707 c -0.029,0.01 -0.056,0.033 -0.074,0.072 -0.170,0.365 -0.293,0.752 -0.400,1.140 -0.011,0.044 -0.020,0.089 -0.031,0.134 -0.041,0.164 0.191,0.222 0.232,0.056 0.01,-0.043 0.022,-0.083 0.033,-0.126 0.102,-0.376 0.218,-0.749 0.384,-1.103 0.054,-0.116 -0.055,-0.203 -0.144,-0.173 z" id="path2920" />
<path style="fill:#000000" d="m 3.099,14.298 c -0.056,-0.020 -0.127,-0.001 -0.156,0.078 v 0.002 c -0.143,0.402 -0.282,0.806 -0.421,1.210 -0.016,0.049 -0.031,0.097 -0.048,0.146 -0.054,0.162 0.173,0.240 0.228,0.078 0.016,-0.049 0.031,-0.097 0.048,-0.146 0.138,-0.403 0.275,-0.806 0.419,-1.208 0.029,-0.08 -0.013,-0.139 -0.070,-0.160 z" id="path2922" />
<path style="fill:#000000" d="m 3.160,14.935 c -0.056,-0.021 -0.128,-0.001 -0.158,0.078 v 0.002 c -0.152,0.42 -0.278,0.849 -0.408,1.277 -0.09,0.297 -0.048,0.155 -0.126,0.423 -0.047,0.164 0.184,0.230 0.232,0.066 0.077,-0.266 0.035,-0.124 0.125,-0.421 0.128,-0.423 0.254,-0.845 0.404,-1.261 0.03,-0.08 -0.011,-0.142 -0.068,-0.164 z" id="path2924" />
<path style="fill:#000000" d="m 3.162,15.837 c -0.057,-0.018 -0.127,0.002 -0.154,0.083 -0.137,0.393 -0.283,0.783 -0.431,1.173 -0.021,0.055 -0.041,0.111 -0.062,0.166 -0.06,0.159 0.163,0.245 0.224,0.085 0.021,-0.055 0.043,-0.110 0.064,-0.166 0.148,-0.393 0.295,-0.788 0.433,-1.185 0.026,-0.081 -0.016,-0.139 -0.074,-0.158 z" id="path2926" />
<path style="fill:#000000" d="m 3.132,16.755 c -0.058,-0.016 -0.126,0.009 -0.150,0.091 -0.119,0.376 -0.265,0.744 -0.402,1.113 -0.061,0.179 -0.035,0.094 -0.080,0.251 -0.046,0.164 0.186,0.229 0.232,0.064 0.04,-0.143 0.016,-0.063 0.074,-0.234 0.139,-0.375 0.288,-0.748 0.408,-1.130 0.023,-0.082 -0.024,-0.139 -0.082,-0.156 z" id="path2928" />
<path style="fill:#000000" d="m 3.160,17.757 c -0.029,0.006 -0.058,0.026 -0.080,0.062 -0.176,0.339 -0.313,0.697 -0.453,1.052 -0.017,0.05 -0.036,0.101 -0.054,0.152 -0.055,0.161 0.172,0.239 0.228,0.078 0.016,-0.047 0.032,-0.094 0.048,-0.142 0.135,-0.343 0.269,-0.688 0.437,-1.017 0.064,-0.110 -0.036,-0.206 -0.126,-0.185 z" id="path2930" />
<path style="fill:#000000" d="m 3.148,18.527 c -0.030,0.005 -0.060,0.024 -0.083,0.060 -0.101,0.16 -0.193,0.324 -0.289,0.488 -0.086,0.147 0.121,0.270 0.207,0.123 0.093,-0.16 0.184,-0.322 0.283,-0.480 0.069,-0.107 -0.025,-0.207 -0.117,-0.191 z" id="path2932" />
<path style="fill:#000000" d="m 3.113,17.326 c -0.056,-0.020 -0.127,-9.22e-4 -0.156,0.080 -0.13,0.338 -0.220,0.688 -0.302,1.041 -0.038,0.166 0.195,0.221 0.234,0.054 0.08,-0.343 0.169,-0.685 0.296,-1.015 0.028,-0.080 -0.015,-0.140 -0.072,-0.160 z" id="path2934" />
<path style="fill:#000000" d="m 2.826,19.343 c -0.029,-0.008 -0.064,-0.004 -0.101,0.017 -0.038,0.022 -0.076,0.044 -0.115,0.066 -0.148,0.085 -0.025,0.294 0.121,0.208 0.038,-0.022 0.078,-0.045 0.117,-0.068 0.110,-0.064 0.067,-0.198 -0.021,-0.224 z" id="path2936" />
<path style="fill:#000000" d="m 3.294,19.578 c -0.030,0.004 -0.059,0.021 -0.083,0.056 -0.198,0.31 -0.390,0.624 -0.578,0.941 -0.098,0.17 -0.052,0.089 -0.134,0.240 -0.082,0.15 0.129,0.267 0.212,0.117 0.079,-0.145 0.035,-0.068 0.130,-0.234 0.185,-0.311 0.371,-0.621 0.566,-0.927 0.072,-0.105 -0.020,-0.207 -0.113,-0.193 z" id="path2938" />
<path style="fill:#000000" d="m 3.160,20.332 c -0.029,0.010 -0.055,0.034 -0.072,0.074 -0.179,0.38 -0.371,0.753 -0.556,1.130 -0.075,0.153 0.140,0.259 0.216,0.105 0.187,-0.381 0.381,-0.758 0.562,-1.142 0.049,-0.117 -0.062,-0.200 -0.150,-0.167 z" id="path2940" />
<path style="fill:#000000" d="m 3.080,19.785 c -0.060,0.001 -0.119,0.045 -0.117,0.130 0.003,0.147 0.008,0.294 0.013,0.441 0.006,0.17 0.246,0.162 0.240,-0.007 -0.005,-0.146 -0.010,-0.292 -0.013,-0.439 -0.002,-0.085 -0.062,-0.126 -0.123,-0.125 z" id="path2942" />
<path style="fill:#000000" d="m 3.167,21.333 c -0.030,0.005 -0.058,0.025 -0.082,0.060 -0.19,0.291 -0.352,0.599 -0.503,0.912 -0.021,0.048 -0.041,0.094 -0.062,0.142 -0.068,0.156 0.151,0.254 0.220,0.097 0.019,-0.045 0.038,-0.090 0.058,-0.136 0.146,-0.303 0.302,-0.601 0.486,-0.884 0.069,-0.107 -0.025,-0.207 -0.117,-0.191 z" id="path2944" />
<path style="fill:#000000" d="M 3.218,21.371 C 3.158,21.371 3.098,21.415 3.099,21.5 v 0.002 c -0.015,0.544 -0.074,1.085 -0.119,1.628 -0.034,0.407 -0.016,0.212 -0.048,0.583 -0.014,0.17 0.227,0.190 0.242,0.019 0.032,-0.371 0.014,-0.175 0.048,-0.583 0.045,-0.55 0.105,-1.100 0.119,-1.652 -5e-4,-0.085 -0.062,-0.127 -0.123,-0.126 z" id="path2950" />
<path style="fill:#000000" d="m 3.181,21.884 c -0.029,0.009 -0.056,0.033 -0.074,0.072 -0.18,0.35 -0.324,0.715 -0.441,1.091 l -0.044,0.162 c -0.045,0.164 0.186,0.229 0.232,0.064 0.014,-0.051 0.027,-0.104 0.042,-0.156 0.113,-0.366 0.254,-0.719 0.429,-1.060 0.053,-0.116 -0.056,-0.203 -0.144,-0.173 z" id="path2952" />
<path style="fill:#000000" d="m 3.181,22.701 c -0.056,-0.020 -0.128,-0.002 -0.158,0.078 h 0.001 c -0.152,0.356 -0.287,0.719 -0.404,1.089 -0.011,0.043 -0.022,0.087 -0.035,0.130 h 0.25 l 0.015,-0.058 c 0.115,-0.366 0.250,-0.725 0.400,-1.078 0.029,-0.08 -0.013,-0.141 -0.070,-0.162 z" id="path2954" />
<path style="fill:#000000" d="m 3.158,23.615 c -0.057,-0.017 -0.126,0.004 -0.152,0.085 v 0.002 C 2.974,23.801 2.943,23.901 2.912,24 h 0.253 c 0.023,-0.075 0.046,-0.151 0.070,-0.226 0.025,-0.081 -0.020,-0.140 -0.078,-0.158 z" id="path2956" />
<path style="fill:#000000" d="m 2.912,23.320 c -0.059,0.010 -0.112,0.062 -0.097,0.146 0.022,0.129 0.037,0.259 0.052,0.390 0.02,0.169 0.260,0.139 0.240,-0.029 -0.016,-0.134 -0.032,-0.270 -0.054,-0.404 -0.015,-0.084 -0.081,-0.114 -0.140,-0.103 z" id="path2960" />
<path style="fill:#000000" d="m 12.097,15.617 c -0.060,0.002 -0.120,0.045 -0.117,0.130 0.004,0.555 0.029,1.109 0.056,1.664 0.029,0.513 0.044,1.027 0.056,1.541 0.003,0.171 0.246,0.166 0.242,-0.003 -0.011,-0.516 -0.029,-1.032 -0.058,-1.548 -0.026,-0.553 -0.050,-1.106 -0.054,-1.660 -0.003,-0.085 -0.064,-0.125 -0.125,-0.123 z" id="path3243" />
<path style="fill:#000000" d="m 12.160,19.785 c -0.059,-2.48e-4 -0.121,0.040 -0.123,0.125 0,0 0,0.002 0,0.002 -0.008,0.518 0.021,1.039 0.052,1.556 0.018,0.364 0.053,0.726 0.083,1.089 -0.006,0.155 0.008,0.312 0.017,0.468 0.011,0.293 0.017,0.586 0.027,0.880 0.001,0.040 0.017,0.071 0.039,0.091 h 0.164 c 0.023,-0.022 0.040,-0.055 0.039,-0.099 -0.01,-0.295 -0.017,-0.588 -0.029,-0.884 -0.008,-0.159 -0.025,-0.319 -0.017,-0.478 -0.03,-0.361 -0.065,-0.721 -0.083,-1.083 -0.03,-0.513 -0.059,-1.027 -0.050,-1.541 5e-4,-0.085 -0.058,-0.126 -0.119,-0.126 z" id="path3245" />
<path style="fill:#000000" d="m 12.730,21.986 c -0.029,0.010 -0.055,0.033 -0.072,0.072 -0.139,0.338 -0.274,0.679 -0.380,1.029 -0.049,0.163 0.180,0.232 0.230,0.068 0.103,-0.341 0.236,-0.671 0.371,-1.001 0.051,-0.117 -0.060,-0.199 -0.148,-0.167 z" id="path3247" />
<path style="fill:#000000" d="m 12.355,21.871 c -0.090,0.018 -0.139,0.147 -0.037,0.220 0.452,0.341 0.893,0.697 1.355,1.027 0.139,0.099 0.277,-0.096 0.138,-0.195 -0.462,-0.329 -0.903,-0.687 -1.357,-1.029 -0.035,-0.024 -0.069,-0.029 -0.099,-0.023 z" id="path3249" />
<path style="fill:#000000" d="m 13.765,22.246 c -0.060,0.001 -0.119,0.045 -0.117,0.130 l -0.002,0.002 c 0.051,0.5 0.142,0.992 0.251,1.482 0.037,0.166 0.273,0.115 0.236,-0.050 -0.106,-0.475 -0.194,-0.955 -0.246,-1.439 -0.002,-0.085 -0.062,-0.126 -0.123,-0.125 z" id="path3251" />
<path style="fill:#000000" d="M 14.113,22.083 C 14.053,22.087 13.995,22.133 14,22.218 v 0.002 c 0.033,0.514 0.035,1.027 0.054,1.542 0.006,0.17 0.249,0.162 0.242,-0.007 -0.019,-0.516 -0.022,-1.033 -0.056,-1.550 -0.005,-0.085 -0.066,-0.124 -0.126,-0.121 z" id="path3253" />
<path style="fill:#000000" d="m 14.785,20.078 c -0.059,-0.008 -0.124,0.026 -0.138,0.109 -0.107,0.632 -0.214,1.265 -0.306,1.900 -0.065,0.503 -0.037,0.255 -0.080,0.742 -0.014,0.17 0.225,0.191 0.240,0.021 0.041,-0.475 0.014,-0.232 0.078,-0.728 0.092,-0.635 0.199,-1.267 0.308,-1.900 0.012,-0.084 -0.041,-0.135 -0.101,-0.144 z" id="path3255" />
<path style="fill:#000000" d="m 14.630,20.103 c -0.163,-0.048 -0.234,0.181 -0.070,0.230 v 0.002 c 0.653,0.137 1.294,0.312 1.935,0.5 0.483,0.143 0.252,0.072 0.691,0.208 0.163,0.05 0.235,-0.179 0.072,-0.230 -0.441,-0.136 -0.210,-0.064 -0.695,-0.210 -0.64,-0.187 -1.280,-0.363 -1.933,-0.5 z" id="path3257" />
<path style="fill:#000000" d="m 17.253,20.675 c -0.059,-0.008 -0.125,0.026 -0.136,0.111 h -0.002 c -0.062,0.506 -0.108,1.012 -0.164,1.519 C 16.888,22.872 16.807,23.436 16.728,24 h 0.244 c 0.077,-0.555 0.158,-1.110 0.220,-1.667 0.055,-0.504 0.100,-1.009 0.162,-1.513 0.011,-0.084 -0.041,-0.134 -0.101,-0.142 z" id="path3259" />
<path style="fill:#000000" d="m 12.058,16.515 c -0.093,-0.004 -0.175,0.107 -0.091,0.205 0.385,0.431 0.764,0.867 1.152,1.296 0.114,0.126 0.294,-0.035 0.179,-0.162 -0.386,-0.427 -0.764,-0.862 -1.148,-1.291 -0.027,-0.032 -0.060,-0.047 -0.091,-0.048 z" id="path3263" />
<path style="fill:#000000" d="m 12.308,16.406 c -0.093,-0.002 -0.173,0.109 -0.087,0.205 v 0.002 c 0.388,0.434 0.748,0.891 1.105,1.351 0.255,0.336 0.131,0.171 0.367,0.488 0.102,0.137 0.297,-0.004 0.195,-0.142 -0.237,-0.319 -0.113,-0.155 -0.371,-0.494 -0.36,-0.464 -0.725,-0.926 -1.117,-1.365 -0.028,-0.031 -0.060,-0.043 -0.091,-0.044 z" id="path3265" />
<path style="fill:#000000" d="m 14.658,18.009 c -0.028,-0.012 -0.062,-0.014 -0.101,0.002 -0.385,0.157 -0.772,0.313 -1.144,0.5 -0.152,0.077 -0.041,0.292 0.109,0.214 v -0.002 c 0.365,-0.183 0.746,-0.336 1.125,-0.490 0.118,-0.048 0.096,-0.186 0.011,-0.224 z" id="path3267" />
<path style="fill:#000000" d="m 15.556,16.205 c -0.058,-0.015 -0.127,0.011 -0.150,0.093 -0.129,0.428 -0.300,0.841 -0.455,1.261 -0.022,0.066 -0.044,0.133 -0.066,0.199 -0.055,0.161 0.172,0.238 0.228,0.076 0.021,-0.064 0.042,-0.127 0.064,-0.191 0.157,-0.426 0.332,-0.847 0.462,-1.283 0.022,-0.082 -0.025,-0.140 -0.083,-0.156 z" id="path3269" />
<path style="fill:#000000" d="m 15.855,16.271 c -0.056,-0.017 -0.126,0.006 -0.152,0.085 -0.106,0.365 -0.197,0.736 -0.294,1.105 -0.043,0.165 0.190,0.225 0.234,0.060 0.095,-0.364 0.187,-0.731 0.291,-1.093 0.025,-0.081 -0.020,-0.140 -0.078,-0.158 z" id="path3271" />
<path style="fill:#000000" d="m 15.671,16.394 c -0.092,-0.013 -0.185,0.092 -0.111,0.197 0.191,0.279 0.363,0.569 0.541,0.857 0.089,0.145 0.295,0.018 0.205,-0.126 -0.18,-0.291 -0.354,-0.588 -0.548,-0.871 -0.024,-0.034 -0.055,-0.052 -0.085,-0.056 z" id="path3273" />
<path style="fill:#000000" d="m 17.070,17.134 c -0.028,-0.012 -0.064,-0.014 -0.103,0.002 -0.263,0.112 -0.522,0.234 -0.777,0.365 -0.153,0.075 -0.045,0.290 0.107,0.214 v 0.002 c 0.251,-0.129 0.504,-0.248 0.763,-0.359 0.117,-0.050 0.094,-0.187 0.009,-0.224 z" id="path3275" />
<path style="fill:#000000" d="m 17.968,15.099 c -0.029,0.010 -0.056,0.033 -0.074,0.072 -0.212,0.497 -0.410,0.999 -0.601,1.505 -0.133,0.374 -0.072,0.194 -0.185,0.537 -0.053,0.162 0.177,0.237 0.230,0.074 0.11,-0.335 0.049,-0.157 0.181,-0.525 0.19,-0.501 0.385,-1.001 0.595,-1.494 0.051,-0.117 -0.058,-0.200 -0.146,-0.169 z" id="path3277" />
<path style="fill:#000000" d="m 17.619,14.837 c -0.167,-0.035 -0.215,0.198 -0.048,0.234 0.422,0.062 0.853,0.063 1.279,0.076 0.17,0.005 0.177,-0.235 0.005,-0.240 -0.411,-0.012 -0.827,-0.012 -1.236,-0.070 z" id="path3279" />
<path style="fill:#000000" d="m 18.779,15.099 c -0.249,0.021 -0.497,0.046 -0.746,0.078 -0.17,0.018 -0.144,0.258 0.025,0.240 0.246,-0.031 0.495,-0.057 0.742,-0.078 0.17,-0.014 0.147,-0.254 -0.021,-0.240 z" id="path3281" />
<path style="fill:#000000" d="m 18.828,14.619 c -0.268,0.022 -0.535,0.052 -0.800,0.101 -0.168,0.031 -0.123,0.268 0.044,0.236 0.257,-0.047 0.515,-0.074 0.775,-0.095 0.17,-0.014 0.150,-0.256 -0.019,-0.242 z" id="path3283" />
<path style="fill:#000000" d="m 19.246,15.185 c -0.059,0.009 -0.112,0.060 -0.099,0.144 h 0.002 c 0.057,0.358 0.096,0.720 0.125,1.082 0.017,0.269 0.036,0.538 0.044,0.808 0.004,0.08 -0.004,0.159 -0.017,0.238 -0.039,0.209 -0.045,0.421 -0.048,0.634 0.002,0.559 -0.003,1.118 -0.011,1.677 -0.004,0.306 -1.87e-4,0.611 0.007,0.917 0.003,0.171 0.246,0.165 0.242,-0.005 -0.007,-0.303 -0.013,-0.605 -0.009,-0.908 0.008,-0.559 0.014,-1.118 0.011,-1.677 0.002,-0.2 0.006,-0.400 0.044,-0.599 0.015,-0.094 0.027,-0.189 0.023,-0.285 -0.008,-0.273 -0.028,-0.547 -0.046,-0.820 -0.029,-0.368 -0.068,-0.734 -0.126,-1.099 -0.013,-0.084 -0.080,-0.116 -0.140,-0.107 z" id="path3751" />
<path style="fill:#000000" d="m 19.386,18.677 c -0.060,0.004 -0.117,0.050 -0.111,0.134 0.052,0.663 0.090,1.328 0.121,1.994 0.025,0.735 0.055,1.471 0.087,2.207 0.009,0.245 0.004,0.129 0.011,0.339 0.006,0.17 0.246,0.162 0.240,-0.007 -0.007,-0.211 -0.002,-0.094 -0.011,-0.341 -0.031,-0.735 -0.060,-1.471 -0.085,-2.207 -0.03,-0.667 -0.070,-1.335 -0.123,-2.001 -0.006,-0.085 -0.068,-0.121 -0.128,-0.117 z" id="path3753" />
<path style="fill:#000000" d="m 19.546,23.492 c -0.060,-0.003 -0.121,0.035 -0.126,0.121 h -0.002 c -8.01e-4,0.128 0.008,0.257 0.011,0.386 h 0.242 c -0.003,-0.123 -0.011,-0.247 -0.011,-0.371 0.005,-0.085 -0.053,-0.133 -0.113,-0.136 z" id="path3755" />
<path style="fill:#000000" d="m 19.568,23.527 c -0.059,0.008 -0.113,0.058 -0.101,0.142 h 0.002 c 0.013,0.109 0.022,0.220 0.035,0.330 h 0.242 c -0.013,-0.121 -0.025,-0.242 -0.041,-0.363 -0.011,-0.084 -0.076,-0.117 -0.136,-0.109 z" id="path3757" />
<path style="fill:#000000" d="m 14.998,17.701 c -0.088,-0.029 -0.198,0.056 -0.144,0.171 0.236,0.458 0.484,0.909 0.742,1.355 0.085,0.148 0.294,0.025 0.208,-0.121 -0.254,-0.439 -0.498,-0.884 -0.732,-1.335 -0.017,-0.038 -0.044,-0.060 -0.074,-0.070 z" id="path3761" />
<path style="fill:#000000" d="m 15.406,17.345 c -0.088,-0.030 -0.200,0.054 -0.148,0.171 l 0.002,-0.002 c 0.24,0.543 0.514,1.070 0.814,1.583 0.057,0.093 0.113,0.185 0.171,0.279 0.09,0.145 0.295,0.017 0.205,-0.126 -0.056,-0.091 -0.112,-0.182 -0.169,-0.273 -0.296,-0.505 -0.564,-1.023 -0.802,-1.558 -0.017,-0.039 -0.042,-0.063 -0.072,-0.074 z" id="path3763" />
<path style="fill:#000000" d="m 15.648,17.197 c -0.091,-0.013 -0.183,0.091 -0.111,0.195 0.351,0.533 0.672,1.089 1,1.638 0.087,0.146 0.295,0.022 0.207,-0.123 -0.33,-0.555 -0.653,-1.115 -1.009,-1.654 -0.024,-0.034 -0.055,-0.052 -0.085,-0.056 z" id="path3765" />
<path style="fill:#000000" d="m 16.076,17.125 c -0.092,-0.015 -0.186,0.086 -0.115,0.193 0.372,0.585 0.704,1.194 1.048,1.796 0.084,0.148 0.294,0.028 0.210,-0.119 -0.347,-0.607 -0.683,-1.222 -1.060,-1.812 -0.023,-0.035 -0.053,-0.053 -0.083,-0.058 z" id="path3767" />
<path style="fill:#000000" d="m 16.816,17.365 c -0.089,-0.025 -0.195,0.066 -0.136,0.179 0.330,0.619 0.647,1.244 0.980,1.863 0.06,0.109 0.120,0.219 0.181,0.328 0.083,0.149 0.293,0.029 0.210,-0.119 -0.06,-0.107 -0.119,-0.214 -0.179,-0.322 -0.332,-0.617 -0.647,-1.242 -0.978,-1.861 -0.019,-0.037 -0.048,-0.059 -0.078,-0.068 z" id="path3769" />
<path style="fill:#000000" d="m 17.289,16.804 c -0.060,0.002 -0.119,0.047 -0.115,0.132 v 0.002 c 0.031,0.613 0.105,1.222 0.199,1.828 0.026,0.169 0.266,0.130 0.240,-0.037 -0.093,-0.597 -0.168,-1.197 -0.199,-1.802 -0.003,-0.085 -0.064,-0.125 -0.125,-0.123 z" id="path3771" />
<path style="fill:#000000" d="m 17.781,16.082 c -0.060,-2.5e-4 -0.120,0.043 -0.121,0.128 10e-4,0.641 0.028,1.282 0.068,1.923 0.049,0.6 0.023,0.307 0.078,0.876 0.016,0.17 0.257,0.146 0.240,-0.023 -0.054,-0.564 -0.029,-0.274 -0.078,-0.869 -0.039,-0.635 -0.064,-1.271 -0.066,-1.908 3.82e-4,-0.085 -0.060,-0.128 -0.121,-0.128 z" id="path3773" />
<path style="fill:#000000" d="m 18.187,15.355 c -0.060,0.001 -0.118,0.045 -0.115,0.130 h -0.002 c 0.039,0.868 0.066,1.736 0.101,2.605 0.034,0.74 0.014,0.383 0.054,1.064 0.009,0.17 0.252,0.156 0.242,-0.013 -0.039,-0.677 -0.021,-0.322 -0.056,-1.060 -0.034,-0.867 -0.060,-1.736 -0.099,-2.603 -0.002,-0.085 -0.064,-0.124 -0.125,-0.123 z" id="path3775" />
<path style="fill:#000000" d="m 18.701,15.281 c -0.060,-5e-4 -0.120,0.041 -0.121,0.126 -0.006,0.577 0.009,1.155 0.021,1.732 0.011,0.745 0.038,1.491 0.072,2.236 0.007,0.17 0.248,0.158 0.240,-0.011 -0.034,-0.742 -0.058,-1.484 -0.070,-2.228 -0.011,-0.575 -0.030,-1.150 -0.023,-1.726 5.01e-4,-0.085 -0.058,-0.128 -0.119,-0.128 z" id="path3777" />
<path style="fill:#000000" d="m 19.166,15.992 c -0.060,0.002 -0.118,0.045 -0.115,0.130 0.015,0.613 0.041,1.228 0.070,1.841 0.008,0.17 0.250,0.158 0.242,-0.011 -0.029,-0.612 -0.056,-1.224 -0.072,-1.837 -0.003,-0.085 -0.064,-0.125 -0.125,-0.123 z" id="path3779" />
<path style="fill:#000000" d="m 12.546,16.892 c -0.029,0.009 -0.055,0.034 -0.074,0.072 -0.124,0.262 -0.242,0.525 -0.355,0.792 -0.066,0.157 0.156,0.250 0.222,0.093 0.111,-0.263 0.226,-0.525 0.349,-0.785 0.054,-0.115 -0.053,-0.203 -0.142,-0.173 z" id="path3781" />
<path style="fill:#000000" d="m 12.833,17.251 c -0.058,-0.016 -0.127,0.009 -0.150,0.091 -0.141,0.404 -0.313,0.796 -0.470,1.195 -0.021,0.06 -0.044,0.120 -0.066,0.181 -0.057,0.16 0.168,0.243 0.226,0.082 0.021,-0.058 0.043,-0.117 0.064,-0.175 0.159,-0.406 0.334,-0.805 0.476,-1.218 0.023,-0.082 -0.022,-0.14 -0.080,-0.156 z" id="path3783" />
<path style="fill:#000000" d="m 13.017,17.613 c -0.029,0.01 -0.056,0.031 -0.074,0.070 v 0.002 c -0.23,0.514 -0.445,1.032 -0.656,1.554 -0.15,0.382 -0.078,0.197 -0.210,0.548 -0.059,0.160 0.166,0.243 0.226,0.083 0.129,-0.346 0.059,-0.164 0.207,-0.542 0.209,-0.519 0.423,-1.035 0.652,-1.546 0.052,-0.116 -0.056,-0.199 -0.144,-0.169 z" id="path3785" />
<path style="fill:#000000" d="m 13.324,18.199 c -0.030,0.006 -0.060,0.027 -0.082,0.064 -0.324,0.560 -0.569,1.162 -0.812,1.761 -0.146,0.367 -0.277,0.741 -0.373,1.126 -0.041,0.165 0.191,0.224 0.232,0.058 0.092,-0.373 0.222,-0.736 0.363,-1.093 0.238,-0.588 0.477,-1.179 0.796,-1.730 0.065,-0.110 -0.034,-0.208 -0.125,-0.187 z" id="path3787" />
<path style="fill:#000000" d="m 13.710,18.271 c -0.028,0.011 -0.053,0.036 -0.068,0.076 -0.188,0.488 -0.362,0.981 -0.531,1.476 -0.055,0.161 0.173,0.240 0.228,0.078 0.167,-0.492 0.341,-0.981 0.527,-1.466 0.045,-0.119 -0.070,-0.199 -0.156,-0.164 z" id="path3789" />
<path style="fill:#000000" d="m 14.392,18.068 c -0.029,0.010 -0.055,0.034 -0.072,0.074 -0.224,0.542 -0.431,1.090 -0.632,1.642 -0.058,0.16 0.167,0.243 0.226,0.082 0.199,-0.547 0.405,-1.092 0.628,-1.630 0.050,-0.117 -0.062,-0.200 -0.150,-0.167 z" id="path3791" />
<path style="fill:#000000" d="m 14.988,18.015 c -0.028,0.011 -0.052,0.036 -0.068,0.076 -0.26,0.586 -0.501,1.180 -0.732,1.779 -0.033,0.088 -0.067,0.177 -0.101,0.265 -0.06,0.159 0.165,0.244 0.226,0.085 0.033,-0.088 0.066,-0.177 0.099,-0.265 0.231,-0.598 0.472,-1.190 0.732,-1.777 0.046,-0.119 -0.069,-0.199 -0.156,-0.164 z" id="path3793" />
<path style="fill:#000000" d="m 15.216,18.550 c -0.029,0.010 -0.055,0.033 -0.072,0.072 -0.168,0.384 -0.314,0.777 -0.457,1.171 -0.058,0.16 0.167,0.243 0.226,0.082 0.141,-0.389 0.285,-0.776 0.451,-1.156 0.051,-0.117 -0.060,-0.201 -0.148,-0.169 z" id="path3795" />
<path style="fill:#000000" d="m 15.636,18.830 c -0.030,0.007 -0.059,0.029 -0.080,0.066 -0.202,0.403 -0.392,0.815 -0.564,1.234 -0.015,0.044 -0.030,0.088 -0.046,0.132 -0.055,0.161 0.172,0.239 0.228,0.078 0.013,-0.04 0.027,-0.079 0.041,-0.119 0.168,-0.409 0.353,-0.812 0.552,-1.208 0.062,-0.111 -0.040,-0.206 -0.130,-0.183 z" id="path3797" />
<path style="fill:#000000" d="m 15.900,19.150 c -0.029,0.008 -0.058,0.030 -0.078,0.068 -0.118,0.255 -0.228,0.512 -0.341,0.769 -0.069,0.156 0.151,0.254 0.220,0.097 0.111,-0.253 0.220,-0.507 0.337,-0.759 0.057,-0.114 -0.049,-0.202 -0.138,-0.175 z" id="path3799" />
<path style="fill:#000000" d="m 13.279,19.828 c -0.030,-0.007 -0.064,-0.002 -0.099,0.021 -0.306,0.201 -0.613,0.401 -0.902,0.628 -0.135,0.104 0.012,0.296 0.148,0.191 v 0.002 c 0.283,-0.223 0.585,-0.422 0.886,-0.621 0.106,-0.070 0.057,-0.201 -0.033,-0.222 z" id="path3801" />
<path style="fill:#000000" d="m 13.984,19.888 c -0.029,-0.008 -0.063,-0.004 -0.099,0.017 -0.28,0.172 -0.135,0.079 -0.437,0.279 -0.45,0.308 -0.894,0.623 -1.343,0.933 -0.144,0.092 -0.012,0.295 0.130,0.203 0.450,-0.310 0.897,-0.628 1.349,-0.937 0.296,-0.196 0.152,-0.105 0.425,-0.273 0.108,-0.066 0.064,-0.198 -0.025,-0.222 z" id="path3803" />
<path style="fill:#000000" d="m 14.179,20.205 c -0.030,-0.006 -0.064,-0.002 -0.099,0.021 -0.274,0.184 -0.549,0.368 -0.822,0.554 -0.419,0.287 -0.831,0.590 -1.279,0.835 -0.152,0.077 -0.041,0.292 0.109,0.214 0.457,-0.249 0.877,-0.558 1.306,-0.851 0.272,-0.185 0.547,-0.368 0.820,-0.552 0.105,-0.071 0.055,-0.202 -0.035,-0.222 z" id="path3805" />
<path style="fill:#000000" d="m 14.535,20.351 c -0.030,-0.006 -0.064,-0.001 -0.099,0.023 -0.282,0.196 -0.565,0.391 -0.847,0.589 -0.389,0.272 -0.773,0.559 -1.189,0.791 -0.156,0.069 -0.057,0.290 0.097,0.220 0.43,-0.236 0.828,-0.532 1.230,-0.814 0.281,-0.197 0.562,-0.392 0.845,-0.589 0.105,-0.072 0.054,-0.201 -0.037,-0.220 z" id="path3807" />
<path style="fill:#000000" d="m 13.908,21.205 c -0.030,-0.005 -0.065,0.001 -0.099,0.027 -0.488,0.361 -0.977,0.722 -1.451,1.103 -0.137,0.102 0.006,0.295 0.144,0.193 0.473,-0.381 0.961,-0.741 1.449,-1.103 0.102,-0.075 0.048,-0.204 -0.042,-0.220 z" id="path3809" />
<path style="fill:#000000" d="m 14.496,21.265 c -0.030,-0.005 -0.065,3.91e-4 -0.099,0.025 -0.236,0.17 -0.114,0.079 -0.369,0.269 -0.392,0.3 -0.780,0.604 -1.185,0.886 -0.14,0.097 -0.003,0.295 0.136,0.197 0.407,-0.283 0.800,-0.588 1.195,-0.890 0.251,-0.187 0.130,-0.099 0.363,-0.267 0.103,-0.075 0.050,-0.203 -0.041,-0.220 z" id="path3811" />
<path style="fill:#000000" d="m 13.949,22.310 c -0.030,-0.006 -0.066,-5.63e-4 -0.101,0.023 -0.174,0.118 -0.349,0.243 -0.552,0.308 -0.164,0.047 -0.097,0.279 0.066,0.232 0.228,-0.07 0.425,-0.208 0.621,-0.341 0.105,-0.071 0.057,-0.202 -0.033,-0.222 z" id="path3813" />
<path style="fill:#000000" d="m 14.380,20.798 c -0.030,0.007 -0.057,0.026 -0.078,0.064 -0.019,0.035 -0.038,0.071 -0.058,0.107 -0.081,0.15 0.128,0.265 0.210,0.115 l 0.058,-0.105 c 0.061,-0.111 -0.042,-0.205 -0.132,-0.181 z" id="path3815" />
<path style="fill:#000000" d="m 17.044,18.884 c -0.029,-0.010 -0.063,-0.011 -0.101,0.007 -0.325,0.162 -0.650,0.327 -0.958,0.521 -0.145,0.09 -0.018,0.295 0.126,0.205 v 0.002 c 0.302,-0.19 0.620,-0.351 0.939,-0.511 0.114,-0.057 0.081,-0.192 -0.005,-0.224 z" id="path3817" />
<path style="fill:#000000" d="m 17.482,19.199 c -0.029,-0.009 -0.064,-0.006 -0.101,0.013 -0.606,0.332 -1.202,0.686 -1.771,1.080 -0.141,0.096 -0.003,0.294 0.136,0.197 v 0.002 c 0.562,-0.389 1.15,-0.737 1.75,-1.066 0.111,-0.061 0.074,-0.197 -0.013,-0.226 z" id="path3819" />
<path style="fill:#000000" d="m 17.843,19.609 c -0.029,-0.009 -0.064,-0.007 -0.101,0.013 -0.109,0.062 -0.220,0.123 -0.330,0.185 -0.485,0.269 -0.969,0.538 -1.458,0.804 -0.151,0.08 -0.036,0.292 0.113,0.212 0.489,-0.266 0.974,-0.535 1.462,-0.806 0.11,-0.062 0.222,-0.125 0.332,-0.187 0.111,-0.063 0.071,-0.195 -0.017,-0.222 z" id="path3821" />
<path style="fill:#000000" d="m 18.712,19.796 c -0.029,-0.009 -0.064,-0.005 -0.101,0.015 -0.093,0.052 -0.186,0.105 -0.279,0.158 -0.5,0.297 -0.994,0.608 -1.494,0.906 -0.147,0.086 -0.022,0.294 0.123,0.207 v 0.002 c 0.5,-0.298 0.993,-0.610 1.494,-0.908 l 0.275,-0.156 c 0.111,-0.063 0.071,-0.197 -0.017,-0.224 z" id="path3823" />
<path style="fill:#000000" d="m 18.623,20.462 c -0.030,-0.007 -0.065,-0.001 -0.101,0.021 -0.518,0.335 -1.036,0.668 -1.548,1.013 -0.14,0.097 -0.003,0.296 0.136,0.199 0.509,-0.343 1.026,-0.675 1.542,-1.009 0.107,-0.069 0.061,-0.202 -0.029,-0.224 z" id="path3825" />
<path style="fill:#000000" d="m 18.361,19.476 c -0.029,-0.009 -0.064,-0.007 -0.101,0.013 -0.043,0.024 -0.085,0.049 -0.128,0.074 -0.147,0.087 -0.022,0.295 0.123,0.207 0.041,-0.023 0.083,-0.046 0.125,-0.070 0.111,-0.063 0.070,-0.197 -0.017,-0.224 z" id="path3827" />
<path style="fill:#000000" d="m 17.966,21.132 c -0.030,0.007 -0.058,0.027 -0.080,0.064 -0.267,0.46 -0.523,0.925 -0.755,1.404 -0.074,0.153 0.141,0.259 0.216,0.105 0.229,-0.473 0.484,-0.935 0.748,-1.390 0.063,-0.111 -0.038,-0.205 -0.128,-0.183 z" id="path3829" />
<path style="fill:#000000" d="m 18.722,20.667 c -0.028,0.011 -0.054,0.034 -0.070,0.074 h -0.002 c -0.297,0.679 -0.625,1.345 -0.941,2.017 -0.205,0.455 -0.109,0.239 -0.285,0.646 -0.067,0.157 0.152,0.252 0.220,0.095 0.174,-0.403 0.080,-0.189 0.283,-0.640 0.317,-0.675 0.648,-1.345 0.947,-2.029 0.048,-0.118 -0.065,-0.197 -0.152,-0.164 z" id="path3831" />
<path style="fill:#000000" d="m 19.316,20.910 c -0.030,0.007 -0.059,0.029 -0.080,0.066 -0.303,0.545 -0.569,1.109 -0.835,1.673 -0.184,0.391 -0.359,0.786 -0.533,1.181 -0.042,0.097 0.028,0.163 0.103,0.167 h 0.046 c 0.028,-0.010 0.053,-0.032 0.070,-0.070 0.173,-0.393 0.346,-0.787 0.529,-1.177 0.262,-0.559 0.529,-1.117 0.830,-1.658 0.062,-0.111 -0.040,-0.206 -0.130,-0.183 z" id="path3833" />
<path style="fill:#000000" d="m 19.273,22.318 c -0.029,0.008 -0.058,0.030 -0.078,0.068 C 18.936,22.915 18.705,23.458 18.472,24 h 0.265 c 0.217,-0.504 0.431,-1.009 0.671,-1.503 0.057,-0.114 -0.047,-0.203 -0.136,-0.177 z" id="path3835" />
<path style="fill:#000000" d="m 19.392,23.337 c -0.029,0.010 -0.055,0.033 -0.072,0.072 C 19.234,23.606 19.149,23.803 19.064,24 h 0.263 c 0.071,-0.165 0.142,-0.331 0.214,-0.496 0.048,-0.117 -0.063,-0.198 -0.150,-0.166 z" id="path3837" />
<path style="fill:#000000" d="m 17.050,23.304 c -0.058,0.015 -0.105,0.073 -0.083,0.156 l -0.002,-0.002 C 17.010,23.638 17.050,23.819 17.093,24 h 0.248 c -0.048,-0.200 -0.091,-0.401 -0.142,-0.601 -0.021,-0.082 -0.090,-0.109 -0.148,-0.093 z" id="path3845" />
<path style="fill:#000000" d="m 17.507,23.386 c -0.088,-0.030 -0.198,0.053 -0.146,0.169 0.058,0.144 0.098,0.295 0.146,0.443 h 0.253 c -0.057,-0.181 -0.107,-0.364 -0.179,-0.541 -0.017,-0.039 -0.044,-0.061 -0.074,-0.072 z" id="path3847" />
<path style="fill:#000000" d="m 11.191,23.992 c -0.012,-0.003 -0.027,0.008 -0.041,0.007 h 0.050 c -0.004,-0.001 -0.005,-0.006 -0.009,-0.007 z" id="path4013" />
<path style="fill:#000000" d="m 11.439,23.853 c -0.152,0.015 -0.306,0.031 -0.460,0.023 C 10.875,23.871 10.822,23.931 10.798,24 h 0.839 c -0.015,-0.083 -0.080,-0.158 -0.199,-0.146 z" id="path4015" />
<path style="fill:#000000" d="m 23.828,22.498 c -0.647,0.098 -1.292,0.212 -1.935,0.337 -0.548,0.103 -1.097,0.200 -1.638,0.339 -0.246,0.07 -0.148,0.419 0.097,0.349 v -0.002 c 0.530,-0.135 1.071,-0.232 1.609,-0.333 0.638,-0.124 1.278,-0.236 1.921,-0.333 0.055,-0.008 0.090,-0.034 0.117,-0.066 v -0.220 c -0.036,-0.047 -0.088,-0.083 -0.171,-0.070 z" id="path4017" />
<path style="fill:#000000" d="m 20.462,22.826 c -0.256,-0.001 -0.258,0.360 -0.002,0.361 0.350,-7.64e-4 0.701,6.7e-4 1.052,0.003 0.256,0.003 0.260,-0.359 0.003,-0.361 -0.351,-0.003 -0.702,-0.005 -1.054,-0.003 z" id="path4027" />
<path style="fill:#000000" d="m 23.888,14.740 c -0.035,0.003 -0.397,0.044 -0.406,0.062 -0.051,0.1 -0.062,0.216 -0.093,0.324 0.035,0.027 0.027,0.028 0.017,0 0.011,0.02 0.027,0.002 0.003,0.035 -0.061,0.092 -0.162,0.153 -0.228,0.242 -0.471,0.503 -0.964,0.984 -1.455,1.468 -0.536,0.548 -1.068,1.104 -1.572,1.683 -0.164,0.196 0.115,0.427 0.279,0.230 l 0.002,0.002 c 0.497,-0.571 1.020,-1.118 1.550,-1.660 0.493,-0.485 0.987,-0.970 1.460,-1.476 0.084,-0.096 0.183,-0.177 0.259,-0.281 0.056,-0.077 0.065,-0.164 0.056,-0.251 0.051,-0.006 0.085,-0.010 0.158,-0.017 0.035,-0.003 0.053,-0.024 0.078,-0.039 V 14.773 c -0.031,-0.017 -0.063,-0.037 -0.111,-0.033 z" id="path4029" />
<path style="fill:#000000" d="m 23.826,15 c -0.145,0.057 -0.290,0.114 -0.441,0.154 -0.247,0.069 -0.148,0.418 0.097,0.349 0.163,-0.043 0.321,-0.104 0.478,-0.166 0.020,-0.008 0.023,-0.025 0.039,-0.037 V 15.021 C 23.954,14.989 23.898,14.971 23.826,15 Z" id="path4031" />
<path style="fill:#000000" d="m 22.490,10.484 c -0.089,0.013 -0.169,0.090 -0.150,0.216 0.085,0.43 0.212,0.852 0.314,1.279 0.067,0.296 0.140,0.590 0.218,0.884 0.065,0.248 0.415,0.155 0.349,-0.091 -0.077,-0.291 -0.149,-0.581 -0.216,-0.876 -0.099,-0.416 -0.222,-0.828 -0.308,-1.248 -0.019,-0.126 -0.117,-0.177 -0.207,-0.164 z" id="path4033" />
<path style="fill:#000000" d="m 22.939,12.671 c -0.129,0.053 -0.167,0.259 0.007,0.337 0.279,0.108 0.549,0.230 0.806,0.384 0.103,0.061 0.196,0.020 0.246,-0.048 v -0.183 c -0.016,-0.028 -0.026,-0.058 -0.062,-0.080 -0.269,-0.159 -0.549,-0.290 -0.841,-0.402 -0.058,-0.026 -0.113,-0.025 -0.156,-0.007 z" id="path4035" />
<path style="fill:#000000" d="m 23.978,13.212 c -0.089,-0.004 -0.182,0.057 -0.189,0.183 -0.043,0.408 -0.075,0.817 -0.070,1.228 0.002,0.178 0.175,0.222 0.281,0.150 v -1.552 c -0.007,-0.001 -0.013,-0.009 -0.021,-0.009 z" id="path4037" />
<path style="fill:#000000" d="m 24,14.878 c -0.083,0.062 -0.120,0.185 -0.007,0.281 0.002,0.002 0.005,0.003 0.007,0.005 z" id="path4039" />
<path style="fill:#000000" d="m 23.943,14.546 c -0.139,-0.007 -0.265,0.161 -0.140,0.308 0.062,0.071 0.131,0.138 0.197,0.207 v -0.484 c -0.019,-0.008 -0.037,-0.030 -0.056,-0.031 z" id="path4041" />
<path style="fill:#000000" d="m 7.927,21.927 c -0.058,-0.016 -0.128,0.007 -0.152,0.089 C 7.592,22.670 7.456,23.335 7.320,24 h 0.248 c 0.130,-0.641 0.263,-1.284 0.439,-1.916 0.024,-0.082 -0.022,-0.139 -0.080,-0.156 z" id="path4075" />
<path style="fill:#000000" d="m 10.505,19.830 c -0.030,-0.003 -0.066,0.004 -0.099,0.031 -0.481,0.399 -0.975,0.781 -1.460,1.175 -0.516,0.403 -1.048,0.789 -1.544,1.218 -0.125,0.116 0.039,0.293 0.164,0.177 v 0.002 c 0.492,-0.424 1.019,-0.806 1.531,-1.205 0.487,-0.396 0.983,-0.780 1.466,-1.181 0.098,-0.081 0.036,-0.207 -0.056,-0.218 z" id="path4077" />
<path style="fill:#000000" d="m 11.232,19.294 c -0.247,0.091 -0.495,0.181 -0.740,0.277 -0.159,0.061 -0.072,0.286 0.085,0.224 0.244,-0.095 0.490,-0.184 0.736,-0.275 0.16,-0.059 0.076,-0.286 -0.082,-0.226 z" id="path4079" />
<path style="fill:#000000" d="m 11.146,19.546 c -0.221,0.09 -0.446,0.174 -0.660,0.279 -0.151,0.076 -0.041,0.289 0.109,0.214 0,0 0.002,0 0.002,0 0.207,-0.100 0.424,-0.182 0.638,-0.269 0.158,-0.064 0.068,-0.288 -0.089,-0.224 z" id="path4081" />
<path style="fill:#000000" d="m 6.673,22.117 c -0.131,-0.008 -0.263,-0.008 -0.396,0.002 -0.171,0.003 -0.168,0.243 0.001,0.240 h 0.001 c 0.251,-0.02 0.498,0.001 0.746,0.041 0.167,0.027 0.208,-0.211 0.039,-0.238 -0.131,-0.020 -0.261,-0.036 -0.392,-0.044 z" id="path4083" />
<path style="fill:#000000" d="m 5.976,22.066 c -0.060,0.004 -0.117,0.049 -0.111,0.134 0.015,0.322 0.018,0.647 0.027,0.970 0.004,0.171 0.245,0.162 0.240,-0.007 -0.008,-0.327 -0.011,-0.653 -0.027,-0.980 -0.006,-0.085 -0.068,-0.121 -0.128,-0.117 z" id="path4085" />
<path style="fill:#000000" d="m 6.292,22.337 c -0.060,0 -0.121,0.043 -0.121,0.128 0.001,0.221 0.012,0.443 0.023,0.664 0.008,0.17 0.249,0.158 0.240,-0.011 -0.01,-0.217 -0.021,-0.435 -0.023,-0.652 0,-0.085 -0.058,-0.128 -0.119,-0.128 z" id="path4087" />
<path style="fill:#000000" d="M 6.136,23.048 C 6.046,23.024 5.943,23.117 6.003,23.230 6.135,23.478 6.238,23.742 6.351,24 h 0.265 C 6.488,23.702 6.368,23.401 6.216,23.115 c -0.020,-0.037 -0.049,-0.058 -0.080,-0.066 z" id="path4089" />
<path style="fill:#000000" d="M 6.267,23.902 C 6.225,23.913 6.197,23.950 6.189,24 h 0.230 c -5.848e-4,-0.002 -0.001,-0.003 -0.001,-0.005 -0.022,-0.083 -0.091,-0.107 -0.150,-0.091 z" id="path4091" />
<path style="fill:#000000" d="m 5.650,23.136 c -0.028,-0.012 -0.062,-0.014 -0.101,0.002 L 5.271,23.252 c -0.551,0.233 -1.100,0.471 -1.654,0.699 C 3.588,23.961 3.576,23.981 3.562,24 h 0.558 c 0.414,-0.174 0.829,-0.349 1.244,-0.525 0.091,-0.038 0.183,-0.075 0.275,-0.113 0.117,-0.048 0.094,-0.186 0.009,-0.224 z" id="path4095" />
<path style="fill:#000000" d="m 5.996,23.191 c -0.271,0.032 -0.542,0.070 -0.812,0.109 -0.168,0.021 -0.133,0.258 0.033,0.238 0.268,-0.037 0.536,-0.075 0.806,-0.107 0.169,-0.02 0.141,-0.260 -0.027,-0.240 z" id="path4097" />
<path style="fill:#000000" d="m 4.121,21.722 c -0.167,-0.027 -0.207,0.208 -0.041,0.238 h 0.001 c 0.487,0.064 0.977,0.118 1.462,0.201 0.078,0.015 0.156,0.032 0.234,0.048 0.167,0.034 0.213,-0.203 0.046,-0.238 -0.08,-0.016 -0.160,-0.031 -0.240,-0.048 -0.486,-0.082 -0.976,-0.136 -1.464,-0.201 z" id="path4099" />
<path style="fill:#000000" d="m 4.914,22.062 c -0.260,-0.002 -0.522,0.005 -0.783,0.021 -0.17,0.006 -0.160,0.247 0.009,0.240 0.512,-0.032 1.025,-0.023 1.537,0.013 0.082,0.008 0.164,0.015 0.246,0.023 0.17,0.017 0.193,-0.223 0.023,-0.240 -0.084,-0.008 -0.168,-0.016 -0.253,-0.025 -0.26,-0.019 -0.518,-0.030 -0.779,-0.033 z" id="path4101" />
<path style="fill:#000000" d="m 6.154,21.937 c -0.17,-0.009 -0.183,0.232 -0.013,0.242 h 0.001 c 0.175,0.014 0.082,0.005 0.279,0.025 0.17,0.017 0.193,-0.222 0.023,-0.240 -0.205,-0.021 -0.107,-0.012 -0.291,-0.027 z" id="path4103" />
<path style="fill:#000000" d="m 7.599,9.462 c -0.060,0.003 -0.116,0.051 -0.111,0.136 h -0.001 c 0.053,0.671 0.177,1.335 0.296,1.999 l 0.066,0.347 c 0.032,0.168 0.270,0.122 0.238,-0.044 -0.02,-0.115 -0.042,-0.230 -0.064,-0.345 -0.118,-0.654 -0.241,-1.310 -0.294,-1.974 -0.005,-0.085 -0.068,-0.123 -0.128,-0.119 z" id="path4105" />
<path style="fill:#000000" d="m 7.906,9.861 c -0.06,0.007 -0.113,0.057 -0.103,0.142 0.076,0.553 0.155,1.106 0.230,1.660 0.037,0.302 0.085,0.603 0.146,0.902 0.034,0.167 0.269,0.117 0.234,-0.048 -0.058,-0.292 -0.103,-0.587 -0.140,-0.884 -0.074,-0.552 -0.154,-1.105 -0.230,-1.658 -0.01,-0.085 -0.076,-0.120 -0.136,-0.113 z" id="path4107" />
<path style="fill:#000000" d="m 8.148,12.111 c -0.030,0.006 -0.059,0.026 -0.082,0.062 -0.123,0.211 -0.235,0.431 -0.328,0.658 -0.064,0.158 0.159,0.249 0.224,0.091 0.087,-0.214 0.191,-0.423 0.308,-0.623 0.067,-0.108 -0.031,-0.207 -0.123,-0.189 z" id="path4109" />
<path style="fill:#000000" d="m 7.980,12.230 c -0.056,-0.02 -0.127,0.001 -0.156,0.082 -0.089,0.265 -0.141,0.538 -0.175,0.816 -0.02,0.169 0.219,0.196 0.240,0.027 0.031,-0.259 0.081,-0.514 0.164,-0.763 0.028,-0.080 -0.015,-0.142 -0.072,-0.162 z" id="path4111" />
<path style="fill:#000000" d="m 7.707,12.771 c -0.092,-0.011 -0.181,0.096 -0.105,0.199 h -0.001 c 0.372,0.509 0.789,0.981 1.212,1.449 0.21,0.23 0.421,0.460 0.632,0.691 0.115,0.126 0.293,-0.035 0.177,-0.162 -0.209,-0.23 -0.420,-0.460 -0.630,-0.691 -0.417,-0.461 -0.829,-0.929 -1.197,-1.431 -0.025,-0.034 -0.057,-0.050 -0.087,-0.054 z" id="path4113" />
<path style="fill:#000000" d="m 7.945,12.783 c -0.093,-0.001 -0.172,0.114 -0.085,0.208 0.438,0.462 0.831,0.963 1.228,1.462 0.075,0.092 0.150,0.186 0.226,0.279 0.108,0.132 0.295,-0.021 0.187,-0.154 -0.073,-0.092 -0.149,-0.183 -0.224,-0.275 -0.401,-0.503 -0.798,-1.009 -1.240,-1.476 -0.029,-0.031 -0.060,-0.044 -0.091,-0.044 z" id="path4115" />
<path style="fill:#000000" d="m 9.75,14.761 c -0.093,0.007 -0.161,0.128 -0.066,0.214 0.310,0.29 0.638,0.562 0.968,0.830 0.201,0.162 0.107,0.083 0.283,0.228 0.132,0.108 0.286,-0.077 0.154,-0.185 -0.177,-0.146 -0.082,-0.068 -0.283,-0.230 -0.327,-0.266 -0.652,-0.533 -0.960,-0.820 -0.031,-0.028 -0.064,-0.039 -0.095,-0.037 z" id="path4117" />
<path style="fill:#000000" d="m 9.552,14.722 c -0.093,7.03e-4 -0.169,0.118 -0.080,0.210 0.408,0.425 0.770,0.891 1.150,1.341 0.278,0.316 0.145,0.165 0.402,0.449 0.114,0.126 0.292,-0.035 0.177,-0.162 -0.252,-0.279 -0.118,-0.130 -0.392,-0.443 -0.385,-0.453 -0.751,-0.923 -1.164,-1.351 -0.029,-0.031 -0.062,-0.045 -0.093,-0.044 z" id="path4119" />
<path style="fill:#000000" d="m 22.689,22.306 c -0.087,-0.029 -0.196,0.058 -0.144,0.173 0.053,0.124 0.129,0.237 0.203,0.351 0.093,0.143 0.295,0.011 0.201,-0.130 -0.068,-0.104 -0.135,-0.207 -0.185,-0.322 -0.017,-0.038 -0.044,-0.062 -0.074,-0.072 z" id="path4137" />
<path style="fill:#000000" d="m 23.906,21.841 c -0.091,-0.017 -0.188,0.083 -0.119,0.191 0.062,0.100 0.141,0.190 0.212,0.285 v -0.402 c -0.003,-0.004 -0.006,-0.008 -0.009,-0.013 -0.023,-0.036 -0.053,-0.054 -0.083,-0.060 z" id="path4139" />
<path style="fill:#000000" d="m 21.392,16.820 c -0.090,-0.020 -0.192,0.076 -0.126,0.185 0.08,0.145 0.181,0.274 0.283,0.404 0.105,0.134 0.294,-0.014 0.189,-0.148 -0.095,-0.121 -0.188,-0.242 -0.263,-0.378 -0.021,-0.036 -0.051,-0.055 -0.082,-0.062 z" id="path4143" />
<path style="fill:#000000" d="m 22.214,15.855 c -0.093,0.005 -0.163,0.126 -0.070,0.214 0.123,0.116 0.249,0.230 0.375,0.345 0.126,0.115 0.289,-0.062 0.162,-0.177 -0.124,-0.113 -0.249,-0.227 -0.371,-0.343 -0.031,-0.029 -0.064,-0.040 -0.095,-0.039 z" id="path4145" />
<path style="fill:#000000" d="m 23.072,15.062 c -0.087,0.033 -0.118,0.168 -0.003,0.224 0.239,0.123 0.489,0.226 0.740,0.322 0.16,0.06 0.243,-0.165 0.083,-0.226 -0.244,-0.092 -0.485,-0.192 -0.718,-0.312 -0.038,-0.018 -0.072,-0.018 -0.101,-0.007 z" id="path4147" />
<path style="fill:#000000" d="m 7.128,18.005 c -0.03,0.008 -0.057,0.028 -0.078,0.066 -0.074,0.13 -0.144,0.263 -0.214,0.396 -0.079,0.151 0.133,0.263 0.212,0.111 0.069,-0.132 0.138,-0.262 0.212,-0.392 0.060,-0.112 -0.042,-0.205 -0.132,-0.181 z" id="path4157" />
<path style="fill:#000000" d="m 18.355,20.160 c -0.092,-0.007 -0.178,0.101 -0.097,0.201 0.176,0.231 0.351,0.464 0.531,0.693 0.105,0.134 0.296,-0.016 0.191,-0.150 -0.181,-0.229 -0.357,-0.460 -0.535,-0.693 -0.026,-0.033 -0.058,-0.048 -0.089,-0.050 z" id="path5055" />
<path style="fill:#000000" d="m 18.921,19.587 c -0.088,-0.030 -0.198,0.055 -0.146,0.171 0.149,0.314 0.325,0.613 0.505,0.910 0.088,0.146 0.296,0.02 0.207,-0.125 -0.175,-0.288 -0.349,-0.579 -0.494,-0.884 -0.017,-0.039 -0.042,-0.062 -0.072,-0.072 z" id="path5057" />
<path style="fill:#000000" d="M 2.804,7.326 C 2.637,7.294 2.591,7.530 2.759,7.562 l -0.001,0.001 c 0.901,0.112 1.805,0.192 2.708,0.294 0.177,0.022 0.353,0.044 0.531,0.066 0.169,0.021 0.200,-0.218 0.031,-0.240 -0.178,-0.021 -0.357,-0.044 -0.535,-0.066 -0.897,-0.101 -1.794,-0.182 -2.689,-0.292 z" id="path5059" />
<path style="fill:#000000" d="M 7.867,7.929 C 7.697,7.920 7.684,8.158 7.853,8.169 h 0.001 c 0.616,0.032 1.232,0.064 1.849,0.089 0.767,0.031 1.536,0.044 2.302,0.109 0.172,0.009 0.336,0.061 0.505,0.093 0.189,0.027 0.381,0.042 0.572,0.054 0.757,0.008 1.515,0.007 2.273,0.017 0.171,0.002 0.172,-0.238 0.002,-0.240 -0.754,-0.01 -1.506,-0.011 -2.261,-0.019 -0.181,-0.011 -0.362,-0.023 -0.542,-0.048 -0.176,-0.032 -0.349,-0.088 -0.529,-0.097 -0.769,-0.065 -1.539,-0.079 -2.310,-0.111 -0.616,-0.024 -1.233,-0.053 -1.849,-0.087 z" id="path5061" />
<path style="fill:#000000" d="m 16.556,8.248 c -0.171,0 -0.171,0.240 0,0.240 l 0.002,0.001 c 0.646,-10e-4 1.291,0.015 1.937,0.037 0.805,0.036 1.610,0.074 2.414,0.136 0.152,0.005 0.301,0.033 0.451,0.058 0.356,0.021 0.714,0.052 1.070,0.082 0.523,0.041 1.045,0.090 1.568,0.146 V 8.710 c -0.516,-0.054 -1.033,-0.105 -1.550,-0.146 -0.349,-0.029 -0.698,-0.060 -1.048,-0.078 -0.156,-0.026 -0.310,-0.054 -0.470,-0.060 -0.807,-0.063 -1.614,-0.103 -2.423,-0.140 -0.649,-0.022 -1.299,-0.038 -1.949,-0.037 z" id="path5065" />
<path style="fill:#000000" d="m 2.685,8.974 c -0.169,-0.021 -0.198,0.218 -0.029,0.240 0.873,0.097 1.747,0.175 2.623,0.251 0.561,0.046 1.124,0.092 1.685,0.142 0.169,0.014 0.189,-0.226 0.019,-0.240 -0.561,-0.049 -1.121,-0.095 -1.683,-0.142 -0.871,-0.076 -1.744,-0.153 -2.615,-0.251 z" id="path5083" />
<path style="fill:#000000" d="m 8.236,9.519 c -0.171,7.261e-4 -0.168,0.243 0.001,0.242 0.813,-0.008 1.627,0.013 2.439,0.050 0.173,0.01 0.346,0.020 0.519,0.031 0.17,0.01 0.184,-0.229 0.013,-0.240 -0.174,-0.01 -0.348,-0.022 -0.523,-0.033 -0.816,-0.037 -1.634,-0.059 -2.451,-0.050 z" id="path5085" />
<path style="fill:#000000" d="m 12.341,9.578 c -0.169,-0.022 -0.201,0.218 -0.031,0.240 0.738,0.043 1.477,0.045 2.216,0.062 0.896,0.018 1.791,0.067 2.685,0.144 0.232,0.017 0.463,0.046 0.695,0.072 0.462,0.02 0.924,0.047 1.386,0.080 0.879,0.065 1.757,0.128 2.636,0.203 0.345,0.03 0.690,0.064 1.035,0.101 0.199,0.027 0.396,0.056 0.597,0.078 0.144,0.013 0.290,0.030 0.435,0.042 v -0.242 c -0.136,-0.012 -0.273,-0.028 -0.410,-0.041 -0.2,-0.021 -0.397,-0.054 -0.597,-0.080 -0.346,-0.036 -0.694,-0.070 -1.041,-0.101 -0.879,-0.075 -1.759,-0.137 -2.640,-0.203 -0.458,-0.033 -0.916,-0.059 -1.376,-0.078 -0.233,-0.025 -0.465,-0.057 -0.699,-0.074 -0.898,-0.077 -1.799,-0.125 -2.701,-0.144 -0.73,-0.016 -1.461,-0.020 -2.191,-0.060 z" id="path5089" />
<path style="fill:#000000" d="m 22.814,10.023 c -0.030,-0.006 -0.064,-5.63e-4 -0.099,0.023 h -0.002 c -0.146,0.095 -0.273,0.215 -0.394,0.341 -0.118,0.123 0.054,0.290 0.173,0.166 0.108,-0.113 0.222,-0.222 0.355,-0.308 0.106,-0.071 0.057,-0.202 -0.033,-0.222 z" id="path5091" />
<path style="fill:#000000" d="m 23.751,10.289 c -0.17,-0.015 -0.192,0.225 -0.021,0.240 0.089,0.007 0.179,0.007 0.269,0.013 v -0.240 c -0.082,-0.006 -0.165,-0.006 -0.248,-0.013 z" id="path5093" />
<path style="fill:#000000" d="m 3.460,7.521 c -0.271,0.066 -0.542,0.138 -0.804,0.236 -0.24,0.088 -0.115,0.427 0.125,0.339 0.249,-0.093 0.506,-0.162 0.765,-0.224 0.249,-0.06 0.162,-0.412 -0.085,-0.351 z" id="path5097" />
<path style="fill:#000000" d="m 4.312,7.654 c -0.07,0.022 -0.140,0.044 -0.210,0.066 -0.497,0.158 -0.991,0.325 -1.474,0.523 -0.237,0.096 -0.102,0.431 0.134,0.335 0.473,-0.195 0.960,-0.357 1.449,-0.513 0.069,-0.021 0.138,-0.042 0.208,-0.064 C 4.664,7.925 4.556,7.578 4.312,7.654 Z" id="path5099" />
<path style="fill:#000000" d="M 5.039,7.679 C 4.795,7.758 4.552,7.840 4.312,7.931 3.734,8.151 3.156,8.378 2.603,8.656 2.376,8.772 2.541,9.093 2.767,8.978 c 0,0 0.001,0 0.001,0 0.540,-0.271 1.104,-0.493 1.669,-0.708 0.234,-0.088 0.471,-0.169 0.710,-0.246 0.244,-0.079 0.131,-0.422 -0.111,-0.343 z" id="path5101" />
<path style="fill:#000000" d="m 4.271,8.330 c -0.042,-0.019 -0.097,-0.022 -0.156,0.001 -0.399,0.160 -0.801,0.317 -1.203,0.472 -0.239,0.093 -0.105,0.430 0.132,0.337 v -0.001 c 0.403,-0.155 0.806,-0.311 1.207,-0.472 0.178,-0.071 0.146,-0.279 0.019,-0.337 z" id="path5103" />
<path style="fill:#000000" d="m 5.558,7.455 c -0.046,-9.375e-4 -0.095,0.016 -0.140,0.062 -0.42,0.425 -0.873,0.817 -1.283,1.253 -0.175,0.186 0.087,0.435 0.263,0.248 0.407,-0.432 0.860,-0.823 1.277,-1.248 0.135,-0.137 0.022,-0.313 -0.117,-0.316 z" id="path5105" />
<path style="fill:#000000" d="m 5.921,7.771 c -0.046,-0.002 -0.096,0.014 -0.142,0.058 -0.32,0.3 -0.647,0.592 -0.966,0.894 -0.186,0.176 0.064,0.439 0.25,0.263 C 5.382,8.686 5.711,8.393 6.031,8.091 6.17,7.958 6.062,7.778 5.921,7.771 Z" id="path5107" />
<path style="fill:#000000" d="m 6.570,7.628 c -0.046,5.782e-4 -0.095,0.019 -0.138,0.066 v 0.001 c -0.344,0.386 -0.698,0.763 -1.042,1.150 -0.04,0.048 -0.080,0.095 -0.121,0.144 -0.164,0.196 0.112,0.429 0.277,0.232 0.038,-0.046 0.077,-0.090 0.115,-0.136 0.342,-0.385 0.694,-0.761 1.037,-1.146 0.129,-0.141 0.013,-0.314 -0.126,-0.312 z" id="path5109" />
<path style="fill:#000000" d="m 6.591,8.191 c -0.046,0.006 -0.092,0.033 -0.128,0.085 -0.166,0.239 -0.333,0.478 -0.505,0.714 -0.150,0.207 0.142,0.420 0.294,0.212 0.174,-0.236 0.342,-0.476 0.509,-0.718 0.110,-0.158 -0.030,-0.315 -0.169,-0.294 z" id="path5111" />
<path style="fill:#000000" d="m 3.648,8.949 c -0.255,-0.018 -0.281,0.343 -0.025,0.361 0.72,0.052 1.438,0.114 2.158,0.166 0.255,0.018 0.283,-0.343 0.027,-0.361 -0.72,-0.051 -1.440,-0.114 -2.160,-0.166 z" id="path5113" />
<path style="fill:#000000" d="M 7.855,7.943 C 7.411,8.072 6.966,8.206 6.531,8.363 c -0.24,0.089 -0.113,0.428 0.126,0.339 l -0.001,0.001 c 0.428,-0.154 0.862,-0.285 1.298,-0.412 0.247,-0.071 0.146,-0.421 -0.099,-0.349 z" id="path5115" />
<path style="fill:#000000" d="m 9.257,7.994 c -0.398,0.123 -0.187,0.056 -0.630,0.197 -0.747,0.241 -1.490,0.493 -2.236,0.738 -0.246,0.072 -0.143,0.420 0.101,0.347 0.748,-0.245 1.494,-0.5 2.244,-0.740 0.44,-0.139 0.230,-0.074 0.626,-0.197 0.245,-0.076 0.138,-0.421 -0.105,-0.345 z" id="path5117" />
<path style="fill:#000000" d="m 9.974,8.253 c -0.454,0.147 -0.909,0.295 -1.363,0.447 -0.697,0.235 -1.401,0.461 -2.082,0.744 -0.235,0.102 -0.087,0.435 0.146,0.332 h 0.001 c 0.671,-0.278 1.362,-0.500 2.050,-0.732 0.451,-0.151 0.904,-0.298 1.357,-0.445 0.243,-0.079 0.132,-0.424 -0.111,-0.345 z" id="path5119" />
<path style="fill:#000000" d="m 10.496,8.533 c -0.587,0.17 -0.285,0.079 -0.900,0.267 -0.603,0.197 -1.202,0.404 -1.791,0.640 -0.237,0.094 -0.102,0.428 0.132,0.335 0,0 0.001,0 0.001,0 C 8.520,9.545 9.111,9.338 9.707,9.144 10.313,8.959 10.016,9.048 10.597,8.880 c 0.246,-0.071 0.143,-0.418 -0.101,-0.347 z" id="path5121" />
<path style="fill:#000000" d="m 11.210,8.832 c -0.366,0.092 -0.176,0.044 -0.570,0.146 -0.585,0.155 -1.167,0.329 -1.761,0.449 -0.253,0.039 -0.197,0.397 0.054,0.357 0.606,-0.12 1.200,-0.298 1.798,-0.457 0.391,-0.101 0.203,-0.053 0.566,-0.144 0.248,-0.062 0.160,-0.414 -0.087,-0.351 z" id="path5123" />
<path style="fill:#000000" d="m 12.005,8.486 c -0.046,-0.007 -0.097,0.002 -0.148,0.041 -0.309,0.232 -0.6,0.487 -0.875,0.759 -0.182,0.18 0.071,0.438 0.253,0.257 0.263,-0.261 0.543,-0.505 0.839,-0.728 0.153,-0.116 0.067,-0.307 -0.070,-0.330 z" id="path5125" />
<path style="fill:#000000" d="m 11.701,8.580 c -0.256,-0.016 -0.279,0.346 -0.023,0.363 0.274,0.016 0.549,0.022 0.824,0.029 0.256,0.006 0.263,-0.357 0.007,-0.363 -0.269,-0.006 -0.538,-0.013 -0.808,-0.029 z" id="path5127" />
<path style="fill:#000000" d="m 12.808,8.658 c -0.046,0.003 -0.093,0.026 -0.134,0.076 -0.151,0.185 -0.284,0.383 -0.414,0.583 -0.139,0.215 0.162,0.412 0.302,0.197 0.122,-0.188 0.246,-0.375 0.388,-0.550 0.122,-0.147 -0.002,-0.315 -0.142,-0.306 z" id="path5129" />
<path style="fill:#000000" d="m 11.925,8.156 c -0.098,0.014 -0.196,0.027 -0.294,0.042 -0.558,0.086 -1.117,0.172 -1.677,0.251 -0.254,0.034 -0.204,0.393 0.048,0.359 0.562,-0.079 1.122,-0.164 1.683,-0.251 0.097,-0.014 0.194,-0.029 0.292,-0.044 0.253,-0.038 0.199,-0.396 -0.052,-0.357 z" id="path5131" />
<path style="fill:#000000" d="m 11.158,8.732 c -0.321,0.071 -0.175,0.039 -0.433,0.095 -0.251,0.051 -0.177,0.406 0.072,0.355 0.261,-0.056 0.114,-0.023 0.439,-0.095 0.25,-0.055 0.171,-0.410 -0.078,-0.355 z" id="path5133" />
<path style="fill:#000000" d="m 13.576,8.283 c -0.401,0.018 -0.804,0.044 -1.205,0.035 -0.254,-0.017 -0.279,0.341 -0.025,0.361 0.415,0.010 0.830,-0.015 1.246,-0.033 0.256,-0.011 0.240,-0.375 -0.015,-0.363 z" id="path5135" />
<path style="fill:#000000" d="m 14.308,8.429 c -0.084,0.017 -0.166,0.033 -0.251,0.050 -0.458,0.102 -0.915,0.212 -1.376,0.300 -0.253,0.04 -0.195,0.398 0.056,0.357 0.469,-0.089 0.933,-0.197 1.398,-0.302 0.082,-0.016 0.164,-0.033 0.246,-0.050 0.251,-0.051 0.177,-0.407 -0.072,-0.355 z" id="path5137" />
<path style="fill:#000000" d="m 15.044,8.501 c -0.423,0.146 -0.201,0.068 -0.664,0.234 -0.636,0.237 -1.272,0.476 -1.896,0.744 -0.235,0.102 -0.089,0.435 0.144,0.332 0.618,-0.265 1.246,-0.501 1.876,-0.736 0.457,-0.163 0.238,-0.085 0.656,-0.230 0.242,-0.083 0.124,-0.426 -0.117,-0.343 z" id="path5139" />
<path style="fill:#000000" d="m 16.511,8.378 c -0.551,0.192 -1.103,0.385 -1.650,0.591 -0.693,0.261 -1.380,0.543 -2.082,0.783 -0.246,0.07 -0.145,0.418 0.099,0.347 l 0.002,0.002 c 0.711,-0.241 1.406,-0.526 2.109,-0.792 0.543,-0.204 1.092,-0.397 1.640,-0.589 0.242,-0.084 0.121,-0.426 -0.119,-0.341 z" id="path5141" />
<path style="fill:#000000" d="m 16.587,8.767 c -0.117,0.04 -0.234,0.081 -0.351,0.121 -0.717,0.247 -1.434,0.494 -2.136,0.783 -0.238,0.094 -0.105,0.430 0.132,0.335 0.696,-0.286 1.409,-0.531 2.121,-0.777 0.117,-0.04 0.234,-0.081 0.351,-0.121 0.242,-0.084 0.123,-0.425 -0.117,-0.341 z" id="path5143" />
<path style="fill:#000000" d="m 14.837,9.425 c -0.255,-0.025 -0.292,0.335 -0.037,0.361 v -0.001 c 0.473,0.04 0.948,0.057 1.423,0.072 0.256,0.008 0.267,-0.355 0.011,-0.363 -0.466,-0.014 -0.933,-0.028 -1.398,-0.068 z" id="path5145" />
<path style="fill:#000000" d="m 17.283,8.248 c -0.046,-0.003 -0.097,0.013 -0.144,0.056 -0.317,0.294 -0.639,0.582 -0.958,0.875 -0.189,0.173 0.055,0.438 0.244,0.265 0.318,-0.292 0.641,-0.579 0.958,-0.873 0.141,-0.129 0.040,-0.313 -0.099,-0.324 z" id="path5147" />
<path style="fill:#000000" d="m 17.931,8.406 c -0.045,-0.009 -0.097,-0.001 -0.150,0.035 -0.4,0.307 -0.788,0.630 -1.181,0.947 -0.199,0.161 0.027,0.444 0.226,0.283 0.386,-0.311 0.767,-0.629 1.160,-0.933 0.157,-0.109 0.082,-0.302 -0.054,-0.332 z" id="path5149" />
<path style="fill:#000000" d="m 18.802,8.396 c -0.046,-0.007 -0.097,0.003 -0.148,0.042 -0.379,0.297 -0.768,0.582 -1.144,0.884 -0.199,0.16 0.026,0.442 0.226,0.281 0.374,-0.301 0.763,-0.581 1.140,-0.878 0.151,-0.117 0.064,-0.308 -0.074,-0.330 z" id="path5151" />
<path style="fill:#000000" d="m 19.294,8.642 c -0.046,-0.006 -0.098,0.004 -0.148,0.044 h -0.002 c -0.327,0.254 -0.658,0.503 -0.986,0.757 -0.202,0.157 0.019,0.445 0.222,0.287 0.329,-0.255 0.662,-0.505 0.992,-0.761 0.15,-0.12 0.060,-0.308 -0.078,-0.328 z" id="path5153" />
<path style="fill:#000000" d="m 20.699,8.638 c -0.477,0.133 -0.230,0.062 -0.744,0.212 -0.725,0.216 -1.449,0.437 -2.171,0.666 -0.244,0.078 -0.131,0.423 0.111,0.345 v -0.001 c 0.719,-0.228 1.441,-0.448 2.164,-0.664 0.51,-0.148 0.265,-0.076 0.738,-0.208 0.247,-0.068 0.148,-0.418 -0.097,-0.349 z" id="path5155" />
<path style="fill:#000000" d="m 21.818,8.773 c -0.445,0.135 -0.891,0.272 -1.335,0.414 -0.739,0.233 -1.477,0.467 -2.216,0.699 -0.243,0.075 -0.134,0.418 0.107,0.345 0.739,-0.231 1.479,-0.466 2.218,-0.699 0.443,-0.14 0.887,-0.276 1.332,-0.412 0.245,-0.074 0.138,-0.421 -0.105,-0.347 z" id="path5157" />
<path style="fill:#000000" d="m 23.119,8.828 c -0.558,0.178 -0.261,0.082 -0.886,0.289 -0.877,0.299 -1.749,0.609 -2.623,0.919 -0.242,0.082 -0.125,0.426 0.115,0.343 h 0.002 c 0.873,-0.309 1.746,-0.620 2.623,-0.919 0.621,-0.206 0.327,-0.110 0.880,-0.287 0.244,-0.078 0.132,-0.423 -0.111,-0.345 z" id="path5159" />
<path style="fill:#000000" d="m 23.576,9.123 c -0.133,0.048 -0.265,0.097 -0.398,0.146 -0.772,0.279 -1.543,0.563 -2.318,0.835 -0.242,0.082 -0.123,0.424 0.117,0.341 0.777,-0.272 1.549,-0.557 2.324,-0.837 0.133,-0.048 0.267,-0.095 0.400,-0.144 0.24,-0.088 0.115,-0.429 -0.125,-0.341 z" id="path5161" />
<path style="fill:#000000" d="m 20.117,8.457 c -0.255,-0.027 -0.294,0.332 -0.039,0.359 0.868,0.058 1.739,0.082 2.609,0.123 0.256,0.012 0.273,-0.349 0.017,-0.361 -0.862,-0.04 -1.725,-0.065 -2.587,-0.121 z" id="path5163" />
<path style="fill:#000000" d="m 24,8.718 c -0.500,0.363 -0.999,0.729 -1.496,1.099 -0.066,0.051 -0.132,0.104 -0.199,0.156 -0.202,0.157 0.020,0.443 0.222,0.285 L 22.718,10.109 C 23.143,9.792 23.571,9.478 24,9.166 Z" id="path5165" />
<path style="fill:#000000" d="m 24,9.240 c -0.220,0.151 -0.436,0.309 -0.650,0.468 -0.205,0.153 0.010,0.443 0.216,0.289 C 23.708,9.891 23.854,9.789 24,9.685 Z" id="path5167" />
<path style="fill:#000000" d="m 24,9.822 c -0.028,0.019 -0.057,0.038 -0.085,0.058 -0.074,0.054 -0.149,0.109 -0.224,0.164 -0.207,0.151 0.005,0.443 0.212,0.292 0.032,-0.023 0.065,-0.046 0.097,-0.070 z" id="path5169" />
<path style="fill:#000000" d="m 23.445,10.097 c -0.271,0.018 -0.543,0.038 -0.816,0.023 -0.254,-0.034 -0.302,0.325 -0.048,0.359 v 0.002 c 0.297,0.02 0.594,-0.003 0.890,-0.023 0.256,-0.017 0.229,-0.378 -0.025,-0.361 z" id="path5173" />
<path style="fill:#000000" d="M 8.980,7.640 C 8.935,7.628 8.882,7.634 8.828,7.667 c -0.113,0.073 -0.223,0.151 -0.333,0.228 -0.21,0.146 -0.001,0.443 0.207,0.296 0.104,-0.073 0.209,-0.146 0.316,-0.216 0.163,-0.100 0.097,-0.299 -0.037,-0.335 z" id="path5181" />
<path style="fill:#000000" d="m 10.007,7.705 c -0.046,-0.001 -0.097,0.017 -0.142,0.062 -0.097,0.098 -0.045,0.046 -0.148,0.154 -0.177,0.185 0.084,0.436 0.261,0.25 0.097,-0.102 0.048,-0.051 0.144,-0.148 0.135,-0.135 0.024,-0.314 -0.115,-0.318 z" id="path5183" />
<path style="fill:#000000" d="m 11.320,7.710 c -0.046,-0.005 -0.097,0.007 -0.146,0.048 -0.125,0.105 -0.251,0.208 -0.376,0.314 -0.195,0.166 0.038,0.441 0.234,0.275 0.124,-0.105 0.251,-0.208 0.376,-0.312 0.147,-0.123 0.051,-0.310 -0.087,-0.326 z" id="path5185" />
<path style="fill:#000000" d="m 12.648,7.771 c -0.046,-0.003 -0.096,0.011 -0.144,0.054 -0.135,0.122 -0.065,0.058 -0.208,0.195 -0.184,0.177 0.066,0.437 0.251,0.259 0.133,-0.128 0.065,-0.065 0.197,-0.185 0.142,-0.128 0.043,-0.312 -0.095,-0.324 z" id="path5187" />
<path style="fill:#000000" d="m 14.138,7.845 c -0.046,-0.003 -0.097,0.011 -0.144,0.054 h -0.002 c -0.153,0.137 -0.297,0.282 -0.441,0.429 -0.179,0.183 0.077,0.437 0.257,0.253 0.139,-0.142 0.280,-0.283 0.429,-0.416 0.141,-0.129 0.039,-0.312 -0.099,-0.322 z" id="path5189" />
<path style="fill:#000000" d="m 2.781,5.861 c -0.169,-0.021 -0.199,0.218 -0.029,0.240 0.85,0.106 1.699,0.226 2.548,0.341 0.736,0.098 1.472,0.194 2.210,0.281 0.162,0.018 0.088,0.009 0.226,0.023 0.17,0.018 0.195,-0.220 0.025,-0.238 -0.135,-0.014 -0.062,-0.007 -0.224,-0.025 -0.736,-0.086 -1.472,-0.181 -2.207,-0.279 -0.85,-0.114 -1.698,-0.236 -2.550,-0.343 z" id="path5191" />
<path style="fill:#000000" d="m 8.199,6.431 c -0.171,-10e-4 -0.172,0.239 -0.001,0.240 v 0.001 c 1.157,0.011 2.315,0.042 3.472,0.078 0.818,0.03 1.635,0.077 2.451,0.138 0.17,0.012 0.187,-0.229 0.017,-0.242 -0.819,-0.062 -1.638,-0.107 -2.460,-0.138 -1.159,-0.036 -2.318,-0.066 -3.478,-0.078 z" id="path5193" />
<path style="fill:#000000" d="m 14.933,6.578 c -0.169,-0.022 -0.201,0.216 -0.031,0.238 h 0.002 c 0.64,0.07 1.285,0.078 1.929,0.097 0.17,0.005 0.177,-0.235 0.005,-0.240 -0.635,-0.018 -1.273,-0.025 -1.906,-0.095 z" id="path5199" />
<path style="fill:#000000" d="m 17.755,6.724 c -0.169,-0.023 -0.202,0.217 -0.033,0.240 0.474,0.063 0.950,0.085 1.427,0.113 0.518,0.03 1.035,0.055 1.554,0.085 0.191,0.011 0.383,0.030 0.574,0.048 0.474,0.039 0.946,0.096 1.419,0.150 C 23.131,7.413 23.566,7.451 24,7.492 V 7.25 C 23.575,7.210 23.151,7.172 22.728,7.123 c -0.474,-0.055 -0.948,-0.110 -1.425,-0.150 -0.194,-0.017 -0.387,-0.037 -0.582,-0.048 -0.518,-0.029 -1.036,-0.054 -1.554,-0.085 -0.47,-0.027 -0.942,-0.050 -1.410,-0.113 z" id="path5201" />
<path style="fill:#000000" d="m 2.873,5.607 c -0.17,-0.01 -0.185,0.231 -0.015,0.242 0.842,0.052 1.680,0.161 2.517,0.267 0.774,0.094 1.544,0.211 2.318,0.314 0.106,0.021 0.212,0.020 0.320,0.015 0.532,-0.018 1.063,0.016 1.595,0.042 0.815,0.043 1.630,0.096 2.441,0.193 0.189,0.02 0.374,0.061 0.564,0.078 0.611,0.026 1.223,0.026 1.835,0.033 l 0.474,0.005 c 0.171,0.002 0.172,-0.240 0.002,-0.242 -0.158,-0.002 -0.316,-0.003 -0.474,-0.005 -0.605,-0.006 -1.211,-0.005 -1.816,-0.031 -0.187,-0.016 -0.370,-0.059 -0.558,-0.078 -0.816,-0.097 -1.637,-0.151 -2.458,-0.195 -0.539,-0.026 -1.077,-0.061 -1.617,-0.042 -0.092,0.004 -0.183,0.005 -0.275,-0.013 -0.773,-0.102 -1.546,-0.217 -2.322,-0.312 -0.842,-0.105 -1.684,-0.218 -2.531,-0.271 z" id="path5205" />
<path style="fill:#000000" d="m 20.177,6.806 c -0.169,-0.019 -0.197,0.221 -0.027,0.240 l 0.002,-0.001 c 0.741,0.085 1.488,0.109 2.234,0.138 0.537,0.018 1.075,0.045 1.613,0.068 V 7.011 c -0.535,-0.022 -1.070,-0.049 -1.605,-0.068 -0.739,-0.029 -1.479,-0.051 -2.216,-0.136 z" id="path5209" />
<path style="fill:#000000" d="m 2.648,4.998 c -0.17,-0.023 -0.203,0.217 -0.033,0.240 0.753,0.087 1.511,0.147 2.267,0.210 1.314,0.108 2.630,0.201 3.947,0.283 0.523,0.035 1.048,0.057 1.572,0.097 0.236,0.025 0.471,0.042 0.708,0.058 1.104,0.072 2.209,0.133 3.314,0.207 0.776,0.062 0.405,0.027 1.111,0.095 0.17,0.016 0.193,-0.224 0.023,-0.240 -0.709,-0.066 -0.337,-0.031 -1.117,-0.093 -1.104,-0.075 -2.208,-0.135 -3.312,-0.207 -0.237,-0.017 -0.474,-0.035 -0.710,-0.060 -0.524,-0.041 -1.051,-0.061 -1.576,-0.097 -1.315,-0.082 -2.630,-0.175 -3.943,-0.285 -0.752,-0.062 -1.502,-0.121 -2.251,-0.208 z" id="path5217" />
<path style="fill:#000000" d="m 16.093,5.976 c -0.17,-0.014 -0.189,0.227 -0.019,0.242 l 0.002,-0.001 c 0.638,0.029 1.277,0.057 1.916,0.093 0.699,0.041 1.400,0.086 2.101,0.134 0.116,0.006 0.230,0.017 0.345,0.031 0.271,0.019 0.541,0.031 0.812,0.048 0.8,0.051 1.598,0.108 2.398,0.160 0.116,0.007 0.233,0.014 0.349,0.021 V 6.464 c -0.111,-0.006 -0.223,-0.012 -0.335,-0.019 -0.8,-0.051 -1.597,-0.108 -2.398,-0.160 -0.266,-0.016 -0.533,-0.030 -0.800,-0.048 -0.119,-0.013 -0.237,-0.025 -0.357,-0.031 -0.701,-0.048 -1.401,-0.093 -2.103,-0.134 -0.636,-0.035 -1.274,-0.064 -1.910,-0.093 z" id="path5219" />
<path style="fill:#000000" d="m 16.667,2.505 c -0.046,0.003 -0.094,0.026 -0.134,0.076 -0.291,0.362 -0.551,0.746 -0.808,1.134 -0.412,0.625 -0.828,1.250 -1.171,1.917 -0.108,0.231 0.215,0.383 0.326,0.154 0.336,-0.651 0.743,-1.261 1.146,-1.873 0.25,-0.378 0.507,-0.753 0.791,-1.107 0.12,-0.150 -0.009,-0.313 -0.148,-0.302 z" id="path5277" />
<path style="fill:#000000" d="m 4.001,0 c 0.007,0.006 0.015,0.013 0.023,0.019 0.57,0.451 1.146,0.894 1.720,1.341 0.164,0.127 0.329,0.255 0.507,0.363 0.041,0.025 0.083,0.047 0.126,0.072 0.207,0.127 0.424,0.235 0.640,0.347 0.086,0.048 0.177,0.091 0.265,0.138 0.005,0.052 0.089,0.246 0.095,0.261 0.078,0.203 0.188,0.390 0.318,0.564 0.102,0.136 0.296,-0.007 0.193,-0.144 C 7.777,2.809 7.678,2.639 7.607,2.457 7.563,2.344 7.535,2.168 7.441,2.089 7.340,2.033 7.234,1.984 7.132,1.929 c -0.212,-0.11 -0.424,-0.216 -0.628,-0.341 -0.055,-0.032 -0.088,-0.047 -0.123,-0.070 -0.17,-0.103 -0.329,-0.225 -0.486,-0.347 C 5.395,0.781 4.896,0.391 4.398,0 Z" id="path5285" />
<path style="fill:#000000" d="m 12.119,20.242 c -0.089,-0.027 -0.196,0.061 -0.140,0.175 0.214,0.463 0.454,0.913 0.703,1.359 0.083,0.149 0.293,0.031 0.210,-0.117 -0.247,-0.442 -0.484,-0.890 -0.697,-1.349 -0.018,-0.038 -0.046,-0.059 -0.076,-0.068 z" id="path5297" />
<path style="fill:#000000" d="m 12.154,19.425 c -0.088,-0.029 -0.198,0.056 -0.144,0.171 h -0.002 c 0.357,0.755 0.696,1.517 1.052,2.273 0.072,0.154 0.289,0.051 0.216,-0.101 -0.354,-0.756 -0.691,-1.519 -1.048,-2.273 -0.017,-0.038 -0.044,-0.060 -0.074,-0.070 z" id="path5299" />
<path style="fill:#000000" d="m 12.240,18.238 c -0.057,0.019 -0.099,0.079 -0.072,0.160 0.275,0.768 0.577,1.525 0.884,2.281 0.217,0.530 0.453,1.055 0.689,1.578 0.07,0.155 0.290,0.055 0.220,-0.099 -0.233,-0.52 -0.469,-1.041 -0.685,-1.570 -0.306,-0.75 -0.606,-1.502 -0.880,-2.265 -0.027,-0.081 -0.099,-0.103 -0.156,-0.083 z" id="path5301" />
<path style="fill:#000000" d="m 12.425,17.359 c -0.088,-0.028 -0.198,0.058 -0.142,0.173 0.456,0.973 0.849,1.976 1.261,2.968 0.211,0.511 0.433,1.015 0.658,1.521 0.069,0.155 0.290,0.057 0.220,-0.097 -0.222,-0.503 -0.443,-1.008 -0.654,-1.517 -0.414,-0.997 -0.809,-2.001 -1.267,-2.978 -0.018,-0.038 -0.046,-0.060 -0.076,-0.070 z" id="path5303" />
<path style="fill:#000000" d="m 13.207,17.962 c -0.056,0.020 -0.099,0.080 -0.070,0.160 0.256,0.677 0.530,1.346 0.802,2.017 0.157,0.395 0.324,0.786 0.492,1.177 0.067,0.157 0.287,0.060 0.220,-0.095 -0.167,-0.389 -0.333,-0.778 -0.490,-1.171 -0.27,-0.668 -0.543,-1.333 -0.798,-2.007 -0.028,-0.080 -0.099,-0.100 -0.156,-0.080 z" id="path5305" />
<path style="fill:#000000" d="m 13.947,18.531 c -0.056,0.021 -0.097,0.083 -0.066,0.162 0.145,0.39 0.296,0.779 0.451,1.166 0.063,0.158 0.288,0.068 0.224,-0.089 -0.154,-0.386 -0.306,-0.772 -0.451,-1.162 -0.031,-0.079 -0.101,-0.098 -0.158,-0.076 z" id="path5307" />
<path style="fill:#000000" d="m 14.351,18.404 c -0.057,0.019 -0.100,0.079 -0.072,0.160 0.119,0.342 0.246,0.683 0.371,1.023 0.058,0.16 0.284,0.076 0.226,-0.083 -0.124,-0.339 -0.250,-0.676 -0.369,-1.017 -0.028,-0.080 -0.099,-0.101 -0.156,-0.082 z" id="path5309" />
<path style="fill:#000000" d="m 12.349,21.480 c -0.056,0.021 -0.097,0.082 -0.066,0.162 v 0.002 c 0.078,0.199 0.030,0.085 0.140,0.335 0.068,0.156 0.289,0.058 0.220,-0.097 -0.105,-0.239 -0.059,-0.131 -0.136,-0.326 -0.030,-0.079 -0.101,-0.097 -0.158,-0.076 z" id="path5311" />
<path style="fill:#000000" d="m 14.867,18.298 c -0.088,-0.028 -0.195,0.062 -0.142,0.175 0.278,0.564 0.545,1.135 0.812,1.707 0.049,0.104 0.099,0.209 0.148,0.314 0.072,0.154 0.290,0.052 0.218,-0.101 -0.049,-0.104 -0.097,-0.210 -0.146,-0.314 -0.266,-0.572 -0.536,-1.143 -0.816,-1.710 -0.018,-0.038 -0.044,-0.060 -0.074,-0.070 z" id="path5313" />
<path style="fill:#000000" d="m 15.773,16.978 c -0.058,-0.013 -0.126,0.014 -0.144,0.097 -0.143,0.514 -0.256,1.037 -0.343,1.564 -0.028,0.168 0.210,0.208 0.238,0.039 0.086,-0.522 0.197,-1.040 0.339,-1.550 0.018,-0.083 -0.030,-0.137 -0.089,-0.150 z" id="path5315" />
<path style="fill:#000000" d="m 16.132,17.138 c -0.059,-0.011 -0.127,0.019 -0.142,0.103 -0.097,0.526 -0.178,1.056 -0.255,1.587 -0.038,0.313 -0.021,0.167 -0.048,0.439 -0.016,0.17 0.223,0.194 0.240,0.023 0.025,-0.263 0.010,-0.121 0.048,-0.427 0.076,-0.527 0.156,-1.054 0.253,-1.578 0.015,-0.084 -0.036,-0.137 -0.095,-0.148 z" id="path5317" />
<path style="fill:#000000" d="m 16.548,17.562 c -0.057,-0.016 -0.128,0.007 -0.152,0.089 -0.114,0.447 -0.211,0.899 -0.291,1.355 -0.029,0.168 0.208,0.210 0.238,0.041 0.077,-0.446 0.173,-0.891 0.285,-1.330 0.023,-0.082 -0.022,-0.139 -0.080,-0.156 z" id="path5319" />
<path style="fill:#000000" d="m 17.080,17.703 c -0.057,-0.016 -0.128,0.007 -0.152,0.089 l 0.002,0.002 c -0.121,0.423 -0.211,0.852 -0.291,1.285 -0.031,0.168 0.205,0.211 0.236,0.042 0.078,-0.425 0.166,-0.847 0.285,-1.263 0.023,-0.082 -0.022,-0.139 -0.080,-0.156 z" id="path5321" />
<path style="fill:#000000" d="m 15.875,19.365 c -0.091,-0.019 -0.191,0.078 -0.125,0.187 0.198,0.338 0.391,0.678 0.585,1.019 0.084,0.148 0.294,0.028 0.210,-0.119 -0.194,-0.342 -0.389,-0.685 -0.589,-1.025 -0.021,-0.036 -0.051,-0.055 -0.082,-0.062 z" id="path5323" />
<path style="fill:#000000" d="m 16.371,19.292 c -0.090,-0.023 -0.194,0.069 -0.132,0.181 0.197,0.371 0.395,0.741 0.603,1.107 0.084,0.148 0.294,0.030 0.210,-0.117 -0.207,-0.365 -0.406,-0.735 -0.603,-1.105 -0.020,-0.037 -0.048,-0.058 -0.078,-0.066 z" id="path5325" />
<path style="fill:#000000" d="m 16.732,18.933 c -0.090,-0.024 -0.195,0.069 -0.134,0.181 0.215,0.416 0.423,0.835 0.642,1.25 0.032,0.06 0.065,0.120 0.097,0.181 0.08,0.15 0.293,0.036 0.212,-0.113 l -0.095,-0.179 c -0.218,-0.415 -0.427,-0.835 -0.644,-1.251 -0.020,-0.037 -0.048,-0.060 -0.078,-0.068 z" id="path5327" />
<path style="fill:#000000" d="m 17.134,18.851 c -0.091,-0.018 -0.188,0.081 -0.121,0.189 v 0.002 c 0.27,0.442 0.531,0.889 0.789,1.339 0.085,0.148 0.293,0.028 0.208,-0.119 -0.259,-0.452 -0.520,-0.904 -0.792,-1.349 -0.022,-0.036 -0.053,-0.056 -0.083,-0.062 z" id="path5329" />
<path style="fill:#000000" d="m 17.181,17.146 c -0.056,0.022 -0.096,0.085 -0.064,0.164 0.283,0.619 0.614,1.215 0.935,1.816 0.229,0.431 0.465,0.858 0.714,1.279 0.086,0.147 0.295,0.023 0.208,-0.123 -0.245,-0.417 -0.482,-0.840 -0.710,-1.269 -0.317,-0.592 -0.640,-1.182 -0.923,-1.792 -0.031,-0.079 -0.104,-0.096 -0.160,-0.074 z" id="path5331" />
<path style="fill:#000000" d="m 17.382,16.416 c -0.089,-0.025 -0.195,0.064 -0.136,0.177 0.265,0.52 0.549,1.029 0.826,1.544 0.314,0.595 0.630,1.189 0.966,1.773 0.085,0.148 0.294,0.027 0.208,-0.119 -0.335,-0.581 -0.651,-1.174 -0.964,-1.767 -0.275,-0.513 -0.557,-1.022 -0.822,-1.541 -0.019,-0.038 -0.048,-0.059 -0.078,-0.068 z" id="path5333" />
<path style="fill:#000000" d="m 17.769,15.978 c -0.089,-0.026 -0.195,0.063 -0.136,0.177 0.323,0.639 0.640,1.279 0.968,1.917 0.247,0.472 0.128,0.247 0.353,0.671 0.08,0.151 0.292,0.038 0.212,-0.111 -0.224,-0.423 -0.105,-0.198 -0.351,-0.669 -0.328,-0.636 -0.644,-1.278 -0.968,-1.917 -0.019,-0.038 -0.048,-0.059 -0.078,-0.068 z" id="path5335" />
<path style="fill:#000000" d="m 17.990,15.271 c -0.087,-0.031 -0.200,0.050 -0.150,0.167 0.274,0.574 0.546,1.150 0.810,1.730 0.204,0.455 0.105,0.236 0.292,0.650 0.07,0.155 0.288,0.055 0.218,-0.099 -0.187,-0.413 -0.088,-0.195 -0.292,-0.652 -0.263,-0.578 -0.532,-1.151 -0.806,-1.724 -0.016,-0.039 -0.043,-0.061 -0.072,-0.072 z" id="path5337" />
<path style="fill:#000000" d="m 18.357,15.162 c -0.089,-0.022 -0.192,0.072 -0.132,0.183 0.239,0.438 0.448,0.893 0.656,1.347 0.071,0.155 0.290,0.054 0.218,-0.099 -0.211,-0.46 -0.421,-0.920 -0.664,-1.365 -0.020,-0.037 -0.048,-0.058 -0.078,-0.066 z" id="path5339" />
<path style="fill:#000000" d="m 18.886,15.023 c -0.086,-0.034 -0.201,0.045 -0.154,0.164 0.127,0.311 0.253,0.623 0.373,0.937 0.061,0.159 0.286,0.072 0.224,-0.085 -0.121,-0.314 -0.245,-0.627 -0.373,-0.939 -0.015,-0.039 -0.041,-0.064 -0.070,-0.076 z" id="path5341" />
<path style="fill:#000000" d="m 19.158,18.468 c -0.059,0.008 -0.114,0.060 -0.101,0.144 0.039,0.25 0.096,0.496 0.150,0.744 0.036,0.167 0.272,0.115 0.236,-0.050 -0.052,-0.242 -0.107,-0.483 -0.146,-0.728 -0.012,-0.084 -0.078,-0.118 -0.138,-0.109 z" id="path5343" />
<path style="fill:#000000" d="m 4.244,3.523 c -0.030,-0.005 -0.066,0.002 -0.101,0.027 -0.124,0.085 -0.237,0.175 -0.333,0.291 -0.106,0.133 0.080,0.282 0.187,0.148 0.076,-0.103 0.188,-0.169 0.289,-0.246 0.103,-0.075 0.050,-0.203 -0.041,-0.220 z" id="path5743" />
<path style="fill:#000000" d="m 6.476,4.582 c -0.030,0.003 -0.060,0.023 -0.085,0.056 -0.145,0.186 -0.284,0.377 -0.408,0.578 -0.089,0.145 0.116,0.271 0.205,0.125 C 6.307,5.146 6.443,4.963 6.583,4.781 6.659,4.678 6.569,4.570 6.476,4.582 Z" id="path5745" />
<path style="fill:#000000" d="m 7.777,4.408 c -0.029,0.008 -0.058,0.028 -0.078,0.066 v 0.001 c -0.059,0.132 -0.029,0.062 -0.085,0.203 -0.062,0.159 0.162,0.247 0.224,0.087 0.049,-0.126 0.023,-0.063 0.074,-0.179 0.059,-0.113 -0.044,-0.204 -0.134,-0.179 z" id="path5747" />
<path style="fill:#000000" d="m 21.187,4.361 c -0.058,0.013 -0.106,0.067 -0.087,0.150 0.026,0.144 0.075,0.281 0.126,0.419 0.06,0.16 0.286,0.075 0.226,-0.083 -0.048,-0.126 -0.094,-0.254 -0.119,-0.388 -0.018,-0.083 -0.087,-0.110 -0.146,-0.097 z" id="path5749" />
<path style="fill:#000000" d="M 23.773,3.988 C 23.681,3.971 23.584,4.072 23.654,4.179 h 0.002 C 23.763,4.357 23.882,4.527 24,4.699 V 4.263 C 23.953,4.191 23.902,4.122 23.857,4.048 c -0.023,-0.035 -0.053,-0.054 -0.083,-0.060 z" id="path5751" />
<path style="fill:#000000" d="m 17.154,13.087 c -0.030,-0.006 -0.064,-8.13e-4 -0.099,0.023 -0.198,0.149 -0.373,0.323 -0.546,0.501 -0.117,0.123 0.053,0.290 0.171,0.167 0.16,-0.166 0.325,-0.328 0.509,-0.470 0.105,-0.072 0.055,-0.202 -0.035,-0.222 z" id="path5753" />
<path style="fill:#000000" d="m 17.132,12.511 c -0.058,-0.016 -0.127,0.009 -0.150,0.091 -0.045,0.144 -0.057,0.295 -0.072,0.445 -0.017,0.17 0.223,0.193 0.240,0.023 0.013,-0.136 0.024,-0.272 0.066,-0.404 0.022,-0.082 -0.025,-0.140 -0.083,-0.156 z" id="path5755" />
<path style="fill:#000000" d="m 17.992,12.048 c -0.445,0.118 -0.886,0.243 -1.324,0.388 -0.161,0.055 -0.083,0.282 0.076,0.226 h 0.002 c 0.432,-0.141 0.868,-0.265 1.308,-0.382 0.164,-0.043 0.102,-0.276 -0.062,-0.232 z" id="path5757" />
<path style="fill:#000000" d="m 18.099,12.179 c -0.362,0.118 -0.724,0.240 -1.082,0.375 -0.161,0.055 -0.081,0.284 0.078,0.228 0.356,-0.133 0.716,-0.256 1.078,-0.375 0.162,-0.053 0.086,-0.282 -0.074,-0.228 z" id="path5759" />
<path style="fill:#000000" d="m 16.652,13.707 c -0.030,-0.003 -0.065,0.005 -0.097,0.033 h -0.002 c -0.112,0.091 -0.212,0.194 -0.312,0.298 -0.118,0.123 0.055,0.289 0.173,0.166 0.094,-0.098 0.190,-0.194 0.296,-0.279 0.097,-0.082 0.034,-0.208 -0.058,-0.218 z" id="path5761" />
<path style="fill:#000000" d="m 14.035,15.085 c -0.057,-0.019 -0.127,0.003 -0.154,0.083 -0.095,0.278 -0.209,0.546 -0.326,0.814 -0.164,0.362 -0.346,0.717 -0.519,1.074 -0.09,0.191 -0.046,0.099 -0.126,0.277 -0.071,0.155 0.150,0.254 0.220,0.099 0.079,-0.174 0.037,-0.084 0.125,-0.271 0.175,-0.359 0.356,-0.717 0.521,-1.082 0.121,-0.275 0.236,-0.551 0.333,-0.835 0.027,-0.080 -0.016,-0.140 -0.074,-0.160 z" id="path9111" />
<path style="fill:#000000" d="m 13.632,16.025 c -0.058,0.012 -0.107,0.068 -0.089,0.152 0.05,0.253 0.125,0.496 0.216,0.736 0.016,0.039 0.032,0.079 0.048,0.117 0.065,0.158 0.287,0.066 0.222,-0.091 -0.015,-0.037 -0.029,-0.075 -0.044,-0.111 -0.087,-0.228 -0.160,-0.461 -0.207,-0.701 0,0 0,-0.002 0,-0.002 -0.019,-0.082 -0.088,-0.112 -0.146,-0.099 z" id="path9115" />
<path style="fill:#000000" d="m 14.052,17.388 c -0.057,0.016 -0.103,0.076 -0.080,0.158 0.08,0.27 0.158,0.540 0.238,0.810 0.048,0.164 0.278,0.094 0.230,-0.068 -0.08,-0.27 -0.158,-0.540 -0.238,-0.810 -0.024,-0.082 -0.092,-0.106 -0.150,-0.089 z" id="path9117" />
<path style="fill:#000000" d="m 16.390,14.984 c -0.086,-0.033 -0.200,0.047 -0.152,0.166 0.08,0.19 0.165,0.377 0.261,0.560 0.08,0.150 0.293,0.039 0.214,-0.111 -0.093,-0.176 -0.174,-0.358 -0.251,-0.541 h -0.002 c -0.016,-0.039 -0.041,-0.062 -0.070,-0.074 z" id="path9119" />
<path style="fill:#000000" d="m 16.769,15.818 c -0.090,-0.020 -0.192,0.077 -0.126,0.187 0.14,0.232 0.286,0.457 0.431,0.685 0.108,0.171 0.220,0.340 0.335,0.505 0.098,0.14 0.295,0.001 0.197,-0.138 -0.114,-0.164 -0.224,-0.328 -0.330,-0.496 -0.144,-0.226 -0.289,-0.450 -0.427,-0.679 -0.021,-0.036 -0.049,-0.057 -0.080,-0.064 z" id="path9121" />
<path style="fill:#000000" d="m 15.595,20.265 c -0.060,5e-4 -0.119,0.043 -0.119,0.128 0.004,0.282 0.018,0.562 0.027,0.843 0.007,0.193 0.010,0.387 0.011,0.580 10e-4,0.17 0.241,0.169 0.240,-0.002 -0.002,-0.196 -0.005,-0.390 -0.011,-0.585 -0.01,-0.28 -0.024,-0.558 -0.027,-0.837 -5e-4,-0.085 -0.060,-0.127 -0.121,-0.126 z" id="path9123" />
<path style="fill:#000000" d="m 15.667,22.546 c -0.060,0.001 -0.118,0.045 -0.117,0.130 0.005,0.224 0.004,0.446 0.007,0.669 10e-4,0.102 0.003,0.204 0.009,0.306 0.01,0.171 0.252,0.156 0.242,-0.013 -0.007,-0.099 -0.008,-0.196 -0.009,-0.294 -0.003,-0.224 -0.004,-0.449 -0.009,-0.673 -0.002,-0.085 -0.062,-0.126 -0.123,-0.125 z" id="path9131" />
<path style="fill:#000000" d="m 15.718,23.841 c -0.060,0.001 -0.119,0.047 -0.117,0.132 2.55e-4,0.008 -2.43e-4,0.016 0,0.025 h 0.242 c -2.59e-4,-0.010 2.67e-4,-0.020 0,-0.031 -0.002,-0.085 -0.064,-0.128 -0.125,-0.126 z" id="path9133" />
<path style="fill:#000000" d="m 14.398,21.773 c -0.056,0.021 -0.096,0.082 -0.066,0.162 0.095,0.244 0.208,0.480 0.324,0.714 0.088,0.18 0.184,0.356 0.291,0.525 0.055,0.085 0.115,0.166 0.166,0.253 0.061,0.114 0.106,0.233 0.150,0.353 0.025,0.072 0.050,0.144 0.074,0.216 h 0.246 c -0.001,-0.007 0.004,-0.011 0.002,-0.019 -0.032,-0.094 -0.063,-0.187 -0.095,-0.279 -0.049,-0.135 -0.099,-0.268 -0.167,-0.394 -0.053,-0.09 -0.112,-0.173 -0.169,-0.259 -0.103,-0.163 -0.195,-0.331 -0.279,-0.503 -0.113,-0.228 -0.222,-0.458 -0.314,-0.695 l -0.002,0.002 c -0.030,-0.079 -0.101,-0.097 -0.158,-0.076 z" id="path9135" />
<path style="fill:#000000" d="M 15.560,23.894 C 15.492,23.875 15.424,23.925 15.417,24 h 0.240 c -0.007,-0.013 -0.014,-0.025 -0.021,-0.039 -0.019,-0.036 -0.046,-0.058 -0.076,-0.066 z" id="path9137" />
<path style="fill:#000000" d="m 16.275,20.681 c -0.056,0.019 -0.100,0.079 -0.072,0.160 0.087,0.256 0.170,0.514 0.255,0.771 0.101,0.299 0.216,0.593 0.322,0.890 0.058,0.158 0.108,0.318 0.154,0.480 0.048,0.164 0.279,0.097 0.232,-0.066 -0.048,-0.167 -0.099,-0.333 -0.158,-0.496 -0.107,-0.296 -0.222,-0.589 -0.322,-0.886 -0.085,-0.258 -0.170,-0.515 -0.255,-0.771 0,0 0,-0.002 0,-0.002 -0.028,-0.079 -0.099,-0.099 -0.156,-0.080 z" id="path9143" />
<path style="fill:#000000" d="m 13.373,22.720 c -0.060,-0.005 -0.123,0.032 -0.130,0.117 -0.036,0.303 -0.078,0.603 -0.113,0.906 -0.009,0.084 -0.010,0.170 -0.017,0.255 h 0.240 c 0.006,-0.076 0.006,-0.152 0.015,-0.228 0.036,-0.305 0.080,-0.609 0.115,-0.914 0.008,-0.084 -0.049,-0.131 -0.109,-0.136 z" id="path9145" />
<path style="fill:#000000" d="m 14.423,3.333 c -0.092,-0.009 -0.180,0.097 -0.103,0.199 0.138,0.187 0.267,0.380 0.402,0.568 0.096,0.133 0.203,0.257 0.310,0.380 0.059,0.066 0.119,0.128 0.173,0.197 0.106,0.135 0.294,-0.014 0.189,-0.148 -0.057,-0.072 -0.118,-0.139 -0.179,-0.207 -0.103,-0.118 -0.205,-0.235 -0.296,-0.361 -0.137,-0.191 -0.266,-0.388 -0.406,-0.576 -0.026,-0.034 -0.058,-0.049 -0.089,-0.052 z" id="path9187" />
<path style="fill:#000000" d="m 18.937,21.277 c -0.199,0.038 -0.398,0.078 -0.595,0.125 -0.327,0.079 -0.651,0.163 -0.972,0.261 h -0.002 c -0.164,0.048 -0.095,0.279 0.068,0.232 0.318,-0.097 0.639,-0.179 0.962,-0.257 0.193,-0.047 0.388,-0.086 0.583,-0.123 0.168,-0.032 0.123,-0.270 -0.044,-0.238 z" id="path9189" />
<path style="fill:#000000" d="m 19.152,21.757 c -0.326,0.071 -0.648,0.150 -0.968,0.244 -0.359,0.107 -0.718,0.218 -1.068,0.353 v 0.002 c -0.16,0.061 -0.073,0.285 0.085,0.224 0.345,-0.133 0.697,-0.242 1.050,-0.347 0.314,-0.093 0.631,-0.170 0.951,-0.240 0.167,-0.037 0.116,-0.272 -0.050,-0.236 z" id="path9191" />
<path style="fill:#000000" d="m 19.228,22.259 c -0.354,0.077 -0.704,0.165 -1.048,0.277 -0.423,0.141 -0.843,0.290 -1.251,0.468 -0.157,0.068 -0.060,0.288 0.095,0.220 0.401,-0.174 0.816,-0.323 1.232,-0.460 0.336,-0.11 0.678,-0.197 1.023,-0.271 0.167,-0.036 0.116,-0.270 -0.050,-0.234 z" id="path9193" />
<path style="fill:#000000" d="m 19.253,22.853 c -0.298,0.076 -0.595,0.158 -0.888,0.251 -0.416,0.131 -0.831,0.265 -1.242,0.410 v 0.002 c -0.161,0.057 -0.080,0.282 0.080,0.226 0.409,-0.145 0.821,-0.278 1.234,-0.408 0.289,-0.092 0.581,-0.174 0.875,-0.248 0.166,-0.042 0.106,-0.276 -0.058,-0.234 z" id="path9195" />
<path style="fill:#000000" d="m 19.417,23.435 c -0.428,0.104 -0.848,0.241 -1.269,0.369 -0.222,0.067 -0.445,0.129 -0.667,0.195 h 0.859 c 0.377,-0.116 0.752,-0.237 1.134,-0.330 0.166,-0.04 0.109,-0.274 -0.056,-0.234 z" id="path9197" />
<path style="fill:#000000" d="m 17.494,20.755 c -0.090,-0.021 -0.192,0.075 -0.128,0.185 0.094,0.169 0.191,0.335 0.291,0.5 0.088,0.146 0.295,0.021 0.207,-0.125 -0.1,-0.164 -0.196,-0.329 -0.289,-0.496 -0.021,-0.037 -0.049,-0.057 -0.080,-0.064 z" id="path9201" />
<path style="fill:#000000" d="m 17.947,20.337 c -0.059,0.009 -0.114,0.060 -0.101,0.144 0.04,0.26 0.119,0.511 0.218,0.753 0.075,0.155 0.035,0.080 0.117,0.226 0.084,0.149 0.291,0.029 0.208,-0.119 -0.074,-0.13 -0.038,-0.062 -0.105,-0.199 -0.093,-0.225 -0.166,-0.457 -0.203,-0.697 h 0.003 c -0.013,-0.084 -0.079,-0.118 -0.138,-0.109 z" id="path9203" />
</svg>
