<?xml version="1.0" encoding="UTF-8" standalone="no"?>
<svg xmlns:dc="http://purl.org/dc/elements/1.1/" xmlns:cc="http://creativecommons.org/ns#" xmlns:rdf="http://www.w3.org/1999/02/22-rdf-syntax-ns#" xmlns:svg="http://www.w3.org/2000/svg" xmlns="http://www.w3.org/2000/svg" viewBox="0 0 24 24" version="1.1" id="svg11767" height="100%" width="100%" >
<defs id="defs11761" />
<path style="fill:#ffffff" d="M 0,0 V 24 H 24 V 0 Z" id="rect5" />
<path style="opacity:1;fill:#000000" d="m 20.601,0 c -0.017,0.015 -0.034,0.031 -0.052,0.046 -0.101,0.086 -0.217,0.150 -0.328,0.222 -0.154,0.097 -0.293,0.218 -0.451,0.310 -0.001,-4.819e-4 -0.002,-0.001 -0.003,-0.001 -0.318,0.125 -0.141,0.576 0.175,0.451 0.025,-0.011 0.049,-0.023 0.074,-0.033 0.161,-0.098 0.311,-0.213 0.468,-0.318 0.127,-0.083 0.26,-0.158 0.375,-0.259 0.149,-0.125 0.294,-0.256 0.441,-0.384 C 21.312,0.022 21.323,0.010 21.335,0 Z" id="path8171" />
<path style="opacity:1;fill:#000000" d="m 20.509,1.314 c -0.331,-0.082 -0.449,0.385 -0.117,0.468 v -0.003 c 0.259,0.065 0.512,0.147 0.765,0.236 0.24,0.089 0.475,0.186 0.714,0.277 0.203,0.078 0.407,0.159 0.613,0.230 0.178,0.055 0.354,0.116 0.527,0.189 0.166,0.073 0.328,0.154 0.490,0.238 C 23.670,3.035 23.835,3.126 24,3.214 V 2.669 c -0.091,-0.048 -0.181,-0.097 -0.273,-0.144 -0.171,-0.089 -0.345,-0.177 -0.523,-0.255 -0.182,-0.077 -0.368,-0.143 -0.558,-0.201 -0.2,-0.069 -0.397,-0.145 -0.595,-0.222 -0.243,-0.093 -0.484,-0.193 -0.728,-0.283 -0.266,-0.093 -0.536,-0.179 -0.810,-0.248 z" id="path8175" />
<path style="opacity:1;fill:#000000" d="m 19.986,0.503 c -0.179,-0.050 -0.390,0.132 -0.271,0.359 0.12,0.228 0.255,0.449 0.392,0.669 0.18,0.29 0.591,0.033 0.410,-0.255 -0.13,-0.209 -0.26,-0.419 -0.375,-0.638 -0.039,-0.075 -0.096,-0.117 -0.156,-0.134 z" id="path11493" />
<path style="opacity:1;fill:#000000" d="M 0,0 V 0.369 C 0.151,0.526 0.455,0.423 0.392,0.146 0.372,0.057 0.373,0.035 0.365,0 Z" id="path11581" />
<path style="opacity:1;fill:#000000" d="m 0.496,0 c 0.005,0.035 0.009,0.071 0.015,0.107 0.015,0.084 0.030,0.168 0.046,0.253 0.063,0.336 0.537,0.245 0.474,-0.089 -0.015,-0.08 -0.029,-0.161 -0.044,-0.242 C 0.986,0.019 0.985,0.009 0.984,0 Z" id="path11583" />
<path style="opacity:1;fill:#000000" d="m 0.332,0 c 0.012,0.029 0.007,0.057 0.033,0.085 0.375,0.416 0.794,0.794 1.220,1.160 0.259,0.222 0.572,-0.142 0.312,-0.365 C 1.572,0.601 1.257,0.307 0.957,0 Z" id="path11587" />
<path style="opacity:1;fill:#000000" d="m 1.066,0 c 0.276,0.301 0.562,0.593 0.853,0.880 0.243,0.240 0.582,-0.103 0.339,-0.343 C 2.080,0.359 1.901,0.181 1.724,0 Z" id="path11589" />
<path style="opacity:1;fill:#000000" d="m 1.734,0 c 0.175,0.192 0.351,0.383 0.529,0.574 0.314,0.332 0.165,0.176 0.447,0.468 0.237,0.246 0.584,-0.089 0.347,-0.335 -0.278,-0.288 -0.132,-0.133 -0.443,-0.462 C 2.539,0.163 2.465,0.081 2.390,0 Z" id="path11591" />
<path style="opacity:1;fill:#000000" d="m 2.505,0 c 0.093,0.100 0.181,0.204 0.275,0.304 0.363,0.379 0.190,0.200 0.517,0.533 C 3.537,1.081 3.881,0.744 3.642,0.5 3.338,0.190 3.450,0.303 3.160,0 Z" id="path11593" />
<path style="opacity:1;fill:#000000" d="m 3.337,0 c 0.082,0.077 0.164,0.155 0.248,0.232 0.088,0.078 0.175,0.158 0.263,0.236 0.255,0.227 0.576,-0.133 0.320,-0.361 C 4.129,0.071 4.089,0.035 4.048,0 Z" id="path11595" />
<path style="opacity:1;fill:#000000" d="m 4.060,0 c 0.027,0.074 0.048,0.150 0.076,0.224 l 0.103,0.257 c 0.128,0.316 0.578,0.134 0.449,-0.181 -0.033,-0.082 -0.066,-0.164 -0.099,-0.246 C 4.582,0.036 4.577,0.018 4.570,0 Z" id="path11599" />
<path style="opacity:1;fill:#000000" d="m 4.558,0 c 0.029,0.102 0.049,0.206 0.080,0.308 0.031,0.098 0.060,0.196 0.091,0.294 0.102,0.326 0.563,0.179 0.460,-0.146 -0.03,-0.095 -0.059,-0.190 -0.089,-0.285 C 5.084,0.115 5.073,0.056 5.056,0 Z" id="path11601" />
<path style="opacity:1;fill:#000000" d="m 5.210,0 c 0.095,0.286 0.183,0.574 0.285,0.859 0.114,0.322 0.570,0.158 0.455,-0.162 C 5.869,0.466 5.798,0.231 5.720,0 Z" id="path11603" />
<path style="opacity:1;fill:#000000" d="M 0,4.095 V 4.578 c 0.010,1.828e-4 0.020,-2.238e-4 0.031,0 0.342,0.003 0.345,-0.479 0.003,-0.482 -0.011,-9.48e-5 -0.023,1.081e-4 -0.035,0 z" id="path11631" />
<path style="opacity:1;fill:#000000" d="m 0,3.777 v 0.779 c 0.200,0.270 0.399,0.542 0.607,0.808 L 0.751,5.542 C 0.967,5.807 1.342,5.501 1.125,5.236 1.079,5.180 1.033,5.125 0.988,5.068 c -0.325,-0.417 -0.634,-0.846 -0.953,-1.269 C 0.024,3.785 0.011,3.788 0,3.777 Z" id="path11633" />
<path style="opacity:1;fill:#000000" d="M 0.974,5.246 C 0.649,5.307 0.325,5.368 0,5.431 V 5.923 C 0.354,5.855 0.709,5.789 1.064,5.722 c 0.336,-0.063 0.246,-0.540 -0.089,-0.476 z" id="path11635" />
<path style="opacity:1;fill:#000000" d="m 0,5.767 v 0.496 c 0.256,0.060 0.515,0.112 0.773,0.162 0.467,0.086 0.239,0.041 0.675,0.126 0.335,0.064 0.427,-0.409 0.091,-0.474 -0.439,-0.084 -0.211,-0.042 -0.677,-0.128 C 0.575,5.894 0.285,5.839 0,5.767 Z" id="path11637" />
<path style="opacity:1;fill:#000000" d="M 0,4.285 V 4.460 C 0.026,4.407 0.024,4.350 0,4.285 Z" id="path11651" />
<path style="opacity:1;fill:#000000" d="M 0,3.558 V 4.181 C 0.181,4.183 0.340,3.970 0.181,3.777 0.121,3.704 0.060,3.631 0,3.558 Z" id="path11653" />
<path style="opacity:1;fill:#000000" d="m 0,2.451 v 0.759 c 0.042,0.050 0.085,0.101 0.128,0.152 0.22,0.261 0.589,-0.048 0.369,-0.310 C 0.395,2.930 0.292,2.807 0.189,2.685 0.125,2.608 0.064,2.528 0,2.451 Z" id="path11655" />
<path style="opacity:1;fill:#000000" d="M 0,0.519 V 2.884 c 0.007,0.024 0.004,0.019 0.013,0.050 0.094,0.328 0.560,0.192 0.464,-0.134 C 0.374,2.444 0.427,2.636 0.324,2.224 0.203,1.659 0.100,1.089 0,0.519 Z" id="path11661" />
<path style="opacity:1;fill:#000000" d="m 0.300,0.048 c -0.119,0.019 -0.224,0.122 -0.197,0.291 h 0.001 c 0.105,0.682 0.230,1.361 0.359,2.039 0.089,0.449 0.044,0.237 0.130,0.636 0.072,0.334 0.543,0.231 0.470,-0.101 -0.084,-0.39 -0.039,-0.182 -0.128,-0.625 -0.128,-0.674 -0.252,-1.349 -0.357,-2.027 -0.027,-0.168 -0.160,-0.232 -0.279,-0.212 z" id="path11663" />
<path style="opacity:1;fill:#000000" d="m 0.845,0.312 c -0.117,0.027 -0.216,0.138 -0.177,0.304 0.118,0.598 0.216,1.202 0.333,1.800 0.026,0.121 0.050,0.243 0.076,0.365 0.071,0.334 0.545,0.234 0.474,-0.099 -0.025,-0.119 -0.051,-0.239 -0.076,-0.359 -0.118,-0.604 -0.216,-1.212 -0.337,-1.816 C 1.100,0.341 0.963,0.285 0.845,0.312 Z" id="path11665" />
<path style="opacity:1;fill:#000000" d="m 1.443,0.771 c -0.117,0.025 -0.215,0.137 -0.179,0.302 0.129,0.600 0.280,1.196 0.437,1.791 0.087,0.33 0.554,0.206 0.466,-0.123 C 2.012,2.154 1.863,1.565 1.734,0.970 1.697,0.803 1.561,0.745 1.443,0.771 Z" id="path11667" />
<path style="opacity:1;fill:#000000" d="m 5.433,0 c -0.095,0.077 -0.136,0.222 -0.023,0.355 0.401,0.467 0.821,0.918 1.248,1.363 0.081,0.082 0.164,0.165 0.246,0.248 0.24,0.243 0.583,-0.096 0.343,-0.339 -0.079,-0.081 -0.158,-0.161 -0.238,-0.242 C 6.589,0.946 6.175,0.502 5.779,0.041 5.756,0.013 5.728,0.015 5.703,0 Z" id="path11719" />
<path style="opacity:1;fill:#000000" d="m 6.001,0 c 0.381,0.439 0.764,0.880 1.152,1.316 0.327,0.358 0.168,0.187 0.474,0.509 0.236,0.247 0.585,-0.085 0.349,-0.332 C 7.681,1.182 7.836,1.347 7.515,0.996 7.222,0.665 6.932,0.333 6.642,0 Z" id="path11721" />
<path style="opacity:1;fill:#000000" d="m 6.814,0 c 0.430,0.396 0.858,0.796 1.283,1.199 0.075,0.07 0.149,0.139 0.224,0.210 0.249,0.234 0.581,-0.117 0.332,-0.351 -0.075,-0.07 -0.149,-0.139 -0.224,-0.210 C 8.129,0.563 7.822,0.283 7.521,0 Z" id="path11723" />
<path style="opacity:1;fill:#000000" d="m 7.896,0 c 0.253,0.225 0.503,0.452 0.757,0.677 0.256,0.225 0.576,-0.135 0.320,-0.361 C 8.856,0.211 8.739,0.104 8.621,0 Z" id="path11725" />
<path style="opacity:1;fill:#000000" d="m 8.394,0 c 0.036,0.079 0.074,0.158 0.111,0.238 0.143,0.31 0.582,0.106 0.439,-0.203 C 8.939,0.023 8.935,0.011 8.929,0 Z" id="path11729" />
<path style="opacity:1;fill:#000000" d="m 9.064,0 c 0.066,0.228 0.118,0.461 0.195,0.687 0.044,0.117 0.089,0.232 0.134,0.349 0.121,0.319 0.573,0.147 0.451,-0.171 C 9.803,0.754 9.761,0.643 9.718,0.531 9.659,0.357 9.618,0.176 9.566,0 Z" id="path11731" />
<path style="opacity:1;fill:#000000" d="m 9.898,0 c 0.092,0.376 0.185,0.752 0.277,1.128 0.09,0.358 0.046,0.189 0.132,0.503 0.09,0.329 0.554,0.202 0.464,-0.126 -0.083,-0.304 -0.037,-0.139 -0.126,-0.490 C 10.564,0.677 10.478,0.338 10.396,0 Z" id="path11733" />
<path style="opacity:1;fill:#000000" d="m 10.496,0 c 0.084,0.302 0.168,0.606 0.257,0.908 0.123,0.402 0.062,0.212 0.177,0.570 0.104,0.325 0.563,0.175 0.458,-0.148 -0.112,-0.349 -0.051,-0.161 -0.173,-0.558 C 11.140,0.515 11.070,0.257 10.998,0 Z" id="path11735" />
<path style="opacity:1;fill:#000000" d="m 19.730,0 c -8.45e-4,0.007 -0.001,0.014 -0.002,0.021 -0.041,0.389 -0.023,0.208 -0.050,0.537 -0.026,0.341 0.453,0.380 0.480,0.039 0.024,-0.314 0.008,-0.142 0.048,-0.521 C 20.210,0.050 20.211,0.025 20.214,0 Z" id="path11781" />
<path style="opacity:1;fill:#000000" d="m 20.386,0 c -0.006,0.106 -0.018,0.213 -0.023,0.320 -0.017,0.341 0.467,0.366 0.484,0.025 C 20.853,0.230 20.865,0.115 20.873,0 Z" id="path11783" />
<path style="opacity:1;fill:#000000" d="m 21.128,0 c 0.018,0.310 0.449,0.316 0.470,0 z" id="path11785" />
<path style="opacity:1;fill:#000000" d="m 16.912,0 c 0.053,0.102 0.172,0.171 0.320,0.105 C 17.307,0.071 17.381,0.034 17.457,0 Z" id="path11811" />
<path style="opacity:1;fill:#000000" d="m 17.367,0 c -0.007,0.003 -0.014,0.006 -0.021,0.009 -0.311,0.142 -0.108,0.580 0.201,0.437 v 0.001 C 17.862,0.297 18.179,0.149 18.496,0 Z" id="path11813" />
<path style="opacity:1;fill:#000000" d="m 18.845,0 c -0.344,0.214 -0.689,0.428 -1.044,0.626 -0.304,0.155 -0.085,0.584 0.218,0.429 0.453,-0.250 0.894,-0.521 1.333,-0.798 C 19.463,0.188 19.476,0.089 19.457,0 Z" id="path11815" />
<path style="opacity:1;fill:#000000" d="M 0.015,3.490 C 0.010,3.489 0.005,3.492 0,3.492 V 4.080 C 0.523,4.518 1.035,4.972 1.564,5.406 c 0.054,0.041 0.109,0.083 0.164,0.125 0.272,0.207 0.564,-0.177 0.292,-0.384 L 1.871,5.033 C 1.349,4.606 0.845,4.158 0.328,3.724 0.326,3.723 0.327,3.721 0.326,3.720 0.310,3.708 0.296,3.694 0.281,3.681 0.227,3.629 0.181,3.524 0.113,3.546 c 0,0 -0.001,0 -0.001,0 C 0.078,3.523 0.044,3.495 0.015,3.490 Z" id="path11819" />
<path style="opacity:1;fill:#000000" d="M 0.320,2.824 C 0.134,2.838 -2.968e-4,3.083 0.189,3.255 0.700,3.745 1.211,4.236 1.738,4.710 c 0.238,0.216 0.487,0.418 0.740,0.617 0.268,0.211 0.567,-0.166 0.298,-0.378 C 2.533,4.757 2.292,4.561 2.062,4.351 1.536,3.877 1.024,3.388 0.513,2.898 0.450,2.840 0.382,2.819 0.320,2.824 Z" id="path11821" />
<path style="opacity:1;fill:#000000" d="M 0.568,2.589 C 0.387,2.634 0.292,2.896 0.507,3.035 v 0.001 c 0.662,0.473 1.288,0.997 1.916,1.515 0.113,0.097 0.226,0.194 0.339,0.291 0.259,0.222 0.574,-0.145 0.314,-0.367 -0.115,-0.099 -0.231,-0.197 -0.347,-0.296 -0.642,-0.53 -1.281,-1.065 -1.960,-1.548 -0.071,-0.046 -0.140,-0.055 -0.201,-0.041 z" id="path11823" />
<path style="opacity:1;fill:#000000" d="m 1.734,5.457 c -0.223,-0.001 -0.446,0.008 -0.667,0.037 -0.336,0.054 -0.260,0.531 0.076,0.476 0.41,-0.051 0.827,-0.024 1.240,-0.007 0.341,0.014 0.361,-0.469 0.019,-0.484 C 2.180,5.469 1.957,5.458 1.734,5.457 Z" id="path11825" />
<path style="opacity:1;fill:#000000" d="m 2.031,1.900 c -0.113,-0.041 -0.254,-0.002 -0.312,0.158 l -0.001,0.001 c -0.135,0.402 -0.233,0.816 -0.312,1.232 -0.063,0.335 0.412,0.424 0.476,0.087 0.073,-0.391 0.165,-0.779 0.291,-1.158 C 2.229,2.062 2.144,1.941 2.031,1.900 Z" id="path11827" />
<path style="opacity:1;fill:#000000" d="M 2.378,2.523 C 2.262,2.490 2.121,2.538 2.074,2.703 c -0.099,0.368 -0.198,0.736 -0.289,1.107 -0.081,0.332 0.388,0.447 0.470,0.115 0.089,-0.365 0.184,-0.726 0.283,-1.089 0.047,-0.164 -0.043,-0.279 -0.160,-0.312 z" id="path11829" />
<path style="opacity:1;fill:#000000" d="M 2.302,0.359 C 2.183,0.341 2.051,0.408 2.025,0.578 1.942,1.152 1.860,1.728 1.830,2.310 c 7.26e-4,0.062 9.531e-4,0.123 0.001,0.185 0.005,0.341 0.489,0.335 0.484,-0.005 -7.65e-4,-0.051 -0.002,-0.101 -0.003,-0.152 0.028,-0.566 0.110,-1.127 0.191,-1.687 0.025,-0.169 -0.081,-0.272 -0.201,-0.291 z" id="path11831" />
<path style="opacity:1;fill:#000000" d="m 2.894,0.349 c -0.117,-0.029 -0.254,0.023 -0.296,0.189 -0.127,0.56 -0.194,1.131 -0.267,1.701 -0.03,0.228 -0.049,0.456 -0.060,0.687 -0.015,0.341 0.468,0.363 0.484,0.021 0.009,-0.217 0.028,-0.433 0.056,-0.648 0.07,-0.549 0.134,-1.101 0.255,-1.642 0.041,-0.165 -0.054,-0.278 -0.171,-0.308 z" id="path11833" />
<path style="opacity:1;fill:#000000" d="M 3.408,0.312 C 3.288,0.296 3.159,0.368 3.136,0.537 3.053,1.074 2.983,1.615 2.919,2.156 c -0.032,0.258 -0.051,0.518 -0.064,0.779 -0.016,0.341 0.465,0.363 0.482,0.021 0.012,-0.249 0.029,-0.496 0.060,-0.744 0.063,-0.539 0.133,-1.077 0.216,-1.613 0.022,-0.169 -0.087,-0.271 -0.207,-0.287 z" id="path11835" />
<path style="opacity:1;fill:#000000" d="M 3.998,0.224 C 3.878,0.205 3.745,0.270 3.718,0.439 v 0.001 C 3.629,1.051 3.583,1.665 3.533,2.279 c -0.026,0.363 -0.016,0.194 -0.031,0.507 -0.016,0.341 0.465,0.365 0.482,0.023 0.014,-0.3 0.005,-0.137 0.031,-0.492 0.049,-0.601 0.091,-1.204 0.179,-1.802 0.027,-0.168 -0.078,-0.271 -0.197,-0.291 z" id="path11837" />
<path style="opacity:1;fill:#000000" d="M 4.548,0.335 C 4.428,0.322 4.298,0.392 4.279,0.562 4.248,1.174 4.224,1.786 4.187,2.398 c -0.018,0.334 -0.011,0.177 -0.025,0.466 -0.016,0.341 0.467,0.364 0.484,0.023 0.013,-0.283 0.004,-0.128 0.023,-0.460 0.036,-0.603 0.061,-1.206 0.089,-1.810 0.019,-0.169 -0.090,-0.267 -0.210,-0.281 z" id="path11839" />
<path style="opacity:1;fill:#000000" d="m 4.968,0.527 c -0.119,-0.017 -0.250,0.049 -0.275,0.218 -0.055,0.451 -0.080,0.904 -0.111,1.357 -0.023,0.341 0.459,0.374 0.482,0.033 0.029,-0.44 0.054,-0.883 0.107,-1.322 0.024,-0.169 -0.083,-0.269 -0.203,-0.287 z" id="path11841" />
<path style="opacity:1;fill:#000000" d="m 2.605,3.080 c -0.180,-0.048 -0.390,0.135 -0.269,0.361 0.302,0.615 0.578,1.243 0.869,1.863 0.179,0.364 0.091,0.194 0.259,0.509 0.161,0.301 0.586,0.074 0.425,-0.226 -0.159,-0.298 -0.075,-0.137 -0.248,-0.488 -0.294,-0.628 -0.573,-1.262 -0.880,-1.884 -0.040,-0.075 -0.096,-0.118 -0.156,-0.134 z" id="path11843" />
<path style="opacity:1;fill:#000000" d="M 3.042,2.484 C 2.868,2.418 2.641,2.582 2.740,2.818 v 0.001 c 0.285,0.662 0.581,1.317 0.892,1.968 0.169,0.346 0.345,0.690 0.541,1.023 0.174,0.294 0.590,0.047 0.416,-0.246 -0.188,-0.32 -0.357,-0.651 -0.521,-0.984 -0.308,-0.643 -0.600,-1.294 -0.882,-1.949 -0.032,-0.078 -0.084,-0.126 -0.142,-0.148 z" id="path11845" />
<path style="opacity:1;fill:#000000" d="M 3.468,2.564 C 3.355,2.606 3.270,2.728 3.330,2.888 3.587,3.587 3.915,4.256 4.25,4.921 c 0.166,0.323 0.333,0.647 0.525,0.957 0.18,0.290 0.590,0.034 0.410,-0.255 -0.184,-0.296 -0.341,-0.606 -0.503,-0.917 -0.326,-0.648 -0.647,-1.300 -0.898,-1.982 C 3.724,2.562 3.582,2.522 3.468,2.564 Z" id="path11847" />
<path style="opacity:1;fill:#000000" d="M 4.269,2.726 C 4.092,2.667 3.872,2.840 3.980,3.072 c 0.315,0.734 0.642,1.464 0.974,2.191 0.039,0.09 0.077,0.179 0.117,0.269 0.137,0.313 0.580,0.118 0.443,-0.193 C 5.475,5.247 5.434,5.154 5.394,5.062 5.062,4.334 4.735,3.604 4.419,2.869 c -0.036,-0.077 -0.091,-0.122 -0.150,-0.142 z" id="path11849" />
<path style="opacity:1;fill:#000000" d="m 2.556,4.902 c -0.184,-0.029 -0.374,0.175 -0.230,0.386 0.098,0.144 0.217,0.271 0.337,0.398 0.236,0.246 0.586,-0.087 0.349,-0.333 -0.102,-0.105 -0.203,-0.212 -0.287,-0.333 -0.048,-0.070 -0.108,-0.107 -0.169,-0.117 z" id="path11851" />
<path style="opacity:1;fill:#000000" d="m 2.812,5.335 c -0.34,-0.036 -0.390,0.443 -0.050,0.480 0.229,0.027 0.457,0.075 0.685,0.119 0.335,0.064 0.425,-0.409 0.089,-0.474 -0.24,-0.046 -0.480,-0.096 -0.724,-0.125 z" id="path11853" />
<path style="opacity:1;fill:#000000" d="m 10.75,0 c -0.025,0.031 -0.059,0.069 -0.152,0.191 -0.208,0.271 0.175,0.565 0.384,0.294 0.186,-0.243 0.083,-0.112 0.308,-0.388 C 11.317,0.065 11.344,0.032 11.371,0 Z" id="path11859" />
<path style="opacity:1;fill:#000000" d="m 11.441,0 c -0.117,0.150 -0.236,0.299 -0.351,0.451 -0.264,0.365 -0.141,0.190 -0.365,0.521 -0.191,0.283 0.206,0.554 0.398,0.271 0.213,-0.314 0.096,-0.147 0.351,-0.501 C 11.663,0.492 11.855,0.244 12.052,0 Z" id="path11861" />
<path style="opacity:1;fill:#000000" d="m 12.156,0 c -0.194,0.252 -0.398,0.498 -0.589,0.753 -0.078,0.107 -0.156,0.214 -0.234,0.322 -0.2,0.277 0.190,0.560 0.390,0.283 0.076,-0.105 0.151,-0.209 0.228,-0.314 C 12.216,0.692 12.492,0.346 12.767,0 Z" id="path11863" />
<path style="opacity:1;fill:#000000" d="m 12.839,0 c -0.015,0.035 -0.031,0.071 -0.046,0.107 -0.178,0.420 -0.096,0.220 -0.242,0.605 -0.121,0.318 0.330,0.489 0.451,0.169 0.138,-0.365 0.061,-0.171 0.234,-0.580 C 13.280,0.201 13.324,0.100 13.369,0 Z" id="path11865" />
<path style="opacity:1;fill:#000000" d="m 13.412,0 c -0.196,0.460 -0.110,0.248 -0.279,0.685 -0.123,0.319 0.328,0.492 0.451,0.173 0.163,-0.423 0.073,-0.199 0.273,-0.667 C 13.886,0.126 13.919,0.064 13.949,0 Z" id="path11867" />
<path style="opacity:1;fill:#000000" d="m 14.138,0 c -0.087,0.203 -0.183,0.403 -0.269,0.607 -0.04,0.101 -0.080,0.205 -0.121,0.308 -0.126,0.316 0.323,0.495 0.449,0.177 0.039,-0.099 0.079,-0.198 0.119,-0.298 C 14.428,0.527 14.552,0.266 14.667,0 Z" id="path11869" />
<path style="opacity:1;fill:#000000" d="m 14.669,0 c -0.111,0.227 -0.227,0.453 -0.337,0.681 -0.148,0.307 0.286,0.518 0.435,0.210 C 14.911,0.594 15.062,0.297 15.208,0 Z" id="path11871" />
<path style="opacity:1;fill:#000000" d="m 14.798,0 c -0.035,0.049 -0.055,0.116 -0.041,0.199 h 0.002 c 0.094,0.555 0.132,1.119 0.197,1.679 0.052,0.377 0.024,0.198 0.082,0.533 0.058,0.337 0.535,0.253 0.476,-0.082 -0.054,-0.315 -0.028,-0.146 -0.078,-0.507 -0.066,-0.569 -0.105,-1.142 -0.203,-1.708 C 15.224,0.059 15.191,0.032 15.164,0 Z" id="path11873" />
<path style="opacity:1;fill:#000000" d="m 15.345,0 c 0.028,0.448 0.053,0.898 0.091,1.345 0.029,0.362 0.074,0.721 0.126,1.080 0.049,0.338 0.527,0.269 0.478,-0.068 -0.05,-0.35 -0.094,-0.701 -0.123,-1.054 C 15.882,0.869 15.858,0.434 15.830,0 Z" id="path11875" />
<path style="opacity:1;fill:#000000" d="m 15.951,0 c 0.044,0.220 0.082,0.442 0.125,0.664 0.132,0.668 0.222,1.345 0.337,2.017 0.057,0.337 0.534,0.253 0.476,-0.082 -0.115,-0.675 -0.205,-1.353 -0.339,-2.025 C 16.513,0.383 16.480,0.191 16.441,0 Z" id="path11877" />
<path style="opacity:1;fill:#000000" d="m 16.621,0 c 0.106,0.684 0.211,1.369 0.322,2.052 0.087,0.534 0.044,0.282 0.128,0.753 0.059,0.336 0.536,0.252 0.476,-0.083 -0.082,-0.463 -0.038,-0.215 -0.126,-0.746 C 17.315,1.318 17.211,0.659 17.109,0 Z" id="path11879" />
<path style="opacity:1;fill:#000000" d="m 17.353,0 c -0.032,0.048 -0.051,0.107 -0.039,0.185 0.112,0.729 0.191,1.466 0.283,2.199 0.015,0.122 0.030,0.244 0.046,0.367 0.043,0.339 0.522,0.277 0.478,-0.060 -0.015,-0.121 -0.030,-0.244 -0.046,-0.367 -0.092,-0.739 -0.171,-1.479 -0.285,-2.216 C 17.782,0.056 17.751,0.032 17.726,0 Z" id="path11881" />
<path style="opacity:1;fill:#000000" d="m 18.576,0.140 c -0.057,0.021 -0.112,0.071 -0.146,0.148 -0.268,0.628 -0.476,1.282 -0.652,1.943 -0.087,0.33 0.378,0.455 0.466,0.125 0.169,-0.639 0.369,-1.270 0.630,-1.878 0.100,-0.235 -0.123,-0.402 -0.298,-0.337 z" id="path11883" />
<path style="opacity:1;fill:#000000" d="m 19.125,0 c -0.219,0.507 -0.414,1.025 -0.601,1.544 -0.134,0.374 -0.253,0.752 -0.367,1.132 -0.098,0.327 0.363,0.466 0.462,0.138 0.112,-0.371 0.227,-0.742 0.359,-1.109 C 19.184,1.131 19.398,0.557 19.652,0 Z" id="path11885" />
<path style="opacity:1;fill:#000000" d="m 19.638,0 c -0.230,0.620 -0.451,1.244 -0.675,1.867 -0.112,0.302 -0.213,0.608 -0.306,0.917 -0.098,0.327 0.363,0.468 0.462,0.140 0.09,-0.299 0.188,-0.599 0.298,-0.894 0.225,-0.626 0.450,-1.253 0.681,-1.878 C 20.123,0.094 20.112,0.047 20.103,0 Z" id="path11887" />
<path style="opacity:1;fill:#000000" d="m 20.171,0.839 c -0.113,-0.038 -0.255,0.006 -0.310,0.167 -0.190,0.515 -0.389,1.029 -0.576,1.546 -0.093,0.275 -0.053,0.145 -0.123,0.384 -0.095,0.328 0.368,0.462 0.464,0.134 0.062,-0.216 0.025,-0.095 0.113,-0.355 0.188,-0.521 0.386,-1.038 0.578,-1.558 0.054,-0.161 -0.032,-0.281 -0.146,-0.320 z" id="path11889" />
<path style="opacity:1;fill:#000000" d="m 20.462,1.443 c -0.114,-0.038 -0.256,0.004 -0.310,0.166 -0.113,0.32 -0.234,0.637 -0.345,0.958 -0.112,0.323 0.344,0.481 0.457,0.158 0.111,-0.322 0.234,-0.640 0.347,-0.962 0.054,-0.162 -0.033,-0.281 -0.148,-0.320 z" id="path11891" />
<path style="opacity:1;fill:#000000" d="m 20.857,1.566 c -0.058,0.019 -0.112,0.065 -0.148,0.142 -0.093,0.19 -0.177,0.385 -0.257,0.582 -0.128,0.317 0.321,0.498 0.449,0.181 0.076,-0.189 0.156,-0.376 0.246,-0.560 0.107,-0.232 -0.112,-0.404 -0.289,-0.345 z" id="path11893" />
<path style="opacity:1;fill:#000000" d="m 21.513,1.904 c -0.473,0.12 -0.942,0.254 -1.404,0.412 -0.322,0.114 -0.161,0.571 0.160,0.457 0.448,-0.153 0.904,-0.285 1.363,-0.402 0.331,-0.084 0.210,-0.551 -0.119,-0.466 z" id="path11895" />
<path style="opacity:1;fill:#000000" d="M 5.896,0.744 C 5.837,0.723 5.767,0.726 5.691,0.765 c -0.334,0.172 -0.670,0.350 -0.970,0.580 -0.261,0.218 0.047,0.586 0.308,0.371 0,0 0.001,-0.001 0.001,-0.001 0.273,-0.204 0.577,-0.363 0.880,-0.519 0.228,-0.117 0.160,-0.388 -0.015,-0.451 z" id="path12085" />
<path style="opacity:1;fill:#000000" d="m 6.248,1.285 c -0.059,-0.018 -0.129,-0.013 -0.203,0.029 -0.6,0.344 -1.184,0.711 -1.761,1.093 -0.289,0.182 -0.031,0.592 0.257,0.410 v -0.001 c 0.571,-0.377 1.150,-0.742 1.744,-1.082 0.222,-0.127 0.141,-0.395 -0.037,-0.449 z" id="path12087" />
<path style="opacity:1;fill:#000000" d="M 7.386,1.220 C 7.326,1.204 7.256,1.211 7.183,1.255 6.850,1.457 6.520,1.664 6.191,1.875 5.615,2.24 5.040,2.606 4.462,2.968 c -0.297,0.169 -0.057,0.588 0.238,0.419 0.584,-0.365 1.166,-0.735 1.748,-1.105 0.325,-0.208 0.655,-0.412 0.986,-0.613 0.219,-0.132 0.131,-0.399 -0.048,-0.449 z" id="path12089" />
<path style="opacity:1;fill:#000000" d="m 5.556,2.533 c -0.062,0.005 -0.124,0.037 -0.177,0.105 -0.266,0.385 -0.421,0.835 -0.554,1.281 -0.097,0.327 0.364,0.464 0.462,0.136 0.115,-0.388 0.247,-0.781 0.472,-1.121 0.157,-0.201 -0.017,-0.419 -0.203,-0.402 z" id="path12091" />
<path style="opacity:1;fill:#000000" d="m 6.177,2.041 c -0.058,0.020 -0.113,0.066 -0.148,0.144 -0.213,0.521 -0.362,1.063 -0.513,1.605 -0.121,0.454 -0.239,0.907 -0.347,1.365 -0.078,0.333 0.391,0.444 0.470,0.111 0.105,-0.451 0.221,-0.898 0.341,-1.345 0.144,-0.517 0.287,-1.038 0.488,-1.537 0.105,-0.233 -0.114,-0.404 -0.291,-0.343 z" id="path12093" />
<path style="opacity:1;fill:#000000" d="m 6.910,1.607 c -0.060,0.012 -0.119,0.053 -0.164,0.125 -0.289,0.572 -0.397,1.223 -0.546,1.843 -0.118,0.507 -0.242,1.012 -0.343,1.523 -0.065,0.335 0.408,0.428 0.474,0.093 0.098,-0.504 0.222,-1.002 0.339,-1.503 0.137,-0.571 0.236,-1.171 0.488,-1.705 0.132,-0.219 -0.065,-0.415 -0.248,-0.376 z" id="path12095" />
<path style="opacity:1;fill:#000000" d="m 7.548,1.726 c -0.115,-0.036 -0.257,0.008 -0.308,0.171 -0.179,0.572 -0.325,1.154 -0.478,1.734 -0.146,0.566 -0.078,0.290 -0.203,0.822 -0.078,0.333 0.391,0.444 0.470,0.111 0.122,-0.519 0.054,-0.249 0.199,-0.810 0.151,-0.572 0.294,-1.147 0.472,-1.712 0.051,-0.163 -0.037,-0.280 -0.152,-0.316 z" id="path12097" />
<path style="opacity:1;fill:#000000" d="m 6.957,5.062 c -0.54,0.127 -1.085,0.237 -1.625,0.375 -0.326,0.1 -0.183,0.562 0.142,0.462 0.528,-0.133 1.063,-0.244 1.593,-0.369 0.332,-0.078 0.220,-0.547 -0.111,-0.468 z" id="path12099" />
<path style="opacity:1;fill:#000000" d="M 6.564,4.410 C 6.381,4.375 6.188,4.577 6.324,4.792 c 0.129,0.207 0.277,0.406 0.427,0.599 0.21,0.269 0.590,-0.027 0.380,-0.296 -0.142,-0.181 -0.279,-0.369 -0.402,-0.564 -0.046,-0.072 -0.104,-0.109 -0.166,-0.121 z" id="path12101" />
<path style="opacity:1;fill:#000000" d="M 7.101,3.712 C 6.927,3.647 6.703,3.813 6.800,4.048 7.024,4.577 7.292,5.084 7.591,5.574 c 0.178,0.290 0.591,0.038 0.412,-0.251 -0.287,-0.468 -0.542,-0.956 -0.757,-1.462 -0.033,-0.078 -0.086,-0.124 -0.144,-0.146 z" id="path12103" />
<path style="opacity:1;fill:#000000" d="M 7.402,3.042 C 7.224,2.987 7.007,3.164 7.119,3.394 c 0.301,0.612 0.642,1.203 0.988,1.791 0.055,0.092 0.110,0.186 0.166,0.279 0.176,0.293 0.590,0.043 0.414,-0.25 -0.054,-0.091 -0.109,-0.181 -0.164,-0.273 -0.339,-0.575 -0.672,-1.156 -0.968,-1.757 -0.037,-0.076 -0.092,-0.122 -0.152,-0.140 z" id="path12105" />
<path style="opacity:1;fill:#000000" d="m 7.707,1.185 c -0.120,-0.002 -0.241,0.080 -0.246,0.25 0,0 0,0.001 0,0.001 -0.006,0.749 0.121,1.492 0.251,2.228 0.108,0.54 0.053,0.285 0.162,0.765 0.075,0.333 0.546,0.224 0.470,-0.107 -0.105,-0.465 -0.051,-0.217 -0.156,-0.744 -0.126,-0.705 -0.252,-1.415 -0.246,-2.134 0.003,-0.171 -0.115,-0.257 -0.236,-0.259 z" id="path12107" />
<path style="opacity:1;fill:#000000" d="m 8.501,0.980 c -0.114,-0.037 -0.255,0.005 -0.308,0.167 l -0.001,-0.001 c -0.153,0.663 -0.065,1.366 -0.013,2.037 0.043,0.530 0.112,1.058 0.199,1.585 0.056,0.337 0.532,0.257 0.476,-0.078 -0.085,-0.512 -0.153,-1.026 -0.195,-1.544 -0.047,-0.608 -0.124,-1.243 -0.005,-1.847 0.053,-0.162 -0.035,-0.280 -0.150,-0.318 z" id="path12109" />
<path style="opacity:1;fill:#000000" d="m 9.371,0.423 c -0.060,0.013 -0.119,0.051 -0.164,0.125 -0.302,0.554 -0.53,1.148 -0.75,1.740 -0.027,0.079 -0.053,0.160 -0.080,0.240 -0.11,0.323 0.348,0.478 0.458,0.154 0.025,-0.075 0.049,-0.150 0.074,-0.226 0.209,-0.563 0.425,-1.128 0.710,-1.658 0.132,-0.219 -0.067,-0.414 -0.250,-0.375 z" id="path12111" />
<path style="opacity:1;fill:#000000" d="m 9.839,0.886 c -0.061,0.009 -0.121,0.046 -0.169,0.117 h -0.001 c -0.255,0.406 -0.447,0.847 -0.660,1.277 -0.23,0.442 -0.456,0.885 -0.646,1.347 C 8.232,3.944 8.678,4.129 8.808,3.812 8.992,3.361 9.217,2.929 9.441,2.496 c 0.203,-0.408 0.386,-0.829 0.624,-1.218 0.144,-0.210 -0.042,-0.419 -0.226,-0.390 z" id="path12113" />
<path style="opacity:1;fill:#000000" d="M 10.578,1.074 C 10.516,1.083 10.454,1.119 10.406,1.189 10.129,1.607 9.900,2.055 9.669,2.5 c -0.27,0.532 -0.528,1.072 -0.755,1.625 -0.129,0.316 0.317,0.500 0.447,0.183 0.221,-0.539 0.472,-1.065 0.736,-1.585 0.22,-0.426 0.442,-0.855 0.707,-1.257 0.145,-0.210 -0.042,-0.418 -0.226,-0.390 z" id="path12115" />
<path style="opacity:1;fill:#000000" d="M 8.726,3.728 C 8.545,3.681 8.337,3.869 8.460,4.093 c 0.175,0.341 0.349,0.681 0.554,1.005 0.182,0.289 0.591,0.030 0.408,-0.257 -0.2,-0.315 -0.367,-0.649 -0.539,-0.980 -0.041,-0.075 -0.097,-0.117 -0.158,-0.132 z" id="path12117" />
<path style="opacity:1;fill:#000000" d="m 9.244,3.322 c -0.117,0.03 -0.212,0.143 -0.169,0.308 0.141,0.465 0.356,0.901 0.582,1.330 0.036,0.062 0.073,0.125 0.109,0.187 0.171,0.296 0.589,0.053 0.417,-0.242 L 10.083,4.734 C 9.875,4.340 9.676,3.938 9.542,3.511 9.500,3.346 9.361,3.292 9.244,3.322 Z" id="path12119" />
<path style="opacity:1;fill:#000000" d="m 9.732,2.847 c -0.114,0.039 -0.200,0.158 -0.144,0.320 0.189,0.49 0.458,0.943 0.722,1.396 0.111,0.191 0.225,0.379 0.343,0.566 0.183,0.289 0.591,0.030 0.408,-0.257 -0.115,-0.181 -0.225,-0.364 -0.333,-0.550 -0.247,-0.425 -0.502,-0.850 -0.683,-1.310 C 9.989,2.850 9.846,2.808 9.732,2.847 Z" id="path12121" />
<path style="opacity:1;fill:#000000" d="M 10.261,2.404 C 10.081,2.356 9.870,2.540 9.992,2.765 h 0.001 c 0.306,0.588 0.621,1.172 0.947,1.75 0.045,0.077 0.090,0.154 0.136,0.232 0.173,0.294 0.590,0.048 0.416,-0.244 l -0.132,-0.224 c -0.324,-0.575 -0.636,-1.156 -0.941,-1.742 -0.040,-0.075 -0.098,-0.116 -0.158,-0.132 z" id="path12123" />
<path style="opacity:1;fill:#000000" d="m 11.009,1.304 c -0.113,-0.040 -0.257,5.845e-4 -0.316,0.160 -0.187,0.626 -0.247,1.282 -0.269,1.933 10e-4,0.09 0.003,0.182 0.005,0.273 0.006,0.342 0.489,0.331 0.482,-0.009 -10e-4,-0.082 -0.003,-0.164 -0.005,-0.246 0.019,-0.602 0.073,-1.206 0.242,-1.787 0.058,-0.160 -0.025,-0.283 -0.138,-0.324 z" id="path12125" />
<path style="opacity:1;fill:#000000" d="m 11.623,1.152 c -0.117,-0.029 -0.253,0.025 -0.294,0.191 -0.138,0.722 -0.188,1.458 -0.240,2.191 -0.006,0.114 -0.012,0.228 -0.019,0.343 -0.019,0.341 0.464,0.368 0.484,0.027 0.006,-0.112 0.011,-0.224 0.017,-0.337 0.05,-0.705 0.096,-1.411 0.226,-2.107 0.041,-0.166 -0.056,-0.279 -0.173,-0.308 z" id="path12127" />
<path style="opacity:1;fill:#000000" d="m 12.085,0.988 c -0.120,-0.004 -0.243,0.075 -0.25,0.246 -0.03,0.629 -0.066,1.257 -0.107,1.886 -0.028,0.386 -0.045,0.773 -0.058,1.160 -0.012,0.341 0.470,0.359 0.482,0.017 0.013,-0.382 0.029,-0.764 0.058,-1.146 0.041,-0.633 0.077,-1.264 0.107,-1.898 0.006,-0.170 -0.111,-0.260 -0.232,-0.265 z" id="path12129" />
<path style="opacity:1;fill:#000000" d="m 11.320,4.181 c -0.338,-0.045 -0.401,0.432 -0.062,0.478 0.177,0.022 0.355,0.033 0.533,0.044 0.341,0.019 0.369,-0.462 0.027,-0.482 -0.166,-0.009 -0.333,-0.020 -0.498,-0.041 z" id="path12131" />
<path style="opacity:1;fill:#000000" d="m 11.984,2.876 c -0.179,-0.050 -0.390,0.130 -0.271,0.357 0.201,0.402 0.387,0.809 0.589,1.212 0.03,0.058 0.060,0.116 0.091,0.175 0.159,0.302 0.586,0.077 0.427,-0.224 -0.029,-0.055 -0.057,-0.110 -0.087,-0.166 -0.202,-0.404 -0.390,-0.816 -0.593,-1.220 -0.039,-0.075 -0.096,-0.117 -0.156,-0.134 z" id="path12133" />
<path style="opacity:1;fill:#000000" d="m 12.152,2.142 c -0.112,0.043 -0.194,0.166 -0.132,0.326 0.222,0.537 0.466,1.064 0.720,1.587 0.105,0.219 0.218,0.433 0.337,0.646 0.166,0.298 0.590,0.061 0.423,-0.236 -0.113,-0.203 -0.222,-0.410 -0.324,-0.621 -0.248,-0.512 -0.489,-1.024 -0.707,-1.550 -0.061,-0.159 -0.205,-0.196 -0.318,-0.152 z" id="path12135" />
<path style="opacity:1;fill:#000000" d="M 12.404,1.113 C 12.225,1.060 12.012,1.240 12.128,1.468 c 0.254,0.515 0.519,1.025 0.785,1.535 0.235,0.450 0.474,0.897 0.714,1.345 0.161,0.301 0.587,0.071 0.425,-0.228 -0.239,-0.446 -0.477,-0.891 -0.712,-1.341 -0.264,-0.507 -0.530,-1.013 -0.783,-1.527 -0.038,-0.076 -0.094,-0.120 -0.154,-0.138 z" id="path12137" />
<path style="opacity:1;fill:#000000" d="m 12.675,0.152 c -0.120,0 -0.242,0.084 -0.242,0.255 h 0.002 c -0.003,0.338 0.010,0.675 0.031,1.013 0.021,0.341 0.504,0.308 0.482,-0.031 -0.02,-0.327 -0.034,-0.654 -0.031,-0.982 0,-0.170 -0.121,-0.255 -0.242,-0.255 z" id="path12139" />
<path style="opacity:1;fill:#000000" d="m 13.345,0.740 c -0.118,-0.022 -0.251,0.038 -0.285,0.205 -0.094,0.590 -0.106,1.190 -0.068,1.787 0.022,0.341 0.505,0.308 0.482,-0.031 -0.036,-0.555 -0.024,-1.113 0.060,-1.664 0.032,-0.167 -0.070,-0.274 -0.189,-0.296 z" id="path12141" />
<path style="opacity:1;fill:#000000" d="m 13.931,0.904 c -0.119,-0.018 -0.252,0.045 -0.279,0.214 -0.082,0.506 -0.111,1.019 -0.140,1.531 -0.019,0.484 -0.011,0.248 -0.021,0.703 -0.007,0.342 0.475,0.351 0.482,0.009 0.009,-0.442 0.002,-0.213 0.021,-0.687 0.027,-0.494 0.056,-0.991 0.136,-1.482 0.026,-0.168 -0.079,-0.270 -0.199,-0.289 z" id="path12143" />
<path style="opacity:1;fill:#000000" d="m 14.503,0.736 c -0.119,-0.018 -0.251,0.047 -0.277,0.216 l -0.002,-0.001 C 14.111,1.670 14.059,2.398 14.023,3.125 c -0.014,0.339 -0.019,0.678 -0.013,1.019 0.006,0.342 0.489,0.333 0.482,-0.007 -0.006,-0.329 1.82e-4,-0.657 0.013,-0.986 0.035,-0.71 0.086,-1.421 0.197,-2.125 0.025,-0.168 -0.079,-0.271 -0.199,-0.289 z" id="path12145" />
<path style="opacity:1;fill:#000000" d="m 14.966,0.949 c -0.120,-0.011 -0.247,0.062 -0.263,0.232 h -0.002 c -0.048,0.649 -0.067,1.301 -0.087,1.953 -0.008,0.302 -0.006,0.603 0.005,0.906 0.014,0.341 0.5,0.319 0.484,-0.021 -0.012,-0.289 -0.013,-0.580 -0.005,-0.871 0.019,-0.64 0.037,-1.280 0.085,-1.919 0.016,-0.17 -0.096,-0.267 -0.216,-0.279 z" id="path12147" />
<path style="opacity:1;fill:#000000" d="m 15.562,1.640 c -0.120,-0.007 -0.245,0.071 -0.255,0.242 h -0.002 c -0.033,0.603 -0.078,1.205 -0.111,1.808 -0.018,0.341 0.463,0.367 0.482,0.025 0.033,-0.601 0.078,-1.202 0.111,-1.804 C 15.797,1.741 15.683,1.648 15.562,1.640 Z" id="path12149" />
<path style="opacity:1;fill:#000000" d="m 16.275,2.369 c -0.060,-0.014 -0.131,-0.005 -0.203,0.041 -0.369,0.237 -0.745,0.472 -1.076,0.763 -0.240,0.240 0.099,0.580 0.341,0.341 0,0 0.002,0 0.002,0 0.308,-0.262 0.653,-0.480 0.994,-0.699 0.215,-0.138 0.122,-0.402 -0.058,-0.447 z" id="path12151" />
<path style="opacity:1;fill:#000000" d="m 17.076,2.644 c -0.059,-0.019 -0.130,-0.015 -0.205,0.025 -0.068,0.036 -0.135,0.072 -0.203,0.109 -0.408,0.231 -0.811,0.472 -1.205,0.728 -0.283,0.191 -0.012,0.590 0.269,0.398 0.383,-0.248 0.775,-0.482 1.173,-0.707 0.065,-0.035 0.130,-0.069 0.195,-0.105 0.225,-0.121 0.151,-0.390 -0.025,-0.449 z" id="path12153" />
<path style="opacity:1;fill:#000000" d="m 18.216,2.787 c -0.565,0.187 -1.128,0.384 -1.671,0.630 -0.315,0.131 -0.129,0.577 0.185,0.445 0.532,-0.240 1.082,-0.433 1.636,-0.617 0.323,-0.107 0.172,-0.565 -0.150,-0.458 z" id="path12155" />
<path style="fill:#000000" d="m 23.142,19.076 c -0.180,-0.013 -0.371,0.099 -0.390,0.355 l 0.002,0.002 c -0.034,0.288 -0.094,0.573 -0.144,0.859 -0.069,0.401 -0.173,0.794 -0.259,1.193 -0.076,0.408 -0.175,0.812 -0.275,1.216 -0.073,0.313 -0.130,0.630 -0.193,0.945 -0.021,0.117 -0.047,0.234 -0.072,0.351 h 0.740 c 0.014,-0.070 0.029,-0.141 0.042,-0.212 0.06,-0.304 0.114,-0.609 0.185,-0.912 0.101,-0.41 0.202,-0.820 0.279,-1.236 0.087,-0.407 0.195,-0.809 0.265,-1.220 0.054,-0.309 0.119,-0.618 0.152,-0.931 0.019,-0.255 -0.151,-0.396 -0.332,-0.410 z" id="path5773" />
<path style="fill:#000000" d="m 23.871,16.189 c -0.359,-0.057 -0.603,0.444 -0.220,0.679 0.083,0.051 0.170,0.099 0.248,0.158 0.037,0.029 0.066,0.067 0.101,0.099 v -0.886 c -0.043,-0.022 -0.087,-0.044 -0.128,-0.050 z M 24,18.152 c -0.118,0.108 -0.256,0.195 -0.371,0.308 -0.281,0.245 -0.561,0.494 -0.802,0.781 -0.323,0.397 0.240,0.855 0.564,0.457 C 23.574,19.484 23.788,19.296 24,19.109 Z" id="path5775" />
<path style="fill:#000000" d="m 24,12.888 c -0.003,0.020 -0.008,0.041 -0.011,0.062 -0.051,0.383 -0.127,0.761 -0.199,1.140 -0.048,0.281 -0.086,0.564 -0.140,0.845 -0.048,0.246 -0.098,0.490 -0.138,0.738 -0.031,0.205 -0.074,0.408 -0.109,0.613 -0.069,0.406 0.376,0.559 0.599,0.341 z" id="path5779" />
<path style="fill:#000000" d="m 23.345,19.060 c -0.279,-0.017 -0.531,0.317 -0.285,0.613 0.307,0.388 0.623,0.769 0.939,1.152 v -1.146 c -0.127,-0.157 -0.256,-0.312 -0.382,-0.470 -0.082,-0.098 -0.178,-0.142 -0.271,-0.148 z" id="path6179" />
<path style="fill:#000000" d="m 24,14.599 c -0.211,0.052 -0.375,0.287 -0.218,0.552 h -0.002 c 0.071,0.121 0.148,0.240 0.220,0.361 z" id="path6507" />
<path style="fill:#000000" d="m 22.890,22.078 c -0.226,-0.015 -0.464,0.179 -0.373,0.486 0.12,0.434 0.263,0.860 0.408,1.287 0.020,0.059 0.048,0.109 0.082,0.148 h 0.533 c 0.083,-0.088 0.126,-0.219 0.072,-0.380 -0.141,-0.418 -0.282,-0.835 -0.400,-1.261 -0.055,-0.184 -0.186,-0.269 -0.322,-0.279 z" id="path6563" />
<path style="fill:#000000" d="m 23.144,20.443 c -0.226,0.018 -0.430,0.247 -0.292,0.537 C 23.252,21.890 23.622,22.813 24,23.734 v -1.882 c -0.164,-0.394 -0.319,-0.791 -0.492,-1.181 -0.082,-0.173 -0.227,-0.237 -0.363,-0.226 z" id="path6565" />
<path style="fill:#000000" d="m 23.929,20.343 c -0.222,0.042 -0.401,0.293 -0.234,0.566 0.112,0.189 0.205,0.391 0.304,0.587 v -1.152 c -0.023,-2e-4 -0.047,-0.006 -0.070,-0.002 z" id="path6567" />
<path style="fill:#000000" d="M 22.576,23.705 C 22.405,23.704 22.258,23.835 22.224,24 h 0.761 c -0.045,-0.052 -0.084,-0.110 -0.130,-0.162 -0.087,-0.093 -0.185,-0.132 -0.279,-0.132 z" id="path6647" />
<path style="fill:#000000" d="m 23.511,23.300 c -0.179,0.027 -0.337,0.182 -0.298,0.435 0.011,0.087 0.017,0.175 0.027,0.263 h 0.726 c -0.013,-0.124 -0.020,-0.249 -0.037,-0.373 -0.039,-0.253 -0.238,-0.353 -0.417,-0.326 z" id="path6649" />
<path style="fill:#000000" d="m 2.316,14.019 c -0.237,0.005 -0.476,0.035 -0.697,0.128 -0.308,0.147 -0.598,0.331 -0.914,0.462 C 0.475,14.698 0.238,14.762 0,14.818 v 0.496 c 0.297,-0.064 0.590,-0.145 0.876,-0.251 0.330,-0.13 0.628,-0.326 0.949,-0.476 0.159,-0.06 0.33,-0.081 0.5,-0.083 0.342,-0.006 0.331,-0.489 -0.009,-0.482 z" id="path7107" />
<path style="fill:#000000" d="m 1.464,14.310 c -0.342,10e-4 -0.339,0.484 0.001,0.482 0.432,-0.011 0.863,0.011 1.294,0.031 0.341,0.015 0.363,-0.466 0.021,-0.482 -0.439,-0.02 -0.877,-0.043 -1.318,-0.031 z" id="path7109" />
<path style="fill:#000000" d="m 2.427,14.091 c -0.337,-0.049 -0.407,0.424 -0.072,0.476 h 0.001 c 0.701,0.126 1.406,0.233 2.117,0.292 0.461,0.031 0.919,0.002 1.380,-0.029 0.340,-0.025 0.304,-0.507 -0.035,-0.482 -0.434,0.032 -0.868,0.059 -1.304,0.031 -0.701,-0.058 -1.395,-0.164 -2.087,-0.289 z" id="path7111" />
<path style="fill:#000000" d="m 8.271,14.048 c -0.337,0.063 -0.678,0.141 -1.023,0.138 -0.341,-0.02 -0.371,0.461 -0.029,0.482 l -0.001,0.002 c 0.385,0.009 0.765,-0.077 1.142,-0.148 0.336,-0.063 0.247,-0.538 -0.087,-0.474 z" id="path7113" />
<path style="fill:#000000" d="m 8.830,13.917 c -0.341,0.022 -0.308,0.503 0.031,0.480 h 0.001 c 0.46,-0.03 0.904,0.081 1.343,0.201 0.33,0.089 0.457,-0.377 0.126,-0.466 C 9.842,13.999 9.344,13.882 8.830,13.917 Z" id="path7115" />
<path style="fill:#000000" d="m 15.867,13.740 c -0.127,0.017 -0.252,0.046 -0.380,0.056 -0.3,0.033 -0.594,0.104 -0.890,0.166 -0.822,0.165 -1.653,0.296 -2.494,0.306 -0.742,-10e-4 -1.482,-0.035 -2.222,-0.093 -0.339,-0.013 -0.360,0.462 -0.021,0.480 0.745,0.058 1.493,0.094 2.242,0.095 0.873,-0.009 1.737,-0.144 2.591,-0.316 0.282,-0.057 0.560,-0.128 0.847,-0.160 0.132,-0.009 0.261,-0.039 0.392,-0.056 0.295,-0.036 0.586,0.023 0.873,0.089 0.332,0.075 0.438,-0.394 0.105,-0.470 -0.343,-0.077 -0.689,-0.143 -1.042,-0.097 z" id="path7119" />
<path style="fill:#000000" d="m 16.636,13.695 c -0.335,-0.060 -0.424,0.413 -0.089,0.476 h 0.002 c 0.473,0.085 0.938,0.206 1.406,0.320 0.859,0.200 1.710,0.219 2.580,0.097 0.447,-0.074 0.872,-0.231 1.291,-0.400 0.317,-0.128 0.136,-0.575 -0.179,-0.447 -0.381,0.153 -0.769,0.297 -1.177,0.367 -0.801,0.114 -1.604,0.099 -2.396,-0.085 -0.477,-0.116 -0.952,-0.240 -1.435,-0.328 z" id="path7121" />
<path style="fill:#000000" d="m 23.490,13.652 c -0.303,0.015 -0.607,0.007 -0.910,0.003 -0.476,0.013 -0.950,0.047 -1.423,0.111 -0.339,0.038 -0.284,0.517 0.054,0.478 0.457,-0.061 0.919,-0.095 1.382,-0.107 0.307,0.006 0.612,0.012 0.919,-0.002 0.341,-0.016 0.317,-0.501 -0.023,-0.484 z" id="path7123" />
<path style="fill:#000000" d="m 23.439,13.687 c -0.359,0.046 -0.717,0.096 -1.080,0.101 -0.342,-0.005 -0.349,0.479 -0.007,0.484 0.386,-0.003 0.768,-0.058 1.150,-0.107 0.339,-0.043 0.275,-0.522 -0.062,-0.478 z" id="path7125" />
<path style="fill:#000000" d="M 0,5.878 V 5.982 C 0.011,5.946 0.010,5.914 0,5.878 Z" id="path7157" />
<path style="fill:#000000" d="m 0,5.966 v 0.353 c 0.001,-1.692e-4 0.003,1.687e-4 0.005,0 C 0.249,6.299 0.225,5.975 0,5.966 Z" id="path7161" />
<path style="fill:#000000" d="M 1.919,5.917 C 1.783,5.947 1.706,6.143 1.865,6.251 L 1.867,6.25 c 0.707,0.44 1.478,0.772 2.234,1.119 0.181,0.081 0.361,0.162 0.542,0.244 0.233,0.105 0.382,-0.225 0.148,-0.330 -0.180,-0.081 -0.360,-0.162 -0.541,-0.244 -0.737,-0.338 -1.489,-0.661 -2.181,-1.087 -0.052,-0.036 -0.104,-0.043 -0.150,-0.033 z" id="path7163" />
<path style="fill:#000000" d="m 6.230,8.130 c -0.137,0.025 -0.217,0.218 -0.062,0.332 0.408,0.315 0.827,0.611 1.259,0.894 0.368,0.23 0.189,0.119 0.541,0.332 0.219,0.132 0.405,-0.175 0.185,-0.308 -0.345,-0.208 -0.166,-0.101 -0.527,-0.326 -0.426,-0.279 -0.842,-0.573 -1.246,-0.884 -0.051,-0.037 -0.104,-0.047 -0.150,-0.039 z" id="path7165" />
<path style="fill:#000000" d="M 8.207,9.587 C 8.074,9.634 8.025,9.838 8.197,9.925 8.779,10.147 9.413,10.202 10.031,10.25 c 0.573,0.011 0.288,0.011 0.859,-0.003 0.256,-0.006 0.245,-0.368 -0.009,-0.361 -0.547,0.015 -0.272,0.013 -0.820,0.003 -0.571,-0.043 -1.155,-0.093 -1.699,-0.285 -0.057,-0.029 -0.110,-0.031 -0.154,-0.015 z" id="path7167" />
<path style="fill:#000000" d="m 16.585,9.105 c -0.869,0.257 -1.763,0.423 -2.666,0.507 -0.692,0.075 -1.385,0.162 -2.080,0.197 -0.255,7.617e-4 -0.251,0.362 0.002,0.363 0.707,-0.033 1.410,-0.122 2.115,-0.199 0.925,-0.086 1.839,-0.258 2.730,-0.521 0.246,-0.072 0.143,-0.420 -0.101,-0.347 z" id="path7169" />
<path style="fill:#000000" d="m 18.212,8.001 c -0.046,-0.003 -0.098,0.009 -0.146,0.052 -0.295,0.264 -0.588,0.533 -0.859,0.824 -0.175,0.186 0.087,0.435 0.263,0.248 h 0.002 c 0.263,-0.283 0.547,-0.543 0.835,-0.802 0.143,-0.128 0.043,-0.310 -0.095,-0.322 z" id="path7171" />
<path style="fill:#000000" d="m 21.695,6.246 c -0.653,0.239 -0.316,0.117 -1.011,0.369 -0.85,0.299 -1.702,0.595 -2.568,0.847 -0.248,0.063 -0.159,0.415 0.087,0.351 h 0.002 c 0.876,-0.253 1.738,-0.554 2.599,-0.857 0.697,-0.253 0.358,-0.127 1.015,-0.369 0.24,-0.088 0.115,-0.430 -0.125,-0.341 z" id="path7173" />
<path style="fill:#000000" d="m 24,3.957 c -0.310,0.253 -0.617,0.511 -0.933,0.757 -0.329,0.254 -0.655,0.511 -0.980,0.771 -0.200,0.16 0.024,0.443 0.224,0.283 C 22.634,5.510 22.959,5.253 23.287,5 23.528,4.812 23.761,4.613 24,4.421 Z" id="path7175" />
<path style="fill:#000000" d="m 2.880,5.273 c -0.061,0.011 -0.121,0.047 -0.167,0.119 -0.151,0.229 -0.251,0.484 -0.341,0.742 -0.111,0.323 0.345,0.481 0.457,0.158 C 2.903,6.071 2.988,5.853 3.117,5.656 3.256,5.441 3.064,5.240 2.880,5.273 Z" id="path7205" />
<path style="fill:#000000" d="m 3.462,5.458 c -0.058,0.021 -0.109,0.069 -0.142,0.148 -0.123,0.279 -0.243,0.559 -0.351,0.845 -0.12,0.32 0.332,0.489 0.453,0.169 0.105,-0.28 0.222,-0.555 0.343,-0.830 0.098,-0.236 -0.128,-0.399 -0.302,-0.333 z" id="path7207" />
<path style="fill:#000000" d="m 4.220,5.441 c -0.059,0.016 -0.116,0.059 -0.156,0.134 -0.235,0.445 -0.451,0.900 -0.626,1.373 -0.016,0.053 -0.030,0.106 -0.046,0.160 -0.097,0.328 0.365,0.464 0.462,0.136 0.012,-0.043 0.024,-0.086 0.037,-0.130 0.166,-0.453 0.376,-0.887 0.601,-1.314 0.118,-0.227 -0.091,-0.409 -0.271,-0.359 z" id="path7209" />
<path style="fill:#000000" d="m 4.824,5.529 c -0.057,0.023 -0.108,0.072 -0.138,0.152 -0.2,0.466 -0.407,0.928 -0.593,1.400 -0.026,0.077 -0.051,0.156 -0.078,0.234 -0.109,0.324 0.348,0.478 0.457,0.154 0.023,-0.07 0.047,-0.140 0.070,-0.210 0.186,-0.474 0.395,-0.938 0.595,-1.406 0.090,-0.239 -0.139,-0.395 -0.312,-0.324 z" id="path7211" />
<path style="fill:#000000" d="m 5.544,5.609 c -0.058,0.022 -0.109,0.071 -0.142,0.150 -0.219,0.52 -0.432,1.040 -0.630,1.568 -0.102,0.297 -0.056,0.158 -0.136,0.417 -0.099,0.326 0.363,0.468 0.462,0.140 0.072,-0.238 0.029,-0.108 0.126,-0.388 0.195,-0.523 0.408,-1.039 0.625,-1.554 0.097,-0.237 -0.130,-0.400 -0.304,-0.333 z" id="path7213" />
<path style="fill:#000000" d="m 6.402,5.386 c -0.061,0.011 -0.120,0.048 -0.166,0.121 -0.315,0.566 -0.538,1.178 -0.757,1.787 -0.138,0.42 -0.076,0.220 -0.191,0.595 C 5.188,8.217 5.65,8.358 5.75,8.031 5.86,7.671 5.799,7.862 5.933,7.457 6.139,6.882 6.350,6.303 6.644,5.765 6.781,5.548 6.585,5.350 6.402,5.386 Z" id="path7215" />
<path style="fill:#000000" d="M 7.027,5.263 C 6.909,5.238 6.772,5.300 6.736,5.466 6.562,6.009 6.354,6.539 6.171,7.080 6.061,7.408 5.965,7.740 5.875,8.074 5.786,8.404 6.251,8.531 6.341,8.201 c 0.087,-0.324 0.181,-0.646 0.289,-0.964 0.189,-0.558 0.408,-1.107 0.580,-1.671 0.035,-0.167 -0.065,-0.275 -0.183,-0.300 z" id="path7217" />
<path style="fill:#000000" d="m 7.666,5.078 c -0.119,-0.020 -0.252,0.042 -0.281,0.210 v 0.001 c -0.168,0.76 -0.375,1.511 -0.566,2.265 C 6.709,8.031 6.561,8.499 6.5,8.984 c -0.041,0.339 0.438,0.398 0.480,0.058 0.053,-0.465 0.208,-0.912 0.306,-1.369 0.194,-0.766 0.406,-1.529 0.574,-2.302 0.029,-0.168 -0.076,-0.272 -0.195,-0.292 z" id="path7219" />
<path style="fill:#000000" d="m 8.460,5.089 c -0.114,-0.040 -0.255,0.001 -0.312,0.162 -0.248,0.781 -0.452,1.574 -0.656,2.367 -0.141,0.55 -0.271,1.104 -0.361,1.666 -0.054,0.337 0.422,0.414 0.476,0.076 0.087,-0.547 0.215,-1.084 0.353,-1.621 0.2,-0.78 0.399,-1.560 0.642,-2.328 0.057,-0.161 -0.028,-0.282 -0.142,-0.322 z" id="path7221" />
<path style="fill:#000000" d="M 8.976,5.044 C 8.917,5.064 8.862,5.11 8.826,5.187 8.509,5.988 8.323,6.837 8.117,7.673 c -0.139,0.655 -0.334,1.302 -0.421,1.968 -0.043,0.339 0.435,0.399 0.478,0.060 0.079,-0.647 0.283,-1.276 0.414,-1.914 0.198,-0.806 0.376,-1.622 0.677,-2.398 0.108,-0.232 -0.111,-0.404 -0.289,-0.345 z" id="path7223" />
<path style="fill:#000000" d="M 9.718,4.763 C 9.601,4.735 9.464,4.790 9.425,4.957 v 0.001 c -0.179,0.686 -0.359,1.371 -0.535,2.058 -0.259,1.032 -0.491,2.070 -0.695,3.115 -0.065,0.335 0.409,0.427 0.474,0.091 0.202,-1.034 0.430,-2.064 0.687,-3.087 0.176,-0.689 0.358,-1.379 0.537,-2.068 0.039,-0.166 -0.058,-0.276 -0.175,-0.304 z" id="path7225" />
<path style="fill:#000000" d="m 9.394,6.585 c -0.120,-0.010 -0.246,0.063 -0.261,0.234 -0.04,0.759 -0.065,1.519 -0.109,2.279 -0.008,0.13 -0.018,0.260 -0.027,0.390 -0.023,0.341 0.459,0.374 0.482,0.033 0.008,-0.132 0.018,-0.264 0.027,-0.396 0.043,-0.754 0.067,-1.510 0.107,-2.265 0.015,-0.17 -0.098,-0.264 -0.218,-0.275 z" id="path7227" />
<path style="fill:#000000" d="M 10.187,4.720 C 10.067,4.709 9.939,4.782 9.923,4.953 c -0.049,0.845 -0.098,1.690 -0.150,2.535 -0.059,0.961 -0.104,1.923 -0.113,2.886 -0.003,0.342 0.481,0.345 0.484,0.003 0.008,-0.953 0.052,-1.907 0.111,-2.859 0.051,-0.84 0.099,-1.682 0.148,-2.523 0.015,-0.170 -0.096,-0.264 -0.216,-0.275 z" id="path7229" />
<path style="fill:#000000" d="m 10.865,4.902 c -0.119,-0.017 -0.250,0.049 -0.275,0.218 -0.066,0.662 -0.110,1.329 -0.160,1.994 -0.08,1.064 -0.153,2.129 -0.208,3.195 -0.017,0.341 0.464,0.367 0.482,0.025 0.054,-1.062 0.128,-2.123 0.208,-3.183 0.049,-0.653 0.092,-1.307 0.156,-1.960 0.024,-0.168 -0.083,-0.271 -0.203,-0.289 z" id="path7231" />
<path style="fill:#000000" d="m 11.335,4.648 c -0.120,0 -0.240,0.084 -0.240,0.255 v 0.001 c 2.44e-4,0.687 -0.032,1.374 -0.068,2.060 -0.051,0.829 -0.114,1.657 -0.175,2.486 -0.025,0.341 0.455,0.376 0.480,0.035 0.061,-0.831 0.126,-1.663 0.177,-2.496 0.037,-0.695 0.068,-1.391 0.068,-2.087 0,-0.171 -0.121,-0.255 -0.242,-0.255 z" id="path7233" />
<path style="fill:#000000" d="m 12.089,4.138 c -0.120,-0.008 -0.246,0.069 -0.257,0.240 -0.047,0.766 -0.093,1.531 -0.144,2.296 -0.075,1.168 -0.156,2.335 -0.205,3.505 -0.014,0.341 0.468,0.360 0.482,0.019 0.048,-1.166 0.130,-2.329 0.205,-3.494 0.05,-0.765 0.096,-1.530 0.144,-2.296 0.011,-0.170 -0.104,-0.263 -0.224,-0.271 z" id="path7235" />
<path style="fill:#000000" d="m 12.675,4.287 c -0.120,0.002 -0.239,0.091 -0.236,0.261 h -0.002 c -1.07e-4,0.761 -0.053,1.521 -0.099,2.281 -0.068,1.045 -0.164,2.089 -0.240,3.134 -0.024,0.341 0.457,0.374 0.482,0.033 0.076,-1.046 0.171,-2.091 0.240,-3.138 0.046,-0.772 0.102,-1.546 0.101,-2.320 -0.003,-0.171 -0.125,-0.254 -0.246,-0.251 z" id="path7237" />
<path style="fill:#000000" d="m 13.396,3.939 c -0.120,-0.007 -0.246,0.069 -0.257,0.240 -0.032,0.953 -0.116,1.903 -0.203,2.853 -0.1,1.024 -0.208,2.047 -0.251,3.076 -0.014,0.341 0.468,0.363 0.482,0.021 0.042,-1.020 0.151,-2.038 0.251,-3.054 0.087,-0.954 0.171,-1.907 0.203,-2.865 0.011,-0.170 -0.104,-0.263 -0.224,-0.271 z" id="path7239" />
<path style="fill:#000000" d="m 13.998,3.871 c -0.120,-0.002 -0.242,0.080 -0.246,0.251 h 0.002 c -0.024,0.743 -0.091,1.485 -0.150,2.226 -0.095,1.174 -0.178,2.348 -0.267,3.523 -0.026,0.397 -0.019,0.217 -0.027,0.535 -0.008,0.342 0.476,0.353 0.484,0.011 0.006,-0.296 -4.27e-4,-0.124 0.025,-0.511 0.088,-1.174 0.170,-2.347 0.265,-3.521 0.059,-0.75 0.125,-1.500 0.150,-2.253 0.003,-0.171 -0.115,-0.259 -0.236,-0.261 z" id="path7241" />
<path style="fill:#000000" d="m 14.796,3.714 c -0.119,-0.017 -0.250,0.049 -0.275,0.218 h -0.002 c -0.059,0.671 -0.099,1.345 -0.154,2.017 -0.104,1.286 -0.259,2.570 -0.322,3.859 -0.016,0.341 0.465,0.363 0.482,0.021 0.062,-1.284 0.219,-2.560 0.322,-3.841 0.054,-0.662 0.093,-1.324 0.150,-1.986 0.024,-0.169 -0.081,-0.271 -0.201,-0.289 z" id="path7243" />
<path style="fill:#000000" d="M 15.384,3.515 C 15.265,3.499 15.133,3.566 15.109,3.736 h 0.002 c -0.109,0.814 -0.137,1.637 -0.185,2.457 -0.067,1.257 -0.150,2.513 -0.208,3.771 -0.015,0.341 0.466,0.362 0.482,0.021 0.057,-1.255 0.141,-2.508 0.208,-3.763 0.046,-0.807 0.074,-1.617 0.181,-2.419 0.023,-0.169 -0.085,-0.270 -0.205,-0.287 z" id="path7245" />
<path style="fill:#000000" d="m 15.923,3.578 c -0.120,-0.007 -0.245,0.069 -0.255,0.240 v 0.001 c -0.067,0.999 -0.130,2 -0.187,3 -0.054,0.976 -0.106,1.951 -0.164,2.927 -0.02,0.341 0.462,0.369 0.482,0.027 0.058,-0.976 0.109,-1.950 0.164,-2.927 0.057,-0.998 0.118,-1.999 0.185,-2.998 0.010,-0.170 -0.104,-0.263 -0.224,-0.271 z" id="path7247" />
<path style="fill:#000000" d="m 16.671,3.201 c -0.117,-0.027 -0.253,0.028 -0.292,0.195 l -0.002,-0.001 c -0.105,0.507 -0.119,1.028 -0.148,1.544 -0.068,1.266 -0.148,2.529 -0.218,3.796 -0.007,0.15 -0.013,0.301 -0.021,0.451 -0.017,0.341 0.465,0.364 0.482,0.023 0.007,-0.149 0.013,-0.298 0.021,-0.447 0.07,-1.265 0.152,-2.528 0.220,-3.794 0.028,-0.488 0.039,-0.981 0.136,-1.462 0.038,-0.166 -0.060,-0.277 -0.177,-0.304 z" id="path7253" />
<path style="fill:#000000" d="m 17.205,3.125 c -0.120,-0.003 -0.243,0.079 -0.248,0.25 h -0.002 c -0.028,0.786 -0.112,1.569 -0.183,2.353 -0.1,1.08 -0.179,2.161 -0.259,3.242 -0.025,0.341 0.455,0.376 0.480,0.035 0.079,-1.079 0.161,-2.157 0.261,-3.234 0.072,-0.793 0.157,-1.586 0.185,-2.382 0.005,-0.170 -0.113,-0.260 -0.234,-0.263 z" id="path7255" />
<path style="fill:#000000" d="m 17.658,3.150 c -0.120,-0.002 -0.243,0.080 -0.246,0.251 v 0.001 c -0.039,0.737 -0.082,1.473 -0.123,2.210 -0.062,1.098 -0.122,2.195 -0.197,3.292 -0.023,0.341 0.457,0.375 0.480,0.033 0.075,-1.099 0.138,-2.199 0.201,-3.300 0.041,-0.743 0.084,-1.487 0.123,-2.230 0.003,-0.170 -0.117,-0.257 -0.238,-0.259 z" id="path7257" />
<path style="fill:#000000" d="m 18.197,2.740 c -0.120,0.005 -0.237,0.095 -0.230,0.265 v 0.001 c 0.014,1.041 -0.053,2.082 -0.111,3.121 -0.034,0.578 -0.065,1.155 -0.093,1.734 -0.016,0.341 0.466,0.364 0.482,0.023 0.027,-0.577 0.058,-1.155 0.093,-1.732 0.058,-1.055 0.126,-2.111 0.111,-3.169 -0.007,-0.170 -0.131,-0.249 -0.251,-0.244 z" id="path7259" />
<path style="fill:#000000" d="m 18.937,2.576 c -0.119,-0.013 -0.250,0.056 -0.269,0.226 -0.07,0.803 -0.120,1.607 -0.175,2.412 -0.05,0.725 -0.092,1.452 -0.126,2.179 -0.016,0.341 0.466,0.365 0.482,0.023 0.033,-0.723 0.075,-1.448 0.126,-2.171 0.054,-0.796 0.104,-1.593 0.173,-2.388 0.019,-0.169 -0.091,-0.267 -0.210,-0.281 z" id="path7261" />
<path style="fill:#000000" d="m 19.576,2.605 c -0.119,-0.008 -0.246,0.070 -0.259,0.240 -0.076,0.945 -0.140,1.892 -0.199,2.839 -0.038,0.782 -0.021,0.408 -0.048,1.117 -0.012,0.341 0.471,0.359 0.484,0.017 0.026,-0.701 0.009,-0.330 0.048,-1.105 0.058,-0.946 0.120,-1.891 0.197,-2.835 0.011,-0.170 -0.102,-0.265 -0.222,-0.273 z" id="path7263" />
<path style="fill:#000000" d="m 20.169,2.335 c -0.120,-0.002 -0.242,0.080 -0.246,0.251 -0.035,0.882 -0.095,1.762 -0.142,2.644 -0.038,0.81 -0.022,0.417 -0.050,1.177 -0.012,0.341 0.471,0.359 0.484,0.017 0.027,-0.754 0.009,-0.363 0.048,-1.169 0.047,-0.886 0.106,-1.773 0.142,-2.660 0.003,-0.170 -0.115,-0.259 -0.236,-0.261 z" id="path7265" />
<path style="fill:#000000" d="m 21.101,1.849 c -0.116,-0.032 -0.256,0.017 -0.302,0.181 -0.206,0.812 -0.368,1.637 -0.539,2.457 -0.149,0.711 -0.274,1.426 -0.382,2.144 -0.05,0.338 0.425,0.408 0.476,0.070 0.105,-0.709 0.230,-1.415 0.378,-2.117 0.168,-0.81 0.329,-1.622 0.533,-2.425 0.045,-0.164 -0.047,-0.278 -0.164,-0.310 z" id="path7267" />
<path style="fill:#000000" d="m 21.765,1.878 c -0.115,-0.032 -0.254,0.020 -0.300,0.183 -0.210,0.790 -0.395,1.588 -0.576,2.386 -0.163,0.731 -0.309,1.467 -0.429,2.208 -0.054,0.337 0.421,0.414 0.476,0.076 0.118,-0.73 0.263,-1.455 0.423,-2.177 0.179,-0.791 0.361,-1.581 0.570,-2.365 0.046,-0.164 -0.047,-0.279 -0.164,-0.312 z" id="path7269" />
<path style="fill:#000000" d="m 22.236,2.111 c -0.118,-0.020 -0.252,0.043 -0.281,0.212 -0.122,0.680 -0.260,1.359 -0.398,2.037 -0.159,0.793 -0.083,0.406 -0.228,1.162 -0.064,0.336 0.410,0.425 0.474,0.089 0.143,-0.75 0.067,-0.366 0.226,-1.156 0.138,-0.682 0.279,-1.365 0.402,-2.052 0.028,-0.168 -0.076,-0.272 -0.195,-0.292 z" id="path7271" />
<path style="fill:#000000" d="m 22.820,2.263 c -0.117,-0.029 -0.254,0.021 -0.296,0.187 -0.191,0.759 -0.362,1.524 -0.525,2.289 -0.136,0.657 -0.258,1.316 -0.367,1.978 -0.055,0.337 0.420,0.416 0.476,0.078 0.108,-0.654 0.231,-1.307 0.365,-1.957 0.161,-0.759 0.329,-1.516 0.519,-2.269 0.042,-0.165 -0.054,-0.276 -0.171,-0.306 z" id="path7273" />
<path style="fill:#000000" d="m 23.449,2.341 c -0.118,-0.025 -0.255,0.033 -0.291,0.201 -0.166,0.723 -0.308,1.451 -0.439,2.183 -0.017,0.106 -0.033,0.213 -0.050,0.320 -0.055,0.337 0.421,0.415 0.476,0.078 0.017,-0.104 0.033,-0.208 0.050,-0.312 0.13,-0.726 0.272,-1.450 0.437,-2.169 0.035,-0.167 -0.065,-0.275 -0.183,-0.300 z" id="path7275" />
<path style="fill:#000000" d="m 24,2.662 c -0.039,0.031 -0.078,0.064 -0.095,0.128 h -0.002 c -0.11,0.43 -0.215,0.861 -0.316,1.294 C 23.517,4.378 23.859,4.478 24,4.277 Z" id="path7277" />
<path style="fill:#000000" d="M 21.363,5.857 C 21.244,5.833 21.109,5.894 21.076,6.062 c -0.044,0.242 -0.019,0.113 -0.068,0.386 -0.06,0.335 0.413,0.420 0.474,0.083 0.048,-0.268 0.025,-0.141 0.068,-0.376 0.033,-0.167 -0.069,-0.275 -0.187,-0.298 z" id="path7281" />
<path style="fill:#000000" d="M 0.070,10.521 C 0.025,10.535 0.027,10.536 0,10.544 v 0.253 c 0.032,-0.010 0.051,-0.017 0.144,-0.046 0.163,-0.051 0.087,-0.282 -0.074,-0.230 z" id="path7507" />
<path style="fill:#000000" d="m 0.416,10.285 c -0.161,-0.052 -0.237,0.177 -0.074,0.230 0.226,0.112 0.423,0.279 0.619,0.437 0.132,0.107 0.283,-0.080 0.150,-0.187 -0.218,-0.176 -0.436,-0.364 -0.695,-0.480 z" id="path7509" />
<path style="fill:#000000" d="m 1.380,11.156 c -0.058,0.016 -0.103,0.072 -0.080,0.154 0.088,0.308 0.163,0.618 0.234,0.931 0.037,0.165 0.272,0.113 0.234,-0.052 -0.071,-0.316 -0.148,-0.631 -0.238,-0.943 -0.023,-0.082 -0.092,-0.106 -0.150,-0.089 z" id="path7511" />
<path style="fill:#000000" d="m 1.726,12.275 c -0.060,8.75e-4 -0.120,0.043 -0.119,0.128 0.028,0.498 0.113,0.991 0.210,1.480 0.016,0.075 0.032,0.150 0.048,0.226 0.036,0.167 0.272,0.115 0.236,-0.050 -0.016,-0.074 -0.030,-0.148 -0.046,-0.222 -0.094,-0.474 -0.178,-0.953 -0.208,-1.437 -0.001,-0.085 -0.060,-0.125 -0.121,-0.125 z" id="path7513" />
<path style="fill:#000000" d="m 2.855,9.943 c -0.030,-0.004 -0.064,0.002 -0.097,0.029 v 0.001 c -0.257,0.222 -0.459,0.497 -0.644,0.781 -0.093,0.143 0.110,0.274 0.203,0.130 0.170,-0.262 0.353,-0.516 0.589,-0.724 0.099,-0.079 0.041,-0.205 -0.050,-0.218 z" id="path7555" />
<path style="fill:#000000" d="m 2.054,11.240 c -0.059,0.011 -0.111,0.062 -0.095,0.146 h -0.001 c 0.053,0.272 0.129,0.538 0.207,0.804 0.047,0.164 0.280,0.096 0.232,-0.066 -0.075,-0.258 -0.149,-0.517 -0.201,-0.781 -0.015,-0.084 -0.081,-0.114 -0.140,-0.103 z" id="path7557" />
<path style="fill:#000000" d="m 2.5,12.855 c -0.06,0.007 -0.115,0.056 -0.105,0.140 0.049,0.362 0.094,0.723 0.148,1.085 0.025,0.169 0.263,0.132 0.238,-0.035 -0.053,-0.359 -0.097,-0.718 -0.146,-1.078 C 2.624,12.884 2.56,12.848 2.5,12.855 Z" id="path7559" />
<path style="fill:#000000" d="m 2.806,9.851 c -0.169,-0.021 -0.200,0.218 -0.031,0.240 h 0.001 c 0.429,0.037 0.841,0.157 1.251,0.281 0.097,0.028 0.194,0.055 0.291,0.083 0.164,0.047 0.231,-0.183 0.066,-0.230 -0.096,-0.027 -0.193,-0.055 -0.289,-0.083 -0.423,-0.127 -0.849,-0.252 -1.291,-0.291 z" id="path7561" />
<path style="fill:#000000" d="m 6.619,9.773 c -0.115,0.041 -0.228,0.083 -0.343,0.125 -0.536,0.194 -1.072,0.394 -1.619,0.556 -0.165,0.043 -0.101,0.276 0.062,0.232 0.554,-0.163 1.095,-0.368 1.638,-0.564 0.114,-0.041 0.228,-0.080 0.343,-0.121 0.16,-0.057 0.077,-0.286 -0.082,-0.228 z" id="path7563" />
<path style="fill:#000000" d="M 6.832,9.447 C 6.663,9.426 6.632,9.665 6.802,9.687 c 0.351,0.146 0.657,0.389 0.998,0.564 l 0.257,0.113 c 0.156,0.069 0.253,-0.150 0.097,-0.220 L 7.910,10.035 C 7.655,9.905 7.684,9.928 7.449,9.777 7.254,9.651 7.067,9.493 6.832,9.447 Z" id="path7565" />
<path style="fill:#000000" d="m 8.210,9.949 c -0.059,0.011 -0.110,0.064 -0.093,0.148 0.059,0.335 0.131,0.668 0.212,0.998 0.04,0.166 0.275,0.106 0.234,-0.058 -0.08,-0.327 -0.151,-0.654 -0.210,-0.986 -0.016,-0.083 -0.083,-0.113 -0.142,-0.101 z" id="path7567" />
<path style="fill:#000000" d="M 8.625,11.912 C 8.566,11.925 8.517,11.98 8.537,12.062 l -0.001,0.002 c 0.108,0.47 0.152,0.950 0.203,1.429 0.039,0.37 0.018,0.192 0.062,0.537 0.021,0.169 0.259,0.139 0.238,-0.029 -0.042,-0.341 -0.021,-0.164 -0.060,-0.533 -0.052,-0.488 -0.096,-0.980 -0.207,-1.460 -0.019,-0.083 -0.087,-0.109 -0.146,-0.095 z" id="path7569" />
<path style="fill:#000000" d="m 8.759,10.013 c -0.059,0.008 -0.115,0.058 -0.103,0.142 0.043,0.339 0.132,0.670 0.228,0.998 0.048,0.164 0.278,0.096 0.230,-0.066 -0.092,-0.316 -0.176,-0.636 -0.218,-0.964 -0.011,-0.084 -0.076,-0.117 -0.136,-0.109 z" id="path7571" />
<path style="fill:#000000" d="m 9.156,11.765 c -0.058,0.013 -0.106,0.069 -0.087,0.152 0.102,0.51 0.164,1.027 0.248,1.541 0.071,0.371 0.033,0.192 0.107,0.531 0.036,0.167 0.272,0.115 0.236,-0.050 -0.072,-0.329 -0.035,-0.154 -0.105,-0.517 -0.085,-0.518 -0.147,-1.042 -0.251,-1.558 -0.019,-0.083 -0.087,-0.111 -0.146,-0.097 z" id="path7573" />
<path style="fill:#000000" d="m 9.550,9.917 c -0.031,0.001 -0.061,0.014 -0.089,0.046 v 0.001 c -0.175,0.200 -0.316,0.425 -0.458,0.648 -0.091,0.144 0.111,0.273 0.203,0.128 0.135,-0.213 0.270,-0.430 0.437,-0.621 0.083,-0.096 0.001,-0.209 -0.091,-0.205 z" id="path7575" />
<path style="fill:#000000" d="m 11.587,9.812 c -0.091,0.017 -0.146,0.144 -0.042,0.220 0.3,0.216 0.635,0.376 0.970,0.529 0.155,0.071 0.255,-0.147 0.099,-0.218 -0.32,-0.146 -0.639,-0.296 -0.927,-0.503 -0.034,-0.025 -0.069,-0.033 -0.099,-0.027 z" id="path7577" />
<path style="fill:#000000" d="m 13.357,9.880 c -0.030,-0.005 -0.065,0.001 -0.099,0.025 -0.144,0.098 -0.270,0.219 -0.392,0.345 -0.117,0.123 0.055,0.290 0.173,0.166 0.11,-0.117 0.228,-0.224 0.361,-0.316 0.102,-0.075 0.048,-0.203 -0.042,-0.220 z" id="path7579" />
<path style="fill:#000000" d="m 15.488,9.343 c -0.093,-0.005 -0.177,0.106 -0.093,0.205 0.088,0.108 0.176,0.218 0.263,0.328 0.106,0.132 0.295,-0.016 0.189,-0.150 -0.088,-0.111 -0.178,-0.222 -0.269,-0.333 -0.027,-0.032 -0.058,-0.047 -0.089,-0.048 z" id="path7581" />
<path style="fill:#000000" d="m 15.978,9.894 c -0.056,0.021 -0.097,0.082 -0.066,0.162 0.144,0.421 0.233,0.857 0.324,1.292 0.014,0.071 0.027,0.141 0.042,0.212 0.034,0.167 0.271,0.117 0.236,-0.048 -0.014,-0.071 -0.027,-0.140 -0.042,-0.212 -0.093,-0.447 -0.185,-0.897 -0.335,-1.330 -0.030,-0.079 -0.101,-0.097 -0.158,-0.076 z" id="path7583" />
<path style="fill:#000000" d="m 16.365,11.732 c -0.059,0.008 -0.113,0.056 -0.101,0.140 0.047,0.427 0.130,0.849 0.232,1.267 0.082,0.293 0.039,0.153 0.126,0.417 0.053,0.162 0.282,0.087 0.228,-0.074 -0.082,-0.251 -0.041,-0.118 -0.121,-0.400 -0.1,-0.409 -0.182,-0.822 -0.228,-1.242 -0.011,-0.084 -0.076,-0.117 -0.136,-0.109 z" id="path7585" />
<path style="fill:#000000" d="m 16.912,9.048 c -0.059,-0.010 -0.125,0.022 -0.140,0.105 -0.071,0.378 -0.089,0.764 -0.089,1.148 -2.44e-4,0.171 0.242,0.170 0.242,0 4.89e-4,-0.370 0.015,-0.741 0.085,-1.107 0.014,-0.084 -0.038,-0.136 -0.097,-0.146 z" id="path7587" />
<path style="fill:#000000" d="m 16.947,10.724 c -0.059,0.011 -0.111,0.064 -0.095,0.148 0.078,0.431 0.165,0.861 0.251,1.291 0.011,0.058 0.023,0.117 0.035,0.175 0.034,0.167 0.270,0.118 0.236,-0.048 -0.011,-0.058 -0.023,-0.115 -0.035,-0.173 -0.085,-0.429 -0.172,-0.858 -0.25,-1.289 -0.016,-0.083 -0.083,-0.114 -0.142,-0.103 z" id="path7589" />
<path style="fill:#000000" d="m 17.337,12.683 c -0.06,0.006 -0.115,0.055 -0.107,0.140 0.034,0.331 0.058,0.663 0.095,0.994 0.018,0.17 0.259,0.143 0.240,-0.025 -0.036,-0.33 -0.061,-0.661 -0.095,-0.992 -0.008,-0.085 -0.072,-0.123 -0.132,-0.117 z" id="path7591" />
<path style="fill:#000000" d="m 17.718,9.113 c -0.031,-0.001 -0.064,0.009 -0.095,0.039 -0.275,0.265 -0.558,0.524 -0.808,0.814 -0.105,0.133 0.084,0.281 0.189,0.146 0.243,-0.279 0.520,-0.529 0.787,-0.787 0.092,-0.088 0.020,-0.208 -0.072,-0.212 z" id="path7593" />
<path style="fill:#000000" d="m 18.103,8.652 c -0.163,-0.051 -0.235,0.179 -0.072,0.230 0.466,0.156 0.948,0.262 1.431,0.351 0.334,0.055 0.173,0.030 0.480,0.080 0.168,0.027 0.206,-0.211 0.037,-0.238 -0.305,-0.049 -0.144,-0.023 -0.474,-0.078 -0.473,-0.087 -0.945,-0.192 -1.402,-0.345 z" id="path7595" />
<path style="fill:#000000" d="m 19.607,9.183 c -0.093,0.007 -0.161,0.128 -0.066,0.214 0.271,0.237 0.598,0.366 0.943,0.455 0.165,0.042 0.224,-0.192 0.058,-0.234 -0.307,-0.076 -0.596,-0.188 -0.839,-0.398 -0.031,-0.028 -0.064,-0.039 -0.095,-0.037 z" id="path7597" />
<path style="fill:#000000" d="m 21.851,8.699 c -0.083,0.029 -0.167,0.058 -0.25,0.087 -0.472,0.182 -0.942,0.375 -1.400,0.593 -0.156,0.068 -0.058,0.289 0.097,0.220 0.454,-0.216 0.919,-0.406 1.388,-0.587 0.081,-0.028 0.162,-0.056 0.244,-0.085 0.161,-0.057 0.079,-0.285 -0.080,-0.228 z" id="path7599" />
<path style="fill:#000000" d="m 21.625,9.162 c -0.029,-0.010 -0.063,-0.007 -0.101,0.011 -0.261,0.134 -0.524,0.264 -0.789,0.390 -0.154,0.073 -0.049,0.291 0.103,0.218 h 0.002 c 0.267,-0.127 0.529,-0.258 0.792,-0.394 0.114,-0.058 0.079,-0.195 -0.007,-0.226 z" id="path7601" />
<path style="fill:#000000" d="m 22.343,8.412 c -0.086,0.035 -0.113,0.172 0.003,0.224 l 0.002,0.001 c 0.396,0.177 0.815,0.287 1.238,0.380 0.287,0.054 0.153,0.030 0.412,0.076 V 8.849 c -0.161,-0.028 -0.110,-0.018 -0.361,-0.066 -0.406,-0.089 -0.809,-0.194 -1.191,-0.365 -0.039,-0.017 -0.074,-0.017 -0.103,-0.005 z" id="path7603" />
<path style="fill:#000000" d="m 23.484,8.367 c -0.057,0.020 -0.100,0.080 -0.072,0.160 C 23.584,8.988 23.802,9.433 24,9.884 v -0.609 c -0.123,-0.274 -0.252,-0.546 -0.359,-0.828 -0.028,-0.080 -0.099,-0.100 -0.156,-0.080 z" id="path7605" />
<path style="fill:#000000" d="M 0.208,9.486 C 0.179,9.475 0.145,9.476 0.107,9.496 0.069,9.515 0.037,9.543 0,9.564 v 0.283 c 0.073,-0.043 0.141,-0.096 0.216,-0.136 0.114,-0.057 0.079,-0.193 -0.007,-0.224 z M 0,10.232 v 0.207 c 0.086,-0.036 0.100,-0.158 0,-0.207 z" id="path7655" />
<path style="fill:#000000" d="m 0.384,9.371 c -0.164,-0.048 -0.232,0.184 -0.068,0.232 0.182,0.062 0.433,0.120 0.486,0.333 0.056,0.161 0.282,0.080 0.226,-0.080 C 0.917,9.574 0.668,9.449 0.384,9.371 Z" id="path7657" />
<path style="fill:#000000" d="m 0.292,10.121 c -0.196,0.067 -0.101,0.033 -0.285,0.097 C 0.003,10.220 0.003,10.223 0,10.224 v 0.218 c 0.025,0.009 0.053,0.015 0.087,0.003 v -0.002 c 0.182,-0.062 0.085,-0.028 0.281,-0.095 0.161,-0.055 0.084,-0.284 -0.076,-0.228 z" id="path7659" />
<path style="fill:#000000" d="M 0,8.835 V 8.947 C 0.014,8.918 0.019,8.881 0.001,8.839 0.001,8.838 5.186e-4,8.837 0,8.835 Z" id="path7663" />
<path style="fill:#000000" d="m 0,8.593 v 0.240 c 0.270,0.017 0.558,0.025 0.761,0.220 0.128,0.112 0.287,-0.071 0.158,-0.183 C 0.639,8.640 0.338,8.615 0,8.593 Z" id="path7665" />
<path style="fill:#000000" d="M 0.013,8.996 C 0.007,8.995 0.005,9.001 0,9.001 V 9.234 c 0.003,2.871e-4 0.004,0.003 0.007,0.003 0.172,0.005 0.343,-1.881e-4 0.515,-0.001 0.171,-0.002 0.166,-0.243 -0.003,-0.240 -0.169,0.002 -0.336,0.005 -0.505,0 z" id="path7667" />
<path style="fill:#000000" d="m 1.240,8.619 c -0.060,0.003 -0.117,0.049 -0.113,0.134 0.013,0.313 0.053,0.625 0.099,0.935 0.025,0.169 0.265,0.131 0.240,-0.037 -0.045,-0.302 -0.086,-0.606 -0.099,-0.912 -0.004,-0.085 -0.066,-0.124 -0.126,-0.121 z" id="path7669" />
<path style="fill:#000000" d="m 1.416,10.074 c -0.092,-0.014 -0.186,0.088 -0.113,0.193 0.129,0.174 0.302,0.279 0.501,0.355 0.161,0.057 0.241,-0.169 0.080,-0.226 -0.153,-0.049 -0.281,-0.134 -0.382,-0.263 -0.024,-0.035 -0.055,-0.053 -0.085,-0.058 z" id="path7671" />
<path style="fill:#000000" d="m 1.441,8.621 c -0.168,-0.022 -0.202,0.215 -0.033,0.238 0.228,0.026 0.457,0.041 0.687,0.058 0.17,0.012 0.188,-0.227 0.017,-0.240 -0.223,-0.016 -0.447,-0.031 -0.671,-0.056 z" id="path7673" />
<path style="fill:#000000" d="m 2.376,8.689 c -0.092,-0.012 -0.185,0.093 -0.109,0.197 0.078,0.111 0.038,0.053 0.117,0.175 0.092,0.143 0.296,0.011 0.203,-0.130 -0.084,-0.13 -0.043,-0.067 -0.125,-0.185 -0.025,-0.034 -0.055,-0.052 -0.085,-0.056 z" id="path7675" />
<path style="fill:#000000" d="m 2.552,9.244 c -0.031,0.002 -0.063,0.019 -0.089,0.052 -0.237,0.313 -0.423,0.657 -0.583,1.015 -0.07,0.156 0.150,0.254 0.220,0.097 0.151,-0.339 0.326,-0.665 0.550,-0.962 0.080,-0.099 -0.004,-0.210 -0.097,-0.203 z" id="path7677" />
<path style="fill:#000000" d="m 3.046,8.650 c -0.057,0.017 -0.101,0.077 -0.078,0.158 0.046,0.145 0.023,0.071 0.076,0.228 0.055,0.161 0.283,0.083 0.228,-0.076 -0.051,-0.152 -0.027,-0.077 -0.074,-0.222 -0.024,-0.081 -0.094,-0.105 -0.152,-0.087 z" id="path7679" />
<path style="fill:#000000" d="m 3.113,8.605 c -0.17,0.007 -0.160,0.250 0.009,0.242 0.214,-7.64e-4 0.436,0.019 0.601,0.166 0.042,0.069 0.027,0.033 0.048,0.103 0.061,0.159 0.286,0.073 0.224,-0.085 -0.059,-0.141 -0.019,-0.071 -0.119,-0.203 -0.222,-0.174 -0.484,-0.232 -0.765,-0.222 z" id="path7681" />
<path style="fill:#000000" d="m 3.529,9.105 c -0.151,-0.002 -0.302,-0.001 -0.453,0.015 -0.17,0.014 -0.150,0.254 0.019,0.240 0.143,-0.016 0.285,-0.015 0.429,-0.013 0.171,0.002 0.174,-0.240 0.003,-0.242 z" id="path7683" />
<path style="fill:#000000" d="m 3.937,9.611 c -0.179,10e-4 -0.358,0.001 -0.537,0.005 -0.171,0.003 -0.165,0.246 0.005,0.242 0.177,-0.003 0.355,-0.004 0.533,-0.005 0.171,-10e-4 0.169,-0.244 -0.001,-0.242 z" id="path7691" />
<path style="fill:#000000" d="m 4.277,8.789 c -0.058,0.016 -0.104,0.074 -0.082,0.156 0.04,0.181 0.081,0.361 0.136,0.539 0.05,0.163 0.280,0.090 0.230,-0.072 -0.054,-0.175 -0.093,-0.352 -0.134,-0.531 -0.022,-0.082 -0.092,-0.107 -0.150,-0.091 z" id="path7693" />
<path style="fill:#000000" d="m 4.464,8.785 c -0.169,-0.025 -0.204,0.215 -0.035,0.240 l -0.003,0.001 c 0.228,0.048 0.489,0.024 0.701,0.136 -0.022,0.048 0.017,-0.027 -0.035,0.007 -0.042,0.028 -0.056,0.086 -0.089,0.125 -0.074,0.086 -0.107,0.112 -0.189,0.193 l -0.097,0.089 c -0.126,0.115 0.035,0.295 0.162,0.179 0.035,-0.032 0.069,-0.064 0.105,-0.097 0.15,-0.149 0.436,-0.381 0.333,-0.628 -0.015,-0.037 -0.055,-0.059 -0.083,-0.089 -0.241,-0.109 -0.508,-0.119 -0.767,-0.158 z" id="path7695" />
<path style="fill:#000000" d="m 5.208,9.728 c -0.207,0.064 -0.412,0.130 -0.623,0.183 -0.165,0.042 -0.106,0.276 0.058,0.234 v -0.002 c 0.214,-0.053 0.423,-0.122 0.634,-0.187 0.163,-0.05 0.091,-0.279 -0.070,-0.228 z" id="path7697" />
<path style="fill:#000000" d="m 5.615,8.691 c -0.060,0.001 -0.119,0.043 -0.117,0.128 0.003,0.249 0.018,0.496 0.044,0.744 0.018,0.17 0.256,0.143 0.238,-0.025 -0.025,-0.24 -0.038,-0.480 -0.042,-0.722 -0.001,-0.085 -0.062,-0.126 -0.123,-0.124 z" id="path7699" />
<path style="fill:#000000" d="m 6.013,8.501 c -0.181,0.002 -0.362,0.018 -0.542,0.044 -0.168,0.032 -0.122,0.268 0.044,0.236 0.329,-0.044 0.667,-0.066 0.996,-0.005 0.126,0.054 0.070,0.020 0.167,0.093 0.14,0.097 0.277,-0.100 0.136,-0.197 -0.158,-0.104 -0.070,-0.058 -0.261,-0.132 -0.179,-0.031 -0.360,-0.041 -0.541,-0.039 z" id="path7705" />
<path style="fill:#000000" d="m 6.751,9.105 c -0.391,0.083 -0.779,0.185 -1.177,0.232 -0.170,0.014 -0.148,0.254 0.021,0.240 0.408,-0.047 0.806,-0.150 1.207,-0.236 0.167,-0.035 0.115,-0.272 -0.050,-0.236 z" id="path7707" />
<path style="fill:#000000" d="m 18.445,7.531 c -0.17,0.015 -0.146,0.256 0.023,0.240 l 0.002,0.001 c 0.306,-0.02 0.603,0.018 0.855,0.199 0.027,0.026 0.055,0.052 0.082,0.078 0.123,0.118 0.290,-0.055 0.166,-0.173 -0.037,-0.034 -0.074,-0.070 -0.111,-0.105 -0.306,-0.204 -0.650,-0.269 -1.017,-0.240 z" id="path7709" />
<path style="fill:#000000" d="m 18.542,8.091 c -0.163,-0.051 -0.235,0.179 -0.072,0.230 0.238,0.068 0.481,0.102 0.726,0.136 0.169,0.023 0.202,-0.214 0.033,-0.238 -0.231,-0.032 -0.462,-0.065 -0.687,-0.128 z" id="path7711" />
<path style="fill:#000000" d="m 20.103,8.099 c -0.031,0.001 -0.064,0.016 -0.091,0.048 -0.152,0.181 -0.274,0.384 -0.388,0.591 -0.082,0.149 0.130,0.265 0.212,0.115 0.105,-0.192 0.218,-0.379 0.359,-0.548 0.083,-0.096 0.001,-0.211 -0.091,-0.207 z" id="path7713" />
<path style="fill:#000000" d="m 20.052,8.048 c -0.17,-0.006 -0.180,0.234 -0.009,0.240 v 0.001 c 0.272,-0.007 0.493,0.088 0.650,0.312 0.013,0.028 0.027,0.056 0.041,0.085 0.075,0.153 0.291,0.045 0.216,-0.107 -0.021,-0.041 -0.041,-0.081 -0.062,-0.123 -0.209,-0.273 -0.485,-0.419 -0.835,-0.410 z" id="path7715" />
<path style="fill:#000000" d="m 20.431,8.662 c -0.194,0.026 -0.388,0.050 -0.583,0.068 -0.169,0.021 -0.138,0.262 0.029,0.240 0.196,-0.018 0.390,-0.041 0.585,-0.068 0.169,-0.023 0.136,-0.263 -0.031,-0.240 z" id="path7717" />
<path style="fill:#000000" d="m 20.345,7.425 c -0.17,-0.012 -0.188,0.229 -0.017,0.242 0.352,0.017 0.703,0.034 1.042,0.138 0.163,0.049 0.233,-0.180 0.070,-0.230 -0.356,-0.106 -0.724,-0.134 -1.095,-0.150 z" id="path7719" />
<path style="fill:#000000" d="m 20.371,7.748 c -0.166,-0.032 -0.214,0.202 -0.048,0.238 h 0.002 c 0.239,0.047 0.484,0.075 0.728,0.093 0.17,0.012 0.186,-0.227 0.015,-0.240 -0.234,-0.016 -0.467,-0.045 -0.697,-0.091 z" id="path7721" />
<path style="fill:#000000" d="m 21.556,7.552 c -0.059,-0.009 -0.125,0.022 -0.138,0.107 -0.016,0.138 -0.010,0.066 -0.015,0.220 -0.005,0.17 0.237,0.176 0.242,0.005 0.003,-0.129 -0.001,-0.066 0.011,-0.187 0.013,-0.084 -0.040,-0.136 -0.099,-0.146 z" id="path7723" />
<path style="fill:#000000" d="m 21.970,7.373 c -0.059,-0.008 -0.125,0.026 -0.138,0.109 -0.040,0.246 -0.048,0.495 -0.042,0.744 0.004,0.17 0.245,0.164 0.240,-0.005 -0.006,-0.235 0.002,-0.470 0.041,-0.703 0.012,-0.084 -0.039,-0.135 -0.099,-0.144 z" id="path7725" />
<path style="fill:#000000" d="m 22.335,7.341 c -0.130,0.008 -0.262,0.031 -0.384,0.035 -0.169,0.019 -0.139,0.258 0.029,0.238 0.232,-0.005 0.546,-0.107 0.742,0.054 0.068,0.106 0.050,0.230 0.035,0.349 -0.019,0.169 0.219,0.197 0.238,0.027 0.022,-0.214 0.024,-0.414 -0.138,-0.578 -0.047,-0.028 -0.090,-0.063 -0.142,-0.083 -0.118,-0.046 -0.248,-0.051 -0.378,-0.042 z" id="path7727" />
<path style="fill:#000000" d="m 22.210,8.035 c -0.172,0.027 -0.343,0.056 -0.511,0.105 -0.164,0.042 -0.100,0.273 0.062,0.232 0.158,-0.045 0.321,-0.073 0.484,-0.099 0.168,-0.026 0.132,-0.265 -0.035,-0.238 z" id="path7729" />
<path style="fill:#000000" d="m 21.400,8.279 c -0.169,-0.021 -0.201,0.217 -0.031,0.238 v 0.001 c 0.038,0.002 0.076,0.003 0.115,0.005 0.17,0.009 0.184,-0.232 0.013,-0.242 -0.032,-0.001 -0.064,-0.001 -0.097,-0.003 z" id="path7731" />
<path style="fill:#000000" d="m 19.658,7.248 c -0.159,-0.062 -0.246,0.163 -0.087,0.226 v -0.001 c 0.149,0.049 0.069,0.026 0.240,0.070 0.165,0.042 0.224,-0.192 0.058,-0.234 -0.151,-0.038 -0.080,-0.018 -0.210,-0.060 z" id="path7733" />
<path style="fill:#000000" d="m 23.066,7.187 c -0.058,0.014 -0.106,0.071 -0.085,0.154 0.037,0.167 0.085,0.331 0.138,0.494 0.053,0.162 0.282,0.086 0.228,-0.074 -0.051,-0.157 -0.096,-0.316 -0.132,-0.478 -0.02,-0.083 -0.089,-0.110 -0.148,-0.095 z" id="path7735" />
<path style="fill:#000000" d="m 23.554,7.203 c -0.140,-0.017 -0.285,-0.011 -0.435,0.005 -0.17,0.013 -0.150,0.253 0.019,0.240 h 0.002 c 0.248,-0.024 0.485,-0.034 0.705,0.095 0.063,0.048 0.104,0.107 0.142,0.175 0.003,0.005 0.008,0.005 0.011,0.009 V 7.375 c -0.014,-0.011 -0.019,-0.030 -0.035,-0.041 -0.133,-0.073 -0.269,-0.113 -0.410,-0.130 z" id="path7737" />
<path style="fill:#000000" d="m 23.871,7.851 c -0.196,0.004 -0.390,0.014 -0.585,0.039 -0.17,0.018 -0.143,0.259 0.025,0.240 h 0.002 c 0.188,-0.023 0.377,-0.035 0.566,-0.039 C 23.959,8.090 23.996,8.035 24,7.978 V 7.958 C 23.993,7.902 23.951,7.849 23.871,7.851 Z" id="path7739" />
<path style="fill:#000000" d="m 24,8.246 c -0.090,0.017 -0.180,0.029 -0.269,0.054 -0.164,0.042 -0.102,0.273 0.060,0.232 C 23.859,8.514 23.930,8.504 24,8.490 Z" id="path7741" />
<path style="fill:#000000" d="m 1.029,7.916 c -0.046,7.26e-4 -0.090,9.532e-4 -0.136,0.001 C 0.595,7.934 0.297,7.947 0,7.941 v 0.240 c 0.301,0.005 0.603,-0.007 0.904,-0.023 0.043,-7.26e-4 0.085,-9.531e-4 0.128,-0.001 0.171,-0.002 0.166,-0.243 -0.003,-0.240 z" id="path7807" />
<path style="fill:#000000" d="m 1.777,7.703 c -0.029,-0.010 -0.063,-0.008 -0.101,0.011 -0.142,0.074 -0.287,0.135 -0.443,0.177 -0.165,0.044 -0.101,0.277 0.062,0.232 v -0.001 c 0.172,-0.045 0.334,-0.114 0.492,-0.195 0.113,-0.058 0.078,-0.193 -0.009,-0.224 z" id="path7809" />
<path style="fill:#000000" d="m 2.142,6.083 c -0.060,0.003 -0.117,0.048 -0.113,0.132 0.008,0.206 0.033,0.411 0.062,0.615 0.024,0.169 0.262,0.134 0.238,-0.033 -0.028,-0.196 -0.052,-0.394 -0.060,-0.593 -0.004,-0.085 -0.066,-0.124 -0.126,-0.121 z" id="path7811" />
<path style="fill:#000000" d="m 2.248,6.912 c -0.031,0.002 -0.063,0.017 -0.089,0.050 -0.152,0.187 -0.279,0.391 -0.404,0.597 -0.088,0.146 0.117,0.271 0.205,0.125 0.119,-0.197 0.242,-0.393 0.388,-0.572 0.080,-0.099 -0.006,-0.208 -0.099,-0.201 z" id="path7813" />
<path style="fill:#000000" d="M 3.037,6.578 C 2.978,6.566 2.911,6.595 2.894,6.679 c -0.032,0.14 -0.015,0.064 -0.052,0.224 -0.038,0.166 0.195,0.220 0.234,0.054 0.037,-0.162 0.021,-0.084 0.054,-0.230 0.017,-0.083 -0.034,-0.138 -0.093,-0.150 z" id="path7815" />
<path style="fill:#000000" d="m 2.755,7.208 c -0.031,0.002 -0.063,0.017 -0.089,0.050 -0.164,0.207 -0.307,0.427 -0.414,0.669 -0.068,0.156 0.151,0.251 0.220,0.095 0.097,-0.223 0.231,-0.423 0.382,-0.615 0.079,-0.099 -0.006,-0.209 -0.099,-0.201 z" id="path7817" />
<path style="fill:#000000" d="m 2.396,7.990 c -0.167,-0.036 -0.217,0.199 -0.050,0.236 0.26,0.047 0.525,0.065 0.789,0.080 0.17,0.009 0.184,-0.232 0.013,-0.242 -0.251,-0.014 -0.503,-0.030 -0.751,-0.074 z" id="path7819" />
<path style="fill:#000000" d="m 4.027,7.818 c -0.028,-0.011 -0.065,-0.010 -0.103,0.007 -0.173,0.083 -0.347,0.165 -0.529,0.230 -0.161,0.055 -0.082,0.282 0.078,0.226 v 0.001 c 0.19,-0.068 0.371,-0.153 0.554,-0.240 0.115,-0.054 0.086,-0.192 0,-0.226 z" id="path7821" />
<path style="fill:#000000" d="m 4.232,7.162 c -0.029,0.009 -0.057,0.031 -0.076,0.070 -0.088,0.174 -0.172,0.349 -0.253,0.527 -0.07,0.155 0.147,0.254 0.218,0.099 0.08,-0.176 0.164,-0.350 0.251,-0.523 0.054,-0.115 -0.051,-0.202 -0.140,-0.173 z" id="path7823" />
<path style="fill:#000000" d="m 4.742,7.623 c -0.030,0.005 -0.060,0.024 -0.083,0.060 -0.056,0.088 -0.109,0.177 -0.162,0.267 -0.087,0.147 0.120,0.270 0.207,0.123 0.052,-0.087 0.104,-0.175 0.158,-0.261 0.068,-0.108 -0.027,-0.207 -0.119,-0.189 z" id="path7825" />
<path style="fill:#000000" d="m 5.128,8.017 c -0.18,0.017 -0.362,0.033 -0.539,0.076 -0.166,0.038 -0.112,0.272 0.052,0.234 h 0.001 c 0.166,-0.04 0.337,-0.053 0.507,-0.070 0.17,-0.016 0.146,-0.257 -0.023,-0.240 z" id="path7827" />
<path style="fill:#000000" d="m 23.210,6.603 c -0.346,0.06 -0.697,0.103 -1.050,0.085 -0.17,-0.009 -0.184,0.230 -0.013,0.240 v 0.001 c 0.371,0.019 0.740,-0.025 1.105,-0.089 0.168,-0.029 0.125,-0.267 -0.041,-0.238 z" id="path7863" />
<path style="fill:#000000" d="m 22.533,5.472 c -0.165,-0.043 -0.225,0.188 -0.060,0.232 0.21,0.057 0.419,0.113 0.630,0.167 0.165,0.042 0.226,-0.189 0.060,-0.232 -0.209,-0.054 -0.420,-0.110 -0.630,-0.167 z" id="path7865" />
<path style="fill:#000000" d="m 23.546,5.742 c -0.059,-0.010 -0.127,0.021 -0.142,0.105 -0.046,0.215 -0.095,0.431 -0.123,0.650 -0.021,0.169 0.218,0.199 0.240,0.029 0.026,-0.215 0.076,-0.424 0.121,-0.636 0.014,-0.084 -0.036,-0.137 -0.095,-0.148 z" id="path7867" />
<path style="fill:#000000" d="m 23.214,5.015 c -0.092,0.011 -0.153,0.137 -0.054,0.218 C 23.409,5.444 23.702,5.588 24,5.718 V 5.453 C 23.757,5.342 23.518,5.222 23.312,5.048 c -0.033,-0.027 -0.066,-0.037 -0.097,-0.033 z" id="path7869" />
<path style="fill:#000000" d="m 23.958,6.048 c -0.028,0.012 -0.053,0.038 -0.068,0.078 -0.05,0.128 -0.090,0.259 -0.128,0.392 -0.046,0.164 0.183,0.230 0.230,0.066 0.002,-0.007 0.005,-0.015 0.007,-0.023 V 6.048 c -0.014,4.262e-4 -0.027,-0.005 -0.041,0 z" id="path7873" />
<path style="fill:#000000" d="m 23.970,6.099 c -0.171,-0.002 -0.172,0.238 -0.002,0.240 v 0.001 c 0.010,2.623e-4 0.020,0.003 0.031,0.003 V 6.103 c -0.009,-3.412e-4 -0.019,-0.003 -0.029,-0.003 z" id="path7875" />
<path style="fill:#000000" d="m 24,6.558 c -0.008,7.296e-4 -0.016,0.003 -0.025,0.003 -0.17,0.01 -0.156,0.250 0.013,0.240 0.003,-3.144e-4 0.007,-0.001 0.011,-0.001 z" id="path7877" />
<path style="fill:#000000" d="m 5.269,12.082 c -0.059,0.009 -0.111,0.062 -0.097,0.146 l -0.001,-0.002 c 0.125,0.640 0.209,1.285 0.285,1.933 0.012,0.113 0.025,0.227 0.037,0.341 0.018,0.17 0.259,0.143 0.240,-0.025 -0.012,-0.114 -0.025,-0.227 -0.037,-0.341 -0.075,-0.651 -0.161,-1.301 -0.287,-1.945 -0.013,-0.084 -0.079,-0.116 -0.138,-0.107 z" id="path8322" />
<path style="fill:#000000" d="m 6.091,13.707 c -0.060,0.006 -0.116,0.056 -0.107,0.140 0.015,0.213 0.038,0.425 0.060,0.638 0.017,0.17 0.256,0.145 0.238,-0.023 -0.022,-0.212 -0.043,-0.426 -0.058,-0.640 -0.008,-0.085 -0.072,-0.121 -0.132,-0.115 z" id="path8324" />
<path style="fill:#000000" d="m 12.916,12.751 c -0.060,0.001 -0.119,0.043 -0.117,0.128 0.008,0.451 0.052,0.898 0.113,1.345 0.023,0.169 0.262,0.135 0.238,-0.033 -0.06,-0.437 -0.103,-0.874 -0.111,-1.316 -0.001,-0.085 -0.062,-0.126 -0.123,-0.125 z" id="path8326" />
<path style="fill:#000000" d="m 21.097,11.816 c -0.059,0.011 -0.110,0.064 -0.093,0.148 h 0.002 c 0.085,0.66 0.152,1.322 0.238,1.982 0.022,0.169 0.263,0.137 0.240,-0.031 -0.086,-0.665 -0.156,-1.332 -0.244,-1.998 -0.016,-0.083 -0.083,-0.113 -0.142,-0.101 z" id="path8328" />
<path style="fill:#000000" d="m 16.599,14.087 c -0.767,0.004 -1.532,0.018 -2.298,0.068 -0.068,0.005 -0.159,-0.033 -0.205,0.015 -0.015,0.017 -0.013,0.023 -0.027,0.039 -0.071,-0.002 -0.115,0.015 -0.076,0.103 -0.168,0.252 0.042,0.242 0.246,0.281 0.088,0.014 0.142,-0.027 0.177,-0.080 0.727,-0.044 1.456,-0.062 2.185,-0.066 0.256,-10e-4 0.254,-0.363 -0.002,-0.361 z" id="path8826" />
<path style="fill:#000000" d="m 22.871,13.898 c -0.512,0.036 -1.024,0.066 -1.535,0.123 -0.254,0.033 -0.207,0.393 0.046,0.359 0.503,-0.055 1.008,-0.085 1.513,-0.121 0.255,-0.018 0.229,-0.380 -0.025,-0.361 z" id="path8828" />
<path style="fill:#000000" d="m 0.675,18.904 c -0.256,0.012 -0.238,0.376 0.017,0.363 1.022,0.003 2.041,0.113 3.058,0.205 0.255,0.023 0.287,-0.338 0.031,-0.361 -1.034,-0.093 -2.068,-0.206 -3.107,-0.207 z" id="path10044" />
<path style="fill:#000000" d="m 6.890,19.218 c -0.256,0 -0.256,0.361 0,0.361 v 0.002 c 0.633,-0.007 1.265,0.011 1.898,0.037 0.577,0.026 1.156,0.060 1.732,0.115 0.207,0.016 0.409,0.064 0.613,0.107 0.184,0.034 0.090,0.016 0.279,0.048 0.252,0.042 0.313,-0.315 0.060,-0.357 -0.18,-0.03 -0.092,-0.013 -0.267,-0.046 -0.216,-0.045 -0.431,-0.096 -0.652,-0.113 -0.582,-0.055 -1.165,-0.090 -1.750,-0.117 -0.637,-0.025 -1.276,-0.045 -1.914,-0.037 z" id="path10046" />
<path style="fill:#000000" d="m 12.332,19.376 c -0.254,-0.022 -0.285,0.335 -0.033,0.361 h 0.002 c 0.611,0.053 1.221,0.129 1.832,0.203 0.514,0.062 1.027,0.131 1.542,0.195 0.289,0.028 0.579,0.029 0.869,0.042 0.541,0.028 1.083,0.062 1.623,0.107 0.185,0.01 0.368,0.039 0.552,0.062 0.354,0.029 0.710,0.029 1.066,0.037 0.67,0.014 1.341,0.026 2.011,0.041 0.298,0.006 0.595,0.019 0.892,0.050 0.255,0.026 0.292,-0.334 0.037,-0.361 -0.306,-0.032 -0.612,-0.046 -0.921,-0.052 -0.669,-0.015 -1.339,-0.025 -2.009,-0.039 -0.343,-0.008 -0.688,-0.010 -1.031,-0.037 -0.189,-0.023 -0.376,-0.051 -0.566,-0.062 -0.545,-0.045 -1.090,-0.081 -1.636,-0.109 -0.28,-0.012 -0.561,-0.013 -0.841,-0.039 -0.514,-0.063 -1.027,-0.134 -1.542,-0.197 -0.614,-0.074 -1.229,-0.149 -1.845,-0.203 z" id="path10058" />
<path style="fill:#000000" d="m 8.056,14.373 c -0.415,-0.003 -0.831,0.003 -1.246,0.029 -0.255,0.026 -0.216,0.386 0.037,0.359 l 0.003,0.002 c 0.813,-0.05 1.629,-0.021 2.443,0 0.822,0.026 1.646,0.065 2.466,0.154 0.187,0.023 0.373,0.051 0.562,0.060 0.492,0.011 0.984,0.002 1.476,-0.002 0.825,-0.008 1.650,-0.017 2.476,-0.015 0.335,0 0.668,0.021 1.003,0.033 0.464,0.012 0.929,0.007 1.394,0.005 0.702,-9.9e-5 1.403,0.005 2.105,0.011 0.397,0.006 0.794,0.011 1.191,0.011 0.43,0.004 0.861,0.003 1.292,0.003 0.256,6.1e-5 0.255,-0.363 0,-0.363 -0.43,-10e-5 -0.861,0.001 -1.292,-0.002 -0.396,-2.37e-4 -0.792,-0.005 -1.189,-0.011 -0.703,-0.006 -1.405,-0.013 -2.109,-0.013 -0.46,10e-4 -0.920,0.007 -1.380,-0.003 -0.338,-0.011 -0.678,-0.033 -1.017,-0.033 -0.827,-0.002 -1.653,0.006 -2.480,0.015 -0.485,0.004 -0.970,0.012 -1.455,0.002 -0.181,-0.008 -0.360,-0.039 -0.541,-0.060 -0.829,-0.09 -1.662,-0.129 -2.496,-0.156 -0.414,-0.011 -0.830,-0.023 -1.246,-0.027 z" id="path10060" />
<path style="fill:#000000" d="m 17.021,14.080 c -0.095,0.015 -0.190,0.032 -0.285,0.048 -0.591,0.103 -1.180,0.211 -1.765,0.345 -0.248,0.063 -0.159,0.415 0.087,0.351 0.576,-0.131 1.158,-0.239 1.740,-0.341 0.094,-0.015 0.187,-0.029 0.281,-0.044 0.253,-0.041 0.194,-0.400 -0.058,-0.359 z" id="path10062" />
<path style="fill:#000000" d="m 18.062,14.191 c -0.457,0.065 -0.913,0.137 -1.365,0.230 -0.252,0.045 -0.187,0.402 0.064,0.357 0.448,-0.092 0.898,-0.163 1.351,-0.228 0.253,-0.036 0.202,-0.395 -0.050,-0.359 z" id="path10064" />
<path style="fill:#000000" d="m 11.515,19.431 c -0.208,0.012 -0.417,0.024 -0.625,0.050 -0.169,0.019 -0.141,0.259 0.027,0.240 0.203,-0.026 0.407,-0.038 0.611,-0.050 0.17,-0.01 0.155,-0.251 -0.013,-0.240 z" id="path10066" />
<path style="fill:#000000" d="m 22.072,0 c -0.349,0.038 -0.698,0.077 -1.048,0.097 l -0.002,-0.001 c -0.171,0.011 -0.156,0.252 0.013,0.242 0.376,-0.021 0.750,-0.063 1.123,-0.103 0.216,-0.024 0.431,-0.045 0.646,-0.066 C 22.908,0.158 22.934,0.067 22.904,0 Z" id="path6956" />
<path style="fill:#000000" d="m 23.382,0 c 0.003,0.059 0.048,0.116 0.132,0.113 C 23.677,0.107 23.838,0.084 24,0.068 V 0 Z" id="path6958" />
<path style="fill:#000000" d="m 24,0.392 c -0.126,0.008 -0.254,0.024 -0.380,0.025 -0.168,0.003 -0.166,0.240 0.003,0.240 C 23.749,0.657 23.874,0.643 24,0.634 Z" id="path6960" />
<path style="fill:#000000" d="m 24,0.757 c -0.008,0.001 -0.016,0.002 -0.025,0.003 C 23.634,0.817 23.289,0.868 22.945,0.884 22.777,0.895 22.791,1.133 22.960,1.125 23.309,1.108 23.656,1.056 24,1 Z" id="path6962" />
<path style="fill:#000000" d="m 24,1.753 c -0.100,0.005 -0.201,0.012 -0.302,0.017 -0.323,0.014 -0.645,0.029 -0.968,0.013 -0.169,-0.013 -0.187,0.227 -0.017,0.240 0.332,0.018 0.666,0.001 0.998,-0.013 0.097,-0.004 0.193,-0.010 0.291,-0.015 z" id="path6964" />
<path style="fill:#000000" d="m 24,2.087 c -0.048,0.006 -0.098,0.008 -0.146,0.015 -0.169,0.025 -0.133,0.262 0.035,0.238 0.037,-0.005 0.074,-0.006 0.111,-0.011 z" id="path6966" />
<path style="fill:#000000" d="m 22.964,1.826 c -0.205,0.019 -0.410,0.037 -0.615,0.056 -0.171,0.013 -0.152,0.253 0.017,0.240 0.205,-0.02 0.413,-0.038 0.619,-0.056 0.17,-0.015 0.148,-0.255 -0.021,-0.240 z" id="path6970" />
<path style="fill:#000000" d="m 14.830,18.853 c -0.341,0.049 -0.681,0.104 -1.019,0.166 -0.413,0.076 -0.823,0.158 -1.236,0.228 -0.254,0.033 -0.207,0.392 0.046,0.359 0.419,-0.071 0.835,-0.155 1.253,-0.232 0.334,-0.062 0.669,-0.115 1.005,-0.162 0.254,-0.036 0.203,-0.394 -0.050,-0.359 z" id="path8373" />
<path style="fill:#000000" d="m 13.826,19.107 c -0.046,8.28e-4 -0.095,0.021 -0.138,0.068 -0.144,0.165 -0.305,0.313 -0.435,0.488 -0.152,0.208 0.141,0.421 0.292,0.214 0.119,-0.167 0.279,-0.300 0.410,-0.457 v -0.002 c 0.129,-0.142 0.011,-0.314 -0.128,-0.312 z" id="path8375" />
<path style="fill:#000000" d="m 16.964,18.253 c -0.373,0.091 -0.748,0.179 -1.123,0.259 -0.251,0.055 -0.171,0.407 0.078,0.353 0.379,-0.081 0.754,-0.170 1.130,-0.261 0.249,-0.061 0.163,-0.411 -0.085,-0.351 z" id="path8377" />
<path style="fill:#000000" d="m 23.373,16.5 c -0.074,0.022 -0.035,0.010 -0.107,0.033 -0.075,0.023 -0.152,0.046 -0.230,0.056 -0.068,0.006 -0.137,0.013 -0.203,0.033 -0.311,0.076 -0.619,0.157 -0.927,0.242 -0.537,0.152 -1.068,0.314 -1.597,0.488 -0.375,0.119 -0.749,0.239 -1.130,0.335 v -0.002 c -0.249,0.061 -0.163,0.412 0.085,0.351 0.389,-0.098 0.770,-0.220 1.152,-0.341 0.526,-0.173 1.057,-0.334 1.589,-0.484 0.304,-0.084 0.608,-0.163 0.914,-0.238 0.048,-0.016 0.097,-0.022 0.146,-0.025 0.105,-0.011 0.204,-0.038 0.304,-0.068 0.076,-0.024 0.040,-0.013 0.107,-0.033 C 23.722,16.774 23.618,16.427 23.373,16.5 Z" id="path8379" />
<path style="fill:#000000" d="m 17.105,18.216 c -0.030,0.003 -0.062,0.018 -0.087,0.052 -0.204,0.278 -0.424,0.543 -0.652,0.800 -0.188,0.21 -0.387,0.409 -0.589,0.605 -0.123,0.119 0.045,0.292 0.167,0.173 0.207,-0.2 0.411,-0.404 0.603,-0.619 0.232,-0.262 0.456,-0.532 0.664,-0.814 v -0.002 c 0.077,-0.101 -0.012,-0.207 -0.105,-0.197 z" id="path8381" />
<path style="fill:#000000" d="m 16.218,19.371 c -0.029,0.009 -0.055,0.031 -0.074,0.070 -0.064,0.136 -0.129,0.269 -0.179,0.410 -0.058,0.16 0.169,0.243 0.226,0.082 0.047,-0.133 0.109,-0.260 0.169,-0.388 0.054,-0.114 -0.053,-0.202 -0.142,-0.173 z" id="path8383" />
<path style="fill:#000000" d="m 21.138,17.152 c -0.109,0.029 -0.215,0.068 -0.320,0.109 -0.307,0.122 -0.611,0.250 -0.908,0.392 -0.242,0.117 -0.482,0.238 -0.714,0.373 -0.060,0.036 -0.117,0.077 -0.160,0.130 -0.119,0.066 -0.252,0.108 -0.375,0.167 -0.398,0.17 -0.795,0.337 -1.191,0.511 -0.335,0.145 -0.671,0.286 -1.011,0.417 -0.16,0.061 -0.073,0.285 0.085,0.224 0.344,-0.132 0.682,-0.277 1.019,-0.423 0.396,-0.174 0.796,-0.339 1.193,-0.509 0.134,-0.066 0.281,-0.108 0.408,-0.187 0.038,-0.049 0.043,-0.060 0.054,-0.080 0.013,-1.04e-4 0.034,-0.006 0.097,-0.042 0.227,-0.132 0.463,-0.251 0.699,-0.365 0.293,-0.139 0.589,-0.265 0.890,-0.384 0.096,-0.037 0.192,-0.074 0.291,-0.099 0.166,-0.043 0.106,-0.276 -0.058,-0.234 z" id="path8385" />
<path style="fill:#000000" d="m 12.957,16.734 v 0.002 c -0.25,-0.054 -0.326,0.300 -0.076,0.353 0.252,0.058 0.504,0.113 0.757,0.162 0.25,0.049 0.319,-0.308 0.068,-0.357 -0.25,-0.05 -0.501,-0.103 -0.75,-0.160 z" id="path8387" />
<path style="fill:#000000" d="m 0,23.570 v 0.236 c 0.059,-0.060 0.068,-0.154 0,-0.236 z" id="path8391" />
<path style="fill:#000000" d="m 0,23.744 v 0.013 c 0.001,-0.004 -7.673e-4,-0.008 0,-0.013 z m 0,0.185 V 24 H 0.042 C 0.032,23.973 0.022,23.948 0,23.929 Z" id="path8393" />
<path style="fill:#000000" d="m 7.318,23.296 c -0.249,-0.058 -0.332,0.296 -0.082,0.353 0.197,0.044 0.395,0.085 0.591,0.128 0.25,0.055 0.328,-0.298 0.078,-0.353 -0.196,-0.043 -0.392,-0.085 -0.587,-0.128 z" id="path8421" />
<path style="fill:#000000" d="m 20.035,19.632 c -0.136,0.032 -0.207,0.230 -0.046,0.335 0.163,0.114 0.332,0.211 0.507,0.304 0.226,0.12 0.397,-0.200 0.171,-0.320 -0.166,-0.088 -0.327,-0.182 -0.480,-0.289 -0.053,-0.035 -0.106,-0.042 -0.152,-0.031 z" id="path8663" />
<path style="fill:#000000" d="m 21.582,18.675 c -0.255,-0.02 -0.282,0.341 -0.027,0.361 0.162,0.016 0.319,0.059 0.476,0.101 0.247,0.067 0.342,-0.285 0.095,-0.351 -0.179,-0.049 -0.359,-0.094 -0.544,-0.111 z" id="path8665" />
<path style="fill:#000000" d="m 0.462,17.957 c -0.062,0.012 -0.124,0.023 -0.185,0.035 C 0.184,18.010 0.092,18.032 0,18.050 v 0.248 c 0.107,-0.021 0.214,-0.047 0.322,-0.068 0.062,-0.012 0.124,-0.025 0.185,-0.037 0.168,-0.033 0.122,-0.268 -0.044,-0.236 z" id="path8747" />
<path style="fill:#000000" d="m 1.666,16.291 -0.207,0.003 c -0.389,0.012 -0.779,0.032 -1.167,0.058 -0.168,0.012 -0.153,0.253 0.015,0.242 0.387,-0.027 0.773,-0.048 1.160,-0.060 0.068,-0.001 0.136,-0.002 0.203,-0.003 0.171,-0.003 0.167,-0.243 -0.003,-0.240 z" id="path8751" />
<path style="fill:#000000" d="m 3.732,16.298 c -0.17,-0.002 -0.171,0.239 0,0.240 0.106,10e-4 0.211,0.004 0.316,0.009 0.17,0.008 0.179,-0.232 0.009,-0.240 -0.109,-0.005 -0.218,-0.009 -0.326,-0.009 z" id="path8753" />
<path style="fill:#000000" d="m 17.744,16.019 c -0.169,-0.023 -0.200,0.216 -0.031,0.238 0.194,0.024 0.387,0.059 0.578,0.095 0.167,0.032 0.211,-0.206 0.044,-0.238 -0.197,-0.038 -0.393,-0.071 -0.591,-0.095 z" id="path8845" />
<path style="fill:#000000" d="m 5.654,18.527 c -0.199,0.024 -0.398,0.051 -0.593,0.097 v 0.002 c -0.251,0.056 -0.169,0.407 0.080,0.351 0.184,-0.044 0.369,-0.069 0.556,-0.091 0.254,-0.031 0.211,-0.389 -0.042,-0.359 z" id="path9101" />
</svg>
