<?xml version="1.0" encoding="UTF-8" standalone="no"?>
<svg xmlns:dc="http://purl.org/dc/elements/1.1/" xmlns:cc="http://creativecommons.org/ns#" xmlns:rdf="http://www.w3.org/1999/02/22-rdf-syntax-ns#" xmlns:svg="http://www.w3.org/2000/svg" xmlns="http://www.w3.org/2000/svg" viewBox="0 0 24 24" version="1.1" id="svg11767" height="100%" width="100%" >
<defs id="defs11761" />
<path style="fill:#ffffff" d="M 0,0 V 20 H 20 V 0 Z" id="rect5" />
<path style="fill:#000000" d="m 4.177,17.529 c -0.135,0.017 -0.260,0.111 -0.304,0.298 -0.07,0.258 -0.137,0.517 -0.195,0.779 -0.055,0.293 -0.118,0.585 -0.187,0.876 -0.057,0.248 -0.106,0.497 -0.166,0.744 -0.071,0.246 -0.143,0.491 -0.205,0.740 -0.071,0.291 -0.138,0.582 -0.199,0.876 -0.062,0.325 -0.151,0.643 -0.240,0.962 -0.089,0.335 -0.169,0.672 -0.257,1.009 C 2.405,23.878 2.388,23.939 2.371,24 h 0.751 c 0.085,-0.331 0.168,-0.666 0.255,-0.998 0.092,-0.334 0.186,-0.669 0.251,-1.011 0.058,-0.284 0.124,-0.565 0.193,-0.847 0.062,-0.249 0.135,-0.495 0.205,-0.742 0.06,-0.249 0.110,-0.5 0.167,-0.75 0.069,-0.294 0.133,-0.588 0.189,-0.886 0.056,-0.258 0.123,-0.513 0.191,-0.769 0.073,-0.312 -0.175,-0.494 -0.400,-0.464 z" id="path5763" />
<path style="fill:#000000" d="m 7.050,14.501 c -0.093,0.002 -0.190,0.044 -0.275,0.140 -0.175,0.197 -0.361,0.386 -0.515,0.601 -0.182,0.476 0.011,0.007 -0.046,0.142 -0.291,0.309 -0.676,0.517 -0.998,0.791 -0.438,0.349 -0.866,0.715 -1.242,1.132 -0.341,0.382 0.199,0.866 0.541,0.484 0.349,-0.386 0.747,-0.725 1.154,-1.048 0.355,-0.282 0.743,-0.529 1.064,-0.853 0.116,-0.035 0.237,-0.605 0.158,-0.291 0.143,-0.158 0.285,-0.317 0.427,-0.478 0.255,-0.288 0.012,-0.629 -0.267,-0.621 z" id="path5765" />
<path style="fill:#000000" d="m 5.609,12.773 c -0.276,0.044 -0.449,0.425 -0.144,0.660 v 0.002 c 0.439,0.315 0.902,0.596 1.353,0.896 0.266,0.185 0.139,0.094 0.378,0.269 0.414,0.302 0.841,-0.282 0.427,-0.585 -0.257,-0.187 -0.121,-0.092 -0.404,-0.289 -0.437,-0.29 -0.885,-0.564 -1.314,-0.867 -0.101,-0.078 -0.204,-0.100 -0.296,-0.085 z" id="path5767" />
<path style="fill:#000000" d="m 5.376,12.421 c -0.278,0.034 -0.463,0.409 -0.166,0.654 0.086,0.071 0.042,0.037 0.128,0.107 0.396,0.325 0.855,-0.234 0.458,-0.560 -0.082,-0.067 -0.042,-0.036 -0.126,-0.105 -0.098,-0.081 -0.202,-0.107 -0.294,-0.095 z" id="path5769" />
<path style="fill:#000000" d="m 7.683,14.062 c -0.093,-0.004 -0.193,0.031 -0.285,0.121 -0.156,0.149 -0.299,0.313 -0.441,0.476 -0.337,0.386 0.209,0.862 0.546,0.476 0.129,-0.148 0.257,-0.297 0.400,-0.433 0.275,-0.267 0.059,-0.628 -0.220,-0.640 z" id="path5771" />
<path style="fill:#000000" d="m 7.142,3.076 c -0.180,-0.013 -0.371,0.099 -0.390,0.355 l 0.001,0.001 c -0.034,0.287 -0.094,0.573 -0.144,0.859 -0.069,0.400 -0.173,0.794 -0.259,1.193 -0.076,0.408 -0.175,0.812 -0.275,1.216 -0.073,0.313 -0.130,0.630 -0.193,0.945 -0.045,0.245 -0.098,0.489 -0.150,0.732 -0.046,0.253 -0.086,0.506 -0.144,0.757 -0.079,0.31 -0.142,0.623 -0.205,0.937 -0.053,0.277 -0.135,0.546 -0.216,0.816 -0.097,0.314 -0.190,0.630 -0.281,0.947 -0.072,0.246 -0.142,0.492 -0.210,0.740 -0.136,0.494 0.563,0.688 0.699,0.193 0.067,-0.245 0.136,-0.489 0.208,-0.734 0.09,-0.313 0.182,-0.627 0.279,-0.939 0.087,-0.291 0.174,-0.583 0.232,-0.882 0.061,-0.307 0.124,-0.613 0.201,-0.917 0.058,-0.254 0.100,-0.509 0.146,-0.765 0.053,-0.248 0.106,-0.497 0.152,-0.746 0.06,-0.304 0.114,-0.609 0.185,-0.912 0.100,-0.41 0.202,-0.820 0.279,-1.236 0.087,-0.407 0.195,-0.809 0.265,-1.220 0.054,-0.309 0.119,-0.618 0.152,-0.931 0.019,-0.255 -0.151,-0.396 -0.332,-0.410 z" id="path5773" />
<path style="fill:#000000" d="m 7.871,0.189 c -0.359,-0.057 -0.603,0.444 -0.220,0.679 0.083,0.051 0.170,0.099 0.248,0.158 0.182,0.144 0.327,0.321 0.449,0.521 0.027,0.044 0.051,0.090 0.076,0.136 -0.061,0.073 -0.124,0.146 -0.189,0.216 -0.072,0.077 -0.146,0.154 -0.216,0.234 -0.122,0.115 -0.268,0.205 -0.388,0.324 -0.281,0.246 -0.561,0.494 -0.802,0.781 -0.323,0.398 0.240,0.855 0.564,0.457 0.216,-0.253 0.466,-0.474 0.716,-0.693 0.128,-0.117 0.271,-0.218 0.400,-0.335 0.086,-0.089 0.170,-0.181 0.255,-0.271 0.106,-0.111 0.200,-0.231 0.302,-0.347 0.154,-0.171 0.174,-0.385 0.062,-0.587 -0.054,-0.099 -0.105,-0.199 -0.164,-0.296 C 8.801,0.897 8.598,0.663 8.355,0.464 8.253,0.384 8.141,0.319 8.031,0.251 c -0.054,-0.033 -0.108,-0.054 -0.160,-0.062 z" id="path5775" />
<path style="fill:#000000" d="m 7.451,0 c -0.018,0.096 -0.034,0.192 -0.050,0.289 -0.086,0.505 0.627,0.629 0.714,0.123 C 8.138,0.274 8.164,0.137 8.189,0 Z" id="path5779" />
<path style="fill:#000000" d="m 13.953,2.003 c -0.051,-0.001 -0.108,0.008 -0.167,0.031 -0.26,0.101 -0.521,0.200 -0.777,0.314 -0.465,0.215 -0.160,0.874 0.304,0.658 0.241,-0.106 0.490,-0.199 0.736,-0.294 0.418,-0.161 0.268,-0.701 -0.095,-0.708 z" id="path6151" />
<path style="fill:#000000" d="m 14.613,1.652 c -0.363,0.014 -0.502,0.554 -0.082,0.708 0.547,0.176 1.091,0.356 1.640,0.527 0.489,0.152 0.706,-0.538 0.216,-0.691 -0.537,-0.167 -1.071,-0.344 -1.607,-0.515 -0.060,-0.022 -0.116,-0.031 -0.167,-0.029 z" id="path6153" />
<path style="fill:#000000" d="m 19.005,1.404 c -0.051,0.001 -0.107,0.013 -0.166,0.039 -0.404,0.178 -0.194,0.086 -0.632,0.275 -0.61,0.257 -1.221,0.520 -1.855,0.712 -0.492,0.143 -0.288,0.841 0.203,0.697 0.662,-0.198 1.296,-0.474 1.933,-0.742 0.445,-0.191 0.231,-0.098 0.642,-0.279 0.410,-0.180 0.238,-0.711 -0.125,-0.703 z" id="path6155" />
<path style="fill:#000000" d="m 19.394,0.511 c -0.134,0.021 -0.257,0.118 -0.296,0.306 -0.037,0.186 -0.072,0.372 -0.087,0.562 -0.046,0.511 0.673,0.575 0.720,0.064 0.012,-0.162 0.043,-0.321 0.076,-0.480 0.064,-0.313 -0.188,-0.488 -0.412,-0.453 z" id="path6157" />
<path style="fill:#000000" d="m 19.316,0 c -0.046,0.266 0.227,0.552 0.552,0.367 v 0.001 C 20.093,0.237 20.325,0.117 20.558,0 Z" id="path6159" />
<path style="fill:#000000" d="m 12.947,2.666 c -0.360,0.056 -0.434,0.608 0.002,0.712 0.516,0.19 1.023,0.402 1.533,0.609 0.475,0.192 0.749,-0.479 0.273,-0.671 -0.543,-0.218 -1.084,-0.451 -1.638,-0.642 -0.062,-0.014 -0.118,-0.015 -0.169,-0.007 z" id="path6161" />
<path style="fill:#000000" d="M 15.486,3.681 C 15.209,3.726 15.038,4.107 15.343,4.341 v 0.001 c 0.543,0.456 1.045,0.957 1.562,1.443 0.245,0.237 0.504,0.459 0.769,0.675 0.397,0.324 0.856,-0.238 0.458,-0.562 -0.251,-0.204 -0.498,-0.414 -0.732,-0.640 -0.534,-0.502 -1.054,-1.022 -1.619,-1.492 -0.101,-0.078 -0.204,-0.100 -0.296,-0.085 z" id="path6163" />
<path style="fill:#000000" d="m 19.722,5.621 c -0.308,0.058 -0.617,0.112 -0.927,0.166 -0.294,0.047 -0.589,0.091 -0.888,0.101 -0.513,0.009 -0.5,0.734 0.013,0.724 0.333,-0.009 0.661,-0.056 0.990,-0.109 0.315,-0.054 0.630,-0.110 0.945,-0.169 0.504,-0.094 0.371,-0.807 -0.132,-0.712 z" id="path6165" />
<path style="fill:#000000" d="m 18.652,3.687 c -0.181,0.001 -0.361,0.132 -0.359,0.388 -2.37e-4,0.127 -0.004,0.253 -0.007,0.380 -0.01,0.513 0.716,0.526 0.726,0.013 0.002,-0.133 0.005,-0.266 0.005,-0.400 C 19.016,3.813 18.833,3.686 18.652,3.687 Z" id="path6167" />
<path style="fill:#000000" d="m 20.115,3.791 c -0.050,-0.010 -0.109,-0.010 -0.171,0.001 -0.369,0.072 -0.741,0.123 -1.113,0.183 -0.505,0.086 -0.383,0.800 0.121,0.714 0.377,-0.06 0.755,-0.112 1.130,-0.185 0.440,-0.085 0.389,-0.642 0.033,-0.714 z" id="path6169" />
<path style="fill:#000000" d="m 19.812,3.876 c -0.091,0.017 -0.182,0.073 -0.251,0.181 -0.251,0.417 -0.408,0.881 -0.556,1.343 -0.156,0.487 0.532,0.708 0.689,0.220 0.127,-0.401 0.264,-0.805 0.478,-1.171 0.207,-0.323 -0.083,-0.625 -0.359,-0.574 z" id="path6171" />
<path style="fill:#000000" d="m 20.279,3.388 c -0.051,-0.004 -0.108,0.002 -0.169,0.021 -0.432,0.136 -0.862,0.277 -1.302,0.384 -0.501,0.11 -0.343,0.818 0.156,0.708 0.462,-0.109 0.913,-0.258 1.365,-0.402 0.427,-0.134 0.313,-0.682 -0.048,-0.712 z" id="path6173" />
<path style="fill:#000000" d="m 20.998,2.974 c -0.051,0.004 -0.107,0.020 -0.164,0.050 -0.116,0.061 -0.232,0.120 -0.349,0.181 -0.458,0.231 -0.130,0.880 0.326,0.648 h 0.002 c 0.12,-0.062 0.239,-0.124 0.359,-0.187 0.397,-0.208 0.188,-0.727 -0.173,-0.693 z" id="path6175" />
<path style="fill:#000000" d="m 9.074,1.347 c -0.280,0.008 -0.500,0.364 -0.228,0.636 0.254,0.242 0.508,0.482 0.763,0.724 0.371,0.354 0.872,-0.169 0.501,-0.523 C 9.861,1.946 9.608,1.708 9.357,1.470 9.266,1.380 9.167,1.344 9.074,1.347 Z" id="path6177" />
<path style="fill:#000000" d="M 7.345,3.060 C 7.065,3.043 6.813,3.377 7.060,3.673 c 0.395,0.498 0.798,0.988 1.205,1.478 0.067,0.081 0.135,0.163 0.203,0.244 0.328,0.393 0.885,-0.070 0.556,-0.464 -0.067,-0.08 -0.135,-0.162 -0.203,-0.242 -0.406,-0.49 -0.809,-0.981 -1.205,-1.480 C 7.535,3.110 7.439,3.066 7.345,3.060 Z" id="path6179" />
<path style="fill:#000000" d="m 10.013,5.091 c -0.330,-0.014 -0.660,-0.018 -0.990,0.003 -0.508,0.071 -0.407,0.787 0.099,0.716 v 0.001 c 0.612,-0.03 1.227,0.022 1.839,0.058 0.372,0.022 0.194,0.011 0.529,0.031 0.512,0.029 0.553,-0.692 0.041,-0.722 -0.333,-0.019 -0.155,-0.009 -0.527,-0.031 -0.329,-0.019 -0.661,-0.044 -0.992,-0.058 z" id="path6181" />
<path style="fill:#000000" d="M 9.921,2.291 C 9.641,2.280 9.398,2.620 9.652,2.910 10.215,3.534 10.831,4.109 11.441,4.687 c 0.333,0.314 0.671,0.625 1,0.945 0.367,0.357 0.871,-0.161 0.503,-0.519 -0.331,-0.320 -0.669,-0.635 -1.005,-0.951 -0.593,-0.563 -1.192,-1.121 -1.742,-1.728 -0.084,-0.096 -0.181,-0.139 -0.275,-0.142 z" id="path6183" />
<path style="fill:#000000" d="m 12.650,5.091 c -0.344,0.005 -0.665,0.114 -0.980,0.244 -0.472,0.199 -0.190,0.867 0.281,0.667 0.226,-0.098 0.458,-0.180 0.707,-0.187 0.513,-0.006 0.504,-0.730 -0.007,-0.724 z" id="path6185" />
<path style="fill:#000000" d="m 14.871,5.628 c -0.227,-0.001 -0.452,0.209 -0.341,0.509 h -0.002 c 0.121,0.355 0.290,0.688 0.480,1.011 0.260,0.442 0.885,0.073 0.625,-0.367 -0.168,-0.284 -0.314,-0.579 -0.421,-0.894 -0.066,-0.180 -0.203,-0.258 -0.339,-0.259 z" id="path6187" />
<path style="fill:#000000" d="m 15.804,5.066 c -0.066,-7.26e-4 -0.130,0.030 -0.195,0.046 -0.292,0.140 -0.576,0.299 -0.880,0.416 -0.479,0.183 -0.218,0.859 0.259,0.675 v 0.001 c 0.323,-0.120 0.624,-0.289 0.935,-0.437 0.006,0.033 -0.063,0.016 -0.058,0.039 0.003,0.016 0.579,0.414 0.621,0.445 0.067,0.048 0.134,0.096 0.201,0.144 0.415,0.3 0.839,-0.286 0.423,-0.587 -0.067,-0.048 -0.134,-0.097 -0.201,-0.146 -0.316,-0.228 -0.694,-0.592 -1.105,-0.597 z" id="path6189" />
<path style="fill:#000000" d="m 16.871,6.468 c -0.051,-0.003 -0.109,0.003 -0.169,0.023 -0.47,0.156 -0.944,0.305 -1.412,0.472 -0.480,0.177 -0.226,0.858 0.253,0.679 0.459,-0.164 0.925,-0.308 1.388,-0.462 0.425,-0.141 0.302,-0.687 -0.060,-0.712 z" id="path6191" />
<path style="fill:#000000" d="m 17.259,5.587 c -0.224,-0.036 -0.479,0.135 -0.416,0.449 0.05,0.254 0.128,0.501 0.207,0.748 0.155,0.488 0.845,0.269 0.689,-0.218 -0.07,-0.219 -0.139,-0.441 -0.185,-0.669 -0.037,-0.188 -0.160,-0.286 -0.294,-0.308 z" id="path6193" />
<path style="fill:#000000" d="m 16.859,7.103 c -0.359,-0.056 -0.600,0.446 -0.216,0.679 v 0.001 c 0.342,0.216 0.703,0.399 1.070,0.572 0.463,0.219 0.774,-0.436 0.310,-0.656 -0.343,-0.162 -0.682,-0.334 -1.003,-0.537 -0.054,-0.033 -0.108,-0.052 -0.160,-0.060 z" id="path6195" />
<path style="fill:#000000" d="m 17.207,6.359 c -0.275,0.050 -0.441,0.436 -0.130,0.664 0.301,0.229 0.636,0.410 0.968,0.591 0.45,0.246 0.797,-0.390 0.347,-0.636 -0.303,-0.165 -0.610,-0.329 -0.886,-0.539 -0.103,-0.076 -0.206,-0.096 -0.298,-0.080 z" id="path6197" />
<path style="fill:#000000" d="m 19.072,6.312 c -0.093,0.002 -0.189,0.044 -0.275,0.138 -0.247,0.305 -0.420,0.659 -0.587,1.011 -0.219,0.463 0.435,0.774 0.654,0.310 0.136,-0.289 0.276,-0.579 0.470,-0.835 0.257,-0.285 0.018,-0.631 -0.261,-0.625 z" id="path6199" />
<path style="fill:#000000" d="m 18.849,7.507 c -0.051,-0.009 -0.107,-0.007 -0.169,0.005 -0.273,0.059 -0.548,0.114 -0.826,0.148 -0.508,0.068 -0.412,0.788 0.095,0.720 0.297,-0.037 0.589,-0.097 0.882,-0.160 0.438,-0.095 0.375,-0.650 0.017,-0.714 z" id="path6201" />
<path style="fill:#000000" d="m 19.925,5.892 c -0.134,0.019 -0.261,0.116 -0.302,0.304 -0.065,0.289 -0.124,0.580 -0.183,0.871 -0.102,0.502 0.607,0.647 0.710,0.144 0.058,-0.287 0.116,-0.575 0.181,-0.861 0.068,-0.313 -0.181,-0.491 -0.406,-0.458 z" id="path6203" />
<path style="fill:#000000" d="m 18.773,7.25 c -0.358,0.061 -0.428,0.615 0.009,0.714 0.427,0.095 0.868,0.103 1.304,0.113 0.513,0.012 0.530,-0.712 0.017,-0.724 -0.387,-0.009 -0.781,-0.012 -1.162,-0.095 -0.062,-0.014 -0.118,-0.016 -0.169,-0.007 z" id="path6205" />
<path style="fill:#000000" d="m 19.544,4.425 c -0.278,-0.027 -0.542,0.299 -0.306,0.603 0.161,0.203 0.073,0.095 0.263,0.322 0.329,0.393 0.885,-0.071 0.556,-0.464 -0.176,-0.21 -0.095,-0.109 -0.248,-0.300 -0.078,-0.101 -0.172,-0.151 -0.265,-0.160 z" id="path6207" />
<path style="fill:#000000" d="m 20.849,4.746 c -0.051,-0.005 -0.108,0.001 -0.169,0.019 -0.216,0.065 -0.433,0.126 -0.644,0.208 -0.48,0.179 -0.228,0.858 0.251,0.679 0.196,-0.075 0.399,-0.134 0.601,-0.195 0.429,-0.128 0.323,-0.677 -0.039,-0.712 z" id="path6209" />
<path style="fill:#000000" d="m 20.884,5.332 c -0.387,0.056 -0.778,0.116 -1.171,0.099 -0.512,-0.021 -0.542,0.703 -0.029,0.724 0.437,0.02 0.872,-0.042 1.304,-0.105 0.507,-0.073 0.403,-0.792 -0.103,-0.718 z" id="path6211" />
<path style="fill:#000000" d="m 7.896,13.972 c -0.277,-0.041 -0.557,0.270 -0.337,0.585 l -0.001,0.002 c 0.459,0.627 1.055,1.138 1.634,1.650 0.306,0.264 0.623,0.517 0.943,0.767 -0.050,0.327 0.229,0.775 0.384,1.037 0.14,0.218 0.043,0.071 0.167,0.257 0.015,0.022 0.030,0.044 0.044,0.068 0.003,0.007 0.013,0.026 0.009,0.019 -0.037,-0.067 -0.018,-0.041 -0.037,-0.166 0.006,-0.097 0.022,0.162 0.058,0.234 0.084,0.171 0.654,0.433 0.806,0.515 0.734,0.385 1.493,0.718 2.25,1.056 0.468,0.209 0.763,-0.453 0.294,-0.662 -0.74,-0.33 -1.482,-0.655 -2.201,-1.031 -0.218,-0.117 -0.294,-0.157 -0.494,-0.273 -0.023,-0.013 -0.045,-0.040 -0.070,-0.042 -0.051,-0.110 -0.118,-0.209 -0.208,-0.349 -0.09,-0.149 -0.177,-0.297 -0.246,-0.458 -0.023,-0.055 -0.040,-0.116 -0.046,-0.111 -0.036,0.032 -0.058,0.076 -0.089,0.115 -0.037,0.017 -0.072,0.044 -0.113,0.052 -0.043,0.008 -0.089,0.004 -0.134,-0.003 0.069,0.004 0.131,-0.177 0.218,-0.449 0.088,-0.087 0.149,-0.167 0.070,-0.207 -0.384,-0.294 -0.76,-0.600 -1.124,-0.916 -0.536,-0.472 -1.089,-0.943 -1.519,-1.519 -0.073,-0.105 -0.165,-0.158 -0.257,-0.171 z m 3.457,4.037 c 0.012,0.012 0.022,0.023 0.027,0.039 0.015,0.051 0.017,0.083 0.023,0.123 -0.012,-0.060 -0.029,-0.115 -0.050,-0.162 z" id="path6435" />
<path style="fill:#000000" d="m 4.476,17.111 c -0.279,0.024 -0.479,0.392 -0.191,0.648 0.636,0.565 1.276,1.125 1.921,1.681 0.461,0.405 0.945,0.784 1.453,1.128 0.425,0.287 0.831,-0.314 0.406,-0.601 -0.484,-0.327 -0.944,-0.689 -1.384,-1.076 -0.642,-0.553 -1.280,-1.111 -1.914,-1.675 -0.096,-0.085 -0.197,-0.113 -0.291,-0.105 z" id="path6437" />
<path style="fill:#000000" d="m 8.216,20.072 c -0.363,-0.016 -0.548,0.510 -0.142,0.701 0.900,0.397 1.799,0.804 2.691,1.222 0.836,0.412 1.704,0.749 2.570,1.093 0.197,0.081 0.108,0.042 0.269,0.111 0.472,0.2 0.755,-0.466 0.283,-0.667 -0.171,-0.072 -0.077,-0.033 -0.285,-0.119 -0.852,-0.337 -1.708,-0.667 -2.531,-1.074 -0.892,-0.418 -1.788,-0.826 -2.689,-1.224 -0.058,-0.027 -0.114,-0.040 -0.166,-0.042 z" id="path6439" />
<path style="fill:#000000" d="m 14.216,19.349 c -0.363,-0.001 -0.526,0.531 -0.111,0.705 0.725,0.311 1.461,0.592 2.199,0.875 0.563,0.228 1.156,0.397 1.699,0.675 0.051,0.028 0.097,0.059 0.146,0.091 0.434,0.273 0.820,-0.337 0.386,-0.611 -0.068,-0.043 -0.134,-0.089 -0.207,-0.126 -0.567,-0.286 -1.178,-0.472 -1.767,-0.705 -0.73,-0.279 -1.459,-0.558 -2.177,-0.867 -0.059,-0.024 -0.115,-0.036 -0.167,-0.037 z" id="path6445" />
<path style="fill:#000000" d="m 18.435,21.070 c -0.357,0.068 -0.412,0.622 0.027,0.712 0.246,0.062 0.485,0.145 0.726,0.226 0.486,0.164 0.718,-0.522 0.232,-0.687 -0.269,-0.091 -0.537,-0.183 -0.814,-0.25 -0.062,-0.012 -0.120,-0.011 -0.171,-0.002 z" id="path6447" />
<path style="fill:#000000" d="m 14.652,0 c 0.123,0.570 0.258,1.138 0.423,1.697 0.028,0.086 0.056,0.170 0.085,0.257 0.162,0.486 0.851,0.257 0.689,-0.228 -0.026,-0.078 -0.052,-0.156 -0.078,-0.234 C 15.628,1.000 15.511,0.500 15.398,0 Z" id="path6457" />
<path style="fill:#000000" d="m 15.435,0 c 0.195,0.569 0.353,1.151 0.519,1.730 0.141,0.492 0.839,0.292 0.697,-0.199 C 16.505,1.019 16.356,0.507 16.191,0 Z" id="path6459" />
<path style="fill:#000000" d="m 16.152,0 c 0.248,0.541 0.479,1.091 0.742,1.626 0.226,0.46 0.876,0.139 0.650,-0.320 C 17.333,0.876 17.144,0.436 16.947,0 Z" id="path6461" />
<path style="fill:#000000" d="m 16.677,0 c -0.039,0.284 -0.035,0.236 -0.080,0.636 -0.057,0.509 0.662,0.592 0.720,0.082 0.049,-0.443 0.019,-0.205 0.089,-0.708 5.34e-4,-0.003 0.001,-0.006 0.002,-0.009 z" id="path6465" />
<path style="fill:#000000" d="m 17.318,0 c -0.018,0.082 -0.036,0.165 -0.054,0.248 -0.135,0.614 -0.068,0.316 -0.195,0.898 -0.109,0.501 0.598,0.656 0.708,0.154 0.126,-0.579 0.060,-0.281 0.195,-0.896 C 18.002,0.269 18.030,0.134 18.060,0 Z" id="path6467" />
<path style="fill:#000000" d="m 17.593,1.115 c -0.616,0.039 -1.232,0.114 -1.833,0.263 -0.498,0.121 -0.325,0.824 0.171,0.703 0.559,-0.138 1.133,-0.206 1.707,-0.242 0.512,-0.032 0.466,-0.756 -0.044,-0.724 z" id="path6469" />
<path style="fill:#000000" d="m 16.205,1.724 c -0.360,0.042 -0.459,0.591 -0.029,0.714 h 0.002 c 0.328,0.083 0.670,0.063 1.005,0.052 0.512,-0.017 0.486,-0.742 -0.025,-0.724 -0.26,0.009 -0.526,0.028 -0.783,-0.027 -0.061,-0.017 -0.118,-0.021 -0.169,-0.015 z" id="path6471" />
<path style="fill:#000000" d="m 17.292,0 c 0.165,0.519 0.362,1.027 0.576,1.529 0.044,0.097 0.088,0.194 0.132,0.292 0.211,0.467 0.871,0.169 0.660,-0.296 -0.041,-0.092 -0.083,-0.186 -0.125,-0.279 C 18.362,0.837 18.204,0.421 18.060,0 Z" id="path6473" />
<path style="fill:#000000" d="m 18.326,0 c 0.100,0.292 0.197,0.587 0.296,0.880 0.044,0.117 0.088,0.236 0.132,0.355 0.179,0.48 0.857,0.228 0.677,-0.251 -0.041,-0.112 -0.083,-0.223 -0.125,-0.335 C 19.235,0.432 19.162,0.216 19.089,0 Z" id="path6475" />
<path style="fill:#000000" d="m 19.224,0 c 0.010,0.032 0.022,0.065 0.033,0.097 0.028,0.089 0.057,0.176 0.085,0.265 0.157,0.488 0.847,0.267 0.689,-0.220 C 20.018,0.095 20.003,0.047 19.988,0 Z" id="path6477" />
<path style="fill:#000000" d="m 15.048,0 c 0.087,0.309 0.557,0.374 0.685,0 z" id="path6503" />
<path style="fill:#000000" d="m 8.296,0 c 0.206,0.341 0.409,0.685 0.625,1.021 0.277,0.431 0.887,0.038 0.609,-0.392 C 9.398,0.422 9.275,0.208 9.146,0 Z" id="path6507" />
<path style="fill:#000000" d="M 9.107,0 C 9.144,0.063 9.183,0.126 9.220,0.189 9.444,0.569 9.933,0.349 9.902,0 Z" id="path6509" />
<path style="fill:#000000" d="M 10.712,0 C 10.609,0.479 11.290,0.651 11.417,0.162 11.431,0.105 11.462,0.055 11.480,0 Z" id="path6523" />
<path style="fill:#000000" d="M 9.285,0 C 9.082,0.115 8.875,0.222 8.675,0.341 8.235,0.604 8.607,1.226 9.046,0.962 9.610,0.625 10.186,0.308 10.767,0 Z" id="path6529" />
<path style="fill:#000000" d="m 10.628,0 c -0.559,0.358 -1.114,0.724 -1.654,1.113 -0.424,0.289 -0.014,0.888 0.408,0.599 l 0.001,0.001 c 0.555,-0.399 1.124,-0.780 1.701,-1.148 l 0.300,-0.179 C 11.553,0.286 11.600,0.135 11.574,0 Z" id="path6531" />
<path style="fill:#000000" d="m 11.5,0.425 c -0.051,0.009 -0.102,0.029 -0.156,0.064 L 11.066,0.671 c -0.516,0.338 -1.027,0.682 -1.556,1 -0.45,0.245 -0.101,0.882 0.347,0.636 0.546,-0.326 1.073,-0.682 1.605,-1.031 0.091,-0.059 0.183,-0.117 0.275,-0.177 C 12.114,0.855 11.857,0.358 11.5,0.425 Z" id="path6533" />
<path style="fill:#000000" d="m 11.509,1.328 c -0.091,-0.016 -0.196,0.003 -0.298,0.080 -0.398,0.297 -0.803,0.588 -1.230,0.845 -0.451,0.244 -0.106,0.882 0.343,0.638 v -0.001 c 0.458,-0.272 0.891,-0.582 1.318,-0.900 0.308,-0.229 0.143,-0.613 -0.132,-0.662 z" id="path6535" />
<path style="fill:#000000" d="m 11.371,0 c 0.080,0.444 0.170,0.886 0.273,1.326 0.034,0.132 0.069,0.265 0.103,0.398 0.129,0.496 0.830,0.313 0.701,-0.181 L 12.351,1.162 C 12.260,0.777 12.176,0.389 12.103,0 Z" id="path6537" />
<path style="fill:#000000" d="m 12.064,0 c 0.156,0.483 0.312,0.967 0.470,1.451 0.159,0.487 0.849,0.262 0.689,-0.224 C 13.091,0.818 12.957,0.409 12.826,0 Z" id="path6539" />
<path style="fill:#000000" d="m 12.853,0 c 0.105,0.331 0.213,0.660 0.318,0.992 0.131,0.415 0.266,0.830 0.410,1.242 0.169,0.484 0.855,0.243 0.685,-0.240 -0.14,-0.404 -0.274,-0.811 -0.404,-1.220 C 13.781,0.515 13.696,0.257 13.615,0 Z" id="path6541" />
<path style="fill:#000000" d="m 12.578,1.474 c -0.362,-0.002 -0.523,0.529 -0.113,0.705 0.300,0.138 0.618,0.227 0.939,0.304 0.5,0.116 0.664,-0.591 0.164,-0.707 -0.282,-0.063 -0.560,-0.144 -0.824,-0.265 -0.059,-0.024 -0.114,-0.036 -0.166,-0.037 z" id="path6543" />
<path style="fill:#000000" d="m 13.289,0 c -0.017,0.058 -0.029,0.085 -0.076,0.240 -0.148,0.490 0.544,0.701 0.693,0.210 C 13.992,0.164 14.022,0.081 14.048,0 Z" id="path6547" />
<path style="fill:#000000" d="m 13.960,0 c -0.106,0.241 -0.225,0.477 -0.328,0.720 -0.155,0.386 -0.083,0.201 -0.212,0.550 -0.178,0.481 0.501,0.733 0.679,0.251 0.121,-0.327 0.054,-0.152 0.201,-0.521 C 14.443,0.664 14.602,0.333 14.755,0 Z" id="path6549" />
<path style="fill:#000000" d="m 14.908,0.392 c -0.134,-0.023 -0.282,0.027 -0.380,0.193 -0.232,0.407 -0.428,0.835 -0.591,1.275 -0.177,0.481 0.502,0.731 0.679,0.25 0.146,-0.398 0.326,-0.786 0.535,-1.156 0.163,-0.275 -0.018,-0.523 -0.242,-0.562 z" id="path6551" />
<path style="fill:#000000" d="m 14.880,1.361 c -0.360,-0.052 -0.593,0.454 -0.207,0.683 0.203,0.116 0.094,0.055 0.318,0.183 0.445,0.253 0.805,-0.376 0.359,-0.630 -0.218,-0.123 -0.114,-0.064 -0.308,-0.175 -0.055,-0.032 -0.110,-0.053 -0.162,-0.060 z" id="path6553" />
<path style="fill:#000000" d="m 10.947,1.375 c -0.179,0.024 -0.342,0.175 -0.308,0.429 0.04,0.375 0.107,0.745 0.185,1.115 0.106,0.501 0.815,0.350 0.708,-0.150 -0.074,-0.351 -0.136,-0.704 -0.175,-1.062 C 11.323,1.453 11.127,1.350 10.947,1.375 Z" id="path6555" />
<path style="fill:#000000" d="m 12.062,1.162 c -0.180,-0.006 -0.366,0.116 -0.376,0.371 -0.032,0.707 -0.005,1.415 0.058,2.121 0.062,0.54 0.030,0.282 0.095,0.769 0.068,0.508 0.786,0.411 0.718,-0.095 -0.063,-0.468 -0.030,-0.221 -0.091,-0.740 -0.062,-0.674 -0.088,-1.349 -0.056,-2.027 0.009,-0.256 -0.166,-0.391 -0.347,-0.398 z" id="path6557" />
<path style="fill:#000000" d="m 12.675,1.953 c -0.181,0.002 -0.360,0.132 -0.357,0.388 0.017,0.809 0.111,1.615 0.203,2.419 0.069,0.563 0.034,0.298 0.095,0.791 0.063,0.509 0.783,0.420 0.720,-0.087 -0.06,-0.49 -0.028,-0.228 -0.097,-0.785 -0.089,-0.779 -0.178,-1.561 -0.195,-2.347 -0.003,-0.256 -0.187,-0.381 -0.369,-0.378 z" id="path6559" />
<path style="fill:#000000" d="m 11.207,2.037 c -0.227,4.492e-4 -0.449,0.214 -0.335,0.513 0.207,0.566 0.433,1.125 0.662,1.683 0.194,0.474 0.866,0.198 0.671,-0.275 -0.226,-0.552 -0.448,-1.106 -0.654,-1.666 -0.067,-0.179 -0.207,-0.256 -0.343,-0.255 z" id="path6561" />
<path style="fill:#000000" d="M 6.890,6.078 C 6.664,6.062 6.425,6.257 6.517,6.564 c 0.12,0.434 0.263,0.860 0.408,1.287 0.164,0.486 0.851,0.252 0.687,-0.232 -0.141,-0.418 -0.282,-0.835 -0.400,-1.261 C 7.157,6.173 7.026,6.087 6.890,6.078 Z" id="path6563" />
<path style="fill:#000000" d="m 7.144,4.443 c -0.226,0.018 -0.430,0.247 -0.292,0.537 0.425,0.963 0.815,1.942 1.216,2.917 0.059,0.146 0.117,0.293 0.177,0.439 0.194,0.475 0.865,0.198 0.671,-0.275 -0.059,-0.146 -0.119,-0.293 -0.179,-0.439 -0.405,-0.986 -0.798,-1.977 -1.230,-2.953 C 7.425,4.496 7.280,4.432 7.144,4.443 Z" id="path6565" />
<path style="fill:#000000" d="m 7.929,4.343 c -0.222,0.042 -0.401,0.293 -0.234,0.566 0.402,0.677 0.706,1.406 1.011,2.130 0.273,0.654 0.137,0.337 0.404,0.947 0.205,0.47 0.870,0.177 0.664,-0.291 C 9.513,7.098 9.648,7.412 9.375,6.759 9.056,6.002 8.737,5.239 8.314,4.531 8.213,4.367 8.063,4.318 7.929,4.343 Z" id="path6567" />
<path style="fill:#000000" d="M 9.566,5.169 C 9.386,5.146 9.191,5.251 9.158,5.505 H 9.156 c -0.081,0.638 -0.156,1.275 -0.195,1.917 -0.031,0.512 0.692,0.556 0.724,0.044 0.038,-0.626 0.112,-1.249 0.191,-1.871 0.033,-0.253 -0.130,-0.404 -0.310,-0.427 z" id="path6569" />
<path style="fill:#000000" d="M 10.488,5.310 C 10.354,5.335 10.231,5.435 10.197,5.625 c -0.116,0.682 -0.222,1.365 -0.320,2.050 -0.017,0.148 -0.035,0.295 -0.052,0.443 -0.06,0.509 0.660,0.594 0.720,0.085 0.016,-0.142 0.031,-0.285 0.048,-0.427 0.096,-0.676 0.203,-1.350 0.318,-2.023 0.056,-0.315 -0.200,-0.484 -0.423,-0.443 z" id="path6571" />
<path style="fill:#000000" d="M 11.337,5.507 C 11.203,5.528 11.077,5.624 11.037,5.812 c -0.126,0.747 -0.206,1.500 -0.289,2.253 -0.052,0.507 -0.028,0.270 -0.068,0.710 -0.045,0.510 0.675,0.575 0.720,0.064 0.037,-0.427 0.017,-0.196 0.068,-0.695 0.08,-0.728 0.158,-1.457 0.277,-2.181 0.067,-0.313 -0.183,-0.490 -0.408,-0.457 z" id="path6573" />
<path style="fill:#000000" d="m 12.105,5.435 c -0.180,-0.014 -0.369,0.100 -0.390,0.355 -0.074,0.800 -0.157,1.601 -0.187,2.406 -0.019,0.512 0.705,0.539 0.724,0.027 0.029,-0.794 0.112,-1.584 0.185,-2.376 0.02,-0.255 -0.151,-0.397 -0.332,-0.412 z" id="path6575" />
<path style="fill:#000000" d="m 13.75,2.728 c -0.135,-0.008 -0.278,0.058 -0.357,0.234 -0.205,0.475 -0.381,0.961 -0.542,1.453 -0.159,0.487 0.530,0.712 0.689,0.224 0.152,-0.467 0.319,-0.926 0.513,-1.378 C 14.184,2.969 13.976,2.743 13.75,2.728 Z" id="path6577" />
<path style="fill:#000000" d="m 14.410,3.261 c -0.092,0.009 -0.185,0.059 -0.263,0.162 -0.375,0.601 -0.626,1.273 -0.882,1.931 -0.209,0.591 -0.115,0.308 -0.285,0.847 -0.154,0.489 0.537,0.707 0.691,0.218 0.159,-0.508 0.071,-0.240 0.269,-0.802 0.232,-0.596 0.462,-1.203 0.785,-1.757 0.232,-0.306 -0.035,-0.629 -0.314,-0.599 z" id="path6579" />
<path style="fill:#000000" d="m 15.294,3.650 c -0.134,-0.020 -0.282,0.033 -0.376,0.201 -0.307,0.589 -0.593,1.189 -0.880,1.789 -0.233,0.494 -0.123,0.257 -0.330,0.710 -0.213,0.466 0.447,0.767 0.660,0.300 0.201,-0.443 0.094,-0.211 0.324,-0.699 0.279,-0.584 0.559,-1.169 0.857,-1.744 0.158,-0.278 -0.029,-0.523 -0.253,-0.558 z" id="path6581" />
<path style="fill:#000000" d="m 15.734,4.210 c -0.134,-0.021 -0.283,0.031 -0.378,0.199 h 0.002 c -0.086,0.156 -0.164,0.316 -0.244,0.476 -0.229,0.457 0.418,0.784 0.648,0.326 0.073,-0.147 0.143,-0.296 0.222,-0.441 0.159,-0.278 -0.025,-0.524 -0.25,-0.560 z" id="path6583" />
<path style="fill:#000000" d="m 13.197,5.835 c -0.051,-0.003 -0.109,0.004 -0.169,0.025 -0.288,0.098 -0.577,0.198 -0.873,0.273 -0.5,0.113 -0.338,0.821 0.160,0.707 v 0.001 c 0.32,-0.08 0.634,-0.187 0.947,-0.294 0.424,-0.144 0.298,-0.689 -0.064,-0.712 z" id="path6585" />
<path style="fill:#000000" d="m 14.013,6.351 c -0.051,0.001 -0.107,0.014 -0.166,0.041 -0.104,0.047 -0.208,0.094 -0.312,0.142 -0.668,0.315 -1.330,0.643 -1.986,0.984 -0.456,0.233 -0.125,0.878 0.330,0.644 v 0.001 c 0.649,-0.337 1.303,-0.661 1.964,-0.974 0.101,-0.046 0.202,-0.092 0.304,-0.138 0.407,-0.186 0.228,-0.714 -0.134,-0.701 z" id="path6587" />
<path style="fill:#000000" d="m 14.703,7.062 c -0.051,-6.426e-4 -0.108,0.009 -0.167,0.033 -0.138,0.054 -0.276,0.109 -0.414,0.164 -0.773,0.302 -1.544,0.618 -2.337,0.867 -0.498,0.121 -0.325,0.826 0.171,0.705 0.825,-0.251 1.627,-0.582 2.431,-0.896 0.139,-0.055 0.277,-0.110 0.417,-0.166 C 15.221,7.604 15.066,7.066 14.703,7.062 Z" id="path6589" />
<path style="fill:#000000" d="m 14.566,7.990 c -0.051,-8.321e-4 -0.108,0.009 -0.167,0.033 -0.633,0.25 -1.267,0.504 -1.910,0.732 -0.494,0.138 -0.295,0.836 0.197,0.697 0.667,-0.231 1.321,-0.496 1.978,-0.755 0.417,-0.164 0.266,-0.701 -0.097,-0.707 z" id="path6591" />
<path style="fill:#000000" d="m 14.515,6.007 c -0.226,-0.019 -0.467,0.172 -0.380,0.480 0.169,0.627 0.299,1.264 0.435,1.900 0.107,0.501 0.816,0.348 0.708,-0.152 -0.139,-0.65 -0.273,-1.301 -0.447,-1.943 -0.051,-0.185 -0.180,-0.273 -0.316,-0.285 z" id="path6593" />
<path style="fill:#000000" d="m 15.435,7.093 c -0.179,0.025 -0.342,0.176 -0.306,0.429 h 0.002 c 0.125,0.81 0.305,1.611 0.515,2.404 0.131,0.494 0.833,0.307 0.701,-0.187 -0.203,-0.764 -0.377,-1.535 -0.5,-2.316 -0.035,-0.254 -0.232,-0.355 -0.412,-0.330 z" id="path6595" />
<path style="fill:#000000" d="m 16.273,7.189 c -0.226,-0.009 -0.459,0.191 -0.359,0.496 0.217,0.709 0.387,1.430 0.580,2.146 0.135,0.476 0.070,0.251 0.197,0.677 0.147,0.491 0.842,0.281 0.695,-0.208 -0.123,-0.409 -0.059,-0.192 -0.191,-0.656 -0.195,-0.727 -0.369,-1.461 -0.591,-2.183 -0.06,-0.182 -0.193,-0.265 -0.330,-0.271 z" id="path6597" />
<path style="fill:#000000" d="m 17.064,7.583 c -0.227,-0.002 -0.451,0.209 -0.341,0.509 0.213,0.615 0.405,1.236 0.603,1.857 0.155,0.489 0.847,0.269 0.691,-0.218 -0.2,-0.63 -0.397,-1.261 -0.613,-1.886 -0.065,-0.180 -0.203,-0.260 -0.339,-0.261 z" id="path6599" />
<path style="fill:#000000" d="m 12.365,8.507 c -0.222,0.039 -0.402,0.287 -0.242,0.562 0.467,0.834 0.933,1.669 1.423,2.492 0.262,0.44 0.886,0.068 0.623,-0.371 -0.489,-0.821 -0.955,-1.656 -1.423,-2.490 -0.097,-0.165 -0.246,-0.216 -0.380,-0.193 z" id="path6601" />
<path style="fill:#000000" d="m 13.595,8.480 c -0.226,0.018 -0.430,0.248 -0.292,0.537 h -0.002 c 0.378,0.8 0.768,1.596 1.162,2.390 0.277,0.546 0.144,0.288 0.396,0.771 0.237,0.454 0.879,0.120 0.642,-0.333 -0.247,-0.474 -0.116,-0.221 -0.390,-0.759 -0.392,-0.789 -0.777,-1.581 -1.154,-2.378 -0.082,-0.173 -0.225,-0.237 -0.361,-0.226 z" id="path6603" />
<path style="fill:#000000" d="m 14.474,8.216 c -0.275,-0.050 -0.566,0.250 -0.357,0.574 0.427,0.818 0.803,1.662 1.207,2.492 0.224,0.461 0.877,0.143 0.652,-0.316 -0.417,-0.856 -0.799,-1.731 -1.25,-2.570 -0.069,-0.107 -0.160,-0.162 -0.251,-0.179 z" id="path6605" />
<path style="fill:#000000" d="m 16.654,9.787 c -0.051,-7.364e-4 -0.108,0.009 -0.167,0.033 -0.457,0.180 -0.913,0.365 -1.355,0.582 -0.464,0.218 -0.155,0.875 0.308,0.656 0.428,-0.21 0.870,-0.388 1.314,-0.564 0.417,-0.164 0.264,-0.701 -0.099,-0.707 z" id="path6607" />
<path style="fill:#000000" d="m 17.308,10.464 c -0.051,0.005 -0.105,0.022 -0.162,0.052 -0.108,0.058 -0.218,0.115 -0.326,0.173 -0.525,0.287 -1.049,0.576 -1.546,0.912 -0.449,0.248 -0.098,0.881 0.349,0.632 0.496,-0.333 1.020,-0.621 1.544,-0.908 0.107,-0.057 0.214,-0.115 0.322,-0.173 0.394,-0.212 0.180,-0.727 -0.181,-0.689 z" id="path6609" />
<path style="fill:#000000" d="m 18.138,10.916 c -0.051,0.009 -0.104,0.029 -0.158,0.064 -0.093,0.06 -0.187,0.119 -0.281,0.179 -0.577,0.336 -1.165,0.649 -1.761,0.951 -0.471,0.203 -0.182,0.869 0.287,0.666 0.623,-0.312 1.236,-0.640 1.839,-0.990 l 0.306,-0.195 c 0.378,-0.240 0.125,-0.739 -0.232,-0.675 z" id="path6611" />
<path style="fill:#000000" d="m 15.431,7.939 c -0.135,-0.010 -0.278,0.056 -0.359,0.230 -0.139,0.316 -0.244,0.647 -0.351,0.976 -0.158,0.487 0.530,0.710 0.689,0.222 0.098,-0.301 0.194,-0.601 0.320,-0.892 0.135,-0.290 -0.072,-0.520 -0.298,-0.537 z" id="path6613" />
<path style="fill:#000000" d="m 18.353,7.658 c -0.135,-0.010 -0.280,0.056 -0.361,0.230 h 0.002 c -0.272,0.686 -0.480,1.395 -0.675,2.107 -0.028,0.117 -0.056,0.234 -0.085,0.351 -0.122,0.498 0.581,0.670 0.703,0.171 l 0.082,-0.332 c 0.183,-0.673 0.380,-1.343 0.632,-1.994 0.134,-0.290 -0.070,-0.518 -0.296,-0.535 z" id="path6615" />
<path style="fill:#000000" d="m 19.224,7.574 c -0.136,-0.005 -0.277,0.063 -0.353,0.240 l 0.002,0.001 c -0.31,0.735 -0.522,1.508 -0.722,2.279 -0.032,0.139 -0.064,0.277 -0.097,0.416 -0.117,0.5 0.590,0.666 0.707,0.166 0.031,-0.134 0.061,-0.268 0.093,-0.402 0.19,-0.736 0.390,-1.473 0.685,-2.175 0.125,-0.294 -0.087,-0.515 -0.314,-0.525 z" id="path6617" />
<path style="fill:#000000" d="m 19.910,7.812 c -0.135,-0.011 -0.278,0.054 -0.361,0.228 -0.338,0.811 -0.595,1.653 -0.833,2.498 -0.139,0.493 0.558,0.691 0.697,0.197 0.227,-0.804 0.472,-1.609 0.791,-2.384 0.137,-0.289 -0.066,-0.520 -0.292,-0.539 z" id="path6619" />
<path style="fill:#000000" d="m 21.025,5.542 c -0.093,0.006 -0.190,0.053 -0.271,0.152 -0.317,0.384 -0.627,0.774 -0.929,1.171 -0.31,0.408 0.265,0.847 0.576,0.439 0.297,-0.39 0.604,-0.774 0.916,-1.152 0.243,-0.297 -0.011,-0.631 -0.291,-0.611 z" id="path6621" />
<path style="fill:#000000" d="m 21.128,6.910 c -0.093,0.001 -0.192,0.042 -0.279,0.136 -0.380,0.419 -0.757,0.843 -1.128,1.273 -0.335,0.388 0.212,0.862 0.548,0.474 0.366,-0.424 0.738,-0.844 1.115,-1.259 0.259,-0.283 0.024,-0.628 -0.255,-0.625 z" id="path6623" />
<path style="fill:#000000" d="m 21.324,8.027 c -0.093,-8.125e-4 -0.192,0.036 -0.281,0.128 -0.372,0.353 -0.747,0.705 -1.107,1.070 -0.197,0.2 -0.381,0.41 -0.562,0.625 -0.33,0.391 0.225,0.858 0.556,0.466 0.168,-0.2 0.339,-0.396 0.523,-0.583 0.362,-0.368 0.740,-0.719 1.113,-1.076 0.266,-0.277 0.038,-0.628 -0.242,-0.630 z" id="path6625" />
<path style="fill:#000000" d="m 21.294,8.998 c -0.134,-0.022 -0.282,0.032 -0.378,0.199 -0.37,0.524 -0.803,1.001 -1.222,1.486 -0.077,0.088 -0.153,0.177 -0.230,0.265 -0.336,0.387 0.209,0.863 0.546,0.476 0.077,-0.089 0.153,-0.178 0.230,-0.267 0.449,-0.519 0.917,-1.030 1.304,-1.599 0.16,-0.277 -0.026,-0.523 -0.25,-0.560 z" id="path6627" />
<path style="fill:#000000" d="m 16.701,11.599 c -0.226,0.016 -0.433,0.244 -0.298,0.535 0.26,0.615 0.515,1.231 0.792,1.839 0.213,0.466 0.873,0.165 0.660,-0.300 -0.278,-0.609 -0.532,-1.227 -0.794,-1.843 -0.080,-0.174 -0.223,-0.240 -0.359,-0.230 z" id="path6629" />
<path style="fill:#000000" d="m 17.437,11.314 c -0.227,-0.008 -0.457,0.196 -0.355,0.5 v 0.002 c 0.255,0.768 0.548,1.522 0.855,2.271 0.245,0.573 0.126,0.300 0.353,0.814 0.207,0.469 0.870,0.176 0.662,-0.292 -0.222,-0.503 -0.105,-0.235 -0.345,-0.796 -0.301,-0.734 -0.587,-1.474 -0.837,-2.228 C 17.708,11.401 17.573,11.319 17.437,11.314 Z" id="path6631" />
<path style="fill:#000000" d="m 17.966,11.212 c -0.225,0.028 -0.421,0.267 -0.271,0.550 0.366,0.764 0.699,1.545 1.039,2.322 l 0.205,0.464 c 0.206,0.469 0.870,0.177 0.664,-0.291 -0.068,-0.154 -0.135,-0.309 -0.203,-0.464 -0.347,-0.793 -0.686,-1.589 -1.062,-2.369 -0.089,-0.169 -0.235,-0.230 -0.371,-0.212 z" id="path6633" />
<path style="fill:#000000" d="m 18.587,10.886 c -0.224,0.031 -0.413,0.274 -0.261,0.554 0.415,0.833 0.764,1.697 1.144,2.548 0.243,0.524 0.126,0.277 0.349,0.740 0.222,0.462 0.875,0.146 0.652,-0.314 -0.217,-0.45 -0.102,-0.210 -0.339,-0.720 -0.387,-0.867 -0.741,-1.751 -1.169,-2.601 -0.092,-0.168 -0.240,-0.226 -0.375,-0.207 z" id="path6635" />
<path style="fill:#000000" d="m 19.263,10.468 c -0.278,-0.026 -0.539,0.300 -0.302,0.603 h -0.002 c 0.448,0.752 0.788,1.562 1.140,2.363 0.07,0.161 0.140,0.324 0.210,0.486 0.205,0.47 0.871,0.178 0.666,-0.291 -0.07,-0.162 -0.141,-0.324 -0.212,-0.486 -0.376,-0.854 -0.736,-1.724 -1.232,-2.517 -0.078,-0.101 -0.174,-0.149 -0.267,-0.158 z" id="path6637" />
<path style="fill:#000000" d="m 20.236,10.433 c -0.227,0.001 -0.448,0.214 -0.333,0.513 h 0.002 c 0.248,0.7 0.483,1.406 0.726,2.109 0.167,0.485 0.851,0.247 0.683,-0.236 -0.245,-0.709 -0.482,-1.424 -0.734,-2.132 -0.068,-0.179 -0.207,-0.254 -0.343,-0.253 z" id="path6639" />
<path style="fill:#000000" d="m 21.001,9.824 c -0.224,-0.035 -0.477,0.139 -0.412,0.453 h -0.002 c 0.133,0.721 0.253,1.444 0.376,2.167 0.086,0.505 0.800,0.383 0.714,-0.121 -0.124,-0.731 -0.245,-1.463 -0.380,-2.193 -0.039,-0.188 -0.162,-0.285 -0.296,-0.306 z" id="path6641" />
<path style="fill:#000000" d="m 5.833,9.509 c -0.279,-0.022 -0.537,0.307 -0.296,0.607 0.391,0.501 0.792,0.998 1.207,1.482 0.334,0.389 0.884,-0.082 0.550,-0.472 -0.409,-0.477 -0.803,-0.966 -1.191,-1.462 -0.080,-0.1 -0.176,-0.146 -0.269,-0.154 z" id="path6643" />
<path style="fill:#000000" d="m 6.177,8.351 c -0.222,0.043 -0.401,0.294 -0.232,0.566 0.443,0.686 0.901,1.364 1.363,2.039 0.286,0.406 0.149,0.215 0.412,0.574 0.303,0.414 0.886,-0.013 0.583,-0.427 -0.252,-0.344 -0.118,-0.158 -0.396,-0.552 C 7.453,9.884 7.000,9.215 6.562,8.537 6.461,8.373 6.311,8.325 6.177,8.351 Z" id="path6645" />
<path style="fill:#000000" d="M 6.576,7.705 C 6.295,7.704 6.064,8.053 6.328,8.333 h -0.001 c 0.555,0.634 1.049,1.321 1.550,1.998 0.376,0.516 0.197,0.269 0.539,0.742 0.3,0.415 0.887,-0.009 0.587,-0.425 -0.343,-0.476 -0.162,-0.227 -0.542,-0.748 -0.518,-0.7 -1.028,-1.409 -1.605,-2.062 -0.087,-0.093 -0.185,-0.132 -0.279,-0.132 z" id="path6647" />
<path style="fill:#000000" d="m 7.511,7.300 c -0.179,0.027 -0.337,0.182 -0.298,0.435 0.072,0.563 0.111,1.132 0.169,1.697 0.052,0.51 0.773,0.435 0.720,-0.074 -0.059,-0.577 -0.096,-1.156 -0.173,-1.732 -0.039,-0.253 -0.238,-0.353 -0.417,-0.326 z" id="path6649" />
<path style="fill:#000000" d="m 8.488,7.720 c -0.180,0.009 -0.352,0.147 -0.339,0.402 0,0 0,0.001 0,0.001 0.035,0.719 0.078,1.437 0.136,2.156 0.041,0.511 0.765,0.454 0.724,-0.056 -0.057,-0.711 -0.102,-1.424 -0.138,-2.138 -0.014,-0.256 -0.201,-0.375 -0.382,-0.365 z" id="path6651" />
<path style="fill:#000000" d="m 9.318,7.894 c -0.180,0.014 -0.352,0.157 -0.332,0.412 0.067,0.915 0.089,1.833 0.125,2.750 0.006,0.14 0.012,0.280 0.019,0.421 0.023,0.512 0.747,0.478 0.724,-0.033 -0.006,-0.138 -0.012,-0.278 -0.019,-0.417 C 9.799,10.101 9.777,9.174 9.708,8.25 9.688,7.994 9.499,7.880 9.318,7.894 Z" id="path6653" />
<path style="fill:#000000" d="m 10.232,7.941 c -0.181,0.004 -0.360,0.138 -0.353,0.394 l 0.001,-0.001 c 0.023,0.688 0.058,1.376 0.095,2.064 0.03,0.561 0.069,1.120 0.119,1.681 0.045,0.511 0.766,0.447 0.720,-0.062 -0.049,-0.551 -0.086,-1.103 -0.117,-1.656 -0.036,-0.680 -0.071,-1.362 -0.095,-2.044 -0.006,-0.256 -0.189,-0.379 -0.371,-0.375 z" id="path6655" />
<path style="fill:#000000" d="m 11.080,8.509 c -0.180,0.016 -0.349,0.159 -0.326,0.414 0.082,0.937 0.159,1.875 0.248,2.812 0.015,0.149 0.030,0.297 0.046,0.447 0.052,0.51 0.773,0.434 0.720,-0.074 -0.015,-0.147 -0.029,-0.293 -0.044,-0.441 -0.089,-0.935 -0.165,-1.872 -0.248,-2.808 -0.022,-0.255 -0.215,-0.365 -0.396,-0.349 z" id="path6657" />
<path style="fill:#000000" d="m 11.845,8.650 c -0.178,0.031 -0.334,0.188 -0.289,0.441 0.096,0.747 0.120,1.502 0.152,2.255 0.005,0.161 0.010,0.321 0.015,0.482 0.016,0.512 0.740,0.490 0.724,-0.021 l -0.015,-0.492 c -0.034,-0.784 -0.059,-1.572 -0.164,-2.351 -0.044,-0.252 -0.245,-0.346 -0.423,-0.314 z" id="path6659" />
<path style="fill:#000000" d="m 6.533,10.798 c -0.051,-0.006 -0.108,-0.003 -0.169,0.013 -0.329,0.089 -0.659,0.180 -0.982,0.298 -0.481,0.177 -0.231,0.859 0.25,0.681 0.302,-0.109 0.611,-0.197 0.921,-0.281 0.433,-0.117 0.341,-0.666 -0.019,-0.712 z" id="path6661" />
<path style="fill:#000000" d="m 8.134,11.111 c -0.051,-0.002 -0.107,0.005 -0.167,0.027 -0.124,0.044 -0.247,0.088 -0.371,0.132 -0.705,0.255 -1.405,0.537 -2.134,0.722 -0.501,0.111 -0.343,0.819 0.156,0.708 0.76,-0.188 1.488,-0.483 2.224,-0.75 0.123,-0.044 0.248,-0.087 0.371,-0.132 0.422,-0.151 0.285,-0.691 -0.078,-0.708 z" id="path6663" />
<path style="fill:#000000" d="m 9.759,11.197 c -0.051,-0.003 -0.109,0.003 -0.169,0.023 -0.545,0.178 -1.086,0.370 -1.619,0.583 -0.687,0.275 -1.372,0.555 -2.056,0.841 -0.479,0.182 -0.219,0.859 0.259,0.677 0.687,-0.286 1.375,-0.568 2.066,-0.845 0.518,-0.207 1.045,-0.394 1.576,-0.568 0.426,-0.139 0.306,-0.685 -0.056,-0.712 z" id="path6665" />
<path style="fill:#000000" d="M 7.175,12.007 C 6.994,12.006 6.814,12.132 6.812,12.388 v 0.002 c 0.025,0.602 0.109,1.201 0.259,1.785 0.029,0.083 0.056,0.167 0.085,0.25 0.171,0.483 0.856,0.239 0.685,-0.242 l -0.070,-0.191 c -0.138,-0.522 -0.207,-1.057 -0.236,-1.597 0.001,-0.256 -0.180,-0.385 -0.361,-0.386 z" id="path6667" />
<path style="fill:#000000" d="m 7.994,11.994 c -0.225,-0.027 -0.472,0.156 -0.396,0.466 0.127,0.710 0.252,1.421 0.421,2.125 0.025,0.094 0.052,0.188 0.078,0.283 0.136,0.494 0.835,0.302 0.699,-0.191 -0.024,-0.087 -0.048,-0.173 -0.072,-0.261 -0.169,-0.703 -0.290,-1.415 -0.421,-2.126 -0.045,-0.186 -0.173,-0.278 -0.308,-0.294 z" id="path6669" />
<path style="fill:#000000" d="m 8.666,11.472 c -0.227,-0.001 -0.452,0.207 -0.341,0.507 v 0.002 c 0.212,0.692 0.318,1.410 0.460,2.119 0.109,0.509 0.054,0.269 0.166,0.720 0.123,0.498 0.827,0.321 0.703,-0.175 -0.105,-0.424 -0.051,-0.194 -0.156,-0.687 -0.149,-0.745 -0.262,-1.502 -0.492,-2.228 -0.066,-0.180 -0.203,-0.256 -0.339,-0.257 z" id="path6671" />
<path style="fill:#000000" d="m 9.451,11.392 c -0.227,-0.009 -0.458,0.192 -0.357,0.496 0.23,0.74 0.409,1.496 0.609,2.246 0.032,0.115 0.063,0.230 0.095,0.345 0.137,0.494 0.836,0.297 0.699,-0.195 -0.031,-0.112 -0.061,-0.224 -0.093,-0.337 -0.203,-0.763 -0.388,-1.531 -0.623,-2.285 -0.06,-0.182 -0.193,-0.263 -0.330,-0.269 z" id="path6673" />
<path style="fill:#000000" d="M 10.222,11.625 C 9.995,11.621 9.770,11.831 9.878,12.132 h -0.001 c 0.174,0.545 0.340,1.093 0.531,1.634 0.17,0.483 0.856,0.242 0.685,-0.240 -0.191,-0.542 -0.355,-1.093 -0.533,-1.640 C 10.495,11.705 10.358,11.626 10.222,11.625 Z" id="path6675" />
<path style="fill:#000000" d="m 10.773,13.724 c -0.051,0.002 -0.107,0.016 -0.166,0.042 -0.610,0.279 -1.212,0.573 -1.802,0.892 -0.455,0.235 -0.122,0.880 0.332,0.644 0.579,-0.314 1.172,-0.603 1.771,-0.878 0.407,-0.186 0.228,-0.715 -0.134,-0.701 z" id="path6677" />
<path style="fill:#000000" d="m 11.449,14.244 c -0.051,0.001 -0.107,0.014 -0.166,0.041 -0.616,0.28 -1.233,0.554 -1.839,0.855 -0.459,0.229 -0.133,0.877 0.324,0.648 v -0.002 c 0.597,-0.296 1.208,-0.565 1.816,-0.841 0.408,-0.185 0.228,-0.714 -0.134,-0.701 z" id="path6679" />
<path style="fill:#000000" d="m 11.560,14.933 c -0.051,8.2e-4 -0.107,0.011 -0.166,0.037 -0.453,0.196 -0.906,0.393 -1.357,0.597 -0.469,0.204 -0.180,0.869 0.289,0.664 v 0.002 c 0.45,-0.203 0.902,-0.400 1.355,-0.597 0.412,-0.177 0.242,-0.708 -0.121,-0.703 z" id="path6681" />
<path style="fill:#000000" d="m 11.496,15.816 c -0.051,0.006 -0.104,0.023 -0.160,0.054 -0.367,0.208 -0.737,0.412 -1.105,0.621 -0.444,0.256 -0.082,0.885 0.361,0.628 0.366,-0.207 0.735,-0.409 1.101,-0.617 0.390,-0.221 0.163,-0.732 -0.197,-0.687 z" id="path6683" />
<path style="fill:#000000" d="m 11.705,11.744 c -0.093,0.006 -0.189,0.051 -0.271,0.150 -0.358,0.505 -0.628,1.064 -0.867,1.634 -0.197,0.473 0.470,0.753 0.667,0.279 0.21,-0.505 0.449,-1.000 0.757,-1.453 0.244,-0.296 -0.007,-0.629 -0.287,-0.611 z" id="path6685" />
<path style="fill:#000000" d="m 12.447,12.109 c -0.091,0.016 -0.183,0.070 -0.253,0.177 v 0.002 c -0.422,0.645 -0.833,1.297 -1.214,1.968 -0.045,0.086 -0.091,0.172 -0.136,0.259 -0.238,0.454 0.404,0.790 0.642,0.335 0.041,-0.079 0.082,-0.159 0.123,-0.238 0.373,-0.657 0.780,-1.295 1.193,-1.929 0.210,-0.321 -0.077,-0.624 -0.353,-0.576 z" id="path6687" />
<path style="fill:#000000" d="m 13.001,12.619 c -0.133,-0.024 -0.283,0.026 -0.382,0.191 -0.308,0.566 -0.611,1.136 -0.925,1.699 -0.229,0.416 -0.121,0.217 -0.320,0.591 -0.24,0.453 0.400,0.792 0.640,0.339 0.193,-0.363 0.086,-0.171 0.312,-0.580 0.31,-0.556 0.613,-1.116 0.916,-1.677 0.164,-0.275 -0.016,-0.523 -0.240,-0.564 z" id="path6689" />
<path style="fill:#000000" d="m 13.357,13.277 c -0.135,-0.009 -0.279,0.057 -0.359,0.232 -0.278,0.619 -0.595,1.219 -0.902,1.826 -0.231,0.456 0.414,0.784 0.646,0.326 0.31,-0.614 0.633,-1.221 0.916,-1.849 0.133,-0.291 -0.074,-0.519 -0.300,-0.535 z" id="path6691" />
<path style="fill:#000000" d="m 12.771,9.626 c -0.091,0.017 -0.180,0.073 -0.25,0.181 v 0.001 C 12.377,10.035 12.245,10.268 12.113,10.5 c -0.253,0.446 0.377,0.803 0.630,0.357 0.125,-0.221 0.249,-0.441 0.386,-0.656 0.207,-0.323 -0.083,-0.625 -0.359,-0.574 z" id="path6693" />
<path style="fill:#000000" d="m 13.382,10.376 c -0.092,0.009 -0.187,0.056 -0.265,0.158 -0.306,0.436 -0.589,0.887 -0.859,1.347 -0.259,0.442 0.366,0.809 0.625,0.367 0.254,-0.433 0.521,-0.858 0.808,-1.271 0.234,-0.304 -0.029,-0.629 -0.308,-0.601 z" id="path6695" />
<path style="fill:#000000" d="m 13.832,11.001 c -0.092,0.011 -0.185,0.062 -0.261,0.166 -0.274,0.379 -0.552,0.754 -0.814,1.142 -0.286,0.425 0.312,0.830 0.599,0.404 0.256,-0.38 0.529,-0.747 0.798,-1.119 0.227,-0.310 -0.044,-0.628 -0.322,-0.593 z" id="path6697" />
<path style="fill:#000000" d="m 14.572,11.263 c -0.092,0.007 -0.187,0.053 -0.267,0.152 -0.353,0.442 -0.675,0.910 -0.986,1.384 -0.048,0.085 -0.097,0.169 -0.146,0.255 -0.253,0.446 0.376,0.803 0.630,0.357 0.04,-0.072 0.082,-0.143 0.123,-0.216 0.296,-0.453 0.603,-0.902 0.941,-1.326 0.241,-0.299 -0.015,-0.628 -0.294,-0.607 z" id="path6699" />
<path style="fill:#000000" d="m 15.263,11.792 c -0.133,-0.024 -0.283,0.027 -0.382,0.191 -0.322,0.543 -0.611,1.106 -0.886,1.675 -0.223,0.461 0.430,0.778 0.654,0.316 0.265,-0.549 0.541,-1.094 0.853,-1.619 0.165,-0.274 -0.015,-0.523 -0.238,-0.564 z" id="path6701" />
<path style="fill:#000000" d="m 12.748,13.636 c -0.225,0.029 -0.417,0.268 -0.265,0.550 0.407,0.744 0.827,1.479 1.251,2.214 0.256,0.444 0.885,0.082 0.628,-0.361 -0.419,-0.728 -0.837,-1.458 -1.242,-2.195 -0.090,-0.169 -0.237,-0.226 -0.373,-0.208 z" id="path6703" />
<path style="fill:#000000" d="m 13.427,13.376 c -0.225,0.026 -0.422,0.261 -0.275,0.546 0.4,0.665 0.809,1.325 1.210,1.990 0.085,0.140 0.168,0.280 0.253,0.421 0.265,0.438 0.887,0.061 0.621,-0.376 -0.084,-0.14 -0.168,-0.279 -0.253,-0.419 -0.393,-0.65 -0.792,-1.297 -1.187,-1.947 -0.087,-0.171 -0.233,-0.230 -0.369,-0.214 z" id="path6705" />
<path style="fill:#000000" d="m 14.166,13.289 c -0.279,-0.022 -0.537,0.306 -0.296,0.607 h -0.002 c 0.45,0.591 0.858,1.213 1.271,1.830 0.356,0.533 0.184,0.278 0.511,0.763 0.287,0.425 0.888,0.017 0.601,-0.406 -0.325,-0.481 -0.156,-0.226 -0.511,-0.759 -0.424,-0.634 -0.840,-1.273 -1.304,-1.880 -0.08,-0.1 -0.176,-0.146 -0.269,-0.154 z" id="path6707" />
<path style="fill:#000000" d="M 14.853,12.828 C 14.577,12.779 14.288,13.085 14.5,13.406 c 0.516,0.756 1.062,1.491 1.625,2.214 0.315,0.405 0.887,-0.040 0.572,-0.445 -0.55,-0.708 -1.085,-1.426 -1.591,-2.167 -0.070,-0.106 -0.159,-0.163 -0.251,-0.179 z" id="path6709" />
<path style="fill:#000000" d="m 15.437,11.826 c -0.181,0 -0.363,0.128 -0.363,0.384 -0.005,0.412 0.030,0.823 0.070,1.234 0.05,0.510 0.772,0.439 0.722,-0.070 -0.038,-0.387 -0.071,-0.775 -0.066,-1.164 0,-0.256 -0.182,-0.384 -0.363,-0.384 z" id="path6711" />
<path style="fill:#000000" d="m 16.240,12.361 c -0.181,0.005 -0.358,0.138 -0.349,0.394 0.039,0.745 0.075,1.490 0.125,2.234 0.034,0.512 0.756,0.462 0.722,-0.048 -0.049,-0.736 -0.084,-1.472 -0.123,-2.208 -0.008,-0.256 -0.193,-0.376 -0.375,-0.371 z" id="path6713" />
<path style="fill:#000000" d="m 17.156,12.992 c -0.181,0 -0.361,0.128 -0.361,0.384 -0.011,0.829 -0.021,1.656 0.009,2.486 0.037,0.529 0.015,0.28 0.062,0.75 0.051,0.51 0.773,0.435 0.722,-0.074 -0.044,-0.438 -0.025,-0.203 -0.060,-0.701 -0.032,-0.819 -0.019,-1.639 -0.009,-2.460 0,-0.256 -0.182,-0.384 -0.363,-0.384 z" id="path6715" />
<path style="fill:#000000" d="m 17.906,14.072 c -0.180,0.014 -0.351,0.156 -0.330,0.412 0.027,0.722 0.003,1.444 0.009,2.167 0.003,0.128 0.005,0.257 0.007,0.386 0.011,0.513 0.736,0.496 0.724,-0.015 -0.003,-0.125 -0.004,-0.25 -0.007,-0.375 -0.006,-0.74 0.019,-1.482 -0.011,-2.222 -0.020,-0.255 -0.211,-0.368 -0.392,-0.353 z" id="path6717" />
<path style="fill:#000000" d="m 18.884,14.300 c -0.181,-0.007 -0.368,0.114 -0.378,0.371 l 0.002,-0.002 c -0.039,0.807 -0.049,1.614 -0.035,2.423 0.03,0.635 0.009,0.330 0.054,0.910 0.039,0.511 0.762,0.454 0.722,-0.056 -0.042,-0.55 -0.023,-0.261 -0.052,-0.867 -0.014,-0.794 -0.004,-1.587 0.033,-2.380 0.01,-0.256 -0.164,-0.391 -0.345,-0.398 z" id="path6719" />
<path style="fill:#000000" d="m 19.664,14.222 c -0.181,0.007 -0.356,0.142 -0.345,0.398 0.042,0.888 0.096,1.775 0.171,2.662 0.059,0.628 0.030,0.328 0.087,0.900 0.051,0.51 0.773,0.436 0.722,-0.072 -0.057,-0.564 -0.026,-0.266 -0.085,-0.886 -0.074,-0.876 -0.129,-1.753 -0.171,-2.632 -0.010,-0.256 -0.197,-0.376 -0.378,-0.369 z" id="path6721" />
<path style="fill:#000000" d="m 11.558,15.667 c -0.135,-0.014 -0.280,0.048 -0.367,0.220 -0.235,0.489 -0.447,0.991 -0.597,1.513 -0.139,0.493 0.559,0.691 0.699,0.197 0.133,-0.479 0.335,-0.937 0.546,-1.386 0.143,-0.286 -0.055,-0.521 -0.281,-0.544 z" id="path6729" />
<path style="fill:#000000" d="m 12.552,14.884 c -0.135,0.007 -0.268,0.090 -0.326,0.273 -0.227,0.691 -0.477,1.374 -0.716,2.062 -0.158,0.465 -0.088,0.248 -0.212,0.646 -0.153,0.489 0.538,0.706 0.691,0.216 0.118,-0.379 0.050,-0.17 0.205,-0.625 0.241,-0.694 0.493,-1.384 0.724,-2.082 0.095,-0.305 -0.138,-0.505 -0.365,-0.492 z" id="path6731" />
<path style="fill:#000000" d="m 13.423,14.945 c -0.136,-0.003 -0.276,0.069 -0.349,0.248 h 0.002 c -0.274,0.725 -0.530,1.456 -0.791,2.187 -0.114,0.33 -0.248,0.655 -0.330,0.996 -0.116,0.5 0.591,0.664 0.707,0.164 0.069,-0.315 0.207,-0.610 0.304,-0.917 0.256,-0.72 0.509,-1.440 0.779,-2.156 0.121,-0.296 -0.095,-0.515 -0.322,-0.521 z" id="path6733" />
<path style="fill:#000000" d="m 14.019,15.517 c -0.135,-0.015 -0.280,0.043 -0.369,0.214 -0.329,0.713 -0.582,1.460 -0.839,2.201 -0.113,0.317 -0.220,0.635 -0.292,0.964 -0.106,0.501 0.602,0.652 0.708,0.150 0.06,-0.301 0.170,-0.587 0.267,-0.878 0.246,-0.708 0.489,-1.421 0.800,-2.105 0.146,-0.284 -0.050,-0.520 -0.275,-0.546 z" id="path6735" />
<path style="fill:#000000" d="m 14.603,15.888 c -0.133,-0.024 -0.283,0.027 -0.382,0.191 -0.324,0.700 -0.538,1.450 -0.767,2.187 -0.167,0.565 -0.088,0.294 -0.228,0.808 -0.134,0.495 0.564,0.684 0.699,0.189 0.134,-0.495 0.059,-0.232 0.222,-0.783 0.211,-0.682 0.412,-1.372 0.695,-2.029 0.165,-0.274 -0.014,-0.523 -0.238,-0.564 z" id="path6737" />
<path style="fill:#000000" d="m 16.216,15.564 c -0.051,0.009 -0.104,0.029 -0.158,0.064 -0.122,0.079 -0.246,0.157 -0.369,0.236 -0.518,0.362 -1.033,0.730 -1.523,1.130 -0.398,0.323 0.059,0.886 0.457,0.562 0.476,-0.388 0.978,-0.745 1.482,-1.097 0.115,-0.074 0.228,-0.148 0.343,-0.222 0.377,-0.242 0.124,-0.739 -0.232,-0.673 z" id="path6739" />
<path style="fill:#000000" d="m 16.839,16.292 c -0.051,0.007 -0.104,0.026 -0.160,0.058 -0.526,0.306 -0.254,0.145 -0.816,0.478 -0.596,0.36 -1.188,0.726 -1.755,1.132 -0.425,0.286 -0.017,0.888 0.406,0.601 0.556,-0.399 1.138,-0.758 1.724,-1.113 0.555,-0.329 0.287,-0.170 0.806,-0.472 0.387,-0.224 0.154,-0.734 -0.205,-0.685 z" id="path6741" />
<path style="fill:#000000" d="m 18.146,16.404 c -0.051,0.006 -0.106,0.025 -0.162,0.056 -0.653,0.37 -1.293,0.759 -1.939,1.142 -0.713,0.428 -1.425,0.861 -2.138,1.291 -0.445,0.255 -0.082,0.883 0.361,0.628 0.717,-0.432 1.432,-0.865 2.150,-1.296 0.64,-0.379 1.275,-0.767 1.923,-1.134 0.390,-0.221 0.165,-0.732 -0.195,-0.687 z" id="path6743" />
<path style="fill:#000000" d="m 18.562,17.119 c -0.051,0.006 -0.104,0.024 -0.160,0.056 -0.481,0.275 -0.225,0.128 -0.769,0.443 -0.891,0.528 -1.778,1.067 -2.648,1.632 -0.429,0.281 -0.031,0.888 0.396,0.607 h 0.002 c 0.861,-0.559 1.738,-1.094 2.621,-1.617 0.536,-0.311 0.281,-0.164 0.757,-0.437 0.389,-0.222 0.161,-0.732 -0.199,-0.685 z" id="path6745" />
<path style="fill:#000000" d="m 19.324,17.509 c -0.051,0.003 -0.108,0.018 -0.166,0.046 -0.354,0.176 -0.703,0.359 -1.048,0.554 -0.861,0.476 -1.722,0.953 -2.566,1.460 -0.438,0.266 -0.061,0.885 0.376,0.619 0.835,-0.502 1.689,-0.973 2.541,-1.445 0.334,-0.189 0.674,-0.368 1.019,-0.539 0.401,-0.198 0.206,-0.722 -0.156,-0.697 z" id="path6747" />
<path style="fill:#000000" d="m 17.367,18.783 c -0.092,0.013 -0.184,0.066 -0.257,0.171 v 0.002 c -0.231,0.33 -0.428,0.678 -0.591,1.046 -0.205,0.47 0.459,0.762 0.664,0.291 0.14,-0.326 0.321,-0.632 0.523,-0.925 0.219,-0.315 -0.060,-0.627 -0.337,-0.585 z" id="path6749" />
<path style="fill:#000000" d="m 18.626,18.050 c -0.092,0.009 -0.185,0.059 -0.263,0.160 -0.4,0.572 -0.684,1.211 -0.953,1.853 -0.031,0.077 -0.062,0.155 -0.093,0.232 -0.19,0.476 0.483,0.745 0.673,0.269 0.029,-0.074 0.058,-0.148 0.087,-0.222 0.243,-0.583 0.5,-1.167 0.857,-1.691 0.234,-0.304 -0.029,-0.629 -0.308,-0.601 z" id="path6751" />
<path style="fill:#000000" d="m 19.646,17.843 c -0.135,-0.006 -0.276,0.061 -0.353,0.238 h 0.002 c -0.314,0.687 -0.623,1.377 -0.910,2.076 -0.105,0.261 -0.203,0.523 -0.273,0.796 -0.122,0.498 0.583,0.671 0.705,0.173 0.055,-0.24 0.156,-0.465 0.240,-0.695 0.284,-0.694 0.589,-1.380 0.900,-2.062 0.127,-0.293 -0.083,-0.516 -0.310,-0.527 z" id="path6753" />
<path style="fill:#000000" d="m 20.804,16.947 c -0.136,-0.001 -0.273,0.072 -0.343,0.251 -0.293,0.653 -0.595,1.303 -0.890,1.955 -0.275,0.604 -0.543,1.212 -0.769,1.837 -0.174,0.481 0.507,0.729 0.681,0.246 0.218,-0.607 0.483,-1.197 0.75,-1.785 0.3,-0.663 0.606,-1.323 0.902,-1.988 0.116,-0.298 -0.103,-0.514 -0.330,-0.517 z" id="path6755" />
<path style="fill:#000000" d="m 21.005,18.005 c -0.135,0.012 -0.265,0.103 -0.316,0.289 -0.208,0.607 -0.467,1.195 -0.708,1.791 -0.16,0.403 -0.317,0.809 -0.443,1.224 -0.148,0.491 0.547,0.699 0.695,0.208 0.118,-0.394 0.268,-0.779 0.419,-1.162 0.252,-0.621 0.524,-1.236 0.736,-1.873 0.084,-0.309 -0.156,-0.5 -0.382,-0.478 z" id="path6757" />
<path style="fill:#000000" d="m 21.150,19.763 c -0.179,-0.027 -0.378,0.072 -0.417,0.326 -0.094,0.525 -0.172,1.052 -0.212,1.585 -0.037,0.511 0.684,0.564 0.722,0.052 0.037,-0.513 0.117,-1.022 0.207,-1.529 0.039,-0.253 -0.119,-0.407 -0.298,-0.435 z" id="path6759" />
<path style="fill:#000000" d="m 21.126,13.425 c -0.134,-0.023 -0.282,0.027 -0.380,0.193 -0.193,0.307 -0.395,0.607 -0.591,0.914 -0.275,0.432 0.335,0.822 0.611,0.390 0.199,-0.312 0.406,-0.618 0.603,-0.933 0.163,-0.275 -0.018,-0.524 -0.242,-0.564 z" id="path6761" />
<path style="fill:#000000" d="m 21.013,14.744 c -0.093,0.003 -0.189,0.048 -0.273,0.144 -0.368,0.425 -0.712,0.870 -1.029,1.335 -0.045,0.075 -0.089,0.149 -0.134,0.224 -0.263,0.44 0.358,0.812 0.621,0.371 0.037,-0.062 0.074,-0.124 0.111,-0.187 0.301,-0.441 0.628,-0.864 0.978,-1.269 0.252,-0.290 0.006,-0.630 -0.273,-0.619 z" id="path6763" />
<path style="fill:#000000" d="m 20.906,16.035 c -0.092,0.009 -0.185,0.057 -0.263,0.158 -0.22,0.279 -0.421,0.574 -0.615,0.873 -0.279,0.43 0.330,0.825 0.609,0.394 0.182,-0.282 0.372,-0.560 0.580,-0.824 0.234,-0.304 -0.031,-0.629 -0.310,-0.601 z" id="path6765" />
<path style="fill:#000000" d="m 20.041,13.781 c -0.179,-0.018 -0.373,0.093 -0.400,0.347 -0.035,0.256 -0.018,0.512 -0.002,0.769 0.035,0.510 0.759,0.462 0.724,-0.048 -0.016,-0.216 -0.033,-0.432 -0.002,-0.648 0.026,-0.255 -0.140,-0.401 -0.320,-0.419 z" id="path6767" />
<path style="fill:#000000" d="m 21.085,15.888 c -0.181,-0.006 -0.367,0.116 -0.376,0.373 h 0.002 c -0.044,0.907 -0.048,1.814 -0.044,2.722 0.002,0.193 0.005,0.386 0.007,0.580 0.006,0.513 0.731,0.504 0.724,-0.007 -0.002,-0.191 -0.004,-0.384 -0.007,-0.576 -0.003,-0.898 -3.1e-5,-1.795 0.042,-2.693 0.009,-0.256 -0.166,-0.391 -0.347,-0.398 z" id="path6769" />
<path style="fill:#000000" d="m 20.474,0.595 c -0.051,4.589e-4 -0.107,0.012 -0.166,0.037 -0.464,0.196 -0.925,0.398 -1.384,0.605 -0.466,0.214 -0.162,0.872 0.302,0.658 0.452,-0.204 0.906,-0.402 1.363,-0.595 0.413,-0.174 0.248,-0.708 -0.115,-0.705 z" id="path6799" />
<path style="fill:#000000" d="m 19.890,0 c -0.112,0.249 -0.212,0.504 -0.289,0.767 -0.141,0.492 0.555,0.692 0.697,0.199 C 20.394,0.628 20.536,0.309 20.701,0 Z" id="path6801" />
<path style="fill:#000000" d="m 20.710,0 c -0.049,0.133 -0.096,0.266 -0.144,0.400 -0.173,0.482 0.508,0.729 0.681,0.246 C 21.324,0.431 21.405,0.215 21.482,0 Z" id="path6803" />
<path style="fill:#000000" d="m 20.990,0.550 c -0.051,0.004 -0.106,0.019 -0.164,0.048 -0.163,0.082 -0.087,0.045 -0.230,0.117 -0.459,0.227 -0.136,0.876 0.322,0.648 0.147,-0.074 0.067,-0.034 0.234,-0.119 0.399,-0.202 0.200,-0.723 -0.162,-0.695 z" id="path6805" />
<path style="fill:#000000" d="m 8.308,20.498 c -0.133,0.025 -0.256,0.126 -0.289,0.316 v 0.002 C 7.839,21.871 7.721,22.934 7.623,24 H 8.349 C 8.444,22.976 8.561,21.952 8.734,20.937 8.788,20.621 8.531,20.455 8.308,20.498 Z" id="path6905" />
<path style="fill:#000000" d="m 9.113,20.972 c -0.181,-0.008 -0.366,0.110 -0.378,0.367 h -0.001 c -0.076,0.744 -0.168,1.486 -0.248,2.230 -0.027,0.300 -0.031,0.358 -0.037,0.429 h 0.728 c 0.005,-0.062 0.006,-0.104 0.029,-0.351 0.081,-0.758 0.175,-1.516 0.251,-2.275 0.012,-0.256 -0.162,-0.391 -0.343,-0.400 z" id="path6907" />
<path style="fill:#000000" d="M 3.453,21.080 C 3.272,21.096 3.103,21.239 3.126,21.494 H 3.125 c 0.152,0.808 0.396,1.598 0.625,2.388 0.024,0.081 0.019,0.063 0.035,0.117 h 0.759 c -0.020,-0.067 -0.030,-0.094 -0.097,-0.318 -0.215,-0.745 -0.441,-1.49 -0.599,-2.25 -0.022,-0.255 -0.213,-0.367 -0.394,-0.351 z" id="path6921" />
<path style="fill:#000000" d="m 3.884,20.041 c -0.226,-0.016 -0.462,0.179 -0.371,0.486 0.287,0.872 0.577,1.742 0.859,2.617 C 4.464,23.431 4.566,23.715 4.666,24 H 5.433 C 5.306,23.642 5.178,23.285 5.062,22.923 4.782,22.054 4.494,21.187 4.207,20.320 4.152,20.136 4.020,20.050 3.884,20.041 Z" id="path6923" />
<path style="fill:#000000" d="m 4.714,17.935 c -0.179,-0.026 -0.377,0.074 -0.414,0.328 h -0.001 c -0.115,0.91 -0.179,1.826 -0.236,2.742 -0.032,0.663 -0.020,0.346 -0.039,0.945 -0.016,0.512 0.707,0.536 0.724,0.023 0.019,-0.584 0.007,-0.275 0.039,-0.925 0.055,-0.895 0.117,-1.791 0.230,-2.681 0.037,-0.253 -0.123,-0.405 -0.302,-0.431 z" id="path6925" />
<path style="fill:#000000" d="m 5.355,18.291 c -0.181,0 -0.363,0.128 -0.363,0.384 h -0.001 c -0.044,0.912 -0.122,1.822 -0.181,2.734 -0.039,0.606 -0.058,1.214 -0.072,1.822 -0.012,0.513 0.714,0.528 0.726,0.015 0.013,-0.597 0.031,-1.194 0.070,-1.791 0.059,-0.927 0.141,-1.852 0.183,-2.781 0,-0.256 -0.180,-0.384 -0.361,-0.384 z" id="path6927" />
<path style="fill:#000000" d="m 6.261,18.617 c -0.179,-0.024 -0.375,0.077 -0.410,0.332 -0.12,0.954 -0.202,1.913 -0.287,2.871 C 5.500,22.544 5.453,23.272 5.416,24 h 0.726 c 0.036,-0.705 0.080,-1.410 0.142,-2.115 0.083,-0.946 0.166,-1.892 0.285,-2.835 0.034,-0.254 -0.128,-0.407 -0.308,-0.431 z" id="path6929" />
<path style="fill:#000000" d="m 6.990,19.503 c -0.18,-0.021 -0.374,0.085 -0.404,0.339 v 0.002 c -0.095,0.792 -0.176,1.584 -0.259,2.378 C 6.267,22.815 6.223,23.407 6.175,24 h 0.726 c 0.046,-0.566 0.088,-1.133 0.144,-1.699 0.082,-0.79 0.164,-1.581 0.259,-2.371 0.03,-0.254 -0.136,-0.404 -0.316,-0.425 z" id="path6931" />
<path style="fill:#000000" d="m 7.589,20.197 c -0.134,0.020 -0.260,0.119 -0.300,0.306 C 7.138,21.299 7.073,22.107 7.003,22.914 6.975,23.275 6.951,23.638 6.927,24 H 7.656 c 0.022,-0.341 0.043,-0.682 0.070,-1.023 0.066,-0.775 0.127,-1.555 0.271,-2.322 0.066,-0.313 -0.183,-0.491 -0.408,-0.457 z" id="path6933" />
<path style="fill:#000000" d="m 16.175,2.828 c -0.491,0.093 -0.981,0.189 -1.472,0.283 -0.504,0.093 -0.370,0.806 0.132,0.712 0.490,-0.093 0.982,-0.190 1.474,-0.283 0.504,-0.095 0.369,-0.807 -0.134,-0.712 z" id="path7005" />
<path style="fill:#000000" d="m 15.205,2.152 c -0.051,-0.004 -0.108,6.562e-4 -0.169,0.019 -0.447,0.137 -0.890,0.281 -1.314,0.484 -0.473,0.198 -0.191,0.867 0.281,0.669 v -0.001 c 0.401,-0.193 0.821,-0.328 1.246,-0.458 0.428,-0.131 0.319,-0.679 -0.042,-0.712 z" id="path7007" />
<path style="fill:#000000" d="m 17.238,20.919 c -0.139,0.031 -0.277,0.062 -0.416,0.093 -0.756,0.187 -1.526,0.373 -2.236,0.701 -0.296,0.171 -0.054,0.588 0.240,0.417 0.673,-0.299 1.398,-0.473 2.111,-0.650 0.136,-0.03 0.272,-0.060 0.408,-0.091 0.333,-0.075 0.225,-0.546 -0.107,-0.470 z" id="path7069" />
<path style="fill:#000000" d="m 0,3.791 v 0.361 c 0.181,0.008 0.363,0.019 0.544,0.027 0.541,0.028 1.083,0.062 1.623,0.107 0.185,0.01 0.368,0.039 0.552,0.062 0.354,0.029 0.710,0.029 1.066,0.037 0.67,0.014 1.341,0.026 2.011,0.041 0.298,0.006 0.595,0.019 0.892,0.050 0.255,0.026 0.292,-0.334 0.037,-0.361 -0.306,-0.032 -0.612,-0.046 -0.921,-0.052 -0.669,-0.015 -1.339,-0.025 -2.009,-0.039 -0.343,-0.008 -0.688,-0.010 -1.031,-0.037 -0.189,-0.023 -0.376,-0.051 -0.566,-0.062 C 1.654,3.880 1.108,3.844 0.562,3.816 0.375,3.808 0.187,3.800 0,3.791 Z" id="path10058" />
<path style="fill:#000000" d="m 0,13.427 v 0.369 c 0.081,0.013 0.162,0.028 0.244,0.041 0.233,0.036 0.468,0.055 0.699,0.103 0.250,0.052 0.325,-0.303 0.074,-0.355 -0.237,-0.049 -0.478,-0.072 -0.718,-0.107 C 0.199,13.463 0.099,13.443 0,13.427 Z" id="path8319" />
<path style="fill:#000000" d="m 0.785,13.595 c -0.139,0.011 -0.238,0.195 -0.095,0.324 0.225,0.205 0.466,0.387 0.708,0.570 0.302,0.219 0.590,0.457 0.867,0.705 0.15,0.137 0.076,0.070 0.218,0.199 0.19,0.173 0.434,-0.095 0.244,-0.267 -0.143,-0.13 -0.068,-0.062 -0.220,-0.201 -0.285,-0.255 -0.581,-0.5 -0.890,-0.724 -0.235,-0.177 -0.470,-0.353 -0.687,-0.550 -0.047,-0.042 -0.098,-0.058 -0.144,-0.054 z" id="path8321" />
<path style="fill:#000000" d="m 2.550,15.083 c -0.139,0.011 -0.240,0.195 -0.097,0.324 0.079,0.072 0.160,0.141 0.242,0.210 -0.100,0.023 -0.202,0.039 -0.300,0.070 -0.243,0.078 -0.134,0.422 0.109,0.345 0.15,-0.048 0.303,-0.086 0.458,-0.109 0.035,-0.003 0.082,0.021 0.103,-0.005 0.214,-0.279 0.238,-0.257 0.070,-0.398 -0.150,-0.124 -0.298,-0.250 -0.441,-0.380 v -0.002 c -0.047,-0.043 -0.097,-0.058 -0.144,-0.054 z" id="path8323" />
<path style="fill:#000000" d="m 2.781,15.445 c -0.046,-0.008 -0.098,0.003 -0.150,0.041 -0.188,0.137 -0.381,0.265 -0.486,0.476 0.001,0.052 0.001,0.103 0.001,0.154 0.053,0.229 0.337,0.172 0.343,-0.029 C 2.566,15.966 2.728,15.873 2.847,15.777 3.002,15.662 2.919,15.469 2.781,15.445 Z" id="path8325" />
<path style="fill:#000000" d="m 2.988,15.941 c -0.184,-9.96e-4 -0.371,-1.36e-4 -0.554,0.009 -0.253,0.018 -0.229,0.377 0.025,0.361 0.177,-0.010 0.351,-0.010 0.527,-0.009 0.255,10e-4 0.257,-0.360 0.001,-0.361 z" id="path8327" />
<path style="fill:#000000" d="M 0.281,16.437 C 0.235,16.427 0.183,16.436 0.130,16.472 0.084,16.505 0.045,16.547 0,16.582 v 0.468 C 0.106,16.952 0.218,16.857 0.333,16.771 0.493,16.662 0.418,16.467 0.281,16.437 Z" id="path8329" />
<path style="fill:#000000" d="M 0.591,16.490 C 0.545,16.486 0.495,16.500 0.447,16.542 0.290,16.681 0.140,16.828 0,16.982 v 0.437 c 0.076,0.012 0.159,-0.009 0.199,-0.111 -0.002,0.001 -0.003,0.001 -0.005,0.002 0.009,-0.013 0.019,-0.026 0.027,-0.039 C 0.363,17.106 0.526,16.958 0.687,16.812 0.831,16.685 0.731,16.502 0.591,16.490 Z" id="path8331" />
<path style="fill:#000000" d="m 0.888,16.712 c -0.046,-0.001 -0.097,0.015 -0.142,0.060 -0.124,0.120 -0.239,0.248 -0.337,0.390 -0.144,0.212 0.154,0.417 0.298,0.205 C 0.790,17.245 0.895,17.136 1,17.031 H 1.001 C 1.138,16.895 1.028,16.717 0.888,16.712 Z" id="path8333" />
<path style="fill:#000000" d="m 0.517,16.546 c -0.131,0.047 -0.180,0.251 -0.009,0.337 0.174,0.084 0.349,0.167 0.523,0.25 0.23,0.111 0.387,-0.218 0.156,-0.328 -0.172,-0.083 -0.343,-0.164 -0.515,-0.246 v 0.002 c -0.057,-0.029 -0.110,-0.031 -0.154,-0.015 z" id="path8335" />
<path style="fill:#000000" d="M 0,9.181 V 9.546 c 0.046,0.006 0.093,0.012 0.140,0.019 0.136,0.022 0.073,0.009 0.187,0.033 0.25,0.054 0.325,-0.300 0.074,-0.353 -0.132,-0.028 -0.061,-0.015 -0.208,-0.039 C 0.128,9.197 0.064,9.190 0,9.181 Z" id="path8355" />
<path style="fill:#000000" d="m 0,9.640 v 0.365 c 0.053,0.004 0.105,0.019 0.158,0.023 0.150,0.005 0.078,0.005 0.218,0.002 0.256,-0.006 0.246,-0.367 -0.009,-0.361 -0.114,0.003 -0.053,0.003 -0.183,-0.001 C 0.121,9.663 0.061,9.646 0,9.640 Z" id="path8357" />
<path style="fill:#000000" d="m 0.593,9.380 c -0.139,-0.005 -0.262,0.165 -0.136,0.310 0.084,0.094 0.040,0.044 0.130,0.140 0.176,0.187 0.440,-0.059 0.265,-0.246 -0.084,-0.089 -0.045,-0.045 -0.123,-0.132 -0.042,-0.048 -0.090,-0.070 -0.136,-0.072 z" id="path8359" />
<path style="fill:#000000" d="M 0,9.212 V 9.421 C 0.047,9.348 0.047,9.269 0,9.212 Z M 0,9.734 V 9.949 C 0.046,9.885 0.048,9.797 0,9.734 Z" id="path8361" />
<path style="fill:#000000" d="M 0.179,8.476 C 0.134,8.465 0.081,8.473 0.027,8.507 0.018,8.514 0.009,8.521 0,8.527 V 8.976 C 0.075,8.923 0.146,8.864 0.222,8.812 h 0.001 c 0.161,-0.104 0.091,-0.302 -0.044,-0.335 z" id="path8363" />
<path style="fill:#000000" d="m 0,8.560 v 0.365 c 0.223,0.018 0.444,0.046 0.664,0.085 0.038,0.008 0.076,0.013 0.113,0.021 0.250,0.052 0.325,-0.302 0.074,-0.353 -0.041,-0.009 -0.083,-0.017 -0.123,-0.025 C 0.487,8.610 0.244,8.578 0,8.560 Z" id="path8365" />
<path style="fill:#000000" d="M 0.933,8.703 C 0.802,8.751 0.755,8.955 0.927,9.041 1.203,9.174 1.479,9.306 1.75,9.447 1.977,9.566 2.144,9.244 1.917,9.126 1.643,8.983 1.365,8.849 1.087,8.716 1.030,8.688 0.977,8.686 0.933,8.703 Z" id="path8367" />
<path style="fill:#000000" d="m 2.441,10.806 c -0.203,0.01 -0.406,0.030 -0.605,0.062 -0.251,0.041 -0.195,0.399 0.056,0.359 0.189,-0.03 0.378,-0.048 0.568,-0.058 0.256,-0.014 0.236,-0.376 -0.019,-0.363 z" id="path8369" />
<path style="fill:#000000" d="m 1.996,10.986 c -0.252,-0.043 -0.312,0.314 -0.060,0.357 0.289,0.047 0.580,0.067 0.871,0.087 0.255,0.019 0.280,-0.343 0.025,-0.361 -0.28,-0.02 -0.559,-0.038 -0.835,-0.082 z" id="path8371" />
<path style="fill:#000000" d="M 0.964,2.253 C 0.644,2.332 0.321,2.405 0,2.476 v 0.373 c 0.351,-0.076 0.701,-0.159 1.050,-0.244 0.249,-0.061 0.163,-0.411 -0.085,-0.351 z" id="path8377" />
<path style="fill:#000000" d="m 7.373,0.5 c -0.074,0.022 -0.035,0.010 -0.107,0.033 -0.075,0.023 -0.152,0.046 -0.230,0.056 -0.068,0.006 -0.137,0.013 -0.203,0.033 -0.310,0.076 -0.619,0.157 -0.927,0.242 -0.537,0.152 -1.068,0.314 -1.597,0.488 -0.375,0.119 -0.749,0.239 -1.130,0.335 V 1.687 c -0.248,0.061 -0.163,0.412 0.085,0.351 0.388,-0.098 0.770,-0.220 1.152,-0.341 0.526,-0.173 1.057,-0.334 1.589,-0.484 0.304,-0.084 0.608,-0.163 0.914,-0.238 0.048,-0.016 0.097,-0.022 0.146,-0.025 0.105,-0.011 0.204,-0.038 0.304,-0.068 0.076,-0.024 0.040,-0.013 0.107,-0.033 C 7.722,0.774 7.618,0.427 7.373,0.5 Z" id="path8379" />
<path style="fill:#000000" d="m 1.105,2.216 c -0.030,0.003 -0.062,0.018 -0.087,0.052 -0.203,0.278 -0.424,0.543 -0.652,0.800 C 0.248,3.200 0.123,3.321 0,3.445 V 3.791 C 0.186,3.609 0.372,3.425 0.546,3.230 c 0.232,-0.262 0.456,-0.532 0.664,-0.814 v -0.001 C 1.288,2.312 1.198,2.206 1.105,2.216 Z" id="path8381" />
<path style="fill:#000000" d="M 0.218,3.371 C 0.189,3.380 0.162,3.402 0.144,3.441 0.093,3.550 0.044,3.659 0,3.771 V 3.984 C 0.057,4.033 0.155,4.034 0.191,3.933 0.238,3.800 0.301,3.672 0.361,3.544 0.416,3.430 0.307,3.342 0.218,3.371 Z" id="path8383" />
<path style="fill:#000000" d="m 5.138,1.152 c -0.109,0.029 -0.215,0.068 -0.320,0.109 -0.307,0.121 -0.611,0.250 -0.908,0.392 -0.242,0.117 -0.482,0.238 -0.714,0.373 -0.060,0.036 -0.117,0.077 -0.160,0.130 -0.118,0.066 -0.251,0.108 -0.375,0.167 -0.397,0.17 -0.795,0.337 -1.191,0.511 -0.335,0.145 -0.671,0.286 -1.011,0.417 -0.16,0.061 -0.073,0.285 0.085,0.224 C 0.886,3.348 1.225,3.202 1.562,3.056 c 0.396,-0.174 0.796,-0.339 1.193,-0.509 0.134,-0.066 0.281,-0.108 0.408,-0.187 0.038,-0.049 0.043,-0.060 0.054,-0.080 0.013,-1.04e-4 0.034,-0.006 0.097,-0.042 0.227,-0.132 0.463,-0.251 0.699,-0.365 0.293,-0.139 0.589,-0.265 0.890,-0.384 0.096,-0.037 0.192,-0.074 0.291,-0.099 0.166,-0.043 0.106,-0.276 -0.058,-0.234 z" id="path8385" />
<path style="fill:#000000" d="m 0,16.458 v 0.242 c 0.026,0.001 0.025,5.39e-4 0.074,0.003 0.169,0.012 0.187,-0.229 0.017,-0.240 C 0.031,16.460 0.028,16.460 0,16.458 Z" id="path8541" />
<path style="fill:#000000" d="m 1.878,9.085 c -0.060,0.004 -0.115,0.051 -0.109,0.136 0.017,0.237 0.084,0.458 0.212,0.656 0.094,0.142 0.295,0.009 0.201,-0.132 C 2.073,9.584 2.024,9.399 2.009,9.205 v -0.001 c -0.006,-0.085 -0.070,-0.121 -0.130,-0.117 z" id="path8545" />
<path style="fill:#000000" d="M 2.203,9.236 C 2.114,9.205 2.002,9.289 2.054,9.406 c 0.087,0.188 0.202,0.361 0.322,0.529 0.1,0.139 0.295,-0.002 0.195,-0.140 -0.111,-0.154 -0.216,-0.313 -0.296,-0.486 -0.017,-0.039 -0.042,-0.061 -0.072,-0.072 z" id="path8547" />
<path style="fill:#000000" d="M 4.035,3.632 C 3.899,3.665 3.827,3.863 3.988,3.968 c 0.163,0.114 0.332,0.211 0.507,0.304 0.225,0.12 0.397,-0.200 0.171,-0.320 C 4.501,3.865 4.340,3.771 4.187,3.664 4.134,3.628 4.080,3.622 4.035,3.632 Z" id="path8663" />
<path style="fill:#000000" d="m 5.582,2.675 c -0.255,-0.02 -0.282,0.341 -0.027,0.361 0.162,0.016 0.319,0.059 0.476,0.101 0.247,0.067 0.342,-0.285 0.095,-0.351 -0.179,-0.049 -0.359,-0.094 -0.544,-0.111 z" id="path8665" />
<path style="fill:#000000" d="m 1.744,0.019 c -0.169,-0.023 -0.200,0.216 -0.031,0.238 0.194,0.024 0.387,0.059 0.578,0.095 0.167,0.032 0.211,-0.206 0.044,-0.238 -0.197,-0.038 -0.393,-0.071 -0.591,-0.095 z" id="path8845" />
<path style="fill:#000000" d="m 0,21.888 v 0.386 c 0.023,0.009 0.048,0.017 0.072,0.027 0.059,0.021 0.116,0.044 0.169,0.076 0.113,0.07 0.231,0.129 0.349,0.189 0.120,0.061 0.240,0.123 0.359,0.185 0.227,0.118 0.394,-0.204 0.167,-0.322 -0.119,-0.062 -0.241,-0.124 -0.361,-0.185 -0.112,-0.057 -0.224,-0.113 -0.330,-0.179 -0.068,-0.039 -0.138,-0.071 -0.212,-0.097 C 0.144,21.939 0.072,21.911 0,21.888 Z" id="path8911" />
<path style="fill:#000000" d="m 4.716,15.419 c -0.28,0.035 -0.559,0.069 -0.839,0.099 -0.319,0.032 -0.637,0.055 -0.955,0.087 -0.255,0.033 -0.209,0.391 0.044,0.359 0.315,-0.031 0.630,-0.055 0.945,-0.087 0.284,-0.031 0.567,-0.064 0.849,-0.099 0.254,-0.032 0.209,-0.391 -0.044,-0.359 z" id="path9005" />
<path style="fill:#000000" d="m 6.402,15.125 c -0.112,0.018 -0.223,0.037 -0.335,0.056 -0.239,0.04 -0.480,0.078 -0.722,0.091 -0.256,0.012 -0.238,0.375 0.017,0.363 0.257,-0.015 0.510,-0.055 0.763,-0.097 0.112,-0.019 0.225,-0.038 0.337,-0.056 0.253,-0.042 0.192,-0.399 -0.060,-0.357 z" id="path9007" />
<path style="fill:#000000" d="M 0.023,19.728 C 0.015,19.729 0.007,19.731 0,19.732 v 0.248 c 0.020,-0.003 0.040,-0.008 0.060,-0.011 0.169,-0.027 0.131,-0.266 -0.037,-0.240 z" id="path9021" />
</svg>
