<?xml version="1.0" encoding="UTF-8" standalone="no"?>
<svg
   xmlns:dc="http://purl.org/dc/elements/1.1/"
   xmlns:cc="http://creativecommons.org/ns#"
   xmlns:rdf="http://www.w3.org/1999/02/22-rdf-syntax-ns#"
   xmlns:svg="http://www.w3.org/2000/svg"
   xmlns="http://www.w3.org/2000/svg"
   id="svg2383"
   viewBox="0 0 48 48"
   height="100%"
   width="100%"
   version="1.0">
  <metadata
     id="metadata9">
    <rdf:RDF>
      <cc:Work
         rdf:about="">
        <dc:format>image/svg+xml</dc:format>
        <dc:type
           rdf:resource="http://purl.org/dc/dcmitype/StillImage" />
        <dc:title></dc:title>
      </cc:Work>
    </rdf:RDF>
  </metadata>
  <defs
     id="defs2385" />
  <path
     style="fill:#9d9d9d;fill-opacity:1;fill-rule:evenodd;stroke:none;stroke-width:0.5;marker:none;visibility:visible;display:inline;overflow:visible;enable-background:accumulate"
     id="path3739"
     d="m 21.001055,40.724848 c -1.34325,0 -2.4375,0.84173 -2.4375,1.875 0,0.17348 0.03625,0.96449 0.09375,1.12395 1.5625,0.42019 3.125,0.41173 4.6875,0 0.05601,-0.15753 0.09375,-0.95282 0.09375,-1.12395 0,-1.03327 -1.09425,-1.875 -2.4375,-1.875 z" />
  <path
     style="fill:#476181;fill-opacity:1;fill-rule:evenodd;stroke:none;stroke-width:0.5;marker:none;visibility:visible;display:inline;overflow:visible;enable-background:accumulate"
     id="path3741"
     d="m 20.988915,40.735938 c -1.34325,0 -2.4375,0.84173 -2.4375,1.875 0,0.0579 0.02373,0.22591 0.03125,0.375 1.60859,0.40295 3.23516,0.39601 4.84375,0 0.0077,-0.14901 0,-0.31796 0,-0.375 0,-1.03327 -1.09425,-1.875 -2.4375,-1.875 z" />
  <path
     style="fill:none;stroke:#000000;stroke-width:0.5;stroke-linecap:round;stroke-linejoin:miter;stroke-miterlimit:4;stroke-opacity:1;stroke-dasharray:none;stroke-dashoffset:0;marker:none;visibility:visible;display:inline;overflow:visible;enable-background:accumulate"
     id="path3743"
     d="m 21.001055,40.724848 c -1.34325,0 -2.4375,0.84173 -2.4375,1.875 0,0.17348 0.03625,0.96449 0.09375,1.12395 1.5625,0.42019 3.125,0.41173 4.6875,0 0.05601,-0.15753 0.09375,-0.95282 0.09375,-1.12395 0,-1.03327 -1.09425,-1.875 -2.4375,-1.875 z" />
  <path
     style="fill:#9d9d9d;fill-opacity:1;fill-rule:evenodd;stroke:none;stroke-width:0.5;marker:none;visibility:visible;display:inline;overflow:visible;enable-background:accumulate"
     id="path3745"
     d="m 28.034705,40.724848 c -1.34325,0 -2.4375,0.84173 -2.4375,1.875 0,0.17348 0.03625,0.96449 0.09375,1.12395 1.5625,0.42019 3.125,0.41173 4.6875,0 0.05601,-0.15753 0.09375,-0.95282 0.09375,-1.12395 0,-1.03327 -1.09425,-1.875 -2.4375,-1.875 z" />
  <path
     style="fill:#476181;fill-opacity:1;fill-rule:evenodd;stroke:none;stroke-width:0.5;marker:none;visibility:visible;display:inline;overflow:visible;enable-background:accumulate"
     id="path3747"
     d="m 28.022565,40.735938 c -1.34325,0 -2.4375,0.84173 -2.4375,1.875 0,0.0579 0.02373,0.22591 0.03125,0.375 1.60859,0.40295 3.23516,0.39601 4.84375,0 0.0077,-0.14901 0,-0.31796 0,-0.375 0,-1.03327 -1.09425,-1.875 -2.4375,-1.875 z" />
  <path
     style="fill:none;stroke:#000000;stroke-width:0.5;stroke-linecap:round;stroke-linejoin:miter;stroke-miterlimit:4;stroke-opacity:1;stroke-dasharray:none;stroke-dashoffset:0;marker:none;visibility:visible;display:inline;overflow:visible;enable-background:accumulate"
     id="path3749"
     d="m 28.034705,40.724848 c -1.34325,0 -2.4375,0.84173 -2.4375,1.875 0,0.17348 0.03625,0.96449 0.09375,1.12395 1.5625,0.42019 3.125,0.41173 4.6875,0 0.05601,-0.15753 0.09375,-0.95282 0.09375,-1.12395 0,-1.03327 -1.09425,-1.875 -2.4375,-1.875 z" />
  <path
     style="fill:#213e78;fill-opacity:1;fill-rule:evenodd;stroke:none;stroke-width:0.5;marker:none;visibility:visible;display:inline;overflow:visible;enable-background:accumulate"
     id="path3759"
     d="m 21.764165,31.152978 c -1.06858,0.0409 -1.53324,0.23382 -1.875,1.03125 -0.54681,1.2759 -2.30552,4.61305 -2.0625,6.375 0.24303,1.76195 0.56773,2.80217 0.75,3.53125 1.60417,0 3.20833,0 4.8125,0 0.04877,-0.41271 0.51235,-0.75 1.09375,-0.75 0.58141,0 1.04497,0.33729 1.09375,0.75 1.61458,0 3.22917,0 4.84375,0 0.18227,-0.72908 0.47573,-1.7693 0.71875,-3.53125 0.24303,-1.76195 -1.51569,-5.0991 -2.0625,-6.375 -0.54681,-1.27589 -1.40314,-1.03125 -4.5625,-1.03125 l -0.0625,0 c -1.18476,0 -2.04635,-0.0246 -2.6875,0 z" />
  <path
     style="fill:#216b9f;fill-opacity:1;fill-rule:evenodd;stroke:none;stroke-width:0.5;marker:none;visibility:visible;display:inline;overflow:visible;enable-background:accumulate"
     id="path3945"
     d="m 19.153127,33.81375 c -0.251934,0.559182 -0.519565,1.15611 -0.75,1.78125 l 0,5.8125 c 0.05987,0.227578 0.141932,0.50523 0.1875,0.6875 l 1.03125,0 0,-8.28125 -0.46875,0 z m 1.6875,0 0,8.28125 1.1875,0 0,-8.28125 -1.1875,0 z m 2.40625,0 0,8.28125 0.15625,0 c 0.04792,-0.405488 0.495415,-0.73848 1.0625,-0.75 l 0,-7.53125 -1.21875,0 z m 2.4375,0 0,8.28125 1.21875,0 0,-8.28125 -1.21875,0 z m 2.40625,0 0,8.28125 1.21875,0 0,-8.28125 -1.21875,0 z m 2.4375,1.71875 0,6.15625 c 0.180329,-0.707337 0.417908,-1.623535 0.625,-3.125 0.110052,-0.797868 -0.212514,-1.925037 -0.625,-3.03125 z" />
  <path
     style="fill:#e573de;fill-opacity:1;fill-rule:evenodd;stroke:none;stroke-width:0.5;marker:none;visibility:visible;display:inline;overflow:visible;enable-background:accumulate"
     d="M 26.488281 31.177734 C 25.955161 31.180734 25.309371 31.208984 24.519531 31.208984 L 24.457031 31.208984 C 23.272261 31.208984 22.410681 31.184384 21.769531 31.208984 C 20.700941 31.249884 20.236291 31.442793 19.894531 32.240234 C 19.889498 32.251979 19.876331 32.28088 19.871094 32.292969 C 19.637753 32.141132 19.368674 32.038741 19.070312 32.015625 L 16.451172 31.8125 C 15.938966 31.77282 15.827788 32.52275 15.757812 33.458984 C 15.687833 34.395224 15.606861 35.14566 16.197266 35.191406 L 18.525391 35.371094 C 18.257541 36.06099 18.01546 36.7592 17.894531 37.396484 L 23.425781 39.396484 L 24.488281 38.146484 L 25.550781 39.396484 L 31.050781 37.427734 C 30.952012 36.894529 30.76822 36.316089 30.560547 35.734375 L 32.304688 35.904297 C 32.894009 35.96236 32.946416 35.209465 33.041016 34.275391 C 33.135617 33.341324 33.157748 32.583583 32.646484 32.533203 L 30.03125 32.275391 C 29.721551 32.244876 29.426019 32.303753 29.162109 32.421875 C 29.142522 32.377389 29.099377 32.280708 29.082031 32.240234 C 28.671921 31.283303 28.087611 31.168734 26.488281 31.177734 z "
     id="path3881-6" />
  <path
     style="fill:none;stroke:#000000;stroke-width:0.5;stroke-linecap:butt;stroke-linejoin:miter;stroke-miterlimit:4;stroke-opacity:1;stroke-dasharray:none;stroke-dashoffset:0;marker:none;visibility:visible;display:inline;overflow:visible;enable-background:accumulate"
     id="path3881"
     d="m 17.893955,37.396638 5.53125,2 1.0625,-1.25 1.0625,1.25 5.5,-1.96875" />
  <path
     style="fill:none;stroke:#000000;stroke-width:0.5;stroke-linecap:butt;stroke-linejoin:miter;stroke-miterlimit:4;stroke-opacity:1;stroke-dasharray:none;display:inline"
     id="path3883"
     d="m 24.425205,31.209088 -1.84375,3.3125 -2.90625,-1.78125 0.232131,-0.62053" />
  <path
     style="fill:none;stroke:#000000;stroke-width:0.5;stroke-linecap:butt;stroke-linejoin:miter;stroke-miterlimit:4;stroke-opacity:1;stroke-dasharray:none;stroke-dashoffset:0;marker:none;visibility:visible;display:inline;overflow:visible;enable-background:accumulate"
     id="path3885"
     d="m 24.560095,31.209088 1.84375,3.3125 2.90625,-1.78125 -0.301751,-0.701263" />
  <path
     style="fill:none;stroke:#000000;stroke-width:0.5;stroke-opacity:1;marker:none;visibility:visible;display:inline;overflow:visible;enable-background:accumulate"
     d="M 26.482422 31.134766 C 25.949312 31.137765 25.303512 31.152344 24.513672 31.152344 L 24.451172 31.152344 C 23.266412 31.152344 22.404822 31.127744 21.763672 31.152344 C 20.695092 31.193244 20.230432 31.386164 19.888672 32.183594 C 19.878703 32.206854 19.856458 32.252735 19.845703 32.277344 C 19.617897 32.134716 19.358015 32.037916 19.070312 32.015625 L 16.451172 31.8125 C 15.938966 31.77282 15.827788 32.52275 15.757812 33.458984 C 15.687833 34.395224 15.606861 35.14566 16.197266 35.191406 L 18.496094 35.369141 C 18.052112 36.528055 17.710642 37.720973 17.826172 38.558594 C 18.069202 40.320544 18.393902 41.360764 18.576172 42.089844 L 23.388672 42.089844 C 23.437442 41.677134 23.901022 41.339844 24.482422 41.339844 C 25.063832 41.339844 25.527392 41.677134 25.576172 42.089844 L 30.419922 42.089844 C 30.602192 41.360764 30.895652 40.320544 31.138672 38.558594 C 31.24194 37.809909 30.978499 36.776795 30.605469 35.738281 L 32.304688 35.904297 C 32.894009 35.96236 32.946416 35.209465 33.041016 34.275391 C 33.135617 33.341324 33.157748 32.583583 32.646484 32.533203 L 30.03125 32.275391 C 29.729044 32.245614 29.440766 32.301885 29.181641 32.414062 C 29.152583 32.348988 29.100658 32.240728 29.076172 32.183594 C 28.666064 31.226676 28.081751 31.125768 26.482422 31.134766 z "
     id="path3105" />
  <path
     style="fill:#ffffff;fill-opacity:1;fill-rule:evenodd;stroke:#000000;stroke-width:0.5;stroke-linecap:round;stroke-linejoin:round;stroke-miterlimit:4;stroke-opacity:1;stroke-dashoffset:0;marker:none;visibility:visible;display:inline;overflow:visible;enable-background:accumulate"
     d="M 24.40625 13.384766 C 19.12163 13.384766 14.835938 17.759144 14.835938 23.152344 C 14.835938 24.265604 14.925346 25.190607 15.134766 25.992188 C 14.952126 26.361187 14.835938 26.724014 14.835938 27.121094 C 14.835938 29.121792 17.316174 31.113605 20.806641 31.966797 A 3.6407399 2.9823222 0 0 0 24.441406 34.816406 A 3.6407399 2.9823222 0 0 0 28.058594 32.164062 C 28.114789 32.082083 28.168657 32.000587 28.205078 31.914062 C 31.606268 31.038622 33.978516 29.089794 33.978516 27.121094 C 33.978516 26.712614 33.872608 26.339497 33.679688 25.960938 C 33.883727 25.165537 33.978516 24.252204 33.978516 23.152344 C 33.978516 17.759144 29.69087 13.384766 24.40625 13.384766 z "
     id="path3890" />
  <ellipse
     style="color:#000000;clip-rule:nonzero;display:inline;overflow:visible;visibility:visible;opacity:1;isolation:auto;mix-blend-mode:normal;color-interpolation:sRGB;color-interpolation-filters:linearRGB;solid-color:#000000;solid-opacity:1;fill:#280b0b;fill-opacity:1;fill-rule:evenodd;stroke:#000000;stroke-width:0.5;stroke-linecap:round;stroke-linejoin:round;stroke-miterlimit:4;stroke-dasharray:none;stroke-dashoffset:0;stroke-opacity:1;marker:none;color-rendering:auto;image-rendering:auto;shape-rendering:auto;text-rendering:auto;enable-background:accumulate"
     id="path4212"
     cx="24.442076"
     cy="31.834946"
     rx="2.3556025"
     ry="2.139492" />
  <path
     style="fill:#ffffff;fill-opacity:1;fill-rule:evenodd;stroke:none;stroke-width:0.5;marker:none;visibility:visible;display:inline;overflow:visible;enable-background:accumulate"
     id="path3892"
     d="m 21.965135,15.013388 c 0.06908,-3.9478 1.38154,-8.6005402 -0.55261,-11.3499002 -1.93416,-2.74934 -4.62817,-0.91642 -4.8354,2.67889 -0.20723,3.5952804 2.55585,6.9086002 3.3157,9.2349602 0.62169,-0.21147 2.14139,-0.56395 2.07231,-0.56395 z" />
  <g
     id="g4208">
    <rect
       width="3.5410392"
       height="1.8557279"
       ry="0.7867257"
       x="22.651516"
       y="30.513639"
       id="rect3896"
       style="display:inline;overflow:visible;visibility:visible;fill:#ffffff;fill-opacity:1;fill-rule:evenodd;stroke:#000000;stroke-width:0.5;stroke-linecap:round;stroke-linejoin:round;stroke-miterlimit:4;stroke-dasharray:none;stroke-dashoffset:0;stroke-opacity:1;marker:none;enable-background:accumulate" />
    <path
       d="m 24.461675,32.083838 0,0.20644"
       id="path3922"
       style="display:inline;fill:none;stroke:#000000;stroke-width:0.5;stroke-linecap:round;stroke-linejoin:miter;stroke-miterlimit:4;stroke-dasharray:none;stroke-opacity:1" />
  </g>
  <path
     style="fill:#ecdfd2;fill-opacity:1;fill-rule:evenodd;stroke:#000000;stroke-width:0.5;stroke-linecap:round;stroke-linejoin:round;stroke-miterlimit:4;stroke-opacity:1;stroke-dasharray:none;stroke-dashoffset:0;marker:none;visibility:visible;display:inline;overflow:visible;enable-background:accumulate"
     id="path3898"
     d="m 22.832465,27.239348 c -1.18635,0 -2.12371,0.98715 -2.12371,2.19788 0,1.2107 0.93736,2.19782 2.12371,2.19782 0.65997,0 1.25078,-0.31534 1.64512,-0.79365 0.39434,0.47831 0.98514,0.79365 1.64512,0.79365 1.18635,0 2.15362,-0.98712 2.15362,-2.19782 0,-1.21073 -0.96727,-2.19788 -2.15362,-2.19788 -0.65998,0 -1.25078,0.31537 -1.64512,0.79365 -0.39434,-0.47828 -0.98515,-0.79365 -1.64512,-0.79365 z" />
  <path
     style="fill:#70130a;fill-opacity:1;fill-rule:evenodd;stroke:#000000;stroke-width:0.5;stroke-linecap:round;stroke-linejoin:round;stroke-miterlimit:4;stroke-opacity:1;stroke-dashoffset:0;marker:none;visibility:visible;display:inline;overflow:visible;enable-background:accumulate"
     id="path3900"
     d="m 25.582665,27.492158 c 0,0.63286 -0.50329,1.69483 -1.12343,1.69483 -0.62013,0 -1.12343,-1.06197 -1.12343,-1.69483 0,-0.63289 0.5033,-0.49849 1.12343,-0.49849 0.62014,0 1.12343,-0.1344 1.12343,0.49849 z" />
  <path
     style="fill:#d1c6bc;fill-opacity:1;fill-rule:evenodd;stroke:none;stroke-width:0.5;marker:none;visibility:visible;display:inline;overflow:visible;enable-background:accumulate"
     id="path3902"
     d="m 19.830355,10.118298 c -0.78779,0.21379 -1.04431,1.82971 -0.68796,3.75469 0.31331,0.60874 0.57843,1.19096 0.74778,1.70947 0.62169,-0.21149 2.13296,-0.58003 2.06388,-0.58003 0.01355,-0.77422 0.10415,-1.57221 0.17947,-2.38099 -0.63296,-1.62766 -1.57385,-2.7010598 -2.30317,-2.50314 z" />
  <path
     style="fill:none;stroke:#000000;stroke-width:0.5;stroke-linecap:round;stroke-linejoin:round;stroke-miterlimit:4;stroke-opacity:1;stroke-dasharray:none;stroke-dashoffset:0;marker:none;visibility:visible;display:inline;overflow:visible;enable-background:accumulate"
     id="path3904"
     d="m 21.965135,15.013368 c 0.06907,-3.94779 1.38154,-8.6005402 -0.55262,-11.3498802 -1.93416,-2.74934 -4.62816,-0.91646 -4.83539,2.67885 -0.20723,3.5953004 2.55585,6.9086002 3.31569,9.2350002 0.6217,-0.21149 2.14139,-0.56397 2.07232,-0.56397 z" />
  <path
     style="fill:#ffffff;fill-opacity:1;fill-rule:evenodd;stroke:none;stroke-width:0.5;marker:none;visibility:visible;display:inline;overflow:visible;enable-background:accumulate"
     id="path3906"
     d="m 27.029375,15.013388 c -0.06907,-3.9478 -1.38154,-8.6005402 0.55262,-11.3499002 1.93415,-2.74934 4.62816,-0.91642 4.83539,2.67889 0.20723,3.5952804 -2.55585,6.9086002 -3.3157,9.2349602 -0.62169,-0.21147 -2.14138,-0.56395 -2.07231,-0.56395 z" />
  <path
     style="fill:#d1c6bc;fill-opacity:1;fill-rule:evenodd;stroke:none;stroke-width:0.5;marker:none;visibility:visible;display:inline;overflow:visible;enable-background:accumulate"
     id="path3908"
     d="m 29.164155,10.118298 c 0.78779,0.21379 1.04431,1.82971 0.68796,3.75469 -0.3133,0.60874 -0.57843,1.19096 -0.74778,1.70947 -0.62169,-0.21149 -2.13296,-0.58003 -2.06388,-0.58003 -0.01355,-0.77422 -0.10415,-1.57221 -0.17947,-2.38099 0.63296,-1.62766 1.57385,-2.7010598 2.30317,-2.50314 z" />
  <path
     style="fill:none;stroke:#000000;stroke-width:0.5;stroke-linecap:round;stroke-linejoin:round;stroke-miterlimit:4;stroke-opacity:1;stroke-dasharray:none;stroke-dashoffset:0;marker:none;visibility:visible;display:inline;overflow:visible;enable-background:accumulate"
     id="path3910"
     d="m 27.029375,15.013368 c -0.06908,-3.94779 -1.38154,-8.6005402 0.55261,-11.3498802 1.93416,-2.74934 4.62816,-0.91646 4.83539,2.67885 0.20723,3.5953004 -2.55585,6.9086002 -3.31569,9.2350002 -0.6217,-0.21149 -2.14139,-0.56397 -2.07231,-0.56397 z" />
  <path
     style="fill:none;stroke:#000000;stroke-width:0.5;stroke-linecap:round;stroke-linejoin:miter;stroke-miterlimit:4;stroke-opacity:1;stroke-dasharray:none;display:inline"
     id="path3924"
     d="m 21.456185,28.751188 -2.31191,-0.58988" />
  <path
     style="fill:none;stroke:#000000;stroke-width:0.5;stroke-linecap:round;stroke-linejoin:miter;stroke-miterlimit:4;stroke-opacity:1;stroke-dasharray:none;display:inline"
     id="path3926"
     d="m 21.224995,29.694908 -1.79173,0.29496" />
  <path
     style="fill:none;stroke:#000000;stroke-width:0.5;stroke-linecap:round;stroke-linejoin:miter;stroke-miterlimit:4;stroke-opacity:1;stroke-dasharray:none;display:inline"
     id="path3928"
     d="m 27.467155,28.751188 2.31192,-0.58988" />
  <path
     style="fill:none;stroke:#000000;stroke-width:0.5;stroke-linecap:round;stroke-linejoin:miter;stroke-miterlimit:4;stroke-opacity:1;stroke-dasharray:none;display:inline"
     id="path3930"
     d="m 27.698345,29.694908 1.79174,0.29496" />
  <path
     style="color:#000000;display:inline;overflow:visible;visibility:visible;fill:none;stroke:#000000;stroke-width:0.5;stroke-linecap:round;stroke-linejoin:miter;stroke-miterlimit:4;stroke-dasharray:none;stroke-dashoffset:0;stroke-opacity:1;marker:none;enable-background:accumulate"
     d="m 22.229538,26.622522 c 0,-1.03074 -0.728705,-1.84375 -1.625,-1.84375 -0.896295,0 -1.625,0.81301 -1.625,1.84375"
     id="path4869" />
  <path
     id="path4874"
     d="m 30.189467,26.622522 c 0,-1.03074 -0.728705,-1.84375 -1.625,-1.84375 -0.896295,0 -1.625,0.81301 -1.625,1.84375"
     style="color:#000000;display:inline;overflow:visible;visibility:visible;fill:none;stroke:#000000;stroke-width:0.5;stroke-linecap:round;stroke-linejoin:miter;stroke-miterlimit:4;stroke-dasharray:none;stroke-dashoffset:0;stroke-opacity:1;marker:none;enable-background:accumulate" />
  <path
     style="display:inline;overflow:visible;visibility:visible;fill:#ffffff;fill-opacity:1;stroke:#000000;stroke-width:0.5;stroke-linecap:round;stroke-linejoin:miter;stroke-miterlimit:4;stroke-dasharray:none;stroke-dashoffset:0;stroke-opacity:1;marker:none;enable-background:accumulate"
     d="m 9.1076563,32.838758 c -0.026069,0.08244 -0.019108,0.176009 -0.027602,0.265574 -0.068158,0.716454 0.3852852,1.247951 1.2333707,1.588334 -0.5303644,0.503382 -0.7983539,0.925456 -0.5645884,1.554724 0.233768,0.629258 1.3751254,1.182778 2.9418674,0.891341 1.630815,-0.253164 3.898303,-1.101037 4.594929,-2.423407 0.617557,-1.239017 0.116839,-2.735127 -1.122167,-3.352721 -0.08696,-0.04335 -0.176283,-0.06493 -0.265659,-0.0975 -0.03441,-0.498927 -0.405835,-1.089744 -0.99411,-1.508125 -0.864143,-0.614564 -1.900865,-0.66509 -2.320054,-0.108943 -0.405838,0.538436 -0.06202,1.466529 0.743258,2.081423 -0.22645,0.202256 -0.400622,0.453478 -0.544131,0.741369 -0.01388,0.02861 -0.02877,0.05506 -0.04181,0.08385 -0.414462,-0.189155 -0.894657,-0.339815 -1.426019,-0.431486 -1.3741364,-0.236947 -2.0248296,0.13875 -2.2072391,0.715466 z"
     id="path7356" />
  <path
     style="display:inline;fill:none;fill-rule:evenodd;stroke:#000000;stroke-width:0.5;stroke-linecap:round;stroke-linejoin:miter;stroke-miterlimit:4;stroke-dasharray:none;stroke-opacity:1"
     d="m 10.249405,34.6266 c 0.547693,-0.06251 0.74064,-0.06883 1.188817,0.0056"
     id="path7358" />
  <ellipse
     style="color:#000000;clip-rule:nonzero;display:inline;overflow:visible;visibility:visible;opacity:1;isolation:auto;mix-blend-mode:normal;color-interpolation:sRGB;color-interpolation-filters:linearRGB;solid-color:#000000;solid-opacity:1;fill:#d6ba9e;fill-opacity:1;fill-rule:nonzero;stroke:none;stroke-width:0.5;stroke-linecap:round;stroke-linejoin:round;stroke-miterlimit:4;stroke-dasharray:none;stroke-dashoffset:0;stroke-opacity:1;marker:none;marker-start:none;marker-mid:none;marker-end:none;color-rendering:auto;image-rendering:auto;shape-rendering:auto;text-rendering:auto;enable-background:accumulate"
     id="ellipse7372"
     cx="8.5008907"
     cy="35.508507"
     rx="1.8192246"
     ry="1.476256"
     transform="matrix(-0.79480297,0.60686756,0.60686756,0.79480297,0,0)" />
  <path
     id="path4181"
     d="m 39.887666,33.245538 c 0.02607,0.08244 0.01911,0.176009 0.0276,0.265574 0.06816,0.716454 -0.385285,1.247951 -1.233371,1.588334 0.530365,0.503382 0.798354,0.925456 0.564589,1.554724 -0.233768,0.629258 -1.375126,1.182778 -2.941868,0.891341 -1.630815,-0.253164 -3.898303,-1.101037 -4.594928,-2.423407 -0.617557,-1.239017 -0.116839,-2.735127 1.122166,-3.352721 0.08696,-0.04335 0.176283,-0.06493 0.265659,-0.0975 0.03441,-0.498927 0.405835,-1.089744 0.99411,-1.508125 0.864143,-0.614564 1.900865,-0.66509 2.320054,-0.108943 0.405838,0.538436 0.06202,1.466529 -0.743258,2.081423 0.22645,0.202256 0.400622,0.453478 0.544131,0.741369 0.01388,0.02861 0.02877,0.05506 0.04181,0.08385 0.414462,-0.189155 0.894657,-0.339815 1.426019,-0.431486 1.374137,-0.236947 2.02483,0.13875 2.207239,0.715466 z"
     style="display:inline;overflow:visible;visibility:visible;fill:#ffffff;fill-opacity:1;stroke:#000000;stroke-width:0.5;stroke-linecap:round;stroke-linejoin:miter;stroke-miterlimit:4;stroke-dasharray:none;stroke-dashoffset:0;stroke-opacity:1;marker:none;enable-background:accumulate" />
  <path
     id="path4183"
     d="m 38.745917,35.03338 c -0.547693,-0.06251 -0.74064,-0.06883 -1.188817,0.0056"
     style="display:inline;fill:none;fill-rule:evenodd;stroke:#000000;stroke-width:0.5;stroke-linecap:round;stroke-linejoin:miter;stroke-miterlimit:4;stroke-dasharray:none;stroke-opacity:1" />
  <ellipse
     transform="matrix(0.79480297,0.60686756,-0.60686756,0.79480297,0,0)"
     ry="1.476256"
     rx="1.8192246"
     cy="6.0981445"
     cx="47.689381"
     id="ellipse4185"
     style="color:#000000;clip-rule:nonzero;display:inline;overflow:visible;visibility:visible;opacity:1;isolation:auto;mix-blend-mode:normal;color-interpolation:sRGB;color-interpolation-filters:linearRGB;solid-color:#000000;solid-opacity:1;fill:#d6ba9e;fill-opacity:1;fill-rule:nonzero;stroke:none;stroke-width:0.5;stroke-linecap:round;stroke-linejoin:round;stroke-miterlimit:4;stroke-dasharray:none;stroke-dashoffset:0;stroke-opacity:1;marker:none;marker-start:none;marker-mid:none;marker-end:none;color-rendering:auto;image-rendering:auto;shape-rendering:auto;text-rendering:auto;enable-background:accumulate" />
</svg>
