<?xml version="1.0" encoding="UTF-8" standalone="no"?>
<svg
   xmlns:dc="http://purl.org/dc/elements/1.1/"
   xmlns:cc="http://creativecommons.org/ns#"
   xmlns:rdf="http://www.w3.org/1999/02/22-rdf-syntax-ns#"
   xmlns:svg="http://www.w3.org/2000/svg"
   xmlns="http://www.w3.org/2000/svg"
   version="1.0"
   width="100%"
   height="100%"
   viewBox="0 0 48 48"
   id="svg2383">
  <metadata
     id="metadata9">
    <rdf:RDF>
      <cc:Work
         rdf:about="">
        <dc:format>image/svg+xml</dc:format>
        <dc:type
           rdf:resource="http://purl.org/dc/dcmitype/StillImage" />
        <dc:title></dc:title>
      </cc:Work>
    </rdf:RDF>
  </metadata>
  <defs
     id="defs2385" />
  <path
     d="m 26.673796,12.186601 c -6.27653,-0.67067 -11.900309,3.742993 -12.553071,9.851927 -0.09826,0.919575 -0.216037,1.7161 -0.321211,2.700387 l -0.433376,4.055792 c -0.319992,2.994672 1.904734,5.641167 4.981579,5.969939 l 11.661256,1.246048 c 3.076835,0.328771 5.810532,-1.787898 6.130524,-4.78257 l 0.433376,-4.055792 c 0.08913,-0.834082 0.183316,-1.715584 0.288915,-2.703838 C 37.51455,18.35956 32.950336,12.857272 26.673796,12.186601 Z"
     id="path3586"
     style="display:inline;overflow:visible;visibility:visible;fill:#2c2ea0;fill-opacity:1;fill-rule:evenodd;stroke:#000000;stroke-width:0.49999997;stroke-linecap:butt;stroke-linejoin:miter;stroke-miterlimit:4;stroke-dasharray:none;stroke-dashoffset:0;stroke-opacity:1;marker:none;enable-background:accumulate" />
  <path
     d="m 20.881329,41.208579 c -1.343249,0 -2.437499,0.84173 -2.437499,1.875 0,0.17349 0.03625,0.96449 0.09375,1.12395 1.5625,0.42019 3.124999,0.41174 4.6875,0 0.05601,-0.15753 0.09375,-0.95281 0.09375,-1.12395 0,-1.03327 -1.094251,-1.875 -2.437501,-1.875 z"
     id="path3624"
     style="display:inline;overflow:visible;visibility:visible;fill:#61411f;fill-opacity:1;fill-rule:evenodd;stroke:none;stroke-width:0.5;marker:none;enable-background:accumulate" />
  <path
     d="m 20.869189,41.219669 c -1.343249,0 -2.437499,0.84174 -2.437499,1.875 0,0.0579 0.02373,0.22591 0.03125,0.375 1.60859,0.40296 3.235159,0.39602 4.84375,0 0.0077,-0.149 0,-0.31795 0,-0.375 0,-1.03326 -1.094251,-1.87499 -2.437501,-1.875 z"
     id="path3626"
     style="display:inline;overflow:visible;visibility:visible;fill:#ffc78f;fill-opacity:1;fill-rule:evenodd;stroke:none;stroke-width:0.5;marker:none;enable-background:accumulate" />
  <path
     d="m 20.881329,41.208579 c -1.343249,0 -2.437499,0.84173 -2.437499,1.875 0,0.17349 0.03625,0.96449 0.09375,1.12395 1.5625,0.42019 3.124999,0.41174 4.6875,0 0.05601,-0.15753 0.09375,-0.95281 0.09375,-1.12395 0,-1.03327 -1.094251,-1.875 -2.437501,-1.875 z"
     id="path3628"
     style="display:inline;overflow:visible;visibility:visible;fill:none;stroke:#000000;stroke-width:0.5;stroke-linecap:round;stroke-linejoin:miter;stroke-miterlimit:4;stroke-dasharray:none;stroke-dashoffset:0;stroke-opacity:1;marker:none;enable-background:accumulate" />
  <path
     d="m 28.26067,41.208579 c 1.34325,0 2.4375,0.84173 2.4375,1.875 0,0.17349 -0.03625,0.96449 -0.09375,1.12395 -1.5625,0.42019 -3.125,0.41174 -4.6875,0 -0.05601,-0.15753 -0.09375,-0.95281 -0.09375,-1.12395 0,-1.03327 1.09425,-1.875 2.4375,-1.875 z"
     id="path3630"
     style="display:inline;overflow:visible;visibility:visible;fill:#61411f;fill-opacity:1;fill-rule:evenodd;stroke:none;stroke-width:0.5;marker:none;enable-background:accumulate" />
  <path
     d="m 28.27281,41.219669 c 1.34325,0 2.4375,0.84174 2.4375,1.875 0,0.0579 -0.02373,0.22591 -0.03125,0.375 -1.60859,0.40296 -3.23516,0.39602 -4.84375,0 -0.0077,-0.149 0,-0.31795 0,-0.375 0,-1.03326 1.09425,-1.87499 2.4375,-1.875 z"
     id="path3632"
     style="display:inline;overflow:visible;visibility:visible;fill:#ffc78f;fill-opacity:1;fill-rule:evenodd;stroke:none;stroke-width:0.5;marker:none;enable-background:accumulate" />
  <path
     d="m 28.26067,41.208579 c 1.34325,0 2.4375,0.84173 2.4375,1.875 0,0.17349 -0.03625,0.96449 -0.09375,1.12395 -1.5625,0.42019 -3.125,0.41174 -4.6875,0 -0.05601,-0.15753 -0.09375,-0.95281 -0.09375,-1.12395 0,-1.03327 1.09425,-1.875 2.4375,-1.875 z"
     id="path3634"
     style="display:inline;overflow:visible;visibility:visible;fill:none;stroke:#000000;stroke-width:0.5;stroke-linecap:round;stroke-linejoin:miter;stroke-miterlimit:4;stroke-dasharray:none;stroke-dashoffset:0;stroke-opacity:1;marker:none;enable-background:accumulate" />
  <path
     d="m 21.90625,31.659122 c -0.729181,0.02791 -1.180405,0.124243 -1.5,0.4375 -0.594159,0.0237 -1.157639,0.31973 -1.53125,0.84375 l -1.78125,2.5 c -0.34796,0.488043 0.32162,1.050297 1.21875,1.6875 -0.205409,0.713518 -0.34375,1.404425 -0.34375,1.9375 0,1.89795 0.0625,2.76552 0.0625,3.5 l 13.1875,0 c 0,-0.73448 0.0625,-1.60205 0.0625,-3.5 0,-0.540272 -0.164935,-1.244469 -0.375,-1.96875 0.867877,-0.620083 1.527805,-1.178944 1.1875,-1.65625 l -1.78125,-2.5 c -0.360366,-0.505443 -0.928296,-0.802735 -1.5,-0.84375 -0.319598,-0.313247 -0.739576,-0.409563 -1.46875,-0.4375 -0.89576,-0.004 -1.7916,-0.0117 -2.6875,0 -0.02084,-2.9e-4 -0.04167,2.8e-4 -0.0625,0 -0.8959,-0.0117 -1.791739,-0.004 -2.6875,0 z"
     id="path3576"
     style="display:inline;overflow:visible;visibility:visible;fill:#447821;fill-opacity:1;fill-rule:evenodd;stroke:none;stroke-width:0.5;marker:none;enable-background:accumulate" />
  <path
     d="m 22.59375,31.659122 c -0.173805,0.224703 -0.199476,0.487879 -0.03125,0.6875 0.239342,0.284004 0.689108,0.19852 1,-0.15625 0.01849,0.465157 0.295815,0.845599 0.65625,0.78125 0.365821,-0.06531 0.496006,-0.490608 0.34375,-0.9375 0.411803,0.216548 0.906782,0.156683 1.03125,-0.1875 0.02371,-0.06552 0.0037,-0.122203 0,-0.1875 -0.312508,3.4e-4 -0.624977,-0.0041 -0.9375,0 -0.02084,-2.9e-4 -0.04167,2.8e-4 -0.0625,0 -0.02084,-2.72e-4 -0.04166,2.51e-4 -0.0625,0 -0.03592,0.05316 -0.07424,0.11346 -0.125,0.15625 -0.317365,0.267435 -0.79507,0.192342 -1.0625,-0.125 -0.0098,-0.01159 -0.02237,-0.01928 -0.03125,-0.03125 -0.239585,4.14e-4 -0.479176,-0.0012 -0.71875,0 z m 1.09375,0 c 0.162175,0.08511 0.37379,0.09772 0.53125,0 -0.177093,-0.0013 -0.354162,2.46e-4 -0.53125,0 z m 3.25,0 c 0.01849,0.312486 0.39245,0.519276 0.78125,0.4375 -0.222396,0.3233 -0.24455,0.705086 0.03125,0.84375 0.279983,0.140767 0.626734,-0.0903 0.75,-0.46875 0.168531,0.354738 0.52309,0.544657 0.78125,0.375 0.189597,-0.124597 0.221406,-0.380066 0.125,-0.625 -0.177891,-0.06906 -0.375958,-0.10869 -0.5625,-0.125 -0.0073,0.0053 -0.02374,-0.005 -0.03125,0 -0.18246,0.121134 -0.42044,0.165338 -0.625,0.0625 -0.185308,-0.09315 -0.281037,-0.278082 -0.3125,-0.46875 -0.155733,-0.02038 -0.334659,-0.02372 -0.53125,-0.03125 -0.135406,-6.05e-4 -0.270841,6.94e-4 -0.40625,0 z m 1.125,0.09375 c 0.0389,0.09216 0.121895,0.170019 0.21875,0.21875 0.128326,0.06449 0.256715,0.06 0.375,0 -0.158159,-0.109686 -0.364946,-0.17195 -0.59375,-0.21875 z m -8.90625,0.875 c -0.102121,0.0947 -0.196723,0.193943 -0.28125,0.3125 0.115631,-0.09932 0.231205,-0.19181 0.28125,-0.3125 z m -0.5,0.59375 -0.71875,1.03125 c 0.436748,0.3408 0.969172,0.3458 1.1875,-0.03125 0.206161,-0.355879 -0.01475,-0.777447 -0.46875,-1 z m -0.71875,1.03125 -0.71875,1 c 0.02178,0.0025 0.03953,0.03122 0.0625,0.03125 0.442111,5.81e-4 0.740307,-0.475923 0.65625,-1.03125 z m 7.875,-0.59375 c -0.09765,-0.02365 -0.210121,-0.0058 -0.3125,0.03125 -0.415062,0.150152 -0.516945,0.694888 -0.25,1.1875 -0.526446,-0.170565 -1.048572,0.0089 -1.125,0.4375 -0.07768,0.435051 0.34515,0.79816 0.90625,0.8125 -0.411595,0.370655 -0.520632,0.875569 -0.1875,1.15625 0.338149,0.284901 0.832116,0.104361 1.125,-0.375 0.115359,0.541445 0.527986,0.929366 0.9375,0.78125 0.415733,-0.150383 0.549837,-0.725481 0.28125,-1.21875 0.526862,0.171213 1.048503,-0.0086 1.125,-0.4375 0.07768,-0.434914 -0.376677,-0.797929 -0.9375,-0.8125 0.408706,-0.370549 0.519661,-0.876369 0.1875,-1.15625 -0.338265,-0.28498 -0.832162,-0.104681 -1.125,0.375 -0.08652,-0.406084 -0.332036,-0.710302 -0.625,-0.78125 z m -3.875,0.09375 c -0.256171,0.02885 -0.494042,0.254487 -0.59375,0.59375 -0.212687,-0.411958 -0.638421,-0.615633 -0.9375,-0.40625 -0.304488,0.213195 -0.232542,0.689837 0.09375,1.03125 -0.464674,-0.02321 -0.844357,0.197895 -0.8125,0.5625 0.03236,0.369552 0.417239,0.579185 0.875,0.46875 -0.252219,0.390751 -0.206513,0.876606 0.125,1.03125 0.336577,0.156972 0.710937,-0.109875 0.84375,-0.5625 0.212224,0.41435 0.606338,0.616241 0.90625,0.40625 0.304419,-0.213126 0.294809,-0.689865 -0.03125,-1.03125 0.464698,0.02321 0.84438,-0.197918 0.8125,-0.5625 -0.03237,-0.370153 -0.478859,-0.580383 -0.9375,-0.46875 0.252843,-0.390948 0.269295,-0.876486 -0.0625,-1.03125 -0.08415,-0.03923 -0.195921,-0.04084 -0.28125,-0.03125 z m 9.1875,0.34375 c -0.133068,0.19 -0.201518,0.461031 -0.1875,0.75 -0.436424,-0.414635 -1.034921,-0.509213 -1.3125,-0.125 -0.282642,0.391212 -0.04584,0.93906 0.5,1.21875 -0.579802,0.169502 -0.913173,0.660158 -0.71875,1.09375 0.197198,0.43948 0.798145,0.517969 1.3125,0.1875 -0.138083,0.567045 0.06006,1.047424 0.5,1.125 -0.06755,-0.391178 -0.185596,-0.812449 -0.3125,-1.25 0.06998,-0.05 0.120641,-0.107059 0.1875,-0.15625 -0.344578,-0.18259 -0.573531,-0.555967 -0.53125,-0.96875 0.05479,-0.53603 0.526484,-0.898644 1.0625,-0.84375 0.110361,0.0113 0.215579,0.01981 0.3125,0.0625 l -0.8125,-1.09375 z m -9.875,0.5625 c 0.06905,-0.01756 0.145541,-0.0026 0.21875,0 0.09756,0.0035 0.218571,0.01864 0.3125,0.0625 0.376132,0.175397 0.519147,0.623885 0.34375,1 -0.175467,0.376116 -0.623868,0.550408 -1,0.375 -0.376085,-0.175398 -0.519171,-0.655132 -0.34375,-1.03125 0.09866,-0.211565 0.261592,-0.353573 0.46875,-0.40625 z m 4.75,0.15625 c 0.113278,-0.0258 0.253515,-0.02173 0.375,0 0.486128,0.08672 0.805466,0.545131 0.71875,1.03125 -0.08669,0.486144 -0.545122,0.805464 -1.03125,0.71875 -0.486128,-0.08672 -0.805466,-0.545109 -0.71875,-1.03125 0.06496,-0.36458 0.316298,-0.641332 0.65625,-0.71875 z m -4.53125,0.0625 c -0.20159,-0.0074 -0.409424,0.118285 -0.5,0.3125 -0.120677,0.258967 -0.0083,0.566728 0.25,0.6875 0.258969,0.120769 0.597981,0.009 0.71875,-0.25 0.120677,-0.258964 -0.02297,-0.597977 -0.28125,-0.71875 -0.06473,-0.03019 -0.120227,-0.02882 -0.1875,-0.03125 z m 4.625,0.1875 c -0.234002,0.05324 -0.42397,0.248956 -0.46875,0.5 -0.05964,0.334714 0.134,0.659035 0.46875,0.71875 0.334704,0.05969 0.690286,-0.134035 0.75,-0.46875 0.05964,-0.334716 -0.196454,-0.6903 -0.53125,-0.75 -0.08369,-0.01503 -0.140634,-0.0178 -0.21875,0 z m 5.25,0.375 c -0.250277,0.07694 -0.440407,0.285697 -0.46875,0.5625 -0.0342,0.334941 0.18609,0.637101 0.5,0.71875 0.397173,-0.313336 0.702306,-0.600829 0.78125,-0.875 -0.08266,-0.218857 -0.27007,-0.379506 -0.53125,-0.40625 -0.09224,-0.0095 -0.197747,-0.02564 -0.28125,0 z m -13.53125,1.1875 c -0.04258,0.0063 -0.08305,0.01741 -0.125,0.03125 0.183495,0.149944 0.400717,0.309449 0.625,0.46875 -0.06823,0.237014 -0.105431,0.460432 -0.15625,0.6875 0.01447,-0.004 0.0166,-0.02791 0.03125,-0.03125 0.113278,-0.0258 0.253515,-0.02173 0.375,0 0.486128,0.08672 0.774239,0.545133 0.6875,1.03125 -0.08669,0.486144 -0.513872,0.805464 -1,0.71875 -0.09847,-0.01757 -0.197155,-0.04734 -0.28125,-0.09375 0.0015,0.259138 -0.0034,0.436975 0,0.65625 0.06411,-0.06561 0.135993,-0.103195 0.1875,-0.1875 0.115359,0.541445 0.527986,0.866863 0.9375,0.71875 0.415733,-0.150383 0.518586,-0.662981 0.25,-1.15625 0.526862,0.171212 1.048479,-0.0086 1.125,-0.4375 0.07768,-0.434922 -0.345428,-0.797928 -0.90625,-0.8125 0.408705,-0.370549 0.519661,-0.907618 0.1875,-1.1875 -0.338264,-0.284979 -0.863436,-0.104682 -1.15625,0.375 -0.08646,-0.406084 -0.331354,-0.714873 -0.625,-0.78125 -0.0489,-0.01109 -0.103532,-0.0079 -0.15625,0 z m 5.75,1.28125 c -0.479539,-0.0491 -0.842161,0.451058 -0.8125,1.0625 -0.436424,-0.414635 -1.003648,-0.509214 -1.28125,-0.125 -0.282619,0.391212 -0.04584,0.970311 0.5,1.25 -0.579802,0.169503 -0.975673,0.660158 -0.78125,1.09375 0.197198,0.439478 0.829395,0.486705 1.34375,0.15625 -0.14287,0.586701 0.08987,1.139107 0.5625,1.1875 0.479701,0.04913 0.811188,-0.41952 0.78125,-1.03125 0.436747,0.417804 1.034135,0.479072 1.3125,0.09375 0.282573,-0.391105 0.04538,-0.938986 -0.5,-1.21875 0.579826,-0.169502 0.944424,-0.660158 0.75,-1.09375 -0.197429,-0.440192 -0.766294,-0.488573 -1.28125,-0.15625 0.143564,-0.587207 -0.120892,-1.17032 -0.59375,-1.21875 z m -5.3125,0.15625 c -0.07019,0.01597 -0.128238,0.05871 -0.1875,0.09375 -0.06026,0.328551 -0.09375,0.639713 -0.09375,0.90625 0.0046,0.005 -0.0048,0.02642 0,0.03125 0.08637,0.08691 0.18696,0.165108 0.3125,0.1875 0.334704,0.05971 0.627809,-0.165294 0.6875,-0.5 0.05964,-0.334713 -0.134,-0.65905 -0.46875,-0.71875 -0.08369,-0.01503 -0.172069,-0.0178 -0.25,0 z m 11.03125,0.125 c -0.321296,0.05701 -0.587514,0.375206 -0.6875,0.8125 -0.299495,-0.507376 -0.855565,-0.756679 -1.21875,-0.46875 -0.368087,0.291859 -0.279781,0.87439 0.15625,1.28125 -0.588935,0.0058 -1.067782,0.354151 -1,0.8125 0.06866,0.465264 0.616436,0.675238 1.1875,0.5 -0.290017,0.513209 -0.243653,1.110662 0.1875,1.28125 0.43758,0.173155 0.929062,-0.167227 1.0625,-0.75 0.299495,0.507376 0.855564,0.694179 1.21875,0.40625 0.368687,-0.292326 0.28163,-0.874295 -0.15625,-1.28125 0.589558,-0.0053 1.036578,-0.322541 0.96875,-0.78125 -0.06866,-0.465107 -0.616645,-0.706167 -1.1875,-0.53125 0.287127,-0.512122 0.242405,-1.079881 -0.1875,-1.25 -0.109348,-0.0433 -0.236644,-0.05025 -0.34375,-0.03125 z m -5.84375,1.03125 c 0.53604,0.05488 0.929905,0.557719 0.875,1.09375 -0.05479,0.53603 -0.526483,0.929892 -1.0625,0.875 -0.536017,-0.05491 -0.929905,-0.526469 -0.875,-1.0625 0.05479,-0.536028 0.526506,-0.961144 1.0625,-0.90625 z m 5.21875,0.15625 c 0.519881,-0.07687 0.985633,0.261375 1.0625,0.78125 0.07675,0.519881 -0.261324,1.016893 -0.78125,1.09375 -0.51988,0.07687 -1.016905,-0.261367 -1.09375,-0.78125 -0.07675,-0.519861 0.29262,-1.016892 0.8125,-1.09375 z m -5.25,0.15625 c -0.369034,-0.0378 -0.680951,0.224683 -0.71875,0.59375 -0.03791,0.369067 0.193442,0.712206 0.5625,0.75 0.369057,0.0378 0.712225,-0.224683 0.75,-0.59375 0.03791,-0.369069 -0.224669,-0.712209 -0.59375,-0.75 z m 5.28125,0.125 c -0.357961,0.05292 -0.584167,0.392041 -0.53125,0.75 0.05294,0.357952 0.392062,0.615431 0.75,0.5625 0.357961,-0.05292 0.584167,-0.360789 0.53125,-0.71875 -0.05294,-0.357945 -0.392062,-0.646669 -0.75,-0.59375 z m -8.3125,2.25 c -0.256172,0.02883 -0.525291,0.254485 -0.625,0.59375 -0.212686,-0.41196 -0.57592,-0.646883 -0.875,-0.4375 -0.152244,0.106598 -0.225729,0.306913 -0.21875,0.5 l 2.21875,0 c 0.0392,-0.265097 -0.02884,-0.490574 -0.25,-0.59375 -0.08415,-0.03923 -0.164718,-0.07209 -0.25,-0.0625 z m 5.9375,0.5 c -0.10246,0.01154 -0.186881,0.08163 -0.28125,0.15625 l 0.59375,0 c -0.02513,-0.01814 -0.03259,-0.04855 -0.0625,-0.0625 -0.08415,-0.03923 -0.164695,-0.10336 -0.25,-0.09375 z M 25,42.534122 c -0.02488,5.59e-4 -0.03818,0.02659 -0.0625,0.03125 l 0.1875,0 c -0.03847,-0.0081 -0.08706,-0.0321 -0.125,-0.03125 z"
     id="path3146"
     style="display:inline;fill:#a3a532;fill-opacity:1;fill-rule:evenodd;stroke:none" />
  <path
     d="m 21.832249,31.630899 2.718751,4.5625 2.75,-4.5625 c -0.88534,-0.004 -1.77076,-0.0115 -2.65625,0 -0.02084,-2.9e-4 -0.04167,2.8e-4 -0.0625,0 -0.8959,-0.0117 -1.79174,-0.004 -2.687501,0 -0.02384,9.2e-4 -0.03925,-10e-4 -0.0625,0 z"
     id="path3580"
     style="display:inline;fill:#ffc78f;fill-opacity:1;fill-rule:evenodd;stroke:none" />
  <path
     d="m 21.832249,31.630899 2.718751,4.5625 2.75,-4.5625"
     id="path3582"
     style="display:inline;fill:none;stroke:#000000;stroke-width:0.5;stroke-linecap:butt;stroke-linejoin:round;stroke-miterlimit:4;stroke-dasharray:none;stroke-opacity:1" />
  <path
     d="m 21.90625,31.659122 c -0.729181,0.02791 -1.180405,0.124243 -1.5,0.4375 -0.594159,0.0237 -1.157639,0.31973 -1.53125,0.84375 l -1.78125,2.5 c -0.34796,0.488043 0.32162,1.050297 1.21875,1.6875 -0.205409,0.713518 -0.34375,1.404425 -0.34375,1.9375 0,1.89795 0.0625,2.76552 0.0625,3.5 l 13.1875,0 c 0,-0.73448 0.0625,-1.60205 0.0625,-3.5 0,-0.540272 -0.164935,-1.244469 -0.375,-1.96875 0.867877,-0.620083 1.527805,-1.178944 1.1875,-1.65625 l -1.78125,-2.5 c -0.360366,-0.505443 -0.928296,-0.802735 -1.5,-0.84375 -0.319598,-0.313247 -0.739576,-0.409563 -1.46875,-0.4375 -0.89576,-0.004 -1.7916,-0.0117 -2.6875,0 -0.02084,-2.9e-4 -0.04167,2.8e-4 -0.0625,0 -0.8959,-0.0117 -1.791739,-0.004 -2.6875,0 z"
     id="path3584"
     style="display:inline;overflow:visible;visibility:visible;fill:none;stroke:#000000;stroke-width:0.5;stroke-linecap:butt;stroke-linejoin:miter;stroke-miterlimit:4;stroke-dasharray:none;stroke-dashoffset:0;stroke-opacity:1;marker:none;enable-background:accumulate" />
  <path
     d="m 19.338399,18.009403 c -0.37264,1.137808 -0.2926,5.842734 -2.306368,10.163813 1.470316,2.87454 4.062735,5.113948 7.252885,5.454827 3.231137,0.345259 6.302252,-1.329971 8.347039,-3.883439 -1.213791,-3.153816 -0.800838,-5.345616 -0.853268,-6.139943 -2.479265,-0.07792 -10.536954,-3.708933 -12.440288,-5.595258 z"
     id="path3588"
     style="display:inline;overflow:visible;visibility:visible;fill:#ffc78f;fill-opacity:1;fill-rule:evenodd;stroke:#000000;stroke-width:0.49999997;stroke-linecap:round;stroke-linejoin:round;stroke-miterlimit:4;stroke-dasharray:none;stroke-dashoffset:0;stroke-opacity:1;marker:none;enable-background:accumulate" />
  <path
     d="m 21.005719,28.664139 a 1.6062204,1.5923121 6.0991212 0 1 -3.194257,-0.341318 1.6062204,1.5923121 6.0991212 0 1 3.194257,0.341318 z"
     id="path3590"
     style="display:inline;overflow:visible;visibility:visible;fill:#fa9763;fill-opacity:1;fill-rule:evenodd;stroke:none;stroke-width:0.50000006;marker:none;enable-background:accumulate" />
  <path
     d="m 23.804939,29.197879 c -0.03176,0.297228 0.06517,0.608268 0.26604,0.758561"
     id="path3593"
     style="display:inline;fill:none;stroke:#000000;stroke-width:0.50000012;stroke-linecap:round;stroke-linejoin:miter;stroke-miterlimit:4;stroke-dasharray:none;stroke-opacity:1" />
  <path
     d="m 20.094254,23.707848 c 0.569079,-0.505015 1.44393,-0.671415 1.91451,-0.377352"
     id="path3603"
     style="display:inline;fill:none;stroke:#000000;stroke-width:0.50000012;stroke-linecap:butt;stroke-linejoin:miter;stroke-miterlimit:4;stroke-dasharray:none;stroke-opacity:1" />
  <path
     d="m 28.500145,29.464946 a 1.6062204,1.5923121 6.0991212 1 0 3.194257,0.341318 1.6062204,1.5923121 6.0991212 1 0 -3.194257,-0.341318 z"
     id="path3605"
     style="display:inline;overflow:visible;visibility:visible;fill:#fa9763;fill-opacity:1;fill-rule:evenodd;stroke:none;stroke-width:0.50000006;marker:none;enable-background:accumulate" />
  <path
     d="M 30.43826,24.813142 C 29.988747,24.199287 29.168806,23.851793 28.646717,24.039786"
     id="path3613"
     style="display:inline;fill:none;stroke:#000000;stroke-width:0.50000012;stroke-linecap:butt;stroke-linejoin:miter;stroke-miterlimit:4;stroke-dasharray:none;stroke-opacity:1" />
  <path
     d="m 15.712928,12.84708 c -1.43659,0.129397 -1.70857,2.449331 -0.414767,3.833632 -2.170326,2.00427 1.382592,4.28094 3.534484,0.404927 0.158357,0.254867 0.447242,0.427388 0.77224,0.409809 l 0.729651,-0.03945 c 0.348638,-0.01886 0.640347,-0.245011 0.757111,-0.546692 2.562278,3.699198 5.894755,1.035321 3.509614,-0.731659 1.705553,-2.273617 -0.335201,-6.2443708 -3.599725,-1.611609 -0.123203,-0.343193 -0.464971,-0.570925 -0.852997,-0.549943 l -0.729663,0.03946 c -0.37424,0.02025 -0.674634,0.265755 -0.772432,0.601706 -1.231211,-1.385416 -2.222403,-1.874257 -2.933564,-1.810204 z"
     id="rect3649"
     style="display:inline;overflow:visible;visibility:visible;fill:#d40000;fill-opacity:1;fill-rule:evenodd;stroke:none;stroke-width:0.5;marker:none;enable-background:accumulate" />
  <path
     d="m 15.712937,12.847091 c -1.436599,0.129386 -1.708579,2.44932 -0.414766,3.833622 -2.170316,2.004271 1.382592,4.28094 3.534484,0.404927 0.158367,0.254869 0.447242,0.427388 0.77224,0.409809 l 0.729651,-0.03945 c 0.348638,-0.01886 0.640347,-0.245011 0.757121,-0.546691 2.562278,3.699198 5.894745,1.03532 3.509613,-0.731649 1.705554,-2.273627 -0.335201,-6.2443808 -3.599734,-1.61162 -0.123203,-0.343193 -0.464971,-0.570925 -0.852997,-0.549943 l -0.729653,0.03946 c -0.37424,0.02025 -0.674635,0.265756 -0.772433,0.601706 -1.23121,-1.385416 -2.222412,-1.874257 -2.933564,-1.810194 z"
     id="path3643"
     style="display:inline;fill:none;stroke:#000000;stroke-width:0.5;stroke-linecap:butt;stroke-linejoin:miter;stroke-miterlimit:4;stroke-dasharray:none;stroke-opacity:1" />
  <path
     d="m 16.931644,15.391792 c 0.724943,-0.119432 1.714599,0.148011 1.714599,0.148011 l 0,0 c -0.0465,-0.389193 -10e-4,-0.805738 0.02806,-0.896845"
     id="path3659"
     style="display:inline;fill:none;stroke:#000000;stroke-width:0.5;stroke-linecap:round;stroke-linejoin:round;stroke-miterlimit:4;stroke-dasharray:none;stroke-opacity:1" />
  <path
     d="m 21.065469,15.050836 c 0.01328,0.2455 -0.08768,0.474791 0.267965,0.343646 0.355647,-0.131145 1.184782,-0.310275 1.557318,-0.128977"
     id="path3661"
     style="display:inline;fill:none;stroke:#000000;stroke-width:0.5;stroke-linecap:round;stroke-linejoin:round;stroke-miterlimit:4;stroke-dasharray:none;stroke-opacity:1" />
  <path
     d="m 29.208295,33.629967 c -0.492388,-0.124211 -0.998938,0.18016 -1.123839,0.675281 -0.0023,-0.0022 -0.0092,-6.74e-4 -0.01135,-0.0029 -0.363971,-0.355131 -0.95463,-0.344933 -1.308995,0.02175 -0.354363,0.366682 -0.345763,0.960205 0.01821,1.315336 8.91e-4,9.68e-4 -0.0038,0.01044 -0.0029,0.01141 -0.488871,0.139991 -0.775096,0.647005 -0.637067,1.1379 0.138025,0.490892 0.653175,0.780045 1.142046,0.640054 0.0055,-0.0015 0.009,-0.0069 0.01423,-0.0085 -0.0021,0.0075 -0.0038,0.0152 -0.0058,0.02282 -0.1249,0.495121 0.176661,1.00335 0.669049,1.127561 0.492388,0.124211 0.987594,-0.183022 1.112495,-0.678144 0.0019,-0.0077 0.004,-0.01512 0.0058,-0.02281 0.0041,0.0041 0.0042,0.01015 0.0085,0.01428 0.363971,0.355131 0.954635,0.344934 1.308993,-0.02175 0.354364,-0.366682 0.342886,-0.948795 -0.02108,-1.303926 0.0019,-3.91e-4 10e-4,-0.01102 0.0029,-0.01141 0.488872,-0.139991 0.777974,-0.658415 0.639945,-1.149309 -0.138025,-0.490893 -0.653174,-0.780045 -1.142046,-0.640055 -0.0031,8.67e-4 -0.0083,-0.0038 -0.01135,-0.0029 0.1249,-0.495121 -0.165318,-1.000487 -0.657705,-1.124698 z"
     id="path3399"
     style="display:inline;overflow:visible;visibility:visible;fill:#ff00ff;fill-opacity:1;fill-rule:evenodd;stroke:#000000;stroke-width:0.5;stroke-linecap:round;stroke-linejoin:round;stroke-miterlimit:4;stroke-dasharray:none;stroke-dashoffset:0;stroke-opacity:1;marker:none;enable-background:accumulate" />
  <path
     d="m 29.616322,36.096939 a 1.0349489,1.0406928 0 0 1 -2.069897,0 1.0349489,1.0406928 0 1 1 2.069897,0 z"
     id="path3412-8"
     style="display:inline;overflow:visible;visibility:visible;fill:#fdff06;fill-opacity:1;fill-rule:evenodd;stroke:none;stroke-width:1.33144891;marker:none;enable-background:accumulate" />
  <path
     id="path3493"
     d="m 13.511308,30.613274 c -0.13887,0.07628 -0.27471,0.191326 -0.38378,0.322004 -0.43628,0.522707 -0.48664,1.200622 0.55878,2.073191 0.39203,0.327212 0.9142,0.628508 1.4306,0.886234 -0.38829,0.8014 -0.32248,1.773599 0.24261,2.539478 0.81141,1.099724 2.35256,1.332221 3.45228,0.52081 1.09972,-0.81141 1.33222,-2.352553 0.52081,-3.452276 -0.12205,-0.165415 -0.27649,-0.296485 -0.42796,-0.422116 0.26998,-0.748768 0.40397,-1.907971 0.32793,-2.766266 -0.12017,-1.356404 -0.70917,-1.677252 -1.38737,-1.617167 -0.6782,0.06008 -1.20343,0.491417 -1.08326,1.84782 0.0533,0.602119 0.22971,1.327478 0.46601,1.947461 -0.21285,0.0088 -0.41263,0.04311 -0.61961,0.107649 -0.37493,-0.550238 -0.87207,-1.108877 -1.33831,-1.49803 -0.78406,-0.654427 -1.34209,-0.717621 -1.75873,-0.488792 z"
     style="display:inline;overflow:visible;visibility:visible;fill:#ffc78f;fill-opacity:1;fill-rule:evenodd;stroke:#000000;stroke-width:0.5;stroke-linecap:round;stroke-linejoin:miter;stroke-miterlimit:4;stroke-dasharray:none;stroke-dashoffset:0;stroke-opacity:1;marker:none;enable-background:accumulate" />
  <path
     id="path3513"
     d="m 15.446008,33.767034 c -0.56462,0.04747 -1.00181,0.346103 -1.09375,0.78125 -0.0826,0.390932 0.15467,0.787177 0.5625,1.0625 -0.16589,0.103624 -0.30601,0.230314 -0.34375,0.40625 -0.0949,0.442439 0.33645,0.899686 0.96875,1.03125 0.63229,0.131565 1.21757,-0.120062 1.3125,-0.5625 0.0475,-0.22122 -0.0113,-0.436785 -0.1875,-0.625 0.33831,-0.129417 0.59113,-0.37933 0.65625,-0.6875 0.12258,-0.580197 -0.46468,-1.171219 -1.28125,-1.34375 -0.20415,-0.04313 -0.40555,-0.07832 -0.59375,-0.0625 z"
     style="display:inline;overflow:visible;visibility:visible;fill:#ffc78f;fill-opacity:1;fill-rule:evenodd;stroke:#000000;stroke-width:0.5;stroke-linecap:round;stroke-linejoin:miter;stroke-miterlimit:4;stroke-dasharray:none;stroke-dashoffset:0;stroke-opacity:1;marker:none;enable-background:accumulate" />
  <ellipse
     transform="matrix(0.9449331,-0.32726357,0.3272636,0.94493309,0,0)"
     id="path3495"
     style="display:inline;overflow:visible;visibility:visible;fill:#ffc78f;fill-opacity:1;fill-rule:evenodd;stroke:#000000;stroke-width:0.5;stroke-linecap:round;stroke-linejoin:miter;stroke-miterlimit:4;stroke-dasharray:none;stroke-dashoffset:0;stroke-opacity:1;marker:none;enable-background:accumulate"
     cx="6.1754007"
     cy="38.79948"
     rx="1.5119574"
     ry="1.0742855" />
  <path
     style="display:inline;overflow:visible;visibility:visible;fill:#ffc78f;fill-opacity:1;fill-rule:evenodd;stroke:#000000;stroke-width:0.5;stroke-linecap:round;stroke-linejoin:miter;stroke-miterlimit:4;stroke-dasharray:none;stroke-dashoffset:0;stroke-opacity:1;marker:none;enable-background:accumulate"
     d="m 37.801667,33.177915 c 0.093,0.128275 0.166706,0.29031 0.209531,0.455049 0.171302,0.658953 -0.07264,1.293459 -1.390554,1.636068 -0.494215,0.128478 -1.095042,0.17795 -1.672047,0.190488 0.0089,0.890467 -0.465749,1.741472 -1.303769,2.192714 -1.20331,0.647937 -2.696168,0.200081 -3.344101,-1.003229 -0.647935,-1.203309 -0.200083,-2.696161 1.003226,-3.344098 0.180998,-0.09746 0.376618,-0.15003 0.56723,-0.198952 0.07561,-0.792355 0.449441,-1.897774 0.884703,-2.641413 0.687865,-1.175208 1.357472,-1.213823 1.945074,-0.869891 0.587605,0.343927 0.878355,0.958242 0.19049,2.133449 -0.305309,0.521703 -0.774565,1.102277 -1.252979,1.56199 0.188711,0.09885 0.354711,0.215181 0.514312,0.361923 0.573988,-0.33745 1.262071,-0.630312 1.849839,-0.783111 0.988432,-0.256959 1.520013,-0.07582 1.799045,0.309013 z"
     id="path4240" />
  <path
     style="display:inline;overflow:visible;visibility:visible;fill:#ffc78f;fill-opacity:1;fill-rule:evenodd;stroke:#000000;stroke-width:0.5;stroke-linecap:round;stroke-linejoin:miter;stroke-miterlimit:4;stroke-dasharray:none;stroke-dashoffset:0;stroke-opacity:1;marker:none;enable-background:accumulate"
     d="m 34.705526,35.203546 c 0.490285,0.284024 0.758092,0.740748 0.655415,1.173487 -0.09224,0.38877 -0.475995,0.645755 -0.96234,0.720566 0.105757,0.164539 0.178361,0.338931 0.137361,0.514135 -0.103115,0.440597 -0.688411,0.669869 -1.316345,0.518835 -0.627926,-0.151029 -1.049714,-0.628484 -0.946628,-1.069093 0.05151,-0.22032 0.196731,-0.390136 0.436429,-0.485089 -0.250652,-0.261487 -0.372547,-0.595427 -0.299839,-0.901896 0.136909,-0.576983 0.92031,-0.860645 1.732363,-0.667969 0.203019,0.04818 0.400161,0.102355 0.563584,0.197024 z"
     id="path4242" />
  <ellipse
     ry="1.0742855"
     rx="1.5119574"
     cy="2.7232244"
     cx="-46.795815"
     style="display:inline;overflow:visible;visibility:visible;fill:#ffc78f;fill-opacity:1;fill-rule:evenodd;stroke:#000000;stroke-width:0.5;stroke-linecap:round;stroke-linejoin:miter;stroke-miterlimit:4;stroke-dasharray:none;stroke-dashoffset:0;stroke-opacity:1;marker:none;enable-background:accumulate"
     id="ellipse4244"
     transform="matrix(-0.71470564,-0.69942537,-0.69942539,0.71470562,0,0)" />
  <path
     style="display:inline;fill:#2a2a2a;fill-opacity:1;fill-rule:evenodd;stroke:none"
     d="m 21.938073,30.572804 c -1.059846,-0.113249 -0.732035,1.780491 2.080925,2.225384 0.324189,0.03464 0.576112,0.06156 0.863075,0.09222 2.852226,0.164512 3.565314,-1.622063 2.504155,-1.735452 -1.816046,-0.194051 -3.6321,-0.388103 -5.448155,-0.582155 z"
     id="path3208" />
  <path
     style="display:inline;overflow:visible;visibility:visible;fill:#5b1f1f;fill-opacity:1;fill-rule:evenodd;stroke:none;stroke-width:0.5;marker:none;enable-background:accumulate"
     d="m 24.529206,31.597474 c -0.867096,-0.09265 -1.621391,0.212529 -1.986728,0.722457 0.38925,0.200202 0.860278,0.380792 1.47652,0.478257 0.324189,0.03464 0.576112,0.06156 0.863075,0.09222 0.598067,0.0345 1.074153,-0.03118 1.487474,-0.134836 -0.236549,-0.590701 -0.956898,-1.063702 -1.840341,-1.158101 z"
     id="path3210" />
  <path
     style="display:inline;fill:#f3f3f3;fill-opacity:1;fill-rule:evenodd;stroke:none"
     d="m 22.36961,30.618915 c 0.261483,0.474015 0.827454,0.956504 1.843163,1.131696 0.253813,0.02712 0.476581,0.05092 0.701248,0.07493 1.032927,0.04558 1.685463,-0.308185 2.04067,-0.716694 -1.528358,-0.163311 -3.056715,-0.326622 -4.585081,-0.489933 z"
     id="path3212" />
  <path
     id="path3214"
     d="m 21.938073,30.572804 c -1.059846,-0.113249 -0.732035,1.780491 2.080925,2.225384 0.324189,0.03464 0.576112,0.06156 0.863075,0.09222 2.852226,0.164512 3.565314,-1.622063 2.504155,-1.735452 -1.816046,-0.194051 -3.6321,-0.388103 -5.448155,-0.582155 z"
     style="display:inline;fill:none;stroke:#000000;stroke-width:0.5;stroke-linecap:butt;stroke-linejoin:miter;stroke-miterlimit:4;stroke-dasharray:none;stroke-opacity:1" />
  <path
     id="path4869"
     d="m 23.036442,27.444216 c 0.109515,-1.024906 -0.528684,-1.910738 -1.419906,-2.005968 -0.891221,-0.09523 -1.702183,0.635754 -1.811698,1.660659"
     style="color:#000000;display:inline;overflow:visible;visibility:visible;fill:none;stroke:#000000;stroke-width:0.5;stroke-linecap:round;stroke-linejoin:miter;stroke-miterlimit:4;stroke-dasharray:none;stroke-dashoffset:0;stroke-opacity:1;marker:none;enable-background:accumulate" />
  <path
     style="color:#000000;display:inline;overflow:visible;visibility:visible;fill:none;stroke:#000000;stroke-width:0.5;stroke-linecap:round;stroke-linejoin:miter;stroke-miterlimit:4;stroke-dasharray:none;stroke-dashoffset:0;stroke-opacity:1;marker:none;enable-background:accumulate"
     d="m 29.814322,28.168457 c 0.109515,-1.024905 -0.528684,-1.910737 -1.419906,-2.005968 -0.891221,-0.09523 -1.702183,0.635754 -1.811698,1.66066"
     id="path4874" />
</svg>
