<?xml version="1.0" encoding="UTF-8" standalone="no"?>
<!-- Created with Inkscape (http://www.inkscape.org/) -->

<svg
 xmlns:dc="http://purl.org/dc/elements/1.1/"
 xmlns:cc="http://creativecommons.org/ns#"
 xmlns:rdf="http://www.w3.org/1999/02/22-rdf-syntax-ns#"
 xmlns:svg="http://www.w3.org/2000/svg"
 xmlns="http://www.w3.org/2000/svg"
 version="1.0"
 width="100%"
 height="100%"
 viewBox="0 0 24 24"
 id="svg2383">
<metadata
 id="metadata9">
<rdf:RDF>
<cc:Work
 rdf:about="">
<dc:format>image/svg+xml</dc:format>
<dc:type
 rdf:resource="http://purl.org/dc/dcmitype/StillImage" />
<dc:title></dc:title>
</cc:Work>
</rdf:RDF>
</metadata>
<defs
 id="defs2385" />
<path
 d="m 17.094985,-0.2026011 c -0.99197,0.7756 -1.31679,1.46545 -1.23694,2.4480704 -1.06323,-0.33668 -2.19317,-0.51378 -3.37067,-0.51378 -6.0447003,0 -10.9469603,4.791199 -10.9469603,10.6989587 0,0.0613 -0.0011,0.12024 0,0.18134 -0.54360996,1.66833 -1.28665996,3.006371 -2.10279996,3.626771 0.68479,0.13386 1.92743996,-0.11632 2.62849996,-0.51378 -0.94757,1.34679 -0.9694,2.67869 -2.07187996,3.08275 1.19612996,0.38967 2.54961996,0.47227 3.89636996,0.21155 0.13424,0.16698 0.28912,0.32469 0.43293,0.48357 0.06288,1.5033 -0.10325,2.66476 -0.71124,2.96188 1.13245,0.27669 2.50536,-0.0334 3.8036,-0.57426 1.51607,0.78563 3.2346503,1.23916 5.0714803,1.23916 2.17616,0 4.20182,-0.622 5.9064,-1.69249 0.37487,0.74925 1.00967,1.57872 2.04096,1.72271 -0.07556,-0.59076 -0.66334,-1.51558 -0.95863,-2.50852 1.31141,-1.0664 2.37359,-2.40881 3.06144,-3.95922 0.66255,0.46212 1.33551,0.29771 1.79357,-0.0605 -0.46894,-0.22915 -0.80756,-1.24027 -1.05141,-2.387621 0.10423,-0.59276 0.15462,-1.1916 0.15462,-1.81339 0,-2.8195397 -1.11146,-5.3804297 -2.93774,-7.2837597 0.38423,-0.4778 0.64939,-0.94206 0.64939,-1.14848 -0.5525,0.21601 -1.13159,0.17029 -2.1028,-0.0605 -0.21718,-0.15963 -0.42012,-0.33944 -0.6494,-0.48356 -0.65848,-1.160529 -1.51191,-3.0321294 -1.29879,-3.6569994 z"
 id="path2591"
 style="fill:#ffaf00;fill-opacity:1;fill-rule:evenodd;stroke:#000000;stroke-width:0.49999997;stroke-linecap:butt;stroke-linejoin:miter;stroke-miterlimit:4;stroke-opacity:1;stroke-dasharray:none;stroke-dashoffset:0;marker:none;visibility:visible;display:inline;overflow:visible;enable-background:accumulate" />
<path
 d="m 8.0864167,26.865589 -0.83642,1.13046 c -0.5106,0.6901 -1.31,0.88871 -1.92048,0.43702 -0.85478,-0.75734 -1.48912,-2.25685 -0.43555,-3.83062 0.21868,-0.29354 3.19245,2.26314 3.19245,2.26314 z"
 id="path4736"
 style="fill:#ffc78f;fill-opacity:1;fill-rule:evenodd;stroke:#000000;stroke-width:0.5;stroke-linecap:butt;stroke-linejoin:miter;stroke-miterlimit:4;stroke-opacity:1;stroke-dasharray:none;stroke-dashoffset:0;marker:none;visibility:visible;display:inline;overflow:visible;enable-background:accumulate" />
<path
 d="m 17.2283,26.795069 0.83642,1.13046 c 0.5106,0.69009 1.31,0.88871 1.92048,0.43701 0.85478,-0.75733 1.48912,-2.25684 0.43555,-3.83062 -0.21868,-0.29354 -3.19245,2.26315 -3.19245,2.26315 z"
 id="path3537-4"
 style="fill:#ffc78f;fill-opacity:1;fill-rule:evenodd;stroke:#000000;stroke-width:0.5;stroke-linecap:butt;stroke-linejoin:miter;stroke-miterlimit:4;stroke-opacity:1;stroke-dasharray:none;stroke-dashoffset:0;marker:none;visibility:visible;display:inline;overflow:visible;enable-background:accumulate" />
<path
 d="m 9.1035147,29.620009 c -1.34325,0 -2.4375,0.84173 -2.4375,1.875 0,0.17348 0.03625,0.96449 0.09375,1.12395 1.5625,0.42019 3.125,0.41174 4.6875003,0 0.05601,-0.15753 0.09375,-0.95282 0.09375,-1.12395 0,-1.03327 -1.09425,-1.875 -2.4375003,-1.875 z"
 id="path4386"
 style="fill:#9d9d9d;fill-opacity:1;fill-rule:evenodd;stroke:none;stroke-width:0.5;marker:none;visibility:visible;display:inline;overflow:visible;enable-background:accumulate" />
<path
 d="m 9.0913747,29.631099 c -1.34325,0 -2.4375,0.84173 -2.4375,1.875 0,0.0579 0.02373,0.22591 0.03125,0.375 1.60859,0.40296 3.23516,0.39602 4.8437503,0 0.0077,-0.14901 0,-0.31796 0,-0.375 0,-1.03327 -1.09425,-1.875 -2.4375003,-1.875 z"
 id="path4388"
 style="fill:#476181;fill-opacity:1;fill-rule:evenodd;stroke:none;stroke-width:0.5;marker:none;visibility:visible;display:inline;overflow:visible;enable-background:accumulate" />
<path
 d="m 9.1035147,29.620009 c -1.34325,0 -2.4375,0.84173 -2.4375,1.875 0,0.17348 0.03625,0.96449 0.09375,1.12395 1.5625,0.42019 3.125,0.41174 4.6875003,0 0.05601,-0.15753 0.09375,-0.95282 0.09375,-1.12395 0,-1.03327 -1.09425,-1.875 -2.4375003,-1.875 z"
 id="path4390"
 style="fill:none;stroke:#000000;stroke-width:0.5;stroke-linecap:round;stroke-linejoin:miter;stroke-miterlimit:4;stroke-opacity:1;stroke-dasharray:none;stroke-dashoffset:0;marker:none;visibility:visible;display:inline;overflow:visible;enable-background:accumulate" />
<path
 d="m 15.974015,29.620009 c 1.34325,0 2.4375,0.84173 2.4375,1.875 0,0.17348 -0.03625,0.96449 -0.09375,1.12395 -1.5625,0.42019 -3.125,0.41174 -4.6875,0 -0.05601,-0.15753 -0.09375,-0.95282 -0.09375,-1.12395 0,-1.03327 1.09425,-1.875 2.4375,-1.875 z"
 id="path4392"
 style="fill:#9d9d9d;fill-opacity:1;fill-rule:evenodd;stroke:none;stroke-width:0.5;marker:none;visibility:visible;display:inline;overflow:visible;enable-background:accumulate" />
<path
 d="m 15.986155,29.631099 c 1.34325,0 2.4375,0.84173 2.4375,1.875 0,0.0579 -0.02373,0.22591 -0.03125,0.375 -1.60859,0.40296 -3.23516,0.39602 -4.84375,0 -0.0077,-0.14901 0,-0.31796 0,-0.375 0,-1.03327 1.09425,-1.875 2.4375,-1.875 z"
 id="path4394"
 style="fill:#476181;fill-opacity:1;fill-rule:evenodd;stroke:none;stroke-width:0.5;marker:none;visibility:visible;display:inline;overflow:visible;enable-background:accumulate" />
<path
 d="m 15.974015,29.620009 c 1.34325,0 2.4375,0.84173 2.4375,1.875 0,0.17348 -0.03625,0.96449 -0.09375,1.12395 -1.5625,0.42019 -3.125,0.41174 -4.6875,0 -0.05601,-0.15753 -0.09375,-0.95282 -0.09375,-1.12395 0,-1.03327 1.09425,-1.875 2.4375,-1.875 z"
 id="path4396"
 style="fill:none;stroke:#000000;stroke-width:0.5;stroke-linecap:round;stroke-linejoin:miter;stroke-miterlimit:4;stroke-opacity:1;stroke-dasharray:none;stroke-dashoffset:0;marker:none;visibility:visible;display:inline;overflow:visible;enable-background:accumulate" />
<path
 d="m 9.9320337,20.2459 c -0.958579,0.03669 -1.41615,0.235753 -1.75,0.84375 -0.536451,0.06495 -1.066303,0.335695 -1.40625,0.8125 l -1.78125,2.5 c -0.335433,0.470471 0.307164,1.015744 1.15625,1.625 -0.154559,0.615192 -0.220168,1.16158 -0.15625,1.625 0.24303,1.76195 0.56773,2.80217 0.75,3.53125 l 4.8125003,0 c 0.0488,-0.41271 0.51235,-0.75 1.09375,-0.75 0.58141,0 1.04497,0.33729 1.09375,0.75 l 4.84375,0 c 0.18227,-0.72908 0.47573,-1.7693 0.71875,-3.53125 0.06492,-0.470665 -0.028,-1.030098 -0.1875,-1.65625 0.878556,-0.62629 1.530589,-1.175033 1.1875,-1.65625 l -1.78125,-2.5 c -0.353192,-0.495382 -0.878102,-0.762696 -1.4375,-0.8125 -0.560289,-0.961458 -1.498697,-0.78125 -4.40625,-0.78125 l -0.0625,0 c -1.18476,0 -2.04635,-0.0246 -2.6875003,0 z"
 id="path4305-2"
 style="fill:#3cab5a;fill-opacity:1;fill-rule:evenodd;stroke:none;stroke-width:0.5;marker:none;visibility:visible;display:inline;overflow:visible;enable-background:accumulate" />
<path
 d="m 9.9291177,24.112639 c -0.48853,0 -0.875,0.38647 -0.875,0.875 l 0,1.09375 c -0.49157,1.26998 -1.53759,0.45815 -3.03125,0.71418 -0.0416,0.31878 -0.0673,0.61366 -0.0313,0.875 0.24303,1.76195 0.56773,2.80217 0.75,3.53125 1.60417,0 3.20833,0 4.8125003,0 0.0488,-0.41271 0.51235,-0.75 1.09375,-0.75 0.58141,0 1.04497,0.33729 1.09375,0.75 1.61458,0 3.22917,0 4.84375,0 0.18227,-0.72908 0.47573,-1.7693 0.71875,-3.53125 0.0371,-0.26902 0.0135,-0.57672 -0.0313,-0.90625 -1.49107,-0.2585 -2.54023,0.58565 -3.03125,-0.68293 l 0,-1.09375 c 0,-0.48853 -0.38648,-0.875 -0.875,-0.875 l -5.4375003,0 z"
 id="path4307-7"
 style="fill:#315a7a;fill-opacity:1;fill-rule:evenodd;stroke:none;stroke-width:0.5;marker:none;visibility:visible;display:inline;overflow:visible;enable-background:accumulate" />
<path
 d="m 14.491618,20.233069 0,3.96875 c -1e-5,0.48853 0.41772,0.90625 0.90625,0.90625 l 0.3125,0 c 0.48852,0 0.875,-0.41772 0.875,-0.90625 l 0,-3.71875 c -0.42793,-0.23384 -1.07576,-0.25882 -2.09375,-0.25 z m -4.5625003,0.0313 c -0.53429,0.0205 -0.9263,0.0657 -1.21875,0.21875 l 0,3.71875 c 0,0.48853 0.38647,0.90625 0.875,0.90625 l 0.34375,0 c 0.4885203,0 0.8749903,-0.41772 0.8750003,-0.90625 l 0,-3.9375 c -0.25903,1.2e-4 -0.66626,-0.008 -0.8750003,0 z"
 id="path4309-5"
 style="fill:#376e91;fill-opacity:1;fill-rule:evenodd;stroke:none;stroke-width:0.49999997;marker:none;visibility:visible;display:inline;overflow:visible;enable-background:accumulate" />
<path
 d="m 11.085368,25.545569 c -0.48853,0 -0.875,0.2981 -0.875,0.67492 l 0,0.69902 c 0,0.37682 0.41614,0.5456 0.875,0.67492 l 1.60151,0.45135 1.52349,-0.45135 c 0.45604,-0.13511 0.875,-0.2981 0.875,-0.67492 l 0,-0.69902 c 0,-0.37682 -0.38648,-0.67492 -0.875,-0.67492 l -3.125,0 z"
 id="path4311-6"
 style="fill:#376e91;fill-opacity:1;fill-rule:evenodd;stroke:#000000;stroke-width:0.49999997;stroke-linecap:round;stroke-linejoin:round;stroke-miterlimit:4;stroke-opacity:1;stroke-dasharray:none;stroke-dashoffset:0;marker:none;visibility:visible;display:inline;overflow:visible;enable-background:accumulate" />
<path
 d="m 19.274558,26.762019 c -1.49107,-0.2585 -2.54023,0.58107 -3.03125,-0.6875 l 0,-1.09375 c 0,-0.0215 0.001,-0.0414 0,-0.0625 0.21207,-0.16759 0.34375,-0.42939 0.34375,-0.71875 l 0,-3.71875 m -2.09375,-0.25 0,3.875 -3.6875,0 0,-3.84375 m -2.0937503,0.21875 0,3.71875 c 0,0.28936 0.13168,0.55116 0.34375,0.71875 -0.001,0.0211 0,0.041 0,0.0625 l 0,1.09375 c -0.49157,1.26997 -1.53759,0.46272 -3.03125,0.71875"
 id="path4313-5"
 style="fill:none;stroke:#000000;stroke-width:0.5;stroke-linecap:round;stroke-linejoin:round;stroke-miterlimit:4;stroke-opacity:1;stroke-dasharray:none;stroke-dashoffset:0;marker:none;visibility:visible;display:inline;overflow:visible;enable-background:accumulate" />
<path
 d="m 9.9320337,20.2459 c -0.958579,0.03669 -1.41615,0.235753 -1.75,0.84375 -0.536451,0.06495 -1.066303,0.335695 -1.40625,0.8125 l -1.78125,2.5 c -0.335433,0.470471 0.307164,1.015744 1.15625,1.625 -0.154559,0.615192 -0.220168,1.16158 -0.15625,1.625 0.24303,1.76195 0.56773,2.80217 0.75,3.53125 l 4.8125003,0 c 0.0488,-0.41271 0.51235,-0.75 1.09375,-0.75 0.58141,0 1.04497,0.33729 1.09375,0.75 l 4.84375,0 c 0.18227,-0.72908 0.47573,-1.7693 0.71875,-3.53125 0.06492,-0.470665 -0.028,-1.030098 -0.1875,-1.65625 0.878556,-0.62629 1.530589,-1.175033 1.1875,-1.65625 l -1.78125,-2.5 c -0.353192,-0.495382 -0.878102,-0.762696 -1.4375,-0.8125 -0.560289,-0.961458 -1.498697,-0.78125 -4.40625,-0.78125 l -0.0625,0 c -1.18476,0 -2.04635,-0.0246 -2.6875003,0 z"
 id="path4315-5"
 style="fill:none;stroke:#000000;stroke-width:0.5;stroke-linecap:butt;stroke-linejoin:miter;stroke-miterlimit:4;stroke-opacity:1;stroke-dasharray:none;stroke-dashoffset:0;marker:none;visibility:visible;display:inline;overflow:visible;enable-background:accumulate" />
<path
 d="m 13.015655,7.5411183 c -1.42738,1.04711 -4.5047303,1.28076 -5.8131603,1.39711 -0.08824,0.7768 0.2377,4.9377997 -2.38645,8.5041207 1.66,2.84119 4.50881,4.9506 7.7712703,4.9506 3.2084,0 6.03831,-2.02904 7.71008,-4.79873 0.0046,-0.008 -0.0046,-0.0227 0,-0.0304 -2.34335,-3.841481 -3.10066,-7.038151 -2.7536,-8.9900607 -0.35684,0.46537 -1.80545,1.7461297 -2.87598,1.39711 0.11895,-0.46539 0.24476,-0.94154 0.24476,-0.94154 0,0 -0.48673,0.82004 -2.50883,0.82004 0.2379,-0.58171 0.37403,-1.61019 0.61191,-2.30826 z"
 id="path2593"
 style="fill:#ffc78f;fill-opacity:1;fill-rule:evenodd;stroke:#000000;stroke-width:0.49999997;stroke-linecap:round;stroke-linejoin:round;stroke-miterlimit:4;stroke-opacity:1;stroke-dasharray:none;stroke-dashoffset:0;marker:none;visibility:visible;display:inline;overflow:visible;enable-background:accumulate" />
<path
 d="m 8.9338758,17.900898 a 1.5389987,1.5277452 0 1 1 -3.0779968,0 1.5389987,1.5277452 0 1 1 3.0779968,0 z"
 id="path2595"
 style="fill:#fa9763;fill-opacity:1;fill-rule:evenodd;stroke:none;stroke-width:0.50000006;marker:none;visibility:visible;display:inline;overflow:visible;enable-background:accumulate" />
<path
 d="m 11.655105,18.124739 c 0,0.28682 0.12402,0.57367 0.3307,0.69656"
 id="path2597"
 style="fill:none;stroke:#000000;stroke-width:0.50000012;stroke-linecap:round;stroke-linejoin:miter;stroke-miterlimit:4;stroke-opacity:1;stroke-dasharray:none;display:inline" />
<path
 d="m 10.643605,20.353119 c 0.48134,0.14543 1.20334,0.21813 1.90965,0.21813 0.7063,0 1.39692,-0.0727 1.81547,-0.21813"
 id="path2599"
 style="fill:none;stroke:#000000;stroke-width:0.49999997;stroke-linecap:round;stroke-linejoin:miter;stroke-miterlimit:4;stroke-opacity:1;stroke-dasharray:none;display:inline" />
<path
 d="m 10.441465,15.065359 c 0.47525,1.67612 0.20154,1.49875 -1.0450503,1.84612 -0.80241,0.22359 -1.6367,-0.24053 -1.86225,-1.03599 -0.22554,-0.79549 0.24264,-1.622541 1.04506,-1.846131 0.80241,-0.22359 1.6367003,0.24053 1.8622403,1.036001 z"
 id="path2602"
 style="fill:#ffffff;fill-opacity:1;fill-rule:evenodd;stroke:#000000;stroke-width:0.50000012;stroke-linecap:round;stroke-linejoin:round;stroke-miterlimit:4;stroke-opacity:1;stroke-dashoffset:0;marker:none;visibility:visible;display:inline;overflow:visible;enable-background:accumulate" />
<path
 d="m 10.247725,16.039423 a 1.0066569,0.99793846 0 0 1 -2.0133139,0 1.0066569,0.99793846 0 1 1 2.0133139,0 z"
 id="path2604"
 style="fill:#000000;fill-opacity:1;fill-rule:evenodd;stroke:none;stroke-width:0.49999997;marker:none;visibility:visible;display:inline;overflow:visible;enable-background:accumulate" />
<path
 d="m 9.4132635,15.748351 a 0.423864,0.40046839 0 0 1 -0.847728,0 0.423864,0.40046839 0 1 1 0.847728,0 z"
 id="path2606"
 style="fill:#ffffff;fill-opacity:1;fill-rule:evenodd;stroke:none;stroke-width:0.5;marker:none;visibility:visible;display:inline;overflow:visible;enable-background:accumulate" />
<path
 d="m 7.5609547,13.265428 c 0.49076,-0.53981 1.30731,-0.78776 1.78558,-0.55518"
 id="path2608"
 style="fill:none;stroke:#000000;stroke-width:0.50000012;stroke-linecap:butt;stroke-linejoin:miter;stroke-miterlimit:4;stroke-opacity:1;stroke-dasharray:none;display:inline" />
<path
 d="m 16.155549,17.900898 a 1.5389987,1.5277452 0 1 0 3.077997,0 1.5389987,1.5277452 0 1 0 -3.077997,0 z"
 id="path2610"
 style="fill:#fa9763;fill-opacity:1;fill-rule:evenodd;stroke:none;stroke-width:0.50000006;marker:none;visibility:visible;display:inline;overflow:visible;enable-background:accumulate" />
<path
 d="m 14.647965,15.065359 c -0.47525,1.67612 -0.20154,1.49875 1.04505,1.84612 0.80241,0.22359 1.6367,-0.24053 1.86225,-1.03599 0.22554,-0.79549 -0.24264,-1.622541 -1.04505,-1.846131 -0.80242,-0.22359 -1.63671,0.24053 -1.86225,1.036001 z"
 id="path2612"
 style="fill:#ffffff;fill-opacity:1;fill-rule:evenodd;stroke:#000000;stroke-width:0.50000012;stroke-linecap:round;stroke-linejoin:round;stroke-miterlimit:4;stroke-opacity:1;stroke-dashoffset:0;marker:none;visibility:visible;display:inline;overflow:visible;enable-background:accumulate" />
<path
 d="m 14.841715,16.039423 a 1.0066569,0.99793826 0 1 0 2.013313,0 1.0066569,0.99793826 0 1 0 -2.013313,0 z"
 id="path2614"
 style="fill:#000000;fill-opacity:1;fill-rule:evenodd;stroke:none;stroke-width:0.49999997;marker:none;visibility:visible;display:inline;overflow:visible;enable-background:accumulate" />
<path
 d="m 15.07235,15.748351 a 0.42386399,0.40046838 0 0 0 0.847727,0 0.42386399,0.40046838 0 1 0 -0.847727,0 z"
 id="path2616"
 style="fill:#ffffff;fill-opacity:1;fill-rule:evenodd;stroke:none;stroke-width:0.5;marker:none;visibility:visible;display:inline;overflow:visible;enable-background:accumulate" />
<path
 d="m 17.528475,13.265428 c -0.49076,-0.53981 -1.30731,-0.78776 -1.78558,-0.55518"
 id="path2618"
 style="fill:none;stroke:#000000;stroke-width:0.50000012;stroke-linecap:butt;stroke-linejoin:miter;stroke-miterlimit:4;stroke-opacity:1;stroke-dasharray:none;display:inline" />
<path
 d="m 7.2632847,-1.7823611 c -1.66068,0 -3.01014,2.32496 -3.0325,5.2024894 -1.70032,1.85161 -2.71817,4.23085 -2.89308,6.7736997 0,0.96623 5.00826,1.7458 11.1540203,1.7458 5.98683,0 10.8362,-0.74452 11.08432,-1.67597 l 0,-0.2095 c -0.17093,-2.4218697 -1.10522,-4.6391897 -2.57937,-6.3896197 0.0011,-0.058 0,-0.11614 0,-0.17458 0,-2.9109394 -1.35788,-5.2723194 -3.0325,-5.2723194 -0.93409,0 -1.77873,0.76512 -2.33538,1.92038 -1.01828,-0.30542 -2.09096,-0.4539 -3.20678,-0.4539 -1.00377,0.0651 -1.93691,0.23711 -2.8233603,0.48882 -0.55654,-1.17624 -1.3915,-1.9553 -2.33537,-1.9553 z"
 id="path4356"
 style="fill:#782121;fill-opacity:1;fill-rule:evenodd;stroke:none;stroke-width:0.5;marker:none;visibility:visible;display:inline;overflow:visible;enable-background:accumulate" />
<path
 d="m 8.5878247,1.4997493 c -2.02496,0.23095 -4.21765,2.502949 -5.36788,9.6717287 2.00257,0.46908 5.40719,0.76815 9.2717803,0.76815 4.04938,0 7.54413,-0.3293 9.48092,-0.83799 -2.11829,-13.1250991 -7.73477,-9.5661987 -9.37635,-7.7862597 -0.75552,-0.813049 -2.31831,-2.0084094 -4.0084703,-1.815629 z"
 id="path4358"
 style="fill:#d35f5f;fill-rule:evenodd;stroke:none;display:inline" />
<path
 d="m 20.996675,3.6645383 c 0.16702,0.19832 0.30108,0.42044 0.45313,0.62849 0.01954,0.0173 0.04745,0.0219 0.06971,0.0349 -0.16696,-0.23288 -0.33857,-0.4446 -0.52284,-0.6634 z m -17.4630203,0.59357 c -0.22091,0.29425 -0.40281,0.5941 -0.59256,0.90782 0.02931,-0.0495 0.07435,-0.0905 0.10457,-0.13967 0.1564,-0.25463 0.31226,-0.52258 0.48799,-0.76815 z m -0.59256,0.90782 c -0.36325,0.60057 -0.66269,1.26093 -0.90626,1.92038 0.2498,-0.67632 0.57211,-1.30353 0.94112,-1.92038 -0.0098,-0.004 -0.0251,0.004 -0.03486,0 z m -0.90626,1.92038 c -0.3675,0.99498 -0.62268,2.02519 -0.69713,3.1075197 0,0.96623 5.00826,1.7458 11.1540203,1.7458 5.98683,0 10.8362,-0.74452 11.08432,-1.67597 l 0,-0.2095 c -0.07913,-1.1210797 -0.31304,-2.2048597 -0.69713,-3.2122697 l -0.10457,0.0349 c 0.02096,0.0379 0.03486,0.0661 0.03486,0.10475 0,0.80854 -4.6643,1.46647 -10.42204,1.46647 -5.4698603,0 -9.9177003,-0.60912 -10.3523303,-1.36172 z m 19.7286803,-2.37429 c 0.18723,0.28051 0.36066,0.57566 0.52284,0.8729 -0.15796,-0.29535 -0.33964,-0.59434 -0.52284,-0.8729 z"
 id="path4360"
 style="fill:#c83737;fill-opacity:1;fill-rule:evenodd;stroke:none;stroke-width:0.5;marker:none;visibility:visible;display:inline;overflow:visible;enable-background:accumulate" />
<path
 d="m 7.2632847,-1.7823611 c -1.66068,0 -3.01014,2.32496 -3.0325,5.2024894 -1.70032,1.85161 -2.71817,4.23085 -2.89308,6.7736997 0,0.96623 5.00826,1.7458 11.1540203,1.7458 5.98683,0 10.8362,-0.74452 11.08432,-1.67597 l 0,-0.2095 c -0.17093,-2.4218697 -1.10522,-4.6391897 -2.57937,-6.3896197 0.0011,-0.058 0,-0.11614 0,-0.17458 0,-2.9109394 -1.35788,-5.2723194 -3.0325,-5.2723194 -0.93409,0 -1.77873,0.76512 -2.33538,1.92038 -1.01828,-0.30542 -2.09096,-0.4539 -3.20678,-0.4539 -1.00377,0.0651 -1.93691,0.23711 -2.8233603,0.48882 -0.55654,-1.17624 -1.3915,-1.9553 -2.33537,-1.9553 z"
 id="path4362"
 style="fill:none;stroke:#000000;stroke-width:0.49999994;stroke-linecap:butt;stroke-linejoin:miter;stroke-miterlimit:4;stroke-opacity:1;stroke-dasharray:none;stroke-dashoffset:0;marker:none;visibility:visible;display:inline;overflow:visible;enable-background:accumulate" />
<path
 d="m 2.0696747,5.6547483 c -0.66687,1.22619 -1.12145996,2.54099 -1.32451996,3.94548 l 9.93405026,0 c -0.004,-0.0574 0,-0.11602 0,-0.17457 0,-1.22491 0.86499,-2.23462 1.95196,-2.23462 1.08694,0 1.9868,1.00971 1.9868,2.23462 0,0.0593 -0.0308,0.11647 -0.03488,0.17457 l 9.62036,0 c -0.19107,-1.40429 -0.6536,-2.74081 -1.2897,-3.94548 l -20.8440703,0 z"
 id="path4364"
 style="fill:#946344;fill-opacity:1;fill-rule:evenodd;stroke:#000000;stroke-width:0.49999994;stroke-linecap:round;stroke-linejoin:round;stroke-miterlimit:4;stroke-opacity:1;stroke-dasharray:none;stroke-dashoffset:0;marker:none;visibility:visible;display:inline;overflow:visible;enable-background:accumulate" />
<path
 d="m 12.016956,7.2615863 a 3.8459378,3.4891883 0 0 1 -7.6918756,0 3.8459378,3.4891883 0 1 1 7.6918756,0 z"
 id="path4366"
 style="fill:#916f6f;fill-opacity:1;fill-rule:evenodd;stroke:#000000;stroke-width:0.49999997;stroke-linecap:round;stroke-linejoin:miter;stroke-miterlimit:4;stroke-opacity:1;stroke-dasharray:none;stroke-dashoffset:0;marker:none;visibility:visible;display:inline;overflow:visible;enable-background:accumulate" />
<path
 d="m 11.165706,7.0927706 a 2.9946895,2.6943022 0 0 1 -5.9893789,0 2.9946895,2.6943022 0 1 1 5.9893789,0 z"
 id="path4368"
 style="fill:#3c444f;fill-opacity:1;fill-rule:evenodd;stroke:none;stroke-width:0.66945678;marker:none;visibility:visible;display:inline;overflow:visible;enable-background:accumulate" />
<path
 d="m 8.1695447,4.3977783 c -1.16087,0 -2.15216,0.59691 -2.64909,1.46647 0.4916,0.88364 1.47671,1.5363 2.64909,1.5363 1.1724,0 2.1575203,-0.65266 2.6491003,-1.5363 -0.49694,-0.86956 -1.4882203,-1.46647 -2.6491003,-1.46647 z"
 id="path4370"
 style="fill:#495760;fill-opacity:1;fill-rule:evenodd;stroke:none;stroke-width:0.66945678;marker:none;visibility:visible;display:inline;overflow:visible;enable-background:accumulate" />
<path
 d="m 8.492719,6.2264704 a 1.3708875,1.3732341 0 1 1 -2.7417743,0 1.3708875,1.3732341 0 1 1 2.7417743,0 z"
 id="path4372"
 style="fill:#98a1a6;fill-opacity:1;fill-rule:evenodd;stroke:none;stroke-width:0.5;marker:none;visibility:visible;display:inline;overflow:visible;enable-background:accumulate" />
<path
 d="m 20.878586,7.2615863 a 3.8459378,3.4891883 0 0 1 -7.691875,0 3.8459378,3.4891883 0 1 1 7.691875,0 z"
 id="path4374"
 style="fill:#916f6f;fill-opacity:1;fill-rule:evenodd;stroke:#000000;stroke-width:0.49999997;stroke-linecap:round;stroke-linejoin:miter;stroke-miterlimit:4;stroke-opacity:1;stroke-dasharray:none;stroke-dashoffset:0;marker:none;visibility:visible;display:inline;overflow:visible;enable-background:accumulate" />
<path
 d="m 20.027326,7.0927706 a 2.9946893,2.6943021 0 0 1 -5.989378,0 2.9946893,2.6943021 0 1 1 5.989378,0 z"
 id="path4376"
 style="fill:#3c444f;fill-opacity:1;fill-rule:evenodd;stroke:none;stroke-width:0.66945678;marker:none;visibility:visible;display:inline;overflow:visible;enable-background:accumulate" />
<path
 d="m 17.031185,4.3977783 c -1.16088,0 -2.15219,0.59691 -2.6491,1.46647 0.4916,0.88364 1.47669,1.5363 2.6491,1.5363 1.1724,0 2.15751,-0.65266 2.64907,-1.5363 -0.49693,-0.86956 -1.4882,-1.46647 -2.64907,-1.46647 z"
 id="path4378"
 style="fill:#495760;fill-opacity:1;fill-rule:evenodd;stroke:none;stroke-width:0.66945678;marker:none;visibility:visible;display:inline;overflow:visible;enable-background:accumulate" />
<path
 d="m 16.832204,6.3136394 a 1.1098166,1.1117164 0 1 1 -2.219633,0 1.1098166,1.1117164 0 1 1 2.219633,0 z"
 id="path4380"
 style="fill:#98a1a6;fill-opacity:1;fill-rule:evenodd;stroke:none;stroke-width:0.5;marker:none;visibility:visible;display:inline;overflow:visible;enable-background:accumulate" />
<path
 d="m 10.5849,7.8291047 a 0.69400233,0.69519041 0 1 1 -1.3880044,0 0.69400233,0.69519041 0 1 1 1.3880044,0 z"
 id="path4382"
 style="fill:#98a1a6;fill-opacity:1;fill-rule:evenodd;stroke:none;stroke-width:0.5;marker:none;visibility:visible;display:inline;overflow:visible;enable-background:accumulate" />
<path
 d="m 19.44595,7.8291047 a 0.69400233,0.69519041 0 1 1 -1.388004,0 0.69400233,0.69519041 0 1 1 1.388004,0 z"
 id="path4384"
 style="fill:#98a1a6;fill-opacity:1;fill-rule:evenodd;stroke:none;stroke-width:0.5;marker:none;visibility:visible;display:inline;overflow:visible;enable-background:accumulate" />
<path
 d="m 9.707737,24.071909 a 2.7325482,2.7325482 0 1 1 -5.4650965,0 2.7325482,2.7325482 0 1 1 5.4650965,0 z"
 id="path3172"
 style="color:#000000;fill:#3cab5a;fill-opacity:1;fill-rule:evenodd;stroke:#000000;stroke-width:0.5;stroke-linecap:butt;stroke-linejoin:miter;stroke-miterlimit:4;stroke-opacity:1;stroke-dasharray:none;stroke-dashoffset:0;marker:none;visibility:visible;display:inline;overflow:visible;enable-background:accumulate" />
<path
 d="m 9.707737,24.071909 a 2.7325482,2.7325482 0 1 1 -5.4650965,0 2.7325482,2.7325482 0 1 1 5.4650965,0 z"
 transform="matrix(-1,0,0,1,24.521024,0)"
 id="path3174"
 style="color:#000000;fill:#3cab5a;fill-opacity:1;fill-rule:evenodd;stroke:#000000;stroke-width:0.5;stroke-linecap:butt;stroke-linejoin:miter;stroke-miterlimit:4;stroke-opacity:1;stroke-dasharray:none;stroke-dashoffset:0;marker:none;visibility:visible;display:inline;overflow:visible;enable-background:accumulate" />
<g
 transform="translate(-117.95463,-142.47943)"
 id="g3470"
 style="display:inline">
<rect
 width="10.436481"
 height="10.131832"
 rx="0.79516041"
 ry="0.79465342"
 x="125.17668"
 y="160.19106"
 id="rect4029"
 style="color:#000000;fill:#eff1d9;fill-opacity:1;fill-rule:nonzero;stroke:none;stroke-width:0.5;marker:none;visibility:visible;display:inline;overflow:visible;enable-background:accumulate" />
<path
 d="m 127.43792,160.18768 c -0.11883,1.52049 0.47493,3.02747 1.32295,3.38059 1.19274,0.49666 1.68546,-0.19917 2.6794,1.48946 0.60108,1.0212 2.32623,2.94392 4.16982,3.07935 l 0,-7.14609 c 0,-0.44024 -0.34655,-0.80331 -0.78708,-0.80331 l -7.38509,0 z"
 id="path4037"
 style="fill:#70c766;fill-opacity:1;stroke:none" />
<path
 d="m 125.17718,164.17075 0,5.35538 c 0,0.38521 0.25816,0.71106 0.61961,0.78657 0.005,0.001 0.0116,-0.001 0.0168,0 0.0469,0.009 0.1011,0.0168 0.15072,0.0168 l 1.5239,0 0.65311,0 2.98083,0 c -0.6269,-0.39159 -1.13856,-0.9289 -1.57415,-1.53968 0.6792,-0.63725 1.43478,-1.23479 2.21051,-1.75723 1.35913,-0.91535 2.77704,-1.59454 3.85163,-1.87439 l 0,-0.569 c -1.20463,0.27438 -2.69671,1.0107 -4.15307,1.99153 -0.77395,0.52124 -1.52677,1.11887 -2.2105,1.75723 -0.2893,-0.46693 -0.55,-0.97255 -0.78708,-1.48946 -0.62934,-1.37226 -1.81752,-2.25492 -3.28225,-2.67769 z"
 id="path4033"
 style="fill:#6ebaca;fill-opacity:1;stroke:none" />
<path
 d="m 130.92114,160.18768 c -0.0513,0.13573 -0.072,0.28406 -0.067,0.43513 -0.0675,0.0194 -0.12601,0.0607 -0.18421,0.10041 -0.49879,0.34011 -0.42036,1.31461 0.16747,2.17563 0.58782,0.86101 1.46051,1.27729 1.95931,0.93719 0.19805,-0.13504 0.31344,-0.36459 0.33492,-0.65269 0.91437,0.43291 1.8196,0.55879 2.47845,0.40165 l 0,-2.59401 c 0,-0.10456 -0.0306,-0.20996 -0.067,-0.30124 -0.003,-0.003 0.003,-0.0141 0,-0.0168 -0.19953,-0.17422 -0.4261,-0.33413 -0.66985,-0.48533 -0.0178,-0.001 -0.0321,0 -0.0502,0 l -3.90188,0 z"
 id="path4039"
 style="color:#000000;fill:#008000;stroke:none;stroke-width:0.5;marker:none;visibility:visible;display:inline;overflow:visible;enable-background:accumulate" />
<path
 d="m 126.77481,163.80295 1.11023,-1.17727 -1.13947,-1.07324 -1.11024,1.17727 1.13948,1.07324 z m 1.28194,0.28291 0.64851,-0.68766 -0.68809,-0.64808 -0.64851,0.68765 0.68809,0.64809 z m 1.1917,-0.41496 0.45135,-0.47861 -0.45689,-0.43033 -0.45136,0.47861 0.4569,0.43033 z m -0.62204,-0.58587 0.45136,-0.47861 -0.45689,-0.43034 -0.45136,0.47861 0.45689,0.43034 z m -0.62204,-0.58588 0.73151,-0.77567 -0.74864,-0.70513 -0.73152,0.77568 0.74865,0.70512 z"
 id="rect4064"
 style="color:#000000;fill:#808080;fill-opacity:1;fill-rule:nonzero;stroke:none;stroke-width:0.5;marker:none;visibility:visible;display:inline;overflow:visible;enable-background:accumulate" />
<path
 d="m 133.41633,160.18768 c -0.67076,0.70978 -1.42479,1.49159 -1.7751,1.82418 -0.31861,0.30248 -0.61959,0.3843 -1.03827,0.2343 -0.41867,-0.15 -0.94229,-0.55647 -1.62439,-1.25517 l -0.20095,0.18409 c 0.69393,0.71083 1.24867,1.14551 1.74161,1.32211 0.49294,0.17661 0.9368,0.0662 1.3062,-0.2845 0.40921,-0.3885 1.23029,-1.26411 1.94257,-2.02501 l -0.35167,0 z m -8.23915,2.64422 0,0.31798 c 0.29676,0.20862 0.69002,0.49738 1.122,0.82004 0.41556,0.31041 0.84513,0.65973 1.20572,0.97067 0.3606,0.31093 0.65001,0.59868 0.77033,0.78657 0.26291,0.41053 0.94896,1.71972 1.9928,2.94546 0.51703,0.60711 1.12665,1.19972 1.82534,1.65682 l 0.53588,0 c -0.83171,-0.46016 -1.55926,-1.13518 -2.16026,-1.84091 -1.02023,-1.19798 -1.67181,-2.46306 -1.95931,-2.91199 -0.0511,-0.0798 -0.13815,-0.17764 -0.2177,-0.26777 l 1.35644,-1.33885 c 0.16411,-0.164 0.38012,-0.34217 0.72009,-0.33471 0.33997,0.007 0.83239,0.21227 1.50716,0.93719 l 0.20096,-0.18409 c -0.70126,-0.75337 -1.26548,-1.01115 -1.70812,-1.02087 -0.44264,-0.01 -0.74114,0.23861 -0.92104,0.41839 l -1.3397,1.33885 c -0.12794,-0.12748 -0.25763,-0.2628 -0.41866,-0.40166 -0.36827,-0.31755 -0.80382,-0.65795 -1.22247,-0.97066 -0.56371,-0.42107 -1.0011,-0.72367 -1.28946,-0.92046 z"
 id="path4082-7"
 style="font-size:medium;font-style:normal;font-variant:normal;font-weight:normal;font-stretch:normal;text-indent:0;text-align:start;text-decoration:none;line-height:normal;letter-spacing:normal;word-spacing:normal;text-transform:none;direction:ltr;block-progression:tb;writing-mode:lr-tb;text-anchor:start;baseline-shift:baseline;color:#000000;fill:#333333;fill-opacity:1;stroke:none;stroke-width:0.5;marker:none;visibility:visible;display:inline;overflow:visible;enable-background:accumulate;font-family:Sans;-inkscape-font-specification:Sans" />
<path
 d="m 127.53839,160.18768 c 0.10213,0.10233 0.1748,0.17488 0.28469,0.28451 0.8727,0.87059 1.96885,1.94099 3.1148,3.12955 1.64955,1.71087 3.39078,3.6628 4.67221,5.52274 l 0,-0.93719 c -1.25152,-1.70591 -2.80657,-3.41823 -4.28704,-4.95373 -1.11281,-1.15418 -2.17553,-2.19385 -3.03107,-3.04588 l -0.75359,0 z"
 id="path4035"
 style="font-size:medium;font-style:normal;font-variant:normal;font-weight:normal;font-stretch:normal;text-indent:0;text-align:start;text-decoration:none;line-height:normal;letter-spacing:normal;word-spacing:normal;text-transform:none;direction:ltr;block-progression:tb;writing-mode:lr-tb;text-anchor:start;baseline-shift:baseline;color:#000000;fill:#800000;fill-opacity:1;stroke:none;stroke-width:1px;marker:none;visibility:visible;display:inline;overflow:visible;enable-background:accumulate;font-family:Sans;-inkscape-font-specification:Sans" />
<rect
 width="2.6540961"
 height="0.64023536"
 rx="0"
 ry="0"
 x="132.31833"
 y="169.1171"
 id="rect4110"
 style="color:#000000;fill:#666666;fill-opacity:1;fill-rule:nonzero;stroke:none;stroke-width:0.5;marker:none;visibility:visible;display:inline;overflow:visible;enable-background:accumulate" />
<path
 d="m 128.4989,160.21721 0,10.0497"
 id="path4112"
 style="fill:none;stroke:#ffffff;stroke-width:0.5;stroke-linecap:butt;stroke-linejoin:miter;stroke-miterlimit:4;stroke-opacity:0.23206751;stroke-dasharray:none" />
<path
 d="m 132.1205,160.21721 0,10.0497"
 id="path4114"
 style="fill:none;stroke:#ffffff;stroke-width:0.5;stroke-linecap:butt;stroke-linejoin:miter;stroke-miterlimit:4;stroke-opacity:0.23206751;stroke-dasharray:none" />
<rect
 width="10.436481"
 height="10.131832"
 rx="0.79516041"
 ry="0.79465342"
 x="125.17668"
 y="160.19106"
 id="rect4031"
 style="color:#000000;fill:none;stroke:#000000;stroke-width:0.5;stroke-opacity:1;marker:none;visibility:visible;display:inline;overflow:visible;enable-background:accumulate" />
</g>
<path
 d="m 7.1611464,19.124035 c -0.7856904,-0.008 -1.4121115,0.415701 -1.4041727,0.927534 0.00305,0.217544 0.1390069,0.421635 0.3342308,0.581793 -0.7194548,0.198772 -1.2284001,0.688963 -1.1439578,1.19935 0.059146,0.35727 0.3939249,0.615941 0.8408283,0.750688 -0.3514205,0.286113 -0.5533799,0.683426 -0.4615475,1.049025 0.097288,0.387525 0.5073575,0.614031 0.9946549,0.682453 -0.1036248,0.165906 -0.1797994,0.362012 -0.1364896,0.536665 0.1089038,0.439217 0.674105,0.642794 1.3000071,0.483532 C 8.1105803,25.175819 8.554767,24.706789 8.4459044,24.26757 8.3914182,24.047954 8.231136,23.875881 7.9902199,23.784081 8.2374171,23.519327 8.3457347,23.172388 8.2690139,22.866901 8.1998964,22.591727 7.9803365,22.412202 7.6849548,22.294347 8.0306567,22.04944 8.2394149,21.73826 8.1834954,21.400309 8.1512625,21.205872 8.0177059,21.018429 7.8515749,20.880972 8.3027631,20.73048 8.6089593,20.428045 8.6034192,20.071381 8.5955012,19.559547 7.9468569,19.131993 7.1611661,19.124039 z"
 id="path3525-3"
 style="fill:#ffc78f;fill-opacity:1;fill-rule:evenodd;stroke:#000000;stroke-width:0.5;stroke-linecap:round;stroke-linejoin:miter;stroke-miterlimit:4;stroke-opacity:1;stroke-dasharray:none;stroke-dashoffset:0;marker:none;visibility:visible;display:inline;overflow:visible;enable-background:accumulate" />
<path
 d="m 17.459092,19.363801 c 0.783721,-0.05616 1.434962,0.328254 1.45845,0.839609 0.0103,0.217321 -0.112868,0.429371 -0.297895,0.601209 0.730298,0.154243 1.268368,0.612275 1.215408,1.126882 -0.03711,0.360226 -0.355381,0.638956 -0.793172,0.800876 0.368317,0.264007 0.594279,0.648175 0.525058,1.018721 -0.07332,0.392766 -0.468717,0.644012 -0.950897,0.742211 0.113611,0.159234 0.201678,0.350295 0.169168,0.527277 -0.08174,0.445073 -0.633385,0.682953 -1.267881,0.562404 -0.634474,-0.120544 -1.106609,-0.56143 -1.024907,-1.006502 0.0409,-0.222546 0.190325,-0.404132 0.425153,-0.510544 -0.26298,-0.249084 -0.392386,-0.588721 -0.334558,-0.898341 0.0521,-0.278896 0.260228,-0.471559 0.54782,-0.607319 -0.360081,-0.223229 -0.587543,-0.521011 -0.55247,-0.861757 0.02024,-0.196048 0.142041,-0.391334 0.299422,-0.538728 -0.459573,-0.122518 -0.783753,-0.405591 -0.800113,-0.761923 -0.02351,-0.511355 0.597673,-0.977912 1.381395,-1.03407 z"
 id="path3176"
 style="fill:#ffc78f;fill-opacity:1;fill-rule:evenodd;stroke:#000000;stroke-width:0.5;stroke-linecap:round;stroke-linejoin:miter;stroke-miterlimit:4;stroke-opacity:1;stroke-dasharray:none;stroke-dashoffset:0;marker:none;visibility:visible;display:inline;overflow:visible;enable-background:accumulate" />
</svg>
