<?xml version="1.0" encoding="UTF-8" standalone="no"?>
<!-- Created with Inkscape (http://www.inkscape.org/) -->

<svg
 xmlns:dc="http://purl.org/dc/elements/1.1/"
 xmlns:cc="http://creativecommons.org/ns#"
 xmlns:rdf="http://www.w3.org/1999/02/22-rdf-syntax-ns#"
 xmlns:svg="http://www.w3.org/2000/svg"
 xmlns="http://www.w3.org/2000/svg"
 version="1.0"
 width="100%"
 height="100%"
 viewBox="0 0 48 48"
 id="svg2383">
<metadata
 id="metadata9">
<rdf:RDF>
<cc:Work
 rdf:about="">
<dc:format>image/svg+xml</dc:format>
<dc:type
 rdf:resource="http://purl.org/dc/dcmitype/StillImage" />
<dc:title></dc:title>
</cc:Work>
</rdf:RDF>
</metadata>
<defs
 id="defs2385" />
<path
 d="m 30.231203,41.092 c 0.431,0 0.76664,0.29181 0.875,0.6875 0.88784,0.43786 1.5,1.18678 1.5,2.03125 0,0.19598 -0.0342,0.38 -0.0937,0.5625 -0.01,0.009 -0.0212,0.022 -0.0313,0.0313 -0.6607,0.60198 -1.79345,0.96875 -3.0625,0.96875 -1.52287,0 -2.22313,-0.50025 -2.78125,-1.3125 -0.009,-0.0722 -0.0313,-0.14491 -0.0313,-0.21875 0,-0.65403 0.23139,-1.26823 0.65625,-1.71875 -0.004,-0.0332 0,-0.0596 0,-0.0937 0,-0.5172 0.4203,-0.9375 0.9375,-0.9375 l 2.03125,0 z"
 id="path4414"
 style="color:#000000;fill:#6c5353;fill-opacity:1;fill-rule:evenodd;stroke:none;stroke-width:0.5;marker:none;visibility:visible;display:inline;overflow:visible;enable-background:accumulate" />
<path
 d="m 26.699953,43.10272 c 0.54791,0.75636 1.25588,1.21875 2.71875,1.21875 1.26905,0 2.4018,-0.36677 3.0625,-0.96875 0.0101,-0.009 0.0214,-0.022 0.0313,-0.0313 0.0466,0.16004 0.0937,0.33053 0.0937,0.5 0,0.19599 -0.0342,0.38 -0.0937,0.5625 -0.01,0.009 -0.0212,0.0221 -0.0313,0.0313 -0.6607,0.60198 -1.79345,0.96875 -3.0625,0.96875 -1.52287,0 -2.22313,-0.50025 -2.78125,-1.3125 -0.009,-0.0722 -0.0313,-0.1449 -0.0313,-0.21875 0,-0.25606 0.0251,-0.51358 0.0937,-0.75 z"
 id="path4416"
 style="color:#000000;fill:#f8ffff;fill-opacity:1;fill-rule:evenodd;stroke:none;stroke-width:0.5;marker:none;visibility:visible;display:inline;overflow:visible;enable-background:accumulate" />
<path
 d="m 30.231203,41.092 c 0.431,0 0.76664,0.29181 0.875,0.6875 0.88784,0.43786 1.5,1.18678 1.5,2.03125 0,0.19598 -0.0342,0.38 -0.0937,0.5625 -0.01,0.009 -0.0212,0.022 -0.0313,0.0313 -0.6607,0.60198 -1.79345,0.96875 -3.0625,0.96875 -1.52287,0 -2.22313,-0.50025 -2.78125,-1.3125 -0.009,-0.0722 -0.0313,-0.14491 -0.0313,-0.21875 0,-0.65403 0.23139,-1.26823 0.65625,-1.71875 -0.004,-0.0332 0,-0.0596 0,-0.0937 0,-0.5172 0.4203,-0.9375 0.9375,-0.9375 l 2.03125,0 z"
 id="path4418"
 style="color:#000000;fill:none;stroke:#000000;stroke-width:0.5;stroke-linecap:round;stroke-linejoin:miter;stroke-miterlimit:4;stroke-opacity:1;stroke-dasharray:none;stroke-dashoffset:0;marker:none;visibility:visible;display:inline;overflow:visible;enable-background:accumulate" />
<path
 d="m 30.580193,42.37055 c -0.52811,-0.22633 -1.65977,-0.15089 -1.99927,0"
 id="path4420"
 style="fill:none;stroke:#000000;stroke-width:0.5;stroke-linecap:round;stroke-linejoin:miter;stroke-miterlimit:4;stroke-opacity:1;stroke-dasharray:none;display:inline" />
<path
 d="m 20.346073,41.092 c -0.431,0 -0.76664,0.29181 -0.875,0.6875 -0.88784,0.43786 -1.5,1.18678 -1.5,2.03125 0,0.19598 0.0342,0.38 0.0937,0.5625 0.01,0.009 0.0212,0.022 0.0313,0.0313 0.6607,0.60198 1.79345,0.96875 3.0625,0.96875 1.52287,0 2.22313,-0.50025 2.78125,-1.3125 0.009,-0.0722 0.0313,-0.14491 0.0313,-0.21875 0,-0.65403 -0.23139,-1.26823 -0.65625,-1.71875 0.004,-0.0332 0,-0.0596 0,-0.0937 0,-0.5172 -0.4203,-0.9375 -0.9375,-0.9375 l -2.03125,0 z"
 id="path4550-1-9"
 style="color:#000000;fill:#6c5353;fill-opacity:1;fill-rule:evenodd;stroke:none;stroke-width:0.5;marker:none;visibility:visible;display:inline;overflow:visible;enable-background:accumulate" />
<path
 d="m 23.877323,43.10272 c -0.54791,0.75636 -1.25588,1.21875 -2.71875,1.21875 -1.26905,0 -2.4018,-0.36677 -3.0625,-0.96875 -0.0101,-0.009 -0.0214,-0.022 -0.0313,-0.0313 -0.0466,0.16004 -0.0937,0.33053 -0.0937,0.5 0,0.19599 0.0342,0.38 0.0937,0.5625 0.01,0.009 0.0212,0.0221 0.0313,0.0313 0.6607,0.60198 1.79345,0.96875 3.0625,0.96875 1.52287,0 2.22313,-0.50025 2.78125,-1.3125 0.009,-0.0722 0.0313,-0.1449 0.0313,-0.21875 0,-0.25606 -0.0251,-0.51358 -0.0937,-0.75 z"
 id="path4554-4-2"
 style="color:#000000;fill:#f8ffff;fill-opacity:1;fill-rule:evenodd;stroke:none;stroke-width:0.5;marker:none;visibility:visible;display:inline;overflow:visible;enable-background:accumulate" />
<path
 d="m 20.346073,41.092 c -0.431,0 -0.76664,0.29181 -0.875,0.6875 -0.88784,0.43786 -1.5,1.18678 -1.5,2.03125 0,0.19598 0.0342,0.38 0.0937,0.5625 0.01,0.009 0.0212,0.022 0.0313,0.0313 0.6607,0.60198 1.79345,0.96875 3.0625,0.96875 1.52287,0 2.22313,-0.50025 2.78125,-1.3125 0.009,-0.0722 0.0313,-0.14491 0.0313,-0.21875 0,-0.65403 -0.23139,-1.26823 -0.65625,-1.71875 0.004,-0.0332 0,-0.0596 0,-0.0937 0,-0.5172 -0.4203,-0.9375 -0.9375,-0.9375 l -2.03125,0 z"
 id="path4542-5-4-7"
 style="color:#000000;fill:none;stroke:#000000;stroke-width:0.5;stroke-linecap:round;stroke-linejoin:miter;stroke-miterlimit:4;stroke-opacity:1;stroke-dasharray:none;stroke-dashoffset:0;marker:none;visibility:visible;display:inline;overflow:visible;enable-background:accumulate" />
<path
 d="m 19.997083,42.37055 c 0.52811,-0.22633 1.65977,-0.15089 1.99927,0"
 id="path4565-9-6"
 style="fill:none;stroke:#000000;stroke-width:0.5;stroke-linecap:round;stroke-linejoin:miter;stroke-miterlimit:4;stroke-opacity:1;stroke-dasharray:none;display:inline" />
<path
 d="m 20.402473,3.9531434 c -5.63242,2.464186 -8.33129,6.4538216 -8.09661,11.2648516 0.23469,4.81103 1.29077,7.157874 -0.82139,8.683322 0.46937,1.05608 3.05089,0.821396 3.40292,0 -0.23468,2.346844 -0.46937,3.637608 -1.87748,4.81103 3.28559,0.469369 4.22432,-0.586711 5.39775,-1.877475 -0.11735,1.408106 6.80584,1.408106 6.92319,5.045718 0.46936,-2.229505 5.8671,-3.520269 6.92318,-5.16306 0,1.173422 2.11216,1.994817 2.69888,1.994817 -0.35203,-1.173422 -0.35203,-1.994817 -0.35203,-2.464186 0.93874,0.704053 1.52545,1.05608 2.46418,1.05608 -0.82139,-2.11216 -1.64279,-4.106977 -0.82139,-6.453821 0.82139,-2.346844 2.69887,-8.448638 -1.87748,-13.6116946 -4.57634,-5.1630569 -12.28739,-5.5714639 -13.96372,-3.285582 z"
 id="path3439"
 style="color:#000000;fill:#d45500;fill-opacity:1;fill-rule:evenodd;stroke:#000000;stroke-width:0.5;stroke-linecap:butt;stroke-linejoin:miter;stroke-miterlimit:4;stroke-opacity:1;stroke-dasharray:none;stroke-dashoffset:0;marker:none;visibility:visible;display:inline;overflow:visible;enable-background:accumulate" />
<path
 d="m 20.679333,34.04621 -0.84362,1.49108 c -0.51499,0.91023 -1.45448,1.27036 -2.2631,0.81669 -1.15106,-0.78604 -2.1469,-2.50157 -1.10691,-4.560713 0.22087,-0.387405 4.21363,2.252943 4.21363,2.252943 z"
 id="path3530"
 style="fill:#ffc78f;fill-opacity:1;fill-rule:evenodd;stroke:#000000;stroke-width:0.5;stroke-linecap:butt;stroke-linejoin:miter;stroke-miterlimit:4;stroke-opacity:1;stroke-dasharray:none;stroke-dashoffset:0;marker:none;visibility:visible;display:inline;overflow:visible;enable-background:accumulate" />
<path
 d="m 18.320073,33.39469 c 1.18428,0.6346 2.12177,1.17482 2.52322,0.43509 l 1.78137,-3.282481 c 0.64073,-1.180656 0.20315,-2.642037 -0.98113,-3.276624 -1.18428,-0.634589 -2.65353,-0.194972 -3.29426,0.985695 l -1.78137,3.282465 c -0.34827,0.641755 0.56789,1.221265 1.75217,1.855855 z"
 id="path3532"
 style="fill:#ffffff;fill-opacity:1;stroke:#000000;stroke-width:0.5;stroke-linecap:round;stroke-linejoin:miter;stroke-miterlimit:4;stroke-opacity:1;stroke-dashoffset:0;marker:none;visibility:visible;display:inline;overflow:visible;enable-background:accumulate" />
<path
 d="m 29.897953,34.04621 0.84361,1.49108 c 0.51499,0.91023 1.45448,1.27036 2.2631,0.81669 1.15106,-0.78604 2.14691,-2.50157 1.10691,-4.560713 -0.22087,-0.387405 -4.21362,2.252943 -4.21362,2.252943 z"
 id="path3537-3"
 style="fill:#ffc78f;fill-opacity:1;fill-rule:evenodd;stroke:#000000;stroke-width:0.5;stroke-linecap:butt;stroke-linejoin:miter;stroke-miterlimit:4;stroke-opacity:1;stroke-dasharray:none;stroke-dashoffset:0;marker:none;visibility:visible;display:inline;overflow:visible;enable-background:accumulate" />
<path
 d="m 32.257203,33.39469 c -1.18428,0.6346 -2.12176,1.17482 -2.52321,0.43509 l -1.78138,-3.282481 c -0.64073,-1.180656 -0.20315,-2.642037 0.98113,-3.276624 1.18429,-0.634589 2.65353,-0.194972 3.29426,0.985695 l 1.78137,3.282465 c 0.34827,0.641755 -0.56788,1.221265 -1.75217,1.855855 z"
 id="path4398-6"
 style="fill:#ffffff;fill-opacity:1;stroke:#000000;stroke-width:0.5;stroke-linecap:round;stroke-linejoin:miter;stroke-miterlimit:4;stroke-opacity:1;stroke-dashoffset:0;marker:none;visibility:visible;display:inline;overflow:visible;enable-background:accumulate" />
<path
 d="m 27.440223,26.28729 c -0.59255,0.0034 -1.29781,0.02973 -2.17569,0.02973 l -0.064,0 c -1.31682,0 -2.26294,-0.02826 -2.97555,0 -1.18768,0.0471 -1.73184,0.272548 -2.11168,1.189843 -0.51752,1.249755 -1.97861,4.204032 -2.23967,6.306167 -0.0113,0.091 -0.0253,0.18011 -0.032,0.26771 -0.0249,0.26556 -0.03,0.51819 0,0.74365 0.0192,0.14363 0.0441,0.25125 0.064,0.3867 0.22378,1.51505 0.48168,2.55462 0.6719,3.30182 l 0,3.04693 5.43803,0 c 0,0 9.7e-4,-2.64757 9.7e-4,-2.66023 0,-1.11118 2.45611,-1.0811 2.43161,0 l 0.002,2.66023 5.43662,0 0,-3.04693 c 0.19022,-0.7472 0.44812,-1.78677 0.67189,-3.30182 0.0215,-0.14568 0.0433,-0.23072 0.064,-0.3867 0.03,-0.22546 0.0249,-0.47809 0,-0.74365 -0.008,-0.0885 -0.0206,-0.17604 -0.032,-0.26771 -0.26105,-2.102135 -1.72214,-5.056412 -2.23966,-6.306167 -0.45582,-1.100753 -1.13398,-1.229941 -2.91156,-1.219589 z"
 id="path3509-5-7-8"
 style="color:#000000;fill:#333333;fill-opacity:1;stroke:none;stroke-width:0.5;marker:none;visibility:visible;display:inline;overflow:visible;enable-background:accumulate" />
<path
 d="m 27.446303,26.276843 c -0.59253,0.0034 -1.30113,0.03026 -2.17901,0.03026 l -0.0605,0 c -1.31681,0 -2.28353,-0.02825 -2.99613,0 -1.18768,0.0471 -1.70837,0.293201 -2.08822,1.210496 -0.46716,1.128135 -1.69031,3.633641 -2.11849,5.659061 1.47307,2.11841 5.11462,3.26834 5.11462,3.26834 l 2.11849,-2.14863 2.11848,2.14863 c 0,0 3.64157,-1.14993 5.11462,-3.26834 -0.42816,-2.025422 -1.65133,-4.530928 -2.11848,-5.659063 -0.45582,-1.100753 -1.12775,-1.251111 -2.90535,-1.240758 z"
 id="path4279-2-6-3"
 style="fill:#dce7f3;fill-opacity:1;stroke:none;display:inline" />
<path
 d="m 18.003933,33.17666 c 1.47305,2.11841 5.11462,3.26834 5.11462,3.26834 l 2.11848,-2.14863 2.11848,2.14863 c 0,0 3.64157,-1.14993 5.11462,-3.26834"
 id="path4287-7-7-7"
 style="fill:none;stroke:#000000;stroke-width:0.49999997;stroke-linecap:round;stroke-linejoin:miter;stroke-miterlimit:4;stroke-opacity:1;stroke-dasharray:none;display:inline" />
<path
 d="m 27.440223,26.287289 c -0.59255,0.0034 -1.29781,0.02973 -2.17569,0.02973 l -0.064,0 c -1.31682,0 -2.26294,-0.02826 -2.97556,0 -1.18767,0.0471 -1.73183,0.272548 -2.11167,1.189843 -0.51752,1.249755 -1.97861,4.204031 -2.23967,6.306168 -0.0113,0.091 -0.0253,0.18012 -0.032,0.26771 -0.0249,0.26556 -0.03,0.51819 0,0.74365 0.0192,0.14363 0.0441,0.25125 0.064,0.3867 0.22378,1.51505 0.48168,2.55462 0.6719,3.30182 l 0,3.04693 5.43803,0 c 0,0 9.6e-4,-2.64757 9.6e-4,-2.66023 0,-1.11118 2.45612,-1.0811 2.43162,0 l 0.002,2.66023 5.43661,0 0,-3.04693 c 0.19022,-0.7472 0.44812,-1.78677 0.6719,-3.30182 0.0215,-0.14568 0.0433,-0.23073 0.064,-0.3867 0.03,-0.22546 0.0249,-0.47809 0,-0.74365 -0.008,-0.0885 -0.0206,-0.17604 -0.032,-0.26771 -0.26104,-2.102137 -1.72214,-5.056413 -2.23966,-6.306168 -0.45582,-1.100754 -1.13398,-1.229942 -2.91156,-1.219589 z"
 id="path4378-8-1-6-6"
 style="color:#000000;fill:none;stroke:#000000;stroke-width:0.49999997;stroke-linecap:round;stroke-linejoin:miter;stroke-miterlimit:4;stroke-opacity:1;stroke-dasharray:none;stroke-dashoffset:0;marker:none;visibility:visible;display:inline;overflow:visible;enable-background:accumulate" />
<path
 d="m 22.224723,26.30818 c -1.18767,0.0471 -1.7139,0.301455 -2.09375,1.21875 -0.48148,1.162735 -1.81804,4.094453 -2.09375,5.15625 -0.1427,0.5496 -0.30009,1.19164 -0.4375,1.8125 l 4.78017,0.83694 0.25108,-1.18069 c 0.19209,-0.90327 0.36375,-2.22439 -0.0625,-2.4375 -1.2432,-0.559411 -0.98929,-3.3376 -0.28125,-5.40625 -0.0226,7.45e-4 -0.0409,-8.55e-4 -0.0625,0 z m 5.9375,0 c 0.70804,2.06865 0.99321,4.846839 -0.25,5.40625 -0.42622,0.21311 -0.0625,1.51403 -0.0625,2.4375 l 0.29293,1.43177 4.70707,-1.08802 c -0.1373,-0.62019 -0.26369,-1.26348 -0.40625,-1.8125 -0.2757,-1.061797 -1.61226,-3.993515 -2.09375,-5.15625 -0.37985,-0.917295 -0.90607,-1.171646 -2.09375,-1.21875 -0.0216,-8.55e-4 -0.0711,7.45e-4 -0.0937,0 z"
 id="path4303-9-6-1"
 style="fill:#1a1a1a;fill-opacity:1;stroke:#000000;stroke-width:0.49999997;stroke-linecap:butt;stroke-linejoin:miter;stroke-miterlimit:4;stroke-opacity:1;stroke-dasharray:none;display:inline" />
<g
 transform="translate(-31.344413,-6.8660426)"
 id="g4369"
 style="display:inline">
<path
 d="m 57.405031,33.860533 c 0.828526,2.248857 0.355083,7.575097 -0.473444,8.995428 1.538692,0.710165 3.077384,0.710165 4.734436,0.473443 0.118361,-2.840661 0.118361,-7.930179 -1.183609,-9.705593 -1.420331,0.118361 -3.077383,0.236722 -3.077383,0.236722 z"
 id="path3597"
 style="fill:#ff5555;stroke:#000000;stroke-width:0.5;stroke-linecap:butt;stroke-linejoin:miter;stroke-miterlimit:4;stroke-opacity:1;stroke-dasharray:none" />
<rect
 width="11.95445"
 height="5.0895181"
 ry="2.544759"
 x="50.5401"
 y="31.8484"
 id="rect4367"
 style="color:#000000;fill:#ff5555;fill-opacity:1;fill-rule:evenodd;stroke:#000000;stroke-width:0.5;stroke-linecap:butt;stroke-linejoin:miter;stroke-miterlimit:4;stroke-opacity:1;stroke-dasharray:none;stroke-dashoffset:0;marker:none;visibility:visible;display:inline;overflow:visible;enable-background:accumulate" />
</g>
<path
 d="m 16.289973,22.148039 c -1.40543,0 -2.53125,1.125818 -2.53125,2.53125 0,1.405432 1.12582,2.5625 2.53125,2.5625 1.40543,0 2.5625,-1.157068 2.5625,-2.5625 0,-1.405432 -1.15707,-2.53125 -2.5625,-2.53125 z m 0,1.28125 c 0.68638,0 1.25,0.563626 1.25,1.25 0,0.686374 -0.56362,1.25 -1.25,1.25 -0.68637,0 -1.25,-0.563626 -1.25,-1.25 0,-0.686374 0.56363,-1.25 1.25,-1.25 z"
 id="path4375"
 style="color:#000000;fill:#d40000;fill-opacity:1;fill-rule:evenodd;stroke:#000000;stroke-width:0.5;stroke-linecap:butt;stroke-linejoin:miter;stroke-miterlimit:4;stroke-opacity:1;stroke-dasharray:none;stroke-dashoffset:0;marker:none;visibility:visible;display:inline;overflow:visible;enable-background:accumulate" />
<path
 d="m 33.570663,22.029678 c -1.40543,0 -2.53125,1.125818 -2.53125,2.53125 0,1.405432 1.12582,2.5625 2.53125,2.5625 1.40543,0 2.5625,-1.157068 2.5625,-2.5625 0,-1.405432 -1.15707,-2.53125 -2.5625,-2.53125 z m 0,1.28125 c 0.68637,0 1.25,0.563626 1.25,1.25 0,0.686374 -0.56363,1.25 -1.25,1.25 -0.68637,0 -1.25,-0.563626 -1.25,-1.25 0,-0.686374 0.56363,-1.25 1.25,-1.25 z"
 id="path4382-4"
 style="color:#000000;fill:#d40000;fill-opacity:1;fill-rule:evenodd;stroke:#000000;stroke-width:0.5;stroke-linecap:butt;stroke-linejoin:miter;stroke-miterlimit:4;stroke-opacity:1;stroke-dasharray:none;stroke-dashoffset:0;marker:none;visibility:visible;display:inline;overflow:visible;enable-background:accumulate" />
<path
 d="m 25.068473,11.236708 c -0.9717,3.646594 -7.47209,3.869438 -8.65625,4.90625 -0.47245,0.413663 -0.7299,2.909028 -0.84375,5.875 1.99733,3.581686 5.55092,6.25 9.59375,6.25 3.81125,0 7.17151,-2.382949 9.21875,-5.65625 -0.0887,-3.232777 -0.2755,-6.025932 -0.78125,-6.46875 -1.17943,-1.032674 -7.33313,-1.303559 -8.34375,-4.90625 l -0.1875,0 z"
 id="path3524-5"
 style="fill:#ffc78f;fill-opacity:1;fill-rule:evenodd;stroke:#000000;stroke-width:0.5;stroke-linecap:round;stroke-linejoin:round;stroke-miterlimit:4;stroke-opacity:1;stroke-dasharray:none;stroke-dashoffset:0;marker:none;visibility:visible;display:inline;overflow:visible;enable-background:accumulate" />
<path
 d="m 18.783673,18.046137 c 0.57735,-1.51554 3.03108,-1.3712 4.04144,1.08253 0.21651,0.36084 -0.36084,0.72169 -0.64951,0.28867 -0.72169,1.29904 -3.82494,0.50518 -3.39193,-1.3712 z"
 id="path3443-9"
 style="fill:#ffffff;fill-opacity:1;fill-rule:evenodd;stroke:#000000;stroke-width:0.5;stroke-linecap:round;stroke-linejoin:round;stroke-miterlimit:4;stroke-opacity:1;stroke-dasharray:none;stroke-dashoffset:0;marker:none;visibility:visible;display:inline;overflow:visible;enable-background:accumulate" />
<path
 d="m 18.359302,27.444853 a 1.1001829,1.1001829 0 1 1 -2.200366,0 1.1001829,1.1001829 0 1 1 2.200366,0 z"
 transform="translate(3.4839434,-8.9641525)"
 id="path3446-6"
 style="fill:#000000;fill-opacity:1;fill-rule:evenodd;stroke:none;stroke-width:0.5;marker:none;visibility:visible;display:inline;overflow:visible;enable-background:accumulate" />
<path
 d="m 31.563413,18.046137 c -0.57735,-1.51554 -3.03108,-1.3712 -4.04144,1.08253 -0.2165,0.36084 0.36085,0.72169 0.64952,0.28867 0.72169,1.29904 3.82493,0.50518 3.39192,-1.3712 z"
 id="path3448-7"
 style="fill:#ffffff;fill-opacity:1;fill-rule:evenodd;stroke:#000000;stroke-width:0.5;stroke-linecap:round;stroke-linejoin:round;stroke-miterlimit:4;stroke-opacity:1;stroke-dasharray:none;stroke-dashoffset:0;marker:none;visibility:visible;display:inline;overflow:visible;enable-background:accumulate" />
<path
 d="m 18.359302,27.444853 a 1.1001829,1.1001829 0 1 1 -2.200366,0 1.1001829,1.1001829 0 1 1 2.200366,0 z"
 transform="matrix(-1,0,0,1,46.863143,-8.9641525)"
 id="path3450-4"
 style="fill:#000000;fill-opacity:1;fill-rule:evenodd;stroke:none;stroke-width:0.5;marker:none;visibility:visible;display:inline;overflow:visible;enable-background:accumulate" />
<path
 d="m 17.368579,27.064899 a 0.42570049,0.42570049 0 1 1 -0.851401,0 0.42570049,0.42570049 0 1 1 0.851401,0 z"
 transform="translate(3.5407034,-8.9193935)"
 id="path3452-8"
 style="fill:#ffffff;fill-opacity:1;fill-rule:evenodd;stroke:none;stroke-width:0.5;marker:none;visibility:visible;display:inline;overflow:visible;enable-background:accumulate" />
<path
 d="m 17.368579,27.064899 a 0.42570049,0.42570049 0 1 1 -0.851401,0 0.42570049,0.42570049 0 1 1 0.851401,0 z"
 transform="translate(12.329503,-8.9193935)"
 id="path3454-9"
 style="fill:#ffffff;fill-opacity:1;fill-rule:evenodd;stroke:none;stroke-width:0.5;marker:none;visibility:visible;display:inline;overflow:visible;enable-background:accumulate" />
<path
 d="m 18.107513,16.208062 c 1.72093,-1.084935 3.03033,-1.45905 4.15268,-0.9727"
 id="path4288"
 style="fill:none;stroke:#000000;stroke-width:0.5;stroke-linecap:round;stroke-linejoin:miter;stroke-miterlimit:4;stroke-opacity:1;stroke-dasharray:none;display:inline" />
<path
 d="m 32.469763,16.208062 c -1.72093,-1.084935 -3.03033,-1.45905 -4.15268,-0.9727"
 id="path4290"
 style="fill:none;stroke:#000000;stroke-width:0.5;stroke-linecap:round;stroke-linejoin:miter;stroke-miterlimit:4;stroke-opacity:1;stroke-dasharray:none;display:inline" />
<path
 d="m 24.316993,22.434902 c 0.0734,0.464666 0.4523,0.843751 0.9375,0.84375 0.48521,0 0.86408,-0.379083 0.9375,-0.84375"
 id="path3335-1"
 style="fill:none;stroke:#000000;stroke-width:0.5;stroke-linecap:round;stroke-linejoin:round;stroke-miterlimit:4;stroke-opacity:1;stroke-dasharray:none;stroke-dashoffset:0;marker:none;visibility:visible;display:inline;overflow:visible;enable-background:accumulate" />
<path
 d="m 21.676373,24.240185 c 1.07786,0.388923 2.25851,0.59375 3.46875,0.59375 1.30104,0 2.547,-0.267613 3.6875,-0.71875"
 id="path4383-0"
 style="fill:none;stroke:#000000;stroke-width:0.5;stroke-linecap:round;stroke-linejoin:round;stroke-miterlimit:4;stroke-opacity:1;stroke-dasharray:none;stroke-dashoffset:0;marker:none;visibility:visible;display:inline;overflow:visible;enable-background:accumulate" />
<rect
 width="6.8780274"
 height="4.4442639"
 rx="1.2076287"
 ry="1.2076287"
 x="17.318319"
 y="17.56599"
 id="rect4328"
 style="color:#000000;fill:#77c1e2;fill-opacity:0.58558559;fill-rule:evenodd;stroke:#000000;stroke-width:0.5;stroke-linecap:round;stroke-linejoin:miter;stroke-miterlimit:4;stroke-opacity:1;stroke-dasharray:none;stroke-dashoffset:0;marker:none;visibility:visible;display:inline;overflow:visible;enable-background:accumulate" />
<rect
 width="6.8780274"
 height="4.4442639"
 rx="1.2076287"
 ry="1.2076287"
 x="-33.258965"
 y="17.56599"
 transform="scale(-1,1)"
 id="rect4330"
 style="color:#000000;fill:#77c1e2;fill-opacity:0.58558559;fill-rule:evenodd;stroke:#000000;stroke-width:0.5;stroke-linecap:round;stroke-linejoin:miter;stroke-miterlimit:4;stroke-opacity:1;stroke-dasharray:none;stroke-dashoffset:0;marker:none;visibility:visible;display:inline;overflow:visible;enable-background:accumulate" />
<path
 d="m 24.143433,18.359606 c 0.58199,-0.423264 1.64014,-0.423264 2.16922,0"
 id="path4332"
 style="fill:none;stroke:#000000;stroke-width:0.5;stroke-linecap:round;stroke-linejoin:miter;stroke-miterlimit:4;stroke-opacity:1;stroke-dasharray:none;display:inline" />
<path
 d="m 17.265403,18.729961 -2.16922,0"
 id="path4335"
 style="fill:none;stroke:#000000;stroke-width:0.5;stroke-linecap:butt;stroke-linejoin:miter;stroke-miterlimit:4;stroke-opacity:1;stroke-dasharray:none;display:inline" />
<path
 d="m 35.571543,18.729961 -2.16923,0"
 id="path4338"
 style="fill:none;stroke:#000000;stroke-width:0.5;stroke-linecap:butt;stroke-linejoin:miter;stroke-miterlimit:4;stroke-opacity:1;stroke-dasharray:none;display:inline" />
</svg>
