<?xml version="1.0" encoding="UTF-8" standalone="no"?>
<!-- Created with Inkscape (http://www.inkscape.org/) -->
<svg xmlns:dc="http://purl.org/dc/elements/1.1/" xmlns:cc="http://creativecommons.org/ns#" xmlns:rdf="http://www.w3.org/1999/02/22-rdf-syntax-ns#" xmlns:svg="http://www.w3.org/2000/svg" xmlns="http://www.w3.org/2000/svg" version="1.0" width="100%" height="100%" viewBox="0 0 48 48" id="svg3578">
<defs id="defs8" />
<path d="m 23.24,46.50 c -0.16,-0.01 -0.57,-0.08 -0.90,-0.15 -0.33,-0.06 -1.00,-0.14 -1.50,-0.17 -0.49,-0.02 -1.09,-0.09 -1.33,-0.17 -0.62,-0.18 -1.80,-0.84 -2.99,-1.65 C 16.07,44.05 15.32,43.62 14.83,43.38 14.35,43.15 13.70,42.78 13.40,42.56 12.65,42.02 11.98,41.28 11.98,40.98 l 6.61e-4,-0.22 0.13,0.25 c 0.33,0.65 1.44,1.53 2.61,2.08 0.44,0.21 1.04,0.54 1.33,0.74 0.65,0.46 1.59,1.02 1.63,0.98 0.07,-0.07 0.06,-1.37 -0.01,-1.45 -0.05,-0.05 -0.09,0.12 -0.10,0.58 -0.02,0.92 -0.09,0.91 -0.10,-0.01 l -0.01,-0.76 -0.07,0.50 c -0.10,0.71 -0.18,0.72 -0.14,0.01 0.02,-0.42 -0.00,-0.60 -0.07,-0.63 -0.07,-0.02 -0.10,0.07 -0.10,0.31 0,0.19 -0.03,0.35 -0.07,0.35 -0.03,0 -0.06,-0.17 -0.05,-0.38 0.00,-0.21 -0.01,-0.40 -0.05,-0.43 -0.04,-0.02 -0.07,0.06 -0.08,0.19 -0.00,0.21 -0.01,0.21 -0.07,0.06 -0.03,-0.09 -0.05,-0.25 -0.02,-0.36 0.02,-0.11 0.00,-0.19 -0.05,-0.19 -0.05,0 -0.09,0.07 -0.09,0.17 0,0.09 -0.04,0.17 -0.09,0.17 -0.05,0 -0.08,-0.10 -0.05,-0.24 0.03,-0.26 -0.09,-0.43 -0.33,-0.45 -0.10,-0.00 -0.08,-0.02 0.06,-0.07 0.20,-0.06 0.20,-0.06 0.01,-0.07 -0.10,-0.00 -0.34,0.09 -0.53,0.21 -0.28,0.18 -0.44,0.22 -0.90,0.22 -0.48,0 -0.62,-0.03 -1.03,-0.28 -0.74,-0.44 -1.59,-1.44 -1.87,-2.18 -0.43,-1.18 -0.83,-2.50 -0.95,-3.14 -0.48,-2.67 -0.51,-2.92 -0.50,-4.67 0.00,-1.94 0.14,-3.00 0.54,-4.24 0.36,-1.11 0.73,-1.63 1.41,-1.99 0.14,-0.07 0.25,-0.17 0.25,-0.21 -0.02,-0.17 0.14,-0.45 0.39,-0.63 0.21,-0.15 0.25,-0.23 0.21,-0.40 -0.04,-0.19 0.17,-0.71 0.30,-0.71 0.03,0 0.08,-0.19 0.11,-0.42 0.04,-0.33 0.15,-0.54 0.48,-0.95 L 14.47,22.12 V 21.43 c 0,-0.51 -0.03,-0.73 -0.13,-0.84 -0.20,-0.22 -0.37,-0.75 -0.37,-1.22 -0.00,-0.22 -0.06,-0.52 -0.13,-0.65 -0.18,-0.36 -0.34,-0.87 -0.63,-2.06 -0.22,-0.92 -0.26,-1.22 -0.26,-2.20 0,-0.71 0.04,-1.34 0.13,-1.70 0.07,-0.30 0.15,-0.74 0.17,-0.96 0.05,-0.48 0.45,-1.13 1.00,-1.64 0.37,-0.34 1.50,-0.95 2.23,-1.21 0.52,-0.18 0.91,-0.44 1.00,-0.67 0.04,-0.11 0.07,-0.43 0.07,-0.72 0,-0.43 -0.03,-0.56 -0.24,-0.83 C 17.18,6.52 17.02,6.22 16.95,6.03 16.89,5.84 16.76,5.60 16.65,5.50 16.49,5.34 16.46,5.21 16.46,4.66 c -0.00,-0.35 0.03,-0.66 0.07,-0.69 0.04,-0.02 0.16,-0.22 0.27,-0.44 0.10,-0.21 0.26,-0.41 0.34,-0.43 0.08,-0.02 0.15,-0.10 0.15,-0.17 0.00,-0.19 0.18,-0.41 0.43,-0.52 0.22,-0.10 0.42,-0.21 0.78,-0.45 0.12,-0.08 0.27,-0.13 0.32,-0.09 0.05,0.03 0.23,0.05 0.41,0.05 0.17,-4.56e-5 0.38,0.03 0.46,0.07 0.08,0.04 0.16,0.04 0.19,-0.00 0.09,-0.15 0.38,-0.09 0.62,0.12 0.12,0.11 0.25,0.19 0.29,0.16 0.14,-0.09 0.39,0.06 0.49,0.31 0.05,0.14 0.16,0.24 0.24,0.24 0.33,-0.02 0.44,0.02 0.44,0.19 0,0.09 0.07,0.27 0.17,0.40 0.09,0.12 0.15,0.28 0.12,0.36 -0.02,0.08 0.00,0.16 0.08,0.19 0.10,0.03 0.11,0.09 0.04,0.28 -0.06,0.17 -0.06,0.24 0.01,0.29 0.08,0.05 0.07,0.10 -0.02,0.22 -0.07,0.08 -0.12,0.22 -0.10,0.31 0.01,0.08 -0.00,0.22 -0.05,0.30 -0.09,0.16 -0.34,1.16 -0.34,1.37 0,0.08 -0.07,0.21 -0.17,0.29 -0.09,0.08 -0.17,0.25 -0.17,0.39 0,0.13 -0.09,0.43 -0.22,0.66 -0.32,0.61 -0.50,1.33 -0.36,1.42 0.06,0.03 0.13,0.07 0.15,0.07 0.02,9.25e-4 0.12,0.06 0.21,0.15 0.09,0.08 0.28,0.21 0.42,0.29 0.28,0.15 1.52,0.58 1.69,0.58 0.20,0 0.81,0.38 1.07,0.68 0.30,0.35 0.82,1.28 0.96,1.74 0.05,0.18 0.22,0.42 0.39,0.55 0.16,0.12 0.42,0.43 0.59,0.67 0.34,0.52 0.78,0.87 1.17,0.95 0.15,0.02 0.38,0.10 0.51,0.17 0.14,0.07 0.25,0.08 0.28,0.03 0.02,-0.04 0.24,-0.06 0.49,-0.03 0.24,0.02 0.49,0.05 0.55,0.05 0.05,0.00 0.10,0.07 0.10,0.16 0,0.19 0.13,0.20 0.20,0.01 0.04,-0.12 0.10,-0.09 0.38,0.17 0.17,0.17 0.45,0.35 0.62,0.40 0.16,0.04 0.55,0.31 0.86,0.59 0.53,0.48 0.57,0.54 0.64,1.01 0.09,0.64 0.07,0.86 -0.11,1.07 -0.10,0.11 -0.15,0.30 -0.15,0.61 -6.62e-4,0.36 -0.03,0.44 -0.15,0.47 -0.08,0.01 -0.25,-0.05 -0.36,-0.16 l -0.20,-0.19 v 0.47 c 0,0.25 -0.03,0.50 -0.07,0.55 -0.18,0.19 -0.12,0.52 0.14,0.87 0.34,0.43 1.30,2.34 1.30,2.59 0,0.10 -0.05,0.20 -0.12,0.23 -0.07,0.02 -0.12,0.12 -0.12,0.21 0,0.09 -0.09,0.20 -0.21,0.26 -0.11,0.05 -0.21,0.13 -0.21,0.18 0,0.09 -0.20,0.26 -0.54,0.45 -0.18,0.10 -0.27,0.10 -0.35,0.03 -0.17,-0.14 -0.47,0.04 -0.47,0.30 0,0.11 -0.12,0.41 -0.26,0.66 -0.14,0.25 -0.32,0.60 -0.38,0.79 -0.06,0.18 -0.19,0.40 -0.28,0.49 -0.09,0.08 -0.19,0.33 -0.22,0.55 -0.03,0.22 -0.13,0.47 -0.23,0.57 l -0.17,0.17 -0.15,-0.20 c -0.08,-0.11 -0.18,-0.30 -0.21,-0.42 -0.05,-0.20 -0.17,-0.33 -0.30,-0.34 -0.03,-4.61e-4 -0.07,0.35 -0.09,0.79 -0.01,0.43 -0.10,1.04 -0.18,1.35 -0.29,1.09 -0.45,1.21 -1.00,0.77 -0.31,-0.25 -0.33,-0.25 -0.33,-0.08 0,0.32 0.19,0.98 0.31,1.08 0.09,0.07 0.19,0.05 0.43,-0.06 0.38,-0.19 0.60,-0.21 0.46,-0.04 -0.07,0.08 -0.06,0.14 0.02,0.21 0.10,0.08 0.11,0.07 0.07,-0.08 -0.03,-0.14 -0.02,-0.17 0.06,-0.12 0.07,0.04 0.09,0.03 0.04,-0.03 -0.06,-0.09 0.16,-0.43 0.29,-0.43 0.03,0 0.14,0.07 0.25,0.17 0.10,0.09 0.24,0.17 0.29,0.17 0.73,0.04 1.08,0.28 1.08,0.73 0,0.15 -0.03,0.30 -0.07,0.32 -0.07,0.04 0.01,0.42 0.17,0.75 0.10,0.21 0.09,0.26 -0.13,0.61 -0.17,0.26 -0.19,0.34 -0.11,0.48 0.16,0.26 -0.00,0.63 -0.30,0.67 -0.13,0.01 -0.29,-0.01 -0.35,-0.06 -0.13,-0.11 -0.13,0.09 0.01,0.42 0.04,0.11 0.15,0.44 0.24,0.73 0.08,0.28 0.24,0.73 0.35,0.99 0.11,0.26 0.20,0.55 0.20,0.64 0.00,0.42 1.03,1.49 1.43,1.49 0.09,0 0.29,0.02 0.44,0.05 l 0.27,0.05 -0.01,1.45 -0.01,1.45 0.35,0.39 c 0.19,0.21 0.35,0.42 0.35,0.47 0,0.23 -0.46,0.48 -0.79,0.43 -0.08,-0.01 -0.08,0.14 0.01,0.19 0.04,0.02 0.09,0.12 0.12,0.22 0.03,0.14 -0.01,0.20 -0.24,0.30 -0.21,0.09 -0.34,0.10 -0.46,0.03 -0.13,-0.07 -0.21,-0.03 -0.44,0.21 -0.57,0.62 -1.74,1.15 -3.03,1.33 -0.33,0.05 -0.95,0.14 -1.39,0.21 -0.71,0.11 -2.76,0.14 -3.55,0.06 z m 3.13,-0.23 c 1.99,-0.27 2.35,-0.33 2.92,-0.49 0.75,-0.21 1.08,-0.37 1.51,-0.74 l 0.34,-0.28 -0.17,-0.16 c -0.10,-0.10 -0.24,-0.14 -0.34,-0.11 -0.10,0.03 -0.26,-0.03 -0.45,-0.20 -0.16,-0.14 -0.31,-0.23 -0.34,-0.20 -0.02,0.02 -0.10,0.00 -0.17,-0.04 -0.10,-0.08 -0.12,-0.00 -0.15,0.50 -0.03,0.69 -0.18,0.91 -0.52,0.83 -0.22,-0.05 -0.24,-0.10 -0.35,-1.18 l -0.05,-0.48 -0.53,0.03 c -0.29,0.02 -0.93,0.07 -1.42,0.12 -0.49,0.04 -1.48,0.08 -2.20,0.08 -1.17,0 -1.31,0.01 -1.35,0.15 -0.03,0.14 -0.04,0.14 -0.04,0 -0.01,-0.23 -0.15,-0.17 -0.23,0.08 -0.03,0.12 -0.05,0.26 -0.04,0.30 0.00,0.03 -0.02,0.04 -0.06,0.02 -0.04,-0.02 -0.10,-0.01 -0.13,0.03 -0.07,0.11 -0.43,0.11 -0.67,-0.00 -0.15,-0.07 -0.16,-0.07 -0.08,0.01 0.06,0.07 0.10,0.35 0.10,0.76 -0.00,0.38 -0.03,0.58 -0.07,0.48 -0.03,-0.09 -0.05,-0.27 -0.05,-0.40 0.00,-0.13 -0.01,-0.21 -0.05,-0.19 -0.03,0.02 -0.07,0.17 -0.07,0.33 0,0.15 -0.03,0.31 -0.08,0.34 -0.04,0.03 -0.08,-0.01 -0.08,-0.10 -0.00,-0.13 -0.01,-0.13 -0.08,-0.02 -0.05,0.08 -0.07,-0.13 -0.06,-0.68 l 0.01,-0.81 0.05,0.64 c 0.03,0.35 0.06,0.52 0.08,0.38 0.01,-0.14 0.02,-0.31 0.01,-0.38 -0.00,-0.07 -0.01,-0.26 -0.02,-0.43 -0.01,-0.23 -0.05,-0.30 -0.15,-0.27 -0.11,0.02 -0.13,0.18 -0.12,0.86 0.00,0.58 -0.00,0.64 -0.02,0.18 -0.03,-0.77 -0.08,-1.03 -0.21,-1.03 -0.06,0 -0.08,0.23 -0.05,0.73 0.02,0.40 0.00,0.73 -0.03,0.73 -0.04,0 -0.07,-0.30 -0.07,-0.68 0,-0.49 -0.03,-0.68 -0.10,-0.68 -0.08,0 -0.10,0.20 -0.07,0.83 0.01,0.46 0.00,0.81 -0.02,0.78 -0.04,-0.04 -0.10,-0.77 -0.13,-1.38 -0.00,-0.08 -0.05,-0.15 -0.11,-0.15 -0.08,0 -0.10,0.20 -0.07,0.79 0.01,0.43 0.01,0.77 -0.01,0.74 -0.03,-0.03 -0.13,-0.93 -0.14,-1.35 -0.00,-0.10 -0.03,-0.19 -0.06,-0.19 -0.03,0 -0.05,0.32 -0.03,0.73 0.01,0.47 -0.00,0.73 -0.06,0.73 -0.05,0 -0.09,-0.27 -0.09,-0.72 0,-0.79 0.05,-0.73 -0.75,-0.98 l -0.27,-0.08 v 0.69 c 0,0.38 -0.02,0.67 -0.05,0.64 -0.03,-0.03 -0.04,-0.34 -0.03,-0.69 0.01,-0.37 -0.01,-0.66 -0.07,-0.69 -0.06,-0.03 -0.09,0.15 -0.09,0.59 0,0.35 -0.03,0.64 -0.07,0.64 -0.04,0 -0.07,-0.31 -0.06,-0.70 0.01,-0.89 -0.15,-1.01 -0.19,-0.13 -0.01,0.34 -0.04,0.64 -0.06,0.66 -0.02,0.02 -0.03,-0.27 -0.01,-0.66 0.02,-0.50 -0.00,-0.71 -0.07,-0.74 -0.07,-0.02 -0.10,0.07 -0.10,0.36 0,0.22 -0.03,0.52 -0.07,0.67 -0.06,0.22 -0.04,0.28 0.10,0.38 0.34,0.22 0.91,0.49 0.91,0.43 0.00,-0.31 0.11,-1.26 0.14,-1.30 0.02,-0.02 0.02,0.29 0.01,0.70 l -0.02,0.74 0.53,0.17 c 0.38,0.12 0.76,0.17 1.31,0.17 0.43,0 1.01,0.05 1.30,0.13 1.02,0.26 2.95,0.34 4.22,0.17 z m -3.73,-0.56 c 0,-0.04 0.01,-0.08 0.03,-0.08 0.02,0 0.06,0.03 0.09,0.08 0.02,0.05 0.01,0.08 -0.03,0.08 -0.05,0 -0.09,-0.03 -0.09,-0.08 z m 0.25,0.05 c 0,-0.02 0.03,-0.06 0.08,-0.09 0.04,-0.02 0.08,-0.01 0.08,0.03 0,0.05 -0.03,0.09 -0.08,0.09 -0.04,0 -0.08,-0.01 -0.08,-0.03 z m -3.44,-0.69 c -0.04,-0.69 -0.03,-0.79 0.04,-0.71 0.02,0.02 0.03,0.35 0.02,0.72 l -0.02,0.67 -0.04,-0.68 z m -0.26,0.38 c -0.02,-0.70 -0.00,-1.13 0.03,-1.17 0.02,-0.02 0.05,0.26 0.05,0.64 0,0.38 -0.01,0.70 -0.04,0.70 -0.02,0 -0.04,-0.07 -0.04,-0.17 z m 2.84,-0.32 c 6.61e-4,-0.29 0.02,-0.37 0.08,-0.27 0.11,0.17 0.11,0.68 0,0.68 -0.04,0 -0.08,-0.18 -0.08,-0.40 z m 0.36,0.10 c -6.61e-4,-0.18 0.01,-0.27 0.03,-0.19 0.02,0.08 0.02,0.23 0.00,0.34 -0.02,0.10 -0.03,0.03 -0.03,-0.14 z m 0.23,0.21 c 0,-0.04 0.03,-0.09 0.08,-0.09 0.04,0 0.08,0.01 0.08,0.03 0,0.02 -0.03,0.06 -0.08,0.09 -0.04,0.02 -0.08,0.01 -0.08,-0.03 z m 0.25,-0.09 c 0,-0.04 0.03,-0.08 0.08,-0.08 0.04,0 0.08,0.03 0.08,0.08 0,0.04 -0.03,0.08 -0.08,0.08 -0.04,0 -0.08,-0.03 -0.08,-0.08 z m -0.25,-0.30 c 0,-0.07 0.03,-0.12 0.08,-0.12 0.04,0 0.08,0.05 0.08,0.12 0,0.07 -0.03,0.12 -0.08,0.12 -0.04,0 -0.08,-0.05 -0.08,-0.12 z m 0.25,0 c 0,-0.07 0.03,-0.12 0.08,-0.12 0.04,0 0.08,0.05 0.08,0.12 0,0.07 -0.03,0.12 -0.08,0.12 -0.04,0 -0.08,-0.05 -0.08,-0.12 z m -0.25,-0.34 c 0,-0.07 0.03,-0.12 0.08,-0.12 0.04,0 0.08,0.05 0.08,0.12 0,0.07 -0.03,0.12 -0.08,0.12 -0.04,0 -0.08,-0.05 -0.08,-0.12 z m 0.30,0.04 c -0.02,-0.04 -0.01,-0.10 0.03,-0.13 0.04,-0.02 0.08,0.00 0.08,0.07 0,0.15 -0.05,0.17 -0.12,0.05 z m 0,-0.34 c -0.02,-0.04 -0.01,-0.10 0.03,-0.13 0.04,-0.02 0.08,0.00 0.08,0.08 0,0.15 -0.05,0.17 -0.12,0.05 z m 6.32,-0.02 c -0.06,-0.06 -0.10,-0.06 -0.10,-0.01 0,0.11 0.10,0.21 0.15,0.15 0.02,-0.02 -0.00,-0.08 -0.05,-0.14 z m -6.82,-0.02 c 0.17,-0.12 0.18,-0.17 0.13,-0.96 -0.02,-0.45 -0.08,-0.89 -0.11,-0.96 -0.10,-0.21 -0.60,-0.19 -0.87,0.03 -0.37,0.30 -0.39,0.69 -0.07,1.32 0.34,0.69 0.57,0.82 0.93,0.57 z m 8.94,-0.00 c -0.07,-0.07 -0.18,-0.11 -0.23,-0.08 -0.13,0.08 -0.02,0.21 0.18,0.21 0.17,0 0.17,-0.01 0.04,-0.13 z m 0.72,-0.04 c 0.04,-0.14 -0.49,-1.13 -0.93,-1.69 -0.20,-0.26 -0.37,-0.52 -0.37,-0.58 -4.57e-4,-0.17 0.23,-0.02 0.29,0.17 0.02,0.10 0.13,0.28 0.22,0.40 0.14,0.17 0.16,0.18 0.08,0.03 -0.06,-0.14 -0.05,-0.20 0.04,-0.29 0.07,-0.06 0.12,-0.07 0.11,-0.03 -0.03,0.20 0.01,0.27 0.17,0.23 0.18,-0.04 0.22,0.05 0.08,0.19 -0.11,0.11 0.04,0.74 0.22,0.87 0.20,0.15 0.50,0.13 0.67,-0.02 0.12,-0.12 0.12,-0.15 -0.00,-0.30 -0.15,-0.17 -0.54,-0.22 -0.54,-0.07 0,0.05 0.09,0.06 0.23,0.03 l 0.23,-0.05 -0.19,0.14 c -0.22,0.16 -0.36,0.11 -0.36,-0.12 0,-0.10 0.05,-0.16 0.17,-0.16 0.09,0 0.17,-0.02 0.17,-0.06 0,-0.03 -0.38,-0.47 -0.86,-0.96 -1.09,-1.14 -1.65,-1.81 -2.29,-2.79 -0.28,-0.42 -0.65,-0.94 -0.83,-1.15 -0.17,-0.21 -0.46,-0.67 -0.64,-1.03 -0.29,-0.59 -1.13,-3.08 -1.36,-4.05 -0.05,-0.21 -0.20,-0.64 -0.34,-0.95 -0.25,-0.55 -1.27,-2.38 -1.38,-2.46 -0.06,-0.05 -0.35,-1.09 -0.56,-2.01 -0.34,-1.57 -0.66,-2.25 -1.29,-2.70 -0.16,-0.11 -0.40,-0.35 -0.53,-0.52 -0.38,-0.50 -1.31,-1.24 -1.76,-1.39 -0.48,-0.16 -1.76,-0.17 -2.18,-0.02 -0.15,0.05 -0.27,0.11 -0.26,0.14 0.00,0.02 -0.04,0.15 -0.12,0.30 -0.24,0.48 -0.34,1.22 -0.28,2.16 0.05,0.74 0.08,0.88 0.20,0.88 0.10,9.27e-4 0.11,0.01 0.03,0.06 -0.08,0.05 -0.08,0.17 -0.00,0.55 0.05,0.26 0.14,0.52 0.19,0.56 0.30,0.24 1.85,0.47 1.85,0.27 0,-0.04 0.08,-0.05 0.18,-0.02 0.12,0.03 0.16,0.01 0.12,-0.05 -0.03,-0.05 -0.12,-0.09 -0.20,-0.09 -0.30,0 -2.06,-0.98 -1.95,-1.09 0.02,-0.02 0.21,0.06 0.41,0.21 0.39,0.28 0.93,0.56 1.25,0.66 l 0.19,0.06 -0.13,-0.32 c -0.07,-0.17 -0.18,-0.36 -0.24,-0.40 -0.07,-0.05 -0.06,-0.06 0.02,-0.04 0.07,0.01 0.19,0.16 0.27,0.32 0.17,0.33 0.78,0.98 1.11,1.18 0.18,0.10 0.28,0.29 0.44,0.83 0.11,0.38 0.23,0.90 0.26,1.16 0.19,1.72 0.91,3.54 1.76,4.51 0.12,0.14 0.53,0.66 0.90,1.16 0.37,0.49 0.89,1.15 1.16,1.46 0.83,0.95 1.32,1.66 1.53,2.19 0.11,0.28 0.29,0.60 0.40,0.72 l 0.20,0.21 0.01,-0.25 c 0.00,-0.14 0.01,-0.30 0.00,-0.36 -0.00,-0.05 0.03,-0.10 0.07,-0.10 0.11,0 0.09,-0.29 -0.03,-0.42 -0.08,-0.09 -0.08,-0.10 0.01,-0.07 0.06,0.02 0.14,0.13 0.17,0.24 0.12,0.48 0.15,0.76 0.08,0.76 -0.04,0 -0.09,-0.10 -0.11,-0.23 -0.01,-0.12 -0.04,0.07 -0.04,0.46 -0.01,0.63 0.01,0.75 0.27,1.26 0.28,0.57 0.26,0.68 -0.03,0.20 l -0.16,-0.27 0.05,0.34 c 0.07,0.46 0.54,1.24 0.81,1.35 0.11,0.04 0.29,0.12 0.38,0.17 0.14,0.07 0.15,0.07 0.06,-0.03 -0.05,-0.07 -0.08,-0.15 -0.05,-0.18 0.10,-0.10 0.20,-0.05 0.20,0.09 0,0.25 0.18,0.38 0.30,0.21 0.12,-0.17 0.02,-0.48 -0.24,-0.77 -0.10,-0.10 -0.14,-0.19 -0.09,-0.19 0.13,0 0.42,0.34 0.62,0.74 0.10,0.19 0.24,0.37 0.30,0.40 0.06,0.02 0.12,0.14 0.12,0.26 0,0.11 0.03,0.21 0.08,0.21 0.19,0 0.15,-0.20 -0.15,-0.81 -0.18,-0.35 -0.30,-0.64 -0.26,-0.64 0.04,0 0.13,0.10 0.21,0.23 0.12,0.21 0.11,0.10 -0.02,-0.22 -0.02,-0.07 -0.01,-0.09 0.04,-0.06 0.05,0.03 0.13,0.19 0.19,0.35 0.06,0.20 0.13,0.27 0.22,0.24 0.06,-0.02 0.12,-0.00 0.12,0.05 0,0.05 -0.03,0.07 -0.08,0.04 -0.04,-0.02 -0.08,-0.01 -0.08,0.03 0,0.05 0.04,0.09 0.11,0.09 0.06,0 0.10,0.09 0.10,0.23 -0.00,0.18 0.03,0.23 0.16,0.20 0.09,-0.01 0.18,-0.04 0.19,-0.05 0.05,-0.05 -0.41,-0.90 -0.50,-0.90 -0.04,0 -0.08,-0.04 -0.08,-0.08 0,-0.19 0.31,0.09 0.47,0.42 0.08,0.19 0.17,0.33 0.19,0.31 0.01,-0.01 0,-0.10 -0.04,-0.19 -0.04,-0.08 -0.10,-0.26 -0.13,-0.39 -0.04,-0.18 -0.02,-0.23 0.07,-0.23 0.07,0 0.11,0.04 0.07,0.09 -0.08,0.14 0.22,0.78 0.36,0.72 0.06,-0.02 0.11,-0.00 0.11,0.03 0,0.04 -0.05,0.08 -0.12,0.08 -0.14,0 -0.15,0.01 -0.07,0.21 0.04,0.10 0.07,0.11 0.17,0.03 0.09,-0.07 0.14,-0.07 0.22,-0.00 0.07,0.07 0.06,0.09 -0.04,0.09 -0.08,0 -0.14,0.03 -0.14,0.08 0,0.12 0.23,0.10 0.27,-0.01 z m -3.06,-1.03 c -0.03,-0.08 -0.03,-0.21 0,-0.30 0.06,-0.14 0.06,-0.14 0.10,0 0.01,0.08 0.01,0.21 0,0.30 -0.03,0.14 -0.03,0.14 -0.10,0 z m 2.19,-0.95 c -0.00,-0.09 0.01,-0.14 0.04,-0.11 0.02,0.02 0.03,0.10 0.00,0.16 -0.02,0.06 -0.04,0.04 -0.05,-0.05 z m -3.87,-2.62 c 0,-0.04 -0.02,-0.14 -0.05,-0.23 -0.04,-0.13 -0.03,-0.13 0.08,0.01 0.15,0.19 0.17,0.30 0.05,0.30 -0.04,0 -0.08,-0.03 -0.08,-0.07 z m 1.52,-0.28 c -0.08,-0.10 -0.15,-0.22 -0.15,-0.27 0,-0.04 0.00,-0.06 0.02,-0.04 0.01,0.01 0.11,0.14 0.23,0.27 0.11,0.12 0.17,0.23 0.12,0.23 -0.04,-4.64e-4 -0.14,-0.08 -0.22,-0.18 z M 27.10,39.01 c -0.06,-0.13 -0.13,-0.26 -0.14,-0.30 -0.01,-0.03 6.62e-4,-0.06 0.04,-0.06 0.08,0 0.32,0.50 0.26,0.56 -0.02,0.02 -0.09,-0.06 -0.15,-0.19 z m 0.57,0.09 c -0.03,-0.03 -0.05,-0.09 -0.05,-0.14 0,-0.05 0.04,-0.04 0.10,0.01 0.05,0.05 0.08,0.12 0.05,0.14 -0.02,0.02 -0.07,0.01 -0.10,-0.01 z m -0.87,-0.63 c -0.02,-0.04 -0.01,-0.08 0.03,-0.08 0.05,0 0.09,0.03 0.09,0.08 0,0.04 -0.01,0.08 -0.03,0.08 -0.02,0 -0.06,-0.03 -0.09,-0.08 z m -0.38,-0.68 c 0,-0.04 0.01,-0.08 0.03,-0.08 0.02,0 0.06,0.03 0.09,0.08 0.02,0.04 0.01,0.08 -0.03,0.08 -0.04,0 -0.09,-0.03 -0.09,-0.08 z m -0.76,-1.28 c -0.05,-0.09 -0.05,-0.17 -0.01,-0.17 0.08,0 0.21,0.26 0.15,0.32 -0.02,0.02 -0.08,-0.04 -0.13,-0.14 z m -0.39,-0.60 c -0.02,-0.04 -0.01,-0.08 0.03,-0.08 0.04,0 0.10,0.03 0.13,0.08 0.02,0.04 0.01,0.08 -0.03,0.08 -0.04,0 -0.10,-0.03 -0.13,-0.08 z m -0.15,-0.22 c -0.03,-0.03 -0.05,-0.09 -0.05,-0.14 0,-0.05 0.04,-0.04 0.10,0.01 0.05,0.05 0.08,0.12 0.05,0.14 -0.02,0.02 -0.07,0.01 -0.10,-0.01 z m -0.42,-0.77 c -0.21,-0.42 -0.13,-0.44 0.10,-0.02 0.10,0.18 0.16,0.34 0.12,0.34 -0.03,-9.27e-4 -0.13,-0.14 -0.22,-0.31 z m -1.27,-1.00 c -0.16,-0.38 -0.28,-0.73 -0.26,-0.77 0.02,-0.03 0.17,0.26 0.34,0.67 0.16,0.40 0.28,0.75 0.26,0.77 -0.01,0.01 -0.17,-0.28 -0.34,-0.67 z m 0.66,-0.27 c -0.17,-0.26 -0.17,-0.35 -0.01,-0.22 0.10,0.08 0.25,0.43 0.18,0.43 -0.01,0 -0.08,-0.09 -0.16,-0.21 z M 26.13,33.39 c -0.07,-0.19 -0.12,-0.37 -0.11,-0.39 0.01,-0.01 0.09,0.12 0.17,0.32 0.07,0.19 0.12,0.37 0.11,0.39 -0.01,0.01 -0.09,-0.12 -0.17,-0.32 z m -0.40,-0.02 c 0,-0.07 0.03,-0.12 0.08,-0.12 0.04,0 0.06,0.05 0.03,0.12 -0.02,0.07 -0.06,0.12 -0.08,0.12 -0.01,0 -0.03,-0.05 -0.03,-0.12 z m 0.04,-0.78 c -0.15,-0.36 -0.26,-0.78 -0.19,-0.72 0.08,0.07 0.41,0.96 0.37,1.00 -0.02,0.02 -0.10,-0.10 -0.17,-0.28 z M 22.82,32.36 c -0.13,-0.43 -0.50,-1.95 -0.57,-2.37 -0.04,-0.26 -0.03,-0.35 0.03,-0.31 0.05,0.03 0.09,0.16 0.09,0.29 6.61e-4,0.12 0.13,0.77 0.29,1.43 0.16,0.65 0.28,1.21 0.26,1.23 -0.01,0.01 -0.07,-0.09 -0.12,-0.25 z m 2.10,-1.58 c -0.21,-0.41 -0.37,-0.77 -0.35,-0.79 0.04,-0.04 0.01,-0.11 0.45,0.74 0.20,0.39 0.35,0.73 0.32,0.75 -0.02,0.02 -0.21,-0.29 -0.43,-0.71 z m -0.80,-1.64 C 23.68,28.21 23.55,27.69 23.60,27.13 c 0.02,-0.23 0.00,-0.42 -0.03,-0.42 -0.04,0 -0.07,-0.09 -0.07,-0.20 0,-0.36 -0.15,-0.64 -0.46,-0.82 -0.16,-0.09 -0.31,-0.22 -0.34,-0.29 -0.05,-0.14 0.61,0.32 0.76,0.54 0.15,0.22 0.23,0.67 0.24,1.34 0.00,0.36 0.04,0.60 0.10,0.62 0.05,0.01 0.07,0.11 0.05,0.20 -0.02,0.10 0.10,0.48 0.32,0.94 0.20,0.42 0.34,0.78 0.32,0.80 -0.02,0.02 -0.19,-0.29 -0.39,-0.71 z m -1.91,0.06 c 0,-0.04 0.01,-0.08 0.03,-0.08 0.02,0 0.06,0.03 0.09,0.08 0.02,0.04 0.01,0.08 -0.03,0.08 -0.04,0 -0.09,-0.03 -0.09,-0.08 z m -0.33,-0.57 c -0.04,-0.17 -0.13,-0.51 -0.18,-0.75 -0.05,-0.23 -0.13,-0.51 -0.17,-0.62 -0.04,-0.11 -0.04,-0.19 0.00,-0.19 0.04,0 0.11,0.14 0.16,0.32 0.04,0.17 0.15,0.60 0.24,0.94 0.09,0.34 0.13,0.62 0.09,0.62 -0.03,0 -0.10,-0.14 -0.15,-0.32 z m 0.56,0.03 c -0.03,-0.08 -0.04,-0.18 -0.01,-0.20 0.07,-0.07 0.14,0.04 0.11,0.21 -0.02,0.14 -0.03,0.14 -0.09,-0.00 z m -0.05,-0.68 c -0.00,-0.09 0.01,-0.14 0.04,-0.11 0.02,0.02 0.03,0.10 0.00,0.16 -0.02,0.06 -0.04,0.04 -0.05,-0.05 z m 0.27,-0.29 c -0.20,-0.17 -0.36,-0.36 -0.36,-0.43 6.61e-4,-0.06 -0.08,-0.25 -0.17,-0.41 -0.15,-0.25 -0.17,-0.37 -0.12,-0.84 0.03,-0.35 0.02,-0.61 -0.03,-0.74 -0.09,-0.19 -0.08,-0.18 0.08,0.01 0.11,0.13 0.16,0.28 0.13,0.42 -0.02,0.11 -0.06,0.33 -0.09,0.49 -0.04,0.20 -0.00,0.35 0.12,0.56 0.09,0.16 0.18,0.34 0.18,0.40 0,0.06 0.16,0.25 0.36,0.43 0.20,0.17 0.34,0.33 0.32,0.36 -0.02,0.02 -0.20,-0.09 -0.40,-0.27 z m -3.37,0.07 c -0.10,-0.06 -0.08,-0.08 0.08,-0.08 0.11,0 0.27,0.03 0.34,0.08 0.10,0.06 0.08,0.08 -0.08,0.08 -0.11,0 -0.27,-0.03 -0.34,-0.08 z m 1.63,-0.85 c -0.07,-0.04 -0.33,-0.12 -0.58,-0.17 -0.36,-0.07 -0.55,-0.18 -0.96,-0.57 -0.28,-0.26 -0.49,-0.49 -0.47,-0.51 0.02,-0.02 0.26,0.16 0.54,0.40 0.41,0.37 0.60,0.47 1.14,0.62 0.35,0.09 0.72,0.17 0.83,0.17 0.10,0.00 0.19,0.03 0.19,0.07 0,0.09 -0.53,0.08 -0.68,-0.01 z m -0.18,17.21 c 0.49,-0.09 0.68,-0.16 0.62,-0.23 -0.06,-0.06 -0.25,-0.06 -0.61,-0.00 -0.28,0.04 -0.54,0.05 -0.56,0.01 -0.02,-0.03 0.08,-0.07 0.24,-0.07 l 0.28,-0.00 -0.34,-0.10 -0.34,-0.10 0.45,-0.05 c 0.47,-0.05 0.73,-0.01 0.65,0.11 -0.02,0.04 -0.00,0.07 0.04,0.07 0.06,0 0.07,-0.07 0.03,-0.19 -0.25,-0.80 -0.25,-1.10 0.00,-1.42 0.11,-0.14 0.21,-0.34 0.21,-0.45 0,-0.11 0.07,-0.34 0.16,-0.51 0.09,-0.17 0.14,-0.32 0.12,-0.35 -0.09,-0.09 0.26,-1.30 0.48,-1.63 0.13,-0.20 0.24,-0.40 0.24,-0.44 6.61e-4,-0.04 0.08,-0.22 0.19,-0.38 0.10,-0.16 0.25,-0.43 0.33,-0.60 l 0.14,-0.30 -0.22,0.02 C 22.50,37.48 22.18,37.18 21.78,36.39 21.42,35.69 21.41,35.63 21.41,34.90 l 0.00,-0.75 -0.36,-0.48 c -0.50,-0.65 -0.53,-0.83 -0.19,-0.95 0.22,-0.08 0.28,-0.07 0.35,0.05 0.08,0.14 0.24,0.31 0.65,0.69 0.46,0.42 0.67,0.69 0.80,1.02 0.08,0.21 0.21,0.37 0.31,0.40 0.20,0.05 0.14,0.20 -0.11,0.30 -0.16,0.06 -0.16,0.06 -0.01,0.25 l 0.15,0.19 0.31,-0.25 c 0.30,-0.24 0.31,-0.25 0.15,-0.40 -0.75,-0.68 -1.67,-2.88 -1.90,-4.51 -0.04,-0.35 -0.16,-0.92 -0.26,-1.27 -0.14,-0.50 -0.24,-0.67 -0.48,-0.88 -0.34,-0.28 -0.52,-0.32 -0.52,-0.10 0.00,0.12 0.01,0.12 0.07,0.02 0.05,-0.09 0.10,-0.03 0.16,0.21 0.14,0.53 0.17,0.72 0.23,1.36 0.02,0.33 0.08,0.66 0.13,0.74 0.04,0.08 0.07,0.35 0.06,0.60 l -0.01,0.45 -0.05,-0.44 c -0.06,-0.52 -0.17,-0.69 -0.18,-0.27 -0.00,0.26 -0.01,0.25 -0.12,-0.14 -0.06,-0.24 -0.17,-0.57 -0.25,-0.73 -0.12,-0.26 -0.12,-0.15 0.00,0.28 0.03,0.11 0.01,0.16 -0.03,0.12 -0.05,-0.03 -0.11,-0.19 -0.14,-0.36 -0.03,-0.20 -0.08,-0.27 -0.14,-0.21 -0.06,0.06 -0.05,0.13 0.03,0.23 0.09,0.11 0.09,0.15 0.01,0.18 -0.05,0.01 -0.10,0.08 -0.10,0.14 0,0.15 -0.41,0.49 -0.45,0.36 -0.02,-0.07 -0.07,-0.07 -0.17,0.01 -0.07,0.06 -0.18,0.09 -0.25,0.07 -0.06,-0.02 -0.01,-0.07 0.12,-0.13 0.12,-0.05 0.23,-0.11 0.23,-0.13 0,-0.12 -0.27,-1.04 -0.50,-1.71 -0.14,-0.42 -0.25,-0.78 -0.23,-0.80 0.01,-0.01 0.12,0.20 0.22,0.48 0.10,0.28 0.20,0.50 0.22,0.48 0.06,-0.06 -0.35,-1.04 -0.44,-1.04 -0.04,-0.00 -0.19,-0.05 -0.32,-0.10 -0.30,-0.12 -0.32,-0.12 -0.31,0.00 0.03,0.29 -0.03,0.42 -0.34,0.62 -0.28,0.19 -0.34,0.27 -0.38,0.62 -0.09,0.70 -0.08,0.89 0.15,1.90 0.58,2.50 0.66,5.88 0.17,7.76 -0.20,0.78 -0.57,1.52 -0.93,1.85 -0.17,0.16 -0.39,0.46 -0.48,0.67 l -0.16,0.37 0.34,0.44 c 0.47,0.61 1.68,1.39 2.74,1.77 0.80,0.29 0.68,0.28 1.53,0.11 z m 0.09,-2.13 c -0.02,-0.12 -0.11,-0.17 -0.36,-0.17 -0.32,-0.01 -0.67,-0.14 -0.93,-0.36 -0.07,-0.06 -0.18,-0.09 -0.22,-0.06 -0.04,0.02 -0.17,-0.17 -0.27,-0.44 -0.10,-0.27 -0.30,-0.70 -0.43,-0.96 -0.13,-0.25 -0.23,-0.58 -0.23,-0.73 l 0.01,-0.26 0.07,0.25 c 0.05,0.21 0.06,0.20 0.02,-0.08 -0.02,-0.18 -0.05,-0.51 -0.07,-0.73 -0.01,-0.21 -0.04,-0.44 -0.07,-0.51 -0.09,-0.26 -0.16,-1.20 -0.19,-2.44 -0.01,-0.70 -0.04,-1.51 -0.05,-1.78 -0.01,-0.27 6.61e-4,-0.51 0.03,-0.53 0.13,-0.08 -0.07,-1.20 -0.49,-2.64 -0.02,-0.08 -0.01,-0.13 0.03,-0.11 0.04,0.02 0.15,0.33 0.24,0.69 0.08,0.35 0.19,0.62 0.23,0.59 0.04,-0.02 0.05,0.02 0.02,0.13 -0.03,0.10 -0.02,0.18 0.02,0.18 0.04,0 0.08,0.12 0.08,0.27 0.00,0.26 0.08,0.58 0.23,0.95 0.04,0.11 0.03,0.14 -0.03,0.10 -0.05,-0.03 -0.10,-0.02 -0.10,0.02 0,0.04 0.03,0.10 0.08,0.13 0.04,0.02 0.08,0.09 0.08,0.14 0,0.05 -0.04,0.05 -0.12,-0.01 -0.08,-0.06 -0.12,-0.07 -0.12,-0.01 0,0.05 0.03,0.11 0.08,0.14 0.04,0.02 0.08,0.09 0.08,0.13 0,0.04 -0.04,0.05 -0.09,0.02 -0.11,-0.07 -0.04,0.48 0.18,1.49 0.09,0.39 0.14,0.81 0.11,0.92 -0.03,0.13 -0.00,0.26 0.08,0.36 0.08,0.09 0.18,0.52 0.27,1.17 0.07,0.56 0.17,1.18 0.22,1.37 0.16,0.62 0.70,2.23 0.79,2.34 0.05,0.06 0.23,0.10 0.45,0.09 0.43,-0.02 0.48,0.01 0.44,0.28 -0.02,0.17 -0.03,0.18 -0.07,0.03 z m -1.39,-1.69 c -0.16,-0.48 -0.31,-0.94 -0.33,-1.01 -0.03,-0.12 -0.01,0.08 0.07,0.64 0.03,0.21 0.02,0.23 -0.04,0.08 -0.08,-0.17 -0.08,-0.17 -0.06,0 0.01,0.09 0.06,0.16 0.12,0.15 0.12,-0.02 0.31,0.54 0.23,0.67 -0.04,0.06 -0.02,0.07 0.04,0.03 0.06,-0.04 0.09,-0.02 0.08,0.05 -0.02,0.15 0.11,0.47 0.15,0.35 0.01,-0.05 -0.10,-0.49 -0.26,-0.98 z m -0.27,0.34 c -0.11,-0.25 -0.19,-0.36 -0.16,-0.24 0.08,0.34 0.29,0.80 0.33,0.75 0.02,-0.02 -0.05,-0.25 -0.17,-0.50 z M 18.91,39.88 c -0.02,-0.02 -0.04,0.02 -0.04,0.11 0.00,0.10 0.02,0.12 0.05,0.05 0.02,-0.06 0.02,-0.13 -0.00,-0.16 z m 0.08,-0.34 c -0.02,-0.02 -0.04,0.02 -0.04,0.11 0.00,0.10 0.02,0.12 0.05,0.05 0.02,-0.06 0.02,-0.13 -0.00,-0.16 z m -0.09,-0.51 c -0.03,-0.22 -0.10,-0.45 -0.16,-0.52 -0.07,-0.08 -0.06,0.03 0.02,0.40 0.07,0.28 0.14,0.52 0.16,0.52 0.01,0 0.00,-0.18 -0.02,-0.40 z m 0.09,-0.42 c -0.07,-0.46 -0.11,-0.55 -0.22,-0.49 -0.04,0.02 -0.02,0.15 0.04,0.29 0.07,0.13 0.12,0.32 0.12,0.42 0,0.09 0.02,0.17 0.05,0.17 0.02,0 0.02,-0.18 -0.00,-0.40 z m -0.20,-1.07 c -0.11,-0.11 -0.12,0.09 -0.02,0.34 0.05,0.13 0.06,0.13 0.09,-0.04 0.01,-0.11 -0.01,-0.24 -0.06,-0.29 z m -0.21,0.13 c -0.02,-0.02 -0.04,0.02 -0.04,0.11 0.00,0.10 0.02,0.12 0.05,0.05 0.02,-0.06 0.02,-0.13 -0.00,-0.16 z m 0.16,-0.67 c -0.03,-0.17 -0.08,-0.29 -0.10,-0.26 -0.02,0.02 -0.02,0.18 0.01,0.36 0.03,0.17 0.08,0.29 0.10,0.26 0.02,-0.02 0.02,-0.18 -0.01,-0.36 z m -0.50,-0.83 c -0.02,-0.05 -0.04,0.01 -0.03,0.15 0.00,0.14 0.02,0.18 0.04,0.10 0.02,-0.08 0.02,-0.19 -0.00,-0.25 z m 0.17,-0.04 c -0.02,-0.08 -0.03,-0.01 -0.03,0.15 0,0.16 0.01,0.23 0.03,0.15 0.02,-0.08 0.02,-0.21 0,-0.30 z m -0.08,-0.47 c -0.02,-0.05 -0.04,-0.01 -0.04,0.10 0,0.11 0.01,0.16 0.04,0.10 0.02,-0.05 0.02,-0.15 0,-0.21 z m 2.45,5.68 c -0.08,-0.14 -0.25,-0.40 -0.38,-0.57 -0.27,-0.35 -0.68,-1.19 -0.63,-1.32 0.01,-0.04 0.13,0.15 0.27,0.46 0.13,0.30 0.32,0.64 0.43,0.76 0.21,0.24 0.42,0.57 0.50,0.79 0.08,0.24 -0.02,0.17 -0.17,-0.11 z m -4.40,0.00 c 0,-0.20 1.38,-0.66 1.76,-0.58 0.09,0.01 -0.08,0.08 -0.39,0.13 -0.30,0.05 -0.74,0.19 -0.96,0.31 -0.22,0.11 -0.40,0.17 -0.40,0.13 z m 4.90,-0.90 c -0.11,-0.21 -0.18,-0.41 -0.15,-0.43 0.06,-0.06 0.42,0.63 0.38,0.74 -0.01,0.04 -0.11,-0.09 -0.23,-0.30 z M 20.93,38.68 c -0.01,-1.70 0.06,-3.04 0.17,-3.04 0.04,0 0.05,0.15 0.01,0.36 -0.03,0.20 -0.08,1.21 -0.12,2.25 l -0.05,1.89 -0.01,-1.46 z m -1.22,0.22 c -0.05,-0.30 -0.03,-0.41 0.06,-0.32 0.02,0.02 0.03,0.17 0.02,0.33 l -0.02,0.28 -0.05,-0.30 z m -0.07,-0.81 c 0,-0.11 0.03,-0.21 0.08,-0.21 0.04,0 0.08,0.09 0.08,0.21 0,0.11 -0.03,0.21 -0.08,0.21 -0.04,0 -0.08,-0.09 -0.08,-0.21 z m -0.03,-1.05 c -0.03,-0.32 -0.10,-0.80 -0.17,-1.07 -0.06,-0.27 -0.08,-0.49 -0.05,-0.49 0.06,0 0.30,1.08 0.38,1.74 0.02,0.22 0.01,0.40 -0.02,0.40 -0.04,0 -0.09,-0.26 -0.13,-0.58 z m 0.12,-2.82 c 0,-0.07 0.27,-0.28 0.37,-0.28 0.03,-0.00 0.04,0.03 0.01,0.08 -0.06,0.11 -0.38,0.28 -0.38,0.20 z m 0.04,-0.46 c 0.13,-0.14 0.26,-0.23 0.28,-0.21 0.05,0.05 -0.33,0.47 -0.44,0.47 -0.04,0 0.02,-0.11 0.15,-0.25 z m -0.21,-0.41 c 0,-0.04 0.11,-0.16 0.25,-0.26 0.27,-0.19 0.35,-0.11 0.10,0.10 -0.23,0.19 -0.36,0.25 -0.36,0.16 z m 0.08,-0.58 c -4.57e-4,-0.12 0.31,-0.51 0.37,-0.46 0.02,0.02 -0.05,0.15 -0.16,0.30 -0.11,0.14 -0.20,0.21 -0.20,0.15 z M 19.45,32.24 c 0,-0.05 0.09,-0.18 0.21,-0.29 0.11,-0.11 0.21,-0.17 0.21,-0.14 0,0.03 -0.09,0.16 -0.21,0.29 -0.11,0.12 -0.21,0.19 -0.21,0.14 z m 0.77,-0.42 c 0.28,-0.16 0.42,-0.16 0.20,-0.00 -0.09,0.06 -0.22,0.12 -0.29,0.12 -0.07,-4.6e-4 -0.03,-0.05 0.08,-0.12 z m -0.85,-0.19 c 0,-0.04 0.11,-0.11 0.25,-0.17 0.14,-0.05 0.25,-0.15 0.25,-0.23 0,-0.07 0.03,-0.13 0.08,-0.13 0.24,0 -0.10,0.46 -0.40,0.55 -0.10,0.03 -0.19,0.02 -0.19,-0.01 z m 0.91,-0.58 c 0.07,-0.11 0.15,-0.20 0.18,-0.17 0.05,0.05 -0.14,0.39 -0.23,0.39 -0.04,0 -0.02,-0.09 0.05,-0.21 z m -1.16,-0.93 c -0.00,-0.09 0.01,-0.14 0.04,-0.11 0.02,0.02 0.03,0.10 0.00,0.16 -0.02,0.06 -0.04,0.04 -0.05,-0.05 z M 18.85,29.36 c -0.11,-0.30 -0.22,-0.58 -0.24,-0.62 -0.01,-0.04 0.00,-0.05 0.05,-0.01 0.11,0.07 0.46,0.98 0.42,1.11 -0.01,0.04 -0.12,-0.15 -0.23,-0.46 z m 2.23,-0.03 c 0,-0.07 0.01,-0.12 0.03,-0.12 0.01,0 0.05,0.05 0.08,0.12 0.02,0.07 0.01,0.12 -0.03,0.12 -0.04,0 -0.08,-0.05 -0.08,-0.12 z m 5.49,14.35 c 1.01,-0.07 1.87,-0.16 1.91,-0.19 0.03,-0.03 -0.03,-0.16 -0.15,-0.27 -0.15,-0.15 -0.20,-0.16 -0.16,-0.05 0.03,0.08 0.01,0.14 -0.03,0.14 -0.05,0 -0.09,-0.04 -0.09,-0.09 0,-0.05 -0.05,-0.07 -0.12,-0.04 -0.06,0.02 -0.13,0.00 -0.15,-0.05 -0.01,-0.05 -0.21,-0.09 -0.49,-0.09 -0.31,0.00 -0.37,-0.00 -0.16,-0.03 0.25,-0.03 0.27,-0.05 0.12,-0.11 -0.11,-0.04 -0.01,-0.07 0.32,-0.07 0.43,-0.00 0.49,-0.02 0.45,-0.15 -0.02,-0.08 -0.07,-0.25 -0.10,-0.38 -0.03,-0.13 -0.11,-0.23 -0.19,-0.23 -0.07,0 -0.27,-0.08 -0.44,-0.18 -0.16,-0.10 -0.51,-0.25 -0.76,-0.34 -0.25,-0.08 -0.59,-0.23 -0.75,-0.33 -0.39,-0.23 -0.74,-0.22 -0.90,0.03 -0.07,0.11 -0.27,0.26 -0.44,0.35 -0.34,0.16 -0.81,0.61 -0.81,0.78 0,0.06 -0.09,0.21 -0.20,0.35 -0.11,0.13 -0.22,0.32 -0.26,0.42 -0.03,0.10 -0.13,0.25 -0.24,0.34 -0.17,0.15 -0.18,0.15 -0.12,0.00 0.03,-0.08 0.05,-0.22 0.05,-0.30 6.61e-4,-0.11 0.01,-0.11 0.07,-0.02 0.05,0.08 0.10,0.03 0.18,-0.17 0.05,-0.15 0.10,-0.31 0.09,-0.35 -0.00,-0.03 0.02,-0.04 0.06,-0.02 0.13,0.08 0.29,-0.45 0.24,-0.81 -0.05,-0.42 -0.08,-0.45 -0.29,-0.34 -0.10,0.05 -0.20,0.05 -0.28,-6.61e-4 -0.10,-0.07 -0.09,-0.07 0.02,-0.04 0.08,0.02 0.17,0.01 0.19,-0.03 0.10,-0.17 0.38,-0.08 0.43,0.15 0.08,0.36 0.12,0.38 0.29,0.22 0.08,-0.08 0.16,-0.25 0.16,-0.39 0,-0.13 0.04,-0.24 0.09,-0.24 0.05,0 0.07,0.10 0.03,0.27 l -0.05,0.27 0.12,-0.21 c 0.07,-0.11 0.13,-0.16 0.13,-0.09 0.00,0.08 0.06,0.06 0.21,-0.07 0.24,-0.22 0.26,-0.45 0.08,-0.77 -0.06,-0.11 -0.12,-0.31 -0.12,-0.44 -0.00,-0.18 -0.16,-0.37 -0.83,-0.94 -0.45,-0.39 -0.85,-0.71 -0.87,-0.71 -0.02,0 -0.09,0.12 -0.15,0.28 l -0.11,0.28 0.23,-0.04 c 0.23,-0.04 0.23,-0.04 -0.03,0.10 -0.49,0.28 -0.86,0.91 -0.39,0.66 0.12,-0.06 0.29,-0.12 0.36,-0.12 0.07,0 -0.04,0.09 -0.25,0.20 -0.37,0.19 -0.58,0.50 -0.59,0.84 -0.00,0.21 0.23,0.18 0.30,-0.03 0.05,-0.18 0.39,-0.51 0.45,-0.45 0.01,0.01 -0.05,0.11 -0.17,0.20 l -0.20,0.17 0.22,0.00 c 0.45,0.00 0.79,0.60 0.38,0.67 -0.16,0.02 -0.16,0.02 6.61e-4,-0.10 0.17,-0.13 0.17,-0.13 -0.01,-0.31 -0.23,-0.23 -0.58,-0.17 -0.66,0.11 -0.04,0.15 -0.06,0.16 -0.13,0.07 -0.06,-0.09 -0.11,-0.05 -0.25,0.17 -0.09,0.16 -0.17,0.33 -0.17,0.39 0,0.05 -0.02,0.17 -0.05,0.25 -0.04,0.13 -0.03,0.13 0.07,-0.01 0.20,-0.26 0.57,-0.09 0.78,0.36 0.09,0.20 0.21,0.36 0.27,0.36 0.06,0 0.11,0.04 0.11,0.09 0,0.04 -0.02,0.07 -0.06,0.05 -0.05,-0.03 -0.07,0.67 -0.03,1.03 0.02,0.21 1.41,0.24 3.87,0.06 z M 25.77,42.77 c -0.08,-0.13 -0.03,-0.15 0.49,-0.19 0.26,-0.01 0.53,-0.06 0.59,-0.10 0.06,-0.03 0.32,-0.08 0.58,-0.10 0.41,-0.02 0.45,-0.01 0.36,0.09 -0.08,0.10 -0.07,0.13 0.04,0.16 0.08,0.02 -0.03,0.04 -0.27,0.04 -0.36,-4.64e-4 -0.39,-0.01 -0.17,-0.06 0.22,-0.05 0.21,-0.06 -0.15,-0.07 -0.25,-0.00 -0.39,0.02 -0.36,0.07 0.03,0.05 -0.15,0.09 -0.48,0.10 l -0.54,0.01 0.60,0.05 0.60,0.05 -0.61,0.01 c -0.36,0.00 -0.64,-0.02 -0.67,-0.07 z m 0.47,-0.85 c 0,-0.04 0.03,-0.08 0.08,-0.08 0.04,0 0.08,0.03 0.08,0.08 0,0.04 -0.03,0.08 -0.08,0.08 -0.04,0 -0.08,-0.03 -0.08,-0.08 z M 24.36,41.00 c 6.63e-4,-0.03 0.03,-0.12 0.08,-0.19 0.07,-0.11 0.08,-0.10 0.08,0.01 4.62e-4,0.07 -0.03,0.16 -0.08,0.19 -0.04,0.02 -0.08,0.02 -0.08,-0.01 z m -0.34,-0.27 c 0,-0.05 0.03,-0.09 0.08,-0.09 0.04,0 0.08,0.01 0.08,0.03 0,0.02 -0.03,0.06 -0.08,0.09 -0.04,0.02 -0.08,0.01 -0.08,-0.03 z m -0.47,-0.90 c -0.09,-0.06 -0.12,-0.12 -0.07,-0.12 0.12,-0.00 0.34,0.15 0.29,0.20 -0.02,0.02 -0.12,-0.00 -0.21,-0.07 z M 23.15,39.59 c 0,-0.04 0.01,-0.08 0.03,-0.08 0.02,0 0.06,0.03 0.09,0.08 0.02,0.04 0.01,0.08 -0.03,0.08 -0.04,0 -0.09,-0.03 -0.09,-0.08 z m 6.05,4.12 c -0.02,-0.04 -0.07,-0.08 -0.09,-0.08 -0.02,0 -0.03,0.03 -0.03,0.08 0,0.04 0.04,0.08 0.09,0.08 0.04,0 0.06,-0.03 0.03,-0.08 z m 0.73,-0.00 c 0,-0.05 -0.03,-0.06 -0.08,-0.03 -0.04,0.02 -0.08,0.07 -0.08,0.09 0,0.02 0.03,0.03 0.08,0.03 0.04,0 0.08,-0.04 0.08,-0.09 z m 0.63,-0.21 c -0.02,-0.07 -0.06,-0.11 -0.09,-0.09 -0.02,0.02 -0.01,0.08 0.01,0.13 0.08,0.13 0.13,0.11 0.07,-0.04 z M 14.92,42.25 c 0.56,-0.40 1.04,-1.53 1.28,-3.03 0.06,-0.39 0.10,-1.45 0.10,-2.49 -4.57e-4,-4.36 -1.01,-8.52 -2.42,-9.96 -1.55,-1.58 -2.87,-0.24 -3.28,3.34 -0.11,1.04 -0.12,3.42 -0.01,4.40 0.24,2.10 0.81,4.29 1.47,5.66 0.51,1.06 1.44,2.00 2.17,2.17 0.40,0.09 0.39,0.09 0.67,-0.10 z m -1.07,-1.44 c -0.30,-0.09 -0.80,-0.52 -1.16,-1.02 -2.07,-2.83 -2.34,-10.78 -0.40,-11.96 0.83,-0.51 1.92,0.26 2.52,1.81 0.65,1.68 1.08,4.45 1.07,6.83 -0.01,2.65 -0.37,3.96 -1.19,4.30 -0.31,0.13 -0.47,0.13 -0.82,0.03 z m 0.96,-0.27 c 0.89,-0.61 1.15,-3.95 0.60,-7.67 -0.27,-1.83 -0.60,-2.96 -1.17,-3.91 -0.93,-1.56 -2.20,-1.38 -2.74,0.40 -0.35,1.18 -0.49,3.78 -0.28,5.37 0.12,0.97 0.25,1.16 0.23,0.33 -0.01,-0.35 -0.05,-0.67 -0.10,-0.70 -0.13,-0.08 -0.11,-3.10 0.01,-3.83 0.14,-0.79 0.23,-0.74 0.10,0.05 -0.10,0.70 -0.12,3.59 -0.02,3.65 0.09,0.05 0.09,9.27e-4 0.06,-1.79 -0.01,-0.61 -0.00,-0.92 0.00,-0.68 0.08,1.25 0.14,1.69 0.20,1.58 0.03,-0.06 0.03,-0.39 -0.00,-0.72 -0.03,-0.33 -0.05,-0.89 -0.03,-1.24 0.02,-0.45 0.01,-0.55 -0.03,-0.34 l -0.07,0.30 -0.00,-0.30 c -0.01,-0.37 0.20,-1.40 0.33,-1.61 0.08,-0.13 0.09,-0.13 0.05,-0.00 -0.02,0.07 -0.06,0.29 -0.09,0.47 -0.04,0.28 -0.02,0.27 0.11,-0.13 0.22,-0.62 0.42,-0.87 0.87,-1.10 0.28,-0.14 0.46,-0.18 0.68,-0.14 0.46,0.08 0.53,0.22 0.07,0.15 -0.80,-0.10 -1.32,0.37 -1.58,1.47 -0.16,0.69 -0.28,2.01 -0.18,2.01 0.03,0 0.06,-0.05 0.06,-0.11 0,-0.06 0.06,-0.14 0.13,-0.17 0.18,-0.07 0.20,-0.06 0.20,0.03 0,0.04 -0.06,0.08 -0.13,0.08 -0.09,0 -0.12,0.04 -0.08,0.13 0.02,0.07 0.05,0.18 0.06,0.23 0.00,0.05 0.03,0.00 0.06,-0.11 0.08,-0.30 0.28,-0.26 0.46,0.10 0.12,0.25 0.13,0.37 0.06,0.63 -0.05,0.19 -0.05,0.47 -0.01,0.75 0.04,0.24 0.10,0.92 0.13,1.52 0.05,0.97 0.04,1.09 -0.09,1.23 -0.11,0.11 -0.16,0.32 -0.18,0.77 -0.02,0.53 -0.00,0.68 0.19,1.06 0.26,0.52 0.75,1.08 1.08,1.26 0.33,0.17 0.75,0.15 1.12,-0.04 0.17,-0.09 0.32,-0.13 0.32,-0.09 0,0.04 -0.17,0.16 -0.38,0.26 -0.46,0.22 -0.91,0.18 -1.33,-0.13 -0.30,-0.22 -0.81,-0.89 -0.90,-1.19 -0.05,-0.17 -0.05,-0.17 -0.12,-0.00 -0.13,0.35 -0.08,0.78 0.14,1.12 0.75,1.13 1.52,1.49 2.18,1.04 z m -0.32,-3.99 c -0.66,-0.22 -0.78,-0.37 -0.67,-0.83 0.05,-0.21 0.33,-0.30 0.43,-0.12 0.02,0.04 0.16,0.08 0.30,0.08 0.13,0 0.38,0.08 0.55,0.18 0.26,0.15 0.30,0.22 0.30,0.50 0,0.21 -0.04,0.34 -0.13,0.37 -0.07,0.02 -0.14,0.04 -0.15,0.04 -0.00,-0.00 -0.29,-0.10 -0.63,-0.22 z m 0.77,-0.10 c 0.02,-0.08 0.01,-0.20 -0.01,-0.24 -0.07,-0.11 -0.63,-0.40 -0.73,-0.37 -0.04,0.01 -0.18,-0.01 -0.32,-0.06 -0.23,-0.08 -0.24,-0.07 -0.24,0.19 0,0.27 0.01,0.28 0.58,0.45 0.31,0.09 0.60,0.18 0.63,0.18 0.02,0.00 0.07,-0.06 0.09,-0.15 z m -1.29,-3.64 c -0.35,-0.35 -0.48,-0.75 -0.28,-0.87 0.08,-0.05 1.18,0.27 1.35,0.40 0.05,0.04 0.10,0.19 0.10,0.32 0,0.20 -0.04,0.25 -0.27,0.32 -0.15,0.04 -0.33,0.10 -0.41,0.13 -0.08,0.03 -0.25,-0.07 -0.49,-0.31 z m 0.54,0.11 c 0.04,-0.04 0.17,-0.09 0.29,-0.10 0.14,-0.01 0.21,-0.08 0.21,-0.19 0,-0.13 -0.13,-0.20 -0.62,-0.35 l -0.62,-0.19 v 0.17 c 0,0.09 0.12,0.30 0.27,0.46 0.29,0.30 0.33,0.32 0.46,0.20 z M 11.64,29.42 c -0.00,-0.09 0.01,-0.14 0.04,-0.11 0.02,0.02 0.03,0.10 0.00,0.16 -0.02,0.06 -0.04,0.04 -0.05,-0.05 z m 0.63,6.43 c -0.04,-1.78 -0.09,-2.52 -0.15,-2.50 -0.15,0.05 -0.21,4.47 -0.06,4.94 0.23,0.73 0.28,0.18 0.21,-2.44 z m -0.50,1.01 c -0.10,-0.10 -0.14,0.06 -0.08,0.33 l 0.07,0.28 0.02,-0.28 c 0.01,-0.15 0.00,-0.30 -0.01,-0.33 z m 0.04,-1.49 c -0.00,-0.88 -0.08,-1.31 -0.10,-0.53 -0.00,0.32 -0.02,0.37 -0.07,0.20 -0.07,-0.25 -0.18,0.89 -0.11,1.24 0.03,0.18 0.05,0.19 0.16,0.08 0.09,-0.09 0.12,-0.34 0.12,-0.99 z m 0.71,0.74 c -0.12,-0.19 -0.26,-0.31 -0.18,-0.15 0.01,0.03 0.05,0.13 0.08,0.21 0.02,0.08 0.09,0.15 0.14,0.15 0.05,0 0.02,-0.09 -0.05,-0.21 z m 0.17,-0.32 c -0.01,-0.15 -0.05,-0.58 -0.08,-0.96 -0.09,-1.13 -0.12,-1.34 -0.20,-1.49 -0.05,-0.09 -0.07,0.06 -0.04,0.50 0.13,2.00 0.16,2.23 0.30,2.23 0.03,0 0.05,-0.12 0.03,-0.27 z m -0.83,-1.66 c 0.02,-0.12 0.00,-0.13 -0.05,-0.04 -0.06,0.09 -0.09,0.07 -0.12,-0.08 -0.03,-0.16 -0.04,-0.14 -0.05,0.07 -0.01,0.31 0.18,0.35 0.22,0.05 z m -0.01,-0.48 c -0.02,-0.05 -0.04,-0.01 -0.04,0.10 0,0.11 0.01,0.16 0.04,0.10 0.02,-0.05 0.02,-0.15 0,-0.21 z m 0.27,-0.58 c -0.08,-0.05 -0.07,-0.10 0.05,-0.25 0.12,-0.13 0.13,-0.17 0.03,-0.15 -0.06,0.01 -0.15,0.09 -0.18,0.17 -0.07,0.18 0.00,0.42 0.12,0.35 0.05,-0.03 0.04,-0.08 -0.02,-0.12 z m 0.43,-0.25 c 0,-0.29 -0.15,-0.73 -0.23,-0.65 -0.03,0.02 -0.00,0.14 0.05,0.26 0.06,0.12 0.08,0.31 0.05,0.47 -0.03,0.16 -0.02,0.24 0.03,0.21 0.04,-0.02 0.08,-0.16 0.08,-0.29 z M 11.89,32.34 c -0.06,-0.06 -0.08,0.00 -0.08,0.20 0.00,0.27 0.01,0.28 0.08,0.08 0.05,-0.13 0.05,-0.23 -0.00,-0.29 z m -0.11,-2.05 c -0.02,-0.05 -0.04,0.01 -0.03,0.15 0.00,0.14 0.02,0.18 0.04,0.10 0.02,-0.08 0.02,-0.20 -0.00,-0.25 z m 20.39,11.77 c -0.00,-0.35 -0.00,-0.35 -0.08,-0.10 -0.04,0.14 -0.05,0.30 -0.03,0.36 0.07,0.21 0.13,0.10 0.12,-0.25 z m -16.58,0.05 c 0.96,-0.81 1.52,-3.79 1.29,-6.94 -0.25,-3.59 -1.02,-6.53 -2.15,-8.23 -0.48,-0.72 -0.86,-1.01 -1.36,-1.01 h -0.38 l 0.42,0.21 c 1.42,0.73 2.46,3.54 2.95,8.00 0.19,1.78 0.21,2.44 0.08,4.06 -0.17,2.14 -0.58,3.44 -1.28,4.01 -0.11,0.09 -0.11,0.10 0.01,0.10 0.07,0.00 0.26,-0.09 0.41,-0.22 z m 6.10,0.01 c 0,-0.07 -0.05,-0.12 -0.12,-0.12 -0.07,0 -0.12,0.05 -0.12,0.12 0,0.07 0.05,0.12 0.12,0.12 0.07,0 0.12,-0.05 0.12,-0.12 z m 0.62,-0.01 c -0.05,-0.02 -0.10,-0.08 -0.10,-0.14 0,-0.11 -0.33,-0.34 -0.40,-0.27 -0.02,0.02 -0.00,0.13 0.04,0.24 0.05,0.13 0.16,0.19 0.33,0.20 0.13,0.00 0.19,-0.00 0.14,-0.02 z m 9.53,-0.54 -0.02,-0.51 -0.44,0.00 c -0.44,0.00 -0.44,0.00 -0.14,0.09 0.41,0.11 0.51,0.22 0.51,0.53 0,0.21 0.05,0.38 0.12,0.39 0.00,0 -0.00,-0.23 -0.02,-0.51 z m 0.13,-0.19 c -0.02,-0.10 -0.03,-0.01 -0.03,0.19 0,0.21 0.01,0.30 0.03,0.19 0.02,-0.10 0.02,-0.28 0,-0.38 z m -4.21,0.04 c -0.08,-0.65 -0.09,-0.67 -0.37,-0.99 -0.14,-0.16 -0.31,-0.45 -0.37,-0.63 C 26.89,39.42 26.64,38.95 26.57,38.95 c -0.11,0 -0.93,0.68 -0.85,0.70 0.10,0.03 -0.05,0.53 -0.16,0.53 -0.03,0 -0.02,-0.09 0.03,-0.21 0.05,-0.11 0.07,-0.24 0.03,-0.27 -0.09,-0.09 -0.22,0.15 -0.22,0.42 -6.62e-4,0.14 -0.08,0.29 -0.21,0.39 -0.26,0.21 -0.27,0.27 -0.01,0.27 0.15,0 0.21,-0.05 0.25,-0.25 0.02,-0.14 0.09,-0.25 0.13,-0.25 0.05,0 0.05,0.07 0.00,0.20 -0.08,0.23 0.01,0.36 0.48,0.59 0.49,0.25 0.68,0.17 0.86,-0.33 0.05,-0.15 0.09,-0.19 0.09,-0.10 0.00,0.08 -0.05,0.27 -0.12,0.41 -0.07,0.14 -0.12,0.27 -0.10,0.28 0.07,0.06 0.89,0.46 0.96,0.47 0.04,0.00 0.05,-0.17 0.02,-0.40 z m 3.80,0.01 c -0.05,-0.06 -0.18,-0.12 -0.28,-0.12 -0.16,0 -0.15,0.02 0.07,0.26 0.19,0.20 0.25,0.23 0.28,0.12 0.01,-0.07 -0.01,-0.19 -0.07,-0.26 z m 0.47,-0.46 c -0.10,-0.34 -0.52,-0.68 -0.91,-0.74 -0.20,-0.03 -0.33,-0.07 -0.27,-0.09 0.06,-0.02 -0.02,-0.30 -0.25,-0.80 -0.26,-0.57 -0.48,-0.91 -0.90,-1.34 -0.31,-0.32 -0.64,-0.77 -0.75,-1.03 -0.27,-0.60 -0.52,-0.93 -0.83,-1.09 -0.23,-0.11 -0.65,-0.17 -0.65,-0.09 0,0.17 0.39,0.99 0.46,0.96 0.34,-0.14 0.39,-0.15 0.39,-0.06 0,0.05 -0.05,0.09 -0.13,0.09 -0.35,0 -0.17,0.47 0.54,1.41 0.22,0.28 0.49,0.65 0.61,0.83 0.94,1.37 1.05,1.52 1.16,1.47 0.08,-0.03 0.10,-0.00 0.06,0.09 -0.04,0.10 -0.01,0.12 0.09,0.08 0.10,-0.04 0.13,-0.02 0.09,0.04 -0.03,0.05 -0.02,0.16 0.02,0.25 0.07,0.13 0.09,0.11 0.19,-0.11 0.09,-0.21 0.14,-0.25 0.28,-0.20 0.09,0.03 0.21,0.04 0.26,0.02 0.05,-0.01 0.18,0.07 0.30,0.22 0.24,0.30 0.27,0.32 0.20,0.10 z m -2.83,-2.29 c -0.03,-0.08 0.00,-0.20 0.08,-0.27 0.12,-0.12 0.13,-0.11 0.07,0.03 -0.05,0.15 -0.05,0.16 0.09,0.04 0.15,-0.12 0.15,-0.12 0.00,0.10 -0.18,0.27 -0.18,0.27 -0.25,0.09 z m 2.48,2.20 c -0.02,-0.04 -0.17,-0.08 -0.32,-0.07 l -0.27,0.01 0.30,0.06 c 0.16,0.03 0.31,0.06 0.32,0.07 0.01,0.00 0.00,-0.02 -0.02,-0.07 z m -6.48,-0.77 c 0,-0.28 0.14,-0.45 0.79,-0.93 0.57,-0.42 0.60,-0.29 -0.38,-1.43 -0.36,-0.41 -0.72,-0.84 -0.81,-0.95 -0.14,-0.17 -0.18,-0.18 -0.39,-0.09 -0.29,0.13 -0.29,0.22 0.00,0.53 0.21,0.22 0.21,0.24 0.04,0.15 -0.10,-0.05 -0.25,-0.19 -0.32,-0.30 l -0.13,-0.20 -0.29,0.18 c -0.33,0.21 -0.75,0.93 -0.67,1.17 0.06,0.20 0.82,0.84 1.20,0.99 0.63,0.26 1.53,0.08 1.83,-0.37 0.11,-0.17 0.11,-0.18 -0.03,-0.12 -0.14,0.05 -0.14,0.04 -0.04,-0.08 0.15,-0.19 0.26,-0.18 0.26,0.02 0,0.24 -0.50,0.67 -0.89,0.78 -0.18,0.05 -0.49,0.07 -0.68,0.04 -0.33,-0.04 -0.34,-0.04 -0.15,0.08 0.10,0.07 0.19,0.20 0.19,0.27 0.00,0.10 0.02,0.10 0.08,-0.03 0.06,-0.14 0.07,-0.12 0.07,0.10 0.00,0.37 0.15,0.44 0.20,0.09 l 0.03,-0.28 0.01,0.31 c 0.01,0.38 -0.10,0.48 -0.28,0.22 -0.07,-0.10 -0.13,-0.15 -0.13,-0.11 0,0.04 0.06,0.14 0.14,0.23 0.18,0.20 0.37,0.06 0.37,-0.27 z m -0.42,-2.57 c 0,-0.04 0.01,-0.08 0.03,-0.08 0.02,0 0.06,0.03 0.09,0.08 0.02,0.04 0.01,0.08 -0.03,0.08 -0.04,0 -0.09,-0.03 -0.09,-0.08 z m -7.89,2.77 c 0.00,-0.08 0.00,-0.17 0.00,-0.20 -0.00,-0.03 0.05,-0.10 0.12,-0.16 0.10,-0.08 0.12,-0.07 0.08,0.05 -0.04,0.13 -0.03,0.13 0.03,-0.00 0.12,-0.27 0.21,-0.50 0.22,-0.61 0.00,-0.05 0.05,-0.15 0.10,-0.22 0.35,-0.42 0.53,-3.98 0.29,-5.95 -0.22,-1.90 -0.80,-3.96 -1.34,-4.78 l -0.20,-0.31 0.16,-0.43 c 0.09,-0.24 0.16,-0.58 0.15,-0.76 l -0.00,-0.32 -0.08,0.38 c -0.10,0.49 -0.15,0.63 -0.20,0.58 -0.04,-0.04 0.23,-1.43 0.38,-1.95 0.04,-0.16 0.07,-0.30 0.05,-0.32 -0.05,-0.05 -0.31,0.74 -0.51,1.58 -0.17,0.71 -0.17,0.80 -0.06,0.92 0.07,0.07 0.11,0.14 0.09,0.17 -0.02,0.02 -0.30,-0.20 -0.63,-0.50 -0.32,-0.30 -0.60,-0.53 -0.61,-0.52 -0.01,0.01 0.14,0.35 0.35,0.75 0.92,1.78 1.59,4.74 1.74,7.77 0.05,1.16 0.01,2.61 -0.10,3.37 -0.03,0.20 -0.07,0.57 -0.09,0.81 -0.01,0.24 -0.04,0.46 -0.04,0.48 -0.00,0.02 -0.00,0.07 6.61e-4,0.12 0.00,0.04 -0.03,0.11 -0.09,0.14 -0.08,0.05 -0.07,0.07 0.03,0.07 0.08,4.64e-4 0.15,-0.06 0.16,-0.14 z m 0.07,-0.57 c 0,-0.02 0.03,-0.06 0.08,-0.09 0.04,-0.02 0.08,-0.01 0.08,0.03 0,0.05 -0.03,0.09 -0.08,0.09 -0.04,0 -0.08,-0.01 -0.08,-0.03 z m 0.08,-0.34 c 0,-0.02 0.03,-0.06 0.08,-0.09 0.04,-0.02 0.08,-0.01 0.08,0.03 0,0.05 -0.03,0.09 -0.08,0.09 -0.04,0 -0.08,-0.01 -0.08,-0.03 z m 15.08,0.62 c 0.05,-0.21 0.04,-0.22 -0.34,-0.25 -0.32,-0.02 -0.41,-6.63e-4 -0.48,0.12 -0.09,0.18 -0.12,0.16 0.31,0.33 0.38,0.14 0.43,0.12 0.51,-0.19 z m -1.10,-0.60 c -0.34,-0.28 -0.38,-0.19 -0.14,0.28 l 0.18,0.36 0.11,-0.20 c 0.10,-0.19 0.09,-0.22 -0.16,-0.44 z M 29.93,37.68 C 29.82,37.43 29.65,36.94 29.54,36.59 29.42,36.23 29.27,35.81 29.20,35.66 29.08,35.37 28.91,35.35 28.91,35.63 c 0,0.25 0.35,1.24 0.51,1.42 0.21,0.24 0.43,0.69 0.36,0.76 -0.04,0.04 0.20,0.29 0.29,0.30 0.01,0.00 -0.06,-0.20 -0.16,-0.44 z m -0.60,-0.56 c -0.11,-0.13 -0.24,-0.31 -0.30,-0.40 -0.08,-0.13 -0.09,-0.12 -0.01,0.08 0.11,0.34 0.45,0.79 0.49,0.66 0.01,-0.05 -0.05,-0.21 -0.16,-0.34 z m -5.17,-0.57 0.32,-0.26 -0.36,-0.48 c -0.19,-0.26 -0.39,-0.48 -0.42,-0.48 -0.03,0 -0.15,0.09 -0.26,0.20 -0.18,0.19 -0.18,0.21 -0.05,0.52 0.07,0.17 0.13,0.42 0.13,0.54 -0.00,0.17 -0.03,0.14 -0.13,-0.16 -0.16,-0.46 -0.45,-0.81 -0.57,-0.68 -0.04,0.04 -0.14,0.08 -0.22,0.08 -0.07,0 -0.23,0.13 -0.36,0.28 -0.22,0.28 -0.22,0.29 -0.08,0.57 0.07,0.15 0.27,0.37 0.43,0.48 l 0.29,0.19 0.49,-0.27 c 0.27,-0.15 0.64,-0.39 0.81,-0.54 z m 0.42,-0.11 c -0.02,-0.02 -0.09,-4.64e-4 -0.15,0.05 -0.08,0.08 -0.07,0.09 0.04,0.04 0.08,-0.03 0.13,-0.08 0.10,-0.10 z m -2.62,-0.36 c -0.07,-0.04 -0.05,-0.08 0.07,-0.12 0.16,-0.05 0.17,-0.07 0.05,-0.40 -0.10,-0.30 -0.10,-0.34 0.00,-0.30 0.06,0.02 0.14,0.01 0.17,-0.03 0.02,-0.04 0.18,-0.08 0.34,-0.08 0.15,0 0.31,-0.03 0.33,-0.07 0.07,-0.12 -0.39,-0.18 -0.70,-0.10 -0.16,0.04 -0.29,0.04 -0.32,0.00 -0.02,-0.04 0.10,-0.10 0.29,-0.13 0.45,-0.07 0.35,-0.22 -0.10,-0.15 -0.29,0.04 -0.33,0.03 -0.19,-0.05 0.09,-0.05 0.29,-0.08 0.47,-0.05 0.29,0.04 0.30,0.04 0.14,-0.08 -0.11,-0.08 -0.27,-0.11 -0.49,-0.08 -0.38,0.05 -0.39,0.03 -0.09,-0.16 0.18,-0.11 0.23,-0.12 0.29,-0.03 0.03,0.06 0.09,0.08 0.13,0.05 0.08,-0.08 -0.12,-0.32 -0.28,-0.32 -0.06,0 -0.21,0.10 -0.33,0.22 -0.19,0.20 -0.20,0.28 -0.17,0.89 0.03,0.68 0.23,1.25 0.40,1.14 0.06,-0.03 0.05,-0.07 -0.01,-0.12 z m 6.74,-0.11 c -0.04,-0.18 -0.08,-0.20 -0.17,-0.12 -0.10,0.08 -0.10,0.12 0.02,0.26 0.18,0.19 0.22,0.15 0.15,-0.13 z m -0.13,-0.42 c 0.05,-0.06 0.01,-0.09 -0.15,-0.09 -0.15,0 -0.22,0.03 -0.19,0.10 0.02,0.07 -0.01,0.09 -0.11,0.05 -0.11,-0.03 -0.13,-0.03 -0.04,0.03 0.13,0.09 0.39,0.04 0.51,-0.09 z m -5.90,-0.07 c -0.03,-0.10 -0.12,-0.20 -0.19,-0.22 -0.09,-0.02 -0.09,-0.01 0.00,0.06 0.09,0.07 0.10,0.10 0.02,0.14 -0.13,0.05 -0.05,0.20 0.11,0.20 0.08,0 0.10,-0.05 0.05,-0.18 z m 5.14,0.10 c 0.09,-0.06 0.06,-0.08 -0.15,-0.08 -0.15,-4.61e-4 -0.27,0.03 -0.27,0.08 0,0.10 0.26,0.10 0.42,0 z m 0.64,-0.45 c 0.18,-0.09 0.36,-0.17 0.38,-0.17 0.02,-0.00 0.08,-0.08 0.13,-0.18 0.04,-0.09 0.16,-0.19 0.25,-0.20 0.16,-0.03 0.16,-0.03 -0.00,0.16 l -0.17,0.20 0.24,-0.15 0.24,-0.15 -0.06,0.20 c -0.05,0.18 -0.05,0.19 0.09,0.06 0.08,-0.07 0.21,-0.11 0.29,-0.09 0.07,0.02 0.03,-0.03 -0.08,-0.13 -0.17,-0.14 -0.18,-0.18 -0.06,-0.18 0.07,-0.00 0.16,-0.04 0.19,-0.08 0.03,-0.05 -0.00,-0.06 -0.10,-0.02 -0.14,0.05 -0.14,0.04 -0.02,-0.10 0.12,-0.16 0.12,-0.16 -0.05,-0.01 -0.09,0.08 -0.20,0.12 -0.23,0.09 -0.03,-0.03 -0.05,-0.02 -0.05,0.02 0,0.08 -0.99,0.09 -1.08,0.01 -0.03,-0.03 -0.01,-0.11 0.04,-0.17 0.11,-0.13 0.04,-0.23 -0.11,-0.17 -0.06,0.02 -0.13,0.00 -0.16,-0.04 -0.03,-0.05 0.02,-0.09 0.14,-0.09 0.12,-0.00 0.15,-0.02 0.07,-0.05 -0.07,-0.02 -0.17,-0.09 -0.23,-0.15 -0.14,-0.14 0.03,-0.21 0.28,-0.10 0.19,0.08 0.42,0.60 0.33,0.75 -0.10,0.16 0.12,0.08 0.30,-0.10 0.16,-0.16 0.18,-0.17 0.12,-0.02 -0.03,0.09 0.10,-0.00 0.30,-0.21 0.20,-0.20 0.33,-0.39 0.30,-0.40 -0.03,-0.01 -0.12,0.01 -0.19,0.07 -0.07,0.05 -0.14,0.08 -0.17,0.06 -0.05,-0.05 0.14,-0.49 0.22,-0.49 0.12,0 0.16,0.15 0.05,0.20 -0.05,0.02 -0.03,0.03 0.06,0.02 0.10,-0.01 0.17,-0.08 0.17,-0.18 0,-0.26 -0.20,-0.25 -0.46,0.02 -0.27,0.29 -0.35,0.32 -0.35,0.13 0,-0.07 -0.03,-0.17 -0.08,-0.23 -0.04,-0.05 -0.15,-0.19 -0.24,-0.31 -0.08,-0.11 -0.24,-0.21 -0.34,-0.22 -0.10,-0.00 -0.24,-0.08 -0.30,-0.17 -0.11,-0.15 -0.13,-0.15 -0.60,0.09 -0.26,0.13 -0.56,0.34 -0.66,0.44 -0.16,0.17 -0.17,0.22 -0.07,0.65 0.09,0.41 0.21,0.59 0.51,0.78 0.15,0.09 -0.01,-0.22 -0.20,-0.37 -0.17,-0.14 -0.16,-0.22 0.03,-0.43 0.21,-0.21 0.22,-0.21 0.29,0.04 0.03,0.13 0.13,0.23 0.26,0.26 0.24,0.06 0.28,0.20 0.06,0.20 -0.07,0 -0.25,-0.10 -0.39,-0.23 -0.18,-0.17 -0.23,-0.19 -0.19,-0.07 0.03,0.08 0.05,0.19 0.05,0.23 0,0.04 0.04,0.07 0.09,0.07 0.10,0 0.33,0.21 0.33,0.31 0,0.10 -0.45,0.11 -0.57,0.01 -0.05,-0.04 -0.02,0.13 0.07,0.38 0.09,0.26 0.23,0.48 0.31,0.50 0.22,0.05 0.62,-0.03 0.99,-0.22 z m -1.06,-1.89 c -0.05,-0.06 -0.08,-0.19 -0.07,-0.30 0.02,-0.28 0.46,-0.26 0.59,0.03 0.08,0.17 0.07,0.23 -0.02,0.29 -0.07,0.04 -0.15,0.04 -0.20,-0.00 -0.10,-0.10 -0.24,-0.10 -0.17,0.00 0.07,0.12 -0.00,0.10 -0.11,-0.02 z m 1.44,1.95 c 0,-0.02 -0.06,-0.03 -0.13,-0.03 -0.07,0 -0.10,0.03 -0.08,0.08 0.04,0.07 0.21,0.04 0.21,-0.04 z m 1.11,-0.02 c 0,-0.04 -0.09,-0.05 -0.21,-0.03 -0.11,0.02 -0.21,0.05 -0.21,0.07 0,0.01 0.09,0.03 0.21,0.03 0.11,0 0.21,-0.03 0.21,-0.07 z m -8.42,-1.32 c -0.05,-0.11 -0.19,-0.26 -0.31,-0.31 -0.20,-0.09 -0.19,-0.07 0.07,0.23 0.33,0.37 0.38,0.39 0.24,0.08 z m 8.51,-0.06 c 0,-0.12 -0.04,-0.10 -0.22,0.10 -0.16,0.18 -0.16,0.18 0.02,0.08 0.10,-0.05 0.19,-0.13 0.19,-0.18 z m -8.10,0.04 c 0.06,-0.17 -0.07,-0.31 -0.25,-0.24 -0.11,0.04 -0.12,0.08 -0.03,0.21 0.12,0.19 0.22,0.20 0.29,0.02 z M 21.44,33.23 C 21.30,33.09 21.17,32.94 21.17,32.89 c 0,-0.04 -0.07,-0.08 -0.17,-0.08 -0.09,0 -0.17,0.05 -0.17,0.12 0,0.17 0.49,0.56 0.70,0.56 0.15,0 0.14,-0.02 -0.09,-0.25 z m 8.65,0.04 c -0.02,-0.02 -0.07,0.02 -0.10,0.10 -0.04,0.12 -0.03,0.13 0.04,0.04 0.05,-0.05 0.08,-0.12 0.05,-0.15 z m -0.59,-0.48 c -0.09,-0.18 0.01,-0.27 0.22,-0.18 0.10,0.03 0.13,0.02 0.08,-0.04 -0.03,-0.05 -0.11,-0.10 -0.18,-0.10 -0.06,0 -0.12,-0.03 -0.12,-0.08 0,-0.04 0.04,-0.08 0.10,-0.08 0.05,0 0.02,-0.05 -0.06,-0.12 -0.23,-0.16 -0.29,-0.01 -0.21,0.46 0.06,0.35 0.06,0.37 -0.06,0.21 -0.11,-0.15 -0.12,-0.15 -0.07,-0.01 0.02,0.08 0.05,0.19 0.05,0.23 0,0.04 0.07,0.03 0.16,-0.02 0.12,-0.07 0.14,-0.14 0.08,-0.25 z m -0.39,0.13 c -0.02,-0.07 -0.06,-0.11 -0.09,-0.09 -0.02,0.02 -0.01,0.08 0.01,0.13 0.08,0.13 0.13,0.11 0.07,-0.04 z M 28.85,32.36 c -0.15,-0.16 -0.37,-0.21 -0.37,-0.07 0,0.04 0.05,0.08 0.12,0.08 0.07,0 0.12,0.03 0.12,0.07 0,0.03 0.05,0.07 0.12,0.07 0.11,0 0.10,-0.02 -0.01,-0.15 z m -2.01,-0.10 c 0.07,-0.19 -0.09,-1.49 -0.21,-1.69 -0.08,-0.13 -0.31,-0.09 -0.26,0.04 0.02,0.06 0.08,0.44 0.14,0.83 0.14,1.06 0.19,1.19 0.34,0.80 z m 3.11,0.00 c 0.05,0.03 0.06,0.01 0.02,-0.04 -0.07,-0.11 -0.22,-0.04 -0.21,0.10 0.00,0.07 0.01,0.07 0.05,-0.00 0.02,-0.05 0.08,-0.08 0.13,-0.05 z m -3.58,-0.20 c -0.03,-0.12 -0.07,-0.64 -0.09,-1.14 -0.03,-1.01 0.02,-1.35 0.76,-3.68 0.28,-0.90 0.34,-1.18 0.22,-1.03 -0.24,0.31 -0.30,0.46 -0.63,1.50 -0.55,1.74 -0.70,3.43 -0.39,4.31 0.11,0.34 0.20,0.37 0.12,0.04 z m 2.87,0.11 c 0,-0.01 -0.05,-0.08 -0.13,-0.14 -0.10,-0.09 -0.12,-0.08 -0.07,0.03 0.04,0.12 0.20,0.20 0.20,0.10 z m -1.44,-0.11 c -0.06,-0.02 -0.13,-0.02 -0.16,0.00 -0.02,0.02 0.02,0.04 0.11,0.04 0.10,-0.00 0.12,-0.02 0.05,-0.05 z m 0.96,-0.16 c 0.12,-0.04 0.11,-0.07 -0.04,-0.18 -0.14,-0.10 -0.20,-0.10 -0.28,-0.01 -0.07,0.08 -0.07,0.09 0.00,0.04 0.05,-0.03 0.10,-0.02 0.10,0.02 0,0.04 -0.04,0.10 -0.10,0.12 -0.06,0.02 -0.05,0.04 0.03,0.05 0.07,0.00 0.20,-0.01 0.28,-0.04 z m -2.82,-0.95 c -0.06,-0.49 0.20,-2.13 0.51,-3.09 0.11,-0.36 0.19,-0.67 0.17,-0.69 -0.05,-0.05 -0.61,1.11 -0.80,1.70 -0.24,0.73 -0.27,1.82 -0.06,2.21 0.20,0.38 0.25,0.35 0.19,-0.12 z m 1.97,-0.38 c 0.05,-0.27 0.12,-1.44 0.16,-2.60 0.03,-1.16 0.11,-2.40 0.17,-2.77 0.06,-0.36 0.10,-0.67 0.08,-0.68 -0.07,-0.07 -0.49,0.80 -0.64,1.36 -0.22,0.81 -0.82,3.27 -0.90,3.72 -0.03,0.18 -0.08,0.29 -0.10,0.22 -0.03,-0.10 0.10,-1.00 0.20,-1.26 0.02,-0.06 0.01,-0.12 -0.03,-0.12 -0.04,0 -0.17,0.39 -0.28,0.87 l -0.20,0.87 0.19,0.13 c 0.10,0.07 0.35,0.28 0.55,0.46 0.49,0.45 0.66,0.40 0.79,-0.21 z m -8.21,-0.04 c 0,-0.07 -0.05,-0.25 -0.12,-0.39 -0.15,-0.29 -0.16,-0.38 -0.02,-0.24 0.15,0.15 0.32,0.12 0.32,-0.04 -6.61e-4,-0.11 -0.01,-0.12 -0.07,-0.03 -0.09,0.14 -0.27,0.05 -0.21,-0.10 0.02,-0.06 0.00,-0.20 -0.04,-0.31 -0.04,-0.11 -0.08,-0.16 -0.08,-0.10 -0.00,0.05 -0.04,0.10 -0.09,0.10 -0.05,0 -0.06,-0.08 -0.03,-0.19 0.03,-0.14 0.03,-0.16 -0.02,-0.06 -0.09,0.14 0.24,1.64 0.35,1.57 0.03,-0.02 0.06,-0.10 0.06,-0.18 z m -0.28,-0.84 c -0.03,-0.03 -0.05,-0.09 -0.05,-0.14 0,-0.05 0.04,-0.04 0.10,0.01 0.05,0.05 0.08,0.12 0.05,0.14 -0.02,0.02 -0.07,0.01 -0.10,-0.01 z m 1.26,0.58 c -0.02,-0.14 -0.08,-0.27 -0.12,-0.27 -0.09,0 -0.09,0.00 0.02,0.33 0.11,0.33 0.18,0.30 0.10,-0.06 z m -0.84,0.00 c -0.02,-0.02 -0.04,0.02 -0.04,0.11 0.00,0.10 0.02,0.12 0.05,0.05 0.02,-0.06 0.02,-0.13 -0.00,-0.16 z m 5.90,-1.66 c 0.28,-0.75 0.52,-1.22 0.96,-1.85 0.36,-0.52 0.76,-1.16 1.45,-2.31 0.41,-0.68 1.07,-2.14 1.07,-2.35 0,-0.19 -0.50,-0.65 -0.79,-0.72 -0.17,-0.04 -0.23,-0.10 -0.23,-0.26 0,-0.11 0.06,-0.24 0.14,-0.29 0.08,-0.04 0.15,-0.20 0.16,-0.36 0.05,-0.79 0.14,-1.41 0.21,-1.50 0.05,-0.07 -0.04,-0.18 -0.33,-0.37 -0.40,-0.26 -0.42,-0.26 -1.30,-0.22 l -0.89,0.03 -0.35,0.35 c -0.45,0.44 -0.62,0.46 -0.19,0.01 l 0.32,-0.33 -0.41,0.07 c -0.22,0.04 -0.68,0.11 -1.01,0.15 l -0.60,0.07 -0.53,0.58 c -0.55,0.60 -0.63,0.79 -0.19,0.47 0.13,-0.10 0.23,-0.13 0.21,-0.07 -0.02,0.06 -0.29,0.23 -0.59,0.38 -0.60,0.29 -0.91,0.69 -1.05,1.35 -0.07,0.34 -0.07,0.34 0.31,0.63 0.21,0.16 0.51,0.39 0.65,0.52 0.14,0.12 0.41,0.27 0.60,0.32 0.21,0.05 0.55,0.28 0.86,0.56 l 0.51,0.47 0.05,-0.70 c 0.05,-0.77 0.13,-1.05 0.64,-2.12 0.31,-0.67 1.54,-2.58 1.74,-2.70 0.13,-0.08 0.09,0.09 -0.04,0.21 -0.07,0.06 -0.17,0.19 -0.22,0.28 -0.09,0.17 -0.08,0.17 0.13,0.02 0.39,-0.25 0.34,-0.16 -0.17,0.35 -0.27,0.27 -0.63,0.69 -0.79,0.92 l -0.29,0.42 0.25,-0.23 c 0.37,-0.35 0.45,-0.28 0.10,0.08 -0.38,0.40 -0.87,1.28 -1.05,1.90 -0.07,0.25 -0.13,0.75 -0.13,1.11 0,0.45 -0.05,0.79 -0.17,1.12 -0.15,0.41 -0.16,0.52 -0.08,0.95 0.05,0.26 0.11,1.24 0.12,2.16 l 0.03,1.68 0.28,0.52 0.28,0.52 0.05,-0.67 c 0.03,-0.36 0.15,-0.92 0.26,-1.23 z m -0.67,0.86 c 0.10,-0.85 0.22,-1.29 0.38,-1.45 0.09,-0.09 0.25,-0.33 0.35,-0.52 0.09,-0.19 0.20,-0.33 0.22,-0.31 0.02,0.02 -0.11,0.35 -0.31,0.74 -0.19,0.38 -0.39,0.84 -0.44,1.01 -0.04,0.17 -0.11,0.43 -0.16,0.57 -0.07,0.25 -0.07,0.25 -0.04,-0.04 z m 0.30,-1.55 c -0.00,-0.02 0.05,-0.18 0.12,-0.34 0.09,-0.21 0.12,-0.24 0.12,-0.11 0.00,0.15 -0.24,0.60 -0.25,0.45 z m -0.37,-2.00 c 0.05,-0.14 0.90,-1.27 1.06,-1.41 0.02,-0.02 0.17,-0.22 0.32,-0.45 0.15,-0.22 0.29,-0.40 0.31,-0.40 0.05,0 -0.22,0.54 -0.30,0.60 -0.03,0.02 -0.34,0.41 -0.69,0.85 -0.78,1.00 -0.79,1.03 -0.72,0.81 z m 0.46,-1.88 c 0,-0.01 0.16,-0.13 0.36,-0.24 0.83,-0.48 1.24,-1.09 1.65,-2.40 0.12,-0.41 0.25,-0.73 0.27,-0.71 0.02,0.02 -0.00,0.17 -0.05,0.34 -0.05,0.16 -0.11,0.40 -0.14,0.53 -0.06,0.37 -0.37,1.02 -0.68,1.46 -0.32,0.45 -1.41,1.25 -1.41,1.03 z M 23.28,21.47 c 0.04,-0.03 0.30,-0.16 0.57,-0.26 0.27,-0.10 0.71,-0.32 0.97,-0.48 0.26,-0.15 0.46,-0.24 0.44,-0.18 -0.04,0.13 -1.76,1.00 -1.99,1.00 -0.05,0 -0.05,-0.02 -0.00,-0.07 z m 4.42,-0.99 c 0,-0.02 0.03,-0.06 0.08,-0.09 0.04,-0.02 0.08,-0.01 0.08,0.03 0,0.04 -0.03,0.09 -0.08,0.09 -0.04,0 -0.08,-0.01 -0.08,-0.03 z m -2.83,-0.77 c 0.06,-0.09 0.21,-0.26 0.33,-0.38 0.15,-0.16 0.18,-0.17 0.11,-0.04 -0.04,0.09 -0.19,0.26 -0.33,0.38 -0.17,0.15 -0.20,0.16 -0.11,0.04 z m -1.11,-0.29 c 0,-0.04 0.03,-0.09 0.08,-0.09 0.04,0 0.08,0.01 0.08,0.03 0,0.02 -0.03,0.06 -0.08,0.09 -0.04,0.02 -0.08,0.01 -0.08,-0.03 z m -3.17,9.85 c -0.11,-0.11 -0.12,0.18 -0.02,0.42 0.05,0.12 0.06,0.11 0.09,-0.08 0.01,-0.13 -0.01,-0.28 -0.06,-0.33 z m -3.31,-0.03 c 0.10,-0.62 0.12,-0.67 0.40,-0.79 0.16,-0.07 0.28,-0.19 0.29,-0.29 0.01,-0.13 0.00,-0.13 -0.02,-0.02 -0.07,0.23 -0.21,0.17 -0.15,-0.06 0.03,-0.14 0.00,-0.27 -0.09,-0.38 -0.21,-0.23 -0.47,-0.22 -0.46,0.02 0.00,0.18 0.00,0.18 0.07,0.02 0.04,-0.09 0.07,-0.12 0.08,-0.06 0.00,0.05 0.06,0.08 0.13,0.05 0.09,-0.03 0.11,-0.01 0.07,0.10 -0.04,0.10 -0.02,0.13 0.04,0.09 0.05,-0.03 0.10,-0.01 0.10,0.03 0,0.05 -0.08,0.08 -0.19,0.06 -0.15,-0.02 -0.19,0.01 -0.18,0.16 0.01,0.35 -0.12,0.19 -0.18,-0.21 -0.03,-0.22 -0.09,-0.56 -0.13,-0.75 l -0.07,-0.34 0.02,0.32 c 0.01,0.17 -0.00,0.32 -0.04,0.32 -0.03,0 -0.06,0.24 -0.05,0.53 l 0.01,0.53 0.05,-0.47 c 0.03,-0.31 0.06,-0.38 0.07,-0.21 0.01,0.14 0.04,0.48 0.08,0.75 0.03,0.27 0.03,0.49 -0.00,0.49 -0.03,0 -0.07,-0.10 -0.07,-0.23 l -0.00,-0.23 -0.07,0.24 c -0.07,0.24 0.04,0.65 0.18,0.65 0.03,0 0.09,-0.14 0.11,-0.32 z m 3.07,0.14 c -0.02,-0.09 -0.06,-0.15 -0.08,-0.13 -0.04,0.04 0.03,0.30 0.09,0.30 0.02,0 0.01,-0.07 -0.00,-0.17 z m -0.40,-0.14 c -0.02,-0.02 -0.04,0.02 -0.04,0.11 0.00,0.10 0.02,0.12 0.05,0.05 0.02,-0.06 0.02,-0.13 -0.00,-0.16 z m 0.17,0 c -0.02,-0.02 -0.04,0.02 -0.04,0.11 0.00,0.10 0.02,0.12 0.05,0.05 0.02,-0.06 0.02,-0.13 -0.00,-0.16 z m 0.41,-0.49 c -0.03,-0.17 -0.07,-0.29 -0.09,-0.27 -0.02,0.02 -0.01,0.17 0.02,0.35 0.03,0.17 0.07,0.29 0.09,0.27 0.02,-0.02 0.01,-0.17 -0.02,-0.35 z m -0.21,0.07 c -0.04,-0.12 -0.08,-0.31 -0.08,-0.42 0,-0.11 -0.03,-0.22 -0.08,-0.25 -0.05,-0.03 -0.06,0.05 -0.02,0.23 0.06,0.34 0.18,0.67 0.23,0.67 0.02,0 0.00,-0.09 -0.04,-0.22 z m 4.38,-0.69 c -0.01,-1.02 -0.01,-1.06 -0.08,-1.02 -0.03,0.02 -0.04,1.06 -0.00,1.88 0.00,0.04 0.02,0.05 0.05,0.02 0.02,-0.02 0.04,-0.43 0.03,-0.89 z m -7.86,0.42 c -0.02,-0.22 -0.06,-0.64 -0.09,-0.92 l -0.05,-0.51 -0.15,0.49 -0.15,0.49 0.22,0.42 c 0.12,0.23 0.23,0.42 0.25,0.42 0.01,4.62e-4 0.00,-0.18 -0.01,-0.40 z m 3.22,0.17 c -0.10,-0.17 -0.12,-0.11 -0.04,0.09 0.02,0.07 0.07,0.12 0.09,0.09 0.02,-0.02 -6.61e-4,-0.11 -0.05,-0.19 z m 9.31,-0.42 c 0.02,-0.31 0.07,-0.45 0.24,-0.59 0.11,-0.09 0.24,-0.27 0.27,-0.39 0.03,-0.11 0.19,-0.45 0.35,-0.75 0.32,-0.59 0.33,-0.71 0.18,-1.44 l -0.10,-0.50 -0.05,0.34 c -0.04,0.29 -0.05,0.25 -0.07,-0.25 -0.01,-0.33 -0.05,-0.83 -0.08,-1.11 -0.05,-0.42 -0.06,-0.34 -0.06,0.51 0.00,0.69 -0.03,1.09 -0.10,1.23 l -0.11,0.20 -0.12,-0.24 c -0.10,-0.19 -0.11,-0.41 -0.06,-1.04 0.03,-0.49 0.02,-0.80 -0.02,-0.80 -0.04,0 -0.08,0.51 -0.09,1.26 -0.00,0.69 -0.02,1.28 -0.05,1.30 -0.02,0.02 -0.03,-0.57 -0.03,-1.32 0,-0.85 -0.03,-1.33 -0.08,-1.28 -0.04,0.04 -0.09,0.29 -0.10,0.55 -0.02,0.40 -0.04,0.47 -0.19,0.46 -0.11,-0.00 -0.17,0.05 -0.17,0.17 -0.00,0.09 -0.03,0.79 -0.07,1.55 -0.04,1.00 -0.03,1.51 0.03,1.89 0.10,0.49 0.11,0.50 0.23,0.32 0.07,-0.10 0.16,-0.19 0.20,-0.19 0.04,0 0.01,0.09 -0.06,0.21 -0.07,0.11 -0.11,0.27 -0.08,0.35 0.09,0.24 0.22,0.00 0.25,-0.44 z m 0.73,-2.74 c 0,-0.12 0.03,-0.19 0.07,-0.17 0.04,0.02 0.05,0.12 0.03,0.21 -0.06,0.23 -0.11,0.21 -0.11,-0.04 z m -10.73,2.82 c -0.10,-0.17 -0.12,-0.11 -0.04,0.09 0.02,0.07 0.07,0.12 0.09,0.09 0.02,-0.02 -6.61e-4,-0.11 -0.05,-0.19 z m 5.09,-0.69 c -0.03,-0.57 -0.02,-0.78 0.07,-0.91 0.09,-0.12 0.10,-0.29 0.04,-0.77 -0.07,-0.59 -0.21,-0.91 -0.29,-0.67 -0.05,0.14 -0.21,0.13 -0.17,-0.00 0.02,-0.12 -0.42,-0.70 -0.49,-0.63 -0.02,0.02 0.06,0.16 0.18,0.31 0.12,0.14 0.20,0.29 0.17,0.32 -0.03,0.02 0.04,0.16 0.17,0.29 0.33,0.34 0.17,0.29 -0.23,-0.07 -0.32,-0.29 -0.34,-0.30 -0.25,-0.08 0.04,0.12 0.14,0.34 0.22,0.49 0.07,0.14 0.19,0.54 0.26,0.88 0.06,0.33 0.16,0.83 0.22,1.11 0.05,0.27 0.11,0.49 0.12,0.49 0.01,0 0.00,-0.33 -0.02,-0.75 z m -0.42,-1.75 c -0.17,-0.18 -0.19,-0.23 -0.07,-0.15 0.15,0.09 0.43,0.42 0.35,0.42 -0.01,0 -0.14,-0.12 -0.28,-0.26 z m 3.00,1.94 c 0.03,-0.16 0.02,-0.21 -0.01,-0.12 -0.04,0.07 -0.10,0.24 -0.13,0.38 -0.03,0.16 -0.02,0.21 0.01,0.12 0.04,-0.07 0.10,-0.24 0.13,-0.38 z m -7.42,0.30 c 0,-0.04 -0.04,-0.08 -0.09,-0.08 -0.04,0 -0.06,0.03 -0.03,0.08 0.02,0.04 0.07,0.08 0.09,0.08 0.02,0 0.03,-0.03 0.03,-0.08 z m 8.65,-0.49 c -0.02,-0.08 -0.03,0.00 -0.03,0.19 0.00,0.18 0.01,0.25 0.03,0.14 0.02,-0.10 0.01,-0.26 -0.00,-0.34 z m 0.24,-1.46 c 0.00,-0.92 0.03,-1.80 0.07,-1.94 0.03,-0.14 0.03,-0.22 -0.00,-0.19 -0.11,0.11 -0.24,1.87 -0.22,2.92 0.04,1.60 0.14,1.07 0.15,-0.78 z m -10.70,0.91 c -0.34,-1.38 -0.35,-3.00 -0.01,-3.69 0.11,-0.22 0.12,-0.30 0.04,-0.24 -0.06,0.05 -0.14,0.07 -0.18,0.04 -0.03,-0.03 0.05,-0.15 0.19,-0.26 0.13,-0.11 0.22,-0.20 0.18,-0.21 -0.18,-0.00 -0.99,0.40 -1.27,0.65 -0.17,0.15 -0.40,0.32 -0.51,0.37 -0.19,0.09 -0.19,0.09 0.01,-0.10 0.12,-0.10 0.37,-0.32 0.55,-0.48 l 0.34,-0.28 -0.30,0.14 c -0.58,0.27 -1.47,1.00 -1.86,1.52 -0.60,0.80 -0.61,0.81 -0.14,0.38 0.52,-0.47 0.79,-0.58 0.94,-0.38 0.05,0.07 0.08,0.22 0.06,0.33 -0.02,0.12 0.02,0.08 0.15,-0.12 0.11,-0.17 0.29,-0.43 0.40,-0.58 0.21,-0.28 0.16,-0.35 -0.08,-0.12 -0.08,0.07 -0.17,0.12 -0.20,0.09 -0.04,-0.04 1.14,-1.01 1.24,-1.01 0.02,4.62e-4 0.09,0.03 0.15,0.07 0.08,0.05 0.06,0.17 -0.10,0.56 -0.46,1.04 -0.82,2.90 -0.65,3.33 0.07,0.18 0.08,0.16 0.09,-0.16 0.00,-0.20 0.02,-0.40 0.03,-0.45 0.01,-0.04 0.02,-0.31 0.03,-0.59 0.00,-0.32 0.05,-0.55 0.13,-0.63 0.07,-0.07 0.13,-0.21 0.13,-0.32 0.00,-0.10 0.03,-0.26 0.06,-0.34 0.03,-0.08 0.05,0.40 0.05,1.08 v 1.23 l 0.27,0.38 c 0.15,0.21 0.27,0.43 0.27,0.49 0,0.05 0.02,0.08 0.04,0.05 0.02,-0.02 -0.03,-0.37 -0.13,-0.76 z m -1.79,-0.33 c 0.09,-0.48 0.73,-2.28 0.98,-2.77 0.07,-0.15 0.21,-0.36 0.31,-0.46 0.09,-0.10 0.15,-0.21 0.12,-0.24 -0.03,-0.03 -0.20,0.09 -0.37,0.28 -0.87,0.92 -1.26,1.80 -1.38,3.06 -0.05,0.53 -0.03,0.67 0.07,0.78 0.12,0.12 0.13,0.11 0.15,-0.02 0.01,-0.08 0.06,-0.36 0.11,-0.62 z m -0.60,-0.80 c -0.00,-0.59 0.02,-1.08 0.05,-1.08 0.03,0 0.06,0.23 0.06,0.51 -0.00,0.28 0.02,0.51 0.05,0.51 0.06,0 0.20,-1.28 0.13,-1.34 -0.07,-0.07 -0.52,0.21 -0.86,0.56 -0.18,0.19 -0.37,0.32 -0.42,0.30 -0.05,-0.02 -0.02,0.00 0.05,0.07 0.11,0.09 0.15,0.24 0.15,0.59 0,0.36 0.03,0.48 0.14,0.52 0.12,0.04 0.13,-0.01 0.09,-0.52 -0.02,-0.35 -0.02,-0.49 0.02,-0.36 0.06,0.18 0.07,0.15 0.07,-0.16 0.01,-0.61 0.08,-0.36 0.14,0.51 0.05,0.71 0.15,1.10 0.26,0.99 0.02,-0.02 0.03,-0.52 0.02,-1.11 z m 1.72,0.25 c -0.05,-0.46 -0.08,-0.51 -0.08,-0.24 -0.01,0.42 0.10,1.26 0.14,1.02 0.01,-0.09 -0.00,-0.44 -0.05,-0.77 z m 11.13,0.27 c -0.02,-0.10 -0.03,-0.01 -0.03,0.19 0,0.21 0.01,0.29 0.03,0.19 0.02,-0.10 0.02,-0.28 0,-0.38 z M 16.59,26.25 c -0.02,-0.05 -0.04,-0.01 -0.04,0.10 0,0.11 0.01,0.16 0.04,0.10 0.02,-0.05 0.02,-0.15 0,-0.21 z m -2.16,-0.39 -0.05,-0.23 -0.11,0.21 c -0.09,0.18 -0.09,0.22 0.02,0.31 0.17,0.12 0.22,0.02 0.14,-0.29 z m -0.12,0.11 c -0.00,-0.09 0.01,-0.14 0.04,-0.11 0.02,0.02 0.03,0.10 0.00,0.16 -0.02,0.06 -0.04,0.04 -0.05,-0.05 z m 2.36,-0.11 c -0.02,-0.02 -0.04,0.02 -0.04,0.11 0.00,0.10 0.02,0.12 0.05,0.05 0.02,-0.06 0.02,-0.13 -0.00,-0.16 z m -2.59,-0.04 c -0.02,-0.04 0.00,-0.14 0.06,-0.22 0.08,-0.11 0.06,-0.10 -0.07,0.01 -0.22,0.18 -0.24,0.28 -0.06,0.28 0.06,0 0.10,-0.03 0.07,-0.07 z M 13.96,25.55 c 0.09,-0.12 0.21,-0.20 0.25,-0.18 0.04,0.02 0.10,0 0.13,-0.05 0.03,-0.06 0.02,-0.07 -0.03,-0.03 -0.19,0.12 -0.09,-0.11 0.12,-0.28 0.12,-0.09 0.20,-0.17 0.16,-0.17 -0.09,0 -0.49,0.26 -0.86,0.57 -0.20,0.16 -0.43,0.28 -0.57,0.28 -0.13,0 -0.25,0.02 -0.27,0.06 -0.02,0.03 0.16,0.05 0.42,0.05 0.39,-0.00 0.49,-0.04 0.64,-0.23 z m -0.80,-0.02 c -0.22,-0.05 -0.18,-0.18 0.04,-0.14 0.18,0.03 0.18,0.03 0.02,-0.04 -0.14,-0.07 -0.15,-0.08 -0.02,-0.08 0.08,-0.00 0.15,-0.04 0.15,-0.09 0,-0.13 -0.08,-0.10 -0.34,0.11 -0.27,0.22 -0.24,0.31 0.08,0.30 0.14,-0.00 0.17,-0.02 0.07,-0.04 z M 31.10,25.14 c -0.07,-0.11 -0.30,-1.90 -0.26,-2.01 0.02,-0.06 0.01,-0.12 -0.02,-0.14 -0.03,-0.01 -0.09,-0.20 -0.12,-0.41 -0.07,-0.58 -0.15,-0.85 -0.24,-0.85 -0.04,0 -0.05,0.06 -0.02,0.15 0.08,0.22 0.30,1.72 0.29,2.03 -0.00,0.24 -0.01,0.23 -0.07,-0.07 -0.03,-0.18 -0.11,-0.70 -0.17,-1.13 -0.06,-0.43 -0.14,-0.79 -0.18,-0.79 -0.04,0 -0.04,0.22 -0.01,0.53 0.03,0.29 0.07,0.61 0.08,0.70 0.00,0.09 0.04,0.30 0.07,0.47 0.03,0.16 0.07,0.51 0.08,0.77 0.01,0.25 0.05,0.61 0.09,0.78 l 0.06,0.31 0.24,-0.13 c 0.13,-0.07 0.22,-0.16 0.20,-0.19 z m 0.56,0.07 c 0.30,-0.22 0.30,-0.27 0.08,-0.78 -0.09,-0.21 -0.29,-0.82 -0.43,-1.36 -0.14,-0.53 -0.28,-1.05 -0.31,-1.14 -0.03,-0.11 -0.02,-0.14 0.03,-0.08 0.04,0.04 0.22,0.58 0.39,1.18 0.17,0.60 0.37,1.25 0.46,1.44 0.14,0.32 0.15,0.33 0.33,0.20 l 0.18,-0.13 -0.36,-0.88 c -0.20,-0.48 -0.47,-1.08 -0.59,-1.34 -0.12,-0.25 -0.21,-0.47 -0.19,-0.50 0.05,-0.05 0.51,0.85 0.86,1.69 0.26,0.65 0.41,0.83 0.46,0.57 0.03,-0.15 -0.63,-1.60 -0.73,-1.60 -0.03,0 -0.15,-0.17 -0.26,-0.38 -0.11,-0.20 -0.28,-0.45 -0.38,-0.53 -0.16,-0.14 -0.17,-0.14 -0.06,-0.00 0.06,0.08 0.09,0.17 0.07,0.20 -0.08,0.08 -0.24,-0.30 -0.17,-0.41 0.03,-0.05 -0.03,-0.04 -0.14,0.03 -0.24,0.16 -0.24,0.16 -0.01,1.02 0.09,0.36 0.21,1.03 0.27,1.50 0.12,1.11 0.18,1.49 0.23,1.49 0.02,0 0.15,-0.08 0.29,-0.18 z m -7.96,-0.19 c -0.25,-0.33 -0.31,-0.37 -0.23,-0.15 0.04,0.12 0.35,0.43 0.43,0.44 0.01,0.00 -0.07,-0.13 -0.20,-0.29 z m 6.22,-0.83 c -0.00,-0.46 -0.04,-0.83 -0.08,-0.83 -0.04,0 -0.07,0.45 -0.06,1.00 0.00,0.66 0.03,0.95 0.08,0.83 0.04,-0.09 0.07,-0.54 0.06,-1.00 z M 13.91,25.07 c 0.03,-0.04 -0.02,-0.21 -0.12,-0.36 l -0.17,-0.27 -0.00,0.23 c -4.63e-4,0.12 -0.04,0.23 -0.09,0.23 -0.09,0 -0.06,-0.29 0.06,-0.64 0.06,-0.16 0.06,-0.17 -0.12,-0.00 -0.23,0.20 -0.23,0.51 0.00,0.73 0.20,0.19 0.37,0.22 0.45,0.08 z m 10.29,-0.22 c -0.08,-0.13 -0.36,-0.51 -0.60,-0.84 -0.24,-0.33 -0.45,-0.64 -0.45,-0.69 0,-0.14 -0.31,-0.50 -0.71,-0.82 l -0.36,-0.28 0.32,0.43 c 0.18,0.23 0.47,0.65 0.64,0.92 0.33,0.51 1.23,1.62 1.28,1.57 0.01,-0.01 -0.04,-0.13 -0.12,-0.27 z m -1.05,-0.36 c -0.14,-0.29 -0.24,-0.56 -0.21,-0.61 0.02,-0.04 0.00,-0.07 -0.06,-0.06 -0.06,0.01 -0.10,-0.03 -0.08,-0.13 0.01,-0.08 -0.01,-0.13 -0.05,-0.10 -0.04,0.02 -0.11,0.01 -0.13,-0.03 -0.02,-0.04 -0.01,-0.08 0.04,-0.08 0.11,0 -0.22,-0.64 -0.42,-0.79 -0.14,-0.11 -0.09,-0.01 0.18,0.39 0.08,0.12 0.13,0.23 0.09,0.23 -0.03,-9.26e-4 -0.25,-0.28 -0.48,-0.63 -0.41,-0.63 -0.83,-1.11 -0.83,-0.94 0,0.12 0.79,1.33 0.98,1.48 0.21,0.18 0.80,1.06 1.00,1.52 0.09,0.21 0.18,0.36 0.21,0.34 0.02,-0.02 -0.07,-0.27 -0.22,-0.56 z m -9.16,0.10 c -0.18,-0.27 -0.21,-0.38 -0.16,-0.70 0.02,-0.21 0.08,-0.42 0.13,-0.46 0.10,-0.10 0.11,-0.39 0.00,-0.39 -0.10,0 -0.26,0.55 -0.26,0.93 -4.56e-4,0.28 0.31,0.95 0.44,0.95 0.03,0 -0.03,-0.14 -0.15,-0.32 z m 8.85,-0.21 c -0.23,-0.34 -1.09,-1.46 -1.27,-1.65 -0.11,-0.12 0.01,0.10 0.31,0.54 0.13,0.20 0.23,0.39 0.20,0.41 -0.11,0.11 -0.95,-1.38 -0.86,-1.53 0.03,-0.05 0.01,-0.06 -0.03,-0.03 -0.05,0.03 -0.23,-0.13 -0.40,-0.36 -0.28,-0.38 -1.01,-0.87 -1.12,-0.75 -0.02,0.02 0.07,0.09 0.22,0.15 0.14,0.05 0.36,0.22 0.48,0.37 0.20,0.23 0.20,0.27 0.07,0.29 -0.08,0.01 -0.32,-0.08 -0.53,-0.23 -0.43,-0.30 -0.92,-0.52 -1.16,-0.52 -0.09,0 0.10,0.14 0.45,0.32 0.44,0.22 0.93,0.61 1.70,1.32 0.59,0.55 1.12,1.01 1.16,1.02 0.04,0.01 0.17,0.16 0.27,0.34 0.18,0.32 0.63,0.78 0.70,0.71 0.01,-0.01 -0.07,-0.19 -0.21,-0.40 z m -8.68,0.01 c -0.12,-0.18 -0.24,-0.32 -0.26,-0.30 -0.05,0.05 0.32,0.65 0.41,0.65 0.04,0 -0.02,-0.15 -0.14,-0.34 z m 0.78,-0.00 c 0.16,-0.14 0.30,-0.29 0.30,-0.32 0,-0.03 -0.22,-0.06 -0.48,-0.07 -0.47,-0.01 -0.48,-0.01 -0.29,0.11 0.13,0.09 0.18,0.19 0.15,0.34 -0.02,0.11 -0.02,0.20 -0.01,0.20 0.01,0 0.16,-0.12 0.33,-0.26 z m 9.71,0.01 c -0.01,-0.03 -0.00,-0.10 0.03,-0.16 0.09,-0.14 -0.38,-0.61 -0.62,-0.61 -0.17,0 -0.17,0.00 0.02,0.14 0.11,0.08 0.25,0.15 0.29,0.15 0.04,4.61e-4 0.08,0.03 0.08,0.08 6.61e-4,0.04 0.03,0.13 0.06,0.19 0.04,0.07 0.02,0.09 -0.05,0.06 -0.06,-0.02 -0.11,0.00 -0.11,0.08 0,0.07 0.03,0.13 0.07,0.13 0.04,0 0.04,0.04 0.01,0.10 -0.04,0.07 -0.01,0.07 0.08,-0.00 0.07,-0.06 0.12,-0.14 0.10,-0.17 z m 4.49,-0.86 c 0.01,-0.46 -0.04,-0.27 -0.10,0.29 -0.03,0.33 -0.02,0.42 0.02,0.25 0.03,-0.14 0.07,-0.38 0.08,-0.55 z m -4.88,0.54 c 0,-0.01 -0.09,-0.02 -0.20,-0.01 -0.11,0.00 -0.19,0.04 -0.17,0.07 0.03,0.05 0.38,0.00 0.38,-0.06 z m -9.42,-0.23 c 0.59,0.04 0.62,0.03 0.91,-0.20 l 0.29,-0.25 -0.21,-0.10 c -0.19,-0.09 -0.20,-0.09 -0.04,0.03 0.24,0.19 -0.02,0.17 -0.28,-0.02 -0.27,-0.20 -0.08,-0.28 0.38,-0.16 0.31,0.08 0.39,0.06 0.96,-0.22 0.65,-0.32 0.66,-0.47 0.02,-0.36 -0.17,0.03 -0.65,0.08 -1.05,0.12 l -0.73,0.06 0.77,0.02 0.77,0.02 -0.47,0.08 c -0.31,0.05 -0.59,0.05 -0.85,-0.00 -0.52,-0.12 -0.62,-0.00 -0.27,0.35 0.32,0.33 0.34,0.45 0.08,0.52 -0.28,0.07 -0.42,0.06 -0.36,-0.03 0.02,-0.04 0.14,-0.08 0.26,-0.08 0.27,0 0.26,-0.09 -0.03,-0.31 -0.22,-0.16 -0.24,-0.16 -0.33,-0.03 -0.04,0.07 -0.19,0.15 -0.33,0.16 -0.31,0.02 -0.33,0.05 -0.25,0.33 0.03,0.13 0.08,0.19 0.10,0.13 0.02,-0.07 0.20,-0.09 0.65,-0.05 z m 8.99,-0.09 c -0.18,-0.20 -0.15,-0.26 0.10,-0.22 0.03,0.00 0.06,-0.02 0.06,-0.05 0,-0.09 -0.68,-0.47 -0.74,-0.41 -0.05,0.05 0.35,0.63 0.56,0.80 0.21,0.18 0.22,0.11 0.01,-0.10 z m 5.03,-0.01 c -0.02,-0.02 -0.04,0.02 -0.04,0.11 0.00,0.10 0.02,0.12 0.05,0.05 0.02,-0.06 0.02,-0.13 -0.00,-0.16 z m 0.08,-0.42 c -0.02,-0.02 -0.04,0.02 -0.04,0.11 0.00,0.10 0.02,0.12 0.05,0.05 0.02,-0.06 0.02,-0.13 -0.00,-0.16 z M 14.31,23.20 c -0.06,-0.02 -0.13,-0.02 -0.16,0.00 -0.02,0.02 0.02,0.04 0.11,0.04 0.10,-0.00 0.12,-0.02 0.05,-0.05 z m 15.54,-0.11 c 0.12,-0.06 0.16,-0.17 0.15,-0.40 l -0.01,-0.31 -0.05,0.30 c -0.04,0.28 -0.07,0.30 -0.37,0.30 -0.20,0 -0.32,0.04 -0.32,0.10 0,0.12 0.37,0.14 0.60,0.01 z M 14.92,22.58 c 0.06,0 0.16,-0.09 0.21,-0.21 0.05,-0.11 0.14,-0.21 0.19,-0.21 0.05,0 0.25,-0.13 0.45,-0.29 0.19,-0.15 0.59,-0.40 0.87,-0.55 0.46,-0.23 0.48,-0.26 0.21,-0.22 -0.27,0.03 -0.28,0.03 -0.08,-0.05 0.13,-0.05 0.49,-0.07 0.92,-0.05 0.39,0.02 0.70,0.02 0.68,0.01 -0.01,-0.01 -0.34,-0.10 -0.72,-0.20 -1.23,-0.31 -1.98,-0.19 -2.62,0.40 -0.17,0.16 -0.32,0.26 -0.32,0.21 0,-0.14 0.56,-0.61 0.92,-0.75 0.45,-0.18 1.41,-0.17 2.23,0.03 0.41,0.10 0.97,0.17 1.35,0.17 0.50,0 0.74,0.04 1.01,0.18 0.38,0.19 0.89,0.22 1.19,0.06 0.09,-0.05 0.19,-0.07 0.22,-0.04 0.02,0.02 -0.10,0.11 -0.29,0.20 l -0.34,0.15 0.28,0.13 0.28,0.13 0.15,-0.56 c 0.11,-0.43 0.23,-0.63 0.48,-0.88 0.30,-0.29 0.33,-0.35 0.28,-0.64 -0.02,-0.17 -0.15,-0.48 -0.29,-0.69 -0.25,-0.40 -0.28,-0.41 -1.92,-0.90 L 19.90,17.88 v 0.27 0.27 l 0.70,0.05 c 1.07,0.07 1.11,0.08 1.32,0.26 0.24,0.20 0.19,0.27 -0.07,0.10 -0.53,-0.33 -1.84,-0.38 -3.52,-0.12 -0.53,0.08 -0.64,0.12 -0.56,0.21 0.10,0.13 0.48,0.14 0.97,0.03 0.79,-0.18 3.28,-0.11 2.96,0.08 -0.08,0.04 -0.06,0.09 0.07,0.16 0.10,0.05 0.18,0.13 0.18,0.18 0,0.04 -0.13,-0.01 -0.31,-0.14 -0.24,-0.18 -0.42,-0.24 -0.84,-0.27 -0.29,-0.01 -0.60,0.00 -0.69,0.05 -0.11,0.06 0.00,0.07 0.41,0.04 0.45,-0.03 0.62,-0.01 0.79,0.10 0.29,0.19 0.22,0.25 -0.09,0.09 -0.29,-0.15 -0.56,-0.16 -0.69,-0.03 -0.06,0.06 -0.25,0.06 -0.70,-0.00 -0.33,-0.05 -0.69,-0.07 -0.80,-0.03 -0.30,0.09 -0.57,0.32 -0.58,0.48 -0.00,0.15 -0.17,0.31 -0.17,0.15 0,-0.20 0.26,-0.59 0.43,-0.64 0.09,-0.03 0.16,-0.07 0.13,-0.09 -0.02,-0.02 -0.25,0.02 -0.51,0.09 -0.26,0.07 -0.64,0.12 -0.84,0.10 l -0.36,-0.03 0.41,-0.01 0.41,-0.01 -0.24,-0.19 c -0.16,-0.13 -0.50,-0.24 -1.08,-0.35 -0.46,-0.08 -0.86,-0.19 -0.88,-0.23 -0.05,-0.09 -0.06,-0.09 0.96,0.11 0.88,0.17 0.91,0.17 1.61,0.03 0.39,-0.08 0.82,-0.12 0.96,-0.10 0.36,0.06 0.54,-0.06 0.54,-0.40 0,-0.23 -0.05,-0.32 -0.35,-0.53 -0.35,-0.24 -0.35,-0.24 -1.78,-0.25 -0.78,-0.00 -1.60,-0.03 -1.83,-0.05 -0.22,-0.02 -0.52,-0.01 -0.67,0.02 -0.22,0.06 -0.24,0.05 -0.16,-0.04 0.05,-0.07 0.25,-0.12 0.44,-0.12 0.22,0 0.31,-0.03 0.27,-0.09 -0.04,-0.06 -0.01,-0.06 0.10,-0.00 0.37,0.19 1.17,0.28 2.01,0.22 l 0.85,-0.06 -0.57,-0.33 c -0.31,-0.18 -0.66,-0.35 -0.77,-0.38 -0.27,-0.06 -1.35,-0.78 -1.78,-1.18 l -0.34,-0.31 -0.17,0.21 c -0.09,0.11 -0.24,0.41 -0.32,0.65 -0.08,0.24 -0.26,0.55 -0.40,0.70 -0.13,0.14 -0.25,0.32 -0.25,0.40 -6.61e-4,0.07 -0.04,0.19 -0.09,0.26 -0.07,0.09 -0.07,0.07 -0.04,-0.10 0.03,-0.17 0.01,-0.23 -0.07,-0.23 -0.20,0 -0.06,-0.23 0.21,-0.34 0.13,-0.05 0.30,-0.18 0.36,-0.28 0.18,-0.27 0.40,-1.01 0.34,-1.11 -0.03,-0.05 -0.01,-0.06 0.04,-0.02 0.05,0.03 0.09,0.00 0.09,-0.06 0,-0.07 0.04,-0.14 0.10,-0.16 0.07,-0.02 0.04,-0.10 -0.09,-0.25 -0.16,-0.18 -0.25,-0.21 -0.60,-0.18 l -0.40,0.02 0.34,-0.11 0.34,-0.11 -0.22,-0.09 c -0.12,-0.04 -0.25,-0.13 -0.28,-0.18 -0.07,-0.11 0.00,-0.11 0.21,-0.00 0.29,0.15 0.09,-0.13 -0.31,-0.48 -0.21,-0.17 -0.36,-0.33 -0.33,-0.36 0.02,-0.02 0.07,-0.01 0.11,0.03 0.03,0.04 0.13,0.14 0.22,0.21 0.14,0.11 0.15,0.11 0.09,0 -0.03,-0.07 -0.13,-0.19 -0.20,-0.27 -0.07,-0.08 -0.10,-0.17 -0.07,-0.20 0.07,-0.07 0.03,-0.12 0.68,0.87 0.71,1.09 1.57,1.90 2.52,2.39 0.38,0.19 0.43,0.17 0.19,-0.07 -0.34,-0.36 -0.09,-0.23 0.29,0.15 0.20,0.20 0.66,0.51 1.04,0.69 0.37,0.17 0.84,0.44 1.06,0.59 0.44,0.31 0.88,0.47 1.32,0.49 0.17,0.00 0.31,0.04 0.31,0.08 0,0.04 0.08,0.05 0.18,0.01 0.11,-0.03 0.16,-0.02 0.13,0.02 -0.05,0.08 0.36,0.22 1.13,0.36 0.60,0.11 0.99,0.10 1.93,-0.02 l 0.77,-0.10 -1.46,-0.05 C 22.50,18.21 21.86,18.08 21.19,17.73 c -0.34,-0.18 -0.09,-0.16 0.42,0.04 0.73,0.29 1.68,0.42 2.85,0.38 0.63,-0.01 1.07,0.00 1.09,0.05 0.01,0.05 0.27,0.04 0.69,-0.01 1.16,-0.16 1.73,-0.12 2.18,0.13 l 0.39,0.23 -0.06,-0.25 c -0.03,-0.13 -0.09,-0.28 -0.13,-0.32 -0.04,-0.04 -0.76,-0.08 -1.60,-0.09 -1.46,-0.02 -3.16,-0.19 -3.80,-0.38 -0.16,-0.04 -0.54,-0.12 -0.83,-0.16 -0.29,-0.04 -0.94,-0.23 -1.43,-0.42 -0.49,-0.19 -0.95,-0.35 -1.03,-0.35 -0.07,0 -0.13,-0.03 -0.13,-0.08 0,-0.11 -0.01,-0.12 1.05,0.27 0.53,0.19 1.02,0.35 1.09,0.35 0.07,-0.00 0.51,0.09 0.98,0.21 0.53,0.13 1.09,0.21 1.48,0.21 0.34,0 0.60,0.03 0.57,0.06 -0.06,0.09 0.80,0.16 2.38,0.19 l 1.35,0.02 -4.63e-4,-0.34 c 0,-0.19 -0.04,-0.38 -0.09,-0.44 -0.06,-0.06 -0.06,-0.18 -0.00,-0.39 0.06,-0.24 0.06,-0.29 -0.02,-0.26 -0.06,0.02 -0.31,-0.01 -0.56,-0.09 -0.24,-0.07 -0.68,-0.13 -0.97,-0.14 -0.81,-0.00 -1.98,-0.20 -2.97,-0.48 -0.49,-0.14 -1.46,-0.40 -2.14,-0.58 -0.68,-0.17 -1.43,-0.37 -1.67,-0.44 -0.44,-0.13 -1.24,-0.60 -1.24,-0.73 0,-0.07 0.35,0.12 0.62,0.34 0.08,0.06 0.17,0.10 0.20,0.06 0.12,-0.12 -0.76,-0.85 -1.88,-1.54 -0.22,-0.13 -0.55,-0.63 -0.47,-0.71 0.02,-0.02 0.12,0.08 0.21,0.24 0.26,0.41 0.24,0.05 -0.03,-0.50 -0.21,-0.44 -1.05,-1.31 -1.25,-1.31 -0.05,0 0.02,0.11 0.18,0.25 0.43,0.36 0.24,0.31 -0.26,-0.07 -0.65,-0.49 -1.02,-0.59 -1.52,-0.41 -0.22,0.07 -0.46,0.14 -0.54,0.14 -0.07,0 -0.19,0.09 -0.25,0.20 -0.06,0.11 -0.19,0.35 -0.29,0.54 -0.20,0.37 -0.35,1.15 -0.34,1.76 0.00,0.22 -0.01,0.40 -0.05,0.40 -0.03,0 -0.06,-0.12 -0.07,-0.27 -0.00,-0.25 -0.01,-0.24 -0.08,0.10 -0.13,0.62 -0.03,2.80 0.13,3.26 0.08,0.21 0.18,0.56 0.22,0.77 0.11,0.59 0.13,0.69 0.37,1.28 0.12,0.30 0.22,0.60 0.22,0.67 0,0.08 0.05,0.05 0.16,-0.07 0.09,-0.11 0.17,-0.16 0.17,-0.11 0.00,0.05 -0.07,0.17 -0.17,0.28 -0.19,0.21 -0.17,0.58 0.06,1.09 l 0.12,0.26 0.42,-0.21 c 0.38,-0.18 0.52,-0.20 1.39,-0.19 0.53,0.00 1.06,0.01 1.18,0.02 0.11,0.00 0.29,-0.02 0.38,-0.05 0.14,-0.05 0.15,-0.05 0.06,0.05 -0.08,0.09 -0.40,0.11 -1.37,0.11 -1.12,0 -1.29,0.01 -1.56,0.17 -0.28,0.16 -0.30,0.20 -0.30,0.66 -0.00,0.26 -0.03,0.51 -0.06,0.54 -0.03,0.03 -0.05,0.37 -0.05,0.75 0.00,0.67 0.00,0.68 0.12,0.41 0.06,-0.15 0.17,-0.27 0.24,-0.27 z m 0.66,-0.84 c 0,-0.04 0.11,-0.16 0.25,-0.27 0.14,-0.10 0.25,-0.15 0.25,-0.11 -0.00,0.10 -0.51,0.48 -0.51,0.38 z m 0.68,-0.52 c 0.07,-0.04 0.16,-0.08 0.21,-0.08 0.04,0 0.02,0.03 -0.04,0.08 -0.07,0.04 -0.16,0.08 -0.21,0.08 -0.04,0 -0.02,-0.03 0.04,-0.08 z m 1.82,-1.59 c -0.00,-0.14 0.01,-0.21 0.03,-0.15 0.02,0.05 0.02,0.17 0.00,0.25 -0.02,0.08 -0.04,0.03 -0.04,-0.10 z m -3.54,-0.77 c 0,-0.07 0.96,-0.47 1.01,-0.43 0.05,0.05 0.06,0.04 -0.43,0.28 -0.40,0.18 -0.57,0.23 -0.57,0.14 z m 13.70,-0.81 c -0.02,-0.04 -0.01,-0.08 0.03,-0.08 0.04,0 0.10,0.03 0.13,0.08 0.02,0.04 0.01,0.08 -0.03,0.08 -0.04,0 -0.10,-0.03 -0.13,-0.08 z m -2.83,-0.51 c -0.02,-0.04 0.00,-0.08 0.08,-0.08 0.15,0 0.17,0.05 0.05,0.12 -0.04,0.02 -0.10,0.01 -0.13,-0.03 z m -5.37,-0.19 c -0.14,-0.03 -0.25,-0.08 -0.23,-0.10 0.06,-0.06 1.01,0.06 1.01,0.13 0,0.08 -0.39,0.06 -0.77,-0.03 z m 0.99,0.02 c -0.16,-0.07 -0.16,-0.07 0.02,-0.07 0.10,-0.00 0.19,0.03 0.19,0.07 0,0.04 -0.00,0.08 -0.02,0.07 -0.01,-0.00 -0.09,-0.03 -0.19,-0.07 z m -2.03,-0.49 c -0.58,-0.47 -1.52,-1.16 -1.82,-1.32 -0.14,-0.08 -0.21,-0.14 -0.15,-0.15 0.14,-0.00 0.59,0.22 0.63,0.32 0.01,0.04 0.32,0.27 0.68,0.51 0.36,0.24 0.68,0.48 0.71,0.53 0.03,0.05 0.17,0.16 0.32,0.25 0.14,0.09 0.21,0.16 0.13,0.16 -0.07,4.6e-4 -0.30,-0.14 -0.52,-0.32 z m -3.51,-0.10 c 0,-0.04 0.03,-0.08 0.08,-0.08 0.04,0 0.08,0.03 0.08,0.08 0,0.04 -0.03,0.08 -0.08,0.08 -0.04,0 -0.08,-0.03 -0.08,-0.08 z m 5.43,-0.27 c -0.24,-0.04 -0.45,-0.11 -0.45,-0.16 0,-0.09 0.02,-0.09 0.27,-0.00 0.10,0.04 0.42,0.09 0.70,0.12 0.27,0.02 0.52,0.07 0.55,0.09 0.06,0.06 -0.58,0.03 -1.08,-0.05 z m -5.69,-0.06 c -0.16,-0.05 -0.10,-0.06 0.24,-0.06 0.28,0.00 0.41,0.02 0.34,0.07 -0.13,0.08 -0.29,0.08 -0.58,-0.00 z M 16.14,16.22 c -0.20,-0.08 -0.55,-0.48 -0.54,-0.63 0.00,-0.05 0.06,-0.01 0.13,0.07 0.29,0.40 0.39,0.47 0.63,0.47 0.14,0 0.25,0.03 0.25,0.08 0,0.10 -0.23,0.10 -0.48,0.00 z m 3.66,-0.42 c 0,-0.04 0.07,-0.05 0.17,-0.03 0.09,0.02 0.17,0.05 0.17,0.07 0,0.01 -0.07,0.03 -0.17,0.03 -0.09,0 -0.17,-0.03 -0.17,-0.07 z m 0.45,0.02 c 0.02,-0.02 0.10,-0.03 0.16,-0.00 0.06,0.02 0.04,0.04 -0.05,0.05 -0.09,0.00 -0.14,-0.01 -0.11,-0.04 z m 0.32,-0.03 c 0,-0.04 0.05,-0.08 0.12,-0.08 0.07,0 0.12,0.01 0.12,0.03 0,0.01 -0.05,0.05 -0.12,0.08 -0.07,0.02 -0.12,0.01 -0.12,-0.03 z m -1.28,-0.30 c -0.19,-0.17 -0.35,-0.35 -0.35,-0.40 0,-0.05 0.07,-0.01 0.16,0.08 0.08,0.09 0.26,0.25 0.40,0.36 0.13,0.10 0.21,0.20 0.18,0.23 -0.02,0.02 -0.20,-0.09 -0.39,-0.26 z m 1.64,0.16 c 0.02,-0.02 0.10,-0.03 0.16,-0.00 0.06,0.02 0.04,0.04 -0.05,0.05 -0.09,0.00 -0.14,-0.01 -0.11,-0.04 z m 0.44,-0.11 c 0.23,-0.10 0.47,-0.10 0.47,0 0,0.04 -0.14,0.08 -0.32,0.08 -0.25,-0.00 -0.28,-0.02 -0.15,-0.08 z m -4.11,-2.62 c -0.03,-0.08 -0.01,-0.12 0.04,-0.10 0.12,0.04 0.19,0.23 0.08,0.23 -0.04,0 -0.10,-0.06 -0.13,-0.13 z m -3.06,-1.32 c 0,-0.04 0.03,-0.08 0.08,-0.08 0.04,0 0.08,0.03 0.08,0.08 0,0.04 -0.03,0.08 -0.08,0.08 -0.04,0 -0.08,-0.03 -0.08,-0.08 z m 6.31,10.91 c -0.19,-0.19 -0.44,-0.30 -1.16,-0.47 -1.01,-0.25 -1.15,-0.31 -1.06,-0.46 0.07,-0.12 0.45,-0.04 1.06,0.22 0.25,0.11 0.48,0.18 0.50,0.16 0.01,-0.01 -0.21,-0.17 -0.51,-0.34 -0.50,-0.28 -1.33,-0.56 -1.66,-0.56 -0.36,0 -2.05,0.97 -1.95,1.12 0.02,0.04 0.27,0.07 0.54,0.07 0.27,0 0.96,0.05 1.52,0.12 0.56,0.06 1.30,0.14 1.66,0.17 0.35,0.03 0.77,0.10 0.94,0.15 0.40,0.13 0.42,0.09 0.12,-0.20 z m -0.90,-0.21 c -0.02,-0.02 -0.57,-0.12 -1.23,-0.23 -0.80,-0.13 -1.09,-0.20 -0.87,-0.22 0.17,-0.01 0.32,-0.06 0.32,-0.10 0,-0.04 0.08,-0.02 0.19,0.04 0.11,0.07 0.53,0.19 0.94,0.26 0.41,0.07 0.74,0.17 0.74,0.21 0,0.08 -0.03,0.09 -0.09,0.03 z m 10.20,0.20 c 0.02,-0.28 0.01,-0.30 -0.18,-0.26 -0.17,0.03 -0.20,0.09 -0.20,0.33 0,0.25 0.02,0.29 0.18,0.26 0.14,-0.02 0.18,-0.09 0.20,-0.33 z m -15.43,0.08 c 0,-0.04 -0.03,-0.06 -0.08,-0.03 -0.04,0.02 -0.08,0.07 -0.08,0.09 0,0.02 0.03,0.03 0.08,0.03 0.04,0 0.08,-0.04 0.08,-0.09 z m 1.69,-0.08 c -0.18,-0.04 -0.39,-0.11 -0.48,-0.16 -0.11,-0.06 -0.18,-0.05 -0.25,0.03 -0.12,0.15 0.03,0.19 0.64,0.20 l 0.42,0.00 -0.32,-0.07 z m 4.96,-0.78 c -0.02,-0.07 -0.10,-0.15 -0.17,-0.18 -0.09,-0.03 -0.08,0.00 0.02,0.15 0.16,0.22 0.22,0.23 0.14,0.02 z m 9.07,0.10 c 0.10,-0.06 0.07,-0.08 -0.11,-0.08 -0.13,-9.26e-4 -0.21,0.03 -0.18,0.08 0.06,0.10 0.13,0.10 0.30,0 z m -11.41,-0.14 c -0.06,-0.02 -0.13,-0.02 -0.16,0.00 -0.02,0.02 0.02,0.04 0.11,0.04 0.10,-0.00 0.12,-0.02 0.05,-0.05 z m 1.52,-0.16 c -0.19,-0.21 -0.58,-0.41 -0.65,-0.34 -0.03,0.03 0.74,0.56 0.82,0.57 0.01,4.61e-4 -0.05,-0.10 -0.17,-0.22 z m 10.51,-0.47 c 0.40,-0.41 0.49,-0.55 0.49,-0.79 0,-0.55 -0.39,-1.17 -0.74,-1.17 -0.05,0 -0.12,0.14 -0.15,0.32 -0.02,0.17 -0.12,0.66 -0.20,1.07 -0.09,0.49 -0.12,0.74 -0.05,0.72 0.14,-0.04 0.62,-1.05 0.73,-1.52 0.03,-0.16 0.06,-0.18 0.10,-0.07 0.07,0.17 -0.58,1.68 -0.76,1.74 -0.07,0.02 -0.36,0.07 -0.64,0.10 -0.32,0.03 -0.46,0.07 -0.39,0.12 0.06,0.04 0.34,0.04 0.62,0.01 0.48,-0.05 0.54,-0.07 1.00,-0.55 z m 0.32,-0.00 c 0,-0.11 -0.03,-0.09 -0.26,0.15 l -0.20,0.22 0.23,-0.15 c 0.12,-0.08 0.23,-0.18 0.23,-0.22 z m -1.83,0.13 c -0.02,-0.07 -0.05,-0.17 -0.05,-0.21 0,-0.12 -0.71,-0.05 -0.75,0.07 -0.01,0.06 0.03,0.10 0.12,0.10 0.13,-0.00 0.13,-0.01 0.02,-0.08 -0.11,-0.07 -0.10,-0.08 0.02,-0.08 0.08,-4.6e-4 0.15,0.05 0.15,0.12 0,0.11 0.14,0.18 0.41,0.21 0.07,0.00 0.09,-0.04 0.06,-0.12 z m 0.54,-0.37 c 0.09,-0.05 0.19,-0.25 0.25,-0.51 0.11,-0.54 0.11,-0.62 0.00,-0.55 -0.16,0.10 -0.70,0.06 -0.78,-0.05 -0.05,-0.07 -0.05,0.10 -0.02,0.48 0.06,0.70 0.18,0.84 0.55,0.64 z M 28.82,20.55 c 0,-0.07 -0.03,-0.10 -0.08,-0.08 -0.04,0.02 -0.08,0.08 -0.08,0.13 0,0.04 0.03,0.08 0.08,0.08 0.04,0 0.08,-0.06 0.08,-0.13 z m 0.22,-0.18 c -0.02,-0.17 -0.05,-0.54 -0.05,-0.81 -0.00,-0.69 -0.14,-0.61 -0.22,0.12 -0.06,0.55 -0.05,0.63 0.07,0.68 0.08,0.03 0.12,0.11 0.09,0.19 -0.02,0.07 -0.00,0.13 0.05,0.13 0.07,0 0.09,-0.09 0.05,-0.32 z m -5.79,-1.12 0.42,-0.53 -0.37,-0.00 c -0.20,-9.26e-4 -0.52,-0.03 -0.71,-0.08 -0.18,-0.04 -0.35,-0.06 -0.37,-0.04 -0.01,0.01 0.05,0.15 0.15,0.30 0.10,0.14 0.21,0.42 0.23,0.60 0.02,0.18 0.08,0.33 0.13,0.31 0.04,-0.01 0.27,-0.26 0.51,-0.56 z m 8.72,0.34 c -0.29,-0.68 -0.67,-1.02 -1.27,-1.16 -0.19,-0.04 -0.23,-0.02 -0.26,0.16 -0.03,0.19 -0.01,0.21 0.31,0.22 0.19,0.00 0.30,0.02 0.24,0.05 -0.07,0.02 0.02,0.16 0.25,0.37 0.28,0.25 0.39,0.30 0.48,0.23 0.08,-0.07 0.11,-0.06 0.09,0.02 -0.03,0.23 0.00,0.33 0.12,0.33 0.10,0 0.10,-0.03 0.02,-0.23 z m -0.60,-0.36 c -0.13,-0.13 -0.20,-0.25 -0.16,-0.25 0.07,0 0.28,0.21 0.39,0.40 0.09,0.16 0.03,0.12 -0.23,-0.15 z m -1.40,0.32 c 0.12,-0.09 0.08,-0.10 -0.27,-0.10 -0.37,0 -0.40,0.01 -0.23,0.10 0.24,0.13 0.33,0.13 0.51,0.00 z m 0.19,-0.33 c 0.02,-0.04 0.06,-0.21 0.08,-0.37 l 0.03,-0.29 -0.21,0.21 c -0.24,0.24 -0.52,0.27 -0.75,0.06 -0.16,-0.14 -0.16,-0.14 -0.13,0.02 0.02,0.14 0.10,0.17 0.53,0.16 0.43,-0.00 0.47,0.01 0.34,0.11 -0.08,0.06 -0.30,0.10 -0.51,0.08 -0.19,-0.01 -0.33,-0.00 -0.30,0.02 0.15,0.14 0.83,0.12 0.92,-0.02 z m 1.84,-0.28 c 0,-0.30 -0.11,-0.40 -0.20,-0.16 -0.04,0.10 0.09,0.46 0.18,0.46 0.01,0 0.02,-0.13 0.02,-0.30 z m -12.18,0.07 c -0.05,-0.02 -0.15,-0.02 -0.21,0 -0.05,0.02 -0.01,0.04 0.10,0.04 0.11,0 0.16,-0.01 0.10,-0.04 z m 10.24,-0.38 c 0.04,-0.03 -0.06,-0.04 -0.24,-0.01 -0.22,0.03 -0.34,0.01 -0.39,-0.06 -0.03,-0.06 -0.09,-0.09 -0.13,-0.05 -0.03,0.03 -0.01,0.11 0.04,0.18 0.10,0.13 0.56,0.10 0.72,-0.04 z m 2.22,0.05 c 0.02,-0.06 0.02,-0.26 -0.00,-0.43 -0.03,-0.23 -0.18,-0.44 -0.63,-0.87 -0.32,-0.31 -0.59,-0.61 -0.59,-0.66 0,-0.04 0.24,0.14 0.53,0.44 0.55,0.55 0.66,0.61 0.66,0.41 0,-0.16 -1.12,-1.16 -1.30,-1.16 -0.26,0 -0.28,0.00 -0.25,0.15 0.05,0.30 0.01,1.06 -0.07,1.21 -0.07,0.14 -0.04,0.18 0.19,0.31 0.15,0.07 0.41,0.25 0.57,0.38 0.22,0.18 0.32,0.21 0.40,0.14 0.18,-0.15 0.13,-0.29 -0.20,-0.55 -0.47,-0.35 -0.72,-0.63 -0.57,-0.63 0.06,0 0.12,0.03 0.12,0.07 0,0.04 0.25,0.27 0.57,0.51 0.31,0.24 0.52,0.44 0.47,0.44 -0.05,0 -0.10,0.07 -0.10,0.17 0,0.19 0.13,0.23 0.20,0.04 z m -1.61,-0.47 c -0.02,-0.04 -0.07,-0.08 -0.09,-0.08 -0.02,0 -0.03,0.03 -0.03,0.08 0,0.04 0.04,0.08 0.09,0.08 0.05,0 0.06,-0.03 0.03,-0.08 z m -0.43,-0.43 c -0.10,-0.19 -0.17,-0.24 -0.28,-0.19 -0.07,0.03 -0.27,0.06 -0.42,0.05 -0.15,-0.00 -0.27,0.02 -0.27,0.06 0,0.04 0.18,0.07 0.41,0.07 0.26,0 0.45,0.04 0.52,0.12 0.17,0.20 0.18,0.15 0.03,-0.13 z m -1.08,-0.18 c 0.15,-0.15 0.12,-0.24 -0.04,-0.17 -0.13,0.04 -0.13,0.03 -0.03,-0.08 0.10,-0.12 0.09,-0.14 -0.06,-0.14 -0.18,0 -0.22,0.12 -0.12,0.37 0.06,0.16 0.13,0.17 0.27,0.03 z m 1.45,-0.26 c 0.03,-0.33 -0.05,-0.39 -0.26,-0.18 -0.07,0.07 -0.17,0.12 -0.23,0.12 -0.06,0 -0.01,0.09 0.09,0.21 0.26,0.27 0.35,0.23 0.40,-0.15 z m -0.66,0.05 c 0.05,-0.05 -0.19,-0.48 -0.30,-0.51 -0.09,-0.03 -0.21,0.47 -0.14,0.60 0.03,0.06 0.35,0.00 0.45,-0.08 z m -0.59,-0.37 c 0,-0.10 -0.09,-0.10 -0.25,0 -0.10,0.06 -0.09,0.08 0.06,0.08 0.10,4.6e-4 0.19,-0.03 0.19,-0.08 z m 0.77,-0.00 c 0,-0.04 -0.03,-0.06 -0.08,-0.03 -0.04,0.02 -0.08,0.07 -0.08,0.09 0,0.02 0.03,0.03 0.08,0.03 0.04,0 0.08,-0.04 0.08,-0.09 z m -0.60,-0.37 c 0,-0.06 -0.08,-0.13 -0.19,-0.16 -0.14,-0.02 -0.12,-0.04 0.07,-0.04 0.23,-0.00 0.26,0.01 0.22,0.16 -0.02,0.09 -0.00,0.17 0.05,0.17 0.05,0 0.09,-0.06 0.09,-0.15 0,-0.09 0.06,-0.15 0.17,-0.15 0.09,0 0.17,0.03 0.17,0.06 0,0.03 -0.06,0.06 -0.14,0.06 -0.10,0 -0.11,0.02 -0.05,0.09 0.05,0.05 0.19,0.06 0.37,0.01 l 0.28,-0.07 -0.27,-0.23 c -0.18,-0.15 -0.37,-0.23 -0.57,-0.23 -0.57,0 -1.08,0.45 -0.61,0.54 0.35,0.06 0.40,0.06 0.40,-0.06 z m 0.76,-0.61 c -0.25,-0.26 -0.29,-0.28 -0.34,-0.14 -0.03,0.11 0.00,0.17 0.18,0.25 0.12,0.05 0.26,0.14 0.29,0.19 0.03,0.05 0.08,0.07 0.11,0.05 0.02,-0.02 -0.08,-0.18 -0.24,-0.35 z m -1.41,0.04 c 0.14,-0.16 0.14,-0.17 -0.05,-0.24 -0.20,-0.07 -1.15,-0.05 -1.53,0.04 -0.16,0.03 -0.05,0.08 0.47,0.20 0.90,0.19 0.93,0.19 1.11,9.25e-4 z m 0.66,-0.13 c 0.20,-0.27 -0.02,-0.21 -0.44,0.12 l -0.21,0.17 0.30,-0.10 c 0.16,-0.05 0.32,-0.14 0.36,-0.19 z m -2.83,-0.24 c 0.20,-0.25 0.21,-0.30 0.10,-0.39 -0.10,-0.08 -0.15,-0.07 -0.28,0.03 -0.08,0.07 -0.28,0.15 -0.44,0.18 l -0.29,0.04 0.25,-0.09 c 0.41,-0.15 0.48,-0.24 0.42,-0.54 -0.04,-0.23 -0.03,-0.24 0.05,-0.09 0.18,0.31 0.46,0.54 0.57,0.48 0.12,-0.07 -0.31,-0.60 -1.35,-1.61 -0.40,-0.39 -0.68,-0.71 -0.62,-0.71 0.05,-0.00 0.14,0.06 0.19,0.14 0.08,0.14 0.08,0.14 0.08,-0.00 0.00,-0.08 -0.03,-0.21 -0.07,-0.30 -0.04,-0.08 -0.18,-0.36 -0.31,-0.62 -0.26,-0.52 -0.65,-0.98 -0.99,-1.16 -0.12,-0.06 -0.58,-0.23 -1.01,-0.38 -0.83,-0.27 -1.54,-0.62 -1.92,-0.94 -0.07,-0.06 -0.15,-0.10 -0.17,-0.08 -0.05,0.05 -0.55,1.02 -0.52,1.02 0.01,0 0.20,-0.08 0.42,-0.17 0.22,-0.09 0.44,-0.16 0.50,-0.14 0.11,0.04 -0.63,0.39 -0.99,0.46 -0.36,0.07 -0.58,0.39 -0.48,0.73 0.08,0.31 0.39,0.60 0.56,0.54 0.06,-0.02 0.13,-0.00 0.16,0.03 0.04,0.08 -0.06,0.11 -0.28,0.08 -0.05,-0.00 -0.10,0.04 -0.10,0.11 0,0.07 -0.03,0.13 -0.08,0.13 -0.04,0 -0.08,0.13 -0.08,0.31 0,0.24 0.02,0.29 0.12,0.26 0.07,-0.02 0.12,-0.01 0.12,0.03 0,0.04 -0.05,0.08 -0.11,0.08 -0.06,0 -0.15,0.08 -0.20,0.18 l -0.08,0.18 -0.04,-0.18 c -0.02,-0.10 -0.01,-0.18 0.02,-0.18 0.08,0 0.10,-0.53 0.02,-0.93 -0.05,-0.25 -0.06,-0.26 -0.40,-0.22 l -0.35,0.04 0.32,-0.09 c 0.24,-0.06 0.32,-0.13 0.32,-0.27 0,-0.32 -0.35,-0.71 -0.82,-0.91 -0.53,-0.23 -0.97,-0.66 -1.27,-1.25 -0.12,-0.23 -0.21,-0.37 -0.22,-0.30 -0.00,0.08 -0.03,0.07 -0.12,-0.04 -0.06,-0.09 -0.12,-0.12 -0.13,-0.08 -0.00,0.04 -0.03,0.03 -0.07,-0.02 -0.05,-0.08 -0.19,-0.05 -0.61,0.11 -0.71,0.29 -1.53,0.70 -1.79,0.90 -0.25,0.19 -0.24,0.19 0.35,-0.01 0.26,-0.09 0.59,-0.17 0.73,-0.17 0.28,0 1.14,0.23 1.25,0.35 0.11,0.10 0.04,0.09 -0.38,-0.05 -0.20,-0.07 -0.52,-0.12 -0.71,-0.12 l -0.35,4.61e-4 0.23,0.12 c 0.12,0.06 0.28,0.15 0.34,0.19 0.05,0.03 0.18,0.05 0.28,0.04 0.25,-0.03 1.10,0.76 1.36,1.27 0.11,0.21 0.22,0.53 0.25,0.70 0.04,0.24 0.13,0.34 0.51,0.57 0.48,0.28 1.45,1.17 1.51,1.37 0.02,0.07 0.47,0.22 1.13,0.39 0.96,0.24 1.10,0.25 1.14,0.13 0.02,-0.07 0.17,-0.44 0.33,-0.82 0.26,-0.62 0.40,-1.14 0.50,-1.89 0.02,-0.14 0.02,0.06 0.00,0.45 l -0.03,0.71 0.30,-0.18 c 0.16,-0.10 0.32,-0.16 0.34,-0.14 0.02,0.02 -0.15,0.16 -0.39,0.31 -0.23,0.14 -0.43,0.32 -0.43,0.38 0,0.06 0.15,0.30 0.34,0.53 0.18,0.22 0.32,0.43 0.29,0.45 -0.02,0.02 -0.07,4.62e-4 -0.10,-0.05 -0.03,-0.05 -0.17,-0.24 -0.31,-0.41 -0.23,-0.29 -0.25,-0.30 -0.36,-0.16 -0.16,0.22 -0.14,0.30 0.17,0.63 0.15,0.16 0.32,0.38 0.38,0.47 0.10,0.20 0.87,0.42 0.88,0.26 0.00,-0.05 0.04,-0.03 0.08,0.04 0.08,0.14 0.64,0.29 1.54,0.41 0.25,0.03 0.49,0.06 0.51,0.07 0.02,0.00 0.14,-0.12 0.27,-0.28 z M 23.77,14.93 c -0.05,-0.09 -0.07,-0.17 -0.04,-0.17 0.03,0 0.11,0.07 0.17,0.17 0.05,0.09 0.07,0.17 0.04,0.17 -0.03,0 -0.11,-0.07 -0.17,-0.17 z m 2.47,-0.42 c 0,-0.04 0.03,-0.08 0.08,-0.08 0.04,0 0.08,0.03 0.08,0.08 0,0.04 -0.03,0.08 -0.08,0.08 -0.04,0 -0.08,-0.03 -0.08,-0.08 z M 26.03,14.15 c -0.08,-0.09 -0.11,-0.17 -0.05,-0.17 0.05,0 0.13,0.07 0.18,0.17 0.05,0.09 0.07,0.17 0.05,0.17 -0.01,0 -0.10,-0.07 -0.18,-0.17 z m -6.16,-0.30 c -0.03,-0.03 -0.06,-0.12 -0.06,-0.19 0,-0.09 0.02,-0.10 0.09,-0.03 0.05,0.05 0.08,0.14 0.06,0.19 -0.01,0.05 -0.06,0.07 -0.09,0.03 z m 4.36,-0.80 c -0.03,-0.05 0.05,-0.08 0.20,-0.08 0.14,0 0.26,0.03 0.26,0.08 0,0.04 -0.09,0.08 -0.20,0.08 -0.11,0 -0.23,-0.03 -0.26,-0.08 z m -4.94,-0.08 c 0,-0.04 0.01,-0.08 0.03,-0.08 0.02,0 0.06,0.03 0.09,0.08 0.02,0.04 0.01,0.08 -0.03,0.08 -0.04,0 -0.09,-0.03 -0.09,-0.08 z m 1.03,0.02 c 0,-0.10 0.58,-0.28 0.64,-0.19 0.02,0.03 -0.05,0.09 -0.16,0.12 -0.11,0.02 -0.26,0.07 -0.34,0.10 -0.07,0.02 -0.13,0.01 -0.13,-0.02 z m 3.60,-0.02 c 0,-0.04 0.01,-0.08 0.03,-0.08 0.02,0 0.06,0.03 0.09,0.08 0.02,0.04 0.01,0.08 -0.03,0.08 -0.05,0 -0.09,-0.03 -0.09,-0.08 z m -1.28,-1.77 c -0.21,-0.11 -0.32,-0.19 -0.24,-0.17 0.07,0.02 0.24,-0.03 0.35,-0.12 0.28,-0.22 0.36,-0.21 0.14,0.02 l -0.18,0.19 0.26,0.10 c 0.14,0.05 0.26,0.12 0.26,0.15 0,0.09 -0.23,0.02 -0.60,-0.18 z M 21.82,10.97 c -0.03,-0.04 0.03,-0.07 0.16,-0.06 0.12,0.01 0.21,0.04 0.21,0.08 0,0.09 -0.32,0.08 -0.38,-0.01 z m -0.34,-0.08 c -0.02,-0.04 -0.01,-0.08 0.03,-0.08 0.04,0 0.10,0.03 0.13,0.08 0.02,0.04 0.01,0.08 -0.03,0.08 -0.04,0 -0.11,-0.03 -0.13,-0.08 z M 17.97,10.57 c -0.12,-0.01 -0.23,-0.07 -0.23,-0.12 0,-0.04 0.06,-0.06 0.13,-0.03 0.07,0.02 0.20,0.05 0.30,0.05 0.09,0 0.16,0.03 0.16,0.08 0,0.04 -0.02,0.08 -0.06,0.07 -0.03,-0.00 -0.17,-0.02 -0.30,-0.04 z m -0.57,-0.19 c 0,-0.04 0.03,-0.08 0.08,-0.08 0.04,0 0.10,0.03 0.13,0.08 0.02,0.04 -0.00,0.08 -0.08,0.08 -0.07,0 -0.13,-0.03 -0.13,-0.08 z m -0.25,-0.08 c 0,-0.04 0.01,-0.08 0.03,-0.08 0.02,0 0.06,0.03 0.09,0.08 0.02,0.04 0.01,0.08 -0.03,0.08 -0.05,0 -0.09,-0.03 -0.09,-0.08 z m 9.94,5.41 c 0.16,-0.14 0.35,-0.25 0.44,-0.25 0.10,0.00 0.09,0.02 -0.04,0.08 -0.10,0.04 -0.19,0.08 -0.19,0.10 0,0.01 0.23,0.01 0.52,-0.00 0.28,-0.01 0.50,-0.04 0.48,-0.07 -0.09,-0.09 -0.95,-0.27 -1.05,-0.21 -0.14,0.08 -0.58,0.61 -0.50,0.61 0.03,0 0.19,-0.11 0.35,-0.25 z m 2.26,0.00 c 0.06,-0.04 0.10,-0.10 0.07,-0.13 -0.03,-0.03 -0.14,0.00 -0.25,0.08 -0.21,0.14 -0.04,0.19 0.18,0.05 z m -0.34,-0.13 c 0,-0.02 -0.03,-0.03 -0.08,-0.03 -0.04,0 -0.08,0.04 -0.08,0.09 0,0.04 0.03,0.06 0.08,0.03 0.04,-0.02 0.08,-0.07 0.08,-0.09 z m -5.85,-0.55 c -0.10,-0.14 -0.28,-0.31 -0.38,-0.38 -0.18,-0.12 -0.19,-0.11 -0.21,0.04 -0.00,0.09 -0.01,0.21 -0.02,0.27 -0.00,0.05 0.14,0.14 0.33,0.20 0.49,0.15 0.49,0.15 0.28,-0.13 z M 19.76,10.92 c -0.02,-0.06 -0.01,-0.10 0.02,-0.08 0.08,0.05 0.41,-0.29 0.64,-0.66 0.18,-0.30 0.48,-1.13 0.48,-1.37 0,-0.16 -0.00,-0.16 -0.18,-0.00 -0.09,0.08 -0.27,0.32 -0.38,0.51 -0.27,0.46 -0.54,0.60 -0.91,0.48 -0.21,-0.07 -0.22,-0.08 -0.05,-0.05 0.33,0.05 0.64,-0.08 0.78,-0.36 l 0.12,-0.24 h -0.57 c -0.46,0 -0.62,-0.03 -0.86,-0.20 C 18.52,8.68 18.12,8.07 17.97,7.58 L 17.87,7.23 l -0.02,0.42 c -0.04,0.62 0.12,1.10 0.51,1.50 0.18,0.19 0.32,0.37 0.29,0.40 -0.10,0.10 -0.74,-0.69 -0.86,-1.08 l -0.12,-0.39 -0.01,0.34 c -0.03,0.55 0.00,0.75 0.24,1.18 0.23,0.43 0.65,0.81 1.10,0.99 0.14,0.05 0.35,0.20 0.46,0.31 0.19,0.21 0.38,0.20 0.30,-0.01 z m -0.78,-0.67 c -0.13,-0.11 -0.22,-0.22 -0.20,-0.25 0.02,-0.02 0.15,0.05 0.28,0.17 0.13,0.11 0.22,0.22 0.20,0.25 -0.02,0.02 -0.14,-0.05 -0.28,-0.17 z m 0.99,0.10 c -6.63e-4,-0.08 0.03,-0.16 0.08,-0.19 0.10,-0.06 0.10,0.04 0,0.21 -0.07,0.11 -0.08,0.10 -0.08,-0.01 z m 0.64,-1.63 c 0.48,-0.31 0.71,-0.76 0.94,-1.80 0.15,-0.69 0.14,-1.20 -0.04,-2.28 -0.08,-0.47 -0.13,-0.61 -0.22,-0.58 -0.06,0.02 -0.22,0.00 -0.35,-0.05 -0.12,-0.05 -0.27,-0.08 -0.32,-0.07 -0.38,0.09 -0.91,0.13 -0.95,0.07 -0.02,-0.04 -0.11,-0.01 -0.20,0.05 -0.08,0.07 -0.29,0.16 -0.46,0.18 -0.17,0.02 -0.31,0.10 -0.32,0.16 -0.03,0.38 -0.15,0.52 -0.44,0.50 -0.37,-0.02 -0.57,0.09 -0.57,0.33 0,0.11 0.06,0.25 0.15,0.31 0.12,0.09 0.13,0.09 0.04,-0.00 -0.15,-0.17 -0.13,-0.41 0.06,-0.51 0.33,-0.17 0.44,0.51 0.12,0.77 -0.06,0.05 -0.11,0.14 -0.11,0.19 6.62e-4,0.05 0.03,0.04 0.07,-0.01 0.04,-0.07 0.09,-0.08 0.12,-0.03 0.02,0.04 -0.00,0.13 -0.06,0.18 -0.09,0.07 -0.15,0.05 -0.26,-0.09 -0.09,-0.12 -0.12,-0.14 -0.09,-0.04 0.02,0.08 0.00,0.15 -0.05,0.15 -0.05,9.26e-4 -0.02,0.06 0.07,0.15 0.11,0.09 0.20,0.29 0.23,0.53 0.09,0.62 0.30,1.20 0.45,1.20 0.08,0 0.11,0.04 0.07,0.13 -0.06,0.16 0.27,0.51 0.65,0.68 0.49,0.21 1.01,0.16 1.47,-0.14 z m -0.89,0.12 c -0.43,-0.07 -1.11,-0.39 -1.11,-0.52 0,-0.10 0.03,-0.10 0.19,0.04 0.20,0.18 0.81,0.36 0.71,0.21 -0.02,-0.04 -0.02,-0.15 0.00,-0.24 0.05,-0.12 0.07,-0.11 0.10,0.10 0.04,0.23 0.08,0.26 0.40,0.28 0.33,0.02 0.37,0.00 0.53,-0.25 0.09,-0.15 0.17,-0.23 0.17,-0.16 4.62e-4,0.09 0.02,0.09 0.12,0.01 0.20,-0.17 0.14,-9.26e-4 -0.06,0.18 -0.20,0.17 -0.70,0.42 -0.81,0.40 -0.03,-0.00 -0.16,-0.02 -0.28,-0.04 z m 0.00,-0.87 c -0.04,-0.09 -0.06,-0.19 -0.02,-0.22 0.03,-0.03 -0.01,-0.03 -0.11,0.00 -0.15,0.05 -0.15,0.05 -0.04,-0.10 0.07,-0.09 0.19,-0.21 0.27,-0.27 0.18,-0.13 0.20,-0.31 0.02,-0.24 -0.16,0.06 -0.24,-0.07 -0.17,-0.28 0.06,-0.21 0.21,-0.22 0.15,-0.01 -0.02,0.11 0.01,0.17 0.14,0.21 0.14,0.03 0.16,0.02 0.09,-0.04 -0.05,-0.05 -0.10,-0.33 -0.10,-0.61 -0.00,-0.48 -0.14,-1.10 -0.15,-0.71 -0.00,0.08 -0.07,0.15 -0.15,0.15 -0.09,0.00 -0.11,0.02 -0.03,0.05 0.17,0.07 -0.15,0.27 -0.44,0.28 -0.17,0.00 -0.25,-0.04 -0.29,-0.17 -0.03,-0.13 -0.09,-0.16 -0.24,-0.12 -0.15,0.04 -0.21,0.01 -0.24,-0.14 -0.02,-0.10 -0.00,-0.31 0.04,-0.45 0.08,-0.24 0.08,-0.24 0.04,0.07 l -0.03,0.33 0.19,-0.18 c 0.18,-0.17 0.63,-0.35 0.88,-0.35 0.05,0 0.20,0.08 0.32,0.19 0.19,0.17 0.22,0.26 0.24,0.86 0.01,0.52 0.05,0.69 0.16,0.75 0.20,0.10 0.26,-0.13 0.16,-0.65 -0.04,-0.23 -0.05,-0.53 -0.03,-0.66 0.09,-0.48 0.70,-0.65 1.04,-0.29 0.19,0.21 0.17,0.48 -0.03,0.48 -0.06,0 -0.10,0.04 -0.09,0.10 0.03,0.18 -0.55,0.18 -0.69,0.00 -0.10,-0.13 -0.11,-0.10 -0.06,0.26 0.02,0.23 0.09,0.46 0.13,0.51 0.14,0.14 0.09,0.37 -0.10,0.42 -0.18,0.04 -0.18,0.05 -0.03,0.22 0.12,0.13 0.13,0.19 0.05,0.29 -0.05,0.06 -0.09,0.19 -0.07,0.28 0.04,0.23 -0.65,0.27 -0.78,0.04 z M 20.40,7.76 c 0,-0.07 -0.09,-0.11 -0.27,-0.10 -0.37,0.01 -0.40,0.19 -0.03,0.20 0.20,0.00 0.30,-0.02 0.30,-0.10 z M 20.24,7.30 c -0.06,-0.02 -0.13,-0.02 -0.16,0.00 -0.02,0.02 0.02,0.04 0.11,0.04 0.10,-0.00 0.12,-0.02 0.05,-0.05 z M 19.41,6.00 c 0.02,-0.04 -0.02,-0.05 -0.12,-0.03 -0.25,0.06 -0.20,-0.05 0.05,-0.15 0.27,-0.10 0.21,-0.20 -0.07,-0.13 -0.25,0.06 -0.30,0.40 -0.06,0.40 0.08,0 0.18,-0.03 0.20,-0.07 z m 1.72,-0.26 c -0.02,-0.04 -0.14,-0.08 -0.26,-0.08 -0.12,0 -0.19,0.03 -0.16,0.08 0.02,0.04 0.14,0.08 0.26,0.08 0.12,0 0.19,-0.03 0.16,-0.08 z m -2.25,-0.17 c 0.08,-0.09 0.11,-0.17 0.07,-0.17 -0.03,0 -0.14,0.07 -0.22,0.17 -0.08,0.09 -0.11,0.17 -0.07,0.17 0.04,0 0.14,-0.07 0.22,-0.17 z m -1.14,1.14 c 0,-0.12 -0.02,-0.20 -0.05,-0.17 -0.03,0.03 -0.17,-0.04 -0.31,-0.17 l -0.25,-0.23 0.27,0.40 c 0.15,0.22 0.28,0.40 0.31,0.40 0.02,0 0.03,-0.10 0.03,-0.22 z M 17.47,5.51 c -0.05,-0.06 -0.14,-0.12 -0.19,-0.12 -0.04,0 -0.02,0.07 0.05,0.15 0.07,0.08 0.14,0.21 0.15,0.27 0.00,0.07 0.02,0.06 0.04,-0.03 0.02,-0.08 -0.00,-0.21 -0.06,-0.27 z m 4.55,0.18 c 0,-0.01 -0.05,-0.05 -0.12,-0.08 -0.07,-0.02 -0.12,-0.01 -0.12,0.03 0,0.04 0.05,0.08 0.12,0.08 0.07,0 0.12,-0.01 0.12,-0.03 z M 18.17,5.39 c 0,-0.04 -0.05,-0.06 -0.12,-0.03 -0.07,0.02 -0.12,0.06 -0.12,0.08 0,0.01 0.05,0.03 0.12,0.03 0.07,0 0.12,-0.03 0.12,-0.08 z m 3.66,-0.32 c -0.02,-0.02 -0.04,0.02 -0.04,0.11 0.00,0.10 0.02,0.12 0.05,0.05 0.02,-0.06 0.02,-0.13 -0.00,-0.16 z m 0.29,0.11 c 0,-0.06 -0.05,-0.16 -0.11,-0.21 -0.09,-0.07 -0.10,-0.05 -0.07,0.11 0.04,0.22 0.19,0.30 0.19,0.09 z M 17.34,4.79 c -0.02,-0.02 -0.10,0.02 -0.18,0.11 -0.14,0.14 -0.13,0.14 0.04,0.04 0.10,-0.06 0.17,-0.13 0.14,-0.15 z m 0.32,0.04 c 0.05,0.03 0.06,0.01 0.03,-0.04 -0.10,-0.16 -0.22,-0.11 -0.21,0.09 0.00,0.14 0.01,0.15 0.04,0.04 0.02,-0.08 0.08,-0.12 0.13,-0.09 z M 17.13,4.72 c 0,-0.02 -0.05,0.00 -0.12,0.06 -0.07,0.05 -0.12,0.12 -0.12,0.14 0,0.02 0.05,-0.00 0.12,-0.06 0.07,-0.05 0.12,-0.12 0.12,-0.14 z m 5.00,0.13 c -0.14,-0.14 -0.12,-0.26 0.02,-0.20 0.07,0.02 0.12,0.01 0.12,-0.02 0,-0.04 -0.08,-0.09 -0.19,-0.13 l -0.19,-0.05 0.19,-0.07 c 0.19,-0.07 0.26,-0.25 0.10,-0.25 -0.04,0 -0.08,0.03 -0.08,0.07 0,0.04 -0.07,0.09 -0.17,0.12 -0.09,0.02 -0.17,0.08 -0.17,0.12 0,0.09 0.33,0.53 0.41,0.53 0.02,0 0.00,-0.04 -0.04,-0.10 z M 21.73,4.69 c -0.07,-0.11 -0.12,-0.09 -0.12,0.05 0,0.07 0.03,0.10 0.08,0.07 0.04,-0.02 0.06,-0.08 0.03,-0.13 z m -3.21,-0.06 c 0,-0.12 -0.24,-0.40 -0.29,-0.34 -0.02,0.02 0.00,0.11 0.08,0.19 0.11,0.11 0.11,0.13 0.01,0.13 -0.07,0 -0.16,-0.10 -0.21,-0.23 -0.04,-0.13 -0.08,-0.17 -0.09,-0.09 -0.01,0.26 0.09,0.41 0.30,0.41 0.11,0 0.20,-0.03 0.20,-0.06 z M 16.84,4.18 c 0.06,0 0.12,-0.03 0.12,-0.07 0,-0.04 -0.07,-0.05 -0.17,-0.03 -0.12,0.03 -0.16,0.11 -0.15,0.27 0.01,0.20 0.01,0.20 0.04,0.03 0.02,-0.10 0.09,-0.19 0.16,-0.19 z m 0.63,0.25 c 0,-0.04 -0.04,-0.08 -0.09,-0.08 -0.05,0 -0.06,0.03 -0.03,0.08 0.02,0.04 0.07,0.08 0.09,0.08 0.02,0 0.03,-0.03 0.03,-0.08 z m 4.36,-0.27 c 0.16,-0.16 0.12,-0.25 -0.06,-0.15 -0.24,0.12 -0.21,-0.02 0.04,-0.30 0.22,-0.24 0.27,-0.37 0.12,-0.37 -0.04,0 -0.08,0.05 -0.08,0.11 0,0.06 -0.07,0.18 -0.17,0.27 -0.17,0.15 -0.22,0.39 -0.11,0.50 0.08,0.08 0.15,0.07 0.26,-0.04 z M 17.82,3.87 c 0,-0.01 -0.07,0.01 -0.17,0.07 -0.09,0.05 -0.17,0.14 -0.17,0.18 0,0.04 0.07,0.00 0.17,-0.07 0.09,-0.08 0.17,-0.16 0.17,-0.18 z m 0.68,-0.06 c 0,-0.11 -0.03,-0.22 -0.06,-0.24 -0.03,-0.02 -0.06,0.05 -0.06,0.17 0.00,0.12 -0.04,0.23 -0.11,0.26 -0.08,0.02 -0.10,-0.01 -0.05,-0.15 0.04,-0.13 0.03,-0.17 -0.03,-0.13 -0.10,0.06 -0.12,0.32 -0.04,0.41 0.10,0.10 0.37,-0.12 0.37,-0.32 z m 0.38,0.29 c -0.22,-0.09 -0.30,-0.10 -0.30,-0.01 0,0.03 0.10,0.07 0.23,0.08 0.20,0.01 0.21,0.00 0.06,-0.06 z m 0.12,-0.11 c -0.01,-0.01 -0.11,-0.08 -0.20,-0.15 -0.15,-0.11 -0.16,-0.11 -0.05,0.02 0.06,0.08 0.15,0.15 0.20,0.15 0.04,0 0.07,-0.01 0.05,-0.02 z m 0.96,-0.21 c -0.06,-0.02 -0.15,0.00 -0.20,0.05 -0.06,0.06 -0.03,0.07 0.11,0.03 0.11,-0.03 0.15,-0.06 0.09,-0.09 z m -2.50,-0.06 c 0,-0.07 0.03,-0.11 0.07,-0.08 0.04,0.02 0.09,-0.01 0.12,-0.08 0.08,-0.22 -0.16,-0.14 -0.27,0.08 -0.05,0.13 -0.06,0.21 -0.01,0.21 0.04,0 0.08,-0.06 0.08,-0.13 z m 1.54,0.04 c 0,-0.04 -0.04,-0.08 -0.09,-0.08 -0.05,0 -0.06,0.03 -0.03,0.08 0.02,0.04 0.07,0.08 0.09,0.08 0.02,0 0.03,-0.03 0.03,-0.08 z m 2.28,-0.50 c -0.08,-0.08 -0.13,-0.09 -0.13,-0.03 0,0.05 0.04,0.12 0.09,0.15 0.04,0.03 0.08,0.11 0.07,0.19 -0.02,0.26 0.03,0.31 0.06,0.06 0.02,-0.15 -0.01,-0.29 -0.09,-0.38 z m -3.93,0.00 c 0.12,-0.10 0.11,-0.10 -0.06,0.00 -0.11,0.06 -0.22,0.21 -0.23,0.33 l -0.02,0.20 0.08,-0.20 c 0.04,-0.11 0.15,-0.26 0.23,-0.33 z m 2.47,0.36 c 0.15,-0.11 0.15,-0.12 0.00,-0.07 -0.09,0.03 -0.18,0.00 -0.23,-0.06 -0.05,-0.09 -0.07,-0.07 -0.07,0.07 -0.00,0.22 0.07,0.24 0.30,0.06 z m 1.36,0.05 c 0.05,-0.08 -0.13,-0.52 -0.23,-0.52 -0.03,-3.69e-4 -0.02,0.07 0.02,0.17 0.05,0.09 0.07,0.23 0.04,0.30 -0.05,0.13 0.07,0.17 0.15,0.04 z M 18.53,2.93 C 18.82,2.84 18.98,2.64 18.86,2.53 18.79,2.45 18.77,2.46 18.76,2.55 c -0.00,0.06 -0.12,0.20 -0.27,0.29 -0.28,0.18 -0.51,0.53 -0.43,0.67 0.02,0.04 0.10,-0.05 0.17,-0.22 0.06,-0.17 0.20,-0.33 0.30,-0.36 z M 19.69,3.38 c 0.05,0.02 0.10,-0.02 0.10,-0.09 0,-0.09 -0.04,-0.11 -0.15,-0.07 -0.21,0.07 -0.36,0.20 -0.36,0.30 0,0.04 0.06,0.02 0.15,-0.04 0.08,-0.07 0.19,-0.11 0.25,-0.09 z m -1.11,0.05 c -0.02,-0.02 -0.01,-0.15 0.03,-0.27 l 0.08,-0.22 -0.19,0.19 c -0.16,0.16 -0.17,0.20 -0.06,0.27 0.14,0.09 0.22,0.11 0.14,0.03 z m 0.36,0.01 c 0,-0.01 -0.05,-0.08 -0.12,-0.13 -0.10,-0.08 -0.12,-0.08 -0.12,0.03 0,0.07 0.05,0.13 0.12,0.13 0.07,0 0.12,-0.01 0.12,-0.03 z M 20.27,3.27 C 20.17,3.20 20.11,3.07 20.13,2.96 c 0.02,-0.15 -0.00,-0.17 -0.19,-0.12 -0.17,0.04 -0.20,0.02 -0.17,-0.07 0.03,-0.08 -6.61e-4,-0.12 -0.09,-0.12 -0.10,0 -0.12,0.04 -0.08,0.19 0.05,0.18 0.05,0.18 -0.10,0.04 -0.30,-0.26 -0.55,-0.14 -0.53,0.26 0.00,0.10 0.02,0.08 0.08,-0.05 0.08,-0.22 0.20,-0.24 0.35,-0.07 0.07,0.07 0.17,0.09 0.29,0.04 0.14,-0.05 0.21,-0.02 0.32,0.13 0.07,0.11 0.20,0.20 0.28,0.20 0.13,-0.00 0.12,-0.01 -0.02,-0.13 z m -1.01,-0.07 c 0,-0.06 -0.03,-0.10 -0.07,-0.08 -0.04,0.02 -0.05,0.08 -0.02,0.12 0.06,0.11 0.09,0.09 0.09,-0.04 z m 1.56,-0.10 c 0.01,-0.01 -0.02,-0.02 -0.09,-0.02 -0.07,0 -0.15,0.06 -0.18,0.14 -0.04,0.12 -0.03,0.12 0.09,0.02 0.08,-0.06 0.16,-0.12 0.18,-0.14 z m 0.74,-0.00 c -0.14,-0.14 -0.15,-0.13 -0.05,0.05 0.05,0.11 0.12,0.17 0.15,0.14 0.02,-0.02 -0.01,-0.11 -0.10,-0.20 z M 17.82,2.97 c 0,-0.05 -0.03,-0.06 -0.08,-0.03 -0.04,0.02 -0.08,0.07 -0.08,0.09 0,0.02 0.03,0.03 0.08,0.03 0.04,0 0.08,-0.04 0.08,-0.09 z m -0.22,-0.12 c 0.02,-0.07 0.01,-0.11 -0.03,-0.08 -0.04,0.02 -0.08,0.08 -0.08,0.13 0,0.12 0.06,0.09 0.11,-0.05 z m 3.23,-0.02 c 0,-0.12 -0.24,-0.28 -0.36,-0.24 -0.06,0.02 -0.04,0.04 0.04,0.05 0.10,0.00 0.14,0.05 0.11,0.13 -0.02,0.07 0,0.12 0.07,0.12 0.06,0 0.12,-0.03 0.12,-0.07 z m -2.62,-0.18 c 0.02,-0.04 0.01,-0.08 -0.03,-0.08 -0.04,0 -0.10,0.03 -0.13,0.08 -0.02,0.04 -0.01,0.08 0.03,0.08 0.04,0 0.11,-0.03 0.13,-0.08 z m 0.47,-0.13 c 0,-0.02 -0.07,-0.00 -0.17,0.04 -0.09,0.05 -0.17,0.11 -0.17,0.13 0,0.02 0.07,0.00 0.17,-0.04 0.09,-0.05 0.17,-0.11 0.17,-0.13 z M 20.16,2.66 c -0.06,-0.02 -0.13,-0.02 -0.16,0.00 -0.02,0.02 0.02,0.04 0.11,0.04 0.10,-0.00 0.12,-0.02 0.05,-0.05 z m 0.97,-0.19 c -0.03,-0.05 -0.09,-0.09 -0.14,-0.09 -0.05,0 -0.05,0.04 0.01,0.13 0.11,0.14 0.22,0.11 0.13,-0.03 z M 19.27,2.30 c -0.13,-0.21 -0.50,-0.32 -0.60,-0.16 -0.03,0.06 -0.09,0.10 -0.11,0.08 -0.02,-0.01 -0.10,0.03 -0.18,0.10 -0.18,0.18 -0.06,0.16 0.26,-0.03 l 0.27,-0.17 0.20,0.21 c 0.23,0.24 0.32,0.22 0.15,-0.03 z m 0.94,0.06 C 20.08,2.29 20.02,2.33 20.10,2.46 c 0.03,0.05 0.09,0.06 0.14,0.03 0.05,-0.03 0.04,-0.07 -0.02,-0.12 z m -0.46,0.00 c -0.02,-0.04 -0.13,-0.12 -0.22,-0.17 -0.15,-0.08 -0.16,-0.07 -0.07,0.08 0.05,0.09 0.15,0.17 0.22,0.17 0.07,0 0.10,-0.03 0.07,-0.08 z m 0.13,-0.10 c -0.08,-0.08 -0.09,-0.07 -0.04,0.04 0.03,0.08 0.08,0.13 0.10,0.10 0.02,-0.02 0,-0.09 -0.05,-0.15 z M 16.62,43.51 c 0,-0.07 0.03,-0.13 0.08,-0.13 0.04,0 0.08,0.03 0.08,0.08 0,0.04 -0.03,0.10 -0.08,0.13 -0.04,0.02 -0.08,-0.00 -0.08,-0.08 z M 9.57,12.91 c 0,-0.02 0.03,-0.06 0.08,-0.09 0.04,-0.02 0.08,-0.01 0.08,0.03 0,0.04 -0.03,0.09 -0.08,0.09 -0.04,0 -0.08,-0.01 -0.08,-0.03 z" />
</svg>
