<?xml version="1.0" encoding="UTF-8" standalone="no"?>
<!-- Created with Inkscape (http://www.inkscape.org/) -->
<svg xmlns:dc="http://purl.org/dc/elements/1.1/" xmlns:cc="http://creativecommons.org/ns#" xmlns:rdf="http://www.w3.org/1999/02/22-rdf-syntax-ns#" xmlns:svg="http://www.w3.org/2000/svg" xmlns="http://www.w3.org/2000/svg" version="1.0" width="100%" height="100%" viewBox="0 0 48 48" id="svg2213">
<defs id="defs7" />
<path d="m 34.74,42.32 c -0.40,0.01 -0.77,0.02 -0.83,0.02 -0.05,-0.00 -0.17,-0.01 -0.26,-0.01 -0.49,-0.01 -0.97,-0.10 -1.41,-0.37 -0.14,-0.10 -0.18,-0.18 -0.46,-0.15 -0.50,0.00 -1.66,0.36 -2.10,0.32 -0.03,-0.04 -0.12,-0.15 -0.12,-0.18 -0.13,-0.05 -0.33,-0.04 -0.49,-0.02 -6.76,0.69 -9.65,0.86 -13.76,-1.29 -0.00,-0.02 -0.02,-0.06 -0.06,-0.09 -0.05,-0.05 -0.06,-0.04 -0.12,0.03 -0.63,0.69 -1.52,0.98 -2.35,1.28 -4.35,1.35 -7.63,-0.46 -9.72,-3.80 -0.15,0.06 -0.21,0.04 -0.32,0.32 -0.03,0.07 -0.04,0.06 -0.11,-0.05 -0.12,-0.27 0.11,-0.46 0.25,-0.62 0.05,0.03 0.07,-0.12 0.02,-0.29 -0.17,-0.38 -0.23,-0.89 -0.54,-1.10 -0.21,-0.09 -0.23,-0.23 -0.30,-0.45 -0.03,-0.09 -0.04,-0.17 -0.02,-0.18 0.03,-0.03 0.10,0.00 0.10,0.05 0.02,0.11 0.11,0.10 0.16,0.16 0.05,0.07 0.05,0.07 0.07,-0.00 C 2.35,35.69 2.35,35.67 2.33,35.65 2.31,35.63 2.30,35.59 2.30,35.55 2.29,35.52 2.26,35.47 2.22,35.45 2.17,35.43 2.14,35.40 2.13,35.38 1.86,35.07 1.72,34.75 1.70,34.30 c 0.00,-0.11 0.01,-0.22 0.01,-0.25 -0.00,-0.06 0.12,-0.05 0.12,0.00 0.00,0.02 0.02,0.08 0.05,0.14 0.08,0.31 0.00,0.64 0.31,0.82 0.00,-5.66e-4 0.00,-0.07 0.00,-0.16 -0.00,-0.09 -0.01,-0.15 -0.03,-0.13 -0.01,0.01 -0.02,0.00 -0.01,-0.02 0.00,-0.03 -2.26e-4,-0.34 -0.01,-0.69 -0.02,-0.58 -0.05,-0.75 -0.10,-0.57 -0.15,0.15 -0.30,0.05 -0.41,-0.12 -0.06,-0.13 -0.06,-0.13 -0.00,-0.16 0.11,-0.09 0.27,-0.23 0.42,-0.24 0.03,0.01 0.06,-0.02 0.08,-0.09 -0.15,-0.59 0.49,-1.64 0.29,-2.15 -0.07,-0.31 -1.03,-0.17 -0.93,-0.55 0.31,-0.15 0.70,-0.06 0.97,0.17 0.09,0.08 0.17,0.14 0.17,0.14 0.01,-0.00 0.11,-0.31 0.10,-0.34 -0.00,-0.01 0.00,-0.03 0.03,-0.03 0.07,-0.00 -0.03,-0.10 -0.25,-0.20 -0.22,-0.11 -0.36,-0.29 -0.26,-0.34 0.19,-0.01 0.50,0.06 0.65,0.22 0.01,0.03 0.02,0.03 0.02,-0.00 -5.09e-4,-0.05 0.02,-0.10 0.13,-0.26 0.08,-0.12 0.06,-0.14 -0.11,-0.17 -0.12,-0.01 -0.17,-0.04 -0.17,-0.09 2.26e-4,-0.03 -0.01,-0.07 -0.02,-0.06 -0.01,0.00 -0.02,-0.04 -0.01,-0.10 0.01,-0.12 0.04,-0.12 0.34,-0.07 0.27,0.05 0.30,0.05 0.30,-0.01 2.97,-3.50 3.97,-3.29 6.23,-3.00 0.10,0.03 0.21,0.06 0.25,0.07 0.03,0.00 0.15,0.04 0.25,0.08 0.10,0.04 0.24,0.08 0.31,0.08 0.07,0.00 0.13,0.02 0.13,0.04 0.00,0.07 0.24,-0.07 0.38,-0.23 0.07,-0.09 0.16,-0.17 0.18,-0.17 0.02,-0.00 0.04,-0.03 0.05,-0.06 0.02,-0.09 0.27,-0.24 0.52,-0.33 0.20,-0.06 0.24,-0.06 0.35,-0.01 0.19,0.08 0.48,0.29 0.48,0.36 0.00,0.03 0.01,0.05 0.03,0.05 0.03,-0.00 0.24,0.36 0.24,0.44 0.00,0.06 0.19,0.11 0.24,0.07 0.01,-0.01 0.22,-0.04 0.45,-0.06 0.42,-0.03 0.82,-0.01 1.02,0.04 0.24,0.08 0.67,0.29 0.99,0.50 0.36,0.23 0.90,0.75 0.95,0.91 0.01,0.05 0.03,0.09 0.05,0.09 0.01,-0.00 0.09,0.13 0.17,0.30 0.26,0.53 0.49,1.44 0.58,2.29 0.03,0.27 0.06,0.50 0.08,0.51 0.02,0.01 0.19,-0.16 0.43,-0.47 0.04,-0.05 0.16,-0.19 0.26,-0.30 0.76,-0.76 1.53,-1.49 2.47,-1.95 0.16,-0.07 0.32,-0.15 0.35,-0.17 0.03,-0.02 0.10,-0.04 0.16,-0.05 0.11,-0.00 0.21,-0.11 0.34,-0.35 0.88,-0.95 0.94,-2.20 1.47,-3.31 0.08,-0.16 0.16,-0.30 0.17,-0.31 0.01,-0.01 0.03,-0.05 0.04,-0.08 0.02,-0.08 0.06,-0.16 0.31,-0.62 0.14,-0.28 0.23,-0.48 0.27,-0.69 0.06,-0.31 0.05,-0.42 -0.07,-1.21 -0.14,-0.82 -0.08,-1.80 0.14,-2.45 0.12,-0.34 0.17,-0.44 0.48,-0.86 0.20,-0.27 0.24,-0.31 0.35,-0.32 0.34,-0.02 0.46,0.08 0.50,0.45 0.01,0.12 0.01,0.30 0.00,0.39 -0.01,0.08 -0.02,0.22 -0.03,0.30 -0.00,0.07 -0.02,0.17 -0.03,0.20 -0.02,0.07 -0.10,0.63 -0.09,0.72 0.00,0.03 0.09,-0.05 0.22,-0.22 0.12,-0.15 0.34,-0.39 0.49,-0.51 0.15,-0.13 0.33,-0.32 0.41,-0.44 0.07,-0.11 0.16,-0.24 0.19,-0.28 0.02,-0.03 0.12,-0.18 0.21,-0.32 0.08,-0.14 0.17,-0.28 0.19,-0.31 0.05,-0.08 0.39,-0.77 0.39,-0.80 -0.00,-0.01 0.04,-0.10 0.09,-0.20 0.07,-0.14 0.09,-0.25 0.12,-0.63 0.04,-0.76 0.10,-1.10 0.27,-1.58 0.08,-0.23 0.15,-0.35 0.51,-0.80 0.13,-0.16 0.47,-0.44 0.75,-0.60 0.22,-0.13 0.35,-0.18 0.51,-0.19 0.14,-0.01 0.22,-0.04 0.25,-0.08 0.02,-0.03 0.11,-0.13 0.20,-0.23 0.32,-0.31 0.86,-0.39 1.20,-0.17 0.09,0.06 0.18,0.13 0.20,0.16 0.01,0.02 0.07,0.04 0.12,0.04 0.18,-0.01 0.43,0.06 0.56,0.18 0.06,0.06 0.19,0.13 0.28,0.15 0.08,0.02 0.21,0.07 0.27,0.12 l 0.11,0.08 0.05,-0.16 c 0.02,-0.09 0.04,-0.18 0.04,-0.20 -0.00,-0.05 0.25,-0.35 0.32,-0.36 0.29,-0.04 0.33,-0.06 0.43,-0.20 0.14,-0.20 0.22,-0.25 0.41,-0.24 0.16,0.00 0.17,0.00 0.27,-0.16 0.18,-0.29 0.45,-0.30 0.68,-0.03 l 0.10,0.12 0.10,-0.17 c 0.10,-0.16 0.25,-0.26 0.44,-0.28 0.08,-0.00 0.40,0.12 0.40,0.16 0.00,0.03 0.26,0.32 0.27,0.30 0.00,-0.01 0.03,-0.08 0.05,-0.17 0.10,-0.32 0.49,-0.55 0.73,-0.42 0.22,0.12 0.27,0.15 0.31,0.25 0.02,0.05 0.07,0.12 0.11,0.14 0.03,0.02 0.07,0.07 0.07,0.10 0.00,0.03 0.01,0.05 0.03,0.05 0.01,-0.00 0.06,0.07 0.10,0.16 0.27,0.51 0.62,0.96 0.91,1.46 0.85,1.69 1.70,3.40 2.39,5.19 0.26,0.68 0.29,1.46 0.08,2.16 -0.16,0.55 -0.50,1.04 -0.83,1.49 -0.17,0.27 -0.37,0.53 -0.48,0.84 -0.20,0.62 -0.25,0.79 -0.25,0.82 -0.16,0.31 -0.28,0.68 -0.45,0.99 -0.12,0.18 -0.07,0.25 0.14,0.19 0.35,-0.09 1.43,-0.14 2.32,-0.10 0.32,0.01 0.73,0.25 0.96,0.56 1.02,0.88 1.90,1.74 2.68,2.90 0.01,0.04 0.07,0.13 0.13,0.19 0.05,0.05 0.11,0.13 0.11,0.16 0.00,0.03 0.01,0.06 0.03,0.05 0.05,-0.00 0.22,0.30 0.28,0.50 0.02,0.09 0.07,0.34 0.09,0.54 0.14,0.95 0.14,1.94 0.33,2.89 0.13,0.57 0.11,0.83 -0.09,1.48 -0.37,1.12 -0.49,2.45 -1.13,3.43 -0.01,0.00 -0.02,0.04 -0.02,0.07 0.00,0.09 -0.25,0.40 -0.44,0.52 -0.50,0.15 -0.82,0.70 -1.16,1.00 -0.03,0.01 -0.06,0.04 -0.06,0.07 0.00,0.02 -0.01,0.03 -0.04,0.04 -0.02,0.00 -0.15,0.14 -0.28,0.30 -1.01,1.12 -2.78,1.65 -4.16,2.05 -0.07,0.02 -0.17,0.04 -0.21,0.04 -0.03,0.00 -0.13,0.02 -0.20,0.05 -1.15,0.31 -2.36,0.34 -3.55,0.39 z m 3.48,-0.91 c 0.06,-5.66e-4 0.12,-0.01 0.11,-0.03 -0.00,-0.02 0.10,-0.05 0.42,-0.13 0.90,-0.31 1.99,-0.60 2.83,-1.08 0.01,-0.01 0.09,-0.05 0.17,-0.09 0.07,-0.03 0.15,-0.07 0.16,-0.10 0.01,-0.02 0.05,-0.04 0.07,-0.04 0.06,-0.00 0.26,-0.19 0.46,-0.42 0.56,-0.73 1.08,-1.16 1.80,-1.62 0.11,-0.07 0.33,-0.35 0.33,-0.41 -0.00,-0.02 0.03,-0.11 0.08,-0.19 0.58,-1.06 0.67,-2.36 1.10,-3.50 0.05,-0.14 0.04,-0.46 -0.02,-0.76 -0.16,-0.94 -0.25,-1.91 -0.31,-2.88 -0.03,-0.58 -0.05,-0.64 -0.57,-1.33 -0.75,-1.13 -1.72,-1.99 -2.70,-2.86 -0.23,-0.21 -0.57,-0.35 -0.92,-0.36 -0.08,-0.00 -0.20,-0.00 -0.27,-0.01 -0.12,-0.01 -0.37,-0.01 -0.94,-0.01 -0.17,-5.66e-4 -0.55,0.01 -0.84,0.04 l -0.52,0.04 -0.12,0.18 c -0.06,0.09 -0.13,0.19 -0.13,0.22 -0.00,0.02 -0.12,0.20 -0.25,0.39 -0.13,0.19 -0.24,0.38 -0.24,0.42 0.00,0.04 0.04,0.06 0.11,0.06 0.05,0.00 0.15,0.02 0.20,0.04 0.05,0.01 0.13,0.03 0.18,0.04 0.17,0.01 0.26,0.04 0.27,0.07 0.00,0.02 0.02,0.02 0.04,0.01 0.01,-0.01 0.14,0.04 0.28,0.14 0.14,0.09 0.27,0.16 0.29,0.16 0.02,-0.00 0.04,0.01 0.04,0.04 0.00,0.03 0.01,0.03 0.02,0.00 0.01,-0.02 0.10,-0.08 0.21,-0.13 0.10,-0.04 0.20,-0.10 0.22,-0.12 0.03,-0.04 0.26,-0.10 0.55,-0.15 0.21,-0.03 0.48,0.00 0.48,0.07 0.00,0.02 0.01,0.02 0.03,0.01 0.01,-0.01 0.06,-0.00 0.09,0.01 0.03,0.02 0.09,0.06 0.13,0.08 0.18,0.08 0.20,0.51 0.07,1.14 -0.03,0.18 -0.07,0.38 -0.07,0.43 -0.00,0.05 -0.01,0.20 -0.02,0.33 -0.01,0.12 -0.02,0.31 -0.03,0.41 -0.00,0.10 -0.01,0.29 -0.03,0.43 -0.02,0.21 -0.01,0.28 0.05,0.48 0.04,0.12 0.12,0.28 0.18,0.34 0.06,0.06 0.11,0.13 0.11,0.15 0.00,0.01 0.06,0.11 0.14,0.22 0.17,0.23 0.17,0.24 0.21,0.73 0.02,0.34 0.01,0.42 -0.04,0.59 -0.07,0.18 -0.38,0.65 -0.43,0.66 -0.61,0.69 -0.80,1.12 -1.58,1.51 -0.10,0.04 -0.10,0.05 -0.10,0.39 -0.00,0.19 -0.01,0.37 -0.02,0.41 -0.01,0.03 -0.01,0.07 -0.01,0.09 0.00,0.01 -0.00,0.05 -0.02,0.08 -0.03,0.05 -0.06,0.36 -0.04,0.35 0.35,-0.18 1.23,-0.85 1.26,-1.23 -0.00,-0.06 0.01,-0.29 0.04,-0.51 0.05,-0.48 0.10,-0.66 0.19,-0.47 0.04,0.25 -0.00,0.51 -0.03,0.85 0.10,0.02 0.50,-0.75 0.55,-0.83 0.15,-0.32 0.32,-0.77 0.39,-1.07 0.16,-0.70 0.13,-1.66 -0.08,-2.39 -0.06,-0.22 -0.13,-0.43 -0.15,-0.47 -0.09,-0.19 -0.25,-0.60 -0.25,-0.66 -0.00,-0.03 0.01,-0.07 0.03,-0.07 0.20,0.11 0.28,0.45 0.38,0.68 0.00,0.02 0.06,0.22 0.13,0.46 0.29,1.02 0.37,1.57 0.05,3.04 -0.34,1.24 -1.23,2.21 -2.16,2.91 -2.23,1.30 -4.61,1.75 -6.19,1.19 -0.47,-0.14 -0.47,-0.14 -0.47,-0.24 -0.00,-0.07 0.01,-0.10 0.07,-0.10 0.04,-0.00 0.09,0.00 0.11,0.02 0.01,0.01 0.08,0.03 0.14,0.04 0.06,0.00 0.14,0.02 0.18,0.04 0.10,0.05 0.18,0.04 0.18,-0.02 -0.16,-0.33 -0.44,-0.57 -0.60,-0.91 -0.02,-0.09 -0.04,-0.09 -0.22,-0.09 -0.32,-0.00 -0.61,-0.17 -0.89,-0.34 -0.22,-0.10 -0.42,-0.29 -0.62,-0.44 -0.09,-0.06 -0.17,-0.13 -0.18,-0.15 -0.00,-0.01 -0.03,-0.03 -0.05,-0.02 -0.05,0.00 -0.24,-0.16 -0.25,-0.22 -0.00,-0.02 -0.01,-0.04 -0.03,-0.04 -0.88,-0.80 -1.41,-1.52 -2.07,-2.39 -0.03,-0.04 -0.07,-0.11 -0.09,-0.16 -0.01,-0.04 -0.04,-0.08 -0.06,-0.08 -0.01,0.00 -0.03,-0.03 -0.03,-0.07 -0.00,-0.04 -0.02,-0.07 -0.04,-0.07 -0.03,0.00 -0.00,0.43 0.09,1.74 0.09,1.49 0.28,2.98 0.48,4.46 0.03,0.26 0.06,0.51 0.07,0.54 0.01,0.23 0.28,1.93 0.34,2.09 0.02,0.06 0.06,0.25 0.09,0.41 0.02,0.16 0.05,0.30 0.06,0.31 0.73,0.09 1.42,-0.40 2.15,-0.34 0.09,0.01 0.10,0.00 0.07,-0.09 -0.26,-1.10 -0.45,-2.22 -0.65,-3.34 -0.11,-0.66 -0.23,-1.30 -0.24,-1.41 -0.01,-0.11 -0.05,-0.36 -0.09,-0.56 -0.07,-0.45 -0.09,-0.75 -0.05,-0.75 0.04,-0.00 0.09,0.07 0.13,0.37 0.11,0.73 0.22,1.47 0.37,2.20 0.03,0.14 0.11,0.54 0.18,0.88 0.07,0.34 0.13,0.68 0.15,0.74 0.04,0.22 0.37,1.77 0.40,1.87 0.04,0.14 0.13,0.27 0.19,0.27 0.02,-0.00 0.05,0.01 0.05,0.03 0.00,0.05 0.27,0.18 0.38,0.17 1.77,0.32 3.58,0.19 5.32,-0.34 z m -8.30,-0.26 c -0.04,-0.04 -0.04,-0.28 0,-0.33 0.06,-0.06 0.50,-0.24 0.78,-0.32 0.14,-0.03 0.29,-0.08 0.33,-0.09 0.04,-0.01 0.09,-0.00 0.10,0.02 0.01,0.02 0.05,0.04 0.08,0.04 0.02,-0.00 0.05,0.02 0.06,0.06 0.01,0.05 -0.00,0.07 -0.08,0.07 -0.10,0.00 -0.61,0.22 -1.01,0.43 -0.27,0.14 -0.25,0.13 -0.28,0.10 z m 4.29,-1.62 c -0.38,-0.26 -0.73,-0.58 -1.04,-0.94 -0.47,-0.55 -0.83,-1.22 -1.15,-1.90 -0.05,-0.13 -0.12,-0.29 -0.15,-0.35 -0.03,-0.06 -0.06,-0.18 -0.08,-0.27 -0.02,-0.14 -0.02,-0.15 0.02,-0.08 0.03,0.04 0.10,0.20 0.17,0.35 0.06,0.15 0.12,0.27 0.14,0.28 0.01,0.00 0.02,0.02 0.03,0.04 0.22,0.56 0.57,1.02 0.93,1.47 0.32,0.50 0.77,0.86 1.22,1.13 0.16,0.14 0.07,0.35 -0.09,0.27 z m -4.88,-1.55 c -0.07,-0.26 0.03,-0.34 0.62,-0.42 0.32,-0.04 0.48,-0.01 0.60,0.10 l 0.09,0.09 -0.13,0.01 c -0.52,0.05 -0.84,0.12 -0.87,0.19 -0.11,0.03 -0.24,0.14 -0.31,0.01 z m -0.04,3.46 c 0.14,-0.27 -0.09,-0.94 -0.14,-1.28 -0.12,-0.80 -0.24,-1.60 -0.32,-2.41 -0.28,-1.99 -0.36,-4.01 -0.45,-6.03 -0.01,-0.23 -0.03,-0.30 -0.15,-0.54 -0.07,-0.15 -0.15,-0.32 -0.17,-0.37 -0.46,-0.94 -0.65,-1.94 -0.58,-3.03 0.09,-0.54 0.09,-0.53 -0.12,-0.47 -0.10,0.02 -0.21,0.03 -0.25,0.03 -0.03,-0.00 -0.11,0.00 -0.16,0.02 -0.08,0.02 -0.09,0.05 -0.09,0.30 -0.79,6.17 -4.41,12.19 -9.67,13.08 -5.66e-4,-0.01 -0.03,-0.03 -0.07,-0.03 -0.09,-0.00 -0.20,-0.18 -0.17,-0.28 0.01,-0.06 0.05,-0.07 0.35,-0.07 0.19,-5.66e-4 0.33,-0.01 0.33,-0.03 5.48,-2.06 8.28,-7.36 8.94,-13.84 0.00,-0.19 0.01,-0.38 0.03,-0.43 0.03,-0.09 0.19,-0.28 0.32,-0.38 0.09,-0.07 0.46,-0.55 0.46,-0.59 -0.00,-0.01 0.03,-0.10 0.08,-0.20 0.32,-0.64 0.49,-1.65 0.48,-2.91 -0.00,-0.26 0.01,-0.35 0.07,-0.46 0.08,-0.15 0.27,-0.40 0.29,-0.41 0.00,-5.66e-4 0.03,-0.02 0.05,-0.05 0.02,-0.03 0.14,-0.16 0.26,-0.29 0.12,-0.13 0.32,-0.34 0.43,-0.47 0.11,-0.12 0.22,-0.23 0.24,-0.23 0.02,-0.00 0.03,-0.02 0.03,-0.04 -0.00,-0.02 0.04,-0.10 0.09,-0.16 0.18,-0.23 0.20,-0.39 0.06,-0.52 -0.10,-0.09 -0.22,-0.07 -0.40,0.06 -0.06,0.04 -0.13,0.09 -0.16,0.09 -0.02,0.00 -0.05,0.01 -0.04,0.03 0.00,0.01 -0.07,0.07 -0.16,0.12 -0.08,0.05 -0.18,0.11 -0.21,0.14 -0.02,0.03 -0.18,0.15 -0.35,0.27 -0.16,0.11 -0.33,0.25 -0.37,0.29 -0.03,0.04 -0.08,0.08 -0.10,0.09 -0.05,0.02 -0.24,0.23 -0.43,0.47 -0.08,0.10 -0.16,0.18 -0.18,0.18 -0.01,0.00 -0.03,-0.06 -0.04,-0.14 -0.00,-0.12 0.02,-0.18 0.23,-0.46 0.13,-0.17 0.31,-0.37 0.40,-0.44 0.08,-0.06 0.18,-0.15 0.20,-0.18 0.02,-0.03 0.05,-0.05 0.07,-0.06 0.01,-0.00 0.08,-0.05 0.14,-0.11 0.06,-0.06 0.12,-0.11 0.14,-0.11 0.01,-0.00 0.07,-0.04 0.11,-0.08 0.04,-0.04 0.21,-0.17 0.36,-0.29 0.48,-0.34 0.49,-0.35 0.36,-0.47 -0.05,-0.04 -0.11,-0.05 -0.25,-0.03 -0.10,0.01 -0.20,0.05 -0.22,0.07 -0.02,0.02 -0.09,0.05 -0.17,0.06 -0.07,0.01 -0.14,0.03 -0.15,0.05 -0.00,0.01 -0.06,0.04 -0.12,0.05 -0.05,0.01 -0.12,0.03 -0.15,0.05 -0.02,0.01 -0.09,0.04 -0.13,0.05 -0.27,0.08 -0.41,0.16 -0.59,0.30 -0.10,0.08 -0.20,0.15 -0.22,0.16 -0.01,5.66e-4 -0.08,0.07 -0.16,0.16 -0.07,0.09 -0.19,0.22 -0.26,0.29 -0.06,0.07 -0.18,0.21 -0.26,0.31 -0.07,0.10 -0.16,0.18 -0.18,0.18 -0.11,0.00 -0.12,-0.28 -0.01,-0.44 0.04,-0.06 0.08,-0.12 0.07,-0.13 -5.66e-4,-0.01 0.04,-0.06 0.10,-0.10 0.06,-0.04 0.12,-0.11 0.13,-0.14 0.01,-0.03 0.04,-0.05 0.07,-0.06 0.02,-0.00 0.05,-0.02 0.05,-0.04 0.01,-0.06 0.30,-0.33 0.42,-0.40 0.06,-0.03 0.11,-0.07 0.11,-0.08 -0.00,-0.01 0.04,-0.05 0.10,-0.09 0.11,-0.07 0.24,-0.22 0.21,-0.25 -0.02,-0.02 -0.45,0.11 -0.47,0.15 -0.00,0.01 -0.07,0.04 -0.13,0.06 -0.18,0.04 -0.23,0.07 -0.26,0.10 -0.01,0.01 -0.04,0.03 -0.06,0.03 -0.04,0.00 -0.28,0.14 -0.62,0.37 -0.16,0.10 -0.40,0.35 -0.52,0.54 -0.02,0.03 -0.08,0.12 -0.13,0.19 -0.04,0.07 -0.12,0.21 -0.17,0.32 -0.10,0.23 -0.21,0.33 -0.26,0.25 -0.04,-0.07 -0.06,-0.54 -0.02,-0.86 0.05,-0.50 0.07,-0.67 0.13,-1.00 0.03,-0.21 0.04,-0.39 0.02,-0.49 -0.02,-0.14 -0.04,-0.16 -0.14,-0.16 -0.08,0 -0.13,0.03 -0.20,0.13 -0.05,0.07 -0.11,0.13 -0.12,0.13 -0.01,0.00 -0.02,0.01 -0.01,0.03 0.01,0.01 -0.01,0.07 -0.06,0.13 -0.04,0.05 -0.07,0.12 -0.07,0.15 0.00,0.03 -0.01,0.06 -0.04,0.08 -0.02,0.01 -0.05,0.07 -0.06,0.13 -0.00,0.05 -0.04,0.15 -0.07,0.21 -0.03,0.05 -0.06,0.12 -0.05,0.15 0.00,0.02 -0.01,0.09 -0.04,0.16 -0.02,0.06 -0.06,0.30 -0.09,0.53 -0.05,0.47 -0.03,1.05 0.06,1.58 0.06,0.37 0.05,0.68 -0.02,1.11 -0.02,0.12 -0.08,0.44 -0.12,0.71 -0.07,0.46 -0.07,0.49 -0.01,0.71 0.03,0.12 0.07,0.32 0.07,0.43 0.01,0.19 0.00,0.22 -0.14,0.41 -0.51,0.75 -0.81,1.66 -1.20,2.48 -0.07,0.16 -0.14,0.30 -0.14,0.30 5.66e-4,0.00 -0.05,0.13 -0.13,0.27 -0.07,0.14 -0.15,0.29 -0.16,0.34 -0.01,0.04 -0.06,0.12 -0.09,0.17 -0.03,0.05 -0.09,0.16 -0.13,0.24 -0.04,0.08 -0.08,0.16 -0.10,0.19 -0.13,0.22 -0.37,0.68 -0.37,0.70 0.00,0.01 -0.02,0.04 -0.06,0.06 -0.03,0.01 -0.07,0.06 -0.09,0.11 -0.32,0.60 -0.66,1.19 -1.03,1.76 -0.10,0.15 -0.37,0.93 -0.37,1.10 -0.02,0.42 -0.14,0.86 -0.30,1.13 -0.14,0.14 -0.23,0.35 -0.18,-0.06 0.02,-0.00 0.14,-0.36 0.16,-0.52 0.00,-0.05 0.05,-0.12 0.04,-0.12 -0.01,0.00 -0.10,-0.07 -0.11,-0.07 -1.05,-0.06 -2.45,0.10 -3.45,0.54 -0.11,0.06 -0.35,0.16 -0.39,0.16 -0.01,0.00 -0.05,0.02 -0.08,0.06 -0.02,0.03 -0.08,0.07 -0.13,0.09 -0.16,0.06 -0.37,0.19 -0.37,0.22 0.00,0.01 -0.01,0.03 -0.04,0.03 -0.02,0.00 -0.07,0.04 -0.10,0.09 -1.17,2.38 -1.08,3.82 0.14,5.27 0.04,0.01 0.10,0.08 0.23,0.25 0.17,0.22 0.32,0.36 0.36,0.33 0.01,-0.01 0.03,0.01 0.03,0.05 0.00,0.04 0.02,0.08 0.05,0.07 0.02,-0.00 0.05,0.02 0.05,0.05 0.00,0.03 0.01,0.05 0.03,0.03 0.01,-0.01 0.04,-5.66e-4 0.05,0.03 0.01,0.03 0.05,0.06 0.08,0.05 4.29,2.10 8.93,1.53 13.42,0.89 z m -7.66,-5.67 c -0.15,-0.16 -0.32,-0.25 -0.51,-0.25 -0.17,-5.66e-4 -0.21,-0.03 -0.22,-0.20 -0.00,-0.11 -0.00,-0.11 0.17,-0.10 0.33,0.01 0.63,0.19 0.74,0.45 0.08,0.18 0.08,0.17 -5.66e-4,0.20 -0.04,0.01 -0.10,-0.01 -0.18,-0.10 z m -9.02,5.63 c 0.07,-0.00 0.19,-0.15 0.26,-0.20 0.06,-0.05 0.17,-0.09 0.24,-0.10 0.10,-0.00 0.12,-0.02 0.10,-0.09 -0.00,-0.04 -0.03,-0.10 -0.06,-0.12 -0.08,-0.08 -0.05,-0.14 0.08,-0.18 0.07,-0.02 0.13,-0.05 0.11,-0.07 -0.03,-0.05 0.14,-0.05 0.28,-0.00 0.06,0.02 0.12,0.03 0.12,0.02 -5.66e-4,-0.01 0.01,-0.00 0.04,0.01 0.05,0.05 0.17,0.05 0.17,-0.00 -0.00,-0.02 0.03,-0.04 0.07,-0.04 0.11,-0.01 0.36,-0.17 0.38,-0.25 0.00,-0.03 0.03,-0.06 0.06,-0.06 0.02,-0.00 0.04,-0.02 0.04,-0.04 -0.00,-0.02 0.04,-0.07 0.10,-0.11 l 0.16,-0.11 c -1.95,-2.00 -1.18,-4.19 -0.00,-6.17 0.00,-0.03 0.03,-0.06 0.05,-0.06 0.02,-0.00 0.09,-0.08 0.16,-0.17 0.07,-0.09 0.15,-0.18 0.19,-0.20 0.03,-0.01 0.06,-0.05 0.06,-0.08 0.42,-0.59 0.94,-1.10 1.40,-1.66 0.02,-0.03 0.15,-0.16 0.28,-0.30 l 0.24,-0.24 -0.04,-0.44 c -0.02,-0.24 -0.10,-0.65 -0.16,-0.90 -0.11,-0.43 -0.36,-1.19 -0.41,-1.25 -0.01,-0.01 -0.01,0.15 0,0.36 0.02,0.33 0.01,0.41 -0.04,0.56 -0.08,0.20 -0.12,0.24 -0.25,0.32 -0.05,0.03 -0.15,0.10 -0.22,0.14 -0.13,0.09 -0.25,0.11 -0.37,0.05 -0.07,-0.03 -0.07,-0.04 -0.02,-0.11 0.02,-0.04 0.08,-0.08 0.11,-0.08 0.03,-0.00 0.07,-0.02 0.08,-0.04 0.00,-0.02 0.13,-0.11 0.27,-0.20 0.32,-0.20 0.36,-0.31 0.34,-0.78 -0.01,-0.43 -0.05,-0.57 -0.22,-0.80 -0.28,-0.37 -0.60,-0.66 -0.99,-0.89 -0.03,-0.01 -0.07,-0.05 -0.09,-0.08 -0.01,-0.02 -0.04,-0.04 -0.06,-0.04 -0.01,0.00 -0.10,-0.02 -0.18,-0.06 -0.08,-0.03 -0.17,-0.06 -0.19,-0.06 -0.02,0.00 -0.05,-0.01 -0.05,-0.03 -0.00,-0.02 -0.08,-0.04 -0.17,-0.05 l -0.15,-0.01 0.03,0.12 c 0.03,0.13 -0.01,0.25 -0.11,0.26 -0.02,0.00 -0.07,0.03 -0.09,0.07 -0.02,0.04 -0.07,0.10 -0.11,0.14 -0.03,0.03 -0.09,0.13 -0.14,0.21 -0.04,0.07 -0.12,0.20 -0.16,0.28 -0.04,0.07 -0.08,0.16 -0.08,0.19 0.00,0.03 -0.02,0.10 -0.06,0.15 -0.05,0.07 -0.06,0.12 -0.04,0.21 0.02,0.11 0.19,0.37 0.28,0.43 0.02,0.01 0.02,0.02 0.00,0.03 -0.01,0.00 0.02,0.07 0.09,0.15 0.06,0.08 0.11,0.15 0.09,0.15 -0.01,0.00 -0.00,0.02 0.02,0.05 0.03,0.03 0.03,0.06 0.00,0.08 -0.01,0.01 -0.04,0.00 -0.06,-0.03 -0.01,-0.03 -0.04,-0.06 -0.06,-0.05 -0.02,0.00 -0.08,-0.05 -0.13,-0.12 -0.13,-0.18 -0.16,-0.21 -0.26,-0.32 -0.10,-0.11 -0.32,-0.50 -0.32,-0.58 -0.00,-0.03 0.01,-0.06 0.04,-0.08 0.04,-0.02 0.06,-0.15 0.07,-0.61 0.00,-0.13 0.01,-0.28 0.03,-0.32 0.01,-0.04 0.01,-0.09 0.00,-0.11 -0.01,-0.02 0,-0.05 0.02,-0.06 0.03,-0.01 0.05,-0.05 0.05,-0.08 -0.00,-0.03 0.03,-0.05 0.11,-0.06 0.06,-0.00 0.12,-0.02 0.13,-0.03 0.04,-0.05 -0.06,-0.16 -0.15,-0.16 -0.27,0.00 -0.32,0.00 -0.33,-0.01 -5.66e-4,-0.01 -0.02,-0.02 -0.05,-0.01 -0.02,0.00 -0.05,0.01 -0.05,0.02 5.66e-4,0.01 -0.09,0.03 -0.21,0.04 -0.11,0.01 -0.21,0.00 -0.21,-0.01 -0.00,-0.02 -0.02,-0.02 -0.05,-0.00 -0.02,0.01 -0.04,0.05 -0.04,0.08 0.00,0.05 -0.00,0.05 -0.05,0 -0.03,-0.03 -0.07,-0.05 -0.09,-0.05 -0.04,0.00 -0.16,-0.38 -0.17,-0.56 -0.00,-0.13 -0.02,-0.16 -0.13,-0.22 -0.16,-0.09 -0.43,-0.07 -0.54,0.04 -0.04,0.04 -0.10,0.09 -0.13,0.09 -0.02,0.00 -0.04,0.02 -0.04,0.04 0.00,0.02 -0.01,0.03 -0.04,0.03 -0.02,-0.00 -0.10,0.07 -0.18,0.17 -0.21,0.35 -1.33,0.83 -1.46,0.33 -0.03,-0.16 -0.08,-0.28 -0.13,-0.28 -2.78,-0.64 -3.51,0.14 -5.45,2.32 -0.27,0.35 -0.50,0.78 -0.73,1.18 -0.09,0.14 -0.10,0.41 -0.01,0.51 0.03,0.04 0.03,0.07 0.01,0.14 -0.04,0.10 -0.05,0.11 -0.16,0.01 l -0.08,-0.08 C 2.85,31.08 2.73,31.84 2.59,32.59 1.94,39.41 7.29,43.25 12.60,41.40 z m -0.00,-1.16 c -0.11,-0.10 -0.12,-0.26 -0.02,-0.31 0.33,-0.10 0.67,-0.02 1.01,-0.02 0.02,0 0.04,0.01 0.03,0.02 -0.01,0.01 0.03,0.10 0.09,0.19 0.08,0.12 0.10,0.17 0.07,0.21 -0.13,0.06 -1.12,-0.04 -1.18,-0.09 z m -1.12,-0.55 c -0.04,-0.05 -0.08,-0.12 -0.08,-0.15 -0.00,-0.03 -0.02,-0.05 -0.04,-0.05 -0.03,0.00 -0.03,-0.00 -0.00,-0.04 0.05,-0.07 0.04,-0.13 -0.02,-0.09 -0.03,0.01 -0.22,0.05 -0.43,0.07 -0.46,0.05 -0.71,0.00 -0.74,-0.14 -0.00,-0.02 -0.02,-0.08 -0.03,-0.14 -0.03,-0.12 0.04,-0.18 0.15,-0.13 0.37,0.50 1.45,-0.54 1.87,-0.21 0.09,0.08 0.11,0.25 0.02,0.26 -0.15,0.02 -0.26,0.06 -0.30,0.10 -0.02,0.03 -0.02,0.04 0.00,0.01 0.02,-0.01 0.05,-0.00 0.06,0.01 0.27,0.08 0.65,-0.10 0.90,0.09 0.01,0.02 0.04,0.08 0.06,0.13 0.02,0.07 0.01,0.09 -0.05,0.12 -0.04,0.01 -0.10,0.01 -0.13,0.00 -0.24,-0.02 -0.55,0.06 -0.80,0.15 -0.26,0.10 -0.33,0.10 -0.42,-0.01 z m -2.41,-1.01 c -0.00,-0.01 -0.04,-0.03 -0.10,-0.02 -0.05,0.00 -0.10,-0.00 -0.10,-0.02 -0.00,-0.02 -0.06,-0.04 -0.13,-0.05 -0.16,-0.02 -0.55,-0.21 -0.58,-0.28 -0.01,-0.02 -0.03,-0.05 -0.06,-0.05 -0.03,0 -0.19,-0.17 -0.42,-0.47 -0.07,-0.09 -0.18,-0.33 -0.33,-0.71 -0.01,-0.04 -0.03,-0.11 -0.04,-0.16 -0.00,-0.04 -0.02,-0.15 -0.04,-0.24 -0.04,-0.19 0.01,-0.59 0.10,-0.76 0.03,-0.06 0.06,-0.12 0.06,-0.14 -0.00,-0.03 0.14,-0.22 0.23,-0.29 0.04,-0.04 0.15,-0.10 0.23,-0.13 0.07,-0.03 0.14,-0.08 0.14,-0.10 -0.00,-0.02 -0.01,-0.02 -0.03,-0.00 -0.01,0.01 -0.03,0.00 -0.03,-0.01 -0.00,-0.02 -0.02,-0.03 -0.04,-0.02 -0.02,0.01 -0.08,-0.05 -0.13,-0.15 -0.04,-0.09 -0.09,-0.15 -0.10,-0.13 -0.00,0.01 -0.10,0.04 -0.22,0.04 -0.16,0.00 -0.21,-0.00 -0.27,-0.07 -0.03,-0.04 -0.07,-0.11 -0.07,-0.15 -0.01,-0.13 -0.06,-0.17 -0.15,-0.10 -0.09,0.06 -0.59,0.13 -0.59,0.08 -0.00,-0.01 -0.02,-0.03 -0.05,-0.03 -0.05,0.00 -0.13,-0.11 -0.13,-0.21 -0.00,-0.06 0.02,-0.06 0.22,-0.06 0.13,0.00 0.23,-0.00 0.22,-0.03 -0.00,-0.02 0.03,-0.04 0.07,-0.04 0.09,-0.00 0.49,-0.30 0.54,-0.41 0.02,-0.04 0.08,-0.11 0.14,-0.15 0.08,-0.06 0.10,-0.06 0.14,-0.00 0.02,0.03 0.05,0.13 0.07,0.21 0.02,0.12 0.01,0.15 -0.03,0.15 -0.03,0.00 -0.07,0.05 -0.09,0.10 -0.01,0.05 -0.06,0.12 -0.11,0.15 -0.09,0.07 -0.10,0.17 -0.00,0.16 0.03,-0.00 0.07,-0.02 0.06,-0.04 -0.00,-0.01 0.06,-0.03 0.13,-0.02 0.08,0.00 0.18,-0.02 0.26,-0.07 0.08,-0.05 0.13,-0.06 0.16,-0.04 0.06,0.06 0.07,0.26 0.02,0.33 -0.06,0.09 -0.02,0.15 0.10,0.15 0.09,0.00 0.12,0.02 0.17,0.13 0.03,0.07 0.07,0.13 0.09,0.13 0.06,-0.00 0.15,0.12 0.13,0.19 -0.00,0.04 0.00,0.08 0.04,0.09 0.05,0.01 0.05,0.02 -0.00,0.08 -0.03,0.03 -0.11,0.06 -0.18,0.07 -0.08,0.00 -0.14,0.04 -0.18,0.10 -0.03,0.04 -0.07,0.07 -0.09,0.06 -0.01,-0.01 -0.07,0.01 -0.12,0.05 -0.12,0.10 -0.35,0.45 -0.34,0.50 0.00,0.02 -0.00,0.05 -0.02,0.07 -0.02,0.01 -0.03,0.08 -0.03,0.15 0.00,0.06 -0.00,0.13 -0.01,0.16 -0.02,0.05 0.02,0.38 0.07,0.52 0.11,0.29 0.14,0.33 0.18,0.31 0.02,-0.01 0.04,-0.00 0.04,0.00 -0.00,0.13 0.20,0.35 0.53,0.52 0.47,0.26 1.25,0.26 1.72,0.00 0.07,-0.03 0.14,-0.06 0.16,-0.05 0.01,0.01 0.03,5.66e-4 0.03,-0.02 -0.00,-0.02 0.05,-0.07 0.11,-0.11 0.06,-0.03 0.11,-0.08 0.11,-0.11 -0.00,-0.02 0.01,-0.04 0.03,-0.04 0.06,-0.00 0.27,-0.20 0.26,-0.25 -0.00,-0.02 0.01,-0.05 0.03,-0.05 0.04,-0.00 0.45,-0.55 0.45,-0.61 -0.00,-0.01 0.04,-0.13 0.10,-0.26 0.16,-0.34 0.18,-0.49 0.09,-0.68 -0.04,-0.08 -0.13,-0.17 -0.21,-0.22 -0.14,-0.07 -0.28,-0.29 -0.21,-0.35 0.07,-0.05 0.29,0.00 0.41,0.12 0.07,0.06 0.12,0.14 0.13,0.17 0.00,0.02 0.01,0.04 0.03,0.04 0.03,-0.00 0.13,0.39 0.15,0.64 0.01,0.20 -0.03,0.39 -0.20,0.78 -0.06,0.15 -0.12,0.28 -0.12,0.30 0.00,0.01 -0.08,0.14 -0.20,0.28 -0.11,0.14 -0.23,0.30 -0.27,0.35 -0.08,0.11 -0.33,0.28 -0.61,0.43 -0.11,0.05 -0.23,0.12 -0.27,0.14 -0.03,0.02 -0.11,0.05 -0.17,0.07 -0.15,0.05 -0.86,0.12 -0.86,0.08 z m 0.04,-0.63 c -0.01,-0.02 -0.07,-0.03 -0.16,-0.02 -0.08,0.01 -0.18,-0.00 -0.23,-0.02 -0.04,-0.02 -0.10,-0.04 -0.13,-0.04 -0.02,0.00 -0.05,-0.01 -0.05,-0.03 -0.00,-0.02 -0.03,-0.03 -0.07,-0.03 -0.09,0.00 -0.44,-0.35 -0.56,-0.58 -0.08,-0.15 -0.10,-0.26 -0.13,-0.54 -0.03,-0.37 -0.00,-0.54 0.14,-0.74 0.04,-0.05 0.07,-0.11 0.07,-0.14 -0.00,-0.02 0.01,-0.03 0.03,-0.01 0.02,0.01 0.06,-0.01 0.09,-0.06 0.06,-0.09 0.27,-0.18 0.47,-0.19 0.07,-0.00 0.12,-0.02 0.12,-0.03 -0.00,-0.01 0.02,-0.01 0.06,0.00 0.03,0.01 0.07,0.02 0.08,0.00 0.01,-0.01 0.02,-0.00 0.02,0.01 0.00,0.02 0.01,0.04 0.02,0.03 0.04,-0.01 0.40,0.14 0.41,0.18 0.00,0.01 0.02,0.03 0.05,0.02 0.02,-0.00 0.05,0.02 0.05,0.05 0.00,0.03 0.03,0.08 0.07,0.10 0.04,0.02 0.06,0.06 0.05,0.08 -0.01,0.01 -0.00,0.02 0.01,0.02 0.02,-0.00 0.04,0.01 0.04,0.03 0.00,0.02 0.04,0.10 0.09,0.18 0.11,0.18 0.20,0.52 0.14,0.52 -0.02,0.00 -0.07,-0.07 -0.11,-0.16 -0.03,-0.09 -0.13,-0.22 -0.21,-0.29 -0.20,-0.19 -0.26,-0.23 -0.26,-0.20 0.00,0.01 -0.01,0.00 -0.04,-0.01 -0.02,-0.02 -0.05,-0.04 -0.07,-0.04 -0.04,0.00 -0.02,0.14 0.02,0.19 0.03,0.03 0.03,0.04 0.00,0.04 -0.05,0.00 -0.00,0.25 0.06,0.30 0.02,0.02 0.04,0.05 0.03,0.06 -0.01,0.01 0.01,0.06 0.05,0.10 0.04,0.04 0.09,0.09 0.11,0.12 0.02,0.02 0.08,0.08 0.13,0.12 0.11,0.09 0.12,0.11 0.02,0.15 -0.05,0.02 -0.12,-0.01 -0.26,-0.11 -0.10,-0.08 -0.17,-0.14 -0.16,-0.14 0.01,-0.00 -0.00,-0.05 -0.03,-0.10 -0.09,-0.16 -0.18,-0.40 -0.19,-0.49 -0.00,-0.04 -0.03,-0.09 -0.06,-0.11 -0.03,-0.02 -0.04,-0.03 -0.02,-0.04 0.05,-0.00 0.05,-0.16 5.66e-4,-0.16 -0.03,0.00 -0.07,0.15 -0.04,0.20 0.01,0.01 0.00,0.11 -0.00,0.22 -0.01,0.14 -0.03,0.19 -0.08,0.20 -0.04,0.00 -0.07,-0.03 -0.09,-0.17 -0.01,-0.09 -0.02,-0.23 -0.01,-0.30 l 0.01,-0.12 -0.16,0.03 c -0.16,0.03 -0.20,0.06 -0.32,0.22 -0.12,0.16 -0.14,0.21 -0.17,0.39 -0.03,0.17 0.01,0.35 0.10,0.42 0.02,0.01 0.03,0.04 0.04,0.06 0.00,0.05 0.16,0.19 0.31,0.27 0.16,0.09 0.54,0.18 0.73,0.16 0.08,-0.00 0.21,-0.00 0.27,-0.00 0.08,0.00 0.11,-0.01 0.13,-0.05 0.01,-0.04 0.02,-0.05 0.04,-0.01 0.02,0.03 0.07,0.02 0.20,-0.05 0.15,-0.09 0.17,-0.11 0.15,-0.20 -0.02,-0.08 -0.01,-0.09 0.02,-0.05 0.06,0.06 0.10,0.05 0.10,-0.01 -0.00,-0.03 0.01,-0.11 0.04,-0.19 0.02,-0.07 0.05,-0.22 0.05,-0.31 0.00,-0.22 0.04,-0.26 0.10,-0.10 0.06,0.17 0.05,0.51 -0.02,0.76 -0.07,0.23 -0.09,0.24 -0.54,0.51 -0.16,0.09 -0.57,0.17 -0.60,0.11 z M 10.61,36.19 C 10.53,35.89 10.39,35.76 10.19,35.80 c -0.19,0.04 -0.21,0.08 -0.18,0.40 0.01,0.12 0.00,0.16 -0.03,0.15 -0.07,-0.02 -0.19,-0.36 -0.20,-0.59 -0.01,-0.17 0.00,-0.22 0.08,-0.33 0.08,-0.10 0.13,-0.13 0.31,-0.16 0.14,-0.02 0.21,-0.01 0.21,0.01 0.00,0.02 0.01,0.04 0.03,0.04 0.06,-0.00 0.28,0.21 0.29,0.29 0.00,0.04 0.03,0.12 0.05,0.19 0.06,0.15 0.07,0.36 0.02,0.49 -0.06,0.16 -0.12,0.12 -0.18,-0.10 z M 6.26,34.00 c -0.00,-0.00 -0.15,-0.00 -0.33,0.00 l -0.33,0.01 -0.07,-0.13 c -0.10,-0.18 -0.06,-0.20 0.49,-0.26 0.25,-0.02 0.49,-0.06 0.52,-0.08 0.11,-0.06 0.22,0.01 0.26,0.20 0.01,0.09 0.02,0.18 0.01,0.19 -0.01,0.02 -0.53,0.08 -0.55,0.06 z M 5.96,33.48 c -0.04,-0.00 -0.10,-0.02 -0.12,-0.04 -0.02,-0.01 -0.06,-0.02 -0.10,-0.01 -0.03,0.01 -0.14,-0.00 -0.24,-0.04 -0.09,-0.03 -0.21,-0.05 -0.25,-0.05 -0.04,0.00 -0.09,-0.01 -0.10,-0.03 -0.01,-0.02 -0.07,-0.03 -0.13,-0.03 -0.05,0.00 -0.15,-0.02 -0.21,-0.06 -0.05,-0.04 -0.11,-0.06 -0.13,-0.06 -0.04,0.01 -0.45,-0.16 -0.53,-0.23 -0.03,-0.03 -0.05,-0.07 -0.04,-0.09 0.00,-0.02 8.49e-4,-0.03 -0.01,-0.03 -0.01,0.00 -0.03,-0.03 -0.03,-0.07 3.39e-4,-0.10 0.08,-0.11 0.20,-0.01 0.05,0.04 0.13,0.06 0.19,0.06 0.05,-0.00 0.09,0.01 0.08,0.03 -0.01,0.02 0.00,0.02 0.03,0.01 0.02,-0.01 0.07,-0.01 0.10,0.01 0.05,0.04 0.23,0.08 0.78,0.17 0.69,0.10 0.65,0.08 0.70,0.31 0.03,0.14 -0.01,0.21 -0.14,0.19 z M 4.72,32.40 c -0.03,-0.01 -0.12,-0.06 -0.21,-0.12 -0.08,-0.05 -0.17,-0.09 -0.19,-0.09 -0.01,0.00 -0.03,-0.01 -0.03,-0.03 -0.00,-0.02 -0.05,-0.06 -0.12,-0.09 -0.09,-0.04 -0.14,-0.10 -0.19,-0.23 -0.03,-0.09 -0.06,-0.18 -0.05,-0.19 0.00,-0.01 0.10,0.02 0.20,0.08 0.10,0.06 0.19,0.10 0.21,0.10 0.01,-0.00 0.05,0.02 0.08,0.06 0.03,0.04 0.04,0.04 0.02,0.00 -0.02,-0.03 -0.00,-0.03 0.05,0.01 0.04,0.03 0.08,0.05 0.07,0.03 -0.00,-0.01 0.02,-0.01 0.05,0.01 0.03,0.02 0.05,0.03 0.05,0.02 -9.05e-4,-0.01 0.03,0 0.08,0.03 0.09,0.06 0.20,0.29 0.16,0.37 -0.02,0.04 -0.11,0.05 -0.19,0.02 z M 4.27,31.53 C 3.94,31.25 3.82,31.08 3.74,30.75 c -0.05,-0.21 0.03,-0.17 0.21,0.08 0.06,0.09 0.15,0.18 0.19,0.19 0.04,0.01 0.08,0.04 0.08,0.07 0.00,0.02 0.02,0.04 0.05,0.03 0.02,-0.00 0.06,0.02 0.07,0.05 0.01,0.03 0.04,0.05 0.06,0.05 0.05,-0.00 0.09,0.11 0.10,0.28 0.01,0.15 -0.08,0.15 -0.28,-0.01 z M 4.05,30.57 c -0.03,-0.05 -0.07,-0.16 -0.08,-0.25 -0.02,-0.24 -0.00,-0.82 0.02,-0.94 l 0.03,-0.10 0.05,0.12 c 0.03,0.07 0.07,0.28 0.09,0.47 0.01,0.19 0.03,0.34 0.03,0.34 0.03,-0.00 0.02,0.22 -0.00,0.31 -0.05,0.14 -0.08,0.15 -0.16,0.02 z m 4.85,-1.19 C 8.87,29.32 8.78,29.20 8.69,29.10 8.49,28.89 8.41,28.68 8.37,28.31 8.35,28.12 8.40,27.85 8.46,27.85 c 0.01,-0.00 0.02,-0.01 0.00,-0.04 -0.01,-0.02 0.01,-0.05 0.06,-0.07 0.04,-0.01 0.08,-0.04 0.08,-0.06 -0.00,-0.06 0.27,-0.18 0.44,-0.20 0.09,-0.00 0.25,0.00 0.35,0.02 0.18,0.03 0.24,0.03 0.46,-0.03 0.11,-0.03 0.11,-0.03 0.12,0.12 0.00,0.13 -0.00,0.17 -0.10,0.25 -0.06,0.05 -0.12,0.10 -0.13,0.10 -0.02,0.00 -0.18,0.18 -0.27,0.31 -0.12,0.18 -0.16,0.25 -0.15,0.25 0.01,-0.00 -0.00,0.05 -0.04,0.11 -0.07,0.15 -0.16,0.39 -0.15,0.45 0.00,0.02 -0.01,0.07 -0.04,0.10 -0.02,0.02 -0.05,0.10 -0.05,0.17 -0.01,0.15 -0.05,0.16 -0.12,0.02 z m -0.03,-0.74 c -0.01,-0.01 -0.07,-0.12 -0.11,-0.25 -0.08,-0.24 -0.17,-0.30 -0.16,-0.10 0.00,0.14 0.29,0.57 0.30,0.46 0.00,-0.04 -0.00,-0.08 -0.02,-0.10 z M 9.03,28.22 c -0.02,-0.00 -0.05,-0.02 -0.08,-0.04 -0.08,-0.06 -0.07,0.04 0.00,0.15 l 0.08,0.10 0.01,-0.10 c 0.00,-0.05 -0.00,-0.10 -0.02,-0.11 z m 4.99,-0.12 c -0.10,-0.05 -0.05,-0.18 0.02,-0.24 0.44,-0.28 0.48,-0.44 0.47,-0.99 0.53,0.45 0.18,1.21 -0.49,1.23 z m -1.64,-0.58 c -0.16,-0.08 -0.29,-0.11 -0.40,-0.10 -0.08,0.00 -0.17,0.00 -0.19,-0.01 -0.11,-0.06 -0.90,-0.02 -0.97,0.05 -0.02,0.03 -0.05,0.04 -0.05,0.03 -5.66e-4,-0.01 -0.05,0.00 -0.13,0.03 -0.07,0.03 -0.15,0.05 -0.18,0.05 -0.05,-0.01 -0.13,-0.25 -0.10,-0.32 0.06,-0.13 0.97,-0.28 1.28,-0.20 0.14,0.03 0.19,0.03 0.21,-0.00 0.01,-0.03 0.03,-0.03 0.05,0.01 0.01,0.03 0.03,0.05 0.04,0.04 0.01,-0.01 -0.01,-0.11 -0.05,-0.21 -0.15,-0.41 -0.15,-0.66 0.00,-0.77 0.09,-0.06 0.10,-0.06 0.20,0.03 0.07,0.07 0.10,0.14 0.11,0.26 0.00,0.08 0.03,0.22 0.05,0.31 0.03,0.12 0.03,0.17 -0.01,0.30 -0.04,0.12 -0.05,0.16 -0.01,0.18 0.03,0.02 0.03,0.03 -0.00,0.03 -0.03,0.00 -0.02,0.02 0.02,0.04 0.04,0.02 0.08,0.05 0.08,0.06 0.00,0.01 0.05,0.04 0.12,0.06 0.06,0.01 0.14,0.05 0.16,0.08 0.08,0.10 -0.02,0.09 -0.26,-0.01 z m 24.57,9.64 c -0.00,-0.01 -0.09,-0.21 -0.20,-0.44 -0.28,-0.59 -0.28,-0.58 -0.29,-0.73 -0.00,-0.07 -0.03,-0.10 -0.09,-0.09 -0.55,-0.02 -0.99,-0.52 -1.53,-0.61 -0.08,0.00 -0.12,0.06 -0.05,0.09 0.04,0.02 0.31,0.45 0.34,0.55 0.01,0.05 0.04,0.10 0.06,0.09 0.02,-0.00 0.02,0.00 0.01,0.02 -0.01,0.01 0.00,0.09 0.04,0.18 0.06,0.16 0.08,0.38 0.06,0.49 -0.03,0.11 -0.15,0.01 -0.18,-0.15 -0.06,-0.33 -0.13,-0.52 -0.26,-0.79 -0.07,-0.15 -0.15,-0.32 -0.18,-0.38 -0.02,-0.05 -0.05,-0.09 -0.07,-0.07 -0.01,0.01 -0.03,0.00 -0.03,-0.01 -0.33,0.17 -0.73,0.53 -1.02,0.83 -0.05,0.13 0.51,0.92 0.59,1.06 0.45,0.34 2.33,0.25 2.82,-0.03 z m 2.43,-1.22 c -0.01,-0.06 -0.01,-0.32 -0.00,-0.57 0.02,-0.58 0.02,-0.60 -0.03,-0.57 -0.50,0.08 -1.00,0.19 -1.51,0.29 -0.11,0.01 -0.24,0.05 -0.28,0.07 -0.24,0.13 -0.43,0.29 -0.67,0.46 -0.14,0.10 -0.26,0.19 -0.26,0.21 0.00,0.07 0.31,0.89 0.34,0.90 0.01,0.00 0.03,0.10 0.04,0.21 0.01,0.19 0.01,0.20 0.11,0.19 0.71,-0.17 1.90,-0.48 2.26,-1.19 z m -5.93,-0.35 c 0.27,-0.19 0.50,-0.45 0.77,-0.63 0.22,-0.15 0.69,-0.19 0.93,-0.08 0.44,0.15 0.80,0.56 1.28,0.45 0.01,-0.01 0.04,-0.03 0.06,-0.04 0.24,-0.14 0.45,-0.38 0.70,-0.51 0.04,-0.01 0.12,-0.06 0.16,-0.09 0.05,-0.04 0.16,-0.07 0.42,-0.08 0.92,-0.05 1.39,-0.12 1.61,-0.25 0.71,-0.38 1.19,-1.11 1.75,-1.72 0.22,-0.24 0.28,-0.62 0.14,-0.89 -0.08,-0.15 -0.41,-0.65 -0.48,-0.73 -0.02,-0.02 -0.04,-0.06 -0.05,-0.07 -0.00,-0.01 -0.01,-0.06 -0.03,-0.10 -0.01,-0.04 -0.03,-0.25 -0.04,-0.46 -0.01,-0.33 -0.00,-0.44 0.07,-0.84 0.11,-0.52 0.11,-0.59 0.01,-0.62 -0.04,-0.01 -0.17,-0.08 -0.30,-0.17 -0.12,-0.08 -0.30,-0.19 -0.40,-0.23 -0.09,-0.04 -0.21,-0.12 -0.26,-0.16 -0.04,-0.04 -0.14,-0.10 -0.22,-0.14 -0.07,-0.03 -0.13,-0.08 -0.13,-0.09 -0.00,-0.01 -0.02,-0.03 -0.05,-0.02 -0.02,0.00 -0.08,-0.03 -0.11,-0.07 -0.03,-0.04 -0.09,-0.07 -0.11,-0.07 -0.03,0.00 -0.09,-0.02 -0.15,-0.05 -0.05,-0.03 -0.16,-0.10 -0.25,-0.16 -0.08,-0.05 -0.17,-0.09 -0.19,-0.09 -0.02,0.00 -0.11,-0.03 -0.20,-0.07 -0.09,-0.04 -0.22,-0.09 -0.30,-0.10 -0.07,-0.00 -0.17,-0.03 -0.21,-0.05 -0.04,-0.02 -0.10,-0.04 -0.14,-0.04 -0.08,-0.00 -0.39,0.08 -0.48,0.14 -0.13,0.08 -0.59,0.19 -0.71,0.17 -0.06,-0.01 -0.20,-0.00 -0.31,0.01 -0.18,0.03 -0.18,0.03 -0.18,-0.06 0.00,-0.10 0.04,-0.20 0.05,-0.12 0.00,0.03 0.02,0.03 0.08,0.00 0.12,-0.06 0.40,-0.16 0.49,-0.16 0.27,-0.02 0.87,-0.51 1.12,-0.92 0.04,-0.07 0.12,-0.19 0.17,-0.25 0.56,-0.72 0.83,-1.67 1.26,-2.48 0.02,-0.02 0.12,-0.31 0.12,-0.35 -5.65e-4,-0.01 0.02,-0.10 0.05,-0.20 0.08,-0.38 0.30,-0.70 0.51,-1.02 0.47,-0.64 0.64,-0.93 0.76,-1.26 0.31,-0.79 0.16,-1.27 -0.05,-1.88 -0.68,-1.92 -1.57,-3.82 -2.64,-5.54 -0.32,-0.41 -0.52,-0.94 -0.81,-1.37 -0.03,-0.03 -0.06,-0.10 -0.08,-0.14 -0.02,-0.08 -0.20,-0.20 -0.29,-0.19 -0.02,0.00 -0.09,0.03 -0.15,0.07 l -0.11,0.07 0.03,0.26 c 0.05,0.38 0.13,0.73 0.18,0.82 0.02,0.04 0.06,0.18 0.10,0.32 0.04,0.20 0.05,0.26 0.02,0.38 -0.04,0.15 -0.14,0.18 -0.17,0.06 -0.01,-0.04 -0.03,-0.07 -0.05,-0.07 -0.01,0.00 -0.04,-0.03 -0.05,-0.08 -0.01,-0.04 -0.08,-0.19 -0.14,-0.32 -0.06,-0.13 -0.12,-0.26 -0.13,-0.29 -0.01,-0.03 -0.04,-0.08 -0.06,-0.11 -0.06,-0.11 -0.20,-0.41 -0.23,-0.51 -0.01,-0.05 -0.10,-0.18 -0.19,-0.28 -0.13,-0.14 -0.18,-0.17 -0.28,-0.16 -0.12,0.01 -0.23,0.13 -0.23,0.26 -0.00,0.27 0.11,0.76 0.20,0.87 0.03,0.03 0.03,0.05 0.00,0.05 -0.02,0.00 0.00,0.09 0.06,0.21 0.05,0.11 0.13,0.26 0.17,0.34 0.03,0.07 0.08,0.14 0.10,0.16 0.02,0.01 0.02,0.09 -0.00,0.19 -0.03,0.14 -0.04,0.16 -0.10,0.12 -0.03,-0.02 -0.08,-0.07 -0.09,-0.11 -0.01,-0.03 -0.03,-0.06 -0.05,-0.06 -0.01,0.00 -0.03,-0.03 -0.03,-0.07 -0.00,-0.04 -0.02,-0.08 -0.04,-0.07 -0.01,0.00 -0.03,-0.01 -0.03,-0.03 -0.00,-0.07 -0.22,-0.51 -0.25,-0.51 -0.01,0.00 -0.03,-0.02 -0.03,-0.06 -0.00,-0.06 -0.23,-0.57 -0.33,-0.72 -0.02,-0.03 -0.05,-0.09 -0.07,-0.13 -0.04,-0.09 -0.14,-0.19 -0.24,-0.21 -0.05,-0.01 -0.07,0.01 -0.12,0.16 -0.04,0.12 -0.04,0.21 -0.02,0.25 0.01,0.03 0.04,0.13 0.06,0.22 0.04,0.20 0.20,0.70 0.27,0.83 0.03,0.05 0.05,0.13 0.06,0.16 0.00,0.03 0.03,0.12 0.08,0.19 0.04,0.07 0.08,0.17 0.09,0.23 0.01,0.11 -0.03,0.33 -0.08,0.33 -0.04,0.00 -0.13,-0.14 -0.26,-0.43 -0.06,-0.13 -0.14,-0.31 -0.17,-0.39 -0.03,-0.07 -0.07,-0.16 -0.07,-0.20 -0.00,-0.03 -0.02,-0.08 -0.03,-0.10 -0.01,-0.02 -0.06,-0.18 -0.11,-0.35 -0.05,-0.16 -0.11,-0.34 -0.13,-0.39 -0.02,-0.04 -0.04,-0.09 -0.04,-0.10 0.00,-0.01 -0.06,-0.03 -0.14,-0.04 -0.11,-0.01 -0.15,0 -0.20,0.06 -0.06,0.08 -0.07,0.24 -0.03,0.34 0.01,0.03 0.03,0.10 0.04,0.16 0.06,0.25 0.09,0.35 0.20,0.61 0.01,0.04 0.07,0.21 0.13,0.37 0.05,0.16 0.13,0.37 0.17,0.47 0.08,0.17 0.09,0.39 0.03,0.53 -0.04,0.09 -0.17,-0.07 -0.27,-0.35 -0.04,-0.13 -0.10,-0.28 -0.12,-0.32 -0.14,-0.31 -0.38,-1.05 -0.41,-1.24 -0.03,-0.22 -0.09,-0.35 -0.13,-0.26 -0.01,0.02 -0.05,0.05 -0.08,0.06 -0.14,0.04 -0.17,0.14 -0.14,0.52 0.02,0.37 0.07,0.52 0.29,1.00 0.04,0.08 0.07,0.18 0.07,0.20 0.00,0.04 0.19,0.39 0.33,0.59 0.05,0.09 0.14,0.38 0.13,0.44 0.27,0.78 0.41,1.73 0.83,2.45 0.01,0.01 0.02,0.06 0.02,0.10 0.00,0.14 0.52,1.12 0.59,1.13 0.03,0.00 0.14,-0.01 0.23,-0.05 0.40,-0.14 1.17,-0.37 1.53,-0.31 0.04,0.01 0.23,0.04 0.42,0.07 0.62,0.11 1.24,0.39 1.69,0.92 5.66e-4,0.01 0.03,0.05 0.07,0.08 0.10,0.09 0.38,0.60 0.46,0.86 0.13,0.41 0.13,0.94 0.00,0.95 -0.01,0.00 -0.04,-0.11 -0.06,-0.25 -0.30,-1.43 -1.31,-2.02 -2.46,-2.14 -0.57,-0.07 -1.20,0.03 -1.80,0.29 -0.03,0.02 -0.11,0.04 -0.16,0.05 -0.05,0.00 -0.11,0.02 -0.12,0.05 -0.01,0.02 -0.04,0.03 -0.06,0.02 -0.02,-0.00 -0.05,-5.66e-4 -0.07,0.01 -0.01,0.01 -0.15,0.09 -0.30,0.17 -1.04,0.53 -1.95,1.20 -2.91,1.88 -0.14,0.10 -0.27,0.19 -0.28,0.21 -0.01,0.03 -0.25,0.21 -0.61,0.46 -0.29,0.20 -0.41,0.32 -0.57,0.52 -0.06,0.09 -0.16,0.20 -0.21,0.25 -0.04,0.04 -0.12,0.13 -0.18,0.19 -0.05,0.06 -0.16,0.19 -0.25,0.29 -0.16,0.17 -1.13,1.46 -1.24,1.63 -0.18,0.35 -0.34,0.73 -0.44,1.12 -0.02,0.11 -0.06,0.25 -0.08,0.29 -0.02,0.04 -0.04,0.13 -0.04,0.19 -5.66e-4,0.06 -0.01,0.11 -0.02,0.11 -0.05,0.00 -0.13,0.78 -0.12,1.18 0.33,2.31 1.65,4.15 3.08,5.72 0.15,0.16 0.27,0.31 0.27,0.34 0.00,0.02 0.01,0.03 0.03,0.03 0.01,-0.00 0.16,0.12 0.33,0.29 0.29,0.20 0.53,0.55 0.83,0.73 -5.66e-4,-0.01 0.04,0.00 0.10,0.04 0.14,0.10 0.65,0.20 0.82,0.16 0.07,-0.01 0.20,-0.07 0.28,-0.12 z m 2.01,-7.12 c 0.00,-0.06 0.03,-0.16 0.05,-0.22 0.02,-0.05 0.08,-0.20 0.07,-0.27 0.28,-0.53 -1.03,-1.31 -1.62,-1.64 -0.07,-0.03 -0.08,-0.04 -0.05,-0.14 0.01,-0.05 0.04,-0.08 0.04,-0.06 0.00,0.02 0.03,0.03 0.06,0.03 0.61,0.20 1.13,0.65 1.60,1.12 0.24,0.23 0.23,0.26 0.21,0.34 -0.03,0.25 -0.11,0.83 -0.36,0.94 -0.04,0.00 -0.04,-0.02 -0.03,-0.10 z m 4.36,-8.60 c -0.64,-1.00 -1.35,-0.72 -2.23,-1.13 -0.04,-0.05 -0.04,-0.08 -0.00,-0.16 0.03,-0.07 0.05,-0.08 0.09,-0.05 0.10,0.02 0.21,0.11 0.32,0.16 1.66,0.32 1.34,0.44 1.98,0.83 0.03,-0.00 0.04,0.03 0.03,0.15 -0.01,0.17 -0.04,0.31 -0.09,0.30 -0.03,-0.01 -0.06,-0.03 -0.11,-0.08 z M 18.19,32.78 c 0.17,-0.00 0.19,-0.06 -0.08,-0.28 -1.34,-0.76 -0.71,-0.71 0.49,0.07 0.20,0.15 0.23,0.18 0.62,0.15 l 0.33,-0.03 0.06,-0.28 c 0.10,-0.47 0.30,-0.95 0.54,-1.34 0.26,-0.37 0.47,-0.78 0.70,-1.18 0.10,-0.17 0.18,-0.32 0.18,-0.34 -0.00,-0.01 0.03,-0.07 0.08,-0.13 0.15,-0.21 0.06,-0.28 -0.24,-0.20 -0.46,0.09 -0.90,0.28 -1.32,0.51 -0.55,0.27 -0.99,0.54 -1.47,0.94 -0.86,0.71 -1.63,1.60 -2.34,2.52 0.01,0.02 -0.00,0.05 -0.04,0.07 -0.04,0.01 -0.05,0.04 -0.04,0.06 0.04,0.04 0.24,0.04 0.26,0.01 0.71,-0.30 1.51,-0.48 2.26,-0.55 z m 22.73,-4.84 c -0.02,-0.45 -0.10,-0.51 -0.54,-0.45 -0.36,0.05 -0.37,0.05 -0.36,0.09 0.00,0.01 -0.04,0.03 -0.09,0.04 -0.05,0.00 -0.07,0.01 -0.05,0.02 0.02,0.00 0.04,0.04 0.04,0.07 0.00,0.03 0.01,0.05 0.03,0.05 0.04,-0.00 0.64,0.35 0.67,0.40 0.01,0.02 0.03,0.04 0.03,0.03 0.01,-0.03 0.21,0.07 0.21,0.11 0.00,0.02 0.01,0.01 0.03,-0.01 0.01,-0.03 0.02,-0.20 0.01,-0.37 z m -19.67,0.92 c 0.16,-0.02 0.23,-0.04 0.25,-0.09 0.01,-0.03 0.07,-0.14 0.14,-0.25 0.13,-0.20 0.12,-0.27 -0.02,-0.25 -0.32,0.04 -0.43,0.07 -0.53,0.12 -0.06,0.03 -0.11,0.05 -0.11,0.04 -5.66e-4,-0.01 -0.02,-0.00 -0.06,0.02 -0.03,0.02 -0.14,0.06 -0.23,0.08 -0.09,0.02 -0.19,0.06 -0.22,0.10 -0.02,0.03 -0.06,0.06 -0.08,0.06 -0.05,0.00 -0.48,0.28 -0.50,0.32 -0.01,0.02 -0.05,0.04 -0.10,0.05 -0.04,0.00 -0.08,0.02 -0.08,0.04 0.00,0.01 -0.03,0.04 -0.07,0.06 -0.04,0.01 -0.10,0.05 -0.14,0.09 -0.08,0.08 -0.03,0.17 0.07,0.12 0.56,-0.18 1.13,-0.46 1.72,-0.54 z m 0.93,-1.32 c 0.48,-0.98 0.76,-2.06 1.35,-2.97 0.06,-0.08 0.04,-0.66 -0.01,-0.61 -0.01,0.01 -0.03,0.06 -0.02,0.10 0.00,0.04 -0.00,0.07 -0.02,0.08 -0.01,0.00 -0.06,0.07 -0.10,0.17 -0.04,0.09 -0.08,0.17 -0.10,0.17 -0.01,0.00 -0.02,0.02 -0.02,0.06 0.00,0.03 -0.02,0.07 -0.05,0.10 -0.05,0.04 -0.19,0.35 -0.19,0.43 -0.28,0.93 -0.54,1.71 -1.11,2.48 -0.08,0.10 -0.05,0.17 0.07,0.18 0.04,0.00 0.10,0.01 0.11,0.01 0.01,0.00 0.07,-0.10 0.12,-0.24 z m 5.47,-0.77 c 0.03,-0.04 0.05,-0.09 0.05,-0.12 -0.00,-0.09 0.40,-1.15 0.49,-1.25 0.05,-0.07 0.21,-0.44 0.41,-1.04 0.13,-0.37 0.27,-0.75 0.31,-0.84 0.61,-1.45 0.94,-3.02 1.14,-4.61 -0.00,-0.05 -0.09,-0.19 -0.24,-0.35 -0.13,-0.14 -0.23,-0.26 -0.22,-0.27 0.00,-0.00 -0.01,-0.03 -0.06,-0.06 -0.04,-0.03 -0.12,-0.13 -0.18,-0.24 -0.06,-0.10 -0.12,-0.19 -0.13,-0.20 -0.01,-0.01 -0.03,-0.03 -0.03,-0.05 -0.00,-0.02 -0.04,-0.11 -0.09,-0.19 -0.04,-0.08 -0.14,-0.31 -0.22,-0.51 -0.07,-0.19 -0.17,-0.44 -0.21,-0.55 -0.06,-0.17 -0.13,-0.37 -0.21,-0.67 -0.05,-0.21 -0.12,-0.70 -0.11,-0.85 0.01,-0.16 0.10,-0.43 0.17,-0.49 0.06,-0.06 0.40,-0.46 0.50,-0.59 0.14,-0.19 0.21,-0.63 0.11,-0.69 -0.03,-0.02 -0.52,0.37 -0.53,0.44 -0.00,0.01 -0.02,0.03 -0.04,0.03 -0.07,0.00 -0.56,0.63 -0.55,0.71 0.00,0.03 -0.01,0.07 -0.04,0.09 -0.10,0.08 -0.25,0.88 -0.23,1.21 0.04,0.70 -0.28,1.67 -0.81,2.41 -0.14,0.20 -0.24,0.37 -0.23,0.39 0.03,0.02 0.38,-0.07 0.45,-0.13 0.02,-0.01 0.06,-0.02 0.09,-0.01 0.03,0.01 0.05,0.00 0.05,-0.02 -0.00,-0.02 0.03,-0.04 0.07,-0.04 0.04,-0.00 0.19,-0.03 0.33,-0.05 0.17,-0.03 0.25,-0.03 0.25,-0.00 0.00,0.02 0.02,0.04 0.06,0.04 0.03,-0.00 0.11,0.02 0.18,0.07 0.12,0.07 0.13,0.07 0.34,-0.00 0.23,-0.09 0.53,-0.10 0.65,-0.03 0.04,0.02 0.10,0.11 0.12,0.20 0.06,0.20 0.14,0.27 0.21,0.19 0.04,-0.04 0.04,-0.04 0.02,-0.00 -0.01,0.03 -0.00,0.05 0.03,0.04 0.08,-0.00 0.23,0.17 0.26,0.32 0.01,0.06 0.04,0.13 0.06,0.16 0.04,0.05 -0.01,0.46 -0.11,0.70 -0.08,0.21 -0.21,0.44 -0.26,0.45 -0.01,0.00 -0.11,0.10 -0.21,0.22 -0.10,0.12 -0.19,0.22 -0.20,0.22 -0.03,0.00 -0.17,0.15 -0.31,0.34 -0.06,0.07 -0.12,0.14 -0.14,0.14 -0.01,0.00 -0.07,0.06 -0.12,0.14 -0.04,0.07 -0.12,0.16 -0.16,0.19 -0.03,0.02 -0.07,0.07 -0.07,0.09 -5.66e-4,0.02 -0.00,0.06 -0.00,0.09 -0.00,0.03 -0.01,0.03 -0.03,-0.00 -0.03,-0.04 -0.03,-0.03 -0.03,0.04 0.00,0.10 0.00,0.17 -0.00,0.65 -0.00,0.38 -0.10,1.23 -0.19,1.60 -0.07,0.36 -0.29,0.97 -0.42,1.24 -0.11,0.22 -0.38,0.59 -0.44,0.59 -0.02,0.00 -0.06,0.03 -0.08,0.07 -0.02,0.03 -0.07,0.08 -0.11,0.11 -0.07,0.04 -0.13,0.32 -0.11,0.59 l 0.00,0.13 0.30,-0.01 c 0.16,-0.00 0.31,-0.00 0.32,0.00 0.03,0.03 0.12,0.00 0.18,-0.06 z M 12.55,26.18 c -0.07,-0.07 -0.08,-0.07 -0.07,-0.00 0.00,0.04 0.03,0.09 0.07,0.12 0.09,0.07 0.10,-0.02 0.00,-0.11 z m 16.65,-2.25 c -0.00,-0.03 0.01,-0.06 0.02,-0.06 0.01,-0.00 0.10,-0.10 0.19,-0.22 0.09,-0.12 0.17,-0.21 0.18,-0.22 0.01,-5.66e-4 0.07,-0.07 0.14,-0.16 0.07,-0.09 0.18,-0.22 0.25,-0.29 0.06,-0.07 0.14,-0.16 0.17,-0.19 0.08,-0.10 0.50,-0.49 0.53,-0.49 0.07,-0.00 0.17,-0.25 0.31,-0.76 0.08,-0.31 0.19,-0.65 0.24,-0.77 0.09,-0.24 0.09,-0.27 0.01,-0.37 -0.20,-0.22 -0.42,-0.51 -0.55,-0.71 -0.17,-0.28 -0.29,-0.42 -0.34,-0.42 -0.01,0.00 -0.04,0.06 -0.05,0.13 -0.07,0.65 -0.13,1.10 -0.15,1.16 -0.01,0.04 -0.02,0.09 -0.02,0.12 -0.22,0.92 -0.56,2.08 -0.94,3.02 -0.01,0.00 -0.04,0.06 -0.06,0.14 -0.04,0.16 -0.04,0.19 0.00,0.19 0.01,-0.00 0.03,-0.03 0.03,-0.06 z m 2.34,-2.30 c 0.93,-0.76 1.93,-1.44 2.97,-2.01 0.06,-0.03 0.15,-0.08 0.18,-0.10 0.03,-0.02 0.11,-0.06 0.16,-0.09 0.09,-0.04 0.12,-0.14 0.05,-0.18 -0.04,-0.02 -0.20,-0.32 -0.20,-0.39 -0.00,-0.03 -0.01,-0.06 -0.03,-0.06 -0.03,-0.01 -0.28,-0.52 -0.29,-0.59 -0.00,-0.02 -0.03,-0.08 -0.07,-0.14 -0.03,-0.05 -0.08,-0.13 -0.09,-0.18 -0.26,-0.71 -0.57,-1.40 -0.73,-2.16 -0.00,-0.04 -0.04,-0.15 -0.09,-0.23 -0.12,-0.21 -0.38,-0.69 -0.38,-0.72 -0.00,-0.01 -0.01,-0.05 -0.01,-0.08 -0.00,-0.03 -0.05,-0.06 -0.11,-0.07 -0.05,-0.01 -0.13,-0.04 -0.16,-0.07 -0.03,-0.03 -0.05,-0.03 -0.05,-0.01 0.00,0.02 -0.06,0.04 -0.18,0.03 -0.56,-0.02 -0.90,0.04 -1.13,0.21 -0.05,0.04 -0.12,0.07 -0.14,0.07 -0.02,0.00 -0.04,0.02 -0.04,0.05 0.00,0.03 -0.00,0.03 -0.02,0.01 -0.01,-0.02 -0.12,-0.03 -0.23,-0.01 -0.18,0.01 -0.22,0.00 -0.36,-0.09 -0.08,-0.06 -0.20,-0.13 -0.27,-0.16 -0.13,-0.05 -0.15,-0.09 -0.05,-0.12 0.05,-0.02 0.06,-0.07 0.07,-0.26 0.01,-0.29 -0.04,-0.42 -0.33,-0.71 -0.10,-0.10 -0.20,-0.21 -0.21,-0.24 -0.01,-0.02 -0.08,-0.04 -0.19,-0.04 l -0.17,0.00 -0.02,0.25 c -0.03,0.26 -0.10,0.52 -0.17,0.64 -0.14,0.21 -0.39,0.52 -0.44,0.55 -0.07,0.03 -0.09,0.12 -0.07,0.40 0.00,0.17 0.12,0.64 0.23,0.91 0.01,0.03 0.02,0.07 0.03,0.09 0.02,0.08 0.19,0.52 0.22,0.59 0.02,0.04 0.06,0.15 0.08,0.23 0.02,0.08 0.08,0.20 0.12,0.26 0.04,0.05 0.06,0.10 0.05,0.10 -0.01,0.00 0.03,0.08 0.09,0.17 0.06,0.09 0.11,0.17 0.10,0.17 -0.01,0.00 0.09,0.13 0.21,0.27 0.03,0.04 0.06,0.08 0.05,0.08 -0.00,0.00 0.03,0.05 0.09,0.09 0.05,0.04 0.11,0.11 0.12,0.15 0.01,0.04 0.04,0.07 0.05,0.07 0.03,-0.00 0.49,0.44 0.49,0.48 5.66e-4,0.01 0.03,0.06 0.08,0.10 0.12,0.12 0.16,0.18 0.35,0.45 0.17,0.25 0.18,0.26 0.38,0.50 0.23,0.28 0.25,0.33 0.23,0.55 -0.01,0.10 -0.06,0.32 -0.12,0.47 -0.16,0.45 -0.25,0.72 -0.25,0.76 0.00,0.04 0.18,0.00 0.20,-0.04 z m -2.30,-6.20 c -0.09,-0.03 -0.05,-0.21 0.08,-0.40 0.23,-0.30 0.44,-0.48 0.61,-0.52 0.14,-0.03 0.20,0.01 0.12,0.08 -0.01,0.01 -0.02,0.04 -0.01,0.06 0.01,0.01 -0.00,0.02 -0.04,0.01 -0.04,-0.00 -0.07,0.02 -0.09,0.08 -0.01,0.05 -0.04,0.09 -0.07,0.10 -0.02,0.00 -0.09,0.05 -0.15,0.12 -0.06,0.06 -0.13,0.12 -0.15,0.12 -0.02,0.00 -0.03,0.02 -0.03,0.04 0.00,0.03 -0.18,0.30 -0.20,0.29 -0.00,-0.00 -0.02,-0.01 -0.05,-0.01 z m 1.86,-1.20 c 0.09,-0.13 0.12,-0.49 0.07,-0.89 -0.04,-0.39 -0.08,-0.52 -0.22,-0.66 -0.09,-0.10 -0.42,-0.25 -0.41,-0.19 5.66e-4,0.01 -0.02,0.00 -0.05,-0.02 -0.03,-0.03 -0.05,-0.03 -0.07,0.00 -0.01,0.03 -0.04,0.02 -0.09,-0.01 -0.06,-0.06 -0.07,-0.05 -0.15,0.05 -0.04,0.06 -0.10,0.11 -0.13,0.11 -0.02,0.00 -0.07,0.05 -0.11,0.11 -0.07,0.13 -0.04,0.19 0.19,0.36 0.28,0.20 0.51,0.61 0.54,0.96 0.01,0.23 0.02,0.24 0.14,0.30 0.14,0.06 0.18,0.04 0.30,-0.12 z m 1.41,-0.19 c 0.06,-0.07 0.07,-0.17 0.05,-0.34 -0.00,-0.04 -0.01,-0.11 -0.02,-0.16 -0.00,-0.04 -0.01,-0.10 -0.02,-0.12 -0.00,-0.02 -0.06,-0.07 -0.13,-0.10 -0.17,-0.07 -0.23,-0.01 -0.21,0.26 0.00,0.11 0.00,0.28 -0.00,0.36 -0.01,0.13 -0.01,0.16 0.04,0.18 0.11,0.03 0.23,0.01 0.30,-0.07 z m -0.65,-3.96e-4 c 0.14,-0.12 0.09,-0.88 -0.06,-1.05 -0.09,-0.09 -0.27,-0.12 -0.31,-0.03 -0.01,0.03 -0.01,0.14 0.00,0.24 0.03,0.19 0.00,0.71 -0.05,0.80 -0.01,0.02 -0.02,0.07 -0.00,0.10 0.02,0.06 0.32,0.01 0.43,-0.07 z" />
</svg>
