<?xml version="1.0" encoding="UTF-8" standalone="no"?>
<!-- Created with Inkscape (http://www.inkscape.org/) -->
<svg xmlns:dc="http://purl.org/dc/elements/1.1/" xmlns:cc="http://creativecommons.org/ns#" xmlns:rdf="http://www.w3.org/1999/02/22-rdf-syntax-ns#" xmlns:svg="http://www.w3.org/2000/svg" xmlns="http://www.w3.org/2000/svg" version="1.1" width="100%" height="100%" viewBox="0 0 48 48" id="butchergivesthe_bird_xA0_Image_1_" xml:space="preserve">
<defs id="defs337" />
<path d="m 31.45,0.99 c -0.29,0.09 -0.03,0.53 -0.10,0.80 -0.10,0.08 -0.15,0.22 -0.13,0.43 0.04,0.07 0.19,0.05 0.26,0.10 0.00,0.28 0.26,0.32 0.27,0.60 -0.32,-0.00 -0.31,-0.34 -0.40,-0.57 -0.22,0.14 -0.14,-0.08 -0.36,-0.10 -0.08,0.09 -0.06,0.29 -0.06,0.47 0.12,-0.01 0.20,0.01 0.23,0.10 -0.02,0.06 0.04,0.22 -0.03,0.23 0.01,-0.12 -0.05,-0.17 -0.13,-0.20 -0.26,0.24 0.29,0.60 0,0.77 -0.12,-0.02 -0.03,-0.25 -0.10,-0.33 -0.37,-0.17 -0.71,-0.03 -1.08,0 -0.29,0.02 -0.64,-0.03 -0.94,0 -0.20,0.02 -0.37,0.13 -0.54,0.13 C 28.14,3.45 27.99,3.34 27.81,3.32 27.30,3.25 26.35,3.35 25.99,3.45 25.89,3.42 25.92,3.27 25.85,3.21 24.72,3.26 23.51,3.44 22.27,3.38 22.16,3.36 22.22,3.17 22.07,3.18 21.91,3.07 21.75,3.13 21.56,3.15 c -0.29,0.02 -0.64,-0.02 -0.94,0 -0.45,0.04 -0.88,0.24 -1.34,0.23 -0.40,-0.00 -0.78,-0.13 -1.14,-0.06 -0.18,0.03 -0.30,0.15 -0.50,0.20 0.01,0.19 -0.25,0.25 -0.40,0.16 0.04,-0.12 0.13,-0.19 0.10,-0.40 C 17.05,2.99 16.38,2.71 15.99,3.04 15.72,2.94 15.61,2.65 15.29,2.68 c -0.28,0.02 -0.63,0.47 -0.67,0.91 -0.04,0.47 0.23,0.88 0.37,1.14 0.12,0.02 0.28,0.00 0.33,0.10 -0.04,0.02 -0.00,0.13 -0.06,0.13 -0.18,-0.03 -0.24,-0.18 -0.50,-0.13 -0.13,0.19 -0.21,0.34 -0.20,0.57 0.01,0.18 0.15,0.31 0.16,0.47 0.02,0.24 -0.08,0.42 0,0.64 0.06,0.17 0.25,0.18 0.23,0.40 -0.04,0.06 -0.22,0.00 -0.27,0.07 -0.12,0.15 -0.18,0.30 -0.20,0.47 -0.04,0.45 0.19,0.93 0.17,1.24 -0.00,0.09 -0.07,0.17 -0.07,0.27 0.01,0.27 0.20,0.55 0.20,0.80 -0.06,0.11 -0.20,0.15 -0.26,0.27 -0.06,0.27 0.01,0.48 0.03,0.70 0.02,0.24 -0.04,0.50 0,0.70 0.02,0.11 0.13,0.22 0.16,0.33 0.08,0.31 -0.07,0.52 -0.03,0.77 0.02,0.12 0.17,0.21 0.20,0.33 -0.14,0.00 -0.19,-0.09 -0.30,-0.03 -0.09,0.96 -0.04,1.97 0.13,2.83 -0.23,0.19 -0.16,0.48 -0.16,0.84 0,0.92 0.06,2.03 0.13,2.90 -0.09,0.14 -0.16,0.36 -0.13,0.61 0.02,0.15 0.05,0.41 0.16,0.43 0.07,-0.38 -0.01,-0.73 0.20,-0.97 -0.10,-0.85 -0.15,-1.82 -0.13,-2.63 0.04,0.48 0.24,1.01 0.23,1.51 -0.00,0.23 0.03,0.34 0.07,0.54 0.07,0.39 0.01,0.74 0.06,1.01 -0.11,0.16 -0.20,0.35 -0.26,0.57 -0.14,0.15 -0.36,0.21 -0.33,0.54 0.04,0.05 0.17,0.03 0.26,0.03 0.24,-0.28 0.50,-0.70 0.50,-1.18 -2.81e-4,-0.05 -0.05,-0.14 -0.06,-0.20 -0.12,-0.98 -0.09,-2.26 -0.30,-3.17 0.08,-0.15 0.15,-0.33 0.26,-0.47 0.01,-0.84 -0.03,-1.50 -0.23,-2.19 0.10,-0.00 0.10,0.08 0.23,0.06 0.24,-0.24 0.05,-0.62 0.03,-1.04 -0.01,-0.34 0.08,-0.68 0.03,-0.94 -0.01,-0.07 -0.08,-0.16 -0.10,-0.23 -0.13,-0.47 -0.19,-0.95 -0.10,-1.45 0.03,-0.16 0.16,-0.30 0.20,-0.50 0.14,-0.79 -0.20,-1.44 -0.23,-2.09 0.18,0.01 0.22,0.03 0.36,-0.03 0.11,-0.10 0.11,-0.31 0.20,-0.43 0.04,-0.38 -0.30,-0.60 -0.33,-0.94 -0.01,-0.13 0.03,-0.26 0.03,-0.40 -0.00,-0.14 -0.16,-0.30 0,-0.43 0.17,-0.02 0.24,0.04 0.37,0.07 0.65,-0.12 0.68,-1.62 -0.23,-1.24 -0.06,-0.13 -0.16,-0.42 -0.10,-0.57 0.13,0.03 0.14,0.18 0.23,0.26 0.18,0.03 0.43,0.07 0.54,-0.06 0.05,-0.10 0.03,-0.28 0.13,-0.33 0.10,-0.04 0.30,-0.04 0.30,0.10 -0.40,0.35 0.04,0.71 0.30,0.91 0.73,0.16 0.90,-0.27 1.18,-0.64 0.48,-0.14 0.90,0.01 1.34,0.03 0.29,0.01 0.51,-0.11 0.80,-0.16 0.28,-0.04 0.57,-0.02 0.87,-0.06 0.08,0.02 0.09,0.12 0.16,0.16 0.24,0.06 0.52,0.01 0.84,0.03 0.23,0.01 0.48,0.10 0.67,0.10 0.26,-0.00 0.52,-0.15 0.80,-0.17 0.30,-0.01 0.63,0.07 0.91,0.03 0.21,-0.03 0.46,-0.21 0.71,-0.20 0.11,0.03 0.10,0.18 0.20,0.23 0.45,0.15 0.85,-0.07 1.24,-0.10 0.20,-0.01 0.41,0.09 0.64,0.10 0.15,0.00 0.30,-0.07 0.43,-0.07 0.33,0.01 0.65,0.32 1.01,0.10 0.12,-0.03 0.09,0.08 0.20,0.07 0.07,-0.04 0.09,-0.12 0.20,-0.13 0.43,0.08 0.73,-0.14 1.01,-0.10 0.12,0.14 -0.17,0.10 -0.10,0.30 0.17,0.05 0.39,0.22 0.57,0.07 0.00,-0.20 -0.28,-0.09 -0.36,-0.20 -0.00,-0.10 0.12,-0.11 0.03,-0.20 -0.67,-0.19 -1.46,0.11 -2.15,0.03 -0.27,-0.03 -0.56,-0.02 -0.87,-0.03 -0.07,-0.00 -0.16,-0.05 -0.23,-0.06 -0.53,-0.05 -0.93,0.17 -1.41,0.10 -0.08,-0.05 -0.13,-0.14 -0.17,-0.23 -0.44,-0.06 -0.98,0.17 -1.48,0.03 0.63,0.01 1.07,-0.16 1.65,-0.20 0.14,0.02 0.15,0.18 0.30,0.20 0.63,0.12 1.20,-0.12 1.78,-0.06 0.17,0.01 0.35,0.15 0.54,0.16 0.23,0.01 0.45,-0.10 0.67,-0.13 0.34,-0.04 0.70,0.02 1.04,-0.03 0.20,-0.03 0.48,-0.16 0.71,0 0.00,0.10 -0.07,0.18 0,0.26 0.18,0.13 0.60,-0.15 0.64,0.13 -0.20,0.04 -0.47,0.01 -0.54,0.20 0.23,0.11 0.81,-0.20 0.77,0.23 -0.05,0.13 -0.29,0.08 -0.30,0.26 0.30,0.08 1.17,-0.17 1.72,-0.16 0.39,0.00 0.98,0.19 0.57,0.50 C 33.40,4.84 33.23,4.80 32.98,4.83 32.34,4.91 31.83,5.37 31.32,5.54 31.21,5.49 31.13,5.42 31.15,5.24 c 0.09,0.00 0.13,0.16 0.23,0.07 -0.00,-0.17 -0.02,-0.33 -0.06,-0.47 -0.17,-0.02 -0.33,0.24 -0.40,0.43 -0.08,0.04 -0.18,0.06 -0.20,0.16 0.10,0.10 0.29,0.10 0.36,0.23 0.05,0.17 0.11,0.48 -0.06,0.57 -0.18,-0.09 -0.02,-0.54 -0.27,-0.57 -0.03,0.10 0.07,0.51 -0.20,0.47 0.02,-0.19 -0.03,-0.30 -0.03,-0.47 -0.16,0.07 -0.13,0.33 -0.17,0.54 0.28,0.28 0.21,0.73 0.33,1.14 -0.18,0.40 -0.39,0.90 -0.54,1.28 -0.06,0.15 -0.07,0.35 -0.13,0.50 -0.05,0.12 -0.17,0.22 -0.23,0.33 -0.07,0.15 -0.11,0.31 -0.20,0.47 -0.09,0.16 -0.20,0.28 -0.23,0.43 -0.01,0.09 0.04,0.21 0.03,0.30 -0.03,0.20 -0.22,0.41 -0.40,0.43 -0.20,0.02 -0.45,-0.13 -0.67,-0.16 -0.64,-0.08 -1.10,0.16 -1.72,0.23 -0.08,0.03 -0.07,0.16 -0.16,0.20 -0.16,-0.24 -0.39,-0.44 -0.81,-0.43 -0.21,-0.07 -0.24,-0.37 -0.40,-0.50 -0.14,-0.11 -0.28,-0.06 -0.47,-0.17 0.09,-0.62 -0.56,-0.94 -0.17,-1.45 -0.00,-0.63 -0.03,-1.04 -0.13,-1.58 -0.06,-0.08 -0.22,-0.09 -0.33,-0.13 -0.00,-0.19 -0.05,-0.35 -0.17,-0.43 0.21,-0.13 0.16,-0.60 -0.06,-0.67 C 23.70,5.58 23.41,5.31 23.15,5.01 22.99,5.02 23.00,5.20 22.85,5.21 22.83,4.98 22.71,4.84 22.68,4.63 22.35,4.50 21.95,4.30 21.53,4.36 21.42,4.22 21.16,4.20 20.92,4.23 20.25,4.31 19.42,4.72 19.07,5.04 l 0,0.27 c -0.08,0.07 -0.07,0.04 -0.20,0.03 -0.22,0.37 -0.59,0.77 -0.54,1.31 -0.26,0.28 -0.03,0.85 -0.10,1.34 0.16,0.15 0.16,0.48 0.43,0.54 0.20,-0.25 0.03,-0.62 0,-0.94 -0.02,-0.21 0.01,-0.47 -0.03,-0.67 -0.01,-0.07 -0.10,-0.11 -0.06,-0.20 0.15,-0.04 0.13,0.09 0.26,0.07 0.29,-0.22 0.65,-0.41 1.08,-0.50 0.27,-0.06 0.59,-0.02 0.87,-0.10 0.09,-0.02 0.19,-0.09 0.30,-0.13 0.22,-0.08 0.42,-0.14 0.57,-0.23 0.17,-0.10 0.30,-0.17 0.43,-0.27 0.22,0.10 0.38,-0.27 0.60,-0.16 -0.11,0.17 -0.40,0.18 -0.40,0.47 0.36,0.12 0.42,0.56 0.60,0.87 -0.11,0.23 -0.18,0.50 -0.20,0.84 0.22,0.13 0.25,0.46 0.43,0.64 0.57,-0.01 0.19,0.81 0.30,1.31 -0.22,0.05 -0.41,0.14 -0.60,0.23 C 22.63,9.69 22.44,9.61 22.21,9.56 22.18,9.29 22.04,9.14 22.04,8.85 c 0.19,-0.00 0.30,0.06 0.43,-0.03 0.02,-0.16 -0.14,-0.12 -0.10,-0.30 0.22,-0.07 0.58,0.00 0.60,-0.26 -0.24,0.03 -0.51,-0.15 -0.50,-0.37 -0.07,0.07 -0.29,0.27 -0.40,0.10 0.09,-0.05 0.26,-0.04 0.27,-0.20 -0.02,-0.09 -0.10,-0.14 -0.16,-0.20 -0.50,0.12 -0.69,0.57 -0.94,0.94 0.26,0.30 0.08,0.85 0.37,1.14 -0.07,0.08 -0.15,0.18 -0.20,0.30 -0.21,-0.09 -0.32,0.04 -0.50,0.07 0.01,-0.07 0.06,-0.17 0,-0.23 -0.18,0.02 -0.16,0.26 -0.23,0.40 -0.29,0.01 -0.29,0.31 -0.40,0.50 -0.08,-0.07 -0.18,-0.19 -0.33,-0.10 -0.14,0.39 0.29,0.48 0.36,0.77 0.20,0.07 0.50,0.60 0.71,0.23 -0.01,-0.22 -0.31,-0.16 -0.37,-0.33 0.34,-0.05 0.87,0.06 1.21,0.03 -0.27,0.02 -0.58,0.17 -0.43,0.50 0.24,0.00 0.44,-0.13 0.67,-0.17 0.09,-0.01 0.25,0.07 0.30,-0.06 0.05,-0.11 -0.18,-0.24 -0.23,-0.36 0.19,-0.10 0.37,-0.23 0.54,-0.37 0.17,0.00 0.18,0.32 0.33,0.23 0.14,-0.09 0.14,-0.34 0.23,-0.50 0.07,0.18 0.23,0.42 0.40,0.40 0.04,-0.33 -0.11,-0.88 0.13,-1.01 0.04,0.20 0.14,0.46 0.20,0.67 0.03,0.12 -0.02,0.17 -0.06,0.33 -0.08,0.35 -0.03,0.90 -0.20,1.08 -0.03,0.08 0.06,0.19 0,0.20 -0.06,0.04 -0.19,0.03 -0.27,0.06 -0.04,0.02 -0.00,0.13 -0.06,0.13 -0.42,0.17 -0.62,0.71 -1.24,0.57 -0.05,0.04 -5.28e-4,0.20 -0.10,0.20 -0.50,0.12 -0.75,-0.14 -1.18,-0.20 -0.22,-0.30 -0.75,-0.44 -0.94,-0.80 -0.20,-0.39 -0.61,-0.80 -0.64,-1.21 -0.02,-0.39 0.10,-0.85 -0.26,-1.08 0.17,-0.15 -0.04,-0.46 -0.03,-0.67 -0.11,-0.17 -0.41,-0.16 -0.50,-0.36 0.07,-0.09 0.27,0.10 0.26,-0.10 -0.01,-0.14 -0.20,-0.17 -0.30,-0.13 -0.07,0.10 -0.18,0.16 -0.16,0.36 0.27,0.40 0.37,0.99 0.74,1.31 -0.05,0.70 0.08,1.01 0.36,1.48 0.26,0.43 0.51,0.83 0.87,1.04 -0.35,0.29 -0.35,0.95 -0.60,1.34 -0.56,0.37 -1.13,0.75 -1.48,1.34 -0.23,0.10 -0.34,0.26 -0.54,0.40 -0.25,0.19 -0.46,0.31 -0.67,0.50 -0.09,0.08 -0.22,0.16 -0.26,0.23 -0.11,0.16 -0.10,0.47 -0.20,0.71 -0.08,0.21 -0.26,0.38 -0.33,0.57 -0.03,0.08 -0.03,0.19 -0.07,0.30 -0.09,0.29 -0.36,0.72 -0.26,1.05 -0.09,0.17 -0.32,0.21 -0.33,0.47 0.34,-0.03 0.58,-0.34 0.77,-0.54 0.07,-0.07 0.21,-0.13 0.26,-0.20 0.08,-0.10 0.16,-0.32 0.23,-0.47 0.07,-0.16 0.19,-0.35 0.10,-0.54 -0.21,0.00 -0.14,0.24 -0.20,0.36 -0.10,0.22 -0.29,0.40 -0.47,0.54 0.17,-0.79 0.55,-1.38 0.81,-2.09 0.47,-0.47 1.08,-0.80 1.45,-1.38 0.32,-0.17 0.49,-0.49 0.87,-0.60 -0.07,0.30 -0.28,0.47 -0.30,0.84 0.16,-0.03 0.15,-0.24 0.20,-0.40 0.15,-0.13 0.20,-0.37 0.33,-0.54 0.10,-0.16 0.21,-0.48 0.37,-0.47 0.16,0.31 -0.10,0.43 -0.20,0.57 -0.10,0.16 -0.17,0.40 -0.23,0.60 -0.07,0.22 -0.16,0.45 -0.16,0.70 -0.20,0.33 -0.34,0.89 -0.33,1.31 0.55,-0.05 1.12,-0.27 1.55,-0.37 0.42,-0.10 0.74,-0.19 1.11,-0.26 0.23,-0.04 0.44,-0.11 0.67,-0.17 0.21,-0.05 0.39,0 0.57,0 0.20,0 0.39,-0.06 0.60,-0.06 0.38,0.00 0.77,0.03 1.11,0.03 0.26,-0.29 0.17,-0.78 0.27,-1.21 0.06,-0.30 0.26,-0.57 0.20,-0.94 0.05,-0.10 0.22,-0.08 0.26,-0.20 -0.06,-0.17 -0.01,-0.31 0,-0.50 0.04,-0.05 0.19,-0.00 0.23,-0.06 0.05,-0.24 0.08,-0.52 0.17,-0.74 0.07,-0.01 0.13,-0.04 0.20,-0.07 0.07,-0.16 0.07,-0.41 0.16,-0.57 0.06,-0.06 0.08,0.02 0.20,0 0.10,-0.23 0.17,-0.50 0.30,-0.71 0.02,-0.13 -0.20,-0.09 -0.10,-0.20 0.28,-0.01 0.52,-0.08 0.80,-0.10 -0.04,0.11 -0.20,0.11 -0.16,0.30 0.22,-0.02 0.23,-0.25 0.40,-0.33 0.44,-0.05 0.89,-0.10 1.18,0.13 -0.22,0.10 -0.52,0.29 -0.70,0.33 0.09,-0.14 0.33,-0.13 0.33,-0.36 -0.26,0.13 -0.64,0.14 -0.67,0.50 0.15,0.14 0.34,0.00 0.47,-0.06 0.24,-0.01 0.34,-0.18 0.61,-0.17 0.02,0.12 -0.08,0.18 0,0.27 0.35,-0.17 0.41,-0.64 0.70,-0.87 0.12,0.22 0.26,0.43 0.40,0.64 -0.16,0.48 -0.26,1.04 -0.30,1.61 -0.00,0.11 0.01,0.25 0,0.37 -0.04,0.28 -0.24,0.57 -0.33,0.84 -0.11,0.31 -0.12,0.66 -0.36,0.77 0.03,-0.98 0.30,-1.74 0.43,-2.63 -0.23,0.02 -0.21,0.32 -0.27,0.53 -0.05,0.20 -0.15,0.43 -0.20,0.64 -0.04,0.18 -0.01,0.39 -0.06,0.57 -0.06,0.24 -0.14,0.53 -0.17,0.84 -0.02,0.24 -0.06,0.63 0.20,0.70 0.26,-0.30 0.34,-0.75 0.50,-1.18 0.07,-0.18 0.15,-0.39 0.23,-0.60 0.07,-0.21 0.21,-0.44 0.23,-0.64 0.02,-0.15 -0.03,-0.32 -0.03,-0.47 -4.21e-4,-0.22 0.06,-0.42 0.10,-0.64 0.03,-0.20 -6.33e-4,-0.44 0.13,-0.64 0.22,-0.00 0.32,0.22 0.50,0.30 0.16,0.06 0.34,0.01 0.50,0.13 -0.08,0.05 -0.11,0.35 0,0.40 -0.04,0.15 -0.13,0.25 -0.13,0.36 -0.02,0.13 0.23,-0.00 0.20,0.13 -0.07,0.07 -0.25,0.05 -0.33,0.13 -0.02,0.11 0.05,0.13 0.03,0.23 -0.11,0.03 -0.12,0.16 -0.30,0.13 -0.49,0.77 -1.01,1.51 -1.41,2.36 -0.09,-0.00 -0.11,0.06 -0.16,0.10 0.07,0.28 -0.18,0.39 -0.03,0.67 -0.02,0.12 -0.26,0.05 -0.23,0.23 0.25,0.05 0.64,-0.17 0.91,-0.10 -0.12,0.11 -0.62,0.04 -0.67,0.33 0.03,0.07 0.19,0.01 0.20,0.10 -0.07,-0.00 -0.10,0.02 -0.10,0.10 0.03,0.11 0.19,0.12 0.23,0.23 -0.11,0.19 -0.13,0.49 -0.30,0.64 -0.09,0.44 -0.33,0.88 -0.47,1.38 -0.06,0.23 -0.12,0.47 -0.20,0.70 -0.07,0.22 -0.19,0.44 -0.26,0.67 -0.06,0.23 -0.04,0.48 -0.10,0.70 -0.01,0.05 -0.08,0.09 -0.10,0.13 -0.10,0.31 -0.14,0.85 0.16,0.94 0.07,-0.14 -0.01,-0.25 0,-0.43 0.05,-0.05 0.07,-0.15 0.13,-0.20 0.05,-0.78 0.21,-1.46 0.43,-1.99 0.12,-0.30 0.29,-0.77 0.43,-1.01 0.25,-0.90 0.52,-1.79 1.05,-2.43 0.42,-0.16 0.65,-0.69 0.97,-0.84 -0.05,0.11 -0.21,0.12 -0.20,0.30 0.21,-0.10 0.37,-0.28 0.54,-0.43 0.17,-0.15 0.32,-0.32 0.54,-0.43 0.09,0.65 -0.38,0.98 -0.20,1.51 -0.08,0.14 -0.15,0.09 -0.27,0.20 -0.06,0.28 0.09,0.33 0.20,0.43 -0.08,0.03 -0.09,0.26 -0.03,0.33 0.07,-7.03e-4 0.09,0.05 0.20,0.03 0.03,-0.35 -0.08,-0.83 0,-1.11 0.05,-0.18 0.11,-0.37 0.16,-0.57 0.05,-0.20 0.15,-0.39 0.20,-0.57 0.04,-0.16 0.02,-0.34 0.07,-0.50 0.07,-0.27 0.17,-0.47 0.20,-0.74 0.05,-0.54 0.24,-0.89 0.33,-1.34 0.18,-0.08 0.26,-0.51 0.13,-0.71 0.28,-0.23 0.39,-0.61 0.33,-1.11 -0.22,-0.14 -0.06,-0.68 -0.33,-0.77 -0.09,0.12 -0.07,0.34 0,0.47 -0.09,0.08 -0.08,0.10 -0.06,0.26 -0.04,0.05 -0.17,0.02 -0.16,0.13 0.08,0.10 0.04,0.12 0,0.23 0.09,0.11 0.23,-0.00 0.30,0.10 -0.12,0.06 -0.05,0.32 -0.17,0.40 -0.17,-0.01 -0.28,0.03 -0.36,0.10 -0.03,0.14 0.16,0.05 0.16,0.16 -0.20,0.13 0.13,0.19 0.10,0.37 -0.09,0.38 -0.18,0.78 -0.43,1.01 0.01,-0.35 0.30,-0.62 0.27,-0.91 -0.17,0.40 -0.60,0.86 -0.40,1.41 -0.09,0.04 -0.18,0.08 -0.27,0.13 -0.11,0.20 -0.32,0.29 -0.47,0.47 -0.13,0.17 -0.19,0.41 -0.37,0.57 -0.10,-0.07 -0.04,-0.25 -0.03,-0.36 0.10,-0.93 0.64,-1.54 0.84,-2.33 0.18,-0.12 0.19,-0.42 0.33,-0.60 0.03,-0.08 -0.10,-0.16 0,-0.20 0.25,-0.11 0.41,0.23 0.64,0.03 -0.03,-0.29 -0.41,-0.23 -0.50,-0.47 0.12,-0.27 -0.01,-0.74 -0.10,-1.01 -0.09,-0.02 -0.26,0.04 -0.30,-0.03 0.22,0.01 0.32,-0.07 0.50,-0.10 0.02,-0.12 0.06,-0.22 0.06,-0.37 0.01,-0.13 -0.23,-0.11 -0.13,-0.23 0.20,0.15 0.40,0.04 0.64,0.07 -0.01,0.18 -0.13,0.24 -0.10,0.47 0.11,0.01 0.23,0.14 0.33,0.07 0.13,-0.29 -0.11,-0.46 -0.10,-0.74 0.06,-0.08 0.24,0.09 0.23,-0.10 -0.02,-0.16 -0.21,0.01 -0.23,-0.13 0.05,-0.05 0.14,0.03 0.20,-0.06 -0.06,-0.13 -0.10,-0.09 -0.06,-0.30 -0.09,-0.00 -0.23,0.03 -0.23,-0.06 0.10,-0.13 0.48,-0.18 0.64,-0.06 0.04,0.20 0.01,0.47 0.20,0.54 C 33.88,8.97 33.66,8.54 33.48,8.25 33.82,8.07 33.78,7.53 33.92,7.16 33.61,6.76 33.05,7.07 32.57,7.06 32.51,7.06 32.42,7.00 32.37,7.00 32.02,6.95 31.66,7.11 31.39,6.93 c 0.04,-0.49 0.93,-0.42 1.34,-0.33 0.37,-0.06 0.50,-0.36 0.94,-0.36 0.06,0.22 0.03,0.54 0.23,0.64 0.12,-0.21 0.10,-0.57 0.13,-0.87 -0.43,-0.00 -1.05,-0.04 -1.58,0 -0.07,0.00 -0.16,0.05 -0.23,0.07 -0.16,0.02 -0.39,-0.02 -0.47,0.13 0.26,0.03 0.64,-0.19 0.77,0.03 C 32.34,6.32 32.11,6.38 31.89,6.46 31.77,6.31 31.53,6.27 31.45,6.08 31.54,5.88 31.62,5.65 31.86,5.58 c 0.22,-0.06 0.67,0.02 1.01,-0.06 0.14,-0.03 0.22,-0.15 0.33,-0.17 0.10,-0.01 0.26,0.08 0.36,0.03 0.14,0.12 0.13,0.41 0.33,0.47 0.07,-0.42 -0.14,-0.79 0,-1.25 -0.15,-0.26 -0.49,-0.33 -0.80,-0.43 0.05,-0.31 0.02,-0.51 0.13,-0.74 -0.03,-0.09 -0.24,-0.02 -0.26,-0.13 0.01,-0.30 0.03,-0.58 0,-0.87 C 32.95,2.18 32.81,2.02 32.77,1.83 32.72,1.57 32.88,1.21 32.54,1.15 32.46,1.52 32.42,1.91 32.33,2.27 32.18,2.14 32.33,1.71 32.17,1.59 31.97,1.47 31.97,1.85 31.93,2.00 31.84,1.85 31.87,1.58 31.69,1.52 c -0.13,-0.02 0.00,0.23 -0.13,0.20 -0.05,-0.08 -0.06,-0.20 -0.06,-0.33 l 0.16,0 C 31.62,1.23 31.59,1.05 31.45,0.99 z m 0.67,0.10 c 0.03,0.14 -0.11,0.31 0.03,0.36 0.01,-0.12 0.08,-0.20 0.06,-0.36 l -0.10,0 z m 0.47,0.80 c 0.09,0.09 0.12,0.25 0.13,0.43 -0.17,-0.02 -0.13,-0.24 -0.13,-0.43 z m -0.94,0.30 c 0.10,0.17 0.24,0.31 0.30,0.54 l -0.20,0 C 31.77,2.53 31.67,2.41 31.66,2.20 z m 0.50,0.30 c 0.12,0.01 0.09,0.19 0.10,0.33 C 32.11,2.84 32.12,2.62 32.17,2.50 z M 15.32,2.97 c 0.03,-0.00 0.06,-0.00 0.10,0.00 0.16,0.02 0.31,0.34 0.54,0.33 0.18,-0.00 0.18,-0.16 0.33,-0.20 0.33,0.03 0.61,0.12 0.80,0.30 -0.09,0.17 -0.29,0.18 -0.20,0.40 0.06,0.16 0.31,0.10 0.54,0.13 0.20,-0.09 0.35,-0.39 0.64,-0.43 0.40,-0.05 1.00,0.11 1.55,0.06 0.31,-0.03 0.61,-0.16 0.91,-0.20 0.24,-0.02 0.42,0.04 0.60,0.03 0.26,-0.01 0.45,-0.17 0.70,-0.07 0.16,0.03 0.02,0.18 0.20,0.23 0.54,0.00 1.08,0.01 1.58,0.06 -0.59,0.20 -1.51,0.06 -2.19,0.10 -0.13,-0.02 -0.13,-0.17 -0.23,-0.23 -0.30,0.05 -0.62,-0.01 -0.91,0.03 -0.14,0.02 -0.26,0.14 -0.40,0.17 -0.57,0.10 -1.19,-0.16 -1.82,0 -0.29,0.11 -0.36,0.46 -0.64,0.60 -0.23,-0.02 -0.40,0.04 -0.57,0 C 16.76,4.22 16.70,4.06 16.60,3.95 16.96,3.62 16.66,3.15 16.23,3.32 16.07,3.38 16.10,3.70 15.93,3.75 15.54,3.87 15.51,3.37 15.29,3.22 c -0.57,0.14 -0.08,0.70 -0.07,1.11 0.18,0.15 0.43,0.07 0.67,0.03 0.16,0.28 0.00,0.68 -0.13,0.87 -0.21,0.08 -0.42,-0.04 -0.57,0.10 -0.20,0.45 -0.17,1.28 0.16,1.55 -0.00,0.25 0.06,0.41 -0.03,0.60 -0.10,0.09 -0.16,-0.05 -0.30,-0.03 -0.08,0.05 -0.11,0.15 -0.13,0.23 -0.03,0.21 0.08,0.38 0.13,0.60 0.04,0.20 0.05,0.51 0.07,0.77 0.01,0.27 0.03,0.58 0,0.80 -0.01,0.12 -0.10,0.19 -0.13,0.30 -0.11,0.40 -0.10,0.92 0,1.31 0.04,0.17 0.15,0.30 0.16,0.50 0.01,0.22 -0.06,0.45 -0.06,0.67 9.84e-4,0.31 0.11,0.55 0.13,0.84 -0.02,0.19 -0.16,-0.09 -0.23,0.03 -0.19,0.43 0.02,1.01 0.06,1.55 0.04,0.53 0.10,1.04 -0.20,1.27 -0.01,0.11 0.05,0.32 -0.10,0.30 -0.02,-0.38 1.06e-4,-0.72 0.17,-0.91 -0.04,-0.88 -0.21,-1.64 -0.20,-2.59 0.07,-0.04 0.18,0.14 0.33,0.03 0.07,-0.23 -0.10,-0.40 -0.13,-0.63 -0.01,-0.18 0.05,-0.37 0.03,-0.57 -0.02,-0.21 -0.17,-0.43 -0.20,-0.67 -0.04,-0.36 0.03,-0.70 0,-1.11 0.05,-0.11 0.14,-0.18 0.20,-0.30 0.06,-0.28 -0.05,-0.53 -0.06,-0.80 -0.00,-0.15 0.05,-0.31 0.03,-0.47 -0.01,-0.12 -0.10,-0.23 -0.13,-0.36 -0.07,-0.39 -0.05,-0.86 0.10,-1.08 0.07,-0.03 0.20,-0.02 0.26,-0.07 0.09,-0.26 -0.18,-0.51 -0.23,-0.80 -0.04,-0.23 0.11,-0.55 -0.13,-0.67 -0.01,-0.30 0.00,-0.55 0.20,-0.63 0.19,-0.01 0.19,0.16 0.43,0.10 C 15.58,5.04 15.53,4.68 15.42,4.57 15.27,4.54 15.22,4.61 15.08,4.60 14.96,4.23 14.72,3.78 14.85,3.38 14.89,3.23 15.08,3.00 15.32,2.97 z m 17.39,0.00 c 0.03,-0.00 0.05,0.00 0.06,0.03 -0.02,0.36 0.03,0.64 0.06,0.94 -0.10,0.02 -0.12,-0.03 -0.20,-0.03 -0.00,-0.11 0.09,-0.25 0.10,-0.43 0.00,-0.17 -0.10,-0.36 -0.03,-0.50 z m -0.98,0.06 c 0.08,-0.01 0.11,0.04 0.10,0.13 -0.08,0.00 -0.14,-0.01 -0.13,-0.10 0.02,0.00 0.03,-0.01 0.03,-0.03 z m -0.57,0.06 c 0.10,-0.00 0.08,0.12 0.10,0.20 -0.10,0.00 -0.10,-0.10 -0.10,-0.20 z m 0.94,0.03 c 0.29,0.23 0.07,1.01 0.64,0.98 -0.01,0.19 -0.29,0.10 -0.43,0.16 0.00,-0.32 -0.04,-0.58 -0.17,-0.77 0.08,-0.19 -0.06,-0.26 -0.03,-0.37 z m -0.30,0.13 c 0.05,-0.00 0.05,0.03 0.10,0.03 0.05,0.35 0.28,0.70 0.27,1.01 -0.13,-0.00 -0.13,0.04 -0.23,0 0.01,-0.37 -0.31,-0.71 -0.13,-1.04 z M 20.75,4.77 c 0.08,0.29 0.52,0.23 0.70,0.43 -0.09,0.12 -0.38,0.10 -0.54,0.06 -0.10,0.08 -0.15,0.10 -0.33,0.06 -0.09,-0.01 0.02,0.18 -0.07,0.17 -0.17,0.04 -0.09,-0.15 -0.23,-0.13 -0.08,0.05 -0.08,0.29 0,0.37 -0.03,0.05 -0.12,0.05 -0.13,0.13 -0.10,-0.05 -0.07,-0.24 -0.17,-0.30 -0.10,-0.01 -0.11,0.06 -0.23,0.03 -0.14,-0.22 0.07,-0.48 0.26,-0.57 -0.09,-0.17 -0.22,0.04 -0.40,0 0.13,-0.40 0.72,-0.17 1.14,-0.26 z m 2.73,1.14 c 0.08,0.09 -0.14,0.12 -0.03,0.26 -0.21,0.01 -0.37,-0.02 -0.54,-0.06 0.25,-0.00 0.37,-0.14 0.57,-0.20 z m -0.50,0.74 c 0.17,0.00 0.19,0.17 0.40,0.13 0.01,0.10 0.10,0.13 0.10,0.26 -0.03,0.01 -0.05,0.02 -0.06,0.06 -0.15,0.00 -0.18,-0.11 -0.23,-0.20 -0.02,-0.13 -0.22,-0.08 -0.20,-0.26 z m 7.86,0.33 c 0.12,0.10 -0.10,0.11 0,0 z m 0.94,0.13 c 0.05,-0.00 0.10,0.00 0.13,0.03 -0.01,0.04 -0.04,0.08 -0.06,0.13 -0.16,0.02 -0.12,-0.14 -0.30,-0.10 0.05,-0.02 0.14,-0.06 0.23,-0.06 z m -0.80,0.09 c 0.25,0.00 0.31,0.37 0.60,0.47 0.10,0.03 0.36,0.03 0.50,0.03 0.19,-0.00 0.89,-0.03 1.04,-0.13 0.10,-0.06 0.10,-0.15 0.17,-0.23 l 0.23,0 c 0.07,0.35 -0.08,0.74 -0.33,0.87 -0.36,-0.18 -0.62,-0.03 -0.91,-0.03 C 31.91,8.20 31.70,7.94 31.42,7.67 31.29,7.54 31.06,7.44 30.98,7.23 z m -0.33,0.43 0.10,0 c 0.14,0.66 0.79,0.82 1.45,0.98 0.03,0.31 -0.27,0.28 -0.36,0.47 0.04,0.09 0.18,0.08 0.30,0.10 0.00,0.12 -0.19,0.04 -0.20,0.16 0.02,0.14 0.22,0.01 0.20,0.13 -0.11,0.04 -0.27,0.06 -0.36,0.13 -0.00,0.23 -0.08,0.56 -0.23,0.74 0.01,0.09 0.13,0.09 0.20,0.13 -0.05,0.06 -0.19,0.05 -0.23,0.13 0.04,0.22 0.33,-0.00 0.54,0.06 -0.08,0.22 -0.58,0.04 -0.67,0.27 0.08,0.25 0.43,0.04 0.64,0.03 -0.10,0.24 -0.59,0.10 -0.74,0.30 0.00,0.09 0.14,0.06 0.23,0.07 -0.03,0.15 -0.27,0.10 -0.36,0.20 -0.03,0.14 0.18,0.03 0.16,0.16 -0.02,0.06 -0.19,-0.02 -0.16,0.10 0.19,0.15 0.91,-0.30 0.91,0.07 -0.13,-0.09 -0.24,0.00 -0.37,0.03 -0.63,0.13 -1.10,-0.08 -1.51,-0.40 -0.18,-0.42 -0.49,-0.71 -0.54,-1.28 0.38,-0.83 0.83,-1.61 1.04,-2.63 z m -6.71,0.13 c 0.06,-0.00 -0.01,0.33 0.10,0.43 0.00,0.08 -0.05,0.10 -0.06,0.16 -0.03,-0.08 -0.05,-0.19 -0.13,-0.23 0.01,-0.13 0.09,-0.21 0.10,-0.36 z m 7.19,0.03 c 0.10,-0.01 0.14,0.02 0.13,0.13 -0.08,-0.00 -0.12,-0.04 -0.13,-0.13 z M 34.09,8.04 c -0.47,0.05 -0.22,0.38 -0.17,0.67 0.04,0.21 -0.00,0.42 0.06,0.57 0.35,0.02 0.14,-0.38 0.10,-0.54 0.20,-0.16 0.09,-0.49 0,-0.70 z M 19.83,8.19 c -0.21,0.00 -0.39,0.08 -0.46,0.29 0.23,0.01 0.44,-0.08 0.57,0.03 0.03,0.31 -0.45,0.37 -0.54,0.67 0.21,0.34 0.53,-0.26 0.74,-0.03 -0.11,-0.00 -0.16,0.04 -0.17,0.13 0.03,0.00 0.03,0.05 0.03,0.10 0.14,0.09 0.32,-0.02 0.50,0 0.12,-0.19 0.20,-0.44 0.20,-0.77 C 20.62,8.38 20.19,8.18 19.83,8.19 z m 4.36,0.29 c 0.17,-0.01 0.09,0.28 0.07,0.36 -0.20,0.02 -0.18,-0.17 -0.30,-0.23 0.08,-0.05 0.21,0.04 0.23,-0.13 z m -3.27,0.13 c -0.03,0.09 -0.04,0.32 0.07,0.37 0.06,-0.11 0.04,-0.25 0.03,-0.37 l -0.10,0 z M 33.52,9.19 c -0.05,-0.00 -0.10,0.00 -0.13,0.03 0.02,0.12 0.05,0.23 0.20,0.23 -0.00,-0.10 -0.03,-0.18 -0.06,-0.26 z m -9.89,0.30 c 0.04,0.06 0.23,0.21 0.03,0.23 0.02,-0.12 -0.10,-0.15 -0.03,-0.23 z m -2.46,0.03 c -0.01,-0.00 -0.02,0.00 -0.03,0.00 -0.05,0.05 -0.04,0.19 0.07,0.16 0.04,-0.04 0.04,-0.15 -0.03,-0.17 z m 12.08,0.17 c -0.06,0.00 -0.10,0.11 0,0.13 0.00,-0.04 0.05,-0.05 0.06,-0.10 -0.02,-0.02 -0.04,-0.03 -0.06,-0.03 z m -1.18,0.04 c 0.02,0.00 0.04,0.01 0.07,0.02 -0.00,0.15 -0.09,0.06 -0.20,0.07 0.02,-0.07 0.06,-0.10 0.13,-0.09 z m 1.84,0 c -0.03,-0.00 -0.05,0.00 -0.08,0.02 0.01,0.21 0.20,0.38 0.37,0.33 l 0,-0.26 c -0.09,-0.01 -0.19,-0.08 -0.28,-0.09 z m -2.36,0.13 c -0.05,0.01 -0.10,0.07 -0.08,0.15 0.07,0.01 0.13,-0.00 0.17,-0.03 0.01,-0.10 -0.03,-0.13 -0.08,-0.12 z m -8.72,0.25 0.17,0 c 0.03,0.11 -0.10,0.05 -0.17,0.06 l 0,-0.06 z m -1.95,0.03 c 0.20,0.01 0.20,0.25 0,0.26 -0.04,-0.04 -0.04,-0.21 0,-0.26 z m 2.19,0.03 0.23,0 c 0.02,0.13 -0.05,0.17 -0.03,0.30 -0.09,-0.07 -0.18,-0.14 -0.20,-0.30 z m 11.07,0 c -0.00,0.04 -0.07,0.04 -0.10,0.07 -0.02,0.09 0.04,0.08 0.03,0.16 l 0.13,0 c 0.05,-0.06 0.04,-0.24 -0.07,-0.23 z m -2.75,0.06 c -0.01,-0.00 -0.02,8.1e-4 -0.04,0.00 -0.04,0.09 -0.01,0.15 0.10,0.16 0.01,-0.04 0.04,-0.06 0.03,-0.13 -0.03,-0.00 -0.05,-0.03 -0.08,-0.03 z m 2.01,0.13 c 0.05,0.15 -0.11,0.21 -0.13,0.33 -0.01,0.18 0.09,0.35 0.16,0.50 0.14,-0.05 0.19,-0.18 0.26,-0.30 -0.06,-0.06 -0.05,0.02 -0.16,0 -0.08,-0.16 -0.02,-0.28 -0.03,-0.54 l -0.10,0 z m -11.31,0.17 c 0.00,0.10 -0.12,0.11 -0.03,0.20 0.21,-2.8e-4 0.18,-0.15 0.36,-0.03 -0.25,0.30 -0.87,0.46 -1.31,0.37 0.12,-0.25 0.75,-0.01 0.80,-0.33 -0.14,-0.04 -0.50,0.17 -0.67,0 0.33,-0.01 0.49,-0.20 0.84,-0.20 z m 9.08,0.12 c -0.04,-0.00 -0.08,0.03 -0.03,0.14 0.21,-0.03 0.11,-0.14 0.03,-0.14 z m -0.30,0.00 c -4.22e-4,0.04 -0.05,0.03 -0.06,0.07 0.06,0.09 0.20,-0.04 0.06,-0.07 z m 3.34,0.06 c -0.00,6.31e-4 -0.01,0.00 -0.03,0.00 -0.06,0.07 -0.02,0.25 0,0.33 -0.20,0.10 -0.33,0.27 -0.37,0.54 0,0.11 0.10,0.11 0.10,0.23 -0.16,0.20 0.06,0.49 0,0.81 -0.18,0.09 -0.02,0.32 -0.16,0.43 0.18,0.16 0.07,0.39 0.10,0.61 0.01,0.13 0.09,0.18 0.13,0.26 0.02,0.06 0.00,0.16 0.03,0.20 0.06,0.11 0.25,0.16 0.33,0.33 0.07,0.15 0.03,0.29 0.07,0.47 0.04,0.21 0.19,0.42 0.26,0.67 0.17,0.59 0.26,1.12 0.30,1.78 0.03,0.08 0.14,0.10 0.17,0.20 -0.10,0.00 -0.16,0.06 -0.17,0.17 0.09,0.22 0.18,0.44 0.20,0.74 l 0,0.13 c 0.04,-0.00 0.03,-0.07 0.03,-0.13 l 0,-0.33 c -0.02,-0.08 -0.15,-0.33 0.03,-0.33 0.15,0.23 0.24,0.53 0.33,0.84 l -0.16,0 c -0.08,0.50 -0.22,0.99 -0.37,1.34 -0.03,0.08 -0.18,0.22 -0.06,0.30 0.24,-0.47 0.52,-0.91 0.60,-1.55 0.12,0.02 0.18,-0.02 0.23,-0.06 0.08,-0.26 -0.11,-0.50 -0.20,-0.74 -0.03,-0.10 -0.01,-0.20 -0.06,-0.30 -0.06,-0.13 -0.22,-0.20 -0.27,-0.33 -0.02,-0.07 -0.04,-0.25 -0.06,-0.37 -0.05,-0.32 -0.09,-0.61 -0.16,-0.84 -0.07,-0.22 -0.11,-0.39 -0.17,-0.57 -0.03,-0.10 -0.03,-0.21 -0.06,-0.30 -0.07,-0.19 -0.24,-0.31 -0.30,-0.54 -0.02,-0.09 -0.02,-0.23 -0.03,-0.33 -0.02,-0.14 -0.04,-0.28 -0.03,-0.43 0.18,0.01 0.21,-0.05 0.17,-0.20 -0.04,-0.13 -0.19,0.04 -0.23,-0.10 0.06,-0.65 -0.22,-1.20 -0.20,-1.75 0.01,-0.23 0.17,-0.43 0.06,-0.67 0.06,-0.12 0.20,-0.27 0.10,-0.47 -0.07,0.01 -0.07,-0.04 -0.13,-0.04 z m -3.41,0.17 c -0.08,0.01 -0.06,0.15 0.04,0.13 l 0,-0.13 c -0.01,-0.00 -0.03,-0.00 -0.04,0 z m 0.24,0.06 c -0.00,-1.52e-4 -0.01,0.00 -0.03,0.00 -0.02,0.03 -0.04,0.08 -0.03,0.16 0.11,0.02 0.15,-0.03 0.17,-0.10 -0.05,-3.69e-4 -0.04,-0.06 -0.10,-0.07 z m -11.46,0.08 c -0.03,-0.00 -0.07,0.00 -0.11,0.02 0.09,0.25 0.20,0.49 0.47,0.57 -0.02,-0.14 -0.12,-0.57 -0.36,-0.59 z m 4.07,0.08 c -0.09,0.16 -0.08,0.43 -0.23,0.54 -0.07,-0.02 -0.01,-0.19 -0.13,-0.17 -0.11,-0.01 -0.01,0.18 -0.10,0.20 -0.41,0.07 -0.46,0.50 -0.84,0.60 -0.11,-0.00 -0.12,-0.12 -0.26,-0.10 -0.18,0.06 -0.23,0.19 -0.43,0.20 -0.32,0.01 -0.73,-0.37 -0.91,-0.07 0.42,0.47 1.27,0.47 2.02,0.30 0.15,-0.31 0.51,-0.43 0.57,-0.84 0.12,0.00 0.13,0.04 0.23,0 0.01,-0.19 0.29,-0.59 0.10,-0.67 z m 6.98,0.03 c -0.03,-0.00 -0.06,0.00 -0.09,0.03 -0.03,0.13 0.23,0.13 0.23,0.03 -0.02,-0.03 -0.08,-0.06 -0.14,-0.07 z m 0.32,0.10 c -0.07,0.01 -0.11,0.05 -0.11,0.13 0.08,0.07 0.22,0.00 0.20,-0.13 -0.03,-0.00 -0.06,-0.00 -0.08,0 z m 0.86,0.03 c 0.03,-0.00 0.07,0.00 0.10,0 -0.00,0.05 -0.05,0.07 -0.13,0.07 -0.01,-0.05 3.51e-4,-0.06 0.03,-0.07 z m -1.37,0.07 c -0.02,0.00 -0.05,0.01 -0.07,0.03 l 0,0.13 c 0.08,0.03 0.26,0.07 0.26,-0.06 -0.01,-0.06 -0.11,-0.11 -0.19,-0.10 z m -3.51,0.03 c -0.05,0.16 -0.42,0.35 -0.20,0.57 0.12,-0.01 0.05,-0.23 0.16,-0.26 0.01,-0.13 0.16,-0.13 0.13,-0.30 l -0.10,0 z m 3.94,0.07 c -0.02,3.2e-5 -0.06,0.00 -0.10,0.02 -0.01,0.10 0.07,0.11 0.17,0.10 0.01,-0.09 -0.02,-0.12 -0.07,-0.12 z m -0.11,0.19 c -0.03,-0.00 -0.06,0.01 -0.08,0.06 0.06,0.00 0.02,0.11 0.10,0.10 -0.02,-0.09 0.16,0.02 0.13,-0.06 -0.02,-0.04 -0.09,-0.09 -0.15,-0.10 z m -2.17,0.23 c -0.38,0.68 -1.16,1.14 -1.01,2.25 0.54,0.02 0.27,-0.75 0.60,-0.94 0.10,0.01 0.10,0.14 0.20,0.17 0.02,-0.17 -0.03,-0.25 -0.10,-0.33 -0.08,-0.04 -0.14,0.09 -0.17,0 0.14,-0.43 0.42,-0.74 0.61,-1.14 l -0.13,0 z m -1.82,0.23 c -0.17,0.01 -0.24,0.19 -0.33,0.33 -0.08,0.14 -0.19,0.30 -0.27,0.43 -0.03,0.05 -0.00,0.13 -0.03,0.20 -0.07,0.18 -0.29,0.32 -0.26,0.57 -0.38,0.84 -0.70,1.75 -0.74,2.86 0.08,0.16 0.14,0.32 0.16,0.50 0.08,0.89 -0.08,1.77 -0.13,2.46 -0.07,1.08 0.00,2.12 0.10,2.97 0.05,0.45 0.09,0.90 0.20,1.31 0.10,0.38 0.25,0.92 0.43,1.21 0.10,0.17 0.25,0.28 0.30,0.47 -1.02,-0.21 -2.50,-0.13 -3.57,-0.20 0.04,-0.26 0.10,-0.50 0.20,-0.71 0.24,-0.11 0.28,-0.43 0.50,-0.57 0.07,-0.11 0.38,9.14e-4 0.36,-0.20 -0.14,-0.10 -0.45,0.04 -0.60,0.16 -0.06,0.05 -0.17,0.21 -0.26,0.30 -0.25,0.26 -0.34,0.48 -0.40,0.87 -0.11,-0.00 -0.11,0.11 -0.20,0.13 -0.18,-0.06 -0.47,-0.02 -0.71,-0.03 -0.23,-0.07 -0.41,-0.23 -0.57,-0.33 -0.06,-0.04 -0.15,-0.05 -0.23,-0.10 -0.13,-0.07 -0.26,-0.21 -0.40,-0.26 -0.12,-0.04 -0.30,-0.02 -0.43,-0.07 -0.22,-0.06 -0.65,-0.32 -0.84,-0.03 0.33,0.18 0.74,0.18 1.11,0.30 0.35,0.11 0.67,0.29 0.94,0.47 -0.21,-0.00 -0.44,-0.02 -0.53,0.10 -0.65,-0.01 -1.17,0.11 -1.79,0.13 -0.25,-0.24 -0.47,-0.83 -0.94,-0.64 0.21,0.26 0.57,0.39 0.71,0.74 -0.18,0.06 -0.36,0.12 -0.43,0.30 -0.09,-0.14 -0.12,-0.34 -0.40,-0.30 -0.08,0.11 0.08,0.21 0.10,0.36 0.02,0.20 -0.05,0.44 -0.07,0.64 -0.11,0.15 -0.30,0.01 -0.43,0.13 -0.14,0.14 0.05,0.13 0.03,0.33 -0.09,0.10 -0.24,-0.02 -0.33,0.10 -0.03,0.29 0.17,0.34 0.27,0.50 -0.00,0.17 0.08,0.25 0.20,0.30 0.19,-0.25 9.15e-4,-0.68 0.16,-0.97 0.38,-0.13 0.61,-0.57 0.50,-1.08 0.40,0.02 0.81,-0.14 1.24,-0.17 1.29,-0.08 2.41,-0.14 3.71,-0.06 0.58,0.03 1.30,0.02 1.92,0.06 0.19,0.01 0.45,0.01 0.57,0.03 0.15,0.02 0.28,0.12 0.43,0.13 0.08,0.00 0.16,-0.06 0.26,-0.07 0.20,-0.01 0.39,0.07 0.57,0.07 0.36,-0.32 1.11,0.07 1.45,-0.03 0.11,0.19 -0.07,0.25 -0.06,0.43 0.15,0.58 0.31,1.18 0.47,1.65 0.10,0.31 0.17,0.49 0.27,0.74 0.17,0.45 0.43,0.84 0.57,1.24 0.02,0.08 0.00,0.21 0.03,0.30 0.08,0.27 0.30,0.52 0.33,0.77 0.02,0.14 -0.03,0.29 -0.03,0.43 0.00,0.17 0.08,0.31 0.10,0.50 0.05,0.57 0.04,1.27 0.10,1.89 0.01,0.21 0.10,0.43 0,0.57 -0.07,-0.25 -0.15,-0.65 -0.20,-0.98 -0.02,-0.16 0.06,-0.45 -0.20,-0.43 -0.19,0.64 0.12,1.37 0.26,1.82 0.18,0.56 0.32,1.03 0.57,1.45 -0.02,0.29 0.16,0.59 0.20,0.91 0.04,0.39 -0.06,0.77 0.03,1.07 0.41,0.03 0.37,-0.43 0.36,-0.60 -0.01,-0.22 -0.08,-0.59 -0.16,-0.84 -0.10,-0.31 -0.32,-0.59 -0.37,-0.87 -0.02,-0.11 0.01,-0.23 0,-0.36 -0.02,-0.31 -0.16,-0.65 -0.20,-0.98 -0.06,-0.58 0.13,-1.21 0.10,-1.78 -0.03,-0.49 -0.16,-0.89 -0.20,-1.28 0.23,0.21 0.38,0.51 0.70,0.64 -0.02,0.13 -0.02,0.13 0,0.27 0.24,0.14 0.22,0.53 0.43,0.70 0.09,-0.10 0.09,-0.31 0.10,-0.50 -0.13,-0.18 -0.28,-0.37 -0.50,-0.47 0.02,-0.03 0.04,-0.08 0.03,-0.16 -0.19,-0.42 -0.66,-0.68 -0.87,-1.04 -0.14,-0.25 -0.20,-0.61 -0.33,-0.94 -0.17,-0.41 -0.32,-0.88 -0.50,-1.21 -0.04,-0.08 -0.09,-0.18 -0.13,-0.26 -0.07,-0.16 -0.19,-0.35 -0.23,-0.50 -0.07,-0.22 -0.03,-0.52 -0.10,-0.77 -0.12,-0.49 -0.31,-1.09 -0.33,-1.65 0.07,-0.12 0.20,0.03 0.23,-0.13 -0.03,-0.14 -0.19,0.03 -0.23,-0.10 -0.14,-0.51 -0.14,-1.18 -0.30,-1.68 -0.06,0.00 -0.07,-0.03 -0.13,-0.03 -0.00,0.30 0.09,0.66 0.06,1.04 -0.19,-0.07 -0.26,-0.05 -0.47,-0.10 -0.18,0.13 -0.29,0.33 -0.50,0.43 -0.12,-0.04 -0.23,-0.09 -0.26,-0.23 0.22,-0.30 0.30,-0.75 0.54,-1.04 -0.06,-0.09 0.12,-0.27 0.03,-0.47 -0.22,-0.09 -0.41,0.11 -0.61,0.20 -0.29,0.13 -0.49,0.25 -0.67,0.43 -0.03,-0.14 -0.18,-0.17 -0.23,-0.30 -0.12,-0.53 -0.07,-1.05 0.03,-1.48 0.12,-0.49 0.25,-0.85 0.40,-1.25 0.21,-0.55 0.48,-1.12 0.67,-1.65 l 0,-0.23 c 0.08,-0.07 0.22,-0.22 0.23,-0.30 0.09,-0.52 0.39,-1.04 0.50,-1.58 -0.25,0.26 -0.36,0.63 -0.50,0.98 -0.14,0.34 -0.37,0.68 -0.43,1.08 -0.22,0.26 -0.33,0.62 -0.60,0.84 -0.06,0.30 -0.20,0.53 -0.30,0.80 -0.10,-5.63e-4 0.04,-0.24 -0.10,-0.20 -0.18,0.06 -0.07,0.42 -0.27,0.47 -0.04,-0.58 -0.05,-0.95 0,-1.52 0.46,-0.44 0.83,-1.08 1.18,-1.62 0.12,-0.18 0.29,-0.33 0.33,-0.54 -0.20,0.05 -0.29,0.29 -0.40,0.43 -0.12,0.16 -0.23,0.33 -0.37,0.47 -0.06,0.19 -0.19,0.37 -0.30,0.54 -0.10,0.15 -0.20,0.37 -0.43,0.40 0.01,-0.84 0.16,-1.71 0.13,-2.39 0.03,-0.07 0.07,-0.15 0.13,-0.20 0.00,-0.13 -0.14,-0.09 -0.13,-0.23 0.18,-1.00 0.56,-1.82 0.80,-2.76 0.13,-0.26 0.36,-0.62 0.37,-0.91 -0.43,0.68 -0.63,1.59 -1.01,2.32 -0.01,0.24 -0.07,0.45 -0.17,0.61 0.00,0.17 4.57e-4,0.33 -0.13,0.36 -0.01,-0.40 0.05,-0.77 0.10,-1.18 0.04,-0.33 0.26,-0.84 0.36,-1.11 0.14,-0.38 0.23,-0.67 0.40,-0.98 0.11,-0.20 0.34,-0.38 0.30,-0.64 z m 0.84,0.13 c -0.21,0.13 -0.22,0.39 -0.30,0.67 -0.03,0.11 -0.13,0.21 -0.16,0.33 -0.13,0.47 -0.19,1.23 -0.10,1.71 0.02,0.10 -0.02,0.36 0.16,0.37 0.12,-0.19 0.04,-0.42 0.06,-0.64 0.07,-0.86 0.33,-1.73 0.43,-2.43 -0.04,-0.00 -0.04,-0.04 -0.10,-0.03 z m 1.41,0.54 c -0.07,0.11 -0.13,0.20 -0.20,0.33 -0.02,0.05 -0.04,0.10 -0.07,0.16 -0.20,0.49 -0.34,0.95 -0.47,1.48 -0.03,0.14 -0.06,0.29 -0.10,0.43 -0.06,0.27 -0.12,0.55 -0.23,0.80 -0.08,-0.30 -0.27,-0.62 -0.36,-0.94 -0.05,-0.17 0.00,-0.39 -0.17,-0.50 -0.10,0.20 0.07,0.42 0.13,0.64 0.10,0.39 0.10,0.90 0.47,1.04 0.02,-0.09 -0.04,-0.08 -0.03,-0.16 0.05,-0.00 0.16,0.03 0.13,-0.07 0.10,-0.28 0.27,-0.57 0.37,-0.91 0.04,-0.15 0.03,-0.33 0.06,-0.50 0.02,-0.16 0.10,-0.31 0.13,-0.47 0.05,-0.25 0.05,-0.51 0.13,-0.74 0.06,-0.20 0.24,-0.35 0.26,-0.57 -0.00,-0.02 -0.02,-0.04 -0.06,-0.03 z m -4.89,0.03 0.10,0 c 0.02,0.12 0.01,0.26 -0.03,0.40 -0.02,0.06 -0.08,0.10 -0.10,0.16 -0.04,0.15 -0.01,0.35 -0.07,0.50 -0.05,0.15 -0.24,0.25 -0.23,0.40 0.17,0.28 0.53,0.53 1.01,0.40 -0.03,0.56 -0.23,0.97 -0.30,1.51 -1.16,-0.09 -1.86,0.24 -2.80,0.27 0.09,-0.25 0.38,-0.30 0.61,-0.43 0.10,-0.05 0.17,-0.15 0.30,-0.16 0.05,0.07 0.03,0.20 0.13,0.23 0.14,-0.03 0.12,-0.23 0.13,-0.40 0.35,-0.36 0.85,-0.58 1.14,-1.01 -0.12,-0.08 -0.22,0.13 -0.33,0.16 -0.11,0.00 -0.06,-0.15 -0.20,-0.13 -0.06,0.00 -0.06,0.09 -0.10,0.13 -0.01,0.17 0.15,0.04 0.20,0.10 -0.17,0.16 -0.32,0.34 -0.60,0.40 0.01,-0.46 0.11,-0.64 0.10,-1.14 -0.24,-0.10 -0.21,0.21 -0.26,0.40 -0.04,0.16 -0.14,0.37 -0.17,0.54 -0.02,0.22 0.01,0.40 -0.10,0.54 -0.08,0.10 -0.20,0.07 -0.30,0.13 -0.14,0.08 -0.24,0.28 -0.47,0.30 -0.10,-0.39 0.25,-0.93 0.03,-1.34 -0.38,0.31 -0.11,1.27 -0.47,1.61 -0.02,0.12 0.18,0.02 0.13,0.17 -0.70,0.06 -1.28,0.24 -1.89,0.40 -0.08,-0.56 0.01,-1.16 0.23,-1.58 0.02,-0.15 -0.00,-0.36 0.17,-0.36 0.00,0.15 -0.08,0.20 -0.10,0.33 -0.00,0.18 0.18,0.17 0.26,0.27 0.17,-0.18 0.50,-0.14 0.70,-0.27 0.21,-0.13 0.22,-0.37 0.37,-0.57 0.20,-0.14 0.49,-0.19 0.67,-0.37 0.34,-0.04 0.63,-0.12 0.81,-0.33 0.40,-0.14 0.70,0.26 1.04,0.06 0.00,-0.27 -0.16,-0.37 -0.33,-0.47 0.19,-0.33 0.47,-0.57 0.70,-0.87 z m -3.74,0.13 c 0.16,0.05 0.27,0.17 0.40,0.27 0.02,0.36 0.02,0.75 0.13,1.04 0.24,-0.13 0.11,-0.73 0.03,-0.94 0.36,0.06 0.57,0.28 0.98,0.30 -0.26,0.38 -0.77,0.53 -1.01,0.94 -0.29,0.03 -0.44,0.20 -0.67,0.30 -0.13,-0.71 -0.12,-1.34 0.13,-1.92 z m 13.33,1.01 c -0.01,0.04 -0.04,0.06 -0.03,0.13 0.25,0.46 0.59,0.87 0.70,1.48 0.02,0.11 -0.07,0.34 0.10,0.40 0.10,-0.16 -0.02,-0.35 -0.06,-0.54 -0.09,-0.42 -0.16,-0.61 -0.33,-0.91 -0.11,-0.19 -0.26,-0.43 -0.37,-0.57 z M 31.39,15.54 c -0.04,0.07 -0.07,0.17 -0.20,0.16 0.05,-0.06 0.08,-0.15 0.20,-0.16 z m -1.06,0.32 c 0.02,0.00 0.05,0.00 0.08,0.01 -0.17,0.12 -0.39,0.19 -0.64,0.23 0.09,-0.14 0.35,-0.25 0.55,-0.24 z m -1.02,0.34 c 0.03,-0.00 0.07,0.00 0.10,0 -0.00,0.05 -0.05,0.07 -0.13,0.07 -0.01,-0.05 0.00,-0.06 0.03,-0.07 z m -10.60,0.10 c -0.00,0.04 -0.04,0.04 -0.03,0.10 -0.06,0.18 -0.12,0.38 -0.17,0.54 -0.06,0.24 -0.24,0.67 0.10,0.74 0.18,-0.33 0.08,-0.97 0.20,-1.38 l -0.10,0 z m 11.31,0 c 0.00,0.15 -0.13,0.16 -0.26,0.17 0.02,-0.11 0.16,-0.12 0.26,-0.17 z m -0.37,0.16 c 0.02,6.88e-4 0.04,0.00 0.07,0.00 -0.18,0.09 -0.37,0.18 -0.60,0.23 0.06,-0.05 0.10,-0.12 0.23,-0.10 0.06,-0.08 0.14,-0.14 0.29,-0.14 z m 4.93,0.14 c 0.03,0.11 0.09,0.20 0.23,0.20 -0.02,-0.12 -0.06,-0.22 -0.23,-0.20 z m -0.23,0.10 c -0.15,0.21 0.23,0.36 0.47,0.40 -0.02,-0.26 -0.27,-0.31 -0.47,-0.40 z m -6.14,0.16 c -0.04,-0.00 -0.07,0.01 -0.10,0.03 0.11,0.39 0.40,0.60 0.77,0.74 0.03,-0.12 -0.09,-0.17 -0.16,-0.23 -0.18,-0.17 -0.29,-0.40 -0.50,-0.54 z m 2.36,0.43 c -0.50,0.41 -1.01,0.80 -1.31,1.41 0.16,0.01 -0.01,0.15 0,0.23 0.20,-0.01 0.19,-0.25 0.33,-0.33 -0.07,-0.10 -0.06,-0.27 0.10,-0.30 0.03,0.12 -0.08,0.09 -0.06,0.20 0.32,-0.21 0.60,-0.48 0.87,-0.74 -0.18,-0.13 -0.29,0.24 -0.43,0.13 0.12,-0.26 0.51,-0.27 0.60,-0.57 -0.04,-0.00 -0.04,-0.04 -0.10,-0.03 z m -12.40,0.29 c -0.12,0.01 -0.24,0.07 -0.29,0.14 -0.07,0.27 -0.05,0.60 -0.13,0.87 -0.03,0.10 -0.13,0.19 -0.17,0.30 -0.13,0.45 -0.10,0.99 -0.23,1.45 -0.05,0.18 -0.13,0.37 -0.17,0.60 -0.08,0.54 -0.24,0.98 -0.33,1.52 -0.02,0.00 -0.03,0.02 -0.03,0.06 -0.13,0.11 -0.30,0.18 -0.43,0.30 0.05,0.34 -0.00,0.67 0.23,0.77 -0.04,0.08 -0.01,0.25 -0.10,0.30 -0.14,-0.17 -0.28,-0.25 -0.54,-0.37 -0.32,-0.14 -0.87,-0.36 -1.04,0.10 0.16,0.03 0.61,-0.07 0.74,0.10 -0.01,0.07 -0.06,0.13 0,0.20 0.17,0.04 0.23,-0.14 0.36,-0.03 -0.02,0.14 -0.27,0.06 -0.23,0.26 0.00,0.14 0.17,-0.01 0.20,0.07 -0.10,0.19 0.09,0.28 0.10,0.47 0.18,0.03 0.24,-0.18 0.40,-0.06 -0.06,0.10 -0.22,0.11 -0.27,0.23 0.04,0.11 0.10,0.20 0.13,0.33 0.18,0.07 0.23,-0.16 0.30,-0.10 0.04,0.07 0.08,0.16 0.06,0.30 -0.15,-0.04 -0.23,-0.09 -0.33,0.03 0.03,0.26 0.23,0.36 0.33,0.57 0.12,-0.06 0.16,-0.17 0.17,-0.27 0.04,0.06 0.13,0.08 0.13,0.20 -0.22,-0.03 -0.16,0.20 -0.13,0.33 -0.12,0.12 -0.29,0.14 -0.40,0.30 -0.11,0.17 -0.04,0.52 -0.33,0.54 -0.23,-0.13 -0.38,-0.35 -0.57,-0.54 -0.07,0.06 -0.15,0.11 -0.13,0.27 0.24,0.20 0.52,0.36 0.71,0.63 -0.18,0.03 -0.16,-0.12 -0.33,-0.10 0.00,-0.24 -0.20,-0.26 -0.43,-0.26 l 0,-0.26 c -0.33,-0.04 -0.29,-0.46 -0.57,-0.57 -0.11,0.06 -0.28,0.08 -0.23,0.30 0.12,0.11 0.19,0.27 0.23,0.47 -0.09,0.09 -0.18,0.20 -0.20,0.36 0.00,0.11 0.10,0.15 0.10,0.27 -0.36,0.19 -0.04,0.65 -0.03,0.97 0.00,0.10 -0.06,0.20 -0.07,0.30 -0.00,0.28 0.14,0.40 0.23,0.61 -0.46,0.27 -0.17,1.09 -0.03,1.51 -0.37,0.20 -0.26,0.67 -0.23,1.18 0.02,0.47 -0.08,0.97 0.26,0.98 -0.00,-0.51 -0.12,-1.09 -0.03,-1.72 0.40,-0.41 -0.17,-1.00 0.03,-1.62 0.08,-0.05 0.20,-0.06 0.27,-0.13 0.07,-0.29 -0.24,-0.44 -0.27,-0.71 -0.00,-0.06 0.06,-0.15 0.07,-0.23 0.03,-0.36 -0.21,-0.55 -0.07,-0.77 0.35,0.04 0.18,0.33 0.17,0.57 -0.01,0.49 0.40,1.04 0.26,1.51 -0.08,-0.02 -0.15,-0.04 -0.26,-0.03 -0.10,0.56 0.03,0.97 0.10,1.48 -0.08,0.15 -0.23,0.24 -0.27,0.40 -0.09,0.42 0.20,0.86 0.20,1.27 0.07,0.02 0.23,0.06 0.30,0 -0.15,-0.37 -0.33,-0.57 -0.30,-0.97 0.01,-0.23 0.24,-0.36 0.27,-0.61 0.04,-0.40 -0.23,-0.78 -0.13,-1.27 0.08,-4.23e-4 0.19,0.01 0.23,-0.03 0.28,-0.77 -0.36,-1.39 -0.07,-2.09 0.32,0.06 0.54,0.24 0.77,0.40 -0.09,0.29 0.06,0.48 0.16,0.67 -0.21,0.14 -0.23,0.57 -0.13,0.84 -0.04,0.15 -0.13,0.36 -0.07,0.53 0.27,0.00 0.32,-0.21 0.43,-0.36 -0.07,-0.31 -0.26,-0.48 -0.13,-0.84 0.10,0.02 0.12,-0.02 0.16,-0.06 0.00,-0.21 -0.10,-0.32 -0.13,-0.50 0.12,-0.43 0.17,-0.80 0.17,-1.27 -0.06,-0.08 -0.21,-0.07 -0.20,-0.23 0.15,-0.28 0.41,-0.46 0.43,-0.87 0.08,-0.03 0.16,-0.08 0.23,-0.13 0.08,-0.12 0.18,-0.26 0.27,-0.43 0.09,-0.18 0.18,-0.37 0.20,-0.47 -0.14,-0.08 -0.10,0.09 -0.27,0.06 -0.11,-0.18 -0.30,-0.21 -0.36,-0.40 -0.04,-0.14 0.01,-0.39 -0.03,-0.60 -0.04,-0.18 -0.16,-0.29 -0.16,-0.43 -0.00,-0.30 0.19,-0.60 0.23,-0.91 0.01,-0.15 -0.01,-0.32 0,-0.47 0.02,-0.20 0.13,-0.40 0.17,-0.50 0.12,-0.34 0.15,-0.73 0.23,-1.08 0.05,-0.21 0.15,-0.40 0.20,-0.67 0.17,-0.97 0.40,-1.80 0.54,-2.66 0.08,-0.11 0.27,-0.10 0.30,-0.26 -0.06,-0.03 -0.14,-0.04 -0.21,-0.03 z m 13.38,0.50 c -0.06,0.30 0.01,0.68 0.06,1.04 -0.01,0.11 -0.17,0.06 -0.16,0.20 0.03,0.08 0.15,-0.07 0.20,0.03 -0.03,0.05 -0.09,0.08 -0.10,0.16 0.21,0.05 0.20,0.33 0.40,0.40 l 0,0.23 c 0.20,0.34 0.41,0.69 0.57,1.08 -0.24,0.13 -0.05,0.29 -0.10,0.50 0.22,-2.82e-4 0.37,-0.07 0.50,-0.16 0.00,-0.02 -0.00,-0.06 0.03,-0.07 0.20,-1.04 -0.65,-1.03 -0.74,-1.78 -0.03,-0.05 -0.09,-0.08 -0.10,-0.16 l 0,-0.16 c -0.05,-0.07 -0.19,-0.07 -0.20,-0.20 0.06,-0.02 0.23,0.05 0.20,-0.07 -0.03,-0.13 -0.14,-0.00 -0.26,-0.03 -0.12,-0.28 -0.12,-0.68 -0.20,-1.01 l -0.10,0 z m -1.38,0.20 c -0.21,0.03 -0.34,0.23 -0.47,0.37 -0.10,0.11 -0.21,0.21 -0.26,0.36 -0.11,0.02 -0.28,0.33 -0.06,0.37 0.08,-0.13 0.13,-0.46 0.36,-0.54 -7.03e-4,-0.07 0.05,-0.09 0.03,-0.20 0.17,-0.08 0.36,-0.15 0.40,-0.37 z m -11.81,0.10 c 0.02,0.29 0.12,0.52 0.23,0.81 0.15,0.40 0.26,0.71 0.40,0.97 0.21,0.41 0.40,0.85 0.60,1.24 0.06,0.12 0.05,0.39 0.30,0.33 -0.02,-0.36 -0.30,-0.67 -0.47,-1.01 -0.23,-0.48 -0.40,-1.00 -0.64,-1.48 -0.06,-0.33 -0.21,-0.59 -0.33,-0.87 l -0.10,0 z m 6.44,0.03 c -0.01,0.04 -0.05,0.08 -0.10,0.10 -0.11,0.60 -0.36,1.14 -0.57,1.68 -0.21,0.53 -0.41,1.08 -0.67,1.58 -0.13,0.26 -0.39,0.46 -0.43,0.77 -0.08,0.11 -0.22,0.17 -0.23,0.36 0.19,0.05 0.28,-0.22 0.37,-0.36 0.11,-0.18 0.21,-0.37 0.33,-0.50 -0.02,-0.10 0.03,-0.12 0.03,-0.20 0.23,-0.28 0.41,-0.71 0.54,-1.04 0.09,-0.24 0.13,-0.53 0.23,-0.77 0.02,-0.06 0.10,-0.10 0.13,-0.17 0.02,-0.07 0.00,-0.15 0.03,-0.23 0.03,-0.10 0.13,-0.17 0.16,-0.26 0.04,-0.12 0.02,-0.28 0.07,-0.40 0.06,-0.19 0.24,-0.33 0.20,-0.54 l -0.10,0 z m 10.39,0.33 c -0.00,0.22 -0.12,0.32 -0.10,0.57 0.17,-0.09 0.18,-0.37 0.10,-0.57 z m -5.26,0.20 c -0.29,0.09 -0.47,0.30 -0.47,0.70 -0.10,0.05 -0.14,0.31 -0.07,0.43 0.21,-0.11 0.22,-0.43 0.40,-0.57 0.01,-0.11 -0.12,-0.08 -0.10,-0.20 0.05,-0.13 0.30,-0.21 0.23,-0.36 z m 5.84,0 c -0.03,0.34 -0.10,0.74 -0.13,0.98 -0.03,0.25 0.02,0.51 -0.03,0.73 -0.06,0.24 -0.28,0.37 -0.26,0.64 -0.12,-0.03 -0.10,0.07 -0.16,0.10 -0.03,0.25 0.06,0.36 0.13,0.50 -0.04,0.95 -0.15,1.89 -0.43,2.69 0.08,0.17 0.02,0.46 -0.07,0.64 0.00,-0.15 -0.20,-0.26 -0.16,-0.33 0.04,0.04 0.17,0.12 0.20,0 -0.08,-0.22 -0.25,-0.32 -0.10,-0.54 -0.07,-0.05 -0.08,-0.18 -0.23,-0.16 -0.08,0.05 -0.08,0.18 -0.23,0.16 -0.02,0.16 0.11,0.14 0.10,0.30 -0.08,-0.04 -0.12,-0.12 -0.26,-0.10 0.17,0.36 0.54,0.54 0.74,0.87 0.01,0.12 0.02,0.25 0.16,0.26 0.12,-0.42 0.13,-0.86 0.23,-1.31 0.04,-0.20 0.14,-0.35 0.16,-0.57 0.00,-0.06 -0.01,-0.15 0,-0.23 0.08,-0.61 0.31,-1.32 0.23,-2.06 -0.01,-0.09 -0.07,-0.16 -0.06,-0.26 0.02,-0.24 0.33,-0.52 0.40,-0.84 0.10,-0.51 0.00,-0.96 0,-1.48 l -0.20,0 z m -18.43,0.43 c -0.28,0.41 -0.56,0.77 -0.98,1.04 -0.19,0.12 -0.40,0.22 -0.60,0.33 -0.17,0.09 -0.46,0.16 -0.54,0.40 0.73,-0.26 1.47,-0.62 1.95,-1.14 0.13,-0.15 0.23,-0.32 0.23,-0.57 -0.00,-0.03 -0.03,-0.05 -0.06,-0.06 z m 18.19,0.23 c -0.00,0.04 -0.04,0.04 -0.03,0.10 -0.09,0.05 -0.06,0.20 -0.10,0.30 -0.07,0.19 -0.28,0.38 -0.16,0.50 0.09,-0.27 0.49,-0.57 0.30,-0.91 z m -19.47,0.24 c -0.30,-0.00 -0.65,0.14 -0.68,0.40 0.13,0.08 0.27,-0.06 0.43,-0.10 0.21,-0.05 0.52,-0.00 0.64,-0.13 -0.05,-0.11 -0.21,-0.16 -0.40,-0.16 z m 0.94,0.94 c -0.26,0.26 -0.61,0.55 -1.01,0.77 -0.37,0.20 -1.00,0.47 -1.11,0.87 0.22,-0.06 0.39,-0.24 0.60,-0.36 0.20,-0.12 0.42,-0.23 0.64,-0.33 0.37,-0.17 0.58,-0.36 0.80,-0.64 0.05,-0.07 0.20,-0.14 0.17,-0.26 -0.04,-0.00 -0.04,-0.04 -0.10,-0.03 z m -0.82,0.35 c -0.19,0.00 -0.41,0.08 -0.62,0.11 -0.33,0.05 -0.76,0.06 -0.81,0.40 0.39,-0.08 0.78,-0.29 1.18,-0.37 0.15,-0.02 0.37,0.07 0.43,-0.13 -0.05,-0.01 -0.11,-0.02 -0.18,-0.01 z m 13.32,0.04 c -0.15,-0.00 -0.34,0.08 -0.33,0.20 0.14,0.17 0.30,-0.05 0.53,0 0.02,-0.14 -0.07,-0.20 -0.19,-0.20 z m -0.12,0.34 c -0.03,0.00 -0.06,0.01 -0.08,0.03 -0.01,0.15 0.10,0.16 0.23,0.16 0.00,-0.02 0.00,-0.06 0.03,-0.06 0.01,-0.10 -0.09,-0.15 -0.18,-0.13 z m -13.76,1.17 c -0.25,-0.00 -0.51,0.07 -0.60,0.24 0.06,0.24 0.38,0.13 0.60,0.16 0.23,0.03 0.48,0.23 0.64,0.06 0.01,-0.30 -0.31,-0.46 -0.64,-0.47 z m 0.98,0.24 0.10,0 c 0.00,0.08 -0.01,0.14 -0.10,0.13 l 0,-0.13 z m 11.47,0.05 c -0.02,0.00 -0.04,0.00 -0.07,0.01 0.07,0.32 0.15,0.80 0.50,0.74 0.08,-0.32 -0.10,-0.78 -0.43,-0.75 z m -12.71,0.72 c -0.05,0 -0.10,0.00 -0.14,0.03 0.04,0.16 0.03,0.36 0.23,0.36 0.00,-0.02 0.03,-0.03 0.07,-0.03 -0.02,-0.16 0.04,-0.24 0,-0.33 -0.04,-0.02 -0.10,-0.03 -0.15,-0.03 z m 10.71,0.29 c 0.05,-8.07e-4 0.02,0.08 0.03,0.14 -0.04,-0.02 -0.06,-0.07 -0.06,-0.13 0.01,-0.00 0.02,-0.00 0.03,-0.00 z m -10.46,0.14 c -0.09,0.01 -0.19,0.03 -0.17,0.17 0.09,0.08 0.22,-0.00 0.23,-0.10 -0.03,-0.00 -0.05,-0.03 -0.06,-0.06 z m 0.20,0.23 c -0.05,-0.00 -0.10,0.00 -0.13,0.03 -0.00,0.04 0.01,0.07 0.03,0.10 0.08,0.00 0.11,-0.04 0.10,-0.13 z m 0.50,0 0.07,0 c 0.01,0.07 -0.05,0.06 -0.10,0.06 0.00,-0.02 0.03,-0.03 0.03,-0.06 z m 12.39,0.13 c 0.01,0.72 0.44,1.15 0.74,1.55 0.22,0.30 0.33,0.50 0.60,0.67 -0.05,0.11 -0.27,0.05 -0.30,0.20 0.18,0.02 0.55,-0.04 0.80,-0.07 -0.01,-0.23 -0.27,-0.19 -0.47,-0.16 -0.05,-0.30 -0.34,-0.46 -0.50,-0.70 -0.06,-0.09 -0.12,-0.22 -0.20,-0.33 -0.07,-0.11 -0.16,-0.22 -0.23,-0.33 -0.03,-0.05 -0.03,-0.13 -0.07,-0.20 -0.07,-0.13 -0.20,-0.22 -0.23,-0.33 -0.02,-0.08 0.03,-0.19 -0.03,-0.26 l -0.10,0 z m 3.54,0.36 c -0.07,0.07 0.01,0.09 0,0.20 0.21,0.19 0.33,0.50 0.57,0.67 0.02,-0.33 -0.39,-0.50 -0.47,-0.84 -0.04,-0.00 -0.04,-0.04 -0.10,-0.03 z m 0.50,0.06 c -0.07,0.16 0.11,0.50 0.30,0.40 -0.09,-0.14 -0.12,-0.34 -0.30,-0.40 z m -4.55,0.03 0,0.20 c -0.11,-0.00 -0.17,-0.05 -0.30,-0.03 0.05,-0.09 0.16,-0.15 0.30,-0.17 z m 3.74,0.10 0,0.13 c 0.15,0.14 0.27,0.33 0.40,0.50 0.12,0.16 0.22,0.41 0.43,0.47 -0.09,-0.52 -0.54,-0.69 -0.74,-1.11 l -0.10,0 z m 1.34,0 c -0.06,-0.00 -0.07,0.03 -0.13,0.03 -0.06,0.06 -0.02,0.22 -0.03,0.33 0.14,0.00 0.12,0.19 0.26,0.10 -0.12,-0.14 0.01,-0.36 -0.10,-0.47 z m 0.23,0.07 c -0.04,0.14 -0.02,0.28 0.03,0.40 l 0.13,0 c 0.07,-0.11 -0.01,-0.27 -0.03,-0.40 l -0.13,0 z m 0.67,0.10 c 0.01,0.21 0.09,0.37 0.30,0.40 0.04,-0.15 -0.11,-0.37 -0.30,-0.40 z m -6.68,0.11 c 0.10,-0.00 0.21,0.00 0.29,0.01 0.24,0.02 0.50,0.10 0.43,0.37 -0.36,-0.08 -0.70,-0.20 -1.11,-0.23 0.03,-0.10 0.20,-0.14 0.37,-0.14 z m -1.71,0.18 c 0.06,2.1e-4 0.12,0.00 0.18,0.00 0.02,0.12 -0.32,0.15 -0.33,0.03 0.03,-0.02 0.08,-0.03 0.14,-0.03 z m 11.32,0.15 c -0.04,7.39e-4 -0.09,0.01 -0.17,0.01 -0.17,0.25 -0.49,0.36 -0.54,0.74 0.02,0.00 0.06,0.00 0.07,0.03 0.18,0.01 0.08,-0.25 0.23,-0.27 0.08,0.14 0.13,0.28 0.03,0.43 0.28,-0.17 0.52,-0.40 0.54,-0.84 -0.02,-0.00 -0.04,-0.02 -0.03,-0.06 -0.05,-0.04 -0.08,-0.05 -0.13,-0.05 z m -14.08,0.01 c -0.13,0.31 0.01,0.44 0.13,0.70 0.17,0.38 0.30,0.76 0.43,1.15 0.08,0.24 0.11,0.52 0.30,0.67 -0.00,-0.64 -0.34,-1.22 -0.47,-1.85 -0.08,-0.38 -0.03,-0.67 -0.40,-0.67 z m 11.91,0 c -0.00,0.04 -0.07,0.03 -0.10,0.06 -0.02,0.14 0.10,0.14 0.10,0.27 -0.10,7.04e-4 -0.20,-0.00 -0.20,0.10 0.00,0.33 0.44,0.41 0.40,0.67 -0.12,-8.45e-4 -0.06,-0.17 -0.23,-0.13 -0.09,0.02 -0.17,0.12 -0.20,0.20 -0.10,0.28 -0.05,0.71 -0.10,1.04 -0.02,0.16 -0.14,0.30 -0.10,0.47 -0.06,0.07 -0.10,0.16 -0.13,0.27 0.16,0.22 -0.16,0.58 0.23,0.60 0.15,-0.07 0.16,-0.31 0.17,-0.54 0.19,-0.54 0.63,-0.85 0.98,-1.24 -0.13,-0.21 -0.03,-0.40 -0.07,-0.60 -0.07,-0.40 -0.49,-0.59 -0.54,-1.04 -0.07,-0.03 -0.11,-0.11 -0.20,-0.13 z m -12.35,0.03 c 0.08,1.10 -0.37,2.19 -0.60,3.20 -0.03,0.09 -0.10,0.16 -0.16,0.23 -0.14,0.80 -0.39,1.62 -0.57,2.32 -0.08,0.31 -0.17,0.56 -0.23,0.80 -0.09,0.36 -0.18,0.62 -0.26,0.91 -0.05,0.19 -0.12,0.36 -0.16,0.54 -0.06,0.24 -0.12,0.59 -0.03,0.70 0.13,-0.42 0.30,-0.92 0.40,-1.28 0.03,-0.13 0.02,-0.29 0.06,-0.43 0.03,-0.10 0.14,-0.19 0.17,-0.30 0.04,-0.14 0.05,-0.30 0.10,-0.47 0.04,-0.13 0.09,-0.29 0.13,-0.43 0.09,-0.30 0.13,-0.63 0.23,-0.94 0.03,-0.10 0.10,-0.18 0.13,-0.30 0.02,-0.08 0.01,-0.19 0.03,-0.27 0.03,-0.10 0.13,-0.19 0.16,-0.30 0.03,-0.12 0.00,-0.26 0.03,-0.40 0.02,-0.10 0.09,-0.22 0.13,-0.33 0.12,-0.41 0.23,-0.79 0.33,-1.18 0.17,-0.65 0.45,-1.53 0.20,-2.05 l -0.10,0 z m 4.86,0.36 c -0.00,0.04 -0.04,0.04 -0.03,0.10 0.02,0.63 0.26,0.99 0.50,1.38 0.18,0.29 0.32,0.61 0.57,0.84 -0.25,-0.83 -0.76,-1.42 -0.94,-2.33 l -0.10,0 z m -1.94,0.15 c -0.30,-0.01 -0.29,0.63 -0.58,0.72 -0.02,-0.29 0.14,-0.39 0.17,-0.64 -0.07,-0.01 -0.19,0.10 -0.23,0.20 -0.00,0.02 -0.06,0.24 -0.06,0.30 -0.00,0.11 -0.03,0.28 0.10,0.27 0.30,-0.02 0.35,-0.59 0.63,-0.74 0.07,0.19 -0.16,0.33 -0.13,0.60 -0.29,0.32 -0.38,0.84 -0.43,1.41 0.04,0.03 0.06,0.09 0.10,0.13 0.13,-0.01 0.33,0.04 0.33,-0.10 -0.00,-0.15 -0.26,-0.05 -0.27,-0.20 0.07,-0.74 0.41,-1.22 0.54,-1.92 -0.05,-0.03 -0.10,-0.04 -0.15,-0.04 z m -10.51,0.01 c -0.00,0.19 0.21,0.16 0.20,0.36 0.17,0.02 0.20,-0.08 0.20,-0.23 -0.12,-0.05 -0.21,-0.13 -0.40,-0.13 z m 21.33,0.06 c -0.20,0.09 -0.38,0.22 -0.36,0.54 0.11,0.11 0.29,0.03 0.40,-0.03 -0.01,-0.16 0.03,-0.39 -0.03,-0.50 z m -16.94,0.06 c -0.19,0.37 -0.44,0.71 -0.57,1.08 -0.05,0.13 -0.04,0.27 -0.10,0.43 -0.02,0.06 -0.11,0.10 -0.13,0.16 -0.04,0.10 -0.02,0.23 -0.06,0.33 -0.09,0.21 -0.27,0.41 -0.33,0.64 -0.05,0.17 0.01,0.39 -0.13,0.54 -0.11,-0.02 -0.26,-0.22 -0.40,-0.26 -0.08,-0.02 -0.27,-0.10 -0.33,0.03 0.18,0.25 0.69,0.47 0.84,0.87 -0.05,0.17 -0.24,0.00 -0.37,0.10 -0.05,0.04 -0.03,0.17 -0.03,0.26 0.11,0.08 0.33,0.07 0.54,0.07 0.06,-0.15 0.19,-0.37 0.17,-0.54 -0.03,-0.19 -0.21,-0.21 -0.27,-0.37 0.06,-0.58 0.34,-1.04 0.54,-1.51 0.23,-0.55 0.46,-1.03 0.67,-1.55 0.08,-0.05 0.21,-0.18 0.13,-0.30 l -0.13,0 z m 17.52,0.33 c -0.19,0.15 -0.17,0.52 -0.17,0.87 -0.16,0.12 -0.29,0.56 -0.16,0.77 -0.23,0.21 -0.30,0.54 -0.47,0.80 -0.10,0.16 -0.24,0.30 -0.36,0.47 -0.23,0.32 -0.42,0.69 -0.70,0.98 -0.02,0.15 -0.09,0.26 -0.17,0.37 -0.18,0.03 -0.34,0.07 -0.47,0.16 0.05,0.47 0.60,0.17 0.64,-0.13 0.26,-0.18 0.48,-0.41 0.60,-0.74 0.48,-0.46 0.80,-1.08 1.04,-1.78 0.03,-0.13 -0.09,-0.10 -0.06,-0.23 0.08,-0.05 0.20,-0.15 0.26,-0.26 0.02,-0.04 -0.02,-0.13 0,-0.20 0.01,-0.04 0.08,-0.10 0.10,-0.13 0.11,-0.22 0.01,-0.59 0,-0.91 -0.00,-0.02 -0.02,-0.04 -0.06,-0.03 z m -1.03,0.16 c -0.09,0.00 -0.16,0.12 -0.07,0.21 l 0.17,0 0,-0.17 c -0.02,-0.02 -0.06,-0.04 -0.09,-0.03 z m -5.37,0.04 c -0.18,-0.01 -0.40,0.10 -0.47,0.22 0.17,0.03 0.53,-0.02 0.64,-0.16 -0.04,-0.03 -0.10,-0.05 -0.16,-0.06 z m 0.01,0.37 c -0.08,0.00 -0.15,0.04 -0.18,0.11 0.04,0.13 0.37,0.13 0.50,0.07 -0.03,-0.12 -0.18,-0.20 -0.31,-0.18 z m -0.62,0.35 c -0.04,0.10 -0.02,0.19 0.10,0.20 l 0,-0.16 c -0.04,0.00 -0.07,-0.01 -0.10,-0.03 z m -12.42,0.20 c -0.01,0.26 0.61,0.70 0.20,1.04 -0.25,-0.26 -0.47,-0.74 -0.98,-0.64 -0.02,0.14 0.11,0.13 0.13,0.23 -0.18,0.26 0.04,0.63 0.33,0.64 0.09,-0.08 -0.11,-0.27 -0.03,-0.33 0.21,0.06 0.20,0.29 0.37,0.33 0.27,0.07 0.55,-0.09 0.60,-0.33 0.08,-0.39 -0.27,-0.91 -0.64,-0.94 z m 13.51,0.07 c -0.10,-0.00 -0.23,0.05 -0.21,0.16 0.13,-0.00 0.32,0.02 0.30,-0.13 -0.02,-0.01 -0.05,-0.02 -0.08,-0.03 z m 0.29,0 c -0.02,0.13 -0.10,0.20 -0.10,0.36 -0.08,0.10 -0.30,0.22 -0.23,0.37 0.19,0.08 0.15,-0.33 0.33,-0.37 0.00,0.31 -0.23,0.37 -0.20,0.70 0.19,-0.17 0.31,-0.42 0.33,-0.77 -0.18,-0.01 0.03,-0.25 -0.13,-0.30 z m -8.13,0.13 0,0.10 c 0.27,0.40 0.41,0.97 0.57,1.45 0.05,0.17 0.07,0.37 0.13,0.54 0.04,0.14 0.15,0.23 0.20,0.36 0.16,0.45 0.20,0.92 0.33,1.38 0.16,0.61 0.35,1.25 0.47,1.82 0.04,0.22 0.02,0.47 0.06,0.70 0.02,0.12 0.08,0.24 0.10,0.36 0.02,0.21 9.86e-4,0.46 0.03,0.71 0.01,0.14 0.08,0.27 0.10,0.40 0.01,0.09 -0.11,0.30 0.06,0.33 0.22,-0.53 0.01,-0.98 -0.06,-1.41 -0.05,-0.32 -0.09,-0.56 -0.13,-0.80 -0.07,-0.46 -0.11,-0.76 -0.20,-1.14 -0.29,-1.30 -0.68,-2.64 -1.08,-3.81 -0.06,-0.17 -0.18,-0.34 -0.13,-0.54 -0.22,-0.06 -0.13,-0.45 -0.40,-0.47 l -0.07,0 z m 6.18,0.07 c -0.01,0.07 0.00,0.12 0.03,0.16 0.11,0.00 0.16,-0.04 0.17,-0.13 -0.03,-0.03 -0.11,-0.03 -0.20,-0.03 z m 0.60,0.09 c -0.16,-0.01 -0.18,0.30 -0.06,0.34 0.08,-0.05 0.08,-0.20 0.10,-0.33 -0.01,-0.00 -0.02,-0.00 -0.03,-0.00 z m 6.14,0.17 c -0.04,0.06 -0.08,0.13 -0.10,0.23 0.10,-0.02 0.17,-0.09 0.20,-0.20 -0.04,-0.00 -0.04,-0.04 -0.10,-0.03 z m -10.25,0.03 c -0.05,3.1e-4 -0.10,0.01 -0.17,0.03 -0.02,0.00 -0.04,0.02 -0.03,0.06 0.00,0.16 0.22,0.11 0.33,0.16 0.33,0.22 0.55,0.58 0.74,0.94 0.08,0.15 0.10,0.38 0.26,0.47 0.08,-0.64 -0.33,-1.17 -0.74,-1.48 -0.14,-0.11 -0.24,-0.20 -0.39,-0.20 z m 5.69,0.13 c -0.11,0.19 -0.22,0.38 -0.27,0.64 0.21,0.05 0.39,-0.46 0.27,-0.64 z m 4.62,0.16 c -0.30,0.06 -0.28,0.45 -0.64,0.47 -0.05,0.10 -0.16,0.14 -0.16,0.30 0.36,-0.16 0.67,-0.38 0.80,-0.77 z m -4.52,0.16 c -0.11,0.13 -0.19,0.30 -0.17,0.57 0.30,0.16 0.42,-0.47 0.17,-0.57 z m 1.85,0.03 c -0.14,0.19 -0.36,0.30 -0.30,0.70 -0.05,0.07 -0.16,0.07 -0.16,0.20 0.04,0.13 0.08,0.25 0.03,0.40 -0.06,-0.01 -0.06,-0.10 -0.13,-0.03 -0.10,0.16 -0.00,0.35 -0.03,0.54 -0.02,0.13 -0.12,0.23 -0.13,0.36 -0.02,0.31 0.14,0.58 0.17,0.91 -0.07,-0.05 -0.06,-0.18 -0.20,-0.17 -0.01,0.23 0.16,0.28 0.26,0.40 0.28,-0.04 0.22,-0.43 0.43,-0.54 l 0,0.00 c -0.00,0.23 -0.21,0.48 -0.23,0.80 -0.01,0.18 0.04,0.36 0.06,0.50 0.05,0.39 -0.04,0.86 0,1.21 0.05,0.39 0.25,0.72 0.30,1.01 -0.12,-0.00 -0.27,-0.02 -0.23,0.13 0.18,0.12 0.16,-0.20 0.40,-0.13 0.00,-0.05 -0.01,-0.12 0.03,-0.13 -0.07,-0.42 -0.24,-0.85 -0.30,-1.34 -0.03,-0.33 -0.10,-0.58 -0.07,-0.87 0.03,-0.35 0.12,-0.83 0.20,-1.11 0.02,-0.08 0.10,-0.14 0.13,-0.23 0.09,-0.29 0.03,-0.50 0.26,-0.57 0.14,0.03 0.12,0.23 0.33,0.20 0.07,-0.32 -0.24,-0.47 -0.33,-0.71 -0.09,-0.24 -0.02,-0.53 -0.20,-0.77 0.08,-0.32 0.14,-0.81 -0.30,-0.77 z m -13.58,0.47 c -0.03,0.00 -0.05,0.02 -0.08,0.06 -0.13,0.19 0.11,0.27 0.13,0.47 0.01,0.11 -0.06,0.28 -0.10,0.40 -0.04,0.14 -0.11,0.27 -0.13,0.40 -0.07,0.49 -0.02,1.05 -0.07,1.48 -0.00,0.07 -0.06,0.16 -0.06,0.23 -0.00,0.08 0.06,0.17 0.06,0.26 0.00,0.28 -0.12,0.57 -0.13,0.84 -0.01,0.38 0.05,0.78 0.03,1.14 -0.00,0.11 -0.06,0.19 -0.06,0.30 5.63e-4,0.22 0.08,0.45 0.10,0.67 0.00,0.17 -0.01,0.35 0,0.50 0.03,0.42 -0.17,1.07 0.23,1.24 -0.03,-0.66 -0.03,-1.32 -0.06,-2.09 -0.02,-0.63 -0.05,-1.25 0,-1.75 0.07,-0.66 0.04,-1.34 0.13,-1.96 0.04,-0.29 0.18,-0.56 0.20,-0.84 0.01,-0.21 -0.04,-0.42 -0.03,-0.64 0.01,-0.21 0.13,-0.41 0.10,-0.64 -0.05,-0.05 -0.16,-0.14 -0.25,-0.12 z m -3.31,0.15 c -0.02,-3.55e-4 -0.05,5.27e-4 -0.07,0.00 -0.06,0.21 0.27,0.44 0.47,0.40 0.05,-0.29 -0.20,-0.40 -0.39,-0.40 z m 18.62,0.17 c -0.17,0.00 -0.19,0.17 -0.23,0.30 0.06,0.03 0.18,0.02 0.13,0.16 0.20,-0.09 -0.03,-0.27 0.10,-0.47 z m -4.92,0.17 c 0.02,0.21 0.07,0.25 0.03,0.47 0.36,0.44 0.49,1.12 0.84,1.58 -0.13,-0.82 -0.28,-1.62 -0.80,-2.05 l -0.06,0 z m 4.55,0.30 c -0.03,0.19 -0.32,0.43 -0.16,0.60 0.06,-0.23 0.22,-0.36 0.27,-0.60 l -0.10,0 z m -3.38,0.32 c -0.36,-0.03 -0.05,0.72 0.21,0.32 -0.14,-0.05 -0.18,-0.11 -0.13,-0.30 -0.03,-0.00 -0.05,-0.01 -0.08,-0.01 z m -14.76,0.07 c -0.02,0.00 -0.05,0.00 -0.07,0.00 -0.02,0.00 -0.03,0.02 -0.03,0.06 0.00,0.29 0.44,0.62 0.13,0.91 -0.22,-0.22 -0.23,-0.81 -0.64,-0.74 -0.04,0.18 0.17,0.37 0.23,0.57 -0.19,0.33 -0.17,0.80 -0.23,1.31 -0.03,0.28 -0.14,0.55 -0.16,0.77 -0.04,0.51 0.04,1.04 -0.13,1.51 0.18,0.20 -0.03,0.80 0.23,0.91 0.06,-0.19 -0.03,-0.49 0,-0.77 0.08,-0.09 0.18,-0.17 0.23,-0.30 0.02,-0.13 -0.16,-0.06 -0.13,-0.20 -0.00,-1.05 0.15,-2.05 0.33,-3.00 0.16,0.06 0.01,0.15 0.06,0.23 0.02,0.05 0.16,-0.00 0.13,0.10 0.04,0.75 0.27,1.74 0.26,2.66 -0.00,0.44 0.05,1.03 0.17,1.38 0.03,0.10 0.01,0.33 0.20,0.26 0.11,-0.44 -0.10,-0.74 -0.13,-1.11 -0.04,-0.54 -0.13,-0.94 -0.16,-1.41 -0.04,-0.65 0.00,-1.36 -0.13,-1.82 0.11,-0.16 0.29,-0.25 0.30,-0.47 0.01,-0.21 -0.17,-0.31 -0.16,-0.54 0.45,0.03 0.83,0.41 1.28,0.23 0.04,-0.10 -0.01,-0.12 0,-0.27 -0.12,-0.10 -0.26,-0.00 -0.40,-0.03 -0.39,-0.05 -0.78,-0.30 -1.16,-0.28 z m 11.53,0.28 c 0.07,0.43 0.51,0.64 0.67,1.07 0.18,0.50 0.06,1.04 -0.07,1.38 -0.13,0.32 -0.28,0.61 -0.50,0.81 -0.17,0.42 -0.41,0.71 -0.64,1.04 -0.18,0.26 -0.38,0.54 -0.54,0.77 -0.05,0.09 -0.06,0.20 -0.13,0.30 -0.11,0.17 -0.29,0.32 -0.37,0.50 -0.04,0.10 -0.05,0.25 -0.10,0.36 -0.05,0.12 -0.14,0.22 -0.16,0.33 -0.04,0.18 -0.09,0.69 0.06,0.77 0.31,-0.01 0.16,-0.61 0.20,-0.84 0.07,-0.48 0.45,-0.96 0.74,-1.38 0.31,-0.45 0.59,-0.91 0.91,-1.25 0.19,-0.61 0.76,-1.24 0.84,-2.02 0.09,-0.92 -0.39,-1.32 -0.80,-1.89 l -0.10,0 z m 3.13,0.16 c -5.63e-4,0.06 -0.09,0.04 -0.06,0.13 0.07,0.08 0.19,0.25 0.10,0.40 0.41,0.30 0.03,1.17 0.20,1.61 -0.00,0.10 -0.16,0.06 -0.13,0.20 0.07,0.50 0.19,1.08 0.33,1.51 0.04,0.14 0.04,0.40 0.27,0.37 0.16,-0.23 -0.00,-0.46 -0.07,-0.67 -0.13,-0.45 -0.25,-1.00 -0.30,-1.58 -0.05,-0.71 0.16,-1.72 -0.26,-1.99 l -0.07,0 z m 1.18,0.91 c 0.00,0.14 0.07,0.24 0.20,0.27 -0.00,-0.15 -0.04,-0.27 -0.20,-0.27 z m 0.23,0.33 c 0.02,0.16 0.13,0.25 0.20,0.33 0.03,-0.09 -0.03,-0.33 -0.20,-0.33 z m -0.04,0.47 c -0.14,-0.00 -0.27,0.03 -0.21,0.13 0.21,-0.05 0.33,-0.06 0.53,0 -0.01,-0.08 -0.17,-0.13 -0.31,-0.13 z m 0.03,0.26 c -0.04,-0.00 -0.09,1.77e-4 -0.12,0.00 0.00,0.17 0.10,0.03 0.20,0.03 0.23,-0.01 0.07,-0.03 -0.07,-0.03 z m 0.10,0.22 c -0.01,0.00 -0.04,0.00 -0.06,0.01 -0.01,0.10 0.06,0.10 0.16,0.10 -0.01,-0.08 -0.04,-0.12 -0.10,-0.11 z m 0.33,1.53 0,0.10 0.10,0 0,-0.10 -0.10,0 z m -11.55,0.02 c -0.14,-0.01 -0.29,0.19 -0.19,0.45 -0.15,0.19 -0.29,0.46 -0.33,0.74 -0.01,0.12 0.04,0.24 0.03,0.36 -0.01,0.13 -0.11,0.27 -0.13,0.40 -0.03,0.23 -0.00,0.42 -0.06,0.63 0.15,0.01 0.17,-0.08 0.26,-0.13 0.03,-0.64 0.23,-1.12 0.20,-1.82 0.26,-0.02 0.24,-0.33 0.40,-0.47 -0.04,-0.11 -0.10,-0.17 -0.17,-0.18 z m 12.36,0.28 c -0.07,0.10 0.00,0.36 -0.13,0.40 -0.14,-0.07 -0.22,-0.06 -0.26,0.10 -0.00,-0.06 -0.02,-0.11 -0.06,-0.13 -0.04,0.08 -0.25,0.01 -0.23,0.16 0.02,0.06 0.18,-0.00 0.20,0.07 -0.11,0.05 -0.30,0.02 -0.33,0.16 0.11,0.17 0.34,-0.03 0.50,-0.03 -1.4e-4,0.03 0.02,0.04 0.03,0.07 -0.01,0.23 -0.32,0.17 -0.50,0.23 0.00,0.20 0.12,0.29 0.30,0.33 -0.01,0.06 -0.13,0.02 -0.10,0.13 0.08,0.07 0.14,0.16 0.26,0.20 0.12,-0.10 0.34,-0.12 0.54,-0.16 -0.09,-0.28 0.04,-0.61 -0.03,-0.87 0.17,-0.18 0.15,-0.63 -0.17,-0.67 z m -1.85,0.25 c -0.06,0.00 -0.13,0.04 -0.17,0.11 8.45e-4,0.34 0.32,0.55 0.27,0.84 -0.15,-0.02 -0.15,-0.20 -0.37,-0.16 -0.07,0.18 0.09,0.32 0.20,0.43 -0.08,0.07 -0.14,-0.07 -0.30,-0.03 0.02,0.19 0.19,0.25 0.27,0.40 -0.04,0.30 0.31,0.46 0.60,0.54 0.08,-0.20 -0.35,-0.32 -0.30,-0.50 0.18,0.09 0.58,0.17 0.74,0 -0.04,-0.23 0.19,-0.21 0.20,-0.47 -0.23,-0.02 -0.34,-0.17 -0.54,-0.23 -0.06,0.04 -0.04,0.17 -0.13,0.20 -0.08,-4.22e-4 -0.19,0.02 -0.20,-0.06 0.05,-0.08 0.20,-0.06 0.20,-0.20 -0.08,-0.11 -0.18,-0.18 -0.23,-0.30 -0.01,-0.03 0.05,-0.07 0.03,-0.13 -0.03,-0.11 -0.14,-0.17 -0.06,-0.33 -0.05,-0.06 -0.12,-0.09 -0.19,-0.08 z m -16.34,0.72 c -0.00,0.04 -0.05,0.05 -0.07,0.10 -0.01,0.27 0.01,0.65 0,1.01 -0.02,0.57 -0.16,1.18 0.23,1.28 0.14,-0.27 0.00,-0.60 0,-0.91 -0.01,-0.51 0.19,-1.05 -0.06,-1.48 l -0.10,0 z m 18.05,0.13 c 0.09,0.06 -0.01,0.19 -0.13,0.16 0.02,-0.07 0.10,-0.08 0.13,-0.16 z m 0.61,0.13 c -0.35,0.02 -0.15,0.41 -0.27,0.64 0.03,0.11 0.18,0.10 0.17,0.26 -0.03,0.11 -0.25,0.06 -0.23,0.23 0.09,0.10 0.24,-0.01 0.36,0 -0.08,0.29 -0.58,0.17 -0.64,0.50 0.16,0.11 0.37,-0.14 0.54,-0.03 -0.06,0.16 -0.30,0.14 -0.30,0.37 0.15,0.06 0.27,-0.16 0.40,-0.23 0.17,0.01 0.24,-0.06 0.37,-0.10 0.04,-0.16 -0.13,-0.11 -0.13,-0.23 -0.05,-0.18 0.11,-0.26 0.03,-0.36 0.01,-0.09 -0.18,0.02 -0.17,-0.07 -0.02,-0.15 0.07,-0.19 0.07,-0.33 -0.24,-0.10 -0.07,-0.41 -0.20,-0.64 z m -0.94,0.70 c -0.25,0.11 -0.72,-0.07 -0.84,0.23 0.12,0.01 0.26,0.01 0.23,0.20 0.29,-0.03 0.58,-0.24 0.61,-0.43 z M 33.45,37.69 c -0.29,0.12 -0.73,0.07 -1.04,0.10 0.06,0.31 0.54,0.27 0.47,0.64 0.15,0.02 0.20,-0.04 0.33,-0.03 0.01,-0.21 0.35,-0.09 0.36,-0.30 -0.09,-0.18 -0.39,0.03 -0.50,-0.13 0.04,-0.16 0.40,-0.02 0.37,-0.26 z m 0.07,0.66 c -0.14,0.00 -0.27,0.02 -0.31,0.10 0.19,0.21 0.68,0.18 0.67,-0.10 -0.06,-7.03e-4 -0.21,-0.01 -0.35,-0.00 z m 1.40,0.00 c -0.28,0.03 -0.44,0.20 -0.54,0.43 0.10,0.09 0.34,0.13 0.50,0.07 0.05,-0.19 -0.14,-0.32 0.03,-0.50 z m -2.01,0.14 c -0.06,-9.41e-4 -0.11,0.03 -0.14,0.12 0.08,0.18 0.61,0.38 0.64,0.03 -0.14,0.00 -0.35,-0.15 -0.49,-0.15 z m 1.10,0.15 c -0.14,0.30 -0.70,0.19 -1.04,0.30 l 0,0.16 c 0.09,0.07 0.36,-0.03 0.40,0.10 0.01,0.14 -0.17,0.06 -0.13,0.23 0.04,0.09 0.18,0.10 0.33,0.10 0.00,-0.11 0.10,-0.18 0.13,-0.27 0.02,-0.05 -0.04,-0.07 -0.03,-0.13 0.05,-0.23 0.33,-0.22 0.43,-0.47 -0.04,-0.00 -0.04,-0.04 -0.10,-0.03 z m 0.57,0.32 c -0.09,0.01 -0.16,0.05 -0.13,0.17 0.14,0.05 0.39,0.03 0.40,-0.13 -0.05,-0.02 -0.17,-0.04 -0.26,-0.03 z m -0.57,0.06 c -0.06,0.00 -0.12,0.01 -0.16,0.03 l 0,0.10 c 0.10,0.06 0.27,0.09 0.36,0 0.01,-0.10 -0.09,-0.14 -0.20,-0.14 z m 0.94,0.03 c -0.05,0.06 -0.13,0.08 -0.16,0.17 0.14,0.02 0.21,0.12 0.20,0.30 -0.37,-0.06 -0.91,-0.28 -1.14,0.06 0.23,0.01 0.43,-0.00 0.60,-0.06 -0.01,0.17 0.24,0.08 0.30,0.20 -0.02,0.06 -0.17,0.01 -0.13,0.13 0.14,0.06 0.28,0.12 0.40,0.20 0.05,-0.04 3.88e-4,-0.20 0.10,-0.20 0.14,0.02 0.23,0.10 0.23,0.26 -0.04,0.10 -0.20,-0.10 -0.20,0.06 0.03,0.22 0.42,0.08 0.27,0.40 -0.14,0.01 -0.14,-0.10 -0.30,-0.07 -0.04,0.16 0.11,0.13 0.13,0.23 -0.12,0.24 0.17,0.33 0.23,0.50 0.00,0.34 -0.28,0.39 -0.30,0.71 -0.10,-0.05 -0.16,-0.21 -0.30,-0.13 -0.14,0.20 0.03,0.67 -0.13,0.77 -0.10,0.01 -0.07,-0.10 -0.20,-0.06 -0.01,0.16 -0.08,0.41 0.06,0.54 -0.03,0.02 -0.08,0.04 -0.16,0.03 -0.02,0.12 0.05,0.14 0.03,0.26 -0.07,0.07 -0.20,0.08 -0.30,0.13 -0.16,0.27 -0.13,0.58 -0.37,0.80 0.03,-0.31 -0.04,-0.51 -0.16,-0.67 0.14,-0.26 0.56,-0.67 0.33,-0.98 -0.35,0.04 -0.14,0.64 -0.47,0.70 -0.15,-0.13 -0.23,-0.35 -0.33,-0.54 0.14,-0.13 0.16,-0.39 0.27,-0.57 0.10,0.00 9.15e-4,0.22 0.13,0.20 -0.03,-0.44 0.18,-1.14 -0.30,-1.21 -0.03,0.23 -0.00,0.44 -0.03,0.74 0.04,0.06 0.17,0.04 0.20,0.13 -0.20,0.18 -0.30,0.46 -0.50,0.64 -0.02,0.47 0.29,0.60 0.27,1.08 0.06,0.10 0.27,-0.04 0.30,0.03 0.10,0.46 -0.32,0.84 -0.23,1.28 0.57,0.17 0.57,-0.67 0.91,-0.74 0.17,0.54 -0.63,1.65 0.30,1.75 0.13,-0.44 0.03,-0.86 0.03,-1.25 -0.28,0.05 -0.18,0.49 -0.30,0.71 0.01,-0.18 -0.01,-0.32 -0.03,-0.47 0.45,-0.35 -0.07,-1.34 0.40,-1.68 0.05,0.50 -0.09,0.81 -0.13,1.21 0.50,-0.22 0.43,-1.16 0.30,-1.75 0.32,-0.25 0.67,-0.54 0.77,-1.04 0.02,-0.12 -0.02,-0.24 0,-0.36 0.04,-0.29 0.25,-0.55 0.26,-0.84 -0.05,-0.27 -0.27,-0.50 -0.36,-0.81 -0.12,-0.38 -0.14,-0.72 -0.47,-0.84 z m -1.48,0.60 c -0.01,-0.00 -0.02,0.00 -0.03,0.00 -0.00,0.07 0.00,0.12 0.06,0.13 0.04,-0.04 0.04,-0.12 -0.03,-0.13 z m 1.35,0.41 c -0.02,8e-6 -0.05,0.00 -0.07,0.02 -0.07,0.08 0.07,0.17 0.20,0.17 0.02,-0.12 -0.04,-0.19 -0.12,-0.19 z m -1.62,0.16 c -0.06,0.01 -0.11,0.05 -0.10,0.13 0.05,0.04 0.30,0.07 0.26,-0.06 -0.02,-0.05 -0.09,-0.07 -0.16,-0.06 z m 0.09,0.22 c -0.03,-3.85e-4 -0.06,0.00 -0.09,0.00 -0.12,0.17 -0.01,0.36 0,0.54 l 0.16,0 c -0.05,-0.26 0.16,-0.23 0.13,-0.47 -0.04,-0.05 -0.11,-0.06 -0.20,-0.07 z m 0.69,0.54 c -0.03,0.00 -0.08,0.01 -0.12,0.03 -0.04,0.15 0.15,0.07 0.17,0.17 -4.21e-4,0.06 -0.09,0.04 -0.07,0.13 0.11,0.02 0.16,0.13 0.30,0.13 0.11,-0.21 -0.02,-0.50 -0.28,-0.47 z m 0.11,0.57 c -0.00,0.02 -0.00,0.04 -0.03,0.03 -0.01,0.08 0.04,0.11 0.13,0.10 0.00,-0.08 -0.01,-0.14 -0.10,-0.13 z m -0.20,0.91 c -0.04,-0.00 -0.09,0.00 -0.13,0.03 l 0,0.10 c 0.12,-0.03 0.21,0.05 0.27,0 0.01,-0.08 -0.06,-0.13 -0.14,-0.13 z" />
</svg>
