<?xml version="1.0" encoding="UTF-8" standalone="no"?>
<!-- Created with Inkscape (http://www.inkscape.org/) -->
<svg xmlns:dc="http://purl.org/dc/elements/1.1/" xmlns:cc="http://creativecommons.org/ns#" xmlns:rdf="http://www.w3.org/1999/02/22-rdf-syntax-ns#" xmlns:svg="http://www.w3.org/2000/svg" xmlns="http://www.w3.org/2000/svg" version="1.1" width="100%" height="100%" viewBox="0 0 48 48" id="svg2">
<defs id="defs212" />
<path d="m 31.07,1.99 c -0.57,0.00 -1.15,0.17 -1.67,0.39 a 0.16,0.16 0 0 0 -0.08,0.05 c -1.13,0.17 -2.43,0.29 -3.71,0.04 -0.14,0.14 -0.46,0.14 -0.60,0.29 -1.14,0.57 -2.15,1.37 -3.37,1.71 a 0.15,0.15 0 0 0 -0.09,0.05 c -0.51,0.10 -1.15,0.30 -1.44,0.73 -0.49,0.73 -0.24,2.50 0.52,2.76 a 0.12,0.12 0 0 0 0.04,0.02 c 0.02,0.00 0.05,0.01 0.08,0.02 0.03,0.17 0.30,0.14 0.40,0.26 0.05,0.90 0.91,1.52 0.81,2.31 -0.05,0.38 -0.49,0.64 -0.32,1.12 -0.29,-0.06 -0.06,0.31 -0.32,0.27 -0.23,1.03 -0.70,1.84 -1.08,2.75 a 0.12,0.12 0 0 0 -0.02,0.05 c -0.00,0.00 -0.00,0.00 -0.00,0.01 -0.00,0.01 -0.01,0.03 -0.02,0.05 l 0.01,-0.00 c -0.02,0.09 -0.03,0.16 -0.09,0.21 -0.00,0.00 -0.00,0.00 -0.00,0.00 -0.00,0.00 -0.00,0.00 -0.01,0.01 a 0.12,0.12 0 0 0 -0.03,0.03 c -0.73,0.71 -0.98,2.05 -0.84,3.30 -0.26,0.07 -0.35,0.00 -0.56,0.20 0.08,0.50 -0.00,0.85 0.08,1.33 0.53,0.36 0.43,1.02 0.65,1.61 0.18,0.51 0.72,0.91 0.65,1.54 -0.08,0.30 -0.27,0.59 -0.36,0.95 -1.05,1.52 -0.00,3.35 0.76,4.42 0.12,0.17 0.15,0.38 0.24,0.49 0.02,0.03 0.20,0.02 0.24,0.06 0.42,0.44 0.64,1.03 1.10,1.31 a 0.15,0.15 0 0 0 0.00,0.01 c 0.41,0.49 0.72,1.07 1.28,1.54 0.37,0.62 0.53,1.43 1.42,1.61 -0.05,0.21 0.14,0.20 0.08,0.41 -0.90,0.31 -2.51,0.40 -3.66,0.72 a 0.12,0.12 0 0 0 -0.04,-0.00 0.12,0.12 0 0 0 -0.02,0.00 c -0.04,0.01 -0.08,0.02 -0.12,0.03 -0.50,-0.09 -1.11,0.08 -1.50,0.07 -0.12,-0.16 -0.30,-0.28 -0.56,-0.33 -0.05,-0.02 -0.11,-0.05 -0.17,-0.08 l 0.00,-0.00 c -0.17,-0.12 -0.33,-0.25 -0.58,-0.32 a 0.14,0.14 0 0 0 -0.03,-0.02 c -0.22,-0.12 -0.46,-0.23 -0.74,-0.26 -0.50,-0.37 -1.08,0.20 -1.47,0.12 0.14,-0.52 0.75,-0.65 0.88,-1.20 0.06,-0.09 0.07,-0.19 0.09,-0.27 0.43,-0.50 0.49,-1.33 0.72,-2.02 0.37,-0.35 0.53,-0.89 0.56,-1.53 -0.50,-0.50 -0.65,-1.66 -1.38,-1.75 0.04,0.80 0.59,1.16 0.89,1.75 -0.16,1.11 -0.92,2.37 -1.05,3.49 l 0.01,-0.00 c -0.02,0.08 -0.03,0.15 -0.08,0.22 l -0.01,-0.01 c -0.81,0.81 -1.60,1.65 -2.48,2.41 -0.43,0.21 -0.80,0.51 -1.13,0.81 a 0.14,0.14 0 0 0 -0.03,0.05 c -0.22,0.20 -0.51,0.53 -0.40,0.77 0.27,0.09 0.62,-0.27 0.65,-0.62 0.31,-0.29 0.66,-0.56 1.05,-0.75 0.15,0.00 0.15,-0.10 0.32,-0.08 1.05,0.54 2.11,0.23 3.38,0.14 0.63,0.41 1.10,1.07 1.76,1.56 a 0.14,0.14 0 0 0 0.02,0.01 c 1.42,1.33 4.33,0.17 5.39,-0.75 l -0.00,-0.00 c 0.10,-0.05 0.18,-0.11 0.23,-0.13 a 0.13,0.13 0 0 0 0.07,-0.01 c 0.04,-0.00 0.09,-0.01 0.09,-0.05 l -0.00,-0.00 c 0.07,-0.05 0.16,-0.10 0.25,-0.14 a 0.13,0.13 0 0 0 0.03,-0.02 c 0.24,-0.04 0.38,0.01 0.69,0.02 0.03,0.01 0.07,0.02 0.11,0.03 0.39,0.22 0.91,-0.01 1.41,0.10 0.12,0.31 0.15,0.70 0.56,0.76 0.19,-0.39 -0.22,-0.81 -0.32,-1.18 -0.20,-0.07 -0.38,0.21 -0.48,0 -0.14,-0.57 0.70,-0.28 1.13,-0.35 0.14,0.26 0.41,0.42 0.71,0.55 a 0.14,0.14 0 0 0 0.01,0.01 c 0.04,0.04 0.08,0.07 0.11,0.11 a 0.14,0.14 0 1 0 0.20,-0.21 c -0.02,-0.02 -0.05,-0.05 -0.08,-0.08 -0.12,-0.30 -0.60,-0.28 -0.63,-0.66 1.20,-0.10 1.33,1.08 2.35,0.91 0.00,-0.49 -0.57,-0.48 -0.73,-0.84 0.19,-0.76 1.09,-0.92 1.70,-1.33 1.88,0.13 3.09,-0.80 4.38,-1.39 -0.28,-0.76 -0.88,0.07 -1.46,0.07 -0.33,0.41 -1.01,0.52 -1.62,0.69 -0.06,-0.19 -0.43,-0.13 -0.73,-0.13 -0.32,0.10 -1.35,0.75 -1.78,0.98 -0.22,0.11 -0.58,0.18 -0.73,0.27 -0.25,0.16 -0.43,0.56 -0.73,0.56 -0.25,-0.00 -0.48,-0.18 -0.49,-0.34 0.50,-0.67 1.21,-1.24 1.79,-1.90 l 0.00,0.00 c 0.45,-0.12 -0.00,-0.38 0.16,-0.63 0.88,-0.70 1.71,-1.46 2.35,-2.38 l -0.00,-0.00 c 1.14,-1.38 2.34,-2.74 3.82,-3.84 0.00,-0.00 0.00,-0.00 0.00,-0.00 0.00,-0.00 0.01,-0.00 0.01,-0.01 a 0.12,0.12 0 0 0 0.02,-0.01 c 0.26,-0.19 0.53,-0.38 0.85,-0.53 -0.09,-0.81 0.23,-1.47 0.08,-2.30 0.32,0.00 0.57,0.06 0.73,0.21 0.19,0.62 -0.05,1.63 0.32,2.09 -0.71,0.57 -1.90,0.74 -2.43,1.47 0.16,0.04 0.21,0.18 0.24,0.35 -0.18,0.20 -0.51,0.28 -0.64,0.53 -0.02,0.00 -0.05,0.01 -0.08,0.02 a 0.12,0.12 0 0 0 -0.07,0.05 c -0.45,0.17 -0.86,0.39 -1.06,0.78 -0.01,0.18 0.24,0.14 0.17,0.37 -0.60,0.39 -1.29,0.75 -1.77,1.32 a 0.12,0.12 0 1 0 0.18,0.16 c 0.45,-0.53 1.13,-0.89 1.76,-1.30 a 0.12,0.12 0 0 0 0.04,-0.05 c 0.29,-0.11 0.53,-0.29 0.76,-0.46 1.06,-0.38 1.93,-1.02 3.00,-1.23 a 0.13,0.13 0 0 0 -0.02,-0.27 0.13,0.13 0 0 0 -0.02,0.00 c -1.14,0.22 -2.03,0.87 -3.04,1.24 -0.25,-0.06 0.19,-0.24 0.22,-0.39 0.02,-0.00 0.05,-0.01 0.07,-0.02 a 0.12,0.12 0 0 0 0.07,-0.06 c 0.75,-0.33 1.40,-0.75 2.12,-1.12 0.05,-0.21 -0.14,-0.20 -0.08,-0.41 0.55,-0.60 1.28,-0.14 2.03,0 0.08,0.32 -0.32,0.23 -0.24,0.55 0.02,0.39 0.31,0.57 0.24,1.05 0.23,0.06 0.31,0.34 0.40,0.49 0.10,0.16 0.39,0.27 0.24,0.63 -0.04,0.00 -0.08,0.00 -0.08,0.05 -2.10,0.35 -4.11,1.08 -6.06,1.78 a 0.11,0.11 0 1 0 0.07,0.21 c 1.96,-0.70 3.97,-1.43 6.07,-1.78 l -0.00,0.00 c 0.45,-0.00 0.81,-0.09 1.13,-0.21 -0.07,-0.23 -0.47,-0.19 -0.32,-0.63 0.72,-0.07 1.91,0.43 2.03,-0.55 -0.79,0.01 -1.42,0.05 -2.11,0 -0.07,-0.42 -0.44,-0.85 -0.65,-1.33 -0.17,-0.41 -0.06,-0.73 -0.48,-0.98 -0.38,-0.22 -0.84,0.01 -1.13,-0.41 -0.20,-0.33 -0.01,-0.73 0,-1.12 0.01,-0.43 -0.08,-0.86 0,-1.18 0.02,-0.10 0.20,-0.12 0.24,-0.21 0.08,-0.17 0.13,-0.44 0.24,-0.69 0.20,-0.47 0.34,-0.93 0.65,-1.33 0.32,-0.42 0.59,-0.46 0.48,-1.04 -0.13,-0.75 -0.59,-1.42 -0.65,-2.38 -0.55,-0.36 -0.73,-1.05 -1.54,-1.19 -0.40,-1.48 3.45,-0.94 4.30,-0.98 0.51,-0.62 1.23,-1.06 1.69,-1.74 a 0.12,0.12 0 0 0 0.05,-0.04 c 0.02,-0.03 0.07,-0.07 0.14,-0.12 a 0.12,0.12 0 0 0 0.04,-0.04 c 0.46,-0.22 0.85,-0.60 0.82,-1.05 -0.02,-0.38 -0.55,-0.56 -0.48,-0.97 C 45.29,10.23 44.91,9.43 44.38,8.64 44.05,8.17 43.53,7.72 43.48,7.17 43.08,7.05 43.06,6.64 42.91,6.41 42.55,5.85 42.08,5.14 41.61,4.72 41.16,4.32 40.54,3.79 40.07,3.53 39.42,3.19 38.77,2.69 37.75,2.83 37.71,2.82 37.67,2.80 37.62,2.79 a 0.12,0.12 0 0 0 -0.05,-0.00 0.12,0.12 0 0 0 -0.06,0.03 C 35.89,2.69 34.09,2.82 32.38,2.33 a 0.17,0.17 0 0 0 -0.08,-0.08 C 31.93,2.08 31.56,2.00 31.19,1.99 c -0.03,-8.30e-4 -0.07,-6.21e-4 -0.11,0 z m 0.10,0.34 c 0.33,0.00 0.65,0.07 0.97,0.22 a 0.17,0.17 0 0 0 0.09,0.01 c 0.40,0.23 1.03,0.40 1.32,0.46 0.44,0.09 1.17,0.11 1.38,0.13 0.80,0.10 1.85,0.03 2.64,-0.13 0.03,0.01 0.07,0.02 0.11,0.03 a 0.12,0.12 0 0 0 0.10,-0.01 c 1.10,0.19 1.74,0.78 2.64,1.15 0.22,0.41 0.52,0.76 0.97,0.98 1.37,2.38 3.08,4.48 4.55,6.79 -0.02,0.35 -0.48,0.33 -0.48,0.70 l 0.00,0.00 c -0.05,0.03 -0.11,0.07 -0.16,0.14 L 45.35,12.85 c -0.57,0.39 -1.01,0.89 -1.54,1.32 -1.56,-0.07 -2.25,0.17 -3.73,0.14 -0.06,-0.51 0.12,-0.81 0.08,-1.32 7.32e-4,-0.00 0.00,-0.00 0.00,-0.00 0.80,-0.28 1.58,-0.16 2.51,-0.13 0.05,0.29 -0.24,0.28 -0.31,0.46 -0.02,0.00 -0.05,0.01 -0.08,0.02 a 0.12,0.12 0 0 0 -0.01,0.00 c -0.48,0.04 -0.97,0.08 -1.29,0.27 0.20,0.30 1.05,0.15 1.40,-0.03 0.03,-0.01 0.07,-0.02 0.11,-0.03 0.85,-0.01 1.39,-0.72 0.74,-1.26 -1.09,-0.16 -2.13,-0.37 -3.25,-0.06 -0.06,0.13 0.01,0.37 -0.05,0.60 a 0.12,0.12 0 0 0 -0.00,0.00 c -0.01,0.04 -0.03,0.09 -0.05,0.14 a 0.12,0.12 0 0 0 -0.01,0.07 c -0.30,1.06 -0.75,2.01 -1.24,2.91 -0.07,0.01 -0.15,0.01 -0.23,0.03 a 0.12,0.12 0 0 0 -0.10,0.06 c -1.00,0.36 -1.29,-0.57 -1.94,-0.83 -0.03,-0.13 -0.23,-0.12 -0.16,-0.35 -0.84,-0.27 -1.48,-0.82 -2.19,-1.12 -1.01,-0.41 -2.84,-0.84 -4.06,-0.98 -3.32,-0.38 -6.44,0.37 -8.69,1.26 -0.02,-0.46 0.21,-0.98 0.40,-1.46 0.23,-0.60 0.62,-1.25 0.73,-1.89 0.08,-0.48 -0.00,-0.88 0.14,-1.15 a 0.15,0.15 0 0 0 0.15,-0.05 c 0.25,-0.32 0.63,-0.60 1.02,-0.81 a 0.15,0.15 0 0 0 0.06,-0.06 C 23.96,8.51 24.13,8.35 24.30,8.22 24.50,8.07 24.94,7.98 24.78,7.53 24.77,7.33 24.44,7.40 24.21,7.38 24.26,6.88 23.96,6.67 23.81,6.33 23.46,6.31 23.69,6.78 23.48,6.88 23.25,6.66 23.02,6.43 22.91,6.17 c -0.01,-0.40 0.07,-0.89 -0.24,-1.02 -0.60,0.02 -0.28,0.99 -0.00,1.11 0.14,0.33 0.41,0.60 0.66,0.83 l -0.01,0.00 c -0.04,0.30 0.37,0.05 0.48,0.13 0.15,0.11 0.27,0.46 0.24,0.63 -0.04,0.26 -0.40,0.25 -0.54,0.51 -0.41,0.22 -0.81,0.51 -1.10,0.87 -0.21,-0.02 -0.14,0.19 -0.38,0.14 -0.44,-0.90 0.08,-2.64 -1.05,-2.94 -0.12,0.03 -0.20,0.10 -0.32,0.13 0.06,0.39 0.85,0.80 0.32,1.26 l -0.10,0 c -0.02,-0.00 -0.05,-0.01 -0.07,-0.02 C 20.31,7.35 20.33,6.25 20.48,5.42 20.87,5.19 21.41,5.09 21.72,4.78 23.01,4.42 24.04,3.60 25.14,3.05 a 0.15,0.15 0 0 0 0.02,-0.02 c 0.95,-0.06 1.72,0.05 2.46,0.01 0.10,-0.00 0.08,-0.11 0.16,-0.13 0.39,-0.14 1.49,0.18 1.75,-0.21 0.53,-0.21 1.08,-0.36 1.62,-0.35 z m -1.68,1.68 c -0.20,0.00 -0.29,0.10 -0.31,0.28 0.20,0.57 0.36,1.17 0.48,1.81 0.71,-0.29 0.46,-1.83 -0.08,-2.09 -0.03,-0.00 -0.06,-0.00 -0.09,-0.00 z m 3.99,0.00 c -0.64,0.20 -0.99,0.67 -1.22,1.22 a 0.15,0.15 0 0 0 -0.07,0.10 c -0.06,0.33 -0.25,0.65 -0.35,1.04 -0.16,0.01 -0.04,0.26 -0.28,0.21 -0.05,-0.60 -0.06,-1.35 -0.40,-2.02 -0.64,0.29 -0.27,1.17 -0.40,1.82 -0.04,0.21 -0.27,0.33 -0.16,0.55 -5.69e-4,0.00 5.69e-4,0.00 0,0.00 -0.19,0.05 -0.41,0.58 0.00,0.55 0.13,-0.11 0.24,-0.25 0.24,-0.48 7.32e-4,-0.00 0.00,-0.00 0.00,-0.00 0.15,-0.03 0.00,-0.32 0.32,-0.21 -0.01,0.22 -0.28,0.77 0.16,0.76 0.34,-0.23 0.54,-0.57 0.72,-0.94 a 0.15,0.15 0 0 0 0.08,-0.10 c 0.07,-0.35 0.29,-0.69 0.38,-1.12 a 0.15,0.15 0 0 0 0.00,-0.02 C 32.79,4.91 33.48,4.51 33.48,4.02 z m -7.15,0.35 c -0.05,0.16 -0.27,0.18 -0.32,0.34 0.50,1.05 1.57,1.62 2.43,2.37 0.01,0.02 0.02,0.05 0.03,0.08 a 0.12,0.12 0 1 0 0.24,-0.09 c -0.00,-0.02 -0.01,-0.04 -0.02,-0.06 C 28.67,6.65 28.41,6.47 28.20,6.27 27.73,5.50 27.08,4.90 26.33,4.38 z m -1.96,0.20 c -0.01,3.98e-4 -0.04,0.00 -0.06,0.00 -0.13,0.35 -0.58,1.56 0.16,1.82 C 24.60,5.98 24.27,5.18 24.78,4.93 24.57,4.88 24.65,4.57 24.36,4.58 z M 37.42,5.63 c -0.55,0.00 -1.16,0.54 -1.82,0.56 -0.08,0.46 -0.83,0.35 -0.73,0.98 0.60,-0.06 0.91,-0.75 1.46,-0.63 -0.37,0.73 -1.51,1.15 -1.38,2.09 0.53,-0.11 0.58,0.19 0.97,0.21 0.50,-0.94 1.34,-1.59 2.11,-2.30 l -0.01,-0.01 c 0.14,-0.07 0.24,-0.14 0.31,-0.16 a 0.10,0.10 0 0 0 -0.01,-0.21 0.10,0.10 0 0 0 -0.01,0.00 c -0.16,0.02 -0.27,0.12 -0.39,0.18 -0.48,0.08 -0.61,0.46 -1.09,0.55 0.15,-0.39 0.51,-0.63 0.97,-0.77 -0.06,-0.19 0.11,-0.17 0.08,-0.34 -0.14,-0.10 -0.29,-0.14 -0.45,-0.14 z m 2.71,0.43 c -0.56,-0.00 -1.16,0.33 -1.52,0.69 l 0.01,0.01 c -0.77,0.50 -1.42,1.16 -1.99,1.83 a 0.11,0.11 0 0 0 0.03,0.23 c 0.01,-0.00 0.02,-0.00 0.03,-0.00 l 0.04,-0.00 0.03,-0.03 C 37.35,8.11 37.99,7.46 38.75,6.96 39.65,6.91 40.71,7.01 40.96,6.41 40.72,6.16 40.43,6.06 40.13,6.06 z M 26.33,6.75 c -0.30,0.34 0.04,0.95 0.56,0.77 l 0,-0.49 C 26.72,6.93 26.54,6.83 26.33,6.75 z M 25.41,6.89 c -0.01,-3.25e-4 -0.04,0.00 -0.06,0.00 -0.16,0.20 -0.23,0.49 -0.32,0.76 0.15,0.02 0.14,0.19 0.40,0.13 0.30,-0.09 0.57,-0.90 -0.02,-0.91 z m 7.15,0.02 c -0.47,0.01 -0.86,0.51 -0.70,0.88 0.51,-0.11 0.75,-0.47 0.97,-0.84 -0.09,-0.03 -0.17,-0.04 -0.26,-0.04 z m -5.42,0.25 0,0.20 0.24,0 0,-0.20 -0.24,0 z m 2.76,0 c -0.01,0.09 -0.13,0.11 -0.16,0.20 0.11,0.01 0.13,0.11 0.24,0.14 0.01,-0.09 0.13,-0.11 0.16,-0.21 -0.11,-0.01 -0.13,-0.11 -0.24,-0.13 z m 4.14,0.06 C 33.84,7.41 33.73,7.67 33.56,7.87 l -0.03,0 c -0.12,-0.03 -0.24,-0.01 -0.34,-0.01 -0.10,0.00 -0.18,-0.00 -0.23,-0.04 a 0.12,0.12 0 0 0 -0.09,-0.02 0.12,0.12 0 0 0 -0.05,0.22 c 0.12,0.09 0.27,0.09 0.39,0.09 0.08,-0.00 0.17,-0.00 0.23,0.00 0.12,0.10 0.40,0.08 0.54,0.18 C 34.20,8.09 34.33,7.81 34.30,7.38 34.18,7.37 34.16,7.27 34.05,7.24 z m 5.94,0.08 c -0.30,-0.00 -0.63,0.12 -0.78,0.28 -0.37,0.16 -0.81,0.33 -1.11,0.67 a 0.15,0.15 0 0 0 -0.00,0.00 l -0.22,0 c -0.05,0.55 -0.82,0.50 -0.89,1.04 0.66,0.70 2.02,-0.57 2.84,-0.13 -0.48,0.49 -1.93,0.44 -1.78,1.26 1.31,-0.04 2.89,-0.42 4.14,-0.13 -0.51,0.23 -1.47,0.08 -1.70,0.55 0.85,0.33 1.67,-0.44 2.76,-0.06 l 0,0.03 a 0.14,0.14 0 0 0 -0.01,0.00 c -0.88,0.33 -1.88,0.46 -2.87,0.45 a 0.14,0.14 0 0 0 -0.03,0.00 c -0.33,-0.10 -0.89,-0.17 -0.98,0.12 0.14,0.18 0.57,0.13 0.94,0.13 a 0.14,0.14 0 0 0 0.07,0.01 c 1.01,0.00 2.04,-0.12 2.97,-0.47 a 0.14,0.14 0 0 0 0.07,-0.06 C 43.71,10.94 44.17,10.95 44.29,10.68 44.04,10.47 43.45,10.56 43.64,9.97 42.79,9.84 41.74,9.77 40.88,9.83 c -0.49,0.03 -1.05,0.31 -1.38,0 0.76,-0.36 1.66,-0.61 2.68,-0.76 -0.17,-1.46 -3.00,-0.45 -3.90,-0.49 9.92e-4,-0.02 0.00,-0.03 0.01,-0.05 a 0.15,0.15 0 0 0 0.03,-0.03 C 38.56,8.22 38.97,8.06 39.36,7.88 a 0.15,0.15 0 0 0 0.05,-0.03 c 0.39,-0.07 0.71,-0.21 0.90,-0.46 -0.09,-0.03 -0.20,-0.05 -0.31,-0.05 z m 3.09,4.02 c -0.11,0.00 -0.22,0.01 -0.34,0.02 -0.56,0.75 1.20,0.66 1.62,0.76 0.27,-0.65 -0.48,-0.81 -1.28,-0.79 z m -4.94,0.43 a 0.10,0.10 0 0 0 -0.07,0.16 c 0.22,0.32 0.58,0.47 0.82,0.71 a 0.10,0.10 0 1 0 0.14,-0.14 c -0.27,-0.27 -0.61,-0.42 -0.80,-0.68 a 0.10,0.10 0 0 0 -0.09,-0.04 z m -0.75,0.63 c 0.01,0.21 0.15,0.33 0.40,0.34 -0.03,-0.20 -0.17,-0.31 -0.40,-0.34 z m -8.69,0.63 c 2.07,0.17 3.87,0.57 5.27,1.32 -0.08,0.10 -0.14,0.20 -0.18,0.26 l -0.03,0.06 0.04,0.06 c 0.11,0.16 0.27,0.25 0.41,0.34 -0.09,0.26 0.50,0.38 0.09,0.45 -0.06,-0.25 -0.37,-0.28 -0.65,-0.35 -0.14,0.19 0.44,0.35 0.32,0.76 0.08,0.18 0.32,0.23 0.48,0.35 0.06,0.21 -0.28,0.08 -0.16,0.35 0.20,0.17 0.61,0.16 0.73,0.41 0.07,0.24 -0.26,0.11 -0.32,0.06 -0.04,0.34 0.29,0.35 0.48,0.49 0.07,0.25 -0.36,0.06 -0.32,0.28 -0.05,0.22 0.21,0.18 0.35,0.24 a 0.14,0.14 0 0 0 0.04,0.03 c 0.04,0.02 0.09,0.05 0.17,0.08 0.05,0.21 0.31,0.15 0.48,0.11 C 35.89,18.28 35.80,18.18 35.65,18.13 a 0.14,0.14 0 0 0 -0.05,-0.03 c -0.06,-0.02 -0.10,-0.04 -0.15,-0.07 0.16,-0.19 0.42,0.09 0.72,0.00 0.18,-0.15 -0.02,-0.27 0,-0.49 0.49,-0.13 0.20,-0.94 0.81,-0.98 l 0,0.21 c 0.44,-0.21 1.13,-0.23 1.50,-0.52 0.07,-0.00 0.16,-0.01 0.24,-0.03 0.51,-0.01 1.00,-0.00 1.09,0.34 -0.68,-0.05 -1.12,0.10 -1.78,0.07 -0.51,0.35 -0.72,1.32 -0.48,1.75 0.72,0.13 0.69,0.83 0.97,1.18 0.03,0.21 -0.22,0.16 -0.17,0.38 a 0.14,0.14 0 0 0 -0.00,0.00 c -0.02,0.00 -0.04,0.01 -0.06,0.02 -8.53e-4,3.25e-4 -0.00,-3.26e-4 -0.00,0 -0.00,7.32e-4 -0.00,0.00 -0.00,0.00 -0.08,0.03 -0.18,0.05 -0.24,0.06 -0.01,-0.01 -0.03,-0.02 -0.04,-0.04 -0.02,-0.02 -0.02,-0.03 -0.02,-0.03 -0.01,-0.10 0.03,-0.28 0.04,-0.47 0.00,-0.10 -0.00,-0.21 -0.06,-0.31 -0.05,-0.10 -0.16,-0.18 -0.30,-0.23 a 0.14,0.14 0 0 0 -0.05,-0.01 0.14,0.14 0 0 0 -0.04,0.28 c 0.09,0.03 0.12,0.06 0.14,0.10 0.02,0.03 0.03,0.08 0.02,0.16 -0.00,0.14 -0.07,0.34 -0.03,0.55 l 0,0.01 0.00,0.01 c 0.02,0.06 0.06,0.10 0.09,0.14 0.03,0.04 0.08,0.07 0.12,0.11 l 0.03,0.02 0.04,0.00 c 0.16,0.00 0.30,-0.06 0.39,-0.09 l 0.00,-0.00 0.00,0 c 0.02,-0.00 0.04,-0.01 0.06,-0.02 a 0.14,0.14 0 0 0 0.06,-0.04 c 0.94,-0.26 0.05,-1.02 0.08,-1.73 -0.17,-0.21 -0.64,-0.18 -0.65,-0.55 0.10,-0.40 0.47,-0.57 0.65,-0.90 0.77,0.16 1.01,0.05 1.62,0.20 0.15,1.24 0.78,2.14 0.24,3.08 -0.15,0.26 -0.50,0.50 -0.65,0.76 -0.05,0.09 0.04,0.25 0,0.35 -0.02,0.04 -0.21,0.09 -0.24,0.13 -0.07,0.11 -0.02,0.27 -0.08,0.35 -0.07,0.10 -0.50,0.33 -0.40,0.55 l -0.81,0 c -0.14,-0.18 -0.26,-0.30 -0.32,-0.49 -0.02,-0.07 -0.14,-0.03 -0.16,-0.06 -0.04,-0.09 0.03,-0.24 0,-0.35 -0.05,-0.20 -0.30,-0.41 -0.40,-0.63 -0.05,-0.12 -0.02,-0.32 -0.08,-0.49 -0.23,-0.63 -0.62,-1.41 -0.48,-2.30 0.04,-0.09 0.13,-0.20 0.21,-0.33 0.04,-0.07 0.09,-0.16 0.11,-0.26 0.01,-0.10 0.00,-0.21 -0.05,-0.33 a 0.12,0.12 0 0 0 -0.13,-0.07 0.12,0.12 0 0 0 -0.09,0.18 c 0.03,0.06 0.04,0.11 0.03,0.17 -0.00,0.05 -0.03,0.11 -0.07,0.17 -0.07,0.11 -0.18,0.23 -0.25,0.40 -0.07,0.01 -0.13,0.07 -0.15,0.13 -0.40,1.65 0.54,2.86 0.97,3.85 1.11,0.76 0.51,2.57 -0.08,3.42 l 0.00,0.00 c -1.50,1.11 -2.72,2.49 -3.86,3.88 a 0.12,0.12 0 0 0 -0.01,0.02 c -1.73,1.82 -3.78,3.38 -6.77,4.14 -0.03,0.23 0.34,0.12 0.32,0.35 -1.03,0.13 -1.64,-0.68 -2.68,-0.76 0.05,-0.21 -0.08,-0.25 -0.08,-0.42 0.30,0.04 0.46,0.21 0.65,0 C 24.47,32.33 24.01,32.06 23.51,31.83 a 0.15,0.15 0 0 0 -0.03,-0.03 c -0.50,-0.42 -0.80,-0.98 -1.24,-1.50 a 0.15,0.15 0 0 0 -0.09,-0.05 C 21.01,28.60 19.19,27.05 19.88,24.30 a 0.14,0.14 0 0 0 0.02,-0.04 c 0.07,-0.29 0.25,-0.58 0.36,-0.92 0.49,-0.30 0.08,-0.65 -0.02,-0.89 -0.07,-0.15 -0.03,-0.30 -0.08,-0.41 -0.35,-0.84 -0.75,-1.69 -0.48,-2.73 0.88,0.00 1.55,0.20 2.35,0.27 0.10,-0.80 -1.43,-0.75 -2.35,-0.90 -0.06,-1.31 0.12,-2.28 0.56,-3.28 l -0.00,-0.00 c 0.12,-0.10 0.15,-0.24 0.18,-0.35 1.30,-0.99 3.32,-1.36 5.35,-1.74 l 0,0.13 c -0.44,0.42 -0.96,0.79 -1.43,1.22 a 0.13,0.13 0 1 0 0.17,0.19 c 0.46,-0.42 1.01,-0.81 1.48,-1.28 l 0.00,0.00 c 0.59,-0.26 1.42,-0.31 2.35,-0.28 0.26,0.06 0.16,-0.17 0.32,-0.20 z m 9.92,0.12 c -0.02,10e-4 -0.05,0.00 -0.08,0.01 -0.12,0.30 0.37,0.37 0.40,0.13 -0.13,-0.02 -0.14,-0.15 -0.32,-0.15 z m -11.25,0.42 c -0.14,6.51e-4 -0.30,0.04 -0.40,0.10 -1.04,0.28 -1.87,0.87 -2.58,1.55 a 0.13,0.13 0 1 0 0.18,0.19 c 0.69,-0.66 1.49,-1.22 2.49,-1.49 0.33,0.02 0.47,-0.11 0.58,-0.28 -0.06,-0.05 -0.17,-0.07 -0.27,-0.07 z m -0.24,0.68 a 0.12,0.12 0 0 0 -0.01,0.00 0.12,0.12 0 0 0 -0.00,0.00 c -1.33,0.28 -2.28,1.17 -3.04,2.09 a 0.12,0.12 0 0 0 0.18,0.15 c 0.74,-0.90 1.65,-1.74 2.91,-2.01 a 0.12,0.12 0 0 0 -0.02,-0.24 z m 10.77,0.02 c -0.05,0.21 -0.05,0.13 0,0.34 l 0.24,0 c 0.15,-0.13 -0.04,-0.12 0,-0.34 l -0.24,0 z m -3.69,0.20 0.11,0 c 0.31,0.54 1.36,0.46 1.30,1.33 -0.50,-0.17 -0.70,-0.59 -1.11,-0.84 a 0.12,0.12 0 0 0 -0.00,-0.00 c -0.00,-0.00 -0.00,-0.00 -0.00,-0.00 a 0.12,0.12 0 0 0 -0.01,-0.01 c -0.14,-0.12 -0.29,-0.20 -0.39,-0.29 0.03,-0.04 0.05,-0.09 0.10,-0.16 z m -6.33,0.27 c -0.01,-2.45e-4 -0.03,4.06e-4 -0.05,0.00 -0.86,0.45 -2.61,0.79 -2.60,1.96 0.71,-0.29 1.49,-0.53 2.03,-0.98 0.54,-0.04 1.03,-0.13 1.62,-0.13 0.05,0.09 0.17,0.13 0.32,0.13 -0.00,0.28 0.18,0.40 0.40,0.49 0.01,-0.08 0.12,-0.07 0.24,-0.07 0.08,-0.56 -0.57,-0.48 -0.48,-1.04 -0.21,-0.02 -0.24,-0.20 -0.48,-0.21 -0.28,0.00 -0.29,0.25 -0.65,0.21 -0.14,-0.09 -0.10,-0.34 -0.35,-0.35 z m -3.84,0.91 a 0.10,0.10 0 0 0 -0.07,0.05 c -0.02,0.04 -0.04,0.09 -0.05,0.11 -0.00,0.02 -0.01,0.02 -0.01,0.02 a 0.10,0.10 0 1 0 0.09,0.17 c 0.06,-0.02 0.08,-0.07 0.10,-0.11 0.01,-0.03 0.03,-0.07 0.04,-0.11 A 0.10,0.10 0 0 0 24.00,15.72 z m 12.00,0.34 c 0.17,-0.01 0.25,0.05 0.24,0.21 l -0.24,0 0,-0.21 z m 3.49,1.26 c -0.37,0.73 0.36,1.47 0.18,2.34 a 0.11,0.11 0 0 0 -0.01,0.02 c -0.07,0.17 -0.25,0.33 -0.40,0.52 l -0.01,-0.01 c -0.53,0.30 -0.61,0.85 -0.32,1.39 0.69,0.02 0.40,-0.79 0.54,-1.25 0.12,-0.14 0.28,-0.29 0.38,-0.49 0.16,0.01 0.14,-0.05 0.20,-0.14 0.32,-0.47 -0.05,-2.19 -0.56,-2.38 z m -11.96,1.19 c -0.54,-0.01 -1.03,0.24 -1.30,0.53 a 0.14,0.14 0 0 0 -0.01,0.00 c -0.32,0.20 -0.39,0.52 -0.54,0.71 a 0.14,0.14 0 1 0 0.23,0.18 c 0.20,-0.26 0.25,-0.51 0.46,-0.65 a 0.14,0.14 0 0 0 0.05,-0.05 c 0.37,-0.34 1.22,-0.26 1.51,-0.67 -0.14,-0.04 -0.27,-0.06 -0.41,-0.06 z m 3.58,0.23 c -0.36,0.00 -0.78,0.15 -0.89,0.38 0.28,0.23 1.10,-0.00 1.21,-0.35 -0.09,-0.02 -0.20,-0.04 -0.32,-0.03 z m -3.04,0.45 c -0.07,0.00 -0.14,0.03 -0.18,0.08 -0.39,0.06 -0.66,0.31 -0.90,0.53 -0.25,0.23 -0.47,0.44 -0.80,0.48 a 0.15,0.15 0 0 0 -0.08,0.03 c -0.17,0.03 -0.26,0.14 -0.26,0.33 0.09,0.08 0.34,0.03 0.45,-0.08 0.39,-0.07 0.66,-0.33 0.90,-0.55 0.25,-0.23 0.47,-0.43 0.81,-0.46 a 0.15,0.15 0 0 0 0.05,-0.01 c 0.24,0.00 0.40,-0.05 0.45,-0.21 -0.05,-0.07 -0.27,-0.16 -0.44,-0.14 z m -3.29,0.28 c -0.97,0.27 -0.04,2.09 0.65,1.60 -0.23,-0.52 -0.56,-0.95 -0.65,-1.60 z m -2.42,0.54 c -0.02,4.06e-4 -0.05,0.00 -0.09,0.01 -0.12,0.27 0.23,0.48 0.08,0.56 -0.20,0.11 -1.00,-0.41 -1.30,0 -0.40,-0.01 -0.69,0.32 -0.71,0.66 a 0.10,0.10 0 1 0 0.20,0.00 c 0.00,-0.22 0.20,-0.47 0.51,-0.46 l -0.00,0.00 c 0.01,-0.00 0.03,-0.00 0.05,-0.00 a 0.10,0.10 0 0 0 0.00,0 c 0.66,-0.04 1.50,0.11 1.49,0.84 -0.47,0.12 -1.12,0.09 -1.49,0.31 -0.03,0.01 -0.07,0.02 -0.10,0.03 -0.37,0.01 -0.40,0.31 -0.42,0.63 0.19,-0.02 0.17,0.12 0.40,0.06 l -0.00,-0.00 c 0.10,0.01 0.21,0.01 0.32,-0.01 0.10,-0.03 0.20,-0.08 0.27,-0.18 0.17,0.02 0.51,-0.08 0.54,0.06 -0.04,0.52 -0.45,0.80 -0.48,1.26 -0.03,0.45 0.29,0.93 0.16,1.47 -0.22,0.06 -0.20,0.33 -0.48,0.35 0.09,0.52 -0.37,0.56 -0.40,0.97 0.28,0.48 0.74,0.80 1.13,1.19 l 0.01,-0.01 c 0.02,0.04 0.05,0.08 0.10,0.13 a 0.12,0.12 0 1 0 0.17,-0.17 c -0.01,-0.01 -0.03,-0.03 -0.04,-0.05 -0.00,-0.45 -0.48,-0.49 -0.56,-0.87 0.09,-0.01 0.12,-0.07 0.16,-0.13 0.10,0.02 0.19,0.01 0.29,0.00 a 0.12,0.12 0 0 0 0.06,0.01 l 0.16,0 a 0.12,0.12 0 0 0 0.02,-0.00 c 0.19,0.05 0.26,-0.04 0.58,-0.01 0.27,-0.48 0.86,-0.88 0.73,-1.51 0.23,-0.03 0.42,-0.13 0.60,-0.23 l 0.18,0 c 0.01,0.02 0.03,0.05 0.05,0.07 l -0.03,-0.01 c 0.05,0.27 -0.21,0.28 -0.16,0.56 0.97,0.11 1.31,-0.26 2.27,-0.35 0.45,-0.40 0.88,-0.82 1.38,-1.18 0.69,0.10 1.24,-0.20 1.78,0.13 0.25,-0.25 -0.06,-0.46 -0.16,-0.63 -0.46,-0.04 -0.67,0.11 -1.13,0.06 -0.19,-0.08 -0.18,-0.35 -0.48,-0.34 -0.64,0.51 -1.10,-0.54 -1.78,-0.21 0.22,0.41 0.91,0.42 1.13,0.84 -0.21,0.94 -1.84,0.68 -2.74,1.04 -0.01,-0.02 -0.03,-0.04 -0.05,-0.07 l 0.03,0.01 c -0.05,-0.49 0.61,-0.38 0.98,-0.52 0.23,-0.00 0.44,-0.13 0.55,-0.32 l 0.01,0.01 c 0.11,-0.03 0.19,-0.11 0.24,-0.21 -0.19,-0.27 -0.23,-0.67 -0.56,-0.83 -0.33,0.23 0.16,0.51 0.08,0.96 -0.06,0.09 -0.18,0.15 -0.33,0.16 l 0.00,-0.00 c -0.42,-0.17 -1.03,0.00 -1.54,0.13 -0.09,0.29 0.13,0.30 0.16,0.49 l 0.01,0.01 c -0.20,0.10 -0.38,0.20 -0.58,0.21 l 0.00,-0.01 -0.48,0 0,-0.07 -0.01,0.00 c 0.00,-0.03 0.01,-0.06 0.01,-0.09 a 0.12,0.12 0 0 0 -0.11,-0.13 0.12,0.12 0 0 0 -0.12,0.10 c -0.00,0.01 -0.00,0.03 -0.00,0.05 l -0.48,0 c -1.05,-1.48 1.44,-3.06 0.32,-4.62 -0.22,0.02 -0.19,-0.15 -0.39,-0.15 z m 8.36,0.00 c -0.18,0.00 -0.35,0.02 -0.49,0.07 0.13,0.29 1.42,0.50 1.54,0.13 -0.22,-0.11 -0.65,-0.22 -1.05,-0.21 z m -2.16,0.09 a 0.15,0.15 0 0 0 -0.11,0.06 c -0.27,0.34 -0.70,0.40 -1.20,0.50 a 0.15,0.15 0 1 0 0.06,0.30 c 0.49,-0.09 1.02,-0.16 1.39,-0.61 a 0.15,0.15 0 0 0 -0.12,-0.25 z m -16.57,0.41 -0.04,0.01 c -1.17,0.32 -2.43,0.59 -3.28,1.39 a 0.11,0.11 0 1 0 0.15,0.17 c 0.78,-0.73 1.97,-1.00 3.14,-1.33 0.09,0.05 0.17,0.11 0.21,0.18 0.02,0.10 0.01,0.24 0.01,0.39 l -0.00,0 c -0.29,0.65 -1.02,0.94 -1.95,1.04 -0.07,0.27 0.28,0.17 0.16,0.49 -0.25,0.54 -0.81,0.83 -1.13,1.32 0.18,0.02 0.11,0.27 0.23,0.34 0.00,0.00 0.00,0.00 0.00,0.01 0.08,0.86 0.17,1.32 0.40,2.09 0.66,-0.09 0.68,-0.73 0.88,-1.22 a 0.15,0.15 0 0 0 0.09,-0.10 c 0.06,-0.23 0.17,-0.46 0.27,-0.71 0.30,-0.13 0.98,0.01 1.21,-0.03 0.08,0.00 1.07,0.08 1.44,0.25 0.37,0.17 1.42,0.82 1.46,0.85 0.15,0.19 0.43,0.33 0.71,0.42 0.15,-0.35 -0.28,-0.63 -0.66,-0.79 -0.01,-0.00 -0.03,-0.01 -0.05,-0.02 -0.17,-0.12 -0.97,-0.70 -1.28,-0.89 -0.33,-0.19 -1.45,-0.22 -1.55,-0.22 -0.23,-0.24 -1.00,0.04 -1.23,-0.09 -0.05,0.18 -0.32,0.18 -0.33,0.41 -0.09,0.22 -0.20,0.46 -0.27,0.72 -0.67,0.27 -0.56,-0.45 -0.85,-0.71 -0.00,-0.00 -0.00,-0.00 -0.00,-0.00 l 0,-0.20 c 0.93,-0.57 1.20,-1.71 2.43,-2.02 0.04,-0.30 0.50,-0.55 0.24,-0.90 l -0.00,0.00 c -0.00,-0.13 0.02,-0.29 -0.03,-0.47 l -0.00,-0.01 -0.00,-0.01 c -0.08,-0.14 -0.22,-0.24 -0.35,-0.30 l -0.04,-0.02 z m -6.22,0.06 c -0.06,0.01 -0.09,0.05 -0.08,0.13 l 0.01,0.00 C 5.40,20.94 5.25,21.23 5.12,21.46 l -0.01,-0.01 c -0.31,0.17 -0.75,0.82 -0.48,1.05 -0.01,0.05 -0.03,0.10 -0.08,0.14 l 0,-0.00 c -0.08,2.44e-4 -0.09,-0.05 -0.16,-0.07 -0.03,1.04 -0.40,2.30 0.16,3.36 l 0.00,-0.00 c 0.13,0.18 0.21,0.40 0.33,0.63 0.03,0.21 -0.10,0.34 -0.27,0.25 a 0.14,0.14 0 0 0 -0.03,-0.04 c -0.03,-0.02 -0.07,-0.05 -0.12,-0.08 -0.02,-0.07 -0.14,-0.07 -0.21,-0.11 a 0.18,0.18 0 0 0 -0.07,-0.05 C 4.10,26.18 3.91,25.89 3.80,25.59 3.75,25.24 3.52,25.04 3.32,24.82 3.32,24.12 2.87,23.81 2.67,23.28 2.26,23.25 2.19,23.00 1.78,23.14 c 0.04,0.22 -0.15,0.21 0,0.34 l 0.00,0 c -0.48,1.70 0.44,3.43 1.40,4.85 0.07,0.24 0.13,0.50 0.46,0.53 0.27,0.19 0.45,0.51 0.73,0.78 0.11,0.35 0.52,0.46 0.71,0.76 0.18,0.61 0.54,1.42 0.73,2.30 0.03,0.16 -0.03,0.44 0,0.63 0.17,0.96 0.94,1.98 0.49,2.44 a 0.15,0.15 0 0 0 -0.02,0.00 C 5.60,36.09 5.08,36.66 4.67,37.22 a 0.15,0.15 0 0 0 -0.01,0.02 c -0.29,0.23 -0.58,0.46 -0.60,0.93 0.45,-0.07 0.61,-0.40 0.78,-0.71 a 0.15,0.15 0 0 0 0.08,-0.06 c 0.39,-0.53 0.87,-1.05 1.50,-1.30 a 0.15,0.15 0 0 0 0.00,-0.00 c 0.03,0.00 0.06,0.02 0.05,0.05 -0.09,0.39 -1.35,1.04 -1.38,1.68 0.26,0.19 0.25,-0.29 0.65,-0.21 0.18,0.44 -0.30,0.91 0.24,1.18 0.01,-0.08 0.12,-0.07 0.24,-0.06 C 6.50,38.41 6.31,37.83 6.41,37.35 6.53,36.78 6.94,36.38 7.14,36.02 7.08,35.02 6.52,34.27 6.41,33.36 6.33,32.70 6.23,32.41 6.09,31.89 5.77,30.73 5.50,30.01 4.62,29.51 L 4.61,29.52 C 4.34,29.28 4.15,28.93 3.80,28.68 l 0.01,-0.01 C 3.80,28.40 3.58,28.31 3.40,28.18 l -0.00,0.00 C 2.45,26.77 1.58,25.13 2.03,23.56 l 0.23,0 c 0.69,0.50 0.37,1.87 1.33,2.15 0.11,0.30 0.27,0.57 0.34,0.84 a 0.18,0.18 0 0 0 -0.04,0.07 c -0.14,0.04 -0.28,0.09 -0.41,0.12 a 0.10,0.10 0 1 0 0.04,0.20 c 0.15,-0.03 0.30,-0.08 0.44,-0.13 a 0.18,0.18 0 0 0 0.03,0.02 c 0.00,0.00 0.01,0.00 0.02,0.00 a 0.18,0.18 0 0 0 0.10,0.01 c 0.04,0.02 0.07,0.05 0.13,0.05 0.04,0.03 0.09,0.06 0.12,0.09 a 0.14,0.14 0 0 0 0.01,0.00 c 0.26,0.28 0.68,0.44 0.70,0.94 -0.07,0.06 -0.17,0.12 -0.26,0.18 -0.11,0.07 -0.24,0.16 -0.32,0.31 a 0.10,0.10 0 1 0 0.18,0.10 c 0.05,-0.09 0.13,-0.16 0.25,-0.23 0.11,-0.07 0.24,-0.14 0.35,-0.25 a 0.10,0.10 0 0 0 0.01,-0.02 C 5.95,27.85 7.12,28.09 7.39,27.75 7.09,27.57 6.52,27.62 6.00,27.62 5.68,27.24 5.59,26.66 5.11,26.43 l -0.00,0.00 C 5.00,26.24 4.92,26.02 4.78,25.80 c -0.14,-0.89 -0.03,-2.00 -0.07,-2.99 0.09,-0.08 0.13,-0.20 0.14,-0.30 l 0.01,0.00 c 0.24,-0.24 0.40,-0.56 0.48,-0.95 0.13,-0.23 0.25,-0.46 0.48,-0.59 0.26,-0.02 0.42,0.03 0.57,0.10 0.09,0.22 0.09,0.46 0.05,0.72 -0.03,0.25 -0.10,0.52 -0.14,0.79 -0.13,0.13 -0.36,0.18 -0.47,0.33 0.49,0.02 0.08,0.41 0.39,0.55 0.06,0.45 -0.00,0.92 0.01,1.41 -0.02,0.08 -0.11,0.11 -0.15,0.18 -0.03,-0.00 -0.07,-0.00 -0.11,-0.00 -0.07,-0.00 -0.16,0.00 -0.24,0.04 a 0.04,0.04 0 1 0 0.04,0.08 c 0.08,-0.04 0.20,-0.02 0.33,-0.02 0.78,0.40 1.06,1.25 1.51,1.94 l 0.73,0 -0.00,-0.00 c 0.47,-0.00 0.90,0.19 1.31,0.42 l -0.01,0.00 c 0.17,0.16 0.39,0.55 0.73,0.34 0.09,-0.19 -0.23,-0.43 -0.53,-0.53 a 0.12,0.12 0 0 0 -0.01,-0.00 C 9.40,27.10 8.91,26.87 8.34,26.88 7.46,26.51 7.50,25.22 7.39,24.40 l -0.02,0.00 c -0.05,-0.32 0.05,-0.64 0.25,-0.94 0.19,-0.30 0.47,-0.58 0.71,-0.82 a 0.13,0.13 0 0 0 -0.09,-0.22 0.13,0.13 0 0 0 -0.09,0.04 c -0.23,0.23 -0.52,0.53 -0.74,0.86 -0.20,0.31 -0.34,0.67 -0.30,1.06 -0.17,0.28 0.01,1.01 -0.60,0.57 a 0.12,0.12 0 0 0 0,-0.04 c -0.02,-0.46 0.06,-0.97 -0.01,-1.50 l 0.01,0.00 c 0.04,-0.24 0.12,-0.45 0.08,-0.76 l -0.02,0.00 c 0.02,-0.26 0.10,-0.53 0.14,-0.82 0.04,-0.28 0.04,-0.57 -0.07,-0.86 l 0.03,0 C 6.80,20.75 6.14,20.62 5.76,20.62 z m 15.43,1.60 0.17,0 0,0.15 c -0.03,0.04 -0.08,0.07 -0.14,0.09 -0.05,0.01 -0.11,0.01 -0.17,0.01 -0.00,-0.09 0.01,-0.18 0.05,-0.23 0.02,-0.00 0.05,-0.01 0.08,-0.02 z m 8.87,0.91 0,0.20 c 0.23,0.19 0.50,0.29 0.65,0.56 0.28,0.53 -0.06,1.21 0.24,1.67 1.01,-0.83 0.42,-2.43 -0.89,-2.44 z m -1.45,1.27 a 0.13,0.13 0 0 0 -0.08,0.03 c -0.71,0.61 -1.68,0.91 -2.67,1.23 -0.98,0.31 -1.99,0.63 -2.77,1.31 l -0.00,-0.00 c -0.29,0.13 -0.44,0.38 -0.32,0.70 0.31,-0.05 0.44,-0.26 0.53,-0.51 0.71,-0.61 1.67,-0.92 2.65,-1.23 0.98,-0.31 1.99,-0.62 2.76,-1.28 a 0.13,0.13 0 0 0 -0.09,-0.23 z m -5.75,0.81 c 0.06,-0.00 0.13,7.32e-4 0.21,0.01 -0.01,0.60 -0.50,0.80 -0.72,1.24 l -0.13,0 a 0.12,0.12 0 0 0 -0.01,0 0.12,0.12 0 0 0 -0.09,0.05 c -0.06,0.01 -0.13,0.01 -0.20,0 -0.12,-0.22 -0.02,-0.64 -0.05,-0.94 0.35,-0.10 0.54,-0.35 1.00,-0.36 z M 35.11,25.37 c 0.03,0.28 -0.26,0.28 -0.16,0.62 -0.07,0.50 -0.35,0.92 -0.76,1.28 -0.42,0.36 -0.97,0.65 -1.52,0.86 a 0.14,0.14 0 1 0 0.10,0.26 c 0.57,-0.21 1.15,-0.51 1.61,-0.91 0.43,-0.38 0.76,-0.86 0.85,-1.43 0.22,-0.09 0.21,-0.38 0.20,-0.68 l -0.32,0 z m -23.16,0.21 c -0.10,0.46 0.45,0.35 0.48,0.70 0.18,0.58 -0.45,0.44 -0.65,0.69 0.87,0.32 0.64,1.58 1.13,2.24 l 0.01,-0.01 c 0.27,0.26 0.64,0.40 1.00,0.53 0.34,0.12 0.68,0.25 0.95,0.44 l -0.01,0.01 c 0.20,0.34 0.35,0.79 0.56,1.12 0.20,0.31 0.48,0.72 0.89,0.83 0.10,-0.93 -0.52,-1.22 -0.73,-1.89 0.19,-0.22 0.22,-0.59 0.40,-0.83 l 0,-0.02 c 0.10,0.02 0.21,0.06 0.33,0.08 l -0.00,0.00 c 0.04,0.24 0.51,0.15 0.48,-0.06 -0.05,-0.05 -0.40,-0.14 -0.47,-0.02 -0.09,-0.01 -0.19,-0.05 -0.29,-0.08 -0.54,-0.52 -0.54,-1.81 -0.28,-2.62 -0.25,-7.31e-4 -0.52,-0.16 -0.73,0 0.07,0.66 -0.06,1.73 0.24,2.38 0.18,0.39 0.12,0.69 -0.24,0.90 l -0.01,-4e-6 C 14.71,29.78 14.35,29.65 14.01,29.53 13.69,29.41 13.39,29.29 13.17,29.11 c 0.21,-1.21 -0.94,-2.07 -0.13,-2.84 0.45,-0.10 0.91,0.06 1.21,0.36 a 0.09,0.09 0 1 0 0.13,-0.13 c -0.26,-0.26 -0.63,-0.44 -1.04,-0.44 -0.11,-0.00 -0.22,0.01 -0.34,0.03 -0.33,-0.17 -0.55,-0.45 -1.05,-0.48 z m 4.34,0.65 c -0.12,0 -0.25,0.10 -0.20,0.32 0.15,0.13 0.14,-0.04 0.40,0 0.04,-0.21 -0.07,-0.32 -0.20,-0.32 z m 22.50,1.95 c -0.49,-0.00 -1.06,0.18 -1.40,0.35 -0.42,0.13 -0.82,0.28 -1.22,0.44 a 0.13,0.13 0 1 0 0.09,0.24 c 0.40,-0.15 0.79,-0.30 1.20,-0.43 0.11,-0.00 0.26,-0.02 0.26,0.06 -2.83,1.18 -5.23,2.96 -7.45,4.91 a 0.12,0.12 0 1 0 0.16,0.18 c 2.21,-1.94 4.61,-3.71 7.43,-4.89 l 0,0.00 c 0.00,-0.00 0.01,-0.01 0.02,-0.01 0.00,-0.00 0.01,-0.00 0.02,-0.01 a 0.12,0.12 0 0 0 0.05,-0.03 c 0.44,-0.24 1.16,-0.25 1.44,-0.64 -0.16,-0.13 -0.38,-0.18 -0.62,-0.18 z m -15.63,0.18 c -0.30,0.88 -0.17,2.28 0.88,2.73 a 0.15,0.15 0 0 0 0.05,0.06 c 1.12,0.71 2.27,0.54 3.27,0.03 1.00,-0.51 1.88,-1.35 2.58,-1.98 a 0.15,0.15 0 0 0 -0.11,-0.26 0.15,0.15 0 0 0 -0.09,0.04 c -0.70,0.64 -1.57,1.46 -2.52,1.94 -0.94,0.48 -1.93,0.63 -2.97,-0.02 a 0.15,0.15 0 0 0 -0.05,-0.02 c -0.59,-0.51 -0.55,-1.57 -0.81,-2.38 -0.11,-0.01 -0.13,-0.11 -0.24,-0.13 z m 20.81,0.27 c -0.33,0.76 -1.78,0.56 -2.27,1.19 0.29,0.61 1.26,0.31 2.11,0.35 0.19,0.11 0.19,0.38 0.56,0.34 0.34,-0.55 -0.25,-1.23 -0.16,-1.81 -0.11,0.00 -0.17,-0.03 -0.24,-0.07 z M 6.35,28.79 a 0.12,0.12 0 0 0 -0.05,0.22 c 0.04,0.03 0.08,0.05 0.11,0.07 l -0.00,0.00 c 0.38,0.30 0.67,0.68 0.89,1.12 l 0.37,0 c 0.29,0.12 0.56,0.34 0.93,0.43 0.25,0.37 0.65,0.60 0.96,0.96 0.29,0.34 0.46,0.86 0.97,1.04 0.02,-0.97 -0.89,-1.66 -1.73,-2.15 a 0.11,0.11 0 0 0 -0.09,-0.07 C 8.41,30.37 8.14,30.15 7.79,30.00 l 0.00,-0.00 C 7.55,29.52 7.18,29.14 6.63,28.93 a 0.12,0.12 0 0 0 -0.04,-0.03 c -0.05,-0.02 -0.09,-0.04 -0.14,-0.08 a 0.12,0.12 0 0 0 -0.07,-0.02 0.12,0.12 0 0 0 -0.01,0 z m 3.98,0.26 c -0.15,4.88e-4 -0.32,0.05 -0.43,0.17 l 0.00,0.00 c -0.07,0.02 -0.16,0.02 -0.26,0.03 -0.12,0.01 -0.27,0.02 -0.40,0.10 a 0.11,0.11 0 1 0 0.11,0.19 c 0.08,-0.04 0.18,-0.06 0.31,-0.07 0.10,-0.01 0.22,-0.01 0.33,-0.05 l 0.71,0 c 0.11,-0.23 -0.11,-0.38 -0.37,-0.38 z m 22.97,1.36 c -0.06,0.42 0.37,0.04 0,0 z m 3.48,0.48 a 0.14,0.14 0 0 0 -0.02,0.00 c -1.20,0.29 -2.32,0.80 -3.39,1.30 a 0.14,0.14 0 1 0 0.12,0.26 c 1.06,-0.50 2.17,-0.99 3.34,-1.28 a 0.14,0.14 0 0 0 -0.03,-0.28 0.14,0.14 0 0 0 -0.01,0 z m -6.07,1.42 c 0.04,-0.00 0.08,0.01 0.12,0.07 -0.55,0.60 -1.24,1.17 -1.76,1.86 -0.58,0.45 -1.79,0.36 -1.78,1.32 -0.18,0.05 -0.39,0.08 -0.66,0.07 -0.02,-0.00 -0.05,-0.01 -0.07,-0.02 -0.03,-0.10 -0.27,-0.03 -0.32,-0.12 -0.05,-0.54 -0.10,-0.94 0.24,-1.26 0.46,-0.15 0.66,0.15 1.25,0.07 0.03,0.01 0.06,0.03 0.09,0.05 a 0.12,0.12 0 1 0 0.14,-0.19 c -0.04,-0.03 -0.08,-0.05 -0.12,-0.07 l 0.00,-0.00 c -0.01,-0.22 -0.36,-0.15 -0.48,-0.27 -0.03,-0.28 0.50,-0.07 0.73,-0.13 0.15,-0.25 0.52,-0.31 0.81,-0.42 0.14,-0.05 0.16,-0.19 0.32,-0.27 0.18,-0.09 0.55,-0.14 0.81,-0.27 0.33,-0.16 0.53,-0.38 0.66,-0.40 z m -18.63,0.96 c 0.09,0.43 0.23,0.81 0.56,1.04 0.00,0.00 0.00,0.00 0.00,0.01 l 0,0.34 c 0.14,-0.00 0.25,0.01 0.32,0.07 0.11,-0.09 0.15,-0.48 -0.07,-0.49 -0.00,-0.00 -0.00,-0.01 -0.00,-0.01 -0.11,-0.45 -0.27,-0.87 -0.80,-0.96 z m 4.47,0.84 0.62,0 a 0.14,0.14 0 0 0 0.05,0.01 c 0.23,0.02 0.43,0.11 0.65,0.22 0.15,0.16 0.27,0.34 0.64,0.32 0.04,0.02 0.08,0.04 0.13,0.06 0.19,0.74 1.45,0.45 2.17,0.31 a 0.12,0.12 0 0 0 0.09,0.00 c 0.05,-0.01 0.10,-0.03 0.15,-0.04 1.43,-0.02 2.68,-0.60 3.99,-0.62 0.23,-0.00 0.64,-0.03 0.73,0.21 -0.37,0.21 -1.10,0.12 -1.42,0.38 -0.05,0.01 -0.11,0.02 -0.18,0.03 -0.73,0.04 -1.34,0.20 -1.72,0.55 -0.05,0.37 0.58,0.14 0.65,0.42 -0.37,0.05 -0.59,0.24 -1.06,0.21 -0.05,-0.01 -0.10,-0.03 -0.15,-0.04 a 0.12,0.12 0 0 0 -0.05,-0.00 0.12,0.12 0 0 0 -0.02,0.25 c 0.05,0.01 0.10,0.03 0.16,0.04 a 0.12,0.12 0 0 0 0.09,-0.00 c 0.94,0.17 1.64,-0.33 2.17,-0.67 0.00,-0.18 -0.03,-0.41 0.05,-0.53 0.04,-0.00 0.09,-0.01 0.14,-0.02 0.45,0.03 0.74,-0.33 1.10,-0.14 0.15,0.14 0.07,0.42 -0.05,0.53 -0.10,0.05 -0.19,0.10 -0.27,0.16 -0.06,0.01 -0.15,0.00 -0.15,0.07 -0.07,0.04 -0.16,0.10 -0.26,0.15 a 0.12,0.12 0 0 0 -0.03,0.03 c -0.93,0.33 -1.93,0.96 -3.02,1.06 -0.47,0.04 -0.89,-0.15 -1.38,-0.07 -0.16,-0.13 -0.32,-0.27 -0.57,-0.32 a 0.14,0.14 0 0 0 -0.02,-0.01 C 19.17,36.26 18.70,35.59 18.00,35.13 a 0.14,0.14 0 0 0 -0.03,-0.01 c -0.28,-0.25 -0.43,-0.61 -0.98,-0.63 -0.19,0.27 0.23,0.20 0.16,0.55 -0.45,0.23 -1.82,0.21 -2.27,0 0.11,-0.41 0.76,-0.37 1.13,-0.55 0.13,-0.16 0.45,-0.17 0.56,-0.35 z m -4.59,3.04 c -0.06,0.00 -0.12,0.02 -0.19,0.09 -1.35,0.50 -2.74,0.94 -4.21,1.11 a 0.12,0.12 0 1 0 0.03,0.25 c 1.50,-0.17 2.93,-0.62 4.30,-1.14 0.18,0.01 -0.08,0.20 -0.21,0.34 -0.44,0.46 -0.94,1.06 -1.05,1.68 0.35,0.17 0.72,-0.14 1.05,-0.21 0.22,-0.69 0.54,-1.30 0.89,-1.89 -0.20,-0.00 -0.40,-0.25 -0.60,-0.24 z m -8.33,1.29 c -0.17,0.55 0.04,1.35 0.24,1.82 l 0.40,0 C 4.75,39.99 4.08,39.15 4.62,38.96 4.09,38.97 4.16,38.47 3.65,38.47 z" />
</svg>
