<?xml version="1.0" encoding="UTF-8" standalone="no"?>
<!-- Created with Inkscape (http://www.inkscape.org/) -->
<svg xmlns:dc="http://purl.org/dc/elements/1.1/" xmlns:cc="http://creativecommons.org/ns#" xmlns:rdf="http://www.w3.org/1999/02/22-rdf-syntax-ns#" xmlns:svg="http://www.w3.org/2000/svg" xmlns="http://www.w3.org/2000/svg" version="1.1" width="100%" height="100%" viewBox="0 0 48 48" id="svg4238">
<defs id="defs4242" />
<path d="m 14.52,41.62 c -0.09,-0.05 -0.49,-0.10 -0.89,-0.11 -0.60,-0.01 -0.75,-0.05 -0.99,-0.24 -0.45,-0.36 -0.45,-0.57 -10e-4,-1.10 0.06,-0.07 0.23,-0.21 0.37,-0.30 0.17,-0.11 0.25,-0.24 0.25,-0.41 0.00,-0.42 0.20,-0.58 0.84,-0.67 0.92,-0.13 1.65,-0.11 1.65,0.04 0,0.25 0.18,0.24 0.60,-0.04 0.53,-0.36 0.69,-0.68 0.69,-1.36 0,-0.51 -0.24,-1.41 -0.43,-1.60 -0.05,-0.05 -0.33,-0.15 -0.62,-0.23 -0.29,-0.07 -0.60,-0.22 -0.68,-0.32 -0.08,-0.10 -0.37,-0.26 -0.65,-0.35 -0.59,-0.20 -0.68,-0.42 -0.15,-0.40 0.22,0.00 0.48,0.10 0.74,0.28 0.21,0.15 0.54,0.34 0.73,0.43 0.52,0.24 1.16,0.84 1.23,1.16 0.03,0.15 0.09,0.55 0.12,0.90 0.06,0.60 0.07,0.61 0.18,0.34 0.11,-0.26 0.09,-0.83 -0.04,-1.31 -0.03,-0.12 -0.01,-0.20 0.04,-0.20 0.12,0 0.30,0.32 0.37,0.68 0.03,0.14 0.11,0.28 0.18,0.31 0.10,0.03 0.11,-0.03 0.06,-0.35 -0.08,-0.53 -0.73,-1.46 -1.21,-1.72 -0.20,-0.11 -0.46,-0.28 -0.58,-0.37 -0.24,-0.18 -0.87,-0.39 -1.16,-0.39 -0.27,-0.00 -0.62,-0.27 -0.52,-0.40 0.04,-0.05 0.10,-0.38 0.13,-0.71 0.04,-0.58 0.26,-1.19 0.43,-1.19 0.04,0 0.05,0.08 0.03,0.18 -0.02,0.10 -0.09,0.18 -0.14,0.18 -0.05,0 -0.07,0.10 -0.04,0.23 0.02,0.12 0.01,0.24 -0.01,0.26 -0.03,0.01 -0.04,0.26 -0.02,0.53 l 0.03,0.50 0.54,0.12 c 0.30,0.06 0.54,0.15 0.54,0.20 0,0.04 0.03,0.08 0.08,0.08 0.16,0 1.26,0.79 1.64,1.18 0.44,0.45 0.67,1.10 0.67,1.91 0,0.40 -0.04,0.56 -0.19,0.71 -0.23,0.23 -0.43,0.11 -0.27,-0.17 0.16,-0.31 0.12,-0.49 -0.10,-0.46 -0.14,0.02 -0.21,0.10 -0.23,0.26 -0.04,0.34 -0.73,1.19 -1.02,1.26 -0.13,0.03 -0.39,0.13 -0.58,0.23 -0.28,0.14 -0.37,0.15 -0.55,0.06 -0.11,-0.06 -0.25,-0.17 -0.31,-0.24 -0.10,-0.13 -0.43,-0.12 -1.24,0.05 -0.22,0.05 -0.45,0.09 -0.49,0.09 -0.04,0.00 -0.04,0.13 -0.01,0.28 0.07,0.33 -0.11,0.58 -0.57,0.78 -0.16,0.06 -0.30,0.18 -0.30,0.26 0,0.22 0.10,0.42 0.22,0.42 0.06,0 0.18,0.08 0.28,0.18 0.13,0.14 0.23,0.17 0.51,0.12 0.40,-0.06 1.19,0.19 1.19,0.39 0,0.15 -0.07,0.15 -0.31,0.01 z m 15.03,-0.44 c -0.67,-0.25 -0.99,-0.54 -1.08,-0.96 -0.04,-0.21 -0.14,-0.41 -0.25,-0.47 -0.10,-0.05 -0.30,-0.18 -0.46,-0.29 -0.26,-0.18 -0.37,-0.19 -2.11,-0.17 -1.99,0.02 -2.04,0.01 -3.34,-0.53 -0.75,-0.31 -1.70,-0.88 -1.70,-1.01 0,-0.03 -0.09,-0.28 -0.21,-0.55 -0.53,-1.18 -0.52,-1.16 -0.14,-2.15 0.52,-1.35 0.58,-1.48 0.76,-1.68 0.10,-0.11 0.16,-0.23 0.13,-0.25 -0.02,-0.02 -0.53,-0.07 -1.13,-0.10 -0.59,-0.03 -1.10,-0.09 -1.12,-0.13 -0.06,-0.10 -0.22,-0.10 -0.22,0.00 0,0.13 0.82,0.40 1.07,0.35 0.26,-0.04 0.40,0.09 0.21,0.21 -0.30,0.19 -1.23,0.03 -1.58,-0.26 -0.08,-0.07 -0.16,-0.24 -0.16,-0.38 -0.00,-0.44 -0.33,-0.98 -0.86,-1.42 -0.59,-0.48 -0.84,-0.59 -1.03,-0.43 -0.10,0.08 -0.14,0.07 -0.19,-0.04 -0.04,-0.11 -0.15,-0.15 -0.39,-0.14 -0.47,0.02 -0.53,0.00 -0.38,-0.09 0.22,-0.13 1.04,-0.21 1.30,-0.11 0.12,0.04 0.53,0.31 0.90,0.58 0.47,0.35 0.70,0.59 0.80,0.84 0.15,0.38 0.32,0.46 0.32,0.15 0,-0.49 -0.58,-1.24 -1.01,-1.30 -0.13,-0.01 -0.23,-0.09 -0.23,-0.16 0,-0.10 0.08,-0.13 0.32,-0.10 0.64,0.06 1.11,0.55 1.29,1.34 0.18,0.82 0.39,1.06 0.65,0.74 0.09,-0.11 0.09,-0.18 -0.00,-0.36 -0.14,-0.26 -0.07,-1.07 0.13,-1.48 0.28,-0.57 0.28,-0.75 -0.02,-0.91 -0.34,-0.17 -1.12,-1.06 -1.12,-1.27 0,-0.25 0.17,-0.28 0.23,-0.04 0.03,0.12 0.17,0.31 0.32,0.41 l 0.26,0.19 0.02,-0.53 c 0.02,-0.41 0.06,-0.53 0.18,-0.56 0.09,-0.01 0.16,0.02 0.16,0.11 0,0.07 0.08,0.18 0.18,0.24 0.10,0.05 0.18,0.19 0.18,0.32 0,0.12 0.04,0.22 0.09,0.22 0.05,0 0.09,-0.11 0.09,-0.26 0,-0.14 0.02,-0.38 0.05,-0.53 0.05,-0.25 -0.00,-0.32 -0.72,-0.93 -0.66,-0.56 -0.84,-0.78 -1.22,-1.49 C 18.24,25.26 17.78,24.58 17.46,24.20 16.80,23.41 16.39,23.19 15.11,22.93 13.85,22.67 13.60,22.58 12.99,22.19 12.67,21.98 12.19,21.76 11.93,21.70 11.60,21.62 11.36,21.49 11.11,21.25 10.92,21.06 10.59,20.81 10.38,20.70 9.95,20.48 8.92,19.68 8.29,19.06 8.07,18.85 7.87,18.67 7.85,18.67 c -0.07,0 -0.60,0.99 -0.60,1.14 0,0.08 -0.04,0.15 -0.09,0.15 -0.05,0 -0.09,0.06 -0.09,0.13 0,0.07 -0.03,0.13 -0.08,0.13 -0.04,0 -0.11,0.12 -0.14,0.28 -0.03,0.15 -0.14,0.35 -0.23,0.44 -0.22,0.20 -1.82,3.10 -2.24,4.05 -0.17,0.40 -0.43,0.89 -0.56,1.08 -0.13,0.19 -0.24,0.41 -0.24,0.48 0,0.06 -0.03,0.12 -0.07,0.12 -0.04,0 -0.12,0.14 -0.19,0.32 -0.11,0.32 -0.26,0.58 -0.97,1.76 -0.31,0.51 -0.43,0.64 -0.61,0.64 -0.18,0 -0.22,-0.04 -0.21,-0.23 0.01,-0.34 0.23,-0.84 0.48,-1.13 0.24,-0.28 0.78,-1.63 0.93,-2.34 0.05,-0.25 0.11,-1.40 0.12,-2.54 0.02,-1.40 0.07,-2.18 0.15,-2.40 0.06,-0.17 0.21,-0.56 0.32,-0.86 0.36,-0.97 1.05,-1.67 2.22,-2.25 0.34,-0.17 0.37,-0.20 0.39,-0.64 0.03,-0.57 0.32,-1.17 0.90,-1.88 0.37,-0.45 0.50,-0.55 0.73,-0.55 0.23,-5.92e-4 0.32,-0.07 0.57,-0.50 L 8.63,13.59 8.35,13.06 C 7.99,12.37 7.99,11.85 8.32,11.01 8.75,9.94 9.54,9.06 10.78,8.27 c 0.28,-0.18 0.55,-0.33 0.59,-0.33 0.03,0 0.20,-0.10 0.36,-0.23 0.16,-0.12 0.35,-0.23 0.40,-0.23 0.05,0 0.39,-0.18 0.74,-0.41 0.35,-0.22 0.74,-0.45 0.87,-0.50 0.12,-0.04 0.23,-0.15 0.23,-0.22 0,-0.07 0.10,-0.24 0.22,-0.38 0.12,-0.13 0.20,-0.28 0.18,-0.32 -0.02,-0.04 0.07,-0.16 0.22,-0.26 0.36,-0.25 0.68,-0.95 0.74,-1.58 0.04,-0.44 0.07,-0.51 0.25,-0.53 0.43,-0.06 0.44,0.85 0.01,1.61 -0.72,1.29 -1.06,1.86 -1.18,2.00 -0.07,0.08 -0.18,0.23 -0.23,0.33 -0.05,0.09 -0.20,0.33 -0.34,0.53 -0.13,0.19 -0.46,0.77 -0.72,1.28 -0.71,1.35 -0.78,1.47 -0.84,1.52 -0.02,0.02 -0.70,1.22 -1.51,2.66 -1.25,2.24 -1.45,2.66 -1.42,2.95 0.02,0.27 0.07,0.35 0.26,0.40 0.12,0.03 0.46,0.17 0.75,0.30 0.28,0.13 0.61,0.24 0.71,0.24 0.10,0 0.20,0.03 0.23,0.08 0.02,0.04 0.17,0.10 0.33,0.13 0.38,0.07 1.21,0.62 1.48,0.97 0.62,0.81 0.75,0.93 1.01,0.93 0.14,0 0.49,0.08 0.77,0.19 0.39,0.15 0.61,0.18 0.94,0.13 l 0.43,-0.06 -0.28,-0.24 c -0.17,-0.15 -0.29,-0.35 -0.31,-0.52 -0.03,-0.34 -0.26,-0.40 -0.53,-0.14 -0.20,0.20 -0.37,0.17 -0.37,-0.04 0,-0.07 0.06,-0.13 0.13,-0.13 0.07,0 0.13,-0.06 0.13,-0.13 0,-0.07 -0.06,-0.13 -0.13,-0.13 -0.16,0 -0.52,-0.37 -0.45,-0.47 0.02,-0.04 0.01,-0.12 -0.02,-0.19 -0.08,-0.14 -0.09,-0.45 -0.00,-0.60 0.06,-0.10 -0.26,-0.35 -0.90,-0.67 -0.40,-0.20 -0.26,-0.40 0.15,-0.22 0.13,0.05 0.16,0.01 0.16,-0.29 0,-0.39 0.12,-0.58 0.38,-0.58 0.20,0 0.22,-0.17 0.02,-0.24 -0.20,-0.07 -0.16,-0.34 0.09,-0.58 0.19,-0.18 0.20,-0.23 0.09,-0.31 -0.17,-0.13 -0.35,-0.61 -0.22,-0.61 0.05,0 0.06,-0.04 0.03,-0.09 -0.03,-0.05 0.02,-0.21 0.13,-0.36 0.10,-0.14 0.19,-0.35 0.19,-0.47 0,-0.11 0.16,-0.36 0.40,-0.59 0.24,-0.24 0.42,-0.50 0.46,-0.70 0.07,-0.39 0.30,-0.64 0.58,-0.64 0.39,0 0.92,-0.21 1.01,-0.41 0.12,-0.27 0.85,-0.25 1.03,0.02 0.12,0.19 0.13,0.19 0.37,0.02 0.36,-0.25 0.71,-0.28 1.48,-0.14 0.37,0.07 0.82,0.10 0.99,0.07 0.16,-0.03 0.41,-0.03 0.53,-6.32e-4 0.24,0.06 0.69,0.59 0.73,0.86 0.01,0.09 0.15,0.24 0.30,0.33 l 0.28,0.16 0.31,-0.32 c 0.36,-0.37 0.43,-0.40 0.43,-0.13 0,0.11 -0.07,0.21 -0.18,0.24 -0.24,0.06 -0.23,0.30 0.00,0.30 0.25,0 0.29,0.15 0.17,0.69 -0.14,0.66 -0.15,1.15 -0.02,1.15 0.05,-3e-6 0.12,0.06 0.15,0.13 0.07,0.20 0.22,0.16 0.26,-0.06 0.01,-0.11 0.08,-0.21 0.14,-0.23 0.17,-0.05 0.14,0.38 -0.07,0.84 -0.10,0.22 -0.18,0.43 -0.17,0.48 0.01,0.04 -0.01,0.15 -0.05,0.24 -0.03,0.09 -0.04,0.18 -0.02,0.21 0.02,0.02 -0.02,0.17 -0.11,0.33 -0.20,0.33 -0.10,0.77 0.21,0.86 0.11,0.03 0.30,0.13 0.43,0.22 0.12,0.08 0.43,0.23 0.69,0.32 0.50,0.18 0.69,0.30 0.69,0.42 0,0.04 -0.08,0.08 -0.18,0.08 -0.10,0 -0.18,0.06 -0.18,0.14 0,0.11 0.05,0.13 0.25,0.08 0.14,-0.03 0.43,-0.08 0.65,-0.11 0.21,-0.03 0.41,-0.09 0.44,-0.13 0.02,-0.04 0.15,-0.08 0.28,-0.08 0.31,0 0.96,-0.18 1.13,-0.33 0.07,-0.06 0.31,-0.18 0.53,-0.27 0.21,-0.08 0.39,-0.18 0.39,-0.22 0,-0.09 0.55,-0.65 1.37,-1.39 0.40,-0.36 0.76,-0.78 0.91,-1.06 0.13,-0.25 0.30,-0.53 0.38,-0.62 0.12,-0.14 0.12,-0.21 0.02,-0.49 -0.08,-0.22 -0.09,-0.49 -0.04,-0.85 0.09,-0.68 0.11,-0.92 0.12,-1.28 0.00,-0.25 0.04,-0.30 0.23,-0.30 0.22,0 0.64,0.37 0.64,0.57 0,0.05 0.05,0.11 0.11,0.13 0.06,0.02 0.11,-0.03 0.11,-0.12 0,-0.08 0.09,-0.25 0.21,-0.36 0.12,-0.11 0.23,-0.26 0.26,-0.33 0.02,-0.07 0.07,-0.10 0.11,-0.07 0.11,0.10 -0.35,0.95 -0.58,1.06 l -0.22,0.11 0.24,0.09 c 0.36,0.14 0.40,0.28 0.08,0.34 -0.16,0.03 -0.28,0.11 -0.28,0.19 0,0.11 -0.02,0.11 -0.14,0.01 -0.11,-0.09 -0.13,-0.23 -0.10,-0.57 0.04,-0.45 -0.10,-0.76 -0.32,-0.69 -0.13,0.04 -0.19,1.79 -0.06,1.87 0.15,0.09 0.10,0.40 -0.12,0.76 -0.12,0.18 -0.27,0.50 -0.34,0.69 -0.14,0.41 -0.52,0.79 -1.18,1.20 -0.43,0.26 -0.52,0.37 -0.76,0.94 -0.33,0.78 -0.39,0.85 -0.57,0.69 -0.11,-0.09 -0.19,-0.09 -0.44,0.00 -0.39,0.16 -0.89,0.55 -0.95,0.75 -0.06,0.20 -0.50,0.22 -0.50,0.02 0,-0.07 -0.05,-0.16 -0.13,-0.19 -0.18,-0.07 -1.66,0.39 -1.81,0.56 -0.06,0.07 -0.16,0.13 -0.22,0.13 -0.15,0 -0.38,0.27 -0.46,0.54 -0.03,0.12 -0.13,0.37 -0.21,0.55 -0.07,0.18 -0.15,0.36 -0.16,0.40 -0.00,0.03 -0.02,0.10 -0.03,0.13 -0.01,0.03 -0.01,0.16 -0.00,0.28 0.00,0.11 -0.02,0.26 -0.07,0.32 -0.05,0.06 -0.09,0.13 -0.08,0.15 0.00,0.02 -0.05,0.19 -0.13,0.37 -0.07,0.18 -0.16,0.42 -0.20,0.53 -0.03,0.11 -0.09,0.20 -0.14,0.20 -0.13,0 -0.16,-0.31 -0.04,-0.46 0.13,-0.17 0.48,-1.40 0.43,-1.55 -0.06,-0.19 -0.16,-0.11 -0.29,0.23 -0.06,0.19 -0.19,0.43 -0.28,0.53 -0.08,0.10 -0.16,0.26 -0.17,0.37 -0.01,0.17 -0.38,1.67 -0.53,2.15 -0.03,0.12 -0.02,0.20 0.03,0.20 0.05,0 0.17,-0.23 0.26,-0.53 0.19,-0.63 0.30,-0.82 0.41,-0.65 0.03,0.06 -0.03,0.38 -0.16,0.72 -0.12,0.33 -0.35,1.02 -0.50,1.53 -0.14,0.50 -0.32,1.07 -0.40,1.26 -0.23,0.59 -0.51,1.86 -0.56,2.48 -0.02,0.33 -0.01,0.51 0.01,0.41 0.17,-0.67 0.45,-1.41 0.57,-1.55 0.26,-0.30 0.30,-0.01 0.07,0.52 -0.12,0.29 -0.27,0.86 -0.32,1.28 -0.13,1.05 0.01,1.75 0.26,1.21 0.11,-0.25 0.34,-0.32 0.25,-0.06 -0.11,0.29 -0.25,1.05 -0.20,1.10 0.09,0.09 0.42,-0.07 0.47,-0.23 0.07,-0.23 0.51,-0.63 0.51,-0.46 -6.92e-4,0.07 -0.03,0.19 -0.08,0.26 -0.13,0.21 -0.02,0.27 0.27,0.16 0.17,-0.06 0.27,-0.17 0.27,-0.27 0,-0.12 0.05,-0.16 0.20,-0.14 0.15,0.02 0.21,0.09 0.23,0.33 0.01,0.16 0.07,0.30 0.13,0.30 0.26,4.93e-4 1.79,-0.29 1.93,-0.37 0.20,-0.11 0.56,-0.11 0.49,-0.00 -0.02,0.04 -0.18,0.11 -0.35,0.14 -0.16,0.03 -0.54,0.13 -0.85,0.23 -0.30,0.09 -0.76,0.19 -1.01,0.22 -0.74,0.09 -0.97,0.15 -0.97,0.25 0,0.11 1.10,0.05 1.30,-0.07 0.06,-0.04 0.31,-0.08 0.54,-0.09 0.47,-0.02 1.20,-0.22 1.62,-0.44 0.33,-0.18 0.42,-0.18 0.36,-0.02 -0.02,0.06 -0.28,0.21 -0.57,0.33 -0.29,0.11 -0.57,0.26 -0.62,0.32 -0.10,0.13 -0.44,0.19 -1.83,0.32 -1.38,0.13 -1.57,0.27 -0.36,0.27 0.51,0.00 1.04,0.04 1.15,0.08 0.11,0.04 0.46,0.15 0.76,0.24 0.57,0.16 0.94,0.35 1.57,0.77 0.75,0.50 1.44,0.76 2.20,0.81 0.89,0.05 1.72,-0.11 1.72,-0.35 0,-0.11 0.10,-0.17 0.42,-0.22 0.37,-0.05 0.51,-0.15 1.14,-0.77 0.39,-0.39 0.82,-0.87 0.95,-1.08 0.27,-0.43 0.78,-0.93 0.86,-0.85 0.03,0.03 -0.10,0.27 -0.29,0.54 -0.61,0.83 -0.82,1.08 -1.42,1.60 -0.30,0.26 -0.30,0.27 -0.10,0.30 0.11,0.01 0.34,-0.05 0.52,-0.16 0.37,-0.23 0.60,-0.26 0.42,-0.05 -0.06,0.07 -0.15,0.13 -0.20,0.13 -0.04,0 -0.20,0.08 -0.34,0.19 -0.14,0.10 -0.39,0.20 -0.54,0.20 -0.15,0.00 -0.33,0.06 -0.39,0.12 -0.06,0.06 -0.14,0.11 -0.18,0.11 -0.04,0 -0.25,0.07 -0.46,0.17 -0.21,0.09 -0.51,0.22 -0.67,0.28 l -0.27,0.11 0.42,0.38 c 0.23,0.21 0.62,0.49 0.85,0.61 0.35,0.19 0.45,0.20 0.61,0.11 0.12,-0.08 0.25,-0.08 0.42,-0.02 0.13,0.05 0.41,0.09 0.63,0.09 0.27,0 0.48,0.07 0.70,0.23 0.41,0.30 0.60,0.29 1.18,-0.09 0.40,-0.27 0.50,-0.39 0.59,-0.74 0.06,-0.22 0.14,-0.41 0.18,-0.41 0.15,0 0.06,0.45 -0.16,0.87 -0.13,0.23 -0.22,0.44 -0.20,0.46 0.10,0.10 0.40,-0.28 0.53,-0.70 0.18,-0.55 0.42,-0.74 0.35,-0.27 -0.02,0.18 0.00,0.30 0.07,0.33 0.17,0.06 0.04,0.33 -0.16,0.33 -0.09,0 -0.17,0.04 -0.17,0.09 0,0.05 0.10,0.09 0.23,0.09 0.19,0 0.22,0.03 0.18,0.17 -0.07,0.23 0.10,0.33 0.30,0.17 0.19,-0.16 0.48,-0.11 0.48,0.08 0,0.08 -0.05,0.12 -0.12,0.09 -0.12,-0.04 -0.33,0.09 -0.33,0.23 0,0.04 0.12,0.07 0.27,0.07 0.18,0 0.27,0.04 0.27,0.14 0,0.07 0.06,0.16 0.13,0.19 0.20,0.07 0.17,0.31 -0.04,0.31 -0.29,0 -0.31,0.18 -0.06,0.44 0.12,0.13 0.34,0.46 0.47,0.73 0.26,0.53 0.53,0.76 0.86,0.76 0.17,0 0.20,-0.03 0.15,-0.16 -0.03,-0.08 -0.08,-0.23 -0.11,-0.32 -0.02,-0.08 -0.08,-0.16 -0.12,-0.16 -0.13,0 -0.09,-0.37 0.04,-0.42 0.06,-0.02 0.29,0.04 0.50,0.14 0.53,0.27 0.80,0.07 0.36,-0.28 -0.11,-0.09 -0.17,-0.20 -0.13,-0.23 0.03,-0.03 0.15,0.00 0.25,0.09 0.18,0.16 0.18,0.16 0.18,-0.06 0,-0.12 -0.06,-0.28 -0.13,-0.35 -0.12,-0.10 -0.12,-0.12 0.00,-0.22 0.10,-0.07 0.13,-0.23 0.11,-0.60 -0.02,-0.45 -0.05,-0.52 -0.35,-0.72 -0.17,-0.11 -0.40,-0.34 -0.49,-0.49 -0.10,-0.17 -0.37,-0.36 -0.67,-0.49 -0.50,-0.22 -0.68,-0.44 -0.51,-0.61 0.06,-0.06 0.14,-0.02 0.25,0.14 0.08,0.13 0.24,0.24 0.35,0.24 0.10,4.94e-4 0.44,0.20 0.73,0.46 0.29,0.25 0.57,0.46 0.60,0.46 0.03,0 0.15,0.16 0.27,0.35 0.22,0.39 0.26,0.92 0.08,1.10 -0.09,0.09 -0.08,0.14 0.05,0.24 0.19,0.14 0.15,0.61 -0.11,1.15 -0.14,0.29 -0.19,0.32 -0.55,0.31 -0.29,-0.00 -0.38,0.02 -0.34,0.11 0.02,0.07 0.01,0.19 -0.03,0.28 -0.04,0.08 -0.10,0.23 -0.13,0.32 -0.07,0.24 -0.35,0.19 -0.85,-0.13 -0.33,-0.22 -0.46,-0.38 -0.52,-0.62 -0.04,-0.17 -0.22,-0.47 -0.40,-0.65 -0.17,-0.18 -0.42,-0.54 -0.54,-0.81 l -0.21,-0.47 -0.65,0 c -0.35,0 -0.80,-0.06 -0.99,-0.13 -0.40,-0.15 -1.62,-0.41 -1.96,-0.42 -0.30,-0.00 -1.15,-0.27 -1.62,-0.52 -0.20,-0.10 -0.63,-0.42 -0.95,-0.70 l -0.58,-0.50 -0.71,0 c -0.68,0 -0.72,0.01 -1.03,0.31 -0.17,0.17 -0.54,0.44 -0.81,0.60 -0.51,0.29 -0.66,0.48 -0.49,0.65 0.07,0.07 0.19,0.04 0.43,-0.09 0.45,-0.26 1.03,-0.26 1.37,0.01 0.25,0.20 0.71,1.26 0.71,1.64 0,0.09 0.26,0.46 0.59,0.80 0.59,0.62 0.61,0.68 0.76,1.64 0.01,0.10 0.06,0.40 0.10,0.67 0.07,0.46 0.06,0.49 -0.12,0.57 -0.11,0.04 -0.23,0.12 -0.26,0.17 -0.09,0.14 -0.87,0.10 -1.35,-0.08 z m 1.53,-0.28 c 0.03,-0.05 -0.01,-0.28 -0.09,-0.50 -0.10,-0.26 -0.13,-0.53 -0.10,-0.75 0.06,-0.38 -0.06,-0.58 -0.78,-1.29 -0.26,-0.26 -0.46,-0.56 -0.54,-0.80 -0.06,-0.21 -0.16,-0.55 -0.21,-0.75 -0.05,-0.20 -0.22,-0.50 -0.37,-0.67 -0.21,-0.24 -0.33,-0.30 -0.62,-0.30 -0.38,0 -0.43,0.07 -0.23,0.39 0.07,0.11 0.15,0.29 0.19,0.41 0.08,0.28 -0.16,0.27 -0.34,-0.00 -0.09,-0.14 -0.30,-0.25 -0.64,-0.33 -0.48,-0.11 -0.51,-0.10 -0.98,0.13 -0.26,0.14 -0.55,0.35 -0.63,0.47 -0.17,0.27 -0.36,0.28 -0.42,0.02 -0.02,-0.11 -0.09,-0.16 -0.15,-0.13 -0.12,0.07 -0.55,-0.01 -0.55,-0.11 0,-0.09 0.44,-0.26 0.86,-0.34 0.50,-0.08 1.24,-0.50 1.47,-0.83 0.10,-0.15 0.24,-0.33 0.31,-0.40 0.06,-0.06 0.11,-0.17 0.11,-0.23 -0.00,-0.19 -0.45,-1.08 -0.55,-1.08 -0.05,0 -0.09,-0.06 -0.09,-0.13 0,-0.07 0.06,-0.13 0.13,-0.13 0.22,0 0.48,0.32 0.66,0.82 0.09,0.25 0.20,0.46 0.24,0.46 0.13,0 0.57,-0.25 0.73,-0.43 0.18,-0.20 0.13,-0.30 -0.25,-0.49 -0.15,-0.07 -0.41,-0.25 -0.57,-0.39 -0.36,-0.31 -1.07,-0.64 -1.98,-0.92 -0.56,-0.17 -0.86,-0.21 -1.82,-0.20 l -1.13,0.01 -0.52,0.35 c -0.82,0.56 -1.00,0.80 -1.40,1.88 -0.06,0.17 -0.19,0.49 -0.29,0.70 -0.21,0.47 -0.21,0.61 0.01,1.05 0.10,0.19 0.18,0.42 0.18,0.51 0,0.28 0.27,0.66 0.65,0.92 0.31,0.21 0.42,0.24 0.56,0.15 0.09,-0.05 0.56,-0.10 1.08,-0.10 0.87,0 0.92,0.01 1.06,0.23 0.14,0.22 0.14,0.23 -0.05,0.32 -0.17,0.07 -0.14,0.08 0.13,0.04 0.42,-0.06 0.47,0.10 0.06,0.24 -0.15,0.05 -0.25,0.13 -0.22,0.18 0.05,0.09 0.62,0.04 1.50,-0.12 0.42,-0.08 0.51,-0.07 0.58,0.05 0.17,0.31 1.04,0.14 1.50,-0.28 0.27,-0.26 0.36,-0.29 0.47,-0.20 0.11,0.09 0.11,0.13 -0.00,0.26 -0.27,0.29 -0.17,0.52 0.31,0.75 0.40,0.18 0.45,0.25 0.46,0.49 0.00,0.33 0.21,0.68 0.31,0.51 0.03,-0.05 0.18,-0.10 0.33,-0.10 0.21,0 0.29,0.06 0.42,0.32 0.08,0.17 0.21,0.32 0.28,0.32 0.09,0 0.10,-0.04 0.03,-0.17 -0.06,-0.12 -0.05,-0.22 0.03,-0.34 0.12,-0.16 0.13,-0.16 0.23,0.09 0.18,0.47 0.45,0.66 0.60,0.41 z m -7.46,-2.62 c 0.08,-0.10 0.07,-0.12 -0.08,-0.08 -0.23,0.06 -0.34,0.21 -0.15,0.21 0.07,0 0.18,-0.05 0.24,-0.13 z m -1.71,-6.01 c 0.30,-0.18 0.60,-0.33 0.67,-0.33 0.19,0 0.14,-0.25 -0.08,-0.41 -0.28,-0.20 -0.41,-0.18 -0.48,0.08 -0.06,0.24 -0.22,0.29 -0.39,0.13 -0.07,-0.07 -0.13,-0.05 -0.22,0.07 -0.06,0.09 -0.22,0.22 -0.33,0.28 -0.31,0.16 -0.33,-0.01 -0.07,-0.86 0.21,-0.68 0.21,-0.74 0.07,-0.85 -0.45,-0.33 -0.90,-0.01 -1.13,0.82 -0.14,0.54 -0.05,0.95 0.25,1.17 0.52,0.37 0.95,0.34 1.72,-0.11 z m -0.31,-1.03 c 0,-0.06 0.10,-0.20 0.23,-0.30 0.13,-0.10 0.22,-0.27 0.22,-0.40 l -0.00,-0.21 -0.08,0.21 c -0.04,0.11 -0.16,0.23 -0.26,0.26 -0.09,0.02 -0.22,0.14 -0.27,0.27 -0.14,0.30 -0.13,0.40 0.03,0.34 0.07,-0.02 0.13,-0.10 0.13,-0.17 z M 21.56,29.39 c -0.02,-0.07 -0.05,-0.05 -0.05,0.05 -0.00,0.09 0.01,0.15 0.04,0.12 0.03,-0.03 0.03,-0.11 0.00,-0.17 z m -0.31,-0.97 c 0.02,-0.39 0.14,-1.03 0.25,-1.41 0.10,-0.38 0.21,-0.97 0.23,-1.31 0.01,-0.34 0.07,-0.75 0.12,-0.92 0.05,-0.16 0.24,-0.90 0.42,-1.63 0.18,-0.73 0.41,-1.53 0.51,-1.78 0.19,-0.48 0.23,-0.82 0.10,-0.82 -0.18,0 -0.57,0.75 -0.83,1.62 -0.15,0.50 -0.38,1.21 -0.50,1.57 -0.28,0.81 -0.71,2.59 -0.70,2.96 0.00,0.24 0.02,0.22 0.15,-0.16 0.22,-0.66 0.33,-0.41 0.22,0.48 -0.05,0.44 -0.15,0.82 -0.23,0.91 -0.13,0.15 -0.14,0.42 -0.00,1.10 0.08,0.39 0.19,0.11 0.24,-0.60 z M 20.46,26.26 c 0.08,-0.74 0.61,-2.58 0.95,-3.27 0.17,-0.36 0.17,-0.37 -0.00,-0.54 -0.10,-0.09 -0.18,-0.20 -0.18,-0.23 0.00,-0.17 0.17,-0.29 0.36,-0.27 0.18,0.02 0.23,-0.03 0.33,-0.41 0.10,-0.41 0.10,-0.43 -0.06,-0.43 -0.09,0 -0.25,-0.07 -0.35,-0.17 -0.14,-0.14 -0.35,-0.18 -1.18,-0.22 -1.12,-0.05 -1.20,-0.07 -1.78,-0.46 -0.34,-0.23 -0.52,-0.28 -1.01,-0.30 -1.01,-0.04 -1.43,-0.02 -1.52,0.06 -0.15,0.15 -0.59,0.09 -1.04,-0.13 -0.24,-0.12 -0.68,-0.27 -0.99,-0.33 -0.75,-0.16 -0.87,-0.23 -0.87,-0.53 0,-0.13 -0.05,-0.33 -0.12,-0.43 -0.25,-0.36 -1.15,-0.89 -1.81,-1.06 -0.35,-0.09 -0.82,-0.25 -1.02,-0.36 -0.20,-0.10 -0.50,-0.19 -0.67,-0.19 -0.16,-6.92e-4 -0.36,-0.04 -0.43,-0.08 -0.10,-0.06 -0.20,0.02 -0.43,0.44 -0.37,0.66 -0.38,0.93 -0.04,1.16 0.14,0.09 0.30,0.29 0.36,0.43 0.05,0.14 0.21,0.31 0.36,0.37 0.50,0.21 0.95,0.56 0.95,0.72 0,0.09 0.14,0.22 0.34,0.32 0.19,0.09 0.52,0.34 0.73,0.56 0.32,0.33 0.43,0.39 0.64,0.34 0.20,-0.04 0.44,0.05 1.13,0.46 0.87,0.51 1.43,0.72 2.25,0.83 0.36,0.05 0.43,0.03 0.43,-0.08 0,-0.08 0.08,-0.14 0.19,-0.14 0.38,0 1.57,1.04 1.80,1.57 0.19,0.45 0.38,0.64 0.91,0.89 l 0.46,0.21 0.15,-0.20 c 0.13,-0.17 0.17,-0.18 0.30,-0.07 0.08,0.06 0.13,0.17 0.11,0.22 -0.01,0.05 0.11,0.14 0.29,0.19 0.18,0.05 0.33,0.15 0.33,0.23 0,0.19 -0.38,0.22 -0.65,0.05 -0.23,-0.15 -0.97,-0.20 -0.97,-0.06 0,0.19 0.54,0.64 0.86,0.70 0.19,0.03 0.33,0.11 0.33,0.19 0,0.07 -0.04,0.12 -0.09,0.12 -0.05,0 -0.07,0.03 -0.05,0.07 0.02,0.03 0.18,0.07 0.35,0.06 0.25,-0.00 0.31,-0.03 0.33,-0.23 z M 3.72,25.70 c 0,-0.09 0.06,-0.22 0.13,-0.30 0.07,-0.07 0.13,-0.16 0.13,-0.20 0,-0.09 1.22,-2.30 1.30,-2.35 0.11,-0.07 1.45,-2.54 1.71,-3.17 0.13,-0.31 0.27,-0.60 0.32,-0.65 0.04,-0.04 0.08,-0.15 0.08,-0.24 0,-0.08 0.05,-0.17 0.11,-0.20 0.18,-0.06 0.01,-0.17 -0.36,-0.22 -0.28,-0.03 -0.39,-0.00 -0.53,0.14 -0.09,0.10 -0.23,0.19 -0.29,0.19 -0.06,0 -0.32,0.06 -0.56,0.14 -0.80,0.26 -1.52,1.17 -1.73,2.16 -0.03,0.17 -0.10,0.80 -0.15,1.38 -0.14,1.79 -0.32,3.18 -0.43,3.39 -0.17,0.31 -0.13,0.45 0.07,0.26 0.10,-0.09 0.18,-0.24 0.18,-0.33 z m 0.03,-4.72 c 0.16,-0.84 0.21,-0.97 0.58,-1.43 0.45,-0.55 1.02,-0.95 1.78,-1.24 0.28,-0.10 0.55,-0.25 0.60,-0.31 0.05,-0.06 0.18,-0.16 0.30,-0.22 0.24,-0.12 0.29,-0.52 0.06,-0.43 -0.08,0.03 -0.20,0.05 -0.28,0.05 -0.09,0 -0.11,0.05 -0.08,0.17 0.04,0.13 -5.92e-4,0.18 -0.21,0.23 -0.47,0.10 -1.44,0.67 -1.93,1.13 -0.48,0.45 -0.96,1.28 -0.99,1.69 -0.00,0.12 -0.04,0.47 -0.08,0.76 -0.12,0.89 0.07,0.59 0.26,-0.40 z m 16.40,-0.81 c 0.20,-0.04 0.45,-0.04 0.55,-0.00 0.09,0.03 0.32,0.00 0.49,-0.06 0.17,-0.07 0.45,-0.12 0.61,-0.12 0.48,0 0.76,-0.15 0.95,-0.52 0.09,-0.19 0.31,-0.47 0.47,-0.62 0.36,-0.34 0.74,-1.06 0.74,-1.41 0,-0.40 -0.17,-0.85 -0.49,-1.26 -0.15,-0.20 -0.29,-0.45 -0.30,-0.55 -0.00,-0.10 -0.04,-0.26 -0.08,-0.36 -0.04,-0.09 -0.03,-0.24 0.01,-0.32 0.04,-0.08 0.07,-0.28 0.05,-0.44 -0.02,-0.22 -0.09,-0.32 -0.29,-0.41 -0.27,-0.12 -0.40,-0.30 -0.31,-0.44 0.05,-0.08 0.59,0.16 0.71,0.32 0.03,0.04 0.09,0.05 0.13,0.01 0.09,-0.09 -0.33,-0.42 -0.54,-0.42 -0.18,-0.00 -0.66,-0.70 -0.57,-0.83 0.03,-0.05 0.16,-0.03 0.33,0.05 0.15,0.07 0.28,0.13 0.30,0.11 0.24,-0.37 0.31,-0.52 0.26,-0.57 -0.10,-0.10 -0.19,-0.05 -0.25,0.12 -0.07,0.24 -0.29,0.23 -0.37,-0.02 -0.06,-0.22 -0.48,-0.61 -0.66,-0.62 -0.06,-0.00 -0.11,-0.04 -0.11,-0.09 0,-0.05 -0.08,-0.09 -0.19,-0.09 -0.13,0 -0.17,-0.04 -0.14,-0.13 0.05,-0.15 -0.04,-0.18 -0.84,-0.27 -0.44,-0.05 -0.48,-0.03 -0.48,0.13 0,0.15 0.04,0.17 0.25,0.13 0.17,-0.03 0.29,-0.00 0.38,0.09 0.07,0.08 0.26,0.14 0.48,0.14 0.42,0 0.90,0.29 0.90,0.56 0,0.19 -0.22,0.24 -0.32,0.08 -0.04,-0.06 -0.10,-0.05 -0.21,0.02 -0.15,0.13 -0.41,0.25 -0.90,0.43 -0.33,0.12 -0.93,0.04 -1.16,-0.16 -0.14,-0.12 -0.20,-0.11 -0.63,0.05 -0.26,0.10 -0.53,0.19 -0.60,0.19 -0.06,0 -0.12,0.06 -0.12,0.13 0,0.17 -0.38,0.18 -0.77,0.00 -0.16,-0.07 -0.35,-0.15 -0.44,-0.17 -0.08,-0.02 -0.17,-0.19 -0.20,-0.36 -0.08,-0.42 -0.25,-0.65 -0.45,-0.57 -0.23,0.09 -0.20,0.56 0.07,0.89 0.18,0.21 0.21,0.31 0.13,0.45 -0.09,0.16 -0.11,0.15 -0.42,-0.16 -0.27,-0.28 -0.34,-0.44 -0.38,-0.85 -0.03,-0.27 -0.10,-0.51 -0.17,-0.54 -0.06,-0.02 -0.24,0.10 -0.40,0.27 l -0.28,0.30 0.24,0.08 c 0.13,0.04 0.24,0.12 0.24,0.17 0,0.05 0.08,0.18 0.19,0.29 0.23,0.24 0.17,0.37 -0.22,0.47 l -0.29,0.07 0.29,0.17 c 0.16,0.09 0.31,0.26 0.34,0.38 0.03,0.15 0.12,0.21 0.28,0.21 0.23,0 0.30,0.12 0.13,0.23 -0.05,0.03 -0.09,0.13 -0.09,0.23 0,0.09 0.04,0.17 0.09,0.17 0.05,0 0.09,0.13 0.09,0.30 0.00,0.58 0.07,0.69 0.51,0.76 0.26,0.03 0.40,0.10 0.40,0.19 0,0.07 -0.04,0.13 -0.09,0.13 -0.17,0 -0.09,0.15 0.13,0.27 0.17,0.09 0.20,0.15 0.12,0.24 -0.05,0.06 -0.18,0.12 -0.27,0.12 -0.18,0 -0.23,0.22 -0.08,0.32 0.05,0.03 0.09,0.13 0.09,0.22 0,0.09 0.08,0.24 0.18,0.33 0.24,0.22 0.24,0.69 0.00,0.75 -0.09,0.02 -0.20,0.10 -0.22,0.17 -0.07,0.19 -0.43,0.15 -0.49,-0.05 -0.07,-0.28 -0.30,-0.22 -0.30,0.08 0,0.30 0.14,0.41 0.93,0.73 0.47,0.19 0.53,0.19 0.77,0.07 0.29,-0.15 0.53,-0.07 0.69,0.23 0.24,0.45 0.81,0.62 1.62,0.46 z m 1.81,-0.96 c -0.05,-0.07 -0.08,-0.15 -0.05,-0.18 0.02,-0.02 -0.20,-0.02 -0.51,-0.00 -0.55,0.05 -0.56,0.04 -0.56,-0.19 0,-0.23 0.07,-0.28 0.34,-0.25 0.13,0.01 0.66,-0.34 0.83,-0.56 0.37,-0.49 0.63,-0.58 0.53,-0.18 -0.03,0.14 -0.11,0.52 -0.17,0.84 -0.11,0.60 -0.23,0.75 -0.42,0.53 z m -2.78,-1.47 c 0.00,-0.06 0.17,-0.25 0.38,-0.42 0.44,-0.35 0.61,-0.29 0.47,0.18 -0.07,0.27 -0.12,0.30 -0.47,0.33 -0.27,0.02 -0.38,-0.00 -0.38,-0.09 z m 2.03,0.01 c 0,-0.05 0.06,-0.09 0.13,-0.09 0.07,0 0.13,0.04 0.13,0.09 0,0.05 -0.06,0.09 -0.13,0.09 -0.07,0 -0.13,-0.04 -0.13,-0.09 z m 0.46,-0.17 c 0,-0.16 0.11,-0.37 0.19,-0.37 0.04,0 0.08,0.10 0.08,0.23 0,0.14 -0.05,0.23 -0.13,0.23 -0.07,0 -0.13,-0.03 -0.13,-0.08 z m -3.05,-0.91 c 0,-0.04 0.10,-0.17 0.23,-0.29 0.29,-0.28 1.08,-0.32 1.13,-0.06 0.02,0.13 -0.03,0.16 -0.32,0.16 -0.19,0 -0.44,0.06 -0.53,0.13 -0.19,0.14 -0.50,0.18 -0.50,0.06 z M 22.29,16.36 C 22.25,16.30 22.13,16.26 22.01,16.26 c -0.46,0 -0.32,-0.27 0.29,-0.59 0.32,-0.16 0.46,-0.07 0.31,0.20 -0.05,0.09 -0.06,0.26 -0.03,0.37 0.03,0.14 0.01,0.20 -0.09,0.20 -0.07,0 -0.16,-0.04 -0.20,-0.09 z m -1.15,-0.19 c -0.00,-0.29 0.43,-1.28 0.63,-1.44 0.18,-0.14 0.46,-0.15 0.46,-0.01 0,0.05 -0.18,0.30 -0.41,0.55 -0.22,0.24 -0.41,0.52 -0.41,0.61 0,0.09 -0.06,0.25 -0.13,0.35 -0.13,0.17 -0.13,0.17 -0.13,-0.06 z m -4.46,-0.78 c -0.08,-0.08 0.12,-0.50 0.25,-0.50 0.06,0 0.22,-0.10 0.36,-0.23 0.42,-0.39 0.54,-0.24 0.29,0.37 -0.10,0.24 -0.18,0.32 -0.36,0.32 -0.12,0 -0.28,0.02 -0.35,0.04 -0.07,0.02 -0.15,0.02 -0.18,-0.00 z m 0.18,-1.37 c -0.22,-0.27 -0.23,-0.31 -0.10,-0.42 0.12,-0.10 0.18,-0.08 0.37,0.13 0.22,0.25 0.25,0.52 0.07,0.57 -0.05,0.01 -0.20,-0.11 -0.34,-0.28 z m 3.31,-0.67 c -0.23,-0.21 -0.24,-0.25 -0.11,-0.28 0.21,-0.04 0.61,0.22 0.61,0.40 0,0.21 -0.20,0.16 -0.50,-0.11 z m -3.21,4.62 c -0.14,-0.17 -0.34,-0.13 -0.34,0.06 0,0.21 0.18,0.29 0.33,0.15 0.07,-0.06 0.07,-0.13 0.01,-0.21 z M 7.85,17.75 c 0.49,-0.49 1.14,-1.53 1.14,-1.81 0,-0.06 -0.11,-0.25 -0.25,-0.43 -0.14,-0.17 -0.31,-0.41 -0.38,-0.51 -0.09,-0.13 -0.23,-0.18 -0.48,-0.18 -0.19,0.00 -0.37,0.03 -0.39,0.07 -0.02,0.03 0.10,0.18 0.27,0.31 0.35,0.26 0.40,0.53 0.18,0.83 -0.17,0.23 -0.17,0.82 0.00,0.97 0.18,0.15 0.17,0.27 -0.02,0.34 -0.26,0.09 -0.48,0.32 -0.48,0.50 0,0.24 0.12,0.21 0.43,-0.09 z m 7.28,-0.15 c -0.10,-0.15 -0.18,-0.20 -0.24,-0.14 -0.11,0.11 0.07,0.37 0.27,0.37 0.10,0 0.09,-0.04 -0.02,-0.23 z m 9.96,0.05 c 0,-0.09 -0.29,-0.28 -0.45,-0.28 -0.16,0 -0.10,0.13 0.10,0.24 0.27,0.13 0.34,0.14 0.34,0.03 z m -9.41,-0.49 0.05,-0.35 -0.47,0.02 c -0.27,0.01 -0.48,0.07 -0.51,0.14 -0.02,0.06 0.03,0.11 0.13,0.11 0.09,2.96e-4 0.29,0.10 0.44,0.22 0.15,0.12 0.28,0.21 0.28,0.20 0.00,-0.00 0.03,-0.17 0.06,-0.36 z M 7.15,16.93 c 0,-0.09 0.08,-0.24 0.18,-0.33 0.10,-0.09 0.18,-0.22 0.18,-0.29 0,-0.07 0.06,-0.15 0.13,-0.18 0.19,-0.07 0.17,-0.24 -0.04,-0.38 -0.10,-0.06 -0.18,-0.17 -0.18,-0.25 0,-0.07 -0.06,-0.13 -0.13,-0.13 -0.18,0 -0.18,0.49 0.00,0.65 0.13,0.10 0.13,0.12 0.00,0.20 -0.08,0.04 -0.22,0.03 -0.33,-0.02 -0.28,-0.15 -0.33,-0.03 -0.10,0.21 0.11,0.11 0.20,0.24 0.20,0.27 0,0.09 -0.32,0.07 -0.42,-0.03 -0.06,-0.06 -0.12,-0.05 -0.20,0.03 -0.12,0.14 -0.00,0.28 0.31,0.36 0.34,0.08 0.41,0.06 0.41,-0.10 z M 14.80,16.22 c 0.03,-0.09 0.13,-0.11 0.29,-0.08 0.22,0.04 0.26,-0.00 0.51,-0.50 l 0.26,-0.55 -0.20,-0.20 c -0.13,-0.13 -0.18,-0.26 -0.14,-0.38 0.03,-0.09 0.01,-0.18 -0.03,-0.18 -0.04,0 -0.10,-0.08 -0.13,-0.18 -0.06,-0.23 -0.26,-0.23 -0.47,-0.01 -0.14,0.16 -0.14,0.18 0.08,0.33 0.16,0.10 0.22,0.21 0.19,0.33 -0.02,0.09 -0.00,0.20 0.03,0.22 0.15,0.09 0.09,0.59 -0.06,0.59 -0.08,0 -0.12,-0.05 -0.09,-0.12 0.05,-0.15 -0.10,-0.33 -0.30,-0.33 -0.42,0 -0.62,0.53 -0.37,1.01 0.11,0.22 0.35,0.25 0.43,0.05 z m -3.19,-4.87 c 1.21,-2.20 2.18,-4.03 2.16,-4.05 -0.05,-0.05 -0.50,0.25 -0.96,0.68 -0.40,0.36 -0.90,0.74 -1.67,1.25 -0.19,0.12 -0.59,0.50 -0.89,0.83 -0.29,0.32 -0.64,0.71 -0.78,0.85 -0.48,0.51 -0.52,1.54 -0.11,2.60 0.13,0.34 0.12,0.37 -0.15,0.95 -0.24,0.50 -0.27,0.63 -0.18,0.82 0.07,0.17 0.13,0.20 0.25,0.14 0.08,-0.04 1.14,-1.89 2.35,-4.10 z m -2.70,2.95 c 0.10,-0.21 0.17,-0.40 0.16,-0.41 -0.03,-0.03 -0.79,0.68 -0.79,0.75 0,0.02 0.09,0.05 0.22,0.05 0.16,0 0.26,-0.09 0.41,-0.38 z m 6.23,-1.30 c 0.10,-0.17 -0.01,-0.25 -0.27,-0.19 -0.31,0.07 -0.42,0.17 -0.34,0.31 0.07,0.12 0.51,0.04 0.61,-0.11 z m 2.87,-0.36 c 0.02,-0.06 0.22,-0.15 0.44,-0.20 0.27,-0.06 0.44,-0.16 0.50,-0.30 0.04,-0.11 0.24,-0.27 0.43,-0.35 0.44,-0.20 0.48,-0.32 0.21,-0.69 -0.12,-0.16 -0.22,-0.35 -0.22,-0.42 0,-0.16 -0.32,-0.15 -0.80,0.03 -0.41,0.15 -0.67,0.07 -0.67,-0.19 0,-0.14 -0.16,-0.28 -0.43,-0.36 -0.16,-0.04 -0.20,-0.02 -0.20,0.09 0,0.19 0.26,0.49 0.43,0.49 0.07,0 0.29,0.16 0.49,0.37 0.20,0.20 0.46,0.41 0.59,0.46 0.25,0.09 0.30,0.23 0.11,0.30 -0.09,0.03 -1.06,-0.10 -1.16,-0.17 -0.01,-0.01 0.01,-0.10 0.07,-0.21 0.09,-0.17 0.07,-0.19 -0.13,-0.19 -0.12,0 -0.23,-0.04 -0.23,-0.09 0,-0.05 -0.04,-0.09 -0.10,-0.09 -0.05,0 -0.07,0.06 -0.04,0.13 0.03,0.08 -0.02,0.17 -0.15,0.24 -0.42,0.22 -0.40,0.45 0.03,0.45 0.24,0 0.27,0.03 0.27,0.29 0,0.38 0.47,0.74 0.57,0.43 z m 3.04,-0.35 c 0.20,-0.10 0.34,-0.22 0.31,-0.27 -0.06,-0.11 -0.31,-0.01 -0.63,0.24 -0.32,0.26 -0.17,0.27 0.31,0.02 z m -0.61,-0.04 c 0.20,-0.20 0.18,-0.28 -0.08,-0.35 -0.12,-0.03 -0.23,-0.09 -0.23,-0.14 0,-0.04 -0.11,0.01 -0.25,0.14 -0.24,0.22 -0.24,0.23 -0.07,0.36 0.23,0.17 0.46,0.16 0.64,-0.01 z m 2.83,-0.54 c 0,-0.07 -0.04,-0.13 -0.09,-0.13 -0.05,0 -0.09,0.06 -0.09,0.13 0,0.07 0.04,0.13 0.09,0.13 0.05,0 0.09,-0.06 0.09,-0.13 z M 8.72,11.46 c 0,-0.16 0.21,-0.47 0.90,-1.29 0.44,-0.52 0.63,-0.70 1.08,-1.03 0.20,-0.14 0.65,-0.47 1.00,-0.73 0.34,-0.25 0.66,-0.46 0.71,-0.46 0.04,0 0.08,-0.04 0.08,-0.09 0,-0.17 -0.20,-0.09 -0.86,0.34 -1.54,1.01 -2.43,1.84 -2.78,2.58 -0.29,0.61 -0.40,1.01 -0.25,0.92 0.05,-0.03 0.10,-0.14 0.10,-0.23 z m 7.89,0.04 c 0.15,-0.03 0.25,-0.11 0.25,-0.20 0,-0.12 -0.06,-0.13 -0.36,-0.09 -0.20,0.03 -0.38,0.02 -0.41,-0.01 -0.05,-0.08 0.51,-0.38 0.73,-0.38 0.07,0 0.13,-0.04 0.13,-0.09 0,-0.12 -0.24,-0.11 -0.32,9.97e-4 -0.03,0.05 -0.23,0.08 -0.44,0.06 -0.36,-0.02 -0.38,-0.00 -0.41,0.23 -0.03,0.30 0.19,0.61 0.42,0.56 0.08,-0.01 0.27,-0.05 0.41,-0.08 z m 3.40,-0.73 c 0,-0.07 -0.03,-0.15 -0.08,-0.18 -0.11,-0.06 -0.22,0.10 -0.14,0.22 0.08,0.13 0.23,0.11 0.23,-0.04 z m 1.43,-0.23 c 0.03,-0.05 -0.00,-0.09 -0.08,-0.09 -0.07,0 -0.14,0.04 -0.14,0.09 0,0.05 0.03,0.09 0.08,0.09 0.04,0 0.11,-0.04 0.14,-0.09 z m -6.80,30.49 c -0.95,-0.31 -1.23,-0.70 -0.87,-1.21 0.21,-0.30 0.33,-0.25 0.26,0.11 -0.07,0.40 0.11,0.58 0.90,0.83 0.38,0.12 0.58,0.24 0.60,0.34 0.03,0.20 -0.06,0.19 -0.90,-0.08 z m 1.62,-1.40 c -0.02,-0.04 0.06,-0.13 0.20,-0.19 0.44,-0.20 0.51,-0.24 1.06,-0.54 0.33,-0.18 0.53,-0.25 0.52,-0.17 -0.00,0.14 -0.27,0.34 -0.95,0.72 -0.51,0.28 -0.75,0.33 -0.83,0.19 z m -2.05,-0.12 c -0.11,-0.17 0.25,-0.37 0.59,-0.32 0.36,0.05 0.45,0.12 0.32,0.23 -0.15,0.13 -0.85,0.20 -0.92,0.08 z m 24.42,-3.99 c 0.01,-0.21 0.07,-0.38 0.12,-0.37 0.12,0.02 0.16,0.26 0.09,0.54 -0.09,0.37 -0.25,0.25 -0.22,-0.16 z m -24.93,-1.65 c -0.06,-0.12 -0.08,-0.33 -0.03,-0.57 0.03,-0.20 0.07,-0.58 0.08,-0.84 0.04,-0.95 0.13,-1.22 0.50,-1.52 0.33,-0.26 0.83,-0.37 0.83,-0.18 0,0.05 -0.04,0.09 -0.09,0.09 -0.05,0 -0.09,0.08 -0.09,0.19 0,0.29 -0.37,1.10 -0.51,1.10 -0.06,0 -0.16,0.17 -0.22,0.39 -0.05,0.21 -0.13,0.50 -0.18,0.65 -0.05,0.15 -0.05,0.34 0.00,0.49 0.12,0.32 0.11,0.40 -0.04,0.40 -0.07,0 -0.18,-0.08 -0.24,-0.19 z m 24.36,-0.43 c -0.32,-0.62 -0.93,-1.03 -1.74,-1.15 -0.30,-0.04 -0.39,-0.03 -0.39,0.07 0,0.07 0.04,0.16 0.09,0.19 0.11,0.07 0.12,0.50 0.00,0.50 -0.04,0 -0.27,-0.19 -0.50,-0.43 l -0.41,-0.43 -0.42,0.20 c -0.23,0.11 -0.45,0.20 -0.48,0.20 -0.10,0 0.18,-0.28 0.63,-0.61 0.42,-0.31 0.46,-0.32 0.62,-0.18 0.10,0.09 0.33,0.14 0.65,0.14 0.69,0 1.18,0.16 1.68,0.57 0.53,0.44 0.88,1.27 0.52,1.27 -0.04,0 -0.15,-0.16 -0.25,-0.35 z m -9.26,-0.09 C 28.58,33.28 28.19,33.12 27.93,32.97 27.21,32.53 26.20,32.09 25.65,31.97 25.52,31.94 25.38,31.84 25.35,31.76 c -0.14,-0.38 1.78,0.18 2.67,0.78 0.48,0.32 0.60,0.35 0.60,0.14 0,-0.12 0.06,-0.13 0.34,-0.08 0.89,0.15 1.11,0.16 1.71,0.04 0.63,-0.12 0.87,-0.06 0.73,0.16 -0.03,0.06 -0.35,0.22 -0.70,0.34 -0.63,0.22 -1.07,0.26 -1.90,0.14 z m -0.99,-1.46 c -0.75,-0.03 -0.97,-0.13 -0.52,-0.24 0.12,-0.03 0.73,-0.03 1.34,0.00 1.01,0.05 1.17,0.04 1.77,-0.15 0.36,-0.11 0.72,-0.25 0.78,-0.30 0.15,-0.11 0.92,-0.53 1.76,-0.96 0.64,-0.32 0.67,-0.35 0.62,-0.61 -0.02,-0.14 -0.24,-0.49 -0.47,-0.76 -0.35,-0.41 -0.47,-0.49 -0.73,-0.49 -0.29,0 -0.33,-0.03 -0.61,-0.62 -0.37,-0.76 -0.77,-1.10 -1.48,-1.24 -0.28,-0.06 -0.55,-0.08 -0.58,-0.05 -0.03,0.03 -0.09,0.47 -0.13,0.97 -0.05,0.60 -0.17,1.19 -0.35,1.72 -0.49,1.45 -0.87,1.71 -0.44,0.30 0.67,-2.20 0.65,-3.35 -0.07,-4.21 -0.25,-0.29 -0.40,-0.38 -0.60,-0.38 l -0.27,0 0,-1.24 c 0,-0.68 0.03,-1.26 0.08,-1.29 0.17,-0.10 0.28,0.21 0.33,0.97 0.07,1.10 0.08,1.12 0.52,1.43 0.24,0.17 0.49,0.46 0.63,0.73 0.21,0.41 0.28,0.47 0.73,0.61 0.27,0.08 0.62,0.18 0.77,0.21 0.33,0.06 2.79,2.50 2.88,2.85 0.11,0.47 0.33,0.39 1.72,-0.56 0.72,-0.50 1.52,-1.00 1.78,-1.12 0.25,-0.11 0.72,-0.34 1.05,-0.50 0.54,-0.26 0.67,-0.29 1.49,-0.29 0.79,0 0.93,0.02 1.18,0.20 0.15,0.11 0.38,0.20 0.50,0.20 0.30,0 0.72,0.22 0.85,0.47 0.13,0.24 0.06,1.00 -0.10,1.18 -0.15,0.16 -0.18,0.08 -0.25,-0.58 -0.04,-0.49 -0.26,-0.73 -0.70,-0.82 -0.12,-0.02 -0.40,-0.10 -0.60,-0.18 -0.46,-0.18 -1.54,-0.18 -2.03,-0.01 -0.20,0.07 -0.41,0.13 -0.47,0.13 -0.12,0.00 -1.41,0.73 -1.81,1.03 -0.16,0.12 -0.55,0.37 -0.86,0.54 -0.30,0.17 -0.77,0.49 -1.04,0.71 -0.26,0.21 -0.54,0.39 -0.61,0.39 -0.06,0 -0.27,0.12 -0.46,0.27 -0.43,0.34 -1.66,1.02 -1.85,1.02 -0.10,0 -0.13,0.05 -0.08,0.22 0.06,0.25 0.07,0.24 -0.92,0.41 -0.52,0.09 -1.01,0.09 -2.71,0.02 z m 7.66,-0.36 c 4.94e-4,-0.04 0.13,-0.17 0.29,-0.30 0.16,-0.12 0.52,-0.46 0.79,-0.74 0.35,-0.36 0.51,-0.47 0.54,-0.37 0.02,0.08 -0.17,0.33 -0.53,0.66 -0.60,0.54 -1.10,0.88 -1.10,0.75 z m 6.85,-0.34 c -0.11,-0.12 -0.35,-0.24 -0.52,-0.28 -0.47,-0.08 -0.90,-0.74 -0.84,-1.30 0.03,-0.37 0.02,-0.42 -0.19,-0.53 -0.13,-0.06 -0.29,-0.22 -0.35,-0.34 -0.06,-0.12 -0.11,-0.18 -0.11,-0.13 -7.9e-4,0.06 -0.25,0.09 -0.67,0.09 -0.74,-0.00 -0.58,-0.08 -1.82,0.92 -0.28,0.22 -0.52,0.37 -0.54,0.31 -0.01,-0.05 0.16,-0.31 0.41,-0.57 0.55,-0.60 1.41,-1.07 1.95,-1.08 0.54,-0.00 0.49,-0.16 -0.07,-0.24 -0.25,-0.03 -0.48,-0.09 -0.51,-0.14 -0.13,-0.22 1.13,0.04 1.50,0.31 1.31,0.96 1.45,1.13 1.04,1.24 -0.22,0.05 -0.32,0.39 -0.20,0.74 0.06,0.19 0.15,0.26 0.35,0.28 0.26,0.02 0.27,0.01 0.23,-0.34 -0.02,-0.25 0.01,-0.41 0.11,-0.52 0.08,-0.08 0.14,-0.22 0.14,-0.32 0,-0.18 0.07,-0.21 0.31,-0.12 0.18,0.07 0.18,0.25 0.00,0.53 -0.10,0.16 -0.11,0.27 -0.05,0.45 0.11,0.29 0.25,0.38 0.31,0.20 0.02,-0.07 0.13,-0.13 0.23,-0.13 0.27,0 0.31,-0.26 0.09,-0.61 -0.29,-0.48 -0.18,-0.73 0.42,-1.01 0.27,-0.12 0.50,-0.25 0.50,-0.30 0,-0.04 -0.08,-0.15 -0.18,-0.25 -0.11,-0.10 -0.17,-0.26 -0.16,-0.40 0.02,-0.21 0.06,-0.23 0.57,-0.26 0.56,-0.02 1.11,0.12 1.01,0.27 -0.03,0.05 -0.09,0.05 -0.15,-0.01 -0.15,-0.15 -1.08,-0.13 -1.08,0.03 0,0.07 0.08,0.15 0.18,0.19 0.44,0.14 0.05,0.79 -0.55,0.92 -0.30,0.06 -0.35,0.26 -0.11,0.40 0.11,0.06 0.15,0.19 0.14,0.49 -0.01,0.34 -0.06,0.44 -0.36,0.70 -0.38,0.32 -0.29,0.37 0.29,0.17 0.50,-0.17 0.62,-0.42 0.41,-0.84 -0.27,-0.54 0.00,-0.96 0.62,-0.96 0.31,0 0.94,0.22 0.94,0.33 0,0.03 -0.27,0.03 -0.60,-0.00 -0.69,-0.07 -0.80,0.02 -0.60,0.57 0.10,0.27 0.09,0.37 -0.05,0.68 -0.09,0.19 -0.24,0.38 -0.33,0.41 -0.09,0.02 -0.23,0.16 -0.32,0.30 -0.22,0.34 -0.29,0.38 -0.77,0.38 -0.32,0.00 -0.47,-0.04 -0.63,-0.22 z m 0.82,-0.13 c 0,-0.10 -0.28,-0.21 -0.35,-0.14 -0.02,0.02 0.00,0.09 0.08,0.13 0.17,0.10 0.27,0.11 0.27,0.00 z M 27.64,30.40 c 0.03,-0.11 0.45,-0.35 0.51,-0.29 0.06,0.06 -0.17,0.29 -0.36,0.35 -0.11,0.03 -0.17,0.00 -0.15,-0.05 z m -0.58,-0.14 c 0,-0.11 0.37,-0.37 0.53,-0.37 0.06,0 0.09,0.04 0.06,0.09 -0.08,0.14 -0.60,0.38 -0.60,0.28 z m 8.05,0.00 c 0,-0.11 0.17,-0.24 0.23,-0.17 0.02,0.02 -0.02,0.09 -0.09,0.15 -0.08,0.07 -0.14,0.08 -0.14,0.01 z m -4.88,-1.48 c 0.01,-0.66 0.04,-1.21 0.07,-1.21 0.07,-0.00 0.17,0.85 0.17,1.58 5.92e-4,0.42 -0.04,0.64 -0.13,0.72 -0.11,0.09 -0.13,-0.03 -0.11,-1.09 z m 5.48,0.91 c 0.03,-0.05 0.09,-0.09 0.14,-0.09 0.05,0 0.06,0.04 0.03,0.09 -0.03,0.05 -0.09,0.09 -0.14,0.09 -0.05,0 -0.06,-0.04 -0.03,-0.09 z M 24.56,29.51 c -0.13,-0.25 -0.03,-0.44 0.28,-0.50 0.33,-0.06 0.59,0.05 0.66,0.31 0.03,0.14 -0.00,0.21 -0.17,0.28 -0.36,0.13 -0.66,0.10 -0.77,-0.09 z m 11.62,-0.14 c 0.02,-0.07 0.11,-0.14 0.18,-0.14 0.18,0 0.16,0.06 -0.05,0.18 -0.14,0.07 -0.17,0.07 -0.12,-0.04 z m 0.45,-0.32 c 0.03,-0.05 0.12,-0.09 0.21,-0.09 0.13,0.00 0.13,0.01 0.01,0.09 -0.18,0.11 -0.30,0.11 -0.23,0 z m 9.03,-0.75 c -0.05,-0.26 -0.08,-0.49 -0.06,-0.51 0.06,-0.06 0.42,0.45 0.42,0.62 0,0.08 -0.05,0.21 -0.13,0.26 -0.10,0.08 -0.14,0.02 -0.23,-0.37 z m -7.99,0.16 c 0.24,-0.26 0.70,-0.43 0.86,-0.33 0.18,0.11 0.01,0.23 -0.56,0.40 L 37.49,28.67 37.68,28.46 z M 24.09,26.69 c 0,-0.07 0.15,-0.15 0.39,-0.20 0.53,-0.10 0.55,-0.10 0.59,0.00 0.01,0.05 -0.15,0.14 -0.38,0.20 -0.53,0.14 -0.60,0.14 -0.60,-0.01 z M 22.80,26.35 c 0,-0.22 1.67,-0.82 1.98,-0.70 0.23,0.09 0.10,0.21 -0.29,0.27 -0.19,0.03 -0.60,0.16 -0.92,0.28 -0.63,0.25 -0.76,0.28 -0.76,0.13 z m 0.37,-1.84 c 0,-0.11 0.11,-0.16 0.80,-0.31 0.29,-0.06 0.63,-0.15 0.75,-0.19 0.16,-0.05 0.21,-0.03 0.17,0.06 -0.10,0.30 -1.74,0.73 -1.74,0.45 z m 4.53,-3.12 c 0,-0.52 0.08,-0.62 1.01,-1.22 0.63,-0.40 1.29,-0.97 1.29,-1.11 0,-0.04 0.19,-0.14 0.43,-0.23 0.53,-0.18 1.50,-1.06 2.01,-1.83 0.19,-0.29 0.40,-0.53 0.47,-0.53 0.19,0 0.15,0.11 -0.25,0.71 -0.52,0.77 -1.44,1.71 -1.89,1.91 -0.20,0.09 -0.55,0.34 -0.78,0.56 -0.22,0.21 -0.71,0.59 -1.08,0.82 -0.60,0.38 -0.68,0.47 -0.79,0.86 -0.07,0.26 -0.18,0.44 -0.27,0.46 -0.12,0.02 -0.15,-0.05 -0.15,-0.42 z m -1.29,-0.01 c 0,-0.38 0.23,-1.44 0.45,-2.03 0.21,-0.56 0.23,-0.60 0.36,-0.52 0.06,0.03 0.04,0.18 -0.03,0.42 -0.07,0.20 -0.19,0.73 -0.27,1.17 -0.08,0.44 -0.16,0.90 -0.19,1.02 -0.06,0.31 -0.31,0.26 -0.31,-0.06 z m -0.00,-4.53 -0.22,-0.18 0.27,-0.10 c 0.14,-0.05 0.33,-0.07 0.40,-0.05 0.07,0.02 0.17,-2.97e-4 0.21,-0.06 0.09,-0.14 0.09,-0.26 0.00,-0.23 -0.03,0.01 -0.07,-0.01 -0.09,-0.06 -0.01,-0.05 0.05,-0.09 0.13,-0.09 0.12,-7.91e-4 0.16,-0.08 0.16,-0.34 0.00,-0.18 0.07,-0.41 0.15,-0.51 0.09,-0.10 0.13,-0.25 0.10,-0.37 -0.02,-0.11 -0.01,-0.20 0.04,-0.20 0.05,0 0.22,-0.12 0.39,-0.28 0.26,-0.24 0.31,-0.26 0.43,-0.14 0.11,0.11 0.11,0.18 -0.00,0.53 -0.07,0.22 -0.19,0.59 -0.25,0.84 -0.06,0.24 -0.20,0.53 -0.31,0.64 -0.10,0.11 -0.24,0.32 -0.31,0.46 -0.08,0.19 -0.17,0.25 -0.38,0.25 -0.14,0 -0.33,0.02 -0.40,0.05 -0.07,0.02 -0.23,-0.03 -0.35,-0.13 z m -0.82,-0.27 c -0.84,-0.27 -0.92,-0.31 -0.92,-0.48 0,-0.14 0.05,-0.15 0.32,-0.11 0.25,0.04 0.32,0.02 0.32,-0.09 0,-0.09 -0.07,-0.15 -0.19,-0.15 -0.10,0 -0.16,-0.04 -0.13,-0.09 0.03,-0.05 0.13,-0.07 0.22,-0.04 0.10,0.03 0.18,-0.00 0.22,-0.09 0.03,-0.10 -0.00,-0.16 -0.12,-0.19 -0.14,-0.03 -0.16,-0.07 -0.08,-0.17 0.05,-0.06 0.16,-0.09 0.23,-0.07 0.07,0.02 0.19,-8.89e-4 0.27,-0.06 0.11,-0.09 0.17,-0.08 0.32,0.05 0.23,0.20 0.23,0.38 0.00,0.50 -0.14,0.07 -0.16,0.16 -0.12,0.48 0.02,0.21 0.08,0.44 0.13,0.50 0.13,0.17 -0.03,0.19 -0.47,0.04 z m 0.67,-0.44 c -0.03,-0.07 -0.00,-0.30 0.04,-0.49 0.14,-0.46 0.13,-0.65 -0.02,-0.65 -0.07,0 -0.16,-0.08 -0.19,-0.19 -0.04,-0.14 -0.08,-0.16 -0.16,-0.09 -0.13,0.13 -0.55,0.13 -0.50,-0.00 0.06,-0.20 0.51,-0.25 0.83,-0.09 0.20,0.10 0.30,0.11 0.33,0.03 0.06,-0.20 0.37,-0.52 0.43,-0.46 0.03,0.03 -6.91e-4,0.26 -0.07,0.50 -0.07,0.24 -0.19,0.68 -0.26,0.97 -0.11,0.52 -0.31,0.75 -0.41,0.47 z m 6.91,-0.11 c 0,-0.09 0.06,-0.35 0.13,-0.57 0.07,-0.21 0.18,-0.66 0.23,-1.00 0.05,-0.33 0.13,-0.65 0.18,-0.70 0.04,-0.04 0.26,-0.15 0.48,-0.23 0.30,-0.11 0.43,-0.22 0.57,-0.52 0.10,-0.20 0.25,-0.45 0.34,-0.53 0.08,-0.08 0.20,-0.23 0.25,-0.33 0.08,-0.15 0.06,-0.17 -0.18,-0.12 -0.23,0.04 -0.28,0.02 -0.28,-0.12 0,-0.09 0.07,-0.27 0.15,-0.40 l 0.15,-0.22 -0.24,0.16 c -0.60,0.39 -0.72,0.00 -0.19,-0.63 0.20,-0.25 0.31,-0.46 0.27,-0.55 -0.03,-0.08 -0.10,-0.11 -0.16,-0.08 -0.06,0.03 -0.08,0.01 -0.06,-0.06 0.02,-0.07 0.13,-0.17 0.25,-0.23 0.54,-0.27 0.65,0.32 0.14,0.73 -0.31,0.25 -0.41,0.43 -0.23,0.43 0.04,0 0.20,-0.10 0.36,-0.23 0.15,-0.12 0.31,-0.23 0.36,-0.23 0.16,0 0.20,0.29 0.07,0.56 -0.07,0.14 -0.09,0.26 -0.04,0.26 0.20,0 -0.03,0.93 -0.28,1.11 -0.03,0.02 -0.12,0.15 -0.18,0.27 -0.22,0.43 -0.74,0.99 -1.02,1.11 -0.20,0.08 -0.27,0.17 -0.27,0.36 0,0.30 -0.12,0.71 -0.42,1.36 -0.24,0.52 -0.40,0.69 -0.40,0.41 z m -9.35,-0.36 c 0,-0.26 0.21,-0.41 0.50,-0.34 0.18,0.04 0.24,0.02 0.24,-0.08 0,-0.08 -0.06,-0.14 -0.13,-0.14 -0.07,0 -0.14,-0.05 -0.14,-0.11 -0.02,-0.26 0.03,-0.67 0.09,-0.71 0.03,-0.02 0.06,-0.19 0.07,-0.38 0.00,-0.43 0.09,-0.56 0.31,-0.50 0.19,0.05 0.22,-0.03 0.07,-0.18 -0.17,-0.17 0.32,-0.60 0.80,-0.67 0.37,-0.05 0.43,-0.04 0.50,0.13 0.06,0.16 0.07,0.16 0.08,0.02 0.00,-0.13 0.06,-0.15 0.35,-0.12 0.26,0.03 0.46,0.15 0.84,0.52 0.34,0.34 0.46,0.51 0.39,0.58 -0.06,0.06 -0.05,0.14 0.04,0.25 0.16,0.18 0.08,0.48 -0.13,0.43 -0.09,-0.01 -0.15,-0.12 -0.15,-0.30 -0.00,-0.20 -0.10,-0.37 -0.37,-0.62 -0.44,-0.41 -0.54,-0.42 -0.75,-0.09 -0.19,0.31 -0.39,0.48 -0.56,0.48 -0.09,0 -0.08,-0.04 0.03,-0.16 0.15,-0.15 0.15,-0.16 -0.01,-0.19 -0.09,-0.01 -0.23,-0.09 -0.29,-0.18 -0.15,-0.20 -0.26,-0.06 -0.33,0.39 -0.13,0.99 -0.40,1.90 -0.60,2.02 -0.04,0.02 -0.25,0.07 -0.46,0.11 -0.34,0.05 -0.38,0.04 -0.38,-0.12 z m 2.49,-1.37 c -0.08,-0.10 -0.08,-0.17 -0.01,-0.24 0.11,-0.11 0.30,-0.02 0.30,0.15 0,0.19 -0.15,0.24 -0.28,0.08 z m -0.68,-0.03 c -0.06,-0.09 0.20,-0.33 0.28,-0.25 0.07,0.07 -0.03,0.34 -0.14,0.34 -0.04,0 -0.11,-0.03 -0.14,-0.08 z m 0.90,-0.42 c -0.02,-0.07 -0.02,-0.17 0.00,-0.23 0.10,-0.17 0.23,-0.10 0.23,0.13 0,0.25 -0.15,0.31 -0.24,0.09 z m 7.21,-2.78 c -0.04,-0.12 0.04,-0.58 0.21,-1.01 0.02,-0.06 -0.02,-0.13 -0.11,-0.15 -0.15,-0.02 -0.15,-0.03 -1.98e-4,-0.19 0.38,-0.38 0.62,-0.07 0.39,0.51 -0.10,0.25 -0.11,0.41 -0.05,0.47 0.06,0.06 0.09,0.06 0.09,-0.00 0,-0.12 0.37,-0.52 0.43,-0.46 0.05,0.05 -0.72,0.98 -0.83,0.98 -0.03,2.5e-5 -0.09,-0.06 -0.12,-0.14 z" />
</svg>
