<?xml version="1.0" encoding="UTF-8" standalone="no"?>
<!-- Created with Inkscape (http://www.inkscape.org/) -->
<svg xmlns:dc="http://purl.org/dc/elements/1.1/" xmlns:cc="http://creativecommons.org/ns#" xmlns:rdf="http://www.w3.org/1999/02/22-rdf-syntax-ns#" xmlns:svg="http://www.w3.org/2000/svg" xmlns="http://www.w3.org/2000/svg" version="1.1" width="100%" height="100%" viewBox="0 0 48 48" id="svg4385">
<defs id="defs9" />
<path d="m 33.67,46.78 c -0.04,-0.06 -0.09,-0.21 -0.11,-0.35 -0.02,-0.20 -0.05,-0.27 -0.17,-0.40 -0.08,-0.08 -0.19,-0.16 -0.25,-0.17 -0.14,-0.02 -0.19,-0.06 -0.19,-0.13 0,-0.07 0.12,-0.07 0.21,-0.00 0.07,0.06 0.33,0.19 0.59,0.30 0.23,0.09 0.26,0.14 0.29,0.41 0.01,0.19 0.00,0.24 -0.07,0.34 -0.11,0.14 -0.18,0.14 -0.29,0.01 z m -1.48,-0.06 c -0.08,-0.13 0.18,-0.31 0.39,-0.27 0.16,0.03 0.22,0.17 0.10,0.25 -0.08,0.06 -0.47,0.07 -0.50,0.01 z m -8.16,-0.75 c -0.00,-0.00 -0.14,-0.02 -0.30,-0.03 -0.31,-0.02 -0.37,-0.05 -0.33,-0.15 0.03,-0.08 0.44,-0.12 1.13,-0.11 0.53,0.00 0.92,0.08 0.88,0.19 -0.01,0.03 3.1e-5,0.04 0.03,0.03 0.03,-0.01 0.06,-0.00 0.06,0.01 0,0.06 -0.31,0.09 -0.90,0.08 -0.30,-0.00 -0.55,-0.01 -0.55,-0.02 z M 7.37,45.81 c -0.05,-0.05 -0.08,-0.14 -0.08,-0.25 0,-0.18 0.14,-0.56 0.24,-0.61 0.03,-0.01 0.05,-0.05 0.05,-0.07 0,-0.03 0.30,-0.35 0.53,-0.54 0.04,-0.04 0.15,-0.09 0.23,-0.13 0.08,-0.03 0.17,-0.07 0.20,-0.09 0.03,-0.02 0.11,-0.04 0.18,-0.03 0.06,0.00 0.12,-0.01 0.12,-0.03 0,-0.04 0.35,-0.00 0.51,0.05 0.05,0.02 0.13,0.04 0.17,0.05 0.03,0.00 0.13,0.03 0.21,0.05 0.09,0.02 0.15,0.03 0.16,0.00 0.02,-0.06 0.40,-0.29 0.55,-0.32 0.11,-0.02 0.13,-0.04 0.11,-0.10 -0.12,-0.29 -0.13,-0.45 -0.09,-0.91 0.04,-0.44 0.48,-1.07 0.83,-1.19 0.06,-0.02 0.15,-0.09 0.19,-0.16 0.17,-0.29 0.58,-0.59 0.80,-0.59 0.16,7.81e-4 0.42,0.08 0.52,0.16 0.06,0.05 0.09,0.05 0.21,-0.01 0.33,-0.17 1.05,-0.03 1.05,0.21 0,0.11 -0.04,0.12 -0.38,0.06 -0.23,-0.04 -0.50,-0.00 -0.75,0.10 -0.07,0.03 -0.17,0.07 -0.23,0.08 -0.09,0.02 -0.10,0.02 -0.07,-0.10 0.02,-0.10 0.00,-0.14 -0.05,-0.17 -0.13,-0.07 -0.39,-0.04 -0.57,0.04 -0.28,0.15 -0.35,0.30 -0.17,0.37 0.11,0.04 0.14,0.16 0.05,0.17 -0.29,0.03 -0.56,0.14 -0.75,0.31 -0.12,0.11 -0.30,0.42 -0.31,0.58 -0.00,0.05 -0.02,0.12 -0.03,0.16 -0.05,0.12 -0.06,0.47 -0.02,0.65 0.02,0.13 0.02,0.18 -0.01,0.21 -0.04,0.02 -0.01,0.07 0.11,0.17 0.14,0.12 0.16,0.15 0.11,0.23 -0.04,0.08 -0.08,0.09 -0.30,0.08 -0.45,-0.01 -0.67,0.16 -0.67,0.52 0,0.14 -0.01,0.16 -0.10,0.16 -0.12,0 -0.18,-0.07 -0.23,-0.28 l -0.03,-0.16 -0.44,0.00 c -0.40,0.00 -0.53,0.02 -0.72,0.14 -0.03,0.02 -0.13,0.07 -0.22,0.11 -0.17,0.08 -0.41,0.33 -0.41,0.43 0,0.02 -0.02,0.05 -0.04,0.05 -0.02,0 -0.03,0.01 -0.02,0.03 0.01,0.02 0.00,0.05 -0.01,0.06 -0.02,0.01 -0.03,0.05 -0.03,0.10 0.00,0.10 -0.12,0.37 -0.20,0.40 C 7.48,45.88 7.41,45.86 7.37,45.81 z M 25.19,45.33 c -0.18,-0.17 -0.32,-0.37 -0.38,-0.55 -0.02,-0.07 -0.10,-0.19 -0.17,-0.25 -0.13,-0.11 -0.19,-0.33 -0.09,-0.33 0.16,0 0.64,0.41 0.68,0.59 0.01,0.05 0.06,0.14 0.10,0.19 0.04,0.04 0.09,0.12 0.10,0.18 0.01,0.05 0.04,0.09 0.06,0.09 0.04,0 -0.00,0.13 -0.06,0.18 -0.07,0.04 -0.08,0.04 -0.24,-0.10 z m -2.18,-0.33 c -0.11,-0.08 -0.28,-0.40 -0.28,-0.52 0,-0.14 0.46,-0.07 0.65,0.11 0.07,0.07 0.07,0.08 0.00,0.15 -0.05,0.05 -0.06,0.11 -0.04,0.19 0.02,0.08 0.01,0.11 -0.03,0.11 -0.03,0 -0.09,0.01 -0.12,0.02 -0.03,0.01 -0.11,-0.01 -0.17,-0.07 z m 11.62,-0.41 c -0.39,-0.14 -0.41,-0.16 -0.42,-0.47 -0.01,-0.24 -0.13,-0.63 -0.23,-0.74 -0.04,-0.04 -0.10,-0.13 -0.13,-0.19 -0.08,-0.17 -0.42,-0.45 -0.68,-0.57 -0.12,-0.06 -0.28,-0.14 -0.35,-0.18 -0.10,-0.05 -0.22,-0.06 -0.61,-0.06 l -0.49,0.01 -0.10,-0.15 c -0.13,-0.20 -0.48,-0.51 -0.61,-0.54 -0.05,-0.01 -0.20,-0.04 -0.34,-0.07 -0.23,-0.04 -0.24,-0.05 -0.17,-0.13 0.10,-0.12 0.41,-0.10 0.74,0.02 0.34,0.14 0.52,0.28 0.61,0.49 0.07,0.16 0.18,0.22 0.24,0.12 0.01,-0.02 0.17,-0.03 0.37,-0.01 0.31,0.01 0.39,0.04 0.87,0.28 0.37,0.18 0.56,0.30 0.66,0.42 0.15,0.18 0.26,0.21 0.22,0.06 -0.09,-0.31 -0.06,-0.46 0.06,-0.30 0.05,0.06 0.06,0.06 0.08,-0.02 0.01,-0.05 0.04,-0.10 0.07,-0.11 0.07,-0.02 0.21,0.15 0.24,0.29 0.04,0.18 0.10,0.14 0.10,-0.06 0,-0.16 0.01,-0.19 0.08,-0.19 0.10,0 0.18,0.14 0.15,0.25 -0.03,0.09 0.03,0.15 0.09,0.07 0.02,-0.02 0.05,-0.12 0.07,-0.21 0.03,-0.17 0.06,-0.19 0.14,-0.10 0.03,0.03 0.04,0.14 0.02,0.28 -0.05,0.51 -0.05,0.59 0.00,0.63 0.11,0.09 0.02,0.42 -0.12,0.44 -0.08,0.01 -0.10,-0.01 -0.13,-0.20 -0.02,-0.14 -0.11,-0.29 -0.18,-0.29 -0.02,0 -0.06,-0.04 -0.07,-0.10 -0.02,-0.08 -0.05,-0.10 -0.12,-0.09 -0.05,0.00 -0.09,-0.00 -0.09,-0.03 -2.93e-4,-0.02 -0.03,-0.07 -0.07,-0.12 -0.04,-0.04 -0.07,-0.09 -0.07,-0.11 0,-0.02 -0.02,-0.03 -0.04,-0.03 -0.02,0 -0.03,0.02 -0.01,0.05 0.01,0.02 0.02,0.14 0.02,0.25 -0.01,0.19 0.03,0.32 0.15,0.45 0.02,0.03 0.07,0.13 0.10,0.23 0.02,0.09 0.08,0.29 0.12,0.42 0.06,0.21 0.07,0.25 0.01,0.30 -0.06,0.06 -0.08,0.07 -0.20,0.02 z M 16.94,44.31 c -0.21,-0.25 -0.34,-0.55 -0.32,-0.71 0.01,-0.06 0.02,-0.13 0.02,-0.15 0.00,-0.01 0.03,-0.03 0.06,-0.03 0.08,0 0.08,-0.09 -0.02,-0.22 -0.04,-0.05 -0.08,-0.13 -0.08,-0.17 0,-0.10 -0.14,-0.20 -0.29,-0.20 -0.10,0 -0.14,-0.02 -0.16,-0.08 -0.01,-0.04 -0.03,-0.08 -0.06,-0.08 -0.02,0 -0.03,-0.03 -0.03,-0.06 0,-0.03 -0.03,-0.13 -0.06,-0.21 -0.05,-0.10 -0.05,-0.16 -0.02,-0.22 0.06,-0.11 0.07,-0.10 -0.15,-0.26 -0.11,-0.08 -0.22,-0.21 -0.26,-0.30 -0.03,-0.08 -0.11,-0.19 -0.17,-0.23 -0.22,-0.14 -0.63,-0.50 -1.15,-1.00 -0.28,-0.27 -0.57,-0.54 -0.64,-0.59 -0.12,-0.09 -0.93,-0.38 -0.96,-0.35 -0.01,0.01 -0.05,0.00 -0.09,-0.01 -0.04,-0.01 -0.08,-0.03 -0.09,-0.03 -0.01,-0.00 -0.09,-0.03 -0.18,-0.07 -0.21,-0.09 -0.32,-0.23 -0.32,-0.39 0.00,-0.25 -0.00,-0.40 -0.03,-0.40 -0.01,0 -0.07,0.03 -0.11,0.07 -0.19,0.18 -0.30,0.22 -0.69,0.24 -0.31,0.02 -0.38,0.01 -0.40,-0.03 -0.01,-0.04 0.01,-0.08 0.07,-0.11 0.18,-0.08 0.11,-0.13 -0.20,-0.13 -0.46,-0.00 -0.58,-0.02 -0.99,-0.16 -0.78,-0.26 -1.21,-0.51 -1.21,-0.72 0,-0.06 -0.07,-0.13 -0.25,-0.24 -0.14,-0.08 -0.26,-0.15 -0.28,-0.15 -0.01,0 -0.10,-0.06 -0.20,-0.14 -0.10,-0.08 -0.19,-0.14 -0.21,-0.14 -0.01,0 -0.05,-0.02 -0.08,-0.05 -0.03,-0.02 -0.12,-0.11 -0.21,-0.19 -0.15,-0.14 -0.20,-0.30 -0.09,-0.30 0.06,0 0.37,0.16 0.62,0.32 0.18,0.12 0.30,0.13 0.30,0.01 0,-0.04 -0.02,-0.08 -0.05,-0.08 -0.06,0 -0.57,-0.52 -0.69,-0.70 C 7.09,35.85 7.00,35.74 6.93,35.67 6.82,35.55 6.78,35.39 6.84,35.32 c 0.03,-0.03 0.04,-0.05 0.04,-0.21 0.00,-0.16 0.14,-0.13 0.33,0.07 0.38,0.41 0.64,0.67 0.68,0.67 0.02,0 0.12,0.04 0.24,0.10 0.15,0.08 0.25,0.10 0.42,0.09 0.26,-0.01 0.29,-0.09 0.08,-0.19 -0.07,-0.03 -0.28,-0.18 -0.46,-0.32 C 8.02,35.39 7.83,35.25 7.78,35.21 7.73,35.18 7.63,35.06 7.55,34.94 7.39,34.70 7.41,34.57 7.61,34.57 c 0.10,0 0.36,0.15 0.36,0.21 0,0.04 0.43,0.46 0.47,0.46 0.01,0 0.03,-0.02 0.03,-0.06 0,-0.08 0.09,-0.08 0.31,0.02 0.20,0.10 0.29,0.08 0.18,-0.04 -0.20,-0.21 -0.24,-0.27 -0.24,-0.30 0,-0.06 0.10,-0.05 0.21,0.03 0.16,0.11 0.28,0.18 0.35,0.18 0.03,0 0.20,0.04 0.37,0.10 0.43,0.15 0.56,0.14 0.36,-0.02 -0.09,-0.07 -0.09,-0.07 -0.01,-0.14 0.04,-0.03 0.14,-0.07 0.22,-0.09 0.30,-0.05 0.33,-0.09 0.39,-0.42 0.03,-0.23 0.03,-0.33 7.13e-4,-0.44 -0.02,-0.07 -0.03,-0.20 -0.02,-0.29 0.02,-0.13 0.01,-0.16 -0.14,-0.33 -0.09,-0.09 -0.29,-0.34 -0.44,-0.55 -0.14,-0.20 -0.27,-0.37 -0.29,-0.37 -0.01,0 -0.03,-0.02 -0.03,-0.05 0,-0.03 -0.02,-0.08 -0.05,-0.10 -0.04,-0.04 -0.20,-0.34 -0.33,-0.62 -0.02,-0.04 -0.04,-0.16 -0.05,-0.25 -0.06,-0.53 -0.07,-0.66 -0.14,-0.94 -0.03,-0.16 -0.08,-0.33 -0.09,-0.38 -0.15,-0.42 -0.15,-0.39 -0.11,-1.43 0.01,-0.31 0.03,-0.65 0.04,-0.74 0.01,-0.09 0.03,-0.28 0.04,-0.42 0.01,-0.14 0.04,-0.31 0.06,-0.38 0.02,-0.07 0.04,-0.21 0.05,-0.32 0.01,-0.10 0.04,-0.31 0.08,-0.47 0.03,-0.15 0.08,-0.37 0.10,-0.49 0.11,-0.60 0.26,-1.14 0.35,-1.25 0.12,-0.16 0.22,-0.17 0.19,-0.01 -0.01,0.06 -0.04,0.25 -0.07,0.41 -0.02,0.16 -0.06,0.34 -0.08,0.40 -0.04,0.12 -0.04,0.11 -0.16,1.02 -0.11,0.80 -0.12,0.93 -0.14,1.28 -0.01,0.15 -0.03,0.32 -0.04,0.38 -0.06,0.24 -0.01,1.54 0.06,1.64 0.11,0.14 0.35,0.93 0.40,1.35 0.00,0.06 0.04,0.14 0.07,0.18 0.05,0.05 0.07,0.05 0.16,-0.01 l 0.10,-0.08 -0.07,-0.48 c -0.04,-0.26 -0.12,-0.62 -0.18,-0.80 -0.05,-0.17 -0.11,-0.42 -0.12,-0.55 -0.00,-0.12 -0.03,-0.36 -0.05,-0.51 -0.06,-0.43 -0.05,-0.67 0.03,-0.85 0.15,-0.31 0.29,-0.25 0.47,0.19 0.05,0.14 0.12,0.27 0.14,0.30 0.02,0.02 0.08,0.10 0.14,0.17 0.05,0.06 0.14,0.18 0.19,0.25 0.14,0.17 0.36,0.29 0.50,0.26 0.09,-0.02 0.11,-0.05 0.12,-0.20 0.01,-0.17 -0.03,-0.50 -0.09,-0.54 -0.08,-0.07 -0.13,-0.33 -0.15,-0.98 l -0.02,-0.73 0.12,-0.09 c 0.11,-0.09 0.11,-0.11 0.11,-0.39 -0.00,-0.17 0.00,-0.30 0.03,-0.30 0.02,0 0.04,-0.02 0.05,-0.05 0.01,-0.04 0.05,-0.04 0.22,0.00 0.18,0.05 0.21,0.08 0.27,0.22 0.03,0.09 0.08,0.16 0.11,0.15 0.02,-0.00 0.10,0.01 0.17,0.04 0.11,0.05 0.13,0.05 0.17,-0.00 0.05,-0.07 0.19,-0.09 0.19,-0.02 0,0.04 0.14,0.05 0.18,0.01 0.03,-0.03 0.17,-0.05 0.40,-0.05 l 0.18,3.9e-4 0,-0.17 c 0,-0.21 0.06,-0.22 0.44,-0.02 0.15,0.08 0.30,0.14 0.32,0.14 0.01,0 0.05,-0.09 0.08,-0.20 0.06,-0.25 0.14,-0.38 0.26,-0.40 0.05,-0.00 0.13,-0.08 0.20,-0.21 0.06,-0.11 0.12,-0.20 0.15,-0.20 0.05,-0.00 0.19,-0.29 0.16,-0.34 -0.04,-0.07 -0.17,-0.03 -0.36,0.12 -0.41,0.34 -0.44,0.35 -0.56,0.34 -0.13,-0.01 -0.18,-0.13 -0.10,-0.23 0.02,-0.03 0.03,-0.09 0.02,-0.14 -0.01,-0.04 0.01,-0.19 0.05,-0.33 0.10,-0.31 0.14,-0.55 0.09,-0.57 -0.01,-0.01 -0.03,-0.11 -0.02,-0.22 0.00,-0.11 0.01,-0.43 0.01,-0.71 0.00,-0.52 0.06,-1.01 0.11,-1.03 0.01,-0.00 0.02,-0.10 0.02,-0.21 -0.00,-0.24 0.05,-0.65 0.11,-0.70 0.02,-0.02 0.03,-0.06 0.03,-0.09 0,-0.08 0.13,-0.27 0.17,-0.24 0.01,0.01 0.00,0.11 -0.02,0.22 -0.15,0.49 -0.21,1.79 -0.09,2.23 0.05,0.22 0.06,0.72 0.00,0.76 -0.02,0.01 -0.04,0.08 -0.06,0.15 -0.01,0.07 -0.07,0.25 -0.13,0.41 -0.11,0.28 -0.11,0.28 -0.02,0.28 0.04,0 0.17,-0.08 0.27,-0.18 0.23,-0.23 0.31,-0.29 0.49,-0.39 0.08,-0.04 0.15,-0.09 0.16,-0.10 0.01,-0.01 0.08,-0.04 0.17,-0.08 0.08,-0.03 0.18,-0.08 0.21,-0.11 0.03,-0.03 0.09,-0.05 0.13,-0.05 0.03,0 0.10,-0.01 0.14,-0.03 0.30,-0.16 0.54,-0.26 0.60,-0.26 0.09,-1.95e-4 0.34,-0.15 0.34,-0.21 0,-0.06 0.43,-0.59 0.48,-0.59 0.03,0 0.29,-0.23 0.61,-0.54 0.28,-0.27 0.30,-0.31 0.29,-0.44 -0.01,-0.07 -0.03,-0.31 -0.06,-0.52 -0.02,-0.21 -0.05,-0.39 -0.08,-0.41 -0.02,-0.02 -0.09,0.04 -0.18,0.14 -0.07,0.10 -0.19,0.22 -0.25,0.26 -0.05,0.04 -0.19,0.18 -0.29,0.29 -0.83,0.91 -1.79,1.68 -1.79,1.43 0,-0.07 0.14,-0.24 0.32,-0.38 0.34,-0.27 0.76,-0.70 0.88,-0.91 0.20,-0.35 0.55,-0.79 0.63,-0.79 0.02,-3.91e-4 0.07,-0.04 0.11,-0.10 0.04,-0.05 0.20,-0.18 0.35,-0.28 0.25,-0.16 0.27,-0.19 0.28,-0.33 0.01,-0.35 0.03,-0.54 0.05,-0.64 0.05,-0.23 0.07,-0.46 0.02,-0.48 -0.02,-0.01 -0.10,0.00 -0.18,0.04 -0.07,0.04 -0.20,0.08 -0.28,0.10 -0.26,0.05 -0.52,0.13 -0.79,0.21 -0.36,0.11 -0.38,0.11 -0.39,-0.01 -0.01,-0.13 -0.07,-0.14 -0.20,-0.05 -0.04,0.03 -0.25,0.15 -0.46,0.26 -0.21,0.11 -0.50,0.29 -0.65,0.40 -0.14,0.10 -0.42,0.30 -0.60,0.43 -0.47,0.33 -0.55,0.39 -0.62,0.45 -0.12,0.11 -0.44,0.35 -0.48,0.35 -0.02,0 -0.04,0.02 -0.04,0.05 -6.84e-4,0.06 -0.38,0.40 -0.43,0.38 -0.01,-0.00 -0.03,0.00 -0.02,0.02 0.00,0.02 -0.21,0.26 -0.49,0.53 -0.27,0.27 -0.50,0.51 -0.50,0.52 -0.00,0.08 -0.42,0.54 -0.49,0.55 -0.04,0.00 -0.11,0.04 -0.14,0.07 -0.02,0.03 -0.08,0.06 -0.13,0.06 -0.04,0 -0.08,0.01 -0.08,0.03 0,0.04 -0.21,0.14 -0.25,0.11 -0.01,-0.01 -0.04,0.00 -0.05,0.03 -0.01,0.03 -0.14,0.12 -0.30,0.19 -0.21,0.11 -0.29,0.13 -0.33,0.09 -0.03,-0.03 -3.42e-4,-0.09 0.17,-0.26 0.12,-0.11 0.24,-0.21 0.27,-0.21 0.02,0 0.08,-0.04 0.14,-0.09 0.05,-0.05 0.19,-0.12 0.32,-0.16 0.18,-0.06 0.24,-0.10 0.31,-0.23 0.04,-0.09 0.12,-0.22 0.17,-0.29 0.13,-0.21 1.33,-1.37 1.53,-1.49 0.10,-0.05 0.25,-0.17 0.33,-0.25 0.08,-0.08 0.16,-0.15 0.17,-0.15 0.01,0 0.05,-0.01 0.07,-0.04 0.13,-0.11 0.80,-0.55 0.84,-0.55 0.02,0 0.03,-0.01 0.02,-0.04 -0.01,-0.02 0.01,-0.06 0.05,-0.08 0.04,-0.02 0.11,-0.07 0.15,-0.11 0.03,-0.03 0.09,-0.07 0.12,-0.07 0.02,-0.00 0.17,-0.09 0.33,-0.20 0.15,-0.10 0.36,-0.22 0.48,-0.25 0.11,-0.03 0.21,-0.07 0.22,-0.09 0.01,-0.02 0.06,-0.03 0.10,-0.03 0.04,0 0.08,-0.01 0.08,-0.04 0,-0.02 0.02,-0.04 0.05,-0.04 0.05,0 0.13,-0.12 0.10,-0.14 -0.03,-0.02 -0.46,-0.11 -0.62,-0.12 -0.30,-0.03 -0.37,-0.15 -0.29,-0.55 0.04,-0.19 0.63,-0.54 0.97,-0.56 0.34,-0.01 0.88,-0.09 0.93,-0.12 0.07,-0.04 0.05,-0.09 -0.07,-0.23 -0.18,-0.20 -0.77,-1.41 -0.95,-1.96 -0.06,-0.18 -0.12,-0.32 -0.16,-0.32 -0.03,0 -0.08,0.07 -0.10,0.17 -0.09,0.29 -0.31,0.72 -0.44,0.86 -0.07,0.07 -0.19,0.16 -0.28,0.20 -0.08,0.03 -0.14,0.07 -0.14,0.10 0,0.02 -0.05,0.06 -0.11,0.10 -0.58,0.32 -1.07,0.45 -1.23,0.32 -0.03,-0.02 -0.07,-0.03 -0.09,-0.02 -0.06,0.04 -0.43,-0.11 -0.45,-0.19 -0.01,-0.04 -0.05,-0.07 -0.08,-0.07 -0.03,0 -0.06,-0.02 -0.06,-0.06 0,-0.03 -0.01,-0.06 -0.03,-0.06 -0.07,0 -0.21,-0.34 -0.26,-0.63 -0.05,-0.32 -0.05,-0.96 6.84e-4,-1.07 0.02,-0.03 0.05,-0.21 0.08,-0.39 0.02,-0.17 0.07,-0.37 0.10,-0.43 0.03,-0.06 0.07,-0.17 0.08,-0.25 0.01,-0.07 0.05,-0.18 0.08,-0.24 0.03,-0.06 0.05,-0.14 0.06,-0.18 9.7e-5,-0.03 0.01,-0.08 0.04,-0.09 0.02,-0.01 0.04,-0.06 0.04,-0.10 0,-0.04 0.02,-0.08 0.06,-0.10 0.03,-0.01 0.06,-0.06 0.06,-0.10 0,-0.04 0.01,-0.08 0.03,-0.09 0.01,-0.00 0.08,-0.12 0.14,-0.24 0.06,-0.12 0.16,-0.29 0.22,-0.35 0.05,-0.06 0.10,-0.13 0.10,-0.14 3.3e-5,-0.01 0.07,-0.11 0.17,-0.21 0.09,-0.10 0.17,-0.21 0.17,-0.24 3.2e-5,-0.02 0.03,-0.07 0.08,-0.09 0.12,-0.06 0.66,-0.48 0.67,-0.52 0.00,-0.01 0.03,-0.03 0.06,-0.03 0.02,0 0.10,-0.05 0.16,-0.12 0.14,-0.15 0.34,-0.26 0.55,-0.29 0.16,-0.02 0.16,-0.03 0.26,-0.32 0.05,-0.16 0.12,-0.40 0.15,-0.53 0.02,-0.12 0.07,-0.27 0.10,-0.32 0.02,-0.04 0.08,-0.20 0.12,-0.34 0.04,-0.14 0.09,-0.28 0.11,-0.30 0.02,-0.02 0.03,-0.08 0.01,-0.11 -0.01,-0.03 -0.00,-0.07 0.01,-0.08 0.02,-0.01 0.04,-0.05 0.04,-0.10 0,-0.04 0.04,-0.16 0.09,-0.26 0.05,-0.10 0.09,-0.21 0.08,-0.23 -0.00,-0.02 0.00,-0.06 0.02,-0.07 0.02,-0.01 0.04,-0.06 0.04,-0.10 0,-0.04 0.02,-0.09 0.05,-0.11 0.03,-0.01 0.08,-0.09 0.11,-0.17 0.03,-0.07 0.09,-0.16 0.13,-0.20 0.04,-0.04 0.08,-0.09 0.08,-0.11 0,-0.03 0.24,-0.37 0.47,-0.63 0.17,-0.20 0.61,-0.41 1.04,-0.48 0.09,-0.01 0.21,-0.05 0.28,-0.08 0.06,-0.03 0.25,-0.09 0.42,-0.13 0.24,-0.05 0.32,-0.06 0.39,-0.02 0.04,0.02 0.08,0.05 0.09,0.05 0.00,0 -0.01,-0.12 -0.05,-0.27 -0.04,-0.18 -0.09,-0.28 -0.13,-0.30 -0.04,-0.01 -0.08,-0.06 -0.09,-0.10 -0.01,-0.04 -0.04,-0.09 -0.07,-0.10 -0.42,-0.12 -0.52,-0.16 -0.58,-0.23 -0.08,-0.08 -0.15,-0.21 -0.14,-0.27 0.00,-0.01 0.01,-0.07 0.02,-0.12 0.01,-0.12 0.17,-0.15 0.20,-0.03 0.02,0.09 0.28,0.16 0.33,0.08 0.01,-0.02 0.01,-0.10 -0.01,-0.17 -0.10,-0.28 0.20,-0.27 0.32,0.01 0.09,0.23 0.19,0.34 0.36,0.43 0.07,0.03 0.15,0.09 0.16,0.13 0.01,0.03 0.08,0.06 0.13,0.07 0.08,0.01 0.10,-0.01 0.15,-0.18 0.02,-0.10 0.07,-0.23 0.09,-0.27 0.02,-0.04 0.05,-0.19 0.07,-0.32 0.03,-0.31 0.05,-0.38 0.17,-0.53 0.05,-0.07 0.10,-0.15 0.11,-0.19 0.03,-0.09 0.37,-0.35 0.53,-0.41 0.07,-0.02 0.24,-0.11 0.36,-0.19 0.20,-0.13 0.36,-0.19 0.61,-0.22 0.04,-0.00 0.17,-0.05 0.27,-0.10 0.25,-0.12 0.54,-0.13 0.70,-0.00 0.06,0.05 0.18,0.10 0.27,0.12 0.08,0.01 0.18,0.04 0.21,0.07 0.04,0.03 0.08,0.01 0.17,-0.08 0.15,-0.18 0.28,-0.19 0.44,-0.04 0.26,0.24 0.30,0.63 0.09,0.93 -0.14,0.21 -0.20,0.33 -0.27,0.56 -0.02,0.09 -0.07,0.19 -0.09,0.22 -0.04,0.05 -0.07,0.32 -0.07,0.71 -0.00,0.23 -0.10,0.55 -0.21,0.68 -0.04,0.05 -0.08,0.20 -0.10,0.44 -0.03,0.36 -0.05,0.42 -0.21,0.42 -0.04,3.41e-4 -0.15,0.06 -0.22,0.13 -0.08,0.08 -0.16,0.12 -0.22,0.11 -0.08,-0.02 -0.11,0.07 -0.04,0.11 0.04,0.02 0.03,0.07 -0.09,0.37 -0.14,0.33 -0.42,0.40 -0.66,0.17 -0.13,-0.13 -0.19,-0.10 -0.20,0.08 -0.01,0.13 -0.05,0.18 -0.29,0.38 -0.15,0.12 -0.31,0.27 -0.35,0.32 -0.03,0.05 -0.11,0.15 -0.18,0.23 -0.06,0.07 -0.10,0.16 -0.09,0.20 0.01,0.03 -0.00,0.11 -0.03,0.18 -0.03,0.06 -0.06,0.23 -0.06,0.37 -0.00,0.25 -0.06,0.60 -0.13,0.76 -0.06,0.16 -0.10,0.33 -0.15,0.73 -0.02,0.16 -0.01,0.17 0.12,0.24 0.19,0.10 0.54,0.35 0.68,0.51 0.17,0.18 0.42,0.57 0.43,0.68 0.00,0.04 0.01,0.11 0.01,0.14 0.00,0.03 0.03,0.06 0.08,0.08 0.04,0.01 0.19,0.07 0.33,0.14 0.14,0.06 0.31,0.13 0.37,0.14 0.06,0.01 0.18,0.07 0.25,0.12 0.07,0.05 0.16,0.11 0.20,0.12 0.04,0.01 0.09,0.07 0.12,0.13 0.02,0.05 0.07,0.10 0.09,0.10 0.05,0 0.32,0.24 0.32,0.30 0,0.01 0.07,0.11 0.16,0.21 0.09,0.10 0.17,0.20 0.17,0.22 5.86e-4,0.01 0.03,0.08 0.08,0.14 0.08,0.10 0.11,0.26 0.05,0.26 -0.08,0 -0.50,-0.39 -1.01,-0.93 -0.09,-0.10 -0.22,-0.21 -0.29,-0.24 -0.07,-0.03 -0.30,-0.15 -0.51,-0.26 -0.21,-0.11 -0.44,-0.24 -0.52,-0.28 -0.07,-0.03 -0.13,-0.09 -0.13,-0.12 0,-0.03 -0.03,-0.06 -0.06,-0.08 -0.03,-0.01 -0.05,-0.05 -0.04,-0.09 0.04,-0.10 -0.40,-0.63 -0.46,-0.56 -0.04,0.04 0.03,0.24 0.09,0.24 0.03,0 0.05,0.01 0.05,0.03 0,0.02 0.01,0.09 0.02,0.16 0.02,0.12 0.01,0.13 -0.20,0.22 -0.12,0.05 -0.30,0.15 -0.40,0.22 -0.09,0.07 -0.26,0.17 -0.38,0.22 -0.40,0.18 -0.51,0.23 -0.62,0.31 -0.06,0.04 -0.14,0.07 -0.18,0.07 -0.03,0 -0.12,0.03 -0.18,0.07 -0.06,0.04 -0.29,0.17 -0.51,0.28 -0.21,0.11 -0.45,0.25 -0.52,0.31 -0.23,0.20 -0.29,0.25 -0.33,0.25 -0.05,0 -0.49,0.47 -0.62,0.67 -0.12,0.18 -0.47,0.47 -0.58,0.47 -0.16,0 -0.11,-0.27 0.08,-0.48 0.08,-0.08 0.10,-0.12 0.06,-0.16 -0.03,-0.03 -0.08,-0.01 -0.21,0.10 -0.15,0.15 -0.30,0.19 -0.34,0.08 -0.00,-0.02 0.05,-0.11 0.14,-0.20 0.13,-0.12 0.19,-0.15 0.34,-0.15 0.15,-2.93e-4 0.22,-0.03 0.38,-0.16 0.11,-0.09 0.25,-0.19 0.32,-0.23 0.07,-0.03 0.18,-0.11 0.25,-0.17 l 0.12,-0.10 -0.10,2.93e-4 c -0.10,2.93e-4 -0.26,0.08 -0.52,0.26 -0.15,0.10 -0.29,0.06 -0.39,-0.12 -0.08,-0.15 -0.23,-0.20 -0.23,-0.08 0,0.03 -0.05,0.12 -0.11,0.18 -0.06,0.06 -0.13,0.15 -0.16,0.19 -0.04,0.07 -0.05,0.06 -0.16,-0.02 -0.07,-0.06 -0.12,-0.15 -0.13,-0.23 -0.02,-0.26 -0.13,-0.30 -0.24,-0.09 -0.06,0.11 -0.06,0.13 -0.01,0.19 0.08,0.08 0.11,0.22 0.09,0.40 -0.01,0.10 -0.03,0.14 -0.10,0.15 -0.10,0.01 -0.15,-0.09 -0.16,-0.39 -0.01,-0.32 -0.02,-0.34 -0.11,-0.44 -0.14,-0.16 -0.16,-0.59 -0.02,-0.92 0.09,-0.22 0.10,-0.28 0.06,-0.51 -0.02,-0.14 -0.02,-0.36 -0.01,-0.49 0.01,-0.12 0.02,-0.34 0.03,-0.47 0.00,-0.12 0.03,-0.29 0.04,-0.37 0.02,-0.11 0.01,-0.13 -0.04,-0.13 -0.10,0 -0.66,0.33 -0.79,0.47 -0.06,0.06 -0.16,0.14 -0.23,0.18 -0.06,0.03 -0.21,0.16 -0.31,0.28 -0.10,0.12 -0.23,0.27 -0.28,0.32 -0.14,0.16 -0.69,1.17 -0.72,1.33 -0.01,0.08 -0.05,0.21 -0.09,0.29 -0.03,0.08 -0.06,0.15 -0.06,0.17 -0.00,0.01 -0.01,0.04 -0.02,0.06 -0.01,0.02 -0.05,0.17 -0.09,0.34 -0.19,0.90 -0.19,1.43 0.00,1.86 l 0.13,0.28 0.23,0.04 c 0.25,0.05 0.59,0.00 0.76,-0.11 0.04,-0.03 0.10,-0.05 0.14,-0.05 0.06,0 0.11,-0.03 0.42,-0.32 0.12,-0.11 0.27,-0.28 0.32,-0.36 0.05,-0.08 0.10,-0.15 0.12,-0.17 0.01,-0.01 0.12,-0.22 0.24,-0.48 0.12,-0.25 0.23,-0.45 0.25,-0.45 0.05,0 0.11,0.09 0.15,0.22 0.01,0.06 0.10,0.21 0.19,0.33 0.09,0.11 0.25,0.38 0.36,0.58 0.37,0.69 0.47,0.86 0.52,0.91 0.02,0.02 0.05,0.08 0.05,0.13 0,0.04 0.02,0.10 0.06,0.14 0.03,0.03 0.09,0.15 0.13,0.26 0.04,0.11 0.11,0.23 0.15,0.27 0.07,0.06 0.09,0.06 0.28,0.00 0.11,-0.03 0.22,-0.07 0.25,-0.08 0.02,-0.00 0.05,-0.07 0.05,-0.14 0,-0.15 0.07,-0.30 0.30,-0.66 0.23,-0.35 0.36,-0.48 0.45,-0.46 0.04,0.01 0.10,-0.01 0.14,-0.07 0.03,-0.05 0.07,-0.08 0.08,-0.07 0.00,0.01 0.02,0.13 0.04,0.27 0.03,0.43 0.07,0.67 0.14,0.85 0.09,0.27 0.16,0.46 0.19,0.51 0.01,0.02 0.05,0.15 0.08,0.28 0.02,0.13 0.06,0.24 0.08,0.24 0.01,0 0.05,0.09 0.08,0.20 0.03,0.11 0.08,0.25 0.11,0.30 0.03,0.05 0.06,0.17 0.08,0.26 0.01,0.08 0.06,0.19 0.10,0.23 0.04,0.04 0.08,0.10 0.08,0.14 0,0.11 0.29,0.39 0.47,0.45 0.25,0.08 0.58,0.04 0.93,-0.11 0.08,-0.03 0.60,-0.19 0.84,-0.26 0.15,-0.04 0.17,-0.05 0.13,-0.11 -0.05,-0.06 -0.12,-0.06 -0.42,0.04 -0.10,0.03 -0.32,0.08 -0.49,0.11 -0.16,0.02 -0.31,0.06 -0.34,0.08 -0.06,0.04 -0.43,0.08 -0.56,0.05 -0.17,-0.03 -0.23,-0.15 -0.29,-0.58 l -0.05,-0.38 0.16,-0.15 c 0.17,-0.16 0.68,-0.38 0.91,-0.38 0.17,-0.00 0.28,-0.08 0.44,-0.34 0.06,-0.11 0.16,-0.22 0.21,-0.24 0.04,-0.02 0.13,-0.13 0.20,-0.24 0.06,-0.11 0.16,-0.25 0.22,-0.32 0.06,-0.07 0.12,-0.16 0.13,-0.21 0.07,-0.29 0.12,-0.40 0.25,-0.55 0.13,-0.15 0.14,-0.16 0.47,-0.18 0.18,-0.01 0.58,-0.02 0.89,-0.02 l 0.55,8.79e-4 0.20,0.13 c 0.11,0.07 0.29,0.23 0.40,0.34 0.15,0.15 0.23,0.20 0.35,0.21 0.24,0.01 0.50,0.09 0.59,0.18 0.21,0.19 0.11,1.96e-4 -0.19,-0.37 -0.11,-0.13 -0.12,-0.31 -0.03,-0.34 0.08,-0.02 0.43,0.32 0.41,0.41 -0.01,0.04 0.01,0.11 0.06,0.15 0.10,0.10 0.39,0.58 0.39,0.65 0,0.02 0.04,0.09 0.10,0.13 0.12,0.09 0.31,0.45 0.31,0.58 0,0.09 0.10,0.19 0.16,0.15 0.02,-0.01 0.04,-0.07 0.04,-0.12 0,-0.14 0.10,-0.16 0.24,-0.05 0.25,0.19 0.73,0.61 1.01,0.89 0.28,0.27 0.40,0.35 0.40,0.24 0,-0.02 -0.06,-0.12 -0.13,-0.20 -0.19,-0.23 -0.39,-0.61 -0.36,-0.69 0.04,-0.12 0.13,-0.08 0.50,0.23 0.63,0.54 0.79,0.69 0.95,0.91 0.07,0.10 0.07,0.05 -6.83e-4,-0.09 -0.03,-0.06 -0.06,-0.17 -0.06,-0.23 -2.93e-4,-0.10 0.00,-0.11 0.12,-0.07 0.11,0.04 1.14,1.02 1.29,1.23 0.11,0.16 0.11,0.05 0.00,-0.13 -0.12,-0.21 -0.13,-0.31 -0.04,-0.35 0.07,-0.02 0.27,0.12 0.49,0.37 0.08,0.09 0.25,0.27 0.38,0.41 0.13,0.13 0.30,0.34 0.38,0.46 0.15,0.23 0.21,0.26 0.21,0.13 0,-0.18 0.30,-0.05 0.59,0.25 0.58,0.63 0.80,0.89 0.86,1.00 0.03,0.07 0.09,0.14 0.13,0.15 0.03,0.01 0.06,0.05 0.06,0.08 0,0.03 0.02,0.08 0.06,0.11 0.07,0.05 0.48,0.79 0.57,1.02 0.03,0.08 0.07,0.16 0.09,0.19 0.01,0.02 0.04,0.11 0.06,0.21 0.01,0.09 0.04,0.19 0.06,0.21 0.02,0.02 0.03,0.15 0.03,0.27 -0.00,0.12 0.01,0.31 0.03,0.41 0.02,0.10 0.03,0.21 0.02,0.24 -0.07,0.19 -0.37,0.03 -0.59,-0.31 -0.34,-0.54 -0.42,-0.67 -0.45,-0.74 -0.03,-0.09 -0.12,-0.07 -0.14,0.02 -0.00,0.03 0.06,0.23 0.16,0.43 0.09,0.20 0.17,0.39 0.17,0.42 0,0.03 0.01,0.07 0.03,0.08 0.01,0.01 0.05,0.12 0.08,0.25 0.02,0.13 0.06,0.23 0.08,0.23 0.05,0 0.14,0.50 0.12,0.66 -0.01,0.08 -0.00,0.15 0.01,0.16 0.01,0.01 0.22,0.04 0.46,0.08 0.23,0.03 0.46,0.07 0.50,0.10 0.06,0.03 0.06,0.05 -0.06,0.10 -0.08,0.03 -0.32,0.07 -0.53,0.09 -0.30,0.02 -0.39,0.04 -0.44,0.10 -0.03,0.04 -0.13,0.09 -0.22,0.10 -0.17,0.03 -0.24,0.12 -0.16,0.20 0.02,0.02 0.19,0.05 0.37,0.06 0.44,0.01 0.56,0.11 0.29,0.25 -0.10,0.04 -0.22,0.06 -0.38,0.05 -0.19,-0.01 -0.23,-0.00 -0.23,0.05 0,0.05 0.06,0.08 0.38,0.12 l 0.38,0.04 0.23,-0.13 c 0.13,-0.07 0.23,-0.16 0.23,-0.18 0,-0.08 0.10,-0.13 0.34,-0.15 0.72,-0.06 0.72,-0.06 0.75,-0.23 0.01,-0.08 0.03,-0.18 0.04,-0.21 0.05,-0.13 0.01,-0.81 -0.06,-1.19 -0.04,-0.22 -0.09,-0.49 -0.11,-0.59 -0.01,-0.10 -0.04,-0.21 -0.06,-0.23 -0.02,-0.02 -0.06,-0.21 -0.08,-0.42 -0.02,-0.21 -0.08,-0.50 -0.13,-0.66 -0.08,-0.29 -0.52,-1.04 -0.72,-1.26 -0.06,-0.07 -0.12,-0.14 -0.12,-0.17 0,-0.02 -0.09,-0.13 -0.21,-0.24 -0.11,-0.11 -0.21,-0.22 -0.21,-0.24 0,-0.02 0.04,-0.03 0.10,-0.03 0.22,0 0.10,-0.27 -0.28,-0.65 -0.10,-0.10 -0.23,-0.24 -0.29,-0.31 -0.06,-0.07 -0.19,-0.19 -0.29,-0.27 -0.10,-0.08 -0.30,-0.26 -0.44,-0.40 -0.14,-0.13 -0.35,-0.30 -0.48,-0.37 -0.22,-0.11 -0.29,-0.16 -0.66,-0.45 -0.09,-0.07 -0.32,-0.21 -0.49,-0.29 -0.17,-0.08 -0.35,-0.18 -0.40,-0.22 -0.18,-0.15 -0.69,-0.47 -0.97,-0.61 -0.15,-0.07 -0.32,-0.16 -0.38,-0.20 -0.05,-0.03 -0.20,-0.08 -0.32,-0.10 -0.28,-0.04 -0.38,-0.08 -0.58,-0.23 -0.20,-0.16 -0.54,-0.34 -0.58,-0.31 -0.04,0.02 -0.57,-0.16 -0.83,-0.31 -0.12,-0.06 -0.30,-0.13 -0.41,-0.15 -0.17,-0.02 -0.32,-0.06 -0.99,-0.25 -0.23,-0.06 -0.25,-0.08 -0.36,-0.30 -0.06,-0.12 -0.15,-0.27 -0.20,-0.33 -0.16,-0.18 -0.27,-0.35 -0.27,-0.44 0,-0.10 0.03,-0.11 0.16,-0.02 0.09,0.06 0.10,0.06 0.18,-0.01 0.10,-0.11 0.10,-0.13 -0.04,-0.33 -0.06,-0.09 -0.12,-0.22 -0.12,-0.28 -9.89e-4,-0.09 -0.01,-0.11 -0.11,-0.11 -0.06,0 -0.14,0.02 -0.18,0.05 -0.03,0.03 -0.16,0.09 -0.28,0.13 -0.17,0.05 -0.34,0.13 -0.43,0.17 -0.00,0.00 0.03,0.09 0.09,0.20 0.09,0.16 0.10,0.23 0.08,0.36 -0.03,0.19 -0.10,0.21 -0.23,0.08 -0.04,-0.04 -0.08,-0.09 -0.08,-0.10 0,-0.01 -0.04,-0.06 -0.09,-0.12 -0.05,-0.05 -0.16,-0.18 -0.24,-0.27 -0.08,-0.09 -0.16,-0.17 -0.19,-0.17 -0.02,-1.95e-4 -0.12,-0.09 -0.22,-0.20 -0.10,-0.11 -0.30,-0.33 -0.46,-0.50 -0.49,-0.53 -0.76,-0.85 -0.95,-1.13 -0.05,-0.08 -0.12,-0.16 -0.14,-0.17 -0.02,-0.01 -0.00,-0.04 0.04,-0.07 0.09,-0.05 0.11,-0.03 0.81,0.68 0.23,0.24 0.47,0.47 0.51,0.51 0.04,0.03 0.22,0.22 0.39,0.42 0.41,0.46 0.40,0.46 0.35,0.35 -0.08,-0.15 -0.06,-0.27 0.04,-0.27 0.09,-4.3e-5 0.33,-0.16 0.33,-0.24 1.95e-4,-0.02 0.07,-0.08 0.16,-0.14 0.08,-0.05 0.25,-0.16 0.37,-0.24 0.11,-0.07 0.24,-0.14 0.27,-0.14 0.03,-4.88e-4 0.14,-0.03 0.25,-0.08 0.11,-0.05 0.30,-0.09 0.49,-0.10 0.43,-0.01 0.43,-0.02 0.41,-0.31 -0.02,-0.33 -0.14,-0.57 -0.41,-0.83 -0.27,-0.27 -0.31,-0.41 -0.23,-0.90 0.03,-0.18 0.05,-0.38 0.06,-0.42 0.00,-0.04 0.02,-0.11 0.03,-0.14 0.06,-0.19 0.13,-0.46 0.14,-0.57 0.00,-0.07 0.05,-0.36 0.10,-0.65 0.04,-0.28 0.08,-0.60 0.08,-0.70 -1.95e-4,-0.09 0.01,-0.32 0.03,-0.50 0.02,-0.17 0.04,-0.43 0.06,-0.56 0.01,-0.13 0.03,-0.26 0.04,-0.29 0.01,-0.02 0.02,-0.15 0.02,-0.29 -0.00,-0.13 0.01,-0.26 0.03,-0.27 0.02,-0.01 0.04,-0.13 0.04,-0.26 0.00,-0.50 0.27,-1.88 0.38,-1.92 0.02,-0.00 0.04,-0.04 0.04,-0.09 0,-0.14 0.34,-0.33 0.46,-0.25 0.05,0.03 0.04,0.05 -0.01,0.11 -0.05,0.05 -0.07,0.11 -0.05,0.27 0.02,0.20 -0.02,0.41 -0.16,0.61 -0.04,0.06 -0.08,0.15 -0.08,0.19 -0.00,0.03 -0.01,0.09 -0.03,0.12 -0.01,0.02 -0.03,0.16 -0.03,0.29 -0.00,0.13 -0.02,0.33 -0.04,0.43 -0.02,0.11 -0.02,0.21 0.00,0.26 0.02,0.05 0.02,0.11 -0.00,0.20 -0.05,0.13 -0.06,0.20 -0.10,0.80 -0.03,0.58 -0.10,1.07 -0.17,1.31 -0.03,0.11 -0.04,0.24 -0.03,0.28 0.01,0.04 -0.00,0.17 -0.04,0.27 -0.03,0.09 -0.08,0.30 -0.11,0.45 -0.02,0.15 -0.08,0.35 -0.12,0.44 -0.13,0.29 -0.26,0.87 -0.27,1.25 -0.00,0.17 0.01,0.20 0.17,0.36 0.22,0.21 0.41,0.50 0.47,0.72 0.04,0.14 0.03,0.19 -0.01,0.45 -0.01,0.06 -0.01,0.15 0.00,0.20 0.02,0.08 0.03,0.08 0.16,0.01 0.07,-0.03 0.14,-0.06 0.16,-0.06 0.01,0.00 0.05,-0.05 0.09,-0.13 0.03,-0.07 0.12,-0.23 0.19,-0.35 0.06,-0.11 0.13,-0.24 0.15,-0.27 0.05,-0.11 0.35,-0.51 0.39,-0.51 0.05,0 0.42,-0.37 0.57,-0.58 0.07,-0.10 0.14,-0.18 0.16,-0.18 0.01,0 0.06,-0.06 0.10,-0.15 0.04,-0.08 0.10,-0.16 0.15,-0.17 0.04,-0.01 0.08,-0.03 0.08,-0.05 0,-0.01 0.11,-0.14 0.24,-0.28 0.13,-0.13 0.28,-0.30 0.33,-0.36 0.11,-0.16 0.24,-0.29 0.37,-0.38 0.06,-0.04 0.10,-0.09 0.09,-0.11 -0.01,-0.01 0.02,-0.06 0.07,-0.10 0.05,-0.04 0.18,-0.19 0.28,-0.34 0.10,-0.14 0.20,-0.26 0.22,-0.26 0.02,0 0.03,-0.02 0.01,-0.06 -0.01,-0.03 0.00,-0.08 0.03,-0.11 0.03,-0.02 0.09,-0.12 0.13,-0.20 0.03,-0.08 0.09,-0.18 0.12,-0.21 0.02,-0.03 0.09,-0.17 0.14,-0.30 0.09,-0.24 0.12,-0.57 0.12,-1.25 7.8e-4,-0.24 0.01,-0.36 0.06,-0.41 0.05,-0.05 0.05,-0.06 0.00,-0.08 -0.05,-0.02 -0.05,-0.05 0.10,-0.99 0.02,-0.14 0.04,-0.31 0.03,-0.38 -0.00,-0.16 0.01,-0.33 0.08,-0.63 0.04,-0.20 0.04,-0.27 -3.9e-4,-0.42 -0.03,-0.09 -0.08,-0.21 -0.11,-0.25 -0.12,-0.14 -0.18,-0.48 -0.20,-1.03 -0.01,-0.58 0.03,-0.83 0.16,-0.83 0.03,0 0.09,0.05 0.14,0.12 0.04,0.06 0.12,0.16 0.18,0.21 0.21,0.17 0.31,0.69 0.18,0.99 -0.05,0.12 0.09,0.08 0.19,-0.05 0.11,-0.16 0.24,-0.16 0.30,-0.01 0.02,0.06 0.09,0.21 0.15,0.32 0.07,0.13 0.09,0.24 0.08,0.31 -0.03,0.12 -0.20,0.30 -0.41,0.43 -0.17,0.10 -0.29,0.29 -0.31,0.49 -0.00,0.07 -0.03,0.16 -0.05,0.21 -0.05,0.12 -0.12,0.70 -0.15,1.25 -0.01,0.26 -0.04,0.56 -0.06,0.65 -0.02,0.09 -0.04,0.31 -0.03,0.47 0.01,0.37 -0.03,0.73 -0.11,0.89 -0.03,0.06 -0.06,0.15 -0.06,0.18 0,0.03 -0.04,0.12 -0.10,0.20 -0.05,0.07 -0.10,0.16 -0.10,0.18 0,0.02 -0.01,0.04 -0.03,0.04 -0.01,0 -0.06,0.06 -0.10,0.14 -0.03,0.08 -0.09,0.14 -0.13,0.14 -0.03,0 -0.05,0.02 -0.04,0.05 0.01,0.02 -0.07,0.15 -0.19,0.28 -0.11,0.12 -0.23,0.26 -0.24,0.29 -0.10,0.19 -0.67,0.78 -0.70,0.74 -0.01,-0.01 -0.02,-0.00 -0.01,0.02 0.01,0.05 -0.41,0.49 -0.45,0.45 -0.01,-0.01 -0.02,0.00 -0.02,0.03 0,0.03 -0.10,0.13 -0.23,0.23 -0.12,0.09 -0.23,0.18 -0.23,0.20 -7.81e-4,0.11 -0.40,0.56 -0.46,0.52 -0.02,-0.01 -0.04,-0.00 -0.03,0.02 0.01,0.06 -0.09,0.25 -0.26,0.44 -0.14,0.16 -0.47,0.67 -0.47,0.73 0,0.02 0.09,0.12 0.21,0.22 0.11,0.09 0.21,0.20 0.21,0.23 0,0.11 0.16,0.11 0.32,-0.00 0.15,-0.11 0.15,-0.11 0.21,-0.03 0.03,0.04 0.05,0.13 0.05,0.19 0,0.06 0.02,0.20 0.06,0.32 0.03,0.11 0.06,0.27 0.06,0.35 4.88e-4,0.15 0.14,0.58 0.21,0.66 0.02,0.02 0.03,0.09 0.03,0.16 0,0.06 0.01,0.11 0.03,0.11 0.04,0 0.13,0.23 0.10,0.27 -0.01,0.01 -0.00,0.02 0.02,0.02 0.02,0 0.04,0.05 0.04,0.12 0,0.16 0.08,0.27 0.18,0.24 0.12,-0.04 0.11,-0.08 -0.22,-0.75 -0.04,-0.08 -0.11,-0.48 -0.14,-0.79 -0.01,-0.16 -0.00,-0.22 0.03,-0.22 0.09,0 0.13,0.08 0.19,0.36 0.03,0.14 0.06,0.26 0.08,0.27 0.01,0.01 0.06,0.10 0.10,0.21 0.04,0.10 0.16,0.35 0.26,0.54 0.10,0.19 0.16,0.35 0.15,0.35 -0.01,3.9e-4 -0.01,0.01 0.01,0.03 0.02,0.01 0.08,0.13 0.12,0.26 0.07,0.24 0.12,0.30 0.21,0.27 0.06,-0.02 -0.06,-0.44 -0.27,-0.89 -0.09,-0.18 -0.17,-0.41 -0.19,-0.50 -0.03,-0.16 2.93e-4,-0.37 0.05,-0.37 0.04,0 0.26,0.54 0.27,0.67 0.00,0.02 0.02,0.05 0.04,0.05 0.07,0.00 0.28,0.28 0.34,0.45 0.07,0.21 0.17,0.22 0.22,0.03 0.07,-0.25 0.02,-0.51 -0.15,-0.78 -0.16,-0.25 -0.27,-0.50 -0.23,-0.54 0.01,-0.01 0.00,-0.02 -0.02,-0.02 -0.07,0 -0.10,-0.25 -0.03,-0.34 0.07,-0.10 0.08,-0.08 0.28,0.32 0.07,0.16 0.20,0.37 0.28,0.46 0.07,0.09 0.13,0.18 0.11,0.20 -0.01,0.02 -0.00,0.03 0.01,0.03 0.02,0 0.07,0.07 0.11,0.15 0.04,0.08 0.10,0.18 0.13,0.21 0.03,0.03 0.06,0.10 0.08,0.17 0.01,0.06 0.03,0.14 0.04,0.17 0.01,0.03 0.02,0.08 0.01,0.10 -0.01,0.04 0.07,0.10 0.15,0.11 0.02,2.93e-4 0.04,-0.03 0.04,-0.07 -0.00,-0.04 0.01,-0.19 0.04,-0.34 0.03,-0.21 0.03,-0.30 -0.01,-0.44 -0.03,-0.09 -0.06,-0.22 -0.06,-0.27 0,-0.05 -0.01,-0.10 -0.04,-0.10 -0.02,0 -0.04,-0.03 -0.04,-0.07 0,-0.03 -0.02,-0.09 -0.06,-0.11 -0.03,-0.02 -0.07,-0.10 -0.09,-0.18 -0.02,-0.11 -0.00,-0.14 0.06,-0.18 0.09,-0.05 0.21,0.00 0.21,0.09 0,0.10 0.15,0.37 0.22,0.37 0.09,0.00 0.20,0.16 0.20,0.30 0,0.06 0.01,0.12 0.03,0.13 0.02,0.01 0.06,0.14 0.09,0.29 0.03,0.14 0.06,0.27 0.08,0.28 0.01,0.01 0.04,0.06 0.07,0.12 0.04,0.10 0.05,0.10 0.04,-0.04 -0.00,-0.08 -0.00,-0.20 0.00,-0.27 l 0.00,-0.12 0.06,0.10 c 0.03,0.05 0.06,0.14 0.06,0.18 0.00,0.07 0.06,0.20 0.15,0.33 0.02,0.03 0.11,0.19 0.20,0.36 0.08,0.16 0.20,0.37 0.25,0.47 0.10,0.18 0.23,0.52 0.26,0.70 0.00,0.05 0.02,0.14 0.03,0.19 0.00,0.04 0.01,0.19 0.01,0.33 0.00,0.28 0.05,0.31 0.13,0.08 0.06,-0.19 0.04,-0.88 -0.03,-0.95 -0.02,-0.02 -0.04,-0.07 -0.04,-0.10 0,-0.03 -0.03,-0.11 -0.08,-0.17 -0.04,-0.06 -0.11,-0.20 -0.14,-0.31 -0.03,-0.11 -0.15,-0.33 -0.26,-0.48 -0.17,-0.25 -0.19,-0.30 -0.16,-0.45 0.07,-0.50 0.05,-0.62 -0.09,-1.00 -0.08,-0.20 -0.16,-0.37 -0.17,-0.38 -0.04,-0.03 -0.13,-0.20 -0.13,-0.26 0,-0.02 -0.02,-0.07 -0.06,-0.11 -0.08,-0.08 -0.08,-0.27 8.78e-4,-0.27 0.03,0 0.08,0.05 0.11,0.11 0.02,0.06 0.07,0.13 0.10,0.15 0.02,0.01 0.05,0.05 0.05,0.07 0,0.04 0.13,0.21 0.17,0.21 0.04,0 0.07,-0.23 0.03,-0.28 -0.02,-0.02 -0.02,-0.09 -0.01,-0.13 0.01,-0.05 0.00,-0.08 -0.02,-0.08 -0.02,0 -0.04,-0.02 -0.03,-0.05 0.01,-0.02 0.00,-0.08 -0.02,-0.13 -0.02,-0.05 -0.02,-0.09 0.01,-0.13 0.07,-0.08 0.24,-0.07 0.26,0.01 0.01,0.04 0.06,0.24 0.11,0.45 0.05,0.21 0.12,0.42 0.15,0.46 0.03,0.04 0.05,0.12 0.05,0.17 0,0.05 0.01,0.10 0.03,0.11 0.01,0.01 0.03,0.10 0.04,0.20 0.00,0.09 0.02,0.19 0.03,0.21 0.01,0.02 -0.01,0.08 -0.06,0.13 l -0.09,0.09 0.10,0.23 c 0.11,0.27 0.16,0.39 0.17,0.43 0.00,0.01 0.01,0.04 0.03,0.06 0.01,0.01 0.03,0.06 0.03,0.09 8.79e-4,0.03 0.04,0.12 0.10,0.19 0.08,0.09 0.11,0.11 0.15,0.07 0.03,-0.03 0.03,-0.06 0.00,-0.10 -0.02,-0.03 -0.06,-0.16 -0.09,-0.29 -0.02,-0.12 -0.07,-0.29 -0.10,-0.38 -0.06,-0.14 -0.06,-0.26 -0.00,-0.32 0.01,-0.01 0.11,0.06 0.22,0.18 0.13,0.14 0.20,0.25 0.21,0.36 0.01,0.15 0.02,0.21 0.08,0.37 0.02,0.07 0.05,0.09 0.16,0.08 0.12,-0.00 0.13,-0.00 0.12,0.12 -0.00,0.07 0.01,0.13 0.03,0.13 0.02,0 0.03,0.02 0.03,0.04 0,0.02 0.03,0.10 0.08,0.16 0.10,0.15 0.21,0.48 0.20,0.68 -0.00,0.08 0.01,0.20 0.04,0.27 0.02,0.07 0.05,0.23 0.06,0.36 0.01,0.36 0.06,0.52 0.12,0.46 0.06,-0.04 0.04,-0.41 -0.02,-0.49 -0.05,-0.05 -0.04,-0.18 0.00,-0.21 0.06,-0.04 0.16,0.06 0.16,0.17 0,0.05 0.01,0.11 0.04,0.12 0.02,0.01 0.04,0.04 0.03,0.07 -0.00,0.02 0.02,0.11 0.05,0.19 0.03,0.08 0.07,0.16 0.07,0.19 0.00,0.02 0.06,0.06 0.12,0.09 0.06,0.03 0.14,0.11 0.17,0.18 0.04,0.10 0.07,0.12 0.15,0.10 0.08,-0.02 0.10,-0.00 0.15,0.11 0.02,0.07 0.04,0.15 0.03,0.17 -0.00,0.02 0.01,0.06 0.03,0.09 0.02,0.03 0.03,0.05 0.02,0.05 -0.01,0 0.00,0.06 0.03,0.15 0.11,0.27 0.17,0.67 0.16,1.15 -0.00,0.25 -0.01,0.49 -0.02,0.53 -0.00,0.03 0.00,0.07 0.02,0.08 0.02,0.00 0.05,-0.05 0.06,-0.13 0.01,-0.08 0.06,-0.21 0.11,-0.29 0.07,-0.11 0.08,-0.19 0.07,-0.38 -0.01,-0.24 -0.08,-0.54 -0.12,-0.58 -0.02,-0.02 0.05,-0.13 0.10,-0.13 0.04,0 0.18,0.25 0.18,0.32 5.86e-4,0.02 0.02,0.07 0.05,0.10 0.08,0.10 0.22,0.79 0.22,1.11 9.89e-4,0.16 -0.01,0.40 -0.04,0.53 -0.02,0.12 -0.04,0.23 -0.04,0.24 0,0.00 -0.03,0.04 -0.08,0.09 -0.05,0.05 -0.08,0.15 -0.10,0.32 -0.01,0.23 -0.01,0.25 0.08,0.29 0.13,0.04 0.14,0.03 0.24,-0.25 0.05,-0.16 0.06,-0.31 0.05,-0.56 -0.02,-0.35 0.01,-0.50 0.09,-0.38 0.02,0.03 0.04,0.08 0.04,0.11 2.93e-4,0.02 0.04,0.14 0.09,0.25 0.04,0.11 0.09,0.28 0.10,0.37 0.03,0.35 0.10,0.72 0.16,0.78 0.10,0.11 0.12,0.44 0.04,0.73 -0.06,0.24 -0.06,0.27 0.00,0.34 0.06,0.07 0.06,0.09 0.00,0.24 -0.07,0.19 -0.29,0.42 -0.47,0.52 -0.15,0.08 -0.18,0.16 -0.07,0.20 0.10,0.02 0.11,0.11 0.02,0.32 -0.03,0.08 -0.05,0.15 -0.03,0.15 0.01,0 -0.06,0.09 -0.18,0.20 -0.14,0.13 -0.23,0.26 -0.27,0.39 -0.03,0.10 -0.08,0.22 -0.11,0.27 -0.09,0.13 -0.07,0.16 0.13,0.27 0.10,0.05 0.34,0.19 0.51,0.30 0.17,0.11 0.32,0.21 0.34,0.21 0.05,0 0.31,0.14 0.31,0.17 0,0.01 -0.03,0.07 -0.08,0.11 -0.08,0.08 -0.09,0.08 -0.36,-0.01 -0.15,-0.05 -0.33,-0.10 -0.39,-0.10 -0.06,0 -0.14,-0.02 -0.16,-0.06 -0.03,-0.03 -0.12,-0.06 -0.21,-0.06 -0.16,0 -0.49,-0.14 -0.58,-0.25 -0.03,-0.04 -0.12,-0.06 -0.31,-0.05 -0.14,0.00 -0.29,-0.01 -0.32,-0.03 -0.07,-0.05 -0.18,-0.01 -0.18,0.06 0,0.03 0.02,0.07 0.05,0.09 0.03,0.01 0.05,0.09 0.05,0.16 -0.00,0.12 9.88e-4,0.12 0.27,0.16 0.24,0.03 0.81,0.19 0.98,0.28 0.03,0.01 0.16,0.02 0.28,0.01 0.16,-0.01 0.25,-0.00 0.34,0.05 0.15,0.09 0.48,0.11 0.72,0.03 0.09,-0.03 0.19,-0.05 0.21,-0.04 0.02,0.00 0.10,-0.02 0.18,-0.06 0.15,-0.08 0.15,-0.08 0.26,0.01 0.06,0.05 0.15,0.10 0.19,0.10 0.10,0.00 0.26,0.14 0.23,0.19 -0.01,0.02 -0.12,0.03 -0.24,0.03 -0.12,2.93e-4 -0.30,0.03 -0.41,0.06 -0.10,0.03 -0.30,0.07 -0.44,0.08 -0.14,0.01 -0.28,0.03 -0.32,0.04 -0.03,0.01 -0.08,0.02 -0.10,0.01 -0.02,-0.00 -0.17,0.02 -0.33,0.06 -0.24,0.06 -0.31,0.06 -0.42,0.02 -0.28,-0.11 -0.63,-0.21 -0.69,-0.19 -0.03,0.01 -0.10,0.12 -0.16,0.24 -0.05,0.12 -0.21,0.32 -0.34,0.45 -0.12,0.12 -0.23,0.24 -0.23,0.26 0,0.01 -0.02,0.03 -0.04,0.03 -0.02,0 -0.17,0.13 -0.33,0.29 -0.30,0.31 -0.30,0.31 -0.98,0.52 -0.51,0.16 -1.24,0.50 -1.79,0.84 -0.08,0.05 -0.18,0.09 -0.22,0.09 -0.04,8.6e-5 -0.07,0.01 -0.07,0.04 0,0.02 -0.09,0.07 -0.21,0.11 -0.14,0.05 -0.25,0.12 -0.32,0.22 -0.06,0.08 -0.17,0.20 -0.24,0.27 -0.11,0.10 -0.15,0.11 -0.35,0.09 -0.16,-0.01 -0.23,-0.00 -0.27,0.04 -0.06,0.07 -0.36,0.28 -0.49,0.33 -0.31,0.13 -0.67,0.24 -0.89,0.28 -0.14,0.02 -0.27,0.05 -0.29,0.08 -0.02,0.02 -0.08,0.04 -0.13,0.04 -0.04,0 -0.10,0.01 -0.13,0.04 -0.05,0.05 -0.62,0.21 -0.76,0.21 -0.13,0 -0.48,-0.15 -0.48,-0.21 0,-0.02 -0.03,-0.04 -0.08,-0.04 -0.04,0 -0.08,-0.01 -0.08,-0.03 0,-0.02 -0.08,-0.08 -0.19,-0.13 -0.25,-0.13 -0.31,-0.08 -0.24,0.21 0.03,0.11 0.05,0.38 0.06,0.59 0.00,0.33 -0.00,0.39 -0.08,0.51 -0.05,0.07 -0.09,0.14 -0.09,0.16 -2.93e-4,0.04 -0.25,0.31 -0.30,0.31 -0.02,0 -0.04,0.02 -0.04,0.06 0,0.08 0.13,0.08 0.41,0.00 0.11,-0.03 0.37,-0.09 0.57,-0.13 0.19,-0.04 0.59,-0.12 0.87,-0.17 0.28,-0.05 0.58,-0.11 0.66,-0.12 0.32,-0.04 0.92,-0.14 1.09,-0.18 0.09,-0.02 0.32,-0.05 0.51,-0.06 0.47,-0.03 0.54,-0.04 0.61,-0.07 0.03,-0.01 0.16,-0.03 0.29,-0.04 0.12,-0.00 0.39,-0.04 0.59,-0.08 0.19,-0.03 0.50,-0.08 0.68,-0.11 0.17,-0.02 0.45,-0.07 0.61,-0.10 0.16,-0.03 0.34,-0.06 0.39,-0.06 0.13,0 0.11,-0.06 -0.03,-0.12 -0.28,-0.11 -0.03,-0.18 0.40,-0.11 0.22,0.03 0.28,-0.00 0.23,-0.17 -0.05,-0.20 0.06,-0.58 0.20,-0.59 0.07,-0.01 0.09,0.00 0.09,0.07 0,0.06 0.02,0.08 0.10,0.08 0.09,0 0.10,0.01 0.10,0.16 0,0.18 0.00,0.19 0.39,0.24 0.28,0.03 0.25,0.10 0.26,-0.63 0.00,-0.47 0.01,-0.51 0.10,-0.58 0.05,-0.04 0.12,-0.08 0.14,-0.08 0.12,3.91e-4 0.24,0.55 0.25,1.15 l 0.00,0.23 0.20,0.05 c 0.22,0.05 0.32,0.12 0.32,0.21 0,0.07 -0.07,0.07 -0.32,0.01 -0.21,-0.05 -0.27,-0.03 -0.18,0.06 0.03,0.03 0.12,0.06 0.21,0.06 0.18,0 0.21,0.01 0.18,0.13 -0.01,0.06 -0.05,0.08 -0.16,0.08 -0.15,0 -0.20,0.07 -0.15,0.23 0.02,0.05 0.03,0.13 0.03,0.18 0.00,0.68 0.05,1.44 0.11,1.52 0.07,0.10 0.08,0.29 0.01,0.36 -0.03,0.03 -0.05,0.19 -0.05,0.40 -0.00,0.19 -0.01,0.60 -0.01,0.90 -0.01,0.54 0.00,0.69 0.08,0.71 0.02,0.00 0.05,0.01 0.08,0.01 0.02,0.00 0.07,0.01 0.12,0.01 0.04,0.00 0.09,0.04 0.10,0.11 0.01,0.07 0.05,0.10 0.11,0.10 0.10,0 0.20,0.09 0.20,0.18 0,0.03 0.02,0.07 0.05,0.08 0.02,0.00 0.03,0.04 0.02,0.08 -0.02,0.07 -0.14,0.07 -0.51,-0.01 -0.28,-0.06 -0.33,-0.01 -0.28,0.27 0.02,0.11 0.04,0.30 0.04,0.42 4.88e-4,0.60 0.00,0.73 0.05,0.78 0.02,0.03 0.05,0.22 0.05,0.41 0.00,0.19 0.01,0.37 0.02,0.38 0.01,0.01 0.01,0.09 8.79e-4,0.19 -0.01,0.09 -0.00,0.19 0.02,0.22 0.04,0.05 0.02,0.24 -0.03,0.24 -0.08,0 -0.16,-0.05 -0.16,-0.11 0,-0.12 -0.08,-0.05 -0.09,0.07 -0.01,0.15 -0.13,0.25 -0.21,0.17 -0.05,-0.05 -0.07,-0.17 -0.09,-0.51 -0.00,-0.09 -0.03,-0.20 -0.06,-0.24 -0.07,-0.08 -0.41,-0.20 -0.54,-0.19 -0.10,0.01 -0.11,0.02 -0.13,0.33 -0.04,0.60 -0.02,0.89 0.04,0.95 0.03,0.02 0.02,0.04 -0.01,0.06 -0.03,0.01 -0.04,0.06 -0.02,0.10 0.01,0.03 0.00,0.07 -0.01,0.07 -0.07,0 -0.03,0.31 0.04,0.38 0.07,0.05 0.07,0.07 0.01,0.22 -0.06,0.16 -0.14,0.20 -0.22,0.10 -0.02,-0.02 -0.04,-0.22 -0.04,-0.43 4.88e-4,-0.21 -0.01,-0.47 -0.02,-0.57 -0.01,-0.10 -0.03,-0.42 -0.04,-0.70 -0.01,-0.28 -0.03,-0.53 -0.04,-0.56 -0.00,-0.02 -0.06,-0.05 -0.12,-0.05 -0.05,0 -0.11,-0.01 -0.12,-0.03 -0.01,-0.02 -0.17,-0.05 -0.35,-0.06 -0.54,-0.04 -0.81,-0.15 -0.67,-0.28 0.05,-0.04 0.12,-0.04 0.35,-0.00 0.15,0.02 0.42,0.05 0.58,0.07 l 0.29,0.02 -0.26,-0.06 c -0.28,-0.06 -0.51,-0.18 -0.45,-0.24 0.01,-0.01 0.14,-0.01 0.28,0.00 0.14,0.02 0.29,0.03 0.35,0.01 0.08,-0.02 0.09,-0.04 0.07,-0.20 -0.01,-0.09 -0.04,-0.25 -0.06,-0.34 -0.03,-0.13 -0.06,-0.48 -0.07,-0.80 -4.88e-4,-0.01 -0.03,-0.05 -0.08,-0.07 -0.06,-0.03 -0.12,-0.02 -0.24,0.04 -0.08,0.04 -0.21,0.08 -0.28,0.08 -0.07,4.88e-4 -0.32,0.06 -0.55,0.15 -0.61,0.21 -1.60,0.49 -1.73,0.47 -0.06,-0.00 -0.10,0.01 -0.10,0.04 0,0.03 0.09,0.08 0.25,0.13 0.34,0.09 0.57,0.22 0.75,0.41 0.19,0.21 0.33,0.42 0.33,0.49 0,0.03 0.01,0.07 0.03,0.08 0.04,0.02 0.10,0.27 0.09,0.38 -0.00,0.04 -0.03,0.14 -0.06,0.20 -0.03,0.06 -0.06,0.15 -0.06,0.18 0,0.09 -0.18,0.22 -0.33,0.22 -0.16,0.00 -0.22,-0.09 -0.12,-0.20 0.13,-0.15 0.17,-0.38 0.11,-0.64 -0.11,-0.52 -0.38,-0.82 -0.93,-1.03 -0.16,-0.06 -0.20,-0.06 -0.28,-0.01 -0.07,0.04 -0.11,0.05 -0.18,0.01 -0.04,-0.02 -0.08,-0.06 -0.09,-0.07 -0.00,-0.01 -0.01,-0.08 -0.02,-0.14 -0.01,-0.06 7.82e-4,-0.12 0.02,-0.14 0.06,-0.04 0.05,-0.48 -0.01,-0.61 -0.03,-0.06 -0.11,-0.23 -0.18,-0.39 -0.13,-0.29 -0.22,-0.39 -0.39,-0.44 -0.05,-0.01 -0.12,-0.05 -0.16,-0.07 -0.03,-0.03 -0.24,-0.04 -0.59,-0.03 -0.50,0.00 -0.63,-0.01 -0.81,-0.12 -0.20,-0.12 -0.40,-0.17 -0.69,-0.19 -0.30,-0.01 -0.34,-0.00 -0.50,0.10 -0.09,0.06 -0.23,0.17 -0.29,0.23 -0.06,0.06 -0.16,0.11 -0.22,0.11 -0.13,0 -0.13,-0.01 -0.00,-0.18 0.15,-0.20 0.14,-0.24 -0.05,-0.21 -0.08,0.01 -0.22,0.05 -0.29,0.08 -0.07,0.03 -0.13,0.04 -0.13,0.03 0,-0.01 -0.04,0.00 -0.09,0.03 -0.10,0.06 -0.52,0.15 -0.74,0.15 -0.07,0 -0.14,0.02 -0.15,0.05 -0.01,0.04 -0.06,0.04 -0.23,-0.00 -0.27,-0.07 -0.32,-0.03 -0.36,0.25 -0.01,0.11 -0.07,0.29 -0.12,0.39 -0.05,0.09 -0.11,0.27 -0.12,0.39 -0.01,0.11 -0.05,0.25 -0.09,0.30 -0.03,0.05 -0.06,0.11 -0.06,0.14 -3.9e-4,0.03 -0.07,0.13 -0.17,0.22 -0.09,0.09 -0.20,0.22 -0.24,0.29 -0.10,0.20 -0.23,0.36 -0.29,0.36 -0.03,0 -0.04,0.01 -0.03,0.03 0.01,0.02 -0.00,0.06 -0.04,0.09 -0.10,0.08 -0.17,0.26 -0.16,0.40 0.00,0.09 -0.02,0.16 -0.11,0.25 -0.06,0.07 -0.17,0.22 -0.23,0.34 -0.06,0.11 -0.14,0.25 -0.19,0.30 -0.04,0.04 -0.08,0.11 -0.08,0.15 0,0.03 -0.02,0.09 -0.06,0.12 -0.03,0.02 -0.06,0.07 -0.06,0.10 0,0.07 -0.18,0.23 -0.26,0.23 -0.09,0 -0.09,0.10 -0.00,0.23 0.03,0.06 0.05,0.13 0.03,0.19 -0.01,0.04 -0.01,0.08 0.01,0.08 0.07,0 0.44,0.35 0.54,0.52 0.09,0.14 0.09,0.17 0.04,0.28 -0.08,0.17 -0.21,0.17 -0.32,-0.00 -0.19,-0.31 -0.34,-0.65 -0.34,-0.77 -3.91e-4,-0.09 -0.02,-0.14 -0.10,-0.17 -0.05,-0.02 -0.55,-0.47 -1.09,-1.00 -1.38,-1.33 -1.57,-1.54 -1.74,-1.76 -0.08,-0.11 -0.24,-0.33 -0.36,-0.48 -0.35,-0.46 -0.43,-0.71 -0.32,-1.00 0.02,-0.06 0.03,-0.27 0.02,-0.48 -0.01,-0.33 -0.01,-0.36 0.05,-0.35 0.04,0.00 0.07,0.03 0.06,0.06 -0.00,0.02 0.00,0.05 0.02,0.05 0.10,0 0.18,0.88 0.11,1.29 -0.02,0.16 -0.02,0.20 0.02,0.20 0.06,8.5e-5 0.71,0.65 1.12,1.13 0.59,0.68 0.70,0.79 0.87,0.79 0.08,0 0.17,0.02 0.20,0.04 0.08,0.08 0.22,-0.04 0.22,-0.20 0,-0.07 0.04,-0.24 0.10,-0.37 0.09,-0.22 0.11,-0.23 0.25,-0.23 0.14,0 0.39,0.08 0.46,0.15 0.05,0.05 0.41,0.14 0.58,0.14 l 0.14,1.95e-4 -0.11,-0.06 c -0.12,-0.06 -0.17,-0.18 -0.17,-0.38 0.00,-0.10 -0.02,-0.14 -0.11,-0.20 -0.10,-0.06 -0.15,-0.06 -0.36,-0.02 -0.18,0.03 -0.25,0.03 -0.29,-4.88e-4 -0.09,-0.09 -0.20,-0.05 -0.26,0.09 -0.03,0.08 -0.11,0.20 -0.17,0.26 -0.06,0.06 -0.15,0.20 -0.19,0.30 -0.05,0.12 -0.11,0.19 -0.18,0.20 -0.05,0.01 -0.11,0.01 -0.13,0.00 -0.04,-0.04 0.07,-0.43 0.20,-0.61 0.06,-0.09 0.12,-0.19 0.12,-0.21 2.93e-4,-0.01 0.06,-0.11 0.14,-0.20 l 0.14,-0.17 0.46,-0.00 c 0.49,-0.00 0.61,-0.03 0.69,-0.21 0.03,-0.08 -4.88e-4,-0.17 -0.08,-0.18 -0.01,-4.88e-4 -0.05,-0.01 -0.10,-0.03 -0.06,-0.02 -0.07,-0.05 -0.04,-0.22 0.03,-0.26 0.23,-0.60 0.54,-0.91 0.20,-0.21 0.31,-0.37 0.54,-0.86 0.16,-0.33 0.29,-0.62 0.29,-0.65 0,-0.02 0.02,-0.10 0.06,-0.18 0.13,-0.32 0.18,-0.44 0.21,-0.54 0.01,-0.05 0.04,-0.12 0.06,-0.15 0.01,-0.02 0.04,-0.12 0.06,-0.23 0.02,-0.18 0.02,-0.18 -0.07,-0.15 -0.05,0.01 -0.21,0.04 -0.34,0.05 -0.27,0.02 -0.30,-0.01 -0.16,-0.18 0.10,-0.12 0.20,-0.17 0.44,-0.20 0.28,-0.04 0.35,-0.12 0.41,-0.45 0.02,-0.15 0.06,-0.29 0.08,-0.32 0.04,-0.05 0.08,-0.53 0.03,-0.55 -0.01,-0.01 -0.04,0.04 -0.06,0.13 -0.01,0.10 -0.06,0.16 -0.12,0.20 -0.05,0.02 -0.11,0.07 -0.12,0.11 -0.01,0.04 -0.13,0.18 -0.27,0.31 -0.14,0.13 -0.27,0.28 -0.29,0.34 -0.02,0.05 -0.05,0.10 -0.08,0.10 -0.02,0 -0.09,0.09 -0.14,0.20 -0.05,0.11 -0.21,0.31 -0.34,0.45 -0.13,0.14 -0.23,0.27 -0.23,0.28 0,0.01 -0.06,0.10 -0.14,0.18 -0.12,0.13 -0.17,0.15 -0.39,0.16 -0.13,0.00 -0.39,0.03 -0.56,0.06 -0.16,0.02 -0.33,0.03 -0.37,0.02 -0.07,-0.02 -0.29,0.05 -0.44,0.16 -0.05,0.04 -0.13,0.07 -0.17,0.07 -0.04,0 -0.09,0.02 -0.11,0.05 -0.01,0.03 -0.13,0.11 -0.26,0.19 -0.12,0.07 -0.29,0.18 -0.38,0.25 -0.12,0.09 -0.21,0.12 -0.45,0.15 -0.33,0.02 -0.68,0.09 -0.81,0.15 -0.09,0.03 -0.40,0.12 -0.58,0.15 -0.15,0.02 -0.16,0.05 -0.18,0.38 -0.02,0.32 -0.00,0.43 0.10,0.54 0.08,0.08 0.10,0.32 0.03,0.37 -0.05,0.03 -0.20,0.00 -0.42,-0.09 -0.19,-0.08 -0.66,-0.14 -0.66,-0.08 0,0.10 0.06,0.18 0.19,0.23 0.07,0.03 0.16,0.10 0.19,0.16 0.02,0.06 0.08,0.10 0.13,0.10 0.09,0 0.19,0.11 0.19,0.20 0.00,0.06 0.62,0.69 0.81,0.82 0.16,0.11 0.75,0.70 1.04,1.03 0.14,0.16 0.41,0.46 0.60,0.66 0.57,0.60 0.88,0.96 0.88,1.06 0,0.23 -0.32,0.10 -0.62,-0.24 -0.11,-0.13 -0.30,-0.34 -0.42,-0.47 -0.12,-0.12 -0.22,-0.25 -0.22,-0.28 -9.7e-5,-0.02 -0.02,-0.05 -0.05,-0.05 -0.02,-1.95e-4 -0.35,-0.30 -0.71,-0.66 -0.36,-0.36 -0.73,-0.72 -0.82,-0.78 -0.08,-0.06 -0.27,-0.22 -0.41,-0.35 -0.14,-0.13 -0.30,-0.24 -0.39,-0.25 -0.18,-0.03 -0.41,-0.28 -0.63,-0.68 -0.13,-0.23 -0.16,-0.34 -0.14,-0.41 0.01,-0.05 0.03,-0.18 0.03,-0.28 0.00,-0.10 0.02,-0.24 0.03,-0.29 0.08,-0.29 0.13,-0.87 0.10,-1.06 -0.04,-0.22 -0.06,-0.34 -0.09,-0.57 -0.01,-0.09 -0.04,-0.19 -0.06,-0.24 -0.02,-0.04 -0.03,-0.10 -0.01,-0.13 0.01,-0.03 -0.01,-0.20 -0.06,-0.38 -0.04,-0.17 -0.08,-0.37 -0.08,-0.42 1.95e-4,-0.09 -0.09,-0.41 -0.19,-0.65 -0.03,-0.07 -0.05,-0.15 -0.05,-0.17 0,-0.19 -0.22,-0.37 -0.85,-0.70 -0.30,-0.16 -0.39,-0.18 -0.63,-0.18 -0.15,-0.00 -0.38,-0.01 -0.50,-0.03 -0.28,-0.04 -0.28,-0.01 -0.04,0.43 l 0.17,0.33 -0.05,0.38 c -0.03,0.26 -0.03,0.48 -0.01,0.70 0.02,0.18 0.02,0.37 0.00,0.44 -0.02,0.07 -0.03,0.22 -0.03,0.34 0,0.24 -0.05,0.31 -0.38,0.48 -0.10,0.05 -0.23,0.14 -0.29,0.20 -0.05,0.05 -0.13,0.11 -0.18,0.12 -0.13,0.04 -0.25,0.18 -0.25,0.30 -0.01,0.48 0.03,0.88 0.09,0.84 0.01,-0.01 0.08,0.03 0.13,0.10 0.12,0.16 0.78,0.83 0.98,0.99 0.07,0.06 0.30,0.23 0.49,0.37 0.19,0.14 0.35,0.27 0.35,0.30 0,0.02 0.02,0.04 0.05,0.04 0.02,7.81e-4 0.10,0.04 0.15,0.08 0.08,0.06 0.09,0.10 0.06,0.15 -0.02,0.03 -0.07,0.07 -0.12,0.07 -0.10,0.01 -0.53,-0.28 -0.88,-0.61 -0.14,-0.13 -0.46,-0.43 -0.70,-0.64 -0.39,-0.35 -0.46,-0.43 -0.42,-0.48 0.01,-0.01 -0.17,-0.19 -0.34,-0.33 -0.06,-0.05 -0.09,-0.12 -0.09,-0.25 -0.01,-0.74 -0.04,-1.20 -0.08,-1.24 -0.02,-0.02 -0.03,-0.06 -0.01,-0.08 0.01,-0.01 0.00,-0.02 -0.02,-0.02 -0.02,0 -0.04,0.03 -0.04,0.07 0,0.04 -0.02,0.10 -0.05,0.13 -0.03,0.03 -0.05,0.18 -0.04,0.44 0.00,0.44 -0.02,0.54 -0.18,0.54 l -0.11,8.4e-5 0.00,0.37 c 0.00,0.31 0.02,0.40 0.10,0.56 0.06,0.12 0.13,0.19 0.19,0.20 0.05,0.00 0.12,0.05 0.17,0.10 0.08,0.10 0.20,0.18 0.31,0.22 0.04,0.01 0.07,0.04 0.07,0.06 0,0.02 0.02,0.03 0.06,0.03 0.03,0 0.13,0.08 0.22,0.19 0.09,0.10 0.18,0.19 0.20,0.19 0.02,0 0.09,0.05 0.17,0.12 0.22,0.20 0.49,0.41 0.61,0.48 0.20,0.10 0.57,0.33 0.62,0.38 0.08,0.07 0.03,0.14 -0.13,0.19 -0.08,0.02 -0.16,0.05 -0.18,0.07 -0.01,0.01 0.04,0.12 0.12,0.25 0.15,0.22 0.19,0.40 0.10,0.43 -0.04,0.01 -0.03,0.04 0.15,0.41 0.08,0.15 0.36,0.20 0.36,0.06 0,-0.08 0.23,-0.28 0.32,-0.28 0.04,0 0.11,0.02 0.14,0.06 0.08,0.10 -0.06,0.45 -0.22,0.50 -0.15,0.05 -0.15,0.12 0.01,0.31 0.15,0.17 0.15,0.33 0.00,0.32 -0.09,-0.00 -0.13,0.12 -0.05,0.17 0.02,0.01 0.06,0.12 0.10,0.25 0.08,0.27 0.20,0.35 0.38,0.26 0.11,-0.06 0.87,-0.15 1.22,-0.14 0.25,0.00 0.34,0.03 0.34,0.12 0,0.25 -0.71,0.48 -1.01,0.32 -0.14,-0.07 -0.14,-0.07 -0.30,0.01 -0.09,0.05 -0.22,0.08 -0.32,0.08 -0.13,-0.00 -0.18,-0.03 -0.33,-0.20 z M 36.44,40.70 c -0.01,-0.16 -0.01,-0.64 -0.01,-1.06 0.00,-0.52 -0.00,-0.77 -0.04,-0.79 -0.06,-0.03 -0.51,0.00 -0.57,0.05 -0.03,0.03 -0.05,0.26 -0.05,0.92 0.00,0.93 0.01,1.01 0.19,1.04 0.05,0.00 0.14,0.04 0.21,0.08 0.06,0.03 0.15,0.06 0.20,0.05 0.07,-0.00 0.08,-0.03 0.06,-0.30 z M 32.62,39.59 c 0.12,-0.05 0.24,-0.10 0.26,-0.10 0.01,0 0.11,-0.03 0.20,-0.07 0.09,-0.03 0.19,-0.07 0.22,-0.08 0.03,-0.00 0.08,-0.03 0.10,-0.06 0.03,-0.03 0.02,-0.04 -0.05,-0.01 -0.10,0.03 -0.33,0.08 -0.85,0.20 -0.18,0.04 -0.23,0.07 -0.24,0.14 -0.01,0.12 0.06,0.12 0.35,-0.01 z m 0.09,-0.40 c 0.20,-0.04 0.45,-0.11 0.56,-0.14 0.10,-0.03 0.34,-0.09 0.53,-0.13 0.18,-0.03 0.46,-0.10 0.61,-0.15 0.15,-0.04 0.35,-0.09 0.43,-0.10 0.19,-0.03 0.21,-0.12 0.03,-0.16 -0.14,-0.03 -0.20,-0.09 -0.13,-0.15 0.02,-0.02 0.07,-0.02 0.13,0.00 0.05,0.02 0.12,0.03 0.16,0.02 0.07,-0.02 0.07,-0.08 0.07,-0.71 -0.00,-0.38 -0.02,-0.71 -0.04,-0.75 -0.01,-0.03 -0.06,-0.04 -0.10,-0.02 -0.10,0.03 -0.57,0.14 -0.96,0.21 -0.18,0.03 -0.39,0.07 -0.45,0.10 -0.06,0.02 -0.16,0.04 -0.23,0.04 -0.37,-6.83e-4 -1.58,0.08 -1.68,0.12 -0.06,0.02 -0.22,0.05 -0.36,0.07 -0.13,0.01 -0.28,0.04 -0.32,0.06 -0.03,0.01 -0.16,0.04 -0.29,0.05 -0.12,0.01 -0.28,0.04 -0.36,0.06 -0.15,0.05 -0.30,0.07 -0.54,0.08 -0.08,0.00 -0.16,0.02 -0.16,0.04 0,0.02 0.08,0.09 0.17,0.15 0.16,0.10 0.19,0.11 0.31,0.06 0.20,-0.07 0.68,-0.06 0.99,0.03 0.29,0.08 0.53,0.22 0.72,0.42 0.12,0.12 0.38,0.61 0.38,0.70 0,0.04 0.08,0.15 0.11,0.15 0.00,0 0.18,-0.03 0.38,-0.08 z M 31.82,38.72 c 0,-0.05 -0.07,-0.09 -0.10,-0.05 -0.02,0.04 0.01,0.09 0.06,0.09 0.01,0 0.03,-0.01 0.03,-0.04 z m 4.43,-0.25 c 0.00,-0.02 4.88e-4,-0.05 -0.01,-0.05 -0.13,-0.01 -0.21,-0.02 -0.29,-0.05 -0.15,-0.05 -0.16,0.05 -0.00,0.12 0.15,0.06 0.29,0.06 0.32,-0.01 z m 0.14,-0.55 c -0.00,-0.45 -0.05,-1.25 -0.08,-1.35 -0.03,-0.11 -0.09,-0.14 -0.27,-0.14 -0.08,-2.93e-4 -0.17,-0.02 -0.20,-0.04 -0.02,-0.02 -0.07,-0.03 -0.11,-0.02 -0.05,0.01 -0.06,0.05 -0.03,0.16 0.03,0.16 0.04,0.27 0.08,1.01 0.01,0.31 0.04,0.59 0.06,0.61 0.03,0.03 0.45,0.10 0.53,0.09 0.02,-0.00 0.03,-0.14 0.03,-0.31 z m -9.73,0.04 c 0.37,-0.05 0.41,-0.07 0.58,-0.16 0.11,-0.06 0.25,-0.09 0.49,-0.10 0.23,-0.00 0.33,-0.02 0.31,-0.05 -0.03,-0.05 -0.86,0.01 -0.98,0.08 -0.02,0.01 -0.12,0.03 -0.20,0.04 -0.08,0.00 -0.23,0.03 -0.32,0.05 -0.13,0.03 -0.16,0.03 -0.18,-0.01 -0.03,-0.08 -0.01,-0.09 0.20,-0.14 0.10,-0.02 0.30,-0.06 0.44,-0.10 0.42,-0.10 0.98,-0.19 1.20,-0.19 0.16,-9.8e-5 0.85,-0.09 1.02,-0.14 0.18,-0.05 0.45,-0.13 0.61,-0.18 0.27,-0.08 0.55,-0.13 1.09,-0.18 0.76,-0.06 1.13,-0.11 1.38,-0.18 0.12,-0.03 0.42,-0.10 0.66,-0.15 0.23,-0.05 0.45,-0.10 0.49,-0.11 0.03,-0.01 0.14,-0.02 0.24,-0.03 0.09,-0.00 0.21,-0.03 0.26,-0.05 0.04,-0.02 0.13,-0.03 0.20,-0.02 0.06,0.01 0.21,-0.00 0.32,-0.04 0.11,-0.03 0.23,-0.05 0.26,-0.04 0.10,0.03 0.11,-0.06 0.01,-0.11 -0.22,-0.11 -0.21,-0.22 0.03,-0.19 0.10,0.01 0.19,0.01 0.19,0.00 0,-0.03 -0.12,-0.14 -0.16,-0.14 -0.02,0 -0.04,-0.01 -0.04,-0.04 0,-0.02 0.03,-0.04 0.08,-0.04 0.04,0 0.09,-0.02 0.11,-0.05 0.06,-0.09 0.04,-1.42 -0.02,-1.50 -0.08,-0.10 -0.16,-0.08 -0.29,0.04 -0.16,0.17 -0.28,0.21 -0.75,0.26 -0.71,0.07 -0.89,0.10 -0.99,0.16 -0.10,0.05 -0.14,0.06 -0.64,0.11 -0.45,0.04 -1.62,0.23 -2.18,0.35 -0.10,0.02 -0.31,0.03 -0.45,0.02 -0.28,-0.01 -0.59,0.02 -1.03,0.15 -0.15,0.04 -0.39,0.10 -0.53,0.13 -0.14,0.03 -0.33,0.09 -0.42,0.12 -0.09,0.03 -0.17,0.06 -0.18,0.04 -0.01,-0.01 -0.05,-0.00 -0.09,0.01 -0.04,0.02 -0.15,0.04 -0.26,0.04 -0.19,0.00 -0.33,0.09 -0.33,0.19 0,0.02 -0.04,0.11 -0.10,0.18 -0.05,0.06 -0.10,0.15 -0.10,0.18 0,0.05 -0.11,0.36 -0.24,0.66 -0.03,0.07 -0.05,0.15 -0.05,0.18 0,0.02 -0.02,0.11 -0.05,0.18 -0.03,0.07 -0.10,0.25 -0.15,0.41 -0.05,0.15 -0.11,0.29 -0.13,0.32 -0.02,0.02 -0.02,0.07 -0.01,0.11 0.02,0.05 0.05,0.05 0.26,0.00 0.13,-0.03 0.35,-0.07 0.50,-0.09 z M 8.93,37.73 c -0.01,-0.02 -0.04,-0.04 -0.07,-0.04 -0.03,3.91e-4 -0.02,0.01 0.01,0.04 0.08,0.05 0.09,0.05 0.06,0 z M 29.47,37.59 c 0.02,-0.03 0.10,-0.07 0.16,-0.08 0.06,-0.01 0.26,-0.05 0.43,-0.08 0.17,-0.03 0.40,-0.10 0.51,-0.14 0.10,-0.04 0.30,-0.09 0.43,-0.11 0.13,-0.01 0.25,-0.04 0.27,-0.07 0.01,-0.02 -0.02,-0.03 -0.13,-0.02 -0.96,0.13 -1.09,0.15 -1.53,0.26 -0.16,0.03 -0.34,0.07 -0.40,0.08 -0.05,0.00 -0.18,0.02 -0.27,0.04 l -0.16,0.03 0.27,0.07 c 0.35,0.09 0.36,0.09 0.42,0.02 z M 28.53,37.56 c 0.04,-0.03 0.03,-0.04 -0.07,-0.04 -0.07,-3.9e-4 -0.13,0.01 -0.13,0.04 0,0.05 0.12,0.05 0.21,0 z m -8.92,-0.53 c 0.10,-0.05 0.18,-0.11 0.18,-0.13 0.02,-0.29 0.24,-0.81 0.35,-0.86 0.03,-0.01 0.11,-0.06 0.16,-0.12 0.11,-0.12 0.36,-0.13 0.59,-0.02 0.13,0.06 0.15,0.06 0.19,0.01 0.02,-0.03 0.04,-0.10 0.04,-0.14 5.86e-4,-0.04 0.04,-0.18 0.10,-0.31 0.06,-0.13 0.09,-0.24 0.07,-0.26 -0.02,-0.02 -0.19,-0.05 -0.38,-0.07 -0.19,-0.01 -0.36,-0.04 -0.37,-0.06 -0.01,-0.01 -0.00,-0.05 0.02,-0.09 0.08,-0.10 0.78,-0.09 0.95,0.01 0.07,0.04 0.24,0.09 0.37,0.10 l 0.24,0.02 0.16,-0.19 c 0.08,-0.10 0.17,-0.20 0.20,-0.21 0.02,-0.00 0.08,-0.06 0.14,-0.11 0.26,-0.26 0.77,-0.50 0.84,-0.40 0.04,0.06 0.22,0.05 0.26,-0.02 0.07,-0.13 0.40,-0.43 0.53,-0.50 0.32,-0.15 0.72,-0.70 0.76,-1.06 0.01,-0.14 0.05,-0.22 0.11,-0.26 0.08,-0.05 0.08,-0.08 0.06,-0.25 -0.01,-0.10 -0.05,-0.24 -0.08,-0.30 -0.03,-0.06 -0.07,-0.17 -0.08,-0.26 -0.01,-0.08 -0.04,-0.16 -0.06,-0.19 -0.01,-0.02 -0.04,-0.09 -0.04,-0.14 -0.00,-0.05 -0.02,-0.12 -0.04,-0.15 -0.01,-0.02 -0.02,-0.05 -0.00,-0.05 0.01,0 0.01,-0.02 -0.01,-0.05 -0.02,-0.02 -0.05,-0.14 -0.07,-0.26 -0.04,-0.29 -0.08,-0.35 -0.50,-0.63 -0.39,-0.26 -0.54,-0.39 -0.54,-0.45 0,-0.02 -0.09,-0.12 -0.20,-0.22 -0.11,-0.10 -0.34,-0.32 -0.51,-0.49 -0.17,-0.17 -0.34,-0.30 -0.38,-0.30 -0.04,9.7e-5 -0.13,0.02 -0.20,0.06 -0.06,0.03 -0.31,0.12 -0.55,0.20 -0.23,0.07 -0.62,0.24 -0.85,0.36 -0.70,0.36 -1.12,0.50 -2.20,0.69 -0.23,0.04 -0.32,0.07 -0.33,0.12 -0.00,0.04 0.02,0.07 0.13,0.09 0.08,0.01 0.15,0.04 0.15,0.06 0,0.02 0.02,0.03 0.06,0.03 0.03,0 0.21,0.09 0.39,0.21 0.17,0.11 0.33,0.21 0.35,0.21 0.05,0 0.35,0.39 0.43,0.55 0.15,0.32 0.38,0.86 0.45,1.05 0.15,0.41 0.15,1.10 0.00,1.85 -0.05,0.30 -0.09,0.63 -0.09,0.78 0.00,0.09 -0.04,0.17 -0.17,0.30 -0.09,0.09 -0.24,0.30 -0.32,0.46 -0.07,0.15 -0.15,0.28 -0.17,0.28 -0.01,0 -0.06,0.09 -0.10,0.20 -0.03,0.11 -0.08,0.24 -0.10,0.28 -0.09,0.25 -0.21,0.70 -0.19,0.74 0.03,0.06 0.03,0.06 0.24,-0.05 z m 15.85,-0.15 c 0,-0.02 -0.02,-0.04 -0.04,-0.04 -0.02,0 -0.03,0.01 -0.01,0.04 0.01,0.02 0.03,0.04 0.04,0.04 0.01,0 0.01,-0.01 0.01,-0.04 z m -21.56,-0.04 c -0.01,-0.02 -0.03,-0.04 -0.04,-0.04 -0.01,0 -0.01,0.01 -0.01,0.04 0,0.02 0.02,0.04 0.04,0.04 0.02,0 0.03,-0.01 0.01,-0.04 z m 19.09,-0.07 c -0.02,-0.01 -0.07,-0.01 -0.10,0 -0.02,0.01 -0.00,0.02 0.05,0.02 0.05,0 0.08,-0.00 0.05,-0.02 z m 0.75,-0.05 c 0.27,-0.03 0.28,-0.13 0.00,-0.11 -0.32,0.02 -0.69,0.10 -0.66,0.15 0.02,0.03 0.12,0.03 0.65,-0.04 z m 1.71,0.01 c 0,-0.03 -0.01,-0.06 -0.04,-0.06 -0.02,0 -0.04,0.02 -0.04,0.06 0,0.03 0.01,0.06 0.04,0.06 0.02,0 0.04,-0.02 0.04,-0.06 z m -0.82,-0.18 c 0.01,-0.04 -0.02,-0.05 -0.18,-0.02 -0.32,0.04 -0.37,0.10 -0.08,0.09 0.16,-0.00 0.25,-0.03 0.27,-0.06 z m 0.44,-0.05 c 0.02,0 0.03,-0.01 0.03,-0.04 0,-0.05 -0.19,-0.05 -0.23,-0.00 -0.03,0.05 0.02,0.09 0.09,0.07 0.03,-0.01 0.07,-0.02 0.09,-0.02 z m 0.33,-0.57 c 0,-0.01 -0.02,-0.01 -0.06,-0.01 -0.03,0 -0.05,0.01 -0.03,0.04 0.02,0.03 0.10,0.02 0.10,-0.02 z m 1.25,-0.32 c -0.00,-0.12 -0.00,-0.47 -0.01,-0.76 -0.00,-0.59 -0.02,-0.72 -0.11,-0.72 -0.07,0 -0.08,0.17 -0.03,1.19 0.02,0.50 0.03,0.57 0.11,0.54 0.03,-0.01 0.04,-0.10 0.04,-0.24 z m -0.42,-0.13 c -0.01,-0.16 -0.03,-0.53 -0.03,-0.82 -0.00,-0.29 -0.02,-0.54 -0.04,-0.56 -0.06,-0.05 -0.31,-0.13 -0.45,-0.13 -0.14,0 -0.18,0.08 -0.14,0.32 0.01,0.09 0.03,0.38 0.04,0.65 0.01,0.54 0.03,0.75 0.07,0.79 0.03,0.03 0.50,0.09 0.55,0.06 0.01,-0.00 0.02,-0.15 0.00,-0.31 z m -0.84,0.03 c 0.00,-0.08 -0.00,-0.15 -0.03,-0.15 -0.02,0 -0.04,0.03 -0.04,0.07 -0.00,0.04 -0.01,0.11 -0.02,0.17 -0.01,0.06 -7.81e-4,0.09 0.03,0.08 0.02,-0.00 0.05,-0.08 0.06,-0.17 z m -24.34,-0.04 c 0.18,-0.07 0.26,-0.21 0.33,-0.52 l 0.05,-0.25 -0.16,-0.19 c -0.08,-0.10 -0.18,-0.19 -0.21,-0.18 -0.02,0.00 -0.04,0.08 -0.05,0.16 -0.01,0.39 -0.11,0.73 -0.25,0.85 -0.18,0.15 0.02,0.26 0.29,0.15 z m 16.20,-0.13 c 0.22,-0.07 0.22,-0.09 0.04,-0.12 -0.06,-0.00 -0.15,-0.02 -0.19,-0.04 -0.04,-0.01 -0.08,5.86e-4 -0.11,0.05 -0.10,0.19 -0.04,0.21 0.26,0.10 z M 14.35,34.58 c 0.20,-0.65 0.19,-1.06 -0.03,-1.93 -0.19,-0.73 -0.28,-1.04 -0.34,-1.13 -0.03,-0.04 -0.07,-0.17 -0.08,-0.28 -0.01,-0.10 -0.04,-0.19 -0.06,-0.19 -0.01,0 -0.07,-0.13 -0.12,-0.29 -0.09,-0.31 -0.16,-0.37 -0.27,-0.20 -0.05,0.08 -0.05,0.13 0.02,0.43 0.04,0.18 0.08,0.37 0.08,0.40 0.00,0.03 0.02,0.08 0.04,0.11 0.02,0.02 0.02,0.07 0.01,0.09 -0.04,0.07 0.02,0.47 0.08,0.47 0.05,0 0.31,0.61 0.31,0.73 0,0.02 0.04,0.21 0.08,0.41 0.06,0.28 0.08,0.48 0.08,0.86 -0.00,0.27 -0.00,0.54 -0.00,0.60 0.00,0.19 0.11,0.14 0.18,-0.08 z m 16.31,0.05 c 0.12,-0.03 0.33,-0.06 0.44,-0.06 0.23,-0.00 0.40,-0.03 0.40,-0.08 0,-0.03 -0.00,-0.03 -0.67,0.06 -0.26,0.04 -0.46,0.09 -0.45,0.10 0.02,0.04 -0.00,0.04 0.27,-0.02 z m 4.68,-0.65 c -0.03,-0.09 -0.10,-0.12 -0.09,-0.03 0.01,0.07 0.07,0.16 0.09,0.14 0.01,-0.01 0.00,-0.06 -0.00,-0.10 z m 1.21,-0.21 c 0,-0.02 -0.01,-0.04 -0.04,-0.04 -0.02,0 -0.04,0.01 -0.04,0.04 0,0.02 0.01,0.04 0.04,0.04 0.02,0 0.04,-0.01 0.04,-0.04 z m -0.39,-0.06 c 0.03,-0.09 -0.02,-0.12 -0.35,-0.13 -0.25,-0.01 -0.28,-0.00 -0.26,0.06 0.02,0.12 0.57,0.19 0.62,0.07 z m 0.33,-0.76 c 0,-0.08 -0.01,-0.13 -0.02,-0.12 -0.03,0.02 -0.01,0.27 0.01,0.27 0.00,0 0.01,-0.06 0.01,-0.14 z m -9.84,-0.45 0.26,-0.26 0.02,-0.53 c 0.03,-0.60 0.05,-0.84 0.12,-1.23 0.04,-0.26 0.04,-0.26 -0.09,-0.49 -0.07,-0.12 -0.23,-0.34 -0.35,-0.49 -0.11,-0.14 -0.25,-0.37 -0.31,-0.51 -0.05,-0.13 -0.14,-0.29 -0.19,-0.36 -0.05,-0.07 -0.15,-0.22 -0.21,-0.34 -0.06,-0.11 -0.15,-0.26 -0.21,-0.32 -0.13,-0.16 -0.50,-0.93 -0.66,-1.38 -0.08,-0.23 -0.22,-0.40 -0.33,-0.40 -0.11,0 -0.30,-0.10 -0.30,-0.16 -1.95e-4,-0.02 -0.02,-0.05 -0.05,-0.05 -0.03,0 -0.17,-0.07 -0.32,-0.17 -0.26,-0.17 -0.27,-0.17 -0.42,-0.11 -0.08,0.03 -0.18,0.07 -0.22,0.08 -0.12,0.03 -0.08,0.14 0.19,0.53 0.48,0.65 0.52,0.71 0.62,0.90 0.13,0.24 0.14,0.37 0.02,0.40 -0.06,0.02 -0.12,-0.01 -0.22,-0.10 -0.07,-0.07 -0.16,-0.12 -0.18,-0.10 -0.02,0.01 -0.04,0.11 -0.04,0.21 0,0.20 0.08,0.34 0.40,0.65 0.10,0.10 0.19,0.20 0.19,0.22 1.95e-4,0.01 0.14,0.18 0.32,0.36 0.61,0.65 0.69,0.76 0.60,0.94 -0.02,0.04 -0.04,0.10 -0.03,0.13 0.01,0.06 0.43,0.48 0.48,0.48 0.01,0 0.04,-0.03 0.05,-0.07 0.03,-0.11 0.17,-0.22 0.24,-0.19 0.07,0.03 0.09,0.07 0.21,0.48 0.10,0.37 0.12,1.33 0.03,1.50 -0.03,0.07 -0.03,0.15 0.00,0.38 0.03,0.16 0.07,0.29 0.08,0.29 0.01,0 0.15,-0.11 0.30,-0.26 z m 0.98,-2.94 c 0.08,0 0.50,-0.39 0.50,-0.46 0,-0.05 0.25,-0.30 0.31,-0.30 0.02,-2.93e-4 0.09,-0.03 0.15,-0.08 0.43,-0.34 0.65,-0.51 0.67,-0.51 0.08,0 0.14,-0.22 0.15,-0.56 0.00,-0.20 0.03,-0.43 0.06,-0.50 0.04,-0.10 0.04,-0.16 -0.00,-0.30 -0.07,-0.25 -0.08,-0.38 -0.01,-0.79 0.03,-0.19 0.06,-0.43 0.07,-0.51 0.00,-0.08 0.01,-0.19 0.01,-0.25 0.00,-0.06 0.07,-0.22 0.15,-0.35 0.13,-0.22 0.14,-0.26 0.12,-0.48 -0.01,-0.13 -0.03,-0.25 -0.03,-0.26 -0.00,-0.01 -0.02,-0.15 -0.04,-0.32 -0.01,-0.16 -0.04,-0.34 -0.06,-0.39 -0.01,-0.05 -0.04,-0.21 -0.06,-0.36 -0.01,-0.14 -0.03,-0.30 -0.05,-0.33 -0.01,-0.03 -0.03,-0.10 -0.04,-0.14 -0.02,-0.12 -0.17,-0.61 -0.33,-1.12 -0.07,-0.24 -0.14,-0.50 -0.14,-0.57 -7.81e-4,-0.07 -0.03,-0.21 -0.08,-0.31 -0.04,-0.09 -0.08,-0.19 -0.08,-0.21 -7.81e-4,-0.02 -0.05,-0.11 -0.12,-0.19 -0.06,-0.08 -0.15,-0.20 -0.19,-0.27 -0.09,-0.17 -0.17,-0.29 -0.20,-0.32 -0.01,-0.01 -0.12,-0.16 -0.25,-0.34 -0.37,-0.52 -0.50,-0.63 -0.44,-0.38 0.02,0.11 0.60,1.30 0.69,1.42 0.01,0.02 0.07,0.16 0.13,0.30 0.05,0.14 0.14,0.36 0.20,0.49 0.17,0.39 0.39,0.94 0.42,1.09 0.01,0.04 0.05,0.34 0.10,0.66 0.04,0.31 0.10,0.61 0.12,0.65 0.04,0.06 0.12,0.69 0.14,1.14 0.01,0.21 -0.08,0.45 -0.28,0.69 -0.07,0.08 -0.20,0.24 -0.28,0.35 -0.15,0.20 -0.37,0.37 -0.55,0.42 -0.09,0.03 -0.16,0.07 -0.52,0.37 -0.07,0.06 -0.18,0.11 -0.22,0.11 -0.04,0 -0.11,0.03 -0.14,0.07 -0.03,0.03 -0.11,0.09 -0.19,0.12 l -0.13,0.05 0.01,0.65 c 0.00,0.35 0.02,0.82 0.04,1.03 0.01,0.21 0.02,0.50 0.02,0.66 -0.01,0.38 0.01,0.44 0.17,0.41 0.07,-0.01 0.16,-0.02 0.21,-0.02 z m 2.60,-2.34 c 0.11,-0.11 0.22,-0.27 0.26,-0.35 0.10,-0.24 0.86,-1.06 0.99,-1.06 0.04,-3.91e-4 0.10,-0.01 0.14,-0.04 0.05,-0.03 0.05,-0.05 -0.02,-0.15 -0.08,-0.11 -0.15,-0.24 -0.16,-0.33 -0.00,-0.02 -0.01,-0.05 -0.02,-0.07 -0.00,-0.01 -0.01,-0.04 -0.02,-0.06 -0.07,-0.24 -0.17,-0.39 -0.27,-0.42 -0.22,-0.04 -0.75,-0.24 -0.82,-0.30 -0.19,-0.16 -0.25,0.05 -0.26,0.90 -0.00,0.30 -0.03,0.77 -0.06,1.04 -0.07,0.63 -0.05,1.06 0.03,1.06 0.01,0 0.12,-0.09 0.23,-0.20 z M 19.74,25.74 c -0.01,-0.03 -0.03,-0.06 -0.04,-0.06 -0.00,0 -0.01,0.02 -0.01,0.06 0,0.03 0.01,0.06 0.04,0.06 0.02,0 0.03,-0.02 0.01,-0.06 z m -0.12,-0.22 c -0.03,-0.13 -0.08,-0.21 -0.12,-0.17 -0.02,0.02 0.09,0.28 0.13,0.28 0.01,0 0.00,-0.05 -0.00,-0.11 z m -0.15,-0.44 c -0.02,-0.10 -0.04,-0.21 -0.05,-0.24 -0.00,-0.03 -0.02,-0.09 -0.03,-0.12 -0.01,-0.03 -0.03,-0.12 -0.04,-0.19 -0.01,-0.07 -0.03,-0.17 -0.04,-0.23 -0.07,-0.31 -0.07,-0.38 -0.00,-0.50 0.04,-0.06 0.07,-0.16 0.07,-0.23 0.00,-0.20 0.08,-0.22 0.23,-0.07 0.07,0.07 0.13,0.16 0.13,0.19 0,0.03 0.04,0.10 0.09,0.15 0.05,0.05 0.13,0.17 0.18,0.26 0.05,0.09 0.12,0.17 0.15,0.18 0.15,0.03 0.08,-0.24 -0.26,-1.13 -0.02,-0.05 -0.02,-0.10 -0.00,-0.11 0.01,-0.01 0.00,-0.04 -0.02,-0.05 -0.05,-0.03 -0.14,-0.42 -0.25,-1.07 -0.09,-0.58 -0.09,-1.87 0.00,-2.52 0.04,-0.28 0.06,-0.53 0.04,-0.57 -0.01,-0.04 -0.03,-0.09 -0.03,-0.10 -0.00,-0.01 -0.01,-0.04 -0.03,-0.06 -0.01,-0.01 -0.03,-0.06 -0.03,-0.09 -3.9e-4,-0.03 -0.01,-0.09 -0.04,-0.13 -0.03,-0.05 -0.06,-0.04 -0.16,0.05 -0.11,0.10 -0.12,0.15 -0.15,0.46 -0.01,0.18 -0.04,0.37 -0.06,0.41 -0.04,0.08 -0.15,0.72 -0.13,0.80 0.00,0.02 -0.01,0.15 -0.05,0.27 -0.03,0.12 -0.06,0.23 -0.06,0.24 0.00,0.07 -0.05,0.17 -0.09,0.15 -0.03,-0.01 -0.04,-0.12 -0.03,-0.35 0.01,-0.56 0.06,-0.85 0.19,-1.35 0.10,-0.38 0.09,-0.42 -0.07,-0.39 -0.25,0.05 -0.30,0.11 -0.37,0.49 -0.10,0.51 -0.14,1.60 -0.06,1.97 0.01,0.09 0.03,0.20 0.03,0.25 0.00,0.04 0.01,0.14 0.03,0.21 0.01,0.07 0.04,0.36 0.05,0.66 0.01,0.35 0.04,0.62 0.10,0.81 0.30,0.98 0.49,1.54 0.60,1.73 0.06,0.12 0.11,0.23 0.09,0.24 -0.01,0.01 -0.00,0.02 0.02,0.02 0.02,0 0.04,0.01 0.02,0.04 -0.03,0.05 0.01,0.13 0.06,0.10 0.01,-0.01 0.01,-0.10 -0.00,-0.20 z m 0.52,-4.08 c 0.03,-0.07 0.60,-0.52 0.75,-0.59 0.08,-0.04 0.19,-0.11 0.24,-0.15 0.10,-0.10 0.04,-0.14 -0.19,-0.15 -0.12,-0.00 -0.22,-0.04 -0.37,-0.15 -0.11,-0.08 -0.21,-0.17 -0.21,-0.19 0,-0.01 -0.04,-0.04 -0.09,-0.06 -0.17,-0.05 -0.20,0.06 -0.20,0.73 0,0.34 0.01,0.61 0.03,0.61 0.02,0 0.04,-0.01 0.05,-0.03 z m 5.85,-0.29 c 0.16,-0.17 0.25,-0.33 0.25,-0.45 0,-0.13 -0.05,-0.16 -0.19,-0.10 -0.06,0.02 -0.17,0.05 -0.24,0.06 -0.07,0.00 -0.14,0.04 -0.15,0.06 -0.04,0.07 -0.03,0.31 0.01,0.35 0.02,0.01 0.03,0.05 0.02,0.08 -0.05,0.14 0.17,0.14 0.31,-0.01 z m -0.47,0.03 c 0,-0.02 -0.03,-0.10 -0.06,-0.19 -0.03,-0.08 -0.06,-0.21 -0.05,-0.28 0.01,-0.13 -0.14,-0.33 -0.26,-0.33 -0.10,0 -0.17,-0.08 -0.17,-0.24 0,-0.08 -0.03,-0.17 -0.08,-0.22 -0.04,-0.04 -0.08,-0.11 -0.08,-0.14 0,-0.03 -0.01,-0.07 -0.04,-0.09 -0.03,-0.03 -0.07,-0.15 -0.08,-0.28 -0.00,-0.01 -0.05,-0.02 -0.12,-0.02 -0.11,0.01 -0.11,0.00 -0.10,-0.17 0.00,-0.19 0.10,-0.41 0.23,-0.57 0.08,-0.09 0.26,-0.77 0.23,-0.86 -0.01,-0.03 -0.09,-0.05 -0.21,-0.05 -0.10,0 -0.23,-0.01 -0.27,-0.04 -0.06,-0.03 -0.13,-0.01 -0.35,0.11 -0.26,0.15 -0.41,0.32 -0.41,0.47 0,0.11 -0.14,0.22 -0.25,0.19 -0.04,-0.01 -0.08,-0.01 -0.08,0.01 0,0.10 0.18,0.43 0.36,0.64 0.10,0.12 0.25,0.31 0.32,0.41 0.14,0.20 0.46,0.83 0.46,0.90 0,0.11 0.27,0.37 0.47,0.45 0.11,0.04 0.21,0.10 0.21,0.12 0,0.04 0.11,0.14 0.25,0.20 0.09,0.04 0.12,0.04 0.12,-0.00 z m -0.49,-0.33 c -0.02,-0.01 -0.06,-0.09 -0.07,-0.16 -0.02,-0.10 -0.01,-0.13 0.04,-0.16 0.10,-0.04 0.16,0.03 0.16,0.19 0,0.14 -0.04,0.19 -0.13,0.13 z m -0.91,-2.04 c 0,-0.23 0.21,-0.48 0.33,-0.40 0.04,0.02 0.04,0.05 -0.01,0.13 -0.03,0.05 -0.06,0.13 -0.06,0.17 0,0.06 -0.14,0.20 -0.22,0.20 -0.01,0 -0.03,-0.04 -0.03,-0.10 z m -0.08,-0.51 c 0,-0.12 0.58,-0.48 0.70,-0.43 0.07,0.02 0.06,0.04 -0.06,0.16 -0.29,0.27 -0.64,0.41 -0.64,0.26 z m 11.54,2.71 c 0.07,-0.35 -0.05,-1.49 -0.17,-1.49 -0.01,0 -0.05,0.14 -0.08,0.31 -0.04,0.24 -0.04,0.34 -0.00,0.41 0.02,0.05 0.05,0.23 0.07,0.41 0.01,0.29 0.03,0.47 0.05,0.51 0.00,0.00 0.02,0.00 0.05,-0.00 0.02,-0.00 0.06,-0.08 0.08,-0.16 z m 1.01,-0.43 c -0.08,-0.35 -0.16,-0.38 -0.15,-0.05 0.01,0.28 0.05,0.37 0.13,0.26 0.03,-0.04 0.04,-0.11 0.01,-0.20 z m -1.58,0.05 c 0,-0.14 -0.01,-0.17 -0.08,-0.17 -0.07,0 -0.08,0.01 -0.05,0.13 0.05,0.26 0.14,0.28 0.14,0.03 z M 25.81,19.96 c 0.07,-0.05 0.07,-0.07 0.02,-0.10 -0.07,-0.04 -0.39,-0.04 -0.47,0.00 -0.10,0.06 0.00,0.12 0.32,0.15 0.02,0.00 0.08,-0.02 0.12,-0.05 z m 0.42,-0.40 c 0.01,-0.02 0.06,-0.04 0.10,-0.04 0.10,0 0.11,-0.02 0.15,-0.26 l 0.03,-0.20 -0.14,0 c -0.08,0 -0.25,0.01 -0.37,0.04 -0.29,0.05 -0.80,-0.00 -0.95,-0.11 -0.11,-0.08 -0.22,-0.29 -0.20,-0.39 0.00,-0.03 -0.00,-0.08 -0.03,-0.11 -0.02,-0.03 -0.04,-0.07 -0.03,-0.09 0.00,-0.02 -0.00,-0.03 -0.03,-0.03 -0.04,0 -0.04,0.17 -0.01,0.45 0.02,0.22 0.32,0.72 0.46,0.77 0.11,0.04 1.01,0.03 1.04,-0.01 z m 7.46,-0.62 c 0,-0.01 -0.02,-0.01 -0.06,-0.01 -0.03,0 -0.05,0.01 -0.03,0.04 0.02,0.03 0.10,0.02 0.10,-0.02 z m -7.35,-0.17 c 0.16,-0.03 0.19,-0.05 0.23,-0.18 0.03,-0.11 0.03,-0.18 -0.01,-0.34 -0.03,-0.10 -0.06,-0.31 -0.07,-0.45 -0.04,-0.58 -0.10,-0.78 -0.23,-0.79 -0.04,-0.00 -0.12,-0.00 -0.16,-0.00 -0.16,-0.00 -0.40,0.26 -0.62,0.71 -0.07,0.14 -0.14,0.26 -0.16,0.28 -0.01,0.01 -0.02,0.05 -0.00,0.09 0.01,0.03 0.00,0.07 -0.01,0.09 -0.06,0.03 -0.05,0.50 0.00,0.58 0.02,0.03 0.09,0.07 0.13,0.08 0.10,0.01 0.64,-0.03 0.91,-0.08 z m -9.07,-0.20 c 0.26,-0.05 0.64,-0.16 0.85,-0.23 1.04,-0.34 1.16,-0.40 1.16,-0.53 0,-0.10 -0.11,-0.43 -0.17,-0.50 -0.01,-0.01 -0.10,0.03 -0.18,0.11 -0.08,0.08 -0.17,0.15 -0.19,0.15 -0.02,0 -0.10,0.04 -0.19,0.10 -0.08,0.05 -0.23,0.11 -0.33,0.13 -0.20,0.03 -0.66,0.14 -0.75,0.17 -0.03,0.01 -0.11,0.03 -0.17,0.03 -0.89,0.07 -0.94,0.08 -1.15,0.19 -0.19,0.10 -0.41,0.32 -0.36,0.38 0.11,0.11 0.94,0.10 1.50,-0.01 z m 15.52,-0.37 c 0.02,-0.08 0.03,-0.47 0.01,-0.84 -0.01,-0.27 -0.23,-0.25 -0.27,0.03 -0.01,0.08 -0.04,0.24 -0.07,0.35 -0.04,0.17 -0.03,0.20 0.07,0.37 0.13,0.20 0.21,0.22 0.26,0.08 z m -7.68,-0.23 c 0.04,-0.23 0.16,-0.48 0.29,-0.67 0.10,-0.13 0.39,-0.40 0.43,-0.40 0.02,0 0.03,-0.03 0.03,-0.06 0,-0.08 -0.13,-0.04 -0.28,0.09 -0.06,0.05 -0.12,0.10 -0.14,0.10 -0.01,0 -0.09,0.10 -0.16,0.22 -0.32,0.55 -0.36,0.63 -0.32,0.81 0.04,0.22 0.09,0.19 0.15,-0.08 z M 31.94,17.80 c 0.06,-0.08 0.17,-0.60 0.15,-0.75 -0.01,-0.17 -0.16,-0.51 -0.22,-0.51 -0.02,0 -0.05,0.12 -0.06,0.26 -0.01,0.14 -0.03,0.32 -0.05,0.40 -0.01,0.09 -0.01,0.13 0.01,0.13 0.02,0 0.04,0.09 0.04,0.25 0,0.25 0.03,0.30 0.11,0.20 z m 1.37,-0.68 c 0.00,-0.06 -0.00,-0.11 -0.03,-0.11 -0.02,0 -0.04,0.02 -0.04,0.06 0,0.03 -0.01,0.09 -0.02,0.13 -0.01,0.05 -0.01,0.06 0.03,0.05 0.03,-0.01 0.06,-0.07 0.07,-0.13 z m -0.03,-0.19 c 0,-0.05 -0.08,-0.10 -0.11,-0.07 -0.03,0.03 0.02,0.11 0.07,0.11 0.02,0 0.04,-0.01 0.04,-0.04 z m -3.84,-0.85 c 0,-0.05 0.02,-0.08 0.08,-0.08 0.11,0 0.15,-0.08 0.04,-0.11 -0.10,-0.02 -0.17,-0.23 -0.16,-0.49 0.00,-0.19 -0.07,-0.29 -0.13,-0.19 -0.12,0.18 -0.14,0.68 -0.03,0.68 0.02,0 0.03,0.01 0.03,0.03 0,0.08 0.08,0.25 0.12,0.25 0.02,0 0.04,-0.03 0.04,-0.08 z m 1.31,-0.45 c -0.01,-0.01 -0.03,0.01 -0.05,0.05 -0.02,0.06 -0.01,0.06 0.02,0.02 0.02,-0.02 0.04,-0.06 0.02,-0.07 z m -2.25,-0.09 c 0,-0.08 -0.11,-0.26 -0.16,-0.26 -0.01,0 -0.04,0.03 -0.05,0.08 -0.01,0.04 -0.00,0.08 0.01,0.08 0.02,0 0.03,0.02 0.02,0.05 -0.01,0.05 0.09,0.16 0.14,0.13 0.01,-0.01 0.03,-0.05 0.03,-0.09 z m -0.46,-0.06 c 0.01,-0.09 -0.15,-0.65 -0.22,-0.74 -0.03,-0.04 0.03,-0.14 0.09,-0.14 0.05,0 0.56,0.52 0.60,0.61 0.04,0.12 0.19,0.09 0.22,-0.04 0.01,-0.06 0.04,-0.17 0.06,-0.25 0.05,-0.19 0.00,-0.42 -0.15,-0.67 -0.07,-0.11 -0.14,-0.25 -0.15,-0.30 -0.02,-0.13 -0.17,-0.10 -0.22,0.04 -0.05,0.18 -0.11,0.23 -0.24,0.23 -0.06,0 -0.16,0.03 -0.21,0.07 -0.05,0.04 -0.16,0.09 -0.24,0.10 -0.07,0.01 -0.20,0.05 -0.27,0.08 -0.07,0.03 -0.24,0.09 -0.38,0.13 -0.13,0.04 -0.24,0.08 -0.24,0.10 0.00,0.06 0.45,0.46 0.49,0.43 0.02,-0.01 0.05,-0.07 0.07,-0.12 0.04,-0.15 0.12,-0.11 0.31,0.18 0.22,0.34 0.45,0.46 0.48,0.26 z m -2.79,-0.16 c -0.02,-0.07 -0.07,-0.12 -0.10,-0.12 -0.04,0 -0.04,0.02 0.01,0.12 0.09,0.16 0.14,0.16 0.08,2.93e-4 z m -8.21,-1.76 c 0.03,-0.03 0.04,-0.09 0.01,-0.17 -0.02,-0.09 -0.07,-0.14 -0.21,-0.19 -0.16,-0.05 -0.18,-0.05 -0.28,0.03 -0.18,0.17 -0.16,0.31 0.05,0.40 0.08,0.03 0.35,-0.00 0.41,-0.07 z m -0.95,-0.08 c -0.03,-0.15 -0.05,-0.18 -0.08,-0.15 -0.03,0.03 0.02,0.29 0.07,0.29 0.02,0 0.02,-0.05 0.01,-0.13 z m 2.07,0.05 c 0.08,0 0.12,-0.02 0.12,-0.06 0,-0.08 -0.04,-0.10 -0.24,-0.12 -0.14,-0.01 -0.18,-0.00 -0.22,0.06 -0.03,0.06 -0.02,0.09 0.03,0.12 0.04,0.02 0.10,0.03 0.13,0.02 0.03,-0.01 0.11,-0.02 0.18,-0.02 z m 0.95,-0.19 c 0.04,-0.03 0.07,-0.07 0.05,-0.08 -0.04,-0.04 -0.20,0.02 -0.20,0.09 0,0.07 0.04,0.07 0.14,-0.00 z M 17.55,13.06 c 0.02,0 0.03,-0.02 0.03,-0.05 0,-0.02 0.04,-0.12 0.10,-0.20 l 0.10,-0.15 -0.09,-0.08 c -0.09,-0.09 -0.45,-0.17 -0.46,-0.10 -0.00,0.02 -0.01,0.15 -0.02,0.30 -0.01,0.24 -0.00,0.27 0.07,0.30 0.05,0.02 0.12,0.03 0.15,0.01 0.03,-0.01 0.07,-0.01 0.09,-0.01 z m 1.16,-0.03 c 0.01,-0.04 0.02,-0.13 0.01,-0.21 -0.00,-0.10 -0.02,-0.15 -0.10,-0.18 -0.21,-0.08 -0.25,-0.05 -0.25,0.18 -0.00,0.12 0.00,0.23 0.01,0.25 0.01,0.01 0.08,0.03 0.16,0.03 0.10,0 0.15,-0.02 0.16,-0.07 z m 1.04,-0.04 c 0.03,-0.02 0.04,-0.06 0.02,-0.09 -0.01,-0.02 -0.03,-0.10 -0.02,-0.17 0.00,-0.09 -0.01,-0.11 -0.09,-0.11 -0.08,0 -0.10,0.02 -0.12,0.16 -0.01,0.09 -0.01,0.18 -3.91e-4,0.20 0.03,0.05 0.15,0.05 0.23,0.00 z m 0.57,-0.29 c 0.11,-0.06 0.21,-0.13 0.22,-0.15 0.01,-0.04 -0.26,-0.18 -0.36,-0.18 -0.02,0 -0.04,0.03 -0.04,0.07 0,0.04 -0.04,0.15 -0.10,0.23 -0.05,0.08 -0.10,0.16 -0.10,0.17 0,0.03 0.18,-0.02 0.40,-0.15 z m -3.89,-0.03 c 0.01,-0.04 0.02,-0.15 0.03,-0.25 0.00,-0.13 -0.01,-0.19 -0.07,-0.24 -0.17,-0.13 -0.24,-0.03 -0.21,0.27 0.02,0.21 0.06,0.29 0.15,0.29 0.04,0 0.08,-0.03 0.10,-0.07 z m 2.92,-0.23 c 0.05,-0.07 0.01,-0.27 -0.07,-0.30 -0.03,-0.01 -0.09,-0.03 -0.12,-0.04 -0.05,-0.02 -0.39,0.30 -0.39,0.38 -8.78e-4,0.05 0.54,0.02 0.59,-0.03 z m -1.14,-0.00 c 0.02,-0.03 0.04,-0.09 0.02,-0.12 -0.01,-0.03 -7.81e-4,-0.06 0.02,-0.07 0.09,-0.03 -0.02,-0.25 -0.15,-0.29 -0.15,-0.05 -0.19,-0.01 -0.22,0.23 -0.02,0.14 -0.01,0.20 0.04,0.26 0.08,0.08 0.20,0.09 0.27,0.00 z m 2.98,-0.22 c 0.02,-0.07 -0.15,-0.15 -0.23,-0.11 -0.03,0.01 -0.12,0.03 -0.19,0.03 -0.20,0.00 -0.18,0.10 0.02,0.12 0.27,0.02 0.38,0.01 0.40,-0.04 z m -4.10,-0.02 c 0.02,-0.02 0.04,-0.18 0.04,-0.35 l 0.00,-0.30 -0.17,-0.07 c -0.10,-0.04 -0.18,-0.06 -0.21,-0.03 -0.02,0.02 -0.04,0.20 -0.05,0.39 -0.00,0.32 -0.00,0.36 0.07,0.39 0.13,0.05 0.26,0.04 0.30,-0.01 z m 2.58,0.02 c -0.03,-0.01 -0.06,-0.01 -0.08,0.00 -0.01,0.01 0.01,0.02 0.05,0.02 0.04,-0.00 0.05,-0.01 0.02,-0.02 z m -0.84,-0.32 c 0.00,-0.02 0.02,-0.12 0.04,-0.21 0.02,-0.16 0.02,-0.16 -0.26,-0.22 l -0.13,-0.02 0,0.23 c 0,0.12 0.01,0.24 0.02,0.25 0.05,0.05 0.31,0.03 0.33,-0.02 z m 1.29,-0.17 c 0.09,-0.16 0.09,-0.16 0.00,-0.30 -0.11,-0.20 -0.23,-0.22 -0.35,-0.07 -0.07,0.09 -0.10,0.11 -0.15,0.06 -0.04,-0.04 -0.04,-0.08 0.01,-0.20 0.03,-0.08 0.05,-0.15 0.02,-0.15 -0.02,0 -0.04,0.01 -0.04,0.04 0,0.02 -0.02,0.04 -0.05,0.04 -0.09,0 -0.20,0.15 -0.17,0.23 0.03,0.10 0.35,0.40 0.42,0.40 0.02,0 0.06,0.03 0.07,0.06 0.03,0.10 0.12,0.05 0.22,-0.12 z m 0.92,0.01 c 0.07,-0.08 0.07,-0.09 0.00,-0.19 -0.03,-0.05 -0.08,-0.10 -0.10,-0.10 -0.02,0 -0.04,-0.02 -0.04,-0.06 0,-0.11 -0.20,-0.12 -0.32,-0.01 -0.14,0.13 -0.13,0.19 0.07,0.33 0.20,0.15 0.28,0.15 0.39,0.03 z M 17.79,11.56 c 0.02,-0.02 0.05,-0.12 0.05,-0.21 0,-0.13 -0.02,-0.17 -0.14,-0.27 -0.16,-0.12 -0.27,-0.11 -0.28,0.03 -0.00,0.05 -0.01,0.15 -0.01,0.22 -0.01,0.11 0.00,0.13 0.14,0.20 0.19,0.08 0.19,0.08 0.25,0.02 z m 0.60,-0.54 c 0.07,-0.23 0.06,-0.28 -0.05,-0.34 -0.17,-0.09 -0.23,-0.03 -0.23,0.22 0,0.14 0.01,0.24 0.05,0.25 0.13,0.05 0.19,0.02 0.23,-0.13 z m -1.76,-0.07 c 0.00,-0.02 0.01,-0.16 0.03,-0.30 0.02,-0.21 0.01,-0.29 -0.03,-0.41 -0.04,-0.08 -0.09,-0.15 -0.12,-0.15 -0.02,0 -0.08,0.13 -0.12,0.29 -0.03,0.16 -0.08,0.32 -0.09,0.36 -0.03,0.08 0.17,0.29 0.27,0.27 0.04,-0.00 0.07,-0.03 0.07,-0.05 z m 4.16,0.03 c 0,-0.05 -0.14,-0.18 -0.19,-0.18 -0.03,0 -0.05,-0.01 -0.05,-0.04 0,-0.02 -0.01,-0.04 -0.04,-0.04 -0.07,0 -0.04,0.09 0.05,0.20 0.08,0.09 0.24,0.13 0.24,0.07 z m -0.81,-0.15 c 0,-0.03 0.02,-0.07 0.06,-0.08 0.07,-0.02 0.08,-0.17 0.02,-0.21 -0.02,-0.01 -0.05,-0.08 -0.06,-0.14 -0.04,-0.21 -0.13,-0.24 -0.28,-0.09 -0.13,0.14 -0.13,0.18 -0.01,0.46 0.04,0.10 0.09,0.13 0.16,0.13 0.06,0 0.10,-0.02 0.10,-0.05 z M 19.27,10.50 c 0.07,-0.12 0.11,-0.21 0.10,-0.34 -0.00,-0.09 -0.01,-0.17 -0.02,-0.17 -0.15,0 -0.37,0.40 -0.31,0.57 0.05,0.14 0.09,0.13 0.22,-0.06 z m 1.35,0.12 c 0,-0.07 -0.09,-0.39 -0.13,-0.43 -0.01,-0.01 -0.05,0.02 -0.07,0.10 -0.04,0.11 -0.03,0.15 0.04,0.25 0.10,0.12 0.15,0.15 0.15,0.07 z M 17.39,10.27 C 17.42,9.99 17.42,9.98 17.30,9.84 17.17,9.69 17.07,9.66 17.05,9.77 c -0.00,0.03 -0.03,0.15 -0.05,0.25 -0.06,0.27 -0.06,0.27 0.08,0.42 0.20,0.19 0.26,0.16 0.30,-0.17 z m 0.72,-0.44 c 0.02,-0.27 0.02,-0.28 -0.10,-0.40 -0.07,-0.06 -0.14,-0.12 -0.16,-0.12 -0.07,0 -0.12,0.11 -0.15,0.37 l -0.02,0.26 0.16,0.15 c 0.14,0.14 0.16,0.14 0.21,0.08 0.02,-0.03 0.06,-0.19 0.08,-0.35 z m 1.49,0.11 c -0.02,-0.02 -0.06,-0.02 -0.10,0 -0.05,0.03 -0.05,0.04 0,0.08 0.07,0.05 0.16,-0.01 0.10,-0.08 z m 0.60,-0.00 c 0.06,-0.11 0.06,-0.15 0.01,-0.30 -0.10,-0.31 -0.35,-0.30 -0.31,0.01 0.01,0.14 0.15,0.42 0.21,0.42 0.00,0 0.04,-0.06 0.08,-0.13 z m 0.70,-0.40 c 0.03,-0.11 0.03,-0.16 -0.00,-0.21 -0.13,-0.16 -0.23,-0.01 -0.16,0.23 0.05,0.19 0.09,0.18 0.16,-0.02 z m -2.52,0.10 c 0,-0.02 -0.02,-0.04 -0.04,-0.04 -0.02,0 -0.03,0.01 -0.01,0.04 0.01,0.02 0.03,0.04 0.04,0.04 0.01,0 0.01,-0.01 0.01,-0.04 z m 0.48,-0.07 c -0.02,-0.01 -0.07,-0.01 -0.10,0 -0.02,0.01 -0.00,0.02 0.05,0.02 0.05,0 0.08,-0.00 0.05,-0.02 z M 19.60,9.43 C 19.67,9.38 19.68,9.34 19.66,9.27 19.64,9.23 19.62,9.15 19.61,9.09 19.59,8.88 19.50,8.57 19.46,8.55 c -0.02,-0.01 -0.08,0.01 -0.13,0.06 -0.10,0.10 -0.12,0.40 -0.03,0.64 0.03,0.08 0.06,0.17 0.07,0.20 0.01,0.07 0.11,0.06 0.23,-0.02 z M 19.17,9.19 c 0,-0.00 -0.02,-0.01 -0.06,-0.01 -0.03,0 -0.06,0.01 -0.06,0.04 0,0.02 0.02,0.03 0.06,0.01 0.03,-0.01 0.06,-0.03 0.06,-0.04 z m 1.17,-0.04 c -0.03,-0.13 -0.05,-0.23 -0.06,-0.27 -0.00,-0.05 -0.12,-0.03 -0.14,0.02 -0.01,0.02 -0.00,0.09 0.01,0.14 0.01,0.05 0.02,0.09 0.00,0.09 -0.02,0.00 0.16,0.12 0.19,0.12 0.00,8.29e-4 0.00,-0.05 -0.01,-0.11 z M 18.93,8.94 c 0.06,-0.13 0.06,-0.16 -0.00,-0.47 -0.08,-0.34 -0.16,-0.41 -0.28,-0.23 -0.05,0.08 -0.05,0.13 0.01,0.41 0.04,0.17 0.08,0.34 0.09,0.37 0.03,0.09 0.10,0.05 0.17,-0.09 z m -1.91,0.04 c 0.02,-0.03 0.05,-0.14 0.07,-0.24 0.01,-0.10 0.04,-0.20 0.06,-0.23 0.03,-0.04 0.02,-0.33 -0.02,-0.40 -0.05,-0.08 -0.09,-0.04 -0.14,0.13 -0.03,0.09 -0.08,0.27 -0.11,0.38 -0.09,0.30 0.00,0.53 0.15,0.35 z m 3.72,-0.26 c 0,-0.09 -0.02,-0.16 -0.06,-0.17 -0.08,-0.03 -0.16,0.07 -0.10,0.13 0.02,0.02 0.04,0.07 0.04,0.11 0,0.04 0.02,0.07 0.06,0.07 0.04,0 0.06,-0.04 0.06,-0.15 z m -2.90,-0.18 c 0.05,-0.14 0.06,-0.25 0.04,-0.29 -0.14,-0.26 -0.20,-0.44 -0.23,-0.59 -0.01,-0.09 -0.04,-0.17 -0.06,-0.17 -0.10,0 -0.18,0.94 -0.08,0.97 0.02,0.00 0.06,0.09 0.08,0.18 0.06,0.23 0.15,0.20 0.25,-0.08 z m 0.54,0.03 c 0.01,-0.18 -0.10,-0.72 -0.15,-0.72 -0.01,2.53e-4 -0.05,0.07 -0.09,0.16 -0.06,0.16 -0.06,0.21 0.03,0.55 0.07,0.27 0.20,0.27 0.22,-0.00 z m 2.76,-0.07 c 0.03,-0.26 0.00,-0.43 -0.06,-0.43 -0.02,0 -0.04,0.09 -0.04,0.20 -0.00,0.11 -0.00,0.25 -0.01,0.30 -0.01,0.11 0.00,0.17 0.06,0.17 0.01,0 0.04,-0.11 0.06,-0.25 z M 19.91,8.16 c -0.00,-0.32 -0.01,-0.34 -0.15,-0.39 -0.16,-0.05 -0.27,0.00 -0.20,0.12 0.02,0.04 0.04,0.14 0.04,0.22 0,0.12 0.02,0.16 0.11,0.21 0.16,0.08 0.20,0.05 0.20,-0.17 z M 20.76,7.97 c -0.03,-0.13 -0.09,-0.14 -0.09,-0.02 0,0.06 0.02,0.10 0.06,0.10 0.03,0 0.05,-0.02 0.03,-0.08 z M 20.35,7.73 C 20.33,7.59 20.10,7.29 20.02,7.29 c -0.04,0 0.06,0.45 0.12,0.52 0.03,0.03 0.09,0.07 0.14,0.07 0.07,0 0.08,-0.01 0.06,-0.15 z M 20.73,7.56 C 20.69,7.24 20.61,7.15 20.56,7.37 c -0.03,0.15 0.03,0.34 0.12,0.34 0.04,0 0.06,-0.03 0.04,-0.15 z m -1.62,0.06 c 0.01,-0.02 0.06,-0.04 0.10,-0.04 0.09,0 0.11,-0.15 0.02,-0.27 -0.03,-0.04 -0.05,-0.10 -0.03,-0.13 0.01,-0.02 -0.00,-0.07 -0.04,-0.10 -0.05,-0.04 -0.09,-0.03 -0.19,0.01 -0.11,0.06 -0.13,0.08 -0.10,0.20 0.01,0.07 0.03,0.18 0.04,0.25 0.02,0.11 0.14,0.16 0.20,0.07 z m 2.94,-0.23 c 0.01,-0.04 -0.07,-0.14 -0.26,-0.29 -0.15,-0.12 -0.29,-0.22 -0.30,-0.21 -0.01,0.01 0.22,0.35 0.34,0.49 0.08,0.09 0.18,0.10 0.21,0.01 z M 18.46,7.22 c 0.08,-0.08 0.13,-0.18 0.12,-0.21 -0.01,-0.03 -0.02,-0.09 -0.02,-0.13 0,-0.04 -0.02,-0.11 -0.05,-0.15 -0.05,-0.07 -0.06,-0.07 -0.23,0.04 -0.09,0.06 -0.17,0.13 -0.17,0.14 0,0.08 0.15,0.47 0.18,0.47 0.02,0 0.10,-0.07 0.18,-0.16 z m 4.41,-0.06 c 0.08,-0.10 0.10,-0.31 0.03,-0.41 -0.15,-0.21 -0.03,-0.39 0.24,-0.37 l 0.17,0.01 0.03,-0.18 0.03,-0.18 0.17,0.02 0.17,0.02 -0.02,-0.18 C 23.71,5.77 23.66,5.64 23.61,5.57 23.56,5.51 23.53,5.44 23.53,5.41 c 0,-0.08 0.13,-0.17 0.25,-0.17 0.14,0 0.18,-0.05 0.19,-0.25 0.00,-0.08 0.01,-0.26 0.03,-0.40 L 24.04,4.32 23.83,4.08 C 23.64,3.87 23.61,3.85 23.53,3.90 c -0.05,0.03 -0.14,0.04 -0.22,0.02 -0.09,-0.02 -0.14,-0.00 -0.18,0.05 -0.08,0.11 -0.07,0.13 0.04,0.18 0.07,0.03 0.10,0.07 0.10,0.16 0,0.06 0.02,0.16 0.06,0.20 0.05,0.08 0.05,0.09 -0.02,0.16 -0.05,0.04 -0.07,0.10 -0.05,0.16 0.06,0.21 -0.24,0.41 -0.41,0.26 -0.04,-0.04 -0.08,-0.09 -0.08,-0.12 0,-0.05 -0.15,-0.18 -0.22,-0.18 -0.06,0 -0.16,0.13 -0.16,0.21 0,0.07 0.00,0.08 0.06,0.01 0.04,-0.04 0.08,-0.05 0.11,-0.02 0.04,0.04 -0.07,0.30 -0.16,0.33 -0.09,0.03 -0.07,0.31 0.02,0.42 0.08,0.09 0.08,0.09 0.01,0.20 -0.11,0.15 -0.16,0.13 -0.31,-0.07 -0.15,-0.23 -0.16,-0.34 -0.02,-0.72 0.17,-0.47 0.17,-0.44 0.04,-0.44 -0.06,0 -0.13,0.03 -0.16,0.07 -0.07,0.10 -0.28,0.18 -0.38,0.15 -0.04,-0.01 -0.12,0.00 -0.18,0.03 -0.16,0.10 -0.38,0.10 -0.50,-0.00 l -0.10,-0.09 -0.02,0.09 c -0.02,0.08 0.03,0.23 0.10,0.29 0.01,0.01 0.06,0.13 0.11,0.27 0.05,0.13 0.12,0.30 0.16,0.36 0.04,0.06 0.10,0.16 0.13,0.22 0.07,0.14 0.39,0.52 0.53,0.63 0.08,0.06 0.11,0.07 0.18,0.03 0.09,-0.05 0.26,0.01 0.49,0.21 0.12,0.10 0.21,0.16 0.29,0.17 0.01,0.00 0.04,-0.02 0.07,-0.05 z M 20.57,7.08 c -0.05,-0.09 -0.10,-0.08 -0.06,0.01 0.01,0.03 0.04,0.06 0.06,0.06 0.02,0 0.02,-0.03 -0.00,-0.08 z M 17.87,6.98 c 0.06,-0.08 0.05,-0.23 -0.01,-0.29 -0.05,-0.04 -0.07,-0.03 -0.14,0.04 -0.08,0.10 -0.10,0.22 -0.05,0.27 0.04,0.04 0.17,0.03 0.21,-0.02 z m 1.87,-0.19 c -0.01,-0.08 -0.03,-0.18 -0.04,-0.22 -0.00,-0.03 -0.01,-0.07 -0.01,-0.09 -0.00,-0.01 -0.02,-0.03 -0.05,-0.03 -0.02,0 -0.11,-0.03 -0.19,-0.06 -0.08,-0.03 -0.15,-0.05 -0.17,-0.04 -0.01,0.01 -0.01,0.13 0.00,0.28 0.02,0.25 0.03,0.25 0.18,0.29 0.29,0.07 0.32,0.07 0.28,-0.10 z m 0.47,-0.32 c -0.00,-0.09 -0.01,-0.20 -0.03,-0.22 -0.01,-0.02 -0.05,-0.13 -0.08,-0.25 -0.07,-0.29 -0.10,-0.31 -0.23,-0.17 -0.08,0.08 -0.10,0.14 -0.08,0.23 0.01,0.06 0.03,0.15 0.04,0.20 0.01,0.08 0.30,0.40 0.36,0.40 0.01,0 0.02,-0.08 0.02,-0.18 z M 18.98,6.19 c -0.02,-0.02 -0.32,0.08 -0.30,0.11 0.01,0.01 0.08,7.22e-4 0.16,-0.03 0.08,-0.03 0.14,-0.07 0.13,-0.07 z M 32.89,3.83 c 0,-0.02 -0.01,-0.04 -0.04,-0.04 -0.02,0 -0.04,0.01 -0.04,0.04 0,0.02 0.01,0.04 0.04,0.04 0.02,0 0.04,-0.01 0.04,-0.04 z M 24.44,3.20 c 0.21,-0.16 0.25,-0.23 0.21,-0.34 -0.01,-0.04 -0.05,-0.05 -0.15,-0.03 -0.23,0.05 -0.36,0.14 -0.36,0.25 0,0.05 -0.01,0.11 -0.04,0.12 -0.02,0.01 -0.04,0.05 -0.04,0.08 0,0.11 0.19,0.06 0.39,-0.09 z m -2.24,0.00 c 0.15,-0.13 0.19,-0.13 0.28,-0.01 l 0.06,0.09 0.23,-0.11 c 0.13,-0.06 0.26,-0.11 0.31,-0.11 0.04,-3.02e-4 0.15,-0.04 0.24,-0.09 0.12,-0.06 0.23,-0.09 0.37,-0.08 0.17,0.00 0.20,-0.00 0.20,-0.07 0,-0.09 -0.00,-0.09 -0.14,-0.03 -0.09,0.04 -0.13,0.03 -0.26,-0.03 -0.08,-0.04 -0.26,-0.10 -0.38,-0.11 -0.20,-0.02 -0.23,-0.02 -0.34,0.07 -0.13,0.13 -0.30,0.19 -0.50,0.19 -0.15,0 -0.44,0.11 -0.44,0.17 0,0.01 -0.02,0.03 -0.06,0.03 -0.03,0 -0.06,0.02 -0.06,0.05 0,0.04 0.16,0.11 0.34,0.15 0.01,0.00 0.08,-0.04 0.15,-0.10 z M 18.61,43.77 c -0.07,-0.05 -0.12,-0.12 -0.12,-0.13 0.00,-0.01 -0.02,-0.09 -0.05,-0.17 -0.03,-0.08 -0.07,-0.19 -0.09,-0.25 -0.05,-0.23 -0.24,-0.59 -0.30,-0.59 -0.12,0 -0.21,-0.22 -0.23,-0.60 -0.00,-0.06 -0.05,-0.18 -0.11,-0.26 -0.11,-0.17 -0.18,-0.36 -0.12,-0.36 0.05,0 0.40,0.25 0.49,0.36 0.15,0.18 0.24,0.43 0.22,0.63 -0.02,0.16 -0.01,0.20 0.13,0.37 0.21,0.25 0.49,0.86 0.46,1.00 -0.03,0.14 -0.12,0.16 -0.27,0.03 z m 17.99,-0.51 c -0.03,-0.03 -0.06,-0.09 -0.06,-0.11 -0.00,-0.09 -0.07,-0.19 -0.12,-0.19 -0.03,0 -0.05,0.01 -0.05,0.03 0,0.01 -0.04,0.05 -0.10,0.08 -0.09,0.04 -0.12,0.03 -0.19,-0.03 -0.09,-0.09 -0.10,-0.20 -0.03,-0.36 0.06,-0.13 0.13,-0.13 0.20,7.81e-4 0.03,0.08 0.06,0.10 0.14,0.07 0.05,-0.01 0.10,-0.04 0.11,-0.06 0.05,-0.15 0.34,0.12 0.34,0.33 -0.00,0.28 -0.08,0.38 -0.21,0.23 z M 21.80,38.86 c -0.01,-0.02 -0.14,-0.06 -0.30,-0.08 -0.15,-0.01 -0.29,-0.04 -0.30,-0.06 -0.02,-0.04 0.13,-0.13 0.27,-0.15 0.10,-0.01 0.40,-0.07 0.68,-0.14 0.80,-0.20 1.23,-0.25 1.31,-0.15 0.03,0.03 0.04,0.08 0.02,0.11 -0.03,0.05 -0.35,0.14 -0.52,0.13 -0.10,-0.00 -0.16,0.02 -0.26,0.13 -0.13,0.15 -0.35,0.23 -0.69,0.25 -0.13,0.00 -0.20,-0.00 -0.22,-0.03 z M 10.55,28.20 c -0.01,-0.02 -0.00,-0.04 0.01,-0.04 0.02,0 0.04,0.01 0.04,0.04 0,0.02 -0.00,0.04 -0.01,0.04 -0.01,0 -0.03,-0.01 -0.04,-0.04 z m 4.64,-5.87 c -0.02,-0.02 -0.04,-0.09 -0.04,-0.13 -0.00,-0.04 -0.01,-0.19 -0.02,-0.34 -0.01,-0.25 0.04,-0.76 0.09,-0.85 0.01,-0.02 0.03,-0.06 0.03,-0.08 0.00,-0.02 0.01,-0.11 0.03,-0.19 0.05,-0.30 0.40,-0.94 0.52,-0.94 0.08,0 0.07,0.09 -0.02,0.22 -0.04,0.05 -0.08,0.12 -0.08,0.13 0,0.01 -0.03,0.09 -0.06,0.18 -0.03,0.08 -0.07,0.22 -0.08,0.30 -0.00,0.07 -0.03,0.16 -0.05,0.19 -0.01,0.02 -0.03,0.07 -0.03,0.11 0.00,0.03 -0.02,0.16 -0.05,0.27 -0.03,0.11 -0.06,0.37 -0.07,0.56 -0.00,0.19 -0.02,0.36 -0.03,0.39 -0.01,0.02 -0.00,0.04 0.01,0.04 0.06,0 0.05,0.11 -0.01,0.14 -0.03,0.01 -0.08,-3.91e-4 -0.10,-0.02 z M 21.36,16.84 c -0.07,-0.02 -0.06,-0.09 0.05,-0.31 0.13,-0.24 0.13,-0.44 0.02,-0.50 -0.04,-0.02 -0.10,-0.03 -0.13,-0.01 -0.08,0.05 -0.24,0.24 -0.37,0.45 -0.13,0.21 -0.26,0.25 -0.29,0.10 -0.02,-0.14 0.31,-0.58 0.59,-0.76 0.34,-0.22 0.38,-0.21 0.27,0.06 -0.04,0.10 0.09,0.09 0.14,-0.01 0.04,-0.09 0.16,-0.11 0.24,-0.03 0.03,0.03 0.06,0.01 0.11,-0.05 0.10,-0.14 0.08,-0.20 -0.05,-0.25 -0.15,-0.05 -0.16,-0.10 -0.03,-0.13 0.17,-0.04 0.26,-0.02 0.34,0.07 0.06,0.09 0.06,0.10 -0.00,0.26 -0.10,0.20 -0.31,0.43 -0.40,0.43 -0.08,0 -0.15,0.12 -0.15,0.27 0,0.11 -0.15,0.39 -0.23,0.42 -0.02,0.00 -0.06,0.00 -0.09,-0.00 z m -0.22,-0.82 c 0,-0.05 -0.02,-0.04 -0.08,0.02 -0.04,0.05 -0.04,0.06 0.01,0.03 0.03,-0.01 0.07,-0.04 0.07,-0.06 z m -1.66,0.05 c 0,-0.04 0.08,-0.18 0.18,-0.30 0.20,-0.25 0.24,-0.35 0.26,-0.75 0.02,-0.32 0.10,-0.58 0.29,-0.92 0.20,-0.36 0.40,-0.59 0.50,-0.55 0.12,0.05 0.13,0.21 0.01,0.39 -0.19,0.29 -0.31,0.63 -0.33,0.94 -0.00,0.10 -0.02,0.21 -0.03,0.23 -0.01,0.02 -0.04,0.13 -0.05,0.24 -0.01,0.11 -0.05,0.21 -0.08,0.23 -0.03,0.01 -0.08,0.08 -0.11,0.15 -0.03,0.06 -0.09,0.14 -0.14,0.17 -0.04,0.02 -0.13,0.08 -0.20,0.14 -0.15,0.11 -0.28,0.12 -0.28,0.01 z m -5.17,-0.46 c -0.12,-0.05 -0.27,-0.19 -0.32,-0.30 -0.05,-0.12 -0.03,-0.73 0.02,-0.84 0.02,-0.03 0.04,-0.15 0.06,-0.25 0.01,-0.09 0.04,-0.19 0.06,-0.20 0.02,-0.01 0.02,-0.04 0.01,-0.06 -0.01,-0.01 0.02,-0.12 0.08,-0.24 0.05,-0.11 0.09,-0.22 0.08,-0.23 -0.01,-0.01 -0.00,-0.03 0.01,-0.03 0.02,0 0.05,-0.04 0.06,-0.09 0.02,-0.10 0.46,-0.77 0.59,-0.91 0.25,-0.27 0.58,0.11 0.60,0.72 0.02,0.70 -0.34,1.56 -0.96,2.21 -0.19,0.19 -0.29,0.27 -0.33,0.25 z M 19.25,15.46 c -0.03,-0.06 -0.07,-0.07 -0.14,-0.06 -0.06,0.01 -0.13,-0.00 -0.21,-0.07 -0.09,-0.07 -0.16,-0.09 -0.35,-0.08 -0.29,0.00 -0.40,-0.07 -0.27,-0.20 0.18,-0.18 0.42,-0.27 0.68,-0.24 0.17,0.01 0.26,0.00 0.32,-0.03 0.20,-0.15 0.31,0.00 0.22,0.31 -0.02,0.08 -0.04,0.21 -0.05,0.28 -0.01,0.19 -0.01,0.19 -0.08,0.19 -0.03,0 -0.08,-0.03 -0.10,-0.08 z m 1.49,-0.12 c 0,-0.04 0.06,-0.14 0.14,-0.22 0.15,-0.14 0.16,-0.20 0.02,-0.20 -0.11,0 -0.10,-0.07 0.01,-0.09 0.05,-0.00 0.13,-0.07 0.18,-0.14 0.12,-0.19 0.22,-0.24 0.49,-0.23 0.28,0.01 0.35,0.06 0.32,0.23 -0.04,0.21 -0.21,0.40 -0.39,0.43 -0.30,0.04 -0.33,0.06 -0.48,0.19 -0.16,0.14 -0.29,0.16 -0.29,0.04 z m 0.21,-0.11 c 0.02,-0.03 0.04,-0.06 0.03,-0.06 -0.01,0 -0.04,0.02 -0.07,0.06 -0.02,0.03 -0.04,0.06 -0.03,0.06 0.01,0 0.04,-0.02 0.07,-0.06 z m 0.66,-0.48 c 0.06,-0.12 0.04,-0.17 -0.06,-0.17 -0.10,0 -0.17,0.09 -0.14,0.20 0.03,0.12 0.14,0.10 0.21,-0.03 z m 0.36,-0.39 c -0.06,-0.06 -0.06,-0.18 -0.00,-0.22 0.06,-0.03 0.05,-0.32 -0.02,-0.46 -0.09,-0.17 -0.08,-0.36 0.01,-0.36 0.13,0 0.27,0.23 0.41,0.68 0.05,0.18 0.05,0.19 -0.03,0.28 -0.11,0.11 -0.29,0.15 -0.36,0.09 z" />
</svg>
