<?xml version="1.0" encoding="UTF-8" standalone="no"?>
<!-- Created with Inkscape (http://www.inkscape.org/) -->
<svg xmlns:dc="http://purl.org/dc/elements/1.1/" xmlns:cc="http://creativecommons.org/ns#" xmlns:rdf="http://www.w3.org/1999/02/22-rdf-syntax-ns#" xmlns:svg="http://www.w3.org/2000/svg" xmlns="http://www.w3.org/2000/svg" version="1.1" width="100%" height="100%" viewBox="0 0 48 48" id="Jack_Pumpkinhead_xA0_Image_1_" xml:space="preserve">
<defs id="defs207" />
<path d="m 20.61,1.93 c -0.04,-1.68e-4 -0.05,0.03 -0.08,0.04 -0.03,0.00 -0.04,0.03 -0.03,0.07 0.26,0.71 0.66,1.18 1.30,1.46 0.41,0.17 0.62,0.40 0.82,0.80 0.11,0.23 0.10,0.54 0.08,0.85 -0.38,-0.00 -0.76,0.15 -1.14,0.20 -0.11,0.01 -0.25,-0.02 -0.36,0 -0.28,0.06 -0.55,0.26 -0.86,0.36 -0.19,0.06 -0.41,0.09 -0.61,0.16 -0.20,0.06 -0.38,0.15 -0.57,0.20 -0.24,0.06 -0.50,0.04 -0.69,0.12 -0.20,0.08 -0.34,0.33 -0.53,0.44 -0.08,0.04 -0.19,0.03 -0.28,0.07 -0.14,0.06 -0.23,0.18 -0.36,0.24 -0.11,0.04 -0.22,0.04 -0.32,0.08 -0.20,0.07 -0.33,0.17 -0.53,0.27 -0.27,0.14 -0.35,0.23 -0.53,0.40 -0.09,0.09 -0.18,0.15 -0.28,0.24 -0.13,-0.02 -0.19,0.02 -0.28,0.04 -0.59,0.45 -1.13,0.96 -1.55,1.57 -0.55,0.34 -0.89,0.89 -1.27,1.41 -0.21,0.11 -0.32,0.27 -0.44,0.44 -0.14,0.20 -0.18,0.39 -0.28,0.60 -0.07,0.14 -0.23,0.28 -0.32,0.44 -0.09,0.17 -0.13,0.38 -0.24,0.56 -0.17,0.28 -0.39,0.49 -0.36,0.89 -0.42,0.57 -0.45,1.28 -0.61,2.10 -0.29,0.17 -0.18,0.60 -0.24,0.93 -0.02,0.10 -0.07,0.18 -0.08,0.28 -0.01,0.17 0.05,0.33 0.04,0.52 -0.01,0.17 -0.11,0.34 -0.12,0.52 -0.02,0.31 0.11,0.63 0.12,0.97 0.00,0.08 -0.07,0.16 -0.08,0.24 -0.05,0.67 0.13,1.40 0.04,2.10 0.12,0.35 0.19,0.80 0.24,1.21 0.18,0.25 0.39,0.66 0.20,1.05 0.06,0.14 0.09,0.31 0.16,0.44 -0.12,0.25 0.04,0.46 0.04,0.72 0.02,0.05 0.15,0.00 0.16,0.07 0.14,0.42 0.40,0.80 0.53,1.21 0.05,0.15 0.05,0.34 0.12,0.48 0.07,0.15 0.25,0.25 0.33,0.40 0.19,0.39 0.16,0.87 0.49,1.05 0.21,0.63 0.64,0.91 1.02,1.41 0.22,0.29 0.43,0.65 0.65,0.89 0.09,0.10 0.25,0.17 0.36,0.28 0.55,0.54 0.97,1.06 1.59,1.49 0.22,0.15 0.52,0.27 0.74,0.44 0.12,0.09 0.19,0.27 0.32,0.36 0.17,0.11 0.42,0.16 0.61,0.28 0.53,0.32 1.07,0.86 1.80,0.89 0.43,0.39 1.48,0.39 2.13,0.69 -0.90,0.96 -1.50,2.23 -1.92,3.68 -0.10,0.74 -0.19,1.50 -0.49,2.06 0.00,0.14 0.13,-0.08 0.12,0.04 -0.18,0.18 -0.11,0.28 -0.12,0.52 -0.04,0.15 -0.21,-0.04 -0.25,0.12 0.22,0.16 0.21,0.53 -0.12,0.52 0.18,0.30 0.03,0.64 -0.03,1.01 0.14,0.14 0.32,0.23 0.57,0.27 -0.11,-0.16 0.05,-0.32 0.08,-0.48 0.11,-0.60 0.05,-1.17 0.32,-1.61 -0.01,-0.57 0.25,-1.03 0.32,-1.57 0.03,-0.27 -0.03,-0.57 0,-0.85 0.04,-0.34 0.32,-0.64 0.25,-1.01 0.10,-0.21 0.30,-0.34 0.32,-0.64 0.28,-0.43 0.65,-0.89 0.90,-1.33 0.08,-0.14 0.09,-0.45 0.36,-0.40 -0.00,0.72 -0.28,1.20 -0.36,1.78 -0.09,0.63 -0.09,1.25 -0.12,1.94 -0.00,0.09 -0.07,0.18 -0.08,0.28 -0.03,0.44 0.06,0.96 0.08,1.49 0.01,0.56 -0.09,1.14 -0.04,1.61 0.01,0.15 0.10,0.32 0.12,0.48 0.05,0.42 -0.04,1.03 0.28,1.13 0.31,-0.26 0.04,-0.88 0.08,-1.41 0.02,-0.42 -0.00,-0.89 0.08,-1.21 -0.15,-0.21 -0.09,-0.50 -0.08,-0.60 0.00,-0.08 0.00,-0.15 0,-0.20 -0.02,-0.35 -0.04,-0.59 0,-0.89 0.13,-0.83 0.06,-1.60 0.16,-2.18 0.10,-0.62 0.09,-1.33 0.36,-1.74 0.01,-0.29 0.02,-0.59 0.33,-0.60 0.04,1.49 0.47,2.61 0.90,3.72 -0.00,0.14 -0.05,0.15 0,0.28 0.11,0.30 0.36,0.59 0.44,0.97 0.05,0.25 -0.01,0.54 0.12,0.80 0.15,0.01 0.01,-0.25 0.24,-0.15 0.20,-0.00 0.28,0.12 0.33,0.27 -0.39,0.54 -0.63,1.40 -0.45,2.27 0.05,0.26 0.17,0.56 0.24,0.84 0.06,0.24 0.05,0.76 0.41,0.72 0.21,-0.41 -0.23,-0.81 -0.12,-1.25 -0.47,-0.84 -0.18,-2.05 0.28,-2.71 0.10,-3.37e-4 0.23,0.01 0.28,-0.03 0.09,-0.09 0.17,-0.21 0.24,-0.32 0.36,-0.16 0.64,-0.43 0.94,-0.68 0.14,-0.12 0.30,-0.24 0.45,-0.36 0.49,-0.41 0.93,-0.84 1.43,-1.21 0.19,-0.35 0.42,-0.68 0.73,-0.92 0.05,-0.05 0.02,-0.19 0.08,-0.24 0.36,-0.21 0.47,-0.69 0.86,-0.89 0.02,-0.09 0.03,-0.20 0.08,-0.28 0.40,-0.41 0.74,-0.88 1.06,-1.37 0.25,-0.11 0.49,-0.45 0.77,-0.40 -0.25,0.36 -0.66,0.65 -0.94,1.05 -0.17,0.24 -0.27,0.57 -0.45,0.89 -0.15,0.28 -0.35,0.55 -0.49,0.84 -0.13,0.30 -0.24,0.62 -0.36,0.97 -0.16,0.43 -0.38,0.80 -0.36,1.29 -0.41,0.67 -0.28,1.49 -0.33,2.46 -0.02,0.52 -0.08,1.06 -0.03,1.54 0.07,0.76 0.38,1.51 0.20,2.38 0.24,0.13 0.61,0.14 0.94,0.20 0.12,-0.27 0.24,-0.54 0.36,-0.81 0.06,-0.13 0.14,-0.26 0.20,-0.40 0.06,-0.14 0.05,-0.33 0.12,-0.48 0.15,-0.35 0.49,-0.60 0.53,-1.01 -0.22,0.01 -0.34,0.28 -0.44,0.44 -0.35,0.59 -0.59,1.25 -0.94,1.81 -0.15,-0.47 0.16,-0.95 0.28,-1.45 0.08,-0.34 0.12,-0.59 0.16,-0.89 0.06,-0.08 0.13,-0.16 0.16,-0.28 0.02,-0.40 0.18,-0.63 0.28,-0.93 0.18,-0.55 0.27,-1.21 0.44,-1.78 0.05,-0.18 0.10,-0.35 0.16,-0.52 0.05,-0.14 0.25,-0.37 0.12,-0.44 -0.23,0.04 -0.25,0.28 -0.28,0.52 -0.08,0.07 -0.16,0.15 -0.20,0.28 -0.11,0.54 -0.34,0.97 -0.41,1.57 -0.16,0.28 -0.29,0.64 -0.40,0.97 -0.14,0.42 -0.29,0.88 -0.33,1.37 -0.11,0.13 -0.11,0.34 -0.16,0.52 -0.04,0.17 -0.08,0.38 -0.20,0.48 -0.12,-0.27 -0.11,-0.60 -0.08,-0.89 0.08,-0.65 0.26,-1.36 0.32,-2.02 0.05,-0.53 0.06,-1.03 0.16,-1.58 0.02,-0.15 0.10,-0.29 0.12,-0.44 0.01,-0.17 -0.02,-0.35 0,-0.52 0.01,-0.10 0.09,-0.17 0.12,-0.28 0.10,-0.46 0.11,-0.95 0.24,-1.41 0.11,-0.42 0.33,-0.87 0.49,-1.29 0.08,-0.22 0.14,-0.44 0.24,-0.64 0.28,-0.58 0.56,-0.91 0.94,-1.33 0.21,-0.24 0.46,-0.45 0.69,-0.68 0.42,-0.08 0.65,-0.38 0.98,-0.56 1.10,-0.38 2.16,0.23 3.03,0.56 0.51,0.54 0.82,1.32 0.90,2.30 0.04,0.59 -3e-4,1.26 -0.12,1.66 0.07,0.39 -0.18,0.49 -0.08,0.81 -0.19,0.04 -0.04,0.19 -0.08,0.32 -0.03,0.10 -0.10,0.09 -0.12,0.20 0.08,0.19 -0.03,0.35 0.04,0.52 -0.23,0.22 -0.13,0.54 -0.33,0.77 0.07,0.13 0.16,-0.16 0.16,0.03 -0.01,0.19 -0.18,0.00 -0.20,0.16 0.04,0.13 -0.05,0.46 0.03,0.64 -0.09,0.13 -0.23,0.29 -0.08,0.48 -0.15,0.01 -0.15,0.19 -0.20,0.32 -0.17,0.51 -0.27,1.03 -0.61,1.29 -0.10,0.63 -0.42,1.17 -0.65,1.66 -0.07,0.16 -0.23,0.33 -0.20,0.52 0.46,-0.07 0.92,-0.17 1.35,-0.28 0.05,-1.35 0.57,-2.58 0.86,-3.84 -0.01,-0.13 -0.11,-0.18 -0.08,-0.36 0.03,-0.08 0.25,0.01 0.20,-0.15 0.05,-0.51 0.32,-1.02 0.41,-1.54 0.15,-0.95 0.11,-1.92 0.16,-2.87 0.00,-0.08 0.07,-0.15 0.08,-0.24 0.03,-0.51 -0.27,-1.35 -0.24,-1.86 -0.20,-0.33 -0.48,-0.60 -0.73,-0.84 -0.25,-0.24 -0.62,-0.31 -1.02,-0.52 -0.28,-0.14 -0.56,-0.38 -0.82,-0.48 -0.42,-0.16 -0.93,-0.07 -1.22,-0.40 0.28,-0.21 0.59,-0.50 0.86,-0.68 0.11,-0.07 0.27,-0.08 0.36,-0.16 0.11,-0.08 0.17,-0.26 0.28,-0.36 0.05,-0.05 0.17,-0.06 0.24,-0.12 0.24,-0.19 0.26,-0.38 0.44,-0.60 0.10,-0.12 0.31,-0.25 0.41,-0.36 0.00,-0.14 0.10,-0.19 0.12,-0.32 0.37,-0.29 0.50,-0.77 0.77,-1.17 0.26,-0.38 0.57,-0.75 0.77,-1.17 0.10,-0.22 0.10,-0.49 0.32,-0.64 0.51,-2.13 1.51,-3.79 1.80,-6.16 0.21,-0.44 0.39,-1.25 0.24,-1.69 0.28,-0.97 0.18,-2.15 0.20,-3.40 -0.09,-0.20 -0.24,-0.32 -0.28,-0.52 -0.03,-0.13 0.01,-0.31 0,-0.44 -0.02,-0.18 -0.12,-0.50 -0.20,-0.68 -0.05,-0.12 -0.17,-0.20 -0.24,-0.32 -0.14,-0.26 -0.28,-0.54 -0.37,-0.77 -0.05,-0.15 -0.05,-0.31 -0.12,-0.48 -0.12,-0.33 -0.43,-0.64 -0.44,-1.04 -0.25,-0.15 -0.26,-0.47 -0.41,-0.69 C 38.90,10.12 38.67,9.95 38.54,9.75 38.38,9.53 38.33,9.39 38.17,9.22 37.94,8.99 37.73,8.77 37.51,8.58 37.20,8.29 36.85,8.03 36.49,7.85 36.18,7.34 35.69,7.22 35.17,6.91 35.03,6.83 34.93,6.74 34.80,6.67 34.46,6.50 34.13,6.40 33.82,6.26 33.65,6.19 33.45,6.14 33.29,6.06 32.93,5.89 32.66,5.64 32.34,5.54 32.12,5.47 31.83,5.48 31.56,5.42 31.34,5.36 31.13,5.24 30.95,5.21 c -0.14,-0.02 -0.29,0.01 -0.44,0 -0.72,-0.07 -1.51,-0.25 -2.17,-0.20 -0.74,0.05 -1.50,-0.15 -2.25,-0.16 -0.16,-0.00 -0.33,0.05 -0.49,0.04 -0.15,-0.00 -0.29,-0.07 -0.44,-0.07 -0.54,-0.01 -0.99,0.18 -1.47,0.07 C 23.54,4.42 23.58,3.94 23.40,3.59 23.21,3.23 22.51,2.82 22.13,2.58 21.74,2.34 21.10,1.90 20.61,1.93 z m 0.28,0.40 0.08,0 c 0.40,0.06 0.64,0.31 0.94,0.52 0.14,0.10 0.45,0.18 0.37,0.44 -0.73,-0.06 -1.09,-0.49 -1.39,-0.97 z m 1.60,0.97 c 0.52,0.00 0.89,0.75 0.94,1.25 0.03,0.37 -0.08,0.67 -0.12,1.05 -0.06,0.67 -0.63,1.54 -0.90,2.22 -0.10,0.26 -0.23,0.48 -0.32,0.69 -0.03,0.07 -0.00,0.19 -0.04,0.28 -0.05,0.12 -0.14,0.10 -0.12,0.36 0.01,0.18 0.21,0.33 0.24,0.48 0.61,-0.02 0.87,0.30 1.31,0.44 0.04,-0.05 -0.12,-0.22 -0.24,-0.24 0.22,-0.07 0.55,-0.17 0.77,-0.12 -0.04,0.17 -0.19,0.24 -0.24,0.40 0.13,0.14 0.18,0.17 0.12,0.44 0.17,-0.06 0.14,-0.33 0.32,-0.40 -0.08,-0.14 -0.26,0.18 -0.32,-0.04 0.01,-0.20 0.20,-0.06 0.32,-0.07 0.64,-0.05 1.43,-0.01 1.80,0.28 -0.00,-0.24 -0.51,-0.41 -0.90,-0.49 -0.28,-0.05 -0.64,0.02 -0.90,0 0.05,-0.27 0.45,-0.19 0.77,-0.20 0.03,-0.13 -0.13,-0.05 -0.16,-0.12 -0.01,-0.15 0.19,-0.07 0.20,-0.20 -0.46,0.11 -0.85,0.32 -1.31,0.24 0.11,-0.20 0.43,-0.21 0.65,-0.32 0.01,-0.09 -0.18,0.02 -0.12,-0.12 0.31,-0.10 0.60,-0.24 0.94,-0.32 -0.42,-0.10 -0.79,0.19 -1.11,0.32 -0.06,0.03 -0.05,0.13 -0.08,0.20 -0.42,0.06 -0.69,0.45 -1.10,0.40 0.08,-0.34 0.52,-0.33 0.73,-0.56 -0.41,-0.09 -0.63,0.43 -1.02,0.40 -0.24,-0.01 -0.44,-0.30 -0.45,-0.52 -0.00,-0.29 0.39,-0.66 0.41,-0.97 0.25,-0.09 0.51,-0.19 0.74,-0.32 0.01,-0.17 -0.15,-0.17 -0.20,-0.28 -0.18,0.05 -0.08,0.40 -0.36,0.36 0.11,-0.62 0.44,-0.84 0.57,-1.49 0.11,0.03 0.10,-0.05 0.20,-0.03 0.03,-0.11 -0.05,-0.10 -0.04,-0.20 0.20,-0.02 0.30,-0.15 0.57,-0.12 -0.04,-0.29 -0.43,0.02 -0.53,-0.07 -0.03,-0.22 0.37,-0.35 0.73,-0.32 0.05,-0.35 0.37,-0.03 0.73,-0.12 0.01,0.16 -0.17,0.12 -0.20,0.24 0.19,-1.69e-4 0.26,-0.18 0.44,-0.24 0.59,-0.17 1.38,0.07 2.01,0.12 -0.06,-0.16 -0.32,-0.13 -0.49,-0.20 0.03,-0.13 0.40,-0.10 0.44,0 0.97,0.07 2.39,0.14 3.48,0.24 0.31,0.02 0.63,0.08 0.82,0.24 0.74,0.12 1.39,0.34 1.88,0.72 0.42,0.14 0.91,0.23 1.14,0.56 0.57,0.13 0.98,0.57 1.43,0.89 0.45,0.31 0.87,0.67 1.27,1.09 0.36,0.37 0.64,0.80 1.02,1.17 0.24,0.53 0.83,0.90 0.81,1.57 C 38.96,11.60 38.73,11.37 38.54,11.09 38.34,10.80 38.25,10.46 38.05,10.19 37.72,9.76 37.24,9.50 36.81,9.18 36.78,9.13 36.76,9.07 36.77,8.98 36.04,8.42 35.30,7.86 34.02,7.84 c 0.02,0.13 0.18,0.14 0.24,0.24 0.61,-0.05 1.06,0.19 1.47,0.40 C 36.08,8.65 36.45,8.77 36.65,9.06 36.26,8.97 35.77,8.56 35.34,8.78 36.52,9.17 37.50,9.77 38.25,10.60 37.96,10.66 37.83,10.33 37.63,10.19 37.44,10.06 37.19,9.96 36.98,9.83 36.77,9.70 36.56,9.52 36.28,9.55 c 0.19,0.24 0.48,0.39 0.74,0.56 0.24,0.16 0.54,0.30 0.77,0.48 0.25,0.19 0.47,0.48 0.69,0.72 0.21,0.23 0.48,0.48 0.57,0.81 -0.66,-0.43 -1.03,-1.17 -1.84,-1.46 0.18,0.37 0.57,0.57 0.86,0.84 0.54,0.51 1.00,0.99 1.43,1.66 0.31,0.48 0.63,0.91 0.77,1.61 -0.18,-0.04 -0.28,-0.25 -0.36,-0.40 -0.25,-0.45 -0.51,-0.98 -0.90,-1.33 -0.32,-0.66 -0.97,-1.00 -1.55,-1.41 -0.05,0.23 0.21,0.29 0.33,0.40 0.11,0.10 0.21,0.25 0.32,0.36 0.23,0.22 0.53,0.43 0.73,0.69 0.14,0.17 0.22,0.41 0.36,0.60 0.36,0.49 0.85,1.11 1.11,1.78 0.10,0.28 0.09,0.57 0.16,0.89 0.03,0.15 0.15,0.36 0.04,0.64 -0.24,-0.12 -0.15,-0.37 -0.20,-0.60 -0.34,-1.51 -1.19,-2.70 -2.25,-3.56 -0.07,0.19 0.15,0.33 0.24,0.44 0.77,0.88 1.51,1.92 1.89,3.28 0.03,0.12 0.00,0.24 0.03,0.36 0.10,0.38 0.21,0.65 0.20,1.09 -0.00,0.18 0.15,0.46 -0.04,0.60 -0.17,-0.27 -0.11,-0.61 -0.16,-0.89 -0.08,-0.50 -0.30,-0.99 -0.49,-1.45 -0.18,-0.45 -0.39,-0.89 -0.65,-1.26 -0.11,-0.15 -0.26,-0.28 -0.36,-0.44 -0.11,-0.16 -0.16,-0.35 -0.32,-0.48 -0.11,0.32 0.20,0.57 0.36,0.80 0.17,0.25 0.34,0.54 0.49,0.81 0.29,0.53 0.60,1.19 0.77,1.82 0.08,0.29 0.11,0.61 0.12,0.92 -0.09,-0.07 -0.14,-0.17 -0.12,-0.36 -0.26,-0.64 -0.45,-1.36 -0.82,-1.90 -0.02,-0.15 -0.02,-0.32 -0.16,-0.36 -0.08,0.22 0.06,0.44 0.16,0.64 0.31,0.68 0.57,1.44 0.69,2.26 0.06,0.41 0.08,0.89 0.08,1.33 -0.00,0.50 0.00,1.48 -0.20,1.82 -0.11,-0.00 -0.04,-0.17 -0.04,-0.24 0.01,-1.61 -0.19,-3.14 -0.61,-4.33 -0.14,0.23 0.07,0.53 0.12,0.81 0.20,1.14 0.55,2.63 0.28,4.09 -0.23,-0.17 -0.15,-0.44 -0.20,-0.69 -0.10,-0.49 -0.32,-0.96 -0.57,-1.37 -0.24,-0.40 -0.47,-0.82 -0.82,-1.09 -0.14,0.30 0.19,0.38 0.33,0.56 0.07,0.10 0.11,0.29 0.20,0.44 0.35,0.60 0.72,1.29 0.90,2.15 -0.01,0.21 -0.06,0.32 0.08,0.44 -0.04,0.08 -0.10,0.16 -0.08,0.32 -0.24,-0.12 -0.20,-0.46 -0.24,-0.68 -0.12,-0.64 -0.31,-1.20 -0.61,-1.70 -0.16,-0.27 -0.33,-0.58 -0.57,-0.77 -0.05,0.28 0.20,0.50 0.33,0.73 0.25,0.47 0.49,0.99 0.65,1.61 0.11,0.42 0.18,0.79 0.20,1.33 -0.03,0.13 0.15,0.06 0.16,0.16 -0.03,0.15 -0.05,0.32 -0.16,0.40 -0.19,-0.11 -0.09,-0.35 -0.12,-0.52 -0.17,-1.05 -0.51,-2.00 -1.10,-2.67 -0.06,0.43 0.31,0.75 0.49,1.13 0.05,0.11 0.06,0.29 0.12,0.44 0.24,0.69 0.45,1.53 0.36,2.34 -0.20,0.01 -0.21,-0.29 -0.04,-0.32 -0.15,-0.22 -0.09,-0.45 -0.12,-0.69 -0.09,-0.72 -0.42,-1.36 -0.73,-1.98 -0.22,0.10 -0.00,0.26 0.04,0.40 0.25,0.77 0.64,1.58 0.57,2.75 -0.02,0.37 -0.03,0.82 -0.28,1.04 -0.02,-0.60 0.09,-1.41 -0.03,-2.10 -0.03,-0.17 -0.11,-0.36 -0.16,-0.52 -0.04,-0.14 -0.01,-0.38 -0.20,-0.44 -0.07,0.43 0.18,0.86 0.24,1.37 0.02,0.25 -0.04,0.50 -0.04,0.77 -3.42e-4,0.20 0.04,0.39 0.04,0.60 -0.02,0.78 -0.21,1.47 -0.57,1.98 -0.17,-0.15 0.03,-0.37 0.08,-0.56 0.21,-0.97 0.26,-2.35 0.12,-3.32 -0.19,0.04 -0.04,0.67 -0.03,0.93 0.03,0.73 -0.10,1.45 -0.16,2.14 -0.02,0.28 -0.12,0.56 -0.20,0.84 -0.15,0.57 -0.29,0.71 -0.57,1.09 -0.16,0.22 -0.27,0.40 -0.41,0.61 -0.16,-0.15 -0.15,-0.02 -0.32,-0.12 0.05,-1.47 -0.25,-2.68 -0.73,-3.65 -0.06,-0.13 -0.14,-0.32 -0.28,-0.40 -0.10,0.08 0.04,0.35 0.12,0.52 0.07,0.15 0.22,0.31 0.28,0.49 0.06,0.17 0.06,0.37 0.12,0.56 0.23,0.77 0.46,1.69 0.36,2.79 -0.01,0.18 -0.00,0.45 -0.20,0.52 -0.19,-0.14 -0.02,-0.40 0,-0.56 0.16,-1.23 -0.26,-2.57 -0.74,-3.48 -0.08,0.01 -0.03,0.15 -0.12,0.16 0.10,0.15 0.21,0.27 0.33,0.56 0.28,0.73 0.42,1.66 0.36,2.67 -0.04,0.70 0.03,1.30 -0.65,1.29 -0.10,-0.01 0.03,-0.11 0.12,-0.08 0.18,-0.19 0.27,-0.52 0.32,-0.80 0.19,-1.09 -0.04,-2.27 -0.49,-3.08 -0.10,0.25 0.13,0.50 0.20,0.77 0.23,0.89 0.26,2.11 -0.04,3.03 0.04,-1.01 0.12,-2.44 -0.32,-3.20 -0.04,0.44 0.21,0.93 0.24,1.46 0.02,0.40 8.62e-4,1.18 -0.12,1.69 -0.04,0.20 -0.14,0.53 -0.37,0.61 0.05,-0.43 0.26,-1.12 0.20,-1.90 -0.01,-0.22 -0.04,-0.48 -0.08,-0.69 -0.02,-0.19 -0.03,-0.46 -0.20,-0.52 8.62e-4,0.60 0.21,1.55 0.08,2.43 -0.06,0.39 -0.14,0.89 -0.44,1.09 0.05,-0.64 0.26,-1.31 0.24,-2.06 -0.00,-0.30 -0.12,-0.63 -0.08,-0.97 -0.23,0.08 -0.08,0.31 -0.08,0.48 0.00,0.66 0.01,1.45 -0.12,2.06 -0.07,0.33 -0.13,0.85 -0.49,0.81 0.23,-0.78 0.43,-1.81 0.28,-2.83 -0.25,0.06 -0.07,0.30 -0.08,0.44 -0.00,0.25 -0.02,0.52 -0.04,0.80 -0.05,0.73 -0.30,1.43 -0.57,1.94 -0.13,-0.02 -0.24,0.18 -0.32,0.07 -0.18,-0.01 0.10,-0.16 0.12,-0.24 0.24,-0.61 0.54,-1.38 0.49,-2.14 -0.14,0.09 -0.08,0.38 -0.12,0.56 -0.07,0.42 -0.19,0.87 -0.41,1.13 -0.07,0.38 -0.19,0.71 -0.44,0.92 -0.08,-0.21 0.16,-0.41 0.28,-0.56 -0.05,-0.17 -0.00,-0.20 0.12,-0.28 -0.02,-0.37 0.26,-0.75 0.20,-1.29 -0.13,-0.07 -0.30,-0.01 -0.20,-0.24 -0.25,0.19 -0.03,0.85 -0.36,0.97 0.09,-0.44 -0.27,-1.25 0,-1.62 0.20,0.00 0.06,0.36 0.16,0.49 0.23,-0.22 -0.14,-0.66 -0.03,-0.89 0.10,-0.07 0.24,0.09 0.36,0.12 0.39,-0.45 0.69,-1.01 0.81,-1.74 0.18,-0.04 0.22,0.16 0.36,0.04 0.20,-0.14 -0.01,-0.30 -0.03,-0.48 -0.01,-0.14 0.05,-0.30 0.03,-0.44 -0.02,-0.18 -0.15,-0.34 -0.20,-0.56 -0.12,-0.61 0.00,-1.39 -0.12,-1.94 -0.01,-0.08 -0.03,-0.16 -0.16,-0.24 -0.35,0.01 -0.19,0.33 -0.20,0.64 -0.01,0.68 -0.27,1.69 -0.36,2.47 -0.03,0.30 0.01,0.55 -0.16,0.77 -0.24,0.03 -0.33,-0.07 -0.49,-0.12 -0.21,-0.83 -0.58,-1.51 -0.98,-2.18 -0.15,0.14 0.05,0.36 0.12,0.48 0.23,0.43 0.52,0.98 0.69,1.54 -0.47,-0.06 -0.42,-0.63 -0.73,-0.85 -0.10,0.28 0.21,0.49 0.28,0.73 -0.05,0.95 -0.16,2.11 -0.61,2.79 -0.58,0.13 -1.16,-0.06 -1.59,-0.20 -0.13,0.08 -0.27,0.16 -0.24,0.40 -0.49,0.43 -0.72,1.12 -1.06,1.70 -0.64,-0.14 -1.07,-0.50 -1.39,-0.97 -0.03,-0.12 0.11,-0.07 0.08,-0.20 -0.04,-0.13 -0.11,-0.24 -0.12,-0.40 -0.19,-0.16 -0.27,-0.42 -0.44,-0.60 -0.09,-0.10 -0.22,-0.15 -0.33,-0.24 -0.37,-0.32 -0.66,-0.79 -1.10,-1.05 -0.16,0.25 0.31,0.22 0.24,0.52 0.55,0.34 0.94,0.83 1.35,1.33 0.11,0.14 0.31,0.23 0.28,0.44 -0.60,-0.36 -0.93,-0.99 -1.59,-1.29 0.01,0.20 0.25,0.31 0.41,0.44 0.46,0.39 1.00,0.86 1.35,1.41 -0.69,-0.27 -1.11,-0.81 -1.76,-1.13 0.20,0.46 0.70,0.62 1.06,0.93 -0.20,0.22 -0.40,0.43 -0.65,0.69 -0.15,0.15 -0.49,0.60 -0.69,0.60 -0.24,0.00 -0.43,-0.37 -0.69,-0.48 -0.20,-0.08 -0.36,-0.05 -0.61,-0.12 -0.04,-0.07 -0.15,-0.08 -0.20,-0.16 -0.24,3.37e-4 -0.41,-0.08 -0.57,0.04 -0.18,0.05 -0.16,-0.19 -0.28,-0.08 -0.20,0.06 -0.19,0.35 -0.49,0.32 -0.17,-0.34 -0.05,-0.74 -0.25,-1.05 -0.13,0.41 0.18,0.94 0.12,1.29 -0.26,0.05 -0.23,-0.29 -0.28,-0.44 -0.10,-0.31 -0.21,-0.67 -0.33,-1.04 l 0,-0.36 c -0.23,0.03 -0.06,0.25 -0.03,0.40 0.01,0.07 -0.05,0.08 -0.04,0.16 0.06,0.43 0.31,0.94 0.36,1.25 -0.39,-0.21 -0.55,-0.78 -0.65,-1.29 -0.10,-0.51 -0.09,-1.10 -0.24,-1.54 -0.13,0.75 0.19,1.71 0.36,2.43 -0.14,-0.09 -0.16,-0.28 -0.36,-0.32 -0.27,-0.83 -0.42,-1.80 -0.53,-2.79 -0.18,0.14 -0.05,0.43 -0.03,0.64 0.03,0.43 0.09,0.87 0.20,1.25 -0.30,-0.10 -0.40,-0.49 -0.49,-0.85 -0.14,-0.58 -0.14,-1.20 -0.16,-1.94 -0.19,0.14 -0.13,0.45 -0.12,0.68 0.01,0.37 0.11,0.80 0.12,1.13 -0.62,-0.46 -0.52,-2.08 -0.36,-2.83 -0.17,0.09 -0.22,0.58 -0.24,0.92 -0.05,0.75 0.11,1.55 0.36,1.98 0.12,0.01 0.14,-0.07 0.28,-0.04 0.07,0.32 0.12,0.62 0.28,0.84 0.10,0.14 0.27,0.18 0.36,0.28 0.10,0.12 0.03,0.25 0.16,0.32 -0.15,0.11 -0.25,-0.17 -0.40,-0.20 -0.93,-0.14 -1.46,0.27 -2.25,0.24 -0.02,-0.22 0.02,-0.38 0.08,-0.52 -0.30,-0.10 -0.10,0.40 -0.16,0.56 -0.38,-0.02 -0.53,-0.27 -0.49,-0.72 -0.21,-0.08 -0.26,-0.32 -0.20,-0.56 -0.19,-0.25 -0.54,-0.51 -0.98,-0.40 -0.10,-0.09 -0.31,-0.09 -0.33,-0.27 -0.31,0.12 -0.42,-0.27 -0.73,-0.28 -0.14,-0.14 -0.23,-0.33 -0.41,-0.44 -0.11,-0.88 -0.49,-1.50 -0.77,-2.22 -0.33,0.10 -0.08,0.43 -0.04,0.69 0.06,0.36 0.07,0.81 0.04,1.13 0.26,0.21 0.27,0.66 0.49,0.92 l 0,0.69 c 0.16,0.06 0.01,-0.17 0.12,-0.16 0.50,0.00 0.20,0.79 0.44,1.05 -0.15,0.08 -0.39,-0.10 -0.36,-0.32 -0.18,0.03 -0.53,-0.31 -0.57,-0.68 -0.08,-0.08 -0.25,-0.10 -0.37,-0.16 0.04,-0.28 -0.14,-0.34 -0.32,-0.40 -0.04,-0.22 -0.05,-0.49 -0.04,-0.77 -0.16,-0.06 -0.01,0.17 -0.12,0.16 -0.31,-0.12 -0.15,-0.59 -0.12,-0.81 0.05,-0.36 -0.02,-0.78 0,-1.09 -0.19,0.29 -0.15,0.98 -0.16,1.33 -0.13,-0.02 -0.18,-0.26 -0.20,-0.36 -0.08,-0.36 -0.09,-0.83 -0.04,-1.25 0.05,-0.40 0.30,-0.81 0.16,-1.13 -0.17,0.40 -0.22,0.93 -0.32,1.41 -0.40,-0.76 0.13,-1.51 0.16,-2.18 -0.19,0.25 -0.23,0.65 -0.36,0.97 -0.17,-0.36 -0.03,-0.79 0.04,-1.17 0.12,-0.57 0.38,-1.12 0.53,-1.61 -0.44,0.38 -0.47,1.18 -0.69,1.78 -0.18,-0.27 -0.06,-0.68 0,-0.97 0.07,-0.36 0.15,-0.72 0.33,-0.97 -0.15,0.00 -0.16,0.16 -0.20,0.28 -0.13,-0.12 -0.05,-0.38 -0.03,-0.56 -0.14,0.00 0.00,0.30 -0.16,0.28 -0.13,-0.53 0.05,-1.06 0.20,-1.45 0.03,-0.09 0.05,-0.20 0.08,-0.28 0.12,-0.29 0.34,-0.54 0.49,-0.81 0.04,-0.08 0.03,-0.19 0.08,-0.28 0.22,-0.42 0.71,-0.76 0.90,-1.25 -0.13,-0.00 -0.24,0.25 -0.36,0.40 -0.05,0.06 -0.14,0.12 -0.20,0.20 -0.25,0.36 -0.55,0.86 -0.77,1.29 -0.14,-0.02 -0.02,-0.15 0,-0.24 -0.10,0.05 -0.24,0.28 -0.08,0.36 -0.16,0.47 -0.42,0.90 -0.49,1.46 -0.03,0.32 0.08,0.58 0.12,0.93 0.06,0.58 -0.13,1.19 -0.03,1.74 0.01,0.08 0.08,0.10 0.12,0.15 -0.11,1.13 0.28,2.26 0.49,3.08 -0.29,-0.19 -0.34,-0.63 -0.57,-0.89 0.01,-0.63 -0.50,-0.73 -0.49,-1.37 -0.46,-0.40 -0.36,-1.30 -0.53,-1.90 0.03,-0.10 0.13,-0.13 0.20,-0.20 0.02,-0.22 -0.16,-0.24 -0.24,-0.36 0.04,-0.23 0.26,-0.30 0.28,-0.56 -0.31,-0.06 -0.16,0.32 -0.36,0.36 -0.38,-0.24 0.21,-0.62 0.08,-0.89 0.10,-0.09 0.22,-0.18 0.24,-0.36 -0.39,-8.51e-4 -0.23,0.76 -0.53,0.72 -0.19,-0.04 0.04,-0.25 0.03,-0.36 -0.38,-0.30 0.04,-0.82 0.16,-1.13 -0.18,0.04 -0.17,0.29 -0.28,0.40 -0.27,-0.01 -0.14,-0.35 -0.12,-0.44 0.01,-0.04 0.11,-0.22 0.16,-0.32 0.18,-0.36 0.58,-0.79 0.69,-1.17 0.09,-0.09 0.24,-0.13 0.24,-0.32 -0.34,-0.01 -0.42,0.45 -0.57,0.72 -0.17,0.30 -0.37,0.60 -0.49,0.89 -0.20,-0.24 -0.13,-0.63 0,-0.93 0.09,-0.19 0.33,-0.52 0.49,-0.72 0.17,-0.22 0.45,-0.54 0.61,-0.80 -0.18,-0.10 -0.22,0.11 -0.32,0.24 -0.10,0.13 -0.36,0.37 -0.49,0.56 -0.09,0.14 -0.07,0.46 -0.33,0.44 -0.11,-0.95 0.68,-1.34 1.23,-1.78 -0.50,-0.17 -0.63,0.72 -1.06,0.48 -0.06,0.09 -0.07,0.24 -0.16,0.32 -0.10,-0.02 -0.14,-0.09 -0.20,-0.15 0.03,-0.19 0.24,-0.21 0.44,-0.24 0.35,-0.34 0.71,-0.67 1.11,-0.97 -0.30,-0.08 -0.49,0.21 -0.69,0.36 -0.11,0.08 -0.22,0.16 -0.32,0.24 -0.11,0.08 -0.21,0.21 -0.36,0.20 -0.14,-0.23 0.18,-0.41 0.32,-0.52 0.34,-0.28 0.72,-0.60 1.14,-0.84 -0.22,-0.13 -0.58,0.18 -0.81,0.36 -0.22,0.16 -0.39,0.48 -0.65,0.44 0.28,-0.88 1.18,-1.15 1.72,-1.78 0.16,-0.06 0.35,-0.10 0.41,-0.27 -0.30,0.01 -0.56,0.26 -0.82,0.44 -0.26,0.18 -0.55,0.34 -0.73,0.56 -0.03,-0.18 0.17,-0.32 0.28,-0.44 0.31,-0.34 0.64,-0.55 1.10,-0.84 0.39,-0.24 0.71,-0.53 1.23,-0.69 -0.13,-0.23 -0.38,0.00 -0.53,0.08 -0.50,0.26 -1.14,0.64 -1.55,1.01 -0.01,-0.17 0.23,-0.47 0.41,-0.61 0.15,-0.12 0.38,-0.23 0.57,-0.36 0.51,-0.35 1.19,-0.67 1.84,-0.92 -0.15,-0.16 -0.34,0.02 -0.49,0.07 -0.46,0.17 -0.97,0.38 -1.39,0.69 -0.13,0.09 -0.23,0.26 -0.41,0.27 -0.11,0.11 -0.17,0.28 -0.36,0.32 -0.09,0.17 -0.24,0.29 -0.36,0.44 -0.03,0.11 0.05,0.10 0.03,0.20 -0.32,0.16 -0.31,0.65 -0.69,0.77 -0.11,-0.35 0.26,-0.47 0.44,-0.64 -0.03,-0.08 -0.21,-0.03 -0.24,-0.12 0.10,-0.48 0.45,-0.71 0.73,-1.01 0.21,0.01 0.05,0.13 0.04,0.24 0.34,-0.51 0.96,-0.72 1.47,-1.09 0.19,-0.14 0.71,-0.37 0.98,-0.48 0.30,-0.13 0.65,-0.26 0.94,-0.36 0.10,-0.03 0.26,0.09 0.28,-0.12 -0.58,-0.00 -1.10,0.39 -1.68,0.52 0.61,-0.56 1.44,-0.92 2.54,-1.01 -0.15,-0.23 -0.49,-0.08 -0.74,-0.04 -0.26,0.05 -0.55,0.13 -0.77,0.16 0.05,-0.18 0.20,-0.18 0.41,-0.24 0.51,-0.14 1.08,-0.51 1.80,-0.44 -0.17,-0.29 -0.73,-0.02 -1.02,-0.03 0.34,-0.33 1.06,-0.29 1.68,-0.36 -0.14,-0.22 -0.51,-0.02 -0.86,-0.08 0.22,-0.32 0.90,-0.20 1.39,-0.27 -0.15,-0.10 -0.42,-0.12 -0.61,-0.12 -0.48,0.00 -0.87,0.19 -1.06,0.49 -0.31,0.02 -0.52,0.14 -0.73,0.27 -0.08,0.03 -0.06,0.17 -0.12,0.24 -0.40,0.08 -0.70,0.28 -0.98,0.49 -0.02,0.12 0.14,0.10 0.04,0.20 -0.80,0.22 -1.21,0.94 -1.92,1.29 -0.29,0.14 -0.53,0.41 -0.77,0.64 l -0.28,0 c -0.14,0.12 -0.22,0.31 -0.44,0.36 0.05,-0.52 0.44,-0.72 0.82,-0.93 -0.16,-0.34 -0.42,0.32 -0.61,0.20 0.17,-0.45 0.60,-0.64 0.94,-0.93 -0.23,-0.15 -0.35,0.30 -0.57,0.16 0.14,-0.53 0.76,-0.59 1.02,-1.01 -0.34,-0.00 -0.34,0.33 -0.69,0.32 0.21,-0.60 0.92,-0.73 1.39,-1.09 -0.19,-0.18 -0.45,0.20 -0.73,0.20 0.09,-0.25 0.39,-0.31 0.53,-0.52 0.47,-0.12 0.86,-0.32 1.35,-0.44 -0.00,-0.07 -0.07,-0.09 -0.16,-0.08 0.33,-0.24 0.89,-0.28 1.35,-0.40 -0.59,-0.18 -1.31,0.16 -1.88,0.27 0.29,-0.64 1.67,-0.52 2.66,-0.60 -0.11,-0.24 -0.49,-0.09 -0.77,-0.07 -0.44,0.02 -0.94,0.05 -1.27,0.04 C 15.04,9.29 16.47,9.40 17.32,9.55 17.25,9.29 16.94,9.36 16.54,9.35 15.98,9.32 15.45,9.26 14.99,9.38 14.98,9.13 15.47,9.03 15.56,8.74 15.87,8.63 16.11,8.47 16.34,8.29 l 0.82,0 C 17.27,8.15 17.00,8.09 16.87,8.05 17.34,8.01 17.88,8.24 18.35,8.33 18.13,7.98 17.59,7.95 17.16,7.81 17.83,7.58 18.43,8.11 18.93,8.33 18.92,8.15 18.66,8.00 18.47,7.88 18.26,7.75 18.01,7.67 17.81,7.56 c 0.34,-0.02 0.67,0.18 0.94,0.36 0.27,0.18 0.50,0.41 0.73,0.60 -0.09,-0.33 -0.39,-0.47 -0.61,-0.68 0.50,-0.00 0.83,0.51 1.14,0.84 0.07,-0.19 -0.33,-0.47 -0.32,-0.60 0.34,0.06 0.39,0.41 0.61,0.60 0.16,0.01 0.20,-0.10 0.28,-0.16 C 20.51,8.32 20.31,8.21 20.20,8.01 19.60,8.03 19.38,7.88 19.01,7.64 18.83,7.60 18.78,7.69 18.68,7.73 18.49,7.57 18.22,7.50 17.98,7.40 18.15,7.12 18.59,7.11 18.80,6.87 c 0.38,-4.9e-4 0.52,-0.22 0.81,-0.32 0.07,0.03 0.08,0.12 0.12,0.20 0.18,-0.02 0.30,-0.02 0.28,-0.16 0.03,-0.00 0.04,0.01 0.04,0.04 0.17,0.05 -0.24,0.17 -0.20,0.36 0.29,-0.00 0.37,-0.22 0.53,-0.36 0.19,-0.00 0.39,-0.01 0.53,-0.07 -0.06,-0.21 -0.52,0.01 -0.61,-0.08 0.10,-0.42 0.84,-0.21 1.14,-0.44 0.18,-0.04 0.12,0.14 0.24,0.16 0.18,-0.09 0.47,-0.27 0.73,-0.16 -0.01,0.40 -0.64,0.19 -0.77,0.48 0.14,0.15 0.49,-0.21 0.61,0.04 -0.01,0.16 -0.19,0.05 -0.28,0.07 -0.15,0.04 -0.35,0.16 -0.41,0.28 0.20,0.15 0.33,-0.22 0.53,-0.08 -0.11,0.51 -0.52,1.08 -0.57,1.78 -0.16,0.13 -0.16,-0.16 -0.36,-0.12 0.00,0.19 0.14,0.26 0.16,0.44 -0.08,0.16 -0.08,0.31 -0.04,0.52 0.01,0.14 0.22,0.10 0.24,0.24 -0.17,0.18 -0.41,0.09 -0.65,0.12 -0.50,0.06 -1.00,0.25 -1.39,0.44 -0.04,0.21 -0.45,0.26 -0.61,0.48 0.55,-0.20 1.06,-0.45 1.76,-0.52 -0.02,-0.09 -0.25,0.00 -0.28,-0.08 0.05,-0.09 0.28,-0.01 0.41,-0.03 0.07,0.00 -0.10,-0.22 0.12,-0.16 0.19,0.01 0.01,0.17 -0.03,0.20 0.35,-0.06 0.51,-0.32 0.86,-0.40 C 21.53,9.46 21.48,8.77 21.76,8.58 21.93,7.59 22.51,7.00 22.70,6.02 23.01,5.66 23.00,4.56 22.78,4.08 22.65,3.78 22.34,3.69 22.49,3.31 z m 3.24,2.31 c -0.19,-0.01 -0.47,0.05 -0.65,0.12 -0.28,0.09 -0.52,0.32 -0.77,0.40 -0.04,0.08 -0.05,0.22 -0.16,0.24 -0.13,0.08 -0.40,0.03 -0.41,0.24 0.23,0.02 0.42,-0.14 0.65,-0.20 0.28,-0.06 0.61,-0.00 0.86,-0.16 -0.24,-0.13 -0.54,0.00 -0.77,-0.07 0.53,-0.38 1.30,-0.44 2.17,-0.32 -0.07,-0.22 -0.39,-0.09 -0.53,-0.12 -0.12,-0.02 -0.22,-0.11 -0.36,-0.12 z m -3.32,0.07 c 0.08,-0.00 0.14,0.02 0.16,0.12 -0.39,-0.03 -0.78,0.26 -0.98,0.15 0.00,-0.18 0.21,-0.15 0.41,-0.15 0.08,-0.02 0.26,-0.12 0.40,-0.12 z m 8.44,0.80 c -0.11,0.00 -0.23,0.02 -0.40,0.05 -0.31,0.04 -0.65,0.08 -0.98,0.16 -0.32,0.08 -0.69,0.08 -0.82,0.32 0.89,-0.17 1.67,-0.45 2.78,-0.40 0.01,-0.14 -0.14,-0.06 -0.20,-0.07 -0.15,-0.04 -0.26,-0.05 -0.37,-0.05 z m -2.01,0.03 c -0.78,0.01 -1.44,0.37 -1.87,0.78 0.57,-0.21 1.08,-0.59 1.76,-0.69 0.13,-0.02 0.35,0.08 0.45,-0.07 -0.11,-0.01 -0.23,-0.01 -0.34,-0.01 z m -4.28,0.07 c -0.46,-0.00 -0.94,0.19 -1.27,0.37 0.08,0.29 -0.18,0.24 -0.20,0.44 0.17,-0.00 0.31,-0.15 0.49,-0.20 0.18,-0.05 0.46,-0.01 0.57,-0.15 -0.22,-0.16 -0.54,0.13 -0.73,0 0.26,-0.16 0.71,-0.22 1.06,-0.32 0.09,-0.02 0.28,0.04 0.28,-0.12 -0.06,-0.00 -0.13,-0.01 -0.19,-0.01 z m 2.82,0.05 c -0.52,0.09 -0.94,0.25 -1.31,0.48 -0.29,0.17 -0.62,0.42 -0.77,0.69 0.30,-0.10 0.50,-0.35 0.77,-0.52 0.25,-0.16 0.56,-0.33 0.86,-0.44 0.16,-0.06 0.35,0.00 0.45,-0.20 z m -6.56,0.07 c -0.10,0.24 -0.60,0.10 -0.61,0.44 0.17,0.13 0.29,-0.07 0.36,-0.16 0.11,-0.10 0.38,-0.05 0.45,-0.20 -0.03,-0.06 -0.10,-0.09 -0.20,-0.08 z m 11.02,0.04 c -0.30,0.00 -0.60,0.04 -0.88,0.07 -0.23,0.02 -0.59,-0.05 -0.69,0.20 0.42,0.01 0.91,-0.15 1.43,-0.16 0.47,-0.00 1.00,0.10 1.35,0.20 0.16,0.04 0.36,0.07 0.44,0.20 -0.33,-0.03 -0.55,0.04 -0.86,0.03 0.04,0.17 0.21,0.14 0.32,0.16 0.40,0.05 0.95,-0.10 1.39,-0.04 0.45,0.06 0.74,0.33 1.10,0.49 -0.28,-0.39 -0.81,-0.63 -1.43,-0.69 -0.10,-0.00 -0.22,0.02 -0.32,0 -0.15,-0.03 -0.28,-0.18 -0.45,-0.24 -0.07,-0.02 -0.17,0.01 -0.24,0 C 32.90,7.01 32.84,6.94 32.75,6.91 32.45,6.82 32.14,6.79 31.83,6.79 z M 25.86,7.08 C 25.50,7.09 25.27,7.22 25.12,7.44 25.36,7.31 25.62,7.21 25.86,7.08 z M 20.98,7.12 C 20.80,7.14 20.60,7.35 20.52,7.44 20.77,7.69 20.82,7.13 21.18,7.24 21.13,7.14 21.06,7.11 20.98,7.12 z m 0.02,0.43 c -0.11,0.00 -0.12,0.10 -0.27,0.08 0.03,0.14 0.14,0.20 0.32,0.20 l 0,-0.28 c -0.02,-0.00 -0.03,-0.00 -0.05,-0.00 z m 3.89,0.06 c -0.14,-0.00 -0.33,0.24 -0.27,0.34 0.13,-0.07 0.20,-0.23 0.33,-0.32 -0.01,-0.01 -0.03,-0.02 -0.05,-0.02 z M 20.20,7.64 c -0.04,-0.00 -0.09,0.01 -0.12,0.04 -0.02,0.14 0.12,0.12 0.24,0.12 0.03,-0.11 -0.03,-0.16 -0.11,-0.16 z m 3.36,0.44 c -0.02,0.02 -0.16,0.11 -0.04,0.15 -0.00,-0.05 0.16,-0.11 0.04,-0.15 z m 0.12,0.44 c -0.17,0.01 -0.19,0.18 -0.28,0.28 0.16,-0.02 0.26,-0.11 0.28,-0.28 z m 2.28,0.16 c -0.51,0.03 -0.98,0.31 -1.29,0.60 0.34,-0.18 0.75,-0.38 1.19,-0.48 0.09,-0.02 0.30,0.09 0.32,-0.12 -0.07,-0.00 -0.14,-0.00 -0.21,0 z m 1.03,0.11 c -0.15,-0.00 -0.30,0.01 -0.44,0.04 -0.30,0.07 -0.62,0.19 -0.86,0.40 0.54,-0.12 0.89,-0.43 1.60,-0.27 -0.12,0.02 -0.25,0.04 -0.28,0.15 0.24,-0.03 1.09,-0.20 1.43,0 -0.16,0.02 -0.36,0.02 -0.41,0.16 0.64,-0.10 1.25,-0.08 1.76,0.12 C 29.61,9.14 29.17,9.10 28.69,9.10 28.64,9.06 28.57,9.04 28.53,8.98 27.97,8.95 27.47,8.82 27.00,8.81 z m -8.28,0.00 c 0.03,0.18 0.26,0.11 0.37,0.16 0.41,0.16 0.72,0.44 1.10,0.60 C 20.17,9.35 19.89,9.33 19.71,9.22 19.41,9.06 19.13,8.82 18.72,8.82 z m -0.83,0.03 c -0.11,5.38e-4 -0.23,0.02 -0.35,0.08 0.03,0.00 0.07,0.00 0.08,0.04 0.61,-0.02 1.05,0.24 1.43,0.40 0.06,0.02 0.24,0.17 0.28,0.04 C 19.22,9.28 19.02,9.27 18.80,9.18 18.54,9.07 18.23,8.85 17.88,8.85 z m 3.05,0.08 c -0.07,-0.00 -0.12,0.01 -0.16,0.04 0.02,0.06 0.11,0.37 0.04,0.52 C 20.42,9.38 20.14,8.92 19.66,9.02 c 0.53,0.08 0.82,0.73 1.39,0.52 C 21.04,9.26 21.01,9.20 20.93,8.94 z M 16.85,8.96 C 16.71,8.96 16.56,8.97 16.42,8.98 16.19,8.99 15.87,8.97 15.76,9.18 16.76,8.92 17.93,9.23 18.72,9.55 18.68,9.27 18.27,9.31 17.98,9.22 17.74,9.15 17.52,9.01 17.29,8.98 17.15,8.97 17.00,8.96 16.85,8.96 z m 5.80,0.10 c 0.00,0.07 -0.04,0.09 -0.04,0.16 l 0.08,0 c 0.02,-0.00 0.05,-0.00 0.04,-0.04 -0.06,-4.9e-4 -0.02,-0.11 -0.08,-0.12 z m 6.60,0.44 c -0.04,0.00 -0.09,0.01 -0.08,0.08 0.49,0.09 1.01,0.15 1.51,0.24 C 30.62,9.66 30.33,9.62 30.12,9.59 29.85,9.54 29.53,9.54 29.26,9.50 z M 19.03,9.82 c -0.04,0.00 -0.09,0.00 -0.14,0.01 -0.00,0.17 0.34,0.10 0.53,0.12 0.16,0.01 0.36,0.18 0.41,0 C 19.59,9.88 19.35,9.81 19.03,9.82 z m 2.89,0.05 c -0.61,0.16 -0.87,0.66 -1.27,1.04 -0.00,0.07 0.04,0.09 0.04,0.16 -0.16,0.04 -0.21,0.18 -0.32,0.28 0.04,0.03 0.08,0.07 0.12,0.12 -0.10,0.21 -0.48,0.35 -0.36,0.64 -0.21,0.22 -0.45,0.41 -0.57,0.72 0.13,0.10 -0.00,0.14 0,0.32 -0.12,-0.00 -0.15,0.08 -0.24,0.12 0.02,0.27 -0.45,0.42 -0.24,0.61 0.28,-0.49 0.69,-0.86 1.06,-1.26 -0.24,-0.02 -0.27,0.38 -0.53,0.20 0.42,-0.56 0.99,-0.99 1.55,-1.41 -0.39,-0.00 -0.45,0.33 -0.77,0.40 0.08,-0.35 0.46,-0.40 0.65,-0.64 0.13,0.00 0.32,-0.13 0.24,-0.20 -0.30,0.07 -0.52,0.41 -0.77,0.40 0.10,-0.19 0.30,-0.35 0.49,-0.48 0.19,-0.13 0.47,-0.18 0.65,-0.36 -0.28,-0.07 -0.26,0.17 -0.53,0.12 0.18,-0.19 0.37,-0.37 0.69,-0.44 0.09,-0.08 -0.06,-0.17 0.08,-0.20 0.33,0.05 0.33,0.04 0.69,0 0.41,0.15 0.89,0.25 1.23,0.48 -0.29,-0.42 -1.03,-0.68 -1.68,-0.52 -0.06,-0.04 -0.08,-0.13 -0.20,-0.12 z m -3.19,0.15 c -0.15,-9.8e-5 -0.29,0.01 -0.40,0.04 0.00,0.04 0.01,0.09 0.08,0.07 0.35,-0.03 0.60,0.05 0.94,0.04 -0.10,-0.11 -0.36,-0.16 -0.61,-0.16 z m 11.89,0.05 c -0.11,-0.00 -0.23,0.00 -0.36,0.03 0.07,0.23 0.29,0.05 0.44,0.07 0.64,0.09 1.18,0.68 1.76,0.72 -0.59,-0.27 -1.04,-0.82 -1.84,-0.83 z m -8.53,0.11 c 0.01,0.31 0.18,0.49 0.20,0.81 0.18,-0.03 0.24,0.05 0.40,0.03 -0.08,-0.24 -0.50,-0.14 -0.40,-0.56 0.19,-0.19 0.48,-2.11e-4 0.69,0.03 0.01,-0.41 -0.72,-0.10 -0.90,-0.32 z m -4.08,0.10 c -0.27,0.00 -0.52,0.06 -0.59,0.21 0.24,-0.07 0.58,-0.08 0.90,-0.07 0.15,0.00 0.36,0.07 0.40,-0.04 -0.15,-0.05 -0.44,-0.10 -0.71,-0.09 z m 7.16,0.02 c -0.04,0.00 -0.09,0.02 -0.13,0.06 0.04,0.00 0.06,0.04 0.08,0.08 0.27,0.12 0.63,0.10 0.98,0.15 0.50,0.07 0.94,0.32 1.43,0.36 0.09,0.07 0.29,0.23 0.40,0.15 -0.19,-0.29 -0.65,-0.31 -1.02,-0.44 -0.11,-0.03 -0.21,-0.13 -0.32,-0.16 -0.30,-0.08 -0.67,-0.06 -0.98,-0.12 -0.15,-0.02 -0.30,-0.13 -0.44,-0.11 z m -1.89,0.15 c -0.08,0.08 0.01,0.07 0.04,0.15 0.34,0.11 0.57,0.35 0.90,0.49 0.05,0.10 0.09,0.22 0.24,0.24 -0.19,-0.49 -0.71,-0.67 -1.19,-0.89 z m -3.11,0.07 c -0.95,0.17 -1.59,0.40 -2.25,0.84 -0.05,0.10 0.16,0.12 0.04,0.16 -0.31,0.17 -0.63,0.34 -0.77,0.69 -0.27,0.20 -0.80,0.36 -0.74,0.77 -0.32,0.24 -0.67,0.46 -0.86,0.84 0.26,-0.08 0.38,-0.36 0.57,-0.52 0.18,-0.14 0.40,-0.19 0.57,-0.36 0.23,-0.06 0.44,-0.15 0.53,-0.36 -0.34,0.05 -0.47,0.31 -0.82,0.36 0.50,-0.65 1.46,-0.85 2.13,-1.33 -0.40,-0.00 -0.80,0.47 -1.06,0.32 0.30,-0.20 0.60,-0.43 1.06,-0.48 0.18,-0.23 0.66,-0.17 0.86,-0.40 -0.54,0.00 -0.93,0.36 -1.35,0.36 0.42,-0.41 1.24,-0.44 1.76,-0.77 0.14,-0.00 0.31,0.01 0.32,-0.12 z m -5.41,0.24 c 0.00,0.16 0.23,0.25 0.37,0.16 -0.00,-0.16 -0.19,-0.16 -0.37,-0.16 z m 7.22,0.04 c 0.14,0.33 0.21,0.73 0.45,0.97 -0.08,-0.38 -0.16,-0.78 -0.45,-0.97 z m 4.50,0.12 c -0.04,0.00 -0.08,0.01 -0.06,0.07 l 0,0.08 c 0.23,0.06 0.48,0.06 0.69,0.12 0.70,0.19 1.24,0.56 1.84,0.84 -0.49,-0.68 -1.50,-0.86 -2.41,-1.13 -0.01,10e-4 -0.03,-0.00 -0.05,0 z m -2.90,0.20 c 0.00,0.04 0.01,0.09 0.08,0.08 0.40,0.25 0.91,0.39 1.19,0.77 -0.26,-0.03 -0.32,-0.26 -0.65,-0.24 0.17,0.20 0.45,0.30 0.65,0.44 0.21,0.14 0.43,0.32 0.61,0.48 0.11,0.10 0.20,0.28 0.36,0.28 -0.12,-0.36 -0.49,-0.47 -0.69,-0.77 -0.03,-0.07 -0.07,-0.14 -0.08,-0.24 -0.35,-0.31 -1.00,-0.81 -1.47,-0.81 z m 8.61,0.12 c 0.12,0.24 0.40,0.14 0.61,0.20 0.23,0.06 0.54,0.22 0.73,0.32 0.23,0.11 0.43,0.32 0.65,0.32 -0.49,-0.45 -1.09,-0.81 -2.00,-0.85 z m -10.17,0.49 c 0.01,0.18 0.16,0.39 0.24,0.60 0.05,0.12 -0.01,0.45 0.20,0.36 -0.10,-0.32 -0.22,-0.63 -0.32,-0.97 l -0.12,0 z m 5.61,0 c -0.00,0.07 0.01,0.12 0.04,0.15 0.35,0.18 0.76,0.30 1.14,0.44 0.36,0.14 0.75,0.32 1.02,0.52 0.12,0.09 0.23,0.33 0.44,0.24 -0.64,-0.69 -1.62,-1.07 -2.66,-1.37 z m 5.79,0.22 c -0.03,0.00 -0.06,0.03 -0.09,0.09 0.83,0.36 1.75,0.85 2.21,1.45 -0.21,-0.04 -0.28,-0.23 -0.53,-0.24 0.15,0.36 0.58,0.46 0.86,0.69 0.47,0.37 0.86,0.86 1.27,1.29 -0.36,-0.20 -0.63,-0.51 -1.06,-0.64 0.03,0.27 0.35,0.31 0.53,0.44 0.19,0.13 0.39,0.30 0.57,0.44 0.37,0.30 0.79,0.58 1.11,0.92 0.10,0.11 0.13,0.28 0.28,0.36 -0.13,-0.62 -0.70,-0.82 -1.02,-1.26 l 0,-0.15 c -0.63,-0.50 -1.09,-1.19 -1.76,-1.66 -0.36,-0.76 -1.25,-1.31 -2.05,-1.61 -0.07,-0.02 -0.20,-0.16 -0.31,-0.13 z m -12.84,0.25 c -0.15,0.00 -0.18,0.14 -0.29,0.20 0.20,0.01 0.25,-0.11 0.36,-0.20 -0.02,-0.00 -0.05,-0.00 -0.07,-0.00 z m 1.30,0.20 c -0.01,0.05 -0.06,0.07 -0.04,0.16 0.28,0.32 0.39,0.76 0.53,1.17 0.03,0.11 -0.03,0.33 0.16,0.36 -0.07,-0.65 -0.33,-1.12 -0.53,-1.66 -0.05,-0.00 -0.05,-0.05 -0.12,-0.04 z m 2.95,0.12 c 0.07,0.23 0.32,0.30 0.53,0.40 0.16,0.25 0.61,0.44 0.65,0.68 -0.20,-0.04 -0.25,-0.23 -0.49,-0.24 0.11,0.25 0.42,0.42 0.65,0.61 0.24,0.19 0.54,0.34 0.61,0.60 -0.22,-0.01 -0.21,-0.26 -0.49,-0.24 0.08,0.24 0.37,0.37 0.57,0.52 0.39,0.29 0.81,0.59 0.90,1.01 -0.28,-0.08 -0.38,-0.35 -0.69,-0.40 0.10,0.28 0.42,0.41 0.65,0.60 0.49,0.39 0.98,0.80 1.19,1.33 -0.33,-0.22 -0.54,-0.56 -0.94,-0.72 0.01,0.32 0.36,0.39 0.57,0.56 0.41,0.35 0.83,0.88 0.94,1.33 -0.29,-0.19 -0.41,-0.55 -0.73,-0.72 0.04,0.38 0.41,0.56 0.61,0.80 0.20,0.25 0.31,0.55 0.53,0.81 -0.30,-0.10 -0.29,-0.51 -0.65,-0.56 0.17,0.50 0.66,0.69 0.82,1.21 -0.12,0.01 -0.09,-0.12 -0.24,-0.07 0.08,0.25 0.36,0.30 0.40,0.60 -0.49,-0.21 -1.12,-0.28 -1.63,-0.48 -0.32,0.09 -0.57,-0.08 -0.86,-0.12 -0.90,-0.12 -1.58,0.13 -2.25,0.36 -0.07,0.17 -0.24,0.23 -0.40,0.32 -0.44,0.90 -0.18,2.34 -0.04,3.40 0.64,0.60 1.02,1.53 2.00,1.78 0.09,0.02 0.22,-0.01 0.33,0 0.43,0.05 0.92,0.18 1.35,0.16 0.42,-0.01 0.80,-0.33 1.23,-0.20 0.48,-0.12 0.81,-0.41 1.10,-0.73 0.05,-0.44 0.24,-0.75 0.36,-1.13 0.35,0.37 0.48,0.98 0.77,1.41 -0.02,-0.61 -0.47,-1.15 -0.73,-1.66 0.03,-0.12 0.15,-0.16 0.16,-0.32 -0.07,-0.37 0.12,-0.70 0.12,-1.05 -0.00,-0.83 -0.78,-1.24 -1.31,-1.66 0.01,-0.45 -0.36,-0.57 -0.24,-1.01 -0.15,-0.32 -0.35,-0.59 -0.53,-0.89 0.04,-0.68 -0.49,-0.78 -0.53,-1.37 -0.19,-0.51 -0.68,-0.87 -0.98,-1.25 -0.23,-0.29 -0.33,-0.68 -0.57,-0.97 -0.12,-0.14 -0.29,-0.22 -0.41,-0.36 -0.09,-0.11 -0.13,-0.30 -0.24,-0.44 -0.16,-0.22 -0.44,-0.35 -0.57,-0.56 -0.16,-0.26 -0.19,-0.41 -0.41,-0.61 -0.31,-0.29 -0.71,-0.58 -1.10,-0.72 z m 3.77,0.28 c 0.15,0.30 0.64,0.18 0.98,0.32 0.22,0.08 0.43,0.24 0.61,0.36 0.17,0.11 0.45,0.22 0.44,0.44 -0.15,-0.06 -0.36,-0.08 -0.53,-0.16 -0.14,-0.06 -0.31,-0.32 -0.40,-0.16 0.19,0.31 0.61,0.35 0.94,0.49 0.34,0.14 0.65,0.36 0.98,0.48 0.18,0.21 0.41,0.37 0.61,0.56 l 0,-0.15 c -0.19,-0.18 -0.36,-0.32 -0.57,-0.49 -0.20,-0.14 -0.47,-0.23 -0.65,-0.40 -0.10,-0.09 -0.15,-0.26 -0.24,-0.36 -0.48,-0.52 -1.25,-0.87 -2.17,-0.93 z m -8.40,0.24 c -0.05,0.01 -0.07,0.05 -0.16,0.04 -0.30,0.37 -0.77,0.70 -0.98,1.13 -0.02,0.05 -0.27,0.16 -0.12,0.27 0.29,-0.42 0.75,-0.98 1.10,-1.29 0.02,-0.02 0.35,-0.10 0.16,-0.16 z m -3.40,0.07 c -1.00,0.54 -1.83,1.27 -2.41,2.23 0.01,0.07 0.12,0.07 0.08,0.20 -0.28,0.45 -0.57,0.66 -0.69,1.29 -0.25,0.30 -0.48,0.62 -0.69,0.97 0.27,-0.10 0.37,-0.39 0.52,-0.60 0.57,-0.77 1.26,-1.36 1.92,-2.02 -0.61,0.27 -0.90,0.85 -1.43,1.21 0.20,-0.43 0.59,-0.91 0.98,-1.29 0.20,-0.19 0.57,-0.54 0.86,-0.56 -0.00,-0.25 0.26,-0.22 0.28,-0.44 -0.18,-0.00 -0.33,0.20 -0.49,0.32 -0.24,0.17 -0.47,0.36 -0.69,0.56 -0.18,0.17 -0.30,0.44 -0.53,0.48 0.49,-1.05 1.44,-1.65 2.38,-2.26 -0.00,-0.04 -0.01,-0.09 -0.08,-0.08 z m 5.00,0.20 c -0.01,0.17 0.07,0.25 0.20,0.27 -0.04,-0.11 -0.05,-0.26 -0.20,-0.27 z m 0.25,0.44 c 0.08,0.23 0.24,0.49 0.32,0.77 0.04,0.15 0.12,0.36 0.04,0.44 -0.27,-0.30 -0.37,-0.79 -0.74,-1.01 0.31,0.60 0.70,1.18 0.94,1.86 0.08,0.22 0.07,0.46 0.24,0.64 0.03,-0.55 -0.32,-0.73 -0.28,-1.29 -0.13,0.00 -0.17,-0.06 -0.20,-0.16 l 0.20,0 c -0.12,-0.47 -0.17,-1.00 -0.52,-1.25 z m 8.28,0.48 c -0.01,0.21 0.24,0.22 0.36,0.28 0.15,0.06 0.33,0.13 0.49,0.20 0.49,0.23 0.95,0.50 1.27,0.84 -0.09,-0.46 -0.55,-0.62 -0.90,-0.81 -0.37,-0.20 -0.77,-0.44 -1.22,-0.52 z m -11.49,0.40 c -0.17,0.04 -0.18,0.24 -0.28,0.36 0.15,0.04 -0.07,0.14 0.08,0.28 -0.20,0.21 -0.37,0.46 -0.44,0.81 0.14,-0.03 0.17,-0.21 0.24,-0.32 0.07,-0.12 0.16,-0.23 0.24,-0.36 0.01,-0.02 -0.01,-0.09 0,-0.12 0.14,-0.20 0.43,-0.33 0.36,-0.56 -0.15,0.07 -0.19,0.26 -0.33,0.36 -0.11,-0.16 0.10,-0.28 0.12,-0.44 z m 21.53,0.32 c 0.13,0.00 0.15,0.24 0.08,0.32 -0.11,-0.04 -0.23,-0.24 -0.08,-0.32 z m -9.02,0.15 c 0.04,0.18 0.23,0.23 0.41,0.28 0.58,0.44 1.43,0.84 1.63,1.54 -0.54,-0.24 -0.91,-0.66 -1.43,-0.93 -0.05,0.18 0.16,0.31 0.28,0.40 0.60,0.43 1.42,0.71 1.68,1.41 -0.45,-0.22 -0.69,-0.66 -1.19,-0.84 0.04,0.23 0.29,0.32 0.44,0.44 0.17,0.13 0.33,0.26 0.49,0.40 0.33,0.28 0.58,0.62 0.90,0.93 -0.12,-0.38 -0.47,-0.55 -0.65,-0.89 0.06,-0.00 0.14,0.00 0.12,-0.08 -0.07,-0.31 -0.34,-0.43 -0.49,-0.68 l 0,-0.20 c -0.34,-0.72 -0.99,-1.14 -1.64,-1.54 -0.18,-0.11 -0.36,-0.26 -0.57,-0.24 z m -9.59,0.12 c 0.06,0.34 0.26,0.55 0.49,0.73 -0.03,-0.33 -0.31,-0.42 -0.36,-0.73 l -0.12,0 z m 14.93,0.32 c 0.00,0.17 0.20,0.23 0.33,0.32 0.62,0.42 1.25,0.79 1.59,1.41 0.12,0.21 0.23,0.47 0.24,0.72 -0.15,-0.09 -0.25,-0.23 -0.32,-0.40 -0.19,-0.13 -0.35,-0.34 -0.53,-0.52 -0.17,-0.17 -0.39,-0.43 -0.57,-0.44 0.15,0.46 0.61,0.67 0.89,1.01 0.37,0.43 0.68,0.91 0.77,1.61 -0.29,-0.40 -0.64,-0.81 -0.94,-1.17 -0.10,-0.12 -0.16,-0.35 -0.36,-0.36 0.20,0.53 0.65,0.91 0.94,1.41 0.28,0.49 0.53,1.11 0.65,1.74 0.01,0.08 -0.07,0.27 0.08,0.32 -0.00,-0.59 -0.18,-1.10 -0.33,-1.66 0.25,-0.45 -0.10,-0.89 -0.16,-1.25 -0.02,-0.14 0.01,-0.30 0,-0.44 -0.04,-0.34 -0.32,-0.88 -0.49,-1.09 -0.00,-0.00 0.00,-0.03 0,-0.03 -0.55,-0.39 -1.04,-0.94 -1.80,-1.17 z m -14.43,0.44 c 0.07,0.44 0.27,0.75 0.41,1.13 0.07,-0.05 0.03,-0.21 0,-0.32 -0.03,-0.11 -0.20,-0.39 -0.24,-0.44 -0.09,-0.13 -0.02,-0.33 -0.16,-0.36 z m -0.45,0.16 0,0.16 c 0.38,0.49 0.68,1.07 0.90,1.57 0.09,0.22 0.20,0.35 0.28,0.52 0.03,0.07 -0.04,0.22 0.12,0.20 -0.27,-0.94 -0.79,-1.63 -1.19,-2.46 l -0.12,0 z m -6.97,0.07 c -0.09,0.08 -0.33,0.23 -0.20,0.40 0.00,-0.17 0.33,-0.24 0.20,-0.40 z m 3.97,0.20 c -0.57,0.92 -1.22,1.76 -1.47,2.99 0.18,-0.02 0.12,-0.26 0.16,-0.36 0.14,-0.40 0.39,-0.72 0.49,-1.13 0.35,-0.45 0.61,-1.01 0.94,-1.49 l -0.12,0 z M 14.37,16.76 c 0.04,0.16 -0.24,0.21 -0.16,0.28 0.08,-0.03 0.29,-0.16 0.16,-0.28 z m -0.44,0.52 c -0.02,0.18 -0.33,0.28 -0.24,0.44 0.02,-0.16 0.47,-0.29 0.24,-0.44 z m 8.03,0.16 0,0.15 c 0.44,0.43 0.73,1.03 1.06,1.58 -0.22,-0.70 -0.56,-1.30 -1.06,-1.74 z M 18.74,17.79 c -0.05,0.00 -0.10,0.09 -0.14,0.14 0.12,0.01 0.17,-0.05 0.20,-0.12 -0.02,-0.02 -0.04,-0.02 -0.06,-0.02 z m -5.27,0.06 c -0.00,0.02 -0.00,0.04 -0.03,0.03 l 0,0.08 c 0.10,0.06 0.11,-0.13 0.03,-0.12 z m -0.44,0.12 c -0.18,0.20 -0.26,0.51 -0.41,0.76 0.19,-0.02 0.20,-0.22 0.24,-0.40 0.11,-0.05 0.17,-0.15 0.20,-0.28 -0.00,-0.03 -0.00,-0.07 -0.04,-0.07 z m 5.66,0 c -0.29,0.03 -0.38,0.48 -0.45,0.60 0.21,-0.14 0.31,-0.39 0.45,-0.60 z m -5.41,0.20 c -0.15,0.22 -0.32,0.43 -0.41,0.72 0.09,-0.05 0.20,-0.22 0.28,-0.36 0.06,-0.10 0.27,-0.31 0.12,-0.36 z m 8.90,0.24 c -0.02,0.12 0.06,0.11 0.03,0.24 0.43,0.48 0.82,1.24 0.94,1.90 -0.33,-0.26 -0.49,-0.70 -0.82,-0.97 0,0.27 0.26,0.52 0.45,0.77 0.19,0.25 0.43,0.51 0.44,0.80 -0.25,-0.15 -0.34,-0.46 -0.57,-0.64 -0.06,-0.08 -0.14,-0.37 -0.28,-0.24 0.28,0.51 0.73,0.90 1.02,1.41 0.18,0.33 0.25,0.72 0.53,1.01 -0.00,-0.26 -0.23,-0.49 -0.33,-0.80 -0.13,-0.41 -0.17,-0.89 -0.40,-1.21 0.19,-0.25 -0.08,-0.68 -0.16,-0.93 0.03,-0.06 0.20,0.00 0.16,-0.12 -0.12,0.02 -0.15,-0.03 -0.25,-0.03 -0.23,-0.42 -0.39,-0.90 -0.77,-1.17 z m 11.56,0.11 c -0.03,0.00 -0.08,0.05 -0.08,0.08 0.75,0.59 1.60,1.08 2.00,2.02 -0.36,-0.33 -0.74,-0.68 -1.06,-1.01 -0.10,-0.11 -0.17,-0.32 -0.37,-0.32 0.09,0.34 0.42,0.54 0.65,0.77 0.56,0.57 1.05,1.14 1.23,2.06 -0.33,-0.44 -0.60,-0.90 -0.94,-1.29 -0.16,-0.18 -0.32,-0.41 -0.57,-0.48 0.10,0.39 0.49,0.61 0.73,0.92 0.33,0.43 0.64,0.90 0.77,1.41 -0.44,-0.34 -0.71,-0.86 -1.19,-1.17 -0.05,0.30 0.27,0.46 0.45,0.64 0.49,0.50 0.96,1.10 1.18,1.82 0.10,0.32 0.22,0.83 0.12,1.13 -0.26,-0.75 -0.57,-1.59 -1.02,-2.14 -0.14,-0.17 -0.37,-0.47 -0.57,-0.44 0.09,0.28 0.36,0.45 0.53,0.69 0.53,0.73 0.88,1.78 1.14,2.71 -0.00,-0.27 0.07,-0.53 0.08,-0.80 0.02,-0.98 -0.38,-1.64 -0.53,-2.47 -0.11,-0.60 -0.14,-1.18 -0.44,-1.61 0.04,-0.04 0.04,-0.14 0.03,-0.24 -0.44,-1.00 -1.23,-1.66 -2.13,-2.22 -0.00,-0.03 -0.01,-0.05 -0.04,-0.04 z M 18.02,18.99 c -0.19,0.11 -0.29,0.32 -0.33,0.60 -0.34,0.37 -0.36,0.99 -0.57,1.41 -1.28,0.22 -2.28,0.74 -3.03,1.49 -0.12,0.50 -0.19,1.03 -0.20,1.54 -0.01,0.54 0.14,0.95 0.33,1.29 0.05,0.09 0.09,0.24 0.12,0.28 0.17,0.26 0.53,0.45 0.77,0.64 0.28,0.22 0.74,0.61 1.02,0.69 0.09,0.02 0.24,-0.01 0.36,0 0.32,0.03 0.64,0.13 0.94,0.07 0.18,-0.03 0.32,-0.20 0.53,-0.16 0.00,0.12 -0.12,0.11 -0.08,0.28 0.33,0.06 0.29,0.49 0.57,0.60 -0.12,-0.23 -0.02,-0.58 -0.08,-0.80 -0.03,0.07 -0.01,0.20 -0.08,0.24 -0.18,-0.05 -0.29,-0.36 -0.08,-0.49 0.08,-0.08 0.11,0.02 0.24,0 0.09,-0.23 0.32,-0.35 0.49,-0.52 0.18,-0.63 0.63,-1.34 0.77,-2.14 0.07,-0.41 0.02,-0.68 0,-1.05 -0.01,-0.17 0.02,-0.36 0,-0.52 -0.01,-0.07 -0.10,-0.16 -0.12,-0.28 -0.08,-0.63 -0.33,-1.01 -0.77,-1.17 -0.02,-0.13 -0.04,-0.27 -0.16,-0.32 -0.34,0.10 -0.47,0.18 -0.82,0.28 -0.18,-0.20 -0.40,0.20 -0.61,-0.04 0.07,-0.43 0.37,-0.93 0.53,-1.25 0.03,-0.07 6.45e-4,-0.16 0.03,-0.24 0.06,-0.14 0.24,-0.27 0.20,-0.44 z m 0.59,0.03 c -0.14,0.02 -0.24,0.23 -0.10,0.28 0.01,-0.12 0.15,-0.14 0.16,-0.28 -0.02,-0.00 -0.04,-0.00 -0.06,0 z m -0.42,0.60 c 0.02,0.11 -0.20,0.20 -0.08,0.28 -0.00,-0.10 0.22,-0.18 0.08,-0.28 z m -6.97,0.28 c -0.19,0.18 -0.31,0.44 -0.41,0.72 0.11,0.00 0.09,-0.12 0.20,-0.12 0.02,-0.26 0.21,-0.34 0.32,-0.52 -0.05,-0.00 -0.06,-0.07 -0.12,-0.08 z m 2.03,0.07 c -0.11,0.01 -0.11,0.14 -0.18,0.20 0.18,0.03 0.16,-0.13 0.24,-0.20 -0.02,-0.00 -0.04,-0.00 -0.05,-0.00 z m 4.77,0.20 c -0.07,-0.00 -0.10,0.02 -0.12,0.07 0.07,0.00 0.10,-0.02 0.12,-0.07 z m 9.12,0.23 c 0.12,-0.00 0.17,0.06 0.30,0.04 -0.00,0.25 -0.29,0.38 -0.32,0.64 -0.08,0.60 0.38,1.30 0.61,1.69 0.15,0.25 0.68,0.91 1.02,1.05 0.10,0.04 0.23,0.00 0.36,0.04 0.22,0.05 0.42,0.18 0.61,0.20 0.41,0.03 0.83,-0.03 1.27,0.07 -0.03,0.14 -0.12,0.27 -0.20,0.44 -0.12,0.27 -0.26,0.74 -0.57,0.84 -0.15,0.05 -0.40,-0.03 -0.65,0 -0.27,0.04 -0.56,0.23 -0.77,0.24 -0.14,0.00 -0.26,-0.06 -0.41,-0.07 -0.47,-0.05 -0.97,0.03 -1.39,-0.12 -0.38,-0.14 -0.53,-0.40 -0.82,-0.60 -0.07,-0.45 -0.74,-0.67 -0.90,-1.17 -0.06,-0.19 -0.01,-0.51 -0.03,-0.77 -0.05,-0.66 -0.13,-1.26 0.12,-1.78 0.21,0.16 -0.10,0.46 0.08,0.69 l 0,0.03 c 0.02,-0.35 0.11,-0.83 0.20,-1.17 0.09,-0.07 0.23,-0.10 0.41,-0.08 -0.27,0.88 -0.23,1.91 0.20,2.59 0.18,0.28 0.48,0.60 0.86,0.64 -0.08,-0.19 -0.32,-0.21 -0.49,-0.36 -0.30,-0.28 -0.60,-0.91 -0.65,-1.41 -0.05,-0.49 0.04,-1.05 0.20,-1.54 0.09,-0.01 0.15,-0.06 0.28,-0.04 0.13,0.02 -0.09,0.19 -0.12,0.36 -0.15,0.84 0.20,1.90 0.53,2.47 0.28,0.08 0.45,0.28 0.73,0.36 0.02,-0.24 -0.44,-0.33 -0.65,-0.48 -0.04,-0.22 -0.29,-0.48 -0.36,-0.77 -0.03,-0.11 0.02,-0.24 0,-0.40 -0.01,-0.09 -0.10,-0.19 -0.12,-0.28 -0.11,-0.50 -0.07,-1.38 0.44,-1.29 -0.43,1.12 -0.05,2.71 0.98,3.00 -0.13,-0.25 -0.44,-0.33 -0.61,-0.56 -0.14,-0.20 -0.14,-0.47 -0.33,-0.68 -0.09,-0.62 -0.19,-1.35 0.12,-1.82 0.02,-0.00 0.04,-0.00 0.05,-0.00 z m -8.87,0.00 c 0.02,0.07 -0.12,0.16 0,0.20 0.02,-0.03 0.18,-0.20 0,-0.20 z m -5.45,0.12 c 0.01,0.19 -0.14,0.20 -0.16,0.36 0.19,0.04 0.25,-0.26 0.16,-0.36 z m -1.72,0.36 c -0.25,0.06 -0.36,0.50 -0.36,0.69 0.13,-0.21 0.26,-0.43 0.36,-0.69 z m 1.43,0.20 c -0.11,0.24 -0.23,0.49 -0.33,0.77 0.21,-0.12 0.39,-0.50 0.33,-0.77 z m 4.77,0.19 c 0.07,-0.00 0.16,0.01 0.22,0.00 -0.05,0.10 -0.13,0.19 -0.33,0.16 0.00,-0.04 -0.00,-0.07 -0.03,-0.08 0.00,-0.06 0.06,-0.08 0.13,-0.08 z m 5.19,0.04 c -0.00,0.07 0.01,0.12 0.04,0.15 0.56,0.59 1.09,1.21 1.47,1.98 -0.19,-0.97 -0.90,-1.43 -1.39,-2.10 -0.05,-0.00 -0.05,-0.04 -0.12,-0.03 z m -6.11,0.12 c 0.07,-0.00 0.08,0.04 0.16,0.03 -0.00,0.12 -0.09,0.18 -0.08,0.32 -0.13,-0.01 -0.16,-0.26 -0.08,-0.36 z m -0.45,0.23 c 0.02,9.14e-4 0.05,0.00 0.08,0.00 0.01,0.70 -0.02,1.32 0.24,1.69 0.35,0.50 1.03,0.90 1.55,1.21 0.46,0.05 0.94,-0.08 1.31,0 -0.04,0.63 -0.49,0.85 -0.57,1.45 -0.40,0.50 -1.23,0.58 -2.21,0.52 -0.22,-0.19 -0.50,-0.27 -0.77,-0.48 -0.07,-0.05 -0.11,-0.18 -0.20,-0.24 -0.20,-0.14 -0.48,-0.19 -0.65,-0.40 -0.04,-0.06 -0.09,-0.24 -0.16,-0.36 -0.06,-0.11 -0.16,-0.19 -0.20,-0.28 -0.06,-0.17 -0.02,-0.42 -0.04,-0.64 -0.00,-0.10 -0.08,-0.19 -0.08,-0.27 3.43e-4,-0.07 0.07,-0.19 0.08,-0.28 0.01,-0.33 -0.01,-0.72 0.20,-1.05 0.07,-0.03 0.10,-0.11 0.24,-0.07 0.18,-0.04 0.11,-0.35 0.37,-0.32 -0.03,0.39 -0.16,0.82 -0.04,1.37 0.06,0.28 0.24,0.60 0.36,0.89 0.13,0.30 0.27,0.65 0.53,0.73 -0.01,-0.17 -0.15,-0.32 -0.24,-0.49 -0.21,-0.36 -0.37,-0.85 -0.57,-1.25 0.05,-0.20 -0.02,-0.53 0,-0.84 0.02,-0.27 0.03,-0.69 0.33,-0.68 -0.02,0.41 -0.08,0.90 0,1.29 0.10,0.51 0.48,0.87 0.65,1.29 0.22,0.09 0.46,0.36 0.77,0.24 -0.10,-0.23 -0.35,-0.12 -0.53,-0.24 -0.06,-0.04 -0.18,-0.27 -0.28,-0.40 -0.08,-0.10 -0.39,-0.49 -0.45,-0.68 -0.10,-0.34 -0.05,-0.78 -0.08,-1.13 0.21,0.03 0.10,0.38 0.24,0.48 l 0,0.36 c 0.13,0.19 0.13,0.45 0.24,0.64 0.15,0.26 0.42,0.42 0.73,0.52 0.00,-0.14 -0.17,-0.18 -0.24,-0.24 -0.13,-0.11 -0.34,-0.27 -0.44,-0.44 -0.20,-0.36 -0.20,-0.86 -0.33,-1.33 -0.06,-0.11 -0.15,-0.00 -0.24,-0.12 0.10,-0.09 0.04,-0.10 0.04,-0.28 0.08,-0.08 0.11,0.02 0.24,0 -0.03,-0.11 0.03,-0.12 0.12,-0.12 z m 12.59,0.32 0.20,0 c 0.16,0.19 0.01,0.54 -0.03,0.77 0.05,0.15 0.33,0.27 0.16,0.52 -0.42,-0.05 -0.54,-0.41 -0.77,-0.64 0.19,-0.17 0.31,-0.42 0.45,-0.64 z m -3.11,0.04 c 0.02,1.08 0.36,1.85 1.27,2.06 -0.16,-0.25 -0.49,-0.27 -0.69,-0.49 -0.06,-0.07 -0.17,-0.26 -0.24,-0.40 -0.21,-0.44 -0.18,-0.74 -0.33,-1.17 z m -8.28,0.24 c 0.06,-0.01 0.07,0.04 0.12,0.04 -0.00,0.48 0.02,0.99 -0.08,1.37 -0.35,-0.17 -0.65,-0.41 -0.74,-0.84 0.13,-0.28 0.51,-0.33 0.69,-0.56 z m 5.49,0 0,0.12 c 0.45,0.38 0.81,0.82 1.14,1.29 0.14,0.19 0.25,0.45 0.49,0.56 -0.28,-0.61 -0.76,-1.17 -1.18,-1.61 -0.13,-0.14 -0.25,-0.36 -0.45,-0.36 z m -7.87,0.24 c -0.27,0.91 -0.19,2.05 0.61,2.31 -0.19,-0.30 -0.52,-0.50 -0.61,-0.93 -0.10,-0.47 0.02,-0.94 0,-1.37 z m 24.67,0.60 c 0.01,-0.00 0.04,-0.00 0.06,0.00 -0.03,0.20 0.04,0.30 -0.16,0.36 -0.06,-0.05 -0.03,-0.20 -0.04,-0.32 0.07,0.01 0.08,-0.03 0.13,-0.04 z m -16.54,0.16 c 0.54,0.60 1.25,1.05 1.72,1.74 0.05,0.18 0.13,0.35 0.32,0.40 -0.16,-0.38 -0.50,-0.58 -0.61,-1.01 -0.50,-0.34 -0.85,-0.86 -1.43,-1.13 z m 12.22,0.07 c -0.00,0.05 0.01,0.08 0.03,0.12 0.34,0.59 0.77,1.08 1.06,1.74 0.27,0.61 0.28,1.28 0.49,2.06 0.08,-1.77 -0.64,-2.98 -1.51,-3.92 l -0.08,0 z m -11.07,0.12 0,0.08 0.08,0 0,-0.08 -0.08,0 z m 5.08,0 c 0.13,0.00 0.31,-0.04 0.28,0.12 -0.13,-0.00 -0.29,0.01 -0.28,-0.12 z m -6.39,0.40 c 0.07,0.24 0.34,0.29 0.53,0.44 0.44,0.36 0.82,0.87 1.11,1.33 0.10,0.16 0.28,0.32 0.24,0.52 -0.39,-0.31 -0.67,-0.73 -1.14,-0.97 0.03,0.31 0.36,0.46 0.57,0.64 0.22,0.19 0.46,0.40 0.65,0.61 0.40,0.43 0.66,1.00 1.06,1.33 -0.26,-0.51 -0.58,-0.98 -0.94,-1.41 -0.20,-0.94 -0.81,-1.48 -1.35,-2.10 -0.34,-0.04 -0.35,-0.40 -0.74,-0.40 z m 12.51,0.36 c 0.04,0.35 0.20,0.52 0.32,0.77 0.27,0.55 0.50,1.14 0.65,1.78 0.12,0.54 0.11,1.36 0.12,1.94 0.00,0.09 0.08,0.20 0.08,0.28 -0.00,0.05 -0.31,0.16 -0.04,0.15 0.07,-0.18 0.25,-0.30 0.32,-0.44 0.04,-0.07 0.03,-0.22 0.08,-0.32 0.11,-0.23 0.23,-0.48 0.32,-0.77 0.08,-0.25 0.13,-0.48 0.20,-0.84 0.07,-0.41 0.12,-0.84 0.08,-1.33 -0.00,-0.12 -0.00,-0.36 -0.12,-0.44 0.05,1.27 -0.17,2.87 -0.82,3.80 -0.12,-0.40 0.11,-0.70 0.16,-1.13 -0.24,-0.16 -0.15,-0.42 -0.20,-0.72 -0.01,-0.10 -0.10,-0.19 -0.12,-0.28 -0.09,-0.34 -0.10,-0.52 -0.20,-0.81 -0.20,-0.60 -0.49,-1.10 -0.77,-1.57 -0.00,-0.03 -0.03,-0.04 -0.08,-0.04 z m -3.85,0.36 c 0.25,0.66 0.68,1.29 0.90,1.94 0.02,0.07 -0.00,0.25 0.12,0.28 -0.05,-0.80 -0.59,-1.49 -0.90,-2.18 -0.05,-0.00 -0.05,-0.05 -0.12,-0.04 z m -10.25,0.20 c -0.41,0.03 -0.32,0.52 -0.36,0.92 -0.06,0.59 -0.28,1.29 -0.28,1.94 0,0.47 0.19,0.89 0.12,1.25 0.12,0.17 0.30,0.30 0.45,0.44 0.58,0.00 1.37,-0.01 2.00,-0.12 0.11,-0.02 0.21,-0.08 0.32,-0.08 0.27,-0.00 0.67,0.22 0.69,-0.20 C 23.88,28.87 23.66,28.67 23.48,28.47 23.29,28.26 23.06,28.06 22.91,27.82 22.62,27.36 22.48,26.79 22.05,26.44 21.94,26.17 21.78,25.96 21.63,25.63 21.51,25.34 21.47,24.87 21.10,24.90 z m -0.04,0.24 c 0.19,-0.02 0.08,0.26 0.28,0.24 0.05,0.13 0.07,0.30 0.16,0.40 -0.12,0.98 -0.17,1.85 0.03,2.83 -0.11,0.05 -0.08,0.24 -0.24,0.24 -0.16,-0.18 -0.14,-0.45 -0.16,-0.64 -0.05,-0.68 0.05,-1.29 0.03,-1.78 -0.00,-0.30 -0.04,-0.62 0,-1.01 -0.29,0.96 -0.31,2.76 0,3.72 -0.12,0.03 -0.12,-0.07 -0.20,-0.15 -0.05,-0.05 -0.18,-0.11 -0.20,-0.16 -0.19,-0.38 -0.03,-1.13 -0.03,-1.70 -0.00,-0.10 -0.05,-0.18 -0.04,-0.27 0.02,-0.26 0.15,-0.60 0.20,-0.93 0.05,-0.33 -0.00,-0.58 0.16,-0.77 z m 0.53,1.01 c 0.06,-0.01 0.07,0.03 0.12,0.04 0.13,0.34 0.05,0.87 0.08,1.33 0.01,0.32 0.08,0.70 -0.08,0.89 -0.22,-0.09 -0.17,-0.49 -0.16,-0.77 0.01,-0.53 0.03,-1.05 0.04,-1.49 z m -8.49,0.04 c -0.04,0.00 -0.08,0.01 -0.07,0.07 0.07,0.00 0.10,-0.02 0.12,-0.07 -0.01,8.51e-4 -0.03,-0.00 -0.04,0 z m 10.67,0.07 c -0.00,0.07 0.01,0.12 0.04,0.16 0.79,0.62 1.57,1.46 2.00,2.30 -0.24,-0.16 -0.46,-0.36 -0.69,-0.56 -0.22,-0.19 -0.40,-0.46 -0.69,-0.56 0.61,0.83 1.56,1.34 2.05,2.31 -0.03,-0.45 -0.31,-0.65 -0.49,-0.97 l 0,-0.24 C 25.42,27.77 24.70,26.97 23.89,26.28 l -0.12,0 z m -1.78,0.43 c 0.11,0.00 0.08,0.15 0.18,0.16 -0.21,0.25 0.09,0.78 -0.12,1.05 -0.16,-0.02 -0.15,-0.23 -0.16,-0.32 -0.03,-0.27 0.03,-0.58 0.03,-0.89 0.02,-0.00 0.04,-0.00 0.06,-0.00 z m -3.30,0.49 c -0.04,0.15 -0.12,0.38 -0.12,0.60 -0.00,0.39 0.08,0.91 0.41,0.97 -0.31,-0.43 -0.23,-1.05 -0.28,-1.57 z m -3.77,0.80 c 0.00,0.17 -0.10,0.43 -0.03,0.52 0.08,-0.17 0.13,-0.38 0.24,-0.52 l -0.20,0 z m 7.59,0.05 c 0.13,-6.37e-4 0.31,0.04 0.52,0.14 0.08,0.33 0.45,0.37 0.49,0.76 -0.30,0.09 -0.61,0.13 -0.98,0.12 -0.38,-0.00 -0.81,0.20 -1.11,0.03 0.01,-0.18 0.20,-0.36 0.36,-0.56 0.23,-0.29 0.39,-0.51 0.70,-0.51 z m -8.96,0.49 c -0.00,7.1e-4 -0.01,0.00 -0.02,0.02 0.01,0.08 -0.03,0.42 0.04,0.32 -0.00,-0.07 0.01,-0.34 -0.02,-0.34 z M 15.4,28.59 c -0.04,0.03 -0.01,0.14 -0.12,0.12 0.02,0.10 0.02,0.25 0.08,0.32 -0.02,-0.17 0.21,-0.37 0.03,-0.44 z m 0.45,0.24 c -0.07,0.08 -0.21,0.40 -0.04,0.48 -0.01,-0.19 0.21,-0.37 0.04,-0.48 z m 20.34,0.68 c 0.16,0.04 0.00,0.27 -0.08,0.32 -0.11,0.00 -0.11,-0.10 -0.12,-0.20 0.06,-0.04 0.16,-0.05 0.20,-0.12 z m -21.82,0.36 c -0.07,0.11 0.04,0.34 0.12,0.44 -0.01,-0.17 -0.04,-0.33 -0.12,-0.44 z m 0.49,0 c 0.67,0.05 0.37,1.09 0.69,1.50 -0.52,-0.02 -0.69,-0.96 -0.69,-1.50 z M 15.4,30.21 c 0.36,-0.02 0.36,0.20 0.41,0.60 0.03,0.31 0.23,0.64 0.16,0.81 C 15.44,31.49 15.57,30.70 15.4,30.21 z m 16.77,0.20 c 0.30,0.20 -0.03,0.96 0.25,1.09 -0.04,0.18 -0.13,0.33 -0.16,0.52 0.29,-0.35 0.28,-1.01 0.61,-1.33 0.00,0.49 -0.17,0.81 -0.36,1.21 -0.21,0.44 -0.34,0.97 -0.86,1.09 -0.11,-0.10 0.10,-0.10 0.08,-0.24 -0.06,-0.13 -0.02,-0.25 0,-0.40 0.11,0.04 0.21,0.04 0.32,0 0.09,-0.10 -0.07,-0.09 -0.08,-0.20 -0.01,-0.11 0.10,-0.22 0.12,-0.36 0.04,-0.45 -0.13,-1.07 0.08,-1.37 z m -16.24,0.08 c 0.29,0.42 0.48,1.15 0.53,1.69 -0.29,-0.06 -0.37,-0.49 -0.44,-0.84 -0.05,-0.26 -0.05,-0.52 -0.08,-0.84 z m 15.96,0.64 c 0.06,0.14 0.11,0.39 0.03,0.56 -0.21,-0.08 -0.17,-0.45 -0.03,-0.56 z m -15.97,0.52 c 0.04,-0.00 0.08,-0.00 0.13,0 -0.01,0.12 0.07,0.14 0.04,0.28 -0.12,-0.04 -0.26,-0.08 -0.28,-0.24 0.02,-0.02 0.06,-0.03 0.10,-0.04 z m 15.56,0.08 0.20,0 c -0.04,0.42 -0.08,0.86 -0.16,1.25 -0.25,0.03 -0.08,-0.18 -0.08,-0.36 0.00,-0.30 -0.06,-0.67 0.04,-0.89 z m -1.13,0.11 c 0.20,-0.00 0.44,0.13 0.60,0.24 0.02,0.25 -0.02,0.53 -0.04,0.80 -0.01,0.19 0.09,0.50 -0.12,0.56 -0.18,-0.16 -0.01,-0.51 -0.03,-0.84 -0.01,-0.20 -0.10,-0.37 -0.12,-0.52 -0.12,0.17 0.00,0.42 0,0.64 -0.00,0.34 -0.00,0.80 -0.28,0.89 0.09,-0.60 -0.06,-0.91 -0.04,-1.58 -0.18,0.09 -0.02,0.34 -0.03,0.52 -0.01,0.13 -0.08,0.23 -0.08,0.36 -0.00,0.30 0.25,0.84 -0.28,0.81 0.07,-0.52 0.32,-1.07 0.16,-1.70 0.06,-0.14 0.17,-0.20 0.29,-0.20 z m 0.82,0.24 c 0.04,-0.00 0.09,-0.00 0.14,0 -0.05,0.42 -0.01,0.92 -0.16,1.25 -0.32,-0.12 0.10,-0.78 -0.08,-1.21 0.02,-0.02 0.05,-0.03 0.10,-0.04 z m -1.20,0.24 c 0.00,0.48 -0.16,0.94 -0.20,1.49 -0.21,0.12 -0.54,0.13 -0.77,0.24 -0.03,-0.11 -0.19,-0.10 -0.16,-0.27 0.14,-0.12 0.29,0.00 0.36,0.07 0.08,-0.21 -0.02,-0.82 0.20,-0.77 0.21,0.10 -0.07,0.57 0.04,0.72 0.43,-0.33 -0.10,-1.39 0.53,-1.49 z m -13.08,0.05 c 0.11,-0.01 0.28,0.11 0.28,0.23 -0.18,0.00 -0.22,-0.13 -0.37,-0.16 0.01,-0.04 0.05,-0.06 0.09,-0.06 z m 4.50,0.02 c 0.14,0.01 0.25,0.06 0.28,0.20 -0.12,-0.03 -0.28,-0.04 -0.28,-0.20 z m -2.72,0.32 c 0.09,0.00 0.15,0.04 0.21,0.08 0.02,0.38 0.15,0.65 0.24,0.97 -0.46,-0.07 -0.40,-0.66 -0.57,-1.04 0.04,-0.00 0.07,-0.00 0.10,-0.00 z m 0.48,0 c 0.09,-7.81e-4 0.19,0.03 0.22,0.08 -0.10,0.40 0.11,0.80 0.20,1.13 -0.54,-0.01 -0.34,-0.76 -0.61,-1.05 -0.01,-0.06 0.03,-0.06 0.03,-0.12 0.03,-0.03 0.08,-0.04 0.14,-0.04 z m -1.00,0.04 c 0.14,-0.01 0.26,0.00 0.36,0.04 -0.03,0.35 0.14,0.50 0.20,0.77 -0.44,-0.01 -0.48,-0.43 -0.57,-0.81 z m 1.27,0 c 0.65,0.04 0.40,0.98 0.69,1.38 -0.14,0.03 -0.15,-0.06 -0.28,-0.04 -0.19,-0.38 -0.35,-0.81 -0.41,-1.33 z m -1.39,0.04 c 0.07,0.09 0.12,0.23 0.12,0.40 -0.35,0.05 -0.34,-0.25 -0.61,-0.28 0.03,-0.09 0.24,-0.12 0.49,-0.12 z m 8.20,0.44 c 0.67,0.19 1.02,0.71 1.47,1.13 -0.35,0.07 -0.56,-0.29 -0.77,-0.49 -0.23,-0.21 -0.51,-0.40 -0.69,-0.64 z m -3.19,0.12 c 0.24,0.43 0.29,1.05 0.77,1.25 -0.33,0.26 -0.43,-0.40 -0.73,-0.32 -0.06,-0.14 -0.27,-0.33 -0.16,-0.52 -0.35,0.32 0.27,0.75 0.28,0.97 -0.52,-0.03 -0.49,-0.62 -0.74,-0.93 0.12,-0.21 0.21,-0.46 0.57,-0.44 z m 3.02,0.04 c 0.17,-0.02 0.42,0.29 0.62,0.48 0.22,0.21 0.48,0.37 0.53,0.52 -0.58,-0.00 -0.94,-0.56 -1.31,-0.84 0.03,-0.10 0.09,-0.14 0.15,-0.15 z m -6.05,0.03 0.08,0 c 0.28,0.28 0.54,0.59 0.73,0.97 -0.47,-0.12 -0.69,-0.49 -0.81,-0.97 z m 7.22,0.11 c 0.17,0.00 0.23,0.11 0.40,0.12 0.08,0.30 0.41,0.37 0.57,0.60 -0.37,0.08 -0.45,-0.18 -0.65,-0.36 -0.15,-0.13 -0.35,-0.19 -0.41,-0.36 0.03,-0.00 0.06,-0.00 0.08,-0.00 z m -1.56,0.08 c 0.43,0.16 0.58,0.61 1.02,0.77 C 26.07,34.63 25.95,33.96 25.65,33.69 z m -2.29,0.16 c 0.09,0.01 0.39,0.23 0.41,0.32 0.01,0.08 -0.22,0.20 -0.08,0.32 -0.19,-0.11 -0.38,-0.42 -0.33,-0.64 z m 4.80,0.01 c 0.26,0.00 0.55,0.10 0.65,0.27 -0.39,0.19 -0.69,-0.03 -0.90,-0.24 0.07,-0.02 0.16,-0.03 0.25,-0.03 z m -2.59,0.06 c 0.22,0.17 0.36,0.42 0.53,0.64 -0.40,0.08 -0.64,-0.37 -0.65,-0.60 0.03,-0.02 0.06,-0.04 0.12,-0.04 z m -3.27,0.04 c 0.28,0.16 0.29,0.60 0.49,0.84 -0.39,-0.03 -0.41,-0.45 -0.57,-0.72 -0.02,-0.08 0.08,-0.05 0.08,-0.12 z m 0.77,0.04 c 0.01,0.07 0.01,0.17 0.12,0.16 -0.01,-0.07 -0.01,-0.17 -0.12,-0.16 z m 2.22,0.20 c 0.02,-0.00 0.04,-0.00 0.06,0 0.01,0.13 0.18,0.24 0.08,0.36 -0.26,0.04 -0.46,-0.34 -0.14,-0.36 z m -3.33,0.04 0.20,0 c -0.02,0.23 0.23,0.36 0.16,0.52 C 22.08,34.74 22.00,34.52 21.96,34.26 z m 1.92,0 c 0.25,-0.01 0.42,0.24 0.36,0.40 -0.27,0.01 -0.32,-0.18 -0.36,-0.40 z m 6.27,0 c 0.02,-0.00 0.05,-0.00 0.08,0 -0.26,0.28 -0.69,0.46 -1.06,0.68 -0.36,0.21 -0.70,0.44 -1.06,0.64 -0.12,-0.01 -0.14,0.07 -0.28,0.04 -0.04,0.18 -0.11,0.12 -0.24,0.16 -0.01,0.05 -0.04,0.11 -0.12,0.20 -0.92,0.35 -2.12,0.23 -3.07,-0.04 -0.07,-0.23 -0.30,-0.31 -0.28,-0.64 0.18,-0.12 0.41,0.02 0.61,0 0.23,-0.02 0.42,-0.18 0.65,-0.20 0.34,-0.03 0.78,0.06 1.18,0 0.38,-0.05 0.75,-0.23 1.14,-0.16 0.14,0.06 0.02,-0.13 0.12,-0.12 0.19,0.07 0.32,-0.11 0.49,-0.15 0.47,-0.12 1.01,-0.07 1.35,-0.36 0.20,0.08 0.29,-0.02 0.48,-0.04 z m 0.78,0.07 c -0.93,1.14 -1.75,2.39 -2.83,3.40 -0.05,0.05 -0.02,0.19 -0.08,0.24 -0.49,0.51 -1.03,0.97 -1.47,1.53 -0.28,0.06 -0.42,0.28 -0.65,0.40 -0.08,0.19 -0.20,0.53 -0.40,0.48 -0.19,-0.07 0.04,-0.37 0.12,-0.44 -0.02,-0.12 0.07,-0.14 0.03,-0.28 0.13,-0.01 0.14,-0.15 0.24,-0.20 0.19,-0.67 0.79,-0.94 0.94,-1.66 0.43,-0.45 0.66,-1.09 0.94,-1.70 0.32,-0.09 0.52,-0.31 0.94,-0.32 0.42,-0.27 0.87,-0.33 1.27,-0.69 0.29,-0.27 0.39,-0.77 0.94,-0.77 z m -9.88,0.04 c 0.25,0.00 0.49,0.02 0.49,0.28 -0.17,-0.02 -0.34,-0.06 -0.49,-0.12 l 0,-0.16 z m 0.70,0.03 c 0.07,0.00 0.15,0.04 0.11,0.16 -0.12,0.00 -0.26,0.02 -0.24,-0.12 0.03,-0.02 0.08,-0.04 0.12,-0.04 z m 2.58,0.04 c 0.17,-0.00 0.23,0.08 0.28,0.20 0.11,-0.04 0.43,-0.34 0.45,0 -0.15,0.10 -0.30,-0.05 -0.33,0.15 -0.34,-0.00 -0.24,-0.19 -0.40,-0.36 z m -0.41,0.32 c 0.04,0.00 0.09,0.01 0.12,0.00 -0.00,0.10 -0.15,0.09 -0.20,0.03 -0.00,-0.04 0.03,-0.04 0.08,-0.04 z m -0.73,0.53 c 0.15,-0.00 0.32,0.00 0.52,0 0.14,0.59 -0.03,1.13 0,1.66 0.01,0.17 0.13,0.32 0.16,0.48 0.15,0.86 0.09,1.79 0.24,2.67 -0.30,-0.11 -0.27,-0.56 -0.49,-0.77 -0.03,-0.46 -0.20,-0.79 -0.36,-1.13 -0.09,-0.88 -0.62,-1.82 -0.53,-2.88 0.15,-0.02 0.29,-0.03 0.45,-0.03 z m 4.30,0.92 c 0.01,0.29 -0.23,0.43 -0.36,0.64 -0.09,0.14 -0.11,0.33 -0.20,0.48 -0.07,0.13 -0.20,0.23 -0.28,0.36 -0.12,0.21 -0.19,0.43 -0.33,0.64 -0.17,0.27 -0.45,0.63 -0.65,0.97 -0.16,0.27 -0.28,0.55 -0.52,0.76 -0.00,0.11 0.02,0.26 -0.04,0.32 -0.24,0.02 -0.32,-0.10 -0.49,-0.16 0.02,-0.13 0.13,-0.18 0.28,-0.20 -0.08,-0.06 -0.21,-0.08 -0.28,-0.16 -0.04,-1.04 0.00,-1.77 -0.04,-2.67 0.13,-0.12 0.18,-0.32 0.20,-0.56 0.36,-0.02 0.82,-0.01 1.23,0 0.13,0.01 0.11,-0.12 0.20,-0.16 0.64,0.10 0.79,-0.27 1.31,-0.28 z m -8.81,5.47 c 1.71e-4,0.04 -0.03,0.04 -0.04,0.07 0.04,0 0.04,0.03 0.08,0.04 -1.7e-4,-0.04 0.03,-0.04 0.04,-0.07 -0.04,0 -0.04,-0.03 -0.08,-0.04 z m 7.05,0.29 c -0.02,0.00 -0.05,0.01 -0.08,0.03 -0.05,0.21 0.29,0.30 0.28,0.56 -0.00,0.11 -0.08,0.28 -0.20,0.40 -0.14,0.01 -0.26,0.05 -0.45,0.03 -0.17,-0.06 -0.16,-0.32 -0.41,-0.32 -0.06,0.50 0.51,0.70 0.94,0.84 0.37,-0.31 0.65,-0.69 0.41,-1.33 -0.17,-0.03 -0.30,-0.25 -0.49,-0.23 z" />
</svg>
