<?xml version="1.0" encoding="UTF-8" standalone="no"?>
<!-- Created with Inkscape (http://www.inkscape.org/) -->
<svg xmlns:dc="http://purl.org/dc/elements/1.1/" xmlns:cc="http://creativecommons.org/ns#" xmlns:rdf="http://www.w3.org/1999/02/22-rdf-syntax-ns#" xmlns:svg="http://www.w3.org/2000/svg" xmlns="http://www.w3.org/2000/svg" version="1.1" width="100%" height="100%" viewBox="0 0 48 48" id="little_girl_xA0_Image_1_" xml:space="preserve">
<defs id="defs73" />
<path d="m 25.33,2.24 c -0.19,0.01 0.22,0.27 -0.17,0.21 -2.14,-0.45 -5.02,0.53 -4.56,3.03 -0.41,-0.22 -0.47,-0.81 -1.01,-0.91 -0.18,0.29 -0.18,0.76 -0.40,1.01 -0.35,-0.05 -0.45,-0.29 -0.80,-0.10 0.06,0.64 0.63,0.78 0.80,1.31 -0.12,0.34 -0.21,0.73 -0.30,1.11 0.25,0.33 0.81,-0.20 0.91,0 -0.08,0.25 -0.13,0.54 -0.10,0.91 0.23,0.20 0.48,0.39 0.80,0.50 -0.22,-0.01 -0.04,0.36 -0.10,0.50 0.30,0.15 0.37,0.34 0.71,0.40 0.37,0.06 0.90,-0.22 1.01,-0.19 0.09,0.02 0.47,0.40 0.60,0.50 0.24,0.17 0.60,0.29 0.61,0.61 -0.77,0.43 -1.63,0.46 -2.22,1.01 -0.39,0.35 -0.64,1.03 -1.01,1.51 -0.37,0.48 -0.72,0.95 -1.21,1.31 -0.68,-1.06 -1.58,-1.92 -1.72,-3.54 -0.44,-0.56 -0.74,-1.28 -1.52,-1.51 -0.38,0.36 -1.05,0.55 -1.31,1.21 -0.25,0.64 -0.07,1.60 -0.19,2.42 -0.09,0.64 -0.48,1.29 -0.50,1.82 -0.00,0.16 -0.16,0.64 0.20,0.70 -0.18,-0.89 0.27,-1.31 0.40,-1.82 0.31,-1.26 -0.14,-3.00 0.61,-3.44 0.00,0.13 -0.04,0.22 -0.10,0.30 0.67,-0.68 1.43,0.05 1.21,0.80 -0.06,-0.08 -0.47,-0.31 -0.50,-0.10 0.59,0.29 -0.44,0.07 -0.40,0.40 0.39,0.11 0.88,-0.18 1.01,0 0.00,7.74 0.85,15.94 1.31,24.02 -2.61,0.62 -1.90,4.49 0.40,4.76 1.60,0.18 2.84,-1.18 2.73,-2.63 -0.11,-1.53 -1.85,-2.41 -3.14,-2.33 -0.00,-6.51 -1.04,-15.07 -1.11,-21.99 0.20,1.73 1.13,3.09 1.92,4.15 0.25,0.33 0.34,0.81 0.70,0.91 0.47,0.12 1.40,-0.23 1.41,-0.70 -9.5e-4,0.10 -0.17,0.12 -0.20,0 0.57,-1.25 -0.27,-2.73 -0.91,-3.44 0.20,-0.02 0.20,-0.27 0.40,-0.30 0.45,0.22 0.80,0.54 1.11,0.91 -0.35,1.65 -0.26,3.74 -0.40,5.47 -0.11,1.31 0.10,2.66 -0.10,3.95 -0.12,0.78 -0.44,1.77 0,2.63 -0.35,1.06 -0.62,2.51 -0.50,3.75 0.77,0.76 1.84,1.23 3.34,1.01 0.30,2.05 -0.00,3.45 0.91,4.45 -0.15,0.00 -0.35,-0.01 -0.30,0.20 0.02,1.14 0.47,2.15 0.40,3.03 -0.11,1.55 -1.79,1.93 -2.43,3.04 0.21,0.47 0.79,0.86 1.21,0.91 0.95,0.10 1.49,-0.55 2.12,-0.80 0.67,-0.27 1.36,-0.24 1.52,-0.71 -0.25,-0.01 -0.31,0.16 -0.50,0.20 0.32,-0.11 0.07,-0.80 0.30,-1.01 0.31,0.13 -0.25,0.56 0.20,0.60 0.10,-1.31 -0.46,-2.46 0,-3.54 0.65,2.08 0.94,4.53 1.41,6.79 0.65,0.32 2.12,0.32 2.43,-0.30 -0.54,0.10 -2.00,0.64 -2.33,0 0.63,0.29 2.21,0.24 2.43,-0.50 0.13,-0.46 -0.50,-1.70 -0.81,-2.83 -0.46,-1.72 -0.80,-4.42 -0.50,-5.87 0.02,-0.26 -0.39,-0.08 -0.30,-0.40 0.08,-1.20 -0.32,-1.90 -0.50,-2.83 -0.32,0.09 -0.24,0.28 -0.40,-0.10 0.35,-0.10 1.50,-0.23 1.72,-0.81 0.28,0.04 0.14,0.53 0.61,0.40 0.27,-0.13 0.53,-0.27 0.80,-0.40 -0.07,-2.74 -0.64,-4.11 -0.30,-6.48 0.03,-0.26 -0.39,-0.08 -0.30,-0.40 0.23,-1.45 0.18,-3.61 0.20,-4.96 0.51,0.29 0.34,0.72 0.50,1.11 0.27,0.66 0.71,1.51 1.11,2.23 0.41,0.75 1.07,1.41 1.21,2.12 0.11,0.59 -0.15,1.24 0,1.92 0.58,0.08 0.35,-0.65 0.71,-0.80 0.48,0.31 0.06,0.92 0.40,1.41 0.53,0.02 0.25,-0.76 0.50,-1.01 0.21,0.25 0.16,0.77 0.50,0.91 0.29,-0.31 0.35,-0.86 0.30,-1.52 0.17,0.08 0.29,0.32 0.50,0.10 -0.23,-1.20 -1.39,-1.28 -1.82,-2.22 -0.16,-0.36 -0.18,-0.88 -0.30,-1.31 -0.35,-1.29 -0.68,-2.41 -1.21,-3.64 0.11,-0.25 0.40,-0.33 0.40,-0.70 -0.90,-2.24 -1.80,-5.65 -3.64,-6.79 -1.08,-0.67 -2.60,-0.64 -3.03,-1.92 0.23,0.04 0.51,0.20 0.70,0 0.60,-0.97 2.13,-2.66 0.81,-3.75 0.33,-0.33 0.29,-0.88 0.19,-1.41 -0.32,-0.25 -0.69,-0.45 -1.11,-0.61 -8.14e-4,-1.28 -1.31,-1.24 -1.92,-1.92 -0.05,-0.00 -0.09,-0.01 -0.12,-0.00 z m -0.64,2.32 c 0.12,5e-4 0.24,0.00 0.36,0.01 1.28,0.10 2.21,0.83 2.73,1.41 -0.24,0.14 -0.50,-0.56 -0.91,-0.60 -0.16,0.13 0.33,0.46 0.50,0.60 -0.61,-0.19 -1.36,-0.89 -2.43,-1.01 -1.39,-0.15 -2.71,0.39 -3.64,0.91 -0.21,0.12 -0.37,0.29 -0.50,0.50 -0.13,-0.87 2.03,-1.84 3.89,-1.83 z m 3.14,0 c 0.20,-0.04 0.67,0.33 0.56,0.82 -0.21,-0.26 -0.27,-0.66 -0.60,-0.80 0.01,-0.00 0.02,-0.01 0.03,-0.01 z m -8.24,0.41 c 0.26,0.30 0.52,0.62 0.70,1.01 -0.30,-0.00 -0.51,0.09 -0.60,0.30 0.08,0.36 0.24,0.01 0.60,0.10 -0.03,0.23 0.01,0.39 0.10,0.50 -0.05,0.15 -0.10,0.00 -0.10,-0.10 -1.07,0.76 -1.00,-1.09 -0.70,-1.82 z m -0.77,0.63 c 0.22,-0.02 0.48,0.30 0.36,0.68 -0.30,-0.06 -0.28,-0.45 -0.50,-0.60 0.04,-0.04 0.08,-0.07 0.13,-0.07 z m 6.06,0.07 c 0.02,-0.00 0.04,0.00 0.07,0.00 0.18,0.07 -0.06,0.10 -0.20,0.09 0.02,0.11 0.20,0.06 0.20,0.20 0.25,0.19 -0.09,-0.06 -0.30,0 -0.01,-0.19 0.05,-0.29 0.22,-0.30 z m 0.07,0.50 c -0.05,0.73 0.48,0.87 0.91,1.11 0.00,0.56 -0.85,0.66 -0.91,1.21 -0.04,0.45 0.17,0.59 0.50,1.01 0.32,-0.11 0.70,-0.24 1.01,-0.10 0.14,0.43 0.12,1.02 0.40,1.31 -0.26,1.18 -1.35,1.55 -2.13,2.22 -0.62,-0.42 -1.29,-0.79 -1.21,-1.92 1.01,0.29 1.70,-0.40 2.33,-0.80 -0.72,0.08 -1.16,0.77 -2.02,0.70 -1.36,-0.10 -2.48,-1.78 -2.22,-3.24 0.34,-0.07 0.13,0.41 0.50,0.30 0.44,0.01 0.20,-0.64 0.70,-0.30 0.05,-0.36 -0.29,-0.30 -0.60,-0.30 -0.01,-0.28 -0.18,-0.42 -0.20,-0.70 0.44,0.35 1.14,0.16 1.52,-0.10 0.51,0.48 1.09,-0.09 1.41,-0.40 z m -2.54,0.04 c 0.14,-0.00 0.38,0.30 0.62,0.26 -0.20,0.29 -0.52,-0.13 -0.70,-0.20 0.02,-0.04 0.05,-0.05 0.08,-0.05 z m 2.04,0.56 c -0.08,0.24 -0.06,0.26 -0.10,0.70 0.24,-0.04 0.21,0.18 0.50,0.10 0.07,-0.36 0.24,-0.50 0.50,-0.20 -0.07,-0.43 -0.49,-0.51 -0.91,-0.60 z m -5.17,0.19 c 0.17,0.24 0.61,0.23 0.91,0.10 -0.12,0.45 -0.53,0.61 -1.01,0.71 0.01,-0.29 -0.05,-0.66 0.10,-0.81 z m 6.48,1.21 c 0.14,0.03 0.00,0.17 -0.10,0.20 -0.04,0.24 0.18,0.22 0.10,0.50 -0.22,0.05 -0.14,-0.19 -0.30,-0.20 -0.04,-0.31 0.27,-0.26 0.30,-0.50 z m -5.87,0.20 c 0.17,0.12 0.12,0.48 0.40,0.50 -0.17,0.26 -0.50,-0.15 -0.40,-0.50 z m 8.21,0 c 0.33,0.15 -0.17,0.28 -0.20,0.40 -0.27,-0.09 0.23,-0.22 0.20,-0.40 z m -4.74,0.11 c -0.10,-0.01 -0.20,0.04 -0.22,0.19 0.13,0.13 0.37,0.13 0.40,-0.10 -0.05,-0.04 -0.11,-0.08 -0.18,-0.08 z m 0.59,0 c -0.05,-0.00 -0.12,0.02 -0.21,0.08 0.33,0.41 0.43,-0.07 0.21,-0.08 z m 0.29,0.59 c -0.25,0.32 -0.64,-0.26 -1.01,0.19 0.00,0.30 0.26,0.34 0.30,0.61 0.63,0.16 0.90,-0.46 0.70,-0.80 z m -0.20,0.50 c 0.43,0 -0.97,0.14 0,0 z m -8.31,0.61 c -0.19,0.21 -0.27,0.53 -0.70,0.50 0.02,-0.38 0.41,-0.39 0.70,-0.50 z m 0.10,0 c 0.42,0.27 0.70,0.70 1.01,1.11 0.17,1.14 0.83,2.43 1.52,3.34 0.58,0.77 1.50,1.29 1.62,2.02 0.11,0.72 -0.16,1.57 -0.91,1.92 -1.23,-0.62 -1.94,-2.15 -2.43,-3.64 -0.29,-0.88 -0.55,-1.64 -0.50,-2.73 0.01,-0.33 0.24,-0.64 0.10,-1.21 -0.07,-0.29 -0.41,-0.51 -0.40,-0.80 z m 11.14,0.60 c 0.46,0.03 0.76,0.25 1.01,0.50 -0.23,0.15 -0.19,0.20 -0.10,0.50 -0.23,-0.11 -0.22,-0.06 -0.20,0.10 0.01,0.16 -0.47,0.12 -0.20,0.50 -0.52,0.18 -0.65,0.48 -0.91,0.91 -0.09,-0.00 -0.07,-0.12 -0.10,-0.20 -0.28,0.27 -0.00,0.07 -0.40,0.30 -0.45,0.25 -0.10,0.62 -0.20,1.62 -0.16,-0.02 -0.17,0.09 -0.30,0.09 0.22,0.00 0.39,0.93 0,0.91 0.08,0.24 0.30,0.37 0.20,0.80 -0.11,-0.01 -0.08,-0.18 -0.10,-0.30 -0.17,0.39 0.04,0.91 0,1.31 -0.01,0.12 -0.20,0.30 -0.20,0.30 0.00,0.15 0.50,0.50 0,0.50 0.24,0.08 0.26,0.44 0.06,0.57 0.20,0.03 0.26,1.34 -0.06,1.04 0.22,0.28 0.25,0.53 -0.10,0.70 0.24,0.08 0.26,0.45 0.05,0.58 0.16,-0.01 0.28,0.69 -0.05,0.43 0.19,0.19 0.39,0.97 -0.10,1.01 0.38,0.19 0.13,1.01 0.20,1.51 -0.78,0.14 -0.66,0.52 -1.52,0.81 -0.10,-0.13 -0.09,-0.37 -0.20,-0.50 -0.09,0.00 -0.07,0.12 -0.10,0.20 -0.31,-0.38 -0.54,-0.45 -0.91,-0.91 0.48,-0.34 -0.37,-0.58 0.20,-0.81 -0.08,-0.13 -0.41,-0.74 0,-0.50 0.12,-0.19 -0.19,-0.15 -0.20,-0.20 -0.10,-0.34 0.18,-0.93 0.20,-1.52 0.00,-0.34 -0.31,-0.77 0.10,-0.50 0.11,-0.20 -0.17,-0.14 -0.20,-0.20 -0.15,-0.35 0.19,-0.59 0.20,-0.91 0.01,-0.35 -0.12,-0.77 -0.10,-1.11 6.79e-4,-0.00 0.20,0.01 0.20,0 0.08,-0.27 -0.13,-0.73 -0.10,-1.01 0.02,-0.20 0.18,-0.13 0.20,-0.20 0.04,-0.20 -0.33,-0.66 0.10,-0.71 -0.50,-0.35 0.39,-0.95 -0.10,-1.31 0.33,-0.28 -0.08,-0.95 0.30,-1.31 -0.07,-0.19 -0.30,-0.07 -0.10,-0.30 -0.35,-0.03 -0.17,-0.48 -0.40,-0.30 -0.06,-0.62 -0.84,-1.53 0.20,-1.92 0.19,0.64 0.37,1.31 1.11,1.41 -0.23,0.28 -0.90,-0.24 -1.21,0.09 0.07,0.09 0.10,0.23 0.10,0.40 l 0.70,0 c -0.25,0.21 -0.11,0.82 -0.50,0.91 0.08,0.25 0.13,0.54 0.10,0.91 0.46,-0.24 0.21,-0.86 0.61,-1.31 0.25,1.40 -0.47,2.70 -0.81,3.84 l 0.61,0 c -0.09,1.59 -0.14,3.23 -0.91,4.15 0.16,0.17 0.33,-0.09 0.70,0 l 0,1.31 c 0.30,-0.16 -0.17,-1.12 0.40,-1.01 -0.25,0.24 0.09,1.11 -0.30,1.21 0.64,0.27 0.33,-1.28 0.40,-1.92 0.24,0.22 0.19,0.75 0.80,0.61 -0.97,-1.11 -0.72,-3.57 -0.50,-5.37 0.12,0.21 0.23,0.74 0.10,0.91 0.08,0.19 0.44,0.27 0.61,0.10 -0.33,-1.13 -0.69,-2.26 -0.50,-3.64 0.26,0.24 0.26,0.74 0.30,1.21 0.46,-0.52 0.27,-1.44 -0.20,-1.82 0.18,-0.28 1.10,0.16 0.91,-0.50 -0.03,-0.13 -0.25,-0.08 -0.40,-0.09 0.66,-0.51 1.44,-0.92 1.61,-1.92 z m -1.56,10.82 c -0.01,0.00 -0.03,0.00 -0.05,0.02 0.01,-0.00 0.03,-0.01 0.05,-0.02 z M 15.36,11.15 c -0.33,-0.01 -0.45,0.19 -0.75,0.22 0.02,0.95 0.35,1.60 1.11,1.82 -0.13,-0.55 -1.12,-0.73 -0.80,-1.41 0.36,0.29 0.64,-0.17 0.80,-0.40 -0.34,-0.00 -0.72,0.48 -1.01,0.20 0.06,-0.33 0.77,-0.03 0.80,-0.40 -0.05,-0.01 -0.10,-0.01 -0.15,-0.02 z m 13.02,0.32 c 1.60,0.63 2.57,1.64 3.24,3.34 0.05,0.13 -0.03,0.50 0.30,0.40 l 0,0.00 c 0.04,0.30 -1.03,0.55 -0.91,-0.00 -0.23,0.02 -0.23,0.27 0,0.30 -0.76,0.18 -1.50,0.92 -1.92,1.11 0.18,-0.49 -0.22,-0.10 -0.40,-0.50 -0.30,0.33 0.19,0.48 0.30,0.70 -0.26,0.50 0.34,0.91 0.30,1.52 0.02,0.35 0.27,-0.00 0.30,0.20 0.18,0.66 0.34,1.34 0.81,1.72 0.07,1.72 -0.09,3.75 -0.10,5.06 -0.15,0.27 -0.68,-0.22 -0.91,0.10 -0.13,0.03 -0.08,0.25 -0.10,0.40 -2.49,0.63 -6.16,1.55 -8.01,-0.19 -0.24,-1.34 -0.35,-2.82 -0.50,-4.25 -0.15,1.23 0.15,2.89 0.40,4.05 -0.22,0.21 -0.59,-0.28 -0.81,-0.40 0.00,-4.22 0.36,-8.08 0.81,-11.86 -0.46,0.42 -0.14,1.43 -0.40,1.92 0.12,-0.24 -0.60,-0.21 -0.10,0 -0.18,0.44 -0.50,-0.61 -1.01,-0.50 0.73,-0.65 1.13,-2.36 2.53,-2.73 -0.02,0.93 0.32,1.50 0.70,2.03 -0.20,2.17 -0.48,6.27 -0.60,8.91 -0.02,0.57 -0.21,1.21 -0.10,1.62 0.19,0.73 1.16,1.01 1.61,1.51 0.75,-0.26 1.41,-0.61 2.03,-1.01 0.10,-3.75 0.35,-6.99 0.40,-10.94 0.93,-0.62 1.69,-1.41 2.12,-2.53 z m -4.05,1.92 0.30,0 c 0.04,0.45 -0.04,0.75 -0.09,1.11 -0.30,-0.13 -0.17,-0.70 -0.20,-1.11 z m -4.25,1.11 c -0.01,0.22 0.08,0.32 0.30,0.30 0.06,-0.27 -0.21,-0.19 -0.30,-0.30 z m 11.25,0.61 c 0.00,0.10 -0.08,0.11 -0.10,0.19 0.15,-0.00 0.35,0.01 0.30,-0.19 l -0.20,0 z m -0.81,0.17 c -0.02,-0.00 -0.06,0.00 -0.09,0.02 l 0,0.30 c 0.25,0.13 0.29,-0.31 0.09,-0.32 z m -0.19,0.32 c -0.15,0.00 -0.35,-0.01 -0.30,0.20 l 0.20,0 c 0,-0.10 0.08,-0.12 0.10,-0.20 z m 1.72,0 c 0.26,0.30 0.38,0.76 0.61,1.11 -1.16,0.28 -2.10,0.80 -3.04,1.31 -0.06,-0.40 -0.24,-0.69 -0.40,-1.01 l -0.00,0 c 0.51,-0.90 1.55,-1.28 2.83,-1.41 z m -2.12,0.20 c -0.15,0.00 -0.35,-0.01 -0.30,0.20 0.17,0.00 0.26,-0.07 0.30,-0.20 z m -5.57,0.10 c 0.16,0.98 -0.16,1.84 -0.10,2.93 -0.35,-0.11 -0.21,-0.73 -0.20,-1.11 0.02,-0.60 0.17,-1.33 0.30,-1.82 z m 5.17,0.10 c -0.25,0.12 -0.31,-0.05 -0.40,0.10 0.20,0.05 0.19,0.30 0.40,0.10 l 0,-0.20 z m 3.23,1.21 c -0.09,0.30 0.42,0.76 0.50,1.21 -1.11,0.33 -2.39,0.51 -2.94,1.41 -0.40,-0.20 -0.25,-0.95 -0.50,-1.31 0.16,-0.31 0.58,-0.35 0.80,-0.61 0.15,0.04 -0.03,0.13 0,0.30 0.42,-0.62 1.19,-0.89 2.12,-1.01 z m -0.30,0.20 c -0.16,0.00 -0.35,-0.01 -0.30,0.19 0.17,0.00 0.26,-0.07 0.30,-0.19 z m -1.21,0.30 c -0.52,0.24 0.34,0.26 0,0 z m -11.35,0.50 c 0.19,0.32 -0.43,0.71 -0.91,0.70 0.19,-0.34 0.73,-0.34 0.91,-0.70 z m 12.97,0.50 0.40,0 c -0.08,0.14 -0.15,0.32 -0.40,0.30 l 0,-0.30 z M 32.48,18.96 c 0.05,1.83e-4 0.11,0.00 0.17,0.00 0.85,1.71 1.31,3.82 1.92,5.77 0.46,0.57 1.27,0.82 1.52,1.62 -0.37,-0.48 -0.49,1.10 -0.50,0.10 -0.31,0.31 0.12,0.74 0,1.21 -0.31,-0.19 -0.28,-0.72 -0.60,-0.91 -0.40,0.18 0.02,0.61 -0.20,1.01 -0.41,-0.23 -0.02,-1.26 -0.60,-1.31 -0.40,0.03 -0.36,0.51 -0.50,0.80 -0.27,-0.53 0.09,-1.17 0,-1.72 -0.15,-0.91 -1.02,-1.81 -1.52,-2.73 -0.51,-0.96 -0.90,-1.89 -1.21,-2.93 0.53,-0.28 0.72,-0.92 1.55,-0.92 z m -6.97,0.38 c -0.01,0.00 -0.03,0.01 -0.04,0.03 0.02,-0.00 0.04,-0.02 0.06,-0.03 -0.00,-4.95e-4 -0.01,-0.00 -0.01,0 z m 5.12,0.33 c 0.11,0.01 0.08,0.18 0.09,0.30 l -0.30,0 c 0.03,-0.13 0.17,-0.15 0.20,-0.30 z m -6.69,0.80 c 0.37,0.09 0.13,0.81 0.20,1.21 -0.60,-0.17 -0.05,-0.53 -0.20,-1.21 z m 6.28,0.50 c -0.28,1.64 -0.71,3.13 -1.21,4.56 0.28,-0.15 0.39,-0.58 0.50,-0.91 0.40,-1.18 0.75,-2.50 0.71,-3.64 z m -6.55,0.33 c 0.04,-0.00 0.08,0.16 0.06,0.27 -0.03,0.19 -0.12,-0.06 -0.10,-0.20 0.00,-0.04 0.02,-0.06 0.03,-0.06 z m 1.58,1.28 0,0.20 0.20,0 0,-0.20 -0.20,0 z m 4.86,0.20 c -0.03,0.87 -0.70,1.66 -0.50,2.43 0.07,-0.83 0.70,-1.65 0.50,-2.43 z m -1.72,0.70 c -0.19,0.85 -0.43,1.65 -0.70,2.43 0.50,-0.47 0.78,-1.71 0.70,-2.43 z m -8.06,1.81 c 0.22,-0.02 0.62,0.44 0.97,0.51 -0.00,0.09 -0.12,0.07 -0.19,0.10 0.01,0.08 0.09,0.10 0.09,0.20 0.24,0.04 0.22,-0.18 0.50,-0.10 -0.11,0.14 -0.10,0.24 0.10,0.30 0.00,-0.32 0.24,-0.09 0.40,0.20 0.09,-0.17 0.00,-0.22 0.40,-0.10 -0.05,0.08 -0.10,0.16 -0.10,0.30 l 0.20,0 c 0.11,-0.01 0.05,-0.10 0,-0.10 0.86,0.22 2.63,0.40 2.63,1.82 -0.11,-0.01 -0.18,0.02 -0.20,0.10 -0.04,-0.30 -0.19,-0.16 -0.30,0.20 -0.26,-0.26 -0.42,0.08 -0.50,0.30 -0.15,-0.43 -1.15,0.03 -1.11,-0.61 -0.17,0.25 -0.13,0.10 -0.50,0.10 0.12,-0.13 0.03,-0.16 0,-0.30 -0.15,0.32 -0.95,-0.00 -1.01,-0.40 -0.50,0.17 -1.07,-0.39 -1.52,-0.61 -0.17,-0.76 0.37,-1.71 0.10,-1.92 0.01,-0.00 0.02,-0.01 0.04,-0.01 z m 9.48,0.11 c 0.30,0.70 -0.14,1.54 0,2.43 l -0.30,0 c 0.04,0.15 0.31,0.08 0.20,0.40 -0.12,-0.11 -0.20,-0.08 -0.20,0.10 -0.17,-0.72 0.11,-1.84 0,-2.83 0.14,0.00 0.28,0.01 0.30,-0.10 z m -9.22,0.10 c -0.08,0.20 0.26,0.45 0.30,0.19 -0.14,-0.02 -0.17,-0.16 -0.30,-0.19 z m 9.63,0.10 c 0.55,0.31 0.04,1.22 0.20,2.02 -0.12,0.23 -0.36,-0.08 -0.40,0.07 -0.01,-0.45 -0.20,-1.81 0.30,-1.79 -0.18,-0.20 -0.41,-0.06 -0.10,-0.30 z m -1.01,0.30 c 0.15,0.16 0.08,1.20 0.10,1.82 l -0.20,0 c 0.00,0.09 0.12,0.07 0.20,0.10 -1.29,0.54 -2.60,0.50 -3.95,0.91 0.56,-0.45 -0.23,-1.74 -1.01,-1.82 -0.35,-0.13 1.08,-0.23 0.60,0.09 0.73,-0.59 1.61,-0.03 1.72,-0.50 0.22,-0.05 0.14,0.19 0.30,0.20 0.19,-0.43 0.60,-0.09 0.80,-0.40 0.14,0.04 -0.01,0.09 0,0.20 0.41,0.03 0.76,-0.59 1.01,-0.20 0.11,-0.15 0.25,-0.28 0.40,-0.40 z m -5.65,1.01 c -0.18,-0.02 -0.06,0.41 0.17,0.10 -0.07,-0.06 -0.13,-0.09 -0.17,-0.10 z m 0.27,0.10 c -0.01,0.22 0.08,0.32 0.30,0.30 0.07,-0.27 -0.21,-0.19 -0.30,-0.30 z m 0.81,0.30 c 0.01,0.25 0.18,0.35 0.30,0.50 0.04,-0.31 -0.12,-0.41 -0.30,-0.50 z m -0.76,0.19 c -0.14,0 -0.28,0.03 -0.35,0.11 -0.04,0.37 0.07,0.59 0.40,0.60 0.26,-0.03 0.36,-0.24 0.30,-0.60 -0.06,-0.07 -0.21,-0.11 -0.35,-0.11 z m -3.59,0.11 c 0.49,0.10 0.77,0.43 1.31,0.50 -0.04,0.40 0.33,0.75 0.71,1.01 1.79,0.17 3.08,-0.23 4.76,-0.61 -0.25,1.09 -0.64,2.06 -1.01,3.04 0.48,-0.47 0.89,-2.02 1.11,-3.04 0.76,-0.04 1.35,-0.27 2.03,-0.40 0.59,1.06 -0.14,2.63 0,3.95 -0.83,0.61 -1.99,0.14 -3.34,0.20 -0.58,0.02 -1.12,0.25 -1.62,0.20 -0.45,-0.04 -0.82,-0.38 -1.21,-0.40 -0.33,-0.01 -0.65,0.22 -1.01,0.20 -0.91,-0.05 -1.61,-0.78 -2.22,-1.11 0.14,-1.20 0.28,-2.42 0.50,-3.54 z m 3.54,0.10 c 0.12,0.04 0.20,0.12 0.20,0.30 -0.16,0.02 -0.17,-0.09 -0.30,-0.10 0.02,-0.07 0.10,-0.09 0.10,-0.19 z m 1.18,0.19 c -0.02,-10e-4 -0.04,0.00 -0.07,0.00 -0.00,0.17 0.07,0.25 0.20,0.30 -0.00,-0.13 0.00,-0.30 -0.13,-0.30 z m 5.17,0.00 c 0.06,0.00 0.11,0.04 0.12,0.10 0.15,1.26 0.30,2.53 0.50,3.75 -0.24,0.08 -0.43,0.23 -0.80,0.19 0.23,-1.49 -0.46,-3.18 0.10,-4.05 0.02,-0.00 0.05,-0.00 0.07,-0.00 z m -3.11,0.10 0,0.00 0,0.19 0.20,0 0,-0.20 -0.20,0 z m -4.93,0.41 c 0.32,-0.01 0.62,0.39 0.98,0.39 -0.42,0.23 -0.36,-0.18 -0.80,0.10 -0.17,-0.20 0.07,-0.20 -0.10,-0.40 l -0.30,0 c 0.07,-0.05 0.15,-0.08 0.23,-0.08 z m 7.52,0.29 c 0.06,-0.02 0.05,0.39 0.04,0.50 -0.11,0.31 -0.11,-0.27 -0.10,-0.40 0.02,-0.06 0.04,-0.09 0.05,-0.09 z m -0.05,0.80 c 0.14,0.02 0.03,0.30 0.20,0.30 l 0,1.82 c -0.22,-0.54 -0.20,-1.34 -0.20,-2.12 z m -4.33,3.03 c 0.19,0.01 0.24,0.36 -0.02,0.41 0.34,0.66 0.28,1.74 0.40,2.63 -0.16,0.00 -0.38,-0.04 -0.40,0.10 -0.07,0.16 0.47,0.16 0.40,0 0.58,0.97 2.08,0.23 3.24,0.30 -0.02,0.70 -0.98,-0.11 -1.31,0.30 0.20,0.12 0.63,-0.00 1.11,0.19 0.09,0.50 -0.20,0.60 -0.30,0.91 0.09,0.34 0.22,0.00 0.40,0.19 0.03,2.02 0.32,3.79 0.91,5.27 -0.44,-0.55 -1.66,-0.49 -2.02,0.10 -0.43,-2.21 -1.11,-4.07 -1.52,-6.08 0.19,0.04 0.25,0.21 0.50,0.20 -0.23,-0.59 -0.68,-0.44 -0.91,-1.11 -0.11,0.45 0.39,1.14 0.40,1.82 0.32,1.09 -0.39,2.40 0.10,3.44 -0.14,0.29 -0.37,0.50 -0.70,0.61 -0.25,-0.62 -0.64,-1.10 -1.52,-1.11 0.33,-1.02 -0.01,-2.44 -0.20,-3.54 -0.07,-0.27 0.21,-0.19 0.30,-0.30 -0.03,-0.47 -0.52,-0.48 -0.50,-1.01 0.18,-0.01 0.21,0.12 0.40,0.10 -0.02,-0.20 -0.27,-0.20 -0.40,-0.30 0.27,-0.20 0.60,0.40 1.11,0.30 -0.21,-0.35 -0.71,-0.43 -1.11,-0.61 -0.24,-0.60 -0.30,-2.27 -0.30,-2.33 0.13,-0.54 0.28,-0.15 0.91,-0.40 -0.14,0.22 -0.54,0.19 -0.60,0.50 0.43,-0.19 0.83,-0.18 1.61,-0.19 0.03,-0.20 -0.02,-0.31 -0.20,-0.30 0.08,-0.08 0.16,-0.12 0.22,-0.11 z m 0.88,5.28 c -0.15,0.11 -0.41,0.12 -0.50,0.30 0.20,0.32 0.46,-0.12 0.50,-0.30 z m 0.11,-5.27 c 0.02,-2.01e-4 0.05,0.00 0.08,0.00 -0.01,0.08 -0.10,0.09 -0.10,0.19 1.91,-0.30 2.32,1.17 2.43,3.04 -1.01,0.02 -2.35,0.71 -2.83,-0.10 -0.09,-0.16 0.10,-0.31 0.09,-0.50 -0.02,-0.52 -0.39,-1.16 -0.30,-1.72 0.32,0.04 0.35,0.38 0.70,0.40 0.25,-0.29 -0.55,-0.38 -0.50,-0.81 0.11,0.02 0.06,0.20 0.19,0.20 l 0.00,0 c 0.20,-0.08 -0.24,-0.35 -0.30,-0.50 0.02,-0.24 0.27,0.11 0.30,0.20 0.23,-0.09 -0.14,-0.40 0.22,-0.40 z m -2.85,0.00 c 0.29,0.05 -0.15,0.15 -0.10,0.30 -0.33,-0.09 0.11,-0.19 0.10,-0.30 z m 4.06,0.08 c 0.13,-0.02 0.30,0.19 0.39,0.21 -0.07,0.25 -0.27,-0.18 -0.50,-0.09 0.03,-0.07 0.07,-0.11 0.11,-0.11 z m -2.96,0.10 c 0.16,-0.00 0.39,0.05 0.52,0.01 -0.04,0.22 -0.49,0.04 -0.70,0.10 0.01,-0.08 0.08,-0.11 0.18,-0.11 z m -6.51,3.53 c 0.17,-6.17e-4 0.35,0.00 0.55,0.02 l 0,0.00 c 0.76,0.52 1.59,0.96 1.72,2.12 -0.20,0.20 -0.19,-0.04 -0.30,-0.20 -0.17,0.87 -0.83,1.26 -1.01,2.12 0.29,0.12 0.75,-0.45 0.91,-0.80 -0.23,1.72 -3.61,1.35 -3.95,-0.30 -0.19,-1.87 0.40,-2.96 2.08,-2.97 z m 7.44,0.23 c -0.14,0.29 0.45,0.29 0.30,0 l -0.30,0 z m -8.51,0.10 c -0.13,0.33 -0.89,0.58 -0.60,1.01 -0.06,-0.54 0.79,-0.68 0.60,-1.01 z m 11.46,0.08 c -0.20,0.01 -0.32,0.36 -0.11,0.42 0.05,-0.14 0.15,-0.25 0.20,-0.40 -0.03,-0.01 -0.06,-0.01 -0.09,-0.01 z m -11.15,0.11 c -0.52,0.15 -0.89,0.99 -0.91,1.31 0.24,-0.50 0.55,-0.92 0.91,-1.31 z m 2.16,1.51 c -0.27,0.00 -0.08,0.49 -0.34,0.51 -0.04,-0.26 -0.49,0.43 -0.30,0.40 0.02,-0.09 0.27,-0.44 0.30,-0.20 -0.06,0.17 -0.57,0.43 -0.30,0.61 0.28,-0.39 0.54,-0.80 0.70,-1.31 -0.02,-0.00 -0.04,-0.00 -0.06,-0.00 z m 0.16,0.00 c -0.03,0.67 -0.75,1.20 -0.70,1.62 0.30,-0.41 0.88,-1.06 0.70,-1.62 z m 6.99,0 c -0.07,0.28 0.50,0.42 0.60,0.20 -0.18,-0.08 -0.36,-0.17 -0.60,-0.20 z m -6.62,0.38 c 0.06,-0.01 0.23,0.50 -0.05,0.72 -0.09,-0.06 -0.18,-0.12 -0.20,0 -0.15,-0.04 0.04,-0.13 0,-0.30 0.13,-0.12 0.16,-0.03 0.30,0 -0.07,-0.30 -0.07,-0.41 -0.04,-0.42 z m -0.46,0.82 c 0.17,0.19 0.39,-0.13 0.20,0.20 -0.08,0.01 -0.09,-0.03 -0.10,-0.10 -0.31,0.22 -0.32,0.21 -0.10,-0.09 l 0,-0.00 z m 4.52,1.83 c 0.43,-0.00 0.87,0.24 1.04,0.80 -0.48,0.47 -1.40,0.44 -2.12,0.20 0.09,-0.64 0.58,-0.99 1.08,-1.00 z m 1.86,1.30 c -0.44,0.40 -0.79,0.05 0,0 z m 2.75,0 c 0.13,-0.01 0.25,0.05 0.18,0.30 -0.11,-0.08 -0.27,-0.13 -0.50,-0.10 0.02,-0.09 0.18,-0.19 0.32,-0.20 z m -6.24,0.17 c 0.25,-0.03 0.63,0.49 1.05,0.43 -0.43,0.32 -0.79,-0.28 -1.21,-0.30 0.04,-0.08 0.09,-0.12 0.15,-0.13 z m 2.27,0.13 c 0.24,0.21 -1.71,1.19 -0.50,0.40 0.09,-0.06 0.21,-0.07 0.30,-0.30 0.11,0.01 0.18,-0.02 0.20,-0.10 z m -2.83,0.10 c 0.10,0.06 0.10,0.22 0.30,0.19 -0.04,0.25 -0.39,0.00 -0.30,-0.19 z m 7.10,0.10 c 0.30,0.00 0.60,0.09 0.80,0.29 l 0,0.61 c -0.63,0.38 -1.74,0.39 -2.02,-0.30 0.16,-0.37 0.70,-0.61 1.22,-0.60 z m 0.90,1.61 c -0.15,0.31 -0.77,0.16 -1.21,0.20 0.32,-0.35 0.54,-0.03 1.21,-0.20 z" />
</svg>
