<?xml version="1.0" encoding="UTF-8" standalone="no"?>
<!-- Created with Inkscape (http://www.inkscape.org/) -->
<svg xmlns:dc="http://purl.org/dc/elements/1.1/" xmlns:cc="http://creativecommons.org/ns#" xmlns:rdf="http://www.w3.org/1999/02/22-rdf-syntax-ns#" xmlns:svg="http://www.w3.org/2000/svg" xmlns="http://www.w3.org/2000/svg" version="1.1" width="100%" height="100%" viewBox="0 0 48 48" id="svg25171">
<defs id="defs25173" />
<path d="m 22.54,1.18 c -0.10,-0.00 -0.15,0.08 -0.15,0.28 0,0.20 -0.07,0.42 -0.36,1.07 -0.09,0.21 -0.10,0.19 -0.05,-0.13 0.03,-0.24 -0.00,-0.49 -0.11,-0.72 -0.17,-0.38 -0.36,-0.42 -0.32,-0.06 0.01,0.12 0.02,0.28 0.03,0.36 0.00,0.07 -0.03,0.42 -0.09,0.78 -0.09,0.56 -0.08,0.69 0.05,1.07 0.09,0.23 0.19,0.59 0.23,0.78 0.06,0.33 0.05,0.36 -0.26,0.49 -0.29,0.12 -1.43,0.78 -2.70,1.57 -0.26,0.16 -0.68,0.48 -0.92,0.70 l -0.44,0.41 0.76,0.71 c 0.41,0.39 0.76,0.78 0.76,0.86 0,0.08 -0.06,0.29 -0.13,0.47 -0.07,0.17 -0.14,0.48 -0.15,0.68 -0.02,0.54 0.61,2.80 1.45,5.13 0.38,1.07 0.41,1.53 0.18,2.81 -0.09,0.55 -0.12,1.05 -0.08,1.51 l 0.05,0.68 -0.63,-0.06 c -0.34,-0.03 -0.67,-0.06 -0.72,-0.06 -0.30,0 -0.42,0.04 -0.42,0.16 0,0.09 0.23,0.16 0.79,0.24 0.61,0.09 0.79,0.15 0.79,0.26 -8.7e-4,0.09 -0.02,0.11 -0.07,0.04 -0.10,-0.15 -1.32,-0.02 -1.42,0.14 -0.14,0.22 -0.10,0.80 0.06,0.94 0.12,0.10 0.17,0.09 0.28,-0.05 0.09,-0.12 0.13,-0.14 0.13,-0.04 -1.1e-5,0.10 0.14,0.13 0.63,0.13 l 0.63,0 0.02,0.35 0.02,0.35 0.57,0.01 c 0.72,0.01 1.11,0.09 1.16,0.24 0.02,0.08 -0.17,0.10 -0.78,0.07 l -0.82,-0.03 0.70,0.11 c 0.66,0.10 0.67,0.11 0.28,0.14 -0.54,0.04 -0.61,0.17 -0.27,0.50 0.27,0.27 0.39,0.56 0.14,0.36 -0.06,-0.05 -0.15,-0.07 -0.18,-0.04 -0.03,0.03 0.09,0.22 0.28,0.41 0.38,0.39 0.36,0.58 -0.02,0.27 -0.13,-0.10 -0.47,-0.26 -0.75,-0.34 -0.27,-0.07 -0.49,-0.18 -0.49,-0.22 0,-0.04 0.12,-0.21 0.28,-0.38 0.24,-0.26 0.26,-0.32 0.14,-0.44 -0.07,-0.07 -0.25,-0.14 -0.39,-0.14 -0.21,-0.00 -0.42,0.14 -1.10,0.84 -0.74,0.75 -0.85,0.91 -0.95,1.34 -0.25,1.09 -0.06,1.94 0.64,2.86 0.47,0.61 0.53,0.90 0.15,0.66 -0.33,-0.20 -0.82,-0.28 -0.91,-0.13 -0.05,0.08 -0.08,0.09 -0.08,0.01 -9.25e-4,-0.07 -0.09,-0.09 -0.26,-0.06 -0.16,0.03 -0.38,-0.00 -0.55,-0.09 -0.35,-0.18 -0.86,-0.18 -1.42,-0.01 -0.45,0.13 -1.65,0.67 -1.81,0.81 -0.25,0.21 -0.95,0.63 -1.04,0.64 -0.05,9.24e-4 -0.15,0.06 -0.22,0.14 -0.09,0.11 -0.09,0.14 0.01,0.14 0.26,9.25e-4 -2.40,1.49 -2.68,1.50 -0.04,0.00 -0.25,0.08 -0.46,0.18 -0.20,0.09 -0.41,0.18 -0.46,0.18 -0.04,0.00 -0.18,0.09 -0.30,0.20 -0.29,0.27 -0.27,0.59 0.04,0.79 0.14,0.09 0.43,0.34 0.64,0.57 0.32,0.34 0.38,0.45 0.34,0.70 -0.03,0.21 0.01,0.35 0.17,0.53 0.33,0.36 1.35,0.74 2.00,0.74 l 0.29,9.25e-4 -0.03,0.80 c -0.01,0.44 -0.06,0.84 -0.09,0.90 -0.03,0.05 -0.02,0.12 0.02,0.13 0.04,0.01 0.07,0.19 0.05,0.39 -0.01,0.19 0.01,0.39 0.06,0.42 0.05,0.03 0.10,0.25 0.10,0.47 0,0.22 0.04,0.41 0.09,0.41 0.05,0 0.09,-0.03 0.09,-0.07 0,-0.03 0.33,-0.34 0.74,-0.66 0.41,-0.32 0.83,-0.69 0.95,-0.81 0.15,-0.16 0.30,-0.21 0.63,-0.21 0.40,0 0.51,0.06 1.55,0.86 1.77,1.36 1.73,1.32 1.66,1.50 -0.04,0.12 -0.22,0.02 -0.96,-0.55 -0.49,-0.38 -1.05,-0.82 -1.25,-0.95 -0.19,-0.13 -0.33,-0.29 -0.30,-0.35 0.05,-0.16 -0.16,-0.31 -0.53,-0.35 -0.26,-0.03 -0.38,0.01 -0.68,0.27 -1.24,1.06 -1.84,1.55 -1.92,1.55 -0.04,0 -0.08,0.15 -0.08,0.33 0,0.30 0.01,0.33 0.21,0.27 0.64,-0.19 0.63,-0.20 0.63,0.30 0,0.25 0.10,0.83 0.23,1.27 0.12,0.44 0.23,0.89 0.23,0.99 0,0.10 0.05,0.18 0.13,0.18 0.07,0 0.16,0.12 0.19,0.27 0.08,0.36 0.21,0.43 0.28,0.15 0.08,-0.35 0.01,-0.57 -0.18,-0.54 -0.15,0.02 -0.16,-0.01 -0.12,-0.35 0.04,-0.31 0.02,-0.37 -0.08,-0.33 -0.15,0.05 -0.17,-0.19 -0.04,-0.40 0.12,-0.19 0.01,-0.31 -0.15,-0.17 -0.12,0.10 -0.13,0.09 -0.08,-0.12 0.03,-0.13 0.08,-0.31 0.11,-0.39 0.04,-0.11 0.01,-0.13 -0.09,-0.09 -0.18,0.06 -0.19,-0.06 -0.03,-0.49 0.09,-0.25 0.09,-0.33 -0.00,-0.38 -0.08,-0.05 -0.09,-0.13 -0.02,-0.29 0.11,-0.27 0.36,-0.60 0.41,-0.54 0.01,0.02 0.10,0.43 0.19,0.92 0.20,1.13 0.71,2.55 0.86,2.39 0.02,-0.02 0.01,-0.10 -0.04,-0.17 -0.05,-0.06 -0.16,-0.32 -0.24,-0.58 -0.12,-0.39 -0.13,-0.53 -0.03,-0.90 0.11,-0.44 0.25,-0.68 0.24,-0.44 -2.9e-4,0.07 -0.04,0.27 -0.08,0.46 -0.05,0.18 -0.05,0.46 -0.00,0.65 l 0.07,0.32 0.01,-0.42 c 0.00,-0.23 0.05,-0.50 0.10,-0.60 0.06,-0.13 0.07,-0.06 0.04,0.25 -0.04,0.46 0.03,1.32 0.11,1.24 0.02,-0.02 0.04,-0.33 0.03,-0.68 -0.00,-0.57 -0.00,-0.60 0.08,-0.30 0.17,0.58 0.20,0.62 0.24,0.39 0.03,-0.20 0.21,-0.30 0.21,-0.12 0,0.18 -0.48,1.03 -0.63,1.12 -0.08,0.04 -0.12,0.11 -0.09,0.15 0.03,0.03 0.16,9.25e-4 0.29,-0.08 0.26,-0.17 0.60,-1.03 0.90,-2.34 l 0.21,-0.92 0.27,0.30 c 0.25,0.28 0.26,0.33 0.21,0.83 -0.08,0.75 -0.22,1.33 -0.37,1.56 -0.06,0.10 -0.18,0.38 -0.25,0.60 -0.14,0.46 -1.04,1.49 -1.32,1.49 -0.09,0 -0.21,-0.11 -0.26,-0.25 -0.05,-0.14 -0.14,-0.36 -0.19,-0.48 -0.07,-0.18 -0.10,-0.20 -0.17,-0.09 -0.04,0.07 -0.08,0.20 -0.08,0.28 -0.00,0.20 0.52,0.84 0.82,1.01 0.61,0.33 1.99,0.26 2.58,-0.12 0.31,-0.20 0.69,-0.81 0.94,-1.50 0.18,-0.51 0.21,-0.55 0.44,-0.53 0.19,0.02 0.29,-0.03 0.43,-0.28 0.10,-0.16 0.19,-0.34 0.21,-0.38 0.01,-0.04 0.15,-0.01 0.30,0.06 0.23,0.11 2.34,0.26 3.70,0.25 0.08,0 0.43,-0.13 0.79,-0.29 1.15,-0.53 2.37,-0.67 2.66,-0.32 0.06,0.07 0.12,0.40 0.13,0.72 0.01,0.32 0.06,0.81 0.12,1.09 0.05,0.28 0.12,0.66 0.15,0.84 0.03,0.18 0.16,0.43 0.28,0.55 l 0.22,0.23 0,-0.62 c 0,-0.34 -0.04,-0.65 -0.09,-0.68 -0.05,-0.03 -0.09,0.04 -0.09,0.17 0,0.12 -0.03,0.25 -0.08,0.28 -0.05,0.03 -0.06,-0.30 -0.03,-0.83 0.03,-0.63 0.02,-0.89 -0.05,-0.89 -0.05,0 -0.10,0.04 -0.10,0.10 0,0.06 -0.03,0.07 -0.06,0.04 -0.03,-0.03 -0.05,-0.36 -0.03,-0.72 0.02,-0.50 0.00,-0.64 -0.09,-0.62 -0.06,0.01 -0.11,-0.01 -0.11,-0.06 0.10,-0.80 0.12,-1.17 0.06,-1.17 -0.12,0 -0.14,-2.03 -0.02,-2.10 0.05,-0.03 0.12,-0.03 0.15,-0.01 0.02,0.02 0.08,0.70 0.12,1.50 0.07,1.44 0.24,2.60 0.52,3.63 0.11,0.41 0.18,0.53 0.32,0.53 0.25,0 0.43,-0.59 0.62,-2.05 0.08,-0.65 0.07,-5.50 -0.01,-6.14 -0.06,-0.45 -0.05,-0.48 0.12,-0.43 0.15,0.04 0.18,0.00 0.18,-0.19 0,-0.13 0.04,-0.24 0.09,-0.24 0.08,0 0.06,0.25 -0.05,0.63 -0.01,0.06 0.02,0.11 0.10,0.11 0.08,0 0.11,0.04 0.07,0.11 -0.03,0.06 -0.08,0.29 -0.09,0.51 -0.01,0.31 0.01,0.42 0.15,0.49 0.25,0.13 0.23,0.14 0.75,-0.37 0.30,-0.30 0.46,-0.54 0.46,-0.69 0,-0.36 -0.15,-0.36 -0.54,-0.00 -0.20,0.18 -0.39,0.33 -0.42,0.33 -0.03,0 -0.05,-0.18 -0.05,-0.40 0,-0.37 0.03,-0.43 0.46,-0.79 0.38,-0.32 0.52,-0.38 0.86,-0.38 0.47,0.00 0.49,0.01 0.97,0.55 0.33,0.37 0.37,0.46 0.41,1.05 0.02,0.35 0.01,0.64 -0.01,0.64 -0.03,0 -0.15,-0.14 -0.26,-0.33 -0.16,-0.26 -0.23,-0.30 -0.33,-0.22 -0.13,0.11 -0.18,0.55 -0.05,0.55 0.16,0 0.65,1.00 0.70,1.42 0.02,0.24 0.01,0.44 -0.02,0.44 -0.04,0 -0.18,-0.12 -0.31,-0.28 -0.13,-0.15 -0.28,-0.26 -0.33,-0.22 -0.18,0.11 -0.09,0.44 0.24,0.90 0.26,0.35 0.35,0.57 0.38,0.94 l 0.03,0.48 -0.19,-0.22 c -0.10,-0.12 -0.23,-0.29 -0.28,-0.37 -0.07,-0.13 -0.09,-0.13 -0.18,-0.00 -0.15,0.23 -0.10,0.54 0.15,0.95 0.19,0.30 0.26,0.52 0.29,1.02 0.02,0.38 -6.53e-4,0.64 -0.05,0.64 -0.12,0 -0.33,-0.53 -0.35,-0.89 -0.00,-0.16 -0.04,-0.34 -0.08,-0.40 -0.09,-0.14 -0.27,-0.14 -0.18,0.00 0.03,0.06 0.03,0.08 -0.01,0.04 -0.04,-0.03 -0.09,-0.16 -0.11,-0.27 -0.02,-0.19 -0.17,-0.34 -0.33,-0.35 -0.13,-0.00 -0.06,0.18 0.10,0.29 0.14,0.08 0.15,0.14 0.07,0.32 -0.05,0.12 -0.15,0.20 -0.21,0.17 -0.06,-0.02 -0.11,-0.00 -0.11,0.04 0,0.05 -0.16,0.24 -0.37,0.42 -0.20,0.18 -0.37,0.39 -0.37,0.46 0,0.06 -0.05,0.15 -0.12,0.19 -0.06,0.04 -0.21,0.20 -0.34,0.35 l -0.22,0.28 0.05,-0.51 c 0.05,-0.46 0.10,-0.55 0.62,-1.07 0.45,-0.45 0.56,-0.62 0.56,-0.87 0,-0.16 -0.03,-0.30 -0.06,-0.30 -0.03,0 -0.29,0.22 -0.57,0.49 l -0.50,0.49 0.06,-0.32 c 0.03,-0.18 0.08,-0.40 0.10,-0.50 0.02,-0.09 0.24,-0.38 0.50,-0.64 0.34,-0.34 0.47,-0.54 0.47,-0.73 0,-0.36 -0.15,-0.33 -0.62,0.12 l -0.40,0.39 0,-0.34 c 0,-0.27 0.10,-0.46 0.51,-0.97 0.41,-0.51 0.50,-0.68 0.46,-0.87 -0.03,-0.12 -0.07,-0.25 -0.09,-0.27 -0.02,-0.02 -0.22,0.14 -0.46,0.37 l -0.41,0.41 -0.00,-0.46 c -0.00,-0.40 -0.01,-0.43 -0.11,-0.27 -0.16,0.27 -0.18,0.60 -0.15,2.01 0.02,0.91 -0.13,3.32 -0.23,3.74 -0.07,0.28 -0.18,0.80 -0.24,1.16 -0.06,0.36 -0.20,0.93 -0.32,1.27 -0.12,0.34 -0.19,0.72 -0.17,0.84 0.03,0.18 0.01,0.16 -0.09,-0.05 -0.07,-0.15 -0.13,-0.38 -0.14,-0.51 -0.00,-0.12 -0.04,-0.29 -0.09,-0.37 -0.06,-0.10 -0.09,-0.07 -0.09,0.14 -0.00,0.21 -0.02,0.24 -0.08,0.14 -0.17,-0.26 -0.19,-0.01 -0.04,0.38 0.20,0.53 0.25,0.57 0.71,0.70 l 1.87e-4,0 c 0.21,0.05 0.75,0.11 1.19,0.11 0.70,0.00 0.83,-0.01 1.13,-0.22 0.35,-0.23 0.72,-0.96 0.59,-1.16 -0.03,-0.05 0.02,-0.24 0.12,-0.41 0.21,-0.35 0.47,-1.34 0.47,-1.84 7.62e-4,-0.18 0.05,-0.38 0.11,-0.44 0.07,-0.07 0.11,-0.44 0.12,-1.02 0.00,-0.50 0.03,-0.97 0.06,-1.05 0.12,-0.31 0.15,-1.04 0.05,-1.27 -0.08,-0.18 -0.08,-0.28 0.00,-0.42 0.13,-0.21 0.14,-1.04 0.02,-1.48 -0.06,-0.21 -0.05,-0.35 0.00,-0.43 0.05,-0.06 0.08,-0.42 0.06,-0.84 l -0.03,-0.72 0.37,-0.07 c 0.20,-0.04 0.46,-0.05 0.57,-0.02 0.28,0.07 0.93,0.75 1.26,1.33 0.30,0.53 0.41,0.65 0.67,0.69 0.11,0.02 0.23,0.18 0.32,0.45 0.20,0.59 0.24,0.63 0.83,0.89 0.40,0.17 0.56,0.21 0.68,0.13 0.12,-0.07 0.18,-0.06 0.24,0.05 0.06,0.11 0.23,0.14 0.79,0.13 1.38,-0.02 1.75,-0.33 1.17,-0.99 -0.31,-0.35 -0.81,-0.62 -1.38,-0.73 -0.51,-0.09 -1.09,-0.48 -1.17,-0.77 -0.03,-0.13 -0.30,-0.48 -0.60,-0.77 -0.29,-0.28 -0.65,-0.73 -0.80,-0.99 -0.14,-0.25 -0.34,-0.59 -0.45,-0.74 l -0.18,-0.27 0.21,-0.83 c 0.11,-0.45 0.19,-0.84 0.17,-0.85 -0.01,-0.01 -0.26,-0.13 -0.55,-0.26 -0.28,-0.13 -0.68,-0.43 -0.88,-0.65 -0.44,-0.49 -0.90,-0.82 -1.13,-0.81 -0.15,0.00 -0.15,0.01 0.01,0.08 0.16,0.07 0.16,0.08 -0.06,0.08 -0.15,0.00 -0.36,-0.10 -0.55,-0.27 -0.44,-0.40 -0.44,-0.26 0.00,0.24 0.43,0.49 0.48,0.64 0.17,0.54 -0.30,-0.09 -0.41,-0.20 -0.48,-0.48 -0.03,-0.13 -0.20,-0.56 -0.38,-0.94 -0.17,-0.38 -0.32,-0.72 -0.32,-0.75 0,-0.03 0.11,-0.12 0.24,-0.19 0.13,-0.07 0.35,-0.29 0.47,-0.49 0.67,-1.07 0.67,-2.17 -0.01,-3.07 -0.17,-0.23 -0.29,-0.44 -0.26,-0.48 0.03,-0.03 0.55,-0.05 1.17,-0.05 1.26,0 1.26,0.00 1.91,-1.00 0.27,-0.43 0.35,-0.49 0.63,-0.49 0.17,0 0.45,-0.05 0.61,-0.12 0.22,-0.09 0.37,-0.10 0.55,-0.03 0.21,0.08 0.32,0.05 0.71,-0.18 0.51,-0.31 0.52,-0.40 0.16,-1.03 -0.27,-0.47 -0.43,-0.52 -0.30,-0.09 0.10,0.37 0.10,0.44 0.00,0.44 -0.04,0 -0.12,-0.17 -0.18,-0.39 l -0.10,-0.39 0.03,0.35 c 0.04,0.44 -0.09,0.45 -0.27,0.01 -0.16,-0.38 -0.12,-0.50 0.16,-0.50 0.14,0 0.17,-0.02 0.09,-0.10 -0.07,-0.07 -0.17,-0.06 -0.36,0.03 -0.14,0.07 -0.42,0.20 -0.61,0.28 -0.19,0.08 -0.35,0.19 -0.35,0.24 0,0.05 -0.05,0.07 -0.12,0.04 -0.07,-0.02 -0.15,0.01 -0.17,0.08 -0.02,0.07 -0.16,0.13 -0.30,0.13 -0.30,0 -0.46,0.21 -0.49,0.65 -0.01,0.13 -0.04,0.12 -0.19,-0.06 -0.14,-0.18 -0.26,-0.23 -0.59,-0.23 -0.23,-0.00 -0.40,-0.02 -0.38,-0.04 0.02,-0.02 -0.26,-0.13 -0.62,-0.25 -0.36,-0.11 -0.71,-0.25 -0.76,-0.31 -0.17,-0.17 -0.39,-0.10 -0.74,0.22 -0.35,0.34 -0.45,0.34 -1.16,0.02 -0.14,-0.06 -0.24,-0.06 -0.34,0.02 -0.07,0.06 -0.25,0.10 -0.39,0.08 -0.20,-0.02 -0.34,-0.18 -0.75,-0.85 -0.27,-0.45 -0.50,-0.87 -0.50,-0.94 0,-0.06 -0.12,-0.37 -0.28,-0.69 -0.23,-0.46 -0.40,-0.65 -0.89,-1.00 -0.42,-0.29 -0.64,-0.40 -0.70,-0.33 -0.06,0.06 0.02,0.15 0.27,0.28 0.44,0.22 0.81,0.63 0.95,1.07 0.10,0.30 0.97,2.06 1.22,2.46 0.09,0.15 0.15,0.17 0.24,0.10 0.08,-0.06 0.12,-0.06 0.12,-0.00 0,0.05 -0.14,0.18 -0.32,0.29 -0.18,0.11 -0.38,0.28 -0.45,0.39 -0.12,0.18 -0.13,0.17 -0.28,-0.13 -0.08,-0.17 -0.36,-0.58 -0.61,-0.89 -0.42,-0.52 -0.46,-0.62 -0.48,-1.12 -0.01,-0.33 -0.06,-0.53 -0.12,-0.51 -0.05,0.02 -0.16,-0.11 -0.25,-0.29 -0.18,-0.39 -0.53,-1.39 -0.53,-1.54 0,-0.05 -0.06,-0.25 -0.15,-0.42 -0.20,-0.42 -0.06,-0.74 0.41,-0.93 0.19,-0.07 0.48,-0.24 0.64,-0.36 0.16,-0.12 0.33,-0.22 0.37,-0.22 0.04,0 0.17,-0.15 0.30,-0.33 0.28,-0.41 1.39,-1.44 1.56,-1.44 0.15,0 1.06,-0.85 1.06,-1.00 0,-0.14 -0.10,-0.14 -0.33,0.01 -0.10,0.07 -0.27,0.15 -0.37,0.18 -0.17,0.05 -0.19,0.02 -0.15,-0.41 0.03,-0.50 -0.09,-0.78 -0.32,-0.70 -0.07,0.02 -0.21,-0.03 -0.31,-0.13 -0.10,-0.10 -0.24,-0.18 -0.32,-0.18 -0.07,0 -0.14,-0.06 -0.14,-0.14 0,-0.07 -0.12,-0.28 -0.28,-0.45 -0.24,-0.27 -0.32,-0.30 -0.69,-0.27 l -0.41,0.03 -0.06,-0.42 c -0.07,-0.51 -0.21,-0.55 -0.25,-0.07 -0.02,0.33 -0.04,0.35 -0.41,0.37 -0.49,0.03 -0.57,-0.13 -0.25,-0.59 0.20,-0.30 0.22,-0.37 0.12,-0.61 -0.13,-0.33 -0.33,-0.44 -0.66,-0.38 -0.18,0.03 -0.24,0.09 -0.23,0.23 0.01,0.13 -0.05,0.21 -0.24,0.26 -0.14,0.04 -0.34,0.14 -0.43,0.22 -0.15,0.13 -0.17,0.13 -0.25,0.00 -0.12,-0.22 -0.14,0.78 -0.01,1.09 0.13,0.32 0.25,0.33 0.19,0.02 -0.06,-0.32 0.14,-0.77 0.38,-0.85 0.17,-0.05 0.17,-0.07 0.04,-0.12 -0.11,-0.04 -0.06,-0.09 0.21,-0.21 0.30,-0.12 0.35,-0.13 0.26,-0.02 -0.06,0.07 -0.16,0.13 -0.21,0.13 -0.05,3.7e-5 -0.11,0.10 -0.11,0.23 -0.01,0.26 0.07,0.29 0.24,0.09 0.17,-0.21 0.31,-0.16 0.15,0.05 -0.07,0.10 -0.11,0.27 -0.08,0.38 0.04,0.17 0.02,0.18 -0.33,0.12 -0.36,-0.06 -0.38,-0.05 -0.38,0.15 0,0.40 0.20,0.57 0.64,0.51 0.29,-0.04 0.38,-0.02 0.38,0.08 0,0.23 -0.28,0.25 -0.71,0.05 -0.40,-0.19 -0.58,-0.12 -0.22,0.10 0.22,0.13 0.25,0.30 0.04,0.22 -0.08,-0.03 -0.29,0.00 -0.48,0.08 -0.37,0.15 -0.58,0.12 -0.58,-0.08 0,-0.07 -0.09,-0.15 -0.21,-0.16 -0.36,-0.05 -0.13,-0.21 0.28,-0.20 0.34,0.01 0.39,-0.00 0.33,-0.14 -0.03,-0.08 -0.07,-0.30 -0.08,-0.48 -0.04,-0.99 -0.06,-1.08 -0.14,-0.88 -0.05,0.12 -0.08,0.14 -0.08,0.04 -0.00,-0.07 -0.03,-0.30 -0.06,-0.51 -0.05,-0.35 -0.04,-0.36 0.09,-0.18 0.14,0.18 0.21,0.09 0.07,-0.11 -0.11,-0.17 -0.74,-0.22 -0.80,-0.06 -0.02,0.07 0.00,0.13 0.08,0.13 0.25,0 0.34,0.34 0.22,0.88 -0.09,0.43 -0.09,0.53 0.04,0.74 0.08,0.12 0.15,0.25 0.15,0.28 0,0.11 -0.32,0.04 -0.48,-0.10 -0.19,-0.17 -0.21,-0.43 -0.06,-0.86 0.06,-0.19 0.07,-0.33 0.01,-0.39 -0.11,-0.11 -0.68,1.12 -0.68,1.50 0,0.15 0.06,0.33 0.13,0.40 0.10,0.10 0.11,0.19 0.03,0.41 -0.12,0.33 0.03,0.81 0.31,0.96 0.12,0.06 0.15,0.15 0.11,0.36 -0.04,0.22 0.01,0.35 0.34,0.74 0.33,0.39 0.45,0.47 0.70,0.47 0.16,0 0.33,0.04 0.36,0.10 0.06,0.10 -0.48,0.63 -0.67,0.64 -0.05,0.00 -0.26,-0.21 -0.46,-0.48 -0.19,-0.27 -0.56,-0.70 -0.83,-0.96 -0.37,-0.36 -0.51,-0.60 -0.65,-1.02 -0.32,-1.05 -0.87,-2.45 -1.05,-2.67 -0.10,-0.12 -0.08,-0.23 0.11,-0.68 0.12,-0.29 0.23,-0.59 0.23,-0.67 0,-0.07 0.03,-0.11 0.08,-0.08 0.10,0.06 0.24,-0.23 0.75,-1.58 0.21,-0.56 0.55,-1.33 0.75,-1.70 0.20,-0.37 0.36,-0.73 0.36,-0.80 0,-0.07 0.08,-0.21 0.19,-0.30 0.28,-0.25 0.45,-0.63 0.45,-1.00 0,-0.21 0.08,-0.42 0.24,-0.61 0.27,-0.32 0.26,-0.61 -0.00,-0.61 -0.11,0 -0.26,0.13 -0.40,0.39 -0.23,0.41 -0.36,0.49 -0.45,0.25 -0.11,-0.29 0.07,-0.60 0.67,-1.07 0.45,-0.36 0.59,-0.51 0.51,-0.59 -0.07,-0.07 -0.15,-0.07 -0.28,0.00 -0.24,0.15 -0.31,0.14 -0.24,-0.02 0.02,-0.07 0.00,-0.14 -0.04,-0.14 -0.05,0 -0.07,-0.06 -0.04,-0.14 0.09,-0.23 -0.08,-0.15 -0.29,0.14 -0.27,0.37 -0.36,0.35 -0.31,-0.05 0.02,-0.21 -0.00,-0.36 -0.08,-0.41 -0.04,-0.02 -0.08,-0.04 -0.11,-0.04 l -1.87e-4,-1.87e-4 z m -0.85,1.59 0.15,0.32 c 0.29,0.63 0.43,1.08 0.50,1.61 0.03,0.29 0.10,0.53 0.14,0.53 0.16,0 0.07,0.37 -0.21,0.86 -0.16,0.27 -0.40,0.76 -0.53,1.09 -0.13,0.33 -0.29,0.61 -0.36,0.63 -0.16,0.05 -0.14,-0.21 0.02,-0.35 0.07,-0.06 0.14,-0.19 0.14,-0.28 0,-0.21 0.37,-0.94 0.53,-1.04 0.06,-0.04 0.12,-0.13 0.12,-0.21 0,-0.07 0.05,-0.13 0.11,-0.13 0.07,-0.00 0.05,-0.05 -0.04,-0.12 -0.15,-0.11 -0.15,-0.12 0.04,-0.18 l 0.21,-0.05 -0.20,-0.19 c -0.11,-0.10 -0.20,-0.28 -0.20,-0.38 0,-0.10 -0.10,-0.50 -0.24,-0.88 -0.13,-0.38 -0.22,-0.81 -0.20,-0.95 l 0.03,-0.25 z m 1.62,0.97 -0.05,0.35 c -0.06,0.46 -0.14,0.53 -0.27,0.27 -0.08,-0.18 -0.06,-0.24 0.11,-0.42 l 0.21,-0.20 z m -3.83,0.90 0,0.13 c 0.00,-0.02 0.00,-0.04 0.00,-0.06 0,-0.02 -0.00,-0.04 -0.00,-0.06 z m 2.26,0.70 c 0.00,-0.00 0.01,-9.83e-4 0.02,5.44e-4 0.03,0.00 0.02,0.04 0.00,0.10 -0.02,0.06 -0.18,0.17 -0.34,0.24 -0.16,0.07 -0.55,0.25 -0.85,0.39 -1.17,0.56 -0.62,0.12 0.65,-0.52 0.29,-0.14 0.45,-0.22 0.52,-0.22 z m -0.65,0.73 c 0.16,0 0.07,0.16 -0.15,0.26 -0.13,0.05 -0.26,0.10 -0.30,0.10 -0.09,-0.00 0.35,-0.37 0.45,-0.37 z M 19.74,6.42 c 0.00,7.45e-5 0.00,0.00 0.00,0.00 0.04,0.04 -0.33,0.42 -0.42,0.42 -0.03,0 -0.15,0.09 -0.25,0.21 -0.10,0.11 -0.38,0.36 -0.62,0.56 -0.24,0.19 -0.45,0.34 -0.46,0.34 -0.25,-0.06 -0.23,-0.14 0.11,-0.44 0.41,-0.35 1.53,-1.09 1.64,-1.09 z m 0.52,0.33 c 0.04,0 0.01,0.08 -0.07,0.18 -0.12,0.13 -0.13,0.18 -0.04,0.18 0.07,0 -0.05,0.18 -0.26,0.40 -0.21,0.22 -0.36,0.43 -0.32,0.47 0.03,0.03 0.07,0.14 0.07,0.22 8.16e-4,0.10 0.06,0.15 0.21,0.13 0.11,-0.01 0.21,0.01 0.21,0.07 0,0.05 -0.06,0.09 -0.14,0.09 -0.07,0 -0.14,0.04 -0.14,0.09 0,0.05 0.08,0.09 0.18,0.09 0.10,0 0.18,0.04 0.18,0.09 0,0.13 -0.18,0.09 -0.65,-0.13 C 19.25,8.55 18.91,8.39 18.73,8.31 l -0.32,-0.14 0.28,-0.00 c 0.43,-0.01 0.69,-0.10 0.64,-0.23 -0.02,-0.06 0.06,-0.20 0.19,-0.30 0.13,-0.10 0.23,-0.25 0.23,-0.33 0,-0.15 0.35,-0.52 0.50,-0.52 z m -0.65,2.18 c 0.08,0.00 0.17,0.03 0.30,0.10 0.17,0.09 0.39,0.25 0.47,0.34 0.15,0.16 0.14,0.21 -0.05,0.84 l -0.21,0.66 0.24,0.61 c 0.52,1.33 1.06,2.78 1.17,3.12 0.10,0.31 0.28,0.48 0.28,0.25 0,-0.18 0.14,-0.08 0.36,0.23 0.12,0.17 0.31,0.42 0.42,0.54 0.11,0.12 0.29,0.33 0.40,0.47 l 0.20,0.25 -0.70,0.83 c -0.38,0.45 -0.74,0.83 -0.78,0.83 -0.04,0 -0.30,0.26 -0.57,0.59 -0.27,0.32 -0.54,0.67 -0.60,0.77 -0.16,0.25 -0.14,0.08 0.05,-0.65 0.31,-1.14 0.30,-1.77 -0.01,-2.68 -0.65,-1.81 -1.50,-4.41 -1.61,-4.92 -0.05,-0.25 -0.03,-0.29 0.08,-0.24 0.19,0.07 0.19,-0.13 -0.00,-0.35 -0.12,-0.13 -0.13,-0.22 -0.05,-0.42 0.05,-0.14 0.14,-0.43 0.21,-0.65 0.11,-0.39 0.22,-0.55 0.40,-0.55 z m 6.40,2.51 c 0.04,0.00 0.08,0.01 0.11,0.02 0.13,0.08 -0.01,0.32 -0.20,0.32 -0.09,0 -0.17,0.04 -0.17,0.09 0,0.09 -0.21,0.12 -0.30,0.04 -0.02,-0.02 -0.03,-0.12 -0.00,-0.22 0.03,-0.13 0.36,-0.27 0.56,-0.26 z m 0.83,0.13 c 0.05,9.25e-4 0.11,0.00 0.20,0.01 0.20,0.01 0.43,0.10 0.49,0.18 0.10,0.12 0.09,0.13 -0.10,0.07 -0.15,-0.04 -0.20,-0.03 -0.15,0.03 0.03,0.05 0.12,0.10 0.19,0.10 0.08,0 0.13,0.09 0.13,0.28 0,0.22 -0.04,0.28 -0.19,0.28 -0.15,0 -0.17,-0.02 -0.09,-0.18 0.11,-0.20 -0.04,-0.37 -0.20,-0.21 -0.06,0.06 -0.06,0.18 0.00,0.38 0.09,0.26 0.04,0.37 -0.10,0.22 -0.10,-0.10 -0.06,-0.64 0.05,-0.78 0.06,-0.07 0.02,-0.05 -0.09,0.04 -0.16,0.13 -0.21,0.14 -0.21,0.04 -7.61e-4,-0.07 -0.02,-0.21 -0.05,-0.32 -0.03,-0.12 -0.02,-0.16 0.12,-0.16 z m 1.12,0.87 c 0.15,-9.25e-4 0.33,0.07 0.39,0.19 0.05,0.10 0.08,0.26 0.06,0.35 -0.02,0.08 -0.04,0.11 -0.05,0.05 -0.01,-0.14 -0.37,-0.22 -0.44,-0.10 -0.03,0.05 -0.09,0.01 -0.14,-0.11 -0.04,-0.11 -0.05,-0.24 -0.02,-0.29 0.03,-0.05 0.11,-0.08 0.20,-0.08 z m -3.07,0.00 c 0.08,-0.00 0.20,0.03 0.23,0.09 0.03,0.05 0.02,0.15 -0.02,0.23 -0.06,0.11 -0.09,0.10 -0.19,-0.04 -0.06,-0.10 -0.11,-0.20 -0.11,-0.23 0,-0.03 0.03,-0.04 0.08,-0.04 z m -2.36,0.18 c 0.05,0 0.14,0.06 0.20,0.13 l -1.87e-4,0 c 0.06,0.07 0.09,0.23 0.07,0.35 -0.02,0.11 -0.05,0.17 -0.06,0.12 -0.01,-0.05 -0.01,-0.13 -0.00,-0.17 0.00,-0.04 -0.05,-0.16 -0.14,-0.25 -0.08,-0.09 -0.11,-0.17 -0.06,-0.17 z m 6.25,0.13 c 0.03,0.00 0.08,0.03 0.13,0.09 0.08,0.09 0.08,0.18 0.00,0.32 -0.14,0.27 -0.28,0.23 -0.28,-0.08 0,-0.22 0.05,-0.34 0.14,-0.33 z m -4.58,0.20 0,0 c 0.23,0.00 0.35,0.19 0.34,0.55 -0.00,0.30 0.00,0.32 0.07,0.15 0.11,-0.28 0.14,-0.26 0.15,0.10 0.01,0.42 0.26,0.89 0.52,0.94 0.11,0.02 0.41,0.06 0.67,0.09 0.25,0.03 0.49,0.07 0.53,0.10 0.12,0.07 0.08,0.28 -0.06,0.40 -0.07,0.06 -0.11,0.15 -0.08,0.20 0.03,0.04 0.11,0.01 0.18,-0.08 0.11,-0.14 0.12,-0.14 0.13,-0.01 0.00,0.08 0.09,0.26 0.20,0.40 l 0.20,0.25 -0.22,0.16 c -0.12,0.09 -0.42,0.23 -0.68,0.31 -0.67,0.21 -0.80,0.19 -1.22,-0.26 l -0.38,-0.41 0.04,-0.78 0.04,-0.78 -0.33,0.01 c -0.20,0.01 -0.41,0.09 -0.54,0.22 -0.15,0.15 -0.22,0.18 -0.28,0.09 -0.03,-0.06 -0.11,-0.09 -0.16,-0.05 -0.15,0.09 -0.40,-0.04 -0.49,-0.28 -0.12,-0.32 -0.01,-0.42 0.19,-0.20 0.21,0.21 0.37,0.23 0.53,0.07 0.08,-0.08 0.11,-0.08 0.11,0.00 0,0.06 -0.09,0.15 -0.21,0.20 -0.17,0.07 -0.18,0.08 -0.02,0.06 0.10,-0.01 0.23,-0.12 0.29,-0.25 0.06,-0.12 0.21,-0.28 0.32,-0.34 0.11,-0.06 0.17,-0.12 0.12,-0.12 -0.04,-0.00 -0.00,-0.06 0.09,-0.14 0.17,-0.13 0.16,-0.14 -0.14,-0.13 -0.42,0.00 -0.72,-0.04 -0.80,-0.12 -0.03,-0.03 0.02,-0.06 0.13,-0.06 0.11,0 0.20,-0.03 0.20,-0.08 0,-0.04 0.12,-0.12 0.27,-0.17 0.07,-0.02 0.14,-0.04 0.20,-0.04 0.01,-0.00 0.03,-0.00 0.04,-9.26e-4 z m 2.98,0.02 c 0.08,0 0.14,0.04 0.14,0.09 0,0.05 -0.03,0.09 -0.08,0.09 -0.04,0 -0.11,-0.04 -0.14,-0.09 -0.03,-0.05 0.00,-0.09 0.08,-0.09 z m 1.31,0.24 c 0.01,-0.00 0.03,0.00 0.05,0.03 0.03,0.06 0.05,0.17 0.02,0.24 -0.08,0.22 -0.19,0.13 -0.14,-0.11 0.01,-0.10 0.04,-0.15 0.06,-0.16 z m -1.17,0.01 c 0.04,0.00 0.09,0.05 0.12,0.15 0.02,0.07 0.13,0.14 0.24,0.14 0.28,0 0.26,0.42 -0.02,0.49 -0.11,0.02 -0.29,0.07 -0.39,0.10 -0.17,0.05 -0.18,0.02 -0.15,-0.41 0.02,-0.29 0.09,-0.47 0.18,-0.48 0.00,-0.00 0.01,-0.00 0.01,-0.00 z m 0.68,0.12 c 0.01,-0.00 0.05,0.03 0.11,0.11 0.07,0.09 0.13,0.21 0.13,0.25 0,0.04 -0.06,0.07 -0.14,0.07 -0.09,0 -0.13,-0.08 -0.13,-0.25 0.00,-0.12 0.00,-0.18 0.02,-0.19 z m -2.62,0.22 c 0.03,0.00 0.07,0.08 0.09,0.22 0.02,0.16 0.01,0.31 -0.02,0.33 -0.10,0.06 -0.20,-0.44 -0.10,-0.53 0.01,-0.01 0.02,-0.01 0.03,-0.01 z m 3.32,0.09 c 0.05,-0.00 0.08,0.01 0.06,0.04 -0.02,0.04 -0.11,0.08 -0.18,0.08 -0.19,0 -0.16,-0.06 0.05,-0.12 0.02,-0.00 0.04,-0.01 0.06,-0.01 z m -2.46,0.50 c 0.08,0 0.14,0.04 0.14,0.09 0,0.05 -0.03,0.09 -0.08,0.09 -0.04,0 -0.11,-0.04 -0.14,-0.09 -0.03,-0.05 0.00,-0.09 0.08,-0.09 z m 0.85,0.65 c 0.02,0 0.04,0.04 0.04,0.09 0,0.05 -0.04,0.09 -0.09,0.09 -0.05,0 -0.07,-0.04 -0.04,-0.09 0.03,-0.05 0.07,-0.09 0.09,-0.09 z m -1.85,0.19 c -0.05,0.00 -0.04,0.05 0.01,0.16 0.05,0.09 0.06,0.26 0.03,0.37 -0.03,0.14 0.01,0.28 0.16,0.43 0.24,0.26 0.69,0.30 0.98,0.09 0.09,-0.07 0.16,-0.14 0.13,-0.16 -0.02,-0.01 -0.30,-0.23 -0.62,-0.47 -0.38,-0.29 -0.62,-0.44 -0.70,-0.43 z m 0.72,0.03 c -0.04,0.00 -0.05,0.05 -0.00,0.14 0.03,0.05 0.10,0.07 0.15,0.04 0.06,-0.03 0.05,-0.08 -0.02,-0.13 -0.05,-0.03 -0.10,-0.04 -0.13,-0.04 z m -0.34,0.43 c 0.06,0.00 0.16,0.07 0.30,0.22 0.15,0.16 0.17,0.23 0.08,0.23 -0.21,-0.00 -0.46,-0.18 -0.46,-0.32 0,-0.08 0.02,-0.12 0.07,-0.12 z m -1.32,0.01 0.19,0.43 c 0.10,0.23 0.24,0.59 0.29,0.80 0.05,0.20 0.16,0.45 0.23,0.55 0.07,0.09 0.13,0.31 0.14,0.46 0.00,0.21 0.02,0.25 0.09,0.14 0.06,-0.10 0.09,-0.02 0.09,0.28 0.00,0.23 0.05,0.65 0.12,0.93 0.11,0.47 0.10,0.53 -0.09,0.91 -0.28,0.52 -0.32,0.57 -1.16,1.29 -0.72,0.61 -0.88,0.71 -0.79,0.47 0.02,-0.07 0.09,-0.39 0.15,-0.72 0.05,-0.32 0.14,-0.66 0.18,-0.74 0.04,-0.08 0.04,-0.18 0.00,-0.23 -0.07,-0.08 -0.14,-0.71 -0.24,-2.24 -0.06,-0.98 0.02,-1.36 0.47,-1.95 l 0.29,-0.39 z m -2.43,0.13 c -0.03,0.01 -0.05,0.23 -0.05,0.67 0,0.43 0.03,0.74 0.07,0.67 0.10,-0.17 0.11,-1.16 0.01,-1.33 -0.01,-0.01 -0.02,-0.02 -0.03,-0.02 z m -0.91,0.48 c -0.10,0 -0.10,0.06 0.01,0.29 0.05,0.10 0.11,0.17 0.13,0.15 0.06,-0.06 -0.06,-0.44 -0.15,-0.44 z m 0.13,0.58 c -0.01,-0.00 -0.03,0.01 -0.03,0.04 0,0.05 0.02,0.12 0.06,0.15 0.03,0.03 0.08,0.04 0.11,0.01 0.02,-0.02 -0.00,-0.09 -0.06,-0.15 -0.03,-0.03 -0.06,-0.05 -0.08,-0.05 z m 3.44,0.62 c -0.05,-0.01 -0.07,0.11 -0.03,0.36 0.02,0.16 0.09,0.30 0.16,0.30 0.09,0 0.09,-0.08 0.01,-0.37 C 24.64,17.51 24.59,17.41 24.55,17.40 z m -2.14,0.48 c 0.05,0 0.03,0.07 -0.05,0.17 -0.33,0.36 -0.08,0.67 0.53,0.67 0.47,0 0.62,0.25 0.61,1.07 -0.00,0.75 -0.07,1.15 -0.19,0.97 -0.05,-0.09 -0.10,-0.09 -0.22,0.00 -0.17,0.14 -0.20,0.00 -0.03,-0.16 0.06,-0.06 0.07,-0.14 0.03,-0.18 -0.04,-0.03 -0.09,-0.01 -0.11,0.04 -0.02,0.06 -0.14,0.11 -0.26,0.11 -0.17,0 -0.24,-0.08 -0.34,-0.39 -0.07,-0.21 -0.18,-0.40 -0.25,-0.43 -0.08,-0.02 -0.10,0.01 -0.05,0.16 0.04,0.15 0.03,0.19 -0.06,0.16 -0.15,-0.05 -0.35,0.18 -0.35,0.41 -0.00,0.09 -0.04,0.16 -0.10,0.16 -0.06,0 -0.07,-0.12 -0.03,-0.38 0.06,-0.36 0.05,-0.38 -0.14,-0.31 -0.11,0.03 -0.19,0.03 -0.17,-0.01 0.02,-0.04 0.09,-0.20 0.16,-0.36 0.06,-0.15 0.16,-0.35 0.20,-0.44 0.12,-0.24 0.10,-0.28 -0.10,-0.23 -0.31,0.08 -0.21,-0.20 0.12,-0.34 0.17,-0.07 0.40,-0.26 0.52,-0.42 0.11,-0.16 0.25,-0.29 0.30,-0.29 z m 3.46,1.23 c 0.01,0.00 0.03,0.05 0.07,0.15 0.09,0.22 0.07,0.34 -0.03,0.22 -0.03,-0.03 -0.05,-0.15 -0.05,-0.25 0.00,-0.08 0.00,-0.13 0.01,-0.12 z m 0.27,0.65 c 0.02,0.00 0.05,0.02 0.11,0.07 0.07,0.06 0.14,0.15 0.14,0.19 0,0.13 -0.16,0.09 -0.22,-0.06 -0.05,-0.14 -0.06,-0.20 -0.03,-0.20 z m -0.51,0.13 0.17,0.27 c 0.21,0.33 0.53,0.61 0.58,0.49 0.07,-0.21 0.21,-0.06 0.15,0.17 -0.08,0.33 -0.27,0.53 -0.43,0.43 -0.18,-0.11 -0.47,-0.12 -0.68,-0.01 -0.10,0.05 -0.21,0.13 -0.23,0.17 -0.02,0.04 -0.04,-0.08 -0.04,-0.28 0.00,-0.20 0.05,-0.42 0.11,-0.49 0.06,-0.07 0.16,-0.27 0.24,-0.44 l 0.13,-0.31 z m -6.52,0.80 0,0 c 0.23,-0.00 0.54,0.02 0.70,0.06 l 0.28,0.07 -0.32,-0.00 c -0.18,-0.00 -0.49,-0.03 -0.70,-0.06 l -0.37,-0.06 0.42,-0.00 z m 2.06,0.43 c 0.04,0.00 0.05,0.15 0.01,0.45 -0.02,0.21 -0.08,0.39 -0.13,0.39 -0.04,0 -0.06,-0.04 -0.03,-0.09 0.03,-0.05 -0.05,-0.09 -0.20,-0.09 -0.25,-0.00 -0.25,-0.00 -0.05,-0.10 0.24,-0.11 0.28,-0.29 0.04,-0.22 -0.09,0.02 -0.45,0.07 -0.81,0.10 -1.23,0.11 -1.28,0.13 -1.22,0.43 0.06,0.31 0.01,0.34 -0.13,0.07 -0.11,-0.21 -0.04,-0.64 0.09,-0.64 0.05,0 0.09,0.04 0.09,0.09 0,0.04 0.05,0.07 0.11,0.04 0.06,-0.02 0.55,-0.08 1.09,-0.13 0.56,-0.05 1.00,-0.14 1.04,-0.21 0.03,-0.05 0.06,-0.08 0.08,-0.08 z m 0.75,0.10 c 0.22,0 0.81,0.39 1.78,1.18 l 0.71,0.58 0.34,-0.31 c 0.21,-0.19 0.47,-0.33 0.71,-0.37 0.25,-0.04 0.50,-0.18 0.79,-0.44 0.46,-0.42 0.48,-0.42 0.85,0.25 0.08,0.15 0.27,0.43 0.42,0.62 0.23,0.29 0.26,0.39 0.21,0.71 l -0.06,0.37 -0.60,0.06 c -0.33,0.03 -0.79,0.04 -1.03,0.01 -0.26,-0.02 -0.37,-0.01 -0.29,0.03 0.07,0.04 0.37,0.08 0.67,0.08 0.38,0.00 0.53,0.03 0.50,0.11 -0.02,0.06 -0.14,0.14 -0.26,0.17 -0.12,0.03 -0.41,0.06 -0.65,0.07 -0.50,0.01 -0.86,-0.20 -1.95,-1.15 -0.45,-0.39 -0.75,-0.59 -0.85,-0.56 -0.10,0.03 -0.14,-0.00 -0.14,-0.11 0.00,-0.08 -0.16,-0.29 -0.39,-0.47 -0.34,-0.26 -0.48,-0.31 -0.91,-0.31 -0.44,0 -0.50,-0.02 -0.50,-0.18 0,-0.19 0.31,-0.37 0.66,-0.37 z m 14.25,0.18 c 0.26,0 0.44,0.19 0.33,0.37 -0.06,0.10 -0.10,0.11 -0.23,0.00 -0.12,-0.10 -0.18,-0.09 -0.39,0.09 -0.22,0.21 -1.51,1.88 -1.69,2.19 -0.10,0.19 -0.58,0.27 -1.40,0.24 -0.60,-0.02 -0.67,-0.04 -0.67,-0.21 0,-0.16 0.06,-0.18 0.57,-0.18 0.31,0 0.54,-0.02 0.51,-0.06 -0.05,-0.05 0.60,-0.40 0.75,-0.40 0.13,0 -0.30,0.36 -0.47,0.40 -0.16,0.03 -0.16,0.04 0.04,0.05 0.19,0.01 0.34,-0.10 0.69,-0.52 1.21,-1.44 1.74,-1.98 1.95,-1.98 z M 31.86,21.94 c 0.02,-0.00 0.05,-9.25e-4 0.08,9.25e-4 0.19,0.01 0.48,0.07 0.63,0.16 0.12,0.07 0.12,0.08 0,0.06 -0.66,-0.06 -0.84,-0.09 -0.84,-0.18 0,-0.03 0.04,-0.04 0.12,-0.04 l 0,0 z m -1.97,0.07 c 0.08,0.00 0.08,0.06 0.08,0.19 0.00,0.15 0.02,0.17 0.05,0.04 0.04,-0.17 0.26,-0.22 0.35,-0.07 0.03,0.05 0.01,0.17 -0.04,0.28 -0.05,0.11 -0.06,0.18 -0.01,0.18 0.04,0 0.12,-0.10 0.16,-0.23 l 0.07,-0.23 0.29,0.20 c 0.65,0.46 0.93,1.31 0.65,1.94 l -0.14,0.32 0.01,-0.32 c 0.02,-0.37 -0.25,-0.52 -0.35,-0.20 -0.07,0.22 -0.50,0.38 -1.02,0.38 -0.49,9.26e-4 -1.03,0.15 -1.18,0.32 -0.08,0.10 -0.00,0.09 0.29,-0.04 0.56,-0.25 1.33,-0.24 1.80,0.02 1.19,0.67 1.43,2.35 0.48,3.31 -0.21,0.21 -0.37,0.44 -0.35,0.51 0.05,0.18 -0.33,-0.39 -0.45,-0.69 -0.13,-0.33 -0.24,-0.32 -0.31,0.02 l -0.10,0.56 c -0.04,0.21 -0.10,0.27 -0.25,0.27 -0.30,-0.01 -0.84,-0.17 -0.95,-0.29 -0.06,-0.06 -0.05,-0.07 0.01,-0.03 0.19,0.10 0.46,-0.24 0.39,-0.50 -0.14,-0.50 -0.07,-0.53 0.88,-0.40 0.38,0.05 0.43,0.08 0.49,0.35 0.03,0.16 0.08,0.32 0.10,0.35 0.06,0.10 0.45,-0.10 0.57,-0.31 0.16,-0.25 0.04,-0.84 -0.18,-0.90 -0.09,-0.02 -0.17,-0.10 -0.17,-0.17 0,-0.07 -0.07,-0.12 -0.15,-0.10 -0.22,0.03 -0.48,0.30 -0.46,0.49 0.01,0.14 -0.09,0.15 -0.92,0.15 -0.51,-0.00 -0.85,0.01 -0.74,0.04 0.45,0.10 0.47,0.13 0.28,0.27 -0.10,0.07 -0.27,0.10 -0.39,0.07 -0.22,-0.05 -0.30,0.10 -0.14,0.30 0.03,0.05 -0.04,-0.02 -0.17,-0.17 -0.25,-0.27 -0.45,-0.88 -0.44,-1.34 0.00,-0.36 0.21,-0.89 0.36,-0.94 0.06,-0.02 0.09,0.00 0.06,0.05 -0.03,0.05 0.04,0.20 0.17,0.33 0.31,0.31 0.94,0.38 1.08,0.13 0.08,-0.15 0.18,-0.17 0.99,-0.12 0.49,0.02 0.83,0.02 0.74,0.00 -0.11,-0.03 -0.14,-0.11 -0.10,-0.26 0.03,-0.12 0.00,-0.30 -0.04,-0.41 -0.09,-0.17 -0.18,-0.19 -0.73,-0.17 -0.50,0.01 -0.54,0.02 -0.19,0.05 0.37,0.03 0.42,0.05 0.38,0.21 -0.02,0.10 -0.11,0.18 -0.18,0.18 -0.11,0 -0.11,0.02 -0.02,0.14 0.10,0.12 0.05,0.14 -0.36,0.14 -0.36,0 -0.47,-0.03 -0.47,-0.14 0,-0.07 -0.06,-0.16 -0.14,-0.19 -0.07,-0.02 -0.14,-0.13 -0.14,-0.22 0,-0.18 -0.30,-0.32 -0.47,-0.22 -0.11,0.06 -0.37,-0.23 -0.30,-0.35 0.10,-0.16 0.78,-0.43 1.25,-0.50 0.42,-0.05 0.46,-0.07 0.23,-0.12 -0.21,-0.04 -0.29,-0.12 -0.39,-0.41 -0.15,-0.44 -0.28,-0.61 -0.48,-0.61 -0.11,0 -0.09,0.03 0.05,0.14 0.29,0.20 0.25,0.32 -0.09,0.32 -0.16,0.00 -0.25,0.02 -0.18,0.05 0.06,0.02 0.11,0.08 0.11,0.13 0,0.05 -0.04,0.06 -0.09,0.03 -0.15,-0.09 -0.10,0.11 0.06,0.28 0.13,0.13 0.13,0.16 0.02,0.23 -0.30,0.19 -0.45,0.00 -0.45,-0.58 -0.00,-0.27 -0.25,-0.43 -0.34,-0.21 -0.05,0.15 1.87e-4,0.70 0.10,1.02 0.06,0.18 0.06,0.18 -0.08,0.00 -0.27,-0.33 -0.14,-1.47 0.20,-1.83 0.12,-0.12 0.13,-0.10 0.07,0.16 -0.08,0.38 0.05,0.39 0.47,0.02 0.17,-0.15 0.42,-0.30 0.55,-0.33 0.15,-0.03 0.23,-0.12 0.23,-0.24 0,-0.18 -0.14,-0.19 -0.59,-0.01 -0.08,0.03 -0.14,0.01 -0.14,-0.03 0,-0.05 0.18,-0.13 0.41,-0.19 0.20,-0.05 0.32,-0.08 0.40,-0.09 0.01,-0.00 0.02,-0.00 0.04,-0.00 z m 5.28,0.00 c 0.01,-0.00 0.03,0.01 0.03,0.04 0,0.05 -0.07,0.16 -0.17,0.25 -0.21,0.19 -0.26,0.19 -0.33,0.01 -0.03,-0.09 0.00,-0.14 0.11,-0.14 0.09,0 0.21,-0.05 0.27,-0.11 0.03,-0.03 0.06,-0.05 0.08,-0.05 z m 0.83,0.26 c 0.05,-0.00 0.13,0.04 0.16,0.14 0.02,0.07 0.02,0.14 -0.02,0.14 -0.09,0 -0.19,-0.10 -0.19,-0.20 0,-0.04 0.02,-0.07 0.05,-0.07 z M 30.69,22.51 c -0.02,-0.00 -0.05,0 -0.07,0.01 -0.13,0.08 -0.11,0.29 0.03,0.35 0.07,0.02 0.20,0.22 0.29,0.43 0.25,0.58 0.61,0.47 0.41,-0.11 -0.09,-0.28 -0.48,-0.65 -0.68,-0.68 z m -0.90,0.26 c -0.05,0 -0.09,0.01 -0.09,0.06 0,0.04 -0.10,0.05 -0.23,0.03 -0.12,-0.02 -0.23,-9.25e-4 -0.23,0.05 0,0.05 0.11,0.11 0.25,0.13 0.57,0.08 0.69,0.07 0.66,-0.08 -0.02,-0.10 -0.22,-0.20 -0.35,-0.20 z m 0.49,0.10 c -0.02,-0.00 -0.02,0.04 -0.03,0.13 -0.00,0.16 0.05,0.21 0.23,0.21 0.12,0 0.23,-0.04 0.23,-0.09 0,-0.08 -0.07,-0.10 -0.24,-0.08 -0.03,0.00 -0.09,-0.04 -0.13,-0.11 -0.02,-0.03 -0.03,-0.05 -0.05,-0.05 z m -5.43,0.39 c -0.01,-0.00 -0.02,0.00 -0.02,0.01 9.26e-4,0.04 0.13,0.17 0.30,0.28 0.33,0.23 0.38,0.25 0.30,0.12 -0.07,-0.12 -0.48,-0.40 -0.58,-0.42 z m -2.41,0.05 c 0.03,0.00 0.08,0.00 0.15,0.01 0.16,0.02 0.35,0.10 0.42,0.17 0.06,0.06 0.09,0.16 0.05,0.21 -0.09,0.14 -0.71,-0.08 -0.75,-0.27 -0.01,-0.09 0.00,-0.13 0.12,-0.12 z m 7.82,0.00 0,0 c -0.05,-0.00 -0.06,0.04 -0.03,0.14 0.02,0.10 0.00,0.21 -0.05,0.24 -0.05,0.03 -0.10,0.13 -0.10,0.22 0.00,0.12 0.01,0.13 0.08,0.02 0.05,-0.08 0.14,-0.10 0.25,-0.06 0.13,0.05 0.14,0.08 0.04,0.14 -0.06,0.04 -0.09,0.12 -0.06,0.18 0.10,0.17 0.41,0.11 0.47,-0.08 0.08,-0.25 -0.01,-0.37 -0.28,-0.37 -0.17,0 -0.22,-0.04 -0.20,-0.20 0.01,-0.11 -0.02,-0.21 -0.08,-0.23 -0.00,-0.00 -0.01,-0.00 -0.02,-0.00 z m -6.36,0.08 c 0.10,0.00 0.33,0.16 0.71,0.49 0.84,0.71 1.21,0.84 2.23,0.73 l 0.81,-0.08 0.14,0.27 c 0.11,0.23 0.12,0.33 0.02,0.62 -0.10,0.32 -0.14,0.35 -0.56,0.40 -0.24,0.03 -0.59,0.11 -0.76,0.18 -0.25,0.10 -0.36,0.10 -0.59,0.01 -0.15,-0.06 -0.44,-0.14 -0.64,-0.18 -0.45,-0.08 -0.73,-0.33 -1.04,-0.91 -0.12,-0.24 -0.27,-0.44 -0.31,-0.44 -0.11,0 0.25,0.85 0.42,0.99 0.10,0.08 0.05,0.15 -0.25,0.35 -0.43,0.29 -0.54,0.26 -0.31,-0.07 0.17,-0.26 0.11,-0.44 -0.12,-0.37 -0.08,0.02 -0.06,-0.00 0.04,-0.06 0.22,-0.11 0.26,-0.22 0.11,-0.31 -0.05,-0.03 -0.09,-0.15 -0.09,-0.27 0,-0.15 -0.07,-0.24 -0.25,-0.31 -0.16,-0.05 -0.19,-0.09 -0.09,-0.10 0.20,-0.00 0.21,-0.24 0.02,-0.32 -0.13,-0.05 -0.20,-0.34 -0.08,-0.34 0.17,0 0.41,0.22 0.42,0.40 0.00,0.19 0.00,0.19 0.08,0.02 0.04,-0.10 0.05,-0.30 0.02,-0.44 -0.03,-0.16 -0.01,-0.25 0.07,-0.24 z m 5.52,0.26 c 0.05,0.00 0.08,0.09 0.13,0.30 0.05,0.22 0.03,0.25 -0.15,0.24 -0.12,-0.00 -0.16,-0.02 -0.10,-0.05 0.14,-0.06 0.15,-0.31 0.00,-0.31 -0.08,0 -0.08,-0.02 -0.00,-0.11 0.05,-0.05 0.08,-0.07 0.11,-0.07 z m -9.44,0.10 c 0.12,-0.01 -0.18,0.46 -0.41,0.64 -0.13,0.10 -0.26,0.18 -0.30,0.18 -0.08,0 0.63,-0.82 0.72,-0.83 z m 1.68,0.17 c 0.08,-9.25e-4 0.18,0.04 0.21,0.09 0.07,0.11 -0.05,0.11 -0.23,0 -0.12,-0.07 -0.11,-0.09 0.01,-0.09 z m -1.56,0.89 0,0 c 0.11,0.00 0.22,0.03 0.32,0.08 0.15,0.07 0.33,0.14 0.40,0.14 0.24,0 0.89,0.55 1.13,0.96 0.13,0.23 0.24,0.55 0.24,0.74 0,0.18 0.04,0.36 0.09,0.39 0.14,0.09 0.84,1.33 1.09,1.94 0.34,0.83 0.32,1.15 -0.09,1.70 -0.19,0.25 -0.32,0.47 -0.29,0.50 0.02,0.02 0.11,-0.03 0.18,-0.13 0.07,-0.09 0.01,0.09 -0.12,0.42 -0.14,0.33 -0.39,0.90 -0.55,1.26 -0.24,0.57 -0.31,0.65 -0.55,0.67 -0.14,0.01 -0.39,-0.04 -0.54,-0.13 -0.51,-0.28 -1.26,-0.89 -1.26,-1.02 0,-0.22 0.27,-0.69 0.85,-1.46 0.30,-0.40 0.54,-0.77 0.54,-0.81 0,-0.16 -0.15,-0.08 -0.25,0.12 l -0.09,0.20 -0.11,-0.20 c -0.13,-0.24 -0.30,-0.28 -0.23,-0.04 0.04,0.15 0.04,0.15 -0.05,0.00 -0.05,-0.08 -0.30,-0.29 -0.54,-0.45 -0.68,-0.46 -1.41,-1.21 -1.62,-1.67 -0.25,-0.56 -0.32,-1.29 -0.17,-1.83 0.21,-0.78 1.00,-1.40 1.63,-1.38 z m 2.16,0.59 c 0.01,0 0.07,0.08 0.13,0.18 0.05,0.10 0.06,0.18 0.01,0.18 -0.04,0 -0.10,-0.08 -0.13,-0.18 -0.02,-0.10 -0.03,-0.18 -0.01,-0.18 z m 9.83,0.11 c 0.05,-0.01 0.13,0.12 0.18,0.39 0.03,0.17 0.01,0.43 -0.03,0.58 l -0.09,0.26 -0.00,-0.28 c -0.00,-0.15 -0.03,-0.44 -0.06,-0.64 -0.03,-0.20 -0.01,-0.30 0.02,-0.31 z m -7.69,0.30 c 0.30,-0.01 1.39,0.26 1.43,0.38 0.01,0.05 -0.08,0.14 -0.21,0.21 -0.13,0.06 -0.46,0.25 -0.73,0.43 -0.26,0.17 -0.74,0.57 -1.05,0.88 l -0.56,0.56 -0.19,-0.32 c -0.13,-0.21 -0.17,-0.39 -0.13,-0.56 0.06,-0.27 1.18,-1.51 1.42,-1.59 0.01,-0.00 0.02,-0.00 0.05,-0.00 z m -2.66,0.14 c -0.06,-0.00 -0.03,0.14 0.11,0.36 0.11,0.15 0.22,0.28 0.24,0.28 0.08,0 0.00,-0.26 -0.15,-0.46 -0.09,-0.12 -0.16,-0.18 -0.20,-0.18 z m 7.77,0.66 c -0.05,-9.24e-4 -0.10,0.00 -0.15,0.01 -0.09,0.02 -0.03,0.04 0.11,0.04 0.15,0.00 0.22,-0.01 0.16,-0.04 -0.03,-0.01 -0.07,-0.01 -0.12,-0.02 z m 0.74,0 c -0.05,-9.24e-4 -0.10,0.00 -0.15,0.01 -0.09,0.02 -0.03,0.04 0.11,0.04 0.15,0.00 0.22,-0.01 0.16,-0.04 -0.03,-0.01 -0.07,-0.01 -0.12,-0.02 z m -3.53,0.26 -0.02,0.38 c -0.02,0.38 -0.03,0.38 -0.59,0.56 -0.30,0.09 -0.59,0.17 -0.63,0.17 -0.16,0.00 0.28,-0.46 0.75,-0.78 l 0.49,-0.33 z m -1.69,0.44 c 0.04,0.00 0.09,0.11 0.13,0.32 0.10,0.54 0.14,0.56 0.75,0.35 0.30,-0.10 0.55,-0.18 0.56,-0.18 0.11,0 0.11,0.44 -0.00,1.15 -0.27,1.62 -0.29,1.64 -0.55,0.66 l -0.16,-0.61 0.30,-0.39 c 0.16,-0.21 0.34,-0.44 0.39,-0.50 0.04,-0.06 0.05,-0.11 0.00,-0.11 -0.04,0.00 -0.26,0.23 -0.48,0.51 l -0.40,0.50 0.23,0.70 c 0.13,0.38 0.20,0.70 0.17,0.70 -0.03,0 -0.28,-0.14 -0.55,-0.32 l -0.48,-0.32 -0.48,0.60 c -0.50,0.62 -0.70,0.76 -0.55,0.39 0.16,-0.40 0.37,-1.18 0.37,-1.35 -1.88e-4,-0.09 -0.12,-0.25 -0.28,-0.35 -0.15,-0.10 -0.28,-0.21 -0.28,-0.24 -9.4e-5,-0.03 0.20,-0.13 0.45,-0.22 0.45,-0.16 0.46,-0.17 0.61,-0.75 0.09,-0.35 0.17,-0.52 0.23,-0.52 z m 5.45,0.44 0.23,0.50 c 0.15,0.33 0.19,0.52 0.13,0.56 -0.05,0.03 -0.12,0.23 -0.16,0.45 -0.03,0.21 -0.11,0.46 -0.17,0.55 -0.10,0.14 -0.12,0.11 -0.22,-0.18 -0.08,-0.24 -0.08,-0.43 -0.02,-0.64 0.05,-0.16 0.12,-0.51 0.16,-0.77 l 0.06,-0.46 z m -2.73,0.08 c 0.03,0.00 0.11,0.09 0.19,0.21 0.13,0.20 0.16,0.49 0.17,1.70 0.00,0.80 0.05,2.63 0.09,4.08 0.04,1.44 0.08,2.71 0.08,2.83 0.00,0.11 -0.04,0.21 -0.09,0.21 -0.05,0 -0.09,-0.22 -0.09,-0.49 -0.00,-0.27 -0.06,-1.48 -0.13,-2.68 -0.08,-1.43 -0.09,-2.23 -0.03,-2.30 0.05,-0.06 0.05,-0.12 0.00,-0.14 -0.08,-0.03 -0.28,-3.33 -0.20,-3.41 0.00,-0.00 0.00,-0.00 0.01,-0.00 z m 2.05,0.25 c -0.04,0 -0.08,0.00 -0.11,0.01 -0.06,0.02 -0.01,0.04 0.11,0.04 0.12,0 0.18,-0.02 0.11,-0.04 -0.03,-0.01 -0.07,-0.01 -0.11,-0.01 z m -1.54,0.01 0,0 c 0.12,-0.01 0.61,0.36 0.61,0.50 0,0.06 -0.03,0.12 -0.07,0.12 -0.11,0 -0.61,-0.55 -0.55,-0.61 0.00,-0.00 0.01,-0.00 0.02,-0.00 z m 2.35,0.24 c -0.04,-0.00 -0.15,0.37 -0.19,0.75 l -0.04,0.50 0.12,-0.46 c 0.07,-0.25 0.13,-0.55 0.13,-0.65 0.00,-0.10 -0.00,-0.14 -0.02,-0.14 z m 0.43,0.66 c 0.04,0.00 0.07,0.07 0.05,0.24 -0.03,0.44 0.00,0.70 0.09,0.64 0.15,-0.09 0.20,0.12 0.08,0.34 -0.10,0.20 -0.16,0.61 -0.17,1.40 -0.00,0.19 -0.02,0.35 -0.04,0.35 -0.02,0 -0.08,-0.17 -0.14,-0.39 -0.05,-0.21 -0.18,-0.64 -0.28,-0.95 -0.11,-0.35 -0.13,-0.57 -0.08,-0.61 0.05,-0.03 0.14,-0.26 0.20,-0.51 0.08,-0.31 0.20,-0.51 0.28,-0.51 z m -2.39,0.03 c 0.29,-0.00 0.90,0.03 1.19,0.08 0.13,0.02 0.24,0.23 0.44,0.81 0.14,0.42 0.24,0.80 0.21,0.84 -0.02,0.03 -0.25,0.09 -0.51,0.13 -0.25,0.03 -0.53,0.08 -0.60,0.11 -0.12,0.04 -0.32,-0.28 -0.32,-0.54 0,-0.05 -0.12,-0.38 -0.28,-0.73 -0.15,-0.35 -0.28,-0.66 -0.28,-0.69 0,-0.01 0.06,-0.01 0.15,-0.02 z m -1.05,0.10 0.03,0.48 c 0.02,0.34 -0.02,0.62 -0.17,0.97 l -0.20,0.48 0.21,1.53 c 0.11,0.84 0.19,1.55 0.16,1.58 -0.04,0.04 -0.19,-0.69 -0.30,-1.55 -0.10,-0.75 -0.14,-0.90 -0.22,-0.74 -0.16,0.29 -0.37,2.09 -0.43,3.67 -0.03,0.97 -0.10,1.65 -0.15,1.65 -0.10,0 -0.01,-2.61 0.12,-3.79 0.15,-1.19 0.64,-3.60 0.81,-3.96 l 0.15,-0.33 z m -11.23,0.04 c 0.29,0 0.38,0.15 0.14,0.23 -0.10,0.03 -0.18,0.09 -0.18,0.14 0,0.14 0.39,0.10 0.99,-0.09 0.59,-0.19 1.02,-0.24 1.10,-0.10 0.02,0.04 -0.14,0.11 -0.38,0.14 -0.24,0.03 -0.79,0.24 -1.23,0.46 -0.49,0.24 -0.98,0.42 -1.29,0.45 -0.46,0.05 -0.49,0.04 -0.43,-0.12 0.04,-0.14 0.01,-0.18 -0.13,-0.18 -0.10,0 -0.18,0.04 -0.17,0.10 0.01,0.05 -0.16,0.22 -0.39,0.36 -0.23,0.14 -0.40,0.30 -0.39,0.36 0.01,0.06 -0.10,0.15 -0.25,0.20 -0.15,0.05 -0.26,0.13 -0.23,0.17 0.02,0.04 -0.00,0.10 -0.06,0.14 -0.15,0.09 -1.01,0.10 -1.01,0.00 0,-0.04 -0.03,-0.05 -0.07,-0.02 -0.08,0.05 -0.02,0.61 0.06,0.61 0.18,0 1.07,-0.40 1.22,-0.56 0.10,-0.10 0.23,-0.18 0.28,-0.18 0.05,0 0.28,-0.12 0.51,-0.28 0.38,-0.26 0.45,-0.28 0.97,-0.22 0.30,0.03 0.56,0.09 0.56,0.13 0,0.03 -0.45,0.42 -1.00,0.85 -0.55,0.43 -1.07,0.85 -1.16,0.94 -0.09,0.09 -0.20,0.16 -0.23,0.16 -0.03,0 -0.34,0.17 -0.67,0.39 -0.33,0.21 -0.85,0.49 -1.15,0.60 -0.80,0.30 -1.28,0.27 -2.08,-0.14 -0.83,-0.43 -1.02,-0.55 -0.97,-0.60 0.02,-0.02 0.84,-0.43 1.81,-0.91 0.97,-0.48 1.97,-1.01 2.24,-1.18 0.26,-0.16 0.48,-0.29 0.49,-0.28 0.01,0.01 -5.99e-4,0.13 -0.02,0.27 -0.03,0.19 -0.11,0.26 -0.34,0.28 l -0.29,0.03 0.29,0.01 c 0.17,0.00 0.38,-0.06 0.51,-0.16 0.12,-0.10 0.16,-0.18 0.09,-0.18 -0.06,-0.00 -0.09,-0.04 -0.06,-0.10 0.03,-0.05 0.13,-0.07 0.23,-0.04 0.11,0.03 0.19,-0.00 0.23,-0.13 0.03,-0.10 0.22,-0.28 0.42,-0.39 0.20,-0.11 0.36,-0.24 0.36,-0.28 0,-0.12 -0.11,-0.08 -0.51,0.15 -0.20,0.12 -0.45,0.23 -0.56,0.23 -0.16,0.00 -0.14,-0.02 0.09,-0.22 0.15,-0.12 0.33,-0.23 0.40,-0.23 0.07,-0.00 0.38,-0.12 0.70,-0.27 0.80,-0.38 1.33,-0.57 1.59,-0.57 z m -0.59,0.28 c -0.05,0 -0.11,0.04 -0.15,0.09 -0.03,0.05 -0.01,0.09 0.03,0.09 0.05,0 0.11,-0.04 0.15,-0.09 0.03,-0.05 0.01,-0.09 -0.03,-0.09 z m 3.52,0.09 c 0.17,-0.00 0.14,0.15 -0.04,0.22 -0.15,0.06 -0.15,0.06 0.00,0.18 0.09,0.07 0.14,0.18 0.10,0.27 -0.08,0.21 -0.38,0.19 -0.45,-0.03 -0.06,-0.20 0.20,-0.64 0.39,-0.65 z m 9.26,0.03 c 0.00,0 0.00,3.7e-5 0.01,0.00 0.15,0.09 0.50,1.46 0.40,1.58 -0.05,0.06 -0.13,0.26 -0.18,0.44 l -0.08,0.32 -0.10,-0.49 c -0.12,-0.55 -0.14,-1.84 -0.04,-1.85 z m -6.14,0.05 c -0.08,0 -0.38,0.66 -0.38,0.84 0,0.19 0.16,0.07 0.31,-0.23 0.17,-0.36 0.20,-0.60 0.07,-0.60 z m -2.45,0.10 c 0.03,0.00 0.06,0.01 0.07,0.02 0.03,0.03 -0.02,0.05 -0.12,0.04 -0.10,-0.00 -0.13,-0.02 -0.05,-0.05 0.03,-0.01 0.07,-0.01 0.10,-0.01 z m 11.01,0.01 c -0.02,0.01 -0.05,0.17 -0.08,0.46 -0.02,0.24 -0.01,0.42 0.03,0.39 0.04,-0.02 0.08,-0.24 0.08,-0.48 0,-0.26 -0.01,-0.39 -0.03,-0.37 z m -12.28,0.10 c 0.03,-0.00 0.05,0.02 0.05,0.07 -7.62e-4,0.06 -0.04,0.18 -0.09,0.26 -0.07,0.11 -0.09,0.10 -0.09,-0.06 -7.62e-4,-0.11 0.04,-0.23 0.09,-0.26 0.01,-0.00 0.02,-0.01 0.03,-0.01 z m 6.30,0.04 0.52,0.34 c 0.28,0.19 0.50,0.39 0.47,0.45 -0.02,0.05 -0.19,0.20 -0.38,0.33 -0.18,0.12 -0.48,0.24 -0.66,0.26 -0.28,0.03 -0.31,0.02 -0.25,-0.12 0.14,-0.34 0.16,-0.59 0.04,-0.74 -0.10,-0.12 -0.08,-0.17 0.07,-0.33 l 0.19,-0.19 z m -4.58,0.12 c 0.11,0 0.20,0.02 0.20,0.08 0,0.05 -0.17,0.09 -0.39,0.08 -0.30,-0.00 -0.35,-0.02 -0.21,-0.08 0.13,-0.05 0.28,-0.08 0.40,-0.08 z m 10.25,0.11 c -0.01,-0.00 -0.02,0.03 -0.02,0.10 l -1.88e-4,0 c -0.00,0.09 0.01,0.15 0.04,0.12 0.03,-0.03 0.03,-0.11 0.00,-0.17 -0.01,-0.02 -0.02,-0.04 -0.02,-0.04 z m 0.85,0.19 c 0.00,0.00 0.01,0.01 0.01,0.02 0.02,0.06 0.02,0.16 0,0.23 -0.02,0.06 -0.04,0.01 -0.04,-0.11 0,-0.09 0.01,-0.15 0.02,-0.14 z m 1.80,0.22 0.23,0.40 c 0.26,0.46 0.63,1.27 0.63,1.40 0,0.04 0.08,0.21 0.19,0.36 l 0.19,0.27 -0.29,0.61 c -0.16,0.34 -0.27,0.63 -0.25,0.65 0.04,0.04 0.76,-1.25 0.86,-1.57 0.06,-0.22 0.06,-0.22 -0.13,-0.04 -0.19,0.17 -0.19,0.17 -0.20,-0.09 -0.00,-0.14 -0.06,-0.37 -0.13,-0.50 -0.18,-0.32 -0.17,-0.43 0.02,-0.24 0.09,0.08 0.30,0.20 0.46,0.25 0.28,0.09 0.29,0.12 0.24,0.49 -0.14,1.03 -0.66,1.85 -1.41,2.21 -0.24,0.12 -0.52,0.25 -0.61,0.29 -0.18,0.08 -0.63,0.10 -0.63,0.02 0,-0.02 0.14,-0.20 0.33,-0.39 0.18,-0.18 0.31,-0.39 0.28,-0.45 -0.02,-0.06 -0.13,-0.49 -0.25,-0.96 -0.20,-0.84 -0.20,-0.86 -0.04,-1.39 0.09,-0.29 0.24,-0.71 0.32,-0.94 l 0.16,-0.40 z m -10.97,0.12 c -0.06,0.02 -0.32,0.50 -0.32,0.63 0,0.05 0.04,0.09 0.08,0.09 0.09,0 0.31,-0.66 0.24,-0.72 -0.00,-0.00 -0.00,-0.00 -0.01,-0.00 z m 0.33,0.07 c -0.09,0 -0.47,0.66 -0.47,0.83 0,0.13 0.15,0.12 0.21,-0.01 0.02,-0.06 0.11,-0.27 0.19,-0.46 0.08,-0.19 0.10,-0.35 0.05,-0.35 z m 8.26,0.03 c -0.01,-0.00 -0.02,0.03 -0.02,0.10 l -1.88e-4,0 c -0.00,0.09 0.01,0.15 0.04,0.12 0.03,-0.03 0.03,-0.11 0.00,-0.17 -0.01,-0.02 -0.02,-0.04 -0.02,-0.04 z m 0.66,0.11 c 0.08,-0.00 0.26,0.01 0.52,0.08 0.45,0.12 0.74,0.32 0.74,0.53 0,0.13 -0.13,0.07 -0.25,-0.10 -0.06,-0.09 -0.26,-0.20 -0.46,-0.23 -0.19,-0.03 -0.41,-0.09 -0.49,-0.14 -0.12,-0.07 -0.13,-0.12 -0.05,-0.13 z m -1.14,0.04 c 0.11,0.00 0.16,0.02 0.13,0.05 -0.03,0.03 -0.01,0.11 0.03,0.18 0.19,0.23 0.08,0.28 -1.08,0.43 -0.11,0.01 -0.18,-0.03 -0.18,-0.11 0,-0.08 0.16,-0.18 0.42,-0.25 l 0.42,-0.11 -0.41,0.05 c -0.53,0.06 -0.66,0.17 -0.61,0.54 0.03,0.25 0.03,0.26 -0.03,0.06 -0.05,-0.17 -0.10,0.03 -0.20,0.81 -0.06,0.57 -0.16,1.05 -0.21,1.05 -0.04,0 -0.06,-0.15 -0.03,-0.35 0.02,-0.19 0.09,-0.70 0.15,-1.14 0.05,-0.43 0.14,-0.84 0.19,-0.90 0.05,-0.06 0.30,-0.15 0.55,-0.21 0.32,-0.06 0.66,-0.10 0.85,-0.09 z m 1.93,0.46 c 0.02,9.25e-4 0.06,0.02 0.10,0.07 0.05,0.05 0.08,0.17 0.05,0.27 -0.03,0.15 -0.05,0.14 -0.13,-0.06 -0.07,-0.18 -0.08,-0.28 -0.02,-0.28 z m -12.60,0.20 c 0.14,-0.00 0.25,0.03 0.25,0.08 0,0.05 -0.01,0.08 -0.02,0.08 -0.01,-0.00 -0.12,-0.04 -0.25,-0.08 l -0.23,-0.07 0.25,-0.00 z m 5.76,0.09 c 0.35,-0.00 0.60,0.20 0.54,0.46 -0.02,0.09 0.01,0.19 0.09,0.22 0.15,0.06 0.11,0.59 -0.08,1.03 -0.09,0.21 -0.15,0.23 -0.70,0.23 -0.32,0 -0.58,-0.03 -0.58,-0.07 0.02,-0.18 -0.02,-0.22 -0.14,-0.12 -0.11,0.09 -0.14,0.05 -0.19,-0.22 -0.08,-0.43 0.00,-0.84 0.23,-1.13 0.16,-0.21 0.18,-0.21 0.27,-0.06 0.09,0.16 0.11,0.14 0.13,-0.15 0.00,-0.09 0.13,-0.15 0.35,-0.16 0.02,-0.00 0.04,-0.00 0.07,-0.00 z m 5.11,0.01 c 0.09,-0.00 0.15,0.08 0.22,0.29 0.12,0.38 0.23,0.42 0.32,0.12 0.05,-0.19 0.07,-0.18 0.15,0.11 0.05,0.19 0.25,0.47 0.48,0.67 l 0.39,0.34 -1.02,0.00 c -0.56,0.00 -1.11,0.02 -1.21,0.05 -0.16,0.04 -0.20,-0.03 -0.34,-0.62 -0.08,-0.36 -0.14,-0.70 -0.11,-0.74 0.02,-0.03 0.24,-0.09 0.48,-0.13 0.24,-0.03 0.51,-0.08 0.60,-0.10 0.01,-0.00 0.02,-0.00 0.04,-0.00 z m -16.56,0.01 c -0.14,0.00 -0.38,0.07 -0.81,0.21 -0.94,0.31 -1.78,0.48 -2.33,0.48 -0.35,0 -0.51,0.10 -0.40,0.28 0.03,0.05 0.13,0.07 0.21,0.05 0.08,-0.02 0.47,-0.09 0.85,-0.15 0.75,-0.11 1.34,-0.28 1.78,-0.51 0.15,-0.07 0.31,-0.12 0.35,-0.09 0.04,0.02 0.13,-0.01 0.19,-0.08 0.06,-0.07 0.18,-0.10 0.26,-0.07 0.12,0.04 0.13,0.02 0.04,-0.06 -0.03,-0.03 -0.08,-0.05 -0.16,-0.04 z m 11.54,0.13 c -0.05,0 -0.07,0.04 -0.04,0.09 0.03,0.05 0.07,0.09 0.09,0.09 0.02,0 0.04,-0.04 0.04,-0.09 0,-0.05 -0.04,-0.09 -0.09,-0.09 z m -6.30,0.00 c 0.02,0.00 0.04,0.03 0.04,0.10 -0.00,0.19 0.84,0.88 1.50,1.23 0.82,0.43 1.37,0.55 1.66,0.36 0.17,-0.11 0.21,-0.11 0.17,-0.01 -0.02,0.06 -0.13,0.17 -0.25,0.23 -0.11,0.05 -0.26,0.15 -0.31,0.21 -0.12,0.12 -0.42,0.94 -0.50,1.36 -0.02,0.15 -0.09,0.33 -0.14,0.39 -0.10,0.13 -0.99,0.14 -1.39,0.02 -0.13,-0.04 -0.49,-0.20 -0.79,-0.36 -0.58,-0.31 -1.00,-0.82 -1.30,-1.58 l -0.15,-0.40 0.45,-0.48 c 0.25,-0.26 0.56,-0.62 0.70,-0.79 0.16,-0.20 0.26,-0.29 0.31,-0.29 z m -2.14,0.07 c 0.05,0.00 0.14,0.17 0.18,0.43 0.03,0.23 0.04,0.44 0.01,0.47 -0.06,0.06 -0.25,-0.49 -0.25,-0.72 0,-0.13 0.02,-0.18 0.05,-0.18 z m -1.09,0.06 c 0.00,0.00 0.00,0.00 0.00,0.01 0,0.04 -0.22,0.30 -0.51,0.58 -0.28,0.27 -0.48,0.53 -0.46,0.58 0.02,0.04 -0.01,0.07 -0.08,0.07 -0.14,0 -0.55,0.42 -0.65,0.68 -0.03,0.08 -0.12,0.16 -0.20,0.16 -0.07,0 -0.14,0.05 -0.14,0.12 0,0.22 -0.21,0.33 -0.39,0.20 -0.14,-0.10 -0.12,-0.14 0.20,-0.45 0.41,-0.38 0.62,-0.72 0.46,-0.72 -0.05,0 -0.29,0.11 -0.52,0.24 -0.23,0.13 -0.43,0.22 -0.46,0.19 -0.05,-0.05 0.54,-0.43 1.41,-0.91 0.30,-0.17 0.74,-0.43 0.95,-0.57 0.19,-0.12 0.35,-0.21 0.38,-0.20 z m 8.35,0.12 c 0.04,0 0.03,0.09 -0.01,0.20 -0.05,0.11 -0.10,0.36 -0.10,0.56 0.00,0.37 -0.00,0.40 -0.10,0.29 -0.15,-0.15 0.04,-1.06 0.23,-1.06 z m 9.33,0 c -0.05,0 -0.07,0.11 -0.03,0.26 0.03,0.15 0.00,0.37 -0.08,0.53 -0.07,0.15 -0.14,0.33 -0.14,0.41 -0.00,0.07 -0.06,0.22 -0.14,0.32 -0.07,0.09 -0.13,0.32 -0.13,0.49 0,0.17 0.03,0.30 0.07,0.30 0.09,-0.00 0.64,-0.83 0.72,-1.09 0.07,-0.26 -0.11,-1.23 -0.24,-1.23 z m -9.00,0.21 c -0.03,-0.00 -0.05,0.01 -0.05,0.05 0,0.05 0.04,0.09 0.09,0.09 0.05,0 0.09,-0.01 0.09,-0.04 0,-0.02 -0.04,-0.06 -0.09,-0.09 -0.01,-0.00 -0.02,-0.01 -0.03,-0.01 z m 4.61,0.03 c 0.04,0.01 0.08,0.15 0.13,0.43 0.03,0.19 0.08,0.41 0.11,0.48 0.02,0.06 -0.07,0.23 -0.21,0.36 -0.14,0.13 -0.29,0.24 -0.33,0.24 -0.12,0 -0.06,-0.68 0.10,-1.16 0.08,-0.24 0.14,-0.37 0.19,-0.35 z m -5.47,0.08 c 0.08,-0.00 0.14,0.01 0.14,0.04 0,0.04 -0.10,0.08 -0.23,0.08 -0.12,0 -0.23,-0.01 -0.23,-0.03 0,-0.01 0.10,-0.05 0.23,-0.08 0.03,-0.00 0.06,-0.00 0.09,-0.01 z m 1.43,0.03 c -0.08,0 -0.17,0.06 -0.20,0.14 -0.09,0.25 -0.06,0.67 0.06,0.72 0.06,0.02 0.12,0.05 0.13,0.05 0.00,0.00 0.08,-0.05 0.16,-0.13 0.21,-0.21 0.18,-0.40 -0.04,-0.34 -0.21,0.05 -0.25,-0.14 -0.07,-0.32 0.08,-0.08 0.07,-0.11 -0.03,-0.11 z m -6.26,0.09 c -0.12,0 -0.04,0.69 0.15,1.28 0.16,0.49 0.55,1.13 0.82,1.35 0.21,0.17 0.39,0.20 0.46,0.09 0.02,-0.04 -0.12,-0.28 -0.33,-0.53 -0.40,-0.49 -1.01,-1.71 -1.01,-2.01 0,-0.10 -0.04,-0.18 -0.10,-0.18 z m 7.08,0.09 c -0.02,0 -0.06,0.04 -0.09,0.09 -0.03,0.05 -0.01,0.09 0.04,0.09 0.05,0 0.09,-0.04 0.09,-0.09 0,-0.05 -0.01,-0.09 -0.04,-0.09 z m -2.28,0.11 c 0.04,0.00 0.07,0.01 0.07,0.04 0,0.04 -0.20,0.09 -0.44,0.10 -0.24,0.01 -0.51,0.04 -0.60,0.07 -0.09,0.02 -0.16,0.00 -0.16,-0.05 0,-0.05 0.17,-0.10 0.39,-0.10 0.21,-9.25e-4 0.49,-0.02 0.60,-0.05 0.02,-0.00 0.05,-0.01 0.08,-0.01 0.01,-0.00 0.03,-0.00 0.05,-9.24e-4 z m 0.66,9.25e-4 c -0.01,-0.00 -0.03,0.01 -0.03,0.04 0,0.05 0.02,0.12 0.06,0.15 0.03,0.03 0.08,0.04 0.11,0.01 0.02,-0.02 -0.00,-0.09 -0.06,-0.15 -0.03,-0.03 -0.06,-0.05 -0.08,-0.05 z m -0.82,0.36 c 0.18,0.00 0.18,0.00 0,0.08 -0.10,0.04 -0.35,0.07 -0.56,0.07 l -0.37,-0.00 0.37,-0.07 c 0.20,-0.04 0.45,-0.07 0.56,-0.07 z m -13.00,0.36 c -0.07,0 -0.14,0.04 -0.14,0.09 0,0.05 0.06,0.09 0.14,0.09 0.07,0 0.14,-0.04 0.14,-0.09 0,-0.05 -0.06,-0.09 -0.14,-0.09 z m 9.06,0 c -0.13,0 0.40,0.50 0.81,0.75 0.23,0.14 0.43,0.22 0.45,0.17 0.01,-0.04 0.09,-0.08 0.16,-0.08 0.23,0 0.14,-0.18 -0.12,-0.24 -0.14,-0.03 -0.47,-0.18 -0.74,-0.32 -0.26,-0.14 -0.51,-0.27 -0.55,-0.27 z m 3.89,0.01 c 0.03,0.00 0.06,0.01 0.07,0.02 0.03,0.03 -0.02,0.05 -0.12,0.04 -0.10,-0.00 -0.13,-0.02 -0.05,-0.05 0.03,-0.01 0.07,-0.01 0.10,-0.01 z m -13.59,0.01 c -0.01,0 -0.02,0.00 -0.03,0.01 -0.02,0.02 0.02,0.11 0.12,0.19 0.20,0.15 0.32,0.17 0.32,0.07 0,-0.08 -0.29,-0.27 -0.40,-0.27 z m 8.53,0.06 c -0.24,-0.00 -0.09,0.81 0.21,1.18 0.05,0.06 0.11,0.11 0.13,0.10 0.04,-0.04 -0.28,-1.28 -0.35,-1.28 z m -7.60,0.03 c -0.03,-0.00 -0.05,0.01 -0.05,0.05 0,0.05 0.04,0.09 0.09,0.09 0.05,0 0.09,-0.01 0.09,-0.04 0,-0.02 -0.04,-0.06 -0.09,-0.09 -0.01,-0.00 -0.02,-0.01 -0.03,-0.01 z m 15.16,0.01 c 0.00,-9.24e-4 0.00,-0.00 0.00,0 0.05,0.02 -0.05,0.57 -0.34,1.48 -0.64,2.01 -0.83,2.54 -0.84,2.41 -0.02,-0.20 -0.03,-0.25 -0.11,-0.36 -0.03,-0.06 0.07,-0.50 0.26,-0.98 0.18,-0.47 0.49,-1.28 0.68,-1.79 0.18,-0.50 0.30,-0.74 0.35,-0.75 z m -3.03,0.22 c 0.31,0 0.55,0.01 0.53,0.03 -0.10,0.09 -1.11,0.14 -1.11,0.06 0,-0.05 0.25,-0.09 0.57,-0.09 z m 12.10,0.26 c 0.02,-0.00 0.04,0.04 0.04,0.15 0,0.20 0.26,0.68 0.55,1.03 0.67,0.79 0.67,0.79 0.50,1.08 -0.08,0.14 -0.18,0.26 -0.23,0.26 -0.04,0 -0.07,0.06 -0.07,0.14 0,0.26 -0.36,0.14 -0.62,-0.21 -0.14,-0.19 -0.35,-0.46 -0.48,-0.60 l -0.22,-0.25 0.22,-0.80 c 0.13,-0.50 0.25,-0.79 0.31,-0.81 z m -12.25,0.08 c 0.13,-0.00 0.22,0.01 0.22,0.04 0,0.03 -0.16,0.07 -0.37,0.07 -0.20,0 -0.37,-0.01 -0.37,-0.03 0,-0.02 0.16,-0.05 0.37,-0.07 0.05,-0.00 0.10,-0.00 0.14,-0.00 z m -7.53,0.30 c 0.05,0 0.07,0.07 0.05,0.16 -0.11,0.41 -0.44,2.54 -0.41,2.70 0.02,0.11 0.31,-0.23 0.94,-1.13 1.07,-1.53 1.14,-1.63 1.22,-1.63 0.18,0 -0.01,0.36 -0.66,1.21 -0.39,0.51 -0.86,1.13 -1.03,1.36 -0.25,0.34 -0.35,0.42 -0.60,0.42 -0.25,0 -0.33,-0.06 -0.57,-0.44 -0.63,-1.04 -0.61,-0.99 -0.47,-1.17 0.11,-0.15 0.14,-0.13 0.41,0.32 0.15,0.27 0.31,0.61 0.34,0.75 0.03,0.14 0.08,0.25 0.11,0.25 0.03,0 0.13,-0.55 0.21,-1.23 0.08,-0.69 0.19,-1.25 0.25,-1.27 0.05,-0.01 0.10,-0.09 0.10,-0.16 0,-0.07 0.04,-0.13 0.09,-0.13 z m 7.17,0.00 c 0.20,0.00 0.22,0.02 0.11,0.09 -0.18,0.11 -0.37,0.11 -0.37,0 0,-0.05 0.11,-0.09 0.25,-0.09 z m 11.94,0.03 c 0.03,0.00 0.05,0.03 0.05,0.09 0,0.16 -0.05,0.18 -0.13,0.05 -0.02,-0.04 -0.01,-0.11 0.04,-0.14 0.01,-0.00 0.02,-0.01 0.03,-0.01 z m -19.61,0.01 c 0.02,0 0.03,0.00 0.04,0.01 0.01,0.03 -0.01,0.40 -0.06,0.81 -0.09,0.70 -0.11,0.74 -0.33,0.76 -0.19,0.01 -0.27,-0.06 -0.45,-0.44 -0.21,-0.45 -0.21,-0.46 -0.04,-0.65 0.18,-0.20 0.70,-0.49 0.85,-0.49 z m 1.01,0.03 c 0.21,0 0.68,0.30 0.68,0.43 0,0.07 -0.10,0.05 -0.32,-0.07 -0.18,-0.10 -0.32,-0.15 -0.32,-0.11 0,0.04 0.12,0.15 0.28,0.25 l 0.28,0.16 -0.43,0.62 c -0.49,0.71 -0.59,0.83 -0.59,0.73 0,-0.07 0.15,-1.19 0.24,-1.72 0.03,-0.19 0.10,-0.30 0.19,-0.30 z m 8.79,0 c 0.02,0 0.04,0.04 0.04,0.09 0,0.05 -0.04,0.09 -0.09,0.09 -0.05,0 -0.07,-0.04 -0.04,-0.09 0.03,-0.05 0.07,-0.09 0.09,-0.09 z m -14.76,0.11 c 0.05,0.00 0.14,0.06 0.23,0.14 0.22,0.22 0.11,0.27 -0.16,0.07 -0.09,-0.07 -0.14,-0.16 -0.10,-0.20 0.01,-0.01 0.02,-0.01 0.04,-0.01 z m 1.06,0.03 c 0.00,0 0.02,0 0.03,0.00 0.05,0.00 0.14,0.03 0.27,0.07 0.20,0.06 0.49,0.25 0.65,0.41 l 0.28,0.28 -0.32,-0.01 c -0.49,-0.01 -1.12,-0.18 -1.11,-0.30 0.00,-0.05 0.03,-0.19 0.07,-0.30 0.03,-0.10 0.05,-0.15 0.12,-0.15 l 0,0 z m 11.28,0.04 c 0.04,0 0.13,0.02 0.25,0.08 0.16,0.07 0.15,0.08 -0.07,0.08 -0.14,0.00 -0.25,-0.03 -0.25,-0.08 0,-0.05 0.01,-0.08 0.06,-0.08 z m 3.80,0.08 c 0.04,0 0.06,0.07 0.03,0.16 -0.02,0.09 -0.19,0.71 -0.37,1.38 -0.39,1.46 -0.48,1.70 -0.56,1.57 -0.03,-0.05 0.02,-0.34 0.12,-0.64 0.10,-0.30 0.29,-0.98 0.44,-1.50 0.14,-0.52 0.29,-0.95 0.34,-0.95 z m 5.72,0.09 c -0.02,0 -0.06,0.04 -0.09,0.09 -0.03,0.05 -0.01,0.09 0.04,0.09 0.05,0 0.09,-0.04 0.09,-0.09 0,-0.05 -0.01,-0.09 -0.04,-0.09 z m -9.26,0.16 0,0 c 0.13,-0.00 0.22,0.01 0.22,0.04 0,0.03 -0.16,0.07 -0.37,0.07 -0.20,0 -0.37,-0.01 -0.37,-0.03 0,-0.02 0.16,-0.05 0.37,-0.07 0.05,-0.00 0.10,-0.00 0.14,-0.00 z m -8.19,0.13 c -0.10,0.00 -0.20,0.25 -0.13,0.36 0.08,0.13 0.22,0.09 0.22,-0.05 0,-0.07 0.00,-0.17 0.00,-0.20 0.00,-0.03 -0.03,-0.08 -0.08,-0.09 -0.00,-0.00 -0.01,-0.00 -0.02,-0.00 z m 10.20,0.08 c 0.04,0 0.08,0.00 0.11,0.01 0.06,0.02 0.01,0.04 -0.11,0.04 -0.12,0 -0.18,-0.02 -0.11,-0.04 0.03,-0.01 0.07,-0.01 0.11,-0.01 z m -2.25,0.09 c 0.05,9.26e-4 0.09,0.00 0.12,0.02 0.06,0.02 -0.01,0.04 -0.16,0.04 -0.15,-0.00 -0.20,-0.02 -0.11,-0.04 0.04,-0.01 0.09,-0.01 0.15,-0.01 z m -4.89,0.17 c 0.21,-0.00 1.42,0.86 1.50,1.07 0.09,0.23 -0.02,0.38 -0.13,0.17 -0.05,-0.10 -0.34,-0.37 -0.64,-0.58 -0.29,-0.21 -0.62,-0.45 -0.72,-0.52 -0.18,-0.13 -0.18,-0.13 0.00,-0.13 z m 6.55,0.13 c 0.30,-0.00 0.31,0.03 0.31,0.18 0,0.11 -0.10,0.30 -0.23,0.42 -0.12,0.12 -0.23,0.30 -0.23,0.41 -9e-6,0.18 -0.05,0.19 -0.88,0.19 -0.48,0.00 -0.89,0.00 -0.89,0 -0.00,-0.00 -0.02,-0.15 -0.04,-0.33 -0.02,-0.18 -0.06,-0.41 -0.08,-0.53 -0.04,-0.18 -0.00,-0.20 0.44,-0.25 0.27,-0.02 0.81,-0.06 1.21,-0.08 0.17,-0.00 0.30,-0.01 0.40,-0.01 z m -6.83,0.04 c 0.13,0 0.63,0.37 1.28,0.94 0.42,0.37 0.46,0.45 0.36,0.58 -0.06,0.08 -0.09,0.21 -0.06,0.29 0.03,0.09 -0.06,0.26 -0.26,0.46 -0.25,0.25 -0.33,0.29 -0.42,0.19 -0.05,-0.06 -0.48,-0.37 -0.94,-0.67 -0.45,-0.30 -0.83,-0.58 -0.83,-0.62 -0.00,-0.13 0.78,-1.18 0.88,-1.18 z m 6.82,0.17 -0.51,0.06 c -0.28,0.03 -0.62,0.10 -0.74,0.16 l -0.23,0.09 0.28,0.06 c 0.15,0.03 0.33,0.05 0.40,0.03 0.06,-0.01 0.17,-0.03 0.23,-0.03 0.06,-0.00 0.21,-0.08 0.34,-0.19 l 0.23,-0.18 z m -3.30,0.03 c 0.11,0.01 0.09,0.18 -0.06,0.62 -0.07,0.21 -0.14,0.47 -0.14,0.57 0,0.09 -0.10,0.33 -0.23,0.52 -0.23,0.33 -0.32,0.74 -0.14,0.62 0.05,-0.03 0.07,0.06 0.03,0.25 -0.15,0.88 -0.25,1.38 -0.37,1.80 -0.07,0.25 -0.12,0.63 -0.11,0.84 0.01,0.26 -0.04,0.47 -0.19,0.67 -0.11,0.16 -0.26,0.29 -0.33,0.29 -0.11,0 -0.59,-0.70 -0.93,-1.37 -0.14,-0.28 -0.14,-0.32 0.08,-0.79 0.20,-0.43 0.21,-0.50 0.08,-0.53 -0.11,-0.02 -0.13,-0.11 -0.10,-0.40 0.06,-0.50 0.30,-0.85 0.53,-0.78 0.12,0.03 0.19,-0.00 0.23,-0.13 0.03,-0.10 0.09,-0.19 0.13,-0.19 0.04,0 0.10,-0.09 0.13,-0.21 0.05,-0.19 0.06,-0.18 0.21,0.11 0.21,0.46 0.27,0.13 0.08,-0.51 -0.11,-0.40 -0.18,-0.49 -0.30,-0.45 -0.11,0.04 -0.14,0.02 -0.09,-0.10 0.03,-0.09 0.06,-0.18 0.06,-0.20 0,-0.01 0.06,-0.01 0.14,0.02 0.12,0.04 0.13,0.00 0.08,-0.26 l -0.06,-0.32 0.47,-0.01 c 0.26,-0.00 0.56,-0.03 0.66,-0.06 0.04,-0.01 0.07,-0.01 0.10,-0.01 z m 15.49,0.02 c -0.10,0 -0.53,0.48 -0.53,0.64 0,0.07 0.03,0.13 0.07,0.13 0.10,-9.24e-4 0.49,-0.59 0.48,-0.75 -4.68e-4,-0.02 -0.00,-0.03 -0.02,-0.03 z m -8.26,0.11 c 0.00,-0.00 0.01,0.01 0.02,0.04 0.02,0.09 0.02,0.21 -0.00,0.28 -0.02,0.06 -0.04,-0.01 -0.04,-0.16 0.00,-0.09 0.00,-0.15 0.02,-0.15 z m -14.54,0.01 c 0.05,0 0.15,0.12 0.23,0.28 0.21,0.41 0.12,0.51 -0.12,0.13 -0.23,-0.35 -0.25,-0.41 -0.11,-0.41 z m 17.25,0.22 c -0.01,0 -0.02,0.00 -0.03,0.01 -0.05,0.03 -0.07,0.09 -0.04,0.14 0.08,0.12 0.13,0.10 0.13,-0.05 0,-0.06 -0.02,-0.09 -0.05,-0.09 z m 5.98,0.03 c 0.06,-0.01 0.16,0.08 0.40,0.32 0.28,0.30 0.54,0.46 0.92,0.58 0.28,0.09 0.52,0.18 0.52,0.21 0,0.02 -0.11,0.17 -0.25,0.31 -0.13,0.14 -0.21,0.29 -0.18,0.32 0.03,0.03 0.10,0.00 0.15,-0.06 0.07,-0.11 0.10,-0.11 0.17,-0.00 0.06,0.10 0.10,0.09 0.18,-0.06 0.05,-0.10 0.10,-0.25 0.10,-0.34 0,-0.08 0.05,-0.14 0.12,-0.14 0.14,0 0.90,0.63 0.90,0.74 0,0.04 -0.45,0.09 -1.00,0.10 -0.86,0.02 -1.03,0.00 -1.22,-0.14 -0.15,-0.12 -0.24,-0.14 -0.29,-0.07 -0.09,0.16 -0.58,-0.00 -0.77,-0.27 -0.09,-0.12 -0.19,-0.37 -0.22,-0.55 -0.04,-0.30 -0.02,-0.33 0.25,-0.44 0.21,-0.08 0.27,-0.14 0.19,-0.19 -0.06,-0.04 -0.09,-0.14 -0.05,-0.24 0.01,-0.04 0.03,-0.07 0.06,-0.07 z m -8.09,0.12 c 0.03,-0.00 0.07,0.01 0.13,0.06 0.07,0.07 0.08,0.13 0.01,0.21 -0.07,0.07 -0.11,0.05 -0.16,-0.06 -0.04,-0.12 -0.03,-0.21 0.01,-0.21 z m 1.79,0.18 c -0.05,0 -0.09,0.04 -0.09,0.09 0,0.05 0.04,0.09 0.09,0.09 0.05,0 0.09,-0.04 0.09,-0.09 0,-0.05 -0.04,-0.09 -0.09,-0.09 z M 22.41,37.36 c 0.54,0.00 0.76,0.05 1.14,0.25 l 0.46,0.24 0,1.49 c 0,1.17 -0.03,1.63 -0.17,2.13 -0.09,0.34 -0.20,0.65 -0.24,0.67 -0.03,0.02 -0.52,0.06 -1.08,0.09 -0.56,0.02 -1.24,0.07 -1.51,0.10 -0.31,0.03 -0.49,0.02 -0.49,-0.04 0,-0.15 0.07,-0.17 1.26,-0.34 0.68,-0.09 1.18,-0.21 1.28,-0.30 0.21,-0.18 0.69,-1.18 0.77,-1.61 0.08,-0.42 -0.06,-0.27 -0.26,0.28 -0.21,0.58 -0.54,0.92 -0.85,0.86 l -0.24,-0.04 0.23,-0.27 c 0.31,-0.37 0.43,-0.87 0.40,-1.71 -0.01,-0.50 -0.06,-0.71 -0.15,-0.75 -0.07,-0.02 -0.16,-0.00 -0.19,0.05 -0.04,0.07 -0.08,0.06 -0.14,-0.02 -0.10,-0.17 -0.50,-0.38 -0.50,-0.26 0,0.05 -0.18,0.02 -0.42,-0.05 -0.45,-0.15 -0.57,-0.26 -0.18,-0.16 0.23,0.06 0.28,-0.02 0.24,-0.45 -0.01,-0.14 0.07,-0.16 0.66,-0.15 z m 1.20,0 c 0.08,0.00 0.29,0.07 0.54,0.19 0.23,0.11 0.47,0.19 0.53,0.18 0.19,-0.03 0.22,0.14 0.22,1.17 3.75e-4,1.05 -0.18,2.29 -0.41,2.85 -0.11,0.27 -0.17,0.32 -0.34,0.28 -0.12,-0.03 -0.24,-9.26e-4 -0.29,0.07 -0.06,0.09 -0.07,0.08 -0.03,-0.05 0.22,-0.66 0.33,-1.48 0.39,-2.68 0.06,-1.50 0.05,-1.53 -0.48,-1.86 -0.19,-0.11 -0.21,-0.17 -0.12,-0.16 z m -10.33,0.03 c 0.05,0.00 0.12,0.04 0.21,0.14 0.15,0.15 0.23,0.17 0.33,0.09 0.07,-0.05 0.17,-0.07 0.23,-0.04 0.06,0.04 0.03,0.11 -0.08,0.20 -0.10,0.07 -0.23,0.11 -0.28,0.07 -0.15,-0.09 -0.10,0.20 0.05,0.33 0.12,0.10 0.10,0.15 -0.16,0.42 -0.43,0.43 -0.53,0.42 -0.33,-0.01 0.08,-0.19 0.08,-0.26 -0.00,-0.31 -0.08,-0.05 -0.08,-0.13 -0.02,-0.30 0.06,-0.16 0.05,-0.27 -0.01,-0.34 -0.07,-0.07 -0.07,-0.13 -0.00,-0.20 0.02,-0.02 0.05,-0.04 0.09,-0.04 z m 5.73,0.23 c 0.01,-0.00 0.04,0.00 0.06,0.03 0.03,0.03 0.03,0.10 0.01,0.17 -0.03,0.09 -0.05,0.09 -0.11,0 -0.05,-0.09 -0.02,-0.19 0.02,-0.20 l 0,0 z m 1.20,0.03 0,0 c -0.16,0.01 -0.44,0.10 -0.44,0.16 0,0.11 0.44,0.10 0.51,-0.01 0.03,-0.05 0.04,-0.11 0.02,-0.13 -0.00,-0.00 -0.02,-0.01 -0.04,-0.01 -0.01,-0.00 -0.03,-0.00 -0.06,-9.25e-4 z m 8.04,0.28 c 0.02,-0.00 0.05,0.03 0.11,0.09 0.11,0.13 0.13,0.13 0.25,-0.01 0.11,-0.14 0.12,-0.08 0.07,0.53 -0.03,0.38 -0.10,0.85 -0.16,1.05 -0.05,0.19 -0.15,0.35 -0.22,0.35 -0.21,0 -0.20,-0.23 0.02,-0.44 0.18,-0.17 0.21,-0.29 0.21,-0.74 -0.00,-0.52 -0.01,-0.53 -0.10,-0.21 -0.05,0.18 -0.11,0.38 -0.13,0.45 -0.01,0.06 -0.07,0.09 -0.13,0.06 -0.10,-0.06 -0.11,-0.75 -0.01,-1.01 0.03,-0.07 0.05,-0.11 0.07,-0.12 z m -7.08,0.17 c 0.12,-0.00 0.39,0.07 0.78,0.25 0.21,0.09 0.49,0.19 0.63,0.22 0.20,0.04 0.25,0.12 0.30,0.47 0.14,0.97 -0.33,2.00 -1.07,2.27 -0.12,0.04 -0.52,0.11 -0.87,0.15 l -0.64,0.06 0.06,-0.26 c 0.03,-0.14 0.13,-0.39 0.21,-0.54 0.08,-0.15 0.22,-0.42 0.31,-0.60 l 0.17,-0.32 0.00,0.28 c 0.00,0.24 0.23,0.59 0.39,0.59 0.02,0 0.03,-0.26 0.00,-0.59 -0.03,-0.45 -0.01,-0.64 0.10,-0.83 0.20,-0.31 0.01,-0.44 -0.22,-0.14 -0.09,0.11 -0.18,0.25 -0.18,0.30 -0.00,0.04 -0.10,0.17 -0.22,0.28 -0.12,0.11 -0.24,0.26 -0.26,0.33 -0.02,0.07 -0.07,0.11 -0.10,0.08 -0.07,-0.06 0.18,-1.17 0.36,-1.55 0.07,-0.16 0.13,-0.34 0.13,-0.40 0,-0.04 0.03,-0.06 0.08,-0.06 z m -4.52,0.07 c 0.08,0.00 0.19,0.06 0.34,0.18 0.19,0.15 0.24,0.27 0.24,0.56 0,0.20 -0.03,0.36 -0.07,0.36 -0.03,0 -0.20,-0.12 -0.37,-0.28 -0.20,-0.19 -0.30,-0.37 -0.30,-0.56 0,-0.18 0.04,-0.27 0.15,-0.26 z m 7.99,0.08 c -0.12,0 -0.21,0.17 -0.14,0.28 0.09,0.15 0.23,0.10 0.23,-0.09 0,-0.10 -0.03,-0.18 -0.08,-0.18 z m -9.78,0.18 c 0.31,0 0.69,0.22 0.58,0.33 -0.03,0.03 -0.27,0.08 -0.52,0.11 -0.34,0.03 -0.46,0.01 -0.50,-0.09 -0.07,-0.20 0.11,-0.34 0.44,-0.34 z m -0.80,0.43 c 0.00,0.00 0.00,0.00 0.00,0.01 0,0.04 -0.09,0.16 -0.21,0.26 -0.37,0.32 -0.53,0.43 -0.53,0.35 0.00,-0.10 0.65,-0.64 0.73,-0.62 z m 10.48,0.14 c -0.05,0 -0.09,0.07 -0.09,0.21 0,0.15 0.04,0.23 0.11,0.21 0.06,-0.02 0.11,-0.11 0.11,-0.21 0,-0.09 -0.05,-0.18 -0.11,-0.21 -0.00,-0.00 -0.01,-0.00 -0.02,-0.00 z m -4.65,0.07 c -0.08,0 -0.21,0.67 -0.19,1.06 0.00,0.19 0.00,0.19 0.08,0.01 0.12,-0.32 0.21,-1.07 0.11,-1.07 z m 6.36,0.00 c 0.01,-0.00 0.05,0.03 0.12,0.09 0.08,0.08 0.11,0.21 0.08,0.30 -0.03,0.08 -0.11,0.15 -0.19,0.15 -0.19,0 -0.15,-0.18 0.03,-0.19 0.09,-0.00 0.11,-0.02 0.04,-0.05 -0.06,-0.02 -0.11,-0.11 -0.11,-0.19 0,-0.06 0.00,-0.10 0.02,-0.10 z m 5.40,0.17 c -0.05,0 -0.09,0.04 -0.09,0.09 0,0.05 0.04,0.09 0.09,0.09 0.05,0 0.09,-0.04 0.09,-0.09 0,-0.05 -0.04,-0.09 -0.09,-0.09 z m -5.42,0.45 c 0.05,0.00 0.08,0.03 0.08,0.10 0,0.05 -0.06,0.09 -0.15,0.09 -0.12,0 -0.13,0.02 -0.03,0.14 0.09,0.11 0.08,0.14 -0.10,0.14 -0.16,0.00 -0.18,0.02 -0.09,0.08 0.17,0.10 0.04,0.29 -0.15,0.22 -0.13,-0.04 -0.14,-0.03 -0.02,0.05 0.12,0.09 0.12,0.11 0,0.19 -0.15,0.10 -0.17,0.10 -0.35,0.03 -0.17,-0.07 -0.14,-0.29 0.05,-0.35 0.09,-0.03 0.25,-0.20 0.34,-0.38 0.11,-0.20 0.30,-0.34 0.42,-0.33 z m -1.64,0.10 c -0.07,0 -0.14,0.08 -0.14,0.18 0,0.22 0.14,0.24 0.22,0.03 0.08,-0.20 0.07,-0.22 -0.08,-0.22 z m -8.50,0.03 c 0.01,-9.25e-4 0.02,0.00 0.03,0.01 0.05,0.03 0.09,0.09 0.09,0.14 0,0.04 -0.04,0.08 -0.09,0.08 -0.05,0 -0.09,-0.06 -0.09,-0.14 0,-0.06 0.02,-0.09 0.05,-0.09 z m 6.28,0.09 c -0.02,-0.00 -0.06,0.08 -0.16,0.26 -0.10,0.19 -0.22,0.35 -0.27,0.35 -0.05,0 -0.09,0.04 -0.09,0.09 0,0.14 0.10,0.11 0.34,-0.10 0.12,-0.11 0.21,-0.30 0.21,-0.44 -0.00,-0.09 -0.00,-0.15 -0.02,-0.15 z m 18.15,0.27 c -0.01,0.08 -0.02,0.13 -0.03,0.21 l 0.03,0 0,-0.21 z m -24.48,0.05 c 0.04,0 0.09,0.06 0.09,0.14 0,0.07 -0.01,0.14 -0.03,0.14 -0.02,0 -0.06,-0.06 -0.09,-0.14 -0.02,-0.07 -0.01,-0.14 0.03,-0.14 z m 8.47,0.18 c -0.09,0 -0.15,0.08 -0.15,0.23 0,0.12 0.04,0.23 0.09,0.23 0.05,0 0.09,-0.03 0.09,-0.08 0,-0.04 0.02,-0.15 0.05,-0.23 0.03,-0.09 0.00,-0.14 -0.09,-0.14 z m -8.73,0.01 c 0.04,-0.01 0.12,0.08 0.19,0.29 0.05,0.16 0.05,0.28 -0.00,0.34 -0.06,0.06 -0.12,-0.03 -0.19,-0.28 -0.05,-0.21 -0.04,-0.33 -0.00,-0.35 z m 9.30,0.07 c 0.03,0 0.12,0.08 0.18,0.18 0.12,0.20 0.01,0.33 -0.14,0.16 -0.12,-0.12 -0.14,-0.35 -0.03,-0.35 z m -9.55,0.18 c 0.04,0 0.13,0.19 0.20,0.42 0.13,0.46 0.07,0.69 -0.08,0.28 C 15.48,41.10 15.43,40.82 15.52,40.82 z m 8.75,0.52 c -0.11,-0.00 -0.23,0.29 -0.15,0.43 0.06,0.11 0.19,0.01 0.24,-0.19 0.02,-0.10 -0.00,-0.20 -0.07,-0.22 -0.00,-0.00 -0.01,-0.00 -0.02,-0.00 z m 4.15,0.97 c 0.02,0 0.03,0.06 0.03,0.14 0,0.07 -0.04,0.14 -0.09,0.14 -0.04,0 -0.06,-0.06 -0.03,-0.14 0.02,-0.07 0.07,-0.14 0.09,-0.14 z m 2.31,0.21 c 0.00,0.00 0.01,0.01 0.02,0.04 0.02,0.06 0.02,0.14 -0.00,0.17 -0.03,0.03 -0.05,-0.02 -0.04,-0.12 0.00,-0.06 0.01,-0.10 0.02,-0.10 z m 1.07,0.44 c 0.05,0.00 0.11,0.12 0.18,0.33 0.08,0.26 0.08,0.48 -0.00,0.88 -0.06,0.29 -0.13,0.53 -0.16,0.53 -0.11,0 -0.29,-0.57 -0.22,-0.72 0.07,-0.17 0.09,-0.28 0.11,-0.74 0.00,-0.20 0.04,-0.29 0.09,-0.29 z m -3.38,0.00 0,0 c 0.01,0.00 0.02,0.05 0.02,0.14 7.61e-4,0.11 -0.04,0.21 -0.09,0.21 -0.11,0 -0.11,-0.09 0,-0.28 0.02,-0.04 0.04,-0.06 0.06,-0.07 0.00,-0.00 0.00,-0.00 0.00,-9.25e-4 z m 1.41,0.83 c 0.10,0.00 0.06,0.12 -0.10,0.46 -0.29,0.57 -0.44,0.59 -0.32,0.05 0.06,-0.28 0.15,-0.44 0.27,-0.48 0.06,-0.02 0.11,-0.03 0.15,-0.03 z m 1.45,1.25 c 0.02,0.00 0.05,0.05 0.10,0.15 0.06,0.12 0.12,0.30 0.12,0.41 -3.75e-4,0.10 -0.07,0.33 -0.17,0.51 -0.14,0.27 -0.18,0.30 -0.24,0.16 -0.03,-0.09 -0.01,-0.22 0.04,-0.30 0.06,-0.07 0.08,-0.17 0.05,-0.23 -0.03,-0.05 -0.03,-0.25 0.00,-0.43 0.03,-0.19 0.05,-0.27 0.08,-0.27 z m -2.04,0.61 c 0.08,-0.00 0.08,0.05 0,0.23 -0.11,0.24 -0.28,0.30 -0.39,0.13 -0.06,-0.10 0.20,-0.36 0.39,-0.36 z" />
</svg>
