<?xml version="1.0" encoding="UTF-8" standalone="no"?>
<!-- Created with Inkscape (http://www.inkscape.org/) -->
<svg xmlns:dc="http://purl.org/dc/elements/1.1/" xmlns:cc="http://creativecommons.org/ns#" xmlns:rdf="http://www.w3.org/1999/02/22-rdf-syntax-ns#" xmlns:svg="http://www.w3.org/2000/svg" xmlns="http://www.w3.org/2000/svg" version="1.0" width="100%" height="100%" viewBox="0 0 48 48" id="svg2">
<defs id="defs9" />
<path d="m 27.52,45.78 c -0.15,-0.22 -0.18,-1.96 -0.04,-2.12 0.08,-0.08 0.13,-0.36 0.12,-0.62 -0.01,-0.26 0.05,-0.53 0.16,-0.62 0.44,-0.38 1.44,-1.01 3.08,-1.93 0.81,-0.45 1.01,-0.63 1.19,-1.04 0.38,-0.90 0.03,-1.61 -1.2,-2.39 -1.54,-0.97 -2.52,-2.61 -2.47,-4.14 0.06,-1.89 0.05,-2.11 -0.18,-2.44 -0.29,-0.40 -0.20,-0.49 0.19,-0.19 0.27,0.20 0.31,0.32 0.30,1.10 -0.00,0.48 -0.02,1.19 -0.04,1.59 -0.02,0.48 0.03,0.91 0.19,1.33 0.28,0.74 1.23,2.00 1.50,2.00 0.10,0 0.24,0.10 0.32,0.22 0.19,0.33 0.37,0.29 0.48,-0.10 0.08,-0.31 0.08,-0.31 0.04,0.07 -0.04,0.38 0.01,0.48 0.52,0.90 0.31,0.25 0.60,0.44 0.64,0.41 0.11,-0.10 1.02,-0.03 1.11,0.08 0.04,0.06 0.26,-0.13 0.48,-0.44 0.24,-0.34 0.69,-0.72 1.13,-0.98 0.67,-0.38 0.73,-0.45 0.73,-0.86 8.99e-4,-0.24 -0.10,-0.59 -0.22,-0.76 -0.15,-0.22 -0.22,-0.55 -0.22,-1.10 -8.99e-4,-0.65 0.05,-0.87 0.34,-1.25 0.33,-0.45 1.16,-1.01 1.16,-0.78 0,0.06 -0.20,0.22 -0.44,0.35 -0.24,0.13 -0.51,0.36 -0.60,0.51 -0.15,0.26 -0.14,0.26 0.08,0.08 0.13,-0.10 0.43,-0.25 0.66,-0.34 0.23,-0.08 0.57,-0.28 0.75,-0.45 0.22,-0.20 0.32,-0.24 0.32,-0.12 0,0.09 -0.07,0.23 -0.15,0.31 -0.19,0.17 -0.08,0.18 0.34,0.00 0.37,-0.15 0.42,-0.31 0.13,-0.41 -0.32,-0.11 -0.22,-0.43 0.28,-0.84 0.46,-0.37 0.47,-0.39 0.22,-0.56 -0.24,-0.16 -0.23,-0.17 0.10,-0.25 0.43,-0.09 0.46,-0.25 0.06,-0.32 -0.23,-0.04 -0.21,-0.05 0.09,-0.06 0.21,-0.00 0.48,-0.07 0.58,-0.13 0.14,-0.08 0.07,-0.09 -0.22,-0.04 -0.78,0.13 -1.04,-0.00 -1.34,-0.75 -0.36,-0.89 -0.88,-1.63 -2.13,-2.99 -0.56,-0.61 -0.98,-1.14 -0.94,-1.18 0.24,-0.22 2.66,2.57 3.12,3.59 0.35,0.8 0.59,1.04 0.91,0.95 0.14,-0.04 0.69,-0.33 1.21,-0.64 1.20,-0.71 1.96,-0.84 2.84,-0.49 0.32,0.13 0.64,0.33 0.72,0.46 0.07,0.12 0.60,1.22 0.59,2.11 -0.00,0.88 -0.53,1.18 -0.58,1.01 -0.07,-0.23 -0.09,-0.17 -0.10,0.26 -0.00,0.30 -0.08,0.70 -0.16,0.89 -0.08,0.18 -0.15,0.38 -0.16,0.45 -0.00,0.06 -0.07,0.11 -0.14,0.12 -0.25,0.00 -0.45,0.19 -0.45,0.42 0,0.12 -0.06,0.23 -0.13,0.23 -0.07,0 -0.09,-0.06 -0.04,-0.14 0.07,-0.11 0.05,-0.11 -0.07,-0.00 -0.14,0.11 -0.12,0.23 0.07,0.65 0.13,0.27 0.23,0.55 0.21,0.61 -0.02,0.05 0.06,0.21 0.19,0.35 0.12,0.13 0.16,0.20 0.07,0.15 -0.18,-0.09 -0.95,-1.08 -0.95,-1.22 0,-0.05 0.08,0.01 0.19,0.14 0.21,0.25 0.27,0.10 0.07,-0.18 -0.14,-0.20 -0.33,-0.07 -0.43,0.29 -0.03,0.13 -0.06,0.01 -0.07,-0.26 -0.00,-0.27 -0.06,-0.50 -0.13,-0.50 -0.06,0 -0.09,0.12 -0.06,0.26 0.05,0.26 0.05,0.26 -0.07,-0.01 -0.07,-0.15 -0.09,-0.34 -0.04,-0.41 0.06,-0.10 0.04,-0.10 -0.08,0.00 -0.09,0.08 -0.17,0.49 -0.20,1.02 l -0.03,0.88 0.64,0.58 c 0.35,0.32 0.83,0.65 1.06,0.72 0.23,0.07 0.31,0.14 0.19,0.14 -0.42,0.01 -0.95,-0.24 -1.46,-0.74 -0.41,-0.4 -0.47,-0.42 -0.27,-0.14 0.13,0.19 0.35,0.42 0.48,0.51 0.30,0.19 0.31,0.42 0.01,0.33 -0.12,-0.03 -0.05,0.06 0.16,0.22 0.51,0.39 0.28,0.38 -0.28,-0.00 -0.24,-0.16 -0.4,-0.36 -0.35,-0.43 0.05,-0.08 0.02,-0.09 -0.07,-0.04 -0.12,0.06 -0.10,0.14 0.05,0.30 0.26,0.27 0.02,0.45 -0.30,0.22 -0.12,-0.08 -0.08,-0.01 0.09,0.16 0.27,0.28 0.33,0.30 0.46,0.13 0.13,-0.16 0.19,-0.15 0.50,0.10 0.19,0.16 0.45,0.27 0.58,0.24 0.12,-0.02 0.37,0.00 0.55,0.07 0.32,0.12 0.32,0.12 -0.04,0.06 -0.22,-0.04 -0.33,-0.02 -0.29,0.04 0.04,0.06 0.00,0.14 -0.08,0.17 -0.09,0.03 -0.06,0.06 0.07,0.06 0.18,0.00 0.22,0.07 0.16,0.29 -0.04,0.17 -0.01,0.31 0.08,0.35 0.08,0.03 -8.98e-4,0.04 -0.20,0.00 -0.22,-0.03 -0.47,0.00 -0.65,0.12 -0.28,0.18 -0.28,0.18 0.10,0.12 0.21,-0.03 0.30,-0.03 0.19,0.01 -0.23,0.09 -0.57,0.39 -0.45,0.39 0.05,0 -0.32,0.40 -0.84,0.89 -0.51,0.49 -0.93,0.97 -0.93,1.07 0,0.09 -0.05,0.17 -0.12,0.17 -0.06,0 -0.26,0.14 -0.44,0.31 -0.22,0.22 -0.31,0.42 -0.28,0.69 0.03,0.40 0.51,0.95 0.73,0.83 0.46,-0.26 0.68,0.85 0.31,1.65 -0.24,0.53 -0.41,0.63 -0.71,0.38 -0.18,-0.15 -0.22,-0.32 -0.17,-0.75 0.03,-0.30 0.10,-0.70 0.17,-0.88 0.09,-0.26 0.06,-0.34 -0.13,-0.44 -0.13,-0.06 -0.28,-0.30 -0.33,-0.53 -0.07,-0.36 -0.10,-0.39 -0.27,-0.23 -0.10,0.09 -0.23,0.15 -0.28,0.12 -0.04,-0.02 -0.09,0.26 -0.09,0.65 -0.00,0.57 0.03,0.71 0.22,0.77 0.13,0.03 0.23,0.13 0.23,0.22 0,0.08 0.08,0.22 0.19,0.30 0.10,0.08 0.19,0.20 0.19,0.28 0,0.07 -0.14,-0.01 -0.32,-0.18 -0.17,-0.17 -0.32,-0.37 -0.32,-0.44 0,-0.06 -0.09,-0.12 -0.21,-0.12 -0.16,0 -0.19,-0.07 -0.12,-0.31 0.05,-0.20 -0.01,-0.48 -0.19,-0.84 l -0.28,-0.53 0.37,-0.45 c 1.15,-1.38 1.49,-1.77 1.87,-2.14 l 0.42,-0.40 -0.36,-0.17 c -0.20,-0.09 -0.49,-0.27 -0.65,-0.40 -0.15,-0.13 -0.58,-0.36 -0.94,-0.51 -0.36,-0.15 -0.66,-0.32 -0.66,-0.37 0,-0.05 -0.11,-0.16 -0.26,-0.24 -0.14,-0.08 -0.26,-0.09 -0.26,-0.03 0,0.06 0.33,0.33 0.74,0.59 0.40,0.26 0.68,0.48 0.61,0.48 -0.30,0 -1.35,-0.73 -1.94,-1.36 -0.76,-0.81 -1.28,-1.06 -1.77,-0.83 -0.40,0.18 -0.82,0.59 -1.08,1.07 -0.18,0.33 -0.18,0.37 0.04,0.50 0.13,0.07 0.42,0.14 0.64,0.14 0.59,0 0.80,0.60 0.31,0.87 -0.09,0.05 -0.14,0.14 -0.10,0.20 0.08,0.12 -0.44,0.47 -0.72,0.47 -0.37,0 -2.32,0.93 -2.47,1.17 -0.07,0.13 -0.30,0.27 -0.50,0.31 -0.20,0.04 -0.65,0.29 -1.01,0.56 -0.52,0.39 -0.64,0.55 -0.64,0.86 0,0.33 -0.03,0.36 -0.37,0.34 -0.34,-0.02 -0.36,-8.99e-4 -0.28,0.29 0.04,0.17 0.17,0.40 0.27,0.51 0.31,0.31 0.21,0.58 -0.42,1.19 -0.58,0.55 -0.98,0.71 -1.14,0.47 z m 1.02,-0.73 c 0.55,-0.57 0.56,-0.62 0.21,-1.02 -0.14,-0.16 -0.26,-0.40 -0.26,-0.52 0,-0.47 -0.53,-0.20 -0.72,0.37 -0.09,0.29 -0.09,0.29 0.18,0.07 0.44,-0.35 0.49,-0.10 0.07,0.31 -0.21,0.20 -0.27,0.30 -0.15,0.22 0.35,-0.24 0.43,-0.04 0.11,0.26 -0.28,0.27 -0.36,0.56 -0.19,0.71 0.15,0.14 0.26,0.08 0.74,-0.41 z m 11.74,-0.41 c 0.16,-0.69 0.06,-0.97 -0.32,-0.84 -0.23,0.08 -0.40,0.90 -0.28,1.39 0.12,0.52 0.40,0.27 0.60,-0.55 z m 1.03,-5.17 c 0,-0.06 -0.10,-0.15 -0.22,-0.19 -0.12,-0.04 -0.27,-0.14 -0.33,-0.23 -0.05,-0.08 -0.20,-0.15 -0.32,-0.15 -0.15,0 -0.17,-0.03 -0.07,-0.13 0.10,-0.09 0.23,-0.07 0.46,0.06 0.18,0.11 0.42,0.15 0.55,0.11 0.15,-0.05 0.20,-0.03 0.14,0.04 -0.05,0.08 0.01,0.10 0.20,0.05 0.20,-0.04 0.23,-0.08 0.09,-0.12 -0.10,-0.02 -0.30,-0.10 -0.43,-0.16 -0.17,-0.08 -0.21,-0.07 -0.15,0.01 0.10,0.15 0.05,0.16 -0.24,0.05 -0.15,-0.05 -0.17,-0.11 -0.07,-0.22 0.10,-0.11 0.06,-0.13 -0.16,-0.09 -0.19,0.03 -0.38,-0.03 -0.54,-0.19 -0.28,-0.28 -0.42,-0.31 -0.42,-0.08 0,0.10 0.07,0.14 0.20,0.09 0.17,-0.06 0.18,-0.04 0.03,0.11 -0.13,0.14 -0.13,0.21 -0.01,0.27 0.11,0.06 0.08,0.13 -0.09,0.26 -0.20,0.14 -0.21,0.16 -0.02,0.10 0.12,-0.03 0.25,-0.01 0.30,0.04 0.04,0.06 0.18,0.11 0.31,0.11 0.13,0 0.31,0.08 0.40,0.17 0.18,0.20 0.39,0.23 0.39,0.05 z m -1.23,-0.82 c -0.04,-0.06 -0.02,-0.14 0.04,-0.18 0.06,-0.03 0.15,-0.01 0.20,0.04 0.04,0.06 0.02,0.14 -0.04,0.18 -0.06,0.03 -0.15,0.01 -0.20,-0.04 z m 2.62,-0.04 c 0.05,-0.05 0.00,-0.06 -0.11,-0.01 -0.29,0.10 -0.58,-0.05 -0.34,-0.19 0.14,-0.08 0.14,-0.10 -0.01,-0.10 -0.12,-0.00 -0.14,-0.03 -0.05,-0.09 0.09,-0.05 -0.01,-0.18 -0.29,-0.35 -0.24,-0.14 -0.43,-0.21 -0.43,-0.15 0,0.06 0.11,0.16 0.26,0.23 0.14,0.07 0.23,0.17 0.18,0.24 -0.04,0.06 0,0.11 0.09,0.11 0.11,0.00 0.09,0.05 -0.05,0.16 -0.12,0.08 -0.22,0.17 -0.22,0.20 0,0.08 0.89,0.04 0.99,-0.04 z m -4.13,-0.55 c -0.20,-0.36 -0.31,-0.45 -0.52,-0.40 -0.20,0.04 -0.24,0.01 -0.18,-0.13 0.04,-0.11 0.16,-0.17 0.25,-0.14 0.09,0.03 0.01,-0.19 -0.17,-0.52 -0.22,-0.38 -0.37,-0.53 -0.44,-0.43 -0.17,0.25 -0.11,0.55 0.14,0.70 0.18,0.10 0.22,0.19 0.13,0.34 -0.09,0.15 -0.00,0.29 0.40,0.63 0.28,0.23 0.55,0.42 0.58,0.42 0.03,0 -0.04,-0.21 -0.19,-0.46 z m 0.72,0.01 c -0.22,-0.19 -0.22,-0.19 -0.06,0.05 0.09,0.14 0.20,0.23 0.23,0.20 0.03,-0.03 -0.04,-0.15 -0.17,-0.26 z m 1.56,-0.02 c -0.04,-0.06 -0.20,-0.17 -0.36,-0.24 -0.27,-0.11 -0.27,-0.11 0.02,0.11 0.33,0.26 0.47,0.31 0.34,0.12 z m -1.24,-0.23 c 0,-0.06 -0.06,-0.11 -0.13,-0.11 -0.07,0 -0.10,0.05 -0.05,0.11 0.04,0.06 0.10,0.11 0.13,0.11 0.03,0 0.05,-0.05 0.05,-0.11 z M 39.96,37.57 c -0.22,-0.19 -0.22,-0.19 -0.06,0.05 0.09,0.14 0.20,0.23 0.23,0.20 0.03,-0.03 -0.04,-0.14 -0.17,-0.26 z m -2.82,-0.07 c 0,-0.02 -0.10,-0.11 -0.22,-0.20 -0.20,-0.14 -0.21,-0.14 -0.04,0.04 0.17,0.19 0.27,0.26 0.27,0.16 z m 1.77,-0.18 c -0.04,-0.06 -0.01,-0.12 0.05,-0.14 0.07,-0.02 -0.10,-0.32 -0.4,-0.66 -0.28,-0.34 -0.58,-0.59 -0.64,-0.56 -0.06,0.03 -0.13,-0.15 -0.13,-0.44 -0.00,-0.28 -0.04,-0.41 -0.07,-0.29 -0.11,0.40 0.10,1.26 0.39,1.54 0.15,0.14 0.21,0.18 0.13,0.08 -0.08,-0.10 -0.18,-0.31 -0.23,-0.48 -0.08,-0.27 -0.07,-0.28 0.07,-0.06 0.08,0.13 0.29,0.36 0.45,0.52 0.16,0.15 0.26,0.35 0.22,0.44 -0.03,0.08 0,0.16 0.08,0.16 0.08,0 0.11,-0.04 0.07,-0.10 z m 0.8,-0.18 c 0,-0.09 -0.04,-0.14 -0.11,-0.11 -0.06,0.03 -0.07,0.11 -0.03,0.17 0.10,0.15 0.14,0.13 0.14,-0.06 z M 36.94,36.29 c -0.13,-0.45 -0.19,-0.54 -0.26,-0.37 -0.05,0.13 -0.00,0.38 0.12,0.64 0.29,0.56 0.35,0.46 0.14,-0.26 z m -0.48,0.23 c -0.08,-0.16 -0.17,-0.27 -0.20,-0.24 -0.09,0.08 0.10,0.54 0.23,0.54 0.06,0 0.05,-0.13 -0.03,-0.29 z m 3.95,-0.17 c -0.25,-0.45 -0.39,-0.58 -0.39,-0.38 8.99e-4,0.12 0.50,0.86 0.58,0.86 0.03,0 -0.05,-0.21 -0.19,-0.47 z m -4.42,0.09 c -0.09,-0.08 -0.15,-0.09 -0.15,-0.01 0,0.06 0.03,0.15 0.08,0.20 0.04,0.04 0.11,0.05 0.15,0.01 0.03,-0.03 -0.00,-0.12 -0.08,-0.20 z m 1.42,-0.22 c 0.10,-0.18 0.10,-0.29 -0.01,-0.41 -0.31,-0.34 -0.52,-0.03 -0.30,0.47 0.10,0.24 0.14,0.23 0.31,-0.05 z m -1.25,-0.79 c -0.23,-0.20 -0.23,-0.20 -0.14,0.00 0.05,0.12 0.09,0.27 0.09,0.35 0,0.09 0.04,0.09 0.14,-0.00 0.11,-0.10 0.08,-0.18 -0.09,-0.35 z m 3.03,-1.67 c -0.06,-0.05 -0.47,0.89 -0.46,1.07 0.00,0.08 0.11,-0.11 0.25,-0.44 0.13,-0.32 0.23,-0.60 0.20,-0.63 z m 3.23,0.97 c -0.04,-0.10 -0.10,-0.15 -0.13,-0.12 -0.03,0.03 -0.02,0.11 0.02,0.18 0.12,0.19 0.20,0.15 0.11,-0.05 z m -5.95,-2.00 0.34,-0.34 -0.41,0.19 c -0.39,0.18 -0.96,0.72 -0.96,0.92 0,0.05 0.06,0.24 0.14,0.43 l 0.14,0.33 0.19,-0.59 c 0.10,-0.32 0.34,-0.75 0.54,-0.93 z m 4.01,0.31 0.23,-0.32 -0.28,0.22 c -0.15,0.12 -0.28,0.27 -0.28,0.32 0,0.17 0.09,0.11 0.33,-0.22 z m 1.45,-1.73 c -0.11,-0.40 -0.58,-0.91 -0.84,-0.91 -0.15,8.98e-4 -0.09,0.08 0.19,0.29 0.22,0.16 0.45,0.46 0.50,0.66 0.04,0.20 0.11,0.33 0.15,0.30 0.03,-0.03 0.03,-0.19 -0.00,-0.34 z m -2.21,-0.29 c -0.03,-0.11 -0.06,-0.05 -0.06,0.14 -0.00,0.19 0.02,0.29 0.06,0.21 0.03,-0.08 0.03,-0.24 0.00,-0.35 z m 2.26,-0.73 c 0,-0.12 -0.11,-0.35 -0.25,-0.50 l -0.25,-0.28 0.22,0.50 c 0.25,0.56 0.29,0.60 0.29,0.28 z m 0.26,-1.01 c 0,-0.02 -0.10,-0.11 -0.22,-0.20 -0.20,-0.14 -0.21,-0.14 -0.04,0.04 0.17,0.19 0.27,0.26 0.27,0.16 z m -0.88,-0.62 c -0.08,-0.03 -0.26,-0.03 -0.39,-0.00 -0.12,0.03 -0.05,0.05 0.16,0.05 0.21,0.00 0.32,-0.02 0.23,-0.05 z M 9.76,43.68 c -0.19,-0.17 -0.19,-0.22 -0.00,-0.56 0.11,-0.20 0.28,-0.44 0.37,-0.53 0.09,-0.08 0.17,-0.28 0.17,-0.44 0,-0.15 0.06,-0.31 0.14,-0.36 0.10,-0.05 0.09,-0.11 -0.03,-0.19 -0.12,-0.08 -0.09,-0.09 0.11,-0.05 0.23,0.04 0.29,0.00 0.29,-0.18 0,-0.13 0.10,-0.33 0.23,-0.43 0.62,-0.52 1.44,-1.90 1.23,-2.09 -0.04,-0.04 -0.02,-0.11 0.05,-0.16 0.18,-0.10 0.52,-1.11 0.63,-1.87 0.07,-0.49 0.17,-0.67 0.64,-1.07 0.60,-0.51 1.00,-1.15 1.39,-2.19 0.30,-0.83 0.30,-0.96 0.02,-0.96 -0.12,0 -0.43,-0.11 -0.68,-0.25 -1.21,-0.66 -2.14,-1.86 -2.36,-3.04 -0.10,-0.56 -0.23,-0.88 -0.41,-1.01 -0.22,-0.16 -0.25,-0.28 -0.19,-0.76 0.04,-0.32 0.16,-0.63 0.27,-0.71 0.30,-0.20 0.65,-2.19 0.55,-3.21 -0.09,-1.05 -0.35,-1.97 -0.55,-2.05 -0.08,-0.02 -0.35,-0.00 -0.60,0.05 -0.25,0.06 -0.75,0.07 -1.15,0.01 -0.38,-0.05 -0.98,-0.12 -1.33,-0.17 -0.42,-0.05 -0.62,-0.13 -0.62,-0.25 0,-0.10 -0.06,-0.14 -0.15,-0.09 -0.10,0.05 -0.12,0.02 -0.07,-0.10 0.04,-0.10 0,-0.21 -0.10,-0.25 -0.11,-0.03 -0.15,-0.15 -0.10,-0.27 0.05,-0.15 0.02,-0.14 -0.13,0.05 -0.12,0.15 -0.29,0.23 -0.40,0.19 -0.22,-0.08 -0.23,-0.03 -0.06,0.36 0.09,0.23 0.07,0.41 -0.08,0.72 -0.23,0.44 -0.31,0.48 -0.70,0.29 -0.18,-0.08 -0.35,-0.07 -0.64,0.06 C 4.93,22.35 4.68,22.21 4.30,21.48 4.14,21.17 3.94,20.81 3.87,20.69 3.55,20.15 4.01,19.17 5.17,17.96 5.44,17.67 5.78,17.28 5.94,17.09 6.09,16.89 6.26,16.77 6.32,16.82 c 0.05,0.04 -0.12,0.31 -0.38,0.59 -0.55,0.59 -0.51,0.53 -1.30,1.51 -0.61,0.75 -0.70,1.07 -0.48,1.58 0.06,0.15 0.15,0.40 0.19,0.57 0.03,0.16 0.21,0.45 0.38,0.65 0.31,0.35 0.31,0.35 0.59,0.12 0.15,-0.12 0.31,-0.44 0.36,-0.71 0.07,-0.43 0.09,-0.45 0.18,-0.18 l 0.09,0.29 0.01,-0.31 C 5.98,20.71 5.90,20.62 5.65,20.56 5.40,20.50 5.33,20.41 5.34,20.16 l 0.01,-0.32 0.10,0.29 c 0.05,0.16 0.11,0.25 0.11,0.19 0.00,-0.05 0.09,-0.04 0.19,0.03 0.13,0.10 0.21,0.09 0.33,-0.03 0.11,-0.12 0.24,-0.14 0.48,-0.06 0.58,0.20 0.63,0.15 0.58,-0.50 L 7.13,19.13 6.70,19.56 c -0.23,0.23 -0.46,0.40 -0.50,0.36 -0.04,-0.03 -0.07,0.02 -0.07,0.14 0,0.20 -0.00,0.20 -0.26,8.99e-4 -0.36,-0.30 -0.32,-0.44 0.12,-0.39 0.23,0.02 0.48,-0.04 0.65,-0.18 0.32,-0.26 0.37,-0.52 0.05,-0.29 -0.18,0.13 -0.18,0.10 0.02,-0.19 0.38,-0.56 0.99,-1.04 1.14,-0.91 0.07,0.06 0.21,0.08 0.31,0.05 0.09,-0.03 0.18,0.00 0.18,0.08 0,0.09 0.13,0.03 0.32,-0.12 0.17,-0.15 0.32,-0.22 0.32,-0.16 0,0.06 -0.22,0.27 -0.49,0.47 -0.63,0.46 -0.88,0.59 -0.76,0.41 0.05,-0.07 0.03,-0.13 -0.04,-0.13 -0.07,0 -0.13,0.09 -0.13,0.21 0,0.11 -0.07,0.27 -0.15,0.35 -0.12,0.11 -0.12,0.17 0.00,0.29 0.13,0.11 0.14,0.10 0.06,-0.07 -0.06,-0.15 -0.04,-0.20 0.05,-0.14 0.08,0.04 0.26,0.01 0.40,-0.06 0.20,-0.11 0.40,-0.11 0.96,0.00 0.93,0.20 1.46,-0.01 1.66,-0.67 0.22,-0.72 0.14,-1.67 -0.12,-1.52 -0.05,0.03 -0.13,-0.02 -0.18,-0.12 -0.04,-0.10 -0.02,-0.15 0.05,-0.11 0.11,0.06 0.15,-0.01 0.11,-0.25 -0.00,-0.04 0.05,-0.11 0.14,-0.16 0.11,-0.06 0.11,-0.11 0.01,-0.16 -0.12,-0.07 -0.20,0.07 -0.16,0.31 0.00,0.04 -0.06,0.05 -0.16,0.02 -0.10,-0.03 -0.20,0.04 -0.25,0.21 -0.09,0.33 -0.86,1.17 -0.86,0.94 -8.98e-4,-0.10 -0.08,-0.13 -0.21,-0.08 -0.18,0.06 -0.18,0.04 -0.04,-0.11 0.11,-0.12 0.20,-0.14 0.25,-0.05 0.05,0.08 0.15,0.05 0.28,-0.08 0.29,-0.31 0.43,-0.56 0.27,-0.46 -0.07,0.04 -0.16,0.03 -0.19,-0.01 -0.02,-0.04 -0.03,-0.02 -0.01,0.05 0.02,0.07 -0.04,0.20 -0.15,0.28 -0.10,0.07 -0.18,0.10 -0.18,0.05 0,-0.04 -0.08,-0.02 -0.19,0.05 -0.23,0.17 -0.47,0.06 -0.37,-0.18 0.07,-0.18 0.44,-0.19 0.58,-0.01 0.04,0.05 0.12,0.04 0.17,-0.03 0.04,-0.07 0.02,-0.13 -0.05,-0.13 -0.08,0 -0.10,-0.06 -0.04,-0.14 0.06,-0.10 0.02,-0.09 -0.12,0.01 -0.34,0.25 -0.25,0.08 0.17,-0.32 C 9.71,16.14 9.76,15.91 9.39,16.02 9.22,16.07 8.98,15.99 8.70,15.80 7.83,15.21 7.58,15.10 7.48,15.25 c -0.06,0.09 -0.04,0.11 0.07,0.04 0.11,-0.06 0.13,-0.05 0.07,0.04 -0.05,0.07 -0.17,0.13 -0.28,0.13 -0.24,0 -0.24,0.19 0.00,0.28 0.10,0.03 0.19,0.02 0.19,-0.03 0,-0.05 0.09,-0.13 0.21,-0.17 0.17,-0.06 0.18,-0.04 0.05,0.09 -0.12,0.14 -0.10,0.19 0.12,0.31 0.17,0.08 0.25,0.20 0.19,0.32 -0.04,0.10 -0.00,0.23 0.08,0.29 0.11,0.07 0.06,0.09 -0.15,0.08 -0.17,-0.01 -0.43,0.01 -0.56,0.06 -0.12,0.05 -0.27,0.05 -0.31,0.01 -0.04,-0.04 -0.15,0.07 -0.24,0.25 -0.13,0.27 -0.16,0.29 -0.18,0.09 -0.01,-0.23 -0.02,-0.23 -0.12,-0.00 -0.09,0.21 -0.10,0.20 -0.16,-0.08 -0.05,-0.27 0.19,-0.98 0.41,-1.16 0.03,-0.03 0.08,-0.13 0.10,-0.22 0.03,-0.16 0.65,-0.97 0.84,-1.09 0.05,-0.03 0.16,-0.38 0.24,-0.77 0.15,-0.72 0.35,-1.07 0.46,-0.79 0.07,0.18 0.45,0.19 0.65,0.01 0.10,-0.09 0.21,-0.05 0.40,0.12 l 0.26,0.25 0.14,-0.36 c 0.26,-0.69 0.58,-0.30 0.51,0.63 -0.03,0.50 -0.01,0.51 0.96,0.61 0.26,0.02 0.64,0.11 0.85,0.18 0.20,0.07 0.40,0.14 0.43,0.15 0.59,0.13 0.78,0.21 0.78,0.33 8.99e-4,0.09 0.04,0.08 0.12,-0.03 0.09,-0.12 0.12,-0.13 0.12,-0.02 8.99e-4,0.08 0.06,0.12 0.13,0.08 0.07,-0.04 0.13,-0.01 0.13,0.05 0,0.06 0.11,0.12 0.24,0.12 0.13,0 0.28,0.08 0.32,0.17 0.04,0.09 0.12,0.16 0.17,0.15 0.15,-0.04 0.70,0.33 0.60,0.41 -0.04,0.04 0.07,0.10 0.26,0.15 0.18,0.04 0.34,0.11 0.34,0.16 0,0.05 0.18,0.16 0.40,0.24 0.34,0.13 0.45,0.12 0.77,-0.04 0.71,-0.38 0.83,-0.15 0.4,0.72 l -0.24,0.50 0.68,-0.50 c 0.65,-0.48 0.67,-0.51 0.48,-0.75 -0.11,-0.14 -0.22,-0.23 -0.25,-0.21 -0.02,0.02 -0.21,-0.03 -0.42,-0.13 -0.41,-0.19 -0.47,-0.42 -0.17,-0.64 0.16,-0.12 0.31,-0.08 0.86,0.22 0.36,0.20 0.68,0.36 0.69,0.34 0.01,-0.01 0.16,-0.37 0.32,-0.79 0.16,-0.41 0.40,-0.91 0.52,-1.10 0.17,-0.25 0.20,-0.46 0.13,-0.80 -0.07,-0.34 -0.04,-0.51 0.10,-0.64 0.14,-0.12 0.19,-0.37 0.16,-0.84 -0.01,-0.38 0.02,-0.65 0.09,-0.65 0.09,0 0.08,-0.11 -0.00,-0.35 -0.07,-0.19 -0.17,-0.35 -0.22,-0.35 -0.20,0 -0.13,-0.68 0.08,-0.86 C 20.67,9.33 20.70,9.10 20.68,8.06 20.67,7.39 20.59,6.67 20.50,6.47 20.41,6.28 20.32,6.05 20.30,5.96 c -0.01,-0.08 -0.07,-0.19 -0.13,-0.23 -0.05,-0.04 -0.05,0.01 -0.01,0.13 0.09,0.24 -0.23,0.29 -0.34,0.04 C 19.76,5.78 19.12,5.72 17.02,5.65 15.52,5.61 14.08,5.54 13.82,5.51 l -0.46,-0.06 0.32,-0.34 c 0.18,-0.18 0.35,-0.31 0.39,-0.28 0.03,0.03 -0.00,0.12 -0.09,0.19 -0.25,0.23 -0.17,0.33 0.28,0.33 0.32,0 0.47,-0.07 0.58,-0.26 l 0.14,-0.26 -0.03,0.29 c -0.02,0.29 -0.00,0.29 0.91,0.33 0.94,0.03 0.94,0.03 0.94,-0.27 0,-0.19 0.05,-0.27 0.14,-0.23 0.07,0.04 0.11,0.18 0.07,0.30 -0.05,0.18 0.00,0.22 0.37,0.22 0.23,0 0.46,-0.06 0.50,-0.14 0.03,-0.08 0.07,-0.06 0.07,0.05 0.01,0.30 1.24,0.30 1.43,0 0.12,-0.19 0.13,-0.19 0.13,0 0.00,0.15 0.11,0.20 0.46,0.20 0.37,0 0.45,-0.04 0.45,-0.23 0,-0.13 0.05,-0.23 0.13,-0.23 0.07,0 0.13,0.10 0.13,0.23 0,0.19 0.08,0.23 0.51,0.23 0.44,0 0.50,-0.03 0.44,-0.23 -0.03,-0.13 -0.00,-0.23 0.07,-0.23 0.08,0 0.14,0.10 0.14,0.23 0,0.20 0.08,0.23 0.64,0.23 0.59,0 0.63,-0.01 0.58,-0.26 l -0.05,-0.26 0.15,0.26 c 0.11,0.19 0.27,0.26 0.60,0.26 0.4,0 0.43,-0.02 0.36,-0.26 -0.07,-0.24 -0.06,-0.24 0.11,0.02 l 0.19,0.29 -1.17,0.03 c -0.95,0.02 -1.23,0.07 -1.45,0.26 -0.15,0.12 -0.35,0.23 -0.44,0.23 -0.09,0 -0.17,0.10 -0.17,0.23 0,0.13 -0.05,0.23 -0.11,0.23 -0.06,0 -0.10,0.26 -0.09,0.57 l 0.01,0.57 0.53,-0.40 c 0.70,-0.52 1.51,-0.63 2.37,-0.33 0.34,0.12 0.65,0.21 0.69,0.20 0.03,-0.00 0.35,0.21 0.70,0.49 0.45,0.36 0.61,0.56 0.55,0.70 -0.11,0.27 -0.49,0.24 -0.57,-0.03 -0.11,-0.39 -0.30,-0.27 -0.30,0.19 0,0.42 -0.33,1.24 -0.51,1.24 -0.16,0 -0.37,0.55 -0.26,0.71 0.08,0.12 0.24,0.12 0.92,-8.99e-4 0.79,-0.15 0.82,-0.15 1.05,0.11 0.13,0.15 0.24,0.37 0.24,0.50 0,0.12 0.05,0.19 0.13,0.15 0.20,-0.11 2.57,2.05 3.19,2.91 0.64,0.90 1.09,2.02 2.10,5.32 0.19,0.64 0.27,0.74 0.63,0.83 0.32,0.08 0.41,0.17 0.44,0.46 0.01,0.19 0.06,0.57 0.10,0.84 l 0.07,0.49 1.00,0.25 c 0.55,0.14 1.92,0.47 3.03,0.73 1.11,0.26 2.13,0.50 2.25,0.54 0.13,0.03 0.22,0.18 0.22,0.35 0,0.38 -0.31,0.38 -1.66,0.00 -0.56,-0.15 -1.93,-0.51 -3.05,-0.78 -1.11,-0.27 -2.33,-0.60 -2.72,-0.72 -0.38,-0.12 -0.87,-0.22 -1.10,-0.22 -0.38,0 -1.27,0.43 -1.27,0.61 -8.99e-4,0.04 0.19,0.19 0.43,0.32 0.43,0.24 1.65,0.35 1.65,0.15 0,-0.05 -0.36,-0.23 -0.80,-0.41 -0.44,-0.17 -0.78,-0.35 -0.74,-0.38 0.08,-0.07 3.71,1.02 4.30,1.30 0.73,0.34 1.44,0.91 1.77,1.43 0.38,0.59 0.60,1.13 0.47,1.13 -0.05,0 -0.17,-0.18 -0.26,-0.40 -0.08,-0.22 -0.28,-0.55 -0.43,-0.72 -0.49,-0.57 -2.05,-1.59 -1.75,-1.14 0.03,0.05 -0.06,0.09 -0.24,0.08 -0.17,-0.00 -0.28,-0.05 -0.25,-0.10 0.08,-0.12 -0.44,-0.57 -0.67,-0.57 -0.36,0 -0.21,0.35 0.16,0.37 0.22,0.00 0.27,0.03 0.13,0.06 -0.18,0.04 -0.20,0.09 -0.08,0.29 0.07,0.13 0.17,0.20 0.21,0.17 0.09,-0.09 0.42,0.49 0.42,0.76 0,0.35 1.10,2.56 1.15,2.31 0.05,-0.29 0.28,-0.51 0.28,-0.28 0.00,0.14 0.02,0.14 0.12,-0.00 0.15,-0.21 0.15,-0.02 0,0.29 -0.07,0.16 -0.11,0.18 -0.12,0.05 -0.01,-0.14 -0.04,-0.13 -0.14,0.03 -0.17,0.27 0.57,1.59 1.32,2.34 0.56,0.56 0.60,0.83 0.05,0.36 -0.57,-0.49 -1.57,-2.04 -2.09,-3.23 -0.41,-0.97 -0.52,-1.12 -0.67,-0.98 -0.15,0.13 -0.14,0.26 0.04,0.85 0.31,0.98 1.04,2.13 2.12,3.30 0.29,0.32 0.50,0.61 0.46,0.65 -0.12,0.10 -1.46,-1.29 -1.89,-1.98 -0.40,-0.64 -1.03,-2.19 -1.03,-2.55 0,-0.11 -0.16,-0.29 -0.36,-0.41 -0.19,-0.11 -1.05,-0.68 -1.90,-1.26 -1.44,-0.99 -1.58,-1.05 -2.18,-1.05 -0.39,0 -0.66,-0.05 -0.69,-0.14 -0.06,-0.18 -0.35,0.28 -0.44,0.71 -0.03,0.16 -0.29,0.56 -0.58,0.87 -0.28,0.31 -0.60,0.82 -0.70,1.14 -0.60,1.93 -0.61,1.98 -0.48,2.25 0.07,0.14 0.17,1.13 0.22,2.18 l 0.09,1.92 0.34,0.06 c 0.41,0.08 0.94,0.30 0.87,0.37 -0.02,0.02 -0.29,-0.01 -0.58,-0.09 -0.29,-0.08 -0.57,-0.11 -0.62,-0.07 -0.04,0.04 0.05,0.59 0.22,1.23 0.32,1.23 0.63,1.70 1.80,2.81 0.33,0.31 0.51,0.56 0.42,0.56 -0.09,0 -0.48,-0.29 -0.85,-0.65 -0.52,-0.51 -0.74,-0.65 -1.02,-0.63 -0.19,0.01 -0.35,0.06 -0.35,0.10 0,0.22 0.42,0.96 0.50,0.87 0.16,-0.21 0.45,-0.18 0.35,0.03 -0.04,0.11 -0.04,0.17 0.00,0.12 0.05,-0.04 0.21,0.00 0.36,0.12 0.27,0.20 0.27,0.20 0.02,-0.06 -0.37,-0.40 -0.14,-0.46 0.41,-0.10 0.27,0.17 0.57,0.31 0.65,0.31 0.08,0 0.15,0.05 0.15,0.13 0,0.07 -0.09,0.09 -0.22,0.05 -0.18,-0.06 -0.19,-0.04 -0.06,0.07 0.25,0.23 0.19,0.36 -0.09,0.22 -0.22,-0.10 -0.24,-0.09 -0.17,0.08 0.07,0.19 0.06,0.19 -0.15,0.03 -0.14,-0.10 -0.20,-0.11 -0.14,-0.02 0.21,0.32 -0.17,0.12 -0.62,-0.32 -0.25,-0.26 -0.47,-0.43 -0.47,-0.37 0,0.05 0.14,0.22 0.32,0.37 0.17,0.15 0.32,0.33 0.32,0.40 0,0.06 -0.23,-0.08 -0.51,-0.33 -0.51,-0.45 -0.70,-0.81 -1.12,-2.15 -0.12,-0.39 -0.31,-0.95 -0.41,-1.24 -0.10,-0.28 -0.22,-0.75 -0.26,-1.03 l -0.07,-0.51 -0.47,0.22 c -0.63,0.29 -1.84,0.61 -2,0.53 -0.06,-0.03 -0.73,-0.06 -1.48,-0.06 -1.14,0 -1.41,-0.03 -1.68,-0.22 -0.17,-0.12 -0.44,-0.22 -0.59,-0.22 -0.15,0 -0.44,-0.07 -0.65,-0.17 -0.35,-0.16 -0.36,-0.16 -0.30,0.05 0.03,0.13 -0.10,0.51 -0.34,0.89 l -0.40,0.66 0.29,0.46 c 0.27,0.43 0.28,0.51 0.14,1.27 -0.12,0.65 -0.11,0.84 0.01,0.99 0.09,0.09 0.23,0.68 0.31,1.30 0.13,0.99 0.19,1.16 0.54,1.49 0.39,0.37 0.51,0.66 0.26,0.66 -0.29,0 -0.09,0.47 0.32,0.76 0.25,0.17 0.45,0.35 0.45,0.41 0,0.20 -1.21,1.50 -1.41,1.50 -0.11,0 -0.31,-0.17 -0.45,-0.37 -0.21,-0.32 -0.25,-0.61 -0.22,-1.46 0.01,-0.40 -0.38,-2.49 -0.58,-3.10 -0.12,-0.36 -0.4,-0.92 -0.61,-1.24 -0.38,-0.56 -0.39,-0.63 -0.33,-1.63 0.09,-1.47 -0.05,-1.60 -0.85,-0.81 -0.33,0.33 -0.61,0.70 -0.61,0.81 0,0.11 -0.14,0.40 -0.32,0.64 -0.17,0.24 -0.32,0.46 -0.32,0.49 0,0.03 -0.40,0.75 -0.90,1.60 -0.83,1.42 -0.89,1.57 -0.76,1.90 0.19,0.45 0.05,0.83 -0.23,0.62 -0.10,-0.08 -0.22,-0.12 -0.25,-0.09 -0.03,0.02 -0.11,0.52 -0.19,1.11 -0.08,0.58 -0.17,1.10 -0.21,1.15 -0.03,0.05 -0.20,0.09 -0.37,0.09 -0.17,0 -0.34,0.04 -0.38,0.10 -0.03,0.05 -0.23,0.13 -0.43,0.17 -0.19,0.03 -0.45,0.09 -0.56,0.13 -0.10,0.03 -0.29,-0.01 -0.40,-0.12 z m 1.10,-0.37 c 0.19,-0.03 0.39,-0.10 0.42,-0.15 0.03,-0.05 0.17,-0.06 0.31,-0.03 0.22,0.05 0.25,-0.00 0.25,-0.48 0,-0.39 -0.05,-0.54 -0.18,-0.54 -0.10,0 -0.18,-0.06 -0.18,-0.14 -0.00,-0.09 -0.03,-0.10 -0.09,-0.02 -0.05,0.06 -0.21,0.13 -0.35,0.16 -0.37,0.05 -0.42,0.13 -0.08,0.13 0.19,0 0.28,0.07 0.28,0.23 0,0.13 -0.06,0.23 -0.13,0.23 -0.07,0 -0.09,0.05 -0.05,0.12 0.05,0.08 -0.04,0.10 -0.30,0.07 -0.31,-0.04 -0.41,-0.00 -0.53,0.23 -0.19,0.39 -0.18,0.43 0.08,0.34 0.12,-0.04 0.39,-0.11 0.59,-0.14 z m 8.59,-0.47 c 0.22,-0.30 0.40,-0.58 0.40,-0.62 -8.99e-4,-0.03 -0.14,-0.13 -0.32,-0.20 -0.30,-0.12 -0.32,-0.10 -0.53,0.44 -0.11,0.32 -0.26,0.61 -0.33,0.65 -0.06,0.03 -0.08,0.11 -0.04,0.18 0.16,0.23 0.44,0.08 0.83,-0.44 z m -0.75,-0.06 c 0.14,-0.24 0.13,-0.25 -0.06,-0.10 -0.11,0.08 -0.21,0.21 -0.21,0.26 0,0.18 0.11,0.11 0.27,-0.16 z m 0.03,-0.82 c -0.08,-0.13 -0.09,-0.12 -0.31,0.26 -0.16,0.29 -0.16,0.29 0.10,0.07 0.15,-0.12 0.24,-0.27 0.20,-0.33 z M 11.79,41.65 c 0.04,-0.10 0.02,-0.15 -0.05,-0.11 -0.07,0.03 -0.12,0.12 -0.12,0.18 0,0.17 0.09,0.13 0.18,-0.07 z m 15.52,-5.70 c 0,-0.02 -0.09,-0.27 -0.20,-0.56 -0.55,-1.38 -0.70,-2.54 -0.70,-5.40 -8.99e-4,-1.94 -0.09,-1.25 -0.17,1.32 -0.06,1.96 -0.04,2.52 0.12,3.04 0.35,1.11 0.60,1.64 0.79,1.64 0.09,0 0.17,-0.02 0.17,-0.04 z M 16.59,33.99 c -0.24,-0.07 -0.48,0.06 -0.56,0.32 -0.06,0.23 -0.06,0.23 0.31,-0.01 0.21,-0.14 0.32,-0.27 0.24,-0.30 z m 0.39,0.36 c 8.99e-4,-0.16 0.02,-0.17 0.11,-0.04 0.08,0.12 0.12,0.12 0.19,-0.02 0.04,-0.10 0.16,-0.18 0.27,-0.18 0.11,0 0.20,-0.10 0.20,-0.23 0,-0.32 -0.15,-0.30 -0.67,0.08 -0.23,0.17 -0.45,0.33 -0.48,0.34 -0.02,0.01 -0.00,0.08 0.04,0.15 0.13,0.19 0.33,0.15 0.33,-0.08 z m 1.43,-1.01 c 8.99e-4,-0.16 -0.04,-0.18 -0.23,-0.09 -0.15,0.07 -0.24,0.27 -0.26,0.57 l -0.03,0.45 0.26,-0.35 c 0.14,-0.19 0.26,-0.45 0.26,-0.57 z m 0.43,-0.79 c 0.05,-8.99e-4 0.07,0.10 0.02,0.22 -0.08,0.25 -0.03,0.30 0.47,0.41 0.34,0.07 0.34,0.06 0.21,-0.33 -0.10,-0.32 -0.22,-0.42 -0.55,-0.47 -0.61,-0.10 -1.16,-0.68 -1.23,-1.29 -0.00,-0.04 -0.17,-0.08 -0.37,-0.08 -0.69,0 -0.89,-0.54 -0.41,-1.10 0.31,-0.36 0.36,-0.94 0.06,-0.84 -0.10,0.03 -0.15,0.12 -0.10,0.20 0.04,0.07 -0.00,0.06 -0.13,-0.02 -0.13,-0.09 -0.22,-0.11 -0.22,-0.03 0,0.07 0.05,0.16 0.13,0.20 0.07,0.04 0.12,0.13 0.12,0.21 -0.00,0.14 -0.51,-0.38 -0.51,-0.53 -0.00,-0.04 0.11,-0.06 0.25,-0.03 0.14,0.02 0.31,-0.03 0.37,-0.13 0.06,-0.10 0.16,-0.17 0.22,-0.16 0.10,0.01 0.43,-0.93 0.44,-1.27 8.99e-4,-0.07 -0.45,0.10 -1.01,0.41 -1.34,0.73 -2.40,1.22 -2.66,1.22 -0.11,8.99e-4 -0.54,-0.09 -0.94,-0.22 l -0.73,-0.22 0.07,0.43 c 0.14,0.88 0.32,1.28 0.84,1.85 1.01,1.11 1.76,1.54 2.25,1.26 0.25,-0.14 0.26,-0.13 0.18,0.33 -0.07,0.42 -0.05,0.47 0.13,0.40 0.14,-0.05 0.18,-0.03 0.12,0.06 -0.05,0.07 -0.03,0.13 0.03,0.13 0.07,0 0.16,-0.04 0.20,-0.10 0.03,-0.05 0.17,-0.08 0.31,-0.05 0.13,0.03 0.31,-0.02 0.40,-0.13 0.09,-0.10 0.22,-0.18 0.28,-0.18 0.23,0 0.10,0.25 -0.31,0.61 -0.23,0.20 -0.32,0.30 -0.19,0.22 0.22,-0.14 0.29,-0.06 0.24,0.26 -0.00,0.04 0.41,-0.20 0.93,-0.56 0.52,-0.35 0.99,-0.64 1.05,-0.65 z m -2.64,-0.55 c -0.14,-0.17 -0.27,-0.38 -0.27,-0.47 0,-0.08 -0.20,-0.23 -0.44,-0.33 -0.55,-0.21 -1.11,-0.96 -1.21,-1.61 -0.05,-0.38 -0.02,-0.48 0.12,-0.48 0.25,0 0.38,0.28 0.20,0.45 -0.09,0.08 -0.02,0.29 0.22,0.67 0.37,0.57 0.73,0.84 1.17,0.84 0.20,8.99e-4 0.26,0.08 0.26,0.33 0,0.37 0.35,0.67 0.80,0.67 0.16,0 0.33,0.05 0.37,0.11 0.04,0.07 -0.12,0.11 -0.44,0.11 -0.40,0 -0.58,-0.06 -0.79,-0.31 z m -1.25,-0.39 c -0.60,-0.39 -1.06,-0.92 -1.18,-1.36 -0.10,-0.38 0.14,-0.42 0.27,-0.04 0.15,0.44 0.99,1.30 1.45,1.47 0.48,0.18 0.55,0.28 0.20,0.27 -0.12,-0.00 -0.46,-0.15 -0.75,-0.34 z m 0.99,-1.91 c -0.02,-0.27 -0.03,-0.28 -0.14,-0.05 -0.07,0.15 -0.11,0.17 -0.11,0.05 -0.00,-0.23 0.21,-0.55 0.31,-0.45 0.04,0.04 0.05,0.22 0.02,0.41 -0.05,0.32 -0.05,0.32 -0.08,0.04 z m 0.26,-0.06 c 0.00,-0.13 0.03,-0.16 0.07,-0.07 0.03,0.08 0.03,0.18 -0.00,0.22 -0.04,0.03 -0.07,-0.03 -0.06,-0.15 z m -0.65,-0.59 c 0.00,-0.13 0.03,-0.16 0.07,-0.07 0.03,0.08 0.03,0.18 -0.00,0.22 -0.04,0.03 -0.07,-0.03 -0.06,-0.15 z m 0.31,-0.16 c -0.04,-0.14 -0.06,-0.28 -0.02,-0.31 0.03,-0.03 0.10,0.05 0.15,0.19 0.04,0.14 0.06,0.28 0.02,0.31 -0.03,0.03 -0.10,-0.05 -0.15,-0.19 z m 0.28,-0.26 c -0.10,-0.37 -0.02,-0.39 0.15,-0.03 0.08,0.16 0.09,0.29 0.03,0.29 -0.06,0 -0.14,-0.11 -0.18,-0.26 z m 0.24,-0.17 c -0.07,-0.16 -0.05,-0.18 0.07,-0.06 0.08,0.08 0.12,0.17 0.08,0.21 -0.04,0.03 -0.11,-0.02 -0.16,-0.14 z m 0.79,-0.35 c -0.04,-0.04 -0.08,-0.13 -0.08,-0.20 0,-0.07 0.06,-0.06 0.15,0.01 0.08,0.07 0.12,0.16 0.08,0.20 -0.03,0.03 -0.10,0.02 -0.15,-0.01 z m 4.44,5.59 c -0.03,-0.04 0.56,-0.08 1.33,-0.08 1.28,0 1.45,-0.02 2.17,-0.35 0.58,-0.26 0.79,-0.43 0.82,-0.64 0.02,-0.15 -0.00,-0.25 -0.06,-0.23 -1.45,0.65 -1.35,0.63 -3.08,0.63 -1.76,0 -1.90,0.04 -1.44,0.53 0.22,0.23 0.37,0.32 0.25,0.15 z M 20.95,33.25 c -0.19,-0.34 -0.43,-0.48 -0.43,-0.23 0,0.20 0.31,0.59 0.47,0.59 0.11,0 0.09,-0.10 -0.04,-0.35 z m -0.56,-0.10 c 0,-0.25 -0.07,-0.36 -0.28,-0.41 -0.41,-0.09 -0.43,-0.02 -0.10,0.39 0.35,0.45 0.39,0.45 0.39,0.02 z m 4.33,-0.60 c 0.75,-0.26 1.16,-0.59 1.16,-0.95 0,-0.16 -0.08,-0.24 -0.27,-0.24 -0.21,0 -0.26,-0.05 -0.20,-0.24 0.06,-0.20 0.04,-0.22 -0.13,-0.09 -0.16,0.12 -0.19,0.11 -0.15,-0.08 0.07,-0.34 0.57,-0.31 0.53,0.03 -0.01,0.15 0.04,0.26 0.14,0.26 0.13,0 0.19,-0.36 0.25,-1.46 0.04,-0.80 0.17,-1.77 0.28,-2.15 0.10,-0.38 0.19,-0.75 0.19,-0.83 -0.00,-0.22 -0.50,0.53 -0.59,0.89 -0.10,0.43 -0.18,0.46 -0.76,0.30 -0.47,-0.13 -0.48,-0.14 -0.40,-0.59 0.07,-0.42 0.06,-0.45 -0.24,-0.45 h -0.33 l 0.45,1.14 c 0.25,0.63 0.51,1.24 0.58,1.36 0.17,0.30 0.17,0.30 -0.29,0.47 -0.23,0.08 -0.60,0.26 -0.81,0.40 -1.02,0.66 -1.35,0.79 -1.64,0.65 -0.21,-0.10 -0.46,-0.10 -1.05,0.00 -0.74,0.14 -0.91,0.25 -0.62,0.41 0.07,0.04 0.24,-0.00 0.36,-0.10 0.22,-0.18 0.51,-0.24 0.98,-0.21 0.17,0.01 0.22,0.08 0.17,0.25 -0.05,0.18 -0.00,0.22 0.21,0.20 0.19,-0.01 0.27,0.03 0.26,0.18 -0.00,0.11 0.03,0.20 0.09,0.20 0.06,0 0.11,-0.09 0.11,-0.22 0,-0.50 0.93,-1.16 1.10,-0.77 0.09,0.23 -0.04,0.52 -0.26,0.52 -0.09,0 -0.18,0.05 -0.18,0.12 0,0.27 0.46,0.02 0.56,-0.30 0.17,-0.54 0.29,-0.71 0.49,-0.71 0.12,0 0.18,0.15 0.19,0.44 0.00,0.24 -0.04,0.44 -0.11,0.44 -0.07,0 -0.09,-0.15 -0.04,-0.36 0.05,-0.26 0.03,-0.35 -0.08,-0.31 -0.08,0.02 -0.18,0.20 -0.20,0.39 -0.05,0.42 -0.36,0.76 -0.69,0.76 -0.30,0 -0.31,-0.32 -0.02,-0.61 0.11,-0.11 0.15,-0.21 0.07,-0.21 -0.35,0 -0.56,0.17 -0.68,0.60 -0.10,0.34 -0.19,0.45 -0.39,0.43 -0.29,-0.02 -0.32,-0.09 -0.10,-0.29 0.24,-0.22 0.00,-0.32 -0.26,-0.10 -0.13,0.10 -0.35,0.19 -0.49,0.19 -0.21,-0.00 -0.21,-0.02 0.04,-0.11 0.16,-0.05 0.29,-0.14 0.29,-0.18 0,-0.04 -0.13,-0.04 -0.29,-0.00 -0.28,0.06 -0.28,0.06 0.03,-0.16 l 0.32,-0.23 -0.38,-0.00 c -0.21,-8.99e-4 -0.51,0.10 -0.67,0.24 -0.26,0.22 -0.30,0.23 -0.50,0.04 -0.16,-0.15 -0.49,-0.20 -1.45,-0.21 -0.68,-0.00 -1.23,0.01 -1.23,0.04 0,0.03 0.19,0.23 0.42,0.44 0.47,0.41 1.29,0.72 2.19,0.82 0.32,0.03 0.61,0.08 0.64,0.11 0.03,0.02 0.66,0.04 1.40,0.04 1.02,0 1.51,-0.05 2.02,-0.23 z m -4.98,-1.01 c 0.42,-0.22 0.59,-0.22 0.39,0 -0.08,0.09 -0.28,0.17 -0.44,0.17 -0.26,-0.00 -0.25,-0.01 0.04,-0.17 z m -1.11,-0.65 c -0.14,-0.05 -0.35,-0.10 -0.45,-0.10 -0.17,-0.00 -0.17,0.00 0,0.10 0.10,0.06 0.31,0.11 0.45,0.10 0.26,-0.00 0.26,-0.00 0,-0.10 z m 1.86,0.04 c -0.04,-0.03 -0.15,-0.04 -0.25,-0.00 -0.10,0.03 -0.07,0.06 0.07,0.07 0.13,0.00 0.21,-0.02 0.17,-0.06 z m 1.05,-0.23 c 0.74,-0.20 0.80,-0.28 0.40,-0.50 -0.23,-0.13 -0.26,-0.12 -0.22,0.04 0.02,0.13 -0.14,0.26 -0.54,0.41 -0.72,0.27 -0.54,0.29 0.36,0.04 z m -0.33,-0.17 c 0.56,-0.24 0.46,-0.53 -0.24,-0.68 -0.53,-0.11 -0.69,-0.08 -1.40,0.17 -0.92,0.34 -1.16,0.48 -1.04,0.65 0.11,0.16 2.24,0.04 2.69,-0.14 z m 2.12,-0.44 c -0.09,-0.97 -0.37,-2.17 -0.47,-2.02 -0.06,0.09 -0.10,-0.02 -0.10,-0.28 -0.00,-0.46 -0.20,-0.72 -0.29,-0.36 -0.02,0.11 -0.09,-0.14 -0.15,-0.58 -0.05,-0.43 -0.07,-0.86 -0.03,-0.95 0.03,-0.08 0.07,0.05 0.08,0.31 0.01,0.44 0.04,0.39 0.40,-0.57 0.43,-1.17 0.43,-1.15 0.27,-1.15 -0.06,0 -0.16,0.14 -0.21,0.32 l -0.09,0.32 -0.12,-0.31 c -0.12,-0.32 -0.43,-0.51 -0.64,-0.39 -0.06,0.03 -0.12,0.85 -0.14,1.81 l -0.02,1.75 -0.08,-1.78 c -0.05,-1.09 -0.03,-1.84 0.03,-1.93 0.08,-0.09 0.07,-0.14 -0.01,-0.14 -0.22,0 -0.25,0.23 -0.20,1.55 0.02,0.82 0.00,1.12 -0.06,0.89 -0.08,-0.27 -0.12,-0.08 -0.15,0.77 l -0.04,1.13 -0.04,-1.06 c -0.02,-0.58 -0.00,-1.14 0.03,-1.25 0.08,-0.21 0.15,-2.40 0.07,-2.32 -0.03,0.02 -0.13,-0.11 -0.22,-0.31 -0.09,-0.20 -0.22,-0.33 -0.29,-0.29 -0.06,0.03 -0.14,-0.07 -0.16,-0.25 -0.03,-0.31 -0.12,-0.35 -0.60,-0.28 -0.13,0.01 -0.10,1.17 0.03,1.29 0.06,0.05 0.07,-0.08 0.02,-0.29 -0.08,-0.42 0.00,-0.78 0.18,-0.67 0.06,0.03 0.12,-0.03 0.12,-0.14 0.00,-0.11 0.03,-0.16 0.06,-0.09 0.03,0.06 -0.05,0.52 -0.19,1.01 -0.19,0.68 -0.26,0.82 -0.31,0.59 l -0.06,-0.29 0.02,0.29 c 0.01,0.23 0.08,0.29 0.31,0.26 0.24,-0.03 0.29,0.01 0.29,0.29 -0.00,0.26 -0.03,0.29 -0.12,0.15 -0.08,-0.11 -0.09,0.13 -0.04,0.76 0.06,0.70 0.04,0.92 -0.06,0.85 -0.10,-0.06 -0.15,0.10 -0.15,0.58 0,0.41 0.04,0.64 0.13,0.59 0.08,-0.04 0.13,0.17 0.13,0.58 0,0.66 0.19,1.01 0.30,0.52 0.04,-0.23 0.05,-0.22 0.07,0.06 0.01,0.23 0.11,0.36 0.35,0.44 0.18,0.06 0.35,0.11 0.38,0.11 0.02,0 0.07,-0.20 0.09,-0.44 l 0.05,-0.44 0.02,0.48 c 0.01,0.30 0.11,0.56 0.26,0.68 0.23,0.19 0.23,0.15 0.20,-1.08 l -0.03,-1.28 0.13,1.29 c 0.12,1.28 0.19,1.45 0.69,1.71 0.36,0.18 0.43,0.10 0.39,-0.41 z M 22.73,29.67 c -0.09,-0.39 -0.13,-0.74 -0.10,-0.78 0.03,-0.03 0.13,0.26 0.22,0.66 0.08,0.40 0.13,0.75 0.10,0.78 -0.03,0.02 -0.13,-0.27 -0.22,-0.67 z m -2.46,-2.26 c 0,-0.16 0.02,-0.23 0.06,-0.14 0.03,0.08 0.03,0.21 0,0.29 -0.03,0.08 -0.06,0.01 -0.06,-0.14 z m 0.37,-0.35 c 0,-0.19 0.05,-0.38 0.13,-0.42 0.07,-0.04 0.13,0.09 0.13,0.35 0,0.23 -0.05,0.42 -0.13,0.42 -0.07,0 -0.13,-0.15 -0.13,-0.35 z M 20.93,25.48 c -0.01,-0.30 -0.06,-0.65 -0.10,-0.77 -0.06,-0.16 -0.04,-0.18 0.07,-0.08 0.09,0.08 0.13,0.37 0.10,0.77 l -0.04,0.64 -0.02,-0.55 z m 1.16,-0.33 c 0,-0.34 0.02,-0.37 0.13,-0.20 0.09,0.14 0.09,0.27 0,0.41 -0.10,0.17 -0.13,0.13 -0.13,-0.20 z m 0.26,-0.30 c 0.00,-0.13 0.03,-0.16 0.07,-0.07 0.03,0.08 0.03,0.18 -0.01,0.22 -0.04,0.03 -0.07,-0.03 -0.06,-0.15 z m -1.29,-0.48 c -0.01,-0.14 -0.05,-0.35 -0.10,-0.47 -0.06,-0.16 -0.04,-0.18 0.07,-0.08 0.08,0.07 0.13,0.28 0.10,0.47 -0.03,0.24 -0.06,0.26 -0.07,0.08 z m -0.52,-0.39 c 0,-0.16 0.02,-0.23 0.06,-0.14 0.03,0.08 0.03,0.21 0,0.29 -0.03,0.08 -0.06,0.01 -0.06,-0.14 z m 3.18,5.44 c -0.11,-0.36 -0.17,-0.78 -0.12,-0.92 0.05,-0.15 0.03,-0.22 -0.03,-0.18 -0.13,0.07 -0.28,-0.54 -0.29,-1.15 -8.99e-4,-0.19 -0.05,-0.30 -0.13,-0.26 -0.17,0.10 -0.16,0.68 0.05,1.61 0.32,1.40 0.47,1.82 0.61,1.69 0.08,-0.07 0.05,-0.34 -0.08,-0.79 z m -4.35,0.47 c 0.22,-0.15 0.32,-0.66 0.12,-0.66 -0.05,0 -0.30,0.18 -0.54,0.41 -0.43,0.41 -0.43,0.41 -0.12,0.41 0.17,-0.00 0.42,-0.07 0.54,-0.16 z m 4.88,-0.86 C 24.15,28.62 24.02,27.89 23.97,27.39 23.91,26.77 23.83,26.49 23.73,26.53 c -0.26,0.09 0.07,2.28 0.47,3.09 0.24,0.48 0.27,0.16 0.05,-0.61 z m -5.73,0.21 c 0.30,-0.21 0.64,-0.36 0.74,-0.33 0.15,0.05 0.16,0.00 0.06,-0.22 -0.09,-0.21 -0.07,-0.27 0.05,-0.22 0.09,0.03 0.25,-0.03 0.35,-0.14 0.16,-0.18 0.15,-0.19 -0.14,-0.11 -0.17,0.04 -0.52,0.19 -0.75,0.31 -0.23,0.12 -0.48,0.22 -0.55,0.22 -0.17,0 -0.15,-0.38 0.05,-0.85 0.16,-0.38 0.19,-1.24 0.03,-1.38 -0.08,-0.07 -0.09,-0.04 -0.41,0.97 -0.12,0.39 -0.27,0.87 -0.33,1.06 -0.06,0.19 -0.11,0.48 -0.11,0.66 0,0.32 0.25,0.66 0.38,0.50 0.03,-0.05 0.32,-0.26 0.63,-0.48 z m -0.56,-0.01 c 0,-0.13 0.06,-0.22 0.13,-0.20 0.07,0.02 0.13,0.11 0.13,0.20 0,0.08 -0.06,0.17 -0.13,0.19 -0.07,0.02 -0.13,-0.06 -0.13,-0.19 z m 6.97,0.20 c -0.09,-0.36 -0.72,-1.95 -0.73,-1.85 -0.01,0.12 0.35,1.68 0.45,1.91 0.12,0.30 0.36,0.25 0.28,-0.05 z m -4.41,0.09 c 0,-0.03 -0.11,-0.10 -0.24,-0.17 -0.18,-0.09 -0.26,-0.07 -0.32,0.05 -0.05,0.12 0.01,0.17 0.24,0.17 0.17,0 0.32,-0.02 0.32,-0.05 z m -0.26,-0.91 v -0.49 l -0.26,0.27 c -0.14,0.15 -0.26,0.31 -0.26,0.37 0,0.07 0.35,0.32 0.49,0.34 0.01,0.00 0.03,-0.21 0.03,-0.49 z m -3.76,-0.90 c 0.41,-0.22 0.75,-0.43 0.75,-0.47 0,-0.03 -0.22,0.05 -0.49,0.20 -0.99,0.54 -2.33,1.15 -2.66,1.22 -0.31,0.06 -0.69,0.00 -1.36,-0.22 -0.19,-0.06 -0.22,-0.05 -0.11,0.05 0.07,0.07 0.43,0.20 0.78,0.29 0.62,0.14 0.66,0.13 1.49,-0.26 0.46,-0.22 1.18,-0.59 1.60,-0.81 z m -1.81,0.56 c 0.09,-0.08 0.02,-0.09 -0.25,-0.01 -0.21,0.06 -0.50,0.14 -0.65,0.17 -0.14,0.03 -0.03,0.03 0.25,0.01 0.28,-0.02 0.57,-0.10 0.65,-0.17 z m -2.54,-0.08 c -0.17,-0.11 -0.36,-0.25 -0.41,-0.32 -0.05,-0.06 -0.13,-0.07 -0.19,-0.01 -0.05,0.05 -0.03,0.12 0.04,0.14 0.07,0.02 0.25,0.12 0.39,0.21 0.13,0.09 0.30,0.17 0.37,0.17 0.06,0.00 -0.01,-0.08 -0.19,-0.19 z m 6.80,-0.30 c 0.16,-0.35 0.18,-0.36 0.23,-0.11 0.06,0.29 0.06,0.29 0.33,0.20 0.14,-0.05 0.17,-0.25 0.12,-0.95 -0.04,-0.65 -0.02,-0.88 0.09,-0.88 0.08,0 0.13,0.06 0.09,0.15 -0.03,0.08 -0.02,0.47 0.03,0.86 l 0.09,0.71 0.01,-0.77 c 0.00,-0.42 0.05,-0.98 0.10,-1.25 0.07,-0.43 0.06,-0.46 -0.13,-0.31 -0.12,0.09 -0.21,0.21 -0.21,0.27 0,0.06 -0.11,0.22 -0.26,0.36 -0.14,0.14 -0.30,0.46 -0.34,0.71 -0.04,0.25 -0.11,0.42 -0.15,0.39 -0.06,-0.06 -0.28,0.33 -0.47,0.87 -0.14,0.41 0.23,0.20 0.44,-0.24 z M 13.69,27.45 c -0.28,-0.77 -0.30,-1.31 -0.09,-1.96 0.20,-0.62 0.35,-0.35 0.19,0.35 -0.09,0.44 -0.08,0.72 0.08,1.27 l 0.21,0.71 -0.07,-0.61 c -0.14,-1.21 0.68,-2.82 1.85,-3.62 0.33,-0.22 0.73,-0.56 0.87,-0.75 l 0.27,-0.34 0.16,0.58 c 0.21,0.74 0.21,0.77 -0.02,0.37 -0.10,-0.18 -0.25,-0.30 -0.32,-0.26 -0.07,0.03 -0.03,0.19 0.08,0.35 0.11,0.15 0.17,0.35 0.13,0.44 -0.04,0.09 -0.10,0.03 -0.17,-0.14 l -0.10,-0.29 -0.09,0.35 c -0.08,0.31 -0.09,0.30 -0.04,-0.08 0.02,-0.24 0.01,-0.44 -0.03,-0.44 -0.27,0 -1.08,0.65 -1.49,1.21 -0.51,0.68 -0.81,1.60 -0.92,2.82 l -0.06,0.75 0.41,-0.08 c 0.22,-0.04 0.46,-0.08 0.52,-0.09 0.06,-0.00 0.24,-0.11 0.39,-0.23 0.26,-0.20 2.44,-1.44 2.69,-1.52 0.05,-0.02 0.04,-0.32 -0.03,-0.66 -0.10,-0.47 -0.10,-0.72 0.01,-1.02 0.08,-0.21 0.15,-0.51 0.15,-0.65 0,-0.45 0.40,-0.85 1.23,-1.23 0.43,-0.19 0.81,-0.37 0.84,-0.39 0.11,-0.09 -0.43,-0.65 -0.58,-0.60 -0.09,0.03 -0.17,0.01 -0.17,-0.04 0,-0.06 -0.09,-0.08 -0.20,-0.04 -0.12,0.04 -0.18,0.01 -0.16,-0.09 0.02,-0.08 -0.03,-0.14 -0.13,-0.13 -0.09,0.01 -0.13,-0.01 -0.09,-0.07 0.04,-0.06 0.00,-0.13 -0.07,-0.15 -0.08,-0.02 -0.00,-0.19 0.19,-0.41 0.34,-0.37 0.44,-0.58 0.21,-0.45 -0.07,0.04 -0.13,0.00 -0.13,-0.08 -0.00,-0.09 -0.05,-0.07 -0.13,0.05 -0.07,0.11 -0.25,0.26 -0.40,0.33 -0.15,0.07 -0.23,0.08 -0.19,0.01 0.04,-0.06 -0.01,-0.15 -0.12,-0.18 -0.15,-0.05 -0.16,-0.12 -0.06,-0.29 0.10,-0.18 0.08,-0.22 -0.08,-0.21 -0.13,0.00 -0.22,-0.07 -0.22,-0.21 -0.00,-0.31 -0.61,-0.33 -0.66,-0.02 -0.02,0.17 0.00,0.18 0.15,0.06 0.10,-0.07 0.22,-0.11 0.25,-0.08 0.08,0.07 -0.85,0.58 -1.56,0.85 -0.28,0.10 -0.65,0.16 -0.85,0.12 -0.25,-0.04 -0.29,-0.03 -0.16,0.05 0.14,0.09 0.05,0.15 -0.37,0.25 -0.30,0.07 -0.59,0.10 -0.63,0.07 -0.04,-0.03 0.12,-0.10 0.35,-0.14 l 0.42,-0.07 -0.37,-0.14 -0.37,-0.14 0.52,-0.14 c 1.05,-0.30 2.16,-0.76 2.12,-0.89 -0.02,-0.07 -0.20,-0.20 -0.40,-0.29 -0.31,-0.13 -0.35,-0.21 -0.31,-0.56 0.04,-0.31 0.00,-0.40 -0.15,-0.37 -0.29,0.04 -0.52,-0.12 -0.44,-0.32 0.12,-0.28 -0.08,-0.19 -0.21,0.09 -0.12,0.26 -0.12,0.26 -0.09,-0.03 0.02,-0.27 0.07,-0.29 0.58,-0.26 0.31,0.01 0.55,-0.02 0.55,-0.08 0,-0.48 -4.16,-2.46 -5.06,-2.40 -0.25,0.01 -0.52,-0.02 -0.61,-0.08 -0.11,-0.08 -0.16,0.03 -0.18,0.46 -0.01,0.40 0.02,0.59 0.16,0.64 0.10,0.03 0.18,0.16 0.18,0.28 -0.00,0.11 0.05,0.42 0.13,0.69 0.18,0.64 0.17,1.34 -0.01,1.40 -0.10,0.03 -0.15,0.25 -0.13,0.60 0.02,0.44 0.13,0.67 0.52,1.13 0.51,0.61 0.93,0.75 2.12,0.75 0.42,-8.99e-4 0.43,0.00 0.13,0.11 -0.19,0.07 -0.53,0.07 -0.88,0.00 -0.31,-0.06 -0.53,-0.06 -0.49,-0.00 0.03,0.05 0.01,0.10 -0.05,0.10 -0.13,0 -0.09,0.62 0.05,0.83 0.23,0.35 0.31,2.27 0.12,3.39 -0.27,1.66 -0.25,1.92 0.13,2.15 0.29,0.17 1.17,0.50 1.38,0.52 0.04,0.00 -0.02,-0.29 -0.16,-0.66 z m 0.94,-0.23 c 0.00,-0.13 0.03,-0.16 0.07,-0.07 0.03,0.08 0.03,0.18 -0.00,0.22 -0.04,0.03 -0.07,-0.03 -0.06,-0.15 z m 1.42,-0.28 c 0,-0.07 0.05,-0.10 0.12,-0.06 0.06,0.03 0.14,-0.01 0.18,-0.11 0.04,-0.14 0.05,-0.13 0.04,0.01 -0.02,0.22 -0.34,0.37 -0.34,0.16 z m -1.16,-0.78 c 0.00,-0.13 0.03,-0.16 0.07,-0.07 0.03,0.08 0.03,0.18 -0.00,0.22 -0.04,0.03 -0.07,-0.03 -0.06,-0.15 z m 0.47,-0.13 c -0.03,-0.17 -0.01,-0.40 0.04,-0.50 0.07,-0.12 0.11,-0.02 0.11,0.32 0.00,0.58 -0.06,0.65 -0.16,0.17 z m 0.74,0.03 c -0.03,-0.09 -0.04,-0.29 -0.02,-0.44 0.03,-0.20 0.06,-0.15 0.11,0.17 0.06,0.46 0.03,0.57 -0.09,0.27 z m -0.41,-0.30 c 0,-0.23 0.02,-0.32 0.06,-0.20 0.03,0.11 0.03,0.30 0,0.41 -0.03,0.11 -0.06,0.02 -0.06,-0.20 z m 0.99,0.14 c -0.05,-0.17 -0.03,-0.24 0.05,-0.18 0.09,0.05 0.11,-0.02 0.05,-0.20 l -0.08,-0.28 0.25,0.29 c 0.29,0.34 0.34,0.56 0.07,0.36 -0.14,-0.11 -0.19,-0.09 -0.23,0.07 -0.04,0.18 -0.06,0.17 -0.12,-0.05 z m 0.70,-0.35 c -0.12,-0.21 -0.07,-0.50 0.08,-0.50 0.04,0 0.16,0.10 0.24,0.23 0.13,0.20 0.13,0.22 -0.06,0.15 -0.19,-0.06 -0.20,-0.05 -0.04,0.12 0.11,0.12 0.12,0.20 0.03,0.20 -0.07,0 -0.19,-0.09 -0.26,-0.20 z m -1.85,-0.46 c -8.99e-4,-0.14 0.05,-0.29 0.12,-0.33 0.16,-0.09 0.16,0.18 0,0.41 -0.10,0.14 -0.12,0.13 -0.12,-0.08 z m 0.47,0.12 c -0.04,-0.04 -0.08,-0.16 -0.08,-0.26 0.00,-0.15 0.02,-0.15 0.14,0.02 0.14,0.22 0.09,0.38 -0.05,0.23 z m 0.31,-0.34 c 0.00,-0.13 0.03,-0.16 0.07,-0.07 0.03,0.08 0.03,0.18 -0.01,0.22 -0.04,0.03 -0.07,-0.03 -0.06,-0.15 z m 0.25,-0.15 c -0.08,-0.13 -0.09,-0.24 -0.02,-0.24 0.13,0 0.32,0.36 0.22,0.44 -0.03,0.02 -0.12,-0.05 -0.20,-0.19 z m 0.83,-0.37 c -0.16,-0.24 0.15,-0.37 0.34,-0.14 0.17,0.19 0.16,0.20 -0.06,0.03 -0.23,-0.16 -0.24,-0.16 -0.16,0.02 0.09,0.23 0.02,0.28 -0.10,0.07 z m -1.30,-0.10 c 0.04,-0.06 0.10,-0.11 0.13,-0.11 0.03,0 0.05,0.05 0.05,0.11 0,0.06 -0.06,0.11 -0.13,0.11 -0.07,0 -0.10,-0.05 -0.05,-0.11 z M 12.50,21.24 c 0.09,-0.03 0.20,-0.03 0.25,0.00 0.04,0.03 -0.03,0.06 -0.17,0.06 -0.15,-0.00 -0.18,-0.03 -0.07,-0.07 z m 0.41,-0.39 c -0.16,-0.09 -0.16,-0.11 0.03,-0.11 0.12,-8.99e-4 0.22,0.05 0.22,0.11 0,0.14 -0.01,0.14 -0.26,0 z m 5.75,-0.08 c 0,-0.06 0.11,-0.21 0.26,-0.33 0.14,-0.11 0.26,-0.16 0.26,-0.09 0,0.06 -0.11,0.21 -0.26,0.33 -0.14,0.11 -0.26,0.16 -0.26,0.09 z m -5.25,-0.11 c 0.09,-0.03 0.20,-0.02 0.25,0.00 0.04,0.03 -0.03,0.06 -0.17,0.06 -0.15,-0.00 -0.18,-0.03 -0.07,-0.07 z M 11.55,18.82 c 0.12,-0.57 0.45,-1.46 0.59,-1.60 0.20,-0.19 0.12,0.20 -0.14,0.75 -0.14,0.28 -0.25,0.60 -0.26,0.71 -8.99e-4,0.10 -0.06,0.27 -0.13,0.37 -0.10,0.13 -0.11,0.06 -0.04,-0.23 z m -0.31,-0.97 c -0.01,-0.30 -0.06,-0.65 -0.10,-0.77 -0.06,-0.16 -0.04,-0.18 0.07,-0.08 0.09,0.08 0.13,0.37 0.10,0.77 l -0.04,0.64 -0.02,-0.55 z m 0.83,9.80 c -0.23,-0.21 -0.33,-0.42 -0.28,-0.54 0.04,-0.11 0.02,-0.16 -0.04,-0.11 -0.24,0.13 -0.12,0.51 0.23,0.76 0.50,0.34 0.53,0.31 0.10,-0.09 z m 11.40,-0.33 c -0.03,-0.11 -0.06,-0.04 -0.06,0.14 -0.00,0.19 0.02,0.29 0.06,0.21 0.03,-0.08 0.03,-0.24 0.00,-0.35 z M 17.63,26.81 c 0.25,-0.12 0.38,-0.23 0.29,-0.23 -0.08,-0.00 -0.35,0.10 -0.58,0.23 -0.54,0.30 -0.31,0.30 0.29,8.99e-4 z m 1.63,-0.79 c 0.21,-0.43 0.39,-0.93 0.40,-1.10 0.00,-0.16 0.04,-0.55 0.09,-0.84 l 0.08,-0.53 -0.17,0.41 c -0.16,0.39 -0.17,0.40 -0.25,0.12 -0.04,-0.15 -0.05,-0.31 -0.02,-0.34 0.03,-0.03 0.06,0.02 0.06,0.11 0.00,0.15 0.37,-0.80 0.38,-0.99 8.99e-4,-0.04 -0.08,-0.08 -0.18,-0.08 -0.11,0 -0.27,0.25 -0.41,0.65 -0.21,0.63 -0.44,0.69 -0.42,0.11 0.00,-0.23 0.00,-0.23 0.10,-0.00 0.09,0.21 0.10,0.21 0.18,-0.05 0.04,-0.15 0.05,-0.31 0.02,-0.34 -0.03,-0.02 -0.06,0.01 -0.06,0.09 0,0.08 -0.05,0.11 -0.13,0.07 -0.07,-0.04 -0.18,0.06 -0.26,0.24 -0.17,0.40 -0.16,0.64 0.00,0.41 0.09,-0.12 0.10,-0.04 0.04,0.29 -0.09,0.51 -0.18,0.69 -0.18,0.37 0,-0.11 -0.05,-0.17 -0.13,-0.13 -0.18,0.10 -0.16,1.26 0.01,1.22 0.08,-0.01 0.17,0.04 0.21,0.13 0.04,0.10 0.00,0.13 -0.08,0.08 -0.17,-0.09 -0.19,0.04 -0.03,0.26 0.17,0.25 0.43,-0.75 0.35,-1.38 -0.04,-0.36 -0.03,-0.47 0.03,-0.32 0.10,0.22 0.11,0.22 0.21,-0.04 0.07,-0.22 0.12,-0.24 0.21,-0.11 0.06,0.09 0.10,0.29 0.10,0.46 -0.01,0.27 -0.02,0.27 -0.11,-0.05 l -0.09,-0.35 -0.01,0.32 c -0.00,0.17 0.04,0.35 0.12,0.39 0.09,0.05 0.07,0.17 -0.06,0.35 -0.11,0.15 -0.16,0.37 -0.11,0.48 0.05,0.13 0.03,0.17 -0.05,0.12 -0.08,-0.04 -0.20,0.08 -0.28,0.29 -0.17,0.44 -0.17,0.45 -0.04,0.45 0.05,-8.99e-4 0.27,-0.35 0.49,-0.79 z m 3.91,0.29 c 0.11,-0.20 0.18,-0.39 0.15,-0.42 -0.09,-0.08 -0.47,0.33 -0.48,0.54 -0.00,0.16 -0.03,0.15 -0.12,-0.03 -0.12,-0.26 -0.17,-0.06 -0.05,0.22 0.10,0.24 0.24,0.15 0.50,-0.30 z m 1.54,0.42 c -0.08,-0.03 -0.26,-0.03 -0.39,-0.00 -0.12,0.03 -0.05,0.05 0.16,0.05 0.21,0.00 0.32,-0.02 0.23,-0.05 z m 0.06,-0.24 c -0.12,-0.02 -0.33,-0.02 -0.45,0 -0.12,0.02 -0.02,0.05 0.22,0.05 0.25,0 0.35,-0.02 0.22,-0.05 z m 0.23,-0.24 c 0.16,-0.10 0.34,-0.50 0.23,-0.50 -0.10,0 -0.96,0.48 -0.96,0.54 0,0.08 0.58,0.05 0.72,-0.04 z m -0.96,-0.15 c 0.30,-0.12 0.84,-0.82 0.63,-0.82 -0.17,0 -0.78,0.47 -0.93,0.72 -0.15,0.26 -0.11,0.27 0.29,0.10 z m 0.30,-1.66 c 0.84,-0.75 0.94,-0.88 0.84,-1.13 -0.06,-0.15 -0.07,-0.31 -0.02,-0.36 0.04,-0.05 0.00,-0.04 -0.08,0.00 -0.13,0.07 -0.15,0.02 -0.09,-0.18 0.07,-0.24 0.06,-0.25 -0.05,-0.07 -0.08,0.11 -0.11,0.25 -0.07,0.31 0.09,0.13 -0.92,1.16 -1.23,1.25 -0.12,0.03 -0.30,0.29 -0.39,0.56 -0.09,0.27 -0.23,0.58 -0.31,0.67 -0.28,0.35 0.46,-0.20 1.43,-1.06 z m -0.58,0.02 c 0.09,-0.13 0.27,-0.27 0.40,-0.30 0.33,-0.07 0.29,-0.01 -0.16,0.28 -0.39,0.25 -0.4,0.25 -0.23,0.01 z m 1.86,0.61 0.24,-0.30 -0.31,0.15 c -0.17,0.08 -0.34,0.14 -0.39,0.13 -0.04,-0.01 -0.14,0.10 -0.22,0.26 -0.13,0.27 -0.12,0.28 0.14,0.16 0.15,-0.06 0.4,-0.25 0.53,-0.42 z m 8.35,0.25 c -0.03,-0.16 -0.14,-0.29 -0.24,-0.29 -0.22,0 -0.23,0.25 -0.02,0.45 0.24,0.22 0.33,0.16 0.26,-0.15 z m -10.03,0.00 c 0.20,-0.09 0.49,-0.35 0.62,-0.58 0.15,-0.26 0.31,-0.39 0.43,-0.34 0.10,0.03 0.15,0.13 0.11,0.22 -0.03,0.08 -0.01,0.16 0.04,0.16 0.12,0 0.27,-0.29 0.26,-0.51 -0.00,-0.08 -0.05,-0.06 -0.14,0.03 -0.11,0.14 -0.12,0.13 -0.08,-0.06 0.03,-0.14 -0.00,-0.24 -0.10,-0.24 -0.09,0 -0.13,0.07 -0.09,0.17 0.04,0.10 0.01,0.14 -0.05,0.10 -0.07,-0.04 -0.44,0.21 -0.83,0.57 -0.75,0.69 -0.77,0.74 -0.17,0.47 z m 9.28,-0.30 c -0.04,-0.06 0.00,-0.15 0.12,-0.19 0.25,-0.08 0.07,-0.43 -0.24,-0.47 -0.20,-0.02 -0.20,-0.01 -0.00,0.18 0.18,0.18 0.18,0.22 0.01,0.28 -0.10,0.03 -0.23,0.01 -0.27,-0.04 -0.08,-0.13 -0.58,-0.38 -0.58,-0.30 0,0.05 0.93,0.66 1.02,0.66 0.02,0 0.00,-0.05 -0.03,-0.11 z m -6.60,-0.41 c 0,0.05 0.09,-0.00 0.20,-0.13 0.20,-0.22 0.20,-0.22 0.12,0.00 -0.06,0.18 -0.04,0.20 0.06,0.10 0.08,-0.07 0.11,-0.19 0.06,-0.26 -0.11,-0.17 -0.63,0.05 -0.85,0.38 -0.17,0.25 -0.17,0.25 0.10,0.03 0.15,-0.12 0.27,-0.18 0.27,-0.12 z m 0.37,-0.93 c 0.09,-0.18 0.15,-0.35 0.12,-0.38 -0.02,-0.02 -0.37,0.25 -0.76,0.62 l -0.71,0.67 0.58,-0.29 c 0.32,-0.16 0.66,-0.44 0.76,-0.62 z m 1.07,0.30 c 0.30,-0.35 0.29,-0.95 -0.02,-1.30 -0.14,-0.15 -0.18,-0.15 -0.33,0.03 -0.09,0.11 -0.16,0.34 -0.16,0.51 0.00,0.30 0.00,0.30 0.19,-0.05 l 0.18,-0.35 -0.08,0.41 c -0.04,0.23 -0.19,0.62 -0.33,0.87 -0.25,0.45 -0.25,0.45 0.00,0.32 0.14,-0.06 0.38,-0.27 0.54,-0.45 z m -2.48,-0.23 c -0.14,-0.20 -0.14,-0.20 -0.07,0.00 0.04,0.12 0.08,0.28 0.08,0.35 0.00,0.10 0.02,0.09 0.07,-0.00 0.03,-0.07 -0.00,-0.24 -0.08,-0.35 z m 7.26,0.21 c 0,-0.27 -0.28,-0.27 -0.36,-0.00 -0.05,0.18 -0.01,0.24 0.14,0.21 0.12,-0.02 0.21,-0.11 0.21,-0.20 z m -5.56,-0.30 c 0,-0.06 -0.05,-0.03 -0.12,0.05 -0.07,0.09 -0.12,0.23 -0.12,0.29 0,0.06 0.05,0.03 0.12,-0.06 0.06,-0.09 0.12,-0.23 0.12,-0.29 z m 4.97,0.29 c 0,-0.06 -0.20,-0.11 -0.46,-0.11 -0.27,0 -0.43,0.04 -0.38,0.11 0.04,0.06 0.25,0.11 0.46,0.11 0.21,0 0.38,-0.05 0.38,-0.11 z M 21.72,23.24 c -0.12,-0.19 -0.24,-0.32 -0.27,-0.30 -0.05,0.05 0.34,0.65 0.43,0.65 0.03,0 -0.04,-0.15 -0.16,-0.34 z m 7.64,0.21 c -0.17,-0.09 -0.28,-0.09 -0.38,0.00 -0.10,0.09 -0.03,0.13 0.24,0.12 0.33,-0.00 0.35,-0.01 0.14,-0.13 z M 28.89,22.16 c 0.16,-0.81 0.15,-0.83 -0.15,-1.07 -0.17,-0.13 -0.43,-0.30 -0.57,-0.37 -0.14,-0.07 -0.04,0.03 0.21,0.24 0.32,0.25 0.46,0.45 0.44,0.63 -0.10,0.78 -0.24,1.27 -0.34,1.21 -0.06,-0.03 -0.08,0.01 -0.04,0.11 0.13,0.32 0.28,0.08 0.45,-0.76 z m -0.66,0.29 c -0.13,-0.14 -0.12,-0.22 0.08,-0.44 0.22,-0.23 0.20,-0.23 -0.11,0.02 -0.32,0.26 -0.33,0.29 -0.12,0.44 0.30,0.20 0.35,0.20 0.15,-0.01 z m -6.79,-0.58 c -0.39,-0.57 -0.47,-0.53 -0.10,0.04 0.16,0.25 0.31,0.44 0.34,0.42 0.02,-0.02 -0.07,-0.23 -0.23,-0.46 z M 6.61,21.65 c 0.20,-0.36 0.02,-1.08 -0.27,-1.14 -0.20,-0.03 -0.21,0.02 -0.14,0.56 0.06,0.47 0.04,0.60 -0.09,0.60 -0.14,0.00 -0.13,0.02 0.01,0.11 0.28,0.16 0.33,0.15 0.49,-0.14 z m 13.91,-0.35 c -0.12,-0.11 -0.14,-0.10 -0.07,0.06 0.04,0.11 0.12,0.18 0.16,0.14 0.04,-0.03 0,-0.13 -0.08,-0.21 z m 4.65,-0.47 c -0.03,-0.14 -0.05,-0.02 -0.05,0.26 0,0.29 0.02,0.41 0.05,0.26 0.03,-0.14 0.03,-0.38 0,-0.53 z M 9.02,21.25 c -0.08,-0.03 -0.23,-0.03 -0.32,0 -0.08,0.03 -0.01,0.06 0.16,0.06 0.17,0 0.25,-0.02 0.16,-0.06 z m 2.75,8.99e-4 c -0.08,-0.03 -0.26,-0.03 -0.39,-0.00 -0.12,0.03 -0.05,0.05 0.16,0.05 0.21,0.00 0.32,-0.02 0.23,-0.05 z M 8.47,20.96 c -0.14,-0.09 -0.08,-0.10 0.26,-0.06 0.70,0.09 2.60,0.12 2.69,0.03 0.09,-0.08 -0.16,-0.48 -0.59,-0.89 -0.15,-0.14 -0.27,-0.33 -0.25,-0.41 0.06,-0.43 -0.01,-0.46 -0.46,-0.21 -0.44,0.25 -0.46,0.25 -1.18,0.04 -0.71,-0.20 -0.73,-0.20 -1.00,0.04 -0.25,0.23 -0.26,0.28 -0.10,0.85 0.09,0.35 0.25,0.62 0.37,0.65 0.37,0.09 0.46,0.07 0.27,-0.05 z m 7.06,-0.58 c -0.10,-0.06 -0.28,-0.11 -0.39,-0.10 -0.12,0.00 -0.10,0.04 0.06,0.10 0.35,0.14 0.56,0.14 0.32,0 z m 16.20,-0.38 c -0.18,-0.49 -0.29,-0.60 -0.18,-0.17 0.09,0.36 0.05,0.38 -0.33,0.19 -0.20,-0.09 -0.24,-0.09 -0.17,0.00 0.08,0.12 0.52,0.33 0.74,0.35 0.05,0.00 0.02,-0.16 -0.05,-0.37 z m -15.01,0.08 c 0.21,-0.10 0.38,-0.20 0.38,-0.24 0,-0.03 -0.11,-0.00 -0.25,0.06 -0.31,0.15 -0.44,0.15 -0.33,0.00 0.04,-0.07 -0.01,-0.08 -0.14,-0.03 -0.16,0.05 -0.17,0.09 -0.05,0.13 0.13,0.04 0.13,0.07 -0.00,0.15 -0.30,0.17 0.00,0.11 0.41,-0.07 z m 10.33,-0.05 c -0.17,-0.12 -0.38,-0.23 -0.45,-0.23 -0.07,-8.99e-4 0.04,0.10 0.26,0.23 0.50,0.30 0.62,0.30 0.19,0 z M 7.55,19.95 c 0,-0.09 -0.05,-0.17 -0.12,-0.17 -0.07,0 -0.09,0.08 -0.05,0.17 0.04,0.09 0.09,0.17 0.12,0.17 0.02,0 0.05,-0.08 0.05,-0.17 z m 17.75,-0.20 c -0.03,-0.08 -0.06,-0.01 -0.06,0.14 0,0.16 0.02,0.23 0.06,0.14 0.03,-0.08 0.03,-0.21 0,-0.29 z M 5.98,19.89 c 0,-0.06 -0.06,-0.11 -0.13,-0.11 -0.07,0 -0.10,0.05 -0.05,0.11 0.04,0.06 0.10,0.11 0.13,0.11 0.03,0 0.05,-0.05 0.05,-0.11 z M 18.26,19.47 c -0.03,-0.03 -0.11,0.02 -0.16,0.14 -0.07,0.16 -0.05,0.18 0.07,0.06 0.08,-0.08 0.12,-0.17 0.08,-0.21 z m 0.54,0.00 c -0.08,-0.09 -0.22,-0.17 -0.29,-0.17 -0.07,0 -0.05,0.07 0.03,0.17 0.08,0.09 0.22,0.17 0.29,0.17 0.07,0 0.05,-0.07 -0.03,-0.17 z m 10.92,-0.00 c -0.21,-0.08 -0.48,-0.16 -0.58,-0.16 -0.10,0.00 0.00,0.07 0.26,0.16 0.59,0.20 0.83,0.20 0.32,-0.00 z m 1.68,-0.64 c -0.04,-0.27 -0.11,-0.47 -0.14,-0.44 -0.03,0.03 -0.02,0.27 0.02,0.54 0.05,0.27 0.11,0.46 0.14,0.44 0.03,-0.02 0.01,-0.27 -0.03,-0.54 z m -13.35,0.28 c 0.30,-0.01 0.59,-0.03 0.64,-0.04 0.18,-0.02 -0.40,-0.92 -0.74,-1.12 -0.18,-0.10 -0.37,-0.19 -0.43,-0.19 -0.05,8.99e-4 -0.01,0.04 0.08,0.10 0.13,0.07 0.00,0.13 -0.43,0.19 -0.76,0.10 -1.25,0.49 -0.87,0.70 0.06,0.03 0.16,-0.05 0.21,-0.20 0.09,-0.26 0.09,-0.26 0.19,-0.03 0.05,0.13 0.10,0.17 0.11,0.08 0.00,-0.08 0.07,-0.14 0.14,-0.14 0.08,0 0.10,0.10 0.04,0.26 l -0.09,0.26 0.30,-0.23 0.30,-0.23 -0.22,0.32 c -0.27,0.40 -0.27,0.46 -0.01,0.37 0.11,-0.04 0.45,-0.08 0.75,-0.10 z m 10.81,0.12 c 0,-0.07 -0.95,-0.30 -1.02,-0.24 -0.02,0.02 0.14,0.10 0.38,0.16 0.53,0.14 0.63,0.15 0.63,0.08 z M 7.29,18.89 c -0.08,-0.07 -0.17,-0.07 -0.25,0 -0.08,0.07 -0.04,0.11 0.12,0.11 0.16,0 0.21,-0.03 0.12,-0.11 z m 20.41,0.00 c 0,-0.02 -0.11,-0.07 -0.26,-0.10 -0.14,-0.03 -0.22,-0.01 -0.18,0.04 0.07,0.10 0.45,0.15 0.45,0.06 z M 21.29,18.66 c 0,-0.02 -0.10,-0.11 -0.22,-0.20 -0.20,-0.14 -0.21,-0.14 -0.04,0.04 0.17,0.19 0.27,0.26 0.27,0.16 z m 0.65,-0.07 c 0.17,-0.10 0.17,-0.13 0,-0.23 -0.10,-0.06 -0.28,-0.11 -0.39,-0.11 -0.14,0.00 -0.13,0.03 0.04,0.13 0.19,0.10 0.20,0.14 0.06,0.23 -0.09,0.05 -0.12,0.10 -0.04,0.10 0.07,0 0.21,-0.05 0.32,-0.11 z m 4.17,-0.71 c -0.00,-0.09 -0.08,0.00 -0.17,0.23 -0.23,0.54 -0.22,0.75 0.00,0.29 0.09,-0.19 0.17,-0.43 0.17,-0.53 z M 8.28,18.37 c -0.04,-0.03 -0.14,0 -0.23,0.08 -0.12,0.11 -0.11,0.13 0.07,0.06 0.12,-0.04 0.20,-0.11 0.16,-0.14 z m 19.44,-0.11 c 0.16,-0.18 0.15,-0.19 -0.04,-0.04 -0.12,0.09 -0.22,0.18 -0.22,0.20 0,0.09 0.10,0.03 0.27,-0.16 z m -8.91,0.05 c 0,-0.02 -0.16,-0.16 -0.35,-0.32 l -0.36,-0.28 0.31,0.32 c 0.29,0.30 0.40,0.38 0.40,0.28 z m -7.89,-0.69 c -0.04,-0.09 -0.07,-0.06 -0.07,0.07 -0.00,0.12 0.02,0.19 0.06,0.15 0.04,-0.03 0.04,-0.14 0.01,-0.22 z m 5.90,-0.43 c -0.03,-0.37 -0.08,-0.46 -0.21,-0.38 -0.13,0.07 -0.15,0.23 -0.08,0.60 0.11,0.64 0.36,0.46 0.30,-0.21 z m 0.58,0.05 c 0.28,-0.78 0.28,-0.78 -0.01,-0.71 -0.16,0.03 -0.27,0.20 -0.32,0.49 -0.18,1.04 0.00,1.16 0.34,0.21 z m 8.17,0.37 c -0.04,-0.09 -0.07,-0.06 -0.07,0.07 -0.00,0.12 0.02,0.19 0.06,0.15 0.04,-0.03 0.04,-0.14 0.00,-0.22 z m 5.49,0 c -0.04,-0.09 -0.07,-0.06 -0.07,0.07 -0.00,0.12 0.02,0.19 0.06,0.15 0.04,-0.03 0.04,-0.14 0.01,-0.22 z m -4.55,-0.66 c 0.14,-0.34 0.24,-0.62 0.20,-0.62 -0.08,0 -0.58,1.04 -0.58,1.22 0,0.21 0.09,0.06 0.37,-0.59 z m 4.21,-0.40 c -0.15,-0.41 -0.36,-0.88 -0.47,-1.05 -0.23,-0.35 -0.22,-0.31 0.26,0.92 0.45,1.13 0.62,1.23 0.20,0.12 z m -5.02,0.47 c -0.04,-0.09 -0.07,-0.06 -0.07,0.07 -0.00,0.12 0.02,0.19 0.06,0.15 0.04,-0.03 0.04,-0.14 0.00,-0.22 z M 18.96,16.82 c 0.16,-0.18 0.15,-0.19 -0.04,-0.04 -0.12,0.08 -0.22,0.18 -0.22,0.20 0,0.09 0.10,0.03 0.27,-0.16 z m 1.64,0.13 c -0.04,-0.03 -0.15,-0.04 -0.25,-0.00 -0.10,0.03 -0.07,0.06 0.07,0.07 0.13,0.00 0.21,-0.02 0.17,-0.06 z m 2.01,-0.17 c 0.23,-0.13 -0.53,-0.13 -1.25,0.00 -0.49,0.09 -0.48,0.09 0.27,0.09 0.43,0.00 0.88,-0.04 0.98,-0.10 z M 7.22,16.24 c 0.11,-0.03 0.29,-0.00 0.39,0.08 0.10,0.08 0.24,0.11 0.29,0.06 0.13,-0.12 -0.36,-0.42 -0.70,-0.42 -0.18,0 -0.31,0.09 -0.36,0.26 -0.12,0.40 -0.08,0.66 0.05,0.35 0.06,-0.14 0.20,-0.30 0.32,-0.34 z m 18.61,0.17 c -0.04,-0.09 -0.07,-0.06 -0.07,0.07 -0.00,0.12 0.02,0.19 0.06,0.15 0.04,-0.04 0.04,-0.14 0.01,-0.22 z M 10.13,16.36 c -0.04,-0.03 -0.15,-0.04 -0.25,-0.00 -0.10,0.03 -0.07,0.06 0.07,0.07 0.13,0.00 0.21,-0.02 0.17,-0.06 z m 8.8,-0.29 c -0.07,-0.12 -0.22,-0.23 -0.32,-0.23 -0.10,0 -0.19,-0.05 -0.19,-0.12 0,-0.06 -0.07,-0.08 -0.15,-0.03 -0.10,0.05 -0.06,0.12 0.13,0.20 0.16,0.06 0.26,0.18 0.22,0.28 -0.03,0.09 -0.01,0.13 0.06,0.09 0.07,-0.03 0.12,-0.01 0.12,0.06 0,0.07 0.05,0.10 0.13,0.06 0.08,-0.04 0.08,-0.15 -0.00,-0.30 z m -8.87,-0.02 c -0.08,-0.09 -0.09,-0.21 -0.01,-0.32 0.09,-0.14 0.12,-0.13 0.13,0.06 0.00,0.13 0.04,0.17 0.08,0.08 0.03,-0.08 -0.00,-0.23 -0.09,-0.33 -0.08,-0.09 -0.12,-0.21 -0.08,-0.24 0.04,-0.03 0.02,-0.17 -0.05,-0.29 -0.09,-0.16 -0.07,-0.30 0.07,-0.51 0.13,-0.19 0.19,-0.48 0.16,-0.86 l -0.04,-0.57 -0.45,0.71 c -0.24,0.39 -0.44,0.81 -0.43,0.95 0.01,0.19 -0.00,0.21 -0.11,0.06 -0.11,-0.14 -0.12,-0.13 -0.07,0.06 0.04,0.17 -0.00,0.24 -0.18,0.24 -0.20,0 -0.29,-0.14 -0.26,-0.43 0.00,-0.03 -0.10,-0.06 -0.23,-0.06 -0.13,0 -0.20,0.05 -0.16,0.11 0.04,0.06 -0.01,0.08 -0.14,0.03 -0.11,-0.04 -0.21,-0.02 -0.21,0.02 0,0.05 0.14,0.13 0.32,0.17 0.17,0.04 0.32,0.11 0.32,0.17 0,0.05 0.29,0.28 0.65,0.50 0.35,0.22 0.65,0.44 0.65,0.49 0,0.04 0.06,0.08 0.14,0.08 0.10,0 0.10,-0.04 0.00,-0.15 z m 15.90,-0.10 c -0.04,-0.09 -0.07,-0.06 -0.07,0.07 -0.00,0.12 0.02,0.19 0.06,0.15 0.04,-0.03 0.04,-0.14 0.00,-0.22 z M 9.38,15.91 c 0,-0.08 -1.33,-0.92 -1.38,-0.87 -0.02,0.02 0.22,0.24 0.56,0.48 0.56,0.40 0.81,0.52 0.81,0.39 z m 8.69,-0.44 c -0.12,-0.18 -0.30,-0.11 -0.28,0.12 0.01,0.17 0.06,0.20 0.18,0.10 0.09,-0.06 0.13,-0.17 0.09,-0.23 z M 9.21,14.27 c -0.04,-0.09 -0.07,-0.06 -0.07,0.07 -0.00,0.12 0.02,0.19 0.06,0.15 0.04,-0.03 0.04,-0.14 0.01,-0.22 z m -0.24,-0.16 c -0.03,-0.03 -0.11,0.02 -0.16,0.14 -0.07,0.16 -0.05,0.18 0.07,0.06 0.08,-0.08 0.12,-0.17 0.08,-0.21 z M 29.33,13.99 c -0.11,-0.16 -0.24,-0.27 -0.28,-0.23 -0.06,0.05 0.34,0.54 0.45,0.54 0.02,0 -0.04,-0.13 -0.16,-0.30 z M 8.55,13.77 c -0.04,-0.13 -0.07,-0.30 -0.08,-0.37 -0.01,-0.17 -0.23,0.32 -0.24,0.56 -0.00,0.13 0.05,0.18 0.19,0.13 0.13,-0.04 0.18,-0.15 0.13,-0.32 z m 0.37,0.05 C 8.96,13.77 8.91,13.66 8.80,13.58 8.65,13.47 8.63,13.48 8.69,13.69 c 0.07,0.27 0.12,0.29 0.22,0.13 z M 9.65,13.63 c 0.17,-0.22 0.17,-0.22 -0.03,-0.07 -0.12,0.08 -0.22,0.21 -0.22,0.28 0,0.06 0.01,0.10 0.03,0.07 0.01,-0.02 0.12,-0.15 0.22,-0.28 z M 21.50,12.43 c 0.25,-0.55 0.23,-0.64 -0.14,-0.64 -0.25,0 -0.32,0.06 -0.32,0.29 0,0.16 0.05,0.32 0.13,0.36 0.07,0.04 0.13,0.13 0.13,0.21 0,0.09 -0.04,0.09 -0.15,-0.00 -0.27,-0.25 -0.52,-0.17 -0.27,0.08 0.26,0.28 0.40,0.21 0.64,-0.30 z m 0.83,-0.28 c 0,-0.48 0.44,-0.91 1.18,-1.13 0.63,-0.19 0.81,-0.37 0.48,-0.47 -0.39,-0.12 -0.88,-0.15 -0.95,-0.05 -0.04,0.06 -0.20,0.17 -0.36,0.24 -0.26,0.13 -0.27,0.12 -0.09,-0.08 0.10,-0.12 0.29,-0.32 0.42,-0.44 0.25,-0.23 0.31,-0.74 0.09,-0.86 -0.22,-0.12 -0.30,0.04 -0.12,0.24 0.13,0.14 0.12,0.23 -0.05,0.48 -0.11,0.16 -0.28,0.29 -0.36,0.29 -0.08,0 -0.05,-0.09 0.06,-0.21 0.32,-0.32 0.28,-0.58 -0.04,-0.31 -0.20,0.16 -0.30,0.18 -0.41,0.07 -0.11,-0.10 -0.11,-0.14 0.00,-0.14 0.08,0 0.15,-0.05 0.15,-0.12 0,-0.07 0.15,-0.31 0.34,-0.53 0.18,-0.22 0.29,-0.40 0.23,-0.40 -0.05,0 0.01,-0.10 0.16,-0.22 C 23.33,8.24 23.61,7.42 23.48,7.30 23.45,7.27 23.16,7.22 22.83,7.19 c -0.42,-0.04 -0.63,-0.00 -0.75,0.12 -0.08,0.09 -0.24,0.17 -0.33,0.17 -0.41,0 -0.96,1.18 -0.54,1.19 0.09,0.00 0.06,0.05 -0.06,0.12 -0.31,0.16 -0.28,0.32 0.05,0.36 0.15,0.02 0.30,0.10 0.33,0.18 0.03,0.10 -0.05,0.12 -0.32,0.08 -0.27,-0.04 -0.43,-0.00 -0.61,0.17 -0.26,0.27 -0.19,0.64 0.10,0.53 0.14,-0.04 0.17,-0.00 0.12,0.18 -0.05,0.19 -0.00,0.24 0.20,0.24 0.33,0 0.34,0.08 0.05,0.38 -0.31,0.32 -0.07,0.61 0.54,0.66 0.36,0.02 0.45,0.07 0.35,0.18 -0.07,0.08 -0.18,0.28 -0.25,0.44 -0.11,0.28 -0.10,0.29 0.25,0.25 0.31,-0.04 0.37,-0.10 0.37,-0.37 z m 1.70,0.35 c 0,-0.06 -0.08,-0.08 -0.19,-0.04 -0.10,0.03 -0.19,0.08 -0.19,0.11 0,0.02 0.08,0.04 0.19,0.04 0.10,0 0.19,-0.05 0.19,-0.11 z m 1.47,-0.44 c -0.23,-0.02 -0.61,-0.02 -0.85,0 -0.23,0.02 -0.04,0.04 0.42,0.04 0.46,0 0.65,-0.02 0.42,-0.04 z m 0.84,0.01 c -0.04,-0.03 -0.15,-0.04 -0.25,-0.00 -0.10,0.03 -0.07,0.06 0.07,0.07 0.13,0.00 0.21,-0.02 0.17,-0.06 z M 20.60,5.80 c -0.04,-0.09 -0.07,-0.06 -0.07,0.07 -0.00,0.12 0.02,0.19 0.06,0.15 0.04,-0.03 0.04,-0.14 0.00,-0.22 z m 1.08,0.11 c 0,-0.09 -0.16,-0.14 -0.42,-0.12 -0.58,0.02 -0.61,0.05 -0.16,0.15 0.57,0.13 0.58,0.13 0.58,-0.02 z M 32.42,37.45 c 0,-0.09 0.07,-0.13 0.19,-0.09 0.11,0.04 0.19,0 0.19,-0.10 0,-0.24 0.35,-0.22 0.50,0.03 0.10,0.16 0.12,0.13 0.08,-0.14 -0.02,-0.19 -0.05,-0.39 -0.05,-0.44 -0.00,-0.04 -0.09,-0.08 -0.20,-0.08 -0.10,0 -0.19,-0.06 -0.19,-0.14 -8.99e-4,-0.08 -0.03,-0.26 -0.08,-0.41 -0.11,-0.39 0.25,-0.34 0.44,0.05 l 0.14,0.32 -0.06,-0.35 c -0.05,-0.27 -0.03,-0.31 0.07,-0.17 0.12,0.15 0.14,0.15 0.14,0 0.00,-0.15 0.02,-0.15 0.12,-0.00 0.06,0.09 0.21,0.18 0.32,0.19 0.11,0.01 0.17,-0.02 0.13,-0.08 -0.04,-0.06 -0.01,-0.10 0.05,-0.10 0.07,0 0.14,-0.08 0.17,-0.19 0.03,-0.15 0.08,-0.12 0.22,0.11 0.17,0.29 0.15,0.33 -0.22,0.69 -0.22,0.21 -0.41,0.43 -0.41,0.49 0,0.06 -0.08,0.04 -0.18,-0.02 -0.15,-0.11 -0.17,-0.09 -0.12,0.08 0.08,0.29 -0.16,0.46 -0.77,0.52 -0.36,0.03 -0.49,0.00 -0.49,-0.11 z m 10.07,0.10 -0.32,-0.08 0.32,-0.05 0.32,-0.05 -0.36,-0.13 c -0.53,-0.20 -0.43,-0.24 0.24,-0.10 0.54,0.11 0.57,0.13 0.29,0.22 -0.24,0.08 -0.26,0.12 -0.11,0.21 0.22,0.12 0.07,0.12 -0.39,0.00 z m -10.85,-0.71 c 0.00,-0.27 0.01,-0.28 0.11,-0.07 0.09,0.22 0.10,0.21 0.16,-0.05 0.05,-0.26 0.06,-0.26 0.08,0.06 0.01,0.25 -0.04,0.36 -0.17,0.36 -0.12,0 -0.19,-0.10 -0.18,-0.30 z m 0.59,-0.07 c 0.10,-0.44 0.12,-0.46 0.38,-0.37 0.25,0.08 0.19,0.50 -0.06,0.45 -0.09,-0.01 -0.22,0.03 -0.29,0.11 -0.06,0.09 -0.08,0.01 -0.02,-0.20 z m 9.91,-0.38 c -0.13,-0.11 -0.17,-0.16 -0.07,-0.10 0.11,0.06 0.23,0.05 0.33,-0.03 0.12,-0.11 0.11,-0.13 -0.03,-0.10 -0.10,0.02 -0.20,-0.02 -0.21,-0.11 -0.04,-0.31 -0.06,-0.32 -0.19,-0.14 -0.11,0.14 -0.12,0.14 -0.08,0.00 0.02,-0.09 -0.14,-0.46 -0.38,-0.82 -0.23,-0.36 -0.43,-0.71 -0.42,-0.78 0.00,-0.07 0.12,0.08 0.27,0.35 0.39,0.67 1.01,1.37 1.23,1.37 0.10,0 0.22,0.08 0.26,0.17 0.04,0.09 0.14,0.14 0.22,0.10 0.10,-0.05 0.10,-0.03 0.01,0.04 -0.26,0.24 -0.67,0.27 -0.93,0.06 z M 41.51,35.63 c -0.04,-0.07 -0.05,-0.15 -0.02,-0.18 0.03,-0.03 0.09,0.02 0.14,0.12 0.08,0.20 0.01,0.24 -0.11,0.05 z m -0.36,-0.07 c -0.04,-0.04 -0.08,-0.13 -0.08,-0.20 0,-0.07 0.06,-0.06 0.15,0.01 0.08,0.07 0.12,0.16 0.08,0.20 -0.03,0.03 -0.10,0.02 -0.15,-0.01 z m 1.03,-0.01 c -0.03,-0.05 0.01,-0.09 0.11,-0.09 0.10,0 0.15,0.04 0.11,0.09 -0.03,0.05 -0.08,0.09 -0.11,0.09 -0.02,0 -0.08,-0.04 -0.11,-0.09 z M 29.31,34.40 c -0.38,-0.72 -0.40,-1.79 -0.03,-2.46 0.14,-0.25 0.32,-0.47 0.39,-0.47 0.19,0 0.15,0.19 -0.13,0.68 -0.32,0.54 -0.34,1.56 -0.05,2.07 0.11,0.19 0.18,0.44 0.16,0.54 -0.02,0.10 -0.16,-0.05 -0.33,-0.36 z m 5.42,-1.39 c -0.29,-0.34 -0.34,-0.70 -0.09,-0.70 0.10,0 0.55,0.97 0.47,1.04 -0.02,0.02 -0.19,-0.12 -0.37,-0.33 z m -3.78,-2.51 c -0.25,-0.25 -0.43,-0.33 -0.62,-0.28 -0.14,0.04 -0.38,0.10 -0.54,0.15 -0.20,0.05 -0.26,0.03 -0.21,-0.08 0.03,-0.10 0.28,-0.18 0.64,-0.20 0.48,-0.02 0.63,0.01 0.88,0.26 0.16,0.16 0.28,0.34 0.25,0.40 -0.02,0.06 -0.20,-0.04 -0.40,-0.24 z m 1.48,-1.43 c 0.00,-0.27 0.04,-0.43 0.08,-0.34 0.05,0.13 0.09,0.13 0.17,0.00 0.05,-0.08 0.19,-0.16 0.31,-0.18 0.11,-0.01 0.17,0.02 0.13,0.08 -0.06,0.09 0.11,0.15 0.36,0.12 0.05,-0.00 0.09,0.06 0.09,0.16 0,0.09 0.07,0.16 0.16,0.14 0.08,-0.01 0.17,0.08 0.20,0.21 0.03,0.19 -0.02,0.24 -0.24,0.22 -0.16,-0.00 -0.33,-0.12 -0.38,-0.24 -0.09,-0.22 -0.09,-0.22 -0.12,0.00 -0.01,0.20 -0.03,0.19 -0.12,-0.05 -0.09,-0.27 -0.10,-0.27 -0.11,-0.04 -0.01,0.21 -0.23,0.40 -0.48,0.40 -0.03,0 -0.05,-0.22 -0.04,-0.50 z m 3.93,-0.56 c 0,-0.16 0.02,-0.23 0.06,-0.14 0.03,0.08 0.03,0.21 0,0.29 -0.03,0.08 -0.06,0.01 -0.06,-0.14 z m -3.00,-0.15 c -0.29,-0.28 -0.39,-0.51 -0.16,-0.38 0.07,0.04 0.09,-0.00 0.05,-0.09 -0.03,-0.09 0.02,-0.25 0.13,-0.35 0.11,-0.10 0.16,-0.27 0.12,-0.37 -0.04,-0.10 -0.02,-0.18 0.05,-0.18 0.07,0 0.15,0.13 0.19,0.29 0.03,0.16 0.01,0.26 -0.04,0.23 -0.11,-0.06 -0.08,0.42 0.03,0.60 0.04,0.06 0.03,0.21 -0.01,0.32 -0.07,0.19 -0.10,0.19 -0.37,-0.06 z m 2.80,-0.74 c -0.04,-0.10 -0.07,-0.25 -0.07,-0.33 0.00,-0.07 0.06,-0.01 0.13,0.14 0.06,0.15 0.10,0.30 0.07,0.33 -0.02,0.02 -0.08,-0.03 -0.13,-0.14 z m 0.24,-0.18 c -0.04,-0.06 -0.05,-0.15 -0.02,-0.18 0.03,-0.03 0.09,0.02 0.14,0.12 0.08,0.21 0.01,0.24 -0.11,0.05 z m -0.89,-0.63 c -0.05,-0.19 -0.03,-0.39 0.03,-0.46 0.08,-0.08 0.10,-0.02 0.06,0.16 -0.04,0.17 -0.02,0.23 0.04,0.14 0.08,-0.10 0.15,-0.08 0.27,0.08 0.09,0.14 0.10,0.23 0.02,0.23 -0.07,0 -0.13,-0.06 -0.14,-0.14 -0.00,-0.08 -0.05,-0.04 -0.10,0.08 -0.08,0.20 -0.11,0.19 -0.19,-0.10 z M 31.87,26.44 c -0.22,-0.46 -0.80,-0.94 -1.14,-0.94 -0.12,0 -0.41,0.13 -0.66,0.29 -0.47,0.32 -0.72,0.37 -0.85,0.17 -0.11,-0.17 0.96,-0.58 1.54,-0.59 0.96,-0.00 1.50,0.46 1.37,1.20 -0.04,0.25 -0.06,0.24 -0.25,-0.14 z m 4.20,0.18 c -0.25,-0.27 -0.07,-0.33 0.19,-0.05 0.13,0.13 0.17,0.23 0.10,0.23 -0.07,0 -0.21,-0.08 -0.30,-0.18 z m -7.93,-1.19 c -0.04,-0.10 -0.04,-0.21 -0.01,-0.24 0.03,-0.03 0.09,0.04 0.13,0.18 0.08,0.28 -0.00,0.32 -0.12,0.05 z m 0.21,-0.29 c -0.07,-0.13 -0.11,-0.23 -0.07,-0.23 0.03,0 0.12,0.10 0.20,0.23 0.07,0.13 0.11,0.23 0.07,0.23 -0.03,0 -0.12,-0.10 -0.20,-0.23 z m 1.32,0.08 c -0.08,-0.07 -0.14,-0.21 -0.14,-0.31 0.00,-0.16 0.01,-0.16 0.12,-0.00 0.07,0.09 0.12,0.13 0.12,0.07 8.99e-4,-0.05 0.08,-0.03 0.19,0.04 0.16,0.12 0.18,0.08 0.14,-0.22 -0.06,-0.44 0.04,-0.46 0.45,-0.07 0.34,0.33 0.22,0.40 -0.18,0.09 -0.15,-0.11 -0.19,-0.12 -0.10,-0.03 0.22,0.23 0.20,0.30 -0.14,0.45 -0.22,0.09 -0.35,0.09 -0.45,-0.00 z m -0.85,-0.40 c -0.07,-0.16 -0.05,-0.18 0.07,-0.06 0.08,0.08 0.12,0.17 0.08,0.21 -0.04,0.03 -0.11,-0.02 -0.16,-0.14 z m 0.26,-0.09 c -0.12,-0.30 -0.08,-0.37 0.06,-0.13 0.07,0.11 0.11,0.24 0.07,0.27 -0.03,0.03 -0.09,-0.03 -0.14,-0.13 z m 1.67,-0.07 c -0.24,-0.25 -0.24,-0.25 0.03,-0.11 0.31,0.15 0.51,0.37 0.32,0.37 -0.06,0 -0.23,-0.11 -0.36,-0.25 z m -2.14,-0.45 c 0,-0.06 0.36,-0.11 0.84,-0.11 0.46,0 0.88,0.05 0.92,0.11 0.05,0.07 -0.26,0.11 -0.84,0.11 -0.52,0 -0.92,-0.05 -0.92,-0.11 z M 7.69,22.77 C 7.54,22.51 7.43,22.11 7.44,21.90 c 0.01,-0.36 0.02,-0.36 0.10,0.09 0.04,0.27 0.19,0.63 0.32,0.81 0.12,0.17 0.20,0.35 0.16,0.38 -0.03,0.03 -0.18,-0.15 -0.33,-0.42 z m 0.95,0.32 c -0.03,-0.05 -0.03,-0.20 0.01,-0.32 0.04,-0.12 0.01,-0.26 -0.05,-0.30 -0.07,-0.04 -0.10,-0.12 -0.06,-0.19 0.04,-0.06 -0.04,-0.25 -0.19,-0.42 -0.42,-0.49 -0.23,-0.44 0.39,0.10 0.60,0.52 0.62,0.58 0.47,0.99 -0.09,0.24 -0.43,0.33 -0.56,0.14 z m 0.47,-0.15 c 0,-0.01 -0.07,-0.06 -0.17,-0.09 -0.09,-0.03 -0.17,0.00 -0.17,0.09 0,0.08 0.07,0.12 0.17,0.09 0.09,-0.03 0.17,-0.07 0.17,-0.09 z m 0,-0.22 c 0,-0.02 -0.13,-0.14 -0.29,-0.26 l -0.29,-0.22 0.24,0.26 c 0.23,0.25 0.33,0.32 0.33,0.22 z M 4.76,21.52 c -0.04,-0.10 0.00,-0.16 0.14,-0.15 0.11,0.00 0.23,-0.07 0.26,-0.19 0.03,-0.13 -0.03,-0.20 -0.19,-0.21 -0.19,-0.00 -0.20,-0.02 -0.04,-0.11 0.10,-0.06 0.15,-0.14 0.10,-0.19 -0.05,-0.04 -0.17,-0.01 -0.27,0.05 -0.26,0.20 -0.37,-0.01 -0.26,-0.52 0.11,-0.58 0.38,-0.71 0.28,-0.13 -0.06,0.37 -0.04,0.43 0.17,0.43 0.34,0 0.52,0.36 0.40,0.78 -0.10,0.37 -0.46,0.52 -0.57,0.24 z m 2.66,-0.38 c 0.00,-0.13 0.03,-0.16 0.07,-0.07 0.03,0.08 0.03,0.18 -0.01,0.22 -0.04,0.03 -0.07,-0.03 -0.06,-0.15 z m 1.70,-2.18 c -0.10,-0.05 -0.13,-0.16 -0.08,-0.24 0.07,-0.11 0.12,-0.10 0.21,0.01 0.06,0.08 0.11,0.10 0.11,0.03 8.98e-4,-0.07 0.09,-0.12 0.19,-0.12 0.10,0 0.19,0.04 0.19,0.09 0,0.05 -0.08,0.09 -0.18,0.09 -0.10,0 -0.20,0.05 -0.22,0.11 -0.02,0.06 -0.11,0.07 -0.22,0.01 z M 7.85,17.94 c -0.04,-0.06 0.06,-0.21 0.23,-0.34 0.29,-0.21 0.31,-0.21 0.48,-0.01 0.09,0.11 0.15,0.26 0.12,0.33 -0.05,0.15 -0.73,0.17 -0.83,0.02 z m 1.82,-0.24 c 0.09,-0.09 0.18,-0.14 0.21,-0.12 0.07,0.06 -0.11,0.29 -0.25,0.29 -0.07,0 -0.05,-0.07 0.04,-0.16 z M 7.29,16.99 c 0,-0.02 0.14,-0.07 0.32,-0.10 0.17,-0.03 0.29,-0.00 0.25,0.04 -0.06,0.09 -0.57,0.14 -0.57,0.05 z M 24.89,5.69 c -0.21,-0.07 -0.18,-0.09 0.15,-0.10 0.33,-0.00 0.40,-0.04 0.34,-0.21 -0.06,-0.19 -0.06,-0.19 0.11,0 0.24,0.26 0.94,0.29 0.83,0.02 -0.06,-0.15 -0.04,-0.15 0.21,-0.00 0.37,0.22 0.95,0.11 0.73,-0.12 -0.08,-0.09 -0.09,-0.16 -0.01,-0.16 0.07,0 0.20,0.08 0.29,0.18 0.17,0.19 0.90,0.13 1.05,-0.09 0.05,-0.07 0.11,-0.06 0.17,0.01 0.11,0.16 0.68,0.17 0.79,0.01 0.04,-0.06 -0.01,-0.15 -0.12,-0.19 -0.11,-0.03 -0.20,-0.12 -0.20,-0.18 0,-0.06 0.16,0.00 0.36,0.13 0.22,0.15 0.45,0.21 0.59,0.16 0.21,-0.07 0.21,-0.09 0.00,-0.30 -0.28,-0.29 -0.12,-0.28 0.33,0.00 0.22,0.14 0.46,0.20 0.64,0.16 0.27,-0.06 0.27,-0.08 0.06,-0.29 -0.26,-0.26 -0.07,-0.29 0.28,-0.04 0.28,0.19 0.84,0.24 0.84,0.06 0,-0.06 -0.10,-0.16 -0.22,-0.22 -0.12,-0.06 -0.18,-0.15 -0.13,-0.20 0.05,-0.04 0.24,0.00 0.41,0.11 0.17,0.10 0.42,0.19 0.54,0.19 0.32,0 -0.00,-0.31 -0.62,-0.60 -0.58,-0.27 -2.02,-0.69 -2.36,-0.70 -0.12,-8.98e-4 -0.56,-0.10 -0.97,-0.24 -0.40,-0.13 -0.94,-0.23 -1.18,-0.23 -0.45,0 -1.23,-0.15 -3.44,-0.67 -0.83,-0.19 -1.40,-0.27 -1.70,-0.21 -0.31,0.05 -0.66,0.00 -1.12,-0.16 L 20.92,1.54 20.16,1.81 c -0.51,0.18 -1.18,0.30 -2.04,0.36 -0.70,0.04 -1.52,0.16 -1.83,0.25 -0.30,0.09 -1.02,0.20 -1.59,0.24 -0.60,0.04 -1.40,0.19 -1.89,0.35 -1.19,0.40 -2.36,0.75 -2.53,0.75 -0.19,0.00 -1.09,0.71 -0.90,0.71 0.08,0 0.23,-0.08 0.34,-0.17 0.10,-0.09 0.27,-0.17 0.36,-0.17 0.10,0.00 0.05,0.09 -0.11,0.22 C 9.79,4.50 9.69,4.63 9.74,4.67 9.91,4.83 10.40,4.74 10.63,4.51 10.76,4.38 10.92,4.27 11.00,4.27 c 0.07,0 -0.00,0.13 -0.17,0.29 l -0.30,0.29 h 0.43 c 0.27,0 0.56,-0.10 0.76,-0.26 0.34,-0.28 0.34,-0.27 0.05,0.35 -0.12,0.26 0.58,0.16 0.80,-0.11 0.11,-0.14 0.24,-0.22 0.29,-0.17 0.05,0.04 0.02,0.14 -0.06,0.22 -0.22,0.20 -0.18,0.33 0.10,0.33 0.14,0 0.26,0.05 0.26,0.11 0,0.14 -0.17,0.14 -0.85,-8.98e-4 C 12.04,5.28 11.51,5.20 11.15,5.16 10.29,5.07 9.16,4.78 9.05,4.62 8.88,4.37 10.07,3.55 10.59,3.55 c 0.09,0 0.70,-0.18 1.34,-0.42 0.78,-0.27 1.55,-0.45 2.28,-0.52 0.61,-0.05 1.40,-0.19 1.76,-0.29 0.36,-0.10 1.18,-0.21 1.83,-0.25 0.75,-0.04 1.52,-0.17 2.14,-0.37 0.94,-0.30 0.98,-0.30 1.57,-0.11 0.33,0.10 0.97,0.19 1.42,0.19 0.45,0 0.98,0.07 1.17,0.16 0.19,0.08 0.73,0.22 1.20,0.30 0.46,0.08 1.09,0.19 1.39,0.25 0.30,0.06 0.76,0.11 1.03,0.11 0.76,0 4.54,1.08 5.19,1.48 0.35,0.21 0.73,0.79 0.50,0.76 -0.05,-0.00 -0.12,-0.00 -0.15,0.01 -0.03,0.01 -0.15,0.03 -0.26,0.05 -1.67,0.30 -2.44,0.42 -3.20,0.48 -0.50,0.03 -1.44,0.12 -2.09,0.18 -2.04,0.18 -2.61,0.21 -2.87,0.11 z" />
</svg>
