<?xml version="1.0" encoding="UTF-8" standalone="no"?>
<!-- Created with Inkscape (http://www.inkscape.org/) -->
<svg xmlns:dc="http://purl.org/dc/elements/1.1/" xmlns:cc="http://creativecommons.org/ns#" xmlns:rdf="http://www.w3.org/1999/02/22-rdf-syntax-ns#" xmlns:svg="http://www.w3.org/2000/svg" xmlns="http://www.w3.org/2000/svg" version="1.1" width="100%" height="100%" viewBox="0 0 48 48" id="wine_maiden_xA0_Image_1_" xml:space="preserve">
<defs id="defs49" />
<path d="m 26.01,1.20 c -0.42,0.01 -0.44,0.43 -0.87,0.44 -0.15,0.38 -0.39,0.66 -0.43,1.16 -0.01,0.19 0.19,0.31 0.05,0.48 -0.18,0.00 -0.30,-0.05 -0.43,-0.10 -0.09,0.06 -0.06,0.25 -0.19,0.29 -0.05,-0.19 -0.35,-0.02 -0.48,0 -0.09,0.09 -0.02,0.23 0,0.34 -0.26,0.01 -0.23,0.31 -0.34,0.48 -0.37,0.09 -0.52,-0.43 -0.77,-0.63 -0.37,-0.02 -0.45,-0.06 -0.67,-0.05 0.00,-0.18 -2.03e-4,-0.35 -0.05,-0.48 -0.17,-0.11 -0.34,-0.19 -0.53,-0.05 -0.04,-0.20 -0.25,-0.22 -0.43,-0.29 -0.27,0.10 -0.21,0.52 -0.58,0.53 -0.08,0.11 0.01,0.41 -0.14,0.44 -0.09,-0.16 -0.27,-0.07 -0.43,-0.15 -0.16,-0.07 -0.16,-0.24 -0.38,-0.24 -0.45,0.00 -0.39,0.36 -0.68,0.72 -0.08,0.11 -0.33,0.23 -0.38,0.34 -0.13,0.33 -0.02,0.66 0.14,0.82 0.27,-0.05 0.22,-0.42 0.58,-0.39 0.27,0.11 0.10,0.30 0.14,0.48 0.13,0.15 0.49,0.08 0.58,0.29 -0.49,0.07 -0.41,0.56 -0.53,0.92 -0.27,0.01 -0.62,-0.03 -0.82,0.05 -0.08,-0.21 -0.27,-0.20 -0.53,-0.14 -0.12,-0.42 -0.62,-0.17 -0.92,-0.39 -0.12,0.35 -0.16,0.67 -0.10,1.11 -0.19,0.06 -0.32,0.18 -0.48,0.29 -0.04,0.22 0.19,0.15 0.14,0.38 -0.21,0.19 -0.45,0.35 -0.43,0.77 0.52,-0.28 1.07,-0.53 1.83,-0.58 0.18,0.19 0.40,0.37 0.53,0.63 -0.37,0.14 -1.13,0.79 -1.45,0.24 0.20,-0.06 0.14,0.25 0.29,0.10 0.08,-0.11 -0.05,-0.33 -0.29,-0.29 -0.19,0.04 -0.08,0.40 -0.29,0.43 -0.30,0.01 -0.44,-0.13 -0.72,-0.14 C 15.72,8.95 15.71,8.59 15.58,8.34 15.43,8.06 15.01,7.70 15.00,8.19 c 0.06,0.14 0.21,-0.08 0.29,0.05 0.27,0.36 0.18,0.88 0.63,1.06 0.29,0.12 0.63,-0.04 0.97,-0.05 0.27,-0.00 0.48,0.10 0.72,0.05 0.30,-0.06 0.39,-0.28 0.63,-0.29 -0.42,0.28 -0.64,0.77 -0.92,1.21 -0.07,-0.13 -0.05,-0.36 -0.14,-0.48 -0.33,0.12 -0.50,-0.15 -0.77,-0.24 -0.06,0.36 -0.20,0.66 -0.14,1.16 0.02,0.17 0.28,0.10 0.29,0.29 -0.17,-0.02 -0.21,0.07 -0.29,0.14 -0.01,0.43 0.29,0.54 0.33,0.92 0.32,0.00 0.77,-0.17 1.02,-0.38 0.09,0.11 0.22,-0.08 0.33,0.04 0.02,0.16 -0.01,0.27 -0.04,0.39 0.05,0.12 0.19,0.16 0.19,0.34 -0.05,0.90 0.50,1.41 1.40,1.21 0.16,0.17 0.44,0.22 0.82,0.18 0.27,-0.22 0.52,-0.46 0.67,-0.82 0.23,0.30 0.17,0.89 0.39,1.21 -0.29,0.19 -0.46,0.50 -0.87,0.58 -0.20,-0.20 -0.64,-0.11 -0.87,0.05 -0.24,-0.15 -0.41,-0.01 -0.67,0.04 -0.26,0.53 -0.79,0.79 -1.35,1.02 -0.77,-0.47 -1.69,0.25 -1.60,1.25 -0.66,0.31 -1.39,0.57 -2.46,0.48 -0.09,-0.37 -0.33,-0.62 -0.48,-0.92 -0.04,-0.08 -0.01,-0.20 -0.05,-0.29 -0.03,-0.08 -0.15,-0.14 -0.19,-0.24 -0.15,-0.38 -0.21,-1.04 -0.18,-1.50 0.02,-0.40 -0.07,-0.72 -0.05,-1.11 0.01,-0.33 0.05,-0.59 -0.05,-0.87 0.06,-0.03 0.09,-0.10 0.10,-0.19 0.29,-0.01 0.47,-0.13 0.48,-0.43 -0.06,-0.16 -0.22,-0.22 -0.48,-0.19 -0.10,-0.57 -0.38,-0.97 -0.53,-1.50 0.26,-0.22 0.51,-0.65 0.43,-1.06 -0.09,-0.23 -0.37,-0.00 -0.48,-0.19 0.28,-0.34 0.79,-0.45 1.21,-0.67 0.25,-0.48 -0.17,-0.73 -0.24,-1.06 -0.05,-0.23 0.07,-0.41 0,-0.68 -0.08,-0.05 -0.16,-0.12 -0.24,-0.18 -0.73,0.13 -1.95,-0.22 -2.67,0.18 -0.00,0.46 -0.05,0.88 -0.33,1.06 0.07,0.35 0.17,0.69 0.43,0.87 0.45,0.03 0.71,0.25 0.92,0.53 -0.42,-0.07 -0.61,0.01 -1.02,0.05 C 9.81,9.68 9.46,10.24 9.42,10.81 9.27,11.00 8.95,11.03 8.94,11.35 c 0.45,0.44 1.01,0.79 1.45,1.25 -0.26,1.60 -0.21,2.92 -0.24,4.70 0.04,0.10 0.14,0.14 0.14,0.29 -0.01,0.34 0.09,0.47 0.19,0.82 0.15,0.55 0.24,0.93 0.38,1.40 0.08,0.30 0.18,0.74 0.29,0.87 0.23,0.28 0.91,0.32 1.45,0.29 0.63,-0.03 1.18,-0.10 1.59,-0.14 0.61,-0.05 1.30,0.01 1.89,-0.10 0.31,-0.05 0.55,-0.24 0.82,-0.18 -0.05,0.20 -0.26,0.25 -0.48,0.29 -0.80,0.59 -1.60,1.20 -1.35,2.71 0.16,0.13 0.15,0.36 0.29,0.53 0.15,0.18 0.43,0.23 0.53,0.48 0.16,0.02 0.29,0.09 0.38,0.19 0.18,0.43 0.31,0.98 0.82,1.06 0.21,0.03 0.41,-0.09 0.77,-0.19 0.13,-0.03 0.30,-0.00 0.43,-0.05 0.65,-0.20 1.04,-0.72 1.01,-1.45 0.38,-0.18 0.79,-0.31 1.01,-0.67 0.17,-0.28 0.09,-0.65 0.29,-0.92 0.65,1.08 1.09,2.39 2.47,2.76 -0.43,0.32 -0.64,-0.41 -1.16,-0.14 -0.05,0.18 -0.10,0.38 -0.10,0.63 -0.19,-0.02 -0.30,0.04 -0.43,0.09 -0.08,0.30 -0.22,0.54 -0.24,0.92 0.99,-0.25 1.71,0.22 1.88,1.06 -0.09,0.00 -0.03,0.16 -0.14,0.14 -0.35,-0.16 -0.58,0.04 -0.87,0.10 -0.08,-0.10 -0.03,-0.35 -0.24,-0.34 -0.36,0.00 -0.36,0.37 -0.63,0.48 -0.52,-0.06 -0.62,0.27 -0.92,0.43 0.13,0.34 -0.11,0.30 -0.14,0.58 0.05,0.33 0.45,0.61 0.68,0.48 -0.02,0.15 -0.09,0.26 -0.10,0.43 0.23,0.25 0.09,0.87 0.43,1.01 0.26,-0.01 0.88,-0.08 0.92,-0.48 0.12,0.02 0.23,0.19 0.34,0.10 0.28,-0.22 0.52,-0.50 0.63,-0.92 0.04,0.09 0.09,0.19 0.14,0.29 -0.22,0.13 -0.26,0.43 -0.43,0.63 -0.26,0.30 -0.65,0.38 -0.82,0.77 -0.03,0.08 0.00,0.22 -0.05,0.33 -0.10,0.22 -0.35,0.35 -0.29,0.68 -0.20,0.05 -0.19,0.31 -0.38,0.38 -0.44,0.24 -0.66,-0.25 -0.92,-0.18 -0.20,0.11 0.00,0.34 -0.14,0.48 0.34,0.17 0.55,0.63 1.11,0.44 0.08,0.04 0.05,0.19 0.24,0.14 0.23,-0.10 0.53,-0.14 0.82,-0.19 -0.02,-0.17 -0.07,-0.31 -0.05,-0.53 0.09,-0.06 0.19,-0.12 0.34,-0.14 0.16,0.80 -0.60,1.48 -0.58,2.04 0.00,0.16 0.17,0.34 0.24,0.53 0.10,0.26 0.25,0.60 0.29,0.77 0.06,0.33 0.02,0.84 0,1.31 -0.01,0.40 0.01,0.84 0,1.21 -0.00,0.19 -0.09,0.35 -0.09,0.53 -0.01,0.70 0.01,1.39 0.04,1.93 0.04,0.88 0.15,1.51 0.19,2.23 0.05,1.10 0.08,2.04 0,3.05 0.45,0.09 0.20,-0.33 0.19,-0.53 -0.03,-0.74 0.01,-1.90 0,-2.57 0.19,0.25 0.06,0.71 0.09,1.11 0.02,0.36 0.03,0.68 0.05,0.96 0.00,0.09 0.17,0.17 0,0.19 -0.03,0.16 0.19,0.05 0.14,0.24 l 0,0.53 c 0.67,-0.11 -0.16,-1.09 0.19,-1.50 0.08,0.07 -0.01,0.33 0.18,0.29 0.03,-0.41 -0.29,-1.27 -0.09,-1.69 0.07,0.39 0.15,0.89 0.24,1.30 0.03,0.17 -0.04,0.48 0.19,0.53 -0.09,-0.79 -0.24,-1.83 -0.29,-2.91 -0.02,-0.54 -0.08,-1.19 -0.14,-1.55 -0.05,-0.36 -0.02,-0.81 -0.05,-1.21 -0.03,-0.53 -0.20,-1.06 0.05,-1.30 0.04,1.25 0.35,2.60 0.53,3.87 0.02,0.19 -0.02,0.39 0,0.58 0.01,0.10 0.11,0.19 0.14,0.29 0.01,0.05 -0.05,0.06 -0.04,0.14 0.05,0.32 0.35,0.68 0.19,0.96 0.19,0.18 0.11,0.49 0.18,0.77 0.06,0.26 0.21,0.52 0.29,0.77 0.05,0.18 -0.04,0.64 0.34,0.58 -0.01,-0.24 -0.04,-0.41 0.14,-0.63 -0.31,-0.77 -0.51,-1.72 -0.67,-2.66 -0.34,-2.08 -0.68,-4.36 -0.68,-6.54 0.59,2.32 1.20,4.44 1.55,6.93 0.28,0.40 0.15,1.23 0.53,1.55 0.15,-0.06 0.02,-0.24 0,-0.34 -0.18,-0.93 -0.60,-2.54 -0.38,-3.44 0.05,-0.19 -0.07,-0.46 0,-0.53 0.54,1.30 1.01,2.66 1.59,3.92 0.02,0.21 0.05,0.42 0.34,0.38 -0.25,-0.47 -0.31,-1.00 -0.48,-1.50 -0.03,-0.09 -0.15,-0.19 -0.18,-0.29 -0.05,-0.12 -0.09,-0.29 -0.14,-0.43 -0.34,-1.06 -0.74,-2.32 -1.11,-3.29 -0.13,-0.34 -0.17,-0.50 -0.29,-0.77 -0.06,-0.16 -0.13,-0.32 -0.19,-0.48 -0.24,-0.61 -0.55,-1.10 -0.63,-1.79 -0.08,-0.09 -0.25,-0.35 -0.14,-0.48 0.27,0.23 0.25,0.77 0.58,0.97 0.00,0.15 0.11,0.21 0.10,0.38 1.43,2.32 2.40,5.09 4.12,7.13 -0.01,-0.30 -0.29,-0.50 -0.48,-0.77 -0.41,-0.59 -0.71,-1.37 -1.02,-1.98 -0.09,-0.18 -0.36,-0.41 -0.18,-0.63 0.07,0.33 0.27,0.56 0.38,0.77 0.05,0.10 0.09,0.19 0.14,0.29 0.39,0.77 0.91,1.53 1.31,2.18 0.11,0.18 0.21,0.35 0.33,0.53 0.24,0.34 0.55,0.64 0.82,0.97 0.11,0.13 0.12,0.39 0.38,0.38 0.13,-0.11 -0.06,-0.29 0.05,-0.38 -0.16,0.01 -0.20,-0.08 -0.29,-0.14 -0.21,-0.26 -0.40,-0.56 -0.63,-0.82 -0.47,-0.90 -0.96,-1.77 -1.35,-2.76 -0.10,-0.14 -0.28,-0.23 -0.24,-0.53 0.35,0.11 0.40,0.53 0.82,0.58 -0.07,-0.37 -0.30,-0.65 -0.48,-0.92 -0.18,-0.27 -0.42,-0.52 -0.53,-0.87 -0.42,-0.41 -0.86,-0.82 -1.11,-1.40 0.25,-0.00 0.22,0.26 0.48,0.24 0.05,-0.19 -0.28,-0.23 -0.14,-0.34 0.28,0.22 0.38,0.61 0.77,0.72 -0.26,-0.56 -0.73,-0.99 -1.11,-1.45 -0.39,-0.47 -0.75,-0.94 -1.16,-1.40 0.21,0.06 0.46,0.06 0.68,0 0.55,0.53 1.10,1.04 1.64,1.45 0.21,0.16 0.42,0.24 0.62,0.38 0.10,0.07 0.14,0.21 0.24,0.29 0.06,0.04 0.17,0.01 0.24,0.05 0.09,0.05 0.14,0.20 0.24,0.29 0.11,0.08 0.29,0.12 0.38,0.19 0.33,0.26 0.70,0.79 0.97,1.11 0.10,0.12 0.27,0.21 0.38,0.34 0.71,0.77 1.26,1.61 1.98,2.22 0.37,0.32 0.65,0.80 1.16,0.87 -0.14,-0.42 -1.04,-0.59 -0.38,-1.01 0.23,-0.02 0.12,0.30 0.38,0.24 -0.09,-0.38 -0.21,-0.80 -0.24,-1.31 -0.02,-0.54 -0.11,-1.54 0.24,-1.55 -0.17,0.72 0.01,1.37 0.05,2.04 0.02,0.43 -0.03,0.72 0.24,0.82 0.11,-0.30 -0.18,-0.70 0.05,-0.92 0.40,0.17 0.40,0.87 0.39,1.45 -0.00,0.25 -0.18,0.57 0.04,0.72 0.18,-0.17 0.07,-0.63 0.14,-0.92 0.53,0.58 0.76,1.47 1.26,2.09 0.05,0.28 0.18,0.48 0.38,0.62 0.03,-0.06 0.10,-0.08 0.19,-0.09 -0.59,-1.04 -1.08,-2.17 -1.79,-3.10 0.12,-0.23 -0.12,-0.35 -0.05,-0.68 -0.28,-0.23 -0.53,-0.49 -0.72,-0.82 0.12,-0.77 -0.04,-1.42 0.24,-1.93 0.06,-0.11 0.15,-0.22 0.19,-0.34 0.06,-0.22 0.00,-0.49 0.05,-0.72 0.10,-0.52 0.41,-0.91 0.63,-1.40 0.22,0.04 0.27,-0.08 0.43,-0.10 0.23,-0.39 0.19,-0.97 0.63,-1.25 0.11,-0.80 0.33,-1.60 0.43,-2.28 -0.20,-0.42 -0.49,-0.96 -0.48,-1.50 0.00,-0.48 0.16,-0.94 0.14,-1.40 -0.00,-0.09 -0.07,-0.14 -0.09,-0.24 -0.02,-0.18 0.03,-0.42 0,-0.58 -0.04,-0.19 -0.18,-0.48 -0.29,-0.72 -0.23,-0.51 -0.49,-0.83 -0.77,-1.21 -0.12,-0.16 -0.25,-0.44 -0.48,-0.43 0.35,0.88 1.18,1.56 1.30,2.71 0.03,0.38 -0.03,1.00 0,1.40 -0.33,0.74 -0.38,1.93 -0.18,2.95 -0.19,0.32 -0.44,0.59 -0.73,0.82 -0.48,0.00 -1.05,0.58 -1.74,0.38 0.60,-0.07 0.86,-0.30 1.21,-0.58 0.18,-0.15 0.45,-0.24 0.38,-0.48 -0.36,0.05 -0.55,0.29 -0.87,0.39 -0.74,0.01 -1.24,0.26 -1.88,0.38 0.11,-0.32 -6.07e-4,-0.66 -0.05,-0.96 -0.18,-0.04 -0.34,-0.11 -0.34,-0.34 0.17,-0.07 0.40,0.18 0.43,-0.05 0.14,-0.23 -0.26,-0.34 -0.29,-0.58 0.12,-0.00 0.10,-0.16 0.10,-0.29 0.33,-0.14 0.66,-0.30 0.96,-0.48 0.29,-0.67 0.61,-1.32 0.82,-2.08 -0.27,-0.01 -0.22,0.29 -0.29,0.48 -0.21,0.33 -0.37,0.72 -0.63,1.01 -0.42,0.20 -0.69,0.57 -1.16,0.72 -0.09,-0.06 -0.02,-0.29 -0.18,-0.29 -0.14,0.02 -0.25,0.10 -0.39,0.14 -0.22,-0.39 -0.78,-0.09 -1.06,0.09 -0.28,-0.20 -0.67,-0.28 -0.82,-0.62 0.75,-0.29 1.54,-0.56 2.13,-1.02 0.22,0.31 0.27,-0.09 0.63,-0.04 0.03,-0.46 0.62,-0.62 0.38,-1.21 -0.46,-0.04 -0.32,0.52 -0.68,0.58 -0.17,-0.23 -0.55,-0.39 -0.43,-0.77 -0.23,-0.10 -0.54,-0.13 -0.82,-0.19 0.08,-0.28 0.42,-0.31 0.53,-0.58 -0.27,-0.14 -0.61,-0.24 -0.87,-0.05 0.00,-0.12 -0.07,-0.14 -0.14,-0.18 -0.26,0.08 -0.37,0.59 -0.77,0.38 0.06,-0.43 0.54,-0.55 0.82,-0.77 0.23,-0.18 0.49,-0.51 0.67,-0.67 0.04,-0.03 0.15,-0.00 0.19,-0.05 0.21,-0.22 0.29,-0.57 0.63,-0.67 0.54,0.52 1.76,0.58 2.61,0.29 0.26,0.63 0.54,1.44 0.68,2.32 0.19,1.25 0.49,2.79 0.19,4.02 -0.01,0.07 0.03,0.06 0,0.14 -0.10,0.22 -0.00,0.06 0,0.34 0.00,0.18 -0.11,0.41 -0.05,0.53 0.29,-0.16 0.20,-0.42 0.24,-0.77 0.02,-0.24 0.08,-0.57 0.14,-0.87 0.13,-0.72 0.39,-1.49 0.44,-2.08 0.01,-0.16 0.01,-0.34 0,-0.48 -0.10,-1.10 -0.86,-1.93 -1.26,-2.71 -0.00,-0.30 -0.09,-0.52 -0.24,-0.68 -0.28,0.13 -0.73,0.22 -1.06,0.24 -0.96,0.05 -1.29,-0.41 -2.04,-0.58 -0.80,-0.36 -1.86,-1.22 -2.62,-1.74 -0.74,-0.51 -1.51,-1.36 -1.35,-2.37 0.17,0.01 0.21,0.25 0.34,0.38 0.37,0.39 0.91,0.74 1.45,1.11 1.00,0.69 2.34,1.54 3.39,2.13 0.48,0.27 1.15,0.53 1.69,0.63 0.54,0.09 0.73,-0.06 1.21,-0.19 0.55,-0.14 0.82,-0.24 1.11,-0.53 0.53,0.07 0.94,0.01 1.16,-0.18 0.58,-0.51 -2.53e-4,-1.43 0.09,-2.04 0.94,-0.38 1.03,-1.14 0.43,-1.88 -0.33,-0.41 -1.22,-1.00 -1.88,-1.02 -0.49,-0.01 -0.95,0.37 -1.45,0.39 C 34.71,21.36 34.27,20.94 33.82,20.66 l 0,-0.38 c -0.26,-0.72 -0.70,-1.31 -1.16,-1.79 -0.08,-0.08 -0.15,-0.21 -0.24,-0.29 -0.56,-0.53 -1.29,-0.88 -1.79,-1.40 -0.18,-0.19 -0.39,-0.50 -0.58,-0.77 -0.17,-0.26 -0.29,-0.61 -0.48,-0.77 -0.23,-0.20 -0.67,-0.19 -0.82,-0.48 0.17,-0.14 0.14,-0.41 0.09,-0.67 0.05,-0.06 0.18,-0.07 0.24,-0.14 -0.10,-0.21 -0.24,-0.62 0.05,-0.73 0.22,0.19 0.70,0.37 0.92,0.05 0.36,0.27 0.79,-0.11 1.21,-0.09 -0.05,-0.79 -0.05,-1.50 -0.68,-1.79 0.06,-0.24 -0.14,-0.20 -0.14,-0.39 0.23,-0.00 0.06,-0.10 0.10,-0.29 0.25,-0.02 0.29,-0.25 0.33,-0.48 -0.31,-0.09 -0.23,-0.38 -0.14,-0.67 -0.51,-0.30 -1.09,0.37 -1.35,-0.10 -0.19,0.23 -0.43,0.34 -0.72,0.14 -0.06,-0.08 -0.09,-0.44 0,-0.53 0.15,0.02 0.14,0.21 0.34,0.19 0.59,0.09 0.55,-0.45 1.06,-0.43 0.04,-0.12 0.09,-0.26 0.09,-0.44 0.22,-0.00 0.33,-0.11 0.43,-0.24 0.00,-0.70 -0.37,-1.26 -1.16,-1.16 -0.02,-0.13 -0.12,-0.20 -0.14,-0.34 0.06,-0.04 0.17,-0.04 0.24,-0.09 -0.09,-0.59 0.41,-0.59 0.48,-1.02 -0.38,-0.01 -0.51,-0.28 -0.67,-0.53 0.16,-0.32 -0.06,-0.62 -0.14,-0.87 0.16,-0.26 -0.13,-0.55 -0.10,-0.82 0.04,-0.36 0.34,-0.58 0.82,-0.58 0.19,0.03 0.09,0.35 0.34,0.34 -0.31,-1.18 -1.83,-0.01 -1.16,0.92 -0.27,0.01 -0.79,0.13 -0.48,0.43 -0.05,-0.28 0.34,-0.37 0.39,-0.14 -0.01,0.16 -0.31,0.03 -0.29,0.24 0.19,0.16 0.21,-0.13 0.43,-0.09 0.06,0.17 0.08,0.55 -0.05,0.67 -0.31,-0.12 -0.55,-0.50 -0.96,-0.48 -0.21,0.00 -0.30,0.14 -0.53,0.19 0.14,-0.42 -0.05,-0.91 -0.38,-0.87 -0.06,-0.24 -0.21,-0.39 -0.43,-0.48 -0.21,0.04 -0.25,0.26 -0.53,0.24 -0.09,-0.30 -0.19,-0.56 -0.14,-0.82 0.09,-0.47 0.73,-0.45 0.82,-0.87 -0.15,-0.13 -0.49,0.10 -0.68,-0.05 0.10,-0.26 0.09,-0.50 -0.09,-0.68 -0.03,-0.00 -0.06,-0.00 -0.09,0 z m -0.00,0.24 c 0.11,0.15 0.00,0.40 -0.09,0.48 0.01,0.15 0.23,0.07 0.38,0.09 -0.28,0.12 -0.43,0.37 -0.72,0.48 0.00,-0.30 -0.03,-0.65 0.14,-0.77 -0.00,-0.04 -0.05,-0.03 -0.09,-0.05 0.06,-0.14 0.20,-0.21 0.38,-0.24 z m -0.73,0.42 c 0.08,0.01 0.17,0.13 0.20,0.00 0.05,0.20 0.02,0.72 -0.09,0.92 -0.15,0.04 -0.15,-0.08 -0.24,-0.10 -0.00,0.18 0.19,0.16 0.29,0.24 -0.04,0.33 0.03,0.54 0.14,0.72 -0.07,-0.00 -0.18,0.02 -0.18,-0.05 -0.16,0.19 0.43,0.04 0.33,0.34 -0.28,0.09 -0.67,-0.01 -0.77,-0.34 -0.00,-0.17 0.16,-0.15 0.19,-0.29 -0.16,-0.19 -0.49,-0.96 0.05,-1.01 -0.07,-0.15 -0.04,-0.32 0.04,-0.43 0.01,-0.00 0.02,-0.00 0.03,-0.00 z m 0.89,0.32 c 0.04,-0.00 0.08,0.00 0.13,0.02 -0.38,0.19 -0.48,0.90 -0.29,1.40 -0.06,0.01 -0.07,0.08 -0.14,0.10 -0.19,-0.02 -0.19,-0.25 -0.33,-0.34 -0.02,-0.15 0.11,-0.13 0.18,-0.19 -0.06,-0.14 -0.24,-0.16 -0.18,-0.43 0.26,-0.09 0.35,-0.54 0.63,-0.55 z m -5.24,0.94 c 0.17,-0.01 0.27,0.11 0.38,0.33 0.18,0.05 0.13,-0.11 0.29,-0.09 0.12,0.21 -0.06,0.45 0.10,0.63 0.23,-0.24 0.41,0.03 0.67,-0.14 0.18,0.35 -0.15,0.57 -0.48,0.58 -0.05,-0.05 -0.05,-0.17 -0.05,-0.29 -0.17,0.15 0.08,0.76 -0.34,0.77 -0.30,-0.42 -0.21,-1.23 -0.67,-1.50 0.02,0.36 0.27,0.49 0.29,0.87 -0.23,0.11 -0.37,-0.13 -0.58,-0.19 0.20,0.38 0.80,0.38 0.91,0.87 -0.14,0.18 -0.18,0.46 -0.48,0.48 -0.00,-0.18 0.03,-0.42 -0.10,-0.48 -0.14,0.06 0.09,0.21 -0.04,0.29 -0.21,-0.17 -0.51,-0.26 -0.73,-0.43 0.05,-0.21 -0.07,-0.23 -0.09,-0.38 -0.14,0.05 0.06,0.18 -0.05,0.24 -0.23,-0.16 -0.39,-0.41 -0.62,-0.58 -0.01,-0.19 0.01,-0.33 0.14,-0.38 0.20,0.00 0.17,0.23 0.29,0.33 0.12,0.01 0.12,-0.09 0.14,-0.18 0.33,0.00 0.04,0.62 0.38,0.63 0.36,-0.13 -0.07,-0.52 0.05,-0.87 0.35,0.05 0.28,-0.46 0.58,-0.48 z m 3.49,0.24 c 0.34,-0.03 0.64,0.42 0.43,0.63 -0.16,0.00 -0.10,-0.22 -0.19,-0.29 -0.14,0.05 0.07,0.18 -0.04,0.24 -0.28,0.02 -0.29,-0.21 -0.63,-0.14 0.03,0.18 0.16,7.57e-4 0.24,0.09 0.01,0.17 -0.06,0.25 -0.24,0.24 -0.07,-0.15 -0.14,-0.30 -0.19,-0.48 0.19,-0.11 0.68,0.07 0.63,-0.29 z M 19.27,3.63 C 19.24,4.05 18.94,4.21 18.93,4.65 c -0.26,0.00 -0.33,0.20 -0.58,0.24 -0.04,-0.27 0.10,-0.34 0.19,-0.48 0.13,-0.03 0.09,0.10 0.18,0.10 0.05,-0.41 0.17,-0.76 0.53,-0.87 z m 7.56,0.05 c 0.14,0.22 0.15,0.58 0.53,0.58 0.05,0.34 -0.18,0.46 0,0.68 -0.14,0.12 -0.33,0.20 -0.43,0.38 -0.00,0.14 0.04,0.24 0.14,0.29 0.26,-0.01 0.34,-0.21 0.39,-0.43 0.35,-0.11 0.51,-0.63 1.06,-0.38 0.02,0.15 -0.08,0.16 -0.05,0.33 0.30,-0.08 0.54,-0.01 0.72,0.14 0.01,0.11 -0.08,0.10 -0.04,0.24 0.05,0.12 0.37,-0.02 0.43,0.09 -0.03,0.24 -0.18,0.36 -0.39,0.43 l 0,0.29 c -0.33,0.12 -0.44,0.45 -0.82,0.53 -0.18,-0.05 -0.29,-0.18 -0.43,-0.29 -0.52,0.44 0.40,0.88 0.58,1.25 -0.20,0.21 -0.05,0.59 -0.14,0.97 -0.11,-0.00 -0.23,-0.00 -0.29,0.05 0.12,0.34 -0.44,0.55 -0.19,1.01 -0.39,-0.02 -0.59,-0.25 -0.58,-0.68 -0.22,-0.04 -0.16,0.20 -0.24,0.29 -0.30,0.02 -0.10,-0.44 -0.29,-0.53 -0.09,0.02 -0.11,0.10 -0.24,0.09 0.00,-0.08 -0.06,-0.09 -0.05,-0.18 -0.21,0.02 -0.21,0.27 -0.48,0.24 -0.03,-0.39 0.16,-0.54 0.24,-0.82 -0.10,-0.17 -0.19,-0.03 -0.34,0 -0.05,-0.29 0.08,-0.40 0.14,-0.58 -0.00,-0.10 -0.11,-0.10 -0.24,-0.09 0.03,-0.31 0.61,-0.64 0.18,-0.97 -0.48,0.13 -0.40,0.82 -1.01,0.82 -0.11,-0.09 0.06,-0.19 -0.05,-0.29 -0.21,0.17 -0.60,0.17 -0.82,0 -0.02,-0.15 0.10,-0.18 0,-0.29 -0.18,0.04 -0.39,0.06 -0.63,0.05 C 23.45,6.76 23.39,6.61 23.29,6.49 23.58,6.49 23.67,6.30 23.58,6.05 23.73,5.86 24.06,5.85 24.26,5.72 24.22,5.33 23.68,5.42 23.49,5.18 l 0,-0.34 c 0.11,0.01 0.18,-0.00 0.24,-0.04 -0.03,-0.18 -0.02,-0.44 0.10,-0.58 0.25,-0.02 0.35,0.48 0.09,0.53 -0.00,0.23 0.32,0.29 0.53,0.48 0.21,0.19 0.23,0.44 0.67,0.43 0.25,-0.00 0.37,-0.22 0.68,-0.24 -0.00,-0.05 0.00,-0.08 0.04,-0.09 0.01,-0.48 -0.55,-0.59 -0.33,-1.11 0.10,-0.10 0.13,0.02 0.29,0 0.06,-0.06 0.04,-0.20 0.04,-0.33 0.40,-0.00 0.61,-0.11 0.97,-0.19 z m -3.17,0.36 c 0.04,-0.01 0.08,-0.00 0.12,0.02 -0.03,0.15 -0.13,0.25 -0.29,0.29 -0.09,-0.10 0.04,-0.28 0.17,-0.32 z m 0.80,0.02 c 0.10,-0.00 0.15,0.03 0.14,0.14 l -0.14,0 0,-0.14 z m 2.17,0.00 c -0.27,0.09 -0.14,0.59 -0.43,0.67 -0.16,-0.10 -0.11,-0.43 -0.24,-0.58 -0.00,0.42 0.57,1.31 0.04,1.69 -0.34,-0.03 -0.43,0.17 -0.72,0.18 -0.12,-0.12 -0.21,-0.29 -0.43,-0.33 0.06,0.19 0.32,0.18 0.38,0.38 -0.12,0.17 -0.30,0.30 -0.58,0.34 C 24.53,6.22 24.44,5.98 24.12,5.96 c 0.09,0.18 0.35,0.18 0.38,0.43 -0.29,-4.04e-4 -0.64,0.05 -0.92,0.19 0.28,0.11 0.80,-0.19 1.16,0 0.01,0.20 -0.34,0.30 -0.19,0.48 0.32,-0.25 0.38,-0.78 0.92,-0.82 0.02,0.10 -0.05,0.32 0.05,0.34 -0.02,-0.95 1.16,-0.49 1.16,0.14 -0.01,0.19 -0.33,0.44 -0.09,0.58 0.06,-0.14 0.03,-0.37 0.24,-0.38 0.09,0.25 0.30,0.40 0.38,0.67 -0.08,0.51 -0.69,0.49 -0.82,0.97 0.24,-0.03 0.24,-0.30 0.48,-0.34 0.07,0.12 -0.04,0.38 0,0.63 0.22,-0.10 0.03,-0.42 0.09,-0.63 0.05,-0.19 0.20,-0.32 0.34,-0.38 0.30,0.44 0.04,1.19 0.29,1.64 0.02,-0.62 2.53e-4,-1.19 -0.14,-1.64 0.20,-0.02 0.32,0.03 0.48,0.04 -0.04,-0.25 -0.31,-0.30 -0.63,-0.29 -0.05,-0.22 -0.20,-0.34 -0.24,-0.58 0.20,0.00 0.27,-0.08 0.43,0 0.01,-0.25 -0.37,-0.10 -0.58,-0.14 -0.10,-0.21 -0.20,-0.44 -0.29,-0.68 0.32,0.04 0.50,0.08 0.72,0.05 0.33,-0.04 0.52,-0.30 0.82,-0.38 0.26,-0.06 0.52,-0.01 0.87,-0.05 -0.17,-0.23 -0.70,-0.03 -0.92,0 -0.22,-0.29 0.04,-0.57 0.10,-0.87 -0.22,0.16 -0.31,0.46 -0.29,0.87 -0.15,0.13 -0.34,0.23 -0.63,0.24 -0.02,-0.07 0.05,-0.24 -0.05,-0.24 -0.13,0.31 -0.88,0.31 -0.97,-0.05 -0.02,-0.26 0.27,-0.20 0.29,-0.43 -0.12,-0.06 -0.19,0.14 -0.24,0 -0.10,-0.19 0.01,-0.52 0.14,-0.63 0.24,-2.02e-4 0.44,-0.03 0.48,-0.24 -0.06,-0.07 -0.31,0.27 -0.48,0.09 0.01,-0.19 0.18,-0.23 0.14,-0.48 z m -7.47,0.13 c 0.37,0.04 0.45,0.39 0.68,0.58 -0.06,0.12 -0.36,0.18 -0.48,0.09 0.06,0.15 0.49,0.20 0.58,0.05 0.18,0.10 0.41,0.16 0.58,0.29 0.01,0.12 -0.10,0.12 -0.19,0.14 0.18,0.01 0.59,-0.01 0.67,0.24 0.13,0.42 -0.31,0.68 -0.82,0.68 -0.16,-0.06 -0.21,-0.23 -0.43,-0.24 0.01,0.14 0.16,0.16 0.24,0.24 -0.04,0.21 -0.37,0.34 -0.24,0.58 0.05,-0.09 0.12,-0.16 0.14,-0.29 0.41,0.07 0.12,0.60 0.24,0.92 -0.03,0.04 -0.13,0.02 -0.14,0.09 -0.20,-0.05 -0.31,-0.20 -0.48,-0.29 0.05,-0.27 -0.04,-0.36 -0.24,-0.38 -0.03,-0.30 0.13,-0.42 0.24,-0.58 0.02,-0.15 -0.14,-0.10 -0.09,-0.29 0.19,-0.45 0.59,-0.08 1.01,-0.09 -0.00,-0.05 0.01,-0.08 0.05,-0.09 C 20.36,5.47 19.78,5.53 19.41,5.38 19.45,5.06 18.84,4.66 19.17,4.21 z m 4.95,0.05 0.14,0 c 0.15,0.60 0.84,0.67 1.06,1.21 -0.17,0.11 -0.47,0.01 -0.63,-0.05 -0.00,-0.11 0.08,-0.14 0.05,-0.29 -0.27,0.02 -0.46,-0.02 -0.58,-0.14 0.15,-0.27 -0.03,-0.38 -0.05,-0.72 z m -0.48,1.45 c -0.15,0.25 -0.13,0.66 -0.58,0.62 -0.02,0.37 0.38,0.49 0.24,0.82 0.18,0.05 0.15,0.26 0.24,0.38 0.17,0.24 0.42,0.44 0.58,0.68 -0.07,0.29 0.12,0.54 0.09,0.82 -0.02,0.28 -0.25,0.49 -0.24,0.77 0.01,0.33 0.18,0.42 0.38,0.77 -0.03,0.20 -0.18,0.29 -0.24,0.48 -0.62,0.12 -0.49,0.98 -0.58,1.64 -0.12,0.18 -0.36,0.25 -0.53,0.39 -0.08,0.33 -0.23,0.67 -0.19,1.01 0.04,0.31 0.31,0.54 0.34,0.82 0.31,0.29 0.77,0.62 1.35,0.53 0.35,-0.05 0.55,-0.28 0.82,-0.39 0.37,0.20 0.75,0.14 1.06,0.44 0.16,-0.02 0.40,-0.11 0.48,0.04 -0.12,0.34 -0.49,0.34 -0.77,0.53 -0.24,0.16 -0.42,0.43 -0.63,0.72 -0.14,0.20 -0.15,0.21 -0.29,0.53 -0.10,0.25 -0.21,0.69 -0.34,1.02 -0.11,0.29 -0.20,0.42 -0.43,0.72 -0.17,0.22 -0.36,0.46 -0.58,0.63 -0.18,0.14 -0.43,0.20 -0.63,0.38 -0.62,0.56 -0.67,1.26 -1.30,1.60 -0.32,0.17 -0.72,-0.20 -1.02,-0.34 -0.12,-0.30 -0.24,-0.64 -0.33,-1.11 -0.02,-0.12 -0.10,-0.25 -0.10,-0.34 0.00,-0.37 0.24,-0.78 0.29,-1.21 0.04,-0.43 -0.04,-0.91 0,-1.35 0.07,-0.67 0.37,-1.13 0.68,-1.50 0.06,-0.43 0.20,-0.79 0.34,-1.16 0.36,0.21 0.26,0.89 0.48,1.26 0.14,-0.08 0.06,-0.26 0.05,-0.39 -0.14,-1.04 -1.02,-1.91 -1.11,-3.10 0.52,-0.04 1.14,0.09 1.55,-0.24 -0.78,-0.04 -1.22,0.26 -1.88,-0.09 -0.47,-0.25 -0.45,-0.37 -0.58,-1.06 -0.12,-0.68 -0.25,-1.70 0.10,-2.33 0.08,-0.15 0.29,-0.27 0.34,-0.53 0.07,-0.36 0.00,-0.55 0.18,-0.77 0.48,0.01 1.01,-0.00 1.02,0.48 -0.25,-0.19 -0.90,-0.27 -1.02,0.14 0.15,0.16 0.24,-0.13 0.48,-0.05 0.10,0.10 -0.13,0.11 -0.05,0.34 0.20,0.12 0.30,-0.01 0.44,-0.09 0.00,0.58 -1.19,0.92 -0.48,1.45 0.13,-0.11 -0.06,-0.28 0,-0.48 0.46,-0.34 1.20,-1.45 0.38,-1.93 l -0.67,0 c 0.33,-0.17 0.67,-0.35 0.92,-0.63 0.13,0.10 0.23,0.24 0.29,0.43 0.19,-0.06 0.15,-0.39 0.04,-0.53 0.24,-0.15 0.39,-0.41 0.48,-0.72 0.40,0.11 0.62,-0.03 0.92,-0.14 z m -1.55,0.14 c 0.02,0.16 -0.24,0.42 -0.43,0.53 -0.14,-0.28 0.17,-0.48 0.43,-0.53 z m -1.03,0.15 c 0.08,-0.00 0.16,0.07 0.16,0.18 -0.09,0.09 -0.29,0.05 -0.24,-0.14 0.02,-0.02 0.04,-0.03 0.07,-0.03 z m 6.97,0.15 c -0.03,-6.85e-4 -0.05,0.00 -0.06,0.02 0.12,0.04 0.18,0.13 0.33,0.14 -0.01,-0.08 -0.16,-0.16 -0.26,-0.17 z m -7.10,0.07 C 20.70,6.44 20.73,6.87 20.19,6.74 20.16,6.64 20.07,6.60 20.09,6.45 20.34,6.29 20.51,6.30 20.92,6.25 z m -3.87,0.14 c 0.28,0.08 0.61,0.12 0.77,0.34 0.21,0.06 0.22,-0.16 0.34,-0.05 0.02,0.33 -0.12,0.49 -0.09,0.82 0.30,-0.14 0.12,-0.78 0.58,-0.77 -0.22,0.22 -0.10,0.54 0,0.82 -0.43,-0.06 -0.56,0.18 -0.82,0.29 -0.29,-0.24 0.05,-0.63 -0.04,-0.91 -0.19,-0.01 -0.01,0.33 -0.14,0.38 -0.23,-0.00 -0.08,-0.40 -0.24,-0.48 -0.15,0.15 0.10,0.31 0.05,0.53 -0.62,0.27 -0.50,-0.60 -0.38,-0.97 z m -5.46,0.42 c 0.37,0.00 0.75,0.01 1.14,0.01 0.05,0.14 -0.03,0.32 0,0.58 -0.37,-0.05 -0.81,-0.09 -1.16,0.05 0.11,0.22 0.55,0.12 0.87,0.14 -0.23,0.14 -0.60,0.22 -0.77,0.05 -0.30,-0.01 -0.49,0.08 -0.77,0.09 -0.05,-0.24 0.20,-0.17 0.29,-0.29 -0.14,-0.11 -0.49,-0.01 -0.72,-0.05 0.01,-0.18 -0.12,-0.38 0,-0.53 0.38,-0.05 0.75,-0.06 1.13,-0.06 z m 7.29,0.04 c 0.21,-0.02 0.38,0.19 0.39,0.50 -0.26,0.27 -0.69,0.06 -0.63,-0.39 0.08,-0.06 0.16,-0.10 0.23,-0.11 z m 10.10,0.06 c 0.12,-0.00 0.24,0.03 0.28,0.14 0.05,0.41 -0.73,0.39 -0.63,-0.05 0.08,-0.04 0.22,-0.08 0.34,-0.09 z m -0.67,0.04 c 0.04,1.83e-4 0.08,0.00 0.13,0 0.11,0.08 0.10,0.28 0.10,0.48 -0.23,-0.03 -0.42,-0.13 -0.48,-0.34 -0.00,-0.13 0.11,-0.14 0.25,-0.14 z m -4.71,0.10 0.24,0 c 0.06,0.14 0.22,0.42 0.04,0.53 -0.21,-0.05 -0.16,-0.37 -0.29,-0.53 z M 16.78,7.41 c 0.20,-0.01 0.42,0.17 0.73,0.10 0.07,0.10 0.09,0.25 0.19,0.33 -0.21,0.19 -0.50,-0.14 -0.67,0 0.03,0.04 0.10,0.04 0.09,0.14 -0.31,0.05 -0.48,0.26 -0.82,0.29 0.04,-0.32 0.49,-0.24 0.48,-0.63 -0.00,-0.10 -0.20,-0.02 -0.29,-0.05 0.09,-0.13 0.18,-0.18 0.27,-0.19 z m 7.48,0 0.14,0 c 0.00,0.36 -0.12,0.59 -0.39,0.68 -0.02,-0.32 0.25,-0.36 0.24,-0.68 z m -4.79,0.05 c 0.08,0.00 0.18,0.04 0.28,0.14 -0.04,0.27 -0.01,0.63 -0.14,0.82 -0.11,0.02 -0.22,0.06 -0.39,0.04 -0.33,-0.32 -0.12,-1.03 0.25,-1.01 z m 9.60,0.03 c 0.07,0.00 0.15,0.02 0.24,0.11 0.14,0.56 -0.30,0.76 -0.68,0.53 0.00,-0.12 0.16,-0.10 0.29,-0.10 -4.04e-4,-0.27 -0.28,-0.25 -0.29,-0.53 0.18,0.03 0.31,-0.02 0.44,-0.01 z m -8.92,0.13 c 0.08,-0.01 0.18,0.00 0.28,0.07 0.14,0.21 0.16,0.74 -0.24,0.68 -0.17,-0.18 -0.03,-0.31 0.04,-0.48 -0.17,0.02 -0.26,0.12 -0.33,0.24 -0.01,0.17 0.14,0.17 0.14,0.33 -0.42,-0.09 -0.26,-0.79 0.10,-0.85 z m -1.55,0.08 c 0.08,3.72e-4 0.16,0.01 0.24,0.04 -0.07,0.42 0.16,0.54 0.24,0.82 C 18.62,8.87 18.30,8.28 18.06,8.04 18.10,7.83 18.34,7.71 18.59,7.71 z m 0.80,0 c -0.30,0.05 -0.25,0.58 0.01,0.62 -0.06,-0.21 -0.06,-0.46 0.05,-0.62 -0.02,-5.81e-4 -0.04,-0.00 -0.06,0 z m 3.70,0.04 c -0.10,-0.00 -0.20,0.00 -0.29,0.05 0.28,0.23 0.83,0.20 1.06,0.48 C 23.79,8.03 23.42,7.78 23.10,7.75 z m -1.67,0.12 c 0.14,-0.00 0.37,0.15 0.46,0.22 -0.12,0.22 -0.27,-0.23 -0.58,-0.14 0.02,-0.04 0.07,-0.07 0.12,-0.07 z m -9.37,0.02 c 0.69,0.04 -0.09,0.93 -0.29,0.34 0.14,-0.03 0.18,0.05 0.29,0.05 0.14,-0.08 -0.02,-0.26 0,-0.39 z m -0.81,0.04 c 0.12,-0.00 0.25,0.07 0.18,0.24 -0.22,0.06 -0.23,-0.08 -0.34,-0.14 0.01,-0.06 0.08,-0.09 0.15,-0.10 z m 13.61,0.05 0.14,0 c 0.17,0.43 -0.11,0.81 -0.48,0.87 -0.19,-0.43 0.46,-0.36 0.34,-0.87 z M 10.58,8.15 c 0.22,-0.02 0.20,0.18 0.43,0.14 -0.02,0.28 -0.52,0.12 -0.43,-0.14 z m 12.22,0.14 c 0.03,0.13 -0.17,0.24 -0.04,0.43 0.16,-0.00 0.42,-0.23 0.53,0 -0.13,0.02 -0.04,0.27 -0.18,0.29 -0.08,-0.06 -0.13,-0.16 -0.29,-0.14 0.07,0.32 0.60,0.36 0.82,0.14 -0.02,0.12 0.01,0.17 0.14,0.14 0.01,-0.38 -0.49,-0.62 -0.92,-0.72 0.54,-0.07 0.72,0.21 0.97,0.43 C 23.70,8.47 23.31,8.32 22.81,8.29 z m 6.29,0.05 c 0.08,-0.00 0.17,0.00 0.25,0.04 0.15,0.55 -0.60,0.78 -0.67,0.29 0.05,0.04 0.12,0.06 0.24,0.05 0.00,-0.11 -0.08,-0.14 -0.05,-0.29 0.05,-0.04 0.14,-0.08 0.22,-0.09 z m -7.88,0.13 0,0.10 c 0.08,-0.01 0.24,0.04 0.19,-0.10 l -0.19,0 z m -1.26,0.12 c 0.09,-0.01 0.19,0.00 0.29,0.06 -0.07,0.20 -0.17,0.37 -0.18,0.63 -0.31,-0.04 -0.01,-0.45 -0.10,-0.53 -0.23,-0.07 -0.04,0.28 -0.24,0.24 -0.02,-0.24 0.08,-0.38 0.24,-0.41 z m -0.33,0.01 c -0.06,0.25 -0.09,0.56 0.04,0.92 C 18.98,9.87 19.06,8.56 19.61,8.63 z m 6.15,0.10 c 0.23,0.06 0.08,0.49 0.24,0.63 0.21,0.04 0.24,-0.27 0.43,-0.10 -0.07,0.26 -0.44,0.22 -0.67,0.34 -0.22,-0.16 -0.17,-0.69 0,-0.87 z m -6.74,0.04 c 0.14,0.16 -0.04,0.41 -0.09,0.53 -0.05,0.20 0.16,0.26 0.05,0.38 -0.33,-0.08 -0.22,-0.85 0.04,-0.92 z m -0.43,0.24 c 0.06,0.48 0.24,0.96 -0.09,1.25 C 18.11,10.26 18.11,9.88 17.66,9.94 17.88,9.54 18.15,9.20 18.59,9.02 z m 5.91,0.24 C 24.40,9.57 24.31,10.20 24.61,10.38 24.30,10.63 23.88,9.33 24.50,9.26 z M 10.77,9.28 c 0.14,0.00 0.27,0.05 0.35,0.17 -0.24,0.04 -0.70,-0.04 -0.97,0.09 0.11,-0.15 0.38,-0.27 0.61,-0.26 z m 1.42,0.07 c 0.16,0.07 0.06,0.57 -0.14,0.58 0.00,-0.24 -0.04,-0.53 0.14,-0.58 z m 14.50,0 c 0.27,0.16 -0.16,0.49 0.09,0.67 0.09,-0.06 0.03,-0.29 0.10,-0.38 0.10,0 0.31,0.24 0.29,-0.05 0.18,0.02 0.24,0.17 0.24,0.38 -0.36,0.63 -1.22,-0.13 -0.72,-0.62 z m -5.14,0.14 c -0.02,0.23 0.06,0.35 0.24,0.38 0.12,-0.16 -0.04,-0.38 -0.24,-0.38 z m 4.74,0.08 c 0.03,-0.00 0.06,0.00 0.10,0.00 0.03,0.39 0.21,0.62 0.34,0.92 -0.15,0.13 -0.32,-0.03 -0.53,0 -0.15,-0.28 -0.04,-0.46 0.09,-0.68 -0.41,-0.01 -0.23,0.61 -0.29,0.82 -0.16,0.03 -0.07,-0.18 -0.18,-0.19 0.10,-0.28 -0.00,-0.86 0.47,-0.87 z m -15.46,0.00 c 0.25,0.00 0.52,0.05 0.72,0.09 0.01,0.29 -0.30,0.18 -0.43,0.10 -0.38,0.10 -0.79,0.08 -1.16,0.29 C 9.99,9.69 10.40,9.59 10.83,9.60 z m 19.35,0.05 c 0.28,0.06 0.05,0.65 0.38,0.67 -0.03,0.26 -0.48,0.12 -0.43,0.48 -0.27,-0.04 -0.69,-0.12 -0.72,0.19 0.16,0.36 0.59,-0.11 0.87,0.14 0.03,0.16 -0.09,0.15 -0.14,0.24 0.31,0.26 0.92,0.33 0.72,0.97 0.03,0.19 0.12,0.32 0.10,0.58 -0.45,-0.00 -0.81,0.31 -1.16,0 -0.15,0.05 0.01,0.22 -0.18,0.29 -0.58,-0.08 -0.60,-0.72 -0.92,-1.06 0.01,-0.11 0.05,-0.19 0.09,-0.29 0.19,-0.04 0.21,0.07 0.29,0.14 0.10,-0.28 0.74,-0.14 0.72,0.14 0.12,-0.12 0.28,-0.05 0.39,-0.09 -0.09,-0.19 -0.43,-0.14 -0.58,-0.29 0.00,-0.18 0.18,-0.20 0.38,-0.19 -0.38,-0.28 -0.61,0.33 -1.16,0.09 -0.06,-0.15 -0.20,-0.41 -0.14,-0.53 0.14,0.06 0.22,0.19 0.48,0.14 -0.04,-0.16 -0.35,-0.06 -0.43,-0.19 0.37,-0.31 0.94,-0.44 1.11,-0.97 -0.19,-0.01 -0.29,0.48 -0.63,0.48 -0.08,-0.10 -0.02,-0.35 -0.04,-0.53 -0.08,0.18 -0.17,0.36 -0.10,0.58 -0.20,0.10 -0.41,0.44 -0.67,0.34 -0.06,-0.24 0.16,-0.19 0.18,-0.34 -0.11,-0.28 0.00,-0.64 0.14,-0.82 0.18,-0.02 0.12,0.20 0.24,0.24 0.20,-0.00 0.09,-0.32 0.29,-0.34 0.20,-0.04 0.10,0.21 0.19,0.29 0.15,-0.21 0.47,-0.26 0.72,-0.38 z m -10.54,0.07 c 0.03,0.00 0.07,0.00 0.11,0.01 0.22,0.29 0.23,1.07 -0.39,0.92 -0.05,-0.12 -0.11,-0.23 -0.09,-0.43 0.18,-0.03 0.03,0.25 0.24,0.19 0.03,-0.12 0.06,-0.37 0,-0.53 -0.15,-0.02 -0.13,0.12 -0.18,0.19 -0.10,-0.16 0.06,-0.36 0.32,-0.36 z m 10.49,0.06 c -0.04,0.07 -0.32,0.15 -0.19,0.24 0.04,-0.07 0.30,-0.17 0.19,-0.24 z m -13.57,0.04 0.14,0 c -0.03,0.26 0.12,0.32 0.19,0.48 -0.01,0.18 -0.27,0.31 -0.39,0.24 -0.02,-0.10 0.06,-0.09 0.14,-0.10 -0.00,-0.16 -0.17,-0.18 -0.19,-0.34 0.01,-0.11 0.06,-0.19 0.10,-0.29 z m 0.34,0.09 c 0.10,-0.00 0.11,0.08 0.24,0.05 2.02e-4,0.19 0.09,0.29 0.09,0.48 -0.15,-0.00 -0.20,-0.10 -0.18,-0.29 -0.05,-0.08 -0.25,-0.03 -0.19,-0.24 0.01,-0.00 0.03,-0.00 0.05,-0.00 z M 10.99,10.03 c 0.08,-0.00 0.15,-0.00 0.22,0 -0.02,0.35 -0.42,0.26 -0.68,0.34 -0.32,0.09 -0.55,0.29 -0.82,0.38 -0.12,-0.57 0.71,-0.70 1.28,-0.72 z m 6.66,0.09 c 0.18,0.03 0.41,0.04 0.48,0.19 -0.03,0.17 -0.17,0.24 -0.38,0.24 -0.10,-0.10 0.05,-0.14 0.04,-0.29 -0.14,0.07 -0.18,0.23 -0.29,0.34 0.38,0.00 0.60,0.29 0.48,0.87 -0.17,-0.03 -0.38,-0.03 -0.48,-0.14 -0.01,-0.14 0.05,-0.37 -0.09,-0.38 -0.12,0.18 -0.04,0.28 -0.05,0.53 -0.18,0.02 -0.27,0.14 -0.43,0.19 -0.11,-0.11 -0.00,-0.29 0.05,-0.38 0.15,-0.04 0.10,0.12 0.19,0.14 0.12,-0.12 -0.10,-0.18 -0.10,-0.34 0.16,-0.00 0.17,-0.40 0.29,-0.29 0.20,0.04 0.20,0.37 0.43,0.24 -0.08,-0.20 -0.37,-0.20 -0.43,-0.43 0.06,-0.18 0.20,-0.31 0.29,-0.48 z m 3.35,0.03 c -0.09,-0.00 -0.18,0.01 -0.29,0.06 -0.01,0.30 0.13,0.44 0.19,0.67 0.37,0.22 0.70,-0.11 1.06,-0.04 -0.07,-0.27 -0.40,-0.30 -0.48,-0.58 -0.18,-0.04 -0.32,-0.11 -0.48,-0.12 z m 7.13,0.06 c 0.13,0.00 0.23,0.05 0.18,0.24 -0.21,0.02 -0.30,-0.07 -0.34,-0.24 0.05,-0.00 0.10,-0.00 0.15,-0.00 z m -0.98,0.10 c 0.07,-0.00 0.15,0.01 0.25,0.05 0.16,0.32 0.10,1.03 -0.34,0.96 -0.38,-0.06 -0.41,-0.99 0.08,-1.01 z m -15.80,0.05 c 0.16,0.01 0.27,0.07 0.48,0.05 0.04,0.24 0.18,0.39 0.19,0.67 -0.22,-0.03 -0.38,0.00 -0.39,0.19 -0.04,-0.03 -0.11,-0.05 -0.19,-0.05 0.06,-0.24 0.17,-0.43 0.19,-0.72 -8.08e-4,-0.14 -0.35,0.06 -0.29,-0.14 z m 9.94,0 c 0.16,-0.02 0.28,0.10 0.19,0.19 -0.12,-0.00 -0.18,-0.07 -0.19,-0.19 z m -0.38,0.05 c 0.28,-0.00 0.42,0.12 0.58,0.24 -0.19,0.11 -0.59,0.01 -0.58,-0.24 z m -9.79,0.04 c 0.03,0.37 -0.06,0.61 -0.24,0.77 0.07,-0.26 0.00,-0.67 0.24,-0.77 z m 5.90,0.02 c 0.07,-2.48e-4 0.14,0.03 0.20,0.12 -0.09,0.21 -0.09,0.52 -0.43,0.48 0.05,0.20 0.05,0.42 0,0.63 -0.22,-0.08 -0.16,-0.45 -0.29,-0.63 0.19,-0.04 0.33,-0.14 0.43,-0.29 -0.05,-0.22 -0.18,-0.03 -0.24,-0.09 0.06,-0.12 0.20,-0.22 0.32,-0.22 z m 8.00,0.06 c 0.11,0.00 0.21,0.05 0.24,0.15 -0.29,-0.03 -0.47,0.03 -0.67,0.09 0.00,-0.15 0.23,-0.26 0.42,-0.25 z m -14.40,0.00 c 0.08,7.33e-4 0.15,0.00 0.19,0.05 -0.16,0.37 0.03,1.35 -0.53,1.45 -0.32,-0.25 -0.70,-0.46 -1.01,-0.73 0.13,-0.35 0.69,-0.52 0.96,-0.58 -0.01,0.44 -0.56,0.33 -0.62,0.72 0.18,0.15 0.19,-0.16 0.38,-0.14 0.10,0.08 0.04,0.34 0.19,0.39 0.25,-0.15 -0.15,-0.44 -0.05,-0.58 0.20,-0.06 0.12,0.15 0.24,0.18 0.14,-0.21 -0.03,-0.50 0,-0.77 0.07,0.00 0.16,-0.00 0.24,-0.00 z m 17.32,0.03 c 0.04,-2.13e-4 0.09,0.00 0.13,0.01 0.19,0.29 0.18,0.81 -0.24,0.82 -0.15,-0.15 0.07,-0.45 -0.04,-0.58 -0.12,0.00 -0.08,0.17 -0.15,0.24 -0.07,-0.17 0.01,-0.50 0.30,-0.50 z m -9.85,0.02 c 0.03,-7.08e-4 0.07,0.01 0.10,0.04 -0.01,0.08 -0.08,0.10 -0.19,0.09 -0.01,-0.09 0.03,-0.13 0.09,-0.13 z m 8.33,0.03 c 0.04,-0.00 0.10,-0.00 0.16,0.00 0.06,0.28 0.21,0.48 0.18,0.87 -0.61,0.63 -1.07,-0.80 -0.35,-0.87 z m 0.49,0.00 c -0.01,0.23 -0.01,0.47 0.24,0.43 -0.04,-0.12 -0.06,-0.25 -0.05,-0.43 l -0.19,0 z m -0.58,0.29 c -0.06,0.08 -0.12,0.48 0.09,0.43 -0.11,-0.16 0.10,-0.39 -0.09,-0.43 z m 1.98,0.14 c 0.35,-0.00 0.35,0.64 0.19,0.87 -0.23,0.05 -0.29,-0.06 -0.39,-0.14 -0.20,-0.07 0.01,0.27 -0.18,0.19 -0.04,-0.05 -0.06,-0.12 -0.05,-0.24 0.34,-0.02 0.44,-0.30 0.43,-0.68 z m -16.24,0.15 c 0.11,-0.04 0.15,0.23 0.18,0.32 -0.15,-0.07 -0.21,-0.01 -0.39,0 -0.00,0.07 0.02,0.18 -0.04,0.19 0.04,0.18 0.38,0.06 0.58,0.09 -0.02,0.18 -0.52,0.09 -0.63,0.05 -0.15,-8.08e-4 -0.26,0.15 -0.38,0.04 -0.02,-0.17 0.05,-0.22 0.09,-0.33 -0.16,-0.14 -0.43,0.00 -0.58,0.04 0.03,-0.43 1.18,-0.00 1.11,-0.38 0.01,-0.02 0.03,-0.03 0.05,-0.03 z m 13.78,0.17 c 0.01,-9.75e-4 0.02,0.00 0.03,0.00 -0.14,0.11 -0.41,0.53 -0.09,0.67 0.03,-0.11 -0.05,-0.45 0.14,-0.53 0.26,0.09 0.00,0.47 0,0.72 l -0.24,0 c -0.14,-0.21 -0.17,-0.57 -0.04,-0.82 0.12,0.03 0.12,-0.04 0.20,-0.05 z m 1.01,0.00 c 0.11,0.03 0.24,0.04 0.33,0.09 0.01,0.17 -0.05,0.27 -0.09,0.39 -0.22,-0.02 -0.26,-0.21 -0.24,-0.48 z M 12.28,11.64 c 0.02,0.15 -0.12,0.17 -0.19,0.09 0.03,-0.06 0.10,-0.08 0.19,-0.09 z m 15.27,0.09 0.14,0 c 0.03,0.21 0.17,0.34 0.19,0.58 -0.20,0.23 -0.51,0.00 -0.53,-0.24 0.08,-0.00 0.10,0.05 0.19,0.04 l 0,-0.38 z m -0.89,0.06 c 0.21,0.04 0.43,0.75 0.02,0.99 -0.58,0.17 -0.67,-0.73 -0.39,-0.97 0.05,0.25 -0.17,0.78 0.34,0.77 0.06,-0.24 -0.16,-0.19 -0.19,-0.34 0.03,-0.36 0.12,-0.48 0.22,-0.46 z m 0.36,0.22 0.09,0 c 0.44,0.07 0.23,1.17 -0.19,0.77 0.06,-0.22 0.13,-0.45 0.10,-0.77 z m -16.35,0.14 0.10,0 0,0.09 -0.10,0 0,-0.09 z m 1.02,0 0.18,0 c 0.04,0.14 -0.10,0.08 -0.18,0.09 l 0,-0.09 z m 18.67,0.09 c 0.09,0.15 0.26,0.48 0.38,0.44 -0.15,-0.11 -0.20,-0.35 -0.38,-0.44 z m -1.83,0.04 c 0.03,-0.00 0.08,-0.00 0.13,0.00 0.08,0.26 0.43,0.62 0.18,0.92 -0.50,-4.04e-4 -0.42,-0.57 -0.62,-0.87 0.11,-0.00 0.19,-0.04 0.30,-0.05 z m 1.38,0.05 c 0.04,0.21 0.15,0.37 0.29,0.48 0.02,-0.11 -0.10,-0.43 -0.29,-0.48 z m -4.31,0.04 c -0.12,0.57 -0.92,0.46 -1.16,0.92 -0.04,0.09 0.04,0.28 -0.14,0.34 -0.09,-0.95 0.65,-1.05 1.30,-1.26 z m -14.79,0.10 1.40,0 c 0.10,0.10 0.00,0.24 -0.04,0.34 0.23,0.53 0.08,1.28 0.14,2.12 0.09,1.22 0.66,2.22 1.21,2.96 1.10,0.11 1.76,-0.25 2.57,-0.53 -0.16,0.55 -0.29,1.13 -0.10,1.80 0.09,0.31 0.32,0.55 0.43,0.82 0.19,0.05 0.44,0.08 0.58,0.19 -0.45,0.44 -1.28,0.21 -2.09,0.29 -0.11,0.01 -0.21,0.07 -0.33,0.09 -0.44,0.08 -1.20,0.00 -1.84,0.05 -0.58,0.03 -0.99,0.23 -1.35,-0.09 -0.13,-0.63 -0.35,-1.23 -0.53,-1.94 -0.11,-0.44 -0.26,-0.92 -0.34,-1.50 -0.06,-0.45 0.04,-0.99 0,-1.45 -0.01,-0.11 -0.09,-0.19 -0.09,-0.29 0.00,-0.81 0.22,-1.63 0.14,-2.47 0.25,0.05 0.24,-0.01 0.48,-0.04 0.02,-0.22 -0.25,-0.13 -0.24,-0.34 z m 17.12,0 c 0.16,0.04 0.06,0.15 0.09,0.24 0.16,0.38 0.60,0.54 0.77,0.92 -0.02,0.13 -0.18,0.13 -0.29,0.19 0.12,0.13 0.16,0.35 0.14,0.63 -0.17,0.03 -0.18,-0.10 -0.34,-0.10 -0.16,0.10 0.04,0.63 -0.14,0.82 -0.38,0.06 -0.38,-0.26 -0.58,-0.39 -0.15,-0.02 -0.13,0.12 -0.19,0.19 -0.17,-0.03 -0.21,-0.20 -0.19,-0.43 0.18,-0.01 0.20,-0.18 0.39,-0.19 0.03,0.09 0.07,0.17 0.09,0.29 0.13,-0.10 -0.00,-0.34 0,-0.48 0.21,0.01 0.18,0.26 0.29,0.38 0.13,-0.42 -0.63,-0.62 -0.34,-1.21 0.10,-0.10 0.16,0.08 0.29,0.09 0.08,-0.04 -0.09,-0.21 -0.19,-0.24 -0.02,-0.33 0.08,-0.52 0.19,-0.72 z m -1.99,0.08 c 0.03,-0.00 0.06,-1.01e-4 0.10,0.00 -0.04,0.33 -0.21,0.56 -0.09,0.92 -0.41,0.13 -0.47,-0.88 -0.00,-0.92 z m 1.50,0.00 c 0.11,-0.00 0.23,-0.00 0.29,0.05 0.00,0.42 -0.51,0.73 -0.87,0.48 0.20,-0.16 0.60,-0.13 0.58,-0.53 z m -8.29,0.05 c 0.24,0.43 0.85,0.76 1.50,0.48 -0.31,0.67 -1.63,0.13 -1.50,-0.48 z m 7.42,0.28 c 0.08,7.33e-4 0.14,0.01 0.18,0.05 -0.03,0.17 -0.04,0.36 -0.09,0.53 -0.11,0.01 -0.18,0.07 -0.34,0.05 -0.02,-0.15 0.12,-0.13 0.19,-0.19 0.00,-0.21 -0.28,-0.13 -0.19,-0.43 0.07,0.00 0.16,-0.00 0.24,-0.00 z m 0.96,0.24 0,0.24 c -0.28,0.03 -0.28,-0.28 0,-0.24 z m -0.50,0.29 c 0.17,-0.02 0.35,0.12 0.45,0.24 0.18,0.58 -0.35,0.94 -0.67,0.58 -0.02,-0.17 0.43,0.06 0.48,-0.14 -0.03,-0.14 -0.23,-0.12 -0.34,-0.19 -0.03,-0.12 -0.01,-0.30 -0.09,-0.38 0.05,-0.05 0.11,-0.08 0.17,-0.09 z m -0.78,0.37 c 0.08,-0.01 0.18,2.52e-4 0.27,0.00 -0.00,0.11 0.08,0.14 0.05,0.29 -0.08,0.07 -0.39,0.07 -0.48,0 -0.05,-0.20 0.02,-0.27 0.15,-0.29 z m 0.42,0.10 c 0.08,0.01 0.10,0.08 0.09,0.19 -0.08,-0.04 -0.18,-0.11 -0.09,-0.19 z m -3.58,0.14 c 0.28,0.09 0.19,0.58 0.33,0.82 -0.31,-0.04 -0.27,-0.68 -0.33,-0.82 z m 2.86,0 c 0.16,0.19 0.08,0.65 -0.05,0.82 l -0.24,0 c -0.13,-0.20 0.00,-0.49 0.09,-0.63 -0.18,-0.08 -0.22,0.22 -0.29,0.09 -0.00,-0.26 0.21,-0.30 0.48,-0.29 z m -2.23,0.19 c 0.20,0.18 0.43,0.30 0.73,0.29 -0.15,0.22 -0.55,0.13 -0.73,0 l 0,-0.29 z m 2.74,0.09 c 0.29,-0.03 0.61,0.38 0.41,0.77 -0.12,0.11 -0.48,0.24 -0.63,0.05 0.03,-0.15 0.12,-0.06 0.24,-0.05 -0.05,-0.23 -0.23,-0.34 0,-0.53 -0.02,-0.15 -0.18,-0.07 -0.29,-0.05 0.07,-0.12 0.16,-0.18 0.26,-0.19 z m -1.37,0.48 c 0.05,-0.00 0.11,-0.00 0.18,0.00 -0.32,0.25 -0.85,0.56 -1.40,0.43 0.52,0.00 0.81,-0.39 1.22,-0.44 z m -4.89,0.04 c 0.07,0.00 0.14,0.01 0.22,0.05 -0.19,0.92 -0.42,1.60 -0.72,2.38 -0.24,0.62 -0.22,1.61 -0.05,2.32 0.11,0.47 0.15,0.57 -0.18,1.02 -0.14,0.18 -0.30,0.42 -0.44,0.53 -0.22,0.18 -0.57,0.27 -0.82,0.43 -0.37,0.23 -0.80,0.54 -1.01,0.92 -0.10,0.18 -0.01,0.36 -0.24,0.53 -0.01,-0.62 0.42,-0.94 0.72,-1.31 0.08,-0.11 0.15,-0.27 0.24,-0.38 0.16,-0.18 0.40,-0.29 0.53,-0.53 0.09,-0.17 0.28,-0.70 0.34,-0.92 0.08,-0.30 0.06,-0.73 0.14,-1.11 0.05,-0.29 0.19,-0.56 0.24,-0.82 0.04,-0.27 0.05,-0.53 0.05,-0.77 -0.00,-0.11 -0.08,-0.16 -0.09,-0.29 -0.01,-0.12 0.05,-0.30 0.04,-0.43 -0.04,-0.43 -0.22,-0.89 -0.14,-1.30 0.13,-0.13 0.39,-0.26 0.63,-0.14 0.01,0.23 -0.38,0.29 -0.43,0.53 -0.02,0.12 -0.00,0.41 0.19,0.48 0.07,-0.37 0.29,-1.18 0.78,-1.17 z m 6.93,0.15 c 0.09,0.01 0.14,0.07 0.22,0.10 0.02,0.15 -0.06,0.18 -0.09,0.29 -0.23,-0.03 -0.31,-0.16 -0.24,-0.38 0.04,-0.00 0.07,-0.01 0.10,-0.00 z m 1.25,0.00 c 0.30,0.17 0.63,0.48 1.06,0.38 0.34,0.50 0.66,1.17 1.11,1.60 0.56,0.53 1.22,0.82 1.74,1.30 0.50,0.47 0.99,1.08 1.21,1.79 0.06,0.22 0.05,0.47 0.14,0.72 0.23,0.66 0.91,1.14 0.96,2.09 -0.26,0.01 -0.26,0.01 -0.53,0 0.42,-0.89 -0.47,-1.41 -0.68,-2.18 -0.04,-0.16 0.00,-0.35 -0.04,-0.48 -0.11,-0.32 -0.53,-0.82 -0.82,-1.06 -0.37,-0.31 -0.92,-0.59 -1.40,-0.87 -1.02,-0.59 -2.06,-1.18 -2.71,-2.13 -0.24,-0.01 -0.36,-0.14 -0.53,-0.24 0.14,-0.17 0.01,-0.62 0.38,-0.58 -0.03,-0.17 0.03,-0.25 0.10,-0.34 z m 0.29,0 c 0.21,0.07 0.47,0.10 0.53,0.34 -0.18,-0.10 -0.43,-0.14 -0.53,-0.34 z m -1.04,0.13 c 0.15,0.00 0.22,0.09 0.32,0.15 -0.08,0.72 -0.51,1.10 -1.02,1.40 -0.08,0.24 -0.35,0.45 -0.53,0.72 -0.14,0.22 -0.43,0.59 -0.14,0.82 0.14,-0.12 -0.05,-0.32 0.04,-0.43 0.35,-0.04 0.39,0.64 0.82,0.68 0.42,-0.40 -0.36,-0.68 -0.43,-1.06 0.54,0.02 1.03,0.29 1.21,0.72 0.16,0.40 0.02,0.82 0.09,1.21 0.10,0.52 0.42,1.02 0.77,1.26 0.35,0.23 0.74,0.16 1.21,0.29 0.24,0.06 0.58,0.44 1.16,0.29 0.59,-0.15 0.34,-0.79 0,-1.11 -0.39,-0.36 -0.97,-0.45 -1.45,-0.72 -0.49,-0.28 -1.19,-0.96 -1.45,-1.50 -0.12,-0.26 -0.16,-0.54 -0.29,-0.82 -0.10,-0.23 -0.26,-0.43 -0.34,-0.72 0.71,-0.42 1.11,0.46 1.50,0.87 0.54,0.56 1.34,1.07 1.88,1.65 0.76,0.23 1.22,0.77 1.84,1.16 0.22,0.35 0.43,0.72 0.58,1.16 0.34,0.33 0.79,1.02 0.48,1.69 -1.73,-0.19 -3.21,-0.84 -4.65,-1.40 -0.67,-0.26 -1.29,-0.53 -2.22,-0.58 0.08,-0.98 -0.72,-1.38 -1.06,-2.08 0.01,-0.18 0.11,-0.27 0.14,-0.43 -0.13,-0.14 -0.08,0.11 -0.24,0.09 0.03,-0.22 0.17,-0.38 0.19,-0.53 0.04,-0.29 -0.05,-0.54 0,-0.77 0.10,-0.48 0.65,-0.68 0.92,-0.97 0.23,-0.25 0.39,-0.70 0.58,-1.01 0.02,-0.00 0.04,-0.00 0.06,-0.00 z m -8.75,0.29 c 0.04,-0.00 0.04,0.01 0.05,0.04 0.22,1.24 0.07,2.33 -0.19,3.49 -0.09,0.40 -0.12,0.90 -0.38,1.11 0.02,0.11 0.07,0.22 0.05,0.39 -0.17,0.38 -0.52,0.69 -0.82,1.06 -0.26,0.31 -0.63,0.72 -0.72,1.11 -0.10,0.44 0.11,1.07 -0.53,1.16 -0.42,-0.67 -0.24,-1.73 0.14,-2.28 0.30,-0.43 0.75,-0.68 0.82,-1.16 0.30,-6.06e-4 0.16,0.44 0.38,0.53 0.18,-0.14 -0.03,-0.42 -0.14,-0.58 -0.16,-0.22 -0.38,-0.31 -0.53,-0.53 -0.38,-0.59 -0.45,-2.02 -0.14,-2.86 0.22,-0.29 0.24,-0.78 0.67,-0.87 0.17,0.29 -0.11,0.48 -0.09,0.77 0.31,0.05 0.07,-0.85 0.53,-0.82 -0.03,0.43 0.05,0.75 0,1.11 -0.08,0.58 -0.60,1.01 -0.24,1.40 0.36,-0.07 0.50,-0.45 0.53,-0.77 0.05,-0.56 -0.23,-1.27 -0.19,-1.83 0.25,-0.17 0.61,-0.25 0.82,-0.48 z m -1.69,0.48 c 0.06,0.25 -0.22,0.37 -0.34,0.58 -0.36,0.62 -0.54,1.60 -0.53,2.71 -0.34,-0.32 -0.32,-1.36 0,-1.69 -0.17,-0.82 0.13,-1.53 0.87,-1.59 z m 10.32,0.63 c 0.41,0.37 0.34,0.81 0.48,1.16 0.21,0.55 0.95,1.29 1.50,1.64 0.47,0.30 0.95,0.48 1.35,0.82 0.10,0.09 0.07,0.06 0.14,0.24 0.03,0.09 0.15,0.09 0.14,0.29 -0.00,0.10 -0.11,0.16 -0.09,0.24 -0.38,0.14 -0.80,-0.00 -1.01,-0.18 -0.62,-0.03 -1.00,-0.12 -1.31,-0.39 -0.75,-0.66 -0.33,-2.13 -1.06,-2.81 -0.30,-0.11 -0.56,-0.26 -0.91,-0.34 0.18,-0.30 0.43,-0.52 0.77,-0.67 z m -9.45,0.72 c 0.13,0.38 0.01,0.92 -0.29,1.01 -0.04,-0.47 0.22,-0.64 0.29,-1.01 z m 8.38,0.29 c 0.28,0.12 0.49,0.31 0.58,0.63 -0.29,-0.11 -0.47,-0.33 -0.58,-0.63 z m 4.02,0.58 0.14,0 c 0.93,0.61 2.12,0.98 2.57,2.08 -0.22,-0.10 -0.31,-0.36 -0.48,-0.53 -0.15,-0.14 -0.36,-0.17 -0.53,-0.29 -0.26,-0.18 -0.49,-0.44 -0.77,-0.63 -0.32,-0.21 -0.69,-0.30 -0.92,-0.63 z m -14.02,0.09 c 0.07,0.58 0.15,1.18 0.39,1.60 -0.56,-0.13 -0.42,-1.14 -0.39,-1.60 z m 3.34,2.13 c 0.04,0 0.09,6.06e-4 0.14,0 0.04,0.31 -0.11,0.57 -0.24,0.82 -0.10,0.19 -0.20,0.46 -0.38,0.67 -0.11,0.12 -0.38,0.24 -0.53,0.43 -0.27,0.34 -0.57,1.09 -0.67,1.65 -0.07,0.41 -0.10,0.86 -0.63,0.82 -0.38,-0.03 -0.42,-0.55 -0.77,-0.53 0.21,-0.26 0.39,-0.24 0.48,-0.53 0.06,-0.21 -0.06,-0.53 0,-0.82 0.03,-0.13 0.16,-0.38 0.24,-0.48 0.59,-0.80 2.06,-0.95 2.37,-2.04 z m 11.49,0.29 c 0.09,0.06 0.04,0.39 -0.14,0.34 0.02,-0.13 0.11,-0.20 0.14,-0.34 z m -14.64,0.24 c 0.08,-0.01 0.10,0.04 0.05,0.04 -0.51,0.61 -1.20,1.74 -0.72,2.67 0.06,0.13 0.28,0.41 0.48,0.58 0.08,0.07 0.23,0.10 0.34,0.19 0.27,0.23 0.34,0.51 0.72,0.58 0.20,0.04 0.23,-0.09 0.39,-0.10 -0.04,0.45 -0.57,0.58 -1.01,0.48 -0.21,-0.16 -0.18,-0.53 -0.34,-0.77 -0.28,-0.41 -0.81,-0.37 -1.02,-0.77 -0.13,-0.26 -0.15,-0.65 -0.14,-0.96 0.00,-0.08 0.09,-0.18 0.10,-0.29 0.00,-0.07 -0.06,-0.19 -0.05,-0.24 0.14,-0.58 0.61,-1.03 1.21,-1.40 z m 3.34,0 c 0.05,0.01 0.12,0.08 0.05,0.09 -0.16,0.68 -0.81,1.49 -0.92,2.42 -0.06,0.54 0.06,0.99 -0.14,1.35 -0.19,0.33 -0.65,0.47 -1.02,0.53 -0.19,0.02 -0.00,-0.13 0.05,-0.15 0.30,-0.56 0.25,-1.30 0.48,-1.98 0.22,-0.64 0.87,-0.98 1.21,-1.60 0.11,-0.21 0.11,-0.46 0.29,-0.67 z m 7.51,0.14 c 1.49,0.56 3.08,1.48 4.56,2.22 0.20,0.10 0.46,0.13 0.68,0.24 0.43,0.20 0.94,0.51 1.55,0.68 0.74,0.20 1.85,0.40 2.61,0.05 -0.25,0.59 -0.93,0.42 -1.54,0.53 -0.44,0.08 -0.91,0.36 -1.45,0.38 -0.43,0.01 -0.77,-0.13 -1.21,-0.14 -1.76,-1.30 -3.29,-2.84 -5.28,-3.92 10e-4,-0.04 0.05,-0.03 0.09,-0.04 z m -0.43,0.04 c 0.91,0.47 1.93,1.11 2.86,1.89 0.41,0.34 0.89,0.67 1.31,1.01 0.59,0.49 1.02,0.89 1.69,1.31 0.33,0.20 0.47,0.26 0.96,0.43 0.37,0.13 0.62,0.28 1.16,0.29 0.59,0.00 1.00,-0.24 1.64,-0.24 0.04,0.30 -0.41,0.36 -0.77,0.48 -0.62,0.20 -1.46,0.51 -1.98,-0.05 -0.57,-8.08e-4 -1.10,-0.42 -1.60,-0.72 -0.50,-0.29 -1.04,-0.53 -1.45,-0.92 -0.61,-0.16 -1.03,-0.62 -1.50,-0.96 -0.46,-0.33 -0.91,-0.68 -1.30,-1.11 -0.09,-0.40 -0.44,-0.56 -0.63,-0.87 -0.11,-0.12 -0.10,0.10 -0.29,0.05 -0.02,-0.18 -0.35,-0.33 -0.19,-0.53 0.03,-0.00 0.04,-0.05 0.09,-0.05 z m -6.98,0.05 c 0.20,-0.01 0.19,0.34 0.29,0.63 0.05,0.17 0.14,0.29 0.15,0.38 0.00,0.28 -0.28,1.06 -0.48,1.26 -0.20,0.20 -0.52,0.28 -0.77,0.34 0.03,-1.10 0.60,-1.68 0.82,-2.62 z m 13.92,0 c 0.55,0.18 0.90,0.60 1.50,0.77 0.61,0.17 1.40,-0.02 2.03,0.14 -0.19,0.43 -0.92,0.68 -1.55,0.77 -0.35,0.05 -0.76,-0.01 -1.11,0.09 -0.09,-0.79 -0.61,-1.15 -0.87,-1.79 z m 2.93,0.01 c 0.10,9.19e-4 0.20,0.01 0.30,0.03 0.01,0.00 0.37,0.13 0.48,0.18 0.40,0.20 1.14,0.76 1.11,1.40 -0.00,0.19 -0.13,0.48 -0.39,0.53 l 0,-0.43 c -0.32,-0.53 -0.63,-0.96 -1.35,-1.06 -0.75,-0.10 -1.77,0.15 -2.13,-0.39 0.71,0.19 1.26,-0.28 1.97,-0.27 z m -7.98,0.32 c 0.56,0.24 1.15,0.46 1.74,0.67 0.58,0.20 1.17,0.48 1.79,0.63 0.37,0.09 0.80,0.02 1.16,0.24 1.49,0.08 3.21,0.03 4.07,-0.77 1.01,0.47 -0.56,0.72 -0.63,1.30 -0.31,0.03 -0.44,0.24 -0.72,0.29 -0.65,0.10 -1.37,-0.28 -2.04,-0.29 -0.51,-0.00 -1.01,0.23 -1.45,-0.09 C 32.01,23.08 30.89,22.69 29.89,22.16 29.57,21.99 29.22,21.82 28.97,21.58 z m -7.66,0.43 c 0.19,-0.01 0.27,0.08 0.48,0.05 -0.09,0.73 0.05,1.35 0.24,2.03 -0.48,-0.45 -0.43,-1.44 -0.73,-2.08 z m 16.83,0.87 c 0.07,-0.01 0.08,0.04 0.14,0.05 0.33,0.55 -0.39,0.88 -0.48,1.30 -0.07,0.38 0.17,0.73 0,1.06 -0.14,0.26 -0.44,0.28 -0.73,0.48 -0.65,-0.22 -1.33,0.20 -2.03,0.19 -0.75,-0.01 -1.37,-0.37 -1.98,-0.58 0.49,-0.05 1.12,-0.05 1.59,-0.05 0.38,-0.42 1.17,-0.28 1.74,-0.43 0.48,-0.12 0.67,-0.47 0.92,-0.77 -0.16,-0.85 0.52,-0.86 0.82,-1.26 z m -10.71,0.19 0.09,0 c 0.19,0.17 0.28,0.53 0.39,0.87 0.09,0.31 0.16,0.64 0.24,0.97 0.12,-0.30 -0.09,-0.68 -0.14,-0.97 0.48,0.43 0.84,0.99 0.92,1.84 -0.18,0.36 -0.47,0.66 -0.72,0.97 -0.24,0.28 -0.50,0.61 -0.87,0.77 -0.21,-0.37 0.18,-0.83 0.09,-1.30 -0.04,-0.23 -0.20,-0.30 -0.29,-0.53 0.00,-0.64 0.00,-1.33 -0.05,-1.89 -0.02,-0.20 -0.21,-0.44 0,-0.58 0.23,-0.00 0.34,0.32 0.39,0.48 0.20,0.66 0.17,1.60 0.38,2.28 0.11,-1.03 -0.22,-2.03 -0.43,-2.91 z m -10.47,0.53 c 0.12,0.24 -0.13,0.51 -0.43,0.48 0.05,-0.24 0.35,-0.26 0.43,-0.48 z m 9.65,0 c 0.03,0.48 0.06,0.97 0.14,1.40 -0.07,0.21 -0.31,0.27 -0.39,0.48 -0.21,-0.34 0.03,-1.08 -0.24,-1.45 -0.16,-0.01 -0.18,0.25 -0.34,0.10 0.18,-0.26 0.45,-0.45 0.82,-0.53 z m 7.71,0.19 c 0.60,-0.02 1.34,0.35 1.98,0.29 0.31,-0.03 0.55,-0.23 0.82,-0.24 -0.04,0.47 -0.67,0.57 -1.11,0.58 -0.77,0.01 -1.65,-0.30 -2.22,-0.43 0.09,-0.16 0.38,-0.18 0.53,-0.19 z m -8.69,0.38 c 0.03,0.00 0.05,0.02 0.06,0.05 0.13,0.69 0.06,1.59 0.29,2.18 -0.06,0.14 -0.07,0.34 -0.24,0.38 -0.11,-0.30 -0.23,-0.66 -0.33,-1.01 -0.10,-0.34 -0.12,-0.76 -0.39,-0.97 -0.22,0.34 0.00,0.77 0.09,1.11 0.10,0.37 0.23,0.75 0.29,1.11 -0.40,-0.53 -0.64,-1.23 -0.82,-1.98 -0.26,0.42 0.08,1.03 0.05,1.55 -0.32,-0.24 -0.24,-0.87 -0.29,-1.36 0.07,-0.18 -0.13,-0.09 -0.10,-0.24 0.53,-0.19 1.05,-0.40 1.35,-0.82 0.01,-0.00 0.02,-0.00 0.03,-0.00 z m 12.37,0.00 c 0.14,0.12 0.08,0.46 0.29,0.53 -0.04,0.65 -0.18,1.20 -0.92,1.16 0.10,-0.18 0.33,-0.24 0.48,-0.38 0.33,-0.45 0.00,-0.91 0.14,-1.30 z m -11.15,0.77 c 0.18,0.08 0.13,0.39 0.09,0.58 -0.30,-0.03 -0.01,-0.34 -0.09,-0.58 z m -3.00,0.14 0.24,0 c -0.14,0.41 0.02,1.12 0,1.40 -0.35,-0.18 -0.08,-1.00 -0.24,-1.40 z m 5.48,0.10 0.14,0 c 0.69,0.67 1.48,1.25 2.46,1.64 -0.51,0.63 -1.14,1.15 -1.79,1.64 -0.12,0.09 -0.20,0.23 -0.34,0.34 -0.13,0.10 -0.32,0.13 -0.48,0.24 -0.13,0.09 -0.25,0.24 -0.39,0.34 -0.29,0.19 -0.62,0.32 -0.92,0.48 -0.27,0.14 -0.50,0.33 -0.77,0.48 -0.77,0.42 -1.68,0.72 -2.37,1.30 0.09,1.04 -0.60,1.29 -0.77,2.08 0.02,0.18 0.19,0.22 0.43,0.19 0.08,0.12 0.07,0.34 0.19,0.43 -0.41,0.17 -0.66,-0.24 -1.11,-0.19 -0.01,0.33 0.91,0.16 1.02,0.53 -0.38,-0.04 -0.42,0.25 -0.73,0.29 -0.30,-0.30 -0.38,-0.84 -0.87,-0.97 0.13,0.48 0.51,0.71 0.72,1.11 -0.10,0.10 -0.23,0.18 -0.48,0.14 -0.15,-0.45 -0.31,-0.91 -0.53,-1.30 0.01,-0.14 -0.00,-0.33 0.14,-0.34 -0.06,-0.89 0.40,-1.66 0.58,-2.47 0.75,-0.98 1.77,-1.64 2.76,-2.47 0.47,-0.40 1.03,-0.72 1.45,-1.11 0.31,-0.29 0.57,-0.72 0.87,-1.06 0.31,-0.35 0.70,-0.68 0.72,-1.21 0.02,-0.03 0.05,-0.07 0.05,-0.14 z m -6.94,0.13 c 0.16,0.01 0.35,0.18 0.43,0.35 0.23,0.05 0.16,-0.19 0.34,-0.19 0.10,0.18 0.26,0.31 0.34,0.53 0.09,-0.02 0.08,-0.13 0.24,-0.09 -0.08,0.31 -0.17,0.62 -0.48,0.72 -0.04,-0.21 0.00,-0.47 -0.05,-0.77 -0.30,-0.00 0.04,0.54 -0.14,0.73 -0.49,-0.01 -0.16,-0.57 -0.48,-0.77 -0.13,0.11 0.19,0.35 0,0.53 -0.15,-0.00 -0.45,-0.12 -0.58,0 0.26,0.08 0.68,0.02 0.82,0.24 -0.21,0.24 -0.49,-0.06 -0.82,-0.10 -0.11,-0.01 -0.25,0.01 -0.39,0 -0.03,-0.15 0.20,-0.31 0.15,-0.53 0.22,-0.05 0.41,0.08 0.53,0 0.04,-0.18 -0.11,-0.17 -0.14,-0.29 0.01,-0.26 0.11,-0.36 0.24,-0.35 z m 4.18,0.24 c 0.23,-0.01 0.53,0.34 0.66,0.49 -0.04,0.20 0.11,0.59 -0.14,0.58 0.05,-0.60 -0.30,-0.79 -0.72,-0.92 0.05,-0.10 0.12,-0.15 0.20,-0.15 z m -0.44,0.25 c 0.27,0.07 0.61,0.08 0.72,0.33 -0.10,0.08 -0.35,0.03 -0.53,0.05 0.03,-0.14 -0.04,-0.17 -0.04,-0.29 -0.10,-0.02 -0.09,0.06 -0.10,0.14 -0.12,-0.00 -0.11,-0.17 -0.04,-0.24 z m 1.74,0.29 c 0.02,0.09 -0.06,0.29 0.10,0.24 0.00,-0.12 -0.02,-0.19 -0.10,-0.24 z M 26.34,26.37 c 0.06,0.00 0.15,0.02 0.20,0.00 -0.02,0.10 -0.24,0.02 -0.34,0.05 0.01,-0.05 0.06,-0.06 0.13,-0.05 z m -0.91,0.10 c 0.16,0.09 0.23,0.28 0.24,0.53 -0.19,-0.06 -0.22,-0.30 -0.24,-0.53 z m 0.77,0.10 0.68,0 c -0.02,0.14 -0.10,0.24 -0.14,0.38 -0.14,-0.06 -0.37,-0.04 -0.58,-0.04 -0.11,-0.11 0.09,-0.15 0.05,-0.34 z m -2.08,0.05 c 0.23,-0.01 0.49,0.04 0.58,0.18 -0.50,-0.15 -0.51,0.35 -0.87,0.19 -0.13,0.01 -0.11,0.17 -0.19,0.24 -0.23,0.04 -0.27,-0.11 -0.34,-0.24 -0.21,-0.00 -0.47,0.01 -0.48,-0.19 0.33,0.05 0.68,-0.16 0.87,0.05 -0.01,-0.14 0.19,-0.22 0.43,-0.24 z m 2.86,0.18 0.24,0 c -0.15,0.13 -0.12,0.48 -0.14,0.63 -0.22,-0.05 -0.12,-0.43 -0.09,-0.63 z m -0.51,0.23 c 0.06,-0.00 0.14,0.01 0.22,0.05 0.05,0.15 0.13,0.29 0.14,0.48 -0.21,-10e-4 -0.27,0.14 -0.53,0.09 -0.08,-0.15 -0.08,-0.38 -0.33,-0.38 0.16,-0.06 0.29,-0.24 0.49,-0.25 z m -2.44,0.10 c 0.18,0.13 0.23,0.67 0.19,0.87 -0.20,-0.15 -0.17,-0.54 -0.19,-0.87 z m 1.45,0.04 c 0.03,-3.39e-4 0.06,0.00 0.10,0.00 0.22,0.09 0.16,0.81 -0.14,0.92 -0.12,0.04 -0.48,0.08 -0.43,-0.19 0.04,0.04 0.09,0.09 0.14,0.14 0.13,-0.05 0.08,-0.29 0.09,-0.48 0.10,-0.05 0.16,-0.16 0.29,-0.19 -0.12,-0.25 -0.29,0.07 -0.44,0.10 0.04,-0.17 0.16,-0.29 0.38,-0.29 z m -2.27,0.10 c 0.26,0.15 0.26,0.82 0.24,1.11 -0.27,-0.17 -0.13,-0.77 -0.24,-1.11 z m 3.76,0.33 c 0.07,0.00 0.12,0.02 0.16,0.05 -0.01,0.29 -0.26,0.35 -0.48,0.44 -0.01,-0.26 0.25,-0.23 0.24,-0.48 0.02,-0.00 0.05,-0.00 0.07,-0.00 z m 7.05,0.05 c -0.21,0.49 -0.24,1.04 -0.29,1.64 -0.02,0.31 -0.15,0.61 -0.18,0.92 -0.02,0.18 0.02,0.35 0,0.53 -0.05,0.35 -0.30,0.72 -0.10,1.01 0.26,-1.30 0.80,-2.59 0.73,-4.07 -0.06,-0.00 -0.06,-0.05 -0.14,-0.04 z M 25.91,27.98 c 0.23,0.16 -0.34,0.22 -0.19,0.62 -0.27,-0.17 0.03,-0.56 0.19,-0.62 z m -4.07,0.04 c 0.10,0.09 0.15,0.24 0.19,0.39 0.14,0.03 0.14,-0.08 0.29,-0.05 0.09,0.15 -0.03,0.27 0.09,0.43 -0.16,0.17 -0.17,0.50 -0.38,0.63 -0.01,0.47 -0.53,0.44 -0.73,0.72 0.14,0.01 0.18,-0.15 0.29,-0.05 -0.17,0.24 -0.05,0.78 -0.33,0.92 0.02,-0.12 0.05,-0.45 -0.14,-0.48 0.04,-0.19 0.07,-0.37 -0.10,-0.44 -0.02,-0.37 0.32,-0.38 0.39,-0.67 -0.02,-0.16 -0.22,-0.16 -0.14,-0.43 0.42,-0.01 0.46,0.34 0.77,0.43 -0.07,-0.42 -0.12,-0.86 -0.24,-1.11 -0.18,0.28 0.13,0.48 0.10,0.77 -0.33,0.07 -0.40,-0.48 -0.77,-0.53 -0.00,0.13 0.13,0.11 0.18,0.18 -0.26,0.17 -0.47,0.39 -0.77,0.53 -0.01,-0.28 0.23,-0.28 0.09,-0.58 0.25,-0.15 0.58,-0.39 0.92,-0.19 0.08,-0.16 0.01,-0.49 0.29,-0.48 z m 4.52,0.03 c 0.04,9.9e-5 0.08,0.00 0.13,0.01 0.12,0.28 -0.12,0.48 -0.43,0.48 -0.08,-0.20 0.01,-0.50 0.30,-0.50 z m -3.79,0.06 c 0.20,0.14 0.31,0.13 0.58,0.04 -0.19,0.43 0.55,0.26 0.43,0.77 -0.13,0.04 -0.12,-0.07 -0.24,-0.05 -0.01,0.20 0.14,0.24 0.09,0.48 -0.09,0.11 -0.24,0.17 -0.29,0.34 -0.13,0.03 -0.09,-0.09 -0.18,-0.09 -0.12,0.39 -0.24,0.79 -0.58,0.96 -0.18,0.05 -0.13,-0.11 -0.29,-0.09 -0.16,0.21 -0.29,0.39 -0.53,0.43 -0.11,-0.16 0.06,-0.45 0.09,-0.63 0.12,0.01 0.04,0.24 0.14,0.29 0.11,-0.28 -0.20,-0.70 0.24,-0.77 0.06,0.15 0.11,0.34 0.09,0.58 0.23,-0.16 -0.06,-0.51 0,-0.82 0.17,-0.02 0.23,0.05 0.34,0.09 0.19,-0.21 0.37,-0.42 0.82,-0.38 0.04,-0.17 -0.19,-0.06 -0.29,-0.09 -0.08,-0.18 -0.04,-0.48 0.05,-0.63 -0.23,-0.08 -0.16,0.55 -0.24,0.77 -0.11,0.07 -0.27,0.10 -0.38,0.18 -0.13,-0.12 0.19,-0.19 0.19,-0.33 0.04,-0.39 -0.32,-0.74 -0.05,-1.06 z m 1.77,0.01 c 0.05,0.00 0.10,0.01 0.16,0.02 0.34,0.39 -0.02,1.03 -0.38,1.02 -0.57,-0.01 -0.56,-1.09 0.22,-1.04 z m 0.45,0.02 c 0.04,0.03 0.11,0.05 0.19,0.05 0.08,0.20 0.12,0.72 -0.24,0.63 0.11,-0.22 -0.08,-0.46 0.04,-0.68 z m -0.58,0.10 c -0.50,-0.02 -0.42,0.85 -0.04,0.72 -0.25,-0.17 0.00,-0.53 0.04,-0.72 z m 1.11,0.14 c 0.28,0.02 0.12,0.48 0.38,0.53 -0.34,0.27 -0.61,-0.20 -0.38,-0.53 z m 5.81,0.52 c 0.02,-6.32e-4 0.06,6.33e-4 0.10,0.00 -0.21,0.21 -0.67,0.34 -0.39,0.77 -0.03,-0.25 0.16,-0.53 0.43,-0.63 -0.07,0.26 -0.35,0.32 -0.29,0.72 0.14,-0.03 0.51,-0.16 0.73,0.05 -0.03,0.45 0.41,0.42 0.48,0.77 -0.27,0.06 0.00,0.20 -0.04,0.43 -0.22,-0.00 -0.22,-0.23 -0.39,-0.29 -0.31,0.28 -0.57,-0.14 -0.82,-0.24 -0.12,0.01 0.06,0.07 0,0.18 -0.40,0.03 -0.90,-0.17 -1.02,-0.58 0.50,-0.15 0.95,0.01 1.11,0.34 0.15,-0.11 -0.17,-0.14 -0.09,-0.34 0.34,0.06 0.54,0.26 0.77,0.43 0.06,-0.16 -0.34,-0.27 -0.44,-0.43 -0.07,-0.19 0.21,-0.01 0.19,-0.14 -0.28,-0.03 -0.77,0.09 -1.16,-0.05 -0.07,-0.26 0.17,-0.21 0.19,-0.38 -0.21,-0.12 -0.25,0.32 -0.39,0.43 -0.23,0.08 -0.61,0.03 -0.92,0.05 -0.02,-0.25 -0.25,-0.29 -0.29,-0.53 0.26,-0.15 0.51,-0.32 0.77,-0.48 0.29,0.32 -0.36,0.39 -0.38,0.72 0.00,0.12 0.16,0.09 0.29,0.09 0.20,-0.08 0.17,-0.39 0.33,-0.53 0.36,0.15 0.34,-0.29 0.58,-0.39 0.15,-0.02 0.13,0.12 0.18,0.19 0.15,-0.05 0.22,-0.19 0.43,-0.20 z m -7.61,0.10 0.18,0 c 0.01,0.17 0.01,0.33 -0.18,0.29 l 0,-0.29 z m 1.11,0 c 0.29,0.23 0.03,0.78 -0.43,0.67 -0.08,-0.15 -0.02,-0.31 0,-0.48 0.19,-0.01 0.31,-0.09 0.43,-0.18 z m -3.58,0.04 c 0.17,0.03 -0.00,0.15 0.05,0.34 -0.15,-0.00 -0.16,0.12 -0.34,0.09 0.01,-0.07 -0.04,-0.08 -0.05,-0.14 0.00,-0.20 0.24,-0.17 0.34,-0.29 z m 2.63,0.37 c 0.06,-0.00 0.14,0.00 0.22,0.01 0.42,0.32 0.03,1.10 -0.58,0.82 -0.16,-0.32 -0.11,-0.80 0.35,-0.84 z m -0.08,0.11 c -0.33,0.05 -0.37,0.69 0.06,0.63 0.05,-0.21 -0.18,-0.35 0,-0.63 -0.02,-0.00 -0.04,-0.00 -0.06,0 z m 5.30,0.09 c 0.03,0.16 -0.08,0.17 -0.19,0.19 0.09,0.10 0.30,-0.08 0.39,0.09 -0.03,0.30 -0.31,0.37 -0.29,0.73 -0.46,0.02 -0.65,0.49 -0.43,0.92 -0.09,0.09 -0.12,0.00 -0.24,0 0.02,0.11 0.07,0.21 0.05,0.38 -0.21,0.08 -0.35,0.13 -0.48,0.38 l -0.34,0 0,-0.33 c 0.42,-0.00 0.65,-0.22 0.63,-0.68 0.05,-0.20 0.26,-0.25 0.19,-0.58 0.38,-0.10 0.38,-0.59 0.24,-0.97 0.11,-0.09 0.27,-0.14 0.48,-0.14 z m -0.61,0.33 c 0.02,-6.7e-5 0.05,0.00 0.08,0.00 0.08,0.18 0.05,0.49 -0.10,0.58 -0.18,-0.10 -0.33,-0.24 -0.38,-0.48 0.15,-0.01 0.23,-0.10 0.40,-0.10 z m 1.01,0.17 c 0.46,-0.01 0.82,0.29 0.96,0.66 -0.44,0.19 -0.64,-0.24 -0.87,-0.43 -0.27,0.41 0.29,0.57 0.19,1.11 -0.29,0.01 -0.26,0.35 -0.39,0.53 -0.16,-0.10 -0.46,-0.06 -0.63,-0.24 -0.08,-0.08 -0.19,-0.46 -0.18,-0.53 0.00,-0.17 0.12,-0.41 0.38,-0.43 0.06,0.25 0.14,0.50 0.24,0.72 0.15,-0.11 -0.06,-0.26 -0.05,-0.39 0.09,-0.09 0.17,-0.01 0.29,0 -0.05,-0.14 -0.22,-0.16 -0.34,-0.24 -0.04,-0.35 0.10,-0.50 0.19,-0.72 0.06,-0.01 0.13,-0.02 0.20,-0.03 z m -1.46,0.12 c 0.20,0.18 0.36,0.63 0.10,0.87 -0.14,-0.19 -0.13,-0.06 -0.34,0 0.18,-0.30 -0.36,-0.10 -0.24,-0.48 -0.16,-0.03 -0.17,0.07 -0.18,0.18 0.03,0.17 0.16,0.25 0.33,0.29 -0.05,0.20 -0.23,-0.00 -0.38,0 -0.29,-0.54 0.22,-0.82 0.72,-0.87 z m -4.51,0.11 c 0.08,-0.00 0.18,0.01 0.29,0.08 -0.04,0.32 -0.20,0.53 -0.43,0.67 -0.39,-0.16 -0.24,-0.73 0.13,-0.75 z m -0.23,0.22 c -0.00,0.15 -0.11,0.31 0.09,0.34 0.06,-0.09 -0.03,-0.19 0.05,-0.34 l -0.14,0 z m 3.68,0.09 c 0.31,0.27 -0.09,0.59 -0.09,0.97 -0.31,0.05 -0.45,-0.06 -0.58,-0.19 0.11,-0.15 0.25,0.06 0.38,0.05 -0.00,-0.23 0.08,-0.64 0.29,-0.82 z m 4.02,0.14 c 0.20,-0.00 0.39,-0.01 0.48,0.10 0.02,0.32 -0.16,0.41 -0.38,0.48 -0.12,-0.12 -0.01,-0.33 -0.09,-0.58 z m -0.21,0.04 c 0.02,-7.94e-4 0.04,0.00 0.06,0.00 0.41,1.11 -1.22,1.07 -0.87,0.05 0.30,0.05 0.62,-0.05 0.80,-0.05 z m -7.83,0.10 c 0.18,0.05 0.22,0.26 0.43,0.29 -0.02,0.20 -0.05,0.39 -0.24,0.44 -6.06e-4,-0.12 0.02,-0.28 -0.10,-0.29 -0.41,-0.03 -0.30,0.43 -0.72,0.38 -0.03,-0.52 0.43,-0.53 0.63,-0.82 z m 4.16,0.14 c 0.26,0.10 0.39,0.36 0.82,0.29 -0.00,0.21 -0.25,0.19 -0.48,0.18 -0.05,-0.10 -0.16,-0.16 -0.19,-0.29 -0.19,0.21 0.14,0.31 0.14,0.48 -0.28,-0.03 -0.38,-0.41 -0.29,-0.68 z m -1.11,0.10 c 0.11,0.28 -0.13,0.61 -0.24,0.82 -0.25,-0.23 0.12,-0.64 0.24,-0.82 z m -3.15,0.38 c 0.17,0.01 0.09,0.29 0.29,0.29 -0.05,0.11 -0.03,0.29 -0.10,0.39 -0.15,0.01 -0.23,-0.05 -0.24,-0.19 -0.14,0.10 -0.54,0.16 -0.58,-0.09 0.28,-0.05 0.60,-0.07 0.62,-0.39 z m 6.89,0 c 0.08,-0.00 0.10,0.06 0.19,0.05 -0.10,0.10 -0.10,0.18 0,0.29 0.11,-0.01 0.02,-0.23 0.18,-0.19 0.15,0.24 -0.36,0.39 -0.53,0.19 0.01,-0.14 0.07,-0.24 0.14,-0.34 z m -3.39,0.14 c 0.08,-0.00 0.10,0.06 0.19,0.05 0.00,0.24 -0.06,0.42 -0.14,0.58 -0.14,-8.08e-4 -0.16,-0.12 -0.29,-0.14 0.08,-0.15 0.15,-0.33 0.24,-0.48 z m 0.76,0.08 c 0.16,0.00 0.19,0.14 0.35,0.15 0.09,0.45 -0.23,0.72 -0.58,0.58 0.03,-0.11 0.30,0.00 0.34,-0.10 -0.01,-0.16 -0.21,-0.14 -0.24,-0.29 4.04e-4,-0.12 -0.01,-0.27 0.05,-0.33 0.03,-0.00 0.05,-0.01 0.08,-0.01 z m -1.63,0.29 c 0.07,-0.00 0.17,0.01 0.24,0.00 0.03,0.31 0.22,0.18 0.48,0.29 -0.03,0.48 0.67,0.23 0.63,0.72 -0.35,-0.04 -0.73,-0.06 -0.82,-0.38 -0.21,0.04 -0.31,0.20 -0.39,0.38 -0.21,-0.11 -0.34,-0.55 -0.29,-0.77 0.31,0.01 0.33,0.31 0.58,0.39 -0.07,-0.29 -0.37,-0.36 -0.58,-0.53 0.00,-0.07 0.06,-0.09 0.14,-0.10 z m -3.24,0.04 c 0.21,0.01 0.18,0.26 0.32,0.34 0.09,-0.00 -0.07,-0.17 0.05,-0.24 0.26,-0.04 0.37,0.07 0.38,0.29 -0.19,0.06 -0.40,0.39 -0.58,0.19 -0.12,0.06 -0.02,0.36 -0.24,0.33 0.00,0.13 0.08,0.20 0.09,0.34 -0.29,-0.13 -0.36,0.08 -0.58,0.14 0.06,-0.24 0.14,-0.46 0.19,-0.72 0.14,-0.01 0.14,0.10 0.29,0.09 0.01,-0.19 -0.13,-0.21 -0.19,-0.33 0.02,-0.16 0.12,-0.26 0.14,-0.44 0.04,-0.00 0.07,-0.00 0.10,-0.00 z m 7.28,0.05 c 0.13,-0.01 0.26,0.04 0.22,0.20 -0.19,0.11 -0.28,-0.07 -0.53,-0.05 0.02,-0.07 0.16,-0.14 0.30,-0.15 z m 0.37,0.05 c 0.33,0.01 0.31,0.39 0.48,0.58 0.14,0.03 0.09,-0.13 0.24,-0.09 -0.01,0.52 0.21,0.84 -0.14,1.11 -0.02,0.30 0.25,0.49 0.14,0.72 -0.19,-0.30 -0.22,-0.78 -0.48,-1.01 0.17,-0.29 0.08,-0.79 -0.04,-1.06 -0.12,0.18 0.11,0.64 -0.05,0.87 -0.39,-0.12 -0.58,-0.44 -0.77,-0.77 -0.13,0.11 0.16,0.18 0.10,0.38 -0.28,0.03 -0.70,0.36 -0.87,0.19 -0.11,-0.01 0.02,0.22 -0.14,0.14 0.41,0.19 0.60,-0.23 1.06,-0.14 -0.02,0.24 -0.29,0.24 -0.38,0.43 0.25,-0.03 0.40,-0.17 0.48,-0.39 0.25,0.02 0.34,0.20 0.53,0.29 -0.09,0.29 -0.41,0.36 -0.77,0.39 0.35,0.19 0.65,-0.09 0.92,-0.14 0.02,0.15 0.15,0.20 0.14,0.38 -0.41,-0.14 -0.44,0.43 -0.96,0.34 -2.02e-4,-0.16 0.15,-0.16 0.14,-0.34 -0.20,-0.13 -0.44,0.25 -0.73,0.05 0.05,-0.13 0.11,-0.39 -0.14,-0.34 -0.03,-0.13 0.09,-0.09 0.14,-0.14 -0.13,-0.18 -0.46,-0.12 -0.62,-0.38 0.01,-0.20 0.29,-0.21 0.33,-0.34 0.02,-0.08 -0.17,-0.10 -0.04,-0.19 0.12,-0.02 0.17,0.01 0.14,0.14 0.03,-0.00 0.04,-0.04 0.09,-0.04 0.16,-0.07 -0.15,-0.15 0,-0.24 0.16,0.01 0.42,0.14 0.38,-0.14 0.28,-0.01 0.51,0.03 0.73,0.19 0.10,-0.07 0.01,-0.33 0.09,-0.43 z m -1.20,0.16 c 0.06,-0.00 0.12,-0.00 0.18,0.02 -0.11,0.18 -0.42,0.18 -0.58,0.34 -0.03,0.11 -0.02,0.21 -0.14,0.34 -0.19,-0.14 -0.64,-0.35 -0.82,-0.09 0.29,0.33 0.54,0.71 1.11,0.77 -0.05,0.26 -0.42,0.11 -0.63,0.14 -0.32,0.04 -0.71,0.18 -0.97,0.04 -0.13,-0.38 0.44,-0.64 0.14,-1.06 0.37,-0.13 0.81,-0.11 1.16,-0.24 0.19,-0.06 0.35,-0.24 0.53,-0.27 z m -3.59,0.02 c 0.13,-0.00 0.13,0.12 0.14,0.24 -0.05,0.04 -0.13,0.06 -0.24,0.05 0.01,-0.11 0.06,-0.20 0.10,-0.29 z m 6.54,0.24 c 0.14,0.04 -0.02,0.15 0,0.24 0.26,-0.04 0.40,-0.20 0.77,-0.14 -2.02e-4,0.27 -0.21,0.33 -0.29,0.53 0.14,0.17 0.22,-0.12 0.43,-0.05 0.05,0.07 0.17,0.20 0,0.24 0.07,0.16 0.28,0.21 0.29,0.44 -0.23,-0.00 -0.46,-0.01 -0.44,0.24 0.01,0.17 0.28,0.09 0.19,0.38 0.00,0.10 0.12,0.10 0.24,0.10 -0.07,0.29 0.07,0.43 -0.05,0.72 -0.15,0.04 -0.10,-0.12 -0.19,-0.14 -0.08,0.28 0.25,0.94 -0.24,1.01 -0.20,-0.10 -0.28,-0.32 -0.29,-0.63 -0.16,-0.03 -0.06,0.19 -0.24,0.14 0.00,-0.27 -0.02,-0.94 0.29,-1.06 0.11,0.28 0.09,0.72 0.19,1.02 0.16,-0.43 -0.11,-0.85 -0.19,-1.21 l 0.19,0 c 0.05,-0.12 -0.16,-0.21 -0.19,-0.10 -0.20,-0.16 -0.29,-0.44 -0.63,-0.48 0.03,-0.34 0.49,-0.28 0.77,-0.39 -0.26,-0.17 -0.77,-0.03 -0.82,0.29 -0.26,-0.05 -0.33,0.08 -0.53,0.10 -0.04,-0.34 -0.15,-0.62 -0.14,-1.02 0.18,-0.07 0.09,0.13 0.24,0.10 0.08,-0.30 0.39,-0.30 0.63,-0.34 z m 5.23,0.14 c 0.57,0.75 0.06,1.95 -0.09,2.71 -0.98,0.34 -1.42,1.22 -2.62,1.35 0.35,-0.33 0.90,-0.45 1.30,-0.77 0.35,-0.28 0.59,-0.67 0.92,-0.96 0.13,-0.08 0.34,-0.11 0.43,-0.24 -0.00,-0.51 -0.13,-1.50 0.05,-2.08 z m -11.70,0.04 c 0.07,0.00 0.14,0.03 0.20,0.10 -0.01,0.16 -0.14,0.20 -0.29,0.24 -0.10,0.07 -0.08,0.27 -0.24,0.29 -0.34,-0.20 0.01,-0.65 0.32,-0.63 z m 0.76,0 c 0.14,0.01 0.14,0.16 0.26,0.19 -0.06,0.14 -0.11,0.30 -0.24,0.39 -0.29,-0.02 -0.17,-0.41 -0.09,-0.58 0.02,-0.00 0.04,-0.00 0.06,-0.00 z m 5.31,0.05 c -0.07,0.21 -0.30,0.73 0,0.87 0.11,-0.11 -0.09,-0.15 -0.05,-0.34 0.02,-0.12 0.24,-0.50 0.05,-0.53 z m -3.63,0.10 c 0.08,0.01 0.18,0.25 0.29,0.09 0.16,0.14 0.20,0.40 0.48,0.43 -0.31,0.24 -0.70,-0.21 -0.77,-0.53 z m -6.00,0.03 c 0.03,4e-6 0.05,-10e-4 0.08,0.00 0.03,0.37 -0.45,0.22 -0.48,0.53 -0.13,-8.09e-4 -0.11,-0.22 -0.04,-0.29 -0.12,-0.10 -0.44,-0.01 -0.43,-0.24 0.26,0.13 0.65,-0.00 0.88,-0.00 z m 3.79,0.15 c 0.13,-0.01 0.30,0.05 0.31,0.18 -0.21,0.03 -0.27,-0.08 -0.48,-0.05 0.01,-0.08 0.08,-0.12 0.17,-0.13 z m 1.29,0.08 c 0.02,-0.00 0.05,-0.00 0.08,0.00 0.16,0.52 -0.69,0.63 -0.68,0.18 0.16,-0.03 0.05,0.19 0.24,0.14 0.07,-0.06 0.05,-0.23 0.14,-0.29 0.11,0.02 0.14,-0.03 0.20,-0.05 z m -2.14,0.19 c 0.16,0.01 0.19,0.16 0.24,0.29 -0.14,0.05 -0.16,0.01 -0.29,-0.05 -0.01,-0.11 0.00,-0.18 0.04,-0.24 z m 0.68,0.05 c 0.61,-0.02 0.39,0.88 -0.19,0.72 -0.01,-0.14 0.15,-0.10 0.24,-0.14 -0.07,-0.24 0.01,-0.35 -0.04,-0.58 z m 0.43,0 c 0.15,0.05 0.12,-0.01 0.24,0.05 0.03,0.22 -0.32,0.17 -0.24,-0.05 z m 5.67,0.43 c 0.05,0.05 0.05,0.17 0.05,0.29 0.10,-0.01 0.01,-0.21 0.14,-0.18 0.43,0.05 0.52,0.52 0.29,0.87 -0.30,-0.17 -0.39,-0.57 -0.63,-0.82 -0.23,0.49 0.55,0.67 0.58,1.21 -0.60,-0.04 -0.55,-0.73 -1.06,-0.87 -0.22,-0.50 0.24,-0.37 0.62,-0.48 z m -5.18,0.05 0.33,0 c 0.15,0.70 -0.90,0.77 -0.77,0.05 0.16,0.03 0.11,0.26 0.29,0.29 0.12,-0.03 0.06,-0.25 0.14,-0.34 z m 0.43,0.05 c 0.19,-0.02 0.05,0.26 0.09,0.38 -0.15,-0.01 -0.07,-0.23 -0.09,-0.38 z m -3.78,0.04 c 0.40,0.32 -0.05,1.03 0.09,1.69 -0.20,-0.19 -0.18,-0.70 -0.38,-0.96 0.05,-0.28 0.21,-0.47 0.29,-0.73 z m 5.87,0.13 c 0.26,-0.00 0.49,0.06 0.67,0.29 0.44,0.07 0.51,-0.22 0.82,-0.29 0.04,0.35 -0.09,0.52 -0.14,0.77 -0.59,-0.14 -0.87,-0.60 -1.59,-0.63 0.23,0.26 0.67,0.32 0.77,0.73 -0.07,0.00 -0.18,-0.02 -0.19,0.04 0.15,0.31 0.45,0.48 0.63,0.77 -0.87,-0.22 -1.43,-0.76 -2.33,-0.96 -0.04,-0.16 -0.06,-0.35 -0.09,-0.53 0.50,0.01 1.02,-0.19 1.45,-0.20 z m -1.89,0.00 c 0.21,0.14 0.28,0.42 0.29,0.77 -0.20,-0.14 -0.32,-0.38 -0.29,-0.77 z m 3.53,0 c 0.26,0.18 0.09,0.81 0.14,1.21 0.04,0.15 -0.15,0.06 -0.19,0.14 0.11,0.30 0.00,0.59 -0.09,0.82 -0.08,0.00 -0.10,-0.06 -0.19,-0.05 0.09,0.18 -0.04,0.35 -0.09,0.53 -0.36,-1.08 0.36,-1.61 0.43,-2.67 z m -4.86,0.05 c 0.03,-0.00 0.07,-0.00 0.11,0 0.12,0.26 0.09,0.60 -0.10,0.77 -0.11,-0.06 0.05,-0.40 -0.24,-0.29 -0.05,-0.16 -0.00,-0.44 0.22,-0.48 z m 5.20,0.34 c 0.15,0.00 0.11,0.35 0.05,0.43 -0.14,-0.06 -0.18,-0.34 -0.05,-0.43 z m -4.41,0.14 c 0.01,0.14 -0.13,0.57 0.14,0.67 0.11,-0.19 -0.04,-0.65 0.24,-0.67 0.45,0.16 0.22,1.05 -0.38,0.87 -0.12,-0.29 -0.19,-0.60 0,-0.87 z m 4.56,0 c 0.39,-0.05 0.85,0.79 0.53,1.16 -0.13,0.03 -0.09,-0.09 -0.18,-0.09 -0.05,0.15 0.00,0.49 -0.14,0.67 -0.17,0.03 -0.12,-0.16 -0.19,-0.24 -0.16,0.35 -0.50,0.53 -0.82,0.72 -0.04,-0.22 0.12,-0.23 0.10,-0.43 0.32,0.05 0.25,-0.58 0.53,-0.29 -0.09,-0.26 0.10,-0.41 0.19,-0.63 0.15,-0.04 0.06,0.15 0.19,0.14 -0.14,-0.26 -0.12,-0.67 -0.19,-1.01 z m -6.49,0.19 c 0.07,-0.01 0.08,0.04 0.14,0.04 0.22,0.37 0.30,0.82 0.48,1.21 0.10,0.22 0.33,0.39 0.29,0.68 -0.32,-0.60 -0.80,-1.28 -0.92,-1.93 z m 1.06,0.15 c 0.00,-0.01 0.02,0.33 -0.05,0.46 -0.21,-0.02 -0.20,-0.28 -0.34,-0.38 0.03,-0.23 0.25,0.15 0.39,-0.05 2.02e-4,-0.01 -9.66e-4,-0.02 0,-0.03 z m 0.52,0.01 c 0.03,1.82e-4 0.07,0.00 0.10,0.01 -0.04,0.23 0.13,0.41 0,0.58 l -0.19,0 c -0.09,-0.09 -0.03,-0.27 0,-0.38 -0.09,-0.09 -0.20,0.03 -0.24,0.14 -0.12,-0.17 0.08,-0.35 0.32,-0.35 z m 1.55,0.00 c 0.07,0.00 0.11,0.05 0.20,0.05 0.48,0.62 -0.43,1.58 -0.68,0.53 0.19,0.03 0.11,0.34 0.43,0.24 -0.08,-0.22 -0.25,-0.59 -0.04,-0.82 0.03,-0.00 0.06,-0.00 0.08,-0.00 z m 3.20,0.00 c 0.05,-0.00 0.08,0.01 0.09,0.05 0.04,0.43 -0.13,0.63 -0.33,0.82 0.04,-0.32 0.15,-0.58 0.24,-0.87 z m -2.52,0.24 c 0.44,0.28 1.00,0.45 1.50,0.67 -0.03,0.23 0.05,0.33 0.04,0.53 -0.50,-0.11 -0.82,-0.40 -1.16,-0.73 -0.15,-0.14 -0.31,-0.28 -0.38,-0.48 z m 7.51,0 c 0.17,0.00 -0.22,0.31 -0.34,0.38 -0.05,0.03 -0.19,0.09 -0.29,0.14 -0.22,0.11 -0.46,0.18 -0.82,0.19 0.45,-0.27 1.05,-0.39 1.45,-0.72 z m -8.98,0.32 c 0.04,-0.00 0.09,-0.00 0.15,0.01 0.20,0.31 -0.04,0.55 -0.14,0.82 -0.38,0.30 -0.85,-0.18 -0.63,-0.63 0.07,0.21 0.08,0.70 0.34,0.58 0.06,-0.18 -0.01,-0.74 0.28,-0.78 z m 9.85,0.20 c -0.18,0.43 -0.32,0.89 -0.82,1.01 -0.21,0.52 -0.53,0.95 -0.77,1.45 -0.01,0.11 0.13,0.05 0.14,0.14 -0.11,0.82 -0.48,1.39 -0.92,1.88 -0.06,0.72 -0.70,1.29 -1.01,1.94 -0.26,-0.27 -0.03,-0.68 -0.10,-1.02 -0.06,-0.35 -0.37,-0.51 -0.38,-0.87 0.63,0.03 0.47,-0.47 0.77,-0.72 -0.12,-0.38 -0.59,-0.41 -0.87,-0.63 -0.26,-0.19 -0.44,-0.50 -0.67,-0.72 0.14,-0.25 0.37,0.06 0.63,0 0.26,-0.19 0.66,-0.24 0.96,-0.39 -0.04,-0.32 -0.77,-0.20 -0.96,-0.09 0.18,-0.25 0.36,-0.51 0.48,-0.82 0.27,0.26 0.69,0.20 1.11,0.24 0.10,0.00 0.15,-0.03 0.14,-0.14 0.14,-0.03 0.09,0.13 0.24,0.09 0.77,-0.35 1.10,-1.15 2.03,-1.35 z m -10.71,0.24 c 0.11,0.04 0.15,0.16 0.14,0.33 -0.17,-0.00 -0.33,-0.24 -0.14,-0.33 z m 6.40,0.09 c 0.35,0.17 0.70,0.56 0.53,1.11 -0.15,-0.02 -0.21,-0.14 -0.34,-0.19 -0.13,0.05 -0.26,0.11 -0.33,0.24 0.03,0.20 0.23,0.25 0.24,0.48 -0.61,0.14 -0.89,0.08 -1.59,0.05 -0.22,-0.01 -0.16,0.25 -0.34,0.29 -0.12,-0.13 0.03,-0.28 0.09,-0.39 0.72,-0.06 1.11,0.19 1.60,-0.04 -0.51,-0.32 -1.30,-0.25 -1.98,-0.48 l 0,-0.24 c 0.48,0.03 0.97,0.30 1.45,0.19 -0.17,-0.31 -0.80,-0.16 -1.01,-0.43 0.49,-0.63 1.27,0.13 2.08,0.14 -0.06,-0.30 -0.37,-0.36 -0.38,-0.72 z m -3.21,0.55 c 0.39,10e-4 0.73,0.07 0.78,0.36 -0.46,-0.05 -1.28,-0.17 -1.94,-0.19 -0.00,-0.05 0.01,-0.08 0.05,-0.09 0.27,-0.00 0.71,-0.07 1.10,-0.07 z m -1.39,0.07 0.09,0 0,0.09 -0.09,0 0,-0.09 z m 4.76,0.44 c 0.10,-0.00 0.18,0.06 0.17,0.22 -0.06,0.06 -0.22,0.06 -0.29,0 l 0,-0.18 c 0.03,-0.01 0.07,-0.03 0.11,-0.03 z m -1.18,0.71 0.29,0 c 0.00,0.15 -0.33,0.21 -0.29,0 z m -3.87,0.43 c 0.05,0.10 0.23,0.08 0.19,0.29 -0.05,-0.10 -0.18,-0.13 -0.19,-0.29 z m 6.54,3.26 c 0.17,-0.02 0.40,0.16 0.34,0.42 -0.16,-0.09 -0.32,-0.19 -0.53,-0.24 0.03,-0.11 0.10,-0.16 0.18,-0.17 z m -0.33,0.37 c 0.08,0.20 0.25,0.54 0.14,0.77 -0.23,-0.05 -0.28,-0.29 -0.48,-0.38 0.09,-0.14 0.09,-0.39 0.34,-0.39 z m -10.04,2.28 c 0.10,0.13 0.09,0.28 0.05,0.43 -0.11,-0.05 -0.02,-0.30 -0.05,-0.43 z" />
</svg>
