<?xml version="1.0" encoding="UTF-8" standalone="no"?>
<svg xmlns:svg="http://www.w3.org/2000/svg" xmlns="http://www.w3.org/2000/svg" version="1.0" width="100%" height="100%" viewBox="0 0 160 90" id="abacus">

<defs>
<style>
    svg#abacus text        { font-size:10px;text-anchor:middle;font-weight:bold;fill:#332920; }
    svg#abacus text.err    { fill:red; }
    svg#abacus .b          { fill:#663020;stroke:#160903;stroke-width:0.5;cursor:move; }
    svg#abacus .g          { fill:#306620; }
    svg#abacus .b.tgt      { fill:yellow; }
    svg#abacus .b.up.tgt   { fill:yellow; }
    svg#abacus .b.up       { fill:gray; }

    svg#abacus .b.m        { fill:red; }
</style>
</defs>
<g transform="translate(6,3)">

<path d="M 14.343,18.718 L 14.343,76.281 L 15.656,76.281 L 15.656,18.718 L 14.343,18.718 z M 24.343,18.718 L 24.343,76.281 L 25.656,76.281 L 25.656,18.718 L 24.343,18.718 z M 34.343,18.718 L 34.343,76.281 L 35.656,76.281 L 35.656,18.718 L 34.343,18.718 z M 44.343,18.718 L 44.343,76.281 L 45.656,76.281 L 45.656,18.718 L 44.343,18.718 z M 54.343,18.718 L 54.343,76.281 L 55.656,76.281 L 55.656,18.718 L 54.343,18.718 z M 64.343,18.718 L 64.343,76.281 L 65.656,76.281 L 65.656,18.718 L 64.343,18.718 z M 74.343,18.718 L 74.343,76.281 L 75.656,76.281 L 75.656,18.718 L 74.343,18.718 z M 84.343,18.718 L 84.343,76.281 L 85.656,76.281 L 85.656,18.718 L 84.343,18.718 z M 94.343,18.718 L 94.343,76.281 L 95.656,76.281 L 95.656,18.718 L 94.343,18.718 z M 104.343,18.718 L 104.343,76.281 L 105.656,76.281 L 105.656,18.718 L 104.343,18.718 z M 114.343,18.718 L 114.343,76.281 L 115.656,76.281 L 115.656,18.718 L 114.343,18.718 z M 124.343,18.718 L 124.343,76.281 L 125.656,76.281 L 125.656,18.718 L 124.343,18.718 z M 134.343,18.718 L 134.343,76.281 L 135.656,76.281 L 135.656,18.718 L 134.343,18.718 z" style="fill:#e1a656;fill-opacity:1;stroke:#632d10;stroke-width:0.5;"/>

<path transform="translate(-6,-3)" d="M 14.90,21 C 14.39,21.048 14,21.482 14,22 l 0,57 c 0,0.552 0.447,1 1,1 l 132,0 c 0.552,-0.001 1,-0.448 1,-1 l 0,-57 c -0.001,-0.553 -0.448,-1 -1,-1 L 15,21 c -0.032,-0.002 -0.06275,0 -0.09375,0 z M 16,23 l 130,0 0,55 -130,0 z" style="fill:#332920;fill-opacity:1;stroke:#160903;stroke-width:0.5;stroke-linejoin:round;"/>


<g transform="translate(15,5)" id="val0" class="val">
    <text id="a12" transform="translate(0,0)"></text>
    <text id="a11" transform="translate(10,0)"></text>
    <text id="a10" transform="translate(20,0)"></text>
    <text id="a9" transform="translate(30,0)"></text>
    <text id="a8" transform="translate(40,0)"></text>
    <text id="a7" transform="translate(50,0)"></text>
    <text id="a6" transform="translate(60,0)"></text>
    <text id="a5" transform="translate(70,0)"></text>
    <text id="a4" transform="translate(80,0)"></text>
    <text id="a3" transform="translate(90,0)"></text>
    <text id="a2" transform="translate(100,0)"></text>
    <text id="a1" transform="translate(110,0)"></text>
    <text id="a0" transform="translate(120,0)"></text>
</g>

<g transform="translate(15,15)" id="val1" class="val">
    <text id="op" transform="translate(-10,0)"></text>
    <text id="b12" transform="translate(0,0)"></text>
    <text id="b11" transform="translate(10,0)"></text>
    <text id="b10" transform="translate(20,0)"></text>
    <text id="b9" transform="translate(30,0)"></text>
    <text id="b8" transform="translate(40,0)"></text>
    <text id="b7" transform="translate(50,0)"></text>
    <text id="b6" transform="translate(60,0)"></text>
    <text id="b5" transform="translate(70,0)"></text>
    <text id="b4" transform="translate(80,0)"></text>
    <text id="b3" transform="translate(90,0)"></text>
    <text id="b2" transform="translate(100,0)"></text>
    <text id="b1" transform="translate(110,0)"></text>
    <text id="b0" transform="translate(120,0)"></text>
</g>

<g transform="translate(15,86)" id="val2" class="val">
    <text id="c12" transform="translate(0,0)"></text>
    <text id="c11" transform="translate(10,0)"></text>
    <text id="c10" transform="translate(20,0)"></text>
    <text id="c9" transform="translate(30,0)"></text>
    <text id="c8" transform="translate(40,0)"></text>
    <text id="c7" transform="translate(50,0)"></text>
    <text id="c6" transform="translate(60,0)"></text>
    <text id="c5" transform="translate(70,0)"></text>
    <text id="c4" transform="translate(80,0)"></text>
    <text id="c3" transform="translate(90,0)"></text>
    <text id="c2" transform="translate(100,0)"></text>
    <text id="c1" transform="translate(110,0)"></text>
    <text id="c0" transform="translate(120,0)"></text>
</g>

<g id="c0" transform="translate(131,0)">
    <rect width="8" height="4" ry="1.5" x="0" y="34" id="e01" class="b"/>
    <rect width="8" height="4" ry="1.5" x="0" y="38" id="e02" class="b"/>
    <rect width="8" height="4" ry="1.5" x="0" y="42" id="e03" class="b"/>
    <rect width="8" height="4" ry="1.5" x="0" y="46" id="e04" class="b"/>
    <rect width="8" height="4" ry="1.5" x="0" y="50" id="e05" class="b"/>
    <rect width="8" height="4" ry="1.5" x="0" y="54" id="e06" class="b g"/>
    <rect width="8" height="4" ry="1.5" x="0" y="58" id="e07" class="b g"/>
    <rect width="8" height="4" ry="1.5" x="0" y="62" id="e08" class="b g"/>
    <rect width="8" height="4" ry="1.5" x="0" y="66" id="e09" class="b g"/>
    <rect width="8" height="4" ry="1.5" x="0" y="70" id="e0a" class="b g"/>
</g>
<g id="c1" transform="translate(121,0)">
    <rect width="8" height="4" ry="1.5" x="0" y="34" id="e11" class="b"/>
    <rect width="8" height="4" ry="1.5" x="0" y="38" id="e12" class="b"/>
    <rect width="8" height="4" ry="1.5" x="0" y="42" id="e13" class="b"/>
    <rect width="8" height="4" ry="1.5" x="0" y="46" id="e14" class="b"/>
    <rect width="8" height="4" ry="1.5" x="0" y="50" id="e15" class="b"/>
    <rect width="8" height="4" ry="1.5" x="0" y="54" id="e16" class="b g"/>
    <rect width="8" height="4" ry="1.5" x="0" y="58" id="e17" class="b g"/>
    <rect width="8" height="4" ry="1.5" x="0" y="62" id="e18" class="b g"/>
    <rect width="8" height="4" ry="1.5" x="0" y="66" id="e19" class="b g"/>
    <rect width="8" height="4" ry="1.5" x="0" y="70" id="e1a" class="b g"/>
</g>
<g id="c2" transform="translate(111,0)">
    <rect width="8" height="4" ry="1.5" x="0" y="34" id="e21" class="b"/>
    <rect width="8" height="4" ry="1.5" x="0" y="38" id="e22" class="b"/>
    <rect width="8" height="4" ry="1.5" x="0" y="42" id="e23" class="b"/>
    <rect width="8" height="4" ry="1.5" x="0" y="46" id="e24" class="b"/>
    <rect width="8" height="4" ry="1.5" x="0" y="50" id="e25" class="b"/>
    <rect width="8" height="4" ry="1.5" x="0" y="54" id="e26" class="b g"/>
    <rect width="8" height="4" ry="1.5" x="0" y="58" id="e27" class="b g"/>
    <rect width="8" height="4" ry="1.5" x="0" y="62" id="e28" class="b g"/>
    <rect width="8" height="4" ry="1.5" x="0" y="66" id="e29" class="b g"/>
    <rect width="8" height="4" ry="1.5" x="0" y="70" id="e2a" class="b g"/>
</g>
<g id="c3" transform="translate(101,0)">
    <rect width="8" height="4" ry="1.5" x="0" y="34" id="e31" class="b"/>
    <rect width="8" height="4" ry="1.5" x="0" y="38" id="e32" class="b"/>
    <rect width="8" height="4" ry="1.5" x="0" y="42" id="e33" class="b"/>
    <rect width="8" height="4" ry="1.5" x="0" y="46" id="e34" class="b"/>
    <rect width="8" height="4" ry="1.5" x="0" y="50" id="e35" class="b"/>
    <rect width="8" height="4" ry="1.5" x="0" y="54" id="e36" class="b g"/>
    <rect width="8" height="4" ry="1.5" x="0" y="58" id="e37" class="b g"/>
    <rect width="8" height="4" ry="1.5" x="0" y="62" id="e38" class="b g"/>
    <rect width="8" height="4" ry="1.5" x="0" y="66" id="e39" class="b g"/>
    <rect width="8" height="4" ry="1.5" x="0" y="70" id="e3a" class="b g"/>
</g>
<g id="c4" transform="translate(91,0)">
    <rect width="8" height="4" ry="1.5" x="0" y="34" id="e41" class="b"/>
    <rect width="8" height="4" ry="1.5" x="0" y="38" id="e42" class="b"/>
    <rect width="8" height="4" ry="1.5" x="0" y="42" id="e43" class="b"/>
    <rect width="8" height="4" ry="1.5" x="0" y="46" id="e44" class="b"/>
    <rect width="8" height="4" ry="1.5" x="0" y="50" id="e45" class="b"/>
    <rect width="8" height="4" ry="1.5" x="0" y="54" id="e46" class="b g"/>
    <rect width="8" height="4" ry="1.5" x="0" y="58" id="e47" class="b g"/>
    <rect width="8" height="4" ry="1.5" x="0" y="62" id="e48" class="b g"/>
    <rect width="8" height="4" ry="1.5" x="0" y="66" id="e49" class="b g"/>
    <rect width="8" height="4" ry="1.5" x="0" y="70" id="e4a" class="b g"/>
</g>
<g id="c5" transform="translate(81,0)">
    <rect width="8" height="4" ry="1.5" x="0" y="34" id="e51" class="b"/>
    <rect width="8" height="4" ry="1.5" x="0" y="38" id="e52" class="b"/>
    <rect width="8" height="4" ry="1.5" x="0" y="42" id="e53" class="b"/>
    <rect width="8" height="4" ry="1.5" x="0" y="46" id="e54" class="b"/>
    <rect width="8" height="4" ry="1.5" x="0" y="50" id="e55" class="b"/>
    <rect width="8" height="4" ry="1.5" x="0" y="54" id="e56" class="b g"/>
    <rect width="8" height="4" ry="1.5" x="0" y="58" id="e57" class="b g"/>
    <rect width="8" height="4" ry="1.5" x="0" y="62" id="e58" class="b g"/>
    <rect width="8" height="4" ry="1.5" x="0" y="66" id="e59" class="b g"/>
    <rect width="8" height="4" ry="1.5" x="0" y="70" id="e5a" class="b g"/>
</g>
<g id="c6" transform="translate(71,0)">
    <rect width="8" height="4" ry="1.5" x="0" y="34" id="e61" class="b"/>
    <rect width="8" height="4" ry="1.5" x="0" y="38" id="e62" class="b"/>
    <rect width="8" height="4" ry="1.5" x="0" y="42" id="e63" class="b"/>
    <rect width="8" height="4" ry="1.5" x="0" y="46" id="e64" class="b"/>
    <rect width="8" height="4" ry="1.5" x="0" y="50" id="e65" class="b"/>
    <rect width="8" height="4" ry="1.5" x="0" y="54" id="e66" class="b g"/>
    <rect width="8" height="4" ry="1.5" x="0" y="58" id="e67" class="b g"/>
    <rect width="8" height="4" ry="1.5" x="0" y="62" id="e68" class="b g"/>
    <rect width="8" height="4" ry="1.5" x="0" y="66" id="e69" class="b g"/>
    <rect width="8" height="4" ry="1.5" x="0" y="70" id="e6a" class="b g"/>
</g>
<g id="c7" transform="translate(61,0)">
    <rect width="8" height="4" ry="1.5" x="0" y="34" id="e71" class="b"/>
    <rect width="8" height="4" ry="1.5" x="0" y="38" id="e72" class="b"/>
    <rect width="8" height="4" ry="1.5" x="0" y="42" id="e73" class="b"/>
    <rect width="8" height="4" ry="1.5" x="0" y="46" id="e74" class="b"/>
    <rect width="8" height="4" ry="1.5" x="0" y="50" id="e75" class="b"/>
    <rect width="8" height="4" ry="1.5" x="0" y="54" id="e76" class="b g"/>
    <rect width="8" height="4" ry="1.5" x="0" y="58" id="e77" class="b g"/>
    <rect width="8" height="4" ry="1.5" x="0" y="62" id="e78" class="b g"/>
    <rect width="8" height="4" ry="1.5" x="0" y="66" id="e79" class="b g"/>
    <rect width="8" height="4" ry="1.5" x="0" y="70" id="e7a" class="b g"/>
</g>
<g id="c8" transform="translate(51,0)">
    <rect width="8" height="4" ry="1.5" x="0" y="34" id="e81" class="b"/>
    <rect width="8" height="4" ry="1.5" x="0" y="38" id="e82" class="b"/>
    <rect width="8" height="4" ry="1.5" x="0" y="42" id="e83" class="b"/>
    <rect width="8" height="4" ry="1.5" x="0" y="46" id="e84" class="b"/>
    <rect width="8" height="4" ry="1.5" x="0" y="50" id="e85" class="b"/>
    <rect width="8" height="4" ry="1.5" x="0" y="54" id="e86" class="b g"/>
    <rect width="8" height="4" ry="1.5" x="0" y="58" id="e87" class="b g"/>
    <rect width="8" height="4" ry="1.5" x="0" y="62" id="e88" class="b g"/>
    <rect width="8" height="4" ry="1.5" x="0" y="66" id="e89" class="b g"/>
    <rect width="8" height="4" ry="1.5" x="0" y="70" id="e8a" class="b g"/>
</g>
<g id="c9" transform="translate(41,0)">
    <rect width="8" height="4" ry="1.5" x="0" y="34" id="e91" class="b"/>
    <rect width="8" height="4" ry="1.5" x="0" y="38" id="e92" class="b"/>
    <rect width="8" height="4" ry="1.5" x="0" y="42" id="e93" class="b"/>
    <rect width="8" height="4" ry="1.5" x="0" y="46" id="e94" class="b"/>
    <rect width="8" height="4" ry="1.5" x="0" y="50" id="e95" class="b"/>
    <rect width="8" height="4" ry="1.5" x="0" y="54" id="e96" class="b g"/>
    <rect width="8" height="4" ry="1.5" x="0" y="58" id="e97" class="b g"/>
    <rect width="8" height="4" ry="1.5" x="0" y="62" id="e98" class="b g"/>
    <rect width="8" height="4" ry="1.5" x="0" y="66" id="e99" class="b g"/>
    <rect width="8" height="4" ry="1.5" x="0" y="70" id="e9a" class="b g"/>
</g>
<g id="c10" transform="translate(31,0)">
    <rect width="8" height="4" ry="1.5" x="0" y="34" id="e101" class="b"/>
    <rect width="8" height="4" ry="1.5" x="0" y="38" id="e102" class="b"/>
    <rect width="8" height="4" ry="1.5" x="0" y="42" id="e103" class="b"/>
    <rect width="8" height="4" ry="1.5" x="0" y="46" id="e104" class="b"/>
    <rect width="8" height="4" ry="1.5" x="0" y="50" id="e105" class="b"/>
    <rect width="8" height="4" ry="1.5" x="0" y="54" id="e106" class="b g"/>
    <rect width="8" height="4" ry="1.5" x="0" y="58" id="e107" class="b g"/>
    <rect width="8" height="4" ry="1.5" x="0" y="62" id="e108" class="b g"/>
    <rect width="8" height="4" ry="1.5" x="0" y="66" id="e109" class="b g"/>
    <rect width="8" height="4" ry="1.5" x="0" y="70" id="e10a" class="b g"/>
</g>
<g id="c11" transform="translate(21,0)">
    <rect width="8" height="4" ry="1.5" x="0" y="34" id="e111" class="b"/>
    <rect width="8" height="4" ry="1.5" x="0" y="38" id="e112" class="b"/>
    <rect width="8" height="4" ry="1.5" x="0" y="42" id="e113" class="b"/>
    <rect width="8" height="4" ry="1.5" x="0" y="46" id="e114" class="b"/>
    <rect width="8" height="4" ry="1.5" x="0" y="50" id="e115" class="b"/>
    <rect width="8" height="4" ry="1.5" x="0" y="54" id="e116" class="b g"/>
    <rect width="8" height="4" ry="1.5" x="0" y="58" id="e117" class="b g"/>
    <rect width="8" height="4" ry="1.5" x="0" y="62" id="e118" class="b g"/>
    <rect width="8" height="4" ry="1.5" x="0" y="66" id="e119" class="b g"/>
    <rect width="8" height="4" ry="1.5" x="0" y="70" id="e11a" class="b g"/>
</g>
<g id="c12" transform="translate(11,0)">
    <rect width="8" height="4" ry="1.5" x="0" y="34" id="e121" class="b"/>
    <rect width="8" height="4" ry="1.5" x="0" y="38" id="e122" class="b"/>
    <rect width="8" height="4" ry="1.5" x="0" y="42" id="e123" class="b"/>
    <rect width="8" height="4" ry="1.5" x="0" y="46" id="e124" class="b"/>
    <rect width="8" height="4" ry="1.5" x="0" y="50" id="e125" class="b"/>
    <rect width="8" height="4" ry="1.5" x="0" y="54" id="e126" class="b g"/>
    <rect width="8" height="4" ry="1.5" x="0" y="58" id="e127" class="b g"/>
    <rect width="8" height="4" ry="1.5" x="0" y="62" id="e128" class="b g"/>
    <rect width="8" height="4" ry="1.5" x="0" y="66" id="e129" class="b g"/>
    <rect width="8" height="4" ry="1.5" x="0" y="70" id="e12a" class="b g"/>
</g>

</g>
</svg>
