<?xml version="1.0" encoding="UTF-8" standalone="no"?>
<svg
   xmlns:dc="http://purl.org/dc/elements/1.1/"
   xmlns:cc="http://creativecommons.org/ns#"
   xmlns:rdf="http://www.w3.org/1999/02/22-rdf-syntax-ns#"
   xmlns:svg="http://www.w3.org/2000/svg"
   xmlns="http://www.w3.org/2000/svg"
   id="balance"
   viewBox="0 0 640 480"
   height="100%"
   width="100%"
   version="1.1">
  <metadata
     id="metadata207">
    <rdf:RDF>
      <cc:Work
         rdf:about="">
        <dc:format>image/svg+xml</dc:format>
        <dc:type
           rdf:resource="http://purl.org/dc/dcmitype/StillImage" />
        <dc:title></dc:title>
      </cc:Work>
    </rdf:RDF>
  </metadata>
  <defs
     id="defs3">
    <style
       id="style5">
        #balance #weights&gt;g    { cursor:move; }
        #balance .plate        { fill:#c8b967;stroke:#000000;stroke-width:2; }
        #balance .s .plate     { stroke:#AA0000; stroke-width:5; }

        #balance .object       { display:none; }

        #balance #vfront        { fill:#737373; }
        #balance #vup           { fill:#888888; }
        #balance #vright        { fill:#565656; }
        #balance #vborder       { stroke:#000000; }
        #balance #vtext         { fill:#303030; }

        #balance .v1 #vfront        { fill:#6060a0; }
        #balance .v1 #vup           { fill:#8080c0; }
        #balance .v1 #vright        { fill:#454565; }
        #balance .v1 #vborder       { stroke:#000020; }
        #balance .v1 #vtext         { fill:#202040; }

        #balance .v2 #vfront        { fill:#a06060; }
        #balance .v2 #vup           { fill:#c08080; }
        #balance .v2 #vright        { fill:#654545; }
        #balance .v2 #vborder       { stroke:#200000; }
        #balance .v2 #vtext         { fill:#402020; }
		
		#balance #legends path		{ fill:red; stroke:white; stroke-width:5; opacity:0.8 }
		#balance #labels text      	{ font-size:20px;text-anchor:middle;fill:#6c885c;font-weight:bold; }

    </style>
  </defs>
  <g
     id="hide"
     style="display:none">
    <path
       d="M 28,0 A 28,28 0 1 1 -28,0 28,28 0 1 1 28,0 Z"
       id="helper"
       style="color:#000000;display:inline;overflow:visible;visibility:visible;fill:#ffffff;fill-opacity:0.07000002;fill-rule:nonzero;stroke:#000000;stroke-width:0.1;stroke-linecap:round;stroke-linejoin:miter;stroke-miterlimit:4;stroke-dasharray:none;stroke-dashoffset:0;stroke-opacity:1;marker:none" />
  </g>
  <path
     id="l200"
     d="M 240,4 C 232.36,4 225.34,6.29 220.03,10.28 214.7,14.27 211,20.22 211,27 c 0,4.89 0.04,8.55 0,12.93 l 0,0.03 0,0.04 c 0,6.77 3.7,12.72 9.03,16.71 5.31,3.99 12.33,6.29 19.97,6.29 7.63,0 14.65,-2.29 19.96,-6.28 5.33,-4 9.04,-9.95 9.04,-16.72 l 0,-13 C 269,20.22 265.29,14.27 259.96,10.28 254.65,6.29 247.63,4 240,4 Z"
     style="fill:#5b7050" />
  <path
     id="l50"
     d="m 340,4.21 c -5.97,0 -11.49,1.76 -15.71,4.93 -4.27,3.2 -7.29,8.03 -7.29,13.57 0,6.2 0.12,10.51 0,17.37 l 0,0.03 0,0.03 0,0.03 c 0,5.54 3.03,10.34 7.28,13.53 4.22,3.16 9.73,4.96 15.71,4.96 5.98,0 11.49,-1.8 15.71,-4.96 4.26,-3.17 7.3,-7.98 7.3,-13.52 l 0,-17.46 C 363,17.17 359.97,12.34 355.71,9.15 351.49,5.98 345.97,4.21 340,4.21 Z"
     style="fill:#5b7050" />
  <path
     id="l20"
     d="m 410,11.92 c -5.97,0 -11.49,1.76 -15.71,4.93 -4.27,3.21 -7.29,8.04 -7.29,13.58 0,3.67 0.03,6.41 0,9.68 l 0,0.03 0,0.03 c 0,5.54 3.03,10.34 7.28,13.53 4.22,3.16 9.73,4.96 15.71,4.96 5.98,0 11.49,-1.8 15.71,-4.96 4.26,-3.17 7.3,-7.98 7.3,-13.52 l 0,-9.75 c 0,-5.54 -3.03,-10.37 -7.29,-13.56 -4.22,-3.17 -9.74,-4.94 -15.71,-4.94 z"
     style="fill:#5b7050" />
  <path
     id="l5"
     d="m 510,14.5 c -4.31,0 -8.35,1.26 -11.5,3.62 -3.17,2.38 -5.5,6.08 -5.5,10.37 0,4.15 0.08,7.01 0,11.56 l 0,0.03 0,0.03 0,0.03 c 0,4.29 2.33,7.96 5.5,10.34 3.13,2.35 7.17,3.65 11.5,3.65 4.32,0 8.36,-1.3 11.5,-3.65 3.16,-2.37 5.5,-6.05 5.5,-10.34 l 0,-11.64 c 0,-4.29 -2.32,-7.99 -5.5,-10.37 -3.15,-2.37 -7.19,-3.63 -11.5,-3.63 z"
     style="fill:#5b7050" />
  <path
     id="l2"
     d="m 580,19.65 c -4.31,0 -8.35,1.26 -11.5,3.62 -3.17,2.38 -5.5,6.08 -5.5,10.37 0,2.46 0.02,4.27 0,6.43 l 0,0.03 0,0.03 c 0,4.29 2.33,7.96 5.5,10.34 3.13,2.35 7.17,3.65 11.5,3.65 4.32,0 8.36,-1.3 11.5,-3.65 3.16,-2.37 5.5,-6.05 5.5,-10.34 l 0,-6.5 c 0,-4.29 -2.32,-7.99 -5.5,-10.37 -3.14,-2.35 -7.18,-3.62 -11.5,-3.62 z"
     style="fill:#5b7050" />
  <path
     id="l1000"
     d="m 64.8,21 c -9.84,0 -18.86,2.95 -25.62,8.03 -6.77,5.08 -11.37,12.53 -11.37,20.96 0,8.19 0.2,18.28 0,29.93 l 0,0.03 0,0.03 c 0,8.43 4.59,15.88 11.37,20.96 6.76,5.07 15.77,8.03 25.62,8.03 9.84,0 18.86,-2.95 25.62,-8.03 C 97.2,95.88 101.8,88.43 101.8,80 c 0,-12.67 -0.2,-18.26 0,-29.93 l 0,-0.03 0,-0.03 C 101.8,41.58 97.21,34.13 90.43,29.05 83.66,23.95 74.65,21 64.8,21 Z"
     style="fill:#5b7050" />
  <path
     id="h200"
     d="m 240,64 c -7.63,0 -14.65,2.29 -19.96,6.28 C 214.7,74.27 211,80.22 211,87 c 0,4.89 0.04,8.55 0,12.93 l 0,0.03 0,0.03 c 0,6.77 3.7,12.72 9.03,16.71 5.31,4 12.33,6.3 19.97,6.3 7.63,0 14.65,-2.29 19.96,-6.28 5.33,-4 9.04,-9.95 9.04,-16.72 l 0,-13 C 269,80.22 265.29,74.27 259.96,70.28 254.65,66.29 247.63,64 240,64 Z"
     style="fill:#5b7050" />
  <path
     id="h20"
     d="m 410,71.93 c -5.97,0 -11.49,1.76 -15.71,4.93 -4.27,3.2 -7.29,8.03 -7.29,13.57 0,3.67 0.03,6.41 0,9.68 l 0,0.03 0,0.03 c 0,5.54 3.03,10.34 7.28,13.53 4.22,3.16 9.73,4.96 15.71,4.96 5.98,0 11.49,-1.8 15.71,-4.96 4.26,-3.17 7.3,-7.98 7.3,-13.52 l 0,-9.75 c 0,-5.54 -3.03,-10.37 -7.29,-13.56 -4.22,-3.17 -9.74,-4.94 -15.71,-4.94 z"
     style="fill:#5b7050" />
  <path
     id="l10"
     d="m 340,76.8 c -5.97,0 -11.49,1.76 -15.71,4.93 -4.27,3.2 -7.29,8.04 -7.29,13.58 0,1.73 0,3.3 0,4.84 l 0,0.03 c 0,5.54 3.03,10.34 7.28,13.53 4.22,3.16 9.73,4.96 15.71,4.96 5.98,0 11.49,-1.8 15.71,-4.96 4.26,-3.18 7.3,-7.99 7.3,-13.53 l 0,-4.87 c 0,-5.54 -3.03,-10.38 -7.29,-13.56 -4.22,-3.18 -9.74,-4.94 -15.71,-4.94 z"
     style="fill:#5b7050" />
  <path
     id="h2"
     d="m 580,79.64 c -4.31,0 -8.35,1.26 -11.5,3.62 -3.17,2.38 -5.5,6.08 -5.5,10.37 0,2.46 0.02,4.27 0,6.43 l 0,0.03 0,0.03 c 0,4.29 2.33,7.96 5.5,10.34 3.13,2.35 7.17,3.65 11.5,3.65 4.32,0 8.36,-1.3 11.5,-3.65 3.16,-2.37 5.5,-6.05 5.5,-10.34 l 0,-6.5 c 0,-4.29 -2.32,-7.99 -5.5,-10.37 -3.14,-2.35 -7.18,-3.62 -11.5,-3.62 z"
     style="fill:#5b7050" />
  <path
     id="l1"
     d="m 510,82.89 c -4.31,0 -8.35,1.26 -11.5,3.62 -3.17,2.38 -5.5,6.08 -5.5,10.37 0,1.15 0,2.2 0,3.21 l 0,0.03 c 0,4.29 2.33,7.96 5.5,10.34 3.13,2.35 7.17,3.65 11.5,3.65 4.32,0 8.36,-1.3 11.5,-3.65 3.16,-2.37 5.5,-6.05 5.5,-10.34 l 0,-3.25 c 0,-4.29 -2.32,-7.99 -5.5,-10.37 -3.14,-2.35 -7.18,-3.62 -11.5,-3.62 z"
     style="fill:#5b7050" />
  <path
     id="l500"
     d="M 170,3.7109375 C 162.36,3.7109375 155.3393,6.01 150.0293,10 144.6993,13.99 141,19.930938 141,26.710938 c 0,8.24 0.16,14.028984 0,23.208984 l 0,0.0293 L 141,50 c 0,6.77 3.6993,12.720937 9.0293,16.710938 3.09,2.31 6.80984,3.969296 10.83984,5.029296 -0.13285,0.03461 -0.26237,0.07539 -0.39453,0.111328 l 18.97851,0 c -0.10806,-0.02941 -0.21374,-0.06325 -0.32226,-0.0918 4.03,-1.05 7.74984,-2.709297 10.83984,-5.029297 C 195.2907,62.720469 199,56.77 199,50 l 0,-23.279297 C 199,19.930703 195.29094,13.99 189.96094,10 184.65094,6.01 177.63,3.7109375 170,3.7109375 Z"
     style="fill:#5b7050;stroke:none;stroke-width:10;stroke-miterlimit:4;stroke-dasharray:none;stroke-opacity:1" />
  <path
     id="l100"
     d="m 160.47461,71.851562 c -3.87705,1.054331 -7.45718,2.674448 -10.44531,4.917969 C 144.6993,80.769531 141,86.72 141,93.5 c 0,2.3 0.01,4.43 0,6.5 0,6.77 3.6993,12.72094 9.0293,16.71094 5.31,3.99 12.3307,6.28906 19.9707,6.28906 7.63,0 14.65094,-2.2893 19.96094,-6.2793 C 195.29094,112.7207 199,106.77 199,100 l 0,-6.5 c 0,-6.77 -3.6993,-12.720938 -9.0293,-16.710938 -3.00679,-2.247797 -6.61256,-3.874564 -10.51758,-4.9375 l -18.97851,0 z"
     style="color:#000000;clip-rule:nonzero;display:inline;overflow:visible;visibility:visible;opacity:1;isolation:auto;mix-blend-mode:normal;color-interpolation:sRGB;color-interpolation-filters:linearRGB;solid-color:#000000;solid-opacity:1;fill:#5b7050;fill-opacity:1;fill-rule:evenodd;stroke:none;stroke-width:10;stroke-linecap:round;stroke-linejoin:miter;stroke-miterlimit:4;stroke-dasharray:none;stroke-dashoffset:0;stroke-opacity:1;marker:none;marker-start:none;marker-mid:none;marker-end:none;color-rendering:auto;image-rendering:auto;shape-rendering:auto;text-rendering:auto;enable-background:accumulate" />
  <path
     id="leftdown"
     d="m 151.96828,146.44921 c -9.47002,0 -17.09375,7.6237 -17.09375,17.09375 l 0,26.11132 -29.50195,0 c -1.18941,4.30471 -0.0892,9.09826 3.30664,12.49414 l 33.75586,33.75586 c 2.51499,2.51497 5.7979,3.77344 9.08008,3.77344 3.28219,0 6.56313,-1.25847 9.07813,-3.77344 l 33.7578,-33.75586 c 2.5469,-2.54689 3.80085,-5.87976 3.76758,-9.20312 -0.0111,-1.10779 -0.16554,-2.21484 -0.46289,-3.29102 l -28.59375,0 0,-26.11132 c 0,-9.47004 -7.62372,-17.09375 -17.09374,-17.09375 z"
     style="color:#000000;clip-rule:nonzero;display:inline;overflow:visible;visibility:visible;opacity:1;isolation:auto;mix-blend-mode:normal;color-interpolation:sRGB;color-interpolation-filters:linearRGB;solid-color:#000000;solid-opacity:1;fill:#ff0000;fill-opacity:1;fill-rule:nonzero;stroke:#ffffff;stroke-width:8;stroke-linecap:round;stroke-linejoin:round;stroke-miterlimit:4;stroke-dasharray:none;stroke-dashoffset:0;stroke-opacity:1;marker:none;marker-start:none;marker-mid:none;marker-end:none;color-rendering:auto;image-rendering:auto;shape-rendering:auto;text-rendering:auto;enable-background:accumulate" />
  <path
     style="color:#000000;clip-rule:nonzero;display:inline;overflow:visible;visibility:visible;opacity:1;isolation:auto;mix-blend-mode:normal;color-interpolation:sRGB;color-interpolation-filters:linearRGB;solid-color:#000000;solid-opacity:1;fill:#ff0000;fill-opacity:1;fill-rule:nonzero;stroke:#ffffff;stroke-width:8;stroke-linecap:round;stroke-linejoin:round;stroke-miterlimit:4;stroke-dasharray:none;stroke-dashoffset:0;stroke-opacity:1;marker:none;marker-start:none;marker-mid:none;marker-end:none;color-rendering:auto;image-rendering:auto;shape-rendering:auto;text-rendering:auto;enable-background:accumulate"
     d="m 151.96828,239.67772 c -9.47002,0 -17.09375,-7.6237 -17.09375,-17.09375 l 0,-26.11132 -29.50195,0 c -1.18941,-4.30471 -0.0892,-9.09826 3.30664,-12.49414 l 33.75586,-33.75586 c 2.51499,-2.51497 5.7979,-3.77344 9.08008,-3.77344 3.28219,0 6.56313,1.25847 9.07813,3.77344 l 33.7578,33.75586 c 2.5469,2.54689 3.80085,5.87976 3.76758,9.20312 -0.0111,1.10779 -0.16554,2.21484 -0.46289,3.29102 l -28.59375,0 0,26.11132 c 0,9.47004 -7.62372,17.09375 -17.09374,17.09375 z"
     id="leftup" />
  <path
     style="color:#000000;clip-rule:nonzero;display:inline;overflow:visible;visibility:visible;opacity:1;isolation:auto;mix-blend-mode:normal;color-interpolation:sRGB;color-interpolation-filters:linearRGB;solid-color:#000000;solid-opacity:1;fill:#ff0000;fill-opacity:1;fill-rule:nonzero;stroke:#ffffff;stroke-width:8;stroke-linecap:round;stroke-linejoin:round;stroke-miterlimit:4;stroke-dasharray:none;stroke-dashoffset:0;stroke-opacity:1;marker:none;marker-start:none;marker-mid:none;marker-end:none;color-rendering:auto;image-rendering:auto;shape-rendering:auto;text-rendering:auto;enable-background:accumulate"
     d="m 496.16111,146.44921 c -9.47002,0 -17.09375,7.6237 -17.09375,17.09375 l 0,26.11132 -29.50195,0 c -1.18941,4.30471 -0.0892,9.09826 3.30664,12.49414 l 33.75586,33.75586 c 2.51499,2.51497 5.7979,3.77344 9.08008,3.77344 3.28219,0 6.56313,-1.25847 9.07813,-3.77344 l 33.7578,-33.75586 c 2.5469,-2.54689 3.80085,-5.87976 3.76758,-9.20312 -0.0111,-1.10779 -0.16554,-2.21484 -0.46289,-3.29102 l -28.59375,0 0,-26.11132 c 0,-9.47004 -7.62372,-17.09375 -17.09374,-17.09375 z"
     id="rightdown" />
  <path
     id="rightup"
     d="m 496.16111,239.67772 c -9.47002,0 -17.09375,-7.6237 -17.09375,-17.09375 l 0,-26.11132 -29.50195,0 c -1.18941,-4.30471 -0.0892,-9.09826 3.30664,-12.49414 l 33.75586,-33.75586 c 2.51499,-2.51497 5.7979,-3.77344 9.08008,-3.77344 3.28219,0 6.56313,1.25847 9.07813,3.77344 l 33.7578,33.75586 c 2.5469,2.54689 3.80085,5.87976 3.76758,9.20312 -0.0111,1.10779 -0.16554,2.21484 -0.46289,3.29102 l -28.59375,0 0,26.11132 c 0,9.47004 -7.62372,17.09375 -17.09374,17.09375 z"
     style="color:#000000;clip-rule:nonzero;display:inline;overflow:visible;visibility:visible;opacity:1;isolation:auto;mix-blend-mode:normal;color-interpolation:sRGB;color-interpolation-filters:linearRGB;solid-color:#000000;solid-opacity:1;fill:#ff0000;fill-opacity:1;fill-rule:nonzero;stroke:#ffffff;stroke-width:8;stroke-linecap:round;stroke-linejoin:round;stroke-miterlimit:4;stroke-dasharray:none;stroke-dashoffset:0;stroke-opacity:1;marker:none;marker-start:none;marker-mid:none;marker-end:none;color-rendering:auto;image-rendering:auto;shape-rendering:auto;text-rendering:auto;enable-background:accumulate" />
</svg>
