<?xml version="1.0" encoding="UTF-8" standalone="no"?>
<!-- Created with Inkscape (http://www.inkscape.org/) -->

<svg
 xmlns:dc="http://purl.org/dc/elements/1.1/"
 xmlns:cc="http://creativecommons.org/ns#"
 xmlns:rdf="http://www.w3.org/1999/02/22-rdf-syntax-ns#"
 xmlns:svg="http://www.w3.org/2000/svg"
 xmlns="http://www.w3.org/2000/svg"
 xmlns:xlink="http://www.w3.org/1999/xlink"
 xmlns:sodipodi="http://sodipodi.sourceforge.net/DTD/sodipodi-0.dtd"
 xmlns:inkscape="http://www.inkscape.org/namespaces/inkscape"
 width="640px"
 height="480px"
 id="svg2985"
 version="1.1"
 inkscape:version="0.48.4 r9939"
 sodipodi:docname="balance01.svg.2016_01_08_16_18_55.0.svg">
<defs
 id="defs2987" />
<sodipodi:namedview
 id="base"
 pagecolor="#ffffff"
 bordercolor="#666666"
 borderopacity="1.0"
 inkscape:pageopacity="0.0"
 inkscape:pageshadow="2"
 inkscape:zoom="0.45433337"
 inkscape:cx="778.00649"
 inkscape:cy="99.488428"
 inkscape:current-layer="layer1"
 inkscape:document-units="px"
 showgrid="false"
 showguides="true"
 inkscape:guide-bbox="true"
 inkscape:window-width="1033"
 inkscape:window-height="809"
 inkscape:window-x="174"
 inkscape:window-y="53"
 inkscape:window-maximized="0" />
<metadata
 id="metadata2990">
<rdf:RDF>
<cc:Work
 rdf:about="">
<dc:format>image/svg+xml</dc:format>
<dc:type
 rdf:resource="http://purl.org/dc/dcmitype/StillImage" />
<dc:title></dc:title>
</cc:Work>
</rdf:RDF>
</metadata>
<g
 id="layer1"
 inkscape:label="Layer 1"
 inkscape:groupmode="layer">
<rect
 style="color:#000000;fill:#6c885c;fill-opacity:1;stroke:none;stroke-width:0.31863597;marker:none;visibility:visible;display:inline;overflow:visible;enable-background:accumulate"
 id="rect2993"
 width="640"
 height="140"
 x="0"
 y="0"
 rx="16.84317"
 ry="0" />
<path
 style="color:#000000;fill:#5b7050;fill-opacity:1;fill-rule:nonzero;stroke:none;stroke-width:0.30000001;marker:none;visibility:visible;display:inline;overflow:visible;enable-background:accumulate"
 d="M 170,3.71875 C 162.36185,3.71875 155.34306,6.0161402 150.03125,10 144.70102,13.997672 141,19.939137 141,26.71875 c 0,8.247038 0.16883,14.032995 0,23.21875 l 0,0.03125 L 141,50 c 0,6.779613 3.70102,12.721078 9.03125,16.71875 3.09048,2.317863 6.81183,3.975469 10.84375,5.03125 -4.03192,1.055781 -7.75327,2.713387 -10.84375,5.03125 C 144.70102,80.778922 141,86.720387 141,93.5 c 0,2.303638 0.0105,4.438401 0,6.5 0,6.77962 3.70102,12.72108 9.03125,16.71875 C 155.34306,120.70261 162.36185,123 170,123 c 7.63815,0 14.65694,-2.29739 19.96875,-6.28125 C 195.29898,112.72108 199,106.77962 199,100 l 0,-6.5 c 0,-6.779613 -3.70102,-12.721078 -9.03125,-16.71875 -3.09048,-2.317863 -6.81183,-3.975469 -10.84375,-5.03125 4.03192,-1.055781 7.75327,-2.713387 10.84375,-5.03125 C 195.29898,62.721078 199,56.779613 199,50 l 0,-23.28125 C 199,19.939137 195.29898,13.997672 189.96875,10 184.65694,6.0161402 177.63815,3.71875 170,3.71875 z M 240,4 C 232.36185,4 225.34306,6.2973902 220.03125,10.28125 214.70102,14.278922 211,20.220387 211,27 c 0,4.892124 0.0421,8.559989 0,12.9375 l 0,0.03125 L 211,40 c 0,6.779613 3.70102,12.721078 9.03125,16.71875 C 225.34306,60.70261 232.36185,63 240,63 c 7.63815,0 14.65694,-2.29739 19.96875,-6.28125 C 265.29898,52.721078 269,46.779613 269,40 l 0,-13 C 269,20.220387 265.29898,14.278922 259.96875,10.28125 254.65694,6.2973902 247.63815,4 240,4 z m 100,0.21875 c -5.97269,0 -11.49042,1.7662516 -15.71875,4.9375 C 320.02917,12.345312 317,17.17709 317,22.71875 c 0,6.202475 0.12617,10.510508 0,17.375 l 0,0.03125 0,0.03125 0,0.03125 c 0,5.54166 3.03629,10.347527 7.28125,13.53125 4.22121,3.165908 9.73655,4.96875 15.71875,4.96875 5.9822,0 11.49754,-1.802842 15.71875,-4.96875 C 359.96371,50.535027 363,45.72916 363,40.1875 l 0,-17.46875 C 363,17.17709 359.97083,12.345312 355.71875,9.15625 351.49042,5.9850016 345.97269,4.21875 340,4.21875 z m 70,7.71875 c -5.97269,0 -11.49042,1.766252 -15.71875,4.9375 C 390.02917,20.064062 387,24.89584 387,30.4375 c 0,3.676303 0.0314,6.419039 0,9.6875 l 0,0.03125 0,0.03125 c 0,5.54166 3.03629,10.347527 7.28125,13.53125 4.22121,3.165908 9.73655,4.96875 15.71875,4.96875 5.9822,0 11.49754,-1.802842 15.71875,-4.96875 C 429.96371,50.535027 433,45.72916 433,40.1875 l 0,-9.75 C 433,24.89584 429.97083,20.064062 425.71875,16.875 421.49042,13.703752 415.97269,11.9375 410,11.9375 z M 510,14.5 c -4.31338,0 -8.35578,1.266835 -11.5,3.625 -3.17767,2.383254 -5.5,6.083241 -5.5,10.375 0,4.157784 0.0835,7.019366 0,11.5625 l 0,0.03125 0,0.03125 0,0.03125 c 0,4.291759 2.33235,7.968016 5.5,10.34375 3.1342,2.350644 7.17298,3.65625 11.5,3.65625 4.32702,0 8.3658,-1.305606 11.5,-3.65625 3.16765,-2.375734 5.5,-6.051991 5.5,-10.34375 L 527,28.5 c 0,-4.291759 -2.32233,-7.991746 -5.5,-10.375 C 518.35578,15.766835 514.31338,14.5 510,14.5 z m 70,5.15625 c -4.31338,0 -8.35578,1.266835 -11.5,3.625 -3.17767,2.383254 -5.5,6.083241 -5.5,10.375 0,2.460547 0.0208,4.278331 0,6.4375 l 0,0.03125 0,0.03125 c 0,4.291759 2.33235,7.968016 5.5,10.34375 3.1342,2.350644 7.17298,3.65625 11.5,3.65625 4.32702,0 8.3658,-1.305606 11.5,-3.65625 3.16765,-2.375734 5.5,-6.051991 5.5,-10.34375 l 0,-6.5 c 0,-4.291759 -2.32233,-7.991746 -5.5,-10.375 -3.14422,-2.358165 -7.18662,-3.625 -11.5,-3.625 z M 64.805118,21 c -9.846592,0 -18.862702,2.959527 -25.625,8.03125 -6.776468,5.08235 -11.375,12.533817 -11.375,20.96875 0,8.19676 0.203934,18.285437 0,29.9375 l 0,0.03125 0,0.03125 c 0,8.434933 4.598532,15.8864 11.375,20.96875 6.762297,5.07172 15.778407,8.03125 25.625,8.03125 9.846593,0 18.862703,-2.95953 25.625,-8.03125 C 97.206586,95.8864 101.80512,88.434933 101.80512,80 c 0,-12.673481 -0.20433,-18.263037 0,-29.9375 l 0,-0.03125 0,-0.03125 c 0,-8.434933 -4.598534,-15.8864 -11.375002,-20.96875 C 83.66782,23.959527 74.65171,21 64.805118,21 z M 240,64 c -7.63815,0 -14.65694,2.29739 -19.96875,6.28125 C 214.70102,74.278922 211,80.220387 211,87 c 0,4.892124 0.0421,8.559989 0,12.9375 l 0,0.03125 0,0.03125 c 0,6.77962 3.70102,12.72108 9.03125,16.71875 C 225.34306,120.70261 232.36185,123 240,123 c 7.63815,0 14.65694,-2.29739 19.96875,-6.28125 C 265.29898,112.72108 269,106.77962 269,100 l 0,-13 C 269,80.220387 265.29898,74.278922 259.96875,70.28125 254.65694,66.29739 247.63815,64 240,64 z m 170,7.9375 c -5.97269,0 -11.49042,1.766252 -15.71875,4.9375 C 390.02917,80.064062 387,84.89584 387,90.4375 c 0,3.676303 0.0314,6.419035 0,9.6875 l 0,0.0313 0,0.0313 c 0,5.54166 3.03629,10.34752 7.28125,13.53125 4.22121,3.16591 9.73655,4.96875 15.71875,4.96875 5.9822,0 11.49754,-1.80284 15.71875,-4.96875 C 429.96371,110.53492 433,105.72916 433,100.1875 l 0,-9.75 C 433,84.89584 429.97083,80.064062 425.71875,76.875 421.49041,73.703683 415.97268,71.9375 410,71.9375 z m -70,4.875 c -5.97269,0 -11.49042,1.766252 -15.71875,4.9375 C 320.02917,84.939062 317,89.77084 317,95.3125 c 0,1.731616 0.008,3.306085 0,4.84375 l 0,0.0313 c 0,5.54166 3.03629,10.34752 7.28125,13.53125 4.22121,3.16591 9.73655,4.96875 15.71875,4.96875 5.9822,0 11.49754,-1.80284 15.71875,-4.96875 C 359.96371,110.53497 363,105.72916 363,100.1875 l 0,-4.875 C 363,89.77084 359.97083,84.939062 355.71875,81.75 351.49041,78.578683 345.97268,76.8125 340,76.8125 z m 240,2.84375 c -4.31338,0 -8.35578,1.266835 -11.5,3.625 -3.17767,2.383254 -5.5,6.083241 -5.5,10.375 0,2.460547 0.0208,4.278334 0,6.4375 l 0,0.0313 0,0.0313 c 0,4.29176 2.33235,7.96802 5.5,10.34375 3.1342,2.35065 7.17299,3.65625 11.5,3.65625 4.32701,0 8.3658,-1.3056 11.5,-3.65625 3.16765,-2.37573 5.5,-6.05199 5.5,-10.34375 l 0,-6.5 c 0,-4.291759 -2.32233,-7.991746 -5.5,-10.375 -3.14422,-2.358165 -7.18662,-3.625 -11.5,-3.625 z m -70,3.25 c -4.31338,0 -8.35578,1.266835 -11.5,3.625 -3.17767,2.383254 -5.5,6.083241 -5.5,10.375 0,1.158597 0.005,2.202969 0,3.21875 l 0,0.0313 c 0,4.29176 2.33235,7.96802 5.5,10.34375 3.1342,2.35065 7.17299,3.65625 11.5,3.65625 4.32701,0 8.3658,-1.3056 11.5,-3.65625 3.16765,-2.37573 5.5,-6.05199 5.5,-10.34375 l 0,-3.25 c 0,-4.291759 -2.32233,-7.991746 -5.5,-10.375 -3.14422,-2.358165 -7.18662,-3.625 -11.5,-3.625 z"
 id="path5136"
 inkscape:connector-curvature="0"
 sodipodi:nodetypes="sssccsscsscsssssscssssssssccssssssssssscccsssssssssssccssssssssssscccsssssssssssccsssssssssssccsssssccssssssccsssssssssssccssscssssssscsssssssssssccssssssssssscssssssss" />
<g
 id="g1000"
 transform="translate(65,80)">
<path
 sodipodi:nodetypes="sccsccs"
 inkscape:connector-curvature="0"
 id="path3012-42"
 d="m 0,-54 c -17.673112,0 -32,10.745166 -32,24 0,8.112599 0.205835,18.239344 0,30 0,13.254834 14.326888,24 32,24 17.673112,0 32,-10.745166 32,-24 0,-12.619269 -0.205835,-18.239344 0,-30 0,-13.254834 -14.326888,-24 -32,-24 z"
 style="color:#000000;fill:#cfbe3c;fill-opacity:1;fill-rule:nonzero;stroke:none;stroke-width:0.30000001;marker:none;visibility:visible;display:inline;overflow:visible;enable-background:accumulate" />
<path
 style="color:#000000;fill:#d3cb51;fill-opacity:1;fill-rule:nonzero;stroke:none;stroke-width:0.30000001;marker:none;visibility:visible;display:inline;overflow:visible;enable-background:accumulate"
 d="m 0,-54 c -17.673112,0 -32,10.745166 -32,24 0,13.254834 14.326888,24 32,24 17.673112,0 32,-10.745166 32,-24 0,-13.254834 -14.326888,-24 -32,-24 z"
 id="path3012-4-9"
 inkscape:connector-curvature="0" />
<path
 style="color:#000000;fill:#dcd753;fill-opacity:1;fill-rule:nonzero;stroke:none;stroke-width:0.34265661;marker:none;visibility:visible;display:inline;overflow:visible;enable-background:accumulate"
 d="m -1.4375,-52.5 c -14.803015,0.562775 -26.59375,9.757881 -26.59375,21 0,11.604768 12.558226,21 28.03125,21 15.473024,0 28.03125,-9.395232 28.03125,-21 0,-11.604768 -12.558226,-21 -28.03125,-21 -0.483532,0 -0.95998338,-0.01815 -1.4375,0 z"
 id="path3037-9"
 inkscape:connector-curvature="0" />
<path
 style="color:#000000;fill:none;stroke:#000000;stroke-width:2;stroke-linecap:round;stroke-linejoin:miter;stroke-miterlimit:4;stroke-opacity:1;stroke-dasharray:none;stroke-dashoffset:0;marker:none;visibility:visible;display:inline;overflow:visible;enable-background:accumulate"
 d="m 0,-54 c -17.673112,0 -32,10.745166 -32,24 0,8.112599 0.205835,18.239344 0,30 0,13.254834 14.326888,24 32,24 17.673112,0 32,-10.745166 32,-24 0,-12.619269 -0.205835,-18.239344 0,-30 0,-13.254834 -14.326888,-24 -32,-24 z"
 id="path3050-6"
 inkscape:connector-curvature="0"
 sodipodi:nodetypes="sccsccs" />
<path
 style="font-size:27.21492004px;font-style:normal;font-variant:normal;font-weight:600;font-stretch:normal;line-height:125%;letter-spacing:0px;word-spacing:0px;fill:#4e3a27;fill-opacity:1;stroke:none;font-family:FreeSans;-inkscape-font-specification:FreeSans Semi-Bold"
 d="m 46.78125,39.0625 0,15.65625 5.1875,0 0,-5.25 2.59375,-1.65625 8.25,6.90625 6.15625,0 -11.09375,-8.90625 10.03125,-6.75 -6.09375,0 -9.84375,6.875 0,-6.875 -5.1875,0 z M 37.59375,39.5 c -0.759367,1.816794 -3.234757,2.718762 -7.46875,2.71875 l 0,2 5.84375,0 0,10.5 4.84375,0 0,-15.21875 -3.21875,0 z"
 transform="translate(-49.351862,-78.962979)"
 id="path3865-2"
 inkscape:connector-curvature="0" />
</g>
<g
 id="g500"
 transform="translate(170,50)">
<path
 sodipodi:nodetypes="sccsccs"
 inkscape:connector-curvature="0"
 id="path4064"
 d="m 0,-41.28125 c -13.254834,0 -24,8.058875 -24,18 0,8.177806 0.170669,13.9958404 0,23.28125 0,9.9411255 10.745166,18 24,18 13.254834,0 24,-8.0588745 24,-18 0,-7.1433316 0,-13.962052 0,-23.28125 0,-9.941125 -10.745166,-18 -24,-18 z"
 style="color:#000000;fill:#c69745;fill-opacity:1;fill-rule:nonzero;stroke:none;stroke-width:0.30000001;marker:none;visibility:visible;display:inline;overflow:visible;enable-background:accumulate" />
<path
 id="path4079"
 d="m 0,-41.28125 c -13.254834,0 -24,8.058875 -24,18 0,9.941125 10.745166,18 24,18 13.254834,0 24,-8.058875 24,-18 0,-9.941125 -10.745166,-18 -24,-18 z"
 style="color:#000000;fill:#cea55e;fill-opacity:1;fill-rule:nonzero;stroke:none;stroke-width:0.30000001;marker:none;visibility:visible;display:inline;overflow:visible;enable-background:accumulate"
 inkscape:connector-curvature="0" />
<path
 id="path4119"
 d="m 0,-40.125 c -11.520918,0 -20.875,7.015561 -20.875,15.65625 0,8.640689 9.354082,15.65625 20.875,15.65625 11.520918,0 20.875,-7.015561 20.875,-15.65625 C 20.875,-33.109439 11.520918,-40.125 0,-40.125 z"
 style="color:#000000;fill:#dcb674;fill-opacity:1;fill-rule:nonzero;stroke:none;stroke-width:0.30000001;marker:none;visibility:visible;display:inline;overflow:visible;enable-background:accumulate"
 inkscape:connector-curvature="0" />
<path
 inkscape:connector-curvature="0"
 id="path4153"
 d="m -0.625,-29.929774 c -1.7151631,-0.02572 -3.7862761,0.360257 -4.5763842,2.089508 -0.8087686,1.833263 -0.7941035,4.171253 0.3513733,5.863589 1.220618,1.575478 3.4443072,1.672077 5.27065519,1.522296 C 1.9524639,-20.58336 3.6113945,-21.328294 4.0878456,-22.912512 4.7195533,-24.81932 4.6819971,-27.22538 3.2577844,-28.776813 2.2206402,-29.718774 0.72476844,-29.922237 -0.625,-29.929774 z m 11.625,0 c -1.7113572,-0.02394 -3.7893691,0.355505 -4.5691363,2.089508 -0.6901727,1.594313 -0.719585,3.509684 -0.086829,5.126723 0.7277817,1.835623 2.8735275,2.344917 4.6559653,2.315019 1.768129,0.01591 3.944803,-0.470063 4.634595,-2.321 0.712998,-1.884586 0.699165,-4.267213 -0.603345,-5.89775 -0.994223,-1.107006 -2.627007,-1.29726 -4.03125,-1.3125 z m -26.6875,0.1875 c -0.4375,1.677083 -0.875,3.354167 -1.3125,5.03125 0.885417,0 1.770833,0 2.65625,0 0.885321,-0.947736 2.552379,-0.868754 3.59375,-0.21875 1.1056409,0.701158 0.715438,2.52192 -0.53281,2.814128 -1.107222,0.345776 -2.942762,0.354718 -3.318099,-0.939128 -0.935114,0 -1.870227,0 -2.805341,0 0.08136,1.568758 1.823821,2.262104 3.148056,2.507793 2.216616,0.328921 4.8735478,0.217657 6.511137,-1.516733 1.1115986,-1.228437 0.5534291,-3.293066 -0.8839169,-4.002099 -1.7199851,-0.948382 -3.9193771,-0.982849 -5.7127761,-0.207711 0.15625,-0.625 0.3125,-1.25 0.46875,-1.875 2.041667,0 4.0833333,0 6.125,0 0,-0.53125 0,-1.0625 0,-1.59375 -2.645833,0 -5.291667,0 -7.9375,0 z m 15.0625,1.25 c 1.46470656,-0.11496 2.1638418,1.444473 2.136563,2.688685 0.01342,1.229167 0.1534376,2.855512 -1.011563,3.623815 -1.03254083,0.498873 -2.7100032,0.332679 -3.03125,-0.96875 -0.3899192,-1.425874 -0.435182,-3.033787 0.1012871,-4.428076 0.3180979,-0.681676 1.1029226,-0.931713 1.8049629,-0.915674 z m 11.625,0 c 1.464706,-0.11496 2.163842,1.444473 2.136563,2.688685 0.01342,1.229167 0.153437,2.855513 -1.011563,3.623815 -1.032186,0.507336 -2.6918435,0.312944 -3.03125,-0.96875 C 8.7038308,-24.574398 8.6585682,-26.182311 9.1950371,-27.5766 9.513135,-28.258276 10.29796,-28.508313 11,-28.492274 z"
 style="font-size:16.32674026px;font-style:normal;font-variant:normal;font-weight:bold;font-stretch:normal;line-height:125%;letter-spacing:0px;word-spacing:0px;fill:#4e3a27;fill-opacity:1;stroke:none;font-family:FreeSans;-inkscape-font-specification:Sans Bold" />
<path
 style="color:#000000;fill:none;stroke:#000000;stroke-width:2;stroke-miterlimit:4;stroke-opacity:1;stroke-dasharray:none;marker:none;visibility:visible;display:inline;overflow:visible;enable-background:accumulate"
 d="m 0,-41.28125 c -13.254834,0 -24,8.058875 -24,18 0,8.177806 0.170669,13.9958404 0,23.28125 0,9.9411255 10.745166,18 24,18 13.254834,0 24,-8.0588745 24,-18 0,-7.1433316 0,-13.962052 0,-23.28125 0,-9.941125 -10.745166,-18 -24,-18 z"
 id="path4091"
 inkscape:connector-curvature="0"
 sodipodi:nodetypes="sccsccs" />
</g>
<g
 id="g200"
 transform="translate(240,40)">
<path
 sodipodi:nodetypes="sccsccs"
 inkscape:connector-curvature="0"
 id="path4066"
 d="m 0,-31 c -13.254834,0 -24,8.058875 -24,18 0,4.8630025 0.04272,8.5636329 0,13 0,9.9411255 10.745166,18 24,18 13.254834,0 24,-8.0588745 24,-18 0,-5.5058995 0,-13 0,-13 0,-9.941125 -10.745166,-18 -24,-18 z"
 style="color:#000000;fill:#c69745;fill-opacity:1;fill-rule:nonzero;stroke:none;stroke-width:0.30000001;marker:none;visibility:visible;display:inline;overflow:visible;enable-background:accumulate" />
<path
 style="color:#000000;fill:#cea55e;fill-opacity:1;fill-rule:nonzero;stroke:none;stroke-width:0.30000001;marker:none;visibility:visible;display:inline;overflow:visible;enable-background:accumulate"
 d="m 0,-31 c -13.254834,0 -24,8.058875 -24,18 0,9.9411255 10.745166,18 24,18 13.254834,0 24,-8.0588745 24,-18 0,-9.941125 -10.745166,-18 -24,-18 z"
 id="path4081"
 inkscape:connector-curvature="0" />
<path
 style="color:#000000;fill:#dcb674;fill-opacity:1;fill-rule:nonzero;stroke:none;stroke-width:0.30000001;marker:none;visibility:visible;display:inline;overflow:visible;enable-background:accumulate"
 d="m 0,-30.0625 c -11.520918,0 -20.875,7.015561 -20.875,15.65625 C -20.875,-5.7655612 -11.520918,1.25 0,1.25 11.520918,1.25 20.875,-5.7655612 20.875,-14.40625 20.875,-23.046939 11.520918,-30.0625 0,-30.0625 z"
 id="path4174"
 inkscape:connector-curvature="0" />
<path
 inkscape:connector-curvature="0"
 id="path4164"
 d="m -12.28125,-19.864343 c -1.532159,9e-6 -2.730174,0.245404 -3.59375,0.78125 -0.84965,0.527357 -1.28125,1.266125 -1.28125,2.21875 0,0.119084 0.01731,0.250194 0.03125,0.34375 l 2.78125,0 0,-0.3125 c -4e-6,-0.501826 0.200351,-0.875557 0.5625,-1.15625 0.376069,-0.280679 0.893918,-0.437493 1.5625,-0.4375 0.654641,7e-6 1.169097,0.142583 1.53125,0.40625 0.376066,0.255176 0.562492,0.611708 0.5625,1.0625 -8e-6,0.501838 -0.24179,0.90978 -0.6875,1.25 -0.445725,0.331725 -1.464101,0.865043 -3.09375,1.5625 -1.253584,0.535858 -2.1375,1.037926 -2.625,1.53125 -0.473577,0.484823 -0.74286,1.135199 -0.8125,1.96875 l 10.0625,0 0,-1.59375 -6.25,0 c 0.222856,-0.289189 0.595705,-0.571567 1.125,-0.84375 0.529283,-0.280683 1.085167,-0.520345 1.65625,-0.75 0.571068,-0.238154 1.1130233,-0.509066 1.65625,-0.78125 0.5432089,-0.280681 0.9955231,-0.622975 1.34375,-1.03125 0.3621348,-0.408265 0.5312393,-0.873162 0.53125,-1.375 -1.08e-5,-0.876073 -0.4557176,-1.543648 -1.375,-2.0625 -0.9053724,-0.518834 -2.127496,-0.781241 -3.6875,-0.78125 z m 11.65625,0 c -1.8664462,9e-6 -3.2026753,0.393713 -3.96875,1.21875 -0.7660781,0.816548 -1.1562506,1.991737 -1.15625,3.53125 -6e-7,0.705972 0.096784,1.330643 0.25,1.875 0.1532145,0.535857 0.4191032,1.049203 0.78125,1.5 0.3760723,0.4508 0.8799924,0.784587 1.5625,1.03125 0.6825012,0.238158 1.5423094,0.375 2.53125,0.375 0.98892924,0 1.8174874,-0.136842 2.5,-0.375 0.6964249,-0.246663 1.2315951,-0.58045 1.59375,-1.03125 0.3621355,-0.459302 0.5967741,-0.972648 0.75,-1.5 0.1532051,-0.535851 0.2499893,-1.132045 0.25,-1.8125 -1.07e-5,-0.756996 -0.082866,-1.407372 -0.25,-1.96875 -0.1532257,-0.561364 -0.4364359,-1.08895 -0.8125,-1.53125 -0.3760837,-0.442284 -0.9112537,-0.747595 -1.59375,-0.96875 -0.6685839,-0.229643 -1.46249941,-0.343741 -2.4375,-0.34375 z m 11.625,0 c -1.8664466,9e-6 -3.2026754,0.393713 -3.96875,1.21875 -0.7660781,0.816548 -1.1250007,1.991737 -1.125,3.53125 -7e-7,0.705972 0.065534,1.330643 0.21875,1.875 0.1532145,0.535857 0.4191032,1.049203 0.78125,1.5 0.3760722,0.4508 0.8799924,0.784587 1.5625,1.03125 0.6825011,0.238158 1.542309,0.375 2.53125,0.375 0.988929,0 1.817487,-0.136842 2.5,-0.375 0.696424,-0.246663 1.231596,-0.58045 1.59375,-1.03125 0.362136,-0.459302 0.596775,-0.972648 0.75,-1.5 0.153213,-0.535851 0.24999,-1.132045 0.25,-1.8125 -10e-6,-0.756996 -0.08287,-1.407372 -0.25,-1.96875 -0.153226,-0.561364 -0.436436,-1.08895 -0.8125,-1.53125 -0.376083,-0.442284 -0.880004,-0.747595 -1.5625,-0.96875 C 12.800166,-19.750236 11.975,-19.864334 11,-19.864343 z m -11.625,1.4375 c 0.71035602,8e-6 1.2315975,0.248175 1.59375,0.75 0.3760665,0.493333 0.562492,1.360439 0.5625,2.59375 -8e-6,0.859073 -0.086256,1.537927 -0.28125,2.03125 -0.1810802,0.484823 -0.44357631,0.784401 -0.75,0.9375 -0.29250874,0.153103 -0.65143123,0.250002 -1.125,0.25 -0.4875088,2e-6 -0.912324,-0.0969 -1.21875,-0.25 -0.2925065,-0.161605 -0.5064312,-0.483927 -0.6875,-0.96875 -0.1810771,-0.493323 -0.2812536,-1.163671 -0.28125,-2.03125 -3.6e-6,-1.250322 0.165708,-2.117428 0.5,-2.59375 0.3342838,-0.484814 0.9074893,-0.718742 1.6875,-0.71875 z m 11.625,0 c 0.710356,8e-6 1.231597,0.248175 1.59375,0.75 0.376066,0.493333 0.562493,1.360439 0.5625,2.59375 -7e-6,0.859073 -0.08626,1.537927 -0.28125,2.03125 -0.181079,0.484823 -0.443576,0.784401 -0.75,0.9375 -0.292508,0.153103 -0.651431,0.250002 -1.125,0.25 -0.487509,2e-6 -0.881074,-0.0969 -1.1875,-0.25 -0.2925063,-0.161605 -0.5376812,-0.483927 -0.71875,-0.96875 -0.1810773,-0.493323 -0.2812534,-1.163671 -0.28125,-2.03125 -3.4e-6,-1.250322 0.1657081,-2.117428 0.5,-2.59375 0.3342838,-0.484814 0.907489,-0.718742 1.6875,-0.71875 z"
 style="font-size:16.32674026px;font-style:normal;font-variant:normal;font-weight:bold;font-stretch:normal;line-height:125%;letter-spacing:0px;word-spacing:0px;fill:#4e3a27;fill-opacity:1;stroke:none;font-family:FreeSans;-inkscape-font-specification:Sans Bold" />
<path
 style="color:#000000;fill:none;stroke:#000000;stroke-width:2;stroke-miterlimit:4;stroke-opacity:1;stroke-dasharray:none;marker:none;visibility:visible;display:inline;overflow:visible;enable-background:accumulate"
 d="m 0,-31 c -13.254834,0 -24,8.058875 -24,18 0,4.8630025 0.04272,8.5636329 0,13 0,9.9411255 10.745166,18 24,18 13.254834,0 24,-8.0588745 24,-18 0,-5.5058995 0,-13 0,-13 0,-9.941125 -10.745166,-18 -24,-18 z"
 id="path4099"
 inkscape:connector-curvature="0"
 sodipodi:nodetypes="sccsccs" />
</g>
<g
 transform="translate(240,100)"
 id="h200">
<path
 style="color:#000000;fill:#c69745;fill-opacity:1;fill-rule:nonzero;stroke:none;stroke-width:0.30000001;marker:none;visibility:visible;display:inline;overflow:visible;enable-background:accumulate"
 d="m 0,-31 c -13.254834,0 -24,8.058875 -24,18 0,4.8630025 0.04272,8.5636329 0,13 0,9.9411255 10.745166,18 24,18 13.254834,0 24,-8.0588745 24,-18 0,-5.5058995 0,-13 0,-13 0,-9.941125 -10.745166,-18 -24,-18 z"
 id="path4694"
 inkscape:connector-curvature="0"
 sodipodi:nodetypes="sccsccs" />
<path
 inkscape:connector-curvature="0"
 id="path4696"
 d="m 0,-31 c -13.254834,0 -24,8.058875 -24,18 0,9.9411255 10.745166,18 24,18 13.254834,0 24,-8.0588745 24,-18 0,-9.941125 -10.745166,-18 -24,-18 z"
 style="color:#000000;fill:#cea55e;fill-opacity:1;fill-rule:nonzero;stroke:none;stroke-width:0.30000001;marker:none;visibility:visible;display:inline;overflow:visible;enable-background:accumulate" />
<path
 inkscape:connector-curvature="0"
 id="path4698"
 d="m 0,-30.0625 c -11.520918,0 -20.875,7.015561 -20.875,15.65625 C -20.875,-5.7655612 -11.520918,1.25 0,1.25 11.520918,1.25 20.875,-5.7655612 20.875,-14.40625 20.875,-23.046939 11.520918,-30.0625 0,-30.0625 z"
 style="color:#000000;fill:#dcb674;fill-opacity:1;fill-rule:nonzero;stroke:none;stroke-width:0.30000001;marker:none;visibility:visible;display:inline;overflow:visible;enable-background:accumulate" />
<path
 style="font-size:16.32674026px;font-style:normal;font-variant:normal;font-weight:bold;font-stretch:normal;line-height:125%;letter-spacing:0px;word-spacing:0px;fill:#4e3a27;fill-opacity:1;stroke:none;font-family:FreeSans;-inkscape-font-specification:Sans Bold"
 d="m -12.28125,-19.864343 c -1.532159,9e-6 -2.730174,0.245404 -3.59375,0.78125 -0.84965,0.527357 -1.28125,1.266125 -1.28125,2.21875 0,0.119084 0.01731,0.250194 0.03125,0.34375 l 2.78125,0 0,-0.3125 c -4e-6,-0.501826 0.200351,-0.875557 0.5625,-1.15625 0.376069,-0.280679 0.893918,-0.437493 1.5625,-0.4375 0.654641,7e-6 1.169097,0.142583 1.53125,0.40625 0.376066,0.255176 0.562492,0.611708 0.5625,1.0625 -8e-6,0.501838 -0.24179,0.90978 -0.6875,1.25 -0.445725,0.331725 -1.464101,0.865043 -3.09375,1.5625 -1.253584,0.535858 -2.1375,1.037926 -2.625,1.53125 -0.473577,0.484823 -0.74286,1.135199 -0.8125,1.96875 l 10.0625,0 0,-1.59375 -6.25,0 c 0.222856,-0.289189 0.595705,-0.571567 1.125,-0.84375 0.529283,-0.280683 1.085167,-0.520345 1.65625,-0.75 0.571068,-0.238154 1.1130233,-0.509066 1.65625,-0.78125 0.5432089,-0.280681 0.9955231,-0.622975 1.34375,-1.03125 0.3621348,-0.408265 0.5312393,-0.873162 0.53125,-1.375 -1.08e-5,-0.876073 -0.4557176,-1.543648 -1.375,-2.0625 -0.9053724,-0.518834 -2.127496,-0.781241 -3.6875,-0.78125 z m 11.65625,0 c -1.8664462,9e-6 -3.2026753,0.393713 -3.96875,1.21875 -0.7660781,0.816548 -1.1562506,1.991737 -1.15625,3.53125 -6e-7,0.705972 0.096784,1.330643 0.25,1.875 0.1532145,0.535857 0.4191032,1.049203 0.78125,1.5 0.3760723,0.4508 0.8799924,0.784587 1.5625,1.03125 0.6825012,0.238158 1.5423094,0.375 2.53125,0.375 0.98892924,0 1.8174874,-0.136842 2.5,-0.375 0.6964249,-0.246663 1.2315951,-0.58045 1.59375,-1.03125 0.3621355,-0.459302 0.5967741,-0.972648 0.75,-1.5 0.1532051,-0.535851 0.2499893,-1.132045 0.25,-1.8125 -1.07e-5,-0.756996 -0.082866,-1.407372 -0.25,-1.96875 -0.1532257,-0.561364 -0.4364359,-1.08895 -0.8125,-1.53125 -0.3760837,-0.442284 -0.9112537,-0.747595 -1.59375,-0.96875 -0.6685839,-0.229643 -1.46249941,-0.343741 -2.4375,-0.34375 z m 11.625,0 c -1.8664466,9e-6 -3.2026754,0.393713 -3.96875,1.21875 -0.7660781,0.816548 -1.1250007,1.991737 -1.125,3.53125 -7e-7,0.705972 0.065534,1.330643 0.21875,1.875 0.1532145,0.535857 0.4191032,1.049203 0.78125,1.5 0.3760722,0.4508 0.8799924,0.784587 1.5625,1.03125 0.6825011,0.238158 1.542309,0.375 2.53125,0.375 0.988929,0 1.817487,-0.136842 2.5,-0.375 0.696424,-0.246663 1.231596,-0.58045 1.59375,-1.03125 0.362136,-0.459302 0.596775,-0.972648 0.75,-1.5 0.153213,-0.535851 0.24999,-1.132045 0.25,-1.8125 -10e-6,-0.756996 -0.08287,-1.407372 -0.25,-1.96875 -0.153226,-0.561364 -0.436436,-1.08895 -0.8125,-1.53125 -0.376083,-0.442284 -0.880004,-0.747595 -1.5625,-0.96875 C 12.800166,-19.750236 11.975,-19.864334 11,-19.864343 z m -11.625,1.4375 c 0.71035602,8e-6 1.2315975,0.248175 1.59375,0.75 0.3760665,0.493333 0.562492,1.360439 0.5625,2.59375 -8e-6,0.859073 -0.086256,1.537927 -0.28125,2.03125 -0.1810802,0.484823 -0.44357631,0.784401 -0.75,0.9375 -0.29250874,0.153103 -0.65143123,0.250002 -1.125,0.25 -0.4875088,2e-6 -0.912324,-0.0969 -1.21875,-0.25 -0.2925065,-0.161605 -0.5064312,-0.483927 -0.6875,-0.96875 -0.1810771,-0.493323 -0.2812536,-1.163671 -0.28125,-2.03125 -3.6e-6,-1.250322 0.165708,-2.117428 0.5,-2.59375 0.3342838,-0.484814 0.9074893,-0.718742 1.6875,-0.71875 z m 11.625,0 c 0.710356,8e-6 1.231597,0.248175 1.59375,0.75 0.376066,0.493333 0.562493,1.360439 0.5625,2.59375 -7e-6,0.859073 -0.08626,1.537927 -0.28125,2.03125 -0.181079,0.484823 -0.443576,0.784401 -0.75,0.9375 -0.292508,0.153103 -0.651431,0.250002 -1.125,0.25 -0.487509,2e-6 -0.881074,-0.0969 -1.1875,-0.25 -0.2925063,-0.161605 -0.5376812,-0.483927 -0.71875,-0.96875 -0.1810773,-0.493323 -0.2812534,-1.163671 -0.28125,-2.03125 -3.4e-6,-1.250322 0.1657081,-2.117428 0.5,-2.59375 0.3342838,-0.484814 0.907489,-0.718742 1.6875,-0.71875 z"
 id="path4700"
 inkscape:connector-curvature="0" />
<path
 sodipodi:nodetypes="sccsccs"
 inkscape:connector-curvature="0"
 id="path4702"
 d="m 0,-31 c -13.254834,0 -24,8.058875 -24,18 0,4.8630025 0.04272,8.5636329 0,13 0,9.9411255 10.745166,18 24,18 13.254834,0 24,-8.0588745 24,-18 0,-5.5058995 0,-13 0,-13 0,-9.941125 -10.745166,-18 -24,-18 z"
 style="color:#000000;fill:none;stroke:#000000;stroke-width:2;stroke-miterlimit:4;stroke-opacity:1;stroke-dasharray:none;marker:none;visibility:visible;display:inline;overflow:visible;enable-background:accumulate" />
</g>
<g
 id="g100"
 transform="translate(170,100)">
<path
 sodipodi:nodetypes="sccsccs"
 inkscape:connector-curvature="0"
 id="path4004"
 d="m 0,-24.5 c -13.254834,0 -24,8.058875 -24,18 0,2.288149 0.01072,4.4041171 0,6.5 0,9.9411255 10.745166,18 24,18 13.254834,0 24,-8.0588745 24,-18 0,-2.4494502 0,-6.5 0,-6.5 0,-9.941125 -10.745166,-18 -24,-18 z"
 style="color:#000000;fill:#c69745;fill-opacity:1;fill-rule:nonzero;stroke:none;stroke-width:0.30000001;marker:none;visibility:visible;display:inline;overflow:visible;enable-background:accumulate" />
<path
 style="color:#000000;fill:#cea55e;fill-opacity:1;fill-rule:nonzero;stroke:none;stroke-width:0.30000001;marker:none;visibility:visible;display:inline;overflow:visible;enable-background:accumulate"
 d="m 0,-24.5 c -13.254834,0 -24,8.058875 -24,18 0,9.9411255 10.745166,18 24,18 13.254834,0 24,-8.0588745 24,-18 0,-9.941125 -10.745166,-18 -24,-18 z"
 id="path4083"
 inkscape:connector-curvature="0" />
<path
 style="color:#000000;fill:#dcb674;fill-opacity:1;fill-rule:nonzero;stroke:none;stroke-width:0.30000001;marker:none;visibility:visible;display:inline;overflow:visible;enable-background:accumulate"
 d="m 0,-23.28125 c -11.520918,0 -20.875,7.015561 -20.875,15.65625 C -20.875,1.0156888 -11.520918,8 0,8 11.520918,8 20.875,1.0156888 20.875,-7.625 20.875,-16.265689 11.520918,-23.28125 0,-23.28125 z"
 id="path4174-5"
 inkscape:connector-curvature="0" />
<path
 inkscape:connector-curvature="0"
 id="path4138"
 d="m -1.3125,-13.09375 c -1.705832,-0.03177 -3.7607182,0.370249 -4.5451342,2.089508 -0.7149308,1.5879367 -0.7429659,3.5083885 -0.1108308,5.1267229 0.7327635,1.826387 2.8793944,2.3395584 4.655965,2.3150191 1.7076427,0.00637 3.7716354,-0.4172446 4.5627161,-2.1307318 0.7532063,-1.5999173 0.6787545,-3.538674 0.065664,-5.1713362 C 2.608637,-12.709731 0.42755085,-13.096292 -1.3125,-13.09375 z m 11.625,0 c -1.7058321,-0.03177 -3.7607182,0.370249 -4.5451342,2.089508 -0.7149309,1.5879367 -0.7429659,3.5083885 -0.1108308,5.1267229 0.7327635,1.826387 2.8793944,2.3395584 4.655965,2.3150191 1.707643,0.00637 3.771635,-0.4172449 4.562717,-2.1307318 0.753211,-1.5999167 0.67875,-3.5386737 0.06566,-5.1713362 -0.707242,-1.845163 -2.888328,-2.231723 -4.628379,-2.229182 z M -11,-12.90625 c -0.706673,1.383072 -2.466208,1.516748 -3.838233,1.610645 -0.904141,-0.305056 -0.675132,0.489022 -0.693017,1.050273 0.05704,0.3387945 0.730011,0.06166 1.035918,0.151582 0.842194,0 1.684388,0 2.526582,0 0,2.0729167 0,4.1458333 0,6.21875 0.96875,0 1.9375,0 2.90625,0 0,-3.0104167 0,-6.0208333 0,-9.03125 -0.6458333,0 -1.291667,0 -1.9375,0 z m 9.6875,1.25 c 1.36935577,-0.113156 2.12307971,1.294437 2.12124035,2.4875481 0.0374986,1.2598526 0.18584835,2.8413939 -0.85355656,3.7605977 -0.98477009,0.5410348 -2.64964809,0.4819563 -3.10306079,-0.7302009 -0.4878638,-1.3876767 -0.4657153,-2.9601089 -0.071278,-4.3687999 0.2491653,-0.824033 1.1082652,-1.176296 1.9066549,-1.149145 z m 11.625,0 c 1.2846,-0.11185 2.10885,1.135883 2.13278,2.2950382 0.08677,1.2971365 0.175237,2.8444253 -0.760417,3.8745667 -0.824387,0.5496954 -2.1124954,0.5717123 -2.86808,-0.1068073 C 7.9609227,-6.7220636 8.1497782,-8.26204 8.2263083,-9.588294 c 0.050358,-1.161939 0.83011,-2.181881 2.0861917,-2.067956 z"
 style="font-size:16.32674026px;font-style:normal;font-variant:normal;font-weight:bold;font-stretch:normal;line-height:125%;letter-spacing:0px;word-spacing:0px;fill:#4e3a27;fill-opacity:1;stroke:none;font-family:FreeSans;-inkscape-font-specification:Sans Bold" />
<path
 style="color:#000000;fill:none;stroke:#000000;stroke-width:2;stroke-miterlimit:4;stroke-opacity:1;stroke-dasharray:none;marker:none;visibility:visible;display:inline;overflow:visible;enable-background:accumulate"
 d="m 0,-24.5 c -13.254834,0 -24,8.058875 -24,18 0,2.288149 0.01072,4.4041171 0,6.5 0,9.9411255 10.745166,18 24,18 13.254834,0 24,-8.0588745 24,-18 0,-2.4494502 0,-6.5 0,-6.5 0,-9.941125 -10.745166,-18 -24,-18 z"
 id="path4112"
 inkscape:connector-curvature="0"
 sodipodi:nodetypes="sccsccs" />
</g>
<g
 id="g50"
 transform="translate(340,40)">
<use
 x="0"
 y="0"
 xlink:href="#helper"
 id="use4751"
 width="640"
 height="480" />
<path
 style="color:#000000;fill:#9f826c;fill-opacity:1;fill-rule:nonzero;stroke:none;stroke-width:0.30000001;marker:none;visibility:visible;display:inline;overflow:visible;enable-background:accumulate"
 d="m 0,-30.787732 c -9.9411255,0 -18,6.044156 -18,13.5 0,6.133355 0.128002,10.4968805 0,17.46093773 0,7.45584417 8.0588745,13.50000027 18,13.50000027 9.9411255,0 18,-6.0441561 18,-13.50000027 0,-5.35749873 0,-10.47153873 0,-17.46093773 0,-7.455844 -8.0588745,-13.5 -18,-13.5 z"
 id="path4452"
 inkscape:connector-curvature="0"
 sodipodi:nodetypes="sccsccs" />
<path
 inkscape:connector-curvature="0"
 style="color:#000000;fill:#ad9481;fill-opacity:1;fill-rule:nonzero;stroke:none;stroke-width:0.30000001;marker:none;visibility:visible;display:inline;overflow:visible;enable-background:accumulate"
 d="m 0,-30.787732 c -9.9411255,0 -18,6.044156 -18,13.5 0,7.455844 8.0588745,13.5000002 18,13.5000002 9.9411255,0 18,-6.0441562 18,-13.5000002 0,-7.455844 -8.0588745,-13.5 -18,-13.5 z"
 id="path4454" />
<path
 inkscape:connector-curvature="0"
 style="color:#000000;fill:#baa494;fill-opacity:1;fill-rule:nonzero;stroke:none;stroke-width:0.30000001;marker:none;visibility:visible;display:inline;overflow:visible;enable-background:accumulate"
 d="m 0,-29.920544 c -8.6406885,0 -15.65625,5.26167 -15.65625,11.742187 0,6.480517 7.0155615,11.7421877 15.65625,11.7421877 8.6406885,0 15.65625,-5.2616707 15.65625,-11.7421877 0,-6.480517 -7.0155615,-11.742187 -15.65625,-11.742187 z"
 id="path4456" />
<path
 sodipodi:nodetypes="cccccccccccccccccccccccccccc"
 style="font-size:16.32674026px;font-style:normal;font-variant:normal;font-weight:bold;font-stretch:normal;line-height:125%;letter-spacing:0px;word-spacing:0px;fill:#453322;fill-opacity:1;stroke:none;font-family:FreeSans;-inkscape-font-specification:Sans Bold"
 d="m 6.7616796,-24.206843 c -1.9821634,-0.02973 -4.3756875,0.416339 -5.2887921,2.414782 -0.93467002,2.118648 -0.91772206,4.820595 0.4060716,6.776377 1.4106323,1.820733 3.9804842,1.932371 6.0911407,1.759273 1.7702787,-0.149051 3.6874562,-1.009956 4.2380772,-2.840789 0.730045,-2.203642 0.686643,-4.984255 -0.959278,-6.7772 -1.198597,-1.088597 -2.9273318,-1.323732 -4.4872194,-1.332443 z m -17.4072866,0.216688 c -0.505606,1.938155 -1.011212,3.876311 -1.516818,5.814467 1.023251,0 2.0465,0 3.0697491,0 1.0231403,-1.09527 2.9497097,-1.003994 4.153192,-0.252803 1.2777565,0.810308 0.8268105,2.914509 -0.6157529,3.252204 -1.2795833,0.399604 -3.4008636,0.409939 -3.8346289,-1.085322 -1.0806833,0 -2.1613673,0 -3.2420513,0 0.09402,1.812968 2.107737,2.614247 3.6381175,2.898183 2.5616764,0.380125 5.6322147,0.25154 7.524728,-1.752844 1.28464178,-1.419669 0.63958175,-3.805698 -1.0215165,-4.625107 -1.9877361,-1.096018 -4.529508,-1.13585 -6.6020879,-0.240045 0.1805748,-0.722294 0.3611474,-1.444589 0.5417222,-2.166882 2.3594932,0 4.7189872,0 7.0784811,0 0,-0.613951 0,-1.2279 0,-1.841851 -3.0577109,0 -6.1154229,0 -9.1731344,0 z m 17.4072866,1.444588 c 1.6927181,-0.132856 2.5006881,1.669335 2.4691627,3.107234 0.015509,1.420512 0.1773234,3.300031 -1.1690334,4.187936 -1.193277,0.576533 -3.1318707,0.384467 -3.5031262,-1.119555 -0.450618,-1.647842 -0.5029269,-3.506059 0.117054,-5.117397 0.3676164,-0.787792 1.2746152,-1.076753 2.0859429,-1.058218 z"
 id="path4458"
 inkscape:connector-curvature="0" />
<path
 sodipodi:nodetypes="sccsccs"
 inkscape:connector-curvature="0"
 id="path4460"
 d="m 0,-30.787732 c -9.9411255,0 -18,6.044156 -18,13.5 0,6.133355 0.128002,10.4968805 0,17.46093773 0,7.45584417 8.0588745,13.50000027 18,13.50000027 9.9411255,0 18,-6.0441561 18,-13.50000027 0,-5.35749873 0,-10.47153873 0,-17.46093773 0,-7.455844 -8.0588745,-13.5 -18,-13.5 z"
 style="color:#000000;fill:none;stroke:#000000;stroke-width:2;stroke-miterlimit:4;stroke-opacity:1;stroke-dasharray:none;marker:none;visibility:visible;display:inline;overflow:visible;enable-background:accumulate" />
</g>
<g
 id="g20"
 transform="translate(410,40)">
<use
 x="0"
 y="0"
 xlink:href="#helper"
 id="use4747"
 width="640"
 height="480" />
<path
 style="color:#000000;fill:#9f826c;fill-opacity:1;fill-rule:nonzero;stroke:none;stroke-width:0.30000001;marker:none;visibility:visible;display:inline;overflow:visible;enable-background:accumulate"
 d="m 0,-23.076794 c -9.9411255,0 -18,6.044156 -18,13.4999997 0,3.6472519 0.03204,6.4227247 0,9.75000003 0,7.45584417 8.0588745,13.50000027 18,13.50000027 9.9411255,0 18,-6.0441561 18,-13.50000027 C 18,-3.9562189 18,-9.5767943 18,-9.5767943 18,-17.032638 9.9411255,-23.076794 0,-23.076794 z"
 id="path4464"
 inkscape:connector-curvature="0"
 sodipodi:nodetypes="sccsccs" />
<path
 inkscape:connector-curvature="0"
 id="path4466"
 d="m 0,-23.076794 c -9.9411255,0 -18,6.044156 -18,13.4999997 0,7.4558442 8.0588745,13.5 18,13.5 9.9411255,0 18,-6.0441558 18,-13.5 C 18,-17.032638 9.9411255,-23.076794 0,-23.076794 z"
 style="color:#000000;fill:#ad9481;fill-opacity:1;fill-rule:nonzero;stroke:none;stroke-width:0.30000001;marker:none;visibility:visible;display:inline;overflow:visible;enable-background:accumulate" />
<path
 inkscape:connector-curvature="0"
 id="path4468"
 d="m 0,-22.373669 c -8.6406885,0 -15.65625,5.26167 -15.65625,11.742187 0,6.4805168 7.0155615,11.7421877 15.65625,11.7421877 8.6406885,0 15.65625,-5.2616709 15.65625,-11.7421877 0,-6.480517 -7.0155615,-11.742187 -15.65625,-11.742187 z"
 style="color:#000000;fill:#baa494;fill-opacity:1;fill-rule:nonzero;stroke:none;stroke-width:0.30000001;marker:none;visibility:visible;display:inline;overflow:visible;enable-background:accumulate" />
<path
 sodipodi:nodetypes="cccccccccccccccccccccccccccc"
 inkscape:connector-curvature="0"
 id="path4470"
 d="m -6.8352607,-16.641557 c -1.9564272,0.0038 -4.4882463,0.322547 -5.4090843,2.326052 -0.360017,0.783596 -0.385048,1.860996 0.708529,1.527386 0.774558,0 1.5491136,0 2.323671,0 -0.1977017,-1.145699 0.7823523,-2.125892 1.903453,-2.163524 1.2179841,-0.237365 3.15089,0.314309 2.9453823,1.871197 -0.3091134,1.49301 -2.0630051,1.874978 -3.2128336,2.529481 -1.7126998,0.8519915 -3.9229297,1.3652463 -4.7996827,3.248242 -0.441644,0.8350112 -0.376164,1.5591836 0.668054,1.2851299 3.5448882,0 7.0897759,0 10.6346637,0 0,-0.6122284 0,-1.2244567 0,-1.8366851 -2.4008959,0 -4.8017916,0 -7.2026875,0 1.3717923,-1.4236079 3.4545137,-1.7521321 5.1139084,-2.7370218 1.3473816,-0.610539 2.64092681,-2.097309 2.0066623,-3.651254 -0.9546503,-2.047103 -3.6888132,-2.374233 -5.6800356,-2.399003 z m 13.4330107,0 c -1.9766053,-0.02964 -4.363418,0.415172 -5.273962,2.408012 -0.93204902,2.112708 -0.91514856,4.8070782 0.4049332,6.757376 1.4066762,1.8156285 3.9693225,1.9269514 6.0740605,1.7543392 1.7653145,-0.1486389 3.6771153,-1.0071235 4.2261923,-2.8328235 0.727999,-2.1974627 0.684718,-4.9702787 -0.956587,-6.7581967 -1.1952365,-1.085544 -2.9191239,-1.320021 -4.474637,-1.328707 z m 0,1.656618 c 1.687972,-0.132483 2.4936758,1.664656 2.4622391,3.098523 0.015466,1.416528 0.1768261,3.2907766 -1.1657555,4.1761915 -1.1899304,0.5749172 -3.1230891,0.383389 -3.4933031,-1.1164164 -0.4493547,-1.6432201 -0.5015167,-3.4962261 0.1167258,-5.1030471 0.3665858,-0.785584 1.2710406,-1.073734 2.0800937,-1.055251 z"
 style="font-size:16.32674026px;font-style:normal;font-variant:normal;font-weight:bold;font-stretch:normal;line-height:125%;letter-spacing:0px;word-spacing:0px;fill:#453322;fill-opacity:1;stroke:none;font-family:FreeSans;-inkscape-font-specification:Sans Bold" />
<path
 sodipodi:nodetypes="sccsccs"
 inkscape:connector-curvature="0"
 id="path4472"
 d="m 0,-23.076794 c -9.9411255,0 -18,6.044156 -18,13.4999997 0,3.6472519 0.03204,6.4227247 0,9.75000003 0,7.45584417 8.0588745,13.50000027 18,13.50000027 9.9411255,0 18,-6.0441561 18,-13.50000027 C 18,-3.9562189 18,-9.5767943 18,-9.5767943 18,-17.032638 9.9411255,-23.076794 0,-23.076794 z"
 style="color:#000000;fill:none;stroke:#000000;stroke-width:2;stroke-miterlimit:4;stroke-opacity:1;stroke-dasharray:none;marker:none;visibility:visible;display:inline;overflow:visible;enable-background:accumulate" />
</g>
<g
 transform="translate(410,100)"
 id="h20">
<use
 x="0"
 y="0"
 xlink:href="#helper"
 id="use4749"
 width="640"
 height="480" />
<path
 sodipodi:nodetypes="sccsccs"
 inkscape:connector-curvature="0"
 id="path4706"
 d="m 0,-23.076794 c -9.9411255,0 -18,6.044156 -18,13.4999997 0,3.6472519 0.03204,6.4227247 0,9.75000003 0,7.45584417 8.0588745,13.50000027 18,13.50000027 9.9411255,0 18,-6.0441561 18,-13.50000027 C 18,-3.9562189 18,-9.5767943 18,-9.5767943 18,-17.032638 9.9411255,-23.076794 0,-23.076794 z"
 style="color:#000000;fill:#9f826c;fill-opacity:1;fill-rule:nonzero;stroke:none;stroke-width:0.30000001;marker:none;visibility:visible;display:inline;overflow:visible;enable-background:accumulate" />
<path
 style="color:#000000;fill:#ad9481;fill-opacity:1;fill-rule:nonzero;stroke:none;stroke-width:0.30000001;marker:none;visibility:visible;display:inline;overflow:visible;enable-background:accumulate"
 d="m 0,-23.076794 c -9.9411255,0 -18,6.044156 -18,13.4999997 0,7.4558442 8.0588745,13.5 18,13.5 9.9411255,0 18,-6.0441558 18,-13.5 C 18,-17.032638 9.9411255,-23.076794 0,-23.076794 z"
 id="path4708"
 inkscape:connector-curvature="0" />
<path
 style="color:#000000;fill:#baa494;fill-opacity:1;fill-rule:nonzero;stroke:none;stroke-width:0.30000001;marker:none;visibility:visible;display:inline;overflow:visible;enable-background:accumulate"
 d="m 0,-22.373669 c -8.6406885,0 -15.65625,5.26167 -15.65625,11.742187 0,6.4805168 7.0155615,11.7421877 15.65625,11.7421877 8.6406885,0 15.65625,-5.2616709 15.65625,-11.7421877 0,-6.480517 -7.0155615,-11.742187 -15.65625,-11.742187 z"
 id="path4710"
 inkscape:connector-curvature="0" />
<path
 style="font-size:16.32674026px;font-style:normal;font-variant:normal;font-weight:bold;font-stretch:normal;line-height:125%;letter-spacing:0px;word-spacing:0px;fill:#453322;fill-opacity:1;stroke:none;font-family:FreeSans;-inkscape-font-specification:Sans Bold"
 d="m -6.8352607,-16.641557 c -1.9564272,0.0038 -4.4882463,0.322547 -5.4090843,2.326052 -0.360017,0.783596 -0.385048,1.860996 0.708529,1.527386 0.774558,0 1.5491136,0 2.323671,0 -0.1977017,-1.145699 0.7823523,-2.125892 1.903453,-2.163524 1.2179841,-0.237365 3.15089,0.314309 2.9453823,1.871197 -0.3091134,1.49301 -2.0630051,1.874978 -3.2128336,2.529481 -1.7126998,0.8519915 -3.9229297,1.3652463 -4.7996827,3.248242 -0.441644,0.8350112 -0.376164,1.5591836 0.668054,1.2851299 3.5448882,0 7.0897759,0 10.6346637,0 0,-0.6122284 0,-1.2244567 0,-1.8366851 -2.4008959,0 -4.8017916,0 -7.2026875,0 1.3717923,-1.4236079 3.4545137,-1.7521321 5.1139084,-2.7370218 1.3473816,-0.610539 2.64092681,-2.097309 2.0066623,-3.651254 -0.9546503,-2.047103 -3.6888132,-2.374233 -5.6800356,-2.399003 z m 13.4330107,0 c -1.9766053,-0.02964 -4.363418,0.415172 -5.273962,2.408012 -0.93204902,2.112708 -0.91514856,4.8070782 0.4049332,6.757376 1.4066762,1.8156285 3.9693225,1.9269514 6.0740605,1.7543392 1.7653145,-0.1486389 3.6771153,-1.0071235 4.2261923,-2.8328235 0.727999,-2.1974627 0.684718,-4.9702787 -0.956587,-6.7581967 -1.1952365,-1.085544 -2.9191239,-1.320021 -4.474637,-1.328707 z m 0,1.656618 c 1.687972,-0.132483 2.4936758,1.664656 2.4622391,3.098523 0.015466,1.416528 0.1768261,3.2907766 -1.1657555,4.1761915 -1.1899304,0.5749172 -3.1230891,0.383389 -3.4933031,-1.1164164 -0.4493547,-1.6432201 -0.5015167,-3.4962261 0.1167258,-5.1030471 0.3665858,-0.785584 1.2710406,-1.073734 2.0800937,-1.055251 z"
 id="path4712"
 inkscape:connector-curvature="0"
 sodipodi:nodetypes="cccccccccccccccccccccccccccc" />
<path
 style="color:#000000;fill:none;stroke:#000000;stroke-width:2;stroke-miterlimit:4;stroke-opacity:1;stroke-dasharray:none;marker:none;visibility:visible;display:inline;overflow:visible;enable-background:accumulate"
 d="m 0,-23.076794 c -9.9411255,0 -18,6.044156 -18,13.4999997 0,3.6472519 0.03204,6.4227247 0,9.75000003 0,7.45584417 8.0588745,13.50000027 18,13.50000027 9.9411255,0 18,-6.0441561 18,-13.50000027 C 18,-3.9562189 18,-9.5767943 18,-9.5767943 18,-17.032638 9.9411255,-23.076794 0,-23.076794 z"
 id="path4714"
 inkscape:connector-curvature="0"
 sodipodi:nodetypes="sccsccs" />
</g>
<g
 id="g10"
 transform="translate(340,100)">
<use
 x="0"
 y="0"
 xlink:href="#helper"
 id="use4745"
 width="640"
 height="480" />
<path
 style="color:#000000;fill:#9f826c;fill-opacity:1;fill-rule:nonzero;stroke:none;stroke-width:0.30000001;marker:none;visibility:visible;display:inline;overflow:visible;enable-background:accumulate"
 d="m 0,-18.201794 c -9.9411255,0 -18,6.044156 -18,13.4999997 0,1.7161118 0.008,3.3030879 0,4.87500003 0,7.45584417 8.0588745,13.50000027 18,13.50000027 9.9411255,0 18,-6.0441561 18,-13.50000027 C 18,-1.6638819 18,-4.7017943 18,-4.7017943 18,-12.157638 9.9411255,-18.201794 0,-18.201794 z"
 id="path4476"
 inkscape:connector-curvature="0"
 sodipodi:nodetypes="sccsccs" />
<path
 inkscape:connector-curvature="0"
 id="path4478"
 d="m 0,-18.201794 c -9.9411255,0 -18,6.044156 -18,13.4999997 0,7.4558442 8.0588745,13.5 18,13.5 9.9411255,0 18,-6.0441558 18,-13.5 C 18,-12.157638 9.9411255,-18.201794 0,-18.201794 z"
 style="color:#000000;fill:#ad9481;fill-opacity:1;fill-rule:nonzero;stroke:none;stroke-width:0.30000001;marker:none;visibility:visible;display:inline;overflow:visible;enable-background:accumulate" />
<path
 inkscape:connector-curvature="0"
 id="path4480"
 d="m 0,-17.287732 c -8.6406885,0 -15.65625,5.261671 -15.65625,11.7421877 0,6.48051663 7.0155615,11.71875 15.65625,11.71875 8.6406885,0 15.65625,-5.23823337 15.65625,-11.71875 C 15.65625,-12.026061 8.6406885,-17.287732 0,-17.287732 z"
 style="color:#000000;fill:#baa494;fill-opacity:1;fill-rule:nonzero;stroke:none;stroke-width:0.30000001;marker:none;visibility:visible;display:inline;overflow:visible;enable-background:accumulate" />
<path
 sodipodi:nodetypes="cccccccccccccccccccccc"
 style="font-size:16.32674026px;font-style:normal;font-variant:normal;font-weight:bold;font-stretch:normal;line-height:125%;letter-spacing:0px;word-spacing:0px;fill:#453322;fill-opacity:1;stroke:none;font-family:FreeSans;-inkscape-font-specification:Sans Bold"
 d="m 5.1183845,-11.807866 c -2.0528778,-0.03823 -4.5258237,0.445575 -5.46982651,2.5146119 -0.86038109,1.9109972 -0.89411989,4.2221584 -0.13337879,6.1697375 0.88184174,2.1979594 3.4651976,2.81553372 5.6032054,2.78600194 2.0550569,0.00767 4.5389621,-0.50213153 5.4909854,-2.56422194 0.906444,-1.9254152 0.816845,-4.2586054 0.07902,-6.2234273 C 9.8372608,-11.345719 7.21244,-11.810925 5.1183815,-11.807866 z m -11.6583894,0.225647 c -0.8504434,1.6644531 -2.9679498,1.825325 -4.6191091,1.9383251 -1.088084,-0.3671191 -0.812485,0.5885119 -0.834008,1.2639475 0.06865,0.4077211 0.878529,0.074205 1.246671,0.1824208 1.0135368,0 2.0270716,0 3.0406071,0 0,2.4946448 0,4.9892892 0,7.48393387 1.165839,0 2.3316779,0 3.4975169,0 0,-3.62287587 0,-7.24575157 0,-10.86862727 -0.777226,0 -1.5544523,0 -2.3316779,0 z m 11.6583894,1.504308 c 1.6479466,-0.136177 2.5550132,1.557786 2.5527995,2.9936315 0.045128,1.5161655 0.2236586,3.4194659 -1.0272098,4.5256787 -1.1851183,0.6511066 -3.18871,0.5800087 -3.7343681,-0.8787578 C 2.3224881,-5.1073535 2.3491427,-6.9996918 2.8238281,-8.6949762 3.1236852,-9.686656 4.1575662,-10.110586 5.118385,-10.077911 z"
 id="path4482"
 inkscape:connector-curvature="0" />
<path
 sodipodi:nodetypes="sccsccs"
 inkscape:connector-curvature="0"
 id="path4484"
 d="m 0,-18.201794 c -9.9411255,0 -18,6.044156 -18,13.4999997 0,1.7161118 0.008,3.3030879 0,4.87500003 0,7.45584417 8.0588745,13.50000027 18,13.50000027 9.9411255,0 18,-6.0441561 18,-13.50000027 C 18,-1.6638819 18,-4.7017943 18,-4.7017943 18,-12.157638 9.9411255,-18.201794 0,-18.201794 z"
 style="color:#000000;fill:none;stroke:#000000;stroke-width:2;stroke-miterlimit:4;stroke-opacity:1;stroke-dasharray:none;marker:none;visibility:visible;display:inline;overflow:visible;enable-background:accumulate" />
</g>
<g
 id="g5"
 transform="translate(510,40)">
<use
 x="0"
 y="0"
 xlink:href="#helper"
 id="use4743"
 width="640"
 height="480" />
<path
 style="color:#000000;fill:#494334;fill-opacity:1;fill-rule:nonzero;stroke:none;stroke-width:0.30000001;marker:none;visibility:visible;display:inline;overflow:visible;enable-background:accumulate"
 d="m 0,-20.496372 c -6.627417,0 -12,4.029438 -12,9 0,4.0889034 0.08533,6.9979206 0,11.64062539 0,4.97056271 5.372583,9.00000001 12,9.00000001 6.627417,0 12,-4.0294373 12,-9.00000001 0,-3.57166579 0,-6.98102599 0,-11.64062539 0,-4.970562 -5.372583,-9 -12,-9 z"
 id="path4508"
 inkscape:connector-curvature="0"
 sodipodi:nodetypes="sccsccs" />
<path
 inkscape:connector-curvature="0"
 style="color:#000000;fill:#5a5340;fill-opacity:1;fill-rule:nonzero;stroke:none;stroke-width:0.30000001;marker:none;visibility:visible;display:inline;overflow:visible;enable-background:accumulate"
 d="m 0,-20.496372 c -6.627417,0 -12,4.029438 -12,9 0,4.9705629 5.372583,9.0000004 12,9.0000004 6.627417,0 12,-4.0294375 12,-9.0000004 0,-4.970562 -5.372583,-9 -12,-9 z"
 id="path4510" />
<path
 inkscape:connector-curvature="0"
 style="color:#000000;fill:#6b624c;fill-opacity:1;fill-rule:nonzero;stroke:none;stroke-width:0.30000001;marker:none;visibility:visible;display:inline;overflow:visible;enable-background:accumulate"
 d="m 0,-19.918247 c -5.760459,0 -10.4375,3.507781 -10.4375,7.828125 0,4.3203449 4.677041,7.8281254 10.4375,7.8281254 5.760459,0 10.4375,-3.5077805 10.4375,-7.8281254 0,-4.320344 -4.677041,-7.828125 -10.4375,-7.828125 z"
 id="path4512" />
<path
 sodipodi:nodetypes="ccccccccccccccc"
 style="font-size:16.32674026px;font-style:normal;font-variant:normal;font-weight:bold;font-stretch:normal;line-height:125%;letter-spacing:0px;word-spacing:0px;fill:#2c2116;fill-opacity:1;stroke:none;font-family:FreeSans;-inkscape-font-specification:Sans Bold"
 d="m -3.6044366,-17.010249 c -0.4326125,1.658349 -0.865225,3.316697 -1.2978375,4.975044 0.8755256,0 1.7510502,0 2.6265758,0 0.8754307,-0.937149 2.52386519,-0.859049 3.5536025,-0.216307 1.0932893,0.693325 0.7074455,2.4937467 -0.5268577,2.7826903 -1.09485268,0.3419132 -2.909887,0.3507553 -3.281031,-0.9286363 -0.9246674,0 -1.8493338,0 -2.7740011,0 0.080451,1.5512324 1.8034462,2.2368327 3.1128875,2.479778 2.19185317056,0.3252463 4.819103,0.2152244 6.4383979,-1.4997898 1.0991804,-1.2147122 0.5472464,-3.2562772 -0.8740423,-3.9573882 -1.7007702,-0.937788 -3.87559168,-0.971871 -5.6489558,-0.205392 0.1545044,-0.618018 0.3090089,-1.236036 0.4635133,-1.854053 2.01885866,0 4.0377165,0 6.0565747,0 0,-0.525316 0,-1.050631 0,-1.575946 -2.6162751,0 -5.23255115,0 -7.8488263,0 z"
 id="path4514"
 inkscape:connector-curvature="0" />
<path
 sodipodi:nodetypes="sccsccs"
 inkscape:connector-curvature="0"
 id="path4516"
 d="m 0,-20.496372 c -6.627417,0 -12,4.029438 -12,9 0,4.0889034 0.08533,6.9979206 0,11.64062539 0,4.97056271 5.372583,9.00000001 12,9.00000001 6.627417,0 12,-4.0294373 12,-9.00000001 0,-3.57166579 0,-6.98102599 0,-11.64062539 0,-4.970562 -5.372583,-9 -12,-9 z"
 style="color:#000000;fill:none;stroke:#000000;stroke-width:2;stroke-miterlimit:4;stroke-opacity:1;stroke-dasharray:none;marker:none;visibility:visible;display:inline;overflow:visible;enable-background:accumulate" />
</g>
<g
 id="g2"
 transform="translate(580,40)">
<use
 x="0"
 y="0"
 xlink:href="#helper"
 id="use4739"
 width="640"
 height="480" />
<path
 style="color:#000000;fill:#494334;fill-opacity:1;fill-rule:nonzero;stroke:none;stroke-width:0.30000001;marker:none;visibility:visible;display:inline;overflow:visible;enable-background:accumulate"
 d="m 0,-15.355747 c -6.627417,0 -12,4.029438 -12,9.0000004 0,2.4315012 0.02136,4.2818164 0,6.49999999 0,4.97056271 5.372583,9.00000001 12,9.00000001 6.627417,0 12,-4.0294373 12,-9.00000001 0,-2.75294979 0,-6.49999999 0,-6.49999999 0,-4.9705624 -5.372583,-9.0000004 -12,-9.0000004 z"
 id="path4520"
 inkscape:connector-curvature="0"
 sodipodi:nodetypes="sccsccs" />
<path
 inkscape:connector-curvature="0"
 id="path4522"
 d="m 0,-15.355747 c -6.627417,0 -12,4.029438 -12,9.0000004 0,4.9705627 5.372583,9 12,9 6.627417,0 12,-4.0294373 12,-9 0,-4.9705624 -5.372583,-9.0000004 -12,-9.0000004 z"
 style="color:#000000;fill:#5a5340;fill-opacity:1;fill-rule:nonzero;stroke:none;stroke-width:0.30000001;marker:none;visibility:visible;display:inline;overflow:visible;enable-background:accumulate" />
<path
 inkscape:connector-curvature="0"
 id="path4524"
 d="m 0,-14.886997 c -5.760459,0 -10.4375,3.507781 -10.4375,7.8281254 0,4.3203444 4.677041,7.82812499 10.4375,7.82812499 5.760459,0 10.4375,-3.50778059 10.4375,-7.82812499 0,-4.3203444 -4.677041,-7.8281254 -10.4375,-7.8281254 z"
 style="color:#000000;fill:#6b624c;fill-opacity:1;fill-rule:nonzero;stroke:none;stroke-width:0.30000001;marker:none;visibility:visible;display:inline;overflow:visible;enable-background:accumulate" />
<path
 inkscape:connector-curvature="0"
 id="path4526"
 d="m -0.41421927,-11.934743 c -1.34808133,0.01041 -2.81591693,0.160872 -3.88842103,1.06221 -0.6212109,0.51831 -0.9198965,1.3718682 -0.7880658,2.1660745 0.8950696,0 1.790139,0 2.6852086,0 -0.030254,-0.4967797 0.057524,-1.0443572 0.4793575,-1.3661585 0.6994307,-0.547338 1.68182248,-0.564214 2.50826834,-0.347288 0.60921766,0.161218 1.16369666,0.7113772 1.08271536,1.3808433 -0.035203,0.7788643 -0.75921263,1.2352382 -1.38036749,1.5575532 -1.37965091,0.774782 -2.92469841,1.2210185 -4.24934751,2.0966785 -0.7468791,0.4535326 -1.2247633,1.2656138 -1.3130351,2.1288058 -0.1488887,0.3256051 0.2112043,0.1978032 0.3990522,0.2216918 3.0973255,0 6.1946508,0 9.2919763,0 0,-0.512905 0,-1.0258101 0,-1.5387151 -2.0113923,0 -4.02278442,0 -6.0341766,0 0.5747401,-0.6751519 1.43901625,-0.9878349 2.22372356,-1.3486761 C 1.4966176,-6.2939172 2.3967335,-6.6751988 3.2155246,-7.1962145 3.9240634,-7.6706752 4.5664827,-8.4392729 4.4683042,-9.3454392 4.4344588,-10.266837 3.6789706,-10.954294 2.8920218,-11.314821 c -1.0249404,-0.49251 -2.18245474,-0.615608 -3.30624107,-0.619922 z"
 style="font-size:16.32674026px;font-style:normal;font-variant:normal;font-weight:bold;font-stretch:normal;line-height:125%;letter-spacing:0px;word-spacing:0px;fill:#2c2116;fill-opacity:1;stroke:none;font-family:FreeSans;-inkscape-font-specification:Sans Bold" />
<path
 sodipodi:nodetypes="sccsccs"
 inkscape:connector-curvature="0"
 id="path4528"
 d="m 0,-15.355747 c -6.627417,0 -12,4.029438 -12,9.0000004 0,2.4315012 0.02136,4.2818164 0,6.49999999 0,4.97056271 5.372583,9.00000001 12,9.00000001 6.627417,0 12,-4.0294373 12,-9.00000001 0,-2.75294979 0,-6.49999999 0,-6.49999999 0,-4.9705624 -5.372583,-9.0000004 -12,-9.0000004 z"
 style="color:#000000;fill:none;stroke:#000000;stroke-width:2;stroke-miterlimit:4;stroke-opacity:1;stroke-dasharray:none;marker:none;visibility:visible;display:inline;overflow:visible;enable-background:accumulate" />
</g>
<g
 transform="translate(580,100)"
 id="h2">
<use
 x="0"
 y="0"
 xlink:href="#helper"
 id="use4741"
 width="640"
 height="480" />
<path
 sodipodi:nodetypes="sccsccs"
 inkscape:connector-curvature="0"
 id="path4718"
 d="m 0,-15.355747 c -6.627417,0 -12,4.029438 -12,9.0000004 0,2.4315012 0.02136,4.2818164 0,6.49999999 0,4.97056271 5.372583,9.00000001 12,9.00000001 6.627417,0 12,-4.0294373 12,-9.00000001 0,-2.75294979 0,-6.49999999 0,-6.49999999 0,-4.9705624 -5.372583,-9.0000004 -12,-9.0000004 z"
 style="color:#000000;fill:#494334;fill-opacity:1;fill-rule:nonzero;stroke:none;stroke-width:0.30000001;marker:none;visibility:visible;display:inline;overflow:visible;enable-background:accumulate" />
<path
 style="color:#000000;fill:#5a5340;fill-opacity:1;fill-rule:nonzero;stroke:none;stroke-width:0.30000001;marker:none;visibility:visible;display:inline;overflow:visible;enable-background:accumulate"
 d="m 0,-15.355747 c -6.627417,0 -12,4.029438 -12,9.0000004 0,4.9705627 5.372583,9 12,9 6.627417,0 12,-4.0294373 12,-9 0,-4.9705624 -5.372583,-9.0000004 -12,-9.0000004 z"
 id="path4720"
 inkscape:connector-curvature="0" />
<path
 style="color:#000000;fill:#6b624c;fill-opacity:1;fill-rule:nonzero;stroke:none;stroke-width:0.30000001;marker:none;visibility:visible;display:inline;overflow:visible;enable-background:accumulate"
 d="m 0,-14.886997 c -5.760459,0 -10.4375,3.507781 -10.4375,7.8281254 0,4.3203444 4.677041,7.82812499 10.4375,7.82812499 5.760459,0 10.4375,-3.50778059 10.4375,-7.82812499 0,-4.3203444 -4.677041,-7.8281254 -10.4375,-7.8281254 z"
 id="path4722"
 inkscape:connector-curvature="0" />
<path
 style="font-size:16.32674026px;font-style:normal;font-variant:normal;font-weight:bold;font-stretch:normal;line-height:125%;letter-spacing:0px;word-spacing:0px;fill:#2c2116;fill-opacity:1;stroke:none;font-family:FreeSans;-inkscape-font-specification:Sans Bold"
 d="m -0.41421927,-11.934743 c -1.34808133,0.01041 -2.81591693,0.160872 -3.88842103,1.06221 -0.6212109,0.51831 -0.9198965,1.3718682 -0.7880658,2.1660745 0.8950696,0 1.790139,0 2.6852086,0 -0.030254,-0.4967797 0.057524,-1.0443572 0.4793575,-1.3661585 0.6994307,-0.547338 1.68182248,-0.564214 2.50826834,-0.347288 0.60921766,0.161218 1.16369666,0.7113772 1.08271536,1.3808433 -0.035203,0.7788643 -0.75921263,1.2352382 -1.38036749,1.5575532 -1.37965091,0.774782 -2.92469841,1.2210185 -4.24934751,2.0966785 -0.7468791,0.4535326 -1.2247633,1.2656138 -1.3130351,2.1288058 -0.1488887,0.3256051 0.2112043,0.1978032 0.3990522,0.2216918 3.0973255,0 6.1946508,0 9.2919763,0 0,-0.512905 0,-1.0258101 0,-1.5387151 -2.0113923,0 -4.02278442,0 -6.0341766,0 0.5747401,-0.6751519 1.43901625,-0.9878349 2.22372356,-1.3486761 C 1.4966176,-6.2939172 2.3967335,-6.6751988 3.2155246,-7.1962145 3.9240634,-7.6706752 4.5664827,-8.4392729 4.4683042,-9.3454392 4.4344588,-10.266837 3.6789706,-10.954294 2.8920218,-11.314821 c -1.0249404,-0.49251 -2.18245474,-0.615608 -3.30624107,-0.619922 z"
 id="path4724"
 inkscape:connector-curvature="0" />
<path
 style="color:#000000;fill:none;stroke:#000000;stroke-width:2;stroke-miterlimit:4;stroke-opacity:1;stroke-dasharray:none;marker:none;visibility:visible;display:inline;overflow:visible;enable-background:accumulate"
 d="m 0,-15.355747 c -6.627417,0 -12,4.029438 -12,9.0000004 0,2.4315012 0.02136,4.2818164 0,6.49999999 0,4.97056271 5.372583,9.00000001 12,9.00000001 6.627417,0 12,-4.0294373 12,-9.00000001 0,-2.75294979 0,-6.49999999 0,-6.49999999 0,-4.9705624 -5.372583,-9.0000004 -12,-9.0000004 z"
 id="path4726"
 inkscape:connector-curvature="0"
 sodipodi:nodetypes="sccsccs" />
</g>
<g
 id="g1"
 transform="translate(510,100)">
<use
 x="0"
 y="0"
 xlink:href="#helper"
 id="use4737"
 width="640"
 height="480" />
<path
 style="color:#000000;fill:#494334;fill-opacity:1;fill-rule:nonzero;stroke:none;stroke-width:0.30000001;marker:none;visibility:visible;display:inline;overflow:visible;enable-background:accumulate"
 d="m 0,-12.105747 c -6.627417,0 -12,4.0294379 -12,9.0000004 0,1.1440745 0.0054,2.20205854 0,3.24999999 0,4.97056271 5.372583,9.00000001 12,9.00000001 6.627417,0 12,-4.0294373 12,-9.00000001 0,-1.22472509 0,-3.24999999 0,-3.24999999 0,-4.9705625 -5.372583,-9.0000004 -12,-9.0000004 z"
 id="path4532"
 inkscape:connector-curvature="0"
 sodipodi:nodetypes="sccsccs" />
<path
 inkscape:connector-curvature="0"
 id="path4534"
 d="m 0,-12.105747 c -6.627417,0 -12,4.0294379 -12,9.0000004 0,4.9705627 5.372583,9 12,9 6.627417,0 12,-4.0294373 12,-9 0,-4.9705625 -5.372583,-9.0000004 -12,-9.0000004 z"
 style="color:#000000;fill:#5a5340;fill-opacity:1;fill-rule:nonzero;stroke:none;stroke-width:0.30000001;marker:none;visibility:visible;display:inline;overflow:visible;enable-background:accumulate" />
<path
 inkscape:connector-curvature="0"
 id="path4536"
 d="m 0,-11.496372 c -5.760459,0 -10.4375,3.5077809 -10.4375,7.8281254 0,4.32034439 4.677041,7.8125 10.4375,7.8125 5.760459,0 10.4375,-3.49215561 10.4375,-7.8125 0,-4.3203445 -4.677041,-7.8281254 -10.4375,-7.8281254 z"
 style="color:#000000;fill:#6b624c;fill-opacity:1;fill-rule:nonzero;stroke:none;stroke-width:0.30000001;marker:none;visibility:visible;display:inline;overflow:visible;enable-background:accumulate" />
<path
 sodipodi:nodetypes="ccccccccc"
 style="font-size:16.32674026px;font-style:normal;font-variant:normal;font-weight:bold;font-stretch:normal;line-height:125%;letter-spacing:0px;word-spacing:0px;fill:#2c2116;fill-opacity:1;stroke:none;font-family:FreeSans;-inkscape-font-specification:Sans Bold"
 d="m -0.12549057,-8.8135006 c -0.7452986,1.4586684 -2.60100683,1.5996509 -4.04802443,1.6986801 -0.9535599,-0.3217298 -0.7120336,0.5157512 -0.7308962,1.1076792 0.060158,0.3573123 0.7699122,0.06503 1.0925396,0.1598672 0.8882269,0 1.7764538,0 2.6646807,0 0,2.1862188 0,4.3724376 0,6.55865654 1.02170033,0 2.04340063,0 3.0651008,0 0,-3.17496114 0,-6.34992214 0,-9.52488304 -0.6811333,0 -1.36226727,0 -2.04340047,0 z"
 id="path4538"
 inkscape:connector-curvature="0" />
<path
 sodipodi:nodetypes="sccsccs"
 inkscape:connector-curvature="0"
 id="path4540"
 d="m 0,-12.105747 c -6.627417,0 -12,4.0294379 -12,9.0000004 0,1.1440745 0.0054,2.20205854 0,3.24999999 0,4.97056271 5.372583,9.00000001 12,9.00000001 6.627417,0 12,-4.0294373 12,-9.00000001 0,-1.22472509 0,-3.24999999 0,-3.24999999 0,-4.9705625 -5.372583,-9.0000004 -12,-9.0000004 z"
 style="color:#000000;fill:none;stroke:#000000;stroke-width:2;stroke-miterlimit:4;stroke-opacity:1;stroke-dasharray:none;marker:none;visibility:visible;display:inline;overflow:visible;enable-background:accumulate" />
</g>
<rect
 style="color:#000000;fill:#745232;fill-opacity:1;fill-rule:nonzero;stroke:none;stroke-width:2;marker:none;visibility:visible;display:inline;overflow:visible;enable-background:accumulate"
 id="rect4843"
 width="599.62646"
 height="166.44182"
 x="20.575417"
 y="303.27036"
 rx="16.84317" />
<path
 style="color:#000000;fill:#4c3a28;fill-opacity:1;fill-rule:nonzero;stroke:none;stroke-width:5;marker:none;visibility:visible;display:inline;overflow:visible;enable-background:accumulate"
 d="m 20.5625,438.55209 0,14.32291 c 0,9.33112 7.512634,16.84375 16.84375,16.84375 l 565.9375,0 c 9.33112,0 16.84375,-7.51263 16.84375,-16.84375 l 0,-14.32291 z"
 id="rect5643"
 inkscape:connector-curvature="0"
 sodipodi:nodetypes="csssscc" />
<rect
 rx="16.84317"
 y="303.27036"
 x="20.575417"
 height="166.44182"
 width="599.62646"
 id="rect5648"
 style="color:#000000;fill:none;fill-opacity:1;fill-rule:nonzero;stroke:#000000;stroke-width:2;marker:none;visibility:visible;display:inline;overflow:visible;enable-background:accumulate;stroke-opacity:1" />
<g
 id="g4121">
<path
 style="color:#000000;fill:#5d707a;fill-opacity:1;stroke:none;stroke-width:2;marker:none;visibility:visible;display:inline;overflow:visible;enable-background:accumulate"
 d="m 320,274.62002 c -23.04329,0 -41.71875,14.32778 -41.71875,32 0,6.84478 0.0433,12.05828 0,17.96875 0,8.86386 4.69038,16.89191 12.28125,22.6875 l -1.625,17.1875 62.125,0 -1.625,-17.1875 c 7.59087,-5.79559 12.28125,-13.82364 12.28125,-22.6875 0,-6.84452 -0.0433,-12.04605 0,-17.96875 0,-17.67222 -18.67546,-32 -41.71875,-32 z"
 id="path4095"
 inkscape:connector-curvature="0" />
<path
 style="color:#000000;fill:#435158;fill-opacity:1;stroke:none;stroke-width:2;marker:none;visibility:visible;display:inline;overflow:visible;enable-background:accumulate"
 d="m 320,292.58877 c -23.04329,0 -41.71875,14.32778 -41.71875,32 0,9.46947 5.35064,17.98506 13.875,23.84375 l -1.53125,16.03125 58.75,0 -1.53125,-16.03125 c 8.52436,-5.85869 13.875,-14.37428 13.875,-23.84375 0,-17.67222 -18.67546,-32 -41.71875,-32 z"
 id="path4097"
 inkscape:connector-curvature="0" />
<path
 style="color:#000000;fill:none;stroke:#000000;stroke-width:2;stroke-linecap:round;stroke-linejoin:miter;stroke-miterlimit:4;stroke-opacity:1;stroke-dasharray:none;stroke-dashoffset:0;marker:none;visibility:visible;display:inline;overflow:visible;enable-background:accumulate"
 d="m 320,274.62002 c -23.04329,0 -41.71875,14.32778 -41.71875,32 0,6.84478 0.0433,12.05828 0,17.96875 0,8.86386 4.69038,16.89191 12.28125,22.6875 l -1.625,17.1875 62.125,0 -1.625,-17.1875 c 7.59087,-5.79559 12.28125,-13.82364 12.28125,-22.6875 0,-6.84452 -0.0433,-12.04605 0,-17.96875 0,-17.67222 -18.67546,-32 -41.71875,-32 z"
 id="path4100"
 inkscape:connector-curvature="0" />
<path
 sodipodi:type="arc"
 style="color:#000000;fill:#333e43;stroke:#000000;stroke-width:5.27511654999999990;stroke-linecap:round;stroke-linejoin:miter;stroke-miterlimit:4;stroke-opacity:1;stroke-dasharray:none;stroke-dashoffset:0;marker:none;visibility:visible;display:inline;overflow:visible;enable-background:accumulate;fill-opacity:1"
 id="path4107"
 sodipodi:cx="0"
 sodipodi:cy="0"
 sodipodi:rx="41.990734"
 sodipodi:ry="25.9517"
 d="M 41.990734,0 A 41.990734,25.9517 0 1 1 -41.990734,0 41.990734,25.9517 0 1 1 41.990734,0 z"
 transform="matrix(-0.34035392,0,0,0.42234282,320,321.96905)" />
</g>
<g
 id="g4833">
<path
 sodipodi:type="arc"
 style="color:#000000;fill:#c8b967;fill-opacity:1;fill-rule:nonzero;stroke:#000000;stroke-width:2;stroke-miterlimit:4;stroke-opacity:1;stroke-dasharray:none;marker:none;visibility:visible;display:inline;overflow:visible;enable-background:accumulate"
 id="path4809"
 sodipodi:cx="0"
 sodipodi:cy="0"
 sodipodi:rx="120"
 sodipodi:ry="90"
 d="M 120,0 C 120,49.705627 66.27417,90 0,90 -66.27417,90 -120,49.705627 -120,0 c 0,-49.705627 53.72583,-90 120,-90 66.27417,0 120,40.294373 120,90 z"
 transform="translate(490,330)" />
<path
 inkscape:connector-curvature="0"
 style="color:#000000;fill:#d7c97b;fill-opacity:1;fill-rule:nonzero;stroke:none;stroke-width:0.1;marker:none;visibility:visible;display:inline;overflow:visible;enable-background:accumulate"
 d="m 490,259.84375 c -54.91068,0 -99.4375,33.37949 -99.4375,74.5625 0,41.18301 44.52682,74.5625 99.4375,74.5625 54.91068,0 99.4375,-33.37949 99.4375,-74.5625 0,-41.18301 -44.52682,-74.5625 -99.4375,-74.5625 z"
 id="path4811" />
</g>
<g
 id="g4839">
<path
 transform="translate(150,330)"
 d="M 120,0 A 120,90 0 1 1 -120,0 120,90 0 1 1 120,0 z"
 sodipodi:ry="90"
 sodipodi:rx="120"
 sodipodi:cy="0"
 sodipodi:cx="0"
 id="path4780"
 style="color:#000000;fill:#c8b967;fill-opacity:1;fill-rule:nonzero;stroke:#000000;stroke-width:2;stroke-miterlimit:4;stroke-opacity:1;stroke-dasharray:none;marker:none;visibility:visible;display:inline;overflow:visible;enable-background:accumulate"
 sodipodi:type="arc" />
<path
 id="path4794"
 d="m 150,259.84375 c -54.910682,0 -99.4375,33.37949 -99.4375,74.5625 0,41.18301 44.526818,74.5625 99.4375,74.5625 54.91068,0 99.4375,-33.37949 99.4375,-74.5625 0,-41.18301 -44.52682,-74.5625 -99.4375,-74.5625 z"
 style="color:#000000;fill:#d7c97b;fill-opacity:1;fill-rule:nonzero;stroke:none;stroke-width:0.1;marker:none;visibility:visible;display:inline;overflow:visible;enable-background:accumulate"
 inkscape:connector-curvature="0" />
</g>
<path
 sodipodi:type="arc"
 style="color:#000000;fill:#ffffff;fill-opacity:0.07172996;fill-rule:nonzero;stroke:#000000;stroke-width:0.10000000000000001;stroke-linecap:round;stroke-linejoin:miter;stroke-miterlimit:4;stroke-opacity:1;stroke-dasharray:none;stroke-dashoffset:0;marker:none;visibility:visible;display:inline;overflow:visible;enable-background:accumulate"
 id="helper"
 sodipodi:cx="0"
 sodipodi:cy="0"
 sodipodi:rx="28"
 sodipodi:ry="28"
 d="M 28,0 A 28,28 0 1 1 -28,0 28,28 0 1 1 28,0 z" />
<g
 id="g4861">
<path
 inkscape:connector-curvature="0"
 id="path3014"
 d="m 472.67242,300.40297 c 0,0 42.44686,24.09146 58.50783,27.5331 16.06097,3.44163 39.00521,-4.58885 49.33012,-11.47212 10.32491,-6.88328 -2.29442,-66.53832 -5.73606,-76.86323 9.17771,-3.44164 19.50261,-13.76655 27.53309,-18.3554 -12.61933,-14.91376 -26.38588,-41.29964 -32.12194,-42.44686 -5.73606,-1.14721 -60.80224,-14.91375 -69.97995,-14.91375 -9.1777,0 -24.09146,16.06097 -26.38588,39.00521 -2.29443,22.94425 -10.32491,65.3911 -13.76655,74.5688 -3.44163,9.1777 0,16.06097 12.61934,22.94425 z"
 style="fill:#a0754c;fill-opacity:1;stroke:none;stroke-width:2;stroke-linecap:butt;stroke-linejoin:miter;stroke-miterlimit:4;stroke-opacity:1;stroke-dasharray:none" />
<path
 id="path4845"
 d="M 571.21875 180.9375 C 561.59742 181.25024 552.88095 204.49546 553.28125 210.5 C 553.77393 217.8902 542.45608 271.09798 539.5 290.3125 C 537.10671 305.86888 533.71948 319.82198 539.0625 328.75 C 554.04062 328.90846 571.77595 322.28478 580.5 316.46875 C 590.82491 309.58547 578.22289 249.91866 574.78125 239.59375 C 583.95896 236.15211 594.28202 225.83885 602.3125 221.25 C 591.8662 208.90436 580.62497 188.71265 573.8125 181.46875 C 572.93906 181.09736 572.08336 180.9094 571.21875 180.9375 z "
 style="fill:#795a3c;stroke:none;stroke-width:1px;stroke-linecap:butt;stroke-linejoin:miter;stroke-opacity:1;fill-opacity:1" />
<path
 inkscape:connector-curvature="0"
 id="path4847"
 d="m 553.27952,242.03561 c -1.97072,18.72184 -12.31699,62.07767 -10.34627,70.94591 1.97072,8.86823 1.97072,9.85359 10.34627,9.36091 8.37556,-0.49268 18.22916,-11.82431 17.73648,-21.18523 -7.3902,-3.44876 -12.317,-27.59008 -11.82432,-48.77531 0.49268,-21.18524 -4.43412,-17.73648 -5.91216,-10.34628 z"
 style="fill:#6b523a;stroke:none;stroke-width:1px;stroke-linecap:butt;stroke-linejoin:miter;stroke-opacity:1;fill-opacity:1" />
<path
 id="path4849"
 d="M 566.1875 188 C 565.19697 187.87551 565.26235 189.87014 566.09375 193.75 C 567.35137 199.61891 570.74757 223.99731 575.375 239.34375 C 578.63524 238.02446 582.02995 235.91346 585.40625 233.5 C 585.47307 227.98869 585.55829 221.91948 585.78125 217.90625 C 586.27393 209.03801 575.45805 198.68609 570.53125 192.28125 C 568.37577 189.47913 566.95791 188.09683 566.1875 188 z "
 style="fill:#624930;stroke:none;stroke-width:1px;stroke-linecap:butt;stroke-linejoin:miter;stroke-opacity:1;fill-opacity:1" />
<path
 style="fill:none;fill-opacity:1;stroke:#000000;stroke-width:2;stroke-linecap:butt;stroke-linejoin:miter;stroke-miterlimit:4;stroke-opacity:1;stroke-dasharray:none"
 d="m 472.67242,300.40297 c 0,0 42.44686,24.09146 58.50783,27.5331 16.06097,3.44163 39.00521,-4.58885 49.33012,-11.47212 10.32491,-6.88328 -2.29442,-66.53832 -5.73606,-76.86323 9.17771,-3.44164 19.50261,-13.76655 27.53309,-18.3554 -12.61933,-14.91376 -26.38588,-41.29964 -32.12194,-42.44686 -5.73606,-1.14721 -60.80224,-14.91375 -69.97995,-14.91375 -9.1777,0 -24.09146,16.06097 -26.38588,39.00521 -2.29443,22.94425 -10.32491,65.3911 -13.76655,74.5688 -3.44163,9.1777 0,16.06097 12.61934,22.94425 z"
 id="path4859"
 inkscape:connector-curvature="0" />
</g>
<g
 id="g4109">
<path
 id="path5664"
 d="M 320 318.09375 C 296.95671 318.09375 278.28125 332.42153 278.28125 350.09375 C 278.28125 356.93853 278.32455 362.15203 278.28125 368.0625 C 278.28125 376.92636 282.97163 384.95441 290.5625 390.75 L 288.9375 407.9375 L 351.0625 407.9375 L 349.4375 390.75 C 357.02837 384.95441 361.71875 376.92636 361.71875 368.0625 C 361.71875 361.21798 361.67545 356.01645 361.71875 350.09375 C 361.71875 332.42153 343.04329 318.09375 320 318.09375 z "
 style="color:#000000;fill:#5d707a;fill-opacity:1;stroke:none;stroke-width:2;marker:none;visibility:visible;display:inline;overflow:visible;enable-background:accumulate" />
<path
 id="path5650"
 d="M 320 336.0625 C 296.95671 336.0625 278.28125 350.39028 278.28125 368.0625 C 278.28125 377.53197 283.63189 386.04756 292.15625 391.90625 L 290.625 407.9375 L 349.375 407.9375 L 347.84375 391.90625 C 356.36811 386.04756 361.71875 377.53197 361.71875 368.0625 C 361.71875 350.39028 343.04329 336.0625 320 336.0625 z "
 style="color:#000000;fill:#435158;fill-opacity:1;stroke:none;stroke-width:2;marker:none;visibility:visible;display:inline;overflow:visible;enable-background:accumulate" />
<path
 id="path5714"
 d="M 320 318.09375 C 296.95671 318.09375 278.28125 332.42153 278.28125 350.09375 C 278.28125 356.93853 278.32455 362.15203 278.28125 368.0625 C 278.28125 376.92636 282.97163 384.95441 290.5625 390.75 L 288.9375 407.9375 L 351.0625 407.9375 L 349.4375 390.75 C 357.02837 384.95441 361.71875 376.92636 361.71875 368.0625 C 361.71875 361.21798 361.67545 356.01645 361.71875 350.09375 C 361.71875 332.42153 343.04329 318.09375 320 318.09375 z "
 style="color:#000000;fill:none;stroke:#000000;stroke-width:2;stroke-linecap:round;stroke-linejoin:miter;stroke-miterlimit:4;stroke-opacity:1;stroke-dasharray:none;stroke-dashoffset:0;marker:none;visibility:visible;display:inline;overflow:visible;enable-background:accumulate" />
<path
 sodipodi:type="arc"
 style="color:#000000;fill:#586a74;fill-opacity:1;stroke:none;stroke-width:3.34356475;marker:none;visibility:visible;display:inline;overflow:visible;enable-background:accumulate"
 id="path5734"
 sodipodi:cx="0"
 sodipodi:cy="0"
 sodipodi:rx="41.990734"
 sodipodi:ry="25.9517"
 d="M 41.990734,0 A 41.990734,25.9517 0 1 1 -41.990734,0 41.990734,25.9517 0 1 1 41.990734,0 z"
 transform="matrix(-0.5369738,0,0,0.66632706,320,368.0656)" />
<path
 id="path5736"
 d="m 320,350.78435 c -10.68802,0 -19.64626,5.68915 -21.96875,13.34375 2.31527,7.66222 11.27369,13.375 21.96875,13.375 10.69506,0 19.65348,-5.71278 21.96875,-13.375 C 339.64626,356.4735 330.68802,350.78435 320,350.78435 z"
 style="color:#000000;fill:#3b474d;fill-opacity:1;stroke:none;stroke-width:3.34356475;marker:none;visibility:visible;display:inline;overflow:visible;enable-background:accumulate"
 inkscape:connector-curvature="0" />
<path
 transform="matrix(-0.5369738,0,0,0.66632706,320,368.0656)"
 d="M 41.990734,0 A 41.990734,25.9517 0 1 1 -41.990734,0 41.990734,25.9517 0 1 1 41.990734,0 z"
 sodipodi:ry="25.9517"
 sodipodi:rx="41.990734"
 sodipodi:cy="0"
 sodipodi:cx="0"
 id="path5650-5"
 style="color:#000000;fill:none;stroke:#2b343c;stroke-width:3.34356475;stroke-linecap:round;stroke-linejoin:miter;stroke-miterlimit:4;stroke-opacity:1;stroke-dasharray:none;stroke-dashoffset:0;marker:none;visibility:visible;display:inline;overflow:visible;enable-background:accumulate"
 sodipodi:type="arc" />
<path
 id="path3268"
 d="m 334.5625,354.8781 -31.75,16.5 c 1.18588,1.07226 2.54162,2.01976 4.03125,2.84375 L 338.25,357.90935 c -1.06871,-1.12638 -2.30214,-2.13367 -3.6875,-3.03125 z"
 style="font-size:medium;font-style:normal;font-variant:normal;font-weight:normal;font-stretch:normal;text-indent:0;text-align:start;text-decoration:none;line-height:normal;letter-spacing:normal;word-spacing:normal;text-transform:none;direction:ltr;block-progression:tb;writing-mode:lr-tb;text-anchor:start;baseline-shift:baseline;color:#000000;fill:#2b343c;fill-opacity:1;stroke:none;stroke-width:4.39999962;marker:none;visibility:visible;display:inline;overflow:visible;enable-background:accumulate;font-family:Sans;-inkscape-font-specification:Sans"
 inkscape:connector-curvature="0" />
</g>
<g
 id="g4182"
 transform="translate(320,410)">
<g
 id="g4185"
 transform="matrix(0.60410774,0,0,0.42019341,-4.7135101,7.2672274)" />
</g>
</g>
</svg>
