<?xml version="1.0" encoding="UTF-8" standalone="no"?>
<svg
   xmlns:dc="http://purl.org/dc/elements/1.1/"
   xmlns:cc="http://creativecommons.org/ns#"
   xmlns:rdf="http://www.w3.org/1999/02/22-rdf-syntax-ns#"
   xmlns:svg="http://www.w3.org/2000/svg"
   xmlns="http://www.w3.org/2000/svg"
   xmlns:xlink="http://www.w3.org/1999/xlink"
   viewBox="0 0 640 480"
   version="1.1"
   id="bubble"
   height="100%"
   width="100%">
    <defs>
    <style>
        svg#bubble .bubble .fx     { display:none; }
        svg#bubble .bubble.fx .fx  { display:inline; }
        svg#bubble .bubble.fx .res { display:none; }
        
        svg#bubble .bubble .circle1        { fill:#6c6c6c;stroke:none;}
        svg#bubble .bubble .circle2        { fill:#676767;stroke:none;}
        svg#bubble .bubble .circle3        { fill:#6b6b6b;stroke:none;}
        svg#bubble .bubble .circle4        { fill:none;stroke:#616161;stroke-width:2;}
        svg#bubble .bubble .path1          { fill:#525252;fill-opacity:0.22;stroke:none;}
        svg#bubble .bubble .path2          { fill:#787878;stroke:none; }
        
        svg#bubble .bubble.blue .circle1   { fill:#3259df;stroke:none;}
        svg#bubble .bubble.blue .circle2   { fill:#1b42c7;stroke:none;}
        svg#bubble .bubble.blue .circle3   { fill:#1d45d0;stroke:none;}
        svg#bubble .bubble.blue .circle4   { fill:none;stroke:#0a296c;stroke-width:2;}
        svg#bubble .bubble.blue .path1     { fill:#102e99;fill-opacity:0.37;stroke:none;}
        svg#bubble .bubble.blue .path2     { fill:#4064e2;stroke:none; }
        
        svg#bubble .bubble.red .circle1    { fill:#df3232;stroke:none;}
        svg#bubble .bubble.red .circle2    { fill:#c71b1b;stroke:none;}
        svg#bubble .bubble.red .circle3    { fill:#d01d1d;stroke:none;}
        svg#bubble .bubble.red .circle4    { fill:none;stroke:#6c0a0a;stroke-width:2;}
        svg#bubble .bubble.red .path1      { fill:#991010;fill-opacity:0.37;stroke:none;}
        svg#bubble .bubble.red .path2      { fill:#ed5454;stroke:none; }
        
        svg#bubble .bubble.green .circle1  { fill:#32df4d;stroke:none;}
        svg#bubble .bubble.green .circle2  { fill:#1bc71f;stroke:none;}
        svg#bubble .bubble.green .circle3  { fill:#1dd033;stroke:none;}
        svg#bubble .bubble.green .circle4  { fill:none;stroke:#136314;stroke-width:2;}
        svg#bubble .bubble.green .path1    { fill:#0e8711;fill-opacity:0.37;stroke:none;}
        svg#bubble .bubble.green .path2    { fill:#54ed57;stroke:none; }
        
        svg#bubble .bubble.yellow .circle1 { fill:#ffe283;stroke:none;}
        svg#bubble .bubble.yellow .circle2 { fill:#cfdc11;stroke:none;}
        svg#bubble .bubble.yellow .circle3 { fill:#dcdb11;stroke:none;}
        svg#bubble .bubble.yellow .circle4 { fill:none;stroke:#ba970e;stroke-width:2;}
        svg#bubble .bubble.yellow .path1   { fill:#eba70a;fill-opacity:0.21;stroke:none;}
        svg#bubble .bubble.yellow .path2   { fill:#f4ee58;stroke:none; }
        
        svg#bubble .bubble.purple .circle1 { fill:#dc17e9;stroke:none;}
        svg#bubble .bubble.purple .circle2 { fill:#c60fcc;stroke:none;}
        svg#bubble .bubble.purple .circle3 { fill:#cf10ce;stroke:none;}
        svg#bubble .bubble.purple .circle4 { fill:none;stroke:#76126e;stroke-width:2;}
        svg#bubble .bubble.purple .path1   { fill:#840c76;fill-opacity:0.21;stroke:none;}
        svg#bubble .bubble.purple .path2   { fill:#f560ea;stroke:none; }
        
        svg#bubble .bubble.orange .circle1 { fill:#e98617;stroke:none;}
        svg#bubble .bubble.orange .circle2 { fill:#d36608;stroke:none;}
        svg#bubble .bubble.orange .circle3 { fill:#d1730e;stroke:none;}
        svg#bubble .bubble.orange .circle4 { fill:none;stroke:#763612;stroke-width:2;}
        svg#bubble .bubble.orange .path1   { fill:#96520e;fill-opacity:0.21;stroke:none;}
        svg#bubble .bubble.orange .path2   { fill:#f3a43d;stroke:none; }
        
        svg#bubble .bubble.black .circle1  { fill:#3f3f3f;stroke:none;}
        svg#bubble .bubble.black .circle2  { fill:#252525;stroke:none;}
        svg#bubble .bubble.black .circle3  { fill:#272727;stroke:none;}
        svg#bubble .bubble.black .circle4  { fill:none;stroke:#212121;stroke-width:2;}
        svg#bubble .bubble.black .path1    { fill:#000000;fill-opacity:0.21;stroke:none;}
        svg#bubble .bubble.black .path2    { fill:#4c4c4c;stroke:none; }
        
        svg#bubble .bubble.white .circle1  { fill:#ededed;stroke:none;}
        svg#bubble .bubble.white .circle2  { fill:#dcdcdc;stroke:none;}
        svg#bubble .bubble.white .circle3  { fill:#dddddd;stroke:none;}
        svg#bubble .bubble.white .circle4  { fill:none;stroke:#c0c0c0;stroke-width:2;}
        svg#bubble .bubble.white .path1    { fill:#a8a8a8;fill-opacity:0.21;stroke:none;}
        svg#bubble .bubble.white .path2    { fill:#ededed;stroke:none; }
        
        svg#bubble #warning                { display:none; }
        svg#bubble #tip                    { display:none; }
        svg#bubble #tip path               { fill:none;stroke:red;stroke-width:2; }
        svg#bubble #tip circle             { fill:none;stroke:red;stroke-width:1; }
        
    </style>
  </defs>
  <g>
    <g id="template" style="display:none;">
        <g id="bubble" class="bubble">
            <g class="res">
              <circle
                 class="circle1"
                 cx="0"
                 cy="0"
                 r="19" />
              <circle
                 class="circle2"
                 cx="0"
                 cy="0"
                 r="16" />
              <path
                 d="M 0,-19.5 A 19.5,19.5 0 0 0 -19.5,0 19.5,19.5 0 0 0 -19.457031,1.2226562 21.895281,19.977144 0 0 0 0,12.144531 21.895281,19.977144 0 0 0 19.433594,1.3261719 19.5,19.5 0 0 0 19.5,0 19.5,19.5 0 0 0 0,-19.5 Z"
                 class="path1" />
              <circle
                 r="9.7899122"
                 cy="-6.7587914"
                 cx="-4.4579263"
                 class="circle3" />
              <path
                 class="path2"
                 d="M -3.625,-14.326172 A 3.5380912,3.5380912 0 0 0 -7.1621094,-10.787109 3.5380912,3.5380912 0 0 0 -3.625,-7.25 3.5380912,3.5380912 0 0 0 -0.0859375,-10.787109 3.5380912,3.5380912 0 0 0 -3.625,-14.326172 Z m -6.2519531,6.2519532 a 2.0098684,2.0098684 0 0 0 -2.0097659,2.0097657 2.0098684,2.0098684 0 0 0 2.0097659,2.0097656 2.0098684,2.0098684 0 0 0 2.0097656,-2.0097656 2.0098684,2.0098684 0 0 0 -2.0097656,-2.0097657 z M 13.742188,-0.57226562 A 2.0098684,2.0098684 0 0 0 11.732422,1.4375 2.0098684,2.0098684 0 0 0 13.742188,3.4472656 2.0098684,2.0098684 0 0 0 15.751953,1.4375 2.0098684,2.0098684 0 0 0 13.742188,-0.57226562 Z"  />
              <circle
                 r="19"
                 cy="0"
                 cx="0"
                 class="circle4" />
            </g>
            <g
               class="fx">
              <circle
                 r="19"
                 cy="0"
                 cx="0"
                 style="fill:#fffd56;stroke:none;" />
              <circle
                 r="3.5380912"
                 cy="-10.787743"
                 cx="-3.6243501"
                 style="fill:#f9f9da;stroke:none;" />
              <circle
                 style="fill:#f9f9da;stroke:none;"
                 cx="-9.8761711"
                 cy="-6.0641446"
                 r="2.0098684" />
              <circle
                 r="2.0098684"
                 cy="1.4380405"
                 cx="13.741819"
                 style="fill:#f9f9da;stroke:none;" />
              <circle
                 style="fill:none;stroke:#fde134;stroke-width:2;"
                 cx="0"
                 cy="0"
                 r="19" />
            </g>
          </g>
    </g>
    <g
       id="background">
      <rect
         y="0"
         x="0"
         height="480"
         width="640"
         id="rect4800"
         style="color:#000000;clip-rule:nonzero;display:inline;overflow:visible;visibility:visible;opacity:1;isolation:auto;mix-blend-mode:normal;color-interpolation:sRGB;color-interpolation-filters:linearRGB;solid-color:#000000;solid-opacity:1;fill:#584f4e;fill-opacity:1;fill-rule:evenodd;stroke:none;stroke-width:1px;stroke-linecap:butt;stroke-linejoin:miter;stroke-miterlimit:4;stroke-dasharray:none;stroke-dashoffset:0;stroke-opacity:1;color-rendering:auto;image-rendering:auto;shape-rendering:auto;text-rendering:auto;enable-background:accumulate" />
      <g
         id="g4830">
        <g
           id="g5298">
          <rect
             y="0"
             x="100"
             height="64"
             width="64"
             id="rect5278"
             style="color:#000000;clip-rule:nonzero;display:inline;overflow:visible;visibility:visible;opacity:1;isolation:auto;mix-blend-mode:normal;color-interpolation:sRGB;color-interpolation-filters:linearRGB;solid-color:#000000;solid-opacity:1;fill:#645958;fill-opacity:1;fill-rule:evenodd;stroke:none;stroke-width:3;stroke-linecap:butt;stroke-linejoin:miter;stroke-miterlimit:4;stroke-dasharray:none;stroke-dashoffset:0;stroke-opacity:1;color-rendering:auto;image-rendering:auto;shape-rendering:auto;text-rendering:auto;enable-background:accumulate" />
          <rect
             y="0"
             x="100"
             height="64"
             width="8"
             id="rect5282"
             style="color:#000000;clip-rule:nonzero;display:inline;overflow:visible;visibility:visible;opacity:1;isolation:auto;mix-blend-mode:normal;color-interpolation:sRGB;color-interpolation-filters:linearRGB;solid-color:#000000;solid-opacity:1;fill:#6d6160;fill-opacity:1;fill-rule:evenodd;stroke:none;stroke-width:3;stroke-linecap:butt;stroke-linejoin:miter;stroke-miterlimit:4;stroke-dasharray:none;stroke-dashoffset:0;stroke-opacity:1;color-rendering:auto;image-rendering:auto;shape-rendering:auto;text-rendering:auto;enable-background:accumulate" />
          <rect
             style="color:#000000;clip-rule:nonzero;display:inline;overflow:visible;visibility:visible;opacity:1;isolation:auto;mix-blend-mode:normal;color-interpolation:sRGB;color-interpolation-filters:linearRGB;solid-color:#000000;solid-opacity:1;fill:#6d6160;fill-opacity:1;fill-rule:evenodd;stroke:none;stroke-width:3;stroke-linecap:butt;stroke-linejoin:miter;stroke-miterlimit:4;stroke-dasharray:none;stroke-dashoffset:0;stroke-opacity:1;color-rendering:auto;image-rendering:auto;shape-rendering:auto;text-rendering:auto;enable-background:accumulate"
             id="rect5284"
             width="8"
             height="64"
             x="116"
             y="0" />
          <rect
             y="0"
             x="132"
             height="64"
             width="8"
             id="rect5286"
             style="color:#000000;clip-rule:nonzero;display:inline;overflow:visible;visibility:visible;opacity:1;isolation:auto;mix-blend-mode:normal;color-interpolation:sRGB;color-interpolation-filters:linearRGB;solid-color:#000000;solid-opacity:1;fill:#6d6160;fill-opacity:1;fill-rule:evenodd;stroke:none;stroke-width:3;stroke-linecap:butt;stroke-linejoin:miter;stroke-miterlimit:4;stroke-dasharray:none;stroke-dashoffset:0;stroke-opacity:1;color-rendering:auto;image-rendering:auto;shape-rendering:auto;text-rendering:auto;enable-background:accumulate" />
          <rect
             style="color:#000000;clip-rule:nonzero;display:inline;overflow:visible;visibility:visible;opacity:1;isolation:auto;mix-blend-mode:normal;color-interpolation:sRGB;color-interpolation-filters:linearRGB;solid-color:#000000;solid-opacity:1;fill:#6d6160;fill-opacity:1;fill-rule:evenodd;stroke:none;stroke-width:3;stroke-linecap:butt;stroke-linejoin:miter;stroke-miterlimit:4;stroke-dasharray:none;stroke-dashoffset:0;stroke-opacity:1;color-rendering:auto;image-rendering:auto;shape-rendering:auto;text-rendering:auto;enable-background:accumulate"
             id="rect5288"
             width="8"
             height="64"
             x="148"
             y="0" />
          <path
             id="rect5292"
             d="m 100,0 0,64 64,0 0,-64 -64,0 z m 2,2 60,0 0,60 -60,0 0,-60 z"
             style="color:#000000;clip-rule:nonzero;display:inline;overflow:visible;visibility:visible;opacity:1;isolation:auto;mix-blend-mode:normal;color-interpolation:sRGB;color-interpolation-filters:linearRGB;solid-color:#000000;solid-opacity:1;fill:#574d4c;fill-opacity:1;fill-rule:evenodd;stroke:none;stroke-width:3;stroke-linecap:butt;stroke-linejoin:miter;stroke-miterlimit:4;stroke-dasharray:none;stroke-dashoffset:0;stroke-opacity:1;color-rendering:auto;image-rendering:auto;shape-rendering:auto;text-rendering:auto;enable-background:accumulate" />
        </g>
        <use
           x="0"
           y="0"
           xlink:href="#g5298"
           transform="matrix(0,1,-1,0,164,-36)"
           id="use4762"
           width="100%"
           height="100%" />
        <use
           height="100%"
           width="100%"
           x="0"
           y="0"
           xlink:href="#g5298"
           transform="translate(0,128)"
           id="use4764" />
        <use
           x="0"
           y="0"
           xlink:href="#g5298"
           transform="matrix(0,1,-1,0,164,92)"
           id="use4766"
           width="100%"
           height="100%" />
        <use
           height="100%"
           width="100%"
           x="0"
           y="0"
           xlink:href="#g5298"
           transform="translate(0,256)"
           id="use4768" />
        <use
           x="0"
           y="0"
           xlink:href="#g5298"
           transform="matrix(0,1,-1,0,164,220)"
           id="use4770"
           width="100%"
           height="100%" />
        <use
           height="100%"
           width="100%"
           x="0"
           y="0"
           xlink:href="#g5298"
           transform="translate(0,384)"
           id="use4772" />
        <use
           x="0"
           y="0"
           xlink:href="#g5298"
           transform="matrix(0,1,-1,0,228,-100)"
           id="use4774"
           width="100%"
           height="100%" />
        <use
           height="100%"
           width="100%"
           x="0"
           y="0"
           xlink:href="#g5298"
           transform="translate(64,64)"
           id="use4776" />
        <use
           x="0"
           y="0"
           xlink:href="#g5298"
           transform="matrix(0,1,-1,0,228,28)"
           id="use4778"
           width="100%"
           height="100%" />
        <use
           height="100%"
           width="100%"
           x="0"
           y="0"
           xlink:href="#g5298"
           transform="translate(64,192)"
           id="use4780" />
        <use
           x="0"
           y="0"
           xlink:href="#g5298"
           transform="matrix(0,1,-1,0,228,156)"
           id="use4782"
           width="100%"
           height="100%" />
        <use
           height="100%"
           width="100%"
           x="0"
           y="0"
           xlink:href="#g5298"
           transform="translate(64,320)"
           id="use4784" />
        <use
           x="0"
           y="0"
           xlink:href="#g5298"
           transform="matrix(0,1,-1,0,228,284)"
           id="use4786"
           width="100%"
           height="100%" />
        <use
           height="100%"
           width="100%"
           x="0"
           y="0"
           xlink:href="#g5298"
           transform="translate(128,0)"
           id="use4788" />
        <use
           x="0"
           y="0"
           xlink:href="#g5298"
           transform="matrix(0,1,-1,0,292,-36)"
           id="use4790"
           width="100%"
           height="100%" />
        <use
           height="100%"
           width="100%"
           x="0"
           y="0"
           xlink:href="#g5298"
           transform="translate(128,128)"
           id="use4792" />
        <use
           x="0"
           y="0"
           xlink:href="#g5298"
           transform="matrix(0,1,-1,0,292,92)"
           id="use4794"
           width="100%"
           height="100%" />
        <use
           height="100%"
           width="100%"
           x="0"
           y="0"
           xlink:href="#g5298"
           transform="translate(128,256)"
           id="use4796" />
        <use
           x="0"
           y="0"
           xlink:href="#g5298"
           transform="matrix(0,1,-1,0,292,220)"
           id="use4798"
           width="100%"
           height="100%" />
        <use
           height="100%"
           width="100%"
           x="0"
           y="0"
           xlink:href="#g5298"
           transform="translate(128,384)"
           id="use4800" />
        <use
           x="0"
           y="0"
           xlink:href="#g5298"
           transform="matrix(0,1,-1,0,356,-100)"
           id="use4802"
           width="100%"
           height="100%" />
        <use
           height="100%"
           width="100%"
           x="0"
           y="0"
           xlink:href="#g5298"
           transform="translate(192,64)"
           id="use4804" />
        <use
           x="0"
           y="0"
           xlink:href="#g5298"
           transform="matrix(0,1,-1,0,356,28)"
           id="use4806"
           width="100%"
           height="100%" />
        <use
           height="100%"
           width="100%"
           x="0"
           y="0"
           xlink:href="#g5298"
           transform="translate(192,192)"
           id="use4808" />
        <use
           x="0"
           y="0"
           xlink:href="#g5298"
           transform="matrix(0,1,-1,0,356,156)"
           id="use4810"
           width="100%"
           height="100%" />
        <use
           height="100%"
           width="100%"
           x="0"
           y="0"
           xlink:href="#g5298"
           transform="translate(192,320)"
           id="use4812" />
        <use
           x="0"
           y="0"
           xlink:href="#g5298"
           transform="matrix(0,1,-1,0,356,284)"
           id="use4814"
           width="100%"
           height="100%" />
        <use
           height="100%"
           width="100%"
           x="0"
           y="0"
           xlink:href="#g5298"
           transform="translate(256,0)"
           id="use4816" />
        <use
           x="0"
           y="0"
           xlink:href="#g5298"
           transform="matrix(0,1,-1,0,420,-36)"
           id="use4818"
           width="100%"
           height="100%" />
        <use
           height="100%"
           width="100%"
           x="0"
           y="0"
           xlink:href="#g5298"
           transform="translate(256,128)"
           id="use4820" />
        <use
           x="0"
           y="0"
           xlink:href="#g5298"
           transform="matrix(0,1,-1,0,420,92)"
           id="use4822"
           width="100%"
           height="100%" />
        <use
           height="100%"
           width="100%"
           x="0"
           y="0"
           xlink:href="#g5298"
           transform="translate(256,256)"
           id="use4824" />
        <use
           x="0"
           y="0"
           xlink:href="#g5298"
           transform="matrix(0,1,-1,0,420,220)"
           id="use4826"
           width="100%"
           height="100%" />
        <use
           height="100%"
           width="100%"
           x="0"
           y="0"
           xlink:href="#g5298"
           transform="translate(256,384)"
           id="use4828" />
      </g>
      <g
         id="g3556">
        <path
           style="color:#000000;clip-rule:nonzero;display:inline;overflow:visible;visibility:visible;opacity:1;isolation:auto;mix-blend-mode:normal;color-interpolation:sRGB;color-interpolation-filters:linearRGB;solid-color:#000000;solid-opacity:1;fill:#534945;fill-opacity:1;fill-rule:nonzero;stroke:none;stroke-width:3.00000024;stroke-linecap:butt;stroke-linejoin:miter;stroke-miterlimit:4;stroke-dasharray:none;stroke-dashoffset:0;stroke-opacity:1;color-rendering:auto;image-rendering:auto;shape-rendering:auto;text-rendering:auto;enable-background:accumulate"
           d="m 312.82422,-74.4082 -6.07227,13.414062 -0.46289,4.753907 1.19141,8.109375 -14.35547,3.845703 -3.02344,-7.617188 -2.77929,-3.886718 -11.96289,-8.580079 -6.9043,3.986329 1.44922,14.65039 1.97656,4.34961 5.08594,6.427734 -10.50977,10.507812 -6.42578,-5.083984 -4.34961,-1.978516 -14.65234,-1.447265 -3.98438,6.902343 8.58008,11.964844 3.88672,2.777344 7.61719,3.023438 -3.84766,14.355468 -8.10742,-1.189453 -4.75586,0.460938 -13.41211,6.072265 0,7.970703 13.41211,6.072266 4.75586,0.460942 8.10742,-1.189458 3.84766,14.355468 -7.61719,3.02344 -3.88672,2.77734 -8.58008,11.96485 3.98438,6.90234 14.65234,-1.44727 4.34961,-1.97851 6.42578,-5.08399 10.50977,10.50782 -5.08594,6.42773 -1.97656,4.34961 -1.44922,14.65039 6.9043,3.98633 11.96289,-8.58008 2.77929,-3.88672 3.02344,-7.61719 14.35547,3.84571 -1.19141,8.10742 0.46289,4.75586 6.07227,13.41211 7.9707,0 6.07031,-13.41211 0.46289,-4.75586 -1.1914,-8.10742 14.35742,-3.84571 3.02148,7.61719 2.7793,3.88672 11.96289,8.58008 6.9043,-3.98633 -1.44922,-14.65039 -1.97656,-4.34961 -5.08594,-6.42773 10.50977,-10.50782 6.42578,5.08399 4.34961,1.97851 14.65234,1.44727 3.98438,-6.90234 -8.57813,-11.96485 -3.88867,-2.77734 -7.61719,-3.02344 3.84766,-14.355468 8.10742,1.189458 4.75586,-0.460942 13.41211,-6.072266 0,-7.970703 -13.41211,-6.072265 -4.75586,-0.460938 -8.10742,1.189453 -3.84766,-14.355468 7.61719,-3.023438 3.88867,-2.777344 8.57813,-11.964844 -3.98438,-6.902343 -14.65234,1.447265 -4.34961,1.978516 -6.42578,5.083984 -10.50977,-10.507812 5.08594,-6.427734 1.97656,-4.34961 1.44922,-14.65039 -6.9043,-3.986329 -11.96289,8.580079 -2.7793,3.886718 -3.02148,7.617188 -14.35742,-3.845703 1.1914,-8.109375 -0.46289,-4.753907 -6.07031,-13.414062 -7.9707,0 z m 3.98437,69.632812 A 20.171534,20.171534 0 0 1 336.98047,15.394534 20.171534,20.171534 0 0 1 316.80859,35.56641 20.171534,20.171534 0 0 1 296.63672,15.394534 20.171534,20.171534 0 0 1 316.80859,-4.775388 Z"
           id="path4977" />
        <path
           style="fill:#534945;fill-opacity:1;stroke:none;stroke-width:1"
           d="m 135.76478,140.80655 -1.64071,14.07244 1.12092,9.46376 1.24739,3.31194 -13.04785,5.68421 -1.57682,-3.164 -6.16968,-7.26282 -11.4287,-8.37794 -7.845645,4.72678 2.055537,14.01848 3.532358,8.85159 2.06137,2.87331 -11.128881,8.87238 -2.341546,-2.65369 -7.84169,-5.41633 -13.204881,-5.13204 -6.359235,6.59642 5.615056,13.00643 5.704157,7.63388 2.735247,2.24608 -8.45453,11.44666 -2.950005,-1.95536 -8.974449,-3.20177 -14.084114,-1.53924 -4.433907,8.0168 8.789788,11.11177 7.485906,5.89888 3.22318,1.4557 -5.204808,13.25036 -3.353675,-1.12791 -9.497033,-0.77036 -14.005341,2.15803 -2.208506,8.88892 11.370583,8.46007 8.754798,3.75961 3.488609,0.57401 -1.595249,14.14521 -3.534348,-0.22156 -9.370364,1.7154 -12.971727,5.70726 0.171165,9.16069 13.167301,5.2287 9.431249,1.36568 3.520849,-0.35095 2.116615,14.07449 -3.468377,0.70376 -8.608264,4.07961 -11.051719,8.87062 2.533452,8.80383 14.076218,1.63963 9.461078,-1.11605 3.310851,-1.25117 5.687983,13.04677 -3.167774,1.5779 -7.262822,6.16968 -8.374165,11.42762 4.723005,7.84673 14.022262,-2.05662 8.847812,-3.53128 2.877084,-2.06246 8.868607,11.12997 -2.648837,2.34423 -5.41742,7.8379 -5.135811,13.20599 6.596419,6.35924 13.010212,-5.61615 7.634966,-5.70038 2.241215,-2.73793 11.450451,8.45346 -1.95537,2.94999 -3.20555,8.97553 -1.53925,14.08411 8.01681,4.43392 11.11176,-8.7898 5.8989,-7.4859 1.45948,-3.22427 13.24658,5.2059 -1.12414,3.35258 -0.77414,9.49811 2.15804,14.00536 8.89269,2.20742 8.45629,-11.3695 3.76448,-8.75212 0.57291,-3.49238 14.14143,1.59634 -0.21777,3.53327 1.71162,9.37145 5.71104,12.97064 9.15691,-0.17009 5.2287,-13.16729 1.36568,-9.43125 -0.34717,-3.52194 14.07448,-2.11661 0.70376,3.46836 4.07961,8.60827 8.87061,11.05172 8.80385,-2.53345 1.63963,-14.07622 -1.11983,-9.46 -1.24739,-3.31192 13.04677,-5.68799 1.57412,3.16887 6.17345,7.26174 11.42384,8.37524 7.85052,-4.72409 -2.05662,-14.02226 -3.53129,-8.84781 -2.06246,-2.87709 11.12997,-8.86861 2.34156,2.65369 7.83682,5.41366 13.20976,5.13472 6.35545,-6.59532 -5.61615,-13.01023 -5.70037,-7.63497 -2.73416,-2.24229 8.45344,-11.45045 2.94999,1.95538 8.97177,3.20662 14.08412,1.53925 4.4339,-8.01682 -8.78979,-11.11175 -7.48213,-5.89998 -3.22425,-1.45946 5.2021,-13.24551 3.35746,1.12682 9.49703,0.77036 14.00157,-2.15695 2.20741,-8.89268 -11.36573,-8.4574 -8.75478,-3.75961 -3.49348,-0.57667 1.60012,-14.14253 3.52949,0.21886 9.37521,-1.7127 12.96687,-5.70995 -0.1663,-9.158 -13.17107,-5.22762 -9.43126,-1.36568 -3.51816,0.34609 -2.12038,-14.0734 3.46947,-0.69999 8.61095,-4.08447 11.04793,-8.86953 -2.53345,-8.80383 -14.07243,-1.64072 -9.46377,1.12091 -3.31194,1.2474 -5.68422,-13.04786 3.16509,-1.57304 7.26283,-6.16968 8.37794,-11.4287 -4.72787,-7.84942 -14.0174,2.05931 -8.85267,3.52859 -2.87222,2.06515 -8.87348,-11.13266 2.6537,-2.34156 5.41741,-7.8379 5.13096,-13.20866 -6.59533,-6.35547 -13.00644,5.61506 -7.63496,5.70038 -2.245,2.73902 -11.44774,-8.45831 1.95644,-2.94622 3.20177,-8.97444 1.53925,-14.08412 -8.0168,-4.43391 -11.11177,8.78979 -5.89621,7.48105 -1.45947,3.22425 -13.24549,-5.20211 1.12305,-3.35636 0.77035,-9.49703 -2.15695,-14.00157 -8.8889,-2.20851 -8.46116,11.36681 -3.75961,8.7548 -0.57293,3.49238 -14.14252,-1.60011 0.21886,-3.52948 -1.71269,-9.37523 -5.70995,-12.96687 -9.16179,0.1674 -5.22384,13.16999 -1.36945,9.43233 0.34987,3.51707 -14.07341,2.12039 -0.70375,-3.46838 -4.08071,-8.61203 -8.86952,-11.04795 -8.80385,2.53346 z m 18.04495,66.44286 15.57117,54.11039 a 41.679767,41.679767 0 0 0 -18.81729,16.54623 l -49.11802,-27.16917 a 97.751832,97.751832 0 0 1 52.36414,-43.48745 z m 9.67111,-2.75849 a 97.751832,97.751832 0 0 1 70.54269,9.75408 l -27.1412,49.07316 a 41.679767,41.679767 0 0 0 -27.87594,-4.87541 l -15.52555,-53.95183 z m -64.423361,50.90247 49.078011,27.14389 a 41.679767,41.679767 0 0 0 -3.14887,22.92334 l -54.027332,15.54727 a 97.751832,97.751832 0 0 1 8.09819,-65.6145 z M 238.47571,217.00261 a 97.751832,97.751832 0 0 1 39.90492,50.07164 l -54.10661,15.57009 a 41.679767,41.679767 0 0 0 -13.01747,-16.42758 l 27.21916,-49.21415 z M 93.623398,330.70616 147.59788,315.1741 a 41.679767,41.679767 0 0 0 18.96522,21.04401 l -27.10087,49.00024 A 97.751832,97.751832 0 0 1 93.623398,330.70616 Z m 133.567692,-38.43635 53.94804,-15.52445 a 97.751832,97.751832 0 0 1 -8.73963,68.54203 l -49.02346,-27.11053 a 41.679767,41.679767 0 0 0 3.81505,-25.90705 z m -6.42303,30.43881 49.07316,27.14121 a 97.751832,97.751832 0 0 1 -52.39958,42.15682 l -15.53206,-53.97448 a 41.679767,41.679767 0 0 0 18.85848,-15.32355 z m -49.4113,15.64968 a 41.679767,41.679767 0 0 0 20.83934,2.28513 l 15.54727,54.02733 a 97.751832,97.751832 0 0 1 -63.61385,-7.08373 l 27.22724,-49.22873 z"
           id="path4488" />
        <path
           style="fill:#473e3b;fill-opacity:1;stroke:none;stroke-width:1"
           d="m 152.39942,182.04892 a 122.16497,122.16497 0 0 0 -83.61879,151.1828 122.16497,122.16497 0 0 0 151.18658,83.61769 122.16497,122.16497 0 0 0 83.61392,-151.18548 122.16497,122.16497 0 0 0 -151.18171,-83.61501 z m 1.41031,25.20049 15.57117,54.11039 a 41.679767,41.679767 0 0 0 -18.81729,16.54623 l -49.11802,-27.16917 a 97.751832,97.751832 0 0 1 52.36414,-43.48745 z m 9.67111,-2.75849 a 97.751832,97.751832 0 0 1 70.54269,9.75408 l -27.1412,49.07316 a 41.679767,41.679767 0 0 0 -27.87594,-4.87541 l -15.52555,-53.95183 z m -64.423361,50.90247 49.078011,27.14389 a 41.679767,41.679767 0 0 0 -3.14887,22.92334 l -54.027332,15.54727 a 97.751832,97.751832 0 0 1 8.09819,-65.6145 z M 238.47571,217.00261 a 97.751832,97.751832 0 0 1 39.90492,50.07164 l -54.10661,15.57009 a 41.679767,41.679767 0 0 0 -13.01747,-16.42758 l 27.21916,-49.21415 z M 93.623398,330.70616 147.59788,315.1741 a 41.679767,41.679767 0 0 0 18.96522,21.04401 l -27.10087,49.00024 A 97.751832,97.751832 0 0 1 93.623398,330.70616 Z m 133.567692,-38.43635 53.94804,-15.52445 a 97.751832,97.751832 0 0 1 -8.73963,68.54203 l -49.02346,-27.11053 a 41.679767,41.679767 0 0 0 3.81505,-25.90705 z m -6.42303,30.43881 49.07316,27.14121 a 97.751832,97.751832 0 0 1 -52.39958,42.15682 l -15.53206,-53.97448 a 41.679767,41.679767 0 0 0 18.85848,-15.32355 z m -49.4113,15.64968 a 41.679767,41.679767 0 0 0 20.83934,2.28513 l 15.54727,54.02733 a 97.751832,97.751832 0 0 1 -63.61385,-7.08373 l 27.22724,-49.22873 z"
           id="path5257" />
        <circle
           transform="matrix(0.96100119,-0.27654424,0.27654424,0.96100119,0,0)"
           style="fill:#362e2d;fill-opacity:1;stroke:none;stroke-width:1.42413652"
           id="circle5250"
           cx="96.110489"
           cy="339.25809"
           r="28.644493" />
        <path
           style="fill:#403736;fill-opacity:1;stroke:none;stroke-width:1.06416619"
           d="m 180.26414,278.87982 a 21.4042,21.4042 0 0 0 -14.65261,26.48718 21.4042,21.4042 0 0 0 3.2589,6.63699 l 31.07434,-28.92769 a 21.4042,21.4042 0 0 0 -19.68063,-4.19648 z m 23.69957,8.70164 -30.89173,28.75252 a 21.4042,21.4042 0 0 0 19.03051,3.68453 21.4042,21.4042 0 0 0 14.64773,-26.48986 21.4042,21.4042 0 0 0 -2.78651,-5.94719 z"
           id="circle5261" />
        <path
           id="path5980"
           d="m 135.76478,140.80655 -1.64071,14.07244 1.12092,9.46376 1.24739,3.31194 -13.04785,5.68421 -1.57682,-3.164 -6.16968,-7.26282 -11.4287,-8.37794 -7.845645,4.72678 2.055537,14.01848 3.532358,8.85159 2.06137,2.87331 -11.128881,8.87238 -2.341546,-2.65369 -7.84169,-5.41633 -13.204881,-5.13204 -6.359235,6.59642 5.615056,13.00643 5.704157,7.63388 2.735247,2.24608 -8.45453,11.44666 -2.950005,-1.95536 -8.974449,-3.20177 -14.084114,-1.53924 -4.433907,8.0168 8.789788,11.11177 7.485906,5.89888 3.22318,1.4557 -5.204808,13.25036 -3.353675,-1.12791 -9.497033,-0.77036 -14.005341,2.15803 -2.208506,8.88892 11.370583,8.46007 8.754798,3.75961 3.488609,0.57401 -1.595249,14.14521 -3.534348,-0.22156 -9.370364,1.7154 -12.971727,5.70726 0.171165,9.16069 13.167301,5.2287 9.431249,1.36568 3.520849,-0.35095 2.116615,14.07449 -3.468377,0.70376 -8.608264,4.07961 -11.051719,8.87062 2.533452,8.80383 14.076218,1.63963 9.461078,-1.11605 3.310851,-1.25117 5.687983,13.04677 -3.167774,1.5779 -7.262822,6.16968 -8.374165,11.42762 4.723005,7.84673 14.022262,-2.05662 8.847812,-3.53128 2.877084,-2.06246 8.868607,11.12997 -2.648837,2.34423 -5.41742,7.8379 -5.135811,13.20599 6.596419,6.35924 13.010212,-5.61615 7.634966,-5.70038 2.241215,-2.73793 11.450451,8.45346 -1.95537,2.94999 -3.20555,8.97553 -1.53925,14.08411 8.01681,4.43392 11.11176,-8.7898 5.8989,-7.4859 1.45948,-3.22427 13.24658,5.2059 -1.12414,3.35258 -0.77414,9.49811 2.15804,14.00536 8.89269,2.20742 8.45629,-11.3695 3.76448,-8.75212 0.57291,-3.49238 14.14143,1.59634 -0.21777,3.53327 1.71162,9.37145 5.71104,12.97064 9.15691,-0.17009 5.2287,-13.16729 1.36568,-9.43125 -0.34717,-3.52194 14.07448,-2.11661 0.70376,3.46836 4.07961,8.60827 8.87061,11.05172 8.80385,-2.53345 1.63963,-14.07622 -1.11983,-9.46 -1.24739,-3.31192 13.04677,-5.68799 1.57412,3.16887 6.17345,7.26174 11.42384,8.37524 7.85052,-4.72409 -2.05662,-14.02226 -3.53129,-8.84781 -2.06246,-2.87709 11.12997,-8.86861 2.34156,2.65369 7.83682,5.41366 13.20976,5.13472 6.35545,-6.59532 -5.61615,-13.01023 -5.70037,-7.63497 -2.73416,-2.24229 8.45344,-11.45045 2.94999,1.95538 8.97177,3.20662 14.08412,1.53925 4.4339,-8.01682 -8.78979,-11.11175 -7.48213,-5.89998 -3.22425,-1.45946 5.2021,-13.24551 3.35746,1.12682 9.49703,0.77036 14.00157,-2.15695 2.20741,-8.89268 -11.36573,-8.4574 -8.75478,-3.75961 -3.49348,-0.57667 1.60012,-14.14253 3.52949,0.21886 9.37521,-1.7127 12.96687,-5.70995 -0.1663,-9.158 -13.17107,-5.22762 -9.43126,-1.36568 -3.51816,0.34609 -2.12038,-14.0734 3.46947,-0.69999 8.61095,-4.08447 11.04793,-8.86953 -2.53345,-8.80383 -14.07243,-1.64072 -9.46377,1.12091 -3.31194,1.2474 -5.68422,-13.04786 3.16509,-1.57304 7.26283,-6.16968 8.37794,-11.4287 -4.72787,-7.84942 -14.0174,2.05931 -8.85267,3.52859 -2.87222,2.06515 -8.87348,-11.13266 2.6537,-2.34156 5.41741,-7.8379 5.13096,-13.20866 -6.59533,-6.35547 -13.00644,5.61506 -7.63496,5.70038 -2.245,2.73902 -11.44774,-8.45831 1.95644,-2.94622 3.20177,-8.97444 1.53925,-14.08412 -8.0168,-4.43391 -11.11177,8.78979 -5.89621,7.48105 -1.45947,3.22425 -13.24549,-5.20211 1.12305,-3.35636 0.77035,-9.49703 -2.15695,-14.00157 -8.8889,-2.20851 -8.46116,11.36681 -3.75961,8.7548 -0.57293,3.49238 -14.14252,-1.60011 0.21886,-3.52948 -1.71269,-9.37523 -5.70995,-12.96687 -9.16179,0.1674 -5.22384,13.16999 -1.36945,9.43233 0.34987,3.51707 -14.07341,2.12039 -0.70375,-3.46838 -4.08071,-8.61203 -8.86952,-11.04795 -8.80385,2.53346 z m 18.04495,66.44286 15.57117,54.11039 a 41.679767,41.679767 0 0 0 -18.81729,16.54623 l -49.11802,-27.16917 a 97.751832,97.751832 0 0 1 52.36414,-43.48745 z m 9.67111,-2.75849 a 97.751832,97.751832 0 0 1 70.54269,9.75408 l -27.1412,49.07316 a 41.679767,41.679767 0 0 0 -27.87594,-4.87541 l -15.52555,-53.95183 z m -64.423361,50.90247 49.078011,27.14389 a 41.679767,41.679767 0 0 0 -3.14887,22.92334 l -54.027332,15.54727 a 97.751832,97.751832 0 0 1 8.09819,-65.6145 z M 238.47571,217.00261 a 97.751832,97.751832 0 0 1 39.90492,50.07164 l -54.10661,15.57009 a 41.679767,41.679767 0 0 0 -13.01747,-16.42758 l 27.21916,-49.21415 z M 93.623398,330.70616 147.59788,315.1741 a 41.679767,41.679767 0 0 0 18.96522,21.04401 l -27.10087,49.00024 A 97.751832,97.751832 0 0 1 93.623398,330.70616 Z m 133.567692,-38.43635 53.94804,-15.52445 a 97.751832,97.751832 0 0 1 -8.73963,68.54203 l -49.02346,-27.11053 a 41.679767,41.679767 0 0 0 3.81505,-25.90705 z m -6.42303,30.43881 49.07316,27.14121 a 97.751832,97.751832 0 0 1 -52.39958,42.15682 l -15.53206,-53.97448 a 41.679767,41.679767 0 0 0 18.85848,-15.32355 z m -49.4113,15.64968 a 41.679767,41.679767 0 0 0 20.83934,2.28513 l 15.54727,54.02733 a 97.751832,97.751832 0 0 1 -63.61385,-7.08373 l 27.22724,-49.22873 z"
           style="fill:none;fill-opacity:1;stroke:#3f3935;stroke-width:3;stroke-miterlimit:4;stroke-dasharray:none;stroke-opacity:1" />
        <path
           id="path4848"
           d="m 374.11719,72.769531 -6.05469,13.373047 -0.46094,4.742188 1.1875,8.083984 -14.31445,3.83594 -3.01563,-7.595706 -2.76953,-3.875 -11.92968,-8.554687 -6.88282,3.972656 1.44336,14.609377 1.97071,4.33789 5.07226,6.4082 -10.48047,10.47852 -6.4082,-5.07032 -4.33594,-1.97265 -14.60937,-1.44336 -3.97461,6.88281 8.55469,11.92969 3.87695,2.77148 7.5957,3.01368 -3.83594,14.31445 -8.08398,-1.1875 -4.74219,0.46094 -13.375,6.05468 0,7.94727 13.375,6.05469 4.74219,0.46093 8.08398,-1.1875 3.83594,14.31446 -7.5957,3.01367 -3.87695,2.77148 -8.55469,11.92969 3.97461,6.88281 14.60937,-1.44336 4.33594,-1.97265 6.4082,-5.07031 10.48047,10.47851 -5.07226,6.4082 -1.97071,4.33789 -1.44336,14.60938 6.88282,3.97266 11.92968,-8.55469 2.76953,-3.875 3.01563,-7.5957 14.31445,3.83593 -1.1875,8.08399 0.46094,4.74219 6.05469,13.37304 7.94726,0 6.05469,-13.37304 0.46094,-4.74219 -1.1875,-8.08399 14.31445,-3.83593 3.01367,7.5957 2.76953,3.875 11.93165,8.55469 6.88281,-3.97266 -1.44531,-14.60938 -1.97071,-4.33789 -5.07031,-6.4082 10.47852,-10.47851 6.4082,5.07031 4.33789,1.97265 14.60742,1.44336 3.97461,-6.88281 -8.55469,-11.92969 -3.87695,-2.77148 -7.59375,-3.01367 3.83398,-14.31446 8.08594,1.1875 4.74219,-0.46093 13.37305,-6.05469 0,-7.94727 -13.37305,-6.05468 -4.74219,-0.46094 -8.08594,1.1875 -3.83398,-14.31445 7.59375,-3.01368 3.87695,-2.77148 8.55469,-11.92969 -3.97461,-6.88281 -14.60742,1.44336 -4.33789,1.97265 -6.4082,5.07032 -10.47852,-10.47852 5.07031,-6.4082 1.97071,-4.33789 1.44531,-14.609377 -6.88281,-3.972656 -11.93165,8.554687 -2.76953,3.875 -3.01367,7.595706 -14.31445,-3.83594 1.1875,-8.083984 -0.46094,-4.742188 -6.05469,-13.373047 -7.94726,0 z m 3.97265,40.355469 a 49.187752,49.187752 0 0 1 49.1875,49.1875 49.187752,49.187752 0 0 1 -49.1875,49.18945 49.187752,49.187752 0 0 1 -49.1875,-49.18945 49.187752,49.187752 0 0 1 49.1875,-49.1875 z"
           style="color:#000000;clip-rule:nonzero;display:inline;overflow:visible;visibility:visible;opacity:1;isolation:auto;mix-blend-mode:normal;color-interpolation:sRGB;color-interpolation-filters:linearRGB;solid-color:#000000;solid-opacity:1;fill:#534945;fill-opacity:1;fill-rule:nonzero;stroke:#3f3935;stroke-width:3.00000024;stroke-linecap:butt;stroke-linejoin:miter;stroke-miterlimit:4;stroke-dasharray:none;stroke-dashoffset:0;stroke-opacity:1;color-rendering:auto;image-rendering:auto;shape-rendering:auto;text-rendering:auto;enable-background:accumulate" />
        <path
           id="circle5085"
           d="m 316.80859,-31.285156 a 46.680328,46.680328 0 0 0 -46.67968,46.679687 46.680328,46.680328 0 0 0 46.67968,46.681641 46.680328,46.680328 0 0 0 46.67969,-46.681641 46.680328,46.680328 0 0 0 -46.67969,-46.679687 z m 0,26.5097654 A 20.171534,20.171534 0 0 1 336.98047,15.394531 20.171534,20.171534 0 0 1 316.80859,35.566406 20.171534,20.171534 0 0 1 296.63672,15.394531 20.171534,20.171534 0 0 1 316.80859,-4.7753906 Z"
           style="fill:#473e3b;fill-opacity:1;stroke:none;stroke-width:4.66803312" />
        <path
           style="color:#000000;clip-rule:nonzero;display:inline;overflow:visible;visibility:visible;opacity:1;isolation:auto;mix-blend-mode:normal;color-interpolation:sRGB;color-interpolation-filters:linearRGB;solid-color:#000000;solid-opacity:1;fill:none;fill-opacity:1;fill-rule:nonzero;stroke:#3f3935;stroke-width:3.00000024;stroke-linecap:butt;stroke-linejoin:miter;stroke-miterlimit:4;stroke-dasharray:none;stroke-dashoffset:0;stroke-opacity:1;color-rendering:auto;image-rendering:auto;shape-rendering:auto;text-rendering:auto;enable-background:accumulate"
           d="m 312.82422,-74.408203 -6.07227,13.414062 -0.46289,4.753907 1.19141,8.109375 -14.35547,3.845703 -3.02344,-7.617188 -2.77929,-3.886718 -11.96289,-8.580079 -6.9043,3.986329 1.44922,14.65039 1.97656,4.34961 5.08594,6.427734 -10.50977,10.507812 -6.42578,-5.083984 -4.34961,-1.978516 -14.65234,-1.447265 -3.98438,6.902343 8.58008,11.964844 3.88672,2.777344 7.61719,3.0234375 -3.84766,14.3554687 -8.10742,-1.1894531 -4.75586,0.4609375 -13.41211,6.0722654 0,7.970703 13.41211,6.072266 4.75586,0.460937 8.10742,-1.189453 3.84766,14.355469 -7.61719,3.023438 -3.88672,2.777343 -8.58008,11.964844 3.98438,6.902344 14.65234,-1.447266 4.34961,-1.978515 6.42578,-5.083985 10.50977,10.507813 -5.08594,6.427734 -1.97656,4.34961 -1.44922,14.65039 6.9043,3.986328 11.96289,-8.580078 2.77929,-3.886719 3.02344,-7.617187 14.35547,3.845703 -1.19141,8.107422 0.46289,4.755859 6.07227,13.412114 7.9707,0 6.07031,-13.412114 0.46289,-4.755859 -1.1914,-8.107422 14.35742,-3.845703 3.02148,7.617187 2.7793,3.886719 11.96289,8.580078 6.9043,-3.986328 -1.44922,-14.65039 -1.97656,-4.34961 -5.08594,-6.427734 10.50977,-10.507813 6.42578,5.083985 4.34961,1.978515 14.65234,1.447266 3.98438,-6.902344 -8.57813,-11.964844 -3.88867,-2.777343 -7.61719,-3.023438 3.84766,-14.355469 8.10742,1.189453 4.75586,-0.460937 13.41211,-6.072266 0,-7.970703 -13.41211,-6.0722654 -4.75586,-0.4609375 -8.10742,1.1894531 -3.84766,-14.3554687 7.61719,-3.0234375 3.88867,-2.777344 8.57813,-11.964844 -3.98438,-6.902343 -14.65234,1.447265 -4.34961,1.978516 -6.42578,5.083984 -10.50977,-10.507812 5.08594,-6.427734 1.97656,-4.34961 1.44922,-14.65039 -6.9043,-3.986329 -11.96289,8.580079 -2.7793,3.886718 -3.02148,7.617188 -14.35742,-3.845703 1.1914,-8.109375 -0.46289,-4.753907 -6.07031,-13.414062 -7.9707,0 z m 3.98437,69.6328124 A 20.171534,20.171534 0 0 1 336.98047,15.394531 20.171534,20.171534 0 0 1 316.80859,35.566406 20.171534,20.171534 0 0 1 296.63672,15.394531 20.171534,20.171534 0 0 1 316.80859,-4.7753906 Z"
           id="path5102" />
      </g>
    </g>
    <path
       id="warning"
       d="m 100,0 0,372 320,0 0,-372 -320,0 z m 40.64258,30.851562 13.08203,0 c 1.3878,10e-7 2.50391,1.116109 2.50391,2.503907 l 0,23.660156 12.30273,0 c 0.43975,1.54602 0.0517,3.272511 -1.16992,4.494141 l -16.93555,16.935546 c -0.89829,0.89828 -2.06988,1.347657 -3.24219,1.347657 -1.17231,0 -2.34586,-0.449377 -3.24414,-1.347657 L 127.00391,61.509766 c -1.22162,-1.22163 -1.60967,-2.948131 -1.16993,-4.494141 l 12.30274,0 0,-23.660156 c 0,-1.387798 1.11806,-2.503907 2.50586,-2.503907 z m 75.76367,0 13.08203,0 c 1.3878,10e-7 2.50586,1.116109 2.50586,2.503907 l 0,23.660156 12.30274,0 c 0.43974,1.54602 0.0498,3.272511 -1.17188,4.494141 l -16.93555,16.935546 c -0.89829,0.89828 -2.06987,1.347657 -3.24218,1.347657 -1.17231,0 -2.34391,-0.449377 -3.24219,-1.347657 L 202.76953,61.509766 c -1.22162,-1.22163 -1.60966,-2.948131 -1.16992,-4.494141 l 12.30273,0 0,-23.660156 c 0,-1.387798 1.11611,-2.503907 2.50391,-2.503907 z m 74.52344,0 13.08203,0 c 1.3878,10e-7 2.5039,1.116109 2.5039,2.503907 l 0,23.660156 12.30274,0 c 0.43975,1.54602 0.0517,3.272511 -1.16992,4.494141 l -16.93555,16.935546 c -0.89829,0.89828 -2.06988,1.347657 -3.24219,1.347657 -1.17231,0 -2.34586,-0.449377 -3.24414,-1.347657 L 277.29297,61.509766 c -1.22162,-1.22163 -1.61162,-2.948131 -1.17188,-4.494141 l 12.30274,0 0,-23.660156 c 0,-1.387798 1.11806,-2.503907 2.50586,-2.503907 z m 77.00586,0 13.08203,0 c 1.3878,10e-7 2.50586,1.116109 2.50586,2.503907 l 0,23.660156 12.30273,0 c 0.43975,1.54602 0.0517,3.272511 -1.16992,4.494141 L 377.7207,78.445312 c -0.89829,0.89828 -2.07183,1.347657 -3.24414,1.347657 -1.17231,0 -2.34391,-0.449377 -3.24218,-1.347657 L 354.29883,61.509766 c -1.22162,-1.22163 -1.60966,-2.948131 -1.16992,-4.494141 l 12.30273,0 0,-23.660156 c 0,-1.387798 1.11611,-2.503907 2.50391,-2.503907 z m -190.03321,67.070313 13.08399,0 c 1.3878,0 2.5039,1.116113 2.5039,2.503905 l 0,23.66016 12.30274,0 c 0.43975,1.54602 0.0517,3.27446 -1.16992,4.49609 l -16.93555,16.93359 c -0.89829,0.89828 -2.07183,1.34766 -3.24414,1.34766 -1.17231,0 -2.34391,-0.44938 -3.24219,-1.34766 l -16.93555,-16.93359 c -1.22161,-1.22163 -1.60966,-2.95008 -1.16992,-4.49609 l 12.30274,0 0,-23.66016 c 0,-1.387792 1.1161,-2.503905 2.5039,-2.503905 z m 74.52344,0 13.08203,0 c 1.3878,0 2.50586,1.116113 2.50586,2.503905 l 0,23.66016 12.30274,0 c 0.43975,1.54602 0.0498,3.27446 -1.17188,4.49609 l -16.93555,16.93359 c -0.89829,0.89828 -2.06987,1.34766 -3.24218,1.34766 -1.17231,0 -2.34391,-0.44938 -3.24219,-1.34766 l -16.93555,-16.93359 c -1.22162,-1.22163 -1.61161,-2.95008 -1.17187,-4.49609 l 12.30469,0 0,-23.66016 c 0,-1.387792 1.1161,-2.503905 2.5039,-2.503905 z m 77.00781,0 13.08203,0 c 1.38781,0 2.50391,1.116113 2.50391,2.503905 l 0,23.66016 12.30274,0 c 0.43975,1.54602 0.0517,3.27446 -1.16993,4.49609 l -16.93554,16.93359 c -0.89829,0.89828 -2.07183,1.34766 -3.24414,1.34766 -1.17231,0 -2.34391,-0.44938 -3.24219,-1.34766 l -16.93555,-16.93359 c -1.22162,-1.22163 -1.60966,-2.95008 -1.16992,-4.49609 l 12.30273,0 0,-23.66016 c 0,-1.387792 1.11806,-2.503905 2.50586,-2.503905 z m -188.79101,68.312505 13.08203,0 c 1.3878,-2e-5 2.50391,1.1161 2.50391,2.5039 l 0,23.66016 12.30273,0 c 0.43975,1.54602 0.0517,3.27446 -1.16992,4.49609 l -16.93555,16.93359 c -0.89829,0.89829 -2.06988,1.34766 -3.24219,1.34766 -1.17231,0 -2.34586,-0.44938 -3.24414,-1.34766 l -16.93554,-16.93359 c -1.22162,-1.22163 -1.60967,-2.95008 -1.16993,-4.49609 l 12.30274,0 0,-23.66016 c 0,-1.3878 1.11806,-2.5039 2.50586,-2.5039 z m 75.76367,0 13.08203,0 c 1.3878,-2e-5 2.50586,1.1161 2.50586,2.5039 l 0,23.66016 12.30274,0 c 0.43974,1.54602 0.0498,3.27446 -1.17188,4.49609 l -16.93555,16.93359 c -0.89829,0.89829 -2.06987,1.34766 -3.24218,1.34766 -1.17231,0 -2.34391,-0.44938 -3.24219,-1.34766 l -16.93555,-16.93359 c -1.22162,-1.22163 -1.60966,-2.95008 -1.16992,-4.49609 l 12.30273,0 0,-23.66016 c 0,-1.3878 1.11611,-2.5039 2.50391,-2.5039 z m 74.52344,0 13.08203,0 c 1.3878,-2e-5 2.5039,1.1161 2.5039,2.5039 l 0,23.66016 12.30274,0 c 0.43975,1.54602 0.0517,3.27446 -1.16992,4.49609 l -16.93555,16.93359 c -0.89829,0.89829 -2.06988,1.34766 -3.24219,1.34766 -1.17231,0 -2.34586,-0.44938 -3.24414,-1.34766 l -16.93359,-16.93359 c -1.22162,-1.22163 -1.61162,-2.95008 -1.17188,-4.49609 l 12.30274,0 0,-23.66016 c 0,-1.3878 1.11806,-2.5039 2.50586,-2.5039 z m 77.00586,0 13.08203,0 c 1.3878,-2e-5 2.50586,1.1161 2.50586,2.5039 l 0,23.66016 12.30273,0 c 0.43975,1.54602 0.0517,3.27446 -1.16992,4.49609 l -16.93555,16.93359 c -0.89829,0.89829 -2.07183,1.34766 -3.24414,1.34766 -1.17231,0 -2.34391,-0.44938 -3.24218,-1.34766 l -16.93555,-16.93359 c -1.22162,-1.22163 -1.60966,-2.95008 -1.16992,-4.49609 l 12.30273,0 0,-23.66016 c 0,-1.3878 1.11611,-2.5039 2.50391,-2.5039 z m -190.03321,67.07031 13.08399,0 c 1.3878,0 2.5039,1.11806 2.5039,2.50586 l 0,23.6582 12.30274,0 c 0.43975,1.54602 0.0517,3.27446 -1.16992,4.49609 l -16.93555,16.9336 c -0.89829,0.89828 -2.07183,1.34765 -3.24414,1.34765 -1.17231,0 -2.34391,-0.44937 -3.24219,-1.34765 l -16.93555,-16.9336 c -1.22161,-1.22163 -1.60966,-2.95008 -1.16992,-4.49609 l 12.30274,0 0,-23.6582 c 0,-1.3878 1.1161,-2.50586 2.5039,-2.50586 z m 74.52344,0 13.08203,0 c 1.3878,0 2.50586,1.11806 2.50586,2.50586 l 0,23.6582 12.30274,0 c 0.43975,1.54602 0.0498,3.27446 -1.17188,4.49609 l -16.93555,16.9336 c -0.89829,0.89828 -2.06987,1.34765 -3.24218,1.34765 -1.17231,0 -2.34391,-0.44937 -3.24219,-1.34765 l -16.93555,-16.9336 c -1.22162,-1.22163 -1.61161,-2.95008 -1.17187,-4.49609 l 12.30469,0 0,-23.6582 c -10e-6,-1.3878 1.1161,-2.50586 2.5039,-2.50586 z m 77.00781,0 13.08203,0 c 1.38781,0 2.50391,1.11806 2.50391,2.50586 l 0,23.6582 12.30274,0 c 0.43975,1.54602 0.0517,3.27446 -1.16993,4.49609 l -16.93554,16.9336 c -0.89829,0.89828 -2.07183,1.34765 -3.24414,1.34765 -1.17231,0 -2.34391,-0.44937 -3.24219,-1.34765 l -16.93555,-16.9336 c -1.22162,-1.22163 -1.60966,-2.95008 -1.16992,-4.49609 l 12.30273,0 0,-23.6582 c 0,-1.3878 1.11806,-2.50586 2.50586,-2.50586 z m -188.79101,68.3125 13.08203,0 c 1.3878,0 2.50391,1.11806 2.50391,2.50586 l 0,23.6582 12.30273,0 c 0.43975,1.54602 0.0517,3.27446 -1.16992,4.49609 l -16.93555,16.9336 c -0.89829,0.89828 -2.06988,1.34765 -3.24219,1.34765 -1.17231,0 -2.34586,-0.44937 -3.24414,-1.34765 l -16.93554,-16.9336 c -1.22162,-1.22163 -1.60967,-2.95008 -1.16993,-4.49609 l 12.30274,0 0,-23.6582 c 0,-1.3878 1.11806,-2.50586 2.50586,-2.50586 z m 75.76367,0 13.08203,0 c 1.3878,0 2.50586,1.11806 2.50586,2.50586 l 0,23.6582 12.30274,0 c 0.43974,1.54602 0.0498,3.27446 -1.17188,4.49609 l -16.93555,16.9336 c -0.89829,0.89828 -2.06987,1.34765 -3.24218,1.34765 -1.17231,0 -2.34391,-0.44937 -3.24219,-1.34765 l -16.93555,-16.9336 c -1.22162,-1.22163 -1.60966,-2.95008 -1.16992,-4.49609 l 12.30273,0 0,-23.6582 c 0,-1.3878 1.11611,-2.50586 2.50391,-2.50586 z m 74.52344,0 13.08203,0 c 1.3878,0 2.5039,1.11806 2.5039,2.50586 l 0,23.6582 12.30274,0 c 0.43975,1.54602 0.0517,3.27446 -1.16992,4.49609 l -16.93555,16.9336 c -0.89829,0.89828 -2.06988,1.34765 -3.24219,1.34765 -1.17231,0 -2.34586,-0.44937 -3.24414,-1.34765 l -16.93359,-16.9336 c -1.22162,-1.22163 -1.61162,-2.95008 -1.17188,-4.49609 l 12.30274,0 0,-23.6582 c 0,-1.3878 1.11806,-2.50586 2.50586,-2.50586 z m 77.00586,0 13.08203,0 c 1.3878,0 2.50586,1.11806 2.50586,2.50586 l 0,23.6582 12.30273,0 c 0.43975,1.54602 0.0517,3.27446 -1.16992,4.49609 l -16.93555,16.9336 c -0.89829,0.89828 -2.07183,1.34765 -3.24414,1.34765 -1.17231,0 -2.34391,-0.44937 -3.24218,-1.34765 l -16.93555,-16.9336 c -1.22162,-1.22163 -1.60966,-2.95008 -1.16992,-4.49609 l 12.30273,0 0,-23.6582 c 0,-1.3878 1.11611,-2.50586 2.50391,-2.50586 z"
       style="fill:#521717;fill-opacity:0.23;stroke:none;" />
    <rect
       y="376.22501"
       x="96.947701"
       height="106.50593"
       width="325.66235"
       id="filter"
       style="color:#000000;clip-rule:nonzero;display:inline;overflow:visible;visibility:visible;opacity:1;isolation:auto;mix-blend-mode:normal;color-interpolation:sRGB;color-interpolation-filters:linearRGB;solid-color:#000000;solid-opacity:1;fill:#1e0101;fill-opacity:0.22651936;fill-rule:evenodd;stroke:none;stroke-width:3;stroke-linecap:round;stroke-linejoin:miter;stroke-miterlimit:4;stroke-dasharray:none;stroke-dashoffset:0;stroke-opacity:1;color-rendering:auto;image-rendering:auto;shape-rendering:auto;text-rendering:auto;enable-background:accumulate" />
    <g
       id="miscbg">
      <path
         style="color:#000000;clip-rule:nonzero;display:inline;overflow:visible;visibility:visible;opacity:1;isolation:auto;mix-blend-mode:normal;color-interpolation:sRGB;color-interpolation-filters:linearRGB;solid-color:#000000;solid-opacity:1;fill:none;fill-opacity:1;fill-rule:evenodd;stroke:#1c1c1c;stroke-width:3;stroke-linecap:round;stroke-linejoin:miter;stroke-miterlimit:4;stroke-dasharray:none;stroke-dashoffset:0;stroke-opacity:1;color-rendering:auto;image-rendering:auto;shape-rendering:auto;text-rendering:auto;enable-background:accumulate"
         d="m 173.14984,416.02595 17.78429,-0.49401"
         id="path4523" />
      <path
         style="color:#000000;clip-rule:nonzero;display:inline;overflow:visible;visibility:visible;opacity:1;isolation:auto;mix-blend-mode:normal;color-interpolation:sRGB;color-interpolation-filters:linearRGB;solid-color:#000000;solid-opacity:1;fill:none;fill-opacity:1;fill-rule:evenodd;stroke:#1c1c1c;stroke-width:3;stroke-linecap:round;stroke-linejoin:miter;stroke-miterlimit:4;stroke-dasharray:none;stroke-dashoffset:0;stroke-opacity:1;color-rendering:auto;image-rendering:auto;shape-rendering:auto;text-rendering:auto;enable-background:accumulate"
         d="m 175.86689,423.93008 13.33821,0"
         id="path4539" />
      <path
         style="color:#000000;clip-rule:nonzero;display:inline;overflow:visible;visibility:visible;opacity:1;isolation:auto;mix-blend-mode:normal;color-interpolation:sRGB;color-interpolation-filters:linearRGB;solid-color:#000000;solid-opacity:1;fill:none;fill-opacity:1;fill-rule:evenodd;stroke:#1c1c1c;stroke-width:3.79999995;stroke-linecap:round;stroke-linejoin:miter;stroke-miterlimit:4;stroke-dasharray:none;stroke-dashoffset:0;stroke-opacity:1;color-rendering:auto;image-rendering:auto;shape-rendering:auto;text-rendering:auto;enable-background:accumulate"
         d="m 180.0259,480.59414 13.07119,-76.64468"
         id="path4507" />
      <path
         style="color:#000000;font-style:normal;font-variant:normal;font-weight:normal;font-stretch:normal;font-size:medium;line-height:normal;font-family:sans-serif;text-indent:0;text-align:start;text-decoration:none;text-decoration-line:none;text-decoration-style:solid;text-decoration-color:#000000;letter-spacing:normal;word-spacing:normal;text-transform:none;direction:ltr;block-progression:tb;writing-mode:lr-tb;baseline-shift:baseline;text-anchor:start;white-space:normal;clip-rule:nonzero;display:inline;overflow:visible;visibility:visible;opacity:1;isolation:auto;mix-blend-mode:normal;color-interpolation:sRGB;color-interpolation-filters:linearRGB;solid-color:#000000;solid-opacity:1;fill:#333333;fill-opacity:1;fill-rule:evenodd;stroke:#1c1c1c;stroke-width:2;stroke-linecap:butt;stroke-linejoin:miter;stroke-miterlimit:4;stroke-dasharray:none;stroke-dashoffset:0;stroke-opacity:1;color-rendering:auto;image-rendering:auto;shape-rendering:auto;text-rendering:auto;enable-background:accumulate"
         d="m 391.80078,413.08789 c -15.81429,-0.37622 -29.54193,3.10627 -40.48828,10.19141 -17.51416,11.33622 -27.50391,31.80964 -27.50391,59.01562 l 4.90039,0 c 0,-26.02322 9.28211,-44.55489 25.26563,-54.90039 15.98352,-10.34549 39.07057,-12.59095 67.06445,-4.68945 l 1.33008,-4.7168 c -10.83986,-3.05964 -21.07978,-4.67466 -30.56836,-4.90039 z"
         id="path4620" />
      <path
         style="color:#000000;clip-rule:nonzero;display:inline;overflow:visible;visibility:visible;opacity:1;isolation:auto;mix-blend-mode:normal;color-interpolation:sRGB;color-interpolation-filters:linearRGB;solid-color:#000000;solid-opacity:1;fill:none;fill-opacity:1;fill-rule:evenodd;stroke:#1c1c1c;stroke-width:3;stroke-linecap:butt;stroke-linejoin:miter;stroke-miterlimit:4;stroke-dasharray:none;stroke-dashoffset:0;stroke-opacity:1;color-rendering:auto;image-rendering:auto;shape-rendering:auto;text-rendering:auto;enable-background:accumulate"
         d="m 293.67923,458.28254 33.26802,0"
         id="path4639" />
    </g>
    <g
       id="timer">
      <rect
         style="color:#000000;clip-rule:nonzero;display:inline;overflow:visible;visibility:visible;opacity:1;isolation:auto;mix-blend-mode:normal;color-interpolation:sRGB;color-interpolation-filters:linearRGB;solid-color:#000000;solid-opacity:1;fill:#387473;fill-opacity:0.58563538;fill-rule:evenodd;stroke:none;stroke-width:1px;stroke-linecap:butt;stroke-linejoin:miter;stroke-miterlimit:4;stroke-dasharray:none;stroke-dashoffset:0;stroke-opacity:1;color-rendering:auto;image-rendering:auto;shape-rendering:auto;text-rendering:auto;enable-background:accumulate"
         id="rect4297"
         width="40.466877"
         height="66.080147"
         x="370.01669"
         y="400.9866" />
      <g
         id="slide"
         style="opacity:0.80100002">
        <rect
           y="401.36789"
           x="370.10605"
           height="69.27626"
           width="39.224915"
           id="rect4331"
           style="color:#000000;clip-rule:nonzero;display:inline;overflow:visible;visibility:visible;opacity:1;isolation:auto;mix-blend-mode:normal;color-interpolation:sRGB;color-interpolation-filters:linearRGB;solid-color:#000000;solid-opacity:1;fill:#ba1111;fill-opacity:1;fill-rule:evenodd;stroke:#570e0e;stroke-width:1px;stroke-linecap:butt;stroke-linejoin:miter;stroke-miterlimit:4;stroke-dasharray:none;stroke-dashoffset:0;stroke-opacity:1;color-rendering:auto;image-rendering:auto;shape-rendering:auto;text-rendering:auto;enable-background:accumulate" />
        <path
           id="path4333"
           d="M 379.82422 405.95508 A 4.6122513 4.6122513 0 0 0 375.21289 410.56641 A 4.6122513 4.6122513 0 0 0 379.82422 415.17969 A 4.6122513 4.6122513 0 0 0 384.4375 410.56641 A 4.6122513 4.6122513 0 0 0 379.82422 405.95508 z M 398.52344 412.93555 A 3.1163859 3.1163859 0 0 0 395.40625 416.05078 A 3.1163859 3.1163859 0 0 0 398.52344 419.16797 A 3.1163859 3.1163859 0 0 0 401.64062 416.05078 A 3.1163859 3.1163859 0 0 0 398.52344 412.93555 z M 383.06641 417.17383 A 2.3684533 2.3684533 0 0 0 380.69727 419.54297 A 2.3684533 2.3684533 0 0 0 383.06641 421.91016 A 2.3684533 2.3684533 0 0 0 385.43555 419.54297 A 2.3684533 2.3684533 0 0 0 383.06641 417.17383 z M 401.26562 421.66211 A 3.6150076 3.6150076 0 0 0 397.65039 425.27539 A 3.6150076 3.6150076 0 0 0 401.26562 428.89062 A 3.6150076 3.6150076 0 0 0 404.88086 425.27539 A 3.6150076 3.6150076 0 0 0 401.26562 421.66211 z M 380.82227 430.88672 A 1.6205206 1.6205206 0 0 0 379.20117 432.50586 A 1.6205206 1.6205206 0 0 0 380.82227 434.12695 A 1.6205206 1.6205206 0 0 0 382.44336 432.50586 A 1.6205206 1.6205206 0 0 0 380.82227 430.88672 z M 377.83008 434.625 A 2.1191423 2.1191423 0 0 0 375.71094 436.74414 A 2.1191423 2.1191423 0 0 0 377.83008 438.86328 A 2.1191423 2.1191423 0 0 0 379.94922 436.74414 A 2.1191423 2.1191423 0 0 0 377.83008 434.625 z M 401.26562 438.11523 A 1.1218988 1.1218988 0 0 0 400.14453 439.23828 A 1.1218988 1.1218988 0 0 0 401.26562 440.35938 A 1.1218988 1.1218988 0 0 0 402.38867 439.23828 A 1.1218988 1.1218988 0 0 0 401.26562 438.11523 z M 377.83008 440.85742 A 3.6150076 3.6150076 0 0 0 374.21484 444.47266 A 3.6150076 3.6150076 0 0 0 377.83008 448.08789 A 3.6150076 3.6150076 0 0 0 381.44531 444.47266 A 3.6150076 3.6150076 0 0 0 377.83008 440.85742 z M 397.77539 442.10547 A 1.1218988 1.1218988 0 0 0 396.6543 443.22656 A 1.1218988 1.1218988 0 0 0 397.77539 444.34766 A 1.1218988 1.1218988 0 0 0 398.89844 443.22656 A 1.1218988 1.1218988 0 0 0 397.77539 442.10547 z M 400.76758 445.3457 A 3.1163859 3.1163859 0 0 0 397.65039 448.46289 A 3.1163859 3.1163859 0 0 0 400.76758 451.57812 A 3.1163859 3.1163859 0 0 0 403.88281 448.46289 A 3.1163859 3.1163859 0 0 0 400.76758 445.3457 z M 381.07227 452.32617 A 1.6205206 1.6205206 0 0 0 379.45117 453.94727 A 1.6205206 1.6205206 0 0 0 381.07227 455.56836 A 1.6205206 1.6205206 0 0 0 382.69141 453.94727 A 1.6205206 1.6205206 0 0 0 381.07227 452.32617 z M 401.76367 454.57031 A 1.6205206 1.6205206 0 0 0 400.14453 456.19141 A 1.6205206 1.6205206 0 0 0 401.76367 457.81055 A 1.6205206 1.6205206 0 0 0 403.38477 456.19141 A 1.6205206 1.6205206 0 0 0 401.76367 454.57031 z M 377.33203 455.31836 A 2.1191423 2.1191423 0 0 0 375.21289 457.4375 A 2.1191423 2.1191423 0 0 0 377.33203 459.55664 A 2.1191423 2.1191423 0 0 0 379.45117 457.4375 A 2.1191423 2.1191423 0 0 0 377.33203 455.31836 z M 398.52344 458.80859 A 4.6122513 4.6122513 0 0 0 393.91211 463.41992 A 4.6122513 4.6122513 0 0 0 398.52344 468.0332 A 4.6122513 4.6122513 0 0 0 403.13477 463.41992 A 4.6122513 4.6122513 0 0 0 398.52344 458.80859 z "
           style="color:#000000;clip-rule:nonzero;display:inline;overflow:visible;visibility:visible;opacity:1;isolation:auto;mix-blend-mode:normal;color-interpolation:sRGB;color-interpolation-filters:linearRGB;solid-color:#000000;solid-opacity:1;fill:#c44c2e;fill-opacity:1;fill-rule:evenodd;stroke:none;stroke-width:1px;stroke-linecap:butt;stroke-linejoin:miter;stroke-miterlimit:4;stroke-dasharray:none;stroke-dashoffset:0;stroke-opacity:1;color-rendering:auto;image-rendering:auto;shape-rendering:auto;text-rendering:auto;enable-background:accumulate" />
      </g>
      <rect
         y="402.97498"
         x="407.97339"
         height="65.117783"
         width="4.465219"
         id="rect4329"
         style="color:#000000;clip-rule:nonzero;display:inline;overflow:visible;visibility:visible;opacity:1;isolation:auto;mix-blend-mode:normal;color-interpolation:sRGB;color-interpolation-filters:linearRGB;solid-color:#000000;solid-opacity:1;fill:#666666;fill-opacity:1;fill-rule:evenodd;stroke:#292929;stroke-width:1.5;stroke-linecap:butt;stroke-linejoin:miter;stroke-miterlimit:4;stroke-dasharray:none;stroke-dashoffset:0;stroke-opacity:1;color-rendering:auto;image-rendering:auto;shape-rendering:auto;text-rendering:auto;enable-background:accumulate" />
      <rect
         style="color:#000000;clip-rule:nonzero;display:inline;overflow:visible;visibility:visible;opacity:1;isolation:auto;mix-blend-mode:normal;color-interpolation:sRGB;color-interpolation-filters:linearRGB;solid-color:#000000;solid-opacity:1;fill:#666666;fill-opacity:1;fill-rule:evenodd;stroke:#292929;stroke-width:1.5;stroke-linecap:butt;stroke-linejoin:miter;stroke-miterlimit:4;stroke-dasharray:none;stroke-dashoffset:0;stroke-opacity:1;color-rendering:auto;image-rendering:auto;shape-rendering:auto;text-rendering:auto;enable-background:accumulate"
         id="rect4313"
         width="4.465219"
         height="65.117783"
         x="368.00848"
         y="402.97498" />
      <rect
         style="color:#000000;clip-rule:nonzero;display:inline;overflow:visible;visibility:visible;opacity:1;isolation:auto;mix-blend-mode:normal;color-interpolation:sRGB;color-interpolation-filters:linearRGB;solid-color:#000000;solid-opacity:1;fill:#4d4d4d;fill-opacity:1;fill-rule:evenodd;stroke:#232323;stroke-width:1.5;stroke-linecap:butt;stroke-linejoin:miter;stroke-miterlimit:4;stroke-dasharray:none;stroke-dashoffset:0;stroke-opacity:1;color-rendering:auto;image-rendering:auto;shape-rendering:auto;text-rendering:auto;enable-background:accumulate"
         id="rect4293"
         width="45.551086"
         height="15.623266"
         x="367.47458"
         y="464.67032" />
      <path
         style="color:#000000;clip-rule:nonzero;display:inline;overflow:visible;visibility:visible;opacity:1;isolation:auto;mix-blend-mode:normal;color-interpolation:sRGB;color-interpolation-filters:linearRGB;solid-color:#000000;solid-opacity:1;fill:#4d4d4d;fill-opacity:1;fill-rule:evenodd;stroke:#232323;stroke-width:1.5;stroke-linecap:butt;stroke-linejoin:miter;stroke-miterlimit:4;stroke-dasharray:none;stroke-dashoffset:0;stroke-opacity:1;color-rendering:auto;image-rendering:auto;shape-rendering:auto;text-rendering:auto;enable-background:accumulate"
         d="m 369.76367,396.6543 c -1.26851,0 -2.28906,1.02055 -2.28906,2.28906 l 0,0.42187 0,1.61329 0,5 45.55078,0 0,-5 0,-1.61329 0,-0.42187 c 0,-1.26851 -1.02055,-2.28906 -2.28906,-2.28906 l -40.97266,0 z"
         id="rect4295" />
      <path
         style="color:#000000;clip-rule:nonzero;display:inline;overflow:visible;visibility:visible;opacity:1;isolation:auto;mix-blend-mode:normal;color-interpolation:sRGB;color-interpolation-filters:linearRGB;solid-color:#000000;solid-opacity:1;fill:none;fill-opacity:1;fill-rule:evenodd;stroke:#232323;stroke-width:1;stroke-linecap:butt;stroke-linejoin:miter;stroke-miterlimit:4;stroke-dasharray:none;stroke-dashoffset:0;stroke-opacity:1;color-rendering:auto;image-rendering:auto;shape-rendering:auto;text-rendering:auto;enable-background:accumulate"
         d="m 367.63281,402.20218 45.25494,0"
         id="path3466" />
    </g>
    <path
       id="floor"
       d="m 259.82422,437.31055 c -13.46195,0 -25.30794,7.03136 -32.08008,17.60742 l -99.49805,-9.2793 -0.82812,8.89649 10.05078,0.9375 -4.69336,19.91211 -34.667968,0 0,17.07617 322.470698,0 0,-17.07617 -122.67968,0 c 0,-20.99217 -17.08206,-38.07422 -38.07422,-38.07422 z m 0,6 c 17.74952,0 32.07422,14.32469 32.07422,32.07422 l -64.14844,0 c 0,-3.98085 0.72484,-7.78745 2.04297,-11.30079 l 33.91015,3.16211 0.83008,-8.89648 -29.93359,-2.79102 c 5.8664,-7.46024 14.97041,-12.24804 25.22461,-12.24804 z m -117.04688,12.65625 80.87891,7.54492 c -1.23089,3.7391 -1.90625,7.72754 -1.90625,11.87305 l -83.54883,0 4.57617,-19.41797 z"
       style="color:#000000;font-style:normal;font-variant:normal;font-weight:normal;font-stretch:normal;font-size:medium;line-height:normal;font-family:sans-serif;text-indent:0;text-align:start;text-decoration:none;text-decoration-line:none;text-decoration-style:solid;text-decoration-color:#000000;letter-spacing:normal;word-spacing:normal;text-transform:none;direction:ltr;block-progression:tb;writing-mode:lr-tb;baseline-shift:baseline;text-anchor:start;white-space:normal;clip-rule:nonzero;display:inline;overflow:visible;visibility:visible;opacity:1;isolation:auto;mix-blend-mode:normal;color-interpolation:sRGB;color-interpolation-filters:linearRGB;solid-color:#000000;solid-opacity:1;fill:#333333;fill-opacity:1;fill-rule:evenodd;stroke:#1c1c1c;stroke-width:2;stroke-linecap:butt;stroke-linejoin:miter;stroke-miterlimit:4;stroke-dasharray:none;stroke-dashoffset:0;stroke-opacity:1;color-rendering:auto;image-rendering:auto;shape-rendering:auto;text-rendering:auto;enable-background:accumulate" />
    <rect
         y="371.39999"
         x="98.274384"
         height="10"
         width="323.45123"
         id="threshold"
         style="color:#000000;clip-rule:nonzero;display:inline;overflow:visible;visibility:visible;opacity:1;isolation:auto;mix-blend-mode:normal;color-interpolation:sRGB;color-interpolation-filters:linearRGB;solid-color:#000000;solid-opacity:1;fill:#2f1e17;fill-opacity:1;fill-rule:evenodd;stroke:none;stroke-width:1px;stroke-linecap:butt;stroke-linejoin:miter;stroke-miterlimit:4;stroke-dasharray:none;stroke-dashoffset:0;stroke-opacity:1;color-rendering:auto;image-rendering:auto;shape-rendering:auto;text-rendering:auto;enable-background:accumulate" />
    <g id="tip">
        <path d="M 0,0 L 0,0"/>
        <circle cx="0" cy="0" r="0"/>
    </g>
    <g
       transform="translate(260,410)"
       id="wheel">
      <g id="rotate" transform="rotate(0)">
        <path
           style="color:#000000;clip-rule:nonzero;display:inline;overflow:visible;visibility:visible;opacity:1;isolation:auto;mix-blend-mode:normal;color-interpolation:sRGB;color-interpolation-filters:linearRGB;solid-color:#000000;solid-opacity:1;fill:#503b2f;fill-opacity:1;fill-rule:evenodd;stroke:#25211e;stroke-width:1.5;stroke-linecap:butt;stroke-linejoin:miter;stroke-miterlimit:4;stroke-dasharray:none;stroke-dashoffset:0;stroke-opacity:1;color-rendering:auto;image-rendering:auto;shape-rendering:auto;text-rendering:auto;enable-background:accumulate"
           d="M 0,-30 A 30,30 0 0 0 -30,0 30,30 0 0 0 0,30 30,30 0 0 0 30,0 30,30 0 0 0 0,-30 Z m -1.8300781,4.193359 a 25.87068,25.87068 0 0 1 0.00195,0 l 0,22.0390629 -15.4492189,-15.4492189 a 25.87068,25.87068 0 0 1 15.4472658,-6.589844 z m 4.0019531,0.04492 a 25.87068,25.87068 0 0 1 15.283203,6.710938 l -15.283203,15.2832029 0,-21.9941409 z M -19.050781,-17.455078 -3.5957031,-2 -25.771484,-2 a 25.87068,25.87068 0 0 1 6.720703,-15.455078 z m 38.267578,0.177734 A 25.87068,25.87068 0 0 1 25.785156,-2 L 3.9394531,-2 19.216797,-17.277344 Z M -25.785156,2 -3.5957031,2 -19.054688,17.458984 A 25.87068,25.87068 0 0 1 -25.785156,2 Z M 3.9394531,2 25.771484,2 A 25.87068,25.87068 0 0 1 19.216797,17.277344 L 3.9394531,2 Z m -5.7675781,1.7675781 0,22.0117189 a 25.87068,25.87068 0 0 1 -15.449219,-6.5625 L -1.828125,3.7675781 Z m 4,0 15.287109,15.2871099 A 25.87068,25.87068 0 0 1 2.171875,25.765625 l 0,-21.9980469 z"
           id="path5231" />
        <path
           style="color:#000000;font-style:normal;font-variant:normal;font-weight:normal;font-stretch:normal;font-size:medium;line-height:normal;font-family:sans-serif;text-indent:0;text-align:start;text-decoration:none;text-decoration-line:none;text-decoration-style:solid;text-decoration-color:#000000;letter-spacing:normal;word-spacing:normal;text-transform:none;direction:ltr;block-progression:tb;writing-mode:lr-tb;baseline-shift:baseline;text-anchor:start;white-space:normal;clip-rule:nonzero;display:inline;overflow:visible;visibility:visible;opacity:1;isolation:auto;mix-blend-mode:normal;color-interpolation:sRGB;color-interpolation-filters:linearRGB;solid-color:#000000;solid-opacity:1;fill:#982828;fill-opacity:1;fill-rule:evenodd;stroke:#371d1d;stroke-width:1.5;stroke-linecap:butt;stroke-linejoin:miter;stroke-miterlimit:4;stroke-dasharray:none;stroke-dashoffset:0;stroke-opacity:1;color-rendering:auto;image-rendering:auto;shape-rendering:auto;text-rendering:auto;enable-background:accumulate"
           d="m 0,-58.428757 c -3.3799699,0 -6.1191409,14.889561 -6.1191406,18.269531 10e-8,1.603983 0.6211785,3.059085 1.6308594,4.150391 -2.1831549,1.460873 -3.6308594,3.948732 -3.6308594,6.753906 0,3.770176 2.6168663,6.95785 6.1191406,7.857422 l 0,39.987612 c -3.3010621,1.078907 -5.7343747,4.749189 -5.734375,9.125 -1e-7,0.933848 0.1433251,2.554755 0.3496094,4.392579 C -5.1686489,31.442495 -2.6631448,31.056902 0,31.056902 c 2.6631448,0 5.1686489,0.385593 7.3847656,1.050782 C 7.5910499,30.26986 7.7343751,28.648953 7.734375,27.715105 7.7343747,23.339294 5.3010621,19.669012 2,18.590105 l 0,-39.987612 c 3.5022743,-0.899572 6.1191406,-4.087246 6.1191406,-7.857422 0,-2.805174 -1.4477045,-5.293033 -3.6308594,-6.753906 1.0096809,-1.091306 1.6308593,-2.546408 1.6308594,-4.150391 C 6.1191409,-43.539196 3.3799699,-58.428757 0,-58.428757 Z m 0,25.052735 c 2.2990895,0 4.1191406,1.822004 4.1191406,4.121093 0,2.29909 -1.8200511,4.119141 -4.1191406,4.119141 -2.2990895,0 -4.1191406,-1.820051 -4.1191406,-4.119141 0,-2.299089 1.8200511,-4.121093 4.1191406,-4.121093 z"
           id="path5274" />
      </g>
    </g>
    <g id="area" />
    <g
       id="walls">
      <rect
         style="color:#000000;clip-rule:nonzero;display:inline;overflow:visible;visibility:visible;opacity:1;isolation:auto;mix-blend-mode:normal;color-interpolation:sRGB;color-interpolation-filters:linearRGB;solid-color:#000000;solid-opacity:1;fill:#704837;fill-opacity:1;fill-rule:evenodd;stroke:none;stroke-width:1px;stroke-linecap:butt;stroke-linejoin:miter;stroke-miterlimit:4;stroke-dasharray:none;stroke-dashoffset:0;stroke-opacity:1;color-rendering:auto;image-rendering:auto;shape-rendering:auto;text-rendering:auto;enable-background:accumulate"
         id="rect4804"
         width="219"
         height="480"
         x="421"
         y="0" />
      <rect
         style="color:#000000;clip-rule:nonzero;display:inline;overflow:visible;visibility:visible;opacity:1;isolation:auto;mix-blend-mode:normal;color-interpolation:sRGB;color-interpolation-filters:linearRGB;solid-color:#000000;solid-opacity:1;fill:#704837;fill-opacity:1;fill-rule:evenodd;stroke:none;stroke-width:1px;stroke-linecap:butt;stroke-linejoin:miter;stroke-miterlimit:4;stroke-dasharray:none;stroke-dashoffset:0;stroke-opacity:1;color-rendering:auto;image-rendering:auto;shape-rendering:auto;text-rendering:auto;enable-background:accumulate"
         id="rect4802"
         width="99"
         height="480"
         x="0"
         y="0" />
      <path
         id="rect5037"
         d="m 59.669922,0 0,19.535156 c 0,2.49484 2.007113,4.503906 4.501953,4.503906 L 99,24.039062 99,0 59.669922,0 Z m 21.427734,27.988281 c -2.494839,0 -4.503906,2.009067 -4.503906,4.503907 l 0,23.695312 c 0,2.494839 2.009067,4.503906 4.503906,4.503906 l 17.902344,0 0,-32.703125 -17.902344,0 z M 68.195312,64.195312 c -2.494838,0 -4.503906,2.009067 -4.503906,4.503907 l 0,25.894531 c 0,2.49484 2.009068,4.503906 4.503906,4.503906 l 30.804688,0 0,-34.902344 -30.804688,0 z m 8.88086,38.851568 c -2.49484,-2e-5 -4.503906,2.00906 -4.503906,4.5039 l 0,23.69531 c 0,2.49484 2.009066,4.50196 4.503906,4.50196 l 21.923828,0 0,-32.70117 -21.923828,0 z m -17.931641,35.77343 c -2.49484,0 -4.503906,2.00907 -4.503906,4.50391 l 0,25.89258 c 0,2.49484 2.009066,4.5039 4.503906,4.5039 l 39.855469,0 0,-34.90039 -39.855469,0 z m 17.259766,38.84961 c -2.49484,0 -4.501953,2.00907 -4.501953,4.50391 l 0,23.69531 c 0,2.49484 2.007113,4.50391 4.501953,4.50391 l 22.595703,0 0,-32.70313 -22.595703,0 z m -8.544922,36.20899 c -2.49484,0 -4.503906,2.00711 -4.503906,4.50195 l 0,25.89453 c 0,2.49484 2.009066,4.50391 4.503906,4.50391 l 31.140625,0 0,-34.90039 -31.140625,0 z m 13.238281,38.84961 c -2.494839,0 -4.503906,2.00906 -4.503906,4.5039 l 0,23.69531 c 0,2.49484 2.009067,4.50391 4.503906,4.50391 l 17.902344,0 0,-32.70312 -17.902344,0 z m -10.55664,36.4707 c -2.49484,0 -4.503907,2.00908 -4.503907,4.5039 l 0,25.89454 c 0,2.49484 2.009067,4.50195 4.503907,4.50195 l 28.458984,0 0,-34.90039 -28.458984,0 z m 14.580078,38.85156 c -2.49484,0 -4.503907,2.00711 -4.503906,4.50195 l 0,23.69727 c -10e-7,2.49484 2.009066,4.50195 4.503906,4.50195 l 13.878906,0 0,-32.70117 -13.878906,0 z m -15.919922,36.20703 c -2.49484,0 -4.503906,2.00907 -4.503906,4.50391 l 0,25.89258 c 0,2.49484 2.009066,4.5039 4.503906,4.5039 l 29.798828,0 0,-34.90039 -29.798828,0 z m 4.1875,38.84961 c -2.49484,0 -4.503906,2.00907 -4.503906,4.50391 l 0,23.69531 c 0,2.49484 2.009066,4.50391 4.503906,4.50391 l 25.611328,0 0,-32.70313 -25.611328,0 z m -15.585938,35.77344 c -2.49484,0 -4.501953,2.00907 -4.501953,4.50391 l 0,28.24023 c 0,2.49484 2.007113,4.50391 4.501953,4.50391 l 41.197266,0 0,-37.24805 -41.197266,0 z"
         style="color:#000000;clip-rule:nonzero;display:inline;overflow:visible;visibility:visible;opacity:1;isolation:auto;mix-blend-mode:normal;color-interpolation:sRGB;color-interpolation-filters:linearRGB;solid-color:#000000;solid-opacity:1;fill:#55362a;fill-opacity:1;fill-rule:evenodd;stroke:none;stroke-width:1;stroke-linecap:butt;stroke-linejoin:miter;stroke-miterlimit:4;stroke-dasharray:none;stroke-dashoffset:0;stroke-opacity:1;color-rendering:auto;image-rendering:auto;shape-rendering:auto;text-rendering:auto;enable-background:accumulate" />
      <rect
         y="0"
         x="96"
         height="480"
         width="4"
         id="rect5035"
         style="color:#000000;clip-rule:nonzero;display:inline;overflow:visible;visibility:visible;opacity:1;isolation:auto;mix-blend-mode:normal;color-interpolation:sRGB;color-interpolation-filters:linearRGB;solid-color:#000000;solid-opacity:1;fill:#2f1e17;fill-opacity:1;fill-rule:evenodd;stroke:none;stroke-width:1px;stroke-linecap:butt;stroke-linejoin:miter;stroke-miterlimit:4;stroke-dasharray:none;stroke-dashoffset:0;stroke-opacity:1;color-rendering:auto;image-rendering:auto;shape-rendering:auto;text-rendering:auto;enable-background:accumulate" />
      <path
         style="color:#000000;clip-rule:nonzero;display:inline;overflow:visible;visibility:visible;opacity:1;isolation:auto;mix-blend-mode:normal;color-interpolation:sRGB;color-interpolation-filters:linearRGB;solid-color:#000000;solid-opacity:1;fill:#55362a;fill-opacity:1;fill-rule:evenodd;stroke:none;stroke-width:1;stroke-linecap:butt;stroke-linejoin:miter;stroke-miterlimit:4;stroke-dasharray:none;stroke-dashoffset:0;stroke-opacity:1;color-rendering:auto;image-rendering:auto;shape-rendering:auto;text-rendering:auto;enable-background:accumulate"
         d="m 460.77302,0 0,19.535156 c 0,2.49484 -2.00712,4.503906 -4.50196,4.503906 l -34.82812,0 0,-24.039062 39.33008,0 z m -21.42774,27.988281 c 2.49484,0 4.50391,2.009067 4.50391,4.503907 l 0,23.695312 c 0,2.494839 -2.00907,4.503906 -4.50391,4.503906 l -17.90234,0 0,-32.703125 17.90234,0 z m 12.90235,36.207031 c 2.49484,0 4.5039,2.009067 4.5039,4.503907 l 0,25.894531 c 0,2.49484 -2.00906,4.503906 -4.5039,4.503906 l -30.80469,0 0,-34.902344 30.80469,0 z m -8.88086,38.851568 c 2.49484,-2e-5 4.5039,2.00906 4.5039,4.5039 l 0,23.69531 c 0,2.49484 -2.00906,4.50196 -4.5039,4.50196 l -21.92383,0 0,-32.70117 21.92383,0 z m 17.93164,35.77343 c 2.49484,0 4.5039,2.00907 4.5039,4.50391 l 0,25.89258 c 0,2.49484 -2.00906,4.5039 -4.5039,4.5039 l -39.85547,0 0,-34.90039 39.85547,0 z m -17.25977,38.84961 c 2.49484,0 4.50196,2.00907 4.50196,4.50391 l 0,23.69531 c 0,2.49484 -2.00712,4.50391 -4.50196,4.50391 l -22.5957,0 0,-32.70313 22.5957,0 z m 8.54492,36.20899 c 2.49484,0 4.50391,2.00711 4.50391,4.50195 l 0,25.89453 c 0,2.49484 -2.00907,4.50391 -4.50391,4.50391 l -31.14062,0 0,-34.90039 31.14062,0 z m -13.23828,38.84961 c 2.49484,0 4.50391,2.00906 4.50391,4.5039 l 0,23.69531 c 0,2.49484 -2.00907,4.50391 -4.50391,4.50391 l -17.90234,0 0,-32.70312 17.90234,0 z m 10.55664,36.4707 c 2.49484,0 4.50391,2.00908 4.50391,4.5039 l 0,25.89454 c 0,2.49484 -2.00907,4.50195 -4.50391,4.50195 l -28.45898,0 0,-34.90039 28.45898,0 z m -14.58007,38.85156 c 2.49484,0 4.5039,2.00711 4.5039,4.50195 l 0,23.69727 c 0,2.49484 -2.00906,4.50195 -4.5039,4.50195 l -13.87891,0 0,-32.70117 13.87891,0 z m 15.91992,36.20703 c 2.49484,0 4.5039,2.00907 4.5039,4.50391 l 0,25.89258 c 0,2.49484 -2.00906,4.5039 -4.5039,4.5039 l -29.79883,0 0,-34.90039 29.79883,0 z m -4.1875,38.84961 c 2.49484,0 4.5039,2.00907 4.5039,4.50391 l 0,23.69531 c 0,2.49484 -2.00906,4.50391 -4.5039,4.50391 l -25.61133,0 0,-32.70313 25.61133,0 z m 15.58594,35.77344 c 2.49484,0 4.50195,2.00907 4.50195,4.50391 l 0,28.24023 c 0,2.49484 -2.00711,4.50391 -4.50195,4.50391 l -41.19727,0 0,-37.24805 41.19727,0 z"
         id="path5092" />
      <rect
         y="0"
         x="420"
         height="480"
         width="4"
         id="rect5075"
         style="color:#000000;clip-rule:nonzero;display:inline;overflow:visible;visibility:visible;opacity:1;isolation:auto;mix-blend-mode:normal;color-interpolation:sRGB;color-interpolation-filters:linearRGB;solid-color:#000000;solid-opacity:1;fill:#2f1e17;fill-opacity:1;fill-rule:evenodd;stroke:none;stroke-width:1px;stroke-linecap:butt;stroke-linejoin:miter;stroke-miterlimit:4;stroke-dasharray:none;stroke-dashoffset:0;stroke-opacity:1;color-rendering:auto;image-rendering:auto;shape-rendering:auto;text-rendering:auto;enable-background:accumulate" />
    </g>
    <g
       id="hydro">
      <rect
         style="color:#000000;clip-rule:nonzero;display:inline;overflow:visible;visibility:visible;opacity:1;isolation:auto;mix-blend-mode:normal;color-interpolation:sRGB;color-interpolation-filters:linearRGB;solid-color:#000000;solid-opacity:1;fill:#bdbdbd;fill-opacity:1;fill-rule:nonzero;stroke:#2f1e17;stroke-width:3.09462786;stroke-linecap:butt;stroke-linejoin:miter;stroke-miterlimit:4;stroke-dasharray:none;stroke-dashoffset:0;stroke-opacity:1;color-rendering:auto;image-rendering:auto;shape-rendering:auto;text-rendering:auto;enable-background:accumulate"
         id="rect4486"
         width="7.7553396"
         height="65.733276"
         x="44.259007"
         y="-283.81961"
         transform="matrix(0.70710678,0.70710678,-0.70710678,0.70710678,0,0)" />
      <rect
         style="color:#000000;clip-rule:nonzero;display:inline;overflow:visible;visibility:visible;opacity:1;isolation:auto;mix-blend-mode:normal;color-interpolation:sRGB;color-interpolation-filters:linearRGB;solid-color:#000000;solid-opacity:1;fill:#bdbdbd;fill-opacity:1;fill-rule:nonzero;stroke:#2f1e17;stroke-width:3.09462786;stroke-linecap:butt;stroke-linejoin:miter;stroke-miterlimit:4;stroke-dasharray:none;stroke-dashoffset:0;stroke-opacity:1;color-rendering:auto;image-rendering:auto;shape-rendering:auto;text-rendering:auto;enable-background:accumulate"
         id="rect4396"
         width="52.574871"
         height="137.91017"
         x="233.71257"
         y="-304.8045" />
      <rect
         ry="6.7073474"
         rx="6.7073474"
         style="color:#000000;clip-rule:nonzero;display:inline;overflow:visible;visibility:visible;opacity:1;isolation:auto;mix-blend-mode:normal;color-interpolation:sRGB;color-interpolation-filters:linearRGB;solid-color:#000000;solid-opacity:1;fill:#505050;fill-opacity:1;fill-rule:nonzero;stroke:#2f1e17;stroke-width:2.55526757;stroke-linecap:butt;stroke-linejoin:miter;stroke-miterlimit:4;stroke-dasharray:none;stroke-dashoffset:0;stroke-opacity:1;color-rendering:auto;image-rendering:auto;shape-rendering:auto;text-rendering:auto;enable-background:accumulate"
         id="rect4294"
         width="76.88623"
         height="24.685768"
         x="221.55688"
         y="-196.76505" />
      <rect
         y="-188.78748"
         x="161.49658"
         height="154.2674"
         width="18.82843"
         id="rect4302"
         style="color:#000000;clip-rule:nonzero;display:inline;overflow:visible;visibility:visible;opacity:1;isolation:auto;mix-blend-mode:normal;color-interpolation:sRGB;color-interpolation-filters:linearRGB;solid-color:#000000;solid-opacity:1;fill:#bdbdbd;fill-opacity:1;fill-rule:nonzero;stroke:#2f1e17;stroke-width:3.09462786;stroke-linecap:butt;stroke-linejoin:miter;stroke-miterlimit:4;stroke-dasharray:none;stroke-dashoffset:0;stroke-opacity:1;color-rendering:auto;image-rendering:auto;shape-rendering:auto;text-rendering:auto;enable-background:accumulate"
         rx="5.9871187"
         ry="5.9871187" />
      <path
         style="color:#000000;clip-rule:nonzero;display:inline;overflow:visible;visibility:visible;opacity:1;isolation:auto;mix-blend-mode:normal;color-interpolation:sRGB;color-interpolation-filters:linearRGB;solid-color:#000000;solid-opacity:1;fill:#505050;fill-opacity:1;fill-rule:nonzero;stroke:#2f1e17;stroke-width:2.55526757;stroke-linecap:butt;stroke-linejoin:miter;stroke-miterlimit:4;stroke-dasharray:none;stroke-dashoffset:0;stroke-opacity:1;color-rendering:auto;image-rendering:auto;shape-rendering:auto;text-rendering:auto;enable-background:accumulate"
         d="m 156.57227,-72.898438 -2.32032,4.056641 0,61.4921876 33.31641,0 0,-61.4921876 -2.31836,-4.056641 z"
         id="rect4300" />
      <g
         id="g4276">
        <rect
           y="0"
           x="100"
           height="20"
           width="320"
           id="rect4232"
           style="color:#000000;clip-rule:nonzero;display:inline;overflow:visible;visibility:visible;opacity:1;isolation:auto;mix-blend-mode:normal;color-interpolation:sRGB;color-interpolation-filters:linearRGB;solid-color:#000000;solid-opacity:1;fill:#2f1e17;fill-opacity:1;fill-rule:nonzero;stroke:none;stroke-width:3.00000024;stroke-linecap:butt;stroke-linejoin:miter;stroke-miterlimit:4;stroke-dasharray:none;stroke-dashoffset:0;stroke-opacity:1;color-rendering:auto;image-rendering:auto;shape-rendering:auto;text-rendering:auto;enable-background:accumulate" />
        <rect
           style="color:#000000;clip-rule:nonzero;display:inline;overflow:visible;visibility:visible;opacity:1;isolation:auto;mix-blend-mode:normal;color-interpolation:sRGB;color-interpolation-filters:linearRGB;solid-color:#000000;solid-opacity:1;fill:#335f87;fill-opacity:1;fill-rule:nonzero;stroke:none;stroke-width:3.00000024;stroke-linecap:butt;stroke-linejoin:miter;stroke-miterlimit:4;stroke-dasharray:none;stroke-dashoffset:0;stroke-opacity:1;color-rendering:auto;image-rendering:auto;shape-rendering:auto;text-rendering:auto;enable-background:accumulate"
           id="rect4234"
           width="320"
           height="11.989433"
           x="100"
           y="4.0052834" />
        <path
           id="rect4236"
           d="M 108.68945,4.0058594 100,12.695312 l 0,3.298829 13.6582,0 11.98633,-11.9882816 -16.95508,0 z m 32.85743,0 -11.98633,11.9882816 16.95312,0 11.99024,-11.9882816 -16.95703,0 z m 32.85742,0 -11.98633,11.9882816 16.95703,0 11.98633,-11.9882816 -16.95703,0 z m 32.85937,0 -11.98828,11.9882816 16.95703,0 11.98633,-11.9882816 -16.95508,0 z m 32.85742,0 -11.98828,11.9882816 16.95703,0 11.98828,-11.9882816 -16.95703,0 z m 32.85743,0 -11.98633,11.9882816 16.95508,0 11.98828,-11.9882816 -16.95703,0 z m 32.85742,0 -11.98633,11.9882816 16.95703,0 11.98633,-11.9882816 -16.95703,0 z m 33.5039,0 -11.98828,11.9882816 16.95703,0 11.98633,-11.9882816 -16.95508,0 z m 32.85743,0 -11.98829,11.9882816 16.95704,0 11.98632,-11.9882816 -16.95507,0 z m 32.85742,0 -11.98633,11.9882816 16.95312,0 L 420,6.0175781 l 0,-2.0117187 -14.94531,0 z"
           style="color:#000000;clip-rule:nonzero;display:inline;overflow:visible;visibility:visible;opacity:1;isolation:auto;mix-blend-mode:normal;color-interpolation:sRGB;color-interpolation-filters:linearRGB;solid-color:#000000;solid-opacity:1;fill:#afc6e9;fill-opacity:1;fill-rule:nonzero;stroke:none;stroke-width:3.00000024;stroke-linecap:butt;stroke-linejoin:miter;stroke-miterlimit:4;stroke-dasharray:none;stroke-dashoffset:0;stroke-opacity:1;color-rendering:auto;image-rendering:auto;shape-rendering:auto;text-rendering:auto;enable-background:accumulate" />
      </g>
      <path
         style="color:#000000;clip-rule:nonzero;display:inline;overflow:visible;visibility:visible;opacity:1;isolation:auto;mix-blend-mode:normal;color-interpolation:sRGB;color-interpolation-filters:linearRGB;solid-color:#000000;solid-opacity:1;fill:#524338;fill-opacity:1;fill-rule:nonzero;stroke:#2f1e17;stroke-width:3;stroke-linecap:butt;stroke-linejoin:miter;stroke-miterlimit:4;stroke-dasharray:none;stroke-dashoffset:0;stroke-opacity:1;color-rendering:auto;image-rendering:auto;shape-rendering:auto;text-rendering:auto;enable-background:accumulate"
         d="m 129.93829,-22.478891 -12.84598,7.72198 23.49091,14.1208691 18.61238,0 23.50076,0 18.61238,0 23.49091,-14.1208691 -12.84598,-7.72198 -15.28522,9.188269 -13.97209,0 -23.50076,0 -13.97208,0 -15.28523,-9.188269 z"
         id="rect4289" />
      <g
         id="g4551">
        <rect
           style="color:#000000;clip-rule:nonzero;display:inline;overflow:visible;visibility:visible;opacity:1;isolation:auto;mix-blend-mode:normal;color-interpolation:sRGB;color-interpolation-filters:linearRGB;solid-color:#000000;solid-opacity:1;fill:#bdbdbd;fill-opacity:1;fill-rule:nonzero;stroke:#2f1e17;stroke-width:3.09462786;stroke-linecap:butt;stroke-linejoin:miter;stroke-miterlimit:4;stroke-dasharray:none;stroke-dashoffset:0;stroke-opacity:1;color-rendering:auto;image-rendering:auto;shape-rendering:auto;text-rendering:auto;enable-background:accumulate"
           id="rect4541"
           width="7.7553396"
           height="65.733276"
           x="-321.92233"
           y="82.361725"
           transform="matrix(-0.70710678,0.70710678,0.70710678,0.70710678,0,0)" />
        <rect
           transform="scale(-1,1)"
           y="-188.78748"
           x="-356.36203"
           height="154.2674"
           width="18.82843"
           id="rect4543"
           style="color:#000000;clip-rule:nonzero;display:inline;overflow:visible;visibility:visible;opacity:1;isolation:auto;mix-blend-mode:normal;color-interpolation:sRGB;color-interpolation-filters:linearRGB;solid-color:#000000;solid-opacity:1;fill:#bdbdbd;fill-opacity:1;fill-rule:nonzero;stroke:#2f1e17;stroke-width:3.09462786;stroke-linecap:butt;stroke-linejoin:miter;stroke-miterlimit:4;stroke-dasharray:none;stroke-dashoffset:0;stroke-opacity:1;color-rendering:auto;image-rendering:auto;shape-rendering:auto;text-rendering:auto;enable-background:accumulate"
           rx="5.9871187"
           ry="5.9871187" />
        <path
           style="color:#000000;clip-rule:nonzero;display:inline;overflow:visible;visibility:visible;opacity:1;isolation:auto;mix-blend-mode:normal;color-interpolation:sRGB;color-interpolation-filters:linearRGB;solid-color:#000000;solid-opacity:1;fill:#505050;fill-opacity:1;fill-rule:nonzero;stroke:#2f1e17;stroke-width:2.55526757;stroke-linecap:butt;stroke-linejoin:miter;stroke-miterlimit:4;stroke-dasharray:none;stroke-dashoffset:0;stroke-opacity:1;color-rendering:auto;image-rendering:auto;shape-rendering:auto;text-rendering:auto;enable-background:accumulate"
           d="m 361.28634,-72.898438 2.32032,4.056641 0,61.4921876 -33.31641,0 0,-61.4921876 2.31836,-4.056641 z"
           id="path4545" />
        <path
           style="color:#000000;clip-rule:nonzero;display:inline;overflow:visible;visibility:visible;opacity:1;isolation:auto;mix-blend-mode:normal;color-interpolation:sRGB;color-interpolation-filters:linearRGB;solid-color:#000000;solid-opacity:1;fill:#524338;fill-opacity:1;fill-rule:nonzero;stroke:#2f1e17;stroke-width:3;stroke-linecap:butt;stroke-linejoin:miter;stroke-miterlimit:4;stroke-dasharray:none;stroke-dashoffset:0;stroke-opacity:1;color-rendering:auto;image-rendering:auto;shape-rendering:auto;text-rendering:auto;enable-background:accumulate"
           d="m 387.92032,-22.478891 12.84598,7.72198 -23.49091,14.1208691 -18.61238,0 -23.50076,0 -18.61238,0 -23.49091,-14.1208691 12.84598,-7.72198 15.28522,9.188269 13.97209,0 23.50076,0 13.97208,0 15.28523,-9.188269 z"
           id="path4547" />
        <path
           style="color:#000000;clip-rule:nonzero;display:inline;overflow:visible;visibility:visible;opacity:1;isolation:auto;mix-blend-mode:normal;color-interpolation:sRGB;color-interpolation-filters:linearRGB;solid-color:#000000;solid-opacity:1;fill:#505050;fill-opacity:1;fill-rule:nonzero;stroke:#2f1e17;stroke-width:2.55526757;stroke-linecap:butt;stroke-linejoin:miter;stroke-miterlimit:4;stroke-dasharray:none;stroke-dashoffset:0;stroke-opacity:1;color-rendering:auto;image-rendering:auto;shape-rendering:auto;text-rendering:auto;enable-background:accumulate"
           d="m 360.10275,-129.09766 0,16.53711 -19.83789,0 -6.47266,0 -3.30078,0 c -4.5808,0 -8.26758,-3.68873 -8.26758,-8.26953 0,-4.5808 3.68678,-8.26758 8.26758,-8.26758 l 3.30078,0 6.47266,0 19.83789,0 z"
           id="path4549" />
      </g>
      <rect
         y="-182.03206"
         x="146.19162"
         height="30.744196"
         width="227.61679"
         id="rect4387"
         style="color:#000000;clip-rule:nonzero;display:inline;overflow:visible;visibility:visible;opacity:1;isolation:auto;mix-blend-mode:normal;color-interpolation:sRGB;color-interpolation-filters:linearRGB;solid-color:#000000;solid-opacity:1;fill:#524338;fill-opacity:1;fill-rule:nonzero;stroke:#2f1e17;stroke-width:3.09462786;stroke-linecap:butt;stroke-linejoin:miter;stroke-miterlimit:4;stroke-dasharray:none;stroke-dashoffset:0;stroke-opacity:1;color-rendering:auto;image-rendering:auto;shape-rendering:auto;text-rendering:auto;enable-background:accumulate"
         rx="9.4245148"
         ry="9.4245148" />
      <rect
         y="-386.24762"
         x="221.55688"
         height="102.65868"
         width="76.886246"
         id="rect4398"
         style="color:#000000;clip-rule:nonzero;display:inline;overflow:visible;visibility:visible;opacity:1;isolation:auto;mix-blend-mode:normal;color-interpolation:sRGB;color-interpolation-filters:linearRGB;solid-color:#000000;solid-opacity:1;fill:#505050;fill-opacity:1;fill-rule:nonzero;stroke:#2f1e17;stroke-width:2.55526757;stroke-linecap:butt;stroke-linejoin:miter;stroke-miterlimit:4;stroke-dasharray:none;stroke-dashoffset:0;stroke-opacity:1;color-rendering:auto;image-rendering:auto;shape-rendering:auto;text-rendering:auto;enable-background:accumulate" />
      <circle
         style="color:#000000;clip-rule:nonzero;display:inline;overflow:visible;visibility:visible;opacity:1;isolation:auto;mix-blend-mode:normal;color-interpolation:sRGB;color-interpolation-filters:linearRGB;solid-color:#000000;solid-opacity:1;fill:#6e6e6e;fill-opacity:1;fill-rule:nonzero;stroke:#2f1e17;stroke-width:3.09462786;stroke-linecap:butt;stroke-linejoin:miter;stroke-miterlimit:4;stroke-dasharray:none;stroke-dashoffset:0;stroke-opacity:1;color-rendering:auto;image-rendering:auto;shape-rendering:auto;text-rendering:auto;enable-background:accumulate"
         id="path4495"
         cx="170.70815"
         cy="-166.894"
         r="9.2488928" />
      <path
         style="color:#000000;clip-rule:nonzero;display:inline;overflow:visible;visibility:visible;opacity:1;isolation:auto;mix-blend-mode:normal;color-interpolation:sRGB;color-interpolation-filters:linearRGB;solid-color:#000000;solid-opacity:1;fill:#505050;fill-opacity:1;fill-rule:nonzero;stroke:#2f1e17;stroke-width:2.55526757;stroke-linecap:butt;stroke-linejoin:miter;stroke-miterlimit:4;stroke-dasharray:none;stroke-dashoffset:0;stroke-opacity:1;color-rendering:auto;image-rendering:auto;shape-rendering:auto;text-rendering:auto;enable-background:accumulate"
         d="m 157.75586,-129.09766 0,16.53711 19.83789,0 6.47266,0 3.30078,0 c 4.5808,0 8.26758,-3.68873 8.26758,-8.26953 0,-4.5808 -3.68678,-8.26758 -8.26758,-8.26758 l -3.30078,0 -6.47266,0 -19.83789,0 z"
         id="rect4497" />
      <path
         style="color:#000000;clip-rule:nonzero;display:inline;overflow:visible;visibility:visible;opacity:1;isolation:auto;mix-blend-mode:normal;color-interpolation:sRGB;color-interpolation-filters:linearRGB;solid-color:#000000;solid-opacity:1;fill:none;fill-opacity:1;fill-rule:nonzero;stroke:#2f1e17;stroke-width:3.09462786;stroke-linecap:butt;stroke-linejoin:miter;stroke-miterlimit:4;stroke-dasharray:none;stroke-dashoffset:0;stroke-opacity:1;color-rendering:auto;image-rendering:auto;shape-rendering:auto;text-rendering:auto;enable-background:accumulate"
         d="m 163.73548,-161.25024 13.40937,-11.15095"
         id="path4516" />
      <circle
         transform="matrix(0.55139954,0.8342413,-0.8342413,0.55139954,0,0)"
         r="9.2488928"
         cy="-381.43726"
         cx="52.059669"
         id="circle3453"
         style="color:#000000;clip-rule:nonzero;display:inline;overflow:visible;visibility:visible;opacity:1;isolation:auto;mix-blend-mode:normal;color-interpolation:sRGB;color-interpolation-filters:linearRGB;solid-color:#000000;solid-opacity:1;fill:#6e6e6e;fill-opacity:1;fill-rule:nonzero;stroke:#2f1e17;stroke-width:3.09462786;stroke-linecap:butt;stroke-linejoin:miter;stroke-miterlimit:4;stroke-dasharray:none;stroke-dashoffset:0;stroke-opacity:1;color-rendering:auto;image-rendering:auto;shape-rendering:auto;text-rendering:auto;enable-background:accumulate" />
      <path
         id="path3455"
         d="m 338.36339,-169.59893 16.69651,5.03802"
         style="color:#000000;clip-rule:nonzero;display:inline;overflow:visible;visibility:visible;opacity:1;isolation:auto;mix-blend-mode:normal;color-interpolation:sRGB;color-interpolation-filters:linearRGB;solid-color:#000000;solid-opacity:1;fill:none;fill-opacity:1;fill-rule:nonzero;stroke:#2f1e17;stroke-width:3.09462786;stroke-linecap:butt;stroke-linejoin:miter;stroke-miterlimit:4;stroke-dasharray:none;stroke-dashoffset:0;stroke-opacity:1;color-rendering:auto;image-rendering:auto;shape-rendering:auto;text-rendering:auto;enable-background:accumulate" />
      <path
         id="rect3457"
         d="m 199.42578,-182.03125 0,9.11543 121.14844,0 0,-9.11543"
         style="color:#000000;clip-rule:nonzero;display:inline;overflow:visible;visibility:visible;opacity:1;isolation:auto;mix-blend-mode:normal;color-interpolation:sRGB;color-interpolation-filters:linearRGB;solid-color:#000000;solid-opacity:1;fill:none;fill-opacity:1;fill-rule:nonzero;stroke:#2f1e17;stroke-width:2;stroke-linecap:butt;stroke-linejoin:miter;stroke-miterlimit:4;stroke-dasharray:none;stroke-dashoffset:0;stroke-opacity:1;color-rendering:auto;image-rendering:auto;shape-rendering:auto;text-rendering:auto;enable-background:accumulate" />
      <circle
         r="3.0591638"
         cy="-120.93642"
         cx="186.96732"
         id="path4276"
         style="color:#000000;clip-rule:nonzero;display:inline;overflow:visible;visibility:visible;opacity:1;isolation:auto;mix-blend-mode:normal;color-interpolation:sRGB;color-interpolation-filters:linearRGB;solid-color:#000000;solid-opacity:1;fill:none;fill-opacity:1;fill-rule:nonzero;stroke:#2f1e17;stroke-width:2;stroke-linecap:butt;stroke-linejoin:miter;stroke-miterlimit:4;stroke-dasharray:none;stroke-dashoffset:0;stroke-opacity:1;color-rendering:auto;image-rendering:auto;shape-rendering:auto;text-rendering:auto;enable-background:accumulate" />
      <circle
         style="color:#000000;clip-rule:nonzero;display:inline;overflow:visible;visibility:visible;opacity:1;isolation:auto;mix-blend-mode:normal;color-interpolation:sRGB;color-interpolation-filters:linearRGB;solid-color:#000000;solid-opacity:1;fill:none;fill-opacity:1;fill-rule:nonzero;stroke:#2f1e17;stroke-width:2;stroke-linecap:butt;stroke-linejoin:miter;stroke-miterlimit:4;stroke-dasharray:none;stroke-dashoffset:0;stroke-opacity:1;color-rendering:auto;image-rendering:auto;shape-rendering:auto;text-rendering:auto;enable-background:accumulate"
         id="circle4292"
         cx="331.17529"
         cy="-120.93642"
         r="3.0591638" />
    </g>
    <g
       id="foreground">
      <path
         style="color:#000000;clip-rule:nonzero;display:inline;overflow:visible;visibility:visible;opacity:1;isolation:auto;mix-blend-mode:normal;color-interpolation:sRGB;color-interpolation-filters:linearRGB;solid-color:#000000;solid-opacity:1;fill:#333333;fill-opacity:1;fill-rule:evenodd;stroke:#1c1c1c;stroke-width:2;stroke-linecap:butt;stroke-linejoin:miter;stroke-miterlimit:4;stroke-dasharray:none;stroke-dashoffset:0;stroke-opacity:1;color-rendering:auto;image-rendering:auto;shape-rendering:auto;text-rendering:auto;enable-background:accumulate"
         d="m 142.49805,396.60742 a 36.197479,36.197479 0 0 0 -30.02735,16.03711 l -20.601559,0 c -7.234457,0 -13.058594,5.82415 -13.058594,13.05859 0,7.23447 5.824137,13.0586 13.058594,13.0586 l 14.966799,0 a 36.197479,36.197479 0 0 0 35.66211,30.24219 36.197479,36.197479 0 0 0 36.19922,-36.19727 36.197479,36.197479 0 0 0 -6.5293,-20.71094 c 0.24004,-0.37349 0.38281,-0.8161 0.38281,-1.29492 l 0,-6.29101 c 0,-1.32769 -1.0688,-2.39649 -2.39648,-2.39649 l -2.9961,0 c -1.25407,0 -2.26541,0.95702 -2.375,2.18164 a 36.197479,36.197479 0 0 0 -22.28515,-7.6875 z m 0,7.13477 a 29.063431,29.063431 0 0 1 29.06445,29.06445 29.063431,29.063431 0 0 1 -29.06445,29.0625 29.063431,29.063431 0 0 1 -29.0625,-29.0625 29.063431,29.063431 0 0 1 29.0625,-29.06445 z"
         id="path4386" />
      <circle
         r="32.184578"
         cy="432.80582"
         cx="142.49895"
         id="circle4402"
         style="color:#000000;clip-rule:nonzero;display:inline;overflow:visible;visibility:visible;opacity:1;isolation:auto;mix-blend-mode:normal;color-interpolation:sRGB;color-interpolation-filters:linearRGB;solid-color:#000000;solid-opacity:1;fill:#6062ab;fill-opacity:0.29834256;fill-rule:evenodd;stroke:#1c1c1c;stroke-width:1.77827728;stroke-linecap:butt;stroke-linejoin:miter;stroke-miterlimit:4;stroke-dasharray:none;stroke-dashoffset:0;stroke-opacity:1;color-rendering:auto;image-rendering:auto;shape-rendering:auto;text-rendering:auto;enable-background:accumulate" />
      <circle
         style="color:#000000;clip-rule:nonzero;display:inline;overflow:visible;visibility:visible;opacity:1;isolation:auto;mix-blend-mode:normal;color-interpolation:sRGB;color-interpolation-filters:linearRGB;solid-color:#000000;solid-opacity:1;fill:#4d4d4d;fill-opacity:1;fill-rule:evenodd;stroke:#1c1c1c;stroke-width:2;stroke-linecap:butt;stroke-linejoin:miter;stroke-miterlimit:4;stroke-dasharray:none;stroke-dashoffset:0;stroke-opacity:1;color-rendering:auto;image-rendering:auto;shape-rendering:auto;text-rendering:auto;enable-background:accumulate"
         id="path4413"
         cx="91.639191"
         cy="425.47467"
         r="5.9565473" />
      <path
         style="color:#000000;clip-rule:nonzero;display:inline;overflow:visible;visibility:visible;opacity:1;isolation:auto;mix-blend-mode:normal;color-interpolation:sRGB;color-interpolation-filters:linearRGB;solid-color:#000000;solid-opacity:1;fill:none;fill-opacity:1;fill-rule:evenodd;stroke:#1c1c1c;stroke-width:2;stroke-linecap:butt;stroke-linejoin:miter;stroke-miterlimit:4;stroke-dasharray:none;stroke-dashoffset:0;stroke-opacity:1;color-rendering:auto;image-rendering:auto;shape-rendering:auto;text-rendering:auto;enable-background:accumulate"
         d="m 86.581894,428.67928 9.426255,-5.93505"
         id="path4435" />
    </g>
  </g>
</svg>
