<?xml version="1.0" encoding="UTF-8" standalone="no"?>
<svg xmlns:svg="http://www.w3.org/2000/svg" xmlns="http://www.w3.org/2000/svg" version="1.0" width="100%" height="100%" viewBox="0 0 640 480" id="equ" style="display:inline">
<defs id="defs2385">
 <style type="text/css">
    svg#equ .sources            { fill:gray;fill-opacity:0.95;stroke:white;stroke-width:2; }
    svg#equ .val                { cursor:move; }
    svg#equ .val text           { font-size:38px;text-anchor:middle;fill:#443000;font-weight:bold; }
    svg#equ .val .v             { fill:#FFF5EE;fill-opacity:1;stroke:#443000;stroke-width:2;stroke-linecap:round; }
    svg#equ .val.type3 .v       { fill:#FFEECC;fill-opacity:1;stroke:#443000;stroke-width:2;stroke-linecap:round; }
    svg#equ .val .s             { stroke:red;stroke-width:10;stroke-linecap:round; }
    svg#equ .val .op            { fill:none;stroke:none; }
    svg#equ .val #over          { fill:none; }
    svg#equ .bra                { fill:none; stroke:#443000; stroke-width:2; display:none; }
    svg#equ .bracket .bra       { display:inline; }
    svg#equ .bracket.type0 .v   { fill-opacity:0.2; }
    svg#equ .var                { display:none; fill:red; }
    svg#equ .newvar .var        { display:inline; }
    svg#equ .newvar.type0 .v    { fill-opacity:0.2; }
    svg#equ .equ .source        { opacity:0.5; }
    svg#equ .equ .bg            { fill:#bbb;fill-opacity:0.95;stroke:white;stroke-width:2; }
    svg#equ .equ .bt            { fill:#FFF5EE;stroke:#886622;stroke-width:1; }
    svg#equ .equ .small text    { font-size:20px; fill:#443000;}
    svg#equ .equ .label         { font-size:30px;font-weight:bold; }
    svg#equ .equ .type1 text    { font-size:32px; }
    svg#equ .empty rect.v       { fill:#DDBB99; stroke-dasharray:5,3; }
    svg#equ .equ .banner        { fill:white;fill-opacity:0.5; }
    svg#equ .equ.s0 .bg         { fill:limegreen; }
    svg#equ .equ.s1 .bg         { fill:greenyellow; }
    svg#equ .equ.s2 .bg         { fill:yellow; }
    svg#equ .equ.s3 .bg         { fill:orange; }
    svg#equ .equ.s4 .bg         { fill:red; }
    svg#equ .equ.s5 .bg         { fill:purple; }
    svg#equ .hide               { display:none; }
    svg#equ #maximize           { cursor:pointer; }

    svg#equ #target *           { fill-opacity:0.5;fill:none;stroke:#55ddff;stroke-width:1; }
    svg#equ #target path        { fill:#aaeeff; }
    svg#equ #target.top #top    { fill:red; fill-opacity:1;}
    svg#equ #target.left #left  { fill:red; fill-opacity:1;}
    svg#equ #target.right #right { fill:red; fill-opacity:1;}
    svg#equ #target.bottom #bottom { fill:red; fill-opacity:1;}

    svg#equ #arrow path         { fill:red; fill-opacity:0.8; display:none; }

 </style>
</defs>


<rect width="68" height="403" ry="10" x="7" y="7" id="rect6" class="sources"/>

<g id="template" >
    <g class="val type0 hide">
        <rect id="over" x="-20" y="-20" width="40" height="40" ry="5" class="s hide"/>
        <rect x="-20" y="-20" width="40" height="40" ry="5" class="v"/><text y="12"></text>
        <circle cx="0" cy="0" r="18" class="bra"/>
        <circle cx="10" cy="-10" r="8" class="var"/>
    </g>
    <g class="val type3 hide">
        <rect id="over" x="-20" y="-20" width="40" height="40" ry="5" class="s hide"/>
        <rect x="-20" y="-20" width="40" height="40" ry="5" class="v"/><text y="12"></text>
        <circle cx="0" cy="0" r="18" class="bra"/>
        <circle cx="10" cy="-10" r="8" class="var"/>
    </g>
    <g class="val type1 hide"><rect x="-10" y="-20" width="20" height="40" class="op"/><text y="12"></text></g>
    <g class="val type2 hide"><line x1="-20" y1="0" x2="20" y2="0" class='v'/></g>
    <g class="val type5 hide"><g class="scale"><rect x="-10" y="-20" width="20" height="40" class="op"/><text y="12"></text></g></g>

    <g class="equ hide">
        <g class="large">
            <rect x="0" y="0" width="540" height="240" ry="5" class="bg"/>
            <rect x="0" y="0" width="540" height="40" ry="5" class="banner hide" id="header"/>
            <rect x="0" y="200" width="540" height="40" ry="5" class="banner hide" id="footer"/>
            <line id="sep" x1="100" y1="0" x2="100" y2="240" style="fill:none; stroke:#110B00;stroke-width:1;stroke-dasharray:10,6;"/>
            <g id="content">
                <g id="target">
                    <rect x="-20" y="-20" width="40" height="40" ry="5" style="stroke-width:10;"/>
                    <circle cx="0" cy="0" r="35"/>
                    <circle cx="0" cy="0" r="28"/>
                    <line x1="-30" y1="-30" x2="30" y2="30"/>
                    <line x1="-30" y1="30" x2="30" y2="-30"/>
                    <path d="M -30,20 L -10,0 L -30,-20 L -30,20 z" id="left"/>
                    <path d="M 30,20 L 10,0 L 30,-20 L 30,20 z" id="right"/>
                    <path d="M 20,-30 L 0,-10 L -20,-30 L 20,-30 z" id="top"/>
                    <path d="M 20,30 L 0,10 L -20,30 L 20,30 z" id="bottom"/>
                </g>
            </g>
        </g>
        <g class="small">
            <rect id="smallbg" x="0" y="0" width="540" height="40" ry="5" class="bg"/>
            <g id="maximize" transform="matrix(0.65,0,0,0.65,500,5)">
                <path d="M 46.21,23.8 C 46.21,36.09 36.24,46.06 23.95,46.06 C 11.66,46.06 1.7,36.09 1.7,23.8 C 1.7,11.51 11.66,1.55 23.95,1.55 C 36.24,1.55 46.21,11.51 46.21,23.8 z" style="fill:#ffffff;fill-opacity:0.75;"/>
                <path d="M 46.21,23.8 C 46.21,36.09 36.24,46.06 23.95,46.06 C 11.66,46.06 1.7,36.09 1.7,23.8 C 1.7,11.51 11.66,1.55 23.95,1.55 C 36.24,1.55 46.21,11.51 46.21,23.8 z" style="fill:none;stroke:#221500;stroke-width:1.8;"/>
                <path d="M 22.68,7.47 C 20.31,7.47 18.37,9.37 18.37,11.75 L 18.37,17.94 L 12.18,17.94 C 9.81,17.94 7.9,19.84 7.9,22.22 L 7.9,25.15 C 7.9,27.53 9.81,29.44 12.18,29.44 L 18.37,29.44 L 18.37,35.62 C 18.37,38 20.31,39.9 22.68,39.9 L 25.59,39.9 C 27.96,39.9 29.87,38 29.87,35.62 L 29.87,29.44 L 36.06,29.44 C 38.43,29.44 40.34,27.53 40.34,25.15 L 40.34,22.22 C 40.34,19.84 38.43,17.94 36.06,17.94 L 29.87,17.94 L 29.87,11.75 C 29.87,9.37 27.96,7.47 25.59,7.47 L 22.68,7.47 z" style="fill:#221500;stroke:#ffffff;stroke-width:2.6;"/>
            </g>
            <text class="label" y="30" transform="translate(10,0)"></text>
        </g>
    </g>
</g>

<g id="source"></g>

<g id="equ"></g>

<g id="arrow">
    <path id="down" d="M 232.52133,14.902817 C 222.77695,14.902817 214.94325,19.978252 214.94325,26.291608 L 214.94325,45.016238 C 214.94325,45.431539 214.97098,45.848893 215.03709,46.252388 L 175.12673,46.252388 C 167.04687,50.734457 167.36368,57.542414 176.09634,61.835983 L 262.61048,104.3717 C 271.68221,108.83197 286.31779,108.83198 295.38952,104.3717 L 381.90366,61.835983 C 390.63632,57.542417 390.95312,50.734456 382.87327,46.252388 L 342.96291,46.252388 C 343.02902,45.848893 343.05675,45.431539 343.05675,45.016238 L 343.05675,26.291608 C 343.05675,19.978252 335.22306,14.902817 325.47867,14.902817 L 232.52133,14.902817 z"/>
    <path id="up" d="M 232.52133,22.864096 C 222.77695,22.864096 214.94325,17.788656 214.94325,11.475301 L 214.94325,-7.2493289 C 214.94325,-7.6646299 214.97098,-8.0819839 215.03709,-8.4854789 L 175.12673,-8.4854789 C 167.04687,-12.967548 167.36368,-19.775505 176.09634,-24.069074 L 262.61048,-66.604791 C 271.68221,-71.065061 286.31779,-71.065071 295.38952,-66.604791 L 381.90366,-24.069074 C 390.63632,-19.775508 390.95312,-12.967547 382.87327,-8.4854789 L 342.96291,-8.4854789 C 343.02902,-8.0819839 343.05675,-7.6646299 343.05675,-7.2493289 L 343.05675,11.475301 C 343.05675,17.788656 335.22306,22.864096 325.47867,22.864096 L 232.52133,22.864096 z"/>
</g>
</svg>
