<?xml version="1.0" encoding="UTF-8" standalone="no"?>

<svg xmlns:svg="http://www.w3.org/2000/svg" xmlns="http://www.w3.org/2000/svg" xmlns:xlink="http://www.w3.org/1999/xlink" version="1.0" width="100%" height="100%" viewBox="0 0 640 480" title="0 0 640 480" id="fraction01">
<defs id="defs2385">
    <style type="text/css">
        .f                         { fill:#aa0000;stroke:#ae4444;stroke-width:10; }
        svg#fraction01 #cursor     { cursor:pointer; }
        svg#fraction01 .bg         { opacity:1;fill:#e2ce91;fill-opacity:1;stroke:none;marker:none; }
        svg#fraction01 #template   { display:none; }
        svg#fraction01.f3 #f3      { display:inline; }
        svg#fraction01.f4 #f4      { display:inline; }
        svg#fraction01.f6 #f6      { display:inline; }
        svg#fraction01.f8 #f8      { display:inline; }
        svg#fraction01.f3a #f3a      { display:inline; }
        svg#fraction01.f4a #f4a      { display:inline; }
        svg#fraction01.f6a #f6a      { display:inline; }
        svg#fraction01.f8a #f8a      { display:inline; }
        svg#fraction01 .fraction   { display:none; }
    </style>
</defs>
<!--
<rect width="640" height="480" x="0" y="0" id="background" class="bg"/>
-->

<g id="template">
<path d="M 7.5,-172.12 L 7.5,-4.34 L 152.93,79.62 C 165.38,55.78 172.5,28.76 172.5,0 C 172.5,-92.77 99.29,-168.17 7.5,-172.12 z" id="d3" class="f"/>
<path d="M 7.5,-172.12 L 7.5,-7.5 L 172.12,-7.5 C 168.28,-96.79 96.79,-168.28 7.5,-172.12 z" id="d4" class="f"/>
<path d="M 7.5,-172.25 L 7.5,-13 L 145.40,-92.62 C 116.02,-138.62 65.52,-169.75 7.5,-172.25 z" id="d6" class="f"/>
<path d="M 7.5,-172.12 L 7.5,-18.12 L 116.37,-127 C 87.40,-153.57 49.45,-170.31 7.5,-172.12 z" id="d8" class="f"/>
</g>

<g transform="translate(320,280)">


    <circle cx="0" y="0" r="190" style="fill:white"/>
    

    <g id="f3" class="fraction">
        <use x="0" y="0" width="640" height="480" xlink:href="#d3" transform="rotate(0)"/>
        <use x="0" y="0" width="640" height="480" xlink:href="#d3" transform="rotate(120)"/>
        <use x="0" y="0" width="640" height="480" xlink:href="#d3" transform="rotate(240)"/>
    </g>

    <g id="f4" class="fraction">
        <use x="0" y="0" width="640" height="480" xlink:href="#d4" transform="rotate(0)"/>
        <use x="0" y="0" width="640" height="480" xlink:href="#d4" transform="rotate(90)"/>
        <use x="0" y="0" width="640" height="480" xlink:href="#d4" transform="rotate(180)"/>
        <use x="0" y="0" width="640" height="480" xlink:href="#d4" transform="rotate(270)"/>
    </g>
    
    <g id="f4a" class="fraction">
        <circle cx="0" cy="0" r="172.12" class="f"/>
        <path transform="rotate(0)" d="M 0,-177 L 0,-190" style="fill:none;stroke:black;stroke-width:2;"/>
        <path transform="rotate(90)" d="M 0,-177 L 0,-190" style="fill:none;stroke:black;stroke-width:2;"/>
        <path transform="rotate(180)" d="M 0,-177 L 0,-190" style="fill:none;stroke:black;stroke-width:2;"/>
        <path transform="rotate(270)" d="M 0,-177 L 0,-190" style="fill:none;stroke:black;stroke-width:2;"/>
    </g>

    <g id="f6" class="fraction">
        <use x="0" y="0" width="640" height="480" xlink:href="#d6" transform="rotate(0)"/>
        <use x="0" y="0" width="640" height="480" xlink:href="#d6" transform="rotate(60)"/>
        <use x="0" y="0" width="640" height="480" xlink:href="#d6" transform="rotate(120)"/>
        <use x="0" y="0" width="640" height="480" xlink:href="#d6" transform="rotate(180)"/>
        <use x="0" y="0" width="640" height="480" xlink:href="#d6" transform="rotate(240)"/>
        <use x="0" y="0" width="640" height="480" xlink:href="#d6" transform="rotate(300)"/>
    </g>

    <g id="f8" class="fraction">
        <use x="0" y="0" width="640" height="480" xlink:href="#d8" transform="rotate(0)"/>
        <use x="0" y="0" width="640" height="480" xlink:href="#d8" transform="rotate(45)"/>
        <use x="0" y="0" width="640" height="480" xlink:href="#d8" transform="rotate(90)"/>
        <use x="0" y="0" width="640" height="480" xlink:href="#d8" transform="rotate(135)"/>
        <use x="0" y="0" width="640" height="480" xlink:href="#d8" transform="rotate(180)"/>
        <use x="0" y="0" width="640" height="480" xlink:href="#d8" transform="rotate(225)"/>
        <use x="0" y="0" width="640" height="480" xlink:href="#d8" transform="rotate(270)"/>
        <use x="0" y="0" width="640" height="480" xlink:href="#d8" transform="rotate(315)"/>
    </g>
    
    
    <g id="f8a" class="fraction">
        <circle cx="0" cy="0" r="172.12" class="f"/>
        <path transform="rotate(0)" d="M 0,-177 L 0,-190" style="fill:none;stroke:black;stroke-width:2;"/>
        <path transform="rotate(45)" d="M 0,-177 L 0,-190" style="fill:none;stroke:black;stroke-width:2;"/>
        <path transform="rotate(90)" d="M 0,-177 L 0,-190" style="fill:none;stroke:black;stroke-width:2;"/>
        <path transform="rotate(135)" d="M 0,-177 L 0,-190" style="fill:none;stroke:black;stroke-width:2;"/>
        <path transform="rotate(180)" d="M 0,-177 L 0,-190" style="fill:none;stroke:black;stroke-width:2;"/>
        <path transform="rotate(225)" d="M 0,-177 L 0,-190" style="fill:none;stroke:black;stroke-width:2;"/>
        <path transform="rotate(270)" d="M 0,-177 L 0,-190" style="fill:none;stroke:black;stroke-width:2;"/>
        <path transform="rotate(315)" d="M 0,-177 L 0,-190" style="fill:none;stroke:black;stroke-width:2;"/>
    </g>

    <path id="mask" style="opacity:0.7;fill:white;"/>
    <path id="angle" style="opacity:0.7;fill:none;stroke:#ae4444;stroke-width:10;"/>
    
    <line x1="0" y1="00" x2="0" y2="-190" style="stroke:black;stroke-width:2;"/>

    <g id="cursor">
        <line x1="0" y1="0" x2="0" y2="-120" style="stroke:black;stroke-width:2;"/>
        <line x1="0" y1="-160" x2="0" y2="-190" style="stroke:black;stroke-width:2;"/>
        <circle cx="0" cy="-140" r="20" style="fill:white;fill-opacity:0.5;stroke:black;stroke-width:2;"/>
        <circle cx="0" cy="-120" r="80" style="fill:white;fill-opacity:0;"/>
    </g>

</g>


</svg>
