<?xml version="1.0" encoding="UTF-8" standalone="no"?>
<svg xmlns:svg="http://www.w3.org/2000/svg" xmlns="http://www.w3.org/2000/svg" version="1.0" width="100%" height="100%" viewBox="0 0 640 480" id="simon01" style="display:inline">
<defs id="defs4">
<style type="text/css">

    text            { font-size:100px;text-anchor:middle;fill:white;font-family:Times New Roman; }

    .white>*        { fill:#ffffff;stroke:#2b1407;stroke-width:4; }
    .black>*        { fill:#311b1b;stroke:#2b1407;stroke-width:4; }

    .white>*.s      { fill:red; }
    .black>*.s      { fill:red; }

</style>
</defs>
<rect width="640" height="480" ry="0" x="0" y="0"  style="fill:#501616;"/>
<path d="M 0,149.62 L 0,436.62 L 640,436.62 L 640,149.62 L 0,149.62 z" style="fill:#7c573d;"/>

<g transform="translate(320,100)"><text id="count">0</text></g>

<g class="white">
<path d="M 34.06,170 C 24.05,170 16,178.05 16,188.06 L 16,401.93 C 16,411.94 24.05,420 34.06,420 L 69.93,420 C 79.94,420 88,411.94 88,401.93 L 88,325 L 71,325 C 62.77,325 56,318.22 56,310 L 56,180 L 56,170 L 34.06,170 z" id="C"/>
<path d="M 125,170 L 125,180 L 125,310 C 125,318.22 118.22,325 110,325 L 93,325 L 93,401.93 C 93,411.94 101.05,420 111.06,420 L 146.93,420 C 156.94,420 165,411.94 165,401.93 L 165,325 L 148,325 C 139.77,325 133,318.22 133,310 L 133,242.56 L 133,180 L 133,170 L 125,170 z" id="D"/>
<path d="M 202,170 L 202,180 L 202,242.56 L 202,310 C 202,318.22 195.22,325 187,325 L 170,325 L 170,401.93 C 170,411.94 178.05,420 188.06,420 L 223.93,420 C 233.94,420 242,411.94 242,401.93 L 242,188.06 C 242,178.05 233.94,170 223.93,170 L 202,170 z" id="E"/>
<path d="M 265.06,170 C 255.05,170 247,178.05 247,188.06 L 247,401.93 C 247,411.94 255.05,420 265.06,420 L 300.93,420 C 310.94,420 319,411.94 319,401.93 L 319,325 L 302,325 C 293.77,325 287,318.22 287,310 L 287,225.03 L 287,180 L 287,170 L 265.06,170 z" id="F"/>
<path d="M 356,170 L 356,180 L 356,225.03 L 356,310 C 356,318.22 349.22,325 341,325 L 324,325 L 324,401.93 C 324,411.94 332.05,420 342.06,420 L 377.93,420 C 387.94,420 396,411.94 396,401.93 L 396,325 L 379,325 C 370.77,325 364,318.22 364,310 L 364,231.21 L 364,180 L 364,170 L 356,170 z" id="G"/>
<path d="M 433,170 L 433,180 L 433,231.21 L 433,310 C 433,318.22 426.22,325 418,325 L 401,325 L 401,401.93 C 401,411.94 409.05,420 419.06,420 L 454.93,420 C 464.94,420 473,411.94 473,401.93 L 473,325 L 456,325 C 447.77,325 441,318.22 441,310 L 441,243.59 L 441,180 L 441,170 L 433,170 z" id="A"/>
<path d="M 510,170 L 510,180 L 510,243.59 L 510,310 C 510,318.22 503.22,325 495,325 L 478,325 L 478,401.93 C 478,411.94 486.05,420 496.06,420 L 531.93,420 C 541.94,420 550,411.94 550,401.93 L 550,188.06 C 550,178.05 541.94,170 531.93,170 L 510,170 z" id="B"/>
<rect width="72" height="250" ry="18.07" x="555" y="170" id="C2"/>
</g>

<g class="black">
<path d="M 61,170 L 61,180 L 61,232.25 L 61,310 C 61,315.54 65.46,320 71,320 L 110,320 C 115.54,320 120,315.54 120,310 L 120,232.25 L 120,180 L 120,170 L 110,170 L 71,170 L 61,170 z" id="Db"/>
<path d="M 138,170 L 138,180 L 138,242.56 L 138,310 C 138,315.54 142.46,320 148,320 L 187,320 C 192.54,320 197,315.54 197,310 L 197,242.56 L 197,180 L 197,170 L 187,170 L 148,170 L 138,170 z" id="Eb"/>
<path d="M 292,170 L 292,180 L 292,225.03 L 292,310 C 292,315.54 296.46,320 302,320 L 341,320 C 346.54,320 351,315.54 351,310 L 351,225.03 L 351,180 L 351,170 L 341,170 L 302,170 L 292,170 z" id="Gb"/>
<path d="M 369,170 L 369,180 L 369,231.21 L 369,310 C 369,315.54 373.46,320 379,320 L 418,320 C 423.54,320 428,315.54 428,310 L 428,231.21 L 428,180 L 428,170 L 418,170 L 379,170 L 369,170 z" id="Ab"/>
<path d="M 446,170 L 446,180 L 446,243.59 L 446,310 C 446,315.54 450.46,320 456,320 L 495,320 C 500.54,320 505,315.54 505,310 L 505,243.59 L 505,180 L 505,170 L 495,170 L 456,170 L 446,170 z" id="Bb"/>
</g>
</svg>
