<?xml version="1.0" encoding="UTF-8" standalone="no"?>
<svg xmlns:svg="http://www.w3.org/2000/svg" xmlns="http://www.w3.org/2000/svg" version="1.0" width="100%" height="100%" viewBox="0 0 640 480" id="simon01" style="display:inline">
<defs id="defs4">
    <style type="text/css">

    text            { font-size:100px;text-anchor:middle;fill:white;font-family:Times New Roman; }

    #green .b       { fill:#475747; }
    #green .l       { fill:#526c51; }
    #green.s .b     { fill:#12c10b; }
    #green.s .l     { fill:#1af011; }

    #red .b         { fill:#4c2f2f; }
    #red .l         { fill:#653434; }
    #red.s .b       { fill:#b00000; }
    #red.s .l       { fill:#f90000; }

    #yellow .b      { fill:#685327; }
    #yellow .l      { fill:#907d37; }
    #yellow.s .b    { fill:#ebc001; }
    #yellow.s .l    { fill:#fdf90d; }

    #blue .b        { fill:#303e4a; }
    #blue .l        { fill:#335168; }
    #blue.s .b      { fill:#0084e8; }
    #blue.s .l      { fill:#2ca4ff; }

    </style>
</defs>
<rect width="640" height="480" ry="0" x="0" y="0" style="fill:#453a3a;"/>

<g transform="translate(320,272)"><text id="count" class="t">0</text></g>

<g id="green" class="a">
<path d="M 304,20.59 C 194.64,28.47 107.36,116.38 100.46,226 L 241.21,226 C 246.92,193.71 271.99,168.09 304,161.59 L 304,20.59 z" class="b"/>
<path d="M 288,38.53 C 200.33,52.36 131.16,122.05 118.18,210 L 228.78,210 C 238.06,181.79 260.07,159.34 288,149.46 L 288,38.53 z" class="l"/>
</g>

<g id="red" class="a">
<path d="M 336,20.59 L 336,161.59 C 368.00,168.09 393.07,193.71 398.78,226 L 539.53,226 C 532.63,116.38 445.35,28.47 336,20.59 z" class="b"/>
<path d="M 352,38.53 L 352,149.46 C 379.92,159.34 401.93,181.79 411.21,210 L 521.81,210 C 508.83,122.05 439.66,52.36 352,38.53 z" class="l"/>
</g>

<g id="yellow" class="a">
<path d="M 100.75,258 C 109.49,365.74 195.98,451.62 304,459.40 L 304,318.40 C 273.33,312.17 249.05,288.38 242.06,258 L 100.75,258 z" class="b"/>
<path d="M 118.84,274 C 133.30,360.04 201.67,427.88 288,441.5 L 288,330.53 C 261.40,321.12 240.19,300.31 230.21,274 L 118.84,274 z" class="l"/>
</g>

<g id="blue" class="a">
<path d="M 397.93,258 C 390.94,288.38 366.66,312.17 336,318.40 L 336,459.40 C 444.01,451.62 530.50,365.74 539.25,258 L 397.93,258 z" class="b"/>
<path d="M 409.78,274 C 399.80,300.31 378.59,321.12 352,330.53 L 352,441.5 C 438.32,427.88 506.69,360.04 521.15,274 L 409.78,274 z" class="l"/>
</g>

</svg>
