<?xml version="1.0" encoding="UTF-8" standalone="no"?>
<!-- Created with Inkscape (http://www.inkscape.org/) -->
<svg xmlns:dc="http://purl.org/dc/elements/1.1/" xmlns:cc="http://creativecommons.org/ns#" xmlns:rdf="http://www.w3.org/1999/02/22-rdf-syntax-ns#" xmlns:svg="http://www.w3.org/2000/svg" xmlns="http://www.w3.org/2000/svg" version="1.1" width="100%" height="100%" viewBox="0 0 48 48" id="svg2985">
<defs id="defs2987" />
<metadata id="metadata2990">
<rdf:RDF>
<cc:Work rdf:about="">
<dc:format>image/svg+xml
</dc:format>
<dc:type rdf:resource="http://purl.org/dc/dcmitype/StillImage" />
<dc:title>
</dc:title>
</cc:Work>
</rdf:RDF>
</metadata>
<path d="M 23.84,6.81 C 4.93,7.47 7.58,9.46 7.42,23.89 7.25,38.31 8.74,40.47 24.50,40.14 40.25,39.81 41.08,41.63 40.58,22.56 40.09,3.49 38.26,6.97 23.84,6.81 z" id="path3065" style="color:#000000;fill:#2a1910;stroke-width:0.5" />
<path d="M 23.87,9.63 C 8.18,10.18 10.38,11.83 10.24,23.81 10.10,35.78 11.34,37.57 24.42,37.30 37.50,37.02 38.18,38.54 37.77,22.71 37.36,6.88 35.84,9.77 23.87,9.63 z" id="path3084" style="color:#000000;fill:#34241b;stroke-width:0.5" />
<path d="m 24.45,14.00 c -0.99,0.10 -1.99,0.21 -2.98,0.32 0.52,5.82 0.65,11.67 0.51,17.51 -0.35,0.64 0.26,1.39 0.96,1.17 0.65,0.05 1.30,0.10 1.95,0.15 0.10,-9.27 0.18,-12.96 -0.44,-19.16 z" id="path3125" style="font-size:medium;font-style:normal;font-variant:normal;font-weight:normal;font-stretch:normal;text-indent:0;text-align:start;text-decoration:none;line-height:normal;letter-spacing:normal;word-spacing:normal;text-transform:none;direction:ltr;block-progression:tb;writing-mode:lr-tb;text-anchor:start;baseline-shift:baseline;color:#000000;fill:#91671b;stroke-width:3;font-family:Sans;-inkscape-font-specification:Sans" />
<path d="m 32.46,6.65 c -2.20,0.00 -5.01,0.19 -8.62,0.15 C 5.69,7.44 7.41,9.43 7.43,22.34 12.16,23.78 17.58,24.62 23.37,24.62 c 6.31,0 12.17,-0.99 17.18,-2.68 C 40.17,8.24 38.98,6.64 32.46,6.65 z" id="path3103" style="color:#000000;fill:#615149;fill-opacity:0.13;stroke-width:0.5" />
<path d="M 37.22,13.26 A 4.03,2.49 25.14 1 1 29.92,9.83 4.03,2.49 25.14 1 1 37.22,13.26 z" id="path3836" style="color:#000000;fill:#bd7d3f;fill-opacity:0.18;stroke-width:1.5" />
<path d="m 14.06,35.47 a 2.84,1.44 53.51 0 1 -3.38,-4.57 2.84,1.44 53.51 0 1 3.38,4.57 z" id="path3838" style="color:#000000;fill:#bd7d3f;fill-opacity:0.18;stroke-width:1.5" />
<path d="m 19.23,36.61 a 1.89,0.98 5.54 1 1 -3.76,-0.36 1.89,0.98 5.54 1 1 3.76,0.36 z" id="path3840" style="color:#000000;fill:#bd7d3f;fill-opacity:0.18;stroke-width:1.5" />
<path d="M 23.84,6.81 C 4.93,7.47 7.58,9.46 7.42,23.89 7.25,38.31 8.74,40.47 24.50,40.14 40.25,39.81 41.08,41.63 40.58,22.56 40.09,3.49 38.26,6.97 23.84,6.81 z" id="path2994" style="color:#000000;fill:none;stroke:#000000;stroke-width:0.5" />
</svg>
