<?xml version="1.0" encoding="UTF-8" standalone="no"?>
<svg
   xmlns:dc="http://purl.org/dc/elements/1.1/"
   xmlns:cc="http://creativecommons.org/ns#"
   xmlns:rdf="http://www.w3.org/1999/02/22-rdf-syntax-ns#"
   xmlns:svg="http://www.w3.org/2000/svg"
   xmlns="http://www.w3.org/2000/svg"
   xmlns:xlink="http://www.w3.org/1999/xlink"
   version="1.1"
   viewBox="0 0 48 48"
   width="100%"
   height="100%">
  <defs/>
  <rect width="48" height="48" x="0" y="0" style="fill:#afc84b" />
  <g
     id="g4164">
    <path
       d="m 15.989,9.737 c 0,0.989 -1.604,1.791 -3.582,1.791 -1.978,0 -3.582,-0.802 -3.582,-1.791 0,-0.989 1.604,-1.791 3.582,-1.791 1.978,0 3.582,0.802 3.582,1.791 z"
       style="fill:#ffffff" />
    <path
       d="m 8.217,10.928 c -1.005,-0.019 -1.773,0.348 -1.900,0.991 -0.169,0.856 0.887,1.871 2.362,2.263 0.173,0.046 0.344,0.090 0.512,0.115 -0.001,0.011 0,0.021 0,0.033 0,0.499 1.431,0.908 3.189,0.908 1.757,0 3.189,-0.409 3.189,-0.908 0,-0.041 -0.013,-0.075 -0.033,-0.115 0.065,-0.014 0.131,-0.015 0.198,-0.033 1.475,-0.392 2.531,-1.407 2.362,-2.263 -0.169,-0.856 -1.499,-1.235 -2.974,-0.842 -1.475,0.392 -2.548,1.407 -2.379,2.263 0.006,0.032 0.023,0.068 0.033,0.099 -0.130,-0.004 -0.261,-0.016 -0.396,-0.016 -0.262,0 -0.515,0.016 -0.760,0.033 0.011,-0.035 0.025,-0.078 0.033,-0.115 C 11.823,12.483 10.766,11.469 9.291,11.076 8.922,10.978 8.552,10.934 8.217,10.928 Z"
       style="fill:#89a02c" />
    <path
       d="m 18.833,10.809 c 0.190,0.964 -1.001,2.104 -2.662,2.546 -1.660,0.441 -3.161,0.018 -3.351,-0.945 -0.190,-0.964 1.001,-2.104 2.662,-2.546 1.660,-0.441 3.161,-0.018 3.351,0.945 z"
       style="fill:#ffffff" />
    <path
       d="m 5.572,10.809 c -0.190,0.964 1.001,2.104 2.662,2.546 1.660,0.441 3.161,0.018 3.351,-0.945 C 11.777,11.445 10.585,10.305 8.924,9.863 7.263,9.421 5.763,9.845 5.572,10.809 Z"
       style="fill:#ffffff" />
    <path
       d="m 15.989,12.017 c 0,0.989 -1.604,1.791 -3.582,1.791 -1.978,0 -3.582,-0.802 -3.582,-1.791 0,-0.989 1.604,-1.791 3.582,-1.791 1.978,0 3.582,0.802 3.582,1.791 z"
       style="fill:#aad400" />
    <path
       d="m 15.989,13.523 c 0,0.562 -1.604,1.017 -3.582,1.017 -1.978,0 -3.582,-0.455 -3.582,-1.017 0,-0.562 1.604,-1.017 3.582,-1.017 1.978,0 3.582,0.455 3.582,1.017 z"
       id="path7183"
       style="fill:#ffffff" />
  </g>
  <use
     height="100%"
     width="100%"
     transform="translate(24,12.610)"
     xlink:href="#g4164"
     y="0"
     x="0" />
  <use
     x="0"
     y="0"
     xlink:href="#g4164"
     transform="translate(15.050,24.813)"
     width="100%"
     height="100%" />
</svg>
