<?xml version="1.0" encoding="UTF-8" standalone="no"?>
<svg
   xmlns:dc="http://purl.org/dc/elements/1.1/"
   xmlns:cc="http://creativecommons.org/ns#"
   xmlns:rdf="http://www.w3.org/1999/02/22-rdf-syntax-ns#"
   xmlns:svg="http://www.w3.org/2000/svg"
   xmlns="http://www.w3.org/2000/svg"
   xmlns:xlink="http://www.w3.org/1999/xlink"
   id="svg2"
   height="100%"
   width="100%"
   viewBox="0 0 48 48"
   version="1.1">
  <metadata
     id="metadata17">
    <rdf:RDF>
      <cc:Work
         rdf:about="">
        <dc:format>image/svg+xml</dc:format>
        <dc:type
           rdf:resource="http://purl.org/dc/dcmitype/StillImage" />
        <dc:title></dc:title>
      </cc:Work>
    </rdf:RDF>
  </metadata>
  <defs
     id="defs4" />
  <path
     style="fill:#000000;fill-opacity:0.41568628"
     id="ref"
     d="m 9.127,32.222 c -1.033,-0.067 -2.263,0.390 -3.286,1.347 2.111,-0.439 5.547,-0.537 5.107,3.333 1.099,-3.024 -0.097,-4.569 -1.820,-4.681 z m 5.745,0 c -1.722,0.111 -2.920,1.656 -1.820,4.681 -0.439,-3.871 2.995,-3.773 5.107,-3.333 -1.022,-0.956 -2.252,-1.414 -3.286,-1.347 z m -7.211,2.931 c -1.560,-0.101 -3.396,0.588 -4.941,2.033 3.188,-0.664 8.372,-0.810 7.707,5.036 1.660,-4.567 -0.164,-6.900 -2.766,-7.069 z m 8.677,0 c -2.601,0.168 -4.403,2.502 -2.742,7.069 -0.664,-5.846 4.495,-5.700 7.684,-5.036 -1.544,-1.444 -3.380,-2.134 -4.941,-2.033 z" />
  <use
     id="use7"
     x="0"
     y="0"
     xlink:href="#ref"
     transform="translate(25.627,5.084)"
     width="100%"
     height="100%" />
  <use
     id="use9"
     x="0"
     y="0"
     xlink:href="#ref"
     transform="translate(-2.033,-31.728)"
     width="100%"
     height="100%" />
  <use
     id="use11"
     x="0"
     y="0"
     xlink:href="#ref"
     transform="translate(5.491,-13.016)"
     width="100%"
     height="100%" />
  <use
     id="use13"
     x="0"
     y="0"
     xlink:href="#ref"
     transform="translate(21.966,-20.745)"
     width="100%"
     height="100%" />
</svg>
