<?xml version="1.0" encoding="UTF-8" standalone="no"?>
<svg
   xmlns:dc="http://purl.org/dc/elements/1.1/"
   xmlns:cc="http://creativecommons.org/ns#"
   xmlns:rdf="http://www.w3.org/1999/02/22-rdf-syntax-ns#"
   xmlns:svg="http://www.w3.org/2000/svg"
   xmlns="http://www.w3.org/2000/svg"
   height="100%"
   width="100%"
   viewBox="0 0 48 48"
   version="1.1"
   id="svg2">
  <metadata
     id="metadata12">
    <rdf:RDF>
      <cc:Work
         rdf:about="">
        <dc:format>image/svg+xml</dc:format>
        <dc:type
           rdf:resource="http://purl.org/dc/dcmitype/StillImage" />
        <dc:title></dc:title>
      </cc:Work>
    </rdf:RDF>
  </metadata>
  <defs
     id="defs4" />
  <path
     style="color:#000000;display:inline;overflow:visible;visibility:visible;opacity:1;fill:#050b05;fill-opacity:0.45454544;fill-rule:evenodd;stroke:none;stroke-width:0.69999999;stroke-linecap:butt;stroke-linejoin:round;stroke-miterlimit:4;stroke-dasharray:none;stroke-dashoffset:0;stroke-opacity:1;marker:none;marker-start:none;marker-mid:none;marker-end:none;enable-background:accumulate"
     d="M 20.542412,39.65917 C 34.706432,50.035143 56.940672,35.047627 42.611942,25.989238 27.116792,16.193456 20.707112,39.65917 20.542412,39.65917 Z"
     id="path3862" />
  <path
     style="display:inline;overflow:visible;visibility:visible;fill:#95be3a;fill-opacity:1;fill-rule:evenodd;stroke:none;stroke-width:6;stroke-linecap:butt;stroke-linejoin:round;stroke-miterlimit:4;stroke-dashoffset:0;stroke-opacity:1;marker:none;marker-start:none;marker-mid:none;marker-end:none;enable-background:accumulate"
     d="m 44.289382,28.491568 c 0,7.874962 -9.36517,14.266236 -20.9044,14.266236 -11.539229,0 -20.9043932,-6.391274 -20.9043932,-14.266236 0,-12.186173 9.3651642,-21.1373196 20.9043932,-21.1373196 11.53923,0 20.9044,8.2356816 20.9044,21.1373196 z"
     id="path3059" />
  <path
     style="fill:#bbca2e;fill-opacity:0.61818183;fill-rule:evenodd;stroke:none;stroke-width:1px;stroke-linecap:butt;stroke-linejoin:miter;stroke-opacity:1"
     d="m 23.388092,7.3428294 c -7.395179,0 -13.9084992,3.6830456 -17.6249992,9.5312496 -0.11066,0.441982 -0.15964,0.890629 -0.125,1.375 1.69525,1.608151 0.0244,4.284917 1.4375,5.96875 0.36827,0.353336 0.77799,0.668163 1.1875,0.96875 0.83923,-1.366945 1.9287202,-1.991229 2.5000002,-2.5625 0.58229,0.815214 1.73874,0.571041 2.4375,0.6875 -0.29115,1.688656 -0.4606,3.727881 -0.5625,5.34375 0.005,0.0037 -0.005,0.0276 0,0.03125 1.59991,1.133515 3.62163,1.540453 5.562499,1.375 2.34051,0.118983 4.12921,1.731559 6.09375,2.78125 2.75778,1.314736 6.36025,1.262903 8.65625,-0.9375 2.36599,-1.828488 3.76732,-4.558558 5.59375,-6.84375 1.52516,-1.149413 4.55885,-1.650787 4.1875,-4.15625 -0.33679,-2.386801 -2.07371,-4.185428 -3.125,-6.28125 -3.83417,-4.6388058 -9.68044,-7.2812495 -16.21875,-7.2812496 z"
     id="path3832" />
  <path
     style="color:#000000;display:inline;overflow:visible;visibility:visible;opacity:1;fill:#bbca2e;fill-opacity:0.81363639;fill-rule:evenodd;stroke:none;stroke-width:1px;stroke-linecap:butt;stroke-linejoin:miter;stroke-miterlimit:4;stroke-dasharray:none;stroke-dashoffset:0;stroke-opacity:1;marker:none;marker-start:none;marker-mid:none;marker-end:none;enable-background:accumulate"
     d="m 23.388092,7.3428294 c -3.68121,0 -7.151029,0.9261318 -10.156249,2.5624998 -0.75268,0.7388338 -1.54487,1.4619408 -1.78125,2.5312498 0.11815,1.125697 1.53331,1.951686 0.8125,3.125 0.31117,1.479791 1.79929,2.24801 3.0625,2.8125 1.28779,0.748555 2.383509,2.207024 4.031249,2.03125 3.40054,-0.03261 6.80166,0.358643 10.1875,-0.0625 1.27294,-0.419913 1.48194,-2.317948 2.9375,-2.40625 1.37785,-0.291405 2.31924,-1.556221 2.84375,-2.78125 0.4055,-1.535 -0.3459,-3.291949 -1.78125,-4 -1.07313,-0.416662 -1.38875,-1.4668928 -2,-2.2812498 -0.0128,-0.005 -0.0185,-0.02627 -0.0312,-0.03125 -2.50069,-0.973683 -5.24019,-1.4999998 -8.125,-1.4999998 z"
     id="path3843" />
  <path
     id="path4142"
     d="m 32.700592,11.842829 c -2.7306,0.196456 -4.24506,2.092867 -5.03125,4.9375 0.28394,0.358699 0.56421,0.663182 0.9375,0.8125 0.1647,1.317584 -0.15625,6.242374 -0.15625,8.21875 -0.25774,0.837654 -0.74727,2.221799 -1.28125,3.75 0.28287,5.362948 -0.61406,9.759535 -2.03125,13.125 10.71479,-0.611834 19.15625,-6.717942 19.15625,-14.1875 0,-6.432493 -2.32898,-11.704672 -6.09375,-15.375 -0.0129,-0.0057 -0.0184,-0.02563 -0.0312,-0.03125 -2.21693,-0.967621 -4.01157,-1.354839 -5.46875,-1.25 z"
     style="fill:#360937;fill-opacity:0.08636367;fill-rule:evenodd;stroke:none;stroke-width:1px;stroke-linecap:butt;stroke-linejoin:miter;stroke-opacity:1" />
  <path
     id="path3860"
     d="m 4.1241928,34.042917 c -1.058281,-1.706598 -1.643604,-3.582608 -1.643604,-5.551349 0,-12.186173 9.3651642,-21.1373196 20.9043932,-21.1373196 11.53923,0 20.9044,8.2356816 20.9044,21.1373196 0,1.968741 -0.58532,3.844751 -1.64361,5.551349"
     style="display:inline;overflow:visible;visibility:visible;fill:none;fill-opacity:1;fill-rule:evenodd;stroke:#62812b;stroke-width:1;stroke-linecap:round;stroke-linejoin:round;stroke-miterlimit:4;stroke-dasharray:none;stroke-dashoffset:0;stroke-opacity:1;marker:none;marker-start:none;marker-mid:none;marker-end:none;enable-background:accumulate" />
</svg>
