<?xml version="1.0" encoding="UTF-8" standalone="no"?>
<svg
   xmlns:dc="http://purl.org/dc/elements/1.1/"
   xmlns:cc="http://creativecommons.org/ns#"
   xmlns:rdf="http://www.w3.org/1999/02/22-rdf-syntax-ns#"
   xmlns:svg="http://www.w3.org/2000/svg"
   xmlns="http://www.w3.org/2000/svg"
   height="100%"
   width="100%"
   viewBox="0 0 48 144"
   version="1.1"
   id="svg2">
  <metadata
     id="metadata8">
    <rdf:RDF>
      <cc:Work
         rdf:about="">
        <dc:format>image/svg+xml</dc:format>
        <dc:type
           rdf:resource="http://purl.org/dc/dcmitype/StillImage" />
        <dc:title></dc:title>
      </cc:Work>
    </rdf:RDF>
  </metadata>
  <defs
     id="defs4" />
  <rect
     style="display:inline;overflow:visible;visibility:visible;fill:#4b444c;fill-opacity:1;fill-rule:nonzero;stroke:none;stroke-width:2;marker:none;enable-background:accumulate"
     id="rect5210"
     width="48"
     height="48"
     x="0"
     y="96.000015" />
  <rect
     style="color:#000000;clip-rule:nonzero;display:inline;overflow:visible;visibility:visible;opacity:1;isolation:auto;mix-blend-mode:normal;color-interpolation:sRGB;color-interpolation-filters:linearRGB;solid-color:#000000;solid-opacity:1;fill:none;fill-opacity:1;fill-rule:nonzero;stroke:#000000;stroke-width:1;stroke-linecap:round;stroke-linejoin:miter;stroke-miterlimit:4;stroke-dasharray:none;stroke-dashoffset:0;stroke-opacity:1;marker:none;marker-start:none;marker-mid:none;marker-end:none;color-rendering:auto;image-rendering:auto;shape-rendering:auto;text-rendering:auto;enable-background:accumulate"
     id="rect3343"
     width="47"
     height="47"
     x="0.5"
     y="96.5"
     rx="0"
     ry="0" />
  <rect
     style="display:inline;overflow:visible;visibility:visible;fill:#7e7068;fill-opacity:1;fill-rule:nonzero;stroke:none;stroke-width:2;marker:none;enable-background:accumulate"
     id="rect5212"
     width="39"
     height="33"
     x="4.5"
     y="99.000015" />
  <path
     style="display:inline;overflow:visible;visibility:visible;fill:#5e5252;fill-opacity:1;fill-rule:nonzero;stroke:none;stroke-width:2;marker:none;enable-background:accumulate"
     d="m 15.9375,8.250015 c -0.921195,-0.01965 -1.907805,0.06135 -2.953125,0.375 -2.832435,0.849735 -4.98369,3.74169 -5.953125,9.140625 1.5e-5,23.230485 0,86.49997 0,94.31249 1.5e-5,9.14099 6.39789,16.5 14.34375,16.5 l 5.25,0 c 7.94589,-10e-6 14.34375,-7.359 14.34375,-16.5 -1.5e-5,-7.76694 0,-62.56616 0,-89.390615 C 39.966,20.451255 38.359275,20.30931 37.640625,19.73439 35.968095,15.553095 22.781265,13.875 22.78125,13.875015 l -2.0625,-4.40625 c 0,0 -2.01768,-1.15995 -4.78125,-1.21875 z"
     id="path5214" />
  <path
     style="display:inline;overflow:visible;visibility:visible;fill:#7e7068;fill-opacity:1;fill-rule:nonzero;stroke:none;stroke-width:2;marker:none;enable-background:accumulate"
     d="m 9.9375,21.217335 0,100.798295 c 1.1811,1.81124 2.637045,3.33101 4.359375,4.45313 l 0,-105.251425 -4.359375,0 z"
     id="path5216" />
  <path
     style="display:inline;overflow:visible;visibility:visible;fill:#4b444c;fill-opacity:1;fill-rule:nonzero;stroke:none;stroke-width:2;marker:none;enable-background:accumulate"
     d="m 32.671875,25.51143 0,101.51983 c 2.271825,-1.21737 4.19343,-3.06002 5.625,-5.39063 l 0,-96.1292 -5.625,0 z"
     id="path5218" />
  <path
     style="display:inline;overflow:visible;visibility:visible;fill:#7e7068;fill-opacity:1;fill-rule:nonzero;stroke:none;stroke-width:2;marker:none;enable-background:accumulate"
     d="m 17.203125,21.463755 0,106.458125 c 1.00101,0.34788 2.058795,0.52031 3.140625,0.60938 l 0,-107.067505 -3.140625,0 z"
     id="path5220" />
  <path
     style="display:inline;overflow:visible;visibility:visible;fill:#7e7068;fill-opacity:1;fill-rule:nonzero;stroke:none;stroke-width:2;marker:none;enable-background:accumulate"
     d="m 15.9375,8.250015 c -0.921195,-0.01965 -1.907805,0.06135 -2.953125,0.375 -2.832435,0.849735 -4.98369,3.74169 -5.953125,9.140625 0,0.32328 0,0.973965 0,1.3125 0.38025,1.443375 0.9816,2.88756 1.96875,4.40625 0.836265,0.209085 3.88437,2.162505 3.88437,2.162505 1.29426,2.847405 3.126975,3.878655 5.566155,5.959395 3.554085,0.62718 9.01518,3.066195 15.890625,1.875 3.608835,-0.625245 6.07644,-2.326275 6.6276,-10.700025 0,-0.0282 0,-0.06555 0,-0.09375 C 39.966,20.451255 38.359275,20.30931 37.640625,19.73439 35.968095,15.553095 22.781265,13.875 22.78125,13.875015 l -2.0625,-4.40625 c 0,0 -2.01768,-1.15995 -4.78125,-1.21875 l 0,0 z"
     id="path5267" />
  <path
     style="display:inline;overflow:visible;visibility:visible;fill:#5e5252;fill-opacity:1;fill-rule:nonzero;stroke:none;stroke-width:2;marker:none;enable-background:accumulate"
     d="m 20.578125,9.375015 -5.296875,9.328125 -3.75,6.140625 c 0.66639,0.40425 1.359375,0.796875 1.359375,0.796875 0.6966,1.53252 1.558965,2.541645 2.578125,3.46875 l 0.9375,-2.53125 1.828125,-3.46875 -1.078125,-3.84375 0.890625,-2.203125 3.28125,-1.125 1.265625,-2.484375 -1.875,-3.984375 c 0,0 -0.10155,-0.07275 -0.14055,-0.09375 l -7.5e-5,0 z m 12.703125,12.703125 0.46875,2.0625 3.46875,0 -3.9375,-2.0625 z m -10.546875,1.171875 -2.296875,1.125 1.171875,3 5.71875,2.0625 0.9375,-2.296875 -5.53125,-3.890625 z"
     id="path5272" />
  <path
     style="display:inline;overflow:visible;visibility:visible;fill:#867e7f;fill-opacity:1;fill-rule:nonzero;stroke:none;stroke-width:2;marker:none;enable-background:accumulate"
     d="m 20.918895,17.509695 5.04357,4.585065 4.58508,-0.91701 0.229245,-3.43881 -9.857895,-0.229245 0,0 z"
     id="path3893" />
  <path
     style="display:inline;overflow:visible;visibility:visible;fill:none;stroke:#818b8b;stroke-width:1.5;stroke-linecap:butt;stroke-linejoin:miter;stroke-miterlimit:4;stroke-dasharray:none;stroke-dashoffset:0;stroke-opacity:1;marker:none;enable-background:accumulate"
     d="m 34.653182,109.91969 c -0.296044,7.03078 -9.778937,10.64397 -13.093502,10.90914 l 2.78424,7.5572 -1.723575,3.8449 5.96622,10.87178"
     id="path4719" />
  <path
     style="display:inline;overflow:visible;visibility:visible;fill:none;stroke:#818b8b;stroke-width:1.5;stroke-linecap:round;stroke-linejoin:miter;stroke-miterlimit:4;stroke-dasharray:none;stroke-dashoffset:0;stroke-opacity:1;marker:none;enable-background:accumulate"
     d="m 4.191375,117.2491 3.977475,2.12133 3.447135,-4.6404"
     id="path4715" />
  <path
     style="display:inline;overflow:visible;visibility:visible;fill:none;stroke:#818b8b;stroke-width:1.5;stroke-linecap:butt;stroke-linejoin:miter;stroke-miterlimit:4;stroke-dasharray:none;stroke-dashoffset:0;stroke-opacity:1;marker:none;enable-background:accumulate"
     d="m 31.59375,85.593759 c 1.5,0.9375 8.269739,-0.69408 9.019739,-5.94408"
     id="path4713" />
  <path
     style="display:inline;overflow:visible;visibility:visible;fill:none;stroke:#818b8b;stroke-width:1.5;stroke-linecap:round;stroke-linejoin:miter;stroke-miterlimit:4;stroke-dasharray:none;stroke-dashoffset:0;stroke-opacity:1;marker:none;enable-background:accumulate"
     d="M 23.64034,14.412537 19.249665,16.85256 17.55969,19.377 19.090455,23.277405 15.89634,30.10677 c 0,0 -3.06589,15.665579 -8.0993204,8.395079"
     id="path4709" />
  <path
     style="display:inline;overflow:visible;visibility:visible;fill:none;stroke:#818b8b;stroke-width:1.5;stroke-linecap:butt;stroke-linejoin:miter;stroke-miterlimit:4;stroke-dasharray:none;stroke-dashoffset:0;stroke-opacity:1;marker:none;enable-background:accumulate"
     d="m 16.125,74.625009 9.375,-2.0625 c 0,0 11.890688,-3.311504 15.078188,-13.811498"
     id="path4711" />
  <path
     transform="matrix(1.5,0,0,1.5,-480,-528)"
     style="display:inline;overflow:visible;visibility:visible;fill:none;stroke:#1c121d;stroke-width:0.66666667;stroke-linecap:round;stroke-linejoin:round;stroke-miterlimit:4;stroke-dasharray:none;stroke-dashoffset:0;stroke-opacity:1;marker:none;enable-background:accumulate"
     d="m 347.3125,425.49369 0,-58.36869 c -0.6685,-1.49084 -1.73965,-1.58547 -2.21875,-1.96875 -1.11502,-2.78753 -9.90624,-3.90626 -9.90625,-3.90625 l -1.375,-2.9375 c 0,0 -1.34512,-0.7733 -3.1875,-0.8125 -0.61413,-0.0131 -1.27187,0.0409 -1.96875,0.25 -1.88829,0.56649 -3.32246,2.49446 -3.96875,6.09375 l 0,62.875"
     id="path3896" />
  <path
     style="display:inline;overflow:visible;visibility:visible;fill:none;stroke:#1c121d;stroke-width:1;stroke-linecap:round;stroke-linejoin:round;stroke-miterlimit:4;stroke-dasharray:none;stroke-dashoffset:0;stroke-opacity:1;marker:none;enable-background:accumulate"
     d="m 22.779306,14.056006 -4.059966,2.398799 -2.08773,2.52444 1.39818,3.63525 -2.79636,6.43161 c 0,0 -2.25153,16.3558 -7.8530308,8.310658"
     id="path3905" />
  <path
     style="display:inline;overflow:visible;visibility:visible;fill:none;stroke:#1c121d;stroke-width:1;stroke-linecap:round;stroke-linejoin:round;stroke-miterlimit:4;stroke-dasharray:none;stroke-dashoffset:0;stroke-opacity:1;marker:none;enable-background:accumulate"
     d="m 7.0174841,60.313919 c 0.612465,9.799449 8.4672709,13.293498 8.4672709,13.293498 l 6.43089,-1.124783 c 0,0 18.971092,-3.526485 18.971092,-19.450584"
     id="path4684" />
  <path
     style="display:inline;overflow:visible;visibility:visible;fill:none;stroke:#1c121d;stroke-width:1;stroke-linecap:round;stroke-linejoin:round;stroke-miterlimit:4;stroke-dasharray:none;stroke-dashoffset:0;stroke-opacity:1;marker:none;enable-background:accumulate"
     d="m 15.23343,73.508049 4.7538,8.109405 12.583575,3.35562 c 0,0 7.817079,-0.58007 8.376354,-8.96912"
     id="path4692" />
  <path
     style="display:inline;overflow:visible;visibility:visible;fill:none;stroke:#1c121d;stroke-width:1;stroke-linecap:round;stroke-linejoin:round;stroke-miterlimit:4;stroke-dasharray:none;stroke-dashoffset:0;stroke-opacity:1;marker:none;enable-background:accumulate"
     d="m 7.0539294,98.92666 c 0.79092,8.50246 4.7049156,19.86627 13.6028556,21.44812 0.79092,1.38411 2.768235,7.90926 2.768235,7.90926 l -1.581855,3.7569 5.33877,10.67753"
     id="path4694" />
  <path
     style="display:inline;overflow:visible;visibility:visible;fill:none;stroke:#1c121d;stroke-width:1;stroke-linecap:round;stroke-linejoin:round;stroke-miterlimit:4;stroke-dasharray:none;stroke-dashoffset:0;stroke-opacity:1;marker:none;enable-background:accumulate"
     d="m 20.656785,120.17704 c 4.54782,-0.19773 12.457095,-3.7569 13.248015,-11.07297 1.384125,0.59319 7.036495,6.56788 7.063777,1.51181 l 2.228348,0.0836 4.125447,6.58497"
     id="path4696" />
  <path
     style="display:inline;overflow:visible;visibility:visible;fill:none;stroke:#1c121d;stroke-width:1;stroke-linecap:round;stroke-linejoin:round;stroke-miterlimit:4;stroke-dasharray:none;stroke-dashoffset:0;stroke-opacity:1;marker:none;enable-background:accumulate"
     d="m 33.837752,109.06758 c 0,0 6.333352,-3.39793 7.124272,-11.307206"
     id="path4699" />
  <path
     style="display:inline;overflow:visible;visibility:visible;fill:none;stroke:#1c121d;stroke-width:1;stroke-linecap:round;stroke-linejoin:round;stroke-miterlimit:4;stroke-dasharray:none;stroke-dashoffset:0;stroke-opacity:1;marker:none;enable-background:accumulate"
     d="m 0.97206,122.44415 3.35562,-6.15196 3.63525,1.95744 3.460759,-4.60838"
     id="path4703" />
</svg>
