<?xml version="1.0" encoding="UTF-8" standalone="no"?>
<svg
   xmlns:dc="http://purl.org/dc/elements/1.1/"
   xmlns:cc="http://creativecommons.org/ns#"
   xmlns:rdf="http://www.w3.org/1999/02/22-rdf-syntax-ns#"
   xmlns:svg="http://www.w3.org/2000/svg"
   xmlns="http://www.w3.org/2000/svg"
   id="svg2"
   version="1.1"
   viewBox="0 0 144 144"
   width="100%"
   height="100%">
  <metadata
     id="metadata8">
    <rdf:RDF>
      <cc:Work
         rdf:about="">
        <dc:format>image/svg+xml</dc:format>
        <dc:type
           rdf:resource="http://purl.org/dc/dcmitype/StillImage" />
        <dc:title></dc:title>
      </cc:Work>
    </rdf:RDF>
  </metadata>
  <defs
     id="defs4" />
  <path
     id="path5106"
     d="m 84.073593,110.10349 c -6.008445,4.89849 -14.174722,5.27587 -21.568421,5.8782 -7.690305,0.64365 -15.797821,0.2858 -22.960585,3.58539 -4.355559,1.93116 -6.88677,6.65481 -6.716242,11.33043 0.339149,2.73885 3.872965,3.97261 5.919247,5.58772 10.947233,6.31572 24.158976,6.80523 36.430873,5.4622 4.209881,-0.48786 8.388769,-1.23961 12.507638,-2.23692 4.900224,-4.17081 11.247003,-5.95926 17.017507,-8.57809 3.98179,-1.88342 8.62366,-3.3622 11.26327,-7.10672 1.62315,-3.06319 -1.74392,-5.62745 -4.08475,-7.01792 -4.68717,-2.90764 -10.33103,-3.476 -15.638526,-4.52516 -4.074849,-0.69237 -8.16868,-1.3241 -12.170011,-2.37913 z"
     style="color:#000000;clip-rule:nonzero;display:inline;overflow:visible;visibility:visible;opacity:1;isolation:auto;mix-blend-mode:normal;color-interpolation:sRGB;color-interpolation-filters:linearRGB;solid-color:#000000;solid-opacity:1;fill:#2a2a2a;fill-opacity:0.33742335;fill-rule:nonzero;stroke:none;stroke-width:1.5;stroke-linecap:round;stroke-linejoin:miter;stroke-miterlimit:4;stroke-dasharray:none;stroke-dashoffset:0;stroke-opacity:1;marker:none;marker-start:none;marker-mid:none;marker-end:none;color-rendering:auto;image-rendering:auto;shape-rendering:auto;text-rendering:auto;enable-background:accumulate" />
  <path
     style="display:inline;fill:#352118;fill-opacity:1;fill-rule:evenodd;stroke:none"
     d="m 52.722548,126.54854 c 3.068568,1.39486 7.531923,0.83692 3.347519,11.71675 12.553211,-2.51073 15.063845,-4.46352 27.059133,1.11588 -4.184404,-11.99571 -1.952721,-12.83263 5.021278,-10.87984 -12.274239,-9.48499 -22.874729,-6.41631 -35.42793,-1.95279 l 0,0 z"
     id="path4302" />
  <path
     style="display:inline;fill:#62351c;fill-opacity:1;fill-rule:evenodd;stroke:none"
     d="m 47.632619,58.486079 c -0.781661,0.0033 -1.649599,0.470294 -2.36597,0.788681 2.468658,9.87496 2.532244,24.000536 1.04381,33.31036 -2.161182,-3.447271 -4.047534,-7.885168 -6.193273,-14.799452 l -1.345352,0.41754 c 2.154179,6.941484 4.103749,11.502561 6.332448,15.07781 C 33.157203,90.82434 28.297023,79.952641 26.176524,77.832065 23.993318,75.648791 22.442,83.213679 22.442,83.213679 c 4.97702,1.382612 7.443496,6.797172 12.270576,8.675542 4.111799,3.371264 9.184928,4.864541 13.940661,6.982177 3.500722,1.786112 5.911851,4.941332 9.48707,6.611042 2.8083,1.77086 5.477036,4.53214 5.543795,8.04922 2.133359,4.98544 -2.286595,9.55256 -6.958734,10.48488 -1.579209,0.11527 -6.273349,3.70044 -2.134015,2.57482 4.884753,-1.73626 9.282962,3.45178 5.381417,7.37653 -1.014617,1.20664 -6.558512,6.47164 -2.041225,4.8481 4.671014,-2.31887 8.815692,-7.09024 14.543755,-6.05432 4.597207,0.2829 6.987415,4.78634 10.762846,6.51824 -1.714009,-4.07981 -5.018495,-7.91617 -5.474208,-12.59576 2.573941,-3.17407 7.887196,2.38927 11.690673,2.22687 -5.589856,-3.71801 -7.665407,-5.83712 -9.556658,-10.04413 -0.651204,-4.35201 -7.041103,-3.78055 -6.935542,-8.9771 -0.489616,-5.15008 2.809269,-10.120838 6.170081,-13.75559 4.39153,-2.345899 9.921296,-1.469802 14.334982,-4.244979 4.041031,-1.101257 7.998116,-2.769755 11.064386,-5.729574 3.06855,-2.915382 6.78094,-5.915508 7.07472,-10.484868 0.18246,-1.302344 0.22279,-2.630809 0.16237,-3.94343 -0.29,-0.303267 -6.43231,-6.683824 -5.54379,-0.463937 0.90967,6.367898 -3.65877,10.188627 -11.481911,15.101004 -7.823131,4.912389 -12.717159,4.544309 -14.172626,3.270725 0.36387,-2.001338 6.726781,-14.915427 6.726781,-14.915427 l -4.175241,-0.185577 c -1.1e-5,0 -2.379943,11.839209 -6.564402,16.933545 -4.184471,5.094309 -5.277181,3.079279 -8.188115,1.62376 -1.273537,-5.640132 6.01581,-16.90837 8.744814,-21.456876 2.729004,-4.548506 -2.195776,-4.015247 -5.288638,-5.288831 -1.273549,7.459556 -5.09385,16.936039 -9.27832,24.031701 -4.184482,7.09566 -9.80901,4.372427 -11.992215,1.461388 1.091597,-6.367908 -0.196459,-24.94167 -0.742269,-29.854058 -0.307008,-2.763209 -1.175414,-3.506284 -2.180399,-3.502687 l 0,0 z m 64.136331,13.24527 c 0.007,0.0067 0.0927,0.09275 0.0927,0.09275 l -0.11598,-0.394335 c 0.006,0.09988 0.0186,0.201599 0.0232,0.301552 l 8e-5,3.4e-5 z"
     id="path2930" />
  <path
     style="display:inline;fill:#3e2613;fill-opacity:1;fill-rule:evenodd;stroke:none"
     d="m 47.632619,58.486079 c -0.781661,0.0033 -1.649599,0.470294 -2.36597,0.788681 2.468658,9.87496 2.532244,24.000536 1.04381,33.31036 -2.161182,-3.447271 -4.047534,-7.885168 -6.193273,-14.799452 l -1.345352,0.41754 c 2.154179,6.941484 4.103749,11.502561 6.332448,15.07781 C 33.157203,90.82434 28.297023,79.952641 26.176524,77.832065 23.993318,75.648791 22.442,83.213679 22.442,83.213679 c 4.97702,1.382612 7.443496,6.797172 12.270576,8.675542 4.111799,3.371264 9.184928,4.864541 13.940661,6.982177 3.500722,1.786112 5.911851,4.941332 9.48707,6.611042 2.8083,1.77086 5.477036,4.53214 5.543795,8.04922 2.133359,4.98544 -2.286595,9.55256 -6.958734,10.48488 -1.579209,0.11527 -6.273349,3.70044 -2.134015,2.57482 4.884753,-1.73626 9.282962,3.45178 5.381417,7.37653 -0.990701,1.17818 -6.275041,6.21492 -2.319574,4.94088 2.779931,-3.43532 5.875955,-6.12154 7.353066,-7.33013 3.068557,-2.51073 3.379373,-8.69978 3.658323,-11.48947 0.278962,-2.7897 -0.312029,-9.17019 -3.101624,-13.07576 -0.914523,-1.28036 -2.32493,-7.187216 -3.943287,-15.263369 -4.052399,5.321295 -9.038148,2.794529 -11.064387,0.09275 C 51.646884,85.474883 50.358828,66.901122 49.813018,61.988733 49.50601,59.225525 48.637604,58.48245 47.632619,58.486046 l 0,3.4e-5 z"
     id="path4284" />
  <path
     style="display:inline;fill:#744b30;fill-opacity:1;fill-rule:evenodd;stroke:none"
     d="m 72.916016,109.1243 c -0.612692,1.63744 -0.891453,3.22578 -0.394321,4.59294 0.898846,2.47189 4.338632,4.41254 10.600468,12.94371 0.0067,0.003 0.0167,-0.003 0.02316,0 2.125487,0.97378 4.407517,2.33126 6.309256,2.25007 -5.589857,-3.71801 -7.665408,-5.83712 -9.556658,-10.04413 -0.651204,-4.35201 -7.041104,-3.78055 -6.935542,-8.9771 -0.02405,-0.25306 -0.04019,-0.51343 -0.04643,-0.76549 l 6.7e-5,0 z m 0.162378,11.85348 c 0,5.11571 5.103012,12.33476 8.883976,17.60624 0.405889,0.26425 0.838277,0.4952 1.275776,0.69589 -1.714009,-4.07981 -5.018495,-7.91617 -5.474208,-12.59576 0.124633,-0.15369 0.257328,-0.27998 0.394332,-0.39434 -2.019414,-2.47093 -4.002263,-4.6385 -5.079876,-5.31203 z"
     id="path4290" />
  <path
     style="display:inline;fill:#352118;fill-opacity:1;fill-rule:evenodd;stroke:none"
     d="m 47.632619,58.486079 c -0.781661,0.0033 -1.649599,0.470294 -2.36597,0.788681 2.468658,9.87496 2.532244,24.000536 1.04381,33.31036 -2.161182,-3.447271 -4.047534,-7.885168 -6.193273,-14.799452 l -1.345352,0.41754 c 2.154179,6.941484 4.103749,11.502561 6.332448,15.07781 C 33.157203,90.82434 28.297023,79.952641 26.176524,77.832065 23.993318,75.648791 22.442,83.213679 22.442,83.213679 c 4.97702,1.382612 7.443496,6.797172 12.270576,8.675542 4.111799,3.371264 9.184928,4.864541 13.940661,6.982177 1.785277,0.910871 3.284077,2.165502 4.801526,3.409902 l 0.742258,-0.37115 c 0.359004,0.71802 0.70861,1.30962 1.067013,1.80934 0.896842,0.6653 1.838342,1.2782 2.876273,1.76295 0.133664,0.0843 0.26156,0.1896 0.394332,0.27836 1.55143,-0.18063 2.706113,-2.01257 2.945861,-3.85065 1.60337,3.06111 4.073286,5.6995 6.842751,4.8249 2.769465,-0.8746 2.783494,-4.52735 2.783494,-7.00538 1.087388,0.79085 2.189819,1.75045 3.572158,2.59802 1.179366,-2.29377 2.802276,-4.40758 4.453589,-6.19349 4.39153,-2.345899 9.921296,-1.469802 14.334982,-4.244979 4.041031,-1.101257 7.998116,-2.769755 11.064386,-5.729574 3.06855,-2.915382 6.78094,-5.915508 7.07472,-10.484868 0.18246,-1.302344 0.22279,-2.630809 0.16237,-3.94343 -0.29,-0.303267 -6.43231,-6.683824 -5.54379,-0.463937 0.90967,6.367898 -3.65877,10.188627 -11.481911,15.101004 -7.823131,4.912389 -12.717159,4.544309 -14.172626,3.270725 0.36387,-2.001338 6.726781,-14.915427 6.726781,-14.915427 l -4.175241,-0.185577 c -1.1e-5,0 -2.379943,11.839209 -6.564402,16.933545 -4.184471,5.094309 -5.277181,3.079279 -8.188115,1.62376 -1.273537,-5.640132 6.01581,-16.90837 8.744814,-21.456876 2.729004,-4.548506 -2.195776,-4.015247 -5.288638,-5.288831 -1.273549,7.459556 -5.09385,16.936039 -9.27832,24.031701 -4.184482,7.09566 -9.80901,4.372427 -11.992215,1.461388 1.091597,-6.367908 -0.196459,-24.94167 -0.742269,-29.854058 -0.307008,-2.763209 -1.175414,-3.506284 -2.180399,-3.502687 l 0,0 z m 64.136331,13.24527 c 0.007,0.0067 0.0927,0.09275 0.0927,0.09275 l -0.11598,-0.394335 c 0.006,0.09988 0.0186,0.201599 0.0232,0.301552 l 8e-5,3.4e-5 z"
     id="path3877" />
  <path
     style="display:inline;overflow:visible;visibility:visible;fill:none;stroke:#62341b;stroke-width:1.46666658;stroke-linecap:round;stroke-linejoin:miter;stroke-miterlimit:4;stroke-dasharray:none;stroke-dashoffset:0;stroke-opacity:1;marker:none;enable-background:accumulate"
     d="m 66.289743,114.57792 c 0.608083,3.37271 0.35268,7.91455 -1.292943,11.41269"
     id="path4306" />
  <path
     style="display:inline;overflow:visible;visibility:visible;fill:#004434;fill-opacity:1;fill-rule:nonzero;stroke:none;stroke-width:1.5;marker:none;enable-background:accumulate"
     d="m 23.401303,78.305455 c -2.273491,1.980026 -2.120143,5.312869 0.31557,7.286839 2.927823,2.372793 8.437671,1.007183 14.490903,2.835348 -8.183384,2.137256 -18.562241,6.194301 -15.034308,12.576288 2.518494,4.55594 7.702139,2.22761 12.612757,-1.769985 -0.642386,2.850065 -0.48072,5.891925 0.821075,8.498865 2.914352,5.83618 11.133485,3.71228 10.895563,-1.32412 -0.207058,-4.38277 -5.262362,-5.9881 -6.128986,-12.458974 0.196559,-0.210896 0.374135,-0.418241 0.563869,-0.626766 2.188272,4.260657 9.214645,16.77489 14.468044,12.34859 2.673122,-2.25226 1.212356,-4.92498 -1.729385,-7.308905 2.094412,0.595511 3.939657,0.330725 4.992764,-1.598129 3.622205,-6.634328 -7.437005,-3.948749 -10.147193,-4.735894 -1.607568,-0.466898 -3.776087,-1.058891 -5.19617,-1.41538 0.50212,-0.612903 0.931268,-1.174956 1.312551,-1.682216 2.328225,1.441836 11.393051,6.589635 12.228377,-0.354162 0.76015,-6.318962 -7.841881,-2.800764 -11.32942,-0.918909 0.175794,-0.266246 0.291576,-0.478612 0.385502,-0.658465 3.630701,-1.068734 10.587653,-3.780824 7.061512,-7.891014 -4.061596,-4.734327 -7.942086,5.206971 -8.864748,7.80274 -0.0056,0.0011 -0.01191,0.01392 -0.0177,0.01492 -0.431942,0.07894 -0.93011,0.16185 -1.471644,0.269308 1.963621,-2.966511 6.877857,-11.39546 1.734874,-12.017349 -0.369938,-0.04476 -0.704002,-0.02294 -1.006656,0.02917 -0.356187,-2.153255 -1.701094,-3.512062 -4.803409,-2.929266 -5.344129,1.003954 -4.921662,5.493425 -3.316454,9.528079 -2.482276,-2.79513 -5.436254,-5.216891 -8.221752,-5.114589 -2.043941,0.07505 -3.5821,0.713904 -4.6155,1.613918 l -3.3e-5,5.6e-5 z"
     id="path3007" />
  <path
     style="display:inline;overflow:visible;visibility:visible;fill:#2f8136;fill-opacity:1;fill-rule:nonzero;stroke:none;stroke-width:1.5;marker:none;enable-background:accumulate"
     d="m 14.968453,67.783442 c -3.444941,0.995615 -3.748375,4.325908 -0.637665,6.153772 2.356594,1.38475 5.51704,2.451513 8.228385,3.90966 -4.963303,0.117056 -9.944999,0.617268 -13.7506697,1.800195 -3.9729139,1.234926 -6.6871877,3.207682 -6.7615515,6.263101 -0.1079996,4.438297 7.9698662,4.394918 16.6175352,2.556253 -6.286309,5.104446 -9.7242688,10.900956 -3.319138,12.388037 4.960698,1.15175 8.272187,-2.286529 10.913722,-6.685397 -1.209951,4.081137 -0.859509,7.319247 3.148833,7.682017 7.146131,0.64676 7.487744,-11.809454 4.367548,-18.317366 0.620262,-0.294794 1.211799,-0.583909 1.746442,-0.878291 0.159883,4.574616 1.266378,18.503367 9.266951,16.534831 5.131794,-1.262673 1.944794,-6.416518 -2.030391,-10.887562 4.293016,1.706099 11.595756,2.804695 10.787029,-1.859653 -0.768979,-4.435136 -10.878205,-5.075396 -15.955765,-5.118564 0.150186,-0.112847 0.298156,-0.227041 0.430094,-0.338129 6.494737,0.606724 17.658651,0.811886 15.411236,-5.452985 -1.524687,-4.250182 -6.220196,-3.053927 -10.659645,-0.777246 5.183444,-3.894005 10.125882,-8.710838 5.238847,-10.055304 -6.897086,-1.897432 -11.265078,9.209692 -12.705235,13.588421 -0.339965,-0.02995 -0.691999,-0.05344 -1.047685,-0.08161 2.554757,-6.002667 4.747271,-14.798672 -3.087207,-14.824983 -5.2158,-0.01748 -5.83309,3.863942 -4.880701,8.236937 -1.023357,-1.476842 -2.499254,-2.710153 -4.680979,-3.382859 -2.839553,-0.875574 -5.074097,-0.90586 -6.63999,-0.453314 l 0,4.4e-5 z"
     id="path2957" />
  <path
     style="display:inline;overflow:visible;visibility:visible;fill:#004434;fill-opacity:1;fill-rule:nonzero;stroke:none;stroke-width:1.5;marker:none;enable-background:accumulate"
     d="m 46.74877,47.100428 c -3.57876,-0.09776 -4.857129,3.948163 -2.435557,7.446118 1.834523,2.649971 4.529568,5.215622 6.680385,8.09563 -4.764807,-1.788082 -9.660939,-3.104232 -13.639119,-3.108352 -4.153007,-0.0045 -7.325678,1.404546 -8.304087,5.196048 -1.421252,5.507521 6.289873,8.601621 15.077251,9.672982 -7.507038,3.932507 -12.505147,9.840499 -6.842751,14.196335 4.38545,3.373551 8.562572,0.364997 12.386547,-4.105802 -2.365302,4.631468 -2.993147,8.816959 0.719065,10.832825 6.618157,3.593888 10.643579,-11.84817 9.603053,-21.201717 0.678683,-0.126866 1.328295,-0.257817 1.925254,-0.41754 -1.206433,5.782396 -4.289186,23.630115 3.920083,24.286865 5.265669,0.42128 3.759286,-7.265202 1.298967,-14.405102 3.584495,3.806489 10.217694,8.026408 10.832423,1.878927 0.584522,-5.845394 -8.859415,-10.586013 -13.685504,-12.618961 0.176641,-0.08262 0.351578,-0.167695 0.510304,-0.255167 6.009284,3.289954 16.587574,7.897616 16.30663,-0.811874 -0.190591,-5.90866 -5.020743,-6.242936 -9.927787,-5.126458 6.096453,-2.848799 12.237352,-6.945449 7.979341,-10.531265 -6.00934,-5.060688 -13.471185,7.125202 -16.144263,12.039049 -0.31508,-0.170011 -0.643588,-0.336592 -0.974223,-0.510333 4.217661,-6.509994 8.919806,-16.65395 1.461334,-19.740322 -4.965441,-2.05475 -6.706638,2.558013 -7.097908,8.397183 -0.536591,-2.245493 -1.576816,-4.36284 -3.456164,-6.05432 -2.446046,-2.201512 -4.566567,-3.110311 -6.193274,-3.154749 l 0,0 z"
     id="path3009" />
  <path
     style="display:inline;overflow:visible;visibility:visible;fill:#2f8136;fill-opacity:1;fill-rule:nonzero;stroke:none;stroke-width:1.5;marker:none;enable-background:accumulate"
     d="m 110.9932,54.498579 c 3.01439,0.04933 5.04447,2.696914 4.45359,5.77596 -0.71026,3.701135 -5.80379,6.207049 -9.25512,11.505523 7.63529,-3.638471 18.18649,-7.223452 19.60044,-0.06959 1.00937,5.106939 -4.45497,6.666421 -10.78604,6.773411 2.32757,1.765679 4.16382,4.196114 4.84792,7.028578 1.53151,6.341085 -6.12253,10.012811 -9.18553,6.007922 -2.66548,-3.48515 0.16626,-7.970212 -3.34019,-13.477232 -0.2862,-0.03463 -0.55558,-0.07883 -0.83505,-0.115987 1.07167,4.668345 3.76117,18.766071 -3.10824,18.766071 -3.495407,0 -4.100318,-2.985213 -3.386584,-6.703829 -1.218025,1.804961 -2.799782,2.791434 -4.847911,1.994914 -7.044599,-2.739648 3.143277,-7.811849 4.708737,-10.160123 0.928578,-1.392889 2.205528,-3.242899 3.061848,-4.430559 -0.77889,-0.14517 -1.46921,-0.298491 -2.08763,-0.440732 -0.851533,2.602828 -4.467136,12.380529 -9.579846,7.608489 -4.652665,-4.342631 4.192543,-7.194791 8.07213,-8.002836 -0.305984,-0.0903 -0.531358,-0.178128 -0.719075,-0.255155 -3.46516,1.522125 -10.532907,3.930748 -10.484485,-1.484592 0.05578,-6.237669 9.428584,-1.135439 11.806645,0.255167 0.0056,-0.0033 0.01804,0.0033 0.02316,0 0.381191,-0.217944 0.815581,-0.475538 1.298961,-0.742296 -3.413014,-1.003386 -12.601972,-4.282951 -9.069552,-8.072426 0.254089,-0.27257 0.523609,-0.471162 0.788653,-0.626309 -1.114956,-1.87621 -0.961909,-3.781948 1.786079,-5.335216 4.733774,-2.675715 7.30328,1.02983 8.67523,5.149651 0.0974,-3.737033 0.79612,-7.49247 2.99225,-9.209057 1.61148,-1.259611 3.19939,-1.762172 4.56956,-1.739747 l 5e-5,0 z"
     id="path3017" />
  <path
     style="display:inline;overflow:visible;visibility:visible;fill:#006b46;fill-opacity:1;fill-rule:nonzero;stroke:none;stroke-width:1.5;marker:none;enable-background:accumulate"
     d="m 77.290577,32.763956 c -3.578771,-0.09776 -4.85713,3.948162 -2.435557,7.446117 1.834523,2.649971 4.529568,5.215622 6.680385,8.09563 -4.764807,-1.788081 -9.660939,-3.104232 -13.639119,-3.108352 -4.153006,-0.0045 -7.325677,1.404547 -8.304097,5.196048 -1.421252,5.507533 6.289871,8.601621 15.077261,9.672993 -7.507049,3.932497 -12.505146,9.840488 -6.842752,14.196325 4.38545,3.37355 8.562572,0.364996 12.386547,-4.105803 -2.365301,4.631468 -2.993146,8.81696 0.719066,10.832828 6.618146,3.593889 10.643567,-11.848172 9.603053,-21.201709 0.678682,-0.126865 1.328283,-0.257828 1.925242,-0.417539 -1.206422,5.782384 -4.289185,23.630106 3.920095,24.286856 5.265659,0.421281 3.759289,-7.265205 1.298956,-14.405105 3.584493,3.806489 10.217703,8.026408 10.832433,1.878927 0.58452,-5.845394 -8.859417,-10.586012 -13.685514,-12.618961 0.176652,-0.08262 0.351589,-0.167684 0.510314,-0.255155 6.00929,3.289942 16.58758,7.897605 16.30663,-0.811886 -0.1906,-5.90866 -5.02074,-6.242925 -9.9278,-5.126458 6.09647,-2.848798 12.23736,-6.945449 7.97936,-10.531265 -6.00936,-5.060687 -13.47119,7.125202 -16.144268,12.039049 -0.315081,-0.170011 -0.6436,-0.336581 -0.974223,-0.510322 4.217661,-6.510005 8.919791,-16.65396 1.461334,-19.740333 -4.965452,-2.054749 -6.706639,2.558013 -7.097909,8.397183 -0.536591,-2.245493 -1.576816,-4.36284 -3.456164,-6.05432 -2.446045,-2.201512 -4.566566,-3.110311 -6.193273,-3.154748 l 0,0 z"
     id="path3011" />
  <path
     style="display:inline;overflow:visible;visibility:visible;fill:#0b5c2f;fill-opacity:1;fill-rule:nonzero;stroke:none;stroke-width:1.5;marker:none;enable-background:accumulate"
     d="m 19.22967,33.381157 c -3.01439,0.04932 -5.04447,2.696914 -4.45359,5.77596 0.710258,3.701135 5.803785,6.20705 9.255116,11.505523 -7.63529,-3.638471 -18.18649,-7.223452 -19.6004379,-0.06959 -1.0093728,5.106939 4.4549704,6.666432 10.7860379,6.773411 -2.327568,1.765679 -4.163817,4.196114 -4.847922,7.028578 -1.5315114,6.341085 6.122528,10.012814 9.185529,6.007922 2.665485,-3.48515 -0.166252,-7.970201 3.340193,-13.477232 0.286198,-0.03463 0.555585,-0.07883 0.835048,-0.115987 -1.071668,4.668356 -3.761168,18.766075 3.108238,18.766075 3.495411,0 4.10032,-2.985217 3.386588,-6.703833 1.218023,1.804961 2.799782,2.791434 4.847912,1.994914 7.044599,-2.739648 -3.143278,-7.811837 -4.708738,-10.160123 -0.928573,-1.392888 -2.205529,-3.242899 -3.061843,-4.430548 0.778889,-0.145181 1.469206,-0.29849 2.087621,-0.440743 0.851537,2.602839 4.467141,12.380529 9.579851,7.608501 4.652665,-4.342643 -4.192543,-7.194803 -8.072133,-8.002837 0.305984,-0.0903 0.531358,-0.178138 0.719077,-0.255166 3.465161,1.522125 10.532908,3.930759 10.484486,-1.484581 -0.05578,-6.23768 -9.428585,-1.13545 -11.806646,0.255156 -0.0056,-0.0033 -0.01804,0.0033 -0.02316,0 -0.381193,-0.217944 -0.815586,-0.475538 -1.298956,-0.742285 3.413009,-1.003386 12.601968,-4.282962 9.069548,-8.072426 -0.254089,-0.27258 -0.523609,-0.471173 -0.788653,-0.626309 1.114956,-1.876221 0.961909,-3.781959 -1.786079,-5.335227 -4.733777,-2.675715 -7.303276,1.02983 -8.675227,5.149651 -0.09742,-3.737033 -0.796123,-7.49247 -2.992255,-9.209057 -1.611476,-1.259611 -3.199393,-1.762172 -4.569562,-1.739747 l -4.4e-5,0 z"
     id="path3023" />
  <path
     style="display:inline;overflow:visible;visibility:visible;fill:#006b46;fill-opacity:1;fill-rule:nonzero;stroke:none;stroke-width:1.5;marker:none;enable-background:accumulate"
     d="m 27.426402,17.804169 c -3.57876,-0.09776 -4.85713,3.948163 -2.435557,7.446117 1.834522,2.649961 4.529579,5.215611 6.680385,8.095619 -4.764807,-1.788081 -9.660939,-3.104232 -13.63912,-3.108351 -4.153005,-0.0045 -7.325676,1.404546 -8.3040851,5.196048 -1.4212519,5.507532 6.2898711,8.601621 15.0772501,9.672993 -7.507038,3.932496 -12.505146,9.840488 -6.842752,14.196335 4.38545,3.373539 8.562572,0.364985 12.386547,-4.105803 -2.365302,4.631457 -2.993146,8.81696 0.719066,10.832818 6.618158,3.593888 10.643579,-11.848162 9.603054,-21.20171 0.678682,-0.126865 1.328294,-0.257827 1.925253,-0.417539 -1.206421,5.782396 -4.289185,23.630107 3.920084,24.286857 5.265668,0.42128 3.759286,-7.265206 1.298967,-14.405094 3.584494,3.806488 10.217693,8.026396 10.832422,1.878927 0.584523,-5.845394 -8.859415,-10.586024 -13.685503,-12.618973 0.176641,-0.08262 0.351578,-0.167683 0.510303,-0.255155 6.009285,3.289942 16.587574,7.897605 16.306631,-0.811886 -0.190592,-5.908659 -5.020744,-6.242924 -9.927787,-5.126458 6.096452,-2.848798 12.237352,-6.945448 7.979341,-10.531264 -6.00934,-5.060677 -13.471185,7.125201 -16.144252,12.039049 -0.315092,-0.170011 -0.6436,-0.336582 -0.974223,-0.510322 4.21765,-6.510006 8.919795,-16.65395 1.461334,-19.740322 -4.965452,-2.05475 -6.706639,2.558012 -7.097909,8.397171 -0.536591,-2.245493 -1.576815,-4.362829 -3.456175,-6.054308 -2.446035,-2.201512 -4.566567,-3.110311 -6.193274,-3.154749 z"
     id="path3013" />
  <path
     style="display:inline;overflow:visible;visibility:visible;fill:#315b49;fill-opacity:1;fill-rule:nonzero;stroke:none;stroke-width:1.5;marker:none;enable-background:accumulate"
     d="m 77.820064,58.314153 c -3.01439,0.04933 -5.04447,2.696914 -4.45359,5.77596 0.710259,3.701124 5.803796,6.20705 9.255117,11.505523 -7.635279,-3.638471 -18.186491,-7.223452 -19.600428,-0.06959 -1.009384,5.106939 4.45496,6.666421 10.786038,6.773411 -2.327579,1.765679 -4.163817,4.196114 -4.847921,7.028578 -1.531512,6.341082 6.122517,10.012811 9.185529,6.007919 2.665484,-3.485147 -0.166253,-7.970209 3.340192,-13.477229 0.286199,-0.03463 0.555585,-0.07883 0.835048,-0.115987 -1.071667,4.668345 -3.761179,18.766072 3.108227,18.766072 3.495423,0 4.100332,-2.985217 3.386588,-6.70383 1.218024,1.804958 2.799783,2.791431 4.847922,1.99491 7.044584,-2.739644 -3.143288,-7.811844 -4.708747,-10.160119 -0.928563,-1.392888 -2.205529,-3.242899 -3.061843,-4.430559 0.778888,-0.14517 1.469206,-0.298491 2.08762,-0.440732 0.851538,2.602828 4.46714,12.380529 9.579861,7.60849 4.652653,-4.342632 -4.192554,-7.194792 -8.072132,-8.002837 0.305984,-0.0903 0.531358,-0.178127 0.719066,-0.255155 3.465171,1.522125 10.532909,3.930748 10.484499,-1.484592 -0.0558,-6.237669 -9.428586,-1.135439 -11.806659,0.255167 -0.0056,-0.0033 -0.01804,0.0033 -0.02316,0 -0.381205,-0.217944 -0.815586,-0.475538 -1.298968,-0.742296 3.41302,-1.003386 12.601977,-4.282951 9.069547,-8.072426 -0.254089,-0.272569 -0.523609,-0.471162 -0.788653,-0.626309 1.114956,-1.87621 0.96192,-3.781948 -1.786079,-5.335216 -4.733776,-2.675715 -7.303275,1.02983 -8.675214,5.149651 -0.09742,-3.737032 -0.796135,-7.49247 -2.992256,-9.209057 -1.611476,-1.25961 -3.199392,-1.762172 -4.569573,-1.739747 l -3.3e-5,0 z"
     id="path3015" />
  <path
     style="display:inline;overflow:visible;visibility:visible;fill:#397e00;fill-opacity:1;fill-rule:nonzero;stroke:none;stroke-width:1.5;marker:none;enable-background:accumulate"
     d="m 126.74794,37.903786 c 3.01457,0.03808 5.05449,2.678097 4.47509,5.759314 -0.69647,3.703763 -5.78063,6.22864 -9.21217,11.53994 7.62167,-3.666897 18.15944,-7.291182 19.60003,-0.142643 1.0284,5.103154 -4.43008,6.682989 -10.76072,6.813573 2.33414,1.756994 4.17942,4.180559 4.87408,7.010462 1.55513,6.335329 -6.08516,10.035551 -9.16307,6.042117 -2.67846,-3.475197 0.13654,-7.970781 -3.3904,-13.464696 -0.28633,-0.03351 -0.55588,-0.07672 -0.83548,-0.112869 1.08906,4.664315 3.83109,18.751912 -3.03827,18.777521 -3.4954,0.01303 -4.11142,-2.969918 -3.41154,-6.691162 -1.21129,1.809493 -2.78937,2.801845 -4.84045,2.012963 -7.05476,-2.713382 3.11415,-7.823506 4.67084,-10.177604 0.92338,-1.396329 2.19343,-3.251094 3.04531,-4.441927 -0.77942,-0.142264 -1.4703,-0.293013 -2.08924,-0.432961 -0.84184,2.606002 -4.42098,12.397098 -9.55144,7.644142 -4.66881,-4.325261 4.16571,-7.210369 8.04225,-8.032854 -0.30632,-0.08919 -0.53203,-0.176157 -0.72001,-0.252483 -3.45947,1.535041 -10.5182,3.969974 -10.48996,-1.445499 0.0325,-6.237836 9.42429,-1.17058 11.80753,0.211152 0.006,-0.0033 0.018,0.0033 0.0232,-8.9e-5 0.38038,-0.219347 0.8138,-0.478566 1.29618,-0.747117 -3.41672,-0.990659 -12.61784,-4.235963 -9.09957,-8.038566 0.25308,-0.273527 0.52186,-0.473133 0.78632,-0.629248 -1.12193,-1.872046 -0.976,-3.778352 1.76619,-5.341842 4.72376,-2.69334 7.30707,1.002606 8.69434,5.117283 0.0835,-3.737366 0.76821,-7.495386 2.95792,-9.220146 1.60677,-1.265612 3.1928,-1.774075 4.56305,-1.756761 l 3e-5,0 z"
     id="path3019" />
  <path
     style="display:inline;overflow:visible;visibility:visible;fill:#2f8136;fill-opacity:1;fill-rule:nonzero;stroke:none;stroke-width:1.5;marker:none;enable-background:accumulate"
     d="m 57.251092,13.43476 c -3.01439,0.04932 -5.04447,2.696914 -4.45359,5.77596 0.710259,3.701135 5.803796,6.20705 9.255117,11.505523 -7.635279,-3.638471 -18.186491,-7.223452 -19.600427,-0.06959 -1.009373,5.10694 4.454959,6.666432 10.786038,6.773411 -2.32758,1.765679 -4.163817,4.196114 -4.847922,7.028578 -1.531512,6.341097 6.122517,10.012815 9.185529,6.007934 2.665485,-3.485151 -0.166253,-7.970213 3.340192,-13.477244 0.286199,-0.03463 0.555586,-0.07883 0.835048,-0.115987 -1.071667,4.668357 -3.761179,18.766075 3.108239,18.766075 3.495411,0 4.10032,-2.985206 3.386576,-6.703822 1.218035,1.80495 2.799794,2.791434 4.847922,1.994903 7.044589,-2.739648 -3.143288,-7.811837 -4.708747,-10.160123 -0.928562,-1.392888 -2.205529,-3.242899 -3.061843,-4.430548 0.778888,-0.145181 1.469217,-0.29849 2.08762,-0.440743 0.851549,2.60284 4.467151,12.38054 9.579861,7.608501 4.652655,-4.342643 -4.192553,-7.194803 -8.072131,-8.002836 0.305984,-0.0903 0.531358,-0.178139 0.719065,-0.255167 3.465172,1.522126 10.532918,3.930759 10.484497,-1.48458 -0.05578,-6.23767 -9.428584,-1.135451 -11.806656,0.255155 -0.0056,-0.0033 -0.01804,0.0033 -0.02316,0 -0.381194,-0.217944 -0.815586,-0.475538 -1.298967,-0.742284 3.413019,-1.003386 12.601978,-4.282962 9.069557,-8.072426 -0.254099,-0.272581 -0.523608,-0.471174 -0.788664,-0.626309 1.114957,-1.876221 0.96192,-3.78196 -1.786067,-5.335228 -4.733788,-2.675703 -7.303287,1.029841 -8.675226,5.149651 -0.09742,-3.737032 -0.796135,-7.492459 -2.992256,-9.209057 -1.611476,-1.25961 -3.199392,-1.762161 -4.569572,-1.739747 l -3.4e-5,0 z"
     id="path3021" />
  <path
     style="display:inline;overflow:visible;visibility:visible;fill:#006b46;fill-opacity:1;fill-rule:nonzero;stroke:none;stroke-width:1.5;marker:none;enable-background:accumulate"
     d="m 110.53913,44.6144 c 2.42387,-2.36393 0.52089,-5.896635 -3.44766,-6.557794 -3.00648,-0.500903 -6.52264,-0.362347 -9.893547,-0.800161 4.352037,-2.055196 8.470407,-4.510382 11.093857,-7.207018 2.73874,-2.81515 3.87287,-5.896011 1.94492,-9.057574 -2.80054,-4.592509 -9.97962,-1.398478 -16.495286,3.85833 2.277176,-7.684381 1.561195,-14.9677137 -5.124345,-13.995003 -5.177855,0.75333 -5.888292,5.569595 -5.37398,11.109473 -1.584242,-4.655964 -4.010458,-7.839216 -7.823644,-6.648294 -6.798182,2.123182 1.02731,15.027138 8.059039,20.48284 -0.361008,0.544082 -0.700082,1.071139 -0.984979,1.581405 C 79.36497,32.752799 69.286273,18.903712 63.432753,24.041382 c -3.754632,3.295432 2.452893,7.336833 8.918002,10.370863 -4.943975,-0.07538 -12.176816,1.645661 -8.410783,6.112463 3.580987,4.247321 13.018712,0.962178 17.577273,-0.973301 -0.06035,0.174253 -0.117831,0.34903 -0.163035,0.514353 -6.190868,1.910259 -16.285642,6.052694 -10.191283,11.59952 4.134524,3.763042 7.543223,0.705808 10.018261,-3.35931 -2.083211,6.013367 -3.349032,12.878893 1.88889,12.351859 7.392325,-0.743811 4.039874,-13.834513 2.466799,-18.885324 0.322908,-0.101768 0.65234,-0.214972 0.988018,-0.324868 1.638554,7.150355 5.423537,17.023343 12.430936,13.99566 4.665149,-2.015668 2.682469,-6.235821 -1.021585,-10.347903 1.877019,1.11513 3.998864,1.804103 6.384554,1.643167 3.10506,-0.20946 5.11857,-1.049638 6.22033,-2.124161 l 0,0 z"
     id="path3025" />
  <path
     id="path4300"
     d="m 57.10093,104.9209 c 0.33982,0.19611 0.682546,0.388 1.04381,0.55672 2.808289,1.77087 5.465434,4.52055 5.532194,8.03763 2.133325,4.98544 -2.286596,9.57576 -6.958735,10.50807 -1.579243,0.11528 -6.261747,3.70045 -2.122414,2.57483 4.884742,-1.73626 9.294565,3.45178 5.393019,7.37653 -1.014617,1.20664 -6.570114,6.46003 -2.052826,4.83649 4.671003,-2.31887 8.815692,-7.09024 14.543755,-6.05432 4.597196,0.28291 6.975813,4.77475 10.751244,6.50666 -1.714042,-4.07982 -5.006893,-7.91618 -5.462606,-12.59577 2.57393,-3.17407 7.887196,2.38927 11.690673,2.22687 -5.589867,-3.71801 -7.677009,-5.81392 -9.568259,-10.02094 -0.651238,-4.352 -7.029502,-3.78054 -6.923941,-8.97709 -0.489628,-5.15009 2.797667,-10.144048 6.15848,-13.7788 0.624115,-0.333396 1.284827,-0.577306 1.948446,-0.800283"
     style="display:inline;fill:none;stroke:#342017;stroke-width:1;stroke-linecap:butt;stroke-linejoin:round;stroke-miterlimit:4;stroke-dasharray:none;stroke-opacity:1" />
  <path
     style="display:inline;overflow:visible;visibility:visible;fill:none;stroke:#004434;stroke-width:1;stroke-linecap:butt;stroke-linejoin:miter;stroke-miterlimit:4;stroke-dasharray:none;stroke-dashoffset:0;stroke-opacity:1;marker:none;enable-background:accumulate"
     d="m 89.80255,10.770627 c -0.371942,-0.0022 -0.765149,0.03195 -1.182985,0.09275 -5.177855,0.753341 -5.895729,5.571299 -5.381418,11.111188 -1.584231,-4.655953 -4.003788,-7.848358 -7.816985,-6.657436 -1.785979,0.557788 -2.551005,1.85687 -2.597924,3.572277 -3.806773,-1.745726 -6.127917,0.82832 -7.515433,4.1522 -0.184357,0.04565 -0.377464,0.113983 -0.556699,0.185577 -0.208261,-3.330984 -0.955417,-6.511542 -2.922668,-8.049233 -1.611476,-1.259611 -3.199393,-1.762161 -4.569573,-1.739747 -3.01439,0.04932 -5.04447,2.696914 -4.45359,5.77596 0.44674,2.327898 2.617965,4.190168 5.033492,6.564642 -1.690605,-0.437738 -3.445364,0.179063 -5.126271,1.391797 -1.699635,-0.427783 -3.338155,-0.683796 -4.778335,-0.649502 0.549072,-3.451791 -0.257718,-6.461715 -3.757705,-7.910053 -4.965453,-2.054739 -6.706639,2.558024 -7.09791,8.397182 -0.53659,-2.245481 -1.576815,-4.36284 -3.456175,-6.054319 -2.446035,-2.201512 -4.566567,-3.110312 -6.193274,-3.154738 -3.578761,-0.09776 -4.85713,3.948163 -2.435557,7.446118 1.834522,2.649971 4.529579,5.215611 6.680385,8.095619 -4.764807,-1.788071 -9.660939,-3.104232 -13.63912,-3.108352 -4.153006,-0.0045 -7.325676,1.404546 -8.3040855,5.196048 -1.0164429,3.938832 2.6471135,6.645054 8.0257365,8.257992 1.080096,1.087606 2.310645,2.221164 3.548954,3.549084 -0.671234,0.468379 -1.300938,0.943705 -1.878858,1.438194 -6.722081,-2.61139 -13.840644,-3.861893 -14.9844706,1.925324 -1.0093728,5.10694 4.4549594,6.666421 10.7860376,6.773412 -2.327568,1.765679 -4.163816,4.196114 -4.847921,7.028578 -0.6296712,2.607093 0.290986,4.74407 1.809271,6.100705 -0.140021,1.197725 0.559059,2.507652 2.134015,3.433108 2.356595,1.384739 5.523153,2.462079 8.234499,3.920227 -4.963293,0.117055 -9.94942,0.603205 -13.7550911,1.786144 -3.9729251,1.234925 -6.6756085,3.207659 -6.7499723,6.263089 -0.1079996,4.438298 7.9604914,4.390286 16.6081714,2.551621 -6.28632,5.104446 -9.7221196,10.89991 -3.317,12.386997 2.869515,0.66623 5.188922,-0.19915 7.144304,-1.902121 0.06881,0.657129 0.300673,1.349591 0.695874,2.064501 2.518494,4.55591 7.68468,2.23465 12.59531,-1.762948 -0.642397,2.850058 -0.466747,5.883028 0.835048,8.489968 2.91434,5.83618 11.11674,3.71418 10.878818,-1.32221 -0.13294,-2.81394 -2.251379,-4.48165 -3.989671,-7.028579 0.407648,-0.01459 0.825518,-0.07482 1.275764,-0.185565 0.168046,-0.04131 0.313455,-0.08963 0.46392,-0.13918 3.136218,4.757774 7.566749,9.636174 11.157167,6.611024 2.673122,-2.25226 1.22526,-4.92301 -1.716492,-7.306923 2.094412,0.595512 3.93399,0.328286 4.987097,-1.600567 0.117296,-5.850936 3.189717,0.415279 6.170082,1.229414 2.62519,0.210028 3.569207,-1.5898 3.548954,-4.337762 1.71461,3.410379 6.479461,4.655292 8.744802,1.693346 2.665485,-3.485135 -0.166252,-7.970209 3.340193,-13.477229 0.286198,-0.03463 0.555585,-0.07883 0.835048,-0.115987 -1.071668,4.668356 -3.761168,18.766068 3.108238,18.766068 3.495411,0 4.10032,-2.985213 3.386577,-6.703826 1.218034,1.804969 2.799794,2.791431 4.847922,1.994911 2.551072,-0.992115 2.851622,-2.301307 2.110812,-3.665068 1.756841,0.400281 3.150111,-0.535063 4.244832,-2.157286 -0.713738,3.718616 -0.108894,6.703829 3.38658,6.703829 6.86941,0 4.1799,-14.097715 3.10824,-18.766072 0.27947,0.03719 0.54884,0.08139 0.83505,0.115987 3.50645,5.507021 0.6747,9.992094 3.34019,13.477233 3.06301,4.004889 10.71703,0.333174 9.18553,-6.007922 -0.6841,-2.832465 -2.52035,-5.262899 -4.84792,-7.028578 0.37989,-0.0067 0.74096,-0.02906 1.1134,-0.04643 0.53814,1.058802 1.55567,1.699396 3.17782,1.693361 2.05536,-0.0078 3.23751,-1.281567 3.87369,-3.177941 1.44364,-0.747741 2.39391,-1.812833 2.64432,-3.293918 0.18304,0.442058 0.42377,0.862559 0.74227,1.275811 3.07791,3.993446 10.71745,0.28101 9.16233,-6.054319 -0.69465,-2.829904 -2.53698,-5.24838 -4.87112,-7.005374 6.33064,-0.130584 11.79124,-1.716677 10.76285,-6.819809 -1.44059,-7.14854 -11.97877,-3.527717 -19.60044,0.13918 3.43156,-5.3113 8.51227,-7.824976 9.20873,-11.528727 0.5794,-3.081218 -1.46222,-5.714688 -4.47679,-5.752768 -1.37025,-0.01726 -2.9628,0.474147 -4.56956,1.739747 -2.18971,1.724772 -2.86238,5.494895 -2.94586,9.232262 -1.2984,-3.851049 -3.64893,-7.321446 -7.81699,-5.543998 0.84305,-2.194497 -1.04473,-4.74024 -4.33761,-5.288831 -2.87669,-0.479268 -6.20444,-0.368815 -9.440684,-0.742285 -0.02538,-0.08061 -0.06424,-0.152852 -0.09275,-0.231973 4.219964,-2.020222 8.187784,-4.405518 10.739644,-7.028578 2.73874,-2.815139 3.87641,-5.885111 1.94845,-9.046674 -2.80053,-4.592509 -9.97654,-1.406172 -16.492205,3.850637 2.134861,-7.204112 1.635759,-14.053526 -3.943276,-14.080349 l -3.3e-5,3.3e-5 z"
     id="path3854" />
</svg>
