<?xml version="1.0" encoding="UTF-8" standalone="no"?>
<svg
   xmlns:dc="http://purl.org/dc/elements/1.1/"
   xmlns:cc="http://creativecommons.org/ns#"
   xmlns:rdf="http://www.w3.org/1999/02/22-rdf-syntax-ns#"
   xmlns:svg="http://www.w3.org/2000/svg"
   xmlns="http://www.w3.org/2000/svg"
   viewBox="0 0 96 96"
   version="1.1"
   id="bubble"
   height="100%"
   width="100%">
  <metadata
     id="metadata19">
    <rdf:RDF>
      <cc:Work
         rdf:about="">
        <dc:format>image/svg+xml</dc:format>
        <dc:type
           rdf:resource="http://purl.org/dc/dcmitype/StillImage" />
        <dc:title></dc:title>
      </cc:Work>
    </rdf:RDF>
  </metadata>
  <defs
     id="defs17" />
  <rect
     style="color:#000000;clip-rule:nonzero;display:inline;overflow:visible;visibility:visible;opacity:1;isolation:auto;mix-blend-mode:normal;color-interpolation:sRGB;color-interpolation-filters:linearRGB;solid-color:#000000;solid-opacity:1;fill:#601010;fill-opacity:1;fill-rule:evenodd;stroke:#3a0a0a;stroke-width:1;stroke-linecap:butt;stroke-linejoin:miter;stroke-miterlimit:4;stroke-dasharray:none;stroke-dashoffset:0;stroke-opacity:1;marker:none;marker-start:none;marker-mid:none;marker-end:none;color-rendering:auto;image-rendering:auto;shape-rendering:auto;text-rendering:auto;enable-background:accumulate"
     id="rect4147"
     width="95"
     height="95"
     x="0.5"
     y="0.5" />
  <rect
     y="3"
     x="3"
     height="90"
     width="90"
     id="rect4151"
     style="color:#000000;clip-rule:nonzero;display:inline;overflow:visible;visibility:visible;opacity:1;isolation:auto;mix-blend-mode:normal;color-interpolation:sRGB;color-interpolation-filters:linearRGB;solid-color:#000000;solid-opacity:1;fill:#991717;fill-opacity:1;fill-rule:evenodd;stroke:none;stroke-width:1;stroke-linecap:butt;stroke-linejoin:miter;stroke-miterlimit:4;stroke-dasharray:none;stroke-dashoffset:0;stroke-opacity:1;marker:none;marker-start:none;marker-mid:none;marker-end:none;color-rendering:auto;image-rendering:auto;shape-rendering:auto;text-rendering:auto;enable-background:accumulate" />
  <path
     id="rect4137"
     d="M 3.1972656 3 L 93 92.802734 L 93 85.820312 L 10.177734 3 L 3.1972656 3 z M 13.667969 3 L 93 82.332031 L 93 78.84375 L 17.15625 3 L 13.667969 3 z M 25.007812 3 L 93 70.992188 L 93 56.558594 L 39.441406 3 L 25.007812 3 z M 43.242188 3 L 93 52.757812 L 93 46.679688 L 49.320312 3 L 43.242188 3 z M 55.539062 3 L 93 40.460938 L 93 28.25 L 67.75 3 L 55.539062 3 z M 78.21875 3 L 93 17.78125 L 93 14.292969 L 81.707031 3 L 78.21875 3 z M 85.027344 3 L 93 10.972656 L 93 3 L 85.027344 3 z M 3 8.90625 L 3 12.398438 L 83.601562 93 L 87.09375 93 L 3 8.90625 z M 3 21.992188 L 3 34.205078 L 61.792969 93 L 74.007812 93 L 3 21.992188 z M 3 37.695312 L 3 44.675781 L 51.324219 93 L 58.304688 93 L 3 37.695312 z M 3 53.396484 L 3 62.119141 L 33.882812 93 L 42.601562 93 L 3 53.396484 z M 3 66.480469 L 3 69.96875 L 26.03125 93 L 29.519531 93 L 3 66.480469 z M 3 75.203125 L 3 82.183594 L 13.816406 93 L 20.796875 93 L 3 75.203125 z M 3 86.542969 L 3 93 L 9.4570312 93 L 3 86.542969 z "
     style="color:#000000;clip-rule:nonzero;display:inline;overflow:visible;visibility:visible;opacity:1;isolation:auto;mix-blend-mode:normal;color-interpolation:sRGB;color-interpolation-filters:linearRGB;solid-color:#000000;solid-opacity:1;fill:#df3737;fill-opacity:0.15950922;fill-rule:evenodd;stroke:none;stroke-width:1;stroke-linecap:butt;stroke-linejoin:miter;stroke-miterlimit:4;stroke-dasharray:none;stroke-dashoffset:0;stroke-opacity:1;marker:none;marker-start:none;marker-mid:none;marker-end:none;color-rendering:auto;image-rendering:auto;shape-rendering:auto;text-rendering:auto;enable-background:accumulate" />
  <path
     id="path4191"
     d="M 3 3 L 3 3.75 L 3.75 3 L 3 3 z M 7.0703125 3 L 3 7.0683594 L 3 10.558594 L 10.558594 3 L 7.0703125 3 z M 21.027344 3 L 3 21.027344 L 3 33.238281 L 33.238281 3 L 21.027344 3 z M 39.457031 3 L 3 39.457031 L 3 45.535156 L 45.535156 3 L 39.457031 3 z M 49.335938 3 L 3 49.335938 L 3 63.769531 L 63.769531 3 L 49.335938 3 z M 71.621094 3 L 3 71.621094 L 3 75.109375 L 75.109375 3 L 71.621094 3 z M 78.597656 3 L 3 78.597656 L 3 85.580078 L 85.578125 3 L 78.597656 3 z M 91.683594 3 L 3 91.683594 L 3 93 L 5.1757812 93 L 93 5.1757812 L 93 3 L 91.683594 3 z M 93 14.769531 L 14.767578 93 L 26.982422 93 L 93 26.980469 L 93 14.769531 z M 93 30.470703 L 30.470703 93 L 37.451172 93 L 93 37.453125 L 93 30.470703 z M 93 46.171875 L 46.173828 93 L 54.894531 93 L 93 54.894531 L 93 46.171875 z M 93 59.257812 L 59.257812 93 L 62.746094 93 L 93 62.746094 L 93 59.257812 z M 93 67.980469 L 67.980469 93 L 74.960938 93 L 93 74.960938 L 93 67.980469 z M 93 79.320312 L 79.320312 93 L 93 93 L 93 79.320312 z "
     style="color:#000000;clip-rule:nonzero;display:inline;overflow:visible;visibility:visible;opacity:1;isolation:auto;mix-blend-mode:normal;color-interpolation:sRGB;color-interpolation-filters:linearRGB;solid-color:#000000;solid-opacity:1;fill:#df3737;fill-opacity:0.15950922;fill-rule:evenodd;stroke:none;stroke-width:1;stroke-linecap:butt;stroke-linejoin:miter;stroke-miterlimit:4;stroke-dasharray:none;stroke-dashoffset:0;stroke-opacity:1;marker:none;marker-start:none;marker-mid:none;marker-end:none;color-rendering:auto;image-rendering:auto;shape-rendering:auto;text-rendering:auto;enable-background:accumulate" />
</svg>
