<?xml version="1.0" encoding="UTF-8" standalone="no"?>
<svg
   xmlns:dc="http://purl.org/dc/elements/1.1/"
   xmlns:cc="http://creativecommons.org/ns#"
   xmlns:rdf="http://www.w3.org/1999/02/22-rdf-syntax-ns#"
   xmlns:svg="http://www.w3.org/2000/svg"
   xmlns="http://www.w3.org/2000/svg"
   viewBox="0 0 96 144"
   version="1.1"
   id="bubble"
   height="100%"
   width="100%">
  <metadata
     id="metadata19">
    <rdf:RDF>
      <cc:Work
         rdf:about="">
        <dc:format>image/svg+xml</dc:format>
        <dc:type
           rdf:resource="http://purl.org/dc/dcmitype/StillImage" />
        <dc:title></dc:title>
      </cc:Work>
    </rdf:RDF>
  </metadata>
  <defs
     id="defs17" />
  <path
     id="rect4147"
     d="m 95.5,0.5 -47,0 -48,0 0,47 48,0 0,96 47,0 0,-96 0,-47 z"
     style="color:#000000;clip-rule:nonzero;display:inline;overflow:visible;visibility:visible;opacity:1;isolation:auto;mix-blend-mode:normal;color-interpolation:sRGB;color-interpolation-filters:linearRGB;solid-color:#000000;solid-opacity:1;fill:#193857;fill-opacity:1;fill-rule:evenodd;stroke:#142330;stroke-width:1;stroke-linecap:butt;stroke-linejoin:miter;stroke-miterlimit:4;stroke-dasharray:none;stroke-dashoffset:0;stroke-opacity:1;marker:none;marker-start:none;marker-mid:none;marker-end:none;color-rendering:auto;image-rendering:auto;shape-rendering:auto;text-rendering:auto;enable-background:accumulate" />
  <path
     id="rect4151"
     d="M 93,3 51,3 3,3 l 0,42 48,0 0,96 42,0 0,-96 0,-42 z"
     style="color:#000000;clip-rule:nonzero;display:inline;overflow:visible;visibility:visible;opacity:1;isolation:auto;mix-blend-mode:normal;color-interpolation:sRGB;color-interpolation-filters:linearRGB;solid-color:#000000;solid-opacity:1;fill:#2c5387;fill-opacity:1;fill-rule:evenodd;stroke:none;stroke-width:1;stroke-linecap:butt;stroke-linejoin:miter;stroke-miterlimit:4;stroke-dasharray:none;stroke-dashoffset:0;stroke-opacity:1;marker:none;marker-start:none;marker-mid:none;marker-end:none;color-rendering:auto;image-rendering:auto;shape-rendering:auto;text-rendering:auto;enable-background:accumulate" />
  <path
     id="path4257"
     d="m 93,3 -1.402344,0 -42,42 L 51,45 51,60.597656 93,18.59961 93,3 Z m 0,24.2832 -42,42.000003 0,7.931641 42,-41.998044 0,-7.9336 z m 0,14 L 51,83.285156 51,93.78125 93,51.783203 93,45 93,41.2832 Z m 0,14.908206 -42,42 0,19.462894 42,-42.000003 0,-19.462891 z m 0,27.542969 -42,42.000005 0,7.93359 42,-42.000001 0,-7.933594 z M 93,105.76953 57.769531,141 63.9375,141 93,111.9375 93,105.76953 Z M 93,118.18164 70.181641,141 80.683594,141 93,128.68359 93,118.18164 Z M 93,133.08789 85.087891,141 93,141 93,133.08789 Z M 81.451172,3 73.517578,3 31.519531,45 39.453125,45 81.451172,3 Z M 65.867188,3 51,3 42.070312,3 3,42.07031 3,45 23.865234,45 65.867188,3 Z M 37.660156,3 31.492188,3 3,31.49219 3,37.66016 37.660156,3 Z M 26.402344,3 18.472656,3 3,18.47266 3,26.40234 26.402344,3 Z M 9.732422,3 3,3 3,9.73242 9.732422,3 Z"
     style="color:#000000;clip-rule:nonzero;display:inline;overflow:visible;visibility:visible;opacity:1;isolation:auto;mix-blend-mode:normal;color-interpolation:sRGB;color-interpolation-filters:linearRGB;solid-color:#000000;solid-opacity:1;fill:#668eb0;fill-opacity:0.15950922;fill-rule:evenodd;stroke:none;stroke-width:1;stroke-linecap:butt;stroke-linejoin:miter;stroke-miterlimit:4;stroke-dasharray:none;stroke-dashoffset:0;stroke-opacity:1;marker:none;marker-start:none;marker-mid:none;marker-end:none;color-rendering:auto;image-rendering:auto;shape-rendering:auto;text-rendering:auto;enable-background:accumulate" />
  <path
     id="path4275"
     d="M 93,5.40234 90.597656,3 73.595703,3 93,22.4043 93,5.40234 Z M 93,32.54883 63.451172,3 55.517578,3 93,40.48242 93,32.54883 Z M 93,48.136719 47.863281,3 24.068359,3 93,71.931641 93,48.136719 Z M 93,76.339844 19.660156,3 13.492188,3 93,82.507812 93,76.339844 Z m 0,11.259765 -42,-42 0,7.929688 42,42 0,-7.929688 z m 0,16.667971 -42,-42.000002 0,19.462891 42,42.000001 0,-19.46289 z m 0,23.87109 -42,-41.999998 0,10.501953 42,41.999995 0,-10.50195 z M 89.117187,141 51,102.88281 51,109.05273 82.947266,141 l 6.169921,0 z M 68.845703,141 51,123.1543 l 0,7.92968 9.916016,9.91602 7.929687,0 z M 52.833984,141 51,139.16602 51,141 l 1.833984,0 z M 50.400391,45 8.400391,3 3,3 3,5.5293 42.470703,45 50.400391,45 Z M 33.732422,45 3,14.26758 3,33.73047 14.269531,45 33.732422,45 Z M 9.861328,45 3,38.13867 3,45 9.861328,45 Z"
     style="color:#000000;clip-rule:nonzero;display:inline;overflow:visible;visibility:visible;opacity:1;isolation:auto;mix-blend-mode:normal;color-interpolation:sRGB;color-interpolation-filters:linearRGB;solid-color:#000000;solid-opacity:1;fill:#668eb0;fill-opacity:0.15950922;fill-rule:evenodd;stroke:none;stroke-width:1;stroke-linecap:butt;stroke-linejoin:miter;stroke-miterlimit:4;stroke-dasharray:none;stroke-dashoffset:0;stroke-opacity:1;marker:none;marker-start:none;marker-mid:none;marker-end:none;color-rendering:auto;image-rendering:auto;shape-rendering:auto;text-rendering:auto;enable-background:accumulate" />
</svg>
