<?xml version="1.0" encoding="UTF-8" standalone="no"?>
<svg
   xmlns:dc="http://purl.org/dc/elements/1.1/"
   xmlns:cc="http://creativecommons.org/ns#"
   xmlns:rdf="http://www.w3.org/1999/02/22-rdf-syntax-ns#"
   xmlns:svg="http://www.w3.org/2000/svg"
   xmlns="http://www.w3.org/2000/svg"
   viewBox="0 0 144 96"
   version="1.1"
   id="bubble"
   height="100%"
   width="100%">
  <metadata
     id="metadata19">
    <rdf:RDF>
      <cc:Work
         rdf:about="">
        <dc:format>image/svg+xml</dc:format>
        <dc:type
           rdf:resource="http://purl.org/dc/dcmitype/StillImage" />
        <dc:title></dc:title>
      </cc:Work>
    </rdf:RDF>
  </metadata>
  <defs
     id="defs17" />
  <path
     id="rect4147"
     d="m 0.5,95.5 0,-47 0,-48 47,0 0,48 96,0 0,47 -96,0 -47,0 z"
     style="color:#000000;clip-rule:nonzero;display:inline;overflow:visible;visibility:visible;opacity:1;isolation:auto;mix-blend-mode:normal;color-interpolation:sRGB;color-interpolation-filters:linearRGB;solid-color:#000000;solid-opacity:1;fill:#193857;fill-opacity:1;fill-rule:evenodd;stroke:#142330;stroke-width:1;stroke-linecap:butt;stroke-linejoin:miter;stroke-miterlimit:4;stroke-dasharray:none;stroke-dashoffset:0;stroke-opacity:1;marker:none;marker-start:none;marker-mid:none;marker-end:none;color-rendering:auto;image-rendering:auto;shape-rendering:auto;text-rendering:auto;enable-background:accumulate" />
  <path
     id="rect4151"
     d="M 3,93 3,51 3,3 l 42,0 0,48 96,0 0,42 -96,0 -42,0 z"
     style="color:#000000;clip-rule:nonzero;display:inline;overflow:visible;visibility:visible;opacity:1;isolation:auto;mix-blend-mode:normal;color-interpolation:sRGB;color-interpolation-filters:linearRGB;solid-color:#000000;solid-opacity:1;fill:#2c5387;fill-opacity:1;fill-rule:evenodd;stroke:none;stroke-width:1;stroke-linecap:butt;stroke-linejoin:miter;stroke-miterlimit:4;stroke-dasharray:none;stroke-dashoffset:0;stroke-opacity:1;marker:none;marker-start:none;marker-mid:none;marker-end:none;color-rendering:auto;image-rendering:auto;shape-rendering:auto;text-rendering:auto;enable-background:accumulate" />
  <path
     id="path4257"
     d="m 3,93 0,-1.402344 42,-42 L 45,51 60.597656,51 18.59961,93 3,93 Z m 24.2832,0 42.000003,-42 7.931641,0 -41.998044,42 -7.9336,0 z m 14,0 L 83.285156,51 93.78125,51 51.783203,93 45,93 41.2832,93 Z m 14.908206,0 42,-42 19.462894,0 -42.000003,42 -19.462891,0 z m 27.542969,0 42.000005,-42 7.93359,0 -42.000001,42 -7.933594,0 z M 105.76953,93 141,57.769531 141,63.9375 111.9375,93 105.76953,93 Z M 118.18164,93 141,70.181641 141,80.683594 128.68359,93 118.18164,93 Z M 133.08789,93 141,85.087891 141,93 133.08789,93 Z M 3,81.451172 3,73.517578 45,31.519531 45,39.453125 3,81.451172 Z M 3,65.867188 3,51 3,42.070312 42.07031,3 45,3 45,23.865234 3,65.867188 Z M 3,37.660156 3,31.492188 31.49219,3 37.66016,3 3,37.660156 Z M 3,26.402344 3,18.472656 18.47266,3 26.40234,3 3,26.402344 Z M 3,9.732422 3,3 9.73242,3 3,9.732422 Z"
     style="color:#000000;clip-rule:nonzero;display:inline;overflow:visible;visibility:visible;opacity:1;isolation:auto;mix-blend-mode:normal;color-interpolation:sRGB;color-interpolation-filters:linearRGB;solid-color:#000000;solid-opacity:1;fill:#668eb0;fill-opacity:0.15950922;fill-rule:evenodd;stroke:none;stroke-width:1;stroke-linecap:butt;stroke-linejoin:miter;stroke-miterlimit:4;stroke-dasharray:none;stroke-dashoffset:0;stroke-opacity:1;marker:none;marker-start:none;marker-mid:none;marker-end:none;color-rendering:auto;image-rendering:auto;shape-rendering:auto;text-rendering:auto;enable-background:accumulate" />
  <path
     id="path4275"
     d="M 5.40234,93 3,90.597656 3,73.595703 22.4043,93 5.40234,93 Z M 32.54883,93 3,63.451172 3,55.517578 40.48242,93 32.54883,93 Z M 48.136719,93 3,47.863281 3,24.068359 71.931641,93 48.136719,93 Z M 76.339844,93 3,19.660156 3,13.492188 82.507812,93 76.339844,93 Z m 11.259765,0 -42,-42 7.929688,0 42,42 -7.929688,0 z m 16.667971,0 -42.000002,-42 19.462891,0 42.000001,42 -19.46289,0 z m 23.87109,0 -41.999998,-42 10.501953,0 41.999995,42 -10.50195,0 z M 141,89.117187 102.88281,51 109.05273,51 141,82.947266 l 0,6.169921 z M 141,68.845703 123.1543,51 l 7.92968,0 9.91602,9.916016 0,7.929687 z M 141,52.833984 139.16602,51 141,51 l 0,1.833984 z M 45,50.400391 3,8.400391 3,3 5.5293,3 45,42.470703 45,50.400391 Z M 45,33.732422 14.26758,3 33.73047,3 45,14.269531 45,33.732422 Z M 45,9.861328 38.13867,3 45,3 45,9.861328 Z"
     style="color:#000000;clip-rule:nonzero;display:inline;overflow:visible;visibility:visible;opacity:1;isolation:auto;mix-blend-mode:normal;color-interpolation:sRGB;color-interpolation-filters:linearRGB;solid-color:#000000;solid-opacity:1;fill:#668eb0;fill-opacity:0.15950922;fill-rule:evenodd;stroke:none;stroke-width:1;stroke-linecap:butt;stroke-linejoin:miter;stroke-miterlimit:4;stroke-dasharray:none;stroke-dashoffset:0;stroke-opacity:1;marker:none;marker-start:none;marker-mid:none;marker-end:none;color-rendering:auto;image-rendering:auto;shape-rendering:auto;text-rendering:auto;enable-background:accumulate" />
</svg>
