<?xml version="1.0" encoding="UTF-8" standalone="no"?>
<svg
   xmlns:dc="http://purl.org/dc/elements/1.1/"
   xmlns:cc="http://creativecommons.org/ns#"
   xmlns:rdf="http://www.w3.org/1999/02/22-rdf-syntax-ns#"
   xmlns:svg="http://www.w3.org/2000/svg"
   xmlns="http://www.w3.org/2000/svg"
   viewBox="0 0 96 144"
   version="1.1"
   id="bubble"
   height="100%"
   width="100%">
  <metadata
     id="metadata19">
    <rdf:RDF>
      <cc:Work
         rdf:about="">
        <dc:format>image/svg+xml</dc:format>
        <dc:type
           rdf:resource="http://purl.org/dc/dcmitype/StillImage" />
        <dc:title></dc:title>
      </cc:Work>
    </rdf:RDF>
  </metadata>
  <defs
     id="defs17" />
  <path
     id="rect4147"
     d="m 0.5,0.5 47,0 48,0 0,47 -48,0 0,49 48,0 0,47 -48,0 -47,0 0,-47 0,-49 0,-47 z"
     style="color:#000000;clip-rule:nonzero;display:inline;overflow:visible;visibility:visible;opacity:1;isolation:auto;mix-blend-mode:normal;color-interpolation:sRGB;color-interpolation-filters:linearRGB;solid-color:#000000;solid-opacity:1;fill:#571919;fill-opacity:1;fill-rule:evenodd;stroke:#301414;stroke-width:1;stroke-linecap:butt;stroke-linejoin:miter;stroke-miterlimit:4;stroke-dasharray:none;stroke-dashoffset:0;stroke-opacity:1;marker:none;marker-start:none;marker-mid:none;marker-end:none;color-rendering:auto;image-rendering:auto;shape-rendering:auto;text-rendering:auto;enable-background:accumulate" />
  <path
     id="rect4151"
     d="m 3,3 42,0 48,0 0,42 -48,0 0,54 48,0 0,42 -48,0 L 3,141 3,99 3,45 3,3 Z"
     style="color:#000000;clip-rule:nonzero;display:inline;overflow:visible;visibility:visible;opacity:1;isolation:auto;mix-blend-mode:normal;color-interpolation:sRGB;color-interpolation-filters:linearRGB;solid-color:#000000;solid-opacity:1;fill:#872c2c;fill-opacity:1;fill-rule:evenodd;stroke:none;stroke-width:1;stroke-linecap:butt;stroke-linejoin:miter;stroke-miterlimit:4;stroke-dasharray:none;stroke-dashoffset:0;stroke-opacity:1;marker:none;marker-start:none;marker-mid:none;marker-end:none;color-rendering:auto;image-rendering:auto;shape-rendering:auto;text-rendering:auto;enable-background:accumulate" />
  <path
     id="path4331"
     d="M 3,3 12.810547,3 54.8125,45 45,45 45,52.1875 3,10.189453 3,3 Z m 0,15.873047 42,42 0,7.933594 -42,-42 0,-7.933594 z m 0,14 42,42.001953 0,10.498047 -42,-42 0,-10.5 z m 0,14.908203 42,42 L 45,99 54.21875,99 93,137.78125 93,141 76.755859,141 3,67.242188 3,47.78125 Z M 3,75.326172 68.673828,141 60.742188,141 3,83.259766 3,75.326172 Z M 3,97.359375 46.640625,141 45,141 40.472656,141 3,103.52734 3,99 3,97.359375 Z M 3,109.77344 34.226562,141 l -10.5,0 L 3,120.27344 l 0,-10.5 z M 3,124.67969 19.320312,141 3,141 3,124.67969 Z M 22.958984,3 30.888672,3 72.890625,45 64.957031,45 22.958984,3 Z M 38.542969,3 45,3 62.339844,3 93,33.660156 93,45 80.544922,45 38.542969,3 Z M 58.626953,99 69.125,99 93,122.875 93,133.37305 58.626953,99 Z M 66.748047,3 72.916016,3 93,23.083984 93,29.251953 66.748047,3 Z m 8.445312,96 7.933594,0 L 93,108.87305 93,116.80664 75.193359,99 Z M 78.005859,3 85.935547,3 93,10.0625 93,17.992188 78.005859,3 Z M 91.8125,99 93,99 93,100.1875 91.8125,99 Z"
     style="color:#000000;clip-rule:nonzero;display:inline;overflow:visible;visibility:visible;opacity:1;isolation:auto;mix-blend-mode:normal;color-interpolation:sRGB;color-interpolation-filters:linearRGB;solid-color:#000000;solid-opacity:1;fill:#b06666;fill-opacity:0.15950922;fill-rule:evenodd;stroke:none;stroke-width:1;stroke-linecap:butt;stroke-linejoin:miter;stroke-miterlimit:4;stroke-dasharray:none;stroke-dashoffset:0;stroke-opacity:1;marker:none;marker-start:none;marker-mid:none;marker-end:none;color-rendering:auto;image-rendering:auto;shape-rendering:auto;text-rendering:auto;enable-background:accumulate" />
  <path
     id="path4347"
     d="M 3,3 5.316406,3 3,5.3164062 3,3 Z M 3,13.398438 13.398438,3 32.859375,3 3,32.859375 3,13.398438 Z M 3,37.267578 37.267578,3 45,3 47.765625,3 3,47.765625 3,45 3,37.267578 Z M 3,53.835938 53.835938,3 61.767578,3 3,61.767578 3,53.835938 Z M 3,70.453125 70.453125,3 l 17,0 -42,42 L 45,45 l 0,0.453125 -42,42 0,-17 z M 3,97.599609 45,55.597656 45,63.53125 3,105.5332 3,99 3,97.599609 Z M 3,113.18359 45,71.185547 45,94.980469 3,136.98047 3,113.18359 Z M 3.388672,141 45.390625,99 l 6.167969,0 -42.001953,42 -6.167969,0 z m 11.257812,0 42.001954,-42 7.929687,0 -42,42 -7.931641,0 z M 31.316406,141 73.318359,99 92.779297,99 50.78125,141 45,141 31.316406,141 Z M 55.1875,141 93,103.1875 93,113.68945 65.689453,141 55.1875,141 Z M 55.597656,45 93,7.5976562 93,15.53125 63.53125,45 55.597656,45 Z M 71.185547,45 93,23.185547 93,45 71.185547,45 Z M 71.931641,141 93,119.93164 93,126.10156 78.101562,141 71.931641,141 Z M 92.203125,141 93,140.20312 93,141 l -0.796875,0 z"
     style="color:#000000;clip-rule:nonzero;display:inline;overflow:visible;visibility:visible;opacity:1;isolation:auto;mix-blend-mode:normal;color-interpolation:sRGB;color-interpolation-filters:linearRGB;solid-color:#000000;solid-opacity:1;fill:#b06666;fill-opacity:0.15950922;fill-rule:evenodd;stroke:none;stroke-width:1;stroke-linecap:butt;stroke-linejoin:miter;stroke-miterlimit:4;stroke-dasharray:none;stroke-dashoffset:0;stroke-opacity:1;marker:none;marker-start:none;marker-mid:none;marker-end:none;color-rendering:auto;image-rendering:auto;shape-rendering:auto;text-rendering:auto;enable-background:accumulate" />
</svg>
