<?xml version="1.0" encoding="UTF-8" standalone="no"?>
<svg
   xmlns:dc="http://purl.org/dc/elements/1.1/"
   xmlns:cc="http://creativecommons.org/ns#"
   xmlns:rdf="http://www.w3.org/1999/02/22-rdf-syntax-ns#"
   xmlns:svg="http://www.w3.org/2000/svg"
   xmlns="http://www.w3.org/2000/svg"
   style="overflow:visible"
   xml:space="preserve"
   id="Layer_1"
   viewBox="0 0 16 16"
   height="100%"
   width="100%"
   version="1.1"><metadata
     id="metadata8"><rdf:RDF><cc:Work
         rdf:about=""><dc:format>image/svg+xml</dc:format><dc:type
           rdf:resource="http://purl.org/dc/dcmitype/StillImage" /><dc:title></dc:title></cc:Work></rdf:RDF></metadata><defs
     id="defs279" /><rect
     style="color:#000000;clip-rule:nonzero;display:inline;overflow:visible;visibility:visible;opacity:1;isolation:auto;mix-blend-mode:normal;color-interpolation:sRGB;color-interpolation-filters:linearRGB;solid-color:#000000;solid-opacity:1;fill:#a9c6cb;fill-opacity:1;fill-rule:evenodd;stroke:none;stroke-width:2;stroke-linecap:butt;stroke-linejoin:miter;stroke-miterlimit:4;stroke-dasharray:none;stroke-dashoffset:0;stroke-opacity:1;marker:none;marker-start:none;marker-mid:none;marker-end:none;color-rendering:auto;image-rendering:auto;shape-rendering:auto;text-rendering:auto;enable-background:accumulate"
     id="rect4161"
     width="16"
     height="16"
     x="0"
     y="0"
     rx="0"
     ry="0" /><path
     id="path4200"
     d="m 10.566406,0 c -0.0086,0.04353 -0.0138,0.09299 -0.02344,0.134766 C 10.237881,1.4568 9.017575,1.865234 9.017575,1.865234 l 2.033203,1.525391 1.423828,-1.119141 c 0,0 -0.416082,-1.204339 -0.609375,-2.271484 l -1.298828,0 z m 2.326172,0 -0.113281,2.271484 -0.101563,1.220704 c 0,0 2.033204,-0.102854 2.033204,-0.611329 0,-0.508475 -0.507679,-1.626291 -0.609376,-2.134765 C 14.081162,0.644074 14.072902,0.326977 14.066402,0 l -1.173828,0 z"
     style="fill:#82a2a8;fill-opacity:1;fill-rule:evenodd;stroke:none;stroke-width:1px;stroke-linecap:butt;stroke-linejoin:miter;stroke-opacity:1" /><path
     id="path4242"
     d="M 1.136719,0 C 1.073039,0.09174 1.043059,0.19872 1.111329,0.3125 1.274885,0.585093 1.712245,0.32354 1.75586,0.105469 1.76386,0.063709 1.75936,0.032659 1.75786,0 L 1.136767,0 Z m 1.28125,0 c 0.03949,0.248067 0.213812,0.357216 0.27539,0.585938 -0.08723,0.02181 -0.132504,0.09912 -0.285156,0.06641 C 2.244646,0.576018 2.561822,0.3247 2.343753,0.226566 1.733144,0.662716 2.387903,1.010893 2.769534,0.869145 2.867664,0.836435 2.769549,0.618808 2.900394,0.50977 3.216603,0.258984 3.020041,0.81506 3.183597,0.37891 3.158667,0.37891 3.036145,0.158552 3.054691,4e-6 l -0.636719,0 z M 3.548828,0 C 3.824643,0.276922 4.272441,0.386029 4.644531,0.226562 A 0.27259358,0.27259358 0 0 0 5.064453,0 L 4.232422,0 c -0.01789,2.4e-5 -0.03485,0.0012 -0.05273,0 l -0.63086,0 z m 6.855469,0 C 10.330267,0.278905 10.244471,0.553012 10.128906,0.814453 9.87812,0.781743 9.464367,0.891893 9.5625,0.542969 9.082736,0.706525 8.831481,0.75 8.275391,0.75 8.199061,0.84813 8.198091,0.924319 8.339841,0.957031 7.969114,1.120587 7.664016,0.792488 7.271481,0.890621 7.086118,0.934241 7.022113,1.173824 6.847653,1.173824 6.869463,1.173974 6.792143,0.966793 6.781243,0.966793 6.683113,0.923173 6.476387,1.055013 6.421868,1.033203 6.378258,1.011393 6.377428,0.858883 6.27929,0.826172 5.81043,0.662616 5.931113,1.054856 5.636712,1.109375 5.494963,1.131185 5.582492,1.010415 5.353509,0.966797 5.200857,0.944987 4.928696,1.109375 4.863274,1.109375 4.634295,1.098475 4.590299,0.912279 4.361321,0.966797 4.252283,0.988607 4.141882,1.502739 3.792962,1.251953 4.054652,0.652247 3.13948,1.207133 3.150384,0.607422 3.019539,1.076283 2.736249,1.795862 2.082024,1.46875 1.983894,1.42513 2.038544,1.000478 1.874993,0.902344 1.536977,0.706076 1.252718,1.042969 0.871087,1.042969 1.350852,1.195621 1.045996,1.806472 0.511712,1.751953 0.511712,1.533878 0.435842,1.348457 0.283196,1.228516 0.198318,1.164852 0.103024,1.121695 0,1.087891 l 0,0.365234 c 0.02435,0.01311 0.05809,0.02129 0.07617,0.03711 0.06542,0.04362 0.09766,0.09799 0.09766,0.207032 C 0.12392,1.719957 0.057974,1.730427 2e-6,1.748047 l 0,3.210937 C 0.215986,4.935654 0.386341,4.962584 0.42383,5.1875 0.587386,5.12208 0.39195,4.675613 0.566408,4.621094 0.795387,4.664714 0.56585,5.1875 0.849611,5.1875 1.002264,4.511468 1.547919,4.368663 2.136721,4.466797 l 0.05469,-0.02148 c 0.07633,0.196269 0.07536,0.317714 0.06445,0.361329 -0.0109,0.03271 -0.0096,0.04183 -0.08594,0.05273 C 2.028173,4.881186 1.688932,4.828456 1.39453,4.806646 a 0.16979758,0.16979758 0 0 0 -0.03125,0.33789 c 0.26169,0.02181 0.599316,0.108386 0.882813,0.04297 0.141749,-0.02181 0.294275,-0.131366 0.33789,-0.294922 0.02181,-0.09813 0.02181,-0.206231 0,-0.326172 0.196267,0.07633 0.414415,0.249368 0.654297,0.423828 0.163556,0.119941 0.347517,0.229499 0.554688,0.294922 0.185364,0.04362 0.393253,0.05566 0.611328,-0.0098 l 0,0.05469 C 4.655082,5.635356 5.888334,5.623932 5.779296,5.03513 5.953756,4.926092 6.106128,4.773229 6.193358,4.587865 6.247878,4.45702 6.279128,4.304971 6.224608,4.152318 6.191898,4.065088 6.128248,3.987271 6.041015,3.921849 l 0.07617,0 0,-0.130859 C 6.956774,3.73647 8.395262,3.966417 9.136716,3.72654 9.365695,3.65021 9.637699,3.289425 9.703122,3.79099 9.321491,3.84551 8.897436,3.87891 8.701169,4.140599 c 0.621513,0.0109 0.99143,-0.42526 1.503906,-0.130859 l 0,-0.02148 c 0.07633,0.05452 0.164231,0.08725 0.21875,0.13086 0.04361,0.02181 0.05436,0.04345 0.07617,0.07617 -0.17446,-0.03271 -0.381534,-0.06542 -0.599609,0 a 0.1346513,0.1346513 0 0 0 0.09766,0.25 c 0.152652,-0.05452 0.360051,-0.01123 0.578125,0.02148 l 0.05469,0 0.04297,-0.03125 c 0.02181,-0.0109 0.06495,-0.03305 0.09766,-0.109375 l 0,-0.02148 0,-0.02148 c 0,-0.196267 -0.10776,-0.327971 -0.216796,-0.404297 -0.05452,-0.03271 -0.108729,-0.05518 -0.152344,-0.08789 0.414343,-0.43615 0.719285,0.206877 1.144531,0.283203 -0.02181,0 0.98082,9.67e-4 1.220703,-0.06445 0.185363,-0.04362 0.229513,-0.294107 0.425781,-0.283204 0.610609,0.0109 1.450445,0.763643 2.22461,0.501954 0.06542,-0.02181 0.250352,-0.48113 0.490234,-0.56836 0.03755,-0.01252 0.05926,-0.03225 0.0918,-0.04883 l 0,-2.667969 c -0.355087,-0.05291 -0.786404,0.04836 -1.019531,-0.214843 -0.0109,0.26169 0.261985,0.882306 -0.283203,0.71875 0,-0.207171 0.371557,-0.196803 0.142578,-0.425782 -0.26169,-0.02181 -0.251322,0.217782 -0.425782,0.283204 l 0,0.164062 C 14.250517,1.31608 14.152185,1.153281 14.097666,0.957014 c -0.05452,-0.218075 -0.05501,-0.469593 -0.0332,-0.742187 0.0047,-0.06806 0.01439,-0.144331 0.02148,-0.214844 l -0.173829,0 c -0.0028,0.03565 -0.0075,0.06979 -0.0098,0.105469 -0.02181,0.283497 -0.01073,0.578968 0.05469,0.851562 0.05452,0.218074 0.172874,0.43573 0.369141,0.621094 l -0.119141,0 c 0.52338,0.621513 0.108656,1.331245 -0.501953,1.582031 -0.305305,-0.479765 0.687766,-1.079784 0.142578,-1.363281 -0.163556,-0.08723 -0.393745,0.129722 -0.644531,0.140625 -0.02181,0.185364 0.394193,-0.06556 0.285156,0.207031 -0.338016,0.185363 -0.764472,-0.06483 -0.644531,-0.566406 l -0.04297,0 C 12.964312,1.229188 12.920539,0.847765 12.876926,0.509749 12.857095,0.331034 12.851677,0.162657 12.859375,0 l -0.257813,0 c -0.0078,0.184986 0.01255,0.371874 0.03516,0.552734 0.03271,0.338016 0.06525,0.655142 -0.05469,0.927735 l -0.02148,-0.0332 C 12.495132,1.381849 12.35383,1.371909 12.201177,1.382819 12.047445,0.958041 11.986064,0.484321 11.957031,0 l -0.265625,0 c 0.04002,0.526928 0.117914,1.045077 0.3125,1.513672 l -0.109375,-0.01172 c -0.0109,0.730551 -0.816743,1.144599 -0.925781,0.283203 0.218075,-0.0109 0.522637,0.04459 0.642578,-0.06445 -0.228979,-0.403439 -0.86088,-0.699204 -1.220703,-0.568359 l 0,-0.06445 -0.08789,0.0098 C 10.469842,0.746967 10.592372,0.377779 10.685547,0 l -0.28125,0 z M 0.554688,0.0293 C 0.385031,0.0293 0.185969,0.06044 0,0.10157 L 0,0.66993 C 0.458578,0.76601 1.071049,0.551707 0.970703,0.236336 0.927093,0.094587 0.761859,0.040209 0.554688,0.029305 Z m 2.933593,3.773437 c 0.741455,0 1.635736,0.217487 1.570313,0.566407 -0.468861,-0.152652 -0.54498,-1.5e-5 -1.06836,-0.13086 -0.02181,0.359824 0.283049,0.371939 0.359375,0.644531 l 0.04492,0.03125 C 4.241876,4.957685 4.098778,4.958505 3.957029,4.925785 3.804377,4.882165 3.640932,4.795726 3.488279,4.675785 3.204782,4.479518 2.910926,4.195963 2.529295,4.152348 l 0.0332,-0.04492 C 2.649725,3.911161 3.041223,3.824225 3.488276,3.824225 l 0,-0.02148 z m 1.941407,0.13086 c 0.261689,0.152652 0.07687,0.621373 0.425781,0.207031 l 0.0098,-0.164063 c 0.109038,0.05452 0.164878,0.109544 0.175782,0.164063 0.0109,0.05452 0.0093,0.108082 -0.02344,0.195313 -0.07633,0.163555 -0.30487,0.349455 -0.490234,0.425781 L 5.494177,4.652347 C 5.058027,4.532405 5.516957,4.315228 5.429727,3.933597 Z m 7.839843,0.06445 c -0.141749,0.04362 0.01089,0.403973 -0.130859,0.425781 -0.196267,-0.03271 -0.09867,-0.370433 -0.425781,-0.283203 0.141749,0.490668 0.687765,0.806361 0.142578,1.220703 0.07633,0.0109 0.107914,0.07716 0.140625,0.142578 0.534284,-0.425246 0.786058,-0.731466 1.582031,-0.927734 0.0109,-0.17446 -0.109867,-0.217626 -0.142578,-0.359375 -0.338017,0.272593 -0.80636,0.13138 -1.220703,0.425781 0.08723,-0.130845 0.369761,-0.546397 0.06445,-0.644531 l -0.0098,0 z M 8.417969,4.052737 C 8.101761,4.041837 7.707523,4.217644 7.740234,4.490237 8.132769,4.544757 8.187375,4.283206 8.525391,4.283206 8.503581,4.370436 8.428231,4.413756 8.460941,4.566409 8.657208,4.620929 8.645855,4.467289 8.820315,4.499999 8.885735,4.205598 8.678523,4.075356 8.427737,4.064452 l -0.0098,-0.01172 z m 3.128906,0.294922 c 0.174459,0.392535 -0.109332,1.014656 0.283203,1.080078 0.425246,0.06542 0.414636,-1.167308 -0.283203,-1.080078 z M 6.933594,4.5 6.912114,4.52148 c -0.05452,0 -0.109221,4.93e-4 -0.185547,0.0332 C 6.911931,4.46745 6.47706,5.165179 6.509771,5.02343 6.444351,5.28512 6.650521,5.514001 6.312505,5.623039 6.650521,5.612139 6.901394,5.831196 7.097661,5.689449 7.413865,5.460475 7.315225,4.554519 6.933594,4.5 Z m 7.720703,0.425781 c -0.283497,-0.0109 -0.611651,0.120476 -0.589844,0.425781 0.305305,0.152654 0.915847,0.07482 0.861328,-0.361328 -0.07633,-0.03271 -0.163584,-0.05355 -0.261719,-0.06445 l -0.0098,0 z m -5.626953,0.06445 a 0.16355615,0.16355615 0 0 0 -0.13086,0.121094 c -0.04362,0.152652 -0.03189,0.294122 0.01172,0.414063 0.05452,0.109037 0.163262,0.195803 0.283203,0.228515 0.228979,0.05452 0.501968,-0.05358 0.632813,-0.326172 A 0.16355615,0.16355615 0 1 0 9.529298,5.296872 c -0.06542,0.141749 -0.185393,0.162433 -0.261719,0.140625 -0.03271,0 -0.05355,-0.02198 -0.06445,-0.05469 -0.0109,-0.02181 -0.02181,-0.0757 0,-0.173828 a 0.16355615,0.16355615 0 0 0 -0.154297,-0.207031 0.16355615,0.16355615 0 0 0 -0.0098,0 L 9.027312,4.990228 Z M 3.009766,5.406247 c -0.218074,0.0109 -0.392901,0.108589 -0.371094,0.359375 0.457957,0 0.93736,0.217245 1.144531,-0.142578 C 3.663262,5.514006 3.303029,5.394205 3.019531,5.416013 l -0.0098,-0.0098 z"
     style="fill:#213437;fill-opacity:1" /></svg>