<?xml version="1.0" encoding="UTF-8" standalone="no"?>
<svg
   xmlns:dc="http://purl.org/dc/elements/1.1/"
   xmlns:cc="http://creativecommons.org/ns#"
   xmlns:rdf="http://www.w3.org/1999/02/22-rdf-syntax-ns#"
   xmlns:svg="http://www.w3.org/2000/svg"
   xmlns="http://www.w3.org/2000/svg"
   style="overflow:visible"
   xml:space="preserve"
   id="Layer_1"
   viewBox="0 0 16 16"
   height="100%"
   width="100%"
   version="1.1"><metadata
     id="metadata8"><rdf:RDF><cc:Work
         rdf:about=""><dc:format>image/svg+xml</dc:format><dc:type
           rdf:resource="http://purl.org/dc/dcmitype/StillImage" /><dc:title></dc:title></cc:Work></rdf:RDF></metadata><defs
     id="defs279" /><rect
     style="color:#000000;clip-rule:nonzero;display:inline;overflow:visible;visibility:visible;opacity:1;isolation:auto;mix-blend-mode:normal;color-interpolation:sRGB;color-interpolation-filters:linearRGB;solid-color:#000000;solid-opacity:1;fill:#a9c6cb;fill-opacity:1;fill-rule:evenodd;stroke:none;stroke-width:2;stroke-linecap:butt;stroke-linejoin:miter;stroke-miterlimit:4;stroke-dasharray:none;stroke-dashoffset:0;stroke-opacity:1;marker:none;marker-start:none;marker-mid:none;marker-end:none;color-rendering:auto;image-rendering:auto;shape-rendering:auto;text-rendering:auto;enable-background:accumulate"
     id="rect4157"
     width="16"
     height="16"
     x="0"
     y="0"
     rx="0"
     ry="0" /><path
     id="path4320"
     d="M 0,11.417969 0,16 l 16,0 0,-3.822266 -2.101562,0.126954 -1.830079,-0.101563 -5.59375,-0.101563 c 0,0 -4.678098,-0.50768 -5.898437,-0.609374 C 0.462799,11.48274 0.15445,11.435313 0,11.417969 Z"
     style="fill:#82a2a8;fill-opacity:1;fill-rule:evenodd;stroke:none;stroke-width:1px;stroke-linecap:butt;stroke-linejoin:miter;stroke-opacity:1" /><path
     id="path4236"
     d="m 0,11.292969 0,0.429687 c 1.344478,0.122678 2.904507,0.119819 4.132812,0.408203 0.06542,0.457957 0.64161,0.14213 0.707032,0.501953 0.05452,0.34892 -0.643407,0.381887 -0.785156,0.839844 -0.850492,-0.130845 -1.721113,-0.05584 -2.484376,-0.175781 a 0.16355615,0.16355615 0 0 0 -0.04492,0 0.1640625,0.1640625 0 1 0 0,0.328125 c 0.850492,0.130845 1.744719,0.03289 2.5625,0.185547 l -0.0332,0.03125 c 0.338015,0.07633 0.490755,0.577985 0.785156,0.785156 0.283498,0.196267 0.806809,0.109418 0.861328,0.501953 0.0109,0.130845 -0.293953,0.251321 -0.359375,0.425782 C 5.299841,15.675314 5.287681,15.833414 5.296881,16 l 4.070313,0 C 9.164398,15.621257 8.523771,15.357001 8.494147,15.041016 8.461437,14.703 9.017078,14.310966 8.853522,13.689453 8.831712,13.569512 8.177403,12.763826 8.068365,12.6875 7.773964,12.480329 7.293592,12.511367 6.988287,12.271484 c 0.207171,-0.02181 0.425319,-0.04297 0.654297,-0.04297 l -0.0332,0.0332 c 1.014048,-0.02181 2.126253,0.08692 3.162109,0.152343 0,0.04361 0.01189,0.08676 0.06641,0.09766 -0.545187,-0.0109 -0.250338,0.43736 -0.359375,0.644531 -0.109038,0.218075 -0.459463,0.163122 -0.361328,0.490234 0.03271,0.109038 0.241387,0.162432 0.361328,0.140625 -0.185364,0.545187 0.282306,1.462847 1.001953,1.070313 -0.109037,0.09813 -0.05355,0.359235 -0.06445,0.566406 0.218074,0.04362 0.251321,-0.06641 0.425781,-0.06641 -0.414343,0.327112 0.336444,0.339535 0.5,0.492187 0.03788,0.03788 0.05864,0.09146 0.07422,0.150391 l 0.472656,0 c -0.0098,-0.125923 -0.01461,-0.271465 0.09766,-0.435547 0.196267,-0.294401 1.383811,-0.489632 1.580078,-0.925781 0.196268,-0.457957 -0.15134,-1.133333 0.04492,-1.427734 -0.305304,0.207171 -0.884583,-0.02316 -0.699219,-0.4375 0.468861,0.534283 0.731381,2.94e-4 0.142579,-0.283204 0.55609,-0.185363 1.188387,-0.152836 1.853515,-0.185546 -0.07849,0.282546 -0.0023,0.405772 0.0918,0.511718 l 0,-0.958984 c -0.671675,0.0415 -1.418084,-0.01929 -2.142578,0.240234 l 0,-0.0332 c -0.861396,-0.109037 -2.016696,-0.08724 -2.867188,-0.130859 l 0.0332,0.109375 c -1.079472,-0.04361 -2.278936,-0.196775 -3.423829,-0.164063 -0.359823,0.0109 -0.730019,0.0451 -1.089843,0.09961 l 0.0098,-0.13086 C 5.876262,11.738616 5.090961,11.760243 4.425833,11.662106 l 0,0.08594 C 3.072899,11.401709 1.389801,11.431135 0,11.292969 Z m 12.800781,1.425781 0,0.02148 c 0.152652,2.9e-5 0.282233,0.07816 0.347657,0.339844 -0.06542,-3e-4 -0.07521,0.05355 -0.140626,0.06445 l 0,0.06641 c -0.218074,-0.04362 -0.425965,-0.03434 -0.611328,-0.02344 -0.119942,0 -0.228038,0.01172 -0.326172,0.01172 -0.05452,-0.338016 -0.435716,0.02112 -0.490234,-0.34961 0.338016,0.26169 0.871783,-0.130859 1.220703,-0.130859 z m 1.917969,0.447266 c -0.03271,0.0109 -0.06413,0.04346 -0.08594,0.07617 0.03271,-0.02181 0.05323,-0.04346 0.08594,-0.07617 z m 1.001953,0.0059 c -0.139023,-0.01636 -0.238281,0.03877 -0.238281,0.322266 -0.141749,-8.99e-4 -0.08694,-0.197098 -0.283203,-0.142579 0.03271,0.447054 -0.305739,1.984347 0.490234,1.722657 0.207171,0.370728 -0.588213,0.393745 -0.566406,0.644531 0.0055,0.08873 0.203288,0.190132 0.410156,0.28125 L 16,16 16,13.238281 c -0.09989,-0.02664 -0.196357,-0.05665 -0.279297,-0.06641 z m -3.923828,0.462891 c 0.228978,0.04362 0.448264,0.03353 0.644531,0.01172 0.119942,0 0.23862,-0.0109 0.347656,0 0.272595,0.545187 -0.588889,0.413445 -0.785156,0.71875 0,-0.207171 -0.272454,-0.151234 -0.207031,-0.423828 -0.130845,0.02181 -0.174011,0.141764 -0.359375,0.13086 -0.109037,-0.130845 0.05407,-0.415032 0.359375,-0.34961 l 0,-0.08789 z m -8.755859,0.480468 -0.02148,0.0098 c -0.03271,0 -0.08611,0.01139 -0.140625,0.0332 -0.152653,0.04362 -0.459476,0.3939 -0.492187,0.568359 -0.08647,0.497171 0.3199,0.79046 0.486328,1.273438 l 2.232422,0 c 0.05778,-0.685724 -0.417176,-1.542327 -0.929688,-1.699219 -0.218075,-0.06542 -0.44631,0.163571 -0.642578,0.13086 -0.26169,-0.04361 -0.197786,-0.338214 -0.492187,-0.316407 z m 11.099609,1.744141 C 14.030523,15.870966 13.915416,15.92673 13.835938,16 l 0.519531,0 c 0.0082,-0.04883 0.0204,-0.07979 0.03711,-0.07422 -0.05452,-0.05452 -0.130381,-0.06641 -0.228516,-0.06641 l -0.02344,0 z"
     style="fill:#213437;fill-opacity:1" /></svg>