<?xml version="1.0" encoding="UTF-8" standalone="no"?>
<svg xmlns:svg="http://www.w3.org/2000/svg" xmlns="http://www.w3.org/2000/svg" version="1.0" width="100%" height="100%" viewBox="0 0 640 480" id="tangram">
<defs>
    <style type="text/css">
        svg#tangram .a              { display:none; }
        svg#tangram .a>g            { cursor:move; }
        svg#tangram #bgs path       { fill:#280b0b; }
        .finished svg#tangram #bgs .aa  { stroke:red;stroke-width:20px;stroke-linejoin:round; }
        svg#tangram #bgs>g         { display:none; }
        svg#tangram #bgs .bb       { fill:none;stroke:white; stroke-width:20px;stroke-linejoin:round;}
        svg#tangram.p01 #p01       { display:inline; } 
        svg#tangram.p02 #p02       { display:inline; }
        svg#tangram.p03 #p03       { display:inline; }
        svg#tangram.p04 #p04       { display:inline; }
        svg#tangram.p05 #p05       { display:inline; }
        svg#tangram.p06 #p06       { display:inline; }
        svg#tangram.p07 #p07       { display:inline; }
        svg#tangram.p08 #p08       { display:inline; }
        svg#tangram.p09 #p09       { display:inline; }
        svg#tangram.p10 #p10       { display:inline; }
        svg#tangram.p11 #p11       { display:inline; }
        svg#tangram.p12 #p12       { display:inline; }
        svg#tangram.p13 #p13       { display:inline; }
        svg#tangram.p14 #p14       { display:inline; }
        svg#tangram.p15 #p15       { display:inline; }
        svg#tangram.p16 #p16       { display:inline; }
        svg#tangram.p17 #p17       { display:inline; }
        svg#tangram.p18 #p18       { display:inline; }
        svg#tangram.p19 #p19       { display:inline; }
        svg#tangram.p20 #p20       { display:inline; }
        svg#tangram.p21 #p21       { display:inline; }
        svg#tangram.p01 #bg01      { display:inline; }
        svg#tangram.p02 #bg02      { display:inline; }
        svg#tangram.p03 #bg03      { display:inline; }
        svg#tangram.p04 #bg04      { display:inline; }
        svg#tangram.p05 #bg05      { display:inline; }
        svg#tangram.p06 #bg06      { display:inline; }
        svg#tangram.p07 #bg07      { display:inline; }
        svg#tangram.p08 #bg08      { display:inline; }
        svg#tangram.p09 #bg09      { display:inline; }
        svg#tangram.p10 #bg10      { display:inline; }
        svg#tangram.p11 #bg11      { display:inline; }
        svg#tangram.p12 #bg12      { display:inline; }
        svg#tangram.p13 #bg13      { display:inline; }
        svg#tangram.p14 #bg14      { display:inline; }
        svg#tangram.p15 #bg15      { display:inline; }
        svg#tangram.p16 #bg16      { display:inline; }
        svg#tangram.p17 #bg17      { display:inline; }
        svg#tangram.p18 #bg18      { display:inline; }
        svg#tangram.p19 #bg19      { display:inline; }
        svg#tangram.p20 #bg20      { display:inline; }
        svg#tangram.p21 #bg21      { display:inline; }
        
        svg#tangram .bg01          { fill:#c87137;stroke:#280b0b; stroke-width:2; }
        svg#tangram .bg02          { fill:#784421;stroke:#280b0b; stroke-width:2; }
        svg#tangram .bg03          { fill:#e9c6af;stroke:#280b0b; stroke-width:2; }
        svg#tangram .bg04          { fill:#502d16;stroke:#280b0b; stroke-width:2; }
        svg#tangram .bg05          { fill:#d38d5f;stroke:#280b0b; stroke-width:2; }
        svg#tangram .bg06          { fill:#deaa87;stroke:#280b0b; stroke-width:2; }
        svg#tangram .wrong .bg01   { fill:red;stroke:red; }
        svg#tangram .wrong .bg02   { fill:red;stroke:red; }
        svg#tangram .wrong .bg03   { fill:red;stroke:red; }
        svg#tangram .wrong .bg04   { fill:red;stroke:red; }
        svg#tangram .wrong .bg05   { fill:red;stroke:red; }
        svg#tangram .wrong .bg06   { fill:red;stroke:red; }
        svg#tangram .good .bg01    { fill:gray; }
        svg#tangram .good .bg02    { fill:gray; }
        svg#tangram .good .bg03    { fill:gray; }
        svg#tangram .good .bg04    { fill:gray; }
        svg#tangram .good .bg05    { fill:gray; }
        svg#tangram .good .bg06    { fill:gray; }
		
		svg#tangram .shadow			{ fill-opacity:0.5; display:none; }
		svg#tangram .drag .shadow	{ display:inline; }
    </style>
</defs>


<g id="bg">
    <rect width="220" height="480" x="400" y="0" style="fill:#eeffee;fill-opacity:0.6"/>
    
    <g id="bgs">
        <g id="bg01">
            <path d="m 165.13672,121.38867 -76.240236,76.24024 -76.169922,-76.16993 0,76.36719 34.892579,0 0,76.35352 76.181639,0 0,139.56054 31.6211,-31.62109 152.66601,0 31.50391,31.50391 0.0137,-76.52344 76.36914,76.36719 0,-76.36719 -76.36914,-76.36719 -0.0137,0.15625 -152.64258,0 -62.96875,-62.96875 0,-0.0996 -0.0996,0 -0.0644,-0.0644 41.32031,0 z m -76.113282,76.36719 0.06445,0.0644 z m 34.777342,0 0,0.0644 z" class="bb"/>
            <path d="m 165.13672,121.38867 -76.240236,76.24024 -76.169922,-76.16993 0,76.36719 34.892579,0 0,76.35352 76.181639,0 0,139.56054 31.6211,-31.62109 152.66601,0 31.50391,31.50391 0.0137,-76.52344 76.36914,76.36719 0,-76.36719 -76.36914,-76.36719 -0.0137,0.15625 -152.64258,0 -62.96875,-62.96875 0,-0.0996 -0.0996,0 -0.0644,-0.0644 41.32031,0 z m -76.113282,76.36719 0.06445,0.0644 z m 34.777342,0 0,0.0644 z" class="aa"/>
        </g>
        
        <g id="bg02">
            <path d="M 72 16 L 72 124 L 126 178 L 80 224 L 80 300.375 L 156.375 376.71875 L 156.375 394 L 111.625 438.75 L 264.34375 438.75 L 264.34375 286.03125 L 264.34375 286 L 156.375 178 L 156.375 147.625 L 180 124 L 180 16 L 126 70 L 72 16 z" class="bb"/>
            <path d="M 72 16 L 72 124 L 126 178 L 80 224 L 80 300.375 L 156.375 376.71875 L 156.375 394 L 111.625 438.75 L 264.34375 438.75 L 264.34375 286.03125 L 264.34375 286 L 156.375 178 L 156.375 147.625 L 180 124 L 180 16 L 126 70 L 72 16 z" class="aa"/>
        </g>
        
        <g id="bg03">
            <path d="M 278.25 38.53 L 278.21 38.59 L 224.28 92.53 L 224.28 200.53 L 255.90 232.15 L 39.90 232.15 L 147.90 340.15 L 103.18 384.90 L 255.90 384.90 L 255.90 384.87 L 332.25 308.53 L 332.25 308.5 L 332.25 200.53 L 278.28 146.53 L 278.28 114.87 L 354.62 114.87 L 278.28 38.56 L 278.25 38.53 z" class="bb"/>
            <path d="M 278.25 38.53 L 278.21 38.59 L 224.28 92.53 L 224.28 200.53 L 255.90 232.15 L 39.90 232.15 L 147.90 340.15 L 103.18 384.90 L 255.90 384.90 L 255.90 384.87 L 332.25 308.53 L 332.25 308.5 L 332.25 200.53 L 278.28 146.53 L 278.28 114.87 L 354.62 114.87 L 278.28 38.56 L 278.25 38.53 z" class="aa"/>
        </g>
        
        <g id="bg04">
            <path d="M 226,60 L 226,168 L 172,114 L 64,222 L 127.28,222 L 127.28,374.71 L 115.75,386.28 L 127.25,397.84 L 127.25,474.21 L 203.62,474.21 L 169.75,440.28 L 169.75,332.28 L 280,222 L 334,168 L 280,114 L 388.03,113.96 L 280.03,6 L 226,60 z" class="bb"/>
            <path d="M 226,60 L 226,168 L 172,114 L 64,222 L 127.28,222 L 127.28,374.71 L 115.75,386.28 L 127.25,397.84 L 127.25,474.21 L 203.62,474.21 L 169.75,440.28 L 169.75,332.28 L 280,222 L 334,168 L 280,114 L 388.03,113.96 L 280.03,6 L 226,60 z" class="aa"/>
        </g>
        
        <g id="bg05">
            <path d="M 38.56 46.40 L 38.56 154.40 L 92.56 208.40 L 46.56 254.40 L 122.90 330.78 L 122.90 394.06 L 78.18 438.81 L 230.90 438.81 L 230.90 286.06 L 122.90 178.06 L 146.56 154.40 L 146.56 46.40 L 92.56 100.40 L 38.56 46.40 z M 230.90 438.81 L 307.28 438.81 L 383.65 362.43 L 307.28 362.43 L 230.90 438.81 z " class="bb"/>
            <path d="M 38.56 46.40 L 38.56 154.40 L 92.56 208.40 L 46.56 254.40 L 122.90 330.78 L 122.90 394.06 L 78.18 438.81 L 230.90 438.81 L 230.90 286.06 L 122.90 178.06 L 146.56 154.40 L 146.56 46.40 L 92.56 100.40 L 38.56 46.40 z M 230.90 438.81 L 307.28 438.81 L 383.65 362.43 L 307.28 362.43 L 230.90 438.81 z " class="aa"/>
        </g>
        
        <g id="bg06">
            <path d="M 266,62 L 266,170 L 212,116 L 158,170 L 135.625,147.625 L 59.28,224 L 59.28,376.71 L 158,278 L 266,386 L 266,278 L 320,224 L 320,116.03 L 333.18,129.21 L 387.18,75.21 L 279.21,75.21 L 266,62 z" class="bb"/>
            <path d="M 266,62 L 266,170 L 212,116 L 158,170 L 135.625,147.625 L 59.28,224 L 59.28,376.71 L 158,278 L 266,386 L 266,278 L 320,224 L 320,116.03 L 333.18,129.21 L 387.18,75.21 L 279.21,75.21 L 266,62 z" class="aa"/>
        </g>
        
        <g id="bg07">
            <path d="M 299.62 11.28 L 223.28 87.62 L 299.625 87.625 L 299.625 164 L 160 164 L 52 272 L 160 272 L 83.625 348.375 L 123.34 388.09 L 123.34 464.34 L 199.71 464.34 L 160 424.65 L 160 348.375 L 236.375 272 L 268 272 L 376 164 L 376 87.625 L 299.62 11.28 z" class="bb"/>
            <path d="M 299.62 11.28 L 223.28 87.62 L 299.625 87.625 L 299.625 164 L 160 164 L 52 272 L 160 272 L 83.625 348.375 L 123.34 388.09 L 123.34 464.34 L 199.71 464.34 L 160 424.65 L 160 348.375 L 236.375 272 L 268 272 L 376 164 L 376 87.625 L 299.62 11.28 z" class="aa"/>
        </g>
        
        <g id="bg08">
            <path d="m 149,15.435547 -76.367188,76.369141 -25.8125,0.01562 0,76.359378 76.357418,0 0,45.82226 L 69.179688,268 l 54.000002,54 0,-51.08789 0.0117,0 44.64648,44.64844 -53.97851,53.97851 54,54 0.006,0.006 107.95704,0 0.0391,0.0391 0,-152.67187 0.0527,0 -0.0527,-0.0527 0,-0.0117 -0.0117,0 -152.66992,-152.66993 0,-26.357418 L 149,91.804688 225.36719,15.435547 Z m 18.85938,300.144533 0.006,0.006 z" class="bb"/>
            <path d="m 149,15.435547 -76.367188,76.369141 -25.8125,0.01562 0,76.359378 76.357418,0 0,45.82226 L 69.179688,268 l 54.000002,54 0,-51.08789 0.0117,0 44.64648,44.64844 -53.97851,53.97851 54,54 0.006,0.006 107.95704,0 0.0391,0.0391 0,-152.67187 0.0527,0 -0.0527,-0.0527 0,-0.0117 -0.0117,0 -152.66992,-152.66993 0,-26.357418 L 149,91.804688 225.36719,15.435547 Z m 18.85938,300.144533 0.006,0.006 z" class="aa"/>
        </g>
        
        <g id="bg09">
            <path d="M 167.91211 77.175781 L 91.179688 153.9082 L 91.179688 77.820312 L 14.820312 77.820312 L 14.820312 154.17969 L 90.908203 154.17969 L 15.175781 229.91211 L 167.91211 229.91211 L 167.94922 322.82422 L 168 322.77344 L 168 430.41406 L 127.58789 470.82617 L 203.95508 470.82617 L 203.95508 394.80469 L 222 376.75977 L 222 268.77344 L 263.49609 227.27539 L 370.75586 227.27539 L 370.75586 119.30078 L 411.91211 78.144531 L 335.54492 78.144531 L 335.54492 154.49609 L 319.95312 170.08789 L 167.94922 170.08789 L 167.91211 77.175781 z" class="bb"/>
            <path d="M 167.91211 77.175781 L 91.179688 153.9082 L 91.179688 77.820312 L 14.820312 77.820312 L 14.820312 154.17969 L 90.908203 154.17969 L 15.175781 229.91211 L 167.91211 229.91211 L 167.94922 322.82422 L 168 322.77344 L 168 430.41406 L 127.58789 470.82617 L 203.95508 470.82617 L 203.95508 394.80469 L 222 376.75977 L 222 268.77344 L 263.49609 227.27539 L 370.75586 227.27539 L 370.75586 119.30078 L 411.91211 78.144531 L 335.54492 78.144531 L 335.54492 154.49609 L 319.95312 170.08789 L 167.94922 170.08789 L 167.91211 77.175781 z" class="aa"/>
        </g>
        
        <g id="bg10">
            <path d="m 215.41797,33.544922 76.36719,76.367188 0.0351,22.35547 -41.39062,41.39062 -124.55469,0 -76.330078,-76.330075 0,76.367185 48.173828,0 -0.01953,69.96485 -76.359375,76.35937 76.359375,76.36133 0.01953,-69.98828 41.48047,-41.48047 77.01367,0 53.78711,53.78711 108,0 -54,-54 -32.08789,0 0,-118.51953 76.26758,0 0,-76.359378 -76.35938,0 -0.0351,-56.27539 z" class="bb"/>
            <path d="m 215.41797,33.544922 76.36719,76.367188 0.0351,22.35547 -41.39062,41.39062 -124.55469,0 -76.330078,-76.330075 0,76.367185 48.173828,0 -0.01953,69.96485 -76.359375,76.35937 76.359375,76.36133 0.01953,-69.98828 41.48047,-41.48047 77.01367,0 53.78711,53.78711 108,0 -54,-54 -32.08789,0 0,-118.51953 76.26758,0 0,-76.359378 -76.35938,0 -0.0351,-56.27539 z" class="aa"/>
        </g>
        
        <g id="bg11">
            <path d="M 94 61.039062 L 17.640625 137.40039 L 93.996094 137.40039 L 17.742188 213.6543 L 17.693359 213.6543 L 17.693359 213.70312 L 17.632812 213.76367 L 17.693359 213.76367 L 17.693359 290.02148 L 17.710938 290.00391 L 71.671875 343.96875 L 71.640625 344 L 287.64062 344 L 287.63672 343.99609 L 395.63086 236 L 179.67969 236 L 71.716797 236 L 93.953125 213.76367 L 94 213.76367 L 170.36719 137.39648 L 170.35547 137.39648 L 94 61.039062 z " class="bb"/>
            <path d="M 94 61.039062 L 17.640625 137.40039 L 93.996094 137.40039 L 17.742188 213.6543 L 17.693359 213.6543 L 17.693359 213.70312 L 17.632812 213.76367 L 17.693359 213.76367 L 17.693359 290.02148 L 17.710938 290.00391 L 71.671875 343.96875 L 71.640625 344 L 287.64062 344 L 287.63672 343.99609 L 395.63086 236 L 179.67969 236 L 71.716797 236 L 93.953125 213.76367 L 94 213.76367 L 170.36719 137.39648 L 170.35547 137.39648 L 94 61.039062 z " class="aa"/>
        </g>
        
        <g id="bg12">
            <path d="m 82,65.839844 -76.359375,76.359376 76.179687,0 0,75.88867 -0.314453,0 74.052731,74.05273 -53.95898,53.95899 107.91797,0 24.57031,24.57031 0,0.1543 0.0762,-0.0781 0.008,0.008 -50.70313,50.70117 76.36719,0 0,-76.36719 126.98828,-127 76.27344,-76.27148 -76.36719,0 -76.27149,76.27148 -76.21679,0 -76.0625,0 0,-75.88867 0.17969,0 -0.17969,-0.17969 0,-0.19922 -0.19922,0 z m 152.24219,304.841796 0,-0.0117 z" class="bb"/>
            <path d="m 82,65.839844 -76.359375,76.359376 76.179687,0 0,75.88867 -0.314453,0 74.052731,74.05273 -53.95898,53.95899 107.91797,0 24.57031,24.57031 0,0.1543 0.0762,-0.0781 0.008,0.008 -50.70313,50.70117 76.36719,0 0,-76.36719 126.98828,-127 76.27344,-76.27148 -76.36719,0 -76.27149,76.27148 -76.21679,0 -76.0625,0 0,-75.88867 0.17969,0 -0.17969,-0.17969 0,-0.19922 -0.19922,0 z m 152.24219,304.841796 0,-0.0117 z" class="aa"/>
        </g>
        
        <g id="bg13">
            <path d="m 294.19922,76.740234 -76.35938,76.359376 0.0977,0 -0.0254,65.08789 -59.73242,-0.008 0,-76.35938 -0.0293,-0.0195 -54,-53.999999 -53.999999,53.999999 31.669921,0.0195 0,76.35938 -16.644531,0.008 44.724609,44.72461 0,107.98828 53.99414,-53.99414 54.01758,54.01758 0.0254,-65.09961 98.69336,-98.69336 0,107.97852 54,-54 0,-107.97852 0.043,-0.043 -0.125,0 z" class="bb"/>
            <path d="m 294.19922,76.740234 -76.35938,76.359376 0.0977,0 -0.0254,65.08789 -59.73242,-0.008 0,-76.35938 -0.0293,-0.0195 -54,-53.999999 -53.999999,53.999999 31.669921,0.0195 0,76.35938 -16.644531,0.008 44.724609,44.72461 0,107.98828 53.99414,-53.99414 54.01758,54.01758 0.0254,-65.09961 98.69336,-98.69336 0,107.97852 54,-54 0,-107.97852 0.043,-0.043 -0.125,0 z" class="aa"/>
        </g>
        
        <g id="bg14">
            <path d="m 212.14062,156.19922 -0.0645,0.0644 -107.95117,0 0,31.55664 -76.304688,0 0,76.32422 -0.03125,0 0.03125,0.0312 0,0.004 0.0039,0 76.332031,76.33203 0,-76.28906 0.004,-0.004 L 212.05469,372.11328 158.16992,426 l 108,0 -54,-54 -0.0293,0.0293 0.0586,-63.01758 44.8125,0 L 311,363 l 108,0 -54,-54 -0.0781,0 -152.72266,-152.72266 z" class="bb"/>
            <path d="m 212.14062,156.19922 -0.0645,0.0644 -107.95117,0 0,31.55664 -76.304688,0 0,76.32422 -0.03125,0 0.03125,0.0312 0,0.004 0.0039,0 76.332031,76.33203 0,-76.28906 0.004,-0.004 L 212.05469,372.11328 158.16992,426 l 108,0 -54,-54 -0.0293,0.0293 0.0586,-63.01758 44.8125,0 L 311,363 l 108,0 -54,-54 -0.0781,0 -152.72266,-152.72266 z" class="aa"/>
        </g>
        
        <g id="bg15">
            <path d="m 67.619141,116.66016 -0.01953,44.69922 -54,54 54,54 0.01953,0.0215 76.345699,-76.3457 0.0117,0.0117 0,76.35351 22.40625,22.40625 -53.93359,53.93359 107.86719,0 0.0273,0.0274 0,-0.0274 0.10547,0 -0.10547,-0.10546 0,-76.23438 139.47656,0 0,76.2793 76.35938,0 0,-76.2793 0.15039,0 -108,-108 -215.96875,0 z" class="bb"/>
            <path d="m 67.619141,116.66016 -0.01953,44.69922 -54,54 54,54 0.01953,0.0215 76.345699,-76.3457 0.0117,0.0117 0,76.35351 22.40625,22.40625 -53.93359,53.93359 107.86719,0 0.0273,0.0274 0,-0.0274 0.10547,0 -0.10547,-0.10546 0,-76.23438 139.47656,0 0,76.2793 76.35938,0 0,-76.2793 0.15039,0 -108,-108 -215.96875,0 z" class="aa"/>
        </g>
        
        <g id="bg16">
            <path d="M 164.66602 21.923828 L 193.42383 50.681641 L 139.43555 104.66992 L 193.38281 158.61719 L 159 193 L 51.070312 193 L 105.03516 246.96484 L 105 247 L 145.15039 247 L 199.14648 300.99609 L 154.41797 300.99609 L 154.42969 301.00781 L 154.42969 409 L 208.42578 355.00391 L 307.1543 453.73047 L 307.1543 300.99609 L 307.14648 300.99609 L 253.15039 247 L 321 247 L 213.04688 139.04688 L 247.41797 104.67578 L 272.65625 129.91406 L 272.65625 21.923828 L 164.66602 21.923828 z " class="bb"/>
            <path d="M 164.66602 21.923828 L 193.42383 50.681641 L 139.43555 104.66992 L 193.38281 158.61719 L 159 193 L 51.070312 193 L 105.03516 246.96484 L 105 247 L 145.15039 247 L 199.14648 300.99609 L 154.41797 300.99609 L 154.42969 301.00781 L 154.42969 409 L 208.42578 355.00391 L 307.1543 453.73047 L 307.1543 300.99609 L 307.14648 300.99609 L 253.15039 247 L 321 247 L 213.04688 139.04688 L 247.41797 104.67578 L 272.65625 129.91406 L 272.65625 21.923828 L 164.66602 21.923828 z " class="aa"/>
        </g>
        
        <g id="bg17">
            <path d="M 192.03906 34.005859 L 138.04492 88 L 192.02344 141.97656 L 110 224 L 134 224 L 187.59961 277.59961 L 80.056641 277.59961 L 18.544922 216.08789 L 18.544922 292.45508 L 94.685547 292.45508 L 133.83008 331.59961 L 241.59961 331.59961 L 241.73438 331.73438 L 231.40039 342.07031 L 307.42969 418.09961 L 307.42969 476.10938 L 361.42969 422.10938 L 307.75977 368.43945 L 307.75977 266.24023 L 350 224 L 326 224 L 218.01758 116.01758 L 246.03516 88 L 192.03906 34.005859 z " class="bb"/>
            <path d="M 192.03906 34.005859 L 138.04492 88 L 192.02344 141.97656 L 110 224 L 134 224 L 187.59961 277.59961 L 80.056641 277.59961 L 18.544922 216.08789 L 18.544922 292.45508 L 94.685547 292.45508 L 133.83008 331.59961 L 241.59961 331.59961 L 241.73438 331.73438 L 231.40039 342.07031 L 307.42969 418.09961 L 307.42969 476.10938 L 361.42969 422.10938 L 307.75977 368.43945 L 307.75977 266.24023 L 350 224 L 326 224 L 218.01758 116.01758 L 246.03516 88 L 192.03906 34.005859 z " class="aa"/>
        </g>
        
        <g id="bg18">
            <path d="m 156.82031,54.820312 0,76.359378 76.35938,0 0,-76.359378 z M 24.175781,143.08789 176.91211,295.82422 l 0.17578,-0.1211 -34.91016,34.91016 -76.253902,0 0,76.36914 41.585942,-41.58789 107.875,0 0,-31.75586 50.05859,50.0586 0,75.75781 76.36914,0 -50.22852,-50.22656 0,-75.75782 -76.07031,-76.07226 114.31055,-114.31055 -152.73633,0 -0.17578,0 z" class="bb"/>
            <path d="m 156.82031,54.820312 0,76.359378 76.35938,0 0,-76.359378 z M 24.175781,143.08789 176.91211,295.82422 l 0.17578,-0.1211 -34.91016,34.91016 -76.253902,0 0,76.36914 41.585942,-41.58789 107.875,0 0,-31.75586 50.05859,50.0586 0,75.75781 76.36914,0 -50.22852,-50.22656 0,-75.75782 -76.07031,-76.07226 114.31055,-114.31055 -152.73633,0 -0.17578,0 z" class="aa"/>
        </g>
        
        <g id="bg19">
            <path d="m 216,15 -54,54 0,107.66016 -53.59961,53.59961 -0.58984,0 0.29492,0.29492 -0.10547,0.10547 0.21094,0 14.57812,14.57812 0,152.67383 56.28125,0 0,76.06836 76.36719,0 -76.06836,-76.06836 96.1543,0 21.10742,21.08789 54,-54 -108,0 -58.42969,-58.41211 75.92774,-75.92773 63.87109,0 -108,-108 z m 12.82031,42.820312 0,76.359378 76.35938,0 0,-76.359378 z" class="bb"/>
            <path d="m 216,15 -54,54 0,107.66016 -53.59961,53.59961 -0.58984,0 0.29492,0.29492 -0.10547,0.10547 0.21094,0 14.57812,14.57812 0,152.67383 56.28125,0 0,76.06836 76.36719,0 -76.06836,-76.06836 96.1543,0 21.10742,21.08789 54,-54 -108,0 -58.42969,-58.41211 75.92774,-75.92773 63.87109,0 -108,-108 z m 12.82031,42.820312 0,76.359378 76.35938,0 0,-76.359378 z" class="aa"/>
        </g>
        
        <g id="bg20">
            <path d="M 325 62 L 271.04688 115.95312 L 271 115.90625 L 270.95312 115.95312 L 217.01172 62.011719 L 217.01172 169.89453 L 217.00586 169.90039 L 217.01172 169.90625 L 217.01172 170.01172 L 217.06445 169.95898 L 270.875 223.76953 L 118.44922 223.76953 L 118.44922 115.80078 L 64.449219 169.80078 L 64.449219 277.80078 L 10.470703 331.7793 L 226.4707 331.7793 L 195.29102 300.59961 L 410.16016 300.59961 L 302.22656 192.66797 L 324.94727 169.94727 L 325 170 L 325 62 z " class="bb"/>
            <path d="M 325 62 L 271.04688 115.95312 L 271 115.90625 L 270.95312 115.95312 L 217.01172 62.011719 L 217.01172 169.89453 L 217.00586 169.90039 L 217.01172 169.90625 L 217.01172 170.01172 L 217.06445 169.95898 L 270.875 223.76953 L 118.44922 223.76953 L 118.44922 115.80078 L 64.449219 169.80078 L 64.449219 277.80078 L 10.470703 331.7793 L 226.4707 331.7793 L 195.29102 300.59961 L 410.16016 300.59961 L 302.22656 192.66797 L 324.94727 169.94727 L 325 170 L 325 62 z " class="aa"/>
        </g>
        
        <g id="bg21">
            <path d="M 210 31.005859 L 156.00586 85 L 209.50391 138.49609 L 165.35938 182.64062 L 112.43164 129.71094 L 4.4316406 129.71094 L 58.431641 183.71094 L 164.28906 183.71094 L 102 246 L 318 246 L 255.09961 183.09961 L 407.20312 183.09961 L 330.84375 106.74023 L 254.79297 182.79297 L 210.49609 138.49609 L 263.99414 85 L 210 31.005859 z M 102 251.39844 L 210 359.39844 L 258.41016 310.98828 L 258.41016 415.96875 L 312.41016 361.96875 L 259.91992 309.47852 L 318 251.39844 L 102 251.39844 z M 158.84961 308.80078 L 104.84961 362.80078 L 158.84961 416.80078 L 158.84961 308.80078 z" class="bb"/>
            <path d="M 210 31.005859 L 156.00586 85 L 209.50391 138.49609 L 165.35938 182.64062 L 112.43164 129.71094 L 4.4316406 129.71094 L 58.431641 183.71094 L 164.28906 183.71094 L 102 246 L 318 246 L 255.09961 183.09961 L 407.20312 183.09961 L 330.84375 106.74023 L 254.79297 182.79297 L 210.49609 138.49609 L 263.99414 85 L 210 31.005859 z M 102 251.39844 L 210 359.39844 L 258.41016 310.98828 L 258.41016 415.96875 L 312.41016 361.96875 L 259.91992 309.47852 L 318 251.39844 L 102 251.39844 z M 158.84961 308.80078 L 104.84961 362.80078 L 158.84961 416.80078 L 158.84961 308.80078 z" class="aa"/>
        </g>
            
    </g>
</g>

<g id="p01" class="a">
<g id="t01" transform="translate(288.68,311.8)"><g class="scale">
	<g transform="translate(5,10)"><g class="rot" transform="rotate(225)">
		<path d="M -108,-36 L 0,72 L 108,-36 L -108,-36 z" class="shadow"/>
	</g></g>
	<g class="rot" transform="rotate(225)">
    <path d="M -108,-36 L 0,72 L 108,-36 L -108,-36 z" class="bg01"/>
</g></g></g>
<g id="t02" transform="translate(159.8,305.74)"><g class="scale">
	<g transform="translate(5,10)"><g class="rot" transform="rotate(270)">
		<path d="M -108,-36 L 0,72 L 108,-36 L -108,-36 z" class="shadow"/>
	</g></g>
	<g class="rot" transform="rotate(270)">
    <path d="M -108,-36 L 0,72 L 108,-36 L -108,-36 z" class="bg02"/>
</g></g></g>
<g id="t03" transform="translate(139.69,172.3)"><g class="scale">
	<g transform="translate(5,10)"><g class="rot" transform="rotate(315)">
		<path d="M 54,-18 L 0,36 L -54,-18 L 54,-18 z" class="shadow"/>
	</g></g>
	<g class="rot" transform="rotate(315)">
    <path d="M 54,-18 L 0,36 L -54,-18 L 54,-18 z" class="bg03"/>
</g></g></g>
<g id="t04" transform="translate(38.18,172.37)"><g class="scale">
	<g transform="translate(5,10)"><g class="rot" transform="rotate(45)">
		<path d="M 54,-18 L 0,36 L -54,-18 L 54,-18 z" class="shadow"/>
	</g></g>
	<g class="rot" transform="rotate(45)">
    <path d="M 54,-18 L 0,36 L -54,-18 L 54,-18 z" class="bg04"/>
</g></g></g>
<g id="t05" transform="translate(231.76,357.72)"><g class="scale">
	<g transform="translate(5,10)"><g class="rot" transform="rotate(180)">
		<path d="M -76.36,-24.36 L 0,52 L 76.36,-24.36 L -76.36,-24.36 z" class="shadow"/>
	</g></g>
	<g class="rot" transform="rotate(180)">
    <path d="M -76.36,-24.36 L 0,52 L 76.36,-24.36 L -76.36,-24.36 z" class="bg01"/>
</g></g></g>
<g id="sq" transform="translate(85.8,236)"><g class="scale">
	<g transform="translate(5,10)"><g class="rot" transform="rotate(0)">
		<path d="M -38.18,-38.18 L 38.18,-38.18 L 38.18,38.18 L -38.18,38.18 L -38.18,-38.18 z" class="shadow"/>
	</g></g>
	<g class="rot" transform="rotate(0)">
    <path d="M -38.18,-38.18 L 38.18,-38.18 L 38.18,38.18 L -38.18,38.18 L -38.18,-38.18 z" class="bg05"/>
</g></g></g>
<g id="pa" transform="translate(377.79,337.1)"><g class="scale">
	<g transform="translate(5,10)"><g class="rot" transform="rotate(45)">
		<path d="M 81,27 L 27,-27 L -81,-27 L -27,27 L 81,27 z" class="shadow"/>
	</g></g>
	<g class="rot" transform="rotate(45)">
    <path d="M 81,27 L 27,-27 L -81,-27 L -27,27 L 81,27 z" class="bg06"/>
</g></g></g>
</g>

<g id="p02" class="a">
<g id="t01" transform="translate(213.44,387.83)"><g class="scale">
	<g transform="translate(5,10)"><g class="rot" transform="rotate(315)">
		<path d="M -108,-36 L 0,72 L 108,-36 L -108,-36 z" class="shadow"/>
	</g></g>
	<g class="rot" transform="rotate(315)">
    <path d="M -108,-36 L 0,72 L 108,-36 L -108,-36 z" class="bg01"/>
</g></g></g>
<g id="t02" transform="translate(192.36,286)"><g class="scale">
	<g transform="translate(5,10)"><g class="rot" transform="rotate(270)">
		<path d="M -108,-36 L 0,72 L 108,-36 L -108,-36 z" class="shadow"/>
	</g></g>
	<g class="rot" transform="rotate(270)">
    <path d="M -108,-36 L 0,72 L 108,-36 L -108,-36 z" class="bg02"/>
</g></g></g>
<g id="t03" transform="translate(162,70)"><g class="scale">
	<g transform="translate(5,10)"><g class="rot" transform="rotate(90)">
		<path d="M 54,-18 L 0,36 L -54,-18 L 54,-18 z" class="shadow"/>
	</g></g>
	<g class="rot" transform="rotate(90)">
    <path d="M 54,-18 L 0,36 L -54,-18 L 54,-18 z" class="bg03"/>
</g></g></g>
<g id="t04" transform="translate(90,70)"><g class="scale">
	<g transform="translate(5,10)"><g class="rot" transform="rotate(270)">
		<path d="M 54,-18 L 0,36 L -54,-18 L 54,-18 z" class="shadow"/>
	</g></g>
	<g class="rot" transform="rotate(270)">
    <path d="M 54,-18 L 0,36 L -54,-18 L 54,-18 z" class="bg04"/>
</g></g></g>
<g id="t05" transform="translate(132,224)"><g class="scale">
	<g transform="translate(5,10)"><g class="rot" transform="rotate(90)">
		<path d="M -76.36,-24.36 L 0,52 L 76.36,-24.36 L -76.36,-24.36 z" class="shadow"/>
	</g></g>
	<g class="rot" transform="rotate(90)">
    <path d="M -76.36,-24.36 L 0,52 L 76.36,-24.36 L -76.36,-24.36 z" class="bg01"/>
</g></g></g>
<g id="sq" transform="translate(126,124)"><g class="scale">
	<g transform="translate(5,10)"><g class="rot" transform="rotate(45)">
		<path d="M -38.18,-38.18 L 38.18,-38.18 L 38.18,38.18 L -38.18,38.18 L -38.18,-38.18 z" class="shadow"/>
	</g></g>
	<g class="rot" transform="rotate(45)">
    <path d="M -38.18,-38.18 L 38.18,-38.18 L 38.18,38.18 L -38.18,38.18 L -38.18,-38.18 z" class="bg05"/>
</g></g></g>
<g id="pa" transform="translate(118.18,300.36)"><g class="scale">
	<g transform="translate(5,10)"><g class="rot" transform="rotate(225)">
		<path d="M 81,27 L 27,-27 L -81,-27 L -27,27 L 81,27 z" class="shadow"/>
	</g></g>
	<g class="rot" transform="rotate(225)">
    <path d="M 81,27 L 27,-27 L -81,-27 L -27,27 L 81,27 z" class="bg06"/>
</g></g></g>
</g>

<g id="p03" class="a">
<g id="t01" transform="translate(147.91,268.17)"><g class="scale">
	<g transform="translate(5,10)"><g class="rot" transform="rotate(0)">
		<path d="M -108,-36 L 0,72 L 108,-36 L -108,-36 z" class="shadow"/>
	</g></g>
	<g class="rot" transform="rotate(0)">
    <path d="M -108,-36 L 0,72 L 108,-36 L -108,-36 z" class="bg01"/>
</g></g></g>
<g id="t02" transform="translate(205,334)"><g class="scale">
	<g transform="translate(5,10)"><g class="rot" transform="rotate(315)">
		<path d="M -108,-36 L 0,72 L 108,-36 L -108,-36 z" class="shadow"/>
	</g></g>
	<g class="rot" transform="rotate(315)">
    <path d="M -108,-36 L 0,72 L 108,-36 L -108,-36 z" class="bg02"/>
</g></g></g>
<g id="t03" transform="translate(303.72,89.43)"><g class="scale">
	<g transform="translate(5,10)"><g class="rot" transform="rotate(45)">
		<path d="M 54,-18 L 0,36 L -54,-18 L 54,-18 z" class="shadow"/>
	</g></g>
	<g class="rot" transform="rotate(45)">
    <path d="M 54,-18 L 0,36 L -54,-18 L 54,-18 z" class="bg03"/>
</g></g></g>
<g id="t04" transform="translate(314.26,254.52)"><g class="scale">
	<g transform="translate(5,10)"><g class="rot" transform="rotate(90)">
		<path d="M 54,-18 L 0,36 L -54,-18 L 54,-18 z" class="shadow"/>
	</g></g>
	<g class="rot" transform="rotate(90)">
    <path d="M 54,-18 L 0,36 L -54,-18 L 54,-18 z" class="bg04"/>
</g></g></g>
<g id="t05" transform="translate(280.27,308.52)"><g class="scale">
	<g transform="translate(5,10)"><g class="rot" transform="rotate(270)">
		<path d="M -76.36,-24.36 L 0,52 L 76.36,-24.36 L -76.36,-24.36 z" class="shadow"/>
	</g></g>
	<g class="rot" transform="rotate(270)">
    <path d="M -76.36,-24.36 L 0,52 L 76.36,-24.36 L -76.36,-24.36 z" class="bg01"/>
</g></g></g>
<g id="sq" transform="translate(278.27,200.52)"><g class="scale">
	<g transform="translate(5,10)"><g class="rot" transform="rotate(45)">
		<path d="M -38.18,-38.18 L 38.18,-38.18 L 38.18,38.18 L -38.18,38.18 L -38.18,-38.18 z" class="shadow"/>
	</g></g>
	<g class="rot" transform="rotate(45)">
    <path d="M -38.18,-38.18 L 38.18,-38.18 L 38.18,38.18 L -38.18,38.18 L -38.18,-38.18 z" class="bg05"/>
</g></g></g>
<g id="pa" transform="translate(251.27,119.52)"><g class="scale">
	<g transform="translate(5,10)"><g class="rot" transform="rotate(90)">
		<path d="M 81,27 L 27,-27 L -81,-27 L -27,27 L 81,27 z" class="shadow"/>
	</g></g>
	<g class="rot" transform="rotate(90)">
    <path d="M 81,27 L 27,-27 L -81,-27 L -27,27 L 81,27 z" class="bg06"/>
</g></g></g>
</g>

<g id="p04" class="a">
<g id="t01" transform="translate(172,186)"><g class="scale">
	<g transform="translate(5,10)"><g class="rot" transform="rotate(180)">
		<path d="M -108,-36 L 0,72 L 108,-36 L -108,-36 z" class="shadow"/>
	</g></g>
	<g class="rot" transform="rotate(180)">
    <path d="M -108,-36 L 0,72 L 108,-36 L -108,-36 z" class="bg01"/>
</g></g></g>
<g id="t02" transform="translate(178.18,272.91)"><g class="scale">
	<g transform="translate(5,10)"><g class="rot" transform="rotate(135)">
		<path d="M -108,-36 L 0,72 L 108,-36 L -108,-36 z" class="shadow"/>
	</g></g>
	<g class="rot" transform="rotate(135)">
    <path d="M -108,-36 L 0,72 L 108,-36 L -108,-36 z" class="bg02"/>
</g></g></g>
<g id="t03" transform="translate(152.72,448.76)"><g class="scale">
	<g transform="translate(5,10)"><g class="rot" transform="rotate(45)">
		<path d="M 54,-18 L 0,36 L -54,-18 L 54,-18 z" class="shadow"/>
	</g></g>
	<g class="rot" transform="rotate(45)">
    <path d="M 54,-18 L 0,36 L -54,-18 L 54,-18 z" class="bg03"/>
</g></g></g>
<g id="t04" transform="translate(151.74,386.28)"><g class="scale">
	<g transform="translate(5,10)"><g class="rot" transform="rotate(90)">
		<path d="M 54,-18 L 0,36 L -54,-18 L 54,-18 z" class="shadow"/>
	</g></g>
	<g class="rot" transform="rotate(90)">
    <path d="M 54,-18 L 0,36 L -54,-18 L 54,-18 z" class="bg04"/>
</g></g></g>
<g id="t05" transform="translate(316.8,77.21)"><g class="scale">
	<g transform="translate(5,10)"><g class="rot" transform="rotate(45)">
		<path d="M -76.36,-24.36 L 0,52 L 76.36,-24.36 L -76.36,-24.36 z" class="shadow"/>
	</g></g>
	<g class="rot" transform="rotate(45)">
    <path d="M -76.36,-24.36 L 0,52 L 76.36,-24.36 L -76.36,-24.36 z" class="bg01"/>
</g></g></g>
<g id="sq" transform="translate(280,168)"><g class="scale">
	<g transform="translate(5,10)"><g class="rot" transform="rotate(45)">
		<path d="M -38.18,-38.18 L 38.18,-38.18 L 38.18,38.18 L -38.18,38.18 L -38.18,-38.18 z" class="shadow"/>
	</g></g>
	<g class="rot" transform="rotate(45)">
    <path d="M -38.18,-38.18 L 38.18,-38.18 L 38.18,38.18 L -38.18,38.18 L -38.18,-38.18 z" class="bg05"/>
</g></g></g>
<g id="pa" transform="translate(253,87)"><g class="scale">
	<g transform="translate(5,10)"><g class="rot" transform="rotate(90)">
		<path d="M 81,27 L 27,-27 L -81,-27 L -27,27 L 81,27 z" class="shadow"/>
	</g></g>
	<g class="rot" transform="rotate(90)">
    <path d="M 81,27 L 27,-27 L -81,-27 L -27,27 L 81,27 z" class="bg06"/>
</g></g></g>
</g>

<g id="p05" class="a">
<g id="t01" transform="translate(180,387.89)"><g class="scale">
	<g transform="translate(5,10)"><g class="rot" transform="rotate(315)">
		<path d="M -108,-36 L 0,72 L 108,-36 L -108,-36 z" class="shadow"/>
	</g></g>
	<g class="rot" transform="rotate(315)">
    <path d="M -108,-36 L 0,72 L 108,-36 L -108,-36 z" class="bg01"/>
</g></g></g>
<g id="t02" transform="translate(158.92,286.05)"><g class="scale">
	<g transform="translate(5,10)"><g class="rot" transform="rotate(270)">
		<path d="M -108,-36 L 0,72 L 108,-36 L -108,-36 z" class="shadow"/>
	</g></g>
	<g class="rot" transform="rotate(270)">
    <path d="M -108,-36 L 0,72 L 108,-36 L -108,-36 z" class="bg02"/>
</g></g></g>
<g id="t03" transform="translate(128.55,100.41)"><g class="scale">
	<g transform="translate(5,10)"><g class="rot" transform="rotate(90)">
		<path d="M 54,-18 L 0,36 L -54,-18 L 54,-18 z" class="shadow"/>
	</g></g>
	<g class="rot" transform="rotate(90)">
    <path d="M 54,-18 L 0,36 L -54,-18 L 54,-18 z" class="bg03"/>
</g></g></g>
<g id="t04" transform="translate(56.55,100.41)"><g class="scale">
	<g transform="translate(5,10)"><g class="rot" transform="rotate(270)">
		<path d="M 54,-18 L 0,36 L -54,-18 L 54,-18 z" class="shadow"/>
	</g></g>
	<g class="rot" transform="rotate(270)">
    <path d="M 54,-18 L 0,36 L -54,-18 L 54,-18 z" class="bg04"/>
</g></g></g>
<g id="t05" transform="translate(98.55,254.41)"><g class="scale">
	<g transform="translate(5,10)"><g class="rot" transform="rotate(90)">
		<path d="M -76.36,-24.36 L 0,52 L 76.36,-24.36 L -76.36,-24.36 z" class="shadow"/>
	</g></g>
	<g class="rot" transform="rotate(90)">
    <path d="M -76.36,-24.36 L 0,52 L 76.36,-24.36 L -76.36,-24.36 z" class="bg01"/>
</g></g></g>
<g id="sq" transform="translate(92.55,154.41)"><g class="scale">
	<g transform="translate(5,10)"><g class="rot" transform="rotate(45)">
		<path d="M -38.18,-38.18 L 38.18,-38.18 L 38.18,38.18 L -38.18,38.18 L -38.18,-38.18 z" class="shadow"/>
	</g></g>
	<g class="rot" transform="rotate(45)">
    <path d="M -38.18,-38.18 L 38.18,-38.18 L 38.18,38.18 L -38.18,38.18 L -38.18,-38.18 z" class="bg05"/>
</g></g></g>
<g id="pa" transform="translate(307.28,400.64)"><g class="scale">
	<g transform="translate(5,10)"><g class="rot" transform="rotate(135)">
		<path d="M 81,27 L 27,-27 L -81,-27 L -27,27 L 81,27 z" class="shadow"/>
	</g></g>
	<g class="rot" transform="rotate(135)">
    <path d="M 81,27 L 27,-27 L -81,-27 L -27,27 L 81,27 z" class="bg06"/>
</g></g></g>
</g>

<g id="p06" class="a">
<g id="t01" transform="translate(230,278)"><g class="scale">
	<g transform="translate(5,10)"><g class="rot" transform="rotate(90)">
		<path d="M -108,-36 L 0,72 L 108,-36 L -108,-36 z" class="shadow"/>
	</g></g>
	<g class="rot" transform="rotate(90)">
    <path d="M -108,-36 L 0,72 L 108,-36 L -108,-36 z" class="bg01"/>
</g></g></g>
<g id="t02" transform="translate(110.18,274.91)"><g class="scale">
	<g transform="translate(5,10)"><g class="rot" transform="rotate(135)">
		<path d="M -108,-36 L 0,72 L 108,-36 L -108,-36 z" class="shadow"/>
	</g></g>
	<g class="rot" transform="rotate(135)">
    <path d="M -108,-36 L 0,72 L 108,-36 L -108,-36 z" class="bg02"/>
</g></g></g>
<g id="t03" transform="translate(333.18,93.21)"><g class="scale">
	<g transform="translate(5,10)"><g class="rot" transform="rotate(0)">
		<path d="M 54,-18 L 0,36 L -54,-18 L 54,-18 z" class="shadow"/>
	</g></g>
	<g class="rot" transform="rotate(0)">
    <path d="M 54,-18 L 0,36 L -54,-18 L 54,-18 z" class="bg03"/>
</g></g></g>
<g id="t04" transform="translate(284,116)"><g class="scale">
	<g transform="translate(5,10)"><g class="rot" transform="rotate(270)">
		<path d="M 54,-18 L 0,36 L -54,-18 L 54,-18 z" class="shadow"/>
	</g></g>
	<g class="rot" transform="rotate(270)">
    <path d="M 54,-18 L 0,36 L -54,-18 L 54,-18 z" class="bg04"/>
</g></g></g>
<g id="t05" transform="translate(135.64,199.64)"><g class="scale">
	<g transform="translate(5,10)"><g class="rot" transform="rotate(180)">
		<path d="M -76.36,-24.36 L 0,52 L 76.36,-24.36 L -76.36,-24.36 z" class="shadow"/>
	</g></g>
	<g class="rot" transform="rotate(180)">
    <path d="M -76.36,-24.36 L 0,52 L 76.36,-24.36 L -76.36,-24.36 z" class="bg01"/>
</g></g></g>
<g id="sq" transform="translate(212,170)"><g class="scale">
	<g transform="translate(5,10)"><g class="rot" transform="rotate(45)">
		<path d="M -38.18,-38.18 L 38.18,-38.18 L 38.18,38.18 L -38.18,38.18 L -38.18,-38.18 z" class="shadow"/>
	</g></g>
	<g class="rot" transform="rotate(45)">
    <path d="M -38.18,-38.18 L 38.18,-38.18 L 38.18,38.18 L -38.18,38.18 L -38.18,-38.18 z" class="bg05"/>
</g></g></g>
<g id="pa" transform="translate(293,197)"><g class="scale">
	<g transform="translate(5,10)"><g class="rot" transform="rotate(90)">
		<path d="M 81,27 L 27,-27 L -81,-27 L -27,27 L 81,27 z" class="shadow"/>
	</g></g>
	<g class="rot" transform="rotate(90)">
    <path d="M 81,27 L 27,-27 L -81,-27 L -27,27 L 81,27 z" class="bg06"/>
</g></g></g>
</g>

<g id="p07" class="a">
<g id="t01" transform="translate(268,200)"><g class="scale">
	<g transform="translate(5,10)"><g class="rot" transform="rotate(0)">
		<path d="M -108,-36 L 0,72 L 108,-36 L -108,-36 z" class="shadow"/>
	</g></g>
	<g class="rot" transform="rotate(0)">
    <path d="M -108,-36 L 0,72 L 108,-36 L -108,-36 z" class="bg01"/>
</g></g></g>
<g id="t02" transform="translate(160,236)"><g class="scale">
	<g transform="translate(5,10)"><g class="rot" transform="rotate(180)">
		<path d="M -108,-36 L 0,72 L 108,-36 L -108,-36 z" class="shadow"/>
	</g></g>
	<g class="rot" transform="rotate(180)">
    <path d="M -108,-36 L 0,72 L 108,-36 L -108,-36 z" class="bg02"/>
</g></g></g>
<g id="t03" transform="translate(148.8,438.9)"><g class="scale">
	<g transform="translate(5,10)"><g class="rot" transform="rotate(45)">
		<path d="M 54,-18 L 0,36 L -54,-18 L 54,-18 z" class="shadow"/>
	</g></g>
	<g class="rot" transform="rotate(45)">
    <path d="M 54,-18 L 0,36 L -54,-18 L 54,-18 z" class="bg03"/>
</g></g></g>
<g id="t04" transform="translate(134.55,373.82)"><g class="scale">
	<g transform="translate(5,10)"><g class="rot" transform="rotate(225)">
		<path d="M 54,-18 L 0,36 L -54,-18 L 54,-18 z" class="shadow"/>
	</g></g>
	<g class="rot" transform="rotate(225)">
    <path d="M 54,-18 L 0,36 L -54,-18 L 54,-18 z" class="bg04"/>
</g></g></g>
<g id="t05" transform="translate(299.64,63.28)"><g class="scale">
	<g transform="translate(5,10)"><g class="rot" transform="rotate(180)">
		<path d="M -76.36,-24.36 L 0,52 L 76.36,-24.36 L -76.36,-24.36 z" class="shadow"/>
	</g></g>
	<g class="rot" transform="rotate(180)">
    <path d="M -76.36,-24.36 L 0,52 L 76.36,-24.36 L -76.36,-24.36 z" class="bg01"/>
</g></g></g>
<g id="sq" transform="translate(337.82,125.82)"><g class="scale">
	<g transform="translate(5,10)"><g class="rot" transform="rotate(0)">
		<path d="M -38.18,-38.18 L 38.18,-38.18 L 38.18,38.18 L -38.18,38.18 L -38.18,-38.18 z" class="shadow"/>
	</g></g>
	<g class="rot" transform="rotate(0)">
    <path d="M -38.18,-38.18 L 38.18,-38.18 L 38.18,38.18 L -38.18,38.18 L -38.18,-38.18 z" class="bg05"/>
</g></g></g>
<g id="pa" transform="translate(160,310.18)"><g class="scale">
	<g transform="translate(5,10)"><g class="rot" transform="rotate(135)">
		<path d="M 81,27 L 27,-27 L -81,-27 L -27,27 L 81,27 z" class="shadow"/>
	</g></g>
	<g class="rot" transform="rotate(135)">
    <path d="M 81,27 L 27,-27 L -81,-27 L -27,27 L 81,27 z" class="bg06"/>
</g></g></g>
</g>

<g id="p08" class="a">
<g id="t01" transform="translate(224.95,321.76)"><g class="scale">
	<g transform="translate(5,10)"><g class="rot" transform="rotate(225)">
		<path d="M -108,-36 L 0,72 L 108,-36 L -108,-36 z" class="shadow"/>
	</g></g>
	<g class="rot" transform="rotate(225)">
    <path d="M -108,-36 L 0,72 L 108,-36 L -108,-36 z" class="bg01"/>
</g></g></g>
<g id="t02" transform="translate(174.09,220)"><g class="scale">
	<g transform="translate(5,10)"><g class="rot" transform="rotate(45)">
		<path d="M -108,-36 L 0,72 L 108,-36 L -108,-36 z" class="shadow"/>
	</g></g>
	<g class="rot" transform="rotate(45)">
    <path d="M -108,-36 L 0,72 L 108,-36 L -108,-36 z" class="bg02"/>
</g></g></g>
<g id="t03" transform="translate(149.86,369.54)"><g class="scale">
	<g transform="translate(5,10)"><g class="rot" transform="rotate(90)">
		<path d="M 54,-18 L 0,36 L -54,-18 L 54,-18 z" class="shadow"/>
	</g></g>
	<g class="rot" transform="rotate(90)">
    <path d="M 54,-18 L 0,36 L -54,-18 L 54,-18 z" class="bg03"/>
</g></g></g>
<g id="t04" transform="translate(105.18,268)"><g class="scale">
	<g transform="translate(5,10)"><g class="rot" transform="rotate(90)">
		<path d="M 54,-18 L 0,36 L -54,-18 L 54,-18 z" class="shadow"/>
	</g></g>
	<g class="rot" transform="rotate(90)">
    <path d="M 54,-18 L 0,36 L -54,-18 L 54,-18 z" class="bg04"/>
</g></g></g>
<g id="t05" transform="translate(204.62,386.77)"><g class="scale">
	<g transform="translate(5,10)"><g class="rot" transform="rotate(45)">
		<path d="M -76.36,-24.36 L 0,52 L 76.36,-24.36 L -76.36,-24.36 z" class="shadow"/>
	</g></g>
	<g class="rot" transform="rotate(45)">
    <path d="M -76.36,-24.36 L 0,52 L 76.36,-24.36 L -76.36,-24.36 z" class="bg01"/>
</g></g></g>
<g id="sq" transform="translate(85,130)"><g class="scale">
	<g transform="translate(5,10)"><g class="rot" transform="rotate(0)">
		<path d="M -38.18,-38.18 L 38.18,-38.18 L 38.18,38.18 L -38.18,38.18 L -38.18,-38.18 z" class="shadow"/>
	</g></g>
	<g class="rot" transform="rotate(0)">
    <path d="M -38.18,-38.18 L 38.18,-38.18 L 38.18,38.18 L -38.18,38.18 L -38.18,-38.18 z" class="bg05"/>
</g></g></g>
<g id="pa" transform="translate(149,53.62)"><g class="scale">
	<g transform="translate(5,10)"><g class="rot" transform="rotate(135)">
		<path d="M 81,27 L 27,-27 L -81,-27 L -27,27 L 81,27 z" class="shadow"/>
	</g></g>
	<g class="rot" transform="rotate(135)">
    <path d="M 81,27 L 27,-27 L -81,-27 L -27,27 L 81,27 z" class="bg06"/>
</g></g></g>
</g>

<g id="p09" class="a">
<g id="t01" transform="translate(218.86,221)"><g class="scale">
	<g transform="translate(5,10)"><g class="rot" transform="rotate(135)">
		<path d="M -108,-36 L 0,72 L 108,-36 L -108,-36 z" class="shadow"/>
	</g></g>
	<g class="rot" transform="rotate(135)">
    <path d="M -108,-36 L 0,72 L 108,-36 L -108,-36 z" class="bg01"/>
</g></g></g>
<g id="t02" transform="translate(117,179)"><g class="scale">
	<g transform="translate(5,10)"><g class="rot" transform="rotate(315)">
		<path d="M -108,-36 L 0,72 L 108,-36 L -108,-36 z" class="shadow"/>
	</g></g>
	<g class="rot" transform="rotate(315)">
    <path d="M -108,-36 L 0,72 L 108,-36 L -108,-36 z" class="bg02"/>
</g></g></g>
<g id="t03" transform="translate(178.5,445.37)"><g class="scale">
	<g transform="translate(5,10)"><g class="rot" transform="rotate(315)">
		<path d="M 54,-18 L 0,36 L -54,-18 L 54,-18 z" class="shadow"/>
	</g></g>
	<g class="rot" transform="rotate(315)">
    <path d="M 54,-18 L 0,36 L -54,-18 L 54,-18 z" class="bg03"/>
</g></g></g>
<g id="t04" transform="translate(361,103.6)"><g class="scale">
	<g transform="translate(5,10)"><g class="rot" transform="rotate(135)">
		<path d="M 54,-18 L 0,36 L -54,-18 L 54,-18 z" class="shadow"/>
	</g></g>
	<g class="rot" transform="rotate(135)">
    <path d="M 54,-18 L 0,36 L -54,-18 L 54,-18 z" class="bg04"/>
</g></g></g>
<g id="t05" transform="translate(334,190.5)"><g class="scale">
	<g transform="translate(5,10)"><g class="rot" transform="rotate(315)">
		<path d="M -76.36,-24.36 L 0,52 L 76.36,-24.36 L -76.36,-24.36 z" class="shadow"/>
	</g></g>
	<g class="rot" transform="rotate(315)">
    <path d="M -76.36,-24.36 L 0,52 L 76.36,-24.36 L -76.36,-24.36 z" class="bg01"/>
</g></g></g>
<g id="sq" transform="translate(53,116)"><g class="scale">
	<g transform="translate(5,10)"><g class="rot" transform="rotate(0)">
		<path d="M -38.18,-38.18 L 38.18,-38.18 L 38.18,38.18 L -38.18,38.18 L -38.18,-38.18 z" class="shadow"/>
	</g></g>
	<g class="rot" transform="rotate(0)">
    <path d="M -38.18,-38.18 L 38.18,-38.18 L 38.18,38.18 L -38.18,38.18 L -38.18,-38.18 z" class="bg05"/>
</g></g></g>
<g id="pa" transform="translate(195,349.76)"><g class="scale">
	<g transform="translate(5,10)"><g class="rot" transform="rotate(90)">
		<path d="M 81,27 L 27,-27 L -81,-27 L -27,27 L 81,27 z" class="shadow"/>
	</g></g>
	<g class="rot" transform="rotate(90)">
    <path d="M 81,27 L 27,-27 L -81,-27 L -27,27 L 81,27 z" class="bg06"/>
</g></g></g>
</g>

<g id="p10" class="a">
<g id="t01" transform="translate(241,234)"><g class="scale">
	<g transform="translate(5,10)"><g class="rot" transform="rotate(315)">
		<path d="M -108,-36 L 0,72 L 108,-36 L -108,-36 z" class="shadow"/>
	</g></g>
	<g class="rot" transform="rotate(315)">
    <path d="M -108,-36 L 0,72 L 108,-36 L -108,-36 z" class="bg01"/>
</g></g></g>
<g id="t02" transform="translate(148.63,224.57)"><g class="scale">
	<g transform="translate(5,10)"><g class="rot" transform="rotate(135)">
		<path d="M -108,-36 L 0,72 L 108,-36 L -108,-36 z" class="shadow"/>
	</g></g>
	<g class="rot" transform="rotate(135)">
    <path d="M -108,-36 L 0,72 L 108,-36 L -108,-36 z" class="bg02"/>
</g></g></g>
<g id="t03" transform="translate(266.33,59)"><g class="scale">
	<g transform="translate(5,10)"><g class="rot" transform="rotate(225)">
		<path d="M 54,-18 L 0,36 L -54,-18 L 54,-18 z" class="shadow"/>
	</g></g>
	<g class="rot" transform="rotate(225)">
    <path d="M 54,-18 L 0,36 L -54,-18 L 54,-18 z" class="bg03"/>
</g></g></g>
<g id="t04" transform="translate(75,148.24)"><g class="scale">
	<g transform="translate(5,10)"><g class="rot" transform="rotate(45)">
		<path d="M 54,-18 L 0,36 L -54,-18 L 54,-18 z" class="shadow"/>
	</g></g>
	<g class="rot" transform="rotate(45)">
    <path d="M 54,-18 L 0,36 L -54,-18 L 54,-18 z" class="bg04"/>
</g></g></g>
<g id="t05" transform="translate(73.32,320)"><g class="scale">
	<g transform="translate(5,10)"><g class="rot" transform="rotate(90)">
		<path d="M -76.36,-24.36 L 0,52 L 76.36,-24.36 L -76.36,-24.36 z" class="shadow"/>
	</g></g>
	<g class="rot" transform="rotate(90)">
    <path d="M -76.36,-24.36 L 0,52 L 76.36,-24.36 L -76.36,-24.36 z" class="bg01"/>
</g></g></g>
<g id="sq" transform="translate(330,128)"><g class="scale">
	<g transform="translate(5,10)"><g class="rot" transform="rotate(0)">
		<path d="M -38.18,-38.18 L 38.18,-38.18 L 38.18,38.18 L -38.18,38.18 L -38.18,-38.18 z" class="shadow"/>
	</g></g>
	<g class="rot" transform="rotate(0)">
    <path d="M -38.18,-38.18 L 38.18,-38.18 L 38.18,38.18 L -38.18,38.18 L -38.18,-38.18 z" class="bg05"/>
</g></g></g>
<g id="pa" transform="translate(297,311.7)"><g class="scale">
	<g transform="translate(5,10)"><g class="rot" transform="rotate(0)">
		<path d="M 81,27 L 27,-27 L -81,-27 L -27,27 L 81,27 z" class="shadow"/>
	</g></g>
	<g class="rot" transform="rotate(0)">
    <path d="M 81,27 L 27,-27 L -81,-27 L -27,27 L 81,27 z" class="bg06"/>
</g></g></g>
</g>

<g id="p11" class="a">
<g id="t01" transform="translate(287.63,272)"><g class="scale">
	<g transform="translate(5,10)"><g class="rot" transform="rotate(0)">
		<path d="M -108,-36 L 0,72 L 108,-36 L -108,-36 z" class="shadow"/>
	</g></g>
	<g class="rot" transform="rotate(0)">
    <path d="M -108,-36 L 0,72 L 108,-36 L -108,-36 z" class="bg01"/>
</g></g></g>
<g id="t02" transform="translate(179.64,308)"><g class="scale">
	<g transform="translate(5,10)"><g class="rot" transform="rotate(180)">
		<path d="M -108,-36 L 0,72 L 108,-36 L -108,-36 z" class="shadow"/>
	</g></g>
	<g class="rot" transform="rotate(180)">
    <path d="M -108,-36 L 0,72 L 108,-36 L -108,-36 z" class="bg02"/>
</g></g></g>
<g id="t03" transform="translate(43.15,239.11)"><g class="scale">
	<g transform="translate(5,10)"><g class="rot" transform="rotate(135)">
		<path d="M 54,-18 L 0,36 L -54,-18 L 54,-18 z" class="shadow"/>
	</g></g>
	<g class="rot" transform="rotate(135)">
    <path d="M 54,-18 L 0,36 L -54,-18 L 54,-18 z" class="bg03"/>
</g></g></g>
<g id="t04" transform="translate(125.68,254)"><g class="scale">
	<g transform="translate(5,10)"><g class="rot" transform="rotate(0)">
		<path d="M 54,-18 L 0,36 L -54,-18 L 54,-18 z" class="shadow"/>
	</g></g>
	<g class="rot" transform="rotate(0)">
    <path d="M 54,-18 L 0,36 L -54,-18 L 54,-18 z" class="bg04"/>
</g></g></g>
<g id="t05" transform="translate(94,113)"><g class="scale">
	<g transform="translate(5,10)"><g class="rot" transform="rotate(180)">
		<path d="M -76.36,-24.36 L 0,52 L 76.36,-24.36 L -76.36,-24.36 z" class="shadow"/>
	</g></g>
	<g class="rot" transform="rotate(180)">
    <path d="M -76.36,-24.36 L 0,52 L 76.36,-24.36 L -76.36,-24.36 z" class="bg01"/>
</g></g></g>
<g id="sq" transform="translate(71.7,290)"><g class="scale">
	<g transform="translate(5,10)"><g class="rot" transform="rotate(45)">
		<path d="M -38.18,-38.18 L 38.18,-38.18 L 38.18,38.18 L -38.18,38.18 L -38.18,-38.18 z" class="shadow"/>
	</g></g>
	<g class="rot" transform="rotate(45)">
    <path d="M -38.18,-38.18 L 38.18,-38.18 L 38.18,38.18 L -38.18,38.18 L -38.18,-38.18 z" class="bg05"/>
</g></g></g>
<g id="pa" transform="translate(94,175.58)"><g class="scale">
	<g transform="translate(5,10)"><g class="rot" transform="rotate(135)">
		<path d="M 81,27 L 27,-27 L -81,-27 L -27,27 L 81,27 z" class="shadow"/>
	</g></g>
	<g class="rot" transform="rotate(135)">
    <path d="M 81,27 L 27,-27 L -81,-27 L -27,27 L 81,27 z" class="bg06"/>
</g></g></g>
</g>

<g id="p12" class="a">
<g id="t01" transform="translate(183.33,269)"><g class="scale">
	<g transform="translate(5,10)"><g class="rot" transform="rotate(225)">
		<path d="M -108,-36 L 0,72 L 108,-36 L -108,-36 z" class="shadow"/>
	</g></g>
	<g class="rot" transform="rotate(225)">
    <path d="M -108,-36 L 0,72 L 108,-36 L -108,-36 z" class="bg01"/>
</g></g></g>
<g id="t02" transform="translate(285,269)"><g class="scale">
	<g transform="translate(5,10)"><g class="rot" transform="rotate(135)">
		<path d="M -108,-36 L 0,72 L 108,-36 L -108,-36 z" class="shadow"/>
	</g></g>
	<g class="rot" transform="rotate(135)">
    <path d="M -108,-36 L 0,72 L 108,-36 L -108,-36 z" class="bg02"/>
</g></g></g>
<g id="t03" transform="translate(234.38,396)"><g class="scale">
	<g transform="translate(5,10)"><g class="rot" transform="rotate(315)">
		<path d="M 54,-18 L 0,36 L -54,-18 L 54,-18 z" class="shadow"/>
	</g></g>
	<g class="rot" transform="rotate(315)">
    <path d="M 54,-18 L 0,36 L -54,-18 L 54,-18 z" class="bg03"/>
</g></g></g>
<g id="t04" transform="translate(155.6,328.1)"><g class="scale">
	<g transform="translate(5,10)"><g class="rot" transform="rotate(180)">
		<path d="M 54,-18 L 0,36 L -54,-18 L 54,-18 z" class="shadow"/>
	</g></g>
	<g class="rot" transform="rotate(180)">
    <path d="M 54,-18 L 0,36 L -54,-18 L 54,-18 z" class="bg04"/>
</g></g></g>
<g id="t05" transform="translate(82,117.8)"><g class="scale">
	<g transform="translate(5,10)"><g class="rot" transform="rotate(180)">
		<path d="M -76.36,-24.36 L 0,52 L 76.36,-24.36 L -76.36,-24.36 z" class="shadow"/>
	</g></g>
	<g class="rot" transform="rotate(180)">
    <path d="M -76.36,-24.36 L 0,52 L 76.36,-24.36 L -76.36,-24.36 z" class="bg01"/>
</g></g></g>
<g id="sq" transform="translate(120,180)"><g class="scale">
	<g transform="translate(5,10)"><g class="rot" transform="rotate(0)">
		<path d="M -38.18,-38.18 L 38.18,-38.18 L 38.18,38.18 L -38.18,38.18 L -38.18,-38.18 z" class="shadow"/>
	</g></g>
	<g class="rot" transform="rotate(0)">
    <path d="M -38.18,-38.18 L 38.18,-38.18 L 38.18,38.18 L -38.18,38.18 L -38.18,-38.18 z" class="bg05"/>
</g></g></g>
<g id="pa" transform="translate(386.73,180)"><g class="scale">
	<g transform="translate(5,10)"><g class="rot" transform="rotate(135)">
		<path d="M 81,27 L 27,-27 L -81,-27 L -27,27 L 81,27 z" class="shadow"/>
	</g></g>
	<g class="rot" transform="rotate(135)">
    <path d="M 81,27 L 27,-27 L -81,-27 L -27,27 L 81,27 z" class="bg06"/>
</g></g></g>
</g>

<g id="p13" class="a">
<g id="t01" transform="translate(167,269.1)"><g class="scale">
	<g transform="translate(5,10)"><g class="rot" transform="rotate(225)">
		<path d="M -108,-36 L 0,72 L 108,-36 L -108,-36 z" class="shadow"/>
	</g></g>
	<g class="rot" transform="rotate(225)">
    <path d="M -108,-36 L 0,72 L 108,-36 L -108,-36 z" class="bg01"/>
</g></g></g>
<g id="t02" transform="translate(268.85,204)"><g class="scale">
	<g transform="translate(5,10)"><g class="rot" transform="rotate(135)">
		<path d="M -108,-36 L 0,72 L 108,-36 L -108,-36 z" class="shadow"/>
	</g></g>
	<g class="rot" transform="rotate(135)">
    <path d="M -108,-36 L 0,72 L 108,-36 L -108,-36 z" class="bg02"/>
</g></g></g>
<g id="t03" transform="translate(127.9,316.9)"><g class="scale">
	<g transform="translate(5,10)"><g class="rot" transform="rotate(270)">
		<path d="M 54,-18 L 0,36 L -54,-18 L 54,-18 z" class="shadow"/>
	</g></g>
	<g class="rot" transform="rotate(270)">
    <path d="M 54,-18 L 0,36 L -54,-18 L 54,-18 z" class="bg03"/>
</g></g></g>
<g id="t04" transform="translate(104.15,123.8)"><g class="scale">
	<g transform="translate(5,10)"><g class="rot" transform="rotate(180)">
		<path d="M 54,-18 L 0,36 L -54,-18 L 54,-18 z" class="shadow"/>
	</g></g>
	<g class="rot" transform="rotate(180)">
    <path d="M 54,-18 L 0,36 L -54,-18 L 54,-18 z" class="bg04"/>
</g></g></g>
<g id="t05" transform="translate(294.2,128.7)"><g class="scale">
	<g transform="translate(5,10)"><g class="rot" transform="rotate(180)">
		<path d="M -76.36,-24.36 L 0,52 L 76.36,-24.36 L -76.36,-24.36 z" class="shadow"/>
	</g></g>
	<g class="rot" transform="rotate(180)">
    <path d="M -76.36,-24.36 L 0,52 L 76.36,-24.36 L -76.36,-24.36 z" class="bg01"/>
</g></g></g>
<g id="sq" transform="translate(120,180)"><g class="scale">
	<g transform="translate(5,10)"><g class="rot" transform="rotate(0)">
		<path d="M -38.18,-38.18 L 38.18,-38.18 L 38.18,38.18 L -38.18,38.18 L -38.18,-38.18 z" class="shadow"/>
	</g></g>
	<g class="rot" transform="rotate(0)">
    <path d="M -38.18,-38.18 L 38.18,-38.18 L 38.18,38.18 L -38.18,38.18 L -38.18,-38.18 z" class="bg05"/>
</g></g></g>
<g id="pa" transform="translate(343.63,234.11)"><g class="scale">
	<g transform="translate(5,10)"><g class="rot" transform="rotate(90)">
		<path d="M 81,27 L 27,-27 L -81,-27 L -27,27 L 81,27 z" class="shadow"/>
	</g></g>
	<g class="rot" transform="rotate(90)">
    <path d="M 81,27 L 27,-27 L -81,-27 L -27,27 L 81,27 z" class="bg06"/>
</g></g></g>
</g>

<g id="p14" class="a">
<g id="t01" transform="translate(263.11,258.1)"><g class="scale">
	<g transform="translate(5,10)"><g class="rot" transform="rotate(45)">
		<path d="M -108,-36 L 0,72 L 108,-36 L -108,-36 z" class="shadow"/>
	</g></g>
	<g class="rot" transform="rotate(45)">
    <path d="M -108,-36 L 0,72 L 108,-36 L -108,-36 z" class="bg01"/>
</g></g></g>
<g id="t02" transform="translate(176.14,264.2)"><g class="scale">
	<g transform="translate(5,10)"><g class="rot" transform="rotate(90)">
		<path d="M -108,-36 L 0,72 L 108,-36 L -108,-36 z" class="shadow"/>
	</g></g>
	<g class="rot" transform="rotate(90)">
    <path d="M -108,-36 L 0,72 L 108,-36 L -108,-36 z" class="bg02"/>
</g></g></g>
<g id="t03" transform="translate(212.17,408)"><g class="scale">
	<g transform="translate(5,10)"><g class="rot" transform="rotate(180)">
		<path d="M 54,-18 L 0,36 L -54,-18 L 54,-18 z" class="shadow"/>
	</g></g>
	<g class="rot" transform="rotate(180)">
    <path d="M 54,-18 L 0,36 L -54,-18 L 54,-18 z" class="bg03"/>
</g></g></g>
<g id="t04" transform="translate(78.7,289.6)"><g class="scale">
	<g transform="translate(5,10)"><g class="rot" transform="rotate(225)">
		<path d="M 54,-18 L 0,36 L -54,-18 L 54,-18 z" class="shadow"/>
	</g></g>
	<g class="rot" transform="rotate(225)">
    <path d="M 54,-18 L 0,36 L -54,-18 L 54,-18 z" class="bg04"/>
</g></g></g>
<g id="t05" transform="translate(140.88,193)"><g class="scale">
	<g transform="translate(5,10)"><g class="rot" transform="rotate(135)">
		<path d="M -76.36,-24.36 L 0,52 L 76.36,-24.36 L -76.36,-24.36 z" class="shadow"/>
	</g></g>
	<g class="rot" transform="rotate(135)">
    <path d="M -76.36,-24.36 L 0,52 L 76.36,-24.36 L -76.36,-24.36 z" class="bg01"/>
</g></g></g>
<g id="sq" transform="translate(66,226)"><g class="scale">
	<g transform="translate(5,10)"><g class="rot" transform="rotate(0)">
		<path d="M -38.18,-38.18 L 38.18,-38.18 L 38.18,38.18 L -38.18,38.18 L -38.18,-38.18 z" class="shadow"/>
	</g></g>
	<g class="rot" transform="rotate(0)">
    <path d="M -38.18,-38.18 L 38.18,-38.18 L 38.18,38.18 L -38.18,38.18 L -38.18,-38.18 z" class="bg05"/>
</g></g></g>
<g id="pa" transform="translate(338,336)"><g class="scale">
	<g transform="translate(5,10)"><g class="rot" transform="rotate(0)">
		<path d="M 81,27 L 27,-27 L -81,-27 L -27,27 L 81,27 z" class="shadow"/>
	</g></g>
	<g class="rot" transform="rotate(0)">
    <path d="M 81,27 L 27,-27 L -81,-27 L -27,27 L 81,27 z" class="bg06"/>
</g></g></g>
</g>

<g id="p15" class="a">
<g id="t01" transform="translate(328.33,233.4)"><g class="scale">
	<g transform="translate(5,10)"><g class="rot" transform="rotate(180)">
		<path d="M -108,-36 L 0,72 L 108,-36 L -108,-36 z" class="shadow"/>
	</g></g>
	<g class="rot" transform="rotate(180)">
    <path d="M -108,-36 L 0,72 L 108,-36 L -108,-36 z" class="bg01"/>
</g></g></g>
<g id="t02" transform="translate(220.33,197.4)"><g class="scale">
	<g transform="translate(5,10)"><g class="rot" transform="rotate(0)">
		<path d="M -108,-36 L 0,72 L 108,-36 L -108,-36 z" class="shadow"/>
	</g></g>
	<g class="rot" transform="rotate(0)">
    <path d="M -108,-36 L 0,72 L 108,-36 L -108,-36 z" class="bg02"/>
</g></g></g>
<g id="t03" transform="translate(49.6,215.36)"><g class="scale">
	<g transform="translate(5,10)"><g class="rot" transform="rotate(90)">
		<path d="M 54,-18 L 0,36 L -54,-18 L 54,-18 z" class="shadow"/>
	</g></g>
	<g class="rot" transform="rotate(90)">
    <path d="M 54,-18 L 0,36 L -54,-18 L 54,-18 z" class="bg03"/>
</g></g></g>
<g id="t04" transform="translate(166.45,327.74)"><g class="scale">
	<g transform="translate(5,10)"><g class="rot" transform="rotate(180)">
		<path d="M 54,-18 L 0,36 L -54,-18 L 54,-18 z" class="shadow"/>
	</g></g>
	<g class="rot" transform="rotate(180)">
    <path d="M 54,-18 L 0,36 L -54,-18 L 54,-18 z" class="bg04"/>
</g></g></g>
<g id="t05" transform="translate(92,193)"><g class="scale">
	<g transform="translate(5,10)"><g class="rot" transform="rotate(270)">
		<path d="M -76.36,-24.36 L 0,52 L 76.36,-24.36 L -76.36,-24.36 z" class="shadow"/>
	</g></g>
	<g class="rot" transform="rotate(270)">
    <path d="M -76.36,-24.36 L 0,52 L 76.36,-24.36 L -76.36,-24.36 z" class="bg01"/>
</g></g></g>
<g id="sq" transform="translate(398,307.5)"><g class="scale">
	<g transform="translate(5,10)"><g class="rot" transform="rotate(0)">
		<path d="M -38.18,-38.18 L 38.18,-38.18 L 38.18,38.18 L -38.18,38.18 L -38.18,-38.18 z" class="shadow"/>
	</g></g>
	<g class="rot" transform="rotate(0)">
    <path d="M -38.18,-38.18 L 38.18,-38.18 L 38.18,38.18 L -38.18,38.18 L -38.18,-38.18 z" class="bg05"/>
</g></g></g>
<g id="pa" transform="translate(182.16,269.4)"><g class="scale">
	<g transform="translate(5,10)"><g class="rot" transform="rotate(45)">
		<path d="M 81,27 L 27,-27 L -81,-27 L -27,27 L 81,27 z" class="shadow"/>
	</g></g>
	<g class="rot" transform="rotate(45)">
    <path d="M 81,27 L 27,-27 L -81,-27 L -27,27 L 81,27 z" class="bg06"/>
</g></g></g>
</g>

<g id="p16" class="a">
<g id="t01" transform="translate(213,211)"><g class="scale">
	<g transform="translate(5,10)"><g class="rot" transform="rotate(180)">
		<path d="M -108,-36 L 0,72 L 108,-36 L -108,-36 z" class="shadow"/>
	</g></g>
	<g class="rot" transform="rotate(180)">
    <path d="M -108,-36 L 0,72 L 108,-36 L -108,-36 z" class="bg01"/>
</g></g></g>
<g id="t02" transform="translate(256.2,352)"><g class="scale">
	<g transform="translate(5,10)"><g class="rot" transform="rotate(225)">
		<path d="M -108,-36 L 0,72 L 108,-36 L -108,-36 z" class="shadow"/>
	</g></g>
	<g class="rot" transform="rotate(225)">
    <path d="M -108,-36 L 0,72 L 108,-36 L -108,-36 z" class="bg02"/>
</g></g></g>
<g id="t03" transform="translate(172.43,355)"><g class="scale">
	<g transform="translate(5,10)"><g class="rot" transform="rotate(270)">
		<path d="M 54,-18 L 0,36 L -54,-18 L 54,-18 z" class="shadow"/>
	</g></g>
	<g class="rot" transform="rotate(270)">
    <path d="M 54,-18 L 0,36 L -54,-18 L 54,-18 z" class="bg03"/>
</g></g></g>
<g id="t04" transform="translate(105.07,211)"><g class="scale">
	<g transform="translate(5,10)"><g class="rot" transform="rotate(0)">
		<path d="M 54,-18 L 0,36 L -54,-18 L 54,-18 z" class="shadow"/>
	</g></g>
	<g class="rot" transform="rotate(0)">
    <path d="M 54,-18 L 0,36 L -54,-18 L 54,-18 z" class="bg04"/>
</g></g></g>
<g id="t05" transform="translate(235.9,58.66)"><g class="scale">
	<g transform="translate(5,10)"><g class="rot" transform="rotate(225)">
		<path d="M -76.36,-24.36 L 0,52 L 76.36,-24.36 L -76.36,-24.36 z" class="shadow"/>
	</g></g>
	<g class="rot" transform="rotate(225)">
    <path d="M -76.36,-24.36 L 0,52 L 76.36,-24.36 L -76.36,-24.36 z" class="bg01"/>
</g></g></g>
<g id="sq" transform="translate(193.43,104.67)"><g class="scale">
	<g transform="translate(5,10)"><g class="rot" transform="rotate(45)">
		<path d="M -38.18,-38.18 L 38.18,-38.18 L 38.18,38.18 L -38.18,38.18 L -38.18,-38.18 z" class="shadow"/>
	</g></g>
	<g class="rot" transform="rotate(45)">
    <path d="M -38.18,-38.18 L 38.18,-38.18 L 38.18,38.18 L -38.18,38.18 L -38.18,-38.18 z" class="bg05"/>
</g></g></g>
<g id="pa" transform="translate(226.15,274)"><g class="scale">
	<g transform="translate(5,10)"><g class="rot" transform="rotate(0)">
		<path d="M 81,27 L 27,-27 L -81,-27 L -27,27 L 81,27 z" class="shadow"/>
	</g></g>
	<g class="rot" transform="rotate(0)">
    <path d="M 81,27 L 27,-27 L -81,-27 L -27,27 L 81,27 z" class="bg06"/>
</g></g></g>
</g>

<g id="p17" class="a">
<g id="t01" transform="translate(218,188)"><g class="scale">
	<g transform="translate(5,10)"><g class="rot" transform="rotate(180)">
		<path d="M -108,-36 L 0,72 L 108,-36 L -108,-36 z" class="shadow"/>
	</g></g>
	<g class="rot" transform="rotate(180)">
    <path d="M -108,-36 L 0,72 L 108,-36 L -108,-36 z" class="bg01"/>
</g></g></g>
<g id="t02" transform="translate(242,260)"><g class="scale">
	<g transform="translate(5,10)"><g class="rot" transform="rotate(0)">
		<path d="M -108,-36 L 0,72 L 108,-36 L -108,-36 z" class="shadow"/>
	</g></g>
	<g class="rot" transform="rotate(0)">
    <path d="M -108,-36 L 0,72 L 108,-36 L -108,-36 z" class="bg02"/>
</g></g></g>
<g id="t03" transform="translate(44,267)"><g class="scale">
	<g transform="translate(5,10)"><g class="rot" transform="rotate(45)">
		<path d="M 54,-18 L 0,36 L -54,-18 L 54,-18 z" class="shadow"/>
	</g></g>
	<g class="rot" transform="rotate(45)">
    <path d="M 54,-18 L 0,36 L -54,-18 L 54,-18 z" class="bg03"/>
</g></g></g>
<g id="t04" transform="translate(325.43,422.11)"><g class="scale">
	<g transform="translate(5,10)"><g class="rot" transform="rotate(270)">
		<path d="M 54,-18 L 0,36 L -54,-18 L 54,-18 z" class="shadow"/>
	</g></g>
	<g class="rot" transform="rotate(270)">
    <path d="M 54,-18 L 0,36 L -54,-18 L 54,-18 z" class="bg04"/>
</g></g></g>
<g id="t05" transform="translate(283.38,342.05)"><g class="scale">
	<g transform="translate(5,10)"><g class="rot" transform="rotate(90)">
		<path d="M -76.36,-24.36 L 0,52 L 76.36,-24.36 L -76.36,-24.36 z" class="shadow"/>
	</g></g>
	<g class="rot" transform="rotate(90)">
    <path d="M -76.36,-24.36 L 0,52 L 76.36,-24.36 L -76.36,-24.36 z" class="bg01"/>
</g></g></g>
<g id="sq" transform="translate(192.04,88)"><g class="scale">
	<g transform="translate(5,10)"><g class="rot" transform="rotate(45)">
		<path d="M -38.18,-38.18 L 38.18,-38.18 L 38.18,38.18 L -38.18,38.18 L -38.18,-38.18 z" class="shadow"/>
	</g></g>
	<g class="rot" transform="rotate(45)">
    <path d="M -38.18,-38.18 L 38.18,-38.18 L 38.18,38.18 L -38.18,38.18 L -38.18,-38.18 z" class="bg05"/>
</g></g></g>
<g id="pa" transform="translate(160.83,304.6)"><g class="scale">
	<g transform="translate(5,10)"><g class="rot" transform="rotate(0)">
		<path d="M 81,27 L 27,-27 L -81,-27 L -27,27 L 81,27 z" class="shadow"/>
	</g></g>
	<g class="rot" transform="rotate(0)">
    <path d="M 81,27 L 27,-27 L -81,-27 L -27,27 L 81,27 z" class="bg06"/>
</g></g></g>
</g>

<g id="p18" class="a">
<g id="t01" transform="translate(228,194)"><g class="scale">
	<g transform="translate(5,10)"><g class="rot" transform="rotate(135)">
		<path d="M -108,-36 L 0,72 L 108,-36 L -108,-36 z" class="shadow"/>
	</g></g>
	<g class="rot" transform="rotate(135)">
    <path d="M -108,-36 L 0,72 L 108,-36 L -108,-36 z" class="bg01"/>
</g></g></g>
<g id="t02" transform="translate(126,194)"><g class="scale">
	<g transform="translate(5,10)"><g class="rot" transform="rotate(225)">
		<path d="M -108,-36 L 0,72 L 108,-36 L -108,-36 z" class="shadow"/>
	</g></g>
	<g class="rot" transform="rotate(225)">
    <path d="M -108,-36 L 0,72 L 108,-36 L -108,-36 z" class="bg02"/>
</g></g></g>
<g id="t03" transform="translate(290.9,434)"><g class="scale">
	<g transform="translate(5,10)"><g class="rot" transform="rotate(45)">
		<path d="M 54,-18 L 0,36 L -54,-18 L 54,-18 z" class="shadow"/>
	</g></g>
	<g class="rot" transform="rotate(45)">
    <path d="M 54,-18 L 0,36 L -54,-18 L 54,-18 z" class="bg03"/>
</g></g></g>
<g id="t04" transform="translate(91.38,356.07)"><g class="scale">
	<g transform="translate(5,10)"><g class="rot" transform="rotate(135)">
		<path d="M 54,-18 L 0,36 L -54,-18 L 54,-18 z" class="shadow"/>
	</g></g>
	<g class="rot" transform="rotate(135)">
    <path d="M 54,-18 L 0,36 L -54,-18 L 54,-18 z" class="bg04"/>
</g></g></g>
<g id="t05" transform="translate(178.63,328.62)"><g class="scale">
	<g transform="translate(5,10)"><g class="rot" transform="rotate(315)">
		<path d="M -76.36,-24.36 L 0,52 L 76.36,-24.36 L -76.36,-24.36 z" class="shadow"/>
	</g></g>
	<g class="rot" transform="rotate(315)">
    <path d="M -76.36,-24.36 L 0,52 L 76.36,-24.36 L -76.36,-24.36 z" class="bg01"/>
</g></g></g>
<g id="sq" transform="translate(195,93)"><g class="scale">
	<g transform="translate(5,10)"><g class="rot" transform="rotate(0)">
		<path d="M -38.18,-38.18 L 38.18,-38.18 L 38.18,38.18 L -38.18,38.18 L -38.18,-38.18 z" class="shadow"/>
	</g></g>
	<g class="rot" transform="rotate(0)">
    <path d="M -38.18,-38.18 L 38.18,-38.18 L 38.18,38.18 L -38.18,38.18 L -38.18,-38.18 z" class="bg05"/>
</g></g></g>
<g id="pa" transform="translate(253.4,333.47)"><g class="scale">
	<g transform="translate(5,10)"><g class="rot" transform="rotate(45)">
		<path d="M 81,27 L 27,-27 L -81,-27 L -27,27 L 81,27 z" class="shadow"/>
	</g></g>
	<g class="rot" transform="rotate(45)">
    <path d="M 81,27 L 27,-27 L -81,-27 L -27,27 L 81,27 z" class="bg06"/>
</g></g></g>
</g>

<g id="p19" class="a">
<g id="t01" transform="translate(216,194.66)"><g class="scale">
	<g transform="translate(5,10)"><g class="rot" transform="rotate(180)">
		<path d="M -108,-36 L 0,72 L 108,-36 L -108,-36 z" class="shadow"/>
	</g></g>
	<g class="rot" transform="rotate(180)">
    <path d="M -108,-36 L 0,72 L 108,-36 L -108,-36 z" class="bg01"/>
</g></g></g>
<g id="t02" transform="translate(173.7,347)"><g class="scale">
	<g transform="translate(5,10)"><g class="rot" transform="rotate(45)">
		<path d="M -108,-36 L 0,72 L 108,-36 L -108,-36 z" class="shadow"/>
	</g></g>
	<g class="rot" transform="rotate(45)">
    <path d="M -108,-36 L 0,72 L 108,-36 L -108,-36 z" class="bg02"/>
</g></g></g>
<g id="t03" transform="translate(204.52,448.52)"><g class="scale">
	<g transform="translate(5,10)"><g class="rot" transform="rotate(45)">
		<path d="M 54,-18 L 0,36 L -54,-18 L 54,-18 z" class="shadow"/>
	</g></g>
	<g class="rot" transform="rotate(45)">
    <path d="M 54,-18 L 0,36 L -54,-18 L 54,-18 z" class="bg03"/>
</g></g></g>
<g id="t04" transform="translate(296.63,383)"><g class="scale">
	<g transform="translate(5,10)"><g class="rot" transform="rotate(0)">
		<path d="M 54,-18 L 0,36 L -54,-18 L 54,-18 z" class="shadow"/>
	</g></g>
	<g class="rot" transform="rotate(0)">
    <path d="M 54,-18 L 0,36 L -54,-18 L 54,-18 z" class="bg04"/>
</g></g></g>
<g id="t05" transform="translate(184.17,254.62)"><g class="scale">
	<g transform="translate(5,10)"><g class="rot" transform="rotate(0)">
		<path d="M -76.36,-24.36 L 0,52 L 76.36,-24.36 L -76.36,-24.36 z" class="shadow"/>
	</g></g>
	<g class="rot" transform="rotate(0)">
    <path d="M -76.36,-24.36 L 0,52 L 76.36,-24.36 L -76.36,-24.36 z" class="bg01"/>
</g></g></g>
<g id="sq" transform="translate(267,96)"><g class="scale">
	<g transform="translate(5,10)"><g class="rot" transform="rotate(0)">
		<path d="M -38.18,-38.18 L 38.18,-38.18 L 38.18,38.18 L -38.18,38.18 L -38.18,-38.18 z" class="shadow"/>
	</g></g>
	<g class="rot" transform="rotate(0)">
    <path d="M -38.18,-38.18 L 38.18,-38.18 L 38.18,38.18 L -38.18,38.18 L -38.18,-38.18 z" class="bg05"/>
</g></g></g>
<g id="pa" transform="translate(189,96)"><g class="scale">
	<g transform="translate(5,10)"><g class="rot" transform="rotate(90)">
		<path d="M 81,27 L 27,-27 L -81,-27 L -27,27 L 81,27 z" class="shadow"/>
	</g></g>
	<g class="rot" transform="rotate(90)">
    <path d="M 81,27 L 27,-27 L -81,-27 L -27,27 L 81,27 z" class="bg06"/>
</g></g></g>
</g>

<g id="p20" class="a">
<g id="t01" transform="translate(302.16,264.6)"><g class="scale">
	<g transform="translate(5,10)"><g class="rot" transform="rotate(180)">
		<path d="M -108,-36 L 0,72 L 108,-36 L -108,-36 z" class="shadow"/>
	</g></g>
	<g class="rot" transform="rotate(180)">
    <path d="M -108,-36 L 0,72 L 108,-36 L -108,-36 z" class="bg01"/>
</g></g></g>
<g id="t02" transform="translate(118.47,295.78)"><g class="scale">
	<g transform="translate(5,10)"><g class="rot" transform="rotate(180)">
		<path d="M -108,-36 L 0,72 L 108,-36 L -108,-36 z" class="shadow"/>
	</g></g>
	<g class="rot" transform="rotate(180)">
    <path d="M -108,-36 L 0,72 L 108,-36 L -108,-36 z" class="bg02"/>
</g></g></g>
<g id="t03" transform="translate(235,116)"><g class="scale">
	<g transform="translate(5,10)"><g class="rot" transform="rotate(270)">
		<path d="M 54,-18 L 0,36 L -54,-18 L 54,-18 z" class="shadow"/>
	</g></g>
	<g class="rot" transform="rotate(270)">
    <path d="M 54,-18 L 0,36 L -54,-18 L 54,-18 z" class="bg03"/>
</g></g></g>
<g id="t04" transform="translate(307,116)"><g class="scale">
	<g transform="translate(5,10)"><g class="rot" transform="rotate(90)">
		<path d="M 54,-18 L 0,36 L -54,-18 L 54,-18 z" class="shadow"/>
	</g></g>
	<g class="rot" transform="rotate(90)">
    <path d="M 54,-18 L 0,36 L -54,-18 L 54,-18 z" class="bg04"/>
</g></g></g>
<g id="t05" transform="translate(194.78,248.13)"><g class="scale">
	<g transform="translate(5,10)"><g class="rot" transform="rotate(0)">
		<path d="M -76.36,-24.36 L 0,52 L 76.36,-24.36 L -76.36,-24.36 z" class="shadow"/>
	</g></g>
	<g class="rot" transform="rotate(0)">
    <path d="M -76.36,-24.36 L 0,52 L 76.36,-24.36 L -76.36,-24.36 z" class="bg01"/>
</g></g></g>
<g id="sq" transform="translate(271,169.9)"><g class="scale">
	<g transform="translate(5,10)"><g class="rot" transform="rotate(45)">
		<path d="M -38.18,-38.18 L 38.18,-38.18 L 38.18,38.18 L -38.18,38.18 L -38.18,-38.18 z" class="shadow"/>
	</g></g>
	<g class="rot" transform="rotate(45)">
    <path d="M -38.18,-38.18 L 38.18,-38.18 L 38.18,38.18 L -38.18,38.18 L -38.18,-38.18 z" class="bg05"/>
</g></g></g>
<g id="pa" transform="translate(91.45,196.8)"><g class="scale">
	<g transform="translate(5,10)"><g class="rot" transform="rotate(90)">
		<path d="M 81,27 L 27,-27 L -81,-27 L -27,27 L 81,27 z" class="shadow"/>
	</g></g>
	<g class="rot" transform="rotate(90)">
    <path d="M 81,27 L 27,-27 L -81,-27 L -27,27 L 81,27 z" class="bg06"/>
</g></g></g>
</g>

<g id="p21" class="a">
<g id="t01" transform="translate(210,287.4)"><g class="scale">
	<g transform="translate(5,10)"><g class="rot" transform="rotate(0)">
		<path d="M -108,-36 L 0,72 L 108,-36 L -108,-36 z" class="shadow"/>
	</g></g>
	<g class="rot" transform="rotate(0)">
    <path d="M -108,-36 L 0,72 L 108,-36 L -108,-36 z" class="bg01"/>
</g></g></g>
<g id="t02" transform="translate(210,210)"><g class="scale">
	<g transform="translate(5,10)"><g class="rot" transform="rotate(180)">
		<path d="M -108,-36 L 0,72 L 108,-36 L -108,-36 z" class="shadow"/>
	</g></g>
	<g class="rot" transform="rotate(180)">
    <path d="M -108,-36 L 0,72 L 108,-36 L -108,-36 z" class="bg02"/>
</g></g></g>
<g id="t03" transform="translate(140.8,362)"><g class="scale">
	<g transform="translate(5,10)"><g class="rot" transform="rotate(90)">
		<path d="M 54,-18 L 0,36 L -54,-18 L 54,-18 z" class="shadow"/>
	</g></g>
	<g class="rot" transform="rotate(90)">
    <path d="M 54,-18 L 0,36 L -54,-18 L 54,-18 z" class="bg03"/>
</g></g></g>
<g id="t04" transform="translate(276,362)"><g class="scale">
	<g transform="translate(5,10)"><g class="rot" transform="rotate(270)">
		<path d="M 54,-18 L 0,36 L -54,-18 L 54,-18 z" class="shadow"/>
	</g></g>
	<g class="rot" transform="rotate(270)">
    <path d="M 54,-18 L 0,36 L -54,-18 L 54,-18 z" class="bg04"/>
</g></g></g>
<g id="t05" transform="translate(331,158.7)"><g class="scale">
	<g transform="translate(5,10)"><g class="rot" transform="rotate(180)">
		<path d="M -76.36,-24.36 L 0,52 L 76.36,-24.36 L -76.36,-24.36 z" class="shadow"/>
	</g></g>
	<g class="rot" transform="rotate(180)">
    <path d="M -76.36,-24.36 L 0,52 L 76.36,-24.36 L -76.36,-24.36 z" class="bg01"/>
</g></g></g>
<g id="sq" transform="translate(210,85)"><g class="scale">
	<g transform="translate(5,10)"><g class="rot" transform="rotate(45)">
		<path d="M -38.18,-38.18 L 38.18,-38.18 L 38.18,38.18 L -38.18,38.18 L -38.18,-38.18 z" class="shadow"/>
	</g></g>
	<g class="rot" transform="rotate(45)">
    <path d="M -38.18,-38.18 L 38.18,-38.18 L 38.18,38.18 L -38.18,38.18 L -38.18,-38.18 z" class="bg05"/>
</g></g></g>
<g id="pa" transform="translate(85.4,156.7)"><g class="scale">
	<g transform="translate(5,10)"><g class="rot" transform="rotate(0)">
		<path d="M 81,27 L 27,-27 L -81,-27 L -27,27 L 81,27 z" class="shadow"/>
	</g></g>
	<g class="rot" transform="rotate(0)">
    <path d="M 81,27 L 27,-27 L -81,-27 L -27,27 L 81,27 z" class="bg06"/>
</g></g></g>
</g>

</svg>
