<?xml version="1.0" encoding="UTF-8" standalone="no"?>
<svg xmlns:svg="http://www.w3.org/2000/svg" xmlns="http://www.w3.org/2000/svg" xmlns:xlink="http://www.w3.org/1999/xlink" version="1.0" width="100%" height="100%" viewBox="0 0 640 200" id="equation" style="display:inline">
<defs/>
<path d="M 345.44,29.40 C 342.92,29.40 340.40,30.85 338.46,33.73 L 338.04,34.35 L 338.04,51.32 L 328.26,51.32 C 324.55,51.32 321.56,55.77 321.56,61.29 L 321.56,92.86 C 321.56,98.38 324.55,102.84 328.26,102.84 L 338.04,102.84 L 338.04,119.80 L 338.46,120.43 C 342.34,126.19 348.56,126.19 352.43,120.43 L 374.56,87.48 C 378.43,81.71 378.43,72.44 374.56,66.67 L 352.43,33.73 C 350.49,30.85 347.97,29.40 345.44,29.40 z" id="p3323" style="fill:#ffffff;fill-opacity:0.77;fill-rule:nonzero;stroke:#584131;stroke-width:4;stroke-linecap:round;marker:none;"/>
<g transform="translate(27.70,0)" id="g3642">
<path d="M 154.52,84.38 L 227.38,84.38" id="p3640" style="fill:none;stroke:#584131;stroke-width:8;stroke-linecap:round;stroke-opacity:1"/>
<g transform="translate(350.58,-272.48)" id="g3629">
<rect width="66.55" height="66.55" ry="14.01" x="-193.86" y="366.70" id="r3631" style="fill:#ffffff;fill-opacity:0.77;fill-rule:nonzero;stroke:#584131;stroke-width:4;stroke-linecap:round;marker:none;"/>
<path d="M -171.65,398.26 C -173.65,397.19 -175.11,396.01 -176.02,394.69 C -177.27,392.90 -177.90,390.84 -177.90,388.51 C -177.90,384.67 -176.09,381.54 -172.49,379.10 C -169.68,377.23 -165.96,376.29 -161.33,376.29 C -155.21,376.29 -150.69,377.46 -147.77,379.79 C -144.83,382.12 -143.37,385.06 -143.37,388.60 C -143.37,390.66 -143.95,392.59 -145.12,394.38 C -145.99,395.72 -147.37,397.01 -149.24,398.26 C -146.76,399.44 -144.92,401.02 -143.71,402.98 C -142.48,404.93 -141.87,407.10 -141.87,409.48 C -141.87,411.77 -142.40,413.91 -143.46,415.91 C -144.50,417.89 -145.79,419.42 -147.33,420.51 C -148.86,421.59 -150.76,422.38 -153.05,422.88 C -155.32,423.40 -157.75,423.66 -160.33,423.66 C -165.19,423.66 -168.90,423.09 -171.46,421.94 C -174.02,420.80 -175.97,419.11 -177.30,416.88 C -178.64,414.65 -179.30,412.16 -179.30,409.41 C -179.30,406.73 -178.68,404.46 -177.43,402.60 C -176.18,400.73 -174.25,399.28 -171.65,398.26 M -165.93,389.26 C -165.93,390.84 -165.44,392.12 -164.46,393.10 C -163.46,394.06 -162.14,394.54 -160.49,394.54 C -159.03,394.54 -157.83,394.06 -156.90,393.10 C -155.96,392.14 -155.49,390.90 -155.49,389.38 C -155.49,387.80 -155.98,386.52 -156.96,385.54 C -157.94,384.54 -159.19,384.04 -160.71,384.04 C -162.25,384.04 -163.51,384.53 -164.49,385.51 C -165.45,386.47 -165.93,387.72 -165.93,389.26 M -166.62,408.98 C -166.62,411.00 -166.00,412.65 -164.77,413.94 C -163.54,415.22 -162.14,415.85 -160.55,415.85 C -159.03,415.85 -157.67,415.21 -156.46,413.91 C -155.25,412.60 -154.65,410.94 -154.65,408.94 C -154.65,406.92 -155.26,405.27 -156.49,403.98 C -157.70,402.68 -159.11,402.04 -160.71,402.04 C -162.29,402.04 -163.68,402.66 -164.87,403.91 C -166.03,405.16 -166.62,406.85 -166.62,408.98" id="p3633" style="font-size:64px;font-style:normal;font-variant:normal;font-weight:normal;font-stretch:normal;text-align:start;line-height:80.00%;writing-mode:lr-tb;text-anchor:start;fill:#584131;font-family:Arial Black;-inkscape-font-specification:Arial Black"/>
</g>
<g transform="translate(268.79,-436.74)" id="g3617">
<rect width="66.55" height="66.55" ry="14.01" x="-112.11" y="444.94" id="r3619" style="fill:#ffffff;fill-opacity:0.77;fill-rule:nonzero;stroke:#584131;stroke-width:4;stroke-linecap:round;marker:none;"/>
<path d="M -97.55,478.04 C -97.55,469.33 -95.99,463.24 -92.86,459.76 C -89.71,456.28 -84.93,454.54 -78.52,454.54 C -75.43,454.54 -72.90,454.92 -70.92,455.69 C -68.94,456.44 -67.33,457.43 -66.08,458.66 C -64.83,459.87 -63.85,461.15 -63.14,462.51 C -62.41,463.84 -61.83,465.40 -61.39,467.19 C -60.54,470.61 -60.11,474.17 -60.11,477.88 C -60.11,486.19 -61.52,492.28 -64.33,496.13 C -67.14,499.99 -71.99,501.91 -78.86,501.91 C -82.71,501.91 -85.83,501.30 -88.20,500.07 C -90.58,498.84 -92.53,497.04 -94.05,494.66 C -95.15,492.97 -96.02,490.67 -96.64,487.76 C -97.25,484.82 -97.55,481.58 -97.55,478.04 M -84.92,478.07 C -84.92,483.90 -84.41,487.89 -83.39,490.04 C -82.35,492.16 -80.85,493.22 -78.89,493.22 C -77.60,493.22 -76.49,492.78 -75.55,491.88 C -74.59,490.96 -73.89,489.53 -73.45,487.57 C -73.00,485.61 -72.77,482.56 -72.77,478.41 C -72.77,472.33 -73.29,468.25 -74.33,466.16 C -75.35,464.06 -76.89,463.01 -78.95,463.01 C -81.06,463.01 -82.58,464.08 -83.52,466.22 C -84.45,468.35 -84.92,472.30 -84.92,478.07" id="p3621" style="font-size:64px;font-style:normal;font-variant:normal;font-weight:normal;font-stretch:normal;text-align:start;line-height:80.00%;writing-mode:lr-tb;text-anchor:start;fill:#584131;font-family:Arial Black;-inkscape-font-specification:Arial Black"/>
</g>
</g>
<g transform="matrix(1.87,0.22,-0.22,1.87,761.17,-794.52)" id="g3623">
<rect width="66.55" height="66.55" ry="14.01" x="-112.11" y="444.94" id="r3625" style="fill:#ffffff;fill-opacity:0.77;fill-rule:nonzero;stroke:#584131;stroke-width:4;stroke-linecap:round;marker:none;"/>
<path d="M -97.55,478.04 C -97.55,469.33 -95.99,463.24 -92.86,459.76 C -89.71,456.28 -84.93,454.54 -78.52,454.54 C -75.43,454.54 -72.90,454.92 -70.92,455.69 C -68.94,456.44 -67.33,457.43 -66.08,458.66 C -64.83,459.87 -63.85,461.15 -63.14,462.51 C -62.41,463.84 -61.83,465.40 -61.39,467.19 C -60.54,470.61 -60.11,474.17 -60.11,477.88 C -60.11,486.19 -61.52,492.28 -64.33,496.13 C -67.14,499.99 -71.99,501.91 -78.86,501.91 C -82.71,501.91 -85.83,501.30 -88.20,500.07 C -90.58,498.84 -92.53,497.04 -94.05,494.66 C -95.15,492.97 -96.02,490.67 -96.64,487.76 C -97.25,484.82 -97.55,481.58 -97.55,478.04 M -84.92,478.07 C -84.92,483.90 -84.41,487.89 -83.39,490.04 C -82.35,492.16 -80.85,493.22 -78.89,493.22 C -77.60,493.22 -76.49,492.78 -75.55,491.88 C -74.59,490.96 -73.89,489.53 -73.45,487.57 C -73.00,485.61 -72.77,482.56 -72.77,478.41 C -72.77,472.33 -73.29,468.25 -74.33,466.16 C -75.35,464.06 -76.89,463.01 -78.95,463.01 C -81.06,463.01 -82.58,464.08 -83.52,466.22 C -84.45,468.35 -84.92,472.30 -84.92,478.07" id="p3627" style="font-size:64px;font-style:normal;font-variant:normal;font-weight:normal;font-stretch:normal;text-align:start;line-height:80.00%;writing-mode:lr-tb;text-anchor:start;fill:#584131;font-family:Arial Black;-inkscape-font-specification:Arial Black"/>
</g>
<g transform="translate(57.29,-60.28)" id="g3635">
<path d="M 179.65,68.17 C 179.95,68.17 192.10,97.10 192.35,97.28 C 192.61,97.47 223.87,100.07 223.97,100.38 C 224.07,100.67 200.31,121.14 200.20,121.45 C 200.11,121.74 207.29,152.28 207.04,152.47 C 206.78,152.65 179.95,136.39 179.65,136.39 C 179.34,136.39 152.51,152.65 152.26,152.47 C 152.00,152.28 159.18,121.74 159.09,121.45 C 158.99,121.14 135.22,100.67 135.32,100.38 C 135.42,100.07 166.68,97.47 166.94,97.28 C 167.20,97.10 179.34,68.17 179.65,68.17 z" id="p3327" style="fill:#ffff00;fill-opacity:0.35;fill-rule:nonzero;marker:none;"/>
<path d="M 187.91,80.19 C 188.16,80.25 192.61,105.45 192.78,105.64 C 192.95,105.84 217.34,113.53 217.37,113.79 C 217.40,114.05 194.81,126.05 194.67,126.27 C 194.55,126.49 194.76,152.08 194.52,152.18 C 194.28,152.28 175.88,134.51 175.63,134.46 C 175.38,134.40 151.12,142.51 150.95,142.32 C 150.78,142.12 161.99,119.12 161.97,118.87 C 161.94,118.61 146.72,98.05 146.86,97.83 C 146.99,97.61 172.32,101.17 172.56,101.06 C 172.80,100.97 187.67,80.14 187.91,80.19 z" id="p3333" style="fill:#ffff00;fill-opacity:0.35;fill-rule:nonzero;marker:none;"/>
<path d="M 179.14,157.49 C 179.14,156.92 179.12,154.66 179.12,154.66 C 179.12,154.66 171.27,148.10 170.84,143.97 C 170.41,139.84 170.56,131.42 170.56,131.42 C 170.56,131.42 170.59,130.92 170.08,129.14 C 167.57,126.67 174.23,122.18 176.83,128.42 C 177.40,132.99 177.42,133.41 177.40,135.41 C 177.40,136.13 177.37,116.05 177.40,113.44 C 178.99,112.11 180.75,110.37 184.25,113.59 C 184.33,115.53 184.25,134.13 184.25,134.13 L 184.39,122.43 C 184.39,122.43 190.66,120.86 190.80,123.57 C 190.95,126.28 190.66,132.56 190.66,132.56 L 190.95,124.00 C 190.95,124.00 195.83,122.96 197.83,126.24 C 197.82,130.53 197.66,134.10 197.66,134.10 C 197.66,134.10 197.64,133.73 197.86,126.90 C 198.00,126.90 200.36,126.00 202.50,127.99 C 203.07,131.13 202.65,144.12 202.65,144.12 C 202.65,144.12 202.61,147.67 199.36,151.24 C 198.45,155.32 198.44,157.64 198.44,157.64 L 179.14,157.49 z" id="p3329" style="opacity:0.76;fill:#ffffff;stroke:#000000;stroke-width:1.67px;stroke-linecap:butt;stroke-linejoin:round;stroke-opacity:1"/>
</g>
</svg>
