<?xml version="1.0" encoding="UTF-8" standalone="no"?>
<svg xmlns:svg="http://www.w3.org/2000/svg" xmlns="http://www.w3.org/2000/svg" xmlns:xlink="http://www.w3.org/1999/xlink" version="1.0" width="100%" height="100%" viewBox="0 0 640 200" id="equation" style="display:inline">
<defs/>
<path d="M 215.85,59.86 L 230.95,59.86 L 236.23,69.11 L 242.35,59.86 L 256.39,59.86 L 245.07,75.67 L 257.20,93.04 L 242.35,93.04 L 236.23,82.36 L 229.01,93.04 L 215.23,93.04 L 227.29,75.67 L 215.85,59.86" id="p3400" style="font-size:64px;font-style:normal;font-variant:normal;font-weight:normal;font-stretch:normal;text-align:start;line-height:80.00%;writing-mode:lr-tb;text-anchor:start;fill:#584131;font-family:Arial Black;-inkscape-font-specification:Arial Black"/>
<g transform="matrix(1.39,0,0,1.39,260.22,-586.26)" id="g3311">
<rect width="66.55" height="66.55" ry="14.01" x="-112.11" y="444.94" id="r3313" style="fill:#ffffff;fill-opacity:0.77;fill-rule:nonzero;stroke:#584131;stroke-width:4;stroke-linecap:round;marker:none;"/>
<path d="M -97.55,478.04 C -97.55,469.33 -95.99,463.24 -92.86,459.76 C -89.71,456.28 -84.93,454.54 -78.52,454.54 C -75.43,454.54 -72.90,454.92 -70.92,455.69 C -68.94,456.44 -67.33,457.43 -66.08,458.66 C -64.83,459.87 -63.85,461.15 -63.14,462.51 C -62.41,463.84 -61.83,465.40 -61.39,467.19 C -60.54,470.61 -60.11,474.17 -60.11,477.88 C -60.11,486.19 -61.52,492.28 -64.33,496.13 C -67.14,499.99 -71.99,501.91 -78.86,501.91 C -82.71,501.91 -85.83,501.30 -88.20,500.07 C -90.58,498.84 -92.53,497.04 -94.05,494.66 C -95.15,492.97 -96.02,490.67 -96.64,487.76 C -97.25,484.82 -97.55,481.58 -97.55,478.04 M -84.92,478.07 C -84.92,483.90 -84.41,487.89 -83.39,490.04 C -82.35,492.16 -80.85,493.22 -78.89,493.22 C -77.60,493.22 -76.49,492.78 -75.55,491.88 C -74.59,490.96 -73.89,489.53 -73.45,487.57 C -73.00,485.61 -72.77,482.56 -72.77,478.41 C -72.77,472.33 -73.29,468.25 -74.33,466.16 C -75.35,464.06 -76.89,463.01 -78.95,463.01 C -81.06,463.01 -82.58,464.08 -83.52,466.22 C -84.45,468.35 -84.92,472.30 -84.92,478.07" id="p3315" style="font-size:64px;font-style:normal;font-variant:normal;font-weight:normal;font-stretch:normal;text-align:start;line-height:80.00%;writing-mode:lr-tb;text-anchor:start;fill:#584131;font-family:Arial Black;-inkscape-font-specification:Arial Black"/>
</g>
<path d="M 439.72,38.36 C 437.20,38.36 434.68,39.81 432.74,42.69 L 432.32,43.31 L 432.32,60.28 L 422.54,60.28 C 418.83,60.28 415.84,64.73 415.84,70.25 L 415.84,101.82 C 415.84,107.34 418.83,111.80 422.54,111.80 L 432.32,111.80 L 432.32,128.76 L 432.74,129.39 C 436.62,135.15 442.84,135.15 446.71,129.39 L 468.84,96.44 C 472.71,90.67 472.71,81.40 468.84,75.63 L 446.71,42.69 C 444.77,39.81 442.25,38.36 439.72,38.36 z" id="p3323" style="fill:#ffffff;fill-opacity:0.77;fill-rule:nonzero;stroke:#584131;stroke-width:4;stroke-linecap:round;marker:none;"/>
<path d="M 178.00,59.21 C 178.31,59.21 190.45,88.14 190.71,88.32 C 190.97,88.51 222.23,91.11 222.33,91.42 C 222.43,91.71 198.66,112.18 198.56,112.49 C 198.47,112.78 205.65,143.32 205.40,143.51 C 205.14,143.69 178.31,127.43 178.00,127.43 C 177.70,127.43 150.87,143.69 150.61,143.51 C 150.36,143.32 157.54,112.78 157.45,112.49 C 157.35,112.18 133.58,91.71 133.68,91.42 C 133.78,91.11 165.04,88.51 165.30,88.32 C 165.56,88.14 177.70,59.21 178.00,59.21 z" id="p3327" style="fill:#ffff00;fill-opacity:0.35;fill-rule:nonzero;marker:none;"/>
<path d="M 186.27,71.23 C 186.52,71.29 190.96,96.49 191.14,96.68 C 191.31,96.88 215.70,104.57 215.73,104.83 C 215.76,105.09 193.17,117.09 193.03,117.31 C 192.90,117.53 193.12,143.12 192.88,143.22 C 192.64,143.32 174.23,125.55 173.99,125.50 C 173.74,125.44 149.48,133.55 149.30,133.36 C 149.13,133.16 160.35,110.16 160.33,109.91 C 160.30,109.65 145.08,89.09 145.21,88.87 C 145.35,88.65 170.68,92.21 170.92,92.10 C 171.16,92.01 186.03,71.18 186.27,71.23 z" id="p3333" style="fill:#ffff00;fill-opacity:0.35;fill-rule:nonzero;marker:none;"/>
<path d="M 177.50,148.53 C 177.50,147.96 177.48,145.70 177.48,145.70 C 177.48,145.70 169.63,139.14 169.20,135.01 C 168.77,130.88 168.92,122.46 168.92,122.46 C 168.92,122.46 168.95,121.96 168.44,120.18 C 165.93,117.71 172.59,113.22 175.19,119.46 C 175.76,124.03 175.78,124.45 175.76,126.45 C 175.76,127.17 175.73,107.09 175.76,104.48 C 177.35,103.15 179.11,101.41 182.61,104.63 C 182.69,106.57 182.61,125.17 182.61,125.17 L 182.75,113.47 C 182.75,113.47 189.02,111.90 189.16,114.61 C 189.31,117.32 189.02,123.60 189.02,123.60 L 189.31,115.04 C 189.31,115.04 194.19,114.00 196.19,117.28 C 196.18,121.57 196.02,125.14 196.02,125.14 C 196.02,125.14 196.00,124.77 196.22,117.94 C 196.36,117.94 198.72,117.04 200.86,119.03 C 201.43,122.17 201.01,135.16 201.01,135.16 C 201.01,135.16 200.97,138.71 197.72,142.28 C 196.81,146.36 196.80,148.68 196.80,148.68 L 177.50,148.53 z" id="p3329" style="opacity:0.76;fill:#ffffff;stroke:#000000;stroke-width:1.67px;stroke-linecap:butt;stroke-linejoin:round;stroke-opacity:1"/>
<g transform="matrix(1.77,-0.23,0.23,1.77,568.04,-384.93)" id="g3402">
<rect width="66.55" height="66.55" ry="14.01" x="-193.86" y="207.86" id="r3404" style="fill:#ffffff;fill-opacity:0.77;fill-rule:nonzero;stroke:#584131;stroke-width:4;stroke-linecap:round;marker:none;"/>
<path d="M -141.49,264.44 L -179.68,264.44 C -179.24,260.67 -177.92,257.13 -175.71,253.82 C -173.48,250.48 -169.31,246.56 -163.21,242.03 C -159.48,239.26 -157.09,237.16 -156.05,235.72 C -155.01,234.28 -154.49,232.92 -154.49,231.63 C -154.49,230.23 -155.01,229.05 -156.05,228.07 C -157.07,227.07 -158.37,226.57 -159.93,226.57 C -161.55,226.57 -162.89,227.08 -163.93,228.10 C -164.95,229.12 -165.64,230.92 -165.99,233.50 L -178.74,232.47 C -178.24,228.89 -177.32,226.10 -175.99,224.10 C -174.66,222.08 -172.78,220.53 -170.37,219.47 C -167.93,218.39 -164.56,217.85 -160.27,217.85 C -155.79,217.85 -152.31,218.36 -149.83,219.38 C -147.33,220.40 -145.38,221.97 -143.96,224.10 C -142.52,226.20 -141.80,228.57 -141.80,231.19 C -141.80,233.98 -142.63,236.65 -144.27,239.19 C -145.90,241.73 -148.87,244.52 -153.18,247.57 C -155.74,249.34 -157.46,250.58 -158.33,251.28 C -159.19,251.99 -160.20,252.92 -161.37,254.07 L -141.49,254.07 L -141.49,264.44" id="p3406" style="font-size:64px;font-style:normal;font-variant:normal;font-weight:normal;font-stretch:normal;text-align:start;line-height:80.00%;writing-mode:lr-tb;text-anchor:start;fill:#584131;font-family:Arial Black;-inkscape-font-specification:Arial Black"/>
</g>
<g transform="matrix(1.57,0.12,-0.12,1.57,735.44,-654.93)" id="g3408">
<rect width="66.55" height="66.55" ry="14.01" x="-112.11" y="444.94" id="r3410" style="fill:#ffffff;fill-opacity:0.77;fill-rule:nonzero;stroke:#584131;stroke-width:4;stroke-linecap:round;marker:none;"/>
<path d="M -97.55,478.04 C -97.55,469.33 -95.99,463.24 -92.86,459.76 C -89.71,456.28 -84.93,454.54 -78.52,454.54 C -75.43,454.54 -72.90,454.92 -70.92,455.69 C -68.94,456.44 -67.33,457.43 -66.08,458.66 C -64.83,459.87 -63.85,461.15 -63.14,462.51 C -62.41,463.84 -61.83,465.40 -61.39,467.19 C -60.54,470.61 -60.11,474.17 -60.11,477.88 C -60.11,486.19 -61.52,492.28 -64.33,496.13 C -67.14,499.99 -71.99,501.91 -78.86,501.91 C -82.71,501.91 -85.83,501.30 -88.20,500.07 C -90.58,498.84 -92.53,497.04 -94.05,494.66 C -95.15,492.97 -96.02,490.67 -96.64,487.76 C -97.25,484.82 -97.55,481.58 -97.55,478.04 M -84.92,478.07 C -84.92,483.90 -84.41,487.89 -83.39,490.04 C -82.35,492.16 -80.85,493.22 -78.89,493.22 C -77.60,493.22 -76.49,492.78 -75.55,491.88 C -74.59,490.96 -73.89,489.53 -73.45,487.57 C -73.00,485.61 -72.77,482.56 -72.77,478.41 C -72.77,472.33 -73.29,468.25 -74.33,466.16 C -75.35,464.06 -76.89,463.01 -78.95,463.01 C -81.06,463.01 -82.58,464.08 -83.52,466.22 C -84.45,468.35 -84.92,472.30 -84.92,478.07" id="p3412" style="font-size:64px;font-style:normal;font-variant:normal;font-weight:normal;font-stretch:normal;text-align:start;line-height:80.00%;writing-mode:lr-tb;text-anchor:start;fill:#584131;font-family:Arial Black;-inkscape-font-specification:Arial Black"/>
</g>
</svg>
