<?xml version="1.0" encoding="UTF-8" standalone="no"?>
<svg xmlns:svg="http://www.w3.org/2000/svg" xmlns="http://www.w3.org/2000/svg" xmlns:xlink="http://www.w3.org/1999/xlink" version="1.0" width="100%" height="100%" viewBox="0 0 640 200" id="equation" style="display:inline">
<defs/>
<g transform="translate(460.10,-113.11)" id="g3708">
<rect width="66.55" height="66.55" ry="14.01" x="-273.28" y="207.86" id="r3710" style="fill:#ffffff;fill-opacity:0.77;fill-rule:nonzero;stroke:#584131;stroke-width:4;stroke-linecap:round;marker:none;"/>
<path d="M -229.21,217.85 L -229.21,264.44 L -242.09,264.44 L -242.09,233.91 C -244.17,235.49 -246.19,236.77 -248.15,237.75 C -250.09,238.73 -252.52,239.67 -255.46,240.57 L -255.46,230.13 C -251.13,228.73 -247.76,227.06 -245.37,225.10 C -242.97,223.14 -241.10,220.72 -239.74,217.85 L -229.21,217.85" id="p3712" style="font-size:64px;font-style:normal;font-variant:normal;font-weight:normal;font-stretch:normal;text-align:start;line-height:80.00%;writing-mode:lr-tb;text-anchor:start;fill:#584131;font-family:Arial Black;-inkscape-font-specification:Arial Black"/>
</g>
<path d="M 184.87,84.38 L 257.73,84.38" id="p3640" style="fill:none;stroke:#584131;stroke-width:8;stroke-linecap:round;stroke-opacity:1"/>
<g transform="translate(380.92,-360.73)" id="g3629">
<rect width="66.55" height="66.55" ry="14.01" x="-193.86" y="366.70" id="r3631" style="fill:#ffffff;fill-opacity:0.77;fill-rule:nonzero;stroke:#584131;stroke-width:4;stroke-linecap:round;marker:none;"/>
<path d="M -171.65,398.26 C -173.65,397.19 -175.11,396.01 -176.02,394.69 C -177.27,392.90 -177.90,390.84 -177.90,388.51 C -177.90,384.67 -176.09,381.54 -172.49,379.10 C -169.68,377.23 -165.96,376.29 -161.33,376.29 C -155.21,376.29 -150.69,377.46 -147.77,379.79 C -144.83,382.12 -143.37,385.06 -143.37,388.60 C -143.37,390.66 -143.95,392.59 -145.12,394.38 C -145.99,395.72 -147.37,397.01 -149.24,398.26 C -146.76,399.44 -144.92,401.02 -143.71,402.98 C -142.48,404.93 -141.87,407.10 -141.87,409.48 C -141.87,411.77 -142.40,413.91 -143.46,415.91 C -144.50,417.89 -145.79,419.42 -147.33,420.51 C -148.86,421.59 -150.76,422.38 -153.05,422.88 C -155.32,423.40 -157.75,423.66 -160.33,423.66 C -165.19,423.66 -168.90,423.09 -171.46,421.94 C -174.02,420.80 -175.97,419.11 -177.30,416.88 C -178.64,414.65 -179.30,412.16 -179.30,409.41 C -179.30,406.73 -178.68,404.46 -177.43,402.60 C -176.18,400.73 -174.25,399.28 -171.65,398.26 M -165.93,389.26 C -165.93,390.84 -165.44,392.12 -164.46,393.10 C -163.46,394.06 -162.14,394.54 -160.49,394.54 C -159.03,394.54 -157.83,394.06 -156.90,393.10 C -155.96,392.14 -155.49,390.90 -155.49,389.38 C -155.49,387.80 -155.98,386.52 -156.96,385.54 C -157.94,384.54 -159.19,384.04 -160.71,384.04 C -162.25,384.04 -163.51,384.53 -164.49,385.51 C -165.45,386.47 -165.93,387.72 -165.93,389.26 M -166.62,408.98 C -166.62,411.00 -166.00,412.65 -164.77,413.94 C -163.54,415.22 -162.14,415.85 -160.55,415.85 C -159.03,415.85 -157.67,415.21 -156.46,413.91 C -155.25,412.60 -154.65,410.94 -154.65,408.94 C -154.65,406.92 -155.26,405.27 -156.49,403.98 C -157.70,402.68 -159.11,402.04 -160.71,402.04 C -162.29,402.04 -163.68,402.66 -164.87,403.91 C -166.03,405.16 -166.62,406.85 -166.62,408.98" id="p3633" style="font-size:64px;font-style:normal;font-variant:normal;font-weight:normal;font-stretch:normal;text-align:start;line-height:80.00%;writing-mode:lr-tb;text-anchor:start;fill:#584131;font-family:Arial Black;-inkscape-font-specification:Arial Black"/>
</g>
<path d="M 339.58,29.40 C 337.06,29.40 334.54,30.85 332.60,33.73 L 332.18,34.35 L 332.18,51.32 L 322.40,51.32 C 318.69,51.32 315.70,55.77 315.70,61.29 L 315.70,92.86 C 315.70,98.38 318.69,102.84 322.40,102.84 L 332.18,102.84 L 332.18,119.80 L 332.60,120.43 C 336.48,126.19 342.70,126.19 346.57,120.43 L 368.70,87.48 C 372.57,81.71 372.57,72.44 368.70,66.67 L 346.57,33.73 C 344.63,30.85 342.11,29.40 339.58,29.40 z" id="p3323" style="fill:#ffffff;fill-opacity:0.77;fill-rule:nonzero;stroke:#584131;stroke-width:4;stroke-linecap:round;marker:none;"/>
<path d="M 239.99,78.61 C 240.29,78.61 252.43,107.55 252.69,107.73 C 252.95,107.92 284.21,110.51 284.31,110.82 C 284.41,111.12 260.64,131.58 260.54,131.89 C 260.45,132.19 267.63,162.73 267.38,162.92 C 267.12,163.10 240.29,146.83 239.99,146.83 C 239.68,146.83 212.85,163.10 212.59,162.92 C 212.34,162.73 219.52,132.19 219.43,131.89 C 219.33,131.58 195.56,111.12 195.66,110.82 C 195.76,110.51 227.02,107.92 227.28,107.73 C 227.54,107.55 239.68,78.61 239.99,78.61 z" id="p3327" style="fill:#ffff00;fill-opacity:0.35;fill-rule:nonzero;marker:none;"/>
<path d="M 248.25,90.64 C 248.50,90.70 252.94,115.90 253.12,116.08 C 253.29,116.28 277.68,123.98 277.71,124.24 C 277.74,124.49 255.15,136.49 255.01,136.72 C 254.89,136.94 255.10,162.52 254.86,162.63 C 254.62,162.73 236.21,144.96 235.97,144.91 C 235.72,144.85 211.46,152.96 211.28,152.77 C 211.12,152.57 222.33,129.57 222.31,129.32 C 222.28,129.06 207.06,108.50 207.20,108.28 C 207.33,108.05 232.66,111.62 232.90,111.51 C 233.14,111.41 248.01,90.58 248.25,90.64 z" id="p3333" style="fill:#ffff00;fill-opacity:0.35;fill-rule:nonzero;marker:none;"/>
<path d="M 239.48,161.55 C 239.48,160.98 239.46,158.72 239.46,158.72 C 239.46,158.72 231.61,152.16 231.18,148.03 C 230.75,143.90 230.90,135.48 230.90,135.48 C 230.90,135.48 230.93,134.98 230.42,133.20 C 227.91,130.73 234.57,126.24 237.17,132.48 C 237.74,137.05 237.76,137.47 237.74,139.47 C 237.74,140.19 237.71,120.11 237.74,117.50 C 239.33,116.17 241.09,114.43 244.59,117.65 C 244.67,119.59 244.59,138.19 244.59,138.19 L 244.73,126.49 C 244.73,126.49 251.00,124.92 251.14,127.63 C 251.29,130.34 251.00,136.62 251.00,136.62 L 251.29,128.06 C 251.29,128.06 256.17,127.02 258.17,130.30 C 258.16,134.59 258.00,138.16 258.00,138.16 C 258.00,138.16 257.98,137.79 258.20,130.96 C 258.34,130.96 260.70,130.06 262.84,132.05 C 263.41,135.19 262.99,148.18 262.99,148.18 C 262.99,148.18 262.95,151.73 259.70,155.30 C 258.79,159.38 258.78,161.70 258.78,161.70 L 239.48,161.55 z" id="p3329" style="opacity:0.76;fill:#ffffff;stroke:#000000;stroke-width:1.67px;stroke-linecap:butt;stroke-linejoin:round;stroke-opacity:1"/>
<g transform="matrix(1.63,0.31,-0.31,1.63,874.02,-525.70)" id="g3714">
<rect width="66.55" height="66.55" ry="14.01" x="-193.86" y="366.70" id="r3716" style="fill:#ffffff;fill-opacity:0.77;fill-rule:nonzero;stroke:#584131;stroke-width:4;stroke-linecap:round;marker:none;"/>
<path d="M -171.65,398.26 C -173.65,397.19 -175.11,396.01 -176.02,394.69 C -177.27,392.90 -177.90,390.84 -177.90,388.51 C -177.90,384.67 -176.09,381.54 -172.49,379.10 C -169.68,377.23 -165.96,376.29 -161.33,376.29 C -155.21,376.29 -150.69,377.46 -147.77,379.79 C -144.83,382.12 -143.37,385.06 -143.37,388.60 C -143.37,390.66 -143.95,392.59 -145.12,394.38 C -145.99,395.72 -147.37,397.01 -149.24,398.26 C -146.76,399.44 -144.92,401.02 -143.71,402.98 C -142.48,404.93 -141.87,407.10 -141.87,409.48 C -141.87,411.77 -142.40,413.91 -143.46,415.91 C -144.50,417.89 -145.79,419.42 -147.33,420.51 C -148.86,421.59 -150.76,422.38 -153.05,422.88 C -155.32,423.40 -157.75,423.66 -160.33,423.66 C -165.19,423.66 -168.90,423.09 -171.46,421.94 C -174.02,420.80 -175.97,419.11 -177.30,416.88 C -178.64,414.65 -179.30,412.16 -179.30,409.41 C -179.30,406.73 -178.68,404.46 -177.43,402.60 C -176.18,400.73 -174.25,399.28 -171.65,398.26 M -165.93,389.26 C -165.93,390.84 -165.44,392.12 -164.46,393.10 C -163.46,394.06 -162.14,394.54 -160.49,394.54 C -159.03,394.54 -157.83,394.06 -156.90,393.10 C -155.96,392.14 -155.49,390.90 -155.49,389.38 C -155.49,387.80 -155.98,386.52 -156.96,385.54 C -157.94,384.54 -159.19,384.04 -160.71,384.04 C -162.25,384.04 -163.51,384.53 -164.49,385.51 C -165.45,386.47 -165.93,387.72 -165.93,389.26 M -166.62,408.98 C -166.62,411.00 -166.00,412.65 -164.77,413.94 C -163.54,415.22 -162.14,415.85 -160.55,415.85 C -159.03,415.85 -157.67,415.21 -156.46,413.91 C -155.25,412.60 -154.65,410.94 -154.65,408.94 C -154.65,406.92 -155.26,405.27 -156.49,403.98 C -157.70,402.68 -159.11,402.04 -160.71,402.04 C -162.29,402.04 -163.68,402.66 -164.87,403.91 C -166.03,405.16 -166.62,406.85 -166.62,408.98" id="p3718" style="font-size:64px;font-style:normal;font-variant:normal;font-weight:normal;font-stretch:normal;text-align:start;line-height:80.00%;writing-mode:lr-tb;text-anchor:start;fill:#584131;font-family:Arial Black;-inkscape-font-specification:Arial Black"/>
</g>
</svg>
