<?xml version="1.0" encoding="UTF-8" standalone="no"?>
<svg xmlns:svg="http://www.w3.org/2000/svg" xmlns="http://www.w3.org/2000/svg" xmlns:xlink="http://www.w3.org/1999/xlink" version="1.0" width="100%" height="100%" viewBox="0 0 640 200" id="equation" style="display:inline">
<defs/>
<path d="M 366.17,29.40 C 363.65,29.40 361.13,30.85 359.19,33.73 L 358.77,34.35 L 358.77,51.32 L 348.99,51.32 C 345.28,51.32 342.29,55.77 342.29,61.29 L 342.29,92.86 C 342.29,98.38 345.28,102.84 348.99,102.84 L 358.77,102.84 L 358.77,119.80 L 359.19,120.43 C 363.07,126.19 369.29,126.19 373.16,120.43 L 395.29,87.48 C 399.16,81.71 399.16,72.44 395.29,66.67 L 373.16,33.73 C 371.22,30.85 368.70,29.40 366.17,29.40 z" id="p3323" style="fill:#ffffff;fill-opacity:0.77;fill-rule:nonzero;stroke:#584131;stroke-width:4;stroke-linecap:round;marker:none;"/>
<path d="M 120.29,86.18 L 193.15,86.18" id="p2445" style="fill:none;stroke:#584131;stroke-width:8;stroke-linecap:round;stroke-opacity:1"/>
<g transform="translate(447.02,-154.61)" id="g2453">
<rect width="66.55" height="66.55" ry="14.01" x="-193.86" y="207.86" id="r2455" style="fill:#ffffff;fill-opacity:0.77;fill-rule:nonzero;stroke:#584131;stroke-width:4;stroke-linecap:round;marker:none;"/>
<path d="M -141.49,264.44 L -179.68,264.44 C -179.24,260.67 -177.92,257.13 -175.71,253.82 C -173.48,250.48 -169.31,246.56 -163.21,242.03 C -159.48,239.26 -157.09,237.16 -156.05,235.72 C -155.01,234.28 -154.49,232.92 -154.49,231.63 C -154.49,230.23 -155.01,229.05 -156.05,228.07 C -157.07,227.07 -158.37,226.57 -159.93,226.57 C -161.55,226.57 -162.89,227.08 -163.93,228.10 C -164.95,229.12 -165.64,230.92 -165.99,233.50 L -178.74,232.47 C -178.24,228.89 -177.32,226.10 -175.99,224.10 C -174.66,222.08 -172.78,220.53 -170.37,219.47 C -167.93,218.39 -164.56,217.85 -160.27,217.85 C -155.79,217.85 -152.31,218.36 -149.83,219.38 C -147.33,220.40 -145.38,221.97 -143.96,224.10 C -142.52,226.20 -141.80,228.57 -141.80,231.19 C -141.80,233.98 -142.63,236.65 -144.27,239.19 C -145.90,241.73 -148.87,244.52 -153.18,247.57 C -155.74,249.34 -157.46,250.58 -158.33,251.28 C -159.19,251.99 -160.20,252.92 -161.37,254.07 L -141.49,254.07 L -141.49,264.44" id="p2457" style="font-size:64px;font-style:normal;font-variant:normal;font-weight:normal;font-stretch:normal;text-align:start;line-height:80.00%;writing-mode:lr-tb;text-anchor:start;fill:#584131;font-family:Arial Black;-inkscape-font-specification:Arial Black"/>
</g>
<path d="M 200.89,69.86 L 215.98,69.86 L 221.27,79.11 L 227.39,69.86 L 241.42,69.86 L 230.11,85.67 L 242.23,103.05 L 227.39,103.05 L 221.27,92.36 L 214.05,103.05 L 200.27,103.05 L 212.33,85.67 L 200.89,69.86" id="p2459" style="font-size:64px;font-style:normal;font-variant:normal;font-weight:normal;font-stretch:normal;text-align:start;line-height:80.00%;writing-mode:lr-tb;text-anchor:start;fill:#584131;font-family:Arial Black;-inkscape-font-specification:Arial Black"/>
<g transform="translate(232.77,-198.72)" id="g2461">
<rect width="66.55" height="66.55" ry="14.01" x="-112.11" y="207.86" id="r2463" style="fill:#ffffff;fill-opacity:0.77;fill-rule:nonzero;stroke:#584131;stroke-width:4;stroke-linecap:round;marker:none;"/>
<path d="M -85.04,231.49 L -97.07,229.33 C -96.07,225.50 -94.15,222.56 -91.32,220.52 C -88.46,218.48 -84.43,217.46 -79.22,217.46 C -73.24,217.46 -68.92,218.57 -66.25,220.80 C -63.59,223.03 -62.25,225.83 -62.25,229.21 C -62.25,231.19 -62.80,232.98 -63.88,234.58 C -64.96,236.19 -66.60,237.59 -68.79,238.80 C -67.02,239.24 -65.66,239.75 -64.72,240.33 C -63.20,241.27 -62.03,242.51 -61.19,244.05 C -60.34,245.57 -59.91,247.39 -59.91,249.52 C -59.91,252.19 -60.61,254.75 -62.00,257.21 C -63.40,259.64 -65.41,261.53 -68.04,262.86 C -70.66,264.18 -74.11,264.83 -78.38,264.83 C -82.55,264.83 -85.84,264.34 -88.25,263.36 C -90.65,262.38 -92.63,260.96 -94.19,259.08 C -95.73,257.19 -96.92,254.81 -97.75,251.96 L -85.04,250.27 C -84.54,252.83 -83.77,254.61 -82.72,255.61 C -81.66,256.59 -80.32,257.08 -78.69,257.08 C -76.98,257.08 -75.57,256.46 -74.44,255.21 C -73.30,253.96 -72.72,252.29 -72.72,250.21 C -72.72,248.08 -73.28,246.44 -74.38,245.27 C -75.46,244.10 -76.94,243.52 -78.82,243.52 C -79.82,243.52 -81.19,243.77 -82.94,244.27 L -82.29,235.18 C -81.58,235.28 -81.03,235.33 -80.63,235.33 C -78.96,235.33 -77.58,234.80 -76.47,233.74 C -75.35,232.68 -74.79,231.41 -74.79,229.96 C -74.79,228.56 -75.20,227.45 -76.04,226.61 C -76.87,225.78 -78.02,225.36 -79.47,225.36 C -80.97,225.36 -82.19,225.82 -83.13,226.74 C -84.07,227.63 -84.70,229.22 -85.04,231.49" id="p2465" style="font-size:64px;font-style:normal;font-variant:normal;font-weight:normal;font-stretch:normal;text-align:start;line-height:80.00%;writing-mode:lr-tb;text-anchor:start;fill:#584131;font-family:Arial Black;-inkscape-font-specification:Arial Black"/>
</g>
<g transform="translate(232.77,-189.52)" id="g2467">
<rect width="66.55" height="66.55" ry="14.01" x="-112.11" y="286.11" id="r2469" style="fill:#ffffff;fill-opacity:0.77;fill-rule:nonzero;stroke:#584131;stroke-width:4;stroke-linecap:round;marker:none;"/>
<path d="M -60.93,306.80 L -73.58,308.36 C -73.92,306.59 -74.48,305.34 -75.27,304.61 C -76.04,303.88 -77.00,303.52 -78.15,303.52 C -80.21,303.52 -81.81,304.56 -82.96,306.64 C -83.79,308.14 -84.41,311.35 -84.80,316.27 C -83.28,314.73 -81.72,313.59 -80.11,312.86 C -78.51,312.11 -76.66,311.74 -74.55,311.74 C -70.47,311.74 -67.02,313.19 -64.21,316.11 C -61.37,319.03 -59.96,322.73 -59.96,327.20 C -59.96,330.23 -60.68,332.99 -62.11,335.49 C -63.53,337.99 -65.51,339.88 -68.05,341.17 C -70.57,342.44 -73.74,343.08 -77.55,343.08 C -82.13,343.08 -85.81,342.30 -88.58,340.74 C -91.35,339.17 -93.57,336.68 -95.24,333.27 C -96.88,329.83 -97.71,325.29 -97.71,319.64 C -97.71,311.37 -95.97,305.32 -92.49,301.49 C -89.01,297.63 -84.19,295.70 -78.02,295.70 C -74.37,295.70 -71.50,296.13 -69.40,296.99 C -67.27,297.82 -65.51,299.05 -64.11,300.67 C -62.72,302.30 -61.66,304.34 -60.93,306.80 M -84.36,327.20 C -84.36,329.68 -83.74,331.63 -82.49,333.05 C -81.24,334.44 -79.71,335.14 -77.90,335.14 C -76.23,335.14 -74.83,334.51 -73.71,333.24 C -72.58,331.97 -72.02,330.07 -72.02,327.55 C -72.02,324.97 -72.60,323.00 -73.77,321.64 C -74.94,320.29 -76.38,319.61 -78.11,319.61 C -79.88,319.61 -81.37,320.27 -82.58,321.58 C -83.77,322.89 -84.36,324.77 -84.36,327.20" id="p2471" style="font-size:64px;font-style:normal;font-variant:normal;font-weight:normal;font-stretch:normal;text-align:start;line-height:80.00%;writing-mode:lr-tb;text-anchor:start;fill:#584131;font-family:Arial Black;-inkscape-font-specification:Arial Black"/>
</g>
<path d="M 423.90,86.18 L 621.89,86.18" id="p2473" style="fill:none;stroke:#584131;stroke-width:8;stroke-linecap:round;stroke-opacity:1"/>
<g transform="translate(745.11,-198.77)" id="g2475">
<rect width="66.55" height="66.55" ry="14.01" x="-193.86" y="207.86" id="r2477" style="fill:#ffffff;fill-opacity:0.77;fill-rule:nonzero;stroke:#584131;stroke-width:4;stroke-linecap:round;marker:none;"/>
<path d="M -141.49,264.44 L -179.68,264.44 C -179.24,260.67 -177.92,257.13 -175.71,253.82 C -173.48,250.48 -169.31,246.56 -163.21,242.03 C -159.48,239.26 -157.09,237.16 -156.05,235.72 C -155.01,234.28 -154.49,232.92 -154.49,231.63 C -154.49,230.23 -155.01,229.05 -156.05,228.07 C -157.07,227.07 -158.37,226.57 -159.93,226.57 C -161.55,226.57 -162.89,227.08 -163.93,228.10 C -164.95,229.12 -165.64,230.92 -165.99,233.50 L -178.74,232.47 C -178.24,228.89 -177.32,226.10 -175.99,224.10 C -174.66,222.08 -172.78,220.53 -170.37,219.47 C -167.93,218.39 -164.56,217.85 -160.27,217.85 C -155.79,217.85 -152.31,218.36 -149.83,219.38 C -147.33,220.40 -145.38,221.97 -143.96,224.10 C -142.52,226.20 -141.80,228.57 -141.80,231.19 C -141.80,233.98 -142.63,236.65 -144.27,239.19 C -145.90,241.73 -148.87,244.52 -153.18,247.57 C -155.74,249.34 -157.46,250.58 -158.33,251.28 C -159.19,251.99 -160.20,252.92 -161.37,254.07 L -141.49,254.07 L -141.49,264.44" id="p2479" style="font-size:64px;font-style:normal;font-variant:normal;font-weight:normal;font-stretch:normal;text-align:start;line-height:80.00%;writing-mode:lr-tb;text-anchor:start;fill:#584131;font-family:Arial Black;-inkscape-font-specification:Arial Black"/>
</g>
<path d="M 498.98,25.70 L 514.08,25.70 L 519.36,34.95 L 525.48,25.70 L 539.51,25.70 L 528.20,41.51 L 540.33,58.88 L 525.48,58.88 L 519.36,48.20 L 512.14,58.88 L 498.36,58.88 L 510.42,41.51 L 498.98,25.70" id="p2481" style="font-size:64px;font-style:normal;font-variant:normal;font-weight:normal;font-stretch:normal;text-align:start;line-height:80.00%;writing-mode:lr-tb;text-anchor:start;fill:#584131;font-family:Arial Black;-inkscape-font-specification:Arial Black"/>
<g transform="translate(536.38,-198.72)" id="g2483">
<rect width="66.55" height="66.55" ry="14.01" x="-112.11" y="207.86" id="r2485" style="fill:#ffffff;fill-opacity:0.77;fill-rule:nonzero;stroke:#584131;stroke-width:4;stroke-linecap:round;marker:none;"/>
<path d="M -85.04,231.49 L -97.07,229.33 C -96.07,225.50 -94.15,222.56 -91.32,220.52 C -88.46,218.48 -84.43,217.46 -79.22,217.46 C -73.24,217.46 -68.92,218.57 -66.25,220.80 C -63.59,223.03 -62.25,225.83 -62.25,229.21 C -62.25,231.19 -62.80,232.98 -63.88,234.58 C -64.96,236.19 -66.60,237.59 -68.79,238.80 C -67.02,239.24 -65.66,239.75 -64.72,240.33 C -63.20,241.27 -62.03,242.51 -61.19,244.05 C -60.34,245.57 -59.91,247.39 -59.91,249.52 C -59.91,252.19 -60.61,254.75 -62.00,257.21 C -63.40,259.64 -65.41,261.53 -68.04,262.86 C -70.66,264.18 -74.11,264.83 -78.38,264.83 C -82.55,264.83 -85.84,264.34 -88.25,263.36 C -90.65,262.38 -92.63,260.96 -94.19,259.08 C -95.73,257.19 -96.92,254.81 -97.75,251.96 L -85.04,250.27 C -84.54,252.83 -83.77,254.61 -82.72,255.61 C -81.66,256.59 -80.32,257.08 -78.69,257.08 C -76.98,257.08 -75.57,256.46 -74.44,255.21 C -73.30,253.96 -72.72,252.29 -72.72,250.21 C -72.72,248.08 -73.28,246.44 -74.38,245.27 C -75.46,244.10 -76.94,243.52 -78.82,243.52 C -79.82,243.52 -81.19,243.77 -82.94,244.27 L -82.29,235.18 C -81.58,235.28 -81.03,235.33 -80.63,235.33 C -78.96,235.33 -77.58,234.80 -76.47,233.74 C -75.35,232.68 -74.79,231.41 -74.79,229.96 C -74.79,228.56 -75.20,227.45 -76.04,226.61 C -76.87,225.78 -78.02,225.36 -79.47,225.36 C -80.97,225.36 -82.19,225.82 -83.13,226.74 C -84.07,227.63 -84.70,229.22 -85.04,231.49" id="p2487" style="font-size:64px;font-style:normal;font-variant:normal;font-weight:normal;font-stretch:normal;text-align:start;line-height:80.00%;writing-mode:lr-tb;text-anchor:start;fill:#584131;font-family:Arial Black;-inkscape-font-specification:Arial Black"/>
</g>
<g transform="translate(599.86,-189.52)" id="g2489">
<rect width="66.55" height="66.55" ry="14.01" x="-112.11" y="286.11" id="r2491" style="fill:#ffffff;fill-opacity:0.77;fill-rule:nonzero;stroke:#584131;stroke-width:4;stroke-linecap:round;marker:none;"/>
<path d="M -60.93,306.80 L -73.58,308.36 C -73.92,306.59 -74.48,305.34 -75.27,304.61 C -76.04,303.88 -77.00,303.52 -78.15,303.52 C -80.21,303.52 -81.81,304.56 -82.96,306.64 C -83.79,308.14 -84.41,311.35 -84.80,316.27 C -83.28,314.73 -81.72,313.59 -80.11,312.86 C -78.51,312.11 -76.66,311.74 -74.55,311.74 C -70.47,311.74 -67.02,313.19 -64.21,316.11 C -61.37,319.03 -59.96,322.73 -59.96,327.20 C -59.96,330.23 -60.68,332.99 -62.11,335.49 C -63.53,337.99 -65.51,339.88 -68.05,341.17 C -70.57,342.44 -73.74,343.08 -77.55,343.08 C -82.13,343.08 -85.81,342.30 -88.58,340.74 C -91.35,339.17 -93.57,336.68 -95.24,333.27 C -96.88,329.83 -97.71,325.29 -97.71,319.64 C -97.71,311.37 -95.97,305.32 -92.49,301.49 C -89.01,297.63 -84.19,295.70 -78.02,295.70 C -74.37,295.70 -71.50,296.13 -69.40,296.99 C -67.27,297.82 -65.51,299.05 -64.11,300.67 C -62.72,302.30 -61.66,304.34 -60.93,306.80 M -84.36,327.20 C -84.36,329.68 -83.74,331.63 -82.49,333.05 C -81.24,334.44 -79.71,335.14 -77.90,335.14 C -76.23,335.14 -74.83,334.51 -73.71,333.24 C -72.58,331.97 -72.02,330.07 -72.02,327.55 C -72.02,324.97 -72.60,323.00 -73.77,321.64 C -74.94,320.29 -76.38,319.61 -78.11,319.61 C -79.88,319.61 -81.37,320.27 -82.58,321.58 C -83.77,322.89 -84.36,324.77 -84.36,327.20" id="p2493" style="font-size:64px;font-style:normal;font-variant:normal;font-weight:normal;font-stretch:normal;text-align:start;line-height:80.00%;writing-mode:lr-tb;text-anchor:start;fill:#584131;font-family:Arial Black;-inkscape-font-specification:Arial Black"/>
</g>
<path d="M 210.40,36.87 L 181.43,54.76 C 199.82,82.27 229.14,94.50 275.46,96.64 L 272.05,121.04 C 220.95,118.68 183.05,103.11 160.64,67.59 L 135.46,83.15 L 162.48,37.70 L 210.40,36.87 z" id="p2495" style="opacity:0.76;fill:#ffff00;fill-opacity:0.79;fill-rule:nonzero;marker:none;"/>
<g transform="translate(88.51,-6.66)" id="g3635">
<path d="M 179.65,68.17 C 179.95,68.17 192.10,97.10 192.35,97.28 C 192.61,97.47 223.87,100.07 223.97,100.38 C 224.07,100.67 200.31,121.14 200.20,121.45 C 200.11,121.74 207.29,152.28 207.04,152.47 C 206.78,152.65 179.95,136.39 179.65,136.39 C 179.34,136.39 152.51,152.65 152.26,152.47 C 152.00,152.28 159.18,121.74 159.09,121.45 C 158.99,121.14 135.22,100.67 135.32,100.38 C 135.42,100.07 166.68,97.47 166.94,97.28 C 167.20,97.10 179.34,68.17 179.65,68.17 z" id="p3327" style="fill:#ffff00;fill-opacity:0.35;fill-rule:nonzero;marker:none;"/>
<path d="M 187.91,80.19 C 188.16,80.25 192.61,105.45 192.78,105.64 C 192.95,105.84 217.34,113.53 217.37,113.79 C 217.40,114.05 194.81,126.05 194.67,126.27 C 194.55,126.49 194.76,152.08 194.52,152.18 C 194.28,152.28 175.88,134.51 175.63,134.46 C 175.38,134.40 151.12,142.51 150.95,142.32 C 150.78,142.12 161.99,119.12 161.97,118.87 C 161.94,118.61 146.72,98.05 146.86,97.83 C 146.99,97.61 172.32,101.17 172.56,101.06 C 172.80,100.97 187.67,80.14 187.91,80.19 z" id="p3333" style="fill:#ffff00;fill-opacity:0.35;fill-rule:nonzero;marker:none;"/>
<path d="M 179.14,157.49 C 179.14,156.92 179.12,154.66 179.12,154.66 C 179.12,154.66 171.27,148.10 170.84,143.97 C 170.41,139.84 170.56,131.42 170.56,131.42 C 170.56,131.42 170.59,130.92 170.08,129.14 C 167.57,126.67 174.23,122.18 176.83,128.42 C 177.40,132.99 177.42,133.41 177.40,135.41 C 177.40,136.13 177.37,116.05 177.40,113.44 C 178.99,112.11 180.75,110.37 184.25,113.59 C 184.33,115.53 184.25,134.13 184.25,134.13 L 184.39,122.43 C 184.39,122.43 190.66,120.86 190.80,123.57 C 190.95,126.28 190.66,132.56 190.66,132.56 L 190.95,124.00 C 190.95,124.00 195.83,122.96 197.83,126.24 C 197.82,130.53 197.66,134.10 197.66,134.10 C 197.66,134.10 197.64,133.73 197.86,126.90 C 198.00,126.90 200.36,126.00 202.50,127.99 C 203.07,131.13 202.65,144.12 202.65,144.12 C 202.65,144.12 202.61,147.67 199.36,151.24 C 198.45,155.32 198.44,157.64 198.44,157.64 L 179.14,157.49 z" id="p3329" style="opacity:0.76;fill:#ffffff;stroke:#000000;stroke-width:1.67px;stroke-linecap:butt;stroke-linejoin:round;stroke-opacity:1"/>
</g>
</svg>
