<?xml version="1.0" encoding="UTF-8" standalone="no"?>
<svg xmlns:svg="http://www.w3.org/2000/svg" xmlns="http://www.w3.org/2000/svg" xmlns:xlink="http://www.w3.org/1999/xlink" version="1.0" width="100%" height="100%" viewBox="0 0 640 200" id="equation" style="display:inline">
<defs/>
<path d="M 234.62,54.34 L 249.71,54.34 L 254.99,63.59 L 261.12,54.34 L 275.15,54.34 L 263.84,70.15 L 275.96,87.52 L 261.12,87.52 L 254.99,76.84 L 247.77,87.52 L 233.99,87.52 L 246.06,70.15 L 234.62,54.34" id="p2459" style="font-size:64px;font-style:normal;font-variant:normal;font-weight:normal;font-stretch:normal;text-align:start;line-height:80.00%;writing-mode:lr-tb;text-anchor:start;fill:#584131;font-family:Arial Black;-inkscape-font-specification:Arial Black"/>
<g transform="matrix(1.44,0.18,-0.18,1.44,616.90,-245.47)" id="g2447">
<rect width="66.55" height="66.55" ry="14.01" x="-193.86" y="207.86" id="r2449" style="fill:#ffffff;fill-opacity:0.77;fill-rule:nonzero;stroke:#584131;stroke-width:4;stroke-linecap:round;marker:none;"/>
<path d="M -141.49,264.44 L -179.68,264.44 C -179.24,260.67 -177.92,257.13 -175.71,253.82 C -173.48,250.48 -169.31,246.56 -163.21,242.03 C -159.48,239.26 -157.09,237.16 -156.05,235.72 C -155.01,234.28 -154.49,232.92 -154.49,231.63 C -154.49,230.23 -155.01,229.05 -156.05,228.07 C -157.07,227.07 -158.37,226.57 -159.93,226.57 C -161.55,226.57 -162.89,227.08 -163.93,228.10 C -164.95,229.12 -165.64,230.92 -165.99,233.50 L -178.74,232.47 C -178.24,228.89 -177.32,226.10 -175.99,224.10 C -174.66,222.08 -172.78,220.53 -170.37,219.47 C -167.93,218.39 -164.56,217.85 -160.27,217.85 C -155.79,217.85 -152.31,218.36 -149.83,219.38 C -147.33,220.40 -145.38,221.97 -143.96,224.10 C -142.52,226.20 -141.80,228.57 -141.80,231.19 C -141.80,233.98 -142.63,236.65 -144.27,239.19 C -145.90,241.73 -148.87,244.52 -153.18,247.57 C -155.74,249.34 -157.46,250.58 -158.33,251.28 C -159.19,251.99 -160.20,252.92 -161.37,254.07 L -141.49,254.07 L -141.49,264.44" id="p2451" style="font-size:64px;font-style:normal;font-variant:normal;font-weight:normal;font-stretch:normal;text-align:start;line-height:80.00%;writing-mode:lr-tb;text-anchor:start;fill:#584131;font-family:Arial Black;-inkscape-font-specification:Arial Black"/>
</g>
<g transform="matrix(1.68,-0.20,0.20,1.68,375.16,-360.80)" id="g2441">
<rect width="66.55" height="66.55" ry="14.01" x="-193.86" y="207.86" id="r2443" style="fill:#ffffff;fill-opacity:0.77;fill-rule:nonzero;stroke:#584131;stroke-width:4;stroke-linecap:round;marker:none;"/>
<path d="M -141.49,264.44 L -179.68,264.44 C -179.24,260.67 -177.92,257.13 -175.71,253.82 C -173.48,250.48 -169.31,246.56 -163.21,242.03 C -159.48,239.26 -157.09,237.16 -156.05,235.72 C -155.01,234.28 -154.49,232.92 -154.49,231.63 C -154.49,230.23 -155.01,229.05 -156.05,228.07 C -157.07,227.07 -158.37,226.57 -159.93,226.57 C -161.55,226.57 -162.89,227.08 -163.93,228.10 C -164.95,229.12 -165.64,230.92 -165.99,233.50 L -178.74,232.47 C -178.24,228.89 -177.32,226.10 -175.99,224.10 C -174.66,222.08 -172.78,220.53 -170.37,219.47 C -167.93,218.39 -164.56,217.85 -160.27,217.85 C -155.79,217.85 -152.31,218.36 -149.83,219.38 C -147.33,220.40 -145.38,221.97 -143.96,224.10 C -142.52,226.20 -141.80,228.57 -141.80,231.19 C -141.80,233.98 -142.63,236.65 -144.27,239.19 C -145.90,241.73 -148.87,244.52 -153.18,247.57 C -155.74,249.34 -157.46,250.58 -158.33,251.28 C -159.19,251.99 -160.20,252.92 -161.37,254.07 L -141.49,254.07 L -141.49,264.44" id="p2445" style="font-size:64px;font-style:normal;font-variant:normal;font-weight:normal;font-stretch:normal;text-align:start;line-height:80.00%;writing-mode:lr-tb;text-anchor:start;fill:#584131;font-family:Arial Black;-inkscape-font-specification:Arial Black"/>
</g>
<path d="M 439.22,29.40 C 436.70,29.40 434.18,30.85 432.24,33.73 L 431.82,34.35 L 431.82,51.32 L 422.04,51.32 C 418.33,51.32 415.34,55.77 415.34,61.29 L 415.34,92.86 C 415.34,98.38 418.33,102.84 422.04,102.84 L 431.82,102.84 L 431.82,119.80 L 432.24,120.43 C 436.12,126.19 442.34,126.19 446.21,120.43 L 468.34,87.48 C 472.21,81.71 472.21,72.44 468.34,66.67 L 446.21,33.73 C 444.27,30.85 441.75,29.40 439.22,29.40 z" id="p3323" style="fill:#ffffff;fill-opacity:0.77;fill-rule:nonzero;stroke:#584131;stroke-width:4;stroke-linecap:round;marker:none;"/>
<path d="M 285.20,54.59 L 306.18,81.40 C 279.41,100.84 247.67,102.17 203.47,88.15 L 198.23,112.22 C 246.99,127.69 287.94,126.20 321.25,100.63 L 339.49,123.94 L 329.87,71.95 L 285.20,54.59 z" id="p4167" style="opacity:0.76;fill:#ffff00;fill-opacity:0.79;fill-rule:nonzero;marker:none;"/>
<g transform="translate(22.54,-15.86)" id="g3635">
<path d="M 179.65,68.17 C 179.95,68.17 192.10,97.10 192.35,97.28 C 192.61,97.47 223.87,100.07 223.97,100.38 C 224.07,100.67 200.31,121.14 200.20,121.45 C 200.11,121.74 207.29,152.28 207.04,152.47 C 206.78,152.65 179.95,136.39 179.65,136.39 C 179.34,136.39 152.51,152.65 152.26,152.47 C 152.00,152.28 159.18,121.74 159.09,121.45 C 158.99,121.14 135.22,100.67 135.32,100.38 C 135.42,100.07 166.68,97.47 166.94,97.28 C 167.20,97.10 179.34,68.17 179.65,68.17 z" id="p3327" style="fill:#ffff00;fill-opacity:0.35;fill-rule:nonzero;marker:none;"/>
<path d="M 187.91,80.19 C 188.16,80.25 192.61,105.45 192.78,105.64 C 192.95,105.84 217.34,113.53 217.37,113.79 C 217.40,114.05 194.81,126.05 194.67,126.27 C 194.55,126.49 194.76,152.08 194.52,152.18 C 194.28,152.28 175.88,134.51 175.63,134.46 C 175.38,134.40 151.12,142.51 150.95,142.32 C 150.78,142.12 161.99,119.12 161.97,118.87 C 161.94,118.61 146.72,98.05 146.86,97.83 C 146.99,97.61 172.32,101.17 172.56,101.06 C 172.80,100.97 187.67,80.14 187.91,80.19 z" id="p3333" style="fill:#ffff00;fill-opacity:0.35;fill-rule:nonzero;marker:none;"/>
<path d="M 179.14,157.49 C 179.14,156.92 179.12,154.66 179.12,154.66 C 179.12,154.66 171.27,148.10 170.84,143.97 C 170.41,139.84 170.56,131.42 170.56,131.42 C 170.56,131.42 170.59,130.92 170.08,129.14 C 167.57,126.67 174.23,122.18 176.83,128.42 C 177.40,132.99 177.42,133.41 177.40,135.41 C 177.40,136.13 177.37,116.05 177.40,113.44 C 178.99,112.11 180.75,110.37 184.25,113.59 C 184.33,115.53 184.25,134.13 184.25,134.13 L 184.39,122.43 C 184.39,122.43 190.66,120.86 190.80,123.57 C 190.95,126.28 190.66,132.56 190.66,132.56 L 190.95,124.00 C 190.95,124.00 195.83,122.96 197.83,126.24 C 197.82,130.53 197.66,134.10 197.66,134.10 C 197.66,134.10 197.64,133.73 197.86,126.90 C 198.00,126.90 200.36,126.00 202.50,127.99 C 203.07,131.13 202.65,144.12 202.65,144.12 C 202.65,144.12 202.61,147.67 199.36,151.24 C 198.45,155.32 198.44,157.64 198.44,157.64 L 179.14,157.49 z" id="p3329" style="opacity:0.76;fill:#ffffff;stroke:#000000;stroke-width:1.67px;stroke-linecap:butt;stroke-linejoin:round;stroke-opacity:1"/>
</g>
<g transform="matrix(1.73,0.36,-0.36,1.73,1087.58,-387.13)" id="g2453">
<rect width="66.55" height="66.55" ry="14.01" x="-273.28" y="286.11" id="r2455" style="fill:#ffffff;fill-opacity:0.77;fill-rule:nonzero;stroke:#584131;stroke-width:4;stroke-linecap:round;marker:none;"/>
<path d="M -236.83,334.13 L -260.02,334.13 L -260.02,323.66 L -236.83,296.10 L -225.73,296.10 L -225.73,324.25 L -219.98,324.25 L -219.98,334.13 L -225.73,334.13 L -225.73,342.69 L -236.83,342.69 L -236.83,334.13 M -236.83,324.25 L -236.83,309.85 L -249.08,324.25 L -236.83,324.25" id="p2457" style="font-size:64px;font-style:normal;font-variant:normal;font-weight:normal;font-stretch:normal;text-align:start;line-height:80.00%;writing-mode:lr-tb;text-anchor:start;fill:#584131;font-family:Arial Black;-inkscape-font-specification:Arial Black"/>
</g>
</svg>
