<?xml version="1.0" encoding="UTF-8" standalone="no"?>
<svg
   xmlns:dc="http://purl.org/dc/elements/1.1/"
   xmlns:cc="http://creativecommons.org/ns#"
   xmlns:rdf="http://www.w3.org/1999/02/22-rdf-syntax-ns#"
   xmlns:svg="http://www.w3.org/2000/svg"
   xmlns="http://www.w3.org/2000/svg"
   xmlns:sodipodi="http://sodipodi.sourceforge.net/DTD/sodipodi-0.dtd"
   xmlns:inkscape="http://www.inkscape.org/namespaces/inkscape"
   width="100%"
   height="100%"
   version="1.1"
   id="svg2"
   viewBox="0 0 480 480"
   inkscape:version="0.91 r13725"
   sodipodi:docname="jlodb02.svg">
  <sodipodi:namedview
     pagecolor="#ffffff"
     bordercolor="#666666"
     borderopacity="1"
     objecttolerance="10"
     gridtolerance="10"
     guidetolerance="10"
     inkscape:pageopacity="0"
     inkscape:pageshadow="2"
     inkscape:window-width="1037"
     inkscape:window-height="801"
     id="namedview60"
     showgrid="false"
     showguides="false"
     inkscape:zoom="0.6638616"
     inkscape:cx="305.79815"
     inkscape:cy="238.23273"
     inkscape:window-x="0"
     inkscape:window-y="0"
     inkscape:window-maximized="0"
     inkscape:current-layer="svg2" />
  <defs
     id="defs4" />
  <metadata
     id="metadata7">
    <rdf:RDF>
      <cc:Work
         rdf:about="">
        <dc:format>image/svg+xml</dc:format>
        <dc:type
           rdf:resource="http://purl.org/dc/dcmitype/StillImage" />
        <dc:title></dc:title>
      </cc:Work>
    </rdf:RDF>
  </metadata>
  <path
     style="fill:none;fill-rule:evenodd;stroke:#000000;stroke-width:0.29644683;stroke-linecap:butt;stroke-linejoin:miter;stroke-miterlimit:4;stroke-dasharray:none;stroke-opacity:0.19889502"
     d="m 244.94178,21.5 113.84742,0 -113.84742,0 z m -0.1483,6.423828 113.99572,0 -113.99572,0 z m -6.68374,6.423828 120.67946,0 -120.67946,0 z m 0,6.347656 120.67946,0 -120.67946,0 z m 0,6.423829 120.67946,0 -120.67946,0 z m 0,6.423828 120.67946,0 -120.67946,0 z m 0,6.423828 120.67946,0 -120.67946,0 z m 0,6.234375 120.67946,0 -120.67946,0 z m 0,6.421875 120.67946,0 -120.67946,0 z m 0,6.423828 120.67946,0 -120.67946,0 z m 0,6.423828 120.67946,0 -120.67946,0 z m 0,6.347656 120.67946,0 -120.67946,0 z m 0,6.423829 120.67946,0 -120.67946,0 z m 0,6.423832 120.67946,0 -120.67946,0 z m 0,6.42382 120.67946,0 -120.67946,0 z m 0,6.36524 120.67946,0 -120.67946,0 z"
     id="path4385"
     inkscape:connector-curvature="0" />
  <path
     inkscape:connector-curvature="0"
     style="color:#000000;clip-rule:nonzero;display:inline;overflow:visible;visibility:visible;opacity:1;isolation:auto;mix-blend-mode:normal;color-interpolation:sRGB;color-interpolation-filters:linearRGB;solid-color:#000000;solid-opacity:1;fill:none;fill-opacity:1;fill-rule:nonzero;stroke:#000000;stroke-width:1.5;stroke-linecap:butt;stroke-linejoin:miter;stroke-miterlimit:4;stroke-dasharray:none;stroke-dashoffset:0;stroke-opacity:1;marker:none;marker-start:none;marker-mid:none;marker-end:none;color-rendering:auto;image-rendering:auto;shape-rendering:auto;text-rendering:auto;enable-background:accumulate;filter-blend-mode:normal;filter-gaussianBlur-deviation:0"
     d="m 257.85778,15.048828 -19.84179,19.841797 0,79.929685 c 0,4.60686 3.70759,8.31446 8.31445,8.31446 l 104.69232,0 c 4.60686,0 8.31445,-3.7076 8.31445,-8.31446 l 0,-91.455076 c 0,-4.606861 -3.70759,-8.316406 -8.31445,-8.316406 z"
     id="rect3336"
     sodipodi:nodetypes="ccssssssc" />
  <text
     sodipodi:linespacing="125%"
     xml:space="preserve"
     style="font-style:normal;font-variant:normal;font-weight:normal;font-stretch:normal;font-size:15.40892982px;line-height:125%;font-family:Courier;-inkscape-font-specification:Courier;letter-spacing:0px;word-spacing:0px;fill:#000000;fill-opacity:1;stroke:none;stroke-width:1px;stroke-linecap:butt;stroke-linejoin:miter;stroke-opacity:1"
     x="282.7861"
     y="8.6021433"
     id="text4138"
     transform="matrix(0.99609479,0.0882903,-0.0882903,0.99609479,0,0)"><tspan
       id="tspan4140"
       x="282.7861"
       y="8.6021433"
       style="font-style:normal;font-variant:normal;font-weight:normal;font-stretch:normal;font-family:Courier;-inkscape-font-specification:Courier">XML/RDF</tspan></text>
  <text
     id="text4269"
     y="91.523476"
     x="237.63985"
     style="font-style:normal;font-variant:normal;font-weight:normal;font-stretch:normal;font-size:15.40892982px;line-height:125%;font-family:Courier;-inkscape-font-specification:Courier;letter-spacing:0px;word-spacing:0px;fill:#000000;fill-opacity:1;stroke:none;stroke-width:1px;stroke-linecap:butt;stroke-linejoin:miter;stroke-opacity:1"
     xml:space="preserve"
     sodipodi:linespacing="125%"
     transform="matrix(0.99442719,-0.10542565,0.10542565,0.99442719,0,0)"><tspan
       style="font-style:normal;font-variant:normal;font-weight:normal;font-stretch:normal;font-family:Courier;-inkscape-font-specification:Courier"
       y="91.523476"
       x="237.63985"
       id="tspan4271">Dublin core</tspan></text>
  <text
     transform="matrix(0.99995636,-0.00934247,0.00934247,0.99995636,0,0)"
     sodipodi:linespacing="125%"
     xml:space="preserve"
     style="font-style:normal;font-variant:normal;font-weight:normal;font-stretch:normal;font-size:15.40892982px;line-height:125%;font-family:Courier;-inkscape-font-specification:Courier;letter-spacing:0px;word-spacing:0px;fill:#000000;fill-opacity:1;stroke:none;stroke-width:1px;stroke-linecap:butt;stroke-linejoin:miter;stroke-opacity:1"
     x="247.96928"
     y="91.258591"
     id="text4273"><tspan
       id="tspan4275"
       x="247.96928"
       y="91.258591"
       style="font-style:normal;font-variant:normal;font-weight:normal;font-stretch:normal;font-family:Courier;-inkscape-font-specification:Courier">JSON</tspan></text>
  <text
     id="text4277"
     y="138.25699"
     x="243.76299"
     style="font-style:normal;font-variant:normal;font-weight:normal;font-stretch:normal;font-size:15.40892982px;line-height:125%;font-family:Courier;-inkscape-font-specification:Courier;letter-spacing:0px;word-spacing:0px;fill:#000000;fill-opacity:1;stroke:none;stroke-width:1px;stroke-linecap:butt;stroke-linejoin:miter;stroke-opacity:1"
     xml:space="preserve"
     sodipodi:linespacing="125%"
     transform="matrix(0.99452976,-0.10445363,0.10445363,0.99452976,0,0)"><tspan
       style="font-style:normal;font-variant:normal;font-weight:normal;font-stretch:normal;font-family:Courier;-inkscape-font-specification:Courier"
       y="138.25699"
       x="243.76299"
       id="tspan4279">Javascript</tspan></text>
  <path
     sodipodi:nodetypes="cc"
     id="path4366"
     d="m 359.11071,68.483529 20.44737,0"
     style="color:#000000;clip-rule:nonzero;display:inline;overflow:visible;visibility:visible;opacity:1;isolation:auto;mix-blend-mode:normal;color-interpolation:sRGB;color-interpolation-filters:linearRGB;solid-color:#000000;solid-opacity:1;fill:none;fill-opacity:1;fill-rule:nonzero;stroke:#000000;stroke-width:1.5;stroke-linecap:butt;stroke-linejoin:miter;stroke-miterlimit:4;stroke-dasharray:none;stroke-dashoffset:0;stroke-opacity:1;marker:none;marker-start:none;marker-mid:none;marker-end:none;color-rendering:auto;image-rendering:auto;shape-rendering:auto;text-rendering:auto;enable-background:accumulate"
     inkscape:connector-curvature="0" />
  <path
     id="path4368"
     d="m 390.80247,68.142489 c 0,0.48276 -0.18449,0.96503 -0.55441,1.33494 l -8.63109,8.63109 c -0.4616,0.4616 -1.09908,0.63451 -1.69284,0.5201 l 0,-20.97303 c 0.59376,-0.11441 1.23124,0.0593 1.69284,0.52087 l 8.63109,8.63031 c 0.36992,0.36992 0.55441,0.85297 0.55441,1.33572 z"
     style="color:#000000;clip-rule:nonzero;display:inline;overflow:visible;visibility:visible;opacity:1;isolation:auto;mix-blend-mode:normal;color-interpolation:sRGB;color-interpolation-filters:linearRGB;solid-color:#000000;solid-opacity:1;fill:none;fill-opacity:1;fill-rule:nonzero;stroke:#000000;stroke-width:1.5;stroke-linecap:butt;stroke-linejoin:miter;stroke-miterlimit:4;stroke-dasharray:none;stroke-dashoffset:0;stroke-opacity:1;marker:none;marker-start:none;marker-mid:none;marker-end:none;color-rendering:auto;image-rendering:auto;shape-rendering:auto;text-rendering:auto;enable-background:accumulate"
     inkscape:connector-curvature="0" />
  <path
     inkscape:connector-curvature="0"
     style="color:#000000;clip-rule:nonzero;display:inline;overflow:visible;visibility:visible;opacity:1;isolation:auto;mix-blend-mode:normal;color-interpolation:sRGB;color-interpolation-filters:linearRGB;solid-color:#000000;solid-opacity:1;fill:#ffffff;fill-opacity:1;fill-rule:nonzero;stroke:#000000;stroke-width:1.5;stroke-linecap:butt;stroke-linejoin:round;stroke-miterlimit:4;stroke-dasharray:none;stroke-dashoffset:0;stroke-opacity:1;marker:none;marker-start:none;marker-mid:none;marker-end:none;color-rendering:auto;image-rendering:auto;shape-rendering:auto;text-rendering:auto;enable-background:accumulate"
     d="m 257.39685,15.509766 -18.96485,18.964843 10.65039,0 c 4.60686,0 8.31446,-3.707594 8.31446,-8.314453 l 0,-10.65039 z"
     id="rect4377" />
  <path
     sodipodi:nodetypes="ccssssssc"
     id="path4382"
     d="m 411.63139,15.048828 -19.84179,19.841797 0,79.929685 c 0,4.60686 3.70759,8.31446 8.31445,8.31446 l 55.15019,0 c 4.60686,0 8.31445,-3.7076 8.31445,-8.31446 l 0,-91.455076 c 0,-4.606861 -3.70759,-8.316406 -8.31445,-8.316406 z"
     style="color:#000000;clip-rule:nonzero;display:inline;overflow:visible;visibility:visible;opacity:1;isolation:auto;mix-blend-mode:normal;color-interpolation:sRGB;color-interpolation-filters:linearRGB;solid-color:#000000;solid-opacity:1;fill:none;fill-opacity:1;fill-rule:nonzero;stroke:#000000;stroke-width:1.5;stroke-linecap:butt;stroke-linejoin:miter;stroke-miterlimit:4;stroke-dasharray:none;stroke-dashoffset:0;stroke-opacity:1;marker:none;marker-start:none;marker-mid:none;marker-end:none;color-rendering:auto;image-rendering:auto;shape-rendering:auto;text-rendering:auto;enable-background:accumulate;filter-blend-mode:normal;filter-gaussianBlur-deviation:0"
     inkscape:connector-curvature="0" />
  <path
     id="path4384"
     d="m 411.17046,15.509766 -18.96485,18.964843 10.65039,0 c 4.60686,0 8.31446,-3.707594 8.31446,-8.314453 l 0,-10.65039 z"
     style="color:#000000;clip-rule:nonzero;display:inline;overflow:visible;visibility:visible;opacity:1;isolation:auto;mix-blend-mode:normal;color-interpolation:sRGB;color-interpolation-filters:linearRGB;solid-color:#000000;solid-opacity:1;fill:#ffffff;fill-opacity:1;fill-rule:nonzero;stroke:#000000;stroke-width:1.5;stroke-linecap:butt;stroke-linejoin:round;stroke-miterlimit:4;stroke-dasharray:none;stroke-dashoffset:0;stroke-opacity:1;marker:none;marker-start:none;marker-mid:none;marker-end:none;color-rendering:auto;image-rendering:auto;shape-rendering:auto;text-rendering:auto;enable-background:accumulate;filter-blend-mode:normal;filter-gaussianBlur-deviation:0"
     inkscape:connector-curvature="0" />
  <path
     id="path4390"
     d="m 427.7989,85.539881 c -0.0425,-0.0425 -0.26898,-0.14157 -0.48133,-0.21235 -0.21235,-0.0566 -0.48132,-0.25482 -0.59457,-0.4247 -0.11326,-0.16988 -0.41055,-0.39638 -0.63705,-0.49548 -0.22651,-0.0991 -0.59458,-0.33976 -0.80693,-0.53795 -0.19819,-0.19819 -0.48133,-0.38223 -0.60874,-0.4247 -0.12741,-0.0283 -0.38222,-0.19819 -0.5521,-0.35392 -0.16988,-0.15572 -0.4247,-0.31144 -0.56627,-0.35391 -0.12741,-0.0283 -0.48132,-0.25482 -0.80693,-0.49548 -0.76445,-0.58043 -1.20331,-0.80693 -1.41566,-0.73615 -0.0849,0.0283 -0.52379,0.0566 -0.94849,0.0708 -0.41055,0 -0.93434,0.0566 -1.13253,0.0991 -0.1982,0.0425 -0.48133,0.0991 -0.63705,0.12741 -0.16988,0.0283 -0.31145,0.15572 -0.39639,0.35392 -0.0566,0.16988 -0.29729,0.41054 -0.49548,0.53795 -0.19819,0.11325 -0.53795,0.35391 -0.73614,0.50964 -0.48133,0.36807 -1.30241,0.50964 -2.22259,0.38223 -0.90603,-0.12741 -1.175,-0.31145 -1.42982,-1.07591 -0.39639,-1.14668 -0.58042,-1.57138 -0.77862,-1.75542 -0.0991,-0.0849 -0.18403,-0.22651 -0.18403,-0.29729 0,-0.15572 -1.42982,-0.24066 -1.99609,-0.11325 -0.21235,0.0425 -0.84939,0.0991 -1.41566,0.11325 -0.80693,0.0283 -1.0759,0.0708 -1.37319,0.25482 -0.22651,0.14157 -0.60874,0.24066 -1.00512,0.28313 -1.04759,0.0849 -2.27922,0.0566 -2.51988,-0.0566 -0.25482,-0.0991 -0.5238,-0.41055 -0.72199,-0.70783 -0.45301,-0.66537 -0.62289,-0.83525 -0.86355,-0.77862 -0.31145,0.0708 -0.72199,-0.19819 -1.06175,-0.69367 -0.3256,-0.48133 -0.66536,-1.18916 -0.56627,-1.18916 0.0142,0 -0.0141,-0.14157 -0.11325,-0.31145 -0.19819,-0.39638 -0.16988,-1.175 0.0566,-1.61385 0.0991,-0.16988 0.2265,-0.48133 0.28313,-0.66536 0.19819,-0.65121 0.4247,-1.23163 0.76446,-1.91115 0.18403,-0.36807 0.39638,-0.849394 0.45301,-1.061744 0.12741,-0.424698 1.04759,-1.443975 1.5006,-1.670481 0.16988,-0.08494 0.8494,-0.665362 1.51476,-1.288253 0.72199,-0.679518 1.34488,-1.175 1.57139,-1.245783 0.24066,-0.07078 0.35391,-0.16988 0.35391,-0.311446 0,-0.155723 -0.0708,-0.198193 -0.46717,-0.198193 -0.56626,0 -1.13253,-0.212349 -1.21747,-0.481325 -0.0142,-0.268976 -0.48132,-0.721988 -0.93433,-1.033434 -0.31145,-0.226506 -1.24579,-0.254819 -1.42982,-0.05663 -0.16988,0.169879 -1.6988,0.155723 -2.20844,-0.01416 -0.28313,-0.0991 -0.39638,-0.198192 -0.43885,-0.424698 -0.0708,-0.29729 -0.4247,-0.679518 -0.93434,-0.990964 -0.16988,-0.113253 -0.48132,-0.325603 -0.69367,-0.495482 -0.28314,-0.212349 -0.45302,-0.283133 -0.66536,-0.240663 -0.14157,0.02831 -0.4247,0 -0.6229,-0.04247 -0.45301,-0.113253 -0.45301,-0.396385 0,-0.87771 0.33976,-0.353916 0.43886,-0.537952 0.26898,-0.537952 -0.0425,0 -0.18404,-0.08494 -0.31145,-0.212349 -0.16988,-0.16988 -0.19819,-0.240663 -0.0991,-0.353916 0.19819,-0.240663 0.39638,-0.155723 0.87771,0.325602 0.46717,0.481326 0.48132,0.523795 0.45301,0.962651 0,0.212349 0.11325,0.353915 0.79277,0.849397 0.43886,0.325603 0.86356,0.622892 0.92018,0.651205 0.0566,0.02831 0.16988,0.212349 0.26898,0.396386 0.0849,0.184036 0.29729,0.382228 0.43885,0.438855 0.36808,0.141566 1.86868,0.141566 2.01024,8.92e-4 0.0566,-0.05663 0.41055,-0.113253 0.77862,-0.113253 l 0.66536,0 0.76446,0.778614 c 0.72199,0.736145 0.79277,0.778615 1.30241,0.835241 0.52379,0.04247 0.53795,0.04247 0.6512,-0.268976 0.22651,-0.383121 0.19819,-0.453904 -0.26897,-0.538843 -0.25482,-0.04247 -0.56627,-0.240663 -0.90603,-0.566265 -0.29729,-0.268976 -0.69367,-0.580422 -0.89187,-0.679518 -0.19819,-0.0991 -0.48132,-0.268976 -0.60873,-0.368073 -0.29729,-0.226506 -0.55211,-0.240662 -1.10422,-0.04247 -0.67951,0.240663 -1.23162,0.198193 -1.98192,-0.169879 -0.36808,-0.184036 -0.79278,-0.495482 -0.96265,-0.693675 -0.16988,-0.212349 -0.46717,-0.580421 -0.66537,-0.821084 -0.19819,-0.254819 -0.36807,-0.509638 -0.36807,-0.594578 0,-0.268976 -0.87771,-0.622892 -1.78373,-0.721988 -0.62289,-0.05663 -0.80693,-0.226506 -0.58042,-0.495482 0.16987,-0.198193 0.46716,-0.184036 1.41566,0.05663 0.9768,0.254819 1.14668,0.368072 1.54307,0.990963 0.16988,0.268976 0.41054,0.594579 0.52379,0.721988 0.11326,0.113253 0.1982,0.240663 0.1982,0.268976 0,0.240663 1.14668,0.976807 1.54307,0.976807 0.19819,0 0.0142,-0.155723 -0.24066,-0.226506 -0.14157,-0.02831 -0.12741,-0.04247 0.0708,-0.05663 0.15572,0 0.38223,0.02831 0.49548,0.0991 0.11326,0.05663 0.24066,0.07078 0.26898,0.01416 0.21235,-0.297289 0.89187,-0.353916 1.21747,-0.0991 0.0566,0.04247 0.49548,0.268976 0.94849,0.495482 0.45301,0.21235 1.03344,0.552109 1.28825,0.750301 0.5238,0.396386 0.72199,0.438856 0.79278,0.16988 0.15572,-0.552109 0.16987,-2.604819 0.0142,-3.44006 -0.0708,-0.920181 -0.19819,-3.383433 -0.19819,-5.974096 0,-1.203309 -0.0283,-1.613851 -0.12741,-1.613851 -0.16988,0 -0.43886,-0.410542 -0.43886,-0.693674 0,-0.25482 0.15573,-0.283133 0.45302,-0.07078 0.0991,0.07078 0.41054,0.141567 0.69367,0.141567 0.45301,0 0.49548,-0.01416 0.49548,-0.25482 0,-0.212349 -0.0425,-0.254819 -0.3256,-0.268975 -0.18404,0 -0.4247,0 -0.53795,0 -0.11325,0 -0.36807,-0.05663 -0.58042,-0.141567 -0.55211,-0.240662 -0.59458,-0.495482 -0.0991,-0.750301 0.25482,-0.198193 0.25482,-0.297289 -0.0708,-0.438855 -0.39639,-0.184036 -0.58042,-0.566265 -0.60874,-1.288253 0,-0.353916 -0.0425,-0.707831 -0.0849,-0.792771 -0.0283,-0.08494 0.0566,-0.368072 0.22651,-0.693675 0.24066,-0.424698 0.35391,-0.537951 0.56626,-0.537951 0.12741,-3e-6 0.25482,-0.04247 0.25482,-0.0991 0,-0.05663 -0.0425,-0.0991 -0.0991,-0.0991 -0.0425,0 -0.0708,-0.05663 -0.0425,-0.12741 0.0708,-0.212349 -0.22651,-2.30753 -0.35392,-2.562349 -0.0708,-0.12741 -0.18403,-0.226506 -0.26897,-0.226506 -0.16988,0 -0.66537,0.212349 -0.66537,0.297289 0,0.02831 -0.12741,0.05663 -0.28313,0.07078 -0.15572,0 -0.49548,0.04247 -0.7503,0.08494 -0.59458,0.08494 -1.2741,-0.212349 -1.37319,-0.608735 -0.0283,-0.141566 -0.24066,-0.368072 -0.48133,-0.523795 l -0.41054,-0.254819 -0.35392,0.212349 c -0.35391,0.21235 -0.6512,0.665362 -0.6512,0.976807 0,0.240663 -0.49548,1.075904 -0.92018,1.543072 -0.19819,0.226506 -0.53795,0.665362 -0.73615,0.990964 -0.53795,0.863554 -1.51475,1.387349 -2.01024,1.061747 -0.3256,-0.212349 -0.28313,-0.764458 0.0425,-0.920181 0.22651,-0.0991 0.39639,-0.467168 0.28314,-0.651204 -0.0283,-0.04247 -0.22651,-0.113253 -0.4247,-0.155723 -0.45301,-0.07078 -0.76446,-0.325603 -0.76446,-0.622892 0,-0.368072 0.22651,-0.552108 0.83524,-0.651204 1.06175,-0.184037 1.93946,-0.778615 1.93946,-1.316567 0,-0.608734 0.76446,-1.698795 1.52891,-2.165963 0.28314,-0.16988 0.5238,-0.226506 1.04759,-0.226506 0.76446,0 0.92018,0.07078 1.65633,0.750301 0.50964,0.481325 0.53795,0.495482 1.00512,0.424699 0.25482,-0.02831 0.59458,-0.12741 0.7503,-0.21235 0.14157,-0.07078 0.33976,-0.141566 0.4247,-0.141566 0.25482,0 0.29729,-0.509638 0.12741,-1.585542 -0.31145,-1.939458 -0.31145,-1.854518 0,-2.477409 l 0.28313,-0.566265 1.03344,0 c 0.93433,0 1.06174,0 1.44397,0.254819 0.22651,0.141566 0.46717,0.325602 0.53795,0.410542 0.0991,0.12741 0.11326,0.04247 0.0566,-0.438855 -0.0425,-0.396386 -0.0142,-0.637048 0.0566,-0.736145 0.18403,-0.226506 0.6512,-0.169879 0.92018,0.0991 0.12741,0.141566 0.28313,0.254819 0.3256,0.254819 0.0425,0 0.39638,0.311446 0.77861,0.693674 0.36808,0.382229 1.01928,0.948494 1.41567,1.25994 0.39638,0.297289 1.09006,0.877711 1.54307,1.25994 0.43885,0.382229 0.99096,0.792771 1.21747,0.906024 0.45301,0.226506 1.01927,0.637048 1.68464,1.245783 l 0.45301,0.410542 0.0991,-0.240663 c 0.0425,-0.127409 0.12741,-0.467168 0.18404,-0.750301 0.0425,-0.268976 0.14157,-0.580422 0.22651,-0.665361 0.18403,-0.21235 0.24066,-1.783735 0.0708,-2.010241 -0.0566,-0.07078 -0.18404,-0.410542 -0.28313,-0.736145 -0.36808,-1.373192 -0.0283,-3.709035 0.76445,-5.351204 0.15573,-0.339759 0.32561,-0.721988 0.38223,-0.877711 0.0425,-0.141566 0.18404,-0.495481 0.31145,-0.792771 0.12741,-0.297289 0.24066,-0.566265 0.24066,-0.594578 0,-0.05663 0.59458,-0.92018 1.14669,-1.642168 0.66536,-0.891868 2.03855,-1.812048 3.15693,-2.123494 0.43885,-0.113253 1.11837,-0.325602 1.51476,-0.453012 0.58042,-0.198193 0.93433,-0.240663 1.89698,-0.240663 0.65121,-7.6e-5 1.35904,0.04247 1.58554,0.0991 0.21235,0.05663 0.79278,0.113253 1.28826,0.141566 0.48132,0.01416 1.20331,0.07078 1.5997,0.12741 0.63704,0.08494 0.73614,0.127409 1.10421,0.523795 0.21235,0.226506 0.49548,0.424698 0.60874,0.424698 0.38223,0 0.94849,0.311446 1.33072,0.736145 0.21235,0.240663 0.59458,0.537952 0.86355,0.665361 0.5238,0.25482 0.55211,0.283133 1.14669,0.990964 0.76446,0.920181 1.00512,1.458132 1.03344,2.321687 0.0142,0.453012 -0.0283,0.976807 -0.11326,1.274096 -0.0708,0.268976 -0.14156,0.750301 -0.14156,1.061747 0,0.495482 0.0708,0.679518 0.67951,1.755421 0.36808,0.651205 0.7503,1.330723 0.82109,1.500602 0.0708,0.16988 0.18403,0.382229 0.24066,0.481326 0.0425,0.08494 0.0849,0.552108 0.0849,1.019277 0,0.990963 -0.19819,1.543072 -0.70783,1.939457 -0.16988,0.12741 -0.50964,0.396386 -0.73615,0.580422 -0.2265,0.184036 -0.52379,0.353916 -0.6512,0.382229 -0.4247,0.0991 -0.4247,0.96265 0,0.96265 0.12741,0 0.29729,0.01416 0.39639,0.05663 0.0991,0.04247 0.18403,-0.01416 0.25481,-0.21235 0.0566,-0.141566 0.15573,-0.254819 0.22651,-0.226506 0.12741,0.04247 0.12741,0.382229 0,1.13253 -0.0566,0.311446 -0.0566,0.481326 0,0.481326 0.0849,0 0.87771,-0.410542 2.54819,-1.316566 0.25482,-0.12741 0.5238,-0.29729 0.60874,-0.368073 0.0849,-0.05663 0.28313,-0.184036 0.45301,-0.268976 0.16988,-0.07078 0.49548,-0.268975 0.72199,-0.410542 0.2265,-0.141566 0.7503,-0.438855 1.175,-0.665361 0.70783,-0.368072 1.30241,-0.721988 2.93042,-1.755422 0.70783,-0.453012 1.71295,-1.231626 2.18012,-1.684638 0.50964,-0.495482 0.66536,-0.353916 0.63705,0.580422 0,0.424698 0,0.792771 0.0283,0.835241 0.0283,0.02831 0.33976,-0.02831 0.67952,-0.141567 0.66536,-0.226506 0.89187,-0.198192 0.99096,0.0991 0.0425,0.141566 0.15573,0.184036 0.45301,0.184036 0.87772,0 1.20332,0.410542 1.03344,1.316566 -0.0425,0.254819 -0.11325,1.203313 -0.14157,2.09518 -0.0566,1.882832 -0.0566,1.896988 0.80693,1.812048 0.8494,-0.08494 1.16084,-0.283132 1.24578,-0.821084 0.14157,-0.891867 0.28314,-1.21747 0.79277,-1.698795 0.41055,-0.396385 0.56627,-0.481325 0.92018,-0.495482 0.22651,0 0.56627,0.04247 0.73615,0.12741 0.25482,0.12741 0.36807,0.12741 0.67952,0.02831 0.21235,-0.05663 0.50964,-0.0991 0.67951,-0.07078 0.41055,0.07078 1.18916,-0.268976 1.40151,-0.651205 0.3256,-0.552108 0.50964,-0.396385 0.63705,0.495482 0.0566,0.481325 0.0425,0.509639 -0.36807,0.976807 -0.41055,0.453012 -0.4247,0.481326 -0.24067,0.622892 0.0991,0.07078 0.22651,0.141566 0.26898,0.141566 0.14157,0 0.29729,0.424699 0.22651,0.622892 -0.12741,0.424698 -0.43886,0.509638 -1.44398,0.396385 -1.04759,-0.113253 -1.89699,-0.453012 -2.16596,-0.863554 -0.12741,-0.184036 -0.24067,-0.254819 -0.43886,-0.240663 -0.22651,0.02831 -0.26897,0.113253 -0.48132,0.962651 -0.11326,0.509638 -0.29729,1.061747 -0.39639,1.203313 -0.31145,0.467169 -0.93434,0.750301 -1.88283,0.821084 -0.46717,0.02831 -0.93434,0.0991 -1.04759,0.155723 -0.0991,0.05663 -0.26898,0.07078 -0.35392,0.04247 -0.14156,-0.04247 -0.15572,-0.226506 -0.0991,-1.373193 0.0849,-1.996084 0.16988,-4.459337 0.15572,-4.742469 -0.0142,-0.566265 -0.5238,-0.608735 -1.5006,-0.12741 -0.28314,0.12741 -0.90603,0.396386 -1.38735,0.566265 -0.48133,0.16988 -0.93434,0.368073 -1.01928,0.438856 -0.0849,0.07078 -0.39638,0.226506 -0.70783,0.339759 -0.29729,0.113253 -0.6512,0.283132 -0.76446,0.368072 -0.11325,0.07078 -0.31144,0.141566 -0.4247,0.141566 -0.11325,0 -0.3256,0.08494 -0.46717,0.184036 -0.1274,0.0991 -0.39638,0.226506 -0.58042,0.25482 -0.18403,0.02831 -0.53795,0.198192 -0.76445,0.353915 -0.22651,0.141566 -0.70784,0.382229 -1.04759,0.495482 -0.66537,0.226506 -1.0476,0.424699 -2.19428,1.118373 -0.39639,0.240663 -0.83524,0.438856 -0.97681,0.438856 -0.15572,0 -0.29729,0.07078 -0.36807,0.198193 -0.0566,0.113253 -0.21235,0.198192 -0.3256,0.198192 -0.11326,3.32e-4 -0.33976,0.07078 -0.49549,0.16988 -1.06174,0.721988 -1.28825,0.849397 -1.45813,0.849397 -0.0991,0 -0.45301,0.21235 -0.77861,0.467169 -0.31145,0.254819 -0.65121,0.495482 -0.73615,0.523795 -0.0849,0.02831 -0.24066,0.12741 -0.36807,0.240663 -0.11325,0.0991 -0.50964,0.339759 -0.87771,0.523795 -0.35392,0.184036 -0.92018,0.509638 -1.24578,0.721988 -0.31145,0.198192 -0.60874,0.382229 -0.65121,0.382229 -0.0283,0 -0.2265,0.113253 -0.4247,0.268975 -0.72198,0.552109 -2.10933,1.146687 -1.65632,0.707832 0.19819,-0.198193 3.11446,-2.010241 3.79397,-2.364157 0.29729,-0.141566 0.8494,-0.495482 1.23163,-0.764457 0.36807,-0.268976 0.99096,-0.637049 1.35904,-0.835241 0.36807,-0.184036 1.06174,-0.580422 1.54307,-0.863554 0.48132,-0.283133 1.20331,-0.679518 1.5997,-0.891868 1.93946,-1.019277 2.7747,-1.429819 2.85964,-1.429819 0.0425,0 0.5521,-0.226506 1.13253,-0.495482 0.58042,-0.268976 1.41566,-0.651205 1.86867,-0.821084 0.43886,-0.16988 0.93434,-0.382229 1.0759,-0.467169 0.14157,-0.07078 0.41055,-0.212349 0.60874,-0.311445 0.19819,-0.08494 0.72199,-0.339759 1.175,-0.552109 0.45301,-0.212349 0.92018,-0.424699 1.04759,-0.453012 0.12741,-0.02831 0.2265,-0.127409 0.2265,-0.212349 0,-0.184036 0.0283,-0.184036 -0.76445,0.0991 -0.36808,0.141566 -0.7503,0.254819 -0.8494,0.254819 -0.0849,0 -0.31145,0.12741 -0.49548,0.29729 -0.18404,0.169879 -0.50964,0.325602 -0.76446,0.368072 -0.22651,0.02831 -0.66536,0.226506 -0.96265,0.424699 -0.56627,0.382228 -1.51476,0.87771 -1.89699,1.00512 -0.39638,0.113253 -0.26897,-0.198193 0.14157,-0.396386 0.21235,-0.08494 0.59458,-0.297289 0.8494,-0.467168 0.92018,-0.594578 2.54819,-1.486446 2.85963,-1.571386 0.14157,-0.02831 0.22651,-0.184036 0.31145,-0.594578 0.0566,-0.297289 0.0849,-0.566265 0.0566,-0.580421 -0.0991,-0.0991 -0.97681,0.339759 -1.14669,0.594578 -0.15572,0.226506 -0.72199,0.637048 -1.54307,1.075903 -0.11326,0.05663 -0.66536,0.382229 -1.23163,0.721988 -0.56626,0.339759 -1.2741,0.736145 -1.58554,0.891868 -0.29729,0.141566 -0.73615,0.410542 -0.96265,0.594578 -0.21235,0.169879 -0.69368,0.453012 -1.03344,0.608735 -0.33975,0.155723 -0.7503,0.353915 -0.89186,0.438855 -0.14157,0.07078 -0.46717,0.254819 -0.73615,0.382229 -0.25482,0.12741 -0.55211,0.297289 -0.6512,0.382229 -0.0849,0.07078 -0.33976,0.226506 -0.55211,0.339759 -1.09006,0.566265 -1.5006,0.806927 -1.64217,0.92018 -0.0849,0.07078 -0.60873,0.368073 -1.175,0.665362 -0.56626,0.283132 -1.11837,0.608735 -1.23163,0.707831 -0.11325,0.08494 -0.38222,0.254819 -0.60873,0.353916 -0.50964,0.226506 -0.86355,0.481325 -1.57139,1.13253 -0.9768,0.891867 -2.49156,2.463252 -2.49156,2.576505 0,0.226506 -0.58042,1.203314 -0.7503,1.274097 -0.45301,0.155723 -0.77862,-0.141567 -0.62289,-0.608735 0.0283,-0.113253 0.0142,-0.198193 -0.0142,-0.198193 -0.0425,0 -0.14157,0.198193 -0.21235,0.453012 -0.16988,0.651205 -0.4247,0.622892 -0.4247,-0.02831 0,-0.268976 0.0425,-0.537952 0.11325,-0.608735 0.16988,-0.16988 -0.0566,-0.693675 -0.67951,-1.415663 -0.28314,-0.339759 -0.55211,-0.637048 -0.58043,-0.665361 -0.0283,-0.02831 -0.49548,-0.453012 -1.01927,-0.948494 -0.9485,-0.877711 -1.5006,-1.259939 -4.26115,-2.944578 -0.79277,-0.481325 -1.45813,-0.906024 -1.48644,-0.948494 -0.0283,-0.02831 -0.3256,-0.212349 -0.65121,-0.396385 -0.3256,-0.184036 -0.76445,-0.438856 -0.9768,-0.580422 -0.1982,-0.127409 -0.45302,-0.297289 -0.55211,-0.368072 -0.0991,-0.05663 -0.39639,-0.297289 -0.66536,-0.509639 -0.25482,-0.212349 -0.82109,-0.608734 -1.24579,-0.891867 -1.25994,-0.835241 -1.35903,-0.906024 -2.68976,-2.052711 -0.42469,-0.368072 -0.96265,-0.806927 -1.175,-0.976807 -0.21234,-0.169879 -0.77861,-0.665361 -1.27409,-1.104216 -0.87771,-0.792771 -1.13253,-0.948494 -0.99097,-0.608735 0.0283,0.0991 0.11326,0.382229 0.16988,0.637048 0.0991,0.495482 0.70784,1.175 1.33073,1.500602 0.18403,0.08494 0.52379,0.311446 0.7503,0.495482 0.2265,0.169879 0.73614,0.537952 1.13253,0.806928 1.27409,0.849397 2.56235,1.812048 3.41174,2.562349 0.45302,0.396385 0.97681,0.806927 1.14669,0.906024 0.16988,0.0991 0.33976,0.240662 0.38223,0.297289 0.0283,0.05663 0.16988,0.155723 0.28313,0.212349 0.25482,0.0991 0.63705,0.339759 1.76958,1.104217 0.43886,0.297289 0.86355,0.537952 0.93434,0.537952 0.0566,1.03e-4 0.15572,0.05663 0.19819,0.127409 0.0991,0.155723 0.50964,0.424699 1.21747,0.792771 0.28313,0.141567 0.69368,0.368073 0.92018,0.495482 0.22651,0.12741 0.69368,0.396386 1.06175,0.580422 0.77861,0.410542 1.01927,0.608735 1.79789,1.415662 1.01928,1.047591 1.09006,1.175 1.11837,1.911145 0.0142,0.594578 0,0.651204 -0.16988,0.651204 -0.15572,0 -0.21235,-0.07078 -0.2265,-0.339759 -0.0142,-0.184036 0.0142,-0.396385 0.0708,-0.467168 0.0849,-0.0991 0.0283,-0.198193 -0.19819,-0.396386 l -0.31145,-0.254819 -0.19819,0.198193 -0.19819,0.198193 0.19819,0.212349 c 0.11325,0.113253 0.22651,0.438855 0.26897,0.693675 0.0708,0.566265 0.29729,0.821084 0.9485,1.118373 0.38223,0.169879 0.60873,0.198193 1.13253,0.155723 0.90602,-0.07078 1.30241,-0.382229 1.42982,-1.118374 0.0849,-0.523795 0.11325,-0.552108 0.76446,-0.990963 0.36807,-0.240663 0.84939,-0.537952 1.09006,-0.665362 0.2265,-0.113253 0.73614,-0.438855 1.13253,-0.693674 0.38222,-0.25482 1.09006,-0.679518 1.55722,-0.948494 0.46717,-0.254819 1.01928,-0.608735 1.23163,-0.764458 0.19819,-0.155723 0.55211,-0.382229 0.79277,-0.481325 0.22651,-0.0991 0.62289,-0.325603 0.87771,-0.523795 0.39639,-0.283133 3.82229,-1.996084 3.99217,-1.996084 0.12741,0 1.00512,-0.453012 1.20331,-0.637049 0.0991,-0.0991 0.35392,-0.226506 0.56627,-0.297289 0.19819,-0.05663 0.66536,-0.268976 1.03343,-0.467168 0.35392,-0.184036 0.69368,-0.339759 0.7503,-0.339759 0.0425,0 0.28314,-0.12741 0.53796,-0.297289 0.24066,-0.16988 0.48132,-0.29729 0.53795,-0.29729 0.0425,0 0.52379,-0.212349 1.06174,-0.495481 0.5238,-0.268976 1.24579,-0.594579 1.58555,-0.721988 1.18915,-0.453012 2.16596,-0.863554 2.32168,-1.005121 0.0849,-0.07078 0.32561,-0.127409 0.53795,-0.127409 0.50964,0 0.49549,0.254819 -0.0141,0.339759 -0.21235,0.02831 -0.66536,0.198192 -1.00512,0.368072 -0.3256,0.169879 -0.65121,0.297289 -0.72199,0.311446 -0.12741,0 -1.48645,0.637048 -1.93946,0.906024 -0.35391,0.212349 -1.09006,0.580421 -1.95361,0.990963 -0.79277,0.368073 -0.82109,0.382229 -2.78886,1.373193 -0.90602,0.453012 -1.75542,0.835241 -1.88283,0.835241 -0.12741,-8.81e-4 -0.2265,0.02831 -0.2265,0.07078 0,0.08494 -0.26898,0.226506 -1.48645,0.806928 -0.67952,0.311445 -2.06687,1.13253 -2.47741,1.458132 -0.26898,0.212349 -0.66536,0.438855 -0.77861,0.438855 -0.0566,0 -0.21235,0.08494 -0.32561,0.198193 -0.11325,0.0991 -0.53795,0.353916 -0.94849,0.566265 -0.41054,0.198193 -0.73614,0.396386 -0.73614,0.438856 0,0.04247 -0.25482,0.226506 -0.58043,0.424698 -0.3256,0.184036 -0.79277,0.509639 -1.06174,0.721988 -0.25482,0.198193 -0.73615,0.523795 -1.07591,0.693675 -0.33976,0.169879 -0.66536,0.410542 -0.73614,0.552108 -0.15572,0.283133 -0.24066,1.104217 -0.26898,2.604815 0,0.622891 -0.0425,2.151807 -0.0849,3.39759 -0.0425,1.797891 -0.0708,10.928914 -0.0283,12.797589 0,0.226506 -0.0142,1.288249 -0.0708,2.364159 -0.0849,2.27921 -0.0849,4.5018 0.0283,7.87108 0,0.38223 0.15572,0.36807 0.73614,-0.0708 0.1982,-0.15573 0.67952,-0.43886 1.07591,-0.65121 0.38223,-0.19819 0.77861,-0.41054 0.86355,-0.46717 0.0849,-0.0425 0.60874,-0.31144 1.18916,-0.59457 0.56626,-0.26898 1.14669,-0.56627 1.28825,-0.66537 0.12741,-0.0849 0.29729,-0.16987 0.38223,-0.16987 0.16988,0 1.91114,-1.09006 2.37831,-1.50061 0.1982,-0.16988 0.73615,-0.50964 1.18916,-0.76445 0.45301,-0.24067 0.94849,-0.5238 1.09006,-0.6229 0.14157,-0.0991 0.31145,-0.18403 0.36807,-0.18403 0.0991,0 1.21747,-1.06175 1.78374,-1.6988 0.59458,-0.66536 0.93433,-0.80693 1.74126,-0.72199 0.36807,0.0283 0.70783,0.0142 0.97681,-0.0708 0.21235,-0.0708 0.69367,-0.16988 1.06175,-0.21235 0.6512,-0.0708 0.90602,-0.15572 2.02439,-0.66536 0.33976,-0.155722 0.83524,-0.382228 1.09006,-0.509638 0.26898,-0.127409 0.58043,-0.368072 0.73615,-0.594578 0.26897,-0.410542 0.52379,-1.288253 0.4247,-1.543072 -0.0283,-0.08494 0,-0.806928 0.0425,-1.599699 0.31144,-4.261144 0.41054,-6.724397 0.46717,-10.773191 l 0.0566,-4.459333 -0.4247,-0.368072 c -0.35391,-0.311446 -0.41054,-0.438856 -0.41054,-0.736145 0,-0.198192 -0.0425,-0.679518 -0.0991,-1.061747 -0.11325,-0.651204 -0.0991,-0.721987 0.15573,-1.415662 0.41054,-1.061747 1.64217,-2.22259 2.13765,-2.024397 0.28313,0.113253 0.58042,1.04759 0.58042,1.911144 0,0.353916 0.0425,0.721988 0.0991,0.835241 0.0566,0.0991 0.0708,0.382229 0.0283,0.608735 -0.0708,0.467168 -0.41054,0.750301 -1.16084,0.906024 -0.4247,0.08494 -0.83525,0.353915 -0.83525,0.537951 0,0.0991 0.75031,0.113253 1.10422,0.01416 0.12741,-0.02831 0.25482,-0.169879 0.29729,-0.325602 0.0849,-0.396386 0.14157,-0.438856 0.28313,-0.311446 0.0991,0.07078 0.0991,0.198193 0.0425,0.424699 -0.12741,0.453012 -0.38223,0.693674 -0.82108,0.764457 -0.38223,0.05663 -0.38223,0.05663 -0.45301,0.693675 -0.0425,0.339759 -0.0849,1.882827 -0.0991,3.411742 0,1.528916 -0.0425,3.680723 -0.0849,4.770783 -0.0849,2.236747 -0.0708,2.293373 0.56627,2.293373 0.46716,0 0.76445,-0.339759 0.66536,-0.764457 -0.0708,-0.29729 -0.36808,-0.339759 -0.36808,-0.04247 0,0.283132 -0.36807,0.268976 -0.43885,-0.01416 -0.26898,-1.033434 0.31145,-1.981927 1.38735,-2.194277 0.39638,-0.07078 1.13253,0.16988 1.44397,0.481325 0.22651,0.226506 0.25482,0.226506 0.66537,-0.01416 0.26897,-0.155723 0.3256,-0.268976 0.3256,-0.552109 0,-0.184036 0.0425,-0.382228 0.0991,-0.410542 0.1982,-0.113253 0.60874,0.04247 0.65121,0.283133 0.15572,0.792771 0.14157,0.764458 0.56626,0.835241 0.35392,0.05663 0.41055,0.0991 0.41055,0.325602 0,0.297289 -0.67952,1.075904 -1.175,1.344879 -0.59458,0.311446 -1.28826,0.438856 -1.76958,0.311446 -0.24066,-0.05663 -0.43886,-0.141566 -0.43886,-0.184036 0,-0.04247 -0.18403,-0.268976 -0.41054,-0.509638 -0.45301,-0.481326 -0.41054,-0.707832 0.0991,-0.707832 0.21235,0 0.36807,0.0991 0.60873,0.410542 0.56627,0.721988 1.44398,0.764458 2.06687,0.08494 0.39638,-0.438855 0.39638,-0.608735 -0.0142,-0.566265 -0.26897,0.01416 -0.3256,0 -0.31144,-0.169879 0.0283,-0.325603 -0.16988,-0.353916 -0.55211,-0.08494 -0.48133,0.325602 -1.00512,0.311446 -1.45813,0 -0.4247,-0.311446 -0.50964,-0.311446 -0.80693,-0.02831 -0.18404,0.169879 -0.21235,0.283132 -0.16988,0.580421 0.0283,0.198193 0.15572,0.509639 0.28313,0.679518 0.31145,0.424699 0.29729,1.415663 -0.0283,2.095181 l -0.22651,0.467168 -0.76446,0.07078 c -0.42469,0.02831 -0.82108,0.08494 -0.87771,0.113253 -0.14156,0.04247 -0.2265,0.637048 -0.28313,1.911144 -0.0425,1.13253 -0.0142,1.288253 0.28313,1.373193 0.11326,0.02831 0.41055,0.268975 0.63705,0.537951 0.21235,0.25482 0.55211,0.651205 0.73615,0.849398 0.18403,0.198193 0.53795,0.778614 0.79277,1.288253 0.39638,0.80693 0.46717,1.03343 0.52379,1.85452 0.0283,0.50964 0.12741,1.03343 0.1982,1.175 0.14156,0.28313 0.16987,0.55211 0.15572,1.20331 0,0.3256 -0.0849,0.5238 -0.3256,0.79277 -0.16988,0.19819 -0.41055,0.35392 -0.50964,0.35392 -0.58042,0 -1.00512,0.50964 -1.00512,1.23162 0,0.21235 -0.0566,0.43886 -0.14157,0.50964 -0.0708,0.0566 -0.15572,0.28313 -0.19819,0.48133 -0.0566,0.35391 -0.18404,0.50964 -1.62801,1.84036 -0.16988,0.15572 -1.04759,0.41054 -1.58555,0.46717 -0.31144,0.0283 -1.14668,-0.16988 -1.33072,-0.31145 -0.0566,-0.0425 -0.18403,-0.0142 -0.28313,0.0425 -0.12741,0.0991 -0.38223,0.11325 -0.89187,0.0708 -0.38223,-0.0283 -1.20331,0 -1.81205,0.0566 -0.60873,0.0566 -1.37319,0.12741 -1.68463,0.15572 -1.09006,0.0708 -1.31657,0.15573 -1.71296,0.6229 -0.63704,0.77861 -1.41566,1.01927 -2.50572,0.77861 -0.24066,-0.0425 -0.50964,-0.16988 -0.56626,-0.25482 -0.0566,-0.0849 -0.24067,-0.15572 -0.38223,-0.15572 -0.1982,0 -0.28314,-0.0566 -0.32561,-0.28313 -0.11325,-0.5238 -0.39638,-0.96266 -0.6512,-1.00513 -0.14157,-0.0142 -0.46717,-0.0849 -0.72199,-0.14156 -0.25482,-0.0566 -1.06174,-0.0991 -1.79789,-0.11325 -1.10422,0 -1.41566,0.0142 -1.79789,0.16987 -0.38223,0.15573 -1.24578,0.69368 -1.84036,1.13253 -0.31145,0.22651 -0.93434,0.89187 -0.93434,0.97681 0,0.15572 -0.58042,0.70783 -0.7503,0.70783 -0.0849,0 -0.15572,0.0425 -0.15572,0.0991 0,0.0566 -0.0566,0.0991 -0.15573,0.0991 -0.14156,0 -0.56626,0.18403 -0.66536,0.31144 -0.0283,0.0283 -0.14156,0.0849 -0.25482,0.11325 -0.11325,0.0283 -0.26897,0.0849 -0.35391,0.11326 -0.0849,0.0283 -0.1982,0.0142 -0.25482,-0.0142 z m 1.24578,-1.09006 c 0.7503,-0.35392 0.96265,-0.56627 0.96265,-0.96265 0,-0.15572 -0.0566,-0.21235 -0.24066,-0.21235 -0.19819,0 -0.22651,-0.0283 -0.18404,-0.21235 0.0283,-0.11325 0.14157,-0.25482 0.24067,-0.3256 0.11325,-0.0708 0.18403,-0.22651 0.18403,-0.45301 l 0,-0.33976 -0.28313,0.21235 c -0.19819,0.14156 -0.49548,0.2265 -1.04759,0.26897 -0.67952,0.0425 -0.79277,0.0283 -1.04759,-0.15572 -0.50964,-0.41054 -0.29729,-0.67952 0.29729,-0.35392 0.15572,0.0708 0.50964,0.14157 0.77861,0.14157 0.4247,5.5e-4 0.53795,-0.0425 0.92018,-0.39639 0.46717,-0.42469 0.45302,-0.66536 -0.0141,-0.38222 -0.41055,0.24066 -1.3732,0.33975 -1.75542,0.16988 -0.29729,-0.11326 -0.50964,-0.36808 -0.50964,-0.60874 0,-0.16988 0.38223,-0.12741 0.49548,0.0566 0.0708,0.12741 0.2265,0.15572 0.77861,0.14156 0.80693,-0.0142 1.13253,-0.12741 1.30241,-0.4247 0.0708,-0.14156 0.12741,-0.90602 0.14157,-2.09518 0,-1.01927 0.0566,-2.77469 0.0991,-3.90722 0.0708,-1.75543 0.0566,-2.038559 -0.0566,-2.038559 -0.0708,0 -0.24066,0.05663 -0.33976,0.141569 -0.26898,0.19819 -1.6988,0.19819 -2.10934,-3.3e-4 -0.24066,-0.113251 -0.31144,-0.127407 -0.35391,-0.0142 -0.0425,0.14156 -0.0991,2.05271 -0.0849,2.97289 0,0.31144 -10e-5,1.96777 -0.0142,3.69488 -0.0283,2.93042 -0.0142,3.15692 0.15572,3.51084 0.22651,0.43885 0.24067,0.46717 0.0425,0.66536 -0.16988,0.16988 -0.0708,0.62289 0.1982,1.06175 0.21235,0.3256 0.53795,0.31144 1.44397,-0.11326 z m -1.35903,-0.82108 c -0.0708,-0.18404 0.12741,-0.56627 0.29728,-0.56627 0.0566,0 0.18404,0.0991 0.25482,0.21235 0.11326,0.18404 0.11326,0.24066 -0.0425,0.35392 -0.24066,0.16988 -0.43885,0.16988 -0.50963,0 z m 0.99096,-0.0849 c 0,-0.12741 0.0566,-0.31145 0.14157,-0.4247 0.11325,-0.15573 0.16988,-0.16988 0.29728,-0.0566 0.29729,0.24066 0.11326,0.72199 -0.26897,0.72199 -0.11325,0 -0.18404,-0.0708 -0.16988,-0.22651 z m -2.37831,-0.33976 c 0.11325,-0.14157 0.2265,-0.41055 0.25482,-0.58042 0.0566,-0.39639 0.15572,-7.4747 0.18403,-14.11416 0.0142,-4.855722 -0.0566,-10.872288 -0.16988,-12.54277 -0.0425,-0.608735 -0.0142,-0.863554 0.0849,-1.019277 0.14157,-0.184036 0.14157,-0.184036 0.19819,0 0.0991,0.368073 0.25482,1.231627 0.26898,1.429819 0.0142,0.835241 0,1.203314 -0.0425,1.30241 -0.0283,0.05663 0,0.08494 0.0708,0.05663 0.0708,-0.01416 0.43886,0.05663 0.79277,0.184037 0.83525,0.311445 1.2741,0.297289 1.82621,-0.01416 0.33976,-0.198193 0.45301,-0.325602 0.50964,-0.622892 0.0566,-0.297289 0.0283,-0.382228 -0.14157,-0.509638 -0.25482,-0.184036 -0.28313,-0.608735 -0.0425,-0.877711 0.0991,-0.113253 0.16988,-0.396385 0.18404,-0.707831 0.0141,-0.566265 0.0283,-0.566265 -0.77862,-0.240663 -1.62801,0.637048 -2.94457,0.05663 -3.15692,-1.373188 -0.0849,-0.580422 -0.32561,-0.920181 -0.9485,-1.344879 -0.25482,-0.16988 -0.67952,-0.481326 -0.93433,-0.679518 -0.25482,-0.184037 -0.56627,-0.396386 -0.69368,-0.453012 -0.12741,-0.04247 -0.35392,-0.184037 -0.50964,-0.283133 -1.20331,-0.821084 -1.55723,-1.04759 -1.5997,-1.04759 -0.0425,0 -1.00512,-0.651205 -2.1518,-1.472289 -0.29729,-0.21235 -0.69368,-0.495482 -0.89187,-0.637048 -0.19819,-0.12741 -0.70783,-0.523795 -1.13253,-0.863554 -0.73615,-0.594579 -2.42078,-1.741265 -3.60994,-2.463253 -0.31145,-0.184036 -0.69368,-0.467169 -0.87771,-0.622892 -0.16988,-0.141566 -0.55211,-0.438855 -0.87771,-0.651204 -0.31145,-0.198193 -0.69368,-0.481326 -0.87771,-0.622892 -0.63705,-0.523795 -1.24579,-0.990964 -1.62801,-1.25994 l -0.38223,-0.268975 -0.43886,0.453012 c -0.56626,0.594578 -0.96265,0.906024 -1.37319,1.104216 -0.16988,0.08494 -0.35392,0.198193 -0.36807,0.268976 -0.0142,0.05663 9.2e-4,0.438856 0.0566,0.835241 0.0425,0.382229 0.0849,0.948494 0.0849,1.231626 0,0.566265 0.24067,2.51988 0.4247,3.241868 0.0708,0.297289 0.26898,0.622891 0.55211,0.92018 0.83524,0.891868 0.66536,1.415663 -0.48133,1.429819 -0.72198,0 -0.94849,0.12741 -0.69367,0.382229 0.0991,0.0991 0.41054,0.184036 0.83524,0.21235 0.59458,0.04247 0.67952,0.02831 0.7503,-0.12741 0.0991,-0.268976 0.24066,-0.339759 0.46717,-0.226506 0.19819,0.0991 0.24066,0.410542 0.0708,0.707831 -0.0566,0.12741 -0.0708,0.254819 0,0.368072 0.0566,0.113253 0.0425,0.268976 -0.0708,0.481326 -0.0849,0.169879 -0.16988,0.537951 -0.16988,0.821084 0,0.509638 0,0.509638 -0.49548,0.764458 -0.26898,0.141566 -0.5238,0.325602 -0.58042,0.410542 -0.0425,0.08494 0,1.656321 0.0708,3.510839 0.24066,5.096385 0.19819,10.985541 -0.0849,12.075601 -0.0425,0.198192 -0.0849,0.806927 -0.0849,1.359036 -3.1e-4,0.552108 -0.0425,1.019277 -0.0991,1.061747 -0.15572,0.0991 -0.11325,0.410542 0.0708,0.594577 0.0991,0.0849 0.45301,0.22651 0.79277,0.31145 1.4015,0.33976 1.74126,0.52379 1.67048,0.86355 -0.0283,0.12741 -0.15572,0.15572 -0.77861,0.14157 -0.55211,-0.0142 -0.73615,0 -0.73615,0.11325 0,0.0708 -0.15572,0.25482 -0.33976,0.39639 -0.18403,0.14156 -0.52379,0.5521 -0.73614,0.90602 -0.21235,0.35392 -0.49548,0.77861 -0.62289,0.96265 -0.12741,0.16988 -0.22651,0.36807 -0.22651,0.43886 0,0.1274 -0.15572,0.15572 -0.24066,0.0283 -0.0283,-0.0425 0.0991,-0.41054 0.29729,-0.82109 0.18403,-0.41054 0.35391,-0.79277 0.35391,-0.87771 0,-0.0708 0.0991,-0.21235 0.21235,-0.3256 0.25482,-0.2265 0.80693,-0.96265 0.80693,-1.09006 0,-0.0425 -0.0991,-0.0849 -0.22651,-0.0849 -0.28313,0 -0.79277,-0.52379 -0.80692,-0.83524 0,-0.12741 0.0283,-0.651204 0.0991,-1.160843 0.14157,-1.274096 0.14157,-3.043674 0,-3.043674 -0.16988,0 -1.00512,0.438855 -1.00512,0.523795 0,0.04247 -0.25482,0.254819 -0.58042,0.453012 -0.3256,0.198193 -0.6512,0.438855 -0.72199,0.509638 -0.0708,0.07078 -0.18403,0.12741 -0.26897,0.12741 -0.14157,0 -1.40151,1.359036 -1.40151,1.528916 0,0.05663 -0.0991,0.226506 -0.24066,0.382228 -0.28313,0.339759 -0.77862,1.302408 -0.77862,1.514758 0,0.14157 -0.0566,0.31145 -0.52379,1.37319 -0.21235,0.50964 -0.22651,0.59458 -0.11325,1.44398 0.11325,0.97681 0.2265,1.24578 0.72198,1.81205 0.26898,0.31144 0.38223,0.36807 0.73615,0.36807 0.38223,0 0.4247,0.0283 0.72199,0.53795 0.63704,1.14669 1.0759,1.33072 2.44909,1.04759 l 0.8494,-0.16988 0,-0.63705 c 0,-0.46716 0.0283,-0.72198 0.16988,-0.94849 0.26898,-0.4247 1.51476,-1.40151 2.27922,-1.78373 l 0.63704,-0.31145 -0.0566,-0.62289 c -0.0283,-0.33976 -0.0708,-0.67952 -0.0991,-0.7503 -0.15572,-0.49548 0.65121,-1.23163 1.86868,-1.71295 0.77861,-0.29729 1.09006,-0.1982 1.99608,0.60873 0.82108,0.7503 1.31657,1.37319 1.40151,1.81205 0.0566,0.33976 0.84939,1.21747 1.0759,1.21747 0.0708,6.6e-4 0.59458,0.3256 1.16084,0.72199 0.56627,0.39638 1.20332,0.79277 1.41566,0.89186 0.1982,0.0849 0.41055,0.25482 0.43886,0.35392 0.0283,0.0991 0.36807,0.39638 0.7503,0.6512 0.36807,0.25482 0.96265,0.65121 1.28825,0.87771 0.32561,0.22651 0.77862,0.50964 1.00512,0.60874 0.21235,0.0991 0.39639,0.24066 0.39639,0.28313 0,0.0708 0.59458,0.49548 0.87771,0.60874 0.0566,0.0142 0.24066,0.12741 0.41054,0.25482 0.16988,0.11325 0.46717,0.29729 0.66536,0.41054 0.1982,0.0991 0.38223,0.2265 0.41055,0.26897 0.0849,0.11326 0.6512,0.39639 0.83524,0.41055 0.0849,0 0.25482,-0.11326 0.38223,-0.25482 z m -20.24398,-3.77982 c -0.14156,-0.14157 -0.18403,-0.26898 -0.12741,-0.48133 0.0849,-0.41054 0.35392,-0.94849 0.45301,-0.94849 0.0425,0 0.16988,-0.12741 0.26898,-0.29729 0.0991,-0.15572 0.36807,-0.43886 0.58042,-0.59458 0.21235,-0.15572 0.49548,-0.38223 0.60874,-0.49548 0.29729,-0.28313 0.6512,-0.38223 0.6512,-0.18404 0,0.15573 -0.12741,0.29729 -0.72199,0.77862 -0.16988,0.14156 -0.5521,0.48132 -0.83524,0.76446 -0.50964,0.50963 -0.50964,0.50963 -0.43885,1.03343 0.0708,0.60873 -0.0991,0.79277 -0.45301,0.43885 z m -1.28825,-0.0283 c -0.43886,-0.1274 -0.60874,-0.42469 -0.29729,-0.49548 0.29729,-0.0708 0.90602,0.16988 0.90602,0.38223 0,0.24066 -0.11325,0.25482 -0.60873,0.11325 z m 0.48132,-1.20331 c -0.43885,-0.0991 -0.69367,-0.33976 -0.60873,-0.56626 0.14157,-0.36808 1.20331,0.0283 1.20331,0.46717 0,0.19819 -0.0566,0.19819 -0.59458,0.0708 z m 0,-1.75542 c -0.1274,-0.0425 -0.2265,-0.12741 -0.2265,-0.16988 0,-0.14157 0.24066,-0.3256 0.43885,-0.3256 0.25482,0 0.79278,0.31144 0.79278,0.48132 0,0.14157 -0.63705,0.16988 -1.00513,0.0142 z m 0.59458,-1.34488 c 0,-0.22651 0.38223,-0.28313 0.59458,-0.0708 0.19819,0.19819 0.12741,0.28313 -0.2265,0.28313 -0.28314,0 -0.35392,-0.0283 -0.35392,-0.19819 z m 0.50964,-0.7503 c 0,-0.16988 0.24066,-0.28313 0.46717,-0.19819 0.22651,0.0849 0.11325,0.28313 -0.18404,0.3256 -0.18403,0.0142 -0.26897,-0.0142 -0.26897,-0.11325 z m 3.02952,-1.65633 c -0.25482,-0.325598 -0.72199,-1.302405 -0.77861,-1.613851 -0.0425,-0.184036 -0.22651,-0.523795 -0.43886,-0.750301 -0.19819,-0.212349 -0.35392,-0.453012 -0.35392,-0.537952 0,-0.226506 0.26898,-0.396385 0.48133,-0.283132 0.26898,0.141566 1.74126,3.114457 1.5997,3.256026 -0.0991,0.0991 -0.39639,0.0566 -0.50964,-0.0566 z M 428.2236,56.787776 c -0.12741,-0.184037 -0.18404,-0.198193 -0.25482,-0.08494 -0.0425,0.07078 -0.19819,0.113253 -0.33976,0.0991 -0.18404,-0.01416 -0.24066,-0.0991 -0.26898,-0.382229 -0.0142,-0.184036 0,-0.382229 0.0566,-0.438855 0.11325,-0.113253 0.4247,0.169879 0.4247,0.410542 0,0.12741 0.0425,0.113253 0.19819,-0.07078 0.25482,-0.339759 0.56627,-0.16988 0.56627,0.311446 0,0.410542 -0.16988,0.495482 -0.38223,0.169879 z m 0.96265,-0.01416 c -0.12741,-0.155723 -0.0566,-0.665361 0.0991,-0.665361 0.15573,0 0.32561,0.396385 0.25482,0.622891 -0.0708,0.240663 -0.18403,0.254819 -0.35391,0.04247 z m 11.79247,26.472892 c 0.2265,-0.0566 0.48132,-0.22651 0.56626,-0.38223 0.0849,-0.14157 0.22651,-0.3256 0.29729,-0.39639 0.0708,-0.0708 0.19819,-0.25482 0.26898,-0.4247 0.14156,-0.26897 0.90602,-0.9768 1.75542,-1.5997 0.2265,-0.15572 0.60873,-0.50963 0.86355,-0.76445 0.50964,-0.5238 1.55723,-2.43494 1.55723,-2.85964 0,-0.46717 -0.18404,-0.96265 -0.48132,-1.28825 -0.24067,-0.25482 -1.57139,-1.00512 -1.78374,-1.00512 -0.11325,0 -1.23163,1.14668 -1.175,1.20331 0.0283,0.0283 0.24066,-0.14157 0.48133,-0.36807 0.26897,-0.25482 0.50963,-0.41055 0.63704,-0.39639 0.43886,0.0566 0.22651,0.53795 -0.5521,1.24578 -0.18404,0.16988 -0.50964,0.49549 -0.72199,0.72199 -0.19819,0.21235 -0.46717,0.49548 -0.58042,0.60874 -0.11326,0.11325 -0.26898,0.4247 -0.33976,0.69367 -0.0708,0.26898 -0.16988,0.48133 -0.21235,0.48133 -0.0425,0 -0.0991,0.12741 -0.14157,0.28313 -0.0849,0.38223 -0.66536,1.23163 -1.13253,1.67048 -0.45301,0.4247 -0.59458,0.73615 -0.56626,1.30241 0.0142,0.5238 -0.15573,0.69368 -0.55211,0.55211 -0.25482,-0.0991 -0.26898,-0.12741 -0.19819,-0.59458 0.0991,-0.69367 0.50963,-1.38735 1.18915,-1.96777 0.50964,-0.43886 0.62289,-0.60874 0.90603,-1.37319 0.16988,-0.46717 0.3256,-0.90603 0.3256,-0.97681 0,-0.0566 0.19819,-0.35392 0.45301,-0.6512 0.25482,-0.29729 0.43886,-0.55211 0.4247,-0.58043 -0.16988,-0.16988 -1.52892,1.16085 -1.85452,1.82621 -0.0849,0.19819 -0.45301,0.6512 -0.79277,1.01928 -0.6512,0.69367 -0.80693,0.70783 -0.80693,0.0708 0,-0.28313 -0.0141,-0.28313 -0.38223,-0.21235 -0.21235,0.0283 -0.45301,0.12741 -0.53795,0.21235 -0.0849,0.0708 -0.2265,0.14156 -0.29729,0.14156 -0.24066,0 -1.23162,0.60874 -1.23162,0.75031 0,0.16988 0.45301,0.67951 0.60873,0.67951 0.0566,0 0.24066,-0.0991 0.41054,-0.21235 0.28314,-0.21235 0.31145,-0.21235 0.66537,-0.0425 0.3256,0.15573 0.35391,0.1982 0.35391,0.6229 0,0.24066 0.0708,0.69367 0.16988,0.99096 0.15572,0.50964 0.19819,0.55211 0.79277,0.82108 0.69368,0.31145 1.01928,0.35392 1.62801,0.16988 z m 1.69879,-2.93042 c -0.11325,-0.11326 0.12741,-0.45302 0.33976,-0.45302 0.15572,0 0.19819,0.0566 0.16988,0.22651 -0.0283,0.22651 -0.36807,0.36807 -0.5238,0.21235 z m -0.19819,-0.72199 c -0.12741,-0.12741 -0.0566,-0.43886 0.11325,-0.53795 0.29729,-0.15573 0.3256,-0.12741 0.29729,0.2265 -0.0283,0.31145 -0.25482,0.48133 -0.4247,0.31145 z m -0.26898,-1.10422 c 0,-0.0708 0.0849,-0.24066 0.1982,-0.38223 0.15572,-0.18403 0.21234,-0.21235 0.3256,-0.11325 0.0849,0.0849 0.0991,0.18403 0,0.38223 -0.11326,0.26897 -0.5238,0.35391 -0.5238,0.11325 z m -25.89246,4.53012 c 0.24066,-0.24066 0.21235,-1.04759 -0.0425,-1.47229 -0.21235,-0.35391 -0.1982,-0.62289 0.0283,-0.62289 0.19819,0 0.55211,0.41054 0.63705,0.73614 0.18403,0.75031 0.70783,0.39639 0.79277,-0.53795 0.0425,-0.49548 0.0141,-0.62289 -0.21235,-0.99096 -0.14157,-0.22651 -0.41054,-0.5238 -0.58042,-0.67952 -0.29729,-0.25482 -0.29729,-0.26897 -0.12741,-0.56626 0.19819,-0.35392 0.15572,-0.4247 -0.26898,-0.4247 -0.26897,0 -0.4247,-0.0991 -0.8494,-0.58042 -0.28313,-0.31145 -0.52379,-0.65121 -0.52379,-0.72199 0,-0.0708 -0.11325,-0.26898 -0.25482,-0.43886 -0.12741,-0.15572 -0.29729,-0.46717 -0.35392,-0.69367 -0.0849,-0.35392 -0.39638,-0.7503 -1.28825,-1.67048 -0.50964,-0.5238 -1.03343,-0.59458 -1.75542,-0.24067 -0.97681,0.48133 -1.0759,0.59458 -1.0759,1.31657 0,0.35392 0.0849,0.87771 0.19819,1.20331 0.0991,0.31145 0.19819,0.70783 0.19819,0.89187 0,0.66536 0.76446,1.99608 1.24578,2.13765 0.0991,0.0283 0.26898,0.19819 0.35392,0.35392 0.0849,0.15572 0.21235,0.29729 0.29729,0.29729 0.26898,0 0.76446,0.73614 0.87771,1.33072 0.15572,0.82108 0.35392,1.23162 0.58042,1.24578 0.0991,0 0.25482,0.0566 0.35392,0.12741 0.0849,0.0566 0.48132,0.14157 0.87771,0.15572 0.55211,0.0142 0.7503,0 0.87771,-0.12741 z m -0.9485,-2.63313 c -0.15572,-0.15572 -0.36807,-0.48133 -0.46717,-0.72199 -0.0849,-0.24066 -0.26897,-0.53795 -0.38223,-0.6512 -0.16988,-0.16988 -0.19819,-0.31145 -0.18403,-0.92018 0.0141,-0.53796 0,-0.75031 -0.14157,-0.89187 -0.0849,-0.0991 -0.24066,-0.38223 -0.3256,-0.63705 -0.0849,-0.24066 -0.19819,-0.49548 -0.25482,-0.56627 -0.15572,-0.18403 -0.60873,-1.10421 -0.60873,-1.24578 -7.7e-4,-0.2265 0.18403,-0.24066 0.38222,-0.0283 0.0991,0.11325 0.39639,0.60873 0.63705,1.10422 0.24067,0.49548 0.53795,1.01927 0.63705,1.18915 0.11325,0.16988 0.19819,0.50964 0.22651,0.87771 0.0142,0.38223 0.11325,0.7503 0.29729,1.09006 0.14156,0.26898 0.25481,0.55211 0.25481,0.62289 0,0.0566 0.15573,0.25482 0.35392,0.43886 0.39639,0.35392 0.43886,0.46717 0.18404,0.56626 -0.25482,0.0991 -0.32561,0.0708 -0.63705,-0.21234 z m -3.07199,-1.25994 c 0.0283,-0.0566 0.0991,-0.0991 0.15573,-0.0991 0.0425,0 0.0849,0.0425 0.0849,0.0991 0,0.0566 -0.0708,0.0991 -0.15573,0.0991 -0.0849,0 -0.12741,-0.0425 -0.0849,-0.0991 z m 0.6229,-0.39639 c -0.0991,-0.15572 0.0283,-0.31144 0.25481,-0.31144 0.14157,0 0.18404,0.0566 0.16988,0.16988 -0.0283,0.19819 -0.33975,0.29729 -0.43885,0.12741 z m 0.67951,-0.72198 c 0.0142,-0.0566 0.0708,-0.11326 0.11326,-0.11326 0.11325,0 0.0991,0.14157 -0.0283,0.1982 -0.0566,0.0142 -0.0991,-0.0142 -0.0708,-0.0708 z m 37.2744,3.63825 c 0.3256,-0.21235 0.93433,-0.82109 1.16084,-1.18916 0.33976,-0.53795 0.60874,-1.61385 0.53795,-2.19428 -0.0708,-0.6512 0,-0.70783 0.89187,-0.77861 0.38223,-0.0283 0.80693,-0.12741 0.94849,-0.21235 0.22651,-0.14157 0.24067,-0.19819 0.1982,-0.80693 -0.0283,-0.35391 -0.0849,-0.80692 -0.14157,-1.00512 -0.0425,-0.19819 -0.0849,-0.52379 -0.0849,-0.72198 0,-0.80693 -0.86355,-2.689764 -1.51476,-3.298499 -0.21235,-0.198192 -0.49548,-0.509638 -0.6512,-0.707831 l -0.26898,-0.339759 -0.0991,0.339759 c -0.0566,0.198193 -0.0849,0.721988 -0.0566,1.274096 0.0283,0.665364 0,1.132534 -0.11326,1.670484 -0.14156,0.6512 -0.2265,0.80693 -0.67951,1.25994 -0.49548,0.49548 -0.7503,0.59458 -0.72199,0.25482 0.0142,-0.28314 -0.58042,-0.31145 -1.31657,-0.0566 -0.35391,0.12741 -0.69367,0.26898 -0.7503,0.31145 -0.0425,0.0425 -0.26897,0.0849 -0.49548,0.0849 -0.31145,0 -0.38223,-0.0283 -0.35392,-0.16988 0.0142,-0.0849 0.14157,-0.22651 0.28314,-0.29729 1.4015,-0.69368 1.35903,-0.69368 2.16596,-0.66536 0.4247,0 0.86355,0 0.99096,-0.0283 0.24067,-0.0425 0.43886,-0.50964 0.43886,-1.01927 0,-0.38223 -0.0566,-0.48133 -0.28313,-0.35392 -0.0849,0.0425 -0.35392,0.12741 -0.58042,0.18404 -0.22651,0.0566 -0.66537,0.26897 -0.97681,0.46716 -0.29729,0.1982 -0.65121,0.35392 -0.76446,0.35392 -0.35392,0 -1.52891,0.65121 -1.69879,0.93434 -0.12741,0.2265 -0.12741,0.38223 -0.0142,1.10421 0.12741,0.82109 0.12741,0.8494 -0.14157,1.52892 -0.15572,0.36807 -0.33976,0.77861 -0.4247,0.89187 -0.0708,0.0991 -0.12741,0.29729 -0.12741,0.4247 0,0.3256 0.38223,1.16084 0.59458,1.27409 0.0991,0.0425 0.56627,0.0991 1.04759,0.0991 1.3732,0 1.74127,0.24066 1.74127,1.175 l 0,0.49548 0.53795,-0.0566 c 0.28313,-0.0283 0.6512,-0.12741 0.79277,-0.2265 z m -1.13253,-0.0283 c -0.11326,-0.0708 -0.11326,-0.1274 0,-0.36807 0.46717,-1.00512 0.21235,-2.23674 -0.5238,-2.6756 -0.3256,-0.18404 -1.41566,-1.30241 -1.38735,-1.41566 0.0708,-0.24066 0.36808,-0.14157 1.01928,0.33976 1.18916,0.89186 1.47229,1.21747 1.67048,1.91114 0.0849,0.33976 0.21235,0.66536 0.28313,0.73615 0.0708,0.0849 0.0708,0.12741 0,0.12741 -0.0566,0 -0.15572,0.24066 -0.2265,0.5521 -0.12741,0.59458 -0.5238,0.96265 -0.80693,0.77862 z m 2.01024,-4.94066 c -0.0566,-0.0991 0.55211,-0.77861 0.86355,-0.93433 0.15573,-0.0849 0.19819,-0.0708 0.19819,0.0849 0,0.21234 -0.35391,0.66536 -0.67951,0.82108 -0.26898,0.12741 -0.31145,0.14157 -0.38223,0.0142 z m -0.7503,-0.69367 c -0.0708,-0.0283 -0.12741,-0.12741 -0.12741,-0.22651 0,-0.28313 0.2265,-0.49548 0.63705,-0.55211 0.3256,-0.0425 0.38222,-0.0283 0.38222,0.14157 0,0.22651 -0.43885,0.70783 -0.63704,0.69367 -0.0708,0 -0.18404,-0.0283 -0.25482,-0.0566 z m -3.80814,5.53524 c 0.1982,-0.11325 0.49549,-0.19819 0.63705,-0.19819 0.15573,0 0.25482,-0.0566 0.25482,-0.14157 0,-0.19819 -0.82108,-0.19819 -1.75542,0 -0.8494,0.18404 -1.01928,0.25482 -1.01928,0.4247 0,0.24066 1.40151,0.18403 1.88283,-0.0566 z m -27.86023,-1.40151 c 0,-0.11325 -0.16988,-0.28313 -0.45302,-0.43885 -0.25481,-0.14157 -0.53795,-0.31145 -0.62289,-0.39639 -0.18403,-0.16988 -0.60873,-0.18403 -0.60873,-0.0283 0,0.25482 0.4247,0.70783 0.66536,0.70783 0.12741,0 0.29729,0.0849 0.36807,0.19819 0.15572,0.26898 0.63705,0.24067 0.63705,-0.0283 z m -11.39609,-0.19819 c 0.35392,-0.15572 0.46717,-0.43886 0.36808,-0.94849 -0.0283,-0.22651 -0.0425,-0.5238 -0.0142,-0.66537 0.0425,-0.2265 0.0142,-0.21234 -0.36807,0.15573 -0.35392,0.35391 -0.4247,0.49548 -0.46717,0.92018 -0.0566,0.69367 0,0.76446 0.48132,0.53795 z m 2.42079,-0.0566 c 0.26897,-0.14156 0.29729,-0.25482 0.0425,-0.16988 -0.0991,0.0283 -0.35392,0 -0.58043,-0.0425 -0.70783,-0.18403 -1.175,-0.0708 -1.175,0.26898 0,0.16988 1.3732,0.12741 1.72711,-0.0425 z m 19.52198,-7.842767 0.31145,-0.268976 0.0283,-2.760542 c 0.0142,-1.514759 0,-2.760542 -0.0283,-2.760542 -0.0283,4.3e-5 -0.21235,0.08494 -0.41054,0.184037 -0.33976,0.198192 -1.10422,0.368072 -1.47229,0.325602 -0.31145,-0.02831 -0.76446,-0.226506 -0.76446,-0.339759 0,-0.04247 -0.0425,-0.05663 -0.0991,-0.02831 -0.0566,0.02831 -0.0991,0.283132 -0.0991,0.566265 0,0.382229 0.0283,0.509638 0.15572,0.509638 0.0849,0 0.33976,0.08494 0.55211,0.198193 0.53795,0.268976 1.01927,0.254819 1.48644,-0.04247 0.1982,-0.141566 0.4247,-0.254819 0.46717,-0.254819 0.18404,0 0.0849,0.268976 -0.19819,0.566265 -0.38223,0.368072 -1.30241,0.467168 -1.95361,0.212349 -0.48133,-0.184036 -0.50964,-0.155723 -0.49549,0.552109 0,0.254819 0,1.174999 -0.0283,2.05271 -0.0283,1.13253 -0.0142,1.528916 0.0425,1.359036 0.11325,-0.268976 0.43886,-0.297289 0.70783,-0.04247 0.18404,0.16988 1.00512,0.325603 1.33072,0.25482 0.0849,-0.01416 0.31145,-0.155723 0.48133,-0.311446 z m -1.84036,-0.906024 c -0.49548,-0.08494 -0.8494,-0.637048 -0.4247,-0.637048 0.0991,0 0.36807,0.07078 0.58042,0.155723 0.36808,0.155723 0.73615,0.141566 1.24579,0 0.16988,-0.05663 0.2265,-0.02831 0.2265,0.08494 0,0.325602 -0.84939,0.537951 -1.64217,0.396385 z m 1.10422,-4.898192 c 0.25482,-0.05663 0.55211,-0.16988 0.63705,-0.240663 0.0849,-0.05663 0.21235,-0.141566 0.28313,-0.155723 0.0849,-0.02831 0.14156,-0.821084 0.16988,-3.340963 0.0283,-1.812048 0.0708,-3.468373 0.0991,-3.666566 0.0708,-0.537952 -0.0283,-0.651205 -0.49548,-0.453012 -0.19819,0.08494 -0.55211,0.155723 -0.76446,0.155723 -0.56626,0 -1.67048,-0.12741 -1.7271,-0.226506 -0.1982,-0.325603 -0.24067,0.141566 -0.1982,2.590662 0.0142,1.472289 0.0708,2.972891 0.11326,3.326807 0.0283,0.353916 0.0708,0.821084 0.0849,1.04759 0.0283,0.835241 0.0425,0.849398 0.2265,0.806928 0.0991,-0.01416 0.33976,0.01416 0.53795,0.0991 0.43886,0.184036 0.41055,0.184036 1.00512,0.04247 z m -1.13253,-0.990964 c -0.15572,-0.08494 -0.28313,-0.254819 -0.28313,-0.353916 -2.3e-4,-0.155722 0.0425,-0.169879 0.3256,-0.113253 0.46717,0.0991 1.23162,0.0991 1.44397,0 0.33976,-0.155722 0.18404,0.21235 -0.15572,0.438856 -0.41054,0.240662 -0.93434,0.254819 -1.33072,0.01416 z m -0.36807,-5.337048 c -0.16988,-0.368072 -0.14157,-0.863554 0.0283,-0.863554 0.19819,0 0.35391,0.325603 0.35391,0.764458 0,0.438855 -0.21234,0.495482 -0.39638,0.0991 z m 0.5521,-0.0991 c -0.12741,-0.353916 -0.0708,-0.566265 0.15573,-0.537952 0.16988,0.01416 0.2265,0.0991 0.25482,0.368073 0.0141,0.268975 0,0.325602 -0.15573,0.325602 -0.0991,0 -0.2265,-0.07078 -0.25482,-0.155723 z m 0.99097,-0.0991 c -0.19819,-0.07078 -0.14157,-0.297289 0.11325,-0.410542 0.26898,-0.113253 0.36807,-0.07078 0.36807,0.184036 0,0.127409 -0.2265,0.339759 -0.33976,0.283132 0,0 -0.0708,-0.02831 -0.14156,-0.05663 z m 24.1512,6.016565 c 0.19819,-0.04247 0.28313,-0.155723 0.38223,-0.453012 0.15572,-0.523795 0.14157,-0.736144 -0.0283,-0.736144 -0.0849,0 -0.14157,0.02831 -0.14157,0.07078 0,0.12741 -0.66536,0.410542 -1.13253,0.495482 -0.26898,0.04247 -0.4247,0.127409 -0.46717,0.268976 -0.0708,0.254819 0.0283,0.353915 0.46717,0.410542 0.36807,0.02831 0.48132,0.02831 0.93434,-0.05663 z M 429.95071,52.186877 c 0.29728,-0.424699 0.29728,-0.509639 -0.0142,-0.325603 -0.15572,0.0991 -0.25482,0.0991 -0.43886,0 -0.12741,-0.05663 -0.33976,-0.141566 -0.46717,-0.169879 -0.25481,-0.07078 -0.29728,-0.268976 -0.0991,-0.424699 0.0708,-0.04247 0.45301,-0.0991 0.87771,-0.0991 0.62289,0 0.73614,0.01416 0.7503,0.155723 0,0.141566 0.0142,0.127409 0.15572,-0.02831 0.60874,-0.821084 1.55723,-1.911144 1.67049,-1.911144 0.0708,0 0.62289,-0.283133 1.20331,-0.637048 0.58042,-0.353916 1.47229,-0.877711 1.96777,-1.160843 1.18916,-0.693675 1.20331,-0.792771 0.14157,-0.736145 -0.93434,0.04247 -1.175,0.16988 -0.89187,0.467169 0.2265,0.254819 0.21235,0.424698 -0.0566,0.424698 -0.2265,0 -0.63705,-0.226506 -0.8494,-0.467168 -0.18403,-0.21235 -0.86355,-0.254819 -1.16084,-0.04247 -0.14157,0.0991 -0.46717,0.311446 -0.70783,0.467169 -0.24066,0.155722 -0.43886,0.325602 -0.43886,0.368072 0,0.113253 0.16988,0.0991 0.25482,0 0.12741,-0.198193 0.43886,-0.08494 0.76446,0.254819 0.38223,0.424699 0.3256,0.566265 -0.16988,0.537952 -0.36807,-0.02831 -0.36807,-0.01416 -0.33976,0.297289 0.0142,0.184036 0,0.325602 -0.0425,0.325602 -0.0425,0 -0.29729,-0.226506 -0.56626,-0.523795 -0.35392,-0.382229 -0.5238,-0.509638 -0.66536,-0.453012 -0.0991,0.02831 -0.38223,0.113253 -0.63705,0.184036 -0.58042,0.141567 -0.72199,0.240663 -0.72199,0.537952 0,0.353916 -0.31145,1.061747 -0.46717,1.061747 -0.15572,0 -0.0991,-0.438855 0.11325,-1.019277 0.16988,-0.453012 0.18404,-0.438855 -0.1274,-0.396386 -0.31145,0.02831 -0.33976,0.08494 -0.6229,1.005121 -0.12741,0.453012 -0.25482,0.679518 -0.38223,0.693674 -0.14156,0.02831 -0.15572,0 -0.0991,-0.198192 0.0991,-0.368073 0.36807,-1.557229 0.33976,-1.585542 0,0 -0.16988,-0.07078 -0.35392,-0.141567 -0.3256,-0.127409 -0.33976,-0.113253 -0.79277,0.311446 -0.24066,0.240663 -0.45301,0.481325 -0.45301,0.523795 0,0.04247 0.48132,0.608735 1.09006,1.25994 0.59458,0.637048 1.175,1.316566 1.28825,1.486446 0.26898,0.453012 0.69368,0.424698 1.04759,-0.05663 z m -21.50392,-0.12741 c 0.14157,-0.04247 0.28313,-0.198193 0.31145,-0.325602 0.0566,-0.21235 0.0425,-0.21235 -0.80693,-0.16988 -0.60873,0.02831 -0.90602,0.08494 -0.96265,0.184036 -0.16988,0.283133 0.92018,0.509639 1.47229,0.311446 z M 426.723,51.790491 c 0,-0.297289 -1.09007,-1.330723 -1.6988,-1.599698 -0.12741,-0.05663 -0.24066,-0.141567 -0.24066,-0.184037 0,-0.113253 -0.60874,-0.339759 -0.69368,-0.240662 -0.0283,0.04247 -0.0141,0.0991 0.0425,0.113253 0.18404,0.05663 1.38735,0.877711 1.5997,1.09006 0.0991,0.0991 0.16988,0.212349 0.16988,0.254819 -0.001,0.08494 0.63705,0.637048 0.73615,0.637048 0.0425,0 0.0708,-0.01416 0.0708,-0.05663 z m 26.37379,-0.127409 c 0.26897,-0.0991 0.39638,-0.339759 0.31144,-0.580422 -0.0283,-0.0991 -0.11325,-0.12741 -0.2265,-0.08494 -0.0849,0.02831 -0.38223,0.12741 -0.66536,0.198193 -0.58043,0.155723 -0.6229,0.184036 -0.53796,0.396385 0.0566,0.16988 0.72199,0.21235 1.11838,0.05663 z m -27.71867,-0.226506 c -0.14157,-0.113253 -0.43886,-0.325603 -0.66537,-0.481326 -0.2265,-0.155723 -0.63704,-0.438855 -0.92018,-0.651204 -0.50963,-0.353916 -1.0759,-0.580422 -1.0759,-0.410543 0,0.04247 0.12741,0.12741 0.28313,0.198193 0.60874,0.268976 1.34488,0.707831 1.62801,0.976807 0.15573,0.141567 0.33976,0.268976 0.41055,0.268976 0.0566,0 0.16988,0.05663 0.24066,0.141566 0.0566,0.08494 0.16988,0.141567 0.24066,0.141567 0.0566,-0.0013 3.3e-4,-0.08494 -0.14156,-0.198193 z M 453.026,50.459768 c 0.29729,-0.184036 0.31145,-0.552108 0.0142,-0.552108 -0.11325,0 -0.38223,0.08494 -0.60873,0.198193 -0.38223,0.198193 -0.49549,0.382229 -0.32561,0.552108 0.0991,0.0991 0.6229,0 0.92018,-0.198193 z m -45.32951,-0.87771 c 0.12741,-0.07078 0.12741,-0.113253 0,-0.268976 -0.0708,-0.08494 -0.29729,-0.240663 -0.48132,-0.311446 -0.18404,-0.07078 -0.32561,-0.212349 -0.32561,-0.297289 0,-0.12741 -0.0142,-0.141566 -0.14156,-0.02831 -0.22651,0.184036 -0.18404,0.679518 0.0708,0.863554 0.24066,0.169879 0.66536,0.198193 0.89187,0.05663 z m 14.66626,0 c 0,-0.05663 -0.0283,-0.0991 -0.0708,-0.0991 -0.0425,0 -0.16988,-0.07078 -0.28313,-0.169879 -0.39639,-0.353916 -1.06175,-0.764458 -1.18916,-0.721988 -0.0566,0.01416 0.0708,0.155723 0.3256,0.311446 0.24067,0.141566 0.59458,0.382229 0.76446,0.523795 0.3256,0.268976 0.45301,0.325602 0.45301,0.155723 z m 30.53584,-0.353916 c 0.24067,-0.240663 0.25482,-0.467169 0,-0.453012 -0.15572,0 -0.67951,0.467169 -0.67951,0.608735 0,0.198193 0.41054,0.0991 0.67951,-0.141566 z m -29.5024,0.08494 c 0,-0.08494 -0.43886,-0.438856 -0.56627,-0.438856 -0.0566,0 -0.26897,-0.113253 -0.45301,-0.268975 -0.18403,-0.141567 -0.58042,-0.382229 -0.8494,-0.537952 -0.26897,-0.141566 -0.60873,-0.325603 -0.73614,-0.396386 -0.3256,-0.169879 -1.58554,-1.00512 -1.84036,-1.203313 -0.11326,-0.08494 -0.49548,-0.353915 -0.86356,-0.594578 -1.175,-0.764458 -1.30241,-0.877711 -1.67048,-1.30241 -0.19819,-0.226506 -0.38223,-0.410542 -0.4247,-0.410542 -0.0283,0 -0.26897,-0.141566 -0.49548,-0.339759 -0.2265,-0.184036 -0.67952,-0.495482 -0.99096,-0.679518 -0.31145,-0.184036 -0.77862,-0.509638 -1.04759,-0.707831 -0.25482,-0.198193 -0.60874,-0.438855 -0.76446,-0.537952 -1.74127,-1.04759 -2.76054,-1.769578 -3.44006,-2.406626 -0.4247,-0.410542 -0.59458,-0.481325 -0.89187,-0.453012 -0.18403,0.01416 -0.15572,0.212349 0.0142,0.212349 0.0849,0 0.14157,0.02831 0.14157,0.08494 0,0.04247 0.25481,0.339759 0.56626,0.665362 0.49548,0.495481 1.44398,1.160843 2.42078,1.712951 0.15573,0.08494 0.69368,0.481325 1.18916,0.877711 0.49548,0.382229 1.04759,0.778614 1.21747,0.877711 0.16988,0.08494 0.55211,0.339759 0.87771,0.580421 0.31145,0.226506 0.89187,0.594579 1.28825,0.806928 0.39639,0.198193 0.99097,0.552108 1.31657,0.778614 0.3256,0.21235 0.62289,0.396386 0.63705,0.396386 0.0142,0 0.11325,0.07078 0.2265,0.169879 0.29729,0.283133 0.55211,0.481326 1.23163,0.934338 0.33976,0.226506 0.6512,0.467168 0.67952,0.523795 0.0283,0.04247 0.25482,0.184036 0.49548,0.297289 0.22651,0.113253 0.55211,0.283132 0.69367,0.382229 0.70784,0.481325 0.97681,0.637048 1.11838,0.637048 0.0849,5.51e-4 0.28313,0.08494 0.45301,0.198193 0.31145,0.198192 0.45301,0.240662 0.45301,0.141566 z m 3.1003,-0.467169 c 0.25482,-0.283132 0.39638,-0.594578 0.25482,-0.594578 -0.0142,0 -0.11325,-0.01416 -0.19819,-0.05663 -0.0991,-0.02831 -0.15573,0 -0.15573,0.07078 0,0.07078 -0.12741,0.240662 -0.29729,0.368072 -0.18403,0.127409 -0.28313,0.283132 -0.24066,0.368072 0.0849,0.240663 0.3256,0.16988 0.65121,-0.169879 z m 3.55331,-0.453012 c 0.0991,-0.04247 0.35392,-0.127409 0.55211,-0.169879 0.3256,-0.05663 0.92018,-0.509639 0.92018,-0.693675 0,-0.155723 -0.3256,-0.07078 -0.77861,0.184036 -0.4247,0.240663 -0.50964,0.254819 -1.54308,0.21235 -1.10421,-0.04247 -1.58554,0 -1.58554,0.113253 0,0.05663 0.56627,0.339759 0.92018,0.438855 0.25482,0.07078 1.28826,0 1.50061,-0.0991 z m -4.24699,-0.0991 c 0.16988,-0.0991 0.33976,-0.184036 0.35392,-0.198193 0.0142,0 -0.0283,-0.12741 -0.11325,-0.254819 -0.16988,-0.268976 -1.00512,-0.523795 -1.71295,-0.509639 -0.73615,0 -0.72199,0.155723 0.0425,0.665362 0.79277,0.523795 0.94849,0.552108 1.4015,0.297289 z m 4.57259,-0.651205 c -0.0283,-0.07078 -0.0566,-0.05663 -0.0566,0.05663 0,0.0991 0.0141,0.169879 0.0425,0.127409 0.0283,-0.02831 0.0283,-0.113253 0,-0.184036 z m -31.32861,-0.424695 c 0.55211,-0.495482 1.51476,-1.840361 1.51476,-2.109337 0,-0.07078 0.0425,-0.297289 0.11326,-0.481325 0.14156,-0.424699 1.0759,-1.033434 1.59969,-1.033434 0.36808,0 0.41055,0.01416 1.25994,0.792771 0.5238,0.481326 0.89187,0.566265 1.42982,0.325603 0.21235,-0.08494 0.56627,-0.198193 0.79277,-0.240663 0.48133,-0.08494 0.66536,-0.212349 0.66536,-0.467169 0,-0.226506 -0.28313,-0.339759 -0.46716,-0.184036 -0.0708,0.05663 -0.5238,0.12741 -0.99097,0.155723 -0.94849,0.04247 -1.24578,-0.05663 -1.93946,-0.665361 -0.33975,-0.311446 -0.45301,-0.353916 -0.9768,-0.353916 -0.49548,0 -0.67952,0.04247 -1.14669,0.353916 -0.62289,0.396385 -0.6512,0.438855 -0.92018,1.21747 -0.0991,0.297289 -0.26898,0.651204 -0.36807,0.778614 -0.24066,0.283132 -0.89187,0.721988 -1.44398,0.976807 -0.24066,0.0991 -0.43885,0.226506 -0.43885,0.268976 0,0.04247 0.15572,0.113253 0.36807,0.141566 0.3256,0.05663 0.35391,0.08494 0.31145,0.339759 -0.0142,0.141566 -0.0708,0.339759 -0.11326,0.438856 -0.14156,0.339759 0.22651,0.184036 0.79277,-0.29729 z m 20.47048,0.382229 c -0.0283,-0.05663 -0.11325,-0.0991 -0.18403,-0.0991 -0.0708,8.82e-4 -0.0566,0.02831 0.0283,0.0991 0.19819,0.12741 0.22651,0.12741 0.14157,0 z m 10.87229,-0.155723 c 0.16988,-0.08494 0.33976,-0.198192 0.36807,-0.240662 0.0283,-0.04247 0.22651,-0.141567 0.43886,-0.198193 0.19819,-0.05663 0.6512,-0.254819 1.00512,-0.410542 0.90602,-0.438856 1.61385,-1.443976 1.91114,-2.675602 0.15573,-0.665362 0.1982,-0.736145 0.63705,-0.877711 0.25482,-0.08494 0.33976,-0.16988 0.38223,-0.453012 0.0566,-0.410542 0.3256,-0.509639 0.62289,-0.240663 0.26898,0.240663 0.86356,0.12741 1.23163,-0.212349 0.35391,-0.339759 0.62289,-1.429819 0.50964,-2.052711 -0.0991,-0.523795 -0.1982,-0.764457 -0.32561,-0.764457 -0.0425,0 -0.0849,-0.05663 -0.0849,-0.141567 0,-0.226506 0.28314,-0.184036 0.55211,0.08494 0.36808,0.368072 0.41055,0.863554 0.16988,1.840361 -0.11325,0.453012 -0.19819,0.849398 -0.16988,0.877711 0.0142,0.01416 0.15573,-0.141566 0.32561,-0.353916 0.2265,-0.311445 0.29728,-0.481325 0.29728,-0.92018 0.001,-0.566265 0.0991,-0.778615 0.25482,-0.537952 0.15573,0.254819 0.0991,1.019277 -0.0991,1.429819 -0.22651,0.453012 -0.87771,0.863554 -1.68464,1.04759 -0.5238,0.113253 -0.53795,0.12741 -0.87771,0.849398 -0.38223,0.778614 -0.43886,1.146687 -0.24066,1.316566 0.0708,0.05663 0.12741,0.155723 0.12741,0.226506 0,0.141566 0.28313,0.481325 0.60873,0.707831 0.16988,0.113253 0.19819,0.16988 0.0849,0.16988 -0.0849,0 -0.21235,-0.05663 -0.28313,-0.141566 -0.0566,-0.08494 -0.22651,-0.141567 -0.35392,-0.141567 -0.18403,0 -0.26897,-0.0991 -0.45301,-0.580421 -0.24066,-0.665362 -0.21235,-0.906024 0.19819,-1.543072 0.15573,-0.240663 0.24067,-0.467169 0.1982,-0.495482 -0.0425,-0.02831 -0.14157,0.04247 -0.21235,0.184036 -0.0566,0.127409 -0.24067,0.297289 -0.38223,0.368072 -0.21235,0.08494 -0.26898,0.184036 -0.28314,0.438855 0,0.16988 -0.0283,0.523796 -0.0708,0.764458 -0.0708,0.453012 0.11325,0.948494 0.38223,0.948494 0.11325,0 1.41566,0.495482 1.89699,0.736145 0.11325,0.05663 0.29729,0.07078 0.39638,0.02831 0.14157,-0.05663 0.12741,-0.0991 -0.14156,-0.268976 -0.16988,-0.0991 -0.32561,-0.240663 -0.32561,-0.297289 0,-0.141566 0.45302,-0.240663 0.76446,-0.155723 0.1982,0.04247 0.26898,0.01416 0.33976,-0.155723 0.0708,-0.212349 0.0425,-0.240663 -0.35391,-0.339759 -0.24067,-0.05663 -0.59458,-0.198193 -0.77862,-0.311446 -0.28313,-0.169879 -0.3256,-0.240662 -0.3256,-0.594578 0,-0.537952 0.46717,-1.231626 0.92018,-1.387349 0.56626,-0.184036 1.23163,-0.764458 1.42982,-1.245783 0.12741,-0.339759 0.15572,-0.594578 0.0991,-1.13253 -0.0991,-1.005121 -0.36808,-1.458133 -1.13253,-1.868675 -1.40151,-0.736144 -1.72711,-1.118373 -1.85452,-2.18012 0.0283,-0.509638 0.0566,-0.750301 0.15572,-0.948494 0.21235,-0.396385 0.19819,-0.566265 -0.0425,-1.075903 -0.11325,-0.240663 -0.21235,-0.481326 -0.21235,-0.537952 0,-0.04247 -0.43885,-0.537952 -0.97681,-1.09006 -0.87771,-0.891868 -1.09006,-1.231627 -0.90602,-1.415663 0.0991,-0.0991 0.50964,0.21235 0.79277,0.637048 0.14157,0.21235 0.43886,0.523796 0.66536,0.679518 0.24066,0.16988 0.56627,0.566265 0.82109,1.019277 0.33976,0.608735 0.41054,0.821085 0.4247,1.359036 0,0.438856 -0.0142,0.665362 -0.12741,0.778615 -0.32561,0.325602 0.0283,1.146686 0.77861,1.741265 0.45301,0.368072 0.58042,0.297289 0.25482,-0.155723 -0.19819,-0.268976 -0.22651,-0.453012 -0.28313,-1.712952 -0.0566,-1.344879 -0.0708,-1.429819 -0.43886,-2.165963 -0.46717,-0.934338 -1.27409,-1.826205 -2.01024,-2.208434 -0.31145,-0.155723 -0.50964,-0.523795 -0.4247,-0.778614 0.0566,-0.16988 1.64217,0.96265 2.08103,1.500602 0.21235,0.254819 0.50963,0.707831 0.6512,0.990964 0.12741,0.283132 0.26898,0.481325 0.28313,0.467168 0.0142,-0.01416 0.0142,-0.254819 -0.0142,-0.523795 -0.0283,-0.382229 -0.14157,-0.580421 -0.55211,-1.019277 -0.28313,-0.297289 -0.58042,-0.665361 -0.65121,-0.806927 -0.18403,-0.325603 -0.94849,-0.920181 -1.20331,-0.920181 -0.0991,0 -0.21235,-0.07078 -0.26898,-0.16988 -0.0566,-0.113253 -0.21235,-0.155722 -0.48132,-0.155722 -0.65121,0.01416 -1.0759,-0.382229 -0.55211,-0.537952 0.15572,-0.04247 0.18404,-0.08494 0.0849,-0.21235 -0.0991,-0.113253 -0.16988,-0.113253 -0.46717,0.05663 -0.43885,0.268976 -0.69367,0.184036 -0.60873,-0.16988 0.0708,-0.283132 -0.15573,-0.750301 -0.36808,-0.750301 -0.0849,0 -0.0849,0.02831 0,0.113253 0.15573,0.155723 0.15573,0.509639 -0.0142,0.750301 -0.0708,0.0991 -0.14157,0.268976 -0.14157,0.368073 0,0.339759 -0.21235,0.297289 -0.62289,-0.12741 -0.21235,-0.240663 -0.39639,-0.467169 -0.39639,-0.509638 0,-0.02831 0.11326,-0.0991 0.26898,-0.155723 l 0.22651,-0.12741 -0.5238,-0.226506 c -0.35391,-0.169879 -0.72199,-0.254819 -1.18915,-0.254819 -0.36808,0 -0.73615,-0.04247 -0.82109,-0.0991 -0.28313,-0.184036 -2.16596,-0.184036 -3.04367,0 -0.45302,0.08494 -1.01928,0.184037 -1.2741,0.198193 -0.59458,0.04247 -1.51476,0.410542 -2.0244,0.821084 -0.2265,0.16988 -0.55211,0.396386 -0.72199,0.495482 -0.56626,0.325603 -2.05271,2.590663 -2.23674,3.383434 -0.0425,0.226506 -0.26898,0.806927 -0.49548,1.259939 -0.26898,0.537952 -0.43886,1.061747 -0.50964,1.543072 -0.0566,0.396386 -0.16988,1.005121 -0.24066,1.359036 -0.21235,0.920181 -0.21235,0.934338 0.19819,2.26506 0.0849,0.283133 0.15572,0.622892 0.15572,0.736145 0,0.113253 0.0425,0.240663 0.0991,0.268976 0.11325,0.07078 0.12741,-0.21235 0.0991,-1.741265 -0.0141,-0.792771 0,-1.09006 0.0849,-1.04759 0.0566,0.02831 0.11326,0.184036 0.11326,0.325602 0,0.12741 0.0849,0.537952 0.21235,0.891867 0.33975,1.033434 0.16988,2.406627 -0.41055,3.171084 -0.66536,0.863555 -0.7503,2.576506 -0.12741,2.576506 0.0849,0 0.22651,0.05663 0.31145,0.12741 0.0849,0.07078 0.38223,0.254819 0.6512,0.410542 0.43886,0.240663 0.49549,0.254819 0.55211,0.0991 0.0425,-0.113253 -0.0708,-0.297289 -0.41054,-0.622891 -0.43885,-0.410542 -0.48132,-0.481325 -0.41054,-0.778615 0.14156,-0.679518 0.53795,-1.274096 1.175,-1.769578 0.48132,-0.368072 0.63705,-0.438855 0.67952,-0.311445 0.0566,0.169879 -0.32561,0.736144 -0.59458,0.821084 -0.29729,0.0991 -0.67952,0.637048 -0.7503,1.09006 -0.0708,0.410542 -0.0566,0.453012 0.33976,0.806928 0.33976,0.297289 0.42469,0.453012 0.45301,0.778614 0.0283,0.495482 0.18403,0.693675 0.6512,0.863554 0.18404,0.05663 0.33976,0.155723 0.33976,0.184036 0,0.02831 0.11325,0.113253 0.25482,0.184036 0.22651,0.0991 0.28313,0.08494 0.50964,-0.155723 0.15572,-0.169879 0.24066,-0.368072 0.22651,-0.537951 -0.0142,-0.21235 -0.0991,-0.268976 -0.5238,-0.339759 -0.41054,-0.07078 -0.53795,-0.155723 -0.8494,-0.552109 -0.45301,-0.594578 -0.50964,-0.835241 -0.3256,-1.373192 0.11325,-0.382229 0.5238,-0.792771 0.92018,-0.920181 0.18404,-0.05663 0.25482,-1.642168 0.0849,-2.09518 -0.0425,-0.12741 -0.19819,-0.382229 -0.3256,-0.566265 -0.15572,-0.226506 -0.24066,-0.523796 -0.29729,-1.047591 -0.0283,-0.396385 -0.0991,-0.96265 -0.14157,-1.231626 -0.0566,-0.438855 -0.0425,-0.495482 0.0991,-0.453012 0.0991,0.01416 0.22651,0.198193 0.29729,0.438855 0.0566,0.226506 0.16988,0.509639 0.24066,0.651205 0.15572,0.283133 0.90603,0.637048 1.20331,0.566265 0.32561,-0.08494 0.38223,0.12741 0.0708,0.325602 -0.22651,0.141567 -0.31145,0.155723 -0.60874,0.04247 -0.62289,-0.226506 -0.76446,0.155723 -0.24066,0.736145 0.67952,0.778614 0.66536,1.840361 -0.0283,2.817168 -0.38223,0.537952 -0.50964,0.962651 -0.26898,0.962651 0.0425,0 0.0991,0.08494 0.12741,0.198192 0.0708,0.283133 0.35392,0.368073 0.56627,0.155723 0.16988,-0.141566 0.19819,-0.141566 0.43885,0.113253 0.14157,0.155723 0.35392,0.467169 0.46717,0.693675 0.11325,0.226506 0.50964,0.707831 0.87771,1.09006 0.69367,0.707831 0.58042,0.651205 2.33584,1.118373 0.1982,0.04247 0.45302,0.07078 0.56627,0.04247 0.67952,-0.141566 1.01928,-0.141566 1.23162,0 0.11326,0.07078 0.38223,0.155723 0.56627,0.184036 0.18404,0.01416 0.35392,0.04247 0.35392,0.05663 0,0 0.14156,-0.04247 0.3256,-0.141566 z m -1.04759,-1.259939 c -0.0991,-0.16988 0.0425,-0.396386 0.3256,-0.453012 0.14157,-0.02831 0.29729,-0.02831 0.33976,0 0.11326,0.07078 -0.0142,0.311445 -0.19819,0.382229 -0.0849,0.02831 -0.22651,0.08494 -0.28313,0.113253 -0.0566,0.02831 -0.14157,0 -0.16988,-0.02831 z m -0.45301,-0.821085 c 0,-0.155722 0.25482,-0.325602 0.50964,-0.325602 0.25482,0 0.50964,-0.155723 0.50964,-0.325602 0,-0.155723 -0.49549,-0.07078 -0.93434,0.169879 -0.53795,0.311446 -1.00512,0.339759 -1.00512,0.05663 0,-0.226506 0.2265,-0.339759 1.175,-0.580422 0.87771,-0.226506 1.48644,-0.155723 1.48644,0.16988 0,0.254819 -0.38223,0.594578 -0.67951,0.594578 -0.11326,0 -0.26898,0.07078 -0.33976,0.155723 -0.12741,0.155723 -0.72199,0.212349 -0.72199,0.07078 z m -9.89548,-0.96265 c -0.14157,-0.141566 -0.15573,-1.061747 -0.0283,-1.146687 0.0425,-0.02831 0.11326,-0.169879 0.15573,-0.311445 0.0283,-0.12741 0.2265,-0.481326 0.43885,-0.778615 0.31145,-0.438855 0.4247,-0.509638 0.62289,-0.453012 0.5238,0.12741 0.56627,-0.622891 0.0849,-1.712951 -0.29729,-0.693675 -0.3256,-0.835241 -0.31144,-1.741265 0.0142,-0.976807 0.29729,-2.378313 0.49548,-2.43494 0.0566,-0.01416 0.0991,0.566265 0.0849,1.684639 0,1.656325 0,1.755421 0.26898,2.420782 0.3256,0.792771 0.35391,1.25994 0.0991,1.840362 -0.16988,0.396385 -0.49548,0.608735 -0.73614,0.453012 -0.12741,-0.08494 -0.69368,0.693674 -0.82109,1.146686 -0.0566,0.226506 -0.0566,0.424699 -8.7e-4,0.537952 0.15572,0.297289 0.11325,0.608735 -0.0849,0.608735 -0.0991,0 -0.24067,-0.04247 -0.29729,-0.113253 z m 9.37168,-0.948494 c 0,-0.169879 0.26898,-0.283132 0.36808,-0.141566 0.0283,0.05663 0,0.141566 -0.0708,0.198193 -0.19819,0.127409 -0.29729,0.113253 -0.29729,-0.04247 z m 0.8494,-0.08494 c 0.0142,-0.07078 0.12741,-0.127409 0.22651,-0.127409 0.0991,0 0.19819,0.05663 0.2265,0.127409 0.0142,0.07078 -0.0566,0.12741 -0.2265,0.12741 -0.16988,0 -0.25482,-0.04247 -0.22651,-0.12741 z m 5.67681,-1.543072 c 0.0142,-0.07078 0.0991,-0.113253 0.16988,-0.08494 0.25482,0.05663 0.25482,-0.198192 0.0142,-0.707831 -0.24066,-0.495482 -0.24066,-0.509638 -0.0708,-1.118373 0.11325,-0.396386 0.14157,-0.764458 0.0991,-1.04759 -0.0283,-0.240663 -0.0566,-1.019277 -0.0566,-1.727109 0,-1.175 -0.0708,-2.038554 -0.25482,-2.491566 -0.11325,-0.297289 0.31145,-0.212349 0.43886,0.07078 0.31144,0.693675 0.38223,2.39247 0.0991,3.100301 -0.0566,0.155723 -0.0283,0.453012 0.0708,0.891868 0.14156,0.580421 0.15572,0.693674 0.0142,0.934337 -0.0708,0.141566 -0.14156,0.509638 -0.14156,0.806928 0,0.467168 0.0142,0.523795 0.21235,0.566265 0.14156,0.01416 0.28313,-0.04247 0.39638,-0.226506 0.16988,-0.25482 0.16988,-0.438856 -0.0142,-1.373193 -0.0849,-0.438855 0.18404,-0.453012 0.41055,-0.02831 0.18403,0.353915 0.18403,0.552108 0.0425,1.415662 -0.0991,0.608735 -0.12741,0.665362 -0.53795,0.906024 -0.46717,0.268976 -1.03344,0.339759 -0.9485,0.113253 z m -10.87229,-0.325602 c 0,-0.08494 0.25482,-0.509639 0.53795,-0.863554 0.58042,-0.736145 0.58042,-0.736145 1.03344,-0.665362 0.2265,0.02831 0.58042,0.07078 0.77861,0.08494 0.33976,0.01416 0.35392,0.04247 0.38223,0.410542 0.0283,0.495482 -0.0708,0.637048 -0.77862,0.849398 -0.66536,0.198192 -1.00512,0.184036 -1.23162,-0.02831 -0.14157,-0.141566 -0.16988,-0.127409 -0.3256,0.05663 -0.15573,0.198193 -0.39639,0.297289 -0.39639,0.155723 z m 6.11566,-1.175 c -0.0708,-0.113253 -0.24066,-0.198193 -0.38223,-0.198193 -0.33976,0 -0.4247,-0.254819 -0.16988,-0.594578 0.4247,-0.566265 2.05271,-0.920181 2.70392,-0.580422 0.39638,0.198193 0.39638,0.339759 0.0283,0.382229 -0.21235,0.01416 -0.28313,0.08494 -0.3256,0.339759 -0.0283,0.240663 -0.15572,0.353916 -0.60874,0.580422 -0.66536,0.325602 -1.03343,0.353915 -1.21747,0.07078 z m -6.1015,-0.495482 c 0,-0.184036 0.82108,-0.96265 1.10421,-1.04759 0.14157,-0.04247 0.36808,0 0.63705,0.141566 0.22651,0.113253 0.49548,0.212349 0.60874,0.212349 0.0991,0 0.19819,0.02831 0.19819,0.08494 0,0.198193 -0.29729,0.297289 -0.93434,0.283133 -0.56626,0 -0.73614,0.01416 -0.99096,0.212349 -0.33976,0.254819 -0.62289,0.297289 -0.62289,0.08494 z m 9.61234,-0.608735 c -0.0425,-0.127409 -0.11325,-0.382229 -0.15572,-0.580421 -0.12741,-0.566265 -0.24066,-0.721988 -0.6512,-0.891868 -0.45301,-0.184036 -1.40151,-1.175 -1.65633,-1.727108 -0.0991,-0.212349 -0.21235,-0.382229 -0.25482,-0.396386 -0.0708,0 -0.18403,0.495482 -0.2265,1.047591 -0.0142,0.169879 -0.0283,0.353915 -0.0283,0.410542 0,0.04247 -0.16988,0.155723 -0.38223,0.254819 l -0.36807,0.16988 -0.24066,-0.29729 c -0.3256,-0.339759 -0.63705,-1.217469 -0.55211,-1.429819 0.0849,-0.240662 0.35392,-0.155723 0.4247,0.12741 0.0708,0.368072 0.38223,0.976807 0.50964,1.019277 0.0566,0.01416 0.0991,-0.382229 0.0991,-1.075904 0,-0.96265 0.0283,-1.203313 0.29729,-1.882831 0.35392,-0.92018 0.49549,-1.118373 0.72199,-0.934337 0.0708,0.05663 0.16988,0.226506 0.18404,0.339759 0.0141,0.141566 0.0425,0.08494 0.0566,-0.12741 0.0142,-0.382228 0.15573,-0.707831 0.26898,-0.580421 0.0283,0.02831 0.0708,0.325602 0.0849,0.622891 0,0.297289 0.0566,0.622892 0.12741,0.693675 0.0566,0.07078 0.15572,0.339759 0.22651,0.594578 0.15572,0.594578 0.70783,1.429819 1.47228,2.208434 0.32561,0.339759 0.6229,0.736144 0.65121,0.87771 0.0283,0.141567 0.11325,0.537952 0.21235,0.891868 0.16988,0.707831 0.11325,0.96265 -0.15572,0.693674 -0.15573,-0.141566 -0.18404,-0.141566 -0.24067,0 -0.0849,0.226506 -0.36807,0.184037 -0.46717,-0.07078 z m 0,-1.670482 c 0,-0.02831 -0.25481,-0.325602 -0.58042,-0.665361 -0.60873,-0.651205 -1.25994,-1.656325 -1.25994,-2.010241 0,-0.113253 -0.0708,-0.311445 -0.15572,-0.453012 -0.14157,-0.240662 -0.14157,-0.226506 -0.0849,0.25482 0.15572,1.500602 0.16988,1.514758 1.44398,2.534035 0.46717,0.368073 0.66536,0.481326 0.66536,0.353916 z m -9.93795,1.146687 c -0.14156,-0.12741 -0.41054,-0.467169 -0.59457,-0.764458 -0.29729,-0.495482 -0.32561,-0.608735 -0.32561,-1.543072 0,-0.835241 0.0283,-1.075903 0.21235,-1.429819 0.11326,-0.226506 0.29729,-0.481325 0.39639,-0.566265 0.0991,-0.07078 0.33976,-0.339759 0.53795,-0.594578 0.50964,-0.651205 1.33072,-1.330723 1.62801,-1.330723 0.26898,0 0.0991,0.311446 -0.36807,0.693675 -0.41054,0.311445 -0.90602,0.906024 -1.175,1.429819 -0.0283,0.05663 -0.0991,0.424699 -0.16988,0.806927 -0.0991,0.651205 -0.0849,0.721988 0.14157,1.21747 0.12741,0.283133 0.31144,0.608735 0.39638,0.707831 0.11325,0.155723 0.89187,0.537952 1.42982,0.721988 0.21235,0.07078 0.22651,0.25482 0.0283,0.325603 -0.16988,0.05663 -1.64216,-0.523795 -1.81204,-0.736145 -0.18404,-0.226506 -0.39639,-0.169879 -0.39639,0.113253 0,0.382229 0.15572,0.622892 0.50964,0.750301 0.16988,0.05663 0.29729,0.155723 0.26898,0.240663 -0.0708,0.212349 -0.4247,0.198193 -0.70784,-0.04247 z m 5.74759,0.113253 c -0.0849,-0.141566 0.0142,-0.283132 0.35392,-0.467169 0.15572,-0.08494 0.36807,-0.283132 0.45301,-0.453012 0.12741,-0.254819 0.21235,-0.297289 0.55211,-0.297289 0.52379,0 0.97681,0.339759 0.82108,0.622892 -0.0849,0.155723 -0.21235,0.198193 -0.6512,0.198193 -0.43886,0 -0.60874,0.04247 -0.86355,0.254819 -0.31145,0.268976 -0.58043,0.325602 -0.67952,0.141566 z m -3.39759,-0.920181 c -0.46716,-0.198192 -1.24578,-0.990963 -1.34488,-1.373192 -0.0708,-0.311446 -0.0142,-0.622892 0.0991,-0.622892 0.0425,0 0.18404,0.184036 0.29729,0.410542 0.26898,0.566265 0.53795,0.877711 1.00512,1.160844 0.38223,0.226506 0.63705,0.226506 0.39639,0 -0.0566,-0.05663 -0.11326,-0.184036 -0.11326,-0.268976 -3.2e-4,-0.08494 -0.0566,-0.283133 -0.14156,-0.453012 -0.1982,-0.396386 -0.18404,-0.580422 0.0566,-0.580422 0.15573,0 0.26898,0.141566 0.45301,0.537952 0.25482,0.580422 0.39639,0.750301 0.72199,0.806928 0.25482,0.04247 0.32561,0.368072 0.0849,0.453012 -0.0849,0.02831 -0.25482,0 -0.36807,-0.05663 -0.11325,-0.07078 -0.24066,-0.08494 -0.31145,-0.02831 -0.24066,0.184036 -0.43885,0.184036 -0.83524,0.01416 z m 2.78886,-0.311445 c -0.25482,-0.198193 -0.28313,-0.198193 -0.39639,-0.02831 -0.0708,0.0991 -0.2265,0.155723 -0.36807,0.12741 -0.41054,-0.05663 -0.62289,-0.764458 -0.55211,-1.868674 0.0849,-1.571386 0.56627,-2.463253 1.85452,-3.48253 0.60874,-0.481325 0.97681,-0.637048 0.97681,-0.396386 0,0.05663 -0.31145,0.424699 -0.72199,0.835241 -0.83524,0.863554 -1.14669,1.528916 -1.14669,2.47741 0,0.778614 0.24067,1.613855 0.56627,1.925301 0.43885,0.424698 0.26897,0.764457 -0.18404,0.396385 z m -3.32681,-1.443976 c -0.26897,-0.537952 -0.14156,-1.599699 0.33976,-2.548193 0.19819,-0.410542 0.4247,-0.736144 0.48133,-0.721987 0.15572,0.05663 0.0708,0.467168 -0.21235,0.96265 -0.21235,0.368072 -0.25482,0.580422 -0.26898,1.458132 0,0.566265 -0.0425,1.061747 -0.0849,1.090061 -0.0283,0.02831 -0.12741,-0.08494 -0.2265,-0.268976 z m -5.03976,-1.939458 c -0.15572,-0.254819 0.56627,-1.727108 1.28826,-2.548192 0.28313,-0.325603 0.56626,-0.622892 0.62289,-0.637048 0.12741,-0.04247 0.0991,0.268976 -0.0283,0.353915 -0.0708,0.04247 -0.25481,0.325603 -0.42469,0.637048 -0.15573,0.311446 -0.39639,0.679518 -0.5238,0.821085 -0.12741,0.141566 -0.26898,0.396385 -0.29729,0.566265 -0.14156,0.651204 -0.43885,1.033433 -0.59458,0.778614 z m 12.5994,-0.438855 c -0.39639,-0.467169 -0.77861,-1.359036 -0.77861,-1.854518 0,-0.410542 0.21234,-0.325602 0.3256,0.113253 0.14156,0.580422 0.70783,1.642169 0.96265,1.812048 0.28313,0.184036 0.31144,0.339759 0.0425,0.339759 -0.0991,0 -0.35392,-0.184036 -0.56627,-0.424699 z m -8.94699,-0.835241 c 0,-0.07078 0.0708,-0.198193 0.16988,-0.283132 0.65121,-0.537952 1.13253,-0.920181 1.18916,-0.920181 0.0849,0 1.30241,-0.580422 1.52891,-0.736145 0.12741,-0.08494 0.1982,-0.08494 0.28314,0 0.0708,0.07078 0.0141,0.16988 -0.22651,0.368073 -0.29729,0.226506 -0.53795,0.353915 -1.55723,0.863554 -0.15572,0.07078 -0.33976,0.141566 -0.41054,0.141566 -0.0566,0 -0.16988,0.07078 -0.22651,0.16988 -0.16988,0.268975 -0.7503,0.580421 -0.7503,0.410542 z m 9.66898,-0.226506 c -0.46717,-0.424699 -0.97681,-2.236747 -0.63705,-2.236747 0.0425,0 0.21235,0.368073 0.36807,0.821085 0.31145,0.948493 0.5238,1.302409 0.82109,1.401505 0.11325,0.02831 0.18403,0.0991 0.14156,0.155723 -0.0991,0.16988 -0.43885,0.0991 -0.70783,-0.141566 z m -10.78735,-0.113253 c 0,-0.268976 1.54307,-1.712952 2.22259,-2.066867 1.11837,-0.580422 2.4491,-0.962651 3.46837,-0.962651 0.49548,0 1.06175,0.04247 1.2741,0.113253 0.19819,0.05663 0.38223,0.0991 0.41054,0.07078 0.0283,-0.02831 -0.8494,-0.453012 -1.33072,-0.622891 -0.14157,-0.04247 -0.15572,-0.0991 -0.0849,-0.16988 0.21235,-0.212349 1.51476,0.184037 2.19428,0.707832 0.3256,0.240662 0.60873,0.495482 0.60873,0.537951 0,0.04247 0.0991,0.0991 0.22651,0.113253 0.24066,0.02831 0.24066,0.05663 0.0566,0.849398 -0.12741,0.566265 -0.26897,0.707831 -0.48132,0.537952 -0.0991,-0.07078 -0.11326,-0.226506 -0.0708,-0.509639 0.0708,-0.467168 -0.0566,-0.679518 -0.42469,-0.679518 -0.14157,0 -0.60874,-0.08494 -1.03344,-0.212349 -0.58042,-0.155723 -0.94849,-0.198193 -1.44397,-0.155723 -0.77862,0.05663 -2.68976,0.679518 -3.38344,1.104217 -0.25482,0.155723 -0.67952,0.396385 -0.93433,0.523795 -0.28314,0.155723 -0.53796,0.382229 -0.66537,0.622891 -0.19819,0.382229 -0.56626,0.523795 -0.56626,0.21235 z m 9.44247,-1.458132 c 0.0708,-0.325603 0.12741,-0.382229 0.21235,-0.297289 0.0849,0.08494 -0.0425,0.580421 -0.16988,0.580421 -0.0708,0 -0.0849,-0.0991 -0.0283,-0.283132 z m -2.26506,0 c -0.19819,-0.155723 -0.92018,-0.141567 -1.45813,0.01416 -0.12741,0.02831 -0.22651,0.02831 -0.22651,-0.01416 2.3e-4,-0.141567 1.10422,-0.552109 1.52892,-0.552109 0.43885,0 0.63704,0.141567 0.63704,0.481326 0,0.268975 -0.15572,0.297289 -0.45301,0.07078 z m -6.15813,-0.707832 c 0,-0.02831 0.31144,-0.212349 0.69367,-0.410542 0.38223,-0.198192 1.0759,-0.594578 1.55723,-0.891867 0.6512,-0.396386 0.96265,-0.523795 1.28825,-0.537952 0.31145,0 0.4247,0.02831 0.4247,0.141566 0,0.0991 -0.0708,0.141567 -0.25482,0.113253 -0.14156,-0.01416 -0.46717,0.01416 -0.7503,0.08494 -0.36807,0.08494 -0.52379,0.184036 -0.63705,0.396386 -0.0991,0.198192 -0.36807,0.368072 -0.99096,0.637048 -0.96265,0.410542 -1.31657,0.523795 -1.31657,0.438855 z m -4.85573,16.888854 c 0,-0.04247 -0.0991,-0.141566 -0.2265,-0.212349 -0.22651,-0.113253 -0.22651,-0.113253 -0.0283,0.0991 0.21235,0.240663 0.25482,0.254819 0.25482,0.113253 z m 35.94367,-0.311446 c 0.38223,0 0.39639,-0.01416 0.55211,-0.481325 0.0849,-0.268976 0.16988,-0.764458 0.18404,-1.104217 0.0142,-0.325602 0.0849,-0.707831 0.14157,-0.821084 0.12741,-0.240663 0.70783,-0.552108 1.03343,-0.552108 0.21235,0 0.62289,0.325602 0.62289,0.495482 0,0.04247 0.21235,0.240662 0.48133,0.410542 0.42469,0.283132 0.52379,0.311445 1.00512,0.254819 0.70783,-0.08494 0.76445,-0.184036 0.26897,-0.467169 -0.2265,-0.127409 -0.41054,-0.268976 -0.41054,-0.325602 0,-0.184036 0.50964,-0.594578 0.7503,-0.594578 0.26898,0 0.56627,-0.240663 0.56627,-0.467169 0,-0.198193 -0.0142,-0.184036 -0.65121,0.155723 -0.66536,0.368072 -2.08102,0.552108 -2.18012,0.268976 -0.0849,-0.226506 -0.49548,-0.297289 -0.97681,-0.16988 -0.46716,0.12741 -0.84939,0.679518 -0.9768,1.429819 -0.0283,0.240663 -0.14157,0.566265 -0.21235,0.693675 -0.21235,0.325602 -1.03344,0.750301 -1.5997,0.821084 -0.49548,0.05663 -0.76446,0.240663 -0.63705,0.424699 0.0283,0.05663 0.35392,0.0991 0.72199,0.0991 0.45301,0 0.66536,0.02831 0.66536,0.12741 0,0.07078 0.0425,0.04247 0.0991,-0.04247 0.0708,-0.113253 0.2265,-0.169879 0.49548,-0.169879 z M 418.498,46.807359 c -0.24067,-0.169879 -0.93434,-0.707831 -1.13253,-0.877711 -0.11326,-0.0991 -0.33976,-0.254819 -0.50964,-0.339759 l -0.29729,-0.141566 0.25482,0.198193 c 0.14156,0.113253 0.3256,0.268976 0.41054,0.339759 0.0849,0.07078 0.33976,0.268976 0.56626,0.438855 0.22651,0.155723 0.46717,0.353916 0.55211,0.424699 0.0708,0.07078 0.15573,0.0991 0.1982,0.07078 0.0283,-0.02831 0.0141,-0.08494 -0.0425,-0.127409 z m 16.32258,-0.523795 c 0.0283,-0.04247 0,-0.12741 -0.0708,-0.169879 -0.19819,-0.113253 -0.36807,-0.481326 -0.36807,-0.792771 0,-0.141567 -0.0425,-0.25482 -0.11325,-0.25482 -0.0708,0 -0.0849,0.12741 -0.0425,0.438856 0.0991,0.651204 0.43885,1.09006 0.62289,0.806927 z m -12.44367,-1.543072 c -0.38223,-0.453012 -0.60873,-0.622892 -0.60873,-0.438855 0,0.02831 0.12741,0.212349 0.29729,0.410542 0.16987,0.184036 0.29728,0.396385 0.29728,0.438855 0,0.04247 0.0849,0.0991 0.21235,0.0991 0.18404,0 0.15573,-0.05663 -0.21235,-0.509638 z m -14.28403,-3.581626 c 0.35391,-0.254819 0.63704,-0.509639 0.63704,-0.552109 -0.0141,-0.155722 -1.24578,-0.96265 -1.38734,-0.92018 -0.4247,0.169879 -0.69368,1.189156 -0.59458,2.18012 l 0.0566,0.509639 0.31145,-0.368073 c 0.16988,-0.198192 0.60873,-0.580421 0.96265,-0.835241 z m 40.403,31.710835 c -0.11325,-0.11325 0.21235,-0.849397 0.75031,-1.656325 0.28313,-0.438855 0.70783,-1.146686 0.92018,-1.571385 0.41054,-0.835241 0.76445,-1.231626 0.92018,-1.061747 0.0991,0.0991 0.0142,0.268976 -0.60874,1.34488 -0.18403,0.325602 -0.56626,0.990963 -0.82108,1.472289 -0.80693,1.514758 -0.9485,1.698798 -1.16085,1.486448 z m 2.56235,-28.185836 c -0.49548,-0.297289 -1.18915,-0.580421 -1.78373,-0.736144 -0.18404,-0.04247 -0.15572,-0.212349 0.0566,-0.339759 0.2265,-0.113253 0.69367,0.01416 1.81204,0.552108 0.39639,0.184036 0.80693,0.368073 0.90603,0.396386 0.26897,0.08494 0.16988,0.410542 -0.12741,0.438855 -0.14157,0.01416 -0.49548,-0.113253 -0.86356,-0.325602 z"
     inkscape:connector-curvature="0" />
  <rect
     style="color:#000000;clip-rule:nonzero;display:inline;overflow:visible;visibility:visible;opacity:1;isolation:auto;mix-blend-mode:normal;color-interpolation:sRGB;color-interpolation-filters:linearRGB;solid-color:#000000;solid-opacity:1;fill:#000000;fill-opacity:1;fill-rule:nonzero;stroke:none;stroke-width:0.8574037;stroke-linecap:butt;stroke-linejoin:miter;stroke-miterlimit:4;stroke-dasharray:none;stroke-dashoffset:0;stroke-opacity:1;marker:none;marker-start:none;marker-mid:none;marker-end:none;color-rendering:auto;image-rendering:auto;shape-rendering:auto;text-rendering:auto;enable-background:accumulate"
     id="rect4397"
     width="71.946098"
     height="15.805368"
     x="392.09818"
     y="94.037926"
     rx="0"
     ry="0" />
  <text
     transform="scale(1.1232623,0.89026402)"
     id="text4399"
     y="118.89816"
     x="361.43427"
     style="color:#000000;font-style:normal;font-variant:normal;font-weight:normal;font-stretch:normal;font-size:14.47244835px;line-height:125%;font-family:Courier;-inkscape-font-specification:Courier;text-indent:0;text-align:start;text-decoration:none;text-decoration-line:none;text-decoration-style:solid;text-decoration-color:#000000;letter-spacing:0px;word-spacing:0px;text-transform:none;direction:ltr;block-progression:tb;writing-mode:lr-tb;baseline-shift:baseline;text-anchor:start;white-space:normal;clip-rule:nonzero;display:inline;overflow:visible;visibility:visible;opacity:1;isolation:auto;mix-blend-mode:normal;color-interpolation:sRGB;color-interpolation-filters:linearRGB;solid-color:#000000;solid-opacity:1;fill:#ffffff;fill-opacity:1;fill-rule:nonzero;stroke:none;stroke-width:1px;stroke-linecap:butt;stroke-linejoin:miter;stroke-miterlimit:4;stroke-dasharray:none;stroke-dashoffset:0;stroke-opacity:1;color-rendering:auto;image-rendering:auto;shape-rendering:auto;text-rendering:auto;enable-background:accumulate"
     xml:space="preserve"
     sodipodi:linespacing="125%"><tspan
       style="font-style:normal;font-variant:normal;font-weight:normal;font-stretch:normal;font-family:Courier;-inkscape-font-specification:Courier;fill:#ffffff"
       y="118.89816"
       x="361.43427"
       id="tspan4401">print</tspan></text>
  <path
     inkscape:connector-curvature="0"
     style="color:#000000;clip-rule:nonzero;display:inline;overflow:visible;visibility:visible;opacity:1;isolation:auto;mix-blend-mode:normal;color-interpolation:sRGB;color-interpolation-filters:linearRGB;solid-color:#000000;solid-opacity:1;fill:#ffffff;fill-opacity:1;fill-rule:nonzero;stroke:#000000;stroke-width:1.5;stroke-linecap:butt;stroke-linejoin:round;stroke-miterlimit:4;stroke-dasharray:none;stroke-dashoffset:0;stroke-opacity:1;marker:none;marker-start:none;marker-mid:none;marker-end:none;color-rendering:auto;image-rendering:auto;shape-rendering:auto;text-rendering:auto;enable-background:accumulate"
     d="m 257.39685,15.509764 -18.96485,18.964843 10.65039,0 c 4.60686,0 8.31446,-3.707594 8.31446,-8.314453 l 0,-10.65039 z"
     id="rect4377-2" />
</svg>
