<?xml version="1.0" encoding="UTF-8" standalone="no"?>
<!-- Created with Inkscape (http://www.inkscape.org/) -->
<svg
   xmlns:svg="http://www.w3.org/2000/svg"
   xmlns="http://www.w3.org/2000/svg"
   version="1.0"
   width="100%"
   height="100%"
   viewBox="0 0 172 64"
   id="svg2">
  <defs
     id="defs4" />
  <path
     d="M 6.46875,4.71875 C 5.3401079,4.71875 4.4375,5.6213579 4.4375,6.75 L 4.4375,49.125 C 4.4375,50.253642 5.3401079,51.1875 6.46875,51.1875 L 33.4375,51.1875 C 34.566142,51.1875 35.500001,50.253641 35.5,49.125 L 35.5,48.8125 L 36.84375,49.09375 L 36.84375,49.125 C 36.84375,50.253642 37.746356,51.1875 38.875,51.1875 L 87.15625,51.1875 C 88.284892,51.1875 89.1875,50.253641 89.1875,49.125 L 89.1875,6.75 C 89.1875,5.6213579 88.284894,4.71875 87.15625,4.71875 L 38.875,4.71875 C 37.746358,4.71875 36.84375,5.6213579 36.84375,6.75 L 36.84375,40.28125 L 35.5,40 L 35.5,6.75 C 35.5,5.6213579 34.566141,4.71875 33.4375,4.71875 L 6.46875,4.71875 z"
     id="rect3313"
     style="opacity:0.9;fill:none;fill-opacity:0.5;fill-rule:evenodd;stroke:#ffffff;stroke-width:4;stroke-linecap:butt;stroke-linejoin:round;marker:none;marker-start:none;marker-mid:none;marker-end:none;stroke-miterlimit:4;stroke-dasharray:none;stroke-dashoffset:0;stroke-opacity:0.50196078;visibility:visible;display:inline;overflow:visible;enable-background:accumulate" />
  <rect
     width="52.346169"
     height="46.464016"
     ry="2.0372601"
     x="36.850113"
     y="4.7125325"
     id="rect3269"
     style="opacity:1;fill:#1a2938;fill-opacity:1;fill-rule:evenodd;stroke:none;stroke-width:0.36004198;stroke-linecap:round;stroke-linejoin:miter;marker:none;marker-start:none;marker-mid:none;marker-end:none;stroke-miterlimit:4;stroke-dasharray:none;stroke-dashoffset:0;stroke-opacity:1;visibility:visible;display:inline;overflow:visible;enable-background:accumulate" />
  <rect
     width="31.040062"
     height="46.464016"
     ry="2.0372601"
     x="4.447072"
     y="4.7125325"
     id="rect2455"
     style="opacity:1;fill:#2b435b;fill-opacity:1;fill-rule:evenodd;stroke:none;stroke-width:0.36004198;stroke-linecap:round;stroke-linejoin:miter;marker:none;marker-start:none;marker-mid:none;marker-end:none;stroke-miterlimit:4;stroke-dasharray:none;stroke-dashoffset:0;stroke-opacity:1;visibility:visible;display:inline;overflow:visible;enable-background:accumulate" />
  <rect
     width="25.05525"
     height="8.6190052"
     ry="2.2048619"
     x="7.4030328"
     y="18.398294"
     id="rect3227"
     style="opacity:1;fill:#71a1d0;fill-opacity:1;fill-rule:evenodd;stroke:#c2eef7;stroke-width:0.5;stroke-linecap:round;stroke-linejoin:miter;marker:none;marker-start:none;marker-mid:none;marker-end:none;stroke-miterlimit:4;stroke-dasharray:none;stroke-dashoffset:0;stroke-opacity:1;visibility:visible;display:inline;overflow:visible;enable-background:accumulate" />
  <rect
     width="25.05525"
     height="8.6190052"
     ry="2.2048619"
     x="7.4030328"
     y="29.051348"
     id="rect3231"
     style="opacity:1;fill:#71a1d0;fill-opacity:1;fill-rule:evenodd;stroke:#c2eef7;stroke-width:0.5;stroke-linecap:round;stroke-linejoin:miter;marker:none;marker-start:none;marker-mid:none;marker-end:none;stroke-miterlimit:4;stroke-dasharray:none;stroke-dashoffset:0;stroke-opacity:1;visibility:visible;display:inline;overflow:visible;enable-background:accumulate" />
  <path
     d="M 9.0047857,23.666121 C 9.7097825,23.63015 10.414779,23.594178 11.119776,23.558206 C 11.09552,24.370154 12.336322,24.851277 13.112087,24.373573 C 13.995435,23.524302 12.22447,23.191439 11.469469,23.095879 C 10.476721,22.894652 9.2954537,22.403704 9.277134,21.444894 C 9.1851201,20.468213 10.327104,19.749284 11.439679,19.689618 C 12.622579,19.592848 14.11671,19.580201 14.893998,20.446374 C 15.113693,20.753284 15.640938,21.545805 14.841174,21.413566 C 14.294254,21.439648 13.747335,21.465729 13.200415,21.491809 C 13.236081,20.708549 11.526087,20.391438 11.330785,21.196039 C 11.79019,21.880665 13.064995,21.662179 13.850593,22.019184 C 14.827214,22.237321 15.65785,22.975405 15.525338,23.837614 C 15.464774,24.907179 14.205361,25.642772 12.964849,25.68073 C 11.756246,25.739844 10.237123,25.736749 9.4896754,24.821726 C 9.1999423,24.482508 9.0459573,24.075774 9.0047862,23.666122 L 9.0047857,23.666121 z M 16.149625,19.745166 C 18.402015,19.745166 20.654406,19.745166 22.906796,19.745166 C 22.906796,20.227458 22.906796,20.70975 22.906796,21.192042 C 22.151093,21.192042 21.395389,21.192042 20.639685,21.192042 C 20.639685,22.662901 20.639685,24.133759 20.639685,25.604618 C 19.898702,25.604618 19.157719,25.604618 18.416737,25.604618 C 18.416737,24.133759 18.416737,22.662901 18.416737,21.192042 C 17.661033,21.192042 16.905329,21.192042 16.149625,21.192042 C 16.149625,20.70975 16.149625,20.227458 16.149625,19.745166 z M 23.42205,19.745166 C 24.238275,19.745166 25.054501,19.745166 25.870727,19.745166 C 26.296014,20.346033 26.721301,20.946899 27.146589,21.547767 C 27.558792,20.946899 27.970995,20.346033 28.383197,19.745166 C 29.191244,19.745166 29.999292,19.745166 30.807339,19.745166 C 30.061449,20.691098 29.315559,21.637031 28.56967,22.582963 C 29.385895,23.590181 30.202121,24.5974 31.018346,25.604618 C 30.185764,25.604618 29.353181,25.604618 28.520598,25.604618 C 28.047874,24.977104 27.57515,24.349591 27.102425,23.722078 C 26.628066,24.349591 26.153707,24.977104 25.679347,25.604618 C 24.851671,25.604618 24.023994,25.604618 23.196319,25.604618 C 24.023994,24.58674 24.851671,23.568864 25.679347,22.550987 C 24.926914,21.615713 24.174482,20.68044 23.42205,19.745166 z"
     id="text3243"
     style="font-size:9.06999397px;font-style:normal;font-variant:normal;font-weight:normal;font-stretch:normal;text-align:start;line-height:80.00000119%;writing-mode:lr-tb;text-anchor:start;fill:#2b435b;fill-opacity:1;stroke:none;stroke-width:1px;stroke-linecap:butt;stroke-linejoin:miter;stroke-opacity:1;font-family:Arial Black;-inkscape-font-specification:Arial Black" />
  <path
     d="M 9.0685793,33.303961 C 9.0719408,32.305166 9.2009876,31.045326 10.292373,30.559035 C 11.354198,30.139354 12.856478,30.133565 13.617144,31.064704 C 14.31789,32.073611 14.277219,33.368409 14.096063,34.51568 C 13.98037,35.345847 13.376969,36.162456 12.436392,36.285382 C 11.38083,36.493111 10.043103,36.327676 9.4936671,35.345691 C 9.1395751,34.723747 9.0790538,33.995374 9.0685794,33.303962 L 9.0685793,33.303961 z M 10.801367,33.307957 C 10.856786,33.957919 10.691137,34.990083 11.531314,35.240084 C 12.502138,35.265253 12.45537,34.086464 12.46945,33.449709 C 12.414524,32.783183 12.589092,31.872363 11.908886,31.438226 C 11.087846,31.126565 10.788628,32.105093 10.820214,32.684305 C 10.806217,32.891911 10.801447,33.099974 10.801367,33.307959 L 10.801367,33.307957 z M 14.708718,32.012964 C 15.399259,32.012964 16.089801,32.012964 16.780344,32.012964 C 17.021962,32.407325 17.263579,32.801686 17.505198,33.196047 C 17.785417,32.801686 18.065637,32.407325 18.345856,32.012964 C 18.987789,32.012964 19.62972,32.012964 20.271652,32.012964 C 19.754104,32.687107 19.236555,33.36125 18.719006,34.035393 C 19.273727,34.776151 19.828448,35.51691 20.383169,36.257669 C 19.704065,36.257669 19.02496,36.257669 18.345856,36.257669 C 18.065637,35.802024 17.785417,35.346378 17.505198,34.890732 C 17.174939,35.346378 16.84468,35.802024 16.51442,36.257669 C 15.883926,36.257669 15.253431,36.257669 14.622936,36.257669 C 15.174798,35.51691 15.726659,34.776151 16.278521,34.035393 C 15.755253,33.36125 15.231985,32.687107 14.708718,32.012964 z M 20.8035,33.303961 C 20.80686,32.305166 20.935908,31.045326 22.027293,30.559035 C 23.089118,30.139354 24.591398,30.133566 25.352063,31.064704 C 26.052809,32.073611 26.012139,33.368409 25.830982,34.51568 C 25.715289,35.345847 25.111889,36.162456 24.171311,36.285382 C 23.11575,36.493111 21.778023,36.327676 21.228586,35.345691 C 20.874495,34.723747 20.813973,33.995373 20.803499,33.303962 L 20.8035,33.303961 z M 22.536287,33.307957 C 22.591705,33.957919 22.426057,34.990082 23.266234,35.240084 C 24.237057,35.265253 24.190289,34.086464 24.204369,33.449709 C 24.149442,32.783183 24.324011,31.872363 23.643805,31.438226 C 22.822766,31.126565 22.523548,32.105093 22.555134,32.684305 C 22.541137,32.891911 22.536366,33.099974 22.536287,33.307959 L 22.536287,33.307957 z M 30.629777,30.298294 C 30.629777,32.284752 30.629777,34.271211 30.629777,36.257669 C 30.040744,36.257669 29.451711,36.257669 28.862677,36.257669 C 28.862677,34.956013 28.862677,33.654358 28.862677,32.352702 C 28.37575,32.66693 27.421311,33.28348 27.026952,33.074318 C 27.026952,32.67257 27.026952,32.270823 27.026952,31.869075 C 27.921528,31.621792 28.799679,31.126061 29.184359,30.298295 C 29.666165,30.298295 30.147971,30.298294 30.629777,30.298294 z"
     id="text3247"
     style="font-size:8.47956371px;font-style:normal;font-variant:normal;font-weight:normal;font-stretch:normal;text-align:start;line-height:80.00000119%;writing-mode:lr-tb;text-anchor:start;fill:#2b435b;fill-opacity:1;stroke:none;stroke-width:1px;stroke-linecap:butt;stroke-linejoin:miter;stroke-opacity:1;font-family:Arial Black;-inkscape-font-specification:Arial Black" />
  <path
     d="M 38.46875,4.75 C 37.538733,4.9393458 36.84375,5.7624382 36.84375,6.75 L 36.84375,16.5 L 89.1875,16.5 L 89.1875,6.75 C 89.1875,5.7624382 88.492518,4.9393458 87.5625,4.75 L 38.46875,4.75 z"
     id="rect3275"
     style="opacity:1;fill:#263646;fill-opacity:1;fill-rule:evenodd;stroke:none;stroke-width:0.5;stroke-linecap:round;stroke-linejoin:miter;marker:none;marker-start:none;marker-mid:none;marker-end:none;stroke-miterlimit:4;stroke-dasharray:none;stroke-dashoffset:0;stroke-opacity:1;visibility:visible;display:inline;overflow:visible;enable-background:accumulate" />
  <path
     d="M 36.84375,28.03125 L 36.84375,39.8125 L 89.1875,39.8125 L 89.1875,28.03125 L 36.84375,28.03125 z"
     id="rect3280"
     style="opacity:1;fill:#263646;fill-opacity:1;fill-rule:evenodd;stroke:none;stroke-width:0.5;stroke-linecap:round;stroke-linejoin:miter;marker:none;marker-start:none;marker-mid:none;marker-end:none;stroke-miterlimit:4;stroke-dasharray:none;stroke-dashoffset:0;stroke-opacity:1;visibility:visible;display:inline;overflow:visible;enable-background:accumulate" />
  <rect
     width="25.05525"
     height="8.6190052"
     ry="2.2048619"
     x="7.4030328"
     y="7.7452412"
     id="rect2447"
     style="opacity:1;fill:#71a1d0;fill-opacity:1;fill-rule:evenodd;stroke:#c2eef7;stroke-width:0.5;stroke-linecap:round;stroke-linejoin:miter;marker:none;marker-start:none;marker-mid:none;marker-end:none;stroke-miterlimit:4;stroke-dasharray:none;stroke-dashoffset:0;stroke-opacity:1;visibility:visible;display:inline;overflow:visible;enable-background:accumulate" />
  <path
     d="M 9.3924531,9.0921118 C 10.133436,9.0921118 10.874418,9.0921118 11.6154,9.0921118 C 11.6154,10.564303 11.6154,12.036493 11.6154,13.508684 C 12.771857,13.508684 13.928312,13.508684 15.084769,13.508684 C 15.084769,13.989644 15.084769,14.470603 15.084769,14.951563 C 13.187329,14.951563 11.289892,14.951563 9.3924531,14.951563 C 9.3924531,12.998413 9.3924531,11.045263 9.3924531,9.0921118 z M 16.134903,9.0921118 C 17.49615,9.1103116 18.861924,9.050402 20.219562,9.1334272 C 21.568724,9.2246625 22.555567,10.222343 22.685663,11.277417 C 22.877274,12.399188 22.760124,13.767607 21.526039,14.487424 C 20.364783,15.129016 18.908082,14.910747 17.585308,14.951563 C 17.10184,14.951563 16.618372,14.951563 16.134903,14.951563 C 16.134903,12.998413 16.134903,11.045263 16.134903,9.0921118 z M 18.357851,10.419082 C 18.357851,11.486254 18.357851,12.553425 18.357851,13.620597 C 19.072447,13.609988 20.040112,13.730818 20.355069,13.057034 C 20.591737,12.351107 20.630968,11.531507 20.236375,10.857929 C 19.823125,10.352656 19.009418,10.424009 18.357851,10.419082 z M 27.912109,13.984314 C 27.068076,13.984314 26.224042,13.984314 25.38001,13.984314 C 25.263874,14.306731 25.147737,14.629147 25.031602,14.951563 C 24.274262,14.951563 23.516921,14.951563 22.759582,14.951563 C 23.660865,12.998413 24.562149,11.045263 25.463432,9.0921118 C 26.27148,9.0921118 27.079527,9.0921118 27.887575,9.0921118 C 28.788858,11.045263 29.690142,12.998413 30.591425,14.951563 C 29.816091,14.951563 29.040758,14.951563 28.265425,14.951563 C 28.147653,14.629147 28.029881,14.306731 27.912109,13.984314 z M 27.445928,12.717298 C 27.180942,12.015176 26.915954,11.313054 26.650967,10.610933 C 26.387615,11.313054 26.124264,12.015176 25.860912,12.717298 C 26.389251,12.717298 26.91759,12.717298 27.445928,12.717298 z"
     id="text3239"
     style="font-size:9.06999397px;font-style:normal;font-variant:normal;font-weight:normal;font-stretch:normal;text-align:start;line-height:80.00000119%;writing-mode:lr-tb;text-anchor:start;fill:#2b435b;fill-opacity:1;stroke:none;stroke-width:1px;stroke-linecap:butt;stroke-linejoin:miter;stroke-opacity:1;font-family:Arial Black;-inkscape-font-specification:Arial Black" />
  <rect
     width="25.05525"
     height="8.6190052"
     ry="2.2048619"
     x="39.103764"
     y="6.4897666"
     id="rect3287"
     style="opacity:1;fill:#71a1d0;fill-opacity:1;fill-rule:evenodd;stroke:#c2eef7;stroke-width:0.5;stroke-linecap:round;stroke-linejoin:miter;marker:none;marker-start:none;marker-mid:none;marker-end:none;stroke-miterlimit:4;stroke-dasharray:none;stroke-dashoffset:0;stroke-opacity:1;visibility:visible;display:inline;overflow:visible;enable-background:accumulate" />
  <rect
     width="25.05525"
     height="8.6190052"
     ry="2.2048619"
     x="23.395164"
     y="31.930696"
     transform="matrix(0.9789852,0.2039312,-0.2039312,0.9789852,0,0)"
     id="rect3235"
     style="opacity:1;fill:#71a1d0;fill-opacity:1;fill-rule:evenodd;stroke:#c2eef7;stroke-width:0.5;stroke-linecap:round;stroke-linejoin:miter;marker:none;marker-start:none;marker-mid:none;marker-end:none;stroke-miterlimit:4;stroke-dasharray:none;stroke-dashoffset:0;stroke-opacity:1;visibility:visible;display:inline;overflow:visible;enable-background:accumulate" />
  <path
     d="M 18.002347,37.74194 C 18.655697,37.878038 19.309047,38.014137 19.962399,38.150236 C 19.617313,39.806841 19.272228,41.463446 18.927143,43.120051 C 18.273791,42.983953 17.620441,42.847854 16.967091,42.711755 C 17.312176,41.05515 17.657262,39.398545 18.002347,37.74194 z M 20.318461,41.542258 C 20.449552,40.520246 21.897233,39.917018 23.30037,40.198418 C 24.607775,40.353028 26.018737,41.097051 26.188549,42.115832 C 26.442367,43.167236 25.454094,44.198429 23.96207,44.148145 C 22.53839,44.145692 20.805149,43.517333 20.384799,42.390846 C 20.27327,42.107158 20.26065,41.816092 20.318461,41.542258 z M 22.279218,41.947163 C 21.829975,42.672921 23.393301,43.598782 24.002807,42.83451 C 24.496974,42.320164 24.30379,41.111986 23.057146,41.19044 C 22.550084,41.245448 22.340915,41.611203 22.279218,41.947164 L 22.279218,41.947163 z M 26.890398,42.91125 C 27.021488,41.889238 28.469168,41.28601 29.872306,41.56741 C 31.179711,41.72202 32.590671,42.466042 32.760485,43.484824 C 33.014303,44.536227 32.026029,45.567422 30.534006,45.517137 C 29.110326,45.514683 27.377084,44.886326 26.956734,43.759838 C 26.845205,43.47615 26.832585,43.185083 26.890397,42.911249 L 26.890398,42.91125 z M 28.851154,43.316155 C 28.401909,44.041913 29.965237,44.967774 30.574742,44.203502 C 31.068907,43.689155 30.875726,42.480978 29.629081,42.559432 C 29.122019,42.614439 28.91285,42.980195 28.851154,43.316156 L 28.851154,43.316155 z M 33.053987,47.491807 C 33.399072,45.835202 33.744157,44.178597 34.089243,42.521991 C 34.699356,42.649083 35.309469,42.776175 35.919582,42.903267 C 35.850159,43.226348 35.675373,43.628836 36.231229,43.22994 C 37.296958,42.807477 38.959586,43.438345 39.22989,44.3898 C 39.550517,45.299991 39.330595,46.405097 38.245743,46.852745 C 37.357141,47.254538 35.923218,46.777255 35.378471,46.222795 C 35.261797,46.782898 35.145123,47.343002 35.028448,47.903105 C 34.370294,47.766005 33.712141,47.628906 33.053987,47.491807 z M 35.672193,44.740574 C 35.226015,45.481688 36.983368,46.276107 37.280645,45.374906 C 37.860834,44.784412 36.834217,43.52451 35.927641,44.218117 C 35.776598,44.365234 35.712951,44.554026 35.672193,44.740574 z"
     id="text3251"
     style="font-size:8.44229412px;font-style:normal;font-variant:normal;font-weight:normal;font-stretch:normal;text-align:start;line-height:80.00000119%;writing-mode:lr-tb;text-anchor:start;fill:#2b435b;fill-opacity:1;stroke:none;stroke-width:1px;stroke-linecap:butt;stroke-linejoin:miter;stroke-opacity:1;font-family:Arial Black;-inkscape-font-specification:Arial Black" />
  <path
     d="M 44.34468,7.832907 C 45.03331,7.832907 45.721941,7.832907 46.410572,7.832907 C 46.390068,9.1643265 46.459123,10.498718 46.359377,11.827637 C 46.342403,12.760984 45.453486,13.554424 44.389398,13.652785 C 43.280228,13.776628 41.854917,13.637719 41.329307,12.648385 C 41.131127,12.241972 40.74498,11.475626 41.561695,11.582562 C 42.046448,11.525602 42.5312,11.468642 43.015952,11.411682 C 42.679942,12.214408 44.142111,12.797317 44.303722,11.83058 C 44.390342,10.663221 44.323752,9.4883918 44.344679,8.317857 C 44.344679,8.1562069 44.34468,7.9945569 44.34468,7.832907 z M 47.771152,7.832907 C 48.675171,7.832907 49.57919,7.832907 50.483208,7.832907 C 50.832075,8.9996711 51.180941,10.166435 51.529807,11.333199 C 51.877158,10.166435 52.224508,8.9996711 52.571859,7.832907 C 53.472845,7.832907 54.37383,7.832907 55.274816,7.832907 C 55.274816,9.7504814 55.274816,11.668055 55.274816,13.58563 C 54.713595,13.58563 54.152373,13.58563 53.591153,13.58563 C 53.591153,12.12325 53.591153,10.660872 53.591153,9.1984925 C 53.15583,10.660872 52.720506,12.12325 52.285183,13.58563 C 51.77705,13.58563 51.268918,13.58563 50.760785,13.58563 C 50.326978,12.12325 49.893171,10.660872 49.459363,9.1984925 C 49.459363,10.660872 49.459363,12.12325 49.459363,13.58563 C 48.896626,13.58563 48.333889,13.58563 47.771152,13.58563 C 47.771152,11.668055 47.771152,9.7504814 47.771152,7.832907 z M 56.576239,7.832907 C 57.892929,7.8477473 59.212759,7.8006396 60.527146,7.8616053 C 61.451268,7.9059842 62.225353,8.5912159 62.228226,9.3929201 C 62.368258,10.248325 61.775916,11.191233 60.743344,11.357037 C 60.05685,11.50182 59.345975,11.43568 58.646683,11.450923 C 58.646683,12.162491 58.646683,12.874061 58.646683,13.58563 C 57.956534,13.58563 57.266387,13.58563 56.576239,13.58563 C 56.576239,11.668055 56.576239,9.7504814 56.576239,7.832907 z M 58.646683,10.285466 C 59.210098,10.275524 60.027521,10.385803 60.215158,9.7829389 C 60.384381,9.0757863 59.460514,8.9410262 58.854892,9.0022877 C 58.472062,8.9225539 58.71399,9.3815834 58.646683,9.573942 C 58.646683,9.8111164 58.646683,10.048292 58.646683,10.285466 z"
     id="text3291"
     style="font-size:8.65418053px;font-style:normal;font-variant:normal;font-weight:normal;font-stretch:normal;text-indent:0;text-align:start;text-decoration:none;line-height:80.00000119%;letter-spacing:normal;word-spacing:normal;text-transform:none;direction:ltr;block-progression:tb;writing-mode:lr-tb;text-anchor:start;fill:#2b435b;fill-opacity:1;fill-rule:nonzero;stroke:none;stroke-width:1px;stroke-linecap:butt;stroke-linejoin:miter;marker:none;marker-start:none;marker-mid:none;marker-end:none;stroke-miterlimit:4;stroke-dashoffset:0;stroke-opacity:1;visibility:visible;display:inline;overflow:visible;enable-background:accumulate;font-family:Arial Black;-inkscape-font-specification:Arial Black" />
  <path
     d="M 59.638406,31.509854 L 44.80161,28.867733 L 47.591008,32.865843 L 44.310507,35.15458 C 42.204559,36.623855 41.686756,39.531571 43.156032,41.63752 L 44.711657,43.867235 C 46.180933,45.973183 49.070768,46.465356 51.176717,44.996082 L 54.457218,42.707345 L 57.014166,46.372279 L 59.638406,31.509854 z"
     id="path3305"
     style="opacity:0.33628319;fill:#71a1d0;fill-opacity:1;fill-rule:evenodd;stroke:#c2eef7;stroke-width:1;stroke-linecap:round;stroke-linejoin:miter;marker:none;marker-start:none;marker-mid:none;marker-end:none;stroke-miterlimit:4;stroke-dasharray:none;stroke-dashoffset:0;stroke-opacity:1;visibility:visible;display:inline;overflow:visible;enable-background:accumulate" />
</svg>
