<?xml version="1.0" encoding="UTF-8" standalone="no"?>
<!-- Created with Inkscape (http://www.inkscape.org/) -->

<svg
   xmlns:dc="http://purl.org/dc/elements/1.1/"
   xmlns:cc="http://creativecommons.org/ns#"
   xmlns:rdf="http://www.w3.org/1999/02/22-rdf-syntax-ns#"
   xmlns:svg="http://www.w3.org/2000/svg"
   xmlns="http://www.w3.org/2000/svg"
   xmlns:xlink="http://www.w3.org/1999/xlink"
   xmlns:sodipodi="http://sodipodi.sourceforge.net/DTD/sodipodi-0.dtd"
   xmlns:inkscape="http://www.inkscape.org/namespaces/inkscape"
   version="1.0"
   width="100%"
   height="100%"
   viewBox="0 0 640 480"
   id="svg2"
   inkscape:version="0.91 r13725"
   sodipodi:docname="book.svg">
  <metadata
     id="metadata172">
    <rdf:RDF>
      <cc:Work
         rdf:about="">
        <dc:format>image/svg+xml</dc:format>
        <dc:type
           rdf:resource="http://purl.org/dc/dcmitype/StillImage" />
      </cc:Work>
    </rdf:RDF>
  </metadata>
  <sodipodi:namedview
     pagecolor="#ffffff"
     bordercolor="#666666"
     borderopacity="1"
     objecttolerance="10"
     gridtolerance="10"
     guidetolerance="10"
     inkscape:pageopacity="0"
     inkscape:pageshadow="2"
     inkscape:window-width="935"
     inkscape:window-height="601"
     id="namedview170"
     showgrid="false"
     inkscape:zoom="0.57942363"
     inkscape:cx="415.47644"
     inkscape:cy="358.113"
     inkscape:window-x="54"
     inkscape:window-y="352"
     inkscape:window-maximized="0"
     inkscape:current-layer="svg2" />
  <defs
     id="defs3" />
  <rect
     x="0"
     y="0"
     width="640"
     height="480"
     style="fill:#414446;fill-opacity:1"
     id="rect4163" />
  <path
     style="color:#000000;clip-rule:nonzero;display:inline;overflow:visible;visibility:visible;opacity:1;isolation:auto;mix-blend-mode:normal;color-interpolation:sRGB;color-interpolation-filters:linearRGB;solid-color:#000000;solid-opacity:1;fill:#484848;fill-opacity:1;fill-rule:nonzero;stroke:none;stroke-width:10;stroke-linecap:butt;stroke-linejoin:miter;stroke-miterlimit:4;stroke-dasharray:none;stroke-dashoffset:0;stroke-opacity:1;marker:none;marker-start:none;marker-mid:none;marker-end:none;color-rendering:auto;image-rendering:auto;shape-rendering:auto;text-rendering:auto;enable-background:accumulate"
     d="M 56.5 6.5546875 L 56.5 9.7773438 L 640 9.7773438 L 640 6.5546875 L 56.5 6.5546875 z M 56.5 25.900391 L 56.5 29.123047 L 640 29.123047 L 640 25.900391 L 56.5 25.900391 z M 56.5 45.246094 L 56.5 48.46875 L 640 48.46875 L 640 45.246094 L 56.5 45.246094 z M 56.5 64.589844 L 56.5 67.814453 L 640 67.814453 L 640 64.589844 L 56.5 64.589844 z M 56.5 83.933594 L 56.5 87.158203 L 640 87.158203 L 640 83.933594 L 56.5 83.933594 z M 56.5 103.27734 L 56.5 106.50195 L 640 106.50195 L 640 103.27734 L 56.5 103.27734 z M 56.5 122.62305 L 56.5 125.8457 L 640 125.8457 L 640 122.62305 L 56.5 122.62305 z M 56.5 141.96875 L 56.5 145.19141 L 640 145.19141 L 640 141.96875 L 56.5 141.96875 z M 56.5 161.31445 L 56.5 164.53711 L 640 164.53711 L 640 161.31445 L 56.5 161.31445 z M 56.5 180.65625 L 56.5 183.88281 L 640 183.88281 L 640 180.65625 L 56.5 180.65625 z M 56.5 200.00195 L 56.5 203.22461 L 640 203.22461 L 640 200.00195 L 56.5 200.00195 z M 56.5 219.34766 L 56.5 222.57031 L 640 222.57031 L 640 219.34766 L 56.5 219.34766 z M 56.5 238.69141 L 56.5 241.91602 L 640 241.91602 L 640 238.69141 L 56.5 238.69141 z M 56.5 258.03711 L 56.5 261.25977 L 640 261.25977 L 640 258.03711 L 56.5 258.03711 z M 56.5 277.37891 L 56.5 280.60547 L 640 280.60547 L 640 277.37891 L 56.5 277.37891 z M 56.5 296.72461 L 56.5 299.94727 L 640 299.94727 L 640 296.72461 L 56.5 296.72461 z M 56.5 316.07031 L 56.5 319.29297 L 640 319.29297 L 640 316.07031 L 56.5 316.07031 z M 56.5 335.41602 L 56.5 338.63867 L 640 338.63867 L 640 335.41602 L 56.5 335.41602 z M 56.5 354.76172 L 56.5 357.98438 L 640 357.98438 L 640 354.76172 L 56.5 354.76172 z M 56.5 374.10352 L 56.5 377.33008 L 640 377.33008 L 640 374.10352 L 56.5 374.10352 z M 56.5 393.44922 L 56.5 396.67188 L 640 396.67188 L 640 393.44922 L 56.5 393.44922 z M 56.5 412.79297 L 56.5 416.01758 L 640 416.01758 L 640 412.79297 L 56.5 412.79297 z M 56.5 432.13867 L 56.5 435.36133 L 640 435.36133 L 640 432.13867 L 56.5 432.13867 z M 56.5 451.48438 L 56.5 454.70703 L 640 454.70703 L 640 451.48438 L 56.5 451.48438 z M 56.5 470.82617 L 56.5 474.05273 L 640 474.05273 L 640 470.82617 L 56.5 470.82617 z "
     id="use5140" />
  <rect
     id="rect6"
     style="fill:#522e22;fill-opacity:1"
     height="480"
     width="98.262772"
     y="0"
     x="0" />
  <path
     style="color:#000000;font-style:normal;font-variant:normal;font-weight:normal;font-stretch:normal;font-size:medium;line-height:normal;font-family:sans-serif;text-indent:0;text-align:start;text-decoration:none;text-decoration-line:none;text-decoration-style:solid;text-decoration-color:#000000;letter-spacing:normal;word-spacing:normal;text-transform:none;direction:ltr;block-progression:tb;writing-mode:lr-tb;baseline-shift:baseline;text-anchor:start;white-space:normal;clip-rule:nonzero;display:inline;overflow:visible;visibility:visible;opacity:1;isolation:auto;mix-blend-mode:normal;color-interpolation:sRGB;color-interpolation-filters:linearRGB;solid-color:#000000;solid-opacity:1;fill:#593527;fill-opacity:1;fill-rule:nonzero;stroke:none;stroke-width:3;stroke-linecap:butt;stroke-linejoin:miter;stroke-miterlimit:4;stroke-dasharray:none;stroke-dashoffset:0;stroke-opacity:1;marker:none;color-rendering:auto;image-rendering:auto;shape-rendering:auto;text-rendering:auto;enable-background:accumulate"
     d="M 3.734375 0 C -1.8887051 82.781569 1.5925218 165.86612 0.61328125 248.78516 C 0.93387612 279.28967 0.61836219 309.78415 0 340.27344 L 0 458.66406 C 3.1038764 360.18361 4.2068699 261.66264 3.6132812 163.13086 C 3.8200091 108.7669 2.4960743 54.220723 6.5917969 0 L 3.734375 0 z M 11.142578 0 C 11.777602 79.959983 14.099631 159.96735 6.7539062 239.73828 C 1.0718261 307.85828 4.2353741 376.15672 10.464844 444.09766 C 11.249324 456.07179 11.478996 468.03897 11.388672 480 L 13.945312 480 C 13.625213 440.50937 11.190414 401.0251 7.4980469 361.67773 C 4.3334758 296.75256 10.864 231.92102 13.953125 167.13086 C 15.79182 241.042 26.727603 314.40964 31.988281 387.95703 C 31.208233 418.51798 30.846601 449.29587 29.511719 480 L 32.429688 480 C 33.755483 453.35918 34.413083 426.67866 34.845703 400.02148 C 38.588263 426.4697 35.676433 453.63351 39.244141 480 L 42.615234 480 C 37.989775 445.45088 41.712823 410.30466 35.082031 375.85547 C 35.488682 250.56419 37.868248 125.2784 39.363281 0 L 36.302734 0 C 35.442126 117.28008 32.33593 234.53687 32.3125 351.82422 C 18.309041 235.17863 10.548579 117.31511 20.337891 0 L 17.435547 0 C 16.580958 16.293397 15.511682 32.576025 14.554688 48.863281 C 13.515044 33.312456 13.803385 16.541897 14.005859 0 L 11.142578 0 z M 42.884766 0 C 43.821011 125.79337 47.288366 251.5706 46.019531 377.37109 C 45.51996 411.59476 44.534427 445.81349 42.847656 480 L 45.451172 480 C 44.812093 463.06315 49.574378 444.8257 47.898438 428.10156 C 51.696308 285.4056 46.83592 142.70814 45.814453 0 L 42.884766 0 z M 53.296875 0 C 48.619746 159.96534 55.969818 320.02858 52.958984 480 L 57.732422 480 C 56.156603 420.48504 59.8059 359.77352 60.546875 300.05273 C 62.612099 347.39621 70.294908 394.37815 68.216797 441.85938 C 68.433755 454.68623 66.649527 467.36681 64.441406 480 L 68.167969 480 C 68.18204 479.89708 68.198069 479.79145 68.210938 479.68945 C 68.21087 479.79296 68.210978 479.89649 68.210938 480 L 71.248047 480 C 71.106854 468.64647 70.820382 457.27995 72.027344 446.01758 C 72.511105 453.97699 72.616418 468.53655 72.267578 480 L 74.234375 480 C 75.188457 461.77397 77.778606 441.49365 73.953125 425.50781 C 78.441713 331.55068 81.513527 237.49806 88.84375 143.68945 C 92.247462 242.51346 93.120335 341.43958 87.865234 440.21484 C 85.184445 451.21425 86.699229 466.04076 87.224609 480 L 89.599609 480 C 88.872819 469.78668 88.161172 459.59601 90.503906 451.2793 C 95.165839 355.26058 96.023662 259.11465 92.380859 163.03906 C 89.141469 124.78831 92.677252 87.002629 98.263672 49.371094 L 98.263672 30.625 C 95.179781 48.675144 92.319013 66.753582 90.591797 84.976562 C 91.567154 56.699067 89.819266 28.332531 88.734375 0 L 85.728516 0 C 86.736809 30.493542 88.502418 61.012378 87.726562 91.490234 C 87.838663 149.63474 80.028883 207.58612 78.246094 265.74219 C 75.75457 312.07382 74.028191 358.44248 72.160156 404.80078 C 69.899897 339.75808 72.141752 274.52041 70.28125 209.41602 C 69.228137 139.60733 67.515649 69.806926 66.298828 0 L 63.341797 0 C 65.517745 120.26445 68.76736 240.5239 68.216797 360.81836 C 56.72719 247.28875 64.59066 133.0445 62.763672 19.183594 C 62.748057 12.788466 62.781939 6.3944976 62.861328 0 L 59.101562 0 C 60.335136 118.19254 58.991121 236.41004 56.384766 354.57422 C 56.273986 236.39634 52.633585 118.14158 56.271484 0 L 53.296875 0 z "
     id="path4165" />
  <path
     style="color:#000000;font-style:normal;font-variant:normal;font-weight:normal;font-stretch:normal;font-size:medium;line-height:normal;font-family:sans-serif;text-indent:0;text-align:start;text-decoration:none;text-decoration-line:none;text-decoration-style:solid;text-decoration-color:#000000;letter-spacing:normal;word-spacing:normal;text-transform:none;direction:ltr;block-progression:tb;writing-mode:lr-tb;baseline-shift:baseline;text-anchor:start;white-space:normal;clip-rule:nonzero;display:inline;overflow:visible;visibility:visible;opacity:1;isolation:auto;mix-blend-mode:normal;color-interpolation:sRGB;color-interpolation-filters:linearRGB;solid-color:#000000;solid-opacity:1;fill:#864d37;fill-opacity:0.15469612;fill-rule:nonzero;stroke:none;stroke-width:10;stroke-linecap:butt;stroke-linejoin:miter;stroke-miterlimit:4;stroke-dasharray:none;stroke-dashoffset:0;stroke-opacity:1;marker:none;color-rendering:auto;image-rendering:auto;shape-rendering:auto;text-rendering:auto;enable-background:accumulate"
     d="M 13.595703 0 C 13.005876 16.76196 18.251912 36.776298 16.296875 52.34375 C 21.462436 101.31063 25.198916 150.46117 21.310547 199.6875 C 18.766112 245.15377 20.581346 291.39913 8.2558594 335.57031 C 0.30017185 383.51826 4.6388548 431.96559 10.210938 480 L 20.761719 480 C 17.557597 452.48894 12.961151 425.03952 13.835938 397.21484 C 12.694551 361.61899 20.258234 326.63141 26.769531 292.01172 C 27.920465 277.87915 29.560096 236.94846 29.923828 239.59766 C 28.88312 319.68926 27.345093 399.96274 30 480 L 39.425781 480 C 37.733875 389.88048 39.612603 299.74315 39.402344 209.61719 C 49.040515 280.06842 44.946718 351.53983 42.404297 422.34375 C 39.18358 436.96168 42.040202 465.59962 41.361328 480 L 63.917969 480 C 63.926121 476.62405 63.843572 473.66231 63.667969 471.66016 C 68.756212 314.52901 74.317825 157.13858 66.949219 0 L 49.076172 0 C 48.976912 15.699385 41.239587 33.022592 43.601562 48.574219 C 40.045115 83.26862 36.178528 118.00543 35.775391 152.91602 C 30.009037 107.90423 42.016409 62.48316 34.154297 17.566406 C 34.036166 12.198105 33.465524 6.015181 33.689453 0 L 13.595703 0 z M 25.792969 38.037109 C 27.602864 57.11617 26.645883 59.46844 25.792969 38.037109 z M 52.115234 64.064453 C 49.111279 100.95428 46.783668 137.91568 46.097656 174.92773 C 44.792599 137.87523 48.312427 100.87546 52.115234 64.064453 z M 59.892578 96.013672 C 61.016997 163.55919 60.277657 231.12198 58.712891 298.6543 C 51.515205 231.31713 56.59765 163.42735 59.892578 96.013672 z "
     id="path4662" />
  <g
     id="g4306"
     inkscape:tile-cx="42.711864"
     inkscape:tile-cy="48.81356"
     inkscape:tile-w="28.474577"
     inkscape:tile-h="28.474577"
     inkscape:tile-x0="28.474576"
     inkscape:tile-y0="34.576272"
     transform="translate(0,-7.8598104)">
    <circle
       r="17.675982"
       cy="51.040688"
       cx="40.855923"
       id="circle4159"
       style="color:#000000;clip-rule:nonzero;display:inline;overflow:visible;visibility:visible;opacity:1;isolation:auto;mix-blend-mode:normal;color-interpolation:sRGB;color-interpolation-filters:linearRGB;solid-color:#000000;solid-opacity:1;fill:#72402f;fill-opacity:1;fill-rule:nonzero;stroke:none;stroke-width:0.5;stroke-linecap:butt;stroke-linejoin:miter;stroke-miterlimit:4;stroke-dasharray:none;stroke-dashoffset:0;stroke-opacity:1;marker:none;marker-start:none;marker-mid:none;marker-end:none;color-rendering:auto;image-rendering:auto;shape-rendering:auto;text-rendering:auto;enable-background:accumulate" />
    <circle
       style="color:#000000;clip-rule:nonzero;display:inline;overflow:visible;visibility:visible;opacity:1;isolation:auto;mix-blend-mode:normal;color-interpolation:sRGB;color-interpolation-filters:linearRGB;solid-color:#000000;solid-opacity:1;fill:#341d15;fill-opacity:1;fill-rule:nonzero;stroke:none;stroke-width:0.5;stroke-linecap:butt;stroke-linejoin:miter;stroke-miterlimit:4;stroke-dasharray:none;stroke-dashoffset:0;stroke-opacity:1;marker:none;marker-start:none;marker-mid:none;marker-end:none;color-rendering:auto;image-rendering:auto;shape-rendering:auto;text-rendering:auto;enable-background:accumulate"
       id="circle4161"
       cx="43.743088"
       cy="47.103645"
       r="17.675982" />
    <circle
       style="color:#000000;clip-rule:nonzero;display:inline;overflow:visible;visibility:visible;opacity:1;isolation:auto;mix-blend-mode:normal;color-interpolation:sRGB;color-interpolation-filters:linearRGB;solid-color:#000000;solid-opacity:1;fill:#2d2d2d;fill-opacity:1;fill-rule:nonzero;stroke:none;stroke-width:0.5;stroke-linecap:butt;stroke-linejoin:miter;stroke-miterlimit:4;stroke-dasharray:none;stroke-dashoffset:0;stroke-opacity:1;marker:none;marker-start:none;marker-mid:none;marker-end:none;color-rendering:auto;image-rendering:auto;shape-rendering:auto;text-rendering:auto;enable-background:accumulate"
       id="circle4157"
       cx="42.711864"
       cy="48.81356"
       r="16.191229" />
    <circle
       r="14.237288"
       cy="48.81356"
       cx="42.711864"
       id="path4304"
       style="color:#000000;clip-rule:nonzero;display:inline;overflow:visible;visibility:visible;opacity:1;isolation:auto;mix-blend-mode:normal;color-interpolation:sRGB;color-interpolation-filters:linearRGB;solid-color:#000000;solid-opacity:1;fill:#808080;fill-opacity:1;fill-rule:nonzero;stroke:none;stroke-width:0.5;stroke-linecap:butt;stroke-linejoin:miter;stroke-miterlimit:4;stroke-dasharray:none;stroke-dashoffset:0;stroke-opacity:1;marker:none;marker-start:none;marker-mid:none;marker-end:none;color-rendering:auto;image-rendering:auto;shape-rendering:auto;text-rendering:auto;enable-background:accumulate" />
    <circle
       style="color:#000000;clip-rule:nonzero;display:inline;overflow:visible;visibility:visible;opacity:1;isolation:auto;mix-blend-mode:normal;color-interpolation:sRGB;color-interpolation-filters:linearRGB;solid-color:#000000;solid-opacity:1;fill:#4d4d4d;fill-opacity:1;fill-rule:nonzero;stroke:none;stroke-width:0.5;stroke-linecap:butt;stroke-linejoin:miter;stroke-miterlimit:4;stroke-dasharray:none;stroke-dashoffset:0;stroke-opacity:1;marker:none;marker-start:none;marker-mid:none;marker-end:none;color-rendering:auto;image-rendering:auto;shape-rendering:auto;text-rendering:auto;enable-background:accumulate"
       id="circle4350"
       cx="42.711864"
       cy="48.81356"
       r="9.1465931" />
    <path
       style="color:#000000;clip-rule:nonzero;display:inline;overflow:visible;visibility:visible;opacity:1;isolation:auto;mix-blend-mode:normal;color-interpolation:sRGB;color-interpolation-filters:linearRGB;solid-color:#000000;solid-opacity:1;fill:#3a3a3a;fill-opacity:0.40331492;fill-rule:nonzero;stroke:none;stroke-width:0.5;stroke-linecap:butt;stroke-linejoin:miter;stroke-miterlimit:4;stroke-dasharray:none;stroke-dashoffset:0;stroke-opacity:1;marker:none;marker-start:none;marker-mid:none;marker-end:none;color-rendering:auto;image-rendering:auto;shape-rendering:auto;text-rendering:auto;enable-background:accumulate"
       d="M 42.710938 26.716797 A 14.237288 14.237288 0 0 0 28.474609 40.953125 A 28.977978 14.237288 0 0 0 42.710938 42.800781 A 28.977978 14.237288 0 0 0 56.949219 40.943359 A 14.237288 14.237288 0 0 0 42.710938 26.716797 z "
       transform="translate(0,7.8598104)"
       id="circle3350" />
    <circle
       style="color:#000000;clip-rule:nonzero;display:inline;overflow:visible;visibility:visible;opacity:1;isolation:auto;mix-blend-mode:normal;color-interpolation:sRGB;color-interpolation-filters:linearRGB;solid-color:#000000;solid-opacity:1;fill:#ffffff;fill-opacity:0.2044199;fill-rule:nonzero;stroke:none;stroke-width:20;stroke-linecap:butt;stroke-linejoin:miter;stroke-miterlimit:4;stroke-dasharray:none;stroke-dashoffset:0;stroke-opacity:1;marker:none;marker-start:none;marker-mid:none;marker-end:none;color-rendering:auto;image-rendering:auto;shape-rendering:auto;text-rendering:auto;enable-background:accumulate"
       id="path4155"
       cx="46.251579"
       cy="42.327835"
       r="3.3113141" />
  </g>
  <use
     x="0"
     y="0"
     inkscape:tiled-clone-of="#g4306"
     xlink:href="#g4306"
     transform="translate(0,99.661019)"
     id="use4339"
     width="100%"
     height="100%" />
  <use
     x="0"
     y="0"
     inkscape:tiled-clone-of="#g4306"
     xlink:href="#g4306"
     transform="translate(0,199.32204)"
     id="use4341"
     width="100%"
     height="100%" />
  <use
     x="0"
     y="0"
     inkscape:tiled-clone-of="#g4306"
     xlink:href="#g4306"
     transform="translate(0,298.98306)"
     id="use4343"
     width="100%"
     height="100%" />
  <use
     x="0"
     y="0"
     inkscape:tiled-clone-of="#g4306"
     xlink:href="#g4306"
     transform="translate(0,398.64408)"
     id="use4345"
     width="100%"
     height="100%" />
  <path
     id="path4676"
     d="m 90.651149,0 0,480 6.10156,0 0,-480 -6.10156,0 z"
     style="color:#000000;clip-rule:nonzero;display:inline;overflow:visible;visibility:visible;opacity:1;isolation:auto;mix-blend-mode:normal;color-interpolation:sRGB;color-interpolation-filters:linearRGB;solid-color:#000000;solid-opacity:1;fill:#72402f;fill-opacity:1;fill-rule:nonzero;stroke:none;stroke-width:0.5;stroke-linecap:butt;stroke-linejoin:miter;stroke-miterlimit:4;stroke-dasharray:none;stroke-dashoffset:0;stroke-opacity:1;marker:none;marker-start:none;marker-mid:none;marker-end:none;color-rendering:auto;image-rendering:auto;shape-rendering:auto;text-rendering:auto;enable-background:accumulate"
     inkscape:connector-curvature="0" />
  <path
     style="color:#000000;clip-rule:nonzero;display:inline;overflow:visible;visibility:visible;opacity:1;isolation:auto;mix-blend-mode:normal;color-interpolation:sRGB;color-interpolation-filters:linearRGB;solid-color:#000000;solid-opacity:1;fill:#3a362c;fill-opacity:1;fill-rule:nonzero;stroke:none;stroke-width:0.5;stroke-linecap:butt;stroke-linejoin:miter;stroke-miterlimit:4;stroke-dasharray:none;stroke-dashoffset:0;stroke-opacity:1;marker:none;marker-start:none;marker-mid:none;marker-end:none;color-rendering:auto;image-rendering:auto;shape-rendering:auto;text-rendering:auto;enable-background:accumulate"
     d="M 95.59375 0 L 95.59375 480 L 101.69531 480 L 101.69531 0 L 95.59375 0 z "
     id="rect4302" />
  <rect
     style="color:#000000;clip-rule:nonzero;display:inline;overflow:visible;visibility:visible;opacity:1;isolation:auto;mix-blend-mode:normal;color-interpolation:sRGB;color-interpolation-filters:linearRGB;solid-color:#000000;solid-opacity:1;fill:#f4e8c2;fill-opacity:1;fill-rule:nonzero;stroke:#ffffff;stroke-width:7.5;stroke-linecap:butt;stroke-linejoin:miter;stroke-miterlimit:4;stroke-dasharray:none;stroke-dashoffset:0;stroke-opacity:1;marker:none;marker-start:none;marker-mid:none;marker-end:none;color-rendering:auto;image-rendering:auto;shape-rendering:auto;text-rendering:auto;enable-background:accumulate"
     id="rect4354"
     width="430.81134"
     height="174.66324"
     x="164.53331"
     y="27.195042"
     rx="28.476574"
     ry="28.476574" />
  <path
     style="color:#000000;clip-rule:nonzero;display:inline;overflow:visible;visibility:visible;opacity:1;isolation:auto;mix-blend-mode:normal;color-interpolation:sRGB;color-interpolation-filters:linearRGB;solid-color:#000000;solid-opacity:1;fill:#ffffff;fill-opacity:1;fill-rule:nonzero;stroke:none;stroke-width:7.5;stroke-linecap:butt;stroke-linejoin:miter;stroke-miterlimit:4;stroke-dasharray:none;stroke-dashoffset:0;stroke-opacity:1;marker:none;marker-start:none;marker-mid:none;marker-end:none;color-rendering:auto;image-rendering:auto;shape-rendering:auto;text-rendering:auto;enable-background:accumulate"
     d="M 183.99805 28.648438 C 180.98978 29.645345 178.20701 31.124774 175.74219 33.001953 L 584.13672 33.001953 C 581.67212 31.124909 578.88882 29.645374 575.88086 28.648438 L 183.99805 28.648438 z M 168.17188 41.708984 C 167.39517 43.092514 166.72758 44.546737 166.1875 46.0625 L 593.69141 46.0625 C 593.15136 44.546801 592.48369 43.092463 591.70703 41.708984 L 168.17188 41.708984 z M 164.55664 54.769531 C 164.54737 55.069686 164.5332 55.369391 164.5332 55.671875 L 164.5332 59.123047 L 595.34375 59.123047 L 595.34375 55.671875 C 595.34375 55.369397 595.33154 55.06968 595.32227 54.769531 L 164.55664 54.769531 z M 164.5332 67.830078 L 164.5332 72.183594 L 595.34375 72.183594 L 595.34375 67.830078 L 164.5332 67.830078 z M 164.5332 80.890625 L 164.5332 85.244141 L 595.34375 85.244141 L 595.34375 80.890625 L 164.5332 80.890625 z M 164.5332 93.951172 L 164.5332 98.304688 L 595.34375 98.304688 L 595.34375 93.951172 L 164.5332 93.951172 z M 164.5332 107.01172 L 164.5332 111.36523 L 595.34375 111.36523 L 595.34375 107.01172 L 164.5332 107.01172 z M 164.5332 120.07227 L 164.5332 124.42578 L 595.34375 124.42578 L 595.34375 120.07227 L 164.5332 120.07227 z M 164.5332 133.13281 L 164.5332 137.48633 L 595.34375 137.48633 L 595.34375 133.13281 L 164.5332 133.13281 z M 164.5332 146.19336 L 164.5332 150.54688 L 595.34375 150.54688 L 595.34375 146.19336 L 164.5332 146.19336 z M 164.5332 159.25391 L 164.5332 163.60742 L 595.34375 163.60742 L 595.34375 159.25391 L 164.5332 159.25391 z M 164.5332 172.31445 L 164.5332 173.38086 C 164.5332 174.49351 164.60359 175.58929 164.72656 176.66797 L 595.15039 176.66797 C 595.27336 175.58929 595.34375 174.49351 595.34375 173.38086 L 595.34375 172.31445 L 164.5332 172.31445 z M 167.16602 185.375 C 167.87434 186.90548 168.71256 188.36116 169.66992 189.72852 L 590.20703 189.72852 C 591.16444 188.3611 592.00455 186.90556 592.71289 185.375 L 167.16602 185.375 z M 179.42188 198.43555 C 183.45567 200.61981 188.08288 201.85742 193.00977 201.85742 L 566.86719 201.85742 C 571.79407 201.85742 576.42129 200.61981 580.45508 198.43555 L 179.42188 198.43555 z "
     id="use5260" />
  <g
     style="display:inline"
     id="g4516"
     transform="matrix(2.9595999,0.51343031,-0.51343031,2.9595999,131.67318,152.06013)">
    <path
       style="display:inline;overflow:visible;visibility:visible;fill:none;stroke:#ffffff;stroke-width:15;stroke-miterlimit:4;stroke-dasharray:none;stroke-opacity:1;marker:none;enable-background:accumulate"
       d="m 231.35352,314.86719 -43.55664,21.77734 0,11.94141 -28.32618,14.16211 0,17.40039 c -0.90241,0.42779 -1.78528,0.92791 -2.70312,1.2832 -3.12396,1.38175 -5.76647,2.79282 -8.74024,4.14453 -1.68213,0.81103 -3.48388,1.53272 -5.16601,2.34375 -2.82358,2.04259 -2.40297,6.0983 -1.11133,8.92188 1.5019,3.75475 4.47457,6.69724 7.95898,8.43945 6.12777,2.88365 12.40673,6.03808 18.32422,9.40234 3.33423,2.04259 7.77845,3.72423 11.53321,1.68164 5.47244,-2.66459 11.07181,-5.08543 16.32226,-7.62304 l 7.13867,3.56836 7.67578,-3.83789 16.53516,8.22265 c 0.24031,-0.12015 3.48384,-2.04195 3.66406,-2.16211 l 0,-16.16015 8.57618,-4.28907 16.5957,8.25391 c 0.2403,-0.12015 3.48383,-2.04196 3.66406,-2.16211 l 0,-21.02734 -2.04297,-1.02539 c 0.81069,-2.21174 0.76568,-4.81702 0.18164,-7.02539 -1.7422,-6.66845 -7.06027,-12.646 -13.8789,-14.32813 -2.37301,-0.60076 -5.10571,-0.89951 -7.62891,-1.41015 -0.089,-0.0149 -0.17855,-0.0338 -0.26758,-0.0488 l 18.16992,-9.08399 0,-19.91406 -22.91796,-11.44531 z"
       transform="matrix(0.33291114,0,0,0.33291114,-43.74986,-97.162791)"
       id="path4648"
       inkscape:connector-curvature="0" />
    <path
       inkscape:connector-curvature="0"
       d="m 29.73,20.24 c -0.68,0.03 -1.26,0.47 -1.88,0.72 -1.04,0.45 -1.91,0.92 -2.91,1.36 -0.56,0.27 -1.16,0.51 -1.71,0.78 -0.94,0.68 -0.81,2.04 -0.38,2.97 0.51,1.25 1.49,2.23 2.66,2.81 2.03,0.96 4.12,2.01 6.09,3.13 1.12,0.68 2.6,1.24 3.84,0.56 1.88,-0.93 3.85,-1.75 5.69,-2.66 1.13,-0.75 1.29,-2.32 0.97,-3.53 -0.58,-2.22 -2.35,-4.21 -4.62,-4.77 -0.79,-0.2 -1.7,-0.3 -2.54,-0.47 -1.73,-0.29 -3.47,-0.66 -5.21,-0.9 l 0,0 z"
       id="p3881-2"
       style="display:inline;overflow:visible;visibility:visible;fill:#ffc453;fill-opacity:1;fill-rule:nonzero;stroke:none;marker:none;enable-background:accumulate" />
    <path
       inkscape:connector-curvature="0"
       d="M 30.53,24.13 36,21.55"
       id="p4082-6"
       style="display:inline;fill:none;stroke:#975e29;stroke-width:0.5;stroke-linecap:round;stroke-linejoin:miter;stroke-miterlimit:4;stroke-dasharray:none;stroke-opacity:1" />
    <path
       inkscape:connector-curvature="0"
       d="m 40.97,24.04 -6.13,2.91 c 0,0 -2.66,2.16 -5.03,4.09 0.6,0.32 1.21,0.64 1.78,0.97 1.12,0.68 2.6,1.24 3.85,0.56 0.81,-0.38 1.63,-0.76 2.44,-1.16 0.03,-0.01 0.06,-0.02 0.09,-0.03 0.08,-0.04 0.17,-0.08 0.25,-0.12 0.04,-0.02 0.09,-0.01 0.12,-0.03 0.93,-0.43 1.87,-0.87 2.79,-1.32 1.12,-0.75 1.28,-2.32 0.96,-3.53 -0.21,-0.83 -0.6,-1.63 -1.12,-2.34 l 0,0 z"
       id="p4122-0"
       style="display:inline;overflow:visible;visibility:visible;fill:#df9e1f;fill-opacity:1;fill-rule:nonzero;stroke:none;marker:none;enable-background:accumulate" />
    <path
       inkscape:connector-curvature="0"
       d="m 42.13,26.48 -11.47,5.03 c 0.31,0.17 0.63,0.33 0.93,0.5 1.12,0.68 2.6,1.24 3.85,0.56 0.81,-0.38 1.63,-0.76 2.44,-1.16 0.03,-0.01 0.06,-0.02 0.09,-0.03 0.08,-0.04 0.17,-0.08 0.25,-0.12 0.04,-0.02 0.09,-0.01 0.12,-0.03 0.93,-0.43 1.87,-0.87 2.79,-1.32 1.09,-0.73 1.28,-2.24 1,-3.43 l 0,0 z"
       id="p4239-2"
       style="display:inline;fill:#b77711;fill-opacity:1;stroke:none" />
    <path
       inkscape:connector-curvature="0"
       d="m 33.66,25.23 5.79,-2.6"
       id="p4080-7"
       style="display:inline;fill:none;stroke:#975e29;stroke-width:0.60000002;stroke-linecap:round;stroke-linejoin:miter;stroke-miterlimit:4;stroke-dasharray:none;stroke-opacity:1" />
    <path
       inkscape:connector-curvature="0"
       d="M 36.11,28.23 41.67,25.6"
       id="p4078-2-1"
       style="display:inline;fill:none;stroke:#f1c057;stroke-width:0.69;stroke-linecap:butt;stroke-linejoin:miter;stroke-miterlimit:4;stroke-dasharray:none;stroke-opacity:1" />
    <path
       inkscape:connector-curvature="0"
       d="m 35.88,27.85 5.56,-2.62"
       id="p4078-5"
       style="display:inline;fill:none;stroke:#975e29;stroke-width:0.69;stroke-linecap:butt;stroke-linejoin:miter;stroke-miterlimit:4;stroke-dasharray:none;stroke-opacity:1" />
    <path
       inkscape:connector-curvature="0"
       d="M 36.27,31.04 42,28.39"
       id="p4076-6-9"
       style="display:inline;fill:none;stroke:#d6bb68;stroke-width:0.60000002;stroke-linecap:round;stroke-linejoin:miter;stroke-miterlimit:4;stroke-dasharray:none;stroke-opacity:1" />
    <path
       inkscape:connector-curvature="0"
       d="m 36.25,30.59 5.72,-2.66"
       id="p4076-7"
       style="display:inline;fill:none;stroke:#975e29;stroke-width:0.60000002;stroke-linecap:round;stroke-linejoin:miter;stroke-miterlimit:4;stroke-dasharray:none;stroke-opacity:1" />
    <path
       inkscape:connector-curvature="0"
       d="m 29.73,20.24 c -0.68,0.03 -1.26,0.47 -1.88,0.72 -1.04,0.45 -1.91,0.92 -2.91,1.36 -0.56,0.27 -1.16,0.51 -1.71,0.78 -0.94,0.68 -0.81,2.04 -0.38,2.97 0.51,1.25 1.49,2.23 2.66,2.81 2.03,0.96 4.12,2.01 6.09,3.13 1.12,0.68 2.6,1.24 3.84,0.56 1.92,-0.93 3.87,-1.77 5.69,-2.66 1.13,-0.75 1.29,-2.32 0.97,-3.53 -0.58,-2.22 -2.35,-4.21 -4.62,-4.77 -0.79,-0.2 -1.7,-0.3 -2.54,-0.47 -1.73,-0.29 -3.47,-0.66 -5.21,-0.9 l 0,0 z"
       id="p3881-6-0"
       style="display:inline;overflow:visible;visibility:visible;fill:none;stroke:#2c1b06;stroke-width:0.69;stroke-miterlimit:4;stroke-dasharray:none;stroke-opacity:1;marker:none;enable-background:accumulate" />
    <path
       inkscape:connector-curvature="0"
       d="M 23.84,16.35 9.34,23.6 c 0,3.27 0,6.27 0,9.25 l 14.5,7.25 14.5,-7.25 c 0,-3.03 0,-6.76 0,-9.25 l -14.5,-7.25 z"
       id="p2993-7"
       style="display:inline;fill:#0000ff;fill-opacity:1;stroke:none" />
    <path
       inkscape:connector-curvature="0"
       d="m 14.27,21.14 -4.93,2.47 0,9.25 14.43,7.21 0,-11.12 -9.5,-7.81 0,0 z"
       id="p4502"
       style="fill:#000094;fill-opacity:1;stroke:none" />
    <path
       inkscape:connector-curvature="0"
       d="m 23.84,30.85 -14.5,-7.25 14.5,-7.25 14.5,7.25 -14.5,7.25 z"
       id="p2993-7-9"
       style="display:inline;fill:#5363ff;fill-opacity:1;stroke:none" />
    <path
       inkscape:connector-curvature="0"
       d="m 23.77,31 0,8.94"
       id="p3111"
       style="fill:none;stroke:#2559b9;stroke-width:1.5;stroke-linecap:butt;stroke-linejoin:miter;stroke-miterlimit:4;stroke-dasharray:none;stroke-opacity:1" />
    <path
       inkscape:connector-curvature="0"
       d="m 21.43,17.56 -8.56,4.25 6.47,3.25 8.56,-4.28 -6.47,-3.22 z"
       id="p2993-7-9-7"
       style="display:inline;fill:none;stroke:#21365d;stroke-width:0.40000001;stroke-miterlimit:4;stroke-dasharray:none;stroke-opacity:1" />
    <path
       inkscape:connector-curvature="0"
       d="M 38.34,23.6 23.84,30.85 9.34,23.6"
       id="p2993-7-9-4"
       style="display:inline;fill:none;stroke:#859eef;stroke-linejoin:bevel;stroke-opacity:1" />
    <path
       inkscape:connector-curvature="0"
       d="m 11.81,29.81 0,-2.94 5.04,2.51 0,2.43"
       id="p4705"
       style="fill:none;stroke:#2f46ab;stroke-width:0.30000001;stroke-linecap:butt;stroke-linejoin:bevel;stroke-miterlimit:4;stroke-dasharray:none;stroke-opacity:1" />
    <path
       inkscape:connector-curvature="0"
       d="M 23.84,16.35 9.34,23.6 c 0,3.27 0,6.27 0,9.25 l 14.5,7.25 14.5,-7.25 c 0,-3.03 0,-6.76 0,-9.25 l -14.5,-7.25 z"
       id="p2993-7-3"
       style="display:inline;fill:none;stroke:#00003c;stroke-opacity:1" />
    <path
       inkscape:connector-curvature="0"
       d="m 29.46,18.54 c -1.73,-0.08 -3.81,0.79 -4.94,2.12 -1,1.18 -1.19,2.28 -0.75,3.03 -0.35,1.67 -0.06,3.01 1.75,3.41 1.84,0.4 4.37,-0.51 5.66,-2.03 1,-1.18 0.95,-2.12 0.84,-3.11 C 31.96,20.13 32,19.03 30.18,18.63 29.95,18.58 29.71,18.55 29.46,18.54 l 0,0 z"
       id="p4109"
       style="display:inline;overflow:visible;visibility:visible;fill:#00003c;fill-opacity:1;fill-rule:nonzero;stroke:#00003c;stroke-width:0.60000002;stroke-linecap:round;stroke-linejoin:miter;stroke-miterlimit:4;stroke-dasharray:none;stroke-dashoffset:0;stroke-opacity:1;marker:none;enable-background:accumulate" />
    <path
       inkscape:connector-curvature="0"
       d="m 33.27,7.66 -14.5,7.25 c 0,2.68 0,5.28 0,6.63 l 7.63,3.81 14.5,-7.25 c 0,-2.25 0,-4.96 0,-6.63 L 33.27,7.66 Z"
       id="p2993-7-9-8"
       style="display:inline;fill:#0000ff;fill-opacity:1;stroke:none" />
    <path
       inkscape:connector-curvature="0"
       d="m 39.77,12.88 -12.5,6.25 0,4.34 12.5,-6.25 0,-4.34 z"
       id="p2993-7-9-8-8-5"
       style="display:inline;fill:#5363ff;fill-opacity:1;stroke:none" />
    <path
       inkscape:connector-curvature="0"
       d="m 22.06,13.25 -3.29,1.66 0,6.63 7.6,3.81 0,-8.06 0.09,-0.32 -4.4,-3.72 z"
       id="p4170"
       style="fill:#000094;fill-opacity:1;stroke:none" />
    <path
       inkscape:connector-curvature="0"
       d="m 26.36,18.74 0,6.24"
       id="p5148"
       style="display:inline;overflow:visible;visibility:visible;fill:none;stroke:#2559b9;stroke-width:0.5;stroke-linecap:butt;stroke-linejoin:miter;stroke-miterlimit:4;stroke-dasharray:none;stroke-dashoffset:0;stroke-opacity:1;marker:none;enable-background:accumulate" />
    <path
       inkscape:connector-curvature="0"
       d="m 33.27,7.66 -14.5,7.25 7.63,3.81 14.5,-7.25 -7.63,-3.81 z"
       id="p2993-7-9-8-8"
       style="display:inline;fill:#5363ff;fill-opacity:1;stroke:none" />
    <path
       inkscape:connector-curvature="0"
       d="m 18.77,14.91 7.63,3.81 14.5,-7.25"
       id="p2993-7-9-8-8-57"
       style="display:inline;overflow:visible;visibility:visible;fill:none;stroke:#859eef;stroke-width:0.5;stroke-linecap:butt;stroke-linejoin:bevel;stroke-miterlimit:4;stroke-dasharray:none;stroke-dashoffset:0;stroke-opacity:1;marker:none;enable-background:accumulate" />
    <path
       inkscape:connector-curvature="0"
       d="m 33.27,7.66 -14.5,7.25 c 0,2.68 0,5.28 0,6.63 l 7.63,3.81 14.5,-7.25 c 0,-2.25 0,-4.96 0,-6.63 L 33.27,7.66 Z"
       id="p2993-7-9-8-2"
       style="display:inline;overflow:visible;visibility:visible;fill:none;stroke:#00003c;stroke-width:1;stroke-linecap:butt;stroke-linejoin:miter;stroke-miterlimit:4;stroke-dasharray:none;stroke-dashoffset:0;stroke-opacity:1;marker:none;enable-background:accumulate" />
    <path
       inkscape:connector-curvature="0"
       d="m 39.77,12.88 -4.28,2.16 4.28,2.12 0,-4.28 z"
       id="p2993-7-9-8-8-5-5"
       style="display:inline;fill:#000094;fill-opacity:1;stroke:none" />
    <path
       inkscape:connector-curvature="0"
       d="m 27.28,31.43 8.51,-4.24"
       id="p5229-8"
       style="display:inline;fill:none;stroke:#5353ff;stroke-width:0.5;stroke-linecap:butt;stroke-linejoin:miter;stroke-miterlimit:4;stroke-dasharray:none;stroke-opacity:1" />
    <path
       inkscape:connector-curvature="0"
       d="m 26.96,30.75 c -0.04,0.03 -1.14,0.67 -1.21,0.72 l 0,7 6.15,3.09 c 0.08,-0.04 1.16,-0.68 1.22,-0.72 l 0,-7 -6.16,-3.09 z"
       id="p4502-0-2"
       style="display:inline;fill:#5363ff;fill-opacity:1;stroke:none" />
    <path
       inkscape:connector-curvature="0"
       d="m 33.12,33.94 -7.37,4.25 0,0.28 6.15,3.09 c 0.08,-0.04 1.16,-0.68 1.22,-0.72 l 0,-6.9 z"
       id="p4925"
       style="display:inline;overflow:visible;visibility:visible;fill:#0000ff;fill-opacity:1;fill-rule:nonzero;stroke:none;marker:none;enable-background:accumulate" />
    <path
       inkscape:connector-curvature="0"
       d="m 25.75,31.47 0,7 6.15,3.09 0,-7 -6.15,-3.09 z"
       id="p4502-0"
       style="display:inline;fill:#000094;fill-opacity:1;stroke:none" />
    <path
       inkscape:connector-curvature="0"
       d="m 27.4,30.97 8.51,-4.24"
       id="p5229"
       style="fill:none;stroke:#0f0e3a;stroke-width:0.5;stroke-linecap:butt;stroke-linejoin:miter;stroke-miterlimit:4;stroke-dasharray:none;stroke-opacity:1" />
    <path
       inkscape:connector-curvature="0"
       d="m 26.17,38.71 5.73,2.85 c 0.08,-0.04 1.16,-0.68 1.22,-0.72 l 0,-7 -6.16,-3.09"
       id="p4502-0-2-0"
       style="display:inline;fill:none;stroke:#00003c;stroke-width:0.60000002;stroke-linecap:round;stroke-miterlimit:4;stroke-dasharray:none;stroke-opacity:1" />
    <path
       inkscape:connector-curvature="0"
       d="m 36.57,25.97 c -0.05,0.03 -1.15,0.67 -1.22,0.72 l 0,7 6.15,3.09 c 0.08,-0.04 1.16,-0.68 1.22,-0.72 l 0,-7 -6.15,-3.09 z"
       id="p4502-0-2-4"
       style="display:inline;fill:#5363ff;fill-opacity:1;stroke:none" />
    <path
       inkscape:connector-curvature="0"
       d="m 42.72,29.16 -7.37,4.25 0,0.28 6.15,3.09 c 0.08,-0.04 1.16,-0.68 1.22,-0.72 l 0,-6.9 z"
       id="p4925-0"
       style="display:inline;overflow:visible;visibility:visible;fill:#0000ff;fill-opacity:1;fill-rule:nonzero;stroke:none;marker:none;enable-background:accumulate" />
    <path
       inkscape:connector-curvature="0"
       d="m 35.35,26.69 0,7 6.15,3.09 0,-7 -6.15,-3.09 0,0 z"
       id="p4502-0-1"
       style="display:inline;fill:#000094;fill-opacity:1;stroke:none" />
    <path
       inkscape:connector-curvature="0"
       d="m 35.77,33.93 5.73,2.85 c 0.08,-0.04 1.16,-0.68 1.22,-0.72 l 0,-7 -6.15,-3.09"
       id="p4502-0-2-0-9"
       style="display:inline;fill:none;stroke:#00003c;stroke-width:0.60000002;stroke-linecap:round;stroke-miterlimit:4;stroke-dasharray:none;stroke-opacity:1" />
    <path
       inkscape:connector-curvature="0"
       d="m 39.28,13.12 -12,6 0,3.78 12,-6 0,-3.78 z"
       id="p2993-7-9-8-8-5-9"
       style="display:inline;fill:#1a1a1a;fill-opacity:1;stroke:none" />
    <path
       inkscape:connector-curvature="0"
       d="m 10.31,29.11 c -0.68,0.03 -1.25,0.47 -1.87,0.71 -1.04,0.46 -1.92,0.93 -2.91,1.38 -0.56,0.27 -1.16,0.51 -1.72,0.78 -0.94,0.68 -0.8,2.03 -0.37,2.97 0.5,1.25 1.49,2.23 2.65,2.81 2.04,0.96 4.13,2.01 6.1,3.13 1.11,0.68 2.59,1.24 3.84,0.56 1.88,-0.93 3.85,-1.75 5.69,-2.66 1.12,-0.75 1.29,-2.32 0.97,-3.53 -0.59,-2.22 -2.35,-4.22 -4.63,-4.78 -0.79,-0.2 -1.69,-0.3 -2.53,-0.47 -1.74,-0.29 -3.48,-0.66 -5.22,-0.9 l 0,0 z"
       id="p3881"
       style="display:inline;overflow:visible;visibility:visible;fill:#ffc453;fill-opacity:1;fill-rule:nonzero;stroke:none;marker:none;enable-background:accumulate" />
    <path
       inkscape:connector-curvature="0"
       d="m 7.8,32.45 5.77,-2.73"
       id="p4084"
       style="fill:none;stroke:#975e29;stroke-width:0.40000001;stroke-linecap:butt;stroke-linejoin:miter;stroke-miterlimit:4;stroke-dasharray:none;stroke-opacity:1" />
    <path
       inkscape:connector-curvature="0"
       d="m 5.38,31.96 5.86,-2.73"
       id="p4084-9"
       style="display:inline;fill:none;stroke:#975e29;stroke-width:0.40000001;stroke-linecap:round;stroke-linejoin:miter;stroke-miterlimit:4;stroke-dasharray:none;stroke-opacity:1" />
    <path
       inkscape:connector-curvature="0"
       d="m 11.12,33.01 5.47,-2.59"
       id="p4082"
       style="fill:none;stroke:#975e29;stroke-width:0.5;stroke-linecap:round;stroke-linejoin:miter;stroke-miterlimit:4;stroke-dasharray:none;stroke-opacity:1" />
    <path
       inkscape:connector-curvature="0"
       d="m 21.56,32.92 -6.13,2.9 c 0,0 -2.66,2.17 -5.03,4.1 0.6,0.32 1.2,0.64 1.78,0.97 1.12,0.68 2.6,1.24 3.84,0.56 0.81,-0.38 1.63,-0.76 2.44,-1.16 0.03,-0.01 0.06,-0.02 0.1,-0.03 0.08,-0.04 0.16,-0.08 0.25,-0.12 0.04,-0.02 0.08,-0.01 0.12,-0.03 0.92,-0.43 1.86,-0.87 2.78,-1.32 1.12,-0.75 1.29,-2.32 0.97,-3.53 -0.22,-0.83 -0.61,-1.63 -1.12,-2.34 z"
       id="p4122"
       style="display:inline;overflow:visible;visibility:visible;fill:#df9e1f;fill-opacity:1;fill-rule:nonzero;stroke:none;marker:none;enable-background:accumulate" />
    <path
       inkscape:connector-curvature="0"
       d="m 22.71,35.36 -11.47,5.03 c 0.32,0.17 0.64,0.33 0.94,0.5 1.12,0.68 2.6,1.24 3.84,0.56 0.81,-0.38 1.63,-0.76 2.44,-1.16 0.03,-0.01 0.06,-0.02 0.1,-0.03 0.08,-0.04 0.16,-0.08 0.25,-0.12 0.04,-0.02 0.08,-0.01 0.12,-0.03 0.92,-0.43 1.86,-0.87 2.78,-1.32 1.1,-0.73 1.29,-2.24 1,-3.43 z"
       id="p4239"
       style="fill:#b77711;fill-opacity:1;stroke:none" />
    <path
       inkscape:connector-curvature="0"
       d="m 14.25,34.11 5.79,-2.6"
       id="p4080"
       style="fill:none;stroke:#975e29;stroke-width:0.60000002;stroke-linecap:round;stroke-linejoin:miter;stroke-miterlimit:4;stroke-dasharray:none;stroke-opacity:1" />
    <path
       inkscape:connector-curvature="0"
       d="m 16.7,37.11 5.56,-2.63"
       id="p4078-2"
       style="display:inline;fill:none;stroke:#f1c057;stroke-width:0.69;stroke-linecap:butt;stroke-linejoin:miter;stroke-miterlimit:4;stroke-dasharray:none;stroke-opacity:1" />
    <path
       inkscape:connector-curvature="0"
       d="m 16.47,36.73 5.56,-2.62"
       id="p4078"
       style="fill:none;stroke:#975e29;stroke-width:0.69;stroke-linecap:butt;stroke-linejoin:miter;stroke-miterlimit:4;stroke-dasharray:none;stroke-opacity:1" />
    <path
       inkscape:connector-curvature="0"
       d="m 16.86,39.92 5.73,-2.65"
       id="p4076-6"
       style="display:inline;fill:none;stroke:#d6bb68;stroke-width:0.60000002;stroke-linecap:round;stroke-linejoin:miter;stroke-miterlimit:4;stroke-dasharray:none;stroke-opacity:1" />
    <path
       inkscape:connector-curvature="0"
       d="m 16.83,39.47 5.73,-2.66"
       id="p4076"
       style="fill:none;stroke:#975e29;stroke-width:0.60000002;stroke-linecap:round;stroke-linejoin:miter;stroke-miterlimit:4;stroke-dasharray:none;stroke-opacity:1" />
    <path
       inkscape:connector-curvature="0"
       d="m 4.75,31.68 c -0.32,0 -0.61,0.09 -0.87,0.25 -1.04,0.65 -1.01,2.37 0.03,3.84 0.56,0.8 1.15,1.42 1.82,1.79 l 6.34,3.25 c 0.27,0.19 0.56,0.33 0.84,0.46 1.15,0.56 2.31,0.67 3.19,0.13 1.57,-0.98 1.55,-3.58 -0.03,-5.81 -1.01,-1.42 -2.41,-2.33 -3.69,-2.57 l 0,-0.03 c -0.26,-0.02 -7.24,-1.29 -7.5,-1.31 -0.02,0 -0.04,0 -0.06,0 -0.02,0 -0.05,0 -0.07,0 l 0,0 z"
       id="p3881-5"
       style="display:inline;overflow:visible;visibility:visible;fill:#945b00;fill-opacity:1;fill-rule:nonzero;stroke:none;marker:none;enable-background:accumulate" />
    <path
       inkscape:connector-curvature="0"
       d="m 5.64,32.71 c -0.28,-0.01 -0.53,0.03 -0.77,0.13 -0.92,0.41 -1,1.66 -0.18,2.79 0.43,0.61 0.9,1.1 1.46,1.41 l 5.25,2.73 c 0.23,0.16 0.47,0.28 0.7,0.39 0.96,0.48 1.95,0.62 2.73,0.28 1.41,-0.61 1.53,-2.5 0.3,-4.21 -0.78,-1.09 -1.93,-1.83 -3.02,-2.08 l 0,-0.02 C 11.89,34.1 5.97,32.76 5.75,32.72 c -0.02,0 -0.04,0 -0.06,0 -0.01,0 -0.03,0 -0.05,-0.01 l 0,0 z"
       id="p3881-5-7"
       style="display:inline;overflow:visible;visibility:visible;fill:#39200b;fill-opacity:1;fill-rule:nonzero;stroke:none;marker:none;enable-background:accumulate" />
    <path
       inkscape:connector-curvature="0"
       d="m 6.41,32.89 c 0.02,0.45 0.21,0.92 0.56,1.4 0.44,0.61 0.91,1.1 1.47,1.41 l 5.25,2.75 c 0.22,0.16 0.45,0.26 0.68,0.37 0.5,0.25 1.02,0.43 1.5,0.47 0.28,-0.85 0.02,-1.99 -0.75,-3.06 -0.78,-1.09 -1.91,-1.84 -3,-2.09 -0.19,-0.03 -4.57,-1.01 -5.71,-1.25 l 0,0 z"
       id="p3881-5-7-4"
       style="display:inline;overflow:visible;visibility:visible;fill:#643c1c;fill-opacity:1;fill-rule:nonzero;stroke:none;marker:none;enable-background:accumulate" />
    <path
       inkscape:connector-curvature="0"
       d="m 10.31,29.11 c -0.68,0.03 -1.25,0.47 -1.87,0.71 -1.04,0.46 -1.92,0.93 -2.91,1.38 -0.56,0.27 -1.16,0.51 -1.72,0.78 -0.94,0.68 -0.8,2.03 -0.37,2.97 0.5,1.25 1.49,2.23 2.65,2.81 2.04,0.96 4.13,2.01 6.1,3.13 1.11,0.68 2.59,1.24 3.84,0.56 1.91,-0.93 3.87,-1.77 5.69,-2.66 1.12,-0.75 1.29,-2.32 0.97,-3.53 -0.59,-2.22 -2.35,-4.22 -4.63,-4.78 -0.79,-0.2 -1.69,-0.3 -2.53,-0.47 -1.74,-0.29 -3.48,-0.66 -5.22,-0.9 l 0,0 z"
       id="p3881-6"
       style="display:inline;overflow:visible;visibility:visible;fill:none;stroke:#2c1b06;stroke-width:0.69;stroke-miterlimit:4;stroke-dasharray:none;stroke-opacity:1;marker:none;enable-background:accumulate" />
    <path
       inkscape:connector-curvature="0"
       d="m 7.43,33.11 c -0.23,0.09 -0.52,0.24 -0.78,0.34 -0.59,0.36 -0.59,1.33 0,2.16 0.59,0.83 1.54,1.2 2.12,0.84 0.3,-0.13 0.53,-0.24 0.79,-0.34 0.58,-0.37 0.58,-1.33 0,-2.16 C 9.42,33.76 9.25,33.62 9.09,33.48 8.53,33.36 7.99,33.23 7.43,33.11 l 0,0 z"
       id="p3881-7-3-7"
       style="display:inline;overflow:visible;visibility:visible;fill:#707070;fill-opacity:1;fill-rule:nonzero;stroke:none;marker:none;enable-background:accumulate" />
    <path
       inkscape:connector-curvature="0"
       d="M 8.75,36.15 C 8.18,36.51 7.25,36.14 6.68,35.34 6.1,34.53 6.1,33.59 6.66,33.23 c 0.57,-0.35 1.5,0.01 2.08,0.82 0.57,0.8 0.58,1.74 0.01,2.1 l 0,0 z"
       id="p3881-7-3"
       style="display:inline;overflow:visible;visibility:visible;fill:#363636;fill-opacity:1;fill-rule:nonzero;stroke:none;marker:none;enable-background:accumulate" />
    <path
       inkscape:connector-curvature="0"
       d="m 12.99,34.45 c -0.09,0.03 -0.2,0.04 -0.28,0.09 -0.31,0.13 -0.68,0.34 -1.03,0.47 -0.79,0.49 -0.79,1.79 0,2.91 0.79,1.12 2.08,1.65 2.88,1.15 0.4,-0.17 0.68,-0.33 1.03,-0.46 0.14,-0.09 0.28,-0.21 0.37,-0.35 -0.07,-0.64 -0.36,-1.35 -0.84,-2.03 -0.57,-0.8 -1.33,-1.41 -2.13,-1.78 z"
       id="p3881-7-3-7-7"
       style="display:inline;overflow:visible;visibility:visible;fill:#707070;fill-opacity:1;fill-rule:nonzero;stroke:none;marker:none;enable-background:accumulate" />
    <path
       inkscape:connector-curvature="0"
       d="m 14.41,38.93 c -0.78,0.47 -2.04,-0.05 -2.82,-1.17 -0.78,-1.12 -0.77,-2.42 0.01,-2.89 0.78,-0.47 2.05,0.05 2.82,1.17 0.78,1.12 0.77,2.42 -0.01,2.89 l 0,0 z"
       id="p3881-7-3-8"
       style="display:inline;overflow:visible;visibility:visible;fill:#363636;fill-opacity:1;fill-rule:nonzero;stroke:none;marker:none;enable-background:accumulate" />
    <path
       inkscape:connector-curvature="0"
       d="m 7.43,33.11 c -0.23,0.09 -0.52,0.24 -0.78,0.34 -0.59,0.36 -0.59,1.33 0,2.16 0.59,0.83 1.54,1.2 2.12,0.84 0.3,-0.13 0.53,-0.24 0.79,-0.34 0.58,-0.37 0.58,-1.33 0,-2.16 C 9.42,33.76 9.25,33.62 9.09,33.48"
       id="p3881-7-3-7-9"
       style="display:inline;overflow:visible;visibility:visible;fill:none;stroke:#191919;stroke-width:0.30000001;stroke-miterlimit:4;stroke-dasharray:none;stroke-opacity:1;marker:none;enable-background:accumulate" />
    <path
       inkscape:connector-curvature="0"
       d="m 12.99,34.45 c -0.09,0.03 -0.2,0.04 -0.28,0.09 -0.31,0.13 -0.68,0.34 -1.03,0.47 -0.79,0.49 -0.79,1.79 0,2.91 0.79,1.12 2.08,1.65 2.88,1.15 0.4,-0.17 0.68,-0.33 1.03,-0.46 0.14,-0.09 0.28,-0.21 0.37,-0.35"
       id="p3881-7-3-7-7-7"
       style="display:inline;overflow:visible;visibility:visible;fill:none;stroke:#191919;stroke-width:0.30000001;stroke-miterlimit:4;stroke-dasharray:none;stroke-opacity:1;marker:none;enable-background:accumulate" />
    <path
       inkscape:connector-curvature="0"
       d="m 5.64,32.71 c -0.28,-0.01 -0.53,0.03 -0.77,0.13 -0.92,0.41 -1,1.66 -0.18,2.79 0.43,0.61 0.9,1.1 1.46,1.41 l 5.25,2.73 c 0.23,0.16 0.47,0.28 0.7,0.39 0.96,0.48 1.95,0.62 2.73,0.28 1.41,-0.61 1.53,-2.5 0.3,-4.21 -0.78,-1.09 -1.93,-1.83 -3.02,-2.08 -2.07,-0.48 -4.25,-0.98 -6.36,-1.43 -0.02,0 -0.04,0 -0.06,0 -0.01,0 -0.03,0 -0.05,-0.01 l 0,0 z"
       id="p3881-5-7-8"
       style="display:inline;overflow:visible;visibility:visible;fill:none;stroke:#2c1b06;stroke-width:0.30000001;stroke-miterlimit:4;stroke-dasharray:none;stroke-opacity:1;marker:none;enable-background:accumulate" />
    <path
       inkscape:connector-curvature="0"
       d="m 8.3,35.71 c -0.3,0.2 -0.81,0 -1.13,-0.46 -0.31,-0.46 -0.32,-1 -0.01,-1.21 0.31,-0.2 0.81,0.01 1.13,0.47 0.32,0.46 0.32,0.99 0.01,1.2 l 0,0 z"
       id="p3881-7-3-1"
       style="display:inline;overflow:visible;visibility:visible;fill:#535353;fill-opacity:1;fill-rule:nonzero;stroke:none;marker:none;enable-background:accumulate" />
    <path
       inkscape:connector-curvature="0"
       d="m 7.43,34.04 c -0.15,0.26 -0.11,0.66 0.16,1.03 0.24,0.35 0.57,0.56 0.87,0.57 0.01,0 0.02,0 0.03,0 C 8.63,35.38 8.56,34.94 8.31,34.57 8.07,34.24 7.72,34.06 7.43,34.04 l 0,0 z"
       id="p3881-7-3-1-6"
       style="display:inline;overflow:visible;visibility:visible;fill:#202020;fill-opacity:1;fill-rule:nonzero;stroke:none;marker:none;enable-background:accumulate" />
    <path
       style="display:inline;overflow:visible;visibility:visible;fill:#900000;fill-opacity:1;stroke:none;marker:none;enable-background:accumulate"
       id="p5068"
       d="m 39.28,14.47 -12,6.06 0,1.09 12,-6.06 0,-1.09 z"
       inkscape:connector-curvature="0" />
    <path
       style="fill:none;stroke:#ff0b0b;stroke-width:1.38;stroke-linecap:round;stroke-linejoin:miter;stroke-miterlimit:4;stroke-dasharray:none;stroke-opacity:1"
       id="p5093"
       d="m 35.24,17.1 2.85,-1.48"
       inkscape:connector-curvature="0" />
    <path
       style="display:inline;fill:none;stroke:#ff0b0b;stroke-width:1.38;stroke-linecap:round;stroke-linejoin:miter;stroke-miterlimit:4;stroke-dasharray:none;stroke-opacity:1"
       id="p5093-1"
       d="m 29.09,20.2 2.86,-1.47"
       inkscape:connector-curvature="0" />
  </g>
  <rect
     y="187.94543"
     x="317.96948"
     height="51.109505"
     width="248.03568"
     id="rect4377"
     style="color:#000000;clip-rule:nonzero;display:inline;overflow:visible;visibility:visible;opacity:1;isolation:auto;mix-blend-mode:normal;color-interpolation:sRGB;color-interpolation-filters:linearRGB;solid-color:#000000;solid-opacity:1;fill:#d3b44d;fill-opacity:1;fill-rule:nonzero;stroke:#ffffff;stroke-width:7.5;stroke-linecap:butt;stroke-linejoin:miter;stroke-miterlimit:4;stroke-dasharray:none;stroke-dashoffset:0;stroke-opacity:1;marker:none;marker-start:none;marker-mid:none;marker-end:none;color-rendering:auto;image-rendering:auto;shape-rendering:auto;text-rendering:auto;enable-background:accumulate" />
</svg>
