<?xml version="1.0" encoding="UTF-8" standalone="no"?>
<!-- Created with Inkscape (http://www.inkscape.org/) -->
<svg
   xmlns:dc="http://purl.org/dc/elements/1.1/"
   xmlns:cc="http://creativecommons.org/ns#"
   xmlns:rdf="http://www.w3.org/1999/02/22-rdf-syntax-ns#"
   xmlns:svg="http://www.w3.org/2000/svg"
   xmlns="http://www.w3.org/2000/svg"
   xmlns:xlink="http://www.w3.org/1999/xlink"
   xmlns:sodipodi="http://sodipodi.sourceforge.net/DTD/sodipodi-0.dtd"
   xmlns:inkscape="http://www.inkscape.org/namespaces/inkscape"
   version="1.0"
   width="100%"
   height="100%"
   viewBox="0 0 640 480"
   id="svg2"
   sodipodi:version="0.32"
   inkscape:version="0.46"
   sodipodi:docname="code.svg"
   inkscape:output_extension="org.inkscape.output.svg.inkscape">
  <metadata
     id="metadata60">
    <rdf:RDF>
      <cc:Work
         rdf:about="">
        <dc:format>image/svg+xml</dc:format>
        <dc:type
           rdf:resource="http://purl.org/dc/dcmitype/StillImage" />
      </cc:Work>
    </rdf:RDF>
  </metadata>
  <sodipodi:namedview
     inkscape:window-height="670"
     inkscape:window-width="672"
     inkscape:pageshadow="2"
     inkscape:pageopacity="0.0"
     guidetolerance="10.0"
     gridtolerance="10.0"
     objecttolerance="10.0"
     borderopacity="1.0"
     bordercolor="#666666"
     pagecolor="#ffffff"
     id="base"
     showgrid="false"
     inkscape:zoom="0.85625"
     inkscape:cx="331.5521"
     inkscape:cy="230.77945"
     inkscape:window-x="185"
     inkscape:window-y="200"
     inkscape:current-layer="svg2" />
  <defs
     id="defs4">
    <inkscape:perspective
       id="perspective329"
       inkscape:persp3d-origin="0.5 : 0.33333333 : 1"
       inkscape:vp_z="1 : 0.5 : 1"
       inkscape:vp_y="0 : 1000 : 0"
       inkscape:vp_x="0 : 0.5 : 1"
       sodipodi:type="inkscape:persp3d" />
  </defs>
  <g
     id="g5542"
     transform="translate(24.525547,58.394161)">
    <path
       id="path7824"
       d="M 74.891521,129.59009 C 66.367615,129.71929 58.520919,135.32969 55.985271,143.93384 C 52.864471,154.52356 58.926803,165.6568 69.516521,168.77759 C 69.837717,168.87225 70.163325,168.9497 70.485271,169.02759 L 70.485271,319.77759 C 68.150176,320.34059 65.889132,321.29602 63.797771,322.74634 C 54.725753,329.03761 52.443999,341.51806 58.735271,350.59009 C 65.026542,359.66211 77.507001,361.91262 86.579021,355.62134 C 90.764611,352.71871 93.465061,348.49488 94.579021,343.90259 L 562.26652,343.90259 C 563.87777,350.4975 568.75417,356.11404 575.70402,358.27759 C 586.24505,361.55909 597.485,355.66237 600.76652,345.12134 C 603.73601,335.58257 599.18699,325.51115 590.48527,321.24634 L 590.48527,167.52759 C 597.10344,164.26536 601.67278,157.46305 601.67277,149.59009 C 601.67277,138.55009 592.71279,129.59009 581.67277,129.59009 C 572.61219,129.59009 564.94066,135.63567 562.48527,143.90259 L 94.360271,143.90259 C 92.489161,137.63177 87.569587,132.38904 80.829021,130.40259 C 78.843448,129.81744 76.858576,129.56028 74.891521,129.59009 z"
       style="fill:none;fill-opacity:1;fill-rule:evenodd;stroke:#ffffff;stroke-width:10;stroke-linecap:round;stroke-linejoin:round;marker:none;marker-start:none;marker-mid:none;marker-end:none;stroke-miterlimit:4;stroke-dasharray:none;stroke-dashoffset:0;stroke-opacity:1;visibility:visible;display:inline;overflow:visible;enable-background:accumulate" />
    <path
       style="fill:#5b5b5b;fill-opacity:1;fill-rule:evenodd;stroke:#1e1e1e;stroke-width:1.5;stroke-linecap:round;stroke-linejoin:round;marker:none;marker-start:none;marker-mid:none;marker-end:none;stroke-miterlimit:4;stroke-dasharray:none;stroke-dashoffset:0;stroke-opacity:1;visibility:visible;display:inline;overflow:visible;enable-background:accumulate"
       d="M 74.891521,129.59009 C 66.367615,129.71929 58.520919,135.32969 55.985271,143.93384 C 52.864471,154.52356 58.926803,165.6568 69.516521,168.77759 C 69.837717,168.87225 70.163325,168.9497 70.485271,169.02759 L 70.485271,319.77759 C 68.150176,320.34059 65.889132,321.29602 63.797771,322.74634 C 54.725753,329.03761 52.443999,341.51806 58.735271,350.59009 C 65.026542,359.66211 77.507001,361.91262 86.579021,355.62134 C 90.764611,352.71871 93.465061,348.49488 94.579021,343.90259 L 562.26652,343.90259 C 563.87777,350.4975 568.75417,356.11404 575.70402,358.27759 C 586.24505,361.55909 597.485,355.66237 600.76652,345.12134 C 603.73601,335.58257 599.18699,325.51115 590.48527,321.24634 L 590.48527,167.52759 C 597.10344,164.26536 601.67278,157.46305 601.67277,149.59009 C 601.67277,138.55009 592.71279,129.59009 581.67277,129.59009 C 572.61219,129.59009 564.94066,135.63567 562.48527,143.90259 L 94.360271,143.90259 C 92.489161,137.63177 87.569587,132.38904 80.829021,130.40259 C 78.843448,129.81744 76.858576,129.56028 74.891521,129.59009 z"
       id="rect2397" />
    <path
       sodipodi:type="arc"
       style="fill:#666666;fill-opacity:1;fill-rule:evenodd;stroke:none;stroke-width:1.5;stroke-linecap:butt;stroke-linejoin:round;marker:none;marker-start:none;marker-mid:none;marker-end:none;stroke-miterlimit:4;stroke-dasharray:none;stroke-dashoffset:0;stroke-opacity:1;visibility:visible;display:inline;overflow:visible;enable-background:accumulate"
       id="path7741"
       sodipodi:cx="588.59576"
       sodipodi:cy="145.68794"
       sodipodi:rx="20"
       sodipodi:ry="20"
       d="M 608.59576,145.68794 A 20,20 0 1 1 568.59576,145.68794 A 20,20 0 1 1 608.59576,145.68794 z"
       transform="matrix(0.5885408,0,0,0.5885408,235.25003,63.847248)" />
    <path
       sodipodi:nodetypes="cc"
       id="path7745"
       d="M 569.81994,154.40599 L 593.84917,149.13932"
       style="fill:none;fill-rule:evenodd;stroke:#a1a1a1;stroke-width:2;stroke-linecap:butt;stroke-linejoin:miter;stroke-miterlimit:4;stroke-dasharray:none;stroke-opacity:1" />
    <path
       style="fill:none;fill-rule:evenodd;stroke:#1a1a1a;stroke-width:2;stroke-linecap:butt;stroke-linejoin:miter;stroke-miterlimit:4;stroke-dasharray:none;stroke-opacity:1"
       d="M 569.81994,152.76015 L 593.84917,147.49348"
       id="path7743"
       sodipodi:nodetypes="cc" />
    <path
       transform="matrix(0.5885408,0,0,0.5885408,235.25003,63.847248)"
       d="M 608.59576,145.68794 A 20,20 0 1 1 568.59576,145.68794 A 20,20 0 1 1 608.59576,145.68794 z"
       sodipodi:ry="20"
       sodipodi:rx="20"
       sodipodi:cy="145.68794"
       sodipodi:cx="588.59576"
       id="path7747"
       style="fill:none;fill-opacity:1;fill-rule:evenodd;stroke:#1a1a1a;stroke-width:3.39823508;stroke-linecap:butt;stroke-linejoin:miter;marker:none;marker-start:none;marker-mid:none;marker-end:none;stroke-miterlimit:4;stroke-dasharray:none;stroke-dashoffset:0;stroke-opacity:1;visibility:visible;display:inline;overflow:visible;enable-background:accumulate"
       sodipodi:type="arc" />
    <path
       transform="matrix(0.5619409,0.1749364,-0.1749364,0.5619409,276.39277,154.35616)"
       d="M 608.59576,145.68794 A 20,20 0 1 1 568.59576,145.68794 A 20,20 0 1 1 608.59576,145.68794 z"
       sodipodi:ry="20"
       sodipodi:rx="20"
       sodipodi:cy="145.68794"
       sodipodi:cx="588.59576"
       id="path7770"
       style="fill:#666666;fill-opacity:1;fill-rule:evenodd;stroke:none;stroke-width:1.5;stroke-linecap:butt;stroke-linejoin:round;marker:none;marker-start:none;marker-mid:none;marker-end:none;stroke-miterlimit:4;stroke-dasharray:none;stroke-dashoffset:0;stroke-opacity:1;visibility:visible;display:inline;overflow:visible;enable-background:accumulate"
       sodipodi:type="arc" />
    <path
       style="fill:none;fill-rule:evenodd;stroke:#a1a1a1;stroke-width:2;stroke-linecap:butt;stroke-linejoin:miter;stroke-miterlimit:4;stroke-dasharray:none;stroke-opacity:1"
       d="M 568.92387,340.2687 L 593.43252,342.38245"
       id="path7772"
       sodipodi:nodetypes="cc" />
    <path
       sodipodi:nodetypes="cc"
       id="path7774"
       d="M 569.41308,338.69725 L 593.92172,340.811"
       style="fill:none;fill-rule:evenodd;stroke:#1a1a1a;stroke-width:2;stroke-linecap:butt;stroke-linejoin:miter;stroke-miterlimit:4;stroke-dasharray:none;stroke-opacity:1" />
    <path
       sodipodi:type="arc"
       style="fill:none;fill-opacity:1;fill-rule:evenodd;stroke:#1a1a1a;stroke-width:3.39823508;stroke-linecap:butt;stroke-linejoin:miter;marker:none;marker-start:none;marker-mid:none;marker-end:none;stroke-miterlimit:4;stroke-dasharray:none;stroke-dashoffset:0;stroke-opacity:1;visibility:visible;display:inline;overflow:visible;enable-background:accumulate"
       id="path7776"
       sodipodi:cx="588.59576"
       sodipodi:cy="145.68794"
       sodipodi:rx="20"
       sodipodi:ry="20"
       d="M 608.59576,145.68794 A 20,20 0 1 1 568.59576,145.68794 A 20,20 0 1 1 608.59576,145.68794 z"
       transform="matrix(0.5619409,0.1749364,-0.1749364,0.5619409,276.39277,154.35616)" />
    <path
       transform="matrix(0.5645365,0.1663694,-0.1663694,0.5645365,-232.86136,-30.579915)"
       d="M 608.59576,145.68794 A 20,20 0 1 1 568.59576,145.68794 A 20,20 0 1 1 608.59576,145.68794 z"
       sodipodi:ry="20"
       sodipodi:rx="20"
       sodipodi:cy="145.68794"
       sodipodi:cx="588.59576"
       id="path7782"
       style="fill:#666666;fill-opacity:1;fill-rule:evenodd;stroke:none;stroke-width:1.5;stroke-linecap:butt;stroke-linejoin:round;marker:none;marker-start:none;marker-mid:none;marker-end:none;stroke-miterlimit:4;stroke-dasharray:none;stroke-dashoffset:0;stroke-opacity:1;visibility:visible;display:inline;overflow:visible;enable-background:accumulate"
       sodipodi:type="arc" />
    <path
       style="fill:none;fill-rule:evenodd;stroke:#a1a1a1;stroke-width:2;stroke-linecap:butt;stroke-linejoin:miter;stroke-miterlimit:4;stroke-dasharray:none;stroke-opacity:1"
       d="M 62.463497,150.86191 L 87.001458,152.60266"
       id="path7784"
       sodipodi:nodetypes="cc" />
    <path
       sodipodi:nodetypes="cc"
       id="path7786"
       d="M 62.928746,149.2832 L 87.466706,151.02395"
       style="fill:none;fill-rule:evenodd;stroke:#1a1a1a;stroke-width:2;stroke-linecap:butt;stroke-linejoin:miter;stroke-miterlimit:4;stroke-dasharray:none;stroke-opacity:1" />
    <path
       sodipodi:type="arc"
       style="fill:none;fill-opacity:1;fill-rule:evenodd;stroke:#1a1a1a;stroke-width:3.39823508;stroke-linecap:butt;stroke-linejoin:miter;marker:none;marker-start:none;marker-mid:none;marker-end:none;stroke-miterlimit:4;stroke-dasharray:none;stroke-dashoffset:0;stroke-opacity:1;visibility:visible;display:inline;overflow:visible;enable-background:accumulate"
       id="path7788"
       sodipodi:cx="588.59576"
       sodipodi:cy="145.68794"
       sodipodi:rx="20"
       sodipodi:ry="20"
       d="M 608.59576,145.68794 A 20,20 0 1 1 568.59576,145.68794 A 20,20 0 1 1 608.59576,145.68794 z"
       transform="matrix(0.5645365,0.1663694,-0.1663694,0.5645365,-232.86136,-30.579915)" />
    <path
       sodipodi:type="arc"
       style="fill:#666666;fill-opacity:1;fill-rule:evenodd;stroke:none;stroke-width:1.5;stroke-linecap:butt;stroke-linejoin:round;marker:none;marker-start:none;marker-mid:none;marker-end:none;stroke-miterlimit:4;stroke-dasharray:none;stroke-dashoffset:0;stroke-opacity:1;visibility:visible;display:inline;overflow:visible;enable-background:accumulate"
       id="path7794"
       sodipodi:cx="588.59576"
       sodipodi:cy="145.68794"
       sodipodi:rx="20"
       sodipodi:ry="20"
       d="M 608.59576,145.68794 A 20,20 0 1 1 568.59576,145.68794 A 20,20 0 1 1 608.59576,145.68794 z"
       transform="matrix(0.483628,-0.3353867,0.3353867,0.483628,-258.33869,466.13942)" />
    <path
       sodipodi:nodetypes="cc"
       id="path7796"
       d="M 68.196999,349.89672 L 84.941526,331.87555"
       style="fill:none;fill-rule:evenodd;stroke:#a1a1a1;stroke-width:2;stroke-linecap:butt;stroke-linejoin:miter;stroke-miterlimit:4;stroke-dasharray:none;stroke-opacity:1" />
    <path
       style="fill:none;fill-rule:evenodd;stroke:#1a1a1a;stroke-width:2;stroke-linecap:butt;stroke-linejoin:miter;stroke-miterlimit:4;stroke-dasharray:none;stroke-opacity:1"
       d="M 67.259099,348.54427 L 84.003625,330.5231"
       id="path7798"
       sodipodi:nodetypes="cc" />
    <path
       transform="matrix(0.483628,-0.3353867,0.3353867,0.483628,-258.33869,466.13942)"
       d="M 608.59576,145.68794 A 20,20 0 1 1 568.59576,145.68794 A 20,20 0 1 1 608.59576,145.68794 z"
       sodipodi:ry="20"
       sodipodi:rx="20"
       sodipodi:cy="145.68794"
       sodipodi:cx="588.59576"
       id="path7800"
       style="fill:none;fill-opacity:1;fill-rule:evenodd;stroke:#1a1a1a;stroke-width:3.39823508;stroke-linecap:butt;stroke-linejoin:miter;marker:none;marker-start:none;marker-mid:none;marker-end:none;stroke-miterlimit:4;stroke-dasharray:none;stroke-dashoffset:0;stroke-opacity:1;visibility:visible;display:inline;overflow:visible;enable-background:accumulate"
       sodipodi:type="arc" />
    <path
       id="path2702"
       d="M 95.485271,154.34009 C 95.396271,154.71822 95.283931,155.11916 95.172771,155.49634 C 93.063901,162.65231 87.46324,167.78389 80.766521,169.65259 L 80.766521,319.09009 C 85.30343,320.34462 89.438901,323.14128 92.329021,327.30884 C 93.713251,329.30491 94.690261,331.46617 95.297771,333.68384 L 561.23527,333.68384 C 561.30676,333.41862 561.37167,333.16712 561.45402,332.90259 C 564.12052,324.33712 571.75998,318.68463 580.20402,318.09009 L 580.20402,170.68384 C 570.81145,170.04329 563.10468,163.27262 561.04777,154.34009 L 95.485271,154.34009 z"
       style="fill:#e1ceb8;fill-opacity:1;fill-rule:evenodd;stroke:none;stroke-width:4.0999999;stroke-linecap:butt;stroke-linejoin:miter;marker:none;marker-start:none;marker-mid:none;marker-end:none;stroke-miterlimit:4;stroke-dasharray:none;stroke-dashoffset:0;stroke-opacity:1;visibility:visible;display:inline;overflow:visible;enable-background:accumulate" />
    <path
       style="fill:#f15944;fill-opacity:0.06363639;fill-rule:evenodd;stroke:none;stroke-width:4.0999999;stroke-linecap:butt;stroke-linejoin:miter;marker:none;marker-start:none;marker-mid:none;marker-end:none;stroke-miterlimit:4;stroke-dasharray:none;stroke-dashoffset:0;stroke-opacity:1;visibility:visible;display:inline;overflow:visible;enable-background:accumulate"
       d="M 80.766521,171.74634 L 80.766521,194.87134 L 580.20402,194.87134 L 580.20402,171.74634 L 80.766521,171.74634 z M 80.766521,213.02759 L 80.766521,236.15259 L 580.20402,236.15259 L 580.20402,213.02759 L 80.766521,213.02759 z M 80.766521,252.68384 L 80.766521,275.80884 L 580.20402,275.80884 L 580.20402,252.68384 L 80.766521,252.68384 z M 80.766521,292.30884 L 80.766521,315.43384 L 580.20402,315.43384 L 580.20402,292.30884 L 80.766521,292.30884 z"
       id="rect3484" />
    <path
       style="fill:#ffeb97;fill-opacity:0.40796018;fill-rule:evenodd;stroke:none;stroke-width:4.0999999;stroke-linecap:butt;stroke-linejoin:miter;marker:none;marker-start:none;marker-mid:none;marker-end:none;stroke-miterlimit:4;stroke-dasharray:none;stroke-dashoffset:0;stroke-opacity:1;visibility:visible;display:inline;overflow:visible;enable-background:accumulate"
       d="M 467.89152,154.34009 C 467.60884,159.87284 467.39237,163.6892 467.29777,163.80884 C 466.89982,164.31211 405.82389,181.41778 405.79777,182.05884 C 405.77163,182.69991 465.2546,204.6811 465.61027,205.21509 C 465.96594,205.74909 463.35242,269.14838 463.95402,269.37134 C 464.55563,269.5943 503.86752,219.79458 504.48527,219.62134 C 505.10304,219.4481 564.55608,241.53087 564.95402,241.02759 C 565.35197,240.52432 530.14663,187.76241 530.17277,187.12134 C 530.18859,186.73338 544.20073,168.90115 555.51652,154.34009 L 467.89152,154.34009 z M 141.20402,216.15259 C 140.62079,216.06644 114.7265,268.28572 114.20402,268.55884 C 113.9158,268.7095 96.600521,266.24207 80.766521,264.02759 L 80.766521,286.05884 C 89.387505,294.60911 97.256131,302.4063 97.297771,302.65259 C 97.337781,302.88924 92.793821,312.1908 87.735271,322.55884 C 89.466471,323.86452 91.026481,325.43057 92.329021,327.30884 C 93.713251,329.30491 94.690261,331.46617 95.297771,333.68384 L 115.64152,333.68384 C 120.76694,331.06615 124.33593,329.28678 124.48527,329.30884 C 124.59881,329.32561 126.55522,331.18382 129.17277,333.68384 L 161.67277,333.68384 C 159.81449,322.21236 158.12791,311.90008 158.23527,311.68384 C 158.49743,311.15578 210.17731,284.17139 210.07902,283.59009 C 209.98073,283.00878 152.31272,274.53384 151.89152,274.12134 C 151.47032,273.70883 141.78724,216.23874 141.20402,216.15259 z M 340.73527,252.21509 C 340.47071,252.15498 326.76588,275.20198 326.51652,275.30884 C 326.26715,275.41571 300.09294,269.45082 299.95402,269.68384 C 299.8151,269.91687 317.49193,290.10114 317.51652,290.37134 C 317.5411,290.64153 303.80656,313.66719 303.98527,313.87134 C 304.16397,314.07548 328.81446,303.49872 329.07902,303.55884 C 329.34358,303.61895 346.9859,323.79071 347.23527,323.68384 C 347.48464,323.57697 345.03383,296.88562 345.17277,296.65259 C 345.31169,296.41956 369.9786,285.86027 369.95402,285.59009 C 369.92944,285.3199 343.75771,279.38799 343.57902,279.18384 C 343.40032,278.9797 340.99982,252.2752 340.73527,252.21509 z"
       id="path3474" />
    <path
       style="fill:none;fill-opacity:1;fill-rule:evenodd;stroke:#404040;stroke-width:4.0999999;stroke-linecap:butt;stroke-linejoin:miter;marker:none;marker-start:none;marker-mid:none;marker-end:none;stroke-miterlimit:4;stroke-dasharray:none;stroke-dashoffset:0;stroke-opacity:1;visibility:visible;display:inline;overflow:visible;enable-background:accumulate"
       d="M 95.485271,154.34009 C 95.396271,154.71822 95.283931,155.11916 95.172771,155.49634 C 93.063901,162.65231 87.46324,167.78389 80.766521,169.65259 L 80.766521,319.09009 C 85.30343,320.34462 89.438901,323.14128 92.329021,327.30884 C 93.713251,329.30491 94.690261,331.46617 95.297771,333.68384 L 561.23527,333.68384 C 561.30676,333.41862 561.37167,333.16712 561.45402,332.90259 C 564.12052,324.33712 571.75998,318.68463 580.20402,318.09009 L 580.20402,170.68384 C 570.81145,170.04329 563.10468,163.27262 561.04777,154.34009 L 95.485271,154.34009 z"
       id="rect7828" />
  </g>
  <text
     style="font-size:8px;font-style:normal;font-variant:normal;font-weight:normal;font-stretch:normal;fill:#000000;fill-opacity:1;stroke:none;stroke-width:1px;stroke-linecap:butt;stroke-linejoin:miter;stroke-opacity:1;font-family:Arial;-inkscape-font-specification:Arial"
     xml:space="preserve"
     id="text2419"
     y="-18.929342"
     x="32.700729"><tspan
       id="tspan2421"
       y="-18.929342"
       x="32.700729" /></text>
  <g
     id="g6490">
    <path
       id="path5660"
       d="M 176.8125 21 L 41.4375 88.65625 L 41.4375 196.3125 L 16.25 208.90625 L 16.25 259.375 L 118.75 310.625 L 118.75 321.65625 L 159.34375 342.28125 L 242.40625 300.46875 L 242.40625 293.8125 L 207.46875 267.8125 L 224.34375 259.375 L 224.34375 239.5 L 232.9375 243.78125 L 315.8125 202.34375 L 315.8125 109.09375 L 232.9375 67.59375 L 197.9375 85.09375 L 197.9375 31.8125 L 176.8125 21 z M 244.1875 251.15625 C 234.16524 252.37323 231.50269 258.97311 228.28125 267.0625 C 228.28125 275.79619 238.454 285.64448 251.125 288.9375 C 263.7244 292.30212 274.09375 287.88993 274.09375 279.15625 C 271.37342 265.55462 263.66079 258.32187 251.5625 252.09375 C 248.91376 251.37788 246.4783 251.08466 244.1875 251.15625 z "
       style="fill:none;fill-opacity:1;fill-rule:evenodd;stroke:#ffffff;stroke-width:10;stroke-linecap:round;stroke-linejoin:round;marker:none;stroke-miterlimit:4;stroke-dasharray:none;stroke-dashoffset:0;stroke-opacity:1;visibility:visible;display:inline;overflow:visible;enable-background:accumulate;opacity:1;color:#000000;marker-start:none;marker-mid:none;marker-end:none" />
    <g
       id="g5647">
      <path
         style="fill:#5f5f5f;fill-opacity:1;stroke:none"
         id="p2417"
         d="M 232.92976,68.503607 L 148.67225,110.91947 L 148.94022,202.83327 L 232.92976,244.98117 L 232.92976,68.503607 z" />
      <path
         style="fill:#6e6e6e;fill-opacity:1;stroke:none"
         id="p2419"
         d="M 232.77663,70.341117 L 232.81492,245.09601 L 317.3404,202.9864 L 317.3404,111.64682 L 232.77663,70.341117 z" />
      <path
         style="fill:none;stroke:#787878;stroke-width:7.04378986;stroke-linecap:butt;stroke-linejoin:miter;marker:none;stroke-miterlimit:4;stroke-dasharray:none;stroke-dashoffset:0;stroke-opacity:1;visibility:visible;display:inline;overflow:visible;enable-background:accumulate"
         id="p2421"
         d="M 232.92976,153.56503 L 232.92976,242.68428" />
      <path
         style="fill:#898989;fill-opacity:1;stroke:none"
         id="p2423"
         d="M 232.92976,152.49315 L 148.82538,110.34525 L 232.92976,68.235637 L 317.11071,110.57494 L 232.92976,152.49315 z" />
      <path
         style="fill:none;stroke:#aaaaaa;stroke-width:5.28284264;stroke-linejoin:round;stroke-miterlimit:4;stroke-dasharray:none;stroke-opacity:1"
         id="p2425"
         d="M 150.89258,111.45541 L 232.92976,152.49315 L 315.15835,111.34057" />
      <path
         style="fill:none;fill-opacity:1;fill-rule:nonzero;stroke:#5f5f5f;stroke-width:3.52189493;stroke-linecap:butt;stroke-linejoin:miter;marker:none;stroke-miterlimit:4;stroke-dasharray:none;stroke-dashoffset:0;stroke-opacity:1;visibility:visible;display:inline;overflow:visible;enable-background:accumulate"
         id="p2427"
         d="M 232.92976,67.584852 L 315.80914,109.08196 L 315.80914,202.33562 L 232.92976,243.79444 L 150.0121,202.3739 L 150.0121,109.04368 L 232.92976,67.584852 z" />
      <path
         d="M 298.58247,135.2282 C 297.24261,135.26648 295.8262,135.61102 294.29494,136.41493 L 253.14236,157.46973 C 246.94077,160.60882 242.00246,168.76277 242.00246,175.76828 L 242.00246,214.5474 C 242.00246,221.55291 246.94077,224.61543 253.14236,221.47635 L 294.29494,200.53639 C 300.45826,197.35902 305.39657,189.12851 305.39657,182.123 L 305.39657,143.34387 C 305.39657,138.09931 302.60202,135.07508 298.58247,135.2282 z"
         id="r2539"
         style="fill:#343434;fill-opacity:1;fill-rule:nonzero;stroke:none;marker:none;visibility:visible;display:inline;overflow:visible;enable-background:accumulate" />
      <path
         d="M 300.49654,133.65866 C 300.91763,134.76882 301.07076,135.99383 301.07076,137.48681 L 301.07076,176.11281 C 301.07076,183.1566 296.09417,191.46368 289.85429,194.67932 L 248.3189,216.07866 C 246.6728,216.92085 245.06497,217.38023 243.64856,217.41851 C 243.26575,216.27007 243.07434,215.04506 243.07434,213.59037 L 243.07434,174.92608 C 243.07434,167.88229 248.05093,159.6135 254.32909,156.39785 L 295.8262,134.96023 C 297.4723,134.11804 299.08012,133.65866 300.49654,133.65866 z"
         id="r3311"
         style="fill:#2a3b2b;fill-opacity:1;fill-rule:nonzero;stroke:none;marker:none;visibility:visible;display:inline;overflow:visible;enable-background:accumulate" />
      <path
         d="M 300.95592,136.41493 C 300.9942,136.75946 301.07076,137.10399 301.07076,137.48681 L 301.07076,142.76965 L 243.41887,171.5956 C 243.99309,168.80105 245.14154,165.96822 246.78764,163.44164 L 300.95592,136.41493 z M 301.07076,148.2439 L 301.07076,154.71347 L 243.07434,183.7691 L 243.07434,177.33782 L 301.07076,148.2439 z M 301.07076,160.226 L 301.07076,166.69557 L 243.07434,195.7512 L 243.07434,189.28163 L 301.07076,160.226 z M 301.07076,172.16982 L 301.07076,176.11281 C 301.07076,176.955 300.9942,177.75891 300.84107,178.63939 C 300.84107,178.67767 300.84107,178.71595 300.84107,178.75423 L 243.07434,207.58018 L 243.07434,201.26373 L 301.07076,172.16982 z M 298.58247,185.33864 C 296.51527,189.31992 293.41447,192.84181 289.85429,194.67932 L 248.3189,216.07866 C 246.6728,216.92085 245.06497,217.38023 243.64856,217.41851 C 243.26575,216.27007 243.07434,215.04506 243.07434,213.59037 L 243.07434,213.09271 L 298.58247,185.33864 z"
         id="p3316"
         style="fill:#284024;fill-opacity:1;stroke:none" />
      <path
         d="M 297.01292,147.55483 C 297.2809,147.51655 297.54887,147.51655 297.74027,147.66968 C 298.16137,147.89937 298.46762,148.32046 298.69731,148.74156 C 299.15669,149.58375 299.46294,150.77048 299.76919,152.18689 C 300.30513,154.59862 300.68795,157.69942 301.07076,160.95335 L 301.07076,171.5956 C 300.64966,169.03074 300.26685,166.15963 299.88404,163.09711 C 299.42466,159.1924 298.927,155.17285 298.35278,152.45486 C 298.04652,151.07673 297.70199,150.04313 297.39574,149.46891 C 297.20433,149.16266 297.05121,149.00953 297.01292,148.97125 C 296.8598,149.04781 296.4387,149.62203 296.05589,150.65563 C 295.71136,151.65095 295.29026,153.14393 294.98401,154.82831 C 294.40979,158.19708 294.02697,162.44633 293.56759,166.81041 C 293.10822,171.1745 292.64884,175.65343 291.99805,179.13705 C 291.65352,180.85971 291.2707,182.35269 290.81133,183.53941 C 290.35195,184.72614 289.81601,185.60661 288.89725,186.06599 C 288.43788,186.29568 287.90194,186.41052 287.44256,186.18083 C 286.98318,185.95115 286.63865,185.53005 286.37068,185.10895 C 285.87302,184.26676 285.4902,183.08004 285.18395,181.62534 C 284.53317,178.75423 284.15035,174.81124 283.72926,170.86825 C 283.30816,166.92526 282.88706,162.98227 282.31284,160.226 C 282.00659,158.84787 281.66206,157.77599 281.3558,157.24005 C 281.20268,156.93379 281.1644,156.89551 281.12612,156.85723 C 281.08783,156.85723 281.08783,156.81895 280.97299,156.85723 C 280.78158,156.97208 280.28392,157.50802 279.90111,158.54162 C 279.51829,159.57522 279.13548,160.95335 278.82923,162.59945 C 278.21672,165.92994 277.71907,170.25574 277.29797,174.58155 C 276.83859,178.90736 276.4175,183.30972 275.84327,186.79334 C 275.53702,188.516 275.30733,190.00898 274.88624,191.19571 C 274.50342,192.38243 274.04404,193.22462 273.20185,193.72228 C 273.12529,193.76057 273.08701,193.83713 273.08701,193.83713 L 272.97216,193.83713 C 272.51279,194.02854 271.93856,193.99025 271.55575,193.72228 C 271.13465,193.45431 270.94325,193.0715 270.71356,192.6504 C 270.25418,191.76993 269.94793,190.62149 269.64168,189.16679 C 268.99089,186.2574 268.53151,182.27613 268.07214,178.4097 C 267.61276,174.50499 267.1151,170.71512 266.5026,167.99714 C 266.23463,166.61901 265.89009,165.58541 265.54556,165.01118 C 265.39243,164.70493 265.23931,164.55181 265.20103,164.51352 C 265.0479,164.59009 264.58852,165.16431 264.24399,166.19791 C 263.89946,167.23151 263.55492,168.60964 263.28695,170.25574 C 262.71273,173.62451 262.29163,177.9886 261.83226,182.35269 C 261.41116,186.71678 260.83694,191.08086 260.18615,194.56448 C 259.84162,196.28714 259.45881,197.78012 258.96115,198.96684 C 258.50177,200.15357 258.08067,201.14889 257.2002,201.60827 C 256.74082,201.83795 256.09004,201.83795 255.63066,201.60827 C 255.17128,201.37858 254.94159,201.07233 254.67362,200.65123 C 254.13768,199.80904 253.79315,198.62231 253.4869,197.16762 C 252.83611,194.29651 252.4533,190.35351 252.0322,186.41052 C 251.61111,182.46753 251.19001,178.52454 250.61579,175.76828 C 250.30954,174.39014 249.965,173.35654 249.65875,172.78232 C 249.50562,172.47607 249.31422,172.32294 249.27594,172.28466 C 249.23765,172.28466 249.27594,172.24638 249.16109,172.28466 C 248.96968,172.39951 248.47202,173.05029 248.08921,174.08389 C 247.7064,175.11749 247.43843,176.49562 247.13217,178.18001 C 246.51967,181.5105 246.02201,185.87458 245.56263,190.23867 C 245.14154,194.60276 244.6056,199.00513 244.03137,202.45046 C 243.72512,204.17312 243.49543,205.70438 243.07434,206.89111 L 243.07434,198.50747 C 243.38059,195.86605 243.72512,193.03322 244.03137,190.12383 C 244.49075,185.75974 244.95013,181.39565 245.56263,177.91204 C 245.90717,176.18937 246.21342,174.69639 246.6728,173.50967 C 247.09389,172.32294 247.66811,171.44247 248.58687,170.98309 C 249.00797,170.7534 249.58219,170.7534 250.00328,170.98309 C 250.42438,171.21278 250.73063,171.51903 250.96032,171.94013 C 251.45798,172.78232 251.72595,174.08389 252.0322,175.53859 C 252.6447,178.4097 253.0658,182.35269 253.4869,186.29568 C 253.90799,190.23867 254.32909,194.1051 254.90331,196.82308 C 255.20956,198.20122 255.66894,199.2731 255.97519,199.80904 C 256.1666,200.07701 256.28144,200.26841 256.35801,200.3067 C 256.39629,200.3067 256.31973,200.34498 256.47285,200.3067 C 256.74082,200.15357 257.23848,199.54107 257.65958,198.50747 C 258.08067,197.43559 258.42521,195.98089 258.73146,194.29651 C 259.38224,190.92774 259.84162,186.60193 260.301,182.23784 C 260.76038,177.87376 261.14319,173.47139 261.71741,170.02606 C 262.02366,168.30339 262.40648,166.88698 262.78929,165.73853 C 263.21039,164.55181 263.5932,163.63305 264.47368,163.21195 C 264.93306,162.98227 265.62212,162.98227 266.04322,163.21195 C 266.46431,163.44164 266.65572,163.7479 266.88541,164.16899 C 267.34479,165.01118 267.76588,166.19791 268.07214,167.6526 C 268.68464,170.48543 269.14402,174.39014 269.64168,178.29485 C 270.10105,182.16128 270.48387,186.02771 271.05809,188.82226 C 271.36434,190.20039 271.70888,191.31055 272.01513,191.92306 C 272.12997,192.15274 272.2831,192.19103 272.35966,192.26759 C 272.58935,192.11446 273.12529,191.73165 273.46982,190.73633 C 273.81436,189.66445 274.12061,188.20975 274.42686,186.52537 C 275.00108,183.1566 275.3839,178.79251 275.84327,174.46671 C 276.30265,170.10262 276.76203,165.81509 277.41281,162.36976 C 277.71907,160.6471 278.02532,159.11584 278.48469,157.92911 C 278.90579,156.78067 279.36517,155.86191 280.28392,155.44082 C 280.70502,155.21113 281.39409,155.21113 281.81518,155.44082 C 282.27456,155.67051 282.54253,156.0916 282.77222,156.5127 C 283.26988,157.35489 283.57613,158.54162 283.8441,159.99631 C 284.4566,162.86742 284.8777,166.81041 285.2988,170.7534 C 285.71989,174.69639 286.14099,178.63939 286.71521,181.39565 C 287.02146,182.77378 287.366,183.84567 287.67225,184.38161 C 287.86365,184.64958 287.9785,184.72614 288.05506,184.72614 C 288.09334,184.76442 288.05506,184.8027 288.16991,184.72614 C 288.43788,184.61129 288.97382,183.99879 289.35663,182.96519 C 289.77773,181.89331 290.12226,180.43861 290.42851,178.75423 C 291.0793,175.38546 291.53868,171.02137 291.99805,166.69557 C 292.45743,162.33148 292.95509,157.92911 293.56759,154.48378 C 293.83556,152.76111 294.21838,151.3447 294.63947,150.15797 C 295.02229,149.00953 295.4051,148.09078 296.28558,147.66968 C 296.51527,147.55483 296.78324,147.55483 297.01292,147.55483 z"
         id="p3364"
         style="fill:#0ccd0a;fill-opacity:1;fill-rule:evenodd;stroke:none" />
      <path
         d="M 155.75431,128.98832 C 155.984,128.98832 156.29025,129.10317 156.55822,129.21801 L 157.28557,129.60083 L 157.28557,157.46973 L 155.48634,156.62754 C 155.25665,156.35957 155.06525,155.97676 154.91212,155.67051 L 154.91212,129.21801 C 155.10353,129.06489 155.40978,128.98832 155.75431,128.98832 z M 159.6973,130.78755 L 161.95591,131.85943 L 161.95591,159.99631 L 159.6973,158.7713 L 159.6973,130.78755 z M 164.36764,133.04616 L 166.62625,134.27117 L 166.62625,162.48461 L 166.5114,162.36976 L 164.36764,161.18304 L 164.36764,133.04616 z M 168.9997,135.45789 L 171.41143,136.64462 L 171.41143,164.89634 L 168.9997,163.67133 L 168.9997,135.45789 z M 173.67004,137.7165 L 175.96693,138.9415 L 175.96693,167.15495 L 173.67004,165.96822 L 173.67004,137.7165 z M 178.34038,140.12823 L 180.75211,141.31496 L 180.75211,169.56668 L 178.34038,168.34167 L 178.34038,140.12823 z M 183.01072,142.38684 L 185.42245,143.57356 L 185.42245,171.82528 L 183.01072,170.63856 L 183.01072,142.38684 z M 187.68106,144.79857 L 190.05451,145.98529 L 190.05451,174.19874 L 187.68106,173.01201 L 187.68106,144.79857 z M 192.46624,147.17202 L 194.72485,148.2439 L 194.72485,176.49562 L 192.46624,175.42374 L 192.46624,147.17202 z M 197.02173,149.46891 L 199.39518,150.65563 L 199.39518,178.86907 L 197.02173,177.68235 L 197.02173,149.46891 z M 201.80692,151.84236 L 204.06552,152.91424 L 204.06552,181.16596 L 201.80692,180.09408 L 201.80692,151.84236 z M 206.47726,154.10097 L 208.73586,155.32597 L 208.73586,183.53941 L 206.47726,182.35269 L 206.47726,154.10097 z M 211.10931,156.5127 L 213.52105,157.69942 L 213.52105,185.95115 L 211.10931,184.72614 L 211.10931,156.5127 z M 215.77965,158.7713 L 217.23435,159.49865 C 217.5406,159.65178 217.80857,159.84319 218.07654,160.11116 L 218.07654,187.98006 C 217.80857,187.98006 217.5406,187.86522 217.23435,187.75038 L 215.77965,187.02303 L 215.77965,158.7713 z"
         id="r3376"
         style="fill:#3f3f3f;fill-opacity:1;fill-rule:nonzero;stroke:none;marker:none;visibility:visible;display:inline;overflow:visible;enable-background:accumulate" />
    </g>
    <path
       style="fill:#5f5f5f;fill-opacity:1;stroke:none"
       id="p2529"
       d="M 120.33661,155.2992 L 14.530236,208.56033 L 14.816586,259.96017 L 120.33661,312.86332 L 120.33661,155.2992 z" />
    <path
       style="fill:#6e6e6e;fill-opacity:1;stroke:none"
       id="p2531"
       d="M 120.12184,156.22984 L 120.19343,313.0065 L 226.28615,260.17493 L 226.28615,208.1308 L 120.12184,156.22984 z" />
    <path
       style="fill:none;stroke:#787878;stroke-width:8.80526638;stroke-linecap:butt;stroke-linejoin:miter;marker:none;stroke-miterlimit:4;stroke-dasharray:none;stroke-dashoffset:0;stroke-opacity:1;visibility:visible;display:inline;overflow:visible;enable-background:accumulate"
       id="p2533"
       d="M 120.33661,260.74764 L 120.33661,309.99982" />
    <path
       style="fill:#898989;fill-opacity:1;stroke:none"
       id="p2535"
       d="M 120.33661,260.74764 L 14.744998,207.84445 L 120.33661,154.94126 L 225.9998,208.1308 L 120.33661,260.74764 z" />
    <path
       style="fill:none;stroke:#aaaaaa;stroke-width:6.58605289;stroke-linejoin:round;stroke-miterlimit:4;stroke-dasharray:none;stroke-opacity:1"
       id="p2537"
       d="M 17.322149,209.20461 L 120.33661,260.74764 L 223.56583,209.06144" />
    <path
       style="fill:none;fill-opacity:1;fill-rule:nonzero;stroke:#5f5f5f;stroke-width:4.36683941;stroke-linecap:butt;stroke-linejoin:miter;marker:none;stroke-miterlimit:4;stroke-dasharray:none;stroke-dashoffset:0;stroke-opacity:1;visibility:visible;display:inline;overflow:visible;enable-background:accumulate"
       id="p2539"
       d="M 120.33661,156.87413 L 224.35329,208.98985 L 224.35329,259.38747 L 120.33661,311.43157 L 16.248336,259.38747 L 16.248336,208.91826 L 120.33661,156.87413 z" />
    <path
       style="fill:#6e6e6e;fill-opacity:1;fill-rule:nonzero;stroke:none;marker:none;visibility:visible;display:inline;overflow:visible;enable-background:accumulate"
       id="p3898"
       d="M 89.983493,221.44608 L 113.75055,232.18421 L 174.09884,202.18903 L 174.09884,193.74171 L 142.38557,177.63451 L 82.395215,210.70795 L 89.983493,221.44608 z" />
    <path
       style="fill:#898989;fill-opacity:1;fill-rule:nonzero;stroke:none;marker:none;visibility:visible;display:inline;overflow:visible;enable-background:accumulate"
       id="p3900"
       d="M 173.66932,193.24059 L 114.18008,223.23577 L 107.02133,220.08592 L 167.4412,189.66122 L 173.66932,193.24059 z" />
    <path
       style="fill:none;fill-opacity:1;fill-rule:nonzero;stroke:#5f5f5f;stroke-width:4.36683941;stroke-linecap:butt;stroke-linejoin:miter;marker:none;stroke-miterlimit:4;stroke-dasharray:none;stroke-dashoffset:0;stroke-opacity:1;visibility:visible;display:inline;overflow:visible;enable-background:accumulate"
       id="p3896"
       d="M 89.983493,221.44608 L 113.75055,232.18421 L 174.09884,202.18903 L 174.09884,193.74171 L 142.38557,177.63451 L 82.395215,210.70795 L 89.983493,221.44608 z" />
    <path
       style="fill:#898989;fill-opacity:1;fill-rule:nonzero;stroke:none;marker:none;visibility:visible;display:inline;overflow:visible;enable-background:accumulate"
       id="p2458"
       d="M 176.81917,21.000994 L 41.447147,88.651211 L 41.447147,223.30736 L 62.565469,234.11707 L 197.93749,166.46686 L 197.93749,31.810711 L 176.81917,21.000994 z" />
    <path
       style="fill:#aaaaaa;fill-opacity:1;fill-rule:evenodd;stroke:none"
       id="p3518"
       d="M 176.81917,21.000994 L 41.447147,88.579623 L 41.447147,89.653436 L 92.703819,114.99542 L 197.8659,56.579997 L 197.8659,31.739124 L 176.81917,21.000994 z" />
    <path
       style="fill:#6e6e6e;fill-opacity:1;fill-rule:nonzero;stroke:none;marker:none;visibility:visible;display:inline;overflow:visible;enable-background:accumulate"
       id="p2739"
       d="M 197.8659,32.383411 L 62.923407,99.747278 L 62.923407,233.9739 L 197.8659,166.39527 L 197.8659,32.383411 z" />
    <path
       style="fill:none;fill-opacity:1;fill-rule:nonzero;stroke:#5f5f5f;stroke-width:4.36683941;stroke-linecap:butt;stroke-linejoin:miter;marker:none;stroke-miterlimit:4;stroke-dasharray:none;stroke-dashoffset:0;stroke-opacity:1;visibility:visible;display:inline;overflow:visible;enable-background:accumulate"
       id="p2744"
       d="M 176.81917,21.000994 L 41.447147,88.651211 L 41.447147,223.30736 L 62.565469,234.11707 L 197.93749,166.46686 L 197.93749,31.810711 L 176.81917,21.000994 z" />
    <path
       style="fill:#424242;fill-opacity:1;fill-rule:nonzero;stroke:none;marker:none;visibility:visible;display:inline;overflow:visible;enable-background:accumulate"
       id="p3541"
       d="M 192.64001,39.041052 L 66.359608,104.68682 L 66.359608,229.03436 L 192.64001,165.39304 L 192.64001,39.041052 z" />
    <path
       style="fill:#32324c;fill-opacity:1;fill-rule:nonzero;stroke:none;marker:none;visibility:visible;display:inline;overflow:visible;enable-background:accumulate"
       id="p3523"
       d="M 190.49239,40.329627 L 66.789133,102.10967 L 66.789133,225.16863 L 190.49239,163.24542 L 190.49239,40.329627 z" />
    <path
       style="fill:#454545;fill-opacity:1;fill-rule:evenodd;stroke:none"
       id="p3545"
       d="M 34.503157,234.40342 L 34.503157,262.39415 C 35.720145,263.32479 37.00872,264.18384 38.297296,264.82812 L 38.297296,234.40342 C 37.00872,234.26025 35.720145,234.26025 34.503157,234.40342 z M 33.858869,234.61819 C 32.427118,234.97612 31.138543,235.62041 30.06473,236.40787 L 30.06473,258.17048 C 31.138543,259.60223 32.427118,260.81922 33.858869,261.96462 L 33.858869,234.61819 z M 39.013171,234.61819 L 39.013171,265.04289 C 39.657459,265.32924 40.301747,265.544 41.017622,265.75876 C 41.66191,265.90194 42.163023,266.1167 42.80731,266.18829 L 42.80731,235.76359 C 42.163023,235.47724 41.66191,235.26247 41.017622,235.1193 C 40.301747,234.90454 39.657459,234.76136 39.013171,234.61819 z M 43.451598,235.97835 L 43.451598,266.40305 C 44.811761,266.54623 46.100337,266.40305 47.245737,266.18829 L 47.245737,238.48391 C 46.028749,237.55328 44.811761,236.62264 43.451598,235.97835 z M 29.348855,236.90899 C 27.630754,238.34074 26.342178,240.41678 25.769478,242.92234 L 25.769478,249.22204 C 26.342178,252.01396 27.630754,254.73428 29.348855,257.23985 L 29.348855,236.90899 z M 47.961613,238.91344 L 47.961613,266.18829 C 49.321776,265.90194 50.610351,265.40082 51.755752,264.61336 L 51.755752,242.70758 C 50.610351,241.27583 49.321776,240.05884 47.961613,238.91344 z M 52.40004,243.56663 L 52.40004,263.96907 C 54.11814,262.46574 55.478303,260.3897 55.979416,257.88413 L 55.979416,251.65602 C 55.478303,248.79252 54.189728,246.07219 52.40004,243.56663 z" />
    <path
       style="fill:#424242;fill-opacity:1;fill-rule:evenodd;stroke:none"
       id="p3723"
       d="M 219.77169,219.0121 L 217.55247,220.08592 L 217.55247,238.48391 L 219.77169,237.33851 L 219.77169,219.0121 z M 215.97755,220.80179 L 213.9731,221.87561 L 213.9731,240.2736 L 215.97755,239.34296 L 215.97755,220.80179 z M 212.18341,222.80624 L 210.10737,223.66529 L 210.10737,242.27805 L 212.18341,241.13265 L 212.18341,222.80624 z M 208.81879,224.38117 L 206.52799,225.45498 L 206.52799,244.06774 L 208.81879,242.92234 L 208.81879,224.38117 z M 205.02466,226.38562 L 202.73385,227.45943 L 202.73385,245.85743 L 205.02466,244.71203 L 205.02466,226.38562 z M 201.15893,228.17531 L 198.93972,229.24912 L 198.93972,247.86188 L 201.15893,246.71648 L 201.15893,228.17531 z M 197.57955,229.965 L 195.36034,231.03881 L 195.36034,249.65157 L 197.57955,248.50617 L 197.57955,229.965 z M 193.78541,231.96945 L 191.78096,232.8285 L 191.78096,251.44126 L 193.78541,250.29586 L 193.78541,231.96945 z M 189.99127,233.75914 L 187.98682,234.90454 L 187.98682,253.23094 L 189.99127,252.30031 L 189.99127,233.75914 z M 186.62666,235.54882 L 184.40745,236.40787 L 184.40745,255.02063 L 186.62666,253.87523 L 186.62666,235.54882 z M 182.83252,237.33851 L 180.61331,238.48391 L 180.61331,256.81032 L 182.83252,255.66492 L 182.83252,237.33851 z M 179.03838,239.1282 L 176.81917,240.2736 L 176.81917,258.81477 L 179.03838,257.66937 L 179.03838,239.1282 z M 219.77169,239.77249 L 217.55247,240.91789 L 217.55247,255.2354 L 219.77169,254.08999 L 219.77169,239.77249 z M 175.45901,240.91789 L 173.23979,242.06329 L 173.23979,260.60446 L 175.45901,259.45906 L 175.45901,240.91789 z M 215.97755,241.56218 L 213.9731,242.70758 L 213.9731,257.02508 L 215.97755,256.09445 L 215.97755,241.56218 z M 171.66487,242.92234 L 169.66042,243.85298 L 169.66042,262.39415 L 171.66487,261.24875 L 171.66487,242.92234 z M 212.18341,243.56663 L 210.10737,244.49727 L 210.10737,259.02953 L 212.18341,257.88413 L 212.18341,243.56663 z M 167.87073,244.71203 L 165.86628,245.85743 L 165.86628,264.18384 L 167.87073,263.2532 L 167.87073,244.71203 z M 208.81879,245.14155 L 206.52799,246.28695 L 206.52799,260.81922 L 208.81879,259.67382 L 208.81879,245.14155 z M 205.02466,247.146 L 202.73385,248.2914 L 202.73385,262.60891 L 205.02466,261.46351 L 205.02466,247.146 z M 201.15893,248.93569 L 198.93972,250.08109 L 198.93972,264.61336 L 201.15893,263.53955 L 201.15893,248.93569 z M 197.57955,250.72538 L 195.36034,251.87078 L 195.36034,266.40305 L 197.57955,265.32924 L 197.57955,250.72538 z M 193.78541,252.51507 L 191.78096,253.66047 L 191.78096,268.19274 L 193.78541,267.11893 L 193.78541,252.51507 z M 189.99127,254.59111 L 187.98682,255.45016 L 187.98682,269.98243 L 189.99127,269.12338 L 189.99127,254.59111 z M 186.62666,256.09445 L 184.40745,257.23985 L 184.40745,271.98688 L 186.62666,270.6983 L 186.62666,256.09445 z M 182.83252,258.17048 L 180.61331,259.2443 L 180.61331,273.77657 L 182.83252,272.70275 L 182.83252,258.17048 z M 179.03838,259.96017 L 176.81917,261.03399 L 176.81917,275.78102 L 179.03838,274.7072 L 179.03838,259.96017 z M 175.45901,261.74986 L 173.23979,262.82367 L 173.23979,277.5707 L 175.45901,276.49689 L 175.45901,261.74986 z M 171.66487,263.53955 L 169.66042,264.61336 L 169.66042,278.50134 L 171.23534,278.50134 L 171.66487,278.28658 L 171.66487,263.53955 z M 167.87073,265.544 L 165.86628,266.40305 L 165.86628,280.07627 L 167.87073,280.07627 L 167.87073,265.544 z" />
    <path
       style="fill:#898989;fill-opacity:1;fill-rule:nonzero;stroke:none;marker:none;visibility:visible;display:inline;overflow:visible;enable-background:accumulate"
       id="p3647"
       d="M 118.76168,321.66859 L 159.35181,342.2858 L 242.39335,300.47868 L 242.39335,293.82107 L 200.01353,262.25097 L 118.76168,302.98424 L 118.76168,321.66859 z" />
    <path
       style="fill:#a4a4a4;fill-opacity:1;fill-rule:nonzero;stroke:none;marker:none;visibility:visible;display:inline;overflow:visible;enable-background:accumulate"
       id="p3654"
       d="M 159.06546,343.35961 L 159.06546,334.62593 L 241.67747,293.1052 L 241.67747,300.69344 L 159.06546,343.35961 z" />
    <path
       style="fill:#5f5f5f;fill-opacity:1;fill-rule:nonzero;stroke:none;marker:none;visibility:visible;display:inline;overflow:visible;enable-background:accumulate"
       id="p3649"
       d="M 118.83327,302.91266 L 118.83327,319.8789 L 159.85292,341.1404 L 160.49721,333.76688 L 118.83327,302.91266 z" />
    <path
       style="fill:none;fill-opacity:1;fill-rule:nonzero;stroke:#5f5f5f;stroke-width:4.36683941;stroke-linecap:butt;stroke-linejoin:miter;marker:none;stroke-miterlimit:4;stroke-dasharray:none;stroke-dashoffset:0;stroke-opacity:1;visibility:visible;display:inline;overflow:visible;enable-background:accumulate"
       id="p3645"
       d="M 118.76168,321.66859 L 159.35181,342.2858 L 242.39335,300.47868 L 242.39335,293.82107 L 200.01353,262.25097 L 118.76168,302.98424 L 118.76168,321.66859 z" />
    <path
       style="fill:#969696;fill-opacity:1;fill-rule:nonzero;stroke:none;marker:none;visibility:visible;display:inline;overflow:visible;enable-background:accumulate"
       id="p3878"
       d="M 244.18304,251.15491 C 234.16078,252.37189 231.51204,258.95795 228.2906,267.04734 C 228.2906,275.78102 238.45603,285.6601 251.12703,288.95312 C 263.72643,292.31774 274.10662,287.87931 274.10662,279.14563 C 271.3863,265.544 263.65484,258.31366 251.55655,252.08554 C 248.90781,251.36967 246.47384,251.08332 244.18304,251.15491 z" />
    <path
       style="fill:#5f5f5f;fill-opacity:1;fill-rule:evenodd;stroke:none"
       id="p3885"
       d="M 231.86998,259.2443 C 230.50982,261.5351 229.436,264.25542 228.2906,267.11893 C 228.2906,275.78102 238.38445,285.6601 251.05544,289.02471 C 253.34624,289.59741 255.49386,289.81217 257.5699,289.88376 C 249.5521,271.55735 240.81842,260.3897 231.86998,259.2443 z" />
    <path
       style="fill:none;fill-opacity:1;fill-rule:nonzero;stroke:#5f5f5f;stroke-width:4.36683941;stroke-linecap:butt;stroke-linejoin:miter;marker:none;stroke-miterlimit:4;stroke-dasharray:none;stroke-dashoffset:0;stroke-opacity:1;visibility:visible;display:inline;overflow:visible;enable-background:accumulate"
       id="p3883"
       d="M 244.18304,251.15491 C 234.16078,252.37189 231.51204,258.95795 228.2906,267.04734 C 228.2906,275.78102 238.45603,285.6601 251.12703,288.95312 C 263.72643,292.31774 274.10662,287.87931 274.10662,279.14563 C 271.3863,265.544 263.65484,258.31366 251.55655,252.08554 C 248.90781,251.36967 246.47384,251.08332 244.18304,251.15491 z" />
    <path
       style="fill:none;fill-opacity:1;fill-rule:nonzero;stroke:#5f5f5f;stroke-width:2.14762592;stroke-linecap:butt;stroke-linejoin:miter;marker:none;stroke-miterlimit:4;stroke-dasharray:none;stroke-dashoffset:0;stroke-opacity:1;visibility:visible;display:inline;overflow:visible;enable-background:accumulate"
       id="p3890"
       d="M 238.74238,253.51729 C 248.19194,257.02508 251.34179,260.53287 254.84958,264.9713 C 258.35737,269.33814 267.80692,266.54623 264.65707,261.74986" />
    <path
       style="fill:none;fill-opacity:1;fill-rule:nonzero;stroke:#5f5f5f;stroke-width:2.14762592;stroke-linecap:butt;stroke-linejoin:miter;marker:none;stroke-miterlimit:4;stroke-dasharray:none;stroke-dashoffset:0;stroke-opacity:1;visibility:visible;display:inline;overflow:visible;enable-background:accumulate"
       id="p3892"
       d="M 256.13815,266.18829 C 254.49164,270.34036 251.05544,272.84593 245.32844,273.77657" />
    <path
       style="fill:none;fill-opacity:1;fill-rule:nonzero;stroke:#424242;stroke-width:2.0044508;stroke-linecap:butt;stroke-linejoin:miter;marker:none;stroke-miterlimit:4;stroke-dasharray:none;stroke-dashoffset:0;stroke-opacity:1;visibility:visible;display:inline;overflow:visible;enable-background:accumulate"
       id="r3894"
       d="M 157.1326,251.44126 C 156.41672,251.44126 155.70085,251.65602 154.91338,252.08554 L 130.93156,264.18384 C 127.63853,265.90194 125.13297,270.48354 125.13297,274.27768 C 125.13297,278.00023 127.63853,279.71833 130.93156,278.07182 L 154.91338,265.75876 C 158.20641,264.04066 160.71197,259.67382 160.71197,255.87968 C 160.71197,253.08777 159.28022,251.36967 157.1326,251.44126 z" />
    <g
       transform="matrix(7.1587531,0,0,7.1587531,-22.265755,-412.96262)"
       id="g3679">
      <path
         style="fill:#929292;fill-opacity:1;stroke:none"
         id="p2436"
         d="M 30.94,94.82 L 29.51,95.54 L 29.51,95.82 L 30.91,96.92 L 32.44,96.13 L 32.38,95.54 L 30.94,94.82 z" />
      <path
         style="fill:#bcbcbc;fill-opacity:1;stroke:none"
         id="p2438"
         d="M 30.94,96.12 L 29.69,95.49 L 30.94,94.86 L 32.19,95.49 L 30.94,96.12 z" />
      <path
         style="fill:#6e6e6e;fill-opacity:1;fill-rule:evenodd;stroke:none"
         id="p2440"
         d="M 29.51,95.57 L 29.51,95.82 L 30.91,96.92 L 30.91,96.29 L 29.51,95.57 z" />
    </g>
    <use
       xlink:href="#g3679"
       height="132"
       width="48"
       y="0"
       x="0"
       id="use2421"
       transform="translate(-12.384643,6.2997027)" />
    <use
       xlink:href="#g3679"
       height="132"
       width="48"
       y="0"
       x="0"
       id="use2457"
       transform="translate(11.167655,8.3041536)" />
    <use
       xlink:href="#g3679"
       height="132"
       width="48"
       y="0"
       x="0"
       id="use2423"
       transform="translate(-1.4317506,15.033382)" />
    <use
       xlink:href="#g3679"
       height="132"
       width="48"
       y="0"
       x="0"
       id="use2459"
       transform="translate(22.120547,17.10942)" />
    <use
       xlink:href="#g3679"
       height="132"
       width="48"
       y="0"
       x="0"
       id="use2425"
       transform="translate(9.3779666,23.838648)" />
    <use
       xlink:href="#g3679"
       height="132"
       width="48"
       y="0"
       x="0"
       id="use2427"
       transform="translate(-24.196585,12.814168)" />
    <use
       xlink:href="#g3679"
       height="132"
       width="48"
       y="0"
       x="0"
       id="use2429"
       transform="translate(-13.243693,21.547847)" />
    <use
       xlink:href="#g3679"
       height="132"
       width="48"
       y="0"
       x="0"
       id="use2431"
       transform="translate(-2.3623885,30.281526)" />
    <use
       xlink:href="#g3679"
       height="132"
       width="48"
       y="0"
       x="0"
       id="use2439"
       transform="translate(-37.010754,19.471808)" />
    <use
       xlink:href="#g3679"
       height="132"
       width="48"
       y="0"
       x="0"
       id="use2441"
       transform="translate(-26.057861,28.205487)" />
    <use
       xlink:href="#g3679"
       height="132"
       width="48"
       y="0"
       x="0"
       id="use2443"
       transform="translate(-15.176557,36.939166)" />
    <use
       xlink:href="#g3679"
       height="132"
       width="48"
       y="0"
       x="0"
       id="use2445"
       transform="translate(-50.039684,26.487386)" />
    <use
       xlink:href="#g3679"
       height="132"
       width="48"
       y="0"
       x="0"
       id="use2447"
       transform="translate(-39.158379,35.149478)" />
    <use
       xlink:href="#g3679"
       height="132"
       width="48"
       y="0"
       x="0"
       id="use2449"
       transform="translate(-28.205487,43.954744)" />
    <use
       xlink:href="#g3679"
       height="132"
       width="48"
       y="0"
       x="0"
       id="use2451"
       transform="translate(-63.283377,32.715502)" />
    <use
       xlink:href="#g3679"
       height="132"
       width="48"
       y="0"
       x="0"
       id="use2453"
       transform="translate(-52.330485,41.377593)" />
    <use
       xlink:href="#g3679"
       height="132"
       width="48"
       y="0"
       x="0"
       id="use2455"
       transform="translate(-41.377593,50.182859)" />
    <path
       id="text3626"
       d="M 76.981245,112.9503 C 76.759327,115.32008 77.899613,118.14041 74.902346,120.46115 C 72.083971,123.37108 69.723238,119.93717 72.469593,118.14272 C 72.028705,122.1895 77.012631,117.93258 75.685882,115.40292 C 77.190809,111.99099 70.824883,116.13796 74.675763,112.82085 C 76.024579,111.79492 81.315138,109.89306 76.981245,112.9503 z M 85.082018,110.93904 C 83.018956,111.88727 80.902525,113.27367 78.876903,113.91451 C 78.894491,111.85928 82.421415,111.35882 84.052929,110.16648 C 85.042008,109.35057 87.271167,109.24661 85.082012,110.93904 L 85.082018,110.93904 z M 85.082018,113.37814 C 83.01896,114.32632 80.902508,115.71281 78.876903,116.35358 C 78.895752,114.29845 82.420626,113.79783 84.052929,112.60558 C 85.041999,111.7897 87.271158,111.68569 85.082012,113.37814 L 85.082018,113.37814 z M 92.892094,106.42157 C 94.15713,109.56721 88.569784,116.15132 87.363117,111.66161 C 86.024172,109.13712 89.672439,101.74052 92.399238,104.70679 L 92.768878,105.47156 L 92.892094,106.42157 L 92.892094,106.42157 z M 91.590424,107.08285 C 90.199838,101.12608 85.887291,113.97331 90.603088,111.16723 C 91.824589,109.77477 91.556469,108.33098 91.590424,107.08285 z M 73.208911,128.657 C 73.155093,130.80876 75.608814,130.51874 71.986663,132.20358 C 70.130262,132.75949 72.887272,129.04068 71.913547,127.28403 C 71.413047,125.46095 70.536945,124.99501 73.68282,123.68135 C 77.245015,121.00045 78.100509,124.75544 76.527871,126.96456 C 78.587044,126.81566 79.151657,129.75505 76.716347,129.22288 C 75.867249,128.42527 74.893644,127.42129 73.208911,128.657 z M 73.208911,127.36164 C 76.819422,126.13491 76.604032,122.65383 73.208911,125.21955 C 73.208911,125.93357 73.208911,126.64759 73.208911,127.36164 z M 80.974768,124.44002 C 80.170113,127.38904 82.590473,125.47462 84.279512,124.66308 C 84.319241,120.53712 87.298587,125.15678 84.448318,125.87268 C 82.572919,126.72869 80.645514,128.01165 78.80741,128.5615 C 79.790298,126.99974 79.790059,124.79927 79.679407,122.77545 C 77.747947,121.61185 80.13865,120.20207 82.575235,119.16288 C 84.772567,117.52237 86.025556,117.7933 85.113588,120.51121 C 84.107416,120.28978 83.225478,119.57265 80.974768,121.27427 C 80.200754,125.66914 83.497715,119.29854 83.407512,122.37723 C 83.385115,126.05517 82.530786,123.37641 80.974768,124.44002 z M 89.315627,120.77132 C 88.333014,123.24459 93.768323,120.08637 90.060359,123.0216 C 86.908782,124.91002 87.322973,123.91915 88.020268,121.35447 C 89.000127,118.595 86.220953,117.69978 88.099699,116.35351 C 91.626377,113.34045 96.508342,115.19796 91.247616,119.744 C 90.605655,120.14426 89.959763,120.43511 89.315627,120.77132 z M 89.315627,119.47595 C 92.861967,118.49409 92.902177,114.27126 89.315627,117.03687 C 89.315627,117.84989 89.315627,118.6629 89.315627,119.47595 z M 96.493834,116.55588 C 95.689174,119.5049 98.109562,117.59046 99.7986,116.77893 C 99.838306,112.65297 102.81769,117.27258 99.967404,117.98855 C 98.092001,118.84455 96.164591,120.12748 94.326475,120.67736 C 95.309368,119.1156 95.309125,116.91514 95.198475,114.89131 C 93.267009,113.72771 95.657712,112.31793 98.094297,111.27875 C 100.29162,109.63826 101.54465,109.90912 100.63268,112.62707 C 99.62651,112.40563 98.744558,111.68851 96.493834,113.39013 C 95.719824,117.785 99.016777,111.41438 98.9266,114.49308 C 98.904222,118.17101 98.049853,115.49231 96.493834,116.55588 z M 107.16636,112.24606 C 106.09882,112.47303 102.10977,115.01844 104.68305,114.48074 C 104.7996,116.72648 99.324911,118.06842 102.62198,114.56048 C 102.77666,113.21008 104.90601,109.52146 103.77854,109.68929 C 100.48006,110.5593 106.40479,105.90994 106.61163,107.7377 C 107.36523,109.21486 108.11883,110.692 108.87243,112.16916 C 111.86976,112.5737 103.56889,116.3838 107.37318,112.66862 C 107.30424,112.52774 107.2353,112.3869 107.16636,112.24606 z M 106.62925,111.22356 C 105.96443,109.14351 105.29761,108.96411 104.62736,112.02132 C 104.55171,112.57035 106.13043,111.33203 106.62925,111.22356 z M 113.97177,104.51083 C 114.15586,106.01633 113.60113,108.63601 114.25341,109.43547 C 117.77897,108.48701 112.63933,112.15259 111.14093,112.13513 C 111.77513,110.71186 113.40798,109.46419 112.6764,107.42023 C 113.50565,104.4441 110.76379,105.27558 111.09036,107.87034 C 109.31258,109.01466 109.32588,104.2112 111.94972,104.23827 C 113.38104,103.84861 116.18247,101.39408 116.68886,102.39837 C 117.16982,104.98204 115.36769,106.16835 115.11185,103.93163 C 114.73183,104.1247 114.3518,104.31776 113.97177,104.51083 z M 130.71036,98.041815 C 135.71305,99.098485 124.7872,107.65469 126.47043,102.95084 C 130.27897,103.05478 131.92943,98.152795 127.84794,99.451785 C 129.77615,98.214675 131.53706,94.355975 127.99644,96.788765 C 123.51202,100.78949 130.22128,91.347515 131.38808,95.075185 C 131.79229,95.762475 131.50377,97.052935 130.71036,98.041815 L 130.71036,98.041815 z M 135.41159,98.686505 C 136.75542,97.743445 140.76929,95.967415 138.7723,98.274525 C 136.99282,99.178555 135.2133,100.08261 133.43379,100.98665 C 132.70295,98.714095 141.68419,90.669285 135.87443,92.758075 C 132.57703,98.382095 134.20993,90.383225 137.6453,90.648375 C 141.79447,90.717315 137.34909,96.073435 135.41159,98.686505 L 135.41159,98.686505 z M 82.952566,130.62229 C 83.136664,132.12778 82.581932,134.74746 83.234206,135.54693 C 87.038664,133.87689 83.115415,137.55208 81.162515,137.89477 C 77.14039,139.07657 83.055301,136.24759 81.657179,134.37661 C 82.06492,131.77549 81.45789,131.22142 79.483513,131.73382 C 80.528841,130.28146 84.978584,127.63458 84.924035,129.44379 C 84.299768,130.05363 83.61121,130.24985 82.952566,130.62229 z M 92.841558,127.70255 C 90.778501,128.65079 88.662071,130.03717 86.636451,130.67803 C 86.65404,128.6228 90.180961,128.12231 91.812481,126.92999 C 92.801544,126.11409 95.030642,126.01017 92.841558,127.70255 L 92.841558,127.70255 z M 92.841558,130.14165 C 90.778501,131.08983 88.662052,132.4763 86.636451,133.11709 C 86.6553,131.06196 90.180177,130.56131 91.812481,129.36909 C 92.801535,128.55322 95.030632,128.44918 92.841558,130.14165 L 92.841558,130.14165 z M 100.65165,123.18507 C 101.91666,126.33073 96.329334,132.91479 95.122629,128.42514 C 93.783662,125.90067 97.431998,118.50403 100.15875,121.47033 L 100.52842,122.23506 L 100.65164,123.18507 L 100.65165,123.18507 z M 99.349931,123.84637 C 97.959378,117.8896 93.646843,130.73678 98.362623,127.93073 C 99.584134,126.53829 99.315967,125.09448 99.349931,123.84637 z M 80.968427,145.42052 C 80.914585,147.57227 83.368356,147.28225 79.746212,148.96708 C 77.889811,149.523 80.646766,145.80419 79.673062,144.04756 C 79.172583,142.22446 78.296494,141.75852 81.442336,140.44488 C 85.004519,137.76398 85.860066,141.51887 84.287409,143.72807 C 86.346596,143.57918 86.911181,146.51855 84.475889,145.98639 C 83.626794,145.18875 82.653169,144.18482 80.968427,145.42052 z M 80.968427,144.12517 C 84.578976,142.89843 84.363551,139.41736 80.968427,141.98308 C 80.968427,142.69709 80.968427,143.41111 80.968427,144.12517 z M 88.734284,141.20355 C 87.929625,144.15257 90.350017,142.23812 92.039046,141.42659 C 92.078799,137.30062 95.058127,141.92029 92.20786,142.6362 C 90.332447,143.4922 88.405032,144.77517 86.566926,145.32503 C 87.549856,143.76317 87.549548,141.56279 87.438926,139.53897 C 85.507483,138.37537 87.898172,136.96559 90.334753,135.92637 C 92.532089,134.28592 93.78509,134.55678 92.873133,137.27472 C 91.866975,137.05327 90.985004,136.33619 88.734284,138.0378 C 87.960275,142.43269 91.257251,136.06203 91.167056,139.14074 C 91.144668,142.81871 90.290304,140.13989 88.734284,141.20355 z M 97.075167,137.53484 C 96.092554,140.00807 101.52779,136.84992 97.819908,139.78512 C 94.66834,141.67353 95.082513,140.68267 95.779808,138.11799 C 96.759667,135.35853 93.980502,134.4633 95.859248,133.11703 C 99.385931,130.10396 104.26786,131.96149 99.007151,136.50752 C 98.36519,136.90778 97.719303,137.19863 97.075167,137.53484 z M 97.075167,136.23947 C 100.62149,135.25762 100.66169,131.03483 97.075167,133.80039 C 97.075167,134.61339 97.075167,135.42642 97.075167,136.23947 z M 104.25337,133.3194 C 103.44872,136.26842 105.86908,134.35398 107.55811,133.54246 C 107.59786,129.41648 110.57718,134.03616 107.72692,134.75207 C 105.85152,135.60806 103.92412,136.89103 102.08602,137.44088 C 103.0689,135.87913 103.06866,133.67865 102.95801,131.65483 C 101.02656,130.49122 103.41726,129.08143 105.85385,128.04221 C 108.05119,126.40177 109.30412,126.67265 108.39223,129.39058 C 107.38601,129.16921 106.5041,128.45202 104.25337,130.15365 C 103.47936,134.54852 106.77633,128.17788 106.68611,131.25661 C 106.66372,134.93455 105.8094,132.25576 104.25337,133.3194 z M 114.92591,129.00956 C 113.85837,129.23653 109.86932,131.78195 112.4426,131.24425 C 112.55917,133.48998 107.08444,134.83194 110.3815,131.324 C 110.5362,129.97361 112.66555,126.28498 111.5381,126.4528 C 108.23957,127.32287 114.16434,122.67345 114.37119,124.50119 C 115.12479,125.97834 115.87839,127.45551 116.63199,128.93267 C 119.62928,129.33725 111.3284,133.14727 115.13273,129.43213 C 115.0638,129.29125 114.99485,129.15041 114.92591,129.00956 z M 114.3888,127.98707 C 113.72398,125.90702 113.05716,125.72762 112.38691,128.78484 C 112.31126,129.33385 113.88998,128.09554 114.3888,127.98707 z M 121.73128,121.27436 C 121.91538,122.77985 121.36065,125.39952 122.01292,126.19899 C 125.53848,125.25054 120.39884,128.91611 118.90044,128.89865 C 119.53469,127.47532 121.16747,126.22771 120.43592,124.18375 C 121.26515,121.20764 118.52333,122.03909 118.8499,124.63385 C 117.07213,125.77817 117.08544,120.97466 119.70927,121.00178 C 121.14059,120.61212 123.94202,118.15759 124.44841,119.16188 C 124.92936,121.74558 123.12722,122.93187 122.87142,120.69513 C 122.49136,120.88822 122.11132,121.08129 121.73128,121.27436 z M 138.4699,114.80534 C 143.47257,115.86194 132.54684,124.41817 134.22995,119.71437 C 138.03848,119.81831 139.68901,114.91628 135.60749,116.21531 C 137.53569,114.97818 139.29655,111.11953 135.75598,113.55228 C 131.27157,117.55303 137.98083,108.111 139.14759,111.83872 C 139.55184,112.52598 139.26328,113.81647 138.4699,114.80534 L 138.4699,114.80534 z M 143.17114,115.45001 C 144.51496,114.50698 148.52884,112.73092 146.53185,115.03804 C 144.75234,115.94208 142.97285,116.84611 141.19334,117.75016 C 140.46246,115.47759 149.4437,107.43285 143.63397,109.52159 C 140.33661,115.14561 141.96944,107.14676 145.40482,107.4119 C 149.55402,107.48082 145.10864,112.83692 143.17114,115.45001 L 143.17114,115.45001 z M 88.727973,151.83123 C 88.674161,153.983 91.127873,153.69297 87.505725,155.37779 C 85.649349,155.93367 88.40633,152.21493 87.432614,150.45827 C 86.932131,148.63518 86.056022,148.16924 89.201887,146.85559 C 92.764107,144.17467 93.619563,147.92969 92.046954,150.1388 C 94.106108,149.9899 94.670749,152.92926 92.235438,152.39711 C 91.386339,151.59947 90.412717,150.59553 88.727973,151.83123 z M 88.727973,150.53588 C 92.338517,149.30913 92.123098,145.82807 88.727973,148.3938 C 88.727973,149.10781 88.727973,149.82182 88.727973,150.53588 z M 101.08762,146.10822 C 101.93287,149.78063 93.635313,152.98132 94.351738,148.67091 C 93.046698,145.26575 100.34489,139.05687 101.08762,142.24201 C 100.65585,144.32444 94.843063,142.96651 95.647097,148.01282 C 95.470171,152.32496 103.01826,144.94694 97.801843,147.60058 C 96.352403,146.58209 103.6455,143.16144 101.08762,146.10826 L 101.08762,146.10822 z M 102.93905,146.24187 C 102.80377,144.68922 103.20932,142.32102 102.73685,141.27688 C 100.45559,140.61315 107.8267,136.74618 108.38589,138.46229 C 107.70288,140.96988 110.91076,143.53041 106.25915,145.85054 C 105.27809,146.36735 99.53878,149.55409 102.93905,146.24187 z M 104.23442,142.39909 C 107.33635,141.60944 108.08848,137.80561 104.51334,140.37438 C 103.90652,140.5884 104.38951,141.92041 104.23442,142.39909 z M 104.23442,145.5838 C 107.13081,145.02754 109.45168,140.93412 105.10192,143.25373 C 103.57541,143.58302 104.46741,144.63546 104.23442,145.5838 z M 121.75024,131.61753 C 121.93434,133.12302 121.3796,135.74269 122.03188,136.54217 C 125.83636,134.87207 121.91314,138.54729 119.96021,138.88996 C 115.93805,140.07182 121.85301,137.24282 120.45488,135.37183 C 120.86264,132.77069 120.25557,132.21664 118.28121,132.72906 C 119.32651,131.27671 123.77628,128.62981 123.72174,130.43901 C 123.09746,131.04885 122.40889,131.24509 121.75024,131.61753 z M 127.80371,130.00182 C 124.60939,130.68385 127.51601,128.73221 128.20178,128.00413 C 129.07642,124.19097 129.03686,129.47329 131.48128,126.62965 C 130.86209,128.51705 129.54295,128.99223 130.65351,130.51924 C 129.06161,131.07815 128.85992,129.62721 127.50672,132.31376 C 126.04273,132.73614 127.44508,130.79219 127.80371,130.00182 z M 138.45729,125.35408 C 143.09505,127.78833 131.04776,135.10309 134.36742,127.84417 C 132.41594,126.32845 136.72788,119.54317 139.14604,122.26183 C 139.57494,122.97705 139.24804,124.31654 138.45729,125.35408 L 138.45729,125.35408 z M 138.00862,123.78746 C 134.58734,120.95243 134.45305,130.06507 138.00862,123.78746 L 138.00862,123.78746 z M 138.16029,127.52067 C 135.00906,124.23941 133.67232,134.00428 138.16029,127.52069 L 138.16029,127.52067 z M 144.07471,124.89514 C 146.99643,122.67822 144.79045,126.15041 144.22204,127.80573 C 142.59472,130.84069 143.56338,126.36346 144.00994,125.16024 L 144.07471,124.89514 z M 154.57665,114.94075 C 154.35471,117.31054 155.495,120.13087 152.49774,122.45157 C 149.67936,125.36155 147.31866,121.92758 150.065,120.13316 C 149.62414,124.1799 154.608,119.92305 153.28129,117.39336 C 154.78623,113.98144 148.42026,118.12843 152.27118,114.81131 C 153.61998,113.78537 158.91049,111.88353 154.57665,114.94075 z M 158.84187,114.23353 C 155.64755,114.91554 158.55417,112.96394 159.23994,112.23584 C 160.11458,108.42267 160.07502,113.70499 162.51944,110.86136 C 161.90025,112.74876 160.58111,113.22395 161.69167,114.75095 C 160.09977,115.30985 159.89808,113.85891 158.54488,116.54547 C 157.08089,116.96786 158.48324,115.02391 158.84187,114.23353 z M 169.49545,109.5858 C 174.13321,112.02005 162.08592,119.33481 165.40557,112.07587 C 163.4541,110.56016 167.76604,103.7749 170.1842,106.49354 C 170.61309,107.20875 170.2862,108.54825 169.49545,109.5858 L 169.49545,109.5858 z M 169.04678,108.01917 C 165.6255,105.18413 165.49121,114.29678 169.04678,108.01917 L 169.04678,108.01917 z M 169.19845,111.75238 C 166.04722,108.47111 164.71048,118.23598 169.19845,111.75241 L 169.19845,111.75238 z M 175.11287,109.12685 C 178.03459,106.90993 175.82861,110.38213 175.2602,112.03744 C 173.63288,115.0724 174.60154,110.59518 175.0481,109.39194 L 175.11287,109.12685 z M 186.00657,100.52788 C 187.27161,103.67352 181.68424,110.25764 180.47759,105.76792 C 179.13862,103.24345 182.78691,95.846835 185.51371,98.813105 L 185.88337,99.577875 L 186.00657,100.52788 L 186.00657,100.52788 z M 184.7049,101.18917 C 183.31432,95.232395 179.00174,108.07963 183.71756,105.27355 C 184.93906,103.88105 184.67096,102.43727 184.7049,101.18917 z M 89.315627,162.18249 C 88.333014,164.65577 93.768323,161.49753 90.060359,164.43277 C 86.908782,166.3212 87.322973,165.3303 88.020268,162.76564 C 89.000127,160.00614 86.220962,159.11095 88.099699,157.76469 C 91.626377,154.75162 96.508342,156.60909 91.247616,161.15517 C 90.605655,161.55543 89.959763,161.84628 89.315627,162.18249 z M 89.315627,160.8871 C 92.861967,159.90526 92.902177,155.68245 89.315627,158.44801 C 89.315627,159.26107 89.315627,160.07407 89.315627,160.8871 z M 98.47163,153.79649 C 98.655726,155.30202 98.100991,157.92166 98.753268,158.72114 C 102.55775,157.05107 98.634533,160.72628 96.681608,161.069 C 92.659423,162.25083 98.574382,159.42184 97.176276,157.55084 C 97.584025,154.94967 96.976971,154.39565 95.002578,154.90806 C 96.04791,153.4557 100.49767,150.80882 100.44313,152.61801 C 99.81885,153.22786 99.130284,153.42408 98.47163,153.79649 z M 106.43339,152.20977 C 107.06899,153.33392 111.00152,153.56708 107.93636,155.35125 C 105.30499,157.61682 107.44528,151.82169 105.07662,154.55741 C 104.00378,156.32908 105.47327,157.00456 102.70525,158.0088 C 100.23683,158.33355 105.52374,153.79203 104.39729,152.79961 C 103.21193,151.99806 100.5621,151.10437 104.01957,149.68265 C 104.17784,150.73399 106.31104,152.5217 106.41443,149.50227 C 107.86302,146.11396 110.21379,147.73719 107.20296,150.88326 C 106.94644,151.32542 106.68991,151.76761 106.43339,152.20977 z M 112.01292,150.08291 C 111.20827,153.03191 113.62863,151.1175 115.31767,150.30594 C 115.3574,146.18 118.33674,150.79966 115.48647,151.51558 C 113.61108,152.37157 111.68367,153.65454 109.84557,154.20439 C 110.82845,152.64263 110.82821,150.44217 110.71756,148.41834 C 108.7861,147.25475 111.17681,145.84493 113.61339,144.80573 C 115.81072,143.16526 117.06371,143.43618 116.15174,146.15411 C 115.14557,145.93267 114.26364,145.21554 112.01292,146.91712 C 111.23891,151.31202 114.53587,144.94143 114.44567,148.02011 C 114.42327,151.69806 113.56894,149.01929 112.01292,150.08291 z M 120.56232,142.57379 C 120.74642,144.0793 120.19168,146.69896 120.84396,147.49842 C 123.73565,147.67407 123.40591,142.51677 124.6506,144.62033 C 125.39643,146.76648 123.50915,147.61718 121.55258,148.43382 C 119.39769,149.97613 116.16718,150.56466 119.26693,148.01798 C 118.93774,146.73129 119.95439,143.41503 118.70366,143.51803 C 114.87705,143.82675 124.59761,138.55249 121.32057,142.18859 C 121.06782,142.31699 120.81506,142.44539 120.56232,142.57379 z M 137.26934,134.08614 C 137.45342,135.59166 136.89871,138.2113 137.55097,139.01077 C 141.35542,137.34078 137.4322,141.01595 135.47928,141.35864 C 131.45715,142.54047 137.37209,139.71148 135.97397,137.84047 C 136.38171,135.23932 135.77465,134.68529 133.80027,135.19772 C 134.84561,133.74535 139.29534,131.09847 139.2408,132.90767 C 138.61652,133.5175 137.92796,133.71374 137.26934,134.08614 z M 144.07471,135.24789 C 146.99643,133.03101 144.79045,136.50319 144.22204,138.15854 C 142.59472,141.19348 143.56338,136.71625 144.00994,135.51302 L 144.07471,135.24789 z M 154.57665,125.29352 C 154.35471,127.66333 155.495,130.48367 152.49774,132.80436 C 149.67936,135.71435 147.31866,132.28037 150.065,130.48596 C 149.62414,134.5327 154.608,130.27585 153.28129,127.74616 C 154.78623,124.33423 148.42026,128.48121 152.27118,125.16409 C 153.61998,124.13817 158.91049,122.23632 154.57665,125.29352 z M 90.712085,168.0914 C 90.896181,169.59689 90.341446,172.21655 90.993724,173.01604 C 94.798213,171.34596 90.874989,175.02116 88.922059,175.36386 C 84.899894,176.54569 90.814856,173.71669 89.416726,171.84571 C 89.824485,169.24453 89.217412,168.69053 87.243057,169.20292 C 88.288351,167.75059 92.738134,165.10368 92.683584,166.91289 C 92.059305,167.52273 91.370739,167.71895 90.712085,168.0914 z M 100.60107,165.17167 C 98.538009,166.11991 96.421582,167.5063 94.395963,168.14715 C 94.413608,166.09189 97.940491,165.59144 99.572016,164.3991 C 100.5611,163.58319 102.79021,163.47929 100.60107,165.17167 L 100.60107,165.17167 z M 100.60107,167.61077 C 98.538009,168.55894 96.421573,169.94543 94.395963,170.5862 C 94.414868,168.53106 97.939707,168.03044 99.572016,166.83819 C 100.56109,166.02231 102.7902,165.91831 100.60107,167.61077 L 100.60107,167.61077 z M 106.23118,160.20725 C 106.41528,161.71274 105.86055,164.3324 106.51282,165.13188 C 110.31726,163.46186 106.39401,167.13705 104.44112,167.47973 C 100.41899,168.66152 106.33394,165.83254 104.93582,163.96156 C 105.34357,161.36039 104.73651,160.80638 102.76212,161.31879 C 103.80744,159.86644 108.25719,157.21954 108.20264,159.02875 C 107.57838,159.63859 106.88982,159.83481 106.23118,160.20725 z M 113.99072,159.5952 C 114.6859,162.34351 112.09339,164.07431 112.69533,160.44916 C 110.68064,161.72413 108.91883,160.59813 112.25212,159.18311 C 112.68528,158.24591 113.40277,153.48143 113.99457,156.98174 C 112.9189,159.6942 119.2459,155.49195 115.27885,158.94081 C 114.84947,159.15894 114.4201,159.37707 113.99072,159.5952 z M 121.76289,150.29466 C 121.76289,152.65789 121.76289,155.02115 121.76289,157.3844 C 125.53007,155.37859 122.55331,159.02015 120.2545,159.44607 C 116.87883,161.08137 119.65901,158.55729 120.46754,157.4792 C 120.26789,156.1324 120.85597,153.36443 120.19512,152.84972 C 116.73622,155.35928 119.65045,151.17213 121.70304,150.34053 L 121.76289,150.29466 z M 84.740787,181.47779 C 84.518865,183.84755 85.659161,186.66786 82.661888,188.9886 C 79.843511,191.89856 77.482796,188.46464 80.22914,186.6702 C 79.788234,190.71696 84.772169,186.46007 83.445427,183.93039 C 84.950344,180.51848 78.584401,184.66545 82.435311,181.34833 C 83.784105,180.32243 89.074637,178.42054 84.740787,181.47779 z M 92.841558,179.46649 C 90.778501,180.41473 88.662071,181.80114 86.636451,182.44199 C 86.65404,180.38676 90.180961,179.8863 91.812481,178.69396 C 92.801544,177.87805 95.030642,177.77412 92.841558,179.46652 L 92.841558,179.46649 z M 92.841558,181.90557 C 90.778501,182.8538 88.662052,184.24027 86.636451,184.88106 C 86.6553,182.82593 90.180177,182.32528 91.812481,181.13305 C 92.801535,180.31718 95.030632,180.21317 92.841558,181.90561 L 92.841558,181.90557 z M 100.25985,173.59365 C 100.03793,175.96343 101.17823,178.78375 98.180954,181.10446 C 95.362592,184.01442 93.001848,180.58051 95.748206,178.78606 C 95.307314,182.83282 100.29124,178.57593 98.964486,176.04626 C 100.4694,172.63435 94.103466,176.78128 97.954402,173.46419 C 99.303223,172.43823 104.59373,170.53641 100.25985,173.59365 z M 106.23118,173.89005 C 106.92635,176.63837 104.33387,178.36916 104.93582,174.74402 C 102.92113,176.01899 101.15925,174.89303 104.49258,173.47797 C 104.92582,172.54085 105.64316,167.7763 106.23503,171.2766 C 105.15936,173.98907 111.48635,169.78683 107.5193,173.23567 C 107.08993,173.45381 106.66055,173.67193 106.23118,173.89005 z M 114.00335,164.58952 C 114.00335,166.95278 114.00335,169.31601 114.00335,171.67927 C 117.77059,169.67343 114.79378,173.31502 112.49495,173.74095 C 109.11929,175.37622 111.89948,172.85214 112.70798,171.77407 C 112.50834,170.42728 113.09642,167.6593 112.43556,167.14459 C 108.97666,169.65416 111.8909,165.46699 113.94349,164.6354 L 114.00335,164.58952 z"
       style="font-size:4px;font-style:normal;font-variant:normal;font-weight:bold;font-stretch:normal;text-align:start;line-height:80.00000119%;writing-mode:lr-tb;text-anchor:start;fill:#0ccd0a;fill-opacity:1;stroke:none;stroke-width:1px;stroke-linecap:butt;stroke-linejoin:miter;stroke-opacity:1;font-family:Courier New;-inkscape-font-specification:Courier New Bold" />
  </g>
</svg>
