<?xml version="1.0" encoding="UTF-8" standalone="no"?>
<!-- Created with Inkscape (http://www.inkscape.org/) -->

<svg
 xmlns:dc="http://purl.org/dc/elements/1.1/"
 xmlns:cc="http://creativecommons.org/ns#"
 xmlns:rdf="http://www.w3.org/1999/02/22-rdf-syntax-ns#"
 xmlns:svg="http://www.w3.org/2000/svg"
 xmlns="http://www.w3.org/2000/svg"
 xmlns:xlink="http://www.w3.org/1999/xlink"
 version="1.0"
 width="100%"
 height="100%"
 viewBox="0 0 640 480"
 id="svg2383">
<defs
 id="defs2385" />
  <g style="opacity:0.8" id="splashbg"><rect x="0" y="0" width="640" height="480" style="fill:black;fill-opacity:0.95;"/><path d="M 0 0 L 0 10 L 640 10 L 640 0 L 0 0 z M 0 20 L 0 30 L 640 30 L 640 20 L 0 20 z M 0 40 L 0 50 L 640 50 L 640 40 L 0 40 z M 0 60 L 0 70 L 640 70 L 640 60 L 0 60 z M 0 80 L 0 90 L 640 90 L 640 80 L 0 80 z M 0 100 L 0 110 L 640 110 L 640 100 L 0 100 z M 0 120 L 0 130 L 640 130 L 640 120 L 0 120 z M 0 140 L 0 150 L 640 150 L 640 140 L 0 140 z M 0 160 L 0 170 L 640 170 L 640 160 L 0 160 z M 0 180 L 0 190 L 640 190 L 640 180 L 0 180 z M 0 200 L 0 210 L 640 210 L 640 200 L 0 200 z M 0 220 L 0 230 L 640 230 L 640 220 L 0 220 z M 0 240 L 0 250 L 640 250 L 640 240 L 0 240 z M 0 260 L 0 270 L 640 270 L 640 260 L 0 260 z M 0 280 L 0 290 L 640 290 L 640 280 L 0 280 z M 0 300 L 0 310 L 640 310 L 640 300 L 0 300 z M 0 320 L 0 330 L 640 330 L 640 320 L 0 320 z M 0 340 L 0 350 L 640 350 L 640 340 L 0 340 z M 0 360 L 0 370 L 640 370 L 640 360 L 0 360 z M 0 380 L 0 390 L 640 390 L 640 380 L 0 380 z M 0 400 L 0 410 L 640 410 L 640 400 L 0 400 z M 0 420 L 0 430 L 640 430 L 640 420 L 0 420 z M 0 440 L 0 450 L 640 450 L 640 440 L 0 440 z M 0 460 L 0 470 L 640 470 L 640 460 L 0 460 z " style="fill:black;"/></g>
<path
 d="m 322.69754,28.797217 0,244.531253 23.03125,0 c -8.62696,5.63721 -16.78759,11.09185 -18.3125,12.875 -2.60134,3.04189 -3.77428,7.50574 -4.78125,9.6875 -1.00697,2.16079 -0.98512,3.47755 -0.125,5.21875 0.86012,1.74122 11.11741,10.8298 13.71875,12.84375 2.60134,2.03492 6.22118,2.34374 7.375,2.34375 1.15382,0 29.9481,-22.56039 34.4375,-25.875 3.49009,-2.60528 16.2286,-12.41884 22.25,-17.09375 l 34.65625,0 c -26.50781,23.48919 -58.29278,51.87669 -59.40625,52.96875 -1.88757,1.88757 -15.4255,23.31974 -15.0625,22.59375 0,1e-5 21.09318,-9.78096 23.34375,-10.90625 1.55151,-0.77576 45.6562,-39.67452 73.84375,-64.6875 l 109.53125,0 0.15625,-191.812503 c 11.09813,3.805936 18.98044,6.499478 20,6.8125 4.29727,1.270498 12.67428,3.501327 16,3.875 3.36308,0.373676 13.75661,2.099866 15.625,2.0625 1.90575,-0.03737 2.55655,-2.491073 0.875,-3.5 -2.42889,-1.457336 -12.37501,-7.312502 -12.375,-7.3125 l -0.1875,-0.5625 c 0,0 -13.58237,-6.505293 -19.1875,-8 -1.3565,-0.355058 -9.43234,-2.850006 -20.75,-6.375 l 0.0313,-39.6875 -217.84375,0 -26.84375,0 z"
 id="path4829"
 style="fill:none;stroke:#ffffff;stroke-width:25;stroke-miterlimit:4;stroke-opacity:1;stroke-dasharray:none;display:inline" />
<rect
 width="245.25548"
 height="242.91971"
 x="322.33575"
 y="29.197081"
 id="rect3230"
 style="fill:#ffd6ae;fill-opacity:1;fill-rule:nonzero;stroke:#000000;stroke-width:2.7166121;stroke-linecap:butt;stroke-linejoin:miter;stroke-miterlimit:4;stroke-opacity:1;stroke-dasharray:none;stroke-dashoffset:0;marker:none;visibility:visible;display:inline;overflow:visible;enable-background:accumulate" />
<text
 x="403.34784"
 y="220.1582"
 transform="scale(1.0972678,0.9113545)"
 id="text12108"
 xml:space="preserve"
 style="font-size:11.92286873px;font-style:normal;font-weight:normal;fill:#000000;fill-opacity:1;stroke:none;font-family:Bitstream Vera Sans"><tspan
 x="403.34784"
 y="220.1582"
 id="tspan12110" /></text>
<g
 transform="matrix(2.0978526,0,0,2.0978526,315.78493,230.78587)"
 id="eraser02"
 style="display:inline">
<path
 d="m 44.21,11.05 c 1.17,0.96 0.69,2.34 0.35,3.1 -0.35,0.76 -2.21,4.48 -2.69,4.89 -0.48,0.42 -10.07,7.79 -12.2,9.38 C 27.53,30 13.81,40.76 13.26,40.76 12.71,40.76 10.99,40.62 9.75,39.65 8.51,38.69 3.61,34.35 3.2,33.52 2.79,32.69 2.79,32.07 3.27,31.04 3.75,30 4.3,27.87 5.54,26.42 c 1.24,-1.45 11.65,-8 16.75,-11.37 5.1,-3.38 11.17,-7.24 11.72,-7.45 0.55,-0.2 1.24,-0.41 2.14,-0.14 0.89,0.28 7.37,3.04 8.06,3.59 z"
 id="p2618"
 style="fill:#de5533;fill-opacity:1;fill-rule:evenodd;stroke:none" />
<path
 d="m 44.96,12.5 c 0.03,0.62 -0.22,1.23 -0.41,1.65 -0.34,0.76 -2.2,4.49 -2.69,4.91 -0.48,0.41 -10.05,7.79 -12.18,9.37 -2.14,1.59 -15.86,12.32 -16.41,12.32 -0.15,0 -0.42,-0.03 -0.72,-0.07 1.07,-1.76 1.77,-4.24 2.41,-5.09 0.81,-1.08 14.58,-11.51 17.81,-13.94 2.54,-1.9 9,-7.48 12.19,-9.15 z"
 id="p3425"
 style="fill:#3d0902;fill-opacity:0.25;fill-rule:evenodd;stroke:none;display:inline" />
<path
 d="m 35.52,7.34 c 0.2,0.01 0.4,0.05 0.63,0.12 0.89,0.28 7.37,3.05 8.06,3.6 1.17,0.96 0.69,2.33 0.34,3.09 -0.34,0.76 -2.2,4.49 -2.69,4.91 -0.29,0.25 -3.6,2.81 -6.9,5.34 0.06,-2.16 -0.11,-4.45 -0.41,-4.94 -0.41,-0.69 -0.46,-0.84 -1.22,-1.18 -0.56,-0.26 -5.69,-3.18 -8.87,-4.63 4.49,-2.94 9.09,-5.88 9.56,-6.06 0.41,-0.16 0.9,-0.3 1.5,-0.25 z"
 id="p3394"
 style="fill:#678aa6;fill-opacity:1;fill-rule:evenodd;stroke:none;display:inline" />
<path
 d="m 35.52,7.34 c 0.06,0 0.13,0.02 0.19,0.03 0.11,0.16 0.85,0.44 0.87,0.28 1.53,0.57 6.99,2.9 7.63,3.41 1.17,0.96 0.69,2.33 0.34,3.09 -0.06,0.15 -0.34,0.65 -0.5,0.97 -0.13,-0.16 -0.33,-0.36 -0.75,-0.59 -0.18,0.63 0.23,0.94 0.56,1 -0.24,0.49 -0.39,0.79 -0.68,1.34 -0.02,-0.15 -0.2,-0.38 -0.63,-0.69 L 42.24,15.9 41.9,15.71 c -1.35,1.01 0.84,1.68 1.21,1.32 -0.51,0.95 -1.03,1.84 -1.25,2.03 -0.13,0.11 -1.87,1.46 -3.09,2.4 -0.07,-0.02 -0.13,-0.04 -0.22,-0.06 -0.1,0.16 -0.14,0.27 -0.19,0.38 -0.06,0.05 -0.08,0.07 -0.15,0.12 0,-0.03 -0.07,-0.07 -0.22,-0.06 -0.19,0.2 -0.03,0.21 0.09,0.16 -3.13,2.42 -7,5.4 -8.4,6.43 -0.09,0.06 -0.57,0.44 -0.69,0.53 -0.17,0.03 -0.22,0.09 -0.19,0.16 -0.14,0.11 -0.6,0.46 -0.78,0.59 -0.1,-0.02 -0.21,-0.07 -0.41,-0.06 -0.13,0.24 -0.2,0.41 -0.21,0.53 -0.15,0.11 -0.38,0.29 -0.54,0.41 -0.05,0 -0.09,-0.01 -0.15,0 -0.02,0.06 -0.02,0.1 -0.03,0.16 -0.29,0.22 -0.64,0.46 -0.97,0.71 -0.05,-0.02 -0.09,-0.03 -0.16,-0.06 -0.04,0.09 -0.06,0.16 -0.06,0.22 -0.12,0.09 -0.19,0.19 -0.31,0.28 -0.04,-0.13 -0.22,-0.23 -0.66,-0.25 -0.26,0.48 -0.22,0.71 -0.09,0.78 -0.37,0.29 -0.55,0.45 -0.94,0.75 -0.12,-0.16 -0.37,-0.41 -0.84,-0.68 0.27,0.41 0.51,0.65 0.68,0.78 -0.11,0.09 -0.16,0.12 -0.28,0.22 -0.58,-0.37 -1.25,-0.51 -1.87,-0.29 -0.73,0.29 -1.17,-0.68 -1.35,-1.21 -0.64,1.17 -0.38,2.59 0.35,3.71 -0.33,0.26 -0.59,0.45 -0.91,0.69 -0.7,-0.37 -1.39,-0.76 -1.78,-1.5 -0.86,0.77 -0.51,1.87 0.22,2.69 -2.31,1.74 -4.25,3.16 -4.44,3.16 -0.04,0 -0.13,0 -0.19,0 0.06,-0.19 0.1,-0.45 0.07,-0.88 -0.16,-0.62 -0.49,-1.2 -0.94,-1.66 -0.74,0.56 -0.33,1.83 0.15,2.44 C 11.71,40.56 10.9,40.36 10.15,39.9 9.79,38.56 9.42,37.21 9.18,35.84 9.09,37.02 9.19,38.19 9.4,39.34 8.65,38.73 7.37,37.62 6.08,36.43 5.87,33.21 5.89,29.96 6.21,26.75 5.43,29.59 4.83,32.7 5.24,35.65 4.73,35.17 4.25,34.71 3.9,34.34 3.96,34.24 3.99,33.86 3.96,33.09 3.88,32.56 3.74,32.05 3.55,31.56 3.3,32.27 3.54,33.72 3.74,34.18 3.48,33.9 3.27,33.66 3.21,33.53 2.8,32.7 2.79,32.06 3.27,31.03 3.43,30.68 3.6,30.19 3.8,29.65 3.96,30.42 4.22,31.18 4.55,31.9 4.74,30.19 5.48,28.32 5.46,26.56 5.49,26.52 5.52,26.47 5.55,26.43 5.88,26.05 6.87,25.28 8.21,24.34 8.38,24.38 8.52,24.35 8.65,24.25 8.6,24.2 8.56,24.16 8.52,24.12 8.7,23.99 8.95,23.85 9.15,23.71 c 0.3,0 0.58,-0.18 0.84,-0.53 -0.01,-0.01 -0.02,-0.02 -0.03,-0.03 2.37,-1.61 4.88,-3.24 7.59,-5 0.06,-0.04 0.1,-0.09 0.16,-0.12 1.12,-0.73 2.33,-1.47 3.28,-2.1 0.39,1.49 2.99,3.32 3.5,0.63 0.31,-0.83 -0.32,-1.96 -1.16,-2.16 0.35,-0.23 0.66,-0.43 1,-0.65 0.01,-0.01 0.03,0 0.03,0 0.24,0.11 0.5,-0.15 0.57,-0.41 4.33,-2.83 8.64,-5.58 9.09,-5.75 0.41,-0.16 0.9,-0.3 1.5,-0.25 z M 34.15,7.87 C 34.12,7.9 34.29,8.16 34.24,7.93 34.17,7.87 34.15,7.86 34.15,7.87 z m 2.25,0.81 c -2.31,1.99 3.92,2.39 1.4,0.38 C 37.36,8.83 36.89,8.68 36.4,8.68 z m 4.34,1.03 c 0.27,0.35 0.6,0.62 0.69,0.66 -0.03,-0.05 -0.21,-0.26 -0.69,-0.66 z m -7.59,0.35 c -2.2,0.83 2.28,3.12 0.37,0.81 l -0.22,-0.41 -0.15,-0.4 z m 5.93,1.06 c -2.26,0.6 0.96,1.97 0,0 z m 2.5,0.41 c 0.33,1.03 1.65,1.31 0.32,0.25 l -0.32,-0.25 z m -1.25,0.12 c -1.54,0.95 1.84,1.56 0,0 z m -3.37,0.22 c -1.53,0.12 -0.48,0.94 0,0.84 -0.08,0.31 1.28,0.94 0.69,-0.12 -0.24,-0.02 -0.42,-0.03 -0.54,0 0.08,-0.12 0.06,-0.34 -0.15,-0.72 z m 0.15,0.72 c -0.03,0.06 -0.08,0.11 -0.15,0.12 0.01,-0.05 0.04,-0.1 0.15,-0.12 z M 29.05,11.9 c -1.43,1.46 1.62,1.13 0,0 z m 2.47,0.19 c -1.95,0.11 0.97,4.49 0.5,1.47 -0.12,-0.47 -0.17,-0.97 -0.03,-1.44 -0.18,-0.03 -0.34,-0.04 -0.47,-0.03 z m 1.19,0.19 c -1.38,1.14 2.07,2.27 0.22,0.43 -0.08,-0.14 -0.14,-0.29 -0.22,-0.43 z m 11.62,0.4 c 0.2,0.06 0.38,0.13 0.57,0.22 -0.16,-0.12 -0.33,-0.21 -0.57,-0.22 z M 28.15,13 c -1.2,1.75 1.78,0.74 0,0 z m 1.68,0.43 c -0.76,0.65 0.89,0.35 0,0 z m 9.07,0.22 c -1.7,0.37 1.19,1.71 0,0.03 l 0,-0.03 z m 2.75,0.25 c -0.28,0.69 0.73,0.57 0,0 z m -14.94,0 c -0.04,-0.01 -0.12,0.01 -0.22,0.03 -0.46,0.65 0.51,0.02 0.22,-0.03 z m 12.87,0.25 c -2.39,1.43 3.11,2.85 1,0.63 -0.28,-0.28 -0.63,-0.48 -1,-0.63 z m -3.62,0.22 c -0.53,0.3 0.56,0.15 0,0 z m -5.56,0.22 c -1.05,1.86 1.94,1.04 0,0 z m -4.72,0.25 c -0.58,0.74 0.93,-0.01 0,0 z m 1.93,0.03 c -0.04,-0.04 -0.14,-0.01 -0.34,0.13 0.08,0.6 0.48,-0.02 0.34,-0.13 z m 7.38,0.16 c -0.34,-0.07 0.45,0.68 0.22,0.09 -0.1,-0.05 -0.17,-0.08 -0.22,-0.09 z m 1.94,0.22 c -0.94,1.58 2.76,4.74 1.59,1.5 -0.38,-0.64 -0.92,-1.18 -1.59,-1.5 z m -8.75,0.12 c -1.24,1.38 1.72,0.08 0,0 z m 8.09,0.16 c -0.18,1.63 0.87,1.18 0,0 z m -2.5,0.31 c -0.01,-0.03 -0.08,0 -0.22,0.09 -0.17,0.44 0.25,-0.01 0.22,-0.09 z m 1.69,0.12 c -0.2,0.59 0.68,0.18 0,0 z m -6.19,0.38 c -1.11,1.45 1.75,0.05 0,0 z m 5.41,0.03 c -1.27,1.53 1.96,0.81 0,0 z m -8.91,0.31 c -2.36,-0.03 0.52,2.23 0,0 z m 0.44,0.28 c -0.28,-0.01 0.31,0.56 0.19,0.07 C 26.32,17 26.25,16.97 26.21,16.96 z m 7.12,0.13 c -1.11,1.5 1.88,0.16 0,0 z m -13.78,0 c -0.08,0 -0.19,0 -0.34,0.06 -0.23,1.14 0.89,-0.05 0.34,-0.06 z m 20.1,0.28 c -2.43,1.53 3.25,2.94 0.96,0.59 -0.31,-0.21 -0.65,-0.37 -0.96,-0.59 z m -18.54,0 c -0.16,0 -0.35,0.03 -0.62,0.13 0.62,1.9 1.77,-0.11 0.62,-0.13 z m 5.85,0.28 c -1.68,0.56 1.39,0.72 0,0 z m -8.41,0.44 c -0.45,0.18 0.4,0.11 0,0 z m 1.5,0.09 c -0.12,-0.05 -0.35,0 -0.69,0.19 0.07,1.84 1.23,0.02 0.69,-0.19 z m 3.41,0.13 c -1.64,0.29 0.97,0.1 0,0 z m 0.78,0.47 c -0.7,0.07 0.62,1.97 0.84,0.31 -0.41,-0.24 -0.68,-0.33 -0.84,-0.31 z m 3.66,0.09 c -0.01,-0.02 -0.06,-0.01 -0.16,0.06 -0.01,0.05 0,0.08 0,0.1 0.05,-0.03 0.18,-0.13 0.16,-0.16 z m 2.03,0.06 c -0.05,0 -0.12,0.03 -0.22,0.07 -0.1,0.78 0.58,-0.05 0.22,-0.07 z m 8.09,0.16 c -0.06,0.01 -0.03,0.49 0.09,0.19 -0.04,-0.15 -0.07,-0.2 -0.09,-0.19 z m -11.97,0.03 c -1.92,0.09 1.02,1.3 0,0 z m -10.06,0.13 c 0.08,0.86 1.07,0.17 0,0 z m 6.22,0.43 c -0.1,0 -0.22,0.02 -0.35,0.03 -0.08,1.97 1.79,0 0.35,-0.03 z m 9.75,0.66 c -0.06,0 -0.14,0.01 -0.25,0.06 0.02,0.79 0.67,-0.09 0.25,-0.06 z m -3.53,0.09 c -2.55,0.79 2.45,1.16 0,0 z m -13.72,0.13 c -1.67,1.1 2.2,1.28 0,0 z m 6.69,0.19 c -0.08,-0.01 -0.16,0 -0.29,0.03 0.18,0.8 0.8,0.03 0.29,-0.03 z m -5.32,0.03 c -0.28,0.92 1.07,-0.07 0,0 z m 20.35,0.25 c -0.03,0.01 -0.08,0.04 -0.13,0.09 -0.11,0.62 0.3,-0.16 0.13,-0.09 z m -5.28,0.06 c -0.03,-0.01 -0.09,-0.02 -0.16,0 -0.18,0.44 0.37,0.03 0.16,0 z m -6.44,0.25 c -0.79,0.34 0.68,0.12 0,0 z m -1.91,0.03 c -0.13,0.02 0.58,0.99 0.47,0.41 -0.29,-0.3 -0.42,-0.42 -0.47,-0.41 z m 12.78,0.22 c -0.1,-0.01 -0.21,-0.02 -0.34,0 0.25,1.98 1.89,0.06 0.34,0 z m -9.93,0.16 c -0.97,0.22 0.74,0.18 0,0 z m -9.69,0.15 c -0.52,0.4 0.66,0.38 0,0 z m 3.15,0.1 c -0.05,0.04 0.23,0.47 0.19,0.12 C 19.19,22 19.13,21.98 19.11,22 z m -1.96,0.03 c -0.16,0.82 0.58,0.24 0,0 z m 16.25,0.25 c -1.79,-0.17 1.16,0.98 0,0 z m -4.85,0.15 c -0.03,-0.04 -0.05,-0.01 -0.09,0.16 0.19,0.66 0.18,-0.04 0.09,-0.16 z m -11.97,0.19 c -1.89,1.31 1.57,1.22 0,0 z m 10.85,0.03 c -0.95,0.21 1.54,0.23 0,0 z m -1.66,0.1 c -0.1,-0.02 -0.21,-0.02 -0.37,0 0.32,0.85 1.05,0.1 0.37,0 z m -13.56,0.21 c -2.61,1.08 2.86,3.36 0.81,0.88 -0.27,-0.29 -0.54,-0.59 -0.81,-0.88 z m 18.31,0.32 c -1.39,0.88 1.58,0.36 0,0 z m 1.81,0.09 c -0.76,1.65 2.33,0.06 0.07,0.03 l -0.07,-0.03 z m -10.37,0.19 c -0.11,-0.02 -0.25,-0.01 -0.47,0.03 -0.46,1.43 1.21,0.1 0.47,-0.03 z m -1.63,0.09 c -0.85,1.96 2.03,0.24 0,0 z m 14.85,0.28 c -0.01,-0.02 -0.07,-0.02 -0.25,0.07 -0.21,0.4 0.28,0.01 0.25,-0.07 z m -17.66,0.32 c -0.95,-0.11 0.79,1.49 0.59,0.15 -0.25,-0.1 -0.45,-0.14 -0.59,-0.15 z m 9.06,0.34 c -0.08,0 -0.16,0.03 -0.28,0.06 -0.91,1.86 1.49,-0.15 0.28,-0.06 z m -1.15,0.25 c -0.02,-0.04 -0.09,-0.02 -0.25,0.09 -0.08,0.6 0.31,0.03 0.25,-0.09 z m -2.63,0.28 c -0.06,0.11 0.84,1.1 0.47,0.28 -0.31,-0.25 -0.45,-0.32 -0.47,-0.28 z M 8.02,25.34 c -0.3,1.7 2.3,1.05 0,0 z m 20.28,0.03 c -2.05,2.4 4.56,1.83 1.63,0.22 -0.54,-0.06 -1.1,-0.08 -1.63,-0.22 z m 5.91,0.22 c -0.48,0.27 -0.29,0.16 0,0 z m -22.31,0 c -0.89,1.92 1.92,0.84 0,0 z m 12.25,0.09 c -0.86,1.4 1.9,0.7 0,0 z m -2.57,0.13 c -0.44,2.02 2,0.56 0,0 z M 18.9,25.87 C 18.16,25.83 20.44,27.39 19.43,26 19.18,25.91 19,25.88 18.9,25.87 z M 7.15,26.03 c -0.1,-0.02 -0.24,-0.02 -0.44,0.03 -0.4,1.41 1.14,0.08 0.44,-0.03 z m 7.78,0.59 c -1.89,1.16 1.31,1.71 0,0 z m 0.72,0.13 c -1.42,1.94 2,1.15 0,0 z M 27.27,27 c -0.08,0 -0.18,0.04 -0.31,0.09 0.1,0.92 0.85,-0.11 0.31,-0.09 z m -8.59,0.28 c -0.1,-0.01 -0.22,-0.01 -0.35,0 -0.26,1.88 1.78,0.11 0.35,0 z M 8.15,27.62 C 6.19,29.03 11.2,30.46 8.77,28.28 8.56,28.06 8.35,27.85 8.15,27.62 z m 11.62,0.09 c -2.24,2 3.94,2.58 1.41,0.54 -0.41,-0.29 -0.9,-0.51 -1.41,-0.54 z m 9.19,0.35 c -0.52,-0.13 -0.24,1.07 0.28,0.15 -0.11,-0.08 -0.21,-0.13 -0.28,-0.15 z m -15.31,0 c -0.8,1.33 1.91,1.29 0,0 z m -2.63,0.03 c -0.54,0.83 0.95,0.09 0,0 z m 5.81,0.19 c -3.12,0.42 2.21,4.29 0.91,1.12 -0.3,-0.37 -0.61,-0.74 -0.91,-1.12 z m 6.72,0.06 c -0.92,2.08 2.09,0.8 0,0 z m 1.06,0.06 c -0.31,0.88 1.09,0.29 0,0 z m -17.71,0 c 0.02,1.27 -1.31,3.6 0.62,4 0.23,-1.35 0.14,-2.82 -0.62,-4 z m 19.68,0.13 c -0.89,1.39 1.53,-0.04 0,0 z m -15.84,0.72 c -0.18,0.98 1.07,0.02 0,0 z m 2.09,0.5 c 0.15,1.91 1.86,-0.03 0,0 z m 13.19,0.56 c -0.97,0.46 0.83,0.18 0,0 z m -15.34,0.06 c -0.04,-0.01 -0.09,-0.01 -0.19,0 -0.63,0.55 0.42,0.07 0.19,0 z m 1.47,0.06 c -0.75,0.18 0.56,0.19 0,0 z m 12.78,0.35 c -0.01,-0.02 -0.06,-0.02 -0.16,0.03 -0.08,0.21 0.19,0.01 0.16,-0.03 z m -9.22,0.15 c -0.48,0.9 0.97,0.01 0,0 z m 7.44,0.25 c -1.18,1.62 2.23,0.8 0,0 z m -3.97,0 c -0.96,0.29 0.75,0.19 0,0 z m -6.41,0.13 c 0.05,2.18 2.28,0.21 0,0 z m -1.59,0.09 c -2.85,-0.37 1.03,4.24 0.34,0.85 -0.03,-0.3 -0.13,-0.62 -0.34,-0.85 z m 6.56,0.69 c -0.52,-0.2 0.4,1.24 0.31,0.19 -0.14,-0.11 -0.24,-0.16 -0.31,-0.19 z m -5.53,0.75 c -1.42,1.42 0.68,6.73 2.25,4 -0.07,-1.61 -1.32,-2.81 -2.25,-4 z m 2.9,0.09 c -0.91,1.67 1.62,0.97 0,0 z M 8.61,33 c -0.51,0.75 0.45,0.4 0,0 z m 8.82,0.34 c -0.03,-0.01 -0.08,-0.01 -0.16,0 -0.56,0.44 0.33,0.05 0.16,0 z m -3.82,0.19 c 0.08,1.04 0.64,0.09 0,0 z m -3.93,0.18 c 0,1.43 0.05,6.08 1.9,4.72 -0.08,-1.74 -0.88,-3.34 -1.9,-4.72 z m 6.84,0.16 c -0.09,-0.01 -0.19,0 -0.31,0 -0.77,1.95 1.65,0.19 0.31,0 z m 1.56,0.22 c -0.01,-0.03 -0.06,-0.03 -0.18,0.03 -0.07,0.42 0.24,0.07 0.18,-0.03 z M 7.61,34.12 C 6.18,34.8 8.01,37.53 7.58,35 7.59,34.71 7.61,34.41 7.61,34.12 z m 7.54,1 c -0.5,1.97 1.91,0.19 0,0 z m 0,1.5 c -1.13,1.3 1.6,0.35 0,0 z m 1.68,0.09 c -0.06,-0.01 -0.16,-0.01 -0.28,0 -0.22,0.75 0.7,0.12 0.28,0 z"
 id="p3444"
 style="fill:#300700;fill-opacity:0.02000002;fill-rule:evenodd;stroke:none" />
<path
 d="m 5.18,26.93 c 0.55,0.08 1.12,0.27 1.62,0.66 1.17,0.9 5.4,4.77 5.94,5.31 0.54,0.54 0.63,0.56 1.34,1.1 0.81,1.88 -0.09,3.21 -0.81,4.56 -0.32,0.6 -0.84,1.36 -1.47,2 0,0 -0.02,-0.01 -0.03,0 C 11.12,40.4 10.36,40.13 9.74,39.65 8.5,38.69 3.62,34.35 3.21,33.53 2.8,32.7 2.79,32.06 3.27,31.03 3.7,30.11 4.2,28.34 5.18,26.93 z"
 id="p3413"
 style="fill:#f7a341;fill-opacity:0.2;fill-rule:evenodd;stroke:none;display:inline" />
<path
 d="m 44.3,14.65 c -0.2,0.42 -0.48,0.96 -0.84,1.66 -1.37,1.03 -7.64,5.78 -14.28,10.78 -3.48,2.61 -6.91,5.18 -9.5,7.12 -1.36,1.02 -2.9,2.28 -4.1,3.04 -1.18,0.74 -1.84,1.77 -3.31,0.62 -1.47,-1.15 -5.78,-4.4 -8.94,-7 0.18,-0.41 0.37,-0.94 0.6,-1.53 0.03,0.02 0.06,0.07 0.09,0.09 3.13,2.63 6.57,5.04 9.78,7.57 0.38,0.26 0.65,0.05 1,-0.16 1.45,-1.09 2.92,-2.17 4.38,-3.25 2.59,-1.94 6.02,-4.54 9.5,-7.16 6.94,-5.22 14.03,-10.53 14.93,-11.22 0.01,0 0.03,-0.03 0.04,-0.03 0,0 -0.01,-0.02 0,-0.03 0.03,-0.03 0.08,-0.06 0.12,-0.09 0.08,-0.07 0.17,-0.13 0.28,-0.22 0.07,-0.06 0.17,-0.13 0.25,-0.19 z"
 id="p3396"
 style="fill:#ede3c3;fill-opacity:0.87000002;fill-rule:evenodd;stroke:none;display:inline" />
<path
 d="m 5.93,26.09 c 0.24,0.63 0.36,1.4 0.72,1.87 0.54,0.72 7.06,4.93 7.87,5.47 0.81,0.54 0.83,1.1 1.09,1.91 0.19,0.55 -0.57,2.6 -1.68,5.06 -0.35,0.23 -0.6,0.35 -0.66,0.35 -0.55,0 -2.29,-0.13 -3.53,-1.1 C 8.5,38.69 3.62,34.35 3.21,33.53 2.8,32.7 2.79,32.06 3.27,31.03 3.75,29.99 4.31,27.88 5.55,26.43 5.62,26.35 5.81,26.2 5.93,26.09 z"
 id="p3416"
 style="fill:#f7c941;fill-opacity:0.15;fill-rule:evenodd;stroke:none;display:inline" />
<path
 d="m 44.9,12.15 c 0.15,0.74 -0.12,1.51 -0.35,2 -0.34,0.76 -2.2,4.49 -2.69,4.91 -0.48,0.41 -10.05,7.79 -12.18,9.37 -2.14,1.59 -15.86,12.32 -16.41,12.32 -0.15,0 -0.42,-0.03 -0.72,-0.07 0.62,-2.31 1.57,-5.57 2.16,-6.09 0.72,-0.63 20.49,-15.99 22.37,-17.16 1.56,-0.96 5.94,-4.48 7.82,-5.28 z"
 id="p3431"
 style="fill:#1d0400;fill-opacity:0.18000004;fill-rule:evenodd;stroke:none;display:inline" />
<path
 d="m 44.9,12.15 c 0.15,0.74 -0.12,1.51 -0.35,2 -0.34,0.76 -2.2,4.49 -2.69,4.91 -0.29,0.25 -3.6,2.81 -6.9,5.34 0.06,-2.16 -0.11,-4.45 -0.41,-4.94 -0.03,-0.04 -0.03,-0.08 -0.06,-0.12 1.25,-0.94 2.26,-1.7 2.59,-1.91 1.56,-0.96 5.94,-4.48 7.82,-5.28 z"
 id="p3428"
 style="fill:#000e30;fill-opacity:0.12000002;fill-rule:evenodd;stroke:none;display:inline" />
<path
 d="m 44.21,11.05 c 1.17,0.96 0.69,2.34 0.35,3.1 -0.35,0.76 -2.21,4.48 -2.69,4.89 -0.48,0.42 -10.07,7.79 -12.2,9.38 C 27.53,30 13.81,40.76 13.26,40.76 12.71,40.76 10.99,40.62 9.75,39.65 8.51,38.69 3.61,34.35 3.2,33.52 2.79,32.69 2.79,32.07 3.27,31.04 3.75,30 4.3,27.87 5.54,26.42 c 1.24,-1.45 11.65,-8 16.75,-11.37 5.1,-3.38 11.17,-7.24 11.72,-7.45 0.55,-0.2 1.24,-0.41 2.14,-0.14 0.89,0.28 7.37,3.04 8.06,3.59 z"
 id="stroke01"
 style="fill:none;stroke:#1c1212;stroke-width:0.5;stroke-linecap:butt;stroke-linejoin:round;stroke-miterlimit:4;stroke-opacity:1;stroke-dasharray:none;display:inline" />
</g>
<g
 transform="matrix(3.6299544,0,0,3.6299544,345.81624,193.86555)"
 id="pencil02"
 style="display:inline">
<path
 d="m 4.04,42.71 c 0,0 5.81,-2.7 6.43,-3.01 0.62,-0.31 26.55,-23.13 26.75,-23.54 0.21,-0.42 0.73,-1.04 1.35,-1.35 0.62,-0.31 1.04,-0.62 1.45,-1.04 0.42,-0.41 1.04,-1.03 1.45,-1.34 0.42,-0.31 1.25,-1.25 1.25,-1.25 0,0 1.55,-1.24 1.66,-1.66 C 44.48,9.11 43.96,8.38 43.44,7.76 42.93,7.14 42.3,6.62 41.99,6.72 c -0.31,0.11 -2.17,2.08 -2.8,2.49 -0.62,0.42 -1.35,1.14 -1.86,1.56 -0.52,0.41 -2.29,2.18 -3.01,2.59 C 33.59,13.77 8.71,35.97 8.19,36.48 7.67,37 3.94,42.91 4.04,42.71 z"
 id="p2752"
 style="fill:#d6964c;fill-opacity:1;fill-rule:evenodd;stroke:none" />
<path
 d="m 35.59,12.71 c -0.18,-0.03 -0.38,0.03 -0.56,0.13 -0.11,0.09 -0.19,0.14 -0.28,0.22 -0.1,0.09 -0.2,0.19 -0.29,0.34 -0.14,0.1 -0.27,0.15 -0.4,0.19 -0.05,0.04 -0.2,0.15 -0.28,0.22 0.96,0.65 -0.37,3.48 -0.53,1.28 0.02,-0.31 0.07,-0.6 0.09,-0.91 -0.27,0.23 -0.52,0.45 -0.91,0.78 -0.02,0.02 -0.04,0.05 -0.06,0.07 -0.01,0 -0.03,-0.01 -0.03,0 -0.16,0.13 -0.36,0.34 -0.53,0.5 0.33,0.78 0.11,2.01 -0.6,0.78 -0.03,-0.08 -0.06,-0.15 -0.09,-0.22 -0.15,0.13 -0.25,0.24 -0.41,0.37 0.43,0.83 0.87,1.64 1.63,2.1 0.32,1.89 -1.31,-0.27 -1.63,-0.91 -0.18,-0.24 -0.36,-0.49 -0.53,-0.75 -0.53,0.47 -1.24,1.13 -1.84,1.66 0.08,-0.03 0.2,-0.06 0.37,-0.06 l 0.07,-0.04 c 0.32,0.77 -0.61,0.47 -0.6,0.22 -1.76,1.56 -3.65,3.23 -5.72,5.07 0.83,0.55 -0.91,2.4 -1.28,1.12 0,0 -0.03,0 -0.03,0 -0.69,0.61 -0.7,0.68 -1.37,1.28 -0.61,0.96 -1.16,2.01 -2.19,1.94 -0.5,0.44 -0.63,0.55 -1.09,0.97 -0.08,0.39 -0.31,0.69 -0.75,0.69 -0.01,0 -0.03,-0.01 -0.04,0 -0.7,0.62 -1.12,1.02 -1.71,1.56 0.04,0.34 0.03,0.66 -0.07,1 -0.25,0.87 -0.79,0.47 -1.28,0.19 -0.22,0.19 -0.56,0.51 -0.75,0.68 0.12,0.99 -0.4,2.5 -1.06,0.94 -0.51,0.46 -2.6,2.32 -2.66,2.38 -0.08,0.08 -0.36,0.47 -0.59,0.81 0.45,1.52 1.93,0.54 1.47,-0.85 C 9,35.71 9.35,35.12 9.4,36.28 c 0.39,1.33 0.86,-0.03 0.91,-0.63 1.22,-0.5 0.55,2.08 0.75,2.81 -0.04,0.2 -0.04,0.46 0,0.75 0.28,-0.23 0.55,-0.45 1.12,-0.93 0,-0.12 0.05,-0.28 0.13,-0.57 0.04,-0.18 0.09,-0.38 0.15,-0.56 0.16,0.25 0.13,0.56 0.07,0.81 0.1,-0.09 0.26,-0.21 0.37,-0.31 -0.08,-0.65 -0.15,-1.31 0.06,-1.94 0.63,-1.48 1.13,-0.25 0.63,0.66 -0.05,0.21 -0.02,0.42 0.06,0.63 0.74,-0.64 1.58,-1.36 2.5,-2.16 -0.09,-0.16 -0.14,-0.39 -0.15,-0.72 0.14,-0.66 0.56,-1.24 1.06,-1.69 0.6,0.11 0.85,0.45 0.87,0.85 0.68,-0.6 1.37,-1.21 2.1,-1.85 -0.26,0.18 -0.56,0.18 -0.13,-0.43 0.01,-0.07 0.02,-0.13 0.03,-0.19 0.57,0.1 0.36,0.45 0.1,0.62 0.77,-0.67 1.45,-1.23 2.25,-1.93 -0.18,-0.02 -0.41,-0.22 0.03,-0.32 0.06,0.08 0.08,0.14 0.09,0.19 0.43,-0.37 0.76,-0.66 1.19,-1.03 -0.23,-0.78 -0.45,-1.67 0.19,-2.38 0.39,-1.06 1.36,-1.59 1.72,-0.21 0.07,0.22 0.16,0.45 0.28,0.65 0.12,-0.11 0.22,-0.2 0.34,-0.31 -0.02,-0.08 -0.05,-0.15 -0.06,-0.28 -0.04,-0.09 -0.09,-0.2 -0.13,-0.28 0.36,-0.13 0.52,0.02 0.57,0.22 0.05,-0.05 0.1,-0.08 0.15,-0.13 -1.44,-0.96 -1.04,-3.16 -0.15,-4.37 -0.15,1.31 1.08,2.68 0.62,3.93 0.38,-0.33 0.72,-0.61 1.09,-0.93 -0.02,-0.01 -0.04,-0.03 -0.06,-0.04 -0.6,-1.11 0.36,-2.26 0.44,-3.37 0.72,0.23 1.1,1.25 1.06,2.12 0.11,-0.09 0.24,-0.18 0.35,-0.28 0,-0.01 -0.01,-0.02 0,-0.03 0,-0.23 0.01,-0.46 -0.04,-0.69 0.22,0.05 0.33,0.2 0.41,0.38 0.27,-0.24 0.59,-0.52 0.84,-0.75 -0.02,-0.59 0.09,-1.04 0.66,-1.06 0.08,0.1 0.14,0.2 0.19,0.31 0.37,-0.33 0.85,-0.73 1.19,-1.03 0,-0.01 -0.01,-0.03 0,-0.03 0.05,-0.16 0.15,-0.3 0.28,-0.41 0.06,0.01 0.1,0.02 0.15,0.03 0.11,-0.09 0.18,-0.16 0.28,-0.25 -0.19,-0.82 0.01,-1.51 1.22,-1.25 0.05,0.01 0.09,0.03 0.13,0.03 0.5,-0.45 0.82,-0.75 1.12,-1.03 0.03,-0.79 -0.21,-1.82 0.07,-2.4 0.22,-0.9 -0.28,-1.68 -0.91,-1.79 z m 0.03,0.22 c 0.67,1.08 -0.9,1.11 0,0 z m -0.72,2.03 c 1.06,1.01 -0.92,1.17 0,0 z m -5.06,2.35 c 0.37,0.06 -0.27,0.29 0,0 z m -0.09,1.37 c 0.49,0.33 -0.5,0.29 0,0 z m -0.88,1.19 c 0.99,0.43 -0.84,0.58 0,0 z m 1.53,0.19 c 0.82,0.87 -0.48,0.99 0,0 z m -3.19,0.03 c 1.11,0.57 -0.79,2.34 -0.25,0.53 0.05,-0.19 0.13,-0.38 0.25,-0.53 z m 0.57,0.25 c 1.16,0.62 -0.72,1.02 0,0 z m -4.1,1.75 -0.03,0.09 0.03,-0.09 z m 1.78,0.25 c 0.19,0.33 -0.45,0.23 0,0 z m -1.09,2.06 c 1.14,0.07 -0.69,0.69 0,0 z m -3.28,1.56 c 1.25,0.06 -0.65,1.74 -0.03,0.19 0.01,-0.06 0.02,-0.12 0.03,-0.19 z m -0.66,0.13 c 0.57,0.87 -1.21,1.23 -0.12,0.25 0.04,-0.08 0.08,-0.17 0.12,-0.25 z m 0.28,1.16 c 1.95,0.05 -0.5,3.64 -0.34,1.31 0.16,-0.43 0.32,-0.85 0.34,-1.31 z m -0.84,1.12 c 0.45,1.17 -1.14,0.6 0,0 z m -2.47,0.5 c 1.01,0.71 -1.42,0.89 -0.12,0.13 l 0.12,-0.13 z m 1.56,0.84 c 1.52,-0.1 -0.65,2.25 -0.09,0.5 l 0.03,-0.25 0.06,-0.25 z m -3.21,0.91 c 0.02,0.06 -0.22,0.31 -0.13,0.03 0.09,-0.04 0.12,-0.05 0.13,-0.03 z m 0.96,0.19 c 0.44,-0.11 -0.5,0.97 -0.28,0.12 0.13,-0.07 0.22,-0.11 0.28,-0.12 z m -1.65,0.06 c 1.19,0.45 -0.8,1.11 0,0 z m 2.53,0.81 c 0.69,0.74 -0.92,0.14 0,0 z m -1.44,0.03 c 0.78,0.98 -1.07,0.81 0,0 z m -1.37,0.72 c 0.62,0.84 -0.61,1.04 0,0 z m -2.41,1.25 c 0.45,0.99 -0.44,1.04 0,0 z"
 id="p3701"
 style="fill:#b56804;fill-opacity:0.2;fill-rule:evenodd;stroke:none;display:inline" />
<path
 d="M 37.06,15.15 9.46,39.43 8.81,39.18 9.59,40.12 C 9.84,40 10.38,39.76 10.46,39.71 11.07,39.41 35.82,17.62 37.03,16.34 l 0.03,-1.19 z"
 id="p3733"
 style="fill:#f0dbc5;fill-opacity:0.43000004;fill-rule:evenodd;stroke:none;display:inline" />
<path
 d="m 35.62,12.31 c -0.5,0.45 -1.01,0.89 -1.31,1.06 C 33.58,13.78 8.7,35.98 8.18,36.5 8.03,36.65 7.59,37.3 7.06,38.09 L 7.4,38.93 36.93,13 35.62,12.31 z"
 id="p3735"
 style="fill:#291c0b;fill-opacity:0.45;fill-rule:evenodd;stroke:none;display:inline" />
<path
 d="M 8.3,37.9 35.13,14.26"
 id="p3730"
 style="fill:none;stroke:#ffc37b;stroke-width:0.5;stroke-linecap:butt;stroke-linejoin:miter;stroke-miterlimit:4;stroke-opacity:0.58999999;stroke-dasharray:none;display:inline" />
<path
 d="m 7.78,37.06 c -1.04,1.42 -3.85,5.84 -3.75,5.65 0,0 5.5,-2.54 6.31,-2.93 C 10.21,39.59 10.1,39.46 10.09,39.4 10.03,39.18 10.6,39.01 10.21,38.62 9.82,38.23 9.09,38.67 8.87,38.34 8.65,38 9.1,37.79 8.65,37.4 8.37,37.15 8.19,37.1 7.78,37.06 z"
 id="p3530"
 style="fill:#b88e78;fill-opacity:1;fill-rule:evenodd;stroke:none" />
<path
 d="m 10.18,38.62 c -0.23,0.07 -0.47,0.13 -0.62,0.13 -0.34,0 -3.47,2.5 -4.94,3.68 0.86,-0.39 4.99,-2.3 5.72,-2.65 -0.13,-0.19 -0.24,-0.32 -0.25,-0.38 -0.06,-0.22 0.51,-0.39 0.12,-0.78 0,-0.01 -0.02,0.01 -0.03,0 z"
 id="p3757"
 style="fill:#582d12;fill-opacity:0.33000004;fill-rule:evenodd;stroke:none;display:inline" />
<path
 d="M 9.06,38.46 C 8.25,39.2 5.22,41.73 4.09,42.68 4.2,42.63 9.54,40.17 10.34,39.78 10.21,39.59 10.1,39.46 10.09,39.4 10.03,39.18 10.6,39.01 10.21,38.62 9.9,38.31 9.37,38.53 9.06,38.46 z"
 id="p3763"
 style="fill:#a87459;fill-opacity:0.41000001;fill-rule:evenodd;stroke:none;display:inline" />
<path
 d="m 6.09,40.87 c -0.23,0 -0.62,0.1 -1,0.19 -0.45,0.69 -1.09,1.71 -1.06,1.65 0,0 1.48,-0.69 2.75,-1.28 C 6.71,41.06 6.55,40.86 6.09,40.87 z"
 id="p3532"
 style="fill:#1b1c1c;fill-opacity:0.86000001;fill-rule:evenodd;stroke:none" />
<path
 d="m 42,6.71 c -0.32,0.11 -2.2,2.09 -2.82,2.5 -0.62,0.42 -1.32,1.15 -1.84,1.57 -0.52,0.41 -2.31,2.18 -3.03,2.59 -0.02,0.01 -0.16,0.14 -0.19,0.16 0.36,0.9 1.11,1.93 2.59,3.12 0.16,-0.14 0.49,-0.48 0.5,-0.5 0.21,-0.41 0.73,-1.03 1.35,-1.34 0.62,-0.31 1.05,-0.62 1.47,-1.03 0.41,-0.42 1.02,-1.04 1.43,-1.35 0.42,-0.31 1.25,-1.25 1.25,-1.25 0,0 1.56,-1.24 1.66,-1.65 C 44.47,9.11 43.95,8.37 43.43,7.75 42.91,7.12 42.31,6.61 42,6.71 z"
 id="p3542"
 style="fill:#f9e29c;fill-opacity:1;fill-rule:evenodd;stroke:none;display:inline" />
<path
 d="m 42.31,9.62 c 0,0 -1.8,1.15 -1.88,1.38 -0.07,0.22 -0.67,0.59 -1.09,0.78 -0.42,0.19 -0.7,0.86 -1.31,1.25 -0.61,0.38 -0.89,0.22 -1.35,0.56 -0.36,0.27 -0.67,0.98 -1.37,1.72 0.38,0.42 0.81,0.87 1.4,1.34 0.16,-0.14 0.49,-0.48 0.5,-0.5 0.21,-0.41 0.73,-1.03 1.35,-1.34 0.62,-0.31 1.05,-0.62 1.47,-1.03 0.41,-0.42 1.02,-1.04 1.43,-1.35 0.42,-0.31 1.25,-1.25 1.25,-1.25 0,0 0.21,-0.15 0.29,-0.22 L 42.31,9.62 z"
 id="p3554"
 style="fill:#492718;fill-opacity:0.43000004;fill-rule:evenodd;stroke:none;display:inline" />
<path
 d="m 43.34,9.5 c 0,0 -0.5,0.87 -1.03,1.21 -0.54,0.35 -1.57,1.4 -2.06,1.82 -0.5,0.42 -1.57,1.06 -1.88,1.4 -0.31,0.35 -0.67,0.96 -0.94,1.03 -0.19,0.06 -0.7,0.43 -1.28,1.19 0.19,0.17 0.35,0.33 0.56,0.5 0.16,-0.14 0.49,-0.48 0.5,-0.5 0.21,-0.41 0.73,-1.03 1.35,-1.34 0.62,-0.31 1.05,-0.62 1.47,-1.03 0.41,-0.42 1.02,-1.04 1.43,-1.35 0.42,-0.31 1.25,-1.25 1.25,-1.25 0,0 0.31,-0.28 0.6,-0.53 L 43.34,9.5 z"
 id="p3556"
 style="fill:#f4aa2d;fill-opacity:0.55;fill-rule:evenodd;stroke:none;display:inline" />
<path
 d="m 34.45,14.08 0.87,-0.71 c 0,0 0.38,0.33 0.76,-0.05 0.37,-0.38 0.37,-1.08 0.37,-1.08 l 1.68,-1.35 c 0,0 1.24,-0.76 1.56,-1.08 0.33,-0.33 0.81,-1.03 0.81,-1.03"
 id="p3572"
 style="fill:none;stroke:#55351a;stroke-width:0.40000001;stroke-linecap:butt;stroke-linejoin:miter;stroke-miterlimit:4;stroke-opacity:0.54000005;stroke-dasharray:none;display:inline" />
<path
 d="m 42,6.71 c -0.21,0.07 -1.12,0.97 -1.88,1.69 0.95,0.9 1.7,1.72 2.5,2.88 0.01,-0.02 0.09,-0.1 0.09,-0.1 0,0 1.56,-1.24 1.66,-1.65 C 44.47,9.11 43.95,8.37 43.43,7.75 42.91,7.12 42.31,6.61 42,6.71 z"
 id="p3544"
 style="fill:#ae585b;fill-opacity:1;fill-rule:evenodd;stroke:none;display:inline" />
<path
 d="m 39.31,9.12 c -0.04,0.02 -0.1,0.08 -0.13,0.09 -0.13,0.09 -0.27,0.2 -0.4,0.32 0.02,0.05 0.03,0.11 0.06,0.15 0.8,0.91 1.42,1.97 2.22,2.88 0.01,0.05 0.05,0.1 0.09,0.15 0.11,-0.09 0.22,-0.21 0.31,-0.28 0.05,-0.03 0.14,-0.11 0.19,-0.15 -0.14,-0.14 -0.29,-0.26 -0.4,-0.41 C 40.55,11 39.94,10.05 39.31,9.12 z m -0.94,0.75 c -0.15,0.14 -0.29,0.24 -0.44,0.38 0.04,0.14 0.45,0.38 0.52,0.49 0.14,0.17 0.12,0.73 -0.12,0.46 -0.04,-0.14 -0.48,-0.64 -0.61,-0.77 -0.16,0.14 -0.09,0.21 -0.23,0.32 0.49,0.55 1.74,2.14 2.56,3.12 0.28,-0.22 0.28,-0.41 0.54,-0.66 C 39.98,12.44 39.5,11.61 39,10.78 38.8,10.47 38.59,10.16 38.37,9.87 z m -1.81,1.5 c -0.16,0.15 -0.08,0.19 -0.28,0.38 0.04,0.1 -0.06,0.33 0.01,0.41 0.52,1 1.11,1.97 1.78,2.88 0.1,-0.07 0.38,-0.18 0.49,-0.23 -0.41,-0.56 -1.28,-2 -1.81,-2.76 -0.08,-0.17 -0.1,-0.51 -0.19,-0.68 z m 0.42,1.35 c -0.23,-0.22 -0.49,-0.75 -0.7,-0.97 -0.21,0.18 -0.32,0.3 -0.53,0.5 0.06,0.14 0.14,0.27 0.25,0.34 0.59,0.94 1.11,1.92 1.75,2.84 0.14,-0.15 0.42,-0.43 0.6,-0.56 -0.55,-0.77 -1,-1.27 -1.37,-2.15 z m -1.86,0.06 c -0.23,0.19 -0.22,0.16 -0.39,0.28 0.86,1.02 1.58,2.18 2.29,3.33 0.17,-0.12 0.11,-0.18 0.26,-0.33 -0.52,-1.02 -1.23,-1.9 -1.91,-2.81 -0.09,-0.16 -0.17,-0.32 -0.25,-0.47 z"
 id="p3602"
 style="fill:#63421c;fill-opacity:0.65;fill-rule:evenodd;stroke:none;display:inline" />
<path
 d="m 40.53,9.28 c -0.33,0.21 -0.28,0.65 -0.27,0.99 -0.09,0.49 -0.6,-0.11 -0.84,0.15 -0.25,0.27 -0.79,0.11 -0.9,0.52 -0.07,0.36 -0.29,0.68 -0.64,0.8 -0.25,0.07 -0.61,0.12 -0.64,0.43 -0.14,0.3 -0.63,0.1 -0.74,0.44 -0.05,0.29 -0.1,0.69 -0.43,0.8 -0.33,-0.05 -0.52,0.21 -0.65,0.47 -0.15,0.1 -0.63,-0.14 -0.59,0.26 0.03,0.42 0.65,0.65 0.92,0.31 0.22,-0.2 0.41,-0.44 0.68,-0.57 0.09,-0.36 0.36,-0.66 0.73,-0.7 0.29,-0.2 0.45,-0.61 0.84,-0.63 0.35,-0.13 0.42,-0.59 0.77,-0.72 0.31,0.04 0.73,-0.07 0.76,-0.44 0.02,-0.39 0.41,-0.43 0.71,-0.35 0.42,0.04 0.49,-0.44 0.44,-0.75 C 40.59,9.96 41.08,9.74 40.86,9.43 40.78,9.32 40.63,9.36 40.53,9.28 z m 0.5,0.56 c -0.29,-0.1 0.05,0.24 0,0 z"
 id="p3664"
 style="fill:#fbf2a3;fill-opacity:0.68000034;fill-rule:evenodd;stroke:none;display:inline" />
<path
 d="m 36.58,14.62 c 0.72,0.12 0.72,-0.47 0.72,-0.47"
 id="p3689"
 style="fill:none;stroke:#e8e989;stroke-width:0.30000001;stroke-linecap:round;stroke-linejoin:miter;stroke-miterlimit:4;stroke-opacity:0.5;stroke-dasharray:none" />
<path
 d="m 37.13,14.07 c 0,0.59 -0.7,0.34 -0.7,0 0,-0.34 0.7,-0.57 0.7,0 z"
 id="p3691"
 style="fill:#714c25;fill-opacity:0.76999996;fill-rule:evenodd;stroke:none;marker:none;visibility:visible;display:inline;overflow:visible;enable-background:accumulate" />
<path
 d="m 39.91,11.08 c 0,0.59 -0.7,0.35 -0.7,0 0,-0.34 0.7,-0.57 0.7,0 z"
 id="p3695"
 style="fill:#714c25;fill-opacity:0.52999998;fill-rule:evenodd;stroke:none;marker:none;visibility:visible;display:inline;overflow:visible;enable-background:accumulate" />
<path
 d="m 39.48,11.55 c 0.72,0.11 0.72,-0.47 0.72,-0.47"
 id="p3699"
 style="fill:none;stroke:#e8e989;stroke-width:0.30000001;stroke-linecap:round;stroke-linejoin:miter;stroke-miterlimit:4;stroke-opacity:0.79000005;stroke-dasharray:none;display:inline" />
<path
 d="m 34.12,13.53 c 0.36,0.9 1.11,1.93 2.59,3.12"
 id="p3569"
 style="fill:none;stroke:#956938;stroke-width:0.40000001;stroke-linecap:butt;stroke-linejoin:miter;stroke-miterlimit:4;stroke-opacity:1;stroke-dasharray:none;display:inline" />
<path
 d="m 40.12,8.4 c 0.95,0.9 1.7,1.72 2.5,2.88"
 id="p3566"
 style="fill:none;stroke:#46250a;stroke-width:0.30000001;stroke-linecap:butt;stroke-linejoin:miter;stroke-miterlimit:4;stroke-opacity:1;stroke-dasharray:none;display:inline" />
<path
 d="m 4.04,42.71 c 0,0 5.81,-2.7 6.43,-3.01 0.62,-0.31 26.46,-23.18 26.75,-23.54 0.21,-0.25 1.01,-0.91 1.35,-1.18 0.54,-0.44 1.04,-0.79 1.45,-1.21 0.42,-0.41 1.04,-1.03 1.45,-1.34 0.42,-0.31 1.25,-1.25 1.25,-1.25 0,0 1.55,-1.24 1.66,-1.66 C 44.48,9.11 43.96,8.38 43.44,7.76 42.93,7.14 42.3,6.62 41.99,6.72 c -0.31,0.11 -2.17,2.08 -2.8,2.49 -0.62,0.42 -1.35,1.14 -1.86,1.56 -0.52,0.41 -2.29,2.18 -3.01,2.59 C 33.59,13.77 8.71,35.97 8.19,36.48 7.67,37 3.94,42.91 4.04,42.71 z"
 id="path4827"
 style="fill:none;stroke:#0b0908;stroke-width:0.5;stroke-linecap:butt;stroke-linejoin:miter;stroke-miterlimit:4;stroke-opacity:1;stroke-dasharray:none;display:inline" />
</g>
<g
 transform="matrix(3.7367586,0,0,3.7367586,447.76163,-12.982197)"
 id="pen01"
 style="display:inline">
<path
 d="m 2.84,21.27 c -0.38,0.6 0.19,1.32 0.6,1.89 0.42,0.57 2.43,3.07 2.43,3.07 0,0 -0.16,0.56 0.42,0.76 0.13,0.05 0.26,0.04 0.26,0.04 0,0 1.25,1.18 2.47,2.16 1.21,0.99 4.09,2.5 4.59,2.84 0.49,0.35 1.74,1.29 2.38,1.18 0.65,-0.11 1.14,-0.76 1.06,-1.37 C 16.98,31.24 15.46,29 14.63,27.9 13.79,26.8 11.75,24.49 11.22,23.96 10.69,23.43 10.5,23.31 10.5,23.31 c 0,0 -0.5,-1.36 -1.82,-1.09 -1.33,0.26 -1.86,1.09 -2.01,1.51 -0.15,0.42 -0.27,0.57 -0.27,0.57 0,0 -1.97,-2.16 -3.56,-3.03 z"
 id="p2533"
 style="fill:#161616;fill-opacity:1;fill-rule:evenodd;stroke:none" />
<path
 d="m 9.15,22.18 c -0.14,-0.01 -0.3,0 -0.47,0.03 -0.25,0.05 -0.46,0.14 -0.65,0.22 2.82,2.07 5.94,5.46 8.75,10.32 0.21,-0.26 0.32,-0.59 0.28,-0.91 C 16.98,31.23 15.45,29 14.62,27.9 13.79,26.8 11.74,24.49 11.21,23.96 10.68,23.43 10.5,23.31 10.5,23.31 c 0,0 -0.37,-1.04 -1.35,-1.13 z"
 id="p3333"
 style="fill:#2f2f2f;fill-opacity:0.43000004;fill-rule:evenodd;stroke:none" />
<path
 d="m 2.84,21.28 c -0.38,0.6 0.18,1.3 0.59,1.87 0.42,0.57 2.44,3.1 2.44,3.1 0,0 -0.17,0.54 0.41,0.75 0.13,0.04 0.28,0.03 0.28,0.03 0,0 1.25,1.17 2.47,2.15 0.48,0.4 1.24,0.89 2,1.35 -2.49,-4.6 -2.55,-6.07 -0.6,-7.32 -0.12,-0.27 -0.6,-1.23 -1.75,-1 -1.32,0.27 -1.85,1.12 -2,1.54 -0.15,0.41 -0.28,0.56 -0.28,0.56 0,0 -1.97,-2.16 -3.56,-3.03 z"
 id="p3308"
 style="fill:#050505;fill-opacity:0.43000004;fill-rule:evenodd;stroke:none;display:inline" />
<path
 d="m 2.84,21.28 c -0.38,0.6 0.18,1.3 0.59,1.87 0.42,0.57 2.44,3.1 2.44,3.1 0,0 -0.17,0.54 0.41,0.75 0.13,0.04 0.28,0.03 0.28,0.03 0,0 1.25,1.17 2.47,2.15 1.21,0.99 4.1,2.51 4.59,2.85 0.49,0.34 1.73,1.3 2.38,1.18 0.17,-0.03 0.32,-0.12 0.46,-0.21 -1.12,-0.9 -3.94,-3.17 -5.9,-5.13 -1.51,-1.5 -2.74,-3.07 -3.69,-4.5 -0.09,0.14 -0.15,0.27 -0.19,0.38 -0.15,0.41 -0.28,0.56 -0.28,0.56 0,0 -1.97,-2.16 -3.56,-3.03 z"
 id="p3311"
 style="fill:#050505;fill-opacity:0.27000002;fill-rule:evenodd;stroke:none;display:inline" />
<path
 d="m 14.93,28.37 c -0.04,2.41 -0.96,3.05 -2.56,2.94 0.49,0.28 1.1,0.61 1.25,0.72 0.49,0.34 1.73,1.3 2.38,1.18 0.64,-0.11 1.13,-0.76 1.06,-1.37 -0.07,-0.54 -1.28,-2.3 -2.13,-3.47 z"
 id="p3314"
 style="fill:#060706;fill-opacity:0.26000001;fill-rule:evenodd;stroke:none;display:inline" />
<path
 d="m 2.81,21.34 c -0.3,0.59 0.22,1.26 0.62,1.81 0.42,0.57 2.44,3.1 2.44,3.1 0,0 -0.17,0.54 0.41,0.75 0.13,0.04 0.28,0.03 0.28,0.03 0,0 1.25,1.17 2.47,2.15 1.21,0.99 4.1,2.51 4.59,2.85 0.07,0.04 0.22,0.15 0.31,0.22 C 12.03,29.66 8.53,26.39 7.37,25.21 6.89,24.73 6.66,24.35 6.53,24.06 6.45,24.21 6.4,24.31 6.4,24.31 c 0.06,0.21 0.12,0.42 0.28,0.59 0.94,0.96 0.46,0.76 0.72,1 0.27,0.24 4.31,4.44 4.31,4.44 0,0 -1.28,-0.85 -2.21,-1.5 C 8.56,28.19 6.98,26.57 6.09,25.59 5.31,24.73 3.88,22.88 2.81,21.34 z"
 id="p3317"
 style="fill:#888879;fill-opacity:0.17000002;fill-rule:evenodd;stroke:none;display:inline" />
<path
 d="m 16.45,31.6 c 0.18,0.21 0.07,0.64 -0.24,0.95 -0.32,0.32 -0.71,0.4 -0.89,0.19 -0.18,-0.21 -0.07,-0.64 0.24,-0.96 0.32,-0.31 0.71,-0.4 0.89,-0.18 z"
 id="p3348"
 style="fill:#181818;fill-opacity:1;fill-rule:nonzero;stroke:none;marker:none;visibility:visible;display:inline;overflow:visible;enable-background:accumulate" />
<path
 d="m 16.83,32.26 c -0.07,0.21 -0.22,0.41 -0.34,0.44 -0.12,0.03 -0.16,-0.12 -0.1,-0.34 0.07,-0.21 0.22,-0.41 0.34,-0.44 0.12,-0.03 0.16,0.12 0.1,0.34 z"
 id="p3355"
 style="fill:#969696;fill-opacity:0.27000002;fill-rule:nonzero;stroke:none;marker:none;visibility:visible;display:inline;overflow:visible;enable-background:accumulate" />
<path
 d="m 15.8,31.8 c -0.1,0.2 -0.28,0.37 -0.41,0.38 -0.12,0.01 -0.14,-0.15 -0.04,-0.35 0.1,-0.2 0.29,-0.37 0.41,-0.38 0.12,-0.01 0.14,0.15 0.04,0.35 z"
 id="p3357"
 style="fill:#a1a1a1;fill-opacity:0.33000004;fill-rule:nonzero;stroke:none;marker:none;visibility:visible;display:inline;overflow:visible;enable-background:accumulate" />
<path
 d="M 6.6,27.1 C 5.66,26.58 6.35,25.62 6.71,25.46 6.76,24.8 6.41,23.96 7.69,23.07 8.96,22.18 10.01,22.73 10.4,23.3"
 id="p3359"
 style="fill:none;stroke:#212121;stroke-width:0.30000001;stroke-linecap:round;stroke-linejoin:miter;stroke-miterlimit:4;stroke-opacity:0.76000001;stroke-dasharray:none;display:inline" />
<path
 d="m 9.3,23.16 c 1.06,0.94 1.83,1.74 2.31,2.28"
 id="p3362"
 style="fill:none;stroke:#d7e286;stroke-width:0.30000001;stroke-linecap:round;stroke-linejoin:miter;stroke-miterlimit:4;stroke-opacity:0.06000001;stroke-dasharray:none;display:inline" />
<path
 d="M 2.99,15.29 C 1.86,14.9 2.6,12.74 3.78,13.01 c 1.04,0.25 32.29,10.11 33.78,10.5 1.5,0.4 5.13,2.14 5.13,2.14 l 0.05,0.15 c 0,0 2.66,1.57 3.31,1.96 0.45,0.27 0.28,0.92 -0.23,0.93 -0.5,0.01 -3.28,-0.45 -4.18,-0.55 -0.89,-0.1 -3.13,-0.7 -4.28,-1.04 C 36.22,26.75 4.13,15.68 2.99,15.29 z"
 id="p3365"
 style="fill:#9db7ca;fill-opacity:1;fill-rule:evenodd;stroke:none" />
<path
 d="m 14.5,17.07 c -0.22,0.05 -0.33,0.33 -0.33,0.56 0,0.23 0.07,0.37 0.29,0.43 l 23.16,8 c 1.14,0.39 0.63,-1.27 0.41,-1.35 L 14.78,17.12 C 14.68,17.08 14.6,17.04 14.5,17.07 z"
 id="p3372"
 style="fill:#131313;fill-opacity:0.81999972;fill-rule:evenodd;stroke:none;display:inline" />
<path
 d="m 37.71,23.59 c -0.73,0.93 -1.01,1.71 -1.06,3.25 0.05,0.02 0.7,0.24 0.72,0.25 1.14,0.35 3.39,0.96 4.28,1.06 0.9,0.1 3.66,0.54 4.16,0.53 0.51,-0.01 0.69,-0.64 0.25,-0.9 -0.65,-0.39 -3.31,-1.97 -3.31,-1.97 l -0.07,-0.16 c 0,0 -3.4,-1.6 -4.97,-2.06 z"
 id="p3370"
 style="fill:#7e7645;fill-opacity:1;fill-rule:evenodd;stroke:none;display:inline" />
<path
 d="m 39.05,24.97 5.04,1.76"
 id="p3424"
 style="fill:none;stroke:#4f2819;stroke-width:0.69;stroke-linecap:round;stroke-linejoin:miter;stroke-miterlimit:4;stroke-opacity:0.61000001;stroke-dasharray:none" />
<path
 d="m 36.6,24.04 2.11,0.69"
 id="p3422"
 style="fill:none;stroke:#8cadea;stroke-width:0.5;stroke-linecap:round;stroke-linejoin:miter;stroke-miterlimit:4;stroke-opacity:0.68000034;stroke-dasharray:none" />
<path
 d="m 37.71,23.59 c -0.73,0.93 -1.01,1.71 -1.06,3.25 0.05,0.02 0.7,0.24 0.72,0.25 1.14,0.35 3.39,0.96 4.28,1.06 0.05,0.01 0.19,0.02 0.25,0.03 0.06,-1.09 0.19,-1.77 0.78,-2.53 0,0 -3.4,-1.6 -4.97,-2.06 z"
 id="p3398"
 style="fill:#9db7ca;fill-opacity:0.26000001;fill-rule:evenodd;stroke:none" />
<path
 d="M 3.56,13 C 2.51,13.01 1.94,14.91 3,15.28 c 0.01,0 0.38,0.11 0.4,0.12 -0.14,-0.44 -0.15,-0.75 -0.15,-0.75 -0.01,0 1.47,0.39 1.93,0.53 C 5.28,15 4.68,14.97 4.91,14.48 5.1,14.05 5.52,14.32 5.59,14.15 4.74,13.83 4.33,13.79 4.68,13.31 4.54,13.27 3.82,13.04 3.78,13.03 3.7,13.01 3.63,12.99 3.56,13 z"
 id="p3374"
 style="fill:#161616;fill-opacity:1;fill-rule:evenodd;stroke:none;display:inline" />
<path
 d="m 4.09,13.12 c -0.13,0.21 -0.25,0.42 -0.25,0.44 0,0.03 -0.46,-0.15 -0.88,-0.31 -0.29,0.24 -0.46,0.63 -0.5,1.03 l 0.91,0.28 0,0.12 c 0.04,0.01 0.27,0.09 0.41,0.13 C 3.77,14.56 3.82,13.98 4.12,13.4 4.17,13.31 4.24,13.24 4.31,13.18 4.21,13.15 4.18,13.15 4.09,13.12 z m 0.53,0.31 c -0.29,0.31 -0.39,0.84 -0.41,1.5 0.43,0.12 0.74,0.18 0.97,0.25 C 5.28,15 4.68,14.99 4.9,14.5 5.09,14.07 5.52,14.32 5.59,14.15 4.84,13.87 4.46,13.78 4.62,13.43 z"
 id="p3430"
 style="fill:#000000;fill-opacity:0.43000004;fill-rule:evenodd;stroke:none;display:inline" />
<path
 d="M 11.03,17.35 41.69,28"
 id="p3389"
 style="fill:none;stroke:#dde9fc;stroke-width:0.69;stroke-linecap:round;stroke-linejoin:miter;stroke-miterlimit:4;stroke-opacity:0.6;stroke-dasharray:none" />
<path
 d="m 36.4,25.97 2.09,0.73"
 id="p3391"
 style="fill:none;stroke:#d7e6ff;stroke-width:1px;stroke-linecap:round;stroke-linejoin:miter;stroke-opacity:0.76000001" />
<path
 d="m 40.68,26.3 5.24,1.88"
 id="p3408"
 style="fill:none;stroke:#cec1b5;stroke-width:0.40000001;stroke-linecap:round;stroke-linejoin:miter;stroke-miterlimit:4;stroke-opacity:0.51000001;stroke-dasharray:none;display:inline" />
<path
 d="M 8.78,15.18 C 7.93,14.91 7.89,16 8.28,16.2 c 0.39,0.19 0.78,0.23 0.78,0.23 0,0 -0.04,-0.23 0.08,-0.55 0.11,-0.31 0.54,-0.35 0.54,-0.35 l -0.9,-0.35 z"
 id="p3395"
 style="fill:#131313;fill-opacity:0.62000002;fill-rule:evenodd;stroke:none;display:inline" />
<path
 d="m 7.74,15.22 15.77,5.24"
 id="p3393"
 style="fill:none;stroke:#c4d2f8;stroke-width:0.30000001;stroke-linecap:round;stroke-linejoin:miter;stroke-miterlimit:4;stroke-opacity:0.81000001;stroke-dasharray:none" />
<path
 d="m 41.9,28.18 c 0.06,-1.09 0.19,-1.77 0.78,-2.53"
 id="p3403"
 style="fill:none;stroke:#3b3d43;stroke-width:0.2;stroke-linecap:butt;stroke-linejoin:miter;stroke-miterlimit:4;stroke-opacity:0.81000001;stroke-dasharray:none;display:inline" />
<path
 d="m 37.46,25.2 2.53,0.82"
 id="p3410"
 style="fill:none;stroke:#cec1b5;stroke-width:0.60000002;stroke-linecap:round;stroke-linejoin:miter;stroke-miterlimit:4;stroke-opacity:0.51000001;stroke-dasharray:none;display:inline" />
<path
 d="m 42.3,26.14 c 0,0 -3.43,-1.65 -4.74,-2.08 C 36.24,23.64 4.55,13.73 4.55,13.73"
 id="p3405"
 style="fill:none;stroke:#191c20;stroke-width:0.2;stroke-linecap:butt;stroke-linejoin:miter;stroke-miterlimit:4;stroke-opacity:0.81999972;stroke-dasharray:none;display:inline" />
<path
 d="m 36.91,25.29 1.24,0.41"
 id="p3412"
 style="fill:none;stroke:#eef2f8;stroke-width:0.30000001;stroke-linecap:round;stroke-linejoin:miter;stroke-miterlimit:4;stroke-opacity:0.87000002;stroke-dasharray:none;display:inline" />
<path
 d="m 44.31,27.82 1.21,0.4"
 id="p3417"
 style="fill:none;stroke:#726a3f;stroke-width:0.40000001;stroke-linecap:round;stroke-linejoin:miter;stroke-miterlimit:4;stroke-opacity:0.87000002;stroke-dasharray:none" />
<path
 d="m 41.55,26.75 0.34,0.1"
 id="p3419"
 style="fill:none;stroke:#eeedeb;stroke-width:0.40000001;stroke-linecap:round;stroke-linejoin:miter;stroke-miterlimit:4;stroke-opacity:0.79000005;stroke-dasharray:none;display:inline" />
<path
 d="m 38.1,25.34 0.17,-0.46"
 id="p3426"
 style="fill:none;stroke:#c7e8f6;stroke-width:0.30000001;stroke-linecap:round;stroke-linejoin:miter;stroke-miterlimit:4;stroke-opacity:0.81000001;stroke-dasharray:none" />
<path
 d="M 3.1,14.68 6,15.65"
 id="path4564"
 style="fill:none;stroke:#cadcf1;stroke-width:0.40000001;stroke-linecap:round;stroke-linejoin:miter;stroke-miterlimit:4;stroke-opacity:0.62000002;stroke-dasharray:none" />
<path
 d="m 15.66,32.95 c -0.18,-0.22 -0.07,-0.65 0.25,-0.97 0.31,-0.32 0.71,-0.41 0.89,-0.19"
 id="p3351"
 style="fill:none;stroke:#040404;stroke-width:0.19;stroke-linecap:round;stroke-linejoin:miter;stroke-miterlimit:4;stroke-opacity:1;stroke-dashoffset:0;marker:none;visibility:visible;display:inline;overflow:visible;enable-background:accumulate" />
<path
 d="m 2.84,21.27 c -0.38,0.6 0.19,1.32 0.6,1.89 0.42,0.57 2.43,3.07 2.43,3.07 0,0 -0.16,0.56 0.42,0.76 0.13,0.05 0.26,0.04 0.26,0.04 0,0 1.25,1.18 2.47,2.16 1.21,0.99 4.09,2.5 4.59,2.84 0.49,0.35 1.74,1.29 2.38,1.18 0.65,-0.11 1.14,-0.76 1.06,-1.37 C 16.98,31.24 15.46,29 14.63,27.9 13.79,26.8 11.75,24.49 11.22,23.96 10.69,23.43 10.5,23.31 10.5,23.31 c 0,0 -0.5,-1.36 -1.82,-1.09 -1.33,0.26 -1.86,1.09 -2.01,1.51 -0.15,0.42 -0.27,0.57 -0.27,0.57 0,0 -1.97,-2.16 -3.56,-3.03 z"
 id="path4567"
 style="fill:none;stroke:#060606;stroke-width:0.5;stroke-linecap:butt;stroke-linejoin:miter;stroke-miterlimit:4;stroke-opacity:1;stroke-dasharray:none" />
<path
 d="M 2.99,15.29 C 1.86,14.9 2.6,12.74 3.78,13.01 c 1.04,0.25 32.29,10.11 33.78,10.5 1.5,0.4 5.13,2.14 5.13,2.14 l 0.05,0.15 c 0,0 2.66,1.57 3.31,1.96 0.45,0.27 0.28,0.92 -0.23,0.93 -0.5,0.01 -3.28,-0.45 -4.18,-0.55 -0.89,-0.1 -3.13,-0.7 -4.28,-1.04 C 36.22,26.75 4.13,15.68 2.99,15.29 z"
 id="stroke02"
 style="fill:none;stroke:#070809;stroke-width:0.5;stroke-linecap:butt;stroke-linejoin:miter;stroke-miterlimit:4;stroke-opacity:1;stroke-dasharray:none;display:inline" />
</g>
<path
 d="m 351.86441,227.79661 -17.28814,-25.42373 3.05085,-25.42373 13.22034,-55.9322 17.28813,39.66102 17.28814,30.50847 3.05085,-125.084745 29.49152,-7.118644 -1.01695,31.525423 -16.27118,46.779666 22.37288,37.62711"
 id="path3104"
 style="fill:none;stroke:#000000;stroke-width:1px;stroke-linecap:butt;stroke-linejoin:miter;stroke-opacity:1" />
<g
 id="g3186">
<text
 x="352.10568"
 y="222.50771"
 id="text3188"
 style="font-size:8px;text-anchor:middle;fill:#000000;font-family:DejaVu Sans">
<tspan
 x="352.10568"
 y="222.50771"
 id="tspan3190">1</tspan>
</text>
<text
 x="339.4017"
 y="198.77287"
 id="text3192"
 style="font-size:8px;text-anchor:middle;fill:#000000;font-family:DejaVu Sans">
<tspan
 x="339.4017"
 y="198.77287"
 id="tspan3194">2</tspan>
</text>
<text
 x="334.97311"
 y="171.66025"
 id="text3196"
 style="font-size:8px;text-anchor:middle;fill:#000000;font-family:DejaVu Sans">
<tspan
 x="334.97311"
 y="171.66025"
 id="tspan3198">3</tspan>
</text>
<text
 x="351.08875"
 y="115.72804"
 id="text3200"
 style="font-size:8px;text-anchor:middle;fill:#000000;font-family:DejaVu Sans">
<tspan
 x="351.08875"
 y="115.72804"
 id="tspan3202">4</tspan>
</text>
<text
 x="368.37686"
 y="155.38907"
 id="text3204"
 style="font-size:8px;text-anchor:middle;fill:#000000;font-family:DejaVu Sans">
<tspan
 x="368.37686"
 y="155.38907"
 id="tspan3206">5</tspan>
</text>
<text
 x="389.04282"
 y="187.1039"
 id="text3208"
 style="font-size:8px;text-anchor:middle;fill:#000000;font-family:DejaVu Sans">
<tspan
 x="389.04282"
 y="187.1039"
 id="tspan3210">6</tspan>
</text>
<text
 x="388.71585"
 y="60.81279"
 id="text3212"
 style="font-size:8px;text-anchor:middle;fill:#000000;font-family:DejaVu Sans">
<tspan
 x="388.71585"
 y="60.81279"
 id="tspan3214">7</tspan>
</text>
<text
 x="418.20737"
 y="53.694149"
 id="text3216"
 style="font-size:8px;text-anchor:middle;fill:#000000;font-family:DejaVu Sans">
<tspan
 x="418.20737"
 y="53.694149"
 id="tspan3218">8</tspan>
</text>
<text
 x="421.53333"
 y="86.667206"
 id="text3220"
 style="font-size:8px;text-anchor:middle;fill:#000000;font-family:DejaVu Sans">
<tspan
 x="421.53333"
 y="86.667206"
 id="tspan3222">9</tspan>
</text>
<text
 x="409.36377"
 y="139.2374"
 id="text3224"
 style="font-size:8px;text-anchor:middle;fill:#000000;font-family:DejaVu Sans">
<tspan
 x="409.36377"
 y="139.2374"
 id="tspan3226">10</tspan>
</text>
<text
 x="424.98102"
 y="167.93744"
 id="text3228"
 style="font-size:8px;text-anchor:middle;fill:#000000;font-family:DejaVu Sans">
<tspan
 x="424.98102"
 y="167.93744"
 id="tspan3230">11</tspan>
</text>
<text
 x="447.69891"
 y="165.55856"
 id="text3232"
 style="font-size:8px;text-anchor:middle;fill:#000000;font-family:DejaVu Sans">
<tspan
 x="447.69891"
 y="165.55856"
 id="tspan3234">12</tspan>
</text>
<text
 x="444.64804"
 y="121.82973"
 id="text3236"
 style="font-size:8px;text-anchor:middle;fill:#000000;font-family:DejaVu Sans">
<tspan
 x="444.64804"
 y="121.82973"
 id="tspan3238">13</tspan>
</text>
<text
 x="482.27518"
 y="119.79585"
 id="text3240"
 style="font-size:8px;text-anchor:middle;fill:#000000;font-family:DejaVu Sans">
<tspan
 x="482.27518"
 y="119.79585"
 id="tspan3242">14</tspan>
</text>
<text
 x="515.83447"
 y="137.08397"
 id="text3244"
 style="font-size:8px;text-anchor:middle;fill:#000000;font-family:DejaVu Sans">
<tspan
 x="515.83447"
 y="137.08397"
 id="tspan3246">15</tspan>
</text>
<text
 x="529.05481"
 y="108.6094"
 id="text3248"
 style="font-size:8px;text-anchor:middle;fill:#000000;font-family:DejaVu Sans">
<tspan
 x="529.05481"
 y="108.6094"
 id="tspan3250">16</tspan>
</text>
<text
 x="543.29211"
 y="158.43991"
 id="text3252"
 style="font-size:8px;text-anchor:middle;fill:#000000;font-family:DejaVu Sans">
<tspan
 x="543.29211"
 y="158.43991"
 id="tspan3254">17</tspan>
</text>
<text
 x="507.69891"
 y="178.7789"
 id="text3256"
 style="font-size:8px;text-anchor:middle;fill:#000000;font-family:DejaVu Sans">
<tspan
 x="507.69891"
 y="178.7789"
 id="tspan3258">18</tspan>
</text>
<text
 x="445.66501"
 y="234.71109"
 id="text3260"
 style="font-size:8px;text-anchor:middle;fill:#000000;font-family:DejaVu Sans">
<tspan
 x="445.66501"
 y="234.71109"
 id="tspan3262">19</tspan>
</text>
<text
 x="428.37686"
 y="212.33821"
 id="text3264"
 style="font-size:8px;text-anchor:middle;fill:#000000;font-family:DejaVu Sans">
<tspan
 x="428.37686"
 y="212.33821"
 id="tspan3266">20</tspan>
</text>
<text
 x="413.12262"
 y="181.82974"
 id="text3268"
 style="font-size:8px;text-anchor:middle;fill:#000000;font-family:DejaVu Sans">
<tspan
 x="413.12262"
 y="181.82974"
 id="tspan3270">21</tspan>
</text>
<text
 x="392.78363"
 y="205.21956"
 id="text3272"
 style="font-size:8px;text-anchor:middle;fill:#000000;font-family:DejaVu Sans">
<tspan
 x="392.78363"
 y="205.21956"
 id="tspan3274">22</tspan>
</text>
<text
 x="375.49551"
 y="221.49075"
 id="text3276"
 style="font-size:8px;text-anchor:middle;fill:#000000;font-family:DejaVu Sans">
<tspan
 x="375.49551"
 y="221.49075"
 id="tspan3278">23</tspan>
</text>
</g>
<g
 id="g3280">
<circle
 cx="351.86441"
 cy="227.79662"
 r="2"
 transform="matrix(1.3619076,0,0,1.3619076,-127.34241,-82.441332)"
 id="pt0"
 style="fill:#000000;stroke:none" />
<use
 transform="translate(-17.28814,-25.42373)"
 id="use3283"
 x="0"
 y="0"
 width="640"
 height="480"
 xlink:href="#pt0" />
<use
 transform="translate(-14.23729,-50.84746)"
 id="use3285"
 x="0"
 y="0"
 width="640"
 height="480"
 xlink:href="#pt0" />
<use
 transform="translate(-1.01695,-106.77966)"
 id="use3287"
 x="0"
 y="0"
 width="640"
 height="480"
 xlink:href="#pt0" />
<use
 transform="translate(16.27118,-67.11864)"
 id="use3289"
 x="0"
 y="0"
 width="640"
 height="480"
 xlink:href="#pt0" />
<use
 transform="translate(33.55932,-36.61017)"
 id="use3291"
 x="0"
 y="0"
 width="640"
 height="480"
 xlink:href="#pt0" />
<use
 transform="translate(36.61017,-161.69491)"
 id="use3293"
 x="0"
 y="0"
 width="640"
 height="480"
 xlink:href="#pt0" />
<use
 transform="translate(66.10169,-168.81356)"
 id="use3295"
 x="0"
 y="0"
 width="640"
 height="480"
 xlink:href="#pt0" />
<use
 transform="translate(65.08474,-137.28814)"
 id="use3297"
 x="0"
 y="0"
 width="640"
 height="480"
 xlink:href="#pt0" />
<use
 transform="translate(48.81356,-90.50847)"
 id="use3299"
 x="0"
 y="0"
 width="640"
 height="480"
 xlink:href="#pt0" />
<use
 transform="translate(71.18644,-52.88136)"
 id="use3301"
 x="0"
 y="0"
 width="640"
 height="480"
 xlink:href="#pt0" />
<use
 transform="translate(95.59322,-56.94915)"
 id="use3303"
 x="0"
 y="0"
 width="640"
 height="480"
 xlink:href="#pt0" />
<use
 transform="translate(92.54237,-100.67797)"
 id="use3305"
 x="0"
 y="0"
 width="640"
 height="480"
 xlink:href="#pt0" />
<use
 transform="translate(130.16949,-102.71186)"
 id="use3307"
 x="0"
 y="0"
 width="640"
 height="480"
 xlink:href="#pt0" />
<use
 transform="translate(163.72881,-85.42373)"
 id="use3309"
 x="0"
 y="0"
 width="640"
 height="480"
 xlink:href="#pt0" />
<use
 transform="translate(176.94915,-113.89831)"
 id="use3311"
 x="0"
 y="0"
 width="640"
 height="480"
 xlink:href="#pt0" />
<use
 transform="translate(191.18644,-64.0678)"
 id="use3313"
 x="0"
 y="0"
 width="640"
 height="480"
 xlink:href="#pt0" />
<use
 transform="translate(155.59322,-43.72881)"
 id="use3315"
 x="0"
 y="0"
 width="640"
 height="480"
 xlink:href="#pt0" />
<use
 transform="translate(93.55932,12.20339)"
 id="use3317"
 x="0"
 y="0"
 width="640"
 height="480"
 xlink:href="#pt0" />
<use
 transform="translate(76.27118,-10.16949)"
 id="use3319"
 x="0"
 y="0"
 width="640"
 height="480"
 xlink:href="#pt0" />
<use
 transform="translate(61.01695,-40.67797)"
 id="use3321"
 x="0"
 y="0"
 width="640"
 height="480"
 xlink:href="#pt0" />
<use
 transform="translate(40.67796,-17.28814)"
 id="use3323"
 x="0"
 y="0"
 width="640"
 height="480"
 xlink:href="#pt0" />
<use
 transform="translate(23.38983,-1.01695)"
 id="use3325"
 x="0"
 y="0"
 width="640"
 height="480"
 xlink:href="#pt0" />
</g>
</svg>
