<?xml version="1.0" encoding="UTF-8" standalone="no"?>
<!-- Created with Inkscape (http://www.inkscape.org/) -->
<svg
   xmlns:svg="http://www.w3.org/2000/svg"
   xmlns="http://www.w3.org/2000/svg"
   xmlns:xlink="http://www.w3.org/1999/xlink"
   version="1.0"
   width="100%"
   height="100%"
   viewBox="0 0 172 64"
   id="svg2">
  <defs
     id="defs4" />
  <use
     transform="translate(91.335767,-57.437956)"
     id="use2409"
     x="0"
     y="0"
     width="172"
     height="64"
     xlink:href="#path2506" />
  <use
     transform="translate(86.941606,38.291971)"
     id="use2508"
     x="0"
     y="0"
     width="172"
     height="64"
     xlink:href="#path2506" />
  <path
     d="M 71.464136,-8.5879209 C 69.914866,-8.6745808 68.390136,-8.5593969 66.899854,-8.2228017 C 63.986262,-7.5846094 61.80428,-5.1062834 61.105217,-2.2484354 C 63.43833,-1.6803424 65.790973,-1.1307927 68.124105,-0.56269524 C 68.205087,-1.0705963 68.286477,-1.5665514 68.465103,-2.0446046 C 68.875408,-3.5137164 70.542152,-4.242961 72.001745,-3.8474248 C 73.725845,-3.5748073 74.54072,-1.4481549 73.916705,-0.00037189278 C 73.281074,1.6011156 71.364315,2.2086854 69.729632,1.6959577 C 69.583927,3.4605506 69.429654,5.2633877 69.283907,7.0279707 C 70.583647,6.7410949 72.043529,6.4815375 73.321947,7.1525266 C 75.289834,8.1940327 75.530888,10.86184 74.828792,12.673351 C 74.22414,14.289331 72.365461,15.048743 70.706165,14.439125 C 68.958022,13.943516 68.26628,12.002303 68.011262,10.412025 C 65.677202,10.574953 63.368726,10.788545 61.034647,10.951476 C 60.116401,10.934134 61.212141,12.293407 61.275585,12.862384 C 62.402788,15.750782 65.008965,17.992521 67.991737,18.647181 C 70.985299,19.29318 74.21093,19.552717 77.112226,18.700851 C 80.581354,17.667003 82.853448,14.141598 82.669277,10.488944 C 82.671825,7.8903755 80.818115,5.3528729 78.299712,4.5910314 C 77.529004,4.4247989 77.518679,4.2126332 78.241306,3.9336523 C 80.221985,2.8887141 81.679284,0.74612048 81.425606,-1.617428 C 81.305048,-4.5380597 78.836528,-7.0269371 76.08142,-7.7730647 C 74.582325,-8.2011894 73.013408,-8.5012603 71.464136,-8.5879209 z M 11.303736,-12.325998 C 10.711001,-12.150532 10.646712,-11.019204 10.113641,-10.6363 C 8.2214185,-7.9300824 5.0655347,-6.5128179 1.9193963,-5.7287973 C 1.8984882,-3.6942052 1.8778509,-1.688096 1.8569418,0.34650006 C 4.6714411,-0.28764362 7.3902271,-1.4062141 9.7101899,-3.0790978 C 9.6490078,2.8723846 9.5873609,8.868671 9.526159,14.820149 C 12.027507,14.978289 14.512214,15.135373 17.013563,15.293515 C 17.106944,6.2109623 17.200264,-2.8647587 17.293666,-11.947305 C 15.393099,-12.067465 13.529806,-12.185265 11.629259,-12.30542 C 11.519695,-12.323591 11.388397,-12.351068 11.303736,-12.325998 z M 40.797612,-10.461347 C 38.415827,-10.606878 35.985753,-10.505689 33.945168,-9.3257337 C 31.55706,-8.0037897 30.587986,-5.1814778 30.227248,-2.5663918 C 32.492446,-2.239083 34.793018,-1.9388908 37.058219,-1.6115814 C 38.267203,-1.1802928 37.655831,-3.1557934 38.318103,-3.7544472 C 39.280825,-5.9246797 42.795391,-5.8417039 43.985858,-3.7229607 C 44.964857,-2.1306956 44.020964,-0.28205438 42.831995,0.77985912 C 40.313918,3.0811607 37.212998,4.6985937 34.689435,6.9979983 C 31.957327,9.2486838 29.93345,12.442878 29.514283,16.083831 C 36.93341,16.552884 44.362108,17.022536 51.781217,17.491591 C 51.802,15.469182 51.822884,13.438707 51.84367,11.416297 C 48.169595,11.184016 44.449369,10.948818 40.775317,10.716536 C 39.551328,10.805 41.347803,9.8491665 41.635162,9.4635348 C 44.443237,7.3427739 47.770685,5.8310788 49.975728,2.9964429 C 52.044288,0.44243152 52.477117,-3.5586295 50.398663,-6.4552061 C 48.793698,-8.9174424 45.858013,-9.9317787 43.140832,-10.247835 C 42.368555,-10.333014 41.591562,-10.412832 40.797612,-10.461347 z M 12.938592,18.761878 L -0.76977086,34.041147 L -0.83290194,40.181765 L 12.709556,41.037945 L 12.658508,46.002698 L 19.104193,46.410207 L 19.155241,41.445453 L 22.540856,41.659497 L 22.600617,35.845505 L 19.215023,35.631465 L 19.384278,19.169383 L 12.938592,18.761878 z M 71.470634,22.462375 C 69.13286,22.426911 66.883902,22.912907 65.002096,24.275939 C 62.1594,26.24316 61.048004,29.845486 60.740487,33.223426 C 60.448523,37.069458 60.501237,41.2047 62.445973,44.770682 C 63.736901,47.250089 66.089503,49.144683 68.779534,49.746873 C 71.786425,50.431785 75.102436,50.640782 77.904051,49.408586 C 81.305711,47.880957 83.001131,43.866365 82.494556,40.155052 C 82.143593,36.121409 78.634204,32.402223 74.564202,32.070974 C 72.150176,31.716814 69.801764,32.616744 68.156742,34.280607 C 68.291114,32.8732 68.449574,31.501896 68.785697,30.136808 C 69.078597,28.455271 70.46783,26.752471 72.335122,27.092801 C 73.795589,27.242846 74.55506,28.815607 74.714551,30.119432 C 77.176569,29.97031 79.61916,29.819133 82.081156,29.670008 C 81.981535,29.314316 81.897138,28.951101 81.76636,28.604212 C 80.843385,25.875498 78.412584,23.699341 75.634177,23.052442 C 74.283649,22.735673 72.873305,22.483654 71.470634,22.462375 z M 32.987135,20.486958 C 32.154588,25.237612 31.327369,30.025098 30.494801,34.775756 C 32.205535,35.131763 33.920277,35.46352 35.63095,35.819523 C 36.097711,35.823323 36.748617,36.289395 37.063995,35.844752 C 38.436336,34.268581 41.111458,33.82376 42.868004,35.296537 C 44.437261,36.696084 44.411618,38.962235 44.114407,40.800895 C 43.86176,42.587164 42.161403,44.077006 40.30592,43.69779 C 38.426083,43.473279 37.165338,41.543512 37.023695,39.764296 C 34.798792,39.867342 32.534442,40.021184 30.309515,40.124233 C 29.360956,39.945846 29.437255,40.499956 29.841658,41.271278 C 30.818052,44.354395 33.510128,46.869987 36.616873,47.648122 C 39.572075,48.377629 42.721989,48.644413 45.605797,47.824209 C 48.563063,46.982194 50.675166,44.342728 51.40516,41.392567 C 52.226076,38.337776 51.454889,34.737064 48.95596,32.47839 C 45.983379,29.660029 41.439655,29.297013 37.962783,30.802856 C 38.189066,29.476144 38.429245,28.120543 38.655507,26.793826 C 42.632186,27.04524 46.593586,27.295685 50.570263,27.547096 C 50.590623,25.567335 50.611043,23.582218 50.63138,21.602456 C 44.760452,21.231286 38.858064,20.858126 32.987135,20.486958 z M 12.855979,26.796937 L 12.769317,35.223953 L 5.6074588,34.77117 L 12.855979,26.796937 z M 72.23839,36.499702 C 72.742573,36.564824 73.288434,36.741593 73.731177,37.051657 C 75.653618,38.394643 75.745156,41.093236 75.297763,43.099203 C 74.954479,44.874431 73.081662,46.042003 71.299303,45.461141 C 69.264643,44.923301 68.22296,42.636091 68.351357,40.698995 C 68.359357,39.990763 68.446115,39.28139 68.698398,38.629154 C 69.183512,37.152078 70.725928,36.304349 72.23839,36.499702 z M 40.741474,52.027083 C 38.195177,51.794346 35.569392,51.990899 33.431239,53.329856 C 31.422465,54.511278 30.127371,56.794171 30.438926,59.219921 C 30.573643,61.412804 32.10862,63.382927 34.033913,64.415181 C 33.329571,64.646832 32.612461,64.981359 32.004154,65.398116 C 29.592727,66.968069 29.089914,70.219652 29.77633,72.970712 C 30.417999,75.822921 32.793183,78.142407 35.578961,78.893861 C 38.886661,79.782901 42.393683,80.054715 45.672714,79.335904 C 48.505708,78.78282 50.604862,76.341604 51.139792,73.536929 C 51.800074,70.597571 50.405454,67.198402 47.703231,65.60622 C 46.558839,65.222031 47.680557,64.897348 48.171069,64.459169 C 50.392019,62.877691 51.173626,59.721659 50.005552,57.12318 C 48.821466,54.413532 45.96437,52.865039 43.213565,52.379478 C 42.39163,52.228566 41.590233,52.104663 40.741474,52.027083 z M 71.211985,53.953483 C 68.781477,53.681094 66.273795,53.862295 64.16488,55.01142 C 60.948324,56.77167 59.521552,60.78978 60.159005,64.432652 C 60.693487,68.387139 64.233646,71.852757 68.224275,72.067683 C 70.570281,72.36132 72.918326,71.480109 74.501506,69.849812 C 74.361095,71.259432 74.146811,72.622274 73.807444,73.989499 C 73.518515,75.666481 72.119492,77.372126 70.258019,77.033504 C 68.790918,76.887278 68.035605,75.319431 67.878591,74.006874 C 65.416543,74.162092 62.973378,74.366406 60.511308,74.521624 L 60.57374,74.787044 L 60.636153,75.052461 C 61.493994,77.909597 63.846375,80.36154 66.763649,81.061518 C 70.320763,81.911306 74.349466,82.010516 77.394375,79.968669 C 80.335387,78.081169 81.51618,74.500156 81.850641,71.098855 C 82.186537,67.136314 82.152493,62.809392 80.084077,59.15553 C 78.766114,56.675236 76.312352,54.940817 73.618294,54.367087 C 72.834894,54.197623 72.022139,54.044279 71.211985,53.953483 z M -0.020138745,49.842271 C -0.041668399,51.937776 -0.063734651,54.083364 -0.085284195,56.178865 C 4.3103349,56.456767 8.7360517,56.736568 13.131629,57.014463 C 11.746576,58.633578 10.390448,60.330219 9.2351859,62.128313 C 6.3116566,66.492573 4.9420002,71.732076 4.1962619,76.97516 C 6.5924402,77.126652 8.9619238,77.276454 11.358141,77.427949 C 11.868005,77.111619 11.602961,75.845274 11.837406,75.170361 C 12.760954,67.915386 15.991042,60.819452 21.609107,56.243063 C 21.626316,54.567875 21.64356,52.888159 21.660811,51.212978 C 14.442056,50.756595 7.198617,50.298654 -0.020138745,49.842271 z M 40.369587,56.513976 C 40.571743,56.521286 40.755143,56.500014 40.955552,56.551021 C 42.649075,56.817814 43.775712,58.695287 43.457833,60.304471 C 43.320561,61.946587 41.628121,62.985639 40.046694,62.572803 C 38.510183,62.387655 37.291075,60.921042 37.408161,59.399054 C 37.409848,59.235626 37.391583,59.037353 37.413525,58.876445 C 37.541022,57.408123 38.954496,56.462801 40.369587,56.513976 z M 70.448792,58.481004 C 70.664544,58.490109 70.946914,58.532828 71.164305,58.59161 C 73.276059,59.048914 74.386456,61.434074 74.241784,63.427312 C 74.232869,64.204091 74.14072,64.988799 73.827625,65.689014 C 73.078325,67.605854 70.426437,68.263404 68.73309,66.935766 C 66.9458,65.541878 66.880067,62.981677 67.295378,61.027104 C 67.572959,59.524618 68.938424,58.417255 70.448792,58.481004 z M 40.131221,67.023181 C 41.910263,67.013002 43.603865,68.666606 43.809476,70.45877 C 44.217458,72.511591 43.036288,74.855488 40.89501,75.111754 C 38.662566,75.358472 36.728865,73.015705 36.899306,70.871685 C 36.84509,69.216856 37.715779,67.529588 39.348585,67.104438 C 39.603007,67.030883 39.877082,67.02464 40.131221,67.023181 z"
     id="path2506"
     style="font-size:17.9038868px;font-style:normal;font-variant:normal;font-weight:normal;font-stretch:normal;fill:#ffffff;fill-opacity:0.25098039;stroke:none;stroke-width:1px;stroke-linecap:butt;stroke-linejoin:miter;stroke-opacity:1;font-family:Arial Black;-inkscape-font-specification:Arial Black" />
  <text
     x="32.700729"
     y="-20.087591"
     id="text2419"
     xml:space="preserve"
     style="font-size:8px;font-style:normal;font-variant:normal;font-weight:normal;font-stretch:normal;fill:#000000;fill-opacity:1;stroke:none;stroke-width:1px;stroke-linecap:butt;stroke-linejoin:miter;stroke-opacity:1;font-family:Arial;-inkscape-font-specification:Arial"><tspan
       x="32.700729"
       y="-20.087591"
       id="tspan2421" /></text>
  <path
     d="M 3.563932,15.41064 L 6.3702498,14.871025 L 7.6828659,16.40203 L 8.4909661,14.463242 L 11.099738,13.961613 L 9.5617625,17.305996 L 12.437284,20.102978 L 9.6774478,20.633655 L 8.156565,18.865547 L 7.1965002,21.110706 L 4.6342101,21.603397 L 6.255769,17.941691 L 3.563932,15.41064 M 12.25773,14.751149 L 14.483029,14.323256 L 14.052902,12.086336 L 15.929591,11.725475 L 16.359718,13.962395 L 18.596638,13.532268 L 18.958616,15.414767 L 16.721696,15.844895 L 17.149589,18.070193 L 15.2729,18.431054 L 14.845007,16.205755 L 12.619707,16.633648 L 12.25773,14.751149 M 27.787783,17.151298 L 20.687741,18.516534 C 20.634274,17.799798 20.753621,17.094017 21.045782,16.399186 C 21.341072,15.699741 21.975364,14.820634 22.948665,13.761862 C 23.54295,13.113376 23.911235,12.636877 24.053519,12.332363 C 24.195797,12.027861 24.243848,11.755529 24.197673,11.515369 C 24.147767,11.255854 24.008477,11.053688 23.779802,10.908868 C 23.554248,10.759446 23.296219,10.712661 23.005712,10.768514 C 22.703581,10.826617 22.473928,10.969184 22.316753,11.196217 C 22.163448,11.422519 22.100049,11.782151 22.126559,12.275115 L 19.719137,12.539201 C 19.683993,11.855099 19.754621,11.303285 19.931019,10.883758 C 20.106674,10.460373 20.400169,10.106705 20.811505,9.8227525 C 21.225967,9.5341993 21.832165,9.313203 22.630098,9.1597628 C 23.462887,8.9996385 24.128002,8.9701548 24.625442,9.0713122 C 25.126747,9.1717437 25.547085,9.3941771 25.886456,9.7386132 C 26.228944,10.078448 26.447114,10.49239 26.540966,10.980437 C 26.640764,11.499487 26.583099,12.024708 26.367968,12.556103 C 26.1567,13.086765 25.704538,13.711943 25.01148,14.431638 C 24.598349,14.852497 24.323107,15.144414 24.185749,15.30739 C 24.052257,15.469628 23.897538,15.678119 23.721593,15.932866 L 27.416868,15.222318 L 27.787783,17.151298 M 29.288567,7.8794351 L 30.572617,7.6325307 L 30.636733,8.5299779 C 30.654455,8.747495 30.652587,8.9988959 30.63113,9.2841807 C 30.764168,9.1822906 30.851321,9.1133159 30.892592,9.0772556 C 31.038143,8.9568923 31.149805,8.8691462 31.227576,8.8140178 L 31.961455,8.275253 L 32.59809,9.4241139 L 31.739072,9.7820901 C 31.582342,9.8443672 31.344348,9.9122214 31.025089,9.985654 C 31.274771,10.114384 31.476932,10.236178 31.631572,10.351037 L 32.362076,10.891397 L 31.467067,11.87687 L 30.88629,11.17517 C 30.802713,11.074762 30.659921,10.875277 30.457915,10.576714 C 30.375371,10.962125 30.316743,11.20034 30.282031,11.29136 L 29.997091,12.159525 L 28.771384,11.581836 L 29.295879,10.800157 C 29.442924,10.583105 29.59131,10.393906 29.741038,10.232558 C 29.55988,10.251333 29.318832,10.261532 29.017896,10.263158 L 28.089388,10.291072 L 28.271989,8.9846842 L 29.149989,9.1954329 C 29.242652,9.2177893 29.476844,9.2972743 29.852565,9.4338874 C 29.716405,9.1226768 29.623373,8.8895239 29.57347,8.7344281 L 29.288567,7.8794351 M 33.788498,9.5988904 L 36.286876,9.1184882 L 38.349176,12.981617 L 38.738773,8.6470238 L 41.068656,8.1990208 L 39.890607,15.263924 C 39.756207,16.069 39.569078,16.631166 39.32922,16.950422 C 38.990132,17.401223 38.400321,17.707434 37.559785,17.86906 C 37.218918,17.934601 36.683191,17.989414 35.952602,18.033498 L 35.449387,16.419157 C 35.811105,16.46207 36.201131,16.443308 36.619465,16.362869 C 36.898352,16.309242 37.110722,16.202131 37.256578,16.041535 C 37.406303,15.880195 37.509549,15.623359 37.566321,15.271026 L 33.788498,9.5988904 M 41.677615,7.605951 L 48.022333,6.385953 L 48.385428,8.274262 L 42.04071,9.49426 L 41.677615,7.605951 M 42.227285,10.464561 L 48.572003,9.244563 L 48.93398,11.127061 L 42.589262,12.347059 L 42.227285,10.464561 M 54.324708,10.397778 L 50.013553,11.226751 L 49.639286,9.2803392 L 52.965058,3.3267863 L 55.027673,2.9301751 L 56.034283,8.1651486 L 57.103356,7.9595812 L 57.456396,9.7955991 L 56.387323,10.001167 L 56.693439,11.593156 L 54.630824,11.989767 L 54.324708,10.397778 M 53.971668,8.5617598 L 53.456632,5.8832663 L 51.694077,8.9997078 L 53.971668,8.5617598"
     id="text3182"
     style="font-size:12.11723518px;font-style:normal;font-variant:normal;font-weight:normal;font-stretch:normal;text-align:start;line-height:80.00000119%;writing-mode:lr-tb;text-anchor:start;fill:white;fill-opacity:0.5;stroke:none;stroke-width:1px;stroke-linecap:butt;stroke-linejoin:miter;stroke-opacity:1;font-family:Arial Black;-inkscape-font-specification:Arial Black" />
  <path
     d="M 13.865797,28.461918 L 11.632867,27.854047 C 11.885569,27.147845 12.296164,26.625913 12.864656,26.288251 C 13.437071,25.950953 14.214404,25.825855 15.196656,25.912954 C 16.32427,26.012963 17.120895,26.295464 17.586531,26.760457 C 18.052152,27.225465 18.256743,27.776214 18.200304,28.412705 C 18.167196,28.785964 18.035077,29.114798 17.803947,29.399207 C 17.572804,29.683625 17.240859,29.921481 16.808112,30.112772 C 17.134752,30.224902 17.3816,30.34381 17.548656,30.469497 C 17.819785,30.671741 18.021041,30.925202 18.152425,31.229882 C 18.28807,31.530987 18.338127,31.881916 18.302594,32.282671 C 18.257987,32.785584 18.083509,33.257177 17.779159,33.697452 C 17.475142,34.133799 17.064462,34.455749 16.547115,34.663302 C 16.030106,34.866926 15.368882,34.933024 14.563444,34.861595 C 13.777642,34.791909 13.16505,34.644526 12.725666,34.419444 C 12.290206,34.194712 11.94082,33.892475 11.677506,33.512733 C 11.418467,33.129412 11.234236,32.661647 11.124812,32.109435 L 13.551685,32.003906 C 13.603121,32.495536 13.718702,32.844357 13.898431,33.050368 C 14.082429,33.252802 14.327661,33.367607 14.634127,33.394784 C 14.956299,33.423356 15.233924,33.32918 15.467,33.112255 C 15.703995,32.895681 15.839917,32.590943 15.874766,32.198042 C 15.9103,31.797288 15.833708,31.477663 15.644989,31.23917 C 15.460189,31.001032 15.190987,30.866281 14.837382,30.834919 C 14.648786,30.818197 14.385291,30.842349 14.046897,30.907373 L 14.322751,29.203343 C 14.454591,29.23484 14.557839,29.253896 14.632493,29.260511 C 14.946808,29.288391 15.216971,29.211372 15.442982,29.029456 C 15.672913,28.847898 15.800076,28.619602 15.824472,28.344566 C 15.847811,28.08133 15.787873,27.86416 15.644655,27.693057 C 15.501428,27.521966 15.292302,27.424223 15.017277,27.399826 C 14.734386,27.374746 14.496875,27.4408 14.304743,27.59799 C 14.112952,27.751264 13.966637,28.03924 13.865797,28.461918 M 22.009529,26.517136 L 23.31199,26.632642 L 23.126987,27.513151 C 23.084245,27.727162 23.013355,27.968369 22.914319,28.236771 C 23.070237,28.175367 23.172991,28.133001 23.222582,28.109673 C 23.395609,28.033947 23.527086,27.980268 23.617013,27.948638 L 24.470703,27.632315 L 24.767074,28.911904 L 23.842753,29.020008 C 23.674942,29.036812 23.427465,29.036644 23.100318,29.019505 C 23.305006,29.211899 23.465908,29.384564 23.583026,29.5375 L 24.136889,30.257819 L 23.005504,30.959364 L 22.639943,30.125067 C 22.58718,30.005557 22.504712,29.774509 22.392541,29.431925 C 22.20725,29.779809 22.085411,29.992737 22.027021,30.070711 L 21.514451,30.827134 L 20.494713,29.934822 L 21.213843,29.327395 C 21.414879,29.159115 21.60955,29.017983 21.797856,28.904 C 21.618513,28.872262 21.383945,28.815821 21.094152,28.734677 L 20.193727,28.506328 L 20.728337,27.300433 L 21.514606,27.744371 C 21.597555,27.791333 21.800885,27.932122 22.124591,28.166736 C 22.079205,27.830088 22.053834,27.580344 22.048478,27.417507 L 22.009529,26.517136 M 28.787042,27.118182 L 30.283988,27.250935 C 29.66824,28.344707 29.20357,29.364748 28.889979,30.311065 C 28.624633,31.115156 28.450672,31.982784 28.368096,32.913952 C 28.20886,34.709503 28.512646,36.597591 29.279457,38.578223 L 27.782511,38.44547 C 27.116103,37.297399 26.666382,36.273484 26.433345,35.373722 C 26.204583,34.47038 26.132711,33.539372 26.217729,32.580696 C 26.305882,31.586665 26.550768,30.656029 26.952389,29.788784 C 27.357937,28.921901 27.969487,28.031701 28.787042,27.118182 M 36.684317,27.818532 L 35.905047,36.605725 L 33.47693,36.390394 L 33.987558,30.632454 C 33.568174,30.89622 33.165633,31.104054 32.779935,31.255959 C 32.39816,31.408223 31.922789,31.544261 31.353821,31.664074 L 31.528385,29.695648 C 32.368959,29.504887 33.031539,29.244875 33.516128,28.915612 C 34.000711,28.586364 34.394738,28.16196 34.698211,27.642399 L 36.684317,27.818532 M 39.248319,31.591998 L 41.505526,31.792173 L 41.706745,29.523179 L 43.610343,29.691994 L 43.409123,31.960988 L 45.678116,32.162208 L 45.508778,34.071698 L 43.239785,33.870479 L 43.03961,36.127685 L 41.136013,35.958869 L 41.336187,33.701663 L 39.078981,33.501488 L 39.248319,31.591998 M 46.738348,31.258339 L 49.584903,31.510779 L 50.426198,33.343579 L 51.736027,31.701545 L 54.382203,31.936215 L 51.984299,34.729121 L 53.98038,38.208689 L 51.180974,37.960431 L 50.204595,35.842418 L 48.664453,37.73726 L 46.065425,37.506772 L 48.630904,34.431734 L 46.738348,31.258339 M 56.810583,29.603378 L 55.313637,29.470625 C 55.727287,30.655686 56.005198,31.741581 56.147366,32.728316 C 56.267063,33.566554 56.285623,34.451255 56.203047,35.382422 C 56.043811,37.177973 55.412498,38.983135 54.309105,40.797912 L 55.806052,40.930665 C 56.664093,39.917786 57.285021,38.988819 57.668838,38.143761 C 58.056924,37.295122 58.293479,36.391467 58.378501,35.432791 C 58.46665,34.438759 58.387395,33.479378 58.140735,32.554642 C 57.897996,31.630267 57.454612,30.646514 56.810583,29.603378 M 60.093029,31.973417 L 66.528719,32.54415 L 66.358858,34.459534 L 59.923168,33.888801 L 60.093029,31.973417 M 59.835885,34.873014 L 66.271576,35.443746 L 66.102238,37.353237 L 59.666547,36.782505 L 59.835885,34.873014 M 73.436117,31.07777 L 72.656847,39.864963 L 70.228729,39.649632 L 70.739357,33.891693 C 70.319973,34.155458 69.917433,34.363293 69.531735,34.515198 C 69.149959,34.667462 68.674588,34.803499 68.10562,34.923312 L 68.280184,32.954886 C 69.120757,32.764125 69.783338,32.504113 70.267928,32.174851 C 70.752511,31.845603 71.146537,31.421198 71.45001,30.901638 L 73.436117,31.07777 M 82.304487,40.720539 L 75.102643,40.081863 C 75.248218,39.378033 75.556942,38.732229 76.028818,38.144452 C 76.504967,37.553098 77.356444,36.88217 78.583252,36.131666 C 79.332879,35.671484 79.81794,35.314552 80.038436,35.060868 C 80.258921,34.807194 80.379969,34.558557 80.401577,34.314953 C 80.424917,34.051717 80.346552,33.819054 80.166485,33.616964 C 79.990684,33.411305 79.755449,33.295407 79.460779,33.269268 C 79.154313,33.242096 78.894321,33.316057 78.680803,33.491149 C 78.471205,33.666603 78.311409,33.994962 78.201414,34.476228 L 75.814118,34.068502 C 75.968343,33.401085 76.187909,32.889931 76.472815,32.53504 C 76.758066,32.176235 77.137459,31.916849 77.610995,31.75688 C 78.088802,31.593348 78.732393,31.547466 79.54177,31.619234 C 80.386498,31.694156 81.034102,31.848604 81.484586,32.082581 C 81.938984,32.316921 82.282002,32.646312 82.513641,33.070755 C 82.749542,33.491632 82.845545,33.949593 82.801651,34.44464 C 82.754953,34.971131 82.555158,35.460278 82.202267,35.912084 C 81.85329,36.364248 81.246719,36.84108 80.382553,37.342585 C 79.869665,37.633694 79.524791,37.838723 79.347932,37.957672 C 79.174992,38.076975 78.968931,38.234916 78.729748,38.431496 L 82.478007,38.7639 L 82.304487,40.720539"
     id="text3186"
     style="font-size:12.11723518px;font-style:normal;font-variant:normal;font-weight:normal;font-stretch:normal;text-align:start;line-height:80.00000119%;writing-mode:lr-tb;text-anchor:start;fill:white;fill-opacity:0.5;stroke:none;stroke-width:1px;stroke-linecap:butt;stroke-linejoin:miter;stroke-opacity:1;font-family:Arial Black;-inkscape-font-specification:Arial Black" />
  <path
     d="M 9.173334,44.347626 L 10.671264,44.468772 C 10.064012,45.567282 9.6072627,46.590895 9.3010155,47.539615 C 9.0419096,48.345738 8.8746792,49.214688 8.7993239,50.146468 C 8.6540091,51.943198 8.9724202,53.828876 9.7545601,55.803503 L 8.25663,55.682357 C 7.5813439,54.539486 7.1236993,53.519089 6.8836955,52.62116 C 6.6479387,51.719618 6.568853,50.789196 6.6464376,49.829889 C 6.7268833,48.835205 6.9645495,47.902698 7.3594361,47.032367 C 7.758252,46.162366 8.3628838,45.267454 9.173334,44.347626 M 17.0758,44.986743 L 16.364663,53.779712 L 13.93495,53.583207 L 14.400933,47.821483 C 13.983606,48.088491 13.582689,48.29944 13.198179,48.454329 C 12.817595,48.609548 12.343293,48.749266 11.77527,48.873485 L 11.934573,46.903766 C 12.773642,46.706494 13.434187,46.441355 13.91621,46.108347 C 14.398227,45.775353 14.788953,45.347907 15.088389,44.82601 L 17.0758,44.986743 M 19.668972,48.740222 L 21.927662,48.922895 L 22.111289,46.65241 L 24.016137,46.806466 L 23.83251,49.076951 L 26.102995,49.260578 L 25.948462,51.171323 L 23.677977,50.987697 L 23.495304,53.246387 L 21.590456,53.092331 L 21.773129,50.833641 L 19.514439,50.650968 L 19.668972,48.740222 M 33.116628,46.284056 L 32.405491,55.077024 L 29.975777,54.88052 L 30.441761,49.118796 C 30.024434,49.385804 29.623516,49.596752 29.239007,49.751642 C 28.858424,49.906861 28.384121,50.046579 27.816098,50.170798 L 27.9754,48.201078 C 28.81447,48.003807 29.475015,47.738668 29.957038,47.40566 C 30.439054,47.072665 30.82978,46.64522 31.129216,46.123322 L 33.116628,46.284056 M 37.409907,46.631277 L 38.636559,46.730484 L 35.743745,55.489471 L 34.528888,55.391218 L 37.409907,46.631277 M 45.409175,56.128706 L 38.202598,55.545869 C 38.342712,54.840932 38.646422,54.192756 39.113726,53.601338 C 39.585278,53.006312 40.43153,52.328804 41.652483,51.568814 C 42.398521,51.102835 42.8808,50.742154 43.099324,50.486769 C 43.317837,50.231394 43.436954,49.981826 43.456673,49.738062 C 43.477972,49.474653 43.397806,49.242604 43.216178,49.041915 C 43.038788,48.837626 42.802662,48.723554 42.507798,48.6997 C 42.201131,48.674905 41.94172,48.750878 41.729565,48.92762 C 41.521333,49.104693 41.364088,49.434281 41.257826,49.916385 L 38.867441,49.527175 C 39.016489,48.858583 39.232086,48.345742 39.514233,47.988654 C 39.796695,47.627649 40.174066,47.36533 40.646347,47.201695 C 41.122873,47.034465 41.766089,46.983596 42.575997,47.049088 C 43.42128,47.11746 44.070062,47.266885 44.522346,47.497361 C 44.978547,47.728173 45.324108,48.054896 45.55903,48.477531 C 45.798186,48.896567 45.897736,49.35377 45.85768,49.849142 C 45.815064,50.375978 45.619067,50.86666 45.269688,51.321188 C 44.924226,51.776042 44.321369,52.257562 43.461117,52.76575 C 42.9505,53.060826 42.607226,53.268522 42.431293,53.388838 C 42.259283,53.509477 42.054454,53.669011 41.8168,53.867439 L 45.567524,54.170781 L 45.409175,56.128706 M 48.632588,47.538919 L 47.134658,47.417773 C 47.557481,48.599591 47.8438,49.683301 47.993612,50.668904 C 48.119801,51.506189 48.145218,52.390719 48.069862,53.322499 C 47.924548,55.119229 47.307246,56.929231 46.217953,58.752505 L 47.715884,58.873651 C 48.566049,57.854152 49.179757,56.920401 49.557013,56.072393 C 49.93851,55.220772 50.168052,54.31531 50.245641,53.356004 C 50.326082,52.361319 50.239394,51.40258 49.985574,50.479785 C 49.735678,49.557319 49.284683,48.577032 48.632588,47.538919 M 54.028676,47.975332 L 55.331993,48.080738 L 55.153821,48.962656 C 55.112738,49.176991 55.04372,49.41874 54.946767,49.687902 C 55.102204,49.625291 55.204627,49.58213 55.254036,49.558418 C 55.426471,49.481354 55.557527,49.426657 55.647207,49.394329 L 56.49842,49.071401 L 56.8047,50.348654 L 55.881244,50.463919 C 55.713569,50.482023 55.466097,50.483773 55.138827,50.469171 C 55.345,50.659972 55.507236,50.831385 55.625536,50.983408 L 56.184966,51.699413 L 55.059052,52.409706 L 54.687036,51.578267 C 54.633348,51.45917 54.549092,51.228769 54.434269,50.887064 C 54.251681,51.236374 54.131494,51.45024 54.07371,51.528664 L 53.567019,52.289037 L 52.540396,51.404656 L 53.254796,50.791673 C 53.454522,50.62184 53.648093,50.479204 53.83551,50.363764 C 53.655925,50.333418 53.420928,50.278796 53.130514,50.1999 L 52.228346,49.978538 L 52.753594,48.768536 L 53.543279,49.206366 C 53.626591,49.252684 53.831005,49.391892 54.15652,49.62399 C 54.108526,49.287704 54.081221,49.038164 54.074603,48.875373 L 54.028676,47.975332 M 60.69085,51.179375 L 58.453274,50.58883 C 58.700494,49.88069 59.107033,49.355591 59.67289,49.013533 C 60.242674,48.671809 61.019014,48.540689 62.001911,48.620172 C 63.130267,48.711438 63.929057,48.987756 64.398282,49.449126 C 64.867494,49.910511 65.076347,50.459658 65.024845,51.096567 C 64.994629,51.470072 64.865064,51.79992 64.636145,52.086111 C 64.407213,52.372313 64.077122,52.612734 63.645871,52.807374 C 63.973371,52.916968 64.221133,53.03396 64.389158,53.158349 C 64.661847,53.358485 64.865061,53.610378 64.998802,53.914031 C 65.136777,54.214075 65.189552,54.564606 65.157127,54.965624 C 65.116419,55.468867 64.945602,55.941798 64.644674,56.384419 C 64.344048,56.82311 63.935876,57.148233 63.420154,57.35979 C 62.904738,57.567415 62.244047,57.638636 61.438078,57.573452 C 60.651761,57.509859 60.038044,57.367227 59.596929,57.145559 C 59.15974,56.924209 58.808022,56.624689 58.541772,56.246999 C 58.27977,55.865698 58.091919,55.399375 57.978218,54.848028 L 60.404201,54.723691 C 60.459445,55.214908 60.577727,55.562822 60.759046,55.767434 C 60.944609,55.968435 61.190722,56.081336 61.497389,56.106137 C 61.819774,56.132212 62.096659,56.035886 62.328047,55.817161 C 62.563357,55.598756 62.696913,55.292975 62.728715,54.899816 C 62.761142,54.498798 62.682075,54.179777 62.491514,53.942754 C 62.304873,53.706055 62.034634,53.573394 61.680798,53.544774 C 61.492078,53.529515 61.228778,53.555708 60.890899,53.623353 L 61.153537,51.917236 C 61.285617,51.94771 61.389008,51.965965 61.463712,51.972001 C 61.778234,51.997444 62.047791,51.918334 62.272386,51.734671 C 62.500903,51.551336 62.626292,51.322061 62.648554,51.046845 C 62.669854,50.783436 62.608234,50.566738 62.463695,50.396749 C 62.319145,50.226774 62.109268,50.130654 61.834063,50.10839 C 61.550985,50.085503 61.313992,50.153396 61.123085,50.31207 C 60.932488,50.466826 60.788409,50.755928 60.69085,51.179375 M 66.61198,52.53677 L 68.87067,52.719443 L 69.054297,50.448957 L 70.959145,50.603013 L 70.775518,52.873499 L 73.046003,53.057126 L 72.89147,54.967871 L 70.620985,54.784244 L 70.438312,57.042934 L 68.533464,56.888878 L 68.716137,54.630188 L 66.457447,54.447515 L 66.61198,52.53677 M 74.099199,52.145066 L 76.947625,52.375435 L 77.803101,54.201659 L 79.100163,52.549523 L 81.748078,52.763674 L 79.371894,55.575083 L 81.394885,59.039075 L 78.593639,58.812522 L 77.600873,56.702141 L 76.075464,58.608863 L 73.474727,58.398527 L 76.016295,55.303697 L 74.099199,52.145066 M 82.764719,52.376957 L 89.204639,52.89779 L 89.049629,54.814433 L 82.609709,54.2936 L 82.764719,52.376957 M 82.530058,55.278459 L 88.969978,55.799292 L 88.815445,57.710038 L 82.375525,57.189205 L 82.530058,55.278459 M 89.986692,53.429978 L 92.522559,53.635068 L 93.476875,57.908956 L 95.011246,53.836342 L 97.376086,54.0276 L 94.351957,60.52031 C 94.007193,61.26014 93.676569,61.751805 93.360082,61.995307 C 92.912807,62.33903 92.262596,62.476394 91.409447,62.407397 C 91.063466,62.379414 90.532589,62.288991 89.816811,62.13613 L 89.76355,60.446016 C 90.100625,60.584081 90.481468,60.670283 90.906079,60.704625 C 91.18915,60.727518 91.422428,60.68109 91.605912,60.565339 C 91.793324,60.449905 91.961484,60.230024 92.110392,59.905699 L 89.986692,53.429978"
     id="text3190"
     style="font-size:12.11723518px;font-style:normal;font-variant:normal;font-weight:normal;font-stretch:normal;text-align:start;line-height:80.00000119%;writing-mode:lr-tb;text-anchor:start;fill:white;fill-opacity:0.5;stroke:none;stroke-width:1px;stroke-linecap:butt;stroke-linejoin:miter;stroke-opacity:1;font-family:Arial Black;-inkscape-font-specification:Arial Black" />
</svg>
