<?xml version="1.0" encoding="UTF-8" standalone="no"?>
<!-- Created with Inkscape (http://www.inkscape.org/) -->

<svg
   xmlns:dc="http://purl.org/dc/elements/1.1/"
   xmlns:cc="http://creativecommons.org/ns#"
   xmlns:rdf="http://www.w3.org/1999/02/22-rdf-syntax-ns#"
   xmlns:svg="http://www.w3.org/2000/svg"
   xmlns="http://www.w3.org/2000/svg"
   xmlns:sodipodi="http://sodipodi.sourceforge.net/DTD/sodipodi-0.dtd"
   xmlns:inkscape="http://www.inkscape.org/namespaces/inkscape"
   version="1.0"
   width="100%"
   height="100%"
   viewBox="0 0 640 480"
   id="svg2"
   inkscape:version="0.91 r13725"
   sodipodi:docname="keys.svg">
  <metadata
     id="metadata50">
    <rdf:RDF>
      <cc:Work
         rdf:about="">
        <dc:format>image/svg+xml</dc:format>
        <dc:type
           rdf:resource="http://purl.org/dc/dcmitype/StillImage" />
      </cc:Work>
    </rdf:RDF>
  </metadata>
  <sodipodi:namedview
     pagecolor="#ffffff"
     bordercolor="#666666"
     borderopacity="1"
     objecttolerance="10"
     gridtolerance="10"
     guidetolerance="10"
     inkscape:pageopacity="0"
     inkscape:pageshadow="2"
     inkscape:window-width="886"
     inkscape:window-height="480"
     id="namedview48"
     showgrid="false"
     inkscape:zoom="0.34766083"
     inkscape:cx="353.52286"
     inkscape:cy="238.37795"
     inkscape:window-x="1352"
     inkscape:window-y="398"
     inkscape:window-maximized="0"
     inkscape:current-layer="svg2" />
  <defs
     id="defs4" />
  <g
     style="opacity:0.8"
     id="splashbg">
    <rect
       x="0"
       y="0"
       width="640"
       height="480"
       style="fill:black;fill-opacity:0.95;"
       id="rect5" />
    <path
       d="M 0 0 L 0 10 L 640 10 L 640 0 L 0 0 z M 0 20 L 0 30 L 640 30 L 640 20 L 0 20 z M 0 40 L 0 50 L 640 50 L 640 40 L 0 40 z M 0 60 L 0 70 L 640 70 L 640 60 L 0 60 z M 0 80 L 0 90 L 640 90 L 640 80 L 0 80 z M 0 100 L 0 110 L 640 110 L 640 100 L 0 100 z M 0 120 L 0 130 L 640 130 L 640 120 L 0 120 z M 0 140 L 0 150 L 640 150 L 640 140 L 0 140 z M 0 160 L 0 170 L 640 170 L 640 160 L 0 160 z M 0 180 L 0 190 L 640 190 L 640 180 L 0 180 z M 0 200 L 0 210 L 640 210 L 640 200 L 0 200 z M 0 220 L 0 230 L 640 230 L 640 220 L 0 220 z M 0 240 L 0 250 L 640 250 L 640 240 L 0 240 z M 0 260 L 0 270 L 640 270 L 640 260 L 0 260 z M 0 280 L 0 290 L 640 290 L 640 280 L 0 280 z M 0 300 L 0 310 L 640 310 L 640 300 L 0 300 z M 0 320 L 0 330 L 640 330 L 640 320 L 0 320 z M 0 340 L 0 350 L 640 350 L 640 340 L 0 340 z M 0 360 L 0 370 L 640 370 L 640 360 L 0 360 z M 0 380 L 0 390 L 640 390 L 640 380 L 0 380 z M 0 400 L 0 410 L 640 410 L 640 400 L 0 400 z M 0 420 L 0 430 L 640 430 L 640 420 L 0 420 z M 0 440 L 0 450 L 640 450 L 640 440 L 0 440 z M 0 460 L 0 470 L 640 470 L 640 460 L 0 460 z "
       style="fill:black;"
       id="path7" />
  </g>
  <path
     style="color:#000000;clip-rule:nonzero;display:inline;overflow:visible;visibility:visible;opacity:1;isolation:auto;mix-blend-mode:normal;color-interpolation:sRGB;color-interpolation-filters:linearRGB;solid-color:#000000;solid-opacity:1;fill:none;fill-opacity:1;fill-rule:nonzero;stroke:#a5bbd9;stroke-width:20;stroke-linecap:butt;stroke-linejoin:miter;stroke-miterlimit:4;stroke-dasharray:none;stroke-dashoffset:0;stroke-opacity:0.49693251;marker:none;marker-start:none;marker-mid:none;marker-end:none;color-rendering:auto;image-rendering:auto;shape-rendering:auto;text-rendering:auto;enable-background:accumulate"
     d="M 428.27148 80.65625 L 201.97461 94.708984 C 199.9935 94.832025 198.49805 96.526703 198.62109 98.507812 L 202.97266 168.57617 L 23.302734 200.91406 C 21.349199 201.26568 20.060493 203.12264 20.412109 205.07617 L 60.576172 428.22266 C 60.927788 430.17619 62.782793 431.4649 64.736328 431.11328 L 287.88281 390.94922 C 289.83635 390.5976 291.12701 388.7426 290.77539 386.78906 L 279.51758 324.24219 L 345.29297 320.1582 L 333.98633 422.16602 C 333.76768 424.13886 335.1795 425.9044 337.15234 426.12305 L 562.50586 451.09766 C 564.47871 451.3163 566.24229 449.90449 566.46094 447.93164 L 591.4375 222.57812 C 591.65615 220.60528 590.24433 218.8417 588.27148 218.62305 L 439.40625 202.125 L 432.07031 84.009766 C 431.94727 82.028656 430.25259 80.53321 428.27148 80.65625 z "
     id="rect3377-7" />
  <g
     id="g4214"
     transform="matrix(0.98418508,-0.17714325,0.17714325,0.98418508,125.78815,227.93318)">
    <rect
       ry="3.5829"
       y="-44.74575"
       x="-99.661018"
       height="233.8983"
       width="233.8983"
       id="rect3377"
       style="color:#000000;clip-rule:nonzero;display:inline;overflow:visible;visibility:visible;opacity:1;isolation:auto;mix-blend-mode:normal;color-interpolation:sRGB;color-interpolation-filters:linearRGB;solid-color:#000000;solid-opacity:1;fill:#295486;fill-opacity:1;fill-rule:nonzero;stroke:#7295c3;stroke-width:2.5;stroke-linecap:butt;stroke-linejoin:miter;stroke-miterlimit:4;stroke-dasharray:none;stroke-dashoffset:0;stroke-opacity:1;marker:none;marker-start:none;marker-mid:none;marker-end:none;color-rendering:auto;image-rendering:auto;shape-rendering:auto;text-rendering:auto;enable-background:accumulate" />
    <rect
       style="color:#000000;clip-rule:nonzero;display:inline;overflow:visible;visibility:visible;opacity:1;isolation:auto;mix-blend-mode:normal;color-interpolation:sRGB;color-interpolation-filters:linearRGB;solid-color:#000000;solid-opacity:1;fill:#3874b8;fill-opacity:1;fill-rule:nonzero;stroke:none;stroke-width:2.11283374;stroke-linecap:butt;stroke-linejoin:miter;stroke-miterlimit:4;stroke-dasharray:none;stroke-dashoffset:0;stroke-opacity:1;marker:none;marker-start:none;marker-mid:none;marker-end:none;color-rendering:auto;image-rendering:auto;shape-rendering:auto;text-rendering:auto;enable-background:accumulate"
       id="rect4179"
       width="218.01428"
       height="218.01428"
       x="-91.719009"
       y="-36.803741"
       ry="3.3395855" />
    <path
       inkscape:connector-curvature="0"
       id="path4181"
       d="m -88.380032,-36.802966 c -1.85013,0 -3.339844,1.48776 -3.339844,3.33789 l 0,79.392579 A 193.22034,73.220337 0 0 0 18.30551,58.982193 193.22034,73.220337 0 0 0 126.29575,46.402113 l 0,-79.867189 c 0,-1.85013 -1.48972,-3.33789 -3.33985,-3.33789 l -211.335932,0 z"
       style="color:#000000;clip-rule:nonzero;display:inline;overflow:visible;visibility:visible;opacity:1;isolation:auto;mix-blend-mode:normal;color-interpolation:sRGB;color-interpolation-filters:linearRGB;solid-color:#000000;solid-opacity:1;fill:#7fbae0;fill-opacity:0.28220861;fill-rule:nonzero;stroke:none;stroke-width:2.5;stroke-linecap:butt;stroke-linejoin:miter;stroke-miterlimit:4;stroke-dasharray:none;stroke-dashoffset:0;stroke-opacity:1;marker:none;marker-start:none;marker-mid:none;marker-end:none;color-rendering:auto;image-rendering:auto;shape-rendering:auto;text-rendering:auto;enable-background:accumulate" />
    <path
       d="m 107.0916,114.31232 q -2.35218,5.97834 -7.42479,18.07677 -15.67397,1.15187 -21.8492,1.9098 -21.37589,2.62361 -46.21718,10.01205 0.36945,-16.6322 -1.58951,-32.5928 -2.15719,-17.575677 -6.31492,-27.094667 -15.86214,0.40396 -49.473344,0.76833 -1.77083,11.50014 -4.47996,23.212057 -3.08107,13.39689 -7.38863,23.08684 5.76845,0.64213 29.279344,-1.08632 -0.30082,12.47704 0.94685,22.64249 -22.452144,-4.57336 -41.739214,-6.93148 -12.8302,-1.60759 -32.73744,-2.73238 2.24027,-3.74659 5.38749,-9.53323 l 4.18399,-7.55327 q 3.59499,1.00525 11.52008,3.50419 11.92025,-21.52151 18.79815,-60.553907 7.32143,-40.91918 5.15808,-66.4017796 13.9457,-3.44744001 25.696294,-7.49341 12.10741,-4.28263 25.95333,-10.9001504 16.87067,21.1701504 39.35336,65.2781 10.43545,21.38138 27.67857,56.585337 2.41148,4.71867 11.48994,6.40105 6.93179,0.69212 13.76866,1.39602 z M 24.07256,38.192553 q -1.59748,-13.01554 -19.2681,-10.84671 -12.82552,1.57417 -22.34137,9.68533 -9.955904,8.45465 -8.813194,17.76494 1.51587,12.3506 22.701704,9.75034 30.49615,-3.743 27.72096,-26.3539 z"
       style="font-style:normal;font-variant:normal;font-weight:normal;font-stretch:semi-expanded;font-size:medium;line-height:125%;font-family:Ravie;-inkscape-font-specification:'Ravie Semi-Expanded';letter-spacing:0px;word-spacing:0px;fill:#ffffff;fill-opacity:1;stroke:none;stroke-width:1px;stroke-linecap:butt;stroke-linejoin:miter;stroke-opacity:1"
       id="path4235"
       inkscape:connector-curvature="0" />
    <g
       transform="matrix(7.4778707,0,0,7.4778707,-140.49946,-102.6961)"
       style="font-style:normal;font-variant:normal;font-weight:normal;font-stretch:normal;font-size:12.96848965px;line-height:125%;font-family:'Showcard Gothic';-inkscape-font-specification:'Showcard Gothic';letter-spacing:0px;word-spacing:0px;fill:#7fbae0;fill-opacity:1;stroke:none;stroke-width:1px;stroke-linecap:butt;stroke-linejoin:miter;stroke-opacity:1"
       id="text3436">
      <path
         style="fill:#7fbae0;fill-opacity:1"
         d="m 33.115723,29.552838 q 0,1.22846 -0.443259,1.937674 -0.41793,0.671221 -1.494416,1.266455 1.298115,0.569904 1.298115,1.918677 0,1.089151 -0.804198,1.690717 -0.721879,0.538243 -1.855355,0.538243 -1.089151,0 -1.323445,-0.07599 l -0.215297,-0.943508 q -0.08232,-0.341943 -0.234294,-0.924511 0.683885,0.234294 1.190467,0.234294 0.443259,0 0.728211,-0.259623 0.284952,-0.259624 0.284952,-0.658557 0,-0.379936 -0.27862,-0.639559 -0.310281,-0.284952 -0.835859,-0.284952 -0.126646,0 -0.259624,0.01266 L 28.626143,32.08574 q 0.550907,-0.06332 0.816863,-0.424262 0.1963,-0.272288 0.1963,-0.601566 0,-0.854856 -0.962505,-0.854856 -0.550907,0 -1.298115,0.227961 l 0.246958,-3.185132 q 1.108147,-0.386268 2.349272,-0.379936 1.348774,0.01267 2.241624,0.759873 0.899183,0.747207 0.899183,1.92501 z"
         id="path3377"
         inkscape:connector-curvature="0" />
    </g>
  </g>
  <g
     id="g4230"
     transform="matrix(0.99807694,-0.06198725,0.06198725,0.99807694,9.7110071,173.89865)">
    <rect
       style="color:#000000;clip-rule:nonzero;display:inline;overflow:visible;visibility:visible;opacity:1;isolation:auto;mix-blend-mode:normal;color-interpolation:sRGB;color-interpolation-filters:linearRGB;solid-color:#000000;solid-opacity:1;fill:#295486;fill-opacity:1;fill-rule:nonzero;stroke:#7295c3;stroke-width:2.5;stroke-linecap:butt;stroke-linejoin:miter;stroke-miterlimit:4;stroke-dasharray:none;stroke-dashoffset:0;stroke-opacity:1;marker:none;marker-start:none;marker-mid:none;marker-end:none;color-rendering:auto;image-rendering:auto;shape-rendering:auto;text-rendering:auto;enable-background:accumulate"
       id="rect4186"
       width="233.8983"
       height="233.8983"
       x="193.22034"
       y="-67.118629"
       ry="3.5829" />
    <rect
       ry="3.3395855"
       y="-59.176624"
       x="201.16235"
       height="218.01428"
       width="218.01428"
       id="rect4188"
       style="color:#000000;clip-rule:nonzero;display:inline;overflow:visible;visibility:visible;opacity:1;isolation:auto;mix-blend-mode:normal;color-interpolation:sRGB;color-interpolation-filters:linearRGB;solid-color:#000000;solid-opacity:1;fill:#3874b8;fill-opacity:1;fill-rule:nonzero;stroke:none;stroke-width:2.11283374;stroke-linecap:butt;stroke-linejoin:miter;stroke-miterlimit:4;stroke-dasharray:none;stroke-dashoffset:0;stroke-opacity:1;marker:none;marker-start:none;marker-mid:none;marker-end:none;color-rendering:auto;image-rendering:auto;shape-rendering:auto;text-rendering:auto;enable-background:accumulate" />
    <path
       style="color:#000000;clip-rule:nonzero;display:inline;overflow:visible;visibility:visible;opacity:1;isolation:auto;mix-blend-mode:normal;color-interpolation:sRGB;color-interpolation-filters:linearRGB;solid-color:#000000;solid-opacity:1;fill:#7fbae0;fill-opacity:0.28220861;fill-rule:nonzero;stroke:none;stroke-width:2.5;stroke-linecap:butt;stroke-linejoin:miter;stroke-miterlimit:4;stroke-dasharray:none;stroke-dashoffset:0;stroke-opacity:1;marker:none;marker-start:none;marker-mid:none;marker-end:none;color-rendering:auto;image-rendering:auto;shape-rendering:auto;text-rendering:auto;enable-background:accumulate"
       d="m 204.50132,-59.175847 c -1.85013,0 -3.33984,1.48776 -3.33984,3.33789 l 0,79.392579 a 193.22034,73.220337 0 0 0 110.02539,13.05469 193.22034,73.220337 0 0 0 107.99024,-12.58008 l 0,-79.867189 c 0,-1.85013 -1.48972,-3.33789 -3.33985,-3.33789 l -211.33594,0 z"
       id="path4190"
       inkscape:connector-curvature="0" />
    <path
       d="m 388.39618,67.521315 q 2.4487,19.95086 -7.58266,35.647295 -12.14002,18.94476 -38.26609,22.15139 -13.2056,1.62082 -38.51464,0.48404 -25.21408,-1.14846 -34.5244,-0.006 -12.63546,1.55083 -19.09449,7.06882 l -2.58215,-24.17708 q 2.69854,-1.58443 7.06877,-2.12081 7.03024,-0.86287 14.89533,1.93273 -17.8443,-42.459235 -24.43246,-96.136405 -0.0933,-0.76044 -0.202,-2.3860199 -0.12041,-1.72104 -0.21368,-2.48111 -0.7929,-6.46022 -7.03641,-7.04402998 -6.28018,-0.0972 -12.46538,-0.20585 -1.78,-0.36014 -2.78282,-8.53055022 -1.0844,-8.8352499 -0.61287,-12.8469799 22.1783,10.20013 50.77447,6.69033 14.06063,-1.72574 30.5864,-6.9364 12.3441,-3.92587 21.46436,-5.045259 19.8559,-2.437048 30.154,6.038879 7.71474,6.28579 9.07901,17.4012301 3.63805,29.6411399 -20.45182,40.7948099 1.30672,-0.35368 4.25176,-0.71514 18.24078,-2.23882 29.42542,7.96063 9.33632,8.49756 11.0504,22.4631 z M 341.5155,7.6995251 q -0.60635,-4.9402 -9.99311,-6.77751998 -8.40182,-1.66904 -19.51727,-0.30478 -13.30056,1.63246998 -26.86315,8.98674998 -13.91936,7.5909799 -13.18474,13.5762799 0.53635,4.37008 10.66987,6.79086 9.82518,2.26586 20.27553,0.98321 11.6855,-1.43424 24.80812,-8.44534 14.65598,-7.87416 13.80475,-14.8094599 z m 25.72119,66.5655899 q -0.87454,-7.12532 -15.96812,-10.67313 -14.20346,-3.36776 -29.68913,-1.46711 -12.1605,1.49254 -22.34447,5.73203 -11.74063,4.9126 -11.0993,10.13785 0.78124,6.36515 15.53969,11.11142 15.16174,4.88957 30.07741,3.05889 15.10556,-1.85401 24.62621,-6.78361 9.60397,-5.03607 8.85771,-11.11634 z"
       style="font-style:normal;font-variant:normal;font-weight:normal;font-stretch:semi-expanded;font-size:medium;line-height:125%;font-family:Ravie;-inkscape-font-specification:'Ravie Semi-Expanded';letter-spacing:0px;word-spacing:0px;fill:#ffffff;fill-opacity:1;stroke:none;stroke-width:1px;stroke-linecap:butt;stroke-linejoin:miter;stroke-opacity:1"
       id="path4238"
       inkscape:connector-curvature="0" />
    <g
       style="font-style:normal;font-variant:normal;font-weight:normal;font-stretch:normal;font-size:12.96848965px;line-height:125%;font-family:'Showcard Gothic';-inkscape-font-specification:'Showcard Gothic';letter-spacing:0px;word-spacing:0px;fill:#7fbae0;fill-opacity:1;stroke:none;stroke-width:1px;stroke-linecap:butt;stroke-linejoin:miter;stroke-opacity:1"
       id="text3432"
       transform="matrix(7.4778707,0,0,7.4778707,24.174307,179.88979)">
      <path
         style="fill:#7fbae0;fill-opacity:1"
         d="m 50.231087,-13.968614 q -0.04433,1.291783 -0.132978,4.5908962 -0.03166,1.6463902 -0.06332,5.1734648 l -2.81786,0 q 0.01266,-1.9566715 -0.03799,-3.6410554 -0.01266,-0.4939171 -0.06332,-2.6722176 -0.107649,0.019 -0.468588,0.101316 -0.189968,0.04433 -0.449591,0.145642 l -0.601566,-2.127643 q 0.715546,-0.303949 2.532908,-1.146141 0.563572,-0.272287 1.488084,-0.772537 l 0.61423,0.348275 z"
         id="path3371"
         inkscape:connector-curvature="0" />
    </g>
  </g>
  <g
     id="g4222"
     transform="matrix(0.99391448,0.11015446,-0.11015446,0.99391448,404.1468,527.67956)">
    <rect
       ry="3.5829"
       y="-327.45761"
       x="-81.355934"
       height="233.8983"
       width="233.8983"
       id="rect4198"
       style="color:#000000;clip-rule:nonzero;display:inline;overflow:visible;visibility:visible;opacity:1;isolation:auto;mix-blend-mode:normal;color-interpolation:sRGB;color-interpolation-filters:linearRGB;solid-color:#000000;solid-opacity:1;fill:#295486;fill-opacity:1;fill-rule:nonzero;stroke:#7295c3;stroke-width:2.5;stroke-linecap:butt;stroke-linejoin:miter;stroke-miterlimit:4;stroke-dasharray:none;stroke-dashoffset:0;stroke-opacity:1;marker:none;marker-start:none;marker-mid:none;marker-end:none;color-rendering:auto;image-rendering:auto;shape-rendering:auto;text-rendering:auto;enable-background:accumulate" />
    <rect
       style="color:#000000;clip-rule:nonzero;display:inline;overflow:visible;visibility:visible;opacity:1;isolation:auto;mix-blend-mode:normal;color-interpolation:sRGB;color-interpolation-filters:linearRGB;solid-color:#000000;solid-opacity:1;fill:#3874b8;fill-opacity:1;fill-rule:nonzero;stroke:none;stroke-width:2.11283374;stroke-linecap:butt;stroke-linejoin:miter;stroke-miterlimit:4;stroke-dasharray:none;stroke-dashoffset:0;stroke-opacity:1;marker:none;marker-start:none;marker-mid:none;marker-end:none;color-rendering:auto;image-rendering:auto;shape-rendering:auto;text-rendering:auto;enable-background:accumulate"
       id="rect4200"
       width="218.01428"
       height="218.01428"
       x="-73.413918"
       y="-319.51562"
       ry="3.3395855" />
    <path
       inkscape:connector-curvature="0"
       id="path4202"
       d="m -70.074951,-319.51483 c -1.85013,0 -3.33984,1.48776 -3.33984,3.33789 l 0,79.39257 a 193.22034,73.220337 0 0 0 110.02539,13.05469 193.22034,73.220337 0 0 0 107.990241,-12.58008 l 0,-79.86718 c 0,-1.85013 -1.48972,-3.33789 -3.33985,-3.33789 l -211.335941,0 z"
       style="color:#000000;clip-rule:nonzero;display:inline;overflow:visible;visibility:visible;opacity:1;isolation:auto;mix-blend-mode:normal;color-interpolation:sRGB;color-interpolation-filters:linearRGB;solid-color:#000000;solid-opacity:1;fill:#7fbae0;fill-opacity:0.28220861;fill-rule:nonzero;stroke:none;stroke-width:2.5;stroke-linecap:butt;stroke-linejoin:miter;stroke-miterlimit:4;stroke-dasharray:none;stroke-dashoffset:0;stroke-opacity:1;marker:none;marker-start:none;marker-mid:none;marker-end:none;color-rendering:auto;image-rendering:auto;shape-rendering:auto;text-rendering:auto;enable-background:accumulate" />
    <path
       d="m 99.43755,-249.53568 q 1.45756,11.87554 -4.69301,17.54856 -6.15068,5.67318 -23.15632,7.76039 -19.57076,2.40204 -32.40762,-1.61566 -12.33843,-3.88598 -13.31791,-11.86632 -0.51306,-4.18016 2.07749,-10.57346 4.50092,-11.25673 17.64172,-15.7626 7.50693,-1.6933 14.90735,-3.46909 0.97551,-0.69834 0.88222,-1.45841 -0.45475,-3.70511 -10.40655,-7.78764 -11.17327,-4.60754 -22.38369,-3.23162 -15.86565,1.94729 -22.5551797,15.01554 -5.85421996,11.22992 -3.77866,28.14062 1.02611,8.36033 3.76062,17.28248 11.4892297,38.61029 22.4519697,52.5015 8.80779,11.26268 20.6833,9.80513 4.37021,-0.53638 8.74206,-1.84488 15.43241,-4.69074 23.20847,-15.19224 3.81041,-5.09652 10.56677,-21.5482 1.04667,-0.90037 1.11664,-0.33033 1.14138,4.58512 1.54949,7.91024 2.06392,16.81577 -3.57059,30.62242 -7.41315,18.17171 -26.46913,23.98232 -15.2425,4.66733 -27.02291,6.11321 -63.46255,7.78917 -73.57215,-74.57902 -4.89739,-39.90168 12.94976,-62.63273 16.0969403,-20.49126 48.49319,-24.46746 36.67151,-4.50094 56.66775,9.92095 15.33812,11.03977 17.63521,29.75549 z"
       style="font-style:normal;font-variant:normal;font-weight:normal;font-stretch:semi-expanded;font-size:medium;line-height:125%;font-family:Ravie;-inkscape-font-specification:'Ravie Semi-Expanded';letter-spacing:0px;word-spacing:0px;fill:#ffffff;fill-opacity:1;stroke:none;stroke-width:1px;stroke-linecap:butt;stroke-linejoin:miter;stroke-opacity:1"
       id="path4241"
       inkscape:connector-curvature="0" />
    <g
       transform="matrix(7.4778707,0,0,7.4778707,-250.40196,-82.483091)"
       id="g4210"
       style="font-style:normal;font-variant:normal;font-weight:normal;font-stretch:normal;font-size:12.96848965px;line-height:125%;font-family:'Showcard Gothic';-inkscape-font-specification:'Showcard Gothic';letter-spacing:0px;word-spacing:0px;fill:#7fbae0;fill-opacity:1;stroke:none;stroke-width:1px;stroke-linecap:butt;stroke-linejoin:miter;stroke-opacity:1">
      <path
         inkscape:connector-curvature="0"
         id="path4212"
         d="m 50.231087,-13.968614 q -0.04433,1.291783 -0.132978,4.5908962 -0.03166,1.6463902 -0.06332,5.1734648 l -2.81786,0 q 0.01266,-1.9566715 -0.03799,-3.6410554 -0.01266,-0.4939171 -0.06332,-2.6722176 -0.107649,0.019 -0.468588,0.101316 -0.189968,0.04433 -0.449591,0.145642 l -0.601566,-2.127643 q 0.715546,-0.303949 2.532908,-1.146141 0.563572,-0.272287 1.488084,-0.772537 l 0.61423,0.348275 z"
         style="fill:#7fbae0;fill-opacity:1" />
    </g>
  </g>
  <path
     style="fill:#ffff00;fill-opacity:0.53987732;fill-rule:nonzero;marker:none"
     id="p3327-3"
     d="m 514.57591,300.31162 c 0.353,0 14.6499,34.04192 14.94408,34.25373 0.30594,0.22357 37.08957,3.28299 37.20724,3.64776 0.11767,0.34125 -27.84071,24.42829 -27.97015,24.79306 -0.1059,0.34125 8.3428,36.27765 8.04862,36.50122 -0.30594,0.21181 -31.87679,-18.92133 -32.22979,-18.92133 -0.36478,0 -31.93563,19.13314 -32.2298,18.92133 -0.30595,-0.22357 8.14276,-36.15997 8.03685,-36.50122 -0.11767,-0.36477 -28.08781,-24.45181 -27.97014,-24.79306 0.11767,-0.36477 36.90129,-3.42419 37.20723,-3.64776 0.30595,-0.21181 14.59108,-34.25373 14.95586,-34.25373 z"
     inkscape:connector-curvature="0" />
  <path
     style="opacity:0.76000001;fill:#ffffff;stroke:#000000;stroke-width:3.64626956px;stroke-linecap:butt;stroke-linejoin:round;stroke-opacity:1"
     id="p3329"
     d="m 554.75052,442.27203 c -0.50542,-1.13728 -2.54926,-5.62879 -2.54926,-5.62879 0,0 -21.47939,-6.12813 -25.99942,-13.98718 -4.52003,-7.85905 -11.68679,-24.79195 -11.68679,-24.79195 0,0 -0.38345,-1.02424 -2.9794,-4.12352 -7.19821,-2.70261 2.10877,-17.56668 12.82943,-7.42182 5.18952,8.61281 5.60183,9.43308 7.33533,13.44129 0.63843,1.43657 -17.22647,-38.60118 -19.48087,-43.83536 1.99311,-4.06353 3.96187,-9.09583 13.80038,-5.77464 1.87981,3.79982 18.21288,40.98217 18.21288,40.98217 l -10.0951,-23.46841 c 0,0 11.11802,-8.69215 13.80032,-3.4092 2.70225,5.27408 7.69213,18.06132 7.69213,18.06132 l -7.01155,-17.33637 c 0,0 8.81457,-6.40216 15.71344,-1.63119 3.78395,8.56846 6.63029,15.8333 6.63029,15.8333 0,0 -0.36797,-0.72051 -5.98522,-14.54304 0.27935,-0.12414 4.19006,-4.01247 10.22441,-1.9395 3.92154,5.75962 14.60182,32.05017 14.60182,32.05017 0,0 3.06801,7.11855 -0.25101,17.12335 1.80209,8.94745 3.83928,13.58527 3.83928,13.58527 l -38.64108,16.8141 z"
     inkscape:connector-curvature="0" />
</svg>
