<?xml version="1.0" encoding="UTF-8" standalone="no"?>
<svg
   xmlns:dc="http://purl.org/dc/elements/1.1/"
   xmlns:cc="http://creativecommons.org/ns#"
   xmlns:rdf="http://www.w3.org/1999/02/22-rdf-syntax-ns#"
   xmlns:svg="http://www.w3.org/2000/svg"
   xmlns="http://www.w3.org/2000/svg"
   xmlns:sodipodi="http://sodipodi.sourceforge.net/DTD/sodipodi-0.dtd"
   xmlns:inkscape="http://www.inkscape.org/namespaces/inkscape"
   version="1.0"
   width="100%"
   height="100%"
   viewBox="0 0 640 480"
   id="svg2"
   inkscape:version="0.91 r13725"
   sodipodi:docname="mahjong.svg">
  <sodipodi:namedview
     pagecolor="#ffffff"
     bordercolor="#666666"
     borderopacity="1"
     objecttolerance="10"
     gridtolerance="10"
     guidetolerance="10"
     inkscape:pageopacity="0"
     inkscape:pageshadow="2"
     inkscape:window-width="1200"
     inkscape:window-height="754"
     id="namedview109"
     showgrid="false"
     inkscape:zoom="0.74980416"
     inkscape:cx="239.60929"
     inkscape:cy="234.38762"
     inkscape:window-x="0"
     inkscape:window-y="0"
     inkscape:window-maximized="0"
     inkscape:current-layer="svg2" />
  <metadata
     id="metadata172">
    <rdf:RDF>
      <cc:Work
         rdf:about="">
        <dc:format>image/svg+xml</dc:format>
        <dc:type
           rdf:resource="http://purl.org/dc/dcmitype/StillImage" />
        <dc:title />
      </cc:Work>
    </rdf:RDF>
  </metadata>
  <defs
     id="defs3" />
  <g
     style="opacity:0.8"
     id="splashbg">
    <rect
       x="0"
       y="0"
       width="640"
       height="480"
       style="fill:black;fill-opacity:0.95;"
       id="rect6" />
    <path
       d="M 0 0 L 0 10 L 640 10 L 640 0 L 0 0 z M 0 20 L 0 30 L 640 30 L 640 20 L 0 20 z M 0 40 L 0 50 L 640 50 L 640 40 L 0 40 z M 0 60 L 0 70 L 640 70 L 640 60 L 0 60 z M 0 80 L 0 90 L 640 90 L 640 80 L 0 80 z M 0 100 L 0 110 L 640 110 L 640 100 L 0 100 z M 0 120 L 0 130 L 640 130 L 640 120 L 0 120 z M 0 140 L 0 150 L 640 150 L 640 140 L 0 140 z M 0 160 L 0 170 L 640 170 L 640 160 L 0 160 z M 0 180 L 0 190 L 640 190 L 640 180 L 0 180 z M 0 200 L 0 210 L 640 210 L 640 200 L 0 200 z M 0 220 L 0 230 L 640 230 L 640 220 L 0 220 z M 0 240 L 0 250 L 640 250 L 640 240 L 0 240 z M 0 260 L 0 270 L 640 270 L 640 260 L 0 260 z M 0 280 L 0 290 L 640 290 L 640 280 L 0 280 z M 0 300 L 0 310 L 640 310 L 640 300 L 0 300 z M 0 320 L 0 330 L 640 330 L 640 320 L 0 320 z M 0 340 L 0 350 L 640 350 L 640 340 L 0 340 z M 0 360 L 0 370 L 640 370 L 640 360 L 0 360 z M 0 380 L 0 390 L 640 390 L 640 380 L 0 380 z M 0 400 L 0 410 L 640 410 L 640 400 L 0 400 z M 0 420 L 0 430 L 640 430 L 640 420 L 0 420 z M 0 440 L 0 450 L 640 450 L 640 440 L 0 440 z M 0 460 L 0 470 L 640 470 L 640 460 L 0 460 z "
       style="fill:black;"
       id="path8" />
  </g>
  <path
     inkscape:connector-curvature="0"
     id="path4289"
     d="m 379.13615,118.7891 c -0.85314,0.13842 -1.61922,0.60972 -2.11553,1.31805 l -9.43916,13.09648 c -0.51503,0.69485 -0.71982,1.57066 -0.58137,2.42379 l 20.11523,123.94602 c 0.28736,1.77066 1.97119,2.98427 3.74185,2.69691 l 85.3135,-13.84556 c 0.85314,-0.13842 1.61922,-0.60972 2.11554,-1.31805 l 9.43915,-13.09648 c 0.51503,-0.69486 0.71983,-1.57066 0.58137,-2.42379 L 468.1915,107.64044 c -0.28736,-1.77066 -1.9712,-2.98426 -3.74186,-2.6969 l -85.31349,13.84556 z"
     style="color:#000000;clip-rule:nonzero;display:inline;overflow:visible;visibility:visible;opacity:1;isolation:auto;mix-blend-mode:normal;color-interpolation:sRGB;color-interpolation-filters:linearRGB;solid-color:#000000;solid-opacity:1;fill:none;fill-opacity:1;fill-rule:nonzero;stroke:#ffffff;stroke-width:16;stroke-linecap:butt;stroke-linejoin:miter;stroke-miterlimit:4;stroke-dasharray:none;stroke-dashoffset:0;stroke-opacity:1;filter-blend-mode:normal;filter-gaussianBlur-deviation:0;color-rendering:auto;image-rendering:auto;shape-rendering:auto;text-rendering:auto;enable-background:accumulate" />
  <path
     style="color:#000000;clip-rule:nonzero;display:inline;overflow:visible;visibility:visible;opacity:1;isolation:auto;mix-blend-mode:normal;color-interpolation:sRGB;color-interpolation-filters:linearRGB;solid-color:#000000;solid-opacity:1;fill:none;fill-opacity:1;fill-rule:nonzero;stroke:#ffffff;stroke-width:16;stroke-linecap:butt;stroke-linejoin:miter;stroke-miterlimit:4;stroke-dasharray:none;stroke-dashoffset:0;stroke-opacity:1;color-rendering:auto;image-rendering:auto;shape-rendering:auto;text-rendering:auto;enable-background:accumulate"
     id="path4666"
     d="m 218.32561,74.11454 c -0.21528,-0.02047 -0.43529,-0.0184 -0.6582,0.0059 l -85.92188,9.347656 c -0.85922,0.09349 -1.64883,0.525714 -2.18164,1.207031 l -10.11328,12.582032 c -0.55078,0.666869 -0.80247,1.531404 -0.70898,2.390624 l 2.36523,21.728518 -5.53125,-28.404299 c -0.3428,-1.760765 -2.06346,-2.920927 -3.82422,-2.578125 L 26.915453,106.91141 c -0.848369,0.16517 -1.600385,0.65925 -2.074218,1.38281 l -9.023438,13.38672 c -0.492958,0.71068 -0.669074,1.59304 -0.503906,2.44141 l 23.996094,123.25391 c 0.342801,1.76077 2.063454,2.92092 3.824218,2.57812 l 42.996094,-8.37109 c -0.265382,0.4365 -0.438081,0.92812 -0.474609,1.44726 l -8.8125,125.25782 c -0.125909,1.7894 1.234037,3.35651 3.023437,3.48242 l 86.216795,6.0664 c 0.86216,0.0607 1.71594,-0.22302 2.36133,-0.79882 l 12.18946,-10.58594 c 0.66051,-0.5584 1.06043,-1.3644 1.12109,-2.22656 l 8.8125,-125.25782 c 0.12591,-1.7894 -1.23404,-3.35651 -3.02344,-3.48242 l -57.10547,-4.01758 3.19141,-4.73437 c 0.63769,0.47423 1.44352,0.72698 2.29102,0.63476 l 85.92187,-9.34961 c 0.85922,-0.0935 1.64884,-0.52375 2.18164,-1.20507 l 10.11328,-12.58399 c 0.55078,-0.66687 0.80052,-1.52945 0.70703,-2.38867 L 221.26311,77.009071 c -0.16978,-1.560387 -1.43052,-2.751258 -2.9375,-2.894531 z m 115.54688,139.03125 c -0.21616,0.006 -0.43417,0.0342 -0.65235,0.0859 l -84.09765,19.94532 c -0.84097,0.19943 -1.57153,0.7246 -2.01563,1.46679 l -8.47265,13.74024 c -0.46373,0.73008 -0.60568,1.61801 -0.40625,2.45898 l 28.97461,122.17969 c 0.41392,1.74541 2.18037,2.83385 3.92578,2.41992 L 355.226,355.4993 c 0.84097,-0.19944 1.57153,-0.7246 2.01563,-1.46679 l 8.47265,-13.74024 c 0.46373,-0.73009 0.60569,-1.61997 0.40625,-2.46094 L 337.14592,215.6536 c -0.36218,-1.52723 -1.76032,-2.55273 -3.27343,-2.50781 z" />
  <path
     id="path6666"
     d="m 249.12208,233.17628 c -0.84097,0.19943 -1.57118,0.72456 -2.01528,1.46675 l -8.47309,13.74127 c -0.46373,0.73008 -0.60503,1.61834 -0.4056,2.45931 l 28.97497,122.17894 c 0.41392,1.74541 2.18066,2.83481 3.92607,2.42088 l 84.09719,-19.9438 c 0.84097,-0.19944 1.57119,-0.72457 2.01529,-1.46676 l 8.47309,-13.74126 c 0.46373,-0.73009 0.60503,-1.61835 0.40559,-2.45932 L 337.14535,215.65335 c -0.41393,-1.74541 -2.18066,-2.83481 -3.92608,-2.42088 l -84.09719,19.94381 z" />
  <path
     id="path6668"
     d="m 282.93095,356.30381 -10.89397,17.66734 14.28066,-3.38668 68.62648,-16.2749 c 0.52362,-0.12418 0.98246,-0.45087 1.2571,-0.91824 l 8.47309,-13.74126 c 0.2784,-0.4515 0.0979,-2.20199 -0.0263,-2.72561 l -81.71708,19.37935 z"
     style="fill:#9f9f9f" />
  <path
     id="path6670"
     d="m 248.14721,235.28457 -8.47309,13.74126 c -0.29427,0.45526 -0.38013,1.01194 -0.25595,1.53556 l 24.92976,105.12149 0.37629,1.58674 3.38669,14.28065 3.92607,2.42088 8.47309,-13.74126 -1.50519,-6.34696 -0.3763,-1.58674 -28.03422,-118.21208 c -0.52362,0.12418 -2.17251,0.73309 -2.44715,1.20046 z"
     style="fill:#d7d7d7" />
  <path
     id="path6672"
     d="m 270.09263,373.82891 12.27388,-19.90521 -0.18815,-0.79336 -12.6007,20.43522 c 0.16081,0.1127 0.32996,0.1899 0.51497,0.26335 z"
     style="fill:#bfbfbf" />
  <path
     id="path6674"
     d="m 270.66812,373.9941 11.88654,-19.27703 -0.18815,-0.79337 -12.27388,19.90521 c 0.18502,0.0734 0.38214,0.12725 0.57549,0.16519 z"
     style="fill:#b7b7b7" />
  <path
     id="path6676"
     d="m 271.30414,374.06115 11.43866,-18.55071 -0.18814,-0.79337 -11.88654,19.27703 c 0.20923,0.0342 0.41845,0.0684 0.63602,0.067 z"
     style="fill:#afafaf" />
  <path
     id="path6678"
     d="m 282.7428,355.51044 -11.43866,18.55071 c 0.23343,-0.005 0.47896,-0.0298 0.73284,-0.09 l 10.89397,-17.66734 -0.18815,-0.79337 z"
     style="fill:#a7a7a7" />
  <path
     id="path6680"
     d="m 269.57766,373.56556 12.6007,-20.43522 -0.79337,0.18814 -12.27388,19.90521 c 0.14871,0.13233 0.29364,0.24879 0.46655,0.34187 z"
     style="fill:#c7c7c7" />
  <path
     id="path6682"
     d="m 269.11111,373.22369 12.27388,-19.90521 -0.79337,0.18815 -11.88653,19.27703 c 0.12073,0.15573 0.25732,0.30769 0.40602,0.44003 z"
     style="fill:#cdcdcd" />
  <path
     id="path6684"
     d="m 268.70509,372.78366 11.88653,-19.27703 -0.79337,0.18815 -11.43867,18.55071 c 0.0965,0.19499 0.22101,0.36658 0.34551,0.53817 z"
     style="fill:#d2d2d2" />
  <path
     id="path6686"
     d="m 279.79825,353.69478 -0.79337,0.18815 -10.89397,17.66734 c 0.0564,0.23801 0.14462,0.4685 0.24867,0.69522 l 11.43867,-18.55071 z"
     style="fill:#d7d7d7" />
  <path
     id="path6688"
     d="M 364.64803,336.92446 336.23752,217.12563 c -0.41393,-1.74541 -2.18066,-2.83481 -3.92608,-2.42088 l -80.13034,19.00306 c -1.74541,0.41393 -2.83481,2.18066 -2.42088,3.92607 l 28.41052,119.79883 c 0.41392,1.74541 2.18066,2.83481 3.92607,2.42088 l 80.13034,-19.00306 c 1.74541,-0.41393 2.83481,-2.18066 2.42088,-3.92607 z"
     style="fill:#f6f6f6" />
  <path
     id="path6690"
     d="M 278.17074,357.43271 249.76022,237.63388 c -0.41393,-1.74541 0.67547,-3.51214 2.42088,-3.92607 l -1.58674,0.3763 c -1.74541,0.41392 -2.83481,2.18066 -2.42088,3.92607 L 276.584,357.80901 c 0.41392,1.74541 2.18066,2.83481 3.92607,2.42088 l 1.58674,-0.3763 c -1.74541,0.41393 -3.51215,-0.67547 -3.92607,-2.42088 z"
     style="fill:#ffffff" />
  <path
     style="fill:#006c00"
     id="use4872"
     d="m 287.51601,264.11861 c -0.26657,-1.12405 -1.94337,-1.74589 -4.15003,-1.71297 l -2.01956,-8.51587 c 1.98646,-0.96148 3.20545,-2.27007 2.93888,-3.39411 -0.37667,-1.58833 -3.53037,-2.19545 -7.05167,-1.36037 -3.52129,0.83508 -6.06652,2.79372 -5.68984,4.38204 0.26657,1.12405 1.94337,1.74589 4.15003,1.71297 l 2.01956,8.51587 c -1.98646,0.96148 -3.20546,2.27007 -2.93889,3.39411 0.26657,1.12405 1.94338,1.74589 4.15004,1.71297 l 2.01666,8.50365 c -1.98356,0.9737 -3.20256,2.28229 -2.93599,3.40633 0.37668,1.58833 3.53038,2.19545 7.05167,1.36037 3.5213,-0.83508 6.06652,-2.79371 5.68985,-4.38204 -0.26657,-1.12405 -1.94337,-1.74589 -4.15004,-1.71297 l -2.01665,-8.50365 c 1.98355,-0.9737 3.20255,-2.28229 2.93598,-3.40633 z m -9.85645,-13.18729 c 1.56374,-0.37084 2.93931,-0.19376 3.08128,0.40491 0.1188,0.50094 -0.68617,1.13061 -1.87343,1.54122 l 1.72111,7.25743 c 0.13328,0.56202 -0.0809,1.10322 -0.46319,1.19387 -0.38224,0.0907 -0.81668,-0.29672 -0.94996,-0.85874 l -1.72111,-7.25743 c -1.24521,0.16625 -2.24722,-0.0349 -2.36602,-0.53582 -0.14197,-0.59868 1.00759,-1.3746 2.57132,-1.74544 z m 6.97138,29.39625 c -1.56373,0.37084 -2.9393,0.19377 -3.08128,-0.40491 -0.1188,-0.50093 0.68618,-1.13061 1.87344,-1.54122 l -1.72111,-7.25743 c -0.13329,-0.56202 0.0809,-1.10322 0.46318,-1.19387 0.38225,-0.0907 0.81668,0.29672 0.94997,0.85874 l 1.72111,7.25743 c 1.24521,-0.16625 2.24721,0.0349 2.36601,0.53582 0.14198,0.59868 -1.00759,1.3746 -2.57132,1.74544 z m -3.23071,-13.62295 c -2.15447,0.51094 -4.00495,0.44649 -4.14693,-0.15219 -0.14198,-0.59868 1.4825,-1.48722 3.63697,-1.99816 2.15448,-0.51094 4.00496,-0.44649 4.14694,0.15219 0.14197,0.59868 -1.4825,1.48722 -3.63698,1.99816 z" />
  <path
     style="fill:#006c00"
     id="use4874"
     d="m 299.93385,316.48101 c -0.26657,-1.12405 -1.94337,-1.74589 -4.15003,-1.71297 l -2.01956,-8.51587 c 1.98646,-0.96148 3.20545,-2.27007 2.93888,-3.39411 -0.37667,-1.58833 -3.53037,-2.19545 -7.05167,-1.36037 -3.52129,0.83508 -6.06652,2.79372 -5.68984,4.38204 0.26657,1.12405 1.94337,1.74589 4.15003,1.71297 l 2.01956,8.51587 c -1.98646,0.96148 -3.20545,2.27007 -2.93888,3.39411 0.26657,1.12405 1.94337,1.74589 4.15003,1.71297 l 2.01666,8.50365 c -1.98356,0.9737 -3.20256,2.28229 -2.93599,3.40633 0.37668,1.58833 3.53038,2.19545 7.05167,1.36037 3.5213,-0.83508 6.06653,-2.79371 5.68985,-4.38204 -0.26657,-1.12405 -1.94337,-1.74589 -4.15003,-1.71297 l -2.01666,-8.50365 c 1.98356,-0.9737 3.20255,-2.28229 2.93598,-3.40633 z m -9.85644,-13.18729 c 1.56373,-0.37084 2.9393,-0.19376 3.08128,0.40491 0.11879,0.50094 -0.68618,1.13061 -1.87344,1.54122 l 1.72111,7.25743 c 0.13329,0.56202 -0.0809,1.10322 -0.46318,1.19387 -0.38225,0.0906 -0.81668,-0.29672 -0.94997,-0.85874 l -1.72111,-7.25743 c -1.24521,0.16625 -2.24722,-0.0349 -2.36601,-0.53582 -0.14198,-0.59868 1.00758,-1.3746 2.57132,-1.74544 z m 6.97137,29.39625 c -1.56373,0.37084 -2.9393,0.19377 -3.08128,-0.40491 -0.11879,-0.50093 0.68618,-1.13061 1.87344,-1.54122 l -1.72111,-7.25743 c -0.13329,-0.56202 0.0809,-1.10322 0.46318,-1.19387 0.38225,-0.0906 0.81668,0.29672 0.94997,0.85874 l 1.72111,7.25743 c 1.24521,-0.16625 2.24722,0.0349 2.36601,0.53582 0.14198,0.59868 -1.00759,1.3746 -2.57132,1.74544 z m -3.23071,-13.62295 c -2.15447,0.51094 -4.00495,0.44649 -4.14693,-0.15219 -0.14198,-0.59868 1.4825,-1.48722 3.63697,-1.99816 2.15448,-0.51094 4.00496,-0.44649 4.14694,0.15219 0.14198,0.59868 -1.4825,1.48722 -3.63698,1.99816 z" />
  <path
     style="fill:#006c00"
     id="use4880"
     d="m 325.59776,255.08745 c -0.26657,-1.12405 -1.94337,-1.74589 -4.15004,-1.71296 l -2.01955,-8.51588 c 1.98645,-0.96148 3.20545,-2.27006 2.93888,-3.39411 -0.37668,-1.58833 -3.53038,-2.19545 -7.05167,-1.36037 -3.52129,0.83508 -6.06652,2.79372 -5.68985,4.38204 0.26657,1.12405 1.94337,1.74589 4.15004,1.71297 l 2.01955,8.51587 c -1.98645,0.96148 -3.20545,2.27007 -2.93888,3.39412 0.26657,1.12404 1.94337,1.74588 4.15004,1.71296 l 2.01665,8.50365 c -1.98355,0.9737 -3.20255,2.28229 -2.93598,3.40634 0.37667,1.58832 3.53038,2.19545 7.05167,1.36036 3.52129,-0.83508 6.06652,-2.79371 5.68985,-4.38204 -0.26657,-1.12404 -1.94338,-1.74589 -4.15004,-1.71296 l -2.01666,-8.50366 c 1.98356,-0.9737 3.20256,-2.28228 2.93599,-3.40633 z m -9.85645,-13.18729 c 1.56373,-0.37084 2.9393,-0.19376 3.08128,0.40491 0.1188,0.50094 -0.68618,1.13061 -1.87344,1.54122 l 1.72112,7.25743 c 0.13328,0.56202 -0.0809,1.10322 -0.46319,1.19387 -0.38225,0.0907 -0.81668,-0.29671 -0.94996,-0.85874 l -1.72112,-7.25743 c -1.24521,0.16626 -2.24721,-0.0349 -2.36601,-0.53582 -0.14198,-0.59868 1.00759,-1.3746 2.57132,-1.74544 z m 6.97138,29.39625 c -1.56374,0.37085 -2.93931,0.19377 -3.08128,-0.40491 -0.1188,-0.50093 0.68617,-1.1306 1.87343,-1.54122 l -1.72111,-7.25742 c -0.13328,-0.56203 0.0809,-1.10322 0.46319,-1.19387 0.38224,-0.0906 0.81668,0.29671 0.94996,0.85873 l 1.72111,7.25743 c 1.24522,-0.16625 2.24722,0.0349 2.36602,0.53583 0.14197,0.59867 -1.00759,1.37459 -2.57132,1.74543 z m -3.23071,-13.62295 c -2.15448,0.51094 -4.00496,0.44649 -4.14694,-0.15219 -0.14197,-0.59867 1.4825,-1.48722 3.63698,-1.99816 2.15447,-0.51093 4.00496,-0.44648 4.14693,0.15219 0.14198,0.59868 -1.4825,1.48722 -3.63697,1.99816 z" />
  <path
     style="fill:#006c00"
     id="use4882"
     d="m 338.0156,307.44985 c -0.26657,-1.12405 -1.94337,-1.74589 -4.15004,-1.71296 l -2.01955,-8.51588 c 1.98645,-0.96148 3.20545,-2.27006 2.93888,-3.39411 -0.37667,-1.58833 -3.53038,-2.19545 -7.05167,-1.36037 -3.52129,0.83508 -6.06652,2.79372 -5.68985,4.38204 0.26657,1.12405 1.94337,1.74589 4.15004,1.71297 l 2.01955,8.51587 c -1.98645,0.96148 -3.20545,2.27007 -2.93888,3.39412 0.26657,1.12404 1.94337,1.74588 4.15004,1.71296 l 2.01665,8.50365 c -1.98355,0.9737 -3.20255,2.28229 -2.93598,3.40634 0.37667,1.58832 3.53038,2.19545 7.05167,1.36036 3.52129,-0.83508 6.06652,-2.79371 5.68985,-4.38204 -0.26657,-1.12404 -1.94337,-1.74589 -4.15004,-1.71296 l -2.01666,-8.50366 c 1.98356,-0.9737 3.20256,-2.28228 2.93599,-3.40633 z m -9.85645,-13.18729 c 1.56373,-0.37084 2.9393,-0.19376 3.08128,0.40491 0.1188,0.50094 -0.68618,1.13061 -1.87344,1.54122 l 1.72112,7.25743 c 0.13328,0.56202 -0.0809,1.10322 -0.46319,1.19387 -0.38224,0.0906 -0.81668,-0.29671 -0.94996,-0.85874 l -1.72112,-7.25743 c -1.24521,0.16626 -2.24721,-0.0349 -2.36601,-0.53582 -0.14198,-0.59868 1.00759,-1.3746 2.57132,-1.74544 z m 6.97138,29.39625 c -1.56373,0.37085 -2.9393,0.19377 -3.08128,-0.40491 -0.1188,-0.50093 0.68618,-1.1306 1.87344,-1.54122 l -1.72112,-7.25742 c -0.13328,-0.56203 0.0809,-1.10322 0.46319,-1.19387 0.38224,-0.0907 0.81668,0.29671 0.94996,0.85873 l 1.72112,7.25743 c 1.24521,-0.16625 2.24721,0.0349 2.36601,0.53583 0.14198,0.59867 -1.00759,1.37459 -2.57132,1.74543 z m -3.23071,-13.62295 c -2.15448,0.51094 -4.00496,0.44649 -4.14693,-0.15219 -0.14198,-0.59867 1.4825,-1.48722 3.63697,-1.99816 2.15447,-0.51093 4.00496,-0.44648 4.14693,0.15219 0.14198,0.59868 -1.4825,1.48723 -3.63697,1.99816 z" />
  <path
     id="path4924"
     d="m 321.82569,265.89542 c -0.87258,-0.78189 -2.61047,-0.33623 -4.38611,0.93962 l -6.60553,-5.87484 c 1.05177,-1.92541 1.30264,-3.6944 0.43006,-4.47629 -0.86881,-0.76603 -2.61047,-0.33623 -4.38611,0.93961 l -6.60552,-5.87483 c 1.05176,-1.92541 1.30264,-3.6944 0.43006,-4.4763 -1.23264,-1.09874 -4.15958,0.19874 -6.55368,2.895 -2.3941,2.69626 -3.34489,5.75415 -2.11226,6.85289 0.87258,0.78189 2.61047,0.33623 4.38611,-0.93962 l 6.60553,5.87484 c -1.05177,1.92541 -1.30264,3.6944 -0.43006,4.47629 0.87258,0.7819 2.61046,0.33623 4.38611,-0.93961 l 6.60552,5.87483 c -1.05177,1.92541 -1.30264,3.6944 -0.43006,4.4763 1.23264,1.09874 4.15958,-0.19874 6.55368,-2.895 2.3941,-2.69626 3.34489,-5.75415 2.11226,-6.85289 z m -19.51424,-7.65709 -5.63103,-5.01655 c -0.92012,0.85508 -1.86251,1.26293 -2.24972,0.90224 -0.46573,-0.4091 0.0287,-1.71631 1.08739,-2.90592 1.05867,-1.18962 2.29664,-1.83516 2.76237,-1.42606 0.38346,0.34482 0.0948,1.31831 -0.63739,2.32994 l 5.63103,5.01655 c 0.4461,0.397 0.57781,0.95236 0.31314,1.24976 -0.2609,0.31327 -0.83345,0.23117 -1.27579,-0.14996 z m 1.96698,6.10337 c -0.46573,-0.40911 0.34558,-2.07637 1.81711,-3.71585 1.46776,-1.65535 3.02635,-2.64508 3.49208,-2.23598 0.46574,0.4091 -0.34557,2.07637 -1.81711,3.71585 -1.47153,1.63948 -3.04221,2.64884 -3.49208,2.23598 z m 14.05366,7.17554 c -1.05866,1.18961 -2.29664,1.83515 -2.76237,1.42605 -0.38345,-0.34482 -0.0948,-1.31831 0.6374,-2.32994 l -5.63103,-5.01655 c -0.44235,-0.38113 -0.57781,-0.95236 -0.31315,-1.24976 0.26467,-0.2974 0.83345,-0.23117 1.27955,0.16583 l 5.63103,5.01655 c 0.92013,-0.85508 1.86251,-1.26293 2.24973,-0.90224 0.4582,0.37737 -0.0363,1.68458 -1.09116,2.89006 z"
     style="fill:#006c00" />
  <path
     id="path4926"
     d="m 300.54718,248.46678 c -3.34989,-1.33406 -6.55987,-1.1594 -7.15575,0.35621 -0.43231,1.07459 0.57411,2.56218 2.39434,3.80649 l -3.264,8.21541 c -2.17534,-0.33887 -3.92827,0.0433 -4.34095,1.13002 -0.42855,1.09046 0.5741,2.56218 2.39433,3.80649 l -3.26399,8.21541 c -2.17534,-0.33887 -3.91241,0.0396 -4.34096,1.13002 -0.60798,1.53525 1.6147,3.84054 4.9646,5.1746 3.3499,1.33406 6.56364,1.17527 7.15575,-0.35622 0.42855,-1.09046 -0.5741,-2.56217 -2.39433,-3.80648 l 3.26399,-8.21541 c 2.17534,0.33886 3.91241,-0.0396 4.34096,-1.13003 0.43231,-1.07459 -0.57411,-2.56217 -2.39434,-3.80648 l 3.264,-8.21541 c 2.17533,0.33886 3.91241,-0.0396 4.34095,-1.13003 0.60798,-1.53524 -1.6147,-3.84053 -4.9646,-5.17459 z m -7.68287,21.31364 -2.77869,7.01094 c 1.10846,0.57511 1.81942,1.31154 1.61954,1.81145 -0.23243,0.57468 -1.60882,0.56589 -3.10857,-0.0337 -1.49975,-0.59964 -2.50892,-1.53349 -2.27649,-2.10817 0.18777,-0.48028 1.21295,-0.53905 2.41529,-0.20407 l 2.77869,-7.01094 c 0.22033,-0.55504 0.69879,-0.86963 1.06882,-0.72274 0.37003,0.14688 0.5055,0.71811 0.28141,1.25728 z m 5.06716,-3.93353 c -0.23243,0.57467 -2.07323,0.37435 -4.12426,-0.42975 -2.05103,-0.80409 -3.52463,-1.92949 -3.2922,-2.50416 0.23243,-0.57468 2.07324,-0.37436 4.12427,0.42974 2.05103,0.8041 3.52462,1.92949 3.29219,2.50417 z m 4.21078,-13.55168 c -0.18777,0.48029 -1.21294,0.53905 -2.41529,0.20408 l -2.77869,7.01093 c -0.22032,0.55504 -0.69879,0.86963 -1.06882,0.72275 -0.37003,-0.14689 -0.50173,-0.70225 -0.28141,-1.25729 l 2.77869,-7.01093 c -1.10846,-0.57512 -1.81942,-1.31154 -1.61577,-1.79559 0.23243,-0.57468 1.60881,-0.56589 3.10856,0.0337 1.49975,0.59964 2.50517,1.51763 2.27273,2.0923 z"
     style="fill:#006c00" />
  <path
     id="path4936"
     d="m 320.79702,318.09473 c -0.87258,-0.7819 -2.61047,-0.33623 -4.38612,0.93961 l -6.60552,-5.87483 c 1.05177,-1.92541 1.30264,-3.6944 0.43006,-4.4763 -0.87258,-0.78189 -2.6067,-0.32036 -4.38611,0.93962 l -6.60552,-5.87484 c 1.05176,-1.9254 1.30263,-3.6944 0.43006,-4.47629 -1.23264,-1.09874 -4.15958,0.19874 -6.55368,2.895 -2.3941,2.69626 -3.3449,5.75415 -2.11226,6.85289 0.87258,0.78189 2.61047,0.33623 4.38611,-0.93962 l 6.60553,5.87484 c -1.05177,1.9254 -1.30264,3.6944 -0.43006,4.47629 0.86881,0.76603 2.6067,0.32036 4.38611,-0.93961 l 6.60552,5.87483 c -1.05177,1.92541 -1.30264,3.6944 -0.43006,4.4763 1.23264,1.09874 4.15958,-0.19875 6.55368,-2.895 2.3941,-2.69626 3.34489,-5.75415 2.11226,-6.85289 z m -19.51424,-7.65709 -5.63103,-5.01655 c -0.92012,0.85508 -1.86251,1.26292 -2.24972,0.90224 -0.46573,-0.40911 0.0287,-1.71631 1.08739,-2.90593 1.05867,-1.18961 2.29664,-1.83515 2.76237,-1.42605 0.38345,0.34482 0.0948,1.31831 -0.63739,2.32993 l 5.63103,5.01656 c 0.44234,0.38113 0.57781,0.95235 0.31314,1.24976 -0.2609,0.31327 -0.83345,0.23117 -1.27579,-0.14996 z m 1.96698,6.10336 c -0.46573,-0.4091 0.34557,-2.07636 1.81711,-3.71585 1.46776,-1.65534 3.02634,-2.64508 3.49208,-2.23597 0.46574,0.4091 -0.34557,2.07637 -1.81711,3.71585 -1.46776,1.65535 -3.04221,2.64884 -3.49208,2.23597 z m 14.05366,7.17554 c -1.05867,1.18961 -2.29664,1.83516 -2.76237,1.42605 -0.38345,-0.34481 -0.0948,-1.31831 0.6374,-2.32993 l -5.63103,-5.01655 c -0.44611,-0.397 -0.57781,-0.95236 -0.31315,-1.24976 0.26467,-0.29741 0.83345,-0.23117 1.27955,0.16582 l 5.63103,5.01656 c 0.92013,-0.85508 1.86251,-1.26293 2.24972,-0.90224 0.46198,0.39323 -0.0362,1.68457 -1.09115,2.89005 z"
     style="fill:#006c00" />
  <path
     id="path4938"
     d="m 324.90634,294.64531 c -3.34989,-1.33406 -6.56364,-1.17526 -7.15575,0.35622 -0.42855,1.09046 0.57411,2.56218 2.39434,3.80648 l -3.264,8.21541 c -2.17534,-0.33886 -3.91241,0.0396 -4.34095,1.13003 -0.42855,1.09046 0.5741,2.56218 2.39433,3.80648 l -3.26399,8.21541 c -2.17534,-0.33886 -3.91241,0.0396 -4.34096,1.13003 -0.60798,1.53524 1.6147,3.84054 4.9646,5.1746 3.3499,1.33405 6.55988,1.15939 7.15575,-0.35622 0.43231,-1.07459 -0.5741,-2.56218 -2.39433,-3.80649 l 3.26399,-8.21541 c 2.17534,0.33887 3.92828,-0.0433 4.34096,-1.13002 0.42854,-1.09046 -0.57411,-2.56218 -2.39434,-3.80649 l 3.264,-8.21541 c 2.17533,0.33887 3.91241,-0.0396 4.34095,-1.13002 0.60798,-1.53525 -1.6147,-3.84054 -4.9646,-5.1746 z m -7.68287,21.31365 -2.77869,7.01093 c 1.10846,0.57512 1.81942,1.31154 1.61578,1.79559 -0.23243,0.57468 -1.60882,0.56589 -3.10857,-0.0337 -1.48012,-0.58753 -2.50892,-1.5335 -2.27649,-2.10817 0.18777,-0.48029 1.21294,-0.53905 2.41529,-0.20408 l 2.77869,-7.01093 c 0.22032,-0.55504 0.69879,-0.86963 1.06882,-0.72275 0.37756,0.17862 0.50926,0.73398 0.28517,1.27316 z m 5.06716,-3.93353 c -0.23243,0.57467 -2.07323,0.37435 -4.12426,-0.42975 -2.05103,-0.8041 -3.52463,-1.92949 -3.2922,-2.50417 0.23243,-0.57467 2.07324,-0.37435 4.12427,0.42975 2.05103,0.80409 3.52462,1.92949 3.29219,2.50417 z m 4.21455,-13.53582 c -0.18778,0.48029 -1.21295,0.53905 -2.41529,0.20408 l -2.77869,7.01093 c -0.22409,0.53918 -0.6988,0.86963 -1.06883,0.72275 -0.37003,-0.14688 -0.50173,-0.70224 -0.28141,-1.25729 l 2.77869,-7.01093 c -1.10845,-0.57512 -1.81941,-1.31154 -1.61577,-1.79559 0.23243,-0.57467 1.60882,-0.56589 3.10857,0.0337 1.47635,0.57167 2.50516,1.51763 2.27273,2.0923 z"
     style="fill:#006c00" />
  <path
     id="path6750"
     d="m 131.74534,83.468972 c -0.85922,0.09349 -1.64898,0.523905 -2.18179,1.205222 L 119.4501,97.257263 c -0.55078,0.666869 -0.80126,1.530719 -0.70777,2.389939 l 13.5829,124.830868 c 0.19404,1.7833 1.81186,3.0836 3.59516,2.88956 l 85.92255,-9.34927 c 0.85922,-0.0935 1.64898,-0.5239 2.18178,-1.20522 l 10.11346,-12.58307 c 0.55078,-0.66687 0.80126,-1.53072 0.70777,-2.38994 L 221.26305,77.009263 c -0.19404,-1.783299 -1.81187,-3.0836 -3.59516,-2.889558 l -85.92255,9.349267 z" />
  <path
     id="path6752"
     d="m 150.00698,209.84121 -13.003,16.17823 14.59062,-1.58761 70.11604,-7.62935 c 0.53498,-0.0582 1.03083,-0.32542 1.36137,-0.75507 l 10.11345,-12.58307 c 0.3323,-0.41345 0.37051,-2.17281 0.3123,-2.7078 l -83.49078,9.08467 z"
     style="fill:#9f9f9f" />
  <path
     id="path6754"
     d="m 130.51627,85.439926 -10.11345,12.583066 c -0.34851,0.41521 -0.50282,0.95692 -0.4446,1.49191 l 11.68658,107.403178 0.1764,1.62118 1.58761,14.59062 3.59517,2.88956 10.11345,-12.58307 -0.70561,-6.48472 -0.1764,-1.62118 -13.14189,-120.777914 c -0.53499,0.05821 -2.24672,0.457715 -2.57726,0.88737 z"
     style="fill:#d7d7d7" />
  <path
     id="path6756"
     d="m 135.09233,225.63691 14.65005,-18.22747 -0.0882,-0.81059 -15.04015,18.71282 c 0.14558,0.13179 0.30383,0.2294 0.4783,0.32524 z"
     style="fill:#bfbfbf" />
  <path
     id="path6758"
     d="m 135.64286,225.87228 14.18772,-17.65225 -0.0882,-0.81059 -14.65005,18.22747 c 0.17446,0.0959 0.36338,0.17371 0.55053,0.23537 z"
     style="fill:#b7b7b7" />
  <path
     id="path6760"
     d="m 136.26562,226.01776 13.65316,-16.98714 -0.0882,-0.81059 -14.18772,17.65225 c 0.20336,0.0599 0.40672,0.11978 0.62276,0.14548 z"
     style="fill:#afafaf" />
  <path
     id="path6762"
     d="m 149.91878,209.03062 -13.65316,16.98714 c 0.23226,0.0239 0.47897,0.0299 0.73836,0.002 l 13.003,-16.17823 -0.0882,-0.81059 z"
     style="fill:#a7a7a7" />
  <path
     id="path6764"
     d="m 134.61403,225.31167 15.04015,-18.71282 -0.81059,0.0882 -14.65006,18.22747 c 0.13113,0.14977 0.26049,0.28333 0.4205,0.39715 z"
     style="fill:#c7c7c7" />
  <path
     id="path6766"
     d="m 134.19353,224.91452 14.65006,-18.22747 -0.81059,0.0882 -14.18773,17.65225 c 0.10047,0.16951 0.21714,0.33725 0.34826,0.48702 z"
     style="fill:#cdcdcd" />
  <path
     id="path6768"
     d="m 133.84527,224.4275 14.18773,-17.65225 -0.81059,0.0882 -13.65316,16.98714 c 0.0716,0.20547 0.1738,0.39119 0.27602,0.57691 z"
     style="fill:#d2d2d2" />
  <path
     id="path6770"
     d="m 147.22241,206.86345 -0.81059,0.0882 -13.00301,16.17823 c 0.0265,0.24318 0.0853,0.48283 0.16044,0.72071 l 13.65316,-16.98714 z"
     style="fill:#d7d7d7" />
  <path
     id="path6772"
     d="M 233.49776,200.75654 220.17946,78.357449 C 219.98542,76.57415 218.3676,75.27385 216.5843,75.467891 l -81.86959,8.908264 c -1.7833,0.194041 -3.0836,1.811864 -2.88956,3.595162 l 13.31829,122.399093 c 0.19405,1.7833 1.81187,3.0836 3.59517,2.88956 l 81.86959,-8.90826 c 1.7833,-0.19404 3.0836,-1.81187 2.88956,-3.59517 z"
     style="fill:#f6f6f6" />
  <path
     id="path6774"
     d="M 145.14344,210.37041 131.82515,87.971317 c -0.19404,-1.783298 1.10626,-3.401121 2.88956,-3.595162 l -1.62118,0.176401 c -1.7833,0.194041 -3.0836,1.811864 -2.88956,3.595163 l 13.31829,122.399091 c 0.19405,1.7833 1.81187,3.0836 3.59517,2.88956 l 1.62118,-0.1764 c -1.7833,0.19404 -3.40112,-1.10626 -3.59517,-2.88956 z"
     style="fill:#ffffff" />
  <g
     transform="matrix(1.6211801,-0.17640126,0.17640126,1.6211801,139.28847,92.490447)"
     id="use4554">
    <rect
       style="fill:#e3e4ff"
       x="1"
       y="1"
       width="43"
       height="67"
       id="rect7056" />
    <polygon
       style="fill:#cae0ff;stroke:#99b9ff"
       points="23.17,30.94 26.31,28.98 23.96,26.37 20.81,28 20.81,26.04 18.06,25.71 17.27,30.61 12.55,33.23 11.77,28.66 15.7,24.41 12.95,23.1 11.38,25.06 10.58,21.47 7.05,22.12 7.45,25.39 4.69,24.08 3.12,25.71 7.45,28.66 8.23,33.55 3.12,31.92 1,27.81 1,34.92 1.16,34.86 6.26,36.82 1.55,39.76 1,39.66 1,45.06 1.16,44.99 1,45.91 1,47.31 3.51,47.6 4.69,42.38 9.02,39.76 10.2,44.33 6.26,48.26 8.62,49.89 10.2,48.26 10.98,51.52 14.91,51.19 14.52,47.93 17.27,49.24 18.85,47.28 14.13,44.01 13.34,39.44 19.24,41.4 20.81,45.97 23.56,44.99 22.77,42.7 26.71,44.33 28.28,41.07 23.96,39.44 27.11,38.45 25.92,36.17 20.42,37.8 14.91,35.84 20.03,32.9 25.92,33.88 26.31,31.27 "
       id="polygon7058" />
    <path
       style="fill:#99b9ff;stroke:#678ed3"
       d="m 40.63,26.67 c 1.1,0 2.17,-0.13 3.21,-0.35 l 0,-24.82 -14.3,0 c -2.44,2.67 -3.95,6.22 -3.95,10.13 0,8.31 6.73,15.04 15.04,15.04 z"
       id="path7060" />
    <polygon
       style="fill:#c9d3f2;stroke:#9eb3e8;stroke-width:0.5"
       points="20.96,16.9 23.27,18.23 23.39,17.81 22.61,14.9 22.3,14.59 "
       id="polygon7062" />
    <polygon
       style="fill:#c9d3f2;stroke:#9eb3e8;stroke-width:0.5"
       points="35.36,31.29 37.67,29.96 37.35,29.65 34.45,28.87 34.03,28.98 "
       id="polygon7064" />
    <polygon
       style="fill:#798cd8"
       points="43.83,30.1 43.83,29.71 43.59,29.96 "
       id="polygon7066" />
    <polygon
       style="fill:#c9d3f2;stroke:#9eb3e8;stroke-width:0.5"
       points="20.96,6.36 22.3,8.67 22.61,8.36 23.39,5.45 23.27,5.03 "
       id="polygon7068" />
    <polygon
       style="fill:#99b9ff;stroke:#678ed3"
       points="22.61,14.9 23.31,15.6 23.31,7.66 22.61,8.36 22.3,8.67 19.34,11.63 22.3,14.59 "
       id="polygon7070" />
    <polygon
       style="fill:#c9d3f2;stroke:#9eb3e8;stroke-width:0.5"
       points="26.23,26.02 28.9,26.02 28.78,25.6 26.66,23.47 26.23,23.36 "
       id="polygon7072" />
    <polygon
       style="fill:#99b9ff;stroke:#678ed3"
       points="36.66,28.95 37.35,29.65 37.67,29.96 40.63,32.92 43.59,29.96 43.83,29.71 43.83,28.95 "
       id="polygon7074" />
    <polygon
       style="fill:#99b9ff;stroke:#678ed3"
       points="34.45,28.87 35.41,28.61 28.53,24.64 28.78,25.6 28.9,26.02 29.98,30.07 34.03,28.98 "
       id="polygon7076" />
    <polygon
       style="fill:#99b9ff;stroke:#678ed3"
       points="26.66,23.47 27.61,23.73 23.64,16.85 23.39,17.81 23.27,18.23 22.19,22.27 26.23,23.36 "
       id="polygon7078" />
    <polygon
       style="fill:#99b9ff;stroke:#678ed3"
       points="26.48,1.5 22.33,1.5 23.27,5.03 23.39,5.45 23.64,6.41 "
       id="polygon7080" />
    <path
       style="fill:#99b9ff;stroke:#678ed3"
       d="m 30.67,46.67 c 0,0 2.32,-3 7,-3 5.67,0 5.67,9.33 5.67,9.33 l -23.67,0 c 0,0 -0.33,-6.67 7.67,-6.67 3.67,0 6,4 6,4"
       id="path7082" />
    <line
       style="fill:#99b9ff;stroke:#678ed3"
       x1="29.5"
       y1="57.27"
       x2="24.83"
       y2="65.360001"
       id="line7084" />
    <line
       style="fill:#99b9ff;stroke:#678ed3"
       x1="34.220001"
       y1="55.68"
       x2="28.68"
       y2="65.949997"
       id="line7086" />
    <line
       style="fill:#99b9ff;stroke:#678ed3"
       x1="23.33"
       y1="61"
       x2="20.5"
       y2="65.910004"
       id="line7088" />
    <line
       style="fill:#99b9ff;stroke:#678ed3"
       x1="37.459999"
       y1="54.630001"
       x2="33.25"
       y2="62.59"
       id="line7090" />
    <line
       style="fill:#99b9ff;stroke:#678ed3"
       x1="40.459999"
       y1="62.169998"
       x2="38.130001"
       y2="66.209999"
       id="line7092" />
    <line
       style="fill:#99b9ff;stroke:#678ed3"
       x1="27.110001"
       y1="54.52"
       x2="24.440001"
       y2="59.139999"
       id="line7094" />
    <line
       style="fill:#99b9ff;stroke:#678ed3"
       x1="31.67"
       y1="54"
       x2="30.67"
       y2="55.73"
       id="line7096" />
    <line
       style="fill:#99b9ff;stroke:#678ed3"
       x1="40.98"
       y1="55.599998"
       x2="37.810001"
       y2="61.09"
       id="line7098" />
    <line
       style="fill:#99b9ff;stroke:#678ed3"
       x1="23.84"
       y1="55.040001"
       x2="22.18"
       y2="57.919998"
       id="line7100" />
    <line
       style="fill:#99b9ff;stroke:#678ed3"
       x1="21.129999"
       y1="55.630001"
       x2="16.91"
       y2="63.59"
       id="line7102" />
    <line
       style="fill:#99b9ff;stroke:#678ed3"
       x1="36"
       y1="63.599998"
       x2="35"
       y2="65.330002"
       id="line7104" />
    <path
       style="fill:#678ed3"
       d="M 44,0 0,0 0,69 45,69 45,0 44,0 Z m -1,2 c 0,1.91 0,63.09 0,65 C 41.14,67 3.86,67 2,67 2,65.09 2,3.91 2,2 3.86,2 41.14,2 43,2 Z"
       id="path7106" />
  </g>
  <path
     id="path5136"
     d="m 165.23327,110.82821 c -1.73794,-3.91183 8.07819,3.38598 4.60316,3.10795 -3.47504,-0.27803 -17.16687,2.03197 -19.18621,3.07189 l -1.36079,-3.46076 c 2.95341,0.007 15.94384,-2.71908 15.94384,-2.71908 z"
     style="fill:#99b9ff;stroke:#678ed3;stroke-width:1.63074899" />
  <path
     id="path5138"
     d="m 163.64652,103.78322 c -3.64808,-3.37591 -4.43346,1.46663 -14.48478,2.56032 l 2.08318,2.56196 12.30668,-2.97947 0.0949,-2.14281 z"
     style="fill:#99b9ff;stroke:#678ed3;stroke-width:1.63074899" />
  <path
     id="path7"
     d="m 26.91508,106.91105 c -0.848369,0.16517 -1.599279,0.66025 -2.073113,1.38382 l -9.023395,13.38634 c -0.492958,0.71068 -0.670168,1.59247 -0.505,2.44084 l 23.996159,123.2535 c 0.342802,1.76077 2.063902,2.92092 3.824666,2.57812 l 84.836823,-16.51684 c 0.84837,-0.16517 1.59928,-0.66025 2.07312,-1.38382 l 9.02339,-13.38633 c 0.49296,-0.71068 0.67017,-1.59248 0.505,-2.44085 L 115.57657,92.972333 c -0.3428,-1.760765 -2.0639,-2.920915 -3.82466,-2.578113 l -84.83683,16.51683 z" />
  <path
     id="path9"
     d="m 55.702697,231.30842 -11.601508,17.211 14.406253,-2.80475 69.230058,-13.47836 c 0.52822,-0.10284 0.99993,-0.41066 1.2933,-0.8665 l 9.0234,-13.38633 c 0.29648,-0.43984 0.18712,-2.19621 0.0843,-2.72444 l -82.435803,16.04938 z"
     style="fill:#9f9f9f" />
  <path
     id="path11"
     d="m 25.855503,108.97807 -9.023394,13.38634 c -0.31249,0.44295 -0.420856,0.99569 -0.318016,1.52391 l 20.646046,106.04603 0.311638,1.6007 2.804746,14.40625 3.824666,2.57812 9.023395,-13.38634 L 51.87803,228.7303 51.566392,227.12961 28.34933,107.87785 c -0.52823,0.10284 -2.20046,0.64438 -2.493827,1.10022 z"
     style="fill:#d7d7d7" />
  <path
     id="path13"
     d="m 42.164207,248.29843 13.071032,-19.39106 -0.155819,-0.80034 -13.419077,19.90739 c 0.156103,0.11913 0.32198,0.20313 0.503864,0.28401 z"
     style="fill:#bfbfbf" />
  <path
     id="path15"
     d="m 42.732525,248.48683 12.658533,-18.77911 -0.155819,-0.80035 -13.071032,19.39106 c 0.181885,0.0809 0.376659,0.14265 0.568318,0.1884 z"
     style="fill:#b7b7b7" />
  <path
     id="path17"
     d="m 43.365295,248.57962 12.181582,-18.07155 -0.155819,-0.80035 -12.658533,18.77911 c 0.207665,0.0426 0.41533,0.0853 0.63277,0.0928 z"
     style="fill:#afafaf" />
  <path
     id="path19"
     d="m 55.546877,230.50807 -12.181582,18.07155 c 0.233446,0.004 0.479783,-0.0103 0.735894,-0.0602 l 11.601508,-17.211 -0.15582,-0.80035 z"
     style="fill:#a7a7a7" />
  <path
     id="path21"
     d="m 41.660343,248.01442 13.419077,-19.90739 -0.800348,0.15582 -13.071031,19.39106 c 0.143212,0.13825 0.283308,0.2605 0.452302,0.36051 z"
     style="fill:#c7c7c7" />
  <path
     id="path23"
     d="m 41.208041,247.65391 13.071031,-19.39106 -0.800347,0.15582 -12.658534,18.77911 c 0.114315,0.16049 0.244637,0.31787 0.38785,0.45613 z"
     style="fill:#cdcdcd" />
  <path
     id="path25"
     d="m 40.820191,247.19778 12.658534,-18.77911 -0.800347,0.15581 -12.181583,18.07155 c 0.08853,0.19874 0.205965,0.37525 0.323396,0.55175 z"
     style="fill:#d2d2d2" />
  <path
     id="path27"
     d="m 52.678378,228.57448 -0.800348,0.15582 -11.601507,17.211 c 0.04675,0.24011 0.125505,0.47398 0.220272,0.70473 l 12.181583,-18.07155 z"
     style="fill:#d7d7d7" />
  <path
     id="path29"
     d="M 138.13848,215.25904 114.60978,94.406583 c -0.3428,-1.760765 -2.0639,-2.920915 -3.82467,-2.578113 l -80.835086,15.73774 c -1.760764,0.3428 -2.920915,2.0639 -2.578112,3.82466 l 23.5287,120.85246 c 0.342803,1.76077 2.063902,2.92092 3.824667,2.57811 L 135.56037,219.0837 c 1.76076,-0.3428 2.92091,-2.0639 2.57811,-3.82466 z"
     style="fill:#f6f6f6" />
  <path
     id="path31"
     d="m 50.900612,232.24333 -23.5287,-120.85246 c -0.342803,-1.76076 0.817348,-3.48186 2.578112,-3.82466 l -1.600694,0.31164 c -1.760765,0.3428 -2.920916,2.0639 -2.578113,3.82466 l 23.5287,120.85246 c 0.342803,1.76076 2.063903,2.92092 3.824667,2.57811 l 1.600695,-0.31164 c -1.760765,0.34281 -3.481864,-0.81734 -3.824667,-2.57811 z"
     style="fill:#ffffff" />
  <g
     transform="matrix(1.6006948,-0.31163842,0.31163842,1.6006948,12.508826,109.7158)"
     id="g8435">
    <path
       style="fill:none;stroke:#10106c;stroke-width:0.75"
       id="path867"
       d="m 49.4,40.5 c 0,7.7 -6.2,13.9 -13.9,13.9 -7.7,0 -13.9,-6.2 -13.9,-13.9 0,-7.7 6.2,-13.9 13.9,-13.9 7.7,0 13.9,6.2 13.9,13.9 z" />
    <circle
       style="fill:none;stroke:#10106c;stroke-width:1.60000002"
       id="circle869"
       r="6.5"
       cy="40.5"
       cx="42" />
    <circle
       style="fill:none;stroke:#10106c;stroke-width:1.60000002"
       id="circle871"
       r="6.5"
       cy="40.5"
       cx="29" />
    <circle
       style="fill:none;stroke:#10106c;stroke-width:1.60000002"
       id="circle873"
       r="6.5"
       cy="34"
       cx="35.5" />
    <circle
       style="fill:none;stroke:#10106c;stroke-width:1.60000002"
       id="circle875"
       r="6.5"
       cy="47"
       cx="35.5" />
    <path
       style="fill:none;stroke:#10106c;stroke-width:0.75"
       id="path877"
       d="m 44.8,40.5 c 0,5.1 -4.2,9.3 -9.3,9.3 -5.1,0 -9.3,-4.2 -9.3,-9.3 0,-5.1 4.2,-9.3 9.3,-9.3 5.1,0 9.3,4.2 9.3,9.3 z" />
    <path
       style="fill:none;stroke:#ba0000;stroke-width:2"
       id="path879"
       d="m 52.2,40.5 c 0,9.2 -7.5,16.7 -16.7,16.7 -9.2,0 -16.7,-7.5 -16.7,-16.7 0,-9.2 7.5,-16.7 16.7,-16.7 9.2,0 16.7,7.5 16.7,16.7 z" />
    <path
       style="fill:none;stroke:#10106c;stroke-width:0.75"
       id="path881"
       d="M 55,40.5 C 55,51.3 46.3,60 35.5,60 24.7,60 16,51.3 16,40.5 16,29.7 24.7,21 35.5,21 46.3,21 55,29.7 55,40.5 Z" />
  </g>
  <path
     id="path6162"
     d="m 101.32708,229.41952 c -0.86216,-0.0607 -1.715828,0.22257 -2.361213,0.79837 l -12.188328,10.58585 c -0.660507,0.55839 -1.060496,1.36399 -1.121161,2.22615 L 76.84274,368.28786 c -0.125909,1.7894 1.235129,3.35647 3.024529,3.48238 l 86.216531,6.06653 c 0.86216,0.0607 1.71583,-0.22257 2.36122,-0.79837 l 12.18832,-10.58585 c 0.66051,-0.5584 1.0605,-1.36399 1.12116,-2.22615 l 8.81364,-125.25798 c 0.12591,-1.7894 -1.23513,-3.35647 -3.02453,-3.48238 l -86.21653,-6.06652 z" />
  <path
     id="path6164"
     d="m 96.843868,357.02567 -15.670707,13.61037 14.640542,1.03017 70.355937,4.95052 c 0.53682,0.0378 1.07226,-0.13708 1.47388,-0.50116 l 12.18832,-10.58585 c 0.40048,-0.34782 0.75069,-2.0724 0.78847,-2.60922 l -83.776442,-5.89483 z"
     style="fill:#9f9f9f" />
  <path
     id="path6166"
     d="m 99.767367,231.14072 -12.188328,10.58585 c -0.416741,0.34668 -0.664843,0.85235 -0.702616,1.38917 l -7.583162,107.77066 -0.114463,1.62672 -1.030165,14.64055 3.024528,3.48237 12.188328,-10.58584 0.457851,-6.50691 0.114463,-1.62673 8.527477,-121.19115 c -0.53682,-0.0378 -2.2923,0.0512 -2.693913,0.41531 z"
     style="fill:#d7d7d7" />
  <path
     id="path6168"
     d="m 79.359899,369.91994 17.655664,-15.33436 0.05723,-0.81337 -18.125785,15.74267 c 0.119837,0.15557 0.25823,0.27974 0.41289,0.40506 z"
     style="fill:#bfbfbf" />
  <path
     id="path6170"
     d="m 79.859848,370.24937 17.098483,-14.85043 0.05723,-0.81336 -17.655664,15.33436 c 0.15466,0.12531 0.326732,0.23551 0.499949,0.32943 z"
     style="fill:#b7b7b7" />
  <path
     id="path6172"
     d="m 80.446857,370.5032 16.454243,-14.2909 0.05723,-0.81336 -17.098483,14.85043 c 0.189484,0.0951 0.378968,0.19015 0.587009,0.25383 z"
     style="fill:#afafaf" />
  <path
     id="path6174"
     d="m 96.9011,356.2123 -16.454243,14.2909 c 0.224308,0.0648 0.466028,0.11453 0.726304,0.13284 l 15.670707,-13.61037 0.05723,-0.81337 z"
     style="fill:#a7a7a7" />
  <path
     id="path6176"
     d="m 78.947009,369.51488 18.125785,-15.74267 -0.813363,-0.0572 -17.655664,15.33436 c 0.102424,0.17069 0.205994,0.3251 0.343242,0.46554 z"
     style="fill:#c7c7c7" />
  <path
     id="path6178"
     d="m 78.603767,369.04934 17.655664,-15.33436 -0.813364,-0.0572 -17.098483,14.85043 c 0.06875,0.18467 0.153758,0.37048 0.256183,0.54116 z"
     style="fill:#cdcdcd" />
  <path
     id="path6180"
     d="m 78.347584,368.50818 17.098483,-14.85043 -0.813363,-0.0572 -16.454243,14.2909 c 0.03392,0.2149 0.101522,0.41583 0.169123,0.61676 z"
     style="fill:#d2d2d2" />
  <path
     id="path6182"
     d="m 94.632704,353.60052 -0.813364,-0.0572 -15.670707,13.61038 c -0.01717,0.244 -0.0018,0.4903 0.02983,0.73775 l 16.454243,-14.2909 z"
     style="fill:#d7d7d7" />
  <path
     id="path6184"
     d="m 180.62031,362.9205 8.64194,-122.81788 c 0.12591,-1.7894 -1.23513,-3.35647 -3.02453,-3.48238 l -82.14971,-5.78037 c -1.7894,-0.12591 -3.35647,1.23513 -3.48238,3.02453 l -8.641942,122.81788 c -0.125909,1.7894 1.235128,3.35647 3.024528,3.48238 l 82.149714,5.78037 c 1.7894,0.12591 3.35647,-1.23513 3.48238,-3.02453 z"
     style="fill:#f6f6f6" />
  <path
     id="path6186"
     d="M 91.963688,356.68228 100.60563,233.8644 c 0.12591,-1.7894 1.69298,-3.15044 3.48238,-3.02453 l -1.62673,-0.11446 c -1.7894,-0.12591 -3.356467,1.23513 -3.482376,3.02453 l -8.641943,122.81788 c -0.125909,1.7894 1.235128,3.35647 3.024528,3.48238 l 1.626727,0.11446 c -1.7894,-0.12591 -3.150437,-1.69298 -3.024528,-3.48238 z"
     style="fill:#ffffff" />
  <path
     style="fill:#f68872;color:#000000;clip-rule:nonzero;display:inline;overflow:visible;visibility:visible;opacity:1;isolation:auto;mix-blend-mode:normal;color-interpolation:sRGB;color-interpolation-filters:linearRGB;solid-color:#000000;solid-opacity:1;fill-opacity:1;fill-rule:nonzero;stroke-width:1;stroke-linecap:butt;stroke-linejoin:miter;stroke-miterlimit:4;stroke-dasharray:none;stroke-dashoffset:0;stroke-opacity:1;filter-blend-mode:normal;filter-gaussianBlur-deviation:0;color-rendering:auto;image-rendering:auto;shape-rendering:auto;text-rendering:auto;enable-background:accumulate"
     d="m 177.90639,358.54321 8.05571,-114.48647 c 0.11737,-1.66802 -1.15134,-3.12879 -2.81936,-3.24615 l -76.57704,-5.38826 c -1.66802,-0.11737 -3.12879,1.15134 -3.24615,2.81936 l -8.055716,114.48647 c -0.117368,1.66802 1.151342,3.12879 2.819357,3.24615 l 76.577049,5.38826 c 1.66802,0.11737 3.12879,-1.15134 3.24615,-2.81936 z"
     id="path4321"
     inkscape:connector-curvature="0" />
  <path
     id="path5054"
     d="m 133.99549,248.39296 c -0.69648,0.6049 -0.92783,1.56949 -1.00795,2.7082 -0.14881,2.11475 0.31875,4.76329 0.57541,5.76222 0,0 -0.31322,11.42143 -0.24212,12.73426 -1.4755,0.0597 -4.08971,0.0392 -5.08863,0.29585 l -1.30139,-0.0916 c -2.77688,-0.0319 -5.39109,-0.0524 -6.60992,1.00621 l -0.52236,0.45368 0.44224,0.68503 c 0.74468,1.03326 0.87544,3.82159 0.99475,6.77259 0.38985,6.07612 0.83936,13.62774 5.51351,16.89924 l 0.9417,0.5567 0.0801,-1.13871 c 0,0 0.19701,-0.47657 0.2428,-1.12726 0.0343,-0.48802 -0.0711,-1.31283 -0.15366,-2.46299 1.28994,0.25425 4.03248,0.77418 5.00852,0.84286 0.0711,1.31282 0.5691,54.64172 0.5691,54.64172 l 1.62673,0.11447 c 0,0 5.4751,-52.2547 5.58957,-53.88143 1.1387,0.0801 6.17011,0.59763 7.62272,0.86332 -0.39402,0.95315 -1.98156,4.92839 -1.98156,4.92839 l 2.42622,-1.95449 c 0.68503,-0.44224 15.74181,-12.29755 14.38494,-20.89389 -0.4561,-2.81122 -2.59616,-4.92354 -6.26896,-6.16284 l -0.16267,-0.0115 -0.16267,-0.0114 c -2.11475,-0.1488 -8.6331,-0.44398 -13.53618,-0.46203 0.46028,-4.21804 0.62053,-6.49546 0.70065,-7.63417 0.0687,-0.97603 0.0801,-1.1387 0.0916,-1.30138 0,0 0.0114,-0.16267 0.0114,-0.16267 0.0572,-0.81336 0.95072,-1.89484 1.65864,-2.66242 0.71937,-0.93025 1.58996,-1.68638 1.65864,-2.66242 0.0229,-0.32534 -0.11689,-0.66214 -0.25667,-0.99893 -0.87302,-1.53273 -7.76735,-5.77784 -10.83524,-6.32066 -0.98748,0.094 -1.64962,0.21088 -2.0093,0.67601 z m -1.71452,26.68976 c 0,0 0.32534,0.0229 0.81336,0.0572 -0.10301,1.46405 -0.33611,11.74677 -0.27646,13.22227 -1.28993,-0.25424 -4.35782,-0.79707 -5.33386,-0.86575 -0.33921,-2.14908 -0.34164,-4.43794 -0.34406,-6.72681 -0.0253,-1.96352 -0.0506,-3.92704 -0.25007,-5.73933 1.46405,0.10302 5.39109,0.0524 5.39109,0.0524 z m 9.5682,5.74108 c 0,0 0.43738,-3.8927 0.52895,-5.19408 2.09185,0.47415 4.84584,0.83141 7.44861,1.01455 0,0 1.95207,0.13735 2.92811,0.20603 -0.0458,0.65069 -0.26569,1.45261 -0.26569,1.45261 -0.57717,3.55591 -1.36279,7.75106 -3.12445,11.87753 -0.97603,-0.0687 -6.97203,-0.81754 -8.26196,-1.07178 0.0801,-1.13871 0.74643,-8.28486 0.74643,-8.28486 z"
     style="fill:#ba0000" />
  <path
     d="m 379.13615,118.7891 c -0.85314,0.13842 -1.61922,0.60972 -2.11553,1.31805 l -9.43916,13.09648 c -0.51503,0.69485 -0.71982,1.57066 -0.58137,2.42379 l 20.11523,123.94602 c 0.28736,1.77066 1.97119,2.98427 3.74185,2.69691 l 85.3135,-13.84556 c 0.85314,-0.13842 1.61922,-0.60972 2.11554,-1.31805 l 9.43915,-13.09648 c 0.51503,-0.69486 0.71983,-1.57066 0.58137,-2.42379 L 468.1915,107.64044 c -0.28736,-1.77066 -1.9712,-2.98426 -3.74186,-2.6969 l -85.31349,13.84556 z"
     id="path4259"
     inkscape:connector-curvature="0" />
  <path
     style="fill:#9f9f9f"
     d="m 404.00458,244.02883 -12.13607,16.83832 14.48721,-2.35113 69.61902,-11.29849 c 0.5312,-0.0862 1.01234,-0.37907 1.31988,-0.82547 l 9.43915,-13.09648 c 0.31015,-0.43031 0.25598,-2.18926 0.16978,-2.72046 l -82.89897,13.45371 z"
     id="path4261"
     inkscape:connector-curvature="0" />
  <path
     style="fill:#d7d7d7"
     d="m 378.01221,120.82183 -9.43916,13.09648 c -0.32624,0.43293 -0.4519,0.98199 -0.36569,1.51318 l 17.30693,106.64188 0.26124,1.60968 2.35114,14.4872 3.74184,2.6969 9.43917,-13.09647 -1.04495,-6.43876 -0.26123,-1.60969 -19.46216,-119.92179 c -0.5312,0.0862 -2.21961,0.57496 -2.52713,1.02139 z"
     id="path4263"
     inkscape:connector-curvature="0" />
  <path
     style="fill:#bfbfbf"
     d="m 389.93942,260.58548 13.67331,-18.97119 -0.13065,-0.80484 -14.03739,19.47634 c 0.15229,0.12398 0.31545,0.21314 0.4947,0.2997 z"
     id="path4265"
     inkscape:connector-curvature="0" />
  <path
     style="fill:#b7b7b7"
     d="m 390.50154,260.79162 13.2418,-18.37248 -0.13065,-0.80484 -13.6733,18.97119 c 0.17926,0.0866 0.372,0.1544 0.56213,0.20614 z"
     id="path4267"
     inkscape:connector-curvature="0" />
  <path
     style="fill:#afafaf"
     d="m 391.13109,260.90423 12.74287,-17.68025 -0.13065,-0.80484 -13.24179,18.37249 c 0.20622,0.0492 0.41245,0.0983 0.62954,0.1126 z"
     id="path4269"
     inkscape:connector-curvature="0" />
  <path
     style="fill:#a7a7a7"
     d="m 403.87396,243.22398 -12.74287,17.68025 c 0.23319,0.0117 0.47988,0.005 0.73742,-0.0371 l 12.13607,-16.83832 -0.13065,-0.80485 z"
     id="path4271"
     inkscape:connector-curvature="0" />
  <path
     style="fill:#c7c7c7"
     d="m 389.44472,260.28578 14.03739,-19.47634 -0.80485,0.13065 -13.67329,18.97119 c 0.1388,0.14269 0.27498,0.26926 0.44076,0.37453 z"
     id="path4273"
     inkscape:connector-curvature="0" />
  <path
     style="fill:#cdcdcd"
     d="m 389.00396,259.91125 13.6733,-18.97119 -0.80484,0.13065 -13.24179,18.37249 c 0.10927,0.16399 0.23453,0.3254 0.37334,0.46808 z"
     id="path4275"
     inkscape:connector-curvature="0" />
  <path
     style="fill:#d2d2d2"
     d="m 388.63062,259.44317 13.2418,-18.37249 -0.80484,0.13065 -12.74287,17.68025 c 0.0822,0.20142 0.19409,0.38152 0.30592,0.56162 z"
     id="path4277"
     inkscape:connector-curvature="0" />
  <path
     style="fill:#d7d7d7"
     d="m 401.06758,241.2013 -0.80485,0.13065 -12.13605,16.83833 c 0.0392,0.24145 0.11037,0.47772 0.19801,0.71131 l 12.74286,-17.68025 z"
     id="path4279"
     inkscape:connector-curvature="0" />
  <path
     style="fill:#f6f6f6"
     d="M 486.90355,230.57512 467.18016,109.04364 c -0.28736,-1.77066 -1.97119,-2.98427 -3.74185,-2.69691 l -81.28928,13.19247 c -1.77066,0.28735 -2.98426,1.97119 -2.6969,3.74185 l 19.72338,121.53149 c 0.28736,1.77065 1.9712,2.98426 3.74186,2.6969 l 81.28927,-13.19246 c 1.77066,-0.28736 2.98427,-1.9712 2.69691,-3.74186 z"
     id="path4281"
     inkscape:connector-curvature="0" />
  <path
     style="fill:#ffffff"
     d="M 399.17551,244.81254 379.45213,123.28105 c -0.28736,-1.77066 0.92624,-3.4545 2.6969,-3.74185 l -1.60969,0.26124 c -1.77066,0.28736 -2.98425,1.97119 -2.69689,3.74185 l 19.72337,121.53149 c 0.28736,1.77065 1.9712,2.98426 3.74186,2.6969 l 1.60969,-0.26124 c -1.77066,0.28736 -3.4545,-0.92625 -3.74186,-2.6969 z"
     id="path4283"
     inkscape:connector-curvature="0" />
  <path
     style="fill:#ba0000"
     d="m 415.2823,129.77419 c -0.53939,0.74837 -0.54362,1.74031 -0.36075,2.86709 0.3396,2.0926 1.40147,4.5636 1.88014,5.47717 0,0 2.31157,11.18945 2.68152,12.45108 -1.42258,0.39612 -3.97197,0.97504 -4.88553,1.4537 l -1.28777,0.20896 c -2.71034,0.60508 -5.25972,1.184 -6.20363,2.49367 l -0.40454,0.56128 0.58741,0.56551 c 0.96158,0.83518 1.72762,3.51941 2.51978,6.3646 1.77142,5.82523 3.93892,13.07305 9.23822,15.18678 l 1.04419,0.32617 -0.18289,-1.12678 c 0,0 0.0826,-0.50902 -0.0219,-1.1529 -0.0784,-0.4829 -0.36996,-1.26163 -0.71381,-2.36229 1.31388,-0.048 4.1026,-0.17018 5.06841,-0.32692 0.36996,1.26162 13.07147,53.05825 13.07147,53.05825 l 1.60969,-0.26123 c 0,0 -6.64117,-52.11934 -6.9024,-53.72903 1.12677,-0.18289 6.14293,-0.83173 7.61778,-0.90587 -0.16519,1.01806 -0.79985,5.25127 -0.79985,5.25127 l 1.91395,-2.45832 c 0.56551,-0.58741 12.50603,-15.57671 9.21597,-23.6336 -1.08798,-2.63198 -3.65502,-4.19788 -7.51406,-4.56284 l -0.16097,0.0261 -0.16096,0.0262 c -2.0926,0.33961 -8.50523,1.54552 -13.28205,2.65117 -0.51825,-4.21132 -0.88398,-6.46488 -1.06685,-7.59167 -0.15671,-0.96581 -0.18288,-1.12676 -0.20896,-1.28775 0,0 -0.0262,-0.16096 -0.0262,-0.16096 -0.13065,-0.80483 0.49136,-2.06224 1.00461,-2.97158 0.48714,-1.07031 1.16136,-2.00577 1.00462,-2.97159 -0.0522,-0.32193 -0.26547,-0.61775 -0.47868,-0.91356 -1.20093,-1.29198 -8.8844,-3.84482 -11.99506,-3.67041 -0.93968,0.31772 -1.55744,0.58318 -1.801,1.11833 z m 4.44524,26.37276 c 0,0 0.32194,-0.0522 0.80484,-0.13064 0.23512,1.44871 2.36381,11.51138 2.75989,12.93398 -1.31387,0.048 -4.42453,0.22243 -5.39034,0.37917 -0.82251,-2.01422 -1.34922,-4.24166 -1.87591,-6.46911 -0.47444,-1.90551 -0.94888,-3.81101 -1.55821,-5.52941 1.44872,-0.23511 5.25973,-1.184 5.25973,-1.184 z m 10.62894,3.3965 c 0,0 -0.466,-3.88938 -0.67499,-5.17713 2.14484,-0.0177 4.90743,-0.3008 7.48294,-0.71878 0,0 1.93163,-0.31349 2.89744,-0.47023 0.10448,0.64388 0.0742,1.47485 0.0742,1.47485 0.25278,3.59356 0.44909,7.85712 -0.32042,12.27742 -0.96581,0.15672 -6.97391,0.80138 -8.28778,0.8494 -0.18289,-1.12678 -1.17134,-8.23553 -1.17134,-8.23553 z"
     id="path4285"
     inkscape:connector-curvature="0" />
  <path
     style="fill:#ffff00;fill-opacity:0.53987732;fill-rule:nonzero;marker:none"
     id="p3327"
     d="m 456.59882,160.50674 c 0.3,0 12.45,28.93 12.7,29.11 0.26,0.19 31.52,2.79 31.62,3.1 0.1,0.29 -23.66,20.76 -23.77,21.07 -0.09,0.29 7.09,30.83 6.84,31.02 -0.26,0.18 -27.09,-16.08 -27.39,-16.08 -0.31,0 -27.14,16.26 -27.39,16.08 -0.26,-0.19 6.92,-30.73 6.83,-31.02 -0.1,-0.31 -23.87,-20.78 -23.77,-21.07 0.1,-0.31 31.36,-2.91 31.62,-3.1 0.26,-0.18 12.4,-29.11 12.71,-29.11 z"
     inkscape:connector-curvature="0" />
  <path
     style="opacity:0.76000001;fill:#ffffff;stroke:#000000;stroke-width:3.09872627px;stroke-linecap:butt;stroke-linejoin:round;stroke-opacity:1"
     id="p3329"
     d="m 490.7406,281.14961 c -0.42952,-0.9665 -2.16645,-4.78354 -2.16645,-4.78354 0,0 -18.25393,-5.2079 -22.09521,-11.88679 -3.84128,-6.67889 -9.93184,-21.06906 -9.93184,-21.06906 0,0 -0.32587,-0.87043 -2.53199,-3.50431 -6.11729,-2.29677 1.7921,-14.92877 10.90289,-6.30732 4.41023,7.31947 4.76063,8.01656 6.23382,11.42288 0.54256,1.22084 -14.63965,-32.80462 -16.55552,-37.25281 1.69381,-3.45333 3.36693,-7.72995 11.72804,-4.90749 1.59753,3.22922 15.47794,34.82807 15.47794,34.82807 l -8.57917,-19.94427 c 0,0 9.44848,-7.38689 11.72799,-2.89726 2.29647,4.4821 6.53704,15.34914 6.53704,15.34914 l -5.95866,-14.73305 c 0,0 7.49093,-5.44078 13.35383,-1.38624 3.21573,7.28177 5.63465,13.45569 5.63465,13.45569 0,0 -0.31272,-0.61232 -5.08645,-12.35918 0.2374,-0.1055 3.56086,-3.40994 8.68906,-1.64826 3.33266,4.89473 12.40913,27.23735 12.40913,27.23735 0,0 2.6073,6.04959 -0.21332,14.55201 1.53148,7.60386 3.26276,11.54524 3.26276,11.54524 l -32.83853,14.2892 z"
     inkscape:connector-curvature="0" />
  <path
     style="fill:#ffff00;fill-opacity:0.53987732;fill-rule:nonzero;marker:none"
     id="p3327-8"
     d="m 154.82113,285.93308 c 0.3,0 12.45,28.93 12.7,29.11 0.26,0.19 31.52,2.79 31.62,3.1 0.1,0.29 -23.66,20.76 -23.77,21.07 -0.09,0.29 7.09,30.83 6.84,31.02 -0.26,0.18 -27.09,-16.08 -27.39,-16.08 -0.31,0 -27.14,16.26 -27.39,16.08 -0.26,-0.19 6.92,-30.73 6.83,-31.02 -0.1,-0.31 -23.87,-20.78 -23.77,-21.07 0.1,-0.31 31.36,-2.91 31.62,-3.1 0.26,-0.18 12.4,-29.11 12.71,-29.11 z"
     inkscape:connector-curvature="0" />
  <path
     style="opacity:0.76000001;fill:#ffffff;stroke:#000000;stroke-width:3.09872627px;stroke-linecap:butt;stroke-linejoin:round;stroke-opacity:1"
     id="p3329-7"
     d="m 143.21911,415.94731 c 0.11362,-1.05152 0.52722,-5.22473 0.52722,-5.22473 0,0 -13.17397,-13.66655 -13.14398,-21.37124 0.03,-7.70468 1.98507,-23.20789 1.98507,-23.20789 0,0 0.15505,-0.9164 -0.43102,-4.30179 -4.13807,-5.05694 9.04321,-12.0125 12.59583,0.0172 0.14058,8.5443 0.0938,9.3231 -0.34181,13.00869 -0.14351,1.32824 3.80369,-35.72107 4.37932,-40.52997 3.19832,-2.13664 6.79198,-4.99574 12.60689,1.64213 -0.23912,3.59482 -4.09427,37.89192 -4.09427,37.89192 l 2.59044,-21.5561 c 0,0 11.87977,-1.6465 11.59786,3.38077 -0.26347,5.02927 -2.05026,16.55673 -2.05026,16.55673 l 2.24127,-15.73356 c 0,0 9.20986,-0.94585 12.24563,5.50372 -0.87363,7.91213 -1.88036,14.46613 -1.88036,14.46613 0,0 0.0369,-0.68656 1.80413,-13.24259 0.25828,0.0279 4.79137,-1.16198 8.34255,2.93571 0.42563,5.90625 -2.9385,29.78631 -2.9385,29.78631 0,0 -0.7814,6.54103 -7.4886,12.47908 -2.49202,7.34534 -2.97292,11.62325 -2.97292,11.62325 l -35.57448,-4.1238 z"
     inkscape:connector-curvature="0" />
</svg>
