<?xml version="1.0" encoding="UTF-8" standalone="no"?>
<!-- Created with Inkscape (http://www.inkscape.org/) -->
<svg
   xmlns:svg="http://www.w3.org/2000/svg"
   xmlns="http://www.w3.org/2000/svg"
   version="1.0"
   width="100%"
   height="100%"
   viewBox="0 0 172 64"
   id="svg2">
  <defs
     id="defs4" />
  <g
     id="layer1">
    <path
       d="M 13.5,3.5625 C 11.468045,3.5625 9.84375,5.2180447 9.84375,7.25 L 9.84375,52.59375 C 9.84375,54.625705 11.468044,56.281249 13.5,56.28125 L 33.8125,56.28125 C 34.845617,57.048482 36.6875,57.4375 36.6875,57.4375 L 37.53125,57.15625 C 37.531248,57.156251 38.005232,57.432406 38.5625,57.34375 C 39.119768,57.242427 41.262941,56.494906 42.1875,56.40625 C 44.327917,56.228938 46.911758,56.664098 48.40625,57.5 C 49.888075,58.335903 50.729076,59.1875 51.375,59.1875 C 51.571008,59.1875 55.140201,57.928346 59.65625,56.28125 L 80.875,56.28125 C 82.906955,56.28125 84.562502,54.625705 84.5625,52.59375 L 84.5625,47 C 86.97169,46.081806 88.880356,45.355134 89.3125,45.15625 C 91.541571,44.143035 90.24229,39.593612 89.875,39.125 C 89.50771,38.669054 86.249862,34.744768 85.78125,34.1875 C 85.404412,33.739373 85.225085,33.721632 84.5625,33.875 L 84.5625,7.25 C 84.5625,5.2180449 82.906954,3.5625 80.875,3.5625 L 13.5,3.5625 z"
       id="rect2845"
       style="opacity:1;fill:#ffffff;fill-opacity:1;fill-rule:nonzero;stroke:#fbfcfd;stroke-width:4;stroke-linecap:butt;stroke-linejoin:round;marker:none;marker-start:none;marker-mid:none;marker-end:none;stroke-miterlimit:4;stroke-dasharray:none;stroke-dashoffset:0;stroke-opacity:0.5;visibility:visible;display:inline;overflow:visible;enable-background:accumulate" />
    <rect
       width="74.707054"
       height="52.693352"
       ry="3.667789"
       x="9.8451176"
       y="3.5780022"
       id="rect3874"
       style="fill:none;fill-opacity:0.82272728;fill-rule:nonzero;stroke:#17212b;stroke-width:0.30000001;stroke-linecap:butt;stroke-linejoin:round;marker:none;marker-start:none;marker-mid:none;marker-end:none;stroke-miterlimit:4;stroke-dasharray:none;stroke-dashoffset:0;stroke-opacity:1;visibility:visible;display:inline;overflow:visible;enable-background:accumulate" />
    <path
       d="M 16.711567,14.486572 C 16.711567,12.20836 16.711567,9.930146 16.711567,7.6519324 C 17.574105,7.2316568 17.200889,8.7910885 17.276134,9.6320714 C 17.023103,10.972961 18.024964,10.303489 18.512162,10.458517 C 19.175997,10.591681 19.735852,10.55827 19.493663,9.2399689 C 19.304384,8.3613726 19.652094,6.8967375 20.058228,7.9565657 C 20.058228,10.133235 20.058228,12.309904 20.058228,14.486572 C 19.19569,14.906844 19.568908,13.347416 19.493663,12.50643 C 19.727096,11.210944 19.217405,11.105961 18.542872,11.26506 C 18.076865,11.448818 17.042802,10.722538 17.276134,12.026654 C 17.152028,12.749351 17.527166,14.271847 17.085975,14.486572 C 16.961172,14.486572 16.83637,14.486572 16.711567,14.486572 z M 20.937092,8.6169869 C 20.608869,7.359144 21.7622,7.2870185 21.460917,8.5658436 C 21.368783,8.6867609 21.085633,8.5814714 20.937092,8.6169869 z M 20.937092,14.486572 C 20.937092,12.836188 20.937092,11.185804 20.937092,9.5354194 C 21.778401,9.1274014 21.36761,10.725264 21.460917,11.515562 C 21.460917,12.505896 21.460917,13.496234 21.460917,14.486572 C 21.286309,14.486572 21.111702,14.486572 20.937092,14.486572 z M 22.051676,13.008684 C 22.710445,12.647776 23.831409,15.277033 24.041485,12.866489 C 23.054393,12.659405 21.13709,10.795943 22.822865,9.5260966 C 23.846024,8.2297882 25.038634,11.775834 23.921442,10.584395 C 22.6887,8.9585709 22.214987,11.950985 23.844322,11.700967 C 26.341246,13.464028 22.33466,16.492755 22.051676,13.008684 z M 30.679279,14.486572 C 30.679279,12.836188 30.679279,11.185804 30.679279,9.5354194 C 31.477294,9.3547252 30.89832,10.888763 31.643985,9.4654903 C 32.756549,9.2801952 32.254546,10.860261 31.485384,10.458517 C 30.991585,11.61201 31.282444,13.152651 31.203106,14.486572 C 31.028496,14.486572 30.853889,14.486572 30.679279,14.486572 z M 34.79131,12.892133 C 36.359617,13.480137 33.069468,16.084089 32.723648,13.5626 C 31.30549,10.393806 34.91865,7.3900171 35.325497,11.422988 C 35.5764,12.883889 34.269277,11.972592 33.730798,12.225453 C 31.796907,11.751096 34.409289,15.771596 34.791306,12.892133 L 34.79131,12.892133 z M 33.071415,11.535461 C 33.646653,11.535461 34.221891,11.535461 34.797131,11.535461 C 34.827499,9.6622174 33.062903,9.6766107 33.071411,11.535461 L 33.071415,11.535461 z M 36.476282,14.486572 C 35.655987,14.881129 36.099862,13.250461 35.990287,12.50643 C 35.990287,10.888263 35.990287,9.270096 35.990287,7.6519324 C 36.831598,7.2439106 36.420805,8.8417774 36.514115,9.6320714 C 36.484455,10.372438 38.218969,8.4182225 38.466083,10.493487 C 39.564892,13.082335 37.29447,15.575191 36.476278,14.171151 C 36.47628,14.276289 36.47628,14.381431 36.476282,14.486572 z M 36.470462,11.973701 C 36.245705,15.118911 38.858009,13.630484 38.074669,11.163659 C 37.743003,9.2212474 36.298698,10.316697 36.470457,11.973697 L 36.470462,11.973701 z M 41.336212,14.486572 C 41.577815,13.059589 39.462797,16.022892 39.331125,13.386313 C 39.268072,12.106861 39.312396,10.81877 39.299118,9.5354194 C 40.140427,9.1274014 39.729638,10.725264 39.822945,11.515562 C 39.246776,13.843051 41.454207,14.883901 41.280922,12.035837 C 41.400666,11.292654 41.036171,9.7737095 41.471077,9.5354194 C 42.143015,9.3987343 41.658005,11.115504 41.804746,11.820195 C 41.737946,12.652748 41.936355,13.910167 41.709665,14.486572 C 41.585181,14.486572 41.460696,14.486572 41.336212,14.486572 z M 42.418784,13.008684 C 43.077556,12.647772 44.198514,15.277033 44.408595,12.866489 C 43.421508,12.659405 41.504201,10.795943 43.189975,9.5260966 C 44.213131,8.2297882 45.405749,11.77583 44.288552,10.584395 C 43.05581,8.9585709 42.582097,11.950988 44.211435,11.700967 C 46.708357,13.464028 42.70177,16.492751 42.418786,13.008684 L 42.418784,13.008684 z M 53.068935,13.875837 C 51.856469,16.444531 49.699536,12.329001 51.819026,11.695139 C 52.801704,12.154464 53.641539,10.319704 52.283196,10.118183 C 51.793648,10.181288 50.665108,12.099685 51.194801,10.099533 C 52.351149,8.3111836 54.029495,9.989563 53.554924,12.359263 C 53.656029,13.401979 53.757679,15.836482 53.068933,13.875833 L 53.068935,13.875837 z M 53.025284,12.00167 C 52.246689,11.828087 50.588808,13.362453 52.056203,13.941104 C 52.744723,14.017278 53.131184,12.998672 53.025284,12.00167 z M 56.374857,14.486572 C 56.560731,13.081271 54.97458,15.930828 54.55529,13.881664 C 53.386066,12.034538 54.920183,7.7563055 56.339932,10.104195 C 56.464883,9.3854051 56.087688,7.8621668 56.530088,7.6519324 C 57.198571,7.5192272 56.713794,9.2340692 56.860844,9.936708 C 56.860844,11.453331 56.860844,12.96995 56.860844,14.486572 C 56.698849,14.486572 56.536853,14.486572 56.374857,14.486572 z M 54.718979,12.015658 C 54.695697,15.547416 57.413115,12.925921 56.139132,10.593714 C 55.471782,9.3407333 54.571835,10.732652 54.718984,12.015658 L 54.718979,12.015658 z M 59.692413,14.486572 C 59.878288,13.081279 58.292141,15.930824 57.872848,13.881664 C 56.703629,12.034535 58.237744,7.7563055 59.657494,10.104195 C 59.782446,9.3854051 59.405255,7.8621668 59.847655,7.6519324 C 60.516138,7.5192272 60.031363,9.2340692 60.178413,9.936708 C 60.178413,11.453331 60.178413,12.96995 60.178413,14.486572 C 60.016412,14.486572 59.854412,14.486572 59.692413,14.486572 z M 58.036549,12.015658 C 58.013254,15.547416 60.730683,12.925921 59.456693,10.593714 C 58.789344,9.3407371 57.889391,10.732648 58.036544,12.015658 L 58.036549,12.015658 z M 63.030345,14.486572 C 63.271948,13.059589 61.156934,16.022892 61.02526,13.386313 C 60.962211,12.106861 61.006529,10.81877 60.993253,9.5354194 C 61.834557,9.1274014 61.423762,10.725272 61.51707,11.515562 C 60.940911,13.843048 63.148342,14.883904 62.975055,12.035837 C 63.094799,11.292654 62.730304,9.7737095 63.165211,9.5354194 C 63.837156,9.3987268 63.352145,11.1155 63.498883,11.820195 C 63.432087,12.652748 63.630492,13.910167 63.403804,14.486572 C 63.279318,14.486572 63.154831,14.486572 63.030345,14.486572 z M 66.33918,12.673015 C 67.900457,13.269645 64.769851,16.19983 64.378474,13.567261 C 63.393992,11.343229 65.192974,7.9361819 66.540162,10.05816 C 67.276208,12.857942 64.766817,8.0757789 64.716231,11.5477 C 64.273194,13.447378 66.044908,15.153121 66.33918,12.673015 z M 68.446123,13.735975 C 68.563578,15.735145 66.847224,13.755366 67.398472,12.275066 C 67.267642,11.583878 67.730779,9.941139 67.014333,10.188116 C 66.952528,9.2576945 67.689426,9.6068103 67.398472,8.3092864 C 68.111311,7.1879582 67.898796,8.692422 67.919388,9.5354194 C 68.911302,9.4397444 68.203338,10.287199 67.919388,10.492749 C 67.974097,11.555039 67.796645,12.736219 68.035793,13.707998 L 68.216223,13.768605 L 68.446123,13.735975 z M 68.95831,8.6169869 C 68.630087,7.359144 69.783418,7.2870185 69.482133,8.5658436 C 69.389998,8.6867609 69.106849,8.5814714 68.95831,8.6169869 z M 68.95831,14.486572 C 68.95831,12.836188 68.95831,11.185804 68.95831,9.5354194 C 69.799616,9.1274014 69.388828,10.725264 69.482133,11.515562 C 69.482133,12.505896 69.482133,13.496234 69.482133,14.486572 C 69.307525,14.486572 69.132917,14.486572 68.95831,14.486572 z M 77.841997,12.892133 C 79.41031,13.480137 76.120163,16.084089 75.774343,13.5626 C 74.356185,10.39381 77.969345,7.3900171 78.376188,11.422988 C 78.627093,12.883889 77.31997,11.972592 76.781491,12.225453 C 74.847596,11.751092 77.459984,15.771596 77.841997,12.892133 z M 76.122104,11.535461 C 76.697342,11.535461 77.272582,11.535461 77.847818,11.535461 C 77.878194,9.6622136 76.113596,9.6766183 76.122104,11.535461 z M 80.187572,13.735975 C 80.305026,15.735145 78.588671,13.755366 79.139921,12.275066 C 79.009089,11.583878 79.472228,9.941139 78.755784,10.188116 C 78.693979,9.2576945 79.430875,9.6068103 79.139921,8.3092864 C 79.85276,7.1879582 79.640245,8.692422 79.660837,9.5354194 C 80.652751,9.4397444 79.944787,10.287199 79.660837,10.492749 C 79.715546,11.555039 79.538093,12.736215 79.777241,13.707998 L 79.957672,13.768605 L 80.187572,13.735975 z M 18.643902,25.810819 C 17.431436,28.379515 15.274503,24.263982 17.393995,23.630124 C 18.376671,24.089452 19.216506,22.254689 17.858163,22.053167 C 17.368615,22.116265 16.240077,24.034666 16.76977,22.034518 C 17.926118,20.246168 19.604458,21.924548 19.129893,24.294245 C 19.230992,25.336961 19.332648,27.771464 18.643902,25.810819 z M 18.600249,23.936654 C 17.821656,23.763068 16.163777,25.297439 17.631172,25.87609 C 18.31969,25.952264 18.706153,24.933654 18.600249,23.936654 z M 21.970192,26.421554 C 22.211796,24.994567 20.096779,27.957876 19.965104,25.321299 C 19.902054,24.041846 19.946372,22.753754 19.933094,21.4704 C 20.7744,21.062382 20.363612,22.660249 20.456919,23.450543 C 19.880756,25.778033 22.088185,26.818886 21.9149,23.970818 C 22.034647,23.227638 21.670151,21.70869 22.105059,21.4704 C 22.776995,21.333719 22.291986,23.050485 22.438724,23.75518 C 22.371928,24.587734 22.570335,25.845149 22.343646,26.421554 C 22.219161,26.421554 22.094677,26.421554 21.970192,26.421554 z M 25.279023,24.607997 C 26.840298,25.204631 23.709694,28.134814 23.318317,25.502247 C 22.333831,23.278214 24.132817,19.871163 25.480003,21.993141 C 26.216049,24.792928 23.706658,20.010764 23.656074,23.482685 C 23.213037,25.382364 24.984749,27.088102 25.279023,24.607997 z M 27.385966,25.670956 C 27.503417,27.670127 25.787066,25.690348 26.338315,24.210047 C 26.207483,23.518859 26.67062,21.876124 25.954177,22.123097 C 25.892371,21.192679 26.629269,21.541791 26.338315,20.244267 C 27.051155,19.122943 26.838637,20.627407 26.859229,21.4704 C 27.851145,21.374729 27.14318,22.222184 26.859229,22.427734 C 26.913938,23.490023 26.736488,24.671201 26.975636,25.642984 L 27.156064,25.70359 L 27.385966,25.670956 z M 27.700261,23.945981 C 27.473326,20.01377 31.422677,21.097046 30.550742,24.730379 C 30.229812,27.562066 27.456017,26.838517 27.700261,23.945977 L 27.700261,23.945981 z M 28.238639,23.945981 C 28.138977,27.23519 30.969983,25.308337 29.910149,22.79211 C 29.369279,21.217357 28.057375,22.408384 28.238639,23.945977 L 28.238639,23.945981 z M 31.206982,26.421554 C 31.206982,24.771173 31.206982,23.120785 31.206982,21.4704 C 32.004995,21.28971 31.426023,22.823744 32.171692,21.400471 C 33.284254,21.215176 32.782247,22.795242 32.013092,22.393498 C 31.519292,23.546994 31.810147,25.087636 31.730807,26.421554 C 31.556199,26.421554 31.381591,26.421554 31.206982,26.421554 z M 33.206248,20.551968 C 32.878025,19.294129 34.031358,19.222003 33.730075,20.500825 C 33.637939,20.621746 33.354789,20.516452 33.206248,20.551968 z M 33.206248,26.421554 C 33.206248,24.771173 33.206248,23.120785 33.206248,21.4704 C 34.047557,21.062382 33.636768,22.660249 33.730075,23.450543 C 33.730075,24.440881 33.730075,25.43122 33.730075,26.421554 C 33.555465,26.421554 33.380855,26.421554 33.206248,26.421554 z M 35.674049,25.670956 C 35.7915,27.670127 34.075149,25.690348 34.626399,24.210047 C 34.495566,23.518859 34.958703,21.876124 34.24226,22.123097 C 34.180454,21.192679 34.91735,21.541791 34.626399,20.244267 C 35.339238,19.122943 35.12672,20.627407 35.147313,21.4704 C 36.139228,21.374729 35.431263,22.222184 35.147313,22.427734 C 35.202021,23.490023 35.024569,24.671201 35.263717,25.642984 L 35.444148,25.70359 L 35.674049,25.670956 z M 38.200052,25.810819 C 36.987586,28.379515 34.830656,24.263982 36.950146,23.630124 C 37.932822,24.089452 38.772659,22.254689 37.414313,22.053167 C 36.924765,22.116265 35.796227,24.034666 36.32592,22.034518 C 37.482268,20.246168 39.160608,21.924548 38.686045,24.294245 C 38.787144,25.336961 38.888798,27.771464 38.200052,25.810819 z M 38.156399,23.936654 C 37.377806,23.763068 35.71993,25.297439 37.187323,25.87609 C 37.87584,25.952264 38.262303,24.933654 38.156399,23.936654 z M 40.64457,25.670956 C 40.762022,27.670127 39.045669,25.690348 39.596921,24.210047 C 39.466087,23.518859 39.929224,21.876124 39.21278,22.123097 C 39.150977,21.192679 39.887873,21.541791 39.596921,20.244267 C 40.309758,19.122943 40.097243,20.627407 40.117835,21.4704 C 41.109749,21.374729 40.401785,22.222184 40.117835,22.427734 C 40.172544,23.490023 39.995092,24.671201 40.23424,25.642984 L 40.41467,25.70359 L 40.64457,25.670956 z M 43.269518,24.827115 C 44.837829,25.415119 41.547682,28.019073 41.201862,25.497586 C 39.783704,22.328791 43.396864,19.324998 43.803708,23.357973 C 44.054612,24.818871 42.747489,23.907573 42.20901,24.160434 C 40.275115,23.686073 42.887503,27.706582 43.269518,24.827115 z M 41.549623,23.470446 C 42.124863,23.470446 42.700101,23.470446 43.275338,23.470446 C 43.305715,21.597198 41.541115,21.611599 41.549623,23.470446 z M 51.420824,23.092816 C 51.234895,20.668027 52.888593,18.656791 54.284401,19.720077 C 56.260598,20.990518 55.720333,26.746852 53.460833,26.538109 C 52.284298,26.621212 51.380631,24.91341 51.420824,23.092813 L 51.420824,23.092816 z M 52.002852,23.106801 C 51.830276,27.217362 55.734367,25.88617 54.874432,22.227996 C 54.708535,19.352421 51.811962,19.849359 52.009583,22.734855 L 52.002852,23.106801 z M 56.152714,26.421554 C 56.152714,24.771173 56.152714,23.120785 56.152714,21.4704 C 56.950727,21.289714 56.371756,22.823744 57.117425,21.400471 C 58.229989,21.215176 57.72798,22.795242 56.958822,22.393498 C 56.465027,23.546994 56.755878,25.087636 56.67654,26.421554 C 56.501932,26.421554 56.327322,26.421554 56.152714,26.421554 z M 58.053036,26.831822 C 58.829146,27.527891 60.332673,28.44095 60.139608,25.773523 C 58.570959,28.226251 57.025848,23.255475 58.571041,21.684861 C 59.642193,21.14374 60.081858,21.887703 60.672165,21.622721 C 60.620514,23.541985 60.800232,25.511161 60.523747,27.386613 C 60.086313,28.904728 58.000795,28.852251 58.053036,26.831822 z M 58.486648,23.857399 C 58.353464,27.069154 61.070557,25.210583 60.040844,22.77346 C 59.533384,21.239172 58.320899,22.423023 58.486648,23.857399 z M 63.582307,24.827115 C 65.150616,25.415119 61.860469,28.019073 61.514649,25.497586 C 60.096491,22.328791 63.709653,19.324998 64.116497,23.357973 C 64.367401,24.818871 63.060278,23.907573 62.521797,24.160434 C 60.587902,23.686073 63.20029,27.706582 63.582307,24.827115 z M 61.862412,23.470446 C 62.43765,23.470446 63.012887,23.470446 63.588125,23.470446 C 63.618504,21.597198 61.853904,21.611599 61.862412,23.470446 z M 65.927879,25.670956 C 66.045332,27.670127 64.328979,25.690348 64.880228,24.210047 C 64.749396,23.518859 65.212533,21.876124 64.49609,22.123097 C 64.434284,21.192679 65.171183,21.541791 64.880228,20.244267 C 65.593068,19.122943 65.380552,20.627407 65.401145,21.4704 C 66.393058,21.374729 65.685093,22.222184 65.401145,22.427734 C 65.455854,23.490023 65.278401,24.671201 65.517549,25.642984 L 65.69798,25.70359 L 65.927879,25.670956 z M 66.242174,23.945981 C 66.015239,20.01377 69.96459,21.097046 69.092655,24.730379 C 68.771727,27.562066 65.997928,26.838517 66.242174,23.945977 L 66.242174,23.945981 z M 66.780552,23.945981 C 66.68089,27.23519 69.511896,25.308341 68.452062,22.79211 C 67.911192,21.217357 66.599291,22.408384 66.780552,23.945977 L 66.780552,23.945981 z M 69.748897,26.421554 C 69.748897,24.771173 69.748897,23.120785 69.748897,21.4704 C 70.54691,21.289714 69.967937,22.823744 70.713605,21.400471 C 71.826169,21.215176 71.324162,22.795242 70.555005,22.393498 C 70.061207,23.546994 70.35206,25.087636 70.27272,26.421554 C 70.098112,26.421554 69.923505,26.421554 69.748897,26.421554 z M 71.748161,20.551968 C 71.419938,19.294129 72.573271,19.222003 72.271988,20.500825 C 72.179852,20.621746 71.896702,20.516452 71.748161,20.551968 z M 71.748161,26.421554 C 71.748161,24.771173 71.748163,23.120785 71.748161,21.4704 C 72.589472,21.062382 72.178681,22.660249 72.271988,23.450543 C 72.271988,24.440881 72.271988,25.43122 72.271988,26.421554 C 72.097378,26.421554 71.922771,26.421554 71.748161,26.421554 z M 72.976242,26.831822 C 73.75235,27.527891 75.25588,28.44095 75.062814,25.773523 C 73.494163,28.226255 71.949052,23.255471 73.494247,21.684861 C 74.5654,21.14374 75.005065,21.887703 75.59537,21.622721 C 75.543718,23.541985 75.723439,25.511161 75.446951,27.386613 C 75.009519,28.904728 72.924001,28.852251 72.976242,26.831822 z M 73.409855,23.857399 C 73.276668,27.069154 75.993762,25.210583 74.96405,22.77346 C 74.456589,21.239172 73.244103,22.423023 73.409855,23.857399 z M 76.392748,20.551968 C 76.064525,19.294129 77.217858,19.222003 76.916573,20.500825 C 76.824439,20.621746 76.541289,20.516452 76.392748,20.551968 z M 76.392748,26.421554 C 76.392748,24.771173 76.392748,23.120785 76.392748,21.4704 C 77.234057,21.062382 76.823266,22.660249 76.916573,23.450543 C 76.916575,24.440881 76.916573,25.43122 76.916573,26.421554 C 76.741965,26.421554 76.567358,26.421554 76.392748,26.421554 z M 77.507332,24.943669 C 78.166101,24.582762 79.287063,27.212015 79.497139,24.801475 C 78.510049,24.594387 76.592746,22.730924 78.278519,21.461077 C 79.30168,20.164773 80.49429,23.710815 79.377098,22.519376 C 78.144356,20.893552 77.670641,23.885969 79.299978,23.635948 C 81.796902,25.39901 77.790316,28.427735 77.507332,24.943669 z M 16.627172,40.254013 C 16.627172,37.971138 16.627172,35.688259 16.627172,33.405384 C 17.418446,33.23048 16.871517,34.606426 17.720658,33.341283 C 19.712051,32.693543 19.883545,38.448207 17.962928,38.468428 C 16.851219,37.199301 17.199307,38.786004 17.150998,40.128484 C 17.171205,40.409026 16.7466,40.179472 16.627172,40.254013 z M 17.101526,35.908934 C 17.078877,39.461777 19.799779,36.714143 18.530407,34.421722 C 17.864371,33.143541 16.97571,34.678253 17.101526,35.908934 z M 22.060405,36.762098 C 23.628719,37.350103 20.338572,39.954053 19.992752,37.432566 C 18.574593,34.263775 22.187754,31.259982 22.594596,35.292953 C 22.845501,36.753855 21.538379,35.842556 20.999898,36.095418 C 19.066005,35.621057 21.678393,39.641562 22.060405,36.762098 z M 20.340513,35.405426 C 20.91575,35.405426 21.49099,35.405426 22.066226,35.405426 C 22.096603,33.532182 20.332002,33.546583 20.340513,35.405426 z M 23.256475,38.356538 C 23.256475,36.706154 23.256475,35.055769 23.256475,33.405384 C 24.054488,33.224694 23.475517,34.758724 24.221186,33.335459 C 25.333749,33.150156 24.831741,34.730225 24.062583,34.328482 C 23.568788,35.481978 23.859638,37.022616 23.7803,38.356538 C 23.605693,38.356538 23.431083,38.356538 23.256475,38.356538 z M 25.252832,38.356538 C 25.252832,36.706154 25.252832,35.055769 25.252832,33.405384 C 26.031533,33.320615 25.491007,34.62196 26.366686,33.349443 C 27.30847,33.009249 27.477722,34.758766 28.205897,33.347694 C 29.550545,32.839646 29.490224,35.355108 29.440524,36.78569 C 29.623143,37.604092 29.294729,39.117996 28.91961,38.051897 C 28.869399,36.810519 29.037177,35.49686 28.796656,34.313331 C 27.530669,33.205491 27.550783,36.001772 27.612957,37.307843 C 27.944362,38.567632 26.812512,38.799451 27.089131,37.442627 C 27.001076,36.33403 27.319782,34.943425 26.792296,34.090718 C 25.498928,33.695734 25.81154,36.305183 25.776657,37.615543 C 25.853426,38.443492 25.72659,38.401812 25.252832,38.356538 z M 30.040015,35.880961 C 29.813082,31.948747 33.762429,33.03203 32.890496,36.665359 C 32.569568,39.497046 29.795767,38.7735 30.040015,35.880961 z M 30.578391,35.880961 C 30.478729,39.17017 33.309735,37.243325 32.249901,34.72709 C 31.709033,33.152337 30.397129,34.343367 30.578391,35.880961 z M 34.696241,37.60594 C 34.813693,39.605111 33.09734,37.625332 33.64859,36.145031 C 33.517758,35.453843 33.980897,33.811104 33.264453,34.058077 C 33.202648,33.127655 33.939544,33.476775 33.64859,32.179251 C 34.361429,31.057923 34.148914,32.562387 34.169504,33.405384 C 35.16142,33.309713 34.453456,34.15716 34.169504,34.362714 C 34.224215,35.425003 34.046762,36.606181 34.285911,37.577964 L 34.466339,37.63857 L 34.696241,37.60594 z M 35.208425,32.486948 C 34.880202,31.229109 36.033535,31.156983 35.732253,32.435805 C 35.640116,32.556722 35.356966,32.451432 35.208425,32.486948 z M 35.208425,38.356538 C 35.208425,36.706154 35.208425,35.055769 35.208425,33.405384 C 36.049734,32.997366 35.638945,34.595229 35.732253,35.385527 C 35.732253,36.375861 35.732251,37.3662 35.732253,38.356538 C 35.557643,38.356538 35.383033,38.356538 35.208425,38.356538 z M 40.242969,36.54298 C 41.804246,37.139611 38.67364,40.069794 38.282263,37.437227 C 37.297782,35.213194 39.096763,31.806147 40.443951,33.928124 C 41.179998,36.727904 38.670606,31.945751 38.620023,35.417665 C 38.176983,37.317344 39.948697,39.023082 40.242969,36.54298 z M 41.011247,35.880961 C 40.784317,31.948747 44.733664,33.032033 43.861731,36.665359 C 43.540798,39.497046 40.767001,38.7735 41.011247,35.880961 z M 41.549623,35.880961 C 41.449963,39.170173 44.280972,37.243325 43.221135,34.72709 C 42.680263,33.152337 41.368364,34.343367 41.549623,35.880961 z M 44.523788,38.356538 C 44.523788,36.706154 44.523788,35.055769 44.523788,33.405384 C 45.309375,33.366203 44.770756,34.583263 45.676205,33.344486 C 47.102458,32.786764 47.108621,35.300046 47.035241,36.835367 C 47.30021,37.737441 46.696154,39.185036 46.511416,37.899584 C 46.457854,36.721425 46.641355,35.456361 46.365179,34.35063 C 45.13965,33.096445 44.911833,35.784256 45.047614,37.175702 C 45.018739,38.003575 45.241809,38.581272 44.523788,38.356538 z M 47.63182,36.87865 C 48.29059,36.517742 49.411552,39.146999 49.621627,36.736455 C 48.634538,36.529371 46.717233,34.665904 48.403007,33.396061 C 49.426166,32.099757 50.618778,35.645795 49.501584,34.45436 C 48.268844,32.828539 47.795131,35.820949 49.424464,35.570936 C 51.92139,37.33399 47.914804,40.362718 47.63182,36.87865 z M 51.965022,37.60594 C 52.082472,39.605111 50.366119,37.625332 50.917371,36.145031 C 50.786539,35.453843 51.249676,33.811104 50.53323,34.058077 C 50.471427,33.127655 51.208323,33.476775 50.917371,32.179251 C 51.63021,31.057923 51.417693,32.562387 51.438285,33.405384 C 52.430199,33.309713 51.722235,34.15716 51.438285,34.362714 C 51.492994,35.425003 51.315542,36.606184 51.55469,37.577964 L 51.73512,37.63857 L 51.965022,37.60594 z M 52.477206,32.486948 C 52.148981,31.229109 53.302314,31.156983 53.00103,32.435805 C 52.908895,32.556722 52.625745,32.451432 52.477206,32.486948 z M 52.477206,38.356538 C 52.477206,36.706154 52.477206,35.055769 52.477206,33.405384 C 53.318513,32.997366 52.907724,34.595229 53.00103,35.385527 C 53.00103,36.375861 53.00103,37.3662 53.00103,38.356538 C 52.826422,38.356538 52.651814,38.356538 52.477206,38.356538 z M 54.945006,37.60594 C 55.062458,39.605111 53.346103,37.625332 53.897355,36.145031 C 53.766523,35.453843 54.22966,33.811104 53.513216,34.058077 C 53.451413,33.127655 54.188309,33.476775 53.897355,32.179251 C 54.610194,31.057923 54.397679,32.562387 54.418269,33.405384 C 55.410185,33.309713 54.702219,34.15716 54.418269,34.362714 C 54.47298,35.425003 54.295528,36.606184 54.534676,37.577964 L 54.715104,37.63857 L 54.945006,37.60594 z M 57.479739,38.356538 C 57.721344,36.929547 55.606323,39.89286 55.474652,37.256279 C 55.411601,35.976826 55.455921,34.688734 55.44264,33.405384 C 56.283949,32.997366 55.873158,34.595229 55.966466,35.385527 C 55.390303,37.713017 57.597735,38.75387 57.424447,35.905802 C 57.544193,35.162618 57.179698,33.643674 57.614605,33.405384 C 58.286542,33.268699 57.801532,34.985469 57.948272,35.69016 C 57.881475,36.522714 58.079881,37.780133 57.853192,38.356538 C 57.728707,38.356538 57.604223,38.356538 57.479739,38.356538 z M 60.887515,36.762098 C 62.455828,37.350103 59.165679,39.954053 58.819859,37.432566 C 57.4017,34.263775 61.014861,31.259982 61.421705,35.292953 C 61.67261,36.753855 60.365486,35.842556 59.827007,36.095418 C 57.893111,35.621057 60.505497,39.641562 60.887515,36.762098 z M 59.167622,35.405426 C 59.74286,35.405426 60.318097,35.405426 60.893335,35.405426 C 60.923712,33.532178 59.159111,33.546583 59.167622,35.405426 z M 62.083582,38.356538 C 62.083582,36.706154 62.083582,35.055769 62.083582,33.405384 C 62.881597,33.224694 62.302624,34.758724 63.048293,33.335459 C 64.160856,33.150156 63.65885,34.730225 62.889692,34.328482 C 62.395895,35.481978 62.686748,37.022616 62.607407,38.356538 C 62.4328,38.356538 62.258192,38.356538 62.083582,38.356538 z M 66.105398,38.356538 C 66.347002,36.929547 64.231985,39.89286 64.10031,37.256279 C 64.037261,35.976826 64.081578,34.688734 64.0683,33.405384 C 64.909607,32.997366 64.498818,34.595229 64.592125,35.385527 C 64.01596,37.713017 66.223391,38.75387 66.050107,35.905802 C 66.169853,35.162618 65.805357,33.643674 66.240263,33.405384 C 66.912201,33.268699 66.427192,34.985469 66.57393,35.69016 C 66.507132,36.522714 66.705541,37.780133 66.478852,38.356538 C 66.354367,38.356538 66.229883,38.356538 66.105398,38.356538 z M 67.397502,38.356538 C 67.397502,36.706154 67.397502,35.055769 67.397502,33.405384 C 68.183086,33.366203 67.644467,34.583263 68.549916,33.344486 C 69.976169,32.786764 69.982334,35.300046 69.908954,36.835367 C 70.173921,37.737441 69.569865,39.185036 69.385127,37.899584 C 69.331567,36.721425 69.515068,35.456361 69.23889,34.35063 C 68.013361,33.096445 67.785544,35.784256 67.921327,37.175702 C 67.89245,38.003575 68.11552,38.581272 67.397502,38.356538 z M 71.858747,37.60594 C 71.976201,39.605111 70.259846,37.625332 70.811096,36.145031 C 70.680264,35.453843 71.143403,33.811104 70.426959,34.058077 C 70.365154,33.127655 71.102052,33.476775 70.811096,32.179251 C 71.523935,31.057923 71.31142,32.562387 71.332012,33.405384 C 72.323928,33.309713 71.615962,34.15716 71.332012,34.362714 C 71.386723,35.425003 71.209269,36.606184 71.448419,37.577964 L 71.628847,37.63857 L 71.858747,37.60594 z M 76.177398,36.762098 C 77.745709,37.350103 74.455562,39.954053 74.109742,37.432566 C 72.691584,34.263775 76.304745,31.259982 76.711589,35.292953 C 76.962492,36.753855 75.65537,35.842556 75.116891,36.095418 C 73.182995,35.621057 75.795381,39.641562 76.177398,36.762098 z M 74.457506,35.405426 C 75.032743,35.405426 75.607979,35.405426 76.183219,35.405426 C 76.213595,33.532182 74.448993,33.546579 74.457506,35.405426 z M 79.396014,37.745799 C 78.183548,40.314498 76.026619,36.198962 78.146107,35.565104 C 79.128785,36.024432 79.96862,34.189669 78.610275,33.988148 C 78.120729,34.051249 76.992193,35.96965 77.521882,33.969498 C 78.678228,32.181148 80.356574,33.859528 79.882007,36.229229 C 79.983106,37.271945 80.08476,39.706447 79.396014,37.745799 z M 79.352361,35.871635 C 78.573768,35.698052 76.915891,37.232423 78.383286,37.81107 C 79.071804,37.887244 79.458265,36.868637 79.352361,35.871635 z M 18.59734,52.188993 C 18.487567,51.248363 18.948584,48.931582 18.028405,50.357952 C 15.962143,50.971907 15.884544,44.608957 18.018948,45.276846 C 18.799647,46.210781 18.389362,45.567412 18.934957,45.340364 C 19.349727,45.638473 19.011403,47.143043 19.121163,47.929781 C 19.121163,49.349517 19.121163,50.769257 19.121163,52.188993 C 18.946555,52.188993 18.771948,52.188993 18.59734,52.188993 z M 16.98221,47.801957 C 16.950964,51.361256 19.690202,48.722836 18.393629,46.38934 C 17.735617,45.087893 16.83793,46.533742 16.98221,47.801957 L 16.98221,47.801957 z M 21.970192,50.291518 C 22.211793,48.864531 20.096777,51.82784 19.965104,49.191263 C 19.902054,47.911809 19.946372,46.623718 19.933094,45.340364 C 20.7744,44.932346 20.363612,46.530213 20.456919,47.320507 C 19.880756,49.647997 22.088185,50.688854 21.9149,47.840782 C 22.034647,47.097598 21.670151,45.578654 22.105059,45.340364 C 22.776995,45.203683 22.291986,46.920449 22.438724,47.625144 C 22.371928,48.457698 22.570335,49.715113 22.343646,50.291518 C 22.219161,50.291518 22.094677,50.291518 21.970192,50.291518 z M 25.279023,49.680782 C 24.066557,52.249478 21.909629,48.133945 24.029116,47.500088 C 25.011795,47.959412 25.851629,46.124652 24.493286,45.923128 C 24.003741,45.986233 22.8752,47.90463 23.404891,45.904482 C 24.561237,44.116132 26.239581,45.794512 25.765016,48.164209 C 25.866115,49.206921 25.967769,51.641424 25.279023,49.680782 L 25.279023,49.680782 z M 25.235372,47.806618 C 24.456777,47.633036 22.7989,49.167407 24.266293,49.746054 C 24.954811,49.822231 25.341276,48.803617 25.235372,47.806618 z M 28.695529,48.697078 C 30.263842,49.285083 26.973695,51.889033 26.627873,49.36755 C 25.209715,46.198755 28.822875,43.194962 29.229719,47.227937 C 29.480625,48.688835 28.1735,47.777536 27.635021,48.030398 C 25.701128,47.556037 28.313514,51.576546 28.695529,48.697078 L 28.695529,48.697078 z M 26.975636,47.340406 C 27.550874,47.340406 28.126112,47.340406 28.701349,47.340406 C 28.731726,45.467162 26.967126,45.481563 26.975636,47.340406 L 26.975636,47.340406 z M 33.567106,49.680782 C 32.35464,52.249478 30.197712,48.133945 32.317197,47.500088 C 33.299878,47.959412 34.139713,46.124652 32.781369,45.923128 C 32.291822,45.986233 31.163283,47.90463 31.692975,45.904482 C 32.84932,44.116132 34.527664,45.794512 34.053099,48.164209 C 34.154198,49.206921 34.255852,51.641424 33.567106,49.680782 L 33.567106,49.680782 z M 33.523456,47.806618 C 32.74486,47.633036 31.086984,49.167407 32.554377,49.746054 C 33.242895,49.822231 33.629359,48.803617 33.523456,47.806618 z M 36.873026,50.291518 C 37.058903,48.886221 35.472753,51.735773 35.053461,49.68661 C 33.884239,47.839483 35.418356,43.561254 36.838105,45.909143 C 36.963058,45.19035 36.585865,43.667112 37.028264,43.456877 C 37.696744,43.324176 37.211969,45.039014 37.359019,45.741653 C 37.359019,47.258276 37.359019,48.774895 37.359019,50.291518 C 37.197023,50.291518 37.035024,50.291518 36.873026,50.291518 z M 35.217155,47.820603 C 35.193866,51.352361 37.911291,48.730871 36.637306,46.398663 C 35.969955,45.145678 35.070004,46.537597 35.217155,47.820603 L 35.217155,47.820603 z M 39.838462,52.188993 C 39.838462,49.906118 39.838462,47.623243 39.838462,45.340364 C 40.629733,45.165464 40.082804,46.54141 40.931946,45.276267 C 42.923336,44.628527 43.094833,50.383187 41.174216,50.403408 C 40.062507,49.134281 40.410595,50.720984 40.362285,52.063464 C 40.382493,52.344006 39.95789,52.114452 39.838462,52.188993 z M 40.312814,47.843914 C 40.290164,51.396757 43.011066,48.649127 41.741694,46.356706 C 41.07566,45.078525 40.186997,46.613233 40.312814,47.843914 L 40.312814,47.843914 z M 43.150202,50.291518 C 43.150202,48.641134 43.150202,46.990749 43.150202,45.340364 C 43.948215,45.159674 43.369244,46.693708 44.114915,45.270439 C 45.227474,45.085136 44.72547,46.665205 43.956312,46.263462 C 43.462515,47.416958 43.753368,48.957596 43.674027,50.291518 C 43.49942,50.291518 43.324812,50.291518 43.150202,50.291518 z M 44.95158,47.815941 C 44.724646,43.88373 48.673995,44.967013 47.802062,48.600343 C 47.481132,51.432026 44.707335,50.70848 44.95158,47.815941 L 44.95158,47.815941 z M 45.489956,47.815941 C 45.390299,51.105153 48.221301,49.178305 47.161466,46.662074 C 46.620601,45.087317 45.308695,46.278351 45.489956,47.815941 L 45.489956,47.815941 z M 48.589256,50.291518 C 48.589256,48.858699 48.589256,47.42588 48.589256,45.993061 C 47.55151,45.907371 48.587636,45.372513 48.589256,44.813549 C 48.223498,42.427536 51.077256,43.769644 49.342981,44.150368 C 48.332861,45.520907 50.148695,45.062268 49.617491,45.993061 C 48.785192,45.590658 49.210645,47.203202 49.110172,47.973199 C 48.962274,48.661358 49.433031,50.340609 48.824935,50.291518 C 48.746376,50.291518 48.667815,50.291518 48.589256,50.291518 z M 50.119993,44.421932 C 49.791768,43.164093 50.945101,43.091963 50.643816,44.370788 C 50.551684,44.491709 50.26853,44.386416 50.119993,44.421932 z M 50.119993,50.291518 C 50.119991,48.641134 50.119991,46.990749 50.119993,45.340364 C 50.961299,44.932346 50.550511,46.530213 50.643816,47.320507 C 50.643816,48.310845 50.643816,49.30118 50.643816,50.291518 C 50.469208,50.291518 50.294601,50.291518 50.119993,50.291518 z M 53.460833,48.47796 C 55.02211,49.074591 51.891504,52.004774 51.500125,49.372211 C 50.515644,47.148178 52.314627,43.741127 53.661813,45.863108 C 54.397864,48.662888 51.888468,43.880731 51.837882,47.352649 C 51.394847,49.252328 53.166559,50.958066 53.460833,48.47796 L 53.460833,48.47796 z M 54.426999,44.421932 C 54.098776,43.164093 55.252109,43.091963 54.950827,44.370788 C 54.858692,44.491709 54.57554,44.386416 54.426999,44.421932 z M 54.426999,50.291518 C 54.426999,48.641134 54.426999,46.990749 54.426999,45.340364 C 55.26831,44.932346 54.857519,46.530213 54.950827,47.320507 C 54.950827,48.310845 54.950827,49.30118 54.950827,50.291518 C 54.776219,50.291518 54.601609,50.291518 54.426999,50.291518 z M 55.541585,48.813633 C 56.200355,48.452722 57.321317,51.081983 57.531392,48.671439 C 56.544303,48.464355 54.626998,46.600884 56.312772,45.331041 C 57.335934,44.034741 58.528543,47.580779 57.411349,46.389344 C 56.178607,44.763519 55.704894,47.755933 57.334229,47.505916 C 59.831155,49.268978 55.824569,52.297698 55.541585,48.813633 L 55.541585,48.813633 z M 60.747828,48.47796 C 62.309105,49.074591 59.178499,52.004774 58.787119,49.372211 C 57.802636,47.148178 59.601621,43.741127 60.948808,45.863108 C 61.684856,48.662888 59.175463,43.880731 59.124877,47.352649 C 58.681842,49.252328 60.453554,50.958066 60.747828,48.47796 L 60.747828,48.47796 z M 63.826757,48.697078 C 65.39507,49.285083 62.104923,51.889033 61.759101,49.36755 C 60.340943,46.198755 63.954103,43.194962 64.360947,47.227937 C 64.611853,48.688835 63.30473,47.777536 62.766249,48.030398 C 60.832356,47.556037 63.444742,51.576546 63.826757,48.697078 L 63.826757,48.697078 z M 62.106864,47.340406 C 62.682102,47.340406 63.25734,47.340406 63.832577,47.340406 C 63.862954,45.467162 62.098354,45.481563 62.106864,47.340406 L 62.106864,47.340406 z M 65.028647,50.291518 C 65.028647,48.641134 65.028647,46.990749 65.028647,45.340364 C 65.814233,45.301179 65.275612,46.518243 66.181061,45.27947 C 67.607315,44.721744 67.613479,47.235026 67.540097,48.770351 C 67.805067,49.672421 67.20101,51.120016 67.016272,49.834561 C 66.962712,48.656405 67.146213,47.391345 66.870037,46.28561 C 65.644508,45.031429 65.416689,47.719236 65.55247,49.110686 C 65.523596,49.938559 65.746663,50.516252 65.028647,50.291518 z M 70.351294,50.291518 C 70.537171,48.886221 68.951019,51.735773 68.531729,49.68661 C 67.362507,47.839483 68.896623,43.561254 70.316373,45.909143 C 70.441324,45.19035 70.064132,43.667112 70.506532,43.456877 C 71.175012,43.324176 70.690237,45.039014 70.837287,45.741653 C 70.837287,47.258276 70.837287,48.774895 70.837287,50.291518 C 70.675289,50.291518 70.513293,50.291518 70.351294,50.291518 z M 68.695423,47.820603 C 68.672134,51.352361 71.389559,48.730871 70.115572,46.398663 C 69.448223,45.145678 68.548272,46.537597 68.695423,47.820603 L 68.695423,47.820603 z M 73.689228,50.291518 C 73.930829,48.864531 71.815812,51.82784 71.684139,49.191263 C 71.621088,47.911809 71.665408,46.623718 71.652127,45.340364 C 72.493436,44.932346 72.082647,46.530213 72.175953,47.320507 C 71.59979,49.647997 73.80722,50.68885 73.633936,47.840782 C 73.75368,47.097598 73.389187,45.578654 73.824092,45.340364 C 74.496029,45.203683 74.011021,46.920449 74.157759,47.625144 C 74.090962,48.457698 74.28937,49.715113 74.062681,50.291518 C 73.938197,50.291518 73.813712,50.291518 73.689228,50.291518 z M 74.981329,50.291518 C 74.981329,48.641134 74.981329,46.990749 74.981329,45.340364 C 75.76003,45.255595 75.219504,46.556943 76.095186,45.284423 C 77.036969,44.944233 77.206219,46.693746 77.934394,45.282674 C 79.279041,44.77463 79.218721,47.290088 79.169023,48.72067 C 79.35164,49.539072 79.023226,51.052976 78.648107,49.986881 C 78.597896,48.745503 78.765674,47.43184 78.525153,46.248315 C 77.259168,45.140475 77.27928,47.936752 77.341454,49.242823 C 77.672859,50.502612 76.541009,50.734431 76.817628,49.377607 C 76.729576,48.26901 77.048279,46.878409 76.520793,46.025698 C 75.227425,45.630718 75.540037,48.240163 75.505154,49.550523 C 75.581925,50.378472 75.455087,50.336792 74.981329,50.291518 z"
       id="flowRoot3824"
       style="font-size:4px;font-style:normal;font-variant:normal;font-weight:normal;font-stretch:normal;text-align:justify;text-anchor:start;fill:#364d64;fill-opacity:1;stroke:none;stroke-width:1px;stroke-linecap:butt;stroke-linejoin:miter;stroke-opacity:1;font-family:Arial;-inkscape-font-specification:Arial" />
    <rect
       width="25.037661"
       height="11.112221"
       ry="3.667789"
       x="47.965408"
       y="6.0082211"
       id="rect2653"
       style="fill:#aaf3ff;fill-opacity:0.35909089;fill-rule:nonzero;stroke:#4d6e8f;stroke-width:0.30000001;stroke-linecap:butt;stroke-linejoin:round;marker:none;marker-start:none;marker-mid:none;marker-end:none;stroke-miterlimit:4;stroke-dasharray:none;stroke-dashoffset:0;stroke-opacity:1;visibility:visible;display:inline;overflow:visible;enable-background:accumulate" />
    <rect
       width="9.4242878"
       height="11.112221"
       ry="3.667789"
       x="72.581085"
       y="30.412907"
       id="rect3425"
       style="fill:#aaf3ff;fill-opacity:0.35909089;fill-rule:nonzero;stroke:#4d6e8f;stroke-width:0.30000001;stroke-linecap:butt;stroke-linejoin:round;marker:none;marker-start:none;marker-mid:none;marker-end:none;stroke-miterlimit:4;stroke-dasharray:none;stroke-dashoffset:0;stroke-opacity:1;visibility:visible;display:inline;overflow:visible;enable-background:accumulate" />
    <g
       transform="matrix(1.2665186,0,0,1.2665186,31.148151,12.66713)"
       id="marker03"
       style="display:inline">
      <path
         d="M 1.59,33.8 C 1.88,34.83 4.38,35.34 4.38,35.34 L 5.04,35.12 C 5.04,35.12 5.41,35.34 5.85,35.27 C 6.29,35.19 7.98,34.6 8.71,34.53 C 10.4,34.39 12.45,34.75 13.63,35.41 C 14.8,36.07 15.46,36.74 15.97,36.74 C 16.49,36.74 44.16,26.46 45.92,25.65 C 47.68,24.85 46.65,21.25 46.36,20.88 C 46.07,20.52 43.5,17.43 43.13,16.99 C 42.76,16.55 42.69,16.63 41.74,16.85 C 40.78,17.07 13.43,24.72 11.42,24.92 C 10.69,24.99 10.91,27.41 9.88,28.52 C 8.71,29.77 6.45,30.81 4.75,31.45 C 4.16,31.67 4.23,32.33 4.23,32.33 C 4.23,32.33 2.32,32.7 1.59,33.8 z"
         id="p3336"
         style="fill:#b3ffff;fill-opacity:1;fill-rule:evenodd;stroke:none" />
      <path
         d="M 46.63,21.56 C 43.27,23.07 20.8,29.4 14.74,31 C 14.81,31 14.4,33.19 13.96,35.64 C 14.89,36.21 15.5,36.72 15.95,36.72 C 16.47,36.72 44.18,26.48 45.94,25.67 C 47.33,25.03 46.98,22.71 46.63,21.56 z"
         id="p3395"
         style="fill:#b3ffff;fill-opacity:0.97000002;fill-rule:evenodd;stroke:none;display:inline" />
      <path
         d="M 17.56,30.65 C 17.14,30.67 16.49,30.79 15.43,31.09 L 14.44,35.94 C 14.6,36.05 14.81,36.19 14.96,36.29 C 16.24,35.92 19.12,34.97 19.46,34.08 C 19.9,32.94 18.42,32.09 18.34,31.39 C 18.28,30.95 18.25,30.63 17.56,30.65 z"
         id="p3398"
         style="fill:#2b3e51;fill-opacity:0.07000002;fill-rule:evenodd;stroke:none;display:inline" />
      <path
         d="M 15.81,31.21 C 19.57,29.28 19.8,35.57 16.62,36.62 C 15.63,36.95 15.87,31.15 15.81,31.21 z"
         id="p3427"
         style="fill:#405c78;fill-opacity:0.18000004;fill-rule:evenodd;stroke:none;display:inline" />
      <path
         d="M 16.53,31.63 C 17.93,31.9 18.33,33.88 19,34.15 C 19.68,34.42 20.48,34.97 20.94,34.82 C 23.56,33.95 16.26,36.62 16.26,36.62 L 15.59,33.74 L 16.53,31.63 z"
         id="p3430"
         style="fill:#8bc6ff;fill-opacity:0.45;fill-rule:evenodd;stroke:none;display:inline" />
      <path
         d="M 46.85,23.2 C 40.7,25.46 17.52,33.31 14.22,33.38 L 13.44,35.33 C 13.5,35.36 13.56,35.39 13.61,35.42 C 14.79,36.08 15.44,36.72 15.95,36.72 C 16.47,36.72 44.18,26.48 45.94,25.67 C 46.8,25.28 46.95,24.22 46.89,23.2 C 46.87,23.21 46.87,23.19 46.85,23.2 z"
         id="p3401"
         style="fill:#89c4ff;fill-opacity:0.27000002;fill-rule:evenodd;stroke:none;display:inline" />
      <path
         d="M 45.64,20 C 44.17,20.7 42.24,21.62 41.04,22.08 C 39.2,22.78 27.47,26.01 24.32,27.06 C 21.16,28.11 17.31,28.98 12.05,31.09 L 12.05,32.86 C 12.05,32.86 17.56,29.8 21.33,29.01 C 25.1,28.22 39.46,23.64 41.65,22.77 C 43.22,22.14 45.29,21.72 46.59,21.47 C 46.51,21.22 46.43,20.93 46.37,20.86 C 46.31,20.78 45.88,20.29 45.64,20 z"
         id="p3407"
         style="fill:#9de1ff;fill-opacity:0.33000004;fill-rule:evenodd;stroke:none;display:inline" />
      <path
         d="M 46.81,24.29 C 43.74,25.36 23.75,32.36 15.09,36.37 C 15.44,36.6 15.71,36.72 15.95,36.72 C 16.47,36.72 44.18,26.48 45.94,25.67 C 46.48,25.42 46.69,24.89 46.81,24.29 z"
         id="p3404"
         style="fill:#aaf3ff;fill-opacity:0.27000002;fill-rule:evenodd;stroke:none;display:inline" />
      <path
         d="M 5.81,31.04 C 5.45,31.2 5.06,31.31 4.73,31.43 C 4.14,31.66 4.21,32.34 4.21,32.34 C 4.21,32.34 2.34,32.72 1.61,33.82 C 1.9,34.85 4.38,35.33 4.38,35.33 L 5.03,35.12 C 5.03,35.12 5.42,35.32 5.86,35.25 C 5.98,35.23 6.32,35.15 6.59,35.07 C 6.35,33.42 6.04,32.09 5.81,31.04 z"
         id="p3347"
         style="fill:#b1fdff;fill-opacity:1;fill-rule:evenodd;stroke:none;display:inline" />
      <path
         d="M 11.92,24.81 C 11.79,24.83 11.47,24.93 11.4,24.94 C 10.67,25.01 10.91,27.43 9.89,28.53 C 8.72,29.78 6.43,30.8 4.73,31.43 C 4.44,31.54 4.31,31.76 4.25,31.95 C 5.5,32.25 5.63,33.87 5.42,35.25 C 5.55,35.28 5.69,35.28 5.86,35.25 C 6.3,35.17 7.99,34.62 8.72,34.55 C 10.4,34.41 12.44,34.76 13.61,35.42 C 14.79,36.08 15.44,36.72 15.95,36.72 C 15.98,36.72 15.99,36.63 16.11,36.59 C 16.65,36.51 17.33,35.86 17.31,34.46 C 17.29,33.51 16.83,30.76 16.39,30.18 C 15.62,29.19 13.51,26.2 13.22,25.8 C 13.02,25.52 12.78,24.95 11.92,24.81 z"
         id="p3341"
         style="fill:#000000;fill-opacity:1;fill-rule:evenodd;stroke:none;display:inline" />
      <path
         d="M 12.1,33.17 C 10.45,33.22 7.51,33.84 5.47,34.51 C 5.46,34.76 5.46,35 5.42,35.25 C 5.55,35.28 5.69,35.28 5.86,35.25 C 6.3,35.17 7.99,34.62 8.72,34.55 C 10.4,34.41 12.44,34.76 13.61,35.42 C 14.79,36.08 15.44,36.72 15.95,36.72 C 15.98,36.72 16.65,36.46 16.78,36.42 C 17.16,35.39 17.26,34.34 17.21,33.38 C 17.01,33.39 16.8,33.39 16.6,33.43 C 15.52,33.66 14.17,33.34 12.75,33.17 C 12.57,33.15 12.34,33.16 12.1,33.17 z"
         id="p3359"
         style="fill:#6089b2;fill-opacity:0.22000002;fill-rule:evenodd;stroke:none;display:inline" />
      <path
         d="M 11.92,24.81 C 11.79,24.83 11.47,24.93 11.4,24.94 C 10.87,24.99 10.82,26.32 10.45,27.45 L 10.54,27.62 C 11.2,26.77 11.27,25.84 11.49,25.76 C 11.84,25.63 12.14,25.54 12.14,25.54 L 12.4,26.58 C 12.4,26.58 12.1,25.93 11.75,25.98 L 11.14,27.79 C 11.14,27.79 10.29,29.61 9.28,30.05 C 8.43,30.42 6.66,31.41 4.77,32.21 C 5.05,32.43 5.22,32.75 5.34,33.12 C 7.72,32.38 10.6,31.24 12.05,31.13 C 13.59,31.02 14.61,30.91 14.61,30.91 C 14.61,30.91 14.89,31.64 15.17,31.52 C 15.46,31.41 15.69,31.09 15.69,31.09 L 16.65,30.74 C 16.56,30.54 16.46,30.31 16.39,30.18 C 15.76,29.1 13.51,26.2 13.22,25.8 C 13.02,25.52 12.78,24.95 11.92,24.81 z"
         id="p3362"
         style="fill:#72a3d4;fill-opacity:0.43000004;fill-rule:evenodd;stroke:none;display:inline" />
      <path
         d="M 4.11,32.38 C 5.3,31.53 6.38,34.77 5.25,35.17"
         id="p3353"
         style="fill:none;fill-rule:evenodd;stroke:#0f161d;stroke-width:0.41;stroke-linecap:butt;stroke-linejoin:miter;stroke-miterlimit:4;stroke-dasharray:none;stroke-opacity:1;display:inline" />
      <path
         d="M 12.3,25.96 C 12.3,25.96 14.41,29.08 15.2,30 C 16.26,31.23 17,36.95 14.76,36.07"
         id="p3374"
         style="fill:none;fill-rule:evenodd;stroke:#0b1015;stroke-width:0.69;stroke-linecap:round;stroke-linejoin:miter;stroke-miterlimit:4;stroke-dasharray:none;stroke-opacity:1;display:inline" />
      <path
         d="M 11.82,26 C 11.82,26 14.62,29.87 14.86,30.26 C 15.09,30.65 15.22,30.86 15.38,31.39"
         id="p3378"
         style="fill:none;fill-rule:evenodd;stroke:#050709;stroke-width:0.69;stroke-linecap:round;stroke-linejoin:miter;stroke-miterlimit:4;stroke-dasharray:none;stroke-opacity:0.47000002" />
      <path
         d="M 12.14,30.35 C 11.51,30.35 7.23,31.51 4.9,32.26 L 4.86,32.3 C 5.05,32.48 5.2,32.72 5.29,32.99 C 6.16,32.74 6.99,32.47 8.67,32 C 8.8,31.96 8.94,31.91 9.06,31.87 C 9.82,31.62 10.46,31.49 11.06,31.35 C 11.13,31.33 11.2,31.28 11.27,31.26 C 12.26,31 13.1,30.8 13.53,30.74 C 15.22,30.49 14.66,30.86 14.78,31.17 C 14.88,31.42 15.24,31.34 15.43,31.3 C 15.48,31.26 15.53,31.26 15.56,31.22 C 15.5,31.09 15.23,30.59 14.96,30.48 C 14.64,30.36 12.77,30.35 12.14,30.35 z"
         id="p3380"
         style="fill:#72a3d4;fill-opacity:0.17000002;fill-rule:evenodd;stroke:none;display:inline" />
      <path
         d="M 14.71,30.74 L 15.21,31.43"
         id="p3386"
         style="fill:none;fill-rule:evenodd;stroke:#94d3ff;stroke-width:0.55000001;stroke-linecap:round;stroke-linejoin:miter;stroke-miterlimit:4;stroke-dasharray:none;stroke-opacity:0.25;display:inline" />
      <path
         d="M 8.89,31.56 L 12.07,30.74"
         id="p3389"
         style="fill:none;fill-rule:evenodd;stroke:#87c1fb;stroke-width:0.81999999;stroke-linecap:round;stroke-linejoin:miter;stroke-miterlimit:4;stroke-dasharray:none;stroke-opacity:0.15;display:inline" />
      <path
         d="M 14.81,28.76 C 14.81,28.76 15.83,30.1 16.08,30.73"
         id="p3392"
         style="fill:none;fill-rule:evenodd;stroke:#4a6a8a;stroke-width:0.41;stroke-linecap:round;stroke-linejoin:miter;stroke-miterlimit:4;stroke-dasharray:none;stroke-opacity:0.62000002;display:inline" />
      <path
         d="M 18.17,24.66 C 17.36,25.07 17.27,25.82 17.97,26.34 C 18.66,26.86 19.88,26.96 20.69,26.55 C 21.5,26.15 21.59,25.39 20.89,24.86 C 20.2,24.34 18.98,24.25 18.17,24.66 z M 18.31,24.77 C 19.03,24.41 20.11,24.49 20.73,24.95 C 21.34,25.41 21.26,26.08 20.55,26.44 C 19.83,26.81 18.75,26.72 18.13,26.26 C 17.52,25.8 17.6,25.13 18.31,24.77 z M 18.33,25.24 C 18.21,25.3 18.1,25.38 18.14,25.48 C 18.14,25.58 17.92,25.56 17.87,25.65 C 17.91,25.75 18.11,25.66 18.19,25.63 C 18.28,25.58 18.53,25.6 18.45,25.7 C 18.4,25.83 18.51,25.95 18.64,26.05 C 18.67,26.16 18.84,26.24 18.98,26.29 C 19.11,26.33 19.27,26.33 19.39,26.28 C 19.66,26.24 19.96,26.24 20.18,26.13 C 20.44,26.03 20.65,25.89 20.81,25.73 C 20.89,25.63 20.92,25.49 20.78,25.41 C 20.63,25.34 20.53,25.47 20.47,25.51 C 20.34,25.49 20.27,25.38 20.11,25.39 C 19.96,25.38 19.81,25.4 19.66,25.39 C 19.46,25.4 19.23,25.45 19.18,25.58 C 19.11,25.68 19,25.77 19.03,25.89 C 19.09,25.94 19.13,26.1 18.94,26.05 C 18.79,26 18.76,25.88 18.72,25.79 C 18.69,25.68 18.72,25.56 18.82,25.47 C 18.9,25.35 18.77,25.19 18.55,25.18 C 18.47,25.18 18.39,25.21 18.33,25.24 z"
         id="p3452"
         style="fill:#278cb1;fill-opacity:0.81999972;fill-rule:evenodd;stroke:none;display:inline" />
      <path
         d="M 36.03,19.49 C 34.87,19.76 35.97,21.14 36.77,21.01 C 37.62,21.2 38.24,20.11 37.35,19.68 C 36.99,19.38 36.47,19.34 36.03,19.49 z M 37.83,18.98 C 37,18.97 37.46,20.08 38.06,19.96 C 37.41,20.34 38.83,20.74 39.16,20.39 C 39.58,20.2 39.62,19.67 40.12,20 C 40.89,20.36 41.8,19.12 40.71,18.97 C 40.22,18.92 40.94,18.71 40.42,18.54 C 39.89,18.06 38.35,18.87 39.32,19.35 C 39.76,19.32 39.72,19.76 39.34,19.53 C 39.23,19.4 38.6,19.46 38.97,19.21 C 38.73,18.85 38.2,18.86 37.83,18.98 z M 21.55,23.64 C 21.86,24.12 22.4,24.87 22.95,24.96 C 23.39,25 23.26,24.61 23.09,24.51 C 23.39,24.95 24.31,24.77 23.82,24.21 C 24.14,24.87 24.84,24.38 25.33,24.26 C 25.49,23.54 26.31,24.34 26.77,23.86 C 27.19,23.87 27.57,23.58 27.09,23.29 C 27.61,23.63 28.17,23.54 28.73,23.32 C 29.24,23.34 29.04,22.99 28.94,22.76 C 29.48,23.13 30.07,23 30.66,22.77 C 31.04,22.6 32.42,22.54 31.62,22.01 C 31.35,22 30.28,22.32 31.02,22.02 C 31.78,21.92 30.92,21.23 30.54,21.64 C 29.75,21.74 31.52,21.58 30.83,21.14 C 30.33,20.98 29.77,21.38 29.25,21.45 C 28.83,21.6 28.23,21.56 28.26,22.15 C 28.02,21.49 26.8,22.09 27.68,22.5 C 27.85,22.76 28.66,23.4 27.96,23.01 C 27.48,22.8 27.41,21.92 26.64,22.19 C 26.13,22.31 25.04,22.5 25.92,23.04 C 26.09,23.28 26.93,23.99 26.25,23.54 C 25.6,23.29 25.02,22.46 24.29,22.86 C 24.06,23.2 24.77,24.1 24.61,24.2 C 24.12,23.86 23.8,22.89 23.12,23.19 C 22.52,23.12 22.95,23.76 22.88,23.81 C 22.45,23.34 22.1,23.43 21.55,23.64 z M 30.9,20.98 C 31.21,21.47 31.72,22.23 32.27,22.31 C 32.78,22.33 32.68,21.97 32.46,21.76 C 32.81,22.01 33.69,22.22 33.77,21.71 C 33.31,21.54 32.95,21.36 32.82,20.88 C 32.25,20.38 31.52,20.86 30.9,20.98 z M 33.42,20.27 C 33.74,20.75 34.27,21.5 34.83,21.58 C 35.26,21.44 36.41,21.35 35.9,20.68 C 35.35,20.45 35.12,19.65 34.4,19.98 C 34.08,20.09 33.75,20.18 33.42,20.27 z M 29.23,21.62 C 29.51,21.93 30.14,22.49 30.2,22.65 C 29.74,22.35 28.69,22.4 29.23,21.62 z M 26.52,22.71 C 27.01,22.49 26.8,23.01 26.52,22.71 z M 31.9,21.19 C 32.38,20.96 32.16,21.48 31.9,21.19 z M 34.45,20.46 C 34.88,20.29 34.67,20.69 34.45,20.46 z M 36.3,19.97 C 36.8,19.64 37.36,20.83 36.56,20.38 C 36.44,20.29 36.25,20.15 36.3,19.97 z M 25.07,23.45 C 25.36,23.51 25.11,23.64 25.07,23.45 z M 34.88,20.92 C 35.32,20.72 35.19,21.2 34.88,20.92 z M 38.52,19.92 C 38.68,19.8 39.02,20.08 38.67,19.98 L 38.52,19.92 z M 40.18,19.45 C 40.7,19.4 40.54,19.66 40.18,19.45 z"
         id="p2471"
         style="fill:#000000;fill-opacity:1;fill-rule:nonzero;stroke:#aef8ff;stroke-width:0.16;stroke-linecap:butt;stroke-linejoin:miter;marker:none;stroke-miterlimit:4;stroke-dashoffset:0;stroke-opacity:0.62999998;visibility:visible;display:inline;overflow:visible;enable-background:accumulate" />
      <path
         d="M 39.33,18.65 C 38.56,18.54 38.66,19.72 39.47,19.61 C 39.2,19.89 38.64,19.57 38.56,19.22 C 38.01,18.86 36.66,19.14 37.39,19.92 C 37.73,20.08 38.03,20.01 37.57,20.19 C 37.99,20.78 38.98,20.75 39.31,20.29 C 39.46,20.04 39.06,19.7 39.52,20.07 C 40.08,20.33 41.34,20.09 40.76,19.26 C 40.42,19.07 40.29,19.15 40.18,18.78 C 39.9,18.65 39.6,18.63 39.33,18.65 z M 36.18,19.58 C 35.66,19.55 34.96,20.1 35.61,20.71 C 35.17,20.45 34.82,19.81 34.28,20.1 C 33.87,20.25 32.88,20.2 33.72,20.88 C 34.15,21.75 34.91,21.85 35.46,21.5 C 35.9,21.56 35.88,20.82 35.75,20.83 C 36.41,21.2 37.42,21.3 37.58,20.56 C 37.58,19.84 36.63,19.56 36.18,19.58 z M 36.24,20.11 C 36.88,19.89 37.02,20.85 36.33,20.46 C 36.2,20.32 35.98,20.2 36.24,20.11 z M 31.82,20.76 C 31.23,20.73 30.56,21.51 31.42,22.06 C 30.95,22.13 30.52,22.33 30.18,21.63 C 29.64,21.03 28.81,21.56 29.72,22.11 C 30.18,23.05 30.99,22.88 31.56,22.58 C 31.98,22.57 31.41,21.94 32,22.3 C 32.68,22.55 33.71,22.03 32.96,21.17 C 32.62,20.85 32.19,20.76 31.82,20.76 z M 34.74,21.04 C 35.2,21.04 34.77,21.2 34.74,21.04 z M 31.88,21.3 C 32.31,21.12 32.75,21.74 32.17,21.79 C 31.95,21.78 31.51,21.4 31.88,21.3 z M 28.71,21.64 C 27.9,21.75 29.29,22.73 29.56,23.07 C 30.24,23.25 30.17,22.48 29.59,22.18 C 29.35,21.88 29.04,21.57 28.71,21.64 z M 27.88,21.91 C 27.56,22.09 26.1,22.01 26.97,22.66 C 27.42,23.37 28.08,23.81 28.64,23.38 C 29.29,23.37 29.24,22.54 28.58,22.38 C 28.43,22.01 28.18,21.88 27.88,21.91 z M 27.75,22.44 C 28.12,22.58 27.28,22.54 27.75,22.44 z M 26.01,22.44 C 25.07,22.14 25.4,23.75 26,24.05 C 26.5,24.08 26.62,23.34 27.25,23.73 C 28.28,23.73 26.99,22.96 26.57,22.77 C 26.38,22.68 26.2,22.5 26.01,22.44 z M 28.12,22.88 C 28.34,22.94 28.07,22.98 28.1,22.91 L 28.12,22.88 z M 24.66,22.74 C 24.26,22.94 23.52,22.94 23.32,23.3 C 23.43,23.55 22.2,23.01 22.08,23.57 C 21.53,24.17 23.26,24.27 22.42,24.41 C 22.84,25 23.83,24.97 24.16,24.51 C 24.51,24 23.03,23.52 23.66,23.58 C 24.16,23.4 24.55,23.84 24.94,24.34 C 25.75,24.58 25.47,23.66 24.88,23.33 C 25.43,23.19 25.25,22.69 24.66,22.74 z M 26.2,23.14 C 26.45,23.15 26.16,23.4 26.2,23.14 z"
         id="p3539"
         style="opacity:0;fill:#000000;fill-opacity:1;stroke:#aef8ff;stroke-width:0.16;stroke-linecap:butt;stroke-linejoin:miter;stroke-miterlimit:4;stroke-opacity:0.62999998;display:inline" />
      <path
         d="M 34.74,22.82 C 34.4,22.54 34.97,22.28 35.22,22.35 C 35.48,22.33 36.03,22.6 35.74,22.89 C 35.43,23.05 35,23.04 34.74,22.82 L 34.74,22.82 z M 35.03,22.73 C 35.2,23.04 35.76,22.66 35.31,22.53 C 35.18,22.46 34.77,22.55 35.03,22.73 z M 36.2,22.76 C 36.07,22.58 35.59,22.38 35.67,22.2 C 35.96,22.14 36.33,21.91 36.59,22.12 C 36.56,22.47 36.94,22.34 37.1,22.51 C 36.85,22.67 36.6,22.5 36.34,22.45 C 36.13,22.49 36.7,22.73 36.33,22.72 C 36.29,22.73 36.25,22.75 36.2,22.76 z M 36.12,22.36 C 36.35,22.4 36.32,22.09 36.11,22.21 C 35.93,22.22 36.05,22.3 36.12,22.36 z M 36.61,21.93 C 36.95,21.71 37.2,22.13 37.44,22.29 C 37.63,22.51 37.1,22.46 37.04,22.3 C 36.9,22.17 36.77,22.03 36.61,21.93 z M 38,21.99 C 37.75,21.81 38.37,21.69 38.46,21.86 C 38.75,22.1 38.23,22.22 38.04,22.24 C 37.78,22.27 37.49,22.2 37.32,21.98 C 37.22,21.62 37.75,21.57 38.01,21.59 C 38.35,21.69 37.93,21.8 37.79,21.76 C 37.39,21.8 37.81,22.17 38.03,22.09 C 38.21,22.13 38.28,21.84 38.05,21.98 L 38,21.99 L 38,21.99 z M 38.24,21.47 C 38.58,21.25 38.83,21.67 39.07,21.84 C 39.26,22.05 38.73,22 38.66,21.85 C 38.53,21.71 38.4,21.57 38.24,21.47 z M 38.75,21.32 C 39.06,21.15 39.4,21.4 39.7,21.42 C 39.58,21.32 39.24,21.08 39.6,21.09 C 39.86,21.16 40.12,21.45 40.24,21.62 C 39.97,21.76 39.68,21.58 39.42,21.52 C 39.19,21.5 39.89,21.82 39.49,21.84 C 39.16,21.83 39.01,21.47 38.75,21.32 z M 40.96,21.3 C 40.8,21.34 40.63,21.37 40.6,21.53 C 40.29,21.69 40.25,21.21 40.14,21.02 C 40.22,20.74 40.64,20.91 40.82,21.03 C 40.95,21.13 41.39,21.19 41.32,21.32 C 41.21,21.37 41.06,21.39 40.96,21.3 z M 40.76,21.2 C 40.64,21.14 40.32,20.95 40.52,21.22 C 40.58,21.31 40.69,21.2 40.76,21.2 z M 40.88,20.72 C 41.18,20.51 41.42,20.88 41.64,21.03 C 41.83,21.07 42.12,20.79 42.24,21.06 C 41.96,21.08 41.61,21.39 41.36,21.14 C 41.2,21 41.04,20.86 40.88,20.72 z"
         id="text3529"
         style="fill:#000000;fill-opacity:0.91000001;stroke:none;display:inline" />
      <path
         d="M 1.59,33.8 C 1.88,34.83 4.38,35.34 4.38,35.34 L 5.04,35.12 C 5.04,35.12 5.41,35.34 5.85,35.27 C 6.29,35.19 7.98,34.6 8.71,34.53 C 10.4,34.39 12.45,34.75 13.63,35.41 C 14.8,36.07 15.46,36.74 15.97,36.74 C 16.49,36.74 44.16,26.46 45.92,25.65 C 47.68,24.85 46.65,21.25 46.36,20.88 C 46.07,20.52 43.5,17.43 43.13,16.99 C 42.76,16.55 42.69,16.63 41.74,16.85 C 40.78,17.07 13.43,24.72 11.42,24.92 C 10.69,24.99 10.91,27.41 9.88,28.52 C 8.71,29.77 6.45,30.81 4.75,31.45 C 4.16,31.67 4.23,32.33 4.23,32.33 C 4.23,32.33 2.32,32.7 1.59,33.8 z"
         id="stroke01"
         style="fill:none;fill-opacity:1;fill-rule:evenodd;stroke:#0f161d;stroke-width:0.5;stroke-linecap:butt;stroke-linejoin:miter;stroke-miterlimit:4;stroke-dasharray:none;stroke-opacity:1" />
      <path
         d="M 1.8,17.97 C 1.37,19.04 2.3,21.68 3.01,22.83 C 3.73,23.97 5.01,25.18 5.3,25.18 C 5.58,25.18 13.94,22.76 14.65,22.54 C 15.37,22.33 16.95,21.61 17.33,21.48 C 17.94,21.27 17.79,18.27 16.72,16.4 C 16.36,15.76 15.79,15.19 15.79,15.19 C 15.79,15.19 13.08,11.69 12.72,11.19 C 12.37,10.69 1.8,17.83 1.8,17.97 z"
         id="p2499"
         style="fill:#263646;fill-opacity:1;fill-rule:evenodd;stroke:none;display:inline" />
      <path
         d="M 16.46,16.07 C 13.16,17.4 6.04,20.28 5.5,20.62 C 4.82,21.03 4.76,20.76 4.16,23.74 L 4.12,24.19 C 4.64,24.75 5.13,25.17 5.29,25.17 C 5.58,25.17 13.92,22.74 14.64,22.53 C 15.35,22.31 16.94,21.6 17.32,21.47 C 17.93,21.26 17.77,18.26 16.71,16.39 C 16.64,16.27 16.55,16.19 16.46,16.07 z"
         id="p3279"
         style="fill:#06080a;fill-opacity:0.85;fill-rule:evenodd;stroke:none;display:inline" />
      <path
         d="M 4.64,20.94 C 6.93,19.51 16.29,15.83 16.29,15.83 L 16.96,17.02 C 16.96,17.02 13,18.55 11.42,19.03 C 9.84,19.51 7.88,19.84 6.88,20.27 C 5.88,20.7 4.78,21.32 4.78,21.32 L 4.64,20.94 z"
         id="p3312"
         style="fill:#5f88b1;fill-opacity:0.22000002;fill-rule:evenodd;stroke:none;display:inline" />
      <path
         d="M 17.64,19.89 C 16.75,20.08 15.51,20.51 14.11,20.98 C 11.31,21.93 7.4,23.31 6.27,22.93 C 5.4,22.64 4.78,23.09 4.36,24.48 C 4.79,24.9 5.16,25.17 5.29,25.17 C 5.58,25.17 13.92,22.74 14.64,22.53 C 15.35,22.31 16.94,21.6 17.32,21.47 C 17.59,21.38 17.68,20.74 17.64,19.89 z"
         id="p3282"
         style="fill:#374f67;fill-opacity:0.22000002;fill-rule:evenodd;stroke:none;display:inline" />
      <path
         d="M 1.76,18.26 C 1.55,19.46 2.36,21.76 3.02,22.81 C 3.73,23.95 5.01,25.17 5.29,25.17 C 5.23,23.02 4.36,21.57 4.24,21.27 C 4.09,20.89 3.15,20.08 2.78,19.48 C 2.53,19.09 2.19,18.29 1.76,18.26 z"
         id="p3276"
         style="fill:#4c6d8e;fill-opacity:1;fill-rule:evenodd;stroke:none" />
      <path
         d="M 1.76,18.3 C 1.6,19.4 2.21,21.31 2.82,22.44 C 3.06,22.51 3.29,22.48 3.47,22.36 C 4.16,21.88 2.96,20.72 2.9,20.41 C 2.83,20.11 2.86,19.28 2.86,19.28 C 2.86,19.28 2.54,18.72 1.76,18.3 z"
         id="p3328"
         style="fill:#81b8ef;fill-opacity:0.33000004;fill-rule:evenodd;stroke:none;display:inline" />
      <path
         d="M 1.76,18.26 C 1.61,18.91 1.85,19.52 1.96,20.15 C 2.44,20 2.71,20.21 2.94,20.37 C 3.44,20.7 4.35,22.9 2.82,22.36 C 2.89,22.51 2.95,22.69 3.02,22.81 C 3.73,23.95 5.01,25.17 5.29,25.17 C 5.45,22.13 4.36,21.57 4.24,21.27 C 4.09,20.89 3.24,19.89 2.85,19.37 C 2.57,19.01 2.19,18.29 1.76,18.26 z"
         id="p3285"
         style="fill:#243444;fill-opacity:0.43000004;fill-rule:evenodd;stroke:none;display:inline" />
      <path
         d="M 5.09,16.46 C 8.53,14.5 9.17,14.19 10.5,14.19 C 11.41,14.2 11.98,14.46 11.98,14.46 L 11.33,15.22 C 11.33,15.22 11.07,14.72 10.08,14.8 C 9.1,14.88 8.04,15.37 5.58,16.69 C 3.12,18.02 3.16,17.6 5.09,16.46 z"
         id="p3288"
         style="fill:#81b8ef;fill-opacity:0.18000004;fill-rule:evenodd;stroke:none;display:inline" />
      <path
         d="M 15.98,15.38 C 11.88,16.88 7.32,19 4.44,20.78 C 4.44,20.78 4.62,21.04 4.81,21.27 C 7.08,19.45 7.26,20.29 12.4,18.1 C 14.33,17.28 15.74,16.82 16.79,16.6 C 16.76,16.53 16.74,16.45 16.71,16.39 C 16.44,15.92 16.16,15.57 15.98,15.38 z"
         id="p3291"
         style="fill:#90ceff;fill-opacity:0.16000001;fill-rule:evenodd;stroke:none;display:inline" />
      <path
         d="M 4.59,20.91 C 5.43,20.27 6.41,19.93 6.41,19.93"
         id="p3315"
         style="fill:none;fill-rule:evenodd;stroke:#43607d;stroke-width:0.38;stroke-linecap:round;stroke-linejoin:miter;stroke-miterlimit:4;stroke-dasharray:none;stroke-opacity:0.61000001;display:inline" />
      <path
         d="M 8.6,14.9 C 9.58,14.49 10.23,14.22 11.66,14.71"
         id="p3318"
         style="fill:none;fill-rule:evenodd;stroke:#121a22;stroke-width:0.25;stroke-linecap:round;stroke-linejoin:miter;stroke-miterlimit:4;stroke-dasharray:none;stroke-opacity:0.81000001" />
      <path
         d="M 9.55,14.79 C 10.42,14.45 11.1,14.86 11.1,14.86"
         id="p3320"
         style="fill:none;fill-rule:evenodd;stroke:#6895c2;stroke-width:0.25;stroke-linecap:round;stroke-linejoin:miter;stroke-miterlimit:4;stroke-dasharray:none;stroke-opacity:0.31000001;display:inline" />
      <path
         d="M 5.42,25.04 C 5.23,22.01 4.51,21.63 4.36,21.34 C 3.91,20.47 3.3,19.86 2.92,19.26 C 2.68,18.87 1.86,18.31 2.05,17.73"
         id="p3323"
         style="fill:none;fill-opacity:0.43000004;fill-rule:evenodd;stroke:#0f161d;stroke-width:0.38;stroke-linecap:butt;stroke-linejoin:miter;stroke-miterlimit:4;stroke-dasharray:none;stroke-opacity:0.87000002;display:inline" />
      <path
         d="M 2.98,21.34 L 3.21,21.86"
         id="p3325"
         style="fill:none;fill-rule:evenodd;stroke:#1f2c39;stroke-width:0.5;stroke-linecap:round;stroke-linejoin:miter;stroke-miterlimit:4;stroke-dasharray:none;stroke-opacity:1;display:inline" />
      <path
         d="M 1.8,17.97 C 1.37,19.04 2.3,21.68 3.01,22.83 C 3.73,23.97 5.01,25.18 5.3,25.18 C 5.58,25.18 13.94,22.76 14.65,22.54 C 15.37,22.33 16.95,21.61 17.33,21.48 C 17.94,21.27 17.79,18.27 16.72,16.4 C 16.36,15.76 15.79,15.19 15.79,15.19 C 15.79,15.19 13.08,11.69 12.72,11.19 C 12.37,10.69 1.8,17.83 1.8,17.97 z"
         id="stroke02"
         style="fill:none;fill-opacity:1;fill-rule:evenodd;stroke:#080c10;stroke-width:0.5;stroke-linecap:butt;stroke-linejoin:round;stroke-miterlimit:4;stroke-dasharray:none;stroke-opacity:1;display:inline" />
    </g>
  </g>
</svg>
