<?xml version="1.0" encoding="UTF-8" standalone="no"?>
<!-- Created with Inkscape (http://www.inkscape.org/) -->
<svg
   xmlns:svg="http://www.w3.org/2000/svg"
   xmlns="http://www.w3.org/2000/svg"
   version="1.0"
   width="100%"
   height="100%"
   viewBox="0 0 172 64"
   id="svg2">
  <defs
     id="defs4" />
  <text
     x="32.700729"
     y="-20.087591"
     id="text2419"
     xml:space="preserve"
     style="font-size:8px;font-style:normal;font-variant:normal;font-weight:normal;font-stretch:normal;fill:#000000;fill-opacity:1;stroke:none;stroke-width:1px;stroke-linecap:butt;stroke-linejoin:miter;stroke-opacity:1;font-family:Arial;-inkscape-font-specification:Arial"><tspan
       x="32.700729"
       y="-20.087591"
       id="tspan2421" /></text>
  <path
     d="M 3.5696627,38.891799 C 3.5696627,38.891799 4.7798994,40.899994 4.8862938,41.006389 C 4.9793889,41.112783 6.4955096,42.110231 6.4955096,42.110231 C 6.4955096,42.110231 9.8203356,45.142472 10.219315,45.448356 C 10.631593,45.740941 29.782591,56.327187 30.593848,56.739465 C 31.391807,57.138444 32.708438,57.537424 33.61279,57.337934 C 34.517143,57.138444 34.317654,56.739465 34.317654,56.739465 L 35.940169,56.433581 C 35.940169,56.433581 41.180094,50.182908 41.180094,49.57114 C 41.180094,48.972672 41.27319,48.467298 41.27319,48.467298 C 41.27319,48.467298 46.021041,40.700505 46.114136,40.102036 C 46.220531,39.490268 45.914647,39.197683 45.914647,39.197683 L 52.577598,28.904022 L 53.88093,27.893275 C 53.88093,27.893275 58.615482,20.033386 58.615482,19.634407 C 58.615482,19.222129 58.216503,19.022639 58.216503,19.022639 C 58.216503,19.022639 59.120856,18.224681 59.02776,17.812403 C 58.921366,17.413423 57.711129,16.602166 57.711129,16.602166 L 56.913171,16.90805 L 56.500893,16.096792 L 57.31215,15.19244 L 55.702934,14.088597 C 55.702934,14.088597 57.31215,11.056356 57.31215,10.351493 C 57.31215,9.6466299 56.913171,9.3407459 56.195009,9.1412563 C 55.490146,8.9417668 49.545357,9.3407459 43.401078,10.058908 C 37.2435,10.763771 32.508948,11.36224 32.109969,11.468635 C 31.697691,11.56173 22.933449,20.53876 21.217839,22.147976 C 19.502229,23.770491 11.735435,31.324495 9.92673,33.040106 C 8.1047254,34.755716 3.7691523,38.479521 3.5696627,38.891799 z"
     id="p3391"
     style="fill:#466482;fill-opacity:1;fill-rule:evenodd;stroke:none;display:inline" />
  <path
     d="M 57.737728,16.615465 L 56.979668,16.868152 C 55.569941,19.115734 47.164781,32.508133 45.010294,35.646769 C 42.682916,39.06469 33.732484,53.082157 32.176466,55.515929 L 31.883881,56.180895 L 33.173913,57.391131 C 33.320206,57.377832 33.493097,57.377832 33.62609,57.351233 C 34.530442,57.138444 34.330953,56.726166 34.330953,56.726166 L 35.953468,56.433581 C 35.953468,56.433581 41.193394,50.182908 41.193394,49.57114 C 41.193394,48.972672 41.27319,48.453999 41.27319,48.453999 C 41.27319,48.453999 46.03434,40.700505 46.140735,40.102036 C 46.23383,39.490268 45.927946,39.184384 45.927946,39.184384 L 52.577598,28.917321 L 53.86763,27.879976 C 53.86763,27.879976 58.602183,20.059985 58.602183,19.647706 C 58.602183,19.248727 58.229802,19.022639 58.229802,19.022639 C 58.229802,19.022639 59.120856,18.224681 59.02776,17.825702 C 58.921366,17.413423 57.737728,16.615465 57.737728,16.615465 z"
     id="p3427"
     style="fill:#7db3e9;fill-opacity:1;fill-rule:evenodd;stroke:none;display:inline" />
  <path
     d="M 37.762173,49.517943 L 46.553013,35.580273 C 46.553013,35.580273 53.694739,25.366407 54.519296,24.368959 C 55.343853,23.384811 58.256401,18.902945 58.256401,18.902945"
     id="p3578"
     style="fill:none;fill-rule:evenodd;stroke:#06080a;stroke-width:0.39897913;stroke-linecap:butt;stroke-linejoin:miter;stroke-miterlimit:4;stroke-dasharray:none;stroke-opacity:0.73000004;display:inline" />
  <g
     id="g5057">
    <path
       d="M 3.5696627,38.891799 C 3.5696627,38.891799 4.7798994,40.899994 4.8862938,41.006389 C 4.9793889,41.112783 6.4955096,42.110231 6.4955096,42.110231 C 6.4955096,42.110231 9.8203356,45.142472 10.219315,45.448356 C 10.631593,45.740941 29.782591,56.327187 30.593848,56.739465 C 31.391807,57.138444 32.708438,57.537424 33.61279,57.337934 C 34.517143,57.138444 34.317654,56.739465 34.317654,56.739465 L 35.940169,56.433581 C 35.940169,56.433581 41.180094,50.182908 41.180094,49.57114 C 41.180094,48.972672 41.27319,48.467298 41.27319,48.467298 C 41.27319,48.467298 46.021041,40.700505 46.114136,40.102036 C 46.220531,39.490268 45.914647,39.197683 45.914647,39.197683 L 52.577598,28.904022 L 53.88093,27.893275 C 53.88093,27.893275 58.615482,20.033386 58.615482,19.634407 C 58.615482,19.222129 58.216503,19.022639 58.216503,19.022639 C 58.216503,19.022639 59.120856,18.224681 59.02776,17.812403 C 58.921366,17.413423 57.711129,16.602166 57.711129,16.602166 L 56.913171,16.90805 L 56.500893,16.096792 L 57.31215,15.19244 L 55.702934,14.088597 C 55.702934,14.088597 57.31215,11.056356 57.31215,10.351493 C 57.31215,9.6466299 56.913171,9.3407459 56.195009,9.1412563 C 55.490146,8.9417668 49.545357,9.3407459 43.401078,10.058908 C 37.2435,10.763771 32.508948,11.36224 32.109969,11.468635 C 31.697691,11.56173 22.933449,20.53876 21.217839,22.147976 C 19.502229,23.770491 11.735435,31.324495 9.92673,33.040106 C 8.1047254,34.755716 3.7691523,38.479521 3.5696627,38.891799 z"
       id="path4915"
       style="fill:none;fill-opacity:0.5;fill-rule:evenodd;stroke:#ffffff;stroke-width:4;stroke-linecap:butt;stroke-linejoin:miter;marker:none;marker-start:none;marker-mid:none;marker-end:none;stroke-miterlimit:4;stroke-dasharray:none;stroke-dashoffset:0;stroke-opacity:0.50196078;visibility:visible;display:inline;overflow:visible;enable-background:accumulate" />
    <path
       d="M 9.314962,33.572078 C 7.3067671,35.420681 3.7691523,38.519419 3.582962,38.891799 C 3.582962,38.891799 4.7666001,40.913294 4.8729945,41.019688 C 4.9660896,41.112783 6.4955096,42.13683 6.4955096,42.13683 C 6.4822103,42.13683 9.8203356,45.155772 10.232614,45.461656 C 10.631593,45.76754 29.782591,56.313888 30.593848,56.726166 C 31.378507,57.111846 32.641941,57.510825 33.546294,57.351233 L 32.66854,55.768616 L 31.338609,56.140997 L 29.556503,54.225897 L 28.479259,53.268347 L 27.774396,51.938417 L 27.388716,48.001823 L 22.16209,41.352171 L 9.314962,33.572078 z"
       id="p3398"
       style="fill:#476685;fill-opacity:1;fill-rule:evenodd;stroke:none" />
    <path
       d="M 29.210721,53.999809 L 33.892076,48.959372 L 36.259352,48.600291 C 36.259352,48.600291 32.774934,54.239196 32.109969,54.997257 C 31.458303,55.742018 31.205616,55.981405 31.205616,55.981405 L 29.210721,53.999809 z"
       id="p3566"
       style="fill:#0d1319;fill-opacity:0.56000001;fill-rule:evenodd;stroke:none;display:inline" />
    <path
       d="M 28.452661,53.574231 C 28.452661,53.574231 31.764187,50.049915 32.402554,49.305154 C 33.04092,48.560393 36.458842,44.065229 36.458842,44.065229 L 32.296159,41.405368 L 27.495111,51.007465 L 28.452661,53.574231 z"
       id="p3595"
       style="fill:#0d1319;fill-opacity:0.56000001;fill-rule:evenodd;stroke:none;display:inline" />
    <path
       d="M 54.785282,9.1013584 C 52.524401,9.1545556 48.002637,9.5269361 43.401078,10.045609 C 37.2435,10.750472 32.495649,11.36224 32.09667,11.468635 C 31.684391,11.56173 22.92015,20.525461 21.20454,22.147976 C 19.48893,23.757191 11.748735,31.324495 9.9400293,33.040106 C 8.1180247,34.742417 3.7824516,38.49282 3.582962,38.891799 C 7.9185351,41.192579 26.763649,51.10056 28.346266,50.781377 C 30.141672,50.422296 30.846535,49.105665 31.923779,47.789034 C 32.934526,46.538899 53.628243,16.934648 55.942322,13.623122 C 56.288104,12.958157 57.31215,10.936662 57.31215,10.338194 C 57.31215,9.6333306 56.899872,9.3407459 56.195009,9.1412563 C 56.022118,9.0880591 55.530043,9.0747598 54.785282,9.1013584 z"
       id="p3394"
       style="fill:#5c84ac;fill-opacity:1;fill-rule:evenodd;stroke:none" />
    <path
       d="M 23.398925,22.094778 C 25.832698,23.464607 25.739602,23.757191 26.617357,25.605795 C 27.495111,27.454398 26.816846,29.303001 26.125282,29.795075 C 25.447018,30.27385 25.646507,30.85902 26.909941,30.85902 C 28.173375,30.85902 29.928883,29.303001 31.006127,29.396096 C 32.070071,29.502491 34.703333,28.917321 34.889524,27.547493 C 35.089013,26.190964 35.966767,26.869229 37.044011,26.962324 C 38.107955,27.068718 39.371389,26.08457 39.278294,25.406305 C 39.185199,24.728041 36.551937,25.69889 36.937616,24.235966 C 37.323296,22.786342 39.371389,21.416514 40.249143,21.323419 C 41.126897,21.217024 40.156048,25.11372 43.17499,22.879437 C 46.193932,20.631855 45.409273,18.889646 43.653765,18.304477 C 41.911556,17.719307 37.815371,18.397572 35.873672,19.275326 C 33.918674,20.15308 34.796429,18.690157 32.070071,19.075836 C 29.343714,19.474816 25.061338,19.368421 25.061338,19.368421 L 23.398925,22.094778 z"
       id="p3419"
       style="fill:#141c24;fill-opacity:0.27000002;fill-rule:evenodd;stroke:none;display:inline" />
    <path
       d="M 24.83525,19.887094 C 23.359027,23.517804 22.561069,24.661544 24.609162,25.911679 C 26.657254,27.161813 29.835788,26.018073 31.205616,25.220115 C 32.562145,24.435456 38.240948,19.541312 39.491083,20.458964 C 40.741217,21.363317 37.336596,24.887632 38.360642,25.911679 C 39.384688,26.935725 41.884958,23.517804 42.21744,24.994027 C 42.563222,26.470249 40.062953,32.494834 43.813357,28.638036 C 47.56376,24.767939 43.241487,28.74443 43.467575,26.137767 C 43.693663,23.517804 43.135092,23.41141 41.884958,22.493758 C 40.634823,21.589405 42.909004,19.7674 43.467575,19.993488 C 44.039445,20.219577 43.241487,22.839539 44.717709,20.33927 C 46.193932,17.839001 45.169886,16.934648 43.36118,16.70856 C 41.539176,16.482472 36.538637,19.434918 36.538637,19.993488 C 36.538637,20.565358 39.038906,19.887094 34.038368,22.719846 C 29.03783,25.565897 26.657254,23.185321 27.681301,21.815493 C 28.705347,20.458964 30.859835,22.041581 32.216364,20.685052 C 33.586192,19.315224 34.610238,19.993488 30.740141,18.863048 C 26.883343,17.732607 24.954944,19.887094 24.83525,19.887094 z"
       id="p3528"
       style="fill:#0c1116;fill-opacity:0.41000001;fill-rule:evenodd;stroke:none;display:inline" />
    <path
       d="M 37.2435,10.763771 C 35.035816,11.029757 33.652688,11.229247 32.961125,11.335641 L 32.09667,12.50598 C 32.429152,15.112644 34.051667,14.447679 34.95602,15.245637 C 35.860373,16.043595 33.945273,17.041043 34.171361,17.612913 C 34.397449,18.184783 35.847074,15.777609 36.87112,15.657915 C 37.895166,15.551521 38.719723,15.777609 38.493635,14.873256 C 38.267547,13.968904 35.049115,14.766862 35.501292,13.756115 C 35.953468,12.732068 38.693125,13.982203 38.240948,12.040505 C 38.107955,11.495233 37.722275,11.082955 37.2435,10.763771 z"
       id="p3530"
       style="fill:#0c1116;fill-opacity:0.47000002;fill-rule:evenodd;stroke:none;display:inline" />
    <path
       d="M 38.413839,10.630778 C 35.035816,11.043057 32.362656,11.388839 32.09667,11.468635 C 31.684391,11.56173 22.92015,20.525461 21.20454,22.147976 C 19.48893,23.757191 11.748735,31.324495 9.9400293,33.040106 C 8.1180247,34.742417 3.7824516,38.49282 3.582962,38.891799 C 4.1282335,39.184384 5.4049667,39.849349 6.3625166,40.354723 L 7.0274818,39.63656 C 8.1978205,39.543465 12.865876,37.588468 13.850025,37.974147 C 14.820874,38.373127 14.847473,40.301526 15.140057,39.516867 C 15.419343,38.732208 16.310396,40.301526 16.217301,38.931697 C 16.110906,37.575168 16.762572,33.385888 18.132401,32.415038 C 19.48893,31.43089 24.595862,31.550584 22.16209,31.164904 C 19.728317,30.779224 19.48893,31.271298 21.537022,29.71528 C 23.585115,28.145962 24.569264,26.975623 25.726303,27.175113 C 26.896642,27.374602 29.237319,25.393006 30.806637,25.592495 C 32.362656,25.791985 35.089013,24.315762 33.333505,24.515252 C 31.577997,24.714741 31.591296,23.371512 32.46905,22.400662 C 33.346804,21.416514 30.793338,21.629303 30.593848,22.014983 C 30.394359,22.413962 27.016336,24.55515 27.89409,22.600152 C 28.771844,20.658454 30.992828,21.004235 31.963677,20.525461 C 32.907927,20.046686 31.591296,19.262027 32.761635,18.942843 C 31.976976,19.089136 29.99538,19.355122 31.179018,18.317776 C 32.828132,16.854853 32.761635,16.163289 33.546294,14.99295 C 34.317654,13.822611 36.179556,14.793461 36.086461,13.330537 C 35.980067,11.867614 38.001561,13.436932 38.493635,12.173498 C 38.626628,11.814416 38.560132,11.255846 38.413839,10.630778 z M 25.353923,22.400662 C 25.899194,22.280969 24.795352,24.156171 24.023992,25.140319 C 23.265932,26.124468 22.654164,26.004774 21.457227,24.807836 L 22.401477,23.477906 C 22.401477,23.477906 22.521171,24.55515 23.066442,24.887632 C 23.611714,25.220115 24.808651,22.507057 25.353923,22.400662 z"
       id="p3417"
       style="fill:#030507;fill-opacity:0.43000004;fill-rule:evenodd;stroke:none;display:inline" />
    <path
       d="M 9.6474446,38.426324 C 14.674582,37.442175 15.977913,37.442175 17.400939,39.304078 C 18.810665,41.152681 20.552874,44.756792 20.552874,42.243224 C 20.552874,39.729656 21.217839,41.152681 23.505319,42.682101 C 25.7928,44.211521 30.806637,43.879038 30.806637,45.408458 C 30.806637,46.937878 35.062415,43.227372 36.804623,40.168533 C 38.546832,37.122992 38.440438,30.579734 35.607686,33.851363 C 32.774934,37.122992 28.958034,37.987447 28.958034,37.987447 C 28.958034,37.987447 29.277217,35.699966 28.08028,35.261089 C 26.883343,34.822212 25.247528,35.048301 25.686405,35.593572 C 26.125282,36.138843 27.867491,37.668263 25.686405,37.54857 C 23.505319,37.442175 16.523185,35.367484 16.523185,33.186398 C 16.523185,31.005312 18.491482,33.186398 14.12931,34.276941 C 9.7671384,35.367484 7.692447,36.351632 7.9052358,37.003298 C 8.131324,37.668263 9.6474446,38.426324 9.6474446,38.426324 z"
       id="p3508"
       style="fill:#2c3f52;fill-opacity:0.45;fill-rule:evenodd;stroke:none" />
    <path
       d="M 13.131862,31.138305 C 13.131862,31.138305 21.537022,35.566973 22.906851,37.615066 C 24.26338,39.64986 22.334981,39.317377 18.132401,36.364932 C 13.929821,33.412486 11.881728,33.292792 11.881728,33.292792 C 11.881728,33.292792 8.3574122,34.197145 10.405505,36.471326 C 14.687881,41.232477 22.228586,41.36547 24.383073,42.615604 C 26.537561,43.865739 28.585654,42.841693 30.740141,41.817646 C 32.907927,40.7936 36.312549,37.388978 34.942721,40.673906 C 33.586192,43.972133 37.682377,37.841154 38.919213,36.471326 C 40.169347,35.114797 39.610777,29.888171 35.182108,33.292792 C 30.740141,36.697414 28.931435,36.697414 28.931435,33.744969 C 28.931435,30.792523 30.18157,30.114259 28.811742,29.768477 C 27.455213,29.435994 27.561607,30.792523 27.229125,33.173099 C 26.883343,35.566973 28.013783,36.817108 25.739602,36.471326 C 23.478721,36.138843 15.179955,31.590481 15.179955,30.114259 C 15.179955,28.638036 13.131862,31.2447 13.131862,31.138305 z"
       id="p3526"
       style="fill:#0c1116;fill-opacity:0.33000004;fill-rule:evenodd;stroke:none;display:inline" />
    <path
       d="M 8.2377184,37.442175 C 11.176865,37.442175 17.068456,37.881052 18.158999,38.758806 C 19.249542,39.623261 20.007602,40.168533 21.324234,41.591558 C 22.627565,43.001284 18.052605,37.442175 19.462331,38.213535 C 20.885357,38.971595 17.400939,36.138843 17.720122,34.609423 C 18.052605,33.080004 19.794814,30.460041 18.810665,29.70198 C 17.826517,28.94392 18.491482,28.824226 19.901208,28.717832 C 21.324234,28.611437 25.353923,31.005312 23.279231,26.64314 C 21.217839,22.294268 15.871519,28.94392 15.871519,28.94392 L 8.2377184,37.442175 z"
       id="p3502"
       style="fill:#06080a;fill-opacity:0.27000002;fill-rule:evenodd;stroke:none;display:inline" />
    <path
       d="M 35.208707,11.003159 C 33.559593,11.215948 32.269561,11.415437 32.09667,11.468635 C 31.684391,11.56173 22.92015,20.525461 21.20454,22.147976 C 19.48893,23.757191 11.748735,31.324495 9.9400293,33.040106 C 8.1180247,34.742417 3.7824516,38.49282 3.582962,38.891799 C 4.1681314,39.197683 5.4980618,39.889247 6.5354075,40.434519 L 35.208707,11.003159 z"
       id="p3396"
       style="fill:#243342;fill-opacity:1;fill-rule:evenodd;stroke:none" />
    <path
       d="M 54.785282,9.1013584 C 53.774535,9.127957 52.178619,9.2077528 50.463009,9.3407459 C 47.350971,10.883465 44.425125,12.253293 45.435872,12.173498 C 46.592911,12.067103 49.771445,13.835911 47.630257,13.543326 C 45.489069,13.250741 43.94635,13.702918 43.56067,14.580672 C 43.17499,15.458426 42.576521,16.349479 43.068596,17.612913 C 43.547371,18.876347 42.177542,20.618556 40.821013,19.940291 C 39.451185,19.262027 41.047101,21.429813 42.310535,20.937739 C 43.573969,20.458964 44.558118,18.490667 45.435872,18.198082 C 46.313626,17.905498 48.90699,17.213934 49.29267,19.355122 C 49.505459,20.485563 49.944336,20.884542 50.915185,20.818045 C 52.564299,18.464068 55.476846,14.288087 55.942322,13.623122 C 56.288104,12.958157 57.31215,10.936662 57.31215,10.338194 C 57.31215,9.6333306 56.899872,9.3407459 56.195009,9.1412563 C 56.022118,9.0880591 55.530043,9.0747598 54.785282,9.1013584 z"
       id="p3423"
       style="fill:#030507;fill-opacity:0.45;fill-rule:evenodd;stroke:none;display:inline" />
    <path
       d="M 9.0888739,34.848811 L 10.352308,35.048301 L 11.908326,33.492282 L 12.400401,32.122454 C 12.400401,32.122454 13.18506,32.321943 13.663834,31.829869 C 14.155909,31.351094 12.78608,31.257999 12.78608,31.257999 L 11.615742,32.814017 L 9.0888739,34.848811 z"
       id="p3415"
       style="fill:#06080a;fill-opacity:0.4;fill-rule:evenodd;stroke:none;display:inline" />
    <path
       d="M 12.559992,45.541451 L 12.559992,46.751688 C 16.310396,48.879577 29.875686,56.367085 30.593848,56.726166 C 31.378507,57.111846 32.641941,57.510825 33.546294,57.351233 L 32.961125,56.26069 L 31.179018,56.220792 L 12.559992,45.541451 z"
       id="p3551"
       style="fill:#92d1ff;fill-opacity:0.81000001;fill-rule:evenodd;stroke:none;display:inline" />
    <path
       d="M 41.738665,28.17256 C 41.020503,28.199159 39.74377,29.156709 39.491083,29.582287 C 39.198498,30.074361 38.799519,27.640588 36.950916,28.425247 C 35.102313,29.196607 34.104865,32.920412 32.548846,32.534732 C 30.992828,32.149052 30.593848,33.678472 30.593848,34.941906 C 30.56725,34.316839 30.447556,32.667725 29.849087,32.534732 C 28.971333,32.335242 26.723751,34.383335 27.601505,35.074899 C 28.479259,35.753164 28.27977,37.402277 27.016336,37.402277 C 25.752902,37.402277 23.585115,36.803809 22.614266,37.774658 C 21.643417,38.745507 22.840354,38.865201 19.036753,39.357275 C 22.454674,39.83605 25.260828,40.115335 24.782053,41.392069 C 24.289978,42.655502 22.334981,44.291317 23.398925,45.169071 C 24.476169,46.046825 26.324772,44.969581 26.524261,45.75424 C 26.710452,46.5256 26.138582,48.493897 29.343714,48.201312 C 30.460855,48.094918 31.418405,47.762435 32.336057,47.203864 C 33.147315,46.13992 36.698229,41.072885 40.940707,35.035001 C 41.180094,33.705071 41.153496,32.654426 40.940707,32.042658 C 40.461932,30.579734 42.60312,28.544941 42.017951,28.252356 C 41.951454,28.212458 41.83176,28.17256 41.738665,28.17256 z"
       id="p3425"
       style="fill:#030507;fill-opacity:0.37999998;fill-rule:evenodd;stroke:none;display:inline" />
    <path
       d="M 32.229663,44.863187 C 28.519157,46.71179 26.670554,47.044273 26.55086,46.499001 C 26.444466,45.95373 29.064428,45.302064 27.867491,44.211521 C 26.670554,43.120978 26.989737,42.13683 26.231677,44.091827 C 25.460317,46.060124 23.718108,46.272913 23.611714,44.756792 C 23.505319,43.227372 24.702257,41.046287 26.125282,41.046287 C 27.535009,41.046287 29.170823,40.501015 29.822489,40.168533 C 30.487454,39.849349 29.170823,41.36547 29.716094,42.13683 C 30.261366,42.89489 30.261366,42.788495 32.336057,42.030435 C 34.410749,41.259075 28.186674,40.062138 30.806637,39.07799 C 33.4266,38.093841 33.4266,39.07799 35.168809,39.849349 C 36.911018,40.60741 29.277217,34.822212 32.003575,34.396635 C 34.729932,33.957758 35.607686,37.881052 36.48544,35.593572 C 37.349895,33.306092 37.682377,28.278955 38.546832,31.776672 C 39.424586,35.261089 38.334043,37.54857 38.334043,37.54857 L 33.639389,44.863187 L 32.229663,44.863187 z"
       id="p3498"
       style="fill:#06080a;fill-opacity:0.21000001;fill-rule:evenodd;stroke:none;display:inline" />
    <path
       d="M 7.2269713,42.402816 L 10.019825,45.328662 L 16.469988,47.190565 L 7.2269713,42.402816 z"
       id="p3553"
       style="fill:#92d1ff;fill-opacity:0.81000001;fill-rule:evenodd;stroke:none;display:inline" />
    <path
       d="M 12.147714,43.200774 L 18.863862,47.922027 L 19.262841,47.656041 L 19.728317,48.387502 L 20.526275,48.786482 C 20.526275,48.786482 20.659268,48.05502 20.858758,47.922027 C 21.058247,47.789034 21.989199,47.722537 21.989199,47.722537 L 12.147714,43.200774 z"
       id="p3555"
       style="fill:#92d1ff;fill-opacity:0.81000001;fill-rule:evenodd;stroke:none;display:inline" />
    <path
       d="M 13.012169,45.594649 L 29.184122,54.1727"
       id="p3560"
       style="fill:none;fill-rule:evenodd;stroke:#82baf2;stroke-width:0.26598608;stroke-linecap:round;stroke-linejoin:miter;stroke-miterlimit:4;stroke-dasharray:none;stroke-opacity:1;display:inline" />
    <path
       d="M 40.581626,38.639113 L 56.673784,15.990398"
       id="p3581"
       style="fill:none;fill-rule:evenodd;stroke:#0c1116;stroke-width:0.79795825;stroke-linecap:butt;stroke-linejoin:miter;stroke-miterlimit:4;stroke-dasharray:none;stroke-opacity:1;display:inline" />
    <path
       d="M 56.314702,14.540774 C 54.545895,17.120839 49.851241,23.98328 49.29267,24.887632 C 48.627705,25.964876 43.813357,32.57463 42.815909,34.077451 C 41.818461,35.566973 33.62609,46.951178 33.134016,47.789034 C 32.628642,48.613591 31.298712,50.608486 31.471603,51.446342 C 31.471603,51.446342 33.134016,52.310797 34.131463,51.898519 C 35.115612,51.48624 36.086461,49.19876 36.658331,47.948625 C 37.2435,46.71179 38.746322,44.544004 38.826118,43.799243 C 38.905913,43.054482 43.401078,34.237043 43.401078,34.237043 L 56.527491,16.163289 L 56.487593,16.123391 L 56.820076,15.75101 L 57.232354,15.165841 L 56.314702,14.540774 z"
       id="p3569"
       style="fill:#7db3e9;fill-opacity:1;fill-rule:evenodd;stroke:none;display:inline" />
    <path
       d="M 36.911018,50.369099 L 33.466498,56.393683 L 34.251157,57.058649 C 34.370851,56.899057 34.330953,56.726166 34.330953,56.726166 L 35.953468,56.433581 C 35.953468,56.433581 37.775473,54.239196 39.278294,52.324096 L 36.911018,50.369099 z"
       id="p3572"
       style="fill:#5e87b0;fill-opacity:1;fill-rule:evenodd;stroke:none;display:inline" />
    <path
       d="M 33.466498,56.566574 L 36.565236,51.220254"
       id="p3597"
       style="fill:none;fill-rule:evenodd;stroke:#1f2c39;stroke-width:0.39897913;stroke-linecap:round;stroke-linejoin:miter;stroke-miterlimit:4;stroke-dasharray:none;stroke-opacity:0.91000001;display:inline" />
    <path
       d="M 37.575983,49.118964 L 36.498739,49.704134 L 36.246053,52.151205 L 38.945811,52.736375 C 39.211797,52.390593 39.451185,52.098008 39.690572,51.778825 L 37.575983,49.118964 z"
       id="p3575"
       style="fill:#6692be;fill-opacity:0.9;fill-rule:evenodd;stroke:none;display:inline" />
    <path
       d="M 31.976976,55.821813 C 31.125821,56.46018 31.338609,56.885758 31.338609,56.885758"
       id="p3599"
       style="fill:none;fill-rule:evenodd;stroke:#141d26;stroke-width:1.32993042px;stroke-linecap:butt;stroke-linejoin:miter;stroke-opacity:0.87999998;display:inline" />
    <path
       d="M 12.639788,30.420143 C 12.333904,30.712727 12.02802,30.992013 11.762034,31.2447 L 13.717032,31.789971 L 14.714479,30.872319 L 12.639788,30.420143 z"
       id="p3608"
       style="fill:#456381;fill-opacity:0.37999998;fill-rule:evenodd;stroke:none;display:inline" />
    <path
       d="M 19.874609,23.438008 C 19.582025,23.717293 19.129848,24.156171 18.744169,24.515252 L 21.071547,25.220115 L 21.869505,24.342361 L 19.874609,23.438008 z"
       id="p3610"
       style="fill:#456381;fill-opacity:0.31000001;fill-rule:evenodd;stroke:none;display:inline" />
    <path
       d="M 35.208707,11.003159 C 33.559593,11.215948 32.269561,11.415437 32.09667,11.468635 C 31.857282,11.521832 29.024531,14.367883 26.151881,17.240532 L 27.441913,17.200635 C 27.441913,17.200635 27.827593,18.025191 27.189227,18.025191 C 26.75035,18.025191 27.415315,18.23798 27.973886,18.410871 L 35.208707,11.003159 z"
       id="p3612"
       style="fill:#425e7a;fill-opacity:0.37000002;fill-rule:evenodd;stroke:none;display:inline" />
    <path
       d="M 50.981681,18.902945 C 44.983695,17.812403 35.394897,17.932096 31.458303,21.310119 C 27.535009,24.688143 28.306368,24.581748 28.306368,24.581748"
       id="p3479"
       style="fill:none;fill-rule:evenodd;stroke:#6996c3;stroke-width:0.26598608;stroke-linecap:butt;stroke-linejoin:miter;stroke-miterlimit:4;stroke-dasharray:none;stroke-opacity:0.95" />
    <path
       d="M 12.812679,34.170546 C 14.342099,35.806361 20.778962,36.351632 20.778962,36.351632"
       id="p3481"
       style="fill:none;fill-rule:evenodd;stroke:#6996c3;stroke-width:0.39897913;stroke-linecap:round;stroke-linejoin:miter;stroke-miterlimit:4;stroke-dasharray:none;stroke-opacity:0.95" />
    <path
       d="M 10.737988,41.485164 C 16.190702,38.319929 27.32222,30.792523 32.66854,29.050314"
       id="p3483"
       style="fill:none;fill-rule:evenodd;stroke:#6996c3;stroke-width:0.39897913;stroke-linecap:round;stroke-linejoin:miter;stroke-miterlimit:4;stroke-dasharray:none;stroke-opacity:0.95" />
    <path
       d="M 28.186674,24.900932 C 35.501292,25.88508 43.786758,22.294268 48.14893,20.113182"
       id="p3485"
       style="fill:none;fill-rule:evenodd;stroke:#6996c3;stroke-width:0.39897913;stroke-linecap:butt;stroke-linejoin:miter;stroke-miterlimit:4;stroke-dasharray:none;stroke-opacity:0.95" />
    <path
       d="M 23.398925,46.818185 C 27.428614,45.18237 34.184661,42.349618 34.184661,42.349618"
       id="p3487"
       style="fill:none;fill-rule:evenodd;stroke:#6996c3;stroke-width:0.53197217;stroke-linecap:butt;stroke-linejoin:miter;stroke-miterlimit:4;stroke-dasharray:none;stroke-opacity:0.95" />
    <path
       d="M 29.503306,20.871242 C 34.729932,22.06818 38.985709,23.703994 40.515129,24.688143 C 42.044549,25.672291 42.589821,27.188412 43.56067,26.762834 C 44.544818,26.323957 45.316178,25.778686 45.316178,25.778686"
       id="p3489"
       style="fill:none;fill-rule:evenodd;stroke:#6996c3;stroke-width:0.26598608;stroke-linecap:butt;stroke-linejoin:miter;stroke-miterlimit:4;stroke-dasharray:none;stroke-opacity:0.95" />
    <path
       d="M 17.174851,32.215549 L 21.430628,37.987447"
       id="p3491"
       style="fill:none;fill-rule:evenodd;stroke:#6996c3;stroke-width:0.26598608;stroke-linecap:round;stroke-linejoin:miter;stroke-miterlimit:4;stroke-dasharray:none;stroke-opacity:0.95" />
    <path
       d="M 54.785282,9.1013584 C 53.747937,9.127957 52.138721,9.2077528 50.383213,9.3407459 C 51.952531,10.391391 52.604197,10.723873 53.202665,10.431289 C 53.987324,10.03231 55.436948,9.6200313 55.822628,10.005711 C 56.208308,10.40469 56.035417,11.481934 55.450248,11.668124 C 54.865078,11.867614 54.83848,12.865061 54.4528,13.250741 C 54.053821,13.636421 52.644094,15.857405 51.952531,16.243085 C 51.274266,16.628764 51.234368,16.642064 51.327463,17.320328 C 51.433858,18.011892 49.518758,20.53876 48.840494,21.602704 C 48.162229,22.679948 41.898257,29.795075 41.020503,32.042658 C 40.142749,34.276941 35.075714,41.405368 34.58364,41.591558 C 34.091565,41.791048 33.532995,43.799243 32.761635,44.384412 C 31.976976,44.969581 29.064428,47.217164 27.89409,47.124069 C 26.723751,47.030973 23.212735,47.403354 22.53447,46.618695 C 21.842906,45.847335 21.842906,45.36856 21.164642,45.169071 C 20.473078,44.969581 19.887909,45.780839 18.624475,45.009479 C 17.361041,44.22482 17.932911,43.799243 16.962062,43.506658 C 15.991213,43.214073 13.291454,42.057034 12.22751,41.764449 C 11.150266,41.471864 8.8095885,40.7936 7.7323449,40.301526 C 6.6684006,39.822751 5.8704423,40.02224 5.8704423,40.02224 L 5.8704423,40.102036 C 12.161013,43.400263 26.923241,51.060663 28.346266,50.781377 C 30.141672,50.422296 30.846535,49.105665 31.923779,47.789034 C 32.934526,46.538899 53.628243,16.934648 55.942322,13.623122 C 56.288104,12.958157 57.31215,10.936662 57.31215,10.338194 C 57.31215,9.6333306 56.899872,9.3407459 56.195009,9.1412563 C 56.022118,9.0880591 55.530043,9.0747598 54.785282,9.1013584 z"
       id="p3421"
       style="fill:#71a1d1;fill-opacity:0.97000002;fill-rule:evenodd;stroke:none;display:inline" />
    <path
       d="M 40.182647,10.511085 C 39.863463,15.086045 38.440438,25.020625 38.546832,26.097869 C 38.653227,27.188412 38.879315,28.611437 38.879315,28.611437"
       id="p3493"
       style="fill:none;fill-rule:evenodd;stroke:#6996c3;stroke-width:0.26598608;stroke-linecap:butt;stroke-linejoin:miter;stroke-miterlimit:4;stroke-dasharray:none;stroke-opacity:0.95" />
    <path
       d="M 50.649199,18.796551 C 48.361719,18.477368 45.635361,18.357674 45.635361,18.357674"
       id="p3495"
       style="fill:none;fill-rule:evenodd;stroke:#71a1d1;stroke-width:0.53197217;stroke-linecap:round;stroke-linejoin:miter;stroke-miterlimit:4;stroke-dasharray:none;stroke-opacity:1" />
    <path
       d="M 35.248605,43.174175 C 34.849626,43.493359 34.158062,44.051929 33.253709,44.876486 C 32.003575,46.020226 31.644493,46.937878 29.263918,48.081618 C 25.287426,48.307707 24.396373,49.544542 27.348818,49.664236 C 28.678749,49.704134 29.543203,49.810528 30.261366,49.744031 C 30.846535,49.185461 31.351909,48.480598 31.923779,47.789034 C 32.136568,47.523048 33.599491,45.501553 35.248605,43.174175 z"
       id="p3532"
       style="fill:#2b3e51;fill-opacity:0.73000004;fill-rule:evenodd;stroke:none;display:inline" />
    <path
       d="M 44.731009,28.505043 L 42.164243,32.321943 C 42.164243,32.321943 41.313087,32.561331 41.113598,33.040106 C 40.914108,33.505581 34.517143,42.628904 33.306906,44.22482 C 32.09667,45.834036 31.059324,47.110769 29.396911,49.185461 L 29.716094,50.196208 C 30.593848,49.597739 31.179018,48.693386 31.923779,47.789034 C 32.495649,47.084171 38.839417,38.040644 45.143287,29.050314 L 44.731009,28.505043 z"
       id="p3604"
       style="fill:#253545;fill-opacity:0.51000001;fill-rule:evenodd;stroke:none;display:inline" />
    <path
       d="M 31.13912,30.898918 C 31.032725,32.428338 30.36776,35.367484 30.36776,35.367484"
       id="p3510"
       style="fill:none;fill-rule:evenodd;stroke:#6793bf;stroke-width:0.26598608;stroke-linecap:round;stroke-linejoin:miter;stroke-miterlimit:4;stroke-dasharray:none;stroke-opacity:0.87999998" />
    <path
       d="M 37.137106,31.670277 L 40.289041,32.641126"
       id="p3512"
       style="fill:none;fill-rule:evenodd;stroke:#6793bf;stroke-width:0.26598608;stroke-linecap:round;stroke-linejoin:miter;stroke-miterlimit:4;stroke-dasharray:none;stroke-opacity:0.87999998" />
    <path
       d="M 27.973886,47.802333 L 29.170823,42.89489"
       id="p3514"
       style="fill:none;fill-rule:evenodd;stroke:#6793bf;stroke-width:0.26598608;stroke-linecap:round;stroke-linejoin:miter;stroke-miterlimit:4;stroke-dasharray:none;stroke-opacity:0.87999998" />
    <path
       d="M 31.13912,22.400662 L 39.318192,25.446203"
       id="p3516"
       style="fill:none;fill-rule:evenodd;stroke:#6793bf;stroke-width:0.26598608;stroke-linecap:round;stroke-linejoin:miter;stroke-miterlimit:4;stroke-dasharray:none;stroke-opacity:0.87999998" />
    <path
       d="M 33.094118,21.629303 L 25.686405,32.76082"
       id="p3518"
       style="fill:none;fill-rule:evenodd;stroke:#6793bf;stroke-width:0.26598608;stroke-linecap:round;stroke-linejoin:miter;stroke-miterlimit:4;stroke-dasharray:none;stroke-opacity:0.87999998" />
    <path
       d="M 17.400939,41.046287 C 18.704271,39.410472 20.885357,38.319929 20.885357,38.319929"
       id="p3520"
       style="fill:none;fill-rule:evenodd;stroke:#6793bf;stroke-width:0.26598608;stroke-linecap:round;stroke-linejoin:miter;stroke-miterlimit:4;stroke-dasharray:none;stroke-opacity:0.87999998" />
    <path
       d="M 44.544818,12.585776 L 47.816447,14.115196"
       id="p3522"
       style="fill:none;fill-rule:evenodd;stroke:#6793bf;stroke-width:0.26598608;stroke-linecap:round;stroke-linejoin:miter;stroke-miterlimit:4;stroke-dasharray:none;stroke-opacity:0.87999998" />
    <path
       d="M 27.441913,39.503567 C 27.003036,40.660607 27.003036,41.458565 27.614804,41.458565 C 28.239872,41.458565 27.535009,40.03554 28.678749,40.03554 C 29.835788,40.03554 28.239872,39.06469 27.441913,39.503567 z"
       id="p3545"
       style="fill:#6590bb;fill-opacity:0.47999998;fill-rule:evenodd;stroke:none" />
    <path
       d="M 30.36776,37.54857 C 31.258814,38.8785 31.883881,39.769553 31.165719,40.128635 C 30.460855,40.474417 33.825579,39.862649 32.681839,38.8785 C 31.5248,37.907651 30.36776,37.641665 30.36776,37.54857 z"
       id="p3547"
       style="fill:#6590bb;fill-opacity:0.47999998;fill-rule:evenodd;stroke:none" />
    <path
       d="M 32.681839,31.337795 C 32.415853,32.933711 32.495649,35.154695 33.027621,35.0616 C 33.559593,34.981804 35.514591,35.420681 34.184661,33.997655 C 32.85473,32.57463 33.559593,31.164904 33.559593,31.164904 L 32.681839,31.337795 z"
       id="p3549"
       style="fill:#6590bb;fill-opacity:0.47999998;fill-rule:evenodd;stroke:none" />
  </g>
  <path
     d="M 3.6893565,38.918398 C 9.9799272,42.229925 26.923241,51.060663 28.346266,50.781377 C 30.141672,50.422296 30.846535,49.105665 31.923779,47.789034 C 32.934526,46.538899 53.628243,16.934648 55.942322,13.623122 C 56.288104,12.958157 57.31215,10.936662 57.31215,10.338194 C 57.31215,9.6333306 56.899872,9.3407459 56.195009,9.1412563"
     id="p3524"
     style="fill:none;fill-opacity:0.97000002;fill-rule:evenodd;stroke:#0b0f14;stroke-width:0.66496521;stroke-linecap:butt;stroke-linejoin:miter;stroke-miterlimit:4;stroke-dasharray:none;stroke-opacity:0.97000002;display:inline" />
  <path
     d="M 3.5696627,38.891799 C 3.5696627,38.891799 4.7798994,40.899994 4.8862938,41.006389 C 4.9793889,41.112783 6.4955096,42.110231 6.4955096,42.110231 C 6.4955096,42.110231 9.8203356,45.142472 10.219315,45.448356 C 10.631593,45.740941 29.782591,56.327187 30.593848,56.739465 C 31.391807,57.138444 32.708438,57.537424 33.61279,57.337934 C 34.517143,57.138444 34.317654,56.739465 34.317654,56.739465 L 35.940169,56.433581 C 35.940169,56.433581 41.180094,50.182908 41.180094,49.57114 C 41.180094,48.972672 41.27319,48.467298 41.27319,48.467298 C 41.27319,48.467298 46.021041,40.700505 46.114136,40.102036 C 46.220531,39.490268 45.914647,39.197683 45.914647,39.197683 L 52.577598,28.904022 L 53.88093,27.893275 C 53.88093,27.893275 58.615482,20.033386 58.615482,19.634407 C 58.615482,19.222129 58.216503,19.022639 58.216503,19.022639 C 58.216503,19.022639 59.120856,18.224681 59.02776,17.812403 C 58.921366,17.413423 57.711129,16.602166 57.711129,16.602166 L 56.913171,16.90805 L 56.500893,16.096792 L 57.31215,15.19244 L 55.702934,14.088597 C 55.702934,14.088597 57.31215,11.056356 57.31215,10.351493 C 57.31215,9.6466299 56.913171,9.3407459 56.195009,9.1412563 C 55.490146,8.9417668 49.545357,9.3407459 43.401078,10.058908 C 37.2435,10.763771 32.508948,11.36224 32.109969,11.468635 C 31.697691,11.56173 22.933449,20.53876 21.217839,22.147976 C 19.502229,23.770491 11.735435,31.324495 9.92673,33.040106 C 8.1047254,34.755716 3.7691523,38.479521 3.5696627,38.891799 z"
     id="stroke01"
     style="fill:none;fill-opacity:1;fill-rule:evenodd;stroke:#030507;stroke-width:0.66496521;stroke-linecap:butt;stroke-linejoin:miter;stroke-miterlimit:4;stroke-dasharray:none;stroke-opacity:1;display:inline" />
  <text
     x="65.645157"
     y="32.370972"
     id="text2922"
     xml:space="preserve"
     style="font-size:8px;font-style:normal;font-variant:normal;font-weight:bold;font-stretch:normal;fill:#000000;fill-opacity:1;stroke:none;stroke-width:1px;stroke-linecap:butt;stroke-linejoin:miter;stroke-opacity:1;font-family:Aksharyogini;-inkscape-font-specification:Aksharyogini Bold"><tspan
       x="65.645157"
       y="32.370972"
       id="tspan2924" /></text>
  <text
     x="64.451607"
     y="33.564518"
     id="text2926"
     xml:space="preserve"
     style="font-size:8px;font-style:normal;font-variant:normal;font-weight:bold;font-stretch:normal;fill:#000000;fill-opacity:1;stroke:none;stroke-width:1px;stroke-linecap:butt;stroke-linejoin:miter;stroke-opacity:1;font-family:Rasheeq;-inkscape-font-specification:Rasheeq Bold"><tspan
       x="64.451607"
       y="33.564518"
       id="tspan2928" /></text>
  <text
     x="25.485619"
     y="37.799587"
     id="text3077"
     xml:space="preserve"
     style="font-size:8px;font-style:normal;font-variant:normal;font-weight:normal;font-stretch:normal;fill:#000000;fill-opacity:1;stroke:none;stroke-width:1px;stroke-linecap:butt;stroke-linejoin:miter;stroke-opacity:1;font-family:Arial;-inkscape-font-specification:Arial"><tspan
       x="25.485619"
       y="37.799587"
       id="tspan3079" /></text>
  <g
     id="g5113"
     style="opacity:0.9">
    <path
       d="M 52.256124,45.524197 L 44.587807,45.524197 L 44.587807,44.757365 C 44.587799,43.452416 44.735784,42.396343 45.031763,41.58914 C 45.327724,40.768509 45.764952,40.021858 46.343448,39.349184 C 46.935378,38.676541 48.253789,37.49266 50.298685,35.797542 C 51.388378,34.909652 51.933232,34.095734 51.933247,33.355789 C 51.933232,32.615886 51.711254,32.044125 51.267315,31.640507 C 50.836798,31.223483 50.177593,31.014958 49.289696,31.014935 C 48.334508,31.014958 47.540771,31.331108 46.908482,31.963383 C 46.289626,32.595706 45.892757,33.698867 45.717875,35.272868 L 37.88812,34.304239 C 38.157182,31.42528 39.199803,29.111335 41.015986,27.362395 C 42.845613,25.600055 45.643873,24.718872 49.410775,24.718843 C 52.343554,24.718872 54.711312,25.330993 56.514057,26.555203 C 58.962515,28.209972 60.186754,30.416291 60.186777,33.174171 C 60.186754,34.317712 59.870604,35.420873 59.238328,36.483655 C 58.606006,37.546474 57.314501,38.844704 55.36381,40.378352 C 54.005021,41.454621 53.144017,42.32235 52.780798,42.981544 C 52.430999,43.627308 52.256108,44.474857 52.256124,45.524197 M 44.32547,47.562354 L 52.538641,47.562354 L 52.538641,54.806896 L 44.32547,54.806896 L 44.32547,47.562354"
       id="path4989"
       style="font-size:41.32818985px;font-style:normal;font-variant:normal;font-weight:normal;font-stretch:normal;fill:none;fill-opacity:0.5;fill-rule:evenodd;stroke:#ffffff;stroke-width:4;stroke-linecap:butt;stroke-linejoin:miter;marker:none;marker-start:none;marker-mid:none;marker-end:none;stroke-miterlimit:4;stroke-dasharray:none;stroke-dashoffset:0;stroke-opacity:0.50196078;visibility:visible;display:inline;overflow:visible;enable-background:accumulate;font-family:Arial Black;-inkscape-font-specification:Arial Black" />
    <path
       d="M 52.256124,45.524197 L 44.587807,45.524197 L 44.587807,44.757365 C 44.587799,43.452416 44.735784,42.396343 45.031763,41.58914 C 45.327724,40.768509 45.764952,40.021858 46.343448,39.349184 C 46.935378,38.676541 48.253789,37.49266 50.298685,35.797542 C 51.388378,34.909652 51.933232,34.095734 51.933247,33.355789 C 51.933232,32.615886 51.711254,32.044125 51.267315,31.640507 C 50.836798,31.223483 50.177593,31.014958 49.289696,31.014935 C 48.334508,31.014958 47.540771,31.331108 46.908482,31.963383 C 46.289626,32.595706 45.892757,33.698867 45.717875,35.272868 L 37.88812,34.304239 C 38.157182,31.42528 39.199803,29.111335 41.015986,27.362395 C 42.845613,25.600055 45.643873,24.718872 49.410775,24.718843 C 52.343554,24.718872 54.711312,25.330993 56.514057,26.555203 C 58.962515,28.209972 60.186754,30.416291 60.186777,33.174171 C 60.186754,34.317712 59.870604,35.420873 59.238328,36.483655 C 58.606006,37.546474 57.314501,38.844704 55.36381,40.378352 C 54.005021,41.454621 53.144017,42.32235 52.780798,42.981544 C 52.430999,43.627308 52.256108,44.474857 52.256124,45.524197 M 44.32547,47.562354 L 52.538641,47.562354 L 52.538641,54.806896 L 44.32547,54.806896 L 44.32547,47.562354"
       id="text4984"
       style="font-size:41.32818985px;font-style:normal;font-variant:normal;font-weight:normal;font-stretch:normal;fill:#212f3e;fill-opacity:1;stroke:none;stroke-width:1px;stroke-linecap:butt;stroke-linejoin:miter;stroke-opacity:1;font-family:Arial Black;-inkscape-font-specification:Arial Black" />
  </g>
</svg>
