<?xml version="1.0" encoding="UTF-8" standalone="no"?>
<!-- Created with Inkscape (http://www.inkscape.org/) -->

<svg
   xmlns:dc="http://purl.org/dc/elements/1.1/"
   xmlns:cc="http://creativecommons.org/ns#"
   xmlns:rdf="http://www.w3.org/1999/02/22-rdf-syntax-ns#"
   xmlns:svg="http://www.w3.org/2000/svg"
   xmlns="http://www.w3.org/2000/svg"
   xmlns:sodipodi="http://sodipodi.sourceforge.net/DTD/sodipodi-0.dtd"
   xmlns:inkscape="http://www.inkscape.org/namespaces/inkscape"
   version="1.0"
   width="100%"
   height="100%"
   viewBox="0 0 640 480"
   id="svg2"
   inkscape:version="0.91 r13725"
   sodipodi:docname="robot.svg">
  <metadata
     id="metadata88">
    <rdf:RDF>
      <cc:Work
         rdf:about="">
        <dc:format>image/svg+xml</dc:format>
        <dc:type
           rdf:resource="http://purl.org/dc/dcmitype/StillImage" />
      </cc:Work>
    </rdf:RDF>
  </metadata>
  <sodipodi:namedview
     pagecolor="#ffffff"
     bordercolor="#666666"
     borderopacity="1"
     objecttolerance="10"
     gridtolerance="10"
     guidetolerance="10"
     inkscape:pageopacity="0"
     inkscape:pageshadow="2"
     inkscape:window-width="701"
     inkscape:window-height="480"
     id="namedview86"
     showgrid="false"
     inkscape:zoom="0.36875"
     inkscape:cx="319.82263"
     inkscape:cy="243.79849"
     inkscape:window-x="6"
     inkscape:window-y="462"
     inkscape:window-maximized="0"
     inkscape:current-layer="svg2" />
  <defs
     id="defs4" />
  <g
     style="opacity:0.8"
     id="splashbg">
    <rect
       x="0"
       y="0"
       width="640"
       height="480"
       style="fill:black;fill-opacity:0.95;"
       id="rect5" />
    <path
       d="M 0 0 L 0 10 L 640 10 L 640 0 L 0 0 z M 0 20 L 0 30 L 640 30 L 640 20 L 0 20 z M 0 40 L 0 50 L 640 50 L 640 40 L 0 40 z M 0 60 L 0 70 L 640 70 L 640 60 L 0 60 z M 0 80 L 0 90 L 640 90 L 640 80 L 0 80 z M 0 100 L 0 110 L 640 110 L 640 100 L 0 100 z M 0 120 L 0 130 L 640 130 L 640 120 L 0 120 z M 0 140 L 0 150 L 640 150 L 640 140 L 0 140 z M 0 160 L 0 170 L 640 170 L 640 160 L 0 160 z M 0 180 L 0 190 L 640 190 L 640 180 L 0 180 z M 0 200 L 0 210 L 640 210 L 640 200 L 0 200 z M 0 220 L 0 230 L 640 230 L 640 220 L 0 220 z M 0 240 L 0 250 L 640 250 L 640 240 L 0 240 z M 0 260 L 0 270 L 640 270 L 640 260 L 0 260 z M 0 280 L 0 290 L 640 290 L 640 280 L 0 280 z M 0 300 L 0 310 L 640 310 L 640 300 L 0 300 z M 0 320 L 0 330 L 640 330 L 640 320 L 0 320 z M 0 340 L 0 350 L 640 350 L 640 340 L 0 340 z M 0 360 L 0 370 L 640 370 L 640 360 L 0 360 z M 0 380 L 0 390 L 640 390 L 640 380 L 0 380 z M 0 400 L 0 410 L 640 410 L 640 400 L 0 400 z M 0 420 L 0 430 L 640 430 L 640 420 L 0 420 z M 0 440 L 0 450 L 640 450 L 640 440 L 0 440 z M 0 460 L 0 470 L 640 470 L 640 460 L 0 460 z "
       style="fill:black;"
       id="path7" />
  </g>
  <g
     id="g4287"
     transform="matrix(2.4895085,-0.41167126,0.41167126,2.4895085,380.36381,48.02834)">
    <rect
       style="display:inline;overflow:visible;visibility:visible;fill:#e4e4e4;fill-opacity:1;fill-rule:evenodd;stroke:#acacac;stroke-width:7;stroke-linecap:round;stroke-linejoin:miter;stroke-miterlimit:4;stroke-dasharray:none;stroke-dashoffset:0;stroke-opacity:1;marker:none;enable-background:accumulate"
       id="r2393-8"
       y="4"
       x="4"
       ry="2.5"
       height="40"
       width="40" />
    <path
       style="fill:#333333;fill-opacity:1;fill-rule:evenodd;stroke:none"
       id="p2409"
       d="m 17.43,11.75 3.71,3.15 5,0 3.75,-3.15 -12.46,0 z"
       inkscape:connector-curvature="0" />
    <path
       style="fill:#333333;fill-opacity:1;fill-rule:evenodd;stroke:none"
       id="p2407"
       d="m 16.74,12.65 0,10.31 3.78,-3.06 0,-4.19 -3.78,-3.06 z"
       inkscape:connector-curvature="0" />
    <path
       style="fill:#333333;fill-opacity:1;fill-rule:evenodd;stroke:none"
       id="p2405"
       d="m 30.71,12.65 -3.78,3.06 0,4.19 3.78,3.06 0,-10.31 z"
       inkscape:connector-curvature="0" />
    <path
       style="fill:#b3b3b3;fill-opacity:1;fill-rule:evenodd;stroke:none"
       id="p2403"
       d="m 19.52,21.87 -1.94,1.56 1.94,1.57 2.41,0 3.59,0 2.41,0 1.93,-1.57 -1.93,-1.56 -2.41,0 -3.59,0 -2.41,0 z"
       inkscape:connector-curvature="0" />
    <path
       style="fill:#333333;fill-opacity:1;fill-rule:evenodd;stroke:none"
       id="p2401"
       d="m 16.74,23.87 0,10.31 3.78,-3.06 0,-4.19 -3.78,-3.06 z"
       inkscape:connector-curvature="0" />
    <path
       style="fill:#333333;fill-opacity:1;fill-rule:evenodd;stroke:none"
       id="p2399"
       d="m 30.71,23.87 -3.78,3.06 0,4.19 3.78,3.06 0,-10.31 z"
       inkscape:connector-curvature="0" />
    <path
       style="fill:#333333;fill-opacity:1;fill-rule:evenodd;stroke:none"
       id="p2383"
       d="m 21.14,31.96 -3.71,3.13 12.46,0 -3.75,-3.13 -5,0 z"
       inkscape:connector-curvature="0" />
  </g>
  <g
     id="layer1"
     transform="matrix(2.4174075,-0.37502505,0.37502505,2.4174075,82.569859,44.135098)">
    <rect
       style="display:inline;overflow:visible;visibility:visible;opacity:1;fill:#e4e4e4;fill-opacity:1;fill-rule:evenodd;stroke:#acacac;stroke-width:7;stroke-linecap:round;stroke-linejoin:miter;stroke-miterlimit:4;stroke-dasharray:none;stroke-dashoffset:0;stroke-opacity:1;marker:none;enable-background:accumulate"
       id="r2393-1"
       y="4"
       x="4"
       ry="2.5"
       height="40"
       width="40" />
    <path
       style="display:inline;overflow:visible;visibility:visible;opacity:1;fill:#5b5b5b;fill-opacity:1;fill-rule:evenodd;stroke:none;marker:none;enable-background:accumulate"
       id="r3165"
       d="m 24,5.09 c -0.64,0 -1.3,0.23 -1.79,0.72 L 5.96,22.09 c -0.98,0.98 -0.98,2.55 0,3.53 l 0.22,0.22 9.82,0 0,13.81 c 0,1.39 1.11,2.5 2.5,2.5 l 11,0 c 1.38,0 2.5,-1.11 2.5,-2.5 l 0,-13.81 9.81,0 0.22,-0.22 c 0.98,-0.98 0.98,-2.55 0,-3.53 L 25.78,5.81 C 25.29,5.32 24.63,5.09 24,5.09 Z"
       inkscape:connector-curvature="0" />
  </g>
  <g
     id="g4387"
     transform="matrix(2.4078272,0.43228569,-0.43228569,2.4078272,50.58735,118.37704)">
    <rect
       style="display:inline;overflow:visible;visibility:visible;fill:#e4e4e4;fill-opacity:1;fill-rule:evenodd;stroke:#ffffff;stroke-width:7;stroke-linecap:round;stroke-linejoin:miter;stroke-miterlimit:4;stroke-dasharray:none;stroke-dashoffset:0;stroke-opacity:1;marker:none;enable-background:accumulate"
       id="r2393-5"
       y="4"
       x="4"
       ry="2.5"
       height="40"
       width="40" />
    <path
       style="font-style:normal;font-variant:normal;font-weight:normal;font-stretch:normal;font-size:27.65999985px;font-family:'Arial Black';-inkscape-font-specification:'Arial Black';fill:#5b5b5b;fill-opacity:1;stroke:none"
       id="text3155"
       d="m 17.15,11.81 -8.62,13.84 0,5.28 8.62,0 0,4.28 4.13,0 0,-4.28 2.12,0 0,-4.97 -2.12,0 0,-14.15 -4.13,0 z m 7.16,6.72 4.25,7.97 -4.5,8.71 5.12,0 2.69,-5.37 2.28,5.37 5.5,0 -4.5,-8.71 4.22,-7.97 -5.22,0 -2.28,4.65 -1.97,-4.65 -5.59,0 z m -7.16,0.18 0,7.25 -4.56,0 4.56,-7.25 z"
       inkscape:connector-curvature="0" />
  </g>
  <g
     id="layer1-1"
     transform="matrix(2.4212952,0.34904452,-0.34904452,2.4212952,196.33066,18.771317)">
    <rect
       style="display:inline;overflow:visible;visibility:visible;opacity:1;fill:#cae7ca;fill-opacity:1;fill-rule:evenodd;stroke:#ffffff;stroke-width:7;stroke-linecap:round;stroke-linejoin:miter;stroke-miterlimit:4;stroke-dasharray:none;stroke-dashoffset:0;stroke-opacity:1;marker:none;enable-background:accumulate"
       id="r2393-19"
       y="4"
       x="4"
       ry="2.5"
       height="40"
       width="40" />
    <path
       style="display:inline;overflow:visible;visibility:visible;opacity:1;fill:#82ca82;fill-opacity:1;fill-rule:evenodd;stroke:none;marker:none;enable-background:accumulate"
       id="r2383"
       d="M 24.28,5 C 23.66,5 23.06,5.24 22.59,5.71 L 5.68,22.59 c -0.94,0.94 -0.94,2.44 0,3.37 l 15.6,15.6 c 0.93,0.94 2.43,0.94 3.37,0 L 41.53,24.65 c 0.93,-0.94 0.93,-2.44 0,-3.37 L 25.96,5.71 C 25.49,5.24 24.89,5 24.28,5 Z"
       inkscape:connector-curvature="0" />
    <g
       id="g3325">
      <path
         style="display:inline;overflow:visible;visibility:visible;fill:#333333;fill-opacity:1;fill-rule:evenodd;stroke:none;marker:none;enable-background:accumulate"
         id="p3242"
         d="m 9.18,5.56 c -4.52,0 -8.22,3.69 -8.22,8.22 0,4.52 3.7,8.18 8.22,8.18 4.53,0 8.19,-3.66 8.19,-8.18 0,-4.53 -3.66,-8.22 -8.19,-8.22 z"
         inkscape:connector-curvature="0" />
      <path
         style="font-style:normal;font-variant:normal;font-weight:normal;font-stretch:normal;font-size:12.35000038px;line-height:80.00000119%;font-family:'Arial Black';-inkscape-font-specification:'Arial Black';text-align:start;writing-mode:lr-tb;text-anchor:start;fill:#ffffff;fill-opacity:1;stroke:none"
         id="text3234"
         d="m 10.46,15.81 c -1.02,0 -2.03,0 -3.05,0 C 7.38,15.06 7.48,14.25 8.02,13.66 8.63,13 9.43,12.54 10.08,11.92 10.52,11.53 10.36,10.74 9.74,10.59 9.1,10.4 8.28,10.66 8.06,11.28 7.83,11.53 8.08,12.23 7.57,12.05 6.63,11.94 5.69,11.84 4.75,11.73 4.84,10.38 5.71,9 7.17,8.55 8.36,8.18 9.68,8.16 10.91,8.41 c 1.35,0.3 2.6,1.31 2.69,2.63 0.13,0.88 -0.39,1.7 -1.09,2.26 -0.61,0.57 -1.46,0.95 -1.89,1.67 -0.13,0.26 -0.16,0.55 -0.16,0.84 l 0,0 z m -3.15,0.74 c 1.08,0 2.17,0 3.26,0 0,0.87 0,1.75 0,2.63 -1.09,0 -2.18,0 -3.26,0 0,-0.88 0,-1.76 0,-2.63 z"
         inkscape:connector-curvature="0" />
    </g>
  </g>
  <g
     id="g4410"
     transform="matrix(2.2155382,-0.36669839,0.36669839,2.2155382,-818.12425,-137.42957)">
    <path
       style="fill:none;stroke:#ffffff;stroke-width:10.19900036;stroke-linecap:butt"
       d="m 464.17173,175.38365 c -0.262,-0.008 -0.459,0.01 -0.683,0.018 -0.173,0.006 -0.38,-0.003 -0.529,0.013 -5.457,0.605 -61.241,9.086 -61.241,9.086 1.257,5.526 2.957,22.974 8.455,30.493 0.003,0.004 0.006,0.007 0.009,0.011 0.549,0.75 1.137,1.404 1.766,1.933 0.176,0.149 0.355,0.294 0.538,0.424 0.045,0.032 0.093,0.058 0.139,0.089 0.18,0.122 0.366,0.233 0.553,0.335 0.061,0.033 0.122,0.065 0.184,0.096 0.231,0.116 0.466,0.222 0.708,0.307 1.686,0.586 3.803,1.064 6.068,1.446 1.132,0.191 2.301,0.357 3.473,0.502 0,0 10e-4,0 10e-4,0 5.856,0.723 11.754,0.889 13.27,0.699 0.576,-0.071 1.732,-0.182 3.21,-0.32 -0.783,1.524 -1.533,3.06 -2.038,4.41 -1.265,0.032 -4.566,0.113 -4.566,0.113 -2.466,0.447 -3.133,2.827 -3.31,5.067 -14.951,0.951 -33.38,2.247 -41.039,3.627 -0.588,0.105 -1.168,0.213 -1.621,0.32 -1.062,0.25 -1.733,0.503 -1.922,0.755 -0.425,0.303 -0.726,0.912 -0.927,1.755 -3.37,-0.378 -11.273,-1.109 -13.184,-0.281 -0.439,0.19 -0.764,0.361 -1.028,0.517 -0.285,-0.041 -0.826,-0.135 -1.062,-0.167 -5.152,-0.7 -16.728,2.801 -16.728,2.801 l -0.251,2.979 c -0.406,-0.011 -0.82,-0.024 -1.181,-0.024 -3.855,3.961 -5.72,10.397 -4.898,12.378 0.172,0.414 1.565,0.827 3.62,1.219 -0.043,0.488 -0.09,0.964 -0.122,1.485 -1.896,-0.252 -3.163,-0.539 -3.361,-0.88 -1.074,3.501 0.761,11.204 1.002,12.955 0.049,0.357 1.339,0.715 3.312,1.04899 0.039,0.157 0.088,0.312 0.13,0.469 -0.563,-0.138 -1.096,-0.287 -1.578,-0.45 0,0 -0.996,0.742 -0.86,1.732 0.136,0.99 3.597,8.17 4.799,8.913 0.171,0.106 0.942,0.235 1.976,0.374 -0.312,0.654 -0.396,1.111 -0.396,1.111 0,0 2.643,3.219 5.047,4.705 0.578,0.357 2.395,0.685 4.823,0.975 l 1.049,1.747 c 0,0 21.464,0.881 24.661,0.952 a 1.678,1.419 23.721 0 0 1.041,0.282 l 4.62,-0.002 a 1.678,1.419 23.721 0 0 1.444,-0.988 1.678,1.419 23.721 0 0 1.906,0.543 l 8.565,-2.616 a 1.678,1.419 23.721 0 0 0.968,-1.194 c 0.058,-0.093 0.089,-0.189 0.081,-0.286 a 1.678,1.419 23.721 0 0 2.098,0.173 l 1.449,-0.984 c 17.151,0.885 39.31,0.638 41.786,0.638 0.192,0 0.531,-0.025 0.872,-0.052 9.5e-4,-1e-4 0.005,9e-5 0.006,0 0.741,-0.057 1.918,-0.193 3.245,-0.355 0.683,-0.083 1.481,-0.189 2.289,-0.295 0.028,-0.004 0.051,-0.008 0.08,-0.011 0.665,1.897 1.402,3.659 1.874,4.012 0.147,0.11 0.852,0.245 1.805,0.388 -0.377,0.681 -0.514,1.159 -0.514,1.159 0,0 2.064,3.349 4.128,4.896 0.496,0.372 2.161,0.714 4.402,1.016 l 0.758,1.82 c 0,0 20.027,0.915 23.02,0.99 a 1.526,1.524 0 0 0 0.942,0.295 l 4.337,-0.002 a 1.526,1.524 0 0 0 1.483,-1.032 1.526,1.524 0 0 0 1.717,0.569 l 8.377,-2.724 a 1.526,1.524 0 0 0 1.067,-1.28 c 0.053,-0.086 0.103,-0.173 0.108,-0.262 a 1.526,1.525 0 0 0 1.947,0.18 l 5.649,-3.893 a 1.526,1.524 0 0 0 0.402,-2.138 c -0.013,-0.211 -0.049,-0.42 -0.108,-0.61 0.226,-0.008 0.42,-0.036 0.594,-0.076 a 1.431,1.429 0 0 0 1.932,-0.872 l 2.338,-6.616 a 1.431,1.429 0 0 0 -0.708,-1.775 c -0.022,-0.186 -0.079,-0.313 -0.193,-0.342 -0.303,-0.075 -1.843,-0.404 -3.033,-0.662 0.105,-0.376 0.198,-0.71 0.296,-1.073 2.262,0.325 4.237,0.388 4.544,-0.325 0.774,-1.804 0.257,-12.11699 0.257,-12.11699 l -3.761,-0.137 c -0.019,-0.123 -0.042,-0.248 -0.063,-0.372 2.031,-0.047 3.389,-0.225 3.601,-0.571 0.736,-1.2 0.61,-8.901 -0.98,-11.684 a 1.526,1.524 0 0 0 -0.827,-2.276 l -0.698,-0.236 c -0.178,-0.231 -0.358,-0.421 -0.514,-0.498 -0.729,-0.364 -5.475,-2.37 -10.95,-4.193 -3.887,-1.294 -7.027,-1.928 -9.638,-1.74 -0.003,-0.159 -0.008,-0.306 -0.011,-0.463 -0.013,-0.604 -0.024,-1.223 -0.048,-1.784 -0.006,-0.145 -0.013,-0.278 -0.02,-0.42 -0.015,-0.326 -0.042,-0.6 -0.061,-0.91 -0.04,-0.636 -0.075,-1.285 -0.132,-1.838 -0.006,-0.059 -0.012,-0.114 -0.018,-0.173 -0.033,-0.314 -0.07,-0.618 -0.109,-0.9 -0.014,-0.105 -0.029,-0.2 -0.044,-0.301 -0.037,-0.243 -0.075,-0.48 -0.117,-0.696 -0.021,-0.108 -0.044,-0.201 -0.067,-0.303 -0.039,-0.176 -0.076,-0.356 -0.119,-0.509 -0.035,-0.127 -0.075,-0.229 -0.113,-0.34 -0.036,-0.106 -0.072,-0.223 -0.111,-0.314 -0.052,-0.121 -0.108,-0.211 -0.165,-0.303 -0.03,-0.048 -0.057,-0.116 -0.089,-0.156 -0.008,-0.009 -0.016,-0.015 -0.024,-0.024 -0.084,-0.1 -0.171,-0.174 -0.264,-0.212 -0.204,-0.081 -0.561,-0.176 -1.032,-0.281 -0.145,-0.032 -0.363,-0.069 -0.532,-0.104 -0.372,-0.075 -0.757,-0.153 -1.237,-0.238 -1.209,-0.212 -2.782,-0.45 -4.551,-0.703 -0.252,-0.036 -0.471,-0.069 -0.734,-0.106 -0.835,-0.116 -1.84,-0.241 -2.761,-0.362 -1.518,-0.2 -3.01,-0.398 -4.706,-0.604 -1.007,-0.122 -2.059,-0.24 -3.109,-0.362 -1.645,-0.192 -3.253,-0.381 -4.958,-0.567 -1.228,-0.134 -2.416,-0.253 -3.65,-0.381 -0.014,-0.001 -0.029,-0.004 -0.044,-0.005 -0.045,-0.004 -0.088,-0.008 -0.134,-0.013 -1.597,-0.165 -3.145,-0.326 -4.708,-0.476 -1.112,-0.107 -2.135,-0.197 -3.21,-0.294 -0.548,-0.049 -1.117,-0.104 -1.652,-0.15 -0.491,-2.39 -1.773,-5.118 -3.448,-5.118 -0.599,0 -4.513,0.097 -6.899,0.148 0.084,-1.857 0.119,-3.881 0.136,-5.501 5.799,-0.598 11.941,-1.302 17.184,-2.103 0.01,-0.001 0.018,-0.002 0.028,-0.003 1.097,-0.167 2.134,-0.34 3.133,-0.515 0.261,-0.045 0.532,-0.089 0.786,-0.135 0.815,-0.148 1.555,-0.299 2.28,-0.452 0.336,-0.07 0.702,-0.138 1.017,-0.21 0.185,-0.042 0.357,-0.085 0.534,-0.128 0.739,-0.176 1.417,-0.356 2.004,-0.537 0,0 0.002,0 0.002,0 0.2,-0.062 0.383,-0.125 0.564,-0.187 0.127,-0.043 0.263,-0.087 0.38,-0.132 0,0 0.002,0 0.002,0 0.175,-0.066 0.322,-0.134 0.475,-0.201 0.109,-0.048 0.234,-0.096 0.331,-0.145 0.145,-0.072 0.256,-0.146 0.372,-0.219 0.065,-0.04 0.147,-0.081 0.203,-0.122 0.156,-0.116 0.279,-0.232 0.357,-0.349 0.303,-0.454 0.71,-1.276 1.185,-2.371 0.237,-0.547 0.491,-1.162 0.758,-1.833 1.333,-3.351 2.973,-8.088 4.346,-12.678 0.274,-0.917 0.539,-1.83 0.788,-2.724 0.995,-3.575 1.746,-6.859 1.96,-9.067 0.026,-0.275 0.044,-0.535 0.054,-0.776 0.018,-0.481 0.002,-0.889 -0.055,-1.211 -0.028,-0.161 -0.067,-0.301 -0.117,-0.418 -0.049,-0.116 -0.11,-0.209 -0.182,-0.279 -0.071,-0.069 -0.153,-0.115 -0.247,-0.134 -0.358,-0.071 -1.028,-0.239 -1.868,-0.457 -0.829,-0.216 -1.858,-0.49 -3.037,-0.805 -2.034,-0.544 -4.488,-1.194 -7.108,-1.868 -0.681,-0.175 -1.254,-0.327 -1.95,-0.502 -0.593,-0.149 -1.17,-0.287 -1.768,-0.433 -1.018,-0.249 -2.014,-0.489 -3.018,-0.722 -0.651,-0.15 -1.262,-0.282 -1.896,-0.422 -1.161,-0.255 -2.313,-0.505 -3.376,-0.707 -0.111,-0.021 -0.227,-0.046 -0.337,-0.067 -0.487,-0.09 -0.944,-0.168 -1.401,-0.243 -0.203,-0.033 -0.418,-0.071 -0.614,-0.102 -0.631,-0.097 -1.226,-0.179 -1.775,-0.24 -0.006,-6.8e-4 -0.01,-0.001 -0.016,-0.001 -0.561,-0.061 -1.082,-0.103 -1.54,-0.119 z"
       id="path5316"
       inkscape:connector-curvature="0" />
    <path
       id="path4986"
       d="m 363.99573,287.21164 1.783,2.971 c 0,0 24.061,0.99 25.711,0.99 1.649,0 5.604,-1.237 5.811,-1.733 0.206,-0.495 -3.603,-4.209 -3.603,-4.209 z"
       style="fill:#7e634a;stroke-width:1px;stroke-linecap:butt"
       inkscape:connector-curvature="0" />
    <path
       id="path4988"
       d="m 393.13973,291.17264 c 6.395,-1.485 16.675,-2.723 15.887,-4.456 -0.788,-1.733 -5.63,-4.951 -5.63,-4.951 l -13.273,3.466 z"
       style="fill:#725943;stroke-width:1px;stroke-linecap:butt"
       inkscape:connector-curvature="0" />
    <path
       id="path4990"
       d="m 407.34273,286.46864 2.99,-0.247 c 0,0 5.641,-2.971 6.33,-3.961 0.688,-0.99 -0.615,-2.475 -0.615,-2.475 l -12.576,-3.466 -1.555,6.685 z"
       style="fill:#765d46;stroke-width:1px;stroke-linecap:butt"
       inkscape:connector-curvature="0" />
    <path
       id="path4992"
       d="m 409.11973,269.38465 c 0,0 9.313,1.73299 10.447,1.97999 1.134,0.247 -1.178,7.427 -1.317,8.418 -0.138,0.99 -2.202,1.98 -10.997,-1.98 -8.794,-3.961 1.867,-8.41799 1.867,-8.41799 z"
       style="fill:#645342;stroke-width:1px;stroke-linecap:butt"
       inkscape:connector-curvature="0" />
    <path
       id="path4994"
       d="m 412.43473,257.49965 7.459,0.247 c 0,0 1.911,9.903 1.325,11.637 -0.586,1.73299 -13.095,-1.237 -13.095,-1.237 z"
       style="fill:#5d4d3e;stroke-width:1px;stroke-linecap:butt"
       inkscape:connector-curvature="0" />
    <path
       style="fill:#5d4d3e;stroke-width:1px;stroke-linecap:butt"
       d="m 389.77873,255.11965 c -3.946,-4.754 -5.949,-11.585 -5.166,-13.403 0.782,-1.817 28.572,1.846 31.27,2.888 2.697,1.041 4.352,10.766 3.627,12.101 -0.724,1.335 -21.465,0.09 -29.733,-1.588 z"
       id="path4996"
       inkscape:connector-curvature="0" />
    <path
       id="path4998"
       d="m 388.57073,237.51565 c 3.137,-1.225 7.487,-0.7 13.561,1.05 6.074,1.75 11.394,3.676 12.22,4.026 0.825,0.35 2.524,2.801 1.575,2.976 -0.948,0.175 -9.428,-2.1 -9.428,-2.1 z"
       style="fill:#6c5845;stroke-width:1px;stroke-linecap:butt"
       inkscape:connector-curvature="0" />
    <path
       id="path5000"
       d="m 371.95673,246.79565 c 7.344,-3.151 31.412,-6.302 37.772,0.35 6.359,6.653 7.951,15.406 7.07,20.309 -0.881,4.90199 -1.378,12.60499 -7.945,15.75699 -6.567,3.151 -25.779,10.504 -32.623,3.151 -6.844,-7.353 -12.703,-24.51099 -4.273,-39.56699 z"
       style="fill:#5a5957;stroke-width:1px;stroke-linecap:butt;stroke-opacity:1"
       inkscape:connector-curvature="0" />
    <ellipse
       transform="matrix(0.96193835,-0.27326656,0.29514022,0.95545395,0,0)"
       ry="10.239134"
       rx="9.6695585"
       cy="350.78632"
       cx="292.75113"
       id="ellipse5002"
       style="fill:#4f4f4f;stroke-width:1px;stroke-linecap:butt;marker:none" />
    <path
       id="path5004"
       d="m 369.53873,237.69065 c 0,0 -0.072,-0.525 1.946,-1.4 2.018,-0.875 10.889,0 13.854,0.35 2.964,0.35 20.776,4.026 21.675,4.902 0.898,0.875 1.333,2.626 1.333,2.626 0,0 -10.306,0 -12.445,0 -2.138,0 -26.364,-6.477 -26.364,-6.477 z"
       style="fill:#6d5845;stroke-width:1px;stroke-linecap:butt"
       inkscape:connector-curvature="0" />
    <path
       id="path5006"
       d="m 352.37073,242.94365 0.296,-3.501 c 0,0 11.574,-3.501 16.726,-2.801 5.152,0.7 23.086,3.851 25.175,4.902 2.088,1.05 0.918,3.851 -0.637,3.851 -1.555,0 -12.448,2.801 -14.393,2.801 -1.944,0 -24.349,-4.552 -27.167,-5.252 z"
       style="fill:#765d46;stroke-width:1px;stroke-linecap:butt;stroke-opacity:1"
       inkscape:connector-curvature="0" />
    <path
       id="path5008"
       d="m 350.34273,252.57365 c -0.846,5.674 -1.547,16.839 2.915,24.15999 4.462,7.321 21.647,2.196 21.647,2.196 0,0 -3.137,-28.73599 -4.154,-28.73599 -1.016,0 -20.408,2.379 -20.408,2.379 z"
       style="fill:#524941;stroke-width:1px;stroke-linecap:butt;stroke-opacity:1"
       inkscape:connector-curvature="0" />
    <path
       id="path5010"
       d="m 346.47073,256.59965 c -1.074,3.501 0.762,11.205 1.003,12.955 0.24,1.74999 29.26,3.50099 30.671,2.45099 1.411,-1.05 1.666,-10.50399 -0.081,-11.90499 -1.748,-1.4 -30.575,-1.75 -31.594,-3.501 z"
       style="fill:#83674e;stroke-width:1px;stroke-linecap:butt"
       inkscape:connector-curvature="0" />
    <path
       id="path5012"
       d="m 352.61773,240.02165 -0.247,2.922 c 2.818,0.7 25.224,5.251 27.168,5.251 0.708,0 2.706,-0.404 4.908,-0.877 -4.28,-3.884 -21.914,-6.811 -31.829,-7.296 z"
       style="fill:#a68669;stroke-width:1px;stroke-linecap:butt;stroke-opacity:1"
       inkscape:connector-curvature="0" />
    <path
       id="path5014"
       d="m 351.23373,242.39565 c -3.855,3.961 -5.72,10.399 -4.897,12.379 0.822,1.98 28.594,3.961 31.276,3.466 2.681,-0.495 4.138,-9.903 3.384,-11.389 -0.754,-1.485 -21.512,-4.456 -29.762,-4.456 z"
       style="fill:#7e634a;stroke-width:1px;stroke-linecap:butt"
       inkscape:connector-curvature="0" />
    <ellipse
       style="fill:#787878;stroke-width:1px;stroke-linecap:butt;marker:none"
       id="ellipse5016"
       cx="294.77014"
       cy="351.88278"
       rx="5.9941473"
       ry="6.346983"
       transform="matrix(0.96193835,-0.27326656,0.29514022,0.95545395,0,0)" />
    <path
       id="path5018"
       d="m 355.92573,280.52664 c -0.929,1.237 -1.068,2.228 -1.068,2.228 0,0 2.642,3.218 5.046,4.704 2.404,1.485 25.915,2.476 27.806,2.228 1.89,-0.247 -2.398,-5.447 -3.91,-6.437 -1.511,-0.99 -27.874,-2.723 -27.874,-2.723 z"
       style="fill:#775f49;stroke-width:1px;stroke-linecap:butt"
       inkscape:connector-curvature="0" />
    <path
       id="path5020"
       d="m 349.33973,270.62264 c 0,0 -0.997,0.742 -0.861,1.733 0.136,0.99 3.598,8.17 4.8,8.913 1.202,0.742 27.015,2.476 28.081,2.228 1.065,-0.247 1.17,-1.485 1.17,-1.485 0,0 -2.257,-8.418 -3.425,-8.913 -1.168,-0.495 -21.69,0.247 -29.765,-2.475 z"
       style="fill:#7b624b;stroke-width:1px;stroke-linecap:butt"
       inkscape:connector-curvature="0" />
    <path
       style="font-style:normal;font-variant:normal;font-weight:normal;font-stretch:normal;font-size:medium;line-height:normal;font-family:sans-serif;text-indent:0;text-align:start;text-decoration:none;text-decoration-line:none;word-spacing:normal;text-transform:none;direction:ltr;block-progression:tb;writing-mode:lr-tb;baseline-shift:baseline;text-anchor:start;white-space:normal;fill:#534437;stroke-width:3.20000005;stroke-linecap:round"
       d="m 377.75473,259.30665 a 1.678,1.419 23.721 0 0 -1.397,1.485 c 0.136,0.989 0.19,3.572 0.184,5.775 -0.006,2.203 -0.054,4.10499 -0.054,4.10499 a 1.678,1.419 23.721 1 0 3.276,0.425 c 0,0 0.048,-1.92799 0.054,-4.16399 0.006,-2.236 -0.011,-4.701 -0.209,-6.141 a 1.678,1.419 23.721 0 0 -1.854,-1.485 z"
       id="path5022"
       inkscape:connector-curvature="0" />
    <ellipse
       style="fill:#454545;stroke-width:1px;stroke-linecap:butt;marker:none"
       id="ellipse5024"
       cx="189.3011"
       cy="435.79147"
       rx="7.1117349"
       ry="8.1542788"
       transform="matrix(0.86688467,-0.49850874,0.51317117,0.85828629,0,0)" />
    <path
       style="font-style:normal;font-variant:normal;font-weight:normal;font-stretch:normal;font-size:medium;line-height:normal;font-family:sans-serif;text-indent:0;text-align:start;text-decoration:none;text-decoration-line:none;word-spacing:normal;text-transform:none;direction:ltr;block-progression:tb;writing-mode:lr-tb;baseline-shift:baseline;text-anchor:start;white-space:normal;fill:#534437;stroke-width:3.20000005;stroke-linecap:round"
       d="m 378.40173,273.14064 a 1.678,1.419 23.721 0 0 -1.315,1.778 l 2.663,7.289 a 1.678,1.419 23.721 1 0 3.105,-0.588 l -2.663,-7.289 a 1.678,1.419 23.721 0 0 -1.789,-1.19 z"
       id="path5026"
       inkscape:connector-curvature="0" />
    <path
       style="font-style:normal;font-variant:normal;font-weight:normal;font-stretch:normal;font-size:medium;line-height:normal;font-family:sans-serif;text-indent:0;text-align:start;text-decoration:none;text-decoration-line:none;word-spacing:normal;text-transform:none;direction:ltr;block-progression:tb;writing-mode:lr-tb;baseline-shift:baseline;text-anchor:start;white-space:normal;fill:#534437;stroke-width:3.20000005;stroke-linecap:round"
       d="m 383.15973,283.05064 a 1.678,1.419 23.721 0 0 -1.008,2.368 l 3.861,3.925 a 1.678,1.419 23.721 1 0 2.342,-1.775 l -3.861,-3.925 a 1.678,1.419 23.721 0 0 -1.334,-0.593 z"
       id="path5028"
       inkscape:connector-curvature="0" />
    <path
       style="font-style:normal;font-variant:normal;font-weight:normal;font-stretch:normal;font-size:medium;line-height:normal;font-family:sans-serif;text-indent:0;text-align:start;text-decoration:none;text-decoration-line:none;word-spacing:normal;text-transform:none;direction:ltr;block-progression:tb;writing-mode:lr-tb;baseline-shift:baseline;text-anchor:start;white-space:normal;fill:#534437;stroke-width:3.20000005;stroke-linecap:round"
       d="m 380.53373,247.07265 a 1.678,1.419 23.721 0 0 -1.387,0.879 l -2.903,7.936 a 1.678,1.419 23.721 1 0 3.128,1.208 l 2.903,-7.936 a 1.678,1.419 23.721 0 0 -1.74,-2.087 z"
       id="path5030"
       inkscape:connector-curvature="0" />
    <path
       style="font-style:normal;font-variant:normal;font-weight:normal;font-stretch:normal;font-size:medium;line-height:normal;font-family:sans-serif;text-indent:0;text-align:start;text-decoration:none;text-decoration-line:none;word-spacing:normal;text-transform:none;direction:ltr;block-progression:tb;writing-mode:lr-tb;baseline-shift:baseline;text-anchor:start;white-space:normal;fill:#534437;stroke-width:3.20000005;stroke-linecap:round"
       d="m 393.77773,241.75365 a 1.678,1.419 23.721 0 0 -0.418,0.073 l -9.372,2.804 a 1.6780703,1.4190595 23.721 1 0 1.372,2.79 l 9.372,-2.804 a 1.678,1.419 23.721 0 0 -0.953,-2.863 z"
       id="path5032"
       inkscape:connector-curvature="0" />
    <path
       style="font-style:normal;font-variant:normal;font-weight:normal;font-stretch:normal;font-size:medium;line-height:normal;font-family:sans-serif;text-indent:0;text-align:start;text-decoration:none;text-decoration-line:none;word-spacing:normal;text-transform:none;direction:ltr;block-progression:tb;writing-mode:lr-tb;baseline-shift:baseline;text-anchor:start;white-space:normal;fill:#534437;stroke-width:3.20000005;stroke-linecap:round"
       d="m 396.90473,241.38365 a 1.6785443,1.4194603 23.721 0 0 0.402,2.929 l 9.134,0 a 1.6785443,1.4194603 23.721 1 0 -0.402,-2.929 l -9.134,0 z"
       id="path5034"
       inkscape:connector-curvature="0" />
    <path
       style="font-style:normal;font-variant:normal;font-weight:normal;font-stretch:normal;font-size:medium;line-height:normal;font-family:sans-serif;text-indent:0;text-align:start;text-decoration:none;text-decoration-line:none;word-spacing:normal;text-transform:none;direction:ltr;block-progression:tb;writing-mode:lr-tb;baseline-shift:baseline;text-anchor:start;white-space:normal;fill:#534437;stroke-width:3.20000005;stroke-linecap:round"
       d="m 408.99073,241.37765 a 1.678,1.419 23.721 0 0 -0.175,2.856 l 6.262,1.837 a 1.678,1.419 23.721 1 0 0.665,-2.772 l -6.264,-1.837 a 1.678,1.419 23.721 0 0 -0.488,-0.084 z"
       id="path5036"
       inkscape:connector-curvature="0" />
    <path
       style="font-style:normal;font-variant:normal;font-weight:normal;font-stretch:normal;font-size:medium;line-height:normal;font-family:sans-serif;text-indent:0;text-align:start;text-decoration:none;text-decoration-line:none;word-spacing:normal;text-transform:none;direction:ltr;block-progression:tb;writing-mode:lr-tb;baseline-shift:baseline;text-anchor:start;white-space:normal;fill:#534437;stroke-width:3;stroke-linecap:round"
       d="m 419.15873,271.55164 a 1.573,1.33 23.721 0 0 -1.354,0.934 l -1.615,6.354 a 1.573,1.33 23.721 1 0 3,0.913 l 1.617,-6.354 a 1.573,1.33 23.721 0 0 -1.647,-1.848 z"
       id="path5038"
       inkscape:connector-curvature="0" />
    <path
       style="font-style:normal;font-variant:normal;font-weight:normal;font-stretch:normal;font-size:medium;line-height:normal;font-family:sans-serif;text-indent:0;text-align:start;text-decoration:none;text-decoration-line:none;word-spacing:normal;text-transform:none;direction:ltr;block-progression:tb;writing-mode:lr-tb;baseline-shift:baseline;text-anchor:start;white-space:normal;fill:#534437;stroke-width:3.20000005;stroke-linecap:round"
       d="m 415.32073,280.62664 a 1.678,1.419 23.721 0 0 -0.826,0.269 l -5.507,3.737 a 1.6782727,1.4192306 23.721 1 0 2.179,2.411 l 5.505,-3.739 a 1.678,1.419 23.721 0 0 -1.351,-2.679 z"
       id="path5040"
       inkscape:connector-curvature="0" />
    <path
       style="font-style:normal;font-variant:normal;font-weight:normal;font-stretch:normal;font-size:medium;line-height:normal;font-family:sans-serif;text-indent:0;text-align:start;text-decoration:none;text-decoration-line:none;word-spacing:normal;text-transform:none;direction:ltr;block-progression:tb;writing-mode:lr-tb;baseline-shift:baseline;text-anchor:start;white-space:normal;fill:#534437;stroke-width:3.20000005;stroke-linecap:round"
       d="m 407.04773,285.49164 a 1.678,1.419 23.721 0 0 -0.418,0.076 l -8.568,2.616 a 1.678,1.419 23.721 1 0 1.391,2.784 l 8.566,-2.616 a 1.678,1.419 23.721 0 0 -0.971,-2.861 z"
       id="path5042"
       inkscape:connector-curvature="0" />
    <path
       style="font-style:normal;font-variant:normal;font-weight:normal;font-stretch:normal;font-size:medium;line-height:normal;font-family:sans-serif;text-indent:0;text-align:start;text-decoration:none;text-decoration-line:none;word-spacing:normal;text-transform:none;direction:ltr;block-progression:tb;writing-mode:lr-tb;baseline-shift:baseline;text-anchor:start;white-space:normal;fill:#534437;stroke-width:3.20000005;stroke-linecap:round"
       d="m 395.69973,288.48764 -4.623,0.002 a 1.678,1.419 23.721 1 0 0.404,2.927 l 4.621,-0.002 a 1.678,1.419 23.721 1 0 -0.402,-2.927 z"
       id="path5044"
       inkscape:connector-curvature="0" />
    <ellipse
       transform="matrix(0.86688467,-0.49850874,0.51317117,0.85828629,0,0)"
       ry="5.9140267"
       rx="5.1567321"
       cy="433.34229"
       cx="199.02017"
       id="ellipse5046"
       style="fill:#4f4f4f;stroke-width:1px;stroke-linecap:butt;marker:none" />
    <ellipse
       transform="matrix(0.86688467,-0.49850874,0.51317117,0.85828629,0,0)"
       ry="5.0543137"
       rx="4.4074974"
       cy="436.66516"
       cx="190.78658"
       id="ellipse5048"
       style="fill:#5a5957;stroke-width:1px;stroke-linecap:butt;marker:none" />
    <ellipse
       style="fill:#787878;stroke-width:1px;stroke-linecap:butt;marker:none"
       id="ellipse5050"
       cx="200.09708"
       cy="433.97507"
       rx="3.1967344"
       ry="3.665777"
       transform="matrix(0.86688467,-0.49850874,0.51317117,0.85828629,0,0)" />
    <ellipse
       transform="matrix(0.86688467,-0.49850874,0.51317117,0.85828629,0,0)"
       ry="8.1542788"
       rx="7.1117349"
       cy="423.14368"
       cx="219.60713"
       id="ellipse5052"
       style="fill:#4f4f4f;stroke-width:1px;stroke-linecap:butt;marker:none" />
    <ellipse
       style="fill:#787878;stroke-width:1px;stroke-linecap:butt;marker:none"
       id="ellipse5054"
       cx="222.10858"
       cy="424.18234"
       rx="4.4074974"
       ry="5.0543137"
       transform="matrix(0.86688467,-0.49850874,0.51317117,0.85828629,0,0)" />
    <path
       style="fill:#629ccb;stroke-width:1px;stroke-linecap:butt;stroke-opacity:1"
       d="m 401.71873,184.50165 c 0,0 55.783,-8.479 61.24,-9.084 5.457,-0.605 27.891,6.056 30.923,6.662 3.031,0.605 -6.063,27.86 -8.488,31.494 -2.425,3.633 -43.656,6.662 -48.507,7.267 -2.426,0.303 -16.069,-0.302 -22.814,-2.649 -8.685,-3.022 -10.839,-27.028 -12.354,-33.69 z"
       id="path3418"
       inkscape:connector-curvature="0" />
    <path
       style="fill:#5386b0;stroke-width:1px;stroke-linecap:butt;stroke-opacity:1"
       d="m 464.17173,175.38365 c -0.262,-0.008 -0.459,0.01 -0.683,0.018 -1.614,14.141 -3.084,30.082 -3.506,43.162 11.915,-1.316 24.124,-3.061 25.412,-4.991 2.425,-3.633 11.52,-30.888 8.488,-31.494 -2.842,-0.567 -22.738,-6.459 -29.711,-6.694 z"
       id="path4222"
       inkscape:connector-curvature="0" />
    <path
       style="fill:#2d4c65;stroke-width:1px;stroke-linecap:butt;stroke-opacity:1"
       d="m 461.71473,208.10265 c -11.102,0.157 -21.569,3.691 -34.529,6.076 -8.393,1.544 -13.56,1.637 -17.011,0.815 1.13,1.545 2.418,2.682 3.899,3.197 6.745,2.346 20.388,2.951 22.813,2.648 4.85,-0.605 46.082,-3.633 48.507,-7.267 0.01,-0.014 0.023,-0.045 0.033,-0.061 -8.78,-4.14 -16.386,-5.512 -23.713,-5.408 z"
       id="path4220"
       inkscape:connector-curvature="0" />
    <path
       style="fill:#263f54;stroke-width:1px;stroke-linecap:butt;stroke-opacity:1"
       d="m 408.38773,189.95265 c 0,0 2.122,18.472 3.941,19.986 1.819,1.514 38.805,-5.45 41.837,-6.056 3.031,-0.605 3.941,-18.169 3.941,-21.198 0,-3.028 -51.236,4.845 -49.72,7.267 z"
       id="path4230"
       inkscape:connector-curvature="0" />
    <path
       style="fill:#3c5265;stroke-width:1px;stroke-linecap:butt;stroke-opacity:1"
       d="m 458.07773,183.88165 c -13.139,0.568 -45.44,5.954 -44.231,7.887 0,0 1.52,13.209 3.091,18.189 10.399,-0.992 34.79,-5.589 37.229,-6.076 2.773,-0.554 3.761,-15.172 3.91,-20 z"
       id="path4232"
       inkscape:connector-curvature="0" />
    <path
       style="fill:#713838;stroke-width:1px;stroke-linecap:butt;stroke-opacity:1"
       d="m 457.76773,186.85265 c -7.294,0.118 -26.964,3.864 -43.434,8.719 0.198,1.504 0.423,3.132 0.717,5.032 14.368,-2.83 32.39,-3.695 41.718,-3.031 0.616,-3.459 0.974,-7.601 1.16,-10.716 -0.06,4.8e-4 -0.099,-0.004 -0.162,-0.003 z"
       id="path4237"
       inkscape:connector-curvature="0" />
    <ellipse
       style="fill:#c74b0d;stroke-width:0.5;stroke-linecap:round;stroke-linejoin:round;marker:none"
       id="path4242"
       cx="380.04776"
       cy="271.7522"
       rx="3.4087944"
       ry="2.875983"
       transform="matrix(0.98234732,-0.18706614,0.18706614,0.98234732,0,0)" />
    <ellipse
       transform="matrix(0.98234732,-0.18706614,0.18706614,0.98234732,0,0)"
       ry="5.8819194"
       rx="6.9725337"
       cy="272.34201"
       cx="391.43872"
       id="ellipse4244"
       style="fill:#c74b0d;stroke-width:0.5;stroke-linecap:round;stroke-linejoin:round;marker:none" />
    <path
       style="fill:#629ccb;stroke-width:1px;stroke-linecap:butt"
       d="m 385.59773,234.81565 c -4.721,3.369 5.396,43.12299 6.745,47.83999 1.349,4.716 58.012,4.042 62.06,4.042 4.047,0 42.497,-6.064 45.87,-6.738 3.372,-0.673 6.071,-44.47099 2.698,-45.81899 -3.372,-1.347 -45.195,-6.064 -51.941,-5.39 -6.745,0.673 -63.409,3.369 -65.432,6.064 z"
       id="path4250"
       inkscape:connector-curvature="0" />
    <path
       style="fill:#446987;stroke-width:1px;stroke-linecap:butt"
       d="m 452.68873,228.68565 c -0.677,0.002 -1.236,0.024 -1.658,0.067 -6.745,0.673 -63.409,3.368 -65.433,6.063 -0.275,0.196 -0.495,0.528 -0.674,0.958 24.849,0.88 84.412,4.517 119.335,19.473 0.533,-10.485 0.297,-20.473 -1.285,-21.105 -3.162,-1.263 -40.117,-5.488 -50.283,-5.456 z"
       id="path4268"
       inkscape:connector-curvature="0" />
    <path
       style="fill:#baba24;stroke-width:1px;stroke-linecap:butt;stroke-opacity:1"
       d="m 384.36773,240.79765 c 0.065,2.969 0.52,6.775 1.175,10.88 29.728,7.473 73.581,12.112 73.581,12.112 0,1e-5 6.408,-2.022 1.348,-10.781 -4.323,-7.485 -51.178,-9.315 -76.106,-12.211 z"
       id="path4327"
       inkscape:connector-curvature="0" />
    <path
       style="fill:#3b5a74;stroke-width:1px;stroke-linecap:butt"
       d="m 447.33773,260.11965 c 3.467,8.02 4.379,14.76499 3.649,18.04599 -0.729,3.281 -2.189,6.744 -5.657,7.109 -3.467,0.364 -4.379,-17.49999 -4.379,-17.49999 z"
       id="path4443"
       inkscape:connector-curvature="0" />
    <path
       style="font-style:normal;font-variant:normal;font-weight:normal;font-stretch:normal;font-size:medium;line-height:normal;font-family:sans-serif;text-indent:0;text-align:start;text-decoration:none;text-decoration-line:none;word-spacing:normal;text-transform:none;direction:ltr;block-progression:tb;writing-mode:lr-tb;baseline-shift:baseline;text-anchor:start;white-space:normal;fill:#b03f29;stroke-width:5.9000001;stroke-linecap:butt"
       d="m 384.36773,240.79765 c 0.065,2.969 0.52,6.775 1.175,10.88 2.923,0.734 6.008,1.433 9.15,2.112 -1.693,-4.169 -3.231,-8.345 -4.516,-12.372 -2.027,-0.202 -3.99,-0.408 -5.809,-0.619 z m 15.436,1.511 c 0.359,0.749 0.722,1.483 1.076,2.257 1.711,3.74 3.379,7.614 4.956,11.462 3.607,0.674 7.223,1.314 10.799,1.909 -1.908,-4.861 -3.982,-9.833 -6.165,-14.678 -3.655,-0.323 -7.18,-0.641 -10.667,-0.951 z m 18.58,1.662 c 1.11,5.373 1.859,10.242 2.323,14.632 3.38,0.541 6.658,1.039 9.821,1.501 -0.425,-4.552 -1.147,-9.59 -2.23,-15.121 -3.237,-0.356 -6.553,-0.695 -9.914,-1.012 z m 15.133,1.622 c 1.617,5.247 3.119,10.124 4.801,15.603 3.868,0.527 7.295,0.977 10.27,1.347 -1.58,-5.153 -3.149,-10.253 -4.751,-15.455 -3.174,-0.544 -6.639,-1.041 -10.32,-1.496 z m 16.471,2.696 c 1.128,5.104 2.197,10.076 3.182,14.816 3.142,0.368 5.954,0.684 5.954,0.684 0,10e-6 2.515,-0.796 3.148,-3.545 -0.439,-2.098 -0.882,-4.198 -1.35,-6.378 -0.147,-0.284 -0.275,-0.557 -0.449,-0.857 -1.098,-1.902 -4.952,-3.437 -10.486,-4.719 z"
       id="path4332"
       inkscape:connector-curvature="0" />
    <path
       style="fill:#5386b0;stroke-width:1px;stroke-linecap:butt"
       d="m 503.57073,234.97565 c -16.781,2.125 -41.641,6.671 -45.12,7.251 -3.359,0.559 -3.008,29.22399 -3.174,44.41999 6.821,-0.524 41.786,-6.045 44.999,-6.687 3.146,-0.628 5.704,-38.76699 3.296,-44.98399 z"
       id="path4266"
       inkscape:connector-curvature="0" />
    <path
       style="fill:#2e475c;stroke-width:1px;stroke-linecap:butt;marker:none"
       d="m 452.68873,228.68565 c -0.677,0.002 -1.236,0.024 -1.658,0.067 -3.769,0.376 -23.025,1.393 -39.726,2.68 a 32.379,5.053 0 0 0 32.306,4.731 32.379,5.053 0 0 0 32.377,-5.053 32.379,5.053 0 0 0 -0.335,-0.686 c -9.387,-0.977 -18.626,-1.753 -22.964,-1.739 z"
       id="path4304"
       inkscape:connector-curvature="0" />
    <path
       style="fill:#454b50;stroke-width:1px;stroke-linecap:butt;stroke-opacity:1"
       d="m 442.59873,215.61265 c -1.011,2.358 -5.733,10.107 -5.059,12.128 0.674,2.021 16.864,2.695 17.538,1.347 0.674,-1.347 0.674,-11.454 0.674,-12.802 0,-1.347 -9.781,-2.695 -13.154,-0.673 z"
       id="path4320"
       inkscape:connector-curvature="0" />
    <path
       style="fill:#3b5163;stroke-width:1px;stroke-linecap:butt;stroke-opacity:1"
       d="m 433.49173,225.04565 c -3.71,0.673 -3.372,5.727 -3.372,8.085 0,2.358 13.491,3.369 17.875,3.369 4.384,0 16.864,-2.358 17.875,-3.705 1.011,-1.347 -0.674,-8.422 -3.372,-8.422 -2.698,0 -29.006,0.673 -29.006,0.673 z"
       id="path4318"
       inkscape:connector-curvature="0" />
    <path
       style="fill:#3b4044;stroke-width:1px;stroke-linecap:butt;stroke-opacity:1"
       d="m 448.24373,214.58165 c -2.213,-0.011 -4.38,0.273 -5.645,1.031 -0.068,0.16 -0.19,0.398 -0.29,0.604 3.059,3.073 7.607,5.233 13.37,6.009 0.07,-2.693 0.074,-5.305 0.074,-5.94 0,-0.842 -3.819,-1.685 -7.508,-1.704 z"
       id="path4322"
       inkscape:connector-curvature="0" />
    <path
       style="fill:#3b5a74;stroke-width:1px;stroke-linecap:butt"
       d="m 393.34473,245.14165 c 0,0 -3.89,4.219 -7.283,9.642 1.593,8.997 3.901,18.66699 5.276,24.06099 4.391,0.703 6.557,-2.822 6.91,-4.057 0.516,-1.804 -2.065,-26.29399 -4.904,-29.64599 z"
       id="path4404"
       inkscape:connector-curvature="0" />
    <path
       style="fill:#5386b0;stroke-width:1px;stroke-linecap:butt"
       d="m 367.38473,241.55365 c -4.047,0.673 -10.118,-0.673 -10.118,2.695 0,3.369 4.721,32.34199 7.42,35.71199 2.698,3.369 26.982,-4.042 29.68,-6.064 2.698,-2.021 2.023,-25.60399 0.674,-28.97299 -1.349,-3.369 -22.26,-4.042 -27.657,-3.369 z"
       id="path4343"
       inkscape:connector-curvature="0" />
    <path
       style="fill:#5386b0;stroke-width:1px;stroke-linecap:butt"
       d="m 445.70373,249.04665 c 4.48,4.465 2.663,17.209 3.734,22.32699 1.077,5.151 -2.987,6.698 -5.227,10.419 -2.24,3.721 -10.455,2.232 -11.949,-4.465 -1.493,-6.698 -4.48,-31.25799 -4.48,-35.72399 0,-4.465 4.48,-3.721 8.961,-0.744 4.48,2.977 8.961,8.186 8.961,8.186 z"
       id="path4345"
       inkscape:connector-curvature="0" />
    <path
       style="fill:#446987;stroke-width:1px;stroke-linecap:butt"
       d="m 373.79373,241.32265 c -2.74,-0.021 -5.06,0.062 -6.409,0.23 -4.047,0.673 -10.117,-0.674 -10.117,2.694 0,0.221 0.022,0.567 0.061,0.997 12.393,-2.101 24.943,-0.924 37.643,-0.442 -1.342,-2.437 -13.09,-3.417 -21.178,-3.479 z"
       id="path4366"
       inkscape:connector-curvature="0" />
    <path
       style="fill:#629ccb;stroke-width:1px;stroke-linecap:butt"
       d="m 363.70373,241.79165 c -3.278,0.05 -6.437,0.027 -6.437,2.456 0,3.369 4.721,32.34199 7.419,35.71099 0.741,0.925 3.139,1.021 6.245,0.655 1.984,-8.04 -4.732,-30.04999 -4.943,-33.41099 -0.112,-1.793 -0.86,-3.83 -2.284,-5.412 z"
       id="path4368"
       inkscape:connector-curvature="0" />
    <path
       style="fill:#629ccb;stroke-width:1px;stroke-linecap:butt"
       d="m 430.58173,238.43965 c -1.68,0 -2.802,0.931 -2.802,3.163 0,4.465 2.987,29.02599 4.481,35.72399 1.02,4.577 5.18,6.719 8.427,6.43 -0.276,-7.162 -1.995,-16.17799 -3.208,-25.21099 -1.586,-11.811 -3.174,-17.504 -5.66,-19.96 -0.436,-0.092 -0.852,-0.147 -1.237,-0.147 z"
       id="path4423"
       inkscape:connector-curvature="0" />
    <path
       style="fill:#7e634a;stroke-width:1px;stroke-linecap:butt"
       d="m 472.06273,296.18564 1.29,3.093 c 0,0 22.453,1.031 24.002,1.031 1.548,0 5.419,-1.289 5.677,-1.804 0.258,-0.515 -2.838,-4.382 -2.838,-4.382 z"
       id="path4585"
       inkscape:connector-curvature="0" />
    <path
       style="fill:#7e634a;stroke-width:1px;stroke-linecap:butt"
       d="m 498.90373,300.31064 c 6.194,-1.546 16.001,-2.835 15.485,-4.64 -0.516,-1.804 -4.645,-5.156 -4.645,-5.156 l -12.904,3.609 z"
       id="path4589"
       inkscape:connector-curvature="0" />
    <path
       style="fill:#765d46;stroke-width:1px;stroke-linecap:butt"
       d="m 512.84073,295.41264 2.838,-0.257 c 0,0 5.677,-3.093 6.452,-4.124 0.774,-1.031 -0.258,-2.578 -0.258,-2.578 l -11.355,-3.609 -2.322,6.96 z"
       id="path4591"
       inkscape:connector-curvature="0" />
    <path
       style="fill:#645342;stroke-width:1px;stroke-linecap:butt"
       d="m 516.71173,277.62364 c 0,0 8.516,1.804 9.549,2.062 1.032,0.257 -2.064,7.734 -2.322,8.765 -0.258,1.031 -2.322,2.062 -10.065,-2.062 -7.742,-4.124 2.838,-8.765 2.838,-8.765 z"
       id="path4596"
       inkscape:connector-curvature="0" />
    <path
       style="fill:#5d4d3e;stroke-width:1px;stroke-linecap:butt"
       d="m 521.35773,265.24965 6.968,0.257 c 0,0 0.516,10.31199 -0.258,12.11599 -0.774,1.804 -12.13,-1.289 -12.13,-1.289 z"
       id="path4594"
       inkscape:connector-curvature="0" />
    <path
       id="path4523"
       d="m 500.40173,262.77165 c -3.089,-4.95 -4.087,-12.062 -3.118,-13.954 0.969,-1.892 26.577,1.922 28.974,3.007 2.397,1.084 2.695,11.21 1.843,12.6 -0.852,1.39 -20.157,0.093 -27.699,-1.653 z"
       style="fill:#5d4d3e;stroke-width:1px;stroke-linecap:butt"
       inkscape:connector-curvature="0" />
    <path
       style="fill:#6c5845;stroke-width:1px;stroke-linecap:butt"
       d="m 501.53973,244.44265 c 3.102,-1.276 7.117,-0.729 12.592,1.093 5.474,1.822 10.219,3.828 10.949,4.192 0.729,0.364 2.007,2.916 1.094,3.098 -0.912,0.182 -8.577,-2.187 -8.577,-2.187 z"
       id="path4531"
       inkscape:connector-curvature="0" />
    <path
       style="fill:#706c69;stroke-width:1px;stroke-linecap:butt;stroke-opacity:1"
       d="m 484.74973,254.10465 c 7.299,-3.281 30.294,-6.562 35.404,0.364 5.109,6.927 5.474,16.04099 4.014,21.14499 -1.459,5.104 -2.919,13.125 -9.489,16.406 -6.569,3.281 -25.549,10.937 -31.024,3.281 -5.474,-7.656 -8.759,-25.51999 1.094,-41.19799 z"
       id="path4527"
       inkscape:connector-curvature="0" />
    <ellipse
       style="fill:#4f4f4f;stroke-width:1px;stroke-linecap:butt;marker:none"
       id="path4577"
       cx="454.67023"
       cy="399.50919"
       rx="9.4786777"
       ry="10.308123"
       transform="matrix(0.95694018,-0.2902852,0.15205718,0.9883717,0,0)" />
    <path
       style="fill:#6d5845;stroke-width:1px;stroke-linecap:butt"
       d="m 483.65473,244.62465 c 0,0 0,-0.546 2.007,-1.458 2.007,-0.911 10.219,0 12.957,0.364 2.737,0.364 18.979,4.192 19.709,5.104 0.729,0.911 0.912,2.734 0.912,2.734 0,0 -9.672,0 -11.679,0 -2.007,0 -23.907,-6.744 -23.907,-6.744 z"
       id="path4529"
       inkscape:connector-curvature="0" />
    <path
       style="fill:#765d46;stroke-width:1px;stroke-linecap:butt;stroke-opacity:1"
       d="m 466.86573,250.09365 0.729,-3.645 c 0,0 11.314,-3.645 16.059,-2.916 4.744,0.729 21.169,4.01 22.994,5.104 1.824,1.093 0.364,4.01 -1.094,4.01 -1.459,0 -12.044,2.916 -13.869,2.916 -1.824,0 -22.264,-4.739 -24.819,-5.468 z"
       id="path4463"
       inkscape:connector-curvature="0" />
    <path
       style="fill:#524941;stroke-width:1px;stroke-linecap:butt;stroke-opacity:1"
       d="m 463.71873,260.12065 c -1.526,5.907 -3.624,17.53199 -0.381,25.15499 3.243,7.622 20.032,2.286 20.032,2.286 0,0 0.763,-29.91999 -0.19,-29.91999 -0.953,0 -19.46,2.477 -19.46,2.477 z"
       id="path4732"
       inkscape:connector-curvature="0" />
    <path
       style="fill:#83674e;stroke-width:1px;stroke-linecap:butt"
       d="m 459.56573,264.31265 c -1.459,3.645 -0.729,11.66599 -0.729,13.48899 0,1.822 27.009,3.645 28.469,2.552 1.459,-1.093 2.919,-10.93699 1.459,-12.39499 -1.459,-1.458 -28.469,-1.822 -29.199,-3.645 z"
       id="path4465"
       inkscape:connector-curvature="0" />
    <path
       style="fill:#a68669;stroke-width:1px;stroke-linecap:butt;stroke-opacity:1"
       d="m 467.47373,247.05165 -0.609,3.042 c 2.554,0.729 22.995,5.468 24.82,5.468 0.665,0 2.592,-0.421 4.719,-0.913 -3.516,-4.044 -19.688,-7.092 -28.93,-7.597 z"
       id="path4469"
       inkscape:connector-curvature="0" />
    <path
       style="fill:#7e634a;stroke-width:1px;stroke-linecap:butt"
       d="m 465.86873,249.52365 c -4.129,4.124 -6.71,10.827 -6.194,12.89 0.516,2.062 26.325,4.124 28.906,3.609 2.58,-0.515 5.161,-10.312 4.645,-11.858 -0.516,-1.546 -19.614,-4.64 -27.357,-4.64 z"
       id="path4459"
       inkscape:connector-curvature="0" />
    <ellipse
       transform="matrix(0.95694018,-0.2902852,0.15205718,0.9883717,0,0)"
       ry="6.3895965"
       rx="5.8752222"
       cy="400.61377"
       cx="456.64929"
       id="ellipse4579"
       style="fill:#787878;stroke-width:1px;stroke-linecap:butt;marker:none" />
    <path
       style="fill:#775f49;stroke-width:1px;stroke-linecap:butt"
       d="m 465.35273,289.22464 c -1.032,1.289 -1.29,2.32 -1.29,2.32 0,0 2.064,3.351 4.129,4.898 2.064,1.546 24.002,2.578 25.808,2.32 1.806,-0.257 -1.548,-5.671 -2.838,-6.702 -1.29,-1.031 -25.808,-2.835 -25.808,-2.835 z"
       id="path4583"
       inkscape:connector-curvature="0" />
    <path
       style="fill:#7b624b;stroke-width:1px;stroke-linecap:butt"
       d="m 460.44873,278.91264 c 0,0 -1.032,0.773 -1.032,1.804 0,1.031 2.322,8.507 3.355,9.28 1.032,0.773 25.034,2.578 26.067,2.32 1.032,-0.257 1.29,-1.546 1.29,-1.546 0,0 -1.032,-8.765 -2.064,-9.28 -1.032,-0.515 -20.389,0.257 -27.615,-2.578 z"
       id="path4581"
       inkscape:connector-curvature="0" />
    <path
       id="path4683"
       d="m 488.57673,267.13165 a 1.526,1.524 0 0 0 -1.503,1.546 c 0,1.03 -0.281,3.71899 -0.572,6.01299 -0.29,2.293 -0.581,4.275 -0.581,4.275 a 1.5261289,1.5241287 0 1 0 3.02,0.442 c 0,0 0.294,-2.008 0.588,-4.336 0.294,-2.328 0.596,-4.89499 0.596,-6.39399 a 1.526,1.524 0 0 0 -1.548,-1.546 z"
       style="font-style:normal;font-variant:normal;font-weight:normal;font-stretch:normal;font-size:medium;line-height:normal;font-family:sans-serif;text-indent:0;text-align:start;text-decoration:none;text-decoration-line:none;word-spacing:normal;text-transform:none;direction:ltr;block-progression:tb;writing-mode:lr-tb;baseline-shift:baseline;text-anchor:start;white-space:normal;fill:#534437;stroke-width:3.20000005;stroke-linecap:round"
       inkscape:connector-curvature="0" />
    <ellipse
       transform="matrix(0.86056773,-0.50933602,0.38326493,0.92363845,0,0)"
       ry="7.8875442"
       rx="7.2552109"
       cy="505.3295"
       cx="350.38913"
       id="ellipse4734"
       style="fill:#4f4f4f;stroke-width:1px;stroke-linecap:butt;marker:none" />
    <path
       id="path4694"
       d="m 487.39973,281.53464 a 1.526,1.524 0 0 0 -1.464,1.851 l 1.559,7.589 a 1.5260757,1.5240756 0 1 0 2.99,-0.612 l -1.559,-7.589 a 1.526,1.524 0 0 0 -1.526,-1.239 z"
       style="font-style:normal;font-variant:normal;font-weight:normal;font-stretch:normal;font-size:medium;line-height:normal;font-family:sans-serif;text-indent:0;text-align:start;text-decoration:none;text-decoration-line:none;word-spacing:normal;text-transform:none;direction:ltr;block-progression:tb;writing-mode:lr-tb;baseline-shift:baseline;text-anchor:start;white-space:normal;fill:#534437;stroke-width:3.20000005;stroke-linecap:round"
       inkscape:connector-curvature="0" />
    <path
       id="path4696"
       d="m 490.58573,291.85264 a 1.526,1.524 0 0 0 -1.252,2.466 l 3.117,4.087 a 1.526,1.524 0 1 0 2.427,-1.848 l -3.117,-4.087 a 1.526,1.524 0 0 0 -1.175,-0.617 z"
       style="font-style:normal;font-variant:normal;font-weight:normal;font-stretch:normal;font-size:medium;line-height:normal;font-family:sans-serif;text-indent:0;text-align:start;text-decoration:none;text-decoration-line:none;word-spacing:normal;text-transform:none;direction:ltr;block-progression:tb;writing-mode:lr-tb;baseline-shift:baseline;text-anchor:start;white-space:normal;fill:#534437;stroke-width:3.20000005;stroke-linecap:round"
       inkscape:connector-curvature="0" />
    <path
       id="path4698"
       d="m 492.76373,254.39365 a 1.526,1.524 0 0 0 -1.416,0.915 l -3.748,8.263 a 1.526,1.524 0 1 0 2.779,1.258 l 3.748,-8.263 a 1.526,1.524 0 0 0 -1.363,-2.173 z"
       style="font-style:normal;font-variant:normal;font-weight:normal;font-stretch:normal;font-size:medium;line-height:normal;font-family:sans-serif;text-indent:0;text-align:start;text-decoration:none;text-decoration-line:none;word-spacing:normal;text-transform:none;direction:ltr;block-progression:tb;writing-mode:lr-tb;baseline-shift:baseline;text-anchor:start;white-space:normal;fill:#534437;stroke-width:3.20000005;stroke-linecap:round"
       inkscape:connector-curvature="0" />
    <path
       id="path4700"
       d="m 505.87873,248.85465 a 1.526,1.524 0 0 0 -0.402,0.076 l -9.157,2.92 a 1.5264762,1.5244756 0 1 0 0.927,2.905 l 9.157,-2.92 a 1.526,1.524 0 0 0 -0.525,-2.981 z"
       style="font-style:normal;font-variant:normal;font-weight:normal;font-stretch:normal;font-size:medium;line-height:normal;font-family:sans-serif;text-indent:0;text-align:start;text-decoration:none;text-decoration-line:none;word-spacing:normal;text-transform:none;direction:ltr;block-progression:tb;writing-mode:lr-tb;baseline-shift:baseline;text-anchor:start;white-space:normal;fill:#534437;stroke-width:3.20000005;stroke-linecap:round"
       inkscape:connector-curvature="0" />
    <path
       id="path4702"
       d="m 508.86173,248.46965 a 1.526,1.525 0 1 0 0,3.05 l 8.572,0 a 1.526,1.525 0 0 0 0,-3.05 l -8.572,0 z"
       style="font-style:normal;font-variant:normal;font-weight:normal;font-stretch:normal;font-size:medium;line-height:normal;font-family:sans-serif;text-indent:0;text-align:start;text-decoration:none;text-decoration-line:none;word-spacing:normal;text-transform:none;direction:ltr;block-progression:tb;writing-mode:lr-tb;baseline-shift:baseline;text-anchor:start;white-space:normal;fill:#534437;stroke-width:3.20000005;stroke-linecap:round"
       inkscape:connector-curvature="0" />
    <path
       id="path4704"
       d="m 520.20573,248.46365 a 1.526,1.524 0 0 0 -0.532,2.974 l 5.64,1.913 a 1.526,1.524 0 1 0 0.981,-2.886 l -5.641,-1.913 a 1.526,1.524 0 0 0 -0.447,-0.087 z"
       style="font-style:normal;font-variant:normal;font-weight:normal;font-stretch:normal;font-size:medium;line-height:normal;font-family:sans-serif;text-indent:0;text-align:start;text-decoration:none;text-decoration-line:none;word-spacing:normal;text-transform:none;direction:ltr;block-progression:tb;writing-mode:lr-tb;baseline-shift:baseline;text-anchor:start;white-space:normal;fill:#534437;stroke-width:3.20000005;stroke-linecap:round"
       inkscape:connector-curvature="0" />
    <path
       id="path4710"
       d="m 525.85473,279.88064 a 1.431,1.429 0 0 0 -1.391,0.973 l -2.336,6.616 a 1.431,1.429 0 1 0 2.697,0.951 l 2.338,-6.616 a 1.431,1.429 0 0 0 -1.308,-1.924 z"
       style="font-style:normal;font-variant:normal;font-weight:normal;font-stretch:normal;font-size:medium;line-height:normal;font-family:sans-serif;text-indent:0;text-align:start;text-decoration:none;text-decoration-line:none;word-spacing:normal;text-transform:none;direction:ltr;block-progression:tb;writing-mode:lr-tb;baseline-shift:baseline;text-anchor:start;white-space:normal;fill:#534437;stroke-width:3;stroke-linecap:round"
       inkscape:connector-curvature="0" />
    <path
       id="path4712"
       d="m 521.08073,289.32964 a 1.526,1.524 0 0 0 -0.81,0.281 l -5.651,3.891 a 1.5260342,1.5250341 0 1 0 1.734,2.51 l 5.649,-3.893 a 1.526,1.524 0 0 0 -0.922,-2.789 z"
       style="font-style:normal;font-variant:normal;font-weight:normal;font-stretch:normal;font-size:medium;line-height:normal;font-family:sans-serif;text-indent:0;text-align:start;text-decoration:none;text-decoration-line:none;word-spacing:normal;text-transform:none;direction:ltr;block-progression:tb;writing-mode:lr-tb;baseline-shift:baseline;text-anchor:start;white-space:normal;fill:#534437;stroke-width:3.20000005;stroke-linecap:round"
       inkscape:connector-curvature="0" />
    <path
       id="path4714"
       d="m 512.68873,294.39564 a 1.526,1.524 0 0 0 -0.402,0.08 l -8.379,2.724 a 1.5265312,1.5245305 0 1 0 0.946,2.899 l 8.377,-2.724 a 1.526,1.524 0 0 0 -0.542,-2.979 z"
       style="font-style:normal;font-variant:normal;font-weight:normal;font-stretch:normal;font-size:medium;line-height:normal;font-family:sans-serif;text-indent:0;text-align:start;text-decoration:none;text-decoration-line:none;word-spacing:normal;text-transform:none;direction:ltr;block-progression:tb;writing-mode:lr-tb;baseline-shift:baseline;text-anchor:start;white-space:normal;fill:#534437;stroke-width:3.20000005;stroke-linecap:round"
       inkscape:connector-curvature="0" />
    <path
       id="path4716"
       d="m 501.65273,297.51464 -4.339,0.002 a 1.5260003,1.5240003 0 1 0 0.002,3.048 l 4.337,-0.002 a 1.526,1.524 0 0 0 0,-3.048 z"
       style="font-style:normal;font-variant:normal;font-weight:normal;font-stretch:normal;font-size:medium;line-height:normal;font-family:sans-serif;text-indent:0;text-align:start;text-decoration:none;text-decoration-line:none;word-spacing:normal;text-transform:none;direction:ltr;block-progression:tb;writing-mode:lr-tb;baseline-shift:baseline;text-anchor:start;white-space:normal;fill:#534437;stroke-width:3.20000005;stroke-linecap:round"
       inkscape:connector-curvature="0" />
    <ellipse
       style="fill:#4f4f4f;stroke-width:1px;stroke-linecap:butt;marker:none"
       id="ellipse4738"
       cx="360.3046"
       cy="502.96014"
       rx="5.2615266"
       ry="5.7200432"
       transform="matrix(0.86056773,-0.50933602,0.38326493,0.92363845,0,0)" />
    <ellipse
       style="fill:#787878;stroke-width:1px;stroke-linecap:butt;marker:none"
       id="ellipse4736"
       cx="351.90411"
       cy="506.17493"
       rx="4.4970312"
       ry="4.8886185"
       transform="matrix(0.86056773,-0.50933602,0.38326493,0.92363845,0,0)" />
    <ellipse
       transform="matrix(0.86056773,-0.50933602,0.38326493,0.92363845,0,0)"
       ry="3.5455475"
       rx="3.2608473"
       cy="503.5737"
       cx="361.40384"
       id="ellipse4740"
       style="fill:#787878;stroke-width:1px;stroke-linecap:butt;marker:none" />
    <ellipse
       style="fill:#4f4f4f;stroke-width:1px;stroke-linecap:butt;marker:none"
       id="ellipse4742"
       cx="381.31073"
       cy="493.09695"
       rx="7.2552109"
       ry="7.8875442"
       transform="matrix(0.86056773,-0.50933602,0.38326493,0.92363845,0,0)" />
    <ellipse
       transform="matrix(0.86056773,-0.50933602,0.38326493,0.92363845,0,0)"
       ry="4.8886185"
       rx="4.4970312"
       cy="494.10028"
       cx="383.86304"
       id="ellipse4744"
       style="fill:#787878;stroke-width:1px;stroke-linecap:butt;marker:none" />
  </g>
  <g
     id="layer1-3"
     transform="matrix(2.4120749,0.65787259,-0.65787259,2.4120749,136.88221,299.20262)">
    <rect
       style="display:inline;overflow:visible;visibility:visible;opacity:1;fill:#f9cdcd;fill-opacity:1;fill-rule:evenodd;stroke:#ffffff;stroke-width:7;stroke-linecap:round;stroke-linejoin:miter;stroke-miterlimit:4;stroke-dasharray:none;stroke-dashoffset:0;stroke-opacity:1;marker:none;enable-background:accumulate"
       id="r2393-0"
       y="4"
       x="4"
       ry="2.5"
       height="40"
       width="40" />
    <path
       style="display:inline;overflow:visible;visibility:visible;opacity:1;fill:#e09090;fill-opacity:1;fill-rule:evenodd;stroke:none;marker:none;enable-background:accumulate"
       id="r2383-8"
       d="M 24.28,5 C 23.66,5 23.06,5.24 22.59,5.71 L 5.68,22.59 c -0.94,0.94 -0.94,2.44 0,3.37 l 15.6,15.6 c 0.93,0.94 2.43,0.94 3.37,0 L 41.53,24.65 c 0.93,-0.94 0.93,-2.44 0,-3.37 L 25.96,5.71 C 25.49,5.24 24.89,5 24.28,5 Z"
       inkscape:connector-curvature="0" />
    <g
       id="g3239">
      <path
         style="display:inline;overflow:visible;visibility:visible;fill:#333333;fill-opacity:1;fill-rule:evenodd;stroke:none;marker:none;enable-background:accumulate"
         id="p3242-9"
         d="m 39.16,5.56 c -4.53,0 -8.22,3.69 -8.22,8.22 0,4.52 3.69,8.18 8.22,8.18 4.52,0 8.19,-3.66 8.18,-8.18 0.01,-4.53 -3.66,-8.22 -8.18,-8.22 z"
         inkscape:connector-curvature="0" />
      <path
         style="display:inline;overflow:visible;visibility:visible;fill:#ffffff;fill-opacity:1;fill-rule:evenodd;stroke:#212121;stroke-width:0.5;stroke-linecap:round;stroke-linejoin:round;stroke-miterlimit:4;stroke-dasharray:none;stroke-dashoffset:0;stroke-opacity:1;marker:none;enable-background:accumulate"
         id="p3209"
         d="m 39.09,9.06 c -2.35,0 -4.26,1.68 -4.71,3.9 l -1.75,0 c -0.25,0 -0.47,0.17 -0.54,0.41 -0.06,0.24 0.04,0.51 0.25,0.63 l 2.72,1.56 c 0.17,0.09 0.36,0.09 0.53,0 L 38.31,14 c 0.22,-0.12 0.32,-0.39 0.25,-0.63 -0.06,-0.24 -0.28,-0.41 -0.53,-0.41 l -1.44,0 c 0.39,-1.02 1.33,-1.75 2.5,-1.75 0.76,0 1.42,0.29 1.91,0.79 l 0.03,0 c 0.27,0.29 0.68,0.43 1.06,0.34 0.4,-0.09 0.69,-0.42 0.79,-0.81 0.08,-0.38 -0.05,-0.77 -0.35,-1.03 l 0.03,-0.04 c -0.01,-0.01 -0.05,0.01 -0.06,0 -0.88,-0.86 -2.08,-1.4 -3.41,-1.4 z m 3.72,3.06 c -0.07,0.01 -0.15,0.05 -0.22,0.09 l -2.71,1.57 c -0.22,0.11 -0.32,0.35 -0.25,0.59 0.06,0.24 0.28,0.41 0.53,0.41 l 1.47,0 c -0.36,1.07 -1.33,1.87 -2.54,1.87 -0.75,0 -1.41,-0.32 -1.9,-0.81 l -0.03,0.03 c -0.27,-0.29 -0.66,-0.43 -1.03,-0.34 -0.4,0.08 -0.72,0.36 -0.82,0.78 -0.09,0.38 0.05,0.79 0.35,1.06 l -0.03,0.03 c 0.01,0.01 0.04,-0.01 0.06,0 0.88,0.87 2.08,1.41 3.4,1.41 2.39,0 4.33,-1.77 4.75,-4.03 l 1.72,0 c 0.25,0 0.47,-0.17 0.53,-0.41 0.07,-0.24 -0.03,-0.48 -0.25,-0.59 l -2.71,-1.57 c -0.1,-0.05 -0.21,-0.1 -0.32,-0.09 z"
         inkscape:connector-curvature="0" />
    </g>
  </g>
  <g
     id="g4327"
     transform="matrix(2.3855308,0,0,2.3855308,505.45459,288.82299)">
    <rect
       style="display:inline;overflow:visible;visibility:visible;fill:#e6e7ca;fill-opacity:1;fill-rule:evenodd;stroke:#ffffff;stroke-width:4;stroke-linecap:round;stroke-linejoin:miter;stroke-miterlimit:4;stroke-dasharray:none;stroke-dashoffset:0;stroke-opacity:1;marker:none;enable-background:accumulate"
       id="r2393"
       y="2"
       x="2"
       ry="2.5"
       height="44"
       width="44" />
    <path
       style="display:inline;overflow:visible;visibility:visible;opacity:1;fill:#aa0000;fill-opacity:1;fill-rule:evenodd;stroke:none;marker:none;enable-background:accumulate"
       id="p3198"
       d="m 17.23,11.59 c -0.74,-0.01 -1.46,0.28 -1.99,0.81 -0.54,0.52 -0.83,1.24 -0.83,1.99 l 0,19.15 c -0.01,1.01 0.54,1.95 1.43,2.45 0.89,0.49 1.97,0.46 2.84,-0.08 L 34.97,25.83 c 0.84,-0.52 1.35,-1.44 1.33,-2.43 -0.01,-0.98 -0.55,-1.89 -1.41,-2.37 L 18.56,11.96 C 18.16,11.73 17.7,11.6 17.23,11.59 Z"
       inkscape:connector-curvature="0" />
  </g>
  <path
     inkscape:connector-curvature="0"
     d="m 539.49569,307.93538 c 0.35301,0 14.64991,34.04192 14.94408,34.25373 0.30595,0.22357 37.08957,3.28299 37.20724,3.64776 0.11767,0.34125 -27.84071,24.42829 -27.97015,24.79306 -0.1059,0.34125 8.3428,36.27765 8.04863,36.50122 -0.30594,0.21181 -31.87679,-18.92133 -32.2298,-18.92133 -0.36478,0 -31.93562,19.13314 -32.2298,18.92133 -0.30594,-0.22357 8.14276,-36.15997 8.03686,-36.50122 -0.11767,-0.36477 -28.08782,-24.45181 -27.97015,-24.79306 0.11767,-0.36477 36.9013,-3.42419 37.20724,-3.64776 0.30594,-0.21181 14.59107,-34.25373 14.95585,-34.25373 z"
     id="path4741"
     style="fill:#ffff00;fill-opacity:0.53987732;fill-rule:nonzero;marker:none" />
  <path
     inkscape:connector-curvature="0"
     d="m 465.28673,431.74055 c 0.85684,-0.90258 4.22282,-4.51106 4.22282,-4.51106 0,0 -2.56773,-22.1884 2.96025,-29.37428 5.52796,-7.18588 18.42368,-20.2926 18.42368,-20.2926 0,0 0.7995,-0.74626 2.66761,-4.33176 -0.26106,-7.6844 17.03443,-4.78158 11.77036,9.00756 -5.96777,8.09304 -6.56751,8.78814 -9.60588,11.92488 -1.08234,1.1401 29.05732,-30.69975 33.02858,-34.7873 4.51706,0.2844 9.91966,0.17518 10.62079,10.53545 -2.78982,3.19205 -30.87879,32.52302 -30.87879,32.52302 l 17.81086,-18.31531 c 0,0 12.28817,6.94006 8.43577,11.44156 C 530.90622,400.07722 521.006,409.585 521.006,409.585 l 13.32786,-13.11791 c 0,0 9.29047,5.68958 7.52629,13.88985 -6.46525,6.77769 -12.08552,12.18993 -12.08552,12.18993 0,0 0.5246,-0.61591 11.14079,-11.09979 0.22171,0.21046 5.31152,2.33331 5.70834,8.70144 -3.81798,5.82879 -24.01151,25.76575 -24.01151,25.76575 0,0 -5.40021,5.56094 -15.91324,6.32777 -7.57455,5.09222 -11.07816,8.75068 -11.07816,8.75068 l -30.33411,-29.25214 z"
     id="path4743"
     style="opacity:0.76000001;fill:#ffffff;stroke:#000000;stroke-width:3.64626956px;stroke-linecap:butt;stroke-linejoin:round;stroke-opacity:1" />
  <g
     id="g4406"
     transform="translate(58.906149,-49.088458)">
    <g
       transform="matrix(2.4114131,0.41181211,-0.41181211,2.4114131,291.93421,208.07272)"
       id="g4375">
      <rect
         width="40"
         height="40"
         ry="2.5"
         x="4"
         y="-44"
         transform="matrix(0,1,-1,0,0,0)"
         id="r2393-6"
         style="display:inline;overflow:visible;visibility:visible;fill:#e4e4e4;fill-opacity:1;fill-rule:evenodd;stroke:#acacac;stroke-width:7;stroke-linecap:round;stroke-linejoin:miter;stroke-miterlimit:4;stroke-dasharray:none;stroke-dashoffset:0;stroke-opacity:1;marker:none;enable-background:accumulate" />
      <path
         inkscape:connector-curvature="0"
         d="m 5.85,24 c 0,-0.64 0.23,-1.3 0.72,-1.79 L 22.85,5.96 c 0.98,-0.98 2.55,-0.98 3.53,0 l 0.22,0.22 0,9.82 13.81,0 c 1.39,0 2.5,1.11 2.5,2.5 l 0,11 c 0,1.38 -1.11,2.5 -2.5,2.5 l -13.81,0 0,9.81 -0.22,0.22 c -0.98,0.98 -2.55,0.98 -3.53,0 L 6.57,25.78 C 6.08,25.29 5.85,24.63 5.85,24 Z"
         id="r3165-9"
         style="display:inline;overflow:visible;visibility:visible;fill:#5b5b5b;fill-opacity:1;fill-rule:evenodd;stroke:none;marker:none;enable-background:accumulate" />
    </g>
    <path
       inkscape:connector-curvature="0"
       d="m 356.34765,243.49993 c 0.3,0 12.45,28.93 12.7,29.11 0.26,0.19 31.52,2.79 31.62,3.1 0.1,0.29 -23.66,20.76 -23.77,21.07 -0.09,0.29 7.09,30.83 6.84,31.02 -0.26,0.18 -27.09,-16.08 -27.39,-16.08 -0.31,0 -27.14,16.26 -27.39,16.08 -0.26,-0.19 6.92,-30.73 6.83,-31.02 -0.1,-0.31 -23.87,-20.78 -23.77,-21.07 0.1,-0.31 31.36,-2.91 31.62,-3.1 0.26,-0.18 12.4,-29.11 12.71,-29.11 z"
       id="p3327"
       style="display:inline;fill:#ffff00;fill-opacity:0.53987732;fill-rule:nonzero;marker:none" />
    <path
       inkscape:connector-curvature="0"
       id="path4494"
       d="m 353.4369,150.92613 c -3.28218,0 -6.5651,1.25847 -9.08008,3.77344 l -33.75586,33.75586 c -3.39584,3.39588 -4.49605,8.18943 -3.30664,12.49414 l 29.50195,0 0,26.11134 c 0,9.47004 7.62373,17.09375 17.09375,17.09375 9.47002,0 17.09374,-7.62371 17.09374,-17.09375 l 0,-26.11134 28.59375,0 c 0.29735,-1.07618 0.45179,-2.18323 0.46289,-3.29102 0.0333,-3.32336 -1.22068,-6.65623 -3.76758,-9.20312 l -33.7578,-33.75586 c -2.51499,-2.51497 -5.79594,-3.77344 -9.07812,-3.77344 z m -83.53322,83.66212 c -3.32336,-0.0333 -6.65622,1.22068 -9.2031,3.76758 l -33.75586,33.75778 c -2.51497,2.51499 -3.77344,5.79595 -3.77344,9.07813 0,3.28218 1.25847,6.56509 3.77344,9.08007 l 33.75586,33.75586 c 3.39587,3.39584 8.18941,4.49605 12.49412,3.30664 l 0,-29.50195 26.11134,0 c 9.47004,0 17.09375,-7.62373 17.09375,-17.09375 0,-9.47002 -7.62371,-17.09375 -17.09375,-17.09375 l -26.11134,0 0,-28.59372 c -1.07618,-0.29735 -2.18323,-0.45179 -3.29102,-0.46289 z m 167.06641,0 c -1.10779,0.0111 -2.21484,0.16554 -3.29102,0.46289 l 0,28.59372 -26.11132,0 c -9.47004,0 -17.09376,7.62373 -17.09376,17.09375 0,9.47002 7.62371,17.09375 17.09376,17.09375 l 26.11132,0 0,29.50195 c 4.30471,1.18941 9.09826,0.0892 12.49414,-3.30664 l 33.75586,-33.75586 c 2.51497,-2.51498 3.77344,-5.79789 3.77344,-9.08007 0,-3.28218 -1.25847,-6.56314 -3.77344,-9.07813 l -33.75586,-33.75778 c -2.54689,-2.5469 -5.87976,-3.80085 -9.20312,-3.76758 z m -83.08007,83.6406 c -9.47002,0 -17.09375,7.6237 -17.09375,17.09375 l 0,26.11132 -29.50195,0 c -1.18941,4.30471 -0.0892,9.09826 3.30664,12.49414 l 33.75586,33.75586 c 2.51498,2.51497 5.7979,3.77344 9.08008,3.77344 3.28218,0 6.56313,-1.25847 9.07812,-3.77344 l 33.7578,-33.75586 c 2.5469,-2.54689 3.80085,-5.87976 3.76758,-9.20312 -0.0111,-1.10779 -0.16554,-2.21484 -0.46289,-3.29102 l -28.59375,0 0,-26.11132 c 0,-9.47004 -7.62372,-17.09375 -17.09374,-17.09375 z"
       style="color:#000000;clip-rule:nonzero;display:inline;overflow:visible;visibility:visible;opacity:1;isolation:auto;mix-blend-mode:normal;color-interpolation:sRGB;color-interpolation-filters:linearRGB;solid-color:#000000;solid-opacity:1;fill:#ff0000;fill-opacity:1;fill-rule:nonzero;stroke:#ffffff;stroke-width:8;stroke-linecap:round;stroke-linejoin:round;stroke-miterlimit:4;stroke-dasharray:none;stroke-dashoffset:0;stroke-opacity:1;marker:none;marker-start:none;marker-mid:none;marker-end:none;color-rendering:auto;image-rendering:auto;shape-rendering:auto;text-rendering:auto;enable-background:accumulate" />
    <path
       sodipodi:nodetypes="ccsccccccczcczccccccccc"
       inkscape:connector-curvature="0"
       d="m 390.64828,375.13647 c -0.58467,-0.88134 -2.93424,-4.355 -2.93424,-4.355 0,0 -18.867,-2.08912 -23.76883,-8.03342 -4.90186,-5.94434 -13.30809,-19.11654 -13.30809,-19.11654 0,0 -0.46654,-0.80387 -3.08123,-3.03272 -6.41475,-1.24387 -0.72396,-15.01849 9.69765,-8.0381 5.56971,6.48101 6.0315,7.10985 8.05239,10.22259 0.73871,1.11317 -19.90804,-29.90201 -22.53925,-33.96818 -3.18772,-4.88508 6.97475,-12.57306 10.74479,-6.79559 2.11394,2.9174 21.0722,31.75726 21.0722,31.75726 0,0 -21.27015,-32.76636 -24.02831,-36.99318 -2.75816,-4.22681 7.01901,-10.49115 10.01569,-6.44478 3.01213,4.03609 22.31261,34.43446 22.31261,34.43446 0,0 -14.98838,-23.73082 -18.21796,-28.68006 -3.22959,-4.94923 7.56877,-11.81903 11.03443,-6.50799 4.38567,6.64313 19.58627,30.3877 19.58627,30.3877 0,0 -9.2306,-14.06802 -15.8974,-24.8537 -1.77057,-2.66812 3.23005,-7.61283 8.29222,-3.07497 4.10264,4.27005 25.59993,38.30147 25.59993,38.30147 0,0 3.58019,5.52973 2.21775,14.38361 2.77875,7.24173 5.14339,10.839 5.14339,10.839 l -29.99367,19.56854 z"
       id="p3329-5"
       style="display:inline;opacity:0.76000001;fill:#ffffff;stroke:#000000;stroke-width:3.09872627px;stroke-linecap:butt;stroke-linejoin:round;stroke-opacity:1" />
  </g>
</svg>
