<?xml version="1.0" encoding="UTF-8" standalone="no"?>
<!-- Created with Inkscape (http://www.inkscape.org/) -->
<svg
   xmlns:svg="http://www.w3.org/2000/svg"
   xmlns="http://www.w3.org/2000/svg"
   version="1.0"
   width="100%"
   height="100%"
   viewBox="0 0 172 64"
   id="svg2">
  <defs
     id="defs4" />
  <g
     id="layer1">
    <path
       d="M 21.470546,5.0339872 C 21.09832,5.1568118 20.742848,5.2888141 20.443029,5.4186296 C 17.859161,6.4972222 16.550957,8.6666801 17.096461,10.533785 C 17.278296,11.156153 17.604514,12.031866 18.430431,12.69122 C 19.256347,13.350575 20.459294,13.759045 22.273244,13.946783 L 22.285624,13.844657 C 22.862259,14.084295 23.631783,14.309796 24.646489,14.266643 C 24.82934,14.747987 25.133569,15.981944 25.270531,16.547059 C 22.872991,17.444557 20.618818,18.736426 18.658215,20.406926 C 18.196087,20.077541 17.673503,19.878403 17.324592,20.177362 C 16.477154,20.889357 14.48101,22.823551 13.823843,23.705119 C 13.490945,23.577216 12.597426,22.782812 12.331271,23.268685 C 12.065115,23.754558 10.78546,25.732728 10.512899,26.389346 C 10.240338,27.045964 10.237721,27.229674 10.438772,27.339808 C 10.639823,27.449941 11.075433,27.688563 11.4905,27.905042 C 11.239498,28.442779 10.289574,31.886693 10.24341,32.547529 C 10.211228,33.063552 10.638246,33.417267 11.244015,33.563956 C 9.6950627,43.29048 14.924045,53.288369 24.548084,57.569241 C 36.00634,62.63706 49.379215,57.688574 54.38935,46.514553 C 59.399485,35.340533 54.166332,22.149338 42.708075,17.081519 C 38.680224,15.28896 34.413046,14.74844 30.358164,15.271717 C 30.226162,14.916245 29.667846,13.390631 29.547639,12.834694 C 30.159658,12.472936 30.589568,12.065875 30.924927,11.672366 C 32.094915,10.908351 33.347503,9.9935488 33.872082,8.6581697 C 34.409628,7.3190023 33.909737,5.9451914 33.049141,5.0708047 C 32.179367,4.2131722 30.985012,3.6896086 29.754102,3.5707637 C 28.552912,3.4573083 26.93638,3.7044393 25.186985,4.0748251 C 23.886011,4.3423432 22.574258,4.6693018 21.470546,5.0339872 z M 21.205753,7.3067069 C 21.257617,7.291554 21.322447,7.2726129 21.374311,7.25746 L 21.485926,7.9284896 L 23.115771,9.6054421 C 22.908315,9.6660537 22.752723,9.7115124 22.545267,9.772124 C 21.676544,10.025935 20.806687,11.335538 20.806687,11.335538 C 20.806687,11.335538 20.874875,11.568926 20.890028,11.62079 C 20.323157,11.462736 19.941597,11.264613 19.717817,11.076684 C 19.31513,10.758079 19.189103,10.471225 19.041362,9.9655509 C 18.923927,9.5636047 19.325252,8.0953629 21.205753,7.3067069 z M 28.840268,5.5968545 C 29.131495,5.5821318 29.376248,5.5528417 29.537815,5.5760012 C 30.317532,5.6437232 31.166023,6.0431716 31.623346,6.5006146 C 32.067704,6.9618459 32.233215,7.3356731 31.988187,7.9420281 C 31.92613,8.11496 31.680947,8.3836132 31.374722,8.6841736 C 31.344416,8.5804456 31.257287,8.2822275 31.257287,8.2822275 C 31.257287,8.2822275 29.780298,7.6582939 28.911575,7.912105 C 28.781915,7.9499873 28.665221,7.9840813 28.548527,8.0181754 L 28.90088,5.8043106 L 28.840268,5.5968545 z"
       id="path2738"
       style="fill:none;fill-opacity:0.5;fill-rule:evenodd;stroke:#ffffff;stroke-width:4;stroke-linecap:butt;stroke-linejoin:miter;marker:none;stroke-miterlimit:4;stroke-dasharray:none;stroke-dashoffset:0;stroke-opacity:0.50196078;visibility:visible;display:inline;overflow:visible;enable-background:accumulate" />
    <text
       x="32.700729"
       y="-20.087591"
       id="text2419"
       xml:space="preserve"
       style="font-size:8px;font-style:normal;font-variant:normal;font-weight:normal;font-stretch:normal;fill:#000000;fill-opacity:1;stroke:none;stroke-width:1px;stroke-linecap:butt;stroke-linejoin:miter;stroke-opacity:1;font-family:Arial;-inkscape-font-specification:Arial"><tspan
         x="32.700729"
         y="-20.087591"
         id="tspan2421" /></text>
    <path
       d="M 20.443029,5.4186296 C 17.859161,6.4972222 16.550957,8.6666801 17.096461,10.533785 C 17.278296,11.156153 17.604514,12.031866 18.430431,12.69122 C 19.256347,13.350575 20.459294,13.759045 22.273244,13.946783 L 22.4652,11.906436 C 20.885224,11.748848 20.107538,11.399077 19.717817,11.076684 C 19.31513,10.758079 19.189103,10.471225 19.041362,9.9655509 C 18.923927,9.5636047 19.325252,8.0953629 21.205753,7.3067069 C 22.208939,6.8869548 23.95396,6.4052645 25.599627,6.0651846 C 27.245294,5.7251046 28.886157,5.5130833 29.537815,5.5760012 C 30.317532,5.6437232 31.166023,6.0431716 31.623346,6.5006146 C 32.067704,6.9618459 32.233215,7.3356731 31.988187,7.9420281 C 31.799828,8.4051714 30.631597,9.4642014 29.483753,10.207673 C 28.348875,10.947357 27.26469,11.475211 27.26469,11.475211 L 28.145709,13.286508 C 28.145709,13.286508 29.290936,12.726747 30.560863,11.919461 C 31.827003,11.099209 33.290835,10.13676 33.872082,8.6581697 C 34.409628,7.3190023 33.909737,5.9451914 33.049141,5.0708047 C 32.179367,4.2131722 30.985012,3.6896086 29.754102,3.5707637 C 28.552912,3.4573083 26.93638,3.7044393 25.186985,4.0748251 C 23.450556,4.4414226 21.659061,4.9085456 20.443029,5.4186296 z"
       id="p3256"
       style="fill:#70a0d0;fill-opacity:1;fill-rule:evenodd;stroke:none;display:inline" />
    <path
       d="M 21.470546,5.0339872 C 21.09832,5.1568118 20.742848,5.2888141 20.443029,5.4186296 C 18.571706,6.1905313 17.379299,7.5521532 17.070338,8.9511912 C 17.663524,12.282009 20.093593,12.796358 22.03939,13.001866 L 22.36354,12.907161 L 22.4652,11.906436 C 20.885224,11.748848 20.107538,11.399077 19.717817,11.076684 C 19.31513,10.758079 19.189103,10.471225 19.041362,9.9655509 C 18.923927,9.5636047 19.325252,8.0953629 21.205753,7.3067069 C 22.208939,6.8869548 23.95396,6.4052645 25.599627,6.0651846 C 27.245294,5.7251046 28.886157,5.5130833 29.537815,5.5760012 C 30.317532,5.6437232 31.166023,6.0431716 31.623346,6.5006146 C 32.067704,6.9618459 32.233215,7.3356731 31.988187,7.9420281 C 31.799828,8.4051714 30.631597,9.4642014 29.483753,10.207673 C 29.023537,10.511006 28.618388,10.713814 28.24296,10.922011 L 30.489281,10.181275 C 30.489281,10.181275 29.541508,12.428374 32.032977,10.166517 C 33.210386,9.0907324 33.785813,7.8812251 33.978666,6.6146196 C 33.804408,6.0181834 33.452413,5.4877483 33.049141,5.0708047 C 32.179367,4.2131722 30.985012,3.6896086 29.754102,3.5707637 C 28.552912,3.4573083 26.93638,3.7044393 25.186985,4.0748251 C 23.886011,4.3423432 22.574258,4.6693018 21.470546,5.0339872 z"
       id="p3700"
       style="fill:#0d1319;fill-opacity:0.81000001;fill-rule:evenodd;stroke:none;display:inline" />
    <path
       d="M 21.482987,12.108969 C 18.478901,11.17127 18.012088,10.055178 17.812603,8.6498898 C 17.613118,7.2446019 20.491535,5.1511474 24.511152,4.3144991 C 28.521591,3.494605 33.617267,3.2583005 33.108498,7.2488187"
       id="p3703"
       style="fill:none;fill-rule:evenodd;stroke:#72a3d4;stroke-width:0.54032278;stroke-linecap:round;stroke-linejoin:miter;stroke-miterlimit:4;stroke-dasharray:none;stroke-opacity:0.4;display:inline" />
    <path
       d="M 18.830859,10.449237 C 18.31437,9.4039496 18.069856,7.6037065 20.839621,6.5833831 C 23.622353,5.5592715 29.124002,3.3889648 31.531533,5.4156886"
       id="p3706"
       style="fill:none;fill-rule:evenodd;stroke:#8fccff;stroke-width:0.40524212;stroke-linecap:round;stroke-linejoin:miter;stroke-miterlimit:4;stroke-dasharray:none;stroke-opacity:0.22000002;display:inline" />
    <path
       d="M 24.369852,4.8905482 C 20.881997,5.909581 21.352597,7.0386392 21.352597,7.0386392 L 21.485926,7.9284896 L 23.115771,9.6054421 C 22.908315,9.6660537 22.752723,9.7115124 22.545267,9.772124 C 21.676544,10.025935 20.806687,11.335538 20.806687,11.335538 C 20.806687,11.335538 21.240301,13.108678 21.346372,13.471726 C 21.619243,13.490512 22.839685,14.3442 24.646489,14.266643 C 24.8764,14.860892 25.39933,16.987903 25.39933,16.987903 L 26.81817,16.882968 L 26.997232,17.351345 L 28.070053,16.784593 L 29.227385,16.69977 L 29.126119,16.208663 L 30.43014,15.518071 C 30.43014,15.518071 29.673822,13.459249 29.547639,12.834694 C 31.124962,11.923524 31.680863,10.550848 31.913666,10.384322 C 31.807595,10.021273 31.257287,8.2822275 31.257287,8.2822275 C 31.257287,8.2822275 29.780298,7.6582939 28.911575,7.912105 C 28.781915,7.9499873 28.665221,7.9840813 28.548527,8.0181754 L 28.90088,5.8043106 L 28.717874,4.9852654 C 28.717874,4.9852654 27.857707,3.8715155 24.369852,4.8905482 z"
       id="p3244"
       style="fill:#55799d;fill-opacity:1;fill-rule:evenodd;stroke:none;display:inline" />
    <path
       d="M 27.435268,15.816086 C 24.209935,16.673982 21.209709,18.254186 18.658215,20.406926 C 18.196087,20.077541 17.673503,19.878403 17.324592,20.177362 C 16.477154,20.889357 14.48101,22.823551 13.823843,23.705119 C 13.490945,23.577216 12.597426,22.782812 12.331271,23.268685 C 12.065115,23.754558 10.78546,25.732728 10.512899,26.389346 C 10.240338,27.045964 10.237721,27.229674 10.438772,27.339808 C 10.639823,27.449941 11.075433,27.688563 11.4905,27.905042 C 11.239498,28.442779 10.289574,31.886693 10.24341,32.547529 C 10.211228,33.063552 10.638246,33.417267 11.244015,33.563956 C 9.6950627,43.29048 14.924045,53.288369 24.548084,57.569241 C 36.00634,62.63706 49.379215,57.688574 54.38935,46.514553 C 59.399485,35.340533 54.166332,22.149338 42.708075,17.081519 C 37.696098,14.858776 32.318648,14.515984 27.435268,15.816086 z"
       id="p2465"
       style="fill:#6895c2;fill-opacity:1;fill-rule:evenodd;stroke:none;marker:none;visibility:visible;display:inline;overflow:visible;enable-background:accumulate" />
    <path
       d="M 18.32526,43.63988 C 17.311725,43.87971 17.004054,44.560658 17.613062,45.874443 C 19.530418,50.028643 19.404463,52.246726 19.65249,54.637001 C 19.643312,54.653755 19.660066,54.662933 19.663855,54.675899 C 21.125416,55.825033 22.769518,56.780108 24.548084,57.569241 C 35.539409,62.435734 48.275503,58.053259 53.712381,47.810019 C 42.84847,50.941866 23.035278,42.517083 18.32526,43.63988 z"
       id="p3638"
       style="fill:#304458;fill-opacity:0.65;fill-rule:evenodd;stroke:none;display:inline" />
    <path
       d="M 42.250788,17.876544 C 53.042078,22.49188 57.883012,34.629626 53.074047,44.999013 C 48.261294,55.355434 35.617718,60.006407 24.826428,55.391072 C 14.051892,50.784915 9.194204,38.637991 14.006957,28.28157 C 18.815922,17.912183 31.459497,13.261209 42.250788,17.876544 z"
       id="p3246"
       style="fill:#000000;fill-opacity:1;fill-rule:evenodd;stroke:none;marker:none;visibility:visible;display:inline;overflow:visible;enable-background:accumulate" />
    <path
       d="M 14.829982,29.7017 C 14.281621,29.847839 13.413795,30.875392 12.564206,32.784203 C 12.542062,32.804746 12.532884,32.8215 12.523706,32.838254 C 11.524297,37.943144 12.624089,43.152431 15.38279,47.440784 C 14.313769,43.348331 12.808087,37.905811 14.640834,33.148506 C 15.602003,30.658256 15.469104,29.529043 14.829982,29.7017 z"
       id="p3400"
       style="fill:#354b62;fill-opacity:1;fill-rule:evenodd;stroke:none;display:inline" />
    <path
       d="M 27.823698,16.85657 C 21.882496,18.437586 16.709132,22.454025 14.006957,28.28157 C 13.20267,30.008271 12.669654,31.796445 12.388967,33.58126 C 13.44311,37.044785 15.932416,40.651915 20.761734,43.983485 L 37.094155,31.246504 C 37.094155,31.246504 32.377411,51.805797 40.819093,52.280639 C 45.554063,52.543759 49.715649,49.062165 52.954736,45.216818 C 52.991447,45.149801 53.041124,45.078996 53.077835,45.011979 C 57.873834,34.64638 53.025323,22.482702 42.234033,17.867367 C 37.522031,15.85251 32.44397,15.619266 27.823698,16.85657 z"
       id="p3402"
       style="fill:#3d5771;fill-opacity:1;fill-rule:evenodd;stroke:none;display:inline" />
    <path
       d="M 27.823698,16.85657 C 25.708053,17.418398 23.716833,18.309766 21.860818,19.471234 C 30.388697,18.218083 41.63443,19.379466 44.46972,22.195945 C 47.750968,25.430969 50.629576,24.927684 54.899421,37.133774 C 55.098343,29.09638 50.357768,21.348171 42.234033,17.867367 C 37.522031,15.85251 32.44397,15.619266 27.823698,16.85657 z"
       id="p3404"
       style="fill:#6d9ccb;fill-opacity:1;fill-rule:evenodd;stroke:none;display:inline" />
    <path
       d="M 48.181702,23.292713 C 55.633069,31.022925 55.238748,43.015572 47.283585,50.082333 C 39.328421,57.149093 26.845098,56.616676 19.393731,48.886464 C 11.942364,41.156252 12.349651,29.159817 20.291848,22.096844 C 28.247011,15.030084 40.730335,15.562501 48.181702,23.292713 z"
       id="p3241"
       style="fill:#8ecbff;fill-opacity:1;fill-rule:evenodd;stroke:none;marker:none;visibility:visible;display:inline;overflow:visible;enable-background:accumulate" />
    <path
       d="M 33.327189,28.083026 C 33.546906,28.835055 33.115551,29.622504 32.363523,29.842221 C 31.611494,30.061938 30.824045,29.630582 30.604328,28.878554 C 30.384611,28.126526 30.815967,27.339077 31.567995,27.11936 C 32.320023,26.899642 33.107472,27.330998 33.327189,28.083026 z"
       id="p3566"
       style="fill:#1e2b38;fill-opacity:1;fill-rule:evenodd;stroke:none;marker:none;visibility:visible;display:inline;overflow:visible;enable-background:accumulate" />
    <path
       d="M 32.888962,28.028115 C 33.051856,28.585653 32.756566,29.164475 32.211994,29.32358 C 31.680387,29.478898 31.106955,29.153887 30.944062,28.596349 C 30.781168,28.038811 31.089424,27.456201 31.62103,27.300884 C 32.165602,27.141778 32.726069,27.470577 32.888962,28.028115 z"
       id="p3568"
       style="fill:#374e65;fill-opacity:1;fill-rule:evenodd;stroke:none;marker:none;visibility:visible;display:inline;overflow:visible;enable-background:accumulate" />
    <path
       d="M 37.172859,27.325345 C 37.994904,30.138968 36.275887,33.118019 33.345569,33.974158 C 30.415252,34.830297 27.375746,33.241525 26.553701,30.427902 C 25.735444,27.627245 27.441495,24.651983 30.371812,23.795844 C 33.302129,22.939705 36.354602,24.524688 37.172859,27.325345 L 37.172859,27.325345 z"
       id="p3528"
       style="fill:none;fill-opacity:1;fill-rule:evenodd;stroke:#000000;stroke-width:0.20262106;stroke-linecap:butt;stroke-linejoin:miter;marker:none;stroke-miterlimit:4;stroke-dasharray:none;stroke-dashoffset:0;stroke-opacity:1;visibility:visible;display:inline;overflow:visible;enable-background:accumulate" />
    <path
       d="M 32.720404,28.077362 C 32.852992,28.531172 32.612769,29.009468 32.158958,29.142056 C 31.718114,29.270856 31.245207,29.000912 31.11262,28.547102 C 30.976243,28.080326 31.233221,27.611207 31.674065,27.482408 C 32.127876,27.34982 32.584028,27.610586 32.720404,28.077362 z"
       id="p3570"
       style="fill:#19242f;fill-opacity:1;fill-rule:evenodd;stroke:none;marker:none;visibility:visible;display:inline;overflow:visible;enable-background:accumulate" />
    <path
       d="M 37.873023,27.120781 C 38.804927,30.310418 36.861854,33.678604 33.542557,34.64839 C 30.22326,35.618176 26.78544,33.822104 25.853536,30.632467 C 24.925421,27.455795 26.855527,24.091397 30.174824,23.121612 C 33.494122,22.151826 36.944908,23.94411 37.873023,27.120781 L 37.873023,27.120781 z"
       id="p3524"
       style="fill:none;fill-opacity:1;fill-rule:evenodd;stroke:#000000;stroke-width:0.18911298;stroke-linecap:butt;stroke-linejoin:miter;marker:none;stroke-miterlimit:4;stroke-dasharray:none;stroke-dashoffset:0;stroke-opacity:1;visibility:visible;display:inline;overflow:visible;enable-background:accumulate" />
    <path
       d="M 47.484465,23.98897 C 54.482297,31.274705 54.122775,42.567618 46.66614,49.221342 C 39.22247,55.871279 27.516677,55.350931 20.50588,48.068984 C 13.508048,40.783249 13.880536,29.486548 21.324205,22.836611 C 28.767875,16.186675 40.486634,16.703235 47.484465,23.98897 z"
       id="p3420"
       style="fill:none;fill-opacity:1;fill-rule:evenodd;stroke:#000000;stroke-width:0.25665331;stroke-linecap:butt;stroke-linejoin:miter;marker:none;stroke-miterlimit:4;stroke-dasharray:none;stroke-dashoffset:0;stroke-opacity:1;visibility:visible;display:inline;overflow:visible;enable-background:accumulate" />
    <path
       d="M 46.749932,24.653905 C 53.365034,31.54484 53.020354,42.214213 45.975273,48.494386 C 38.930192,54.774558 27.86848,54.291196 21.253379,47.400261 C 14.642066,40.522291 14.982957,29.839952 22.028038,23.55978 C 29.060154,17.283396 40.138619,17.775936 46.749932,24.653905 z"
       id="p3425"
       style="fill:none;fill-opacity:1;fill-rule:evenodd;stroke:#000000;stroke-width:0.27016139;stroke-linecap:butt;stroke-linejoin:miter;marker:none;stroke-miterlimit:4;stroke-dasharray:none;stroke-dashoffset:0;stroke-opacity:1;visibility:visible;display:inline;overflow:visible;enable-background:accumulate" />
    <path
       d="M 46.113152,25.219916 C 52.399574,31.756551 52.070322,41.900723 45.38333,47.865182 C 38.687159,53.846395 28.176581,53.370884 21.890159,46.83425 C 15.603737,40.297615 15.932989,30.153442 22.619981,24.188984 C 29.303186,18.211559 39.82673,18.683281 46.113152,25.219916 z"
       id="p3427"
       style="fill:none;fill-opacity:1;fill-rule:evenodd;stroke:#000000;stroke-width:0.18911298;stroke-linecap:butt;stroke-linejoin:miter;marker:none;stroke-miterlimit:4;stroke-dasharray:none;stroke-dashoffset:0;stroke-opacity:1;visibility:visible;display:inline;overflow:visible;enable-background:accumulate" />
    <path
       d="M 19.625694,24.585337 L 21.040782,25.719904"
       id="p3429"
       style="fill:none;fill-rule:evenodd;stroke:#000000;stroke-width:0.40524212;stroke-linecap:butt;stroke-linejoin:miter;stroke-miterlimit:4;stroke-dasharray:none;stroke-opacity:1;display:inline" />
    <path
       d="M 15.557979,34.794448 L 17.398877,34.833585"
       id="p3431"
       style="fill:none;fill-rule:evenodd;stroke:#000000;stroke-width:0.40524212;stroke-linecap:butt;stroke-linejoin:miter;stroke-miterlimit:4;stroke-dasharray:none;stroke-opacity:1;display:inline" />
    <path
       d="M 18.419571,45.455862 L 19.947648,44.376134"
       id="p3433"
       style="fill:none;fill-rule:evenodd;stroke:#000000;stroke-width:0.40524212;stroke-linecap:butt;stroke-linejoin:miter;stroke-miterlimit:4;stroke-dasharray:none;stroke-opacity:1;display:inline" />
    <path
       d="M 27.296028,52.572692 L 27.937146,50.865517"
       id="p3435"
       style="fill:none;fill-rule:evenodd;stroke:#000000;stroke-width:0.40524212;stroke-linecap:butt;stroke-linejoin:miter;stroke-miterlimit:4;stroke-dasharray:none;stroke-opacity:1;display:inline" />
    <path
       d="M 38.836035,53.296278 L 38.33599,51.584765"
       id="p3437"
       style="fill:none;fill-rule:evenodd;stroke:#000000;stroke-width:0.40524212;stroke-linecap:butt;stroke-linejoin:miter;stroke-miterlimit:4;stroke-dasharray:none;stroke-opacity:1;display:inline" />
    <path
       d="M 48.534224,47.282345 L 47.091018,46.099702"
       id="p3439"
       style="fill:none;fill-rule:evenodd;stroke:#000000;stroke-width:0.40524212;stroke-linecap:butt;stroke-linejoin:miter;stroke-miterlimit:4;stroke-dasharray:none;stroke-opacity:1;display:inline" />
    <path
       d="M 52.493253,36.893897 L 50.610684,36.712134"
       id="p3441"
       style="fill:none;fill-rule:evenodd;stroke:#000000;stroke-width:0.40524212;stroke-linecap:butt;stroke-linejoin:miter;stroke-miterlimit:4;stroke-dasharray:none;stroke-opacity:1;display:inline" />
    <path
       d="M 47.772873,27.23996 L 49.306924,26.22885"
       id="p3443"
       style="fill:none;fill-rule:evenodd;stroke:#000000;stroke-width:0.40524212;stroke-linecap:butt;stroke-linejoin:miter;stroke-miterlimit:4;stroke-dasharray:none;stroke-opacity:1;display:inline" />
    <path
       d="M 39.699759,21.042389 L 40.359818,19.400044"
       id="p3445"
       style="fill:none;fill-rule:evenodd;stroke:#000000;stroke-width:0.40524212;stroke-linecap:butt;stroke-linejoin:miter;stroke-miterlimit:4;stroke-dasharray:none;stroke-opacity:1;display:inline" />
    <path
       d="M 39.425872,21.164628 C 39.660742,21.96852 39.8994,22.785379 40.138058,23.602237 C 39.917636,23.666637 39.697214,23.731037 39.463826,23.799225 C 39.30472,23.254653 39.149403,22.723046 38.994086,22.19144 C 38.835877,22.42061 38.636583,22.605492 38.396204,22.746087 C 38.343169,22.564563 38.290133,22.383038 38.237098,22.201514 C 38.495833,22.027411 38.739414,21.801444 38.835996,21.505843 C 38.876496,21.451792 38.838613,21.322132 38.920198,21.312369 C 39.088756,21.263122 39.257314,21.213875 39.425872,21.164628 z"
       id="text3451"
       style="font-size:2.57999992px;font-style:normal;font-variant:normal;font-weight:normal;font-stretch:normal;fill:#000000;fill-opacity:1;stroke:none;display:inline;font-family:Arial Black;-inkscape-font-specification:Arial Black" />
    <path
       d="M 47.716826,28.733978 C 47.042594,28.930966 46.381328,29.124165 45.720062,29.317365 C 45.651288,28.985638 45.745683,28.634385 45.927637,28.341987 C 46.083659,28.057165 46.323453,27.818232 46.479475,27.53341 C 46.552897,27.399376 46.581446,27.208088 46.449014,27.09198 C 46.292251,26.940762 45.984855,27.044645 45.950916,27.265653 C 45.917993,27.345636 46.019104,27.499041 45.9078,27.503415 C 45.696555,27.55106 45.481523,27.58574 45.283244,27.629597 C 45.240988,27.388633 45.24302,27.106583 45.42556,26.912523 C 45.626455,26.684955 45.928461,26.610792 46.204536,26.544205 C 46.454678,26.485195 46.732939,26.47426 46.952931,26.649224 C 47.206432,26.842543 47.28657,27.213167 47.173234,27.499591 C 47.058297,27.8287 46.788783,28.062243 46.60304,28.341676 C 46.588473,28.38815 46.459399,28.524371 46.572304,28.477311 C 46.896455,28.382605 47.220605,28.2879 47.557721,28.189406 C 47.610756,28.37093 47.663791,28.552454 47.716826,28.733978 z"
       id="text3459"
       style="font-size:2.57999992px;font-style:normal;font-variant:normal;font-weight:normal;font-stretch:normal;fill:#000000;fill-opacity:1;stroke:none;display:inline;font-family:Arial Black;-inkscape-font-specification:Arial Black" />
    <path
       d="M 48.58053,36.362399 C 48.36171,36.384112 48.129923,36.409614 47.911102,36.431328 C 47.900168,36.153067 48.02647,35.862855 48.266849,35.722261 C 48.503439,35.5687 48.801658,35.481571 49.079919,35.470636 C 49.354392,35.446736 49.622459,35.59358 49.724156,35.845324 C 49.797734,36.048992 49.741651,36.290542 49.590433,36.447305 C 49.533179,36.492178 49.536968,36.505144 49.605586,36.499169 C 49.854127,36.482845 50.087085,36.65402 50.151485,36.874442 C 50.27591,37.203982 50.16316,37.588744 49.88607,37.796355 C 49.653267,37.962882 49.364227,38.033257 49.080576,38.073911 C 48.809891,38.110778 48.510502,38.00123 48.334798,37.785182 C 48.319645,37.733318 48.178035,37.633964 48.255831,37.611234 C 48.468676,37.520902 48.668556,37.434359 48.868436,37.347815 C 48.936038,37.482865 49.037149,37.63627 49.200318,37.616743 C 49.371063,37.623149 49.513103,37.48314 49.523297,37.325361 C 49.53888,37.137861 49.44476,36.91205 49.240506,36.887289 C 49.108659,36.869519 48.986576,36.933333 48.877458,36.993359 C 48.844965,36.833979 48.812473,36.674599 48.77998,36.515218 C 48.946937,36.508658 49.092765,36.381615 49.099171,36.21087 C 49.113152,36.066057 48.986109,35.920228 48.826729,35.952721 C 48.685704,35.951705 48.565808,36.071172 48.564792,36.212196 C 48.566979,36.267849 48.565378,36.310535 48.58053,36.362399 L 48.58053,36.362399 z"
       id="text3463"
       style="font-size:2.57999992px;font-style:normal;font-variant:normal;font-weight:normal;font-stretch:normal;fill:#000000;fill-opacity:1;stroke:none;display:inline;font-family:Arial Black;-inkscape-font-specification:Arial Black" />
    <path
       d="M 46.091309,45.857016 C 45.689363,45.974451 45.287417,46.091886 44.872505,46.21311 C 44.81947,46.031586 44.766435,45.850062 44.709611,45.655571 C 44.984359,45.054606 45.246141,44.457429 45.507923,43.860252 C 45.702413,43.803428 45.896903,43.746605 46.091393,43.689781 C 46.235345,44.18249 46.379298,44.675198 46.523251,45.167906 C 46.614013,45.141388 46.717741,45.111083 46.821469,45.080777 C 46.870716,45.249335 46.919963,45.417893 46.972998,45.599417 C 46.86927,45.629723 46.765542,45.660029 46.67478,45.686546 C 46.71645,45.829172 46.761909,45.984764 46.803579,46.12739 C 46.609089,46.184214 46.414599,46.241037 46.220109,46.297861 C 46.178439,46.155235 46.13298,45.999642 46.091309,45.857016 z M 45.93978,45.338376 C 45.867804,45.092022 45.79204,44.832702 45.720063,44.586348 C 45.584583,44.893314 45.439926,45.217034 45.304446,45.523999 C 45.511902,45.463388 45.732324,45.398988 45.93978,45.338376 z"
       id="text3467"
       style="font-size:2.57999992px;font-style:normal;font-variant:normal;font-weight:normal;font-stretch:normal;fill:#000000;fill-opacity:1;stroke:none;display:inline;font-family:Arial Black;-inkscape-font-specification:Arial Black" />
    <path
       d="M 36.877595,49.09779 C 37.409201,48.942473 37.940807,48.787155 38.459447,48.635626 C 38.512482,48.81715 38.561729,48.985708 38.614764,49.167232 C 38.264682,49.269515 37.901634,49.375585 37.551552,49.477867 C 37.559714,49.602137 37.580842,49.72262 37.592792,49.859856 C 37.858518,49.613347 38.27343,49.492124 38.613904,49.645959 C 38.89115,49.776049 39.050685,50.081258 39.065408,50.372485 C 39.080131,50.663713 38.966795,50.950136 38.724814,51.133417 C 38.488224,51.286977 38.215938,51.36653 37.928499,51.394219 C 37.64106,51.421907 37.334094,51.286428 37.167567,51.053625 C 37.10594,50.987194 37.090787,50.93533 37.172371,50.925566 C 37.376039,50.851989 37.562953,50.769233 37.749866,50.686478 C 37.808291,50.838282 37.974232,50.972746 38.146578,50.936465 C 38.318925,50.900184 38.436634,50.725065 38.400353,50.552719 C 38.377039,50.376584 38.316427,50.169128 38.139707,50.094105 C 37.950021,50.022869 37.731786,50.142921 37.647584,50.336396 C 37.633017,50.38287 37.569788,50.359125 37.53089,50.37049 C 37.37151,50.402983 37.208341,50.422509 37.045173,50.442036 C 36.984991,49.995217 36.937776,49.544609 36.877595,49.09779 z"
       id="text3471"
       style="font-size:2.57999992px;font-style:normal;font-variant:normal;font-weight:normal;font-stretch:normal;fill:#000000;fill-opacity:1;stroke:none;display:inline;font-family:Arial Black;-inkscape-font-specification:Arial Black" />
    <path
       d="M 29.121509,48.464858 C 28.912452,48.568156 28.699606,48.658488 28.486761,48.74882 C 28.439701,48.635914 28.336988,48.525195 28.20354,48.550111 C 28.031194,48.586392 27.946992,48.779867 27.966519,48.943035 C 27.974681,49.067306 27.999597,49.200754 28.024514,49.334202 C 28.117893,49.123974 28.311797,48.968812 28.523042,48.921166 C 28.902844,48.824274 29.304946,49.04454 29.449914,49.396224 C 29.583518,49.709009 29.55075,50.126694 29.297991,50.369415 C 29.072765,50.561874 28.787512,50.645215 28.503862,50.685869 C 28.246143,50.718948 27.980262,50.627755 27.799168,50.441427 C 27.543481,50.192456 27.420656,49.82023 27.344306,49.462572 C 27.283109,49.156777 27.279165,48.806109 27.468696,48.539643 C 27.680371,48.252634 28.035842,48.120632 28.378934,48.090756 C 28.649618,48.05389 28.91011,48.174802 29.06906,48.381673 C 29.09339,48.416783 29.113933,48.438926 29.121509,48.464858 L 29.121509,48.464858 z M 28.217128,49.89713 C 28.253409,50.069476 28.41396,50.233661 28.606849,50.219523 C 28.773805,50.212963 28.908269,50.047022 28.888743,49.883853 C 28.874606,49.690964 28.793452,49.461365 28.590799,49.393918 C 28.395724,49.352402 28.185065,49.498387 28.186236,49.695063 C 28.179245,49.76747 28.198186,49.8323 28.217128,49.89713 L 28.217128,49.89713 z"
       id="text3475"
       style="font-size:2.57999992px;font-style:normal;font-variant:normal;font-weight:normal;font-stretch:normal;fill:#000000;fill-opacity:1;stroke:none;display:inline;font-family:Arial Black;-inkscape-font-specification:Arial Black" />
    <path
       d="M 19.807017,42.883287 C 20.455318,42.693876 21.103618,42.504464 21.751918,42.315053 C 21.793588,42.457679 21.839047,42.613271 21.884506,42.768863 C 21.507631,43.357448 21.424757,44.085301 21.536372,44.756331 C 21.529381,44.828737 21.585619,44.924889 21.558085,44.975151 C 21.337663,45.039551 21.130207,45.100163 20.909785,45.164563 C 20.834451,44.665879 20.810981,44.152043 20.952866,43.674333 C 21.007347,43.475469 21.078582,43.285783 21.149817,43.096096 C 20.760837,43.209743 20.358891,43.327178 19.969911,43.440825 C 19.916876,43.259301 19.860052,43.064811 19.807017,42.883287 z"
       id="text3479"
       style="font-size:2.57999992px;font-style:normal;font-variant:normal;font-weight:normal;font-stretch:normal;fill:#000000;fill-opacity:1;stroke:none;display:inline;font-family:Arial Black;-inkscape-font-specification:Arial Black" />
    <path
       d="M 18.263966,34.904509 C 18.072679,34.87596 17.880806,34.749072 17.811016,34.558371 C 17.720685,34.345525 17.763801,34.107763 17.911231,33.938034 C 18.117516,33.680745 18.441666,33.58604 18.751249,33.537808 C 19.005179,33.491764 19.298593,33.532694 19.47051,33.735776 C 19.642426,33.938858 19.660937,34.243052 19.511905,34.455467 C 19.484372,34.50573 19.392009,34.574933 19.503313,34.57056 C 19.787549,34.628243 19.991373,34.892368 20.015273,35.166841 C 20.05214,35.437525 19.922049,35.714771 19.694636,35.851577 C 19.422936,36.029468 19.111752,36.120386 18.794593,36.142685 C 18.52012,36.166585 18.25584,36.032707 18.119034,35.805294 C 17.982227,35.577881 17.946962,35.26451 18.10896,35.048306 C 18.149459,34.994255 18.206713,34.949382 18.263966,34.904509 z M 18.425808,34.350604 C 18.450724,34.484052 18.605301,34.579618 18.738749,34.554702 C 18.888951,34.538963 19.014238,34.389777 18.981745,34.230396 C 18.966007,34.080194 18.81682,33.954908 18.65744,33.9874 C 18.507237,34.003139 18.381951,34.152325 18.410655,34.29874 C 18.414443,34.311706 18.418232,34.324672 18.425808,34.350604 L 18.425808,34.350604 z M 18.68618,35.386283 C 18.730037,35.584561 18.968385,35.726016 19.155298,35.643261 C 19.338424,35.547539 19.377752,35.296811 19.285819,35.126652 C 19.206852,34.952704 18.966903,34.853936 18.80432,34.971801 C 18.676847,35.065335 18.644509,35.243657 18.68618,35.386283 z"
       id="text3483"
       style="font-size:2.57999992px;font-style:normal;font-variant:normal;font-weight:normal;font-stretch:normal;fill:#000000;fill-opacity:1;stroke:none;display:inline;font-family:Arial Black;-inkscape-font-specification:Arial Black" />
    <path
       d="M 21.552348,27.808017 C 21.765193,27.717685 21.978039,27.627353 22.190884,27.537021 C 22.237944,27.649927 22.340657,27.760646 22.487071,27.731942 C 22.646451,27.699449 22.730653,27.505975 22.711126,27.342806 C 22.702964,27.218536 22.678048,27.085087 22.653131,26.951639 C 22.555964,27.148902 22.375026,27.300275 22.163781,27.347921 C 21.817487,27.463169 21.406208,27.259656 21.252062,26.924727 C 21.092526,26.619518 21.116116,26.218588 21.348333,25.953723 C 21.553017,25.73912 21.864201,25.648203 22.160817,25.60376 C 22.418536,25.570682 22.680629,25.648908 22.857934,25.82227 C 23.14713,26.089597 23.256989,26.465611 23.337127,26.836235 C 23.398324,27.14203 23.39309,27.509452 23.186805,27.766741 C 22.971342,28.040783 22.612082,28.15982 22.285745,28.198873 C 21.998306,28.226562 21.730239,28.079717 21.580466,27.856093 L 21.559924,27.833949 L 21.552348,27.808017 z M 22.460517,26.388711 C 22.420448,26.203399 22.259897,26.039215 22.054042,26.05714 C 21.890874,26.076667 21.769376,26.238819 21.788902,26.401988 C 21.799251,26.581911 21.880405,26.811511 22.070091,26.882746 C 22.255989,26.941015 22.466648,26.795031 22.482231,26.607532 C 22.502188,26.531337 22.479459,26.453541 22.460517,26.388711 z"
       id="text3487"
       style="font-size:2.57999992px;font-style:normal;font-variant:normal;font-weight:normal;font-stretch:normal;fill:#000000;fill-opacity:1;stroke:none;display:inline;font-family:Arial Black;-inkscape-font-specification:Arial Black" />
    <path
       d="M 28.90455,22.001026 C 28.832574,21.754672 28.782741,21.487776 28.886899,21.218107 C 28.98188,20.965192 29.283301,20.79269 29.568553,20.709349 C 29.840839,20.629796 30.141244,20.598319 30.372015,20.713842 C 30.61954,20.838543 30.730414,21.073532 30.820746,21.286378 C 30.913265,21.554876 30.98364,21.843916 30.91299,22.131941 C 30.871475,22.327017 30.701901,22.517288 30.489056,22.60762 C 30.257854,22.73146 29.998534,22.807225 29.742417,22.797617 C 29.460367,22.795585 29.218232,22.641164 29.101968,22.435895 C 29.008433,22.308422 28.950009,22.156618 28.90455,22.001026 L 28.90455,22.001026 z M 29.565816,21.807827 C 29.615063,21.976385 29.668098,22.157909 29.791353,22.290772 C 29.873523,22.379347 30.048056,22.398718 30.166351,22.321938 C 30.303002,22.211649 30.296442,22.044692 30.271525,21.911244 C 30.233058,21.683245 30.16487,21.449857 30.044817,21.231622 C 29.984791,21.122505 29.872901,21.02854 29.713521,21.061033 C 29.567107,21.089737 29.480719,21.227559 29.485092,21.338864 C 29.474899,21.496643 29.520358,21.652235 29.565816,21.807827 L 29.565816,21.807827 z"
       id="text3491"
       style="font-size:2.32999992px;font-style:normal;font-variant:normal;font-weight:normal;font-stretch:normal;fill:#000000;fill-opacity:1;stroke:none;display:inline;font-family:Arial Black;-inkscape-font-specification:Arial Black" />
    <path
       d="M 29.402756,25.584758 C 29.480552,25.562029 29.55456,25.526334 29.632356,25.503604 C 29.688593,25.599756 29.830204,25.69911 30.019304,25.672007 C 30.251091,25.646505 30.472529,25.441081 30.440036,25.2817 C 30.424298,25.131498 30.214069,25.038119 30.002825,25.085764 C 29.917452,25.082562 29.775412,25.222571 29.787792,25.120444 C 29.793182,25.090724 29.781817,25.051826 29.783418,25.009139 C 29.955765,24.972858 30.161034,24.856595 30.16205,24.71557 C 30.17982,24.583723 30.025243,24.488157 29.839931,24.528226 C 29.663797,24.551541 29.505002,24.682372 29.49641,24.797465 C 29.502385,24.866083 29.487817,24.912558 29.389479,24.913143 C 29.333827,24.91533 29.281963,24.930483 29.22631,24.93267 C 29.215961,24.752747 29.368781,24.553298 29.620525,24.451601 C 29.86848,24.336939 30.219148,24.332995 30.353767,24.504756 C 30.469446,24.611686 30.42793,24.806762 30.252381,24.928416 C 30.195128,24.973289 30.406372,24.925643 30.456635,24.953176 C 30.735482,25.04058 30.76317,25.328019 30.580631,25.522079 C 30.374346,25.779368 29.864883,25.914143 29.58385,25.771086 C 29.487112,25.728986 29.425485,25.662554 29.402756,25.584758 L 29.402756,25.584758 z M 30.845615,24.83953 C 30.794181,24.615319 30.751925,24.374355 30.939855,24.150575 C 31.144538,23.935972 31.596747,23.846071 31.822128,23.991314 C 32.060476,24.132769 32.13624,24.392089 32.174708,24.620087 C 32.218566,24.818366 32.188415,25.052339 31.942647,25.222654 C 31.719022,25.372426 31.353787,25.422844 31.161914,25.295957 C 30.973829,25.182035 30.907828,25.004299 30.845615,24.83953 z M 31.104935,24.763765 C 31.146606,24.906391 31.192064,25.061983 31.337463,25.174303 C 31.471497,25.247726 31.703284,25.222224 31.836146,25.098969 C 31.987364,24.942206 31.934329,24.760682 31.918591,24.610479 C 31.856378,24.445709 31.829275,24.256609 31.667122,24.135111 C 31.542266,24.044934 31.293725,24.061259 31.160862,24.184513 C 31.005856,24.32831 31.042137,24.500657 31.070841,24.647071 C 31.082206,24.685969 31.09357,24.724867 31.104935,24.763765 L 31.104935,24.763765 z"
       id="text3530"
       style="font-size:1.75px;font-style:normal;font-variant:normal;font-weight:normal;font-stretch:normal;fill:#000000;fill-opacity:1;stroke:none;display:inline;font-family:Arial;-inkscape-font-specification:Arial" />
    <path
       d="M 34.299018,26.448103 C 34.376814,26.425373 34.467576,26.398856 34.541584,26.36316 C 34.597822,26.459312 34.705924,26.540311 34.859914,26.537538 C 35.039837,26.527189 35.222963,26.431468 35.296385,26.297434 C 35.373595,26.176366 35.344891,26.029952 35.262721,25.941377 C 35.176763,25.839836 34.989264,25.824252 34.820706,25.873499 C 34.67808,25.91517 34.550606,26.008704 34.482574,26.113018 C 34.417744,26.131959 34.336159,26.141722 34.258363,26.164452 C 34.255005,25.912123 34.251647,25.659793 34.248289,25.407464 C 34.572439,25.312759 34.89659,25.218053 35.233706,25.119559 C 35.248859,25.171423 35.264011,25.223287 35.279164,25.275151 C 35.006878,25.354704 34.747558,25.430468 34.488238,25.506233 C 34.487222,25.647258 34.482418,25.775316 34.477614,25.903375 C 34.667731,25.735247 34.962161,25.635152 35.216677,25.687446 C 35.407964,25.715995 35.553363,25.828315 35.582067,25.97473 C 35.642679,26.182186 35.505012,26.433499 35.221947,26.572493 C 34.999923,26.679579 34.720061,26.733199 34.513621,26.652786 C 34.403917,26.614474 34.325536,26.538865 34.299018,26.448103 L 34.299018,26.448103 z"
       id="text3534"
       style="font-size:1.75px;font-style:normal;font-variant:normal;font-weight:normal;font-stretch:normal;fill:#000000;fill-opacity:1;stroke:none;display:inline;font-family:Arial;-inkscape-font-specification:Arial" />
    <path
       d="M 35.425878,30.594022 C 35.335116,30.620539 35.25732,30.643269 35.179524,30.665998 C 35.077242,30.315916 34.97496,29.965834 34.872678,29.615751 C 34.756569,29.748184 34.606952,29.862261 34.440581,29.96716 C 34.42164,29.90233 34.406487,29.850466 34.391334,29.798602 C 34.601993,29.652618 34.792109,29.48449 34.863344,29.294804 C 34.928174,29.275863 34.980038,29.26071 35.031903,29.245557 C 35.16449,29.699367 35.297078,30.153177 35.425878,30.594022 z M 35.504965,29.853203 C 35.444353,29.645746 35.405885,29.417748 35.593815,29.193968 C 35.781744,28.970188 36.243131,28.863532 36.481478,29.004987 C 36.723614,29.159408 36.782624,29.40955 36.834058,29.63376 C 36.874127,29.819073 36.843977,30.053046 36.627928,30.228751 C 36.404304,30.378523 36.046645,30.454873 35.82884,30.335562 C 35.640755,30.22164 35.558,30.034727 35.504965,29.853203 L 35.504965,29.853203 z M 35.751319,29.781226 C 35.809743,29.93303 35.842236,30.09241 35.996812,30.187976 C 36.121668,30.278153 36.366421,30.248863 36.48253,30.11643 C 36.650502,29.968845 36.601255,29.800287 36.572551,29.653873 C 36.523304,29.485314 36.483235,29.300002 36.343226,29.157962 C 36.235124,29.076963 36.008727,29.072745 35.855322,29.173856 C 35.692739,29.291721 35.699299,29.458677 35.71125,29.595914 C 35.730191,29.660744 35.732378,29.716396 35.751319,29.781226 L 35.751319,29.781226 z"
       id="text3538"
       style="font-size:1.75px;font-style:normal;font-variant:normal;font-weight:normal;font-stretch:normal;fill:#000000;fill-opacity:1;stroke:none;display:inline;font-family:Arial;-inkscape-font-specification:Arial" />
    <path
       d="M 32.982366,33.742526 C 32.891604,33.769044 32.813808,33.791773 32.736012,33.814503 C 32.63373,33.464421 32.531448,33.114338 32.429166,32.764256 C 32.309269,32.883723 32.159652,32.9978 31.993281,33.102699 C 31.978128,33.050835 31.962975,32.998971 31.947822,32.947107 C 32.158481,32.801123 32.348597,32.632995 32.432798,32.439521 C 32.484662,32.424368 32.536526,32.409215 32.58839,32.394062 C 32.71719,32.834906 32.849778,33.288716 32.982366,33.742526 z M 33.08754,33.331833 C 33.161548,33.296137 33.25231,33.26962 33.330106,33.24689 C 33.377166,33.359796 33.527954,33.442396 33.713266,33.402327 C 33.941265,33.363859 34.127593,33.182765 34.12482,33.028775 C 34.122048,32.874784 34.020937,32.721379 33.79454,32.71716 C 33.584897,32.72212 33.349907,32.832994 33.267307,32.983782 C 33.202477,33.002723 33.120893,33.012487 33.043097,33.035216 C 33.039739,32.782887 33.036381,32.530557 33.036811,32.291194 C 33.360961,32.196489 33.685111,32.101783 34.022227,32.003289 C 34.03738,32.055153 34.052533,32.107017 34.067686,32.158881 C 33.7954,32.238434 33.53608,32.314198 33.27676,32.389963 C 33.271956,32.518022 33.267152,32.64608 33.266136,32.787105 C 33.474608,32.585469 33.85441,32.488576 34.107325,32.583557 C 34.376994,32.687715 34.452759,32.947035 34.311304,33.185382 C 34.210348,33.369679 33.966181,33.497308 33.71225,33.543352 C 33.449142,33.60615 33.174084,33.531712 33.095116,33.357765 C 33.091328,33.344799 33.091328,33.344799 33.08754,33.331833 L 33.08754,33.331833 z"
       id="text3542"
       style="font-size:1.75px;font-style:normal;font-variant:normal;font-weight:normal;font-stretch:normal;fill:#000000;fill-opacity:1;stroke:none;display:inline;font-family:Arial;-inkscape-font-specification:Arial" />
    <path
       d="M 29.301394,31.933058 C 29.316547,31.984922 29.3317,32.036786 29.346853,32.08865 C 28.906009,32.21745 28.465165,32.346249 28.037287,32.471261 C 27.984252,32.289737 28.137071,32.090287 28.301255,31.929736 C 28.470829,31.739464 28.696055,31.547006 28.785646,31.323811 C 28.846102,31.193566 28.7785,31.058516 28.600178,31.026179 C 28.382959,31.005206 28.08314,31.135021 28.050802,31.313343 C 28.027057,31.376572 28.092473,31.455969 27.964414,31.451165 C 27.91255,31.466318 27.860686,31.481471 27.795856,31.500412 C 27.759575,31.328066 27.856742,31.130803 28.074978,31.010751 C 28.332111,30.879334 28.676803,30.806772 28.894608,30.926083 C 29.108625,31.032429 29.104407,31.258826 28.964553,31.454487 C 28.810132,31.696623 28.546008,31.900446 28.361867,32.137192 C 28.31219,32.207997 28.328944,32.217175 28.419706,32.190657 C 28.717924,32.103528 29.003176,32.020187 29.301394,31.933058 z M 29.412974,31.351619 C 29.348574,31.131197 29.306318,30.890233 29.507213,30.662664 C 29.711897,30.448062 30.15114,30.361949 30.389487,30.503403 C 30.627835,30.644858 30.690633,30.907967 30.742067,31.132177 C 30.772958,31.334244 30.742808,31.568217 30.510005,31.734744 C 30.286381,31.884516 29.921146,31.934934 29.716307,31.811835 C 29.541188,31.694125 29.462221,31.520177 29.412974,31.351619 L 29.412974,31.351619 z M 29.659328,31.279643 C 29.713964,31.418481 29.746457,31.577861 29.904822,31.686393 C 30.025889,31.763604 30.270642,31.734314 30.390539,31.614847 C 30.554723,31.454296 30.501688,31.272772 30.472984,31.126357 C 30.423737,30.957799 30.383667,30.772487 30.234481,30.647201 C 30.109625,30.557024 29.861084,30.573348 29.715255,30.700391 C 29.573214,30.8404 29.609495,31.012746 29.6382,31.159161 C 29.636598,31.201847 29.647963,31.240745 29.659328,31.279643 L 29.659328,31.279643 z"
       id="text3546"
       style="font-size:1.75px;font-style:normal;font-variant:normal;font-weight:normal;font-stretch:normal;fill:#000000;fill-opacity:1;stroke:none;display:inline;font-family:Arial;-inkscape-font-specification:Arial" />
    <path
       d="M 28.154733,28.201036 C 28.169886,28.2529 28.185039,28.304764 28.200192,28.356628 C 27.759348,28.485427 27.33147,28.610439 26.890625,28.739238 C 26.841378,28.57068 27.007164,28.367443 27.154594,28.197713 C 27.337134,28.003654 27.56236,27.811195 27.651951,27.588 C 27.712407,27.457755 27.618873,27.330282 27.444339,27.31091 C 27.22712,27.289938 26.940266,27.415965 26.907929,27.594286 C 26.884184,27.657515 26.9496,27.736912 26.821541,27.732108 C 26.769677,27.747261 26.714025,27.749448 26.649195,27.768389 C 26.616702,27.609009 26.713869,27.411747 26.94507,27.287906 C 27.189238,27.160278 27.53393,27.087716 27.764701,27.203239 C 27.965752,27.313372 27.961534,27.539769 27.830858,27.718676 C 27.663471,27.9646 27.403135,28.181389 27.23196,28.414347 C 27.165529,28.475975 27.186071,28.498118 27.273045,28.458635 C 27.571263,28.371506 27.856515,28.288165 28.154733,28.201036 z M 28.35723,27.930781 C 28.447992,27.904263 28.522,27.868568 28.612762,27.84205 C 28.659822,27.954956 28.827364,28.046734 29.012676,28.006665 C 29.253641,27.964409 29.432392,27.757383 29.3999,27.598003 C 29.397127,27.444012 29.260907,27.314937 29.051264,27.319897 C 28.858375,27.334034 28.623385,27.444908 28.553751,27.591908 C 28.472167,27.601671 28.394371,27.624401 28.325753,27.630376 C 28.313217,27.394801 28.309859,27.142472 28.306501,26.890142 C 28.643617,26.791649 28.967767,26.696943 29.291917,26.602237 C 29.30707,26.654101 29.322223,26.705965 29.337376,26.757829 C 29.078056,26.833594 28.818736,26.909358 28.54645,26.988911 C 28.554612,27.113182 28.553596,27.254206 28.548792,27.382265 C 28.757264,27.180629 29.166786,27.089126 29.410524,27.20086 C 29.760175,27.337942 29.74795,27.77777 29.37631,27.998933 C 29.10461,28.176824 28.700476,28.238607 28.484273,28.07661 C 28.430222,28.03611 28.389137,27.991823 28.35723,27.930781 L 28.35723,27.930781 z"
       id="text3550"
       style="font-size:1.75px;font-style:normal;font-variant:normal;font-weight:normal;font-stretch:normal;fill:#000000;fill-opacity:1;stroke:none;display:inline;font-family:Arial;-inkscape-font-specification:Arial" />
    <path
       d="M 28.918735,18.774212 L 33.300852,34.254606 C 32.720154,34.579067 32.42006,35.285947 32.624624,35.986111 C 32.8254,36.67331 33.429138,37.102048 34.087787,37.09256 C 34.194443,37.553946 34.585371,39.325485 34.828989,40.351986 C 35.053665,41.313658 36.248725,41.020793 35.97976,40.100207 C 35.80929,39.516736 35.279094,38.039197 34.865747,36.865266 C 35.396182,36.513272 35.661167,35.830722 35.464179,35.15649 C 35.267191,34.482258 34.672631,34.036765 34.039914,34.038677 L 29.265614,18.757302 L 28.918735,18.774212 z"
       id="p3515"
       style="fill:#000000;fill-opacity:1;fill-rule:evenodd;stroke:none;display:inline" />
    <path
       d="M 34.934604,35.029758 C 35.097498,35.587296 34.802208,36.166118 34.257636,36.325223 C 33.726029,36.48054 33.165563,36.151742 33.00267,35.594203 C 32.839776,35.036665 33.135066,34.457844 33.666672,34.302526 C 34.211245,34.143421 34.771711,34.47222 34.934604,35.029758 z"
       id="p3519"
       style="fill:#415d79;fill-opacity:1;fill-rule:evenodd;stroke:none;marker:none;visibility:visible;display:inline;overflow:visible;enable-background:accumulate" />
    <path
       d="M 46.487612,21.73304 C 39.408198,29.726052 36.796846,42.704187 39.274729,54.364294 C 42.159157,53.591926 44.939546,52.174461 47.296551,50.078545 C 55.238748,43.015572 55.633069,31.022925 48.18549,23.305679 C 47.642208,22.746695 47.076783,22.208253 46.487612,21.73304 z"
       id="p3643"
       style="fill:#304458;fill-opacity:0.1;fill-rule:evenodd;stroke:none;display:inline" />
    <path
       d="M 34.766046,35.079005 C 34.902422,35.545781 34.658411,36.011111 34.2046,36.143699 C 33.763756,36.272499 33.307604,36.011733 33.171228,35.544957 C 33.034851,35.07818 33.278863,34.61285 33.719707,34.48405 C 34.173518,34.351463 34.62967,34.612229 34.766046,35.079005 z"
       id="p3522"
       style="fill:#1b2631;fill-opacity:1;fill-rule:evenodd;stroke:none;marker:none;visibility:visible;display:inline;overflow:visible;enable-background:accumulate" />
    <path
       d="M 48.899087,24.110432 C 40.867789,38.334344 30.268995,50.465686 16.36333,44.776001 C 17.171788,46.242606 18.157981,47.643209 19.388341,48.916184 C 26.822954,56.637218 39.354353,57.141517 47.296551,50.078545 C 54.973023,43.262082 55.576712,31.84154 48.899087,24.110432 z"
       id="p3655"
       style="fill:#385068;fill-opacity:0.1;fill-rule:evenodd;stroke:none;display:inline" />
    <path
       d="M 48.181702,23.292713 C 55.633069,31.022925 55.238748,43.015572 47.283585,50.082333 C 39.328421,57.149093 26.845098,56.616676 19.393731,48.886464 C 11.942364,41.156252 12.349651,29.159817 20.291848,22.096844 C 28.247011,15.030084 40.730335,15.562501 48.181702,23.292713 z"
       id="p3612"
       style="fill:#71a2d3;fill-opacity:0.35;fill-rule:evenodd;stroke:none;marker:none;visibility:visible;display:inline;overflow:visible;enable-background:accumulate" />
    <path
       d="M 17.637378,20.043758 C 17.529862,20.061098 17.40399,20.111946 17.324592,20.177362 C 16.477154,20.889357 14.48101,22.823551 13.823843,23.705119 C 13.490945,23.577216 12.597426,22.782812 12.331271,23.268685 C 12.065115,23.754558 10.78546,25.732728 10.512899,26.389346 C 10.240338,27.045964 10.237721,27.229674 10.438772,27.339808 C 10.639823,27.449941 11.075433,27.688563 11.4905,27.905042 C 11.239498,28.442779 10.289574,31.886693 10.24341,32.547529 C 10.20744,33.050586 10.612314,33.424844 11.205117,33.575321 C 11.221872,33.584499 11.231049,33.567745 11.244015,33.563956 C 11.756764,31.176574 12.208471,28.821099 13.591113,26.376583 C 14.960788,23.935855 17.296235,21.958819 18.607952,20.379392 C 18.274469,20.153151 17.933995,19.999315 17.637378,20.043758 z"
       id="p3614"
       style="fill:#8bc7ff;fill-opacity:1;fill-rule:evenodd;stroke:none;display:inline" />
    <path
       d="M 26.131677,16.267316 C 26.131677,16.267316 27.152633,15.715716 27.829052,15.574381 C 28.509259,15.446011 29.521779,15.347207 29.521779,15.347207 L 28.659235,12.587635 C 28.659235,12.587635 30.087957,11.649517 31.068689,10.574904 C 32.062386,9.4965028 30.190872,8.6782345 29.574323,8.5909859 C 28.974529,8.5129151 23.470968,10.050505 22.880507,10.293381 C 22.299223,10.519504 20.895848,11.351706 21.891219,12.735555 C 22.553537,13.653799 25.233867,13.194372 25.233867,13.194372 L 26.131677,16.267316 z"
       id="p3648"
       style="fill:#18222c;fill-opacity:1;fill-rule:evenodd;stroke:none;display:inline" />
    <path
       d="M 23.815446,17.732116 C 25.89364,16.801264 28.426659,15.5968 32.278615,15.58314"
       id="p3651"
       style="fill:none;fill-rule:evenodd;stroke:#10171e;stroke-width:0.67540348;stroke-linecap:round;stroke-linejoin:miter;stroke-miterlimit:4;stroke-dasharray:none;stroke-opacity:0.67000002;display:inline" />
    <path
       d="M 25.187476,11.01257 C 25.750404,10.819956 26.843922,10.61305 27.146514,10.637225"
       id="p3662"
       style="fill:none;fill-rule:evenodd;stroke:#6c9bca;stroke-width:2.16129112;stroke-linecap:round;stroke-linejoin:miter;stroke-miterlimit:4;stroke-dasharray:none;stroke-opacity:0.41999996;display:inline" />
    <path
       d="M 25.361424,10.933603 C 25.644489,10.79461 26.02269,10.740403 26.269044,10.668427"
       id="p3653"
       style="fill:none;fill-rule:evenodd;stroke:#b3ffff;stroke-width:1.35080695px;stroke-linecap:round;stroke-linejoin:miter;stroke-opacity:0.77999998;display:inline" />
    <path
       d="M 26.684614,13.150479 L 27.334432,15.085616"
       id="p3664"
       style="fill:none;fill-rule:evenodd;stroke:#385068;stroke-width:0.54032278;stroke-linecap:round;stroke-linejoin:miter;stroke-miterlimit:4;stroke-dasharray:none;stroke-opacity:0.68999999;display:inline" />
    <path
       d="M 25.641788,13.145556 C 25.958362,13.024918 27.096168,12.776927 27.420318,12.682221"
       id="p3660"
       style="fill:none;fill-rule:evenodd;stroke:#a4ebff;stroke-width:0.40524212;stroke-linecap:round;stroke-linejoin:miter;stroke-miterlimit:4;stroke-dasharray:none;stroke-opacity:0.9;display:inline" />
    <path
       d="M 24.852952,5.0027131 L 24.274011,5.6221895 L 23.247355,5.5281054 L 22.59339,6.3243018 L 21.9158,6.2689604 L 21.418013,7.1180366 L 21.374311,7.25746 L 21.485926,7.9284896 L 23.115771,9.6054421 C 23.063907,9.620595 23.025009,9.6319596 22.986111,9.6433243 C 23.878734,9.6639862 24.557184,9.2406012 25.781964,8.9531262 C 26.834397,8.7019322 27.87984,8.5231446 28.665221,7.9840813 C 28.626323,7.995446 28.587425,8.0068107 28.548527,8.0181754 L 28.90088,5.8043106 L 28.806174,5.4801604 L 28.355841,4.950311 L 27.979827,5.0601695 L 27.444277,4.8648191 L 26.690648,5.1272224 L 26.1583,4.8464995 L 25.581976,5.2822649 L 24.852952,5.0027131 z"
       id="p3666"
       style="fill:#19232e;fill-opacity:0.81999972;fill-rule:evenodd;stroke:none;display:inline" />
    <path
       d="M 24.852952,5.0027131 L 24.274011,5.6221895 L 23.247355,5.5281054 L 22.991393,5.8561991 L 24.640956,9.2864901 C 24.98725,9.171242 25.333543,9.0559939 25.781964,8.9531262 C 26.299003,8.8442834 26.829008,8.7316524 27.312538,8.604454 L 27.053696,5.0211521 L 26.690648,5.1272224 L 26.1583,4.8464995 L 25.581976,5.2822649 L 24.852952,5.0027131 z"
       id="p3679"
       style="fill:#30455a;fill-opacity:0.51000001;fill-rule:evenodd;stroke:none;display:inline" />
    <path
       d="M 19.83818,11.970322 L 21.261549,12.314393"
       id="p3709"
       style="fill:none;fill-rule:evenodd;stroke:#9bddff;stroke-width:0.67540348;stroke-linecap:round;stroke-linejoin:miter;stroke-miterlimit:4;stroke-dasharray:none;stroke-opacity:0.91000001;display:inline" />
    <path
       d="M 29.046087,4.3264608 L 29.785304,4.4482336"
       id="p3712"
       style="fill:none;fill-rule:evenodd;stroke:#b3ffff;stroke-width:0.67540348;stroke-linecap:round;stroke-linejoin:miter;stroke-miterlimit:4;stroke-dasharray:none;stroke-opacity:0.82999998;display:inline" />
    <path
       d="M 11.701983,26.027863 C 11.85129,25.238383 12.903687,23.73472 12.903687,23.73472"
       id="p3624"
       style="fill:none;fill-rule:evenodd;stroke:#18222c;stroke-width:0.81048423;stroke-linecap:round;stroke-linejoin:miter;stroke-miterlimit:4;stroke-dasharray:none;stroke-opacity:0.67000002" />
    <path
       d="M 12.336613,26.658668 L 11.50925,26.379702"
       id="p3628"
       style="fill:none;fill-rule:evenodd;stroke:#b1fdff;stroke-width:0.93205678;stroke-linecap:round;stroke-linejoin:miter;stroke-miterlimit:4;stroke-dasharray:none;stroke-opacity:0.86000001" />
    <path
       d="M 10.599873,26.349862 L 10.599873,26.349862 L 11.852652,27.02523 L 12.057646,27.486031 L 11.621331,28.063837"
       id="p3616"
       style="fill:none;fill-rule:evenodd;stroke:#000000;stroke-width:0.27016139;stroke-linecap:butt;stroke-linejoin:miter;stroke-miterlimit:4;stroke-dasharray:none;stroke-opacity:1" />
    <path
       d="M 28.90088,5.8043106 L 28.717874,4.9852654 C 28.717874,4.9852654 27.857707,3.8715155 24.369852,4.8905482 C 20.881997,5.909581 21.352597,7.0386392 21.352597,7.0386392"
       id="p3675"
       style="fill:none;fill-opacity:1;fill-rule:evenodd;stroke:#000000;stroke-width:0.27016139;stroke-linecap:butt;stroke-linejoin:miter;stroke-miterlimit:4;stroke-dasharray:none;stroke-opacity:1;display:inline" />
    <path
       d="M 48.181702,23.292713 C 55.633069,31.022925 55.238748,43.015572 47.283585,50.082333 C 39.328421,57.149093 26.845098,56.616676 19.393731,48.886464 C 11.942364,41.156252 12.349651,29.159817 20.291848,22.096844 C 28.247011,15.030084 40.730335,15.562501 48.181702,23.292713 z"
       id="p3398"
       style="fill:none;fill-opacity:1;fill-rule:evenodd;stroke:#84bcf4;stroke-width:0.54032278;stroke-linecap:butt;stroke-linejoin:miter;marker:none;stroke-miterlimit:4;stroke-dasharray:none;stroke-dashoffset:0;stroke-opacity:1;visibility:visible;display:inline;overflow:visible;enable-background:accumulate" />
    <path
       d="M 11.359538,33.333185 C 12.083065,29.885052 13.504533,24.924235 18.466497,20.61774"
       id="p3630"
       style="fill:none;fill-rule:evenodd;stroke:#425e7a;stroke-width:0.40524212;stroke-linecap:butt;stroke-linejoin:miter;stroke-miterlimit:4;stroke-dasharray:none;stroke-opacity:1" />
    <path
       d="M 13.153077,27.911841 C 13.536787,26.913148 14.253825,25.802995 14.631285,25.312749"
       id="p3619"
       style="fill:none;fill-rule:evenodd;stroke:#1f2c39;stroke-width:0.81048423;stroke-linecap:round;stroke-linejoin:miter;stroke-miterlimit:4;stroke-dasharray:none;stroke-opacity:0.5" />
    <path
       d="M 10.978099,32.220296 L 11.13338,31.499434"
       id="p3626"
       style="fill:none;fill-rule:evenodd;stroke:#b3ffff;stroke-width:0.93205678;stroke-linecap:round;stroke-linejoin:miter;stroke-miterlimit:4;stroke-dasharray:none;stroke-opacity:0.76999996" />
    <path
       d="M 14.982347,23.816974 L 15.518016,23.097557"
       id="p3632"
       style="fill:none;fill-rule:evenodd;stroke:#aef9ff;stroke-width:0.67540348;stroke-linecap:round;stroke-linejoin:miter;stroke-miterlimit:4;stroke-dasharray:none;stroke-opacity:0.83999999" />
    <path
       d="M 35.33263,25.217312 C 37.337629,27.263132 38.608835,30.409928 38.913805,32.079925"
       id="p3634"
       style="fill:none;fill-rule:evenodd;stroke:#b1fdff;stroke-width:6.2002039;stroke-linecap:round;stroke-linejoin:miter;stroke-miterlimit:4;stroke-dasharray:none;stroke-opacity:0.21000001" />
    <path
       d="M 27.80188,43.41831 C 29.058447,44.106643 31.571582,45.48331 32.856543,45.642655"
       id="p3636"
       style="fill:none;fill-rule:evenodd;stroke:#affaff;stroke-width:5.94355059;stroke-linecap:round;stroke-linejoin:miter;stroke-miterlimit:4;stroke-dasharray:none;stroke-opacity:0.21000001" />
    <path
       d="M 23.825543,9.1447604 L 22.935932,7.448556"
       id="p3682"
       style="fill:none;fill-rule:evenodd;stroke:#6a97c4;stroke-width:0.54032278;stroke-linecap:round;stroke-linejoin:miter;stroke-miterlimit:4;stroke-dasharray:none;stroke-opacity:0.68999999" />
    <path
       d="M 24.262444,8.665293 L 23.912481,7.8528085"
       id="p3684"
       style="fill:none;fill-opacity:1;fill-rule:evenodd;stroke:#7aaee2;stroke-width:0.54032278;stroke-linecap:round;stroke-linejoin:miter;marker:none;stroke-miterlimit:4;stroke-dasharray:none;stroke-dashoffset:0;stroke-opacity:0.46000001;visibility:visible;display:inline;overflow:visible;enable-background:accumulate" />
    <path
       d="M 27.01518,8.2128568 L 26.925087,6.1704779"
       id="p3686"
       style="fill:none;fill-opacity:1;fill-rule:evenodd;stroke:#7db3e9;stroke-width:0.54032278;stroke-linecap:round;stroke-linejoin:miter;marker:none;stroke-miterlimit:4;stroke-dasharray:none;stroke-dashoffset:0;stroke-opacity:0.33000004;visibility:visible;display:inline;overflow:visible;enable-background:accumulate" />
    <path
       d="M 27.488362,7.9057357 L 27.575025,7.1908487"
       id="p3688"
       style="fill:none;fill-opacity:1;fill-rule:evenodd;stroke:#6a97c4;stroke-width:0.54032278;stroke-linecap:round;stroke-linejoin:miter;marker:none;stroke-miterlimit:4;stroke-dasharray:none;stroke-dashoffset:0;stroke-opacity:0.68999999;visibility:visible;display:inline;overflow:visible;enable-background:accumulate" />
    <path
       d="M 23.016034,6.5667123 L 23.409818,6.3250068"
       id="p3692"
       style="fill:none;fill-rule:evenodd;stroke:#b2feff;stroke-width:0.81048423;stroke-linecap:round;stroke-linejoin:miter;stroke-miterlimit:4;stroke-dasharray:none;stroke-opacity:0.88999999" />
    <path
       d="M 26.892869,5.4340327 L 27.301376,5.4835545"
       id="p3694"
       style="fill:none;fill-rule:evenodd;stroke:#b1fdff;stroke-width:0.54032278;stroke-linecap:round;stroke-linejoin:miter;stroke-miterlimit:4;stroke-dasharray:none;stroke-opacity:0.88999999" />
    <path
       d="M 24.237181,6.603973 L 24.918476,8.8395154"
       id="p3696"
       style="fill:none;fill-rule:evenodd;stroke:#486786;stroke-width:0.54032278;stroke-linecap:round;stroke-linejoin:miter;stroke-miterlimit:4;stroke-dasharray:none;stroke-opacity:0.36000001" />
    <path
       d="M 26.062496,6.830609 L 26.338761,8.3541923"
       id="p3698"
       style="fill:none;fill-rule:evenodd;stroke:#486786;stroke-width:0.54032278;stroke-linecap:round;stroke-linejoin:miter;stroke-miterlimit:4;stroke-dasharray:none;stroke-opacity:0.36000001;display:inline" />
    <path
       d="M 21.470546,5.0339872 C 21.09832,5.1568118 20.742848,5.2888141 20.443029,5.4186296 C 17.859161,6.4972222 16.550957,8.6666801 17.096461,10.533785 C 17.278296,11.156153 17.604514,12.031866 18.430431,12.69122 C 19.256347,13.350575 20.459294,13.759045 22.273244,13.946783 L 22.285624,13.844657 C 22.862259,14.084295 23.631783,14.309796 24.646489,14.266643 C 24.82934,14.747987 25.133569,15.981944 25.270531,16.547059 C 22.872991,17.444557 20.618818,18.736426 18.658215,20.406926 C 18.196087,20.077541 17.673503,19.878403 17.324592,20.177362 C 16.477154,20.889357 14.48101,22.823551 13.823843,23.705119 C 13.490945,23.577216 12.597426,22.782812 12.331271,23.268685 C 12.065115,23.754558 10.78546,25.732728 10.512899,26.389346 C 10.240338,27.045964 10.237721,27.229674 10.438772,27.339808 C 10.639823,27.449941 11.075433,27.688563 11.4905,27.905042 C 11.239498,28.442779 10.289574,31.886693 10.24341,32.547529 C 10.211228,33.063552 10.638246,33.417267 11.244015,33.563956 C 9.6950627,43.29048 14.924045,53.288369 24.548084,57.569241 C 36.00634,62.63706 49.379215,57.688574 54.38935,46.514553 C 59.399485,35.340533 54.166332,22.149338 42.708075,17.081519 C 38.680224,15.28896 34.413046,14.74844 30.358164,15.271717 C 30.226162,14.916245 29.667846,13.390631 29.547639,12.834694 C 30.159658,12.472936 30.589568,12.065875 30.924927,11.672366 C 32.094915,10.908351 33.347503,9.9935488 33.872082,8.6581697 C 34.409628,7.3190023 33.909737,5.9451914 33.049141,5.0708047 C 32.179367,4.2131722 30.985012,3.6896086 29.754102,3.5707637 C 28.552912,3.4573083 26.93638,3.7044393 25.186985,4.0748251 C 23.886011,4.3423432 22.574258,4.6693018 21.470546,5.0339872 z M 21.205753,7.3067069 C 21.257617,7.291554 21.322447,7.2726129 21.374311,7.25746 L 21.485926,7.9284896 L 23.115771,9.6054421 C 22.908315,9.6660537 22.752723,9.7115124 22.545267,9.772124 C 21.676544,10.025935 20.806687,11.335538 20.806687,11.335538 C 20.806687,11.335538 20.874875,11.568926 20.890028,11.62079 C 20.323157,11.462736 19.941597,11.264613 19.717817,11.076684 C 19.31513,10.758079 19.189103,10.471225 19.041362,9.9655509 C 18.923927,9.5636047 19.325252,8.0953629 21.205753,7.3067069 z M 28.840268,5.5968545 C 29.131495,5.5821318 29.376248,5.5528417 29.537815,5.5760012 C 30.317532,5.6437232 31.166023,6.0431716 31.623346,6.5006146 C 32.067704,6.9618459 32.233215,7.3356731 31.988187,7.9420281 C 31.92613,8.11496 31.680947,8.3836132 31.374722,8.6841736 C 31.344416,8.5804456 31.257287,8.2822275 31.257287,8.2822275 C 31.257287,8.2822275 29.780298,7.6582939 28.911575,7.912105 C 28.781915,7.9499873 28.665221,7.9840813 28.548527,8.0181754 L 28.90088,5.8043106 L 28.840268,5.5968545 z"
       id="stroke01"
       style="fill:none;fill-opacity:0.5;fill-rule:evenodd;stroke:#000000;stroke-width:0.67540348;stroke-linecap:butt;stroke-linejoin:miter;marker:none;stroke-miterlimit:4;stroke-dasharray:none;stroke-dashoffset:0;stroke-opacity:1;visibility:visible;display:inline;overflow:visible;enable-background:accumulate" />
  </g>
</svg>
