<?xml version="1.0" encoding="UTF-8" standalone="no"?>
<svg
   xmlns:dc="http://purl.org/dc/elements/1.1/"
   xmlns:cc="http://creativecommons.org/ns#"
   xmlns:rdf="http://www.w3.org/1999/02/22-rdf-syntax-ns#"
   xmlns:svg="http://www.w3.org/2000/svg"
   xmlns="http://www.w3.org/2000/svg"
   id="svg2"
   viewBox="0 0 640 480"
   height="100%"
   width="100%"
   version="1.0">
  <metadata
     id="metadata172">
    <rdf:RDF>
      <cc:Work
         rdf:about="">
        <dc:format>image/svg+xml</dc:format>
        <dc:type
           rdf:resource="http://purl.org/dc/dcmitype/StillImage" />
        <dc:title></dc:title>
      </cc:Work>
    </rdf:RDF>
  </metadata>
  <defs
     id="defs3" />
  <g
     id="splashbg"
     style="opacity:0.8">
    <rect
       id="rect6"
       style="fill:black;fill-opacity:0.95;"
       height="480"
       width="640"
       y="0"
       x="0" />
    <path
       id="path8"
       style="fill:black;"
       d="M 0 0 L 0 10 L 640 10 L 640 0 L 0 0 z M 0 20 L 0 30 L 640 30 L 640 20 L 0 20 z M 0 40 L 0 50 L 640 50 L 640 40 L 0 40 z M 0 60 L 0 70 L 640 70 L 640 60 L 0 60 z M 0 80 L 0 90 L 640 90 L 640 80 L 0 80 z M 0 100 L 0 110 L 640 110 L 640 100 L 0 100 z M 0 120 L 0 130 L 640 130 L 640 120 L 0 120 z M 0 140 L 0 150 L 640 150 L 640 140 L 0 140 z M 0 160 L 0 170 L 640 170 L 640 160 L 0 160 z M 0 180 L 0 190 L 640 190 L 640 180 L 0 180 z M 0 200 L 0 210 L 640 210 L 640 200 L 0 200 z M 0 220 L 0 230 L 640 230 L 640 220 L 0 220 z M 0 240 L 0 250 L 640 250 L 640 240 L 0 240 z M 0 260 L 0 270 L 640 270 L 640 260 L 0 260 z M 0 280 L 0 290 L 640 290 L 640 280 L 0 280 z M 0 300 L 0 310 L 640 310 L 640 300 L 0 300 z M 0 320 L 0 330 L 640 330 L 640 320 L 0 320 z M 0 340 L 0 350 L 640 350 L 640 340 L 0 340 z M 0 360 L 0 370 L 640 370 L 640 360 L 0 360 z M 0 380 L 0 390 L 640 390 L 640 380 L 0 380 z M 0 400 L 0 410 L 640 410 L 640 400 L 0 400 z M 0 420 L 0 430 L 640 430 L 640 420 L 0 420 z M 0 440 L 0 450 L 640 450 L 640 440 L 0 440 z M 0 460 L 0 470 L 640 470 L 640 460 L 0 460 z " />
  </g>
  <path
     id="path3572"
     d="M 63.359375 82.929688 C 60.625605 82.929688 58.238994 84.371179 56.648438 86.359375 C 55.505226 85.762916 54.311659 85.414064 52.919922 85.414062 C 49.490283 85.414062 46.508049 87.402472 45.166016 90.384766 C 44.470148 90.185947 43.625356 90.085935 42.830078 90.085938 C 39.947193 90.085938 37.562336 91.479 36.021484 93.666016 C 32.094796 94.461294 29.162109 97.890128 29.162109 102.01562 C 29.162109 104.25236 29.957871 106.2404 31.349609 107.78125 C 30.256101 109.22269 29.658203 110.96385 29.658203 112.90234 C 29.658203 114.39349 30.056084 115.73481 30.751953 116.92773 C 28.912871 118.51829 27.769531 120.75519 27.769531 123.33984 C 27.769531 127.16712 30.304936 130.49722 33.833984 131.54102 L 33.833984 131.83984 C 33.833984 135.73848 36.446247 139.02049 40.013672 140.04883 C 40.430516 141.49073 41.144924 142.81329 42.085938 143.9668 C 39.998331 145.955 38.65625 148.78852 38.65625 151.91992 C 38.65625 153.7093 39.103158 155.34977 39.898438 156.89062 C 38.556404 158.67999 37.710938 160.81641 37.710938 163.25195 C 37.710938 167.82695 40.936718 168.43749 44.972656 169.40625 C 45.162201 170.25099 45.347477 171.09284 45.564453 171.95117 C 41.935995 174.78435 39.5 179.35608 39.5 184.52539 C 39.5 192.57751 45.254319 199.27794 52.597656 200.09766 C 28.099532 212.16888 26.651069 230.72407 27.269531 239.69336 C 27.287218 239.99413 27.298397 240.31529 27.322266 240.59375 C 27.502861 242.74083 28.4613 244.63953 29.886719 246.20898 C 29.899602 246.22339 29.912821 246.23761 29.925781 246.25195 C 30.07307 246.41252 30.221966 246.57122 30.378906 246.72461 C 30.710116 247.05403 31.073523 247.35445 31.443359 247.65039 C 31.59758 247.77129 31.751937 247.89099 31.912109 248.00586 C 33.786073 249.37932 36.040535 250.33196 38.357422 250.73047 L 38.357422 250.83203 C 38.362115 250.85126 38.366392 250.86947 38.371094 250.88867 L 38.308594 250.88281 C 40.208172 258.64711 42.841312 264.34762 45.6875 268.48242 C 45.758099 268.58624 45.829533 268.68918 45.900391 268.79102 C 46.228599 269.25702 46.557819 269.70011 46.890625 270.125 C 47.085564 270.37695 47.280466 270.62916 47.476562 270.86719 C 47.633029 271.0548 47.790244 271.22919 47.947266 271.4082 C 51.421768 275.41809 55.000461 277.3232 57.847656 277.8457 C 57.650185 295.7843 61.81787 299.04534 66.964844 299.0957 C 65.014283 301.71593 63.808594 305.00435 63.808594 308.59766 C 63.808594 316.65941 69.632112 323.34389 77.017578 324.03906 C 76.667658 324.21808 76.315098 324.39629 75.974609 324.57812 C 75.693082 324.72837 75.421728 324.88107 75.146484 325.0332 C 74.747818 325.25374 74.352294 325.47492 73.966797 325.69922 C 73.679134 325.86641 73.397712 326.03586 73.117188 326.20508 C 72.800145 326.39656 72.487626 326.58926 72.179688 326.7832 C 71.835318 326.99979 71.49344 327.21601 71.160156 327.43555 C 70.960091 327.56755 70.766396 327.70097 70.570312 327.83398 C 52.550463 340.03685 51.086904 356.47289 51.744141 364.14062 C 52.187317 369.40949 57.30843 373.20112 62.675781 374.13672 L 62.675781 374.28516 C 67.747681 395.06518 77.989957 401.2207 83.603516 401.2207 C 88.46481 401.2207 91.448708 393.47989 98.560547 391.52344 C 98.677761 391.49148 98.798449 391.46438 98.917969 391.43555 C 99.056043 391.40198 99.192801 391.367 99.333984 391.33789 C 99.44191 391.31577 99.55426 391.29876 99.664062 391.2793 C 100.37686 391.15236 101.12482 391.07617 101.92188 391.07617 C 109.65282 391.07617 120.09284 392.84989 132.05859 387.23633 L 132.35352 387.53125 C 135.40651 391.56908 138.65714 396.24754 143.43359 393.98242 C 149.68487 391.01707 156.56038 379.61444 158.44141 367.16211 C 158.45501 367.07299 158.46738 366.98376 158.48047 366.89453 C 158.66918 365.59407 158.80452 364.28453 158.87695 362.9707 C 158.89944 362.57417 158.91856 362.178 158.92969 361.78125 C 158.93666 361.5181 158.93955 361.25527 158.94141 360.99219 C 158.94531 360.53543 158.93972 360.07903 158.92773 359.62305 C 158.92279 359.44453 158.91955 359.26621 158.91211 359.08789 C 158.85611 357.69808 158.72402 356.31596 158.50781 354.94922 C 158.50552 354.93483 158.50231 354.92064 158.5 354.90625 C 158.39259 354.23296 158.26242 353.5644 158.11328 352.90039 C 158.10417 352.85999 158.0952 352.81966 158.08594 352.7793 C 157.61192 350.70697 156.92933 348.68815 156.00977 346.75586 C 155.99601 346.72694 155.98066 346.6988 155.9668 346.66992 C 155.05235 344.76571 153.90751 342.94821 152.50391 341.25195 C 152.43181 341.16462 152.35666 341.07887 152.2832 340.99219 C 151.89752 340.53816 151.49232 340.09361 151.06836 339.6582 C 150.94216 339.52825 150.82106 339.3958 150.69141 339.26758 C 150.55722 339.13522 150.42112 339.00351 150.2832 338.87305 C 149.91579 338.52453 149.53879 338.18022 149.14453 337.8457 L 148.76367 337.76953 C 153.76589 331.48135 159.22874 320.12366 162.59961 307.13672 C 164.68834 314.19258 167.59978 316.5817 171.30273 310.12305 C 175.53752 302.73679 169.08855 291.06703 174.35742 284.71484 C 170.36476 264.75153 160.71659 237.22404 134.7832 229.72461 C 133.5523 223.85402 130.71769 218.36025 125.63867 214.05078 L 125.25195 213.97266 C 132.27637 205.14273 140.23571 186.41685 142.09375 167.13281 C 144.99338 165.17038 146.91211 161.8618 146.91211 158.13281 C 146.91211 156.24402 146.51491 154.3553 145.66992 152.81445 C 146.51491 151.2736 146.91211 149.43371 146.91211 147.54492 C 146.91211 143.41942 144.57611 139.94151 141.14648 138.05273 C 142.14057 136.41246 142.73828 134.37384 142.73828 132.33594 C 142.73828 126.27194 137.86585 121.45117 131.85156 121.45117 C 131.65274 121.45117 131.40585 121.59961 131.20703 121.59961 C 130.31235 118.56761 128.17498 116.23177 125.3418 114.93945 C 123.80094 110.71453 119.8244 107.63281 115.05273 107.63281 C 112.6669 107.63281 110.52853 108.47828 108.68945 109.82031 C 107.19831 105.54569 103.22284 102.51367 98.451172 102.51367 C 96.413271 102.51367 94.62376 103.1103 93.033203 104.05469 C 91.88999 103.65705 90.695747 103.45703 89.453125 103.45703 C 89.260519 103.45703 89.07936 103.47006 88.892578 103.47656 C 89.251398 102.54783 89.453125 101.54246 89.453125 100.47461 C 89.453125 95.752639 85.626263 91.925781 80.904297 91.925781 C 80.307838 91.925781 79.761598 92.12432 79.214844 92.273438 C 78.220746 88.595275 74.939283 85.861328 70.962891 85.861328 C 70.565252 85.861328 70.219028 86.010842 69.871094 86.060547 C 68.280537 84.17176 65.94403 82.929688 63.359375 82.929688 z M 237.99609 130.625 C 236.54406 130.61859 235.06252 130.654 233.55273 130.73633 C 185.23956 133.37069 169.43442 166.77382 174.70312 205.39453 C 179.69134 242.00615 166.60562 245.56817 189.06641 254.78516 C 181.50851 272.53922 192.62668 296.91331 202.23828 301.47266 C 207.05966 303.75909 210.43978 298.8883 213.52148 294.8125 L 213.77148 294.56445 C 225.84977 300.23081 236.38578 298.44141 244.18945 298.44141 C 246.22735 298.44141 247.96695 298.93801 249.50781 299.68359 L 249.57031 299.64453 C 255.35914 302.34088 258.2543 308.68164 262.67969 308.68164 C 268.34604 308.68164 278.68508 302.46766 283.80469 281.49219 L 283.80469 281.34375 C 289.22252 280.39935 294.39249 276.57038 294.83984 271.25195 C 295.28936 266.00751 294.75363 256.69826 288.70898 247.4082 C 310.619 232.56613 315.18583 205.00818 308.25977 189.58789 C 300.55551 172.59037 283.00912 130.82381 237.99609 130.625 z M 57.542969 199.73633 C 57.7054 199.9747 57.874524 200.19476 58.039062 200.42773 L 56.091797 200.03516 C 56.584173 199.96195 57.069258 199.86552 57.542969 199.73633 z M 52.744141 200.10742 C 52.776359 200.11067 52.809541 200.11019 52.841797 200.11328 C 52.813743 200.12762 52.785808 200.14189 52.757812 200.15625 L 52.744141 200.10742 z M 81.683594 323.66406 C 81.84513 323.90112 82.014095 324.11988 82.177734 324.35156 L 80.242188 323.96094 C 80.731212 323.88835 81.21314 323.79237 81.683594 323.66406 z "
     style="display:inline;overflow:visible;visibility:visible;fill:none;fill-opacity:1;fill-rule:nonzero;stroke:#ffffff;stroke-width:20;stroke-linecap:butt;stroke-linejoin:miter;stroke-miterlimit:4;stroke-dasharray:none;stroke-dashoffset:0;stroke-opacity:0.78431373;marker:none;enable-background:accumulate;color:#000000;clip-rule:nonzero;opacity:1;isolation:auto;mix-blend-mode:normal;color-interpolation:sRGB;color-interpolation-filters:linearRGB;solid-color:#000000;solid-opacity:1;filter-blend-mode:normal;filter-gaussianBlur-deviation:0;color-rendering:auto;image-rendering:auto;shape-rendering:auto;text-rendering:auto" />
  <rect
     style="fill:#ffffe6;fill-opacity:0.82727272;fill-rule:evenodd;stroke:#ffffff;stroke-width:5;stroke-linecap:round;stroke-linejoin:round"
     id="rect3819"
     y="25.69343"
     x="-33.868614"
     ry="15.386677"
     height="133.13869"
     width="701.89783" />
  <path
     style="display:inline;overflow:visible;visibility:visible;opacity:1;fill:#c18c32;fill-opacity:1;fill-rule:evenodd;stroke:#372517;stroke-width:3.42963839;stroke-linecap:butt;stroke-linejoin:miter;stroke-miterlimit:4;stroke-dasharray:none;stroke-dashoffset:0;stroke-opacity:1;marker:none;enable-background:accumulate"
     id="path4731"
     d="m 278.38704,252.86209 c 30.71763,-12.27712 37.77572,-45.67881 29.87264,-63.27435 -7.95278,-17.54583 -26.3933,-61.48497 -74.70647,-58.85061 -48.31317,2.63436 -64.11933,36.03606 -58.85061,74.65677 5.26872,38.67042 -9.69245,40.45979 18.44052,50.99723 28.08327,10.53744 84.34923,-1.78937 85.24392,-3.52904 z" />
  <path
     d="m 268.29694,230.24635 c 25.3495,12.42623 27.28799,32.30819 26.54242,41.00655 -0.44735,5.31843 -5.61666,9.1457 -11.03449,10.0901 l 0,0.14911 c -5.11961,20.97547 -15.45823,27.18858 -21.12458,27.18858 -5.61666,0 -8.74807,-10.23921 -18.49023,-10.23921 -7.80367,0 -18.34111,1.78938 -30.4194,-3.87698 l -0.29823,0.29823 c -3.0817,4.0758 -6.36223,8.79777 -11.1836,6.51134 -11.63095,-5.51724 -25.44892,-39.96274 -5.76577,-56.66359 l 71.77388,-14.46413 z"
     id="path4735"
     style="display:inline;fill:#9e6f49;fill-opacity:1;fill-rule:evenodd;stroke:none" />
  <path
     d="m 262.23294,231.48898 c -2.13731,13.47003 -2.28642,25.3495 -1.39174,29.82294 7.10781,13.76826 25.44892,16.80026 18.78846,32.00996 -4.52315,2.58465 -9.49364,4.62256 -9.49364,4.62256 l -10.53744,-4.62256 -10.09009,6.36223 c -1.54086,-0.74558 -3.28053,-1.24263 -5.31843,-1.24263 -7.80367,0 -18.34111,1.78938 -30.4194,-3.87698 l -0.29823,0.29823 c -0.0497,0.0497 -0.14912,0.0994 -0.14912,0.14912 l -9.1954,-5.76577 -10.23921,3.42964 c -3.23082,-5.21902 -5.86518,-11.97889 -6.85928,-19.08669 4.22492,-9.39423 10.28892,-20.3293 19.2855,-30.91645 l 55.91802,-11.1836 z"
     id="path4737"
     style="fill:#0000cc;fill-opacity:1;fill-rule:evenodd;stroke:none" />
  <path
     d="m 187.02942,273.58903 c 4.22492,-9.39423 10.28892,-20.3293 19.2855,-30.91645 l 55.91802,-11.1836 c -2.13731,13.47003 -2.28642,25.3495 -1.39174,29.82294 m -56.71329,27.93416 -10.23921,3.42964 m 85.74096,0.64616 c -4.52315,2.58465 -9.49364,4.62256 -9.49364,4.62256 l -10.53744,-4.62256 -10.09009,6.36223"
     id="path4739"
     style="display:inline;overflow:visible;visibility:visible;fill:none;fill-opacity:1;fill-rule:evenodd;stroke:#000059;stroke-width:3.42963839;stroke-linecap:butt;stroke-linejoin:miter;stroke-miterlimit:4;stroke-dasharray:none;stroke-dashoffset:0;stroke-opacity:1;marker:none;enable-background:accumulate" />
  <path
     d="m 260.44356,260.76517 c -2.38583,12.32681 -13.2215,15.90557 -19.53402,13.51973"
     id="path4741"
     style="display:inline;overflow:visible;visibility:visible;fill:none;fill-opacity:1;fill-rule:evenodd;stroke:#000059;stroke-width:3.42963839;stroke-linecap:butt;stroke-linejoin:miter;stroke-miterlimit:4;stroke-dasharray:none;stroke-dashoffset:0;stroke-opacity:1;marker:none;enable-background:accumulate" />
  <path
     d="m 269.44015,230.6937 c 25.3495,12.42622 26.14478,31.81114 25.39921,40.45979 -0.69587,8.69836 -13.96708,13.76826 -20.47842,8.00249 -6.51134,-5.81547 -6.90898,-17.69495 -13.42033,-18.44052"
     id="path4743"
     style="display:inline;overflow:visible;visibility:visible;fill:none;fill-opacity:1;fill-rule:evenodd;stroke:#24211e;stroke-width:4.97049046;stroke-linecap:round;stroke-linejoin:miter;stroke-miterlimit:4;stroke-dasharray:none;stroke-dashoffset:0;stroke-opacity:1;marker:none;enable-background:accumulate" />
  <path
     d="m 283.85457,281.54182 c -5.1196,20.92576 -15.55763,27.08917 -21.22399,27.08917 -5.61665,0 -8.69836,-10.23921 -18.39081,-10.23921 -9.74217,0 -23.56013,3.0817 -39.4657,-9.24511"
     id="path4745"
     style="display:inline;overflow:visible;visibility:visible;fill:none;fill-opacity:1;fill-rule:evenodd;stroke:#24211e;stroke-width:4.97049046;stroke-linecap:round;stroke-linejoin:miter;stroke-miterlimit:4;stroke-dasharray:none;stroke-dashoffset:0;stroke-opacity:1;marker:none;enable-background:accumulate" />
  <path
     d="m 213.52213,294.81303 c -3.0817,4.0758 -6.46163,8.94688 -11.28301,6.66045 -11.63095,-5.51724 -25.49862,-40.06215 -5.76577,-56.763"
     id="path4747"
     style="display:inline;overflow:visible;visibility:visible;fill:none;fill-opacity:1;fill-rule:evenodd;stroke:#24211e;stroke-width:4.97049046;stroke-linecap:butt;stroke-linejoin:miter;stroke-miterlimit:4;stroke-dasharray:none;stroke-dashoffset:0;stroke-opacity:1;marker:none;enable-background:accumulate" />
  <path
     d="m 197.46745,254.94969 c -6.36223,10.28892 1.34203,17.99318 8.1019,17.99318"
     id="path4749"
     style="display:inline;overflow:visible;visibility:visible;fill:none;fill-opacity:1;fill-rule:evenodd;stroke:#000059;stroke-width:3.42963839;stroke-linecap:butt;stroke-linejoin:miter;stroke-miterlimit:4;stroke-dasharray:none;stroke-dashoffset:0;stroke-opacity:1;marker:none;enable-background:accumulate" />
  <path
     d="m 232.31059,138.59051 c 34.4455,-1.49115 54.42687,23.90806 44.28707,64.01992 3.62846,2.83318 6.064,7.40603 6.064,12.57534 0,8.59895 -6.56105,15.65704 -14.61324,15.65704 -1.19292,0 -2.33614,-0.14911 -3.42964,-0.44734 -3.82728,5.61665 -8.25102,9.74216 -12.72446,12.128 -8.69836,4.57285 -34.79343,15.35881 -50.15225,6.66045 -15.35881,-8.69836 -47.12025,-93.09728 13.81797,-107.95905 5.86517,-1.54085 11.48183,-2.38584 16.75055,-2.63436 z"
     id="path4751"
     style="display:inline;overflow:visible;visibility:visible;fill:#9e6f49;fill-opacity:1;fill-rule:evenodd;stroke:none;marker:none;enable-background:accumulate" />
  <path
     d="m 184.20867,220.43262 c 1.09848,4.05592 4.6822,6.70022 7.97366,5.84529 3.29146,-0.85492 5.02765,-4.88102 3.92917,-8.93694 -1.1114,-4.10363 -4.65685,-6.75788 -7.94831,-5.90295 -3.29146,0.85492 -5.06592,4.89096 -3.95452,8.9946 z"
     id="path4753"
     style="display:inline;overflow:visible;visibility:visible;opacity:1;fill:#e4906d;fill-opacity:0.45;fill-rule:evenodd;stroke:none;marker:none;enable-background:accumulate" />
  <path
     d="m 232.31059,138.59051 c 34.4455,-1.49115 54.42687,23.90806 44.28707,64.01992 3.62846,2.83318 6.064,7.40603 6.064,12.57534 0,8.59895 -6.56105,15.65704 -14.61324,15.65704 -1.19292,0 -2.33614,-0.14911 -3.42964,-0.44734 -3.82728,5.61665 -8.25102,9.74216 -12.72446,12.128 -8.69836,4.57285 -34.79343,15.35881 -50.15225,6.66045 -15.35881,-8.69836 -47.12025,-93.09728 13.81797,-107.95905 5.86517,-1.54085 11.48183,-2.38584 16.75055,-2.63436 z"
     id="path4755"
     style="display:inline;fill:none;fill-rule:evenodd;stroke:#24211e;stroke-width:4.97049046;stroke-linecap:butt;stroke-linejoin:miter;stroke-miterlimit:4;stroke-dasharray:none;stroke-opacity:1" />
  <path
     d="m 277.09471,203.65423 c -4.67226,-3.18111 -8.40013,-0.34793 -11.03449,2.73377 1.73967,4.37403 3.0817,5.71606 3.52905,7.45574 3.0817,-2.18702 5.26872,-0.89469 5.26872,2.18701"
     id="path4757"
     style="display:inline;overflow:visible;visibility:visible;fill:none;fill-opacity:1;fill-rule:evenodd;stroke:#24211e;stroke-width:3.42963839;stroke-linecap:round;stroke-linejoin:miter;stroke-miterlimit:4;stroke-dasharray:none;stroke-dashoffset:0;stroke-opacity:1;marker:none;enable-background:accumulate" />
  <path
     d="m 211.1363,203.40571 c 0,0 -1.49115,10.1398 -5.61666,18.34111 -4.0758,8.1516 10.28892,2.68406 12.62505,2.68406"
     id="path4759"
     style="display:inline;overflow:visible;visibility:visible;fill:none;fill-opacity:1;fill-rule:evenodd;stroke:#24211e;stroke-width:3.42963839;stroke-linecap:round;stroke-linejoin:miter;stroke-miterlimit:4;stroke-dasharray:none;stroke-dashoffset:0;stroke-opacity:1;marker:none;enable-background:accumulate" />
  <path
     d="m 255.47307,180.54145 c -3.62845,10.93508 -7.30662,11.1836 -9.74216,14.81206 -11.1836,-6.56105 -47.76641,-6.71016 -53.83041,-7.30662 0,-5.51724 -0.79528,-10.88537 2.28643,-16.40262 -4.87108,7.30662 -11.58125,25.59803 -10.98479,44.43619 1.83908,15.2097 -9.096,-17.04879 -7.90308,-32.85495 1.19292,-15.80616 14.61324,-51.7428 61.43527,-49.30726 46.87172,2.43554 49.05874,40.5095 44.78411,69.73598 -3.62845,-2.43554 -10.63685,-4.52315 -15.55763,0.24852 -6.064,-6.66045 -7.70426,-12.1777 -10.48774,-23.3613 z"
     id="path4761"
     style="display:inline;overflow:visible;visibility:visible;opacity:1;fill:#c18c32;fill-opacity:1;fill-rule:evenodd;stroke:none;marker:none;enable-background:accumulate" />
  <path
     d="m 265.96081,203.90275 c -6.064,-6.66045 -7.70426,-12.1777 -10.48774,-23.3613 -3.62845,10.93508 -7.30662,11.1836 -9.74216,14.81206 -11.1836,-6.56105 -47.76641,-6.71016 -53.83041,-7.30662 0,-5.51724 -0.79528,-10.88537 2.28643,-16.40262 -4.87108,7.30662 -16.89967,28.13298 -9.99069,48.56169"
     id="path4763"
     style="display:inline;overflow:visible;visibility:visible;opacity:1;fill:none;fill-opacity:1;fill-rule:evenodd;stroke:#372517;stroke-width:3.42963839;stroke-linecap:butt;stroke-linejoin:miter;stroke-miterlimit:4;stroke-dasharray:none;stroke-dashoffset:0;stroke-opacity:1;marker:none;enable-background:accumulate" />
  <path
     d="m 225.3519,209.4697 c 0,3.47935 3.032,6.31253 6.75987,6.31253 3.77757,0 6.75987,-2.83318 6.75987,-6.31253 0,-3.52904 -2.9823,-6.36222 -6.75987,-6.36222 -3.72787,0 -6.75987,2.83318 -6.75987,6.36222 z"
     id="path4765"
     style="display:inline;overflow:visible;visibility:visible;opacity:1;fill:#1d6381;fill-opacity:0.68000034;fill-rule:evenodd;stroke:#24211e;stroke-width:3.42963839;stroke-linecap:round;stroke-linejoin:miter;stroke-miterlimit:4;stroke-dasharray:none;stroke-dashoffset:0;stroke-opacity:1;marker:none;enable-background:accumulate" />
  <path
     d="m 193.98811,207.73003 c 0,3.47935 3.032,6.31253 6.75986,6.31253 3.77758,0 6.75987,-2.83318 6.75987,-6.31253 0,-3.52905 -2.98229,-6.36223 -6.75987,-6.36223 -3.72786,0 -6.75986,2.83318 -6.75986,6.36223 z"
     id="path4767"
     style="display:inline;overflow:visible;visibility:visible;opacity:1;fill:#1d6381;fill-opacity:0.68000034;fill-rule:evenodd;stroke:#24211e;stroke-width:3.42963839;stroke-linecap:round;stroke-linejoin:miter;stroke-miterlimit:4;stroke-dasharray:none;stroke-dashoffset:0;stroke-opacity:1;marker:none;enable-background:accumulate" />
  <path
     d="m 236.68462,236.26065 -37.92484,-3.92669 7.40603,-6.1137"
     id="path4769"
     style="display:inline;overflow:visible;visibility:visible;opacity:1;fill:none;fill-opacity:1;fill-rule:evenodd;stroke:#24211e;stroke-width:3.42963839;stroke-linecap:round;stroke-linejoin:miter;stroke-miterlimit:4;stroke-dasharray:none;stroke-dashoffset:0;stroke-opacity:1;marker:none;enable-background:accumulate" />
  <path
     d="m 240.41249,226.91613 c 0,4.22491 3.47934,7.70426 7.75396,7.70426 4.27463,0 7.70426,-3.47935 7.70426,-7.70426 0,-4.27463 -3.42963,-7.75397 -7.70426,-7.75397 -4.27462,0 -7.75396,3.47934 -7.75396,7.75397 z"
     id="path4771"
     style="display:inline;overflow:visible;visibility:visible;opacity:1;fill:#e4906d;fill-opacity:0.45;fill-rule:evenodd;stroke:none;marker:none;enable-background:accumulate" />
  <path
     id="path3473"
     d="M 536.50586 247.0293 C 533.67268 247.0293 531.03965 247.97477 528.90234 249.51562 C 527.16267 248.67065 525.22433 248.12305 523.13672 248.12305 C 517.61948 248.12305 512.9964 251.60266 511.20703 256.52344 C 510.21293 256.27492 509.31812 256.07617 508.22461 256.07617 C 501.71327 256.07617 496.34498 260.94725 495.5 267.25977 C 488.64072 267.5083 483.07422 273.22383 483.07422 280.13281 C 483.07422 280.82868 483.27365 281.52571 483.37305 282.17188 C 478.8002 284.11038 475.61914 288.63274 475.61914 293.95117 C 475.61914 295.54172 475.86731 297.03317 476.41406 298.47461 C 473.87911 300.81074 472.33789 304.2398 472.33789 307.91797 C 472.33789 311.59613 473.92882 314.77715 476.41406 317.11328 C 476.26495 317.90856 476.06641 318.75463 476.06641 319.59961 C 476.11611 324.27187 478.69899 328.34638 482.47656 330.63281 C 482.87397 328.24838 483.42195 326.11299 483.86914 324.07617 C 483.91809 324.71276 483.97077 325.34869 484.0332 325.98438 C 484.051 326.16637 484.07277 326.34756 484.0918 326.5293 C 486.0745 345.55863 493.91776 363.93229 500.85547 372.6543 L 500.4707 372.73242 C 500.45795 372.74324 500.44632 372.75479 500.43359 372.76562 L 500.42188 372.73242 C 480.68903 389.43327 494.55655 423.97885 506.1875 429.49609 C 511.00888 431.78252 514.38899 426.91174 517.4707 422.83594 L 517.4707 422.83398 L 517.62109 422.68359 C 526.25524 426.76188 534.05688 426.92653 540.68555 426.67969 C 543.37099 426.60399 545.87976 426.46484 548.13672 426.46484 C 557.87888 426.46484 561.01029 436.70312 566.62695 436.70312 C 569.81633 436.70312 574.48703 434.73476 578.87305 429.27344 C 582.30389 425.04955 585.56291 418.71947 587.80273 409.56445 L 587.73828 409.57031 C 587.74283 409.55172 587.74741 409.53424 587.75195 409.51562 L 587.75195 409.41406 C 590.06389 409.01633 592.31391 408.06606 594.18555 406.69727 C 594.34767 406.58124 594.50412 406.46007 594.66016 406.33789 C 595.03209 406.04059 595.39755 405.73739 595.73047 405.40625 C 595.89638 405.2441 596.05388 405.07642 596.20898 404.90625 C 596.21364 404.90107 596.21802 404.89581 596.22266 404.89062 C 597.64808 403.32117 598.60652 401.42247 598.78711 399.27539 C 598.81118 398.99452 598.82206 398.67075 598.83984 398.36719 C 599.45711 389.39479 598.00425 370.84879 573.51367 358.78125 C 580.85609 357.96058 586.60938 351.2604 586.60938 343.20898 C 586.60938 338.03967 584.17338 333.46599 580.54492 330.63281 C 580.64682 330.22971 580.72643 329.83762 580.82227 329.4375 C 587.1777 331.30392 589.05011 339.43194 587.80273 347.92969 C 594.91053 347.92969 598.93555 342.21522 598.93555 335.10742 C 598.93555 334.06362 598.88719 333.16793 598.63867 332.17383 C 602.36653 329.93711 604.85156 325.96132 604.85156 321.28906 C 604.85156 320.04643 604.70253 318.85415 604.4043 317.71094 C 605.3984 315.92157 605.94531 313.8832 605.94531 311.64648 C 605.94531 307.52098 604.05631 303.74238 600.97461 301.40625 C 602.06811 299.51747 602.8125 297.38105 602.8125 295.04492 C 602.8125 289.37856 599.08445 284.60599 593.96484 282.91602 C 594.36248 281.6734 594.76172 280.43079 594.76172 279.03906 C 594.76172 271.98096 588.94482 266.31445 581.88672 266.31445 C 581.04174 266.31445 580.34606 266.31573 579.55078 266.46484 C 578.60639 260.30144 573.38849 255.57812 566.97656 255.57812 C 565.3363 255.57812 563.74417 255.77854 562.30273 256.375 C 560.36424 251.75244 555.64264 248.62109 550.32422 248.62109 C 548.28632 248.62109 546.29935 249.11703 544.60938 250.01172 C 542.37265 248.17264 539.58757 247.0293 536.50586 247.0293 z M 568.56641 358.41797 C 569.04196 358.54766 569.52909 358.6435 570.02344 358.7168 L 568.06836 359.11133 C 568.23333 358.87776 568.40356 358.65695 568.56641 358.41797 z M 573.36719 358.79102 L 573.35352 358.83984 C 573.32551 358.82548 573.29759 358.81122 573.26953 358.79688 C 573.30181 358.79385 573.33497 358.79427 573.36719 358.79102 z "
     style="display:inline;overflow:visible;visibility:visible;fill:none;fill-opacity:1;fill-rule:nonzero;stroke:#ffffff;marker:none;enable-background:accumulate;color:#000000;clip-rule:nonzero;opacity:1;isolation:auto;mix-blend-mode:normal;color-interpolation:sRGB;color-interpolation-filters:linearRGB;solid-color:#000000;solid-opacity:1;stroke-width:20;stroke-linecap:butt;stroke-linejoin:miter;stroke-miterlimit:4;stroke-dasharray:none;stroke-dashoffset:0;stroke-opacity:0.78431373;filter-blend-mode:normal;filter-gaussianBlur-deviation:0;color-rendering:auto;image-rendering:auto;shape-rendering:auto;text-rendering:auto" />
  <path
     style="display:inline;overflow:visible;visibility:visible;fill:#64462e;fill-opacity:1;fill-rule:evenodd;stroke:none;marker:none;enable-background:accumulate"
     id="path4193"
     d="m 572.24454,358.26924 c 25.3495,12.42623 27.28799,32.30819 26.54242,41.00655 -0.44734,5.31843 -5.61665,9.1457 -11.03449,10.0901 l 0,0.14911 c -5.1196,20.97547 -15.45822,27.18858 -21.12458,27.18858 -5.61666,0 -8.74807,-10.23921 -18.49023,-10.23921 -7.80367,0 -18.34111,1.78938 -30.4194,-3.87698 l -0.29823,0.29823 c -3.0817,4.0758 -6.36223,8.79777 -11.1836,6.51134 -11.63095,-5.51724 -25.44891,-39.96274 -5.76577,-56.66359 l 71.77388,-14.46413 z" />
  <path
     style="display:inline;overflow:visible;visibility:visible;opacity:1;fill:#0000cc;fill-opacity:1;fill-rule:evenodd;stroke:none;marker:none;enable-background:accumulate"
     id="path4195"
     d="m 510.41164,370.69547 16.60144,27.48681 26.89035,9.49364 22.51632,-2.18702 11.18361,4.82138 c -1.68997,6.61075 -3.92669,11.63095 -6.36223,15.50793 l -12.87357,-2.63436 -4.97049,5.46754 -7.30662,0.59646 c -2.13731,-1.54085 -4.62256,-2.78348 -7.95279,-2.78348 -7.80367,0 -18.34111,1.78938 -30.4194,-3.87698 l -0.29823,0.29823 c -0.49705,0.64616 -0.89469,1.34203 -1.39174,2.0379 l -8.1019,-7.1575 -10.09009,3.0817 c -8.00249,-12.72446 -12.27711,-35.4893 2.63436,-48.11435 l 9.94098,-2.0379 z" />
  <path
     style="display:inline;overflow:visible;visibility:visible;opacity:1;fill:none;fill-opacity:1;fill-rule:evenodd;stroke:#000059;stroke-width:3.42963839;stroke-linecap:butt;stroke-linejoin:miter;stroke-miterlimit:4;stroke-dasharray:none;stroke-dashoffset:0;stroke-opacity:1;marker:none;enable-background:accumulate"
     id="path4197"
     d="m 510.41164,370.69547 16.60144,27.48681 26.89035,9.49364 22.51632,-2.18702 m -68.49336,12.27712 -10.09009,3.0817 m 83.40483,4.97049 -12.87357,-2.63436 -4.97049,5.46754 -7.30662,0.59646" />
  <path
     style="display:inline;overflow:visible;visibility:visible;fill:none;fill-opacity:1;fill-rule:evenodd;stroke:#24211e;stroke-width:4.97049046;stroke-linecap:round;stroke-linejoin:miter;stroke-miterlimit:4;stroke-dasharray:none;stroke-dashoffset:0;stroke-opacity:1;marker:none;enable-background:accumulate"
     id="path4199"
     d="m 573.38775,358.71659 c 25.34951,12.42622 26.14478,31.81114 25.39921,40.45979 -0.69587,8.69836 -13.96708,13.76826 -20.47842,8.00249 -6.51134,-5.81547 -6.90898,-17.69495 -13.42033,-18.44052" />
  <path
     style="display:inline;overflow:visible;visibility:visible;fill:none;fill-opacity:1;fill-rule:evenodd;stroke:#24211e;stroke-width:4.97049046;stroke-linecap:round;stroke-linejoin:miter;stroke-miterlimit:4;stroke-dasharray:none;stroke-dashoffset:0;stroke-opacity:1;marker:none;enable-background:accumulate"
     id="path4201"
     d="m 587.80218,409.56471 c -5.11961,20.92576 -15.55764,27.08917 -21.224,27.08917 -5.61665,0 -8.69836,-10.23921 -18.39081,-10.23921 -9.74216,0 -23.56013,3.0817 -39.4657,-9.24511" />
  <path
     style="display:inline;overflow:visible;visibility:visible;fill:none;fill-opacity:1;fill-rule:evenodd;stroke:#24211e;stroke-width:4.97049046;stroke-linecap:butt;stroke-linejoin:miter;stroke-miterlimit:4;stroke-dasharray:none;stroke-dashoffset:0;stroke-opacity:1;marker:none;enable-background:accumulate"
     id="path4203"
     d="m 517.46974,422.83592 c -3.08171,4.0758 -6.46164,8.94688 -11.28302,6.66045 -11.63095,-5.51724 -25.49861,-40.06215 -5.76577,-56.763" />
  <path
     d="m 536.25819,266.6134 c 34.4455,-1.49115 54.42687,23.90806 44.28707,64.01992 3.62846,2.83318 6.064,7.40603 6.064,12.57534 0,8.59895 -6.56105,15.65704 -14.61324,15.65704 -1.19292,0 -2.33613,-0.14911 -3.42964,-0.44734 -3.82728,5.61665 -8.25102,9.74216 -12.72446,12.128 -8.69836,4.57285 -34.79343,15.35881 -50.15225,6.66045 -15.35881,-8.69836 -47.12025,-93.09728 13.81797,-107.95905 5.86518,-1.54085 11.48183,-2.38584 16.75055,-2.63436 z"
     id="path4205"
     style="display:inline;overflow:visible;visibility:visible;fill:#64462e;fill-opacity:1;fill-rule:evenodd;stroke:none;marker:none;enable-background:accumulate" />
  <path
     d="M 543.16717,322.82965 529.44862,318.3065"
     id="path4207"
     style="display:inline;overflow:visible;visibility:visible;fill:none;fill-opacity:1;fill-rule:evenodd;stroke:#24211e;stroke-width:4.97049046;stroke-linecap:round;stroke-linejoin:miter;stroke-miterlimit:4;stroke-dasharray:none;stroke-dashoffset:0;stroke-opacity:1;marker:none;enable-background:accumulate" />
  <path
     d="m 509.76548,319.05207 -8.1019,4.42374"
     id="path4209"
     style="display:inline;overflow:visible;visibility:visible;fill:none;fill-opacity:1;fill-rule:evenodd;stroke:#24211e;stroke-width:4.97049046;stroke-linecap:round;stroke-linejoin:miter;stroke-miterlimit:4;stroke-dasharray:none;stroke-dashoffset:0;stroke-opacity:1;marker:none;enable-background:accumulate" />
  <path
     d="m 536.25819,266.6134 c 34.4455,-1.49115 54.42687,23.90806 44.28707,64.01992 3.62846,2.83318 6.064,7.40603 6.064,12.57534 0,8.59895 -6.56105,15.65704 -14.61324,15.65704 -1.19292,0 -2.33613,-0.14911 -3.42964,-0.44734 -3.82728,5.61665 -8.25102,9.74216 -12.72446,12.128 -8.69836,4.57285 -34.79343,15.35881 -50.15225,6.66045 -15.35881,-8.69836 -47.12025,-93.09728 13.81797,-107.95905 5.86518,-1.54085 11.48183,-2.38584 16.75055,-2.63436 z"
     id="path4211"
     style="display:inline;fill:none;fill-rule:evenodd;stroke:#24211e;stroke-width:4.97049046;stroke-linecap:butt;stroke-linejoin:miter;stroke-miterlimit:4;stroke-dasharray:none;stroke-opacity:1" />
  <path
     d="m 581.04231,331.67712 c -4.67226,-3.18111 -8.40013,-0.34793 -11.03449,2.73377 1.73967,4.37403 3.0817,5.71606 3.52905,7.45574 3.0817,-2.18702 5.26872,-0.89469 5.26872,2.18701"
     id="path4213"
     style="display:inline;overflow:visible;visibility:visible;fill:none;fill-opacity:1;fill-rule:evenodd;stroke:#24211e;stroke-width:3.42963839;stroke-linecap:round;stroke-linejoin:miter;stroke-miterlimit:4;stroke-dasharray:none;stroke-dashoffset:0;stroke-opacity:1;marker:none;enable-background:accumulate" />
  <g
     id="g4215"
     style="display:inline"
     transform="matrix(-4.9704905,0,0,4.9704905,658.73108,229.83177)">
    <path
       d="m 19.72,26.5 -1.19,1.23"
       id="path4217"
       style="display:inline;fill:none;fill-rule:evenodd;stroke:#201915;stroke-width:0.5;stroke-linecap:round;stroke-linejoin:miter;stroke-miterlimit:4;stroke-dasharray:none;stroke-opacity:1" />
    <path
       d="m 21.24,27.72 -0.72,1.36"
       id="path4219"
       style="display:inline;fill:none;fill-rule:evenodd;stroke:#201915;stroke-width:0.5;stroke-linecap:round;stroke-linejoin:miter;stroke-miterlimit:4;stroke-dasharray:none;stroke-opacity:1" />
    <path
       d="m 22.97,28.44 -0.38,1.61"
       id="path4221"
       style="display:inline;fill:none;fill-rule:evenodd;stroke:#201915;stroke-width:0.5;stroke-linecap:round;stroke-linejoin:miter;stroke-miterlimit:4;stroke-dasharray:none;stroke-opacity:1" />
    <path
       d="m 24.82,28.91 -0.29,1.9"
       id="path4223"
       style="display:inline;fill:none;fill-rule:evenodd;stroke:#201915;stroke-width:0.5;stroke-linecap:round;stroke-linejoin:miter;stroke-miterlimit:4;stroke-dasharray:none;stroke-opacity:1" />
    <path
       d="m 26.47,29.33 -0.04,1.78"
       id="path4225"
       style="display:inline;fill:none;fill-rule:evenodd;stroke:#201915;stroke-width:0.5;stroke-linecap:round;stroke-linejoin:miter;stroke-miterlimit:4;stroke-dasharray:none;stroke-opacity:1" />
    <path
       d="m 28.41,29.41 0.34,1.74"
       id="path4227"
       style="display:inline;fill:none;fill-rule:evenodd;stroke:#201915;stroke-width:0.5;stroke-linecap:round;stroke-linejoin:miter;stroke-miterlimit:4;stroke-dasharray:none;stroke-opacity:1" />
    <path
       d="m 30.06,28.95 0.85,1.52"
       id="path4229"
       style="display:inline;fill:none;fill-rule:evenodd;stroke:#201915;stroke-width:0.5;stroke-linecap:round;stroke-linejoin:miter;stroke-miterlimit:4;stroke-dasharray:none;stroke-opacity:1" />
    <path
       d="m 31.5,28.06 0.93,0.93"
       id="path4231"
       style="display:inline;fill:none;fill-rule:evenodd;stroke:#201915;stroke-width:0.5;stroke-linecap:round;stroke-linejoin:miter;stroke-miterlimit:4;stroke-dasharray:none;stroke-opacity:1" />
    <path
       d="m 32.13,26.92 1.31,0.72"
       id="path4233"
       style="display:inline;fill:none;fill-rule:evenodd;stroke:#201915;stroke-width:0.5;stroke-linecap:round;stroke-linejoin:miter;stroke-miterlimit:4;stroke-dasharray:none;stroke-opacity:1" />
  </g>
  <path
     d="m 536.50671,247.02967 c 3.08171,0 5.86518,1.14321 8.1019,2.98229 1.68997,-0.89469 3.67817,-1.39174 5.71607,-1.39174 5.31842,0 10.04039,3.13141 11.97888,7.75397 1.44144,-0.59646 3.032,-0.79528 4.67226,-0.79528 6.41193,0 11.63095,4.72197 12.57534,10.88537 0.79528,-0.14911 1.49115,-0.14911 2.33613,-0.14911 7.0581,0 12.87357,5.66636 12.87357,12.72446 0,1.39173 -0.39764,2.63436 -0.79528,3.87698 5.11961,1.68997 8.84748,6.46164 8.84748,12.128 0,2.33613 -0.74558,4.47344 -1.83908,6.36222 3.0817,2.33613 4.97049,6.11371 4.97049,10.23921 0,2.23672 -0.54676,4.27463 -1.54086,6.064 0.29823,1.14321 0.44735,2.33613 0.44735,3.57876 0,4.67226 -2.48525,8.64865 -6.21311,10.88537 0.24852,0.9941 0.29822,1.88879 0.29822,2.93259 0,7.1078 -4.02609,12.82386 -11.13389,12.82386 1.59055,-10.83567 -1.88879,-21.07488 -13.27121,-18.49022 -7.20721,1.54085 -4.52315,7.30662 -3.37994,10.63685 -1.0438,5.31842 -12.72445,-3.28052 -11.63094,-12.87357 1.0438,-9.64275 4.22491,-31.51291 -36.384,-31.51291 -32.70582,0 -37.62661,21.52222 -36.63251,44.38648 -1.24262,-5.16931 -2.23672,-10.53744 -2.63436,-16.00498 -0.44734,2.0379 -0.9941,4.17521 -1.39174,6.56105 -3.77757,-2.28643 -6.36223,-6.36223 -6.41193,-11.03449 0,-0.84498 0.19882,-1.68997 0.34793,-2.48525 -2.48524,-2.33613 -4.0758,-5.51724 -4.0758,-9.1954 0,-3.67817 1.54085,-7.10781 4.0758,-9.44394 -0.54675,-1.44144 -0.79527,-2.93259 -0.79527,-4.52314 0,-5.31843 3.18111,-9.84157 7.75396,-11.78007 -0.0994,-0.64616 -0.29823,-1.34203 -0.29823,-2.0379 0,-6.90898 5.56695,-12.62504 12.42623,-12.87357 0.84498,-6.31252 6.21311,-11.1836 12.72445,-11.1836 1.09351,0 1.9882,0.19882 2.9823,0.44734 1.78937,-4.92078 6.41193,-8.40012 11.92917,-8.40012 2.08761,0 4.0261,0.54675 5.76577,1.39173 2.13731,-1.54085 4.77167,-2.48524 7.60485,-2.48524 z"
     id="path4235"
     style="display:inline;overflow:visible;visibility:visible;opacity:1;fill:#251814;fill-opacity:1;fill-rule:evenodd;stroke:#1d1613;stroke-width:3.42963839;stroke-linecap:butt;stroke-linejoin:miter;stroke-miterlimit:4;stroke-dasharray:none;stroke-dashoffset:0;stroke-opacity:1;marker:none;enable-background:accumulate" />
  <path
     d="m 518.06619,342.41338 c 0,0 -4.72196,-0.49705 -9.09599,-0.74557 -10.88538,-0.59646 -9.74216,17.14819 1.49114,13.42032 4.32433,-1.44144 9.74217,-2.53495 9.74217,-2.53495"
     id="path4237"
     style="display:inline;overflow:visible;visibility:visible;opacity:1;fill:none;fill-opacity:1;fill-rule:evenodd;stroke:#24211e;stroke-width:3.42963839;stroke-linecap:round;stroke-linejoin:miter;stroke-miterlimit:4;stroke-dasharray:none;stroke-dashoffset:0;stroke-opacity:1;marker:none;enable-background:accumulate" />
  <path
     d="m 544.5092,354.39226 c -10.1398,12.27711 -34.79343,15.90557 -36.23487,1.78938"
     id="path4239"
     style="display:inline;overflow:visible;visibility:visible;opacity:1;fill:none;fill-opacity:1;fill-rule:evenodd;stroke:#24211e;stroke-width:3.42963839;stroke-linecap:round;stroke-linejoin:miter;stroke-miterlimit:4;stroke-dasharray:none;stroke-dashoffset:0;stroke-opacity:1;marker:none;enable-background:accumulate" />
  <path
     d="m 529.2995,334.60971 c 0,2.83318 2.0379,5.21901 4.52315,5.21901 2.53495,0 4.52315,-2.38583 4.52315,-5.21901 0,-2.88288 -1.9882,-5.21902 -4.52315,-5.21902 -2.48525,0 -4.52315,2.33614 -4.52315,5.21902 l 0,0 z"
     id="path4241"
     style="display:inline;overflow:visible;visibility:visible;opacity:1;fill:#382a1d;fill-opacity:1;fill-rule:evenodd;stroke:#24211e;stroke-width:3.42963839;stroke-linecap:round;stroke-linejoin:miter;stroke-miterlimit:4;stroke-dasharray:none;stroke-dashoffset:0;stroke-opacity:1;marker:none;enable-background:accumulate" />
  <path
     d="m 503.55236,335.70322 c 0,3.0817 1.78938,5.61665 3.97639,5.61665 2.23673,0 3.9764,-2.53495 3.9764,-5.61665 0,-3.13141 -1.73967,-5.61666 -3.9764,-5.61666 -2.18701,0 -3.97639,2.48525 -3.97639,5.61666 l 0,0 z"
     id="path4243"
     style="display:inline;overflow:visible;visibility:visible;opacity:1;fill:#382a1d;fill-opacity:1;fill-rule:evenodd;stroke:#24211e;stroke-width:3.42963839;stroke-linecap:round;stroke-linejoin:miter;stroke-miterlimit:4;stroke-dasharray:none;stroke-dashoffset:0;stroke-opacity:1;marker:none;enable-background:accumulate" />
  <path
     d="m 53.865263,199.58674 c -25.349502,12.42622 -27.287993,32.30819 -26.54242,41.00655 0.447345,5.31842 5.616655,9.1457 11.034489,10.09009 l 0,0.14912 c 5.119606,20.97547 15.458226,27.18858 21.124585,27.18858 5.616654,0 8.748063,-10.23921 18.490225,-10.23921 7.80367,0 18.34111,1.78937 30.419398,-3.87698 l 0.29823,0.29823 c 3.08171,4.0758 6.36223,8.79776 11.18361,6.51134 11.63094,-5.51725 25.44891,-39.96275 5.76577,-56.66359 L 53.865263,199.58674 Z"
     id="p2535-1"
     style="display:inline;overflow:visible;visibility:visible;fill:#64462e;fill-opacity:1;fill-rule:evenodd;stroke:none;marker:none;enable-background:accumulate" />
  <path
     d="m 115.69816,212.01296 -16.601434,27.48682 -26.890353,9.49363 -22.516322,-2.18701 -11.183604,4.82137 c 1.689967,6.61076 3.926688,11.63095 6.362228,15.50793 l 12.87357,-2.63436 4.970491,5.46754 7.306621,0.59646 c 2.137311,-1.54085 4.622556,-2.78347 7.952785,-2.78347 7.80367,0 18.34111,1.78937 30.419398,-3.87698 l 0.29823,0.29823 c 0.49705,0.64616 0.89469,1.34203 1.39174,2.0379 l 8.1019,-7.15751 10.0901,3.0817 c 8.00249,-12.72445 12.27711,-35.4893 -2.63436,-48.11434 l -9.94099,-2.03791 z"
     id="p2538-9"
     style="display:inline;overflow:visible;visibility:visible;fill:#0000cc;fill-opacity:1;fill-rule:evenodd;stroke:none;marker:none;enable-background:accumulate" />
  <path
     d="m 60.476015,230.75171 c 3.330229,10.93508 11.879472,18.09259 23.311601,13.32092"
     id="p2622-1"
     style="display:inline;overflow:visible;visibility:visible;opacity:1;fill:none;fill-opacity:1;fill-rule:evenodd;stroke:#24211e;stroke-width:2.98229432;stroke-linecap:round;stroke-linejoin:miter;stroke-miterlimit:4;stroke-dasharray:none;stroke-dashoffset:0;stroke-opacity:1;marker:none;enable-background:accumulate" />
  <path
     d="m 115.69816,212.01296 -16.601434,27.48682 -26.890353,9.49363 -22.516322,-2.18701 m 68.493359,12.27711 10.0901,3.0817 m -83.404835,4.97049 12.87357,-2.63436 4.970491,5.46754 7.306621,0.59646"
     id="p2540-6"
     style="display:inline;overflow:visible;visibility:visible;fill:none;fill-opacity:1;fill-rule:evenodd;stroke:#000059;stroke-width:3.42963839;stroke-linecap:butt;stroke-linejoin:miter;stroke-miterlimit:4;stroke-dasharray:none;stroke-dashoffset:0;stroke-opacity:1;marker:none;enable-background:accumulate" />
  <path
     d="m 52.72205,200.03408 c -25.349502,12.42623 -26.14478,31.81114 -25.399207,40.4598 0.695869,8.69835 13.967079,13.76825 20.478421,8.00249 6.511343,-5.81548 6.908982,-17.69495 13.420325,-18.44052"
     id="p2543-0"
     style="display:inline;overflow:visible;visibility:visible;fill:none;fill-opacity:1;fill-rule:evenodd;stroke:#24211e;stroke-width:4.97049046;stroke-linecap:round;stroke-linejoin:miter;stroke-miterlimit:4;stroke-dasharray:none;stroke-dashoffset:0;stroke-opacity:1;marker:none;enable-background:accumulate" />
  <path
     d="m 38.307627,250.8822 c 5.119606,20.92577 15.557636,27.08917 21.223995,27.08917 5.616654,0 8.698358,-10.23921 18.390815,-10.23921 9.742161,0 23.560123,3.08171 39.465693,-9.24511"
     id="p2545-4"
     style="display:inline;overflow:visible;visibility:visible;fill:none;fill-opacity:1;fill-rule:evenodd;stroke:#24211e;stroke-width:4.97049046;stroke-linecap:round;stroke-linejoin:miter;stroke-miterlimit:4;stroke-dasharray:none;stroke-dashoffset:0;stroke-opacity:1;marker:none;enable-background:accumulate" />
  <path
     d="m 108.64007,264.15341 c 3.0817,4.0758 6.46164,8.94688 11.28301,6.66046 11.63095,-5.51725 25.49862,-40.06216 5.76577,-56.763"
     id="p2547-1"
     style="display:inline;overflow:visible;visibility:visible;fill:none;fill-opacity:1;fill-rule:evenodd;stroke:#24211e;stroke-width:4.97049046;stroke-linecap:butt;stroke-linejoin:miter;stroke-miterlimit:4;stroke-dasharray:none;stroke-dashoffset:0;stroke-opacity:1;marker:none;enable-background:accumulate" />
  <path
     d="m 63.3589,82.929326 c -2.73377,0 -5.119606,1.441443 -6.710163,3.429639 -1.143212,-0.596459 -2.33613,-0.944393 -3.727867,-0.944393 -3.429639,0 -6.411933,1.988196 -7.753966,4.97049 -0.695868,-0.198819 -1.540852,-0.298229 -2.33613,-0.298229 -2.882885,0 -5.26872,1.391737 -6.809572,3.578753 -3.926688,0.795278 -6.859277,4.224917 -6.859277,8.350424 0,2.23672 0.795278,4.22492 2.187016,5.76577 -1.093508,1.44144 -1.689967,3.18111 -1.689967,5.1196 0,1.49115 0.397639,2.83318 1.093508,4.0261 -1.839082,1.59056 -2.982294,3.82728 -2.982294,6.41193 0,3.82728 2.53495,7.15751 6.063998,8.20131 0,0.0994 0,0.19882 0,0.29823 0,4.72197 3.827278,8.54925 8.549244,8.54925 2.137311,0 4.075802,-0.74558 5.566949,-1.9882 3.926687,2.28643 8.499539,3.72787 13.370619,3.72787 14.563538,0 26.393305,-11.87947 26.393305,-26.44301 0,-2.9823 -0.596459,-5.81548 -1.540852,-8.49954 1.988196,-1.64026 3.280524,-3.97639 3.280524,-6.71016 0,-4.721968 -3.827278,-8.549246 -8.549244,-8.549246 -0.596459,0 -1.143213,0.19882 -1.689967,0.347935 -0.994098,-3.678163 -4.274622,-6.411933 -8.251014,-6.411933 -0.397639,0 -0.745574,0.149115 -1.093508,0.19882 -1.590557,-1.888787 -3.926687,-3.13141 -6.511342,-3.13141 z"
     id="p3437-2"
     style="display:inline;overflow:visible;visibility:visible;opacity:1;fill:#251814;fill-opacity:1;fill-rule:evenodd;stroke:#1d1613;stroke-width:3.42963839;stroke-linecap:butt;stroke-linejoin:miter;stroke-miterlimit:4;stroke-dasharray:none;stroke-dashoffset:0;stroke-opacity:1;marker:none;enable-background:accumulate" />
  <path
     d="m 89.851614,107.93089 c -34.445499,-1.49114 -54.426871,23.90806 -44.28707,64.01992 -3.628458,2.83318 -6.063999,7.40603 -6.063999,12.57534 0,8.59895 6.561048,15.65705 14.613242,15.65705 1.192918,0 2.336131,-0.14912 3.429639,-0.44735 3.827277,5.61666 8.251014,9.74216 12.724455,12.128 8.698359,4.57285 34.793429,15.35882 50.152249,6.66046 15.35882,-8.69836 47.12025,-93.09729 -13.81796,-107.95906 -5.86518,-1.54085 -11.481836,-2.38583 -16.750556,-2.63436 z"
     id="p2551-7"
     style="display:inline;overflow:visible;visibility:visible;fill:#64462e;fill-opacity:1;fill-rule:evenodd;stroke:none;marker:none;enable-background:accumulate" />
  <path
     d="m 138.86065,174.75293 c -3.13719,0.597 -6.23921,3.52979 -7.61106,7.61106 -1.80926,5.38254 -0.0313,10.89904 4.03852,12.2709 0.0482,0.0149 0.10672,-0.0149 0.15533,0 2.31908,-6.09059 4.34436,-12.81303 5.5918,-19.88196 -0.72442,-0.1193 -1.44465,-0.13918 -2.17459,0 z"
     id="p3501-5"
     style="display:inline;overflow:visible;visibility:visible;opacity:1;fill:#3e130e;fill-opacity:0.4;fill-rule:evenodd;stroke:none;marker:none;enable-background:accumulate" />
  <path
     d="m 89.851614,107.93089 c -34.445499,-1.49114 -54.426871,23.90806 -44.28707,64.01992 -3.628458,2.83318 -6.063999,7.40603 -6.063999,12.57534 0,8.59895 6.561048,15.65705 14.613242,15.65705 1.192918,0 2.336131,-0.14912 3.429639,-0.44735 3.827277,5.61666 8.251014,9.74216 12.724455,12.128 8.698359,4.57285 34.793429,15.35882 50.152249,6.66046 15.35882,-8.69836 47.12025,-93.09729 -13.81796,-107.95906 -5.86518,-1.54085 -11.481836,-2.38583 -16.750556,-2.63436 z"
     id="p2558-1"
     style="display:inline;fill:none;fill-rule:evenodd;stroke:#24211e;stroke-width:4.97049046;stroke-linecap:butt;stroke-linejoin:miter;stroke-miterlimit:4;stroke-dasharray:none;stroke-opacity:1" />
  <path
     d="m 45.067495,172.99461 c 4.672261,-3.18111 8.400128,-0.34793 11.034488,2.73377 -1.739671,4.37404 -3.081704,5.71607 -3.529048,7.45574 -3.081704,-2.18702 -5.26872,-0.89469 -5.26872,2.18702"
     id="p2560-2"
     style="display:inline;overflow:visible;visibility:visible;fill:none;fill-opacity:1;fill-rule:evenodd;stroke:#24211e;stroke-width:3.42963839;stroke-linecap:round;stroke-linejoin:miter;stroke-miterlimit:4;stroke-dasharray:none;stroke-dashoffset:0;stroke-opacity:1;marker:none;enable-background:accumulate" />
  <path
     d="m 96.810301,175.9272 c 0,2.83318 -2.037901,5.21902 -4.523147,5.21902 -2.53495,0 -4.523146,-2.38584 -4.523146,-5.21902 0,-2.88288 1.988196,-5.21901 4.523146,-5.21901 2.485246,0 4.523147,2.33613 4.523147,5.21901 l 0,0 z"
     id="p2589-3"
     style="display:inline;overflow:visible;visibility:visible;fill:#382a1d;fill-opacity:1;fill-rule:evenodd;stroke:#24211e;stroke-width:3.42963839;stroke-linecap:round;stroke-linejoin:miter;stroke-miterlimit:4;stroke-dasharray:none;stroke-dashoffset:0;stroke-opacity:1;marker:none;enable-background:accumulate" />
  <path
     d="m 122.55744,177.02071 c 0,3.08171 -1.78938,5.61666 -3.97639,5.61666 -2.23672,0 -3.97639,-2.53495 -3.97639,-5.61666 0,-3.13141 1.73967,-5.61665 3.97639,-5.61665 2.18701,0 3.97639,2.48524 3.97639,5.61665 l 0,0 z"
     id="p2591-5"
     style="display:inline;overflow:visible;visibility:visible;fill:#382a1d;fill-opacity:1;fill-rule:evenodd;stroke:#24211e;stroke-width:3.42963839;stroke-linecap:round;stroke-linejoin:miter;stroke-miterlimit:4;stroke-dasharray:none;stroke-dashoffset:0;stroke-opacity:1;marker:none;enable-background:accumulate" />
  <path
     d="M 81.898829,168.02412 C 84.23496,157.58609 97.10853,159.02754 99.444661,164.6939"
     id="p3427-9"
     style="display:inline;overflow:visible;visibility:visible;opacity:1;fill:none;fill-opacity:1;fill-rule:evenodd;stroke:#24211e;stroke-width:3.42963839;stroke-linecap:round;stroke-linejoin:miter;stroke-miterlimit:4;stroke-dasharray:none;stroke-dashoffset:0;stroke-opacity:1;marker:none;enable-background:accumulate" />
  <path
     d="m 128.47233,168.02412 c -2.38584,-10.43803 -15.20971,-8.99658 -17.59554,-3.33022"
     id="p3429-0"
     style="display:inline;overflow:visible;visibility:visible;opacity:1;fill:none;fill-opacity:1;fill-rule:evenodd;stroke:#24211e;stroke-width:3.42963839;stroke-linecap:round;stroke-linejoin:miter;stroke-miterlimit:4;stroke-dasharray:none;stroke-dashoffset:0;stroke-opacity:1;marker:none;enable-background:accumulate" />
  <path
     d="m 98.450562,102.51306 c -2.037901,0 -3.827277,0.59646 -5.417834,1.54085 -1.143213,-0.39764 -2.336131,-0.59646 -3.578753,-0.59646 -1.540852,0 -2.882885,0.19882 -4.224917,0.74558 -1.292328,-0.54676 -2.83318,-0.74558 -4.324327,-0.74558 -2.83318,0 -5.36813,1.04381 -7.306621,2.78348 -1.292328,-0.54676 -2.584655,-0.9444 -4.026097,-0.9444 -5.069901,0 -9.344522,3.42964 -10.587145,8.1019 -6.014294,0 -10.835669,4.82138 -10.835669,10.83567 0,0.69587 0.149114,1.54085 0.298229,2.18702 -5.0699,0.94439 -8.847473,5.36813 -8.847473,10.73626 0,2.58465 0.944393,4.92078 2.485245,6.80957 -2.087606,1.9882 -3.429638,4.82138 -3.429638,7.95278 0,1.78938 0.447344,3.42964 1.242622,4.9705 -1.342032,1.78937 -2.187015,3.92668 -2.187015,6.36222 0,6.0143 5.566949,5.16931 11.233308,7.30662 4.423737,1.68997 9.493637,7.20722 13.718554,-4.57285 -1.292328,-10.38832 1.391737,-29.97205 9.543342,-38.5213 11.929177,-12.47593 49.058737,-14.61324 57.757097,2.83318 5.61666,11.23331 8.44984,24.3057 11.18361,37.42779 3.42963,-1.83908 5.76576,-5.46754 5.76576,-9.59304 0,-1.88879 -0.39763,-3.77758 -1.24262,-5.31843 0.84499,-1.54085 1.24262,-3.37993 1.24262,-5.26872 0,-4.1255 -2.33613,-7.60485 -5.76576,-9.49363 0.99409,-1.64027 1.59055,-3.67817 1.59055,-5.71607 0,-6.064 -4.87108,-10.88537 -10.88537,-10.88537 -0.19882,0 -0.44735,0.14911 -0.64617,0.14911 -0.89468,-3.032 -3.03199,-5.36813 -5.86517,-6.66045 -1.54086,-4.22492 -5.51725,-7.30663 -10.28892,-7.30663 -2.38583,0 -4.52315,0.84499 -6.36223,2.18702 -1.49114,-4.27462 -5.46754,-7.30662 -10.239208,-7.30662 z"
     id="p3442-7"
     style="display:inline;overflow:visible;visibility:visible;opacity:1;fill:#251814;fill-opacity:1;fill-rule:evenodd;stroke:#1d1613;stroke-width:3.42963839;stroke-linecap:butt;stroke-linejoin:miter;stroke-miterlimit:4;stroke-dasharray:none;stroke-dashoffset:0;stroke-opacity:1;marker:none;enable-background:accumulate" />
  <path
     d="m 92.472057,191.04346 c 0,5.69916 -4.697114,10.39628 -10.396278,10.39628 -5.761793,0 -10.396278,-4.69712 -10.396278,-10.39628 0,-5.76179 4.634485,-10.39628 10.396278,-10.39628 5.699164,0 10.396278,4.63449 10.396278,10.39628 l 0,0 z"
     id="p3499-1"
     style="display:inline;overflow:visible;visibility:visible;opacity:1;fill:#3e130e;fill-opacity:0.4;fill-rule:evenodd;stroke:none;marker:none;enable-background:accumulate" />
  <path
     d="m 86.173451,198.24471 c 14.563539,11.1836 40.260969,13.12209 36.881039,-1.9385"
     id="p3506-0"
     style="display:inline;overflow:visible;visibility:visible;opacity:1;fill:none;fill-opacity:1;fill-rule:evenodd;stroke:#24211e;stroke-width:3.42963839;stroke-linecap:round;stroke-linejoin:miter;stroke-miterlimit:4;stroke-dasharray:none;stroke-dashoffset:0;stroke-opacity:1;marker:none;enable-background:accumulate" />
  <path
     d="m 108.04361,183.73087 c 0,0 6.1137,-1.83908 10.43803,-2.0876 10.93508,-0.64617 9.04629,21.91986 -2.13731,18.19199 -4.32433,-1.44144 -10.43803,-5.96459 -10.43803,-5.96459"
     id="p2585-3"
     style="display:inline;overflow:visible;visibility:visible;fill:#64462e;fill-opacity:1;fill-rule:evenodd;stroke:#24211e;stroke-width:3.42963839;stroke-linecap:round;stroke-linejoin:miter;stroke-miterlimit:4;stroke-dasharray:none;stroke-dashoffset:0;stroke-opacity:1;marker:none;enable-background:accumulate" />
  <path
     style="display:inline;fill:#9e6f49;fill-opacity:1;fill-rule:evenodd;stroke:none"
     id="p2448"
     d="m 78.039647,323.51714 c -25.113292,12.31044 -27.03372,32.00714 -26.295094,40.62444 0.443176,5.26887 5.564318,9.06048 10.931669,9.99608 l 0,0.14772 c 5.0719,20.78002 15.314184,26.93524 20.927743,26.93524 5.564318,0 8.666548,-10.1438 18.317935,-10.1438 7.73095,0 18.1702,1.7727 30.13595,-3.84086 l 0.29545,0.29545 c 3.05299,4.03783 6.30294,8.71579 11.07939,6.45067 11.52257,-5.46583 25.21178,-39.59036 5.71204,-56.13559 L 78.039647,323.51714 Z" />
  <path
     style="display:inline;fill:#0000cc;fill-opacity:1;fill-rule:evenodd;stroke:none"
     id="p3233"
     d="m 78.039647,323.51714 c -10.340767,5.0719 -16.692952,11.37484 -20.632292,17.67779 l 2.659054,6.49991 11.670295,-1.87119 -0.590901,9.25745 12.901338,-1.87119 -12.901338,19.1058 -8.174131,2.90527 c 1.428011,5.46583 3.10223,9.84835 5.0719,13.39375 l 5.564318,0.29545 6.155219,-6.74612 5.515076,7.97717 5.564317,-3.05299 4.727208,5.6628 c 1.772703,-0.98484 3.840857,-1.67422 6.35219,-1.67422 7.73095,0 18.1702,1.7727 30.13595,-3.84086 l 0.29545,0.29545 c 0.0985,0.14773 0.19696,0.29545 0.34469,0.44318 l 7.97716,-5.21963 10.63622,3.39768 c 8.17413,-12.5074 12.8521,-35.60178 -2.16664,-48.30615 l -18.31793,-3.69313 -3.05299,27.08296 -27.08296,-33.09046 -22.651203,-4.62872 z" />
  <path
     style="display:inline;fill:none;fill-rule:evenodd;stroke:#000059;stroke-width:3.39768076;stroke-linecap:butt;stroke-linejoin:miter;stroke-miterlimit:4;stroke-dasharray:none;stroke-opacity:1"
     id="p3385"
     d="m 57.210388,341.78583 3.249955,6.49991 11.374844,-2.46209 -0.443176,8.51882 10.98091,-0.39393" />
  <path
     style="display:inline;overflow:visible;visibility:visible;fill:none;fill-opacity:1;fill-rule:evenodd;stroke:#000059;stroke-width:3.39768076;stroke-linecap:butt;stroke-linejoin:miter;stroke-miterlimit:4;stroke-dasharray:none;stroke-dashoffset:0;stroke-opacity:1;marker:none;enable-background:accumulate"
     id="p3387"
     d="m 112.75508,343.80474 15.41267,17.82551 1.62498,-15.41266" />
  <path
     style="display:inline;overflow:visible;visibility:visible;fill:none;fill-opacity:1;fill-rule:evenodd;stroke:#000059;stroke-width:3.39768076;stroke-linecap:butt;stroke-linejoin:miter;stroke-miterlimit:4;stroke-dasharray:none;stroke-dashoffset:0;stroke-opacity:1;marker:none;enable-background:accumulate"
     id="p3389"
     d="m 68.979166,388.02383 4.480999,0.78787 6.450669,-6.49991 5.712043,7.73095 5.662801,-2.85602 3.643889,4.481" />
  <path
     style="display:inline;overflow:visible;visibility:visible;fill:none;fill-opacity:1;fill-rule:evenodd;stroke:#000059;stroke-width:3.39768076;stroke-linecap:butt;stroke-linejoin:miter;stroke-miterlimit:4;stroke-dasharray:none;stroke-dashoffset:0;stroke-opacity:1;marker:none;enable-background:accumulate"
     id="p3391"
     d="m 139.98577,383.19814 10.48849,2.3636" />
  <path
     style="display:inline;overflow:visible;visibility:visible;fill:none;fill-opacity:1;fill-rule:evenodd;stroke:#24211e;stroke-width:4.92417479;stroke-linecap:round;stroke-linejoin:miter;stroke-miterlimit:4;stroke-dasharray:none;stroke-dashoffset:0;stroke-opacity:1;marker:none;enable-background:accumulate"
     id="p2408"
     d="m 76.907087,323.96032 c -25.113292,12.31043 -25.90116,31.51471 -25.162534,40.08278 0.689385,8.6173 13.836932,13.63996 20.287601,7.92792 6.450669,-5.76128 6.844603,-17.53006 13.295272,-18.26869" />
  <path
     style="display:inline;overflow:visible;visibility:visible;fill:none;fill-opacity:1;fill-rule:evenodd;stroke:#24211e;stroke-width:4.92417479;stroke-linecap:round;stroke-linejoin:miter;stroke-miterlimit:4;stroke-dasharray:none;stroke-dashoffset:0;stroke-opacity:1;marker:none;enable-background:accumulate"
     id="p2410"
     d="m 62.62698,374.33462 c 5.0719,20.73078 15.412667,26.83676 21.026227,26.83676 5.564317,0 8.617306,-10.1438 18.219443,-10.1438 9.65139,0 23.34059,3.05299 39.09795,-9.15897" />
  <path
     style="display:inline;overflow:visible;visibility:visible;fill:none;fill-opacity:1;fill-rule:evenodd;stroke:#24211e;stroke-width:4.92417479;stroke-linecap:butt;stroke-linejoin:miter;stroke-miterlimit:4;stroke-dasharray:none;stroke-dashoffset:0;stroke-opacity:1;marker:none;enable-background:accumulate"
     id="p2412"
     d="m 132.30405,387.48217 c 3.05299,4.03782 6.40143,8.86352 11.17788,6.5984 11.52257,-5.46584 25.26102,-39.68885 5.71204,-56.23408" />
  <path
     style="display:inline;overflow:visible;visibility:visible;fill:#9e6f49;fill-opacity:1;fill-rule:evenodd;stroke:none;marker:none;enable-background:accumulate"
     id="p2460"
     d="m 113.69067,232.71535 c -34.124528,-1.47725 -53.919711,23.68529 -43.874395,63.42338 -3.594647,2.80678 -6.007493,7.33702 -6.007493,12.45816 0,8.51882 6.499911,15.51115 14.477074,15.51115 1.181802,0 2.314362,-0.14772 3.397681,-0.44318 3.791615,5.56432 8.17413,9.65139 12.605888,12.01499 8.617305,4.53024 34.469225,15.2157 49.684925,6.5984 15.2157,-8.61731 46.68118,-92.2298 -13.68921,-106.95308 -5.81052,-1.5265 -11.37484,-2.36361 -16.59447,-2.60982 z" />
  <path
     style="display:inline;overflow:visible;visibility:visible;fill:none;fill-opacity:1;fill-rule:evenodd;stroke:#24211e;stroke-width:3.39768076;stroke-linecap:round;stroke-linejoin:miter;stroke-miterlimit:4;stroke-dasharray:none;stroke-dashoffset:0;stroke-opacity:1;marker:none;enable-background:accumulate"
     id="p3240"
     d="m 130.2359,318.14979 15.8066,2.46209 c 1.92043,0.49241 3.79162,-0.0985 5.12114,-1.57574 1.28029,-1.47725 1.62498,-3.54541 0.88636,-5.36735 -0.73863,-1.82195 -2.31437,-3.10223 -4.28404,-3.24996 l -16.15129,-2.46208" />
  <path
     style="display:inline;overflow:visible;visibility:visible;fill:none;fill-opacity:1;fill-rule:evenodd;stroke:#24211e;stroke-width:3.39768076;stroke-linecap:round;stroke-linejoin:miter;stroke-miterlimit:4;stroke-dasharray:none;stroke-dashoffset:0;stroke-opacity:1;marker:none;enable-background:accumulate"
     id="p3251"
     d="m 136.8343,319.03614 c 1.32952,3.00375 1.72346,4.77645 3.93934,5.21963 -5.66281,3.44692 -19.15504,5.6628 -30.92382,0.83711" />
  <path
     style="display:inline;overflow:visible;visibility:visible;fill:none;fill-opacity:1;fill-rule:evenodd;stroke:#24211e;stroke-width:4.92417479;stroke-linecap:round;stroke-linejoin:miter;stroke-miterlimit:4;stroke-dasharray:none;stroke-dashoffset:0;stroke-opacity:1;marker:none;enable-background:accumulate"
     id="p3253"
     d="m 100.49389,303.42651 19.79518,-3.98859" />
  <path
     style="display:inline;overflow:visible;visibility:visible;fill:none;fill-opacity:1;fill-rule:evenodd;stroke:#24211e;stroke-width:4.92417479;stroke-linecap:round;stroke-linejoin:miter;stroke-miterlimit:4;stroke-dasharray:none;stroke-dashoffset:0;stroke-opacity:1;marker:none;enable-background:accumulate"
     id="p3255"
     d="m 137.72065,298.55157 12.70437,3.10223" />
  <path
     style="display:inline;overflow:visible;visibility:visible;fill:none;fill-opacity:1;fill-rule:evenodd;stroke:#24211e;stroke-width:4.92417479;stroke-linecap:round;stroke-linejoin:miter;stroke-miterlimit:4;stroke-dasharray:none;stroke-dashoffset:0;stroke-opacity:1;marker:none;enable-background:accumulate"
     id="p3257"
     d="m 108.96347,293.77512 10.04531,1.28029" />
  <path
     style="display:inline;overflow:visible;visibility:visible;fill:none;fill-opacity:1;fill-rule:evenodd;stroke:#24211e;stroke-width:4.92417479;stroke-linecap:round;stroke-linejoin:miter;stroke-miterlimit:4;stroke-dasharray:none;stroke-dashoffset:0;stroke-opacity:1;marker:none;enable-background:accumulate"
     id="p3259"
     d="m 138.16382,295.05541 6.94309,-1.72346" />
  <path
     style="display:inline;fill:none;fill-rule:evenodd;stroke:#24211e;stroke-width:4.92417479;stroke-linecap:butt;stroke-linejoin:miter;stroke-miterlimit:4;stroke-dasharray:none;stroke-opacity:1"
     id="p2429"
     d="m 113.69067,232.71535 c -34.124528,-1.47725 -53.919711,23.68529 -43.874395,63.42338 -3.594647,2.80678 -6.007493,7.33702 -6.007493,12.45816 0,8.51882 6.499911,15.51115 14.477074,15.51115 1.181802,0 2.314362,-0.14772 3.397681,-0.44318 3.791615,5.56432 8.17413,9.65139 12.605888,12.01499 8.617305,4.53024 34.469225,15.2157 49.684925,6.5984 15.2157,-8.61731 46.68118,-92.2298 -13.68921,-106.95308 -5.81052,-1.5265 -11.37484,-2.36361 -16.59447,-2.60982 z" />
  <path
     style="display:inline;overflow:visible;visibility:visible;fill:none;fill-opacity:1;fill-rule:evenodd;stroke:#24211e;stroke-width:3.39768076;stroke-linecap:round;stroke-linejoin:miter;stroke-miterlimit:4;stroke-dasharray:none;stroke-dashoffset:0;stroke-opacity:1;marker:none;enable-background:accumulate"
     id="p3261"
     d="m 69.323858,297.1728 c 4.628724,-3.15147 8.321855,-0.34469 10.931668,2.7083 -1.723461,4.33327 -3.052988,5.6628 -3.496164,7.38626 -3.052988,-2.16663 -5.219625,-0.88635 -5.219625,2.16664" />
  <g
     transform="matrix(4.9241749,0,0,4.9241749,-7.6409958,196.27646)"
     style="display:inline"
     id="g3307">
    <path
       style="display:inline;fill:none;fill-rule:evenodd;stroke:#201915;stroke-width:0.5;stroke-linecap:round;stroke-linejoin:miter;stroke-miterlimit:4;stroke-dasharray:none;stroke-opacity:1"
       id="p3269"
       d="m 19.72,26.5 -1.19,1.23" />
    <path
       style="display:inline;fill:none;fill-rule:evenodd;stroke:#201915;stroke-width:0.5;stroke-linecap:round;stroke-linejoin:miter;stroke-miterlimit:4;stroke-dasharray:none;stroke-opacity:1"
       id="p3271"
       d="m 21.24,27.72 -0.72,1.36" />
    <path
       style="display:inline;fill:none;fill-rule:evenodd;stroke:#201915;stroke-width:0.5;stroke-linecap:round;stroke-linejoin:miter;stroke-miterlimit:4;stroke-dasharray:none;stroke-opacity:1"
       id="p3273"
       d="m 22.97,28.44 -0.38,1.61" />
    <path
       style="display:inline;fill:none;fill-rule:evenodd;stroke:#201915;stroke-width:0.5;stroke-linecap:round;stroke-linejoin:miter;stroke-miterlimit:4;stroke-dasharray:none;stroke-opacity:1"
       id="p3275"
       d="m 24.82,28.91 -0.29,1.9" />
    <path
       style="display:inline;fill:none;fill-rule:evenodd;stroke:#201915;stroke-width:0.5;stroke-linecap:round;stroke-linejoin:miter;stroke-miterlimit:4;stroke-dasharray:none;stroke-opacity:1"
       id="p3277"
       d="m 26.47,29.33 -0.04,1.78" />
    <path
       style="display:inline;fill:none;fill-rule:evenodd;stroke:#201915;stroke-width:0.5;stroke-linecap:round;stroke-linejoin:miter;stroke-miterlimit:4;stroke-dasharray:none;stroke-opacity:1"
       id="p3279"
       d="m 28.41,29.41 0.34,1.74" />
    <path
       style="display:inline;fill:none;fill-rule:evenodd;stroke:#201915;stroke-width:0.5;stroke-linecap:round;stroke-linejoin:miter;stroke-miterlimit:4;stroke-dasharray:none;stroke-opacity:1"
       id="p3281"
       d="m 30.06,28.95 0.85,1.52" />
    <path
       style="display:inline;fill:none;fill-rule:evenodd;stroke:#201915;stroke-width:0.5;stroke-linecap:round;stroke-linejoin:miter;stroke-miterlimit:4;stroke-dasharray:none;stroke-opacity:1"
       id="p3283"
       d="m 31.5,28.06 0.93,0.93" />
    <path
       style="display:inline;fill:none;fill-rule:evenodd;stroke:#201915;stroke-width:0.5;stroke-linecap:round;stroke-linejoin:miter;stroke-miterlimit:4;stroke-dasharray:none;stroke-opacity:1"
       id="p3285"
       d="m 32.13,26.92 1.31,0.72" />
  </g>
  <path
     style="display:inline;overflow:visible;visibility:visible;opacity:1;fill:#402a23;fill-opacity:1;fill-rule:evenodd;stroke:#2b211d;stroke-width:3.39768076;stroke-linecap:butt;stroke-linejoin:miter;stroke-miterlimit:4;stroke-dasharray:none;stroke-dashoffset:0;stroke-opacity:1;marker:none;enable-background:accumulate"
     id="p2556"
     d="m 113.14901,227.05255 c -16.200531,0 -31.465473,5.17039 -42.495625,19.6967 -9.996075,7.09081 -14.132382,11.47333 -21.370919,12.11347 -5.712043,0.54166 -0.344692,10.63622 10.783943,8.61731 -0.787868,2.46209 -1.526494,4.97342 -2.166637,7.73095 -1.083318,33.82909 11.670295,21.12471 20.139875,23.24211 9.5529,29.59429 10.68546,5.41659 13.836932,-0.93559 -6.352186,19.05655 3.151472,33.77984 6.352186,22.15878 3.151475,-11.67029 6.352185,-13.83693 10.586975,-28.60945 -2.11739,13.73844 17.97324,1.03407 23.24211,-9.5529 1.03407,29.64353 10.53773,5.31811 14.77252,-7.38626 8.46958,5.26886 4.33327,37.07903 14.92025,29.69277 2.1174,9.50366 5.31811,13.68921 9.5529,6.30294 4.23479,-7.38626 -2.21588,-19.05655 3.05299,-25.40874 -4.23479,-21.17395 -14.82177,-50.86673 -44.4653,-56.13559 -5.56432,-0.98484 -11.22712,-1.57574 -16.7422,-1.5265 z" />
</svg>
