<?xml version="1.0" encoding="UTF-8" standalone="no"?>
<svg
   xmlns:dc="http://purl.org/dc/elements/1.1/"
   xmlns:cc="http://creativecommons.org/ns#"
   xmlns:rdf="http://www.w3.org/1999/02/22-rdf-syntax-ns#"
   xmlns:svg="http://www.w3.org/2000/svg"
   xmlns="http://www.w3.org/2000/svg"
   id="svg2"
   viewBox="0 0 640 480"
   height="100%"
   width="100%"
   version="1.0">
  <metadata
     id="metadata172">
    <rdf:RDF>
      <cc:Work
         rdf:about="">
        <dc:format>image/svg+xml</dc:format>
        <dc:type
           rdf:resource="http://purl.org/dc/dcmitype/StillImage" />
        <dc:title></dc:title>
      </cc:Work>
    </rdf:RDF>
  </metadata>
  <defs
     id="defs3" />
  <g
     id="splashbg"
     style="opacity:0.8">
    <rect
       id="rect6"
       style="fill:black;fill-opacity:0.95;"
       height="480"
       width="640"
       y="0"
       x="0" />
    <path
       id="path8"
       style="fill:black;"
       d="M 0 0 L 0 10 L 640 10 L 640 0 L 0 0 z M 0 20 L 0 30 L 640 30 L 640 20 L 0 20 z M 0 40 L 0 50 L 640 50 L 640 40 L 0 40 z M 0 60 L 0 70 L 640 70 L 640 60 L 0 60 z M 0 80 L 0 90 L 640 90 L 640 80 L 0 80 z M 0 100 L 0 110 L 640 110 L 640 100 L 0 100 z M 0 120 L 0 130 L 640 130 L 640 120 L 0 120 z M 0 140 L 0 150 L 640 150 L 640 140 L 0 140 z M 0 160 L 0 170 L 640 170 L 640 160 L 0 160 z M 0 180 L 0 190 L 640 190 L 640 180 L 0 180 z M 0 200 L 0 210 L 640 210 L 640 200 L 0 200 z M 0 220 L 0 230 L 640 230 L 640 220 L 0 220 z M 0 240 L 0 250 L 640 250 L 640 240 L 0 240 z M 0 260 L 0 270 L 640 270 L 640 260 L 0 260 z M 0 280 L 0 290 L 640 290 L 640 280 L 0 280 z M 0 300 L 0 310 L 640 310 L 640 300 L 0 300 z M 0 320 L 0 330 L 640 330 L 640 320 L 0 320 z M 0 340 L 0 350 L 640 350 L 640 340 L 0 340 z M 0 360 L 0 370 L 640 370 L 640 360 L 0 360 z M 0 380 L 0 390 L 640 390 L 640 380 L 0 380 z M 0 400 L 0 410 L 640 410 L 640 400 L 0 400 z M 0 420 L 0 430 L 640 430 L 640 420 L 0 420 z M 0 440 L 0 450 L 640 450 L 640 440 L 0 440 z M 0 460 L 0 470 L 640 470 L 640 460 L 0 460 z " />
  </g>
  <rect
     style="fill:#ffffe6;fill-opacity:0.82727272;fill-rule:evenodd;stroke:#ffffff;stroke-width:5;stroke-linecap:round;stroke-linejoin:round"
     id="rect3819"
     y="25.69343"
     x="-33.868614"
     ry="15.386677"
     height="133.13869"
     width="701.89783" />
  <g
     transform="matrix(4.9704905,0,0,4.9704905,-18.383984,65.047569)"
     id="g4327">
    <path
       style="display:inline;overflow:visible;visibility:visible;fill:#1a1a1a;fill-opacity:0.5;fill-rule:evenodd;stroke:none;marker:none;enable-background:accumulate"
       id="p2533-4"
       d="m 36.73,41.01 c 0,2.4 -5.84,4.35 -13.05,4.35 -7.21,0 -13.06,-1.95 -13.06,-4.35 0,-2.41 5.85,-4.35 13.06,-4.35 7.21,0 13.05,1.94 13.05,4.35 z" />
    <path
       style="display:inline;overflow:visible;visibility:visible;fill:#64462e;fill-opacity:1;fill-rule:evenodd;stroke:none;marker:none;enable-background:accumulate"
       id="p2535-1"
       d="m 17.4,25.84 c -5.1,2.5 -5.49,6.5 -5.34,8.25 0.09,1.07 1.13,1.84 2.22,2.03 l 0,0.03 c 1.03,4.22 3.11,5.47 4.25,5.47 1.13,0 1.76,-2.06 3.72,-2.06 1.57,0 3.69,0.36 6.12,-0.78 l 0.06,0.06 c 0.62,0.82 1.28,1.77 2.25,1.31 2.34,-1.11 5.12,-8.04 1.16,-11.4 L 17.4,25.84 Z" />
    <path
       style="display:inline;overflow:visible;visibility:visible;fill:#0000cc;fill-opacity:1;fill-rule:evenodd;stroke:none;marker:none;enable-background:accumulate"
       id="p2538-9"
       d="m 29.84,28.34 -3.34,5.53 -5.41,1.91 -4.53,-0.44 -2.25,0.97 c 0.34,1.33 0.79,2.34 1.28,3.12 l 2.59,-0.53 1,1.1 1.47,0.12 c 0.43,-0.31 0.93,-0.56 1.6,-0.56 1.57,0 3.69,0.36 6.12,-0.78 l 0.06,0.06 c 0.1,0.13 0.18,0.27 0.28,0.41 l 1.63,-1.44 2.03,0.62 c 1.61,-2.56 2.47,-7.14 -0.53,-9.68 l -2,-0.41 z" />
    <path
       style="display:inline;overflow:visible;visibility:visible;opacity:1;fill:none;fill-opacity:1;fill-rule:evenodd;stroke:#24211e;stroke-width:0.60000002;stroke-linecap:round;stroke-linejoin:miter;stroke-miterlimit:4;stroke-dasharray:none;stroke-dashoffset:0;stroke-opacity:1;marker:none;enable-background:accumulate"
       id="p2622-1"
       d="m 18.73,32.11 c 0.67,2.2 2.39,3.64 4.69,2.68" />
    <path
       style="display:inline;overflow:visible;visibility:visible;fill:none;fill-opacity:1;fill-rule:evenodd;stroke:#000059;stroke-width:0.69;stroke-linecap:butt;stroke-linejoin:miter;stroke-miterlimit:4;stroke-dasharray:none;stroke-dashoffset:0;stroke-opacity:1;marker:none;enable-background:accumulate"
       id="p2540-6"
       d="m 29.84,28.34 -3.34,5.53 -5.41,1.91 -4.53,-0.44 m 13.78,2.47 2.03,0.62 m -16.78,1 2.59,-0.53 1,1.1 1.47,0.12" />
    <path
       style="display:inline;overflow:visible;visibility:visible;fill:none;fill-opacity:1;fill-rule:evenodd;stroke:#24211e;stroke-width:1;stroke-linecap:round;stroke-linejoin:miter;stroke-miterlimit:4;stroke-dasharray:none;stroke-dashoffset:0;stroke-opacity:1;marker:none;enable-background:accumulate"
       id="p2543-0"
       d="m 17.17,25.93 c -5.1,2.5 -5.26,6.4 -5.11,8.14 0.14,1.75 2.81,2.77 4.12,1.61 1.31,-1.17 1.39,-3.56 2.7,-3.71" />
    <path
       style="display:inline;overflow:visible;visibility:visible;fill:none;fill-opacity:1;fill-rule:evenodd;stroke:#24211e;stroke-width:1;stroke-linecap:round;stroke-linejoin:miter;stroke-miterlimit:4;stroke-dasharray:none;stroke-dashoffset:0;stroke-opacity:1;marker:none;enable-background:accumulate"
       id="p2545-4"
       d="m 14.27,36.16 c 1.03,4.21 3.13,5.45 4.27,5.45 1.13,0 1.75,-2.06 3.7,-2.06 1.96,0 4.74,0.62 7.94,-1.86" />
    <path
       style="display:inline;overflow:visible;visibility:visible;fill:none;fill-opacity:1;fill-rule:evenodd;stroke:#24211e;stroke-width:1;stroke-linecap:butt;stroke-linejoin:miter;stroke-miterlimit:4;stroke-dasharray:none;stroke-dashoffset:0;stroke-opacity:1;marker:none;enable-background:accumulate"
       id="p2547-1"
       d="m 28.42,38.83 c 0.62,0.82 1.3,1.8 2.27,1.34 2.34,-1.11 5.13,-8.06 1.16,-11.42" />
    <path
       style="display:inline;overflow:visible;visibility:visible;opacity:1;fill:none;fill-opacity:1;fill-rule:evenodd;stroke:#24211e;stroke-width:0.60000002;stroke-linecap:round;stroke-linejoin:miter;stroke-miterlimit:4;stroke-dasharray:none;stroke-dashoffset:0;stroke-opacity:1;marker:none;enable-background:accumulate"
       id="p3394-2"
       d="m 23.26,32.49 c 0,0.16 -0.13,0.29 -0.29,0.29 -0.17,0 -0.29,-0.13 -0.29,-0.29 0,-0.17 0.12,-0.29 0.29,-0.29 0.16,0 0.29,0.12 0.29,0.29 z" />
    <path
       style="display:inline;overflow:visible;visibility:visible;opacity:1;fill:#251814;fill-opacity:1;fill-rule:evenodd;stroke:#1d1613;stroke-width:0.69;stroke-linecap:butt;stroke-linejoin:miter;stroke-miterlimit:4;stroke-dasharray:none;stroke-dashoffset:0;stroke-opacity:1;marker:none;enable-background:accumulate"
       id="p3437-2"
       d="m 19.31,2.37 c -0.55,0 -1.03,0.29 -1.35,0.69 -0.23,-0.12 -0.47,-0.19 -0.75,-0.19 -0.69,0 -1.29,0.4 -1.56,1 -0.14,-0.04 -0.31,-0.06 -0.47,-0.06 -0.58,0 -1.06,0.28 -1.37,0.72 -0.79,0.16 -1.38,0.85 -1.38,1.68 0,0.45 0.16,0.85 0.44,1.16 -0.22,0.29 -0.34,0.64 -0.34,1.03 0,0.3 0.08,0.57 0.22,0.81 -0.37,0.32 -0.6,0.77 -0.6,1.29 0,0.77 0.51,1.44 1.22,1.65 0,0.02 0,0.04 0,0.06 0,0.95 0.77,1.72 1.72,1.72 0.43,0 0.82,-0.15 1.12,-0.4 0.79,0.46 1.71,0.75 2.69,0.75 2.93,0 5.31,-2.39 5.31,-5.32 0,-0.6 -0.12,-1.17 -0.31,-1.71 0.4,-0.33 0.66,-0.8 0.66,-1.35 0,-0.95 -0.77,-1.72 -1.72,-1.72 -0.12,0 -0.23,0.04 -0.34,0.07 C 22.3,3.51 21.64,2.96 20.84,2.96 20.76,2.96 20.69,2.99 20.62,3 20.3,2.62 19.83,2.37 19.31,2.37 Z" />
    <path
       style="display:inline;overflow:visible;visibility:visible;fill:#64462e;fill-opacity:1;fill-rule:evenodd;stroke:none;marker:none;enable-background:accumulate"
       id="p2551-7"
       d="m 24.64,7.4 c -6.93,-0.3 -10.95,4.81 -8.91,12.88 -0.73,0.57 -1.22,1.49 -1.22,2.53 0,1.73 1.32,3.15 2.94,3.15 0.24,0 0.47,-0.03 0.69,-0.09 0.77,1.13 1.66,1.96 2.56,2.44 1.75,0.92 7,3.09 10.09,1.34 C 33.88,27.9 40.27,10.92 28.01,7.93 26.83,7.62 25.7,7.45 24.64,7.4 Z" />
    <path
       style="display:inline;overflow:visible;visibility:visible;opacity:1;fill:#3e130e;fill-opacity:0.4;fill-rule:evenodd;stroke:none;marker:none;enable-background:accumulate"
       id="p3501-5"
       d="m 34.5,20.84375 c -0.631163,0.12011 -1.255251,0.71015 -1.53125,1.53125 -0.364,1.0829 -0.0063,2.19275 0.8125,2.46875 0.0097,0.003 0.02147,-0.003 0.03125,0 0.46657,-1.22535 0.874031,-2.57782 1.125,-4 -0.145744,-0.024 -0.290645,-0.028 -0.4375,0 z" />
    <path
       style="display:inline;fill:none;fill-rule:evenodd;stroke:#24211e;stroke-width:1;stroke-linecap:butt;stroke-linejoin:miter;stroke-miterlimit:4;stroke-dasharray:none;stroke-opacity:1"
       id="p2558-1"
       d="m 24.64,7.4 c -6.93,-0.3 -10.95,4.81 -8.91,12.88 -0.73,0.57 -1.22,1.49 -1.22,2.53 0,1.73 1.32,3.15 2.94,3.15 0.24,0 0.47,-0.03 0.69,-0.09 0.77,1.13 1.66,1.96 2.56,2.44 1.75,0.92 7,3.09 10.09,1.34 C 33.88,27.9 40.27,10.92 28.01,7.93 26.83,7.62 25.7,7.45 24.64,7.4 Z" />
    <path
       style="display:inline;overflow:visible;visibility:visible;fill:none;fill-opacity:1;fill-rule:evenodd;stroke:#24211e;stroke-width:0.69;stroke-linecap:round;stroke-linejoin:miter;stroke-miterlimit:4;stroke-dasharray:none;stroke-dashoffset:0;stroke-opacity:1;marker:none;enable-background:accumulate"
       id="p2560-2"
       d="m 15.63,20.49 c 0.94,-0.64 1.69,-0.07 2.22,0.55 -0.35,0.88 -0.62,1.15 -0.71,1.5 -0.62,-0.44 -1.06,-0.18 -1.06,0.44" />
    <path
       style="display:inline;overflow:visible;visibility:visible;fill:#382a1d;fill-opacity:1;fill-rule:evenodd;stroke:#24211e;stroke-width:0.69;stroke-linecap:round;stroke-linejoin:miter;stroke-miterlimit:4;stroke-dasharray:none;stroke-dashoffset:0;stroke-opacity:1;marker:none;enable-background:accumulate"
       id="p2589-3"
       d="m 26.04,21.08 c 0,0.57 -0.41,1.05 -0.91,1.05 -0.51,0 -0.91,-0.48 -0.91,-1.05 0,-0.58 0.4,-1.05 0.91,-1.05 0.5,0 0.91,0.47 0.91,1.05 l 0,0 z" />
    <path
       style="display:inline;overflow:visible;visibility:visible;fill:#382a1d;fill-opacity:1;fill-rule:evenodd;stroke:#24211e;stroke-width:0.69;stroke-linecap:round;stroke-linejoin:miter;stroke-miterlimit:4;stroke-dasharray:none;stroke-dashoffset:0;stroke-opacity:1;marker:none;enable-background:accumulate"
       id="p2591-5"
       d="m 31.22,21.3 c 0,0.62 -0.36,1.13 -0.8,1.13 -0.45,0 -0.8,-0.51 -0.8,-1.13 0,-0.63 0.35,-1.13 0.8,-1.13 0.44,0 0.8,0.5 0.8,1.13 l 0,0 z" />
    <path
       style="display:inline;overflow:visible;visibility:visible;opacity:1;fill:none;fill-opacity:1;fill-rule:evenodd;stroke:#24211e;stroke-width:0.69;stroke-linecap:round;stroke-linejoin:miter;stroke-miterlimit:4;stroke-dasharray:none;stroke-dashoffset:0;stroke-opacity:1;marker:none;enable-background:accumulate"
       id="p3427-9"
       d="m 23.04,19.49 c 0.47,-2.1 3.06,-1.81 3.53,-0.67" />
    <path
       style="display:inline;overflow:visible;visibility:visible;opacity:1;fill:none;fill-opacity:1;fill-rule:evenodd;stroke:#24211e;stroke-width:0.69;stroke-linecap:round;stroke-linejoin:miter;stroke-miterlimit:4;stroke-dasharray:none;stroke-dashoffset:0;stroke-opacity:1;marker:none;enable-background:accumulate"
       id="p3429-0"
       d="m 32.41,19.49 c -0.48,-2.1 -3.06,-1.81 -3.54,-0.67" />
    <path
       style="display:inline;overflow:visible;visibility:visible;opacity:1;fill:#251814;fill-opacity:1;fill-rule:evenodd;stroke:#1d1613;stroke-width:0.69;stroke-linecap:butt;stroke-linejoin:miter;stroke-miterlimit:4;stroke-dasharray:none;stroke-dashoffset:0;stroke-opacity:1;marker:none;enable-background:accumulate"
       id="p3442-7"
       d="M 26.37,6.31 C 25.96,6.31 25.6,6.43 25.28,6.62 25.05,6.54 24.81,6.5 24.56,6.5 24.25,6.5 23.98,6.54 23.71,6.65 23.45,6.54 23.14,6.5 22.84,6.5 22.27,6.5 21.76,6.71 21.37,7.06 21.11,6.95 20.85,6.87 20.56,6.87 c -1.02,0 -1.88,0.69 -2.13,1.63 -1.21,0 -2.18,0.97 -2.18,2.18 0,0.14 0.03,0.31 0.06,0.44 -1.02,0.19 -1.78,1.08 -1.78,2.16 0,0.52 0.19,0.99 0.5,1.37 -0.42,0.4 -0.69,0.97 -0.69,1.6 0,0.36 0.09,0.69 0.25,1 -0.27,0.36 -0.44,0.79 -0.44,1.28 0,1.21 1.12,1.04 2.26,1.47 0.89,0.34 1.91,1.45 2.76,-0.92 -0.26,-2.09 0.28,-6.03 1.92,-7.75 2.4,-2.51 9.87,-2.94 11.62,0.57 1.13,2.26 1.7,4.89 2.25,7.53 0.69,-0.37 1.16,-1.1 1.16,-1.93 0,-0.38 -0.08,-0.76 -0.25,-1.07 0.17,-0.31 0.25,-0.68 0.25,-1.06 0,-0.83 -0.47,-1.53 -1.16,-1.91 0.2,-0.33 0.32,-0.74 0.32,-1.15 0,-1.22 -0.98,-2.19 -2.19,-2.19 -0.04,0 -0.09,0.03 -0.13,0.03 C 32.78,9.54 32.35,9.07 31.78,8.81 31.47,7.96 30.67,7.34 29.71,7.34 29.23,7.34 28.8,7.51 28.43,7.78 28.13,6.92 27.33,6.31 26.37,6.31 Z" />
    <path
       style="display:inline;overflow:visible;visibility:visible;opacity:1;fill:#3e130e;fill-opacity:0.4;fill-rule:evenodd;stroke:none;marker:none;enable-background:accumulate"
       id="p3499-1"
       d="m 25.1672,24.1212 c 0,1.1466 -0.945,2.0916 -2.0916,2.0916 -1.1592,0 -2.0916,-0.945 -2.0916,-2.0916 0,-1.1592 0.9324,-2.0916 2.0916,-2.0916 1.1466,0 2.0916,0.9324 2.0916,2.0916 l 0,0 z" />
    <path
       style="display:inline;overflow:visible;visibility:visible;opacity:1;fill:none;fill-opacity:1;fill-rule:evenodd;stroke:#24211e;stroke-width:0.69;stroke-linecap:round;stroke-linejoin:miter;stroke-miterlimit:4;stroke-dasharray:none;stroke-dashoffset:0;stroke-opacity:1;marker:none;enable-background:accumulate"
       id="p3506-0"
       d="m 23.9,25.57 c 2.93,2.25 8.1,2.64 7.42,-0.39" />
    <path
       style="display:inline;overflow:visible;visibility:visible;fill:#64462e;fill-opacity:1;fill-rule:evenodd;stroke:#24211e;stroke-width:0.69;stroke-linecap:round;stroke-linejoin:miter;stroke-miterlimit:4;stroke-dasharray:none;stroke-dashoffset:0;stroke-opacity:1;marker:none;enable-background:accumulate"
       id="p2585-3"
       d="m 28.3,22.65 c 0,0 1.23,-0.37 2.1,-0.42 2.2,-0.13 1.82,4.41 -0.43,3.66 -0.87,-0.29 -2.1,-1.2 -2.1,-1.2" />
  </g>
  <g
     transform="matrix(4.9704905,0,0,4.9704905,119.03311,101.80888)"
     id="g4477">
    <path
       d="M 32.06,30.39 C 38.24,27.92 39.66,21.2 38.07,17.66 36.47,14.13 32.76,5.29 23.04,5.82 13.32,6.35 10.14,13.07 11.2,20.84 c 1.06,7.78 -1.95,8.14 3.71,10.26 5.65,2.12 16.97,-0.36 17.15,-0.71 z"
       id="path4731"
       style="display:inline;overflow:visible;visibility:visible;opacity:1;fill:#c18c32;fill-opacity:1;fill-rule:evenodd;stroke:#372517;stroke-width:0.69;stroke-linecap:butt;stroke-linejoin:miter;stroke-miterlimit:4;stroke-dasharray:none;stroke-dashoffset:0;stroke-opacity:1;marker:none;enable-background:accumulate" />
    <path
       style="display:inline;overflow:visible;visibility:visible;fill:#1a1a1a;fill-opacity:0.5;fill-rule:evenodd;stroke:none;marker:none;enable-background:accumulate"
       id="path4733"
       d="m 10.7,41.01 c 0,2.4 5.84,4.35 13.05,4.35 7.21,0 13.06,-1.95 13.06,-4.35 0,-2.41 -5.85,-4.35 -13.06,-4.35 -7.21,0 -13.05,1.94 -13.05,4.35 z" />
    <path
       style="display:inline;fill:#9e6f49;fill-opacity:1;fill-rule:evenodd;stroke:none"
       id="path4735"
       d="m 30.03,25.84 c 5.1,2.5 5.49,6.5 5.34,8.25 -0.09,1.07 -1.13,1.84 -2.22,2.03 l 0,0.03 c -1.03,4.22 -3.11,5.47 -4.25,5.47 -1.13,0 -1.76,-2.06 -3.72,-2.06 -1.57,0 -3.69,0.36 -6.12,-0.78 L 19,38.84 c -0.62,0.82 -1.28,1.77 -2.25,1.31 -2.34,-1.11 -5.12,-8.04 -1.16,-11.4 l 14.44,-2.91 z" />
    <path
       style="fill:#0000cc;fill-opacity:1;fill-rule:evenodd;stroke:none"
       id="path4737"
       d="m 28.81,26.09 c -0.43,2.71 -0.46,5.1 -0.28,6 1.43,2.77 5.12,3.38 3.78,6.44 -0.91,0.52 -1.91,0.93 -1.91,0.93 l -2.12,-0.93 -2.03,1.28 c -0.31,-0.15 -0.66,-0.25 -1.07,-0.25 -1.57,0 -3.69,0.36 -6.12,-0.78 L 19,38.84 c -0.01,0.01 -0.03,0.02 -0.03,0.03 l -1.85,-1.16 -2.06,0.69 c -0.65,-1.05 -1.18,-2.41 -1.38,-3.84 0.85,-1.89 2.07,-4.09 3.88,-6.22 l 11.25,-2.25 z" />
    <path
       style="display:inline;overflow:visible;visibility:visible;fill:none;fill-opacity:1;fill-rule:evenodd;stroke:#000059;stroke-width:0.69;stroke-linecap:butt;stroke-linejoin:miter;stroke-miterlimit:4;stroke-dasharray:none;stroke-dashoffset:0;stroke-opacity:1;marker:none;enable-background:accumulate"
       id="path4739"
       d="m 13.68,34.56 c 0.85,-1.89 2.07,-4.09 3.88,-6.22 l 11.25,-2.25 c -0.43,2.71 -0.46,5.1 -0.28,6 m -11.41,5.62 -2.06,0.69 m 17.25,0.13 c -0.91,0.52 -1.91,0.93 -1.91,0.93 l -2.12,-0.93 -2.03,1.28" />
    <path
       style="display:inline;overflow:visible;visibility:visible;fill:none;fill-opacity:1;fill-rule:evenodd;stroke:#000059;stroke-width:0.69;stroke-linecap:butt;stroke-linejoin:miter;stroke-miterlimit:4;stroke-dasharray:none;stroke-dashoffset:0;stroke-opacity:1;marker:none;enable-background:accumulate"
       id="path4741"
       d="m 28.45,31.98 c -0.48,2.48 -2.66,3.2 -3.93,2.72" />
    <path
       style="display:inline;overflow:visible;visibility:visible;fill:none;fill-opacity:1;fill-rule:evenodd;stroke:#24211e;stroke-width:1;stroke-linecap:round;stroke-linejoin:miter;stroke-miterlimit:4;stroke-dasharray:none;stroke-dashoffset:0;stroke-opacity:1;marker:none;enable-background:accumulate"
       id="path4743"
       d="m 30.26,25.93 c 5.1,2.5 5.26,6.4 5.11,8.14 -0.14,1.75 -2.81,2.77 -4.12,1.61 -1.31,-1.17 -1.39,-3.56 -2.7,-3.71" />
    <path
       style="display:inline;overflow:visible;visibility:visible;fill:none;fill-opacity:1;fill-rule:evenodd;stroke:#24211e;stroke-width:1;stroke-linecap:round;stroke-linejoin:miter;stroke-miterlimit:4;stroke-dasharray:none;stroke-dashoffset:0;stroke-opacity:1;marker:none;enable-background:accumulate"
       id="path4745"
       d="m 33.16,36.16 c -1.03,4.21 -3.13,5.45 -4.27,5.45 -1.13,0 -1.75,-2.06 -3.7,-2.06 -1.96,0 -4.74,0.62 -7.94,-1.86" />
    <path
       style="display:inline;overflow:visible;visibility:visible;fill:none;fill-opacity:1;fill-rule:evenodd;stroke:#24211e;stroke-width:1;stroke-linecap:butt;stroke-linejoin:miter;stroke-miterlimit:4;stroke-dasharray:none;stroke-dashoffset:0;stroke-opacity:1;marker:none;enable-background:accumulate"
       id="path4747"
       d="m 19.01,38.83 c -0.62,0.82 -1.3,1.8 -2.27,1.34 -2.34,-1.11 -5.13,-8.06 -1.16,-11.42" />
    <path
       style="display:inline;overflow:visible;visibility:visible;fill:none;fill-opacity:1;fill-rule:evenodd;stroke:#000059;stroke-width:0.69;stroke-linecap:butt;stroke-linejoin:miter;stroke-miterlimit:4;stroke-dasharray:none;stroke-dashoffset:0;stroke-opacity:1;marker:none;enable-background:accumulate"
       id="path4749"
       d="m 15.78,30.81 c -1.28,2.07 0.27,3.62 1.63,3.62" />
    <path
       style="display:inline;overflow:visible;visibility:visible;fill:#9e6f49;fill-opacity:1;fill-rule:evenodd;stroke:none;marker:none;enable-background:accumulate"
       id="path4751"
       d="m 22.79,7.4 c 6.93,-0.3 10.95,4.81 8.91,12.88 0.73,0.57 1.22,1.49 1.22,2.53 0,1.73 -1.32,3.15 -2.94,3.15 -0.24,0 -0.47,-0.03 -0.69,-0.09 -0.77,1.13 -1.66,1.96 -2.56,2.44 -1.75,0.92 -7,3.09 -10.09,1.34 C 13.55,27.9 7.16,10.92 19.42,7.93 20.6,7.62 21.73,7.45 22.79,7.4 Z" />
    <path
       style="display:inline;overflow:visible;visibility:visible;opacity:1;fill:#e4906d;fill-opacity:0.45;fill-rule:evenodd;stroke:none;marker:none;enable-background:accumulate"
       id="path4753"
       d="m 13.1125,23.8656 c 0.221,0.816 0.942,1.348 1.6042,1.176 0.6622,-0.172 1.0115,-0.982 0.7905,-1.798 -0.2236,-0.8256 -0.9369,-1.3596 -1.5991,-1.1876 -0.6622,0.172 -1.0192,0.984 -0.7956,1.8096 z" />
    <path
       style="display:inline;fill:none;fill-rule:evenodd;stroke:#24211e;stroke-width:1;stroke-linecap:butt;stroke-linejoin:miter;stroke-miterlimit:4;stroke-dasharray:none;stroke-opacity:1"
       id="path4755"
       d="m 22.79,7.4 c 6.93,-0.3 10.95,4.81 8.91,12.88 0.73,0.57 1.22,1.49 1.22,2.53 0,1.73 -1.32,3.15 -2.94,3.15 -0.24,0 -0.47,-0.03 -0.69,-0.09 -0.77,1.13 -1.66,1.96 -2.56,2.44 -1.75,0.92 -7,3.09 -10.09,1.34 C 13.55,27.9 7.16,10.92 19.42,7.93 20.6,7.62 21.73,7.45 22.79,7.4 Z" />
    <path
       style="display:inline;overflow:visible;visibility:visible;fill:none;fill-opacity:1;fill-rule:evenodd;stroke:#24211e;stroke-width:0.69;stroke-linecap:round;stroke-linejoin:miter;stroke-miterlimit:4;stroke-dasharray:none;stroke-dashoffset:0;stroke-opacity:1;marker:none;enable-background:accumulate"
       id="path4757"
       d="m 31.8,20.49 c -0.94,-0.64 -1.69,-0.07 -2.22,0.55 0.35,0.88 0.62,1.15 0.71,1.5 0.62,-0.44 1.06,-0.18 1.06,0.44" />
    <path
       style="display:inline;overflow:visible;visibility:visible;fill:none;fill-opacity:1;fill-rule:evenodd;stroke:#24211e;stroke-width:0.69;stroke-linecap:round;stroke-linejoin:miter;stroke-miterlimit:4;stroke-dasharray:none;stroke-dashoffset:0;stroke-opacity:1;marker:none;enable-background:accumulate"
       id="path4759"
       d="m 18.53,20.44 c 0,0 -0.3,2.04 -1.13,3.69 -0.82,1.64 2.07,0.54 2.54,0.54" />
    <path
       style="display:inline;overflow:visible;visibility:visible;opacity:1;fill:#c18c32;fill-opacity:1;fill-rule:evenodd;stroke:none;marker:none;enable-background:accumulate"
       id="path4761"
       d="m 27.45,15.84 c -0.73,2.2 -1.47,2.25 -1.96,2.98 -2.25,-1.32 -9.61,-1.35 -10.83,-1.47 0,-1.11 -0.16,-2.19 0.46,-3.3 -0.98,1.47 -2.33,5.15 -2.21,8.94 0.37,3.06 -1.83,-3.43 -1.59,-6.61 0.24,-3.18 2.94,-10.41 12.36,-9.92 9.43,0.49 9.87,8.15 9.01,14.03 -0.73,-0.49 -2.14,-0.91 -3.13,0.05 -1.22,-1.34 -1.55,-2.45 -2.11,-4.7 z" />
    <path
       style="display:inline;overflow:visible;visibility:visible;opacity:1;fill:none;fill-opacity:1;fill-rule:evenodd;stroke:#372517;stroke-width:0.69;stroke-linecap:butt;stroke-linejoin:miter;stroke-miterlimit:4;stroke-dasharray:none;stroke-dashoffset:0;stroke-opacity:1;marker:none;enable-background:accumulate"
       id="path4763"
       d="m 29.56,20.54 c -1.22,-1.34 -1.55,-2.45 -2.11,-4.7 -0.73,2.2 -1.47,2.25 -1.96,2.98 -2.25,-1.32 -9.61,-1.35 -10.83,-1.47 0,-1.11 -0.16,-2.19 0.46,-3.3 -0.98,1.47 -3.4,5.66 -2.01,9.77" />
    <path
       style="display:inline;overflow:visible;visibility:visible;opacity:1;fill:#1d6381;fill-opacity:0.68000034;fill-rule:evenodd;stroke:#24211e;stroke-width:0.69;stroke-linecap:round;stroke-linejoin:miter;stroke-miterlimit:4;stroke-dasharray:none;stroke-dashoffset:0;stroke-opacity:1;marker:none;enable-background:accumulate"
       id="path4765"
       d="m 21.39,21.66 c 0,0.7 0.61,1.27 1.36,1.27 0.76,0 1.36,-0.57 1.36,-1.27 0,-0.71 -0.6,-1.28 -1.36,-1.28 -0.75,0 -1.36,0.57 -1.36,1.28 z" />
    <path
       style="display:inline;overflow:visible;visibility:visible;opacity:1;fill:#1d6381;fill-opacity:0.68000034;fill-rule:evenodd;stroke:#24211e;stroke-width:0.69;stroke-linecap:round;stroke-linejoin:miter;stroke-miterlimit:4;stroke-dasharray:none;stroke-dashoffset:0;stroke-opacity:1;marker:none;enable-background:accumulate"
       id="path4767"
       d="m 15.08,21.31 c 0,0.7 0.61,1.27 1.36,1.27 0.76,0 1.36,-0.57 1.36,-1.27 0,-0.71 -0.6,-1.28 -1.36,-1.28 -0.75,0 -1.36,0.57 -1.36,1.28 z" />
    <path
       style="display:inline;overflow:visible;visibility:visible;opacity:1;fill:none;fill-opacity:1;fill-rule:evenodd;stroke:#24211e;stroke-width:0.69;stroke-linecap:round;stroke-linejoin:miter;stroke-miterlimit:4;stroke-dasharray:none;stroke-dashoffset:0;stroke-opacity:1;marker:none;enable-background:accumulate"
       id="path4769"
       d="m 23.67,27.05 -7.63,-0.79 1.49,-1.23" />
    <path
       style="display:inline;overflow:visible;visibility:visible;opacity:1;fill:#e4906d;fill-opacity:0.45;fill-rule:evenodd;stroke:none;marker:none;enable-background:accumulate"
       id="path4771"
       d="m 24.42,25.17 c 0,0.85 0.7,1.55 1.56,1.55 0.86,0 1.55,-0.7 1.55,-1.55 0,-0.86 -0.69,-1.56 -1.55,-1.56 -0.86,0 -1.56,0.7 -1.56,1.56 z" />
  </g>
  <g
     transform="matrix(4.9704905,0,0,4.9704905,-19.454891,201.16126)"
     id="g4372">
    <path
       d="m 36.73,41.01 c 0,2.4 -5.84,4.35 -13.05,4.35 -7.21,0 -13.06,-1.95 -13.06,-4.35 0,-2.41 5.85,-4.35 13.06,-4.35 7.21,0 13.05,1.94 13.05,4.35 z"
       id="p2465"
       style="display:inline;overflow:visible;visibility:visible;fill:#1a1a1a;fill-opacity:0.5;fill-rule:evenodd;stroke:none;marker:none;enable-background:accumulate" />
    <path
       d="m 17.4,25.84 c -5.1,2.5 -5.49,6.5 -5.34,8.25 0.09,1.07 1.13,1.84 2.22,2.03 l 0,0.03 c 1.03,4.22 3.11,5.47 4.25,5.47 1.13,0 1.76,-2.06 3.72,-2.06 1.57,0 3.69,0.36 6.12,-0.78 l 0.06,0.06 c 0.62,0.82 1.28,1.77 2.25,1.31 2.34,-1.11 5.12,-8.04 1.16,-11.4 L 17.4,25.84 Z"
       id="p2467"
       style="display:inline;fill:#9e6f49;fill-opacity:1;fill-rule:evenodd;stroke:none" />
    <path
       d="m 18.62,26.09 c 0.43,2.71 0.46,5.1 0.28,6 -1.43,2.77 -5.12,3.38 -3.78,6.44 0.91,0.52 1.91,0.93 1.91,0.93 l 2.12,-0.93 2.03,1.28 c 0.31,-0.15 0.66,-0.25 1.07,-0.25 1.57,0 3.69,0.36 6.12,-0.78 l 0.06,0.06 c 0.01,0.01 0.03,0.02 0.03,0.03 l 1.85,-1.16 2.06,0.69 c 0.65,-1.05 1.18,-2.41 1.38,-3.84 -0.85,-1.89 -2.07,-4.09 -3.88,-6.22 L 18.62,26.09 Z"
       id="p3360"
       style="fill:#0000cc;fill-opacity:1;fill-rule:evenodd;stroke:none" />
    <path
       d="M 33.75,34.56 C 32.9,32.67 31.68,30.47 29.87,28.34 L 18.62,26.09 c 0.43,2.71 0.46,5.1 0.28,6 m 11.41,5.62 2.06,0.69 m -17.25,0.13 c 0.91,0.52 1.91,0.93 1.91,0.93 l 2.12,-0.93 2.03,1.28"
       id="p3365"
       style="display:inline;overflow:visible;visibility:visible;fill:none;fill-opacity:1;fill-rule:evenodd;stroke:#000059;stroke-width:0.69;stroke-linecap:butt;stroke-linejoin:miter;stroke-miterlimit:4;stroke-dasharray:none;stroke-dashoffset:0;stroke-opacity:1;marker:none;enable-background:accumulate" />
    <path
       d="m 17.17,25.93 c -5.1,2.5 -5.26,6.4 -5.11,8.14 0.14,1.75 2.81,2.77 4.12,1.61 1.31,-1.17 1.39,-3.56 2.7,-3.71"
       id="p2479"
       style="display:inline;overflow:visible;visibility:visible;fill:none;fill-opacity:1;fill-rule:evenodd;stroke:#24211e;stroke-width:1;stroke-linecap:round;stroke-linejoin:miter;stroke-miterlimit:4;stroke-dasharray:none;stroke-dashoffset:0;stroke-opacity:1;marker:none;enable-background:accumulate" />
    <path
       d="m 14.27,36.16 c 1.03,4.21 3.13,5.45 4.27,5.45 1.13,0 1.75,-2.06 3.7,-2.06 1.96,0 4.74,0.62 7.94,-1.86"
       id="p2481"
       style="display:inline;overflow:visible;visibility:visible;fill:none;fill-opacity:1;fill-rule:evenodd;stroke:#24211e;stroke-width:1;stroke-linecap:round;stroke-linejoin:miter;stroke-miterlimit:4;stroke-dasharray:none;stroke-dashoffset:0;stroke-opacity:1;marker:none;enable-background:accumulate" />
    <path
       d="m 28.42,38.83 c 0.62,0.82 1.3,1.8 2.27,1.34 2.34,-1.11 5.13,-8.06 1.16,-11.42"
       id="p2483"
       style="display:inline;overflow:visible;visibility:visible;fill:none;fill-opacity:1;fill-rule:evenodd;stroke:#24211e;stroke-width:1;stroke-linecap:butt;stroke-linejoin:miter;stroke-miterlimit:4;stroke-dasharray:none;stroke-dashoffset:0;stroke-opacity:1;marker:none;enable-background:accumulate" />
    <path
       style="display:inline;overflow:visible;visibility:visible;fill:#9e6f49;fill-opacity:1;fill-rule:evenodd;stroke:none;marker:none;enable-background:accumulate"
       id="p2487"
       d="m 24.64,7.4 c -6.93,-0.3 -10.95,4.81 -8.91,12.88 -0.73,0.57 -1.22,1.49 -1.22,2.53 0,1.73 1.32,3.15 2.94,3.15 0.24,0 0.47,-0.03 0.69,-0.09 0.77,1.13 1.66,1.96 2.56,2.44 1.75,0.92 7,3.09 10.09,1.34 C 33.88,27.9 40.27,10.92 28.01,7.93 26.83,7.62 25.7,7.45 24.64,7.4 Z" />
    <path
       style="display:inline;overflow:visible;visibility:visible;fill:none;fill-opacity:1;fill-rule:evenodd;stroke:#24211e;stroke-width:1;stroke-linecap:round;stroke-linejoin:miter;stroke-miterlimit:4;stroke-dasharray:none;stroke-dashoffset:0;stroke-opacity:1;marker:none;enable-background:accumulate"
       id="p2495"
       d="m 30.07,21.23 2.65,-0.29" />
    <path
       style="display:inline;fill:none;fill-rule:evenodd;stroke:#24211e;stroke-width:1;stroke-linecap:butt;stroke-linejoin:miter;stroke-miterlimit:4;stroke-dasharray:none;stroke-opacity:1"
       id="p2501"
       d="m 24.64,7.4 c -6.93,-0.3 -10.95,4.81 -8.91,12.88 -0.73,0.57 -1.22,1.49 -1.22,2.53 0,1.73 1.32,3.15 2.94,3.15 0.24,0 0.47,-0.03 0.69,-0.09 0.77,1.13 1.66,1.96 2.56,2.44 1.75,0.92 7,3.09 10.09,1.34 C 33.88,27.9 40.27,10.92 28.01,7.93 26.83,7.62 25.7,7.45 24.64,7.4 Z" />
    <path
       style="display:inline;overflow:visible;visibility:visible;fill:none;fill-opacity:1;fill-rule:evenodd;stroke:#24211e;stroke-width:0.69;stroke-linecap:round;stroke-linejoin:miter;stroke-miterlimit:4;stroke-dasharray:none;stroke-dashoffset:0;stroke-opacity:1;marker:none;enable-background:accumulate"
       id="p2503"
       d="m 15.63,20.49 c 0.94,-0.64 1.69,-0.07 2.22,0.55 -0.35,0.88 -0.62,1.15 -0.71,1.5 -0.62,-0.44 -1.06,-0.18 -1.06,0.44" />
    <path
       style="display:inline;overflow:visible;visibility:visible;opacity:1;fill:#c18c32;fill-opacity:1;fill-rule:evenodd;stroke:#372517;stroke-width:0.69;stroke-linecap:butt;stroke-linejoin:miter;stroke-miterlimit:4;stroke-dasharray:none;stroke-dashoffset:0;stroke-opacity:1;marker:none;enable-background:accumulate"
       id="p3423"
       d="m 19.28,21.13 c 1.64,1.84 3.79,3.17 4.61,4.82 1.65,0 7.49,-0.11 8.11,0.1 0.92,-1.54 1.95,-2.26 2.25,-2.46 0.21,1.95 0.62,3.69 0,5.84 -0.39,1.37 -9.84,3.08 -12,1.75 -2.15,-1.34 -3.48,-4.11 -4.1,-5.13 0.72,-1.75 0.41,-5.03 -0.2,-5.54 0.3,-0.21 1.43,0.72 1.33,0.62 z" />
    <path
       style="fill:#c18c32;fill-opacity:1;fill-rule:evenodd;stroke:#372517;stroke-width:0.69;stroke-linecap:butt;stroke-linejoin:miter;stroke-miterlimit:4;stroke-dasharray:none;stroke-opacity:1"
       id="p2578"
       d="m 22.93,5.78 c -8.64,0.1 -9.97,11 -9.43,13.03 0.58,2.23 3.31,1.28 3.31,1.28 0,0 1.99,1.17 2.94,2.34 0.23,-1.41 1.5,-4.7 2.09,-6.34 0.76,0.68 0.68,3.12 0.47,5.37 l 2.97,1.57 c 2.42,-1.57 5.42,-4.18 7.28,-7.75 2.47,3.64 1.53,3.75 2.47,5.28 1.05,0.47 1.99,1.06 2.34,-1.88 C 37.72,15.74 37.12,8.71 25.84,6.12 24.78,5.88 23.83,5.77 22.93,5.78 Z" />
    <path
       style="display:inline;overflow:visible;visibility:visible;opacity:1;fill:#c18c32;fill-opacity:1;fill-rule:evenodd;stroke:#372517;stroke-width:0.69;stroke-linecap:butt;stroke-linejoin:miter;stroke-miterlimit:4;stroke-dasharray:none;stroke-dashoffset:0;stroke-opacity:1;marker:none;enable-background:accumulate"
       id="p3395"
       d="m 27.48,24.51 c -2.46,-0.1 -4,0.92 -3.18,2.05 0.83,1.13 2.06,-0.51 2.88,0.1 0.82,0.62 2.66,0.31 3.18,-0.41 0.51,0.72 1.43,0.93 1.64,0.62 0.2,-0.31 0.92,-2.15 -0.93,-2.15 0,0.41 -0.51,0.82 -3.59,-0.21 z" />
    <path
       style="display:inline;overflow:visible;visibility:visible;fill:none;fill-opacity:1;fill-rule:evenodd;stroke:#24211e;stroke-width:0.69;stroke-linecap:round;stroke-linejoin:miter;stroke-miterlimit:4;stroke-dasharray:none;stroke-dashoffset:0;stroke-opacity:1;marker:none;enable-background:accumulate"
       id="p3350"
       d="m 28.9,20.44 c 0,0 1.3,2.35 2.12,4 0.82,1.64 -3.06,0.23 -3.53,0.23" />
    <path
       style="display:inline;overflow:visible;visibility:visible;fill:none;fill-opacity:1;fill-rule:evenodd;stroke:#24211e;stroke-width:0.69;stroke-linecap:round;stroke-linejoin:miter;stroke-miterlimit:4;stroke-dasharray:none;stroke-dashoffset:0;stroke-opacity:1;marker:none;enable-background:accumulate"
       id="p3352"
       d="m 29.49,19.62 c 1.65,-0.94 3.41,-1.06 4,-0.35" />
  </g>
  <g
     transform="matrix(4.9704905,0,0,4.9704905,423.59486,229.83177)"
     id="g4422">
    <path
       d="m 10.576441,41.01 c 0,2.4 5.84,4.35 13.05,4.35 7.21,0 13.06,-1.95 13.06,-4.35 0,-2.41 -5.85,-4.35 -13.06,-4.35 -7.21,0 -13.05,1.94 -13.05,4.35 z"
       id="path4191"
       style="display:inline;overflow:visible;visibility:visible;fill:#1a1a1a;fill-opacity:0.5;fill-rule:evenodd;stroke:none;marker:none;enable-background:accumulate" />
    <path
       d="m 29.906441,25.84 c 5.1,2.5 5.49,6.5 5.34,8.25 -0.09,1.07 -1.13,1.84 -2.22,2.03 l 0,0.03 c -1.03,4.22 -3.11,5.47 -4.25,5.47 -1.13,0 -1.76,-2.06 -3.72,-2.06 -1.57,0 -3.69,0.36 -6.12,-0.78 l -0.06,0.06 c -0.62,0.82 -1.28,1.77 -2.25,1.31 -2.34,-1.11 -5.12,-8.04 -1.16,-11.4 l 14.44,-2.91 z"
       id="path4193"
       style="display:inline;overflow:visible;visibility:visible;fill:#64462e;fill-opacity:1;fill-rule:evenodd;stroke:none;marker:none;enable-background:accumulate" />
    <path
       d="m 17.466441,28.34 3.34,5.53 5.41,1.91 4.53,-0.44 2.25,0.97 c -0.34,1.33 -0.79,2.34 -1.28,3.12 l -2.59,-0.53 -1,1.1 -1.47,0.12 c -0.43,-0.31 -0.93,-0.56 -1.6,-0.56 -1.57,0 -3.69,0.36 -6.12,-0.78 l -0.06,0.06 c -0.1,0.13 -0.18,0.27 -0.28,0.41 l -1.63,-1.44 -2.03,0.62 c -1.61,-2.56 -2.47,-7.14 0.53,-9.68 l 2,-0.41 z"
       id="path4195"
       style="display:inline;overflow:visible;visibility:visible;opacity:1;fill:#0000cc;fill-opacity:1;fill-rule:evenodd;stroke:none;marker:none;enable-background:accumulate" />
    <path
       d="m 17.466441,28.34 3.34,5.53 5.41,1.91 4.53,-0.44 m -13.78,2.47 -2.03,0.62 m 16.78,1 -2.59,-0.53 -1,1.1 -1.47,0.12"
       id="path4197"
       style="display:inline;overflow:visible;visibility:visible;opacity:1;fill:none;fill-opacity:1;fill-rule:evenodd;stroke:#000059;stroke-width:0.69;stroke-linecap:butt;stroke-linejoin:miter;stroke-miterlimit:4;stroke-dasharray:none;stroke-dashoffset:0;stroke-opacity:1;marker:none;enable-background:accumulate" />
    <path
       d="m 30.136441,25.93 c 5.1,2.5 5.26,6.4 5.11,8.14 -0.14,1.75 -2.81,2.77 -4.12,1.61 -1.31,-1.17 -1.39,-3.56 -2.7,-3.71"
       id="path4199"
       style="display:inline;overflow:visible;visibility:visible;fill:none;fill-opacity:1;fill-rule:evenodd;stroke:#24211e;stroke-width:1;stroke-linecap:round;stroke-linejoin:miter;stroke-miterlimit:4;stroke-dasharray:none;stroke-dashoffset:0;stroke-opacity:1;marker:none;enable-background:accumulate" />
    <path
       d="m 33.036441,36.16 c -1.03,4.21 -3.13,5.45 -4.27,5.45 -1.13,0 -1.75,-2.06 -3.7,-2.06 -1.96,0 -4.74,0.62 -7.94,-1.86"
       id="path4201"
       style="display:inline;overflow:visible;visibility:visible;fill:none;fill-opacity:1;fill-rule:evenodd;stroke:#24211e;stroke-width:1;stroke-linecap:round;stroke-linejoin:miter;stroke-miterlimit:4;stroke-dasharray:none;stroke-dashoffset:0;stroke-opacity:1;marker:none;enable-background:accumulate" />
    <path
       d="m 18.886441,38.83 c -0.62,0.82 -1.3,1.8 -2.27,1.34 -2.34,-1.11 -5.13,-8.06 -1.16,-11.42"
       id="path4203"
       style="display:inline;overflow:visible;visibility:visible;fill:none;fill-opacity:1;fill-rule:evenodd;stroke:#24211e;stroke-width:1;stroke-linecap:butt;stroke-linejoin:miter;stroke-miterlimit:4;stroke-dasharray:none;stroke-dashoffset:0;stroke-opacity:1;marker:none;enable-background:accumulate" />
    <path
       style="display:inline;overflow:visible;visibility:visible;fill:#64462e;fill-opacity:1;fill-rule:evenodd;stroke:none;marker:none;enable-background:accumulate"
       id="path4205"
       d="m 22.666441,7.4 c 6.93,-0.3 10.95,4.81 8.91,12.88 0.73,0.57 1.22,1.49 1.22,2.53 0,1.73 -1.32,3.15 -2.94,3.15 -0.24,0 -0.47,-0.03 -0.69,-0.09 -0.77,1.13 -1.66,1.96 -2.56,2.44 -1.75,0.92 -7,3.09 -10.09,1.34 -3.09,-1.75 -9.48,-18.73 2.78,-21.72 1.18,-0.31 2.31,-0.48 3.37,-0.53 z" />
    <path
       style="display:inline;overflow:visible;visibility:visible;fill:none;fill-opacity:1;fill-rule:evenodd;stroke:#24211e;stroke-width:1;stroke-linecap:round;stroke-linejoin:miter;stroke-miterlimit:4;stroke-dasharray:none;stroke-dashoffset:0;stroke-opacity:1;marker:none;enable-background:accumulate"
       id="path4207"
       d="m 24.056441,18.71 -2.76,-0.91" />
    <path
       style="display:inline;overflow:visible;visibility:visible;fill:none;fill-opacity:1;fill-rule:evenodd;stroke:#24211e;stroke-width:1;stroke-linecap:round;stroke-linejoin:miter;stroke-miterlimit:4;stroke-dasharray:none;stroke-dashoffset:0;stroke-opacity:1;marker:none;enable-background:accumulate"
       id="path4209"
       d="m 17.336441,17.95 -1.63,0.89" />
    <path
       style="display:inline;fill:none;fill-rule:evenodd;stroke:#24211e;stroke-width:1;stroke-linecap:butt;stroke-linejoin:miter;stroke-miterlimit:4;stroke-dasharray:none;stroke-opacity:1"
       id="path4211"
       d="m 22.666441,7.4 c 6.93,-0.3 10.95,4.81 8.91,12.88 0.73,0.57 1.22,1.49 1.22,2.53 0,1.73 -1.32,3.15 -2.94,3.15 -0.24,0 -0.47,-0.03 -0.69,-0.09 -0.77,1.13 -1.66,1.96 -2.56,2.44 -1.75,0.92 -7,3.09 -10.09,1.34 -3.09,-1.75 -9.48,-18.73 2.78,-21.72 1.18,-0.31 2.31,-0.48 3.37,-0.53 z" />
    <path
       style="display:inline;overflow:visible;visibility:visible;fill:none;fill-opacity:1;fill-rule:evenodd;stroke:#24211e;stroke-width:0.69;stroke-linecap:round;stroke-linejoin:miter;stroke-miterlimit:4;stroke-dasharray:none;stroke-dashoffset:0;stroke-opacity:1;marker:none;enable-background:accumulate"
       id="path4213"
       d="m 31.676441,20.49 c -0.94,-0.64 -1.69,-0.07 -2.22,0.55 0.35,0.88 0.62,1.15 0.71,1.5 0.62,-0.44 1.06,-0.18 1.06,0.44" />
    <g
       transform="matrix(-1,0,0,1,47.306441,0)"
       style="display:inline"
       id="g4215">
      <path
         style="display:inline;fill:none;fill-rule:evenodd;stroke:#201915;stroke-width:0.5;stroke-linecap:round;stroke-linejoin:miter;stroke-miterlimit:4;stroke-dasharray:none;stroke-opacity:1"
         id="path4217"
         d="m 19.72,26.5 -1.19,1.23" />
      <path
         style="display:inline;fill:none;fill-rule:evenodd;stroke:#201915;stroke-width:0.5;stroke-linecap:round;stroke-linejoin:miter;stroke-miterlimit:4;stroke-dasharray:none;stroke-opacity:1"
         id="path4219"
         d="m 21.24,27.72 -0.72,1.36" />
      <path
         style="display:inline;fill:none;fill-rule:evenodd;stroke:#201915;stroke-width:0.5;stroke-linecap:round;stroke-linejoin:miter;stroke-miterlimit:4;stroke-dasharray:none;stroke-opacity:1"
         id="path4221"
         d="m 22.97,28.44 -0.38,1.61" />
      <path
         style="display:inline;fill:none;fill-rule:evenodd;stroke:#201915;stroke-width:0.5;stroke-linecap:round;stroke-linejoin:miter;stroke-miterlimit:4;stroke-dasharray:none;stroke-opacity:1"
         id="path4223"
         d="m 24.82,28.91 -0.29,1.9" />
      <path
         style="display:inline;fill:none;fill-rule:evenodd;stroke:#201915;stroke-width:0.5;stroke-linecap:round;stroke-linejoin:miter;stroke-miterlimit:4;stroke-dasharray:none;stroke-opacity:1"
         id="path4225"
         d="m 26.47,29.33 -0.04,1.78" />
      <path
         style="display:inline;fill:none;fill-rule:evenodd;stroke:#201915;stroke-width:0.5;stroke-linecap:round;stroke-linejoin:miter;stroke-miterlimit:4;stroke-dasharray:none;stroke-opacity:1"
         id="path4227"
         d="m 28.41,29.41 0.34,1.74" />
      <path
         style="display:inline;fill:none;fill-rule:evenodd;stroke:#201915;stroke-width:0.5;stroke-linecap:round;stroke-linejoin:miter;stroke-miterlimit:4;stroke-dasharray:none;stroke-opacity:1"
         id="path4229"
         d="m 30.06,28.95 0.85,1.52" />
      <path
         style="display:inline;fill:none;fill-rule:evenodd;stroke:#201915;stroke-width:0.5;stroke-linecap:round;stroke-linejoin:miter;stroke-miterlimit:4;stroke-dasharray:none;stroke-opacity:1"
         id="path4231"
         d="m 31.5,28.06 0.93,0.93" />
      <path
         style="display:inline;fill:none;fill-rule:evenodd;stroke:#201915;stroke-width:0.5;stroke-linecap:round;stroke-linejoin:miter;stroke-miterlimit:4;stroke-dasharray:none;stroke-opacity:1"
         id="path4233"
         d="m 32.13,26.92 1.31,0.72" />
    </g>
    <path
       style="display:inline;overflow:visible;visibility:visible;opacity:1;fill:#251814;fill-opacity:1;fill-rule:evenodd;stroke:#1d1613;stroke-width:0.69;stroke-linecap:butt;stroke-linejoin:miter;stroke-miterlimit:4;stroke-dasharray:none;stroke-dashoffset:0;stroke-opacity:1;marker:none;enable-background:accumulate"
       id="path4235"
       d="m 22.716441,3.46 c 0.62,0 1.18,0.23 1.63,0.6 0.34,-0.18 0.74,-0.28 1.15,-0.28 1.07,0 2.02,0.63 2.41,1.56 0.29,-0.12 0.61,-0.16 0.94,-0.16 1.29,0 2.34,0.95 2.53,2.19 0.16,-0.03 0.3,-0.03 0.47,-0.03 1.42,0 2.59,1.14 2.59,2.56 0,0.28 -0.08,0.53 -0.16,0.78 1.03,0.34 1.78,1.3 1.78,2.44 0,0.47 -0.15,0.9 -0.37,1.28 0.62,0.47 1,1.23 1,2.06 0,0.45 -0.11,0.86 -0.31,1.22 0.06,0.23 0.09,0.47 0.09,0.72 0,0.94 -0.5,1.74 -1.25,2.19 0.05,0.2 0.06,0.38 0.06,0.59 0,1.43 -0.81,2.58 -2.24,2.58 0.32,-2.18 -0.38,-4.24 -2.67,-3.72 -1.45,0.31 -0.91,1.47 -0.68,2.14 -0.21,1.07 -2.56,-0.66 -2.34,-2.59 0.21,-1.94 0.85,-6.34 -7.32,-6.34 -6.58,0 -7.57,4.33 -7.37,8.93 -0.25,-1.04 -0.45,-2.12 -0.53,-3.22 -0.09,0.41 -0.2,0.84 -0.28,1.32 -0.76,-0.46 -1.28,-1.28 -1.29,-2.22 0,-0.17 0.04,-0.34 0.07,-0.5 -0.5,-0.47 -0.82,-1.11 -0.82,-1.85 0,-0.74 0.31,-1.43 0.82,-1.9 -0.11,-0.29 -0.16,-0.59 -0.16,-0.91 0,-1.07 0.64,-1.98 1.56,-2.37 -0.02,-0.13 -0.06,-0.27 -0.06,-0.41 0,-1.39 1.12,-2.54 2.5,-2.59 0.17,-1.27 1.25,-2.25 2.56,-2.25 0.22,0 0.4,0.04 0.6,0.09 0.36,-0.99 1.29,-1.69 2.4,-1.69 0.42,0 0.81,0.11 1.16,0.28 0.43,-0.31 0.96,-0.5 1.53,-0.5 z" />
    <path
       style="display:inline;overflow:visible;visibility:visible;opacity:1;fill:none;fill-opacity:1;fill-rule:evenodd;stroke:#24211e;stroke-width:0.69;stroke-linecap:round;stroke-linejoin:miter;stroke-miterlimit:4;stroke-dasharray:none;stroke-dashoffset:0;stroke-opacity:1;marker:none;enable-background:accumulate"
       id="path4237"
       d="m 19.006441,22.65 c 0,0 -0.95,-0.1 -1.83,-0.15 -2.19,-0.12 -1.96,3.45 0.3,2.7 0.87,-0.29 1.96,-0.51 1.96,-0.51" />
    <path
       style="display:inline;overflow:visible;visibility:visible;opacity:1;fill:none;fill-opacity:1;fill-rule:evenodd;stroke:#24211e;stroke-width:0.69;stroke-linecap:round;stroke-linejoin:miter;stroke-miterlimit:4;stroke-dasharray:none;stroke-dashoffset:0;stroke-opacity:1;marker:none;enable-background:accumulate"
       id="path4239"
       d="m 24.326441,25.06 c -2.04,2.47 -7,3.2 -7.29,0.36" />
    <path
       style="display:inline;overflow:visible;visibility:visible;opacity:1;fill:#382a1d;fill-opacity:1;fill-rule:evenodd;stroke:#24211e;stroke-width:0.69;stroke-linecap:round;stroke-linejoin:miter;stroke-miterlimit:4;stroke-dasharray:none;stroke-dashoffset:0;stroke-opacity:1;marker:none;enable-background:accumulate"
       id="path4241"
       d="m 21.266441,21.08 c 0,0.57 0.41,1.05 0.91,1.05 0.51,0 0.91,-0.48 0.91,-1.05 0,-0.58 -0.4,-1.05 -0.91,-1.05 -0.5,0 -0.91,0.47 -0.91,1.05 l 0,0 z" />
    <path
       style="display:inline;overflow:visible;visibility:visible;opacity:1;fill:#382a1d;fill-opacity:1;fill-rule:evenodd;stroke:#24211e;stroke-width:0.69;stroke-linecap:round;stroke-linejoin:miter;stroke-miterlimit:4;stroke-dasharray:none;stroke-dashoffset:0;stroke-opacity:1;marker:none;enable-background:accumulate"
       id="path4243"
       d="m 16.086441,21.3 c 0,0.62 0.36,1.13 0.8,1.13 0.45,0 0.8,-0.51 0.8,-1.13 0,-0.63 -0.35,-1.13 -0.8,-1.13 -0.44,0 -0.8,0.5 -0.8,1.13 l 0,0 z" />
  </g>
</svg>
