<?xml version="1.0" encoding="UTF-8" standalone="no"?>
<!-- Created with Inkscape (http://www.inkscape.org/) -->
<svg
   xmlns:dc="http://purl.org/dc/elements/1.1/"
   xmlns:cc="http://creativecommons.org/ns#"
   xmlns:rdf="http://www.w3.org/1999/02/22-rdf-syntax-ns#"
   xmlns:svg="http://www.w3.org/2000/svg"
   xmlns="http://www.w3.org/2000/svg"
   xmlns:sodipodi="http://sodipodi.sourceforge.net/DTD/sodipodi-0.dtd"
   xmlns:inkscape="http://www.inkscape.org/namespaces/inkscape"
   width="100%"
   height="100%"
   viewBox="0 0 640 480"
   id="svg2383"
   sodipodi:version="0.32"
   inkscape:version="0.46"
   sodipodi:docname="toggleswitchex.svg"
   inkscape:output_extension="org.inkscape.output.svg.inkscape">
  <defs/>
  <g style="opacity:0.8" id="splashbg"><rect x="0" y="0" width="640" height="480" style="fill:black;fill-opacity:0.95;"/><path d="M 0 0 L 0 10 L 640 10 L 640 0 L 0 0 z M 0 20 L 0 30 L 640 30 L 640 20 L 0 20 z M 0 40 L 0 50 L 640 50 L 640 40 L 0 40 z M 0 60 L 0 70 L 640 70 L 640 60 L 0 60 z M 0 80 L 0 90 L 640 90 L 640 80 L 0 80 z M 0 100 L 0 110 L 640 110 L 640 100 L 0 100 z M 0 120 L 0 130 L 640 130 L 640 120 L 0 120 z M 0 140 L 0 150 L 640 150 L 640 140 L 0 140 z M 0 160 L 0 170 L 640 170 L 640 160 L 0 160 z M 0 180 L 0 190 L 640 190 L 640 180 L 0 180 z M 0 200 L 0 210 L 640 210 L 640 200 L 0 200 z M 0 220 L 0 230 L 640 230 L 640 220 L 0 220 z M 0 240 L 0 250 L 640 250 L 640 240 L 0 240 z M 0 260 L 0 270 L 640 270 L 640 260 L 0 260 z M 0 280 L 0 290 L 640 290 L 640 280 L 0 280 z M 0 300 L 0 310 L 640 310 L 640 300 L 0 300 z M 0 320 L 0 330 L 640 330 L 640 320 L 0 320 z M 0 340 L 0 350 L 640 350 L 640 340 L 0 340 z M 0 360 L 0 370 L 640 370 L 640 360 L 0 360 z M 0 380 L 0 390 L 640 390 L 640 380 L 0 380 z M 0 400 L 0 410 L 640 410 L 640 400 L 0 400 z M 0 420 L 0 430 L 640 430 L 640 420 L 0 420 z M 0 440 L 0 450 L 640 450 L 640 440 L 0 440 z M 0 460 L 0 470 L 640 470 L 640 460 L 0 460 z " style="fill:black;"/></g>
  <g
     inkscape:groupmode="layer"
     id="layer2"
     style="display:inline">
    <path
       style="opacity:1;fill:#000000;fill-opacity:1;fill-rule:evenodd;stroke:none;stroke-width:1.5;stroke-linecap:butt;stroke-linejoin:miter;marker:none;marker-start:none;marker-mid:none;marker-end:none;stroke-miterlimit:4;stroke-dasharray:none;stroke-dashoffset:0;stroke-opacity:1;visibility:visible;display:inline;overflow:visible;enable-background:accumulate"
       d="M 372.8125,0 C 393.07776,72.36495 404.75,156.94272 404.75,247.3125 C 404.75,331.65373 394.57776,410.96579 376.75,480 L 640,480 L 640,0 L 372.8125,0 z"
       id="rect2708" />
    <g
       id="g3823">
      <path
         d="M 396.03543,246.2369 L 382.3724,251.5273 L 381.82036,255.71362 L 375.7479,256.26566 L 375.7479,260.17596 L 360.93478,266.20241 C 347.22575,261.05002 334.85081,256.49568 333.65472,256.26566 C 330.6645,255.66761 319.39364,259.89993 319.99169,268.77861 C 319.76167,275.03508 319.62366,292.5624 319.53165,312.06788 C 317.5075,315.1041 316.1734,318.50836 315.94338,322.69468 C 316.1734,326.927 317.4615,329.73321 319.39364,332.76944 C 319.30164,365.3859 319.39364,398.37039 319.39364,402.18868 C 319.39364,409.31922 325.4201,412.90749 330.20446,414.70163 C 334.94282,416.49576 391.20507,441.38364 398.88765,443.72982 C 406.61623,446.122 409.60646,440.18755 411.99864,438.99146 C 414.34482,437.79537 414.29881,434.80515 414.29881,431.21688 C 414.29881,431.03286 414.43682,423.99433 414.43682,422.89025 L 461.17635,400.48655 L 463.01649,323.43073 L 480.12979,316.20819 L 479.57774,307.88156 L 463.61454,301.57908 L 464.16658,275.81714 L 459.56623,273.977 L 484.3161,265.78838 L 483.71806,258.1518 L 464.76463,251.5273 L 454.68986,251.5273 L 434.40233,260.03794 L 396.03543,246.2369 z"
         id="path3821"
         style="fill:none;fill-opacity:1;fill-rule:evenodd;stroke:#ffffff;stroke-width:10;stroke-linecap:butt;stroke-linejoin:miter;stroke-miterlimit:4;stroke-dasharray:none;stroke-opacity:1;display:inline" />
      <path
         style="fill:#c5cccc;fill-opacity:1;fill-rule:evenodd;stroke:none;display:inline"
         id="p2475"
         d="M 454.68986,251.5273 L 414.98887,268.22656 L 452.38969,276.41518 L 484.3161,265.78838 L 483.71806,258.1518 L 464.76463,251.5273 L 454.68986,251.5273 z M 447.65133,295.36861 L 458.87618,325.13286 L 480.12979,316.20819 L 479.57774,307.88156 L 447.65133,295.36861 z" />
      <path
         style="fill:#647054;fill-opacity:0.6;fill-rule:evenodd;stroke:none"
         id="p3460"
         d="M 483.85607,260.86601 L 448.34138,273.10293 L 447.51332,275.2651 L 452.38969,276.41518 L 484.3161,265.78838 L 483.85607,260.86601 z M 479.71575,310.31974 L 457.72609,319.84246 L 457.12805,320.53251 L 458.87618,325.13286 L 480.12979,316.20819 L 479.71575,310.31974 z" />
      <path
         style="fill:#5d6567;fill-opacity:1;fill-rule:evenodd;stroke:none;display:inline"
         id="p2471"
         d="M 357.39251,267.58251 L 399.5317,250.37722 L 464.16658,275.86314 L 461.22236,400.44055 L 404.27006,427.72061 L 357.39251,267.58251 z" />
      <path
         style="fill:#0f110d;fill-opacity:1;fill-rule:evenodd;stroke:none;marker:none;visibility:visible;display:inline;overflow:visible;enable-background:accumulate"
         id="p3469"
         d="M 416.46098,350.29676 C 413.47075,350.29676 410.66454,354.34507 410.1125,359.35945 C 409.56046,364.32782 411.4926,368.42213 414.43682,368.42213 C 417.38105,368.42213 420.18726,364.32782 420.7393,359.35945 C 421.29134,354.34507 419.4052,350.29676 416.46098,350.29676 z" />
      <path
         style="fill:#0d1925;fill-opacity:0.55;fill-rule:evenodd;stroke:none;display:inline"
         id="p3407"
         d="M 399.48569,250.37722 L 357.34651,267.62852 L 368.01932,303.87926 L 409.97449,297.99081 L 464.16658,276.27717 L 464.16658,275.81714 L 399.48569,250.37722 z" />
      <path
         style="fill:#13191e;fill-opacity:0.68999999;fill-rule:evenodd;stroke:none;display:inline"
         id="p3409"
         d="M 404.22405,292.24038 L 427.82383,283.03968 L 427.22579,277.24324 L 409.42244,261.14203 L 362.82092,281.8896 L 404.22405,292.24038 z" />
      <path
         style="fill:#262d35;fill-opacity:1;fill-rule:evenodd;stroke:none;display:inline"
         id="p2473"
         d="M 398.93365,284.18977 L 409.60646,273.51696 L 428.60589,275.2651 L 445.81119,268.7326 L 444.01706,263.3962 L 395.98943,246.2369 L 382.3264,251.57331 L 381.72835,255.71362 L 375.7939,256.31166 L 375.7939,260.45198 L 359.18665,268.7326 L 398.93365,284.18977 z" />
      <path
         style="fill:#354248;fill-opacity:1;fill-rule:evenodd;stroke:none;display:inline"
         id="p3418"
         d="M 396.03543,246.2369 L 382.3724,251.5273 L 381.82036,255.71362 L 375.7479,256.26566 L 375.7479,260.45198 L 359.23265,268.77861 L 393.73526,282.16562 L 408.27236,269.23864 L 411.72262,268.64059 L 428.97392,269.79068 L 444.33908,264.31627 L 444.06306,263.48821 L 396.03543,246.2369 z" />
      <path
         style="fill:#aab49b;fill-opacity:0.13999999;fill-rule:evenodd;stroke:none;display:inline"
         id="p3420"
         d="M 396.03543,246.2369 L 382.51041,251.5273 L 429.93999,269.51466 L 444.33908,264.31627 L 444.06306,263.48821 L 396.03543,246.2369 z" />
      <path
         style="fill:#20302f;fill-opacity:1;fill-rule:evenodd;stroke:none;display:inline"
         id="p2469"
         d="M 320.03769,268.7326 C 319.43965,287.13399 319.43965,395.10415 319.43965,402.23469 C 319.43965,409.31922 325.3741,412.90749 330.11245,414.65562 C 334.85081,416.44976 391.20507,441.38364 398.93365,443.72982 C 406.66224,446.122 409.60646,440.18755 411.99864,438.99146 C 414.34482,437.79537 414.34482,434.85115 414.34482,431.26288 C 414.34482,427.72061 416.13895,299.60093 416.13895,293.66649 C 416.13895,287.73204 411.40059,285.9379 407.81232,284.18977 C 404.27006,282.39563 336.64495,256.90971 333.70073,256.31166 C 330.7105,255.71362 319.43965,259.85393 320.03769,268.7326 z" />
      <path
         style="fill:#424c4e;fill-opacity:0.81000001;fill-rule:evenodd;stroke:none;display:inline"
         id="p3369"
         d="M 325.88013,264.7763 C 323.62596,264.7763 321.69382,266.0184 320.1297,267.76653 C 320.0837,267.81253 320.03769,267.85854 319.99169,267.90454 C 319.99169,268.22656 319.94569,268.50258 319.99169,268.77861 C 319.39364,287.18 319.39364,395.05814 319.39364,402.18868 C 319.39364,409.31922 325.4201,412.90749 330.20446,414.70163 C 334.7128,416.40376 385.86867,438.89946 397.18552,443.03977 C 399.80772,440.96961 401.37184,439.12947 401.37184,438.30141 C 401.37184,434.85115 403.07397,307.19151 403.07397,303.74125 C 403.07397,300.29099 404.8221,293.94251 401.37184,292.79242 C 397.92158,291.64233 335.21884,267.49051 328.31832,265.19033 C 327.44425,264.91431 326.66219,264.7303 325.88013,264.7763 z" />
      <path
         style="fill:#5f6f71;fill-opacity:0.26000001;fill-rule:evenodd;stroke:none;display:inline"
         id="p3394"
         d="M 402.65993,336.77174 C 376.99,381.62513 356.47245,370.03225 333.19469,363.68377 C 326.7082,361.88964 322.42987,360.78556 319.39364,359.63547 C 319.39364,377.89885 319.39364,399.7505 319.39364,402.18868 C 319.39364,409.31922 325.4201,412.90749 330.20446,414.70163 C 334.25277,416.21974 373.99977,433.65506 390.83704,440.41757 C 394.60933,436.41527 398.15159,431.44689 401.50985,425.65045 C 401.69386,409.36522 402.1999,369.48021 402.65993,336.77174 z" />
      <path
         style="fill:#010302;fill-opacity:1;fill-rule:evenodd;stroke:none;display:inline"
         id="p3273"
         d="M 340.78526,286.53595 C 352.05611,289.52617 377.58804,298.40484 385.27062,301.99311 C 392.9992,305.53538 390.60702,318.00232 390.60702,322.14264 C 390.60702,326.28295 392.9992,355.35715 392.9992,363.68377 C 392.9992,371.9644 391.80311,411.11336 390.05498,417.04781 C 388.26085,422.98225 382.3264,420.59007 376.39195,418.2439 C 370.4575,415.85171 342.5794,404.58086 337.84104,402.23469 C 333.10268,399.84251 330.7105,392.71197 330.7105,385.62743 C 330.7105,378.49689 331.90659,297.8068 332.50463,290.72226 C 333.10268,283.59172 335.44886,285.38586 340.78526,286.53595 z" />
      <path
         style="fill:#05141a;fill-opacity:1;fill-rule:evenodd;stroke:none;display:inline"
         id="p2465"
         d="M 343.68348,287.45602 C 338.30107,292.70041 334.57479,296.28868 331.35455,299.55493 C 324.82205,306.08742 316.54143,312.02187 315.94338,322.69468 C 316.54143,333.36748 324.27001,334.56357 330.20446,354.7591 C 332.73465,363.40775 335.49486,381.44112 336.09291,387.37556 C 336.69095,393.31001 338.43908,398.09437 341.98135,401.0386 C 345.52362,404.02882 365.1211,412.26344 378.78413,416.44976 C 384.48856,418.15189 387.75481,418.10589 390.00898,417.13981 C 390.00898,417.09381 389.96298,417.04781 390.00898,417.0018 C 391.75711,411.06735 392.9992,371.9644 392.9992,363.68377 C 392.9992,355.35715 390.56102,326.28295 390.56102,322.14264 C 390.56102,317.95632 392.9532,305.53538 385.27062,301.99311 C 378.04808,298.68086 355.8744,290.95228 343.68348,287.45602 z" />
      <path
         style="fill:#2f3738;fill-opacity:0.56000001;fill-rule:evenodd;stroke:none;display:inline"
         id="p3396"
         d="M 357.34651,276.13916 C 349.06589,299.55493 358.22058,321.95862 358.22058,321.95862 C 358.22058,321.95862 385.63865,357.15128 402.1999,366.12196 C 402.61393,335.85167 403.07397,305.30536 403.07397,303.74125 C 403.07397,300.29099 404.8221,293.94251 401.37184,292.79242 C 399.20967,292.10237 377.54204,283.77574 357.34651,276.13916 z" />
      <path
         style="fill:#434e54;fill-opacity:0.46000001;fill-rule:evenodd;stroke:none;display:inline"
         id="p3315"
         d="M 318.8416,313.35597 C 317.27748,316.07018 316.1734,319.10641 315.94338,322.69468 C 316.44942,331.29733 321.5098,333.87352 326.61619,345.14437 L 353.48222,357.05927 L 366.13318,349.00867 C 366.13318,349.00867 375.19586,411.25137 381.82036,409.36522 C 388.39886,407.47908 388.35285,376.79476 384.12053,367.82409 C 379.84221,358.85341 378.46211,342.8902 382.23439,338.65788 C 386.00668,334.42556 375.14986,329.13516 375.60989,329.5952 C 374.55181,330.42326 373.63174,331.61935 372.75768,332.90745 C 371.51558,329.41119 369.62944,327.019 366.68522,330.19324 C 360.10672,337.23178 337.88704,328.3071 335.08083,324.99485 C 332.87266,322.46466 328.96237,315.0581 318.8416,313.35597 z" />
      <path
         style="fill:#a9b9b9;fill-opacity:1;fill-rule:evenodd;stroke:none;display:inline"
         id="p3287"
         d="M 343.68348,287.45602 C 338.30107,292.70041 334.57479,296.28868 331.35455,299.55493 C 326.15616,304.70732 319.89968,309.58369 317.23148,316.66822 C 320.72775,316.3922 323.53396,317.31227 327.16823,318.50836 C 332.50463,320.3025 362.68291,331.57335 366.86923,332.76944 C 371.00954,333.96553 377.54204,341.18807 381.0843,347.72057 C 383.75251,352.59694 389.13491,361.75163 392.86119,369.57222 C 392.9072,367.50206 392.9992,364.78786 392.9992,363.68377 C 392.9992,355.35715 390.56102,326.28295 390.56102,322.14264 C 390.56102,317.95632 392.9532,305.53538 385.27062,301.99311 C 378.04808,298.68086 355.8744,290.95228 343.68348,287.45602 z" />
      <path
         style="fill:#585f65;fill-opacity:1;fill-rule:evenodd;stroke:none;display:inline"
         id="p3289"
         d="M 316.26541,324.44281 C 317.55351,333.50549 324.59204,335.80567 330.20446,354.7591 C 332.73465,363.40775 335.49486,381.44112 336.09291,387.37556 C 336.13891,387.8356 336.18491,388.24963 336.23092,388.66366 C 336.27692,388.80167 336.32292,388.84767 336.36893,388.98569 C 338.34708,394.18408 340.23322,398.73842 341.98135,399.88851 C 345.52362,402.28069 373.99977,412.35545 379.93422,414.14959 C 385.86867,415.89772 386.55872,406.97304 386.55872,392.11392 C 386.55872,377.3008 378.78413,361.84364 374.59781,355.31114 C 370.4575,348.82465 363.23496,340.95806 360.38274,339.94598 C 352.05611,337.00176 334.94282,330.51527 330.20446,328.72113 C 327.21424,327.61705 321.96984,325.22487 316.26541,324.44281 z" />
      <path
         style="fill:#dfe1e0;fill-opacity:1;fill-rule:evenodd;stroke:none;display:inline"
         id="p3309"
         d="M 335.9549,295.09259 C 334.52879,296.4727 332.55064,298.35884 331.35455,299.55493 C 326.15616,304.70732 319.89968,309.58369 317.23148,316.66822 C 320.72775,316.3922 323.53396,317.31227 327.16823,318.50836 C 332.50463,320.3025 362.68291,331.57335 366.86923,332.76944 C 367.7433,332.99946 368.80138,333.5515 369.85946,334.33356 C 375.05785,328.49112 382.74043,319.84246 384.12053,318.83039 C 386.00668,317.40428 384.53457,310.87178 376.06993,308.01957 C 369.76745,305.94941 349.38791,299.41692 335.9549,295.09259 z" />
      <path
         style="fill:none;fill-rule:evenodd;stroke:#add3ef;stroke-width:1.84013903;stroke-linecap:round;stroke-linejoin:miter;stroke-miterlimit:4;stroke-dasharray:none;stroke-opacity:0.27000002;display:inline"
         id="p3319"
         d="M 324.68404,323.98278 L 348.28383,332.95345" />
      <path
         style="fill:none;fill-rule:evenodd;stroke:#b4c5f0;stroke-width:2.30017376;stroke-linecap:round;stroke-linejoin:miter;stroke-miterlimit:4;stroke-dasharray:none;stroke-opacity:0.46000001;display:inline"
         id="p3328"
         d="M 353.1602,334.24155 L 359.32466,336.44972" />
      <path
         style="fill:#6e818b;fill-opacity:0.17000002;fill-rule:evenodd;stroke:none;display:inline"
         id="p3330"
         d="M 316.26541,324.44281 C 317.55351,333.50549 324.59204,335.80567 330.20446,354.7591 C 332.73465,363.40775 335.49486,381.44112 336.09291,387.37556 C 336.13891,387.8356 336.18491,388.24963 336.23092,388.66366 C 336.27692,388.80167 336.32292,388.84767 336.36893,388.98569 C 338.34708,394.18408 340.23322,398.73842 341.98135,399.88851 C 342.90142,400.48655 345.47761,401.68264 348.88187,403.06275 C 349.11189,393.31001 348.05381,379.09494 347.31775,372.74646 C 346.21367,363.68377 333.47071,346.66249 342.53339,344.54633 C 350.03196,342.7982 359.04864,358.39337 379.93422,365.3859 C 378.04808,361.19959 376.11593,357.65732 374.59781,355.31114 C 370.4575,348.82465 363.23496,340.95806 360.38274,339.94598 C 352.05611,337.00176 334.94282,330.51527 330.20446,328.72113 C 327.21424,327.61705 321.96984,325.22487 316.26541,324.44281 z M 386.23669,387.97361 C 371.10155,390.64181 364.66106,399.33647 361.80885,407.80111 C 369.39942,410.56132 377.22001,413.32152 379.93422,414.14959 C 385.86867,415.89772 386.55872,406.97304 386.55872,392.11392 C 386.55872,390.73382 386.3747,389.35371 386.23669,387.97361 z" />
      <path
         style="fill:#ced5d8;fill-opacity:1;fill-rule:evenodd;stroke:none;display:inline"
         id="p3338"
         d="M 355.36836,380.47504 C 355.04634,377.62283 361.67084,376.47274 362.26888,382.77522 C 362.82092,389.1237 362.82092,398.32439 362.82092,400.90059 C 362.82092,403.47678 357.07049,402.32669 355.9204,396.89828 C 354.77032,391.42387 355.64438,380.79707 355.36836,380.47504 z" />
      <path
         style="fill:#e6e8e7;fill-opacity:1;fill-rule:nonzero;stroke:none;marker:none;visibility:visible;display:inline;overflow:visible;enable-background:accumulate"
         id="p3341"
         d="M 336.96697,332.76944 C 331.67657,332.76944 331.58457,337.78382 336.78296,343.99429 C 341.98135,350.15875 350.63,355.17313 355.9204,355.17313 C 361.2108,355.17313 361.25681,350.15875 356.05841,343.99429 C 350.86002,337.78382 342.21137,332.76944 336.96697,332.76944 z M 342.25737,338.9339 C 344.64955,338.9339 348.42184,341.18807 350.76801,343.99429 C 353.06819,346.7545 352.97618,349.00867 350.584,349.00867 C 348.23782,349.00867 344.46554,346.7545 342.11936,343.99429 C 339.77318,341.18807 339.91119,338.9339 342.25737,338.9339 z" />
      <path
         style="fill:#919fa0;fill-opacity:0.56000001;fill-rule:evenodd;stroke:none;display:inline"
         id="p3367"
         d="M 332.18261,256.26566 C 329.3764,256.63369 324.63804,258.74985 322.01584,262.47613 C 327.53626,260.82 332.13661,264.08625 336.36893,265.78838 C 342.11936,268.04255 401.92388,289.9402 404.8221,291.09029 C 407.67431,292.24038 408.27236,296.24268 408.27236,301.44107 C 408.27236,306.59346 405.97218,434.2531 406.52423,437.15132 C 406.75424,438.25541 409.23843,438.80745 412.41267,438.71544 C 414.34482,437.38134 414.29881,434.52913 414.29881,431.21688 C 414.29881,427.67461 416.13895,299.60093 416.13895,293.66649 C 416.13895,287.73204 411.35459,285.9379 407.81232,284.18977 C 404.27006,282.39563 336.59894,256.86371 333.65472,256.26566 C 333.28669,256.21966 332.78066,256.21966 332.18261,256.26566 z" />
      <path
         style="fill:#424c4e;fill-opacity:0.6;fill-rule:evenodd;stroke:none;display:inline"
         id="p3379"
         d="M 332.18261,256.26566 C 329.3764,256.63369 324.63804,258.74985 322.01584,262.47613 C 327.53626,260.82 332.13661,264.08625 336.36893,265.78838 C 336.46093,265.78838 337.289,266.15641 337.381,266.20241 C 340.18722,264.36227 344.92557,263.12018 352.88417,263.16618 C 342.90142,259.4859 334.57479,256.44967 333.65472,256.26566 C 333.28669,256.21966 332.78066,256.21966 332.18261,256.26566 z M 414.71284,289.06614 L 406.66224,292.79242 C 407.90433,294.67856 408.27236,297.71479 408.27236,301.44107 C 408.27236,303.51123 407.81232,331.15932 407.39829,356.92126 C 409.97449,352.36692 412.7347,348.45662 415.4489,344.96036 C 415.77092,321.59059 416.13895,295.87465 416.13895,293.66649 C 416.13895,291.73434 415.54091,290.26223 414.71284,289.06614 z M 414.43682,423.16627 C 411.95264,425.60445 409.28443,425.69646 406.52423,424.17834 C 406.47822,429.33073 406.43222,436.69129 406.52423,437.15132 C 406.75424,438.25541 409.23843,438.80745 412.41267,438.71544 C 414.34482,437.38134 414.29881,434.52913 414.29881,431.21688 C 414.29881,431.03286 414.43682,424.17834 414.43682,423.16627 z" />
      <path
         style="fill:#aab49b;fill-opacity:0.13999999;fill-rule:evenodd;stroke:none;marker:none;visibility:visible;display:inline;overflow:visible;enable-background:accumulate"
         id="p3422"
         d="M 379.19816,255.98964 L 376.48396,256.26566 L 375.7479,257.87578 L 375.7479,259.57791 L 405.51215,271.67682 L 408.27236,269.23864 L 410.84855,268.77861 L 379.19816,255.98964 z M 373.44773,261.60206 L 368.01932,264.31627 L 399.34768,277.10523 L 403.21198,273.65497 L 373.44773,261.60206 z" />
      <path
         style="fill:none;fill-rule:evenodd;stroke:#b2b494;stroke-width:3.17423987;stroke-linecap:round;stroke-linejoin:miter;stroke-miterlimit:4;stroke-dasharray:none;stroke-opacity:0.38999999"
         id="p3451"
         d="M 392.26315,264.13225 L 405.69616,269.42265" />
      <path
         style="fill:none;fill-rule:evenodd;stroke:#b2b494;stroke-width:3.17423987;stroke-linecap:round;stroke-linejoin:miter;stroke-miterlimit:4;stroke-dasharray:none;stroke-opacity:0.38999999"
         id="p3453"
         d="M 388.16884,270.25072 L 399.39369,275.12708" />
      <path
         style="fill:#aab49b;fill-opacity:0.13999999;fill-rule:evenodd;stroke:none"
         id="p3455"
         d="M 396.03543,246.2369 L 388.9969,248.95111 L 406.38622,260.58999 L 429.93999,269.51466 L 444.33908,264.31627 L 444.06306,263.48821 L 396.03543,246.2369 z" />
      <path
         style="fill:none;fill-opacity:1;fill-rule:evenodd;stroke:#081418;stroke-width:2.30017376;stroke-linecap:butt;stroke-linejoin:miter;stroke-miterlimit:4;stroke-dasharray:none;stroke-opacity:1;display:inline"
         id="p3301"
         d="M 331.03252,357.19728 C 330.89451,368.60615 330.7565,383.51127 330.7565,385.67344 C 330.7565,392.75797 333.05668,399.84251 337.79503,402.18868 C 342.53339,404.58086 370.4115,415.94372 376.34595,418.2899 C 382.28039,420.68208 388.21484,422.93625 390.00898,417.0018 C 391.75711,411.06735 392.9992,371.9644 392.9992,363.68377 C 392.9992,355.35715 390.56102,326.28295 390.56102,322.14264 C 390.56102,317.95632 392.9532,305.53538 385.27062,301.99311 C 377.54204,298.45085 352.10212,289.57218 340.83126,286.62795 C 338.16306,286.02991 336.27692,285.15584 334.94282,285.47787 C 333.60872,285.75389 332.78066,287.08799 332.50463,290.63026 C 332.41263,291.41231 332.27462,295.73664 332.18261,298.12882" />
      <path
         style="fill:none;fill-rule:evenodd;stroke:#e7e7e7;stroke-width:4.60034752px;stroke-linecap:round;stroke-linejoin:miter;stroke-opacity:0.4"
         id="p3388"
         d="M 408.8244,293.8045 L 413.88478,291.64233" />
      <path
         style="fill:none;fill-rule:evenodd;stroke:#dcdcdc;stroke-width:3.17423987;stroke-linecap:round;stroke-linejoin:miter;stroke-miterlimit:4;stroke-dasharray:none;stroke-opacity:0.27999998"
         id="p3390"
         d="M 331.58457,266.84646 C 341.06128,270.11271 398.01358,292.10237 400.22175,292.65441" />
      <path
         style="fill:none;fill-rule:evenodd;stroke:#f4f4f4;stroke-width:3.17423987;stroke-linecap:round;stroke-linejoin:miter;stroke-miterlimit:4;stroke-dasharray:none;stroke-opacity:0.47000002;display:inline"
         id="p3392"
         d="M 371.19356,282.30363 C 380.67027,285.56987 396.40346,292.37839 398.56562,292.88443" />
      <path
         style="fill:none;fill-opacity:1;fill-rule:evenodd;stroke:#1c1c1c;stroke-width:2;stroke-linecap:butt;stroke-linejoin:miter;stroke-miterlimit:4;stroke-dasharray:none;stroke-opacity:1;display:inline"
         id="stroke01"
         d="M 396.03543,246.2369 L 382.3724,251.5273 L 381.82036,255.71362 L 375.7479,256.26566 L 375.7479,260.17596 L 360.93478,266.20241 C 347.22575,261.05002 334.85081,256.49568 333.65472,256.26566 C 330.6645,255.66761 319.39364,259.89993 319.99169,268.77861 C 319.76167,275.03508 319.62366,292.5624 319.53165,312.06788 C 317.5075,315.1041 316.1734,318.50836 315.94338,322.69468 C 316.1734,326.927 317.4615,329.73321 319.39364,332.76944 C 319.30164,365.3859 319.39364,398.37039 319.39364,402.18868 C 319.39364,409.31922 325.4201,412.90749 330.20446,414.70163 C 334.94282,416.49576 391.20507,441.38364 398.88765,443.72982 C 406.61623,446.122 409.60646,440.18755 411.99864,438.99146 C 414.34482,437.79537 414.29881,434.80515 414.29881,431.21688 C 414.29881,431.03286 414.43682,423.99433 414.43682,422.89025 L 461.17635,400.48655 L 463.01649,323.43073 L 480.12979,316.20819 L 479.57774,307.88156 L 463.61454,301.57908 L 464.16658,275.81714 L 459.56623,273.977 L 484.3161,265.78838 L 483.71806,258.1518 L 464.76463,251.5273 L 454.68986,251.5273 L 434.40233,260.03794 L 396.03543,246.2369 z" />
      <path
         style="fill:none;fill-opacity:1;fill-rule:evenodd;stroke:#232323;stroke-width:2.30017376;stroke-linecap:butt;stroke-linejoin:miter;stroke-miterlimit:4;stroke-dasharray:none;stroke-opacity:1;display:inline"
         id="stroke02"
         d="M 343.68348,287.45602 C 338.30107,292.70041 334.57479,296.28868 331.35455,299.55493 C 324.82205,306.08742 316.54143,312.02187 315.94338,322.69468 C 316.54143,333.36748 324.27001,334.56357 330.20446,354.7591 C 332.73465,363.40775 335.49486,381.44112 336.09291,387.37556 C 336.69095,393.31001 338.43908,398.09437 341.98135,401.0386 C 345.52362,404.02882 365.1211,412.26344 378.78413,416.44976 C 384.48856,418.15189 387.75481,418.10589 390.00898,417.13981 C 390.00898,417.09381 389.96298,417.04781 390.00898,417.0018" />
    </g>
  </g>
</svg>
