<?xml version="1.0" encoding="UTF-8" standalone="no"?>
<!-- Created with Inkscape (http://www.inkscape.org/) -->

<svg
   xmlns:dc="http://purl.org/dc/elements/1.1/"
   xmlns:cc="http://creativecommons.org/ns#"
   xmlns:rdf="http://www.w3.org/1999/02/22-rdf-syntax-ns#"
   xmlns:svg="http://www.w3.org/2000/svg"
   xmlns="http://www.w3.org/2000/svg"
   xmlns:sodipodi="http://sodipodi.sourceforge.net/DTD/sodipodi-0.dtd"
   xmlns:inkscape="http://www.inkscape.org/namespaces/inkscape"
   version="1.0"
   width="100%"
   height="100%"
   viewBox="0 0 640 480"
   id="svg2"
   sodipodi:docname="where.svg"
   inkscape:version="0.91 r13725">
  <metadata
     id="metadata129">
    <rdf:RDF>
      <cc:Work
         rdf:about="">
        <dc:format>image/svg+xml</dc:format>
        <dc:type
           rdf:resource="http://purl.org/dc/dcmitype/StillImage" />
      </cc:Work>
    </rdf:RDF>
  </metadata>
  <sodipodi:namedview
     pagecolor="#ffffff"
     bordercolor="#666666"
     borderopacity="1"
     objecttolerance="10"
     gridtolerance="10"
     guidetolerance="10"
     inkscape:pageopacity="0"
     inkscape:pageshadow="2"
     inkscape:window-width="1281"
     inkscape:window-height="617"
     id="namedview127"
     showgrid="false"
     inkscape:zoom="0.50000001"
     inkscape:cx="143.36008"
     inkscape:cy="181.82307"
     inkscape:window-x="0"
     inkscape:window-y="25"
     inkscape:window-maximized="0"
     inkscape:current-layer="svg2" />
  <defs
     id="defs4" />
  <g
     style="opacity:0.8"
     id="splashbg">
    <rect
       x="0"
       y="0"
       width="640"
       height="480"
       style="fill:black;fill-opacity:0.95;"
       id="rect3" />
    <path
       d="M 0 0 L 0 10 L 640 10 L 640 0 L 0 0 z M 0 20 L 0 30 L 640 30 L 640 20 L 0 20 z M 0 40 L 0 50 L 640 50 L 640 40 L 0 40 z M 0 60 L 0 70 L 640 70 L 640 60 L 0 60 z M 0 80 L 0 90 L 640 90 L 640 80 L 0 80 z M 0 100 L 0 110 L 640 110 L 640 100 L 0 100 z M 0 120 L 0 130 L 640 130 L 640 120 L 0 120 z M 0 140 L 0 150 L 640 150 L 640 140 L 0 140 z M 0 160 L 0 170 L 640 170 L 640 160 L 0 160 z M 0 180 L 0 190 L 640 190 L 640 180 L 0 180 z M 0 200 L 0 210 L 640 210 L 640 200 L 0 200 z M 0 220 L 0 230 L 640 230 L 640 220 L 0 220 z M 0 240 L 0 250 L 640 250 L 640 240 L 0 240 z M 0 260 L 0 270 L 640 270 L 640 260 L 0 260 z M 0 280 L 0 290 L 640 290 L 640 280 L 0 280 z M 0 300 L 0 310 L 640 310 L 640 300 L 0 300 z M 0 320 L 0 330 L 640 330 L 640 320 L 0 320 z M 0 340 L 0 350 L 640 350 L 640 340 L 0 340 z M 0 360 L 0 370 L 640 370 L 640 360 L 0 360 z M 0 380 L 0 390 L 640 390 L 640 380 L 0 380 z M 0 400 L 0 410 L 640 410 L 640 400 L 0 400 z M 0 420 L 0 430 L 640 430 L 640 420 L 0 420 z M 0 440 L 0 450 L 640 450 L 640 440 L 0 440 z M 0 460 L 0 470 L 640 470 L 640 460 L 0 460 z "
       style="fill:black;"
       id="path5" />
  </g>
  <circle
     style="color:#000000;clip-rule:nonzero;display:inline;overflow:visible;visibility:visible;opacity:1;isolation:auto;mix-blend-mode:normal;color-interpolation:sRGB;color-interpolation-filters:linearRGB;solid-color:#000000;solid-opacity:1;fill:#ffffff;fill-opacity:1;fill-rule:nonzero;stroke:none;stroke-width:21.64999962;stroke-linecap:butt;stroke-linejoin:miter;stroke-miterlimit:4;stroke-dasharray:none;stroke-dashoffset:0;stroke-opacity:1;marker:none;marker-start:none;marker-mid:none;marker-end:none;color-rendering:auto;image-rendering:auto;shape-rendering:auto;text-rendering:auto;enable-background:accumulate"
     id="path4223"
     cx="340"
     cy="172.00002"
     r="82" />
  <path
     inkscape:connector-curvature="0"
     style="display:inline;overflow:visible;visibility:visible;fill:#000000;fill-opacity:0.54189944;fill-rule:evenodd;stroke:none;stroke-width:19.89804459;stroke-linecap:round;stroke-linejoin:round;stroke-miterlimit:4;stroke-dasharray:none;stroke-dashoffset:0;stroke-opacity:0.98000004;marker:none;enable-background:accumulate"
     id="path6232"
     d="M 101.11414,26.618523 C 88.872375,28.826054 58.167629,78.796537 29.570064,143.31666 c -30.50407028,68.7345 -48.16432,131.14743 -37.9294031,135.76317 17.0581968,8.12773 5.3181441,2.60891 21.6739441,10.03424 4.214378,1.9065 12.442449,-6.6226 22.878053,-21.67395 4.415063,4.0137 10.435602,5.51884 12.241764,4.41506 1.906504,-1.30445 4.013693,-4.41506 4.013693,-4.41506 l 4.415063,3.41164 c -1.404792,6.82328 -2.207532,13.64656 -2.207532,20.77087 -1.204107,9.13115 -1.003423,18.06162 -0.90308,27.29312 0,65.62388 59.904374,119.10634 133.856664,119.10634 46.65918,0 87.89989,-21.37291 111.98205,-53.5828 1.00342,0.60204 2.50855,1.10376 3.71267,1.80616 -0.50172,7.02397 1.30445,14.34895 5.61916,20.77086 9.2315,13.24519 26.2897,17.35922 38.02975,8.42875 11.63971,-8.93046 13.14484,-27.19276 4.01369,-40.43796 -7.52567,-10.83696 -20.26915,-15.25203 -31.00578,-11.63971 -2.50856,-1.10376 -4.7161,-2.30786 -6.62259,-3.11061 5.41848,-12.84381 8.5291,-26.89174 8.5291,-41.34103 0.40136,-9.53253 0.70239,-18.16197 0.60205,-27.29312 0,-32.0092 -14.24861,-60.80745 -37.32735,-82.18038 0.50171,-1.10376 0.90308,-2.00684 0.90308,-2.80958 0,-5.41849 -7.92705,-10.53595 -12.54279,-9.7332 -1.00342,0.20068 -2.00685,0.40137 -2.80958,0.90307 -22.67738,-15.65339 -51.1746,-25.08558 -82.18038,-25.08558 -47.96363,0 -89.806375,22.47669 -113.48717,56.19171 l -2.207531,-1.30445 c 0,0 7.826698,-11.84039 7.826698,-14.75033 0,-2.20752 -3.712662,-7.02395 -8.428753,-8.42875 4.916775,-10.03424 9.833544,-20.67052 14.750328,-31.70818 C 117.46995,103.98247 135.13019,41.77022 124.89527,37.25481 117.77096,33.642486 108.94085,29.628793 101.11414,26.618523 Z M 340.02924,375.0071 c 1.70582,1.30446 3.3113,2.70925 4.71609,4.7161 6.82327,9.83355 5.41848,22.7777 -2.50857,28.79825 -8.02738,6.12088 -20.16881,3.61231 -26.99209,-6.22123 -2.60889,-3.71267 -4.11402,-7.92704 -4.41505,-11.94074 6.82328,3.41164 13.64655,6.32157 15.05135,6.32157 2.90992,0 9.53252,-4.71609 11.6397,-7.52568 1.80617,-2.50856 3.21096,-10.73663 2.50857,-14.14827 z" />
  <g
     id="g6100"
     transform="translate(201,-83)">
    <ellipse
       ry="51.093456"
       rx="54.244572"
       cy="407.35355"
       cx="278.06061"
       id="path6054"
       style="opacity:1;vector-effect:none;fill:none;fill-opacity:0.51530612;stroke:#fafafa;stroke-width:2.5;stroke-linecap:round;stroke-linejoin:round;stroke-miterlimit:4;stroke-dasharray:none;stroke-dashoffset:0;stroke-opacity:1;marker:none;marker-start:none;marker-mid:none;marker-end:none" />
    <ellipse
       style="opacity:1;vector-effect:none;fill:none;fill-opacity:0.51530612;stroke:#fafafa;stroke-width:2.5;stroke-linecap:round;stroke-linejoin:round;stroke-miterlimit:4;stroke-dasharray:none;stroke-dashoffset:0;stroke-opacity:1;marker:none;marker-start:none;marker-mid:none;marker-end:none"
       id="ellipse6056"
       cx="278.06061"
       cy="407.35355"
       rx="87.99559"
       ry="82.88385" />
    <ellipse
       ry="112.46422"
       rx="119.40028"
       cy="407.35355"
       cx="278.06061"
       id="ellipse6060"
       style="opacity:1;vector-effect:none;fill:none;fill-opacity:0.51530612;stroke:#fafafa;stroke-width:2.5;stroke-linecap:round;stroke-linejoin:round;stroke-miterlimit:4;stroke-dasharray:none;stroke-dashoffset:0;stroke-opacity:1;marker:none;marker-start:none;marker-mid:none;marker-end:none" />
    <ellipse
       style="opacity:1;vector-effect:none;fill:none;fill-opacity:0.51530612;stroke:#fafafa;stroke-width:2.5;stroke-linecap:round;stroke-linejoin:round;stroke-miterlimit:4;stroke-dasharray:none;stroke-dashoffset:0;stroke-opacity:1;marker:none;marker-start:none;marker-mid:none;marker-end:none"
       id="ellipse6062"
       cx="278.06061"
       cy="407.35355"
       rx="152.47696"
       ry="143.61943" />
    <ellipse
       ry="172.4529"
       rx="183.08868"
       cy="407.35355"
       cx="278.06061"
       id="ellipse6064"
       style="opacity:1;vector-effect:none;fill:none;fill-opacity:0.51530612;stroke:#fafafa;stroke-width:2.5;stroke-linecap:round;stroke-linejoin:round;stroke-miterlimit:4;stroke-dasharray:none;stroke-dashoffset:0;stroke-opacity:1;marker:none;marker-start:none;marker-mid:none;marker-end:none" />
  </g>
  <path
     d="M 118.19642,51.710406 C 107.50197,53.638913 80.678197,97.293297 55.695266,153.6583 29.046806,213.70499 13.618751,268.22914 22.56001,272.26147 c 14.902099,7.10041 4.645949,2.27915 18.934432,8.76594 3.681695,1.66553 10.869766,-5.78552 19.986345,-18.93443 3.857014,3.50638 9.116578,4.82127 10.694447,3.85701 1.665529,-1.13957 3.506376,-3.85701 3.506376,-3.85701 l 3.857014,2.98042 c -1.227231,5.96084 -1.928507,11.92168 -1.928507,18.1455 -1.051912,7.977 -0.876594,15.77869 -0.788934,23.84336 0,57.32925 52.332667,104.05171 116.937647,104.05171 40.76162,0 76.78964,-18.67145 97.8279,-46.81012 0.87659,0.52595 2.19148,0.96425 3.2434,1.57787 -0.4383,6.13616 1.13957,12.53529 4.90892,18.14549 8.06467,11.57105 22.96677,15.16508 33.22292,7.36339 10.16849,-7.80168 11.48338,-23.75569 3.50637,-35.32674 -6.57445,-9.46721 -17.7072,-13.32423 -27.08675,-10.16849 -2.19149,-0.96425 -4.12,-2.01616 -5.78552,-2.71744 4.7336,-11.2204 7.45105,-23.49272 7.45105,-36.11567 0.35063,-8.32765 0.61361,-15.86636 0.52595,-23.84336 0,-27.96335 -12.44763,-53.1216 -32.6093,-71.79306 0.4383,-0.96425 0.78894,-1.75318 0.78894,-2.45446 0,-4.73361 -6.9251,-9.20424 -10.95743,-8.50296 -0.87659,0.17532 -1.75319,0.35064 -2.45446,0.78893 -19.81103,-13.67486 -44.7063,-21.91485 -71.79306,-21.91485 -41.90119,0 -78.45516,19.63571 -99.142783,49.08927 L 93.47647,227.2922 c 0,0 6.83743,-10.34381 6.83743,-12.88594 0,-1.9285 -3.243394,-6.13615 -7.363387,-7.36339 4.295311,-8.76594 8.590617,-18.05783 12.885937,-27.70037 26.64846,-60.04669 42.07651,-114.395524 33.13525,-118.340197 -6.22382,-3.155739 -13.93784,-6.662115 -20.77528,-9.291897 z M 326.91347,356.06386 c 1.49021,1.13958 2.89276,2.36681 4.11999,4.12 5.96084,8.59062 4.73361,19.89868 -2.19149,25.15825 -7.01275,5.34722 -17.61954,3.15573 -23.58038,-5.43489 -2.27914,-3.2434 -3.59403,-6.92509 -3.85701,-10.43147 5.96084,2.98042 11.92168,5.52255 13.14891,5.52255 2.54212,0 8.32765,-4.12 10.16849,-6.57446 1.57787,-2.19149 2.8051,-9.37956 2.19149,-12.35998 z"
     id="path6230"
     style="display:inline;overflow:visible;visibility:visible;fill:none;fill-opacity:1;fill-rule:evenodd;stroke:#fefefe;stroke-width:17.38299942;stroke-linecap:round;stroke-linejoin:round;stroke-miterlimit:4;stroke-dasharray:none;stroke-dashoffset:0;stroke-opacity:0.98000004;marker:none;enable-background:accumulate"
     inkscape:connector-curvature="0" />
  <path
     inkscape:connector-curvature="0"
     style="display:inline;overflow:visible;visibility:visible;fill:#a88d60;fill-opacity:1;fill-rule:evenodd;stroke:none;stroke-width:8.76594067;marker:none;enable-background:accumulate"
     id="p2463"
     d="M 118.19642,51.710406 C 107.50197,53.638913 80.678197,97.293297 55.695266,153.6583 29.046806,213.70499 13.618751,268.22914 22.56001,272.26147 c 14.902099,7.10041 4.645949,2.27915 18.934432,8.76594 3.681695,1.66553 10.869766,-5.78552 19.986345,-18.93443 3.857014,3.50638 9.116578,4.82127 10.694447,3.85701 1.665529,-1.13957 3.506376,-3.85701 3.506376,-3.85701 l 3.857014,2.98042 c -1.227231,5.96084 -1.928507,11.92168 -1.928507,18.1455 -1.051912,7.977 -0.876594,15.77869 -0.788934,23.84336 0,57.32925 52.332667,104.05171 116.937647,104.05171 40.76162,0 76.78964,-18.67145 97.8279,-46.81012 0.87659,0.52595 2.19148,0.96425 3.2434,1.57787 -0.4383,6.13616 1.13957,12.53529 4.90892,18.14549 8.06467,11.57105 22.96677,15.16508 33.22292,7.36339 10.16849,-7.80168 11.48338,-23.75569 3.50637,-35.32674 -6.57445,-9.46721 -17.7072,-13.32423 -27.08675,-10.16849 -2.19149,-0.96425 -4.12,-2.01616 -5.78552,-2.71744 16.04167,-46.10885 9.20423,-95.46109 -24.6323,-131.75209 0.4383,-0.96425 0.78894,-1.75318 0.78894,-2.45446 0,-4.73361 -6.9251,-9.20424 -10.95743,-8.50296 -0.87659,0.17532 -1.75319,0.35064 -2.45446,0.78893 -19.81103,-13.67486 -44.7063,-21.91485 -71.79306,-21.91485 -41.90119,0 -78.45516,19.63571 -99.142783,49.08927 L 93.47647,227.2922 c 0,0 6.83743,-10.34381 6.83743,-12.88594 0,-1.9285 -3.243394,-6.13615 -7.363387,-7.36339 4.295311,-8.76594 8.590617,-18.05783 12.885937,-27.70037 26.64846,-60.04669 42.07651,-114.395524 33.13525,-118.340197 -6.22382,-3.155739 -13.93784,-6.662115 -20.77528,-9.291897 z M 326.91347,356.06386 c 1.49021,1.13958 2.89276,2.36681 4.11999,4.12 5.96084,8.59062 4.73361,19.89868 -2.19149,25.15825 -7.01275,5.34722 -17.61954,3.15573 -23.58038,-5.43489 -2.27914,-3.2434 -3.59403,-6.92509 -3.85701,-10.43147 5.96084,2.98042 11.92168,5.52255 13.14891,5.52255 2.54212,0 8.32765,-4.12 10.16849,-6.57446 1.57787,-2.19149 2.8051,-9.37956 2.19149,-12.35998 z" />
  <path
     inkscape:connector-curvature="0"
     style="display:inline;fill:#221d0b;fill-opacity:0.51000001;fill-rule:evenodd;stroke:none;stroke-width:8.76594067"
     id="p3426"
     d="m 138.44575,60.739325 c -3.50638,1.40255 -8.15233,6.223818 -14.02551,14.025505 -0.0877,-0.08766 -0.0877,-0.262978 -0.26298,-0.350638 l -31.995681,75.650068 21.301231,11.2204 c 21.8272,-52.50798 33.4859,-96.688321 25.50889,-100.282357 -0.17532,-0.08766 -0.35064,-0.175319 -0.52595,-0.262978 z" />
  <path
     inkscape:connector-curvature="0"
     style="display:inline;fill:#221d0b;fill-opacity:0.51000001;fill-rule:evenodd;stroke:none;stroke-width:8.76594067"
     id="p3428"
     d="m 125.03386,74.151214 c -0.17532,0.262978 -0.4383,0.350638 -0.61362,0.613616 -0.0877,-0.08766 -0.0877,-0.262978 -0.26298,-0.350638 -4.03233,-0.525956 -10.69445,5.785521 -14.4638,13.762527 -0.70128,1.314891 -1.22723,2.542123 -1.66553,3.769354 -0.4383,1.314891 -0.61361,2.454464 -0.78893,3.594036 -0.4383,2.191485 -0.26298,4.119992 0.26297,5.522541 -0.87659,1.31489 -1.66552,2.89276 -2.45446,4.38297 l -3.33106,15.60338 22.44081,13.93784 c 7.27573,-19.54805 12.27232,-36.904608 15.07742,-49.8782 z" />
  <path
     inkscape:connector-curvature="0"
     style="display:inline;fill:#221d0b;fill-opacity:0.51000001;fill-rule:evenodd;stroke:none;stroke-width:8.76594067"
     id="p3424"
     d="m 42.020399,259.37554 c -2.191486,10.34381 -2.717442,17.97018 -1.139573,21.38889 0.438297,0.0877 0.175319,0 0.613616,0.26298 2.98042,1.31489 8.327644,-3.59403 14.989759,-12.35997 -3.243398,-2.80511 -8.765941,-5.96084 -14.463802,-9.2919 z" />
  <path
     inkscape:connector-curvature="0"
     style="display:inline;overflow:visible;visibility:visible;fill:#635944;fill-opacity:0.95;fill-rule:evenodd;stroke:none;stroke-width:8.76594067;marker:none;enable-background:accumulate"
     id="p3294"
     d="m 126.34875,72.222707 c -0.70128,0.964253 -1.13958,1.49021 -1.92851,2.542123 -0.0877,-0.08766 -0.0877,-0.262978 -0.26298,-0.350638 -4.03233,-0.525956 -10.69445,5.785521 -14.4638,13.762527 -2.62978,5.347224 -3.2434,10.080832 -2.19149,12.885931 -10.080827,17.35656 -21.125912,39.0961 -31.82036,63.20243 C 56.57186,207.39351 43.598268,246.31429 40.617848,267.00191 54.205056,250.25896 73.665444,215.72115 92.161579,174.1706 111.09601,131.48047 123.45599,93.173305 126.34875,72.222707 Z" />
  <path
     inkscape:connector-curvature="0"
     style="display:inline;fill:#44697a;fill-opacity:0.37000002;fill-rule:evenodd;stroke:none;stroke-width:8.76594067"
     id="p3384"
     d="m 122.57939,74.414192 c -4.11999,0.964254 -9.55487,6.749774 -12.88593,13.762527 -2.62978,5.347224 -3.2434,10.080832 -2.19149,12.885931 -10.080827,17.35656 -21.125912,39.0961 -31.82036,63.20243 -4.207651,9.46722 -7.889346,18.49614 -11.483382,27.4374 14.025505,-18.23316 36.115672,-68.462 40.235672,-68.462 1.84084,0 4.82126,-0.26298 8.23998,-1.40255 5.87318,-17.00592 10.43147,-32.083342 12.62295,-43.303746 -0.35063,-1.577869 -0.70127,-2.629782 -1.13957,-4.119992 0,0 -0.26298,0.08766 -0.26298,0 -0.43829,0 -0.87659,-0.08766 -1.31489,0 z" />
  <path
     inkscape:connector-curvature="0"
     style="display:inline;fill:#d7aa24;fill-opacity:0.51000001;fill-rule:evenodd;stroke:none;stroke-width:8.76594067"
     id="p3382"
     d="m 59.815258,226.76624 c -0.175319,0.17532 -0.701275,1.05191 -1.928507,3.2434 -2.805101,4.99658 -5.785521,7.80168 -10.957426,10.16849 -2.103825,6.92509 -3.506376,12.88593 -4.645948,18.32081 l 2.717441,0.35064 14.81444,8.76594 10.957426,-20.86294 c 0,0 -9.817854,-4.90892 -11.746361,-9.81785 -1.49021,-3.76935 1.314891,-10.60679 0.788935,-10.16849 z" />
  <path
     inkscape:connector-curvature="0"
     style="display:inline;overflow:visible;visibility:visible;fill:none;fill-opacity:0.76000001;fill-rule:evenodd;stroke:#31270e;stroke-width:2.6297822;stroke-linecap:round;stroke-linejoin:miter;stroke-miterlimit:4;stroke-dasharray:none;stroke-dashoffset:0;stroke-opacity:1;marker:none;enable-background:accumulate"
     id="p3322"
     d="M 40.617848,267.00191 C 54.205056,250.25896 73.665444,215.72115 92.161579,174.1706 111.09601,131.48047 123.45599,93.173305 126.34875,72.222707 c -0.70128,0.964253 -1.13958,1.49021 -1.92851,2.542123 -0.0877,-0.08766 -0.0877,-0.262978 -0.26298,-0.350638" />
  <path
     inkscape:connector-curvature="0"
     style="display:inline;fill:#738d8d;fill-opacity:0.76999996;fill-rule:evenodd;stroke:none;stroke-width:8.76594067"
     id="p3324"
     d="m 42.546355,185.391 c -18.145497,46.28417 -27.262075,83.62707 -19.986345,86.87047 14.463802,6.83744 5.873181,2.8051 18.320816,8.50296 -4.119992,-8.50296 4.996586,-42.77779 21.914852,-85.46792 -0.964254,-0.52595 -13.411889,-6.48679 -20.249323,-9.90551 z" />
  <path
     inkscape:connector-curvature="0"
     style="display:inline;fill:#1e1809;fill-opacity:0.43000004;fill-rule:evenodd;stroke:none;stroke-width:8.76594067"
     id="p3326"
     d="m 49.909745,167.33316 c -8.502962,20.33698 -15.691034,39.53439 -20.775279,55.83904 l 19.723366,10.43147 c 5.434883,-17.2689 13.236571,-37.69354 22.703786,-59.69605 z" />
  <path
     inkscape:connector-curvature="0"
     style="display:inline;fill:#faf7b1;fill-opacity:0.62999998;fill-rule:evenodd;stroke:none;stroke-width:8.76594067"
     id="p3328"
     d="M 83.658616,97.468616 C 76.733523,109.82859 69.282474,124.29239 62.006743,139.89577 l 21.914852,6.0485 c 6.749774,-14.20083 13.587208,-27.17442 19.986345,-38.6578 z" />
  <path
     inkscape:connector-curvature="0"
     style="display:inline;fill:#faf7b1;fill-opacity:0.62999998;fill-rule:evenodd;stroke:none;stroke-width:8.76594067"
     id="p3330"
     d="m 109.95644,58.021883 c -3.50638,3.769355 -7.53871,9.116578 -12.097,15.866353 l 18.40848,4.645948 c 2.8051,-2.805101 5.78552,-4.38297 7.88934,-4.119992 0.17532,0.08766 0.17532,0.262978 0.26298,0.350638 2.3668,-3.155739 4.38297,-5.347224 6.31148,-7.45105 z" />
  <path
     inkscape:connector-curvature="0"
     style="display:inline;fill:#bcb9a5;fill-opacity:0.76999996;fill-rule:evenodd;stroke:none;stroke-width:8.76594067"
     id="p3332"
     d="m 118.19642,51.710406 c -2.8051,0.525956 -6.66211,3.944673 -11.30806,9.554875 l 22.52847,7.714028 c 3.50637,-4.119992 6.57445,-7.275731 9.02892,-8.239984 -6.13616,-3.068079 -13.58721,-6.486796 -20.24933,-9.028919 z" />
  <path
     inkscape:connector-curvature="0"
     style="display:inline;fill:#fffbe7;fill-opacity:0.68000034;fill-rule:evenodd;stroke:none;stroke-width:8.76594067"
     id="p3360"
     d="m 81.204153,101.85159 c -7.451049,13.49954 -15.077418,29.10292 -22.791446,46.02118 l 12.885933,1.92851 c 0,0 -0.525956,-13.23657 3.331058,-14.55146 2.016166,-0.70128 8.415303,-0.26298 14.200823,0.52596 4.295311,-8.67829 8.765941,-16.83061 12.885929,-24.36932 z" />
  <path
     inkscape:connector-curvature="0"
     style="fill:none;fill-rule:evenodd;stroke:#edda90;stroke-width:4.38297033;stroke-linecap:butt;stroke-linejoin:miter;stroke-miterlimit:4;stroke-dasharray:none;stroke-opacity:0.76000001"
     id="p3380"
     d="m 105.31049,102.55286 c -2.8051,-12.622953 6.57446,-23.580379 10.95743,-26.911436" />
  <path
     inkscape:connector-curvature="0"
     style="display:inline;fill:#482312;fill-opacity:0.68000034;fill-rule:evenodd;stroke:none;stroke-width:8.76594067"
     id="p3364"
     d="m 37.900406,196.87438 c -1.40255,3.76936 -2.542122,7.36339 -3.857013,10.95743 l 19.986344,10.69445 c 1.402551,-4.03234 2.805101,-8.06467 4.38297,-12.27232 z" />
  <path
     inkscape:connector-curvature="0"
     style="display:inline;fill:#482312;fill-opacity:0.37000002;fill-rule:evenodd;stroke:none;stroke-width:8.76594067"
     id="p3362"
     d="m 52.714846,160.75871 c -13.411889,30.94377 -23.58038,59.60839 -28.752285,80.20835 7.012752,3.6817 13.061251,6.4868 19.986344,9.64254 5.610202,-21.91485 16.830606,-52.6833 31.732705,-86.34452 0.08766,-0.0877 0.262979,-0.0877 0.262979,-0.26297 z" />
  <path
     inkscape:connector-curvature="0"
     style="display:inline;overflow:visible;visibility:visible;fill:none;fill-opacity:0.76000001;fill-rule:evenodd;stroke:#2b1400;stroke-width:3.50637627;stroke-linecap:round;stroke-linejoin:miter;stroke-miterlimit:4;stroke-dasharray:none;stroke-dashoffset:0;stroke-opacity:1;marker:none;enable-background:accumulate"
     id="p3314"
     d="M 118.19642,51.710406 C 107.50197,53.638913 80.678197,97.293297 55.695266,153.6583 29.046806,213.70499 13.618751,268.22914 22.56001,272.26147 c 14.463802,6.83744 5.873181,2.8051 18.320816,8.50296 -5.084245,-10.51912 9.730194,-59.87137 34.800784,-116.49935 10.694448,-24.10633 21.739533,-45.84587 31.82036,-63.20243 -1.05191,-2.805099 -0.43829,-7.538707 2.19149,-12.885931 3.76935,-7.977006 10.43147,-14.288483 14.4638,-13.762527 0.17532,0.08766 0.17532,0.262978 0.26298,0.350638 5.87318,-7.801687 10.51913,-12.622955 14.02551,-14.025505 -6.13616,-3.068079 -13.58721,-6.486796 -20.24933,-9.028919 z" />
  <path
     inkscape:connector-curvature="0"
     style="display:inline;overflow:visible;visibility:visible;fill:#61726f;fill-opacity:0.81999966;fill-rule:evenodd;stroke:none;stroke-width:8.76594067;marker:none;enable-background:accumulate"
     id="p3189"
     d="m 77.347139,288.3908 c -0.438297,6.22382 -0.613616,12.35998 -0.525956,18.67146 0,57.32925 52.332667,104.05171 116.937647,104.05171 40.76162,0 84.24069,-23.93102 97.8279,-46.81012 19.02209,-32.34632 17.7072,-36.81695 19.46039,-57.24159 -12.44764,45.58289 -58.55649,79.41942 -113.69425,79.41942 -62.50116,0 -113.606594,-43.39141 -117.025311,-98.09088 z" />
  <path
     inkscape:connector-curvature="0"
     style="display:inline;fill:#a58144;fill-opacity:1;fill-rule:evenodd;stroke:none;stroke-width:8.76594067"
     id="p3271"
     d="m 287.64205,361.23577 c 0.35064,0.61361 4.90893,3.33106 6.83744,4.55829 1.05191,-5.6102 6.83743,-4.55829 7.27573,3.59403 4.38297,2.54213 8.15232,3.85702 12.79827,5.61021 2.54212,0 8.32765,-3.94468 10.08083,-6.4868 1.84085,-2.54212 3.33106,-12.35998 1.84085,-13.76253 -1.40255,-1.49021 -25.42123,-13.06125 -27.17441,-13.06125 -1.84085,0 -5.43489,6.4868 -6.9251,8.67828 -1.40255,2.19149 -3.94467,9.02892 -4.73361,10.86977 z" />
  <path
     inkscape:connector-curvature="0"
     style="display:inline;fill:#5c573e;fill-opacity:0.76000001;fill-rule:evenodd;stroke:none;stroke-width:8.76594067"
     id="p3240"
     d="m 317.79689,362.63832 c -1.40255,4.20765 -2.45446,9.55487 -2.98042,12.97359 2.54212,-1.22723 7.27573,-3.76935 9.46722,-6.66211 1.75318,-2.36681 2.3668,-5.34723 2.71744,-8.15233 0.61361,-5.78552 -0.96426,-6.57445 -2.54213,-7.36339 -3.76935,2.98042 -5.1719,5.08425 -6.66211,9.20424 z" />
  <path
     inkscape:connector-curvature="0"
     style="display:inline;fill:#f1d961;fill-opacity:0.56999966;fill-rule:evenodd;stroke:none;stroke-width:8.76594067"
     id="p3244"
     d="m 293.42757,351.33026 c 0,0 17.00593,9.73019 20.59997,10.86976 3.59403,1.13957 6.13615,-4.20765 2.19148,-5.87318 -3.85701,-1.66553 -19.72337,-9.99317 -19.72337,-9.99317 z" />
  <path
     inkscape:connector-curvature="0"
     style="display:inline;overflow:visible;visibility:visible;fill:#ebec87;fill-opacity:0.87000002;fill-rule:evenodd;stroke:none;stroke-width:8.76594067;marker:none;enable-background:accumulate"
     id="p3274"
     d="m 302.19352,377.18978 c 2.3668,4.73361 2.89276,9.37956 1.13957,10.34381 -1.84085,0.87659 -5.25957,-2.27914 -7.71403,-7.10041 -2.45446,-4.73361 -2.98042,-9.37956 -1.13957,-10.34381 1.84085,-0.8766 5.25956,2.27914 7.71403,7.10041 z" />
  <path
     inkscape:connector-curvature="0"
     style="fill:#312918;fill-opacity:0.87000002;fill-rule:evenodd;stroke:none;stroke-width:8.76594067"
     id="p3276"
     d="m 311.22243,346.07069 16.39231,10.51913 c 0,0 7.71403,7.97701 7.36339,14.63912 -0.43829,6.74978 6.9251,-8.50296 0.96426,-15.42805 -5.87318,-6.9251 -12.9736,-12.00934 -24.71996,-9.7302 z" />
  <path
     inkscape:connector-curvature="0"
     style="fill:#e6e3b7;fill-opacity:0.43000004;fill-rule:evenodd;stroke:none;stroke-width:8.76594067"
     id="p3279"
     d="m 291.49907,354.13536 c 0,0 18.67145,9.81785 21.56421,11.2204 2.8051,1.40255 6.22382,-4.29531 1.40255,-7.10041 -4.90892,-2.89276 -20.9506,-10.60679 -20.9506,-10.60679 z" />
  <path
     inkscape:connector-curvature="0"
     style="display:inline;fill:#393222;fill-opacity:0.85;fill-rule:evenodd;stroke:none;stroke-width:8.76594067"
     id="p3285"
     d="m 89.707115,221.59433 -16.479968,35.58972 c 1.402551,1.75319 2.103826,3.76936 1.928507,5.43489 0.175319,-0.17532 0.525956,-0.52596 0.525956,-0.52596 l 3.857014,2.98042 c -0.350637,1.75319 -0.613616,3.50638 -0.788934,5.25956 l 5.434883,-5.52254 14.814439,-35.58972 -2.454463,-2.19148 c -0.350638,0.4383 -0.788935,0.87659 -1.139572,1.40255 L 93.47647,227.2922 c 0,0 0.876594,-1.22724 1.139572,-1.66553 z" />
  <path
     inkscape:connector-curvature="0"
     style="display:inline;fill:#2f4543;fill-opacity:0.87000002;fill-rule:evenodd;stroke:none;stroke-width:8.76594067"
     id="p3281"
     d="m 67.178648,253.32704 -4.908927,9.2919 c 3.769355,3.06808 8.415303,4.20765 9.905513,3.33105 1.227232,-0.87659 2.366804,-2.54212 2.98042,-3.33105 0.262978,-3.15574 -1.665529,-7.80169 -7.977006,-9.2919 z" />
  <path
     inkscape:connector-curvature="0"
     style="display:inline;fill:none;fill-rule:evenodd;stroke:#0f0b04;stroke-width:2.6297822;stroke-linecap:square;stroke-linejoin:miter;stroke-miterlimit:4;stroke-dasharray:none;stroke-opacity:1"
     id="p3283"
     d="m 85.762442,221.41902 c 4.032333,-0.70128 9.028919,3.33105 9.379557,6.31147" />
  <path
     inkscape:connector-curvature="0"
     style="display:inline;overflow:visible;visibility:visible;fill:#fffaca;fill-opacity:1;fill-rule:evenodd;stroke:none;stroke-width:8.76594067;marker:none;enable-background:accumulate"
     id="p3216"
     d="m 302.80713,280.67677 c 0,53.47224 -48.91395,96.86365 -109.13596,96.86365 -60.30967,0 -109.223619,-43.39141 -109.223619,-96.86365 0,-53.55989 48.913949,-96.86364 109.223619,-96.86364 60.22201,0 109.13596,43.30375 109.13596,96.86364 z" />
  <path
     inkscape:connector-curvature="0"
     style="display:inline;fill:#2e230f;fill-opacity:1;stroke:none;stroke-width:8.76594067"
     id="text3231"
     d="m 250.91276,282.42996 -1.9285,0.52596 c 0.17531,-0.52596 0.17531,-1.05191 0.17531,-1.57787 0,-0.52596 -0.0876,-0.96425 -0.26297,-1.31489 -0.0877,-0.52596 -0.26298,-0.96425 -0.4383,-1.13957 -0.26298,-0.26298 -0.52596,-0.35064 -0.87659,-0.26298 -0.26298,0.0877 -0.4383,0.17532 -0.4383,0.4383 -0.17532,0.17531 -0.0877,0.52595 -0.0877,1.05191 v 1.05191 c 0.0877,1.05191 0,1.75319 -0.26298,2.27915 -0.26298,0.52595 -0.87659,0.87659 -1.57787,1.05191 -0.96425,0.26298 -1.75319,0.26298 -2.45446,-0.26298 -0.61362,-0.4383 -1.05191,-1.22723 -1.40255,-2.3668 -0.0877,-0.61362 -0.17532,-1.22724 -0.26298,-1.75319 -0.0877,-0.61362 -0.0877,-1.22723 0.0877,-1.84085 l 1.84085,-0.4383 c -0.17532,0.52596 -0.26298,1.22724 -0.26298,1.75319 0,0.52596 0.0877,1.05191 0.26298,1.57787 0.0877,0.4383 0.35063,0.87659 0.52595,1.05191 0.26298,0.26298 0.4383,0.26298 0.78894,0.17532 0.26298,-0.0877 0.52595,-0.17532 0.61361,-0.43829 0,-0.17532 0.0877,-0.52596 0,-1.13958 l 0.0877,-0.96425 c -0.0877,-0.87659 0,-1.57787 0.26298,-2.10383 0.35064,-0.52595 0.8766,-0.87659 1.57787,-1.05191 0.87659,-0.26298 1.66553,-0.17532 2.19149,0.26298 0.70127,0.4383 1.13957,1.13957 1.40255,2.27914 0.17531,0.4383 0.26297,0.96426 0.26297,1.49021 0.17532,0.52596 0.0877,1.05192 0.17532,1.66553 m 0.96426,2.45447 1.66553,6.13615 -1.75319,0.52596 -1.05192,-3.85701 -1.57787,0.43829 0.96426,3.59404 -1.75319,0.4383 -1.05191,-3.59404 -2.01617,0.52596 1.13957,4.03233 -1.66553,0.52596 -1.75318,-6.31148 8.8536,-2.45446" />
  <path
     inkscape:connector-curvature="0"
     style="display:inline;fill:#2e230f;fill-opacity:1;stroke:none;stroke-width:8.76594067"
     id="text3243"
     d="m 172.54525,357.20344 -2.54212,-0.96426 0.96425,-8.06466 -4.47062,6.74977 -2.45447,-0.96425 0.96426,-8.06467 -4.47063,6.74978 -2.54213,-0.96426 6.13616,-9.29189 3.15574,1.13957 -1.13957,8.4153 4.82126,-7.01275 2.98042,1.13957 -1.40255,11.13275" />
  <path
     inkscape:connector-curvature="0"
     style="display:inline;fill:#2e230f;fill-opacity:1;stroke:none;stroke-width:8.76594067"
     id="text3227"
     d="m 126.08577,280.50146 1.92851,-4.03234 12.44763,0.26298 -10.08083,-5.34722 1.57787,-3.41872 14.72678,7.97701 -1.92851,3.94467 -12.44763,-0.35064 10.08083,5.43489 -1.66553,3.41871 -14.63912,-7.88934" />
  <path
     inkscape:connector-curvature="0"
     style="display:inline;fill:#2e230f;fill-opacity:1;stroke:none;stroke-width:8.76594067"
     id="text3247"
     d="m 128.71555,329.8537 -0.61361,-2.27914 4.90892,-4.38297 -5.69786,1.49021 -0.52596,-2.01617 8.23999,-2.19149 0.61361,2.36681 -4.82126,4.38297 5.52254,-1.40255 0.52596,1.92851 -8.15233,2.10382 m -2.27914,-8.59062 -0.52596,-2.01617 5.52254,-2.89276 -6.22382,0.17532 -0.52595,-2.01616 5.52254,-2.98042 -6.22382,0.17531 -0.52595,-2.01616 8.67828,-0.17532 0.61361,2.45446 -5.78552,2.98042 6.57446,-0.17532 0.61361,2.45447 -7.71402,4.03233" />
  <path
     inkscape:connector-curvature="0"
     style="display:inline;fill:#2e230f;fill-opacity:1;stroke:none;stroke-width:8.76594067"
     id="text3219"
     d="m 157.73081,249.90832 2.71745,-0.52595 7.18807,6.31147 -3.85702,-7.01275 2.27915,-0.4383 5.69786,10.1685 -2.71744,0.52595 -7.36339,-6.31148 3.94467,7.01276 -2.19148,0.43829 -5.69787,-10.16849 m 10.69445,-2.10382 6.57446,-1.31489 1.13957,2.01616 -4.20765,0.78894 1.13957,1.9285 3.76935,-0.78893 1.13958,1.92851 -3.85702,0.78893 1.31489,2.3668 4.20766,-0.87659 1.13957,2.01617 -6.66212,1.22723 -5.69786,-10.08083" />
  <path
     inkscape:connector-curvature="0"
     style="display:inline;fill:none;fill-rule:evenodd;stroke:#000000;stroke-width:2.6297822;stroke-linecap:butt;stroke-linejoin:round;stroke-miterlimit:4;stroke-dasharray:none;stroke-opacity:0.66000001"
     id="p3374"
     d="m 208.22263,338.44432 -15.34039,-28.9276 -17.79486,27.26207 11.2204,-33.04759 -16.56763,-7.01275 -16.12933,-9.11658 27.70037,5.78552 -3.68169,-26.1225 14.4638,25.6842 17.79486,-24.01868 -4.99659,21.12592 2.89277,3.6817 24.45697,-2.89276 -25.68421,9.11657 0.78894,4.20766 1.31489,2.45446 22.70379,12.00934 -31.03143,-9.55488 z" />
  <path
     inkscape:connector-curvature="0"
     style="display:inline;fill:#2e230f;fill-opacity:1;stroke:none;stroke-width:8.76594067"
     id="text3223"
     d="m 212.95624,243.68451 8.32764,3.24339 -0.96425,2.36681 -5.1719,-2.01617 -0.96426,2.19149 4.99659,1.9285 -0.96426,2.27915 -4.90892,-1.92851 -1.05192,2.71744 5.52255,2.19149 -0.96426,2.27914 -8.50296,-3.33106 4.64595,-11.92167" />
  <path
     inkscape:connector-curvature="0"
     style="display:inline;fill:#835908;fill-opacity:0.6;fill-rule:evenodd;stroke:none;stroke-width:8.76594067"
     id="p3308"
     d="m 114.60239,216.33477 c -17.794863,17.35656 -28.752288,40.49865 -28.752288,65.74455 0,27.96336 13.499548,52.85863 34.800788,70.65349 18.14549,-35.15143 21.73953,-45.23226 21.56421,-72.05604 -0.0877,-25.42122 -13.93785,-42.07651 -27.61271,-64.342 z" />
  <path
     inkscape:connector-curvature="0"
     style="display:inline;fill:#302605;fill-opacity:0.79000005;fill-rule:evenodd;stroke:none;stroke-width:8.76594067"
     id="p3293"
     d="m 123.28067,337.04177 c 0,0 3.94467,1.66553 7.27573,1.13957 3.41872,-0.61361 56.62797,-13.49954 56.62797,-13.49954 0,0 8.15233,2.54212 16.83061,-0.52596 7.80169,-2.8051 7.80169,-15.16508 11.2204,-16.83061 3.33106,-1.66552 35.8527,-19.6357 38.04419,-18.49613 2.27914,1.13957 6.22381,2.8051 9.55487,0 3.33106,-2.8051 9.55488,-16.83061 9.55488,-16.83061 l -18.49614,-1.66553 -110.45085,50.40416 c 0,0 -21.82719,15.16508 -20.16166,16.30465 z" />
  <path
     inkscape:connector-curvature="0"
     style="display:inline;fill:#695b40;fill-opacity:0.27000002;fill-rule:evenodd;stroke:none;stroke-width:8.76594067"
     id="p3306"
     d="m 258.10083,201.52033 c -4.99658,9.73019 -12.00933,25.15825 -12.00933,35.67738 0,15.86635 18.40847,44.96927 17.00592,55.31308 -2.19148,15.3404 3.41872,10.86977 0.87659,34.27483 -1.22723,12.00934 -10.86976,5.6102 -11.30806,38.83312 31.90802,-17.09359 53.38458,-48.12502 53.38458,-83.53942 0,-33.31057 -19.10975,-62.93945 -47.9497,-80.55899 z" />
  <path
     inkscape:connector-curvature="0"
     style="display:inline;fill:#2e230f;fill-opacity:1;stroke:none;stroke-width:8.76594067"
     id="text3235"
     d="M 253.71786,331.43157 251.2634,330.292 c 0.61362,-0.52596 1.05191,-1.05191 1.49021,-1.57787 0.4383,-0.52596 0.78894,-1.05191 1.05191,-1.57787 0.35064,-0.70128 0.52596,-1.31489 0.4383,-1.75319 0,-0.4383 -0.17532,-0.70127 -0.61362,-0.96425 -0.35063,-0.0877 -0.61361,-0.17532 -0.96425,0 -0.26298,0.17532 -0.61361,0.52595 -0.96425,1.05191 l -0.96426,1.22723 c -0.87659,1.13957 -1.66552,1.84085 -2.54212,2.19149 -0.70127,0.17532 -1.57787,0.17532 -2.54212,-0.26298 -1.31489,-0.70128 -2.10383,-1.49021 -2.36681,-2.62978 -0.26297,-0.96426 0,-2.36681 0.70128,-3.94468 0.35064,-0.70127 0.78893,-1.40255 1.31489,-2.10382 0.52596,-0.61362 1.13957,-1.22723 1.66553,-1.84085 l 2.54212,1.13957 c -0.70127,0.52596 -1.40255,1.13958 -1.84084,1.75319 -0.61362,0.61362 -0.96426,1.22723 -1.3149,1.92851 -0.35063,0.61361 -0.43829,1.13957 -0.43829,1.66553 0.0877,0.35063 0.35063,0.70127 0.70127,0.87659 0.4383,0.17532 0.70128,0.26298 1.05192,0.0877 0.26297,-0.17532 0.61361,-0.52596 1.13957,-1.13957 l 0.87659,-1.05191 c 0.78894,-1.05192 1.66553,-1.75319 2.36681,-2.01617 0.87659,-0.26298 1.75318,-0.26298 2.62978,0.26298 1.22723,0.52595 1.9285,1.31489 2.19148,2.45446 0.26298,0.96425 0,2.27914 -0.61361,3.6817 -0.35064,0.61361 -0.70128,1.22723 -1.13958,1.84084 -0.35063,0.61362 -0.87659,1.22723 -1.40255,1.84085" />
  <path
     inkscape:connector-curvature="0"
     style="display:inline;fill:#3c321f;fill-opacity:0.9;fill-rule:evenodd;stroke:none;stroke-width:8.76594067"
     id="p3222"
     d="m 195.95032,184.60207 c -60.74797,0 -110.100218,43.65438 -110.100218,97.47725 0,13.49955 3.155738,26.12251 8.76594,37.78121 33.836528,-102.64917 146.128228,-107.64575 199.688128,5.78552 7.45105,-13.14891 11.74636,-27.87569 11.74636,-43.56673 0,-53.82287 -49.35225,-97.47725 -110.10021,-97.47725 z" />
  <path
     inkscape:connector-curvature="0"
     style="display:inline;fill:#2e230f;fill-opacity:1;stroke:none;stroke-width:8.76594067"
     id="text3239"
     d="m 215.49836,355.71323 -0.87659,-2.10383 c 0.61361,0.17532 1.13957,0.26298 1.75319,0.4383 0.52595,0 0.96425,0 1.40255,-0.0877 0.52595,-0.0877 0.96425,-0.17532 1.13957,-0.4383 0.17532,-0.17532 0.17532,-0.4383 0,-0.78893 -0.0877,-0.26298 -0.26298,-0.4383 -0.4383,-0.61362 -0.35063,0 -0.61361,-0.17532 -1.13957,-0.17532 h -1.05191 c -1.13957,-0.0877 -2.01617,-0.26298 -2.54213,-0.61361 -0.61361,-0.4383 -1.13957,-1.05192 -1.49021,-1.84085 -0.43829,-1.05191 -0.43829,-1.84085 -0.0877,-2.45447 0.35063,-0.61361 1.13957,-0.96425 2.3668,-1.13957 0.61362,-0.0877 1.22723,-0.0877 1.84085,-0.0877 0.61361,0.0877 1.22723,0.17532 1.9285,0.26298 l 0.8766,2.01617 c -0.70128,-0.26298 -1.40255,-0.35064 -2.01617,-0.4383 -0.61361,-0.0877 -1.22723,-0.0877 -1.66553,0 -0.52595,0.0877 -0.78893,0.17532 -1.05191,0.4383 -0.17532,0.17532 -0.26298,0.52595 -0.0877,0.78893 0.0877,0.26298 0.26298,0.52596 0.61362,0.70128 0.26297,0.0877 0.61361,0.17532 1.22723,0.26298 h 1.05191 c 0.96425,0.17531 1.75319,0.26297 2.36681,0.70127 0.61361,0.4383 1.05191,0.8766 1.40255,1.66553 0.43829,0.96425 0.35063,1.66553 0,2.27914 -0.35064,0.61362 -1.05192,0.96426 -2.10383,1.13958 -0.52596,0.0877 -1.05191,0.17532 -1.57787,0.17532 -0.61362,0 -1.22723,-0.0877 -1.84085,-0.0877 m -1.66553,0.52595 -2.3668,0.35064 -4.38297,-6.57446 1.40255,7.01276 -2.27914,0.35063 -4.47063,-6.57445 1.31489,7.01275 -2.19149,0.35064 -1.84085,-9.73019 2.62979,-0.35064 4.64595,6.83743 -1.40256,-7.36339 2.71745,-0.35064 6.22381,9.02892" />
  <path
     inkscape:connector-curvature="0"
     style="display:inline;overflow:visible;visibility:visible;fill:#c79f2a;fill-opacity:0.21000001;fill-rule:evenodd;stroke:none;stroke-width:8.76594067;marker:none;enable-background:accumulate"
     id="p3243"
     d="m 195.95032,184.60207 c -59.08244,0 -106.330864,49.70288 -108.872987,101.50959 12.359976,-51.45607 56.803297,-76.26369 104.577667,-76.26369 59.1701,0 106.6815,44.44332 110.88915,96.07471 18.93443,-71.26709 -44.268,-112.46701 -106.59383,-121.32061 z" />
  <path
     inkscape:connector-curvature="0"
     style="display:inline;fill:#d0a445;fill-opacity:0.31000001;fill-rule:evenodd;stroke:none;stroke-width:8.76594067"
     id="p3287"
     d="M 287.1161,287.33889 C 276.59697,271.03424 264.41231,258.23597 252.22765,250.08364 240.043,242.01898 232.50429,239.12622 232.50429,239.12622 l 9.81785,-14.02551 -13.32423,-6.31148 c 0,0 0.52596,-10.51912 3.50638,-9.90551 2.89276,0.61362 15.07742,12.18466 10.43147,6.39914 -4.64595,-5.78552 11.57104,-0.61362 20.86294,7.53871 9.29189,8.15232 12.79827,18.58379 12.79827,18.58379 0,0 -7.53871,4.03233 -4.64595,7.01275 2.89276,2.89276 12.18466,9.81786 15.16508,38.92078 z" />
  <path
     inkscape:connector-curvature="0"
     style="display:inline;overflow:visible;visibility:visible;fill:none;fill-opacity:1;fill-rule:evenodd;stroke:#271c18;stroke-width:2.19148517;stroke-linecap:round;stroke-linejoin:miter;stroke-miterlimit:4;stroke-dasharray:none;stroke-dashoffset:0;stroke-opacity:0.72000002;marker:none;enable-background:accumulate"
     id="p3278"
     d="m 248.54596,367.54725 c 20.074,-14.63913 32.6093,-36.7293 32.6093,-61.62457 0,-44.18034 -40.32333,-80.29601 -90.11387,-80.29601 -49.79054,0 -90.11387,36.11567 -90.11387,80.29601 0,14.72678 4.47063,28.40165 12.27232,40.23567" />
  <path
     inkscape:connector-curvature="0"
     style="display:inline;overflow:visible;visibility:visible;fill:none;fill-opacity:0.21000001;fill-rule:evenodd;stroke:#463817;stroke-width:3.50637627;stroke-linecap:round;stroke-linejoin:miter;stroke-miterlimit:4;stroke-dasharray:none;stroke-dashoffset:0;stroke-opacity:1;marker:none;enable-background:accumulate"
     id="p3251"
     d="M 87.077333,286.11166 C 99.437309,234.65559 143.88063,209.84797 191.655,209.84797 c 59.1701,0 106.6815,44.44332 110.88915,96.07471" />
  <path
     inkscape:connector-curvature="0"
     style="display:inline;fill:#c3c1b4;fill-opacity:1;fill-rule:evenodd;stroke:none;stroke-width:8.76594067"
     id="p3197"
     d="m 117.05685,326.69796 c 2.71744,3.15574 6.74977,-0.43829 6.74977,-0.43829 l 63.02712,-12.88594 c 0,0 10.69444,1.31489 17.44422,-1.40255 6.66211,-2.62978 10.69445,-12.53529 10.69445,-15.16507 0,-2.71745 -0.8766,-4.03234 -0.8766,-4.03234 l 39.27142,-17.44422 c 0,0 0.96425,3.15574 4.47063,3.15574 3.59403,0 7.18807,-3.59404 8.50296,-5.34722 1.40255,-1.84085 7.18807,-14.81444 7.18807,-14.81444 0,0 -14.28848,-1.3149 -16.56763,-1.3149 -2.19148,0 -9.81785,0 -10.69445,1.84085 -0.87659,1.75319 0.8766,5.78552 0.8766,5.78552 l -37.51823,15.60338 c 0,0 -4.47063,-7.10041 -14.28848,-6.22382 -9.81785,0.87659 -13.41189,6.22382 -13.41189,6.22382 l -59.87137,41.11226 c 0,0 -6.31148,2.71744 -4.99659,5.34722 z" />
  <path
     inkscape:connector-curvature="0"
     style="display:inline;fill:#565656;fill-opacity:0.51000001;fill-rule:evenodd;stroke:none;stroke-width:8.76594067"
     id="p3211"
     d="m 257.04892,256.92108 c -2.27914,0 -9.81785,0.0877 -10.69445,1.9285 -0.87659,1.75319 0.78894,5.69786 0.78894,5.69786 l -31.99568,13.41189 c 1.31489,1.31489 2.54212,2.45447 2.98042,4.11999 0.52595,1.84085 1.40255,4.29532 2.45446,7.71403 l 32.87228,-14.55146 c 0,0 0.78893,3.33106 4.38297,3.33106 3.59403,0 7.18807,-3.76936 8.50296,-5.52254 1.31489,-1.75319 7.10041,-14.81444 7.10041,-14.81444 0,0 -14.20082,-1.31489 -16.39231,-1.31489 z" />
  <path
     inkscape:connector-curvature="0"
     style="display:inline;fill:#fdfdfd;fill-opacity:0.82999998;fill-rule:evenodd;stroke:none;stroke-width:8.76594067"
     id="p3209"
     d="m 183.06438,278.83593 c -0.78893,0.70127 -1.05191,1.31489 -1.05191,1.31489 l -60.04669,41.11226 c 0,0 -6.22382,2.8051 -4.90893,5.52254 2.71744,3.06808 6.83743,-0.61361 6.83743,-0.61361 l 4.64595,-0.78894 c -0.61361,-2.3668 -0.70127,-4.20765 0.61362,-4.90893 2.19148,-1.40255 31.7327,-17.2689 31.7327,-17.2689 0,0 9.90552,0 12.62296,-2.71744 2.71744,-2.8051 -0.26298,-12.88593 3.85701,-12.88593 1.92851,0 3.94467,-4.38297 5.69786,-8.76594 z" />
  <path
     inkscape:connector-curvature="0"
     style="fill:#a32832;fill-opacity:1;fill-rule:evenodd;stroke:none;stroke-width:8.76594067"
     id="p3263"
     d="m 257.04892,256.92108 c -2.27914,0 -9.81785,0.0877 -10.69445,1.9285 1.66553,7.53871 5.43489,13.32423 9.90552,19.28507 3.59403,0 8.76594,-3.33106 10.08083,-5.08424 1.31489,-1.75319 7.10041,-14.81444 7.10041,-14.81444 0,0 -14.20082,-1.31489 -16.39231,-1.31489 z" />
  <path
     inkscape:connector-curvature="0"
     style="display:inline;fill:#dcdcdc;fill-opacity:0.66000001;fill-rule:evenodd;stroke:none;stroke-width:8.76594067"
     id="p3268"
     d="m 182.27545,295.22824 -19.46039,23.05442 24.10634,-4.99659 c 0,0 3.41871,0.4383 7.62636,0.35064 z" />
  <path
     inkscape:connector-curvature="0"
     style="display:inline;fill:none;fill-opacity:1;fill-rule:evenodd;stroke:#2a2a2a;stroke-width:1.75318813;stroke-linecap:butt;stroke-linejoin:miter;stroke-miterlimit:4;stroke-dasharray:none;stroke-opacity:1"
     id="p3205"
     d="m 117.05685,326.69796 c 2.71744,3.15574 6.74977,-0.43829 6.74977,-0.43829 l 63.02712,-12.88594 c 0,0 10.69444,1.31489 17.44422,-1.40255 6.66211,-2.62978 10.69445,-12.53529 10.69445,-15.16507 0,-2.71745 -0.8766,-4.03234 -0.8766,-4.03234 l 39.27142,-17.44422 c 0,0 0.96425,3.15574 4.47063,3.15574 3.59403,0 7.18807,-3.59404 8.50296,-5.34722 1.40255,-1.84085 7.18807,-14.81444 7.18807,-14.81444 0,0 -14.28848,-1.3149 -16.56763,-1.3149 -2.19148,0 -9.81785,0 -10.69445,1.84085 -0.87659,1.75319 0.8766,5.78552 0.8766,5.78552 l -37.51823,15.60338 c 0,0 -4.47063,-7.10041 -14.28848,-6.22382 -9.81785,0.87659 -13.41189,6.22382 -13.41189,6.22382 l -59.87137,41.11226 c 0,0 -6.31148,2.71744 -4.99659,5.34722 z" />
  <path
     inkscape:connector-curvature="0"
     style="display:inline;overflow:visible;visibility:visible;fill:#222222;fill-opacity:0.92000002;fill-rule:evenodd;stroke:none;stroke-width:8.76594067;marker:none;enable-background:accumulate"
     id="p3280"
     d="m 212.6056,296.10483 c 0,7.97701 -7.36339,14.37614 -16.39231,14.37614 -9.11657,0 -16.39231,-6.39913 -16.39231,-14.37614 0,-8.06467 7.27574,-14.4638 16.39231,-14.4638 9.02892,0 16.39231,6.39913 16.39231,14.4638 z" />
  <path
     inkscape:connector-curvature="0"
     style="display:inline;fill:#c3a16b;fill-opacity:1;fill-rule:evenodd;stroke:none;stroke-width:8.76594067"
     id="p3201"
     d="m 199.28137,200.20544 c -1.05191,0 -1.84084,0.26298 -2.54212,0.52596 -2.62978,0.87659 -5.52254,5.69786 -4.64595,6.57445 0.8766,0.8766 3.59404,2.01617 3.59404,4.64595 0,2.27914 -4.47063,50.14118 -5.78552,63.55307 -5.43489,2.54212 -9.2919,7.88935 -9.2919,14.28848 0,8.67828 7.36339,15.86636 16.12933,15.86636 8.8536,0 15.95401,-7.18808 15.95401,-15.86636 0,-5.78552 -3.2434,-10.69444 -7.977,-13.41189 0.78893,-13.14891 3.94467,-72.66964 2.71744,-74.24751 -0.96426,-1.40255 -5.08425,-2.10383 -8.15233,-1.92851 z" />
  <path
     inkscape:connector-curvature="0"
     style="display:inline;fill:#463b1f;fill-opacity:0.7;fill-rule:evenodd;stroke:none;stroke-width:8.76594067"
     id="p3346"
     d="m 187.18437,277.1704 c -3.94467,2.89276 -6.57445,7.36339 -6.57445,12.62295 0,8.67828 7.36339,15.86636 16.12933,15.86636 1.40255,0 2.89276,-0.26298 4.11999,-0.52596 l -5.96084,-22.17783 z" />
  <path
     inkscape:connector-curvature="0"
     style="display:inline;fill:#e1de76;fill-opacity:0.56000001;fill-rule:evenodd;stroke:none;stroke-width:8.76594067"
     id="p3348"
     d="m 194.02181,285.67336 -12.27232,9.55488 c 1.05191,2.8051 2.8051,5.34722 5.17191,7.10041 l 10.95742,-16.12933 z" />
  <path
     inkscape:connector-curvature="0"
     style="display:inline;fill:#2c1409;fill-opacity:0.62999998;fill-rule:evenodd;stroke:none;stroke-width:8.76594067"
     id="p3315"
     d="m 198.93074,200.20544 -1.05192,9.02892 h 5.78552 c -0.0877,0 2.62979,8.4153 0.52596,13.67487 -1.75319,4.47063 -5.43488,3.06808 -9.2919,-2.98042 -0.35064,4.03233 -0.87659,11.74636 -1.66553,20.5123 3.6817,-4.11999 6.39914,-4.38297 12.62296,3.85701 0.17532,0.26298 0.26298,0.35064 0.52595,0.52596 0.96426,-20.59996 1.84085,-41.72588 1.05192,-42.69013 -0.96426,-1.40255 -5.08425,-2.10383 -8.15233,-1.92851 -0.17532,0 -0.17532,0 -0.35063,0 z" />
  <path
     inkscape:connector-curvature="0"
     style="display:inline;fill:none;fill-opacity:1;fill-rule:evenodd;stroke:#362d1a;stroke-width:1.75318813;stroke-linecap:butt;stroke-linejoin:miter;stroke-miterlimit:4;stroke-dasharray:none;stroke-opacity:1"
     id="p3288"
     d="m 199.28137,200.20544 c -1.05191,0 -1.84084,0.26298 -2.54212,0.52596 -2.62978,0.87659 -5.52254,5.69786 -4.64595,6.57445 0.8766,0.8766 3.59404,2.01617 3.59404,4.64595 0,2.27914 -4.47063,50.14118 -5.78552,63.55307 -5.43489,2.54212 -9.2919,7.88935 -9.2919,14.28848 0,8.67828 7.36339,15.86636 16.12933,15.86636 8.8536,0 15.95401,-7.18808 15.95401,-15.86636 0,-5.78552 -3.2434,-10.69444 -7.977,-13.41189 0.78893,-13.14891 3.94467,-72.66964 2.71744,-74.24751 -0.96426,-1.40255 -5.08425,-2.10383 -8.15233,-1.92851 z" />
  <path
     inkscape:connector-curvature="0"
     style="fill:#2b2109;fill-opacity:0.43000004;fill-rule:evenodd;stroke:none;stroke-width:8.76594067"
     id="p3365"
     d="m 204.45328,200.46842 c -0.0877,9.37955 -0.52596,33.83653 -1.13957,39.44673 -0.61362,6.74977 -2.71745,31.38207 -2.71745,35.06376 0,3.6817 2.45447,8.76594 2.45447,8.76594 l 8.23998,0.26298 c -1.31489,-3.15574 -3.59403,-5.87318 -6.57445,-7.62637 0.78893,-13.14891 3.94467,-72.66964 2.71744,-74.24751 -0.4383,-0.70128 -1.57787,-1.31489 -2.98042,-1.66553 z" />
  <path
     inkscape:connector-curvature="0"
     style="display:inline;overflow:visible;visibility:visible;fill:#e3d471;fill-opacity:1;fill-rule:evenodd;stroke:none;stroke-width:8.76594067;marker:none;enable-background:accumulate"
     id="p3272"
     d="m 205.85583,286.72527 c 0,5.17191 -4.47063,9.37956 -9.81786,9.37956 -5.43488,0 -9.81785,-4.20765 -9.81785,-9.37956 0,-5.25956 4.38297,-9.46721 9.81785,-9.46721 5.34723,0 9.81786,4.20765 9.81786,9.46721 z" />
  <path
     inkscape:connector-curvature="0"
     style="display:inline;fill:#2c1409;fill-opacity:0.62999998;fill-rule:evenodd;stroke:none;stroke-width:8.76594067"
     id="p3319"
     d="m 199.28137,200.20544 c -1.05191,0 -1.84084,0.26298 -2.54212,0.52596 -2.62978,0.87659 -5.52254,5.69786 -4.64595,6.57445 0.8766,0.8766 3.59404,2.01617 3.59404,4.64595 0,0.0877 -0.26298,2.45446 -0.26298,2.71744 0.61361,-0.61361 5.1719,-4.11999 12.27232,1.40255 0.26297,-7.62637 0.0877,-13.49955 -0.26298,-13.93784 -0.96426,-1.40255 -5.08425,-2.10383 -8.15233,-1.92851 z" />
  <path
     inkscape:connector-curvature="0"
     style="display:inline;overflow:visible;visibility:visible;fill:#211000;fill-opacity:0.82999998;fill-rule:evenodd;stroke:none;stroke-width:8.76594067;marker:none;enable-background:accumulate"
     id="p3370"
     d="m 201.64818,283.65719 c 0,3.76936 -3.41872,6.83744 -7.53871,6.83744 -4.20765,0 -7.62637,-3.06808 -7.62637,-6.83744 0,-3.68169 3.41872,-6.74977 7.62637,-6.74977 4.11999,0 7.53871,3.06808 7.53871,6.74977 z" />
  <path
     inkscape:connector-curvature="0"
     style="display:inline;overflow:visible;visibility:visible;fill:#17292d;fill-opacity:0.93000034;fill-rule:evenodd;stroke:none;stroke-width:8.76594067;marker:none;enable-background:accumulate"
     id="p3372"
     d="m 200.9469,285.05974 c 0,3.06808 -2.71744,5.61021 -6.13616,5.61021 -3.41871,0 -6.22381,-2.54213 -6.22381,-5.61021 0,-3.06807 2.8051,-5.6102 6.22381,-5.6102 3.41872,0 6.13616,2.54213 6.13616,5.6102 z" />
  <path
     inkscape:connector-curvature="0"
     style="display:inline;fill:none;fill-rule:evenodd;stroke:#25180c;stroke-width:2.6297822;stroke-linecap:butt;stroke-linejoin:miter;stroke-miterlimit:4;stroke-dasharray:none;stroke-opacity:1"
     id="p3430"
     d="M 60.867171,262.09298 C 78.136074,236.49643 89.531797,213.96797 93.827107,205.37734" />
  <path
     inkscape:connector-curvature="0"
     style="display:inline;fill:#fbf1d1;fill-opacity:0.22999998;fill-rule:evenodd;stroke:none;stroke-width:8.76594067"
     id="p3297"
     d="m 195.95032,184.60207 c -21.56422,0 -41.63822,5.25956 -58.64415,14.72678 3.59404,30.41781 2.19149,31.03143 0.61362,50.75479 -1.75319,20.59996 -10.86977,57.41691 -31.03143,88.9743 19.98634,24.45697 52.42032,40.5863 89.06196,40.5863 60.74796,0 110.10021,-43.74204 110.10021,-97.56492 0,-53.82287 -49.35225,-97.47725 -110.10021,-97.47725 z" />
  <path
     inkscape:connector-curvature="0"
     style="display:inline;overflow:visible;visibility:visible;fill:none;fill-opacity:0.81999966;fill-rule:evenodd;stroke:#f8eda4;stroke-width:4.38297033;stroke-linecap:round;stroke-linejoin:miter;stroke-miterlimit:4;stroke-dasharray:none;stroke-dashoffset:0;stroke-opacity:1;marker:none;enable-background:accumulate"
     id="p3203"
     d="m 311.22243,295.05292 c -9.29189,54.43649 -58.7318,91.42876 -113.86956,91.42876 -43.04077,0 -123.336788,-27.34974 -117.551267,-119.21679" />
  <path
     inkscape:connector-curvature="0"
     style="display:inline;overflow:visible;visibility:visible;fill:none;fill-opacity:1;fill-rule:evenodd;stroke:#d0ae67;stroke-width:12.09699821;stroke-linecap:round;stroke-linejoin:miter;stroke-miterlimit:4;stroke-dasharray:none;stroke-dashoffset:0;stroke-opacity:1;marker:none;enable-background:accumulate"
     id="p3247"
     d="m 302.80713,280.67677 c 0,53.47224 -48.91395,96.86365 -109.13596,96.86365 -60.30967,0 -109.223619,-43.39141 -109.223619,-96.86365 0,-53.55989 48.913949,-96.86364 109.223619,-96.86364 60.22201,0 109.13596,43.30375 109.13596,96.86364 z" />
  <path
     inkscape:connector-curvature="0"
     style="display:inline;overflow:visible;visibility:visible;fill:#4e3112;fill-opacity:0.81000001;fill-rule:evenodd;stroke:none;stroke-width:8.76594067;marker:none;enable-background:accumulate"
     id="p3291"
     d="m 189.63884,188.72206 c -40.14801,2.01616 -75.21177,18.75911 -96.16237,44.09268 -0.175319,0.26298 -0.350638,0.52596 -0.525957,0.78893 -8.678281,14.46381 -13.411889,31.03143 -13.411889,48.47565 0,57.06628 52.245006,103.26279 116.411696,103.26279 60.6603,0 110.62617,-41.19993 115.88573,-93.97089 h -2.98042 c -2.45446,47.24842 -51.01777,88.18536 -110.97681,88.18536 -61.44924,0 -111.239784,-42.86545 -111.239784,-91.69173 0,-16.56763 5.785521,-31.99569 15.603374,-45.23226 15.77869,-29.3659 48.73863,-49.96586 87.39643,-52.06968 z" />
  <path
     inkscape:connector-curvature="0"
     style="fill:#fbfbce;fill-opacity:0.54000005;fill-rule:evenodd;stroke:none;stroke-width:8.76594067"
     id="p3349"
     d="m 243.46171,189.16035 c -1.22723,5.34723 16.83061,15.95402 21.30124,19.63571 4.47063,3.6817 8.23998,6.13616 10.25615,4.90893 2.01617,-1.22723 -12.71061,-16.74295 -31.55739,-24.54464 z" />
  <path
     inkscape:connector-curvature="0"
     style="display:inline;fill:none;fill-opacity:1;fill-rule:evenodd;stroke:#1b160f;stroke-width:3.50637627;stroke-linecap:butt;stroke-linejoin:miter;stroke-miterlimit:4;stroke-dasharray:none;stroke-opacity:1"
     id="p3236"
     d="m 287.64205,361.23577 c 0.35064,0.61361 5.52255,6.48679 6.83744,4.03233 2.98042,-5.52254 8.76594,-0.96425 7.18807,3.85702 4.38297,2.54212 8.23998,4.11999 12.88593,5.87318 2.54212,0 8.32765,-3.94468 10.08083,-6.4868 1.84085,-2.54212 3.33106,-12.35998 1.84085,-13.76253 -1.40255,-1.49021 -25.42123,-13.06125 -27.17441,-13.06125 -1.84085,0 -5.43489,6.4868 -6.9251,8.67828 -1.40255,2.19149 -3.94467,9.02892 -4.73361,10.86977 z" />
  <path
     inkscape:connector-curvature="0"
     style="fill:#4e3112;fill-opacity:0.81000001;fill-rule:evenodd;stroke:none;stroke-width:8.76594067"
     id="p3312"
     d="m 197.08989,185.12802 c -55.31309,0 -76.52666,27.70037 -86.87047,45.23226 18.58379,-24.28166 50.05352,-38.39482 85.7309,-38.39482 53.73521,0 97.74023,34.27482 102.9998,80.55899 -2.36681,-44.79396 -43.91736,-87.39643 -101.86023,-87.39643 z" />
  <path
     inkscape:connector-curvature="0"
     style="fill:#604e3b;fill-opacity:0.73000004;fill-rule:evenodd;stroke:none;stroke-width:8.76594067"
     id="p3323"
     d="m 136.78022,193.10503 c -34.27483,17.97018 -57.241596,51.10543 -57.241596,88.97429 0,19.54805 6.311478,37.78121 17.005925,53.47224 3.944671,-2.89276 6.837431,-5.08424 9.817851,-7.45105 -8.941257,-13.5872 -13.937843,-29.19058 -13.937843,-46.02119 0,-33.22291 19.898683,-62.23817 49.878203,-78.3675 -0.0877,0 0,-0.17532 0,-0.26298 -1.66553,-3.33106 -3.50638,-6.57446 -5.52254,-10.34381 z" />
  <path
     inkscape:connector-curvature="0"
     style="display:inline;overflow:visible;visibility:visible;fill:none;fill-opacity:1;fill-rule:evenodd;stroke:#000000;stroke-width:4.3829999;stroke-linecap:round;stroke-linejoin:round;stroke-miterlimit:4;stroke-dasharray:none;stroke-dashoffset:0;stroke-opacity:0.98000004;marker:none;enable-background:accumulate"
     id="stroke01"
     d="M 118.19642,51.710406 C 107.50197,53.638913 80.678197,97.293297 55.695266,153.6583 29.046806,213.70499 13.618751,268.22914 22.56001,272.26147 c 14.902099,7.10041 4.645949,2.27915 18.934432,8.76594 3.681695,1.66553 10.869766,-5.78552 19.986345,-18.93443 3.857014,3.50638 9.116578,4.82127 10.694447,3.85701 1.665529,-1.13957 3.506376,-3.85701 3.506376,-3.85701 l 3.857014,2.98042 c -1.227231,5.96084 -1.928507,11.92168 -1.928507,18.1455 -1.051912,7.977 -0.876594,15.77869 -0.788934,23.84336 0,57.32925 52.332667,104.05171 116.937647,104.05171 40.76162,0 76.78964,-18.67145 97.8279,-46.81012 0.87659,0.52595 2.19148,0.96425 3.2434,1.57787 -0.4383,6.13616 1.13957,12.53529 4.90892,18.14549 8.06467,11.57105 22.96677,15.16508 33.22292,7.36339 10.16849,-7.80168 11.48338,-23.75569 3.50637,-35.32674 -6.57445,-9.46721 -17.7072,-13.32423 -27.08675,-10.16849 -2.19149,-0.96425 -4.12,-2.01616 -5.78552,-2.71744 4.7336,-11.2204 7.45105,-23.49272 7.45105,-36.11567 0.35063,-8.32765 0.61361,-15.86636 0.52595,-23.84336 0,-27.96335 -12.44763,-53.1216 -32.6093,-71.79306 0.4383,-0.96425 0.78894,-1.75318 0.78894,-2.45446 0,-4.73361 -6.9251,-9.20424 -10.95743,-8.50296 -0.87659,0.17532 -1.75319,0.35064 -2.45446,0.78893 -19.81103,-13.67486 -44.7063,-21.91485 -71.79306,-21.91485 -41.90119,0 -78.45516,19.63571 -99.142783,49.08927 L 93.47647,227.2922 c 0,0 6.83743,-10.34381 6.83743,-12.88594 0,-1.9285 -3.243394,-6.13615 -7.363387,-7.36339 4.295311,-8.76594 8.590617,-18.05783 12.885937,-27.70037 26.64846,-60.04669 42.07651,-114.395524 33.13525,-118.340197 -6.22382,-3.155739 -13.93784,-6.662115 -20.77528,-9.291897 z M 326.91347,356.06386 c 1.49021,1.13958 2.89276,2.36681 4.11999,4.12 5.96084,8.59062 4.73361,19.89868 -2.19149,25.15825 -7.01275,5.34722 -17.61954,3.15573 -23.58038,-5.43489 -2.27914,-3.2434 -3.59403,-6.92509 -3.85701,-10.43147 5.96084,2.98042 11.92168,5.52255 13.14891,5.52255 2.54212,0 8.32765,-4.12 10.16849,-6.57446 1.57787,-2.19149 2.8051,-9.37956 2.19149,-12.35998 z" />
  <path
     style="color:#000000;clip-rule:nonzero;display:inline;overflow:visible;visibility:visible;opacity:1;isolation:auto;mix-blend-mode:normal;color-interpolation:sRGB;color-interpolation-filters:linearRGB;solid-color:#000000;solid-opacity:1;fill:#ff0000;fill-opacity:1;fill-rule:nonzero;stroke:#ffffff;stroke-width:8;stroke-linecap:round;stroke-linejoin:round;stroke-miterlimit:4;stroke-dasharray:none;stroke-dashoffset:0;stroke-opacity:1;marker:none;marker-start:none;marker-mid:none;marker-end:none;color-rendering:auto;image-rendering:auto;shape-rendering:auto;text-rendering:auto;enable-background:accumulate"
     d="m 480.8485,194.36064 c -3.28218,0 -6.5651,1.25847 -9.08008,3.77344 l -33.75587,33.75586 c -3.39584,3.39588 -4.49605,8.18943 -3.30664,12.49414 h 29.50196 v 26.11133 c 0,9.47004 7.62373,17.09375 17.09375,17.09375 9.47002,0 17.09374,-7.62371 17.09374,-17.09375 v -26.11133 h 28.59375 c 0.29735,-1.07618 0.45179,-2.18323 0.46289,-3.29102 0.0333,-3.32336 -1.22068,-6.65623 -3.76758,-9.20312 l -33.7578,-33.75586 c -2.51499,-2.51497 -5.79594,-3.77344 -9.07812,-3.77344 z m -83.53322,83.66211 c -3.32336,-0.0333 -6.65623,1.22068 -9.20311,3.76758 l -33.75586,33.7578 c -2.51497,2.51499 -3.77344,5.79595 -3.77344,9.07813 0,3.28218 1.25847,6.56509 3.77344,9.08007 l 33.75586,33.75586 c 3.39587,3.39584 8.18942,4.49605 12.49413,3.30664 v -29.50195 h 26.11133 c 9.47004,0 17.09375,-7.62373 17.09375,-17.09375 0,-9.47002 -7.62371,-17.09375 -17.09375,-17.09375 H 400.6063 v -28.59374 c -1.07618,-0.29735 -2.18323,-0.45179 -3.29102,-0.46289 z m 167.06641,0 c -1.10779,0.0111 -2.21484,0.16554 -3.29102,0.46289 v 28.59374 h -26.11132 c -9.47004,0 -17.09376,7.62373 -17.09376,17.09375 0,9.47002 7.62371,17.09375 17.09376,17.09375 h 26.11132 v 29.50195 c 4.30471,1.18941 9.09826,0.0892 12.49414,-3.30664 l 33.75586,-33.75586 c 2.51497,-2.51498 3.77344,-5.79789 3.77344,-9.08007 0,-3.28218 -1.25847,-6.56314 -3.77344,-9.07813 l -33.75586,-33.7578 c -2.54689,-2.5469 -5.87976,-3.80085 -9.20312,-3.76758 z m -83.08007,83.64062 c -9.47002,0 -17.09375,7.6237 -17.09375,17.09375 v 26.11132 h -29.50196 c -1.18941,4.30471 -0.0892,9.09826 3.30664,12.49414 l 33.75587,33.75586 c 2.51498,2.51497 5.7979,3.77344 9.08008,3.77344 3.28218,0 6.56313,-1.25847 9.07812,-3.77344 l 33.7578,-33.75586 c 2.5469,-2.54689 3.80085,-5.87976 3.76758,-9.20312 -0.0111,-1.10779 -0.16554,-2.21484 -0.46289,-3.29102 h -28.59375 v -26.11132 c 0,-9.47004 -7.62372,-17.09375 -17.09374,-17.09375 z"
     id="path4494"
     inkscape:connector-curvature="0" />
  <g
     id="g6155"
     transform="translate(60.55065,28.9749)">
    <path
       style="color:#000000;font-style:normal;font-variant:normal;font-weight:normal;font-stretch:normal;font-size:medium;line-height:normal;font-family:sans-serif;font-variant-ligatures:normal;font-variant-position:normal;font-variant-caps:normal;font-variant-numeric:normal;font-variant-alternates:normal;font-feature-settings:normal;text-indent:0;text-align:start;text-decoration:none;text-decoration-line:none;text-decoration-style:solid;text-decoration-color:#000000;letter-spacing:normal;word-spacing:normal;text-transform:none;writing-mode:lr-tb;direction:ltr;text-orientation:mixed;dominant-baseline:auto;baseline-shift:baseline;text-anchor:start;white-space:normal;shape-padding:0;clip-rule:nonzero;display:inline;overflow:visible;visibility:visible;opacity:1;isolation:auto;mix-blend-mode:normal;color-interpolation:sRGB;color-interpolation-filters:linearRGB;solid-color:#000000;solid-opacity:1;vector-effect:none;fill:none;fill-opacity:1;fill-rule:nonzero;stroke:#fafafa;stroke-width:5.69299984;stroke-linecap:round;stroke-linejoin:round;stroke-miterlimit:4;stroke-dasharray:none;stroke-dashoffset:0;stroke-opacity:1;marker:none;color-rendering:auto;image-rendering:auto;shape-rendering:auto;text-rendering:auto;enable-background:accumulate"
       d="m 420.29958,269.20898 c -14.57999,0 -26.44411,11.86412 -26.44411,26.44411 0,14.57999 11.86412,26.44066 26.44411,26.44066 14.57999,0 26.44064,-11.86067 26.44064,-26.44066 0,-14.57999 -11.86065,-26.44411 -26.44064,-26.44411 z m -1.94935,3.99549 v 8.06353 a 1.947625,1.947625 0 0 0 3.89525,0 v -8.06353 c 10.91455,0.93027 19.56769,9.58488 20.49927,20.49927 h -8.06353 a 1.947625,1.947625 0 1 0 0,3.89525 h 8.06353 c -0.93008,10.91572 -9.58357,19.56921 -20.49927,20.49929 v -8.06354 a 1.9467797,1.9467797 0 0 0 -1.97701,-1.97355 1.9467797,1.9467797 0 0 0 -1.91824,1.97355 v 8.06354 c -10.91441,-0.9316 -19.569,-9.5847 -20.49929,-20.49929 h 8.06354 a 1.947625,1.947625 0 1 0 0,-3.89525 h -8.06354 c 0.93181,-10.91326 9.58601,-19.56748 20.49929,-20.49927 z"
       id="path6151"
       inkscape:connector-curvature="0" />
    <path
       inkscape:connector-curvature="0"
       id="path6102"
       d="m 420.29958,269.20898 c -14.57999,0 -26.44411,11.86412 -26.44411,26.44411 0,14.57999 11.86412,26.44066 26.44411,26.44066 14.57999,0 26.44064,-11.86067 26.44064,-26.44066 0,-14.57999 -11.86065,-26.44411 -26.44064,-26.44411 z m -1.94935,3.99549 v 8.06353 a 1.947625,1.947625 0 0 0 3.89525,0 v -8.06353 c 10.91455,0.93027 19.56769,9.58488 20.49927,20.49927 h -8.06353 a 1.947625,1.947625 0 1 0 0,3.89525 h 8.06353 c -0.93008,10.91572 -9.58357,19.56921 -20.49927,20.49929 v -8.06354 a 1.9467797,1.9467797 0 0 0 -1.97701,-1.97355 1.9467797,1.9467797 0 0 0 -1.91824,1.97355 v 8.06354 c -10.91441,-0.9316 -19.569,-9.5847 -20.49929,-20.49929 h 8.06354 a 1.947625,1.947625 0 1 0 0,-3.89525 h -8.06354 c 0.93181,-10.91326 9.58601,-19.56748 20.49929,-20.49927 z"
       style="color:#000000;font-style:normal;font-variant:normal;font-weight:normal;font-stretch:normal;font-size:medium;line-height:normal;font-family:sans-serif;font-variant-ligatures:normal;font-variant-position:normal;font-variant-caps:normal;font-variant-numeric:normal;font-variant-alternates:normal;font-feature-settings:normal;text-indent:0;text-align:start;text-decoration:none;text-decoration-line:none;text-decoration-style:solid;text-decoration-color:#000000;letter-spacing:normal;word-spacing:normal;text-transform:none;writing-mode:lr-tb;direction:ltr;text-orientation:mixed;dominant-baseline:auto;baseline-shift:baseline;text-anchor:start;white-space:normal;shape-padding:0;clip-rule:nonzero;display:inline;overflow:visible;visibility:visible;opacity:1;isolation:auto;mix-blend-mode:normal;color-interpolation:sRGB;color-interpolation-filters:linearRGB;solid-color:#000000;solid-opacity:1;vector-effect:none;fill:#000000;fill-opacity:1;fill-rule:nonzero;stroke:none;stroke-width:3.89317012;stroke-linecap:round;stroke-linejoin:round;stroke-miterlimit:4;stroke-dasharray:none;stroke-dashoffset:0;stroke-opacity:1;marker:none;color-rendering:auto;image-rendering:auto;shape-rendering:auto;text-rendering:auto;enable-background:accumulate" />
  </g>
  <path
     style="opacity:0.76000001;fill:#ffffff;stroke:#000000;stroke-width:3.09872627px;stroke-linecap:butt;stroke-linejoin:round;stroke-opacity:1"
     id="p3329-5"
     d="m 412.92495,377.57971 c 0.36067,-0.99424 1.75531,-4.94921 1.75531,-4.94921 0,0 -9.54362,-16.40876 -7.68118,-23.88499 1.86246,-7.47627 7.4504,-22.06896 7.4504,-22.06896 0,0 0.36866,-0.8532 0.60497,-4.28081 -2.81591,-5.89634 11.64183,-9.51562 12.22994,3.01394 -1.89658,8.33236 -2.12737,9.07762 -3.4274,12.55369 -0.4554,1.25597 12.19425,-33.78994 13.89764,-38.32376 2.03062,-5.46828 14.25563,-1.87243 11.85405,4.59478 -1.08765,3.43467 -12.99308,35.82933 -12.99308,35.82933 0,0 13.68649,-36.58871 15.4435,-41.32013 1.757,-4.73142 12.60843,-0.59845 11.13836,4.21737 -1.45263,4.82212 -14.40727,38.41894 -14.40727,38.41894 0,0 10.16003,-26.16442 12.21733,-31.70452 2.05729,-5.5401 14.00286,-0.94641 11.79516,4.99868 -2.73122,7.47701 -12.77607,33.8202 -12.77607,33.8202 0,0 5.81767,-15.78822 10.52192,-27.56307 1.09153,-3.01037 8.04088,-1.93201 7.40437,4.83649 -0.992,5.83789 -15.56028,43.3617 -15.56028,43.3617 0,0 -2.31537,6.16723 -10.24291,10.33873 -4.16827,6.54138 -5.65331,10.58199 -5.65331,10.58199 l -33.57157,-12.46988 z"
     inkscape:connector-curvature="0"
     sodipodi:nodetypes="ccsccccccczcczccccccccc" />
</svg>
