<?xml version="1.0" encoding="UTF-8" standalone="no"?>
<svg
   xmlns:dc="http://purl.org/dc/elements/1.1/"
   xmlns:cc="http://creativecommons.org/ns#"
   xmlns:rdf="http://www.w3.org/1999/02/22-rdf-syntax-ns#"
   xmlns:svg="http://www.w3.org/2000/svg"
   xmlns="http://www.w3.org/2000/svg"
   width="100%"
   height="100%"
   version="1.1"
   id="svg2"
   viewBox="0 0 480 480">
  <defs
     id="defs4" />
  <metadata
     id="metadata7">
    <rdf:RDF>
      <cc:Work
         rdf:about="">
        <dc:format>image/svg+xml</dc:format>
        <dc:type
           rdf:resource="http://purl.org/dc/dcmitype/StillImage" />
        <dc:title></dc:title>
      </cc:Work>
    </rdf:RDF>
  </metadata>
  <g
     id="layer1">
    <path
       id="rect3336"
       d="M 132.89648 15.048828 L 113.05469 34.890625 L 113.05469 114.82031 C 113.05469 119.42717 116.76228 123.13477 121.36914 123.13477 L 448.08008 123.13477 C 452.68694 123.13477 456.39453 119.42717 456.39453 114.82031 L 456.39453 23.365234 C 456.39453 18.758373 452.68694 15.048828 448.08008 15.048828 L 132.89648 15.048828 z "
       style="color:#000000;clip-rule:nonzero;display:inline;overflow:visible;visibility:visible;opacity:1;isolation:auto;mix-blend-mode:normal;color-interpolation:sRGB;color-interpolation-filters:linearRGB;solid-color:#000000;solid-opacity:1;fill:none;fill-opacity:1;fill-rule:nonzero;stroke:#000000;stroke-width:2;stroke-linecap:butt;stroke-linejoin:miter;stroke-miterlimit:4;stroke-dasharray:none;stroke-dashoffset:0;stroke-opacity:1;marker:none;marker-start:none;marker-mid:none;marker-end:none;color-rendering:auto;image-rendering:auto;shape-rendering:auto;text-rendering:auto;enable-background:accumulate" />
    <text
       id="text4138"
       y="47.374119"
       x="244.93655"
       style="font-style:normal;font-variant:normal;font-weight:normal;font-stretch:condensed;font-size:22.5px;line-height:125%;font-family:Impact;-inkscape-font-specification:'Impact Condensed';letter-spacing:0px;word-spacing:0px;fill:#000000;fill-opacity:1;stroke:none;stroke-width:1px;stroke-linecap:butt;stroke-linejoin:miter;stroke-opacity:1"
       xml:space="preserve"><tspan
         y="47.374119"
         x="244.93655"
         id="tspan4140">&lt;RDF&gt;</tspan><tspan
         id="tspan4144"
         y="75.499115"
         x="244.93655">  &lt;![CDATA[...json...]]&gt;</tspan><tspan
         id="tspan4146"
         y="103.62411"
         x="244.93655">&lt;/RDF&gt;</tspan><tspan
         id="tspan4142"
         y="131.74911"
         x="244.93655" /></text>
    <text
       id="text4148"
       y="210.75626"
       x="267.12503"
       style="color:#000000;font-style:normal;font-variant:normal;font-weight:normal;font-stretch:condensed;font-size:22.5px;line-height:125%;font-family:Impact;-inkscape-font-specification:'Impact Condensed';text-indent:0;text-align:start;text-decoration:none;text-decoration-line:none;text-decoration-style:solid;text-decoration-color:#000000;letter-spacing:0px;word-spacing:0px;text-transform:none;direction:ltr;block-progression:tb;writing-mode:lr-tb;baseline-shift:baseline;text-anchor:start;white-space:normal;clip-rule:nonzero;display:inline;overflow:visible;visibility:visible;opacity:1;isolation:auto;mix-blend-mode:normal;color-interpolation:sRGB;color-interpolation-filters:linearRGB;solid-color:#000000;solid-opacity:1;fill:#000000;fill-opacity:1;fill-rule:nonzero;stroke:none;stroke-width:1px;stroke-linecap:butt;stroke-linejoin:miter;stroke-miterlimit:4;stroke-dasharray:none;stroke-dashoffset:0;stroke-opacity:1;color-rendering:auto;image-rendering:auto;shape-rendering:auto;text-rendering:auto;enable-background:accumulate"
       xml:space="preserve"><tspan
         y="210.75626"
         x="267.12503"
         id="tspan4150">API PHP</tspan></text>
    <rect
       ry="8.31563"
       rx="8.31563"
       y="173.99178"
       x="220.69287"
       height="84.487534"
       width="243.05939"
       id="rect4174"
       style="color:#000000;clip-rule:nonzero;display:inline;overflow:visible;visibility:visible;opacity:1;isolation:auto;mix-blend-mode:normal;color-interpolation:sRGB;color-interpolation-filters:linearRGB;solid-color:#000000;solid-opacity:1;fill:none;fill-opacity:1;fill-rule:nonzero;stroke:#000000;stroke-width:2;stroke-linecap:butt;stroke-linejoin:miter;stroke-miterlimit:4;stroke-dasharray:none;stroke-dashoffset:0;stroke-opacity:1;marker:none;marker-start:none;marker-mid:none;marker-end:none;color-rendering:auto;image-rendering:auto;shape-rendering:auto;text-rendering:auto;enable-background:accumulate" />
    <ellipse
       ry="18.228889"
       rx="44.678646"
       cy="211.43713"
       cx="111.22525"
       id="path4196"
       style="color:#000000;clip-rule:nonzero;display:inline;overflow:visible;visibility:visible;opacity:1;isolation:auto;mix-blend-mode:normal;color-interpolation:sRGB;color-interpolation-filters:linearRGB;solid-color:#000000;solid-opacity:1;fill:none;fill-opacity:1;fill-rule:nonzero;stroke:#000000;stroke-width:2;stroke-linecap:butt;stroke-linejoin:miter;stroke-miterlimit:4;stroke-dasharray:none;stroke-dashoffset:0;stroke-opacity:1;marker:none;marker-start:none;marker-mid:none;marker-end:none;color-rendering:auto;image-rendering:auto;shape-rendering:auto;text-rendering:auto;enable-background:accumulate;filter-blend-mode:normal;filter-gaussianBlur-deviation:0" />
    <path
       id="ellipse4198"
       d="m 66.380298,211.49613 -6.4e-5,-2e-5 0,9.5605 c 0,0.53399 0.07662,1.0486 0.208709,1.53975 0.664885,9.86455 20.448994,17.72209 44.635967,17.72778 24.676,4e-5 44.67966,-8.16171 44.67882,-18.22951 -0.007,-0.32875 -0.0354,-0.65737 -0.0857,-0.98549 1.5e-4,-0.0177 0.003,-0.0348 0.003,-0.0525 l 0,-9.5605"
       style="color:#000000;clip-rule:nonzero;display:inline;overflow:visible;visibility:visible;opacity:1;isolation:auto;mix-blend-mode:normal;color-interpolation:sRGB;color-interpolation-filters:linearRGB;solid-color:#000000;solid-opacity:1;fill:none;fill-opacity:1;fill-rule:nonzero;stroke:#000000;stroke-width:2;stroke-linecap:butt;stroke-linejoin:miter;stroke-miterlimit:4;stroke-dasharray:none;stroke-dashoffset:0;stroke-opacity:1;marker:none;marker-start:none;marker-mid:none;marker-end:none;color-rendering:auto;image-rendering:auto;shape-rendering:auto;text-rendering:auto;enable-background:accumulate;filter-blend-mode:normal;filter-gaussianBlur-deviation:0" />
    <path
       style="color:#000000;clip-rule:nonzero;display:inline;overflow:visible;visibility:visible;opacity:1;isolation:auto;mix-blend-mode:normal;color-interpolation:sRGB;color-interpolation-filters:linearRGB;solid-color:#000000;solid-opacity:1;fill:none;fill-opacity:1;fill-rule:nonzero;stroke:#000000;stroke-width:2;stroke-linecap:butt;stroke-linejoin:miter;stroke-miterlimit:4;stroke-dasharray:none;stroke-dashoffset:0;stroke-opacity:1;marker:none;marker-start:none;marker-mid:none;marker-end:none;color-rendering:auto;image-rendering:auto;shape-rendering:auto;text-rendering:auto;enable-background:accumulate;filter-blend-mode:normal;filter-gaussianBlur-deviation:0"
       d="m 66.380298,222.09986 -6.4e-5,-1e-5 0,9.5605 c 0,0.53399 0.07662,1.04859 0.208709,1.53974 0.664885,9.86455 20.448994,17.72209 44.635967,17.72778 24.676,4e-5 44.67966,-8.1617 44.67882,-18.22951 -0.007,-0.32875 -0.0354,-0.65737 -0.0857,-0.98549 1.5e-4,-0.0177 0.003,-0.0348 0.003,-0.0525 l 0,-9.5605"
       id="path4210" />
    <path
       style="color:#000000;clip-rule:nonzero;display:inline;overflow:visible;visibility:visible;opacity:1;isolation:auto;mix-blend-mode:normal;color-interpolation:sRGB;color-interpolation-filters:linearRGB;solid-color:#000000;solid-opacity:1;fill:none;fill-opacity:1;fill-rule:nonzero;stroke:#000000;stroke-width:2;stroke-linecap:butt;stroke-linejoin:miter;stroke-miterlimit:4;stroke-dasharray:none;stroke-dashoffset:0;stroke-opacity:1;marker:none;marker-start:none;marker-mid:none;marker-end:none;color-rendering:auto;image-rendering:auto;shape-rendering:auto;text-rendering:auto;enable-background:accumulate;filter-blend-mode:normal;filter-gaussianBlur-deviation:0"
       d="m 66.380298,232.47308 -6.4e-5,-2e-5 0,9.5605 c 0,0.53399 0.07662,1.0486 0.208709,1.53975 0.664885,9.86455 20.448994,17.72208 44.635967,17.72778 24.676,4e-5 44.67966,-8.16171 44.67882,-18.22951 -0.007,-0.32875 -0.0354,-0.65737 -0.0857,-0.98549 1.5e-4,-0.0177 0.003,-0.0348 0.003,-0.0525 l 0,-9.5605"
       id="path4214" />
    <path
       id="path4216"
       d="m 66.380298,243.07681 -6.4e-5,-2e-5 0,9.56051 c 0,0.53399 0.07662,1.04859 0.208709,1.53974 0.664885,9.86455 20.448994,17.72209 44.635967,17.72778 24.676,4e-5 44.67966,-8.1617 44.67882,-18.22951 -0.007,-0.32875 -0.0354,-0.65737 -0.0857,-0.98549 1.5e-4,-0.0177 0.003,-0.0348 0.003,-0.0525 l 0,-9.5605"
       style="color:#000000;clip-rule:nonzero;display:inline;overflow:visible;visibility:visible;opacity:1;isolation:auto;mix-blend-mode:normal;color-interpolation:sRGB;color-interpolation-filters:linearRGB;solid-color:#000000;solid-opacity:1;fill:none;fill-opacity:1;fill-rule:nonzero;stroke:#000000;stroke-width:2;stroke-linecap:butt;stroke-linejoin:miter;stroke-miterlimit:4;stroke-dasharray:none;stroke-dashoffset:0;stroke-opacity:1;marker:none;marker-start:none;marker-mid:none;marker-end:none;color-rendering:auto;image-rendering:auto;shape-rendering:auto;text-rendering:auto;enable-background:accumulate;filter-blend-mode:normal;filter-gaussianBlur-deviation:0" />
    <text
       id="text4232"
       y="173.02306"
       x="76.617142"
       style="color:#000000;font-style:normal;font-variant:normal;font-weight:normal;font-stretch:condensed;font-size:22.5px;line-height:125%;font-family:Impact;-inkscape-font-specification:'Impact Condensed';text-indent:0;text-align:start;text-decoration:none;text-decoration-line:none;text-decoration-style:solid;text-decoration-color:#000000;letter-spacing:0px;word-spacing:0px;text-transform:none;direction:ltr;block-progression:tb;writing-mode:lr-tb;baseline-shift:baseline;text-anchor:start;white-space:normal;clip-rule:nonzero;display:inline;overflow:visible;visibility:visible;opacity:1;isolation:auto;mix-blend-mode:normal;color-interpolation:sRGB;color-interpolation-filters:linearRGB;solid-color:#000000;solid-opacity:1;fill:#000000;fill-opacity:1;fill-rule:nonzero;stroke:none;stroke-width:1px;stroke-linecap:butt;stroke-linejoin:miter;stroke-miterlimit:4;stroke-dasharray:none;stroke-dashoffset:0;stroke-opacity:1;color-rendering:auto;image-rendering:auto;shape-rendering:auto;text-rendering:auto;enable-background:accumulate"
       xml:space="preserve"><tspan
         y="173.02306"
         x="76.617142"
         id="tspan4234">mySQL</tspan></text>
    <path
       id="path4266"
       d="m 243.98316,123.24657 0,65.66014 c 0,11.67292 1.0892,30.01567 -17.32955,30.01567 l -34.85431,0"
       style="color:#000000;clip-rule:nonzero;display:inline;overflow:visible;visibility:visible;opacity:1;isolation:auto;mix-blend-mode:normal;color-interpolation:sRGB;color-interpolation-filters:linearRGB;solid-color:#000000;solid-opacity:1;fill:none;fill-opacity:1;fill-rule:nonzero;stroke:#000000;stroke-width:2;stroke-linecap:butt;stroke-linejoin:miter;stroke-miterlimit:4;stroke-dasharray:none;stroke-dashoffset:0;stroke-opacity:1;marker:none;marker-start:none;marker-mid:none;marker-end:none;color-rendering:auto;image-rendering:auto;shape-rendering:auto;text-rendering:auto;enable-background:accumulate" />
    <path
       style="color:#000000;clip-rule:nonzero;display:inline;overflow:visible;visibility:visible;opacity:1;isolation:auto;mix-blend-mode:normal;color-interpolation:sRGB;color-interpolation-filters:linearRGB;solid-color:#000000;solid-opacity:1;fill:none;fill-opacity:1;fill-rule:nonzero;stroke:#000000;stroke-width:2;stroke-linecap:butt;stroke-linejoin:miter;stroke-miterlimit:4;stroke-dasharray:none;stroke-dashoffset:0;stroke-opacity:1;marker:none;marker-start:none;marker-mid:none;marker-end:none;color-rendering:auto;image-rendering:auto;shape-rendering:auto;text-rendering:auto;enable-background:accumulate"
       d="m 179.08012,240.76327 52.53633,0 c 11.67292,0 30.01567,-1.0892 30.01567,17.32955 l 0,81.20528"
       id="path4282" />
    <text
       id="text4148-8"
       y="374.58109"
       x="51.819927"
       style="color:#000000;font-style:normal;font-variant:normal;font-weight:normal;font-stretch:condensed;font-size:22.5px;line-height:125%;font-family:Impact;-inkscape-font-specification:'Impact Condensed';text-indent:0;text-align:start;text-decoration:none;text-decoration-line:none;text-decoration-style:solid;text-decoration-color:#000000;letter-spacing:0px;word-spacing:0px;text-transform:none;direction:ltr;block-progression:tb;writing-mode:lr-tb;baseline-shift:baseline;text-anchor:start;white-space:normal;clip-rule:nonzero;display:inline;overflow:visible;visibility:visible;opacity:1;isolation:auto;mix-blend-mode:normal;color-interpolation:sRGB;color-interpolation-filters:linearRGB;solid-color:#000000;solid-opacity:1;fill:#000000;fill-opacity:1;fill-rule:nonzero;stroke:none;stroke-width:1px;stroke-linecap:butt;stroke-linejoin:miter;stroke-miterlimit:4;stroke-dasharray:none;stroke-dashoffset:0;stroke-opacity:1;color-rendering:auto;image-rendering:auto;shape-rendering:auto;text-rendering:auto;enable-background:accumulate"
       xml:space="preserve"><tspan
         y="374.58109"
         x="51.819927"
         id="tspan4150-7">Javascript</tspan><tspan
         id="tspan4309"
         y="402.70609"
         x="51.819927">CSS SVG</tspan></text>
    <rect
       ry="8.31563"
       rx="8.31563"
       y="351.54626"
       x="33.218582"
       height="56.568542"
       width="130.30968"
       id="rect4174-5"
       style="color:#000000;clip-rule:nonzero;display:inline;overflow:visible;visibility:visible;opacity:1;isolation:auto;mix-blend-mode:normal;color-interpolation:sRGB;color-interpolation-filters:linearRGB;solid-color:#000000;solid-opacity:1;fill:none;fill-opacity:1;fill-rule:nonzero;stroke:#000000;stroke-width:2;stroke-linecap:butt;stroke-linejoin:miter;stroke-miterlimit:4;stroke-dasharray:none;stroke-dashoffset:0;stroke-opacity:1;marker:none;marker-start:none;marker-mid:none;marker-end:none;color-rendering:auto;image-rendering:auto;shape-rendering:auto;text-rendering:auto;enable-background:accumulate" />
    <rect
       ry="0"
       rx="0"
       y="144.47299"
       x="40.583462"
       height="151.4198"
       width="138.54248"
       id="rect4305"
       style="color:#000000;clip-rule:nonzero;display:inline;overflow:visible;visibility:visible;opacity:1;isolation:auto;mix-blend-mode:normal;color-interpolation:sRGB;color-interpolation-filters:linearRGB;solid-color:#000000;solid-opacity:1;fill:none;fill-opacity:1;fill-rule:nonzero;stroke:#000000;stroke-width:2;stroke-linecap:butt;stroke-linejoin:miter;stroke-miterlimit:4;stroke-dasharray:none;stroke-dashoffset:0;stroke-opacity:1;marker:none;marker-start:none;marker-mid:none;marker-end:none;color-rendering:auto;image-rendering:auto;shape-rendering:auto;text-rendering:auto;enable-background:accumulate" />
    <text
       xml:space="preserve"
       style="color:#000000;font-style:normal;font-variant:normal;font-weight:normal;font-stretch:condensed;font-size:22.5px;line-height:125%;font-family:Impact;-inkscape-font-specification:'Impact Condensed';text-indent:0;text-align:start;text-decoration:none;text-decoration-line:none;text-decoration-style:solid;text-decoration-color:#000000;letter-spacing:0px;word-spacing:0px;text-transform:none;direction:ltr;block-progression:tb;writing-mode:lr-tb;baseline-shift:baseline;text-anchor:start;white-space:normal;clip-rule:nonzero;display:inline;overflow:visible;visibility:visible;opacity:1;isolation:auto;mix-blend-mode:normal;color-interpolation:sRGB;color-interpolation-filters:linearRGB;solid-color:#000000;solid-opacity:1;fill:#000000;fill-opacity:1;fill-rule:nonzero;stroke:none;stroke-width:1px;stroke-linecap:butt;stroke-linejoin:miter;stroke-miterlimit:4;stroke-dasharray:none;stroke-dashoffset:0;stroke-opacity:1;color-rendering:auto;image-rendering:auto;shape-rendering:auto;text-rendering:auto;enable-background:accumulate"
       x="234.53656"
       y="384.1387"
       id="text4313"><tspan
         x="234.53656"
         y="384.1387"
         id="tspan4317">Json</tspan></text>
    <rect
       style="color:#000000;clip-rule:nonzero;display:inline;overflow:visible;visibility:visible;opacity:1;isolation:auto;mix-blend-mode:normal;color-interpolation:sRGB;color-interpolation-filters:linearRGB;solid-color:#000000;solid-opacity:1;fill:none;fill-opacity:1;fill-rule:nonzero;stroke:#000000;stroke-width:2;stroke-linecap:butt;stroke-linejoin:miter;stroke-miterlimit:4;stroke-dasharray:none;stroke-dashoffset:0;stroke-opacity:1;marker:none;marker-start:none;marker-mid:none;marker-end:none;color-rendering:auto;image-rendering:auto;shape-rendering:auto;text-rendering:auto;enable-background:accumulate"
       id="rect4319"
       width="130.30968"
       height="56.568542"
       x="194.34196"
       y="351.54626"
       rx="8.31563"
       ry="8.31563" />
    <rect
       ry="8.31563"
       rx="8.31563"
       y="325.33389"
       x="12.324997"
       height="117.45047"
       width="455.32114"
       id="rect4323"
       style="color:#000000;clip-rule:nonzero;display:inline;overflow:visible;visibility:visible;opacity:1;isolation:auto;mix-blend-mode:normal;color-interpolation:sRGB;color-interpolation-filters:linearRGB;solid-color:#000000;solid-opacity:1;fill:none;fill-opacity:1;fill-rule:nonzero;stroke:#000000;stroke-width:2;stroke-linecap:butt;stroke-linejoin:miter;stroke-miterlimit:4;stroke-dasharray:none;stroke-dashoffset:0;stroke-opacity:1;marker:none;marker-start:none;marker-mid:none;marker-end:none;color-rendering:auto;image-rendering:auto;shape-rendering:auto;text-rendering:auto;enable-background:accumulate" />
    <path
       d="m 197.14677,32.134904 c -17.64549,0.0341 -35.30804,0 -52.95352,0.0853 -2.64512,-0.0341 -4.24926,2.57685 -3.89088,5.00012 -0.0171,14.07884 -0.1024,28.17476 -0.1024,42.253603 0.42664,2.73044 3.12295,4.06153 5.68274,3.6861 5.88751,0 11.77503,-0.0171 17.66255,-0.0171 0.27304,1.58707 -1.38229,2.23555 -2.23555,3.27653 -1.55294,1.48468 -3.14001,2.96936 -4.69295,4.4711 -1.70653,3.03762 2.11609,4.14686 4.43697,3.72023 7.25274,-0.0683 14.52254,0.0171 21.77528,-0.15358 2.91816,-0.80207 2.11609,-4.19806 0.0341,-5.39263 -1.55294,-1.6212 -3.43012,-3.08881 -4.8124,-4.8124 -0.80207,-1.74066 1.34815,-0.95566 2.38913,-1.12631 5.78513,-0.0171 11.57025,0.0171 17.35538,-0.0512 2.83283,-0.22185 3.44718,-3.37892 3.17414,-5.682733 0.0512,-13.99352 0.20478,-27.98704 0.18772,-41.98056 -0.0512,-2.20142 -2.04783,-3.31066 -4.06154,-3.2424 z m -0.0341,1.1775 c 2.74751,-0.40956 3.17414,2.33795 2.93523,4.36871 -0.1024,13.99352 -0.0853,27.98704 -0.27305,41.980563 -0.20478,2.66218 -3.14001,2.18435 -5.03425,2.20142 -16.92875,0 -33.85749,0.0853 -50.78624,0.0512 -2.44033,-0.3413 -2.74751,-3.14001 -2.55979,-5.136643 0.0341,-13.63515 0.0683,-27.2703 0.11946,-40.90545 0.25598,-2.91816 3.61784,-2.52566 5.76806,-2.52566 16.6045,-0.0171 33.22607,-0.0171 49.83058,-0.0341 z m -0.52902,0.40957 c -17.37245,0.0512 -34.76195,0.0683 -52.15146,0.11946 -2.49153,-0.0683 -2.59392,2.57685 -2.4574,4.38577 -0.0171,10.58047 -0.15359,21.16093 -0.11946,31.75846 0.13653,2.30381 2.57686,2.47447 4.35165,2.30381 16.97994,0.0341 34.01108,0.0341 50.99102,0.10239 2.64511,0.0683 2.52566,-2.86696 2.44033,-4.74414 -1e-4,-10.59753 0.0341,-21.21213 0,-31.80966 -0.15359,-1.50174 -1.70653,-2.21848 -3.05468,-2.13316 z m 0,0.73381 c 2.44033,-0.32424 2.47446,2.21848 2.33794,3.92501 -0.0341,10.64872 0.0341,21.31452 -0.0853,31.96324 -0.58022,2.0649 -3.10588,1.04098 -4.71001,1.2799 -16.67277,-0.0171 -33.3626,-0.0512 -50.05243,-0.0683 -2.20142,-0.63142 -1.31403,-3.2936 -1.48468,-5.01719 0.0512,-10.15384 0.10239,-20.30767 0.15359,-30.4615 0.49489,-2.21849 3.2424,-1.24577 4.9148,-1.46762 7.62817,-0.0171 15.25634,-0.0341 22.88452,-0.0512 -0.46076,1.36522 0.0853,1.77479 -1.79185,1.51881 -8.07188,0 -16.17788,-0.0683 -24.23268,-6.9e-4 -0.52903,0.76794 0,1.97958 -0.18772,2.9011 0,10.1709 -0.10239,20.35886 -0.0171,30.5127 0.76794,0.52902 1.97957,0 2.88403,0.18771 16.55331,-0.0171 33.14075,0.0341 49.69406,-0.0171 0.59729,-0.59728 0.0171,-1.74066 0.22185,-2.50859 -0.0171,-10.2733 0.0512,-20.56365 -0.0341,-30.81988 -0.76794,-0.52902 -1.97957,0 -2.88403,-0.18771 -7.55991,0 -15.13689,-0.0171 -22.71387,-0.0341 0.42663,-1.38228 -0.13652,-1.75772 1.75772,-1.53587 7.78176,-0.0171 15.58059,-0.0171 23.37942,-0.0683 z m -25.5979,0.75087 c 0.63141,0.18772 -0.63142,0.18772 0,0 z m -25.92215,1.53587 c 17.0994,0.0171 34.1988,0.0512 51.2982,0.0683 0,10.68286 0,21.38278 0,32.08271 -17.11647,0 -34.24999,0 -51.38352,0 0.0171,-10.71699 0.0512,-21.43398 0.0683,-32.16803 z m 26.4853,36.92924 c -5.17078,0.0171 -2.66218,8.617963 1.6724,5.682733 2.44033,-1.55294 1.26283,-5.768063 -1.6724,-5.682733 z m 0,0.75087 c 3.94208,0 1.99664,6.501873 -1.2799,4.266323 -1.86011,-1.1775 -0.92152,-4.351643 1.2799,-4.266323 z m 5.13664,8.703293 c 0.13653,1.00685 0.0853,2.16729 1.14338,2.71338 1.86011,1.82598 3.80555,3.61783 5.6486,5.49501 -1.94544,1.07511 -4.33458,0.4437 -6.50187,0.64848 -5.97284,0.0683 -11.96275,0.13652 -17.93559,0.20478 -2.78164,-0.17065 -0.0171,-1.82598 0.75087,-2.71337 1.57,-1.60414 3.41305,-3.02056 4.82947,-4.74415 -0.23891,-1.50174 0.51196,-1.87718 1.89425,-1.6212 3.37892,0 6.75784,0 10.15383,-0.0171 z m 6.94557,9.07872 c -0.71674,1.82598 -2.98642,0.90446 -4.50523,1.14337 -6.86024,0 -13.73754,0.0853 -20.59778,0.0512 -2.73044,-1.50174 1.21163,-0.0512 2.44033,-0.47783 7.03089,-0.0853 14.07885,-0.11946 21.10974,-0.25598 0.52902,-0.0512 1.09218,-0.17065 1.55294,-0.46076 z m 13.0208,3.92501 c -17.20179,0.10239 -34.42065,0.10239 -51.6395,0.27305 -1.65533,0.88739 -2.23555,2.91816 -3.41305,4.334573 -0.95566,1.58707 -2.21849,3.07175 -3.00349,4.74415 -0.18772,1.19457 0.52902,2.61098 1.89424,2.4062 20.11995,0 40.2399,-0.0171 60.35985,-0.0171 1.46762,-0.0853 1.45055,-1.82599 1.31403,-2.9011 -1.80892,-2.8499 -2.81577,-6.399483 -5.22197,-8.754483 -0.0853,-0.0341 -0.18772,-0.0683 -0.29011,-0.0683 z m -0.18772,1.1775 c 1.87718,2.38914 2.98642,5.426763 4.57349,8.071883 -0.40957,1.05804 -2.25261,0.30717 -3.2936,0.54608 -19.18136,0 -38.36272,0.11946 -57.54408,0.0683 -0.75087,-0.92153 1.09218,-2.13316 1.45055,-3.19121 1.19457,-1.70653 2.23555,-3.583713 3.54958,-5.204913 17.06526,-0.17065 34.16466,-0.17065 51.24699,-0.27304 z m -17.59429,0.71675 c -10.85351,0.10239 -21.74115,0.10239 -32.59466,0.29011 -1.46761,2.081963 -3.00349,4.232183 -4.31751,6.416543 0.25598,0.81913 1.51881,0.13652 2.15022,0.35837 11.8433,-0.0683 23.72072,-0.0171 35.56402,-0.15359 0.52902,-0.64848 -0.13653,-1.72359 -0.0171,-2.52566 -0.23891,-1.39935 -0.0853,-2.969363 -0.52902,-4.300453 -0.0683,-0.0512 -0.15359,-0.0853 -0.23892,-0.0683 z m 7.04795,0 c -1.92837,0.10239 -3.94207,-0.0341 -5.83632,0.20478 -0.35837,0.87033 0.32424,1.945443 0.30718,2.866963 0.0341,1.09218 1.53587,0.37544 2.18435,0.56316 1.41642,-0.10239 2.96936,0.18772 4.33458,-0.10239 0.27304,-0.8874 -0.47783,-1.911313 -0.52902,-2.849903 -0.0512,-0.25598 -0.0853,-0.71674 -0.47783,-0.69968 z m 1.80892,0 c -0.8362,0.30717 0.13652,1.41641 0.11946,1.996633 0.54609,1.55294 0.8362,3.27653 1.51881,4.76121 3.14001,0.10239 6.34828,0.0683 9.50535,0 0.58022,-0.64848 -0.56315,-1.55294 -0.63141,-2.28674 -0.73381,-1.45055 -1.17751,-3.157083 -2.08197,-4.471103 -2.7987,-0.0512 -5.63153,0 -8.43024,-0.0171 z m -9.19818,0.75087 c 0.17066,1.808923 0.34131,3.634903 0.52903,5.443823 -11.99689,0.0341 -24.01083,0.0683 -36.02478,0.11945 1.21163,-1.77478 2.42327,-3.56664 3.6349,-5.341423 10.6146,-0.0683 21.22919,-0.15359 31.86085,-0.22185 z m 9.74427,0 c 2.5086,0 5.01719,0 7.52578,0 0.76794,1.774793 1.55294,3.549573 2.33795,5.341433 -2.74751,0 -5.51209,0 -8.27666,0 -0.52902,-1.77479 -1.05805,-3.54958 -1.58707,-5.341433 z m -2.61098,0 c 0.30717,1.1775 1.07511,2.713383 -0.8362,2.150223 -1.21164,0 -2.44034,0 -3.65197,0 -0.3925,-1.348153 -0.59728,-2.559793 1.21163,-2.099033 1.09218,-0.0171 2.18436,-0.0341 3.27654,-0.0512 z m 1.00685,3.122943 c -1.96251,0.10239 -4.01034,-0.0341 -5.95578,0.20478 -0.34131,0.75088 0.23891,1.74066 0.29011,2.55979 0.80206,0.47783 1.97957,-0.0341 2.90109,0.11946 1.19457,-0.13652 2.52566,0.15359 3.65197,-0.17065 0.25598,-0.80207 -0.46076,-1.74066 -0.59728,-2.55979 -0.0683,-0.0853 -0.17066,-0.13652 -0.29011,-0.11946 z m -0.25598,0.75087 c 1.07511,1.7236 -0.76794,1.29696 -1.97957,1.34816 -0.93859,-0.27304 -2.96936,0.785 -2.91816,-0.71674 -0.13653,-1.14337 2.15022,-0.29011 3.05468,-0.59729 0.61435,0 1.2287,-0.0171 1.84305,-0.0341 z m -46.55405,3.44719 c 1.75772,0.49489 3.75436,0.0683 5.59741,0.20478 18.2769,-0.0341 36.58793,-0.0512 54.86483,-0.10239 1.92837,0.37543 -1.38229,0.51196 -2.09903,0.40957 -19.31788,0 -38.65283,0.0171 -57.98778,0.0171 -0.37543,0.0512 -0.3413,-0.29011 -0.35837,-0.52902 z"
       id="path4327" />
    <g
       transform="matrix(4.2074442,0,0,4.2074442,38.97165,-25.887747)"
       id="g4353"
       style="overflow:visible">
      <path
         id="path4356"
         d="m 83.74888,85.998162 c -0.11194,0.0059 -0.215306,0.04852 -0.310746,0.12151 a 0.07183035,0.07183035 0 0 0 -0.02291,0.03087 c -1.094012,2.831258 -2.148078,5.707188 -3.240927,8.542539 -0.148273,-0.05805 -0.300528,-0.06351 -0.435244,-0.02789 -0.158779,0.04199 -0.297844,0.120975 -0.398393,0.180273 -0.07797,0.04373 -0.155088,0.07951 -0.235052,0.127486 -1.146417,0.652171 -2.216857,1.242967 -3.389328,1.890374 -1.107955,0.607589 -2.239223,1.274765 -3.374388,1.875435 -0.19634,0.104715 -0.365741,0.189723 -0.463132,0.333654 0.0086,-0.0126 0.004,-0.0051 -0.01096,0.002 -0.0085,0.0041 -0.019,0.0088 -0.03187,0.01793 -0.01287,0.0091 -0.03071,0.02387 -0.03884,0.05279 a 0.07183035,0.07183035 0 0 0 -0.003,0.01295 c -0.01877,0.198921 0.04673,0.326573 0.112546,0.44122 -9.42e-4,0.03189 -0.0032,0.05806 -9.96e-4,0.09063 l 0.04084,-0.01593 c 0.0081,0.0142 0.01765,0.03084 0.0249,0.04481 5.76e-4,0.01644 -0.0022,0.04596 -0.002,0.08167 1.15e-4,0.02026 9.66e-4,0.04208 0.01,0.06773 0.0068,0.01928 0.03068,0.03691 0.05378,0.05179 l 0,0.01494 a 0.07183035,0.07183035 0 0 0 0.0239,0.05378 c 0.01171,0.01039 0.01884,0.01498 0.01992,0.01593 7.82e-4,9.2e-4 0.0022,0.001 0.003,0.002 a 0.07183035,0.07183035 0 0 0 0.003,0.003 c 0.20459,0.23609 0.461464,0.41251 0.691212,0.59361 l 0,-0.001 c 0.100727,0.0806 0.203036,0.16943 0.30477,0.23904 0.421622,0.30991 0.819855,0.61489 1.207131,0.90535 0.815832,0.60677 1.641792,1.22338 2.421233,1.82962 1.623095,1.26581 3.264444,2.44367 4.807607,3.67617 a 0.07183035,0.07183035 0 0 0 0.0239,0.0129 c 0.17156,0.051 0.346775,0.18362 0.632448,0.14441 0.213681,-0.0255 0.389936,-0.1959 0.510939,-0.30178 l -9.96e-4,0.002 c 0.235306,-0.19438 0.469932,-0.39894 0.698183,-0.58663 0.970621,-0.78672 1.87361,-1.59244 2.820623,-2.37144 1.123293,-0.92416 2.163442,-1.85212 3.278773,-2.76883 0.146348,-0.12111 0.273838,-0.21545 0.379469,-0.33465 0.08791,-0.0992 0.152845,-0.22516 0.200193,-0.38046 0.0311,0.01 0.06415,0.0136 0.09561,0.0139 0.06559,6.6e-4 0.129663,-0.014 0.18326,-0.0408 a 0.07183035,0.07183035 0 0 0 0.01693,-0.0109 c 0.180576,-0.16929 0.258494,-0.40531 0.348594,-0.61054 0.280245,-0.647096 0.565799,-1.284277 0.841604,-1.943146 0.999016,-2.390502 2.069583,-4.782528 3.074597,-7.170076 a 0.07183035,0.07183035 0 0 0 9.97e-4,-9.97e-4 c 0.09003,-0.220069 0.227567,-0.482246 0.239036,-0.723082 a 0.07183035,0.07183035 0 0 0 0,-9.97e-4 c 0.003,-0.09678 -0.02999,-0.14974 -0.04581,-0.192225 1.11e-4,-0.0012 -6.1e-5,-0.0016 0,-0.003 1.66e-4,-0.0038 3e-5,-0.0127 0,-0.01295 -3.1e-5,-2.44e-4 -0.0039,-0.01571 -0.004,-0.01593 a 0.07183035,0.07183035 0 0 0 0,-9.97e-4 c -3.8e-5,-1.05e-4 -0.0091,-0.01569 -0.01095,-0.01892 -0.0025,-0.0131 -0.0045,-0.02792 -0.008,-0.05079 -0.0045,-0.02994 -0.0064,-0.06765 -0.04482,-0.104578 -0.0655,-0.07087 -0.164462,-0.09862 -0.278876,-0.132466 -0.116376,-0.03432 -0.247787,-0.06695 -0.362542,-0.108458 l 0,9.97e-4 c -0.225968,-0.08536 -0.464852,-0.192547 -0.670296,-0.255967 l -0.002,-9.96e-4 C 92.05234,88.821673 90.752239,88.326729 89.384107,87.882597 88.47406,87.58772 87.577196,87.236845 86.7079,86.945376 86.044345,86.725893 85.335355,86.501161 84.669124,86.262132 84.429612,86.177602 84.104096,85.995436 83.785688,86.006165 a 0.07183035,0.07183035 0 0 0 -9.96e-4,-9.97e-4 0.07183035,0.07183035 0 0 0 -0.03586,-0.007 z m 0.02789,0.249992 c 0.01481,2.37e-4 0.02526,-0.002 0.0478,0 0.176368,0.02261 0.427721,0.14704 0.6693,0.231068 1.143533,0.403299 2.269334,0.764889 3.389329,1.177251 0.128061,0.04666 0.265457,0.09075 0.394408,0.136449 a 0.07183035,0.07183035 0 0 0 -0.006,0.01892 c -0.0026,0.01572 -0.02496,0.06423 -0.01693,0.128482 a 0.07183035,0.07183035 0 0 0 0.04981,0.05976 c 0.190364,0.06011 0.379061,0.135202 0.569702,0.202184 a 0.07183035,0.07183035 0 0 0 0.09263,-0.0478 c -3.47e-4,0.0012 0.0088,-0.01409 0.02291,-0.03984 0.0088,-0.01602 0.01108,-0.04511 0.01593,-0.07071 0.970913,0.331973 1.942492,0.653882 2.937152,1.014907 a 0.07183035,0.07183035 0 0 0 9.96e-4,0 c 0.638411,0.229827 1.362193,0.474674 2.039772,0.714119 0.08208,0.02836 0.169352,0.06264 0.258954,0.09462 7.15e-4,2.58e-4 0.0013,7.65e-4 0.002,9.97e-4 0.06349,0.0249 0.111568,0.05603 0.15637,0.08964 -0.02555,0.0061 -0.05102,0.0096 -0.0747,0.0249 -0.03571,0.0231 -0.06947,0.06188 -0.07868,0.112546 a 0.07183035,0.07183035 0 0 0 0,9.96e-4 c -0.0068,0.04113 -0.0026,0.08215 0.01593,0.11653 0.01852,0.03438 0.0503,0.05798 0.08267,0.06972 0.05627,0.02041 0.113474,0.01065 0.167325,-0.01096 a 0.07183035,0.07183035 0 0 0 0.004,-9.97e-4 c 0.0031,-0.0013 0.0068,-5.61e-4 0.01,-0.002 a 0.07183035,0.07183035 0 0 0 0.01095,-0.004 0.07183035,0.07183035 0 0 0 0.01793,-0.01295 0.07183035,0.07183035 0 0 0 0.002,-0.002 0.07183035,0.07183035 0 0 0 0.002,-9.96e-4 c 0.0092,-0.0041 0.0216,-0.01299 0.03386,-0.01992 -0.0104,0.06838 -0.03011,0.143381 -0.06275,0.225092 -0.04757,0.119075 -0.109203,0.242156 -0.156368,0.34959 -0.296197,0.658827 -0.561463,1.302037 -0.841606,1.959097 -0.366554,0.865475 -0.779759,1.761922 -1.147371,2.609474 a 0.07183035,0.07183035 0 0 0 0,9.96e-4 c -0.550782,1.290258 -1.126347,2.646812 -1.687194,3.952058 -0.08555,0.201293 -0.198661,0.43131 -0.286844,0.654361 a 0.07183035,0.07183035 0 0 0 -9.96e-4,0.002 c -0.03517,0.09547 -0.08044,0.208762 -0.137446,0.303772 a 0.07183035,0.07183035 0 0 0 -0.002,0.003 c -0.01949,0.0366 -0.04763,0.0844 -0.07968,0.11554 -0.02091,0.0204 -0.04235,0.0195 -0.06374,0.0239 -0.01583,-0.0507 -0.0252,-0.12797 -0.007,-0.21912 0.0026,-0.013 0.03172,-0.0614 0.0498,-0.1225 0.009,-0.0306 0.01505,-0.0695 0.002,-0.109563 -0.01305,-0.04006 -0.04537,-0.07452 -0.08665,-0.0986 a 0.07183035,0.07183035 0 0 0 -0.004,-0.002 c -0.0515,-0.02575 -0.105302,-0.02793 -0.150394,-0.02092 -0.03457,0.0054 -0.06331,0.01464 -0.09163,0.02291 -0.6367,-0.371053 -1.302707,-0.718412 -1.951128,-1.077653 0.007,-0.02193 0.01073,-0.04426 0.008,-0.06275 -0.0057,-0.03773 -0.01471,-0.05235 -0.01693,-0.05777 0.0036,-0.01247 0.0087,-0.02207 0.007,-0.03486 a 0.07183035,0.07183035 0 0 0 -0.03585,-0.05279 c -0.0022,-0.0012 -8.43e-4,-3.93e-4 -0.002,-9.96e-4 -0.06249,-0.102652 -0.171275,-0.173744 -0.294811,-0.240032 -1.759126,-0.938201 -3.615017,-1.937452 -5.3544,-2.8505 a 0.07183035,0.07183035 0 0 0 -0.09562,0.02689 c -0.04087,0.06917 -0.06047,0.138726 -0.08765,0.173301 -0.01359,0.01728 -0.02544,0.02678 -0.04581,0.03287 -0.0097,0.0029 -0.0339,-0.002 -0.04981,-0.002 -0.0022,-0.03813 -0.0067,-0.08184 -9.96e-4,-0.102586 a 0.07183035,0.07183035 0 0 0 -0.03885,-0.08366 c -0.422337,-0.199032 -0.81537,-0.441105 -1.258921,-0.643404 0.0018,-0.01011 0.0033,-0.01848 0.005,-0.03087 0.0058,-0.04321 0.0143,-0.09948 -0.02191,-0.156369 a 0.07183035,0.07183035 0 0 0 -0.01394,-0.01494 c -0.03962,-0.03446 -0.08675,-0.05256 -0.130474,-0.0498 -0.02097,0.0013 -0.03242,0.01195 -0.0488,0.01892 0.01065,-0.04017 0.0126,-0.07642 0.02689,-0.114538 0.218261,-0.598949 0.483661,-1.211512 0.714119,-1.846551 0.713942,-1.942943 1.431552,-3.905645 2.196141,-5.878288 a 0.07183035,0.07183035 0 0 0 9.96e-4,-9.96e-4 c 0.04825,-0.128659 0.08331,-0.273683 0.138442,-0.386441 0.0072,-0.01475 0.0173,-0.02249 0.0249,-0.03585 2.41e-4,-4.25e-4 7.65e-4,-5.71e-4 9.96e-4,-9.97e-4 0.0057,0.05762 0.04111,0.114789 0.09661,0.14143 0.05722,0.02746 0.126054,0.02933 0.207164,0.01195 a 0.07183035,0.07183035 0 0 0 0.03785,-0.02191 c 0.02203,-0.02394 0.04084,-0.05219 0.04183,-0.08964 9.96e-4,-0.03745 -0.02166,-0.06828 -0.03884,-0.08366 -6.11e-4,-5.65e-4 -3.68e-4,-4.41e-4 -9.96e-4,-9.96e-4 -1.3e-4,-0.0025 0.0011,-0.0067 9.96e-4,-0.009 a 0.07183035,0.07183035 0 0 0 -0.006,-0.02191 c -0.01558,-0.03504 -0.04882,-0.04555 -0.06972,-0.05079 -2.36e-4,-0.008 -1.45e-4,-0.01709 -0.007,-0.03287 z m 0.03585,0.443212 a 0.07183035,0.07183035 0 0 0 -0.06473,0.05877 c -0.04344,0.05096 -0.07192,0.11502 -0.101591,0.190233 -0.03552,0.09005 -0.06902,0.189497 -0.0986,0.265927 a 0.07183035,0.07183035 0 0 0 0,9.96e-4 c -0.188855,0.50021 -0.377588,1.014793 -0.555758,1.478038 -0.494379,1.294559 -1.005028,2.569604 -1.49497,3.886323 -0.168618,0.45987 -0.351775,0.990131 -0.539822,1.478037 a 0.07183035,0.07183035 0 0 0 -9.96e-4,0.002 c -0.01971,0.05476 -0.06941,0.154837 -0.11155,0.254972 -0.04214,0.100134 -0.08521,0.195069 -0.06375,0.293815 0.01347,0.06441 0.05615,0.09374 0.102587,0.127485 0.0468,0.034 0.104432,0.06717 0.164337,0.0986 0.119809,0.06286 0.252716,0.121999 0.308755,0.153381 0.186018,0.103344 0.39528,0.20502 0.571693,0.300786 a 0.07183035,0.07183035 0 0 0 0,9.97e-4 c 1.146972,0.611718 2.325119,1.254012 3.422195,1.830615 a 0.07183035,0.07183035 0 0 0 9.96e-4,0 c 1.345027,0.703083 2.645113,1.43205 3.997873,2.131402 a 0.07183035,0.07183035 0 0 0 0.002,9.96e-4 c 0.03136,0.01475 0.165686,0.09222 0.297799,0.159357 0.06605,0.03356 0.133367,0.06596 0.194216,0.08864 0.06085,0.02268 0.109556,0.04215 0.172305,0.02789 a 0.07183035,0.07183035 0 0 0 0.002,0 c 0.0599,-0.01576 0.08812,-0.05819 0.11653,-0.102586 0.02841,-0.04439 0.05336,-0.09699 0.07769,-0.153382 0.04865,-0.112792 0.09265,-0.239551 0.123503,-0.310747 1.152663,-2.677649 2.279154,-5.369708 3.421199,-8.010685 0.07916,-0.183055 0.198906,-0.385692 0.210151,-0.627468 a 0.07183035,0.07183035 0 0 0 -0.02888,-0.06076 c -0.187516,-0.137831 -0.404979,-0.194686 -0.605571,-0.264893 a 0.07183035,0.07183035 0 0 0 -9.96e-4,0 c -1.482762,-0.509594 -2.904298,-1.040287 -4.394245,-1.560748 -1.443614,-0.505009 -2.937002,-1.010752 -4.394273,-1.545764 -0.236842,-0.08567 -0.510378,-0.210531 -0.730056,-0.192225 z m 0.06773,0.211148 c 0.3538,0.08508 0.880371,0.274256 1.235018,0.397397 a 0.07183035,0.07183035 0 0 0 9.96e-4,0 c 2.522948,0.856273 4.996173,1.774815 7.500742,2.657281 0.202676,0.07094 0.406427,0.147359 0.616513,0.219116 0.190774,0.06848 0.384007,0.106385 0.533847,0.200192 -0.590562,1.510737 -1.292304,2.989957 -1.917266,4.491881 -0.550381,1.330087 -1.13093,2.661028 -1.702133,3.981936 a 0.07183035,0.07183035 0 0 0 -9.97e-4,9.97e-4 c -0.0722,0.173291 -0.118146,0.339085 -0.215132,0.474087 -2.63083,-1.346973 -5.262942,-2.774078 -7.895152,-4.171173 -0.368351,-0.196454 -0.729941,-0.36547 -1.062713,-0.589622 0.930734,-2.590978 1.935241,-5.113493 2.906277,-7.662092 z m 10.926922,3.07161 c -6e-6,-1.6e-5 -2.2e-5,8.43e-4 0,9.96e-4 l -0.002,0 0.002,-9.96e-4 z m -14.979574,4.866369 c 3.32e-4,0 0.03287,0 0.0488,0 -3.64e-4,0.0028 -0.0027,0.0087 -0.003,0.01095 -0.0025,0.02021 -0.0086,0.02471 0.002,0.009 a 0.07183035,0.07183035 0 0 0 -0.003,0.006 0.07183035,0.07183035 0 0 0 -0.005,0.008 c -0.0064,0.0077 -0.01157,0.01079 -0.01793,0.02988 a 0.07183035,0.07183035 0 0 0 -0.003,0.01195 0.07183035,0.07183035 0 0 0 -9.96e-4,0.002 c -0.0068,0.0085 -0.01449,0.01272 -0.01793,0.02888 -0.0059,0.02761 0.0041,0.05446 0.01494,0.07071 a 0.07183035,0.07183035 0 0 0 0.01693,0.01793 c 0.03984,0.02988 0.06657,0.0259 0.09661,0.0259 0.03004,0 0.05577,0.004 0.09561,-0.0259 a 0.07183035,0.07183035 0 0 0 0.008,-0.007 c 0.033,-0.033 0.03385,-0.06955 0.03486,-0.09362 9.96e-4,-0.02407 5.09e-4,-0.04311 0.002,-0.05478 a 0.07183035,0.07183035 0 0 0 0,-0.006 c 0.103298,0.0375 0.216283,0.100672 0.33963,0.162345 a 0.07183035,0.07183035 0 0 0 0,9.97e-4 c 0.102398,0.05055 0.213636,0.1128 0.325686,0.171308 a 0.07183035,0.07183035 0 0 0 -0.006,-9.96e-4 c -0.04843,-0.0081 -0.09516,-9.97e-4 -0.103582,-9.97e-4 l -0.006,0 a 0.07183035,0.07183035 0 0 0 -0.01095,9.97e-4 c -0.05161,0.0079 -0.101435,0.04044 -0.119518,0.09063 -0.01808,0.0502 -0.0042,0.103802 0.0249,0.147405 a 0.07183035,0.07183035 0 0 0 0.009,0.01095 c 0.04168,0.04168 0.07642,0.03393 0.104578,0.03486 0.02816,9.2e-4 0.05457,7.13e-4 0.06474,0.002 a 0.07183035,0.07183035 0 0 0 0.06374,-0.02589 c 0.02604,-0.03124 0.03714,-0.06566 0.04183,-0.102586 0.0047,-0.03693 0.0025,-0.07643 -0.01494,-0.115534 a 0.07183035,0.07183035 0 0 0 -0.02191,-0.02789 c 0.285931,0.149708 0.57643,0.302777 0.828657,0.434248 -0.01174,0.0083 -0.01578,0.0158 -0.02988,0.0249 -0.0449,0.029 -0.100878,0.06339 -0.139437,0.126489 a 0.07183035,0.07183035 0 0 0 0.02589,0.100595 c 0.965117,0.551495 1.964526,1.081253 2.948108,1.621458 0.980477,0.536199 1.981144,1.040907 2.964043,1.575645 a 0.07183035,0.07183035 0 0 0 0.06175,0.003 c 0.107933,-0.04626 0.167622,-0.125023 0.2231,-0.194216 0.30759,0.168413 0.628798,0.339966 0.939211,0.508947 -0.01331,-0.0011 -0.02431,-0.009 -0.03785,-0.009 l -0.005,0 c -0.03539,2.6e-5 -0.08197,8.43e-4 -0.13147,0.02092 -0.108887,0.03373 -0.190233,0.119987 -0.190233,0.225093 a 0.07183035,0.07183035 0 0 0 0,9.96e-4 c 6.63e-4,0.03238 0.01194,0.05801 0.02291,0.08366 -0.38399,-0.216223 -0.76439,-0.429855 -1.145379,-0.637429 -0.429106,-0.234986 -0.867555,-0.465117 -1.294777,-0.704159 -2.076712,-1.16376 -4.192291,-2.296578 -6.283653,-3.444106 0.08715,-0.0559 0.174163,-0.105399 0.283856,-0.118523 z m 0.613525,0.005 0.01494,0.01 c -8.43e-4,0.0012 -0.0035,0.0025 -0.005,0.004 l -0.01,-0.01394 z m -1.113508,0.2729 c 0.178663,0.09033 0.355371,0.187548 0.538826,0.280867 -0.04317,0.031 -0.08714,0.06492 -0.143421,0.10657 -0.182649,-0.09306 -0.359329,-0.197284 -0.536835,-0.301783 0.04512,-0.02289 0.08724,-0.05027 0.14143,-0.08565 z m 1.339596,0.197204 c 0.0086,0.002 0.03453,0.0166 0.03884,0.02191 l -0.03685,0.03585 -0.03983,-0.03984 0.03785,-0.01793 z m -1.706118,0.01394 c 0.147619,0.06847 0.284772,0.141796 0.409349,0.226088 -0.05742,0.03446 -0.110699,0.07206 -0.165333,0.106571 -0.04419,0.02572 -0.09011,0.06329 -0.135453,0.09462 -0.04541,0.03138 -0.09128,0.05063 -0.0986,0.05179 -0.0136,-9.97e-4 -0.0542,-0.01794 -0.0996,-0.0488 -0.04631,-0.03149 -0.09544,-0.07134 -0.148402,-0.0996 l -9.96e-4,-9.96e-4 c -0.06733,-0.03694 -0.118105,-0.0657 -0.173301,-0.09561 0.126671,-0.07271 0.273227,-0.139294 0.412337,-0.234055 z m 1.087613,0.172306 c 0.146632,0.06766 0.281323,0.160809 0.440224,0.243019 -0.04223,0.03215 -0.08484,0.06595 -0.135454,0.10657 -0.145587,-0.06472 -0.286074,-0.16037 -0.448192,-0.242023 0.01459,-0.0095 0.02157,-0.01888 0.03885,-0.02888 0.03348,-0.0194 0.06927,-0.04998 0.104578,-0.07868 z m -0.4711,0.155372 c 0.160864,0.08214 0.317486,0.153543 0.442217,0.24302 -0.155267,0.08512 -0.306736,0.172624 -0.454169,0.254972 -0.137952,-0.06898 -0.27041,-0.152188 -0.410345,-0.230071 0.124635,-0.0897 0.27433,-0.167444 0.422297,-0.267921 z m -1.265893,0.02589 c 0.260155,0.124308 0.510851,0.256076 0.743998,0.405364 -0.150447,0.0833 -0.29508,0.17378 -0.443212,0.250989 -0.242629,-0.124014 -0.476378,-0.271363 -0.716112,-0.409349 0.12996,-0.07994 0.274041,-0.151471 0.415326,-0.247004 z m 3.902258,0.06473 c 1.837009,0.977903 3.691815,1.946164 5.517742,2.943128 -0.0015,0.0106 -0.0068,0.02096 -0.01,0.02988 -0.0082,-0.0012 -0.01623,-9.2e-4 -0.0259,-0.002 -0.0175,-0.0019 -0.04333,0.0038 -0.06673,0.007 -1.803228,-0.974329 -3.630143,-1.944316 -5.443043,-2.918229 0.01121,-0.0164 0.0169,-0.03746 0.02789,-0.05976 z m -1.5368,0.107551 c 0.146902,0.06444 0.28798,0.150771 0.440224,0.231069 -0.01568,0.01287 -0.02455,0.02834 -0.04481,0.04084 -0.0329,0.02028 -0.07104,0.04678 -0.108562,0.0737 -0.15062,-0.07153 -0.291987,-0.152894 -0.432257,-0.233059 0.01298,-0.0091 0.01759,-0.0181 0.03386,-0.02789 0.03418,-0.02055 0.07402,-0.05191 0.111549,-0.08466 z m 1.325652,0.07271 c 1.78025,0.978741 3.59306,1.919741 5.387268,2.886357 a 0.07183035,0.07183035 0 0 0 -0.003,9.96e-4 c -0.0154,0.0077 -0.04031,0.02199 -0.06076,0.0488 -1.749807,-0.910256 -3.467855,-1.89184 -5.226915,-2.816638 l -9.96e-4,-9.97e-4 c -0.06833,-0.03722 -0.136201,-0.07339 -0.196208,-0.111549 0.02765,3.36e-4 0.06037,-0.0017 0.100594,-0.007 z m -1.797748,0.07171 c 0.126605,0.08036 0.266965,0.153944 0.405365,0.225092 -0.128912,0.09576 -0.274599,0.181554 -0.423293,0.271903 -0.142505,-0.09524 -0.290347,-0.168988 -0.415324,-0.250987 0.149831,-0.07257 0.29827,-0.147733 0.433252,-0.246008 z m -2.496927,0.0478 c 0.278969,0.156208 0.551016,0.320662 0.839613,0.474088 -0.150626,0.100019 -0.31277,0.195375 -0.475085,0.294835 -0.269491,-0.187409 -0.560093,-0.341443 -0.827662,-0.513927 0.146348,-0.08787 0.302568,-0.171418 0.463132,-0.254971 z m 1.537796,0.145413 c 0.138383,0.07647 0.286316,0.159687 0.440224,0.237045 -0.13755,0.08707 -0.303144,0.163693 -0.458152,0.262938 -0.144512,-0.0548 -0.269741,-0.145686 -0.417317,-0.226087 0.128597,-0.09093 0.285406,-0.171141 0.435245,-0.273896 z m 2.055707,0.005 c 0.09211,0.03545 0.337023,0.195503 0.250988,0.149397 0.07838,0.04106 0.127393,0.07076 0.178281,0.102587 -0.04706,0.03802 -0.09541,0.07451 -0.136449,0.109557 -0.148116,-0.07234 -0.289931,-0.168103 -0.443213,-0.256963 0.01738,-0.01692 0.04124,-0.03321 0.05677,-0.0478 0.03912,-0.03677 0.06913,-0.05516 0.09362,-0.05677 z m -0.513927,0.136449 c 0.09768,0.03491 0.353316,0.203939 0.266924,0.153381 0.0633,0.03665 0.123244,0.06931 0.184257,0.102587 -0.125839,0.08719 -0.272941,0.165597 -0.420305,0.258955 -0.147791,-0.07021 -0.289043,-0.150611 -0.435244,-0.230072 0.138904,-0.103643 0.279351,-0.225468 0.404368,-0.284851 z m -3.758837,0.06273 c 0.390585,0.219917 0.760611,0.460594 1.144384,0.700175 -0.110725,0.07564 -0.22106,0.149302 -0.351582,0.239036 a 0.07183035,0.07183035 0 0 0 -0.002,9.96e-4 c -0.02502,0.01877 -0.04999,0.04145 -0.07171,0.05777 -0.02172,0.01631 -0.04331,0.01992 -0.02789,0.01992 0.0047,0 -0.01672,-0.0041 -0.04183,-0.01693 -0.02511,-0.0128 -0.05654,-0.03227 -0.08865,-0.05372 -0.06421,-0.04289 -0.129198,-0.09246 -0.180273,-0.122503 -0.289263,-0.174476 -0.614532,-0.374577 -0.865508,-0.551775 0.166037,-0.08859 0.32659,-0.181261 0.485043,-0.272899 z m 4.899237,0.146409 c 0.158361,0.07965 0.310898,0.168065 0.468112,0.256963 -0.04677,0.04067 -0.09411,0.08179 -0.150394,0.12151 -0.151914,-0.08415 -0.311141,-0.172376 -0.468111,-0.257959 0.0455,-0.03631 0.0931,-0.07481 0.150393,-0.120514 z m -2.048735,0.009 c 0.158152,0.06712 0.297479,0.161592 0.45118,0.252979 -0.140111,0.09282 -0.288093,0.182495 -0.43624,0.276883 -0.16281,-0.08632 -0.325595,-0.176977 -0.490023,-0.265927 0.142406,-0.08978 0.313346,-0.167691 0.475083,-0.263935 z m -1.14538,0.101589 c 0.144134,0.06599 0.278382,0.148507 0.422297,0.231068 -0.153562,0.108992 -0.31102,0.208914 -0.482056,0.289831 -0.136577,-0.08884 -0.274414,-0.162118 -0.393415,-0.245967 0.15729,-0.08694 0.306393,-0.179285 0.453173,-0.274892 z m 2.683176,0.0488 c 0.170995,0.07133 0.330714,0.167807 0.500979,0.255968 -0.145153,0.09409 -0.294466,0.186575 -0.442216,0.275887 -0.162145,-0.08734 -0.315292,-0.176847 -0.456159,-0.277879 0.141656,-0.07909 0.270096,-0.166455 0.397396,-0.253976 z m -5.086481,0.08964 c 0.127133,0.06899 0.25695,0.152895 0.398393,0.229075 -0.06214,0.04408 -0.133405,0.08496 -0.221108,0.132466 l 0,-9.96e-4 c -0.05863,0.03086 -0.118562,0.07786 -0.177285,0.116529 -0.05873,0.03866 -0.116677,0.06374 -0.135454,0.06374 -0.05236,0 -0.137246,-0.05378 -0.227084,-0.126489 -0.05117,-0.04142 -0.103915,-0.08443 -0.160353,-0.12151 0.166898,-0.09805 0.344623,-0.187894 0.522891,-0.292819 z m 4.207029,0.128481 c 0.131793,0.08009 0.268323,0.158027 0.402377,0.236048 -0.141496,0.08814 -0.303666,0.165888 -0.462136,0.263935 -0.128079,-0.05954 -0.246038,-0.135414 -0.373493,-0.209156 0.133936,-0.0929 0.286096,-0.181943 0.433252,-0.290827 z m 2.052719,0.004 c 0.183202,0.07629 0.347339,0.181147 0.528867,0.279871 -0.03655,0.03682 -0.07925,0.07524 -0.129477,0.115534 -0.181326,-0.08178 -0.355056,-0.189011 -0.539823,-0.286843 0.04531,-0.02856 0.09087,-0.06544 0.140433,-0.108562 z m -3.246902,0.09362 c 0.160478,0.08228 0.321784,0.175518 0.488031,0.265927 -0.148794,0.08814 -0.318761,0.162739 -0.489026,0.263936 -0.150011,-0.0781 -0.296131,-0.173573 -0.447197,-0.264931 0.144746,-0.08889 0.295965,-0.171565 0.448192,-0.264932 z m 2.750903,0.04581 c 0.166365,0.09224 0.3383,0.190377 0.513927,0.283855 -0.137245,0.09494 -0.283997,0.18519 -0.435244,0.275887 -0.172421,-0.07993 -0.336154,-0.177395 -0.508947,-0.270907 0.135997,-0.08998 0.289589,-0.177338 0.430264,-0.288835 z m -5.205999,0.08268 c 0.145537,0.08521 0.294807,0.174917 0.445204,0.26294 -0.170255,0.104723 -0.358932,0.197712 -0.54281,0.315726 -0.146438,-0.06295 -0.274955,-0.16029 -0.424289,-0.249991 0.155722,-0.106809 0.348549,-0.194416 0.521895,-0.328675 z m 1.473058,0.0757 c 0.157764,0.06346 0.293695,0.154014 0.448192,0.240032 -0.145976,0.109418 -0.319444,0.205143 -0.484048,0.322698 -0.143832,-0.07478 -0.276901,-0.162752 -0.413334,-0.252946 0.127713,-0.105682 0.291211,-0.195213 0.449188,-0.30975 z m -2.89532,0.01196 c 3.365051,2.194299 6.762795,4.358363 10.117187,6.571493 -1.146943,0.90224 -2.255919,1.84956 -3.382356,2.77779 -0.102597,0.0309 -0.187915,0.004 -0.285847,-0.0398 -0.0011,-5.6e-4 -8.43e-4,-4.6e-4 -0.002,-9.9e-4 a 0.07183035,0.07183035 0 0 0 -0.01295,-0.004 c -0.03615,-0.0142 -0.06836,-0.022 -0.07271,-0.0249 l -0.05079,0.0787 c -5.1e-4,-3.9e-4 -4.61e-4,-0.002 -9.97e-4,-0.002 l 0.0498,-0.0777 c -0.09582,-0.0593 -0.18794,-0.1369 -0.272899,-0.20119 l 0,9.9e-4 c -0.530456,-0.40288 -1.076501,-0.816 -1.612524,-1.20908 -1.043579,-0.77026 -2.137215,-1.57739 -3.150291,-2.3306 0.0016,-0.003 0.0058,-0.005 0.007,-0.008 0.01038,-0.0265 0.0067,-0.0265 0.006,-0.0349 -1.9e-5,-2.3e-4 2.2e-5,-7.6e-4 0,-9.9e-4 a 0.07183035,0.07183035 0 0 0 0.01,-0.0319 c 1.5e-5,-2.8e-4 -0.0059,-0.0326 -0.006,-0.0329 -1.6e-5,-4e-5 -0.0015,-0.002 -0.002,-0.003 -0.0015,-0.0496 -0.01807,-0.0967 -0.04682,-0.13745 -0.0373,-0.0529 -0.08873,-0.10198 -0.147405,-0.14741 -0.08078,-0.0614 -0.179055,-0.12127 -0.281863,-0.13246 -0.0084,-0.007 -0.01215,-0.0149 -0.04183,-0.0149 l -0.005,0 a 0.07183035,0.07183035 0 0 0 -0.06972,0.0548 c 0.0018,-0.007 0.0085,-0.0167 -9.97e-4,-0.003 -0.0018,0.002 -0.0012,0.0108 -0.003,0.0149 -0.9459,-0.6707 -2.072258,-1.50215 -3.085535,-2.27583 -0.25372,-0.19283 -0.499001,-0.393045 -0.781846,-0.593608 a 0.07183035,0.07183035 0 0 0 -9.96e-4,-9.97e-4 c -0.0687,-0.04669 -0.143332,-0.08549 -0.193222,-0.12547 -0.04989,-0.03998 -0.06971,-0.06888 -0.06673,-0.110554 0.0033,-0.03476 0.017,-0.04938 0.0498,-0.07868 0.02656,-0.02373 0.06428,-0.06122 0.09661,-0.105575 1.099521,-0.56778 2.1587,-1.17932 3.239931,-1.770856 z m 5.664151,0.03287 c 0.157954,0.07573 0.307772,0.172595 0.472095,0.259951 -0.122982,0.100467 -0.27047,0.189434 -0.415324,0.303775 -0.179814,-0.100848 -0.35737,-0.191519 -0.509943,-0.305766 0.160188,-0.08151 0.305472,-0.172305 0.453172,-0.25796 z m 2.177217,0.03585 c 0.154557,0.08189 0.313823,0.175905 0.477076,0.26294 -0.01874,0.02178 -0.04422,0.04261 -0.06076,0.06175 -0.03703,0.04287 -0.06734,0.06451 -0.08466,0.06673 -0.0031,-2.08e-4 -0.05157,-0.01414 -0.10159,-0.04482 -0.05062,-0.03104 -0.105201,-0.07193 -0.155372,-0.102586 a 0.07183035,0.07183035 0 0 0 -0.003,-9.97e-4 c -0.08318,-0.04702 -0.146974,-0.08454 -0.212144,-0.122505 0.04371,-0.03941 0.08818,-0.07961 0.140434,-0.120514 z m -3.268814,0.09063 c 0.146816,0.07481 0.289099,0.164073 0.43624,0.252979 -0.132971,0.103641 -0.290848,0.197245 -0.443212,0.305767 -0.160105,-0.0904 -0.324112,-0.184376 -0.489027,-0.276883 0.151049,-0.08971 0.332553,-0.168922 0.495999,-0.281863 z m 2.762854,0.05777 c 0.160346,0.08437 0.317136,0.169495 0.473092,0.258956 -0.05348,0.04434 -0.10378,0.08796 -0.177284,0.133461 a 0.07183035,0.07183035 0 0 0 -9.97e-4,0 c -0.04371,0.02811 -0.09196,0.06993 -0.140433,0.104579 -0.04847,0.03464 -0.09875,0.05707 -0.110554,0.05777 -0.01105,6.12e-4 -0.05735,-0.01781 -0.10657,-0.05279 -0.04922,-0.03499 -0.100228,-0.07929 -0.153381,-0.110553 -0.07988,-0.04721 -0.145065,-0.07503 -0.213141,-0.10657 0.129628,-0.09449 0.28101,-0.180822 0.429268,-0.284852 z m -5.290657,0.05876 c 0.147707,0.07575 0.288811,0.166019 0.429269,0.256965 -0.160454,0.119751 -0.344982,0.229946 -0.523887,0.353573 -0.159915,-0.09566 -0.317281,-0.185508 -0.452176,-0.290826 0.181264,-0.101526 0.367326,-0.205669 0.546794,-0.31971 z m 1.481025,0.08566 c 0.150073,0.06424 0.280089,0.167052 0.439229,0.254971 -0.09396,0.07016 -0.207838,0.130512 -0.338634,0.219116 -0.03718,0.02388 -0.06925,0.05427 -0.0996,0.07868 -0.02906,0.02337 -0.05546,0.03403 -0.05378,0.03486 -0.0064,-0.0015 -0.05103,-0.01954 -0.09761,-0.05378 -0.04843,-0.03562 -0.09783,-0.07942 -0.146409,-0.108562 a 0.07183035,0.07183035 0 0 0 -9.96e-4,-9.96e-4 c -0.07324,-0.04185 -0.12726,-0.07038 -0.185253,-0.101591 0.147531,-0.107645 0.320919,-0.208815 0.483051,-0.322698 z m 2.802695,0.05079 c 0.437815,0.231052 -0.641255,-0.388295 0.274891,0.14641 -0.0015,0.07705 0.352873,0.09564 0.187245,0.129478 -0.131249,0.103321 -0.275359,0.206781 -0.411341,0.323694 -0.1651,-0.08418 -0.320326,-0.183287 -0.482056,-0.281863 0.145734,-0.110212 0.294339,-0.232996 0.431261,-0.317719 z m 2.138373,0.02888 c 0.219241,0.0985 0.418059,0.22234 0.63245,0.341621 -0.04006,0.03373 -0.08122,0.07764 -0.127486,0.129478 -0.205535,-0.110527 -0.41645,-0.228256 -0.635437,-0.341621 0.03824,-0.03698 0.08029,-0.07937 0.130473,-0.129478 z m -3.282757,0.108562 c 0.172624,0.08135 0.333091,0.178225 0.485043,0.280867 -0.143315,0.105529 -0.30615,0.196074 -0.472095,0.296803 -0.152213,-0.09209 -0.306455,-0.186902 -0.45616,-0.281863 0.134669,-0.09597 0.292326,-0.180704 0.443212,-0.295807 z m 2.820622,0.06673 c 0.176098,0.07755 0.339789,0.180299 0.518907,0.274891 -0.124523,0.10705 -0.274566,0.198945 -0.428272,0.302779 -0.175579,-0.08747 -0.341446,-0.193713 -0.518908,-0.294811 0.0079,-0.0056 0.0077,-0.01 0.01793,-0.01593 0.03849,-0.02256 0.09036,-0.04667 0.140433,-0.08167 l 0.002,-9.97e-4 c 0.09335,-0.06221 0.183741,-0.124601 0.267922,-0.184233 z m -5.370337,0.06175 c 0.221152,0.109903 0.426937,0.240151 0.644401,0.366522 -0.170844,0.131457 -0.369727,0.246362 -0.565718,0.367517 -0.205155,-0.113042 -0.396739,-0.2489 -0.604563,-0.372468 0.167988,-0.119718 0.353157,-0.232919 0.525879,-0.361542 z m 1.530825,0.0488 c 0.170433,0.113527 0.347603,0.203617 0.490024,0.313735 -0.158421,0.112567 -0.325223,0.223812 -0.496996,0.330666 -0.177079,-0.102643 -0.351211,-0.208021 -0.505958,-0.324691 0.171692,-0.105417 0.339052,-0.213506 0.51293,-0.31971 z m 2.838549,0.06474 c 0.101574,0.04362 0.384604,0.214706 0.288835,0.160353 0.08208,0.04639 0.159972,0.09713 0.238041,0.146409 -0.05691,0.04403 -0.114079,0.08402 -0.197205,0.139438 a 0.07183035,0.07183035 0 0 0 -0.002,9.96e-4 c -0.04514,0.03225 -0.08905,0.07827 -0.133462,0.115534 -0.04441,0.03727 -0.08976,0.05924 -0.0986,0.05976 a 0.07183035,0.07183035 0 0 0 -0.01196,0.002 c -0.0071,0.0016 -0.05793,-0.01114 -0.112545,-0.04383 -0.05462,-0.03267 -0.111002,-0.07596 -0.161349,-0.105575 -0.08506,-0.05177 -0.155231,-0.09304 -0.22808,-0.136449 0.13259,-0.117023 0.279053,-0.237059 0.418312,-0.338634 z m 2.281796,0.10159 c 0.184492,0.07556 0.350054,0.181145 0.536834,0.277879 -0.04708,0.04086 -0.102248,0.0804 -0.166329,0.119518 -0.1658,-0.101682 -0.340964,-0.185603 -0.510939,-0.276883 0.04343,-0.03543 0.08794,-0.07393 0.140434,-0.120514 z m -3.412235,0.04481 c 0.15345,0.07182 0.298128,0.161976 0.457156,0.246008 -0.04741,0.04601 -0.09475,0.09125 -0.169318,0.139437 -0.08832,0.05708 -0.181747,0.120093 -0.265927,0.190233 -0.165081,-0.08744 -0.321366,-0.181208 -0.476079,-0.279872 0.147536,-0.09973 0.299211,-0.196893 0.454168,-0.295806 z m 2.851497,0.06175 c 0.18296,0.09071 0.367076,0.201344 0.558746,0.305767 -0.135837,0.101948 -0.280513,0.198523 -0.426281,0.30477 -0.188403,-0.09447 -0.37211,-0.200878 -0.559741,-0.305767 0.141035,-0.10505 0.279416,-0.210647 0.427276,-0.30477 z m -3.859431,0.158361 c 0.167837,0.09234 0.330862,0.196515 0.500978,0.299791 -0.16231,0.107235 -0.331523,0.210291 -0.503966,0.326682 -0.166249,-0.08113 -0.319861,-0.198672 -0.499983,-0.300787 0.165527,-0.10874 0.330871,-0.217115 0.502971,-0.325686 z m -1.384416,0.02888 c 1.129139,0.673061 2.245228,1.361261 3.360444,2.05372 -0.200958,0.15228 -0.427203,0.29679 -0.650376,0.43424 -1.089547,-0.71628 -2.187509,-1.427585 -3.276782,-2.14335 0.172668,-0.123284 0.367625,-0.228296 0.566714,-0.34461 z m 4.245873,0.03187 c 0.18754,0.0864 0.36029,0.202183 0.555758,0.30477 -0.150386,0.107599 -0.312876,0.209539 -0.470104,0.321703 -0.182007,-0.08982 -0.3474,-0.199931 -0.524882,-0.301783 0.133313,-0.1088 0.289011,-0.206148 0.439228,-0.32469 z m 2.278807,0.06375 c 0.0983,-0.002 0.617739,0.328635 0.358554,0.180272 0.104187,0.05778 0.18831,0.09906 0.268915,0.140433 -0.04913,0.04691 -0.09878,0.09339 -0.154377,0.133463 -0.209217,-0.101551 -0.412254,-0.218378 -0.632449,-0.328674 0.02089,-0.02189 0.0482,-0.04248 0.06673,-0.06175 0.03938,-0.04095 0.06956,-0.05984 0.09263,-0.06375 z m -3.47797,0.05179 c 0.184482,0.09333 0.354335,0.200866 0.526875,0.312739 -0.14367,0.104073 -0.292136,0.200545 -0.454168,0.295806 -0.181889,-0.0858 -0.353827,-0.186526 -0.531855,-0.286843 0.140748,-0.108326 0.300955,-0.208937 0.459148,-0.321702 z m 2.936156,0.08964 c 0.195179,0.08755 0.377402,0.202339 0.573685,0.306762 -0.133307,0.107805 -0.291728,0.206062 -0.444207,0.318714 -0.189608,-0.09546 -0.371892,-0.206945 -0.554763,-0.316722 0.130423,-0.102632 0.282079,-0.192165 0.425285,-0.308754 z m -3.914211,0.145412 c 0.178715,0.08585 0.337903,0.203243 0.516916,0.314732 -0.166983,0.11317 -0.337223,0.219048 -0.519903,0.328673 -0.169556,-0.113461 -0.348376,-0.211188 -0.515919,-0.315726 0.165291,-0.110402 0.34341,-0.21355 0.518906,-0.327679 z m 2.890341,0.06772 c 0.194212,0.08447 0.371082,0.207782 0.565718,0.31971 -0.134263,0.111882 -0.283915,0.214911 -0.434249,0.334651 -0.189452,-0.110982 -0.376636,-0.220625 -0.564722,-0.333654 0.133442,-0.106546 0.28525,-0.201614 0.433253,-0.320707 z m 2.366454,0.09661 c 0.200621,0.09181 0.386762,0.203557 0.589622,0.308754 -0.02187,0.01841 -0.03408,0.03366 -0.06175,0.05378 -0.03073,0.02096 -0.05391,0.04449 -0.07271,0.05976 -0.01936,0.01572 -0.03104,0.01793 -0.02789,0.01793 -0.0016,0 -0.06823,-0.02199 -0.130473,-0.05677 -0.06224,-0.03478 -0.129118,-0.07695 -0.180274,-0.10657 a 0.07183035,0.07183035 0 0 0 -0.002,-9.96e-4 c -0.09655,-0.05199 -0.171965,-0.09774 -0.248995,-0.141429 0.04301,-0.04134 0.08713,-0.08478 0.134457,-0.134458 z m -3.552668,0.02988 c 0.195784,0.09191 0.376784,0.218491 0.577669,0.333653 -0.153538,0.107611 -0.312755,0.211436 -0.472096,0.323695 -0.196345,-0.09659 -0.378376,-0.217085 -0.569701,-0.33465 0.135113,-0.11331 0.299338,-0.212255 0.464128,-0.322698 z m 2.96703,0.0757 c 0.188507,0.08758 0.367972,0.207571 0.568706,0.311742 -0.131596,0.11443 -0.285252,0.215084 -0.434248,0.335646 -0.199712,-0.09568 -0.386591,-0.212325 -0.580658,-0.32469 0.136225,-0.105857 0.295333,-0.202054 0.4462,-0.322698 z m -3.950066,0.147405 c 0.168723,0.102039 0.336295,0.210978 0.509944,0.318714 -0.140153,0.126667 -0.31681,0.228772 -0.483052,0.365526 -0.188808,-0.09529 -0.36174,-0.214182 -0.548786,-0.330666 0.156512,-0.117708 0.345847,-0.222336 0.521894,-0.353574 z m 2.932172,0.0757 c 0.182987,0.09874 0.360811,0.205128 0.533847,0.316722 -0.138894,0.111562 -0.288486,0.215079 -0.447196,0.323694 -0.187905,-0.09519 -0.36131,-0.197484 -0.52289,-0.315726 0.147079,-0.106939 0.290734,-0.217218 0.436239,-0.32469 z m 2.374422,0.08964 c 0.214629,0.09424 0.412972,0.218367 0.635437,0.32967 -0.04345,0.03966 -0.08974,0.08259 -0.144418,0.132465 -0.224174,-0.09457 -0.42999,-0.217414 -0.645396,-0.33963 0.01691,-0.01288 0.02719,-0.02542 0.0478,-0.03884 0.03407,-0.02217 0.07055,-0.05336 0.10657,-0.08366 z m -3.572588,0.03187 c 0.183838,0.09461 0.3588,0.21124 0.548786,0.318715 -0.146747,0.114589 -0.302203,0.222767 -0.46114,0.335648 -0.186721,-0.09449 -0.363268,-0.205952 -0.545798,-0.317721 0.140824,-0.104807 0.311009,-0.200449 0.458152,-0.336642 z m 2.966035,0.05976 c 0.212699,0.113315 0.421843,0.221391 0.608546,0.347598 -0.152528,0.110354 -0.296014,0.228515 -0.448193,0.324695 -0.208299,-0.11865 -0.423545,-0.217293 -0.599581,-0.347602 0.149473,-0.100993 0.30012,-0.208575 0.439228,-0.324691 z m 2.412269,0.0747 c 0.196431,0.106053 0.378268,0.209091 0.585638,0.317718 0.10521,0.05524 0.267938,0.132415 0.371501,0.221105 0.05178,0.0444 0.08628,0.0905 0.09761,0.12948 0.0081,0.028 0.0028,0.0557 -0.01295,0.0886 8.43e-4,-0.0161 0.009,-0.0301 9.96e-4,-0.0458 -0.01219,-0.0239 -0.0288,-0.0307 -0.04282,-0.0379 6.4e-5,-4.1e-4 -6e-5,-5.6e-4 0,-9.9e-4 0.003,-0.0202 -0.0028,-0.0444 -0.01295,-0.0617 a 0.07183035,0.07183035 0 0 0 -0.04183,-0.0329 c -0.02448,-0.007 -0.0353,-0.003 -0.05179,-0.002 -0.0033,-0.009 -0.0055,-0.0202 -0.02092,-0.0358 -0.01841,-0.0187 -0.05828,-0.0282 -0.08466,-0.0229 -0.05968,0.0115 -0.09585,0.0526 -0.120514,0.0896 a 0.07183035,0.07183035 0 0 0 -0.01195,0.0329 c -0.0061,0.0676 0.0069,0.12104 0.01693,0.16632 a 0.07183035,0.07183035 0 0 0 0.02689,0.0418 c 0.03957,0.0297 0.0866,0.024 0.112546,0.0179 0.02595,-0.006 0.04354,-0.0117 0.05179,-0.0119 a 0.07183035,0.07183035 0 0 0 0.004,-9.9e-4 c 0.0095,0.002 0.01528,0.009 0.02291,0.008 a 0.07183035,0.07183035 0 0 0 0.02191,-0.007 c 0.0054,7.1e-4 0.0036,5.6e-4 0.01295,0.002 0.0069,9.9e-4 0.01797,3e-5 0.02789,0 -0.01195,0.01 -0.01513,0.0148 -0.02888,0.0249 -0.0412,0.0301 -0.08821,0.0633 -0.131469,0.0976 -0.03579,-0.0524 -0.08313,-0.0908 -0.13147,-0.11454 -0.05785,-0.0284 -0.115259,-0.0467 -0.161349,-0.0707 l -9.96e-4,-0.001 c -0.26264,-0.14143 -0.535243,-0.29662 -0.803758,-0.447194 0.173935,0.0018 0.354854,-0.09316 0.332659,-0.276883 -0.0028,-0.02568 -0.01622,-0.04637 -0.02789,-0.06773 z m -10.402038,0.05976 a 0.07183035,0.07183035 0 0 0 -0.03486,0.01295 c -0.07088,0.0057 -0.142041,0.01875 -0.197205,0.04383 a 0.07183035,0.07183035 0 0 0 0,9.97e-4 c -0.210329,0.09707 -0.395267,0.246522 -0.593605,0.365526 -0.610317,0.36619 -1.269495,0.72821 -1.8346,1.11351 a 0.07183035,0.07183035 0 0 0 -0.02589,0.0339 c -0.02856,0.0743 -0.04906,0.16439 -0.06474,0.248 a 0.07183035,0.07183035 0 0 0 0.01593,0.0588 c 0.0089,0.0107 0.01867,0.0561 0.06076,0.10657 a 0.07183035,0.07183035 0 0 0 0.01095,0.0109 c 0.54267,0.4198 1.251463,0.91949 1.815676,1.35155 a 0.07183035,0.07183035 0 0 0 9.97e-4,9.9e-4 c 0.03323,0.0249 0.0707,0.0645 0.110554,0.10458 0.03986,0.04 0.08147,0.0809 0.136449,0.10657 a 0.07183035,0.07183035 0 0 0 0,0.001 c 0.07989,0.0366 0.171506,0.0403 0.256964,0.0339 0.08546,-0.006 0.161904,-0.0237 0.218121,-0.0518 a 0.07183035,0.07183035 0 0 0 9.96e-4,0 c 0.254199,-0.1324 0.506594,-0.34383 0.758939,-0.4711 0.01743,-0.007 0.03426,-0.0227 0.04283,-0.0378 0.0086,-0.0152 0.01009,-0.0285 0.01095,-0.0388 9.96e-4,-0.0121 -5.2e-5,-0.0166 -9.97e-4,-0.0239 0.549237,-0.35925 1.08198,-0.75357 1.645363,-1.09259 a 0.07183035,0.07183035 0 0 0 0.02689,-0.0279 c 0.0091,-0.017 0.03973,-0.0397 0.07769,-0.0807 0.0378,-0.0408 0.07286,-0.11437 0.05677,-0.2002 -0.0079,-0.0436 -0.03035,-0.0645 -0.05279,-0.0867 -0.02244,-0.0222 -0.04883,-0.0427 -0.07669,-0.0627 -0.05532,-0.0399 -0.117412,-0.0766 -0.157365,-0.10159 l -9.97e-4,-9.9e-4 c -0.647123,-0.42303 -1.364836,-0.89723 -1.939164,-1.303832 a 0.07183035,0.07183035 0 0 0 -0.03685,-0.01295 c -0.07842,-0.0056 -0.156124,0 -0.224097,0 a 0.07183035,0.07183035 0 0 0 -0.007,0 z m -6.270705,0.01394 c 0.433663,0.298771 0.823262,0.641133 1.274857,0.945193 l 0,0.1225 a 0.07183035,0.07183035 0 0 0 0.07171,0.0717 c 0.0018,0 0.0031,-0.003 0.005,-0.003 a 0.07183035,0.07183035 0 0 0 0.08067,0.0638 c -2.99e-4,0.0101 0.0016,0.0162 9.96e-4,0.0269 -0.0028,0.0499 -2.16e-4,0.10568 -0.003,0.16035 -0.487237,-0.35347 -0.973464,-0.71287 -1.422257,-1.107589 -5.86e-4,-0.0041 -0.0067,-0.01535 -0.008,-0.02191 l 0,-0.25796 z m 16.389884,0.01195 c 0.01726,0.0033 0.05378,0.01128 0.05478,0.01195 7.65e-4,1e-4 0.0031,-0.0013 -0.003,0.003 -0.0081,0.0057 -0.02942,0.01256 -0.05279,0.01394 -0.02336,0.0014 -0.04817,-0.0025 -0.06474,-0.01 -0.0018,-8.43e-4 -0.0015,-0.0012 -0.003,-0.002 8.43e-4,-4.69e-4 6.1e-5,-5.11e-4 9.97e-4,-9.97e-4 0.01742,-0.009 0.04593,-0.01593 0.06772,-0.01593 z m -6.132263,0.01494 c 0.192211,0.111601 0.377861,0.227567 0.566714,0.346603 -0.161737,0.12399 -0.335468,0.24055 -0.510938,0.36752 -0.183111,-0.10447 -0.367322,-0.23475 -0.566714,-0.3476 0.158813,-0.121596 0.340695,-0.231137 0.510938,-0.366523 z m 2.957071,0.06275 c 0.223098,0.114962 0.442861,0.231949 0.628465,0.373493 -0.15737,0.10802 -0.301876,0.22193 -0.452175,0.32569 -0.210412,-0.0973 -0.398371,-0.22549 -0.613526,-0.33864 0.135553,-0.120434 0.288556,-0.231521 0.437236,-0.360543 z m 2.452109,0.122506 c 0.215197,0.122738 0.444115,0.221897 0.629461,0.349587 -0.05351,0.044 -0.107543,0.0867 -0.154377,0.1245 -0.219448,-0.11943 -0.438065,-0.22587 -0.615518,-0.363533 0.04838,-0.03746 0.09833,-0.07305 0.140434,-0.110554 z m -3.651271,0.01892 c 0.197742,0.100435 0.38564,0.220497 0.580658,0.336647 -0.144732,0.12589 -0.294929,0.25232 -0.450184,0.36253 -0.188326,-0.1043 -0.36991,-0.2257 -0.570698,-0.33764 0.129833,-0.12303 0.288081,-0.231105 0.440224,-0.361537 z m -5.720922,9.96e-4 c 0.002,0 0.09362,0.0086 0.137445,0.01295 0.04376,0.01167 0.159285,0.09402 0.265927,0.163341 0.47911,0.31091 0.870098,0.56556 1.3635,0.90634 0.07133,0.0505 0.195185,0.11356 0.299791,0.18426 0.0523,0.0353 0.09894,0.0721 0.127486,0.10358 0.02854,0.0314 0.0335,0.0522 0.03287,0.0568 a 0.07183035,0.07183035 0 0 0 -9.97e-4,0.003 c 6.63e-4,-0.007 -0.0061,0.0133 -0.03287,0.0369 -0.02684,0.0236 -0.06776,0.0507 -0.112545,0.0777 -0.08957,0.0539 -0.190371,0.10269 -0.253976,0.1504 -0.412959,0.29985 -0.831349,0.57732 -1.246969,0.86351 -0.762043,-0.51172 -1.517945,-1.03722 -2.256922,-1.58054 0.417676,-0.26532 0.885914,-0.55242 1.324656,-0.81471 a 0.07183035,0.07183035 0 0 0 9.96e-4,0 c 0.09515,-0.05814 0.223517,-0.145182 0.351583,-0.163341 z m 8.76066,0.08067 c 0.213169,0.111031 0.421368,0.234981 0.637428,0.356561 -0.121817,0.12039 -0.257152,0.22851 -0.399388,0.34461 -0.233767,-0.10272 -0.447974,-0.23107 -0.672288,-0.35457 0.135381,-0.11394 0.287139,-0.22233 0.434248,-0.346601 z m 2.742935,0.147411 0.002,0 c 6e-6,1.1e-4 10e-7,0.002 0,0.002 -2.4e-5,0.002 0.0073,-0.0129 -0.002,-0.002 z m -6.773675,0.0269 c 0.185963,0.11616 0.374721,0.224 0.557749,0.33664 -0.140447,0.13482 -0.315315,0.24443 -0.486039,0.37747 -0.20485,-0.10324 -0.417307,-0.23462 -0.582649,-0.35755 0.154856,-0.11618 0.340571,-0.21784 0.510939,-0.35656 z m 3.024798,0.0598 c 0.1966,0.12421 0.39946,0.23971 0.609541,0.35058 -0.149655,0.12166 -0.318194,0.2325 -0.478072,0.36354 -0.205402,-0.11328 -0.405061,-0.23892 -0.60954,-0.36254 0.148985,-0.11771 0.315841,-0.22536 0.478071,-0.35158 z m 2.415257,0.11155 c 0.233718,0.10076 0.452305,0.24309 0.698184,0.36054 -0.04722,0.0434 -0.104035,0.0866 -0.171309,0.13346 -0.22431,-0.10368 -0.429581,-0.2312 -0.659341,-0.34959 0.04018,-0.0417 0.08349,-0.0895 0.132466,-0.14441 z m -3.660234,0.0329 c 0.207896,0.11619 0.413467,0.23105 0.623484,0.34959 -0.152092,0.1199 -0.317736,0.23369 -0.475084,0.36353 -0.202823,-0.1146 -0.406429,-0.2371 -0.598585,-0.36453 0.139838,-0.12172 0.291316,-0.23493 0.450185,-0.34859 z m 3.068621,0.0866 c 0.315318,0.16601 0.624965,0.34614 0.93423,0.52587 -0.132889,0.11906 -0.272673,0.23583 -0.41134,0.35955 -0.312841,-0.16175 -0.609966,-0.34529 -0.923275,-0.51592 0.119904,-0.12795 0.259233,-0.24428 0.400385,-0.3695 z m -5.512762,0.13346 -0.01593,0.0289 -0.01,0.002 c 0.01088,-0.0107 0.02145,-0.0131 0.02589,-0.0309 z m 1.422262,0.0338 c 0.202581,0.097 0.383656,0.23103 0.59261,0.34859 -0.118567,0.0951 -0.262352,0.20137 -0.372498,0.28186 -0.01669,0.0116 -0.02658,0.0222 -0.04084,0.0359 -0.01518,0.0146 -0.03231,0.0313 -0.0488,0.0468 -0.01649,0.0156 -0.03261,0.0305 -0.04482,0.0398 -0.0056,0.004 -2.59e-4,0.002 -0.003,0.003 -0.0018,-0.001 0.0021,-2.4e-4 -0.01,-0.007 -0.01909,-0.0107 -0.04414,-0.0275 -0.06972,-0.0448 -0.05116,-0.0346 -0.101851,-0.0722 -0.129477,-0.0906 a 0.07183035,0.07183035 0 0 0 -0.003,-0.002 c -0.137001,-0.083 -0.2559,-0.15918 -0.382457,-0.24302 0.168361,-0.1245 0.334905,-0.24975 0.511935,-0.36851 z m 5.949003,0.003 c -0.02239,0.10164 -0.0746,0.18961 -0.13147,0.27489 a 0.07183035,0.07183035 0 0 0 -0.03585,-0.0169 c -0.0487,-0.008 -0.09509,-0.001 -0.138441,0.0119 0.02177,-0.0183 0.04316,-0.0355 0.06473,-0.0538 l 0.002,-0.001 c 0.08479,-0.0678 0.165529,-0.13966 0.239036,-0.21513 z m -7.425049,0.0319 c 0.260501,0.13916 0.507373,0.29378 0.753959,0.45616 -0.195724,0.15752 -0.397762,0.30853 -0.605557,0.46114 -0.252645,-0.15859 -0.506518,-0.32976 -0.769894,-0.49202 0.02203,-0.0182 0.03434,-0.0366 0.06772,-0.0548 0.06022,-0.0327 0.132987,-0.0649 0.199197,-0.11055 l 0.002,-10e-4 c 0.12965,-0.0851 0.230889,-0.20191 0.335646,-0.248 a 0.07183035,0.07183035 0 0 0 0.01693,-0.011 z m 4.534708,0.0249 c 0.215419,0.10694 0.420391,0.23372 0.636432,0.35656 -0.129669,0.12895 -0.283287,0.24662 -0.428272,0.38943 -0.22574,-0.11141 -0.434328,-0.25826 -0.673284,-0.38246 0.14446,-0.12042 0.306841,-0.22983 0.465124,-0.36353 z m -1.233024,0.15031 c 0.218421,0.0985 0.408968,0.23179 0.620496,0.35557 -0.143885,0.12863 -0.291585,0.25478 -0.442215,0.37748 -0.221551,-0.11081 -0.427312,-0.2546 -0.657349,-0.38047 0.149134,-0.1177 0.318359,-0.22161 0.479068,-0.35258 z m -9.249689,0.13056 c 0.111727,0.0744 0.219972,0.15493 0.330666,0.23107 a 0.07183035,0.07183035 0 0 0 -0.01892,-0.006 c -0.198166,-0.0238 -0.418473,-0.0193 -0.631452,-0.0189 0.102507,-0.0694 0.20961,-0.13719 0.319711,-0.20617 z m -2.542743,0.0946 c 0.153394,0.10001 0.300642,0.21895 0.45616,0.33664 a 0.07183035,0.07183035 0 0 0 9.96e-4,0 c 0.497,0.36743 0.994654,0.74208 1.491982,1.1165 -0.05598,-0.0265 -0.11189,-0.0491 -0.165333,-0.0707 -3.88e-4,-1.6e-4 -6.07e-4,-8.5e-4 -9.97e-4,-10e-4 -0.0054,-0.005 -0.011,-0.009 -0.01494,-0.0119 -3.28e-4,-2.6e-4 -6.79e-4,2.6e-4 -9.97e-4,0 -0.0018,-0.002 -0.0012,-0.002 -0.002,-0.003 a 0.07183035,0.07183035 0 0 0 -0.05677,-0.0279 c -0.01863,0 -0.01791,9.2e-4 -0.01793,0.001 -2e-6,0 -9.96e-4,0 -9.96e-4,0 0.01663,0.003 0.0067,0.002 -0.009,-0.01 -0.01562,-0.0119 -0.04688,-0.0402 -0.0986,-0.0289 a 0.07183035,0.07183035 0 0 0 -0.02788,0.012 l -0.009,-0.009 -0.01,0.01 a 0.07183035,0.07183035 0 0 0 -0.01892,0.0677 c -0.0067,0.0212 -0.01118,0.0403 -0.01095,0.0608 -0.446911,-0.34215 -0.894136,-0.67868 -1.341589,-1.02088 l 0,-0.12251 a 0.07183035,0.07183035 0 0 0 -0.04582,-0.0667 c -9.96e-4,-0.009 0.0011,-0.0153 -9.96e-4,-0.0249 a 0.07183035,0.07183035 0 0 0 -0.08963,-0.0548 c -0.01738,0.005 -0.02224,0.0224 -0.03486,0.0349 0.0031,-0.064 0.009,-0.12429 0.008,-0.18724 z m 10.741669,0.0359 c 0.198493,0.10864 0.385594,0.22989 0.583645,0.34959 -0.167412,0.14423 -0.333388,0.28834 -0.51791,0.41333 -0.188429,-0.11735 -0.380292,-0.24715 -0.58763,-0.36453 0.154998,-0.13693 0.344019,-0.25464 0.521895,-0.39839 z m 3.091529,0.0608 c 0.194222,0.0969 0.380792,0.21628 0.565718,0.33465 -0.147182,0.1253 -0.301091,0.24662 -0.454168,0.37648 -0.177391,-0.0958 -0.350333,-0.21366 -0.541815,-0.3217 0.129725,-0.12771 0.286849,-0.24258 0.430265,-0.38943 z m -10.93489,0.0568 c 0.658031,0.45353 1.304782,0.9273 1.968061,1.38143 -0.08071,0.0545 -0.170239,0.10735 -0.287839,0.17629 a 0.07183035,0.07183035 0 0 0 -9.96e-4,0 c -0.132969,0.0798 -0.281156,0.18897 -0.385445,0.22808 a 0.07183035,0.07183035 0 0 0 -0.002,9.9e-4 c -0.102194,0.0413 -0.174495,0.0286 -0.250987,-0.008 -0.07649,-0.0365 -0.152362,-0.10208 -0.234056,-0.16533 -0.52047,-0.39801 -1.056235,-0.80086 -1.612496,-1.20912 -0.04685,-0.0345 -0.09943,-0.0769 -0.138442,-0.11554 -0.03901,-0.0386 -0.05737,-0.0804 -0.05677,-0.0727 -0.0021,-0.028 0.0032,-0.0388 0.01095,-0.0488 0.0077,-0.0101 0.02227,-0.0207 0.0498,-0.0299 0.05505,-0.0183 0.152024,-0.0229 0.260948,-0.0179 0.108924,0.005 0.230148,0.0167 0.343614,0.0219 0.113466,0.005 0.218728,0.006 0.306763,-0.0249 a 0.07183035,0.07183035 0 0 0 0.02888,-0.11653 z m 6.518704,0.008 c 0.204373,0.12357 0.414707,0.2531 0.616513,0.38046 -0.198928,0.1645 -0.402482,0.33231 -0.610537,0.49102 -0.212498,-0.11122 -0.405115,-0.25871 -0.616513,-0.39241 0.193789,-0.16097 0.406578,-0.30793 0.610537,-0.47907 z m 3.157264,0.0916 c 0.416808,0.19505 0.796315,0.44095 1.194183,0.67229 -0.129807,0.14185 -0.29755,0.26627 -0.460143,0.40835 -0.384877,-0.23502 -0.784857,-0.46381 -1.163308,-0.70416 0.129758,-0.12283 0.284659,-0.2378 0.429268,-0.37648 z m -1.065701,0.25696 c 0.562849,0.29291 1.084772,0.64256 1.649347,0.95615 -0.172251,0.14593 -0.347638,0.29051 -0.532851,0.42827 -0.541586,-0.32133 -1.071676,-0.65566 -1.605522,-0.98702 0.151538,-0.13533 0.323427,-0.25543 0.489026,-0.3974 z m -1.306729,0.14243 c 0.221022,0.11192 0.42146,0.26254 0.649381,0.39441 -0.07137,0.058 -0.148928,0.11747 -0.229076,0.18824 -0.206378,-0.12813 -0.418533,-0.26649 -0.639421,-0.39543 0.06745,-0.062 0.140322,-0.12234 0.219116,-0.18724 z m -0.384448,0.31572 c 0.210282,0.12105 0.413327,0.25776 0.628465,0.38744 -0.02145,0.0241 -0.03615,0.0465 -0.0747,0.0737 -0.04646,0.0328 -0.09922,0.07 -0.149397,0.10856 -0.210513,-0.11595 -0.403359,-0.25395 -0.612529,-0.38445 0.05778,-0.0563 0.130263,-0.11367 0.208161,-0.18525 z m 1.206134,0.19123 c 0.213713,0.10827 0.40851,0.24887 0.627468,0.37449 -0.05748,0.0604 -0.129345,0.11854 -0.209155,0.18426 -0.21518,-0.10761 -0.414459,-0.2488 -0.639421,-0.3715 0.0626,-0.0561 0.139669,-0.11402 0.221108,-0.18725 z m -8.223826,0.0169 c 0.06495,0.0341 -0.02893,0.11457 -0.05478,0.0757 l 0.05478,-0.0757 z m 7.823441,0.2988 c 0.22323,0.11175 0.438297,0.2379 0.648384,0.36851 -0.07263,0.0696 -0.158436,0.1383 -0.247003,0.21314 -0.214856,-0.12028 -0.421421,-0.25521 -0.619501,-0.39441 0.0671,-0.0583 0.14115,-0.117 0.21812,-0.18724 z m 1.204143,0.18027 c 0.217941,0.10432 0.415135,0.25053 0.642408,0.3725 -0.05788,0.0572 -0.130181,0.11455 -0.20816,0.18326 -0.223385,-0.11124 -0.428545,-0.25241 -0.652368,-0.38047 0.07114,-0.0577 0.143789,-0.11558 0.21812,-0.17529 z m -0.37947,0.31672 c 0.220674,0.10702 0.429232,0.23133 0.633445,0.36453 -0.08586,0.0834 -0.179552,0.16453 -0.281863,0.23605 -0.211836,-0.11529 -0.408527,-0.25824 -0.616513,-0.39242 0.08585,-0.0673 0.174126,-0.13452 0.264931,-0.20816 z m -8.282588,0.40935 c 0.403155,0.30998 0.808493,0.61822 1.206134,0.93223 a 0.07183035,0.07183035 0 0 0 0.03287,0.0139 c 0.02952,0.005 0.04717,0.0169 0.0737,0.0388 0.01724,0.0143 0.04547,0.034 0.07071,0.0528 l 0,0.12351 a 0.07183035,0.07183035 0 0 0 0.07171,0.0717 c 0.0015,0 0.0034,-9.2e-4 0.005,-0.001 a 0.07183035,0.07183035 0 0 0 0.07071,0.0618 c 0.0036,0 0.008,-0.004 0.01195,-0.004 -6.2e-5,0.01 0.0014,0.0149 9.97e-4,0.0249 -0.0021,0.0547 -9.97e-4,0.11793 -0.004,0.17928 -0.548659,-0.40989 -1.094409,-0.8322 -1.641379,-1.24797 0.01876,0.001 0.03668,0.005 0.05677,0.001 a 0.07183035,0.07183035 0 0 0 0.05179,-0.0428 c 0.02759,-0.0665 0.02721,-0.13538 0.004,-0.19123 -0.0023,-0.005 -0.0083,-0.008 -0.01095,-0.013 z m -0.278876,0.0448 c 9.97e-4,9.2e-4 0.002,0.001 0.003,0.002 l -0.02888,0.0438 c -9.96e-4,-7.2e-4 -0.0021,-0.001 -0.003,-0.002 l 0.02888,-0.0438 z m 8.513657,0.89837 c -0.01226,0.0354 -0.02171,0.0732 -0.01295,0.11553 a 0.07183035,0.07183035 0 0 0 0.06474,0.0568 c 0.02766,0.002 0.05175,-0.006 0.07669,-0.0109 -0.262045,0.22084 -0.532204,0.44913 -0.789814,0.66532 -6.63e-4,-0.0115 0.005,-0.0235 0.004,-0.0349 -0.0048,-0.0564 -0.01295,-0.11287 -0.01295,-0.16135 a 0.07183035,0.07183035 0 0 0 -0.002,-0.0169 c 0.0011,-0.0176 0.0015,-0.0325 0.008,-0.0518 a 0.07183035,0.07183035 0 0 0 9.96e-4,-0.003 c -0.0015,0.005 0.0073,-0.0126 0.0259,-0.0319 0.01863,-0.0193 0.04531,-0.0431 0.0757,-0.0677 0.06058,-0.0491 0.133978,-0.10238 0.191229,-0.15139 0.124912,-0.10418 0.246246,-0.2046 0.370505,-0.30776 z m -6.310544,0.5219 c 0.878813,0.61918 1.713649,1.28104 2.579595,1.92423 l 0,0.32569 c -0.178766,-0.0903 -0.337925,-0.24816 -0.521895,-0.38744 l -9.97e-4,-10e-4 c -0.604589,-0.47353 -1.246611,-0.9251 -1.863482,-1.39537 l 0,-0.13844 a 0.07183035,0.07183035 0 0 0 -0.06573,-0.0717 c -0.0016,-1.2e-4 -0.0034,0.002 -0.005,0.002 -0.0024,-0.0206 -0.0024,-0.0406 -0.01793,-0.0628 a 0.07183035,0.07183035 0 0 0 -0.0996,-0.0179 c -0.0025,-0.0538 -0.0059,-0.1114 -0.005,-0.17729 z m -0.190232,0.15935 c -2.16e-4,0.004 1.74e-4,0.008 0,0.0119 -0.0012,-9.2e-4 -0.0028,-0.002 -0.004,-0.003 l 0,-0.008 a 0.07183035,0.07183035 0 0 0 0.004,-9.9e-4 z m 5.477902,0.16633 0,0.19621 a 0.07183035,0.07183035 0 0 0 0.02789,0.0568 c -0.0051,0.009 -0.0093,0.018 -0.02689,0.0368 -0.02416,0.026 -0.05816,0.0562 -0.09561,0.0867 -0.0749,0.061 -0.162596,0.12318 -0.224096,0.17131 a 0.07183035,0.07183035 0 0 0 -0.003,0.002 c -0.141732,0.12148 -0.279573,0.23234 -0.397397,0.32967 -0.399796,0.32542 -0.73408,0.61088 -1.111516,0.90834 l 0,-0.29681 c 0.620992,-0.48984 1.212231,-1.00575 1.830615,-1.49098 z m -1.915274,1.83659 0.02391,0.001 c -0.0025,0.002 -0.0045,0.004 -0.007,0.006 l -0.01892,0 a 0.07183035,0.07183035 0 0 0 0.002,-0.004 c 5.05e-4,-10e-4 -4.86e-4,-0.002 0,-0.003 z m -0.435244,0.0369 c 5.1e-4,0.0576 0.0038,0.11527 0.01693,0.16733 -0.01453,-0.002 -0.02764,-0.004 -0.04084,-0.007 -0.0024,-0.0514 -0.0055,-0.10252 -0.01,-0.15039 0.01032,-2.2e-4 0.02224,-0.006 0.03386,-0.01 z m 0.351582,0.003 a 0.07183035,0.07183035 0 0 0 0.02092,0.003 c -0.0042,0.0264 -0.0064,0.0556 -0.01693,0.0707 -7.65e-4,0.001 -0.0032,9.2e-4 -0.004,0.002 -5.1e-4,-0.0275 8.43e-4,-0.0492 0,-0.0757 z" />
    </g>
    <path
       d="m 432.40417,396.43495 c -0.09,9.5e-4 -0.18,0 -0.28,0.01 l 0,0 c -0.82,0.06 -1.52,0.31 -2.09,0.75 l 0,0 -20.76,16.26 c 0,0 0,0 -0.01,0.01 -0.16,0.13 -0.45,0.36 -0.86,0.68 -0.01,0 -0.02,0.01 -0.03,0.02 -0.42,0.37 -0.73,0.77 -0.93,1.2 -0.02,0.04 -0.05,0.08 -0.07,0.13 0,0.01 -0.01,0.02 -0.01,0.03 -0.98,2.27 -0.2,4.19 2.33,5.77 0.01,0 0.03,0.01 0.05,0.02 l 16.03,7.89 0,0 c 1.76,0.83 3.4,1.11 4.92,0.82 l 0,0 c 1.54,-0.28 2.89,-1.11 4.05,-2.49 l 0,0 16.3,-19.47 c 0,0 0,0 0.01,-0.01 0.36,-0.44 0.54,-0.99 0.55,-1.67 l 0,0 c 5e-4,-0.51 -0.1,-1.02 -0.3,-1.51 0,0 0,0 0,-0.01 -0.05,-0.11 -0.1,-0.22 -0.15,-0.32 0,0 0,-0.01 -0.01,-0.02 l 0,0 c -0.01,-0.03 -0.03,-0.05 -0.04,-0.08 l 0.01,0.02 c 0,0 0,-0.01 -0.01,-0.02 0,0 0,0 -0.01,-0.01 -0.01,-0.01 -0.02,-0.04 -0.03,-0.06 -0.02,-0.04 -0.04,-0.08 -0.07,-0.12 0,-0.01 -0.01,-0.02 -0.02,-0.03 -0.22,-0.33 -0.43,-0.6 -0.63,-0.79 -0.34,-0.36 -0.71,-0.61 -1.13,-0.77 l -14.79,-5.85 c -0.67,-0.25 -1.35,-0.38 -2.01,-0.37 z m 0,0.6 c 0.59,0 1.19,0.1 1.79,0.33 l 14.79,5.84 c 0.33,0.13 0.63,0.33 0.9,0.59 0.17,0.17 0.36,0.4 0.56,0.7 0.03,0.05 0.06,0.11 0.09,0.17 0,0 0.01,0.01 0.01,0.02 0,0 0,0 0,0.01 0.09,0.21 0.14,0.48 0.14,0.81 0,0.43 -0.07,0.76 -0.24,0.98 l -16.09,19.04 c -0.88,1 -1.93,1.62 -3.14,1.86 -1.25,0.24 -2.56,0.06 -3.92,-0.56 l -17.44,-8.34 c -0.54,-0.26 -1.02,-0.63 -1.44,-1.12 -0.54,-0.63 -0.69,-1.19 -0.45,-1.69 0.17,-0.37 0.44,-0.72 0.8,-1.05 0.42,-0.32 0.72,-0.55 0.88,-0.69 l 20.74,-16.25 c 0.48,-0.36 1.07,-0.58 1.77,-0.63 0.08,0 0.16,-0.01 0.25,-0.01 z m 0.19,0.21 c -0.14,2.5e-4 -0.29,0 -0.43,0.02 -0.57,0.06 -1.09,0.25 -1.53,0.58 l -20.47,16.22 c -0.47,0.37 -0.67,0.82 -0.59,1.34 0.08,0.56 0.48,1.01 1.19,1.34 l 16.96,8.07 c 1.03,0.41 1.93,0.6 2.69,0.58 0.81,-0.02 1.48,-0.28 2.01,-0.79 l 17.33,-19.25 c 0.3,-0.34 0.36,-0.69 0.18,-1.06 -0.19,-0.36 -0.61,-0.67 -1.24,-0.95 l -14.77,-5.86 c -0.45,-0.15 -0.89,-0.23 -1.32,-0.23 z m -3.27,1.91 18.66,7.73 -13.92,15.34 -21.27,-9.86 16.53,-13.21 z m 8.94,1.35 c 0.07,0 0.15,0.01 0.24,0.04 l 3.41,1.36 c 0.22,0.08 0.25,0.21 0.1,0.39 -0.15,0.17 -0.34,0.21 -0.57,0.12 l -3.38,-1.37 c -0.22,-0.09 -0.26,-0.21 -0.12,-0.38 0.09,-0.1 0.19,-0.15 0.32,-0.16 z m -16.91,16.55 c 0.73,0 1.35,0.17 1.87,0.52 0.51,0.34 0.76,0.77 0.76,1.26 0,0.49 -0.25,0.91 -0.76,1.27 -0.51,0.34 -1.14,0.52 -1.87,0.52 -0.72,0 -1.35,-0.17 -1.86,-0.52 -0.51,-0.35 -0.77,-0.77 -0.77,-1.27 0,-0.49 0.25,-0.91 0.77,-1.26 0.51,-0.35 1.14,-0.52 1.86,-0.52 z m -0.24,1.48 c -0.08,0 -0.15,0.02 -0.21,0.06 l -0.48,0.41 c -0.08,0.06 -0.12,0.12 -0.13,0.18 0,0.05 0.02,0.1 0.09,0.13 l 1,0.52 c 0.17,0.06 0.33,0.04 0.48,-0.06 l 0.42,-0.42 c 0.16,-0.15 0.18,-0.26 0.07,-0.32 l -0.97,-0.44 c -0.09,-0.04 -0.18,-0.06 -0.26,-0.06 z m -7.41,2.29 9.19,4.34 -0.22,1.1 -9.18,-4.39 0.21,-1.06 z"
       id="path4361" />
    <path
       id="rect4377"
       d="M 132.43555 15.509766 L 113.4707 34.474609 L 124.12109 34.474609 C 128.72795 34.474609 132.43555 30.767015 132.43555 26.160156 L 132.43555 15.509766 z "
       style="color:#000000;clip-rule:nonzero;display:inline;overflow:visible;visibility:visible;opacity:1;isolation:auto;mix-blend-mode:normal;color-interpolation:sRGB;color-interpolation-filters:linearRGB;solid-color:#000000;solid-opacity:1;fill:none;fill-opacity:1;fill-rule:nonzero;stroke:#000000;stroke-width:2;stroke-linecap:butt;stroke-linejoin:round;stroke-miterlimit:4;stroke-dasharray:none;stroke-dashoffset:0;stroke-opacity:1;marker:none;marker-start:none;marker-mid:none;marker-end:none;color-rendering:auto;image-rendering:auto;shape-rendering:auto;text-rendering:auto;enable-background:accumulate" />
    <g
       id="g4427">
      <path
         style="fill:none;fill-rule:evenodd;stroke:#000000;stroke-width:0.5;stroke-linecap:butt;stroke-linejoin:miter;stroke-miterlimit:4;stroke-dasharray:none;stroke-opacity:0.19889502"
         d="m 113.14911,117.45423 343.30468,0"
         id="path4385" />
      <path
         id="path4387"
         d="m 113.14911,111.08992 343.30468,0"
         style="fill:none;fill-rule:evenodd;stroke:#000000;stroke-width:0.5;stroke-linecap:butt;stroke-linejoin:miter;stroke-miterlimit:4;stroke-dasharray:none;stroke-opacity:0.19889502" />
      <path
         style="fill:none;fill-rule:evenodd;stroke:#000000;stroke-width:0.5;stroke-linecap:butt;stroke-linejoin:miter;stroke-miterlimit:4;stroke-dasharray:none;stroke-opacity:0.19889502"
         d="m 113.14911,104.66631 343.30468,0"
         id="path4391" />
      <path
         style="fill:none;fill-rule:evenodd;stroke:#000000;stroke-width:0.5;stroke-linecap:butt;stroke-linejoin:miter;stroke-miterlimit:4;stroke-dasharray:none;stroke-opacity:0.19889502"
         d="m 113.14911,98.242705 343.30468,0"
         id="path4395" />
      <path
         id="path4397"
         d="m 113.14911,91.819095 343.30468,0"
         style="fill:none;fill-rule:evenodd;stroke:#000000;stroke-width:0.5;stroke-linecap:butt;stroke-linejoin:miter;stroke-miterlimit:4;stroke-dasharray:none;stroke-opacity:0.19889502" />
      <path
         style="fill:none;fill-rule:evenodd;stroke:#000000;stroke-width:0.5;stroke-linecap:butt;stroke-linejoin:miter;stroke-miterlimit:4;stroke-dasharray:none;stroke-opacity:0.19889502"
         d="m 113.14911,85.471185 343.30468,0"
         id="path4401" />
      <path
         id="path4403"
         d="m 113.14911,79.047575 343.30468,0"
         style="fill:none;fill-rule:evenodd;stroke:#000000;stroke-width:0.5;stroke-linecap:butt;stroke-linejoin:miter;stroke-miterlimit:4;stroke-dasharray:none;stroke-opacity:0.19889502" />
      <path
         id="path4405"
         d="m 113.14911,72.62397 343.30468,0"
         style="fill:none;fill-rule:evenodd;stroke:#000000;stroke-width:0.5;stroke-linecap:butt;stroke-linejoin:miter;stroke-miterlimit:4;stroke-dasharray:none;stroke-opacity:0.19889502" />
      <path
         style="fill:none;fill-rule:evenodd;stroke:#000000;stroke-width:0.5;stroke-linecap:butt;stroke-linejoin:miter;stroke-miterlimit:4;stroke-dasharray:none;stroke-opacity:0.19889502"
         d="m 113.14911,66.20036 343.30468,0"
         id="path4407" />
      <path
         style="fill:none;fill-rule:evenodd;stroke:#000000;stroke-width:0.5;stroke-linecap:butt;stroke-linejoin:miter;stroke-miterlimit:4;stroke-dasharray:none;stroke-opacity:0.19889502"
         d="m 113.14911,59.966025 343.30468,0"
         id="path4411" />
      <path
         id="path4413"
         d="m 113.14911,53.542415 343.30468,0"
         style="fill:none;fill-rule:evenodd;stroke:#000000;stroke-width:0.5;stroke-linecap:butt;stroke-linejoin:miter;stroke-miterlimit:4;stroke-dasharray:none;stroke-opacity:0.19889502" />
      <path
         id="path4415"
         d="m 113.14911,47.11881 343.30468,0"
         style="fill:none;fill-rule:evenodd;stroke:#000000;stroke-width:0.5;stroke-linecap:butt;stroke-linejoin:miter;stroke-miterlimit:4;stroke-dasharray:none;stroke-opacity:0.19889502" />
      <path
         style="fill:none;fill-rule:evenodd;stroke:#000000;stroke-width:0.5;stroke-linecap:butt;stroke-linejoin:miter;stroke-miterlimit:4;stroke-dasharray:none;stroke-opacity:0.19889502"
         d="m 113.14911,40.6952 343.30468,0"
         id="path4417" />
      <path
         id="path4419"
         d="m 113.14911,34.34729 343.30468,0"
         style="fill:none;fill-rule:evenodd;stroke:#000000;stroke-width:0.5;stroke-linecap:butt;stroke-linejoin:miter;stroke-miterlimit:4;stroke-dasharray:none;stroke-opacity:0.19889502" />
      <path
         style="fill:none;fill-rule:evenodd;stroke:#000000;stroke-width:0.5;stroke-linecap:butt;stroke-linejoin:miter;stroke-miterlimit:4;stroke-dasharray:none;stroke-opacity:0.19889502"
         d="m 132.16213,27.92368 324.29166,0"
         id="path4421" />
      <path
         style="fill:none;fill-rule:evenodd;stroke:#000000;stroke-width:0.5;stroke-linecap:butt;stroke-linejoin:miter;stroke-miterlimit:4;stroke-dasharray:none;stroke-opacity:0.19889502"
         d="m 132.58464,21.500075 323.86915,0"
         id="path4423" />
    </g>
    <path
       id="rect4445"
       d="m 180.55491,218.58134 c 0,0.48276 0.18449,0.96503 0.55441,1.33494 l 8.63109,8.63109 c 0.4616,0.4616 1.09908,0.63451 1.69284,0.5201 l 0,-20.97303 c -0.59376,-0.11441 -1.23124,0.0593 -1.69284,0.52087 l -8.63109,8.63031 c -0.36992,0.36992 -0.55441,0.85297 -0.55441,1.33572 z"
       style="color:#000000;clip-rule:nonzero;display:inline;overflow:visible;visibility:visible;opacity:1;isolation:auto;mix-blend-mode:normal;color-interpolation:sRGB;color-interpolation-filters:linearRGB;solid-color:#000000;solid-opacity:1;fill:none;fill-opacity:1;fill-rule:nonzero;stroke:#000000;stroke-width:2;stroke-linecap:butt;stroke-linejoin:miter;stroke-miterlimit:4;stroke-dasharray:none;stroke-dashoffset:0;stroke-opacity:1;marker:none;marker-start:none;marker-mid:none;marker-end:none;color-rendering:auto;image-rendering:auto;shape-rendering:auto;text-rendering:auto;enable-background:accumulate" />
    <path
       style="color:#000000;clip-rule:nonzero;display:inline;overflow:visible;visibility:visible;opacity:1;isolation:auto;mix-blend-mode:normal;color-interpolation:sRGB;color-interpolation-filters:linearRGB;solid-color:#000000;solid-opacity:1;fill:none;fill-opacity:1;fill-rule:nonzero;stroke:#000000;stroke-width:2;stroke-linecap:butt;stroke-linejoin:miter;stroke-miterlimit:4;stroke-dasharray:none;stroke-dashoffset:0;stroke-opacity:1;marker:none;marker-start:none;marker-mid:none;marker-end:none;color-rendering:auto;image-rendering:auto;shape-rendering:auto;text-rendering:auto;enable-background:accumulate"
       d="m 354.37456,189.37528 -1.61419,1.73769 1.77585,4.34164 0.85502,0.91473 2.3631,1.53827 -1.9265,4.15129 -2.69973,-0.81363 -1.25088,-0.0622 -4.4627,1.44631 -0.28552,2.35474 3.98955,2.46874 1.22876,0.2389 2.81638,-0.14578 0.88089,4.49106 -2.66248,0.9291 -1.04757,0.68515 -2.76075,3.79344 1.1536,2.07256 4.67881,-0.34748 1.13371,-0.53038 2.1932,-1.7722 3.3528,3.11518 -1.60796,2.31684 -0.44503,1.16913 -0.004,4.69161 2.15176,0.99812 3.58079,-3.03075 0.60691,-1.0948 0.73108,-2.72324 4.54333,0.55012 0.0622,2.81897 0.3263,1.20762 2.75483,3.79816 2.32744,-0.45627 1.11615,-4.55788 -0.15426,-1.2424 -1.00765,-2.63295 3.99793,-2.22528 1.70679,2.2438 0.97464,0.78579 4.46189,1.45308 1.6142,-1.73768 -1.77644,-4.34273 -0.85444,-0.91364 -2.3631,-1.53827 1.92651,-4.15128 2.69973,0.81362 1.25027,0.0611 4.4627,-1.4463 0.28553,-2.35475 -3.98955,-2.46874 -1.22817,-0.23781 -2.81638,0.14579 -0.88088,-4.49107 2.66187,-0.93018 1.04817,-0.68406 2.76075,-3.79346 -1.15359,-2.07255 -4.67882,0.34748 -1.1343,0.52929 -2.19261,1.77329 -3.3528,-3.11518 1.60796,-2.31684 0.44444,-1.17022 0.004,-4.6916 -2.15177,-0.99814 -3.58078,3.03076 -0.60631,1.09588 -0.73108,2.72326 -4.54334,-0.55013 -0.0622,-2.81898 -0.32688,-1.2087 -2.75423,-3.79707 -2.32745,0.45626 -1.11615,4.55789 0.15367,1.24132 1.00824,2.63402 -3.99792,2.22528 -1.7074,-2.24488 -0.97404,-0.78469 -4.4619,-1.4531 z m 11.94045,8.3972 a 10.233152,10.233152 0 0 1 13.91822,3.96362 10.233152,10.233152 0 0 1 -3.9647,13.91882 10.233152,10.233152 0 0 1 -13.91882,-3.96471 10.233152,10.233152 0 0 1 3.9653,-13.91773 z"
       id="path4541" />
    <path
       id="path4678"
       d="m 408.19319,191.655 -2.24645,1.44503 0.71691,4.64035 0.78964,1.61306 1.53731,1.82989 -3.37466,3.44516 -1.86177,-1.49937 -1.6283,-0.75662 -4.65434,-0.62064 -1.39704,2.27546 2.65921,3.8693 1.41081,1.11054 2.17952,0.98237 -1.54527,4.56764 -2.3282,-0.54271 -1.7953,0.0243 -4.4623,1.45947 -0.27228,2.65818 4.07483,2.332 1.7539,0.38736 2.3897,-0.0597 0.5885,4.78527 -2.33235,0.52073 -1.60712,0.80234 -3.38677,3.25119 0.90821,2.51205 4.68285,0.33372 1.74821,-0.41212 2.1261,-1.09117 2.60813,4.05646 -1.87584,1.48106 -1.10068,1.4194 -1.641,4.39984 1.90877,1.8683 4.36392,-1.73155 1.39579,-1.12939 1.44329,-1.90491 4.10853,2.52223 -1.04738,2.14902 -0.37448,1.75598 0.42999,4.67526 2.5296,0.85716 3.18094,-3.45475 0.76798,-1.62296 0.47293,-2.34211 4.79715,0.48939 -0.0113,2.3911 0.42405,1.74389 2.4163,4.02595 2.65115,-0.32564 1.36732,-4.49251 -0.0123,-1.7956 -0.59051,-2.31526 4.53363,-1.63908 1.02694,2.15744 1.13883,1.38831 3.9241,2.57945 2.24646,-1.44504 -0.71692,-4.64034 -0.7904,-1.61144 -1.53655,-1.83151 3.3739,-3.44354 1.86252,1.49775 1.62712,0.75704 4.65477,0.62184 1.3978,-2.27707 -2.65921,-3.86931 -1.41202,-1.11009 -2.1783,-0.98282 1.54568,-4.56644 2.32658,0.54195 1.79651,-0.0247 4.46228,-1.45947 0.27152,-2.65655 -4.07526,-2.3332 -1.75269,-0.38779 -2.38928,0.061 -0.58893,-4.78647 2.33235,-0.52072 1.60636,-0.80071 3.38795,-3.25163 -0.9082,-2.51205 -4.68405,-0.33329 -1.74744,0.41051 -2.1261,1.09117 -2.6077,-4.05525 1.87542,-1.48226 1.09947,-1.41897 1.64143,-4.39864 -1.908,-1.86993 -4.36392,1.73155 -1.39698,1.12982 -1.44167,1.90566 -4.10895,-2.52341 1.04619,-2.14859 0.37565,-1.75642 -0.42998,-4.67525 -2.53036,-0.85553 -3.18137,3.45354 -0.76679,1.62254 -0.47369,2.34373 -4.79638,-0.49102 0.0105,-2.38947 -0.4233,-1.74552 -2.41628,-4.02596 -2.65116,0.32565 -1.36732,4.49251 0.0123,1.79561 0.59082,2.31648 -4.53363,1.63908 -1.02737,-2.15863 -1.13884,-1.38831 -3.92409,-2.57945 z m 10.47883,11.17728 a 18.45719,18.45719 0 0 1 23.63313,11.08218 18.45719,18.45719 0 0 1 -11.08219,23.63314 18.45719,18.45719 0 0 1 -23.63313,-11.08218 18.45719,18.45719 0 0 1 11.08219,-23.63314 z"
       style="color:#000000;clip-rule:nonzero;display:inline;overflow:visible;visibility:visible;opacity:1;isolation:auto;mix-blend-mode:normal;color-interpolation:sRGB;color-interpolation-filters:linearRGB;solid-color:#000000;solid-opacity:1;fill:none;fill-opacity:1;fill-rule:nonzero;stroke:#000000;stroke-width:2;stroke-linecap:butt;stroke-linejoin:miter;stroke-miterlimit:4;stroke-dasharray:none;stroke-dashoffset:0;stroke-opacity:1;marker:none;marker-start:none;marker-mid:none;marker-end:none;color-rendering:auto;image-rendering:auto;shape-rendering:auto;text-rendering:auto;enable-background:accumulate" />
    <rect
       style="color:#000000;clip-rule:nonzero;display:inline;overflow:visible;visibility:visible;opacity:1;isolation:auto;mix-blend-mode:normal;color-interpolation:sRGB;color-interpolation-filters:linearRGB;solid-color:#000000;solid-opacity:1;fill:none;fill-opacity:1;fill-rule:nonzero;stroke:#000000;stroke-width:2;stroke-linecap:butt;stroke-linejoin:miter;stroke-miterlimit:4;stroke-dasharray:none;stroke-dashoffset:0;stroke-opacity:1;marker:none;marker-start:none;marker-mid:none;marker-end:none;color-rendering:auto;image-rendering:auto;shape-rendering:auto;text-rendering:auto;enable-background:accumulate"
       id="rect4757"
       width="243.05939"
       height="84.487534"
       x="220.69287"
       y="173.99178"
       rx="8.31563"
       ry="8.31563" />
    <path
       style="color:#000000;clip-rule:nonzero;display:inline;overflow:visible;visibility:visible;opacity:1;isolation:auto;mix-blend-mode:normal;color-interpolation:sRGB;color-interpolation-filters:linearRGB;solid-color:#000000;solid-opacity:1;fill:none;fill-opacity:1;fill-rule:nonzero;stroke:#000000;stroke-width:2;stroke-linecap:butt;stroke-linejoin:miter;stroke-miterlimit:4;stroke-dasharray:none;stroke-dashoffset:0;stroke-opacity:1;marker:none;marker-start:none;marker-mid:none;marker-end:none;color-rendering:auto;image-rendering:auto;shape-rendering:auto;text-rendering:auto;enable-background:accumulate"
       d="m 261.45635,350.66497 c 0.48276,0 0.96503,-0.18449 1.33494,-0.55441 l 8.63109,-8.63109 c 0.4616,-0.4616 0.63451,-1.09908 0.5201,-1.69284 l -20.97303,0 c -0.11441,0.59376 0.0593,1.23124 0.52087,1.69284 l 8.63031,8.63109 c 0.36992,0.36992 0.85297,0.55441 1.33572,0.55441 z"
       id="path4788" />
  </g>
</svg>
