<?xml version="1.0" encoding="UTF-8" standalone="no"?><svg xmlns:dc="http://purl.org/dc/elements/1.1/" xmlns:cc="http://creativecommons.org/ns#" xmlns:rdf="http://www.w3.org/1999/02/22-rdf-syntax-ns#" xmlns:svg="http://www.w3.org/2000/svg" xmlns="http://www.w3.org/2000/svg" height="100%" width="100%" version="1.1" id="gp002" viewBox="0 0 640 480">
<defs>
    <style type="text/css">
        svg#gp002 .c1         { fill:#ed6c30 !important; fill-opacity:1 !important; }
        svg#gp002 .c2         { fill:#bdcf46 !important; fill-opacity:1 !important; }
        svg#gp002 .c3         { fill:#757f3f !important; fill-opacity:1 !important; }

        svg#gp002 .canvas     { display:none; }

        svg#gp002 .c          { fill:white; fill-opacity:0.2; stroke:black; stroke-width:2; cursor:pointer; }
        svg#gp002 .wrong      { fill:purple !important; fill-opacity:0.8 !important; }
    </style>
</defs>


<rect y="10" x="10" height="460" width="620" id="rect4315" style="fill:white" />

<g id="canvas1" class="canvas">
<path d="M 630 374.275 L 527.544 470 L 630 470 L 630 374.275 z " class="c" />
<path d="M 136.105 290.197 L 10 317.921 L 10 470 L 238.699 470 L 111.427 371.427 L 136.105 290.197 z " class="c" />
<path d="M 213.460 273.189 L 136.105 290.197 L 111.427 371.427 L 238.699 470 L 351.898 470 L 191.427 345.714 L 213.460 273.189 z " class="c" />
<path d="M 333.082 246.888 L 213.460 273.189 L 191.427 345.714 L 270.322 406.820 L 341.640 348.376 L 333.082 246.888 z " class="c" />
<path d="M 341.640 348.376 L 270.322 406.820 L 351.898 470 L 341.640 348.376 z " class="c" />
<path d="M 608.824 10 L 456.621 219.728 L 630 181.609 L 630 10 L 608.824 10 z " class="c" />
<path d="M 457.023 219.640 L 333.082 246.888 L 341.640 348.376 L 344.486 382.111 L 483.498 352.015 L 457.023 219.640 z " class="c" />
<path d="M 630 181.609 L 457.023 219.640 L 465.085 259.955 L 630 237.671 L 630 181.609 z " class="c" />
<path d="m 630,237.671 -164.914,22.283 18.412,92.060 L 527.544,470 630,374.275 Z" class="c" />
<path d="M 483.498,352.015 344.486,382.111 351.898,470 527.544,470 Z M 351.898,470 Z" class="c" />
<path d="M 10 10 L 10 208.804 L 135.560 290.246 L 10 317.921 L 135.789 290.351 L 10 10 z " class="c" />
<path d="m 195.705,10 17.490,263.385 119.871,-26.479 z" class="c" />
<path d="M 10 10 L 60.746 123.097 L 213.035 273.283 L 213.185 273.25 L 195.705 10 L 10 10 z " class="c" />
<path d="M 195.705 10 L 333.126 247.046 L 333.181 246.867 L 369.910 127.269 L 497.482 10 L 195.705 10 z " class="c" />
<path d="M 497.482 10 L 369.910 127.269 L 333.181 246.867 L 456.621 219.728 L 551.283 89.287 L 497.482 10 z " class="c" />
<path d="M 497.482,10 551.283,89.287 608.824,10 Z" class="c" />
<path d="m 10,208.804 0,109.117 125.560,-27.676 z" class="c" />
<path d="M 60.746,123.097 135.753,290.273 213.082,273.328 Z" class="c" />
</g>

<g id="canvas2" class="canvas">
<path d="M 10 10 L 10 311.578 L 199.886 107.789 L 237.142 200 L 160.412 10 L 10 10 z " class="c" />
<path d="M 160.412 10 L 199.880 107.730 L 354.498 10 L 160.412 10 z " class="c" />
<path d="M 568.703 10 L 411.666 281.244 L 630 220.138 L 630 10 L 568.703 10 z " class="c" />
<path d="M 354.498 10 L 199.880 107.730 L 237.142 200 L 334.216 245.189 L 354.498 10 z " class="c" />
<path d="M 470.378 10 L 334.216 245.189 L 411.666 281.244 L 568.703 10 L 470.378 10 z " class="c" />
<path d="M 630 220.138 L 411.666 281.244 L 630 382.880 L 630 220.138 z " class="c" />
<path d="M 354.498,10 334.216,245.189 470.378,10 Z" class="c" />
<path d="M 199.886,107.789 10,311.578 237.142,200 Z" class="c" />
<path d="m 237.142,200 -38.027,18.679 0,0.021 37.746,-18.539 L 215.875,357.363 334.260,245.199 Z" class="c" />
<path d="M 334.251,245.207 215.875,357.363 200.837,470 l 247.982,0 z" class="c" />
<path d="M 334.251,245.207 448.820,470 l 79.103,0 0,-52.244 -116.257,-136.511 z" class="c" />
<path d="m 630,382.442 -102.076,35.450 0,52.106 L 630,470 Z" class="c" />
<path d="m 411.666,281.244 116.257,136.511 0,0.136 101.535,-35.263 -217.792,-101.384 z" class="c" />
<path d="M 10,311.57812 10,470 200.83789,470 215.9248,356.9642 Z" class="c" />
<path d="M 236.86133,200.16211 10,311.57812 215.92383,356.96484 Z" class="c" />
</g>



<rect y="10" x="10" height="460" width="620" id="rect4315" style="fill:none;stroke:#000000;stroke-width:2" />


</svg>