<?xml version="1.0" encoding="UTF-8" standalone="no"?>
<svg xmlns:dc="http://purl.org/dc/elements/1.1/" xmlns:cc="http://creativecommons.org/ns#" xmlns:rdf="http://www.w3.org/1999/02/22-rdf-syntax-ns#" xmlns:svg="http://www.w3.org/2000/svg" xmlns="http://www.w3.org/2000/svg" viewBox="0 0 640 480" version="1.1" id="img001" height="100%" width="100%">
<defs>

    <style type="text/css">
    
        svg#img001 .c.c0 path        { fill:white; }
        svg#img001 .c.c1 path        { fill:#081820; }
        svg#img001 .c.c2 path        { fill:#346856; }
        svg#img001 .c.c3 path        { fill:#88c070; }
        svg#img001 .c.c4 path        { fill:#e0f8d0; }
        
        svg#img001.db6 .c.c0 path    { fill:white; }
        svg#img001.db6 .c.c1 path    { fill:#ed6c30; }
        svg#img001.db6 .c.c2 path    { fill:#bdcf46; }
        svg#img001.db6 .c.c3 path    { fill:#757f3f; }
        svg#img001.db6 .c.c4 path    { fill:#f79329; }
        svg#img001.db6 .c.c5 path    { fill:#78a3ad; }
        svg#img001.db6 .c.c6 path    { fill:#855c52; }
        
        svg#img001.db16 .c.c0 path   { fill:white; }
        svg#img001.db16 .c.c1 path   { fill:#140c1c; }
        svg#img001.db16 .c.c2 path   { fill:#442434; }
        svg#img001.db16 .c.c3 path   { fill:#30346d; }
        svg#img001.db16 .c.c4 path   { fill:#4e4a4f; }
        svg#img001.db16 .c.c5 path   { fill:#854c30; }
        svg#img001.db16 .c.c6 path   { fill:#346524; }
        svg#img001.db16 .c.c7 path   { fill:#d04648; }
        svg#img001.db16 .c.c8 path   { fill:#757161; }
        svg#img001.db16 .c.c9 path   { fill:#597dce; }
        svg#img001.db16 .c.ca path   { fill:#d27d2c; }
        svg#img001.db16 .c.cb path   { fill:#8595a1; }
        svg#img001.db16 .c.cc path   { fill:#6daa2c; }
        svg#img001.db16 .c.cd path   { fill:#d2aa99; }
        svg#img001.db16 .c.ce path   { fill:#6dc2ca; }
        svg#img001.db16 .c.cf path   { fill:#dad45e; }
        svg#img001.db16 .c.cg path   { fill:#deeed6; }
        
        svg#img001.db32 .c.c0 path   { fill:white; }
        svg#img001.db32 .c.c1 path   { fill:#000000; }
        svg#img001.db32 .c.c2 path   { fill:#231f34; }
        svg#img001.db32 .c.c3 path   { fill:#44283c; }
        svg#img001.db32 .c.c4 path   { fill:#663931; }
        svg#img001.db32 .c.c5 path   { fill:#8f563b; }
        svg#img001.db32 .c.c6 path   { fill:#df7126; }
        svg#img001.db32 .c.c7 path   { fill:#d99f65; }
        svg#img001.db32 .c.c8 path   { fill:#eec49b; }
        svg#img001.db32 .c.c9 path   { fill:#faf235; }
        svg#img001.db32 .c.ca path   { fill:#99e550; }
        svg#img001.db32 .c.cb path   { fill:#6bbd2f; }
        svg#img001.db32 .c.cc path   { fill:#36946e; }
        svg#img001.db32 .c.cd path   { fill:#4b692e; }
        svg#img001.db32 .c.ce path   { fill:#534b25; }
        svg#img001.db32 .c.cf path   { fill:#323c39; }
        svg#img001.db32 .c.cg path   { fill:#3f3e73; }
        svg#img001.db32 .c.ch path   { fill:#2f6082; }
        svg#img001.db32 .c.ci path   { fill:#5a6ee1; }
        svg#img001.db32 .c.cj path   { fill:#649aff; }
        svg#img001.db32 .c.ck path   { fill:#5fcde4; }
        svg#img001.db32 .c.cl path   { fill:#cbdbfc; }
        svg#img001.db32 .c.cm path   { fill:#ffffff; }
        svg#img001.db32 .c.cn path   { fill:#9badb7; }
        svg#img001.db32 .c.co path   { fill:#847e87; }
        svg#img001.db32 .c.cp path   { fill:#696a6a; }
        svg#img001.db32 .c.cq path   { fill:#595651; }
        svg#img001.db32 .c.cr path   { fill:#75418a; }
        svg#img001.db32 .c.cs path   { fill:#ac3232; }
        svg#img001.db32 .c.ct path   { fill:#d95662; }
        svg#img001.db32 .c.cu path   { fill:#d67bba; }
        svg#img001.db32 .c.cv path   { fill:#8f974a; }
        svg#img001.db32 .c.cw path   { fill:#896e2f; }

        svg#img001 .c          { cursor:pointer; }
        svg#img001 .c path     { fill:white; }
        svg#img001 .wrong path    { fill:red !important; }

        svg#img001 text        { font-size:22px;text-anchor:middle;fill:black;font-weight:bold; opacity:0.6; }

    </style>
</defs>
<g id="canvas">
<g class="c"><path id="rect4351" d="M 369.294 249.894 C 365.513 249.894 362.468 252.937 362.468 256.718 L 362.468 420.230 C 362.468 424.011 365.513 427.054 369.294 427.054 L 640 427.054 L 640 249.894 L 369.294 249.894 z "/><text transform="translate(580,350)" class="t"></text></g>
<g class="c"><path d="M 142 174 L 342 174 L 342 424 L 142 424 L 142 174 z/"/><text transform="translate(250,320)" class="t"></text></g>
<g class="c"><path id="rect4349" d="M 0 201.021 L 0 461.673 L 139.791 461.673 C 143.572 461.673 146.617 458.628 146.617 454.847 L 146.617 207.847 C 146.617 204.066 143.572 201.021 139.791 201.021 L 0 201.021 z "/><text transform="translate(30,330)" class="t"></text></g>
<g class="c "><path id="path4310" d="M 515.216 382.691 C 366.890 382.869 135.394 398.559 0 425.503 L 0 480 L 640 480 L 640 389.785 C 618.058 384.905 572.948 382.622 515.216 382.691 z " style="stroke:#000000;stroke-width:3;stroke-linecap:butt;stroke-linejoin:miter;"/><text transform="translate(350,450)" class="t"></text></g>
<g class="c"><path id="rect4353" d="M 269.773 0 L 269.773 264.439 L 640 264.439 L 640 0 L 269.773 0 z " style="stroke:#000000;stroke-width:3;stroke-linecap:round;stroke-linejoin:round;"/><text transform="translate(500,110)" class="t"></text></g>
<g class="c"><path id="path4406" d="M 336.970 0 C 421.602 52.470 554.943 76.723 640 86.455 L 640 0 L 336.970 0 z " style="stroke:#000000;stroke-width:3;stroke-linecap:butt;stroke-linejoin:miter;"/><text transform="translate(550,30)" class="t"></text></g>
<g class="c"><path id="rect4355" d="M 0 0 L 0 249.476 L 311.078 263.148 C 311.078 263.148 317.531 211.517 317.531 114.708 C 317.531 52.920 350.669 25.314 389.738 0 L 0 0 z " style="stroke:#000000;stroke-width:3;stroke-linecap:round;stroke-linejoin:round;"/><text transform="translate(260,30)" class="t"></text></g>
<g class="c"><path id="path4314" d="M 0 0 L 0 240.929 L 80.029 217.970 L 163.929 91.474 L 143.277 55.333 C 135.953 45.080 131.960 24.430 135.294 0 L 0 0 z " style="stroke:#000000;stroke-width:3;stroke-linecap:butt;stroke-linejoin:miter;"/><text transform="translate(50,30)" class="t"></text></g>
<g class="c"><path id="path12528" d="M 576.556 135.554 C 576.425 135.540 576.312 135.557 576.220 135.607 C 574.272 136.670 575.042 152.792 578.769 172.855 C 561.546 162.636 547.324 156.286 546.158 157.990 C 544.979 159.710 552.207 172.445 563.652 187.552 C 562.243 192.894 560.825 199.239 559.576 206.427 C 546.383 189.509 534.199 177.453 532.402 178.701 C 530.062 180.325 534.776 206.203 544.800 232.818 C 522.585 218.221 501.227 208.172 499.791 210.269 C 498.447 212.230 507.900 228.556 522.210 246.347 C 496.388 242.341 473.539 242.059 473.125 244.511 C 472.919 245.730 477.258 249.282 484.166 253.865 C 467.100 252.266 454.241 252.544 453.933 254.367 C 453.467 257.120 475.162 271.786 501.150 283.429 C 479.676 288.354 463.020 294.475 463.445 296.625 C 464.370 301.302 537.852 316.325 575.203 302.636 C 593.617 308.455 619.036 310.022 640 309.611 L 640 140.849 C 633.034 153.002 623.051 175.249 617.154 197.574 C 603.265 166.761 580.627 135.989 576.556 135.554 z " style="stroke:#000000;stroke-width:3;stroke-linecap:butt;stroke-linejoin:miter;"/><text transform="translate(600,230)" class="t"></text></g>
<g class="c"><path id="path3745-0" d="M 179.572 25.582 C 159.974 41.295 133.226 58.789 122.468 92.535 C 114.009 78.569 103.006 67.047 93.402 55.351 C 88.121 78.821 78.721 107.674 89.169 139.185 C 79.118 135.511 69.070 132.664 59.416 129.490 C 63.228 140.042 66.885 152.103 72.347 164.050 C 48.358 145.621 23.545 144.181 0 143.681 L 0 165.027 C 3.476 169.558 7.217 174.082 11.355 178.421 C 7.545 177.923 3.754 177.484 0 177.041 L 0 193.068 C 6.534 204.146 14.151 215.669 24.628 225.642 C 16.003 226.942 7.854 229.305 0 232.087 L 0 259.517 C 2.980 261.072 6.029 262.576 9.179 263.966 C 5.987 266.598 2.951 269.354 0 272.158 L 0 294.492 C 22.936 297.375 49.198 298.363 75.666 282.443 C 71.582 290.130 67.957 297.872 64.107 305.255 C 81.265 302.055 101.924 299.803 121.439 290.427 C 146.500 297.023 168.922 291.359 190.212 286.550 C 211.734 292.461 232.748 289.888 252.580 289.402 C 248.823 284.855 244.940 279.944 240.792 274.916 C 256.710 273.757 271.718 269.501 286.222 266.476 C 273.571 255.849 259.512 242.315 241.365 233.169 C 250.418 233.358 259.374 233.099 268.027 233.169 C 256.679 218.446 244.352 199.863 225.115 186.519 C 237.671 181.894 249.171 175.693 260.589 170.437 C 238.937 159.369 213.086 142.939 179.457 145.458 C 205.331 121.165 208.169 91.389 214.244 64.818 C 202.883 70.152 189.710 75.507 177.054 83.296 C 181.753 63.450 179.814 43.979 179.572 25.582 z " style="stroke:#000000;stroke-width:3;stroke-linecap:butt;stroke-linejoin:miter;"/><text transform="translate(200,220)" class="t"></text></g>
<g class="c"><path id="path3486" d="M 437.560 91.304 L 437.560 91.310 C 455.227 123.139 459.903 167.302 459.982 211.564 C 441.431 192.966 414.256 174.780 374.619 157.962 C 391.603 169.871 406.605 187.266 419.964 207.279 C 393.533 191.706 355.531 181.533 298.404 182.373 C 323.686 187.357 349.582 201.102 374.619 218.736 C 352.816 219.863 327.393 224.598 297.398 234.279 C 338.619 230.030 388.048 247.083 433.941 267.455 C 434.029 267.540 434.154 267.584 434.242 267.648 C 406.978 270.883 374.458 282.043 334.802 305.707 C 372.691 292.814 422.683 297.592 470.541 306.603 C 473.624 313.869 476.615 321.042 479.488 327.923 C 482.937 329.106 493.960 325.207 499.798 319.554 C 499.798 317.295 499.739 314.986 499.699 312.679 C 511.939 315.366 524.007 318.108 535.292 320.75 C 537.633 319.117 540.031 311.893 540.419 305.009 C 577.626 308.611 613.406 316.049 640 331.921 L 640 331.017 C 616.657 308.538 595.402 293.014 575.812 282.691 C 598.252 282.114 620.149 283.177 640 287.078 L 640 275.613 C 583.780 242.639 542.778 242.157 510.156 252.205 C 510.394 251.730 510.620 251.287 510.859 250.810 C 542.371 214.650 577.991 180.689 615.328 167.521 C 588.741 170.984 566.769 176.268 548.363 182.863 C 567.817 152.017 590.085 124.427 615.931 108.640 C 577.741 122.076 550.565 137.435 531.070 153.671 C 538.469 135.959 547.450 119.955 558.619 107.246 C 525.734 131.666 504.264 154.681 490.548 176.187 C 482.043 151.474 465.726 123.507 437.560 91.304 z " style="stroke:#000000;stroke-width:3;stroke-linecap:butt;stroke-linejoin:miter;"/><text transform="translate(500,210)" class="t"></text></g>
<g class="c"><path id="path3759" d="M 371.210 305.597 C 366.585 305.623 360.981 305.757 354.128 305.757 L 353.585 305.757 C 343.307 305.757 335.832 305.544 330.269 305.757 C 320.998 306.112 316.968 307.786 314.003 314.705 L 313.992 314.732 C 309.761 315.531 305.817 317.898 303.109 321.697 L 287.667 343.355 C 284.807 347.368 290.020 351.988 297.195 357.166 C 296.100 361.939 295.606 366.367 296.109 370.013 C 298.217 385.300 301.033 394.324 302.615 400.650 L 303.302 400.650 C 302.785 402.056 302.501 403.537 302.501 405.068 C 302.501 406.573 302.815 413.436 303.314 414.820 C 316.870 418.465 330.426 418.392 343.982 414.820 C 344.468 413.453 344.796 406.553 344.796 405.068 C 344.796 403.537 344.513 402.056 343.996 400.650 L 344.369 400.650 C 344.792 397.069 348.813 394.142 353.857 394.142 C 358.901 394.142 362.924 397.069 363.347 400.650 L 364.326 400.650 C 363.808 402.056 363.525 403.537 363.525 405.068 C 363.525 406.573 363.839 413.436 364.337 414.820 C 377.893 418.465 391.449 418.392 405.005 414.820 C 405.491 413.453 405.818 406.553 405.818 405.068 C 405.818 403.537 405.536 402.056 405.019 400.650 L 405.371 400.650 C 406.952 394.324 409.497 385.300 411.605 370.013 C 412.100 366.426 411.631 362.081 410.574 357.396 C 417.915 352.125 423.323 347.427 420.419 343.355 L 404.978 321.697 C 402.182 317.775 398.072 315.370 393.687 314.650 C 390.130 306.401 385.054 305.519 371.210 305.597 z " style="stroke:none;stroke-width:3;" /><text transform="translate(355,360)" class="t"></text></g>
<path id="path3743" d="M 303.302 400.650 C 302.785 402.056 302.501 403.537 302.501 405.068 C 302.501 406.573 302.815 413.436 303.314 414.820 C 316.870 418.465 330.426 418.392 343.982 414.820 C 344.468 413.453 344.796 406.553 344.796 405.068 C 344.796 403.537 344.513 402.056 343.996 400.650 L 303.302 400.650 z " style="fill:none;stroke:#000000;stroke-width:3;stroke-linecap:round;stroke-linejoin:round;" />
<path id="path3749" d="M 364.326 400.650 C 363.808 402.056 363.525 403.537 363.525 405.068 C 363.525 406.573 363.839 413.436 364.337 414.820 C 377.893 418.465 391.449 418.392 405.005 414.820 C 405.491 413.453 405.818 406.553 405.818 405.068 C 405.818 403.537 405.536 402.056 405.019 400.650 L 364.326 400.650 z " style="fill:none;stroke:#000000;stroke-width:3;stroke-linecap:round;stroke-linejoin:round;" />
<path style="fill:none;stroke:#000000;stroke-width:3;stroke-linecap:butt;stroke-linejoin:round;" d="m 296.692,359.926 47.988,17.351 9.218,-10.844 9.218,10.844 47.717,-17.080" id="path3881" />
<path style="fill:none;stroke:#000000;stroke-width:3;stroke-linecap:butt;stroke-linejoin:round;" d="m 353.357,306.244 -15.996,28.738 -25.214,-15.453 2.013,-5.383" id="path3883" />
<path id="path3885" d="m 354.527,306.244 15.996,28.738 25.214,-15.453 -2.617,-6.084" style="fill:none;stroke:#000000;stroke-width:3;stroke-linecap:butt;stroke-linejoin:round;" />
<path id="path3105" d="M 371.210 305.597 C 366.585 305.623 360.981 305.757 354.128 305.757 L 353.585 305.757 C 343.307 305.757 335.832 305.544 330.269 305.757 C 320.998 306.112 316.968 307.786 314.003 314.705 L 313.992 314.732 C 309.761 315.531 305.817 317.898 303.109 321.697 L 287.667 343.355 C 284.807 347.367 290.019 351.987 297.193 357.164 C 296.098 361.937 295.606 366.367 296.109 370.013 C 298.217 385.300 301.033 394.324 302.615 400.650 L 344.369 400.650 C 344.792 397.069 348.813 394.142 353.857 394.142 C 358.901 394.142 362.924 397.069 363.347 400.650 L 405.371 400.650 C 406.952 394.324 409.497 385.300 411.605 370.013 C 412.100 366.426 411.631 362.081 410.574 357.396 C 417.915 352.125 423.323 347.427 420.419 343.355 L 404.978 321.697 C 402.182 317.775 398.072 315.370 393.687 314.650 C 390.130 306.401 385.054 305.519 371.210 305.597 z " style="fill:none;stroke:#000000;stroke-width:3;stroke-opacity:1;;stroke-miterlimit:4;stroke-dasharray:none" />
<g class="c"><path id="path3890" d="M 353.197 151.601 C 307.348 151.601 270.154 189.558 270.154 236.349 C 270.154 246.008 270.933 254.024 272.75 260.978 C 271.165 264.179 270.154 267.332 270.154 270.777 C 270.154 288.559 292.675 306.337 324.132 313.416 C 328.058 320.569 340.390 325.863 355.013 325.863 C 370.350 325.863 382.916 320.049 386.154 312.357 C 415.662 304.762 436.240 287.857 436.240 270.777 C 436.240 267.233 435.318 263.999 433.644 260.714 C 435.414 253.814 436.240 245.891 436.240 236.349 C 436.240 189.558 399.045 151.601 353.197 151.601 z M 286.958 344.904 C 286.861 344.937 286.779 344.988 286.722 345.064 C 277.582 358.718 283.085 371.728 290.501 378.298 C 292.742 379.956 295.276 380.594 297.789 380.337 C 297.205 377.248 296.635 373.826 296.109 370.013 C 295.606 366.367 296.100 361.939 297.195 357.166 C 290.925 352.642 286.155 348.543 286.958 344.904 z M 421.128 344.904 C 421.947 348.605 417.001 352.781 410.574 357.396 C 411.631 362.081 412.100 366.426 411.605 370.013 C 411.081 373.814 410.531 377.225 409.974 380.306 C 412.593 380.655 415.249 380.027 417.585 378.298 C 425.001 371.728 430.503 358.718 421.363 345.064 C 421.306 344.988 421.226 344.937 421.128 344.904 z " style="stroke:#000000;stroke-width:3;stroke-linecap:round;stroke-linejoin:round;" /><text transform="translate(355,220)" class="t"></text></g>
<path style="fill:#ffffff;stroke:#000000;stroke-width:3;stroke-linecap:round;stroke-linejoin:round;" d="m 301.449,255.028 c 4.794,-12.843 25.170,-11.620 33.560,9.174 1.797,3.058 -2.996,6.115 -5.393,2.446 -5.993,11.009 -31.763,4.281 -28.167,-11.620 z" id="path3894" />
<path id="rect3896" d="M 353.810 303.054 C 350.389 307.204 345.264 309.939 339.539 309.939 C 339.015 309.939 338.500 309.902 337.988 309.859 C 338.182 313.464 341.139 316.310 344.794 316.310 L 361.865 316.310 C 365.503 316.310 368.448 313.490 368.667 309.910 C 368.472 309.916 368.281 309.939 368.083 309.939 C 362.358 309.939 357.231 307.204 353.810 303.054 z " style="fill:#ffffff;stroke:#000000;stroke-width:3;stroke-linecap:round;stroke-linejoin:round;" />
<path style="fill:none;stroke:#000000;stroke-width:3;stroke-linecap:round;stroke-linejoin:round;" d="m 339.538,271.803 c -10.292,0 -18.425,8.564 -18.425,19.068 0,10.503 8.132,19.068 18.425,19.068 5.725,0 10.851,-2.735 14.272,-6.885 3.421,4.149 8.546,6.885 14.272,6.885 10.292,0 18.684,-8.564 18.684,-19.068 0,-10.504 -8.391,-19.068 -18.684,-19.068 -5.725,0 -10.851,2.736 -14.272,6.885 -3.421,-4.149 -8.547,-6.885 -14.272,-6.885 z" id="path3898" />
<path style="fill:#000000;stroke:#000000;stroke-width:3;stroke-linecap:round;stroke-linejoin:round;" d="m 363.398,273.996 c 0,5.490 -4.366,14.704 -9.746,14.704 -5.380,0 -9.746,-9.213 -9.746,-14.704 0,-5.490 4.366,-4.324 9.746,-4.324 5.380,0 9.746,-1.166 9.746,4.324 z" id="path3900" />
<g class="c"><path id="path3904" d="m 332.013,165.732 c 0.599,-34.250 11.986,-74.617 -4.794,-98.470 -16.780,-23.852 -40.153,-7.951 -41.951,23.241 -1.797,31.192 22.174,59.938 28.766,80.121 5.393,-1.834 18.578,-4.892 17.979,-4.892 z" style="stroke:#000000;stroke-width:3;stroke-linecap:round;stroke-linejoin:round;"/><text transform="translate(310,100)" class="t"></text></g>
<g class="c"><path style="stroke:#000000;stroke-width:3;stroke-linecap:round;stroke-linejoin:round;" d="m 375.950,165.732 c -0.599,-34.250 -11.986,-74.617 4.794,-98.470 16.780,-23.852 40.153,-7.951 41.951,23.241 1.797,31.192 -22.174,59.938 -28.766,80.121 -5.393,-1.834 -18.578,-4.892 -17.979,-4.892 z" id="path3910"/><text transform="translate(397,100)" class="t"></text></g>
<ellipse style="fill:#000000;" id="path3912" cx="317.720" cy="258.710" rx="9.136" ry="9.323" />
<path id="path3914" d="m 406.235,255.028 c -4.794,-12.843 -25.170,-11.620 -33.561,9.174 -1.797,3.058 2.996,6.115 5.393,2.446 5.993,11.009 31.763,4.281 28.167,-11.620 z" style="fill:#ffffff;stroke:#000000;stroke-width:3;stroke-linecap:round;stroke-linejoin:round;" />
<ellipse transform="scale(-1,1)" id="path3916" style="fill:#000000;" cx="-389.964" cy="258.710" rx="9.136" ry="9.323" />
<ellipse style="fill:#ffffff;" id="path3918" cx="315.565" cy="255.870" rx="3.535" ry="3.607" />
<ellipse id="path3920" style="fill:#ffffff;" cx="387.210" cy="255.870" rx="3.535" ry="3.607" />
<path style="fill:none;stroke:#000000;stroke-width:4.337;stroke-linecap:round;stroke-linejoin:miter;" d="m 353.673,313.833 0,1.791" id="path3922" />
<path style="fill:none;stroke:#000000;stroke-width:3;stroke-linecap:round;stroke-linejoin:miter;" d="m 327.598,284.919 -20.057,-5.117" id="path3924" />
<path style="fill:none;stroke:#000000;stroke-width:3;stroke-linecap:round;stroke-linejoin:miter;" d="m 325.592,293.107 -15.544,2.559" id="path3926" />
<path id="path3928" d="m 379.748,284.919 20.057,-5.117" style="fill:none;stroke:#000000;stroke-width:3;stroke-linecap:round;stroke-linejoin:miter;" />
<path id="path3930" d="m 381.754,293.107 15.544,2.559" style="fill:none;stroke:#000000;stroke-width:3;stroke-linecap:round;stroke-linejoin:miter;" />
<path id="path3776" d="m 197.142,288.186 c 6.859,-4.727 13.187,-9.917 19.550,-14.615 -21.579,-5.930 -48.832,-16.505 -79.767,-0.975 -0.477,-0.626 -0.890,-1.345 -1.368,-1.948 21.618,-20.397 22.970,-44.808 26.980,-66.645 -8.404,4.396 -18.229,8.849 -27.566,15.004 1.060,-17.732 -4.604,-33.639 -8.406,-48.912 -8.673,11.063 -19.844,23.495 -26.393,39.753 -9.547,-9.487 -20.786,-16.352 -30.890,-23.579 0.646,15.363 -0.033,34.085 7.429,52.224 -10.116,-0.763 -20.165,-0.334 -29.717,-0.388 5.008,6.453 10.329,13.937 16.618,21.045 -14.535,0.013 -28.207,3.856 -41.252,6.430 9.571,8.216 20.202,18.415 33.822,25.722" style="fill:none;stroke:#000000;stroke-width:3;stroke-linecap:butt;stroke-linejoin:miter;" />
<g class="c"><path id="path3530" d="m 185.023,291.391 c 0.218,28.487 -1.247,30.887 -39.312,29.629 -49.901,-1.615 -57.661,-2.587 -57.692,-17.954 -0.037,-19.611 17.283,-43.622 44.145,-41.103 29.071,2.725 50.454,9.961 52.859,29.428 z" style="stroke:#000000;stroke-width:3;stroke-linecap:butt;stroke-linejoin:miter;" /><text transform="translate(130,295)" class="t"></text></g>
<g class="c"><path d="m 187.844,95.915 c -7.899,-2.442 -16.389,2.044 -18.836,9.956 -0.035,-0.039 -0.148,-0.017 -0.182,-0.056 -5.617,-6.071 -15.227,-6.422 -21.296,-0.792 -6.068,5.630 -6.428,15.253 -0.810,21.324 0.014,0.013 -0.070,0.165 -0.056,0.182 -8.064,1.840 -13.143,9.803 -11.312,17.876 1.830,8.073 9.961,13.208 18.025,11.367 0.090,-0.019 0.150,-0.104 0.238,-0.125 -0.040,0.120 -0.075,0.243 -0.112,0.364 -2.446,7.911 2.027,16.408 9.926,18.851 7.899,2.442 16.207,-2.101 18.654,-10.013 0.038,-0.122 0.077,-0.241 0.112,-0.364 0.061,0.075 0.06,0.168 0.125,0.238 5.617,6.071 15.227,6.422 21.296,0.792 6.068,-5.630 6.371,-15.070 0.754,-21.142 0.028,-6.3e-4 0.026,-0.177 0.056,-0.182 8.064,-1.840 13.199,-9.986 11.369,-18.059 -1.830,-8.073 -9.961,-13.207 -18.025,-11.367 -0.051,0.012 -0.132,-0.069 -0.182,-0.056 2.446,-7.911 -1.845,-16.352 -9.745,-18.795 z" style="stroke:#000000;stroke-width:3;stroke-linecap:butt;stroke-linejoin:miter;" /><text transform="translate(174,140)" class="t"></text></g>
<rect y="0" x="0" height="480" width="640" id="rect4318" style="fill:none;stroke:#000000;stroke-width:4;stroke-linecap:round;stroke-linejoin:round;" />
<g class="c"><path id="path3922-7" d="M 478.818 240.253 C 477.861 243.603 477.318 247.183 477.318 250.863 C 477.318 268.818 489.665 283.704 505.833 286.806 L 505.833 370.574 L 481.220 370.574 L 481.220 400.660 C 481.220 409.014 483.391 416.657 487.001 422.591 C 502.950 420.769 522.049 420.194 537.597 421.613 C 540.833 415.827 542.753 408.564 542.753 400.660 L 542.753 370.574 L 518.291 370.574 L 518.291 286.806 C 534.459 283.704 546.656 268.818 546.656 250.863 C 546.656 247.183 546.113 243.603 545.156 240.253 L 478.820 240.253 L 478.818 240.253 z M 490.677 252.445 L 533.298 252.445 C 533.915 254.184 534.349 256.077 534.349 257.988 C 534.349 268.484 524.328 276.990 511.988 276.990 C 499.647 276.990 489.625 268.484 489.625 257.988 C 489.625 256.077 490.059 254.185 490.677 252.445 z " style="stroke:#000000;stroke-width:3;"/><text transform="translate(510,410)" class="t"></text></g>
<path id="path4294" d="m 459.517,428.368 c 18.070,-7.744 82.609,-11.617 101.971,-1.290" style="fill:none;stroke:#000000;stroke-width:3;stroke-linecap:butt;stroke-linejoin:miter;" />
<g class="c"><path id="path6113" d="M 162.087 314.935 C 151.146 314.935 141.893 317.652 137.656 321.380 C 128.834 322.843 121.178 327.738 116.505 334.628 C 115.971 334.595 115.406 334.628 114.865 334.628 C 106.766 334.628 99.405 337.622 93.839 342.457 C 89.237 339.822 82.624 338.158 75.253 338.158 C 61.368 338.158 50.097 344.027 50.097 351.267 C 50.097 352.582 50.485 353.862 51.177 355.060 C 54.143 357.793 62.334 360.630 75.253 360.630 C 75.462 360.630 75.659 360.620 75.867 360.619 C 72.198 365.450 70.013 371.348 70.013 377.775 C 70.013 378.076 70.001 378.370 70.013 378.669 C 68.934 378.496 67.876 378.312 66.732 378.312 C 57.580 378.312 50.140 384.320 50.140 391.560 C 50.140 392.875 50.414 394.122 50.869 395.320 C 52.445 397.524 56.259 399.780 62.140 400.572 C 62.134 400.738 62.115 400.893 62.115 401.064 C 62.115 403.109 62.574 405.040 63.386 406.771 C 65.257 408.978 69.810 410.535 75.123 410.535 C 80.653 410.535 84.504 408.566 86.537 406.320 C 86.126 407.492 85.875 408.712 85.875 410 C 85.875 417.947 94.041 424.501 103.923 424.501 C 108.370 424.501 112.280 423.081 115.410 420.921 C 118.771 423.658 122.712 425.804 127.080 427.007 C 126.271 428.028 125.621 429.102 125.621 430.230 C 125.621 436.169 137.882 440.972 152.787 440.972 C 160.860 440.972 167.896 439.451 172.841 437.212 C 174.456 437.453 176.077 437.570 177.765 437.570 C 185.174 437.570 191.915 435.191 197.273 431.125 C 197.914 431.343 198.583 431.544 199.267 431.736 C 198.720 432.776 198.400 433.761 198.400 434.617 C 198.400 436.667 198.791 438.662 199.490 440.531 C 202.491 444.794 210.781 449.220 223.857 449.220 C 234.255 449.220 243.169 446.819 246.832 443.416 C 248.419 440.747 249.318 437.770 249.318 434.617 C 249.318 428.818 246.296 424.899 241.468 422.447 C 241.382 422.239 241.269 422.034 241.212 421.816 C 245.427 418.020 248.651 413.205 250.146 407.671 C 252.040 408.220 254.034 408.568 256.164 408.568 C 266.046 408.568 274.031 402.014 274.031 394.066 C 274.031 389.145 271.056 384.847 266.373 382.251 C 266.379 382.011 266.373 381.777 266.373 381.535 C 266.373 370.267 259.807 360.506 250.146 355.398 C 246.686 342.444 234.380 332.839 219.699 332.839 C 219.582 332.839 219.454 332.838 219.333 332.839 C 213.758 324.471 203.894 318.876 192.716 318.876 C 190.002 318.876 187.372 319.297 184.876 319.951 C 180.095 316.937 171.695 314.937 162.085 314.937 L 162.087 314.935 z " style="fill-opacity:1;fill-rule:nonzero;stroke:#000000;stroke-width:3;" /><text transform="translate(160,380)" class="t"></text></g>
<path id="path6113-0" d="m 119.428,365.106 c 0.083,-1.001 0.016,-1.960 -0.354,-2.888 -1.903,-4.740 -9.491,-6.289 -16.874,-3.430 -7.383,2.858 -11.774,9.046 -9.870,13.787 0.372,0.927 0.912,1.705 1.671,2.377" style="fill:none;stroke:#000000;stroke-width:3;stroke-linecap:round;" />
<path style="fill:none;stroke:#000000;stroke-width:3;stroke-linecap:round;" d="m 246.401,392.544 c 0.760,-0.190 1.460,-0.479 2.080,-0.966 3.162,-2.489 2.871,-8.059 -0.658,-12.385 -3.530,-4.325 -8.966,-5.772 -12.129,-3.283 -0.618,0.486 -1.094,1.049 -1.450,1.738" id="path6187" />
<path id="path3480-2" d="m 223.859,419.115 c -14.052,0 -25.459,10.148 -25.459,15.500 0,2.050 0.392,4.046 1.091,5.915 3.001,4.262 11.291,8.689 24.367,8.689 10.398,0 19.311,-2.401 22.973,-5.805 1.587,-2.668 2.485,-5.645 2.485,-8.799 0,-11.293 -11.406,-15.500 -25.459,-15.500 z" style="fill:none;stroke:#000000;stroke-width:3;stroke-linecap:butt;stroke-linejoin:miter;" />
<path style="fill:none;stroke:#000000;stroke-width:3;stroke-linecap:round;" d="m 145.103,399.072 c 0.247,-0.499 0.374,-0.999 0.280,-1.520 -0.479,-2.664 -5.587,-4.425 -11.363,-3.909 -5.776,0.516 -10.038,3.116 -9.560,5.780 0.100,0.521 0.334,0.987 0.750,1.428" id="path6229" />
<path id="path6234" d="m 75.123,391.014 c 7.179,0 13.007,6.580 13.007,10.051 0,1.330 -0.200,2.623 -0.558,3.835 -1.532,2.764 -5.769,5.634 -12.449,5.634 -5.312,0 -9.866,-1.557 -11.737,-3.764 -0.812,-1.730 -1.270,-3.660 -1.270,-5.705 0,-7.322 5.827,-10.051 13.007,-10.051 z" style="fill:none;stroke:#000000;stroke-width:3;stroke-linecap:butt;stroke-linejoin:miter;" />
</g>
</svg>