<?xml version="1.0" encoding="UTF-8" standalone="no"?> 
<svg xmlns:dc="http://purl.org/dc/elements/1.1/" xmlns:cc="http://creativecommons.org/ns#" xmlns:rdf="http://www.w3.org/1999/02/22-rdf-syntax-ns#" xmlns:svg="http://www.w3.org/2000/svg" xmlns="http://www.w3.org/2000/svg" viewBox="0 0 80 60" version="1.1" id="img004" height="100%" width="100%"> 
<defs id="defs4"> 
<style type="text/css">
    
        svg#img004 .c.c0 path        { fill:white; }
        svg#img004 .c.c1 path        { fill:#C4D7ED; }
        svg#img004 .c.c2 path        { fill:#ABC8E2; }
        svg#img004 .c.c3 path        { fill:#375D81; }
        svg#img004 .c.c4 path        { fill:#183152; }
        
        svg#img004.db6 .c.c0 path    { fill:white; }
        svg#img004.db6 .c.c1 path    { fill:#ed6c30; }
        svg#img004.db6 .c.c2 path    { fill:#bdcf46; }
        svg#img004.db6 .c.c3 path    { fill:#757f3f; }
        svg#img004.db6 .c.c4 path    { fill:#f79329; }
        svg#img004.db6 .c.c5 path    { fill:#78a3ad; }
        svg#img004.db6 .c.c6 path    { fill:#855c52; }
        
        svg#img004.db16 .c.c0 path   { fill:white; }
        svg#img004.db16 .c.c1 path   { fill:#140c1c; }
        svg#img004.db16 .c.c2 path   { fill:#442434; }
        svg#img004.db16 .c.c3 path   { fill:#30346d; }
        svg#img004.db16 .c.c4 path   { fill:#4e4a4f; }
        svg#img004.db16 .c.c5 path   { fill:#854c30; }
        svg#img004.db16 .c.c6 path   { fill:#346524; }
        svg#img004.db16 .c.c7 path   { fill:#d04648; }
        svg#img004.db16 .c.c8 path   { fill:#757161; }
        svg#img004.db16 .c.c9 path   { fill:#597dce; }
        svg#img004.db16 .c.ca path   { fill:#d27d2c; }
        svg#img004.db16 .c.cb path   { fill:#8595a1; }
        svg#img004.db16 .c.cc path   { fill:#6daa2c; }
        svg#img004.db16 .c.cd path   { fill:#d2aa99; }
        svg#img004.db16 .c.ce path   { fill:#6dc2ca; }
        svg#img004.db16 .c.cf path   { fill:#dad45e; }
        svg#img004.db16 .c.cg path   { fill:#deeed6; }
        
        svg#img004.db32 .c.c0 path   { fill:white; }
        svg#img004.db32 .c.c1 path   { fill:#000000; }
        svg#img004.db32 .c.c2 path   { fill:#231f34; }
        svg#img004.db32 .c.c3 path   { fill:#44283c; }
        svg#img004.db32 .c.c4 path   { fill:#663931; }
        svg#img004.db32 .c.c5 path   { fill:#8f563b; }
        svg#img004.db32 .c.c6 path   { fill:#df7126; }
        svg#img004.db32 .c.c7 path   { fill:#d99f65; }
        svg#img004.db32 .c.c8 path   { fill:#eec49b; }
        svg#img004.db32 .c.c9 path   { fill:#faf235; }
        svg#img004.db32 .c.ca path   { fill:#99e550; }
        svg#img004.db32 .c.cb path   { fill:#6bbd2f; }
        svg#img004.db32 .c.cc path   { fill:#36946e; }
        svg#img004.db32 .c.cd path   { fill:#4b692e; }
        svg#img004.db32 .c.ce path   { fill:#534b25; }
        svg#img004.db32 .c.cf path   { fill:#323c39; }
        svg#img004.db32 .c.cg path   { fill:#3f3e73; }
        svg#img004.db32 .c.ch path   { fill:#2f6082; }
        svg#img004.db32 .c.ci path   { fill:#5a6ee1; }
        svg#img004.db32 .c.cj path   { fill:#649aff; }
        svg#img004.db32 .c.ck path   { fill:#5fcde4; }
        svg#img004.db32 .c.cl path   { fill:#cbdbfc; }
        svg#img004.db32 .c.cm path   { fill:#ffffff; }
        svg#img004.db32 .c.cn path   { fill:#9badb7; }
        svg#img004.db32 .c.co path   { fill:#847e87; }
        svg#img004.db32 .c.cp path   { fill:#696a6a; }
        svg#img004.db32 .c.cq path   { fill:#595651; }
        svg#img004.db32 .c.cr path   { fill:#75418a; }
        svg#img004.db32 .c.cs path   { fill:#ac3232; }
        svg#img004.db32 .c.ct path   { fill:#d95662; }
        svg#img004.db32 .c.cu path   { fill:#d67bba; }
        svg#img004.db32 .c.cv path   { fill:#8f974a; }
        svg#img004.db32 .c.cw path   { fill:#896e2f; }

        svg#img004 .c          { cursor:pointer; }
        svg#img004 .c path     { fill:white; }
        svg#img004 .wrong path    { fill:red !important; }

        svg#img004 text        { font-size:3px;text-anchor:middle;fill:black;font-weight:bold; opacity:0.6; }
</style> 
</defs> 

<g id="canvas">

<g class="c"> 
	<path d="M 0,0 0,60 80,60 80,0 0,0 Z" />
    <text transform="translate(45,5)" class="t"></text>
</g>


<g class="c"> 
	<path d="M 83.644 -11.949 L 64.576 -11.695 C 64.784 -8.367 64.046 -2.769 63.113 3.187 L 56.185 2.033 L 53.644 4.830 L 62.179 9 C 61.071 15.728 60 22.181 60 25.677 C 60 33.304 91.017 30 91.017 30 L 83.644 -11.949 z " style="stroke-width:0.5;stroke-linecap:round;stroke-linejoin:round;stroke:black"/>
    <text transform="translate(71,7)" class="t"></text>
</g>
	
<g class="c"> 
	<path d="m 34.887,10.174 c 2.883,0 5.502,1.143 7.672,2.851 1.575,-1.155 3.421,-1.824 5.465,-1.824 4.124,0 7.667,2.828 9.143,6.728 1.549,-0.696 3.264,-1.140 5.044,-1.140 0.326,0 0.625,0.088 0.945,0.114 1.897,-2.514 4.761,-4.105 7.987,-4.105 5.137,0 9.285,4.022 10.089,9.351 6.255,1.105 11.035,6.928 11.035,14.027 0,0.719 -0.115,1.475 -0.210,2.166 3.851,0.621 6.831,4.202 6.831,8.553 0,1.907 -0.614,3.586 -1.576,5.017 0.030,0.303 0.105,0.600 0.105,0.912 0,4.663 -3.479,8.439 -7.777,8.439 l -97.739,0 c -1.127,0 -2.188,-0.332 -3.152,-0.798 -0.446,0.110 -0.892,0.228 -1.366,0.228 -4.152,0 -7.461,-3.591 -7.461,-8.097 0,-3.343 1.865,-6.265 4.519,-7.526 1.532,-3.928 5.102,-6.707 9.248,-6.842 2.209,-4.524 6.515,-7.641 11.560,-7.641 0.417,0 0.853,0.072 1.261,0.114 0.989,-4.184 4.454,-7.184 8.617,-7.184 0.767,0 1.495,0.030 2.207,0.228 1.336,-1.528 3.031,-2.686 4.939,-3.307 1.611,-5.912 6.642,-10.264 12.611,-10.264 z" style="stroke-width:0.5;stroke-linecap:round;stroke-linejoin:round;stroke:black"/>
    <text transform="translate(47,20)" class="t"></text>
</g>

<g class="c">
	<path style="stroke-width:0.5;stroke-linecap:round;stroke-linejoin:round;stroke:black" d="M 18.352,6.535 C 16.283,8.906 10.143,17.646 11.143,24.802 10.879,24.484 10.571,24.360 10.254,24.350 10.093,21.345 9.568,18.692 9.218,17.475 c -2.940,2.429 -4.644,5.929 -5.530,9.133 -0.797,-6.164 -4.475,-12.806 -5.875,-14.904 -3.430,7.449 -0.968,17.509 0.543,20.374 -1.152,-1.077 -5.198,-1.068 3.061,9.032 0.134,-0.118 0.268,-0.232 0.395,-0.351 0.290,3.516 -1.135,5.921 -1.135,5.921 0,0 -0.931,-1.349 -2.518,1.154 -0.910,-3.180 -6.578,-11.839 -15.405,-13.549 0.381,2.442 2.141,9.273 5.777,13.950 -2.752,-0.267 -5.692,-0.053 -8.542,1.053 1.970,2.327 9.228,9.294 16.146,9.685 0.140,0.096 0.301,0.156 0.444,0.250 -0.609,0.619 -0.412,1.532 0.493,2.157 -1.083,1.081 -1.729,2.134 -1.431,2.760 0.644,1.355 5.545,0.283 8.443,-1.154 0.488,-0.242 0.897,-0.588 1.283,-0.853 0.237,0.047 0.433,0.166 0.691,0.200 2.994,0.399 7.531,-0.063 8.245,-1.354 0.010,0.006 0.040,-0.007 0.050,0 0.099,0.242 0.188,0.447 0.345,0.652 0.376,0.817 1.370,1.529 3.209,1.806 2.918,0.440 10.049,-0.485 10.171,-1.304 0.045,-0.318 -0.858,-0.983 -2.172,-1.656 2.722,-1.188 5.016,-2.465 4.937,-3.010 2.862,-1.246 5.785,-3.291 7.702,-6.523 -1.721,-0.485 -6.174,-1.304 -10.418,-0.802 0.094,-0.182 0.238,-0.403 0.295,-0.552 0.556,-0.816 1.082,-1.850 1.530,-3.061 7.991,0.180 8.875,-5.283 6.665,-5.068 4.705,-3.683 6.414,-12.600 6.665,-15.255 -3.618,1.145 -6.450,3.783 -8.443,6.423 1.512,-6.024 0.484,-13.581 -0.050,-16.058 -5.907,5.621 -7.269,15.889 -6.912,19.119 -0.406,-0.862 -1.890,-1.695 -2.172,0.451 -0.030,-1.307 -1.749,-1.105 -2.419,-0.602 1.492,-2.489 3.497,-11.249 -1.135,-17.814 -0.513,0.649 -1.288,1.850 -2.123,3.312 0.847,-4.221 0.902,-9.697 -1.678,-14.502 z M 9.711,31.175 c 0.669,1.150 1.683,2.352 3.061,3.663 l -2.616,7.677 -1.086,-4.466 c 1.787,-2.400 0.835,-4.610 -0.493,-3.914 0.516,-0.888 0.863,-1.906 1.135,-2.960 z M 25.660,36.494 c -0.089,1.513 0.315,4.187 1.777,8.781 0.167,-0.059 0.332,-0.138 0.493,-0.200 -0.613,2.039 -1.641,3.399 -2.370,4.215 -1.114,0.363 -2.412,0.874 -3.703,1.455 -0.010,-0.127 -0.040,-0.219 -0.050,-0.351 -0.110,-1.424 -0.147,-3.143 -0.197,-4.767 -0.052,-1.690 -0.035,-2.063 -0.050,-3.211 2.824,-2.998 3.923,-4.849 4.098,-5.921 z m -10.961,0.100 c 0.298,1.595 1.541,3.680 4.493,5.871 0.010,1.167 -0.003,1.549 0.050,3.261 0.050,1.646 0.131,3.379 0.247,4.867 0.010,0.130 0.040,0.230 0.050,0.351 -0.394,0.126 -0.812,0.323 -1.234,0.652 -0.858,-3.030 -2.002,-5.920 -2.567,-5.921 -0.625,-0.001 -1.580,3.353 -2.172,6.624 -0.393,-0.262 -0.796,-0.515 -1.185,-0.752 l -1.135,-4.666 z m -7.604,3.362 1.629,6.824 0,0.050 0.050,0 0.789,3.211 c -0.284,-0.111 -0.548,-0.165 -0.740,-0.200 -0.005,-0.016 0.003,-0.034 0,-0.050 -0.472,-2.034 -1.232,-3.619 -2.123,-3.663 -0.547,-0.027 -1.087,0.616 -1.580,1.505 -0.465,-0.905 -0.950,-1.639 -1.431,-2.057 0.319,-1.104 0.627,-2.527 0.592,-4.215 1.127,-0.429 2.054,-0.890 2.814,-1.405 z" id="path4232" /> 
    <text transform="translate(13,57)" class="t"></text>
</g>

<g class="c">
	<path style="stroke-width:0.5;stroke-linecap:round;stroke-linejoin:round;stroke:black" d="m 25.119,20.767 c -1.748,-1.051 -4.045,-0.480 -5.095,1.266 -0.006,-0.010 -0.034,-0.013 -0.040,-0.024 -0.989,-1.783 -3.270,-2.435 -5.054,-1.448 -1.783,0.987 -2.433,3.266 -1.444,5.049 0.002,0.004 -0.026,0.035 -0.024,0.040 -2.039,-0.036 -3.722,1.566 -3.757,3.604 -0.034,2.038 1.611,3.746 3.650,3.783 0.022,6e-4 0.042,-0.015 0.064,-0.016 -0.016,0.026 -0.032,0.053 -0.048,0.080 -1.049,1.746 -0.476,4.042 1.272,5.093 1.748,1.051 4.004,0.455 5.054,-1.290 0.016,-0.027 0.032,-0.053 0.048,-0.080 0.010,0.020 0.004,0.043 0.016,0.064 0.989,1.783 3.270,2.435 5.054,1.448 1.783,-0.987 2.409,-3.226 1.420,-5.009 0.007,6.34e-4 0.016,-0.040 0.024,-0.040 2.039,0.036 3.746,-1.606 3.781,-3.645 0.034,-2.038 -1.611,-3.746 -3.650,-3.783 -0.012,-4.35e-4 -0.027,-0.024 -0.040,-0.024 1.049,-1.746 0.516,-4.018 -1.232,-5.069 z"/> 
	<path style="stroke-width:0.5;stroke-linecap:round;stroke-linejoin:round;stroke:black" d="m 33.080,2.635 c -2.069,-0.301 -4.015,1.147 -4.316,3.214 -0.010,-0.007 -0.037,8.878e-4 -0.047,-0.006 -1.641,-1.294 -4.057,-1.008 -5.352,0.631 -1.295,1.639 -1.008,4.052 0.633,5.347 0.004,0.003 -0.010,0.044 -0.007,0.047 -1.943,0.772 -2.900,2.955 -2.126,4.896 0.773,1.941 3.007,2.904 4.950,2.132 0.021,-0.008 0.033,-0.031 0.054,-0.040 -0.005,0.031 -0.009,0.063 -0.013,0.095 -0.301,2.067 1.150,4.011 3.219,4.313 2.069,0.301 3.967,-1.154 4.269,-3.221 0.004,-0.032 0.010,-0.063 0.013,-0.095 0.018,0.015 0.021,0.039 0.040,0.054 1.641,1.294 4.057,1.008 5.352,-0.631 1.295,-1.639 1.001,-4.004 -0.640,-5.299 0.007,-0.002 -3.76e-4,-0.045 0.007,-0.047 1.943,-0.772 2.907,-3.002 2.133,-4.944 -0.773,-1.941 -3.007,-2.904 -4.950,-2.132 -0.012,0.004 -0.035,-0.011 -0.047,-0.006 0.301,-2.067 -1.102,-4.004 -3.172,-4.306 z"/> 
	<path style="stroke-width:0.5;stroke-linecap:round;stroke-linejoin:round;stroke:black" d="M 17.700,3.315 C 15.410,2.784 13.095,4.226 12.564,6.514 12.553,6.504 12.522,6.512 12.511,6.502 10.793,4.898 8.060,4.994 6.455,6.710 4.851,8.426 4.947,11.156 6.666,12.760 c 0.004,0.004 -0.016,0.048 -0.012,0.052 -2.249,0.684 -3.524,3.040 -2.838,5.287 0.686,2.247 3.098,3.534 5.347,2.850 0.025,-0.007 0.040,-0.032 0.065,-0.040 -0.008,0.034 -0.016,0.070 -0.024,0.105 -0.530,2.288 0.914,4.601 3.205,5.132 2.290,0.530 4.553,-0.923 5.083,-3.211 0.008,-0.035 0.017,-0.069 0.024,-0.105 0.019,0.018 0.020,0.046 0.040,0.064 1.718,1.603 4.451,1.508 6.056,-0.207 1.604,-1.716 1.495,-4.393 -0.223,-5.997 0.008,-0.002 0.003,-0.050 0.012,-0.052 2.249,-0.684 3.537,-3.093 2.851,-5.340 C 25.567,9.051 23.155,7.763 20.905,8.448 20.891,8.452 20.866,8.431 20.853,8.435 21.383,6.147 19.991,3.846 17.700,3.315 Z" /> 
    <text transform="translate(13,10)" class="t"></text>
</g> 

<g class="c">
	<path d="M 31.435547 8.7792969 A 4.155623 4.1506257 8.2841449 0 0 27.433594 12.330078 A 4.155623 4.1506257 8.2841449 0 0 30.947266 17.037109 A 4.155623 4.1506257 8.2841449 0 0 35.658203 13.527344 A 4.155623 4.1506257 8.2841449 0 0 32.142578 8.8222656 A 4.155623 4.1506257 8.2841449 0 0 31.435547 8.7792969 z M 14.894531 11.318359 A 3.3928137 3.3888152 13.007505 0 0 11.738281 13.941406 A 3.3928137 3.3888152 13.007505 0 0 14.28125 18.005859 A 3.3928137 3.3888152 13.007505 0 0 18.349609 15.46875 A 3.3928137 3.3888152 13.007505 0 0 15.806641 11.402344 A 3.3928137 3.3888152 13.007505 0 0 14.894531 11.318359 z M 19.744141 25.308594 A 4.1573224 4.1523228 31.003068 0 0 16.306641 27.320312 A 4.1573224 4.1523228 31.003068 0 0 17.732422 33.019531 A 4.1573224 4.1523228 31.003068 0 0 23.433594 31.603516 A 4.1573224 4.1523228 31.003068 0 0 22.009766 25.902344 A 4.1573224 4.1523228 31.003068 0 0 19.744141 25.308594 z " style="stroke-width:0.5;stroke-linecap:round;stroke-linejoin:round;stroke:black" />
    <text transform="translate(20,30.4)" class="t"></text>
</g> 

<g class="c"> 
	<path d="m 20.511,42.528 c 5.629,6.317 14.262,-1.213 13.668,-3.632 -0.594,-2.418 -12.725,-7.937 -13.668,3.632 z" style="stroke-width:0.5;stroke-linecap:round;stroke-linejoin:round;stroke:black" /> 
	<path d="M 18.908,46.995 C 8.337,51.958 1.475,37.694 3.543,34.945 5.610,32.196 23.995,31.783 18.908,46.995 Z" style="stroke-width:0.5;stroke-linecap:round;stroke-linejoin:round;stroke:black" /> 
    <text transform="translate(11,40)" class="t"></text>
</g>

<g> 
	<path id="path3549" d="m 23.094,41.107 c -1.204,0.346 -2.157,0.989 -2.339,1.363" style="display:inline;fill:none;stroke:#000000;stroke-width:0.5;stroke-linecap:round;stroke-linejoin:miter;stroke-miterlimit:4;stroke-opacity:1" /> 
	<path style="display:inline;fill:none;stroke:#000000;stroke-width:0.5;stroke-linecap:round;stroke-linejoin:miter;stroke-miterlimit:4;stroke-opacity:1" d="m 16.403,43.784 c 1.340,1.095 2.199,2.430 2.226,3.004" id="path3328" /> 
</g> 

<g class="c"> 
	<path style="stroke-width:0.5;stroke-linecap:round;stroke-linejoin:round;stroke:black" d="m 59.076,11.102 c -0.766,2.171 -2.251,8.126 -1.811,13.743 -1.109,-0.868 -2.329,-1.635 -3.674,-2.246 -0.168,2.269 -0.110,8.283 1.707,13.534 -0.526,0.209 -1.041,0.460 -1.500,0.783 -3.292,-2.787 -7.892,-5.397 -13.197,-5.539 0.566,1.732 2.228,5.593 4.761,9.197 -3.552,-0.551 -7.550,-0.445 -11.333,1.201 2.233,2.408 10.565,9.718 18.010,9.353 -0.978,0.688 -0.646,1.885 0.569,2.560 0.245,1.238 0.862,2.366 1.707,3.239 l 25.773,0 c -0.009,0.074 -0.044,0.133 -0.052,0.209 9.173,2.413 11.186,1.129 11.023,-0.209 l 1.449,0 c 1.244,-0.555 2.257,-1.516 2.742,-2.717 4.361,-1.524 9.766,-4.729 12.679,-10.242 -1.344,-0.197 -4.046,-0.355 -7.141,-0.156 2.089,-3.170 3.819,-7.172 3.829,-11.600 -1.496,0.545 -4.644,1.988 -7.762,4.128 -0.741,-1.711 -2.193,-3.050 -3.985,-3.605 -0.165,-1.386 -0.734,-2.628 -1.552,-3.657 0.643,-2.060 1.035,-4.267 0.931,-6.584 -1.005,0.418 -2.788,1.325 -4.761,2.560 0.477,-2.673 0.528,-5.535 -0.207,-8.413 -1.475,1.015 -4.628,3.669 -7.348,7.054 -0.552,-0.136 -1.112,-0.209 -1.707,-0.209 -0.536,0 -1.050,0.043 -1.552,0.156 -0.759,-1.208 -2.041,-2.109 -3.570,-2.403 -1.173,-3.189 -3.061,-6.390 -6.003,-8.831 -0.520,1.475 -1.397,4.685 -1.759,8.360 -1.142,-3.441 -3.078,-7.026 -6.262,-9.667 z" />
    <text transform="translate(66,28)" class="t"></text>
</g>

<g class="c"> 
	<path style="stroke-width:0.5;stroke-linecap:round;stroke-linejoin:round;stroke:black" d="m 51.576,53.932 c 0,4.362 -3.513,4.970 -7.842,4.970 -4.329,0 -7.842,-0.608 -7.842,-4.970 0,-4.362 3.513,-7.902 7.842,-7.902 4.329,0 7.842,3.540 7.842,7.902 z" /> 
    <text transform="translate(42,55)" class="t"></text>
</g>

<g class="c"> 
	<path style="stroke-width:0.5;stroke-linecap:round;stroke-linejoin:round;stroke:black" d="m 43.288,33.639 c -5.885,0 -10.664,4.386 -10.664,9.804 0,1.723 0.491,3.349 1.340,4.757 0.006,0.005 0.012,0.015 0.019,0.018 1.598,0.964 5.159,1.643 9.305,1.643 4.146,0 7.720,-0.678 9.324,-1.643 0.004,-0.008 0.014,-0.010 0.019,-0.018 0.848,-1.407 1.320,-3.034 1.320,-4.757 0,-5.417 -4.779,-9.804 -10.664,-9.804 z"/> 
    <text transform="translate(42,43)" class="t"></text>
</g>

<g class="c"> 
	<path d="m 71.829,32.260 c -2.490,2.002 -5.889,4.232 -7.256,8.534 -1.075,-1.780 -2.473,-3.248 -3.693,-4.739 -0.671,2.991 -1.865,6.669 -0.538,10.685 -1.277,-0.468 -2.554,-0.831 -3.781,-1.235 0.484,1.345 0.949,2.882 1.643,4.405 -3.732,-2.876 -7.626,-2.509 -11.183,-2.646 0.994,1.375 2.036,3.009 3.432,4.477 -0.915,-0.120 -1.824,-0.213 -2.704,-0.334 1.146,1.964 2.340,4.394 4.391,6.353 -2.446,0.369 -4.592,1.412 -6.689,2.224 1.402,0.834 2.954,1.876 4.726,2.660 -1.348,1.115 -2.494,2.396 -3.664,3.547 3.411,0.443 7.742,1.445 12.114,-1.192 -0.518,0.979 -0.979,1.966 -1.468,2.907 2.180,-0.407 4.805,-0.694 7.285,-1.889 3.184,0.840 6.034,0.118 8.740,-0.494 2.735,0.753 5.405,0.425 7.925,0.363 -0.477,-0.579 -0.970,-1.205 -1.497,-1.846 2.022,-0.147 3.930,-0.690 5.773,-1.075 -1.607,-1.354 -3.394,-3.079 -5.700,-4.245 1.150,0.023 2.288,-0.010 3.388,0 -1.442,-1.876 -3.008,-4.245 -5.453,-5.946 1.595,-0.589 3.057,-1.379 4.508,-2.049 -2.751,-1.410 -6.037,-3.505 -10.310,-3.183 3.288,-3.096 3.648,-6.891 4.421,-10.278 -1.443,0.679 -3.118,1.362 -4.726,2.355 0.597,-2.529 0.350,-5.011 0.319,-7.356 z" style="stroke-width:0.5;stroke-linecap:round;stroke-linejoin:round;stroke:black" />
    <text transform="translate(65,55)" class="t"></text>
</g>

</g>
</svg> 