<?xml version="1.0" encoding="UTF-8" standalone="no"?>
<svg
   xmlns:dc="http://purl.org/dc/elements/1.1/"
   xmlns:cc="http://creativecommons.org/ns#"
   xmlns:rdf="http://www.w3.org/1999/02/22-rdf-syntax-ns#"
   xmlns:svg="http://www.w3.org/2000/svg"
   xmlns="http://www.w3.org/2000/svg"
   viewBox="0 0 640 480"
   version="1.1"
   id="svg3336"
   height="480"
   width="640">
  <defs
     id="defs3338" />
  <metadata
     id="metadata3341">
    <rdf:RDF>
      <cc:Work
         rdf:about="">
        <dc:format>image/svg+xml</dc:format>
        <dc:type
           rdf:resource="http://purl.org/dc/dcmitype/StillImage" />
        <dc:title></dc:title>
      </cc:Work>
    </rdf:RDF>
  </metadata>
  <g
     id="layer1">
    <rect
       y="0"
       x="0"
       height="480"
       width="640"
       id="rect3854"
       style="color:#000000;clip-rule:nonzero;display:inline;overflow:visible;visibility:visible;opacity:1;isolation:auto;mix-blend-mode:normal;color-interpolation:sRGB;color-interpolation-filters:linearRGB;solid-color:#000000;solid-opacity:1;fill:#ececec;fill-opacity:1;fill-rule:evenodd;stroke:none;stroke-width:3.80193043;stroke-linecap:round;stroke-linejoin:miter;stroke-miterlimit:4;stroke-dasharray:none;stroke-dashoffset:0;stroke-opacity:1;marker:none;marker-start:none;marker-mid:none;marker-end:none;color-rendering:auto;image-rendering:auto;shape-rendering:auto;text-rendering:auto;enable-background:accumulate" />
    <circle
       r="73.595512"
       cy="137.72247"
       cx="134.341"
       id="path5040"
       style="color:#000000;clip-rule:nonzero;display:inline;overflow:visible;visibility:visible;opacity:1;isolation:auto;mix-blend-mode:normal;color-interpolation:sRGB;color-interpolation-filters:linearRGB;solid-color:#000000;solid-opacity:1;fill:#ffff00;fill-opacity:1;fill-rule:nonzero;stroke:#000000;stroke-width:3;stroke-linecap:butt;stroke-linejoin:miter;stroke-miterlimit:4;stroke-dasharray:none;stroke-dashoffset:0;stroke-opacity:1;marker:none;marker-start:none;marker-mid:none;marker-end:none;color-rendering:auto;image-rendering:auto;shape-rendering:auto;text-rendering:auto;enable-background:accumulate" />
    <path
       id="path5049"
       d="M 203.26367 143.5625 A 65.418236 65.418236 0 0 0 138.09766 203.94531 A 22.195473 22.195473 0 0 0 124.99609 199.63672 A 22.195473 22.195473 0 0 0 103.46484 216.54688 A 38.55003 38.55003 0 0 0 80.605469 208.98242 A 38.55003 38.55003 0 0 0 61.205078 214.27344 A 70.090965 70.090965 0 0 0 0 160.36328 L 0 416.91797 L 288.22852 416.91797 L 288.22852 167.21484 A 44.390945 44.390945 0 0 0 266.4668 192.22852 A 65.418236 65.418236 0 0 0 203.26367 143.5625 z "
       style="color:#000000;clip-rule:nonzero;display:inline;overflow:visible;visibility:visible;opacity:1;isolation:auto;mix-blend-mode:normal;color-interpolation:sRGB;color-interpolation-filters:linearRGB;solid-color:#000000;solid-opacity:1;fill:#550000;fill-opacity:1;fill-rule:nonzero;stroke:#000000;stroke-width:3;stroke-linecap:butt;stroke-linejoin:miter;stroke-miterlimit:4;stroke-dasharray:none;stroke-dashoffset:0;stroke-opacity:1;marker:none;marker-start:none;marker-mid:none;marker-end:none;color-rendering:auto;image-rendering:auto;shape-rendering:auto;text-rendering:auto;enable-background:accumulate" />
    <path
       id="path5003"
       d="M 497.64648 19.736328 A 74.763695 74.763695 0 0 0 428.88281 65.177734 A 35.045483 35.045483 0 0 0 420.54492 64.126953 A 35.045483 35.045483 0 0 0 385.74414 95.21875 A 72.42733 72.42733 0 0 0 376.1543 94.5 A 72.42733 72.42733 0 0 0 303.94727 162.52539 A 44.390945 44.390945 0 0 0 288.22852 167.21484 L 288.22852 416.91797 L 640 416.91797 L 640 167.79297 A 51.40004 51.40004 0 0 0 616.80078 162.25391 A 51.40004 51.40004 0 0 0 589.25195 170.27539 A 39.718212 39.718212 0 0 0 581.89453 165.88477 A 29.204569 29.204569 0 0 0 588.76367 147.06836 A 29.204569 29.204569 0 0 0 568.13477 119.1543 A 74.763695 74.763695 0 0 0 572.41016 94.5 A 74.763695 74.763695 0 0 0 497.64648 19.736328 z "
       style="color:#000000;clip-rule:nonzero;display:inline;overflow:visible;visibility:visible;opacity:1;isolation:auto;mix-blend-mode:normal;color-interpolation:sRGB;color-interpolation-filters:linearRGB;solid-color:#000000;solid-opacity:1;fill:#550000;fill-opacity:1;fill-rule:nonzero;stroke:#000000;stroke-width:3;stroke-linecap:butt;stroke-linejoin:miter;stroke-miterlimit:4;stroke-dasharray:none;stroke-dashoffset:0;stroke-opacity:1;marker:none;marker-start:none;marker-mid:none;marker-end:none;color-rendering:auto;image-rendering:auto;shape-rendering:auto;text-rendering:auto;enable-background:accumulate" />
    <rect
       width="76.964951"
       height="182.2854"
       rx="7.1608467"
       ry="7.1608467"
       x="252.60994"
       y="44.547932"
       id="rect4382"
       style="color:#000000;display:inline;overflow:visible;visibility:visible;fill:#aa0000;fill-opacity:1;fill-rule:nonzero;stroke:none;stroke-width:0.5;marker:none;enable-background:accumulate" />
    <rect
       width="76.964951"
       height="29.043207"
       rx="0"
       ry="0"
       x="252.60994"
       y="66.030479"
       id="rect4384"
       style="color:#000000;display:inline;overflow:visible;visibility:visible;fill:#00ff00;fill-opacity:1;fill-rule:nonzero;stroke:#000000;stroke-width:3;marker:none;enable-background:accumulate;stroke-opacity:1;stroke-miterlimit:4;stroke-dasharray:none" />
    <rect
       width="76.964951"
       height="182.2854"
       rx="7.1608467"
       ry="7.1608467"
       x="252.60994"
       y="44.547932"
       id="rect4386"
       style="color:#000000;display:inline;overflow:visible;visibility:visible;fill:none;stroke:#000000;stroke-width:3;stroke-linecap:butt;stroke-linejoin:miter;stroke-miterlimit:4;stroke-dasharray:none;stroke-dashoffset:0;stroke-opacity:1;marker:none;enable-background:accumulate" />
    <path
       d="m 223.5958,127.09375 78.77803,7.45365"
       id="path4142-2"
       style="display:inline;fill:none;stroke:#000000;stroke-width:4.28120995;stroke-linecap:round;stroke-linejoin:miter;stroke-miterlimit:4;stroke-dasharray:none;stroke-opacity:1" />
    <path
       id="rect4798"
       d="M 227.75781 54.816406 A 1.985852 1.9966981 5.6121664 0 0 225.85938 56.638672 L 219.47266 121.61914 L 217.69531 121.44531 C 216.91003 121.36815 216.21584 121.93932 216.13867 122.72461 L 215.33594 130.89062 C 215.25877 131.67591 215.82995 132.3701 216.61523 132.44727 L 218.39258 132.62109 L 217.37891 142.93555 L 215.60156 142.76172 C 214.81628 142.68455 214.12209 143.25573 214.04492 144.04102 L 213.74805 147.05078 C 213.67088 147.83607 214.24206 148.53026 215.02734 148.60742 L 216.80469 148.78125 L 215.14844 165.62695 L 213.37109 165.45312 C 212.58581 165.37596 211.89162 165.94714 211.81445 166.73242 L 211.51953 169.74219 C 211.44236 170.52747 212.01159 171.22166 212.79688 171.29883 L 214.57422 171.47266 L 209.60742 222.01172 L 207.83008 221.83789 C 207.73192 221.82824 207.63531 221.82815 207.54102 221.83789 C 206.88098 221.90605 206.34096 222.43006 206.27344 223.11719 L 205.97852 226.12695 C 205.90135 226.91224 206.47057 227.60643 207.25586 227.68359 L 209.0332 227.85742 L 207.37891 244.70312 L 205.60156 244.5293 C 205.5034 244.51965 205.40679 244.51956 205.3125 244.5293 C 204.65247 244.59745 204.11244 245.12147 204.04492 245.80859 L 203.74805 248.81836 C 203.67088 249.60365 204.24206 250.29783 205.02734 250.375 L 206.80273 250.54883 L 205.35742 265.26562 A 1.985852 1.9966981 5.6121664 1 0 209.25195 265.64844 L 210.69727 250.93164 L 212.36523 251.0957 C 213.15052 251.17287 213.8447 250.60169 213.92188 249.81641 L 214.2168 246.80664 C 214.29396 246.02135 213.72474 245.32717 212.93945 245.25 L 211.27344 245.08594 L 212.92773 228.24023 L 214.59375 228.4043 C 215.37904 228.48146 216.07322 227.91029 216.15039 227.125 L 216.44727 224.11523 C 216.52443 223.32995 215.95325 222.63576 215.16797 222.55859 L 213.50195 222.39453 L 218.46875 171.85547 L 220.13477 172.01953 C 220.92005 172.0967 221.61424 171.52552 221.69141 170.74023 L 221.98633 167.73047 C 222.06349 166.94518 221.49427 166.25099 220.70898 166.17383 L 219.04297 166.00977 L 220.69922 149.16406 L 222.36523 149.32812 C 223.15052 149.40529 223.84471 148.83411 223.92188 148.04883 L 224.2168 145.03906 C 224.29396 144.25378 223.72474 143.55959 222.93945 143.48242 L 221.27344 143.31836 L 222.28711 133.00391 L 223.95312 133.16797 C 224.73841 133.24514 225.4326 132.67591 225.50977 131.89062 L 226.3125 123.72266 C 226.38967 122.93737 225.81849 122.24318 225.0332 122.16602 L 223.36914 122.00195 L 229.75391 57.021484 A 1.985852 1.9966981 5.6121664 0 0 227.95508 54.818359 A 1.985852 1.9966981 5.6121664 0 0 227.75781 54.816406 z M 322.5 144.80078 C 320.9922 144.80078 319.7793 146.01574 319.7793 147.52539 L 319.7793 202.16406 L 301.61328 202.16406 L 301.61328 200.85742 C 301.61328 199.59792 300.82812 198.58398 299.85352 198.58398 L 297.32227 198.58398 C 296.34766 198.58398 295.5625 199.59792 295.5625 200.85742 L 295.5625 202.16406 L 234.36523 202.16406 C 231.00812 202.16406 228.30469 204.86554 228.30469 208.22266 L 228.30469 263.30664 C 228.30469 266.66376 231.00812 269.36719 234.36523 269.36719 L 355.55273 269.36719 C 358.90985 269.36719 361.61328 266.66376 361.61328 263.30664 L 361.61328 208.22266 C 361.61328 204.86554 358.90985 202.16406 355.55273 202.16406 L 353.88086 202.16406 L 353.88086 200.85742 C 353.88086 199.59792 353.09765 198.58398 352.12305 198.58398 L 349.5918 198.58398 C 348.61719 198.58398 347.83203 199.59792 347.83203 200.85742 L 347.83203 202.16406 L 335.53516 202.16406 L 335.53516 147.52539 C 335.53516 146.01574 334.3203 144.80078 332.8125 144.80078 L 322.5 144.80078 z "
       style="color:#000000;display:inline;overflow:visible;visibility:visible;fill:#ffff00;fill-opacity:1;fill-rule:nonzero;stroke:none;stroke-width:2.99999999;stroke-linecap:butt;stroke-linejoin:miter;stroke-miterlimit:4;stroke-dasharray:none;stroke-dashoffset:0;stroke-opacity:1;marker:none;enable-background:accumulate" />
    <path
       id="path4086-1"
       d="M 227.75781 54.816406 A 1.985852 1.9966981 5.6121664 0 0 225.85938 56.638672 L 219.47266 121.61914 L 223.36914 122.00195 L 229.75391 57.021484 A 1.985852 1.9966981 5.6121664 0 0 227.95508 54.818359 A 1.985852 1.9966981 5.6121664 0 0 227.75781 54.816406 z M 218.39258 132.62109 L 217.37891 142.93555 L 221.27344 143.31836 L 222.28711 133.00391 L 218.39258 132.62109 z M 216.80469 148.78125 L 215.14844 165.62695 L 219.04297 166.00977 L 220.69922 149.16406 L 216.80469 148.78125 z M 214.57422 171.47266 L 209.60742 222.01172 L 213.50195 222.39453 L 218.46875 171.85547 L 214.57422 171.47266 z M 209.0332 227.85742 L 207.37891 244.70312 L 211.27344 245.08594 L 212.92773 228.24023 L 209.0332 227.85742 z M 206.80273 250.54883 L 205.35742 265.26562 A 1.985852 1.9966981 5.6121664 1 0 209.25195 265.64844 L 210.69727 250.93164 L 206.80273 250.54883 z "
       style="color:#000000;font-style:normal;font-variant:normal;font-weight:normal;font-stretch:normal;font-size:medium;line-height:normal;font-family:Sans;-inkscape-font-specification:Sans;text-indent:0;text-align:start;text-decoration:none;text-decoration-line:none;letter-spacing:normal;word-spacing:normal;text-transform:none;direction:ltr;block-progression:tb;writing-mode:lr-tb;baseline-shift:baseline;text-anchor:start;display:inline;overflow:visible;visibility:visible;fill:none;fill-opacity:1;fill-rule:nonzero;stroke:#000000;stroke-width:3;stroke-linecap:butt;stroke-linejoin:miter;stroke-miterlimit:4;stroke-dasharray:none;stroke-dashoffset:0;stroke-opacity:1;marker:none;enable-background:accumulate" />
    <rect
       width="10.221768"
       height="5.8729124"
       ry="1.424311"
       x="227.10457"
       y="120.99303"
       transform="matrix(0.99520666,0.09779423,-0.09779423,0.99520666,0,0)"
       id="rect4109-8"
       style="color:#000000;display:inline;overflow:visible;visibility:visible;fill:none;fill-opacity:1;fill-rule:nonzero;stroke:#000000;stroke-width:2.99999999;stroke-linecap:butt;stroke-linejoin:miter;stroke-miterlimit:4;stroke-dasharray:none;stroke-dashoffset:0;stroke-opacity:1;marker:none;enable-background:accumulate" />
    <rect
       width="10.221768"
       height="5.8729124"
       ry="1.424311"
       x="227.10457"
       y="143.79376"
       transform="matrix(0.99520666,0.09779423,-0.09779423,0.99520666,0,0)"
       id="rect4111-8"
       style="color:#000000;display:inline;overflow:visible;visibility:visible;fill:none;fill-opacity:1;fill-rule:nonzero;stroke:#000000;stroke-width:2.99999999;stroke-linecap:butt;stroke-linejoin:miter;stroke-miterlimit:4;stroke-dasharray:none;stroke-dashoffset:0;stroke-opacity:1;marker:none;enable-background:accumulate" />
    <rect
       width="10.221768"
       height="5.8729124"
       ry="1.424311"
       x="227.10457"
       y="200.45012"
       transform="matrix(0.99520666,0.09779423,-0.09779423,0.99520666,0,0)"
       id="rect4113-2"
       style="color:#000000;display:inline;overflow:visible;visibility:visible;fill:none;fill-opacity:1;fill-rule:nonzero;stroke:#000000;stroke-width:2.99999999;stroke-linecap:butt;stroke-linejoin:miter;stroke-miterlimit:4;stroke-dasharray:none;stroke-dashoffset:0;stroke-opacity:1;marker:none;enable-background:accumulate" />
    <rect
       width="10.221768"
       height="5.8729124"
       ry="1.424311"
       x="227.10457"
       y="223.25087"
       transform="matrix(0.99520666,0.09779423,-0.09779423,0.99520666,0,0)"
       id="rect4115-5"
       style="color:#000000;display:inline;overflow:visible;visibility:visible;fill:none;fill-opacity:1;fill-rule:nonzero;stroke:#000000;stroke-width:2.99999999;stroke-linecap:butt;stroke-linejoin:miter;stroke-miterlimit:4;stroke-dasharray:none;stroke-dashoffset:0;stroke-opacity:1;marker:none;enable-background:accumulate" />
    <rect
       width="10.221768"
       height="11.054894"
       ry="1.424311"
       x="227.10457"
       y="99.574135"
       transform="matrix(0.99520666,0.09779423,-0.09779423,0.99520666,0,0)"
       id="rect4140-4"
       style="color:#000000;display:inline;overflow:visible;visibility:visible;fill:none;fill-opacity:1;fill-rule:nonzero;stroke:#000000;stroke-width:2.99999999;stroke-linecap:butt;stroke-linejoin:miter;stroke-miterlimit:4;stroke-dasharray:none;stroke-dashoffset:0;stroke-opacity:1;marker:none;enable-background:accumulate" />
    <path
       d="m 234.44657,123.1948 -1.14668,11.66928"
       id="path4144-7"
       style="display:inline;fill:none;stroke:#000000;stroke-width:2.99684691;stroke-linecap:round;stroke-linejoin:miter;stroke-miterlimit:4;stroke-dasharray:none;stroke-opacity:1" />
    <path
       d="m 243.63465,124.09766 -1.14672,11.66929"
       id="path4146-3"
       style="display:inline;fill:none;stroke:#000000;stroke-width:2.99684691;stroke-linecap:round;stroke-linejoin:miter;stroke-miterlimit:4;stroke-dasharray:none;stroke-opacity:1" />
    <path
       d="m 252.80847,124.99913 -1.14668,11.66929"
       id="path4154-8"
       style="display:inline;fill:none;stroke:#000000;stroke-width:2.99684691;stroke-linecap:round;stroke-linejoin:miter;stroke-miterlimit:4;stroke-dasharray:none;stroke-opacity:1" />
    <path
       d="m 261.98233,125.9006 -1.14668,11.66929"
       id="path4158-0"
       style="display:inline;fill:none;stroke:#000000;stroke-width:2.99684691;stroke-linecap:round;stroke-linejoin:miter;stroke-miterlimit:4;stroke-dasharray:none;stroke-opacity:1" />
    <path
       d="m 271.15624,126.80208 -1.14668,11.66928"
       id="path4160-3"
       style="display:inline;fill:none;stroke:#000000;stroke-width:2.99684691;stroke-linecap:round;stroke-linejoin:miter;stroke-miterlimit:4;stroke-dasharray:none;stroke-opacity:1" />
    <path
       d="m 280.3301,127.70355 -1.14668,11.66929"
       id="path4164-3"
       style="display:inline;fill:none;stroke:#000000;stroke-width:2.99684691;stroke-linecap:round;stroke-linejoin:miter;stroke-miterlimit:4;stroke-dasharray:none;stroke-opacity:1" />
    <path
       d="m 289.50396,128.60502 -1.14668,11.66929"
       id="path4166-2"
       style="display:inline;fill:none;stroke:#000000;stroke-width:2.99684691;stroke-linecap:round;stroke-linejoin:miter;stroke-miterlimit:4;stroke-dasharray:none;stroke-opacity:1" />
    <path
       d="m 298.67795,129.50651 -1.14668,11.66928"
       id="path4168-5-2"
       style="display:inline;fill:none;stroke:#000000;stroke-width:2.99684691;stroke-linecap:round;stroke-linejoin:miter;stroke-miterlimit:4;stroke-dasharray:none;stroke-opacity:1" />
    <path
       id="rect4565"
       d="M 322.5 144.80078 C 320.9922 144.80078 319.7793 146.01574 319.7793 147.52539 L 319.7793 202.16406 L 335.53516 202.16406 L 335.53516 147.52539 C 335.53516 146.01574 334.3203 144.80078 332.8125 144.80078 L 322.5 144.80078 z "
       style="color:#000000;display:inline;overflow:visible;visibility:visible;fill:none;fill-opacity:1;stroke:#000000;stroke-width:3;stroke-linecap:butt;stroke-linejoin:miter;stroke-miterlimit:4;stroke-dasharray:none;stroke-dashoffset:0;stroke-opacity:1;marker:none;enable-background:accumulate" />
    <rect
       width="133.3074"
       height="67.202881"
       rx="6.0597801"
       ry="6.0597801"
       x="228.30525"
       y="202.1637"
       id="rect4378"
       style="color:#000000;display:inline;overflow:visible;visibility:visible;fill:none;fill-opacity:1;fill-rule:nonzero;stroke:none;stroke-width:3;marker:none;enable-background:accumulate;stroke-miterlimit:4;stroke-dasharray:none" />
    <path
       id="rect4574"
       d="m 347.56836,202.16406 -45.84375,0 m -6.26172,0 -61.09766,0 c -3.35711,0 -6.06054,2.70148 -6.06054,6.0586 l 0,55.08398 c 0,3.35712 2.70343,6.06055 6.06054,6.06055 l 121.1875,0 c 3.35712,0 6.06055,-2.70343 6.06055,-6.06055 l 0,-55.08398 c 0,-3.35712 -2.70343,-6.0586 -6.06055,-6.0586 l -1.11718,0"
       style="color:#000000;display:inline;overflow:visible;visibility:visible;fill:none;stroke:#000000;stroke-width:3;stroke-miterlimit:4;stroke-dasharray:none;stroke-opacity:1;marker:none;enable-background:accumulate" />
    <path
       id="rect4364-0-6-2"
       d="M 297.32227 198.58398 C 296.34766 198.58398 295.5625 199.59792 295.5625 200.85742 L 295.5625 250.72461 C 295.5625 251.98411 296.34766 252.99805 297.32227 252.99805 L 299.85352 252.99805 C 300.82812 252.99805 301.61328 251.98411 301.61328 250.72461 L 301.61328 246.01562 L 347.83203 246.01562 L 347.83203 250.72461 C 347.83203 251.98411 348.61719 252.99805 349.5918 252.99805 L 352.12305 252.99805 C 353.09765 252.99805 353.88086 251.98411 353.88086 250.72461 L 353.88086 200.85742 C 353.88086 199.59792 353.09765 198.58398 352.12305 198.58398 L 349.5918 198.58398 C 348.61719 198.58398 347.83203 199.59792 347.83203 200.85742 L 347.83203 208.47852 L 301.61328 208.47852 L 301.61328 200.85742 C 301.61328 199.59792 300.82812 198.58398 299.85352 198.58398 L 297.32227 198.58398 z M 301.61328 213.54492 L 347.83203 213.54492 L 347.83203 219.0957 L 301.61328 219.0957 L 301.61328 213.54492 z M 301.61328 224.16211 L 347.83203 224.16211 L 347.83203 229.95312 L 301.61328 229.95312 L 301.61328 224.16211 z M 301.61328 235.02148 L 347.83203 235.02148 L 347.83203 240.94727 L 301.61328 240.94727 L 301.61328 235.02148 z "
       style="color:#000000;display:inline;overflow:visible;visibility:visible;fill:none;fill-opacity:1;fill-rule:nonzero;stroke:#000000;stroke-width:3;stroke-miterlimit:4;stroke-dasharray:none;stroke-opacity:1;marker:none;enable-background:accumulate" />
    <path
       id="rect4924"
       d="M 379.78906 84.046875 C 379.06469 84.046875 378.48047 84.630423 378.48047 85.355469 L 378.48047 117.11328 C 378.48047 117.39972 378.59131 117.65019 378.74609 117.86523 L 360.56836 187.85547 L 360.56836 203.95312 L 360.56836 256.42383 C 360.56836 260.36506 363.67178 263.55859 367.60938 263.55859 L 493.83984 263.55859 C 497.77744 263.55859 500.88086 260.36506 500.88086 256.42383 L 500.88086 235.86133 A 2.9521998 2.9521998 0 0 0 501.66016 235.55078 A 2.9521998 2.9521998 0 0 0 500.88086 230.12891 L 500.88086 205.78711 L 506.27734 205.78711 C 506.76954 205.78711 507.16602 205.39109 507.16602 204.89844 L 507.16602 196.89453 C 507.16602 196.40188 506.76954 196.00391 506.27734 196.00391 L 500.88086 196.00391 L 500.88086 194.81641 L 495.93945 179.16016 L 515.34375 179.16016 L 515.34375 206.87109 L 520.66797 206.87109 L 520.66797 179.16016 L 540.59766 179.16016 L 540.59766 206.87109 L 545.92383 206.87109 L 545.92383 179.16016 L 565.77148 179.16016 L 565.77148 206.87109 L 571.0957 206.87109 L 571.0957 179.16016 L 591.42773 179.16016 L 591.42773 206.87109 L 596.75391 206.87109 L 596.75391 179.16016 L 616.60156 179.16016 L 616.60156 206.87109 L 621.92578 206.87109 L 621.92578 179.16016 L 627.96875 179.16016 L 627.96875 172.29688 L 493.77148 172.29688 L 473.00195 106.49023 C 474.86278 105.11607 476.07031 102.91062 476.07031 100.4082 C 476.07031 96.220645 472.70321 92.849609 468.51953 92.849609 L 392.00977 92.849609 L 392.00977 85.355469 C 392.00977 84.630423 391.4275 84.046875 390.70312 84.046875 L 379.78906 84.046875 z M 392.00977 107.9668 L 432.55078 107.9668 L 432.55078 131.97852 L 428.98242 131.97852 C 426.52143 131.97852 424.54102 133.96056 424.54102 136.42383 L 424.54102 160.43359 C 424.54102 162.89686 426.52143 164.88086 428.98242 164.88086 L 432.55078 164.88086 L 432.55078 172.29688 L 416.60938 172.29688 L 416.60938 171.5293 C 416.60937 167.34177 413.23057 163.95898 409.04688 163.95898 L 375.46875 163.95898 L 387.28711 118.42188 L 390.70312 118.42188 C 391.4275 118.42188 392.00977 117.83833 392.00977 117.11328 L 392.00977 107.9668 z M 439.67773 107.9668 L 457.05469 107.9668 L 457.05469 172.29688 L 439.67773 172.29688 L 439.67773 164.87695 C 442.12285 164.85868 444.08594 162.88544 444.08594 160.43359 L 444.08594 136.42383 C 444.08594 133.97198 442.12285 132.0007 439.67773 131.98242 L 439.67773 107.9668 z M 462.77734 107.9668 L 464.76953 107.9668 L 485.07812 172.29688 L 473.46484 172.29688 L 473.46484 170.91992 C 476.18169 170.18972 478.16016 167.69207 478.16016 164.74219 C 478.16016 161.21845 475.33294 158.38867 471.8125 158.38867 C 468.29206 158.38867 465.38086 161.2185 465.38086 164.74219 C 465.38086 167.60516 467.30564 170.02421 469.90039 170.83203 L 469.90039 172.29688 L 462.77734 172.29688 L 462.77734 107.9668 z M 419.00781 179.16016 L 432.55078 179.16016 L 432.55078 196.00391 L 428.09375 196.00391 C 427.60155 196.00391 427.20703 196.40188 427.20703 196.89453 L 427.20703 204.89844 C 427.20703 205.39109 427.60155 205.78711 428.09375 205.78711 L 432.55078 205.78711 L 432.55078 221.82422 L 408.61133 221.82422 L 408.61133 210.25 L 409.04688 210.25 C 411.68052 210.25 413.99375 208.90902 415.34766 206.87109 L 419.00781 206.87109 L 419.00781 179.16016 z M 444.66602 179.16016 L 457.05469 179.16016 L 457.05469 189.4082 C 456.16968 190.64774 455.64258 192.16165 455.64258 193.80469 L 455.64258 196.00391 L 444.66602 196.00391 L 444.66602 179.16016 z M 462.77734 179.16016 L 464.51367 179.16016 L 464.51367 186.23438 L 463.20703 186.23438 C 463.06213 186.23438 462.9202 186.24785 462.77734 186.25586 L 462.77734 179.16016 z M 469.83789 179.16016 L 469.90039 179.16016 L 469.90039 186.23438 L 469.83789 186.23438 L 469.83789 179.16016 z M 473.46484 179.16016 L 487.24609 179.16016 L 489.47852 186.23438 L 473.46484 186.23438 L 473.46484 179.16016 z M 444.66602 205.78711 L 455.64258 205.78711 L 455.64258 238.18359 L 444.16797 238.18359 L 444.16797 229.30664 C 444.16797 226.21627 442.32385 223.6176 439.67773 222.46484 L 439.67773 206.87109 L 444.66602 206.87109 L 444.66602 205.78711 z M 368.56641 207.54688 C 369.95274 209.19925 372.03 210.25 374.35938 210.25 L 375.75 210.25 L 375.75 221.82422 L 370.79492 221.82422 C 370.01615 221.82422 369.26795 221.93945 368.56641 222.15234 L 368.56641 207.54688 z M 381.05273 210.25 L 403.2207 210.25 L 403.2207 221.82422 L 381.05273 221.82422 L 381.05273 210.25 z M 543.65039 230.04102 A 2.9521978 2.9521978 0 0 0 542.23047 235.55078 A 2.9521978 2.9521978 0 1 0 545.18359 230.4375 A 2.9521978 2.9521978 0 0 0 543.65039 230.04102 z "
       style="color:#000000;display:inline;overflow:visible;visibility:visible;fill:#008000;fill-opacity:1;fill-rule:nonzero;stroke:none;stroke-width:2.14060497;stroke-linecap:butt;stroke-linejoin:miter;stroke-miterlimit:4;stroke-dasharray:none;stroke-dashoffset:0;stroke-opacity:1;marker:none;enable-background:accumulate" />
    <path
       id="rect4049-2"
       d="M 379.78906 84.046875 C 379.06469 84.046875 378.48047 84.630423 378.48047 85.355469 L 378.48047 117.11328 C 378.48047 117.39972 378.59131 117.65019 378.74609 117.86523 L 360.56836 187.85547 L 360.56836 203.95312 L 360.56836 256.42383 C 360.56836 260.36506 363.67173 263.55859 367.60938 263.55859 L 493.83984 263.55859 C 497.77744 263.55859 500.88086 260.36506 500.88086 256.42383 L 500.88086 205.78711 L 506.27734 205.78711 C 506.76954 205.78711 507.16602 205.39109 507.16602 204.89844 L 507.16602 196.89453 C 507.16602 196.40188 506.76954 196.00391 506.27734 196.00391 L 500.88086 196.00391 L 500.88086 194.81641 L 495.93945 179.16016 L 495.49609 179.16016 L 495.49609 206.87109 L 490.16992 206.87109 L 490.16992 179.16016 L 487.24609 179.16016 L 489.47852 186.23438 L 473.46484 186.23438 L 473.46484 179.16016 L 469.90039 179.16016 L 469.90039 186.23438 L 469.83789 186.23438 L 469.83789 206.87109 L 464.51367 206.87109 L 464.51367 186.23438 L 463.20703 186.23438 C 463.06213 186.23438 462.9202 186.24785 462.77734 186.25586 L 462.77734 179.16016 L 457.05469 179.16016 L 457.05469 189.4082 C 456.16968 190.64774 455.64258 192.16165 455.64258 193.80469 L 455.64258 196.00391 L 444.66602 196.00391 L 444.66602 205.78711 L 455.64258 205.78711 L 455.64258 238.18359 L 444.16797 238.18359 L 444.16797 229.30664 C 444.16797 226.21627 442.32385 223.6176 439.67773 222.46484 L 439.67773 206.87109 L 439.33984 206.87109 L 439.33984 179.16016 L 432.55078 179.16016 L 432.55078 196.00391 L 428.09375 196.00391 C 427.60155 196.00391 427.20703 196.40188 427.20703 196.89453 L 427.20703 204.89844 C 427.20703 205.39109 427.60155 205.78711 428.09375 205.78711 L 432.55078 205.78711 L 432.55078 221.82422 L 408.61133 221.82422 L 408.61133 210.25 L 409.04688 210.25 C 411.68052 210.25 413.994 208.909 415.34766 206.87109 L 413.68359 206.87109 L 413.68359 179.16016 L 406.25977 179.16016 L 406.25977 172.29688 L 416.60938 172.29688 L 416.60938 171.5293 C 416.60937 167.34177 413.23057 163.95898 409.04688 163.95898 L 375.46875 163.95898 L 387.28711 118.42188 L 390.70312 118.42188 C 391.4275 118.42188 392.00977 117.83833 392.00977 117.11328 L 392.00977 107.9668 L 432.55078 107.9668 L 432.55078 131.97852 L 428.98242 131.97852 C 426.52143 131.97852 424.54102 133.96056 424.54102 136.42383 L 424.54102 160.43359 C 424.54102 162.89686 426.52143 164.88086 428.98242 164.88086 L 432.55078 164.88086 L 432.55078 172.29688 L 439.67773 172.29688 L 439.67773 164.87695 C 442.12285 164.85868 444.08594 162.88544 444.08594 160.43359 L 444.08594 136.42383 C 444.08594 133.97198 442.12285 132.0007 439.67773 131.98242 L 439.67773 107.9668 L 457.05469 107.9668 L 457.05469 172.29688 L 462.77734 172.29688 L 462.77734 107.9668 L 464.76953 107.9668 L 485.07812 172.29688 L 493.77344 172.29688 L 473.00195 106.49023 C 474.86314 105.11618 476.07031 102.91113 476.07031 100.4082 C 476.07031 96.220651 472.70321 92.849609 468.51953 92.849609 L 392.00977 92.849609 L 392.00977 85.355469 C 392.00977 84.630423 391.42751 84.046875 390.70312 84.046875 L 379.78906 84.046875 z M 471.8125 158.38867 C 468.29206 158.38867 465.38086 161.2185 465.38086 164.74219 C 465.38086 167.60516 467.30564 170.02421 469.90039 170.83203 L 469.90039 172.29688 L 473.46484 172.29688 L 473.46484 170.91992 C 476.18169 170.18972 478.16016 167.69207 478.16016 164.74219 C 478.16016 161.21845 475.33294 158.38867 471.8125 158.38867 z M 368.56641 207.54688 C 369.95274 209.19925 372.02999 210.25 374.35938 210.25 L 375.75 210.25 L 375.75 221.82422 L 370.79492 221.82422 C 370.01615 221.82422 369.26795 221.93945 368.56641 222.15234 L 368.56641 207.54688 z M 381.05273 210.25 L 403.2207 210.25 L 403.2207 221.82422 L 381.05273 221.82422 L 381.05273 210.25 z "
       style="color:#000000;display:inline;overflow:visible;visibility:visible;fill:none;fill-opacity:1;fill-rule:nonzero;stroke:#000000;stroke-width:3;stroke-linecap:butt;stroke-linejoin:miter;stroke-miterlimit:4;stroke-dasharray:none;stroke-dashoffset:0;stroke-opacity:1;marker:none;enable-background:accumulate" />
    <path
       id="rect4779"
       d="M 406.25977 172.29688 L 406.25977 179.16016 L 413.68359 179.16016 L 413.68359 206.87109 L 419.00781 206.87109 L 419.00781 179.16016 L 439.33984 179.16016 L 439.33984 206.87109 L 444.66602 206.87109 L 444.66602 179.16016 L 464.51367 179.16016 L 464.51367 206.87109 L 469.83789 206.87109 L 469.83789 179.16016 L 490.16992 179.16016 L 490.16992 206.87109 L 495.49609 206.87109 L 495.49609 179.16016 L 515.34375 179.16016 L 515.34375 206.87109 L 520.66797 206.87109 L 520.66797 179.16016 L 540.59766 179.16016 L 540.59766 206.87109 L 545.92383 206.87109 L 545.92383 179.16016 L 565.77148 179.16016 L 565.77148 206.87109 L 571.0957 206.87109 L 571.0957 179.16016 L 591.42773 179.16016 L 591.42773 206.87109 L 596.75391 206.87109 L 596.75391 179.16016 L 616.60156 179.16016 L 616.60156 206.87109 L 621.92578 206.87109 L 621.92578 179.16016 L 627.96875 179.16016 L 627.96875 172.29688 L 406.25977 172.29688 z "
       style="color:#000000;display:inline;overflow:visible;visibility:visible;fill:none;fill-opacity:1;fill-rule:nonzero;stroke:#000000;stroke-width:3;stroke-linecap:round;stroke-linejoin:miter;stroke-miterlimit:4;stroke-dasharray:none;stroke-dashoffset:0;stroke-opacity:1;marker:none;enable-background:accumulate" />
    <path
       style="color:#000000;display:inline;overflow:visible;visibility:visible;fill:#aa0000;fill-opacity:1;fill-rule:nonzero;stroke:none;stroke-width:0.5;marker:none;enable-background:accumulate"
       id="path3455"
       d="m 169.42291,249.13506 c 0,0 146.64861,0 189.224,0 42.57539,0 49.67129,-44.94068 49.67129,-44.94068 l 217.60756,0 c 0,0 0,9.46117 0,26.01829 0,122.99561 -106.4385,189.22396 -106.4385,189.22396 0,0 -245.99113,0 -283.83592,0 -4.94736,-18.46388 2.36529,-52.03657 -16.55711,-59.13246 -18.92239,-7.09593 -49.67128,-18.92244 -49.67128,-47.306 0,-28.38361 -4e-5,-63.86311 -4e-5,-63.86311 z" />
    <path
       style="color:#000000;display:inline;overflow:visible;visibility:visible;fill:none;stroke:#000000;stroke-width:2.14060497;stroke-linecap:butt;stroke-linejoin:miter;stroke-miterlimit:4;stroke-dasharray:none;stroke-dashoffset:0;stroke-opacity:1;marker:none;enable-background:accumulate"
       id="path3425"
       d="m 169.42291,249.13506 c 0,0 146.64861,0 189.224,0 42.57539,0 49.67129,-44.94068 49.67129,-44.94068 l 217.60756,0 c 0,0 0,9.46117 0,26.01829 0,122.99561 -106.4385,189.22396 -106.4385,189.22396 0,0 -245.99113,0 -283.83592,0 -4.94736,-18.46388 2.36529,-52.03657 -16.55711,-59.13246 -18.92239,-7.09593 -49.67128,-18.92244 -49.67128,-47.306 0,-28.38361 -4e-5,-63.86311 -4e-5,-63.86311 z" />
    <path
       id="path4998"
       d="M 429.62305 241.57617 C 429.62305 241.57617 420.78456 286.51758 367.75 286.51758 L 169.42383 286.51758 C 169.42384 297.69146 169.42383 301.22898 169.42383 312.99805 C 169.42383 341.38161 200.17136 353.20876 219.09375 360.30469 C 238.01615 367.40058 230.70303 400.97362 235.65039 419.4375 L 519.48633 419.4375 C 519.48633 419.4375 619.37797 357.28214 625.62109 241.57617 L 429.62305 241.57617 z "
       style="color:#000000;display:inline;overflow:visible;visibility:visible;fill:#800080;fill-opacity:1;fill-rule:nonzero;stroke:none;stroke-width:0.5;marker:none;enable-background:accumulate" />
    <path
       d="m 570.73889,270.79677 a 48.863172,48.863172 0 0 1 -97.72634,0 48.863172,48.863172 0 1 1 97.72634,0 z"
       id="path4676"
       style="color:#000000;display:inline;overflow:visible;visibility:visible;fill:#ff00ff;fill-opacity:1;stroke:#000000;stroke-width:3;stroke-miterlimit:4;stroke-dasharray:none;stroke-opacity:1;marker:none;enable-background:accumulate" />
    <path
       d="m 560.21374,270.79672 a 38.338025,38.338025 0 0 1 -76.67605,0 38.338025,38.338025 0 1 1 76.67605,0 z"
       id="path4682"
       style="color:#000000;display:inline;overflow:visible;visibility:visible;fill:none;stroke:#000000;stroke-width:3;stroke-miterlimit:4;stroke-dasharray:none;stroke-opacity:1;marker:none;enable-background:accumulate" />
    <path
       d="m 568.42012,270.68577 a 2.9521978,2.9521978 0 1 1 -5.90439,0 2.9521978,2.9521978 0 1 1 5.90439,0 z"
       id="path4684"
       style="color:#000000;display:inline;overflow:visible;visibility:visible;fill:none;fill-opacity:1;fill-rule:nonzero;stroke:#000000;stroke-width:2;stroke-linecap:butt;stroke-linejoin:miter;stroke-miterlimit:4;stroke-dasharray:none;stroke-dashoffset:0;stroke-opacity:1;marker:none;enable-background:accumulate" />
    <path
       d="m 481.37552,270.68577 a 2.9521978,2.9521978 0 1 1 -5.90439,0 2.9521978,2.9521978 0 1 1 5.90439,0 z"
       id="path4686"
       style="color:#000000;display:inline;overflow:visible;visibility:visible;fill:none;fill-opacity:1;fill-rule:nonzero;stroke:#000000;stroke-width:2;stroke-linecap:butt;stroke-linejoin:miter;stroke-miterlimit:4;stroke-dasharray:none;stroke-dashoffset:0;stroke-opacity:1;marker:none;enable-background:accumulate" />
    <path
       d="m 545.18287,310.93387 a 2.9521998,2.9521998 0 1 1 -2.9522,-5.11336 2.9521998,2.9521998 0 1 1 2.9522,5.11336 z"
       id="path4688"
       style="color:#000000;display:inline;overflow:visible;visibility:visible;fill:none;fill-opacity:1;fill-rule:nonzero;stroke:#000000;stroke-width:2;stroke-linecap:butt;stroke-linejoin:miter;stroke-miterlimit:4;stroke-dasharray:none;stroke-dashoffset:0;stroke-opacity:1;marker:none;enable-background:accumulate" />
    <path
       d="m 501.66057,235.55102 a 2.9521998,2.9521998 0 1 1 -2.9522,-5.11336 2.9521998,2.9521998 0 1 1 2.9522,5.11336 z"
       id="path4690"
       style="color:#000000;display:inline;overflow:visible;visibility:visible;fill:none;fill-opacity:1;fill-rule:nonzero;stroke:#000000;stroke-width:2;stroke-linecap:butt;stroke-linejoin:miter;stroke-miterlimit:4;stroke-dasharray:none;stroke-dashoffset:0;stroke-opacity:1;marker:none;enable-background:accumulate" />
    <path
       d="m 498.70836,310.93385 a 2.9521978,2.9521978 0 1 1 2.95219,-5.11336 2.9521978,2.9521978 0 1 1 -2.95219,5.11336 z"
       id="path4692"
       style="color:#000000;display:inline;overflow:visible;visibility:visible;fill:none;fill-opacity:1;fill-rule:nonzero;stroke:#000000;stroke-width:2;stroke-linecap:butt;stroke-linejoin:miter;stroke-miterlimit:4;stroke-dasharray:none;stroke-dashoffset:0;stroke-opacity:1;marker:none;enable-background:accumulate" />
    <path
       d="m 542.23068,235.55105 a 2.9521978,2.9521978 0 1 1 2.95219,-5.11336 2.9521978,2.9521978 0 1 1 -2.95219,5.11336 z"
       id="path4694"
       style="color:#000000;display:inline;overflow:visible;visibility:visible;fill:none;fill-opacity:1;fill-rule:nonzero;stroke:#000000;stroke-width:2;stroke-linecap:butt;stroke-linejoin:miter;stroke-miterlimit:4;stroke-dasharray:none;stroke-dashoffset:0;stroke-opacity:1;marker:none;enable-background:accumulate" />
    <path
       id="rect3691"
       d="M 0 357.56641 L 0 480 L 640 480 L 640 357.56641 L 0 357.56641 z "
       style="color:#000000;clip-rule:nonzero;display:inline;overflow:visible;visibility:visible;opacity:1;isolation:auto;mix-blend-mode:normal;color-interpolation:sRGB;color-interpolation-filters:linearRGB;solid-color:#000000;solid-opacity:1;fill:#0000ff;fill-opacity:1;fill-rule:evenodd;stroke:none;stroke-width:3.80193043;stroke-linecap:round;stroke-linejoin:miter;stroke-miterlimit:4;stroke-dasharray:none;stroke-dashoffset:0;stroke-opacity:1;marker:none;marker-start:none;marker-mid:none;marker-end:none;color-rendering:auto;image-rendering:auto;shape-rendering:auto;text-rendering:auto;enable-background:accumulate" />
    <path
       id="path3859"
       d="M 0 357.56641 L 0 366.05859 A 406.54428 122.84362 0 0 0 321.78125 414.07422 A 406.54428 122.84362 0 0 0 640 367.67383 L 640 357.56641 L 0 357.56641 z "
       style="color:#000000;clip-rule:nonzero;display:inline;overflow:visible;visibility:visible;opacity:1;isolation:auto;mix-blend-mode:normal;color-interpolation:sRGB;color-interpolation-filters:linearRGB;solid-color:#000000;solid-opacity:1;fill:#00ffff;fill-opacity:1;fill-rule:evenodd;stroke:none;stroke-width:3.80193043;stroke-linecap:round;stroke-linejoin:miter;stroke-miterlimit:4;stroke-dasharray:none;stroke-dashoffset:0;stroke-opacity:1;marker:none;marker-start:none;marker-mid:none;marker-end:none;color-rendering:auto;image-rendering:auto;shape-rendering:auto;text-rendering:auto;enable-background:accumulate" />
    <rect
       style="color:#000000;clip-rule:nonzero;display:inline;overflow:visible;visibility:visible;opacity:1;isolation:auto;mix-blend-mode:normal;color-interpolation:sRGB;color-interpolation-filters:linearRGB;solid-color:#000000;solid-opacity:1;fill:none;fill-opacity:1;fill-rule:evenodd;stroke:#000000;stroke-width:4;stroke-linecap:round;stroke-linejoin:miter;stroke-miterlimit:4;stroke-dasharray:none;stroke-dashoffset:0;stroke-opacity:1;marker:none;marker-start:none;marker-mid:none;marker-end:none;color-rendering:auto;image-rendering:auto;shape-rendering:auto;text-rendering:auto;enable-background:accumulate"
       id="rect5042"
       width="640"
       height="480"
       x="0"
       y="0" />
    <path
       style="color:#000000;clip-rule:nonzero;display:inline;overflow:visible;visibility:visible;opacity:1;isolation:auto;mix-blend-mode:normal;color-interpolation:sRGB;color-interpolation-filters:linearRGB;solid-color:#000000;solid-opacity:1;fill:none;fill-opacity:1;fill-rule:evenodd;stroke:#000000;stroke-width:3;stroke-linecap:round;stroke-linejoin:miter;stroke-miterlimit:4;stroke-dasharray:none;stroke-dashoffset:0;stroke-opacity:1;marker:none;marker-start:none;marker-mid:none;marker-end:none;color-rendering:auto;image-rendering:auto;shape-rendering:auto;text-rendering:auto;enable-background:accumulate"
       d="m 640,367.67383 0,-10.10742 -640,0 0,8.49218"
       id="path5053" />
  </g>
</svg>
