<?xml version="1.0" encoding="UTF-8" standalone="no"?>
<svg xmlns:svg="http://www.w3.org/2000/svg" xmlns="http://www.w3.org/2000/svg" xmlns:xlink="http://www.w3.org/1999/xlink" version="1.0" width="100%" height="100%" viewBox="0 0 640 480" title="0 0 640 480" id="paint">
<defs id="defs2385">
    <style type="text/css">
        .c0.c rect  { fill:white; }
        .c1.c rect  { fill:red; }
        .c2.c rect  { fill:green; }
        .c3.c rect  { fill:blue; }
        .c1.c text  { fill:pink; }
        .c2.c text  { fill:lime; }
        .c3.c text  { fill:cyan; }
        .c rect     { fill:white; cursor:pointer; }
        .c text     { fill:black; cursor:pointer; }

         .nozero #c0 { display:none; }
        .p          { cursor:pointer; }
        .s .p       { stroke:#FF5555; stroke-width:10px;}

        .wrong.c rect { fill:black !important; }

        .bg1        { fill:#5599BB; }
        .bg2        { fill:#2277BB; }
        .bg3        { fill:#77CCFF; }

        .nosource #source { display:none; }
        #source g   { cursor:pointer; }
        #source .c0 { fill:white; }
        #source .c1 { fill:red; }
        #source text.c1 { fill:pink; }
        #source .c2 { fill:green; }
        #source text.c2 { fill:lime; }
        #source .c3 { fill:blue; }
        #source text.c3 { fill:cyan; }

        text        { font-size:24px;text-anchor:middle;font-family:Courier;font-weight:bold; }


    </style>
</defs>


<g id="source" transform="translate(440,30)">
    <g id="0" transform="translate(0,00)">
        <rect x="0" y="0" width="80" height="40" class="c0"/>
        <rect x="-1" y="-1" width="82" height="42" style="fill:none;" class="p"/>
    </g>
    <g id="1" transform="translate(0,60)">
        <rect x="0" y="0" width="80" height="40" class="c1"/>
        <text transform="translate(40,26)" class="t c1"></text>
        <rect x="-1" y="-1" width="82" height="42" style="fill:none;" class="p"/>
    </g>
    <g id="2" transform="translate(0,120)">
        <rect x="0" y="0" width="80" height="40" class="c2"/>
        <text transform="translate(40,26)" class="t c2"></text>
        <rect x="-1" y="-1" width="82" height="42" style="fill:none;" class="p"/>
    </g>
    <g id="3" transform="translate(0,180)">
        <rect x="0" y="0" width="80" height="40" class="c3"/>
        <text transform="translate(40,26)" class="t c3"></text>
        <rect x="-1" y="-1" width="82" height="42" style="fill:none;" class="p"/>
    </g>
</g>




<g id="canvas" transform="translate(50,30)">
    <rect x="-1" y="-1" width="361" height="361" class="bg3"/>

    <g class="c" transform="translate(0,0)" id="c0"><rect x="0" y="0" width="35" height="35"/><text transform="translate(17,25)">0</text></g>
    <g class="c" transform="translate(36,0)"><rect x="0" y="0" width="35" height="35"/><text transform="translate(17,25)">1</text></g>
    <g class="c" transform="translate(72,0)"><rect x="0" y="0" width="35" height="35"/><text transform="translate(17,25)">2</text></g>
    <g class="c" transform="translate(108,0)"><rect x="0" y="0" width="35" height="35"/><text transform="translate(17,25)">3</text></g>
    <g class="c" transform="translate(144,0)"><rect x="0" y="0" width="35" height="35"/><text transform="translate(17,25)">4</text></g>
    <g class="c" transform="translate(180,0)"><rect x="0" y="0" width="35" height="35"/><text transform="translate(17,25)">5</text></g>
    <g class="c" transform="translate(216,0)"><rect x="0" y="0" width="35" height="35"/><text transform="translate(17,25)">6</text></g>
    <g class="c" transform="translate(252,0)"><rect x="0" y="0" width="35" height="35"/><text transform="translate(17,25)">7</text></g>
    <g class="c" transform="translate(288,0)"><rect x="0" y="0" width="35" height="35"/><text transform="translate(17,25)">8</text></g>
    <g class="c" transform="translate(324,0)"><rect x="0" y="0" width="35" height="35"/><text transform="translate(17,25)">9</text></g>
    
    <g class="c" transform="translate(0,36)"><rect x="0" y="0" width="35" height="35"/><text transform="translate(17,25)">10</text></g>
    <g class="c" transform="translate(36,36)"><rect x="0" y="0" width="35" height="35"/><text transform="translate(17,25)">11</text></g>
    <g class="c" transform="translate(72,36)"><rect x="0" y="0" width="35" height="35"/><text transform="translate(17,25)">12</text></g>
    <g class="c" transform="translate(108,36)"><rect x="0" y="0" width="35" height="35"/><text transform="translate(17,25)">13</text></g>
    <g class="c" transform="translate(144,36)"><rect x="0" y="0" width="35" height="35"/><text transform="translate(17,25)">14</text></g>
    <g class="c" transform="translate(180,36)"><rect x="0" y="0" width="35" height="35"/><text transform="translate(17,25)">15</text></g>
    <g class="c" transform="translate(216,36)"><rect x="0" y="0" width="35" height="35"/><text transform="translate(17,25)">16</text></g>
    <g class="c" transform="translate(252,36)"><rect x="0" y="0" width="35" height="35"/><text transform="translate(17,25)">17</text></g>
    <g class="c" transform="translate(288,36)"><rect x="0" y="0" width="35" height="35"/><text transform="translate(17,25)">18</text></g>
    <g class="c" transform="translate(324,36)"><rect x="0" y="0" width="35" height="35"/><text transform="translate(17,25)">19</text></g>
    
    <g class="c" transform="translate(0,72)"><rect x="0" y="0" width="35" height="35"/><text transform="translate(17,25)">20</text></g>
    <g class="c" transform="translate(36,72)"><rect x="0" y="0" width="35" height="35"/><text transform="translate(17,25)">21</text></g>
    <g class="c" transform="translate(72,72)"><rect x="0" y="0" width="35" height="35"/><text transform="translate(17,25)">22</text></g>
    <g class="c" transform="translate(108,72)"><rect x="0" y="0" width="35" height="35"/><text transform="translate(17,25)">23</text></g>
    <g class="c" transform="translate(144,72)"><rect x="0" y="0" width="35" height="35"/><text transform="translate(17,25)">24</text></g>
    <g class="c" transform="translate(180,72)"><rect x="0" y="0" width="35" height="35"/><text transform="translate(17,25)">25</text></g>
    <g class="c" transform="translate(216,72)"><rect x="0" y="0" width="35" height="35"/><text transform="translate(17,25)">26</text></g>
    <g class="c" transform="translate(252,72)"><rect x="0" y="0" width="35" height="35"/><text transform="translate(17,25)">27</text></g>
    <g class="c" transform="translate(288,72)"><rect x="0" y="0" width="35" height="35"/><text transform="translate(17,25)">28</text></g>
    <g class="c" transform="translate(324,72)"><rect x="0" y="0" width="35" height="35"/><text transform="translate(17,25)">29</text></g>
    
    <g class="c" transform="translate(0,108)"><rect x="0" y="0" width="35" height="35"/><text transform="translate(17,25)">30</text></g>
    <g class="c" transform="translate(36,108)"><rect x="0" y="0" width="35" height="35"/><text transform="translate(17,25)">31</text></g>
    <g class="c" transform="translate(72,108)"><rect x="0" y="0" width="35" height="35"/><text transform="translate(17,25)">32</text></g>
    <g class="c" transform="translate(108,108)"><rect x="0" y="0" width="35" height="35"/><text transform="translate(17,25)">33</text></g>
    <g class="c" transform="translate(144,108)"><rect x="0" y="0" width="35" height="35"/><text transform="translate(17,25)">34</text></g>
    <g class="c" transform="translate(180,108)"><rect x="0" y="0" width="35" height="35"/><text transform="translate(17,25)">35</text></g>
    <g class="c" transform="translate(216,108)"><rect x="0" y="0" width="35" height="35"/><text transform="translate(17,25)">36</text></g>
    <g class="c" transform="translate(252,108)"><rect x="0" y="0" width="35" height="35"/><text transform="translate(17,25)">37</text></g>
    <g class="c" transform="translate(288,108)"><rect x="0" y="0" width="35" height="35"/><text transform="translate(17,25)">38</text></g>
    <g class="c" transform="translate(324,108)"><rect x="0" y="0" width="35" height="35"/><text transform="translate(17,25)">39</text></g>
    
    <g class="c" transform="translate(0,144)"><rect x="0" y="0" width="35" height="35"/><text transform="translate(17,25)">40</text></g>
    <g class="c" transform="translate(36,144)"><rect x="0" y="0" width="35" height="35"/><text transform="translate(17,25)">41</text></g>
    <g class="c" transform="translate(72,144)"><rect x="0" y="0" width="35" height="35"/><text transform="translate(17,25)">42</text></g>
    <g class="c" transform="translate(108,144)"><rect x="0" y="0" width="35" height="35"/><text transform="translate(17,25)">43</text></g>
    <g class="c" transform="translate(144,144)"><rect x="0" y="0" width="35" height="35"/><text transform="translate(17,25)">44</text></g>
    <g class="c" transform="translate(180,144)"><rect x="0" y="0" width="35" height="35"/><text transform="translate(17,25)">45</text></g>
    <g class="c" transform="translate(216,144)"><rect x="0" y="0" width="35" height="35"/><text transform="translate(17,25)">46</text></g>
    <g class="c" transform="translate(252,144)"><rect x="0" y="0" width="35" height="35"/><text transform="translate(17,25)">47</text></g>
    <g class="c" transform="translate(288,144)"><rect x="0" y="0" width="35" height="35"/><text transform="translate(17,25)">48</text></g>
    <g class="c" transform="translate(324,144)"><rect x="0" y="0" width="35" height="35"/><text transform="translate(17,25)">49</text></g>
    
    <g class="c" transform="translate(0,180)"><rect x="0" y="0" width="35" height="35"/><text transform="translate(17,25)">50</text></g>
    <g class="c" transform="translate(36,180)"><rect x="0" y="0" width="35" height="35"/><text transform="translate(17,25)">51</text></g>
    <g class="c" transform="translate(72,180)"><rect x="0" y="0" width="35" height="35"/><text transform="translate(17,25)">52</text></g>
    <g class="c" transform="translate(108,180)"><rect x="0" y="0" width="35" height="35"/><text transform="translate(17,25)">53</text></g>
    <g class="c" transform="translate(144,180)"><rect x="0" y="0" width="35" height="35"/><text transform="translate(17,25)">54</text></g>
    <g class="c" transform="translate(180,180)"><rect x="0" y="0" width="35" height="35"/><text transform="translate(17,25)">55</text></g>
    <g class="c" transform="translate(216,180)"><rect x="0" y="0" width="35" height="35"/><text transform="translate(17,25)">56</text></g>
    <g class="c" transform="translate(252,180)"><rect x="0" y="0" width="35" height="35"/><text transform="translate(17,25)">57</text></g>
    <g class="c" transform="translate(288,180)"><rect x="0" y="0" width="35" height="35"/><text transform="translate(17,25)">58</text></g>
    <g class="c" transform="translate(324,180)"><rect x="0" y="0" width="35" height="35"/><text transform="translate(17,25)">59</text></g>
    
    <g class="c" transform="translate(0,216)"><rect x="0" y="0" width="35" height="35"/><text transform="translate(17,25)">60</text></g>
    <g class="c" transform="translate(36,216)"><rect x="0" y="0" width="35" height="35"/><text transform="translate(17,25)">61</text></g>
    <g class="c" transform="translate(72,216)"><rect x="0" y="0" width="35" height="35"/><text transform="translate(17,25)">62</text></g>
    <g class="c" transform="translate(108,216)"><rect x="0" y="0" width="35" height="35"/><text transform="translate(17,25)">63</text></g>
    <g class="c" transform="translate(144,216)"><rect x="0" y="0" width="35" height="35"/><text transform="translate(17,25)">64</text></g>
    <g class="c" transform="translate(180,216)"><rect x="0" y="0" width="35" height="35"/><text transform="translate(17,25)">65</text></g>
    <g class="c" transform="translate(216,216)"><rect x="0" y="0" width="35" height="35"/><text transform="translate(17,25)">66</text></g>
    <g class="c" transform="translate(252,216)"><rect x="0" y="0" width="35" height="35"/><text transform="translate(17,25)">67</text></g>
    <g class="c" transform="translate(288,216)"><rect x="0" y="0" width="35" height="35"/><text transform="translate(17,25)">68</text></g>
    <g class="c" transform="translate(324,216)"><rect x="0" y="0" width="35" height="35"/><text transform="translate(17,25)">69</text></g>
    
    <g class="c" transform="translate(0,252)"><rect x="0" y="0" width="35" height="35"/><text transform="translate(17,25)">70</text></g>
    <g class="c" transform="translate(36,252)"><rect x="0" y="0" width="35" height="35"/><text transform="translate(17,25)">71</text></g>
    <g class="c" transform="translate(72,252)"><rect x="0" y="0" width="35" height="35"/><text transform="translate(17,25)">72</text></g>
    <g class="c" transform="translate(108,252)"><rect x="0" y="0" width="35" height="35"/><text transform="translate(17,25)">73</text></g>
    <g class="c" transform="translate(144,252)"><rect x="0" y="0" width="35" height="35"/><text transform="translate(17,25)">74</text></g>
    <g class="c" transform="translate(180,252)"><rect x="0" y="0" width="35" height="35"/><text transform="translate(17,25)">75</text></g>
    <g class="c" transform="translate(216,252)"><rect x="0" y="0" width="35" height="35"/><text transform="translate(17,25)">76</text></g>
    <g class="c" transform="translate(252,252)"><rect x="0" y="0" width="35" height="35"/><text transform="translate(17,25)">77</text></g>
    <g class="c" transform="translate(288,252)"><rect x="0" y="0" width="35" height="35"/><text transform="translate(17,25)">78</text></g>
    <g class="c" transform="translate(324,252)"><rect x="0" y="0" width="35" height="35"/><text transform="translate(17,25)">79</text></g>
    
    <g class="c" transform="translate(0,288)"><rect x="0" y="0" width="35" height="35"/><text transform="translate(17,25)">80</text></g>
    <g class="c" transform="translate(36,288)"><rect x="0" y="0" width="35" height="35"/><text transform="translate(17,25)">81</text></g>
    <g class="c" transform="translate(72,288)"><rect x="0" y="0" width="35" height="35"/><text transform="translate(17,25)">82</text></g>
    <g class="c" transform="translate(108,288)"><rect x="0" y="0" width="35" height="35"/><text transform="translate(17,25)">83</text></g>
    <g class="c" transform="translate(144,288)"><rect x="0" y="0" width="35" height="35"/><text transform="translate(17,25)">84</text></g>
    <g class="c" transform="translate(180,288)"><rect x="0" y="0" width="35" height="35"/><text transform="translate(17,25)">85</text></g>
    <g class="c" transform="translate(216,288)"><rect x="0" y="0" width="35" height="35"/><text transform="translate(17,25)">86</text></g>
    <g class="c" transform="translate(252,288)"><rect x="0" y="0" width="35" height="35"/><text transform="translate(17,25)">87</text></g>
    <g class="c" transform="translate(288,288)"><rect x="0" y="0" width="35" height="35"/><text transform="translate(17,25)">88</text></g>
    <g class="c" transform="translate(324,288)"><rect x="0" y="0" width="35" height="35"/><text transform="translate(17,25)">89</text></g>
    
    <g class="c" transform="translate(0,324)"><rect x="0" y="0" width="35" height="35"/><text transform="translate(17,25)">90</text></g>
    <g class="c" transform="translate(36,324)"><rect x="0" y="0" width="35" height="35"/><text transform="translate(17,25)">91</text></g>
    <g class="c" transform="translate(72,324)"><rect x="0" y="0" width="35" height="35"/><text transform="translate(17,25)">92</text></g>
    <g class="c" transform="translate(108,324)"><rect x="0" y="0" width="35" height="35"/><text transform="translate(17,25)">93</text></g>
    <g class="c" transform="translate(144,324)"><rect x="0" y="0" width="35" height="35"/><text transform="translate(17,25)">94</text></g>
    <g class="c" transform="translate(180,324)"><rect x="0" y="0" width="35" height="35"/><text transform="translate(17,25)">95</text></g>
    <g class="c" transform="translate(216,324)"><rect x="0" y="0" width="35" height="35"/><text transform="translate(17,25)">96</text></g>
    <g class="c" transform="translate(252,324)"><rect x="0" y="0" width="35" height="35"/><text transform="translate(17,25)">97</text></g>
    <g class="c" transform="translate(288,324)"><rect x="0" y="0" width="35" height="35"/><text transform="translate(17,25)">98</text></g>
    <g class="c" transform="translate(324,324)"><rect x="0" y="0" width="35" height="35"/><text transform="translate(17,25)">99</text></g>


</g>


</svg> 
