<?xml version="1.0" encoding="UTF-8" standalone="no"?>
<svg xmlns:svg="http://www.w3.org/2000/svg" xmlns="http://www.w3.org/2000/svg" xmlns:xlink="http://www.w3.org/1999/xlink" version="1.0" width="100%" height="100%" viewBox="0 0 640 480" id="picross">
<defs id="defs2385">
    <style type="text/css">
        svg#picross .c0         { fill:black !important; }
        svg#picross .c1         { fill:#dddddd !important; }
        svg#picross .p          { cursor:pointer; stroke:#FFFFFF; stroke-width:10px;}
        svg#picross .s .p       { stroke:#FF5555; }

        svg#picross .c          { fill:white; }
        svg#picross .border     { fill:none; stroke:white;stroke-width:20px; }
        svg#picross .bg1        { fill:#5599BB; }
        svg#picross .bg2        { fill:#2277BB; }
        svg#picross .bg3        { fill:#77CCFF; }
        svg#picross .bg4        { fill:#AAEEFF; }
        svg#picross .bg5        { stroke:#5599BB; stroke-width:2px; }
        
        svg#picross .f          { display:none; }
        svg#picross .f0         { fill:#5599BB; }

        svg#picross text        { font-size:35px;text-anchor:middle;fill:white;font-weight:bold; }
        
        svg#picross #result         { display:none; }
        .good svg#picross #result   { display:inline; }
        svg#picross #result text    { text-anchor:start; }

    </style>
</defs>

<g style="display:none">
    <g id="v1">
        <rect x="0" y="0" width="34" height="34" style="fill:#5599BB;"/>
        <rect x="0" y="35" width="34" height="34" style="fill:#5599BB;"/>
        <rect x="0" y="70" width="34" height="34" style="fill:#5599BB;"/>
        <rect x="0" y="105" width="34" height="34" style="fill:#5599BB;"/>
    </g>
    <g id="v2">
        <rect x="0" y="0" width="34" height="34" style="fill:#2277BB;"/>
        <rect x="0" y="35" width="34" height="34" style="fill:#2277BB;"/>
        <rect x="0" y="70" width="34" height="34" style="fill:#2277BB;"/>
        <rect x="0" y="105" width="34" height="34" style="fill:#2277BB;"/>
    </g>
    <g id="h1">
        <rect y="0" x="0" width="34" height="34" style="fill:#5599BB;"/>
        <rect y="0" x="35" width="34" height="34" style="fill:#5599BB;"/>
        <rect y="0" x="70" width="34" height="34" style="fill:#5599BB;"/>
        <rect y="0" x="105" width="34" height="34" style="fill:#5599BB;"/>
    </g>
    <g id="h2">
        <rect y="0" x="0" width="34" height="34" style="fill:#2277BB;"/>
        <rect y="0" x="35" width="34" height="34" style="fill:#2277BB;"/>
        <rect y="0" x="70" width="34" height="34" style="fill:#2277BB;"/>
        <rect y="0" x="105" width="34" height="34" style="fill:#2277BB;"/>
    </g>
</g>


<g id="source">
    <g id="0" transform="translate(20,50)">
        <rect x="0" y="0" width="96" height="96" class="c0"/>
        <rect x="-5" y="-5" width="106" height="106" style="fill:none;" class="p"/>
    </g>
    <g id="1" transform="translate(20,200)">
        <rect x="0" y="0" width="96" height="96" class="c1"/>
        <path d="M 0,0 L 10,0 L 96,86 L 96,96 L 86,96 L 0,10 L 0,0 Z" style="fill:#dd9999;"/>
        <path d="M 96,0 L 86,0 L 0,86 L 0,96 L 10,96 L 96,10 L 96,0 Z" style="fill:#dd9999;"/>
        <rect x="-5" y="-5" width="106" height="106" style="fill:none;" class="p"/>
    </g>
</g>


<g id="canvas" transform="translate(160,20)">
    <rect x="-1" y="-1" width="421" height="421" class="border"/>
    <rect x="-1" y="-1" width="421" height="421" class="bg3"/>
    <rect x="0" y="0" width="139" height="139" class="bg4"/>
    
    <g transform="translate(1,1)">
        <rect x="0" y="0" width="17.1" height="17.1" class="f" id="p0"/>
        <rect x="17" y="0" width="17.1" height="17.1" class="f" id="p1"/>
        <rect x="34" y="0" width="17.1" height="17.1" class="f" id="p2"/>
        <rect x="51" y="0" width="17.1" height="17.1" class="f" id="p3"/>
        <rect x="68" y="0" width="17.1" height="17.1" class="f" id="p4"/>
        <rect x="85" y="0" width="17.1" height="17.1" class="f" id="p5"/>
        <rect x="102" y="0" width="17.1" height="17.1" class="f" id="p6"/>
        <rect x="119" y="0" width="17.1" height="17.1" class="f" id="p7"/>
    </g>
    <g transform="translate(1,18)">
        <rect x="0" y="0" width="17.1" height="17.1" class="f" id="p8"/>
        <rect x="17" y="0" width="17.1" height="17.1" class="f" id="p9"/>
        <rect x="34" y="0" width="17.1" height="17.1" class="f" id="p10"/>
        <rect x="51" y="0" width="17.1" height="17.1" class="f" id="p11"/>
        <rect x="68" y="0" width="17.1" height="17.1" class="f" id="p12"/>
        <rect x="85" y="0" width="17.1" height="17.1" class="f" id="p13"/>
        <rect x="102" y="0" width="17.1" height="17.1" class="f" id="p14"/>
        <rect x="119" y="0" width="17.1" height="17.1" class="f" id="p15"/>
    </g>
    <g transform="translate(1,35)">
        <rect x="0" y="0" width="17.1" height="17.1" class="f" id="p16"/>
        <rect x="17" y="0" width="17.1" height="17.1" class="f" id="p17"/>
        <rect x="34" y="0" width="17.1" height="17.1" class="f" id="p18"/>
        <rect x="51" y="0" width="17.1" height="17.1" class="f" id="p19"/>
        <rect x="68" y="0" width="17.1" height="17.1" class="f" id="p20"/>
        <rect x="85" y="0" width="17.1" height="17.1" class="f" id="p21"/>
        <rect x="102" y="0" width="17.1" height="17.1" class="f" id="p22"/>
        <rect x="119" y="0" width="17.1" height="17.1" class="f" id="p23"/>
    </g>
    <g transform="translate(1,52)">
        <rect x="0" y="0" width="17.1" height="17.1" class="f" id="p24"/>
        <rect x="17" y="0" width="17.1" height="17.1" class="f" id="p25"/>
        <rect x="34" y="0" width="17.1" height="17.1" class="f" id="p26"/>
        <rect x="51" y="0" width="17.1" height="17.1" class="f" id="p27"/>
        <rect x="68" y="0" width="17.1" height="17.1" class="f" id="p28"/>
        <rect x="85" y="0" width="17.1" height="17.1" class="f" id="p29"/>
        <rect x="102" y="0" width="17.1" height="17.1" class="f" id="p30"/>
        <rect x="119" y="0" width="17.1" height="17.1" class="f" id="p31"/>
    </g>
    <g transform="translate(1,69)">
        <rect x="0" y="0" width="17.1" height="17.1" class="f" id="p32"/>
        <rect x="17" y="0" width="17.1" height="17.1" class="f" id="p33"/>
        <rect x="34" y="0" width="17.1" height="17.1" class="f" id="p34"/>
        <rect x="51" y="0" width="17.1" height="17.1" class="f" id="p35"/>
        <rect x="68" y="0" width="17.1" height="17.1" class="f" id="p36"/>
        <rect x="85" y="0" width="17.1" height="17.1" class="f" id="p37"/>
        <rect x="102" y="0" width="17.1" height="17.1" class="f" id="p38"/>
        <rect x="119" y="0" width="17.1" height="17.1" class="f" id="p39"/>
    </g>
    <g transform="translate(1,86)">
        <rect x="0" y="0" width="17.1" height="17.1" class="f" id="p40"/>
        <rect x="17" y="0" width="17.1" height="17.1" class="f" id="p41"/>
        <rect x="34" y="0" width="17.1" height="17.1" class="f" id="p42"/>
        <rect x="51" y="0" width="17.1" height="17.1" class="f" id="p43"/>
        <rect x="68" y="0" width="17.1" height="17.1" class="f" id="p44"/>
        <rect x="85" y="0" width="17.1" height="17.1" class="f" id="p45"/>
        <rect x="102" y="0" width="17.1" height="17.1" class="f" id="p46"/>
        <rect x="119" y="0" width="17.1" height="17.1" class="f" id="p47"/>
    </g>
    <g transform="translate(1,103)">
        <rect x="0" y="0" width="17.1" height="17.1" class="f" id="p48"/>
        <rect x="17" y="0" width="17.1" height="17.1" class="f" id="p49"/>
        <rect x="34" y="0" width="17.1" height="17.1" class="f" id="p50"/>
        <rect x="51" y="0" width="17.1" height="17.1" class="f" id="p51"/>
        <rect x="68" y="0" width="17.1" height="17.1" class="f" id="p52"/>
        <rect x="85" y="0" width="17.1" height="17.1" class="f" id="p53"/>
        <rect x="102" y="0" width="17.1" height="17.1" class="f" id="p54"/>
        <rect x="119" y="0" width="17.1" height="17.1" class="f" id="p55"/>
    </g>
    <g transform="translate(1,120)">
        <rect x="0" y="0" width="17.1" height="17.1" class="f" id="p56"/>
        <rect x="17" y="0" width="17.1" height="17.1" class="f" id="p57"/>
        <rect x="34" y="0" width="17.1" height="17.1" class="f" id="p58"/>
        <rect x="51" y="0" width="17.1" height="17.1" class="f" id="p59"/>
        <rect x="68" y="0" width="17.1" height="17.1" class="f" id="p60"/>
        <rect x="85" y="0" width="17.1" height="17.1" class="f" id="p61"/>
        <rect x="102" y="0" width="17.1" height="17.1" class="f" id="p62"/>
        <rect x="119" y="0" width="17.1" height="17.1" class="f" id="p63"/>
    </g>
    
    
    <g>
        <use transform="translate(140,0)" xlink:href="#v1"/>
        <use transform="translate(175,0)" xlink:href="#v2"/>
        <use transform="translate(210,0)" xlink:href="#v1"/>
        <use transform="translate(245,0)" xlink:href="#v2"/>
        <use transform="translate(280,0)" xlink:href="#v1"/>
        <use transform="translate(315,0)" xlink:href="#v2"/>
        <use transform="translate(350,0)" xlink:href="#v1"/>
        <use transform="translate(385,0)" xlink:href="#v2"/>


        <use transform="translate(0,140)" xlink:href="#h1"/>
        <use transform="translate(0,175)" xlink:href="#h2"/>
        <use transform="translate(0,210)" xlink:href="#h1"/>
        <use transform="translate(0,245)" xlink:href="#h2"/>
        <use transform="translate(0,280)" xlink:href="#h1"/>
        <use transform="translate(0,315)" xlink:href="#h2"/>
        <use transform="translate(0,350)" xlink:href="#h1"/>
        <use transform="translate(0,385)" xlink:href="#h2"/>
    </g>

    <g transform="translate(0,0)">
        <text y="30" transform="translate(158,0)" class="t"></text>
        <text y="30" transform="translate(158,35)" class="t"></text>
        <text y="30" transform="translate(158,70)" class="t"></text>
        <text y="30" transform="translate(158,105)" class="t"></text>
    </g>

    <g transform="translate(35,0)">
        <text y="30" transform="translate(158,0)" class="t"></text>
        <text y="30" transform="translate(158,35)" class="t"></text>
        <text y="30" transform="translate(158,70)" class="t"></text>
        <text y="30" transform="translate(158,105)" class="t"></text>
    </g>

    <g transform="translate(70,0)">
        <text y="30" transform="translate(158,0)" class="t"></text>
        <text y="30" transform="translate(158,35)" class="t"></text>
        <text y="30" transform="translate(158,70)" class="t"></text>
        <text y="30" transform="translate(158,105)" class="t"></text>
    </g>

    <g transform="translate(105,0)">
        <text y="30" transform="translate(158,0)" class="t"></text>
        <text y="30" transform="translate(158,35)" class="t"></text>
        <text y="30" transform="translate(158,70)" class="t"></text>
        <text y="30" transform="translate(158,105)" class="t"></text>
    </g>

    <g transform="translate(140,0)">
        <text y="30" transform="translate(158,0)" class="t"></text>
        <text y="30" transform="translate(158,35)" class="t"></text>
        <text y="30" transform="translate(158,70)" class="t"></text>
        <text y="30" transform="translate(158,105)" class="t"></text>
    </g>

    <g transform="translate(175,0)">
        <text y="30" transform="translate(158,0)" class="t"></text>
        <text y="30" transform="translate(158,35)" class="t"></text>
        <text y="30" transform="translate(158,70)" class="t"></text>
        <text y="30" transform="translate(158,105)" class="t"></text>
    </g>

    <g transform="translate(210,0)">
        <text y="30" transform="translate(158,0)" class="t"></text>
        <text y="30" transform="translate(158,35)" class="t"></text>
        <text y="30" transform="translate(158,70)" class="t"></text>
        <text y="30" transform="translate(158,105)" class="t"></text>
    </g>

    <g transform="translate(245,0)">
        <text y="30" transform="translate(158,0)" class="t"></text>
        <text y="30" transform="translate(158,35)" class="t"></text>
        <text y="30" transform="translate(158,70)" class="t"></text>
        <text y="30" transform="translate(158,105)" class="t"></text>
    </g>
    
    <g transform="translate(0,0)">
        <text y="30" transform="translate(18,140)" class="t"></text>
        <text y="30" transform="translate(53,140)" class="t"></text>
        <text y="30" transform="translate(88,140)" class="t"></text>
        <text y="30" transform="translate(123,140)" class="t"></text>
    </g>
    
    <g transform="translate(0,35)">
        <text y="30" transform="translate(18,140)" class="t"></text>
        <text y="30" transform="translate(53,140)" class="t"></text>
        <text y="30" transform="translate(88,140)" class="t"></text>
        <text y="30" transform="translate(123,140)" class="t"></text>
    </g>
    
    <g transform="translate(0,70)">
        <text y="30" transform="translate(18,140)" class="t"></text>
        <text y="30" transform="translate(53,140)" class="t"></text>
        <text y="30" transform="translate(88,140)" class="t"></text>
        <text y="30" transform="translate(123,140)" class="t"></text>
    </g>
    
    <g transform="translate(0,105)">
        <text y="30" transform="translate(18,140)" class="t"></text>
        <text y="30" transform="translate(53,140)" class="t"></text>
        <text y="30" transform="translate(88,140)" class="t"></text>
        <text y="30" transform="translate(123,140)" class="t"></text>
    </g>
    
    <g transform="translate(0,140)">
        <text y="30" transform="translate(18,140)" class="t"></text>
        <text y="30" transform="translate(53,140)" class="t"></text>
        <text y="30" transform="translate(88,140)" class="t"></text>
        <text y="30" transform="translate(123,140)" class="t"></text>
    </g>
    
    <g transform="translate(0,175)">
        <text y="30" transform="translate(18,140)" class="t"></text>
        <text y="30" transform="translate(53,140)" class="t"></text>
        <text y="30" transform="translate(88,140)" class="t"></text>
        <text y="30" transform="translate(123,140)" class="t"></text>
    </g>
    
    <g transform="translate(0,210)">
        <text y="30" transform="translate(18,140)" class="t"></text>
        <text y="30" transform="translate(53,140)" class="t"></text>
        <text y="30" transform="translate(88,140)" class="t"></text>
        <text y="30" transform="translate(123,140)" class="t"></text>
    </g>
    
    <g transform="translate(0,245)">
        <text y="30" transform="translate(18,140)" class="t"></text>
        <text y="30" transform="translate(53,140)" class="t"></text>
        <text y="30" transform="translate(88,140)" class="t"></text>
        <text y="30" transform="translate(123,140)" class="t"></text>
    </g>

    
    <rect x="140" y="140" width="34" height="34" class="c"/>
    <rect x="175" y="140" width="34" height="34" class="c"/>
    <rect x="210" y="140" width="34" height="34" class="c"/>
    <rect x="245" y="140" width="34" height="34" class="c"/>
    <rect x="280" y="140" width="34" height="34" class="c"/>
    <rect x="315" y="140" width="34" height="34" class="c"/>
    <rect x="350" y="140" width="34" height="34" class="c"/>
    <rect x="385" y="140" width="34" height="34" class="c"/>
    
    <rect x="140" y="175" width="34" height="34" class="c"/>
    <rect x="175" y="175" width="34" height="34" class="c"/>
    <rect x="210" y="175" width="34" height="34" class="c"/>
    <rect x="245" y="175" width="34" height="34" class="c"/>
    <rect x="280" y="175" width="34" height="34" class="c"/>
    <rect x="315" y="175" width="34" height="34" class="c"/>
    <rect x="350" y="175" width="34" height="34" class="c"/>
    <rect x="385" y="175" width="34" height="34" class="c"/>
    
    <rect x="140" y="210" width="34" height="34" class="c"/>
    <rect x="175" y="210" width="34" height="34" class="c"/>
    <rect x="210" y="210" width="34" height="34" class="c"/>
    <rect x="245" y="210" width="34" height="34" class="c"/>
    <rect x="280" y="210" width="34" height="34" class="c"/>
    <rect x="315" y="210" width="34" height="34" class="c"/>
    <rect x="350" y="210" width="34" height="34" class="c"/>
    <rect x="385" y="210" width="34" height="34" class="c"/>
    
    <rect x="140" y="245" width="34" height="34" class="c"/>
    <rect x="175" y="245" width="34" height="34" class="c"/>
    <rect x="210" y="245" width="34" height="34" class="c"/>
    <rect x="245" y="245" width="34" height="34" class="c"/>
    <rect x="280" y="245" width="34" height="34" class="c"/>
    <rect x="315" y="245" width="34" height="34" class="c"/>
    <rect x="350" y="245" width="34" height="34" class="c"/>
    <rect x="385" y="245" width="34" height="34" class="c"/>
    
    <rect x="140" y="280" width="34" height="34" class="c"/>
    <rect x="175" y="280" width="34" height="34" class="c"/>
    <rect x="210" y="280" width="34" height="34" class="c"/>
    <rect x="245" y="280" width="34" height="34" class="c"/>
    <rect x="280" y="280" width="34" height="34" class="c"/>
    <rect x="315" y="280" width="34" height="34" class="c"/>
    <rect x="350" y="280" width="34" height="34" class="c"/>
    <rect x="385" y="280" width="34" height="34" class="c"/>
    
    <rect x="140" y="315" width="34" height="34" class="c"/>
    <rect x="175" y="315" width="34" height="34" class="c"/>
    <rect x="210" y="315" width="34" height="34" class="c"/>
    <rect x="245" y="315" width="34" height="34" class="c"/>
    <rect x="280" y="315" width="34" height="34" class="c"/>
    <rect x="315" y="315" width="34" height="34" class="c"/>
    <rect x="350" y="315" width="34" height="34" class="c"/>
    <rect x="385" y="315" width="34" height="34" class="c"/>
    
    <rect x="140" y="350" width="34" height="34" class="c"/>
    <rect x="175" y="350" width="34" height="34" class="c"/>
    <rect x="210" y="350" width="34" height="34" class="c"/>
    <rect x="245" y="350" width="34" height="34" class="c"/>
    <rect x="280" y="350" width="34" height="34" class="c"/>
    <rect x="315" y="350" width="34" height="34" class="c"/>
    <rect x="350" y="350" width="34" height="34" class="c"/>
    <rect x="385" y="350" width="34" height="34" class="c"/>
    
    <rect x="140" y="385" width="34" height="34" class="c"/>
    <rect x="175" y="385" width="34" height="34" class="c"/>
    <rect x="210" y="385" width="34" height="34" class="c"/>
    <rect x="245" y="385" width="34" height="34" class="c"/>
    <rect x="280" y="385" width="34" height="34" class="c"/>
    <rect x="315" y="385" width="34" height="34" class="c"/>
    <rect x="350" y="385" width="34" height="34" class="c"/>
    <rect x="385" y="385" width="34" height="34" class="c"/>
</g>

<g id="result">
    <rect x="200" y="350" width="500" ry="20" height="50" style="stroke:white;stroke-width:5;fill:#5599BB;fill-opacity:0.8"/>
    <text transform="translate(220,392)" id="tfinal"></text>
</g>

</svg> 
