<?xml version="1.0" encoding="UTF-8" standalone="no"?>
<svg xmlns:svg="http://www.w3.org/2000/svg" xmlns="http://www.w3.org/2000/svg" xmlns:xlink="http://www.w3.org/1999/xlink" version="1.0" width="100%" height="100%" viewBox="0 0 640 480" id="picross">
<defs id="defs2385">
    <style type="text/css">
        svg#picross .c0         { fill:black !important; }
        svg#picross .c1         { fill:#dddddd !important; }
        svg#picross .p          { cursor:pointer; stroke:#FFFFFF; stroke-width:10px;}
        svg#picross .s .p       { stroke:#FF5555; }

        svg#picross .c          { fill:white; }
        svg#picross .border     { fill:none; stroke:white;stroke-width:20px; }
        svg#picross .bg1        { fill:#5599BB; }
        svg#picross .bg2        { fill:#2277BB; }
        svg#picross .bg3        { fill:#77CCFF; }
        svg#picross .bg4        { fill:#AAEEFF; }
        svg#picross .bg5        { stroke:#5599BB; stroke-width:2px; }
        
        svg#picross .f          { display:none; }
        svg#picross .f0         { fill:#5599BB; }

        svg#picross text    { font-size:30px;text-anchor:middle;fill:white;font-weight:bold; }
        
        svg#picross #result         { display:none; }
        .good svg#picross #result   { display:inline; }
        svg#picross #result text    { text-anchor:start; }

    </style>
</defs>

<g style="display:none">
    <g id="v1">
        <rect x="0" y="0" width="29" height="29" style="fill:#5599BB;"/>
        <rect x="0" y="30" width="29" height="29" style="fill:#5599BB;"/>
        <rect x="0" y="60" width="29" height="29" style="fill:#5599BB;"/>
        <rect x="0" y="90" width="29" height="29" style="fill:#5599BB;"/>
        <rect x="0" y="120" width="29" height="29" style="fill:#5599BB;"/>
    </g>
    <g id="v2">
        <rect x="0" y="0" width="29" height="29" style="fill:#2277BB;"/>
        <rect x="0" y="30" width="29" height="29" style="fill:#2277BB;"/>
        <rect x="0" y="60" width="29" height="29" style="fill:#2277BB;"/>
        <rect x="0" y="90" width="29" height="29" style="fill:#2277BB;"/>
        <rect x="0" y="120" width="29" height="29" style="fill:#2277BB;"/>
    </g>
    <g id="h1">
        <rect y="0" x="0" width="29" height="29" style="fill:#5599BB;"/>
        <rect y="0" x="30" width="29" height="29" style="fill:#5599BB;"/>
        <rect y="0" x="60" width="29" height="29" style="fill:#5599BB;"/>
        <rect y="0" x="90" width="29" height="29" style="fill:#5599BB;"/>
        <rect y="0" x="120" width="29" height="29" style="fill:#5599BB;"/>
    </g>
    <g id="h2">
        <rect y="0" x="0" width="29" height="29" style="fill:#2277BB;"/>
        <rect y="0" x="30" width="29" height="29" style="fill:#2277BB;"/>
        <rect y="0" x="60" width="29" height="29" style="fill:#2277BB;"/>
        <rect y="0" x="90" width="29" height="29" style="fill:#2277BB;"/>
        <rect y="0" x="120" width="29" height="29" style="fill:#2277BB;"/>
    </g>
</g>


<g id="source">
    <g id="0" transform="translate(20,50)">
        <rect x="0" y="0" width="96" height="96" class="c0"/>
        <rect x="-5" y="-5" width="106" height="106" style="fill:none;" class="p"/>
    </g>
    <g id="1" transform="translate(20,200)">
        <rect x="0" y="0" width="96" height="96" class="c1"/>
        <path d="M 0,0 L 10,0 L 96,86 L 96,96 L 86,96 L 0,10 L 0,0 Z" style="fill:#dd9999;"/>
        <path d="M 96,0 L 86,0 L 0,86 L 0,96 L 10,96 L 96,10 L 96,0 Z" style="fill:#dd9999;"/>
        <rect x="-5" y="-5" width="106" height="106" style="fill:none;" class="p"/>
    </g>
</g>


<g id="canvas" transform="translate(160,15)">
    <rect x="-1" y="-1" width="450" height="450" class="border"/>
    <rect x="-1" y="-1" width="450" height="450" class="bg3"/>
    <rect x="0" y="0" width="149" height="149" class="bg4"/>
    
    <g transform="translate(4,4)">
        <rect x="0" y="0" width="14.1" height="14.1" class="f" id="p0"/>
        <rect x="14" y="0" width="14.1" height="14.1" class="f" id="p1"/>
        <rect x="28" y="0" width="14.1" height="14.1" class="f" id="p2"/>
        <rect x="42" y="0" width="14.1" height="14.1" class="f" id="p3"/>
        <rect x="56" y="0" width="14.1" height="14.1" class="f" id="p4"/>
        <rect x="70" y="0" width="14.1" height="14.1" class="f" id="p5"/>
        <rect x="84" y="0" width="14.1" height="14.1" class="f" id="p6"/>
        <rect x="98" y="0" width="14.1" height="14.1" class="f" id="p7"/>
        <rect x="112" y="0" width="14.1" height="14.1" class="f" id="p8"/>
        <rect x="126" y="0" width="14.1" height="14.1" class="f" id="p9"/>
    </g>
    <g transform="translate(4,18)">
        <rect x="0" y="0" width="14.1" height="14.1" class="f" id="p10"/>
        <rect x="14" y="0" width="14.1" height="14.1" class="f" id="p11"/>
        <rect x="28" y="0" width="14.1" height="14.1" class="f" id="p12"/>
        <rect x="42" y="0" width="14.1" height="14.1" class="f" id="p13"/>
        <rect x="56" y="0" width="14.1" height="14.1" class="f" id="p14"/>
        <rect x="70" y="0" width="14.1" height="14.1" class="f" id="p15"/>
        <rect x="84" y="0" width="14.1" height="14.1" class="f" id="p16"/>
        <rect x="98" y="0" width="14.1" height="14.1" class="f" id="p17"/>
        <rect x="112" y="0" width="14.1" height="14.1" class="f" id="p18"/>
        <rect x="126" y="0" width="14.1" height="14.1" class="f" id="p19"/>
    </g>
    <g transform="translate(4,32)">
        <rect x="0" y="0" width="14.1" height="14.1" class="f" id="p20"/>
        <rect x="14" y="0" width="14.1" height="14.1" class="f" id="p21"/>
        <rect x="28" y="0" width="14.1" height="14.1" class="f" id="p22"/>
        <rect x="42" y="0" width="14.1" height="14.1" class="f" id="p23"/>
        <rect x="56" y="0" width="14.1" height="14.1" class="f" id="p24"/>
        <rect x="70" y="0" width="14.1" height="14.1" class="f" id="p25"/>
        <rect x="84" y="0" width="14.1" height="14.1" class="f" id="p26"/>
        <rect x="98" y="0" width="14.1" height="14.1" class="f" id="p27"/>
        <rect x="112" y="0" width="14.1" height="14.1" class="f" id="p28"/>
        <rect x="126" y="0" width="14.1" height="14.1" class="f" id="p29"/>
    </g>
    <g transform="translate(4,46)">
        <rect x="0" y="0" width="14.1" height="14.1" class="f" id="p30"/>
        <rect x="14" y="0" width="14.1" height="14.1" class="f" id="p31"/>
        <rect x="28" y="0" width="14.1" height="14.1" class="f" id="p32"/>
        <rect x="42" y="0" width="14.1" height="14.1" class="f" id="p33"/>
        <rect x="56" y="0" width="14.1" height="14.1" class="f" id="p34"/>
        <rect x="70" y="0" width="14.1" height="14.1" class="f" id="p35"/>
        <rect x="84" y="0" width="14.1" height="14.1" class="f" id="p36"/>
        <rect x="98" y="0" width="14.1" height="14.1" class="f" id="p37"/>
        <rect x="112" y="0" width="14.1" height="14.1" class="f" id="p38"/>
        <rect x="126" y="0" width="14.1" height="14.1" class="f" id="p39"/>
    </g>
    <g transform="translate(4,60)">
        <rect x="0" y="0" width="14.1" height="14.1" class="f" id="p40"/>
        <rect x="14" y="0" width="14.1" height="14.1" class="f" id="p41"/>
        <rect x="28" y="0" width="14.1" height="14.1" class="f" id="p42"/>
        <rect x="42" y="0" width="14.1" height="14.1" class="f" id="p43"/>
        <rect x="56" y="0" width="14.1" height="14.1" class="f" id="p44"/>
        <rect x="70" y="0" width="14.1" height="14.1" class="f" id="p45"/>
        <rect x="84" y="0" width="14.1" height="14.1" class="f" id="p46"/>
        <rect x="98" y="0" width="14.1" height="14.1" class="f" id="p47"/>
        <rect x="112" y="0" width="14.1" height="14.1" class="f" id="p48"/>
        <rect x="126" y="0" width="14.1" height="14.1" class="f" id="p49"/>
    </g>
    <g transform="translate(4,74)">
        <rect x="0" y="0" width="14.1" height="14.1" class="f" id="p50"/>
        <rect x="14" y="0" width="14.1" height="14.1" class="f" id="p51"/>
        <rect x="28" y="0" width="14.1" height="14.1" class="f" id="p52"/>
        <rect x="42" y="0" width="14.1" height="14.1" class="f" id="p53"/>
        <rect x="56" y="0" width="14.1" height="14.1" class="f" id="p54"/>
        <rect x="70" y="0" width="14.1" height="14.1" class="f" id="p55"/>
        <rect x="84" y="0" width="14.1" height="14.1" class="f" id="p56"/>
        <rect x="98" y="0" width="14.1" height="14.1" class="f" id="p57"/>
        <rect x="112" y="0" width="14.1" height="14.1" class="f" id="p58"/>
        <rect x="126" y="0" width="14.1" height="14.1" class="f" id="p59"/>
    </g>
    <g transform="translate(4,88)">
        <rect x="0" y="0" width="14.1" height="14.1" class="f" id="p60"/>
        <rect x="14" y="0" width="14.1" height="14.1" class="f" id="p61"/>
        <rect x="28" y="0" width="14.1" height="14.1" class="f" id="p62"/>
        <rect x="42" y="0" width="14.1" height="14.1" class="f" id="p63"/>
        <rect x="56" y="0" width="14.1" height="14.1" class="f" id="p64"/>
        <rect x="70" y="0" width="14.1" height="14.1" class="f" id="p65"/>
        <rect x="84" y="0" width="14.1" height="14.1" class="f" id="p66"/>
        <rect x="98" y="0" width="14.1" height="14.1" class="f" id="p67"/>
        <rect x="112" y="0" width="14.1" height="14.1" class="f" id="p68"/>
        <rect x="126" y="0" width="14.1" height="14.1" class="f" id="p69"/>
    </g>
    <g transform="translate(4,102)">
        <rect x="0" y="0" width="14.1" height="14.1" class="f" id="p70"/>
        <rect x="14" y="0" width="14.1" height="14.1" class="f" id="p71"/>
        <rect x="28" y="0" width="14.1" height="14.1" class="f" id="p72"/>
        <rect x="42" y="0" width="14.1" height="14.1" class="f" id="p73"/>
        <rect x="56" y="0" width="14.1" height="14.1" class="f" id="p74"/>
        <rect x="70" y="0" width="14.1" height="14.1" class="f" id="p75"/>
        <rect x="84" y="0" width="14.1" height="14.1" class="f" id="p76"/>
        <rect x="98" y="0" width="14.1" height="14.1" class="f" id="p77"/>
        <rect x="112" y="0" width="14.1" height="14.1" class="f" id="p78"/>
        <rect x="126" y="0" width="14.1" height="14.1" class="f" id="p79"/>
    </g>
    <g transform="translate(4,116)">
        <rect x="0" y="0" width="14.1" height="14.1" class="f" id="p80"/>
        <rect x="14" y="0" width="14.1" height="14.1" class="f" id="p81"/>
        <rect x="28" y="0" width="14.1" height="14.1" class="f" id="p82"/>
        <rect x="42" y="0" width="14.1" height="14.1" class="f" id="p83"/>
        <rect x="56" y="0" width="14.1" height="14.1" class="f" id="p84"/>
        <rect x="70" y="0" width="14.1" height="14.1" class="f" id="p85"/>
        <rect x="84" y="0" width="14.1" height="14.1" class="f" id="p86"/>
        <rect x="98" y="0" width="14.1" height="14.1" class="f" id="p87"/>
        <rect x="112" y="0" width="14.1" height="14.1" class="f" id="p88"/>
        <rect x="126" y="0" width="14.1" height="14.1" class="f" id="p89"/>
    </g>
    <g transform="translate(4,130)">
        <rect x="0" y="0" width="14.1" height="14.1" class="f" id="p90"/>
        <rect x="14" y="0" width="14.1" height="14.1" class="f" id="p91"/>
        <rect x="28" y="0" width="14.1" height="14.1" class="f" id="p92"/>
        <rect x="42" y="0" width="14.1" height="14.1" class="f" id="p93"/>
        <rect x="56" y="0" width="14.1" height="14.1" class="f" id="p94"/>
        <rect x="70" y="0" width="14.1" height="14.1" class="f" id="p95"/>
        <rect x="84" y="0" width="14.1" height="14.1" class="f" id="p96"/>
        <rect x="98" y="0" width="14.1" height="14.1" class="f" id="p97"/>
        <rect x="112" y="0" width="14.1" height="14.1" class="f" id="p98"/>
        <rect x="126" y="0" width="14.1" height="14.1" class="f" id="p99"/>
    </g>
    
    <g>
        <use transform="translate(150,0)" xlink:href="#v1"/>
        <use transform="translate(180,0)" xlink:href="#v2"/>
        <use transform="translate(210,0)" xlink:href="#v1"/>
        <use transform="translate(240,0)" xlink:href="#v2"/>
        <use transform="translate(270,0)" xlink:href="#v1"/>
        <use transform="translate(300,0)" xlink:href="#v2"/>
        <use transform="translate(330,0)" xlink:href="#v1"/>
        <use transform="translate(360,0)" xlink:href="#v2"/>
        <use transform="translate(390,0)" xlink:href="#v1"/>
        <use transform="translate(420,0)" xlink:href="#v2"/>

        <use transform="translate(0,150)" xlink:href="#h1"/>
        <use transform="translate(0,180)" xlink:href="#h2"/>
        <use transform="translate(0,210)" xlink:href="#h1"/>
        <use transform="translate(0,240)" xlink:href="#h2"/>
        <use transform="translate(0,270)" xlink:href="#h1"/>
        <use transform="translate(0,300)" xlink:href="#h2"/>
        <use transform="translate(0,330)" xlink:href="#h1"/>
        <use transform="translate(0,360)" xlink:href="#h2"/>
        <use transform="translate(0,390)" xlink:href="#h1"/>
        <use transform="translate(0,420)" xlink:href="#h2"/>
    </g>

    <g transform="translate(0,0)">
        <text y="25" transform="translate(165,0)" class="t"></text>
        <text y="25" transform="translate(165,30)" class="t"></text>
        <text y="25" transform="translate(165,60)" class="t"></text>
        <text y="25" transform="translate(165,90)" class="t"></text>
        <text y="25" transform="translate(165,120)" class="t"></text>
    </g>
    <g transform="translate(30,0)">
        <text y="25" transform="translate(165,0)" class="t"></text>
        <text y="25" transform="translate(165,30)" class="t"></text>
        <text y="25" transform="translate(165,60)" class="t"></text>
        <text y="25" transform="translate(165,90)" class="t"></text>
        <text y="25" transform="translate(165,120)" class="t"></text>
    </g>
    <g transform="translate(60,0)">
        <text y="25" transform="translate(165,0)" class="t"></text>
        <text y="25" transform="translate(165,30)" class="t"></text>
        <text y="25" transform="translate(165,60)" class="t"></text>
        <text y="25" transform="translate(165,90)" class="t"></text>
        <text y="25" transform="translate(165,120)" class="t"></text>
    </g>
    <g transform="translate(90,0)">
        <text y="25" transform="translate(165,0)" class="t"></text>
        <text y="25" transform="translate(165,30)" class="t"></text>
        <text y="25" transform="translate(165,60)" class="t"></text>
        <text y="25" transform="translate(165,90)" class="t"></text>
        <text y="25" transform="translate(165,120)" class="t"></text>
    </g>
    <g transform="translate(120,0)">
        <text y="25" transform="translate(165,0)" class="t"></text>
        <text y="25" transform="translate(165,30)" class="t"></text>
        <text y="25" transform="translate(165,60)" class="t"></text>
        <text y="25" transform="translate(165,90)" class="t"></text>
        <text y="25" transform="translate(165,120)" class="t"></text>
    </g>
    <g transform="translate(150,0)">
        <text y="25" transform="translate(165,0)" class="t"></text>
        <text y="25" transform="translate(165,30)" class="t"></text>
        <text y="25" transform="translate(165,60)" class="t"></text>
        <text y="25" transform="translate(165,90)" class="t"></text>
        <text y="25" transform="translate(165,120)" class="t"></text>
    </g>
    <g transform="translate(180,0)">
        <text y="25" transform="translate(165,0)" class="t"></text>
        <text y="25" transform="translate(165,30)" class="t"></text>
        <text y="25" transform="translate(165,60)" class="t"></text>
        <text y="25" transform="translate(165,90)" class="t"></text>
        <text y="25" transform="translate(165,120)" class="t"></text>
    </g>
    <g transform="translate(210,0)">
        <text y="25" transform="translate(165,0)" class="t"></text>
        <text y="25" transform="translate(165,30)" class="t"></text>
        <text y="25" transform="translate(165,60)" class="t"></text>
        <text y="25" transform="translate(165,90)" class="t"></text>
        <text y="25" transform="translate(165,120)" class="t"></text>
    </g>
    <g transform="translate(240,0)">
        <text y="25" transform="translate(165,0)" class="t"></text>
        <text y="25" transform="translate(165,30)" class="t"></text>
        <text y="25" transform="translate(165,60)" class="t"></text>
        <text y="25" transform="translate(165,90)" class="t"></text>
        <text y="25" transform="translate(165,120)" class="t"></text>
    </g>
    <g transform="translate(270,0)">
        <text y="25" transform="translate(165,0)" class="t"></text>
        <text y="25" transform="translate(165,30)" class="t"></text>
        <text y="25" transform="translate(165,60)" class="t"></text>
        <text y="25" transform="translate(165,90)" class="t"></text>
        <text y="25" transform="translate(165,120)" class="t"></text>
    </g>
    <g transform="translate(0,0)">
        <text y="25" transform="translate(15,150)" class="t"></text>
        <text y="25" transform="translate(45,150)" class="t"></text>
        <text y="25" transform="translate(75,150)" class="t"></text>
        <text y="25" transform="translate(105,150)" class="t"></text>
        <text y="25" transform="translate(135,150)" class="t"></text>
    </g>
    <g transform="translate(0,30)">
        <text y="25" transform="translate(15,150)" class="t"></text>
        <text y="25" transform="translate(45,150)" class="t"></text>
        <text y="25" transform="translate(75,150)" class="t"></text>
        <text y="25" transform="translate(105,150)" class="t"></text>
        <text y="25" transform="translate(135,150)" class="t"></text>
    </g>
    <g transform="translate(0,60)">
        <text y="25" transform="translate(15,150)" class="t"></text>
        <text y="25" transform="translate(45,150)" class="t"></text>
        <text y="25" transform="translate(75,150)" class="t"></text>
        <text y="25" transform="translate(105,150)" class="t"></text>
        <text y="25" transform="translate(135,150)" class="t"></text>
    </g>
    <g transform="translate(0,90)">
        <text y="25" transform="translate(15,150)" class="t"></text>
        <text y="25" transform="translate(45,150)" class="t"></text>
        <text y="25" transform="translate(75,150)" class="t"></text>
        <text y="25" transform="translate(105,150)" class="t"></text>
        <text y="25" transform="translate(135,150)" class="t"></text>
    </g>
    <g transform="translate(0,120)">
        <text y="25" transform="translate(15,150)" class="t"></text>
        <text y="25" transform="translate(45,150)" class="t"></text>
        <text y="25" transform="translate(75,150)" class="t"></text>
        <text y="25" transform="translate(105,150)" class="t"></text>
        <text y="25" transform="translate(135,150)" class="t"></text>
    </g>
    <g transform="translate(0,150)">
        <text y="25" transform="translate(15,150)" class="t"></text>
        <text y="25" transform="translate(45,150)" class="t"></text>
        <text y="25" transform="translate(75,150)" class="t"></text>
        <text y="25" transform="translate(105,150)" class="t"></text>
        <text y="25" transform="translate(135,150)" class="t"></text>
    </g>
    <g transform="translate(0,180)">
        <text y="25" transform="translate(15,150)" class="t"></text>
        <text y="25" transform="translate(45,150)" class="t"></text>
        <text y="25" transform="translate(75,150)" class="t"></text>
        <text y="25" transform="translate(105,150)" class="t"></text>
        <text y="25" transform="translate(135,150)" class="t"></text>
    </g>
    <g transform="translate(0,210)">
        <text y="25" transform="translate(15,150)" class="t"></text>
        <text y="25" transform="translate(45,150)" class="t"></text>
        <text y="25" transform="translate(75,150)" class="t"></text>
        <text y="25" transform="translate(105,150)" class="t"></text>
        <text y="25" transform="translate(135,150)" class="t"></text>
    </g>
    <g transform="translate(0,240)">
        <text y="25" transform="translate(15,150)" class="t"></text>
        <text y="25" transform="translate(45,150)" class="t"></text>
        <text y="25" transform="translate(75,150)" class="t"></text>
        <text y="25" transform="translate(105,150)" class="t"></text>
        <text y="25" transform="translate(135,150)" class="t"></text>
    </g>
    <g transform="translate(0,270)">
        <text y="25" transform="translate(15,150)" class="t"></text>
        <text y="25" transform="translate(45,150)" class="t"></text>
        <text y="25" transform="translate(75,150)" class="t"></text>
        <text y="25" transform="translate(105,150)" class="t"></text>
        <text y="25" transform="translate(135,150)" class="t"></text>
    </g>


    <rect x="150" y="150" width="29" height="29" class="c"/>
    <rect x="180" y="150" width="29" height="29" class="c"/>
    <rect x="210" y="150" width="29" height="29" class="c"/>
    <rect x="240" y="150" width="29" height="29" class="c"/>
    <rect x="270" y="150" width="29" height="29" class="c"/>
    <rect x="300" y="150" width="29" height="29" class="c"/>
    <rect x="330" y="150" width="29" height="29" class="c"/>
    <rect x="360" y="150" width="29" height="29" class="c"/>
    <rect x="390" y="150" width="29" height="29" class="c"/>
    <rect x="420" y="150" width="29" height="29" class="c"/>

    <rect x="150" y="180" width="29" height="29" class="c"/>
    <rect x="180" y="180" width="29" height="29" class="c"/>
    <rect x="210" y="180" width="29" height="29" class="c"/>
    <rect x="240" y="180" width="29" height="29" class="c"/>
    <rect x="270" y="180" width="29" height="29" class="c"/>
    <rect x="300" y="180" width="29" height="29" class="c"/>
    <rect x="330" y="180" width="29" height="29" class="c"/>
    <rect x="360" y="180" width="29" height="29" class="c"/>
    <rect x="390" y="180" width="29" height="29" class="c"/>
    <rect x="420" y="180" width="29" height="29" class="c"/>

    <rect x="150" y="210" width="29" height="29" class="c"/>
    <rect x="180" y="210" width="29" height="29" class="c"/>
    <rect x="210" y="210" width="29" height="29" class="c"/>
    <rect x="240" y="210" width="29" height="29" class="c"/>
    <rect x="270" y="210" width="29" height="29" class="c"/>
    <rect x="300" y="210" width="29" height="29" class="c"/>
    <rect x="330" y="210" width="29" height="29" class="c"/>
    <rect x="360" y="210" width="29" height="29" class="c"/>
    <rect x="390" y="210" width="29" height="29" class="c"/>
    <rect x="420" y="210" width="29" height="29" class="c"/>

    <rect x="150" y="240" width="29" height="29" class="c"/>
    <rect x="180" y="240" width="29" height="29" class="c"/>
    <rect x="210" y="240" width="29" height="29" class="c"/>
    <rect x="240" y="240" width="29" height="29" class="c"/>
    <rect x="270" y="240" width="29" height="29" class="c"/>
    <rect x="300" y="240" width="29" height="29" class="c"/>
    <rect x="330" y="240" width="29" height="29" class="c"/>
    <rect x="360" y="240" width="29" height="29" class="c"/>
    <rect x="390" y="240" width="29" height="29" class="c"/>
    <rect x="420" y="240" width="29" height="29" class="c"/>

    <rect x="150" y="270" width="29" height="29" class="c"/>
    <rect x="180" y="270" width="29" height="29" class="c"/>
    <rect x="210" y="270" width="29" height="29" class="c"/>
    <rect x="240" y="270" width="29" height="29" class="c"/>
    <rect x="270" y="270" width="29" height="29" class="c"/>
    <rect x="300" y="270" width="29" height="29" class="c"/>
    <rect x="330" y="270" width="29" height="29" class="c"/>
    <rect x="360" y="270" width="29" height="29" class="c"/>
    <rect x="390" y="270" width="29" height="29" class="c"/>
    <rect x="420" y="270" width="29" height="29" class="c"/>

    <rect x="150" y="300" width="29" height="29" class="c"/>
    <rect x="180" y="300" width="29" height="29" class="c"/>
    <rect x="210" y="300" width="29" height="29" class="c"/>
    <rect x="240" y="300" width="29" height="29" class="c"/>
    <rect x="270" y="300" width="29" height="29" class="c"/>
    <rect x="300" y="300" width="29" height="29" class="c"/>
    <rect x="330" y="300" width="29" height="29" class="c"/>
    <rect x="360" y="300" width="29" height="29" class="c"/>
    <rect x="390" y="300" width="29" height="29" class="c"/>
    <rect x="420" y="300" width="29" height="29" class="c"/>

    <rect x="150" y="330" width="29" height="29" class="c"/>
    <rect x="180" y="330" width="29" height="29" class="c"/>
    <rect x="210" y="330" width="29" height="29" class="c"/>
    <rect x="240" y="330" width="29" height="29" class="c"/>
    <rect x="270" y="330" width="29" height="29" class="c"/>
    <rect x="300" y="330" width="29" height="29" class="c"/>
    <rect x="330" y="330" width="29" height="29" class="c"/>
    <rect x="360" y="330" width="29" height="29" class="c"/>
    <rect x="390" y="330" width="29" height="29" class="c"/>
    <rect x="420" y="330" width="29" height="29" class="c"/>

    <rect x="150" y="360" width="29" height="29" class="c"/>
    <rect x="180" y="360" width="29" height="29" class="c"/>
    <rect x="210" y="360" width="29" height="29" class="c"/>
    <rect x="240" y="360" width="29" height="29" class="c"/>
    <rect x="270" y="360" width="29" height="29" class="c"/>
    <rect x="300" y="360" width="29" height="29" class="c"/>
    <rect x="330" y="360" width="29" height="29" class="c"/>
    <rect x="360" y="360" width="29" height="29" class="c"/>
    <rect x="390" y="360" width="29" height="29" class="c"/>
    <rect x="420" y="360" width="29" height="29" class="c"/>

    <rect x="150" y="390" width="29" height="29" class="c"/>
    <rect x="180" y="390" width="29" height="29" class="c"/>
    <rect x="210" y="390" width="29" height="29" class="c"/>
    <rect x="240" y="390" width="29" height="29" class="c"/>
    <rect x="270" y="390" width="29" height="29" class="c"/>
    <rect x="300" y="390" width="29" height="29" class="c"/>
    <rect x="330" y="390" width="29" height="29" class="c"/>
    <rect x="360" y="390" width="29" height="29" class="c"/>
    <rect x="390" y="390" width="29" height="29" class="c"/>
    <rect x="420" y="390" width="29" height="29" class="c"/>

    <rect x="150" y="420" width="29" height="29" class="c"/>
    <rect x="180" y="420" width="29" height="29" class="c"/>
    <rect x="210" y="420" width="29" height="29" class="c"/>
    <rect x="240" y="420" width="29" height="29" class="c"/>
    <rect x="270" y="420" width="29" height="29" class="c"/>
    <rect x="300" y="420" width="29" height="29" class="c"/>
    <rect x="330" y="420" width="29" height="29" class="c"/>
    <rect x="360" y="420" width="29" height="29" class="c"/>
    <rect x="390" y="420" width="29" height="29" class="c"/>
    <rect x="420" y="420" width="29" height="29" class="c"/>

    <line x1="300" y1="150" x2="300" y2="450" class="bg5"/>
    <line y1="300" x1="150" y2="300" x2="450" class="bg5"/>
</g>

<g id="result">
    <rect x="200" y="350" width="500" ry="20" height="50" style="stroke:white;stroke-width:5;fill:#5599BB;fill-opacity:0.8"/>
    <text transform="translate(220,392)" id="tfinal"></text>
</g>


</svg> 
