<?xml version="1.0" encoding="UTF-8" standalone="no"?>

<svg xmlns:svg="http://www.w3.org/2000/svg" xmlns="http://www.w3.org/2000/svg" version="1.0" width="100%" height="100%" viewBox="0 0 96 80" id="svg2383" style="display:inline">
<defs id="defs2385"/>
<rect width="88.93" height="43.36" ry="2.42" x="-92.58" y="35.90" transform="scale(-1,1)" id="r4070" style="fill:#090805;fill-opacity:0.43;fill-rule:evenodd;stroke:none;marker:none;visibility:visible;display:inline;overflow:visible;enable-background:accumulate"/>
<path d="M 88.65,31.47 C 90.66,31.47 92.28,32.93 92.28,34.74 L 92.28,42.95 L 92.28,61.73 L 92.28,71.21 C 92.28,73.10 90.60,74.65 88.5,74.65 L 8.46,74.65 C 6.36,74.65 4.68,73.10 4.68,71.21 C 4.68,71.21 4.68,48.72 4.68,42.95 C 4.68,39.75 6.92,36.23 8.77,33.33 C 9.25,32.72 10.17,31.47 12.18,31.47 L 88.65,31.47 z" id="r2582" style="opacity:1;fill:#e133e3;fill-opacity:1;fill-rule:evenodd;stroke:none;marker:none;visibility:visible;display:inline;overflow:visible;enable-background:accumulate"/>
<rect width="83.72" height="32.46" ry="3.27" x="-92.27" y="31.46" transform="scale(-1,1)" id="r2580" style="opacity:1;fill:#f152f3;fill-opacity:1;fill-rule:evenodd;stroke:none;marker:none;visibility:visible;display:inline;overflow:visible;enable-background:accumulate"/>
<path d="M 10.64,56.00 C 10.66,55.99 11.86,58.02 11.88,58.03 C 11.90,58.04 14.23,57.69 14.24,57.71 C 14.26,57.73 12.70,59.50 12.69,59.52 C 12.69,59.55 13.75,61.65 13.73,61.67 C 13.72,61.69 11.55,60.75 11.53,60.76 C 11.51,60.76 9.83,62.42 9.81,62.41 C 9.79,62.40 10.01,60.05 10.00,60.03 C 9.98,60.01 7.89,58.92 7.89,58.90 C 7.90,58.88 10.20,58.36 10.21,58.35 C 10.23,58.33 10.61,56.00 10.64,56.00 z" transform="matrix(1,0,0,0.80,0.83,10.73)" id="p3241" style="opacity:1;fill:#dadd82;fill-opacity:1;fill-rule:evenodd;stroke:none;marker:none;visibility:visible;display:inline;overflow:visible;enable-background:accumulate"/>
<path d="M 27.71,31.46 L 27.71,33.15 C 27.71,34.82 26.36,36.15 24.68,36.15 L 8.56,36.15 L 8.56,34.75 C 8.56,32.93 10.00,31.46 11.81,31.46 L 27.71,31.46 z M 25.68,58.09 C 27.36,58.09 28.71,59.42 28.71,61.09 L 28.71,63.93 L 11.81,63.93 C 10.00,63.93 8.56,62.46 8.56,60.65 L 8.56,58.93 C 9.10,58.41 9.83,58.09 10.65,58.09 L 25.68,58.09 z" id="r3529" style="opacity:1;fill:#572a59;fill-opacity:0.17;fill-rule:evenodd;stroke:none;marker:none;visibility:visible;display:inline;overflow:visible;enable-background:accumulate"/>
<rect width="52.91" height="33.54" ry="3.27" x="-87.14" y="22.19" transform="scale(-1,1)" id="r3365" style="opacity:1;fill:#4a77d5;fill-opacity:1;fill-rule:evenodd;stroke:none;marker:none;visibility:visible;display:inline;overflow:visible;enable-background:accumulate"/>
<path d="M 86.77,23.73 L 89.22,31.67 L 89.22,66.32 C 89.22,66.32 31.01,66.32 27.10,66.32 C 23.19,66.32 22.21,61.21 22.21,58.69 C 22.21,56.17 22.21,35.29 22.21,32.36 C 22.21,31.00 25.49,29.07 28.57,26.98 C 31.99,24.65 35.29,22.51 36.64,22.40 C 39.33,22.18 86.04,23.95 86.77,23.73 z" id="p3369" style="fill:#e133e3;fill-opacity:1;fill-rule:evenodd;stroke:none;"/>
<rect width="52.91" height="30.81" ry="3.27" x="-87.14" y="22.19" transform="scale(-1,1)" id="r3367" style="opacity:1;fill:#f152f3;fill-opacity:1;fill-rule:evenodd;stroke:none;marker:none;visibility:visible;display:inline;overflow:visible;enable-background:accumulate"/>
<path d="M 47.34,22.18 C 46.61,23.30 46.15,24.74 46.15,26.37 C 46.15,26.46 46.15,26.56 46.15,26.65 C 46.06,26.61 45.99,26.57 45.90,26.53 C 42.11,24.78 38.00,24.76 36.75,26.5 C 35.58,28.10 37.27,30.65 40.56,32.40 C 37.29,34.15 35.61,36.70 36.78,38.31 C 38.02,40.02 42.05,40.03 45.81,38.34 C 45.95,41.65 47.92,44.28 50.34,44.28 C 52.77,44.28 54.78,41.64 54.90,38.31 C 58.69,40.04 62.77,40.04 64.03,38.31 C 65.19,36.70 63.48,34.15 60.21,32.40 C 63.50,30.65 65.19,28.10 64.03,26.5 C 62.81,24.82 58.93,24.79 55.25,26.37 C 55.24,24.76 54.81,23.29 54.09,22.18 L 47.34,22.18 z" id="p3210" style="opacity:1;fill:#fda0ff;fill-opacity:1;fill-rule:evenodd;stroke:none;marker:none;visibility:visible;display:inline;overflow:visible;enable-background:accumulate"/>
<g transform="matrix(-1.20,0,0,1.20,106.91,-16.33)" id="g3388">
<path d="M 25.06,67.5 C 20.09,67.5 16.06,70.18 16.06,73.5 C 16.06,73.84 16.07,74.59 16.09,75.34 C 21.27,75.34 25.27,75.34 34.06,75.34 C 34.07,74.6 34.06,73.83 34.06,73.5 C 34.06,70.18 30.03,67.5 25.06,67.5 z" id="p3390" style="opacity:1;fill:#1f1c18;fill-opacity:1;fill-rule:evenodd;stroke:none;marker:none;visibility:visible;display:inline;overflow:visible;enable-background:accumulate"/>
<path d="M 25.06,67.5 C 22.03,67.5 19.35,68.5 17.71,70.03 C 17.63,70.33 17.59,70.64 17.59,70.96 C 17.59,72.32 17.59,73.1 17.59,74.28 C 17.59,74.64 17.66,74.99 17.78,75.34 C 21.85,75.34 25.92,75.34 32.37,75.34 C 32.48,74.99 32.56,74.64 32.56,74.28 C 32.56,73.22 32.56,72.21 32.56,70.96 C 32.56,70.65 32.51,70.35 32.43,70.06 C 30.8,68.51 28.1,67.5 25.06,67.5 z" id="p3392" style="fill:#34291c;fill-opacity:1;fill-rule:evenodd;stroke:none;marker:none;visibility:visible;display:inline;overflow:visible;enable-background:accumulate"/>
<path d="M 25.06,69.28 C 20.92,69.28 17.59,71.52 17.59,74.28 C 17.59,77.03 20.92,79.28 25.06,79.28 C 29.19,79.28 32.56,77.03 32.56,74.28 C 32.56,71.52 29.19,69.28 25.06,69.28 z" id="p3394" style="fill:#45392a;fill-opacity:1;fill-rule:evenodd;stroke:none;marker:none;visibility:visible;display:inline;overflow:visible;enable-background:accumulate"/>
<path d="M 25.06,70.46 C 21.54,70.46 18.71,72.37 18.71,74.71 C 18.71,77.06 21.54,78.96 25.06,78.96 C 28.57,78.96 31.43,77.06 31.43,74.71 C 31.43,72.37 28.57,70.46 25.06,70.46 z" id="p3396" style="fill:#31281d;fill-opacity:1;fill-rule:evenodd;stroke:none;marker:none;visibility:visible;display:inline;overflow:visible;enable-background:accumulate"/>
<path d="M 25.06,72.34 C 23.1,72.34 21.53,73.41 21.53,74.71 C 21.53,76.02 23.1,77.09 25.06,77.09 C 27.02,77.09 28.62,76.02 28.62,74.71 C 28.62,73.41 27.02,72.34 25.06,72.34 z" id="p3398" style="fill:#baa58b;fill-opacity:1;fill-rule:evenodd;stroke:none;marker:none;visibility:visible;display:inline;overflow:visible;enable-background:accumulate"/>
<path d="M 25.06,72.34 C 23.48,72.34 22.18,73.05 21.71,74 C 22.19,74.93 23.5,75.59 25.06,75.59 C 26.62,75.59 27.96,74.93 28.43,74 C 27.97,73.05 26.63,72.34 25.06,72.34 z" id="p3400" style="fill:#aa9070;fill-opacity:1;fill-rule:evenodd;stroke:none;marker:none;visibility:visible;display:inline;overflow:visible;enable-background:accumulate"/>
<path d="M 25.06,72.65 C 24.44,72.65 23.96,72.99 23.96,73.4 C 23.96,73.81 24.44,74.15 25.06,74.15 C 25.67,74.15 26.18,73.81 26.18,73.4 C 26.18,72.99 25.67,72.65 25.06,72.65 z" id="p3402" style="fill:#362c20;fill-opacity:1;fill-rule:evenodd;stroke:none;marker:none;visibility:visible;display:inline;overflow:visible;enable-background:accumulate"/>
</g>
<path d="M 33.56,23.75 C 32.71,25.68 32.93,27.66 32.93,29.25 C 32.93,31.38 32.93,51.51 32.93,52.93 C 32.93,54.36 33.29,54.89 34.18,55.78 C 35.07,56.67 26.86,63.42 24.90,63.25 C 22.94,63.07 23.5,57.92 23.5,45.28 C 23.50,35.44 23.39,31.98 24.18,30 C 25.40,29.07 27.02,28.03 28.59,26.96 C 30.38,25.74 32.10,24.59 33.56,23.75 z" id="p3404" style="fill:#161f33;fill-opacity:1;fill-rule:evenodd;stroke:none;"/>
<path d="M 87.75,26.87 L 88.68,29.93 C 88.68,36.95 88.68,53.29 88.68,57.12 C 88.68,61.79 88.68,63.18 88.53,62.40 C 88.37,61.62 86.65,56.80 86.34,55.09 C 87.27,54.16 87.75,53.24 87.75,51.84 C 87.75,50.59 87.75,34.57 87.75,26.87 z" id="p3411" style="opacity:1;fill:#161f33;fill-opacity:1;fill-rule:evenodd;stroke:none;marker:none;visibility:visible;display:inline;overflow:visible;enable-background:accumulate"/>
<path d="M 62.03,55.53 C 71.13,55.53 75.51,55.55 80.56,55.56 L 80.56,63.84 C 76.09,63.84 71.00,63.84 62.03,63.84 L 62.03,55.53 z M 60.59,55.53 L 60.59,63.84 C 51.22,63.84 46.45,63.84 41.31,63.84 L 41.31,55.53 C 43.31,55.53 51.22,55.52 60.59,55.53 z M 40,55.53 L 40,63.84 C 38.37,63.84 33.39,63.84 33.12,63.84 C 30.98,63.84 29.74,62.60 30.62,61.71 C 31.50,60.83 34.39,58.32 35.40,57.18 C 36.41,56.05 36.80,55.40 38.43,55.53 C 38.43,55.53 39.91,55.53 40,55.53 z M 84.46,55.56 C 85.34,56.04 85.87,57.41 86.40,59.18 C 86.92,60.90 87.50,63.04 87,63.84 C 86.69,63.84 83.54,63.84 82,63.84 C 82.02,63.71 82.03,63.57 82.03,63.43 L 82.03,55.59 C 82.03,55.58 82.03,55.57 82.03,55.56 C 82.04,55.56 82.05,55.56 82.06,55.56 C 82.61,55.56 84.08,55.56 84.46,55.56 z" id="p3416" style="opacity:1;fill:#161f33;fill-opacity:1;fill-rule:evenodd;stroke:none;marker:none;visibility:visible;display:inline;overflow:visible;enable-background:accumulate"/>
<path d="M 33.56,23.75 C 32.71,25.68 32.93,27.66 32.93,29.25 C 32.93,31.38 32.93,51.51 32.93,52.93 C 32.93,54.36 33.29,54.89 34.18,55.78 C 34.70,56.29 32.16,58.75 29.56,60.71 C 28.57,55.10 27.96,47.86 27.96,39.90 C 27.96,35.31 28.17,30.95 28.53,27 C 28.55,26.98 28.57,26.98 28.59,26.96 C 30.38,25.74 32.10,24.59 33.56,23.75 z" id="p3439" style="opacity:1;fill:#9ae4f5;fill-opacity:0.04;fill-rule:evenodd;stroke:none;marker:none;visibility:visible;display:inline;overflow:visible;enable-background:accumulate"/>
<path d="M 33.56,23.75 C 32.96,25.11 32.89,26.49 32.90,27.75 L 23.59,34.03 C 23.67,32.11 23.83,30.88 24.18,30 C 25.40,29.07 27.02,28.03 28.59,26.96 C 30.38,25.74 32.10,24.59 33.56,23.75 z M 32.93,52.28 C 32.93,52.34 32.93,52.89 32.93,52.93 C 32.93,54.36 33.29,54.89 34.18,55.78 C 35.07,56.67 26.86,63.42 24.90,63.25 C 23.96,63.16 23.62,61.88 23.5,59.21 L 32.93,52.28 z" id="p3444" style="fill:#9ae4f5;fill-opacity:0.07;fill-rule:evenodd;stroke:none;"/>
<path d="M 78.67,37.36 C 77.26,36.91 75.30,38.12 74.30,40.07 C 74.28,40.12 74.26,40.17 74.24,40.22 C 74.20,40.18 74.16,40.14 74.12,40.10 C 72.48,38.45 70.18,37.71 68.98,38.45 C 67.86,39.14 68.09,40.86 69.44,42.43 C 67.10,42.82 65.43,43.94 65.62,45.04 C 65.83,46.22 68.10,46.95 70.70,46.69 C 69.83,48.56 70.20,50.38 71.56,50.81 C 72.93,51.25 74.81,50.13 75.83,48.29 C 77.47,49.93 79.77,50.67 80.97,49.92 C 82.08,49.24 81.86,47.52 80.52,45.95 C 82.87,45.56 84.55,44.45 84.35,43.34 C 84.14,42.19 81.97,41.47 79.44,41.69 C 80.43,39.75 80.09,37.81 78.67,37.36 z" id="p3218" style="opacity:1;fill:#fda0ff;fill-opacity:1;fill-rule:evenodd;stroke:none;marker:none;visibility:visible;display:inline;overflow:visible;enable-background:accumulate"/>
<path d="M 62.80,47.44 C 62.80,47.49 58.30,48.66 58.27,48.70 C 58.23,48.74 57.64,53.35 57.59,53.36 C 57.55,53.37 55.04,49.45 55.00,49.43 C 54.95,49.42 50.38,50.28 50.36,50.24 C 50.33,50.19 53.28,46.60 53.29,46.55 C 53.29,46.50 51.06,42.42 51.09,42.39 C 51.12,42.35 55.46,44.05 55.50,44.04 C 55.55,44.03 58.74,40.64 58.79,40.66 C 58.83,40.68 58.55,45.32 58.58,45.36 C 58.60,45.40 62.81,47.40 62.80,47.44 z" transform="matrix(1,0,0,0.81,2.92,8.80)" id="p3237" style="opacity:1;fill:#dadd82;fill-opacity:1;fill-rule:evenodd;stroke:none;marker:none;visibility:visible;display:inline;overflow:visible;enable-background:accumulate"/>
<path d="M 83.87,22.18 C 85.20,22.18 86.33,22.98 86.84,24.12 L 34.53,24.12 C 35.04,22.98 36.16,22.18 37.5,22.18 L 83.87,22.18 z M 87.15,49.18 L 87.15,49.75 C 87.15,51.56 85.68,52.99 83.87,53 L 37.5,53 C 35.68,53 34.21,51.56 34.21,49.75 L 34.21,49.18 L 87.15,49.18 z" id="r3449" style="opacity:1;fill:#380435;fill-opacity:0.13;fill-rule:evenodd;stroke:none;marker:none;visibility:visible;display:inline;overflow:visible;enable-background:accumulate"/>
<path d="M 86.78,23.71 L 89.21,31.68 L 89.21,64.03 C 89.17,64.04 88.68,64.19 88.15,63.84 C 87.97,62.54 86.10,56.40 84.25,53.06 C 85.17,53.06 85.34,51.39 85.34,50.28 C 85.34,49.36 85.34,31.24 85.34,23.71 C 85.94,23.72 86.72,23.73 86.78,23.71 z" id="p3457" style="fill:#d2ddfc;fill-opacity:0.09;fill-rule:evenodd;stroke:none;"/>
<path d="M 62.03,55.53 C 71.13,55.53 75.51,55.55 80.56,55.56 L 80.56,59.59 C 74.79,59.97 68.55,60.22 62.03,60.28 L 62.03,55.53 z M 60.59,55.53 L 60.59,60.28 C 60.06,60.28 59.55,60.31 59.03,60.31 C 52.84,60.31 46.89,60.13 41.31,59.84 L 41.31,55.53 C 43.31,55.53 51.22,55.52 60.59,55.53 z M 40,55.53 L 40,59.75 C 37.67,59.61 35.42,59.49 33.25,59.31 C 34.11,58.51 34.95,57.69 35.40,57.18 C 36.41,56.05 36.80,55.40 38.43,55.53 C 38.43,55.53 39.91,55.53 40,55.53 z M 84.46,55.56 C 85.34,56.04 85.87,57.41 86.40,59.18 C 84.98,59.31 83.51,59.39 82.03,59.5 L 82.03,55.59 C 82.03,55.58 82.03,55.57 82.03,55.56 C 82.04,55.56 82.05,55.56 82.06,55.56 C 82.61,55.56 84.08,55.56 84.46,55.56 z" id="p3463" style="opacity:1;fill:#d2ddfc;fill-opacity:0.09;fill-rule:evenodd;stroke:none;marker:none;visibility:visible;display:inline;overflow:visible;enable-background:accumulate"/>
<path d="M 92.28,62.5 L 92.28,69.18 C 92.28,70.99 90.81,72.46 89,72.46 L 88.96,72.46 L 88.96,65.75 L 89,65.75 C 90.81,65.75 92.28,64.31 92.28,62.5 z" id="r3486" style="opacity:1;fill:#b68234;fill-opacity:1;fill-rule:evenodd;stroke:none;marker:none;visibility:visible;display:inline;overflow:visible;enable-background:accumulate"/>
<path d="M 92.28,62.5 L 92.28,66.15 C 92.28,67.96 90.81,69.43 89,69.43 L 88.96,69.43 L 88.96,65.75 L 89,65.75 C 90.81,65.75 92.28,64.31 92.28,62.5 z" id="p3494" style="opacity:1;fill:#b63434;fill-opacity:1;fill-rule:evenodd;stroke:none;marker:none;visibility:visible;display:inline;overflow:visible;enable-background:accumulate"/>
<path d="M 12.54,69.10 C 12.54,69.10 8.34,69.10 6.90,69.10 C 5.45,69.10 5.82,66.21 5.82,65.09 C 5.82,63.98 5.82,40.48 5.82,39.56 C 5.82,38.64 7.16,35.88 7.16,35.88 C 7.16,35.88 6.50,35.88 5.32,35.88 C 4.14,35.88 4.04,36.92 4.04,38.11 C 4.04,39.29 4.04,68.84 4.04,71.33 C 4.04,73.82 6.11,74.61 7.95,74.61 C 9.79,74.61 13.07,74.61 13.07,74.61 L 12.54,69.10 z" id="p3499" style="fill:#32250e;fill-opacity:1;fill-rule:evenodd;stroke:none;"/>
<path d="M 7.15,35.87 C 7.15,35.87 5.84,38.64 5.84,39.56 C 5.84,40.48 5.84,63.97 5.84,65.09 C 5.84,66.21 5.46,69.09 6.90,69.09 C 8.35,69.09 12.56,69.09 12.56,69.09 L 12.65,70.03 C 11.35,70.03 8.02,70.03 6.37,70.03 C 4.94,70.03 4.29,69.84 4.03,67.81 C 4.03,61.00 4.03,39.18 4.03,38.12 C 4.03,36.93 4.13,35.87 5.31,35.87 C 6.49,35.87 7.15,35.87 7.15,35.87 z" id="p3501" style="fill:#382e1a;fill-opacity:1;fill-rule:evenodd;stroke:none;"/>
<g transform="matrix(-1.20,0,0,1.20,52.44,-16.33)" id="use3556">
<path d="M 25.06,67.5 C 20.09,67.5 16.06,70.18 16.06,73.5 C 16.06,73.84 16.07,74.59 16.09,75.34 C 21.27,75.34 25.27,75.34 34.06,75.34 C 34.07,74.6 34.06,73.83 34.06,73.5 C 34.06,70.18 30.03,67.5 25.06,67.5 z" id="p3374" style="opacity:1;fill:#1f1c18;fill-opacity:1;fill-rule:evenodd;stroke:none;marker:none;visibility:visible;display:inline;overflow:visible;enable-background:accumulate"/>
<path d="M 25.06,67.5 C 22.03,67.5 19.35,68.5 17.71,70.03 C 17.63,70.33 17.59,70.64 17.59,70.96 C 17.59,72.32 17.59,73.1 17.59,74.28 C 17.59,74.64 17.66,74.99 17.78,75.34 C 21.85,75.34 25.92,75.34 32.37,75.34 C 32.48,74.99 32.56,74.64 32.56,74.28 C 32.56,73.22 32.56,72.21 32.56,70.96 C 32.56,70.65 32.51,70.35 32.43,70.06 C 30.8,68.51 28.1,67.5 25.06,67.5 z" id="p3376" style="fill:#34291c;fill-opacity:1;fill-rule:evenodd;stroke:none;marker:none;visibility:visible;display:inline;overflow:visible;enable-background:accumulate"/>
<path d="M 25.06,69.28 C 20.92,69.28 17.59,71.52 17.59,74.28 C 17.59,77.03 20.92,79.28 25.06,79.28 C 29.19,79.28 32.56,77.03 32.56,74.28 C 32.56,71.52 29.19,69.28 25.06,69.28 z" id="p3378" style="fill:#45392a;fill-opacity:1;fill-rule:evenodd;stroke:none;marker:none;visibility:visible;display:inline;overflow:visible;enable-background:accumulate"/>
<path d="M 25.06,70.46 C 21.54,70.46 18.71,72.37 18.71,74.71 C 18.71,77.06 21.54,78.96 25.06,78.96 C 28.57,78.96 31.43,77.06 31.43,74.71 C 31.43,72.37 28.57,70.46 25.06,70.46 z" id="p3380" style="fill:#31281d;fill-opacity:1;fill-rule:evenodd;stroke:none;marker:none;visibility:visible;display:inline;overflow:visible;enable-background:accumulate"/>
<path d="M 25.06,72.34 C 23.1,72.34 21.53,73.41 21.53,74.71 C 21.53,76.02 23.1,77.09 25.06,77.09 C 27.02,77.09 28.62,76.02 28.62,74.71 C 28.62,73.41 27.02,72.34 25.06,72.34 z" id="p3382" style="fill:#baa58b;fill-opacity:1;fill-rule:evenodd;stroke:none;marker:none;visibility:visible;display:inline;overflow:visible;enable-background:accumulate"/>
<path d="M 25.06,72.34 C 23.48,72.34 22.18,73.05 21.71,74 C 22.19,74.93 23.5,75.59 25.06,75.59 C 26.62,75.59 27.96,74.93 28.43,74 C 27.97,73.05 26.63,72.34 25.06,72.34 z" id="p3384" style="fill:#aa9070;fill-opacity:1;fill-rule:evenodd;stroke:none;marker:none;visibility:visible;display:inline;overflow:visible;enable-background:accumulate"/>
<path d="M 25.06,72.65 C 24.44,72.65 23.96,72.99 23.96,73.4 C 23.96,73.81 24.44,74.15 25.06,74.15 C 25.67,74.15 26.18,73.81 26.18,73.4 C 26.18,72.99 25.67,72.65 25.06,72.65 z" id="p3386" style="fill:#362c20;fill-opacity:1;fill-rule:evenodd;stroke:none;marker:none;visibility:visible;display:inline;overflow:visible;enable-background:accumulate"/>
</g>
<path d="M 8.18,34.28 C 7.81,36.19 7.81,38.40 7.81,39.81 C 7.81,41.51 6.76,43.89 6.5,44.81 C 6.59,43.31 6.56,39.56 6.53,37.06 C 7.04,36.09 7.62,35.17 8.18,34.28 z" id="p3506" style="fill:#adbdc6;fill-opacity:1;fill-rule:evenodd;stroke:none;"/>
<path d="M 7.87,55.12 C 7.91,59.07 7.99,61.32 7.99,62.58 C 8.01,63.64 6.70,67.03 6.53,66.40 C 6.53,65.93 6.52,60.87 6.53,59.78 L 7.87,55.12 z" id="p3511" style="fill:#adbdc6;fill-opacity:1;fill-rule:evenodd;stroke:none;"/>
<path d="M 6.93,61.65 C 7.08,61.65 7.22,61.68 7.37,61.71 C 7.61,61.77 7.80,61.88 8,62.03 C 8.00,62.13 8,62.49 8,62.59 C 8.01,63.64 6.70,67.03 6.53,66.40 C 6.53,66.07 6.53,63.64 6.53,61.75 C 6.66,61.71 6.80,61.66 6.93,61.65 z" id="p3516" style="opacity:1;fill:#b68234;fill-opacity:1;fill-rule:evenodd;stroke:none;marker:none;visibility:visible;display:inline;overflow:visible;enable-background:accumulate"/>
<path d="M 8.12,34.34 C 8.13,34.36 8.14,34.38 8.15,34.40 C 7.94,35.56 7.90,36.75 7.87,37.87 C 7.52,38.38 7.03,38.72 6.53,38.87 C 6.52,38.26 6.53,37.59 6.53,37.06 C 7.03,36.12 7.57,35.21 8.12,34.34 z" id="p3518" style="opacity:1;fill:#b68234;fill-opacity:1;fill-rule:evenodd;stroke:none;marker:none;visibility:visible;display:inline;overflow:visible;enable-background:accumulate"/>
<path d="M 83.87,22.18 C 85.04,22.18 86.07,22.79 86.65,23.71 C 86.67,23.71 86.77,23.72 86.78,23.71 L 86.90,24.18 L 89.15,31.5 C 90.91,31.72 92.28,33.09 92.28,34.75 L 92.28,42.93 L 92.28,61.75 L 92.28,71.21 C 92.28,73.11 90.60,74.65 88.5,74.65 L 85.46,74.65 C 84.59,77.37 80.99,79.43 76.65,79.43 C 72.32,79.43 68.69,77.36 67.81,74.65 L 31,74.65 C 30.12,77.37 26.52,79.43 22.18,79.43 C 17.85,79.43 14.22,77.36 13.34,74.65 L 8.46,74.65 C 8.33,74.65 8.22,74.63 8.09,74.62 C 8.04,74.62 7.98,74.63 7.93,74.62 C 6.09,74.62 4.03,73.83 4.03,71.34 C 4.03,68.84 4.03,39.31 4.03,38.12 C 4.03,36.93 4.13,35.87 5.31,35.87 C 6.49,35.87 7.15,35.87 7.15,35.87 C 7.15,35.87 7.05,36.13 7.03,36.18 C 7.59,35.20 8.21,34.23 8.78,33.34 C 9.25,32.73 10.17,31.46 12.18,31.46 L 22.62,31.46 C 22.96,31.01 23.50,30.52 24.18,30 C 27.16,27.83 30.24,25.81 33.37,23.87 C 34.19,23.30 35.12,22.95 36.03,22.56 C 36.46,22.24 37.00,22.28 37.5,22.18 L 83.87,22.18 z" id="p3537" style="opacity:1;fill:none;fill-opacity:1;fill-rule:evenodd;stroke:#212b38;stroke-width:1;stroke-linecap:round;stroke-linejoin:round;marker:none;stroke-miterlimit:4;stroke-dasharray:none;stroke-dashoffset:0;stroke-opacity:1;visibility:visible;display:inline;overflow:visible;enable-background:accumulate"/>
<path d="M -9.10,-58.04 A 12.61,12.61 0 1 1 -34.33,-58.04 A 12.61,12.61 0 1 1 -9.10,-58.04 z" transform="matrix(0.46,0,0,0.36,60.65,54.17)" id="p3212" style="opacity:1;fill:#dadd82;fill-opacity:1;fill-rule:evenodd;stroke:none;marker:none;visibility:visible;display:inline;overflow:visible;enable-background:accumulate"/>
<path d="M -9.10,-58.04 A 12.61,12.61 0 1 1 -34.33,-58.04 A 12.61,12.61 0 1 1 -9.10,-58.04 z" transform="matrix(0.26,8.32e-2,-0.10,0.20,74.54,58.19)" id="p3220" style="opacity:1;fill:#dadd82;fill-opacity:1;fill-rule:evenodd;stroke:none;marker:none;visibility:visible;display:inline;overflow:visible;enable-background:accumulate"/>
<path d="M 75.15,25.06 C 74.24,25.32 73.95,26.63 74.51,27.97 C 74.52,28.00 74.54,28.03 74.55,28.07 C 74.51,28.06 74.48,28.05 74.44,28.05 C 72.80,27.78 71.32,28.21 71.14,29.01 C 70.98,29.76 71.99,30.55 73.45,30.88 C 72.55,31.90 72.35,33.05 73.02,33.55 C 73.74,34.07 75.20,33.65 76.28,32.60 C 76.86,33.85 77.99,34.65 78.86,34.39 C 79.74,34.13 80.03,32.90 79.55,31.61 C 81.19,31.87 82.66,31.44 82.83,30.64 C 83.00,29.90 81.99,29.10 80.53,28.78 C 81.44,27.75 81.64,26.59 80.97,26.10 C 80.26,25.59 78.86,25.99 77.78,26.99 C 77.23,25.65 76.05,24.79 75.15,25.06 z" id="p3222" style="opacity:1;fill:#fda0ff;fill-opacity:1;fill-rule:evenodd;stroke:none;marker:none;visibility:visible;display:inline;overflow:visible;enable-background:accumulate"/>
<path d="M -9.10,-58.04 A 12.61,12.61 0 1 1 -34.33,-58.04 A 12.61,12.61 0 1 1 -9.10,-58.04 z" transform="matrix(0.16,-4.96e-2,5.87e-2,0.14,84.14,37.10)" id="p3224" style="opacity:1;fill:#dadd82;fill-opacity:1;fill-rule:evenodd;stroke:none;marker:none;visibility:visible;display:inline;overflow:visible;enable-background:accumulate"/>
<path d="M 13.71,36.95 C 12.80,37.22 12.51,38.52 13.07,39.86 C 13.08,39.89 13.10,39.92 13.11,39.96 C 13.07,39.95 13.04,39.94 13.00,39.94 C 11.35,39.67 9.88,40.11 9.70,40.91 C 9.53,41.65 10.55,42.45 12.01,42.77 C 11.11,43.79 10.91,44.94 11.58,45.44 C 12.30,45.96 13.76,45.54 14.84,44.49 C 15.42,45.75 16.55,46.54 17.42,46.29 C 18.29,46.03 18.59,44.80 18.11,43.50 C 19.74,43.76 21.21,43.33 21.39,42.53 C 21.56,41.79 20.55,40.99 19.09,40.67 C 20.00,39.64 20.20,38.49 19.53,37.99 C 18.82,37.48 17.42,37.88 16.34,38.88 C 15.79,37.54 14.61,36.68 13.71,36.95 z" id="p3226" style="opacity:1;fill:#fda0ff;fill-opacity:1;fill-rule:evenodd;stroke:none;marker:none;visibility:visible;display:inline;overflow:visible;enable-background:accumulate"/>
<path d="M -9.10,-58.04 A 12.61,12.61 0 1 1 -34.33,-58.04 A 12.61,12.61 0 1 1 -9.10,-58.04 z" transform="matrix(0.16,-4.96e-2,5.87e-2,0.14,22.70,48.99)" id="p3228" style="opacity:1;fill:#dadd82;fill-opacity:1;fill-rule:evenodd;stroke:none;marker:none;visibility:visible;display:inline;overflow:visible;enable-background:accumulate"/>
<path d="M 22.11,54.75 C 22.09,54.78 18.59,54.05 18.56,54.06 C 18.53,54.07 16.54,57.05 16.51,57.04 C 16.47,57.03 16.08,53.48 16.06,53.45 C 16.04,53.42 12.59,52.45 12.59,52.41 C 12.59,52.38 15.85,50.91 15.87,50.88 C 15.89,50.85 15.75,47.28 15.78,47.26 C 15.81,47.25 18.22,49.90 18.25,49.91 C 18.29,49.91 21.64,48.68 21.67,48.70 C 21.69,48.73 19.91,51.84 19.92,51.87 C 19.92,51.91 22.13,54.72 22.11,54.75 z" transform="matrix(1,0,0,0.82,-0.62,8.07)" id="p3239" style="opacity:1;fill:#dadd82;fill-opacity:1;fill-rule:evenodd;stroke:none;marker:none;visibility:visible;display:inline;overflow:visible;enable-background:accumulate"/>
<path d="M 46.70,65.00 C 43.14,65.00 40.24,66.93 40.24,69.30 C 40.24,71.68 43.14,73.61 46.70,73.61 C 50.26,73.61 53.16,71.68 53.16,69.30 C 53.16,66.93 50.26,65.00 46.70,65.00 z M 47.27,65.79 C 49.94,65.97 52.01,67.47 52.01,69.30 C 52.01,70.14 51.57,70.91 50.84,71.51 L 47.27,69.13 L 47.27,65.79 z M 46.11,65.79 L 46.11,69.13 L 42.55,71.50 C 41.83,70.90 41.40,70.14 41.40,69.30 C 41.40,67.48 43.46,65.99 46.11,65.79 z M 46.11,70.21 L 46.11,72.82 C 45.07,72.74 44.13,72.46 43.36,72.05 L 46.11,70.21 z M 47.27,70.22 L 50.03,72.06 C 49.26,72.48 48.31,72.75 47.27,72.82 L 47.27,70.22 z" id="p3245" style="fill:#fc66ff;fill-opacity:1;fill-rule:evenodd;stroke:none;"/>
</svg>
