<?xml version="1.0" encoding="UTF-8" standalone="no"?>

<svg xmlns:svg="http://www.w3.org/2000/svg" xmlns="http://www.w3.org/2000/svg" version="1.0" width="100%" height="100%" viewBox="0 0 96 80" id="svg2383" style="display:inline">
<defs id="defs2385"/>
<rect width="88.93" height="43.36" ry="2.42" x="3.72" y="35.90" id="r4070" style="fill:#090805;fill-opacity:0.43;fill-rule:evenodd;stroke:none;marker:none;visibility:visible;display:inline;overflow:visible;enable-background:accumulate"/>
<path d="M 7.65,31.47 C 5.64,31.47 4.03,32.93 4.03,34.74 L 4.03,42.95 L 4.03,61.73 L 4.03,71.21 C 4.03,73.10 5.71,74.65 7.81,74.65 L 87.84,74.65 C 89.94,74.65 91.62,73.10 91.62,71.21 C 91.62,71.21 91.62,48.72 91.62,42.95 C 91.62,39.75 89.38,36.23 87.53,33.33 C 87.05,32.72 86.13,31.47 84.12,31.47 L 7.65,31.47 z" id="r2582" style="opacity:1;fill:#244a9b;fill-opacity:1;fill-rule:evenodd;stroke:none;marker:none;visibility:visible;display:inline;overflow:visible;enable-background:accumulate"/>
<rect width="83.72" height="32.46" ry="3.27" x="4.03" y="31.46" id="r2580" style="opacity:1;fill:#345eb6;fill-opacity:1;fill-rule:evenodd;stroke:none;marker:none;visibility:visible;display:inline;overflow:visible;enable-background:accumulate"/>
<path d="M 68.59,31.46 L 68.59,33.15 C 68.59,34.82 69.95,36.15 71.62,36.15 L 87.75,36.15 L 87.75,34.75 C 87.75,32.93 86.31,31.46 84.5,31.46 L 68.59,31.46 z M 70.62,58.09 C 68.95,58.09 67.59,59.42 67.59,61.09 L 67.59,63.93 L 84.5,63.93 C 86.31,63.93 87.75,62.46 87.75,60.65 L 87.75,58.93 C 87.21,58.41 86.47,58.09 85.65,58.09 L 70.62,58.09 z" id="r3529" style="opacity:1;fill:#26468a;fill-opacity:0.20;fill-rule:evenodd;stroke:none;marker:none;visibility:visible;display:inline;overflow:visible;enable-background:accumulate"/>
<rect width="52.91" height="33.54" ry="3.27" x="9.17" y="22.19" id="r3365" style="opacity:1;fill:#4a77d5;fill-opacity:1;fill-rule:evenodd;stroke:none;marker:none;visibility:visible;display:inline;overflow:visible;enable-background:accumulate"/>
<path d="M 9.53,23.73 L 7.09,31.67 L 7.09,66.32 C 7.09,66.32 65.29,66.32 69.20,66.32 C 73.12,66.32 74.09,61.21 74.09,58.69 C 74.09,56.17 74.09,35.29 74.09,32.36 C 74.09,31.00 70.81,29.07 67.73,26.98 C 64.31,24.65 61.01,22.51 59.67,22.40 C 56.98,22.18 10.27,23.95 9.53,23.73 z" id="p3369" style="fill:#244a9b;fill-opacity:1;fill-rule:evenodd;stroke:none;"/>
<rect width="52.91" height="30.81" ry="3.27" x="9.17" y="22.19" id="r3367" style="opacity:1;fill:#345eb6;fill-opacity:1;fill-rule:evenodd;stroke:none;marker:none;visibility:visible;display:inline;overflow:visible;enable-background:accumulate"/>
<path d="M 20.46,22.18 L 20.46,53 L 53.03,53 L 53.03,22.18 L 20.46,22.18 z" id="r3476" style="opacity:1;fill:#99ce56;fill-opacity:1;fill-rule:evenodd;stroke:none;marker:none;visibility:visible;display:inline;overflow:visible;enable-background:accumulate"/>
<g transform="matrix(1.20,0,0,1.20,-10.60,-16.33)" id="g3388">
<path d="M 25.06,67.5 C 20.09,67.5 16.06,70.18 16.06,73.5 C 16.06,73.84 16.07,74.59 16.09,75.34 C 21.27,75.34 25.27,75.34 34.06,75.34 C 34.07,74.6 34.06,73.83 34.06,73.5 C 34.06,70.18 30.03,67.5 25.06,67.5 z" id="p3390" style="opacity:1;fill:#1f1c18;fill-opacity:1;fill-rule:evenodd;stroke:none;marker:none;visibility:visible;display:inline;overflow:visible;enable-background:accumulate"/>
<path d="M 25.06,67.5 C 22.03,67.5 19.35,68.5 17.71,70.03 C 17.63,70.33 17.59,70.64 17.59,70.96 C 17.59,72.32 17.59,73.1 17.59,74.28 C 17.59,74.64 17.66,74.99 17.78,75.34 C 21.85,75.34 25.92,75.34 32.37,75.34 C 32.48,74.99 32.56,74.64 32.56,74.28 C 32.56,73.22 32.56,72.21 32.56,70.96 C 32.56,70.65 32.51,70.35 32.43,70.06 C 30.8,68.51 28.1,67.5 25.06,67.5 z" id="p3392" style="fill:#34291c;fill-opacity:1;fill-rule:evenodd;stroke:none;marker:none;visibility:visible;display:inline;overflow:visible;enable-background:accumulate"/>
<path d="M 25.06,69.28 C 20.92,69.28 17.59,71.52 17.59,74.28 C 17.59,77.03 20.92,79.28 25.06,79.28 C 29.19,79.28 32.56,77.03 32.56,74.28 C 32.56,71.52 29.19,69.28 25.06,69.28 z" id="p3394" style="fill:#45392a;fill-opacity:1;fill-rule:evenodd;stroke:none;marker:none;visibility:visible;display:inline;overflow:visible;enable-background:accumulate"/>
<path d="M 25.06,70.46 C 21.54,70.46 18.71,72.37 18.71,74.71 C 18.71,77.06 21.54,78.96 25.06,78.96 C 28.57,78.96 31.43,77.06 31.43,74.71 C 31.43,72.37 28.57,70.46 25.06,70.46 z" id="p3396" style="fill:#31281d;fill-opacity:1;fill-rule:evenodd;stroke:none;marker:none;visibility:visible;display:inline;overflow:visible;enable-background:accumulate"/>
<path d="M 25.06,72.34 C 23.1,72.34 21.53,73.41 21.53,74.71 C 21.53,76.02 23.1,77.09 25.06,77.09 C 27.02,77.09 28.62,76.02 28.62,74.71 C 28.62,73.41 27.02,72.34 25.06,72.34 z" id="p3398" style="fill:#baa58b;fill-opacity:1;fill-rule:evenodd;stroke:none;marker:none;visibility:visible;display:inline;overflow:visible;enable-background:accumulate"/>
<path d="M 25.06,72.34 C 23.48,72.34 22.18,73.05 21.71,74 C 22.19,74.93 23.5,75.59 25.06,75.59 C 26.62,75.59 27.96,74.93 28.43,74 C 27.97,73.05 26.63,72.34 25.06,72.34 z" id="p3400" style="fill:#aa9070;fill-opacity:1;fill-rule:evenodd;stroke:none;marker:none;visibility:visible;display:inline;overflow:visible;enable-background:accumulate"/>
<path d="M 25.06,72.65 C 24.44,72.65 23.96,72.99 23.96,73.4 C 23.96,73.81 24.44,74.15 25.06,74.15 C 25.67,74.15 26.18,73.81 26.18,73.4 C 26.18,72.99 25.67,72.65 25.06,72.65 z" id="p3402" style="fill:#362c20;fill-opacity:1;fill-rule:evenodd;stroke:none;marker:none;visibility:visible;display:inline;overflow:visible;enable-background:accumulate"/>
</g>
<path d="M 62.75,23.75 C 63.59,25.68 63.37,27.66 63.37,29.25 C 63.37,31.38 63.37,51.51 63.37,52.93 C 63.37,54.36 63.01,54.89 62.12,55.78 C 61.23,56.67 69.44,63.42 71.40,63.25 C 73.36,63.07 72.81,57.92 72.81,45.28 C 72.81,35.44 72.91,31.98 72.12,30 C 70.91,29.07 69.29,28.03 67.71,26.96 C 65.92,25.74 64.21,24.59 62.75,23.75 z" id="p3404" style="fill:#161f33;fill-opacity:1;fill-rule:evenodd;stroke:none;"/>
<path d="M 8.56,26.87 L 7.62,29.93 C 7.62,36.95 7.62,53.29 7.62,57.12 C 7.62,61.79 7.62,63.18 7.78,62.40 C 7.93,61.62 9.65,56.80 9.96,55.09 C 9.03,54.16 8.56,53.24 8.56,51.84 C 8.56,50.59 8.56,34.57 8.56,26.87 z" id="p3411" style="opacity:1;fill:#161f33;fill-opacity:1;fill-rule:evenodd;stroke:none;marker:none;visibility:visible;display:inline;overflow:visible;enable-background:accumulate"/>
<path d="M 34.28,55.53 C 25.17,55.53 20.80,55.55 15.75,55.56 L 15.75,63.84 C 20.22,63.84 25.30,63.84 34.28,63.84 L 34.28,55.53 z M 35.71,55.53 L 35.71,63.84 C 45.08,63.84 49.85,63.84 55,63.84 L 55,55.53 C 52.99,55.53 45.09,55.52 35.71,55.53 z M 56.31,55.53 L 56.31,63.84 C 57.93,63.84 62.92,63.84 63.18,63.84 C 65.32,63.84 66.56,62.60 65.68,61.71 C 64.80,60.83 61.91,58.32 60.90,57.18 C 59.89,56.05 59.51,55.40 57.87,55.53 C 57.87,55.53 56.40,55.53 56.31,55.53 z M 11.84,55.56 C 10.97,56.04 10.43,57.41 9.90,59.18 C 9.39,60.90 8.80,63.04 9.31,63.84 C 9.61,63.84 12.76,63.84 14.31,63.84 C 14.28,63.71 14.28,63.57 14.28,63.43 L 14.28,55.59 C 14.28,55.58 14.28,55.57 14.28,55.56 C 14.27,55.56 14.26,55.56 14.25,55.56 C 13.69,55.56 12.22,55.56 11.84,55.56 z" id="p3416" style="opacity:1;fill:#161f33;fill-opacity:1;fill-rule:evenodd;stroke:none;marker:none;visibility:visible;display:inline;overflow:visible;enable-background:accumulate"/>
<path d="M 62.75,23.75 C 63.59,25.68 63.37,27.66 63.37,29.25 C 63.37,31.38 63.37,51.51 63.37,52.93 C 63.37,54.36 63.01,54.89 62.12,55.78 C 61.60,56.29 64.14,58.75 66.75,60.71 C 67.73,55.10 68.34,47.86 68.34,39.90 C 68.34,35.31 68.13,30.95 67.78,27 C 67.76,26.98 67.73,26.98 67.71,26.96 C 65.92,25.74 64.21,24.59 62.75,23.75 z" id="p3439" style="opacity:1;fill:#9ae4f5;fill-opacity:0.04;fill-rule:evenodd;stroke:none;marker:none;visibility:visible;display:inline;overflow:visible;enable-background:accumulate"/>
<path d="M 62.75,23.75 C 63.34,25.11 63.41,26.49 63.40,27.75 L 72.71,34.03 C 72.63,32.11 72.47,30.88 72.12,30 C 70.91,29.07 69.29,28.03 67.71,26.96 C 65.92,25.74 64.21,24.59 62.75,23.75 z M 63.37,52.28 C 63.37,52.34 63.37,52.89 63.37,52.93 C 63.37,54.36 63.01,54.89 62.12,55.78 C 61.23,56.67 69.44,63.42 71.40,63.25 C 72.34,63.16 72.69,61.88 72.81,59.21 L 63.37,52.28 z" id="p3444" style="fill:#9ae4f5;fill-opacity:0.07;fill-rule:evenodd;stroke:none;"/>
<path d="M 12.43,22.18 C 11.10,22.18 9.97,22.98 9.46,24.12 L 61.78,24.12 C 61.27,22.98 60.14,22.18 58.81,22.18 L 12.43,22.18 z M 9.15,49.18 L 9.15,49.75 C 9.15,51.56 10.62,52.99 12.43,53 L 58.81,53 C 60.62,53 62.09,51.56 62.09,49.75 L 62.09,49.18 L 9.15,49.18 z" id="r3449" style="opacity:1;fill:#051542;fill-opacity:0.13;fill-rule:evenodd;stroke:none;marker:none;visibility:visible;display:inline;overflow:visible;enable-background:accumulate"/>
<path d="M 9.53,23.71 L 7.09,31.68 L 7.09,64.03 C 7.13,64.04 7.62,64.19 8.15,63.84 C 8.34,62.54 10.20,56.40 12.06,53.06 C 11.13,53.06 10.96,51.39 10.96,50.28 C 10.96,49.36 10.96,31.24 10.96,23.71 C 10.36,23.72 9.58,23.73 9.53,23.71 z" id="p3457" style="fill:#d2ddfc;fill-opacity:0.09;fill-rule:evenodd;stroke:none;"/>
<path d="M 34.28,55.53 C 25.17,55.53 20.80,55.55 15.75,55.56 L 15.75,59.59 C 21.51,59.97 27.75,60.22 34.28,60.28 L 34.28,55.53 z M 35.71,55.53 L 35.71,60.28 C 36.24,60.28 36.75,60.31 37.28,60.31 C 43.46,60.31 49.42,60.13 55,59.84 L 55,55.53 C 52.99,55.53 45.09,55.52 35.71,55.53 z M 56.31,55.53 L 56.31,59.75 C 58.63,59.61 60.88,59.49 63.06,59.31 C 62.19,58.51 61.36,57.69 60.90,57.18 C 59.89,56.05 59.51,55.40 57.87,55.53 C 57.87,55.53 56.40,55.53 56.31,55.53 z M 11.84,55.56 C 10.97,56.04 10.43,57.41 9.90,59.18 C 11.32,59.31 12.79,59.39 14.28,59.5 L 14.28,55.59 C 14.28,55.58 14.28,55.57 14.28,55.56 C 14.27,55.56 14.26,55.56 14.25,55.56 C 13.69,55.56 12.22,55.56 11.84,55.56 z" id="p3463" style="opacity:1;fill:#d2ddfc;fill-opacity:0.09;fill-rule:evenodd;stroke:none;marker:none;visibility:visible;display:inline;overflow:visible;enable-background:accumulate"/>
<text x="27.98" y="116.43" transform="scale(1.61,0.61)" id="text3468" xml:space="preserve" style="font-size:14.27px;font-style:normal;font-variant:normal;font-weight:normal;font-stretch:normal;text-align:center;line-height:80.00%;writing-mode:lr-tb;text-anchor:middle;fill:#86b654;fill-opacity:1;stroke:none;font-family:Arial Black;-inkscape-font-specification:Arial Black">
<tspan x="27.98" y="116.43" id="tspan3470">
2</tspan>
</text>
<path d="M -32.02,42.98 L -49.55,42.98 C -49.35,41.25 -48.74,39.62 -47.73,38.10 C -46.71,36.57 -44.79,34.77 -41.99,32.69 C -40.28,31.42 -39.19,30.45 -38.71,29.79 C -38.23,29.13 -37.99,28.51 -37.99,27.92 C -37.99,27.28 -38.23,26.73 -38.71,26.28 C -39.18,25.82 -39.77,25.59 -40.49,25.59 C -41.23,25.59 -41.84,25.83 -42.32,26.29 C -42.79,26.76 -43.11,27.59 -43.27,28.78 L -49.12,28.30 C -48.89,26.66 -48.47,25.38 -47.86,24.46 C -47.25,23.53 -46.39,22.82 -45.28,22.34 C -44.16,21.84 -42.61,21.59 -40.64,21.59 C -38.59,21.59 -36.99,21.82 -35.85,22.29 C -34.71,22.76 -33.81,23.48 -33.16,24.46 C -32.50,25.42 -32.17,26.51 -32.17,27.71 C -32.17,29.00 -32.54,30.22 -33.30,31.39 C -34.05,32.55 -35.41,33.83 -37.39,35.23 C -38.56,36.04 -39.35,36.61 -39.75,36.94 C -40.15,37.26 -40.61,37.69 -41.15,38.21 L -32.02,38.21 L -32.02,42.98" transform="matrix(0,-0.89,1.11,0,0,0)" id="text3472" style="font-size:29.37px;font-style:normal;font-variant:normal;font-weight:normal;font-stretch:normal;text-align:center;line-height:80.00%;writing-mode:lr-tb;text-anchor:middle;fill:#bcdf90;fill-opacity:1;stroke:none;font-family:Arial Black;-inkscape-font-specification:Arial Black"/>
<path d="M 4.03,62.5 L 4.03,69.18 C 4.03,70.99 5.50,72.46 7.31,72.46 L 7.34,72.46 L 7.34,65.75 L 7.31,65.75 C 5.50,65.75 4.03,64.31 4.03,62.5 z" id="r3486" style="opacity:1;fill:#b68234;fill-opacity:1;fill-rule:evenodd;stroke:none;marker:none;visibility:visible;display:inline;overflow:visible;enable-background:accumulate"/>
<path d="M 4.03,62.5 L 4.03,66.15 C 4.03,67.96 5.50,69.43 7.31,69.43 L 7.34,69.43 L 7.34,65.75 L 7.31,65.75 C 5.50,65.75 4.03,64.31 4.03,62.5 z" id="p3494" style="opacity:1;fill:#b63434;fill-opacity:1;fill-rule:evenodd;stroke:none;marker:none;visibility:visible;display:inline;overflow:visible;enable-background:accumulate"/>
<path d="M 83.76,69.10 C 83.76,69.10 87.96,69.10 89.41,69.10 C 90.85,69.10 90.48,66.21 90.48,65.09 C 90.48,63.98 90.48,40.48 90.48,39.56 C 90.48,38.64 89.14,35.88 89.14,35.88 C 89.14,35.88 89.80,35.88 90.98,35.88 C 92.16,35.88 92.27,36.92 92.27,38.11 C 92.27,39.29 92.27,68.84 92.27,71.33 C 92.27,73.82 90.19,74.61 88.35,74.61 C 86.52,74.61 83.23,74.61 83.23,74.61 L 83.76,69.10 z" id="p3499" style="fill:#32250e;fill-opacity:1;fill-rule:evenodd;stroke:none;"/>
<path d="M 89.15,35.87 C 89.15,35.87 90.46,38.64 90.46,39.56 C 90.46,40.48 90.46,63.97 90.46,65.09 C 90.46,66.21 90.85,69.09 89.40,69.09 C 87.96,69.09 83.74,69.09 83.75,69.09 L 83.65,70.03 C 84.95,70.03 88.28,70.03 89.93,70.03 C 91.36,70.03 92.02,69.84 92.28,67.81 C 92.28,61.00 92.28,39.18 92.28,38.12 C 92.28,36.93 92.18,35.87 91,35.87 C 89.81,35.87 89.15,35.87 89.15,35.87 z" id="p3501" style="fill:#382e1a;fill-opacity:1;fill-rule:evenodd;stroke:none;"/>
<g transform="matrix(1.20,0,0,1.20,43.86,-16.33)" id="use3556">
<path d="M 25.06,67.5 C 20.09,67.5 16.06,70.18 16.06,73.5 C 16.06,73.84 16.07,74.59 16.09,75.34 C 21.27,75.34 25.27,75.34 34.06,75.34 C 34.07,74.6 34.06,73.83 34.06,73.5 C 34.06,70.18 30.03,67.5 25.06,67.5 z" id="p3374" style="opacity:1;fill:#1f1c18;fill-opacity:1;fill-rule:evenodd;stroke:none;marker:none;visibility:visible;display:inline;overflow:visible;enable-background:accumulate"/>
<path d="M 25.06,67.5 C 22.03,67.5 19.35,68.5 17.71,70.03 C 17.63,70.33 17.59,70.64 17.59,70.96 C 17.59,72.32 17.59,73.1 17.59,74.28 C 17.59,74.64 17.66,74.99 17.78,75.34 C 21.85,75.34 25.92,75.34 32.37,75.34 C 32.48,74.99 32.56,74.64 32.56,74.28 C 32.56,73.22 32.56,72.21 32.56,70.96 C 32.56,70.65 32.51,70.35 32.43,70.06 C 30.8,68.51 28.1,67.5 25.06,67.5 z" id="p3376" style="fill:#34291c;fill-opacity:1;fill-rule:evenodd;stroke:none;marker:none;visibility:visible;display:inline;overflow:visible;enable-background:accumulate"/>
<path d="M 25.06,69.28 C 20.92,69.28 17.59,71.52 17.59,74.28 C 17.59,77.03 20.92,79.28 25.06,79.28 C 29.19,79.28 32.56,77.03 32.56,74.28 C 32.56,71.52 29.19,69.28 25.06,69.28 z" id="p3378" style="fill:#45392a;fill-opacity:1;fill-rule:evenodd;stroke:none;marker:none;visibility:visible;display:inline;overflow:visible;enable-background:accumulate"/>
<path d="M 25.06,70.46 C 21.54,70.46 18.71,72.37 18.71,74.71 C 18.71,77.06 21.54,78.96 25.06,78.96 C 28.57,78.96 31.43,77.06 31.43,74.71 C 31.43,72.37 28.57,70.46 25.06,70.46 z" id="p3380" style="fill:#31281d;fill-opacity:1;fill-rule:evenodd;stroke:none;marker:none;visibility:visible;display:inline;overflow:visible;enable-background:accumulate"/>
<path d="M 25.06,72.34 C 23.1,72.34 21.53,73.41 21.53,74.71 C 21.53,76.02 23.1,77.09 25.06,77.09 C 27.02,77.09 28.62,76.02 28.62,74.71 C 28.62,73.41 27.02,72.34 25.06,72.34 z" id="p3382" style="fill:#baa58b;fill-opacity:1;fill-rule:evenodd;stroke:none;marker:none;visibility:visible;display:inline;overflow:visible;enable-background:accumulate"/>
<path d="M 25.06,72.34 C 23.48,72.34 22.18,73.05 21.71,74 C 22.19,74.93 23.5,75.59 25.06,75.59 C 26.62,75.59 27.96,74.93 28.43,74 C 27.97,73.05 26.63,72.34 25.06,72.34 z" id="p3384" style="fill:#aa9070;fill-opacity:1;fill-rule:evenodd;stroke:none;marker:none;visibility:visible;display:inline;overflow:visible;enable-background:accumulate"/>
<path d="M 25.06,72.65 C 24.44,72.65 23.96,72.99 23.96,73.4 C 23.96,73.81 24.44,74.15 25.06,74.15 C 25.67,74.15 26.18,73.81 26.18,73.4 C 26.18,72.99 25.67,72.65 25.06,72.65 z" id="p3386" style="fill:#362c20;fill-opacity:1;fill-rule:evenodd;stroke:none;marker:none;visibility:visible;display:inline;overflow:visible;enable-background:accumulate"/>
</g>
<path d="M 88.12,34.28 C 88.49,36.19 88.5,38.40 88.5,39.81 C 88.50,41.51 89.54,43.89 89.81,44.81 C 89.71,43.31 89.75,39.56 89.78,37.06 C 89.26,36.09 88.69,35.17 88.12,34.28 z" id="p3506" style="fill:#adbdc6;fill-opacity:1;fill-rule:evenodd;stroke:none;"/>
<path d="M 88.43,55.12 C 88.39,59.07 88.32,61.32 88.32,62.58 C 88.30,63.64 89.61,67.03 89.78,66.40 C 89.77,65.93 89.78,60.87 89.78,59.78 L 88.43,55.12 z" id="p3511" style="fill:#adbdc6;fill-opacity:1;fill-rule:evenodd;stroke:none;"/>
<path d="M 89.37,61.65 C 89.22,61.65 89.08,61.68 88.93,61.71 C 88.69,61.77 88.50,61.88 88.31,62.03 C 88.31,62.13 88.31,62.49 88.31,62.59 C 88.29,63.64 89.61,67.03 89.78,66.40 C 89.77,66.07 89.78,63.64 89.78,61.75 C 89.64,61.71 89.51,61.66 89.37,61.65 z" id="p3516" style="opacity:1;fill:#b68234;fill-opacity:1;fill-rule:evenodd;stroke:none;marker:none;visibility:visible;display:inline;overflow:visible;enable-background:accumulate"/>
<path d="M 88.18,34.34 C 88.17,34.36 88.16,34.38 88.15,34.40 C 88.36,35.56 88.40,36.75 88.43,37.87 C 88.79,38.38 89.28,38.72 89.78,38.87 C 89.78,38.26 89.77,37.59 89.78,37.06 C 89.27,36.12 88.73,35.21 88.18,34.34 z" id="p3518" style="opacity:1;fill:#b68234;fill-opacity:1;fill-rule:evenodd;stroke:none;marker:none;visibility:visible;display:inline;overflow:visible;enable-background:accumulate"/>
<path d="M 12.43,22.18 C 11.26,22.18 10.23,22.79 9.65,23.71 C 9.64,23.71 9.53,23.72 9.53,23.71 L 9.40,24.18 L 7.15,31.5 C 5.39,31.72 4.03,33.09 4.03,34.75 L 4.03,42.93 L 4.03,61.75 L 4.03,71.21 C 4.03,73.11 5.71,74.65 7.81,74.65 L 10.84,74.65 C 11.71,77.37 15.31,79.43 19.65,79.43 C 23.98,79.43 27.61,77.36 28.5,74.65 L 65.31,74.65 C 66.18,77.37 69.78,79.43 74.12,79.43 C 78.45,79.43 82.08,77.36 82.96,74.65 L 87.84,74.65 C 87.97,74.65 88.09,74.63 88.21,74.62 C 88.27,74.62 88.32,74.63 88.37,74.62 C 90.21,74.62 92.28,73.83 92.28,71.34 C 92.28,68.84 92.28,39.31 92.28,38.12 C 92.28,36.93 92.18,35.87 91,35.87 C 89.81,35.87 89.15,35.87 89.15,35.87 C 89.15,35.87 89.25,36.13 89.28,36.18 C 88.71,35.20 88.10,34.23 87.53,33.34 C 87.05,32.73 86.13,31.46 84.12,31.46 L 73.68,31.46 C 73.34,31.01 72.81,30.52 72.12,30 C 69.15,27.83 66.06,25.81 62.93,23.87 C 62.12,23.30 61.18,22.95 60.28,22.56 C 59.85,22.24 59.30,22.28 58.81,22.18 L 12.43,22.18 z" id="p3537" style="opacity:1;fill:none;fill-opacity:1;fill-rule:evenodd;stroke:#212b38;stroke-width:1;stroke-linecap:round;stroke-linejoin:round;marker:none;stroke-miterlimit:4;stroke-dasharray:none;stroke-dashoffset:0;stroke-opacity:1;visibility:visible;display:inline;overflow:visible;enable-background:accumulate"/>
<path d="M 87.75,34.75 C 87.75,34.60 87.73,34.45 87.71,34.31 L 78.28,34.31 C 76.94,34.31 75.87,35.37 75.87,36.71 L 75.87,58.40 C 75.87,59.74 76.94,60.81 78.28,60.81 L 87.75,60.81 C 87.75,60.75 87.75,60.70 87.75,60.65" id="r3579" style="opacity:1;fill:none;fill-opacity:1;fill-rule:evenodd;stroke:#212b38;stroke-width:0.69;stroke-linecap:round;stroke-linejoin:round;marker:none;stroke-miterlimit:4;stroke-dasharray:none;stroke-dashoffset:0;stroke-opacity:1;visibility:visible;display:inline;overflow:visible;enable-background:accumulate"/>
</svg>
