<?xml version="1.0" encoding="UTF-8" standalone="no"?>

<svg xmlns:svg="http://www.w3.org/2000/svg" xmlns="http://www.w3.org/2000/svg" xmlns:xlink="http://www.w3.org/1999/xlink" width="100%" height="100%" viewBox="0 0 144 80" id="svg2383" version="1.0" style="display:inline">
<defs id="defs2385"/>
<g id="layer17" style="display:inline">
<rect width="139.79" height="38.22" ry="2.34" x="-141.04" y="41.68" transform="scale(-1,1)" id="r3218" style="fill:#090805;fill-opacity:0.44;fill-rule:evenodd;stroke:none;marker:none;visibility:visible;display:inline;overflow:visible;enable-background:accumulate"/>
<rect width="5.15" height="14.78" ry="1.45" x="131.31" y="55.57" id="r4141" style="opacity:1;fill:#2e2e2e;fill-opacity:1;fill-rule:evenodd;stroke:#222222;stroke-width:0.60;stroke-linecap:butt;stroke-linejoin:miter;marker:none;stroke-miterlimit:4;stroke-dasharray:none;stroke-dashoffset:0;stroke-opacity:1;visibility:visible;display:inline;overflow:visible;enable-background:accumulate"/>
<g transform="matrix(-1,0,0,1,194.90,0)" id="use3224">
<path d="M 122.46,62.15 C 117.50,62.15 113.46,64.84 113.46,68.15 C 113.46,69.85 113.46,71.28 113.46,73.5 C 113.46,76.81 117.50,79.5 122.46,79.5 C 127.43,79.5 131.46,76.81 131.46,73.5 C 131.46,71.96 131.46,70.47 131.46,68.15 C 131.46,64.84 127.43,62.15 122.46,62.15 z" id="p4416" style="fill:#1d2231;fill-opacity:1;fill-rule:evenodd;stroke:none;marker:none;visibility:visible;display:inline;overflow:visible;enable-background:accumulate"/>
<path d="M 25,71.5 A 9,6 0 1 1 7,71.5 A 9,6 0 1 1 25,71.5 z" transform="translate(106.46,2)" id="p4418" style="fill:#262d41;fill-opacity:1;fill-rule:evenodd;stroke:none;marker:none;visibility:visible;display:inline;overflow:visible;enable-background:accumulate"/>
<path d="M 25,71.5 A 9,6 0 1 1 7,71.5 A 9,6 0 1 1 25,71.5 z" transform="matrix(0.76,0,0,0.76,110.17,19.65)" id="p4420" style="fill:#171b27;fill-opacity:1;fill-rule:evenodd;stroke:none;marker:none;visibility:visible;display:inline;overflow:visible;enable-background:accumulate"/>
<path d="M 25,71.5 A 9,6 0 1 1 7,71.5 A 9,6 0 1 1 25,71.5 z" transform="matrix(0.40,0,0,0.40,116.01,45.78)" id="p4422" style="fill:#313645;fill-opacity:1;fill-rule:evenodd;stroke:none;marker:none;visibility:visible;display:inline;overflow:visible;enable-background:accumulate"/>
<path d="M 122.46,72.18 C 120.96,72.18 119.67,72.78 119.12,73.65 C 119.67,74.52 120.96,75.15 122.46,75.15 C 123.97,75.15 125.26,74.52 125.81,73.65 C 125.26,72.78 123.97,72.18 122.46,72.18 z" id="p4424" style="fill:#423d2f;fill-opacity:1;fill-rule:evenodd;stroke:none;marker:none;visibility:visible;display:inline;overflow:visible;enable-background:accumulate"/>
<path d="M 122.46,62.15 C 117.50,62.15 113.46,64.84 113.46,68.15 C 113.46,69.85 113.46,71.28 113.46,73.5 C 113.46,76.81 117.50,79.5 122.46,79.5 C 127.43,79.5 131.46,76.81 131.46,73.5 C 131.46,71.96 131.46,70.47 131.46,68.15 C 131.46,64.84 127.43,62.15 122.46,62.15 z" id="p4426" style="fill:none;fill-opacity:1;fill-rule:evenodd;stroke:#1f1f26;stroke-width:0.69;stroke-linecap:round;stroke-linejoin:round;marker:none;stroke-miterlimit:4;stroke-dasharray:none;stroke-dashoffset:0;stroke-opacity:1;visibility:visible;display:inline;overflow:visible;enable-background:accumulate"/>
</g>
<g transform="matrix(-1,0,0,1,216.60,0)" id="use3226">
<path d="M 122.46,62.15 C 117.50,62.15 113.46,64.84 113.46,68.15 C 113.46,69.85 113.46,71.28 113.46,73.5 C 113.46,76.81 117.50,79.5 122.46,79.5 C 127.43,79.5 131.46,76.81 131.46,73.5 C 131.46,71.96 131.46,70.47 131.46,68.15 C 131.46,64.84 127.43,62.15 122.46,62.15 z" id="p4430" style="fill:#1d2231;fill-opacity:1;fill-rule:evenodd;stroke:none;marker:none;visibility:visible;display:inline;overflow:visible;enable-background:accumulate"/>
<path d="M 25,71.5 A 9,6 0 1 1 7,71.5 A 9,6 0 1 1 25,71.5 z" transform="translate(106.46,2)" id="p4432" style="fill:#262d41;fill-opacity:1;fill-rule:evenodd;stroke:none;marker:none;visibility:visible;display:inline;overflow:visible;enable-background:accumulate"/>
<path d="M 25,71.5 A 9,6 0 1 1 7,71.5 A 9,6 0 1 1 25,71.5 z" transform="matrix(0.76,0,0,0.76,110.17,19.65)" id="p4434" style="fill:#171b27;fill-opacity:1;fill-rule:evenodd;stroke:none;marker:none;visibility:visible;display:inline;overflow:visible;enable-background:accumulate"/>
<path d="M 25,71.5 A 9,6 0 1 1 7,71.5 A 9,6 0 1 1 25,71.5 z" transform="matrix(0.40,0,0,0.40,116.01,45.78)" id="p4436" style="fill:#313645;fill-opacity:1;fill-rule:evenodd;stroke:none;marker:none;visibility:visible;display:inline;overflow:visible;enable-background:accumulate"/>
<path d="M 122.46,72.18 C 120.96,72.18 119.67,72.78 119.12,73.65 C 119.67,74.52 120.96,75.15 122.46,75.15 C 123.97,75.15 125.26,74.52 125.81,73.65 C 125.26,72.78 123.97,72.18 122.46,72.18 z" id="p4438" style="fill:#423d2f;fill-opacity:1;fill-rule:evenodd;stroke:none;marker:none;visibility:visible;display:inline;overflow:visible;enable-background:accumulate"/>
<path d="M 122.46,62.15 C 117.50,62.15 113.46,64.84 113.46,68.15 C 113.46,69.85 113.46,71.28 113.46,73.5 C 113.46,76.81 117.50,79.5 122.46,79.5 C 127.43,79.5 131.46,76.81 131.46,73.5 C 131.46,71.96 131.46,70.47 131.46,68.15 C 131.46,64.84 127.43,62.15 122.46,62.15 z" id="p4440" style="fill:none;fill-opacity:1;fill-rule:evenodd;stroke:#1f1f26;stroke-width:0.69;stroke-linecap:round;stroke-linejoin:round;marker:none;stroke-miterlimit:4;stroke-dasharray:none;stroke-dashoffset:0;stroke-opacity:1;visibility:visible;display:inline;overflow:visible;enable-background:accumulate"/>
</g>
<g transform="matrix(-1,0,0,1,237.70,0)" id="use3228">
<path d="M 122.46,62.15 C 117.50,62.15 113.46,64.84 113.46,68.15 C 113.46,69.85 113.46,71.28 113.46,73.5 C 113.46,76.81 117.50,79.5 122.46,79.5 C 127.43,79.5 131.46,76.81 131.46,73.5 C 131.46,71.96 131.46,70.47 131.46,68.15 C 131.46,64.84 127.43,62.15 122.46,62.15 z" id="p4444" style="fill:#1d2231;fill-opacity:1;fill-rule:evenodd;stroke:none;marker:none;visibility:visible;display:inline;overflow:visible;enable-background:accumulate"/>
<path d="M 25,71.5 A 9,6 0 1 1 7,71.5 A 9,6 0 1 1 25,71.5 z" transform="translate(106.46,2)" id="p4446" style="fill:#262d41;fill-opacity:1;fill-rule:evenodd;stroke:none;marker:none;visibility:visible;display:inline;overflow:visible;enable-background:accumulate"/>
<path d="M 25,71.5 A 9,6 0 1 1 7,71.5 A 9,6 0 1 1 25,71.5 z" transform="matrix(0.76,0,0,0.76,110.17,19.65)" id="p4448" style="fill:#171b27;fill-opacity:1;fill-rule:evenodd;stroke:none;marker:none;visibility:visible;display:inline;overflow:visible;enable-background:accumulate"/>
<path d="M 25,71.5 A 9,6 0 1 1 7,71.5 A 9,6 0 1 1 25,71.5 z" transform="matrix(0.40,0,0,0.40,116.01,45.78)" id="p4450" style="fill:#313645;fill-opacity:1;fill-rule:evenodd;stroke:none;marker:none;visibility:visible;display:inline;overflow:visible;enable-background:accumulate"/>
<path d="M 122.46,72.18 C 120.96,72.18 119.67,72.78 119.12,73.65 C 119.67,74.52 120.96,75.15 122.46,75.15 C 123.97,75.15 125.26,74.52 125.81,73.65 C 125.26,72.78 123.97,72.18 122.46,72.18 z" id="p4452" style="fill:#423d2f;fill-opacity:1;fill-rule:evenodd;stroke:none;marker:none;visibility:visible;display:inline;overflow:visible;enable-background:accumulate"/>
<path d="M 122.46,62.15 C 117.50,62.15 113.46,64.84 113.46,68.15 C 113.46,69.85 113.46,71.28 113.46,73.5 C 113.46,76.81 117.50,79.5 122.46,79.5 C 127.43,79.5 131.46,76.81 131.46,73.5 C 131.46,71.96 131.46,70.47 131.46,68.15 C 131.46,64.84 127.43,62.15 122.46,62.15 z" id="p4454" style="fill:none;fill-opacity:1;fill-rule:evenodd;stroke:#1f1f26;stroke-width:0.69;stroke-linecap:round;stroke-linejoin:round;marker:none;stroke-miterlimit:4;stroke-dasharray:none;stroke-dashoffset:0;stroke-opacity:1;visibility:visible;display:inline;overflow:visible;enable-background:accumulate"/>
</g>
<g transform="matrix(-1,0,0,1,142.91,0)" id="g3230" style="display:inline">
<path d="M 122.46,62.15 C 117.50,62.15 113.46,64.84 113.46,68.15 C 113.46,69.85 113.46,71.28 113.46,73.5 C 113.46,76.81 117.50,79.5 122.46,79.5 C 127.43,79.5 131.46,76.81 131.46,73.5 C 131.46,71.96 131.46,70.47 131.46,68.15 C 131.46,64.84 127.43,62.15 122.46,62.15 z" id="p3232" style="fill:#1d2231;fill-opacity:1;fill-rule:evenodd;stroke:none;marker:none;visibility:visible;display:inline;overflow:visible;enable-background:accumulate"/>
<path d="M 25,71.5 A 9,6 0 1 1 7,71.5 A 9,6 0 1 1 25,71.5 z" transform="translate(106.46,2)" id="p3234" style="fill:#262d41;fill-opacity:1;fill-rule:evenodd;stroke:none;marker:none;visibility:visible;display:inline;overflow:visible;enable-background:accumulate"/>
<path d="M 25,71.5 A 9,6 0 1 1 7,71.5 A 9,6 0 1 1 25,71.5 z" transform="matrix(0.76,0,0,0.76,110.17,19.65)" id="p3237" style="fill:#171b27;fill-opacity:1;fill-rule:evenodd;stroke:none;marker:none;visibility:visible;display:inline;overflow:visible;enable-background:accumulate"/>
<path d="M 25,71.5 A 9,6 0 1 1 7,71.5 A 9,6 0 1 1 25,71.5 z" transform="matrix(0.40,0,0,0.40,116.01,45.78)" id="p3239" style="fill:#313645;fill-opacity:1;fill-rule:evenodd;stroke:none;marker:none;visibility:visible;display:inline;overflow:visible;enable-background:accumulate"/>
<path d="M 122.46,72.18 C 120.96,72.18 119.67,72.78 119.12,73.65 C 119.67,74.52 120.96,75.15 122.46,75.15 C 123.97,75.15 125.26,74.52 125.81,73.65 C 125.26,72.78 123.97,72.18 122.46,72.18 z" id="p3243" style="fill:#423d2f;fill-opacity:1;fill-rule:evenodd;stroke:none;marker:none;visibility:visible;display:inline;overflow:visible;enable-background:accumulate"/>
<path d="M 122.46,62.15 C 117.50,62.15 113.46,64.84 113.46,68.15 C 113.46,69.85 113.46,71.28 113.46,73.5 C 113.46,76.81 117.50,79.5 122.46,79.5 C 127.43,79.5 131.46,76.81 131.46,73.5 C 131.46,71.96 131.46,70.47 131.46,68.15 C 131.46,64.84 127.43,62.15 122.46,62.15 z" id="p3245" style="fill:none;fill-opacity:1;fill-rule:evenodd;stroke:#1f1f26;stroke-width:0.69;stroke-linecap:round;stroke-linejoin:round;marker:none;stroke-miterlimit:4;stroke-dasharray:none;stroke-dashoffset:0;stroke-opacity:1;visibility:visible;display:inline;overflow:visible;enable-background:accumulate"/>
</g>
<rect width="19.39" height="25.37" ry="2.06" x="-42.63" y="38.11" transform="scale(-1,1)" id="r3248" style="fill:#484848;fill-opacity:1;fill-rule:evenodd;stroke:none;marker:none;visibility:visible;display:inline;overflow:visible;enable-background:accumulate"/>
<path d="M 40.56,59.77 C 41.63,59.77 42.48,60.58 42.59,61.61 C 42.50,62.66 41.64,63.49 40.56,63.49 L 25.28,63.49 C 24.21,63.49 23.35,62.66 23.25,61.61 C 23.36,60.58 24.22,59.77 25.28,59.77 L 40.56,59.77 z" id="p3250" style="fill:#252525;fill-opacity:1;fill-rule:evenodd;stroke:none;marker:none;visibility:visible;display:inline;overflow:visible;enable-background:accumulate"/>
<path d="M 28.75,15.65 C 32.33,15.65 32.34,18.95 32.34,21.25 C 32.34,23.29 32.34,59.11 32.34,67.53 C 30.00,67.53 27.70,67.5 25.22,67.5 C 24.38,67.5 23.56,67.57 22.78,67.71 C 22.04,67.58 21.25,67.5 20.44,67.5 C 15.53,67.5 11.54,70.11 11.44,73.37 L 9.84,73.37 C 6.78,73.37 2.97,72.83 2.97,68.75 C 2.97,64.66 2.97,32.24 2.97,25.09 C 2.97,17.94 8.84,15.65 13.44,15.65 C 18.03,15.65 25.18,15.65 28.75,15.65 z" id="p3271" style="fill:#3ed00c;fill-opacity:1;fill-rule:evenodd;stroke:none;marker:none;visibility:visible;display:inline;overflow:visible;enable-background:accumulate"/>
<path d="M 7.53,17.06 C 4.96,18.43 2.96,20.94 2.96,25.09 C 2.96,29.68 2.96,41.88 2.96,53.12 L 6.65,53.12 C 7.13,53.12 7.53,52.72 7.53,52.25 L 7.53,17.06 z" id="p3274" style="opacity:1;fill:#41455f;fill-opacity:1;fill-rule:evenodd;stroke:none;marker:none;visibility:visible;display:inline;overflow:visible;enable-background:accumulate"/>
<path d="M 10.15,16.06 C 8.26,16.53 6.40,17.44 5.06,18.96 L 5.06,47 C 6.40,45.47 8.26,44.56 10.15,44.09 L 10.15,16.06 z" id="p3276" style="opacity:1;fill:#253c22;fill-opacity:1;fill-rule:evenodd;stroke:none;marker:none;visibility:visible;display:inline;overflow:visible;enable-background:accumulate"/>
<path d="M 28.75,43.70 C 31.88,43.70 32.29,46.24 32.34,48.42 C 32.35,48.73 32.34,49.03 32.34,49.32 C 32.34,54.29 32.34,63.68 32.34,65.92 L 9.84,67.48 C 6.78,67.48 2.97,66.94 2.97,62.85 C 2.97,61.94 2.97,56.26 2.97,53.13 C 2.97,45.98 8.84,43.70 13.44,43.70 C 18.03,43.70 25.18,43.70 28.75,43.70 z" id="p3278" style="fill:#399111;fill-opacity:1;fill-rule:evenodd;stroke:none;display:inline"/>
<path d="M 9.06,46.84 C 8.58,46.84 8.21,47.24 8.21,47.71 L 8.21,55.12 C 8.21,55.59 8.58,55.96 9.06,55.96 L 23,55.96 C 23.47,55.96 23.84,55.59 23.84,55.12 L 23.84,47.71 C 23.84,47.24 23.47,46.84 23,46.84 L 9.06,46.84 z M 5.15,46.90 C 3.83,48.36 2.96,50.38 2.96,53.12 C 2.96,53.77 2.96,54.34 2.96,55.15 C 3.18,56.17 3.81,55.96 3.81,55.96 C 3.81,55.96 5.02,56.00 5.65,56 C 6.28,56 6.84,55.91 6.84,55.31 C 6.84,54.70 6.84,49.70 6.84,48.5 C 6.84,47.29 6.50,46.90 5.93,46.90 C 5.44,46.90 5.23,46.90 5.15,46.90 z" id="p3282" style="opacity:1;fill:#25353c;fill-opacity:1;fill-rule:evenodd;stroke:none;marker:none;visibility:visible;display:inline;overflow:visible;enable-background:accumulate"/>
<path d="M 2.96,64.37 C 2.96,66.05 2.96,68.34 2.96,68.75 C 2.96,72.83 6.77,73.37 9.84,73.37 L 11.25,73.37 C 11.24,73.27 11.25,73.19 11.25,73.09 C 11.25,69.93 15.35,67.34 20.43,67.34 C 25.51,67.34 29.65,69.93 29.65,73.09 C 29.65,73.34 29.61,73.57 29.56,73.81 C 30.49,73.82 31.47,73.87 32.34,73.87 C 32.34,73.41 32.34,65.67 32.34,65 C 25.28,65 6.98,64.99 4.71,65 C 3.91,65 3.34,64.75 2.96,64.37 z" id="p3284" style="fill:#14110c;fill-opacity:1;fill-rule:evenodd;stroke:none;display:inline"/>
<path d="M 122.91,52.65 L 122.91,67.06 L 127.10,71.25 L 129.51,71.96 L 129.51,52.68 L 122.91,52.65 z" id="p3292" style="fill:#646464;fill-opacity:1;fill-rule:evenodd;stroke:none;"/>
<g id="g4129">
<path d="M 58.21,70.82 L 62.20,70.82 L 67.05,65.97 L 121.82,65.97 L 127.11,71.25 L 129.50,71.95 L 129.50,52.67 L 56.88,52.47 L 58.21,70.82 z" id="p3290" style="fill:#565656;fill-opacity:1;fill-rule:evenodd;stroke:none;marker:none;visibility:visible;display:inline;overflow:visible;enable-background:accumulate"/>
<path d="M 60.78,52.5 L 60.78,70.81 L 62.34,70.81 L 65.50,67.65 L 65.50,52.5 L 60.78,52.5 z" id="p3294" style="fill:#494949;fill-opacity:1;fill-rule:evenodd;stroke:none;"/>
<path d="M 58.47,71.75 L 62.46,71.75 L 67.32,66.90 L 121.16,66.90 L 126.24,71.98 L 129.53,71.98 L 123.03,65.49 L 65.25,65.49 L 60.46,70.28 L 57.68,70.28 L 58.47,71.75 z" id="p3296" style="fill:#353535;fill-opacity:1;fill-rule:evenodd;stroke:none;"/>
</g>
<path d="M 9.06,46.84 C 8.58,46.84 8.21,47.24 8.21,47.71 L 8.21,50.40 C 9.54,50.51 10.92,50.59 12.34,50.59 C 16.69,50.59 20.67,50.04 23.84,49.12 L 23.84,47.71 C 23.84,47.24 23.47,46.84 23,46.84 L 9.06,46.84 z M 5.15,46.90 C 4.44,47.68 3.88,48.62 3.5,49.75 C 4.55,49.95 5.67,50.14 6.84,50.28 C 6.84,49.59 6.84,48.81 6.84,48.5 C 6.84,47.29 6.50,46.90 5.93,46.90 C 5.44,46.90 5.23,46.90 5.15,46.90 z" id="p3337" style="opacity:1;fill:#586577;fill-opacity:0.56;fill-rule:evenodd;stroke:none;marker:none;visibility:visible;display:inline;overflow:visible;enable-background:accumulate"/>
<rect width="4.36" height="3.32" ry="0.85" x="26.28" y="59.88" id="r3339" style="opacity:1;fill:#14110c;fill-opacity:1;fill-rule:evenodd;stroke:none;marker:none;visibility:visible;display:inline;overflow:visible;enable-background:accumulate"/>
<path d="M 2.96,53.12 C 2.96,53.77 2.96,54.34 2.96,55.15 C 3.18,56.17 3.81,55.96 3.81,55.96 C 3.81,55.96 5.02,56.00 5.65,56 C 6.28,56 6.84,55.91 6.84,55.31 C 6.84,54.70 6.84,49.70 6.84,48.5 C 6.84,47.29 6.50,46.90 5.93,46.90 C 5.44,46.90 5.23,46.90 5.15,46.90 M 9.06,46.84 C 8.58,46.84 8.21,47.24 8.21,47.71 L 8.21,55.12 C 8.21,55.59 8.58,55.96 9.06,55.96 L 23,55.96 C 23.47,55.96 23.84,55.59 23.84,55.12 L 23.84,47.71 C 23.84,47.24 23.47,46.84 23,46.84 L 9.06,46.84 z" id="p3348" style="opacity:1;fill:none;fill-opacity:1;fill-rule:evenodd;stroke:#14110c;stroke-width:0.40;stroke-linecap:round;stroke-linejoin:miter;marker:none;stroke-miterlimit:4;stroke-dasharray:none;stroke-dashoffset:0;stroke-opacity:1;visibility:visible;display:inline;overflow:visible;enable-background:accumulate"/>
<path d="M 13.43,15.65 C 8.84,15.65 2.96,17.94 2.96,25.09 C 2.96,31.52 2.96,56.07 2.96,64.37 C 2.96,65.29 2.96,68.34 2.96,68.75 C 2.96,69.51 3.10,70.15 3.34,70.68 C 4.05,72.29 5.69,72.96 7.46,73.21 C 7.86,73.27 8.25,73.32 8.65,73.34 C 9.06,73.36 9.45,73.37 9.84,73.37 L 11.25,73.37 L 11.43,73.37 C 11.53,70.11 15.53,67.5 20.43,67.5 C 21.24,67.5 22.03,67.58 22.78,67.71 C 22.97,67.68 23.17,67.68 23.37,67.65 C 27.02,68.42 29.65,70.56 29.65,73.09 C 29.65,73.34 29.61,73.57 29.56,73.81 C 30.49,73.82 31.47,73.87 32.34,73.87 C 32.34,73.54 32.34,70.06 32.34,67.53 C 32.34,67.07 32.34,65.61 32.34,65 C 32.34,54.38 32.34,23.18 32.34,21.25 C 32.34,18.95 32.32,15.65 28.75,15.65 C 25.17,15.65 18.03,15.65 13.43,15.65 z" id="p3350" style="fill:none;fill-opacity:1;fill-rule:evenodd;stroke:#1f202d;stroke-width:1;stroke-linecap:butt;stroke-linejoin:miter;marker:none;stroke-miterlimit:4;stroke-dasharray:none;stroke-dashoffset:0;stroke-opacity:1;visibility:visible;display:inline;overflow:visible;enable-background:accumulate"/>
<g transform="translate(-1.37,0)" id="g4134">
<rect width="26.90" height="18.14" ry="3.65" x="-60.73" y="57.65" transform="scale(-1,1)" id="r3265" style="fill:#606060;fill-opacity:1;fill-rule:evenodd;stroke:none;marker:none;visibility:visible;display:inline;overflow:visible;enable-background:accumulate"/>
<path d="M 57.00,66.73 C 59.06,66.73 60.74,68.34 60.74,70.37 L 60.74,72.15 C 60.74,74.17 59.06,75.79 57.00,75.79 L 37.53,75.79 C 35.47,75.79 33.83,74.17 33.83,72.15 L 33.83,70.37 C 33.83,68.34 35.47,66.73 37.53,66.73 L 57.00,66.73 z" id="p3267" style="fill:#3a3a3a;fill-opacity:1;fill-rule:evenodd;stroke:none;marker:none;visibility:visible;display:inline;overflow:visible;enable-background:accumulate"/>
<rect width="26.90" height="18.14" ry="3.65" x="-60.73" y="57.65" transform="scale(-1,1)" id="r3269" style="fill:none;fill-opacity:1;fill-rule:evenodd;stroke:#262626;stroke-width:0.80;stroke-linecap:butt;stroke-linejoin:miter;marker:none;stroke-miterlimit:4;stroke-dasharray:none;stroke-dashoffset:0;stroke-opacity:1;visibility:visible;display:inline;overflow:visible;enable-background:accumulate"/>
</g>
<rect width="106.64" height="47.49" ry="10.13" x="33.67" y="13.07" id="r4148" style="opacity:1;fill:#c2c2c2;fill-opacity:1;fill-rule:evenodd;stroke:none;marker:none;visibility:visible;display:inline;overflow:visible;enable-background:accumulate"/>
<path d="M 42.43,13.18 C 37.48,13.85 33.68,18.07 33.68,23.21 L 33.68,50.43 C 33.68,55.58 37.48,59.79 42.43,60.46 L 42.43,13.18 z" id="r3244" style="opacity:1;fill:#4f4f4f;fill-opacity:0.38;fill-rule:evenodd;stroke:none;marker:none;visibility:visible;display:inline;overflow:visible;enable-background:accumulate"/>
<path d="M 131.28,13.12 L 131.28,60.53 C 136.37,59.98 140.31,55.67 140.31,50.43 L 140.31,23.21 C 140.31,17.97 136.37,13.66 131.28,13.12 z" id="r3246" style="opacity:1;fill:#f2f2f2;fill-opacity:0.36;fill-rule:evenodd;stroke:none;marker:none;visibility:visible;display:inline;overflow:visible;enable-background:accumulate"/>
<rect width="106.64" height="47.49" ry="10.13" x="33.67" y="13.07" id="r4139" style="opacity:1;fill:none;fill-opacity:1;fill-rule:evenodd;stroke:#3b3b3b;stroke-width:1;stroke-linecap:butt;stroke-linejoin:miter;marker:none;stroke-miterlimit:4;stroke-dasharray:none;stroke-dashoffset:0;stroke-opacity:1;visibility:visible;display:inline;overflow:visible;enable-background:accumulate"/>
<path d="M 33.68,42.75 L 33.68,50.43 C 33.68,56.05 38.19,60.56 43.81,60.56 L 130.18,60.56 C 135.80,60.56 140.31,56.05 140.31,50.43 L 140.31,42.75 L 33.68,42.75 z" id="r4034" style="opacity:1;fill:#454545;fill-opacity:0.2;fill-rule:evenodd;stroke:none;marker:none;visibility:visible;display:inline;overflow:visible;enable-background:accumulate"/>
<rect width="103.62" height="5.53" ry="1.49" x="34.10" y="58.84" id="r4146" style="opacity:1;fill:#c2c2c2;fill-opacity:1;fill-rule:evenodd;stroke:none;marker:none;visibility:visible;display:inline;overflow:visible;enable-background:accumulate"/>
<path d="M 34.09,61.28 L 34.09,62.87 C 34.09,63.70 34.76,64.37 35.59,64.37 L 136.21,64.37 C 137.04,64.37 137.71,63.70 137.71,62.87 L 137.71,61.28 L 34.09,61.28 z" id="r4026" style="opacity:1;fill:#454545;fill-opacity:0.51;fill-rule:evenodd;stroke:none;marker:none;visibility:visible;display:inline;overflow:visible;enable-background:accumulate"/>
<rect width="103.62" height="5.53" ry="1.49" x="34.10" y="58.84" id="r4032" style="opacity:1;fill:none;fill-opacity:1;fill-rule:evenodd;stroke:#434343;stroke-width:0.80;stroke-linecap:butt;stroke-linejoin:miter;marker:none;stroke-miterlimit:4;stroke-dasharray:none;stroke-dashoffset:0;stroke-opacity:1;visibility:visible;display:inline;overflow:visible;enable-background:accumulate"/>
<path d="M 33.68,47.34 L 33.68,50.43 C 33.68,52.19 34.12,53.84 34.90,55.28 L 139.09,55.28 C 139.87,53.84 140.31,52.19 140.31,50.43 L 140.31,47.34 L 33.68,47.34 z" id="r4043" style="opacity:1;fill:#454545;fill-opacity:0.2;fill-rule:evenodd;stroke:none;marker:none;visibility:visible;display:inline;overflow:visible;enable-background:accumulate"/>
<rect width="88.23" height="6.41" ry="3.20" x="45.18" y="19.85" id="r4048" style="opacity:1;fill:#ffffff;fill-opacity:0.34;fill-rule:evenodd;stroke:none;marker:none;visibility:visible;display:inline;overflow:visible;enable-background:accumulate"/>
<path d="M 45.71,51.31 C 45.41,51.31 45.18,51.53 45.18,51.84 L 45.18,53.5 C 45.18,53.80 45.41,54.06 45.71,54.06 L 80.09,54.06 L 77.28,52.71 C 76.95,52.56 76.95,52.31 77.28,52.15 L 79.03,51.31 L 45.71,51.31 z M 95.90,51.31 L 97.65,52.15 C 97.98,52.31 97.98,52.56 97.65,52.71 L 94.84,54.06 L 126.46,54.06 C 126.77,54.06 127,53.80 127,53.5 L 127,51.84 C 127,51.53 126.77,51.31 126.46,51.31 L 95.90,51.31 z" id="r4050" style="opacity:1;fill:#7f4122;fill-opacity:1;fill-rule:evenodd;stroke:none;marker:none;visibility:visible;display:inline;overflow:visible;enable-background:accumulate"/>
<g id="g4077">
<path d="M 47.87,21.68 C 46.38,21.68 45.18,22.88 45.18,24.37 L 45.18,26.81 L 45.18,27.25 L 45.18,29.68 C 45.18,31.17 46.38,32.37 47.87,32.37 L 57.15,32.37 C 58.64,32.37 59.84,31.17 59.84,29.68 L 59.84,27.25 L 59.84,26.81 L 59.84,24.37 C 59.84,22.88 58.64,21.68 57.15,21.68 L 47.87,21.68 z" id="r4055" style="opacity:1;fill:#505050;fill-opacity:1;fill-rule:evenodd;stroke:none;marker:none;visibility:visible;display:inline;overflow:visible;enable-background:accumulate"/>
<rect width="14.65" height="8.24" ry="2.68" x="45.18" y="21.68" id="r4052" style="opacity:1;fill:#bcbbba;fill-opacity:1;fill-rule:evenodd;stroke:none;marker:none;visibility:visible;display:inline;overflow:visible;enable-background:accumulate"/>
<path d="M 56.66,25.92 A 4.15,2.91 0 1 1 48.35,25.92 A 4.15,2.91 0 1 1 56.66,25.92 z" transform="translate(0,-0.10)" id="p4069" style="opacity:1;fill:#b5b4b3;fill-opacity:0.7;fill-rule:evenodd;stroke:#6c6c6c;stroke-width:0.5;stroke-linecap:butt;stroke-linejoin:miter;marker:none;stroke-miterlimit:4;stroke-dasharray:none;stroke-dashoffset:0;stroke-opacity:1;visibility:visible;display:inline;overflow:visible;enable-background:accumulate"/>
<path d="M 47.87,21.68 C 46.41,21.68 45.23,22.83 45.18,24.28 L 59.84,24.28 C 59.79,22.83 58.61,21.68 57.15,21.68 L 47.87,21.68 z" id="r4060" style="opacity:1;fill:#ffffff;fill-opacity:0.34;fill-rule:evenodd;stroke:none;marker:none;visibility:visible;display:inline;overflow:visible;enable-background:accumulate"/>
<path d="M 47.87,21.68 C 46.38,21.68 45.18,22.88 45.18,24.37 L 45.18,26.81 L 45.18,27.25 L 45.18,29.68 C 45.18,31.17 46.38,32.37 47.87,32.37 L 57.15,32.37 C 58.64,32.37 59.84,31.17 59.84,29.68 L 59.84,27.25 L 59.84,26.81 L 59.84,24.37 C 59.84,22.88 58.64,21.68 57.15,21.68 L 47.87,21.68 z" id="p4073" style="opacity:1;fill:none;fill-opacity:1;fill-rule:evenodd;stroke:#505050;stroke-width:0.60;stroke-linecap:butt;stroke-linejoin:miter;marker:none;stroke-miterlimit:4;stroke-dasharray:none;stroke-dashoffset:0;stroke-opacity:1;visibility:visible;display:inline;overflow:visible;enable-background:accumulate"/>
</g>
<g transform="translate(30.75,0)" id="g4084">
<path d="M 47.87,21.68 C 46.38,21.68 45.18,22.88 45.18,24.37 L 45.18,26.81 L 45.18,27.25 L 45.18,29.68 C 45.18,31.17 46.38,32.37 47.87,32.37 L 57.15,32.37 C 58.64,32.37 59.84,31.17 59.84,29.68 L 59.84,27.25 L 59.84,26.81 L 59.84,24.37 C 59.84,22.88 58.64,21.68 57.15,21.68 L 47.87,21.68 z" id="p4086" style="opacity:1;fill:#505050;fill-opacity:1;fill-rule:evenodd;stroke:none;marker:none;visibility:visible;display:inline;overflow:visible;enable-background:accumulate"/>
<rect width="14.65" height="8.24" ry="2.68" x="45.18" y="21.68" id="r4088" style="opacity:1;fill:#bcbbba;fill-opacity:1;fill-rule:evenodd;stroke:none;marker:none;visibility:visible;display:inline;overflow:visible;enable-background:accumulate"/>
<path d="M 56.66,25.92 A 4.15,2.91 0 1 1 48.35,25.92 A 4.15,2.91 0 1 1 56.66,25.92 z" transform="translate(0,-0.10)" id="p4090" style="opacity:1;fill:#b5b4b3;fill-opacity:0.7;fill-rule:evenodd;stroke:#6c6c6c;stroke-width:0.5;stroke-linecap:butt;stroke-linejoin:miter;marker:none;stroke-miterlimit:4;stroke-dasharray:none;stroke-dashoffset:0;stroke-opacity:1;visibility:visible;display:inline;overflow:visible;enable-background:accumulate"/>
<path d="M 47.87,21.68 C 46.41,21.68 45.23,22.83 45.18,24.28 L 59.84,24.28 C 59.79,22.83 58.61,21.68 57.15,21.68 L 47.87,21.68 z" id="p4092" style="opacity:1;fill:#ffffff;fill-opacity:0.34;fill-rule:evenodd;stroke:none;marker:none;visibility:visible;display:inline;overflow:visible;enable-background:accumulate"/>
<path d="M 47.87,21.68 C 46.38,21.68 45.18,22.88 45.18,24.37 L 45.18,26.81 L 45.18,27.25 L 45.18,29.68 C 45.18,31.17 46.38,32.37 47.87,32.37 L 57.15,32.37 C 58.64,32.37 59.84,31.17 59.84,29.68 L 59.84,27.25 L 59.84,26.81 L 59.84,24.37 C 59.84,22.88 58.64,21.68 57.15,21.68 L 47.87,21.68 z" id="p4095" style="opacity:1;fill:none;fill-opacity:1;fill-rule:evenodd;stroke:#505050;stroke-width:0.60;stroke-linecap:butt;stroke-linejoin:miter;marker:none;stroke-miterlimit:4;stroke-dasharray:none;stroke-dashoffset:0;stroke-opacity:1;visibility:visible;display:inline;overflow:visible;enable-background:accumulate"/>
</g>
<g transform="translate(61.51,0)" id="g4118">
<path d="M 47.87,21.68 C 46.38,21.68 45.18,22.88 45.18,24.37 L 45.18,26.81 L 45.18,27.25 L 45.18,29.68 C 45.18,31.17 46.38,32.37 47.87,32.37 L 57.15,32.37 C 58.64,32.37 59.84,31.17 59.84,29.68 L 59.84,27.25 L 59.84,26.81 L 59.84,24.37 C 59.84,22.88 58.64,21.68 57.15,21.68 L 47.87,21.68 z" id="p4121" style="opacity:1;fill:#505050;fill-opacity:1;fill-rule:evenodd;stroke:none;marker:none;visibility:visible;display:inline;overflow:visible;enable-background:accumulate"/>
<rect width="14.65" height="8.24" ry="2.68" x="45.18" y="21.68" id="r4124" style="opacity:1;fill:#bcbbba;fill-opacity:1;fill-rule:evenodd;stroke:none;marker:none;visibility:visible;display:inline;overflow:visible;enable-background:accumulate"/>
<path d="M 56.66,25.92 A 4.15,2.91 0 1 1 48.35,25.92 A 4.15,2.91 0 1 1 56.66,25.92 z" transform="translate(0,-0.10)" id="p4126" style="opacity:1;fill:#b5b4b3;fill-opacity:0.7;fill-rule:evenodd;stroke:#6c6c6c;stroke-width:0.5;stroke-linecap:butt;stroke-linejoin:miter;marker:none;stroke-miterlimit:4;stroke-dasharray:none;stroke-dashoffset:0;stroke-opacity:1;visibility:visible;display:inline;overflow:visible;enable-background:accumulate"/>
<path d="M 47.87,21.68 C 46.41,21.68 45.23,22.83 45.18,24.28 L 59.84,24.28 C 59.79,22.83 58.61,21.68 57.15,21.68 L 47.87,21.68 z" id="p4128" style="opacity:1;fill:#ffffff;fill-opacity:0.34;fill-rule:evenodd;stroke:none;marker:none;visibility:visible;display:inline;overflow:visible;enable-background:accumulate"/>
<path d="M 47.87,21.68 C 46.38,21.68 45.18,22.88 45.18,24.37 L 45.18,26.81 L 45.18,27.25 L 45.18,29.68 C 45.18,31.17 46.38,32.37 47.87,32.37 L 57.15,32.37 C 58.64,32.37 59.84,31.17 59.84,29.68 L 59.84,27.25 L 59.84,26.81 L 59.84,24.37 C 59.84,22.88 58.64,21.68 57.15,21.68 L 47.87,21.68 z" id="p4130" style="opacity:1;fill:none;fill-opacity:1;fill-rule:evenodd;stroke:#505050;stroke-width:0.60;stroke-linecap:butt;stroke-linejoin:miter;marker:none;stroke-miterlimit:4;stroke-dasharray:none;stroke-dashoffset:0;stroke-opacity:1;visibility:visible;display:inline;overflow:visible;enable-background:accumulate"/>
</g>
<rect width="13.78" height="2.46" ry="0.72" x="10.25" y="60.95" id="r4132" style="opacity:1;fill:#b6d4b2;fill-opacity:1;fill-rule:evenodd;stroke:none;marker:none;visibility:visible;display:inline;overflow:visible;enable-background:accumulate"/>
<rect width="10.43" height="10.43" ry="0.57" x="-17.49" y="104.02" transform="matrix(0.90,-0.43,0.90,0.43,0,0)" id="r4134" style="opacity:1;fill:#9a8047;fill-opacity:1;fill-rule:evenodd;stroke:none;marker:none;visibility:visible;display:inline;overflow:visible;enable-background:accumulate"/>
</g>
</svg>
