<?xml version="1.0" encoding="UTF-8" standalone="no"?>
<svg xmlns:svg="http://www.w3.org/2000/svg" xmlns="http://www.w3.org/2000/svg" xmlns:xlink="http://www.w3.org/1999/xlink" version="1.0" width="100%" height="100%" viewBox="0 0 48 128" id="svg2383" style="display:inline">
<defs id="defs2385"/>
<g id="layer11" style="display:inline">
<rect width="46.91" height="93.48" ry="2.34" x="0.02" y="34.55" id="r2867" style="fill:#090805;fill-opacity:0.44;fill-rule:evenodd;stroke:none;marker:none;visibility:visible;display:inline;overflow:visible;enable-background:accumulate"/>
<rect width="6.49" height="17.36" ry="1.45" x="1.19" y="89.02" id="r3936" style="fill:#332320;fill-opacity:1;fill-rule:evenodd;stroke:#2e1d1d;stroke-width:1;stroke-linecap:round;stroke-linejoin:miter;marker:none;stroke-miterlimit:4;stroke-dasharray:none;stroke-dashoffset:0;stroke-opacity:1;visibility:visible;display:inline;overflow:visible;enable-background:accumulate"/>
<rect width="6.49" height="17.36" ry="1.45" x="39.61" y="89.02" id="r3938" style="fill:#332320;fill-opacity:1;fill-rule:evenodd;stroke:#2e1d1d;stroke-width:1;stroke-linecap:round;stroke-linejoin:miter;marker:none;stroke-miterlimit:4;stroke-dasharray:none;stroke-dashoffset:0;stroke-opacity:1;visibility:visible;display:inline;overflow:visible;enable-background:accumulate"/>
<rect width="6.49" height="17.36" ry="1.45" x="1.19" y="108.85" id="r3934" style="fill:#332320;fill-opacity:1;fill-rule:evenodd;stroke:#2e1d1d;stroke-width:1;stroke-linecap:round;stroke-linejoin:miter;marker:none;stroke-miterlimit:4;stroke-dasharray:none;stroke-dashoffset:0;stroke-opacity:1;visibility:visible;display:inline;overflow:visible;enable-background:accumulate"/>
<rect width="6.49" height="17.36" ry="1.45" x="39.61" y="108.85" id="r3932" style="fill:#332320;fill-opacity:1;fill-rule:evenodd;stroke:#2e1d1d;stroke-width:1;stroke-linecap:round;stroke-linejoin:miter;marker:none;stroke-miterlimit:4;stroke-dasharray:none;stroke-dashoffset:0;stroke-opacity:1;visibility:visible;display:inline;overflow:visible;enable-background:accumulate"/>
<rect width="6.49" height="17.36" ry="1.45" x="39.61" y="42.04" id="r3930" style="fill:#332320;fill-opacity:1;fill-rule:evenodd;stroke:#2e1d1d;stroke-width:1;stroke-linecap:round;stroke-linejoin:miter;marker:none;stroke-miterlimit:4;stroke-dasharray:none;stroke-dashoffset:0;stroke-opacity:1;visibility:visible;display:inline;overflow:visible;enable-background:accumulate"/>
<rect width="6.49" height="17.36" ry="1.45" x="1.01" y="42.04" id="r2881" style="fill:#332320;fill-opacity:1;fill-rule:evenodd;stroke:#2e1d1d;stroke-width:1;stroke-linecap:round;stroke-linejoin:miter;marker:none;stroke-miterlimit:4;stroke-dasharray:none;stroke-dashoffset:0;stroke-opacity:1;visibility:visible;display:inline;overflow:visible;enable-background:accumulate"/>
<g transform="translate(42.08,101.91)" id="g2889">
<rect width="4.35" height="6.63" ry="1.45" x="0.62" y="-80.37" id="r2891" style="fill:#656565;fill-opacity:1;fill-rule:evenodd;stroke:none;marker:none;visibility:visible;display:inline;overflow:visible;enable-background:accumulate"/>
<path d="M 2.06,-77.96 C 1.25,-77.96 0.62,-77.33 0.62,-76.53 L 0.62,-75.18 C 0.62,-74.38 1.25,-73.74 2.06,-73.75 L 3.53,-73.75 C 4.33,-73.75 4.96,-74.38 4.96,-75.18 L 4.96,-76.53 C 4.96,-77.33 4.33,-77.96 3.53,-77.96 L 2.06,-77.96 z" id="p2893" style="fill:#3a3a3a;fill-opacity:1;fill-rule:evenodd;stroke:none;marker:none;visibility:visible;display:inline;overflow:visible;enable-background:accumulate"/>
<path d="M 2.20,-77.70 C 1.55,-77.70 1.03,-77.15 1.03,-76.44 L 1.03,-75.27 C 1.03,-74.56 1.55,-74.00 2.20,-74.00 L 3.39,-74.00 C 4.04,-74.00 4.55,-74.56 4.55,-75.27 L 4.55,-76.44 C 4.55,-77.15 4.04,-77.70 3.39,-77.70 L 2.20,-77.70 z" id="p2895" style="fill:#76c4cb;fill-opacity:1;fill-rule:evenodd;stroke:none;marker:none;visibility:visible;display:inline;overflow:visible;enable-background:accumulate"/>
</g>
<g transform="translate(0,101.91)" id="g2897">
<rect width="4.35" height="6.63" ry="1.45" x="0.62" y="-80.37" id="r2899" style="fill:#656565;fill-opacity:1;fill-rule:evenodd;stroke:none;marker:none;visibility:visible;display:inline;overflow:visible;enable-background:accumulate"/>
<path d="M 2.06,-77.96 C 1.25,-77.96 0.62,-77.33 0.62,-76.53 L 0.62,-75.18 C 0.62,-74.38 1.25,-73.74 2.06,-73.75 L 3.53,-73.75 C 4.33,-73.75 4.96,-74.38 4.96,-75.18 L 4.96,-76.53 C 4.96,-77.33 4.33,-77.96 3.53,-77.96 L 2.06,-77.96 z" id="p2901" style="fill:#3a3a3a;fill-opacity:1;fill-rule:evenodd;stroke:none;marker:none;visibility:visible;display:inline;overflow:visible;enable-background:accumulate"/>
<path d="M 2.20,-77.70 C 1.55,-77.70 1.03,-77.15 1.03,-76.44 L 1.03,-75.27 C 1.03,-74.56 1.55,-74.00 2.20,-74.00 L 3.39,-74.00 C 4.04,-74.00 4.55,-74.56 4.55,-75.27 L 4.55,-76.44 C 4.55,-77.15 4.04,-77.70 3.39,-77.70 L 2.20,-77.70 z" id="p2903" style="fill:#76c4cb;fill-opacity:1;fill-rule:evenodd;stroke:none;marker:none;visibility:visible;display:inline;overflow:visible;enable-background:accumulate"/>
</g>
<path d="M 10.37,9.84 C 6.69,9.84 3.71,12.78 3.71,16.46 L 3.71,55.45 C 3.71,59.12 6.69,62.07 10.37,62.07 L 37.31,62.07 C 40.98,62.07 43.93,59.12 43.93,55.45 L 43.93,16.46 C 43.93,12.78 40.98,9.84 37.31,9.84 L 10.37,9.84 z" id="p2905" style="fill:#b08f4f;fill-opacity:1;fill-rule:evenodd;stroke:none;marker:none;visibility:visible;display:inline;overflow:visible;enable-background:accumulate"/>
<path d="M 10.37,9.84 C 6.69,9.84 3.71,12.79 3.71,16.46 L 3.71,19.56 L 6.71,15.84 L 40.71,15.84 L 43.93,19.78 L 43.93,16.46 C 43.93,12.79 40.98,9.84 37.31,9.84 L 10.37,9.84 z" id="p3885" style="fill:#881f1f;fill-opacity:1;fill-rule:evenodd;stroke:none;"/>
<path d="M 10.37,9.84 C 6.69,9.84 3.71,12.79 3.71,16.47 L 3.71,55.44 C 3.71,57.39 4.56,59.14 5.90,60.34 L 5.90,19.47 C 5.90,14.73 8.57,10.94 11.84,10.94 L 35.84,10.94 C 39.11,10.94 41.74,14.73 41.75,19.47 L 41.75,60.34 C 43.08,59.14 43.93,57.40 43.93,55.44 L 43.93,16.47 C 43.93,12.79 40.98,9.84 37.31,9.84 L 10.37,9.84 z" id="p2909" style="fill:#fcfcfc;fill-opacity:0.20;fill-rule:evenodd;stroke:none;marker:none;visibility:visible;display:inline;overflow:visible;enable-background:accumulate"/>
<path d="M 10.37,32.22 C 6.69,32.22 3.71,35.17 3.71,38.84 L 3.71,55.44 C 3.71,59.11 6.69,62.06 10.37,62.06 L 37.31,62.06 C 40.98,62.06 43.93,59.11 43.93,55.44 L 43.93,38.84 C 43.93,35.17 40.98,32.22 37.31,32.22 L 10.37,32.22 z" id="p2911" style="fill:#402f21;fill-opacity:1;fill-rule:evenodd;stroke:none;marker:none;visibility:visible;display:inline;overflow:visible;enable-background:accumulate"/>
<path d="M 10.37,9.84 C 6.69,9.84 3.71,12.79 3.71,16.47 L 3.71,21.56 C 3.65,21.55 3.59,21.53 3.53,21.53 L 2.06,21.53 C 1.25,21.53 0.62,22.20 0.62,23.00 L 0.62,26.72 C 0.62,27.52 1.25,28.16 2.06,28.16 L 3.53,28.16 C 3.59,28.16 3.65,28.13 3.71,28.13 L 3.71,55.44 C 3.71,59.11 6.69,62.06 10.37,62.06 L 37.31,62.06 C 40.98,62.06 43.93,59.11 43.93,55.44 L 43.93,28.13 C 44.01,28.14 44.07,28.16 44.15,28.16 L 45.62,28.16 C 46.42,28.16 47.06,27.52 47.06,26.72 L 47.06,23.00 C 47.06,22.20 46.42,21.53 45.62,21.53 L 44.15,21.53 C 44.07,21.53 44.01,21.55 43.93,21.56 L 43.93,16.47 C 43.93,12.79 40.98,9.84 37.31,9.84 L 10.37,9.84 z" id="p2913" style="fill:none;fill-opacity:1;fill-rule:evenodd;stroke:#262626;stroke-width:1;stroke-linecap:round;stroke-linejoin:miter;marker:none;stroke-miterlimit:4;stroke-dasharray:none;stroke-dashoffset:0;stroke-opacity:1;visibility:visible;display:inline;overflow:visible;enable-background:accumulate"/>
<rect width="33.83" height="1.72" ry="0.42" x="6.76" y="120.30" id="r2915" style="fill:#4b4b4b;fill-opacity:1;fill-rule:evenodd;stroke:none;marker:none;visibility:visible;display:inline;overflow:visible;enable-background:accumulate"/>
<rect width="33.83" height="1.14" ry="0.28" x="6.76" y="121.25" id="r2917" style="fill:#2f2f2f;fill-opacity:1;fill-rule:evenodd;stroke:none;marker:none;visibility:visible;display:inline;overflow:visible;enable-background:accumulate"/>
<path d="M 11.58,35.43 C 8.24,35.43 5.53,37.96 5.53,41.11 L 5.53,55.35 C 5.53,58.50 8.24,61.03 11.58,61.03 L 36.09,61.03 C 39.43,61.03 42.12,58.50 42.12,55.35 L 42.12,41.11 C 42.12,37.96 39.43,35.43 36.09,35.43 L 11.58,35.43 z" id="p2921" style="fill:#3a3a3a;fill-opacity:1;fill-rule:evenodd;stroke:none;marker:none;visibility:visible;display:inline;overflow:visible;enable-background:accumulate"/>
<rect width="40.22" height="80.88" ry="2.33" x="3.73" y="35.04" id="r2947" style="fill:#b08f4f;fill-opacity:1;fill-rule:evenodd;stroke:none;marker:none;visibility:visible;display:inline;overflow:visible;enable-background:accumulate"/>
<path d="M 42.12,35.09 L 42.12,115.87 C 43.17,115.64 43.93,114.71 43.93,113.59 L 43.93,37.37 C 43.93,36.25 43.17,35.32 42.12,35.09 z M 5.5,35.12 C 4.48,35.37 3.71,36.27 3.71,37.37 L 3.71,113.59 C 3.71,114.69 4.48,115.59 5.5,115.84 L 5.5,35.12 z" id="p3922" style="fill:#f8f5ef;fill-opacity:0.29;fill-rule:evenodd;stroke:none;"/>
<rect width="40.22" height="29.47" ry="2.33" x="3.73" y="86.45" id="r3052" style="fill:#826043;fill-opacity:1;fill-rule:evenodd;stroke:none;marker:none;visibility:visible;display:inline;overflow:visible;enable-background:accumulate"/>
<rect width="1.53" height="2.80" ry="0.42" x="26.68" y="118.44" id="r2953" style="fill:#4b4b4b;fill-opacity:1;fill-rule:evenodd;stroke:none;marker:none;visibility:visible;display:inline;overflow:visible;enable-background:accumulate"/>
<rect width="1.53" height="2.80" ry="0.42" x="19.28" y="118.44" id="r2955" style="fill:#4b4b4b;fill-opacity:1;fill-rule:evenodd;stroke:none;marker:none;visibility:visible;display:inline;overflow:visible;enable-background:accumulate"/>
<rect width="33.83" height="5.49" ry="1.34" x="6.76" y="114.36" id="r2957" style="fill:#3a3a3a;fill-opacity:1;fill-rule:evenodd;stroke:none;marker:none;visibility:visible;display:inline;overflow:visible;enable-background:accumulate"/>
<path d="M 39.81,32.72 L 39.81,20.94 C 39.81,19.54 36.94,18.41 33.40,18.41 L 14.25,18.41 C 10.71,18.41 7.87,19.54 7.87,20.94 L 7.87,32.72" id="p2965" style="fill:none;fill-opacity:1;fill-rule:evenodd;stroke:#402f21;stroke-width:0.60;stroke-linecap:round;stroke-linejoin:miter;marker:none;stroke-miterlimit:4;stroke-dasharray:none;stroke-dashoffset:0;stroke-opacity:1;visibility:visible;display:inline;overflow:visible;enable-background:accumulate"/>
<path d="M 5.68,118.18 C 4.94,118.18 4.34,118.78 4.34,119.53 L 4.34,120.81 C 4.34,120.85 4.34,120.89 4.34,120.93 C 4.34,120.97 4.34,121.02 4.34,121.06 L 4.34,122.34 C 4.34,123.08 4.94,123.68 5.68,123.68 L 16.28,123.68 C 17.02,123.68 17.62,123.08 17.62,122.34 L 17.62,121.06 C 17.62,121.02 17.62,120.97 17.62,120.93 C 17.62,120.89 17.62,120.85 17.62,120.81 L 17.62,119.53 C 17.62,118.78 17.02,118.18 16.28,118.18 L 5.68,118.18 z M 31.09,118.18 C 30.35,118.18 29.75,118.78 29.75,119.53 L 29.75,120.81 C 29.75,120.85 29.74,120.89 29.75,120.93 C 29.74,120.97 29.75,121.02 29.75,121.06 L 29.75,122.34 C 29.75,123.08 30.35,123.68 31.09,123.68 L 41.68,123.68 C 42.43,123.68 43.03,123.08 43.03,122.34 L 43.03,121.06 C 43.03,121.02 43.03,120.97 43.03,120.93 C 43.03,120.89 43.03,120.85 43.03,120.81 L 43.03,119.53 C 43.03,118.78 42.43,118.18 41.68,118.18 L 31.09,118.18 z" id="p2977" style="fill:#656565;fill-opacity:1;fill-rule:evenodd;stroke:none;marker:none;visibility:visible;display:inline;overflow:visible;enable-background:accumulate"/>
<path d="M 5.68,119.71 C 4.94,119.71 4.34,120.32 4.34,121.06 L 4.34,122.34 C 4.34,123.08 4.94,123.68 5.68,123.68 L 16.28,123.68 C 17.02,123.68 17.62,123.08 17.62,122.34 L 17.62,121.06 C 17.62,120.32 17.02,119.71 16.28,119.71 L 5.68,119.71 z M 31.09,119.71 C 30.35,119.71 29.75,120.32 29.75,121.06 L 29.75,122.34 C 29.75,123.08 30.35,123.68 31.09,123.68 L 41.68,123.68 C 42.43,123.68 43.03,123.08 43.03,122.34 L 43.03,121.06 C 43.03,120.32 42.43,119.71 41.68,119.71 L 31.09,119.71 z" id="p2979" style="fill:#3a3a3a;fill-opacity:1;fill-rule:evenodd;stroke:none;marker:none;visibility:visible;display:inline;overflow:visible;enable-background:accumulate"/>
<path d="M 5.68,118.18 C 4.94,118.18 4.34,118.78 4.34,119.53 L 4.34,120.81 C 4.34,120.85 4.34,120.89 4.34,120.93 C 4.34,120.97 4.34,121.02 4.34,121.06 L 4.34,122.18 C 4.63,122.31 4.94,122.40 5.28,122.40 L 7.12,122.40 C 8.41,122.40 9.43,121.35 9.43,120.06 L 9.43,118.87 C 9.43,118.63 9.38,118.40 9.31,118.18 L 5.68,118.18 z M 37.90,118.18 C 37.83,118.40 37.78,118.63 37.78,118.87 L 37.78,120.06 C 37.78,121.35 38.83,122.40 40.12,122.40 L 41.96,122.40 C 42.35,122.40 42.70,122.29 43.03,122.12 L 43.03,121.06 C 43.03,121.02 43.03,120.97 43.03,120.93 C 43.03,120.89 43.03,120.85 43.03,120.81 L 43.03,119.53 C 43.03,118.78 42.43,118.18 41.68,118.18 L 37.90,118.18 z" id="p2981" style="fill:#5a4343;fill-opacity:1;fill-rule:evenodd;stroke:none;marker:none;visibility:visible;display:inline;overflow:visible;enable-background:accumulate"/>
<rect width="10.56" height="2.43" ry="0.67" x="18.32" y="116.81" id="r2983" style="fill:#515151;fill-opacity:1;fill-rule:evenodd;stroke:none;marker:none;visibility:visible;display:inline;overflow:visible;enable-background:accumulate"/>
<rect width="34.89" height="25.38" ry="2.02" x="6.39" y="88.28" id="r3054" style="fill:none;fill-opacity:1;fill-rule:evenodd;stroke:#3d322d;stroke-width:0.40;stroke-linecap:round;stroke-linejoin:miter;marker:none;stroke-miterlimit:4;stroke-dasharray:none;stroke-dashoffset:0;stroke-opacity:1;visibility:visible;display:inline;overflow:visible;enable-background:accumulate"/>
<rect width="23.30" height="8.89" ry="0.78" x="12.14" y="16.70" id="r3842" style="fill:#402f21;fill-opacity:1;fill-rule:evenodd;stroke:none;marker:none;visibility:visible;display:inline;overflow:visible;enable-background:accumulate"/>
<rect width="23.30" height="8.89" ry="0.78" x="12.14" y="15.43" id="r3844" style="fill:#b08f4f;fill-opacity:1;fill-rule:evenodd;stroke:none;marker:none;visibility:visible;display:inline;overflow:visible;enable-background:accumulate"/>
<path d="M 12.93,15.43 C 12.49,15.43 12.15,15.78 12.15,16.21 L 12.15,17.68 L 35.43,17.68 L 35.43,16.21 C 35.43,15.78 35.09,15.43 34.65,15.43 L 12.93,15.43 z" id="r3876" style="fill:#fcfcfc;fill-opacity:0.20;fill-rule:evenodd;stroke:none;marker:none;visibility:visible;display:inline;overflow:visible;enable-background:accumulate"/>
<path d="M 12.93,15.43 C 12.49,15.43 12.15,15.78 12.15,16.21 L 12.15,17.50 L 12.15,23.53 L 12.15,24.81 C 12.15,25.25 12.49,25.59 12.93,25.59 L 34.65,25.59 C 35.09,25.59 35.43,25.25 35.43,24.81 L 35.43,23.53 L 35.43,17.50 L 35.43,16.21 C 35.43,15.78 35.09,15.43 34.65,15.43" id="r3846" style="fill:none;fill-opacity:1;fill-rule:evenodd;stroke:#402f21;stroke-width:0.5;stroke-linecap:round;stroke-linejoin:miter;marker:none;stroke-miterlimit:4;stroke-dasharray:none;stroke-dashoffset:0;stroke-opacity:1;visibility:visible;display:inline;overflow:visible;enable-background:accumulate"/>
<path d="M 12.00,26.14 C 10.51,26.14 9.30,27.02 9.30,28.11 C 9.30,28.43 9.31,28.70 9.30,29.01 C 9.30,30.09 10.51,30.99 12.00,30.99 C 13.49,30.99 14.70,30.09 14.70,29.01 C 14.70,28.69 14.68,28.42 14.70,28.11 C 14.70,27.02 13.49,26.14 12.00,26.14 z" id="p3058" style="fill:#402f21;fill-opacity:1;fill-rule:evenodd;stroke:none;marker:none;visibility:visible;display:inline;overflow:visible;enable-background:accumulate"/>
<path d="M 12.00,26.14 C 10.51,26.14 9.30,27.02 9.30,28.11 C 9.30,29.20 10.51,30.08 12.00,30.08 C 13.49,30.08 14.70,29.20 14.70,28.11 C 14.70,27.02 13.49,26.14 12.00,26.14 z" id="p3056" style="fill:#8a623a;fill-opacity:1;fill-rule:evenodd;stroke:none;marker:none;visibility:visible;display:inline;overflow:visible;enable-background:accumulate"/>
<path d="M 12.00,26.31 C 11.00,26.31 10.18,26.91 10.18,27.64 C 10.18,28.37 11.00,28.95 12.00,28.95 C 13.00,28.95 13.80,28.37 13.80,27.64 C 13.80,26.91 13.00,26.31 12.00,26.31 z" id="p3833" style="fill:#b08f4f;fill-opacity:1;fill-rule:evenodd;stroke:none;marker:none;visibility:visible;display:inline;overflow:visible;enable-background:accumulate"/>
<path d="M 12.00,26.14 C 10.51,26.14 9.30,27.02 9.30,28.11 C 9.30,28.43 9.31,28.70 9.30,29.01 C 9.30,30.09 10.51,30.99 12.00,30.99 C 13.49,30.99 14.70,30.09 14.70,29.01 C 14.70,28.69 14.68,28.42 14.70,28.11 C 14.70,27.02 13.49,26.14 12.00,26.14 z" id="p3840" style="fill:none;fill-opacity:1;fill-rule:evenodd;stroke:#402f21;stroke-width:0.40;stroke-linecap:round;stroke-linejoin:miter;marker:none;stroke-miterlimit:4;stroke-dasharray:none;stroke-dashoffset:0;stroke-opacity:1;visibility:visible;display:inline;overflow:visible;enable-background:accumulate"/>
<path d="M 35.37,26.14 C 33.88,26.14 32.67,27.02 32.67,28.11 C 32.67,28.43 32.68,28.70 32.67,29.01 C 32.67,30.09 33.88,30.99 35.37,30.99 C 36.86,30.99 38.07,30.09 38.07,29.01 C 38.07,28.69 38.06,28.42 38.07,28.11 C 38.07,27.02 36.86,26.14 35.37,26.14 z" id="p3906" style="fill:#402f21;fill-opacity:1;fill-rule:evenodd;stroke:none;marker:none;visibility:visible;display:inline;overflow:visible;enable-background:accumulate"/>
<path d="M 35.37,26.14 C 33.88,26.14 32.67,27.02 32.67,28.11 C 32.67,29.20 33.88,30.08 35.37,30.08 C 36.86,30.08 38.07,29.20 38.07,28.11 C 38.07,27.02 36.86,26.14 35.37,26.14 z" id="p3908" style="fill:#8a623a;fill-opacity:1;fill-rule:evenodd;stroke:none;marker:none;visibility:visible;display:inline;overflow:visible;enable-background:accumulate"/>
<path d="M 35.37,26.31 C 34.37,26.31 33.55,26.91 33.55,27.64 C 33.55,28.37 34.37,28.95 35.37,28.95 C 36.37,28.95 37.17,28.37 37.17,27.64 C 37.17,26.91 36.37,26.31 35.37,26.31 z" id="p3910" style="fill:#b08f4f;fill-opacity:1;fill-rule:evenodd;stroke:none;marker:none;visibility:visible;display:inline;overflow:visible;enable-background:accumulate"/>
<path d="M 35.37,26.14 C 33.88,26.14 32.67,27.02 32.67,28.11 C 32.67,28.43 32.68,28.70 32.67,29.01 C 32.67,30.09 33.88,30.99 35.37,30.99 C 36.86,30.99 38.07,30.09 38.07,29.01 C 38.07,28.69 38.06,28.42 38.07,28.11 C 38.07,27.02 36.86,26.14 35.37,26.14 z" id="p3912" style="fill:none;fill-opacity:1;fill-rule:evenodd;stroke:#402f21;stroke-width:0.40;stroke-linecap:round;stroke-linejoin:miter;marker:none;stroke-miterlimit:4;stroke-dasharray:none;stroke-dashoffset:0;stroke-opacity:1;visibility:visible;display:inline;overflow:visible;enable-background:accumulate"/>
<path d="M 17.40,88.35 L 17.40,113.63" id="p3940" style="fill:none;fill-opacity:1;fill-rule:evenodd;stroke:#3d322d;stroke-width:0.40;stroke-linecap:round;stroke-linejoin:miter;marker:none;stroke-miterlimit:4;stroke-dasharray:none;stroke-dashoffset:0;stroke-opacity:1;visibility:visible;display:inline;overflow:visible;enable-background:accumulate"/>
<path d="M 6.06,35.03 C 4.76,35.03 3.71,36.08 3.71,37.37 L 3.71,113.59 C 3.71,114.88 4.76,115.93 6.06,115.93 L 6.78,115.93 L 6.78,118.50 C 6.78,119.03 7.08,119.50 7.53,119.71 L 5.68,119.71 C 4.94,119.71 4.34,120.32 4.34,121.06 L 4.34,122.34 C 4.34,123.08 4.94,123.68 5.68,123.68 L 16.28,123.68 C 17.00,123.68 17.59,123.12 17.62,122.40 L 29.75,122.40 C 29.78,123.12 30.37,123.68 31.09,123.68 L 41.68,123.68 C 42.43,123.68 43.03,123.08 43.03,122.34 L 43.03,121.06 C 43.03,120.32 42.43,119.71 41.68,119.71 L 39.84,119.71 C 40.28,119.50 40.59,119.03 40.59,118.50 L 40.59,115.93 L 41.62,115.93 C 42.91,115.93 43.93,114.88 43.93,113.59 L 43.93,37.37 C 43.93,36.08 42.91,35.03 41.62,35.03 L 6.06,35.03 z" id="r3942" style="fill:none;fill-opacity:1;fill-rule:evenodd;stroke:#262626;stroke-width:1;stroke-linecap:round;stroke-linejoin:miter;marker:none;stroke-miterlimit:4;stroke-dasharray:none;stroke-dashoffset:0;stroke-opacity:1;visibility:visible;display:inline;overflow:visible;enable-background:accumulate"/>
<rect width="2.01" height="4.45" ry="0.83" x="14.42" y="100.74" id="r2914" style="fill:none;fill-opacity:1;fill-rule:evenodd;stroke:#3d322d;stroke-width:0.40;stroke-linecap:round;stroke-linejoin:miter;marker:none;stroke-miterlimit:4;stroke-dasharray:none;stroke-dashoffset:0;stroke-opacity:1;visibility:visible;display:inline;overflow:visible;enable-background:accumulate"/>
</g>
</svg>
