<?xml version="1.0" encoding="UTF-8" standalone="no"?>
<!-- Created with Inkscape (http://www.inkscape.org/) -->
<svg
   xmlns:svg="http://www.w3.org/2000/svg"
   xmlns="http://www.w3.org/2000/svg"
   version="1.0"
   width="100%"
   height="100%"
   viewBox="0 0 48 80"
   id="svg2383">
  <defs
     id="defs2385" />
  <path
     d="M 48,30.454936 L 48,80 L 14.9375,80 L 14.9375,30.454936 L 48,30.454936 z"
     id="r2393"
     style="fill:#666666;fill-opacity:1;fill-rule:evenodd;stroke:none;marker:none;visibility:visible;display:inline;overflow:visible;enable-background:accumulate" />
  <g
     transform="matrix(-1,0,0,1,48,43.454727)"
     id="g3263">
    <path
       d="M 11.55625,4.78125 L 11.55625,36.625 L 0.30625001,36.625 L 0.30625001,4.78125 L 11.55625,4.78125 z"
       id="path2389"
       style="fill:#54322c;fill-opacity:1;fill-rule:evenodd;stroke:none;marker:none;visibility:visible;display:inline;overflow:visible;enable-background:accumulate" />
    <path
       d="M 11.55,7.09375 L 11.55,9.96875 L 9.14375,9.96875 C 9.026803,9.9687496 8.925,9.866947 8.925,9.75 L 8.925,7.3125 C 8.925,7.1955527 9.026802,7.09375 9.14375,7.09375 L 11.55,7.09375 z M 8.14375,7.09375 C 8.260697,7.0937501 8.3625,7.1955527 8.3625,7.3125 L 8.3625,9.75 C 8.3625,9.866947 8.260699,9.9687502 8.14375,9.96875 L 3.8,9.96875 C 3.683053,9.9687496 3.612502,9.866947 3.6125,9.75 L 3.6125,7.3125 C 3.6125,7.1955527 3.683053,7.09375 3.8,7.09375 L 8.14375,7.09375 z M 2.925,7.09375 C 3.041947,7.0937501 3.14375,7.1955527 3.14375,7.3125 L 3.14375,9.75 C 3.14375,9.866947 3.041949,9.9687502 2.925,9.96875 L 0.30000001,9.96875 L 0.30000001,7.09375 L 2.925,7.09375 z M 10.675,10.375 C 10.791947,10.375 10.89375,10.476802 10.89375,10.59375 L 10.89375,13.03125 C 10.89375,13.148197 10.791949,13.25 10.675,13.25 L 6.33125,13.25 C 6.214303,13.25 6.143752,13.148198 6.14375,13.03125 L 6.14375,10.59375 C 6.14375,10.476803 6.214303,10.375 6.33125,10.375 L 10.675,10.375 z M 5.58125,10.375 C 5.698197,10.375 5.8,10.476802 5.8,10.59375 L 5.8,13.03125 C 5.8,13.148197 5.698199,13.25 5.58125,13.25 L 1.2375,13.25 C 1.120553,13.25 1.018752,13.148198 1.01875,13.03125 L 1.01875,10.59375 C 1.01875,10.476803 1.120553,10.375 1.2375,10.375 L 5.58125,10.375 z M 11.55,13.625 L 11.55,16.5 L 9.14375,16.5 C 9.026803,16.5 8.925,16.398197 8.925,16.28125 L 8.925,13.84375 C 8.925,13.726803 9.026802,13.625 9.14375,13.625 L 11.55,13.625 z M 8.14375,13.625 C 8.260697,13.625 8.3625,13.726803 8.3625,13.84375 L 8.3625,16.28125 C 8.3625,16.398198 8.260699,16.5 8.14375,16.5 L 3.8,16.5 C 3.683053,16.5 3.612502,16.398197 3.6125,16.28125 L 3.6125,13.84375 C 3.6125,13.726803 3.683053,13.625 3.8,13.625 L 8.14375,13.625 z M 2.925,13.625 C 3.041947,13.625 3.14375,13.726803 3.14375,13.84375 L 3.14375,16.28125 C 3.14375,16.398198 3.041949,16.5 2.925,16.5 L 0.30000001,16.5 L 0.30000001,13.625 L 2.925,13.625 z M 10.675,16.90625 C 10.791947,16.90625 10.89375,17.008053 10.89375,17.125 L 10.89375,19.5625 C 10.89375,19.679448 10.791949,19.78125 10.675,19.78125 L 6.33125,19.78125 C 6.214303,19.781251 6.143752,19.679448 6.14375,19.5625 L 6.14375,17.125 C 6.14375,17.008053 6.214303,16.90625 6.33125,16.90625 L 10.675,16.90625 z M 5.58125,16.90625 C 5.698197,16.90625 5.8,17.008053 5.8,17.125 L 5.8,19.5625 C 5.8,19.679448 5.698199,19.78125 5.58125,19.78125 L 1.2375,19.78125 C 1.120553,19.781251 1.018752,19.679448 1.01875,19.5625 L 1.01875,17.125 C 1.01875,17.008053 1.120553,16.90625 1.2375,16.90625 L 5.58125,16.90625 z M 11.55,20.21875 L 11.55,23.09375 L 9.14375,23.09375 C 9.026803,23.093751 8.925,22.991947 8.925,22.875 L 8.925,20.4375 C 8.925,20.320554 9.026802,20.21875 9.14375,20.21875 L 11.55,20.21875 z M 8.14375,20.21875 C 8.260697,20.218751 8.3625,20.320553 8.3625,20.4375 L 8.3625,22.875 C 8.3625,22.991949 8.260699,23.09375 8.14375,23.09375 L 3.8,23.09375 C 3.683053,23.093751 3.612502,22.991947 3.6125,22.875 L 3.6125,20.4375 C 3.6125,20.320554 3.683053,20.21875 3.8,20.21875 L 8.14375,20.21875 z M 2.925,20.21875 C 3.041947,20.218751 3.14375,20.320553 3.14375,20.4375 L 3.14375,22.875 C 3.14375,22.991949 3.041949,23.09375 2.925,23.09375 L 0.30000001,23.09375 L 0.30000001,20.21875 L 2.925,20.21875 z M 10.675,23.5 C 10.791947,23.500001 10.89375,23.601803 10.89375,23.71875 L 10.89375,26.15625 C 10.89375,26.273198 10.791949,26.375 10.675,26.375 L 6.33125,26.375 C 6.214303,26.375001 6.143752,26.273198 6.14375,26.15625 L 6.14375,23.71875 C 6.14375,23.601804 6.214303,23.5 6.33125,23.5 L 10.675,23.5 z M 5.58125,23.5 C 5.698197,23.500001 5.8,23.601803 5.8,23.71875 L 5.8,26.15625 C 5.8,26.273198 5.698199,26.375 5.58125,26.375 L 1.2375,26.375 C 1.120553,26.375001 1.018752,26.273198 1.01875,26.15625 L 1.01875,23.71875 C 1.01875,23.601804 1.120553,23.5 1.2375,23.5 L 5.58125,23.5 z M 11.55,26.78125 L 11.55,29.65625 L 9.14375,29.65625 C 9.026803,29.656249 8.925,29.554447 8.925,29.4375 L 8.925,27 C 8.925,26.883052 9.026802,26.78125 9.14375,26.78125 L 11.55,26.78125 z M 8.14375,26.78125 C 8.260697,26.781249 8.3625,26.883053 8.3625,27 L 8.3625,29.4375 C 8.3625,29.554447 8.260699,29.65625 8.14375,29.65625 L 3.8,29.65625 C 3.683053,29.656249 3.612502,29.554447 3.6125,29.4375 L 3.6125,27 C 3.6125,26.883052 3.683053,26.78125 3.8,26.78125 L 8.14375,26.78125 z M 2.925,26.78125 C 3.041947,26.781249 3.14375,26.883053 3.14375,27 L 3.14375,29.4375 C 3.14375,29.554447 3.041949,29.65625 2.925,29.65625 L 0.30000001,29.65625 L 0.30000001,26.78125 L 2.925,26.78125 z M 10.675,30.0625 C 10.791947,30.062499 10.89375,30.164303 10.89375,30.28125 L 10.89375,32.71875 C 10.89375,32.835696 10.791949,32.9375 10.675,32.9375 L 6.33125,32.9375 C 6.214303,32.937499 6.143752,32.835698 6.14375,32.71875 L 6.14375,30.28125 C 6.14375,30.164302 6.214303,30.0625 6.33125,30.0625 L 10.675,30.0625 z M 5.58125,30.0625 C 5.698197,30.062499 5.8,30.164303 5.8,30.28125 L 5.8,32.71875 C 5.8,32.835696 5.698199,32.9375 5.58125,32.9375 L 1.2375,32.9375 C 1.120553,32.937499 1.018752,32.835698 1.01875,32.71875 L 1.01875,30.28125 C 1.01875,30.164302 1.120553,30.0625 1.2375,30.0625 L 5.58125,30.0625 z M 11.55,33.28125 L 11.55,36.15625 L 9.14375,36.15625 C 9.026803,36.15625 8.925,36.054447 8.925,35.9375 L 8.925,33.5 C 8.925,33.383053 9.026802,33.28125 9.14375,33.28125 L 11.55,33.28125 z M 8.14375,33.28125 C 8.260697,33.28125 8.3625,33.383053 8.3625,33.5 L 8.3625,35.9375 C 8.3625,36.054448 8.260699,36.15625 8.14375,36.15625 L 3.8,36.15625 C 3.683053,36.15625 3.612502,36.054447 3.6125,35.9375 L 3.6125,33.5 C 3.6125,33.383053 3.683053,33.28125 3.8,33.28125 L 8.14375,33.28125 z M 2.925,33.28125 C 3.041947,33.28125 3.14375,33.383053 3.14375,33.5 L 3.14375,35.9375 C 3.14375,36.054448 3.041949,36.15625 2.925,36.15625 L 0.30000001,36.15625 L 0.30000001,33.28125 L 2.925,33.28125 z"
       id="rect3184"
       style="fill:#46231d;fill-opacity:1;fill-rule:evenodd;stroke:none;stroke-width:0.5;stroke-linecap:butt;stroke-linejoin:round;marker:none;marker-start:none;marker-mid:none;marker-end:none;stroke-miterlimit:4;stroke-dasharray:none;stroke-dashoffset:0;stroke-opacity:1;visibility:visible;display:inline;overflow:visible;enable-background:accumulate" />
    <rect
       width="11.230331"
       height="2.29935"
       ry="0.21109647"
       x="-11.524317"
       y="4.3430285"
       transform="scale(-1,1)"
       id="rect3225"
       style="fill:#393939;fill-opacity:1;fill-rule:evenodd;stroke:none;stroke-width:0.60000002;stroke-linecap:butt;stroke-linejoin:round;marker:none;marker-start:none;marker-mid:none;marker-end:none;stroke-miterlimit:4;stroke-dasharray:none;stroke-dashoffset:0;stroke-opacity:1;visibility:visible;display:inline;overflow:visible;enable-background:accumulate" />
  </g>
  <path
     d="M 36.44375,0 L 36.44375,48 L 47.7,48 L 47.7,0 L 36.44375,0 z"
     id="path2391"
     style="fill:#4d4d4d;fill-opacity:1;fill-rule:evenodd;stroke:none;marker:none;visibility:visible;display:inline;overflow:visible;enable-background:accumulate" />
  <path
     d="M 47.6875,0 L 47.6875,80 M 36.4375,80 L 36.4375,0"
     id="path3268"
     style="opacity:1;fill:none;fill-opacity:1;fill-rule:evenodd;stroke:#29211e;stroke-width:0.60000002;stroke-linecap:butt;stroke-linejoin:miter;marker:none;marker-start:none;marker-mid:none;marker-end:none;stroke-miterlimit:4;stroke-dasharray:none;stroke-dashoffset:0;stroke-opacity:1;visibility:visible;display:inline;overflow:visible;enable-background:accumulate" />
  <path
     d="M 14.9375,80 L 14.9375,30.454936"
     id="path2387"
     style="fill:none;fill-opacity:1;fill-rule:evenodd;stroke:#303030;marker:none;stroke-opacity:1;visibility:visible;display:inline;overflow:visible;enable-background:accumulate" />
</svg>
