<?xml version="1.0" encoding="UTF-8" standalone="no"?>

<svg xmlns:svg="http://www.w3.org/2000/svg" xmlns="http://www.w3.org/2000/svg" version="1.0" width="100%" height="100%" viewBox="0 0 48 80" id="svg2383">
<defs id="defs2385"/>
<path d="M 48,30.45 L 48,80 L 14.93,80 L 14.93,30.45 L 48,30.45 z" id="r2393" style="fill:#666666;fill-opacity:1;fill-rule:evenodd;stroke:none;marker:none;visibility:visible;display:inline;overflow:visible;enable-background:accumulate"/>
<g transform="matrix(-1,0,0,1,48,43.45)" id="g3263">
<path d="M 11.55,4.78 L 11.55,36.62 L 0.30,36.62 L 0.30,4.78 L 11.55,4.78 z" id="p2389" style="fill:#54322c;fill-opacity:1;fill-rule:evenodd;stroke:none;marker:none;visibility:visible;display:inline;overflow:visible;enable-background:accumulate"/>
<path d="M 11.55,7.09 L 11.55,9.96 L 9.14,9.96 C 9.02,9.96 8.92,9.86 8.92,9.75 L 8.92,7.31 C 8.92,7.19 9.02,7.09 9.14,7.09 L 11.55,7.09 z M 8.14,7.09 C 8.26,7.09 8.36,7.19 8.36,7.31 L 8.36,9.75 C 8.36,9.86 8.26,9.96 8.14,9.96 L 3.8,9.96 C 3.68,9.96 3.61,9.86 3.61,9.75 L 3.61,7.31 C 3.61,7.19 3.68,7.09 3.8,7.09 L 8.14,7.09 z M 2.92,7.09 C 3.04,7.09 3.14,7.19 3.14,7.31 L 3.14,9.75 C 3.14,9.86 3.04,9.96 2.92,9.96 L 0.30,9.96 L 0.30,7.09 L 2.92,7.09 z M 10.67,10.37 C 10.79,10.37 10.89,10.47 10.89,10.59 L 10.89,13.03 C 10.89,13.14 10.79,13.25 10.67,13.25 L 6.33,13.25 C 6.21,13.25 6.14,13.14 6.14,13.03 L 6.14,10.59 C 6.14,10.47 6.21,10.37 6.33,10.37 L 10.67,10.37 z M 5.58,10.37 C 5.69,10.37 5.8,10.47 5.8,10.59 L 5.8,13.03 C 5.8,13.14 5.69,13.25 5.58,13.25 L 1.23,13.25 C 1.12,13.25 1.01,13.14 1.01,13.03 L 1.01,10.59 C 1.01,10.47 1.12,10.37 1.23,10.37 L 5.58,10.37 z M 11.55,13.62 L 11.55,16.5 L 9.14,16.5 C 9.02,16.5 8.92,16.39 8.92,16.28 L 8.92,13.84 C 8.92,13.72 9.02,13.62 9.14,13.62 L 11.55,13.62 z M 8.14,13.62 C 8.26,13.62 8.36,13.72 8.36,13.84 L 8.36,16.28 C 8.36,16.39 8.26,16.5 8.14,16.5 L 3.8,16.5 C 3.68,16.5 3.61,16.39 3.61,16.28 L 3.61,13.84 C 3.61,13.72 3.68,13.62 3.8,13.62 L 8.14,13.62 z M 2.92,13.62 C 3.04,13.62 3.14,13.72 3.14,13.84 L 3.14,16.28 C 3.14,16.39 3.04,16.5 2.92,16.5 L 0.30,16.5 L 0.30,13.62 L 2.92,13.62 z M 10.67,16.90 C 10.79,16.90 10.89,17.00 10.89,17.12 L 10.89,19.56 C 10.89,19.67 10.79,19.78 10.67,19.78 L 6.33,19.78 C 6.21,19.78 6.14,19.67 6.14,19.56 L 6.14,17.12 C 6.14,17.00 6.21,16.90 6.33,16.90 L 10.67,16.90 z M 5.58,16.90 C 5.69,16.90 5.8,17.00 5.8,17.12 L 5.8,19.56 C 5.8,19.67 5.69,19.78 5.58,19.78 L 1.23,19.78 C 1.12,19.78 1.01,19.67 1.01,19.56 L 1.01,17.12 C 1.01,17.00 1.12,16.90 1.23,16.90 L 5.58,16.90 z M 11.55,20.21 L 11.55,23.09 L 9.14,23.09 C 9.02,23.09 8.92,22.99 8.92,22.87 L 8.92,20.43 C 8.92,20.32 9.02,20.21 9.14,20.21 L 11.55,20.21 z M 8.14,20.21 C 8.26,20.21 8.36,20.32 8.36,20.43 L 8.36,22.87 C 8.36,22.99 8.26,23.09 8.14,23.09 L 3.8,23.09 C 3.68,23.09 3.61,22.99 3.61,22.87 L 3.61,20.43 C 3.61,20.32 3.68,20.21 3.8,20.21 L 8.14,20.21 z M 2.92,20.21 C 3.04,20.21 3.14,20.32 3.14,20.43 L 3.14,22.87 C 3.14,22.99 3.04,23.09 2.92,23.09 L 0.30,23.09 L 0.30,20.21 L 2.92,20.21 z M 10.67,23.5 C 10.79,23.50 10.89,23.60 10.89,23.71 L 10.89,26.15 C 10.89,26.27 10.79,26.37 10.67,26.37 L 6.33,26.37 C 6.21,26.37 6.14,26.27 6.14,26.15 L 6.14,23.71 C 6.14,23.60 6.21,23.5 6.33,23.5 L 10.67,23.5 z M 5.58,23.5 C 5.69,23.50 5.8,23.60 5.8,23.71 L 5.8,26.15 C 5.8,26.27 5.69,26.37 5.58,26.37 L 1.23,26.37 C 1.12,26.37 1.01,26.27 1.01,26.15 L 1.01,23.71 C 1.01,23.60 1.12,23.5 1.23,23.5 L 5.58,23.5 z M 11.55,26.78 L 11.55,29.65 L 9.14,29.65 C 9.02,29.65 8.92,29.55 8.92,29.43 L 8.92,27 C 8.92,26.88 9.02,26.78 9.14,26.78 L 11.55,26.78 z M 8.14,26.78 C 8.26,26.78 8.36,26.88 8.36,27 L 8.36,29.43 C 8.36,29.55 8.26,29.65 8.14,29.65 L 3.8,29.65 C 3.68,29.65 3.61,29.55 3.61,29.43 L 3.61,27 C 3.61,26.88 3.68,26.78 3.8,26.78 L 8.14,26.78 z M 2.92,26.78 C 3.04,26.78 3.14,26.88 3.14,27 L 3.14,29.43 C 3.14,29.55 3.04,29.65 2.92,29.65 L 0.30,29.65 L 0.30,26.78 L 2.92,26.78 z M 10.67,30.06 C 10.79,30.06 10.89,30.16 10.89,30.28 L 10.89,32.71 C 10.89,32.83 10.79,32.93 10.67,32.93 L 6.33,32.93 C 6.21,32.93 6.14,32.83 6.14,32.71 L 6.14,30.28 C 6.14,30.16 6.21,30.06 6.33,30.06 L 10.67,30.06 z M 5.58,30.06 C 5.69,30.06 5.8,30.16 5.8,30.28 L 5.8,32.71 C 5.8,32.83 5.69,32.93 5.58,32.93 L 1.23,32.93 C 1.12,32.93 1.01,32.83 1.01,32.71 L 1.01,30.28 C 1.01,30.16 1.12,30.06 1.23,30.06 L 5.58,30.06 z M 11.55,33.28 L 11.55,36.15 L 9.14,36.15 C 9.02,36.15 8.92,36.05 8.92,35.93 L 8.92,33.5 C 8.92,33.38 9.02,33.28 9.14,33.28 L 11.55,33.28 z M 8.14,33.28 C 8.26,33.28 8.36,33.38 8.36,33.5 L 8.36,35.93 C 8.36,36.05 8.26,36.15 8.14,36.15 L 3.8,36.15 C 3.68,36.15 3.61,36.05 3.61,35.93 L 3.61,33.5 C 3.61,33.38 3.68,33.28 3.8,33.28 L 8.14,33.28 z M 2.92,33.28 C 3.04,33.28 3.14,33.38 3.14,33.5 L 3.14,35.93 C 3.14,36.05 3.04,36.15 2.92,36.15 L 0.30,36.15 L 0.30,33.28 L 2.92,33.28 z" id="r3184" style="fill:#46231d;fill-opacity:1;fill-rule:evenodd;stroke:none;marker:none;visibility:visible;display:inline;overflow:visible;enable-background:accumulate"/>
<rect width="11.23" height="2.29" ry="0.21" x="-11.52" y="4.34" transform="scale(-1,1)" id="r3225" style="fill:#393939;fill-opacity:1;fill-rule:evenodd;stroke:none;marker:none;visibility:visible;display:inline;overflow:visible;enable-background:accumulate"/>
</g>
<path d="M 36.44,0 L 36.44,48 L 47.7,48 L 47.7,0 L 36.44,0 z" id="p2391" style="fill:#4d4d4d;fill-opacity:1;fill-rule:evenodd;stroke:none;marker:none;visibility:visible;display:inline;overflow:visible;enable-background:accumulate"/>
<path d="M 47.68,0 L 47.68,80 M 36.43,80 L 36.43,0" id="p3268" style="opacity:1;fill:none;fill-opacity:1;fill-rule:evenodd;stroke:#29211e;stroke-width:0.60;stroke-linecap:butt;stroke-linejoin:miter;marker:none;stroke-miterlimit:4;stroke-dasharray:none;stroke-dashoffset:0;stroke-opacity:1;visibility:visible;display:inline;overflow:visible;enable-background:accumulate"/>
<path d="M 14.93,80 L 14.93,30.45" id="p2387" style="fill:none;fill-opacity:1;fill-rule:evenodd;stroke:#303030;marker:none;stroke-opacity:1;visibility:visible;display:inline;overflow:visible;enable-background:accumulate"/>
</svg>
