<?xml version="1.0" encoding="UTF-8" standalone="no"?>
<svg xmlns:dc="http://purl.org/dc/elements/1.1/" xmlns:cc="http://creativecommons.org/ns#" xmlns:rdf="http://www.w3.org/1999/02/22-rdf-syntax-ns#" xmlns:svg="http://www.w3.org/2000/svg" xmlns="http://www.w3.org/2000/svg" width="100%" height="100%" viewBox="0 0 64 64" version="1.1" id="svg5491">
 <defs id="defs5493" />
 <g id="layer1">
 <path id="path6540" d="M 30.883,0.857 A 26.682,26.682 0 0 0 27.551,1.099 l 2.924,22.725 a 3.742,3.742 0 0 0 -0.858,0.197 L 21.293,2.644 A 26.682,26.682 0 0 0 14.701,6.349 L 28.603,24.575 a 3.742,3.742 0 0 0 -0.613,0.595 L 10.108,10.832 a 26.682,26.682 0 0 0 -3.856,6.463 l 21.164,8.838 a 3.742,3.742 0 0 0 -0.221,0.792 L 4.548,23.451 a 26.682,26.682 0 0 0 -0.348,4.088 26.682,26.682 0 0 0 0.250,3.396 L 27.175,28.011 a 3.742,3.742 0 0 0 0.182,0.772 L 5.980,37.108 a 26.682,26.682 0 0 0 3.641,6.514 L 27.847,29.721 a 3.742,3.742 0 0 0 0.516,0.580 L 14.016,48.193 a 26.682,26.682 0 0 0 6.368,3.871 l 8.842,-21.174 a 3.742,3.742 0 0 0 0.725,0.269 l -3.478,22.666 a 26.682,26.682 0 0 0 4.408,0.397 26.682,26.682 0 0 0 3.042,-0.207 L 31.000,31.278 a 3.742,3.742 0 0 0 0.781,-0.109 l 8.327,21.388 a 26.682,26.682 0 0 0 6.580,-3.558 L 32.779,30.761 a 3.742,3.742 0 0 0 0.653,-0.485 l 17.922,14.371 a 26.682,26.682 0 0 0 3.950,-6.397 l -21.180,-8.845 a 3.742,3.742 0 0 0 0.338,-0.777 l 22.681,3.481 a 26.682,26.682 0 0 0 0.421,-4.567 26.682,26.682 0 0 0 -0.199,-2.979 L 34.624,27.488 A 3.742,3.742 0 0 0 34.507,26.620 L 55.893,18.293 A 26.682,26.682 0 0 0 52.272,11.635 L 34.044,25.539 A 3.742,3.742 0 0 0 33.478,24.848 L 47.831,6.947 A 26.682,26.682 0 0 0 41.343,2.998 L 32.502,24.171 A 3.742,3.742 0 0 0 31.655,23.879 L 35.131,1.230 A 26.682,26.682 0 0 0 30.883,0.857 Z" style="fill:#63abe9;stroke-width:1px;stroke-linecap:butt;stroke-opacity:1" />
 <g transform="translate(8.412,0)" id="g6323">
 <path style="fill:none;stroke:#ffffff;stroke-width:3.599;stroke-linecap:butt;marker:none;" d="m 21.580,4.345 c -1.893,0 -7.396,14.232 -7.396,15.361 0,0.133 0.050,0.264 0.138,0.390 -0.101,0.089 -0.202,0.178 -0.300,0.271 -2.812,1.080 -4.401,1.136 -5.181,0.667 -0.431,0.538 -0.215,2.154 0,2.693 -1.939,-0.107 -3.446,-0.214 -4.201,-0.968 -0.215,1.616 0.106,3.340 0.429,3.771 -0.862,0 -1.184,0.322 -1.615,0.214 0.616,2.818 1.882,5.418 4.324,6.333 0.034,0.074 0.067,0.188 0.101,0.244 0.453,0.744 1.304,1.385 2.134,1.560 0.067,0.811 0.640,1.500 1.443,1.695 -0.244,0.327 -0.377,0.725 -0.378,1.134 4.97e-4,1.053 0.854,1.906 1.908,1.906 0.029,5e-5 0.059,-4.53e-4 0.089,-0.002 -0.005,0.055 -0.007,0.111 -0.007,0.167 8.76e-4,0.606 0.290,1.176 0.779,1.535 -0.075,0.184 -0.114,0.381 -0.115,0.580 1.34e-4,0.255 0.069,0.493 0.179,0.705 -1.684,0.224 -2.943,1.660 -2.945,3.359 5.72e-4,1.868 1.512,3.385 3.380,3.392 0.020,1.869 0.050,4.071 0.050,4.646 l 12,0 c 0.110,0.089 0.244,0.150 0.398,0.150 l 1.722,0 c 0.352,0.654 0.799,1.250 1.322,1.769 l -0.347,4.722 c -0.026,0.354 0.237,0.661 0.591,0.687 l 0.126,0.009 c 0.353,0.026 0.659,-0.236 0.685,-0.591 l 0.279,-3.779 c 1.144,0.711 2.490,1.128 3.935,1.128 0.186,0 0.368,-0.013 0.550,-0.027 l 0.097,2.658 c 0.013,0.355 0.307,0.630 0.662,0.617 l 0.128,-0.003 c 0.354,-0.013 0.628,-0.310 0.615,-0.666 L 37.064,57.837 c 1.563,-0.422 2.924,-1.335 3.906,-2.570 l 0.791,5.509 c 0.050,0.352 0.373,0.595 0.724,0.544 l 0.126,-0.017 c 0.351,-0.050 0.593,-0.376 0.542,-0.728 l -0.921,-6.417 0.957,0 c 0.354,0 0.640,-0.286 0.640,-0.642 0,-0.355 -0.285,-0.640 -0.640,-0.640 l -0.943,0 c 0.229,-0.721 0.357,-1.488 0.357,-2.287 0,-1.375 -0.179,-2.267 -0.626,-2.853 l -2.160,0 c 0.288,-0.367 0.446,-0.821 0.447,-1.289 5e-6,-1.154 -0.933,-2.090 -2.083,-2.089 -0.716,0.001 -1.382,0.372 -1.761,0.982 -0.153,-0.021 -0.308,-0.031 -0.462,-0.031 l -0.490,-1.753 c 0.039,0.001 0.073,0.015 0.113,0.015 0.931,-0.004 1.648,-0.494 1.640,-1.148 -0.003,-0.259 -0.181,-0.506 -0.386,-0.701 0.655,-0.272 1.145,-0.737 1.140,-1.314 -0.004,-0.544 -0.430,-1.027 -1.025,-1.300 0.366,-0.223 0.635,-0.503 0.781,-0.810 0.013,0.541 0.454,0.973 0.994,0.974 0.551,9.85e-4 0.998,-0.447 0.998,-1 2.84e-4,-0.552 -0.446,-1.000 -0.998,-1 -0.368,8.57e-4 -0.706,0.205 -0.878,0.533 -6.34e-4,-0.017 0.007,-0.034 0.005,-0.052 -0.067,-0.744 -0.956,-1.244 -2.033,-1.261 0.214,-0.294 0.330,-0.630 0.255,-0.935 -0.121,-0.501 -0.664,-0.824 -1.349,-0.876 0.610,-0.289 1.174,-0.789 1.513,-1.347 0.027,-0.045 0.054,-0.139 0.082,-0.197 2.535,-0.866 3.842,-3.507 4.470,-6.380 -0.431,0.107 -0.753,-0.214 -1.615,-0.214 0.323,-0.431 0.645,-2.155 0.429,-3.771 -0.754,0.754 -2.261,0.860 -4.201,0.968 0.215,-0.538 0.431,-2.154 0,-2.693 -0.811,0.487 -2.484,0.421 -5.515,-0.791 -0.305,-0.280 -0.625,-0.544 -0.958,-0.791 -0.446,-2.132 -5.539,-15.109 -7.349,-15.109 z M 39.449,33.724 c -0.699,2.24e-4 -1.267,0.569 -1.267,1.271 3.24e-4,0.702 0.567,1.271 1.267,1.271 0.700,8.59e-4 1.269,-0.568 1.269,-1.271 -3.23e-4,-0.702 -0.568,-1.272 -1.269,-1.271 z m 1.630,8.177 c -0.699,2.24e-4 -1.267,0.569 -1.267,1.271 3.24e-4,0.702 0.567,1.271 1.267,1.271 0.699,-2.24e-4 1.267,-0.569 1.267,-1.271 -3.24e-4,-0.702 -0.567,-1.271 -1.267,-1.271 z m -7.544,1.021 0.791,2.824 c -0.761,0.433 -1.324,1.145 -1.570,1.986 l -3.322,0 c 4.55e-4,-0.120 0.003,-0.230 0.003,-0.343 1.623,-1.167 2.901,-2.765 4.097,-4.466 z" id="path6221-7" />
 <path style="fill:#4a9bb6;stroke-width:0.5;marker:none;" d="m 29.894,38.226 c -0.099,-10e-4 -0.200,0.035 -0.277,0.111 l -2.277,2.242 c -0.077,-0.178 -0.180,-0.421 -0.240,-0.560 -0.388,-0.906 -0.915,-1.125 -2.128,-1.171 -1.016,-0.005 -2.033,-0.013 -3.050,0 -0.023,-3.4e-4 -0.048,3.1e-4 -0.072,0 -1.017,-0.013 -2.033,-0.005 -3.050,0 -1.213,0.046 -1.740,0.265 -2.128,1.171 -0.259,0.604 -0.709,1.645 -1.146,2.763 a 3.393,3.393 0 0 0 -1.162,-0.208 3.393,3.393 0 0 0 -3.392,3.394 3.393,3.393 0 0 0 3.380,3.392 c 0.020,1.869 0.050,4.071 0.050,4.646 l 14.970,0 c 0,-0.819 0.065,-4.443 0.068,-6.617 1.736,-1.248 3.081,-2.984 4.349,-4.818 0.122,-0.177 0.154,-0.397 0.002,-0.552 l -3.619,-3.673 c -0.076,-0.077 -0.175,-0.117 -0.275,-0.119 z" id="path6025-5-3" />
 <path style="fill:#6ec3d6;fill-rule:nonzero;stroke-width:0.5;stroke-linecap:round;marker:none;" d="m 28.443,41.864 -0.541,1.869 -1.900,0.416 1.611,1.091 -0.191,1.935 1.535,-1.195 1.439,0.630 c 0.072,-0.064 0.147,-0.128 0.218,-0.195 l -0.537,-1.484 1.292,-1.453 -1.945,0.064 -0.982,-1.679 z m -5.175,3.410 -0.402,1.753 -1.734,0.482 1.544,0.923 -0.078,1.796 1.355,-1.181 1.685,0.628 -0.705,-1.654 1.119,-1.410 -1.791,0.160 -0.994,-1.5 z m -9.734,0.197 -1,1.261 -1.525,-0.265 a 3.393,3.393 0 0 0 0.017,0.109 l 0.812,1.220 -0.140,0.265 a 3.393,3.393 0 0 0 0.824,0.755 l 0.113,-0.031 0.205,0.210 a 3.393,3.393 0 0 0 0.941,0.312 l 0.041,-0.976 1.447,-0.708 -1.509,-0.560 -0.226,-1.593 z m 5.265,2.273 -1.501,2.070 -2.535,-0.333 1.503,2.066 -1.099,2.308 2.431,-0.792 0.994,0.943 0.859,0 -0.002,-1.740 2.248,-1.220 -2.433,-0.787 -0.464,-2.513 z m 5.998,3.527 -0.085,1.626 -1.470,0.701 1.058,0.406 2.765,0 -0.351,-0.541 0.777,-1.431 -1.574,0.421 -1.119,-1.183 z" id="path5447-4" />
 <path id="path5475-0" d="m 29.894,38.226 c -0.099,-10e-4 -0.200,0.035 -0.277,0.111 l -2.277,2.242 c -0.077,-0.178 -0.180,-0.421 -0.240,-0.560 -0.388,-0.906 -0.915,-1.125 -2.128,-1.171 -1.016,-0.005 -2.033,-0.013 -3.050,0 -0.023,-3.4e-4 -0.048,3.1e-4 -0.072,0 -1.017,-0.013 -2.033,-0.005 -3.050,0 -1.213,0.046 -1.740,0.265 -2.128,1.171 -0.259,0.604 -0.709,1.645 -1.146,2.763 a 3.393,3.393 0 0 0 -1.162,-0.208 3.393,3.393 0 0 0 -3.392,3.394 3.393,3.393 0 0 0 3.380,3.392 c 0.020,1.869 0.050,4.071 0.050,4.646 l 14.970,0 c 0,-0.819 0.065,-4.443 0.068,-6.617 1.736,-1.248 3.081,-2.984 4.349,-4.818 0.122,-0.177 0.154,-0.397 0.002,-0.552 l -3.619,-3.673 c -0.076,-0.077 -0.175,-0.117 -0.275,-0.119 z" style="fill:none;fill-rule:nonzero;stroke:#000000;stroke-width:0.499;stroke-linecap:round;marker:none;" />
 <path style="fill:#808080;fill-rule:nonzero;stroke:#000000;stroke-width:0.5;stroke-linecap:butt;marker:none;" d="m 17.784,18.666 c -5.280,2.693 -7.867,3.017 -8.945,2.371 -0.431,0.538 -0.215,2.154 0,2.693 -1.939,-0.107 -3.446,-0.214 -4.201,-0.968 -0.215,1.616 0.106,3.340 0.429,3.771 -0.862,0 -1.184,0.322 -1.615,0.214 0.754,3.448 2.478,6.573 6.142,6.681 2.878,0.084 9.237,1.658 12.419,1.633 3.183,0.024 9.754,-1.549 12.633,-1.633 3.663,-0.107 5.388,-3.233 6.142,-6.681 -0.431,0.107 -0.753,-0.214 -1.615,-0.214 0.323,-0.431 0.645,-2.155 0.429,-3.771 -0.754,0.754 -2.261,0.860 -4.201,0.968 0.215,-0.538 0.431,-2.154 0,-2.693 -1.077,0.646 -3.665,0.322 -8.945,-2.371 -1.700,-0.674 -6.542,-0.805 -8.673,0 z" id="path4981-0" />
 <path id="path4899-9" d="m 33.567,26.927 c 4.494,-1.592 3.476,5.072 2.669,6.398 -0.774,1.273 -2.723,2.284 -3.716,1.081 0.869,-1.803 1.501,-5.695 1.046,-7.480 z" style="fill:#ffc78f;stroke:#000000;stroke-width:0.5;stroke-linecap:butt;stroke-opacity:1" />
 <path id="path4901-2" d="m 33.607,28.330 c 1.104,-0.639 2.245,0.204 2.157,0.857" style="fill:none;stroke:#000000;stroke-width:0.5;stroke-linecap:butt;stroke-opacity:1" />
 <path style="fill:#ffc78f;stroke:#000000;stroke-width:0.5;stroke-linecap:butt;stroke-opacity:1" d="m 10.547,26.927 c -4.494,-1.592 -3.476,5.072 -2.669,6.398 0.774,1.273 2.723,2.284 3.716,1.081 -0.869,-1.803 -1.501,-5.695 -1.046,-7.480 z" id="path3688-8-8" />
 <path style="fill:none;stroke:#000000;stroke-width:0.5;stroke-linecap:butt;stroke-opacity:1" d="m 10.508,28.330 c -1.104,-0.639 -2.245,0.204 -2.157,0.857" id="path3690-2-4" />
 <path style="fill:#ffc78f;stroke:#000000;stroke-width:0.5;stroke-linecap:round;stroke-linejoin:round;marker:none;" d="m 33.673,28.815 c 0,6.429 -5.219,12.998 -11.649,12.998 -6.430,0 -11.649,-6.569 -11.649,-12.998 0,-6.429 5.219,-11.646 11.649,-11.646 6.430,0 11.649,5.217 11.649,11.646 z" id="path3524-4-9" />
 <rect style="fill:#808080;fill-rule:nonzero;stroke:#000000;stroke-width:0.5;stroke-linecap:butt;marker:none;" id="rect4954-1" width="4.495" height="2.133" x="10.346" y="28.689" rx="1.066" ry="1.066" transform="matrix(0.980,-0.197,0.197,0.980,0,0)" />
 <rect transform="matrix(-0.980,-0.197,-0.197,0.980,0,0)" ry="1.066" rx="1.066" y="19.973" x="-32.899" height="2.133" width="4.495" id="rect4956-0" style="fill:#808080;fill-rule:nonzero;stroke:#000000;stroke-width:0.5;stroke-linecap:butt;marker:none;" />
 <path id="path5031-1" d="m 11.814,23.030 c -0.215,1.346 -0.118,2.209 0.258,2.694 0.377,0.484 -1.185,0.538 -0.915,4.310 -0.700,-0.161 -0.969,-1.885 -0.969,-3.663 0.022,-0.937 -0.139,-1.712 0.183,-2.423 0.323,-0.710 1.530,-2.449 1.443,-0.918 z" style="fill:#808080;fill-rule:nonzero;stroke-width:0.5;stroke-linecap:round;marker:none;" />
 <path style="fill:none;fill-rule:nonzero;stroke:#000000;stroke-width:0.5;stroke-linecap:round;marker:none;" d="m 11.814,23.030 c -0.215,1.346 -0.118,2.209 0.258,2.694 0.377,0.484 -1.185,0.538 -0.915,4.310 -0.700,-0.161 -0.969,-1.885 -0.969,-3.663" id="path5015-0" />
 <path style="fill:#808080;fill-rule:nonzero;stroke-width:0.5;stroke-linecap:round;marker:none;" d="m 32.301,23.030 c 0.215,1.346 0.118,2.209 -0.258,2.694 -0.377,0.484 1.185,0.538 0.915,4.310 0.700,-0.161 0.969,-1.885 0.969,-3.663 -0.022,-0.937 0.139,-1.712 -0.183,-2.423 -0.323,-0.710 -1.530,-2.449 -1.443,-0.918 z" id="path5055-7" />
 <path id="path5057-1" d="m 32.301,23.030 c 0.215,1.346 0.118,2.209 -0.258,2.694 -0.377,0.484 1.185,0.538 0.915,4.310 0.700,-0.161 0.969,-1.885 0.969,-3.663" style="fill:none;fill-rule:nonzero;stroke:#000000;stroke-width:0.5;stroke-linecap:round;marker:none;" />
 <path style="fill:#4a9bb6;fill-rule:nonzero;stroke-width:0.5;stroke-linecap:round;marker:none;" d="m 28.975,19.707 c -10e-7,1.128 -3.311,2.043 -7.396,2.043 -4.084,0 -7.396,-0.914 -7.396,-2.043 0,-1.128 5.502,-15.362 7.396,-15.362 1.893,0 7.396,14.234 7.396,15.362 z" id="path5092-4" />
 <path style="fill:#808080;fill-rule:nonzero;stroke:#000000;stroke-width:0.5;stroke-linecap:butt;marker:none;" d="m 11.077,29.009 c -0.687,-1.9e-4 -1.244,0.556 -1.244,1.244 6.74e-4,0.138 0.024,0.275 0.070,0.406 -0.259,0.333 -0.401,0.744 -0.402,1.167 6.65e-4,0.685 0.369,1.317 0.964,1.656 -0.300,0.345 -0.465,0.788 -0.466,1.246 7.881e-4,0.879 0.602,1.644 1.457,1.851 -0.244,0.327 -0.377,0.725 -0.378,1.134 4.97e-4,1.053 0.854,1.906 1.908,1.906 0.029,5e-5 0.059,-5e-4 0.089,-0.002 -0.005,0.055 -0.007,0.111 -0.007,0.167 8.76e-4,0.606 0.290,1.176 0.779,1.535 -0.075,0.184 -0.114,0.381 -0.115,0.580 4.46e-4,0.846 0.686,1.532 1.533,1.533 0.327,-10e-4 0.646,-0.107 0.910,-0.302 0.066,0.040 0.141,0.057 0.210,0.091 a 1.326,1.326 0 0 0 1.324,1.289 1.326,1.326 0 0 0 0.783,-0.257 c 0.335,0.552 0.936,0.921 1.623,0.921 0.481,-8.1e-4 0.932,-0.193 1.281,-0.515 a 1.326,1.326 0 0 0 1.289,1.011 1.326,1.326 0 0 0 1.052,-0.523 c 0.085,0.012 0.170,0.027 0.257,0.027 0.990,-0.001 1.815,-0.760 1.898,-1.748 0.219,0.057 0.445,0.087 0.671,0.087 0.483,-9.2e-4 0.957,-0.133 1.371,-0.384 0.263,0.195 0.582,0.301 0.910,0.302 0.837,-4.4e-4 1.516,-0.673 1.531,-1.507 a 1.326,1.326 0 0 0 0.183,0.015 1.326,1.326 0 0 0 1.326,-1.326 1.326,1.326 0 0 0 -0.482,-1.025 c 0.919,-0.135 1.628,-0.919 1.628,-1.876 -0.001,-0.409 -0.134,-0.806 -0.378,-1.134 0.854,-0.207 1.456,-0.972 1.457,-1.851 -9.49e-4,-0.457 -0.166,-0.900 -0.466,-1.246 0.595,-0.338 0.964,-0.970 0.964,-1.656 -8.2e-4,-0.423 -0.142,-0.834 -0.402,-1.167 0.045,-0.130 0.069,-0.267 0.070,-0.406 1.92e-4,-0.687 -0.556,-1.244 -1.244,-1.244 -0.646,6.4e-4 -1.184,0.496 -1.238,1.140 -0.592,0.320 -0.960,0.930 -0.988,1.599 a 2.855,3.071 0 0 1 0.046,0.546 2.855,3.071 0 0 1 -2.855,3.072 2.855,3.071 0 0 1 -1.162,-0.269 c -0.735,0.264 -1.246,0.951 -1.263,1.746 -0.355,-0.345 -0.832,-0.538 -1.328,-0.539 -0.643,1.4e-4 -1.243,0.324 -1.595,0.863 -0.214,0.040 -0.412,0.117 -0.593,0.220 -0.181,-0.103 -0.380,-0.180 -0.595,-0.220 -0.352,-0.538 -0.952,-0.863 -1.595,-0.863 -0.495,1.6e-4 -0.972,0.193 -1.328,0.539 -0.017,-0.794 -0.527,-1.481 -1.261,-1.746 a 2.855,3.071 0 0 1 -1.164,0.269 2.855,3.071 0 0 1 -2.855,-3.072 2.855,3.071 0 0 1 0.046,-0.550 c -0.029,-0.667 -0.396,-1.275 -0.988,-1.595 -0.053,-0.644 -0.591,-1.139 -1.238,-1.140 z" id="path4777-5" />
 <g id="g6317">
 <path style="fill:#2a2a2a;stroke:none" d="m 18.426,36.656 c -1.384,0 -0.699,2.490 2.995,2.683 0.423,0 0.752,0 1.127,0 3.706,-0.187 4.381,-2.683 2.995,-2.683 -2.372,0 -4.745,0 -7.117,0 z" id="path3208" />
 <path style="fill:#5b1f1f;stroke-width:0.5;marker:none;" d="m 21.914,37.658 c -1.132,0 -2.065,0.516 -2.466,1.252 0.530,0.212 1.163,0.387 1.973,0.429 0.423,0 0.752,0 1.127,0 0.777,-0.039 1.383,-0.195 1.902,-0.393 C 24.064,38.188 23.068,37.658 21.914,37.658 Z" id="path3210" />
 <path style="fill:#f3f3f3;stroke:none" d="m 18.990,36.656 c 0.403,0.597 1.200,1.163 2.537,1.252 0.331,0 0.622,0 0.916,0 1.340,-0.086 2.134,-0.654 2.537,-1.252 -1.996,0 -3.993,0 -5.990,0 z" id="path3212" />
 <path id="path3214" d="m 18.426,36.656 c -1.384,0 -0.699,2.490 2.995,2.683 0.423,0 0.752,0 1.127,0 3.706,-0.187 4.381,-2.683 2.995,-2.683 -2.372,0 -4.745,0 -7.117,0 z" style="fill:none;stroke:#000000;stroke-width:0.5;stroke-linecap:butt;stroke-opacity:1" />
 </g>
 <path style="fill:#999999;stroke:#000000;stroke-width:0.5;stroke-linecap:butt;stroke-opacity:1" d="m 19.755,34.307 c -1.901,0.066 -4.812,1.029 -4.636,3.251 0.289,0.113 2.312,0.796 2.312,0.796 0,0 1.960,-1.523 4.201,-1.639 0.141,-0.006 0.275,-0.014 0.425,-0.016 0.148,0.002 0.282,0.010 0.421,0.016 2.241,0.115 4.205,1.639 4.205,1.639 0,0 2.021,-0.683 2.310,-0.796 0.175,-2.221 -2.733,-3.184 -4.634,-3.251 -0.068,-0.002 -0.143,0.009 -0.212,0.009 -0.644,-0.025 -1.343,0.042 -2.082,0.230 0,0 -0.007,0.005 -0.007,0.006 -8.01e-4,-6.08e-4 -0.009,-0.006 -0.009,-0.006 -0.738,-0.187 -1.435,-0.255 -2.080,-0.230 -0.069,5.5e-5 -0.144,-0.011 -0.212,-0.009 z" id="path3457-3-9-8" />
 <path style="fill:#ffc78f;stroke:#000000;stroke-width:0.5;stroke-linecap:round;stroke-opacity:1" d="m 20.892,32.783 c -0.393,2.065 -0.372,3.098 1.103,3.098 1.475,0 1.623,-0.899 1.278,-3.049" id="path4381-9-3" />
 <path style="fill:#6ec3d6;fill-rule:nonzero;stroke-width:0.5;stroke-linecap:round;marker:none;" d="m 23.763,7.025 -1.218,1.322 -2.208,-0.560 1.117,1.988 -1.216,1.927 2.236,-0.447 1.458,1.751 0.263,-2.265 1.181,-0.472 C 25.220,9.928 25.066,9.580 24.909,9.252 l -0.669,-0.306 -0.076,-1.158 c -0.133,-0.256 -0.269,-0.526 -0.400,-0.761 z m -6.375,4.107 c -0.394,0.889 -0.768,1.772 -1.125,2.648 l -0.003,0.011 c -9.3e-5,2.3e-4 -0.001,-2.3e-4 -0.002,0 -0.319,0.784 -0.601,1.504 -0.865,2.203 l 0.380,0.259 -0.328,3.167 2.521,-1.943 2.910,1.291 -1.068,-2.999 2.128,-2.369 -3.183,0.089 -1.365,-2.359 z m 8.457,4.687 -1.601,1.652 -2.216,-0.623 1.076,2.035 -1.277,1.914 2.267,-0.392 0.875,1.107 c 0.224,-0.032 0.454,-0.061 0.664,-0.099 l 0.212,-1.480 2.160,-0.798 -2.066,-1.013 -0.093,-2.300 z" id="path5113-7" />
 <path style="fill:none;fill-rule:nonzero;stroke:#000000;stroke-width:0.499;stroke-linecap:round;marker:none;" d="m 28.975,19.707 c -10e-7,1.128 -3.311,2.043 -7.396,2.043 -4.084,0 -7.396,-0.914 -7.396,-2.043 0,-1.128 5.502,-15.362 7.396,-15.362 1.893,0 7.396,14.234 7.396,15.362 z" id="path5108-1" />
 <path style="fill:#ffc78f;stroke:#000000;stroke-width:0.5;stroke-linecap:round;marker:none;" d="m 33.262,36.155 a 3.740,3.732 77.562 0 0 -0.631,0.083 3.740,3.732 77.562 0 0 -2.790,2.659 c 0.526,1.543 1.346,3.149 2.881,4.659 a 3.740,3.732 77.562 0 0 1.522,-0.012 3.740,3.732 77.562 0 0 2.838,-4.457 3.740,3.732 77.562 0 0 -3.818,-2.931 z" id="path3522-38-0" />
 <path style="fill:#664c29;stroke:#000000;stroke-width:0.5;stroke-linecap:butt;marker:none;" d="m 31.585,34.517 c -0.207,0.058 -0.326,0.275 -0.267,0.484 l 3.009,10.744 a 3.378,3.378 0 0 0 -1.586,3.843 3.378,3.378 0 0 0 4.163,2.342 3.378,3.378 0 0 0 2.342,-4.165 3.378,3.378 0 0 0 -3.287,-2.462 l -3.013,-10.759 c -0.058,-0.209 -0.273,-0.333 -0.480,-0.275 l -0.878,0.246 z" id="rect5374-8" />
 <path style="fill:#ffc78f;stroke:#000000;stroke-width:0.5;stroke-linecap:round;marker:none;" d="m 33.777,34.762 c 1.093,-0.296 2.122,0.069 2.296,0.788 0.074,0.305 -0.040,0.640 -0.255,0.935 1.076,0.017 1.964,0.518 2.032,1.262 0.047,0.521 -0.326,1.004 -0.901,1.354 0.594,0.272 1.020,0.755 1.025,1.300 0.004,0.577 -0.485,1.042 -1.140,1.315 0.204,0.194 0.382,0.441 0.385,0.701 0.007,0.653 -0.707,1.143 -1.639,1.147 -0.931,0.004 -1.721,-0.490 -1.729,-1.144 -0.003,-0.326 0.157,-0.625 0.460,-0.841 -0.441,-0.280 -0.718,-0.726 -0.722,-1.181 -0.003,-0.409 0.237,-0.740 0.607,-1.012 -0.571,-0.217 -0.975,-0.576 -1.020,-1.069 -0.025,-0.283 0.092,-0.594 0.274,-0.846 -0.684,-0.046 -1.221,-0.358 -1.343,-0.859 -0.174,-0.718 0.575,-1.552 1.669,-1.848 z" id="path3525-8-7" />
 <ellipse ry="1.552" rx="2.180" cy="33.988" cx="-35.738" transform="matrix(-0.993,-0.116,-0.115,0.993,0,0)" id="path3527-1-8" style="fill:#ffc78f;stroke:#000000;stroke-width:0.500;stroke-linecap:round;marker:none;" />
 <ellipse style="fill:#f53000;fill-opacity:0.685;fill-rule:nonzero;stroke:#000000;stroke-width:0.499;stroke-linecap:butt;marker:none;" id="path5187-9-0" cx="38.182" cy="46.445" rx="2.083" ry="2.089" />
 <rect transform="matrix(-0.999,0.037,0.036,0.999,0,0)" ry="0.642" rx="0.640" y="54.568" x="-34.905" height="8.095" width="1.408" id="rect5177-6-2" style="fill:#333333;fill-rule:nonzero;stroke:#000000;stroke-width:0.499;stroke-linecap:butt;marker:none;" />
 <path style="fill:none;stroke:#ffffff;stroke-width:1px;stroke-linecap:butt;stroke-opacity:1" d="m 13.647,54.078 18.438,0" id="path6242-4" />
 <path style="fill:#4a3939;fill-rule:nonzero;stroke-width:0.5;stroke-linecap:round;marker:none;" d="m 28.247,47.734 c -0.447,0.586 -0.626,1.477 -0.626,2.853 0,4.151 3.354,7.517 7.492,7.517 4.138,0 7.491,-3.365 7.491,-7.517 0,-1.375 -0.179,-2.267 -0.626,-2.853 l -13.730,0 z" id="path5124-9-3" />
 <path style="fill:#6c5353;fill-rule:nonzero;stroke-width:0.5;stroke-linecap:round;marker:none;" d="m 28.249,47.734 c -0.006,0.008 -0.013,0.017 -0.019,0.026 -0.042,0.058 -0.083,0.118 -0.121,0.182 -0.017,0.028 -0.032,0.059 -0.048,0.089 -0.033,0.062 -0.066,0.126 -0.096,0.194 -0.003,0.006 -0.003,0.013 -0.006,0.019 -0.068,0.162 -0.122,0.345 -0.168,0.542 -0.009,0.041 -0.020,0.080 -0.028,0.124 -0.039,0.194 -0.067,0.409 -0.089,0.639 -0.006,0.078 -0.013,0.160 -0.018,0.243 -0.003,0.058 -0.005,0.125 -0.008,0.185 l 14.939,0 c -0.003,-0.054 -0.003,-0.116 -0.006,-0.169 -0.006,-0.097 -0.013,-0.191 -0.022,-0.283 -0.019,-0.194 -0.044,-0.376 -0.076,-0.545 -0.008,-0.046 -0.014,-0.098 -0.023,-0.142 -0.046,-0.211 -0.107,-0.400 -0.178,-0.573 -0.025,-0.061 -0.053,-0.121 -0.081,-0.178 -0.037,-0.075 -0.078,-0.147 -0.122,-0.215 -0.030,-0.048 -0.062,-0.095 -0.096,-0.140 l -13.724,0 z" id="rect5127-8-8" />
 <path id="path5155-1-3" d="m 28.247,47.734 c -0.447,0.586 -0.626,1.477 -0.626,2.853 0,4.151 3.354,7.517 7.492,7.517 4.138,0 7.491,-3.365 7.491,-7.517 0,-1.375 -0.179,-2.267 -0.626,-2.853 l -13.730,0 z" style="fill:none;fill-rule:nonzero;stroke:#000000;stroke-width:0.499;stroke-linecap:butt;marker:none;" />
 <path style="fill:#333333;fill-rule:nonzero;stroke:#000000;stroke-width:0.499;stroke-linecap:butt;marker:none;" d="m 26.797,52.873 c -0.354,0 -0.641,0.286 -0.641,0.641 0,0.355 0.286,0.641 0.641,0.641 l 3.175,0 -0.478,6.492 c -0.026,0.354 0.237,0.662 0.591,0.688 l 0.128,0.009 c 0.353,0.026 0.659,-0.238 0.686,-0.593 l 0.486,-6.597 9.424,0 0.951,6.619 c 0.050,0.352 0.373,0.596 0.724,0.545 l 0.126,-0.018 c 0.351,-0.050 0.594,-0.375 0.543,-0.728 l -0.922,-6.418 0.957,0 c 0.354,0 0.639,-0.286 0.639,-0.641 0,-0.355 -0.285,-0.641 -0.639,-0.641 l -16.394,0 z" id="rect5171-6-2" />
 <ellipse cy="43.173" cx="41.080" id="circle5189-5-4" style="fill:#f53000;fill-opacity:0.685;fill-rule:nonzero;stroke:#000000;stroke-width:0.5;stroke-linecap:butt;marker:none;" rx="1.267" ry="1.272" />
 <ellipse style="fill:#f53000;fill-opacity:0.685;fill-rule:nonzero;stroke:#000000;stroke-width:0.5;stroke-linecap:butt;marker:none;" id="circle5191-1-7" cx="38.725" cy="38.267" rx="0.996" ry="0.999" />
 <ellipse style="fill:#f53000;fill-opacity:0.685;fill-rule:nonzero;stroke:#000000;stroke-width:0.5;stroke-linecap:butt;marker:none;" id="circle5193-1-9" cx="39.450" cy="34.996" rx="1.267" ry="1.272" />
 <ellipse style="fill:#ffffff;fill-rule:nonzero;stroke-width:0.5;stroke-linecap:butt;marker:none;" id="path5195-7-0" cx="38.725" cy="45.490" rx="0.543" ry="0.499" />
 <ellipse ry="0.388" rx="0.422" cy="42.755" cx="41.341" id="ellipse5197-7-4" style="fill:#ffffff;fill-rule:nonzero;stroke-width:0.5;stroke-linecap:butt;marker:none;" />
 <ellipse style="fill:#ffffff;fill-rule:nonzero;stroke-width:0.5;stroke-linecap:butt;marker:none;" id="ellipse5199-9-8" cx="38.872" cy="37.987" rx="0.422" ry="0.388" />
 <ellipse ry="0.388" rx="0.422" cy="34.439" cx="39.757" id="ellipse5201-7-1" style="fill:#ffffff;fill-rule:nonzero;stroke-width:0.5;stroke-linecap:butt;marker:none;" />
 <path style="fill:#ffc78f;stroke:#000000;stroke-width:0.5;stroke-linecap:round;marker:none;" d="m 7.679,37.607 c -0.193,0.105 -0.382,0.265 -0.534,0.446 -0.607,0.725 -0.677,1.666 0.778,2.877 0.545,0.454 1.273,0.872 1.992,1.230 -0.540,1.112 -0.449,2.461 0.337,3.524 1.129,1.526 3.276,1.849 4.807,0.722 1.531,-1.126 1.855,-3.265 0.725,-4.791 -0.169,-0.229 -0.385,-0.411 -0.595,-0.585 0.375,-1.039 0.562,-2.648 0.456,-3.839 -0.167,-1.882 -0.987,-2.328 -1.932,-2.244 -0.944,0.083 -1.675,0.682 -1.508,2.564 0.074,0.835 0.319,1.842 0.648,2.703 -0.296,0.012 -0.574,0.059 -0.862,0.149 C 11.470,39.601 10.778,38.826 10.128,38.286 9.036,37.378 8.259,37.290 7.679,37.607 Z" id="path3493" />
 <path style="fill:#ffc78f;stroke:#000000;stroke-width:0.5;stroke-linecap:round;marker:none;" d="m 10.373,41.985 c -0.786,0.065 -1.395,0.480 -1.523,1.084 -0.115,0.542 0.215,1.092 0.783,1.474 -0.231,0.143 -0.426,0.319 -0.478,0.563 -0.132,0.614 0.468,1.248 1.349,1.431 0.880,0.182 1.695,-0.166 1.827,-0.780 0.066,-0.307 -0.015,-0.606 -0.261,-0.867 0.471,-0.179 0.823,-0.526 0.913,-0.954 0.170,-0.805 -0.647,-1.625 -1.784,-1.865 -0.284,-0.059 -0.564,-0.108 -0.826,-0.086 z" id="path3513" />
 <ellipse ry="1.491" rx="2.104" cy="45.623" cx="-0.319" style="fill:#ffc78f;stroke:#000000;stroke-width:0.500;stroke-linecap:round;marker:none;" id="path3495" transform="matrix(0.945,-0.326,0.328,0.944,0,0)" />
 <path style="fill:none;stroke:#000000;stroke-width:0.5;stroke-linecap:round;marker:none;" d="m 19.894,31.255 c 0,-1.030 -0.881,-1.843 -1.965,-1.843 -1.084,0 -1.965,0.812 -1.965,1.843" id="path4869" />
 <path id="path4874" d="m 28.141,31.255 c 0,-1.030 -0.881,-1.843 -1.965,-1.843 -1.084,0 -1.965,0.812 -1.965,1.843" style="fill:none;stroke:#000000;stroke-width:0.5;stroke-linecap:round;marker:none;" />
 </g>
 </g>
</svg>
