<?xml version="1.0" encoding="UTF-8" standalone="no"?>
<svg xmlns:dc="http://purl.org/dc/elements/1.1/" xmlns:cc="http://creativecommons.org/ns#" xmlns:rdf="http://www.w3.org/1999/02/22-rdf-syntax-ns#" xmlns:svg="http://www.w3.org/2000/svg" xmlns="http://www.w3.org/2000/svg" xmlns:xlink="http://www.w3.org/1999/xlink" width="100%" height="100%" version="1.1" id="svg4015" viewBox="0 0 120 40">
 <defs id="defs4017">
 <clipPath id="clipPath6760" clipPathUnits="userSpaceOnUse">
 <path id="path6762" d="M 19.996,2.055 C 10.055,2.055 2.052,10.058 2.052,20 c 0,9.941 8.003,17.944 17.944,17.944 l 46.609,0 25.167,0 32.921,0 0,-17.944 0,-17.944 -32.921,0 -25.167,0 z" style="fill:#c9c997;stroke-width:1;stroke-linecap:butt;marker:none;" />
 </clipPath>
 </defs>
 <g id="layer1">
 <path id="rect4143" d="M 20 0 C 8.92 0 0 8.92 0 20 C 0 31.08 8.92 40 20 40 L 71.949 40 L 100 40 L 120 40 L 120 20 L 120 0 L 100 0 L 71.949 0 L 20 0 z " style="fill:#ffffff;stroke-width:1;stroke-linecap:butt;marker:none;" />
 <path style="fill:#c9c997;stroke-width:1;stroke-linecap:butt;marker:none;" d="M 19.996,2.055 C 10.055,2.055 2.052,10.058 2.052,20 c 0,9.941 8.003,17.944 17.944,17.944 l 46.609,0 25.167,0 32.921,0 0,-17.944 0,-17.944 -32.921,0 -25.167,0 z" id="path4222" />
 <g clip-path="url(#clipPath6760)" id="g6531">
 <rect style="fill:#525252;stroke:#000000;stroke-width:0.5;stroke-linecap:butt;stroke-linejoin:round;marker:none;" id="rect6529" width="137.876" height="29.424" x="-5.324" y="-14.646" />
 <g id="g5465" transform="translate(-12.682,71.535)">
 <path d="m 29.726,-59.895 -16.72,8.43 0.05,8.12 16.67,8.36 0,-24.91 z" id="p2437" style="fill:#6a6a6a;stroke:none" />
 <path d="m 29.696,-59.735 0.01,24.78 16.77,-8.36 0,-8.22 -16.78,-8.2 z" id="p2439" style="fill:#7a7a7a;stroke:none" />
 <path d="m 29.726,-43.225 0,7.79" id="p2441" style="fill:none;stroke:#858585;stroke-width:1.38;stroke-linecap:butt;marker:none;" />
 <path d="m 29.726,-43.225 -16.69,-8.36 16.69,-8.35 16.71,8.4 -16.71,8.31 z" id="p2443" style="fill:#989898;stroke:none" />
 <path d="m 13.456,-51.365 16.27,8.14 16.32,-8.16" id="p2445" style="fill:none;stroke:#bdbdbd;stroke-width:1.029;stroke-linejoin:round;stroke-opacity:1" />
 <path d="m 29.726,-59.635 16.45,8.23 0,7.96 -16.45,8.23 -16.45,-8.22 0,-7.98 16.45,-8.22 z" id="p2447" style="fill:none;fill-rule:nonzero;stroke:#030303;stroke-width:0.5;stroke-linecap:butt;marker:none;" />
 <path d="m 15.696,-47.945 0,3.91 c 0.17,0.15 0.35,0.3 0.54,0.41 l 0,-4.25 c -0.19,-0.04 -0.37,-0.08 -0.54,-0.07 z m -0.09,0.02 c -0.2,0.02 -0.38,0.09 -0.53,0.18 l 0,3.03 c 0.15,0.22 0.33,0.42 0.53,0.6 l 0,-3.81 z m 0.72,0.1 0,4.25 c 0.09,0.05 0.19,0.09 0.28,0.13 0.09,0.04 0.16,0.07 0.25,0.09 l 0,-4.25 c -0.09,-0.05 -0.16,-0.09 -0.25,-0.12 -0.1,-0.05 -0.19,-0.08 -0.28,-0.1 z m 0.62,0.27 0,4.25 c 0.19,0.04 0.37,0.04 0.54,0.04 l 0,-3.88 c -0.17,-0.15 -0.35,-0.3 -0.54,-0.41 z m -1.96,-0.14 c -0.25,0.17 -0.43,0.43 -0.5,0.77 l 0,0.88 c 0.07,0.41 0.25,0.81 0.5,1.19 l 0,-2.84 z m 2.59,0.63 0,3.81 c 0.2,-0.02 0.38,-0.06 0.53,-0.15 l 0,-3.06 c -0.15,-0.22 -0.33,-0.42 -0.53,-0.6 z m 0.62,0.74 0,2.84 c 0.24,-0.17 0.43,-0.44 0.5,-0.78 l 0,-0.87 c -0.07,-0.41 -0.25,-0.81 -0.5,-1.19 z" id="p3545" style="fill:#454545;stroke:none" />
 <path d="m 45.116,-49.155 -0.34,0.17 0,2.78 0.34,-0.17 0,-2.78 z m -0.58,0.27 -0.3,0.17 0,2.78 0.3,-0.13 0,-2.82 z m -0.57,0.3 -0.31,0.14 0,2.82 0.31,-0.17 0,-2.79 z m -0.51,0.24 -0.34,0.17 0,2.82 0.34,-0.17 0,-2.82 z m -0.58,0.31 -0.34,0.17 0,2.78 0.34,-0.17 0,-2.78 z m -0.58,0.27 -0.34,0.17 0,2.81 0.34,-0.16 0,-2.82 z m -0.54,0.27 -0.34,0.17 0,2.82 0.34,-0.17 0,-2.82 z m -0.58,0.3 -0.3,0.14 0,2.82 0.3,-0.17 0,-2.79 z m -0.57,0.28 -0.31,0.17 0,2.78 0.31,-0.14 0,-2.81 z m -0.51,0.27 -0.34,0.13 0,2.82 0.34,-0.17 0,-2.78 z m -0.58,0.27 -0.34,0.17 0,2.78 0.34,-0.17 0,-2.78 z m -0.58,0.27 -0.34,0.17 0,2.82 0.34,-0.17 0,-2.82 z m 6.18,0.1 -0.34,0.17 0,2.18 0.34,-0.17 0,-2.18 z m -6.72,0.17 -0.34,0.17 0,2.82 0.34,-0.17 0,-2.82 z m 6.14,0.1 -0.3,0.17 0,2.18 0.3,-0.14 0,-2.21 z m -6.72,0.21 -0.3,0.13 0,2.82 0.3,-0.17 0,-2.78 z m 6.15,0.1 -0.31,0.14 0,2.2 0.31,-0.17 0,-2.17 z m -6.72,0.17 -0.31,0.17 0,2.78 0.31,-0.13 0,-2.82 z m 6.21,0.07 -0.34,0.17 0,2.2 0.34,-0.17 0,-2.2 z m -0.58,0.3 -0.34,0.17 0,2.18 0.34,-0.17 0,-2.18 z m -0.58,0.27 -0.34,0.17 0,2.21 0.34,-0.17 0,-2.21 z m -0.54,0.28 -0.34,0.17 0,2.2 0.34,-0.17 0,-2.2 z m -0.58,0.27 -0.3,0.17 0,2.2 0.3,-0.17 0,-2.2 z m -0.57,0.3 -0.31,0.14 0,2.21 0.31,-0.14 0,-2.21 z m -0.51,0.24 -0.34,0.17 0,2.24 0.34,-0.2 0,-2.21 z m -0.58,0.31 -0.34,0.17 0,2.2 0.34,-0.17 0,-2.2 z m -0.58,0.27 -0.34,0.17 0,2.24 0.34,-0.17 0,-2.24 z m -0.54,0.27 -0.34,0.17 0,2.24 0.34,-0.17 0,-2.24 z m -0.58,0.27 -0.3,0.17 0,2.11 0.23,0 0.07,-0.04 0,-2.24 z m -0.57,0.31 -0.31,0.13 0,2.07 0.31,0 0,-2.2 z" id="p3723" style="fill:#424242;stroke:none" />
 <path d="m 35.576,-44.215 c -0.11,0 -0.22,0.06 -0.35,0.12 l -3.59,1.85 c -0.5,0.25 -0.91,0.89 -0.91,1.47 l 0,0.03 c 0,0.57 0.41,0.82 0.91,0.56 l 3.59,-1.84 c 0.51,-0.26 0.91,-0.93 0.91,-1.5 0,-0.43 -0.24,-0.7 -0.56,-0.69 z" id="r3894" style="fill:none;fill-rule:nonzero;stroke:#424242;stroke-width:0.300;stroke-linecap:butt;marker:none;" />
 </g>
 <g id="g5833" transform="translate(-25.760,64.995)">
 <path style="fill:#6e6e6e;fill-rule:nonzero;marker:none;" id="p3898" d="m 60.044,-49.947 3.32,1.5 8.43,-4.19 0,-1.18 -4.43,-2.25 -8.38,4.62 1.06,1.5 z" />
 <path style="fill:#898989;fill-rule:nonzero;marker:none;" id="p3900" d="m 71.734,-53.887 -8.31,4.19 -1,-0.44 8.44,-4.25 0.87,0.5 z" />
 <path style="fill:none;fill-rule:nonzero;stroke:#000000;stroke-width:0.5;stroke-linecap:butt;marker:none;" id="p3896" d="m 60.044,-49.947 3.32,1.5 8.43,-4.19 0,-1.18 -4.43,-2.25 -8.38,4.62 1.06,1.5 z" />
 <path style="fill:#898989;fill-rule:nonzero;marker:none;" id="p2458" d="m 72.174,-77.947 -18.91,9.45 0,18.81 2.95,1.51 18.91,-9.45 0,-18.81 -2.95,-1.51 z" />
 <path style="fill:#aaaaaa;stroke:none" id="p3518" d="m 72.174,-77.947 -18.91,9.44 0,0.15 7.16,3.54 14.69,-8.16 0,-3.47 -2.94,-1.5 z" />
 <path style="fill:#6e6e6e;fill-rule:nonzero;marker:none;" id="p2739" d="m 75.114,-76.357 -18.85,9.41 0,18.75 18.85,-9.44 0,-18.72 z" />
 <path style="fill:none;fill-rule:nonzero;stroke:#000000;stroke-width:0.5;stroke-linecap:butt;stroke-linejoin:round;marker:none;" id="p2744" d="m 72.174,-77.947 -18.91,9.45 0,18.81 2.95,1.51 18.91,-9.45 0,-18.81 -2.95,-1.51 z" />
 <path style="fill:#424242;fill-rule:nonzero;marker:none;" id="p3541" d="m 74.384,-75.427 -17.64,9.17 0,17.37 17.64,-8.89 0,-17.65 z" />
 <path style="fill:#32324c;fill-rule:nonzero;marker:none;" id="p3523" d="m 74.084,-75.247 -17.28,8.63 0,17.19 17.28,-8.65 0,-17.17 z" />
 </g>
 <path style="font-style:normal;font-variant:normal;font-weight:normal;font-stretch:normal;font-size:medium;line-height:normal;font-family:sans-serif;text-indent:0;text-align:start;text-decoration:none;text-decoration-line:none;text-decoration-style:letter-spacing:normal;word-spacing:normal;text-transform:none;direction:ltr;block-progression:tb;writing-mode:lr-tb;baseline-shift:baseline;text-anchor:start;white-space:normal;fill:#757575;stroke:#000000;stroke-width:0.5;stroke-linecap:butt;" d="M 91.021,28.949 C 83.929,29.152 76.213,29.980 68.611,31.494 53.407,34.520 38.662,40.267 30.380,49.406 l 0.890,0.804 C 39.243,41.414 53.783,35.670 68.845,32.671 83.907,29.673 99.494,29.404 109.458,31.341 l 0.228,-1.177 C 104.581,29.171 98.113,28.746 91.021,28.949 Z" id="path6405" />
 <g id="g5870" transform="translate(-27.345,59.501)">
 <rect ry="1.719" y="-47.467" x="101.567" height="15.927" width="27.615" id="rect5872" style="fill:#3d3d3d;stroke-width:0.5;stroke-linecap:round;stroke-linejoin:round;marker:none;" />
 <rect style="fill:#575757;stroke-width:0.5;stroke-linecap:round;stroke-linejoin:round;marker:none;" id="rect5874" width="27.615" height="10.125" x="101.567" y="-47.467" ry="1.719" />
 <rect style="fill:none;stroke:#000000;stroke-width:0.499;stroke-linecap:round;stroke-linejoin:round;marker:none;" id="rect5876" width="27.615" height="15.927" x="101.567" y="-47.467" ry="1.719" />
 <path id="path5878" d="m 101.567,-39.029 27.553,0" style="fill:none;stroke:#000000;stroke-width:0.499;stroke-linecap:butt;stroke-opacity:1" />
 <path id="path5880" d="m 103.800,-36.679 c -0.523,0 -0.942,0.412 -0.942,0.928 l 0,2.552 c 0,0.515 0.418,0.928 0.942,0.928 l 6.918,0 c 0.523,0 0.971,-0.412 0.971,-0.928 l 0,-2.552 c 0,-0.515 -0.448,-0.928 -0.971,-0.928 l -6.918,0 z m 0,0.261 6.918,0 c 0.371,0 0.677,0.300 0.677,0.667 l 0,2.552 c 0,0.366 -0.305,0.667 -0.677,0.667 l -6.918,0 c -0.371,0 -0.677,-0.300 -0.677,-0.667 l 0,-2.552 c 0,-0.366 0.305,-0.667 0.677,-0.667 z" style="fill:#272727;stroke-width:0.300;stroke-linecap:round;stroke-linejoin:round;marker:none;" />
 <path id="path5882" d="m 113.280,-36.795 c -0.298,0 -0.537,0.170 -0.677,0.406 l 2.708,0 0,0.522 -2.826,0 0,0.319 6.211,0 0,1.276 -6.211,0 0,0.319 2.826,0 0,0.522 -2.826,0 0,0.261 2.826,0 0,0.522 -2.649,0 c 0.147,0.188 0.357,0.319 0.618,0.319 l 13.954,0 c 0.261,0 0.500,-0.130 0.647,-0.319 l -2.266,0 0,-0.522 2.443,0 0,-0.261 -2.443,0 0,-0.522 2.443,0 0,-0.319 -2.443,0 0,-0.522 2.443,0 0,-0.232 -2.443,0 0,-0.522 2.443,0 0,-0.319 -2.443,0 0,-0.522 2.325,0 c -0.139,-0.235 -0.408,-0.406 -0.706,-0.406 l -13.954,0 z m 2.266,0.406 3.150,0 0,0.522 -3.150,0 0,-0.522 z m 3.385,0 3.032,0 0,0.522 -3.032,0 0,-0.522 z m 3.297,0 3.150,0 0,0.522 -3.150,0 0,-0.522 z m -3.297,0.841 3.032,0 0,0.522 -3.032,0 0,-0.522 z m 3.297,0 3.150,0 0,0.522 -3.150,0 0,-0.522 z m -3.297,0.754 3.032,0 0,0.522 -3.032,0 0,-0.522 z m 3.297,0 3.150,0 0,0.522 -3.150,0 0,-0.522 z m -6.682,0.841 3.150,0 0,0.522 -3.150,0 0,-0.522 z m 3.385,0 3.032,0 0,0.522 -3.032,0 0,-0.522 z m 3.297,0 3.150,0 0,0.522 -3.150,0 0,-0.522 z m -6.682,0.783 3.150,0 0,0.522 -3.150,0 0,-0.522 z m 3.385,0 3.032,0 0,0.522 -3.032,0 0,-0.522 z m 3.297,0 3.150,0 0,0.522 -3.150,0 0,-0.522 z" style="fill:#272727;stroke-width:0.5;stroke-linecap:round;stroke-linejoin:round;marker:none;" />
 <ellipse id="ellipse5884" style="fill:#6c6c6c;stroke-width:0.300;stroke-linecap:round;stroke-linejoin:round;marker:none;" cx="113.202" cy="-34.901" rx="0.528" ry="0.520" />
 <rect ry="0.206" y="-35.116" x="114.104" height="0.566" width="1.414" id="rect5886" style="fill:#282828;stroke-width:0.300;stroke-linecap:round;stroke-linejoin:round;marker:none;" />
 <rect ry="0.076" y="-35.330" x="116.219" height="0.858" width="0.373" id="rect5888" style="fill:#282828;stroke-width:0.300;stroke-linecap:round;stroke-linejoin:round;marker:none;" />
 <rect style="fill:#282828;stroke-width:0.300;stroke-linecap:round;stroke-linejoin:round;marker:none;" id="rect5890" width="0.373" height="0.858" x="116.856" y="-35.330" ry="0.076" />
 <rect ry="0.076" y="-35.330" x="117.494" height="0.858" width="0.373" id="rect5892" style="fill:#282828;stroke-width:0.300;stroke-linecap:round;stroke-linejoin:round;marker:none;" />
 <rect ry="0.294" y="-35.833" x="103.566" height="1.439" width="7.439" id="rect5894" style="fill:#303030;stroke-width:0.300;stroke-linecap:round;stroke-linejoin:round;marker:none;" />
 </g>
 <g transform="translate(-27.345,52.367)" id="g5844">
 <rect style="fill:#3d3d3d;stroke-width:0.5;stroke-linecap:round;stroke-linejoin:round;marker:none;" id="rect5846" width="27.615" height="15.927" x="101.567" y="-47.467" ry="1.719" />
 <rect ry="1.719" y="-47.467" x="101.567" height="10.125" width="27.615" id="rect5848" style="fill:#575757;stroke-width:0.5;stroke-linecap:round;stroke-linejoin:round;marker:none;" />
 <rect ry="1.719" y="-47.467" x="101.567" height="15.927" width="27.615" id="rect5850" style="fill:none;stroke:#000000;stroke-width:0.499;stroke-linecap:round;stroke-linejoin:round;marker:none;" />
 <path style="fill:none;stroke:#000000;stroke-width:0.499;stroke-linecap:butt;stroke-opacity:1" d="m 101.567,-39.029 27.553,0" id="path5852" />
 <path style="fill:#272727;stroke-width:0.300;stroke-linecap:round;stroke-linejoin:round;marker:none;" d="m 103.800,-36.679 c -0.523,0 -0.942,0.412 -0.942,0.928 l 0,2.552 c 0,0.515 0.418,0.928 0.942,0.928 l 6.918,0 c 0.523,0 0.971,-0.412 0.971,-0.928 l 0,-2.552 c 0,-0.515 -0.448,-0.928 -0.971,-0.928 l -6.918,0 z m 0,0.261 6.918,0 c 0.371,0 0.677,0.300 0.677,0.667 l 0,2.552 c 0,0.366 -0.305,0.667 -0.677,0.667 l -6.918,0 c -0.371,0 -0.677,-0.300 -0.677,-0.667 l 0,-2.552 c 0,-0.366 0.305,-0.667 0.677,-0.667 z" id="path5854" />
 <path style="fill:#272727;stroke-width:0.5;stroke-linecap:round;stroke-linejoin:round;marker:none;" d="m 113.280,-36.795 c -0.298,0 -0.537,0.170 -0.677,0.406 l 2.708,0 0,0.522 -2.826,0 0,0.319 6.211,0 0,1.276 -6.211,0 0,0.319 2.826,0 0,0.522 -2.826,0 0,0.261 2.826,0 0,0.522 -2.649,0 c 0.147,0.188 0.357,0.319 0.618,0.319 l 13.954,0 c 0.261,0 0.500,-0.130 0.647,-0.319 l -2.266,0 0,-0.522 2.443,0 0,-0.261 -2.443,0 0,-0.522 2.443,0 0,-0.319 -2.443,0 0,-0.522 2.443,0 0,-0.232 -2.443,0 0,-0.522 2.443,0 0,-0.319 -2.443,0 0,-0.522 2.325,0 c -0.139,-0.235 -0.408,-0.406 -0.706,-0.406 l -13.954,0 z m 2.266,0.406 3.150,0 0,0.522 -3.150,0 0,-0.522 z m 3.385,0 3.032,0 0,0.522 -3.032,0 0,-0.522 z m 3.297,0 3.150,0 0,0.522 -3.150,0 0,-0.522 z m -3.297,0.841 3.032,0 0,0.522 -3.032,0 0,-0.522 z m 3.297,0 3.150,0 0,0.522 -3.150,0 0,-0.522 z m -3.297,0.754 3.032,0 0,0.522 -3.032,0 0,-0.522 z m 3.297,0 3.150,0 0,0.522 -3.150,0 0,-0.522 z m -6.682,0.841 3.150,0 0,0.522 -3.150,0 0,-0.522 z m 3.385,0 3.032,0 0,0.522 -3.032,0 0,-0.522 z m 3.297,0 3.150,0 0,0.522 -3.150,0 0,-0.522 z m -6.682,0.783 3.150,0 0,0.522 -3.150,0 0,-0.522 z m 3.385,0 3.032,0 0,0.522 -3.032,0 0,-0.522 z m 3.297,0 3.150,0 0,0.522 -3.150,0 0,-0.522 z" id="path5856" />
 <ellipse ry="0.520" rx="0.528" cy="-34.901" cx="113.202" style="fill:#6c6c6c;stroke-width:0.300;stroke-linecap:round;stroke-linejoin:round;marker:none;" id="ellipse5858" />
 <rect style="fill:#282828;stroke-width:0.300;stroke-linecap:round;stroke-linejoin:round;marker:none;" id="rect5860" width="1.414" height="0.566" x="114.104" y="-35.116" ry="0.206" />
 <rect style="fill:#282828;stroke-width:0.300;stroke-linecap:round;stroke-linejoin:round;marker:none;" id="rect5862" width="0.373" height="0.858" x="116.219" y="-35.330" ry="0.076" />
 <rect ry="0.076" y="-35.330" x="116.856" height="0.858" width="0.373" id="rect5864" style="fill:#282828;stroke-width:0.300;stroke-linecap:round;stroke-linejoin:round;marker:none;" />
 <rect style="fill:#282828;stroke-width:0.300;stroke-linecap:round;stroke-linejoin:round;marker:none;" id="rect5866" width="0.373" height="0.858" x="117.494" y="-35.330" ry="0.076" />
 <rect style="fill:#303030;stroke-width:0.300;stroke-linecap:round;stroke-linejoin:round;marker:none;" id="rect5868" width="7.439" height="1.439" x="103.566" y="-35.833" ry="0.294" />
 </g>
 <g id="g5799" transform="translate(41.216,47.809)">
 <path style="fill:#969696;fill-rule:nonzero;marker:none;" id="p3878" d="m 52.058,-40.843 c -1.4,0.17 -1.77,1.09 -2.22,2.22 0,1.22 1.42,2.6 3.19,3.06 1.76,0.47 3.21,-0.15 3.21,-1.37 -0.38,-1.9 -1.46,-2.91 -3.15,-3.78 -0.37,-0.1 -0.71,-0.14 -1.03,-0.13 z" />
 <path style="fill:#5f5f5f;stroke:none" id="p3885" d="m 50.338,-39.713 c -0.19,0.32 -0.34,0.7 -0.5,1.1 0,1.21 1.41,2.59 3.18,3.06 0.32,0.08 0.62,0.11 0.91,0.12 -1.12,-2.56 -2.34,-4.12 -3.59,-4.28 z" />
 <path style="fill:none;fill-rule:nonzero;stroke:#000000;stroke-width:0.5;stroke-linecap:butt;marker:none;" id="p3883" d="m 52.058,-40.843 c -1.4,0.17 -1.77,1.09 -2.22,2.22 0,1.22 1.42,2.6 3.19,3.06 1.76,0.47 3.21,-0.15 3.21,-1.37 -0.38,-1.9 -1.46,-2.91 -3.15,-3.78 -0.37,-0.1 -0.71,-0.14 -1.03,-0.13 z" />
 <path style="fill:none;fill-rule:nonzero;stroke:#5f5f5f;stroke-width:0.300;stroke-linecap:butt;marker:none;" id="p3890" d="m 51.298,-40.513 c 1.32,0.49 1.76,0.98 2.25,1.6 0.49,0.61 1.81,0.22 1.37,-0.45" />
 <path style="fill:none;fill-rule:nonzero;stroke:#5f5f5f;stroke-width:0.300;stroke-linecap:butt;marker:none;" id="p3892" d="m 53.728,-38.743 c -0.23,0.58 -0.71,0.93 -1.51,1.06" />
 </g>
 <g id="g5806" transform="translate(27.147,36.316)">
 <path style="fill:#898989;fill-rule:nonzero;marker:none;" id="p3647" d="m 44.843,-24.850 5.67,2.88 11.6,-5.84 0,-0.93 -5.92,-4.41 -11.35,5.69 0,2.61 z" />
 <path style="fill:#a4a4a4;fill-rule:nonzero;marker:none;" id="p3654" d="m 50.473,-21.820 0,-1.22 11.54,-5.8 0,1.06 -11.54,5.96 z" />
 <path style="fill:#5f5f5f;fill-rule:nonzero;marker:none;" id="p3649" d="m 44.853,-27.470 0,2.37 5.73,2.97 0.09,-1.03 -5.82,-4.31 z" />
 <path style="fill:none;fill-rule:nonzero;stroke:#000000;stroke-width:0.5;stroke-linecap:butt;marker:none;" id="p3645" d="m 44.843,-24.850 5.67,2.88 11.6,-5.84 0,-0.93 -5.92,-4.41 -11.35,5.69 0,2.61 z" />
 <g transform="translate(25.143,-127.470)" id="g3679">
 <path style="fill:#929292;stroke:none" id="p2436" d="m 30.94,94.82 -1.43,0.72 0,0.28 1.4,1.1 1.53,-0.79 -0.06,-0.59 -1.44,-0.72 z" />
 <path style="fill:#bcbcbc;stroke:none" id="p2438" d="m 30.94,96.12 -1.25,-0.63 1.25,-0.63 1.25,0.63 -1.25,0.63 z" />
 <path style="fill:#6e6e6e;stroke:none" id="p2440" d="m 29.51,95.57 0,0.25 1.4,1.1 0,-0.63 -1.4,-0.72 z" />
 </g>
 <use xlink:href="#g3679" height="132" width="48" y="0" x="0" id="use2421" transform="translate(-1.73,0.88)" />
 <use xlink:href="#g3679" height="132" width="48" y="0" x="0" id="use2457" transform="translate(1.560,1.16)" />
 <use xlink:href="#g3679" height="132" width="48" y="0" x="0" id="use2423" transform="translate(-0.199,2.1)" />
 <use xlink:href="#g3679" height="132" width="48" y="0" x="0" id="use2459" transform="translate(3.090,2.39)" />
 <use xlink:href="#g3679" height="132" width="48" y="0" x="0" id="use2425" transform="translate(1.310,3.33)" />
 <use xlink:href="#g3679" height="132" width="48" y="0" x="0" id="use2427" transform="translate(-3.38,1.79)" />
 <use xlink:href="#g3679" height="132" width="48" y="0" x="0" id="use2429" transform="translate(-1.85,3.01)" />
 <use xlink:href="#g3679" height="132" width="48" y="0" x="0" id="use2431" transform="translate(-0.33,4.230)" />
 <use xlink:href="#g3679" height="132" width="48" y="0" x="0" id="use2439" transform="translate(-5.17,2.72)" />
 <use xlink:href="#g3679" height="132" width="48" y="0" x="0" id="use2441" transform="translate(-3.64,3.940)" />
 <use xlink:href="#g3679" height="132" width="48" y="0" x="0" id="use2443" transform="translate(-2.12,5.160)" />
 <use xlink:href="#g3679" height="132" width="48" y="0" x="0" id="use2445" transform="translate(-6.99,3.7)" />
 <use xlink:href="#g3679" height="132" width="48" y="0" x="0" id="use2447" transform="translate(-5.47,4.910)" />
 <use xlink:href="#g3679" height="132" width="48" y="0" x="0" id="use2449" transform="translate(-3.94,6.140)" />
 <use xlink:href="#g3679" height="132" width="48" y="0" x="0" id="use2451" transform="translate(-8.84,4.570)" />
 <use xlink:href="#g3679" height="132" width="48" y="0" x="0" id="use2453" transform="translate(-7.31,5.780)" />
 <use xlink:href="#g3679" height="132" width="48" y="0" x="0" id="use2455" transform="translate(-5.78,7.010)" />
 </g>
 <path id="path6409" d="M 121.366,-13.871 C 116.922,-8.339 111.603,-2.688 105.807,2.457 94.216,12.750 80.733,21.036 68.448,22.121 L 68.344,20.925 C 80.169,19.881 93.526,11.757 105.010,1.560 116.494,-8.637 126.118,-20.900 130.589,-30.013 l 1.076,0.528 c -2.291,4.670 -5.857,10.082 -10.300,15.613 z" style="font-style:normal;font-variant:normal;font-weight:normal;font-stretch:normal;font-size:medium;line-height:normal;font-family:sans-serif;text-indent:0;text-align:start;text-decoration:none;text-decoration-line:none;text-decoration-style:letter-spacing:normal;word-spacing:normal;text-transform:none;direction:ltr;block-progression:tb;writing-mode:lr-tb;baseline-shift:baseline;text-anchor:start;white-space:normal;fill:#757575;stroke:#000000;stroke-width:0.5;stroke-linecap:butt;" />
 <g id="g5110" transform="translate(-56.871,64.005)">
 <rect ry="1.719" y="-47.467" x="101.567" height="15.927" width="27.615" id="rect3934" style="fill:#3d3d3d;stroke-width:0.5;stroke-linecap:round;stroke-linejoin:round;marker:none;" />
 <rect style="fill:#575757;stroke-width:0.5;stroke-linecap:round;stroke-linejoin:round;marker:none;" id="rect3936" width="27.615" height="10.125" x="101.567" y="-47.467" ry="1.719" />
 <rect style="fill:none;stroke:#000000;stroke-width:0.499;stroke-linecap:round;stroke-linejoin:round;marker:none;" id="rect3938" width="27.615" height="15.927" x="101.567" y="-47.467" ry="1.719" />
 <path id="path3940" d="m 101.567,-39.029 27.553,0" style="fill:none;stroke:#000000;stroke-width:0.499;stroke-linecap:butt;stroke-opacity:1" />
 <path id="rect3942" d="m 103.800,-36.679 c -0.523,0 -0.942,0.412 -0.942,0.928 l 0,2.552 c 0,0.515 0.418,0.928 0.942,0.928 l 6.918,0 c 0.523,0 0.971,-0.412 0.971,-0.928 l 0,-2.552 c 0,-0.515 -0.448,-0.928 -0.971,-0.928 l -6.918,0 z m 0,0.261 6.918,0 c 0.371,0 0.677,0.300 0.677,0.667 l 0,2.552 c 0,0.366 -0.305,0.667 -0.677,0.667 l -6.918,0 c -0.371,0 -0.677,-0.300 -0.677,-0.667 l 0,-2.552 c 0,-0.366 0.305,-0.667 0.677,-0.667 z" style="fill:#272727;stroke-width:0.300;stroke-linecap:round;stroke-linejoin:round;marker:none;" />
 <path id="rect3944" d="m 113.280,-36.795 c -0.298,0 -0.537,0.170 -0.677,0.406 l 2.708,0 0,0.522 -2.826,0 0,0.319 6.211,0 0,1.276 -6.211,0 0,0.319 2.826,0 0,0.522 -2.826,0 0,0.261 2.826,0 0,0.522 -2.649,0 c 0.147,0.188 0.357,0.319 0.618,0.319 l 13.954,0 c 0.261,0 0.500,-0.130 0.647,-0.319 l -2.266,0 0,-0.522 2.443,0 0,-0.261 -2.443,0 0,-0.522 2.443,0 0,-0.319 -2.443,0 0,-0.522 2.443,0 0,-0.232 -2.443,0 0,-0.522 2.443,0 0,-0.319 -2.443,0 0,-0.522 2.325,0 c -0.139,-0.235 -0.408,-0.406 -0.706,-0.406 l -13.954,0 z m 2.266,0.406 3.150,0 0,0.522 -3.150,0 0,-0.522 z m 3.385,0 3.032,0 0,0.522 -3.032,0 0,-0.522 z m 3.297,0 3.150,0 0,0.522 -3.150,0 0,-0.522 z m -3.297,0.841 3.032,0 0,0.522 -3.032,0 0,-0.522 z m 3.297,0 3.150,0 0,0.522 -3.150,0 0,-0.522 z m -3.297,0.754 3.032,0 0,0.522 -3.032,0 0,-0.522 z m 3.297,0 3.150,0 0,0.522 -3.150,0 0,-0.522 z m -6.682,0.841 3.150,0 0,0.522 -3.150,0 0,-0.522 z m 3.385,0 3.032,0 0,0.522 -3.032,0 0,-0.522 z m 3.297,0 3.150,0 0,0.522 -3.150,0 0,-0.522 z m -6.682,0.783 3.150,0 0,0.522 -3.150,0 0,-0.522 z m 3.385,0 3.032,0 0,0.522 -3.032,0 0,-0.522 z m 3.297,0 3.150,0 0,0.522 -3.150,0 0,-0.522 z" style="fill:#272727;stroke-width:0.5;stroke-linecap:round;stroke-linejoin:round;marker:none;" />
 <ellipse id="path4026" style="fill:#6c6c6c;stroke-width:0.300;stroke-linecap:round;stroke-linejoin:round;marker:none;" cx="113.202" cy="-34.901" rx="0.528" ry="0.520" />
 <rect ry="0.206" y="-35.116" x="114.104" height="0.566" width="1.414" id="rect4028" style="fill:#282828;stroke-width:0.300;stroke-linecap:round;stroke-linejoin:round;marker:none;" />
 <rect ry="0.076" y="-35.330" x="116.219" height="0.858" width="0.373" id="rect4030" style="fill:#282828;stroke-width:0.300;stroke-linecap:round;stroke-linejoin:round;marker:none;" />
 <rect style="fill:#282828;stroke-width:0.300;stroke-linecap:round;stroke-linejoin:round;marker:none;" id="rect4032" width="0.373" height="0.858" x="116.856" y="-35.330" ry="0.076" />
 <rect ry="0.076" y="-35.330" x="117.494" height="0.858" width="0.373" id="rect4034" style="fill:#282828;stroke-width:0.300;stroke-linecap:round;stroke-linejoin:round;marker:none;" />
 <rect ry="0.294" y="-35.833" x="103.566" height="1.439" width="7.439" id="rect4036" style="fill:#303030;stroke-width:0.300;stroke-linecap:round;stroke-linejoin:round;marker:none;" />
 </g>
 <g id="g5098" transform="translate(-22.590,49.935)">
 <path style="fill:#d3d3d3;stroke:#000000;stroke-width:0.499;stroke-linecap:round;stroke-linejoin:round;marker:none;" d="m 86.617,-26.332 c 0.328,0.001 0.506,-0.234 0.380,-0.534 l -1.743,-4.132 c -0.125,-0.300 -0.481,-0.564 -0.809,-0.565 l -2.516,-0.009 -1.728,-0.809 c -0.450,-0.206 -1.195,-0.202 -1.650,-0.005 l -6.259,2.710 c -0.454,0.196 -0.452,0.516 -0.002,0.723 l 2.835,1.322 c 0.450,0.206 1.195,0.202 1.650,0.005 l 4.200,-1.833 1.072,2.575 c 0.125,0.300 0.508,0.537 0.836,0.538 l 3.733,0.013 z" id="path2873" />
 <rect transform="matrix(0.972,0.234,0,1,0,0)" ry="0.663" y="-59.917" x="81.966" height="9.594" width="4.035" id="rect2889" style="fill:#656565;stroke:#000000;stroke-width:0.507;stroke-linecap:round;stroke-linejoin:round;marker:none;" />
 <path id="path2875" d="m 70.752,-47.039 0,10.314 c 0,1.019 0.785,2.035 1.785,2.277 l 16.665,4.018 c 1.631,0.433 2.894,-1.577 2.894,-3.027 l 0,-10.314 c 0,-1.019 -0.812,-2.035 -1.812,-2.277 l -16.665,-4.018 c -1.435,-0.311 -2.867,1.821 -2.867,3.027 z" style="fill:#6c6c6c;stroke-width:0.5;stroke-linecap:round;stroke-linejoin:round;marker:none;" />
 <rect transform="matrix(0.972,0.234,0,1,0,0)" ry="1.840" y="-65.949" x="72.772" height="14.001" width="20.856" id="rect2877" style="fill:#3e3e3e;stroke-width:0.507;stroke-linecap:round;stroke-linejoin:round;marker:none;" />
 <path style="fill:none;stroke:#000000;stroke-width:0.499;stroke-linecap:round;stroke-linejoin:round;marker:none;" d="m 70.752,-47.039 0,10.314 c 0,1.019 0.785,2.035 1.785,2.277 l 16.665,4.018 c 1.631,0.433 2.894,-1.577 2.894,-3.027 l 0,-10.314 c 0,-1.019 -0.812,-2.035 -1.812,-2.277 l -16.665,-4.018 c -1.435,-0.311 -2.867,1.821 -2.867,3.027 z" id="path2887" />
 <rect style="fill:#323232;stroke-width:0.507;stroke-linecap:round;stroke-linejoin:round;marker:none;" id="rect2898" width="18.996" height="11.511" x="73.702" y="-64.997" ry="1.676" transform="matrix(0.972,0.234,0,1,0,0)" />
 <rect transform="matrix(0.972,0.234,0,1,0,0)" ry="1.588" y="-64.813" x="74.417" height="10.904" width="17.994" id="rect2900" style="fill:#437d7d;stroke-width:0.507;stroke-linecap:round;stroke-linejoin:round;marker:none;" />
 <ellipse transform="matrix(0.935,0.353,-0.359,0.933,0,0)" id="path3673" style="fill:#000000;stroke-width:0.5;stroke-linecap:round;stroke-linejoin:round;marker:none;" cx="70.484" cy="-60.632" rx="0.473" ry="0.384" />
 <ellipse style="fill:#000000;stroke-width:0.5;stroke-linecap:round;stroke-linejoin:round;marker:none;" id="path3675" transform="matrix(0.935,0.353,-0.359,0.933,0,0)" cx="68.932" cy="-60.414" rx="0.473" ry="0.384" />
 <path id="path3678" d="m 72.459,-46.313 c -0.053,0.129 -0.096,0.272 -0.108,0.428 l 17.477,4.206 c -0.011,-0.165 -0.051,-0.323 -0.108,-0.482 l -17.260,-4.152 z m -0.108,1.419 0,0.455 17.477,4.206 0,-0.455 -17.477,-4.206 z m 0,1.446 0,0.455 17.477,4.206 0,-0.455 -17.477,-4.206 z m 0,1.446 0,0.455 17.477,4.206 0,-0.455 -17.477,-4.206 z m 0,1.446 0,0.455 17.477,4.206 0,-0.455 -17.477,-4.206 z m 0,1.446 0,0.428 17.477,4.233 0,-0.455 -17.477,-4.206 z m 0.054,1.446 c 0.037,0.168 0.081,0.326 0.162,0.482 l 17.017,4.125 c 0.083,-0.117 0.150,-0.249 0.189,-0.401 L 72.405,-37.659 Z" style="fill:#56a0a0;stroke-width:0.5;stroke-linecap:round;stroke-linejoin:round;marker:none;" />
 </g>
 <g id="g5150" transform="matrix(-1,0,0,1,119.465,73.912)">
 <path id="rect3909" d="m 47.791,-34.045 c -0.328,0 -0.505,0.235 -0.378,0.535 l 1.758,4.125 c 0.126,0.299 0.483,0.562 0.811,0.562 l 2.516,0 1.731,0.803 c 0.451,0.204 1.196,0.198 1.650,0 l 6.249,-2.732 c 0.454,-0.198 0.451,-0.518 0,-0.723 l -2.840,-1.312 c -0.451,-0.204 -1.196,-0.198 -1.650,0 l -4.193,1.848 -1.082,-2.572 c -0.126,-0.299 -0.510,-0.535 -0.838,-0.535 l -3.733,0 z" style="fill:#d3d3d3;stroke:#000000;stroke-width:0.499;stroke-linecap:round;stroke-linejoin:round;marker:none;" />
 <path style="fill:#6c6c6c;stroke-width:0.5;stroke-linecap:round;stroke-linejoin:round;marker:none;" d="m 43.808,-47.653 0,10.314 c 0,1.019 0.785,2.035 1.785,2.277 l 16.665,4.018 c 1.631,0.433 2.894,-1.577 2.894,-3.027 l 0,-10.314 c 0,-1.019 -0.812,-2.035 -1.812,-2.277 l -16.665,-4.018 c -1.435,-0.311 -2.867,1.821 -2.867,3.027 z" id="path3917" />
 <rect style="fill:#3e3e3e;stroke-width:0.507;stroke-linecap:round;stroke-linejoin:round;marker:none;" id="rect3901" width="20.856" height="14.001" x="45.055" y="-60.061" ry="1.840" transform="matrix(0.972,0.234,0,1,0,0)" />
 <rect transform="matrix(0.972,0.234,0,1,0,0)" ry="0.426" y="-50.029" x="55.076" height="3.241" width="4.838" id="rect3927" style="fill:none;stroke:#2c2c2c;stroke-width:0.507;stroke-linecap:round;stroke-linejoin:round;marker:none;" />
 <path id="path3929" d="m 54.460,-35.592 2.675,0.709" style="fill:none;stroke:#1f1f1f;stroke-width:0.5;stroke-linecap:round;stroke-opacity:1" />
 <path style="fill:none;stroke:#1f1f1f;stroke-width:0.5;stroke-linecap:round;stroke-opacity:1" d="m 54.460,-34.794 2.675,0.709" id="path3931" />
 <path style="fill:#494949;stroke-width:0.499;stroke-linecap:round;stroke-linejoin:round;marker:none;" d="m 49.084,-42.134 0,3.697 c 0,0.367 0.288,0.743 0.649,0.830 l 6.033,1.446 c 0.689,0.195 1.379,-1.230 1.379,-1.553 l 0,-3.724 c 0,-0.367 -0.288,-0.743 -0.649,-0.830 l -6.006,-1.446 c -0.436,-0.114 -1.406,1.012 -1.406,1.580 z" id="path3923" />
 <path id="rect3899" d="m 43.808,-47.653 0,10.314 c 0,1.019 0.785,2.035 1.785,2.277 l 16.665,4.018 c 1.631,0.433 2.894,-1.577 2.894,-3.027 l 0,-10.314 c 0,-1.019 -0.812,-2.035 -1.812,-2.277 l -16.665,-4.018 c -1.435,-0.311 -2.867,1.821 -2.867,3.027 z" style="fill:none;stroke:#000000;stroke-width:0.499;stroke-linecap:round;stroke-linejoin:round;marker:none;" />
 <rect style="fill:#656565;stroke:#000000;stroke-width:0.507;stroke-linecap:round;stroke-linejoin:round;marker:none;" id="rect3907" width="4.035" height="9.594" x="52.107" y="-50.993" ry="0.663" transform="matrix(0.972,0.234,0,1,0,0)" />
 <rect transform="matrix(0.972,0.234,0,1,0,0)" ry="0.663" y="-54.625" x="50.487" height="5.050" width="7.540" id="rect3905" style="fill:#323232;stroke-width:0.507;stroke-linecap:round;stroke-linejoin:round;marker:none;" />
 <path id="rect3903" d="m 49.084,-42.134 0,3.697 c 0,0.367 0.288,0.743 0.649,0.830 l 6.033,1.446 c 0.689,0.195 1.379,-1.230 1.379,-1.553 l 0,-3.724 c 0,-0.367 -0.288,-0.743 -0.649,-0.830 l -6.006,-1.446 c -0.436,-0.114 -1.406,1.012 -1.406,1.580 z" style="fill:none;stroke:#000000;stroke-width:0.499;stroke-linecap:round;stroke-linejoin:round;marker:none;" />
 <rect style="fill:none;stroke:#2c2c2c;stroke-width:0.507;stroke-linecap:round;stroke-linejoin:round;marker:none;" id="rect3941" width="3.002" height="2.000" x="61.343" y="-50.897" ry="0.263" transform="matrix(0.972,0.232,0,1,0,0)" />
 </g>
 <g transform="translate(-12.682,63.014)" id="g5476">
 <path style="fill:#6a6a6a;stroke:none" id="path5478" d="m 29.726,-59.895 -16.72,8.43 0.05,8.12 16.67,8.36 0,-24.91 z" />
 <path style="fill:#7a7a7a;stroke:none" id="path5480" d="m 29.696,-59.735 0.01,24.78 16.77,-8.36 0,-8.22 -16.78,-8.2 z" />
 <path style="fill:none;stroke:#858585;stroke-width:1.38;stroke-linecap:butt;marker:none;" id="path5482" d="m 29.726,-43.225 0,7.79" />
 <path style="fill:#989898;stroke:none" id="path5484" d="m 29.726,-43.225 -16.69,-8.36 16.69,-8.35 16.71,8.4 -16.71,8.31 z" />
 <path style="fill:none;stroke:#bdbdbd;stroke-width:1.029;stroke-linejoin:round;stroke-opacity:1" id="path5486" d="m 13.456,-51.365 16.27,8.14 16.32,-8.16" />
 <path style="fill:none;fill-rule:nonzero;stroke:#030303;stroke-width:0.5;stroke-linecap:butt;marker:none;" id="path5488" d="m 29.726,-59.635 16.45,8.23 0,7.96 -16.45,8.23 -16.45,-8.22 0,-7.98 16.45,-8.22 z" />
 <path style="fill:#454545;stroke:none" id="path5490" d="m 15.696,-47.945 0,3.91 c 0.17,0.15 0.35,0.3 0.54,0.41 l 0,-4.25 c -0.19,-0.04 -0.37,-0.08 -0.54,-0.07 z m -0.09,0.02 c -0.2,0.02 -0.38,0.09 -0.53,0.18 l 0,3.03 c 0.15,0.22 0.33,0.42 0.53,0.6 l 0,-3.81 z m 0.72,0.1 0,4.25 c 0.09,0.05 0.19,0.09 0.28,0.13 0.09,0.04 0.16,0.07 0.25,0.09 l 0,-4.25 c -0.09,-0.05 -0.16,-0.09 -0.25,-0.12 -0.1,-0.05 -0.19,-0.08 -0.28,-0.1 z m 0.62,0.27 0,4.25 c 0.19,0.04 0.37,0.04 0.54,0.04 l 0,-3.88 c -0.17,-0.15 -0.35,-0.3 -0.54,-0.41 z m -1.96,-0.14 c -0.25,0.17 -0.43,0.43 -0.5,0.77 l 0,0.88 c 0.07,0.41 0.25,0.81 0.5,1.19 l 0,-2.84 z m 2.59,0.63 0,3.81 c 0.2,-0.02 0.38,-0.06 0.53,-0.15 l 0,-3.06 c -0.15,-0.22 -0.33,-0.42 -0.53,-0.6 z m 0.62,0.74 0,2.84 c 0.24,-0.17 0.43,-0.44 0.5,-0.78 l 0,-0.87 c -0.07,-0.41 -0.25,-0.81 -0.5,-1.19 z" />
 <path style="fill:#424242;stroke:none" id="path5492" d="m 45.116,-49.155 -0.34,0.17 0,2.78 0.34,-0.17 0,-2.78 z m -0.58,0.27 -0.3,0.17 0,2.78 0.3,-0.13 0,-2.82 z m -0.57,0.3 -0.31,0.14 0,2.82 0.31,-0.17 0,-2.79 z m -0.51,0.24 -0.34,0.17 0,2.82 0.34,-0.17 0,-2.82 z m -0.58,0.31 -0.34,0.17 0,2.78 0.34,-0.17 0,-2.78 z m -0.58,0.27 -0.34,0.17 0,2.81 0.34,-0.16 0,-2.82 z m -0.54,0.27 -0.34,0.17 0,2.82 0.34,-0.17 0,-2.82 z m -0.58,0.3 -0.3,0.14 0,2.82 0.3,-0.17 0,-2.79 z m -0.57,0.28 -0.31,0.17 0,2.78 0.31,-0.14 0,-2.81 z m -0.51,0.27 -0.34,0.13 0,2.82 0.34,-0.17 0,-2.78 z m -0.58,0.27 -0.34,0.17 0,2.78 0.34,-0.17 0,-2.78 z m -0.58,0.27 -0.34,0.17 0,2.82 0.34,-0.17 0,-2.82 z m 6.18,0.1 -0.34,0.17 0,2.18 0.34,-0.17 0,-2.18 z m -6.72,0.17 -0.34,0.17 0,2.82 0.34,-0.17 0,-2.82 z m 6.14,0.1 -0.3,0.17 0,2.18 0.3,-0.14 0,-2.21 z m -6.72,0.21 -0.3,0.13 0,2.82 0.3,-0.17 0,-2.78 z m 6.15,0.1 -0.31,0.14 0,2.2 0.31,-0.17 0,-2.17 z m -6.72,0.17 -0.31,0.17 0,2.78 0.31,-0.13 0,-2.82 z m 6.21,0.07 -0.34,0.17 0,2.2 0.34,-0.17 0,-2.2 z m -0.58,0.3 -0.34,0.17 0,2.18 0.34,-0.17 0,-2.18 z m -0.58,0.27 -0.34,0.17 0,2.21 0.34,-0.17 0,-2.21 z m -0.54,0.28 -0.34,0.17 0,2.2 0.34,-0.17 0,-2.2 z m -0.58,0.27 -0.3,0.17 0,2.2 0.3,-0.17 0,-2.2 z m -0.57,0.3 -0.31,0.14 0,2.21 0.31,-0.14 0,-2.21 z m -0.51,0.24 -0.34,0.17 0,2.24 0.34,-0.2 0,-2.21 z m -0.58,0.31 -0.34,0.17 0,2.2 0.34,-0.17 0,-2.2 z m -0.58,0.27 -0.34,0.17 0,2.24 0.34,-0.17 0,-2.24 z m -0.54,0.27 -0.34,0.17 0,2.24 0.34,-0.17 0,-2.24 z m -0.58,0.27 -0.3,0.17 0,2.11 0.23,0 0.07,-0.04 0,-2.24 z m -0.57,0.31 -0.31,0.13 0,2.07 0.31,0 0,-2.2 z" />
 <path style="fill:none;fill-rule:nonzero;stroke:#424242;stroke-width:0.300;stroke-linecap:butt;marker:none;" id="path5494" d="m 35.576,-44.215 c -0.11,0 -0.22,0.06 -0.35,0.12 l -3.59,1.85 c -0.5,0.25 -0.91,0.89 -0.91,1.47 l 0,0.03 c 0,0.57 0.41,0.82 0.91,0.56 l 3.59,-1.84 c 0.51,-0.26 0.91,-0.93 0.91,-1.5 0,-0.43 -0.24,-0.7 -0.56,-0.69 z" />
 </g>
 <g transform="matrix(-1,0,0,1,99.044,40.820)" id="g5607">
 <path id="path5609" d="m 86.617,-26.332 c 0.328,0.001 0.506,-0.234 0.380,-0.534 l -1.743,-4.132 c -0.125,-0.300 -0.481,-0.564 -0.809,-0.565 l -2.516,-0.009 -1.728,-0.809 c -0.450,-0.206 -1.195,-0.202 -1.650,-0.005 l -6.259,2.710 c -0.454,0.196 -0.452,0.516 -0.002,0.723 l 2.835,1.322 c 0.450,0.206 1.195,0.202 1.650,0.005 l 4.200,-1.833 1.072,2.575 c 0.125,0.300 0.508,0.537 0.836,0.538 l 3.733,0.013 z" style="fill:#d3d3d3;stroke:#000000;stroke-width:0.499;stroke-linecap:round;stroke-linejoin:round;marker:none;" />
 <rect style="fill:#656565;stroke:#000000;stroke-width:0.507;stroke-linecap:round;stroke-linejoin:round;marker:none;" id="rect5611" width="4.035" height="9.594" x="81.966" y="-59.917" ry="0.663" transform="matrix(0.972,0.234,0,1,0,0)" />
 <path style="fill:#6c6c6c;stroke-width:0.5;stroke-linecap:round;stroke-linejoin:round;marker:none;" d="m 70.752,-47.039 0,10.314 c 0,1.019 0.785,2.035 1.785,2.277 l 16.665,4.018 c 1.631,0.433 2.894,-1.577 2.894,-3.027 l 0,-10.314 c 0,-1.019 -0.812,-2.035 -1.812,-2.277 l -16.665,-4.018 c -1.435,-0.311 -2.867,1.821 -2.867,3.027 z" id="path5613" />
 <rect style="fill:#3e3e3e;stroke-width:0.507;stroke-linecap:round;stroke-linejoin:round;marker:none;" id="rect5615" width="20.856" height="14.001" x="72.772" y="-65.949" ry="1.840" transform="matrix(0.972,0.234,0,1,0,0)" />
 <path id="path5617" d="m 70.752,-47.039 0,10.314 c 0,1.019 0.785,2.035 1.785,2.277 l 16.665,4.018 c 1.631,0.433 2.894,-1.577 2.894,-3.027 l 0,-10.314 c 0,-1.019 -0.812,-2.035 -1.812,-2.277 l -16.665,-4.018 c -1.435,-0.311 -2.867,1.821 -2.867,3.027 z" style="fill:none;stroke:#000000;stroke-width:0.499;stroke-linecap:round;stroke-linejoin:round;marker:none;" />
 <rect transform="matrix(0.972,0.234,0,1,0,0)" ry="1.676" y="-64.997" x="73.702" height="11.511" width="18.996" id="rect5619" style="fill:#323232;stroke-width:0.507;stroke-linecap:round;stroke-linejoin:round;marker:none;" />
 <rect style="fill:#437d7d;stroke-width:0.507;stroke-linecap:round;stroke-linejoin:round;marker:none;" id="rect5621" width="17.994" height="10.904" x="74.417" y="-64.813" ry="1.588" transform="matrix(0.972,0.234,0,1,0,0)" />
 <ellipse ry="0.384" rx="0.473" cy="-60.632" cx="70.484" style="fill:#000000;stroke-width:0.5;stroke-linecap:round;stroke-linejoin:round;marker:none;" id="ellipse5623" transform="matrix(0.935,0.353,-0.359,0.933,0,0)" />
 <ellipse ry="0.384" rx="0.473" cy="-60.414" cx="68.932" transform="matrix(0.935,0.353,-0.359,0.933,0,0)" id="ellipse5625" style="fill:#000000;stroke-width:0.5;stroke-linecap:round;stroke-linejoin:round;marker:none;" />
 <path style="fill:#56a0a0;stroke-width:0.5;stroke-linecap:round;stroke-linejoin:round;marker:none;" d="m 72.459,-46.313 c -0.053,0.129 -0.096,0.272 -0.108,0.428 l 17.477,4.206 c -0.011,-0.165 -0.051,-0.323 -0.108,-0.482 l -17.260,-4.152 z m -0.108,1.419 0,0.455 17.477,4.206 0,-0.455 -17.477,-4.206 z m 0,1.446 0,0.455 17.477,4.206 0,-0.455 -17.477,-4.206 z m 0,1.446 0,0.455 17.477,4.206 0,-0.455 -17.477,-4.206 z m 0,1.446 0,0.455 17.477,4.206 0,-0.455 -17.477,-4.206 z m 0,1.446 0,0.428 17.477,4.233 0,-0.455 -17.477,-4.206 z m 0.054,1.446 c 0.037,0.168 0.081,0.326 0.162,0.482 l 17.017,4.125 c 0.083,-0.117 0.150,-0.249 0.189,-0.401 L 72.405,-37.659 Z" id="path5627" />
 </g>
 <g id="g5496" transform="translate(-0.198,2.576)">
 <path id="path3219-1" d="m 38.331,3.522 c -3.595,0 -6.830,1.501 -9.113,3.888 -1.204,0.263 -1.989,0.194 -2.451,-0.082 -0.382,0.477 -0.191,1.909 0,2.386 -1.721,-0.095 -3.058,-0.188 -3.728,-0.857 -0.191,1.432 0.093,2.959 0.380,3.341 -0.765,0 -1.050,0.284 -1.433,0.189 0.544,2.486 1.659,4.784 3.808,5.605 -0.003,0.271 -0.009,0.515 -0.009,0.810 l 0,4.5 c 0,3.323 2.728,5.966 6.113,5.966 l 12.830,0 c 3.385,0 6.113,-2.643 6.113,-5.966 l 0,-4.5 0,-0.658 c 2.464,-0.645 3.705,-3.092 4.289,-5.757 -0.382,0.095 -0.670,-0.189 -1.435,-0.189 0.286,-0.381 0.574,-1.909 0.382,-3.341 -0.669,0.668 -2.008,0.761 -3.730,0.857 0.191,-0.477 0.382,-1.909 0,-2.386 -0.532,0.319 -1.502,0.354 -3.048,-0.074 -2.273,-2.297 -5.448,-3.732 -8.966,-3.732 z" style="fill:#2c2ea0;stroke:#000000;stroke-width:0.5;stroke-linecap:butt;marker:none;" />
 <path id="path4398-1-1-4" transform="translate(0.198,-2.576)" d="M 40.634 28.320 C 40.020 28.324 39.289 28.349 38.378 28.349 L 38.312 28.349 C 36.946 28.349 35.965 28.320 35.226 28.349 C 34.095 28.394 33.534 28.623 33.144 29.392 C 32.481 29.234 31.758 29.345 31.162 29.779 L 28.160 31.962 C 27.573 32.389 28.142 33.300 28.929 34.376 C 29.615 35.315 30.164 36.107 30.742 35.968 C 30.734 36.019 30.719 36.075 30.712 36.125 C 30.701 36.219 30.686 36.313 30.679 36.404 C 30.653 36.679 30.648 36.941 30.679 37.175 C 30.699 37.324 30.725 37.435 30.746 37.576 C 30.978 39.147 31.246 40.226 31.443 41.001 L 31.443 44.162 L 37.083 44.162 L 37.083 41.402 C 37.083 40.249 39.632 40.280 39.607 41.402 L 39.609 44.162 L 45.248 44.162 L 45.248 41.001 C 45.445 40.226 45.713 39.147 45.945 37.576 C 45.967 37.425 45.990 37.337 46.011 37.175 C 46.042 36.941 46.037 36.679 46.011 36.404 C 46.003 36.312 45.990 36.220 45.978 36.125 C 45.972 36.076 45.958 36.023 45.951 35.974 C 46.475 35.958 46.988 35.233 47.615 34.376 C 48.402 33.300 48.971 32.389 48.384 31.962 L 45.382 29.779 C 44.828 29.376 44.163 29.245 43.541 29.355 C 43.066 28.433 42.340 28.310 40.634 28.320 z " style="fill:#11242d;stroke:#000000;stroke-width:0.5;stroke-linecap:round;stroke-linejoin:round;marker:none;" />
 <path id="path2422-7-3" d="m 38.580,27.678 c -1.791,0 -3.242,1.283 -3.242,2.851 0,0.978 0.611,1.778 1.468,2.247 -0.012,-0.026 -0.030,-0.050 -0.039,-0.077 l 0.116,0.129 c -0.028,-0.014 -0.049,-0.036 -0.077,-0.051 0.115,0.251 0.353,0.447 0.646,0.580 0.323,0.147 0.716,0.229 1.128,0.229 0.407,0 0.803,-0.080 1.130,-0.227 0.295,-0.132 0.536,-0.327 0.653,-0.580 -0.026,0.014 -0.047,0.035 -0.074,0.049 L 40.404,32.701 c -0.009,0.027 -0.027,0.051 -0.039,0.077 0.853,-0.469 1.468,-1.273 1.468,-2.249 0,-1.569 -1.460,-2.851 -3.252,-2.851 z m 0,0.441 c 1.514,0 2.745,1.079 2.745,2.409 0,0.791 -0.482,1.434 -1.170,1.835 -0.047,-0.044 -0.099,-0.087 -0.159,-0.108 -0.147,-0.051 -0.302,-0.051 -0.467,-0.043 -0.329,0.016 -0.705,0.082 -0.983,0.082 -0.271,0 -0.651,-0.078 -0.983,-0.106 -0.166,-0.013 -0.324,-0.018 -0.477,0.030 -0.054,0.017 -0.099,0.057 -0.144,0.095 -0.648,-0.402 -1.093,-1.019 -1.093,-1.786 0,-1.330 1.219,-2.409 2.733,-2.409 z m -1.326,1.586 a 0.729,0.638 0 0 0 -0.730,0.638 0.729,0.638 0 0 0 0.730,0.638 0.729,0.638 0 0 0 0.728,-0.638 0.729,0.638 0 0 0 -0.728,-0.638 z m 2.666,0 a 0.729,0.638 0 0 0 -0.730,0.638 0.729,0.638 0 0 0 0.730,0.638 0.729,0.638 0 0 0 0.728,-0.638 0.729,0.638 0 0 0 -0.728,-0.638 z m -1.726,1.366 a 0.226,0.374 0 0 0 -0.211,0.374 0.226,0.374 0 0 0 0.226,0.372 0.226,0.374 0 0 0 0.228,-0.372 0.226,0.374 0 0 0 -0.228,-0.374 0.226,0.374 0 0 0 -0.014,0 z m 0.747,0 a 0.226,0.374 0 0 0 -0.203,0.374 0.226,0.374 0 0 0 0.226,0.372 0.226,0.374 0 0 0 0.226,-0.372 0.226,0.374 0 0 0 -0.226,-0.374 0.226,0.374 0 0 0 -0.022,0 z m -3.697,0.896 c -0.220,0.016 -0.435,0.110 -0.583,0.270 -0.029,0.031 -0.065,0.071 -0.099,0.129 -0.137,0.236 0.024,0.483 0.188,0.703 -0.329,0.063 -0.694,0.143 -0.752,0.445 -0.079,0.406 0.241,0.794 0.710,0.874 0.228,0.038 0.505,0.023 0.775,-0.036 0.134,-0.030 0.264,-0.073 0.382,-0.136 0.037,-0.020 0.056,-0.066 0.091,-0.093 l 1.036,0.411 -1.115,0.443 c -0.136,-0.086 -0.259,-0.196 -0.422,-0.229 -0.257,-0.051 -0.518,-0.065 -0.735,-0.028 -0.467,0.079 -0.803,0.460 -0.723,0.872 0.061,0.316 0.440,0.405 0.787,0.456 -0.186,0.262 -0.356,0.572 -0.124,0.822 0.299,0.322 0.853,0.367 1.232,0.110 0.183,-0.124 0.351,-0.319 0.477,-0.536 0.062,-0.108 0.113,-0.220 0.136,-0.339 0.007,-0.039 -0.022,-0.083 -0.022,-0.125 l 2.077,-0.822 2.077,0.822 c 1.04e-4,0.042 -0.030,0.086 -0.022,0.125 0.023,0.119 0.073,0.231 0.136,0.339 0.125,0.217 0.293,0.412 0.477,0.536 0.379,0.257 0.934,0.212 1.234,-0.110 0.232,-0.250 0.061,-0.558 -0.124,-0.820 0.347,-0.051 0.725,-0.141 0.787,-0.458 0.080,-0.411 -0.256,-0.792 -0.723,-0.872 -0.216,-0.036 -0.477,-0.023 -0.735,0.028 -0.163,0.032 -0.285,0.143 -0.422,0.229 l -1.118,-0.443 1.038,-0.411 c 0.035,0.026 0.053,0.072 0.091,0.093 0.117,0.063 0.248,0.106 0.382,0.136 0.269,0.060 0.547,0.075 0.775,0.036 0.469,-0.080 0.786,-0.469 0.708,-0.874 -0.058,-0.302 -0.423,-0.382 -0.752,-0.445 0.164,-0.220 0.326,-0.467 0.188,-0.703 -0.029,-0.051 -0.062,-0.093 -0.096,-0.129 -0.297,-0.320 -0.845,-0.360 -1.219,-0.106 -0.173,0.117 -0.333,0.298 -0.459,0.502 -0.079,0.128 -0.065,0.281 -0.081,0.428 l -2.141,0.848 -2.141,-0.846 c -0.015,-0.147 -1.5e-5,-0.301 -0.079,-0.430 -0.125,-0.203 -0.285,-0.384 -0.459,-0.502 -0.188,-0.127 -0.417,-0.181 -0.636,-0.164 z m 6.586,0.437 c 0.090,0.006 0.175,0.045 0.236,0.110 0.018,0.019 0.036,0.041 0.042,0.051 0.071,0.123 0.040,0.275 -0.109,0.376 0.009,-0.006 -0.016,0.008 -0.047,0.025 a 0.254,0.221 0 0 0 0.208,0.398 c 0.042,-0.010 0.075,-0.018 0.054,-0.015 0.209,-0.035 0.374,0.070 0.407,0.238 0.032,0.167 -0.094,0.332 -0.305,0.368 -0.101,0.017 -0.350,0.009 -0.549,-0.034 -0.099,-0.022 -0.188,-0.052 -0.243,-0.082 -0.054,-0.029 -0.063,-0.052 -0.062,-0.047 a 0.254,0.221 0 0 0 -0.347,-0.134 l -1.702,0.675 a 0.254,0.221 0 0 0 0,0.402 l 1.709,0.677 a 0.254,0.221 0 0 0 0.330,-0.099 c 0.002,-0.004 0.138,-0.095 0.330,-0.134 0.191,-0.038 0.422,-0.042 0.521,-0.025 0.213,0.036 0.351,0.204 0.320,0.365 -0.031,0.161 -0.208,0.268 -0.417,0.233 -0.001,-3.25e-4 -0.022,-0.006 -0.049,-0.012 a 0.254,0.221 0 0 0 -0.208,0.398 c 0.022,0.012 0.039,0.023 0.039,0.023 0.170,0.115 0.195,0.305 0.077,0.433 -0.118,0.127 -0.355,0.151 -0.524,0.036 -0.081,-0.055 -0.242,-0.224 -0.335,-0.385 -0.046,-0.080 -0.078,-0.160 -0.089,-0.216 -0.011,-0.056 0.003,-0.078 0,-0.073 A 0.254,0.221 0 0 0 41.002,35.645 L 38.664,34.716 a 0.254,0.221 0 0 0 -0.208,0 l -2.338,0.928 a 0.254,0.221 0 0 0 -0.114,0.316 c -0.003,-0.005 0.011,0.017 0,0.073 -0.011,0.056 -0.042,0.136 -0.089,0.216 -0.092,0.160 -0.253,0.329 -0.335,0.385 -0.169,0.114 -0.402,0.091 -0.521,-0.036 -0.118,-0.127 -0.094,-0.318 0.074,-0.433 -0.010,0.006 0.011,-0.005 0.042,-0.023 a 0.254,0.221 0 0 0 -0.208,-0.398 c -0.025,0.006 -0.043,0.012 -0.047,0.012 -0.210,0.035 -0.388,-0.071 -0.419,-0.233 -0.031,-0.161 0.106,-0.329 0.320,-0.365 0.099,-0.016 0.330,-0.012 0.521,0.025 0.191,0.038 0.327,0.129 0.330,0.134 a 0.254,0.221 0 0 0 0.330,0.099 l 1.706,-0.677 a 0.254,0.221 0 0 0 0,-0.402 L 36.008,33.662 a 0.254,0.221 0 0 0 -0.347,0.134 c 0.002,-0.005 -0.007,0.018 -0.062,0.047 -0.054,0.029 -0.144,0.060 -0.243,0.082 -0.198,0.044 -0.447,0.051 -0.549,0.034 -0.211,-0.036 -0.340,-0.201 -0.308,-0.368 0.032,-0.166 0.200,-0.273 0.409,-0.238 -0.020,-0.003 0.012,0.004 0.054,0.015 A 0.254,0.221 0 0 0 35.171,32.971 c -0.038,-0.021 -0.068,-0.038 -0.049,-0.025 -0.149,-0.101 -0.181,-0.253 -0.109,-0.376 0.002,-0.003 0.021,-0.027 0.044,-0.051 0.060,-0.065 0.140,-0.099 0.231,-0.106 0.093,-0.007 0.192,0.015 0.278,0.073 0.079,0.054 0.229,0.209 0.323,0.361 0.093,0.152 0.106,0.302 0.104,0.307 a 0.254,0.221 0 0 0 0.131,0.281 l 2.330,0.924 a 0.254,0.221 0 0 0 0.208,0 l 2.330,-0.924 a 0.254,0.221 0 0 0 0.131,-0.281 c -0.002,-0.004 0.010,-0.155 0.104,-0.307 0.093,-0.152 0.245,-0.307 0.325,-0.361 0.086,-0.058 0.182,-0.084 0.273,-0.077 z m -4.303,0.114 c 0.285,0.023 0.669,0.108 1.018,0.108 0.342,0 0.723,-0.070 1.006,-0.084 0.141,-0.006 0.255,0.004 0.305,0.021 0.035,0.012 0.033,0.026 0.037,0.043 -0.056,0.124 -0.193,0.254 -0.417,0.355 -0.243,0.109 -0.568,0.177 -0.896,0.177 -0.334,0 -0.652,-0.068 -0.892,-0.177 -0.239,-0.108 -0.387,-0.252 -0.432,-0.387 a 0.254,0.221 0 0 0 -0.022,-0.045 c 0.053,-0.014 0.157,-0.022 0.293,-0.010 z" style="font-style:normal;font-variant:normal;font-weight:normal;font-stretch:normal;font-size:medium;line-height:normal;font-family:sans-serif;text-indent:0;text-align:start;text-decoration:none;text-decoration-line:none;text-decoration-style:letter-spacing:normal;word-spacing:normal;text-transform:none;direction:ltr;block-progression:tb;writing-mode:lr-tb;baseline-shift:baseline;text-anchor:start;white-space:normal;fill:#44515a;stroke-width:0.400;stroke-linecap:round;stroke-linejoin:round;marker:none;" />
 <path id="path2436-4" d="m 31.294,10.286 c -1.791,2.401 -0.508,5.174 -0.380,8.537 0.075,1.977 -0.519,3.821 -1.433,4.841 1.127,1.150 2.139,1.676 3.046,2.269 1.379,0.901 2.235,2.241 4.593,2.630 0.024,0.002 0.049,-0.002 0.074,0 0.397,0.040 0.777,0.074 1.185,0.074 0.408,0 0.826,-0.033 1.224,-0.074 0.012,-0.001 0.023,0.001 0.035,0 0.012,-0.002 0.024,0.002 0.037,0 2.354,-0.391 3.218,-1.730 4.595,-2.630 0.904,-0.591 1.908,-1.111 3.029,-2.253 -0.580,-1.940 -0.469,-5.184 -0.642,-6.076 -0.255,-1.321 -0.884,-1.906 -2.675,-3.587 0.255,0.240 0.623,1.658 0.878,2.619 -1.407,-0.240 -4.349,-1.203 -5.884,-2.404 0.767,0.720 1.910,3.875 1.910,3.875 0,0 -9.081,-2.536 -9.593,-7.820 z" style="fill:#f3be73;stroke:#000000;stroke-width:0.499;stroke-linecap:round;stroke-linejoin:round;marker:none;" />
 <g id="g4970" style="display:inline" transform="translate(-18.322,-6.854)">
 <path style="fill:#ffffff;stroke:#000000;stroke-width:0.5;stroke-linecap:round;stroke-linejoin:round;marker:none;" d="m 54.486,25.223 c 0.564,2.032 0.239,1.817 -1.240,2.238 -0.952,0.271 -1.942,-0.291 -2.210,-1.256 -0.267,-0.964 0.288,-1.967 1.240,-2.238 0.952,-0.271 1.942,0.291 2.210,1.256 z" id="path3468-8" />
 <ellipse ry="1.209" rx="1.194" cy="25.706" cx="53.061" style="fill:#000000;stroke-width:0.5;marker:none;" id="path3470-1" />
 <ellipse ry="0.485" rx="0.503" cy="25.353" cx="52.762" style="fill:#ffffff;stroke-width:0.5;marker:none;" id="path3472-9" />
 <path id="path3474-7" d="m 59.231,25.223 c -0.564,2.032 -0.239,1.817 1.240,2.238 0.952,0.271 1.942,-0.291 2.210,-1.256 0.267,-0.964 -0.288,-1.967 -1.240,-2.238 -0.952,-0.271 -1.942,0.291 -2.210,1.256 z" style="fill:#ffffff;stroke:#000000;stroke-width:0.5;stroke-linecap:round;stroke-linejoin:round;marker:none;" />
 <ellipse ry="1.209" rx="1.194" cy="25.706" cx="-60.656" transform="scale(-1,1)" id="path3476-2" style="fill:#000000;stroke-width:0.5;marker:none;" />
 <ellipse ry="0.485" rx="0.503" cy="25.353" cx="-60.464" transform="scale(-1,1)" id="path3478-7" style="fill:#ffffff;stroke-width:0.5;marker:none;" />
 </g>
 <g transform="translate(-18.322,-4.772)" id="g5036" style="display:inline">
 <circle style="fill:#a4c6f4;fill-opacity:0.530;stroke-width:0.5;stroke-linecap:butt;marker:none;" id="path4073" cx="52.302" cy="16.619" r="3.417" />
 <circle r="3.417" cy="-55.909" cx="-30.200" id="circle4879" style="fill:#a4c6f4;fill-opacity:0.530;stroke-width:0.5;stroke-linecap:butt;marker:none;" transform="matrix(-0.228,-0.973,-0.973,0.228,0,0)" />
 <path style="fill:#cfe1f9;fill-opacity:0.270;stroke-width:0.5;stroke-linecap:butt;marker:none;" d="m 61.470,13.205 a 3.417,3.417 0 0 0 -0.919,0.087 3.417,3.417 0 0 0 -2.435,2.175 5.068,4.263 0 0 0 4.376,0.865 5.068,4.263 0 0 0 2.056,-0.863 3.417,3.417 0 0 0 -3.078,-2.265 z" id="circle5012" />
 <path style="fill:#cfe1f9;fill-opacity:0.270;stroke-width:0.5;stroke-linecap:butt;marker:none;" d="m 52.302,13.201 a 3.417,3.417 0 0 0 -3.183,2.183 5.068,4.263 0 0 0 4.5,0.949 5.068,4.263 0 0 0 1.927,-0.775 3.417,3.417 0 0 0 -3.244,-2.357 z" id="ellipse5014" />
 <circle r="3.417" cy="16.619" cx="52.302" id="circle4877" style="fill:none;stroke:#000000;stroke-width:0.5;stroke-linecap:butt;marker:none;" />
 <circle style="fill:none;stroke:#000000;stroke-width:0.5;stroke-linecap:butt;marker:none;" id="circle4883" cx="-30.200" cy="-55.909" r="3.417" transform="matrix(-0.228,-0.973,-0.973,0.228,0,0)" />
 <path style="fill:none;stroke:#000000;stroke-width:1px;stroke-linecap:butt;stroke-opacity:1" d="m 55.793,16.430 2.064,0" id="path4885" />
 </g>
 <path id="path5172" d="m 31.928,0.454 c 0,2.431 0.810,4.631 1.968,5.905" style="fill:none;stroke:#000000;stroke-width:1px;stroke-linecap:butt;stroke-opacity:1" />
 <circle r="2.547" cy="0.048" cx="31.928" id="path5141" style="fill:#ff9d53;stroke:#000000;stroke-width:0.5;stroke-linecap:butt;marker:none;" />
 <path style="fill:none;stroke:#000000;stroke-width:1px;stroke-linecap:butt;stroke-opacity:1" d="m 44.766,0.454 c 0,2.431 -0.810,4.631 -1.968,5.905" id="path5174" />
 <circle style="fill:#ff9d53;stroke:#000000;stroke-width:0.5;stroke-linecap:butt;marker:none;" id="circle5143" cx="44.722" cy="0.048" r="2.547" />
 <path id="path5145" d="m 38.528,4.749 c -2.572,0 -4.960,0.792 -6.974,2.142 l 0,1.980 c 1.927,-1.577 4.345,-2.523 6.974,-2.523 2.539,0 4.879,0.886 6.773,2.367 l 0,-1.951 C 43.330,5.495 41.016,4.749 38.528,4.749 Z" style="font-style:normal;font-variant:normal;font-weight:normal;font-stretch:normal;font-size:medium;line-height:normal;font-family:sans-serif;text-indent:0;text-align:start;text-decoration:none;text-decoration-line:none;text-decoration-style:letter-spacing:normal;word-spacing:normal;text-transform:none;direction:ltr;block-progression:tb;writing-mode:lr-tb;baseline-shift:baseline;text-anchor:start;white-space:normal;fill:#000000;stroke-width:1.600;stroke-linecap:butt;marker:none;" />
 <path id="path3231-1" d="m 37.442,23.088 0.237,0.118" style="fill:none;stroke:#000000;stroke-width:0.5;stroke-linecap:round;stroke-opacity:1" />
 <path style="fill:none;stroke:#000000;stroke-width:0.5;stroke-linecap:round;stroke-opacity:1" d="m 39.612,23.088 -0.237,0.118" id="path3233-3" />
 <circle r="0.941" cy="-0.791" cx="31.169" id="path5176" style="fill:#ffc091;stroke-width:1.600;stroke-linecap:butt;marker:none;" />
 <circle style="fill:#ffc091;stroke-width:1.600;stroke-linecap:butt;marker:none;" id="circle5178" cx="44.023" cy="-0.791" r="0.941" />
 <path id="path3467-8" d="m 53.226,32.443 c -0.390,0.557 -1.039,0.791 -2.154,0.009 -0.253,-0.178 -0.517,-0.403 -0.773,-0.647 0.119,0.187 0.247,0.378 0.335,0.556 0.558,1.131 0.244,1.696 -0.321,1.975 -0.565,0.278 -1.168,0.167 -1.727,-0.963 -0.180,-0.365 -0.322,-0.800 -0.440,-1.251 0.021,0.424 -2e-5,0.866 -0.064,1.234 -0.179,1.026 -0.646,1.254 -1.159,1.163 -0.512,-0.091 -0.855,-0.465 -0.676,-1.491 0.086,-0.494 0.276,-1.100 0.522,-1.579 -0.898,-0.674 -1.277,-1.909 -0.806,-2.982 0.192,-0.439 0.518,-0.757 0.887,-1.009 0.007,-0.004 0.005,-0.023 0.012,-0.028 0.084,-0.447 0.325,-0.963 0.682,-1.475 0.728,-1.044 1.553,-1.252 2.039,-0.913 0.486,0.339 0.443,1.082 -0.285,2.127 -0.013,0.019 -0.039,0.025 -0.053,0.044 0.335,0.152 0.617,0.381 0.843,0.643 0.685,-0.165 1.559,-0.216 2.245,-0.140 1.267,0.140 1.574,0.678 1.506,1.310 -0.068,0.631 -0.489,1.109 -1.756,0.969 -0.178,-0.019 -0.370,-0.070 -0.565,-0.111 0.350,0.169 0.701,0.371 0.979,0.566 1.114,0.781 1.119,1.435 0.729,1.992 z" style="fill:#f3be73;stroke:#000000;stroke-width:0.5;stroke-linecap:round;marker:none;" />
 <path style="fill:#f3be73;stroke:#000000;stroke-width:0.5;stroke-linecap:round;marker:none;" d="m 24.007,32.443 c 0.390,0.557 1.039,0.791 2.154,0.009 0.253,-0.178 0.517,-0.403 0.773,-0.647 -0.119,0.187 -0.247,0.378 -0.335,0.556 -0.558,1.131 -0.244,1.696 0.321,1.975 0.565,0.278 1.168,0.167 1.727,-0.963 0.180,-0.365 0.322,-0.800 0.440,-1.251 -0.021,0.424 1.8e-5,0.866 0.064,1.234 0.179,1.026 0.646,1.254 1.159,1.163 0.512,-0.091 0.855,-0.465 0.676,-1.491 -0.086,-0.494 -0.276,-1.100 -0.522,-1.579 0.898,-0.674 1.277,-1.909 0.806,-2.982 -0.192,-0.439 -0.518,-0.757 -0.887,-1.009 -0.007,-0.004 -0.005,-0.023 -0.012,-0.028 -0.084,-0.447 -0.325,-0.963 -0.682,-1.475 -0.728,-1.044 -1.553,-1.252 -2.039,-0.913 -0.486,0.339 -0.443,1.082 0.285,2.127 0.013,0.019 0.039,0.025 0.053,0.044 -0.335,0.152 -0.617,0.381 -0.843,0.643 -0.685,-0.165 -1.559,-0.216 -2.245,-0.140 -1.267,0.140 -1.574,0.678 -1.506,1.310 0.068,0.631 0.489,1.109 1.756,0.969 0.178,-0.019 0.370,-0.070 0.565,-0.111 -0.350,0.169 -0.701,0.371 -0.979,0.566 -1.114,0.781 -1.119,1.435 -0.729,1.992 z" id="path5258" />
 <path id="rect5038" d="m 38.072,25.204 0,1.187 c 0,0.637 0.518,1.125 1.156,1.125 l 0.093,0 c 0.637,0 1.156,-0.487 1.156,-1.125 l 0,-1.187" style="fill:#ca3131;stroke:#000000;stroke-width:0.5;stroke-linecap:round;marker:none;" />
 <path id="path5043" d="m 39.268,25.220 0,0.644" style="fill:none;stroke:#000000;stroke-width:0.5;stroke-linecap:round;stroke-opacity:1" />
 <path id="rect2418" d="m 35.137,25.192 6.346,0" style="fill:none;stroke:#000000;stroke-width:0.5;stroke-linecap:round;stroke-linejoin:round;marker:none;" />
 </g>
 <g id="g6144" transform="translate(15.413,59.410)">
 <path d="m 93.735,-45.567 12.357,6.221 -0.039,13.480 -12.318,6.181 0,-25.883 z" id="p2417" style="fill:#5f5f5f;stroke:none" />
 <path d="m 93.757,-45.297 -0.005,25.630 -12.397,-6.176 0,-13.396 12.402,-6.058 z" id="p2419" style="fill:#6e6e6e;stroke:none" />
 <path d="m 93.735,-33.091 0,13.070" id="p2421" style="fill:none;stroke:#787878;stroke-width:1.840;stroke-linecap:butt;marker:none;" />
 <path d="m 93.735,-33.248 12.335,-6.181 -12.335,-6.176 -12.346,6.209 12.346,6.148 z" id="p2423" style="fill:#898989;stroke:none" />
 <path d="m 105.767,-39.267 -12.032,6.018 -12.060,-6.035" id="p2425" style="fill:none;stroke:#aaaaaa;stroke-width:1.38;stroke-linejoin:round;stroke-opacity:1" />
 <path d="m 93.735,-45.702 -12.155,6.086 0,13.677 12.155,6.080 12.161,-6.075 0,-13.688 -12.161,-6.080 z" id="p2427" style="fill:none;fill-rule:nonzero;stroke:#000000;stroke-width:0.5;stroke-linecap:butt;marker:none;" />
 <path style="fill:#343434;fill-rule:nonzero;marker:none;" id="r2539" d="m 84.106,-35.781 c 0.196,0.005 0.404,0.056 0.628,0.174 l 6.035,3.088 c 0.909,0.460 1.633,1.656 1.633,2.683 l 0,5.687 c 0,1.027 -0.724,1.476 -1.633,1.016 l -6.035,-3.071 c -0.903,-0.466 -1.628,-1.673 -1.628,-2.700 l 0,-5.687 c 0,-0.769 0.409,-1.212 0.999,-1.190 z" />
 <path style="fill:#2a3b2b;fill-rule:nonzero;marker:none;" id="r3311" d="m 83.825,-36.011 c -0.061,0.162 -0.084,0.342 -0.084,0.561 l 0,5.665 c 0,1.033 0.729,2.251 1.645,2.723 l 6.091,3.138 c 0.241,0.123 0.477,0.190 0.684,0.196 0.056,-0.168 0.084,-0.348 0.084,-0.561 l 0,-5.670 c 0,-1.033 -0.729,-2.245 -1.650,-2.717 l -6.086,-3.144 c -0.241,-0.123 -0.477,-0.190 -0.684,-0.190 z" />
 <path style="fill:#284024;stroke:none" id="p3316" d="m 83.758,-35.606 c -0.006,0.050 -0.016,0.101 -0.016,0.157 l 0,0.774 8.455,4.227 c -0.084,-0.409 -0.252,-0.825 -0.494,-1.195 l -7.944,-3.963 z m -0.016,1.734 0,0.948 8.506,4.261 0,-0.943 -8.506,-4.267 z m 0,1.757 0,0.948 8.506,4.261 0,-0.948 -8.506,-4.261 z m 0,1.751 0,0.578 c 0,0.123 0.011,0.241 0.033,0.370 0,0.005 0,0.011 0,0.016 l 8.472,4.227 0,-0.926 -8.506,-4.267 z m 0.364,1.931 c 0.303,0.583 0.757,1.100 1.280,1.369 l 6.091,3.138 c 0.241,0.123 0.477,0.190 0.684,0.196 0.056,-0.168 0.084,-0.348 0.084,-0.561 l 0,-0.072 -8.141,-4.070 z" />
 <path style="fill:#0ccd0a;stroke:none" id="p3364" d="m 84.336,-33.973 c -0.039,-0.005 -0.078,-0.005 -0.106,0.016 -0.061,0.033 -0.106,0.095 -0.140,0.157 -0.067,0.123 -0.112,0.297 -0.157,0.505 -0.078,0.353 -0.134,0.808 -0.190,1.285 l 0,1.560 c 0.061,-0.376 0.117,-0.797 0.174,-1.246 0.067,-0.572 0.140,-1.162 0.224,-1.560 0.044,-0.202 0.095,-0.353 0.140,-0.437 0.028,-0.044 0.050,-0.067 0.056,-0.072 0.022,0.011 0.084,0.095 0.140,0.247 0.050,0.145 0.112,0.364 0.157,0.611 0.084,0.494 0.140,1.117 0.207,1.757 0.067,0.640 0.134,1.296 0.230,1.807 0.050,0.252 0.106,0.471 0.174,0.645 0.067,0.174 0.145,0.303 0.280,0.370 0.067,0.033 0.145,0.050 0.213,0.016 0.067,-0.033 0.117,-0.095 0.157,-0.157 0.073,-0.123 0.129,-0.297 0.174,-0.510 0.095,-0.421 0.151,-0.999 0.213,-1.577 0.061,-0.578 0.123,-1.156 0.207,-1.560 0.044,-0.202 0.095,-0.359 0.140,-0.437 0.022,-0.044 0.028,-0.050 0.033,-0.056 0.006,0 0.006,-0.005 0.022,0 0.028,0.016 0.101,0.095 0.157,0.247 0.056,0.151 0.112,0.353 0.157,0.595 0.089,0.488 0.162,1.122 0.224,1.757 0.067,0.634 0.129,1.280 0.213,1.791 0.044,0.252 0.078,0.471 0.140,0.645 0.056,0.174 0.123,0.297 0.247,0.370 0.011,0.005 0.016,0.016 0.016,0.016 l 0.016,0 c 0.067,0.028 0.151,0.022 0.207,-0.016 0.061,-0.039 0.089,-0.095 0.123,-0.157 0.067,-0.129 0.112,-0.297 0.157,-0.510 0.095,-0.426 0.162,-1.010 0.230,-1.577 0.067,-0.572 0.140,-1.128 0.230,-1.527 0.039,-0.202 0.089,-0.353 0.140,-0.437 0.022,-0.044 0.044,-0.067 0.050,-0.072 0.022,0.011 0.089,0.095 0.140,0.247 0.050,0.151 0.101,0.353 0.140,0.595 0.084,0.494 0.145,1.134 0.213,1.774 0.061,0.640 0.145,1.280 0.241,1.791 0.050,0.252 0.106,0.471 0.179,0.645 0.067,0.174 0.129,0.320 0.258,0.387 0.067,0.033 0.162,0.033 0.230,0 0.067,-0.033 0.101,-0.078 0.140,-0.140 0.078,-0.123 0.129,-0.297 0.174,-0.510 0.095,-0.421 0.151,-0.999 0.213,-1.577 0.061,-0.578 0.123,-1.156 0.207,-1.560 0.044,-0.202 0.095,-0.353 0.140,-0.437 0.022,-0.044 0.050,-0.067 0.056,-0.072 0.005,0 0,-0.005 0.016,0 0.028,0.016 0.101,0.112 0.157,0.263 0.056,0.151 0.095,0.353 0.140,0.600 0.089,0.488 0.162,1.128 0.230,1.768 0.061,0.640 0.140,1.285 0.224,1.791 0.044,0.252 0.078,0.477 0.140,0.651 l 0,-1.229 c -0.044,-0.387 -0.095,-0.802 -0.140,-1.229 -0.067,-0.640 -0.134,-1.280 -0.224,-1.791 -0.050,-0.252 -0.095,-0.471 -0.162,-0.645 -0.061,-0.174 -0.145,-0.303 -0.280,-0.370 -0.061,-0.033 -0.145,-0.033 -0.207,0 -0.061,0.033 -0.106,0.078 -0.140,0.140 -0.072,0.123 -0.112,0.314 -0.157,0.527 -0.089,0.421 -0.151,0.999 -0.213,1.577 -0.061,0.578 -0.123,1.145 -0.207,1.544 -0.044,0.202 -0.112,0.359 -0.157,0.437 -0.028,0.039 -0.044,0.067 -0.056,0.072 -0.005,0 0.005,0.005 -0.016,0 -0.039,-0.022 -0.112,-0.112 -0.174,-0.263 -0.061,-0.157 -0.112,-0.370 -0.157,-0.617 -0.095,-0.494 -0.162,-1.128 -0.230,-1.768 -0.067,-0.640 -0.123,-1.285 -0.207,-1.791 -0.044,-0.252 -0.101,-0.460 -0.157,-0.628 -0.061,-0.174 -0.117,-0.308 -0.247,-0.370 -0.067,-0.033 -0.168,-0.033 -0.230,0 -0.061,0.033 -0.089,0.078 -0.123,0.140 -0.067,0.123 -0.129,0.297 -0.174,0.510 -0.089,0.415 -0.157,0.988 -0.230,1.560 -0.067,0.567 -0.123,1.134 -0.207,1.544 -0.044,0.202 -0.095,0.364 -0.140,0.454 -0.016,0.033 -0.039,0.039 -0.050,0.050 -0.033,-0.022 -0.112,-0.078 -0.162,-0.224 -0.050,-0.157 -0.095,-0.370 -0.140,-0.617 -0.084,-0.494 -0.140,-1.134 -0.207,-1.768 -0.067,-0.640 -0.134,-1.268 -0.230,-1.774 -0.044,-0.252 -0.089,-0.477 -0.157,-0.651 -0.061,-0.168 -0.129,-0.303 -0.263,-0.364 -0.061,-0.033 -0.162,-0.033 -0.224,0 -0.067,0.033 -0.106,0.095 -0.140,0.157 -0.073,0.123 -0.117,0.297 -0.157,0.510 -0.089,0.421 -0.151,0.999 -0.213,1.577 -0.061,0.578 -0.123,1.156 -0.207,1.560 -0.044,0.202 -0.095,0.359 -0.140,0.437 -0.028,0.039 -0.044,0.050 -0.056,0.050 -0.006,0.005 0,0.011 -0.016,0 -0.039,-0.016 -0.117,-0.106 -0.174,-0.258 -0.061,-0.157 -0.112,-0.370 -0.157,-0.617 -0.095,-0.494 -0.162,-1.134 -0.230,-1.768 -0.067,-0.640 -0.140,-1.285 -0.230,-1.791 -0.039,-0.252 -0.095,-0.460 -0.157,-0.634 -0.056,-0.168 -0.112,-0.303 -0.241,-0.364 -0.033,-0.016 -0.073,-0.016 -0.106,-0.016 z" />
 <path style="fill:#3f3f3f;fill-rule:nonzero;marker:none;" id="r3376" d="m 105.054,-36.696 c -0.033,0 -0.078,0.016 -0.117,0.033 l -0.106,0.056 0,4.087 0.263,-0.123 c 0.033,-0.039 0.061,-0.095 0.084,-0.140 l 0,-3.879 c -0.028,-0.022 -0.073,-0.033 -0.123,-0.033 z m -0.578,0.263 -0.331,0.157 0,4.126 0.331,-0.179 0,-4.104 z m -0.684,0.331 -0.331,0.179 0,4.138 0.016,-0.016 0.314,-0.174 0,-4.126 z m -0.679,0.353 -0.353,0.174 0,4.143 0.353,-0.179 0,-4.138 z m -0.684,0.331 -0.336,0.179 0,4.138 0.336,-0.174 0,-4.143 z m -0.684,0.353 -0.353,0.174 0,4.143 0.353,-0.179 0,-4.138 z m -0.684,0.331 -0.353,0.174 0,4.143 0.353,-0.174 0,-4.143 z m -0.684,0.353 -0.348,0.174 0,4.138 0.348,-0.174 0,-4.138 z m -0.701,0.348 -0.331,0.157 0,4.143 0.331,-0.157 0,-4.143 z m -0.668,0.336 -0.348,0.174 0,4.138 0.348,-0.174 0,-4.138 z m -0.701,0.348 -0.331,0.157 0,4.143 0.331,-0.157 0,-4.143 z m -0.684,0.331 -0.331,0.179 0,4.138 0.331,-0.174 0,-4.143 z m -0.679,0.353 -0.353,0.174 0,4.143 0.353,-0.179 0,-4.138 z m -0.684,0.331 -0.213,0.106 c -0.044,0.022 -0.084,0.050 -0.123,0.089 l 0,4.087 c 0.039,0 0.078,-0.016 0.123,-0.033 l 0.213,-0.106 0,-4.143 z" />
 </g>
 <g transform="translate(15.413,45.118)" id="g6157">
 <path style="fill:#5f5f5f;stroke:none" id="path6159" d="m 93.735,-45.567 12.357,6.221 -0.039,13.480 -12.318,6.181 0,-25.883 z" />
 <path style="fill:#6e6e6e;stroke:none" id="path6161" d="m 93.757,-45.297 -0.005,25.630 -12.397,-6.176 0,-13.396 12.402,-6.058 z" />
 <path style="fill:none;stroke:#787878;stroke-width:1.840;stroke-linecap:butt;marker:none;" id="path6163" d="m 93.735,-33.091 0,13.070" />
 <path style="fill:#898989;stroke:none" id="path6165" d="m 93.735,-33.248 12.335,-6.181 -12.335,-6.176 -12.346,6.209 12.346,6.148 z" />
 <path style="fill:none;stroke:#aaaaaa;stroke-width:1.38;stroke-linejoin:round;stroke-opacity:1" id="path6167" d="m 105.767,-39.267 -12.032,6.018 -12.060,-6.035" />
 <path style="fill:none;fill-rule:nonzero;stroke:#000000;stroke-width:0.5;stroke-linecap:butt;marker:none;" id="path6169" d="m 93.735,-45.702 -12.155,6.086 0,13.677 12.155,6.080 12.161,-6.075 0,-13.688 -12.161,-6.080 z" />
 <path d="m 84.106,-35.781 c 0.196,0.005 0.404,0.056 0.628,0.174 l 6.035,3.088 c 0.909,0.460 1.633,1.656 1.633,2.683 l 0,5.687 c 0,1.027 -0.724,1.476 -1.633,1.016 l -6.035,-3.071 c -0.903,-0.466 -1.628,-1.673 -1.628,-2.700 l 0,-5.687 c 0,-0.769 0.409,-1.212 0.999,-1.190 z" id="path6171" style="fill:#343434;fill-rule:nonzero;marker:none;" />
 <path d="m 83.825,-36.011 c -0.061,0.162 -0.084,0.342 -0.084,0.561 l 0,5.665 c 0,1.033 0.729,2.251 1.645,2.723 l 6.091,3.138 c 0.241,0.123 0.477,0.190 0.684,0.196 0.056,-0.168 0.084,-0.348 0.084,-0.561 l 0,-5.670 c 0,-1.033 -0.729,-2.245 -1.650,-2.717 l -6.086,-3.144 c -0.241,-0.123 -0.477,-0.190 -0.684,-0.190 z" id="path6173" style="fill:#2a3b2b;fill-rule:nonzero;marker:none;" />
 <path d="m 83.758,-35.606 c -0.006,0.050 -0.016,0.101 -0.016,0.157 l 0,0.774 8.455,4.227 c -0.084,-0.409 -0.252,-0.825 -0.494,-1.195 l -7.944,-3.963 z m -0.016,1.734 0,0.948 8.506,4.261 0,-0.943 -8.506,-4.267 z m 0,1.757 0,0.948 8.506,4.261 0,-0.948 -8.506,-4.261 z m 0,1.751 0,0.578 c 0,0.123 0.011,0.241 0.033,0.370 0,0.005 0,0.011 0,0.016 l 8.472,4.227 0,-0.926 -8.506,-4.267 z m 0.364,1.931 c 0.303,0.583 0.757,1.100 1.280,1.369 l 6.091,3.138 c 0.241,0.123 0.477,0.190 0.684,0.196 0.056,-0.168 0.084,-0.348 0.084,-0.561 l 0,-0.072 -8.141,-4.070 z" id="path6175" style="fill:#284024;stroke:none" />
 <path d="m 84.336,-33.973 c -0.039,-0.005 -0.078,-0.005 -0.106,0.016 -0.061,0.033 -0.106,0.095 -0.140,0.157 -0.067,0.123 -0.112,0.297 -0.157,0.505 -0.078,0.353 -0.134,0.808 -0.190,1.285 l 0,1.560 c 0.061,-0.376 0.117,-0.797 0.174,-1.246 0.067,-0.572 0.140,-1.162 0.224,-1.560 0.044,-0.202 0.095,-0.353 0.140,-0.437 0.028,-0.044 0.050,-0.067 0.056,-0.072 0.022,0.011 0.084,0.095 0.140,0.247 0.050,0.145 0.112,0.364 0.157,0.611 0.084,0.494 0.140,1.117 0.207,1.757 0.067,0.640 0.134,1.296 0.230,1.807 0.050,0.252 0.106,0.471 0.174,0.645 0.067,0.174 0.145,0.303 0.280,0.370 0.067,0.033 0.145,0.050 0.213,0.016 0.067,-0.033 0.117,-0.095 0.157,-0.157 0.073,-0.123 0.129,-0.297 0.174,-0.510 0.095,-0.421 0.151,-0.999 0.213,-1.577 0.061,-0.578 0.123,-1.156 0.207,-1.560 0.044,-0.202 0.095,-0.359 0.140,-0.437 0.022,-0.044 0.028,-0.050 0.033,-0.056 0.006,0 0.006,-0.005 0.022,0 0.028,0.016 0.101,0.095 0.157,0.247 0.056,0.151 0.112,0.353 0.157,0.595 0.089,0.488 0.162,1.122 0.224,1.757 0.067,0.634 0.129,1.280 0.213,1.791 0.044,0.252 0.078,0.471 0.140,0.645 0.056,0.174 0.123,0.297 0.247,0.370 0.011,0.005 0.016,0.016 0.016,0.016 l 0.016,0 c 0.067,0.028 0.151,0.022 0.207,-0.016 0.061,-0.039 0.089,-0.095 0.123,-0.157 0.067,-0.129 0.112,-0.297 0.157,-0.510 0.095,-0.426 0.162,-1.010 0.230,-1.577 0.067,-0.572 0.140,-1.128 0.230,-1.527 0.039,-0.202 0.089,-0.353 0.140,-0.437 0.022,-0.044 0.044,-0.067 0.050,-0.072 0.022,0.011 0.089,0.095 0.140,0.247 0.050,0.151 0.101,0.353 0.140,0.595 0.084,0.494 0.145,1.134 0.213,1.774 0.061,0.640 0.145,1.280 0.241,1.791 0.050,0.252 0.106,0.471 0.179,0.645 0.067,0.174 0.129,0.320 0.258,0.387 0.067,0.033 0.162,0.033 0.230,0 0.067,-0.033 0.101,-0.078 0.140,-0.140 0.078,-0.123 0.129,-0.297 0.174,-0.510 0.095,-0.421 0.151,-0.999 0.213,-1.577 0.061,-0.578 0.123,-1.156 0.207,-1.560 0.044,-0.202 0.095,-0.353 0.140,-0.437 0.022,-0.044 0.050,-0.067 0.056,-0.072 0.005,0 0,-0.005 0.016,0 0.028,0.016 0.101,0.112 0.157,0.263 0.056,0.151 0.095,0.353 0.140,0.600 0.089,0.488 0.162,1.128 0.230,1.768 0.061,0.640 0.140,1.285 0.224,1.791 0.044,0.252 0.078,0.477 0.140,0.651 l 0,-1.229 c -0.044,-0.387 -0.095,-0.802 -0.140,-1.229 -0.067,-0.640 -0.134,-1.280 -0.224,-1.791 -0.050,-0.252 -0.095,-0.471 -0.162,-0.645 -0.061,-0.174 -0.145,-0.303 -0.280,-0.370 -0.061,-0.033 -0.145,-0.033 -0.207,0 -0.061,0.033 -0.106,0.078 -0.140,0.140 -0.072,0.123 -0.112,0.314 -0.157,0.527 -0.089,0.421 -0.151,0.999 -0.213,1.577 -0.061,0.578 -0.123,1.145 -0.207,1.544 -0.044,0.202 -0.112,0.359 -0.157,0.437 -0.028,0.039 -0.044,0.067 -0.056,0.072 -0.005,0 0.005,0.005 -0.016,0 -0.039,-0.022 -0.112,-0.112 -0.174,-0.263 -0.061,-0.157 -0.112,-0.370 -0.157,-0.617 -0.095,-0.494 -0.162,-1.128 -0.230,-1.768 -0.067,-0.640 -0.123,-1.285 -0.207,-1.791 -0.044,-0.252 -0.101,-0.460 -0.157,-0.628 -0.061,-0.174 -0.117,-0.308 -0.247,-0.370 -0.067,-0.033 -0.168,-0.033 -0.230,0 -0.061,0.033 -0.089,0.078 -0.123,0.140 -0.067,0.123 -0.129,0.297 -0.174,0.510 -0.089,0.415 -0.157,0.988 -0.230,1.560 -0.067,0.567 -0.123,1.134 -0.207,1.544 -0.044,0.202 -0.095,0.364 -0.140,0.454 -0.016,0.033 -0.039,0.039 -0.050,0.050 -0.033,-0.022 -0.112,-0.078 -0.162,-0.224 -0.050,-0.157 -0.095,-0.370 -0.140,-0.617 -0.084,-0.494 -0.140,-1.134 -0.207,-1.768 -0.067,-0.640 -0.134,-1.268 -0.230,-1.774 -0.044,-0.252 -0.089,-0.477 -0.157,-0.651 -0.061,-0.168 -0.129,-0.303 -0.263,-0.364 -0.061,-0.033 -0.162,-0.033 -0.224,0 -0.067,0.033 -0.106,0.095 -0.140,0.157 -0.073,0.123 -0.117,0.297 -0.157,0.510 -0.089,0.421 -0.151,0.999 -0.213,1.577 -0.061,0.578 -0.123,1.156 -0.207,1.560 -0.044,0.202 -0.095,0.359 -0.140,0.437 -0.028,0.039 -0.044,0.050 -0.056,0.050 -0.006,0.005 0,0.011 -0.016,0 -0.039,-0.016 -0.117,-0.106 -0.174,-0.258 -0.061,-0.157 -0.112,-0.370 -0.157,-0.617 -0.095,-0.494 -0.162,-1.134 -0.230,-1.768 -0.067,-0.640 -0.140,-1.285 -0.230,-1.791 -0.039,-0.252 -0.095,-0.460 -0.157,-0.634 -0.056,-0.168 -0.112,-0.303 -0.241,-0.364 -0.033,-0.016 -0.073,-0.016 -0.106,-0.016 z" id="path6177" style="fill:#0ccd0a;stroke:none" />
 <path d="m 105.054,-36.696 c -0.033,0 -0.078,0.016 -0.117,0.033 l -0.106,0.056 0,4.087 0.263,-0.123 c 0.033,-0.039 0.061,-0.095 0.084,-0.140 l 0,-3.879 c -0.028,-0.022 -0.073,-0.033 -0.123,-0.033 z m -0.578,0.263 -0.331,0.157 0,4.126 0.331,-0.179 0,-4.104 z m -0.684,0.331 -0.331,0.179 0,4.138 0.016,-0.016 0.314,-0.174 0,-4.126 z m -0.679,0.353 -0.353,0.174 0,4.143 0.353,-0.179 0,-4.138 z m -0.684,0.331 -0.336,0.179 0,4.138 0.336,-0.174 0,-4.143 z m -0.684,0.353 -0.353,0.174 0,4.143 0.353,-0.179 0,-4.138 z m -0.684,0.331 -0.353,0.174 0,4.143 0.353,-0.174 0,-4.143 z m -0.684,0.353 -0.348,0.174 0,4.138 0.348,-0.174 0,-4.138 z m -0.701,0.348 -0.331,0.157 0,4.143 0.331,-0.157 0,-4.143 z m -0.668,0.336 -0.348,0.174 0,4.138 0.348,-0.174 0,-4.138 z m -0.701,0.348 -0.331,0.157 0,4.143 0.331,-0.157 0,-4.143 z m -0.684,0.331 -0.331,0.179 0,4.138 0.331,-0.174 0,-4.143 z m -0.679,0.353 -0.353,0.174 0,4.143 0.353,-0.179 0,-4.138 z m -0.684,0.331 -0.213,0.106 c -0.044,0.022 -0.084,0.050 -0.123,0.089 l 0,4.087 c 0.039,0 0.078,-0.016 0.123,-0.033 l 0.213,-0.106 0,-4.143 z" id="path6179" style="fill:#3f3f3f;fill-rule:nonzero;marker:none;" />
 </g>
 <g transform="matrix(-1,0,0,1,142.791,60.697)" id="g6353">
 <path d="m 44.843,-24.850 5.67,2.88 11.6,-5.84 0,-0.93 -5.92,-4.41 -11.35,5.69 0,2.61 z" id="path6355" style="fill:#898989;fill-rule:nonzero;marker:none;" />
 <path d="m 50.473,-21.820 0,-1.22 11.54,-5.8 0,1.06 -11.54,5.96 z" id="path6357" style="fill:#a4a4a4;fill-rule:nonzero;marker:none;" />
 <path d="m 44.853,-27.470 0,2.37 5.73,2.97 0.09,-1.03 -5.82,-4.31 z" id="path6359" style="fill:#5f5f5f;fill-rule:nonzero;marker:none;" />
 <path d="m 44.843,-24.850 5.67,2.88 11.6,-5.84 0,-0.93 -5.92,-4.41 -11.35,5.69 0,2.61 z" id="path6361" style="fill:none;fill-rule:nonzero;stroke:#000000;stroke-width:0.5;stroke-linecap:butt;marker:none;" />
 <g id="g6363" transform="translate(25.143,-127.470)">
 <path d="m 30.94,94.82 -1.43,0.72 0,0.28 1.4,1.1 1.53,-0.79 -0.06,-0.59 -1.44,-0.72 z" id="path6365" style="fill:#929292;stroke:none" />
 <path d="m 30.94,96.12 -1.25,-0.63 1.25,-0.63 1.25,0.63 -1.25,0.63 z" id="path6367" style="fill:#bcbcbc;stroke:none" />
 <path d="m 29.51,95.57 0,0.25 1.4,1.1 0,-0.63 -1.4,-0.72 z" id="path6369" style="fill:#6e6e6e;stroke:none" />
 </g>
 <use transform="translate(-1.73,0.88)" id="use6371" x="0" y="0" width="48" height="132" xlink:href="#g3679" />
 <use transform="translate(1.560,1.16)" id="use6373" x="0" y="0" width="48" height="132" xlink:href="#g3679" />
 <use transform="translate(-0.199,2.1)" id="use6375" x="0" y="0" width="48" height="132" xlink:href="#g3679" />
 <use transform="translate(3.090,2.39)" id="use6377" x="0" y="0" width="48" height="132" xlink:href="#g3679" />
 <use transform="translate(1.310,3.33)" id="use6379" x="0" y="0" width="48" height="132" xlink:href="#g3679" />
 <use transform="translate(-3.38,1.79)" id="use6381" x="0" y="0" width="48" height="132" xlink:href="#g3679" />
 <use transform="translate(-1.85,3.01)" id="use6383" x="0" y="0" width="48" height="132" xlink:href="#g3679" />
 <use transform="translate(-0.33,4.230)" id="use6385" x="0" y="0" width="48" height="132" xlink:href="#g3679" />
 <use transform="translate(-5.17,2.72)" id="use6387" x="0" y="0" width="48" height="132" xlink:href="#g3679" />
 <use transform="translate(-3.64,3.940)" id="use6389" x="0" y="0" width="48" height="132" xlink:href="#g3679" />
 <use transform="translate(-2.12,5.160)" id="use6391" x="0" y="0" width="48" height="132" xlink:href="#g3679" />
 <use transform="translate(-6.99,3.7)" id="use6393" x="0" y="0" width="48" height="132" xlink:href="#g3679" />
 <use transform="translate(-5.47,4.910)" id="use6395" x="0" y="0" width="48" height="132" xlink:href="#g3679" />
 <use transform="translate(-3.94,6.140)" id="use6397" x="0" y="0" width="48" height="132" xlink:href="#g3679" />
 <use transform="translate(-8.84,4.570)" id="use6399" x="0" y="0" width="48" height="132" xlink:href="#g3679" />
 <use transform="translate(-7.31,5.780)" id="use6401" x="0" y="0" width="48" height="132" xlink:href="#g3679" />
 <use transform="translate(-5.78,7.010)" id="use6403" x="0" y="0" width="48" height="132" xlink:href="#g3679" />
 </g>
 </g>
 <path id="path6764" d="M 19.996,2.055 C 10.055,2.055 2.052,10.058 2.052,20 c 0,9.941 8.003,17.944 17.944,17.944 l 46.609,0 25.167,0 32.921,0 0,-17.944 0,-17.944 -32.921,0 -25.167,0 z" style="fill:none;stroke:#000000;stroke-width:1;stroke-linecap:butt;marker:none;" />
 </g>
</svg>
