<?xml version="1.0" encoding="UTF-8" standalone="no"?>
<svg
   xmlns:dc="http://purl.org/dc/elements/1.1/"
   xmlns:cc="http://creativecommons.org/ns#"
   xmlns:rdf="http://www.w3.org/1999/02/22-rdf-syntax-ns#"
   xmlns:svg="http://www.w3.org/2000/svg"
   xmlns="http://www.w3.org/2000/svg"
   width="100%"
   height="100%"
   id="svg4325"
   version="1.1"
   viewBox="0 0 48 48">
  <defs
     id="defs4327" />
  <metadata
     id="metadata4330">
    <rdf:RDF>
      <cc:Work
         rdf:about="">
        <dc:format>image/svg+xml</dc:format>
        <dc:type
           rdf:resource="http://purl.org/dc/dcmitype/StillImage" />
        <dc:title></dc:title>
      </cc:Work>
    </rdf:RDF>
  </metadata>
  <g
     id="layer1">
    <rect
       style="color:#000000;clip-rule:nonzero;display:inline;overflow:visible;visibility:visible;opacity:1;isolation:auto;mix-blend-mode:normal;color-interpolation:sRGB;color-interpolation-filters:linearRGB;solid-color:#000000;solid-opacity:1;fill:#609b14;fill-opacity:1;fill-rule:nonzero;stroke:none;stroke-width:0.60000002;stroke-linecap:butt;stroke-linejoin:bevel;stroke-miterlimit:4;stroke-dasharray:none;stroke-dashoffset:0;stroke-opacity:1;marker:none;color-rendering:auto;image-rendering:auto;shape-rendering:auto;text-rendering:auto;enable-background:accumulate"
       id="rect4464"
       width="48"
       height="48"
       x="0"
       y="0" />
    <ellipse
       style="color:#000000;clip-rule:nonzero;display:inline;overflow:visible;visibility:visible;opacity:1;isolation:auto;mix-blend-mode:normal;color-interpolation:sRGB;color-interpolation-filters:linearRGB;solid-color:#000000;solid-opacity:1;fill:#513f3f;fill-opacity:1;fill-rule:nonzero;stroke:#352019;stroke-width:0.60000002;stroke-linecap:butt;stroke-linejoin:bevel;stroke-miterlimit:4;stroke-dasharray:none;stroke-dashoffset:0;stroke-opacity:1;marker:none;color-rendering:auto;image-rendering:auto;shape-rendering:auto;text-rendering:auto;enable-background:accumulate"
       id="path4462"
       cx="24"
       cy="24"
       rx="15"
       ry="5" />
    <path
       id="path3489-3"
       d="m 32.589698,16.505629 c -0.245721,-0.90692 -1.681184,-1.602615 -3.417111,-1.602615 -1.737556,0 -3.1734,0.694445 -3.417115,1.602615"
       style="color:#000000;display:inline;overflow:visible;visibility:visible;fill:none;stroke:#000000;stroke-width:0.49999997;stroke-linecap:round;stroke-linejoin:miter;stroke-miterlimit:4;stroke-dasharray:none;stroke-dashoffset:0;stroke-opacity:1;marker:none;enable-background:accumulate" />
    <path
       style="color:#000000;display:inline;overflow:visible;visibility:visible;fill:none;stroke:#000000;stroke-width:0.5;stroke-linecap:round;stroke-linejoin:miter;stroke-miterlimit:4;stroke-dasharray:none;stroke-dashoffset:0;stroke-opacity:1;marker:none;enable-background:accumulate"
       d="m 44.835348,3.9083605 c -0.144524,-0.449946 -0.988808,-0.795098 -2.009813,-0.795098 -1.021964,0 -1.866472,0.344532 -2.009816,0.795098"
       id="path4141" />
    <path
       id="path4149"
       d="m 8.0217884,16.72192 c -0.144524,-0.449946 -0.9888078,-0.795098 -2.0098128,-0.795098 -1.021964,0 -1.8664717,0.344532 -2.0098157,0.795098"
       style="color:#000000;display:inline;overflow:visible;visibility:visible;fill:none;stroke:#000000;stroke-width:0.5;stroke-linecap:round;stroke-linejoin:miter;stroke-miterlimit:4;stroke-dasharray:none;stroke-dashoffset:0;stroke-opacity:1;marker:none;enable-background:accumulate" />
    <path
       id="path2526"
       d="m 41.912943,17.392118 c 0,2.383198 -1.898149,3.0034 -5.162095,3.0034 -3.263945,0 -6.663794,-0.620202 -6.663794,-3.0034 0,-2.383198 2.723588,-5.011179 5.912944,-4.317388 3.451659,0.75085 5.912945,1.93419 5.912945,4.317388 z"
       style="display:inline;overflow:visible;visibility:visible;fill:#717171;fill-opacity:1;fill-rule:evenodd;stroke:#000000;stroke-width:0.49999997;stroke-linecap:butt;stroke-linejoin:miter;stroke-miterlimit:4;stroke-dasharray:none;stroke-dashoffset:0;stroke-opacity:1;marker:none;enable-background:accumulate" />
    <path
       style="display:inline;overflow:visible;visibility:visible;fill:#717171;fill-opacity:1;fill-rule:evenodd;stroke:#000000;stroke-width:0.5;stroke-linecap:butt;stroke-linejoin:miter;stroke-miterlimit:4;stroke-dasharray:none;stroke-dashoffset:0;stroke-opacity:1;marker:none;enable-background:accumulate"
       d="m 40.840196,18.836028 c -2.186518,-0.387339 -5.119783,-1.125047 -5.061149,1.968964 0.0069,0.368365 0.06897,0.726975 0.191967,1.062622 0.527459,0.765833 1.98471,1.561136 4.282844,1.561136 1.827596,0 3.394233,-0.431501 4.037921,-1.042944 0.279132,-0.479413 0.573352,-1.030621 0.43689,-1.580814 -0.214991,-0.866804 -1.701955,-1.581623 -3.888473,-1.968964 z"
       id="path3482" />
    <path
       id="path12521-9"
       d="m 6.4472395,11.117263 c -0.06025,0.04294 -0.09758,0.09808 -0.133751,0.165979 -0.336406,0.63147 0.05683,2.115379 0.976973,3.17913 -0.87452,0.09743 -1.548594,0.36099 -1.546966,0.835899 0.0042,1.228628 3.14746,3.674708 5.3126735,2.06617 0.72154,-0.536032 1.059404,-1.245019 0.107832,-2.199721 -0.02986,-0.02976 -0.07419,-0.06039 -0.110553,-0.08862 0.205594,-0.29345 0.273468,-0.731936 0.0866,-1.360559 -0.360116,-1.211465 -3.7898325,-3.242499 -4.6928415,-2.598256 z"
       style="display:inline;overflow:visible;visibility:visible;fill:#4b8818;fill-opacity:1;fill-rule:evenodd;stroke:#000000;stroke-width:0.5;stroke-linecap:round;stroke-linejoin:round;stroke-miterlimit:4;stroke-dasharray:none;stroke-dashoffset:0;stroke-opacity:1;marker:none;enable-background:accumulate" />
  </g>
</svg>
