<?xml version="1.0" encoding="UTF-8" standalone="no"?>
<svg
   xmlns:dc="http://purl.org/dc/elements/1.1/"
   xmlns:cc="http://creativecommons.org/ns#"
   xmlns:rdf="http://www.w3.org/1999/02/22-rdf-syntax-ns#"
   xmlns:svg="http://www.w3.org/2000/svg"
   xmlns="http://www.w3.org/2000/svg"
   width="100%"
   height="100%"
   id="svg4325"
   version="1.1"
   viewBox="0 0 48 48">
  <defs
     id="defs4327" />
  <metadata
     id="metadata4330">
    <rdf:RDF>
      <cc:Work
         rdf:about="">
        <dc:format>image/svg+xml</dc:format>
        <dc:type
           rdf:resource="http://purl.org/dc/dcmitype/StillImage" />
        <dc:title></dc:title>
      </cc:Work>
    </rdf:RDF>
  </metadata>
  <path
     style="display:inline;overflow:visible;visibility:visible;fill:#1f4c1f;fill-opacity:1;fill-rule:evenodd;stroke:#000000;stroke-width:0.49999994;stroke-linecap:round;stroke-linejoin:round;stroke-miterlimit:4;stroke-dasharray:none;stroke-dashoffset:0;stroke-opacity:1;marker:none;enable-background:accumulate"
     d="M 30.178368,0.36469798 C 28.838791,1.8752912 24.86274,7.4435464 25.510715,12.002192 25.339282,11.799448 25.140138,11.721025 24.935251,11.714454 24.830812,9.7998237 24.490934,8.1097864 24.263878,7.3344044 22.359926,8.8821062 21.256631,11.111971 20.683214,13.153151 20.166812,9.2256257 17.785669,4.9943644 16.878759,3.6577246 14.657622,8.4038064 16.251796,14.813258 17.230434,16.638004 c -0.746343,-0.686593 -3.366061,-0.680587 1.98215,5.754809 0.08695,-0.07579 0.173497,-0.148304 0.255757,-0.223804 0.188075,2.240568 -0.735313,3.772595 -0.735313,3.772595 0,0 -0.60316,-0.859479 -1.630482,0.735333 -0.589286,-2.02615 -4.259261,-7.543163 -9.9747033,-8.632205 0.2467151,1.556221 1.3868297,5.90793 3.7405133,8.887976 -1.7821176,-0.170678 -3.6856503,-0.03397 -5.530844,0.671395 1.2759013,1.482549 5.975111,5.921505 10.454256,6.170429 0.09075,0.0615 0.194791,0.09965 0.287731,0.159837 -0.394351,0.394767 -0.26719,0.976394 0.319704,1.37476 -0.701656,0.689274 -1.119813,1.360025 -0.927132,1.758413 0.417564,0.863445 3.590685,0.180568 5.466903,-0.735339 0.316559,-0.154514 0.58102,-0.375242 0.831228,-0.543509 0.153873,0.03023 0.280359,0.105889 0.447582,0.127869 1.938868,0.254654 4.876668,-0.04051 5.339022,-0.863222 0.0072,0.0039 0.0249,-0.0049 0.03211,0 0.06454,0.154449 0.122129,0.28534 0.223815,0.415624 0.244062,0.520778 0.887595,0.97445 2.078062,1.15096 1.889731,0.280412 6.507024,-0.308995 6.585865,-0.831248 0.03047,-0.202744 -0.555599,-0.626532 -1.406693,-1.055048 1.762845,-0.757066 3.247929,-1.571048 3.197023,-1.918266 1.853125,-0.794073 3.74607,-2.097053 4.98735,-4.156252 -1.114342,-0.309192 -3.997666,-0.830994 -6.745713,-0.511538 0.06106,-0.115976 0.154692,-0.257086 0.191809,-0.35168 0.359996,-0.520265 0.701073,-1.179129 0.991073,-1.95024 5.17401,0.115286 5.746762,-3.365891 4.315982,-3.229085 3.046923,-2.346651 4.153554,-8.027774 4.315974,-9.719228 -2.34263,0.729649 -4.176289,2.410214 -5.466903,4.092307 C 41.836046,13.151331 41.170105,8.3367834 40.82445,6.7588854 36.999229,10.340213 36.117862,16.882161 36.348623,18.939888 36.085528,18.39033 35.12426,17.859683 34.941931,19.227626 34.923581,18.394854 33.809463,18.523094 33.375394,18.843973 34.341681,17.258064 35.640173,11.676885 32.64008,7.4942174 32.307773,7.9079194 31.805885,8.6731722 31.265359,9.6043147 31.813783,6.9146874 31.849989,3.4259865 30.178374,0.36465528 Z M 24.583579,16.062528 c 0.43328,0.733072 1.089914,1.498611 1.982153,2.33389 l -1.694419,4.891584 -0.703346,-2.845429 c 1.157681,-1.529081 0.541119,-2.937471 -0.319704,-2.49375 0.334492,-0.565811 0.5593,-1.214454 0.735313,-1.886295 z m 10.326379,3.388938 c -0.05769,0.964232 0.204258,2.667854 1.150925,5.594949 0.108861,-0.03805 0.215266,-0.08828 0.319704,-0.127869 -0.397401,1.29915 -1.063158,2.166077 -1.534567,2.685573 -0.721443,0.231689 -1.561837,0.557404 -2.397769,0.927163 -0.0082,-0.08092 -0.02555,-0.140091 -0.0321,-0.223804 -0.07161,-0.90766 -0.09556,-2.002508 -0.127895,-3.037256 -0.03364,-1.076797 -0.02457,-1.314521 -0.03211,-2.046151 1.828932,-1.910464 2.540654,-3.089754 2.653529,-3.772595 z m -7.097386,0.06393 c 0.193317,1.016734 0.998012,2.345015 2.909289,3.740625 0.0072,0.744081 -0.002,0.986951 0.0321,2.078122 0.03276,1.049217 0.08501,2.15283 0.159869,3.1012 0.0062,0.08329 0.02621,0.147155 0.0321,0.223804 -0.255265,0.08062 -0.525751,0.206029 -0.799254,0.415624 -0.55569,-1.930709 -1.296261,-3.771777 -1.662452,-3.772592 -0.404677,-8.9e-4 -1.023139,2.136446 -1.406689,4.220189 -0.254774,-0.167392 -0.515566,-0.328737 -0.767283,-0.479568 l -0.735317,-2.973318 z m -4.923415,2.142064 1.055017,4.348078 0,0.03187 0.0321,0 0.511523,2.046155 c -0.184111,-0.07129 -0.354813,-0.105397 -0.479553,-0.127869 -0.0032,-0.01051 0.002,-0.02168 0,-0.03187 -0.30601,-1.296294 -0.79815,-2.305757 -1.374718,-2.33389 -0.35461,-0.01741 -0.703949,0.393033 -1.023047,0.959133 -0.301523,-0.577178 -0.615373,-1.044324 -0.927139,-1.310816 0.206584,-0.703589 0.406092,-1.610424 0.383645,-2.685576 0.729842,-0.273315 1.33042,-0.567427 1.822301,-0.895192 z"
     id="path4232" />
  <path
     style="display:inline;overflow:visible;visibility:visible;fill:#b62c28;fill-opacity:1;fill-rule:evenodd;stroke:none;stroke-width:0.5;stroke-linecap:round;stroke-linejoin:miter;stroke-miterlimit:4;stroke-dashoffset:0;stroke-opacity:1;marker:none;marker-start:none;marker-mid:none;marker-end:none;enable-background:accumulate"
     d="m 8.5485308,42.551989 c 0,1.290076 1.2396568,1.659675 2.7670932,1.659675 1.527436,0 2.767094,-0.369599 2.767094,-1.659675 0,-1.29006 -1.239658,-2.337078 -2.767094,-2.337078 -1.5274364,0 -2.7670932,1.047018 -2.7670932,2.337078 z"
     id="path2829" />
  <path
     id="path2831"
     d="m 11.324542,40.210594 c 0.845545,0 1.578915,0.326778 2.086612,0.832089 -0.910237,0.964361 -4.0725765,1.680081 -4.600601,0.5043 0.4457033,-0.786369 1.413463,-1.336389 2.513989,-1.336389 z"
     style="display:inline;fill:#e38280;fill-opacity:1;fill-rule:evenodd;stroke:none;stroke-width:1px;stroke-linecap:butt;stroke-linejoin:miter;stroke-opacity:1" />
  <path
     id="path2833"
     d="m 8.5485326,42.551974 c 0,1.290076 1.2396577,1.659674 2.7670934,1.659674 1.527437,0 2.767094,-0.369598 2.767094,-1.659674 0,-1.29006 -1.239657,-2.337077 -2.767094,-2.337077 -1.5274357,0 -2.7670934,1.047017 -2.7670934,2.337077 z"
     style="display:inline;overflow:visible;visibility:visible;fill:none;fill-opacity:1;fill-rule:evenodd;stroke:#000000;stroke-width:0.50000006;stroke-linecap:round;stroke-linejoin:miter;stroke-miterlimit:4;stroke-dashoffset:0;stroke-opacity:1;marker:none;marker-start:none;marker-mid:none;marker-end:none;enable-background:accumulate" />
  <path
     id="path2835"
     d="m 11.145977,24.204228 c -2.1423731,2.893607 -1.6274782,7.219295 -1.100914,8.498427 -0.4767041,-0.515667 -2.4160285,-0.740765 0.838511,3.942952 3.969181,-2.278403 2.709604,-5.106541 1.851272,-4.348406 0.831699,-2.834141 -0.954436,-6.941409 -1.588869,-8.092973 z"
     style="display:inline;overflow:visible;visibility:visible;opacity:1;fill:#3e7d22;fill-opacity:1;fill-rule:evenodd;stroke:#000000;stroke-width:0.50000006;stroke-linecap:round;stroke-linejoin:round;stroke-miterlimit:4;stroke-dasharray:none;stroke-dashoffset:0;stroke-opacity:1;marker:none;marker-start:none;marker-mid:none;marker-end:none;enable-background:accumulate" />
  <path
     id="path2837"
     d="m 7.6132983,26.256167 c 2.7337547,1.62581 3.2724047,5.157136 3.0723737,6.308733 0.325918,-0.529799 2.037927,-1.242331 0.246308,3.029237 0.410832,1.23535 0.574228,2.410795 0.635217,3.319012 0.05612,-0.172597 0.110053,-0.330454 0.168527,-0.500487 0.214758,-0.624463 0.440609,-1.219986 0.777816,-1.672678 -1.433866,-3.451487 -0.0527,-2.877114 0.207417,-2.449719 -0.159532,-0.928338 0.256882,-3.773289 2.437159,-5.083858 0.265886,0.873712 0.858778,3.882188 -0.311127,5.465801 0.763796,-0.261459 1.172357,1.633264 -1.827868,2.225835 l 0.07778,0.06584 c -0.310941,0.344637 -0.578735,0.954378 -0.816706,1.646334 -0.237971,0.691957 -0.449267,1.452825 -0.725963,2.120479 l -0.557435,-0.144887 c 0,0 0.218981,-2.270545 -0.60929,-4.780928 C 6.535449,35.088218 7.0505257,32.712368 8.0151659,33.039044 6.5482716,31.074533 7.2799077,27.34005 7.6132947,26.256166 Z"
     style="display:inline;overflow:visible;visibility:visible;opacity:1;fill:#4a9529;fill-opacity:1;fill-rule:evenodd;stroke:#000000;stroke-width:0.50000006;stroke-linecap:round;stroke-linejoin:round;stroke-miterlimit:4;stroke-dasharray:none;stroke-dashoffset:0;stroke-opacity:1;marker:none;marker-start:none;marker-mid:none;marker-end:none;enable-background:accumulate" />
  <path
     id="path2839"
     d="m 12.531328,36.720606 c 0,0 0.701445,-0.832173 1.408661,-3.035612"
     style="display:inline;fill:none;fill-rule:evenodd;stroke:#000000;stroke-width:0.50000006;stroke-linecap:round;stroke-linejoin:miter;stroke-miterlimit:4;stroke-dasharray:none;stroke-opacity:1" />
  <path
     id="path2841"
     d="M 10.925846,35.562448 C 10.501517,34.987636 10.215317,35.361517 9.6966918,32.822785"
     style="display:inline;fill:none;fill-rule:evenodd;stroke:#000000;stroke-width:0.50000006;stroke-linecap:round;stroke-linejoin:miter;stroke-miterlimit:4;stroke-dasharray:none;stroke-opacity:1" />
  <path
     id="path2813"
     d="m 25.632428,42.169508 c 0,1.39515 -1.340623,1.794851 -2.992465,1.794851 -1.651842,0 -2.992466,-0.399701 -2.992466,-1.794851 0,-1.395131 1.340624,-2.527425 2.992466,-2.527425 1.651842,0 2.992465,1.132294 2.992465,2.527425 z"
     style="display:inline;overflow:visible;visibility:visible;fill:#b62c28;fill-opacity:1;fill-rule:evenodd;stroke:none;stroke-width:0.5;stroke-linecap:round;stroke-linejoin:miter;stroke-miterlimit:4;stroke-dashoffset:0;stroke-opacity:1;marker:none;marker-start:none;marker-mid:none;marker-end:none;enable-background:accumulate" />
  <path
     style="display:inline;fill:#e38280;fill-opacity:1;fill-rule:evenodd;stroke:none;stroke-width:1px;stroke-linecap:butt;stroke-linejoin:miter;stroke-opacity:1"
     d="m 22.630319,39.637414 c -0.914413,0 -1.707513,0.353393 -2.25656,0.89986 0.984372,1.042906 4.404275,1.816919 4.975306,0.545373 -0.482005,-0.850415 -1.528586,-1.445233 -2.718746,-1.445233 z"
     id="path2815" />
  <path
     style="display:inline;overflow:visible;visibility:visible;fill:none;fill-opacity:1;fill-rule:evenodd;stroke:#000000;stroke-width:0.5;stroke-linecap:round;stroke-linejoin:miter;stroke-miterlimit:4;stroke-dashoffset:0;stroke-opacity:1;marker:none;marker-start:none;marker-mid:none;marker-end:none;enable-background:accumulate"
     d="m 25.632426,42.169492 c 0,1.395149 -1.340624,1.79485 -2.992465,1.79485 -1.651842,0 -2.992466,-0.399701 -2.992466,-1.79485 0,-1.395131 1.340624,-2.527425 2.992466,-2.527425 1.651841,0 2.992465,1.132294 2.992465,2.527425 z"
     id="path2817" />
  <path
     style="display:inline;overflow:visible;visibility:visible;opacity:1;fill:#2d792d;fill-opacity:1;fill-rule:evenodd;stroke:#000000;stroke-width:0.5;stroke-linecap:round;stroke-linejoin:round;stroke-miterlimit:4;stroke-dasharray:none;stroke-dashoffset:0;stroke-opacity:1;marker:none;marker-start:none;marker-mid:none;marker-end:none;enable-background:accumulate"
     d="m 22.823427,22.327377 c 2.316863,3.129283 1.760032,7.807286 1.190581,9.190599 0.51553,-0.557666 2.612806,-0.801098 -0.906805,4.264094 -4.292459,-2.463973 -2.930294,-5.522454 -2.002053,-4.702571 -0.899439,-3.064973 1.032171,-7.506767 1.718277,-8.752122 z"
     id="path2819" />
  <path
     style="display:inline;overflow:visible;visibility:visible;opacity:1;fill:#2c922c;fill-opacity:1;fill-rule:evenodd;stroke:#000000;stroke-width:0.5;stroke-linecap:round;stroke-linejoin:round;stroke-miterlimit:4;stroke-dasharray:none;stroke-dashoffset:0;stroke-opacity:1;marker:none;marker-start:none;marker-mid:none;marker-end:none;enable-background:accumulate"
     d="m 26.643832,24.546441 c -2.956411,1.758227 -3.538932,5.577169 -3.32261,6.822561 -0.352462,-0.57295 -2.20391,-1.343516 -0.266368,3.275959 -0.444294,1.335965 -0.620998,2.607146 -0.686954,3.589335 -0.06069,-0.186655 -0.119017,-0.357369 -0.182253,-0.54125 -0.232249,-0.675324 -0.476495,-1.319351 -0.841167,-1.808913 1.55065,-3.732601 0.05699,-3.111446 -0.22431,-2.649241 0.172526,-1.003948 -0.277804,-4.080612 -2.635658,-5.497923 -0.287542,0.944873 -0.928723,4.19838 0.336467,5.910974 -0.826005,-0.282754 -1.267842,1.766289 1.976742,2.407123 l -0.08411,0.0712 c 0.336267,0.372707 0.625872,1.032109 0.883225,1.780423 0.257353,0.748315 0.485858,1.571153 0.78509,2.293186 l 0.602836,-0.156688 c 0,0 -0.236816,-2.455474 0.658915,-5.17032 4.165794,-0.775034 3.608766,-3.34439 2.565559,-2.991107 1.586368,-2.124514 0.795143,-6.16316 0.434602,-7.335323 z"
     id="path2821" />
  <path
     style="display:inline;fill:none;fill-rule:evenodd;stroke:#000000;stroke-width:0.5;stroke-linecap:round;stroke-linejoin:miter;stroke-miterlimit:4;stroke-dasharray:none;stroke-opacity:1"
     d="m 21.325244,35.863177 c 0,0 -0.758576,-0.899952 -1.523392,-3.282853"
     id="path2823" />
  <path
     style="display:inline;fill:none;fill-rule:evenodd;stroke:#000000;stroke-width:0.5;stroke-linecap:round;stroke-linejoin:miter;stroke-miterlimit:4;stroke-dasharray:none;stroke-opacity:1"
     d="m 23.061487,34.61069 c 0.458889,-0.621629 0.7684,-0.217295 1.329266,-2.9628"
     id="path2825" />
  <path
     style="display:inline;overflow:visible;visibility:visible;fill:#b62c28;fill-opacity:1;fill-rule:evenodd;stroke:none;stroke-width:0.5;stroke-linecap:round;stroke-linejoin:miter;stroke-miterlimit:4;stroke-dashoffset:0;stroke-opacity:1;marker:none;marker-start:none;marker-mid:none;marker-end:none;enable-background:accumulate"
     d="m 32.370986,44.721931 c 0,1.440736 -1.384428,1.853497 -3.090244,1.853497 -1.705815,0 -3.090244,-0.412761 -3.090244,-1.853497 0,-1.440717 1.384429,-2.610009 3.090244,-2.610009 1.705816,0 3.090244,1.169292 3.090244,2.610009 z"
     id="path2774" />
  <path
     id="path2776"
     d="m 29.270783,42.107101 c -0.944291,0 -1.763306,0.36494 -2.330293,0.929263 1.016537,1.076982 4.548185,1.876286 5.137874,0.563193 -0.497754,-0.878203 -1.578532,-1.492456 -2.807581,-1.492456 z"
     style="display:inline;fill:#e38280;fill-opacity:1;fill-rule:evenodd;stroke:none;stroke-width:1px;stroke-linecap:butt;stroke-linejoin:miter;stroke-opacity:1" />
  <path
     id="path2778"
     d="m 32.370984,44.721914 c 0,1.440736 -1.384429,1.853497 -3.090244,1.853497 -1.705816,0 -3.090244,-0.412761 -3.090244,-1.853497 0,-1.440717 1.384428,-2.610008 3.090244,-2.610008 1.705815,0 3.090244,1.169291 3.090244,2.610008 z"
     style="display:inline;overflow:visible;visibility:visible;fill:none;fill-opacity:1;fill-rule:evenodd;stroke:#000000;stroke-width:0.5;stroke-linecap:round;stroke-linejoin:miter;stroke-miterlimit:4;stroke-dashoffset:0;stroke-opacity:1;marker:none;marker-start:none;marker-mid:none;marker-end:none;enable-background:accumulate" />
  <path
     id="path2780"
     d="m 29.470201,24.231459 c 2.392567,3.231532 1.817541,8.062388 1.229483,9.490901 0.532375,-0.575888 2.69818,-0.827274 -0.936435,4.403423 -4.432715,-2.544483 -3.026041,-5.7029 -2.06747,-4.856227 -0.928828,-3.165121 1.065898,-7.75205 1.774422,-9.038097 z"
     style="display:inline;overflow:visible;visibility:visible;opacity:1;fill:#5c9019;fill-opacity:1;fill-rule:evenodd;stroke:#000000;stroke-width:0.5;stroke-linecap:round;stroke-linejoin:round;stroke-miterlimit:4;stroke-dasharray:none;stroke-dashoffset:0;stroke-opacity:1;marker:none;marker-start:none;marker-mid:none;marker-end:none;enable-background:accumulate" />
  <path
     id="path2782"
     d="m 33.415438,26.52303 c -3.053012,1.815677 -3.654567,5.759403 -3.431176,7.045488 -0.363979,-0.591671 -2.275923,-1.387415 -0.275072,3.383001 -0.458811,1.379618 -0.641289,2.692335 -0.7094,3.706617 -0.06267,-0.192754 -0.122906,-0.369046 -0.188208,-0.558936 -0.239838,-0.69739 -0.492065,-1.36246 -0.868652,-1.868019 1.601317,-3.854563 0.05885,-3.213112 -0.23164,-2.735805 0.178163,-1.036752 -0.286881,-4.213946 -2.721778,-5.677567 -0.296937,0.975747 -0.959069,4.335562 0.347461,6.104115 -0.852995,-0.291993 -1.309268,1.824002 2.041332,2.485775 l -0.08686,0.07353 c 0.347254,0.384885 0.646322,1.065833 0.912084,1.838598 0.265762,0.772766 0.501734,1.622491 0.810743,2.368116 l 0.622534,-0.161808 c 0,0 -0.244554,-2.535706 0.680445,-5.33926 4.301911,-0.800358 3.726682,-3.453668 2.649388,-3.088841 1.638203,-2.193933 0.821124,-6.364541 0.448803,-7.575005 z"
     style="display:inline;overflow:visible;visibility:visible;opacity:1;fill:#68a21c;fill-opacity:1;fill-rule:evenodd;stroke:#000000;stroke-width:0.5;stroke-linecap:round;stroke-linejoin:round;stroke-miterlimit:4;stroke-dasharray:none;stroke-dashoffset:0;stroke-opacity:1;marker:none;marker-start:none;marker-mid:none;marker-end:none;enable-background:accumulate" />
  <path
     id="path2784"
     d="m 27.923065,38.20954 c 0,0 -0.783362,-0.929357 -1.573169,-3.39012"
     style="display:inline;fill:none;fill-rule:evenodd;stroke:#000000;stroke-width:0.5;stroke-linecap:round;stroke-linejoin:miter;stroke-miterlimit:4;stroke-dasharray:none;stroke-opacity:1" />
  <path
     id="path2786"
     d="m 29.71604,36.916129 c 0.473883,-0.641941 0.793507,-0.224396 1.372699,-3.05961"
     style="display:inline;fill:none;fill-rule:evenodd;stroke:#000000;stroke-width:0.5;stroke-linecap:round;stroke-linejoin:miter;stroke-miterlimit:4;stroke-dasharray:none;stroke-opacity:1" />
</svg>
