<?xml version="1.0" encoding="UTF-8" standalone="no"?>
<svg
   xmlns:dc="http://purl.org/dc/elements/1.1/"
   xmlns:cc="http://creativecommons.org/ns#"
   xmlns:rdf="http://www.w3.org/1999/02/22-rdf-syntax-ns#"
   xmlns:svg="http://www.w3.org/2000/svg"
   xmlns="http://www.w3.org/2000/svg"
   viewBox="0 0 48 48"
   version="1.1"
   id="svg4325"
   height="100%"
   width="100%">
  <defs
     id="defs4327" />
  <metadata
     id="metadata4330">
    <rdf:RDF>
      <cc:Work
         rdf:about="">
        <dc:format>image/svg+xml</dc:format>
        <dc:type
           rdf:resource="http://purl.org/dc/dcmitype/StillImage" />
        <dc:title></dc:title>
      </cc:Work>
    </rdf:RDF>
  </metadata>
  <path
     style="display:inline;overflow:visible;visibility:visible;fill:#487648;fill-opacity:1;fill-rule:evenodd;stroke:#000000;stroke-width:0.5;stroke-linecap:round;stroke-linejoin:round;stroke-miterlimit:4;stroke-dasharray:none;stroke-dashoffset:0;stroke-opacity:1;marker:none;enable-background:accumulate"
     d="m 34.644766,14.784054 c 0.38428,1.077377 1.129524,4.031928 0.908555,6.818328 0.556757,-0.431113 1.168403,-0.811421 1.843073,-1.114783 0.08449,1.125757 0.05549,4.109861 -0.856639,6.714625 0.264133,0.104107 0.522598,0.228301 0.752803,0.38888 1.651479,-1.382714 3.958993,-2.677605 6.619488,-2.748071 -0.284285,0.859645 -1.117929,2.775224 -2.388208,4.562836 1.782044,-0.273522 3.787016,-0.221019 5.684971,0.59628 -1.120528,1.195039 -5.299467,4.821546 -9.033651,4.640611 0.490568,0.341813 0.324133,0.935564 -0.285546,1.270334 -0.123075,0.614314 -0.432793,1.174175 -0.856641,1.607363 l -12.927468,0 c 0.0043,0.03684 0.02226,0.06638 0.02599,0.103699 -4.601424,1.197461 -5.610807,0.560217 -5.529218,-0.103699 l -0.726846,0 c -0.624349,-0.275638 -1.132451,-0.752437 -1.375816,-1.348111 -2.187449,-0.75651 -4.898666,-2.346286 -6.359897,-5.08134 0.674611,-0.09814 2.029518,-0.176366 3.582309,-0.07773 -1.048252,-1.573166 -1.915933,-3.558239 -1.920949,-5.755394 0.750579,0.270409 2.329418,0.986642 3.893815,2.048092 0.372086,-0.849137 1.099988,-1.513437 1.998826,-1.78884 0.08321,-0.687828 0.368207,-1.3043 0.778764,-1.814766 -0.322612,-1.022149 -0.519317,-2.117081 -0.467258,-3.266574 0.504597,0.207556 1.3987,0.657627 2.388205,1.270334 -0.239286,-1.326209 -0.265268,-2.746362 0.10383,-4.173959 0.740202,0.503796 2.32146,1.820382 3.686145,3.499905 0.277238,-0.06751 0.557809,-0.103699 0.856639,-0.103699 0.269007,0 0.526709,0.02157 0.778764,0.07773 0.380791,-0.599712 1.024054,-1.046464 1.791156,-1.192557 0.58862,-1.582501 1.535454,-3.17059 3.011217,-4.381359 0.261115,0.73206 0.700769,2.324797 0.882598,4.148031 0.573145,-1.707232 1.543953,-3.485875 3.141013,-4.796161 z"
     id="path4933" />
  <path
     id="path4243"
     d="m 14.427802,18.515195 c -0.02827,0.0024 -0.05193,0.01306 -0.07123,0.02835 -0.402948,0.319661 1.620709,3.651304 2.870367,6.825204 -0.05032,0.122988 -0.100934,0.2444 -0.14957,0.368546 -1.884251,-2.219435 -4.156389,-4.134423 -4.451572,-3.834304 -0.32074,0.326097 2.105154,3.327324 3.34758,5.953448 C 13.09017,26.00057 8.6298942,24.4927 8.4377665,24.986025 c -0.1573593,0.404043 2.9203955,2.054517 5.0997185,3.869743 -3.458596,0.337549 -8.3447929,2.294501 -8.1552775,2.8208 0.1763102,0.489644 5.0634585,-0.703109 8.0128255,-0.326023 -3.387486,0.782117 -8.048545,3.440502 -7.7849091,3.940617 0.078901,0.149662 0.6560879,0.04899 1.4601176,-0.148843 -1.4717142,0.734311 -2.5535856,1.466538 -2.4359002,1.693898 0.2322455,0.448671 5.3966697,-1.610347 7.7279227,-1.063114 0.11661,0.02737 0.217372,0.04642 0.327638,0.07087 -1.405349,0.939163 -2.558711,1.962699 -2.492878,2.225451 0.08264,0.329864 2.224318,-0.83225 4.009972,-1.311174 0.579206,0.385953 1.370093,0.380167 2.500004,0.04252 0.602755,0.115521 1.046341,0.115833 1.381768,-0.06379 0.484589,-0.02238 1.075432,-0.104447 1.759259,-0.233886 1.683061,0.528403 3.506513,1.48741 3.582624,1.1836 0.04422,-0.176471 -0.462824,-0.697937 -1.225072,-1.304085 2.943704,0.328976 6.884454,1.929085 7.115392,1.50962 0.181852,-0.330312 -1.811991,-1.657401 -4.159551,-2.757012 2.902807,0.08304 5.607374,0.411118 5.726504,-0.007 0.151702,-0.532525 -3.582421,-1.900132 -7.336191,-2.57274 2.27682,-1.840037 7.656272,-3.152287 7.578354,-3.692556 -0.07683,-0.532705 -4.930833,-0.04404 -8.162398,1.162341 1.634956,-2.401089 4.489692,-4.987491 4.223647,-5.358104 -0.185533,-0.258467 -1.687416,0.56189 -3.361823,1.800208 1.49949,-2.505139 3.232047,-4.786725 2.927351,-5.095867 -0.283945,-0.288093 -2.069318,1.098496 -3.938745,3.019247 -0.509738,-2.753028 -1.444854,-5.350733 -1.837612,-5.244705 -0.469507,0.126752 0.205015,4.4141 -0.192296,7.342589 -0.394862,-0.785331 -0.877259,-1.594311 -1.396013,-2.388467 0.407782,-1.732097 0.799438,-3.143829 0.548429,-3.267311 -0.21784,-0.107158 -0.810854,0.696484 -1.474363,1.913609 -1.716086,-2.367486 -3.543958,-4.271711 -4.03846,-4.231201 z"
     style="display:inline;overflow:visible;visibility:visible;opacity:1;fill:#2c9f2c;fill-opacity:1;fill-rule:evenodd;stroke:#000000;stroke-width:0.5;stroke-linecap:round;stroke-linejoin:miter;stroke-miterlimit:4;stroke-dasharray:none;stroke-dashoffset:0;stroke-opacity:1;marker:none;marker-start:none;marker-mid:none;marker-end:none;enable-background:accumulate" />
  <path
     id="path12521-9"
     d="m 3.0901009,41.393427 c -0.015757,0.05165 -0.012827,0.100223 -0.00354,0.155698 0.086308,0.515904 0.9741315,1.203481 1.9799073,1.413442 -0.4627011,0.444265 -0.7354945,0.896161 -0.52324,1.171279 0.549112,0.711763 3.4564038,0.73912 3.9936128,-1.154998 0.179021,-0.6312 0.05907,-1.192774 -0.916379,-1.325461 -0.03052,-0.004 -0.0698,-0.0022 -0.103406,-0.0025 -0.0116,-0.261584 -0.167432,-0.546358 -0.555272,-0.828644 -0.7474363,-0.54398 -3.6358124,-0.203282 -3.8716948,0.571214 z"
     style="display:inline;overflow:visible;visibility:visible;fill:#31a21c;fill-opacity:1;fill-rule:evenodd;stroke:#000000;stroke-width:0.5;stroke-linecap:round;stroke-linejoin:round;stroke-miterlimit:4;stroke-dasharray:none;stroke-dashoffset:0;stroke-opacity:1;marker:none;enable-background:accumulate" />
  <path
     id="path2506-0"
     d="m 32.162482,9.6177417 c -0.05324,-0.0033 -0.114727,0.0084 -0.1683,0.0211 -0.180025,0.04286 -0.318877,0.18308 -0.378684,0.358693 -0.05981,0.1756293 -0.03218,0.3620583 0.08407,0.5064093 0,0 0.799754,1.054596 1.640986,2.278793 0.420615,0.612099 0.852434,1.262189 1.199176,1.83571 0.329188,0.544435 0.550118,1.02896 0.631151,1.26599 -0.01348,0.503848 -0.214225,1.66579 -0.525959,3.122797 -0.0999,0.467346 -0.219902,1.003443 -0.3366,1.519212 l -2.040711,-5.296102 c -0.06402,-0.187065 -0.245004,-0.308025 -0.441809,-0.2954 -0.142862,0.0084 -0.282168,0.08908 -0.357642,0.210993 -0.07547,0.121897 -0.07766,0.269061 -0.02106,0.400905 l 2.524587,6.477702 c -0.16173,0.690227 -0.334899,1.383886 -0.504918,2.088898 -0.432341,1.792827 -0.873105,3.560487 -1.199176,5.0007 -0.0716,0.31618 -0.06553,0.398996 -0.126183,0.675207 -0.181171,-0.553778 -0.364937,-1.122007 -0.568026,-1.709107 -0.283583,-0.819776 -0.558996,-1.622406 -0.778426,-2.257693 -0.219413,-0.635289 -0.392178,-1.164873 -0.399725,-1.202715 -0.0051,-0.02428 -0.03386,-0.5153 -0.04212,-1.076095 -0.0084,-0.560778 -0.02106,-1.261486 -0.02106,-1.962295 0,-0.700826 0.0084,-1.38844 0,-1.962295 -0.0084,-0.573872 -0.0014,-0.956542 -0.06318,-1.266007 -0.08002,-0.401642 -0.32004,-1.22038 -0.673217,-2.299907 -0.353178,-1.079528 -0.827552,-2.406384 -1.367477,-3.6925 -0.0657,-0.191051 -0.242426,-0.329542 -0.441809,-0.358693 -0.199383,-0.02913 -0.387613,0.04672 -0.504917,0.210993 -0.117254,0.16426 -0.133764,0.38977 -0.04212,0.569702 0.524864,1.250184 0.97983,2.551806 1.32541,3.60811 0.167963,0.513475 0.31384,0.977522 0.420767,1.350397 -0.482157,-0.21908 -0.816096,-0.351493 -1.704094,-0.780712 -0.687066,-0.332086 -1.402703,-0.692387 -1.998627,-1.012785 -0.595924,-0.320416 -1.100387,-0.620421 -1.262302,-0.759615 -0.107315,-0.09996 -0.257269,-0.139646 -0.399726,-0.105488 -0.157349,0.04236 -0.280213,0.178024 -0.315575,0.337595 -0.03538,0.159572 0.02257,0.316699 0.147242,0.422003 0.303934,0.261275 0.795121,0.555838 1.40956,0.8862 0.614438,0.330345 1.346889,0.677451 2.040711,1.012802 1.209284,0.584504 2.047618,0.954349 2.314202,1.076095 0.01685,0.199105 0.03689,0.472687 0.04212,0.822907 0.0084,0.560778 0,1.240372 0,1.941198 0,0.700809 -0.0084,1.409538 0,1.983393 3.7e-4,0.02461 -3.71e-4,0.03935 0,0.06329 -0.333366,-0.288904 -0.694933,-0.596728 -1.115027,-0.991705 -1.049964,-0.987234 -2.191659,-2.238205 -2.524586,-3.017293 -0.07665,-0.204881 -0.291956,-0.321872 -0.504918,-0.274302 -0.131405,0.02545 -0.25405,0.112855 -0.315558,0.23209 -0.06149,0.119386 -0.05526,0.257441 0,0.379807 0.465664,1.089742 1.655356,2.297597 2.73497,3.312693 0.868944,0.81703 1.527892,1.375715 1.809286,1.603602 0.0625,0.293542 0.207233,0.689993 0.42075,1.308201 0.221469,0.6412 0.517367,1.442223 0.799468,2.257695 0.282084,0.815473 0.561017,1.646886 0.778409,2.342103 0.217392,0.695233 0.357743,1.287958 0.378684,1.477 l 1.07296,-0.06329 c 0,-0.0033 -1.01e-4,-0.03818 0,-0.04219 0.0051,-0.275776 0.207822,-1.380136 0.525942,-2.785203 0.25341,-1.119228 0.608087,-2.532835 0.946726,-3.924605 0.367059,-0.269196 0.682534,-0.667505 1.030876,-1.139405 0.454579,-0.615799 0.929981,-1.344721 1.388519,-2.088898 0.458538,-0.744176 0.893709,-1.49443 1.304368,-2.088897 0.410676,-0.594467 0.809525,-1.039961 1.009835,-1.160502 0.205464,-0.09561 0.307943,-0.334799 0.231425,-0.548605 -0.07648,-0.213789 -0.306781,-0.331568 -0.525959,-0.274303 -0.05256,0.01172 -0.102429,0.03332 -0.147242,0.06329 -0.465175,0.279929 -0.849654,0.78592 -1.283326,1.413707 -0.433672,0.627788 -0.889919,1.390199 -1.346452,2.131093 -0.426832,0.692738 -0.842983,1.365467 -1.241243,1.9201 0.37587,-1.55774 0.747125,-3.104831 1.030876,-4.431 0.326526,-1.526228 0.546984,-2.729662 0.546984,-3.460409 l 0,-0.08439 -0.02106,-0.06329 c -0.0067,-0.02076 -0.01348,-0.04236 -0.02106,-0.06329 l 0.988793,-3.819103 c 0.03824,-0.142325 -0.0084,-0.290494 -0.105124,-0.400904 -0.09737,-0.110344 -0.233161,-0.168329 -0.378684,-0.147684 -0.176875,0.02846 -0.318574,0.162251 -0.357659,0.337612 l -0.736343,2.848495 c -0.06385,-0.107832 -0.120286,-0.202235 -0.189342,-0.316497 -0.364498,-0.602856 -0.792324,-1.276339 -1.220218,-1.899003 -0.85577,-1.245344 -1.66201,-2.3210043 -1.66201,-2.3210043 -0.0962,-0.13546 -0.239849,-0.222563 -0.399726,-0.232091 z"
     style="display:inline;overflow:visible;visibility:visible;fill:#507237;fill-opacity:1;fill-rule:evenodd;stroke:#000000;stroke-width:0.50000006;stroke-linecap:round;stroke-linejoin:round;stroke-miterlimit:4;stroke-dasharray:none;stroke-dashoffset:0;stroke-opacity:1;marker:none;enable-background:accumulate" />
  <path
     id="path3333-9"
     d="m 26.084008,2.0364503 c -0.35668,0 -0.564205,1.1137994 -0.620916,2.4112444 -0.534595,-1.190555 -1.189284,-2.1539374 -1.531557,-2.0593884 -0.327056,0.09034 -0.257722,1.1190944 0,2.3077564 -0.781887,-0.944543 -1.590544,-1.6282554 -1.883409,-1.459164 -0.301712,0.174196 0.05619,1.19742 0.631247,2.318106 -1.027968,-0.742714 -2.031182,-1.228589 -2.276659,-0.983126 -0.147816,0.147833 0.01008,0.531583 0.341508,1.014172 -0.557158,-0.185695 -0.985247,-0.237539 -1.107286,-0.07245 -0.279883,0.378631 1.146607,1.693817 2.587102,2.690657 -1.712093,-0.379189 -3.706953,-0.382697 -3.828919,0.07245 -0.0974,0.363753 1.03863,0.883176 2.369794,1.283236 -1.375197,0.221619 -2.585992,0.6500503 -2.576743,1.0245203 0.0072,0.280767 0.697713,0.455114 1.624692,0.527783 -0.839822,0.411803 -1.439817,0.846795 -1.376334,1.117657 0.09063,0.386986 1.480882,0.273023 2.928596,-0.0414 -1.183493,0.901783 -2.137733,1.966658 -1.935151,2.307757 0.102156,0.171955 0.479843,0.129558 0.993446,-0.05174 -0.291597,0.461964 -0.43365,0.840779 -0.310458,0.993475 0.200868,0.248947 1.024755,-0.155475 1.94551,-0.796849 -0.508833,1.00972 -0.780489,1.917763 -0.527765,2.111131 0.204052,0.156141 0.702078,-0.198047 1.272852,-0.776151 -0.174182,0.79789 -0.195666,1.427649 0.03098,1.541953 0.273789,0.138045 0.815329,-0.505046 1.366004,-1.40742 -0.04452,1.061846 0.07709,1.924539 0.372529,1.997295 0.235635,0.05803 0.519323,-0.407473 0.796828,-1.09696 0.149993,0.736472 0.360355,1.256793 0.600212,1.272889 0.394905,0.0265 0.703505,-1.314701 0.827878,-2.783797 0.512868,1.387765 1.24104,2.607407 1.624693,2.51473 0.302403,-0.07305 0.295732,-0.942267 0.1242,-2.007645 0.668449,0.857302 1.327966,1.453614 1.604002,1.314284 0.264365,-0.133434 0.09149,-0.907649 -0.279394,-1.842065 0.790302,0.633998 1.510823,1.024338 1.738519,0.838242 0.180004,-0.1471 0.01152,-0.622761 -0.341494,-1.221144 0.633711,0.295761 1.142574,0.421127 1.29356,0.248368 0.319391,-0.365445 -1.086309,-1.867062 -2.483622,-2.990769 1.711993,0.530579 3.827164,0.697288 3.984143,0.23802 0.104605,-0.306174 -0.697439,-0.790624 -1.748893,-1.231493 1.14191,-0.107874 2.07216,-0.373038 2.100732,-0.693361 0.03833,-0.429716 -1.554423,-0.7862333 -3.16661,-0.9210343 1.530492,-0.531904 2.973249,-1.383541 2.866512,-1.80067 -0.08602,-0.336218 -1.151909,-0.280127 -2.380142,-0.03105 0.984212,-0.784912 1.7109,-1.613567 1.541918,-1.914507 -0.142212,-0.253149 -0.87668,-0.0645 -1.76957,0.331158 0.578771,-0.792299 0.92515,-1.492073 0.734729,-1.707533 -0.240305,-0.271908 -1.237785,0.33018 -2.2663,1.169401 0.550228,-1.214675 0.852185,-2.38114 0.548456,-2.576822 -0.259265,-0.1670394 -0.884936,0.425469 -1.531557,1.272888 0.155784,-1.061531 0.133134,-1.9459204 -0.155235,-2.0490404 -0.410943,-0.146925 -1.180481,1.3415704 -1.717843,2.8872854 -0.128956,-1.635036 -0.598785,-3.2908844 -1.034827,-3.2908844 z"
     style="display:inline;overflow:visible;visibility:visible;fill:#d35f5f;fill-opacity:1;fill-rule:evenodd;stroke:#000000;stroke-width:0.49999997;stroke-linecap:round;stroke-linejoin:round;stroke-miterlimit:4;stroke-dasharray:none;stroke-dashoffset:0;stroke-opacity:1;marker:none;enable-background:accumulate" />
  <ellipse
     id="path3397-1"
     style="display:inline;overflow:visible;visibility:visible;fill:#fdff06;fill-opacity:1;fill-rule:evenodd;stroke:#000000;stroke-width:0.49999991;stroke-linecap:round;stroke-linejoin:round;stroke-miterlimit:4;stroke-dasharray:none;stroke-dashoffset:0;stroke-opacity:1;marker:none;enable-background:accumulate"
     cx="26.299721"
     cy="10.45328"
     rx="2.8041782"
     ry="2.8042502" />
  <path
     style="display:inline;overflow:visible;visibility:visible;fill:#d35f5f;fill-opacity:1;fill-rule:evenodd;stroke:#000000;stroke-width:0.49999997;stroke-linecap:round;stroke-linejoin:round;stroke-miterlimit:4;stroke-dasharray:none;stroke-dashoffset:0;stroke-opacity:1;marker:none;enable-background:accumulate"
     d="m 43.400468,6.8208947 c -0.286521,-0.212429 -1.116576,0.558688 -1.934858,1.567149 0.279625,-1.274763 0.32748,-2.438564 -0.0038,-2.566462 -0.316528,-0.122217 -0.873533,0.745475 -1.374442,1.853819 -0.06554,-1.224423 -0.307935,-2.255265 -0.6439,-2.293857 -0.346112,-0.03976 -0.668016,0.995352 -0.873525,2.238087 -0.383425,-1.208853 -0.899931,-2.196645 -1.243315,-2.145665 -0.206786,0.03072 -0.3085,0.433024 -0.329682,1.018077 -0.336969,-0.480998 -0.649976,-0.777604 -0.846332,-0.717671 -0.450334,0.137462 -0.08773,2.043533 0.475729,3.702217 -1.149488,-1.324282 -2.749869,-2.515189 -3.118918,-2.22221 -0.294884,0.234194 0.308333,1.328037 1.139391,2.442213 -1.236686,-0.641006 -2.46448,-1.017967 -2.680076,-0.711647 -0.161434,0.229828 0.289418,0.781133 0.99078,1.3915943 -0.919888,-0.169376 -1.660934,-0.177289 -1.771257,0.0781 -0.157676,0.364843 1.026986,1.101296 2.377197,1.710942 -1.487779,0.01954 -2.888533,0.306635 -2.928949,0.701293 -0.02035,0.198973 0.308296,0.389856 0.82885,0.550109 -0.509374,0.197427 -0.849098,0.417126 -0.84108,0.613157 0.01309,0.319611 0.915782,0.485425 2.037411,0.518589 -1.01011,0.508059 -1.769139,1.075698 -1.681291,1.381547 0.07092,0.246956 0.681931,0.259049 1.484738,0.134597 -0.615124,0.537206 -1.007451,1.030296 -0.893463,1.257101 0.137719,0.273954 0.955747,0.07989 1.935535,-0.317022 -0.668172,0.826466 -1.084281,1.591895 -0.890287,1.826296 0.154725,0.186953 0.659853,-0.01803 1.293414,-0.406617 -0.318135,0.68094 -0.459042,1.2242 -0.275951,1.379983 0.301444,0.256483 1.348129,-0.637109 2.322995,-1.74316 -0.414532,1.420243 -0.55598,2.833662 -0.192596,2.987708 0.286427,0.121423 0.798752,-0.580792 1.295473,-1.53877 0.02638,1.086782 0.201018,1.958592 0.50574,2.011068 0.291834,0.05026 0.614067,-0.674625 0.872651,-1.64613 0.257255,0.979974 0.603573,1.722659 0.897315,1.708778 0.232206,-0.01096 0.380155,-0.493403 0.452961,-1.18433 0.332912,0.615007 0.667017,1.01878 0.891195,0.969926 0.474216,-0.10334 0.239344,-2.146788 -0.213865,-3.881667 1.059243,1.445835 2.659072,2.839495 3.058701,2.564058 0.266379,-0.183649 -0.08938,-1.050485 -0.671438,-2.030855 0.981543,0.593438 1.886737,0.934466 2.100466,0.694167 0.286718,-0.322362 -0.780407,-1.557356 -1.995192,-2.62582 1.546233,0.484245 3.212413,0.659395 3.375102,0.260746 0.131144,-0.321315 -0.758491,-0.911075 -1.893474,-1.442496 1.258091,-0.04435 2.335366,-0.277208 2.378855,-0.619595 0.03653,-0.288052 -0.665822,-0.573941 -1.618724,-0.787893 0.9368,-0.291751 1.631813,-0.647584 1.607171,-0.934073 -0.0311,-0.361543 -1.19096,-0.471961 -2.516984,-0.410374 1.165428,-0.648045 2.102707,-1.405227 1.975265,-1.743312 -0.108783,-0.288594 -0.964267,-0.185267 -1.988399,0.110353 0.757362,-0.7599463 1.265888,-1.4838653 1.095657,-1.7384473 -0.242606,-0.362772 -1.747286,0.374617 -3.099537,1.2962493 0.870196,-1.3902253 1.478964,-3.0001863 1.128692,-3.2598823 z"
     id="path4528" />
  <ellipse
     style="display:inline;overflow:visible;visibility:visible;fill:#fdff06;fill-opacity:1;fill-rule:evenodd;stroke:#000000;stroke-width:0.49999991;stroke-linecap:round;stroke-linejoin:round;stroke-miterlimit:4;stroke-dasharray:none;stroke-dashoffset:0;stroke-opacity:1;marker:none;enable-background:accumulate"
     id="path4530"
     transform="matrix(0.80329959,0.59557516,-0.59557516,0.80329959,0,0)"
     cx="39.141651"
     cy="-11.952191"
     rx="2.8041782"
     ry="2.8042502" />
  <path
     id="path12528"
     d="m 34.271331,23.194724 c -0.391859,-0.02687 -2.430959,3.80871 -3.433024,7.651728 -1.63716,-3.67953 -4.338956,-7.354163 -4.674342,-7.168663 -0.222567,0.123091 -0.134677,1.988014 0.290934,4.308926 -1.966852,-1.182216 -3.590705,-1.916774 -3.723958,-1.719706 -0.134676,0.199155 0.690772,1.672484 1.997748,3.420092 -0.160854,0.61791 -0.32287,1.351857 -0.465494,2.183446 -1.506565,-1.957183 -2.898046,-3.351886 -3.103297,-3.207544 -0.267162,0.187873 0.271195,3.181575 1.415879,6.260505 -2.536932,-1.688615 -4.975825,-2.851101 -5.139838,-2.608543 -0.153411,0.226876 0.926054,2.115529 2.56022,4.173667 -2.94879,-0.463416 -5.558038,-0.496128 -5.60533,-0.212541 -0.02351,0.141008 0.471929,0.551951 1.260714,1.082063 -1.948883,-0.184843 -3.41728,-0.15273 -3.452418,0.05796 -0.05312,0.318535 2.424305,2.015216 5.391979,3.362121 -2.45223,0.569691 -4.35436,1.277829 -4.305826,1.526482 0.105621,0.541122 8.496977,2.279144 12.762314,0.695609 4.168382,1.334454 11.487311,0.738143 11.734344,0.251193 3.885673,0.363783 8.079642,-0.0778 8.08797,-0.444418 0.0052,-0.234417 -1.421852,-1.007213 -3.394232,-1.758351 2.869511,-0.516139 5.244825,-1.306052 5.198023,-1.584448 -0.06833,-0.406453 -4.745497,-1.603023 -8.902584,-1.565127 2.617325,-1.714838 4.703786,-3.576565 4.538571,-3.825863 -0.17238,-0.260101 -2.940268,0.133425 -5.915661,1.082064 1.476168,-3.171028 2.359961,-6.44032 2.055935,-6.569662 -0.17489,-0.0744 -1.021957,0.593151 -2.094727,1.661738 0.629521,-2.091621 0.91548,-3.747517 0.698242,-3.825863 -0.265774,-0.09586 -1.91294,1.496629 -3.56879,3.671281 0.351542,-3.486576 0.117217,-6.875479 -0.213347,-6.898148 z"
     style="display:inline;overflow:visible;visibility:visible;opacity:1;fill:#48a331;fill-opacity:1;fill-rule:evenodd;stroke:#000000;stroke-width:0.49999991;stroke-linecap:round;stroke-linejoin:miter;stroke-miterlimit:4;stroke-dasharray:none;stroke-dashoffset:0;stroke-opacity:1;marker:none;marker-start:none;marker-mid:none;marker-end:none;enable-background:accumulate" />
  <path
     id="path3399"
     d="m 37.01207,30.455236 c -0.863327,-0.316082 -1.831567,0.134111 -2.148148,0.998802 -0.0037,-0.0043 -0.01636,-0.003 -0.01991,-0.0073 -0.589374,-0.706081 -1.654506,-0.799614 -2.360341,-0.208812 -0.705836,0.590801 -0.800339,1.65732 -0.210965,2.363402 0.0014,0.0019 -0.0087,0.01801 -0.0073,0.01993 -0.905956,0.15861 -1.515139,1.014095 -1.357639,1.920983 0.157491,0.906884 1.031228,1.52321 1.937184,1.364601 0.01021,-0.0017 0.01734,-0.01071 0.0272,-0.01264 -0.0052,0.0131 -0.0097,0.02656 -0.01459,0.03985 -0.316581,0.864691 0.13208,1.833642 0.995407,2.149724 0.863327,0.316082 1.811678,-0.141393 2.12826,-1.006085 0.0049,-0.01346 0.01003,-0.02636 0.01459,-0.03985 0.0066,0.0083 0.0057,0.01897 0.01261,0.02721 0.589374,0.706081 1.654515,0.799618 2.360341,0.208813 0.705836,-0.590803 0.793043,-1.637394 0.203669,-2.343476 0.0033,-3.77e-4 0.004,-0.01956 0.0073,-0.01993 0.905955,-0.15861 1.522434,-1.034023 1.364934,-1.940911 -0.157492,-0.906883 -1.031228,-1.52321 -1.937184,-1.3646 -0.0057,9.1e-4 -0.01431,-0.0083 -0.01991,-0.0073 0.316582,-0.864691 -0.112192,-1.826358 -0.975518,-2.142441 z"
     style="display:inline;overflow:visible;visibility:visible;fill:#d39f5f;fill-opacity:1;fill-rule:evenodd;stroke:#000000;stroke-width:0.5;stroke-linecap:round;stroke-linejoin:round;stroke-miterlimit:4;stroke-dasharray:none;stroke-dashoffset:0;stroke-opacity:1;marker:none;enable-background:accumulate" />
  <ellipse
     transform="matrix(0.93904188,0.34380276,-0.34380276,0.93904188,0,0)"
     id="path3412"
     style="display:inline;overflow:visible;visibility:visible;fill:#ffd006;fill-opacity:1;fill-rule:evenodd;stroke:#000000;stroke-width:0.50000006;stroke-linecap:round;stroke-linejoin:round;stroke-miterlimit:4;stroke-dasharray:none;stroke-dashoffset:0;stroke-opacity:1;marker:none;enable-background:accumulate"
     cx="45.219376"
     cy="20.464718"
     rx="1.8737208"
     ry="1.8766779" />
</svg>
