<?xml version="1.0" encoding="UTF-8" standalone="no"?>
<!-- Created with Inkscape (http://www.inkscape.org/) -->
<svg xmlns:dc="http://purl.org/dc/elements/1.1/" xmlns:cc="http://creativecommons.org/ns#" xmlns:rdf="http://www.w3.org/1999/02/22-rdf-syntax-ns#" xmlns:svg="http://www.w3.org/2000/svg" xmlns="http://www.w3.org/2000/svg" version="1.1" width="100%" height="100%" viewBox="0 0 48 48" id="svg2985">
<defs id="defs2987" />
<metadata id="metadata2990">
<rdf:RDF>
<cc:Work rdf:about="">
<dc:format>image/svg+xml
</dc:format>
<dc:type rdf:resource="http://purl.org/dc/dcmitype/StillImage" />
<dc:title>
</dc:title>
</cc:Work>
</rdf:RDF>
</metadata>
<path d="M 23.84,6.81 C 4.93,7.47 7.58,9.46 7.42,23.89 7.25,38.31 8.74,40.47 24.5,40.14 40.25,39.81 41.08,41.63 40.58,22.56 40.09,3.49 38.26,6.97 23.84,6.81 z" id="path3065" style="color:#000000;fill:#2a1910;stroke-width:0.5" />
<path d="M 23.87,9.63 C 8.18,10.18 10.38,11.83 10.24,23.81 10.1,35.78 11.34,37.57 24.42,37.3 37.5,37.02 38.18,38.54 37.77,22.71 37.36,6.88 35.84,9.77 23.87,9.63 z" id="path3084" style="color:#000000;fill:#34241b;stroke-width:0.5" />
<path d="m 19.81,13.03 c -0.78,0.62 -1.56,1.25 -2.34,1.87 1.53,2.67 5.24,5.54 4.68,8.56 -1.53,2.92 -3.11,5.84 -4.33,8.92 1.84,1.73 3.89,0.42 4.13,-1.81 0.78,-1.15 1.61,-4.75 2.77,-4.18 1.50,1.87 1.97,5.91 3.75,6.69 0.67,-0.47 2.73,-0.30 2.04,-1.41 -1.25,-3.17 -2.82,-6.21 -4.47,-9.20 0.98,-2.52 3.74,-5.66 3.56,-7.88 -0.81,-0.11 -2.02,-1.29 -2.55,-0.62 -0.97,1.36 -1.76,5.07 -3.16,4.83 C 22.64,16.80 21.30,14.86 19.81,13.03 z" id="path3009" style="font-size:medium;font-style:normal;font-variant:normal;font-weight:normal;font-stretch:normal;text-indent:0;text-align:start;text-decoration:none;line-height:normal;letter-spacing:normal;word-spacing:normal;text-transform:none;direction:ltr;block-progression:tb;writing-mode:lr-tb;text-anchor:start;baseline-shift:baseline;color:#000000;fill:#91671b;stroke-width:3;font-family:Sans;-inkscape-font-specification:Sans" />
<path d="m 32.46,6.65 c -2.2,0 -5.01,0.19 -8.62,0.15 C 5.69,7.44 7.41,9.43 7.43,22.34 c 4.73,1.44 10.15,2.28 15.94,2.28 6.31,0 12.17,-0.99 17.18,-2.68 C 40.17,8.24 38.98,6.64 32.46,6.65 z" id="path3103" style="color:#000000;fill:#615149;fill-opacity:0.12;stroke-width:0.5" />
<path d="m 37.22,13.26 a 4.03,2.49 25.14 1 1 -7.3,-3.43 4.03,2.49 25.14 1 1 7.3,3.43 z" id="path3836" style="color:#000000;fill:#bd7d3f;fill-opacity:0.18;stroke-width:1.5" />
<path d="m 14.06,35.47 a 2.84,1.44 53.51 0 1 -3.38,-4.57 2.84,1.44 53.51 0 1 3.38,4.57 z" id="path3838" style="color:#000000;fill:#bd7d3f;fill-opacity:0.18;stroke-width:1.5" />
<path d="m 19.23,36.61 a 1.89,0.98 5.54 1 1 -3.76,-0.36 1.89,0.98 5.54 1 1 3.76,0.36 z" id="path3840" style="color:#000000;fill:#bd7d3f;fill-opacity:0.18;stroke-width:1.5" />
<path d="M 23.84,6.81 C 4.93,7.47 7.58,9.46 7.42,23.89 7.25,38.31 8.74,40.47 24.5,40.14 40.25,39.81 41.08,41.63 40.58,22.56 40.09,3.49 38.26,6.97 23.84,6.81 z" id="path2994" style="color:#000000;fill:none;stroke:#000000;stroke-width:0.5" />
</svg>
