<?xml version="1.0" encoding="UTF-8" standalone="no"?>
<!-- Created with Inkscape (http://www.inkscape.org/) -->

<svg
 xmlns:dc="http://purl.org/dc/elements/1.1/"
 xmlns:cc="http://creativecommons.org/ns#"
 xmlns:rdf="http://www.w3.org/1999/02/22-rdf-syntax-ns#"
 xmlns:svg="http://www.w3.org/2000/svg"
 xmlns="http://www.w3.org/2000/svg"
 version="1.1"
 width="100%"
 height="100%"
 viewBox="0 0 48 48"
 id="svg2985">
<metadata
 id="metadata14">
<rdf:RDF>
<cc:Work
 rdf:about="">
<dc:format>image/svg+xml</dc:format>
<dc:type
 rdf:resource="http://purl.org/dc/dcmitype/StillImage" />
<dc:title></dc:title>
</cc:Work>
</rdf:RDF>
</metadata>
<defs
 id="defs2987" />
<path
 d="M 23.84,6.81 C 4.93,7.47 7.58,9.46 7.42,23.89 7.25,38.31 8.74,40.47 24.5,40.14 40.25,39.81 41.08,41.63 40.58,22.56 40.09,3.49 38.26,6.97 23.84,6.81 z"
 id="path3065"
 style="color:#000000;fill:#052555;fill-opacity:1;stroke-width:0.5" />
<path
 d="M 23.87,9.63 C 8.18,10.18 10.38,11.83 10.24,23.81 10.1,35.78 11.34,37.57 24.42,37.3 37.5,37.02 38.18,38.54 37.77,22.71 37.36,6.88 35.84,9.77 23.87,9.63 z"
 id="path3084"
 style="color:#000000;fill:#142976;fill-opacity:1;stroke-width:0.5" />
<path
 d="m 32.46,6.65 c -2.2,0 -5.01,0.19 -8.62,0.15 C 5.69,7.44 7.41,9.43 7.43,22.34 c 4.73,1.44 10.15,2.28 15.94,2.28 6.31,0 12.17,-0.99 17.18,-2.68 C 40.17,8.24 38.98,6.64 32.46,6.65 z"
 id="path3103"
 style="color:#000000;fill:#59a4d2;fill-opacity:0.18918918;stroke-width:0.5" />
<path
 d="m 37.22,13.26 a 4.0328316,2.4917496 25.14 1 1 -7.3,-3.43 4.0328316,2.4917496 25.14 1 1 7.3,3.43 z"
 id="path3836"
 style="color:#000000;fill:#bd7d3f;fill-opacity:0.18000004;stroke-width:1.5" />
<path
 d="m 14.06,35.47 a 2.8420635,1.4410463 53.51 0 1 -3.38,-4.57 2.8420635,1.4410463 53.51 0 1 3.38,4.57 z"
 id="path3838"
 style="color:#000000;fill:#bd7d3f;fill-opacity:0.18000004;stroke-width:1.5" />
<path
 d="m 19.23,36.61 a 1.89,0.98 5.54 1 1 -3.76,-0.36 1.89,0.98 5.54 1 1 3.76,0.36 z"
 id="path3840"
 style="color:#000000;fill:#bd7d3f;fill-opacity:0.18000004;stroke-width:1.5" />
<path
 d="M 23.84,6.81 C 4.93,7.47 7.58,9.46 7.42,23.89 7.25,38.31 8.74,40.47 24.5,40.14 40.25,39.81 41.08,41.63 40.58,22.56 40.09,3.49 38.26,6.97 23.84,6.81 z"
 id="path2994"
 style="color:#000000;fill:none;stroke:#000000;stroke-width:0.5" />
<path
 d="m 23.232356,13.411078 c -0.04885,0.635035 -0.008,1.711461 0.02872,3.015483 C 23.055353,16.265358 22.85285,16.14001 22.62926,15.93834 21.885584,15.267572 21.088923,14.427886 20.561501,13.841862 l -0.689253,0.631815 c 0.547802,0.608667 1.37436,1.450787 2.153916,2.153916 0.389778,0.351564 0.744774,0.65115 1.091317,0.890285 0.0617,0.04258 0.113812,0.07612 0.172313,0.114875 0.03654,1.07901 0.07264,2.323534 0.114876,3.618579 -1.538473,-1.555776 -3.085689,-3.00113 -4.307832,-3.877048 L 18.29271,18.49432 c 1.055478,0.756468 2.526718,2.145808 4.020643,3.647297 -1.473757,-0.0039 -2.91687,-0.01875 -4.279113,0 -0.239135,-0.346543 -0.56744,-0.730258 -0.919004,-1.120036 -0.703129,-0.779556 -1.545248,-1.577395 -2.153916,-2.125197 l -0.603096,0.689253 c 0.586024,0.527422 1.396991,1.324083 2.067759,2.067759 0.153016,0.169648 0.299394,0.333047 0.430783,0.488221 -1.279853,0.02672 -2.471102,0.08435 -3.417547,0.143595 l 0.114876,1.838008 c 0.947611,-0.05932 2.197209,-0.0883 3.532422,-0.114876 -0.208171,0.301949 -0.466904,0.621304 -0.746691,0.947723 -0.34668,0.404461 -0.727313,0.797943 -1.062598,1.091318 -0.335286,0.293374 -0.64511,0.498724 -0.717972,0.516939 l 0.201032,0.890286 c 0.405014,-0.101253 0.738506,-0.384134 1.120036,-0.717972 0.38153,-0.333839 0.778621,-0.745651 1.148755,-1.177474 0.370135,-0.431824 0.721384,-0.865103 0.976442,-1.263631 0.07276,-0.113688 0.111362,-0.214356 0.172313,-0.315908 1.386505,-0.01877 2.860158,-0.0042 4.36527,0 -1.010997,0.94515 -2.003355,1.843374 -2.757013,2.527262 -0.831513,0.754535 -1.384678,1.241083 -1.608257,1.464662 l 0.976442,0.976442 c 0.100923,-0.100923 0.716389,-0.650041 1.55082,-1.407225 0.760917,-0.690476 1.762172,-1.594308 2.785731,-2.55598 0.02779,1.582578 0.02784,3.149162 0,4.652458 -0.126287,0.0703 -0.238109,0.165149 -0.373346,0.25847 -0.346543,0.239135 -0.701539,0.56744 -1.091317,0.919004 -0.779556,0.703129 -1.606114,1.545248 -2.153916,2.153916 l 0.689253,0.603097 c 0.527422,-0.586025 1.324083,-1.425711 2.067759,-2.096479 0.297714,-0.268526 0.576604,-0.470823 0.832848,-0.660534 -0.04294,1.280352 -0.110684,2.491634 -0.229751,3.503703 l 1.838008,0.201033 c 0.121624,-1.033799 0.185519,-2.233586 0.229751,-3.474985 0.221178,0.164589 0.43523,0.352541 0.660534,0.545659 0.404461,0.34668 0.797943,0.727313 1.091317,1.062598 0.293375,0.335286 0.470006,0.64511 0.488221,0.717972 l 0.890286,-0.201032 C 28.32922,32.764652 28.075059,32.43116 27.741221,32.04963 27.407382,31.6681 26.966851,31.271009 26.535028,30.900875 26.121172,30.546141 25.713492,30.20514 25.328835,29.953152 c 0.03138,-1.508009 0.05639,-3.071405 0.02872,-4.652458 0.677781,0.729324 1.384939,1.505171 1.895446,2.067759 0.754536,0.831513 1.241082,1.384678 1.464662,1.608257 l 0.976442,-0.976442 c -0.100923,-0.100923 -0.67876,-0.716388 -1.435944,-1.550819 -0.609401,-0.671572 -1.438016,-1.573746 -2.268791,-2.469824 1.753504,0.02074 2.227804,0.03229 3.58986,0.05744 0.05224,0.08451 0.08379,0.16504 0.143594,0.25847 0.255059,0.398528 0.577589,0.831807 0.947723,1.263631 0.370135,0.431823 0.767225,0.843635 1.148755,1.177474 0.38153,0.333838 0.715022,0.616719 1.120036,0.717972 l 0.229751,-0.890286 c -0.07286,-0.01821 -0.411405,-0.223565 -0.74669,-0.516939 -0.335286,-0.293375 -0.6872,-0.686857 -1.03388,-1.091318 -0.26001,-0.303346 -0.48878,-0.604957 -0.689253,-0.890285 1.259691,0.02427 3.52884,0.05744 3.84833,0.05744 l 0,-1.838008 c -0.238716,0 -2.536785,-0.0339 -3.762173,-0.05744 0.148265,-0.178343 0.309086,-0.375773 0.48822,-0.574378 0.670768,-0.743676 1.510454,-1.540337 2.096479,-2.067759 l -0.631816,-0.689253 c -0.608668,0.547802 -1.450786,1.345641 -2.153916,2.125197 -0.351564,0.389778 -0.65115,0.773493 -0.890285,1.120036 -0.01312,0.01901 -0.01591,0.0388 -0.02872,0.05744 -1.249182,-0.0229 -1.682307,-0.03719 -3.273952,-0.05744 1.359047,-1.367663 2.612677,-2.707952 3.388828,-3.790892 l -1.120037,-0.80413 c -0.715793,0.998725 -2.011616,2.372759 -3.417547,3.790892 -0.04104,-1.35328 -0.0809,-2.63647 -0.114875,-3.762173 0.04959,-0.03172 0.09068,-0.05229 0.143594,-0.08616 0.398528,-0.255058 0.831807,-0.577588 1.263631,-0.947723 0.431823,-0.370134 0.872354,-0.767225 1.206193,-1.148755 0.333838,-0.38153 0.587999,-0.715022 0.689253,-1.120036 l -0.890286,-0.229751 c -0.01821,0.07286 -0.194846,0.411405 -0.488221,0.746691 -0.293374,0.335285 -0.686856,0.687199 -1.091317,1.033879 -0.29656,0.254194 -0.581351,0.491313 -0.861566,0.689253 -0.03793,-1.403695 -0.06354,-2.505332 -0.02872,-2.958044 l -1.838008,-0.143595 z"
 id="path2992"
 style="font-size:medium;font-style:normal;font-variant:normal;font-weight:normal;font-stretch:normal;text-indent:0;text-align:start;text-decoration:none;line-height:normal;letter-spacing:normal;word-spacing:normal;text-transform:none;direction:ltr;block-progression:tb;writing-mode:lr-tb;text-anchor:start;baseline-shift:baseline;color:#000000;fill:#a6bade;fill-opacity:1;stroke:none;stroke-width:2;marker:none;visibility:visible;display:inline;overflow:visible;enable-background:accumulate;font-family:Sans;-inkscape-font-specification:Sans" />
<path
 d="m 19.23,36.61 a 1.89,0.98 5.54 1 1 -3.76,-0.36 1.89,0.98 5.54 1 1 3.76,0.36 z"
 id="path3840-5"
 style="color:#000000;fill:#bd7d3f;fill-opacity:0.18000004;stroke-width:1.5" />
<path
 d="m 11.389831,11.79661 c -1.01695,4.271187 -1.220339,19.728814 0.20339,22.779661"
 id="path2992-1"
 style="color:#000000;fill:none;stroke:#a6bade;stroke-width:2;stroke-linecap:butt;stroke-linejoin:miter;stroke-miterlimit:4;stroke-opacity:1;stroke-dasharray:none;stroke-dashoffset:0;marker:none;visibility:visible;display:inline;overflow:visible;enable-background:accumulate" />
<path
 d="M 36.20339,11.79661 C 37.220339,16.067797 37.423729,31.525424 36,34.576271"
 id="path2995"
 style="color:#000000;fill:none;stroke:#a6bade;stroke-width:2;stroke-linecap:butt;stroke-linejoin:miter;stroke-miterlimit:4;stroke-opacity:1;stroke-dasharray:none;stroke-dashoffset:0;marker:none;visibility:visible;display:inline;overflow:visible;enable-background:accumulate" />
</svg>
