<?xml version="1.0" encoding="UTF-8" standalone="no"?>
<!-- Created with Inkscape (http://www.inkscape.org/) -->
<svg xmlns:dc="http://purl.org/dc/elements/1.1/" xmlns:cc="http://creativecommons.org/ns#" xmlns:rdf="http://www.w3.org/1999/02/22-rdf-syntax-ns#" xmlns:svg="http://www.w3.org/2000/svg" xmlns="http://www.w3.org/2000/svg" version="1.1" width="100%" height="100%" viewBox="0 0 48 48" id="svg2985">
<defs id="defs2987" />
<path d="M 23.84,6.81 C 4.93,7.47 7.58,9.46 7.42,23.89 7.25,38.31 8.74,40.47 24.5,40.14 40.25,39.81 41.08,41.63 40.58,22.56 40.09,3.49 38.26,6.97 23.84,6.81 z" id="path3065" style="color:#000000;fill:#2a1910;stroke-width:0.5" />
<path d="M 23.87,9.63 C 8.18,10.18 10.38,11.83 10.24,23.81 10.1,35.78 11.34,37.57 24.42,37.3 37.5,37.02 38.18,38.54 37.77,22.71 37.36,6.88 35.84,9.77 23.87,9.63 z" id="path3084" style="color:#000000;fill:#34241b;stroke-width:0.5" />
<path d="m 22.89,16.86 c -2.42,2.23 -4.90,4.40 -7.15,6.81 0.01,0.69 0.02,1.39 0.03,2.09 2.43,2.58 4.70,5.32 7.28,7.78 0.59,0.06 1.18,0.12 1.78,0.18 1.88,-1.43 3.34,-3.32 5.02,-4.98 0.75,-0.79 1.54,-1.56 2.19,-2.45 -0.10,-0.73 0.31,-1.65 -0.28,-2.20 -2.15,-2.45 -4.41,-4.82 -6.68,-7.16 -0.72,-0.14 -1.45,-0.03 -2.18,-0.06 z m 1,3.15 c 1.70,1.75 3.39,3.52 5,5.37 -1.51,1.65 -3.04,3.28 -4.62,4.87 -1.06,-0.51 -1.59,-1.64 -2.48,-2.37 -0.96,-1.04 -1.92,-2.10 -2.89,-3.15 1.61,-1.62 3.30,-3.18 5,-4.71 z" id="path3908" style="fill:#91671b;" />
<path d="m 32.46,6.65 c -2.2,0 -5.01,0.19 -8.62,0.15 C 5.69,7.44 7.41,9.43 7.43,22.34 c 4.73,1.44 10.15,2.28 15.94,2.28 6.31,0 12.17,-0.99 17.18,-2.68 C 40.17,8.24 38.98,6.64 32.46,6.65 z" id="path3103" style="color:#000000;fill:#615149;fill-opacity:0.12;stroke-width:0.5" />
<path d="m 37.22,13.26 a 4.03,2.49 25.14 1 1 -7.3,-3.43 4.03,2.49 25.14 1 1 7.3,3.43 z" id="path3836" style="color:#000000;fill:#bd7d3f;fill-opacity:0.18;stroke-width:1.5" />
<path d="m 14.06,35.47 a 2.84,1.44 53.51 0 1 -3.38,-4.57 2.84,1.44 53.51 0 1 3.38,4.57 z" id="path3838" style="color:#000000;fill:#bd7d3f;fill-opacity:0.18;stroke-width:1.5" />
<path d="m 19.23,36.61 a 1.89,0.98 5.54 1 1 -3.76,-0.36 1.89,0.98 5.54 1 1 3.76,0.36 z" id="path3840" style="color:#000000;fill:#bd7d3f;fill-opacity:0.18;stroke-width:1.5" />
<path d="M 23.84,6.81 C 4.93,7.47 7.58,9.46 7.42,23.89 7.25,38.31 8.74,40.47 24.5,40.14 40.25,39.81 41.08,41.63 40.58,22.56 40.09,3.49 38.26,6.97 23.84,6.81 z" id="path2994" style="color:#000000;fill:none;stroke:#000000;stroke-width:0.5" />
</svg>
