<?xml version="1.0" encoding="UTF-8" standalone="no"?>
<!-- Created with Inkscape (http://www.inkscape.org/) -->
<svg xmlns:dc="http://purl.org/dc/elements/1.1/" xmlns:cc="http://creativecommons.org/ns#" xmlns:rdf="http://www.w3.org/1999/02/22-rdf-syntax-ns#" xmlns:svg="http://www.w3.org/2000/svg" xmlns="http://www.w3.org/2000/svg" version="1.1" width="100%" height="100%" viewBox="0 0 48 48" id="svg2985">
<defs id="defs2987" />
<metadata id="metadata2990">
<rdf:RDF>
<cc:Work rdf:about="">
<dc:format>image/svg+xml
</dc:format>
<dc:type rdf:resource="http://purl.org/dc/dcmitype/StillImage" />
<dc:title>
</dc:title>
</cc:Work>
</rdf:RDF>
</metadata>
<path d="M 23.84,6.81 C 4.93,7.47 7.58,9.46 7.42,23.89 7.25,38.31 8.74,40.47 24.5,40.14 40.25,39.81 41.08,41.63 40.58,22.56 40.09,3.49 38.26,6.97 23.84,6.81 z" id="path3065" style="color:#000000;fill:#2a1910;stroke-width:0.5" />
<path d="M 23.87,9.63 C 8.18,10.18 10.38,11.83 10.24,23.81 10.1,35.78 11.34,37.57 24.42,37.3 37.5,37.02 38.18,38.54 37.77,22.71 37.36,6.88 35.84,9.77 23.87,9.63 z" id="path3084" style="color:#000000;fill:#34241b;stroke-width:0.5" />
<path d="m 17.34,13 c -0.98,0.14 -1.97,0.29 -2.96,0.43 0.82,5.88 1.18,11.81 1.24,17.75 -0.74,1.93 4.12,2.67 2.99,0.15 0.05,-3.04 -0.18,-6.09 -0.34,-9.13 1.66,-0.99 3.46,-2.62 5.24,-2.91 1.67,0.88 3.35,1.77 5.03,2.66 -0.11,3.54 -0.40,7.09 0.01,10.63 1.66,0.58 3.58,-0.68 2.83,-2.52 -0.18,-4.66 0.29,-9.33 0.32,-13.98 0.83,-1.82 -0.93,-3.14 -2.58,-2.37 -1.75,1.02 -3.62,1.85 -5.36,2.92 -1.39,0.28 -2.50,-0.91 -3.74,-1.42 C 19.19,14.75 18.33,14.30 17.46,13.84 17.42,13.56 17.38,13.28 17.34,13 z M 28.75,16.25 c 0.10,1.51 0.13,4.31 -2.01,2.50 C 25.32,18.45 25.49,17.49 26.84,17.24 27.47,16.90 28.11,16.57 28.75,16.25 z m -10.96,0.03 c 1.13,0.59 2.27,1.18 3.40,1.78 -1.07,0.42 -3.43,2.81 -3.23,0.16 -0.03,-0.65 -0.04,-1.30 -0.16,-1.95 z" id="path3933" style="font-size:medium;font-style:normal;font-variant:normal;font-weight:normal;font-stretch:normal;text-indent:0;text-align:start;text-decoration:none;line-height:normal;letter-spacing:normal;word-spacing:normal;text-transform:none;direction:ltr;block-progression:tb;writing-mode:lr-tb;text-anchor:start;baseline-shift:baseline;color:#000000;fill:#91671b;stroke-width:3;font-family:Sans;-inkscape-font-specification:Sans" />
<path d="m 32.46,6.65 c -2.2,0 -5.01,0.19 -8.62,0.15 C 5.69,7.44 7.41,9.43 7.43,22.34 c 4.73,1.44 10.15,2.28 15.94,2.28 6.31,0 12.17,-0.99 17.18,-2.68 C 40.17,8.24 38.98,6.64 32.46,6.65 z" id="path3103" style="color:#000000;fill:#615149;fill-opacity:0.12;stroke-width:0.5" />
<path d="m 37.22,13.26 a 4.03,2.49 25.14 1 1 -7.3,-3.43 4.03,2.49 25.14 1 1 7.3,3.43 z" id="path3836" style="color:#000000;fill:#bd7d3f;fill-opacity:0.18;stroke-width:1.5" />
<path d="m 14.06,35.47 a 2.84,1.44 53.51 0 1 -3.38,-4.57 2.84,1.44 53.51 0 1 3.38,4.57 z" id="path3838" style="color:#000000;fill:#bd7d3f;fill-opacity:0.18;stroke-width:1.5" />
<path d="m 19.23,36.61 a 1.89,0.98 5.54 1 1 -3.76,-0.36 1.89,0.98 5.54 1 1 3.76,0.36 z" id="path3840" style="color:#000000;fill:#bd7d3f;fill-opacity:0.18;stroke-width:1.5" />
<path d="M 23.84,6.81 C 4.93,7.47 7.58,9.46 7.42,23.89 7.25,38.31 8.74,40.47 24.5,40.14 40.25,39.81 41.08,41.63 40.58,22.56 40.09,3.49 38.26,6.97 23.84,6.81 z" id="path2994" style="color:#000000;fill:none;stroke:#000000;stroke-width:0.5" />
</svg>
