<?xml version="1.0" encoding="UTF-8" standalone="no"?>
<!-- Created with Inkscape (http://www.inkscape.org/) -->
<svg xmlns:dc="http://purl.org/dc/elements/1.1/" xmlns:cc="http://creativecommons.org/ns#" xmlns:rdf="http://www.w3.org/1999/02/22-rdf-syntax-ns#" xmlns:svg="http://www.w3.org/2000/svg" xmlns="http://www.w3.org/2000/svg" version="1.0" width="100%" height="100%" viewBox="0 0 48 48" id="svg2">
<defs id="defs7" />
<path d="m 7.89,46.60 c -0.24,-1.46 1.56,-1.91 2.67,-2.91 1.94,-1.68 4.10,-3.25 5.65,-5.29 -1.95,-0.35 -3.68,1.35 -5.04,1.69 1.11,-1.84 -1.93,-3.36 -0.81,-5.41 -0.30,-1.67 0.61,-3.30 0.73,-4.94 0.89,-1.55 3.10,-1.90 4.69,-2.31 1.78,0.07 3.02,2.04 3.13,3.11 2.09,0.56 0.21,-2.94 -0.70,-3.51 -1.30,-1.38 -2.63,-1.09 -4.22,-0.78 -1.54,-0.10 -2.32,-1.59 -3.36,-1.92 C 9.24,23.13 8.31,20.71 6.14,21.03 5.89,19.99 8.08,20.27 6.91,19.38 8.44,18.96 6.19,17.01 8.22,17.58 c 1.24,0.74 0.22,-1.86 1.54,-0.52 0.16,-0.79 1.31,-2.35 0.94,-0.75 0.45,1.78 2.58,2.31 3.50,3.82 0.50,0.55 0.65,1.36 1.01,0.51 0.43,1.44 2.25,2.86 1.17,4.61 1.55,0.77 3.41,1.74 3.73,3.69 0.20,1.19 0.01,2.13 1.58,1.62 1.50,-1.39 0.97,-2.80 -0.05,-4.25 -0.45,-1.91 2.04,-3.20 3.61,-2.37 0.98,-1.05 1.13,-3.07 0.62,-4.48 -0.62,-0.94 -3.77,-1.70 -3.88,-0.20 -0.08,2.00 -3.10,2.11 -4.15,1.70 0.26,-1.48 0.95,-4.19 3.02,-3.06 1.21,0.74 2.98,-0.68 4.36,0.43 0.95,0.71 1.53,1.23 1.43,-0.34 0.32,-1.33 -2.21,0.58 -2.43,-1.16 -1.13,-0.99 -0.48,-2.36 -1.98,-3.00 -0.74,-1.03 -1.47,-1.98 -1.44,-3.32 -0.62,-1.54 0.36,-3.01 0.50,-4.56 0.46,-1.12 0.79,-3.34 0.55,-4.17 1.53,0.84 3.79,0.45 4.78,2.14 1.84,0.15 2.58,2.32 3.06,3.82 1.57,1.46 -0.05,3.19 -0.45,4.56 0.22,1.02 0.07,2.71 1.49,1.79 1.13,0.45 2.17,-2.04 0.30,-1.33 -1.04,0.05 -2.05,0.78 -1.47,-0.77 0.60,-1.94 2.69,-2.84 4.40,-3.67 1.89,0.08 3.92,0.23 5.78,0.77 -0.97,0.84 -1.12,2.45 -1.45,3.71 -0.81,0.92 -0.67,2.43 -1.89,3.02 -0.78,1.15 -2.37,2.30 -3.87,1.97 1.15,-0.08 3.27,-1.16 4.23,-2.54 1.10,-1.52 1.43,-3.37 1.99,-5.11 0.27,-0.88 1.19,-1.12 -0.21,-1.13 -1.90,0.00 -3.94,-1.12 -5.68,0.06 -1.10,0.80 -2.75,1.38 -3.10,2.89 -0.50,1.38 1.60,0.52 2.11,0.34 0.12,-0.82 -0.33,-2.94 0.24,-1.00 -0.13,1.22 0.59,1.93 -0.42,2.91 1.71,-1.05 2.38,-2.81 2.00,-4.80 0.63,0.22 -0.18,3.05 0.67,0.80 1.65,-2.60 -1.94,3.56 0.18,1.42 1.20,-0.32 1.08,-2.03 1.28,-2.56 0.24,1.01 -0.58,2.29 0.94,1.06 0.56,-0.54 2.55,-0.90 0.83,-0.13 -2.12,0.89 -3.73,2.60 -5.41,4.11 1.40,0.24 2.51,1.37 4.08,0.41 1.51,-0.22 -2.34,0.73 0.00,0.52 -0.85,0.60 -3.01,-0.89 -2.74,0.81 1.27,0.01 0.72,0.33 -0.13,0.14 0.05,0.67 2.77,0.38 0.82,0.63 -0.87,-0.68 -1.76,0.44 -0.28,0.30 0.49,0.30 -1.99,-0.32 -1.86,0.99 -1.38,1.62 -3.35,-0.81 -4.22,1.25 -0.73,1.59 -0.75,3.50 -1.62,5.09 -0.31,1.65 3.02,-0.01 1.56,-1.15 -0.04,-1.67 1.59,-2.15 2.16,-2.68 0.68,-0.67 3.56,-2.54 3.60,-1.06 1.50,-0.15 -0.92,2.51 -1.38,3.15 -0.81,0.57 -1.58,1.25 -0.19,0.43 0.59,-0.71 1.59,-1.15 0.45,-0.15 -0.65,0.42 -1.42,1.05 -0.18,0.35 0.49,-0.37 1.75,-1.51 0.68,-0.27 -0.63,0.39 -1.88,1.20 -0.41,0.57 1.12,-0.46 2.17,-2.54 2.01,-3.17 -1.08,0.68 -0.21,-1.19 -0.16,-0.12 2.12,-0.86 -2.12,3.44 0.18,2.56 1.96,0.64 3.45,1.78 5.35,2.55 0.64,1.17 2.05,2.32 2.51,3.22 -1.51,-0.82 -3.31,-0.11 -4.78,0.55 -1.63,0.22 -3.08,1.56 -4.78,1.03 -1.68,0.63 -3.88,-0.12 -4.74,-1.74 0.50,0.12 1.46,1.63 2.57,1.57 1.93,-0.03 4.04,0.43 5.71,-0.88 1.30,-0.02 3.46,-0.80 1.42,-1.97 -0.51,-0.83 -3.16,-1.07 -3.05,-0.79 0.75,0.68 2.35,1.40 2.67,2.02 -0.71,-0.47 -1.38,-0.86 -0.53,0.25 -0.98,-1.30 -2.76,-3.10 -4.84,-2.43 1.20,0.70 2.53,2.10 3.44,2.71 -0.67,-0.18 -1.21,-0.84 -0.71,0.20 -0.98,-1.24 -2.27,-3.20 -4.18,-2.92 -1.49,0.01 -1.32,0.27 -0.12,0.98 0.63,1.20 2.50,1.68 3.16,2.32 -0.93,-0.16 -2.50,-1.52 -1.22,0.11 -0.49,-0.49 -1.78,-2.27 -2.09,-2.16 0.32,1.04 -0.25,1.36 -0.11,0.15 0.11,-1.09 -2.63,-1.86 -2.07,-0.34 -0.11,1.66 -1.67,2.78 -1.62,4.32 -1.33,0.07 -2.83,-3.78 -3.47,-1.05 -0.47,0.66 0.76,1.34 -0.39,1.98 -0.22,1.92 -1.33,3.28 -2.91,4.31 -1.69,0.48 -2.43,2.16 -3.63,3.42 -2.26,2.49 -4.94,4.62 -7.78,6.42 -0.15,-0.06 -0.35,0.05 -0.48,-0.05 z m 0.48,-0.16 c 3.19,-2.11 6.28,-4.52 8.65,-7.56 0.42,-0.62 1.36,-1.83 0.16,-0.86 -0.49,-0.20 -1.82,2.08 -2.80,2.67 -1.92,1.76 -3.92,3.50 -6.14,4.91 0.26,0.42 0.00,0.55 0.13,0.84 z m 3.32,-6.58 c 1.25,-1.90 3.85,-0.96 5.33,-2.31 1.80,-0.29 3.08,-1.28 4.50,-2.42 1.19,-1.42 0.26,-2.89 -0.14,-4.29 -2.61,-0.22 0.58,2.38 -0.30,3.58 -0.08,-0.87 -0.29,-2.31 -0.35,-0.53 -0.25,-0.89 -0.16,-3.82 -1.96,-2.93 -0.85,1.83 1.24,3.55 0.45,5.35 -0.23,0.41 0.13,-2.85 -0.48,-2.16 0.03,0.82 -0.91,2.92 -0.39,0.96 0.65,-1.34 -0.17,-3.36 0.22,-4.38 -1.80,-0.02 -1.95,1.77 -1.41,3.10 0.35,0.60 0.77,3.23 0.35,2.75 0.10,-1.54 -0.11,-0.30 -0.51,0.05 0.85,-1.46 -0.31,-2.91 -0.29,-4.44 0.70,-2.11 -2.26,0.83 -1.26,1.89 0.47,0.71 0.41,3.49 -0.01,2.98 0.49,-0.73 0.08,-2.89 -0.18,-0.86 0.08,-0.72 0.15,-3.02 -0.13,-3.44 -1.72,1.19 -0.62,3.00 -0.22,4.51 -0.29,1.97 -0.31,-1.80 -0.87,-2.27 -0.14,-1.15 -0.98,1.79 -0.89,2.25 0.40,0.96 -0.40,1.45 -0.09,0.10 -0.38,0.54 -1.10,1.94 -1.31,2.50 z m 0.16,-0.79 c 0.50,-0.94 1.97,-3.75 -0.23,-2.14 -1.13,0.50 1.09,-0.96 1.49,-0.80 1.10,-2.00 -0.91,-1.01 -1.33,-0.52 1.14,-1.17 0.16,-0.66 -0.48,0.13 0.04,-1.68 3.21,-0.39 2.72,-2.42 -0.61,-0.90 -4.02,1.11 -1.98,-0.12 1.29,-0.81 2.50,0.81 3.03,-1.01 0.90,-1.57 -2.49,-0.79 -3.00,-0.29 0.89,-0.45 2.05,-1.14 0.32,-0.68 -2.28,0.75 1.28,-0.94 2.06,-0.16 0.68,0.77 2.50,0.66 2.23,-0.53 -0.80,-1.72 -3.08,-0.59 -3.68,-0.46 0.86,-0.51 2.40,-0.86 0.48,-0.84 -1.11,0.45 -1.53,0.11 -0.14,-0.17 1.43,-0.19 2.94,1.29 2.70,-0.51 -0.74,1.82 2.69,3.18 1.96,0.82 -0.89,-1.91 -3.23,-2.08 -4.75,-0.82 -2.58,0.09 -1.93,2.78 -2.59,4.33 -0.22,1.50 -0.45,3.25 0.29,4.63 0.36,0.44 0.63,1.28 0.91,1.60 z m -0.39,-3.20 c 0.05,-0.44 0.41,0.26 0,0 z m -0.31,-1.67 c 0.61,-1.12 0.51,0.21 0,0 z m 3.82,-1.55 c 0.80,-0.65 1.19,-1.28 0.08,-0.23 -0.20,0.17 -0.49,0.70 -0.08,0.23 z m 1.09,-0.97 c 0.23,-0.27 -0.32,0.21 0,0 z m 6.23,1.08 c 1.43,-0.74 0.20,-2.38 -0.82,-1.73 0.17,0.52 0.78,1.54 0.82,1.73 z M 17.40,30.90 c 1.71,-0.58 -0.91,0.00 2e-6,2e-6 l -2e-6,-2e-6 z m 1.01,-0.41 c 0.85,-0.90 -1.81,-3.05 -0.29,-1.28 0.41,0.27 0.03,1.18 0.29,1.28 z m 1.73,0.20 c 0.23,-2.26 -1.38,-4.43 -3.56,-5.02 -1.31,-0.37 1.42,0.71 1.70,1.13 1.23,0.96 1.72,2.59 1.85,3.88 z m 2.48,0.11 c 0.63,-0.95 0.97,-1.72 0.38,-2.02 0.04,0.76 -1.90,1.96 -0.38,2.02 z m 0.47,-1.86 c 0.08,-0.16 0.02,0.16 0,0 z m 3.19,2.43 c 0.14,-1.73 2.37,-3.26 1.36,-5.15 -0.41,-0.69 -1.23,-0.46 -0.33,0.13 -0.42,-0.23 -1.42,-0.70 -0.72,-0.72 -0.39,-0.77 -1.90,-2.11 -0.64,-0.44 0.48,1.30 -0.45,2.57 0.86,3.33 0.35,1.34 -1.15,-1.84 -1.04,0.16 -0.07,0.62 -0.01,2.20 -0.28,0.67 0.11,-1.18 1.21,-3.86 -1.06,-2.59 -0.59,0.76 -1.69,1.90 -0.59,0.32 0.74,-0.89 3.38,-0.76 1.44,-1.89 -1.05,-0.72 -3.38,2.80 -1.79,0.44 0.52,-1.17 3.43,-0.10 1.45,-1.09 -0.80,-0.89 -3.87,1.59 -1.98,-0.01 0.63,-0.81 3.58,0.43 1.56,-0.51 -1.40,-0.56 -3.35,1.16 -2.45,2.55 0.67,1.94 2.41,2.95 3.75,4.41 0.20,-0.05 0.26,0.54 0.47,0.39 z m -2.15,-3.14 c 0.19,-0.92 2.56,-0.71 0.76,-0.39 -0.23,-0.06 -0.56,0.63 -0.76,0.39 z m 3.07,-0.67 c 0.12,-0.78 -1.81,-1.25 -0.24,-0.88 0.15,0.04 0.70,0.98 0.24,0.88 z m -13.32,-1.57 c 2.11,0.59 3.37,-2.08 2.09,-3.61 -0.56,-0.78 -1.23,-1.49 -0.91,-0.04 0.05,0.99 0.93,2.43 -0.56,1.12 -0.95,-0.02 -2.70,-0.38 -1.41,0.97 0.07,0.69 1.78,1.85 0.26,0.94 -1.01,-1.91 -2.74,-0.52 -0.35,0.32 0.29,0.10 0.58,0.23 0.89,0.30 z m 1.12,-0.62 c 0.21,-0.60 0.44,0.31 0,0 z m -1.47,-0.50 c -0.55,-1.00 0.70,0.03 0,0 z m 0.55,0.14 c -0.04,-0.61 0.53,0.43 0,0 z m 0.24,-0.22 c -0.04,-0.47 0.34,0.27 0,0 z m -0.01,-1.05 c 0.02,-0.33 0.33,0.20 0,0 z m -2.79,0.64 c -0.25,-0.15 -2.85,-3.10 -1.08,-1.31 0.48,0.75 2.63,1.75 1.00,0.45 -0.88,-0.52 -2.49,-3.10 -0.79,-1.02 0.51,0.74 3.19,2.66 1.42,0.86 -0.86,-0.44 -1.88,-2.11 -0.39,-0.56 0.66,0.70 1.87,0.58 0.48,-0.19 -0.66,-0.42 -2.73,-2.94 -1.02,-1.28 0.50,0.63 2.49,2.40 2.36,1.75 -1.29,-0.75 -2.09,-2.25 -3.33,-3.13 -0.73,-0.48 -1.91,-1.98 -0.36,-0.60 1.46,1.06 2.45,2.69 3.95,3.66 -0.14,-0.80 -2.67,-2.66 -2.10,-2.66 1.40,0.85 1.88,2.79 3.34,3.21 0.69,0.01 -1.05,-1.86 -0.69,-0.39 0.02,-1.04 -2.44,-2.64 -1.98,-2.75 0.68,0.27 2.73,3.24 1.69,1.26 -0.51,-0.73 -3.18,-3.35 -1.13,-1.57 0.79,0.29 2.71,4.05 1.66,1.57 -0.40,-0.64 -2.05,-2.68 -0.53,-1.07 1.45,1.59 -1.27,-2.24 -2.23,-2.41 -1.17,-0.41 -1.22,-3.38 -1.80,-0.96 1.34,2.43 -1.95,-0.19 -2.45,0.81 0.06,1.04 2.67,2.49 0.29,2.31 -0.88,-0.34 -2.16,0.69 -0.48,0.60 1.85,0.53 2.33,2.81 4.07,3.44 l 0.16,0.00 10e-6,6e-6 z m 16.55,1.95 c -0.17,-0.19 1.77,-0.75 2.09,-1.06 -0.69,0.59 -1.45,0.97 -0.02,0.70 0.92,0.43 2.70,-2.13 2.48,-1.36 -1.71,1.60 2.39,-1.80 0.32,0.07 0.71,-0.33 2.91,-0.21 0.80,-0.00 -0.65,0.22 -2.83,1.11 -2.41,1.23 1.81,0.52 3.63,-0.86 4.69,-1.61 -1.49,1.17 0.25,0.15 0.82,0.48 -1.06,0.15 -4.58,1.41 -1.67,1.24 0.69,0.46 3.39,-1.82 2.02,-0.52 2.51,-0.16 -3.01,0.62 -0.18,0.70 0.87,0.65 2.09,-0.12 2.63,-0.13 -1.03,0.39 -1.30,0.79 -0.00,0.96 2.44,0.88 -1.12,-0.07 -1.82,-0.39 -0.94,-0.44 1.14,1.63 1.50,1.50 0.98,-0.15 2.21,-0.22 2.98,0.11 -1.80,-1.09 -2.47,-3.45 -4.78,-3.78 -1.04,-0.82 -2.93,-1.75 -4.16,-1.30 -1.24,0.80 -2.31,2.42 -4.13,1.74 -0.54,-0.58 -2.14,1.25 -1.16,1.43 z M 7.89,20.08 c 2.20,0.19 -1.78,-1.77 -0.29,-0.09 l 0.09,0.06 0.20,0.02 -3.3e-6,3.2e-5 z m 19.79,5.60 c 0.55,-0.79 -1.05,0.25 7e-6,2e-6 l -7e-6,-2e-6 z m -0.71,-0.21 c 1.15,0.04 2.73,-2.19 0.82,-0.72 -0.08,0.33 -2.13,0.56 -0.82,0.72 z M 14.88,21.67 c -0.16,-1.61 -0.30,0.29 0,0 z M 7.67,18.99 c -0.13,-0.09 -0.04,0.08 0,0 z m 18.39,5.27 c 0.71,-1.50 1.04,-3.14 1.37,-4.75 0.57,-0.66 2.11,-2.46 0.48,-1.02 -1.45,2.31 -0.42,-1.48 -0.93,-2.39 -0.18,-1.08 -0.60,-1.93 -0.26,-0.28 0.06,0.82 0.55,3.97 -0.47,3.43 -1.21,-1.20 -3.35,-1.54 -4.80,-0.70 1.36,-0.27 3.76,-0.56 4.92,1.05 0.64,1.03 -0.78,-0.80 -0.05,0.61 0.56,1.41 -0.75,3.04 -0.46,4.15 0.06,0.11 0.25,0.04 0.21,-0.09 z m 3.88,0.51 c 1.38,0.29 3.00,-1.32 0.72,-1.01 -0.99,-0.05 1.43,-2.05 -0.35,-1.24 -1.49,1.05 -1.46,-0.40 -1.11,-1.36 -0.77,0.30 -1.66,2.59 -0.63,1.21 -1.00,1.26 0.30,2.19 1.14,0.80 1.90,-0.80 -2.69,1.44 0.23,1.59 z M 18.21,21.04 c -0.27,-1.00 2.62,-2.67 0.88,-1.25 -1.15,1.56 1.51,-1.11 2.22,-0.94 -0.34,0.49 -2.73,1.48 -2.50,2.02 0.95,-0.13 3.13,-0.64 2.83,-1.62 -0.18,0.93 -3.10,1.60 -1.02,0.70 2.36,-1.10 -0.90,-2.95 -1.71,-0.98 -0.35,-0.60 2.37,-1.52 0.38,-0.91 -0.85,0.50 -1.11,2.40 -1.08,3.00 z m 0.55,-1.61 c 0.35,-1.12 3.64,-1.33 1.33,-0.60 -0.55,-0.12 -0.93,0.67 -1.33,0.60 z m 0.87,1.50 c 0.95,0.14 2.75,-1.41 0.95,-0.31 -0.13,-0.04 -1.57,0.21 -0.95,0.31 z M 9.22,17.78 c 1.93,0.50 -0.94,-1.76 -3.42e-5,5e-6 l 3.42e-5,-5e-6 z m 21.57,5.71 c 0.04,-0.33 -0.31,0.08 0,0 z m 0.14,-0.20 c 1.29,-0.60 2.97,-2.90 2.71,-3.72 -1.41,0.70 -2.89,1.60 -3.77,2.92 0.52,-0.18 1.54,-1.33 0.75,-0.26 1.13,-0.41 0.56,0.24 0.54,0.55 0.79,-0.67 2.12,-1.65 0.62,-0.24 -0.00,0.09 -1.50,0.83 -0.87,0.75 z m -1.50,-0.63 c 0.90,-1.55 2.88,-2.33 4.01,-3.48 -1.23,-0.28 -3.51,1.21 -4.23,2.61 0.19,-0.42 3.11,-2.41 1.08,-0.80 -0.69,0.40 -1.46,1.99 -0.37,0.58 1.54,-1.31 -0.15,0.42 -0.64,0.94 -0.13,0.09 0.05,0.28 0.15,0.14 z m -1.94,-3.92 c 0.90,-0.67 1.33,-1.87 -0.17,-1.54 0.17,0.25 -0.21,2.04 0.17,1.54 z m -1.87,-1.25 c 1.60,0.00 1.10,-1.47 -0.26,-1.21 -1.09,-0.06 -1.44,-2.45 -0.54,-0.55 0.77,0.97 2.48,0.54 1.53,-0.64 -1.35,0.70 -2.73,-2.66 -1.34,-0.58 2.15,1.50 1.08,-1.41 1.08,-2.57 -0.21,-0.96 0.26,-2.88 0.16,-0.78 -0.22,1.35 0.68,2.26 1.17,0.53 0.67,-0.98 -0.45,1.45 -0.87,1.51 -0.15,1.50 0.71,2.18 1.49,0.57 0.38,-0.84 1.07,-2.10 0.44,-0.32 -0.39,1.03 -2.44,1.88 -1.02,2.75 0.76,-0.44 2.15,-2.34 0.91,-0.48 -0.76,0.32 -1.72,1.54 -0.28,1.28 1.57,-0.60 1.74,-2.87 0.85,-4.04 0.34,-1.77 -1.82,-2.21 -2.80,-3.37 -0.31,-1.12 -0.82,1.41 -1.49,1.65 -0.20,1.43 -1.33,2.26 -0.95,3.91 -0.64,1.27 2.14,1.88 0.94,1.98 0.29,0.19 0.61,0.42 0.98,0.37 z m -0.04,-4.34 c -0.81,-0.39 -1.29,-2.11 -0.31,-0.50 0.20,0.23 1.45,0.86 0.31,0.50 z m 4.56,5.27 c 1.97,0.02 3.08,-1.90 3.54,-3.60 -0.94,-0.41 -4.00,-1.07 -4.00,0.39 -0.08,1.78 -2.92,1.91 0.45,3.20 z M 29.43,16.39 c 0.38,-0.85 4.84,-1.48 1.97,-0.71 -0.70,0.09 -1.32,0.58 -1.97,0.71 z m -5.80,-1.88 c -0.10,-0.52 -1.52,-0.85 -0.19,-0.57 0.75,-1.27 -0.62,-1.01 -1.07,-1.55 1.62,1.00 2.05,-0.44 2.37,-1.68 -0.65,0.16 -3.20,-0.32 -2.63,-0.53 1.54,0.74 0.64,-0.26 0.58,-1.06 0.17,1.96 3.48,1.89 2.44,-0.35 C 24.63,8.09 22.59,9.02 24.09,8.27 23.29,8.05 20.71,7.42 23.00,7.79 23.76,8.48 22.54,5.39 23.18,6.69 22.95,8.01 25.99,9.32 24.78,7.19 25.41,5.35 20.51,5.72 23.11,5.41 22.57,4.61 22.77,3.40 23.14,4.96 c 0.31,1.23 1.98,1.07 0.89,-0.29 -0.48,-0.81 -2.41,-2.90 -0.54,-1.14 1.09,0.58 1.11,4.20 2.09,1.72 0.77,-2.33 0.25,0.94 -0.65,1.26 0.24,1.04 0.50,3.16 1.60,1.32 0.39,-0.71 1.73,-3.74 0.79,-1.40 -0.67,1.63 1.29,-2.23 0.39,-0.05 -0.81,1.29 -2.70,2.91 -0.31,3.72 0.75,-0.54 1.48,-3.58 0.86,-1.12 0.48,-0.40 1.02,-2.18 0.60,-0.41 -0.81,0.80 -1.99,2.39 -0.27,2.46 0.50,-0.79 1.51,-2.23 0.55,-0.41 -1.27,1.89 1.65,0.07 0.99,-1.28 C 29.60,7.53 28.87,5.42 27.30,4.26 25.75,3.40 24.06,2.34 22.17,2.20 c 0.27,1.89 -0.86,3.49 -0.94,5.26 -0.02,1.10 -1.00,2.39 0.01,3.54 -0.27,1.26 1.30,3.10 2.38,3.49 z m 2.87,-0.69 c -0.15,-0.12 0.07,0.30 0,0 z m -0.06,-0.46 c -0.10,-0.18 -0.05,0.18 -3e-5,0 l 3e-5,0 z M 25.46,9.73 c 0.02,-1.56 -0.38,-0.86 0,0 z m 0.21,-0.36 c 0.64,-1.16 -0.54,-0.25 0,0 z M 25.32,8.60 c -0.13,-1.31 -0.41,-0.42 0,0 z m 8.93,4.44 c -0.88,-0.75 1.71,0.64 2.17,-0.02 1.42,-0.48 0.81,0.19 -0.18,0.26 1.75,0.22 -0.29,0.29 -0.89,0.08 -0.36,-0.08 -0.73,-0.18 -1.09,-0.31 z m 1.40,-1.67 c 0.70,-0.31 3.09,0.84 0.83,0.26 -0.25,-0.16 -0.57,-0.12 -0.83,-0.26 z" />
</svg>
