<?xml version="1.0" encoding="UTF-8" standalone="no"?>
<!-- Created with Inkscape (http://www.inkscape.org/) -->
<svg xmlns:dc="http://purl.org/dc/elements/1.1/" xmlns:cc="http://creativecommons.org/ns#" xmlns:rdf="http://www.w3.org/1999/02/22-rdf-syntax-ns#" xmlns:svg="http://www.w3.org/2000/svg" xmlns="http://www.w3.org/2000/svg" version="1.0" width="100%" height="100%" viewBox="0 0 48 48" id="svg2">
<defs id="defs7" />
<path d="m 36.39,45.63 c -1.40,-1.59 -3.95,-1.38 -5.16,-3.24 -0.94,-0.90 -2.11,-2.79 -3.03,-3.03 -0.25,-1.55 -0.05,0.08 -0.27,-0.25 -0.14,-0.21 -0.26,0.39 -0.33,-0.18 -0.64,0.67 -0.09,-0.49 -0.62,0.08 0.87,-1.16 -1.05,0.60 -0.05,-0.73 0.48,-0.45 -0.71,0.19 -0.43,-0.23 -1.80,-1.02 -1.25,1.89 -1.35,2.96 -0.25,1.51 0.98,3.07 0.78,4.35 -0.56,-1.73 -1.16,-3.49 -0.99,-5.36 -0.17,-0.74 0.75,-3.11 -0.12,-1.94 -0.04,-0.92 -1.40,-3.20 -0.77,-1.03 -0.15,0.69 -1.87,-3.22 -1.24,-1.03 0.41,0.73 0.93,1.20 0.16,1.22 1.98,1.00 1.05,3.65 1.58,5.43 0.08,0.63 0.68,2.79 0.31,2.57 -0.41,-1.70 -0.65,-3.42 -0.79,-5.18 -1.26,-0.57 -1.48,-2.29 -2.52,-2.91 -1.04,1.62 -2.32,3.34 -4.35,3.73 C 15.29,41.18 13.46,40.41 11.61,40.27 9.29,39.93 8.52,37.30 8.62,35.30 9.30,33.99 7.52,32.40 8.32,31.34 c 1.92,-0.07 3.92,0.21 5.89,0.26 0.90,0.22 2.35,0.02 1.81,-0.33 -1.14,-0.65 0.85,0.26 -0.30,-0.46 1.17,0.20 0.66,0.18 0.18,-0.41 0.99,0.92 -0.35,-0.89 0.52,-0.05 0.76,1.02 -0.68,-1.49 0.36,0.09 -0.32,-0.97 0.11,-0.43 0.29,-0.43 -0.21,-1.47 0.53,1.31 0.33,-0.42 0.27,-0.28 0.32,0.90 0.52,-0.18 0.13,0.66 0.47,-0.43 0.38,0.76 0.63,-1.24 0.15,0.17 0.41,-0.07 0.91,-1.17 -0.35,1.52 0.58,0.28 -0.15,0.76 0.50,-0.65 0.37,0.53 0.87,-1.25 0.42,0.56 1.31,-0.17 -0.38,0.31 -0.80,0.67 0.06,0.34 -0.42,0.47 -1.01,0.86 0.03,0.35 -0.32,0.60 1.10,-0.54 1.82,-0.21 -0.22,-3.21 -1.07,-6.38 -1.26,-9.58 -0.59,1.05 -0.43,3.47 -2.34,3.79 -1.42,0.60 -3.38,0.38 -4.31,1.82 -0.73,0.30 -0.36,-2.41 0.47,-2.97 1.12,-1.54 2.98,-3.52 5.09,-2.80 2.22,0.04 0.42,-2.75 -0.67,-3.19 -2.19,-1.18 -4.65,-1.71 -7.04,-2.34 -1.26,-0.51 -2.62,-2.47 -1.81,-3.42 1.26,1.56 3.39,0.95 5.14,1.27 0.86,0.10 1.92,0.40 2.02,0.14 1.01,1.18 -0.38,-1.51 0.75,-0.03 0.21,-0.09 0.23,0.21 -0.05,-0.62 0.71,1.28 0.26,-0.88 0.81,0.36 0.54,-1.40 0.83,1.19 1.06,-0.09 0.48,0.47 -0.83,2.29 0.19,0.77 0.63,-1.52 -0.13,1.84 0.49,-0.03 0.03,0.31 0.25,1.14 -0.51,1.35 1.13,0.32 0.55,-1.37 1.27,-1.12 0.55,-0.43 -0.10,-2.56 0.24,-3.58 0.72,-1.56 1.34,-3.37 0.18,-4.87 -0.32,0.36 -2.59,1.74 -3.91,1.62 -1.13,-0.05 -4.04,-1.71 -1.45,-1.98 1.02,0.10 2.46,-0.03 3.26,0.18 -1.32,0.47 -3.27,-0.63 -4.22,0.48 1.23,1.08 3.66,1.84 4.69,0.15 C 20.65,5.99 22.75,6.31 21.02,6.12 20.25,5.97 22.04,5.52 20.55,5.63 20.04,5.17 20.89,5.45 20.20,4.79 21.99,5.61 19.23,3.68 20.66,4.48 c -0.99,-0.88 1.33,0.51 0.06,-0.44 -0.95,-1.05 1.28,0.59 0.00,-0.74 0.56,0.26 0.73,0.75 0.46,-0.31 0.96,1.41 -0.03,-1.54 0.70,0.26 0.55,1.17 -0.28,-1.80 0.42,-0.14 0.02,-1.79 0.43,2.21 0.34,-0.16 -0.01,-0.80 0.41,1.37 0.42,-0.02 0.30,-0.24 0.42,0.46 0.33,0.86 0.42,-1.41 -0.04,1.24 0.60,0.03 0.62,0.38 -0.25,-0.81 0.07,-0.88 -0.31,-1.08 0.58,0.88 0.20,-0.70 0.24,0.11 0.43,1.17 0.30,-0.10 0.21,-0.90 0.06,1.26 0.38,-0.28 -0.03,0.90 0.73,-0.93 0.27,0.47 -0.17,0.62 1.17,-1.75 0.49,-0.02 0.32,-0.38 0.87,-0.90 0.48,-0.08 0.64,-0.78 -0.18,0.66 0.65,-0.17 -1.00,1.11 0.58,-0.17 0.16,0.72 1.18,-0.51 -1.18,0.97 0.42,0.25 0.45,0.34 -1.15,0.54 0.05,0.44 0.86,0.31 -1.47,0.29 0.22,0.46 0.02,0.21 -1.53,0.34 -0.04,0.48 -0.80,0.53 -0.41,0.61 -1.52,0.76 1.26,-0.22 -0.77,1.14 0.59,0.19 0.76,-0.47 -1.24,1.22 0.29,0.22 1.62,-0.37 -1.52,0.67 0.37,0.42 -0.05,0.27 -1.22,0.32 -0.49,0.41 0.21,0.09 1.32,0.10 0.37,0.55 0.76,0.43 -0.36,0.27 0.38,0.74 -1.23,-0.17 0.58,0.61 -0.81,0.23 1.13,0.57 0.08,0.36 -0.51,0.31 0.57,0.53 -1.28,0.14 0.17,0.38 0.33,-0.39 2.33,0.29 2.68,1.55 0.17,1.03 1.69,3.26 0.55,3.73 -1.88,-1.14 -2.77,-3.31 -4.56,-4.56 -1.15,-0.18 -1.28,1.23 -1.71,1.96 -0.08,0.73 -0.95,3.00 -0.08,2.88 0.37,-0.13 -0.05,1.03 0.39,0.15 0.51,0.29 -0.06,0.73 0.63,0.23 -0.22,0.91 -1.24,1.71 -0.02,0.71 0.50,-0.87 0.18,1.87 0.39,0.25 0.18,0.22 0.15,0.17 0.44,0.13 0.24,0.05 -0.01,0.39 0.37,0.05 -0.22,0.72 0.54,-0.12 0.12,0.68 0.93,-0.77 -0.26,1.08 0.81,0.08 0.11,0.53 -0.86,0.55 -0.34,0.73 0.64,-0.16 0.28,0.24 0.42,0.45 0.48,-0.04 -1.12,0.62 0.31,0.30 1.91,-0.19 3.53,1.43 5.47,1.19 1.30,-0.33 2.15,0.58 1.04,1.59 -0.69,1.48 -1.62,3.09 -3.16,3.78 -1.37,0.19 -2.77,0.02 -3.98,-0.67 -1.49,-1.05 -2.22,0.35 -2.32,1.41 -1.14,-0.81 -0.64,2.28 -0.46,3.04 0.29,1.53 -0.12,3.58 2.01,3.48 -0.61,0.79 -1.72,2.24 0.09,1.89 0.94,0.26 2.32,1.35 2.57,0.49 0.09,-1.16 0.60,1.03 0.32,-0.44 -0.21,-0.22 0.50,-0.59 0.50,0.01 0.35,-1.67 0.26,1.95 0.37,0.19 -0.09,-1.20 0.98,-0.36 0.90,-0.98 -0.32,-0.95 0.97,1.55 0.38,0.27 -0.36,-0.58 -0.01,-1.52 0.04,-0.27 0.04,-0.75 0.36,-1.29 0.49,-0.69 0.67,-0.97 0.19,1.87 0.62,-0.01 0.63,-1.23 -0.20,0.91 0.73,-0.21 0.33,-0.31 -0.39,1.25 0.52,0.17 0.72,0.54 -0.84,1.67 0.27,0.84 1.04,0.22 -1.22,0.85 0.52,0.79 -0.98,0.26 -0.74,0.34 0.00,0.22 0.49,0.49 -1.41,0.68 0.02,0.78 -0.78,0.04 0.14,0.45 -0.89,0.39 0.35,0.41 -0.37,0.35 -0.47,0.44 -1.11,-0.74 0.62,0.91 -0.75,-0.10 0.24,0.55 -0.99,-0.29 0.13,0.41 -0.57,0.00 -1.24,-0.87 -0.78,0.10 -0.69,-0.47 0.06,0.72 -0.74,-0.21 -0.19,-0.15 0.36,0.98 -0.14,0.60 1.54,0.73 3.64,0.68 4.72,2.43 1.38,1.30 2.52,3.08 2.20,5.09 -0.07,0.60 0.27,2.30 -0.91,1.50 z m 0.62,-0.12 c -0.04,-1.16 -1.80,-3.20 -2.44,-3.04 0.20,1.06 1.36,3.15 2.44,3.04 z m -0.68,-0.47 c -0.55,-0.63 -0.81,-2.47 -0.19,-0.62 -0.10,-0.17 0.46,0.92 0.19,0.62 z m 0.79,-1.20 c 0.12,-1.59 -0.50,-3.41 -1.96,-4.14 0.43,-1.12 -3.42,-0.13 -1.18,-0.68 1.02,-0.11 -1.21,-0.20 -0.22,-0.32 -1.44,-0.11 -1.82,0.13 -1.13,-0.31 -1.06,-0.85 -0.90,-0.09 -2.33,-0.24 -0.55,0.05 0.39,-0.22 -0.70,-0.25 0.32,0.40 0.79,1.44 1.17,1.28 0.36,0.58 2.28,2.56 3.70,1.72 2.52,0.04 -1.01,-0.07 -1.09,0.51 0.72,0.99 3.20,0.34 3.32,0.93 -0.68,-0.44 -2.63,-0.42 -1.21,0.51 0.25,0.25 1.62,0.78 0.53,0.48 0.73,0.49 1.32,3.02 1.11,0.52 z M 35.91,41.04 c -0.81,-0.37 0.81,0.14 0,0 z M 32.18,40.27 c 1.17,-0.45 0.49,0.08 0,0 z m 0.81,-0.23 c 0.77,-0.30 0.64,0.20 0,0 z m 0.84,-0.08 c 0.36,-0.13 -0.00,0.26 0,0 z m 0.37,-0.49 c 0.51,-0.26 0.47,0.09 0,0 z m 0.55,-0.00 c -0.17,-0.29 0.23,0.05 0,0 z m -2.58,-0.25 c 0.14,-0.25 0.49,0.29 0,0 z m -0.55,-0.05 c -0.94,-0.22 1.19,0.14 0,0 z m 0.87,-0.16 c 1.00,-0.41 0.85,0.07 0,0 z m -0.39,-0.66 c -0.44,-0.41 0.49,0.21 0,0 z m 3.00,5.94 c -0.70,-1.18 0.24,0.86 0,0 z m -0.21,0.03 c -0.16,-0.70 -1.19,-1.54 -0.58,-0.23 -0.26,-0.81 -1.02,-1.45 -0.36,-0.18 -0.02,0.36 1.03,0.64 0.94,0.41 z m -1.24,-0.77 c -0.58,-1.09 -0.50,-0.16 -0.20,0.23 -0.41,-0.86 -1.19,-1.29 -0.42,-0.08 0.40,0.24 1.30,0.68 0.62,-0.14 z m -1.04,-0.33 c -0.62,-1.31 -0.16,0.59 0.12,0.29 l -0.12,-0.29 z m 2.06,0.10 c 0.25,-1.08 -2.10,-2.78 -1.50,-1.02 0.26,-0.83 -1.10,-2.14 -1.35,-1.61 0.21,0.86 0.36,1.96 -0.08,0.43 0.35,-1.14 -1.98,-2.49 -1.20,-0.62 0.52,1.46 -0.04,0.84 -0.18,-0.24 0.00,-0.54 -0.22,-1.72 -0.16,-0.60 -0.32,-0.91 -0.54,-1.86 -0.66,-0.80 -0.41,-0.58 -0.28,0.28 -0.43,0.44 0.71,0.32 1.72,1.11 0.35,0.37 -1.54,-0.81 0.86,1.31 1.24,1.82 0.78,1.19 3.42,1.41 4.01,1.84 z m -2.53,-1.18 c -0.07,-0.25 0.20,0.27 0,0 z m 0.02,0.90 c -0.46,-1.04 -0.43,0.13 0,0 z M 31.56,42.38 c -0.60,-0.65 0.23,0.62 0,0 z M 16.61,40.78 c 2.21,-0.21 3.76,-2.06 4.75,-3.84 -1.17,-0.83 0.56,0.45 -0.86,0.02 -0.87,-0.09 -2.80,2.22 -2.51,1.59 0.17,-0.39 2.37,-1.53 1.37,-1.58 -1.92,-0.95 -3.06,1.12 -4.45,2.01 0.56,-0.87 2.88,-2.06 2.60,-2.52 1.25,0.66 0.16,-0.82 -0.00,-0.29 -0.51,-0.78 -0.60,-0.67 -0.38,0.23 -1.63,-0.85 -3.36,1.79 -3.92,1.91 0.66,-0.92 2.34,-1.79 2.65,-2.33 0.17,-0.85 0.15,-1.36 -0.23,-0.10 -0.44,0.67 -3.73,-0.62 -1.75,-0.22 1.12,0.91 2.01,-0.28 1.77,-0.73 -0.65,2.29 -1.51,-1.15 -2.71,-1.55 -0.57,-1.05 1.17,1.65 1.66,1.01 1.30,-0.41 -0.96,-0.46 0.70,-0.78 0.79,-0.05 -1.27,-0.49 0.06,-0.46 1.37,0.40 -0.89,-0.46 -0.00,-0.77 -0.90,-0.53 -0.85,0.13 -0.76,0.51 -0.04,-0.63 -0.65,-1.08 -0.30,-0.22 -0.66,-0.94 -0.54,0.10 -1.23,-0.21 -0.37,0.22 -1.25,-0.12 -1.57,-0.16 0.20,0.18 -2.25,-1.33 -0.55,-0.00 0.68,0.44 -2.95,-1.72 -0.87,-0.41 2.07,1.79 -2.40,-2.09 -1.74,0.44 0.47,1.02 0.77,2.15 0.46,3.27 0.11,1.68 0.55,3.95 2.50,4.42 1.78,0.24 3.56,0.78 5.36,0.78 l 0,0 z m 0.54,-1.61 c 0.36,-0.34 -0.09,0.32 0,0 z m -6.68,-1.52 c 0.58,-0.32 2.94,-1.94 2.53,-1.48 -0.48,0.18 -2.79,1.95 -2.53,1.48 z M 9.30,36.09 c 0.75,-0.28 2.57,-0.78 0.80,-0.14 -0.24,0.02 -0.56,0.30 -0.80,0.14 z m 4.14,-0.15 c 0.32,-0.09 0.05,0.10 0,0 z m -1.03,-0.40 c -1.02,-0.04 -1.67,0.01 -0.33,-0.15 -0.62,-0.37 -3.28,-2.08 -1.50,-1.08 0.08,0.34 3.24,1.63 1.84,1.24 z m 0.61,-0.18 c -0.40,-0.57 -1.97,-2.01 -1.90,-1.90 0.28,0.02 2.72,2.38 1.90,1.90 z m -2.95,-0.82 c -0.08,-0.21 0.35,0.14 0,0 z m -0.48,-0.09 c 0.33,-0.04 0.14,0.08 0,0 z m 5.28,-1.81 c -0.04,-0.75 0.35,0.55 0,0 z m 8.99,5.82 c -0.18,-0.63 -0.90,-1.23 -1.02,-0.67 -1.46,-0.76 1.01,2.67 1.15,1.64 0.01,-0.32 0.02,-0.66 -0.13,-0.96 z m 4.93,0.67 c -0.46,-0.35 0.18,0.18 0,0 z m -0.35,-0.32 c -0.22,-0.65 0.07,0.93 0,0 z m 6.19,0.05 c -0.39,-0.80 -2.60,-1.94 -2.82,-1.35 0.61,0.88 2.32,1.15 2.82,1.35 z m -5.89,-0.14 c -0.10,0.10 0.06,0.21 0,0 z m -1.06,-0.22 c 0.00,-0.24 -0.17,0.29 0,0 z M 29.30,38.14 c -0.20,0.11 -0.01,-0.04 0,0 z m -2.67,-0.23 c -0.20,-0.05 -0.09,-0.66 0.02,-0.83 -0.26,-0.28 0.57,-0.07 -0.31,-0.38 -0.04,-0.97 -2.03,-2.76 -1.08,-0.83 0.20,1.00 -1.17,-2.96 -1.34,-0.74 -0.03,1.45 1.31,2.81 2.72,2.80 z m 2.82,-0.02 c -0.29,-0.32 -0.83,0.03 0,0 z m 1.78,-0.01 c 2.03,-0.32 -2.47,-0.12 -0.08,-0.42 0.58,-0.57 -2.66,0.46 -0.49,0.47 l 0.31,-0.02 0.26,-0.01 0,0 z m -3.01,-0.23 c -0.22,-0.13 -0.12,0.19 0,0 z M 26.99,37.50 c -0.61,-0.31 -0.10,0.25 0,0 z m 2.52,-0.09 c 0.09,-0.32 -0.50,0.33 0,0 z m -6.81,-0.43 c 0.19,-1.24 -2.09,-2.58 -2.44,-2.51 0.78,0.21 2.47,2.21 1.96,1.98 -0.47,-0.84 -1.96,-2.04 -2.52,-1.97 0.26,1.37 1.90,2.70 3.02,2.82 l -0.01,-0.31 0,0 z m 7.34,0.37 c 1.46,0.03 0.61,-0.58 -0.20,-0.02 -0.25,0.11 0.21,0.06 0.20,0.02 z m -0.58,-0.41 c -0.21,-0.11 -0.25,0.48 0,0 z m -1.28,-0.01 c -0.41,-0.19 -0.26,0.44 0,0 z m -4.97,-0.03 c -0.43,-0.81 -0.55,-0.08 0.00,0.09 l -0.00,-0.09 z m 5.64,-0.01 c 0.30,-0.41 -0.43,0.42 0,0 z m 0.84,-0.00 c -0.08,-0.31 -0.15,0.39 0,0 z m 0.67,0.06 c -0.03,-1.08 -0.78,0.41 0,0 z M 20.36,36.81 c 1.14,-0.44 -0.79,0.07 -1.21,-0.84 -1.49,-0.04 1.73,-1.48 0.06,-0.36 -0.16,0.85 1.30,-1.36 -0.00,-0.33 -1.16,1.10 1.38,-1.61 -0.26,-0.17 0.01,-0.26 1.02,-1.22 -0.18,-0.23 0.39,-0.88 0.53,-0.53 0.03,-0.58 -0.35,-0.22 0.26,0.80 -0.56,0.13 -0.44,-0.19 1.17,1.44 -0.05,0.43 -1.10,-0.48 1.21,1.49 -0.30,0.56 0.52,1.41 -1.01,-1.36 -0.24,0.31 -0.16,0.27 1.73,1.57 2.74,1.08 z m 6.69,-0.03 c -0.68,-0.20 -0.23,-0.96 0.16,-0.18 -0.8,-1.19 0.42,-0.30 0.28,-0.30 -0.57,-1.08 0.60,0.35 0.21,-0.92 1.33,-0.11 -1.67,-1.44 -2.45,-1.40 -1.94,-0.08 -0.18,0.76 0.07,0.79 -0.03,0.67 1.76,1.14 0.90,1.27 -0.06,0.42 0.63,0.86 0.80,0.75 z m -0.94,-1.25 c 0.97,-0.27 1.77,-0.26 0.29,0.04 l -0.20,0.00 -0.08,-0.04 z m -0.45,-0.92 c 0.52,-0.09 0.09,0.09 0,0 z m 0.42,-0.07 c 0.55,-0.20 0.37,0.12 0,0 z m 3.12,2.28 c 0.29,-0.46 -0.43,0.19 0,0 z m 0.71,-0.09 c -0.16,-0.44 -0.14,0.34 0,0 z m -0.40,-0.09 c -0.17,-0.11 -0.13,0.20 0,0 z m -9.00,-0.19 c 0.38,-0.67 -0.78,0.42 0,0 z m 8.47,-0.14 c 0.07,-0.55 -0.26,0.63 0,0 z m -5.27,0.09 c 0.06,-0.69 -0.55,-2.21 -0.90,-1.21 0.21,0.20 0.61,1.37 0.90,1.21 z m -6.73,-0.09 c -0.49,-0.45 -0.38,-1.70 -0.46,-0.21 -0.14,0.24 0.62,0.42 0.46,0.21 z m 3.24,-0.06 c 0.69,-0.57 -0.80,0.36 0,0 z m -3.88,-0.20 c -0.10,-0.01 -0.54,-0.46 -0.01,0.20 l 0.01,-0.20 z m 3.60,0.05 c 0.62,-0.87 -0.86,0.46 0,0 z m 8.40,-0.02 c -0.14,-0.40 -0.14,0.40 0,0 z m -0.28,-0.42 c -0.27,0.09 0.05,0.85 0.03,0.10 l -0.03,-0.10 0,0 z m -8.35,0.20 c 0.73,-1.02 -0.98,0.67 0,0 z m 2.90,0.07 c -0.14,-1.08 -0.51,-1.14 -0.10,-0.05 l 0.13,0.18 -0.02,-0.13 z m 7.61,0.05 c -0.16,-0.11 -0.13,0.19 0,0 z m -1.29,-0.23 c -0.26,0.13 -0.11,0.38 0,0 z m -0.55,-0.02 c -0.04,-0.13 -0.24,0.21 0,0 z M 15.20,35.27 c 0.43,-0.57 -0.51,0.35 -0.05,-0.42 -0.62,0.06 -0.37,1.14 0.05,0.42 z m 17.77,0.10 c -0.51,-0.36 0.37,0.48 0,0 z m -16.73,0.03 c 0.00,-0.24 -0.17,0.29 0,0 z m 15.67,0.03 c -0.22,-0.21 -0.22,0.21 0,0 z m 0.81,0 c -0.14,-0.20 -0.07,0.21 0,0 z M 17.22,35.32 c -0.20,-0.12 0.14,0.30 0,0 z m 12.69,0.06 c -0.16,-0.11 -0.13,0.20 0,0 z m 1.43,0.00 c 0.06,-0.47 -0.38,0.27 0,0 z m -9.24,-0.28 c -0.34,-0.93 0.04,0.79 0,0 z m -4.18,0.05 c -0.63,-0.43 0.32,0.41 0,0 z m 11.00,-0.05 c 0.41,-0.36 -1.30,0.05 0,0 l 0,0 z m 4.40,0.02 c -0.50,-0.19 -0.21,0.19 0.08,0.08 l -0.08,-0.08 z m -1.38,-0.02 c -0.21,-0.22 -0.07,0.23 0,0 z M 31.01,34.88 c -0.25,-0.03 0.13,0.44 0,0 z m -16.17,0.00 c -0.20,-0.22 1.41,-1.03 -0.00,-0.44 -0.66,-0.04 -0.44,0.89 0.00,0.44 z m 6.94,0.09 c -0.16,-0.11 -0.13,0.20 0,0 z m 8.44,-0.09 c -0.21,-0.26 0.15,0.43 0,0 z m -0.34,0.02 c -0.18,-0.89 -0.15,0.26 0,0 z m 1.73,-0.08 c -0.11,-0.32 -0.35,0.40 0,0 z m 1.50,0.00 c -0.68,-0.32 0.34,0.38 0,0 z m -11.63,0.00 c -0.19,-0.82 -0.53,-0.21 0,0 z m -5.79,-0.14 c 0.15,-0.34 -0.52,0.24 0,0 z m 7.56,-0.06 c 0.99,-0.34 2.03,-2.32 1.77,-2.77 -1.09,-0.28 -3.78,-0.77 -3.83,0.19 0.26,0.36 -0.03,0.72 -0.39,0.89 1.44,0.13 -1.48,1.01 0.44,0.64 0.51,-0.25 1.00,-1.58 0.60,-0.31 0.91,0.11 2.24,-2.48 1.15,-0.55 3.02,-0.66 -3.18,0.86 -0.33,1.17 1.08,0.35 -3.02,-0.59 -1.59,0.20 0.68,0.44 1.32,0.76 2.17,0.51 z m 0.72,-1.27 c -0.97,-0.43 0.40,-0.00 0,0 z m -0.85,-0.23 c -0.18,-0.20 0.78,0.16 0,0 z m 5.48,1.49 c -0.65,-0.26 0.26,0.32 0,0 z m 2.53,-0.05 c -0.16,0.11 -0.06,0.25 0,0 z m 1.31,0.10 c -0.32,-0.05 0.10,0.10 0,0 z m 0.98,-0.15 c -0.95,-0.50 -0.10,0.56 0,0 z m -16.29,-0.01 c -0.35,-0.22 0.16,0.35 0,0 z m 0.72,0.09 c -0.92,-0.76 0.28,0.35 0,0 z m 3.08,-0.18 c -0.39,-0.84 0.10,0.64 0,0 z m 8.08,0.08 c -0.23,-0.76 -0.23,0.06 0,0 z m 1.43,-0.07 c -0.20,0.10 -0.01,-0.04 0,0 z m -0.74,-0.21 c -0.09,0.08 0.09,0.45 0,0 z m 0.38,0.05 c -0.09,-1.04 -0.05,0.82 0,0 z m 0.98,0.16 c -0.14,-0.20 -0.06,0.21 0,0 z m 0.64,-0.03 c -0.28,-0.12 -0.10,0.19 0,0 z m 0.97,-0.03 c -0.49,-0.08 0.24,0.17 0,0 z m -12.10,-0.04 c -0.24,-0.59 -0.28,0.05 0,0 z m -4.80,-0.06 c -0.16,-0.11 -0.13,0.20 0,0 z m 1.49,0.00 c -0.52,-0.24 -0.03,0.24 0,0 z m -0.60,-0.12 c -0.20,-0.12 0.14,0.30 0,0 z m 15.24,0.07 c -0.07,-0.23 -0.20,0.22 0,0 z m 0.49,-0.00 c -0.17,-0.11 -0.13,0.20 0,0 z m -16.31,-0.09 c 0.04,-0.24 -0.28,0.32 0,0 z m 3.25,0.03 c -0.14,-0.20 -0.07,0.21 0,0 z m 0.81,0.03 c -0.13,-0.97 -0.61,-0.40 0,0 z m 10.74,-0.03 c -0.88,-0.78 -0.06,0.30 0,0 z m 2.09,0.01 c -0.32,-0.05 0.10,0.10 0,0 z m -15.28,-0.13 c -0.25,-0.47 -0.17,0.25 0,0 z m 2.05,0.02 c -0.16,-0.27 -0.07,0.30 0,0 z M 17.00,33.89 c -0.14,-0.32 -0.05,0.43 0,0 z m 2.12,-0.01 c -0.10,0.10 0.06,0.21 0,0 z m 13.49,0.01 c 0.19,-0.34 -0.35,0.45 0,0 z M 19.53,33.74 c -0.31,-0.50 0.24,0.74 0,0 z m -4.16,0.12 c -0.67,-0.19 -0.18,0.09 0,0 z m 16.01,0.03 c -0.22,-0.18 -0.23,0.10 0,0 z m 0.17,-0.15 c -0.16,-0.11 -0.13,0.20 0,0 z m 0.25,-0.02 c -0.29,-0.29 0.04,0.30 0,0 z M 16.35,33.60 c -0.18,-0.22 0.06,0.29 0,0 z m 1.91,0.03 c -0.23,-0.10 -0.23,0.19 0,0 z m 0.36,-0.09 c -0.12,-0.58 -0.17,0.58 0,0 z m 0.33,-0.12 c -0.33,-0.11 0.15,0.49 0,0 z M 31.97,33.21 c 0.62,-1.61 -0.53,1.08 0,0 z m -0.52,0.28 c -0.33,-0.73 -0.43,0.15 0,0 z m 0.76,-0.13 c -0.12,-0.23 -0.13,0.41 0,0 z M 31.56,33.25 c -0.21,-0.32 0.16,0.61 0,0 z m -12.18,0.09 c -0.17,-0.38 -0.13,0.26 0,0 z m 1.48,-0.03 c -0.16,-0.31 -0.53,0.18 0,0 z m -1.87,-0.08 c -0.06,-0.42 -0.19,0.17 0,0 z m 14.00,-0.25 c 0.42,-0.95 -0.87,0.92 0,0 z m -16.31,0.12 c -0.14,-0.21 -0.15,0.20 0,0 z m 0.54,-0.39 c -0.09,-0.29 -0.31,0.85 0,0 z m 0.41,0.31 c -0.15,-0.34 -0.16,0.28 0,0 z m 13.45,-0.15 c -0.33,-0.37 0.22,0.59 0,0 z m -12.85,0.11 c 0.07,-0.32 -0.30,0.28 0,0 z m 13.32,0.01 c -0.19,-0.71 -0.40,-0.04 0,0 z M 16.12,32.90 c -0.29,-0.29 0.04,0.30 0,0 z m 1.91,-0.28 c -0.47,-0.48 0.42,0.53 0,0 z m 1.31,0.07 c -0.39,-0.34 0.19,0.41 0,0 z m 13.22,-0.01 c 0.10,-0.47 -0.36,0.48 0,0 z m -16.04,0.03 c 0.19,-0.35 -0.70,0.20 0,0 z m -0.82,-0.21 c -0.40,-0.66 0.03,0.54 0,0 z m 2.99,0.12 c -0.20,-0.22 -0.07,0.23 0,0 z m 1.11,0.00 c -0.92,-0.52 0.12,0.27 0,0 z m -3.52,-0.26 c -0.24,-0.26 -0.50,0.45 0,0 z m 0.47,0.04 c 0.04,-0.22 -0.38,0.32 0,0 z m 0.91,-0.02 c -0.14,-0.20 -0.07,0.21 0,0 z m 0.67,-0.05 c -0.14,-0.21 -0.07,0.21 0,0 z m 1.31,-0.05 c -0.34,-0.21 -0.13,0.15 0,0 z m 0.94,0.01 c -0.32,-0.05 0.10,0.10 0,0 z m -7.26,-0.12 c 0.96,-0.55 3.03,0.48 2.64,-0.18 -1.08,-0.19 -3.50,-0.41 -5.08,-0.33 -0.35,0.27 2.08,0.88 2.43,0.52 z m 5.34,-0.04 c -0.45,-0.14 0.27,0.28 0,0 z m -0.84,0.00 c -0.30,-0.38 -0.06,0.36 0,0 z m -1.23,-0.05 c -0.52,-0.43 -0.13,0.37 0,0 z m 0.64,-0.05 c -0.53,-0.17 0.35,0.26 0,0 z m 2.05,0.02 c -0.30,-0.21 -0.30,0.21 0,0 z m -2.46,-0.05 c -0.22,-0.21 -0.23,0.21 0,0 z m 3.97,-0.12 c 0.14,-0.36 -0.39,0.39 0,0 z m -3.41,-0.14 c -0.51,-0.28 0.26,0.31 0,0 z M 16.65,31.61 c 0.43,-0.57 -0.62,0.41 0,0 z m 0.23,0.08 c -0.14,-0.20 -0.07,0.21 0,0 z m 1.02,-0.02 c -0.13,-0.30 -0.05,0.30 0,0 z m 2.30,-0.20 c 0.34,-0.59 -0.55,0.44 0,0 z m -0.83,-0.11 c -0.15,-0.21 -0.14,0.21 0,0 z m 0.23,-0.03 c -0.06,-0.26 -0.24,0.33 0,0 z m 4.13,-0.15 c -0.09,-1.83 -0.70,-3.65 -0.57,-5.49 0.44,-1.01 0.08,-0.61 -0.25,-0.07 -0.54,-1.39 -0.23,-3.36 -0.93,-4.43 -0.89,0.92 -2.21,-0.23 -2.97,0.68 0.36,0.05 1.17,0.62 0.60,0.04 0.96,0.48 0.42,0.13 0.10,-0.26 0.34,0.20 1.07,0.66 0.59,0.05 1.40,0.29 -0.85,0.67 -0.41,1.72 -0.64,1.66 0.82,-2.26 -1.22,-1.36 -1.19,0.45 0.32,0.57 -1.09,0.52 -1.92,0.34 0.92,0.71 0.49,0.14 0.78,0.12 1.03,-0.50 1.73,-0.26 -1.00,-0.05 -1.09,1.94 -1.53,1.85 0.94,-1.27 0.26,-1.71 -0.62,-0.99 -0.95,0.25 -0.77,0.30 -0.87,0.01 -0.76,0.33 -0.67,1.96 -0.68,2.81 1.77,-0.69 4.65,-0.55 4.96,-3.00 -0.45,-0.86 1.00,-2.73 1.22,-1.19 -0.84,-0.94 -0.07,2.07 -0.03,2.84 0.30,2.17 0.69,4.35 0.96,6.53 0.16,0.11 0.75,0.27 0.53,-0.13 z m -7.11,-5.85 c 0.54,-0.63 -0.24,0.51 0,0 z m 0.99,-0.00 c 0.13,-0.20 0.16,0.11 0,0 z m -0.58,-0.61 c 0.17,-0.33 0.05,0.22 0,0 z m 0.17,-0.34 c 0.56,-1.23 0.63,-0.56 0,0 l 0,0 z M 16.39,24.23 c 0.06,-0.32 0.23,-0.12 0,0 z m 1.28,-1.34 c -0.09,-0.32 0.36,0.34 0,0 z m 3.22,-0.23 c 0.20,-0.46 0.04,0.42 0,0 z m -3.10,0.02 c 0.07,-0.21 0.14,0.20 0,0 z m 1.15,-0.15 c -0.35,-0.33 0.55,0.12 0,0 z m -1.33,8.68 c -0.33,-0.42 -0.15,0.32 0,0 z m 2.30,0.10 c 0.94,-0.86 -0.26,-0.19 0,0 z m -1.31,-0.11 c -0.16,-0.11 -0.13,0.20 0,0 z m -2.27,-0.06 c -0.32,-0.05 0.10,0.10 0,0 z m 0.55,-0.11 c -0.31,-0.03 0.07,0.26 0,0 z m 0.34,0.09 c -0.14,-0.20 -0.07,0.21 0,0 z m 0.64,-0.05 c -0.41,-0.26 0.03,0.27 0,0 z m 1.11,0.05 c -0.14,-0.20 -0.07,0.21 0,0 z m -0.93,-0.27 c -0.10,0.10 0.06,0.21 0,0 z m 0.33,-0.10 c -0.14,-0.30 -0.05,0.30 0,0 z m -0.60,-0.01 c 0.10,-0.68 -0.35,0.06 0,0 z m 0.87,-0.04 c -0.16,-0.11 -0.13,0.20 0,0 z m -1.61,-0.02 c -0.14,-0.21 -0.07,0.21 0,0 z m 1.09,-0.11 c -0.04,-0.42 -0.24,0.54 0,0 z m -3.17,-3.66 c 0.56,-0.24 0.21,-2.35 0.42,-0.45 0.25,-0.18 0.11,-2.32 0.28,-0.66 0.25,1.14 0.02,-1.86 0.27,-0.46 -0.20,-0.77 0.68,-2.65 -0.29,-1.05 -0.53,0.43 -1.37,2.72 -0.68,2.63 z m 9.71e-4,-0.27 c 0.12,-0.56 0.08,0.30 0,0 z m 0.06,-0.48 c 0.03,-0.35 0.06,0.27 0,0 z m 8.07,-1.31 c 0.46,-0.82 -0.19,-2.01 0.03,-2.94 -0.40,0.66 0.19,-1.72 -0.35,-0.07 -0.22,-1.79 -0.28,2.45 0.18,3.25 l 0.03,-0.06 0.09,-0.17 0,0 z m 1.01,0.19 c 0.16,-1.34 -0.49,-1.66 -0.40,-2.49 -0.46,1.60 0.10,-1.41 -0.39,0.33 -0.33,0.66 0.28,2.06 0.80,2.16 z m 6.34,-0.59 c 1.78,-0.93 2.53,-2.92 3.47,-4.58 -0.48,-0.03 -0.89,0.96 -0.43,0.00 -0.59,0.59 -0.35,-0.26 -1.01,0.39 0.50,-0.61 -0.54,-0.03 -0.68,-0.20 -0.57,0.45 0.46,-0.71 -0.35,-0.03 -0.59,0.75 -1.54,1.84 -0.52,0.46 1.17,-1.08 -0.26,-0.24 -0.12,-0.49 -0.63,0.32 -0.07,-0.36 -0.89,-0.04 0.24,-0.45 -0.63,0.07 -0.45,-0.35 -0.74,-0.21 -0.67,-0.24 -1.32,-0.80 -0.89,-0.85 -2.22,-0.13 -2.78,-0.13 -0.67,-0.42 -0.39,0.45 -0.17,0.58 -0.62,0.69 0.66,0.05 -0.55,0.75 -0.84,0.37 0.52,-0.19 0.51,0.05 0.45,0.15 -0.67,0.44 0.00,0.62 -0.29,0.69 -0.57,-0.35 -0.23,0.74 0.37,0.74 -0.40,2.14 -0.45,2.33 0.95,-0.74 1.62,-2.05 1.37,-3.56 0.22,-1.14 0.14,1.64 -0.06,2.07 -0.14,0.64 0.57,-0.11 1.04,-0.34 -0.37,1.29 1.54,-2.33 0.61,-0.31 -0.69,1.34 1.20,-1.12 1.28,-1.59 0.83,-0.99 -0.94,2.04 -1.36,2.18 -1.94,0.22 -2.92,1.67 -0.39,1.86 1.06,0.62 2.36,0.66 3.53,0.38 z m -0.67,-0.67 c 0.84,-0.12 1.39,0.14 0,0 z m -0.24,-0.08 c 0.13,-0.20 0.21,0.22 0,0 z M 27.83,23.11 c 0.21,-0.06 0.10,0.10 0,0 z m -0.33,-0.08 c 0.37,-0.05 -0.00,-0.05 0,0 z M 26.96,22.93 c -0.82,-0.35 1.19,0.17 0,0 z m -1.84,-0.05 c 0.16,-0.45 0.34,-0.16 0,0 z m 1.00,-0.12 c 0.71,-0.08 0.14,0.08 0,0 z m 3.32,-0.19 c -0.77,-0.22 -2.45,-0.55 -0.68,-0.29 0.06,-0.02 1.59,0.49 0.68,0.29 z m 2.16,-0.28 c 0.15,-0.21 0.15,0.21 0,0 z m -0.76,-0.20 c -1.49,-0.36 1.25,0.17 0,0 z m -4.51,-0.08 c 0.15,-0.21 0.14,0.21 0,0 z m 1.31,-0.05 c 0.81,-0.59 0.98,-0.77 0.43,-0.02 0.27,-0.22 -0.47,0.24 -0.43,0.02 z m 2.10,-0.05 c -1.24,0.13 -0.40,-0.55 -0.21,-0.42 0.18,0.14 2.61,-0.59 0.84,0.03 -1.75,0.17 -0.15,0.26 -0.53,0.44 l -0.09,-0.04 0,0 z m -1.01,-0.31 c 0.63,-0.38 2.12,-2.72 0.99,-0.91 0.02,0.33 -1.90,1.77 -0.99,0.91 z m -1.99,0.14 c 0.14,-0.20 0.14,0.20 0,0 z m 0.11,-0.26 c 0.15,-0.29 0.08,0.22 0,0 z m 5.05,-0.01 c 0.78,-0.08 0.14,0.08 0,0 z m -0.52,-0.05 c 0.45,-0.09 0.08,0.09 0,0 z M 26.93,21.13 c 0.15,-0.49 0.08,0.40 0,0 z m 4.33,-0.02 c 0.63,-0.11 2.47,-1.37 0.97,-0.32 -0.26,0.07 -0.68,0.43 -0.97,0.32 z m -4.21,-0.24 c 0.23,-1.25 0.53,-0.95 0,0 z m -2.62,2.41 c 0.78,-0.79 0.10,-2.26 -0.07,-1.62 -0.26,-0.22 0.22,0.71 -0.38,0.13 0.01,0.21 0.00,2.23 0.46,1.49 z m -6.93,-0.16 c -1.54,-0.28 -0.63,0.45 0,0 z m 0.46,-0.85 c 0.75,-0.33 1.63,-1.10 0.26,-0.41 -0.62,0.17 -1.34,0.92 -0.26,0.41 l 0,0 z m 5.53,-0.50 c -0.18,-0.27 -0.01,0.53 0,0 z m 0.30,-0.15 c -0.34,-0.09 0.02,0.74 0,0 z m -0.34,-0.26 c -0.24,-0.71 0.15,0.92 0,0 z m 0.31,-0.11 c -0.28,-0.23 0.10,0.37 0,0 z M 22.63,21.11 c -0.21,-0.04 -0.17,0.37 0,0 z m 1.79,-0.01 c -0.00,-0.30 -0.17,0.36 0,0 z m -2.00,-0.12 c 0.69,-0.23 -0.72,0.03 -0.08,0.08 l 0.08,-0.08 z m -0.37,-0.06 c 0.50,-0.37 -0.73,-1.07 0,0 z m 1.71,-0.04 c -0.16,-0.11 -0.13,0.20 0,0 z M 22.42,20.69 c 0.14,-0.23 -0.42,0.24 0,0 z m 0.42,-0.09 c -0.10,-0.33 -0.29,0.43 0,0 z m 1.66,-0.00 c -0.66,-0.23 0.37,0.36 0,0 z m -0.74,-0.00 c -0.18,-0.47 -0.15,0.03 0,0 z M 23.13,20.51 c -0.14,-0.21 -0.15,0.21 0,0 z m 0.29,-0.20 c -0.14,-0.30 -0.05,0.30 0,0 z m -0.68,-0.05 c -0.16,-0.27 -0.07,0.30 0,0 z m 1.94,0.02 c -0.25,-0.10 -0.04,0.18 0,0 z m -2.48,-0.11 c -0.89,-0.65 1.36,-0.02 -0.01,-0.43 -0.02,-0.66 0.50,0.12 0.44,-0.89 0.75,-0.59 1.54,-1.09 0.20,-0.33 -1.73,1.15 1.70,-1.04 0.30,-0.66 -0.78,-1.45 -0.48,0.41 -1.04,1.14 0.04,-0.59 0.50,-1.62 -0.00,-0.72 0.20,-1.04 -0.39,0.88 -0.52,0.82 -0.26,0.71 -1.14,-1.55 -2.05,-1.48 -0.53,-0.64 -0.99,-1.05 -0.35,-1.23 -0.81,0.25 -1.48,-0.30 -0.93,-0.40 -0.81,-0.33 0.41,-0.75 -0.50,-1.18 0.22,-0.11 0.83,0.29 0.13,-0.41 -1.58,-0.67 -3.57,-0.42 -5.30,-0.66 -0.81,-0.34 -2.05,-1.65 -1.46,0.03 0.56,2.05 3.02,2.32 4.77,2.80 1.57,0.48 2.73,0.80 3.49,1.13 1.32,0.44 1.86,2.15 2.85,2.50 z m -3.96,-3.36 c -0.43,-0.42 -2.11,-0.01 -0.41,-0.28 -0.46,-0.96 -3.75,-1.78e-4 -1.41,-0.56 0.42,-0.46 -3.41,-0.09 -1.69,-0.46 -0.79,-0.19 -3.01,-1.47 -2.71,-1.60 0.61,0.57 3.68,2.20 1.72,0.53 -0.28,-0.27 2.29,1.97 2.03,0.85 -0.57,-0.63 -0.92,-1.49 -0.07,-0.29 0.45,1.05 2.84,1.15 2.79,1.95 l 0.01,0.07 -0.23,-0.20 0,0 z m -1.06,-1.01 c -0.70,-0.83 -0.54,-1.35 -7.95e-4,-0.15 0.13,0.10 0.61,0.80 7.95e-4,0.15 z m -3.37,-0.06 c 0.30,-0.20 0.12,0.21 0,0 z m -0.02,-0.39 c -0.81,-0.07 -1.69,-0.10 -0.38,-0.19 0.57,0.09 0.56,0.20 0.38,0.19 z m 8.63,4.84 c -0.05,-0.20 -0.24,0.20 0,0 z m 1.49,-0.20 c -0.08,-0.22 -0.15,0.29 0,0 z m -0.92,-0.06 c -0.32,-0.05 0.10,0.10 0,0 z m 0.48,-0.01 c -0.04,-0.13 -0.24,0.21 0,0 z m 1.08,-0.12 c 0.48,-0.58 -0.63,0.20 0,0 z m 8.78,-0.11 c 1.27,-0.21 -1.59,-0.26 -2.00,-0.32 -1.21,-0.06 -2.99,-1.26 -3.75,-1.06 1.50,1.08 3.25,1.59 5.09,1.46 l 0.39,-0.01 0.27,-0.06 0,0 z m -10.54,-0.06 c -0.14,-0.21 -0.07,0.21 0,0 z m 0.43,-0.06 c -0.32,-0.09 -0.11,0.27 0,0 z m 0.92,-0.03 c -0.32,-0.05 0.10,0.10 0,0 z m -1.24,-0.09 c -0.18,-0.27 -0.20,-0.04 0,0 z m 0.07,-0.34 c -0.62,-0.60 0.25,0.71 0,0 z m 0.39,0.13 c -0.34,-0.30 0.15,0.37 0,0 z m 0.80,-0.11 c -0.11,-0.42 -0.22,0.65 0,0 z m 0.51,0.11 c 0.05,-0.33 -0.29,0.29 0,0 z m -1.51,-0.37 c -0.25,-0.56 0.07,0.68 0,0 z m 1.71,0.02 c -0.79,-0.57 -0.42,0.42 0,0 z m -1.05,-0.01 c 1.06,-0.74 -0.72,0.21 0.37,-0.91 -0.40,0.08 -0.82,1.02 -0.37,0.91 z m -2.66,-0.48 c -0.18,-1.19 -1.08,-1.42 -1.21,-1.60 -0.54,0.31 1.84,2.92 1.21,1.60 z m 0.33,0.25 c 0.01,-0.84 -1.64,-3.04 -0.53,-1.15 0.21,0.21 0.43,1.26 0.53,1.15 z m 0.45,-0.89 c 0.14,-0.75 -0.50,-1.87 -1.09,-1.27 0.27,0.06 0.82,3.36 1.09,1.27 z m 2.52,0.49 c -0.20,-0.09 -0.09,0.27 0,0 z m 1.38,0.01 c -0.72,0.03 0.41,0.07 0,0 z m -1.02,-0.13 c -0.35,-0.02 0.18,0.27 0,0 z m 0.34,0.12 c -0.15,-0.21 -0.15,0.21 0,0 z m -0.70,-0.20 c -0.07,-0.37 -0.14,0.49 0,0 z m 1.10,-0.06 c -0.29,-0.20 -0.46,0.28 0,0 z m 0.63,-0.00 c -0.08,-0.28 -0.45,0.38 0,0 z m -1.18,-0.13 c -0.21,-0.22 -0.07,0.23 0,0 z m -1.64,-0.03 c 0.24,-0.35 -0.50,0.06 0,0 z m 1.26,-0.11 c -0.08,-0.22 -0.15,0.29 0,0 z m 1.73,0.02 c 0.05,-0.33 -0.29,0.29 0,0 z m -3.98,-0.08 c 0.14,-0.39 -0.49,0.33 0,0 z m -2.47,-0.09 c -0.23,-1.05 -1.42,-0.09 0,0 z m 5.80,0.01 c -0.42,-0.17 -0.64,0.10 0,0 z m -1.85,-0.15 c -0.29,-0.23 0.09,0.35 0,0 z m 0.80,0.05 c 0.00,-0.24 -0.17,0.29 0,0 z m -1.41,-0.08 c -0.19,-0.42 -0.07,0.57 0,0 z m 0.21,0.06 c -0.14,-0.21 -0.07,0.21 0,0 z m 0.81,0 c -0.14,-0.21 -0.15,0.20 0,0 z M 22.27,17.05 c -0.16,-0.19 -0.03,0.30 0,0 z m 0.76,0.06 c -0.47,-0.25 -0.19,0.14 0,0 z m 0.93,-0.06 c -0.14,-0.20 -0.07,0.21 0,0 z m 0.82,-0.10 c -0.10,0.10 0.06,0.21 0,0 z m -0.53,-0.06 c -0.29,-0.76 0.05,0.60 0,0 z m 0.38,0.03 c -0.24,-0.09 -0.22,0.27 0,0 z m -2.07,0.00 c -0.05,-0.20 -0.24,0.20 0,0 z m 0.90,0 c -0.22,-0.21 -0.23,0.21 0,0 z M 19.40,16.73 c -0.03,-0.32 -0.20,0.31 0,0 z m 0.24,-0.14 c -0.41,-0.29 -0.02,0.57 0,0 z m 2.57,0.10 c -0.45,-0.23 -0.40,0.31 0,0 z m 3.50,-0.18 c -0.38,0.04 -0.20,0.53 0,0 z m -5.49,-0.03 c -0.10,0.10 0.06,0.21 0,0 z m 2.57,0.00 c -0.31,-0.06 -0.24,0.35 0,0 z m -0.79,-0.16 c -0.23,-0.40 -0.08,0.34 0,0 z m 1.73,-0.07 c -0.10,0.10 0.06,0.21 0,0 z m -3.28,0.04 c -0.14,-0.20 -0.07,0.21 0,0 z m 2.31,-0.08 c -0.18,-0.03 -0.06,-0.02 0,0 z M 19.52,16.18 c -0.07,-0.23 -0.21,0.22 0,0 z m 4.51,-0.10 c -0.10,0.10 0.06,0.21 0,0 z m 1.17,-0.05 c -0.10,0.10 0.06,0.21 0,0 z m -0.85,-0.09 c -0.06,-0.32 -0.17,0.54 0,0 z m -2.86,0.01 c 0.64,0.19 0.44,-0.21 -0.35,-0.13 0.37,0.01 -0.04,0.44 0.35,0.13 l 0,0 z m -2.62,-0.01 c 0.30,-0.41 -1.28,-0.03 -0.10,-0.12 -0.47,0.20 -0.46,0.26 0.10,0.12 z m 0.80,0.01 c -0.14,-0.20 -0.06,0.21 0,0 z m 0.55,-8.83e-4 c -0.25,-0.10 -0.04,0.18 0,0 z m 2.10,-0.05 c -0.14,-0.22 -0.25,0.18 0,0 z m 1.20,-0.00 c -0.16,-0.11 -0.13,0.20 0,0 z M 20.31,15.68 c -0.22,-0.55 -0.04,0.48 0,0 z M 19.52,15.65 c -0.63,-0.42 0.30,0.38 0,0 z m 3.29,-0.17 c -0.26,-0.54 0.12,0.67 0,0 z m -0.94,0.11 c -0.14,-0.20 -0.06,0.21 0,0 z m 2.19,-0.44 c -0.57,0.31 -0.62,0.82 0,0 z m -0.76,0.22 c -0.07,-0.39 -0.08,0.49 0,0 z m -4.77,0.04 c 0.12,-0.21 -0.68,0.19 0,0 z m 4.53,-0.18 c -0.18,-0.38 -0.10,0.64 0,0 z m -3.86,0.06 c -0.16,-0.11 -0.13,0.20 0,0 z m 2.82,-0.11 c -0.13,-0.40 -0.03,0.40 0,0 z m 0.37,-0.04 c -0.10,0.10 0.06,0.21 0,0 z m -3.72,0.04 c -0.31,-0.27 -0.08,0.25 0,0 z m 1.43,-0.11 c -0.14,-0.21 -0.07,0.21 0,0 z m 3.44,-0.09 c -0.15,-0.31 -0.05,0.42 0,0 z m -1.22,0.03 c -0.14,-0.20 -0.06,0.21 0,0 z m -3.64,-0.03 c -0.32,-0.09 -0.05,0.10 0,0 z m 1.25,-0.12 c -0.10,0.10 0.06,0.21 0,0 z m 0.98,-0.07 c -0.14,-0.20 -0.07,0.21 0,0 z m -0.55,-0.21 c -0.32,-0.22 -0.10,0.50 0,0 z m -1.23,-0.13 c -0.30,-0.33 0.16,0.39 0,0 z m 3.69,-0.02 C 23.22,12.66 23.10,9.98 25.04,9.22 26.40,9.09 25.76,8.12 25.05,8.27 26.40,8.53 23.33,8.49 24.45,9.15 26.46,8.30 23.32,10.34 24.04,9.07 23.39,10.65 23.81,7.75 23.33,9.35 22.44,10.91 22.61,12.84 22.77,14.51 l 0.05,-0.12 0,0 z m 0.11,-2.15 c 0.21,-0.98 0.37,-0.62 0,0 z m 0.03,-0.68 c 0.35,-1.09 1.07,-1.26 0,0 z m -4.63,2.78 c -0.77,-0.30 0.25,0.33 0,0 z m 1.15,-0.04 c -0.20,-0.12 0.14,0.30 0,0 z m -0.64,-0.29 c -0.65,-0.46 0.59,0.69 0,0 z m 0.99,-0.14 c -0.20,-0.25 0.11,0.43 0,0 z m 10.24,-0.42 C 29.70,11.92 29.51,9.87 28.04,9.02 27.16,8.34 24.17,9.38 26.78,9.22 c 0.17,0.03 -0.85,0.24 0.25,0.55 1.02,0.11 2.40,0.78 0.59,0.26 -1.09,0.19 3.27,1.78 0.80,0.93 -0.36,-0.06 1.79,2.85 0.31,1.14 0.17,1.52 -0.82,-2.59 -0.76,-0.31 0.10,-1.01 -1.04,-1.96 -1.06,-1.57 -0.22,-0.81 -2.18,-1.37 -0.84,-0.35 1.43,1.21 2.22,3.11 3.95,3.97 l 0.03,-0.13 0.01,-0.28 0,0 z M 29.62,13.31 c -0.25,-0.42 0.49,0.39 0,0 z m 0,-0.40 c -0.36,-0.37 0.65,0.37 0,0 z m -0.06,-0.65 c -0.26,-0.54 0.49,0.45 0,0 z M 27.52,9.27 c 0.14,-0.20 0.14,0.20 0,0 z M 24.17,8.49 c 0.42,-0.63 0.71,-0.88 0.08,-0.47 0.34,-1.58 -0.94,1.11 -0.29,0.83 l 0.21,-0.36 0,0 z m -0.54,-0.06 c -0.10,0.05 0.09,0.32 0,0 z m 1.01,-0.31 c -0.37,0.22 -0.26,0.56 0,0 l 0,0 z m 1.49,-0.01 c -0.49,-0.24 0.19,0.38 0,0 z M 25.00,7.98 c -0.14,-0.49 -0.21,0.42 0,0 z m 1.61,-0.06 c -0.42,-0.09 0.04,0.18 0,0 z m -0.81,-0.15 c -0.26,-0.01 0.15,0.31 0,0 z M 23.57,7.58 c -0.19,-1.04 0.02,0.96 0,0 z m 1.86,0.18 c -0.23,-0.18 -0.17,0.31 0,0 z M 26.60,7.61 C 26.25,6.64 24.30,5.05 25.68,6.85 25.80,7.74 24.24,4.14 24.50,6.32 c 0.03,0.71 1.82,1.70 2.10,1.28 z m 0.30,0.07 c -0.14,-0.20 -0.07,0.21 0,0 z M 24.77,7.56 c -0.16,-0.11 -0.13,0.20 0,0 z m 2.34,-0.08 c -0.33,-0.22 0.19,0.29 0,0 z M 24.84,7.36 c -0.03,-0.22 -0.23,0.27 0,0 z m 1.97,0.02 c -0.14,-0.20 -0.07,0.21 0,0 z M 23.85,7.20 C 23.52,6.47 24.56,4.42 23.97,6.21 23.86,7.40 24.40,5.04 24.75,4.93 24.88,4.62 24.09,4.44 23.95,3.94 c -0.65,1.19 0.50,0.13 -0.21,1.02 0.36,0.32 -1.07,1.12 -0.13,2.00 0.09,-0.09 0.12,0.81 0.25,0.23 z m 0.49,-0.13 c -0.25,0.19 -0.14,0.34 0,0 z m 2.77,-0.00 c -0.32,-0.05 0.10,0.10 0,0 z m -2.64,-0.28 c -0.43,-0.21 0.13,0.30 0,0 z m -3.14,-0.09 c 0.59,-0.68 -0.86,0.35 0,0 z m 6.21,-3.53e-4 c -0.63,-0.09 -0.68,0.24 0,0 z m -1.19,-0.05 c -0.21,-0.22 -0.13,0.20 0,0 z m -2.03,-0.09 c 0.05,-0.39 -0.30,0.11 0,0 z m -2.53,-0.08 c -0.16,-0.11 -0.13,0.20 0,0 z m 0.38,-0.14 c 0.26,-0.46 -0.56,0.35 0,0 z m 4.34,-0.09 c 0.56,-0.66 -0.67,0.41 0,0 z M 25.76,6.10 c -0.14,-0.20 -0.07,0.21 0,0 z M 22.31,5.90 c -0.14,-0.30 -0.14,0.30 0,0 z m 3.29,-0.14 c -0.13,-0.40 -0.04,0.40 0,0 z m -3.82,0 c 0.14,-0.23 -0.42,0.24 0,0 z m 0.72,-0.16 c -0.38,0.03 0.22,0.22 0,0 z m 0.38,0.10 c -0.16,-0.11 -0.13,0.20 0,0 z m 3.32,-0.19 c 0.04,-0.57 -0.35,0.48 0,0 z M 22.17,5.36 c -0.70,0.11 -0.00,0.32 0,0 z m 3.01,0.09 c -0.02,-0.41 -0.19,0.41 0,0 z m -3.79,0.00 c -0.56,-0.25 -1.03,0.16 0,0 z m 1.61,-0.05 c -0.95,-0.25 0.22,0.27 0,0 l 0,0 z m 2.52,0.02 c -0.21,-0.20 -0.20,0.28 0,0 z M 25.03,5.13 c -0.22,-0.26 0.08,0.40 0,0 z m -4.37,-0.02 c -0.37,-0.21 0.15,0.27 0,0 z m 5.32,0.01 c -0.21,-0.19 -0.58,0.01 -0.08,0.07 l 0.08,-0.07 z m -4.20,-0.01 c -0.13,-0.20 -0.21,0.22 0,0 z m 0.55,0 c -0.14,-0.20 -0.07,0.21 0,0 z m 0.93,-9.71e-4 c -0.25,-0.10 -0.04,0.18 0,0 z m -1.73,-0.02 c -0.65,-0.20 -0.58,0.07 0,0 z m 1.23,-0.06 c -0.14,-0.17 -0.19,0.21 0,0 z m -0.76,-0.08 c -0.11,-0.23 -0.43,0.17 0,0 z m 1.60,-0.13 c -0.22,-0.06 -0.04,0.38 0,0 z m 1.77,0.03 c -0.30,-0.17 -0.45,0.25 0,0 z m 0.72,-0.02 c -0.15,-0.21 -0.15,0.21 0,0 z m 0.58,0.00 c -0.14,-0.33 -0.34,0.16 0,0 z M 22.66,4.63 c -0.16,-0.11 -0.13,0.20 0,0 z M 25.70,4.55 c -0.16,-0.11 -0.13,0.20 0,0 z M 23.15,4.40 c -0.27,-0.06 -0.06,0.38 0,0 l 0,0 z m 3.72,0.06 c -0.15,-0.21 -0.15,0.21 0,0 z m -0.76,-0.09 c -0.16,-0.11 -0.13,0.20 0,0 z m -4.47,-0.12 c -0.10,0.10 0.06,0.21 0,0 z m 3.07,0.01 c -0.93,-0.45 0.69,0.54 0,0 z m 2.04,0.02 c -0.14,-0.21 -0.14,0.21 0,0 z M 26.35,4.17 c 0.09,-0.35 -0.30,0.39 0,0 z m -0.93,0.00 c -0.14,-0.20 -0.07,0.21 0,0 z M 23.22,4.01 c -0.10,0.10 0.06,0.21 0,0 z m -1.51,-0.16 c -0.60,-0.70 0.39,0.68 0,0 z m 3.35,0.14 c -0.14,-0.20 -0.07,0.21 0,0 z M 24.71,3.88 c -0.38,-0.82 -0.22,0.23 0,0 l 0,0 z M 22.95,3.80 c -0.06,-0.30 -0.08,0.40 0,0 z m 3.45,0.00 c -0.20,-0.10 -0.09,0.27 0,0 z m 0.42,0.02 c 0.37,-0.48 -0.65,0.35 0,0 z M 21.84,3.58 c -0.18,-0.43 0.10,0.66 0,0 z m 4.19,0.15 c 0.79,-1.19 0.40,-1.00 0,0 z M 25.41,3.52 c -0.22,-0.21 -0.22,0.21 0,0 z m -0.57,-0.19 c -0.22,-0.09 0.17,0.40 0,0 z m 0.98,-0.14 c -0.23,-0.32 -0.09,0.78 0,0 z m 0.35,-0.60 c -0.08,-0.31 -0.15,0.39 0,0 z m 0.05,-0.26 c -0.14,-0.30 -0.14,0.30 0,0 z m 6.54,33.67 c 0.32,-0.09 0.05,0.10 0,0 z m 0.54,-2.20 c 0.45,-0.61 0.77,-0.04 0,0 z M 28.46,33.40 c 0.07,-0.21 0.14,0.20 0,0 z m -12.82,-2.00 c -0.68,-0.64 0.74,0.30 0,0 z M 26.03,16.01 c 0.27,-0.65 0.21,0.15 0,0 z m -0.21,-0.30 c 0.14,-0.20 0.14,0.20 0,0 z M 19.91,7.09 c 1.11,-0.95 -0.90,1.02 0,0 z m -0.65,0.01 c 0.12,-0.31 0.08,0.20 0,0 z M 18.61,6.98 c -0.71,-0.04 -2.74,-0.78 -0.87,-0.32 0.73,0.24 1.09,0.15 0.30,-0.29 0.66,0.63 2.06,0.24 1.34,0.01 0.54,0.39 2.11,-0.66 0.95,0.33 0.14,-0.50 -1.51,0.43 -1.71,0.26 z m 0.84,-0.11 c 0.21,-0.22 0.07,0.23 0,0 z m 0.84,-0.70 c 0.15,-0.21 0.15,0.21 0,0 z" />
</svg>
