<?xml version="1.0" encoding="UTF-8" standalone="no"?>
<!-- Created with Inkscape (http://www.inkscape.org/) -->
<svg xmlns:dc="http://purl.org/dc/elements/1.1/" xmlns:cc="http://creativecommons.org/ns#" xmlns:rdf="http://www.w3.org/1999/02/22-rdf-syntax-ns#" xmlns:svg="http://www.w3.org/2000/svg" xmlns="http://www.w3.org/2000/svg" version="1.0" width="100%" height="100%" viewBox="0 0 48 48" id="svg2">
<defs id="defs7" />
<path d="M 23.32,44.07 C 19.65,43.47 14.58,42.06 12.75,41.13 11.65,40.57 9.61,39.02 8.15,37.63 6.43,35.99 4.21,32.76 4.07,31.67 3.97,30.93 3.87,30.77 3.63,30.97 3.39,31.17 3.20,30.90 2.79,29.82 2.18,28.22 1.83,25.23 2.28,25.51 2.71,25.77 2.62,24.07 2.16,23.18 1.83,22.53 1.81,22.24 2.07,21.08 c 0.16,-0.73 0.48,-1.67 0.72,-2.06 0.23,-0.39 0.49,-1.15 0.57,-1.67 0.07,-0.52 0.47,-1.41 0.87,-1.97 0.40,-0.56 0.73,-1.18 0.73,-1.37 0,-0.68 2.21,-3.30 4.05,-4.79 2.34,-1.90 5.08,-3.44 6.93,-3.90 0.79,-0.19 2.04,-0.53 2.77,-0.74 0.72,-0.20 2.29,-0.55 3.48,-0.75 4.01,-0.70 6.87,-0.06 11.48,2.56 3.88,2.22 6.60,4.39 8.27,6.59 1.59,2.10 3.83,6.50 4.27,8.39 0.45,1.95 0.21,6.65 -0.42,8.40 -0.26,0.73 -0.67,1.95 -0.89,2.71 -0.22,0.76 -0.64,1.74 -0.93,2.17 -0.29,0.43 -0.67,1.13 -0.85,1.56 -0.17,0.43 -0.40,0.72 -0.50,0.66 -0.10,-0.06 -0.25,0.05 -0.33,0.25 -0.08,0.21 -0.04,0.31 0.09,0.22 0.13,-0.08 0.23,0.01 0.23,0.20 0,0.42 -1.83,2.27 -3.16,3.19 -0.90,0.62 -4.02,1.79 -4.79,1.79 -0.20,0.00 -0.74,0.23 -1.20,0.50 -1.54,0.93 -2.84,1.17 -6.28,1.14 -1.79,-0.01 -3.53,-0.07 -3.86,-0.12 z m 4.70,-0.80 c -0.37,-0.16 -0.23,-0.21 0.60,-0.23 0.59,-0.01 1.54,-0.11 2.11,-0.22 1.20,-0.23 1.36,0.03 0.24,0.41 l -0.78,0.26 0.84,-0.14 c 0.46,-0.07 1.16,-0.38 1.56,-0.68 0.40,-0.29 1.25,-0.73 1.91,-0.98 0.65,-0.24 1.05,-0.48 0.90,-0.53 -0.39,-0.13 -0.34,-0.53 0.05,-0.53 0.18,0 0.59,-0.21 0.90,-0.47 l 0.56,-0.47 -0.58,-0.00 c -0.57,-0.00 -0.53,-0.27 0.04,-0.41 1.52,-0.35 1.62,-0.36 1.62,-0.05 0,0.19 0.14,0.13 0.36,-0.15 0.26,-0.33 0.32,-0.35 0.22,-0.07 -0.07,0.21 -0.57,0.74 -1.10,1.17 -0.53,0.42 -0.92,0.82 -0.86,0.87 0.05,0.05 0.58,-0.11 1.16,-0.36 0.58,-0.26 0.91,-0.47 0.74,-0.48 -0.17,-0.00 0.11,-0.47 0.64,-1.03 0.98,-1.03 1.70,-1.13 0.85,-0.11 -0.25,0.30 -0.00,0.08 0.56,-0.49 0.56,-0.57 1.02,-1.20 1.02,-1.38 0,-0.39 1.59,-3.16 1.93,-3.38 0.34,-0.21 0.29,-0.60 -0.07,-0.60 -0.17,0 -0.43,0.29 -0.57,0.66 l -0.26,0.66 -0.02,-0.62 c -0.01,-0.36 0.23,-0.90 0.59,-1.29 0.34,-0.37 0.55,-0.82 0.48,-1.02 -0.07,-0.19 -0.05,-0.48 0.03,-0.63 0.10,-0.17 0.23,-0.04 0.33,0.32 0.14,0.52 0.17,0.48 0.19,-0.27 0.01,-0.48 0.29,-1.36 0.63,-1.96 0.53,-0.95 0.61,-1.41 0.66,-3.71 0.05,-2.53 -0.08,-3.46 -0.96,-6.52 -0.28,-0.97 -0.42,-1.18 -0.65,-0.97 -0.31,0.29 -0.21,1.13 0.14,1.13 0.11,0 0.21,0.10 0.21,0.23 0,0.61 -0.69,-0.13 -0.96,-1.03 -0.16,-0.55 -0.42,-1.26 -0.56,-1.57 l -0.26,-0.56 -0.23,0.52 c -0.14,0.32 -0.14,0.58 -0.00,0.68 0.46,0.33 0.82,1.27 0.83,2.15 0.00,0.49 0.10,1.06 0.22,1.25 0.13,0.22 0.08,0.53 -0.13,0.88 -0.23,0.36 -0.27,0.59 -0.10,0.69 0.38,0.23 0.31,0.92 -0.07,0.77 -0.18,-0.06 -0.45,-0.00 -0.60,0.14 -0.20,0.20 -0.27,0.14 -0.27,-0.21 0,-0.26 0.08,-0.57 0.18,-0.67 0.29,-0.29 0.23,-1.44 -0.10,-1.78 -0.24,-0.25 -0.31,-0.25 -0.31,-0.01 0,0.22 -0.07,0.23 -0.26,0.03 -0.19,-0.19 -0.19,-0.39 -0.00,-0.71 0.19,-0.33 0.26,-0.35 0.27,-0.08 0.01,0.27 0.07,0.25 0.27,-0.08 0.20,-0.35 0.30,-0.38 0.46,-0.12 0.12,0.20 0.19,0.03 0.17,-0.46 -0.01,-0.54 -0.30,-1.10 -0.97,-1.86 -0.52,-0.59 -0.83,-1.07 -0.70,-1.07 0.13,0 0.31,0.10 0.39,0.24 0.31,0.51 0.65,0.22 0.50,-0.42 -0.11,-0.49 -0.09,-0.57 0.09,-0.30 0.35,0.52 0.33,-0.12 -0.02,-0.80 C 41.68,13.92 37.42,9.85 35.80,8.70 35.19,8.26 35.09,8.24 35.22,8.58 c 0.09,0.24 0.04,0.41 -0.13,0.41 -0.18,0.00 -0.16,0.08 0.06,0.23 0.31,0.20 0.30,0.23 -0.05,0.23 -0.57,0.00 -1.03,-0.88 -0.67,-1.31 0.21,-0.25 -0.00,-0.48 -1.03,-1.07 C 32.66,6.67 31.94,6.34 31.78,6.34 c -0.15,0 -0.23,-0.09 -0.16,-0.20 C 31.69,6.02 31.62,5.93 31.46,5.92 31.29,5.91 30.51,5.72 29.71,5.50 28.37,5.13 22.84,4.57 22.61,4.79 c -0.05,0.05 0.10,0.09 0.36,0.10 0.38,0.00 0.36,0.05 -0.13,0.30 -0.33,0.16 -0.64,0.50 -0.68,0.74 -0.05,0.26 0.01,0.38 0.16,0.28 0.32,-0.20 1.48,0.08 1.48,0.36 0,0.11 -0.18,0.21 -0.41,0.21 -0.25,0 -0.32,0.08 -0.18,0.21 0.12,0.11 0.80,0.15 1.51,0.08 0.95,-0.09 1.24,-0.21 1.15,-0.45 -0.07,-0.19 0.04,-0.33 0.28,-0.34 0.26,-0.01 0.30,-0.06 0.10,-0.14 -0.17,-0.06 -0.47,0.00 -0.66,0.17 C 25.11,6.75 24.86,6.44 25.28,5.94 25.58,5.57 25.55,5.55 24.95,5.70 c -0.52,0.13 -0.66,0.08 -0.66,-0.23 0,-0.33 0.18,-0.37 1.26,-0.22 0.69,0.09 1.57,0.16 1.94,0.16 0.37,-0.00 0.73,0.14 0.81,0.34 0.07,0.19 0.34,0.35 0.59,0.35 0.25,0 0.45,0.07 0.45,0.16 0,0.31 -0.80,1.04 -1.15,1.04 -0.29,0 -0.30,0.06 -0.02,0.42 0.17,0.23 0.22,0.34 0.11,0.24 -0.11,-0.09 -0.36,0.03 -0.54,0.30 -0.18,0.26 -0.60,0.48 -0.92,0.48 -0.68,0 -0.79,-0.47 -0.15,-0.64 0.23,-0.06 0.55,-0.43 0.70,-0.82 0.14,-0.38 0.43,-0.70 0.65,-0.70 0.38,0 0.50,-0.27 0.23,-0.54 -0.22,-0.22 -0.83,0.08 -0.67,0.34 0.07,0.12 -0.08,0.29 -0.36,0.36 -0.29,0.07 -0.48,0.29 -0.44,0.52 0.05,0.32 -0.23,0.39 -1.80,0.44 -1.33,0.04 -1.87,-0.02 -1.87,-0.23 -0.00,-0.20 -0.05,-0.21 -0.18,-0.03 -0.20,0.30 -1.26,0.61 -1.26,0.36 0,-0.09 0.13,-0.31 0.30,-0.49 0.24,-0.26 0.24,-0.29 0,-0.15 -0.18,0.10 -0.30,0.02 -0.30,-0.21 0,-0.34 -0.06,-0.34 -0.61,0.02 -0.33,0.22 -1.12,0.42 -1.74,0.44 -0.62,0.02 -1.44,0.16 -1.81,0.32 -0.37,0.15 -1.35,0.27 -2.17,0.25 l -1.49,-0.02 1.27,-0.37 c 0.80,-0.23 1.23,-0.48 1.16,-0.66 -0.06,-0.16 0.01,-0.42 0.17,-0.58 0.17,-0.17 -0.08,-0.14 -0.65,0.09 -0.51,0.21 -0.98,0.38 -1.03,0.38 -0.05,0 -0.03,0.12 0.05,0.26 0.10,0.17 0.00,0.21 -0.31,0.11 -0.31,-0.10 -0.53,-0.02 -0.62,0.21 -0.07,0.20 -0.29,0.36 -0.48,0.36 -0.18,0 -0.40,0.16 -0.48,0.36 -0.07,0.19 -0.26,0.36 -0.41,0.36 -0.20,0 -0.19,-0.09 0.01,-0.35 0.48,-0.58 -1.00,0.02 -1.63,0.66 -1.06,1.09 -1.97,2.28 -1.83,2.41 0.07,0.07 0.04,0.28 -0.06,0.45 -0.11,0.17 -0.20,0.41 -0.20,0.53 -0.00,0.12 -0.15,0.27 -0.33,0.33 -0.22,0.07 -0.27,0.00 -0.14,-0.19 0.32,-0.52 -0.41,0.02 -1.04,0.77 -0.31,0.37 -0.70,0.67 -0.87,0.67 -0.38,0 -1.92,2.29 -2.15,3.19 -0.12,0.49 -0.07,0.66 0.18,0.66 0.19,0 0.40,-0.13 0.48,-0.30 0.07,-0.16 0.10,-0.08 0.07,0.18 -0.03,0.26 -0.16,0.48 -0.28,0.48 -0.41,0 -1.23,0.95 -0.97,1.14 0.15,0.11 0.06,0.50 -0.26,1.08 -0.45,0.81 -0.48,1.11 -0.31,2.83 0.13,1.35 0.11,1.97 -0.08,2.09 -0.19,0.12 -0.18,0.27 0.04,0.54 0.21,0.26 0.26,0.71 0.14,1.49 -0.14,0.96 -0.06,1.31 0.61,2.63 0.50,0.99 0.89,1.47 1.10,1.39 0.17,-0.06 0.32,-0.00 0.32,0.14 0,0.14 -0.09,0.26 -0.20,0.26 -0.11,0 -0.20,0.16 -0.20,0.36 0,0.20 0.19,0.36 0.43,0.36 0.51,0 0.99,0.77 0.79,1.29 -0.16,0.42 0.56,1.21 1.23,1.32 0.98,0.16 2.83,1.73 2.04,1.73 -0.13,0 -0.24,-0.08 -0.24,-0.19 0,-0.10 -0.43,-0.44 -0.96,-0.73 -0.75,-0.42 -0.96,-0.46 -0.96,-0.19 0,0.40 0.58,0.95 0.79,0.73 0.15,-0.15 2.09,1.26 2.41,1.77 0.10,0.17 0.33,0.30 0.51,0.30 0.17,0 0.45,0.16 0.62,0.36 0.24,0.29 0.22,0.36 -0.10,0.36 -0.22,0 -0.57,-0.16 -0.77,-0.36 -0.19,-0.20 -0.49,-0.36 -0.64,-0.36 -0.44,0.00 1.11,1.18 1.57,1.19 0.22,0.00 0.62,0.23 0.89,0.52 l 0.47,0.51 -0.14,-0.57 c -0.08,-0.31 -0.31,-0.71 -0.52,-0.88 -0.43,-0.35 -0.20,-0.30 0.77,0.18 0.38,0.19 0.62,0.47 0.55,0.65 -0.07,0.19 0.05,0.31 0.34,0.31 0.25,0 0.55,0.13 0.65,0.30 0.26,0.41 1.71,0.90 2.17,0.72 0.21,-0.08 0.50,0.02 0.66,0.25 0.46,0.63 6.03,1.86 5.84,1.28 -0.04,-0.14 -0.34,-0.33 -0.67,-0.42 -0.54,-0.15 -0.54,-0.16 -0.06,-0.18 0.78,-0.03 1.27,0.21 1.13,0.58 -0.09,0.25 0.23,0.32 1.47,0.31 0.87,-0.00 1.66,0.05 1.74,0.13 0.08,0.08 0.48,0.14 0.89,0.13 0.63,-0.01 0.67,-0.04 0.26,-0.22 z m -2.17,-0.46 c -0.42,-0.16 -0.37,-0.21 0.31,-0.36 0.88,-0.19 1.31,0.00 0.75,0.36 -0.41,0.26 -0.43,0.26 -1.07,0.00 z m -2.29,-0.71 c 0,-0.30 0.68,-0.53 0.83,-0.28 0.07,0.11 -0.04,0.27 -0.25,0.35 -0.50,0.19 -0.58,0.18 -0.58,-0.06 z m -2.97,-1.05 c -0.31,-0.45 -0.37,-0.47 -0.39,-0.12 -0.01,0.48 -0.61,0.54 -1.60,0.17 -0.47,-0.18 -0.58,-0.32 -0.39,-0.51 0.33,-0.33 2.65,-0.48 2.84,-0.18 0.07,0.12 0.37,0.22 0.66,0.23 l 0.52,0.00 -0.55,0.30 c -0.30,0.16 -0.47,0.38 -0.38,0.47 0.09,0.09 0.05,0.16 -0.08,0.16 -0.13,0 -0.42,-0.24 -0.63,-0.54 z m 1.76,0.30 c 0,-0.13 0.16,-0.24 0.36,-0.24 0.19,0 0.36,0.10 0.36,0.24 0,0.13 -0.16,0.24 -0.36,0.24 -0.19,0 -0.36,-0.10 -0.36,-0.24 z m 2.77,0 c -0.18,-0.30 0.13,-0.30 0.60,0 0.31,0.20 0.30,0.23 -0.04,0.23 -0.22,0.00 -0.47,-0.10 -0.55,-0.23 z m 2.18,0.02 c 0.12,-0.11 0.47,-0.28 0.77,-0.37 0.42,-0.12 0.51,-0.08 0.39,0.21 -0.08,0.20 -0.42,0.37 -0.77,0.37 -0.37,0 -0.53,-0.08 -0.39,-0.21 z m 5.01,-0.12 c 0,-0.18 0.14,-0.28 0.32,-0.21 0.17,0.06 0.26,0.21 0.18,0.33 -0.20,0.33 -0.50,0.25 -0.50,-0.12 z m -8.52,-0.14 c 0.27,-0.17 0.17,-0.23 -0.42,-0.23 -0.43,-0.00 -0.78,-0.11 -0.78,-0.24 0,-0.43 1.21,-0.36 1.50,0.08 0.28,0.44 0.21,0.64 -0.23,0.63 -0.36,-0.00 -0.36,-0.03 -0.05,-0.23 z M 15.90,40.71 c 0.08,-0.07 0.28,-0.08 0.46,-0.01 0.19,0.07 0.13,0.13 -0.14,0.14 -0.25,0.00 -0.39,-0.04 -0.31,-0.12 z m 14.05,-0.09 c 0.08,-0.13 0.25,-0.24 0.39,-0.24 0.13,0 0.17,0.10 0.09,0.24 -0.08,0.13 -0.25,0.24 -0.39,0.24 -0.13,0 -0.17,-0.10 -0.09,-0.24 z M 16.69,39.92 c -0.29,-0.11 -0.36,-0.24 -0.20,-0.34 0.31,-0.19 1.03,0.04 1.03,0.34 0,0.25 -0.18,0.25 -0.82,0 z m 4.93,-0.02 c 0,-0.13 -0.16,-0.24 -0.36,-0.24 -0.39,0 -0.48,-0.37 -0.14,-0.59 0.36,-0.22 1.46,0.30 1.46,0.70 0,0.20 -0.21,0.36 -0.48,0.36 -0.26,0 -0.48,-0.10 -0.48,-0.24 z m 3.27,-0.02 c 0.11,-0.17 0.00,-0.21 -0.32,-0.11 -0.49,0.15 -1.74,-0.27 -1.74,-0.59 0,-0.32 0.93,-0.42 1.05,-0.11 0.06,0.16 0.50,0.37 0.98,0.46 0.82,0.15 0.99,0.62 0.22,0.62 -0.20,0 -0.29,-0.11 -0.19,-0.26 z m 1.63,-0.17 c -0.08,-0.32 -0.27,-0.41 -0.70,-0.33 -0.69,0.13 -0.79,-0.32 -0.11,-0.54 0.38,-0.12 1.14,0.18 1.93,0.78 0.13,0.10 -0.50,0.53 -0.79,0.53 -0.11,0.00 -0.25,-0.19 -0.32,-0.44 z m 7.51,-0.02 c 0.29,-0.32 0.30,-0.46 0.06,-0.70 -0.23,-0.24 -0.18,-0.39 0.24,-0.74 0.37,-0.30 0.44,-0.48 0.24,-0.56 -0.16,-0.06 -0.05,-0.10 0.23,-0.08 0.66,0.03 0.71,0.40 0.07,0.57 -0.56,0.14 -0.87,0.79 -0.37,0.79 0.63,0 0.40,0.90 -0.25,1.02 -0.56,0.10 -0.58,0.08 -0.24,-0.28 z m -19.12,-0.09 c -0.30,-0.16 -0.48,-0.36 -0.41,-0.44 0.14,-0.14 -2.19,-1.22 -2.77,-1.27 -0.39,-0.03 -1.92,-1.09 -1.92,-1.32 0,-0.07 0.48,-0.13 1.08,-0.12 0.79,0.01 1.24,0.17 1.70,0.60 0.51,0.48 0.59,0.50 0.44,0.12 -0.20,-0.52 0.15,-0.38 1.02,0.39 0.42,0.38 0.53,0.40 0.64,0.10 0.08,-0.21 -0.04,-0.39 -0.33,-0.47 -0.62,-0.16 -0.59,-0.65 0.03,-0.65 0.27,0 0.42,0.10 0.34,0.24 -0.08,0.14 0.15,0.24 0.57,0.24 0.39,0 0.79,0.11 0.88,0.25 0.08,0.14 0.39,0.23 0.67,0.21 0.28,-0.02 0.62,-0.01 0.76,0.02 0.13,0.03 0.40,0.07 0.60,0.08 0.19,0.01 0.36,0.24 0.36,0.50 0,0.32 0.13,0.45 0.42,0.41 0.48,-0.08 0.57,0.33 0.12,0.51 -0.16,0.06 -0.06,0.13 0.22,0.14 1.49,0.05 1.74,0.75 0.26,0.72 -1.12,-0.01 -2.44,-0.41 -1.51,-0.45 0.34,-0.01 0.39,-0.07 0.17,-0.21 -0.17,-0.10 -0.24,-0.40 -0.17,-0.66 0.09,-0.32 0.05,-0.30 -0.14,0.08 -0.18,0.35 -0.50,0.54 -0.91,0.53 -0.57,-0.00 -0.59,-0.03 -0.20,-0.32 0.75,-0.56 0.48,-1.02 -0.51,-0.88 -0.18,0.02 -0.41,-0.08 -0.51,-0.24 -0.09,-0.15 -0.30,-0.24 -0.45,-0.19 -0.17,0.05 -0.10,0.28 0.21,0.62 0.59,0.63 0.64,1.14 0.10,0.93 -0.30,-0.11 -0.36,-0.03 -0.26,0.33 0.06,0.26 0.10,0.48 0.08,0.47 -0.02,-0.00 -0.28,-0.14 -0.58,-0.31 z m -0.89,-1.60 c -0.08,-0.13 -0.33,-0.23 -0.55,-0.23 -0.35,0.00 -0.35,0.03 -0.04,0.23 0.47,0.30 0.79,0.30 0.60,0 z m 16.05,1.58 c 0,-0.05 0.10,-0.17 0.24,-0.25 0.13,-0.08 0.24,-0.03 0.24,0.10 0,0.14 -0.10,0.25 -0.24,0.25 -0.13,0 -0.24,-0.04 -0.24,-0.10 z m 1.68,-0.13 c 0,-0.13 0.16,-0.24 0.36,-0.24 0.20,0 0.36,0.10 0.36,0.24 0,0.13 -0.16,0.24 -0.36,0.24 -0.19,0 -0.36,-0.10 -0.36,-0.24 z m -3.80,-0.32 c -0.64,-0.32 -0.70,-0.63 -0.12,-0.64 0.36,-0.00 0.37,-0.03 0.06,-0.26 -0.28,-0.20 -0.26,-0.22 0.11,-0.07 0.26,0.10 0.88,0.17 1.37,0.14 0.49,-0.02 0.97,0.08 1.06,0.23 0.11,0.18 -0.03,0.23 -0.47,0.14 -0.45,-0.08 -0.64,-0.02 -0.64,0.23 0,0.22 -0.14,0.30 -0.37,0.21 -0.21,-0.08 -0.31,-0.04 -0.22,0.09 0.18,0.29 -0.07,0.26 -0.78,-0.08 z M 13.31,38.95 c -0.07,-0.12 0.08,-0.16 0.34,-0.09 0.56,0.14 0.63,0.31 0.13,0.31 -0.19,0 -0.40,-0.09 -0.48,-0.21 z m 18.45,-0.26 c 0,-0.13 0.17,-0.24 0.37,-0.24 0.20,0 0.30,0.10 0.22,0.24 -0.08,0.13 -0.25,0.24 -0.37,0.24 -0.12,0 -0.22,-0.10 -0.22,-0.24 z m 0.96,0.13 c 0,-0.25 0.46,-0.36 0.60,-0.13 0.08,0.13 -0.01,0.24 -0.22,0.24 -0.20,0 -0.37,-0.04 -0.37,-0.10 z m -7.96,-0.49 c -0.32,-0.39 -0.24,-0.44 0.34,-0.21 0.21,0.08 0.38,0.24 0.38,0.36 0,0.33 -0.39,0.25 -0.72,-0.14 z M 20.20,37.90 c -0.24,-0.66 0.07,-0.84 0.59,-0.32 0.20,0.20 0.48,0.38 0.60,0.38 0.12,0 0.22,0.10 0.22,0.24 0,0.13 -0.27,0.24 -0.61,0.24 -0.41,0 -0.67,-0.17 -0.81,-0.54 z m 10.33,0.23 c -0.32,-0.24 -0.33,-0.34 -0.07,-0.59 0.45,-0.42 0.70,-0.37 0.34,0.06 -0.25,0.31 -0.16,0.36 0.63,0.36 0.69,0.00 0.84,0.06 0.57,0.23 -0.48,0.31 -1.00,0.29 -1.47,-0.07 z m 6.78,0.20 c 0,-0.05 0.10,-0.17 0.24,-0.25 0.13,-0.08 0.24,-0.03 0.24,0.10 0,0.14 -0.10,0.25 -0.24,0.25 -0.13,0 -0.24,-0.04 -0.24,-0.10 z m 2.08,-0.71 c 0.38,-0.47 0.78,-0.86 0.89,-0.86 0.38,0 -0.71,1.56 -1.15,1.65 -0.35,0.06 -0.30,-0.07 0.25,-0.78 z m -7.03,0.17 c -1.15,-0.25 -1.12,-0.41 0.11,-0.58 1.46,-0.20 1.73,-0.13 1.53,0.38 -0.13,0.34 -0.67,0.40 -1.65,0.19 z M 19.04,37.57 c 0.08,-0.08 0.28,-0.08 0.46,-0.01 0.19,0.07 0.13,0.13 -0.14,0.14 -0.25,0.01 -0.39,-0.04 -0.31,-0.12 z M 37.80,37.12 c 0.31,-0.33 0.75,-0.60 0.98,-0.60 0.23,0 0.47,-0.13 0.54,-0.30 0.08,-0.20 0.12,-0.21 0.14,-0.02 0.02,0.37 -1.36,1.53 -1.85,1.53 -0.30,0 -0.26,-0.12 0.18,-0.60 z m -1.11,-0.41 c 0.06,-0.42 0.31,-0.91 0.54,-1.08 0.23,-0.16 0.33,-0.30 0.23,-0.30 -0.09,0 -0.10,-0.11 -0.02,-0.25 0.10,-0.17 0.29,-0.14 0.55,0.09 0.35,0.30 0.45,0.29 0.88,-0.12 0.46,-0.45 0.46,-0.47 0.02,-0.39 -0.25,0.04 -0.50,-0.05 -0.56,-0.22 -0.05,-0.17 0.03,-0.27 0.21,-0.24 0.19,0.04 0.29,-0.10 0.24,-0.37 -0.04,-0.24 0.05,-0.62 0.22,-0.84 0.16,-0.22 -0.04,-0.05 -0.46,0.36 -0.42,0.42 -0.76,0.83 -0.76,0.91 0,0.37 -1.36,1.29 -1.75,1.18 -0.53,-0.16 -0.55,0.29 -0.02,0.58 0.35,0.19 0.33,0.28 -0.16,0.78 -0.30,0.30 -0.59,0.44 -0.64,0.29 -0.04,-0.14 -0.31,-0.20 -0.59,-0.12 -0.40,0.10 -0.47,0.04 -0.35,-0.26 0.08,-0.22 0.05,-0.40 -0.05,-0.40 -0.11,0 -0.25,0.11 -0.29,0.25 -0.10,0.30 -0.92,0.03 -0.92,-0.29 0,-0.12 0.19,-0.16 0.43,-0.09 0.58,0.18 1.58,-0.89 1.60,-1.72 0.00,-0.41 0.15,-0.65 0.43,-0.69 0.48,-0.07 0.58,0.51 0.12,0.70 -0.19,0.07 -0.15,0.12 0.09,0.14 0.21,0.01 0.52,-0.14 0.69,-0.34 0.38,-0.46 0.13,-1.12 -0.34,-0.93 -0.41,0.15 -0.53,-0.50 -0.13,-0.74 0.26,-0.16 1.21,0.69 1.21,1.09 0,0.14 0.08,0.20 0.20,0.13 0.15,-0.09 0.19,-1.23 0.04,-1.23 -0.02,0 -0.07,-0.21 -0.12,-0.48 -0.08,-0.44 -0.05,-0.44 0.35,0.06 0.54,0.65 0.64,0.66 0.95,0.09 0.20,-0.38 0.16,-0.43 -0.35,-0.33 -0.34,0.06 -0.59,0 -0.59,-0.15 0,-0.14 0.18,-0.26 0.40,-0.26 0.54,0 0.19,-0.31 -0.46,-0.41 -0.29,-0.04 -0.83,0.14 -1.20,0.42 -0.37,0.27 -0.78,0.43 -0.92,0.34 -0.13,-0.08 -0.43,0.06 -0.66,0.32 -0.23,0.26 -0.68,0.52 -1.01,0.56 -0.47,0.06 -0.58,0.20 -0.52,0.68 0.05,0.46 0.00,0.53 -0.22,0.31 -0.15,-0.15 -0.30,-0.48 -0.32,-0.72 -0.01,-0.23 -0.11,-0.56 -0.21,-0.73 -0.12,-0.20 0.02,-0.30 0.49,-0.32 0.59,-0.02 0.61,-0.04 0.15,-0.18 l -0.52,-0.15 0.49,-0.60 c 0.30,-0.37 0.53,-0.49 0.60,-0.31 0.05,0.15 0.25,0.22 0.44,0.15 0.19,-0.07 0.34,-0.02 0.34,0.11 0,0.13 0.21,0.18 0.48,0.11 0.53,-0.13 0.57,-0.26 0.26,-0.76 -0.15,-0.24 -0.53,-0.29 -1.35,-0.20 -0.62,0.07 -1.01,0.05 -0.86,-0.04 0.37,-0.23 -0.81,-0.77 -1.29,-0.58 -0.20,0.07 -0.36,0.00 -0.36,-0.15 0,-0.21 0.27,-0.25 0.93,-0.14 0.71,0.11 0.97,0.06 1.07,-0.20 0.07,-0.19 0.38,-0.35 0.68,-0.35 l 0.55,0.00 -0.60,0.47 -0.60,0.47 0.90,0.00 c 0.49,0.00 0.90,-0.10 0.90,-0.23 0,-0.13 0.19,-0.24 0.42,-0.24 0.40,-0.00 0.40,-0.01 0,-0.25 -0.48,-0.28 -0.57,-0.98 -0.12,-0.92 0.62,0.08 1.06,-0.02 1.52,-0.37 0.26,-0.20 0.31,-0.31 0.10,-0.23 -0.30,0.10 -0.35,-0.15 -0.33,-1.50 0.01,-0.89 -0.07,-1.76 -0.20,-1.92 -0.12,-0.16 -0.17,-0.38 -0.10,-0.49 0.06,-0.11 -0.19,-0.41 -0.58,-0.67 -0.83,-0.55 -0.87,-0.73 -0.24,-1.06 0.35,-0.18 0.55,-0.15 0.84,0.12 0.20,0.20 0.48,0.30 0.61,0.22 0.13,-0.08 0.24,0.09 0.23,0.40 -0.00,0.44 -0.04,0.48 -0.23,0.19 -0.12,-0.19 -0.23,-0.24 -0.23,-0.10 -0.00,0.13 0.12,0.38 0.28,0.54 0.22,0.22 0.21,0.28 -0.02,0.28 -0.25,0 -0.26,0.07 -0.02,0.35 0.16,0.19 0.38,0.30 0.49,0.23 0.10,-0.06 0.26,-0.01 0.34,0.12 0.20,0.33 0.60,0.31 0.60,-0.03 0,-0.15 -0.06,-0.21 -0.14,-0.13 -0.18,0.18 -0.81,-0.41 -0.81,-0.77 0,-0.14 0.50,-0.25 1.17,-0.25 0.94,0 1.25,0.10 1.56,0.54 0.37,0.52 0.38,0.52 0.10,-0.18 -0.41,-1.05 -0.65,-1.26 -0.94,-0.84 -0.17,0.25 -0.28,0.27 -0.36,0.07 -0.06,-0.15 -0.27,-0.22 -0.46,-0.15 -0.23,0.09 -0.35,-0.04 -0.37,-0.43 l -0.02,-0.56 -0.19,0.60 -0.19,0.60 -0.02,-0.65 c -0.01,-0.49 -0.17,-0.69 -0.62,-0.81 -0.33,-0.08 -0.60,-0.30 -0.60,-0.50 0,-0.25 0.15,-0.30 0.54,-0.18 0.29,0.09 0.61,0.27 0.69,0.40 0.25,0.39 0.65,-0.02 0.52,-0.54 -0.06,-0.26 -0.01,-0.48 0.11,-0.48 0.34,0 0.81,0.62 0.72,0.97 -0.03,0.16 0.06,0.34 0.23,0.40 0.40,0.14 0.38,-0.70 -0.04,-1.74 -0.19,-0.46 -0.52,-0.83 -0.73,-0.83 -0.21,0 -0.32,-0.09 -0.25,-0.21 0.17,-0.28 -0.56,-0.59 -1.27,-0.52 -0.37,0.03 -0.51,-0.03 -0.39,-0.22 0.09,-0.15 0.33,-0.21 0.53,-0.13 0.27,0.10 0.33,0.01 0.23,-0.34 -0.17,-0.67 -0.03,-0.62 1.42,0.47 0.70,0.53 1.34,0.96 1.42,0.96 0.28,0 0.86,0.71 0.82,1.01 -0.02,0.16 -0.02,0.68 -0.00,1.15 0.02,0.63 0.09,0.75 0.26,0.48 0.18,-0.28 0.28,-0.29 0.52,-0.05 0.16,0.16 0.20,0.29 0.10,0.29 -0.10,0 -0.06,0.16 0.10,0.36 0.17,0.21 0.19,0.36 0.05,0.36 -0.40,0 -0.75,1.30 -0.48,1.79 0.13,0.23 0.19,0.73 0.13,1.11 -0.05,0.37 -0.01,0.63 0.09,0.56 0.10,-0.06 0.19,-0.32 0.19,-0.57 0,-0.64 0.26,-1.22 0.48,-1.08 0.10,0.06 0.13,0.33 0.06,0.60 -0.07,0.26 -0.00,0.48 0.14,0.48 0.14,0 0.26,-0.09 0.26,-0.21 0,-0.38 0.92,-0.47 1.06,-0.11 0.07,0.19 0.03,0.28 -0.08,0.21 -0.12,-0.07 -0.29,-0.02 -0.37,0.10 -0.08,0.13 0.05,0.24 0.31,0.24 0.62,0 0.88,1.41 0.30,1.63 -0.21,0.08 -0.52,0.28 -0.70,0.46 -0.42,0.41 -0.84,0.14 -0.68,-0.45 0.10,-0.38 0.06,-0.41 -0.22,-0.17 -0.46,0.38 -0.72,0.08 -0.34,-0.37 0.25,-0.30 0.23,-0.36 -0.07,-0.36 -0.20,0 -0.49,0.20 -0.62,0.45 -0.19,0.37 -0.13,0.53 0.35,0.85 0.32,0.21 0.87,0.49 1.21,0.62 0.51,0.19 0.57,0.30 0.35,0.70 -0.21,0.39 -0.36,0.43 -0.87,0.24 -0.87,-0.33 -1.23,-0.28 -0.71,0.09 0.55,0.40 0.34,1.18 -0.26,0.95 -0.27,-0.10 -0.35,-0.06 -0.24,0.11 0.09,0.15 -0.01,0.55 -0.23,0.89 -0.41,0.62 -0.34,1.02 0.12,0.73 0.14,-0.08 0.25,-0.36 0.25,-0.61 0,-0.25 0.21,-0.57 0.48,-0.71 0.26,-0.14 0.48,-0.41 0.48,-0.61 0,-0.19 0.10,-0.35 0.23,-0.35 0.12,0 0.20,0.13 0.16,0.30 -0.04,0.16 -0.02,0.22 0.02,0.11 0.23,-0.42 0.44,0.09 0.34,0.89 -0.06,0.59 -0.22,0.86 -0.49,0.86 -0.32,0.00 -0.33,0.04 -0.06,0.21 0.18,0.12 0.25,0.34 0.14,0.51 -0.13,0.22 -0.24,0.19 -0.41,-0.11 -0.21,-0.37 -0.26,-0.37 -0.58,0.09 -0.19,0.27 -0.44,0.44 -0.56,0.37 -0.31,-0.19 -0.50,0.25 -0.32,0.74 0.14,0.37 0.18,0.36 0.35,-0.09 0.10,-0.28 0.29,-0.52 0.42,-0.52 0.40,0 -0.12,1.33 -0.79,2.00 -0.34,0.34 -0.63,0.85 -0.63,1.12 0,0.27 -0.10,0.49 -0.24,0.49 -0.13,0 -0.24,-0.16 -0.24,-0.36 0,-0.32 -0.07,-0.33 -0.70,-0.00 -0.54,0.28 -0.73,0.29 -0.84,0.06 -0.11,-0.23 -0.16,-0.23 -0.28,0.00 -0.07,0.16 -0.43,0.30 -0.78,0.30 -0.46,0.00 -0.55,0.06 -0.30,0.21 0.36,0.23 0.19,0.98 -0.22,0.98 -0.16,0 -0.21,-0.30 -0.14,-0.77 z m 3.74,-2.20 c -0.01,-0.15 -0.11,-0.54 -0.21,-0.87 -0.16,-0.50 -0.19,-0.52 -0.22,-0.12 -0.01,0.26 -0.09,0.72 -0.17,1.02 -0.11,0.43 -0.06,0.51 0.24,0.39 0.21,-0.08 0.37,-0.27 0.36,-0.42 z m -6.25,-3.06 c 0,-0.14 -0.10,-0.18 -0.24,-0.10 -0.13,0.08 -0.24,0.19 -0.24,0.25 0,0.05 0.10,0.10 0.24,0.10 0.13,0 0.24,-0.11 0.24,-0.25 z m 2.31,-2.09 c -0.07,-0.08 0.08,-0.39 0.36,-0.69 0.49,-0.52 0.49,-0.54 0.03,-0.42 -0.54,0.14 -1.63,1.48 -1.39,1.72 0.08,0.08 0.25,-0.00 0.37,-0.20 0.18,-0.28 0.22,-0.26 0.23,0.12 0.01,0.45 0.02,0.45 0.26,0.04 0.14,-0.24 0.19,-0.50 0.11,-0.58 z m 3.23,0.64 c 0,-0.14 -0.10,-0.18 -0.24,-0.10 -0.13,0.08 -0.24,0.19 -0.24,0.25 0,0.05 0.10,0.10 0.24,0.10 0.13,0 0.24,-0.11 0.24,-0.25 z m 1.29,-1.20 c 0.23,-0.55 0.24,-0.94 0.04,-1.59 -0.25,-0.83 -0.28,-0.85 -1.31,-0.73 -1.45,0.16 -1.86,0.99 -1.19,2.45 0.23,0.50 0.44,0.61 1.21,0.61 0.81,0 0.97,-0.09 1.24,-0.73 z m -1.17,0.26 c -0.07,-0.12 -0.30,-0.17 -0.49,-0.09 -0.55,0.21 -0.44,-1.04 0.13,-1.54 0.72,-0.62 0.83,-0.53 0.85,0.72 0.01,1.08 -0.17,1.43 -0.49,0.91 z m -1.69,-2.90 c -0.08,-0.13 -0.27,-0.23 -0.43,-0.23 -0.17,0.00 -0.14,0.09 0.07,0.23 0.46,0.29 0.54,0.29 0.36,0 z m -0.15,-1.44 c -0.13,-0.39 -0.33,-0.66 -0.44,-0.60 -0.21,0.13 0.26,1.32 0.53,1.32 0.09,0 0.05,-0.32 -0.08,-0.72 z m 1.48,0.14 c 0,-0.05 -0.16,-0.15 -0.37,-0.23 -0.21,-0.08 -0.31,-0.04 -0.22,0.09 0.14,0.23 0.60,0.33 0.60,0.14 z m -0.06,-1.17 c -0.11,-0.34 -0.50,-0.30 -0.62,0.05 -0.04,0.13 0.10,0.24 0.32,0.24 0.22,0 0.35,-0.13 0.30,-0.30 z M 17.67,36.40 c -0.37,-0.57 -0.50,-1.09 -0.28,-1.09 0.24,0 1.34,1.16 1.34,1.41 0,0.48 -0.65,0.28 -1.05,-0.32 z m 5.76,0.11 c -0.08,-0.13 0.01,-0.24 0.22,-0.24 0.42,0 0.48,0.14 0.15,0.35 -0.12,0.07 -0.29,0.02 -0.37,-0.10 z m 17.26,0.05 c -0.00,-0.16 0.21,-0.43 0.47,-0.60 0.26,-0.16 0.48,-0.48 0.48,-0.71 0,-0.22 0.10,-0.47 0.24,-0.55 0.13,-0.08 0.24,0.01 0.24,0.22 0,0.44 -1.43,2.08 -1.44,1.64 z M 15.11,36.27 c 0,-0.13 0.15,-0.24 0.34,-0.24 0.19,0 0.41,0.10 0.49,0.24 0.08,0.13 -0.07,0.24 -0.34,0.24 -0.27,0 -0.49,-0.10 -0.49,-0.24 z m -3.03,-0.22 c -0.95,-0.22 -1.34,-0.47 -1.18,-0.74 0.07,-0.11 -0.10,-0.43 -0.39,-0.69 -0.40,-0.37 -0.46,-0.56 -0.25,-0.81 0.14,-0.18 0.21,-0.59 0.13,-0.91 -0.07,-0.32 -0.15,-0.80 -0.17,-1.06 -0.02,-0.26 -0.20,-0.61 -0.39,-0.77 -0.31,-0.25 -0.31,-0.29 0.05,-0.30 0.26,-0.00 0.48,0.26 0.61,0.77 0.13,0.50 0.44,0.90 0.88,1.11 0.44,0.21 0.58,0.38 0.39,0.50 -0.18,0.11 -0.22,0.42 -0.11,0.87 0.16,0.65 0.14,0.67 -0.26,0.33 -0.27,-0.22 -0.40,-0.24 -0.34,-0.07 0.05,0.16 0.64,0.67 1.30,1.14 1.20,0.85 1.15,0.96 -0.26,0.62 z m 16.31,-0.01 c 0,-0.13 0.10,-0.24 0.22,-0.24 0.12,0 0.29,0.10 0.37,0.24 0.08,0.13 -0.02,0.24 -0.22,0.24 -0.20,0 -0.37,-0.10 -0.37,-0.24 z m 3.92,-0.37 c 0,-0.60 0.27,-0.78 0.54,-0.34 0.08,0.13 -0.00,0.40 -0.19,0.59 -0.30,0.30 -0.34,0.27 -0.34,-0.24 z M 9.37,35.85 C 9.21,35.79 9.13,35.65 9.21,35.53 9.28,35.41 9.19,35.37 9.00,35.44 8.81,35.52 8.59,35.41 8.51,35.20 8.43,34.99 8.10,34.82 7.78,34.82 c -0.31,0 -0.71,-0.16 -0.88,-0.36 -0.26,-0.32 -0.22,-0.34 0.32,-0.13 0.53,0.20 0.60,0.18 0.49,-0.17 -0.08,-0.25 0.10,-0.16 0.48,0.25 0.33,0.36 0.69,0.66 0.78,0.66 0.09,0 -0.05,-0.24 -0.33,-0.54 C 8.37,34.22 8.01,33.65 7.85,33.25 7.57,32.57 7.55,32.56 7.41,33.07 7.27,33.57 6.83,33.54 6.74,33.01 6.72,32.88 6.63,32.61 6.56,32.41 c -0.07,-0.19 -0.03,-0.52 0.09,-0.72 0.18,-0.28 0.28,-0.29 0.52,-0.05 0.16,0.16 0.48,0.29 0.70,0.29 0.22,0 0.48,0.18 0.57,0.42 0.15,0.40 0.17,0.40 0.39,0 0.33,-0.59 0.56,-0.52 0.61,0.19 0.02,0.46 -0.03,0.55 -0.26,0.36 -0.16,-0.13 -0.36,-0.17 -0.45,-0.09 -0.08,0.08 -0.32,0.00 -0.53,-0.16 -0.21,-0.17 -0.07,0.17 0.29,0.77 0.59,0.95 0.72,1.04 0.97,0.70 0.16,-0.21 0.29,-0.27 0.30,-0.13 0.00,0.13 -0.11,0.37 -0.27,0.53 -0.21,0.21 -0.20,0.36 0.02,0.64 0.35,0.43 0.26,0.83 -0.16,0.68 z m 6.53,-0.08 c -1.16,-0.33 -1.28,-0.76 -0.15,-0.56 1.08,0.19 1.29,0.29 1.29,0.60 0,0.26 -0.09,0.26 -1.13,-0.03 z M 9.95,35.41 c -0.20,-0.53 0.02,-0.75 0.38,-0.38 0.20,0.20 0.21,0.36 0.02,0.54 -0.18,0.18 -0.30,0.13 -0.41,-0.15 z m 20.18,-0.04 c 0.07,-0.29 0.03,-0.60 -0.09,-0.68 -0.12,-0.08 -0.18,-0.28 -0.11,-0.45 0.06,-0.17 -0.00,-0.43 -0.15,-0.58 -0.33,-0.33 0.05,-0.34 0.55,-0.02 0.29,0.19 0.30,0.27 0.03,0.44 -0.35,0.22 -0.36,0.21 0.92,1.23 0.47,0.37 0.51,0.47 0.19,0.48 -0.22,0.00 -0.47,-0.10 -0.56,-0.24 -0.10,-0.17 -0.28,-0.15 -0.53,0.05 -0.33,0.27 -0.36,0.24 -0.24,-0.23 z m 10.56,0.19 c 0,-0.14 0.10,-0.25 0.24,-0.25 0.13,0 0.24,0.04 0.24,0.10 0,0.05 -0.10,0.17 -0.24,0.25 -0.13,0.08 -0.24,0.03 -0.24,-0.10 z M 12.83,34.89 c -0.13,-0.35 -0.19,-0.36 -0.37,-0.06 -0.11,0.19 -0.28,0.27 -0.37,0.18 -0.19,-0.19 0.37,-0.78 0.80,-0.81 0.68,-0.05 0.78,-0.11 0.78,-0.42 0,-0.18 -0.23,-0.48 -0.52,-0.68 -0.34,-0.22 -0.47,-0.48 -0.36,-0.75 0.20,-0.52 0.55,-0.51 0.75,0.01 0.31,0.86 0.91,1.78 1.24,1.91 0.42,0.16 0.45,0.58 0.03,0.45 -0.16,-0.05 -0.62,-0.15 -1.02,-0.23 -0.58,-0.11 -0.64,-0.09 -0.29,0.11 0.23,0.14 0.36,0.36 0.28,0.48 -0.22,0.36 -0.77,0.25 -0.94,-0.18 z m 3.86,0.18 c -0.43,-0.16 -0.42,-0.18 0.11,-0.32 0.64,-0.16 0.92,-0.02 0.58,0.28 -0.12,0.11 -0.43,0.13 -0.69,0.03 z m 4.11,0.01 c -0.10,-0.16 -0.12,-0.37 -0.04,-0.45 0.21,-0.21 0.45,0.10 0.33,0.45 -0.08,0.24 -0.13,0.24 -0.29,-0.00 z m 12.29,-0.03 c -0.05,-0.09 -0.43,-0.24 -0.83,-0.32 -0.40,-0.08 -0.72,-0.25 -0.72,-0.39 0,-0.36 0.78,-0.29 1.37,0.11 0.46,0.32 0.55,0.32 0.88,0 0.52,-0.52 0.88,-0.44 0.87,0.17 0,0.43 -0.14,0.54 -0.72,0.56 -0.40,0.01 -0.78,-0.05 -0.84,-0.14 z m -6.63,-0.47 c 0,-0.13 0.10,-0.24 0.24,-0.24 0.13,0 0.24,0.10 0.24,0.24 0,0.13 -0.10,0.24 -0.24,0.24 -0.13,0 -0.24,-0.10 -0.24,-0.24 z M 16.44,34.34 c -0.08,-0.13 -0.03,-0.24 0.10,-0.24 0.14,0 0.25,0.10 0.25,0.24 0,0.13 -0.04,0.24 -0.10,0.24 -0.05,0 -0.17,-0.10 -0.25,-0.24 z m 11.58,-0.48 c -0.08,-0.13 -0.03,-0.24 0.10,-0.24 0.14,0 0.25,0.10 0.25,0.24 0,0.13 -0.04,0.24 -0.10,0.24 -0.05,0 -0.17,-0.10 -0.25,-0.24 z M 17.39,33.60 c -0.26,-0.42 0.01,-0.48 0.51,-0.11 0.40,0.30 0.41,0.35 0.05,0.36 -0.22,0.00 -0.47,-0.10 -0.56,-0.25 z m 4.12,0.03 c -0.07,-0.12 -0.02,-0.29 0.10,-0.37 0.13,-0.08 0.24,0.01 0.24,0.22 0,0.42 -0.14,0.48 -0.35,0.15 z m 5.30,-0.00 c -0.20,-0.33 -0.02,-0.58 0.33,-0.45 0.14,0.05 0.16,0.22 0.04,0.41 -0.14,0.24 -0.24,0.25 -0.37,0.04 z m 3.99,-0.11 c -0.00,-0.25 0.04,-0.39 0.12,-0.31 0.08,0.08 0.08,0.28 0.01,0.46 -0.07,0.19 -0.13,0.13 -0.14,-0.14 z m -7.14,-0.14 c -0.08,-0.13 -0.03,-0.24 0.10,-0.24 0.14,0 0.25,0.10 0.25,0.24 0,0.13 -0.04,0.24 -0.10,0.24 -0.05,0 -0.17,-0.10 -0.25,-0.24 z m 10.66,0.08 c -0.08,-0.08 -0.16,-0.27 -0.16,-0.41 0,-0.15 0.11,-0.13 0.28,0.03 0.15,0.15 0.23,0.34 0.16,0.40 -0.06,0.06 -0.19,0.05 -0.28,-0.03 z M 22.37,33.03 c -0.01,-0.25 0.04,-0.39 0.12,-0.31 0.08,0.08 0.08,0.28 0.01,0.46 -0.07,0.19 -0.13,0.13 -0.14,-0.14 z m -7.61,-0.13 c -0.05,-0.08 0.11,-0.16 0.37,-0.18 0.25,-0.02 0.46,0.04 0.46,0.14 0,0.22 -0.70,0.25 -0.83,0.03 z m 5.80,-0.26 c -0.54,-0.54 -0.38,-0.82 0.32,-0.59 0.27,0.08 0.50,0.36 0.50,0.62 0,0.58 -0.22,0.57 -0.82,-0.02 z m 2.37,0.03 c -0.25,-0.25 -0.04,-0.40 0.62,-0.45 0.48,-0.03 0.72,0.05 0.72,0.28 0,0.31 -1.07,0.44 -1.34,0.17 z m 2.71,0.06 c -0.08,-0.08 -0.16,-0.27 -0.16,-0.41 0,-0.15 0.11,-0.13 0.28,0.03 0.15,0.15 0.22,0.34 0.16,0.40 -0.06,0.06 -0.19,0.05 -0.28,-0.03 z m 5.72,-0.02 c -0.15,-0.10 -0.19,-0.36 -0.08,-0.65 0.16,-0.43 0.19,-0.44 0.35,-0.06 0.22,0.54 0.07,0.94 -0.26,0.72 z m -1.54,-0.27 c 0,-0.14 0.15,-0.25 0.34,-0.25 0.18,0 0.40,-0.13 0.47,-0.30 0.07,-0.16 0.11,-0.08 0.07,0.17 -0.06,0.49 -0.89,0.84 -0.89,0.38 z M 10.90,32.20 c -0.10,-0.16 -0.12,-0.37 -0.04,-0.45 0.21,-0.21 0.45,0.10 0.33,0.45 -0.08,0.24 -0.13,0.24 -0.29,-0.00 z m 0.82,-0.27 c 0.14,-0.26 0.20,-0.58 0.12,-0.70 -0.07,-0.12 -0.02,-0.28 0.10,-0.37 0.13,-0.08 0.37,0.13 0.53,0.48 0.23,0.51 0.22,0.67 -0.05,0.85 -0.64,0.40 -0.99,0.28 -0.70,-0.26 z m 16.04,0.26 c 0.07,-0.12 0.34,-0.20 0.60,-0.19 0.60,0.04 0.37,0.41 -0.25,0.41 -0.26,0 -0.41,-0.10 -0.34,-0.22 z M 5.69,31.80 c 0,-0.19 0.04,-0.36 0.09,-0.36 0.05,0 0.15,0.16 0.23,0.36 0.07,0.19 0.03,0.36 -0.09,0.36 -0.12,0 -0.23,-0.16 -0.23,-0.36 z m 11.54,0.23 c -0.07,-0.07 -0.37,-0.17 -0.68,-0.23 -0.65,-0.12 -1.11,-0.52 -0.87,-0.76 0.09,-0.09 0.29,-0.04 0.45,0.11 0.42,0.42 1.63,0.36 1.63,-0.07 0,-0.19 -0.16,-0.36 -0.36,-0.36 -0.20,0 -0.36,-0.10 -0.36,-0.24 0,-0.29 0.25,-0.30 0.68,-0.02 0.22,0.14 0.27,0.43 0.16,0.96 -0.15,0.71 -0.36,0.91 -0.65,0.62 z m 9.33,-0.12 c -0.22,-0.37 0.08,-0.61 0.39,-0.30 0.17,0.17 0.17,0.30 0.01,0.40 -0.13,0.08 -0.31,0.03 -0.40,-0.10 z m 9.54,0.01 c 0,-0.13 0.16,-0.24 0.36,-0.24 0.19,0 0.36,0.10 0.36,0.24 0,0.13 -0.16,0.24 -0.36,0.24 -0.20,0 -0.36,-0.10 -0.36,-0.24 z M 13.75,31.63 c -0.06,-0.10 0.02,-0.19 0.19,-0.19 0.17,-0.00 0.10,-0.13 -0.16,-0.28 -0.45,-0.26 -0.43,-0.28 0.23,-0.46 0.84,-0.22 1.19,0.03 0.98,0.72 -0.15,0.48 -1.00,0.63 -1.25,0.22 z m 11.50,0.05 c 0,-0.13 0.04,-0.24 0.10,-0.24 0.05,0 0.17,0.10 0.25,0.24 0.08,0.13 0.03,0.24 -0.10,0.24 -0.14,0 -0.25,-0.10 -0.25,-0.24 z M 7.62,31.24 c 0,-0.39 0.10,-0.44 0.59,-0.31 0.82,0.22 0.86,0.62 0.06,0.71 -0.52,0.05 -0.66,-0.02 -0.66,-0.40 z m 20.54,0.22 c -0.24,-0.14 -0.22,-0.22 0.06,-0.33 0.20,-0.07 0.43,-0.04 0.50,0.06 0.19,0.30 -0.20,0.49 -0.57,0.26 z m 3.11,-0.23 c 0,-0.13 0.10,-0.30 0.24,-0.39 0.13,-0.08 0.24,-0.04 0.24,0.09 0,0.13 -0.10,0.30 -0.24,0.39 -0.13,0.08 -0.24,0.03 -0.24,-0.09 z M 6.32,30.82 c -0.22,-0.57 -0.17,-0.66 0.17,-0.37 0.17,0.14 0.41,0.18 0.53,0.08 0.11,-0.09 0.06,0.01 -0.11,0.24 -0.39,0.51 -0.41,0.51 -0.60,0.04 z m 25.68,0.16 c 0,-0.11 0.21,-0.26 0.48,-0.33 0.57,-0.14 0.65,0.19 0.10,0.40 -0.50,0.19 -0.58,0.18 -0.58,-0.06 z M 8.73,30.73 c -0.25,-0.09 -0.36,-0.23 -0.22,-0.31 0.24,-0.15 1.00,0.20 0.81,0.38 -0.06,0.05 -0.32,0.02 -0.58,-0.06 z m 12.82,0.04 c -0.15,-0.27 0.72,-1.09 0.89,-0.82 0.07,0.12 -0.02,0.29 -0.23,0.37 -0.20,0.07 -0.30,0.25 -0.22,0.38 0.08,0.13 0.04,0.24 -0.09,0.24 -0.13,0 -0.28,-0.08 -0.34,-0.18 z M 15.83,30.37 c 0,-0.20 0.10,-0.37 0.24,-0.37 0.13,0 0.24,0.10 0.24,0.22 0,0.12 -0.10,0.29 -0.24,0.37 -0.13,0.08 -0.24,-0.02 -0.24,-0.22 z M 4.40,30.11 C 4.31,29.89 4.25,29.59 4.26,29.43 c 0.00,-0.15 0.11,-0.02 0.24,0.29 0.12,0.31 0.18,0.62 0.13,0.67 -0.05,0.05 -0.16,-0.08 -0.24,-0.29 z m 6.98,0.08 C 11.12,30.04 10.45,29.94 9.87,29.96 8.94,29.99 8.83,29.94 8.83,29.45 8.83,29.10 8.57,28.76 8.11,28.50 c -0.39,-0.22 -0.72,-0.31 -0.72,-0.18 0,0.12 -0.16,0.16 -0.36,0.08 -0.19,-0.07 -0.36,-0.35 -0.36,-0.62 0,-0.38 -1.40,-2.03 -1.62,-1.91 -0.30,0.16 -0.78,-0.04 -0.78,-0.32 0,-0.43 0.39,-0.48 0.56,-0.06 0.06,0.16 0.13,0.05 0.14,-0.25 0.01,-0.30 0.12,-0.49 0.24,-0.41 0.12,0.07 0.29,0.02 0.37,-0.11 0.08,-0.13 0.25,-0.18 0.38,-0.10 0.12,0.07 0.16,0.24 0.08,0.36 -0.07,0.12 -0.02,0.22 0.11,0.22 0.14,0 0.25,-0.10 0.25,-0.24 0,-0.13 0.12,-0.24 0.26,-0.24 0.14,0 0.20,0.16 0.12,0.35 -0.08,0.21 0.05,0.46 0.33,0.61 0.26,0.13 0.47,0.35 0.47,0.48 0,0.40 -0.70,0.25 -1.22,-0.26 -0.53,-0.53 -0.80,-0.51 -0.58,0.05 0.07,0.19 0.62,0.49 1.21,0.66 0.82,0.24 1.05,0.41 0.96,0.71 -0.18,0.60 1.99,1.72 3.36,1.72 0.59,0 1.08,0.10 1.08,0.24 0,0.13 -0.12,0.24 -0.26,0.24 -0.15,0 -0.21,0.21 -0.14,0.48 0.14,0.54 0.01,0.58 -0.65,0.19 z m 1.24,0.13 c -0.36,-0.36 -0.15,-0.81 0.36,-0.82 0.29,-0.00 0.69,-0.09 0.87,-0.21 0.26,-0.16 0.22,-0.24 -0.18,-0.37 -0.28,-0.08 -0.51,-0.26 -0.51,-0.38 0,-0.29 0.41,-0.29 0.59,0.00 0.07,0.12 0.60,0.36 1.16,0.52 0.74,0.21 0.88,0.31 0.53,0.39 -0.26,0.05 -0.56,0.23 -0.65,0.38 -0.09,0.15 -0.36,0.29 -0.60,0.31 -0.23,0.02 -0.65,0.11 -0.92,0.19 -0.26,0.08 -0.56,0.07 -0.66,-0.02 z m 6.02,-0.01 c -0.08,-0.08 -0.04,-0.29 0.09,-0.46 0.28,-0.34 0.94,-0.19 0.94,0.21 0,0.14 -0.07,0.18 -0.15,0.09 -0.08,-0.08 -0.28,-0.05 -0.44,0.07 -0.15,0.13 -0.35,0.16 -0.44,0.08 z M 7.45,29.59 C 7.28,29.23 7.18,28.91 7.23,28.86 c 0.18,-0.18 1.15,0.88 1.00,1.11 -0.25,0.40 -0.46,0.29 -0.78,-0.39 z m 21.92,0.30 c -0.00,-0.25 0.04,-0.39 0.12,-0.31 0.08,0.08 0.08,0.28 0.01,0.46 -0.07,0.19 -0.13,0.13 -0.14,-0.14 z m 0.94,-0.14 c 0,-0.13 0.16,-0.24 0.37,-0.24 0.20,0 0.30,0.10 0.22,0.24 -0.08,0.13 -0.25,0.24 -0.37,0.24 -0.12,0 -0.22,-0.10 -0.22,-0.24 z M 5.50,29.46 c -0.40,-0.40 -0.36,-1.15 0.07,-1.15 0.19,0 0.36,0.16 0.36,0.36 0,0.20 0.12,0.33 0.27,0.30 0.14,-0.03 0.32,0.09 0.39,0.27 0.07,0.20 0.01,0.26 -0.15,0.16 -0.14,-0.09 -0.27,-0.05 -0.27,0.08 0,0.34 -0.31,0.32 -0.67,-0.03 z m 37.98,0.05 c -0.07,-0.12 -0.00,-0.45 0.16,-0.72 0.32,-0.52 0.67,-0.65 0.67,-0.25 0,0.13 -0.09,0.24 -0.21,0.24 -0.12,0 -0.16,0.21 -0.09,0.48 0.12,0.48 -0.26,0.67 -0.52,0.25 z M 26.94,29.34 c 0,-0.14 -0.06,-0.44 -0.14,-0.65 -0.08,-0.20 -0.03,-0.38 0.09,-0.38 0.36,0 0.58,0.77 0.30,1.05 -0.17,0.17 -0.24,0.16 -0.24,-0.02 z m -4.22,-0.31 c -0.08,-0.13 -0.04,-0.24 0.09,-0.24 0.13,0 0.30,0.10 0.39,0.24 0.08,0.13 0.03,0.24 -0.09,0.24 -0.13,0 -0.30,-0.10 -0.39,-0.24 z m -7.48,-0.24 c -0.08,-0.13 0.01,-0.24 0.21,-0.24 0.19,0 0.42,0.10 0.51,0.24 0.08,0.13 -0.01,0.24 -0.21,0.24 -0.19,0 -0.42,-0.10 -0.51,-0.24 z m 2.08,0.02 c 0.05,-0.14 0.17,-0.27 0.27,-0.27 0.28,0 0.21,0.35 -0.09,0.45 -0.14,0.05 -0.23,-0.03 -0.18,-0.18 z m 12.05,-0.13 c -0.00,-0.25 0.04,-0.39 0.12,-0.31 0.08,0.08 0.08,0.28 0.01,0.46 -0.07,0.19 -0.13,0.13 -0.14,-0.14 z M 10.11,28.62 C 9.47,28.50 8.22,27.09 8.55,26.88 c 0.12,-0.07 0.24,-0.25 0.25,-0.38 0.03,-0.41 0.61,-0.26 0.70,0.17 0.05,0.29 -0.02,0.37 -0.29,0.27 -0.20,-0.08 -0.37,-0.04 -0.37,0.08 0,0.12 0.64,0.37 1.42,0.53 1.03,0.22 1.46,0.42 1.54,0.75 0.12,0.46 -0.34,0.54 -1.69,0.28 z m 21.21,-0.05 c -0.22,-0.13 -0.04,-0.25 0.57,-0.36 0.79,-0.14 1.34,-0.04 1.06,0.19 -0.27,0.23 -1.34,0.35 -1.63,0.17 z M 4.75,28.20 c -0.01,-0.25 0.04,-0.39 0.12,-0.31 0.08,0.08 0.08,0.28 0.01,0.46 -0.07,0.19 -0.13,0.13 -0.14,-0.14 z M 15.31,27.90 c -0.53,-0.14 -0.46,-1.04 0.07,-1.04 0.62,0 1.17,0.26 1.17,0.55 0,0.18 -0.07,0.18 -0.27,-0.00 -0.40,-0.40 -1.02,-0.10 -0.67,0.32 0.15,0.18 0.23,0.32 0.18,0.30 -0.05,-0.01 -0.27,-0.07 -0.49,-0.13 z m 15.31,0.00 c -0.45,-0.18 -0.36,-0.49 0.19,-0.63 0.37,-0.09 0.43,-0.05 0.24,0.17 -0.13,0.16 -0.18,0.37 -0.09,0.46 0.17,0.17 0.09,0.17 -0.34,-0.00 z m -3.43,-0.27 c 0,-0.12 0.22,-0.28 0.49,-0.36 0.31,-0.08 0.46,-0.02 0.40,0.15 -0.11,0.34 -0.89,0.52 -0.89,0.20 z m 4.77,-0.08 c -0.17,-0.44 0.23,-0.92 0.77,-0.91 0.33,0.00 0.33,0.03 -0.00,0.30 -0.21,0.16 -0.43,0.45 -0.49,0.64 -0.09,0.29 -0.14,0.28 -0.26,-0.03 z m 0.60,0.13 c 0.08,-0.08 0.28,-0.08 0.46,-0.01 0.19,0.07 0.13,0.13 -0.14,0.14 -0.25,0.01 -0.39,-0.04 -0.31,-0.12 z m 1.14,0.01 c -0.00,-0.48 0.65,-1.15 1.01,-1.01 0.19,0.07 0.51,0.04 0.69,-0.07 0.24,-0.15 0.15,-0.21 -0.32,-0.21 -0.42,-0.00 -0.66,-0.13 -0.66,-0.36 0,-0.19 0.11,-0.36 0.25,-0.36 0.39,0 1.19,0.47 1.19,0.70 0,0.23 -1.01,0.94 -1.49,1.03 -0.17,0.03 -0.39,0.17 -0.49,0.30 -0.11,0.15 -0.17,0.15 -0.18,-0.01 z M 11.78,26.61 c -0.01,-0.39 -0.19,-0.90 -0.41,-1.11 -0.47,-0.47 -0.38,-0.59 0.31,-0.41 0.61,0.16 0.95,1.14 0.55,1.61 -0.14,0.17 -0.19,0.39 -0.10,0.48 0.08,0.08 0.04,0.15 -0.08,0.15 -0.13,0 -0.25,-0.32 -0.26,-0.72 z m 17.32,0.48 c 0,-0.13 0.16,-0.24 0.36,-0.24 0.19,0 0.36,0.10 0.36,0.24 0,0.13 -0.16,0.24 -0.36,0.24 -0.19,0 -0.36,-0.10 -0.36,-0.24 z m 6.75,0.13 c 0,-0.05 0.10,-0.17 0.24,-0.25 0.13,-0.08 0.24,-0.03 0.24,0.10 0,0.14 -0.10,0.25 -0.24,0.25 -0.13,0 -0.24,-0.04 -0.24,-0.10 z M 13.00,26.81 c -0.19,-0.23 -0.13,-0.31 0.26,-0.33 0.28,-0.01 0.71,-0.10 0.94,-0.20 0.30,-0.13 0.42,-0.07 0.42,0.20 0,0.21 -0.15,0.38 -0.34,0.38 -0.18,0 -0.49,0.05 -0.68,0.13 -0.18,0.07 -0.45,-0.00 -0.60,-0.18 z m 10.32,0.13 c 0,-0.42 0.64,-1.12 0.94,-1.02 0.18,0.06 0.07,0.30 -0.32,0.67 -0.34,0.31 -0.61,0.47 -0.61,0.34 z m 7.39,-0.25 c -0.28,-0.28 -0.15,-0.79 0.20,-0.79 0.19,0 0.36,0.15 0.36,0.34 0,0.40 -0.34,0.67 -0.57,0.45 z M 18.97,26.13 c 0,-0.13 0.24,-0.23 0.54,-0.23 0.43,0.00 0.47,0.04 0.18,0.23 -0.46,0.30 -0.72,0.30 -0.72,0 z m 9.44,0.02 c 0.05,-0.14 0.17,-0.27 0.27,-0.27 0.28,0 0.21,0.35 -0.09,0.45 -0.14,0.05 -0.23,-0.03 -0.18,-0.18 z m 4.07,-0.01 c 0,-0.41 0.56,-0.54 1.22,-0.28 0.55,0.22 0.56,0.23 0.06,0.25 -0.28,0.00 -0.69,0.08 -0.90,0.16 -0.21,0.08 -0.38,0.02 -0.38,-0.12 z M 8.95,25.41 C 8.57,25.01 8.33,24.62 8.40,24.55 c 0.22,-0.22 2.15,1.08 1.99,1.35 -0.25,0.41 -0.73,0.25 -1.44,-0.48 z m 7.96,0.48 c -0.08,-0.13 0.01,-0.24 0.21,-0.24 0.20,0 0.43,0.10 0.51,0.24 0.08,0.13 -0.01,0.24 -0.21,0.24 -0.20,0 -0.43,-0.10 -0.51,-0.24 z m 1.08,0.01 c 0,-0.12 0.10,-0.29 0.24,-0.37 0.13,-0.08 0.24,0.01 0.24,0.22 0,0.20 -0.10,0.37 -0.24,0.37 -0.13,0 -0.24,-0.10 -0.24,-0.22 z m 9.52,-0.14 c 0.60,-0.45 0.88,-0.45 0.70,0.00 -0.07,0.19 -0.37,0.35 -0.65,0.35 -0.50,-0.00 -0.50,-0.01 -0.04,-0.36 z m 7.61,-0.26 c -0.73,-0.37 -0.92,-0.56 -0.59,-0.56 0.27,-0.00 0.62,0.12 0.77,0.27 0.21,0.21 0.31,0.18 0.43,-0.11 0.20,-0.53 0.50,-0.51 0.64,0.05 0.21,0.83 -0.15,0.93 -1.27,0.35 z M 14.38,25.36 c 0,-0.29 -0.29,-0.83 -0.64,-1.20 -0.35,-0.37 -0.56,-0.75 -0.46,-0.85 0.29,-0.29 1.59,1.33 1.59,1.99 0,0.32 -0.10,0.60 -0.24,0.60 -0.13,0 -0.24,-0.23 -0.24,-0.53 z m 10.02,0.06 c -0.07,-0.12 -0.02,-0.29 0.10,-0.37 0.13,-0.08 0.24,0.01 0.24,0.22 0,0.42 -0.14,0.48 -0.35,0.15 z m -7.97,-0.25 c -0.08,-0.13 -0.03,-0.24 0.09,-0.24 0.13,0 0.30,0.10 0.39,0.24 0.08,0.13 0.04,0.24 -0.09,0.24 -0.13,0 -0.30,-0.10 -0.39,-0.24 z m 14.72,0 c 0.08,-0.13 0.25,-0.24 0.37,-0.24 0.12,0 0.22,0.10 0.22,0.24 0,0.13 -0.16,0.24 -0.37,0.24 -0.20,0 -0.30,-0.10 -0.22,-0.24 z m 1.32,-0.24 c 0,-0.45 0.06,-0.51 0.29,-0.28 0.22,0.22 0.22,0.35 0,0.57 -0.22,0.22 -0.29,0.16 -0.29,-0.29 z m -11.70,0 c -0.08,-0.13 0.01,-0.24 0.22,-0.24 0.20,0 0.37,0.10 0.37,0.24 0,0.13 -0.10,0.24 -0.22,0.24 -0.12,0 -0.29,-0.10 -0.37,-0.24 z m 4.34,0.00 c -0.08,-0.13 0.01,-0.24 0.22,-0.24 0.42,0 0.48,0.14 0.15,0.35 -0.12,0.07 -0.29,0.02 -0.37,-0.10 z M 7.55,24.77 c -0.09,-0.08 -0.16,-0.41 -0.16,-0.72 0,-0.66 -0.38,-0.72 -1.00,-0.16 -0.36,0.33 -0.44,0.33 -0.44,0.04 0,-0.19 0.14,-0.55 0.32,-0.79 0.30,-0.42 0.34,-0.42 0.97,-0.01 0.36,0.23 0.60,0.57 0.53,0.74 -0.06,0.17 0.01,0.35 0.16,0.41 0.20,0.07 0.21,0.18 0.03,0.38 -0.14,0.15 -0.33,0.20 -0.42,0.11 z m 2.17,0.00 c -0.25,-0.25 0.06,-0.56 0.57,-0.56 0.25,0 0.46,0.16 0.46,0.36 0,0.35 -0.74,0.50 -1.03,0.20 z m 9.78,-0.12 c 0.05,-0.15 0.32,-0.31 0.61,-0.35 0.37,-0.05 0.48,0.01 0.38,0.28 -0.16,0.41 -1.13,0.49 -0.99,0.07 z m -3.19,-0.20 c 0,-0.13 0.10,-0.24 0.24,-0.24 0.13,0 0.24,0.10 0.24,0.24 0,0.13 -0.10,0.24 -0.24,0.24 -0.13,0 -0.24,-0.10 -0.24,-0.24 z m 12.90,-0.02 c -0.08,-0.14 -0.04,-0.38 0.10,-0.53 0.19,-0.19 0.26,-0.12 0.26,0.26 0,0.58 -0.12,0.67 -0.37,0.26 z m -16.95,-0.70 c 0,-0.46 0.04,-0.65 0.11,-0.42 0.06,0.23 0.06,0.61 0,0.84 -0.06,0.23 -0.11,0.04 -0.11,-0.42 z m 21.43,0.48 c 0,-0.13 0.26,-0.24 0.58,-0.24 0.32,0 0.65,0.10 0.73,0.24 0.08,0.14 -0.15,0.24 -0.58,0.24 -0.40,0 -0.73,-0.10 -0.73,-0.24 z M 8.51,24.04 C 8.22,23.75 8.88,23.23 9.52,23.24 l 0.63,0.00 -0.60,0.47 c -0.66,0.51 -0.80,0.56 -1.04,0.32 z m 8.76,-0.08 c 0,-0.13 0.04,-0.24 0.10,-0.24 0.05,0 0.17,0.10 0.25,0.24 0.08,0.13 0.03,0.24 -0.10,0.24 -0.14,0 -0.25,-0.10 -0.25,-0.24 z m 15.26,-0.04 c 0.11,-0.36 0.66,-0.55 0.66,-0.24 0,0.12 -0.17,0.30 -0.38,0.38 -0.23,0.08 -0.34,0.03 -0.28,-0.14 z m 2.38,-0.08 c -0.45,-0.19 -0.77,-0.40 -0.71,-0.46 0.16,-0.16 1.93,0.29 2.21,0.57 0.38,0.38 -0.50,0.31 -1.50,-0.11 z m 8.42,0.03 c 0,-0.18 -0.13,-0.39 -0.30,-0.46 -0.16,-0.06 -0.07,-0.13 0.21,-0.14 0.69,-0.02 1.21,0.59 0.68,0.79 -0.54,0.20 -0.59,0.19 -0.59,-0.19 z m 1.44,-0.12 c 0,-0.12 0.10,-0.29 0.24,-0.37 0.13,-0.08 0.24,0.02 0.24,0.22 0,0.20 -0.10,0.37 -0.24,0.37 -0.13,0 -0.24,-0.10 -0.24,-0.22 z M 30.08,23.23 c 0,-0.13 0.10,-0.24 0.24,-0.24 0.13,0 0.24,0.10 0.24,0.24 0,0.13 -0.10,0.24 -0.24,0.24 -0.13,0 -0.24,-0.10 -0.24,-0.24 z m 1.23,0.03 c 0.05,-0.14 0.17,-0.27 0.27,-0.27 0.28,0 0.21,0.35 -0.08,0.45 -0.14,0.05 -0.23,-0.03 -0.18,-0.17 z M 4.91,22.85 c -0.09,-0.10 -0.18,-0.40 -0.18,-0.67 0,-0.35 0.07,-0.41 0.26,-0.22 0.14,0.14 0.22,0.44 0.18,0.67 -0.04,0.22 -0.16,0.32 -0.26,0.22 z M 7.05,22.63 C 6.64,22.21 6.53,21.79 6.84,21.79 c 0.23,0 0.85,0.97 0.70,1.12 -0.05,0.05 -0.28,-0.06 -0.49,-0.28 z m 2.27,-0.27 c -0.59,-0.75 -0.50,-0.96 0.20,-0.52 0.27,0.17 0.45,0.46 0.38,0.64 -0.09,0.24 0.03,0.29 0.48,0.21 0.33,-0.06 0.60,-0.02 0.60,0.09 0,0.48 -1.20,0.17 -1.67,-0.43 z m 6.50,0.41 c 0,-0.14 0.10,-0.25 0.24,-0.25 0.13,0 0.24,0.04 0.24,0.10 0,0.05 -0.10,0.17 -0.24,0.25 -0.13,0.08 -0.24,0.03 -0.24,-0.10 z m 12.07,0 c 0,-0.14 0.10,-0.25 0.24,-0.25 0.13,0 0.24,0.04 0.24,0.10 0,0.05 -0.10,0.17 -0.24,0.25 -0.13,0.08 -0.24,0.03 -0.24,-0.10 z m -8.60,-0.60 c 0.21,-0.32 0.32,-0.74 0.25,-0.94 -0.07,-0.19 -0.01,-0.42 0.12,-0.51 0.33,-0.20 0.34,0.95 0.00,1.57 -0.13,0.25 -0.36,0.46 -0.51,0.46 -0.15,0 -0.09,-0.24 0.12,-0.59 z m 14.39,0.34 c 0,-0.13 0.10,-0.24 0.24,-0.24 0.13,0 0.24,0.10 0.24,0.24 0,0.13 -0.10,0.24 -0.24,0.24 -0.13,0 -0.24,-0.10 -0.24,-0.24 z m 9.89,-0.11 c 0,-0.19 0.04,-0.36 0.09,-0.36 0.05,0 0.15,0.16 0.23,0.36 0.07,0.19 0.03,0.36 -0.09,0.36 -0.12,0 -0.23,-0.16 -0.23,-0.36 z M 3.30,21.93 c -0.01,-0.25 0.04,-0.39 0.12,-0.31 0.08,0.08 0.08,0.28 0.01,0.46 -0.07,0.19 -0.13,0.13 -0.14,-0.14 z m 20.76,0 c -0.01,-0.25 0.04,-0.39 0.12,-0.31 0.08,0.08 0.08,0.28 0.01,0.46 -0.07,0.19 -0.13,0.13 -0.14,-0.14 z m 4.11,0.13 c 0.05,-0.14 0.17,-0.27 0.27,-0.27 0.28,0 0.21,0.35 -0.09,0.45 -0.14,0.05 -0.23,-0.03 -0.18,-0.18 z m -12.10,-0.32 c 0,-0.41 0.60,-1.00 0.89,-0.87 0.10,0.04 -0.05,0.34 -0.35,0.66 -0.39,0.42 -0.54,0.48 -0.54,0.21 z m 18.31,0.07 c 0.22,-0.14 0.24,-0.25 0.06,-0.37 -0.30,-0.18 -0.36,-0.62 -0.08,-0.61 0.09,0.00 0.33,0.10 0.52,0.22 0.28,0.18 0.29,0.28 0.02,0.59 -0.17,0.20 -0.43,0.37 -0.58,0.37 -0.16,-0.00 -0.13,-0.08 0.05,-0.21 z M 14.14,20.94 c -0.15,-0.46 -0.22,-1.03 -0.16,-1.26 0.07,-0.29 0.11,-0.23 0.14,0.17 0.01,0.33 0.18,0.90 0.37,1.26 0.19,0.36 0.25,0.66 0.13,0.66 -0.11,0 -0.33,-0.37 -0.48,-0.84 z m 17.14,0.60 c 0,-0.13 0.16,-0.24 0.36,-0.24 0.19,0 0.36,0.10 0.36,0.24 0,0.13 -0.16,0.24 -0.36,0.24 -0.20,0 -0.36,-0.10 -0.36,-0.24 z m -6.03,-0.24 c 0,-0.13 0.10,-0.24 0.24,-0.24 0.13,0 0.24,0.10 0.24,0.24 0,0.13 -0.10,0.24 -0.24,0.24 -0.13,0 -0.24,-0.10 -0.24,-0.24 z M 3.69,21.15 c -0.08,-0.08 -0.07,-0.27 0.02,-0.42 0.09,-0.14 0.30,-0.75 0.46,-1.35 0.20,-0.77 0.26,-0.85 0.18,-0.27 -0.06,0.44 -0.11,1.12 -0.11,1.50 0,0.66 -0.22,0.87 -0.55,0.54 z m 1.28,-0.31 c 0,-0.27 0.10,-0.49 0.24,-0.49 0.13,0 0.24,0.15 0.24,0.34 0,0.19 -0.10,0.41 -0.24,0.49 -0.13,0.08 -0.24,-0.07 -0.24,-0.34 z m 1.70,0.23 C 6.49,20.96 6.19,20.92 6.02,20.99 c -0.17,0.06 -0.32,0.00 -0.32,-0.14 0,-0.32 1.36,-0.35 1.55,-0.04 0.20,0.32 -0.19,0.50 -0.58,0.26 z m 1.39,0.10 c -0.21,-0.21 0.08,-1.29 0.44,-1.59 0.49,-0.40 0.63,-0.13 0.29,0.60 -0.15,0.34 -0.21,0.70 -0.13,0.79 0.27,0.27 1.36,-0.37 1.37,-0.81 0.00,-0.40 0.02,-0.40 0.26,0.00 0.37,0.64 -0.15,1.13 -1.22,1.13 -0.49,0 -0.95,-0.05 -1.02,-0.12 z m 19.60,-0.22 c 0,-0.05 0.10,-0.17 0.24,-0.25 0.13,-0.08 0.24,-0.03 0.24,0.10 0,0.14 -0.10,0.25 -0.24,0.25 -0.13,0 -0.24,-0.04 -0.24,-0.10 z M 28.78,20.70 c 0.07,-0.19 0.18,-0.36 0.23,-0.36 0.05,0 0.09,0.16 0.09,0.36 0,0.19 -0.10,0.36 -0.23,0.36 -0.12,0 -0.17,-0.16 -0.09,-0.36 z m 6.42,0.19 c -0.29,-0.05 -0.54,-0.26 -0.54,-0.46 0,-0.19 -0.10,-0.29 -0.22,-0.22 -0.12,0.07 -0.29,0.02 -0.37,-0.10 -0.23,-0.38 0.52,-0.28 0.93,0.11 0.23,0.23 0.41,0.27 0.51,0.11 0.08,-0.13 0.25,-0.18 0.37,-0.10 0.26,0.16 0.30,0.84 0.04,0.80 -0.09,-0.01 -0.42,-0.08 -0.72,-0.13 z m -1.75,-0.31 c 0,-0.13 0.10,-0.24 0.24,-0.24 0.13,0 0.24,0.10 0.24,0.24 0,0.13 -0.10,0.24 -0.24,0.24 -0.13,0 -0.24,-0.10 -0.24,-0.24 z M 11.30,20.29 c 0.14,-0.44 0.66,-0.52 0.66,-0.09 0,0.21 -0.17,0.38 -0.38,0.38 -0.21,0 -0.33,-0.12 -0.28,-0.28 z m 32.69,0.12 c -0.08,-0.08 -0.16,-0.27 -0.16,-0.40 0,-0.15 0.11,-0.13 0.28,0.03 0.15,0.15 0.22,0.34 0.16,0.41 -0.06,0.06 -0.19,0.05 -0.28,-0.03 z M 6.66,20.10 c 0,-0.13 0.12,-0.24 0.27,-0.24 0.17,0 0.13,-0.16 -0.10,-0.42 C 6.63,19.20 6.40,18.63 6.34,18.16 6.18,17.03 6.17,17.01 5.96,17.55 5.79,17.98 5.76,17.96 5.64,17.37 5.57,17.00 5.56,16.75 5.62,16.81 c 0.18,0.18 1.06,-0.81 0.92,-1.04 -0.07,-0.11 0.08,-0.15 0.33,-0.08 0.29,0.07 0.71,-0.11 1.13,-0.50 0.43,-0.40 0.75,-0.54 0.90,-0.38 0.30,0.30 1.10,0.30 1.10,-0.00 0,-0.13 -0.26,-0.24 -0.58,-0.24 -0.32,0 -0.65,-0.10 -0.73,-0.24 -0.13,-0.21 0.72,-0.32 2.71,-0.33 0.29,-0.00 0.54,-0.09 0.54,-0.19 0,-0.10 0.11,-0.19 0.25,-0.19 0.14,0 0.17,0.13 0.07,0.30 -0.09,0.16 0.05,0.10 0.33,-0.14 0.33,-0.29 0.68,-0.38 1.02,-0.27 0.35,0.11 0.62,0.02 0.85,-0.28 0.32,-0.42 0.33,-0.42 0.34,0.06 0.00,0.28 -0.16,0.65 -0.36,0.82 -0.20,0.17 -0.30,0.47 -0.22,0.68 0.07,0.20 0.07,0.30 -0.00,0.22 -0.08,-0.08 -0.53,0.10 -1.01,0.42 -0.47,0.32 -1.06,0.58 -1.30,0.58 -0.49,0 -0.62,0.62 -0.16,0.77 0.38,0.12 0.02,0.66 -0.44,0.66 -0.25,0 -0.33,-0.15 -0.24,-0.48 0.06,-0.26 0.09,-0.48 0.04,-0.48 -0.04,0 -0.23,-0.06 -0.43,-0.13 -0.19,-0.07 -0.57,0.09 -0.83,0.37 -0.26,0.28 -0.78,0.56 -1.17,0.62 -0.38,0.06 -0.94,0.39 -1.24,0.72 -0.48,0.55 -0.50,0.66 -0.19,1.10 0.19,0.27 0.28,0.64 0.21,0.82 -0.14,0.38 -0.80,0.45 -0.80,0.09 z m 2.41,-3.23 c 0,-0.05 -0.19,-0.24 -0.42,-0.42 -0.38,-0.30 -0.39,-0.29 -0.09,0.09 0.31,0.40 0.51,0.53 0.51,0.33 z m 2.02,-1.25 c 0.06,-0.17 -0.10,-0.23 -0.47,-0.16 -0.31,0.06 -0.58,0.18 -0.58,0.27 0,0.27 0.94,0.17 1.05,-0.11 z m 21.40,4.37 c -0.15,-0.19 -0.43,-0.29 -0.60,-0.22 -0.17,0.06 -0.39,0.00 -0.48,-0.13 -0.27,-0.44 0.63,-0.61 0.95,-0.17 0.33,0.45 1.08,0.54 1.08,0.11 0,-0.15 0.07,-0.21 0.15,-0.12 0.17,0.17 -0.34,0.89 -0.63,0.89 -0.10,0 -0.31,-0.15 -0.47,-0.34 z M 5.34,19.54 C 5.24,19.30 5.22,19.04 5.30,18.96 c 0.24,-0.24 0.44,0.09 0.32,0.57 -0.09,0.42 -0.11,0.42 -0.29,0.00 z M 37.44,19.37 c -0.37,-0.41 -0.38,-0.48 -0.05,-0.48 0.20,0 0.42,-0.18 0.48,-0.42 0.05,-0.23 0.10,-0.01 0.11,0.48 0.00,0.49 -0.01,0.90 -0.04,0.90 -0.03,0 -0.25,-0.21 -0.49,-0.48 z M 11.49,19.14 c 0,-0.54 1.08,-0.94 1.48,-0.54 0.16,0.16 0.03,0.29 -0.37,0.39 -0.34,0.08 -0.62,0.26 -0.62,0.39 0,0.13 -0.10,0.23 -0.24,0.23 -0.13,0 -0.24,-0.21 -0.24,-0.47 z m 10.41,0.12 c 0.10,-0.53 0.83,-1.03 1.10,-0.75 0.10,0.11 0.05,0.25 -0.11,0.31 -0.16,0.05 -0.47,0.28 -0.69,0.49 -0.35,0.34 -0.37,0.34 -0.29,-0.05 z m 5.63,-0.13 c -0.09,-0.15 -0.02,-0.38 0.15,-0.49 0.40,-0.24 0.61,0.19 0.26,0.54 -0.16,0.16 -0.30,0.14 -0.42,-0.04 z m 5.11,0.08 c -0.30,-0.30 -0.16,-0.56 0.30,-0.56 0.60,0 0.84,0.38 0.35,0.57 -0.47,0.18 -0.46,0.18 -0.66,-0.01 z M 8.11,18.83 c 0,-0.42 0.66,-1.04 0.89,-0.81 0.08,0.08 0.02,0.15 -0.14,0.15 -0.16,0 -0.23,0.09 -0.16,0.21 0.07,0.11 -0.02,0.34 -0.22,0.51 -0.29,0.24 -0.35,0.22 -0.35,-0.06 z m 2.28,-0.00 c -0.19,-0.46 -0.04,-0.75 0.31,-0.61 0.12,0.04 0.14,0.30 0.04,0.56 -0.17,0.45 -0.19,0.45 -0.35,0.05 z m 6.53,0.09 c -0.07,-0.11 0.05,-0.36 0.28,-0.54 0.37,-0.29 0.38,-0.28 0.11,0.05 -0.16,0.21 -0.22,0.45 -0.14,0.54 0.08,0.08 0.09,0.15 0.01,0.15 -0.08,0 -0.20,-0.09 -0.27,-0.21 z m 6.86,-0.01 c 0,-0.14 0.10,-0.25 0.24,-0.25 0.13,0 0.24,0.04 0.24,0.10 0,0.05 -0.10,0.17 -0.24,0.25 -0.13,0.08 -0.24,0.03 -0.24,-0.10 z m 11.10,-0.13 c 0,-0.38 0.81,-0.91 1.05,-0.67 0.27,0.27 0.15,0.47 -0.45,0.75 -0.49,0.22 -0.60,0.21 -0.60,-0.07 z m 6.51,0.12 c 0,-0.12 0.21,-0.34 0.48,-0.49 0.53,-0.28 0.64,-0.02 0.19,0.43 -0.34,0.34 -0.67,0.37 -0.67,0.05 z M 14.24,18.27 c 0.08,-0.20 0.14,-0.42 0.14,-0.48 0,-0.21 0.94,-0.08 1.08,0.14 0.08,0.13 -0.07,0.24 -0.34,0.24 -0.27,0 -0.49,0.10 -0.49,0.24 0,0.13 -0.12,0.24 -0.26,0.24 -0.14,0 -0.20,-0.17 -0.12,-0.38 z m 3.52,0.14 c 0,-0.13 0.10,-0.24 0.22,-0.24 0.12,0 0.29,0.10 0.37,0.24 0.08,0.13 -0.02,0.24 -0.22,0.24 -0.20,0 -0.37,-0.10 -0.37,-0.24 z m 11.85,-0.39 c -0.32,-0.72 -0.26,-0.88 0.28,-0.67 0.52,0.20 0.68,0.74 0.31,1.05 -0.23,0.19 -0.38,0.10 -0.59,-0.37 z m 1.17,0.53 c 0,-0.05 0.10,-0.17 0.24,-0.25 0.13,-0.08 0.24,-0.03 0.24,0.10 0,0.14 -0.10,0.25 -0.24,0.25 -0.13,0 -0.24,-0.04 -0.24,-0.10 z M 13.18,18.28 c 0,-0.07 0.15,-0.50 0.34,-0.96 0.35,-0.85 0.69,-1.04 1.00,-0.55 0.10,0.16 0.06,0.21 -0.09,0.11 -0.16,-0.10 -0.32,0.15 -0.42,0.68 -0.09,0.48 -0.30,0.85 -0.49,0.85 -0.18,0 -0.33,-0.05 -0.33,-0.12 z m 27.03,-0.59 c 0,-0.13 0.10,-0.24 0.24,-0.24 0.13,0 0.24,0.10 0.24,0.24 0,0.13 -0.10,0.24 -0.24,0.24 -0.13,0 -0.24,-0.10 -0.24,-0.24 z M 22.11,17.44 c 0,-0.13 0.15,-0.24 0.34,-0.24 0.19,0 0.41,0.10 0.49,0.24 0.08,0.13 -0.07,0.24 -0.34,0.24 -0.27,0 -0.49,-0.10 -0.49,-0.24 z m 17.50,0 c -0.08,-0.13 -0.03,-0.24 0.10,-0.24 0.14,0 0.25,0.10 0.25,0.24 0,0.13 -0.04,0.24 -0.10,0.24 -0.05,0 -0.17,-0.10 -0.25,-0.24 z M 17.77,16.91 c 0,-0.20 0.17,-0.52 0.40,-0.70 0.36,-0.30 0.37,-0.27 0.08,0.27 -0.42,0.80 -0.48,0.86 -0.48,0.43 z m 3.01,0.05 c -0.46,-0.19 -0.45,-0.20 0.05,-0.22 0.29,-0.00 0.54,0.09 0.54,0.22 0,0.13 -0.02,0.23 -0.05,0.22 -0.03,-0.00 -0.27,-0.11 -0.54,-0.22 z m 10.19,-0.02 c 0.16,-0.16 0.35,-0.23 0.43,-0.16 0.07,0.07 -0.05,0.20 -0.29,0.29 -0.34,0.13 -0.37,0.10 -0.13,-0.13 z m 7.07,-0.46 c -0.92,-0.78 -0.84,-0.90 0.24,-0.34 0.39,0.20 0.71,0.52 0.71,0.72 0,0.45 0.02,0.46 -0.95,-0.37 z m -21.70,0.27 c -0.24,-0.15 -0.25,-0.24 -0.04,-0.37 0.33,-0.20 0.58,-0.02 0.45,0.33 -0.05,0.14 -0.22,0.16 -0.41,0.04 z m 11.79,-0.04 c 0,-0.14 -0.16,-0.20 -0.36,-0.12 -0.50,0.19 -0.45,-0.17 0.09,-0.66 0.27,-0.24 0.51,-0.31 0.60,-0.17 0.08,0.13 0.04,0.30 -0.08,0.38 -0.12,0.07 -0.17,0.30 -0.09,0.49 0.07,0.19 0.07,0.35 -0.00,0.35 -0.08,0 -0.14,-0.12 -0.14,-0.26 z m 11.38,-0.29 c -0.71,-0.76 -0.66,-1.03 0.10,-0.52 0.47,0.31 0.67,0.34 0.81,0.12 0.10,-0.17 0.18,-0.04 0.18,0.33 0,0.77 -0.41,0.80 -1.10,0.07 z m -17.42,0.10 c 0,-0.26 0.74,-0.57 0.93,-0.38 0.07,0.07 -0.02,0.24 -0.21,0.36 -0.45,0.28 -0.71,0.29 -0.71,0.01 z m 11.58,-0.02 c 0,-0.13 0.10,-0.24 0.24,-0.24 0.13,0 0.24,0.10 0.24,0.24 0,0.13 -0.10,0.24 -0.24,0.24 -0.13,0 -0.24,-0.10 -0.24,-0.24 z M 15.11,15.99 c 0,-0.13 0.10,-0.24 0.24,-0.24 0.13,0 0.24,0.10 0.24,0.24 0,0.13 -0.10,0.24 -0.24,0.24 -0.13,0 -0.24,-0.10 -0.24,-0.24 z m 3.62,0.15 c 0,-0.05 0.16,-0.22 0.36,-0.39 0.29,-0.24 0.36,-0.22 0.36,0.09 0,0.21 -0.16,0.39 -0.36,0.39 -0.20,0 -0.36,-0.04 -0.36,-0.09 z M 20.78,15.99 c -0.08,-0.13 0.01,-0.24 0.21,-0.24 0.19,0 0.42,0.10 0.51,0.24 0.08,0.13 -0.01,0.24 -0.21,0.24 -0.19,0 -0.42,-0.10 -0.51,-0.24 z m 2.77,0 c 0,-0.13 0.04,-0.24 0.10,-0.24 0.05,0 0.17,0.10 0.25,0.24 0.08,0.13 0.03,0.24 -0.10,0.24 -0.14,0 -0.25,-0.10 -0.25,-0.24 z m 7.43,-0.04 c 0.22,-0.22 0.35,-0.22 0.58,0 0.22,0.22 0.16,0.28 -0.29,0.28 -0.45,0 -0.51,-0.06 -0.29,-0.28 z m -5.20,-0.25 c 0.05,-0.16 0.30,-0.34 0.55,-0.38 0.39,-0.07 0.41,-0.03 0.13,0.30 -0.38,0.46 -0.83,0.51 -0.68,0.08 z M 15.23,15.50 c -0.42,-0.15 -0.39,-0.19 0.23,-0.36 0.48,-0.12 0.74,-0.09 0.80,0.10 0.07,0.22 0.17,0.22 0.44,-0.00 0.43,-0.36 1.47,-0.49 1.65,-0.20 0.35,0.57 -1.93,0.91 -3.14,0.46 z m 22.06,-0.20 c -0.60,-0.49 -0.55,-0.86 0.09,-0.61 0.37,0.14 0.75,0.81 0.57,0.99 -0.05,0.05 -0.35,-0.11 -0.66,-0.37 z m -13.10,0.00 c -0.65,-0.14 -0.67,-0.17 -0.27,-0.50 0.37,-0.31 0.46,-0.30 0.72,0.05 0.23,0.31 0.36,0.34 0.60,0.11 0.24,-0.23 0.29,-0.22 0.20,0.05 -0.13,0.42 -0.36,0.48 -1.26,0.28 z m -1.34,-0.63 c 0,-0.19 0.10,-0.36 0.24,-0.36 0.13,0 0.24,0.16 0.24,0.36 0,0.19 -0.10,0.36 -0.24,0.36 -0.13,0 -0.24,-0.16 -0.24,-0.36 z m -7.10,-0.26 c -0.12,-0.31 -0.21,-0.33 -0.51,-0.08 -0.38,0.32 -0.73,0.18 -0.50,-0.19 0.15,-0.25 2.08,-0.31 2.08,-0.06 0,0.21 -0.53,0.73 -0.74,0.73 -0.09,0 -0.23,-0.17 -0.31,-0.38 z m 3.96,0.20 c 0,-0.09 -0.59,-0.16 -1.32,-0.15 -0.92,0.01 -1.32,-0.06 -1.32,-0.28 0,-0.28 1.87,-0.31 4.10,-0.05 0.98,0.11 0.68,0.54 -0.42,0.61 -0.56,0.03 -1.02,-0.02 -1.02,-0.12 z m 19.07,-0.05 c -0.19,-0.11 -0.26,-0.29 -0.17,-0.39 0.09,-0.09 0.30,-0.05 0.46,0.10 0.36,0.36 0.16,0.56 -0.29,0.28 z M 25.55,14.38 c -0.34,-0.13 -0.40,-0.56 -0.08,-0.56 0.11,0 0.27,0.16 0.35,0.36 0.07,0.19 0.11,0.35 0.08,0.34 -0.02,-0.01 -0.18,-0.07 -0.35,-0.14 z m 5.25,-0.02 c 0,-0.09 0.27,-0.19 0.60,-0.21 0.33,-0.01 0.54,0.06 0.46,0.18 -0.16,0.26 -1.07,0.29 -1.07,0.03 z m -2.41,-0.30 c 0,-0.13 0.10,-0.24 0.22,-0.24 0.12,0 0.29,0.10 0.37,0.24 0.08,0.13 -0.02,0.24 -0.22,0.24 -0.20,0 -0.37,-0.10 -0.37,-0.24 z m 7.88,0.05 c -0.26,-0.05 -0.38,-0.23 -0.31,-0.43 0.08,-0.22 -0.03,-0.34 -0.34,-0.34 -0.26,0 -0.47,-0.10 -0.47,-0.24 0,-0.41 0.97,-0.26 1.13,0.18 0.08,0.23 0.26,0.49 0.40,0.59 0.34,0.23 0.11,0.36 -0.41,0.24 z M 21.68,13.77 c 0.05,-0.15 0.22,-0.32 0.38,-0.38 0.17,-0.05 0.23,0.05 0.14,0.28 -0.16,0.43 -0.66,0.53 -0.52,0.09 z m 0.66,0.19 c 0,-0.05 0.16,-0.22 0.36,-0.39 0.30,-0.25 0.34,-0.24 0.21,0.09 -0.12,0.33 -0.58,0.57 -0.58,0.30 z m 1.93,-0.15 c 0,-0.13 0.10,-0.24 0.24,-0.24 0.13,0 0.24,0.10 0.24,0.24 0,0.13 -0.10,0.24 -0.24,0.24 -0.13,0 -0.24,-0.10 -0.24,-0.24 z m 4.86,-0.18 c -0.34,-0.28 -0.32,-0.30 0.20,-0.15 0.98,0.26 1.42,0.56 0.75,0.52 -0.31,-0.02 -0.74,-0.18 -0.96,-0.36 z M 8.02,13.52 c 0.24,-0.41 1.28,-1.22 1.82,-1.44 0.77,-0.30 0.46,0.23 -0.57,0.99 -1.05,0.77 -1.55,0.95 -1.24,0.44 z m 2.25,-0.15 c 0,-0.25 0.73,-0.47 1.14,-0.33 0.57,0.19 0.29,0.54 -0.42,0.54 -0.39,0 -0.72,-0.09 -0.72,-0.21 z m 5.31,-0.08 c 0,-0.20 0.17,-0.44 0.39,-0.52 0.59,-0.22 0.63,-0.03 0.08,0.46 -0.40,0.37 -0.48,0.38 -0.48,0.06 z m 1.02,-0.00 c 0.05,-0.16 0.28,-0.33 0.50,-0.37 0.28,-0.05 0.35,0.03 0.25,0.30 -0.17,0.44 -0.90,0.52 -0.75,0.07 z m 1.42,0.09 c -0.26,-0.16 -0.26,-0.22 0.02,-0.33 0.19,-0.07 0.34,0.01 0.34,0.20 0,0.18 -0.00,0.33 -0.01,0.33 -0.01,-0.00 -0.16,-0.09 -0.34,-0.20 z m 16.01,-0.27 c -0.08,-0.13 0.01,-0.24 0.22,-0.24 0.20,0 0.37,0.10 0.37,0.24 0,0.13 -0.10,0.24 -0.22,0.24 -0.12,0 -0.29,-0.10 -0.37,-0.24 z M 13.42,12.73 c 0,-0.20 0.21,-0.36 0.48,-0.36 0.57,0 0.64,0.37 0.10,0.57 -0.53,0.20 -0.58,0.19 -0.58,-0.21 z m 10.14,0.12 c 0,-0.13 0.16,-0.24 0.37,-0.24 0.20,0 0.30,0.10 0.22,0.24 -0.08,0.13 -0.25,0.24 -0.37,0.24 -0.12,0 -0.22,-0.10 -0.22,-0.24 z m -11.42,-0.16 c -0.28,-0.28 -0.16,-0.56 0.26,-0.59 0.40,-0.02 0.40,-0.03 0,-0.13 -0.52,-0.13 -0.54,-0.45 -0.04,-0.65 0.62,-0.24 1.00,-0.16 1.15,0.22 0.29,0.76 -0.82,1.70 -1.37,1.15 z M 34.12,12.14 c -0.23,-0.27 -0.30,-0.53 -0.17,-0.61 0.12,-0.07 0.23,-0.03 0.23,0.09 0,0.13 0.21,0.30 0.48,0.39 0.26,0.08 0.42,0.25 0.34,0.37 -0.20,0.33 -0.44,0.27 -0.89,-0.25 z m -13.30,0.07 c -0.27,-0.27 -0.17,-0.56 0.20,-0.56 0.19,0 0.36,0.16 0.36,0.36 0,0.37 -0.28,0.47 -0.56,0.20 z m 5.93,-0.12 c 0.11,-0.36 0.66,-0.55 0.66,-0.24 0,0.12 -0.17,0.30 -0.38,0.38 -0.23,0.09 -0.34,0.03 -0.28,-0.14 z M 14.47,11.49 c -0.07,-0.31 -0.32,-0.56 -0.53,-0.57 -0.28,-0.00 -0.19,-0.17 0.31,-0.59 0.39,-0.32 0.63,-0.66 0.54,-0.75 -0.09,-0.09 0.03,-0.28 0.28,-0.43 0.24,-0.14 0.68,-0.40 0.96,-0.57 0.71,-0.43 0.66,0.05 -0.08,0.80 -0.40,0.40 -0.48,0.59 -0.24,0.59 0.65,0 0.35,0.42 -0.43,0.59 -0.49,0.10 -0.65,0.22 -0.42,0.30 0.19,0.07 0.61,0.38 0.93,0.69 l 0.57,0.56 -0.87,-0.03 c -0.70,-0.02 -0.90,-0.14 -1.01,-0.59 z m 7.63,0.53 c 0,-0.05 0.10,-0.17 0.24,-0.25 0.13,-0.08 0.24,-0.03 0.24,0.10 0,0.14 -0.10,0.25 -0.24,0.25 -0.13,0 -0.24,-0.04 -0.24,-0.10 z M 10.76,11.65 10.16,11.50 10.69,11.21 c 0.67,-0.36 0.72,-0.36 0.88,0.06 0.17,0.46 -0.06,0.57 -0.80,0.37 z m 14.66,0.07 c 0.16,-0.06 0.43,-0.06 0.60,0 0.16,0.06 0.02,0.12 -0.30,0.12 -0.33,0 -0.46,-0.05 -0.30,-0.12 z M 21.89,11.53 c -0.02,-0.43 0.32,-0.74 0.88,-0.78 0.29,-0.01 0.54,0.06 0.54,0.19 0,0.12 -0.26,0.22 -0.58,0.22 -0.32,0 -0.63,0.13 -0.70,0.30 -0.06,0.16 -0.12,0.19 -0.13,0.06 z m 5.77,-0.21 c 0,-0.05 0.16,-0.15 0.37,-0.23 0.21,-0.08 0.31,-0.04 0.22,0.09 -0.14,0.22 -0.60,0.33 -0.60,0.14 z M 9.34,10.95 c 0.10,-0.30 0.45,-0.37 0.45,-0.09 0,0.09 -0.12,0.22 -0.27,0.27 -0.14,0.04 -0.23,-0.03 -0.18,-0.18 z m 7.58,-0.01 c -0.07,-0.12 -0.05,-0.27 0.04,-0.34 0.28,-0.17 1.51,0.10 1.51,0.35 0,0.28 -1.38,0.27 -1.55,-0.01 z m 13.87,-0.01 c 0,-0.13 -0.02,-0.31 -0.05,-0.39 -0.03,-0.08 0.23,-0.18 0.58,-0.22 0.61,-0.06 0.62,-0.04 0.24,0.39 -0.43,0.50 -0.77,0.60 -0.77,0.22 z m 2.17,0 c 0,-0.13 0.10,-0.24 0.24,-0.24 0.13,0 0.24,0.10 0.24,0.24 0,0.13 -0.10,0.24 -0.24,0.24 -0.13,0 -0.24,-0.10 -0.24,-0.24 z m 2.05,0 c -0.08,-0.13 -0.03,-0.24 0.10,-0.24 0.14,0 0.25,0.10 0.25,0.24 0,0.13 -0.04,0.24 -0.10,0.24 -0.05,0 -0.17,-0.10 -0.25,-0.24 z m 0.72,0 c -0.18,-0.30 0.13,-0.30 0.60,0 0.31,0.20 0.30,0.23 -0.04,0.23 -0.22,0.00 -0.47,-0.10 -0.55,-0.23 z M 19.69,10.68 c -0.30,-0.19 -0.30,-0.23 0.05,-0.23 0.23,-0.00 0.42,0.10 0.42,0.23 0,0.29 -0.02,0.29 -0.48,0 z m 12.31,0.13 c 0,-0.05 0.10,-0.17 0.24,-0.25 0.13,-0.08 0.24,-0.03 0.24,0.10 0,0.14 -0.10,0.25 -0.24,0.25 -0.13,0 -0.24,-0.04 -0.24,-0.10 z m 5.31,-0.13 c 0,-0.13 0.04,-0.24 0.10,-0.24 0.05,0 0.17,0.10 0.25,0.24 0.08,0.13 0.03,0.24 -0.10,0.24 -0.14,0 -0.25,-0.10 -0.25,-0.24 z M 12.21,10.50 c 8.17e-4,-0.09 0.34,-0.37 0.76,-0.61 0.48,-0.27 0.66,-0.31 0.48,-0.09 -0.15,0.18 -0.19,0.42 -0.09,0.53 0.09,0.10 0.05,0.12 -0.10,0.03 -0.15,-0.08 -0.35,-0.05 -0.43,0.08 -0.17,0.28 -0.60,0.33 -0.60,0.06 z m 15.93,-0.15 c 0,-0.33 0.66,-1.02 0.82,-0.84 0.04,0.05 -0.00,0.33 -0.11,0.63 -0.22,0.59 -0.70,0.73 -0.70,0.21 z M 10.16,10.20 c 0.08,-0.13 0.25,-0.24 0.39,-0.24 0.13,0 0.17,0.10 0.09,0.24 -0.08,0.13 -0.25,0.24 -0.39,0.24 -0.13,0 -0.17,-0.10 -0.09,-0.24 z m 14.12,0 c 0,-0.13 0.10,-0.24 0.24,-0.24 0.13,0 0.24,0.10 0.24,0.24 0,0.13 -0.10,0.24 -0.24,0.24 -0.13,0 -0.24,-0.10 -0.24,-0.24 z m -5.06,-0.23 c -0.52,-0.32 -0.22,-0.48 1.20,-0.65 0.93,-0.11 1.23,-0.07 1.10,0.12 -0.09,0.15 -0.49,0.27 -0.88,0.27 -0.39,0 -0.71,0.10 -0.71,0.24 0,0.29 -0.25,0.30 -0.71,0.00 z M 26.35,9.70 C 26.10,9.44 25.97,9.15 26.07,9.05 c 0.10,-0.09 0.32,0.00 0.49,0.24 0.17,0.23 0.43,0.42 0.58,0.42 0.15,0 0.27,0.10 0.27,0.24 0,0.38 -0.56,0.25 -1.06,-0.25 z M 23.32,9.46 c 0,-0.27 0.10,-0.42 0.24,-0.34 0.13,0.08 0.24,0.30 0.24,0.49 0,0.19 -0.10,0.34 -0.24,0.34 -0.13,0 -0.24,-0.22 -0.24,-0.49 z M 33.46,9.72 C 33.27,9.60 33.18,9.43 33.27,9.34 c 0.22,-0.22 0.90,0.06 0.90,0.37 0,0.30 -0.24,0.31 -0.71,0.01 z M 11.82,9.35 c 0.11,-0.29 0.05,-0.32 -0.32,-0.12 -0.64,0.34 -0.84,0.30 -0.51,-0.09 0.15,-0.18 0.46,-0.30 0.69,-0.26 0.22,0.03 0.62,-0.05 0.89,-0.21 0.26,-0.15 0.97,-0.30 1.56,-0.32 l 1.08,-0.03 -0.57,0.46 c -0.62,0.51 -1.24,0.61 -1.24,0.20 0,-0.14 -0.28,-0.03 -0.63,0.24 -0.75,0.59 -1.16,0.64 -0.96,0.13 z m 4.96,0.11 C 16.60,9.35 16.50,9.23 16.56,9.18 c 1.01,-0.65 1.68,-0.83 1.68,-0.46 0,0.39 -1.10,0.96 -1.46,0.74 z m 12.97,0.09 c -0.37,-0.37 -0.13,-0.81 0.45,-0.81 0.46,0 0.60,0.10 0.54,0.41 -0.08,0.43 -0.70,0.68 -0.99,0.39 z M 22.02,9.03 c -0.13,-0.21 0.68,-1.00 1.03,-1.00 0.35,0 0.48,0.64 0.19,0.93 -0.31,0.31 -1.05,0.35 -1.23,0.07 z M 19.51,8.70 c 0.05,-0.15 0.22,-0.32 0.38,-0.38 0.17,-0.05 0.23,0.05 0.14,0.28 -0.16,0.43 -0.66,0.53 -0.52,0.09 z m 1.15,-0.05 c 0,-0.21 0.17,-0.38 0.38,-0.38 0.42,0 0.35,0.51 -0.09,0.66 -0.15,0.05 -0.28,-0.07 -0.28,-0.28 z m 7.48,-0.00 c 0,-0.33 0.88,-0.77 1.11,-0.54 0.14,0.14 -0.59,0.89 -0.89,0.89 -0.12,0 -0.22,-0.15 -0.22,-0.34 z m 3.64,0.01 C 31.58,8.41 31.24,8.31 30.83,8.39 30.29,8.50 30.27,8.48 30.68,8.29 c 0.26,-0.12 0.37,-0.25 0.24,-0.28 -0.13,-0.02 -0.34,-0.07 -0.48,-0.10 -0.13,-0.03 -0.37,-0.06 -0.54,-0.08 -0.35,-0.03 -0.41,-0.75 -0.05,-0.75 0.13,0 0.24,0.10 0.24,0.23 0,0.12 0.37,0.30 0.83,0.38 0.88,0.16 1.44,0.63 1.28,1.09 -0.05,0.18 -0.20,0.14 -0.41,-0.11 z M 18.49,8.51 c 0,-0.13 0.16,-0.24 0.36,-0.24 0.20,0 0.36,0.10 0.36,0.24 0,0.13 -0.16,0.24 -0.36,0.24 -0.19,0 -0.36,-0.10 -0.36,-0.24 z m 5.89,-0.03 c -0.10,-0.17 -0.06,-0.21 0.11,-0.09 0.15,0.09 0.45,0.04 0.64,-0.11 0.19,-0.16 0.43,-0.22 0.52,-0.12 0.18,0.18 -0.38,0.61 -0.82,0.62 -0.15,0.00 -0.36,-0.12 -0.46,-0.27 z m 9.07,-0.20 c 0,-0.26 0.10,-0.48 0.22,-0.48 0.12,0 0.20,0.21 0.18,0.48 -0.01,0.26 -0.12,0.48 -0.22,0.48 -0.10,0 -0.19,-0.21 -0.19,-0.48 z M 32.66,8.10 C 32.56,7.95 32.08,7.69 31.58,7.53 30.20,7.09 30.13,6.84 31.39,6.92 c 1.26,0.08 1.67,0.35 1.54,1.01 -0.05,0.30 -0.14,0.35 -0.26,0.16 z M 18.55,7.86 c 0.23,-0.06 0.61,-0.06 0.84,0 0.23,0.06 0.04,0.11 -0.42,0.11 -0.46,0 -0.65,-0.04 -0.42,-0.11 z m 2.11,-0.18 c 0,-0.25 0.46,-0.36 0.60,-0.13 0.08,0.13 -0.01,0.24 -0.22,0.24 -0.20,0 -0.37,-0.04 -0.37,-0.10 z m 2.41,-1.67 c 0,-0.22 0.72,-0.34 0.85,-0.13 0.07,0.12 -0.08,0.23 -0.35,0.23 -0.27,0 -0.49,-0.04 -0.49,-0.09 z M 13.70,40.69 c -0.17,-0.06 -0.38,-0.05 -0.46,0.01 -0.08,0.08 0.06,0.13 0.31,0.12 0.28,-0.01 0.33,-0.06 0.14,-0.14 z m 29.97,-23.86 c -0.07,-0.20 -0.19,-0.32 -0.25,-0.25 -0.06,0.06 -0.04,0.23 0.04,0.37 0.23,0.38 0.37,0.31 0.21,-0.11 z M 20.37,6.39 c 1.50,-0.42 1.75,-0.77 0.55,-0.77 -0.43,0.00 -0.52,0.06 -0.29,0.20 0.43,0.27 -0.78,0.58 -1.46,0.37 -0.31,-0.09 -0.43,-0.06 -0.33,0.09 0.08,0.14 -0.12,0.29 -0.51,0.35 -0.63,0.09 -0.63,0.10 -0.06,0.13 0.33,0.01 1.28,-0.15 2.12,-0.39 z M 19.31,5.69 C 20.06,5.27 19.11,5.09 18.31,5.50 c -0.36,0.19 -0.86,0.35 -1.10,0.35 -0.23,8.17e-4 -0.37,0.09 -0.30,0.21 0.14,0.24 1.74,-0.00 2.40,-0.37 z M 20.71,5.21 c -0.17,-0.06 -0.38,-0.06 -0.46,0.01 -0.07,0.08 0.06,0.13 0.31,0.12 0.28,-0.01 0.33,-0.06 0.14,-0.14 z" />
</svg>
