<?xml version="1.0" encoding="UTF-8" standalone="no"?>
<!-- Created with Inkscape (http://www.inkscape.org/) -->
<svg xmlns:dc="http://purl.org/dc/elements/1.1/" xmlns:cc="http://creativecommons.org/ns#" xmlns:rdf="http://www.w3.org/1999/02/22-rdf-syntax-ns#" xmlns:svg="http://www.w3.org/2000/svg" xmlns="http://www.w3.org/2000/svg" version="1.1" width="100%" height="100%" viewBox="0 0 48 48" id="svg2" style="overflow:visible">
<defs id="defs21" />
<path d="M 10.01,2.05 C 7.96,2.04 5.88,2.38 3.72,3.05 c 1.76,2.31 3.77,4.11 6.22,5.44 2.42,1.30 5.66,1.87 8.21,2.49 2.51,0.62 4.72,0.95 6.77,1.14 -0.46,0.22 -0.94,0.44 -1.42,0.66 -1.29,-0.54 -2.83,-0.69 -4.68,-0.48 -1.90,0.21 -4.50,0.41 -6.39,1.81 -1.90,1.37 -3.96,3.50 -4.78,6.40 -0.83,2.90 -1.08,7.05 -0.08,10.80 1.02,3.71 3.39,8.72 6.11,11.26 2.67,2.44 6.48,3.19 9.84,3.54 3.33,0.34 7.12,-0.27 10.02,-1.43 2.85,-1.23 5.36,-3.11 7.07,-5.63 1.66,-2.57 2.84,-6.08 2.96,-9.46 0.05,-3.38 -0.98,-7.91 -2.39,-10.60 -1.40,-2.70 -3.65,-4.30 -5.92,-5.44 -2.30,-1.15 -4.84,-1.56 -7.74,-1.32 -0.17,-0.58 -0.20,-1.21 -0.09,-1.91 0.07,-0.71 0.30,-1.46 0.66,-2.29 0.12,-0.50 0.01,-0.91 -0.37,-1.24 -0.42,-0.36 -1.46,-0.82 -1.91,-0.76 -0.43,0.04 -0.65,0.37 -0.66,1.04 0.16,0.88 0.36,1.74 0.47,2.66 C 25.74,10.66 25.79,11.55 25.88,12.52 24.99,9.81 23.49,7.63 21.30,5.93 19.07,4.20 15.75,2.77 12.79,2.30 11.86,2.14 10.94,2.06 10.01,2.05 z m 0.28,0.53 c 1.37,-0.00 2.68,0.12 3.94,0.37 2.87,0.58 5.68,2.35 7.54,3.82 1.77,1.43 2.82,3.00 3.15,4.77 C 24.30,10.70 23.04,9.73 21.01,8.69 18.97,7.63 15.63,6.14 12.89,5.26 10.15,4.34 7.44,3.67 4.68,3.25 6.67,2.81 8.53,2.59 10.29,2.59 z M 4.96,3.82 C 8.35,4.56 11.27,5.34 13.85,6.21 16.38,7.06 18.47,8.05 20.25,8.98 22.02,9.90 23.41,10.76 24.46,11.65 21.52,11.13 18.98,10.57 16.71,9.93 14.41,9.30 12.85,8.82 10.88,7.83 8.90,6.79 6.96,5.49 4.96,3.82 z M 25.87,6.45 c 0.18,0.00 0.39,0.06 0.58,0.13 0.34,0.10 1.02,0.34 1.15,0.86 0.10,0.49 -0.25,1.24 -0.39,2.20 -0.14,0.93 -0.35,2.40 -0.37,3.53 -0.02,1.10 0.08,2.15 0.29,3.15 -0.25,-0.44 -0.50,-0.89 -0.76,-1.33 0,-0.71 0.00,-1.62 -0.08,-2.67 C 26.17,11.23 26.01,9.53 25.88,8.60 25.75,7.65 25.39,7.02 25.51,6.69 25.54,6.51 25.69,6.45 25.87,6.45 z m -6.60,6.14 c 1.07,0.02 2.09,0.17 2.89,0.30 1.57,0.19 2.61,0.63 3.25,1.33 0.29,0.54 0.57,1.08 0.85,1.62 -1.06,-0.08 -1.46,0.02 -1.23,0.29 0.20,0.29 1.96,1.18 2.58,1.33 0.58,0.08 0.71,-0.39 1.04,-0.66 0.34,-0.33 1.22,-0.96 1.04,-1.04 -0.20,-0.06 -0.98,0.15 -2.30,0.66 -0.08,-0.74 -0.13,-1.41 -0.08,-2.00 0.02,-0.61 0.13,-1.13 0.29,-1.62 2.11,-0.33 4.09,-0.07 6.11,0.75 2.00,0.82 4.31,2.11 5.82,4.20 1.46,2.11 2.73,4.95 2.96,8.22 0.19,3.24 0.00,7.82 -1.81,10.98 -1.88,3.10 -5.26,6.46 -9.26,7.64 -4.06,1.11 -11.05,0.79 -14.71,-0.75 -3.62,-1.56 -5.37,-5.58 -6.88,-8.51 -1.54,-3.01 -2.33,-6.10 -2.29,-9.07 0.04,-2.94 1.03,-6.21 2.48,-8.40 1.43,-2.23 3.95,-3.94 6.02,-4.78 1.01,-0.40 2.13,-0.51 3.21,-0.49 z" />
</svg>
