<?xml version="1.0" encoding="UTF-8" standalone="no"?>
<!-- Created with Inkscape (http://www.inkscape.org/) -->
<svg xmlns:dc="http://purl.org/dc/elements/1.1/" xmlns:cc="http://creativecommons.org/ns#" xmlns:rdf="http://www.w3.org/1999/02/22-rdf-syntax-ns#" xmlns:svg="http://www.w3.org/2000/svg" xmlns="http://www.w3.org/2000/svg" version="1.1" width="100%" height="100%" viewBox="0 0 48 48" id="Layer_1" xml:space="preserve">
<defs id="defs91" />
<path d="m 27.59,1.06 c -1.61,-0.07 -3.45,1.61 -3.50,2.36 -0.06,-1.49 -4.16,-2.61 -2.92,-0.49 0.11,1.80 2.18,2.46 3.22,2.60 -0.16,1.17 0.31,3.58 -0.83,3.71 -0.52,1.46 0.41,-1.60 -0.65,-0.03 -0.52,1.40 -1.10,0.81 -1.00,-0.48 -0.59,0.69 -0.81,2.91 -1.06,2.86 -0.07,-1.36 -0.66,-3.34 0.60,-4.06 1.10,-2.07 -1.16,-3.72 -2.99,-3.99 -1.53,-0.55 0.83,1.61 0.89,2.39 0.39,0.94 -1.85,-0.65 -2.28,0.58 -0.83,0.80 -2.09,1.69 -0.32,1.28 1.19,-0.16 2.23,0.69 3.43,0.37 1.16,-0.56 -0.79,1.79 -0.53,2.73 -0.75,-1.45 -2.72,-2.68 -4.12,-1.47 -0.23,0.34 2.02,0.27 0.54,0.74 -1.00,0.54 -2.34,1.10 -0.56,1.04 -0.80,0.36 -2.26,1.67 -0.38,1.29 1.43,-0.41 0.19,0.78 -0.05,1.38 -0.73,0.94 0.02,0.41 0.60,0.06 0.56,-0.32 1.13,-0.65 1.70,-0.98 0.10,0.36 -0.05,1.95 0.24,1.38 0.33,-0.63 0.66,-1.26 0.99,-1.90 0.22,0.60 0.40,1.61 0.79,0.51 0.31,-1.16 0.92,1.90 0.73,1.45 -1.21,-0.56 -2.50,0.21 -1.21,0.52 -0.42,0.08 -1.79,-0.03 -1.57,0.19 0.77,0.41 2.08,0.87 0.32,1.09 -0.97,0.61 -3.41,0.65 -3.58,1.50 0.86,0.40 0.52,0.89 1.10,1.55 -0.87,-0.43 -1.43,-0.37 -0.47,0.41 0.16,0.41 -2.81,0.46 -2.93,1.35 -1.58,1.02 -1.85,3.24 -1.30,4.93 0.19,1.53 2.53,2.18 1.28,3.67 -0.10,1.37 1.76,-0.12 0.98,1.33 -0.24,0.99 0.24,0.98 0.67,0.21 1.19,1.18 -1.77,0.48 -0.82,1.26 -0.76,0.13 -1.52,0.26 -2.28,0.39 0.28,0.40 2.20,0.60 1.20,1.07 -0.98,0.53 -1.97,1.07 -2.96,1.61 0.38,0.90 3.42,-0.92 2.40,0.48 -0.42,1.74 2.03,-1.65 2.34,0.17 0.63,1.50 0.57,-1.16 1.48,0.00 0.40,-0.32 0.70,-1.89 1.73,-1.13 2.49,-0.16 -0.09,2.30 0.83,3.07 1.07,-1.15 0.00,1.95 1.10,0.81 0.52,-1.57 1.39,3.14 2.03,1.00 -0.45,-1.83 1.25,1.14 1.12,-0.78 -0.07,-1.88 1.33,1.54 1.12,2.38 0.03,1.28 0.65,3.08 0.33,4.04 -2.04,0.20 -4.08,0.40 -6.12,0.60 5.18,-0.06 10.37,-0.13 15.56,-0.20 -2.07,-0.22 -4.43,-0.12 -6.32,-0.53 0.06,-1.80 -0.13,-3.60 -0.51,-5.37 1.76,-0.48 2.43,-3.94 2.09,-4.62 -1.37,0.51 -2.37,1.80 -2.50,3.27 0.23,-1.30 -2.31,-4.20 -0.06,-3.95 0.93,0.00 2.26,-1.69 2.39,0.01 0.81,0.58 0.97,-0.65 1.33,0.74 0.57,0.79 0.26,-1.78 0.78,-0.05 0.30,0.79 0.34,1.75 0.38,0.38 -0.16,-1.15 0.23,-1.34 1.08,-0.66 0.23,-1.06 -0.82,-1.51 0.32,-0.62 2.07,-0.34 -1.98,-2.04 0.06,-2.05 2.31,-1.24 3.66,-4.11 2.75,-6.64 -0.23,-0.84 -1.05,-1.50 -0.11,-1.44 -0.59,-0.55 -0.97,-0.76 -0.11,-1.22 -0.34,-0.61 -1.83,-0.47 -0.33,-0.94 1.73,-0.52 -0.24,-0.20 -0.29,-0.58 -0.45,-0.76 0.77,-0.78 0.49,-1.48 -0.78,-0.13 -1.62,-0.06 -0.50,-0.75 -0.57,-0.04 -2.20,0.21 -1.01,-0.44 1.29,-1.35 -2.04,0.09 -0.59,-1.11 0.95,-1.40 0.79,-3.75 -0.90,-4.53 -0.74,-0.76 -2.48,0.29 -1.83,-1.32 -0.83,0.02 -1.43,1.11 -1.19,-0.32 -1.11,0.15 0.97,-1.87 -0.75,-1.12 -0.47,0.07 -0.05,-1.53 -0.94,-0.45 -1.07,1.11 -1.62,0.43 -1.08,-0.80 0.82,0.14 2.66,-0.47 3.06,-1.90 0.99,-1.63 -2.66,-0.34 -3.02,0.71 C 25.56,6.84 23.79,4.79 25.83,4.64 26.87,3.76 27.25,2.33 27.59,1.06 z m -0.62,0.51 c -0.07,1.03 -1.44,3.66 -2.28,2.66 -0.27,-1.73 0.93,-2.22 2.28,-2.66 z m -5.39,0.62 c 1.48,-0.10 2.27,1.42 2.68,2.64 C 22.93,5.62 21.07,3.08 21.57,2.20 z m -2.90,1.86 c 1.65,-0.25 3.72,2.97 1.91,3.25 C 19.60,6.80 19.77,4.83 18.67,4.07 z m -0.48,2.38 c 0.92,-0.19 2.83,1.54 1.20,1.34 C 18.62,7.70 17.07,7.33 16.84,7.27 17.23,6.90 17.58,6.50 18.18,6.45 z m 9.53,0.71 c 0.13,0.57 -1.43,2.30 -2.44,1.65 0.32,-0.89 1.50,-1.54 2.44,-1.65 z m -3.02,0.94 c 0.07,1.43 -0.34,2.82 -0.93,4.08 -0.38,1.00 -0.14,2.11 -0.20,3.11 0.20,1.81 0.95,3.50 1.33,5.28 0.08,0.73 -0.56,3.43 -0.39,1.38 0.20,-2.98 -1.83,-5.52 -1.76,-8.49 0.24,-1.91 1.92,-3.32 1.96,-5.37 z m -7.75,1.23 c 0.98,0.02 1.46,1.00 2.14,1.56 0.98,0.09 0.00,2.32 -0.19,1.18 -0.24,-1.11 -0.51,-0.43 -0.78,0.28 -0.30,0.93 -0.44,0.79 -0.46,-0.11 -0.62,0.34 -1.24,0.69 -1.86,1.03 0.08,-0.38 1.20,-1.40 0.51,-1.32 -0.51,-0.00 -1.91,0.26 -0.80,-0.23 0.32,-0.28 1.80,-0.77 0.71,-0.82 -1.32,-0.04 2.14,-1.21 0.52,-1.56 l 0.22,-0.00 z m 6.92,0.32 c -0.89,1.79 -2.14,3.67 -1.34,5.81 -1.39,-1.21 -1.75,-4.53 -0.68,-4.99 -0.20,1.47 1.15,1.16 0.78,0.02 0.08,-0.75 0.61,-0.90 0.41,-0.01 0.50,-0.01 0.68,-0.49 0.83,-0.83 z m -3.63,0.41 c 0.05,2.46 1.27,4.70 2.53,6.75 1.32,2.55 1.68,5.64 0.92,8.42 -1.33,2.93 -0.84,6.29 -0.13,9.32 0.63,1.93 1.16,3.90 1.71,5.86 0.36,1.34 0.33,2.71 0.40,4.08 0.55,1.32 -0.54,1.18 -1.44,1.14 -1.38,-0.12 -0.44,-2.81 -1.06,-3.88 -0.01,-2.10 -1.16,-3.85 -2.86,-5.00 -0.94,-1.20 -3.60,-2.08 -4.18,-2.24 2.16,0.34 4.60,0.93 5.92,2.83 0.30,0.94 1.05,1.29 0.53,0.15 -0.81,-1.75 -1.28,-3.71 -1.31,-5.66 -0.15,-1.93 0.14,-3.90 1.05,-5.61 0.44,-1.85 0.36,-3.91 -0.41,-5.68 -0.39,-1.19 -1.20,-2.93 -2.59,-2.97 -1.44,0.26 -1.69,1.95 -1.55,3.17 0.59,-0.25 2.97,-0.65 1.16,-0.14 -1.82,-0.21 -0.00,0.71 -0.22,0.70 -0.91,-0.56 0.15,1.02 -0.08,1.03 -0.49,-0.78 -1.49,-0.99 -1.74,-0.65 0.62,-1.20 -0.98,-0.65 -1.60,-0.52 0.41,-0.49 2.95,-0.16 1.00,-0.79 -0.61,-0.81 1.72,1.29 1.17,-0.16 -0.13,-2.06 2.04,-3.81 3.67,-2.00 1.40,1.40 1.56,3.54 1.91,5.39 0.05,1.17 -0.75,3.48 -0.54,3.79 1.07,-2.96 1.44,-6.37 0.22,-9.37 -0.37,-1.53 -1.39,-2.70 -2.14,-4.00 -0.66,-1.19 -0.63,-2.64 -0.31,-3.93 z m 6.14,0.51 c 0.22,0.85 1.24,0.22 0.55,1.33 0.17,0.48 0.84,0.12 0.38,0.73 -0.27,-1.40 -2.64,-1.09 -2.77,-1.26 0.35,-0.38 1.42,-0.25 1.84,-0.81 z M 25.69,11.85 c 1.28,0.09 1.32,2.82 2.09,1.26 1.25,-0.80 0.63,0.37 -0.19,0.60 0.36,-0.29 1.50,1.12 0.22,0.44 -0.54,0.63 0.08,-0.77 -1.05,-0.13 0.89,-2.03 -2.69,-2.07 -2.80,-1.03 0.08,-0.85 0.93,-1.25 1.72,-1.14 z m -0.42,0.76 c 1.16,-0.00 1.79,1.44 0.25,1.15 -1.42,0.05 -0.93,0.37 0.10,0.46 -1.05,0.37 -1.59,3.24 -1.64,0.92 -0.11,-0.92 0.24,-2.33 1.28,-2.54 z m 4.52,1.09 c 1.92,0.05 2.47,2.64 1.47,3.98 -1.10,1.93 -4.04,2.66 -5.75,1.09 -1.54,-1.07 -0.48,-3.95 0.53,-3.93 -0.42,0.55 -1.20,2.01 0.00,0.79 0.84,-1.05 1.33,-1.09 1.52,0.19 0.11,-0.94 0.89,-1.48 2.03,-0.86 1.26,0.30 -1.12,-0.80 -0.56,-1.02 0.23,-0.09 0.48,-0.23 0.74,-0.23 z m -10.39,0.94 c 1.71,0.22 2.20,2.09 2.79,3.45 0.36,0.77 1.10,3.71 0.35,1.53 -0.54,-1.56 -2.10,-3.05 -3.86,-2.49 -0.61,0.81 -2.92,1.25 -1.27,0.16 1.26,-0.71 -1.75,-0.13 -2.91e-4,-0.58 0.77,-0.23 1.54,-0.47 2.31,-0.71 -0.42,-0.27 -1.71,-0.74 -0.51,-0.65 0.51,-0.06 1.91,0.06 0.79,-0.37 -0.19,-0.10 -0.39,-0.21 -0.59,-0.32 z m -4.20,2.79 c 0.77,0.19 2.00,-0.31 0.60,0.59 -0.35,0.28 -1.90,-0.41 -0.60,-0.59 z m 4.10,0.62 c -0.65,0.32 -0.15,-0.00 0,0 z m 0.61,0.10 c 1.02,0.37 -1.75,0.56 0,0 z m -0.92,0.01 c -1.13,0.93 0.83,0.92 1.43,0.58 0.81,0.57 1.76,3.57 1.46,3.83 -0.50,-1.41 -3.13,-1.27 -1.66,-2.35 1.84,-2.21 -2.98,1.37 -1.94,-1.07 0.07,-0.41 0.29,-0.82 0.71,-0.99 z m -3.18,0.19 c 0.65,0.09 2.20,-0.38 1.39,0.77 0.37,2.01 -2.97,-0.29 -1.53,-0.74 l 0.13,-0.03 z m 16.08,0.51 c -0.93,0.51 -1.57,1.29 -0.14,1.04 1.47,-0.18 -0.92,0.53 0.55,0.58 0.80,0.19 1.48,-0.01 0.26,0.46 -0.94,0.08 -2.06,0.99 -2.00,-0.16 -1.41,-0.33 -2.12,1.70 -3.49,0.65 -1.07,-0.43 -2.30,1.23 -1.72,-0.70 -0.10,-0.86 -0.94,-2.50 0.22,-1.19 1.36,0.95 3.19,0.87 4.60,0.06 0.48,-0.47 1.10,-0.55 1.71,-0.74 z m 0.01,0 c 0.02,-0.03 0.09,0.04 0,0 z m -17.57,1.66 c 0.84,0.05 1.90,-0.19 0.42,0.39 -0.62,0.30 -2.22,1.11 -0.57,0.74 0.55,0.22 2.56,-0.86 2.21,0.30 -0.12,0.63 -0.41,1.59 0.30,0.63 0.84,-1.49 1.77,0.45 2.66,1.02 0.48,0.39 -0.29,-1.10 -0.37,-1.55 0.56,-0.87 3.39,0.82 2.98,2.41 0.14,2.77 -2.67,4.88 -5.26,4.87 -1.77,0.21 -3.49,-0.69 -4.75,-1.88 -1.21,-1.45 -1.57,-3.59 -0.59,-5.28 0.62,-1.06 1.86,-1.39 2.97,-1.66 z m 18.65,0.31 c 0.01,0.47 -0.39,1.51 -0.98,0.89 0.32,-0.29 0.65,-0.59 0.98,-0.89 z m -2.69,0.31 c -0.79,0.59 -1.52,1.14 -0.21,0.77 0.34,0.02 1.92,-0.53 1.14,0.01 -0.95,0.58 0.52,0.27 0.94,0.35 1.42,-0.10 -1.74,0.55 0.17,0.62 1.29,0.34 0.78,0.37 0.36,0.67 1.23,1.35 -1.27,-0.75 -2.06,-0.26 -1.57,0.48 1.10,-1.97 -0.68,-0.72 -0.86,0.50 -1.69,1.46 -1.37,-0.11 -0.33,-0.49 1.17,-1.35 1.71,-1.33 z m -3.66,0.62 c 1.74,-0.20 1.92,1.98 0.84,2.93 -0.96,0.93 -0.17,0.09 -0.08,-0.13 -0.47,0.12 -1.99,-0.28 -0.97,-0.20 1.34,0.75 2.39,-1.64 0.72,-2.07 -1.12,-0.46 -3.03,2.35 -2.05,0.27 0.43,-0.36 0.94,-0.78 1.54,-0.79 z m 0.39,0.92 c 1.32,0.48 0.09,1.68 -0.88,1.25 -1.93,-0.24 0.10,-1.11 0.88,-1.25 z m -2.32,0.84 -0.00,0.09 0.00,-0.09 z m 4.28,0.19 c -0.16,0.39 -1.46,0.93 0.01,0.72 1.90,0.28 -0.92,-0.25 -0.70,0.40 0.62,1.14 -0.52,-0.45 -0.67,0.55 -0.90,1.54 -0.11,-0.94 0.61,-1.17 0.30,-0.07 0.41,-0.51 0.74,-0.51 z m -3.99,0.12 c 0.80,0.66 1.41,1.23 0.12,1.84 -1.28,1.18 -1.28,2.99 -0.73,4.46 0.94,1.00 -1.13,0.83 -0.82,1.97 -0.46,-2.73 -0.33,-5.82 1.30,-8.14 l 0.13,-0.13 -6e-6,0 z m 5.10,0.06 c 2.07,-0.38 3.84,1.33 3.91,3.36 0.19,3.09 -2.97,5.94 -6.05,5.14 -1.69,-0.43 -3.13,-1.81 -3.32,-3.61 -0.51,-1.32 1.28,-3.64 2.09,-2.90 -0.08,0.62 -0.17,1.24 -0.26,1.86 0.80,-0.91 1.41,-3.05 2.66,-1.41 0.72,0.35 -1.12,-2.01 0.42,-1.38 0.79,-0.04 3.02,0.09 1.19,-0.48 -0.37,-0.35 -1.95,-0.48 -0.64,-0.57 z m -9.03,4.17 c -0.38,0.89 0.06,3.78 -0.90,1.75 -0.79,-1.01 0.54,-1.02 0.90,-1.75 z m -8.39,0.74 c 1.01,0.86 3.54,0.71 1.85,2.26 -0.31,0.56 -1.03,0.07 -0.83,-0.83 -0.84,1.45 -0.16,-1.33 -1.24,-0.41 -0.61,0.37 -0.10,-0.95 0.22,-1.01 z m 6.62,0.50 c 0.30,1.02 1.78,2.63 0.25,1.23 -0.86,-0.92 0.31,1.05 -0.46,0.67 -0.50,-0.04 -1.47,-0.40 -1.71,-0.26 0.56,0.60 0.36,1.17 -0.15,0.41 -0.16,-0.11 -0.01,-1.37 -0.89,-0.57 -0.62,0.34 -2.06,1.01 -0.98,-0.24 0.48,-1.29 2.37,-0.16 3.34,-0.97 l 0.30,-0.12 0.29,-0.13 z m -2.58,1.76 c -0.49,0.59 -0.29,1.01 0.41,0.72 0.03,0.73 -2.24,-0.12 -0.52,0.80 1.96,0.65 -0.39,1.18 -0.93,1.32 0.22,-0.59 -1.86,-1.98 -0.81,-2.03 0.67,-0.14 1.23,-0.57 1.85,-0.82 z m 8.07,0.10 c 0.30,0.75 -0.88,2.67 -0.96,1.73 0.31,-0.55 0.08,-1.63 0.96,-1.73 z m -4.97,0.09 c 1.50,0.67 1.04,2.41 1.43,3.76 0.99,1.85 -1.37,0.04 -1.82,-0.47 -0.59,-0.68 -1.60,-0.45 -2.40,-0.69 1.35,0.04 0.80,-1.12 0.52,-1.34 0.45,-0.10 1.90,0.30 1.15,-0.42 -0.82,-0.83 0.04,-0.50 0.68,-0.33 0.64,0.23 0.56,0.12 0.44,-0.48 z m 5.49,0.10 c 0.54,0.82 1.76,1.07 2.28,1.58 -0.51,1.08 -4.17,2.39 -3.31,0.58 0.78,-0.43 0.86,-1.38 1.03,-2.17 z m -12.13,0.93 c 0.91,-0.12 1.63,0.56 2.07,1.66 -0.83,-0.09 -2.53,0.22 -2.59,0.43 0.65,0.18 2.89,0.05 2.24,0.49 -0.01,1.14 -0.75,0.21 -1.08,0.50 -0.28,1.40 -0.85,-1.37 -1.66,0.03 -1.29,1.02 0.02,-0.40 -0.12,-0.62 -0.72,0.13 -1.45,0.26 -2.18,0.39 0.96,-0.51 1.93,-1.03 2.90,-1.55 -0.33,-0.25 -1.83,-0.66 -0.73,-0.72 0.33,-0.18 1.87,-0.10 1.31,-0.50 l -0.08,-0.06 -0.08,-0.06 0,-6e-6 z m 16.61,0.71 c 0.71,-0.33 2.75,1.96 1.18,0.54 -1.41,-0.62 -1.50,0.32 -0.29,0.92 -0.86,-0.48 -1.25,0.02 -1.72,-0.52 0.26,1.18 -0.60,-0.03 -1.08,0.51 -0.66,-1.08 0.33,-1.59 1.33,-1.34 0.20,-0.00 0.41,0.03 0.60,-0.11 z m -11.53,2.71 c 1.01,0.86 2.86,1.51 2.90,2.91 0.20,1.69 -1.26,-1.76 -1.10,0.38 -0.06,2.47 -0.96,-2.80 -1.50,-0.80 -0.40,0.13 -0.48,-1.62 -0.99,-0.89 0.08,-0.59 0.44,-1.08 0.70,-1.60 z m 9.13,0.31 c -0.17,1.30 -0.57,2.93 -1.72,3.62 -0.06,-1.42 0.41,-2.89 1.72,-3.62 z" />
</svg>
