<?xml version="1.0" encoding="UTF-8" standalone="no"?>
<!-- Created with Inkscape (http://www.inkscape.org/) -->
<svg xmlns:dc="http://purl.org/dc/elements/1.1/" xmlns:cc="http://creativecommons.org/ns#" xmlns:rdf="http://www.w3.org/1999/02/22-rdf-syntax-ns#" xmlns:svg="http://www.w3.org/2000/svg" xmlns="http://www.w3.org/2000/svg" version="1.1" width="100%" height="100%" viewBox="0 0 48 48" id="svg2972">
<defs id="defs9" />
<path d="m 28.14,43.39 c -0.68,-0.22 -1.36,-0.40 -1.51,-0.40 -0.14,-0.00 -0.66,-0.19 -1.14,-0.42 -0.55,-0.26 -0.89,-0.33 -0.94,-0.19 -0.04,0.12 -0.19,0.06 -0.34,-0.14 -0.17,-0.23 -0.24,-0.81 -0.20,-1.62 0.03,-0.68 0.02,-1.03 -0.03,-0.78 -0.05,0.25 -0.19,0.46 -0.31,0.46 -0.24,0 -0.01,-0.87 0.28,-1.06 0.12,-0.08 0.12,-0.17 0.00,-0.25 -0.32,-0.19 -0.03,-1.38 0.38,-1.60 0.21,-0.11 0.39,-0.30 0.39,-0.41 0,-0.13 -0.16,-0.12 -0.43,0.02 -0.23,0.12 -0.48,0.17 -0.54,0.11 -0.10,-0.10 -0.21,-1.69 -0.25,-3.86 -0.03,-1.57 -0.44,-0.42 -0.50,1.40 -0.03,0.98 -0.14,1.61 -0.29,1.66 -0.13,0.04 -0.24,-0.09 -0.24,-0.31 0,-0.21 -0.27,-0.70 -0.60,-1.07 l -0.60,-0.68 -0.06,0.59 c -0.06,0.55 -0.11,0.58 -1.00,0.55 l -0.93,-0.03 1.03,0.49 c 0.57,0.27 1.14,0.50 1.27,0.50 0.13,0.00 0.43,0.41 0.67,0.90 0.53,1.11 0.61,4.16 0.13,5.11 -0.30,0.58 -0.86,0.96 -1.25,0.85 -0.37,-0.10 -1.69,0.00 -2.39,0.20 -0.42,0.12 -0.80,0.12 -1.01,-6.23e-4 -0.26,-0.15 -0.20,-0.19 0.28,-0.21 0.71,-0.02 1.33,-0.23 1.34,-0.45 0.00,-0.08 0.00,-0.29 0.00,-0.46 0,-0.17 0.14,-0.31 0.31,-0.31 0.17,0 0.31,0.18 0.31,0.40 0,0.50 0.90,0.65 1.68,0.29 0.58,-0.27 0.80,-1.01 0.80,-2.79 0.00,-2.30 -0.42,-2.91 -2.86,-4.00 -1.69,-0.76 -1.77,-0.77 -4.15,-0.75 -2.43,0.02 -3.59,0.23 -4.21,0.77 -0.18,0.16 -0.79,0.36 -1.35,0.45 -0.56,0.08 -1.33,0.31 -1.71,0.51 -0.80,0.40 -0.84,0.41 -0.84,0.18 0,-0.26 1.40,-0.86 2.03,-0.87 0.31,-0.00 0.93,-0.23 1.39,-0.51 0.45,-0.28 0.99,-0.51 1.19,-0.51 0.19,-6.23e-4 0.36,-0.08 0.36,-0.17 0,-0.09 -0.63,-0.24 -1.40,-0.31 -0.77,-0.07 -1.70,-0.19 -2.06,-0.25 -0.60,-0.10 -0.68,-0.05 -0.97,0.62 -0.22,0.53 -0.44,0.74 -0.77,0.74 -0.44,0 -0.44,-0.01 -0.07,-0.42 C 7.18,35.03 7.26,34.80 7.14,34.69 6.96,34.52 5.40,34.66 3.93,34.98 3.52,35.07 3.31,35.05 3.39,34.93 3.45,34.82 4.38,34.62 5.44,34.47 7.99,34.13 8.15,34.07 7.26,33.73 5.37,33.02 4.13,32.75 3.37,32.90 c -1.65,0.31 -2.06,0.32 -1.11,0.00 0.50,-0.16 0.95,-0.34 1.00,-0.39 0.05,-0.05 -0.29,-0.29 -0.77,-0.53 -0.47,-0.24 -0.81,-0.49 -0.75,-0.56 0.06,-0.06 0.33,0.02 0.59,0.18 0.55,0.36 3.82,1.62 4.17,1.61 0.13,-0.00 -0.01,-0.19 -0.32,-0.43 -0.91,-0.68 -0.65,-0.85 0.31,-0.21 0.93,0.61 3.37,1.48 4.15,1.47 0.38,-0.00 0.24,-0.21 -0.85,-1.25 -0.72,-0.69 -1.27,-1.30 -1.21,-1.36 0.05,-0.05 0.51,0.28 1.00,0.76 1.40,1.34 2.07,1.78 3.12,2.03 1.19,0.28 3.28,0.31 3.28,0.03 0,-0.11 -0.53,-0.60 -1.19,-1.09 -1.05,-0.78 -1.32,-0.88 -2.28,-0.88 -0.59,0 -1.09,-0.07 -1.09,-0.15 0,-0.08 0.46,-0.15 1.03,-0.15 0.57,0 1.03,-0.07 1.03,-0.15 -0.00,-0.18 -1.36,-1.09 -1.64,-1.09 -0.11,0 -0.60,-0.13 -1.09,-0.29 C 9.60,30.04 7.72,29.98 6.02,30.27 5.28,30.40 4.60,30.43 4.50,30.33 4.35,30.18 6.12,29.88 7.78,29.79 8.79,29.73 8.64,29.42 7.24,28.69 6.52,28.32 5.77,27.86 5.57,27.68 5.31,27.45 5.02,27.39 4.62,27.50 c -1.14,0.29 -2.34,0.36 -2.34,0.13 0,-0.12 0.13,-0.16 0.30,-0.10 0.36,0.13 2.39,-0.31 2.39,-0.52 0,-0.34 -0.86,-1.03 -1.59,-1.27 C 2.94,25.59 2.50,25.38 2.38,25.27 2.24,25.12 2.30,25.10 2.56,25.19 c 0.21,0.07 0.61,0.19 0.90,0.26 0.46,0.11 0.50,0.07 0.38,-0.31 -0.22,-0.69 0.00,-0.52 0.58,0.43 0.80,1.35 1.85,2.36 3.07,2.98 0.61,0.30 1.53,0.77 2.04,1.03 0.51,0.26 0.96,0.40 0.99,0.31 C 10.65,29.61 9.81,27.93 8.84,26.47 7.84,24.99 6.37,23.90 5.18,23.76 3.95,23.61 3.26,23.47 3.14,23.34 c -0.07,-0.07 0.45,-0.07 1.18,0.01 1.28,0.14 1.31,0.13 1.09,-0.27 -0.28,-0.53 -0.29,-1.49 -0.01,-1.49 0.11,0 0.20,0.28 0.20,0.64 0,0.70 0.85,1.68 1.98,2.28 0.61,0.32 1.88,2.00 2.94,3.89 0.29,0.52 0.77,1.15 1.06,1.38 0.66,0.52 1.51,0.97 1.62,0.86 0.04,-0.04 -0.10,-0.67 -0.34,-1.38 -0.23,-0.71 -0.42,-1.45 -0.41,-1.63 0.00,-0.18 0.13,0.07 0.29,0.56 0.82,2.64 1.31,3.42 2.86,4.58 1.45,1.08 2.80,1.80 4.29,2.28 0.95,0.30 1.22,0.04 0.88,-0.85 -0.16,-0.42 -0.17,-0.69 -0.04,-0.74 0.12,-0.04 0.07,-0.31 -0.10,-0.67 -0.38,-0.74 -0.57,-0.79 -0.30,-0.08 0.10,0.28 0.11,0.51 0.02,0.51 -0.09,0 -0.33,-0.40 -0.52,-0.90 -0.45,-1.17 -0.76,-1.43 -2.47,-1.99 -1.26,-0.41 -1.51,-0.43 -2.34,-0.20 -1.15,0.32 -1.42,0.15 -0.29,-0.18 0.45,-0.13 0.83,-0.29 0.83,-0.34 0,-0.05 -0.42,-0.48 -0.93,-0.95 -1.28,-1.18 -1.02,-1.26 0.38,-0.11 1.02,0.83 3.73,2.02 4.00,1.75 0.23,-0.23 -0.74,-1.85 -1.37,-2.28 -0.38,-0.25 -1.10,-1.00 -1.60,-1.66 -0.79,-1.04 -0.99,-1.19 -1.62,-1.19 -0.39,0 -1.05,0.14 -1.46,0.31 -1.00,0.42 -1.61,0.36 -0.69,-0.06 l 0.72,-0.34 -0.67,-0.07 c -0.37,-0.03 -0.67,-0.15 -0.67,-0.24 0,-0.09 0.71,-0.12 1.59,-0.05 l 1.59,0.12 -0.43,-0.70 C 14.14,23.67 13.63,23.14 13.25,22.89 12.87,22.64 12.24,22.19 11.85,21.90 11.09,21.34 10.21,21.23 9.50,21.61 9.18,21.78 8.86,21.78 8.25,21.59 7.80,21.46 7.48,21.30 7.54,21.23 c 0.06,-0.06 0.39,-0.01 0.73,0.10 0.48,0.17 0.83,0.13 1.62,-0.16 C 10.48,20.95 10.77,20.75 10.59,20.69 10.41,20.64 9.88,20.49 9.41,20.36 8.93,20.23 8.24,19.84 7.87,19.49 7.49,19.14 6.95,18.72 6.65,18.56 5.97,18.19 4.82,17.22 5.05,17.22 c 0.09,-6.23e-4 0.46,0.20 0.81,0.45 0.42,0.30 0.60,0.35 0.52,0.15 -0.49,-1.32 -0.37,-1.76 0.15,-0.51 0.41,0.99 1.51,2.19 2.31,2.53 0.66,0.27 1.93,0.38 1.93,0.16 0,-0.39 -0.74,-1.41 -1.58,-2.14 -0.53,-0.47 -0.84,-0.85 -0.69,-0.85 0.15,0 0.63,0.34 1.06,0.76 0.43,0.42 0.78,0.65 0.78,0.50 0,-0.48 -0.66,-2.31 -0.84,-2.31 -0.23,0 -1.44,-1.30 -1.32,-1.43 0.05,-0.05 0.38,0.17 0.74,0.51 l 0.64,0.60 -0.12,-0.83 c -0.11,-0.76 -0.09,-0.79 0.17,-0.42 0.16,0.22 0.30,0.68 0.30,1.03 0.00,0.34 0.23,1.19 0.51,1.88 0.28,0.68 0.51,1.39 0.51,1.58 0.00,0.98 1.35,2.81 2.33,3.15 0.58,0.20 0.45,-0.84 -0.25,-2.04 -0.74,-1.26 -0.80,-1.67 -0.11,-0.83 l 0.51,0.62 0.00,-1.32 c 0.00,-1.10 -0.09,-1.50 -0.63,-2.44 -0.35,-0.61 -0.70,-1.11 -0.77,-1.12 -0.26,-0.01 -1.33,-1.05 -1.20,-1.17 0.06,-0.06 0.36,0.03 0.65,0.22 l 0.53,0.35 -0.54,-1.06 c -0.29,-0.58 -0.50,-1.11 -0.44,-1.16 0.11,-0.11 1.14,1.70 1.80,3.19 0.76,1.70 1.16,1.25 0.51,-0.57 -0.38,-1.08 -0.65,-3.35 -0.34,-2.92 0.16,0.23 0.22,0.18 0.28,-0.20 0.04,-0.27 0.14,0.15 0.23,0.95 0.08,0.79 0.23,2.10 0.34,2.90 0.10,0.79 0.24,2.38 0.29,3.53 0.11,2.51 0.41,3.92 0.97,4.64 0.23,0.29 0.85,1.14 1.39,1.87 0.53,0.73 1.18,1.46 1.44,1.63 l 0.47,0.30 -0.10,-3.71 c -0.12,-4.15 -0.24,-5.59 -0.52,-6.11 -0.10,-0.19 -0.73,-0.71 -1.39,-1.14 -1.18,-0.77 -1.57,-1.13 -1.40,-1.30 0.04,-0.04 0.37,0.16 0.73,0.46 0.76,0.64 1.26,0.73 0.71,0.12 -0.20,-0.22 -0.31,-0.47 -0.23,-0.55 0.07,-0.07 0.16,-0.09 0.20,-0.05 0.80,1.08 1.46,1.85 1.59,1.85 0.17,0 0.53,-3.50 0.43,-4.25 -0.03,-0.22 -0.18,-0.61 -0.33,-0.85 -0.15,-0.24 -0.33,-0.80 -0.40,-1.24 -0.10,-0.71 -0.09,-0.74 0.10,-0.28 0.58,1.32 0.89,1.86 1.05,1.86 0.24,0 1.01,-1.56 1.01,-2.05 0,-0.22 0.09,-0.46 0.20,-0.53 0.42,-0.26 0.18,0.87 -0.43,2.04 -0.96,1.83 -1.32,4.53 -0.98,7.46 0.33,2.84 0.62,2.88 1.50,0.20 L 20.85,17.43 20.23,16.76 C 19.66,16.12 19.10,15.28 19.10,15.04 c 0,-0.34 0.46,-0.01 0.66,0.46 l 0.23,0.57 0.12,-0.62 c 0.14,-0.69 0.30,-0.54 0.52,0.46 0.07,0.37 0.20,0.67 0.28,0.67 0.27,0 0.61,-1.15 0.71,-2.39 0.08,-1.01 0.02,-1.34 -0.29,-1.73 -0.21,-0.26 -0.38,-0.77 -0.37,-1.13 0.01,-0.63 0.02,-0.63 0.32,0.23 0.30,0.84 0.66,1.16 0.72,0.62 0.01,-0.14 0.08,0.06 0.15,0.45 0.13,0.72 0.64,1.15 0.64,0.54 0,-0.18 0.14,-0.61 0.31,-0.94 0.36,-0.70 0.41,-1.19 0.23,-2.48 -0.12,-0.93 -0.12,-0.93 0.11,-0.20 0.31,0.96 0.30,0.96 0.80,0.39 0.48,-0.55 0.47,-0.48 -0.19,0.92 -0.26,0.55 -0.43,1.04 -0.37,1.09 0.05,0.05 0.43,-0.10 0.84,-0.34 0.54,-0.32 0.80,-0.65 0.96,-1.25 0.25,-0.95 0.51,-1.09 0.33,-0.18 -0.14,0.70 -0.02,0.77 0.52,0.27 0.20,-0.18 0.37,-0.25 0.37,-0.14 0,0.10 -0.75,0.69 -1.67,1.30 -1.72,1.13 -2.06,1.57 -1.89,2.45 0.08,0.45 0.16,0.49 0.84,0.36 0.95,-0.17 1.65,-0.62 1.88,-1.21 0.19,-0.52 0.79,-1.08 0.96,-0.91 0.06,0.06 -0.12,0.35 -0.42,0.64 -0.96,0.96 -0.57,1.28 0.63,0.53 0.38,-0.23 0.69,-0.34 0.69,-0.23 0,0.25 -1.01,0.72 -2.59,1.20 -1.80,0.53 -1.81,0.55 -1.64,2.14 0.07,0.75 0.16,1.39 0.20,1.43 0.06,0.07 1.75,-1.70 2.00,-2.11 0.07,-0.12 0.20,-0.16 0.28,-0.09 0.07,0.07 -0.39,0.76 -1.05,1.54 l -1.18,1.40 0.09,1.52 c 0.05,0.83 0.14,1.56 0.19,1.61 0.05,0.05 0.46,-0.08 0.90,-0.31 0.44,-0.22 0.91,-0.41 1.04,-0.41 0.12,0 0.40,-0.37 0.61,-0.84 0.20,-0.46 0.51,-0.91 0.68,-1.01 0.24,-0.13 0.29,-0.61 0.27,-2.29 -0.02,-1.49 0.03,-2.07 0.19,-1.97 0.12,0.07 0.20,0.48 0.18,0.89 -0.02,0.41 -0.03,1.48 -0.01,2.38 0.02,1.57 0.04,1.62 0.49,1.49 l 0.46,-0.13 -0.44,0.37 c -0.53,0.45 -0.83,1.72 -0.41,1.72 0.41,0 1.75,-2.07 1.87,-2.90 0.05,-0.39 0.29,-1.37 0.52,-2.17 0.44,-1.52 0.56,-3.94 0.21,-4.15 -0.11,-0.07 -0.20,-0.27 -0.20,-0.45 0,-0.25 0.06,-0.27 0.28,-0.08 0.22,0.18 0.31,0.16 0.40,-0.07 0.06,-0.17 0.22,-0.31 0.34,-0.31 0.14,0 0.15,0.12 0.02,0.36 -0.10,0.20 -0.26,1.16 -0.33,2.12 -0.07,0.96 -0.31,2.37 -0.53,3.13 -0.21,0.75 -0.39,1.59 -0.39,1.86 -0.00,0.60 -1.01,2.41 -1.68,3.01 -0.26,0.24 -0.78,0.80 -1.14,1.24 -0.36,0.44 -0.99,1.18 -1.40,1.64 -1.56,1.73 -2.14,3.73 -2.18,7.51 -0.01,2.11 0.45,1.95 2.39,-0.78 0.86,-1.22 1.14,-1.82 1.27,-2.70 0.16,-1.09 0.04,-3.02 -0.26,-4.21 -0.10,-0.42 -0.08,-0.56 0.08,-0.45 0.13,0.08 0.23,0.32 0.23,0.53 0,0.82 0.39,0.57 0.74,-0.46 0.19,-0.60 0.40,-0.97 0.44,-0.83 0.04,0.13 -0.10,0.80 -0.34,1.46 -0.25,0.71 -0.42,1.71 -0.42,2.44 l 0.00,1.23 0.90,-1.45 c 0.49,-0.79 1.39,-1.98 1.98,-2.62 0.98,-1.07 1.11,-1.34 1.58,-3.21 0.54,-2.19 0.67,-4.16 0.40,-6.25 -0.12,-0.93 -0.10,-1.29 0.06,-1.29 0.14,0 0.23,0.42 0.23,1.14 0,0.62 0.08,1.14 0.18,1.14 0.20,0 0.85,-2.17 0.85,-2.85 0,-0.24 0.09,-0.50 0.22,-0.57 0.26,-0.16 0.14,0.61 -0.55,3.47 -0.57,2.33 -0.58,2.48 -0.17,1.94 0.47,-0.62 0.60,-0.22 0.13,0.43 -0.42,0.60 -1.21,3.73 -0.99,3.95 0.18,0.18 2.26,-1.66 2.92,-2.61 0.40,-0.58 0.60,-1.14 0.63,-1.83 0.02,-0.54 0.06,-1.15 0.07,-1.35 0.01,-0.19 0.12,-0.36 0.24,-0.36 0.13,0 0.16,0.27 0.08,0.72 -0.16,0.89 0.01,0.91 0.88,0.06 0.37,-0.36 0.68,-0.57 0.68,-0.45 0,0.11 -0.37,0.57 -0.83,1.01 -0.45,0.44 -0.83,0.91 -0.83,1.03 0,0.12 -0.18,0.58 -0.41,1.03 -0.22,0.44 -0.37,0.84 -0.33,0.89 0.04,0.04 0.37,-0.07 0.74,-0.26 0.36,-0.18 0.71,-0.29 0.77,-0.22 0.06,0.06 -0.34,0.33 -0.90,0.59 -0.55,0.26 -1.29,0.73 -1.63,1.03 -0.34,0.30 -1.07,0.93 -1.62,1.39 -1.06,0.88 -3.32,3.52 -3.16,3.68 0.14,0.14 2.01,-0.53 2.38,-0.86 0.56,-0.50 3.32,-1.42 3.07,-1.02 -0.06,0.10 -0.59,0.32 -1.17,0.48 -1.14,0.31 -1.38,0.62 -0.48,0.62 0.63,0.00 1.25,0.31 1.05,0.52 -0.07,0.07 -0.32,0.03 -0.55,-0.09 -0.23,-0.12 -0.60,-0.22 -0.82,-0.22 -0.51,0 -2.55,0.90 -3.49,1.53 -0.64,0.43 -2.56,3.03 -2.56,3.47 0,0.33 -1.82,2.98 -2.46,3.59 -0.98,0.92 -0.78,1.02 0.60,0.31 0.88,-0.44 1.66,-0.66 2.64,-0.74 2.21,-0.17 2.17,-0.14 2.80,-1.61 0.32,-0.73 0.76,-1.50 0.98,-1.70 0.22,-0.19 0.40,-0.55 0.40,-0.79 0.00,-0.64 0.22,-1.36 0.42,-1.36 0.09,0 0.08,0.29 -0.02,0.66 -0.25,0.90 -0.09,0.97 0.63,0.27 0.34,-0.32 0.62,-0.49 0.62,-0.36 0,0.12 -0.42,0.57 -0.93,0.99 -0.51,0.42 -0.93,0.84 -0.93,0.94 0,0.09 0.44,0.12 0.98,0.04 0.54,-0.07 0.93,-0.07 0.86,1.5e-4 -0.06,0.07 -0.62,0.20 -1.23,0.29 -1.05,0.15 -1.13,0.20 -1.41,0.94 -0.16,0.43 -0.24,0.83 -0.17,0.90 0.06,0.06 0.75,-0.32 1.53,-0.87 0.77,-0.54 1.88,-1.29 2.45,-1.66 1.81,-1.17 1.93,-1.29 2.60,-2.64 0.83,-1.70 1.19,-3.85 1.04,-6.35 -0.08,-1.35 -0.03,-1.86 0.18,-1.86 0.10,0 0.13,0.36 0.07,0.81 -0.11,0.84 0.07,2.02 0.29,1.80 0.19,-0.19 1.06,-2.41 1.21,-3.07 0.07,-0.32 0.21,-0.58 0.31,-0.58 0.22,0 -0.16,1.24 -1.12,3.59 -0.66,1.61 -0.92,2.63 -0.66,2.63 0.04,0 0.66,-0.58 1.36,-1.29 1.59,-1.61 1.57,-1.25 -0.03,0.43 -1.27,1.34 -1.62,1.87 -1.62,2.46 -8.9e-5,0.20 -0.28,0.97 -0.62,1.70 -0.34,0.73 -0.59,1.35 -0.55,1.39 0.03,0.03 0.81,-0.20 1.71,-0.54 1.77,-0.65 2.42,-1.21 3.47,-3.01 0.31,-0.54 0.63,-0.92 0.71,-0.85 0.07,0.07 -0.07,0.40 -0.31,0.74 -0.96,1.30 -0.13,1.45 1.20,0.21 0.49,-0.45 1.08,-0.83 1.32,-0.83 0.29,0 0.13,0.17 -0.55,0.61 -0.53,0.34 -0.97,0.70 -0.97,0.81 0,0.10 -0.30,0.29 -0.67,0.42 -0.37,0.12 -1.13,0.59 -1.68,1.05 l -1.00,0.83 0.90,0.02 c 0.75,0.01 0.65,0.06 -0.65,0.26 -0.85,0.13 -1.83,0.39 -2.18,0.57 -0.34,0.18 -1.13,0.43 -1.76,0.57 -0.62,0.13 -1.48,0.49 -1.90,0.80 -1.05,0.77 -3.27,2.61 -3.21,2.67 0.02,0.02 0.77,0.08 1.66,0.14 1.88,0.11 2.58,-0.07 3.33,-0.91 0.29,-0.33 0.64,-0.61 0.77,-0.61 0.28,0 -0.09,0.53 -0.84,1.19 -0.67,0.59 -0.39,0.60 1.74,0.05 1.82,-0.46 1.86,-0.48 3.40,-2.13 1.33,-1.42 1.70,-1.43 0.45,-0.00 -0.47,0.54 -0.78,1.01 -0.68,1.05 0.24,0.08 2.70,-1.29 3.28,-1.83 0.23,-0.21 0.56,-0.39 0.72,-0.39 0.61,0.00 -2.34,2.14 -4.33,3.14 -1.23,0.61 -1.16,0.67 0.90,0.90 0.69,0.07 1.39,0.22 1.55,0.33 0.21,0.14 0.12,0.17 -0.32,0.08 -0.34,-0.06 -1.29,-0.20 -2.12,-0.32 -0.82,-0.11 -1.57,-0.22 -1.66,-0.25 -0.31,-0.09 -1.53,0.45 -1.42,0.63 0.06,0.10 0.72,0.30 1.46,0.44 0.74,0.14 1.35,0.34 1.35,0.45 0,0.10 -0.16,0.14 -0.36,0.08 -0.19,-0.06 -0.86,-0.20 -1.48,-0.32 -0.61,-0.11 -1.24,-0.31 -1.39,-0.43 -0.15,-0.13 -1.62,-0.26 -3.53,-0.32 -1.79,-0.05 -3.31,-0.12 -3.38,-0.16 -0.06,-0.03 -1.09,0.01 -2.29,0.11 -2.43,0.20 -3.22,0.57 -3.98,1.84 -0.34,0.57 -0.43,1.06 -0.42,2.31 0.00,1.90 0.42,2.77 1.21,2.57 0.28,-0.07 0.69,0.01 1.00,0.21 0.31,0.20 0.51,0.24 0.51,0.10 0,-0.12 0.17,-0.23 0.39,-0.23 0.24,0 0.38,0.13 0.36,0.35 -0.01,0.23 0.21,0.42 0.73,0.57 0.81,0.23 1.26,0.53 0.77,0.51 -0.16,-0.00 -0.85,-0.19 -1.54,-0.41 z m 9.34,-8.09 c 0.07,-0.11 -0.06,-0.20 -0.31,-0.20 -0.24,0 -0.38,0.09 -0.31,0.20 0.07,0.11 0.21,0.20 0.31,0.20 0.10,0 0.24,-0.09 0.31,-0.20 z m -5.19,-0.20 c -0.07,-0.11 -0.22,-0.20 -0.33,-0.20 -0.11,0 -0.14,0.09 -0.07,0.20 0.07,0.11 0.22,0.20 0.33,0.20 0.11,0 0.14,-0.09 0.07,-0.20 z m 0.76,0.06 c -0.14,-0.06 -0.32,-0.05 -0.39,0.01 -0.06,0.06 0.05,0.11 0.27,0.10 0.24,-0.01 0.29,-0.05 0.12,-0.12 z m 0.83,0 c -0.14,-0.06 -0.32,-0.05 -0.39,0.01 -0.06,0.06 0.05,0.11 0.27,0.10 0.24,-0.01 0.29,-0.05 0.12,-0.12 z m -4.69,-0.29 c 0.09,-0.16 -0.12,-0.19 -0.74,-0.10 -1.18,0.16 -1.30,0.33 -0.24,0.33 0.46,0 0.91,-0.10 0.99,-0.22 z M 17.08,34.17 c -1.57,-1.03 -1.66,-1.07 -1.10,-0.46 0.27,0.30 0.58,0.55 0.68,0.55 0.10,0 0.32,0.14 0.49,0.31 0.17,0.17 0.46,0.31 0.65,0.31 0.18,0 -0.14,-0.31 -0.73,-0.70 z m 8.44,-0.45 c 0.00,-0.12 0.15,-0.35 0.32,-0.49 0.17,-0.14 0.31,-0.34 0.31,-0.46 0,-0.23 -1.84,1.73 -1.86,1.98 -0.00,0.09 0.26,-0.04 0.60,-0.31 0.33,-0.26 0.61,-0.58 0.62,-0.71 z m 4.41,1.02 c -0.14,-0.06 -0.32,-0.05 -0.39,0.01 -0.06,0.06 0.05,0.11 0.27,0.10 0.24,-0.01 0.29,-0.05 0.12,-0.12 z m 1.41,-0.06 c 0,-0.11 0.10,-0.20 0.23,-0.20 0.31,0 2.25,-1.48 2.25,-1.72 0,-0.10 -0.44,0.13 -0.98,0.52 -0.54,0.38 -1.24,0.81 -1.55,0.94 -0.61,0.26 -0.77,0.66 -0.25,0.66 0.17,0 0.31,-0.09 0.31,-0.20 z m -8.56,-1.61 c 0.13,-0.88 0.25,-2.33 0.25,-3.22 v -1.61 l -1.40,-1.51 c -1.31,-1.42 -1.92,-2.55 -1.92,-3.60 0,-0.28 -0.05,-0.30 -0.25,-0.09 -0.18,0.18 -0.24,0.95 -0.21,2.56 0.03,1.84 0.14,2.62 0.57,3.92 0.53,1.62 2.30,5.17 2.57,5.17 0.07,0 0.25,-0.72 0.39,-1.61 z m -8.05,-0.56 c -0.26,-0.28 -0.53,-0.46 -0.60,-0.40 -0.06,0.06 0.11,0.29 0.39,0.51 0.70,0.54 0.78,0.50 0.20,-0.11 z m 8.64,-0.87 c -0.06,-0.06 -0.11,0.05 -0.10,0.27 0.01,0.24 0.05,0.29 0.12,0.12 0.06,-0.14 0.05,-0.32 -0.01,-0.39 z m -3.93,-1.81 c -0.36,-1.08 -0.77,-1.97 -0.92,-1.97 -0.14,-0.00 -0.65,-0.35 -1.13,-0.78 -0.68,-0.60 -0.80,-0.66 -0.55,-0.25 0.17,0.28 0.66,0.74 1.08,1.01 0.55,0.36 0.85,0.78 1.11,1.55 0.20,0.58 0.37,1.22 0.39,1.41 0.02,0.31 0.44,0.99 0.61,0.99 0.03,0 -0.23,-0.88 -0.59,-1.97 z m 4.19,-0.57 c 0.01,-1.32 -0.03,-1.82 -0.18,-1.60 -0.25,0.38 -0.27,3.53 -0.02,3.53 0.10,0 0.19,-0.86 0.20,-1.92 z m 4.47,0.44 c -0.06,-0.10 0.03,-0.24 0.20,-0.31 0.17,-0.06 0.32,-0.24 0.32,-0.38 0,-0.14 0.17,-0.41 0.39,-0.61 0.21,-0.19 0.43,-0.59 0.49,-0.87 0.12,-0.65 -0.01,-0.50 -1.07,1.15 -0.87,1.37 -1.08,1.92 -0.54,1.47 0.17,-0.14 0.25,-0.34 0.19,-0.44 z m -4.84,-2.62 c 0.27,-4.19 0.03,-6.43 -0.79,-7.42 -0.31,-0.38 -0.75,-0.94 -0.97,-1.25 l -0.38,-0.55 -0.57,1.77 c -0.76,2.37 -0.87,2.83 -0.65,2.83 0.25,0 0.66,-0.96 0.66,-1.56 0,-0.28 0.09,-0.50 0.21,-0.50 0.26,0 0.06,1.23 -0.36,2.25 -0.50,1.20 0.14,2.78 1.68,4.14 0.85,0.75 1.14,0.82 1.18,0.30 z m 1.30,-0.39 c 0.10,-0.27 0.07,-0.29 -0.17,-0.09 -0.24,0.20 -0.31,0.14 -0.38,-0.33 -0.06,-0.47 -0.10,-0.51 -0.24,-0.22 -0.21,0.46 -0.01,0.98 0.36,0.98 0.16,0 0.35,-0.15 0.42,-0.34 z m 6.17,-1.16 c 0.22,-0.42 0.21,-0.44 -0.09,-0.18 -0.19,0.15 -0.34,0.36 -0.34,0.46 0,0.31 0.18,0.19 0.44,-0.28 z M 25.96,24.28 c 0.82,-0.93 1.35,-1.73 1.47,-2.23 0.35,-1.50 0.30,-1.54 -1.00,-0.78 -2.06,1.18 -2.24,1.44 -2.16,3.07 0.03,0.77 0.14,1.40 0.23,1.40 0.09,0 0.74,-0.65 1.45,-1.45 z m -2.05,-0.12 c -0.15,-0.65 -0.19,-0.70 -0.21,-0.25 -0.02,0.57 0.17,1.28 0.31,1.14 0.04,-0.04 -0.00,-0.44 -0.10,-0.89 z m 7.86,0.17 c 0,-0.05 -0.14,0.01 -0.31,0.15 -0.17,0.14 -0.31,0.30 -0.31,0.36 0,0.05 0.14,-0.01 0.31,-0.15 0.17,-0.14 0.31,-0.30 0.31,-0.36 z m -8.01,-3.04 c -0.07,-0.86 -0.23,-1.58 -0.34,-1.58 -0.11,0 -0.14,0.21 -0.08,0.47 0.06,0.26 0.18,1.01 0.25,1.66 0.20,1.73 0.33,1.29 0.16,-0.56 z m -4.44,0.59 c 0,-0.17 -0.09,-0.31 -0.20,-0.31 -0.11,0 -0.20,0.14 -0.20,0.31 0,0.17 0.09,0.31 0.20,0.31 0.11,0 0.20,-0.14 0.20,-0.31 z m 8.23,-2.11 c -0.08,-0.08 -0.24,-0.01 -0.34,0.15 -0.31,0.50 -0.22,0.73 0.15,0.35 0.19,-0.19 0.28,-0.42 0.19,-0.50 z M 23.14,18.20 c -0.06,-0.47 -0.20,-1.29 -0.30,-1.80 -0.10,-0.51 -0.24,-1.33 -0.31,-1.81 -0.15,-1.06 -0.51,-1.17 -0.51,-0.16 0,0.39 -0.18,1.17 -0.40,1.73 -0.44,1.12 -0.39,1.30 0.77,2.57 0.66,0.72 0.90,0.56 0.75,-0.52 z" />
</svg>
