<?xml version="1.0" encoding="UTF-8" standalone="no"?>
<!-- Created with Inkscape (http://www.inkscape.org/) -->
<svg
   xmlns:svg="http://www.w3.org/2000/svg"
   xmlns="http://www.w3.org/2000/svg"
   xmlns:xlink="http://www.w3.org/1999/xlink"
   version="1.0"
   width="100%"
   height="100%"
   viewBox="0 0 640 480"
   id="equation"
   style="display:inline">
  <defs
     id="defs4">
    <linearGradient
       id="lg3412">
      <stop
         id="s3414"
         style="stop-color:#d39162;stop-opacity:1"
         offset="0" />
      <stop
         id="s3416"
         style="stop-color:#e5ad62;stop-opacity:0.77999997"
         offset="1" />
    </linearGradient>
    <linearGradient
       x1="41"
       y1="2"
       x2="41"
       y2="410"
       id="lg3418"
       xlink:href="#lg3412"
       gradientUnits="userSpaceOnUse" />
  </defs>
  <g
     id="source">
    <rect
       width="78"
       height="408"
       ry="10"
       x="2"
       y="2"
       id="rect6"
       style="fill:url(#lg3418);fill-opacity:1" />
    <path
       d="M 57.21,14 C 56.98,14.05 53.24,37.22 53.09,37.4 C 52.93,37.58 30.67,44.95 30.65,45.18 C 30.63,45.42 51.5,56.14 51.62,56.34 C 51.74,56.54 51.87,80 52.09,80.09 C 52.31,80.18 68.95,63.64 69.18,63.59 C 69.29,63.56 74.58,65.22 80,66.9 L 80,31.75 C 75.57,32.39 71.64,32.97 71.56,32.93 C 71.34,32.84 57.44,13.94 57.21,14 z M 3,64.09 C 2.96,64.08 2.57,64.57 2,65.31 L 2,139 C 6.01,142.89 9.57,146.32 9.68,146.28 C 9.96,146.16 10,117 10.15,116.75 C 10.31,116.49 36.24,103.07 36.21,102.78 C 36.19,102.48 8.44,93.41 8.25,93.18 C 8.05,92.96 3.28,64.16 3,64.09 z M 67.75,94.59 C 67.63,94.62 66.25,106 66.18,106.09 C 66.11,106.18 55.41,110.22 55.4,110.34 C 55.4,110.45 65.81,115.24 65.87,115.34 C 65.93,115.43 66.45,126.89 66.56,126.93 C 66.67,126.97 74.45,118.56 74.56,118.53 C 74.61,118.51 77.3,119.22 80,119.93 L 80,102.62 C 77.64,103.07 75.17,103.54 75.12,103.53 C 75.01,103.49 67.86,94.56 67.75,94.59 z M 54.87,147.15 C 54.69,147.14 46.58,162.47 46.43,162.56 C 46.28,162.65 28.91,162.52 28.84,162.68 C 28.77,162.84 40.83,175.32 40.87,175.5 C 40.91,175.67 35.43,192.13 35.56,192.25 C 35.69,192.36 51.29,184.76 51.46,184.78 C 51.64,184.79 65.63,195.09 65.78,195 C 65.93,194.9 63.49,177.72 63.56,177.56 C 63.63,177.4 77.75,167.29 77.71,167.12 C 77.67,166.95 60.56,163.95 60.43,163.84 C 60.3,163.72 55.05,147.17 54.87,147.15 z M 37.37,228.9 C 37.02,228.69 17.94,242.16 2,253.4 L 2,386.93 C 8.02,369.3 14.61,349.8 14.9,349.56 C 15.37,349.16 68.92,340.57 80,338.34 L 80,336 C 70.07,328.13 28,297.05 27.78,296.5 C 27.52,295.86 37.95,229.26 37.37,228.9 z M 59.56,231.25 C 59.38,231.34 61.39,250.94 61.31,251.12 C 61.22,251.3 44.77,262.11 44.81,262.31 C 44.84,262.5 64.1,266.67 64.25,266.81 C 64.39,266.94 69.61,285.94 69.81,285.96 C 70,285.99 79.55,269.56 80,269 L 80,241.5 C 77.46,242.59 75.37,243.47 75.31,243.46 C 75.11,243.44 59.73,231.15 59.56,231.25 z M 53.71,364.37 C 53.42,364.4 45.06,392.45 44.84,392.65 C 44.62,392.85 15.9,398.39 15.84,398.68 C 15.8,398.86 24.67,405.07 31.71,410 L 70,410 C 75.54,410 80,405.54 80,400 L 80,389.96 C 73.99,390.07 68.54,390.15 68.43,390.09 C 68.18,389.94 54.01,364.34 53.71,364.37 z"
       id="p3562"
       style="opacity:0.76000001;fill:#eedd99;fill-opacity:0.6;fill-rule:nonzero;stroke:none;marker:none;visibility:visible;display:inline;overflow:visible;enable-background:accumulate" />
  </g>
  <path
     d="M 345.44158,29.4027 C 342.92158,29.4027 340.40158,30.8527 338.46158,33.7327 L 338.04158,34.3527 L 338.04158,51.3227 L 328.26158,51.3227 C 324.55158,51.3227 321.56158,55.7727 321.56158,61.2927 L 321.56158,92.8627 C 321.56158,98.3827 324.55158,102.8427 328.26158,102.8427 L 338.04158,102.8427 L 338.04158,119.8027 L 338.46158,120.4327 C 342.34158,126.1927 348.56158,126.1927 352.43158,120.4327 L 374.56158,87.4827 C 378.43158,81.7127 378.43158,72.4427 374.56158,66.6727 L 352.43158,33.7327 C 350.49158,30.8527 347.97158,29.4027 345.44158,29.4027 z"
     id="path3323"
     style="opacity:1;fill:#ffffff;fill-opacity:0.77999998;fill-rule:nonzero;stroke:#584131;stroke-width:4;stroke-linecap:round;stroke-linejoin:miter;marker:none;stroke-miterlimit:4;stroke-dasharray:none;stroke-dashoffset:0;stroke-opacity:1;visibility:visible;overflow:visible;enable-background:accumulate" />
  <g
     transform="translate(27.700489,0)"
     id="g3642">
    <path
       d="M 154.52754,84.381791 L 227.38741,84.381791"
       id="path3640"
       style="fill:none;fill-rule:evenodd;stroke:#584131;stroke-width:8;stroke-linecap:round;stroke-linejoin:miter;stroke-miterlimit:4;stroke-dasharray:none;stroke-opacity:1" />
    <g
       transform="translate(350.58186,-272.48415)"
       id="g3629">
      <rect
         width="66.559998"
         height="66.559998"
         ry="14.01"
         x="-193.86955"
         y="366.70111"
         id="rect3631"
         style="opacity:1;fill:#ffffff;fill-opacity:0.77999998;fill-rule:nonzero;stroke:#584131;stroke-width:4;stroke-linecap:round;stroke-linejoin:miter;marker:none;stroke-miterlimit:4;stroke-dasharray:none;stroke-dashoffset:0;stroke-opacity:1;visibility:visible;overflow:visible;enable-background:accumulate" />
      <path
         d="M -171.65205,398.26236 C -173.65205,397.19988 -175.11039,396.01238 -176.02705,394.69986 C -177.27705,392.90822 -177.90205,390.84572 -177.90205,388.51236 C -177.90205,384.67906 -176.09997,381.54365 -172.4958,379.10611 C -169.68331,377.23115 -165.96456,376.29365 -161.33955,376.29361 C -155.21457,376.29365 -150.69374,377.46032 -147.77705,379.79361 C -144.83958,382.12698 -143.37083,385.06448 -143.3708,388.60611 C -143.37083,390.66864 -143.95417,392.59572 -145.1208,394.38736 C -145.99583,395.72072 -147.37083,397.01238 -149.2458,398.26236 C -146.76666,399.44988 -144.92292,401.02279 -143.71455,402.98111 C -142.48542,404.93946 -141.87084,407.10612 -141.8708,409.48111 C -141.87084,411.77278 -142.40208,413.91861 -143.46455,415.91861 C -144.50625,417.89778 -145.79791,419.42903 -147.33955,420.51236 C -148.86041,421.59569 -150.76666,422.38736 -153.0583,422.88736 C -155.32916,423.40819 -157.75624,423.6686 -160.33955,423.66861 C -165.19373,423.6686 -168.90206,423.09569 -171.46455,421.94986 C -174.02705,420.80402 -175.97497,419.11653 -177.3083,416.88736 C -178.64163,414.6582 -179.3083,412.16862 -179.3083,409.41861 C -179.3083,406.73112 -178.6833,404.46029 -177.4333,402.60611 C -176.1833,400.73113 -174.25622,399.28321 -171.65205,398.26236 M -165.9333,389.26236 C -165.93331,390.84572 -165.44373,392.12697 -164.46455,393.10611 C -163.46456,394.06447 -162.14165,394.54363 -160.4958,394.54361 C -159.03748,394.54363 -157.83957,394.06447 -156.90205,393.10611 C -155.96457,392.1478 -155.49582,390.90822 -155.4958,389.38736 C -155.49582,387.80406 -155.9854,386.52281 -156.96455,385.54361 C -157.94374,384.54364 -159.19373,384.04364 -160.71455,384.04361 C -162.25623,384.04364 -163.51665,384.53323 -164.4958,385.51236 C -165.45415,386.47072 -165.93331,387.72072 -165.9333,389.26236 M -166.6208,408.98111 C -166.62081,411.00195 -166.00623,412.6582 -164.77705,413.94986 C -163.5479,415.2207 -162.14165,415.85611 -160.5583,415.85611 C -159.03748,415.85611 -157.6729,415.21028 -156.46455,413.91861 C -155.25624,412.60612 -154.65207,410.94987 -154.65205,408.94986 C -154.65207,406.92904 -155.26666,405.27279 -156.4958,403.98111 C -157.70415,402.68946 -159.1104,402.04363 -160.71455,402.04361 C -162.2979,402.04363 -163.68331,402.66863 -164.8708,403.91861 C -166.03748,405.16862 -166.62081,406.85612 -166.6208,408.98111"
         id="path3633"
         style="font-size:64px;font-style:normal;font-variant:normal;font-weight:normal;font-stretch:normal;text-align:start;line-height:80.00000119%;writing-mode:lr-tb;text-anchor:start;fill:#584131;fill-opacity:1;stroke:none;stroke-width:1px;stroke-linecap:butt;stroke-linejoin:miter;stroke-opacity:1;font-family:Arial Black;-inkscape-font-specification:Arial Black" />
    </g>
    <g
       transform="translate(268.79849,-436.74988)"
       id="g3617">
      <rect
         width="66.559998"
         height="66.559998"
         ry="14.01"
         x="-112.11773"
         y="444.94928"
         id="rect3619"
         style="opacity:1;fill:#ffffff;fill-opacity:0.77999998;fill-rule:nonzero;stroke:#584131;stroke-width:4;stroke-linecap:round;stroke-linejoin:miter;marker:none;stroke-miterlimit:4;stroke-dasharray:none;stroke-dashoffset:0;stroke-opacity:1;visibility:visible;overflow:visible;enable-background:accumulate" />
      <path
         d="M -97.55773,478.04428 C -97.55773,469.33428 -95.99773,463.24428 -92.86773,459.76428 C -89.71773,456.28428 -84.93773,454.54428 -78.52773,454.54428 C -75.43773,454.54428 -72.90773,454.92428 -70.92773,455.69428 C -68.94773,456.44428 -67.33773,457.43428 -66.08773,458.66428 C -64.83773,459.87428 -63.85773,461.15428 -63.14773,462.51428 C -62.41773,463.84428 -61.83773,465.40428 -61.39773,467.19428 C -60.54773,470.61428 -60.11773,474.17428 -60.11773,477.88428 C -60.11773,486.19428 -61.52773,492.28428 -64.33773,496.13428 C -67.14773,499.99428 -71.99773,501.91428 -78.86773,501.91428 C -82.71773,501.91428 -85.83773,501.30428 -88.20773,500.07428 C -90.58773,498.84428 -92.53773,497.04428 -94.05773,494.66428 C -95.15773,492.97428 -96.02773,490.67428 -96.64773,487.76428 C -97.25773,484.82428 -97.55773,481.58428 -97.55773,478.04428 M -84.92773,478.07428 C -84.92773,483.90428 -84.41773,487.89428 -83.39773,490.04428 C -82.35773,492.16428 -80.85773,493.22428 -78.89773,493.22428 C -77.60773,493.22428 -76.49773,492.78428 -75.55773,491.88428 C -74.59773,490.96428 -73.89773,489.53428 -73.45773,487.57428 C -73.00773,485.61428 -72.77773,482.56428 -72.77773,478.41428 C -72.77773,472.33428 -73.29773,468.25428 -74.33773,466.16428 C -75.35773,464.06428 -76.89773,463.01428 -78.95773,463.01428 C -81.06773,463.01428 -82.58773,464.08428 -83.52773,466.22428 C -84.45773,468.35428 -84.92773,472.30428 -84.92773,478.07428"
         id="path3621"
         style="font-size:64px;font-style:normal;font-variant:normal;font-weight:normal;font-stretch:normal;text-align:start;line-height:80.00000119%;writing-mode:lr-tb;text-anchor:start;opacity:1;fill:#584131;fill-opacity:1;stroke:none;font-family:Arial Black;-inkscape-font-specification:Arial Black" />
    </g>
  </g>
  <g
     transform="matrix(1.8748759,0.2296146,-0.2296146,1.8748759,761.17837,-794.52674)"
     id="g3623">
    <rect
       width="66.559998"
       height="66.559998"
       ry="14.01"
       x="-112.11773"
       y="444.94928"
       id="rect3625"
       style="opacity:1;fill:#ffffff;fill-opacity:0.77999998;fill-rule:nonzero;stroke:#584131;stroke-width:4;stroke-linecap:round;stroke-linejoin:miter;marker:none;stroke-miterlimit:4;stroke-dasharray:none;stroke-dashoffset:0;stroke-opacity:1;visibility:visible;overflow:visible;enable-background:accumulate" />
    <path
       d="M -97.55773,478.04428 C -97.55773,469.33428 -95.99773,463.24428 -92.86773,459.76428 C -89.71773,456.28428 -84.93773,454.54428 -78.52773,454.54428 C -75.43773,454.54428 -72.90773,454.92428 -70.92773,455.69428 C -68.94773,456.44428 -67.33773,457.43428 -66.08773,458.66428 C -64.83773,459.87428 -63.85773,461.15428 -63.14773,462.51428 C -62.41773,463.84428 -61.83773,465.40428 -61.39773,467.19428 C -60.54773,470.61428 -60.11773,474.17428 -60.11773,477.88428 C -60.11773,486.19428 -61.52773,492.28428 -64.33773,496.13428 C -67.14773,499.99428 -71.99773,501.91428 -78.86773,501.91428 C -82.71773,501.91428 -85.83773,501.30428 -88.20773,500.07428 C -90.58773,498.84428 -92.53773,497.04428 -94.05773,494.66428 C -95.15773,492.97428 -96.02773,490.67428 -96.64773,487.76428 C -97.25773,484.82428 -97.55773,481.58428 -97.55773,478.04428 M -84.92773,478.07428 C -84.92773,483.90428 -84.41773,487.89428 -83.39773,490.04428 C -82.35773,492.16428 -80.85773,493.22428 -78.89773,493.22428 C -77.60773,493.22428 -76.49773,492.78428 -75.55773,491.88428 C -74.59773,490.96428 -73.89773,489.53428 -73.45773,487.57428 C -73.00773,485.61428 -72.77773,482.56428 -72.77773,478.41428 C -72.77773,472.33428 -73.29773,468.25428 -74.33773,466.16428 C -75.35773,464.06428 -76.89773,463.01428 -78.95773,463.01428 C -81.06773,463.01428 -82.58773,464.08428 -83.52773,466.22428 C -84.45773,468.35428 -84.92773,472.30428 -84.92773,478.07428"
       id="path3627"
       style="font-size:64px;font-style:normal;font-variant:normal;font-weight:normal;font-stretch:normal;text-align:start;line-height:80.00000119%;writing-mode:lr-tb;text-anchor:start;opacity:1;fill:#584131;fill-opacity:1;stroke:none;font-family:Arial Black;-inkscape-font-specification:Arial Black" />
  </g>
  <g
     transform="translate(57.296918,-60.289022)"
     id="g3635">
    <path
       d="M 179.6513,68.171388 C 179.95964,68.171388 192.1006,97.104138 192.35755,97.283998 C 192.61451,97.476718 223.87266,100.07193 223.97544,100.38027 C 224.07822,100.67576 200.3102,121.14195 200.20742,121.4503 C 200.11749,121.74579 207.29929,152.28447 207.04234,152.47719 C 206.78538,152.65705 179.95964,136.39202 179.6513,136.39202 C 179.34296,136.39202 152.51722,152.65705 152.26026,152.47719 C 152.00331,152.28447 159.18511,121.74579 159.09518,121.4503 C 158.9924,121.14195 135.22438,100.67576 135.32716,100.38027 C 135.42994,100.07193 166.68809,97.476718 166.94505,97.283998 C 167.202,97.104138 179.34296,68.171388 179.6513,68.171388 z"
       id="path3327"
       style="opacity:1;fill:#ffff00;fill-opacity:0.35;fill-rule:nonzero;stroke:none;marker:none;visibility:visible;overflow:visible;enable-background:accumulate" />
    <path
       d="M 187.91751,80.197788 C 188.16278,80.253308 192.61099,105.45345 192.783,105.64278 C 192.95269,105.84234 217.34939,113.53453 217.37562,113.7983 C 217.40417,114.05185 194.81334,126.05216 194.67607,126.27892 C 194.55134,126.49777 194.7657,152.08247 194.52661,152.18951 C 194.28983,152.28631 175.88003,134.51865 175.63476,134.46314 C 175.38949,134.40762 151.12284,142.51563 150.95082,142.3263 C 150.78113,142.12674 161.99213,119.12812 161.9738,118.87688 C 161.94756,118.61311 146.72638,98.054208 146.86134,97.837658 C 146.99861,97.610898 172.32981,101.17443 172.5689,101.0674 C 172.80567,100.97059 187.67225,80.142278 187.91751,80.197788 z"
       id="path3333"
       style="opacity:1;fill:#ffff00;fill-opacity:0.35;fill-rule:nonzero;stroke:none;marker:none;visibility:visible;overflow:visible;enable-background:accumulate" />
    <path
       d="M 179.14528,157.49917 C 179.14528,156.92917 179.12528,154.66917 179.12528,154.66917 C 179.12528,154.66917 171.27528,148.10917 170.84528,143.97917 C 170.41528,139.84917 170.56528,131.42917 170.56528,131.42917 C 170.56528,131.42917 170.59528,130.92917 170.08528,129.14917 C 167.57528,126.67916 174.23528,122.18916 176.83528,128.42917 C 177.40528,132.99917 177.42528,133.41917 177.40528,135.41917 C 177.40528,136.13917 177.37528,116.05917 177.40528,113.44917 C 178.99528,112.11917 180.75528,110.37917 184.25528,113.59917 C 184.33528,115.53917 184.25528,134.13917 184.25528,134.13917 L 184.39528,122.43916 C 184.39528,122.43916 190.66528,120.86916 190.80528,123.57916 C 190.95528,126.28916 190.66528,132.56917 190.66528,132.56917 L 190.95528,124.00916 C 190.95528,124.00916 195.83528,122.96916 197.83528,126.24916 C 197.82528,130.53917 197.66528,134.10917 197.66528,134.10917 C 197.66528,134.10917 197.64528,133.73917 197.86528,126.90916 C 198.00528,126.90916 200.36528,126.00916 202.50528,127.99917 C 203.07528,131.13917 202.65528,144.12917 202.65528,144.12917 C 202.65528,144.12917 202.61528,147.67917 199.36528,151.24917 C 198.45528,155.32917 198.44528,157.64917 198.44528,157.64917 L 179.14528,157.49917 z"
       id="path3329"
       style="opacity:0.76000001;fill:#ffffff;fill-rule:evenodd;stroke:#000000;stroke-width:1.67999995px;stroke-linecap:butt;stroke-linejoin:round;stroke-opacity:1" />
  </g>
</svg>
