<?xml version="1.0" encoding="UTF-8" standalone="no"?>

<svg xmlns:svg="http://www.w3.org/2000/svg" xmlns="http://www.w3.org/2000/svg" xmlns:xlink="http://www.w3.org/1999/xlink" version="1.0" width="100%" height="100%" viewBox="0 0 640 480" id="equation" style="display:inline">
<defs id="defs4">
<linearGradient id="lg3412">
<stop id="s3414" style="stop-color:#d39162;stop-opacity:1" offset="0"/>
<stop id="s3416" style="stop-color:#e5ad62;stop-opacity:0.78" offset="1"/>
</linearGradient>
<linearGradient x1="41" y1="2" x2="41" y2="410" id="lg3418" xlink:href="#lg3412" gradientUnits="userSpaceOnUse"/>

</defs>
<g id="source">
<rect width="78" height="408" ry="10" x="2" y="2" id="rect6" style="fill:url(#lg3418);fill-opacity:1"/>
<path d="M 57.21,14 C 56.98,14.05 53.24,37.22 53.09,37.40 C 52.93,37.58 30.67,44.95 30.65,45.18 C 30.63,45.42 51.50,56.14 51.62,56.34 C 51.74,56.54 51.87,80.00 52.09,80.09 C 52.31,80.18 68.95,63.64 69.18,63.59 C 69.29,63.56 74.58,65.22 80,66.90 L 80,31.75 C 75.57,32.39 71.64,32.97 71.56,32.93 C 71.34,32.84 57.44,13.94 57.21,14 z M 3,64.09 C 2.96,64.08 2.57,64.57 2,65.31 L 2,139 C 6.01,142.89 9.57,146.32 9.68,146.28 C 9.96,146.16 10.00,117.00 10.15,116.75 C 10.31,116.49 36.24,103.07 36.21,102.78 C 36.19,102.48 8.44,93.41 8.25,93.18 C 8.05,92.96 3.28,64.16 3,64.09 z M 67.75,94.59 C 67.63,94.62 66.25,106.00 66.18,106.09 C 66.11,106.18 55.41,110.22 55.40,110.34 C 55.40,110.45 65.81,115.24 65.87,115.34 C 65.93,115.43 66.45,126.89 66.56,126.93 C 66.67,126.97 74.45,118.56 74.56,118.53 C 74.61,118.51 77.30,119.22 80,119.93 L 80,102.62 C 77.64,103.07 75.17,103.54 75.12,103.53 C 75.01,103.49 67.86,94.56 67.75,94.59 z M 54.87,147.15 C 54.69,147.14 46.58,162.47 46.43,162.56 C 46.28,162.65 28.91,162.52 28.84,162.68 C 28.77,162.84 40.83,175.32 40.87,175.5 C 40.91,175.67 35.43,192.13 35.56,192.25 C 35.69,192.36 51.29,184.76 51.46,184.78 C 51.64,184.79 65.63,195.09 65.78,195 C 65.93,194.90 63.49,177.72 63.56,177.56 C 63.63,177.40 77.75,167.29 77.71,167.12 C 77.67,166.95 60.56,163.95 60.43,163.84 C 60.30,163.72 55.05,147.17 54.87,147.15 z M 37.37,228.90 C 37.02,228.69 17.94,242.16 2,253.40 L 2,386.93 C 8.02,369.30 14.61,349.80 14.90,349.56 C 15.37,349.16 68.92,340.57 80,338.34 L 80,336 C 70.07,328.13 28.00,297.05 27.78,296.5 C 27.52,295.86 37.95,229.26 37.37,228.90 z M 59.56,231.25 C 59.38,231.34 61.39,250.94 61.31,251.12 C 61.22,251.30 44.77,262.11 44.81,262.31 C 44.84,262.50 64.10,266.67 64.25,266.81 C 64.39,266.94 69.61,285.94 69.81,285.96 C 70.00,285.99 79.55,269.56 80,269 L 80,241.5 C 77.46,242.59 75.37,243.47 75.31,243.46 C 75.11,243.44 59.73,231.15 59.56,231.25 z M 53.71,364.37 C 53.42,364.40 45.06,392.45 44.84,392.65 C 44.62,392.85 15.90,398.39 15.84,398.68 C 15.80,398.86 24.67,405.07 31.71,410 L 70,410 C 75.54,410 80,405.54 80,400 L 80,389.96 C 73.99,390.07 68.54,390.15 68.43,390.09 C 68.18,389.94 54.01,364.34 53.71,364.37 z" id="p3562" style="opacity:0.76;fill:#eedd99;fill-opacity:0.60;fill-rule:nonzero;stroke:none;marker:none;visibility:visible;display:inline;overflow:visible;enable-background:accumulate"/>
</g>
<g id="template" style="display:none;">
<path d="M 9.72e-07,-37.44 C 0.24,-37.44 9.69,-14.92 9.89,-14.78 C 10.09,-14.63 34.42,-12.61 34.50,-12.37 C 34.58,-12.14 16.08,3.79 16.00,4.03 C 15.93,4.26 21.52,28.03 21.32,28.18 C 21.12,28.32 0.24,15.66 6.60e-08,15.66 C -0.24,15.66 -21.12,28.32 -21.32,28.18 C -21.52,28.03 -15.93,4.26 -16.00,4.03 C -16.08,3.79 -34.58,-12.14 -34.50,-12.37 C -34.42,-12.61 -10.09,-14.63 -9.89,-14.78 C -9.69,-14.92 -0.24,-37.44 9.72e-07,-37.44 z" id="p2400" style="opacity:0.76;fill:#ffff00;fill-opacity:0.35;fill-rule:nonzero;stroke:none;marker:none;visibility:visible;display:inline;overflow:visible;enable-background:accumulate"/>
<path d="M -8.19,12.28 C -8.19,11.71 -8.21,9.45 -8.21,9.45 C -8.21,9.45 -16.06,2.89 -16.49,-1.24 C -16.92,-5.37 -16.77,-13.79 -16.77,-13.79 C -16.77,-13.79 -16.74,-14.29 -17.25,-16.07 C -19.76,-18.54 -13.10,-23.03 -10.50,-16.79 C -9.93,-12.22 -9.91,-11.80 -9.93,-9.80 C -9.93,-9.08 -9.96,-29.16 -9.93,-31.77 C -8.34,-33.10 -6.58,-34.84 -3.08,-31.62 C -3.00,-29.68 -3.08,-11.08 -3.08,-11.08 L -2.94,-22.78 C -2.94,-22.78 3.33,-24.35 3.47,-21.64 C 3.62,-18.93 3.33,-12.65 3.33,-12.65 L 3.62,-21.21 C 3.62,-21.21 8.50,-22.25 10.50,-18.97 C 10.49,-14.68 10.33,-11.11 10.33,-11.11 C 10.33,-11.11 10.31,-11.48 10.53,-18.31 C 10.67,-18.31 13.03,-19.21 15.17,-17.22 C 15.74,-14.08 15.32,-1.09 15.32,-1.09 C 15.32,-1.09 15.28,2.46 12.03,6.03 C 11.12,10.11 11.11,12.43 11.11,12.43 L -8.19,12.28 z" id="p3179" style="opacity:0.76;fill:#ffffff;fill-rule:evenodd;stroke:#000000;stroke-width:1.68px;stroke-linecap:butt;stroke-linejoin:round;stroke-opacity:1;display:inline"/>
<path d="M 1.77,36.41 C -0.75,36.41 -3.27,37.86 -5.21,40.74 L -5.63,41.36 L -5.63,58.33 L -15.41,58.33 C -19.12,58.33 -22.11,62.78 -22.11,68.30 L -22.11,99.87 C -22.11,105.39 -19.12,109.85 -15.41,109.85 L -5.63,109.85 L -5.63,126.81 L -5.21,127.44 C -1.33,133.20 4.89,133.20 8.76,127.44 L 30.89,94.49 C 34.76,88.72 34.76,79.45 30.89,73.68 L 8.76,40.74 C 6.82,37.86 4.30,36.41 1.77,36.41 z" id="p3214" style="opacity:0.76;fill:#ffffff;fill-opacity:0.78;fill-rule:nonzero;stroke:#584131;stroke-width:4;stroke-linecap:round;stroke-linejoin:miter;marker:none;stroke-miterlimit:4;stroke-dasharray:none;stroke-dashoffset:0;stroke-opacity:1;visibility:visible;display:inline;overflow:visible;enable-background:accumulate"/>
<g transform="translate(-218.39,200.87)" id="g3376" style="opacity:0.76;display:inline">
<rect width="66.56" height="66.56" ry="14.01" x="224.23" y="45.54" id="r3378" style="fill:#ffffff;fill-opacity:0.78;fill-rule:nonzero;stroke:#584131;stroke-width:4;stroke-linecap:round;stroke-linejoin:miter;marker:none;stroke-miterlimit:4;stroke-dasharray:none;stroke-dashoffset:0;stroke-opacity:1;visibility:visible;display:inline;overflow:visible;enable-background:accumulate"/>
<path d="M 265.38,54.95 L 265.38,101.54 L 252.51,101.54 L 252.51,71.01 C 250.42,72.59 248.40,73.87 246.45,74.85 C 244.51,75.83 242.07,76.77 239.13,77.67 L 239.13,67.23 C 243.47,65.83 246.83,64.15 249.23,62.20 C 251.62,60.24 253.50,57.82 254.85,54.95 L 265.38,54.95" id="text3382" style="font-size:64px;font-style:normal;font-variant:normal;font-weight:normal;font-stretch:normal;text-align:start;line-height:80.00%;writing-mode:lr-tb;text-anchor:start;opacity:1;fill:#584131;fill-opacity:1;fill-rule:nonzero;stroke:none;marker:none;visibility:visible;display:inline;overflow:visible;enable-background:accumulate;font-family:Arial Black;-inkscape-font-specification:Arial Black"/>
</g>
<g transform="translate(-213.72,112.11)" id="g3219" style="opacity:0.76;display:inline">
<rect width="66.56" height="66.56" ry="14.01" x="224.23" y="45.54" id="r3221" style="fill:#ffffff;fill-opacity:0.78;fill-rule:nonzero;stroke:#584131;stroke-width:4;stroke-linecap:round;stroke-linejoin:miter;marker:none;stroke-miterlimit:4;stroke-dasharray:none;stroke-dashoffset:0;stroke-opacity:1;visibility:visible;display:inline;overflow:visible;enable-background:accumulate"/>
<path d="M 238.53,78.51 C 238.53,69.80 240.09,63.71 243.22,60.23 C 246.37,56.75 251.15,55.01 257.56,55.01 C 260.65,55.01 263.18,55.39 265.16,56.16 C 267.14,56.91 268.75,57.90 270.00,59.13 C 271.25,60.34 272.23,61.62 272.94,62.98 C 273.67,64.31 274.25,65.87 274.69,67.66 C 275.54,71.08 275.97,74.64 275.97,78.35 C 275.97,86.66 274.56,92.75 271.75,96.60 C 268.94,100.46 264.09,102.38 257.22,102.38 C 253.37,102.38 250.25,101.77 247.88,100.54 C 245.50,99.31 243.55,97.51 242.03,95.13 C 240.93,93.44 240.06,91.14 239.44,88.23 C 238.83,85.29 238.53,82.05 238.53,78.51 M 251.16,78.54 C 251.16,84.37 251.67,88.36 252.69,90.51 C 253.73,92.63 255.23,93.69 257.19,93.69 C 258.48,93.69 259.59,93.25 260.53,92.35 C 261.49,91.43 262.19,90.00 262.63,88.04 C 263.08,86.08 263.31,83.03 263.31,78.88 C 263.31,72.80 262.79,68.72 261.75,66.63 C 260.73,64.53 259.19,63.48 257.13,63.48 C 255.02,63.48 253.50,64.55 252.56,66.69 C 251.63,68.82 251.16,72.77 251.16,78.54" id="p3223" style="font-size:64px;font-style:normal;font-variant:normal;font-weight:normal;font-stretch:normal;text-align:start;line-height:80.00%;writing-mode:lr-tb;text-anchor:start;fill:#584131;fill-opacity:1;stroke:none;font-family:Arial Black;-inkscape-font-specification:Arial Black"/>
</g>
</g>
<g id="mu0" class="tuto">
<g transform="matrix(1.31,0.20,-0.20,1.31,0.41,-86.40)" id="g3269" style="opacity:0.76;display:inline">
<rect width="66.56" height="66.56" ry="14.01" x="224.23" y="45.54" id="r3271" style="fill:#ffffff;fill-opacity:0.78;fill-rule:nonzero;stroke:#584131;stroke-width:4;stroke-linecap:round;stroke-linejoin:miter;marker:none;stroke-miterlimit:4;stroke-dasharray:none;stroke-dashoffset:0;stroke-opacity:1;visibility:visible;display:inline;overflow:visible;enable-background:accumulate"/>
<path d="M 281.28,102.01 L 233.75,102.01 C 234.29,98.07 235.94,94.37 238.69,90.90 C 241.46,87.42 246.65,83.32 254.25,78.59 C 258.89,75.69 261.86,73.49 263.15,71.99 C 264.45,70.49 265.10,69.06 265.10,67.71 C 265.10,66.25 264.45,65.01 263.15,63.99 C 261.88,62.94 260.27,62.42 258.33,62.42 C 256.31,62.42 254.65,62.96 253.35,64.02 C 252.08,65.09 251.23,66.97 250.78,69.67 L 234.91,68.60 C 235.54,64.85 236.68,61.93 238.34,59.84 C 240.00,57.73 242.33,56.12 245.34,55.01 C 248.37,53.88 252.56,53.31 257.90,53.31 C 263.48,53.31 267.81,53.84 270.89,54.91 C 274.00,55.98 276.44,57.62 278.21,59.84 C 279.99,62.04 280.89,64.51 280.89,67.26 C 280.89,70.17 279.87,72.96 277.82,75.62 C 275.79,78.27 272.10,81.19 266.73,84.37 C 263.54,86.22 261.40,87.52 260.31,88.26 C 259.25,89.00 257.99,89.97 256.54,91.17 L 281.28,91.17 L 281.28,102.01" id="text3265" style="font-size:72.99px;font-style:normal;font-variant:normal;font-weight:normal;font-stretch:normal;text-align:start;line-height:80.00%;writing-mode:lr-tb;text-anchor:start;fill:#584131;fill-opacity:1;fill-rule:nonzero;stroke:none;marker:none;visibility:visible;display:inline;overflow:visible;enable-background:accumulate;font-family:Arial Black;-inkscape-font-specification:Arial Black"/>
</g>
<g transform="matrix(1.26,0,0,1.26,-156.36,-29.63)" id="g3283" style="opacity:0.76;display:inline">
<rect width="66.56" height="66.56" ry="14.01" x="224.23" y="45.54" id="r3285" style="fill:#ffffff;fill-opacity:0.78;fill-rule:nonzero;stroke:#584131;stroke-width:4;stroke-linecap:round;stroke-linejoin:miter;marker:none;stroke-miterlimit:4;stroke-dasharray:none;stroke-dashoffset:0;stroke-opacity:1;visibility:visible;display:inline;overflow:visible;enable-background:accumulate"/>
<path d="M 238.53,78.51 C 238.53,69.80 240.09,63.71 243.22,60.23 C 246.37,56.75 251.15,55.01 257.56,55.01 C 260.65,55.01 263.18,55.39 265.16,56.16 C 267.14,56.91 268.75,57.90 270.00,59.13 C 271.25,60.34 272.23,61.62 272.94,62.98 C 273.67,64.31 274.25,65.87 274.69,67.66 C 275.54,71.08 275.97,74.64 275.97,78.35 C 275.97,86.66 274.56,92.75 271.75,96.60 C 268.94,100.46 264.09,102.38 257.22,102.38 C 253.37,102.38 250.25,101.77 247.88,100.54 C 245.50,99.31 243.55,97.51 242.03,95.13 C 240.93,93.44 240.06,91.14 239.44,88.23 C 238.83,85.29 238.53,82.05 238.53,78.51 M 251.16,78.54 C 251.16,84.37 251.67,88.36 252.69,90.51 C 253.73,92.63 255.23,93.69 257.19,93.69 C 258.48,93.69 259.59,93.25 260.53,92.35 C 261.49,91.43 262.19,90.00 262.63,88.04 C 263.08,86.08 263.31,83.03 263.31,78.88 C 263.31,72.80 262.79,68.72 261.75,66.63 C 260.73,64.53 259.19,63.48 257.13,63.48 C 255.02,63.48 253.50,64.55 252.56,66.69 C 251.63,68.82 251.16,72.77 251.16,78.54" id="p3287" style="font-size:64px;font-style:normal;font-variant:normal;font-weight:normal;font-stretch:normal;text-align:start;line-height:80.00%;writing-mode:lr-tb;text-anchor:start;fill:#584131;fill-opacity:1;stroke:none;font-family:Arial Black;-inkscape-font-specification:Arial Black"/>
</g>
<path d="M 228.97,61.41 L 243.00,61.41 L 247.91,70.01 L 253.60,61.41 L 266.64,61.41 L 256.13,76.11 L 267.40,92.26 L 253.60,92.26 L 247.91,82.32 L 241.20,92.26 L 228.38,92.26 L 239.60,76.11 L 228.97,61.41" id="text3289" style="font-size:59.49px;font-style:normal;font-variant:normal;font-weight:normal;font-stretch:normal;text-align:start;line-height:80.00%;writing-mode:lr-tb;text-anchor:start;opacity:0.76;fill:#584131;fill-opacity:1;fill-rule:nonzero;stroke:none;marker:none;visibility:visible;display:inline;overflow:visible;enable-background:accumulate;font-family:Arial Black;-inkscape-font-specification:Arial Black"/>
<use transform="translate(425.10,-1.16)" id="use3299" x="0" y="0" width="640" height="480" xlink:href="#p3214"/>
<use transform="matrix(1.15,-0.19,0.19,1.15,328.32,26.07)" id="use3303" x="0" y="0" width="640" height="480" xlink:href="#g3283"/>
<use transform="translate(181.02,88.75)" id="use3307" x="0" y="0" width="640" height="480" xlink:href="#p2400"/>
<use transform="matrix(1.46,0,0,1.46,181.02,90.90)" id="use3309" x="0" y="0" width="640" height="480" xlink:href="#p2400"/>
<use transform="translate(186.86,117.95)" id="use3305" x="0" y="0" width="640" height="480" xlink:href="#p3179"/>
</g>
</svg>
