<?xml version="1.0" encoding="UTF-8" standalone="no"?>
<!-- Created with Inkscape (http://www.inkscape.org/) -->
<svg
   xmlns:svg="http://www.w3.org/2000/svg"
   xmlns="http://www.w3.org/2000/svg"
   xmlns:xlink="http://www.w3.org/1999/xlink"
   version="1.0"
   width="100%"
   height="100%"
   viewBox="0 0 640 480"
   id="equation"
   style="display:inline">
  <defs
     id="defs4">
    <linearGradient
       id="lg3412">
      <stop
         id="s3414"
         style="stop-color:#d39162;stop-opacity:1"
         offset="0" />
      <stop
         id="s3416"
         style="stop-color:#e5ad62;stop-opacity:0.77999997"
         offset="1" />
    </linearGradient>
    <linearGradient
       x1="41"
       y1="2"
       x2="41"
       y2="410"
       id="lg3418"
       xlink:href="#lg3412"
       gradientUnits="userSpaceOnUse" />
  </defs>
  <path
     d="M 215.85926,59.86003 L 230.95301,59.86003 L 236.23426,69.110035 L 242.35926,59.86003 L 256.39051,59.86003 L 245.07801,75.672535 L 257.20301,93.047535 L 242.35926,93.047535 L 236.23426,82.360035 L 229.01551,93.047535 L 215.23426,93.047535 L 227.29676,75.672535 L 215.85926,59.86003"
     id="path3400"
     style="font-size:64px;font-style:normal;font-variant:normal;font-weight:normal;font-stretch:normal;text-align:start;line-height:80.00000119%;writing-mode:lr-tb;text-anchor:start;fill:#584131;fill-opacity:1;stroke:none;stroke-width:1px;stroke-linecap:butt;stroke-linejoin:miter;stroke-opacity:1;font-family:Arial Black;-inkscape-font-specification:Arial Black" />
  <g
     id="source">
    <rect
       width="78"
       height="408"
       ry="10"
       x="2"
       y="2"
       id="rect6"
       style="fill:url(#lg3418);fill-opacity:1" />
    <path
       d="M 57.21,14 C 56.98,14.05 53.24,37.22 53.09,37.4 C 52.93,37.58 30.67,44.95 30.65,45.18 C 30.63,45.42 51.5,56.14 51.62,56.34 C 51.74,56.54 51.87,80 52.09,80.09 C 52.31,80.18 68.95,63.64 69.18,63.59 C 69.29,63.56 74.58,65.22 80,66.9 L 80,31.75 C 75.57,32.39 71.64,32.97 71.56,32.93 C 71.34,32.84 57.44,13.94 57.21,14 z M 3,64.09 C 2.96,64.08 2.57,64.57 2,65.31 L 2,139 C 6.01,142.89 9.57,146.32 9.68,146.28 C 9.96,146.16 10,117 10.15,116.75 C 10.31,116.49 36.24,103.07 36.21,102.78 C 36.19,102.48 8.44,93.41 8.25,93.18 C 8.05,92.96 3.28,64.16 3,64.09 z M 67.75,94.59 C 67.63,94.62 66.25,106 66.18,106.09 C 66.11,106.18 55.41,110.22 55.4,110.34 C 55.4,110.45 65.81,115.24 65.87,115.34 C 65.93,115.43 66.45,126.89 66.56,126.93 C 66.67,126.97 74.45,118.56 74.56,118.53 C 74.61,118.51 77.3,119.22 80,119.93 L 80,102.62 C 77.64,103.07 75.17,103.54 75.12,103.53 C 75.01,103.49 67.86,94.56 67.75,94.59 z M 54.87,147.15 C 54.69,147.14 46.58,162.47 46.43,162.56 C 46.28,162.65 28.91,162.52 28.84,162.68 C 28.77,162.84 40.83,175.32 40.87,175.5 C 40.91,175.67 35.43,192.13 35.56,192.25 C 35.69,192.36 51.29,184.76 51.46,184.78 C 51.64,184.79 65.63,195.09 65.78,195 C 65.93,194.9 63.49,177.72 63.56,177.56 C 63.63,177.4 77.75,167.29 77.71,167.12 C 77.67,166.95 60.56,163.95 60.43,163.84 C 60.3,163.72 55.05,147.17 54.87,147.15 z M 37.37,228.9 C 37.02,228.69 17.94,242.16 2,253.4 L 2,386.93 C 8.02,369.3 14.61,349.8 14.9,349.56 C 15.37,349.16 68.92,340.57 80,338.34 L 80,336 C 70.07,328.13 28,297.05 27.78,296.5 C 27.52,295.86 37.95,229.26 37.37,228.9 z M 59.56,231.25 C 59.38,231.34 61.39,250.94 61.31,251.12 C 61.22,251.3 44.77,262.11 44.81,262.31 C 44.84,262.5 64.1,266.67 64.25,266.81 C 64.39,266.94 69.61,285.94 69.81,285.96 C 70,285.99 79.55,269.56 80,269 L 80,241.5 C 77.46,242.59 75.37,243.47 75.31,243.46 C 75.11,243.44 59.73,231.15 59.56,231.25 z M 53.71,364.37 C 53.42,364.4 45.06,392.45 44.84,392.65 C 44.62,392.85 15.9,398.39 15.84,398.68 C 15.8,398.86 24.67,405.07 31.71,410 L 70,410 C 75.54,410 80,405.54 80,400 L 80,389.96 C 73.99,390.07 68.54,390.15 68.43,390.09 C 68.18,389.94 54.01,364.34 53.71,364.37 z"
       id="p3562"
       style="opacity:0.76000001;fill:#eedd99;fill-opacity:0.6;fill-rule:nonzero;stroke:none;marker:none;visibility:visible;display:inline;overflow:visible;enable-background:accumulate" />
  </g>
  <g
     transform="matrix(1.3972392,0,0,1.3972392,260.22255,-586.26694)"
     id="g3311">
    <rect
       width="66.559998"
       height="66.559998"
       ry="14.01"
       x="-112.11773"
       y="444.94928"
       id="rect3313"
       style="opacity:1;fill:#ffffff;fill-opacity:0.77999998;fill-rule:nonzero;stroke:#584131;stroke-width:4;stroke-linecap:round;stroke-linejoin:miter;marker:none;stroke-miterlimit:4;stroke-dasharray:none;stroke-dashoffset:0;stroke-opacity:1;visibility:visible;overflow:visible;enable-background:accumulate" />
    <path
       d="M -97.55773,478.04428 C -97.55773,469.33428 -95.99773,463.24428 -92.86773,459.76428 C -89.71773,456.28428 -84.93773,454.54428 -78.52773,454.54428 C -75.43773,454.54428 -72.90773,454.92428 -70.92773,455.69428 C -68.94773,456.44428 -67.33773,457.43428 -66.08773,458.66428 C -64.83773,459.87428 -63.85773,461.15428 -63.14773,462.51428 C -62.41773,463.84428 -61.83773,465.40428 -61.39773,467.19428 C -60.54773,470.61428 -60.11773,474.17428 -60.11773,477.88428 C -60.11773,486.19428 -61.52773,492.28428 -64.33773,496.13428 C -67.14773,499.99428 -71.99773,501.91428 -78.86773,501.91428 C -82.71773,501.91428 -85.83773,501.30428 -88.20773,500.07428 C -90.58773,498.84428 -92.53773,497.04428 -94.05773,494.66428 C -95.15773,492.97428 -96.02773,490.67428 -96.64773,487.76428 C -97.25773,484.82428 -97.55773,481.58428 -97.55773,478.04428 M -84.92773,478.07428 C -84.92773,483.90428 -84.41773,487.89428 -83.39773,490.04428 C -82.35773,492.16428 -80.85773,493.22428 -78.89773,493.22428 C -77.60773,493.22428 -76.49773,492.78428 -75.55773,491.88428 C -74.59773,490.96428 -73.89773,489.53428 -73.45773,487.57428 C -73.00773,485.61428 -72.77773,482.56428 -72.77773,478.41428 C -72.77773,472.33428 -73.29773,468.25428 -74.33773,466.16428 C -75.35773,464.06428 -76.89773,463.01428 -78.95773,463.01428 C -81.06773,463.01428 -82.58773,464.08428 -83.52773,466.22428 C -84.45773,468.35428 -84.92773,472.30428 -84.92773,478.07428"
       id="path3315"
       style="font-size:64px;font-style:normal;font-variant:normal;font-weight:normal;font-stretch:normal;text-align:start;line-height:80.00000119%;writing-mode:lr-tb;text-anchor:start;opacity:1;fill:#584131;fill-opacity:1;stroke:none;font-family:Arial Black;-inkscape-font-specification:Arial Black" />
  </g>
  <path
     d="M 439.72621,38.36265 C 437.20621,38.36265 434.68621,39.81265 432.74621,42.69265 L 432.32621,43.31265 L 432.32621,60.28265 L 422.54621,60.28265 C 418.83621,60.28265 415.84621,64.73265 415.84621,70.25265 L 415.84621,101.82265 C 415.84621,107.34265 418.83621,111.80265 422.54621,111.80265 L 432.32621,111.80265 L 432.32621,128.76265 L 432.74621,129.39265 C 436.62621,135.15265 442.84621,135.15265 446.71621,129.39265 L 468.84621,96.44265 C 472.71621,90.67265 472.71621,81.40265 468.84621,75.63265 L 446.71621,42.69265 C 444.77621,39.81265 442.25621,38.36265 439.72621,38.36265 z"
     id="path3323"
     style="opacity:1;fill:#ffffff;fill-opacity:0.77999998;fill-rule:nonzero;stroke:#584131;stroke-width:4;stroke-linecap:round;stroke-linejoin:miter;marker:none;stroke-miterlimit:4;stroke-dasharray:none;stroke-dashoffset:0;stroke-opacity:1;visibility:visible;overflow:visible;enable-background:accumulate" />
  <path
     d="M 178.00945,59.211439 C 178.31779,59.211439 190.45875,88.144184 190.7157,88.32405 C 190.97266,88.516764 222.23081,91.111974 222.33359,91.420316 C 222.43637,91.71581 198.66835,112.182 198.56557,112.49035 C 198.47564,112.78584 205.65744,143.32452 205.40049,143.51724 C 205.14353,143.6971 178.31779,127.43207 178.00945,127.43207 C 177.70111,127.43207 150.87537,143.6971 150.61841,143.51724 C 150.36146,143.32452 157.54326,112.78584 157.45333,112.49035 C 157.35055,112.182 133.58253,91.71581 133.68531,91.420316 C 133.78809,91.111974 165.04624,88.516764 165.3032,88.32405 C 165.56015,88.144184 177.70111,59.211439 178.00945,59.211439 z"
     id="path3327"
     style="opacity:1;fill:#ffff00;fill-opacity:0.35;fill-rule:nonzero;stroke:none;marker:none;visibility:visible;overflow:visible;enable-background:accumulate" />
  <path
     d="M 186.27566,71.23784 C 186.52093,71.293355 190.96914,96.493497 191.14115,96.682832 C 191.31084,96.882388 215.70754,104.57458 215.73377,104.83835 C 215.76232,105.0919 193.17149,117.09221 193.03422,117.31897 C 192.90949,117.53782 193.12385,143.12252 192.88476,143.22956 C 192.64798,143.32636 174.23818,125.5587 173.99291,125.50319 C 173.74764,125.44767 149.48099,133.55568 149.30897,133.36635 C 149.13928,133.16679 160.35028,110.16817 160.33195,109.91693 C 160.30571,109.65316 145.08453,89.094255 145.21949,88.877711 C 145.35676,88.650949 170.68796,92.214478 170.92705,92.107449 C 171.16382,92.010639 186.0304,71.182325 186.27566,71.23784 z"
     id="path3333"
     style="opacity:1;fill:#ffff00;fill-opacity:0.35;fill-rule:nonzero;stroke:none;marker:none;visibility:visible;overflow:visible;enable-background:accumulate" />
  <path
     d="M 177.50343,148.53922 C 177.50343,147.96922 177.48343,145.70922 177.48343,145.70922 C 177.48343,145.70922 169.63343,139.14922 169.20343,135.01922 C 168.77343,130.88922 168.92343,122.46922 168.92343,122.46922 C 168.92343,122.46922 168.95343,121.96922 168.44343,120.18922 C 165.93343,117.71921 172.59343,113.22921 175.19343,119.46922 C 175.76343,124.03922 175.78343,124.45922 175.76343,126.45922 C 175.76343,127.17922 175.73343,107.09922 175.76343,104.48922 C 177.35343,103.15922 179.11343,101.41922 182.61343,104.63922 C 182.69343,106.57922 182.61343,125.17922 182.61343,125.17922 L 182.75343,113.47921 C 182.75343,113.47921 189.02343,111.90921 189.16343,114.61921 C 189.31343,117.32921 189.02343,123.60922 189.02343,123.60922 L 189.31343,115.04921 C 189.31343,115.04921 194.19343,114.00921 196.19343,117.28921 C 196.18343,121.57922 196.02343,125.14922 196.02343,125.14922 C 196.02343,125.14922 196.00343,124.77922 196.22343,117.94921 C 196.36343,117.94921 198.72343,117.04921 200.86343,119.03922 C 201.43343,122.17922 201.01343,135.16922 201.01343,135.16922 C 201.01343,135.16922 200.97343,138.71922 197.72343,142.28922 C 196.81343,146.36922 196.80343,148.68922 196.80343,148.68922 L 177.50343,148.53922 z"
     id="path3329"
     style="opacity:0.76000001;fill:#ffffff;fill-rule:evenodd;stroke:#000000;stroke-width:1.67999995px;stroke-linecap:butt;stroke-linejoin:round;stroke-opacity:1" />
  <g
     transform="matrix(1.7789016,-0.2359275,0.2359275,1.7789016,568.0438,-384.93407)"
     id="g3402">
    <rect
       width="66.559998"
       height="66.559998"
       ry="14.01"
       x="-193.86955"
       y="207.86899"
       id="rect3404"
       style="opacity:1;fill:#ffffff;fill-opacity:0.77999998;fill-rule:nonzero;stroke:#584131;stroke-width:4;stroke-linecap:round;stroke-linejoin:miter;marker:none;stroke-miterlimit:4;stroke-dasharray:none;stroke-dashoffset:0;stroke-opacity:1;visibility:visible;overflow:visible;enable-background:accumulate" />
    <path
       d="M -141.4958,264.44586 L -179.6833,264.44586 C -179.2458,260.67504 -177.92289,257.13337 -175.71455,253.82086 C -173.48539,250.48755 -169.31873,246.56047 -163.21455,242.03961 C -159.48541,239.26881 -157.09999,237.16464 -156.0583,235.72711 C -155.01666,234.28964 -154.49583,232.92506 -154.4958,231.63336 C -154.49583,230.23757 -155.01666,229.05007 -156.0583,228.07086 C -157.07916,227.0709 -158.37082,226.5709 -159.9333,226.57086 C -161.55832,226.5709 -162.89165,227.08132 -163.9333,228.10211 C -164.95415,229.12298 -165.64165,230.92507 -165.9958,233.50836 L -178.7458,232.47711 C -178.2458,228.89382 -177.32914,226.10215 -175.9958,224.10211 C -174.66247,222.08132 -172.78748,220.53966 -170.3708,219.47711 C -167.93331,218.39383 -164.56873,217.85216 -160.27705,217.85211 C -155.79791,217.85216 -152.31875,218.36258 -149.83955,219.38336 C -147.33958,220.40424 -145.38125,221.97716 -143.96455,224.10211 C -142.52709,226.20632 -141.80834,228.5709 -141.8083,231.19586 C -141.80834,233.98756 -142.63126,236.65423 -144.27705,239.19586 C -145.90209,241.73755 -148.87083,244.52922 -153.1833,247.57086 C -155.74583,249.34171 -157.46457,250.5813 -158.33955,251.28961 C -159.19374,251.99796 -160.20416,252.92504 -161.3708,254.07086 L -141.4958,254.07086 L -141.4958,264.44586"
       id="path3406"
       style="font-size:64px;font-style:normal;font-variant:normal;font-weight:normal;font-stretch:normal;text-align:start;line-height:80.00000119%;writing-mode:lr-tb;text-anchor:start;fill:#584131;fill-opacity:1;stroke:none;stroke-width:1px;stroke-linecap:butt;stroke-linejoin:miter;stroke-opacity:1;font-family:Arial Black;-inkscape-font-specification:Arial Black" />
  </g>
  <g
     transform="matrix(1.5716969,0.1270158,-0.1270158,1.5716969,735.44836,-654.93235)"
     id="g3408">
    <rect
       width="66.559998"
       height="66.559998"
       ry="14.01"
       x="-112.11773"
       y="444.94928"
       id="rect3410"
       style="opacity:1;fill:#ffffff;fill-opacity:0.77999998;fill-rule:nonzero;stroke:#584131;stroke-width:4;stroke-linecap:round;stroke-linejoin:miter;marker:none;stroke-miterlimit:4;stroke-dasharray:none;stroke-dashoffset:0;stroke-opacity:1;visibility:visible;overflow:visible;enable-background:accumulate" />
    <path
       d="M -97.55773,478.04428 C -97.55773,469.33428 -95.99773,463.24428 -92.86773,459.76428 C -89.71773,456.28428 -84.93773,454.54428 -78.52773,454.54428 C -75.43773,454.54428 -72.90773,454.92428 -70.92773,455.69428 C -68.94773,456.44428 -67.33773,457.43428 -66.08773,458.66428 C -64.83773,459.87428 -63.85773,461.15428 -63.14773,462.51428 C -62.41773,463.84428 -61.83773,465.40428 -61.39773,467.19428 C -60.54773,470.61428 -60.11773,474.17428 -60.11773,477.88428 C -60.11773,486.19428 -61.52773,492.28428 -64.33773,496.13428 C -67.14773,499.99428 -71.99773,501.91428 -78.86773,501.91428 C -82.71773,501.91428 -85.83773,501.30428 -88.20773,500.07428 C -90.58773,498.84428 -92.53773,497.04428 -94.05773,494.66428 C -95.15773,492.97428 -96.02773,490.67428 -96.64773,487.76428 C -97.25773,484.82428 -97.55773,481.58428 -97.55773,478.04428 M -84.92773,478.07428 C -84.92773,483.90428 -84.41773,487.89428 -83.39773,490.04428 C -82.35773,492.16428 -80.85773,493.22428 -78.89773,493.22428 C -77.60773,493.22428 -76.49773,492.78428 -75.55773,491.88428 C -74.59773,490.96428 -73.89773,489.53428 -73.45773,487.57428 C -73.00773,485.61428 -72.77773,482.56428 -72.77773,478.41428 C -72.77773,472.33428 -73.29773,468.25428 -74.33773,466.16428 C -75.35773,464.06428 -76.89773,463.01428 -78.95773,463.01428 C -81.06773,463.01428 -82.58773,464.08428 -83.52773,466.22428 C -84.45773,468.35428 -84.92773,472.30428 -84.92773,478.07428"
       id="path3412"
       style="font-size:64px;font-style:normal;font-variant:normal;font-weight:normal;font-stretch:normal;text-align:start;line-height:80.00000119%;writing-mode:lr-tb;text-anchor:start;opacity:1;fill:#584131;fill-opacity:1;stroke:none;font-family:Arial Black;-inkscape-font-specification:Arial Black" />
  </g>
</svg>
