<?xml version="1.0" encoding="UTF-8" standalone="no"?>

<svg xmlns:svg="http://www.w3.org/2000/svg" xmlns="http://www.w3.org/2000/svg" xmlns:xlink="http://www.w3.org/1999/xlink" version="1.0" width="100%" height="100%" viewBox="0 0 640 480" id="equation" style="display:inline">
<defs id="defs4">
<linearGradient id="lg3412">
<stop id="s3414" style="stop-color:#d39162;stop-opacity:1" offset="0"/>
<stop id="s3416" style="stop-color:#e5ad62;stop-opacity:0.77" offset="1"/>
</linearGradient>
<linearGradient x1="41" y1="2" x2="41" y2="410" id="lg3418" xlink:href="#lg3412" gradientUnits="userSpaceOnUse"/>
</defs>
<path d="M 236.01,59.86 L 251.11,59.86 L 256.39,69.11 L 262.51,59.86 L 276.55,59.86 L 265.23,75.67 L 277.36,93.04 L 262.51,93.04 L 256.39,82.36 L 249.17,93.04 L 235.39,93.04 L 247.45,75.67 L 236.01,59.86" id="p3400" style="font-size:64px;font-style:normal;font-variant:normal;font-weight:normal;font-stretch:normal;text-align:start;line-height:80.00%;writing-mode:lr-tb;text-anchor:start;fill:#584131;fill-opacity:1;stroke:none;font-family:Arial Black;-inkscape-font-specification:Arial Black"/>
<g id="source">
<rect width="78" height="408" ry="10" x="2" y="2" id="rect6" style="fill:url(#lg3418);fill-opacity:1"/>
<path d="M 57.21,14 C 56.98,14.05 53.24,37.22 53.09,37.4 C 52.93,37.58 30.67,44.95 30.65,45.18 C 30.63,45.42 51.5,56.14 51.62,56.34 C 51.74,56.54 51.87,80 52.09,80.09 C 52.31,80.18 68.95,63.64 69.18,63.59 C 69.29,63.56 74.58,65.22 80,66.9 L 80,31.75 C 75.57,32.39 71.64,32.97 71.56,32.93 C 71.34,32.84 57.44,13.94 57.21,14 z M 3,64.09 C 2.96,64.08 2.57,64.57 2,65.31 L 2,139 C 6.01,142.89 9.57,146.32 9.68,146.28 C 9.96,146.16 10,117 10.15,116.75 C 10.31,116.49 36.24,103.07 36.21,102.78 C 36.19,102.48 8.44,93.41 8.25,93.18 C 8.05,92.96 3.28,64.16 3,64.09 z M 67.75,94.59 C 67.63,94.62 66.25,106 66.18,106.09 C 66.11,106.18 55.41,110.22 55.4,110.34 C 55.4,110.45 65.81,115.24 65.87,115.34 C 65.93,115.43 66.45,126.89 66.56,126.93 C 66.67,126.97 74.45,118.56 74.56,118.53 C 74.61,118.51 77.3,119.22 80,119.93 L 80,102.62 C 77.64,103.07 75.17,103.54 75.12,103.53 C 75.01,103.49 67.86,94.56 67.75,94.59 z M 54.87,147.15 C 54.69,147.14 46.58,162.47 46.43,162.56 C 46.28,162.65 28.91,162.52 28.84,162.68 C 28.77,162.84 40.83,175.32 40.87,175.5 C 40.91,175.67 35.43,192.13 35.56,192.25 C 35.69,192.36 51.29,184.76 51.46,184.78 C 51.64,184.79 65.63,195.09 65.78,195 C 65.93,194.9 63.49,177.72 63.56,177.56 C 63.63,177.4 77.75,167.29 77.71,167.12 C 77.67,166.95 60.56,163.95 60.43,163.84 C 60.3,163.72 55.05,147.17 54.87,147.15 z M 37.37,228.9 C 37.02,228.69 17.94,242.16 2,253.4 L 2,386.93 C 8.02,369.3 14.61,349.8 14.9,349.56 C 15.37,349.16 68.92,340.57 80,338.34 L 80,336 C 70.07,328.13 28,297.05 27.78,296.5 C 27.52,295.86 37.95,229.26 37.37,228.9 z M 59.56,231.25 C 59.38,231.34 61.39,250.94 61.31,251.12 C 61.22,251.3 44.77,262.11 44.81,262.31 C 44.84,262.5 64.1,266.67 64.25,266.81 C 64.39,266.94 69.61,285.94 69.81,285.96 C 70,285.99 79.55,269.56 80,269 L 80,241.5 C 77.46,242.59 75.37,243.47 75.31,243.46 C 75.11,243.44 59.73,231.15 59.56,231.25 z M 53.71,364.37 C 53.42,364.4 45.06,392.45 44.84,392.65 C 44.62,392.85 15.9,398.39 15.84,398.68 C 15.8,398.86 24.67,405.07 31.71,410 L 70,410 C 75.54,410 80,405.54 80,400 L 80,389.96 C 73.99,390.07 68.54,390.15 68.43,390.09 C 68.18,389.94 54.01,364.34 53.71,364.37 z" id="p3562" style="opacity:0.76;fill:#eedd99;fill-opacity:0.6;fill-rule:nonzero;stroke:none;marker:none;visibility:visible;display:inline;overflow:visible;enable-background:accumulate"/>
</g>
<path d="M 439.72,29.40 C 437.20,29.40 434.68,30.85 432.74,33.73 L 432.32,34.35 L 432.32,51.32 L 422.54,51.32 C 418.83,51.32 415.84,55.77 415.84,61.29 L 415.84,92.86 C 415.84,98.38 418.83,102.84 422.54,102.84 L 432.32,102.84 L 432.32,119.80 L 432.74,120.43 C 436.62,126.19 442.84,126.19 446.71,120.43 L 468.84,87.48 C 472.71,81.71 472.71,72.44 468.84,66.67 L 446.71,33.73 C 444.77,30.85 442.25,29.40 439.72,29.40 z" id="p3323" style="opacity:1;fill:#ffffff;fill-opacity:0.77;fill-rule:nonzero;stroke:#584131;stroke-width:4;stroke-linecap:round;stroke-linejoin:miter;marker:none;stroke-miterlimit:4;stroke-dasharray:none;stroke-dashoffset:0;stroke-opacity:1;visibility:visible;overflow:visible;enable-background:accumulate"/>
<g transform="matrix(1.77,-0.23,0.23,1.77,388.84,-382.69)" id="g3402">
<rect width="66.55" height="66.55" ry="14.01" x="-193.86" y="207.86" id="r3404" style="opacity:1;fill:#ffffff;fill-opacity:0.77;fill-rule:nonzero;stroke:#584131;stroke-width:4;stroke-linecap:round;stroke-linejoin:miter;marker:none;stroke-miterlimit:4;stroke-dasharray:none;stroke-dashoffset:0;stroke-opacity:1;visibility:visible;overflow:visible;enable-background:accumulate"/>
<path d="M -141.49,264.44 L -179.68,264.44 C -179.24,260.67 -177.92,257.13 -175.71,253.82 C -173.48,250.48 -169.31,246.56 -163.21,242.03 C -159.48,239.26 -157.09,237.16 -156.05,235.72 C -155.01,234.28 -154.49,232.92 -154.49,231.63 C -154.49,230.23 -155.01,229.05 -156.05,228.07 C -157.07,227.07 -158.37,226.57 -159.93,226.57 C -161.55,226.57 -162.89,227.08 -163.93,228.10 C -164.95,229.12 -165.64,230.92 -165.99,233.50 L -178.74,232.47 C -178.24,228.89 -177.32,226.10 -175.99,224.10 C -174.66,222.08 -172.78,220.53 -170.37,219.47 C -167.93,218.39 -164.56,217.85 -160.27,217.85 C -155.79,217.85 -152.31,218.36 -149.83,219.38 C -147.33,220.40 -145.38,221.97 -143.96,224.10 C -142.52,226.20 -141.80,228.57 -141.80,231.19 C -141.80,233.98 -142.63,236.65 -144.27,239.19 C -145.90,241.73 -148.87,244.52 -153.18,247.57 C -155.74,249.34 -157.46,250.58 -158.33,251.28 C -159.19,251.99 -160.20,252.92 -161.37,254.07 L -141.49,254.07 L -141.49,264.44" id="p3406" style="font-size:64px;font-style:normal;font-variant:normal;font-weight:normal;font-stretch:normal;text-align:start;line-height:80.00%;writing-mode:lr-tb;text-anchor:start;fill:#584131;fill-opacity:1;stroke:none;font-family:Arial Black;-inkscape-font-specification:Arial Black"/>
</g>
<g transform="matrix(1.63,0,0,1.63,825.47,-316.62)" id="g3471">
<rect width="66.55" height="66.55" ry="14.01" x="-193.86" y="207.86" id="r3473" style="opacity:1;fill:#ffffff;fill-opacity:0.77;fill-rule:nonzero;stroke:#584131;stroke-width:4;stroke-linecap:round;stroke-linejoin:miter;marker:none;stroke-miterlimit:4;stroke-dasharray:none;stroke-dashoffset:0;stroke-opacity:1;visibility:visible;overflow:visible;enable-background:accumulate"/>
<path d="M -141.49,264.44 L -179.68,264.44 C -179.24,260.67 -177.92,257.13 -175.71,253.82 C -173.48,250.48 -169.31,246.56 -163.21,242.03 C -159.48,239.26 -157.09,237.16 -156.05,235.72 C -155.01,234.28 -154.49,232.92 -154.49,231.63 C -154.49,230.23 -155.01,229.05 -156.05,228.07 C -157.07,227.07 -158.37,226.57 -159.93,226.57 C -161.55,226.57 -162.89,227.08 -163.93,228.10 C -164.95,229.12 -165.64,230.92 -165.99,233.50 L -178.74,232.47 C -178.24,228.89 -177.32,226.10 -175.99,224.10 C -174.66,222.08 -172.78,220.53 -170.37,219.47 C -167.93,218.39 -164.56,217.85 -160.27,217.85 C -155.79,217.85 -152.31,218.36 -149.83,219.38 C -147.33,220.40 -145.38,221.97 -143.96,224.10 C -142.52,226.20 -141.80,228.57 -141.80,231.19 C -141.80,233.98 -142.63,236.65 -144.27,239.19 C -145.90,241.73 -148.87,244.52 -153.18,247.57 C -155.74,249.34 -157.46,250.58 -158.33,251.28 C -159.19,251.99 -160.20,252.92 -161.37,254.07 L -141.49,254.07 L -141.49,264.44" id="p3475" style="font-size:64px;font-style:normal;font-variant:normal;font-weight:normal;font-stretch:normal;text-align:start;line-height:80.00%;writing-mode:lr-tb;text-anchor:start;fill:#584131;fill-opacity:1;stroke:none;font-family:Arial Black;-inkscape-font-specification:Arial Black"/>
</g>
<g transform="matrix(1.50,0,0,1.50,704.30,-286.00)" id="g3477">
<rect width="66.55" height="66.55" ry="14.01" x="-273.28" y="207.86" id="r3479" style="opacity:1;fill:#ffffff;fill-opacity:0.77;fill-rule:nonzero;stroke:#584131;stroke-width:4;stroke-linecap:round;stroke-linejoin:miter;marker:none;stroke-miterlimit:4;stroke-dasharray:none;stroke-dashoffset:0;stroke-opacity:1;visibility:visible;overflow:visible;enable-background:accumulate"/>
<path d="M -229.21,217.85 L -229.21,264.44 L -242.09,264.44 L -242.09,233.91 C -244.17,235.49 -246.19,236.77 -248.15,237.75 C -250.09,238.73 -252.52,239.67 -255.46,240.57 L -255.46,230.13 C -251.13,228.73 -247.76,227.06 -245.37,225.10 C -242.97,223.14 -241.10,220.72 -239.74,217.85 L -229.21,217.85" id="p3481" style="font-size:64px;font-style:normal;font-variant:normal;font-weight:normal;font-stretch:normal;text-align:start;line-height:80.00%;writing-mode:lr-tb;text-anchor:start;fill:#584131;fill-opacity:1;stroke:none;font-family:Arial Black;-inkscape-font-specification:Arial Black"/>
</g>
<path d="M 372.88,68.17 C 373.19,68.17 385.33,97.10 385.59,97.28 C 385.85,97.47 417.10,100.07 417.21,100.38 C 417.31,100.67 393.54,121.14 393.44,121.45 C 393.35,121.74 400.53,152.28 400.27,152.47 C 400.02,152.65 373.19,136.39 372.88,136.39 C 372.58,136.39 345.75,152.65 345.49,152.47 C 345.24,152.28 352.42,121.74 352.33,121.45 C 352.22,121.14 328.46,100.67 328.56,100.38 C 328.66,100.07 359.92,97.47 360.18,97.28 C 360.43,97.10 372.58,68.17 372.88,68.17 z" id="p3327" style="opacity:1;fill:#ffff00;fill-opacity:0.35;fill-rule:nonzero;stroke:none;marker:none;visibility:visible;overflow:visible;enable-background:accumulate"/>
<path d="M 381.15,80.19 C 381.39,80.25 385.84,105.45 386.02,105.64 C 386.18,105.84 410.58,113.53 410.61,113.79 C 410.64,114.05 388.05,126.05 387.91,126.27 C 387.78,126.49 388.00,152.08 387.76,152.18 C 387.52,152.28 369.11,134.51 368.87,134.46 C 368.62,134.40 344.35,142.51 344.18,142.32 C 344.01,142.12 355.22,119.12 355.21,118.87 C 355.18,118.61 339.96,98.05 340.09,97.83 C 340.23,97.61 365.56,101.17 365.80,101.06 C 366.04,100.97 380.90,80.14 381.15,80.19 z" id="p3333" style="opacity:1;fill:#ffff00;fill-opacity:0.35;fill-rule:nonzero;stroke:none;marker:none;visibility:visible;overflow:visible;enable-background:accumulate"/>
<path d="M 372.38,157.49 C 372.38,156.92 372.36,154.66 372.36,154.66 C 372.36,154.66 364.51,148.10 364.08,143.97 C 363.65,139.84 363.80,131.42 363.80,131.42 C 363.80,131.42 363.83,130.92 363.32,129.14 C 360.81,126.67 367.47,122.18 370.07,128.42 C 370.64,132.99 370.66,133.41 370.64,135.41 C 370.64,136.13 370.61,116.05 370.64,113.44 C 372.23,112.11 373.99,110.37 377.49,113.59 C 377.57,115.53 377.49,134.13 377.49,134.13 L 377.63,122.43 C 377.63,122.43 383.90,120.86 384.04,123.57 C 384.19,126.28 383.90,132.56 383.90,132.56 L 384.19,124.00 C 384.19,124.00 389.07,122.96 391.07,126.24 C 391.06,130.53 390.90,134.10 390.90,134.10 C 390.90,134.10 390.88,133.73 391.10,126.90 C 391.24,126.90 393.60,126.00 395.74,127.99 C 396.31,131.13 395.89,144.12 395.89,144.12 C 395.89,144.12 395.85,147.67 392.60,151.24 C 391.69,155.32 391.68,157.64 391.68,157.64 L 372.38,157.49 z" id="p3329" style="opacity:0.76;fill:#ffffff;fill-rule:evenodd;stroke:#000000;stroke-width:1.67px;stroke-linecap:butt;stroke-linejoin:round;stroke-opacity:1"/>
</svg>
