<?xml version="1.0" encoding="UTF-8" standalone="no"?>
<!-- Created with Inkscape (http://www.inkscape.org/) -->
<svg
   xmlns:svg="http://www.w3.org/2000/svg"
   xmlns="http://www.w3.org/2000/svg"
   xmlns:xlink="http://www.w3.org/1999/xlink"
   version="1.0"
   width="100%"
   height="100%"
   viewBox="0 0 640 480"
   id="equation"
   style="display:inline">
  <defs
     id="defs4">
    <linearGradient
       id="linearGradient3412">
      <stop
         id="stop3414"
         style="stop-color:#d39162;stop-opacity:1"
         offset="0" />
      <stop
         id="stop3416"
         style="stop-color:#e5ad62;stop-opacity:0.78431374"
         offset="1" />
    </linearGradient>
    <linearGradient
       x1="41"
       y1="2"
       x2="41"
       y2="410"
       id="linearGradient3418"
       xlink:href="#linearGradient3412"
       gradientUnits="userSpaceOnUse" />
  </defs>
  <rect
     width="78"
     height="408"
     ry="10"
     x="2"
     y="2"
     id="rect6"
     style="fill:url(#linearGradient3418);fill-opacity:1" />
  <g
     transform="translate(21.021898,0)"
     id="g3593">
    <g
       transform="matrix(1.1840858,0.1859212,-0.1859212,1.1840858,8.1270215,-65.893632)"
       id="g3288"
       style="opacity:0.76106196">
      <rect
         width="66.569344"
         height="66.569344"
         ry="14.014599"
         x="224.23358"
         y="45.547443"
         id="rect3156"
         style="fill:#ffffff;fill-opacity:0.78431373;fill-rule:nonzero;stroke:#584131;stroke-width:4;stroke-linecap:round;stroke-linejoin:miter;marker:none;marker-start:none;marker-mid:none;marker-end:none;stroke-miterlimit:4;stroke-dasharray:none;stroke-dashoffset:0;stroke-opacity:1;visibility:visible;display:inline;overflow:visible;enable-background:accumulate" />
      <path
         d="M 238.53742,78.512077 C 238.53741,69.803776 240.09991,63.710032 243.22492,60.230827 C 246.37074,56.751706 251.15198,55.012124 257.56867,55.012077 C 260.65198,55.012124 263.18322,55.39754 265.16242,56.168327 C 267.14155,56.918372 268.75613,57.907954 270.00617,59.137077 C 271.25613,60.345452 272.2353,61.626701 272.94367,62.980827 C 273.6728,64.314198 274.25613,65.876696 274.69367,67.668327 C 275.54779,71.085025 275.97488,74.647521 275.97492,78.355827 C 275.97488,86.668342 274.56863,92.75167 271.75617,96.605827 C 268.94363,100.46 264.09989,102.38708 257.22492,102.38708 C 253.37073,102.38708 250.25615,101.77249 247.88117,100.54333 C 245.50616,99.314163 243.55824,97.512081 242.03742,95.137077 C 240.93324,93.449585 240.06866,91.147504 239.44367,88.230827 C 238.8395,85.293344 238.53741,82.053764 238.53742,78.512077 M 251.16242,78.543327 C 251.1624,84.376678 251.67282,88.366257 252.69367,90.512077 C 253.73532,92.637086 255.23531,93.699585 257.19367,93.699577 C 258.48531,93.699585 259.59989,93.251669 260.53742,92.355827 C 261.49572,91.439171 262.19364,90.001672 262.63117,88.043327 C 263.08947,86.08501 263.31864,83.032929 263.31867,78.887077 C 263.31864,72.803773 262.79781,68.720444 261.75617,66.637077 C 260.73531,64.532948 259.19364,63.480865 257.13117,63.480827 C 255.02698,63.480865 253.50615,64.553781 252.56867,66.699577 C 251.63115,68.82461 251.1624,72.772523 251.16242,78.543327"
         id="text3158"
         style="font-size:64px;font-style:normal;font-variant:normal;font-weight:normal;font-stretch:normal;text-align:start;line-height:80.00000119%;writing-mode:lr-tb;text-anchor:start;fill:#584131;fill-opacity:1;stroke:none;stroke-width:1px;stroke-linecap:butt;stroke-linejoin:miter;stroke-opacity:1;font-family:Arial Black;-inkscape-font-specification:Arial Black" />
    </g>
    <path
       d="M 293.44343,55.6875 C 293.15434,55.733288 286.2754,83.793034 286.06843,84 C 285.86146,84.206967 257.77046,91.085909 257.72468,91.375 C 257.67889,91.664093 282.24805,106.89546 282.38093,107.15625 C 282.51381,107.41704 280.40139,136.24212 280.66218,136.375 C 280.92297,136.50788 302.96683,117.82704 303.25593,117.78125 C 303.54502,117.73546 330.29897,128.67572 330.50593,128.46875 C 330.7129,128.26178 319.77263,101.50784 319.81843,101.21875 C 319.86422,100.92966 338.54507,78.854542 338.41218,78.59375 C 338.2793,78.332956 309.45422,80.476631 309.19343,80.34375 C 308.93264,80.210869 293.73252,55.641711 293.44343,55.6875 z"
       id="path3168"
       style="opacity:0.76106196;fill:#ffff00;fill-opacity:0.35294118;fill-rule:nonzero;stroke:none;stroke-width:4;stroke-linecap:round;stroke-linejoin:miter;marker:none;marker-start:none;marker-mid:none;marker-end:none;stroke-miterlimit:4;stroke-dasharray:none;stroke-dashoffset:0;stroke-opacity:1;visibility:visible;display:inline;overflow:visible;enable-background:accumulate" />
    <path
       d="M 299.76991,139.49745 C 299.76991,138.92677 299.74469,136.66934 299.74469,136.66934 C 299.74469,136.66934 291.89806,130.1067 291.47006,125.96938 C 291.04207,121.83206 291.18473,113.41475 291.18473,113.41475 C 291.18473,113.41475 291.21747,112.91199 290.71105,111.13761 C 288.19463,108.6643 294.86328,104.17267 297.46203,110.41877 C 298.03271,114.98408 298.04926,115.40342 298.03271,117.40941 C 298.02681,118.12272 298.00243,98.048087 298.03271,95.438817 C 299.61997,94.104236 301.37587,92.361273 304.88068,95.581477 C 304.96354,97.522127 304.88068,116.12542 304.88068,116.12542 L 305.02334,104.42678 C 305.02334,104.42678 311.30066,102.85747 311.44332,105.56812 C 311.58599,108.27877 311.30066,114.55609 311.30066,114.55609 L 311.58599,105.99612 C 311.58599,105.99612 316.4705,104.95568 318.46783,108.23699 C 318.45917,112.52563 318.29995,116.09154 318.29995,116.09154 C 318.29995,116.09154 318.28338,115.7219 318.50096,108.89914 C 318.64362,108.89914 321.00195,107.99344 323.14194,109.99077 C 323.7126,113.12942 323.28461,126.11204 323.28461,126.11204 C 323.28461,126.11204 323.24894,129.6787 320.0033,133.24535 C 319.09379,137.32917 319.07596,139.64749 319.07596,139.64749 L 299.76991,139.49745 z"
       id="path1877"
       style="opacity:0.76106196;fill:#ffffff;fill-rule:evenodd;stroke:#000000;stroke-width:1.68078554px;stroke-linecap:butt;stroke-linejoin:round;stroke-opacity:1" />
    <g
       transform="matrix(1.3013406,-0.2767583,0.2767583,1.3013406,-58.737601,16.683965)"
       id="g3282"
       style="opacity:0.76106196">
      <rect
         width="66.569344"
         height="66.569344"
         ry="14.014599"
         x="108.61315"
         y="45.547443"
         id="rect3243"
         style="fill:#ffffff;fill-opacity:0.78431373;fill-rule:nonzero;stroke:#584131;stroke-width:4;stroke-linecap:round;stroke-linejoin:miter;marker:none;marker-start:none;marker-mid:none;marker-end:none;stroke-miterlimit:4;stroke-dasharray:none;stroke-dashoffset:0;stroke-opacity:1;visibility:visible;display:inline;overflow:visible;enable-background:accumulate" />
      <path
         d="M 151.76072,55.012093 L 151.76072,101.60584 L 138.88572,101.60584 L 138.88572,71.074593 C 136.80237,72.657955 134.78154,73.939204 132.82322,74.918343 C 130.88571,75.897535 128.44821,76.835034 125.51072,77.730843 L 125.51072,67.293343 C 129.84404,65.897545 133.20862,64.220463 135.60447,62.262093 C 138.00029,60.303801 139.87528,57.887136 141.22947,55.012093 L 151.76072,55.012093"
         id="text3249"
         style="font-size:64px;font-style:normal;font-variant:normal;font-weight:normal;font-stretch:normal;text-align:start;line-height:80.00000119%;writing-mode:lr-tb;text-anchor:start;fill:#584131;fill-opacity:1;stroke:none;stroke-width:1px;stroke-linecap:butt;stroke-linejoin:miter;stroke-opacity:1;font-family:Arial Black;-inkscape-font-specification:Arial Black" />
    </g>
    <path
       d="M 207.18043,71.332556 L 219.14918,71.332556 L 219.14918,59.301306 L 229.24293,59.301306 L 229.24293,71.332556 L 241.27418,71.332556 L 241.27418,81.457556 L 229.24293,81.457556 L 229.24293,93.426306 L 219.14918,93.426306 L 219.14918,81.457556 L 207.18043,81.457556 L 207.18043,71.332556"
       id="text3254"
       style="font-size:64px;font-style:normal;font-variant:normal;font-weight:normal;font-stretch:normal;text-align:start;line-height:80.00000119%;writing-mode:lr-tb;text-anchor:start;opacity:0.76106196;fill:#584131;fill-opacity:1;stroke:none;stroke-width:1px;stroke-linecap:butt;stroke-linejoin:miter;stroke-opacity:1;font-family:Arial Black;-inkscape-font-specification:Arial Black" />
    <path
       d="M 406.95432,36.410523 C 404.42746,36.410523 401.90312,37.85962 399.96691,40.742126 L 399.5481,41.365614 L 399.5481,58.33106 L 389.76131,58.33106 C 386.05147,58.33106 383.06044,62.783904 383.06044,68.306873 L 383.06044,99.87507 C 383.06044,105.39804 386.05146,109.85088 389.76131,109.85088 L 399.5481,109.85088 L 399.5481,126.81632 L 399.96691,127.43981 C 403.83933,133.20482 410.06932,133.20482 413.94174,127.43981 L 436.07224,94.493383 C 439.94466,88.728372 439.94466,79.453574 436.07224,73.688562 L 413.94174,40.742126 C 412.00553,37.85962 409.48119,36.410523 406.95432,36.410523 z"
       id="rect3265"
       style="opacity:0.76106196;fill:#ffffff;fill-opacity:0.78431373;fill-rule:nonzero;stroke:#584131;stroke-width:4;stroke-linecap:round;stroke-linejoin:miter;marker:none;marker-start:none;marker-mid:none;marker-end:none;stroke-miterlimit:4;stroke-dasharray:none;stroke-dashoffset:0;stroke-opacity:1;visibility:visible;display:inline;overflow:visible;enable-background:accumulate" />
    <g
       transform="matrix(1.3195674,0.1739915,-0.1739915,1.3195674,-168.38471,-118.51206)"
       id="g3388"
       style="opacity:0.76106196">
      <rect
         width="66.569344"
         height="66.569344"
         ry="14.014599"
         x="496.35037"
         y="45.547443"
         id="rect3275"
         style="fill:#ffffff;fill-opacity:0.78431373;fill-rule:nonzero;stroke:#584131;stroke-width:4;stroke-linecap:round;stroke-linejoin:miter;marker:none;marker-start:none;marker-mid:none;marker-end:none;stroke-miterlimit:4;stroke-dasharray:none;stroke-dashoffset:0;stroke-opacity:1;visibility:visible;display:inline;overflow:visible;enable-background:accumulate" />
      <path
         d="M 539.49794,55.012093 L 539.49794,101.60584 L 526.62294,101.60584 L 526.62294,71.074593 C 524.53959,72.657955 522.51876,73.939204 520.56044,74.918343 C 518.62293,75.897535 516.18543,76.835034 513.24794,77.730843 L 513.24794,67.293343 C 517.58126,65.897545 520.94584,64.220463 523.34169,62.262093 C 525.73751,60.303801 527.6125,57.887136 528.96669,55.012093 L 539.49794,55.012093"
         id="path3277"
         style="font-size:64px;font-style:normal;font-variant:normal;font-weight:normal;font-stretch:normal;text-align:start;line-height:80.00000119%;writing-mode:lr-tb;text-anchor:start;fill:#584131;fill-opacity:1;stroke:none;stroke-width:1px;stroke-linecap:butt;stroke-linejoin:miter;stroke-opacity:1;font-family:Arial Black;-inkscape-font-specification:Arial Black" />
    </g>
  </g>
  <path
     d="M 57.21875,14 C 56.987902,14.055722 53.247758,37.225481 53.09375,37.40625 C 52.939742,37.587019 30.67459,44.950729 30.65625,45.1875 C 30.637909,45.424269 51.500669,56.141419 51.625,56.34375 C 51.749331,56.546081 51.874238,80.003144 52.09375,80.09375 C 52.313263,80.184359 68.956648,63.64947 69.1875,63.59375 C 69.298517,63.566953 74.582987,65.226075 80,66.90625 L 80,31.75 C 75.57802,32.399947 71.64928,32.973321 71.5625,32.9375 C 71.342987,32.846891 57.449598,13.944278 57.21875,14 z M 3,64.09375 C 2.9611586,64.084522 2.5724703,64.574631 2,65.3125 L 2,139 C 6.0172482,142.89043 9.5790328,146.32648 9.6875,146.28125 C 9.9602356,146.16752 10.00245,117.00231 10.15625,116.75 C 10.310051,116.49768 36.242629,103.07578 36.21875,102.78125 C 36.194869,102.48672 8.4424407,93.411746 8.25,93.1875 C 8.0575593,92.963257 3.2874947,64.162053 3,64.09375 z M 67.75,94.59375 C 67.638556,94.625591 66.258943,106.00248 66.1875,106.09375 C 66.116056,106.18502 55.410406,110.22792 55.40625,110.34375 C 55.402095,110.45958 65.810277,115.2476 65.875,115.34375 C 65.939721,115.4399 66.453624,126.89776 66.5625,126.9375 C 66.671376,126.97725 74.451053,118.56309 74.5625,118.53125 C 74.616332,118.51587 77.307713,119.22109 80,119.9375 L 80,102.625 C 77.644436,103.0703 75.171406,103.54819 75.125,103.53125 C 75.016124,103.4915 67.861442,94.561908 67.75,94.59375 z M 54.875,147.15625 C 54.699874,147.14033 46.588539,162.47245 46.4375,162.5625 C 46.286462,162.65256 28.913009,162.52586 28.84375,162.6875 C 28.774492,162.84914 40.836024,175.32853 40.875,175.5 C 40.913976,175.67147 35.430177,192.13418 35.5625,192.25 C 35.694822,192.36582 51.293625,184.76533 51.46875,184.78125 C 51.643876,184.79717 65.630212,195.09006 65.78125,195 C 65.932288,194.90994 63.493243,177.72413 63.5625,177.5625 C 63.631758,177.40086 77.757726,167.29648 77.71875,167.125 C 77.679774,166.95353 60.569822,163.95957 60.4375,163.84375 C 60.305178,163.72793 55.050128,147.17218 54.875,147.15625 z M 37.375,228.90625 C 37.028451,228.69263 17.943467,242.16287 2,253.40625 L 2,386.9375 C 8.0262911,369.30295 14.616653,349.80852 14.90625,349.5625 C 15.37341,349.16563 68.928614,340.57994 80,338.34375 L 80,336 C 70.07063,328.135 28.009863,297.05607 27.78125,296.5 C 27.521682,295.86864 37.956101,229.26447 37.375,228.90625 z M 59.5625,231.25 C 59.387374,231.34552 61.398031,250.94478 61.3125,251.125 C 61.226967,251.30522 44.77577,262.11642 44.8125,262.3125 C 44.849231,262.50857 64.105033,266.67546 64.25,266.8125 C 64.394965,266.94954 69.614675,285.9431 69.8125,285.96875 C 70.007496,285.99404 79.556741,269.56568 80,269 L 80,241.5 C 77.460242,242.59997 75.375714,243.47695 75.3125,243.46875 C 75.114673,243.44309 59.737628,231.15448 59.5625,231.25 z M 53.71875,364.375 C 53.424219,364.40684 45.063315,392.45737 44.84375,392.65625 C 44.624186,392.85513 15.904482,398.39754 15.84375,398.6875 C 15.806298,398.8663 24.670782,405.07182 31.71875,410 L 70,410 C 75.54,410 80,405.54 80,400 L 80,389.96875 C 73.998249,390.07679 68.545043,390.15541 68.4375,390.09375 C 68.180504,389.94639 54.013279,364.34315 53.71875,364.375 z"
     id="path3562"
     style="opacity:0.76106196;fill:#eedd99;fill-opacity:0.60909095;fill-rule:nonzero;stroke:none;stroke-width:4;stroke-linecap:round;stroke-linejoin:miter;marker:none;marker-start:none;marker-mid:none;marker-end:none;stroke-miterlimit:4;stroke-dasharray:none;stroke-dashoffset:0;stroke-opacity:1;visibility:visible;display:inline;overflow:visible;enable-background:accumulate" />
</svg>
