<?xml version="1.0" encoding="UTF-8" standalone="no"?>
<!-- Created with Inkscape (http://www.inkscape.org/) -->
<svg
   xmlns:svg="http://www.w3.org/2000/svg"
   xmlns="http://www.w3.org/2000/svg"
   xmlns:xlink="http://www.w3.org/1999/xlink"
   version="1.0"
   width="100%"
   height="100%"
   viewBox="0 0 640 480"
   id="equation"
   style="display:inline">
  <defs
     id="defs4">
    <linearGradient
       id="lg3412">
      <stop
         id="s3414"
         style="stop-color:#d39162;stop-opacity:1"
         offset="0" />
      <stop
         id="s3416"
         style="stop-color:#e5ad62;stop-opacity:0.77999997"
         offset="1" />
    </linearGradient>
    <linearGradient
       x1="41"
       y1="2"
       x2="41"
       y2="410"
       id="lg3418"
       xlink:href="#lg3412"
       gradientUnits="userSpaceOnUse" />
    <linearGradient
       x1="41"
       y1="2"
       x2="41"
       y2="410"
       id="linearGradient2626"
       xlink:href="#lg3412"
       gradientUnits="userSpaceOnUse" />
    <linearGradient
       id="linearGradient2620">
      <stop
         id="stop2622"
         style="stop-color:#d39162;stop-opacity:1"
         offset="0" />
      <stop
         id="stop2624"
         style="stop-color:#e5ad62;stop-opacity:0.77999997"
         offset="1" />
    </linearGradient>
  </defs>
  <g
     transform="matrix(1.4961771,0.1603725,-0.1603725,1.4961771,950.42704,-469.78466)"
     id="g2471">
    <rect
       width="66.559998"
       height="66.559998"
       ry="14.01"
       x="-273.28561"
       y="366.70111"
       id="rect2473"
       style="opacity:1;fill:#ffffff;fill-opacity:0.77999998;fill-rule:nonzero;stroke:#584131;stroke-width:4;stroke-linecap:round;stroke-linejoin:miter;marker:none;stroke-miterlimit:4;stroke-dasharray:none;stroke-dashoffset:0;stroke-opacity:1;visibility:visible;overflow:visible;enable-background:accumulate" />
    <path
       d="M -258.58374,377.07486 L -221.42749,377.07486 L -221.42749,385.66861 C -224.6567,388.58531 -227.35461,391.74156 -229.52124,395.13736 C -232.14627,399.26239 -234.21919,403.85613 -235.73999,408.91861 C -236.94835,412.85612 -237.76085,417.51237 -238.17749,422.88736 L -250.86499,422.88736 C -249.86501,415.4082 -248.29209,409.13738 -246.14624,404.07486 C -244.00043,399.01239 -240.6046,393.59573 -235.95874,387.82486 L -258.58374,387.82486 L -258.58374,377.07486"
       id="path2475"
       style="font-size:64px;font-style:normal;font-variant:normal;font-weight:normal;font-stretch:normal;text-align:start;line-height:80.00000119%;writing-mode:lr-tb;text-anchor:start;fill:#584131;fill-opacity:1;stroke:none;stroke-width:1px;stroke-linecap:butt;stroke-linejoin:miter;stroke-opacity:1;font-family:Arial Black;-inkscape-font-specification:Arial Black" />
  </g>
  <g
     id="source">
    <rect
       width="78"
       height="408"
       ry="10"
       x="2"
       y="2"
       id="rect6"
       style="fill:url(#lg3418);fill-opacity:1" />
    <path
       d="M 57.21,14 C 56.98,14.05 53.24,37.22 53.09,37.4 C 52.93,37.58 30.67,44.95 30.65,45.18 C 30.63,45.42 51.5,56.14 51.62,56.34 C 51.74,56.54 51.87,80 52.09,80.09 C 52.31,80.18 68.95,63.64 69.18,63.59 C 69.29,63.56 74.58,65.22 80,66.9 L 80,31.75 C 75.57,32.39 71.64,32.97 71.56,32.93 C 71.34,32.84 57.44,13.94 57.21,14 z M 3,64.09 C 2.96,64.08 2.57,64.57 2,65.31 L 2,139 C 6.01,142.89 9.57,146.32 9.68,146.28 C 9.96,146.16 10,117 10.15,116.75 C 10.31,116.49 36.24,103.07 36.21,102.78 C 36.19,102.48 8.44,93.41 8.25,93.18 C 8.05,92.96 3.28,64.16 3,64.09 z M 67.75,94.59 C 67.63,94.62 66.25,106 66.18,106.09 C 66.11,106.18 55.41,110.22 55.4,110.34 C 55.4,110.45 65.81,115.24 65.87,115.34 C 65.93,115.43 66.45,126.89 66.56,126.93 C 66.67,126.97 74.45,118.56 74.56,118.53 C 74.61,118.51 77.3,119.22 80,119.93 L 80,102.62 C 77.64,103.07 75.17,103.54 75.12,103.53 C 75.01,103.49 67.86,94.56 67.75,94.59 z M 54.87,147.15 C 54.69,147.14 46.58,162.47 46.43,162.56 C 46.28,162.65 28.91,162.52 28.84,162.68 C 28.77,162.84 40.83,175.32 40.87,175.5 C 40.91,175.67 35.43,192.13 35.56,192.25 C 35.69,192.36 51.29,184.76 51.46,184.78 C 51.64,184.79 65.63,195.09 65.78,195 C 65.93,194.9 63.49,177.72 63.56,177.56 C 63.63,177.4 77.75,167.29 77.71,167.12 C 77.67,166.95 60.56,163.95 60.43,163.84 C 60.3,163.72 55.05,147.17 54.87,147.15 z M 37.37,228.9 C 37.02,228.69 17.94,242.16 2,253.4 L 2,386.93 C 8.02,369.3 14.61,349.8 14.9,349.56 C 15.37,349.16 68.92,340.57 80,338.34 L 80,336 C 70.07,328.13 28,297.05 27.78,296.5 C 27.52,295.86 37.95,229.26 37.37,228.9 z M 59.56,231.25 C 59.38,231.34 61.39,250.94 61.31,251.12 C 61.22,251.3 44.77,262.11 44.81,262.31 C 44.84,262.5 64.1,266.67 64.25,266.81 C 64.39,266.94 69.61,285.94 69.81,285.96 C 70,285.99 79.55,269.56 80,269 L 80,241.5 C 77.46,242.59 75.37,243.47 75.31,243.46 C 75.11,243.44 59.73,231.15 59.56,231.25 z M 53.71,364.37 C 53.42,364.4 45.06,392.45 44.84,392.65 C 44.62,392.85 15.9,398.39 15.84,398.68 C 15.8,398.86 24.67,405.07 31.71,410 L 70,410 C 75.54,410 80,405.54 80,400 L 80,389.96 C 73.99,390.07 68.54,390.15 68.43,390.09 C 68.18,389.94 54.01,364.34 53.71,364.37 z"
       id="p3562"
       style="opacity:0.76000001;fill:#eedd99;fill-opacity:0.6;fill-rule:nonzero;stroke:none;marker:none;visibility:visible;display:inline;overflow:visible;enable-background:accumulate" />
  </g>
  <path
     d="M 375.37486,29.4027 C 372.85486,29.4027 370.33486,30.8527 368.39486,33.7327 L 367.97486,34.3527 L 367.97486,51.3227 L 358.19486,51.3227 C 354.48486,51.3227 351.49486,55.7727 351.49486,61.2927 L 351.49486,92.8627 C 351.49486,98.3827 354.48486,102.8427 358.19486,102.8427 L 367.97486,102.8427 L 367.97486,119.8027 L 368.39486,120.4327 C 372.27486,126.1927 378.49486,126.1927 382.36486,120.4327 L 404.49486,87.4827 C 408.36486,81.7127 408.36486,72.4427 404.49486,66.6727 L 382.36486,33.7327 C 380.42486,30.8527 377.90486,29.4027 375.37486,29.4027 z"
     id="path3323"
     style="opacity:1;fill:#ffffff;fill-opacity:0.77999998;fill-rule:nonzero;stroke:#584131;stroke-width:4;stroke-linecap:round;stroke-linejoin:miter;marker:none;stroke-miterlimit:4;stroke-dasharray:none;stroke-dashoffset:0;stroke-opacity:1;visibility:visible;overflow:visible;enable-background:accumulate" />
  <path
     d="M 454.46313,35.88538 L 466.33903,37.158337 C 461.28676,45.760104 457.44575,53.798021 454.816,61.272105 C 452.59034,67.623028 451.08159,74.492154 450.28979,81.879503 C 448.76287,96.124362 450.90185,111.17199 456.70666,127.02248 L 444.83076,125.74952 C 439.70249,116.52948 436.278,108.32759 434.55728,101.14384 C 432.87104,93.932251 432.43554,86.523673 433.25079,78.918098 C 434.09606,71.032015 436.17759,63.672541 439.49535,56.83964 C 442.84423,50.010152 447.83349,43.025415 454.46313,35.88538"
     id="path2467"
     style="font-size:64px;font-style:normal;font-variant:normal;font-weight:normal;font-stretch:normal;text-align:start;line-height:80.00000119%;writing-mode:lr-tb;text-anchor:start;fill:#584131;fill-opacity:1;stroke:none;stroke-width:1px;stroke-linecap:butt;stroke-linejoin:miter;stroke-opacity:1;font-family:Arial Black;-inkscape-font-specification:Arial Black" />
  <path
     d="M 608.84716,52.352049 L 596.97125,51.079092 C 600.08564,60.556228 602.13583,69.225612 603.12181,77.087259 C 603.95084,83.76561 603.96946,90.798452 603.17764,98.185799 C 601.65074,112.43066 596.37115,126.68311 587.33888,140.94322 L 599.21478,142.21618 C 606.18062,134.29248 611.25004,127.00104 614.42308,120.34185 C 617.63057,113.65481 619.64194,106.50851 620.4572,98.902937 C 621.30246,91.016869 620.81241,83.381737 618.98709,75.997559 C 617.19286,68.616791 613.81288,60.734968 608.84716,52.352049"
     id="path2469"
     style="font-size:64px;font-style:normal;font-variant:normal;font-weight:normal;font-stretch:normal;text-align:start;line-height:80.00000119%;writing-mode:lr-tb;text-anchor:start;fill:#584131;fill-opacity:1;stroke:none;stroke-width:1px;stroke-linecap:butt;stroke-linejoin:miter;stroke-opacity:1;font-family:Arial Black;-inkscape-font-specification:Arial Black" />
  <g
     transform="matrix(1.2643781,0,0,1.2643781,580.18241,-424.73853)"
     id="g2477">
    <rect
       width="66.559998"
       height="66.559998"
       ry="14.01"
       x="-273.28561"
       y="366.70111"
       id="rect2479"
       style="opacity:1;fill:#ffffff;fill-opacity:0.77999998;fill-rule:nonzero;stroke:#584131;stroke-width:4;stroke-linecap:round;stroke-linejoin:miter;marker:none;stroke-miterlimit:4;stroke-dasharray:none;stroke-dashoffset:0;stroke-opacity:1;visibility:visible;overflow:visible;enable-background:accumulate" />
    <path
       d="M -258.58374,377.07486 L -221.42749,377.07486 L -221.42749,385.66861 C -224.6567,388.58531 -227.35461,391.74156 -229.52124,395.13736 C -232.14627,399.26239 -234.21919,403.85613 -235.73999,408.91861 C -236.94835,412.85612 -237.76085,417.51237 -238.17749,422.88736 L -250.86499,422.88736 C -249.86501,415.4082 -248.29209,409.13738 -246.14624,404.07486 C -244.00043,399.01239 -240.6046,393.59573 -235.95874,387.82486 L -258.58374,387.82486 L -258.58374,377.07486"
       id="path2481"
       style="font-size:64px;font-style:normal;font-variant:normal;font-weight:normal;font-stretch:normal;text-align:start;line-height:80.00000119%;writing-mode:lr-tb;text-anchor:start;fill:#584131;fill-opacity:1;stroke:none;stroke-width:1px;stroke-linecap:butt;stroke-linejoin:miter;stroke-opacity:1;font-family:Arial Black;-inkscape-font-specification:Arial Black" />
  </g>
  <g
     transform="translate(304.06866,-425.32304)"
     id="g2483">
    <rect
       width="66.559998"
       height="66.559998"
       ry="14.01"
       x="-205.61922"
       y="444.94928"
       id="rect2485"
       style="fill:#ffffff;fill-opacity:0.77999998;fill-rule:nonzero;stroke:#584131;stroke-width:4;stroke-linecap:round;stroke-linejoin:miter;marker:none;stroke-miterlimit:4;stroke-dasharray:none;stroke-dashoffset:0;stroke-opacity:1;visibility:visible;overflow:visible;enable-background:accumulate" />
    <rect
       width="57.433044"
       height="57.433044"
       ry="28.716522"
       x="-201.05574"
       y="449.51276"
       id="rect2487"
       style="fill:#ffffff;fill-opacity:0.77999998;fill-rule:nonzero;stroke:#584131;stroke-width:3.45150542;stroke-linecap:round;stroke-linejoin:miter;marker:none;stroke-miterlimit:4;stroke-dasharray:none;stroke-dashoffset:0;stroke-opacity:1;visibility:visible;overflow:visible;enable-background:accumulate" />
  </g>
  <path
     d="M 238.7829,100.96452 L 254.17208,70.588955 C 224.13635,56.713964 192.7372,61.564034 152.10518,83.893536 L 142.28873,61.295406 C 187.12112,36.657568 227.58302,30.182223 265.22303,48.800014 L 278.59349,22.397905 L 279.24282,75.268876 L 238.7829,100.96452 z"
     id="path2497"
     style="opacity:0.76000001;fill:#ffff00;fill-opacity:0.79090911;fill-rule:nonzero;stroke:none;stroke-width:1;stroke-linecap:butt;stroke-linejoin:miter;marker:none;marker-start:none;marker-mid:none;marker-end:none;stroke-miterlimit:4;stroke-dasharray:none;stroke-dashoffset:0;stroke-opacity:1;visibility:visible;display:inline;overflow:visible;enable-background:accumulate" />
  <g
     transform="translate(-28.662733,-45.960368)"
     id="g3635">
    <path
       d="M 179.6513,68.171388 C 179.95964,68.171388 192.1006,97.104138 192.35755,97.283998 C 192.61451,97.476718 223.87266,100.07193 223.97544,100.38027 C 224.07822,100.67576 200.3102,121.14195 200.20742,121.4503 C 200.11749,121.74579 207.29929,152.28447 207.04234,152.47719 C 206.78538,152.65705 179.95964,136.39202 179.6513,136.39202 C 179.34296,136.39202 152.51722,152.65705 152.26026,152.47719 C 152.00331,152.28447 159.18511,121.74579 159.09518,121.4503 C 158.9924,121.14195 135.22438,100.67576 135.32716,100.38027 C 135.42994,100.07193 166.68809,97.476718 166.94505,97.283998 C 167.202,97.104138 179.34296,68.171388 179.6513,68.171388 z"
       id="path3327"
       style="opacity:1;fill:#ffff00;fill-opacity:0.35;fill-rule:nonzero;stroke:none;marker:none;visibility:visible;overflow:visible;enable-background:accumulate" />
    <path
       d="M 187.91751,80.197788 C 188.16278,80.253308 192.61099,105.45345 192.783,105.64278 C 192.95269,105.84234 217.34939,113.53453 217.37562,113.7983 C 217.40417,114.05185 194.81334,126.05216 194.67607,126.27892 C 194.55134,126.49777 194.7657,152.08247 194.52661,152.18951 C 194.28983,152.28631 175.88003,134.51865 175.63476,134.46314 C 175.38949,134.40762 151.12284,142.51563 150.95082,142.3263 C 150.78113,142.12674 161.99213,119.12812 161.9738,118.87688 C 161.94756,118.61311 146.72638,98.054208 146.86134,97.837658 C 146.99861,97.610898 172.32981,101.17443 172.5689,101.0674 C 172.80567,100.97059 187.67225,80.142278 187.91751,80.197788 z"
       id="path3333"
       style="opacity:1;fill:#ffff00;fill-opacity:0.35;fill-rule:nonzero;stroke:none;marker:none;visibility:visible;overflow:visible;enable-background:accumulate" />
    <path
       d="M 179.14528,157.49917 C 179.14528,156.92917 179.12528,154.66917 179.12528,154.66917 C 179.12528,154.66917 171.27528,148.10917 170.84528,143.97917 C 170.41528,139.84917 170.56528,131.42917 170.56528,131.42917 C 170.56528,131.42917 170.59528,130.92917 170.08528,129.14917 C 167.57528,126.67916 174.23528,122.18916 176.83528,128.42917 C 177.40528,132.99917 177.42528,133.41917 177.40528,135.41917 C 177.40528,136.13917 177.37528,116.05917 177.40528,113.44917 C 178.99528,112.11917 180.75528,110.37917 184.25528,113.59917 C 184.33528,115.53917 184.25528,134.13917 184.25528,134.13917 L 184.39528,122.43916 C 184.39528,122.43916 190.66528,120.86916 190.80528,123.57916 C 190.95528,126.28916 190.66528,132.56917 190.66528,132.56917 L 190.95528,124.00916 C 190.95528,124.00916 195.83528,122.96916 197.83528,126.24916 C 197.82528,130.53917 197.66528,134.10917 197.66528,134.10917 C 197.66528,134.10917 197.64528,133.73917 197.86528,126.90916 C 198.00528,126.90916 200.36528,126.00916 202.50528,127.99917 C 203.07528,131.13917 202.65528,144.12917 202.65528,144.12917 C 202.65528,144.12917 202.61528,147.67917 199.36528,151.24917 C 198.45528,155.32917 198.44528,157.64917 198.44528,157.64917 L 179.14528,157.49917 z"
       id="path3329"
       style="opacity:0.76000001;fill:#ffffff;fill-rule:evenodd;stroke:#000000;stroke-width:1.67999995px;stroke-linecap:butt;stroke-linejoin:round;stroke-opacity:1" />
  </g>
</svg>
