<?xml version="1.0" encoding="UTF-8" standalone="no"?>
<!-- Created with Inkscape (http://www.inkscape.org/) -->
<svg
   xmlns:svg="http://www.w3.org/2000/svg"
   xmlns="http://www.w3.org/2000/svg"
   xmlns:xlink="http://www.w3.org/1999/xlink"
   version="1.0"
   width="100%"
   height="100%"
   viewBox="0 0 640 480"
   id="equation"
   style="display:inline">
  <defs
     id="defs4">
    <linearGradient
       id="lg3412">
      <stop
         id="s3414"
         style="stop-color:#d39162;stop-opacity:1"
         offset="0" />
      <stop
         id="s3416"
         style="stop-color:#e5ad62;stop-opacity:0.77999997"
         offset="1" />
    </linearGradient>
    <linearGradient
       x1="41"
       y1="2"
       x2="41"
       y2="410"
       id="lg3418"
       xlink:href="#lg3412"
       gradientUnits="userSpaceOnUse" />
    <linearGradient
       x1="41"
       y1="2"
       x2="41"
       y2="410"
       id="linearGradient2626"
       xlink:href="#lg3412"
       gradientUnits="userSpaceOnUse" />
    <linearGradient
       id="linearGradient2620">
      <stop
         id="stop2622"
         style="stop-color:#d39162;stop-opacity:1"
         offset="0" />
      <stop
         id="stop2624"
         style="stop-color:#e5ad62;stop-opacity:0.77999997"
         offset="1" />
    </linearGradient>
  </defs>
  <g
     transform="matrix(0.9320558,0,0,0.9320558,-157.09989,-300.92787)"
     id="g2527">
    <path
       d="M 440.83265,415.78239 C 440.83265,455.39021 408.72416,487.4987 369.11634,487.4987 C 329.50852,487.4987 297.40003,455.39021 297.40003,415.78239 C 297.40003,376.17456 329.50852,344.06608 369.11634,344.06608 C 408.72416,344.06608 440.83265,376.17456 440.83265,415.78239 L 440.83265,415.78239 z"
       id="path2529"
       style="fill:none;fill-opacity:0.77999998;fill-rule:nonzero;stroke:#584131;stroke-width:2;stroke-linecap:round;stroke-linejoin:round;marker:none;marker-start:none;marker-mid:none;marker-end:none;stroke-miterlimit:4;stroke-dasharray:none;stroke-dashoffset:0;stroke-opacity:1;visibility:visible;display:inline;overflow:visible;enable-background:accumulate" />
    <path
       d="M 424.82698,415.78239 C 424.82698,446.55054 399.88447,471.49305 369.11633,471.49305 C 338.34819,471.49305 313.40567,446.55054 313.40567,415.78239 C 313.40567,385.01425 338.34819,360.07174 369.11633,360.07174 C 399.88447,360.07174 424.82698,385.01425 424.82698,415.78239 L 424.82698,415.78239 z"
       id="path2531"
       style="fill:none;fill-opacity:0.77999998;fill-rule:nonzero;stroke:#584131;stroke-width:2;stroke-linecap:round;stroke-linejoin:round;marker:none;marker-start:none;marker-mid:none;marker-end:none;stroke-miterlimit:4;stroke-dasharray:none;stroke-dashoffset:0;stroke-opacity:1;visibility:visible;display:inline;overflow:visible;enable-background:accumulate" />
    <path
       d="M 310.10926,358.5909 L 424.49224,472.97388"
       id="path2534"
       style="fill:none;fill-opacity:0.77999998;fill-rule:nonzero;stroke:#584131;stroke-width:1;stroke-linecap:round;stroke-linejoin:round;marker:none;marker-start:none;marker-mid:none;marker-end:none;stroke-miterlimit:4;stroke-dasharray:none;stroke-dashoffset:0;stroke-opacity:1;visibility:visible;display:inline;overflow:visible;enable-background:accumulate" />
    <path
       d="M 424.49224,358.5909 L 310.10926,472.97388"
       id="path2536"
       style="fill:none;fill-opacity:0.77999998;fill-rule:nonzero;stroke:#584131;stroke-width:1;stroke-linecap:round;stroke-linejoin:round;marker:none;marker-start:none;marker-mid:none;marker-end:none;stroke-miterlimit:4;stroke-dasharray:none;stroke-dashoffset:0;stroke-opacity:1;visibility:visible;display:inline;overflow:visible;enable-background:accumulate" />
    <path
       d="M 369.79483,448.9951 L 325.07573,481.28909 L 414.48874,481.28909 L 369.79483,448.9951 z"
       id="path2538"
       style="fill:#ff0000;fill-opacity:0.77999998;fill-rule:nonzero;stroke:#584131;stroke-width:3;stroke-linecap:round;stroke-linejoin:round;marker:none;marker-start:none;marker-mid:none;marker-end:none;stroke-miterlimit:4;stroke-dasharray:none;stroke-dashoffset:0;stroke-opacity:1;visibility:visible;display:inline;overflow:visible;enable-background:accumulate" />
    <path
       d="M 369.79483,386.87774 L 325.07573,354.58375 L 414.48874,354.58375 L 369.79483,386.87774 z"
       id="path2540"
       style="fill:none;fill-opacity:0.77999998;fill-rule:nonzero;stroke:#584131;stroke-width:3;stroke-linecap:round;stroke-linejoin:round;marker:none;marker-start:none;marker-mid:none;marker-end:none;stroke-miterlimit:4;stroke-dasharray:none;stroke-dashoffset:0;stroke-opacity:1;visibility:visible;display:inline;overflow:visible;enable-background:accumulate" />
    <path
       d="M 338.72356,417.94902 L 306.42957,373.22992 L 306.42957,462.64293 L 338.72356,417.94902 z"
       id="path2542"
       style="fill:none;fill-opacity:0.77999998;fill-rule:nonzero;stroke:#584131;stroke-width:3;stroke-linecap:round;stroke-linejoin:round;marker:none;marker-start:none;marker-mid:none;marker-end:none;stroke-miterlimit:4;stroke-dasharray:none;stroke-dashoffset:0;stroke-opacity:1;visibility:visible;display:inline;overflow:visible;enable-background:accumulate" />
    <path
       d="M 400.84091,417.94902 L 433.1349,373.22992 L 433.1349,462.64293 L 400.84091,417.94902 z"
       id="path2544"
       style="fill:none;fill-opacity:0.77999998;fill-rule:nonzero;stroke:#584131;stroke-width:3;stroke-linecap:round;stroke-linejoin:round;marker:none;marker-start:none;marker-mid:none;marker-end:none;stroke-miterlimit:4;stroke-dasharray:none;stroke-dashoffset:0;stroke-opacity:1;visibility:visible;display:inline;overflow:visible;enable-background:accumulate" />
  </g>
  <g
     id="source">
    <rect
       width="78"
       height="408"
       ry="10"
       x="2"
       y="2"
       id="rect6"
       style="fill:url(#lg3418);fill-opacity:1" />
    <path
       d="M 57.21,14 C 56.98,14.05 53.24,37.22 53.09,37.4 C 52.93,37.58 30.67,44.95 30.65,45.18 C 30.63,45.42 51.5,56.14 51.62,56.34 C 51.74,56.54 51.87,80 52.09,80.09 C 52.31,80.18 68.95,63.64 69.18,63.59 C 69.29,63.56 74.58,65.22 80,66.9 L 80,31.75 C 75.57,32.39 71.64,32.97 71.56,32.93 C 71.34,32.84 57.44,13.94 57.21,14 z M 3,64.09 C 2.96,64.08 2.57,64.57 2,65.31 L 2,139 C 6.01,142.89 9.57,146.32 9.68,146.28 C 9.96,146.16 10,117 10.15,116.75 C 10.31,116.49 36.24,103.07 36.21,102.78 C 36.19,102.48 8.44,93.41 8.25,93.18 C 8.05,92.96 3.28,64.16 3,64.09 z M 67.75,94.59 C 67.63,94.62 66.25,106 66.18,106.09 C 66.11,106.18 55.41,110.22 55.4,110.34 C 55.4,110.45 65.81,115.24 65.87,115.34 C 65.93,115.43 66.45,126.89 66.56,126.93 C 66.67,126.97 74.45,118.56 74.56,118.53 C 74.61,118.51 77.3,119.22 80,119.93 L 80,102.62 C 77.64,103.07 75.17,103.54 75.12,103.53 C 75.01,103.49 67.86,94.56 67.75,94.59 z M 54.87,147.15 C 54.69,147.14 46.58,162.47 46.43,162.56 C 46.28,162.65 28.91,162.52 28.84,162.68 C 28.77,162.84 40.83,175.32 40.87,175.5 C 40.91,175.67 35.43,192.13 35.56,192.25 C 35.69,192.36 51.29,184.76 51.46,184.78 C 51.64,184.79 65.63,195.09 65.78,195 C 65.93,194.9 63.49,177.72 63.56,177.56 C 63.63,177.4 77.75,167.29 77.71,167.12 C 77.67,166.95 60.56,163.95 60.43,163.84 C 60.3,163.72 55.05,147.17 54.87,147.15 z M 37.37,228.9 C 37.02,228.69 17.94,242.16 2,253.4 L 2,386.93 C 8.02,369.3 14.61,349.8 14.9,349.56 C 15.37,349.16 68.92,340.57 80,338.34 L 80,336 C 70.07,328.13 28,297.05 27.78,296.5 C 27.52,295.86 37.95,229.26 37.37,228.9 z M 59.56,231.25 C 59.38,231.34 61.39,250.94 61.31,251.12 C 61.22,251.3 44.77,262.11 44.81,262.31 C 44.84,262.5 64.1,266.67 64.25,266.81 C 64.39,266.94 69.61,285.94 69.81,285.96 C 70,285.99 79.55,269.56 80,269 L 80,241.5 C 77.46,242.59 75.37,243.47 75.31,243.46 C 75.11,243.44 59.73,231.15 59.56,231.25 z M 53.71,364.37 C 53.42,364.4 45.06,392.45 44.84,392.65 C 44.62,392.85 15.9,398.39 15.84,398.68 C 15.8,398.86 24.67,405.07 31.71,410 L 70,410 C 75.54,410 80,405.54 80,400 L 80,389.96 C 73.99,390.07 68.54,390.15 68.43,390.09 C 68.18,389.94 54.01,364.34 53.71,364.37 z"
       id="p3562"
       style="opacity:0.76000001;fill:#eedd99;fill-opacity:0.6;fill-rule:nonzero;stroke:none;marker:none;visibility:visible;display:inline;overflow:visible;enable-background:accumulate" />
  </g>
  <path
     d="M 229.8781,79.794426 L 243.94632,79.794426 L 248.86874,88.415946 L 254.57758,79.794426 L 267.65548,79.794426 L 257.1116,94.532563 L 268.41278,110.72703 L 254.57758,110.72703 L 248.86874,100.76569 L 242.14046,110.72703 L 229.29556,110.72703 L 240.53849,94.532563 L 229.8781,79.794426"
     id="path2459"
     style="font-size:64px;font-style:normal;font-variant:normal;font-weight:normal;font-stretch:normal;text-align:start;line-height:80.00000119%;writing-mode:lr-tb;text-anchor:start;fill:#584131;fill-opacity:1;stroke:none;stroke-width:1px;stroke-linecap:butt;stroke-linejoin:miter;stroke-opacity:1;font-family:Arial Black;-inkscape-font-specification:Arial Black" />
  <path
     d="M 365.32696,89.01946 L 376.48367,89.01946 L 376.48367,77.806829 L 385.88811,77.806829 L 385.88811,89.01946 L 397.10074,89.01946 L 397.10074,98.451865 L 385.88811,98.451865 L 385.88811,109.60857 L 376.48367,109.60857 L 376.48367,98.451865 L 365.32696,98.451865 L 365.32696,89.01946"
     id="path2461"
     style="font-size:64px;font-style:normal;font-variant:normal;font-weight:normal;font-stretch:normal;text-align:start;line-height:80.00000119%;writing-mode:lr-tb;text-anchor:start;opacity:1;fill:#584131;fill-opacity:1;stroke:none;font-family:Arial Black;-inkscape-font-specification:Arial Black" />
  <g
     transform="matrix(1.0636186,0.1496881,-0.1496881,1.0636186,-215.96135,153.17689)"
     id="g2482">
    <rect
       width="66.559998"
       height="66.559998"
       ry="14.01"
       x="445.07953"
       y="-157.01489"
       id="rect2471"
       style="fill:#ffffff;fill-opacity:0.77999998;fill-rule:nonzero;stroke:#584131;stroke-width:4;stroke-linecap:round;stroke-linejoin:miter;marker:none;stroke-miterlimit:4;stroke-dasharray:none;stroke-dashoffset:0;stroke-opacity:1;visibility:visible;overflow:visible;enable-background:accumulate" />
    <path
       d="M 473.28915,-130.18197 L 461.1329,-131.46322 C 461.59123,-133.58819 462.24748,-135.25486 463.10165,-136.46322 C 463.97665,-137.69236 465.22665,-138.75485 466.85165,-139.65072 C 468.01831,-140.29652 469.62248,-140.79652 471.66415,-141.15072 C 473.7058,-141.50485 475.91414,-141.68193 478.28915,-141.68197 C 482.10163,-141.68193 485.16413,-141.46318 487.47665,-141.02572 C 489.78912,-140.60902 491.7162,-139.7236 493.2579,-138.36947 C 494.3412,-137.43194 495.19537,-136.09861 495.8204,-134.36947 C 496.44537,-132.66111 496.75787,-131.0257 496.7579,-129.46322 L 496.7579,-114.80697 C 496.75787,-113.24446 496.85162,-112.0153 497.03915,-111.11947 C 497.24745,-110.24447 497.68495,-109.11947 498.35165,-107.74447 L 486.41415,-107.74447 C 485.93496,-108.59863 485.62246,-109.24447 485.47665,-109.68197 C 485.33079,-110.1403 485.18496,-110.84863 485.03915,-111.80697 C 483.37246,-110.2028 481.71621,-109.05697 480.0704,-108.36947 C 477.82038,-107.4528 475.2058,-106.99447 472.22665,-106.99447 C 468.26831,-106.99447 465.2579,-107.91114 463.1954,-109.74447 C 461.15373,-111.5778 460.1329,-113.83821 460.1329,-116.52572 C 460.1329,-119.04654 460.87248,-121.11946 462.35165,-122.74447 C 463.83081,-124.36945 466.55998,-125.57778 470.53915,-126.36947 C 475.30997,-127.32778 478.40372,-127.99445 479.8204,-128.36947 C 481.23705,-128.76528 482.73705,-129.2757 484.3204,-129.90072 C 484.32038,-131.46319 483.99746,-132.55694 483.35165,-133.18197 C 482.7058,-133.80694 481.57038,-134.11944 479.9454,-134.11947 C 477.86205,-134.11944 476.29955,-133.78611 475.2579,-133.11947 C 474.44539,-132.59861 473.78914,-131.61944 473.28915,-130.18197 M 484.3204,-123.49447 C 482.57038,-122.86945 480.74746,-122.31737 478.85165,-121.83822 C 476.2683,-121.15071 474.63289,-120.47362 473.9454,-119.80697 C 473.23706,-119.11946 472.88289,-118.33821 472.8829,-117.46322 C 472.88289,-116.46321 473.22664,-115.64029 473.91415,-114.99447 C 474.62247,-114.36946 475.65372,-114.05696 477.0079,-114.05697 C 478.42455,-114.05696 479.73705,-114.40071 480.9454,-115.08822 C 482.17455,-115.77571 483.03913,-116.60904 483.53915,-117.58822 C 484.05996,-118.58821 484.32038,-119.87987 484.3204,-121.46322 L 484.3204,-123.49447"
       id="text2477"
       style="font-size:64px;font-style:normal;font-variant:normal;font-weight:normal;font-stretch:normal;text-align:start;line-height:80.00000119%;writing-mode:lr-tb;text-anchor:start;fill:#584131;fill-opacity:1;stroke:none;stroke-width:1px;stroke-linecap:butt;stroke-linejoin:miter;stroke-opacity:1;font-family:Arial Black;-inkscape-font-specification:Arial Black" />
  </g>
  <path
     d="M 107.55686,41.843325 L 120.57569,41.843325 C 116.09936,51.752726 112.87028,60.910323 110.88845,69.316133 C 109.21408,76.457735 108.37691,84.077675 108.37694,92.17597 C 108.37691,107.79174 112.44316,123.8517 120.57569,140.35591 L 107.55686,140.35591 C 100.92782,130.95909 96.263596,122.46781 93.564166,114.88205 C 90.898886,107.2621 89.566246,99.283377 89.566266,90.945844 C 89.566246,82.300816 90.967236,74.082904 93.769196,66.292075 C 96.605306,58.501327 101.2012,50.35176 107.55686,41.843325"
     id="path2486"
     style="font-size:64px;font-style:normal;font-variant:normal;font-weight:normal;font-stretch:normal;text-align:start;line-height:80.00000119%;writing-mode:lr-tb;text-anchor:start;fill:#584131;fill-opacity:1;stroke:none;stroke-width:1px;stroke-linecap:butt;stroke-linejoin:miter;stroke-opacity:1;font-family:Arial Black;-inkscape-font-specification:Arial Black" />
  <path
     d="M 614.19945,40.80404 L 601.18061,40.80404 C 605.65689,50.713441 608.88597,59.871038 610.86785,68.276847 C 612.54217,75.418449 613.37935,83.03839 613.37936,91.136684 C 613.37935,106.75245 609.31309,122.81241 601.18061,139.31662 L 614.19945,139.31662 C 620.82843,129.9198 625.47557,121.42852 628.14087,113.84276 C 630.84028,106.22281 632.19001,98.244085 632.19003,89.906559 C 632.19001,81.261547 630.77193,73.043618 627.93585,65.252789 C 625.13387,57.462042 620.55506,49.312475 614.19945,40.80404"
     id="path2488"
     style="font-size:64px;font-style:normal;font-variant:normal;font-weight:normal;font-stretch:normal;text-align:start;line-height:80.00000119%;writing-mode:lr-tb;text-anchor:start;fill:#584131;fill-opacity:1;stroke:none;stroke-width:1px;stroke-linecap:butt;stroke-linejoin:miter;stroke-opacity:1;font-family:Arial Black;-inkscape-font-specification:Arial Black" />
  <g
     transform="matrix(0.9320558,0,0,0.9320558,261.5215,-135.33462)"
     id="g2513">
    <rect
       width="66.559998"
       height="66.559998"
       ry="14.01"
       x="-112.11773"
       y="207.86899"
       id="rect2515"
       style="opacity:1;fill:#ffffff;fill-opacity:0.77999998;fill-rule:nonzero;stroke:#584131;stroke-width:4;stroke-linecap:round;stroke-linejoin:miter;marker:none;stroke-miterlimit:4;stroke-dasharray:none;stroke-dashoffset:0;stroke-opacity:1;visibility:visible;overflow:visible;enable-background:accumulate" />
    <path
       d="M -85.040855,231.49273 L -97.072105,229.33648 C -96.072105,225.50319 -94.155445,222.56569 -91.322105,220.52398 C -88.467955,218.48236 -84.436705,217.46153 -79.228355,217.46148 C -73.249215,217.46153 -68.926305,218.57611 -66.259605,220.80523 C -63.592975,223.03444 -62.259645,225.83652 -62.259605,229.21148 C -62.259645,231.19068 -62.801305,232.98235 -63.884605,234.58648 C -64.967975,236.19068 -66.603385,237.59693 -68.790855,238.80523 C -67.020055,239.24276 -65.665885,239.75317 -64.728355,240.33648 C -63.207555,241.27401 -62.030475,242.51359 -61.197105,244.05523 C -60.342975,245.57609 -59.915895,247.399 -59.915855,249.52398 C -59.915895,252.19066 -60.613815,254.75316 -62.009605,257.21148 C -63.405475,259.64899 -65.415885,261.5344 -68.040855,262.86773 C -70.665885,264.18023 -74.113795,264.83648 -78.384605,264.83648 C -82.551285,264.83648 -85.842955,264.3469 -88.259605,263.36773 C -90.655445,262.38857 -92.634615,260.96149 -94.197105,259.08648 C -95.738775,257.19066 -96.926275,254.81566 -97.759605,251.96148 L -85.040855,250.27398 C -84.540875,252.83649 -83.770035,254.61774 -82.728355,255.61773 C -81.665875,256.59691 -80.322125,257.08649 -78.697105,257.08648 C -76.988795,257.08649 -75.572125,256.46149 -74.447105,255.21148 C -73.301295,253.96149 -72.728385,252.29483 -72.728355,250.21148 C -72.728385,248.0865 -73.280465,246.44067 -74.384605,245.27398 C -75.467965,244.10734 -76.947125,243.524 -78.822105,243.52398 C -79.822125,243.524 -81.197125,243.774 -82.947105,244.27398 L -82.290855,235.18023 C -81.582545,235.28443 -81.030455,235.33651 -80.634605,235.33648 C -78.967955,235.33651 -77.582545,234.80526 -76.478355,233.74273 C -75.353375,232.68027 -74.790885,231.41985 -74.790855,229.96148 C -74.790885,228.56569 -75.207545,227.4511 -76.040855,226.61773 C -76.874215,225.78444 -78.020045,225.36777 -79.478355,225.36773 C -80.978375,225.36777 -82.197125,225.82611 -83.134605,226.74273 C -84.072125,227.6386 -84.707535,229.22194 -85.040855,231.49273"
       id="path2517"
       style="font-size:64px;font-style:normal;font-variant:normal;font-weight:normal;font-stretch:normal;text-align:start;line-height:80.00000119%;writing-mode:lr-tb;text-anchor:start;fill:#584131;fill-opacity:1;stroke:none;stroke-width:1px;stroke-linecap:butt;stroke-linejoin:miter;stroke-opacity:1;font-family:Arial Black;-inkscape-font-specification:Arial Black" />
  </g>
  <g
     transform="matrix(0.9320558,0,0,0.9320558,510.18956,-130.72966)"
     id="g2519">
    <rect
       width="66.559998"
       height="66.559998"
       ry="14.01"
       x="-112.11773"
       y="207.86899"
       id="rect2521"
       style="opacity:1;fill:#ffffff;fill-opacity:0.77999998;fill-rule:nonzero;stroke:#584131;stroke-width:4;stroke-linecap:round;stroke-linejoin:miter;marker:none;stroke-miterlimit:4;stroke-dasharray:none;stroke-dashoffset:0;stroke-opacity:1;visibility:visible;overflow:visible;enable-background:accumulate" />
    <path
       d="M -85.040855,231.49273 L -97.072105,229.33648 C -96.072105,225.50319 -94.155445,222.56569 -91.322105,220.52398 C -88.467955,218.48236 -84.436705,217.46153 -79.228355,217.46148 C -73.249215,217.46153 -68.926305,218.57611 -66.259605,220.80523 C -63.592975,223.03444 -62.259645,225.83652 -62.259605,229.21148 C -62.259645,231.19068 -62.801305,232.98235 -63.884605,234.58648 C -64.967975,236.19068 -66.603385,237.59693 -68.790855,238.80523 C -67.020055,239.24276 -65.665885,239.75317 -64.728355,240.33648 C -63.207555,241.27401 -62.030475,242.51359 -61.197105,244.05523 C -60.342975,245.57609 -59.915895,247.399 -59.915855,249.52398 C -59.915895,252.19066 -60.613815,254.75316 -62.009605,257.21148 C -63.405475,259.64899 -65.415885,261.5344 -68.040855,262.86773 C -70.665885,264.18023 -74.113795,264.83648 -78.384605,264.83648 C -82.551285,264.83648 -85.842955,264.3469 -88.259605,263.36773 C -90.655445,262.38857 -92.634615,260.96149 -94.197105,259.08648 C -95.738775,257.19066 -96.926275,254.81566 -97.759605,251.96148 L -85.040855,250.27398 C -84.540875,252.83649 -83.770035,254.61774 -82.728355,255.61773 C -81.665875,256.59691 -80.322125,257.08649 -78.697105,257.08648 C -76.988795,257.08649 -75.572125,256.46149 -74.447105,255.21148 C -73.301295,253.96149 -72.728385,252.29483 -72.728355,250.21148 C -72.728385,248.0865 -73.280465,246.44067 -74.384605,245.27398 C -75.467965,244.10734 -76.947125,243.524 -78.822105,243.52398 C -79.822125,243.524 -81.197125,243.774 -82.947105,244.27398 L -82.290855,235.18023 C -81.582545,235.28443 -81.030455,235.33651 -80.634605,235.33648 C -78.967955,235.33651 -77.582545,234.80526 -76.478355,233.74273 C -75.353375,232.68027 -74.790885,231.41985 -74.790855,229.96148 C -74.790885,228.56569 -75.207545,227.4511 -76.040855,226.61773 C -76.874215,225.78444 -78.020045,225.36777 -79.478355,225.36773 C -80.978375,225.36777 -82.197125,225.82611 -83.134605,226.74273 C -84.072125,227.6386 -84.707535,229.22194 -85.040855,231.49273"
       id="path2523"
       style="font-size:64px;font-style:normal;font-variant:normal;font-weight:normal;font-stretch:normal;text-align:start;line-height:80.00000119%;writing-mode:lr-tb;text-anchor:start;fill:#584131;fill-opacity:1;stroke:none;stroke-width:1px;stroke-linecap:butt;stroke-linejoin:miter;stroke-opacity:1;font-family:Arial Black;-inkscape-font-specification:Arial Black" />
  </g>
  <path
     d="M 478.54615,79.794426 L 492.61437,79.794426 L 497.53679,88.415946 L 503.24563,79.794426 L 516.32354,79.794426 L 505.77966,94.532563 L 517.08084,110.72703 L 503.24563,110.72703 L 497.53679,100.76569 L 490.80851,110.72703 L 477.96362,110.72703 L 489.20654,94.532563 L 478.54615,79.794426"
     id="path2525"
     style="font-size:64px;font-style:normal;font-variant:normal;font-weight:normal;font-stretch:normal;text-align:start;line-height:80.00000119%;writing-mode:lr-tb;text-anchor:start;fill:#584131;fill-opacity:1;stroke:none;stroke-width:1px;stroke-linecap:butt;stroke-linejoin:miter;stroke-opacity:1;font-family:Arial Black;-inkscape-font-specification:Arial Black" />
  <g
     transform="translate(28.588621,-12.932776)"
     id="g3635">
    <path
       d="M 179.6513,68.171388 C 179.95964,68.171388 192.1006,97.104138 192.35755,97.283998 C 192.61451,97.476718 223.87266,100.07193 223.97544,100.38027 C 224.07822,100.67576 200.3102,121.14195 200.20742,121.4503 C 200.11749,121.74579 207.29929,152.28447 207.04234,152.47719 C 206.78538,152.65705 179.95964,136.39202 179.6513,136.39202 C 179.34296,136.39202 152.51722,152.65705 152.26026,152.47719 C 152.00331,152.28447 159.18511,121.74579 159.09518,121.4503 C 158.9924,121.14195 135.22438,100.67576 135.32716,100.38027 C 135.42994,100.07193 166.68809,97.476718 166.94505,97.283998 C 167.202,97.104138 179.34296,68.171388 179.6513,68.171388 z"
       id="path3327"
       style="opacity:1;fill:#ffff00;fill-opacity:0.35;fill-rule:nonzero;stroke:none;marker:none;visibility:visible;overflow:visible;enable-background:accumulate" />
    <path
       d="M 187.91751,80.197788 C 188.16278,80.253308 192.61099,105.45345 192.783,105.64278 C 192.95269,105.84234 217.34939,113.53453 217.37562,113.7983 C 217.40417,114.05185 194.81334,126.05216 194.67607,126.27892 C 194.55134,126.49777 194.7657,152.08247 194.52661,152.18951 C 194.28983,152.28631 175.88003,134.51865 175.63476,134.46314 C 175.38949,134.40762 151.12284,142.51563 150.95082,142.3263 C 150.78113,142.12674 161.99213,119.12812 161.9738,118.87688 C 161.94756,118.61311 146.72638,98.054208 146.86134,97.837658 C 146.99861,97.610898 172.32981,101.17443 172.5689,101.0674 C 172.80567,100.97059 187.67225,80.142278 187.91751,80.197788 z"
       id="path3333"
       style="opacity:1;fill:#ffff00;fill-opacity:0.35;fill-rule:nonzero;stroke:none;marker:none;visibility:visible;overflow:visible;enable-background:accumulate" />
    <path
       d="M 179.14528,157.49917 C 179.14528,156.92917 179.12528,154.66917 179.12528,154.66917 C 179.12528,154.66917 171.27528,148.10917 170.84528,143.97917 C 170.41528,139.84917 170.56528,131.42917 170.56528,131.42917 C 170.56528,131.42917 170.59528,130.92917 170.08528,129.14917 C 167.57528,126.67916 174.23528,122.18916 176.83528,128.42917 C 177.40528,132.99917 177.42528,133.41917 177.40528,135.41917 C 177.40528,136.13917 177.37528,116.05917 177.40528,113.44917 C 178.99528,112.11917 180.75528,110.37917 184.25528,113.59917 C 184.33528,115.53917 184.25528,134.13917 184.25528,134.13917 L 184.39528,122.43916 C 184.39528,122.43916 190.66528,120.86916 190.80528,123.57916 C 190.95528,126.28916 190.66528,132.56917 190.66528,132.56917 L 190.95528,124.00916 C 190.95528,124.00916 195.83528,122.96916 197.83528,126.24916 C 197.82528,130.53917 197.66528,134.10917 197.66528,134.10917 C 197.66528,134.10917 197.64528,133.73917 197.86528,126.90916 C 198.00528,126.90916 200.36528,126.00916 202.50528,127.99917 C 203.07528,131.13917 202.65528,144.12917 202.65528,144.12917 C 202.65528,144.12917 202.61528,147.67917 199.36528,151.24917 C 198.45528,155.32917 198.44528,157.64917 198.44528,157.64917 L 179.14528,157.49917 z"
       id="path3329"
       style="opacity:0.76000001;fill:#ffffff;fill-rule:evenodd;stroke:#000000;stroke-width:1.67999995px;stroke-linecap:butt;stroke-linejoin:round;stroke-opacity:1" />
  </g>
  <path
     d="M 168.74318,53.763889 L 201.61809,44.867224 C 206.17779,64.536626 203.79085,83.289416 194.40167,102.92326 L 217.93148,110.90722 C 228.7266,87.196972 231.66099,63.283565 225.21497,38.493159 L 253.76632,30.753708 L 202.15328,19.374527 L 168.74318,53.763889 z"
     id="path2546"
     style="opacity:0.76000001;fill:#ffff00;fill-opacity:0.79090911;fill-rule:nonzero;stroke:none;stroke-width:1;stroke-linecap:butt;stroke-linejoin:miter;marker:none;marker-start:none;marker-mid:none;marker-end:none;stroke-miterlimit:4;stroke-dasharray:none;stroke-dashoffset:0;stroke-opacity:1;visibility:visible;display:inline;overflow:visible;enable-background:accumulate" />
  <g
     transform="matrix(0.989382,-0.1453387,0.1453387,0.989382,682.93499,-168.99893)"
     id="g2568">
    <rect
       width="66.559998"
       height="66.559998"
       ry="14.01"
       x="-193.86955"
       y="207.86899"
       id="rect2570"
       style="opacity:1;fill:#ffffff;fill-opacity:0.77999998;fill-rule:nonzero;stroke:#584131;stroke-width:4;stroke-linecap:round;stroke-linejoin:miter;marker:none;stroke-miterlimit:4;stroke-dasharray:none;stroke-dashoffset:0;stroke-opacity:1;visibility:visible;overflow:visible;enable-background:accumulate" />
    <path
       d="M -141.4958,264.44586 L -179.6833,264.44586 C -179.2458,260.67504 -177.92289,257.13337 -175.71455,253.82086 C -173.48539,250.48755 -169.31873,246.56047 -163.21455,242.03961 C -159.48541,239.26881 -157.09999,237.16464 -156.0583,235.72711 C -155.01666,234.28964 -154.49583,232.92506 -154.4958,231.63336 C -154.49583,230.23757 -155.01666,229.05007 -156.0583,228.07086 C -157.07916,227.0709 -158.37082,226.5709 -159.9333,226.57086 C -161.55832,226.5709 -162.89165,227.08132 -163.9333,228.10211 C -164.95415,229.12298 -165.64165,230.92507 -165.9958,233.50836 L -178.7458,232.47711 C -178.2458,228.89382 -177.32914,226.10215 -175.9958,224.10211 C -174.66247,222.08132 -172.78748,220.53966 -170.3708,219.47711 C -167.93331,218.39383 -164.56873,217.85216 -160.27705,217.85211 C -155.79791,217.85216 -152.31875,218.36258 -149.83955,219.38336 C -147.33958,220.40424 -145.38125,221.97716 -143.96455,224.10211 C -142.52709,226.20632 -141.80834,228.5709 -141.8083,231.19586 C -141.80834,233.98756 -142.63126,236.65423 -144.27705,239.19586 C -145.90209,241.73755 -148.87083,244.52922 -153.1833,247.57086 C -155.74583,249.34171 -157.46457,250.5813 -158.33955,251.28961 C -159.19374,251.99796 -160.20416,252.92504 -161.3708,254.07086 L -141.4958,254.07086 L -141.4958,264.44586"
       id="path2572"
       style="font-size:64px;font-style:normal;font-variant:normal;font-weight:normal;font-stretch:normal;text-align:start;line-height:80.00000119%;writing-mode:lr-tb;text-anchor:start;fill:#584131;fill-opacity:1;stroke:none;stroke-width:1px;stroke-linecap:butt;stroke-linejoin:miter;stroke-opacity:1;font-family:Arial Black;-inkscape-font-specification:Arial Black" />
  </g>
</svg>
