<?xml version="1.0" encoding="UTF-8" standalone="no"?>

<svg xmlns:svg="http://www.w3.org/2000/svg" xmlns="http://www.w3.org/2000/svg" xmlns:xlink="http://www.w3.org/1999/xlink" version="1.0" width="100%" height="100%" viewBox="0 0 640 480" id="equation" style="display:inline">
<defs id="defs4">
<linearGradient id="lg3412">
<stop id="s3414" style="stop-color:#d39162;stop-opacity:1" offset="0"/>
<stop id="s3416" style="stop-color:#e5ad62;stop-opacity:0.77" offset="1"/>
</linearGradient>
<linearGradient x1="41" y1="2" x2="41" y2="410" id="lg3418" xlink:href="#lg3412" gradientUnits="userSpaceOnUse"/>
<linearGradient x1="41" y1="2" x2="41" y2="410" id="lg2626" xlink:href="#lg3412" gradientUnits="userSpaceOnUse"/>
<linearGradient id="lg2620">
<stop id="s2622" style="stop-color:#d39162;stop-opacity:1" offset="0"/>
<stop id="s2624" style="stop-color:#e5ad62;stop-opacity:0.77" offset="1"/>
</linearGradient>
</defs>
<g transform="translate(376.94,-434.45)" id="g2472">
<rect width="66.55" height="66.55" ry="14.01" x="-289.56" y="444.94" id="r2475" style="fill:#ffffff;fill-opacity:0.77;fill-rule:nonzero;stroke:#584131;stroke-width:4;stroke-linecap:round;stroke-linejoin:miter;marker:none;stroke-miterlimit:4;stroke-dasharray:none;stroke-dashoffset:0;stroke-opacity:1;visibility:visible;overflow:visible;enable-background:accumulate"/>
<rect width="22.63" height="22.63" ry="11.31" x="-251.03" y="450.34" id="r2477" style="opacity:1;fill:#ff0000;fill-opacity:1;fill-rule:nonzero;stroke:none;marker:none;visibility:visible;display:inline;overflow:visible;enable-background:accumulate"/>
</g>
<g id="source">
<rect width="78" height="408" ry="10" x="2" y="2" id="rect6" style="fill:url(#lg3418);fill-opacity:1"/>
<path d="M 57.21,14 C 56.98,14.05 53.24,37.22 53.09,37.4 C 52.93,37.58 30.67,44.95 30.65,45.18 C 30.63,45.42 51.5,56.14 51.62,56.34 C 51.74,56.54 51.87,80 52.09,80.09 C 52.31,80.18 68.95,63.64 69.18,63.59 C 69.29,63.56 74.58,65.22 80,66.9 L 80,31.75 C 75.57,32.39 71.64,32.97 71.56,32.93 C 71.34,32.84 57.44,13.94 57.21,14 z M 3,64.09 C 2.96,64.08 2.57,64.57 2,65.31 L 2,139 C 6.01,142.89 9.57,146.32 9.68,146.28 C 9.96,146.16 10,117 10.15,116.75 C 10.31,116.49 36.24,103.07 36.21,102.78 C 36.19,102.48 8.44,93.41 8.25,93.18 C 8.05,92.96 3.28,64.16 3,64.09 z M 67.75,94.59 C 67.63,94.62 66.25,106 66.18,106.09 C 66.11,106.18 55.41,110.22 55.4,110.34 C 55.4,110.45 65.81,115.24 65.87,115.34 C 65.93,115.43 66.45,126.89 66.56,126.93 C 66.67,126.97 74.45,118.56 74.56,118.53 C 74.61,118.51 77.3,119.22 80,119.93 L 80,102.62 C 77.64,103.07 75.17,103.54 75.12,103.53 C 75.01,103.49 67.86,94.56 67.75,94.59 z M 54.87,147.15 C 54.69,147.14 46.58,162.47 46.43,162.56 C 46.28,162.65 28.91,162.52 28.84,162.68 C 28.77,162.84 40.83,175.32 40.87,175.5 C 40.91,175.67 35.43,192.13 35.56,192.25 C 35.69,192.36 51.29,184.76 51.46,184.78 C 51.64,184.79 65.63,195.09 65.78,195 C 65.93,194.9 63.49,177.72 63.56,177.56 C 63.63,177.4 77.75,167.29 77.71,167.12 C 77.67,166.95 60.56,163.95 60.43,163.84 C 60.3,163.72 55.05,147.17 54.87,147.15 z M 37.37,228.9 C 37.02,228.69 17.94,242.16 2,253.4 L 2,386.93 C 8.02,369.3 14.61,349.8 14.9,349.56 C 15.37,349.16 68.92,340.57 80,338.34 L 80,336 C 70.07,328.13 28,297.05 27.78,296.5 C 27.52,295.86 37.95,229.26 37.37,228.9 z M 59.56,231.25 C 59.38,231.34 61.39,250.94 61.31,251.12 C 61.22,251.3 44.77,262.11 44.81,262.31 C 44.84,262.5 64.1,266.67 64.25,266.81 C 64.39,266.94 69.61,285.94 69.81,285.96 C 70,285.99 79.55,269.56 80,269 L 80,241.5 C 77.46,242.59 75.37,243.47 75.31,243.46 C 75.11,243.44 59.73,231.15 59.56,231.25 z M 53.71,364.37 C 53.42,364.4 45.06,392.45 44.84,392.65 C 44.62,392.85 15.9,398.39 15.84,398.68 C 15.8,398.86 24.67,405.07 31.71,410 L 70,410 C 75.54,410 80,405.54 80,400 L 80,389.96 C 73.99,390.07 68.54,390.15 68.43,390.09 C 68.18,389.94 54.01,364.34 53.71,364.37 z" id="p3562" style="opacity:0.76;fill:#eedd99;fill-opacity:0.6;fill-rule:nonzero;stroke:none;marker:none;visibility:visible;display:inline;overflow:visible;enable-background:accumulate"/>
</g>
<path d="M 464.82,29.40 C 462.30,29.40 459.78,30.85 457.84,33.73 L 457.42,34.35 L 457.42,51.32 L 447.64,51.32 C 443.93,51.32 440.94,55.77 440.94,61.29 L 440.94,92.86 C 440.94,98.38 443.93,102.84 447.64,102.84 L 457.42,102.84 L 457.42,119.80 L 457.84,120.43 C 461.72,126.19 467.94,126.19 471.81,120.43 L 493.94,87.48 C 497.81,81.71 497.81,72.44 493.94,66.67 L 471.81,33.73 C 469.87,30.85 467.35,29.40 464.82,29.40 z" id="p3323" style="opacity:1;fill:#ffffff;fill-opacity:0.77;fill-rule:nonzero;stroke:#584131;stroke-width:4;stroke-linecap:round;stroke-linejoin:miter;marker:none;stroke-miterlimit:4;stroke-dasharray:none;stroke-dashoffset:0;stroke-opacity:1;visibility:visible;overflow:visible;enable-background:accumulate"/>
<path d="M 193.85,77.99 L 201.74,77.12 C 199.68,83.43 198.33,89.19 197.69,94.42 C 197.15,98.86 197.15,103.53 197.69,108.44 C 198.73,117.90 202.26,127.37 208.28,136.83 L 200.39,137.69 C 195.75,132.44 192.36,127.60 190.22,123.18 C 188.10,118.74 186.76,114.00 186.21,108.94 C 185.63,103.70 185.93,98.63 187.11,93.72 C 188.32,88.81 190.56,83.57 193.85,77.99" id="p2479" style="font-size:64px;font-style:normal;font-variant:normal;font-weight:normal;font-stretch:normal;text-align:start;line-height:80.00%;writing-mode:lr-tb;text-anchor:start;fill:#584131;fill-opacity:1;stroke:none;font-family:Arial Black;-inkscape-font-specification:Arial Black"/>
<path d="M 408.36,52.17 L 400.47,53.04 C 403.84,58.75 406.41,64.08 408.17,69.04 C 409.66,73.26 410.67,77.82 411.21,82.73 C 412.25,92.20 410.85,102.20 407.02,112.74 L 414.91,111.88 C 418.30,105.74 420.55,100.29 421.67,95.51 C 422.79,90.72 423.08,85.79 422.53,80.74 C 421.95,75.50 420.55,70.61 418.31,66.08 C 416.10,61.54 412.78,56.91 408.36,52.17" id="p2481" style="font-size:64px;font-style:normal;font-variant:normal;font-weight:normal;font-stretch:normal;text-align:start;line-height:80.00%;writing-mode:lr-tb;text-anchor:start;fill:#584131;fill-opacity:1;stroke:none;font-family:Arial Black;-inkscape-font-specification:Arial Black"/>
<g transform="matrix(0.99,-0.10,0.10,0.99,574.63,-176.95)" id="g2483">
<rect width="66.55" height="66.55" ry="14.01" x="-273.28" y="207.86" id="r2485" style="opacity:1;fill:#ffffff;fill-opacity:0.77;fill-rule:nonzero;stroke:#584131;stroke-width:4;stroke-linecap:round;stroke-linejoin:miter;marker:none;stroke-miterlimit:4;stroke-dasharray:none;stroke-dashoffset:0;stroke-opacity:1;visibility:visible;overflow:visible;enable-background:accumulate"/>
<path d="M -229.21,217.85 L -229.21,264.44 L -242.09,264.44 L -242.09,233.91 C -244.17,235.49 -246.19,236.77 -248.15,237.75 C -250.09,238.73 -252.52,239.67 -255.46,240.57 L -255.46,230.13 C -251.13,228.73 -247.76,227.06 -245.37,225.10 C -242.97,223.14 -241.10,220.72 -239.74,217.85 L -229.21,217.85" id="p2487" style="font-size:64px;font-style:normal;font-variant:normal;font-weight:normal;font-stretch:normal;text-align:start;line-height:80.00%;writing-mode:lr-tb;text-anchor:start;fill:#584131;fill-opacity:1;stroke:none;font-family:Arial Black;-inkscape-font-specification:Arial Black"/>
</g>
<path d="M 287.03,93.34 L 298.93,92.03 L 297.62,80.07 L 307.65,78.97 L 308.96,90.93 L 320.92,89.62 L 322.02,99.68 L 310.06,100.99 L 311.36,112.89 L 301.33,113.99 L 300.03,102.09 L 288.13,103.40 L 287.03,93.34" id="p2489" style="font-size:64px;font-style:normal;font-variant:normal;font-weight:normal;font-stretch:normal;text-align:start;line-height:80.00%;writing-mode:lr-tb;text-anchor:start;opacity:1;fill:#584131;fill-opacity:1;stroke:none;font-family:Arial Black;-inkscape-font-specification:Arial Black"/>
<g transform="matrix(0.99,-0.10,0.10,0.99,-17.15,33.61)" id="g2505">
<rect width="66.55" height="66.55" ry="14.01" x="220.79" y="63.05" id="r2493" style="fill:#ffffff;fill-opacity:0.77;fill-rule:nonzero;stroke:#584131;stroke-width:4;stroke-linecap:round;stroke-linejoin:miter;marker:none;stroke-miterlimit:4;stroke-dasharray:none;stroke-dashoffset:0;stroke-opacity:1;visibility:visible;overflow:visible;enable-background:accumulate"/>
<path d="M 248.63,91.26 L 236.47,89.98 C 236.93,87.85 237.59,86.18 238.44,84.98 C 239.32,83.75 240.57,82.68 242.19,81.79 C 243.36,81.14 244.96,80.64 247.01,80.29 C 249.05,79.93 251.25,79.76 253.63,79.76 C 257.44,79.76 260.50,79.98 262.82,80.41 C 265.13,80.83 267.06,81.71 268.60,83.07 C 269.68,84.01 270.54,85.34 271.16,87.07 C 271.79,88.78 272.10,90.41 272.10,91.98 L 272.10,106.63 C 272.10,108.19 272.19,109.42 272.38,110.32 C 272.59,111.19 273.03,112.32 273.69,113.69 L 261.76,113.69 C 261.28,112.84 260.96,112.19 260.82,111.76 C 260.67,111.30 260.53,110.59 260.38,109.63 C 258.71,111.24 257.06,112.38 255.41,113.07 C 253.16,113.99 250.55,114.44 247.57,114.44 C 243.61,114.44 240.60,113.53 238.54,111.69 C 236.49,109.86 235.47,107.60 235.47,104.91 C 235.47,102.39 236.21,100.32 237.69,98.69 C 239.17,97.07 241.90,95.86 245.88,95.07 C 250.65,94.11 253.74,93.44 255.16,93.07 C 256.58,92.67 258.08,92.16 259.66,91.54 C 259.66,89.98 259.34,88.88 258.69,88.26 C 258.05,87.63 256.91,87.32 255.29,87.32 C 253.20,87.32 251.64,87.65 250.60,88.32 C 249.79,88.84 249.13,89.82 248.63,91.26 M 259.66,97.94 C 257.91,98.57 256.09,99.12 254.19,99.60 C 251.61,100.29 249.97,100.96 249.29,101.63 C 248.58,102.32 248.22,103.10 248.22,103.98 C 248.22,104.98 248.57,105.80 249.26,106.44 C 249.96,107.07 250.99,107.38 252.35,107.38 C 253.77,107.38 255.08,107.04 256.29,106.35 C 257.52,105.66 258.38,104.83 258.88,103.85 C 259.40,102.85 259.66,101.56 259.66,99.98 L 259.66,97.94" id="text2499" style="font-size:64px;font-style:normal;font-variant:normal;font-weight:normal;font-stretch:normal;text-align:start;line-height:80.00%;writing-mode:lr-tb;text-anchor:start;fill:#584131;fill-opacity:1;stroke:none;font-family:Arial Black;-inkscape-font-specification:Arial Black"/>
</g>
<path d="M 202.22,113.33 L 226.78,89.74 C 203.01,66.73 171.77,60.94 126.05,68.59 L 124.24,44.02 C 174.70,35.57 215.03,42.82 244.41,72.82 L 265.75,52.32 L 248.90,102.44 L 202.22,113.33 z" id="p2539" style="opacity:0.76;fill:#ffff00;fill-opacity:0.79;fill-rule:nonzero;stroke:none;marker:none;visibility:visible;display:inline;overflow:visible;enable-background:accumulate"/>
<g transform="matrix(1.67,0.26,-0.26,1.67,-365.25,-238.04)" id="g2532">
<rect width="66.55" height="66.55" ry="14.01" x="541.30" y="66.24" id="r2519" style="fill:#ffffff;fill-opacity:0.77;fill-rule:nonzero;stroke:#584131;stroke-width:4;stroke-linecap:round;stroke-linejoin:miter;marker:none;stroke-miterlimit:4;stroke-dasharray:none;stroke-dashoffset:0;stroke-opacity:1;visibility:visible;overflow:visible;enable-background:accumulate"/>
<g transform="matrix(0.47,0,0,1,281.29,0)" id="g2527">
<path d="M 666.30,76.22 L 666.30,122.82 L 653.42,122.82 L 653.42,92.29 C 651.34,93.87 649.32,95.15 647.36,96.13 C 645.42,97.11 642.99,98.05 640.05,98.94 L 640.05,88.51 C 644.38,87.11 647.75,85.43 650.14,83.47 C 652.54,81.52 654.41,79.10 655.77,76.22 L 666.30,76.22" id="p2513" style="font-size:64px;font-style:normal;font-variant:normal;font-weight:normal;font-stretch:normal;text-align:start;line-height:80.00%;writing-mode:lr-tb;text-anchor:start;fill:#584131;fill-opacity:1;stroke:none;font-family:Arial Black;-inkscape-font-specification:Arial Black"/>
<path d="M 569.14,94.45 L 556.99,93.17 C 557.45,91.04 558.10,89.38 558.96,88.17 C 559.83,86.94 561.08,85.88 562.71,84.98 C 563.87,84.34 565.48,83.84 567.52,83.48 C 569.56,83.13 571.77,82.95 574.14,82.95 C 577.96,82.95 581.02,83.17 583.33,83.61 C 585.64,84.02 587.57,84.91 589.11,86.26 C 590.20,87.20 591.05,88.53 591.67,90.26 C 592.30,91.97 592.61,93.61 592.61,95.17 L 592.61,109.83 C 592.61,111.39 592.71,112.62 592.89,113.51 C 593.10,114.39 593.54,115.51 594.21,116.89 L 582.27,116.89 C 581.79,116.03 581.48,115.39 581.33,114.95 C 581.19,114.49 581.04,113.78 580.89,112.83 C 579.23,114.43 577.57,115.58 575.92,116.26 C 573.67,117.18 571.06,117.64 568.08,117.64 C 564.12,117.64 561.11,116.72 559.05,114.89 C 557.01,113.06 555.99,110.79 555.99,108.11 C 555.99,105.59 556.73,103.51 558.21,101.89 C 559.69,100.26 562.41,99.06 566.39,98.26 C 571.16,97.31 574.26,96.64 575.67,96.26 C 577.09,95.87 578.59,95.36 580.17,94.73 C 580.17,93.17 579.85,92.08 579.21,91.45 C 578.56,90.83 577.42,90.51 575.80,90.51 C 573.72,90.51 572.15,90.85 571.11,91.51 C 570.30,92.03 569.64,93.01 569.14,94.45 M 580.17,101.14 C 578.42,101.76 576.60,102.32 574.71,102.79 C 572.12,103.48 570.49,104.16 569.80,104.83 C 569.09,105.51 568.74,106.29 568.74,107.17 C 568.74,108.17 569.08,108.99 569.77,109.64 C 570.48,110.26 571.51,110.58 572.86,110.58 C 574.28,110.58 575.59,110.23 576.80,109.54 C 578.03,108.86 578.89,108.02 579.39,107.04 C 579.91,106.04 580.17,104.75 580.17,103.17 L 580.17,101.14" id="p2521" style="font-size:64px;font-style:normal;font-variant:normal;font-weight:normal;font-stretch:normal;text-align:start;line-height:80.00%;writing-mode:lr-tb;text-anchor:start;fill:#584131;fill-opacity:1;stroke:none;font-family:Arial Black;-inkscape-font-specification:Arial Black"/>
<path d="M 601.47,95.71 L 613.44,95.71 L 613.44,83.68 L 623.53,83.68 L 623.53,95.71 L 635.56,95.71 L 635.56,105.83 L 623.53,105.83 L 623.53,117.80 L 613.44,117.80 L 613.44,105.83 L 601.47,105.83 L 601.47,95.71" id="p2515" style="font-size:64px;font-style:normal;font-variant:normal;font-weight:normal;font-stretch:normal;text-align:start;line-height:80.00%;writing-mode:lr-tb;text-anchor:start;opacity:1;fill:#584131;fill-opacity:1;stroke:none;font-family:Arial Black;-inkscape-font-specification:Arial Black"/>
</g>
</g>
<g transform="translate(-48.89,-61.93)" id="g3635">
<path d="M 179.65,68.17 C 179.95,68.17 192.10,97.10 192.35,97.28 C 192.61,97.47 223.87,100.07 223.97,100.38 C 224.07,100.67 200.31,121.14 200.20,121.45 C 200.11,121.74 207.29,152.28 207.04,152.47 C 206.78,152.65 179.95,136.39 179.65,136.39 C 179.34,136.39 152.51,152.65 152.26,152.47 C 152.00,152.28 159.18,121.74 159.09,121.45 C 158.99,121.14 135.22,100.67 135.32,100.38 C 135.42,100.07 166.68,97.47 166.94,97.28 C 167.20,97.10 179.34,68.17 179.65,68.17 z" id="p3327" style="opacity:1;fill:#ffff00;fill-opacity:0.35;fill-rule:nonzero;stroke:none;marker:none;visibility:visible;overflow:visible;enable-background:accumulate"/>
<path d="M 187.91,80.19 C 188.16,80.25 192.61,105.45 192.78,105.64 C 192.95,105.84 217.34,113.53 217.37,113.79 C 217.40,114.05 194.81,126.05 194.67,126.27 C 194.55,126.49 194.76,152.08 194.52,152.18 C 194.28,152.28 175.88,134.51 175.63,134.46 C 175.38,134.40 151.12,142.51 150.95,142.32 C 150.78,142.12 161.99,119.12 161.97,118.87 C 161.94,118.61 146.72,98.05 146.86,97.83 C 146.99,97.61 172.32,101.17 172.56,101.06 C 172.80,100.97 187.67,80.14 187.91,80.19 z" id="p3333" style="opacity:1;fill:#ffff00;fill-opacity:0.35;fill-rule:nonzero;stroke:none;marker:none;visibility:visible;overflow:visible;enable-background:accumulate"/>
<path d="M 179.14,157.49 C 179.14,156.92 179.12,154.66 179.12,154.66 C 179.12,154.66 171.27,148.10 170.84,143.97 C 170.41,139.84 170.56,131.42 170.56,131.42 C 170.56,131.42 170.59,130.92 170.08,129.14 C 167.57,126.67 174.23,122.18 176.83,128.42 C 177.40,132.99 177.42,133.41 177.40,135.41 C 177.40,136.13 177.37,116.05 177.40,113.44 C 178.99,112.11 180.75,110.37 184.25,113.59 C 184.33,115.53 184.25,134.13 184.25,134.13 L 184.39,122.43 C 184.39,122.43 190.66,120.86 190.80,123.57 C 190.95,126.28 190.66,132.56 190.66,132.56 L 190.95,124.00 C 190.95,124.00 195.83,122.96 197.83,126.24 C 197.82,130.53 197.66,134.10 197.66,134.10 C 197.66,134.10 197.64,133.73 197.86,126.90 C 198.00,126.90 200.36,126.00 202.50,127.99 C 203.07,131.13 202.65,144.12 202.65,144.12 C 202.65,144.12 202.61,147.67 199.36,151.24 C 198.45,155.32 198.44,157.64 198.44,157.64 L 179.14,157.49 z" id="p3329" style="opacity:0.76;fill:#ffffff;fill-rule:evenodd;stroke:#000000;stroke-width:1.67px;stroke-linecap:butt;stroke-linejoin:round;stroke-opacity:1"/>
</g>
</svg>
