<?xml version="1.0" encoding="UTF-8" standalone="no"?>
<svg xmlns:dc="http://purl.org/dc/elements/1.1/" xmlns:cc="http://creativecommons.org/ns#" xmlns:rdf="http://www.w3.org/1999/02/22-rdf-syntax-ns#" xmlns:svg="http://www.w3.org/2000/svg" xmlns="http://www.w3.org/2000/svg" xmlns:xlink="http://www.w3.org/1999/xlink" version="1.1" id="ppvs" viewBox="0 0 80 60" height="100%" width="100%">
 <defs id="defs5015" />
 <g id="layer1">
 <rect y="0" x="0" height="60" width="80" id="rect0001" style="fill:#7eb4db;" />
 <path id="stroke02-9-0" d="m 74.832,31.256 c -6.805,0.078 -12.722,3.831 -18.708,6.595 -1.380,0.649 -2.976,0.882 -4.414,0.373 0.557,-1.604 0.152,-3.536 -1.394,-4.482 -0.582,-0.380 -1.264,-0.565 -1.947,-0.656 -6.764,-0.745 -13.092,2.266 -19.369,4.287 -1.665,0.549 -3.545,0.518 -5.019,-0.517 -1.514,-0.961 -3.321,-0.499 -4.740,0.037 -1.619,0.410 -3.248,1.075 -4.857,1.298 l -2.312,0.470 -1.638,0.490 c -2.397,0.684 -5.037,0.497 -7.296,1.615 -1.175,0.772 -1.703,2.512 -2.337,3.382 0.552,1.319 1.356,2.626 1.707,3.960 -0.516,0.715 0.384,0.849 0.572,1.617 0.443,0.810 0.679,1.730 1.095,2.519 0.062,0.660 0.883,1.851 1.130,2.812 0.036,0.908 0.789,0.994 1.533,1.089 2.383,0.564 4.504,-1.028 6.726,-1.595 1.987,-0.569 3.872,-1.595 5.958,-1.701 1.101,-0.540 0.679,-0.343 2.144,-0.810 1.764,-0.467 3.562,-0.714 5.226,-1.460 1.282,-0.812 1.495,-2.586 2.492,-3.611 -0.143,0.381 -0.282,0.739 -0.437,1.017 0.708,1.242 1.664,2.444 2.173,3.726 -0.425,0.772 0.482,0.795 0.761,1.535 0.538,0.750 0.886,1.636 1.394,2.369 0.141,0.648 1.101,1.732 1.462,2.656 0.145,0.897 0.902,0.891 1.652,0.896 2.433,0.271 4.348,-1.566 6.486,-2.398 1.903,-0.805 3.650,-2.050 5.708,-2.408 1.028,-0.669 0.633,-0.423 2.031,-1.064 1.694,-0.677 3.448,-1.139 5.009,-2.082 1.522,-1.246 1.062,-3.883 3.085,-4.689 2.766,-1.283 5.804,-1.857 8.619,-3.039 3.715,-1.424 7.806,-2.656 10.533,-5.722 1.647,-1.788 1.291,-5.042 -1.021,-6.095 -0.623,-0.307 -1.322,-0.408 -2.011,-0.416 z m -60.728,7.109 c -0.287,0.146 -0.401,0.142 -0.416,0.107 -0.088,0.052 -0.036,-0.184 0.093,-0.097 -0.022,0.034 -0.031,0.032 -0.048,0.050 0.064,-0.041 0.178,-0.082 0.371,-0.060 z m -0.371,0.060 c -0.031,0.020 -0.050,0.032 -0.044,0.046 0.011,-0.006 0.029,-0.029 0.044,-0.046 z" style="fill:#ffffff;stroke-width:5;stroke-linecap:butt;stroke-opacity:1" />
 <path id="stroke02-6" d="m 30.155,1.174 c -0.789,0.115 -1.518,0.504 -1.982,0.963 -0.619,0.612 -0.926,1.291 -1.081,1.994 -0.155,0.702 -0.173,1.466 0.173,2.315 0.347,0.848 1.285,1.753 2.354,1.990 l 0.003,-4.464e-4 0.002,0.001 C 30.031,8.527 36.983,10.062 43.258,11.447 40.552,11.037 37.800,10.620 34.732,10.153 30.522,9.512 26.326,8.874 23.113,8.389 21.506,8.147 20.146,7.943 19.150,7.797 18.154,7.651 17.824,7.582 17.248,7.534 l -0.011,-6.014e-4 -0.013,-3.783e-4 c -1.081,-0.078 -2.151,0.451 -2.747,1.086 -0.595,0.635 -0.878,1.326 -1.006,2.034 -0.128,0.707 -0.115,1.470 0.263,2.305 0.159,0.351 0.439,0.699 0.772,1.010 -0.291,0.143 -0.564,0.305 -0.774,0.496 -0.645,0.584 -0.982,1.250 -1.168,1.945 -0.185,0.694 -0.237,1.456 0.072,2.319 0.309,0.863 1.206,1.809 2.263,2.092 l 0.004,0.001 0.001,-2.23e-4 c 0.524,0.139 9.066,2.425 17.555,4.694 4.244,1.134 8.488,2.268 11.745,3.135 3.257,0.866 5.204,1.392 5.891,1.551 l 0.012,0.002 0.014,0.004 c 1.252,0.276 3.237,0.727 4.776,0.791 l 0.002,0.001 0.001,-2.23e-4 c 0.314,0.012 1.283,0.087 2.172,0.153 0.444,0.032 0.881,0.062 1.259,0.083 0.378,0.020 0.549,0.058 1.101,0.008 1.305,-0.118 2.467,-1.246 2.683,-2.447 0.215,-1.201 -0.465,-2.631 -1.612,-3.213 -0.544,-0.276 -1.824,-0.914 -2.618,-1.311 L 57.781,24.015 56.795,23.625 c 0,0 -0.967,-0.381 -2.133,-0.802 -1.165,-0.421 -2.425,-0.877 -3.580,-1.100 l -0.006,-0.001 -0.006,-0.001 c 0.053,0.010 -2.544,-0.579 -5.758,-1.337 -1.217,-0.287 -2.926,-0.693 -4.363,-1.033 1.687,0.304 3.657,0.661 5.061,0.914 3.317,0.597 5.301,0.963 5.998,1.065 l 0.014,0.002 0.011,6.01e-4 c 1.270,0.172 3.288,0.462 4.827,0.400 l 0.001,-2.23e-4 c 0.314,-0.013 1.287,-0.019 2.179,-0.026 0.445,-0.003 0.882,-0.008 1.261,-0.019 0.379,-0.010 0.553,0.013 1.099,-0.081 1.291,-0.225 2.355,-1.444 2.472,-2.659 0.116,-1.215 -0.678,-2.585 -1.869,-3.072 -0.343,-0.140 -1.028,-0.413 -1.651,-0.663 2.275,0.500 4.277,0.944 4.841,1.049 l 0.014,0.002 0.012,0.002 c 1.263,0.220 3.267,0.585 4.806,0.581 l 0.001,-2.24e-4 0.001,-2.23e-4 c 0.314,-0.001 1.286,0.031 2.177,0.058 0.445,0.013 0.883,0.023 1.263,0.027 0.379,0.003 0.550,0.034 1.100,-0.040 1.299,-0.175 2.409,-1.352 2.571,-2.562 0.162,-1.209 -0.579,-2.609 -1.751,-3.140 -0.556,-0.252 -1.860,-0.831 -2.671,-1.192 L 72.600,9.734 71.597,9.389 c 0,0 -0.982,-0.339 -2.165,-0.708 -1.183,-0.369 -2.463,-0.769 -3.627,-0.941 l -0.006,-0.001 -0.006,-0.001 C 65.847,7.745 63.226,7.271 59.982,6.655 56.738,6.040 52.541,5.238 48.358,4.438 44.175,3.638 40.004,2.841 36.812,2.235 35.216,1.932 33.865,1.678 32.875,1.494 31.885,1.310 31.559,1.229 30.985,1.159 l -0.014,-0.002 -0.013,-3.782e-4 c -0.269,-0.029 -0.538,-0.020 -0.802,0.017 z" style="font-style:normal;font-variant:normal;font-weight:normal;font-stretch:normal;font-size:medium;line-height:normal;font-family:sans-serif;text-indent:0;text-align:start;text-decoration:none;text-decoration-line:none;text-decoration-style:letter-spacing:normal;word-spacing:normal;text-transform:none;direction:ltr;block-progression:tb;writing-mode:lr-tb;baseline-shift:baseline;text-anchor:start;white-space:normal;fill:#ffffff;stroke-width:5;stroke-linecap:butt;" />
 <g transform="matrix(0.993,-0.114,0.114,0.993,24.387,-1.982)" id="g3485">
 <path style="fill:#9db7ca;stroke:none" id="p3365" d="m 4.821,8.585 c -1.13,-0.39 -0.39,-2.55 0.79,-2.28 1.04,0.25 32.29,10.11 33.78,10.5 1.5,0.4 5.13,2.14 5.13,2.14 l 0.05,0.15 c 0,0 2.66,1.57 3.31,1.96 0.45,0.27 0.28,0.92 -0.23,0.93 -0.5,0.01 -3.28,-0.45 -4.18,-0.55 -0.89,-0.1 -3.13,-0.7 -4.28,-1.04 -1.14,-0.35 -33.23,-11.42 -34.37,-11.81 z" />
 <path style="fill:#131313;fill-opacity:0.829;stroke:none" id="p3372" d="m 16.331,10.365 c -0.22,0.05 -0.33,0.33 -0.33,0.56 0,0.23 0.07,0.37 0.29,0.43 l 23.16,8 c 1.14,0.39 0.63,-1.27 0.41,-1.35 l -23.25,-7.59 c -0.1,-0.04 -0.18,-0.08 -0.28,-0.05 z" />
 <path style="fill:#7e7645;stroke:none" id="p3370" d="m 39.541,16.885 c -0.73,0.93 -1.01,1.71 -1.06,3.25 0.05,0.02 0.7,0.24 0.72,0.25 1.14,0.35 3.39,0.96 4.28,1.06 0.9,0.1 3.66,0.54 4.16,0.53 0.51,-0.01 0.69,-0.64 0.25,-0.9 -0.65,-0.39 -3.31,-1.97 -3.31,-1.97 l -0.07,-0.16 c 0,0 -3.4,-1.6 -4.97,-2.06 z" />
 <path style="fill:none;stroke:#4f2819;stroke-width:0.69;stroke-linecap:round;stroke-opacity:0.610" id="p3424" d="m 40.881,18.265 5.04,1.76" />
 <path style="fill:none;stroke:#8cadea;stroke-width:0.5;stroke-linecap:round;stroke-opacity:0.680" id="p3422" d="m 38.431,17.335 2.11,0.69" />
 <path style="fill:#9db7ca;fill-opacity:0.260;stroke:none" id="p3398" d="m 39.541,16.885 c -0.73,0.93 -1.01,1.71 -1.06,3.25 0.05,0.02 0.7,0.24 0.72,0.25 1.14,0.35 3.39,0.96 4.28,1.06 0.05,0.01 0.19,0.02 0.25,0.03 0.06,-1.09 0.19,-1.77 0.78,-2.53 0,0 -3.4,-1.6 -4.97,-2.06 z" />
 <path style="fill:#083bc6;stroke:none" id="p3374" d="m 5.391,6.295 c -1.05,0.01 -1.62,1.91 -0.56,2.28 0.01,0 0.38,0.11 0.4,0.12 -0.14,-0.44 -0.15,-0.75 -0.15,-0.75 -0.01,0 1.47,0.39 1.93,0.53 0.1,-0.18 -0.5,-0.21 -0.27,-0.7 0.19,-0.43 0.61,-0.16 0.68,-0.33 -0.85,-0.32 -1.26,-0.36 -0.91,-0.84 -0.14,-0.04 -0.86,-0.27 -0.9,-0.28 -0.08,-0.02 -0.15,-0.04 -0.22,-0.03 z" />
 <path style="fill:#080b1c;fill-opacity:0.380;stroke:none" id="p3430" d="m 5.921,6.415 c -0.13,0.21 -0.25,0.42 -0.25,0.44 0,0.03 -0.46,-0.15 -0.88,-0.31 -0.29,0.24 -0.46,0.63 -0.5,1.03 l 0.91,0.28 0,0.12 c 0.04,0.01 0.27,0.09 0.41,0.13 -0.01,-0.25 0.04,-0.83 0.34,-1.41 0.05,-0.09 0.12,-0.16 0.19,-0.22 -0.1,-0.03 -0.13,-0.03 -0.22,-0.06 z m 0.53,0.31 c -0.29,0.31 -0.39,0.84 -0.41,1.5 0.43,0.12 0.74,0.18 0.97,0.25 0.1,-0.18 -0.5,-0.19 -0.28,-0.68 0.19,-0.43 0.62,-0.18 0.69,-0.35 -0.75,-0.28 -1.13,-0.37 -0.97,-0.72 z" />
 <path style="fill:none;stroke:#dde9fc;stroke-width:0.69;stroke-linecap:round;stroke-opacity:0.6" id="p3389" d="m 12.861,10.645 30.66,10.65" />
 <path style="fill:none;stroke:#d7e6ff;stroke-width:1px;stroke-linecap:round;stroke-opacity:0.769" id="p3391" d="m 38.231,19.265 2.09,0.73" />
 <path style="fill:none;stroke:#cec1b5;stroke-width:0.400;stroke-linecap:round;stroke-opacity:0.519" id="p3408" d="m 42.511,19.595 5.24,1.88" />
 <path style="fill:#131313;fill-opacity:0.620;stroke:none" id="p3395" d="m 10.611,8.475 c -0.85,-0.27 -0.89,0.82 -0.5,1.02 0.39,0.19 0.78,0.23 0.78,0.23 0,0 -0.04,-0.23 0.08,-0.55 0.11,-0.31 0.54,-0.35 0.54,-0.35 l -0.9,-0.35 z" />
 <path style="fill:none;stroke:#c4d2f8;stroke-width:0.300;stroke-linecap:round;stroke-opacity:0.810" id="p3393" d="m 9.571,8.515 15.77,5.24" />
 <path style="fill:none;fill-opacity:0.260;stroke:#3b3d43;stroke-width:0.2;stroke-linecap:butt;stroke-opacity:0.810" id="p3403" d="m 43.731,21.475 c 0.06,-1.09 0.19,-1.77 0.78,-2.53" />
 <path style="fill:none;stroke:#cec1b5;stroke-width:0.600;stroke-linecap:round;stroke-opacity:0.519" id="p3410" d="m 39.291,18.495 2.53,0.82" />
 <path style="fill:none;stroke:#191c20;stroke-width:0.2;stroke-linecap:butt;stroke-opacity:0.829" id="p3405" d="m 44.131,19.435 c 0,0 -3.43,-1.65 -4.74,-2.08 -1.32,-0.42 -33.01,-10.33 -33.01,-10.33" />
 <path style="fill:none;stroke:#eef2f8;stroke-width:0.300;stroke-linecap:round;stroke-opacity:0.879" id="p3412" d="m 38.741,18.585 1.24,0.41" />
 <path style="fill:none;stroke:#726a3f;stroke-width:0.400;stroke-linecap:round;stroke-opacity:0.879" id="p3417" d="m 46.141,21.115 1.21,0.4" />
 <path style="fill:none;stroke:#eeedeb;stroke-width:0.400;stroke-linecap:round;stroke-opacity:0.790" id="p3419" d="m 43.381,20.045 0.34,0.1" />
 <path style="fill:none;stroke:#c7e8f6;stroke-width:0.300;stroke-linecap:round;stroke-opacity:0.819" id="p3426" d="m 39.931,18.635 0.17,-0.46" />
 <path style="fill:none;stroke:#cadcf1;stroke-width:0.400;stroke-linecap:round;stroke-opacity:0.620" id="p3428" d="m 4.931,7.975 2.9,0.97" />
 <path style="fill:none;stroke:#070809;stroke-width:0.5;stroke-linecap:butt;stroke-opacity:1" id="stroke02" d="m 4.821,8.585 c -1.13,-0.39 -0.39,-2.55 0.79,-2.28 1.04,0.25 32.29,10.11 33.78,10.5 1.5,0.4 5.13,2.14 5.13,2.14 l 0.05,0.15 c 0,0 2.66,1.57 3.31,1.96 0.45,0.27 0.28,0.92 -0.23,0.93 -0.5,0.01 -3.28,-0.45 -4.18,-0.55 -0.89,-0.1 -3.13,-0.7 -4.28,-1.04 -1.14,-0.35 -33.23,-11.42 -34.37,-11.81 z" />
 </g>
 <use height="100%" width="100%" transform="matrix(0.999,-0.029,0.029,0.999,-14.711,7.024)" id="use3509" xlink:href="#g3485" y="0" x="0" />
 <circle r="6.599" cy="23.200" cx="13" id="path4836" style="fill:#ffffff;fill-rule:nonzero;stroke-width:5;stroke-linecap:round;stroke-linejoin:round;marker:none;" />
 <use height="100%" width="100%" transform="matrix(0.996,0.082,-0.082,0.996,0.380,4.519)" id="use3511" xlink:href="#use3509" y="0" x="0" />
 <circle style="fill:#ffffff;fill-rule:nonzero;stroke-width:5;stroke-linecap:round;stroke-linejoin:round;marker:none;" id="circle4838" cx="69.999" cy="47.200" r="6.599" />
 <g transform="translate(0.6,6.2)" id="g3824">
 <path d="m 46.114,45.933 c 0,0 -3.82,1.87 -5.14,2.49 -1.32,0.62 -3.58,1.87 -4.01,1.99 -0.43,0.11 -0.82,0.08 -0.82,0.08 l -0.35,-0.71 c 0,0 -0.19,-0.11 -0.31,-0.31 -0.12,-0.19 -0.7,-1.44 -0.9,-1.67 -0.19,-0.23 -0.15,-0.55 -0.15,-0.55 l -0.23,-0.15 -0.55,-1.05 -0.12,-0.16 0.12,-0.23 -0.43,-0.39 0.04,-0.12 c 0,0 -0.27,-0.54 -0.66,-1.21 -0.39,-0.66 -1.21,-1.98 -1.21,-1.98 0,0 0.16,-0.16 0,-0.35 -0.15,-0.2 0.04,-1.4 0.74,-1.71 0.7,-0.32 3.97,-1.17 5.34,-1.64 1.36,-0.47 4.67,-1.71 4.67,-1.71 l 6.19,4.32 -0.66,3.27 -1.56,1.79 z" id="p3582" style="fill:#baa789;stroke:none" />
 <path d="m 46.764,43.333 c 0.02,0.02 0.14,0.95 0.22,1.59 l -0.88,1 c 0,0 -3.8,1.88 -5.12,2.5 -1.32,0.62 -3.6,1.88 -4.03,2 -0.43,0.12 -0.81,0.06 -0.81,0.06 l -0.35,-0.69 c 0,0 -0.19,-0.11 -0.31,-0.31 -0.04,-0.06 -0.14,-0.34 -0.25,-0.56 0.45,-0.3 0.94,-0.63 1.09,-0.63 0.31,0 6.06,-2.7 10.44,-4.96 z" id="p3589" style="fill:#5b503f;fill-opacity:0.45;stroke:none" />
 <path d="m 31.854,40.113 c 0.09,0.69 0.25,0.87 0.25,0.87 l 0.07,0.81 0.53,0.38 c 0,0 -0.21,0.46 0.09,0.84 0.3,0.38 0.83,0.76 1.13,1.44 0.3,0.68 0.67,0.61 0.75,1.06 0.07,0.46 -0.09,0.74 0.22,0.97 0.3,0.23 0.63,0.75 0.78,1.13 0.15,0.37 0.22,1 0.22,1 l 0.15,0.53 0.1,1.34 -0.35,-0.69 c 0,0 -0.19,-0.11 -0.31,-0.31 -0.12,-0.19 -0.71,-1.45 -0.91,-1.69 -0.19,-0.23 -0.15,-0.53 -0.15,-0.53 l -0.22,-0.15 -0.56,-1.07 -0.1,-0.15 0.1,-0.22 -0.41,-0.41 0.03,-0.12 c 0,0 -0.27,-0.53 -0.66,-1.19 -0.38,-0.66 -1.21,-2 -1.21,-2 0,0 0.15,-0.15 0,-0.34 -0.14,-0.17 0,-1.05 0.46,-1.5 z" id="p3591" style="fill:#664d25;fill-opacity:0.680;stroke:none" />
 <path d="m 42.044,36.583 c -0.73,0.58 -1.66,0.89 -2.31,1.58 0.56,0.22 1.17,-0.47 1.75,-0.62 0.43,-0.24 1.47,-0.87 1.65,-0.18 -1.91,0.62 -3.8,1.35 -5.63,2.16 -0.74,0.34 -1.47,0.7 -2.18,1.09 2.62,-1.18 5.33,-2.14 7.97,-3.25 0.34,0.11 0.7,0.55 0.1,0.54 -2.91,1.13 -5.87,2.21 -8.54,3.86 3.23,-0.82 6.09,-2.54 9.07,-3.97 0.39,0.51 -0.86,0.67 -1.12,1.03 -2.94,1.66 -6.32,2.29 -9.28,3.9 -0.49,0.18 -1.39,0.8 -0.51,1.13 0.91,-0.06 1.5,-0.87 2.25,-1.31 1.2,-0.82 2.56,-1.39 3.87,-2 1.68,-0.72 3.4,-1.37 5.19,-1.75 0.43,-0.07 0.67,0.43 0.09,0.37 -3.2,0.98 -6.63,1.75 -9.24,3.98 1.04,0.81 2.49,0.4 3.55,-0.17 1.35,-0.72 2.76,-1.31 4.03,-2.17 0.76,-0.48 1.51,-0.99 2.26,-1.51 0.07,1.07 -1.18,1.34 -1.89,1.8 -2.68,1.49 -5.57,2.54 -8.47,3.5 -0.43,0.41 0.77,0.09 1.01,0.1 2.68,-0.37 4.98,-1.88 7.41,-2.95 0.9,-0.28 1.65,-1.06 2.62,-1.05 0.89,0.18 0.25,0.94 -0.34,1 -0.91,0.41 -1.85,0.79 -2.67,1.36 0.54,0.28 1.21,-0.32 1.78,-0.47 0.76,-0.33 1.58,-0.83 2.44,-0.66 0.55,0.54 -0.82,0.95 -1.16,1.27 -1.53,0.82 -3.2,1.36 -4.66,2.3 -1.05,0.56 -2.29,1 -2.94,2.06 -0.3,0.49 0.19,0.93 0.61,0.47 2.53,-1.05 4.64,-3.06 7.39,-3.6 -0.88,1.4 -2.59,1.77 -3.98,2.44 -1.28,0.68 -2.57,1.32 -3.85,1.97 -0.79,0.42 -1.57,0.85 -2.33,1.31 -0.61,-0.79 1.07,-0.97 0.87,-1.84 0,-0.95 -1.24,-1.08 -1.79,-0.49 -0.59,0.46 -0.79,-0.68 -0.04,-0.53 1.02,-0.13 1.99,-0.56 2.95,-0.92 2.19,-0.91 4.21,-2.16 6.29,-3.28 -3.1,1.05 -6.48,1.61 -9.13,3.66 -0.21,0.31 -1.11,0.85 -0.83,0.12 0.48,-0.39 1.2,-1.34 0.35,-1.74 -0.64,-0.09 -1.54,0.46 -1.67,-0.52 -0.45,-0.75 -0.85,-1.53 -1.37,-2.24 -0.36,-0.69 -0.41,-1.69 0.47,-2.04 0.71,-0.34 1.34,-1.09 2.2,-1 -0.18,1.05 1.24,0.83 1.78,0.42 1.61,-0.76 3.14,-1.66 4.61,-2.66 0.45,-0.18 0.91,-0.34 1.37,-0.5 z m 2.97,2.71 c -0.5,-0.49 1.07,-0.52 0.2,-0.13 -0.07,0.04 -0.13,0.09 -0.2,0.13 z m -4.84,-0.4 c -0.39,0.09 -1.04,0.18 -1.16,0.6 0.41,-0.15 0.77,-0.41 1.16,-0.6 z m -5.91,1.81 c -0.41,-0.25 -1.65,0.47 -0.98,0.65 0.38,-0.13 0.67,-0.41 0.98,-0.65 z m 11.56,0.22 c -1.7,0.88 -3.63,1.28 -5.24,2.35 0.11,0.31 1.13,-0.21 1.51,-0.3 1.33,-0.53 2.51,-1.34 3.73,-2.05 z m -12.03,0.47 c -0.66,-0.24 -1.39,1.35 -0.39,0.74 0.2,-0.13 1.27,-0.78 0.39,-0.74 z m 4.78,3.03 c -0.36,0.02 -1.25,0.37 -0.98,0.69 0.37,-0.09 1.33,-0.47 1.13,-0.7 l -0.15,0.01 z m 8.57,0.31 c -3.1,2.5 -6.91,3.79 -10.35,5.72 -0.56,0.18 -0.75,-0.11 -0.14,-0.26 3.5,-1.8 7.06,-3.51 10.49,-5.46 z m -3.04,0.81 c -1.26,0.56 -2.52,1.13 -3.69,1.88 1.27,-0.53 2.46,-1.26 3.69,-1.88 z m -4.9,0.57 c -0.28,0.06 -1.29,0.48 -1.02,0.45 0.34,-0.14 0.68,-0.3 1.02,-0.45 z" id="p3601" style="fill:#664d25;fill-opacity:0.120;stroke:none" />
 <path d="m 43.484,37.483 c 0.78,0.25 0.05,0.69 -0.41,0.59 -2.51,0.47 -5,1.13 -7.55,1.31 -1.39,0 -2.66,0.75 -3.56,1.76 -0.29,0.45 -0.89,0.11 -0.37,-0.27 0.51,-0.59 1.1,-1.24 1.9,-1.41 0.79,-0.21 1.58,-0.48 2.36,-0.69 0.87,-0.09 1.75,-0.12 2.58,-0.38 1.69,-0.28 3.37,-0.58 5.05,-0.91 z m 0.78,0.66 c 0.93,0.33 0.01,1.34 -0.5,1.61 -1.89,1.32 -4.23,1.64 -6.28,2.61 -1.56,0.64 -3.08,1.39 -4.47,2.34 -0.4,-0.98 1.08,-1.03 1.59,-1.52 2.57,-1.48 5.42,-2.32 8.19,-3.31 0.47,-0.21 0.26,-0.8 -0.19,-0.4 -3.47,1.48 -7.23,2.05 -10.84,3.11 -0.25,-1.01 1.34,-0.64 1.9,-1.04 3.19,-0.81 6.46,-1.43 9.48,-2.81 0.12,-0.47 0.69,-0.63 1.12,-0.59 z m 2.81,1.84 c 0.99,0.27 0.12,1.2 -0.45,1.37 -1.16,0.84 -2.48,1.49 -3.9,1.73 -2.77,0.72 -5.19,2.32 -7.65,3.73 -0.26,0.41 -1.21,0.41 -0.78,-0.18 2.32,-1.33 4.66,-2.65 7.13,-3.66 1.38,-0.46 2.84,-0.72 4.12,-1.43 -0.41,-0.89 -1.43,0.24 -2.12,0.22 -3.34,1.07 -6.59,2.44 -9.78,3.91 -0.75,-0.79 0.91,-0.89 1.38,-1.19 3.68,-1.61 7.46,-3.02 11.33,-4.12 0.14,-0.26 0.45,-0.38 0.72,-0.38 z m 0.5,1.16 c 0.7,0.57 -0.35,1.11 -0.74,1.49 -1.07,1.51 -2.8,2.31 -4.43,3.07 -2.35,1.17 -4.8,2.13 -7.05,3.5 -0.44,-0.96 1.1,-0.96 1.58,-1.46 2.21,-1.19 4.56,-2.11 6.74,-3.35 -2.88,1.42 -6.05,2.21 -8.78,3.94 -0.43,-0.77 0.65,-1 1.17,-1.19 0.53,-0.32 1.8,-0.72 1.97,-0.82 -1.18,0.43 -2.34,0.92 -3.49,1.41 -0.31,-0.97 1.14,-0.88 1.67,-1.31 3.37,-1.38 6.96,-2.3 10.09,-4.22 0.43,-0.34 0.7,-0.91 1.27,-1.06 z" id="p3627" style="fill:#f2dab3;fill-opacity:0.15;stroke:none" />
 <path d="m 46.114,45.933 c 0,0 -3.82,1.87 -5.14,2.49 -1.32,0.62 -3.58,1.87 -4.01,1.99 -0.43,0.11 -0.82,0.08 -0.82,0.08 l -0.35,-0.71 c 0,0 -0.19,-0.11 -0.31,-0.31 -0.12,-0.19 -0.7,-1.44 -0.9,-1.67 -0.19,-0.23 -0.15,-0.55 -0.15,-0.55 l -0.23,-0.15 -0.55,-1.05 -0.12,-0.16 0.12,-0.23 -0.43,-0.39 0.04,-0.12 c 0,0 -0.27,-0.54 -0.66,-1.21 -0.39,-0.66 -1.21,-1.98 -1.21,-1.98 0,0 0.16,-0.16 0,-0.35 -0.15,-0.2 0.04,-1.4 0.74,-1.71 0.7,-0.32 3.97,-1.17 5.34,-1.64 1.36,-0.47 4.67,-1.71 4.67,-1.71 l 6.19,4.32 -0.66,3.27 -1.56,1.79 z" id="stroke02-9" style="fill:none;stroke:#2f2111;stroke-width:0.400;stroke-linecap:butt;stroke-opacity:1" />
 <path d="m 75.784,28.543 c 0.44,2.29 -5.35,4.61 -5.98,4.9 -0.63,0.28 -6.78,2.62 -9.23,3.3 -2.45,0.69 -5.3,1.71 -6.21,4.05 -0.92,2.34 -0.69,2.16 -1.09,2.39 -0.39,0.23 -1.53,0.46 -1.53,0.46 0,0 -0.29,0.34 -0.63,0.45 -0.34,0.12 -0.4,0.06 -1.31,0.4 -0.91,0.35 -2.22,0.92 -2.51,1.14 -0.28,0.23 -1.37,0.46 -1.37,0.46 0,0 0.63,-0.29 0.17,-1.54 -0.45,-1.25 -0.45,-1.14 -2.22,-3.93 -1.76,-2.79 -2.62,-3.82 -2.62,-3.82 0,0 0.29,0.06 0.51,-0.17 0.23,-0.23 0.29,0.11 1.09,-0.28 0.79,-0.4 3.3,-1.43 3.3,-1.43 0,0 0.23,-0.11 0.51,-0.23 0.29,-0.11 1.03,-0.4 1.37,-0.62 0.34,-0.23 0.74,-0.29 1.83,0.11 1.08,0.4 3.07,1.48 7.4,-0.57 4.33,-2.05 10.05,-5.24 14.7,-5.87 2.41,-0.33 3.61,-0.32 3.82,0.8 z" id="p2567" style="fill:#e5b98a;stroke:none" />
 <path d="m 60.294,32.143 c -0.89,1.41 -1.92,2.86 -2.72,3.5 -1.36,1.09 -2.09,1.66 -1.68,3.19 -0.4,0.31 -0.75,0.66 -1.04,1.06 -0.14,-0.72 -0.11,-0.83 -0.75,-1.85 -0.4,-0.65 -1.42,-2.03 -2.43,-3.31 1.22,0.21 2.97,0.12 5.59,-1.12 0.95,-0.45 1.98,-0.96 3.03,-1.47 z" id="p3466" style="fill:#bc864c;fill-opacity:0.270;stroke:none" />
 <path d="m 65.764,29.613 c -1.33,0.74 -2.42,1.81 -3.67,2.66 1.25,-0.58 2.38,-1.43 3.73,-1.76 -0.33,1.31 1.37,1.77 2.28,1.37 0.66,0.27 1.3,1.47 0.45,1.87 0.63,-1.32 -1.35,-1.89 -2.22,-1.19 -1.58,0.57 -3.25,1.12 -4.58,2.2 -1.16,1.07 -2.37,2.09 -3.77,2.84 -1.48,0.85 -2.96,1.71 -4.38,2.65 -0.81,0.38 -1.54,1.38 -2.53,1.02 -0.93,-0.61 -1.93,0.14 -2.83,0.39 -1.32,0.49 -2.4,-1.44 -1.44,-2.39 1.53,-1.59 3.64,-2.45 5.19,-4.02 0.36,-0.44 1.19,0.09 0.42,0.29 -1.77,1.29 -3.55,2.57 -5.19,4.02 0.88,0.65 1.86,-0.24 2.4,-0.93 1.49,-1.61 3.27,-2.91 5.06,-4.17 0.26,1.08 -1.51,1.17 -1.95,2.01 -0.46,0.39 -1.52,1.2 -1.61,1.38 2.11,-1.33 4.05,-2.9 6.11,-4.31 0.85,0.15 -0.66,0.86 -0.89,1.12 -2.7,2.03 -5.53,3.88 -8.24,5.92 0.98,0.69 2.18,0 3,-0.62 2.19,-1.55 4.28,-3.22 6.48,-4.75 0.66,-0.24 0.29,-1.46 1.29,-1.37 2.44,-1.18 4.29,-3.34 6.89,-4.23 z m -5.59,6.56 c 0.26,-1.2 1.61,0.62 0.37,0.55 -0.68,0.39 -1.13,0.14 -0.37,-0.55 z m 1.5,-0.41 c 0.74,0.61 -1.3,0.78 -0.26,0.21 l 0.13,-0.1 0.13,-0.11 z m 4.31,-4.87 c -1.9,0.55 -3.57,1.65 -5.31,2.56 0.4,1.19 -1.1,1.6 -1.9,2 -2.76,1.43 -5.36,3.22 -7.48,5.49 1.62,-0.52 2.99,-1.58 4.43,-2.45 1.08,-0.72 2.15,-1.45 3.26,-2.13 -0.31,-1.04 0.93,-1.39 1.67,-1.66 1.98,-0.94 3.84,-2.19 5.33,-3.81 z m -16.5,3.15 c 0.21,0.82 -2.05,1.24 -0.8,1.83 1.05,-0.09 1.81,-1.15 2.89,-1.05 0.1,0.53 -1.18,0.84 -1.76,0.98 -0.88,0 -1.43,1.04 -2.3,0.78 -1.2,-0.62 -0.39,-1.97 0.71,-1.97 0.44,-0.14 0.9,-0.26 1.26,-0.57 z m 5.59,5.6 c -0.71,1.3 -1.94,2.19 -2.85,3.34 0.37,-0.43 1.77,-1.38 1.35,-0.12 -0.37,1 -2.58,0.6 -1.54,-0.49 0.86,-1.07 2.08,-1.77 3.04,-2.73 z" id="p3420" style="fill:#a8772b;fill-opacity:0.15;stroke:none" />
 <path d="m 75.764,28.483 c 0.01,0.02 0.03,0.04 0.03,0.06 0.44,2.3 -5.37,4.63 -6,4.91 -0.62,0.28 -6.77,2.6 -9.22,3.28 -2.45,0.69 -5.3,1.73 -6.22,4.06 -0.91,2.34 -0.69,2.15 -1.09,2.38 -0.4,0.23 -1.53,0.47 -1.53,0.47 0,0 -0.28,0.35 -0.63,0.47 -0.08,0.02 -0.15,0.01 -0.21,0.03 l -1.13,-2.35 c 0,0 2.77,-1.18 2.84,-1.34 0.08,-0.16 2.33,-2.98 3.04,-3.37 0.7,-0.4 6.66,-3.38 8,-3.85 1.33,-0.47 5.34,-2.42 6.28,-2.81 0.94,-0.39 1.34,0.08 2.12,-0.16 0.79,-0.23 1.25,-1.34 1.56,-1.5 0.25,-0.12 1.05,-0.23 2.16,-0.28 z" id="p3359" style="fill:#f8f6f0;fill-opacity:0.230;stroke:none" />
 <path d="m 75.794,28.703 c 0.16,2.24 -5.38,4.47 -6,4.75 -0.62,0.28 -6.77,2.6 -9.22,3.28 -2.45,0.69 -5.3,1.73 -6.22,4.06 -0.91,2.34 -0.69,2.15 -1.09,2.38 -0.23,0.13 -0.64,0.25 -1,0.34 -0.05,-0.9 0.02,-1.67 0.34,-1.81 0.95,-0.39 0.71,-1.08 1.1,-1.94 0.39,-0.86 2.9,-2.77 5.53,-3.67 2.27,-0.78 9.81,-3.84 11.14,-4.46 1.11,-0.52 3.28,-1.35 5.42,-2.93 z" id="p3356" style="fill:#3e2803;fill-opacity:0.370;stroke:none" />
 <path d="m 74.174,27.543 c 0.95,0.02 1.49,0.31 1.62,1 0.44,2.3 -5.37,4.63 -6,4.91 -0.17,0.08 -1.37,0.52 -2.22,0.84 -0.08,-1.17 -0.28,-2.01 -0.84,-2.62 -0.61,-0.67 -1.18,-1.36 -1.75,-1.75 2.39,-1.04 4.79,-1.89 6.97,-2.19 0.9,-0.12 1.64,-0.2 2.22,-0.19 z" id="p3342" style="fill:#003856;stroke:none" />
 <path d="m 75.764,28.483 c 0.01,0.02 0.03,0.04 0.03,0.06 0.44,2.3 -5.37,4.63 -6,4.91 -0.17,0.08 -1.37,0.52 -2.22,0.84 -0.07,-1.07 -0.25,-1.87 -0.72,-2.46 1.31,-0.61 2.59,-1.21 3.07,-1.41 0.94,-0.39 1.34,0.08 2.12,-0.16 0.79,-0.23 1.25,-1.34 1.56,-1.5 0.25,-0.12 1.05,-0.23 2.16,-0.28 z" id="p3369" style="fill:#a4b1d4;fill-opacity:0.3;stroke:none" />
 <path d="m 75.794,28.703 c 0.04,0.68 -0.39,1.27 -0.85,1.73 -0.5,0.49 -1.09,0.9 -1.68,1.29 -1.25,0.73 -2.55,1.36 -3.89,1.9 -0.6,0.22 -1.2,0.45 -1.8,0.67 -0.03,-0.47 -0.09,-0.94 -0.22,-1.4 0.96,-0.41 1.87,-0.6 2.94,-1 1.07,-0.39 2.25,-0.84 3.31,-1.5 0.75,-0.47 1.48,-1.16 2.19,-1.69 z" id="p3374-2" style="fill:#000b28;fill-opacity:0.5;stroke:none" />
 <path d="m 70.144,29.103 c 0.08,0.56 0.77,1.02 1.53,1.02 0.76,0 1.3,-0.46 1.22,-1.02 -0.09,-0.57 -0.76,-1.02 -1.52,-1.02 -0.76,0 -1.32,0.45 -1.23,1.02 z" id="p3472" style="fill:#59c3dc;fill-opacity:0.3;marker:none;" />
 <path d="m 70.734,28.393 c 0,0 0.85,0.85 0.66,1.25 -0.2,0.39 0.62,0.63 0.71,-0.16 0.08,-0.62 0.23,-0.87 0.41,-0.97 0.2,0.17 0.37,0.37 0.41,0.6 0.08,0.56 -0.49,1 -1.25,1 -0.76,0 -1.42,-0.44 -1.5,-1 -0.01,-0.07 -0.04,-0.16 -0.03,-0.22 0.17,-0.39 0.59,-0.5 0.59,-0.5 z" id="p3482" style="fill:#021d2b;fill-opacity:0.479;stroke:none" />
 <path d="m 71.204,28.483 c 0.18,-0.02 0.37,-0.01 0.56,0.03 0.57,0.13 0.98,0.53 1.09,0.97 -0.15,0.37 -0.61,0.63 -1.18,0.63 -0.73,0 -1.37,-0.41 -1.5,-0.94 0.15,-0.38 0.55,-0.64 1.03,-0.69 z" id="p3491" style="fill:#021d2b;fill-opacity:0.479;marker:none;" />
 <path d="m 70.564,29.393 c 0.06,0.37 0.51,0.67 1.01,0.67 0.51,0 0.87,-0.3 0.81,-0.67 -0.06,-0.37 -0.51,-0.68 -1.01,-0.68 -0.5,0 -0.86,0.31 -0.81,0.68 l 0,0 z" id="p3474" style="fill:#000000;fill-opacity:0.930;marker:none;" />
 <path d="m 68.764,28.643 c 0.37,0.03 0.52,0.12 0.69,0.34 0.34,0.45 0.7,0.89 0.4,0.94 -0.23,0.04 -2.38,0.99 -3.34,1.5 -0.52,-0.58 -1.03,-1.16 -1.53,-1.5 1.11,-0.48 2.22,-0.92 3.31,-1.28 0.12,0 0.38,-0.01 0.47,0 z" id="p3498" style="fill:#1ea0d3;fill-opacity:0.070;stroke:none" />
 <path d="m 75.794,28.583 c 0.02,0.09 0.01,0.18 0,0.28 -1.11,1.17 -2.56,2.26 -2.97,2.47 -0.45,0.22 -4.33,1.7 -5.37,2.09 -0.05,-0.32 -0.12,-0.62 -0.22,-0.88 0.53,-0.07 1.48,-0.27 3.09,-0.87 1.94,-0.72 4.42,-1.98 5.47,-3.09 z" id="p3503" style="fill:#012a3b;fill-opacity:0.560;stroke:none" />
 <path d="m 47.674,34.263 c 1.35,1.94 3.87,5.52 4.5,6.44 0.56,0.83 0.7,1.69 0.53,2.69 -0.46,0.13 -0.97,0.25 -0.97,0.25 0,0 -0.28,0.35 -0.63,0.47 -0.34,0.11 -0.4,0.03 -1.31,0.37 -0.91,0.34 -2.21,0.93 -2.5,1.16 -0.28,0.23 -1.37,0.44 -1.37,0.44 0,0 0.64,-0.28 0.18,-1.54 -0.45,-1.25 -0.45,-1.14 -2.21,-3.93 -1.77,-2.8 -2.63,-3.82 -2.63,-3.82 0,0 0.27,0.08 0.5,-0.15 0.23,-0.23 0.3,0.12 1.09,-0.28 0.8,-0.4 3.29,-1.44 3.29,-1.44 0,0 0.24,-0.11 0.53,-0.22 0.21,-0.08 0.63,-0.26 1,-0.44 z" id="p3344" style="fill:#898584;stroke:none" />
 <path d="m 46.394,34.923 c 1.35,1.93 3.77,5.39 4.39,6.31 0.57,0.83 0.67,1.6 0.49,2.6" id="p3509" style="fill:none;stroke:#1a1b1b;stroke-width:0.69;stroke-linecap:round;stroke-opacity:0.810" />
 <path d="m 46.804,45.763 c 0,0 0.45,-0.34 0.12,-1.38 -0.4,-1.27 -0.45,-1.15 -2.22,-3.94 -1.77,-2.79 -2.58,-3.73 -2.58,-3.73" id="p3515" style="fill:none;stroke:#1a1b1b;stroke-width:0.69;stroke-linecap:round;stroke-opacity:0.810" />
 <path d="m 51.394,39.583 c 0.14,0.2 0.43,0.63 0.53,0.78 -0.83,0.47 -1.42,0.71 -1.94,0.84 -0.68,0.17 -2.59,1.46 -2.84,1.5 -0.25,0.04 -1.48,0.49 -1.6,0.53 -0.06,-0.12 -0.28,-0.41 -0.37,-0.56 l -0.13,-0.28 c 0,0 1.36,0.17 2.38,-0.47 1.02,-0.64 2.52,-1.53 2.9,-1.66 0.2,-0.06 0.64,-0.37 1.07,-0.68 z" id="p3555" style="fill:#454548;fill-opacity:0.220;stroke:none" />
 <path d="m 48.274,45.013 c 0,0 0.4,-0.34 0.03,-1.36 -0.45,-1.25 -0.45,-1.15 -2.22,-3.94 -1.76,-2.79 -2.41,-3.55 -2.41,-3.55" id="p3517" style="fill:none;stroke:#1a1b1b;stroke-width:0.69;stroke-linecap:round;stroke-opacity:0.810" />
 <path d="m 46.394,34.923 c 1.35,1.93 3.77,5.39 4.39,6.31 0.57,0.83 0.67,1.6 0.49,2.6" id="p3525" style="fill:none;stroke:#f4f5f5;stroke-width:0.300;stroke-linecap:round;stroke-opacity:0.680" />
 <path d="m 46.804,45.763 c 0,0 0.45,-0.34 0.12,-1.38 -0.4,-1.27 -0.45,-1.15 -2.22,-3.94 -1.77,-2.79 -2.58,-3.73 -2.58,-3.73" id="p3527" style="fill:none;stroke:#f4f5f5;stroke-width:0.300;stroke-linecap:round;stroke-opacity:0.680" />
 <path d="m 48.274,45.013 c 0,0 0.4,-0.34 0.03,-1.36 -0.45,-1.25 -0.45,-1.15 -2.22,-3.94 -1.76,-2.79 -2.41,-3.55 -2.41,-3.55" id="p3529" style="fill:none;stroke:#f4f5f5;stroke-width:0.300;stroke-linecap:round;stroke-opacity:0.680" />
 <path d="m 52.264,40.863 c 0.19,0.31 0.29,0.64 0.38,0.97 -0.45,-0.19 -0.94,-0.25 -1.25,-0.25 -0.13,0 -0.21,-0.02 -0.25,0 -0.18,0.04 -0.25,0.66 -0.6,0.75 -0.34,0.08 -2.22,0.84 -2.22,0.84 0,0 -0.24,-0.51 -0.37,-0.38 -0.13,0.13 0.12,0.3 -0.22,0.47 -0.34,0.17 -0.92,0.1 -1.22,0.32 -0.16,0.11 -0.39,0.36 -0.56,0.59 -0.05,-0.14 -0.1,-0.32 -0.16,-0.44 0.33,-0.22 0.34,-0.49 0.47,-0.59 0.17,-0.13 0.36,0.18 0.66,0.09 0.3,-0.08 0.62,-0.14 0.62,-0.31 0,-0.17 0.03,-0.31 0.28,-0.22 0.26,0.09 0.29,-0.13 0.5,-0.22 0.22,-0.08 0.95,-0.56 1.38,-0.69 0.43,-0.13 1.13,-0.3 1.34,-0.34 0.22,-0.04 0.31,-0.21 0.66,-0.34 0.19,-0.08 0.35,-0.14 0.56,-0.25 z m 0.38,0.97 c 0.05,0.22 0.11,0.44 0.12,0.68 -0.01,-0.23 -0.07,-0.46 -0.12,-0.68 z" id="p3531" style="fill:#f5f5f8;fill-opacity:0.860;stroke:none" />
 <path d="m 51.394,41.583 c 0.31,0 0.8,0.06 1.25,0.25 0.12,0.49 0.16,1 0.06,1.56 -0.46,0.13 -0.97,0.25 -0.97,0.25 0,0 -0.28,0.35 -0.63,0.47 -0.34,0.11 -0.4,0.03 -1.31,0.37 -0.91,0.34 -2.21,0.93 -2.5,1.16 -0.28,0.23 -1.37,0.44 -1.37,0.44 0,0 0.64,-0.28 0.18,-1.54 -0.05,-0.16 -0.1,-0.25 -0.15,-0.37 0.17,-0.23 0.4,-0.48 0.56,-0.59 0.3,-0.22 0.88,-0.15 1.22,-0.32 0.34,-0.17 0.09,-0.34 0.22,-0.47 0.13,-0.13 0.37,0.38 0.37,0.38 0,0 1.88,-0.76 2.22,-0.84 0.35,-0.09 0.42,-0.71 0.6,-0.75 0.04,-0.02 0.12,0 0.25,0 z" id="p3534" style="fill:#afafb2;fill-opacity:0.370;stroke:none" />
 <path d="m 51.014,41.703 c 0.08,0.04 0.13,0.24 0.16,0.5 0.04,0.33 0.27,0.12 0.4,-0.09 l -0.15,0.43 -2.91,1.19 -0.31,0 -0.19,0.19 -1.81,0.97 c -0.03,-0.11 -0.05,-0.22 -0.1,-0.35 -0.02,-0.06 -0.04,-0.09 -0.06,-0.15 0.06,-0.03 0.12,-0.07 0.19,-0.1 1.03,-0.34 1.75,-0.62 1.75,-0.62 l 0.41,0 0.03,-0.31 c 0,0 1.8,-0.61 2.28,-0.78 0.47,-0.18 0.09,-0.79 0.22,-0.88 0.03,-0.02 0.06,-0.01 0.09,0 z m 0.56,0.41 c 0.01,-0.01 0,-0.03 0,-0.03 0.1,-0.17 0.59,-0.25 1.07,-0.29 0.01,0.06 0.05,0.11 0.06,0.16 l -1.06,0.5 -0.07,-0.34 z" id="p3537" style="fill:#030304;fill-opacity:0.860;stroke:none" />
 <path d="m 50.114,41.223 c -0.57,-0.29 -1.73,-0.11 -2.48,-0.81 -0.76,-0.69 -2.47,-3.06 -2.47,-3.06 l 3.06,4.75 c 0,0 0.79,-0.59 1.89,-0.88 z" id="p3552" style="fill:#454548;fill-opacity:0.35;stroke:none" />
 <path d="m 49.884,38.913 c -0.01,0.26 0.23,0.48 0.52,0.48 0.3,0 0.54,-0.22 0.55,-0.48 0.01,-0.27 -0.22,-0.48 -0.51,-0.48 -0.3,0 -0.55,0.21 -0.56,0.48 z" id="p3566" style="fill:#fafafa;fill-opacity:0.860;marker:none;" />
 <path d="m 50.184,39.053 c -0.01,0.19 0.17,0.35 0.4,0.35 0.23,0 0.42,-0.16 0.43,-0.35 0.01,-0.2 -0.17,-0.36 -0.4,-0.36 -0.23,0 -0.42,0.16 -0.43,0.36 z" id="p3568" style="fill:#353535;fill-opacity:0.860;marker:none;" />
 <path d="m 50.324,38.923 c -0.01,0.12 0.1,0.21 0.24,0.21 0.14,0 0.26,-0.09 0.26,-0.21 0.01,-0.12 -0.1,-0.21 -0.24,-0.21 -0.14,0 -0.26,0.09 -0.26,0.21 z" id="p3570" style="fill:#8f8f8f;fill-opacity:0.860;marker:none;" />
 <path d="m 47.934,36.173 c -0.01,0.26 0.23,0.48 0.52,0.48 0.3,0 0.54,-0.22 0.55,-0.48 0.01,-0.27 -0.22,-0.48 -0.51,-0.48 -0.3,0 -0.55,0.21 -0.56,0.48 z" id="p3575" style="fill:#fafafa;fill-opacity:0.860;marker:none;" />
 <path d="m 48.224,36.303 c -0.01,0.19 0.17,0.35 0.4,0.35 0.23,0 0.42,-0.16 0.43,-0.35 0.01,-0.2 -0.17,-0.36 -0.4,-0.36 -0.23,0 -0.42,0.16 -0.43,0.36 z" id="p3577" style="fill:#353535;fill-opacity:0.860;marker:none;" />
 <path d="m 48.374,36.163 c -0.01,0.12 0.1,0.21 0.24,0.21 0.14,0 0.26,-0.09 0.26,-0.21 0.01,-0.12 -0.1,-0.21 -0.24,-0.21 -0.14,0 -0.26,0.09 -0.26,0.21 z" id="p3579" style="fill:#8f8f8f;fill-opacity:0.860;marker:none;" />
 <path d="m 75.784,28.543 c 0.44,2.29 -5.35,4.61 -5.98,4.9 -0.63,0.28 -6.78,2.62 -9.23,3.3 -2.45,0.69 -5.3,1.71 -6.21,4.05 -0.92,2.34 -0.69,2.16 -1.09,2.39 -0.39,0.23 -1.53,0.46 -1.53,0.46 0,0 -0.29,0.34 -0.63,0.45 -0.34,0.12 -0.4,0.06 -1.31,0.4 -0.91,0.35 -2.22,0.92 -2.51,1.14 -0.28,0.23 -1.37,0.46 -1.37,0.46 0,0 0.63,-0.29 0.17,-1.54 -0.45,-1.25 -0.45,-1.14 -2.22,-3.93 -1.76,-2.79 -2.62,-3.82 -2.62,-3.82 0,0 0.29,0.06 0.51,-0.17 0.23,-0.23 0.29,0.11 1.09,-0.28 0.79,-0.4 3.3,-1.43 3.3,-1.43 0,0 0.23,-0.11 0.51,-0.23 0.29,-0.11 1.03,-0.4 1.37,-0.62 0.34,-0.23 0.74,-0.29 1.83,0.11 1.08,0.4 3.07,1.48 7.4,-0.57 4.33,-2.05 10.05,-5.24 14.7,-5.87 2.41,-0.33 3.61,-0.32 3.82,0.8 z" id="stroke01" style="fill:none;stroke:#1f2123;stroke-width:0.5;stroke-linecap:butt;stroke-linejoin:bevel;stroke-opacity:1" />
 </g>
 <use height="100%" width="100%" transform="matrix(0.991,0.128,-0.128,0.991,-22.153,-7.379)" id="use3865" xlink:href="#g3824" y="0" x="0" />
 <path id="path4871" d="m 9.689,20.117 -0.581,1.111 1.387,0 -1.728,5.045 1.588,0 1.719,-4.909 c 0.061,-0.175 0.091,-0.336 0.091,-0.485 0,-0.236 -0.072,-0.424 -0.218,-0.564 -0.137,-0.131 -0.319,-0.196 -0.546,-0.196 l -1.710,0 z m 5.973,0.698 -1.282,1.461 -1.931,-0.227 0.993,1.672 -0.813,1.766 1.897,-0.429 1.429,1.320 0.178,-1.937 1.696,-0.950 -1.787,-0.768 -0.379,-1.907 z" style="font-style:normal;font-variant:normal;font-weight:bold;font-stretch:semi-expanded;font-size:medium;line-height:125%;font-family:Magneto;-inkscape-font-specification:'Magneto Bold Semi-Expanded';letter-spacing:0px;word-spacing:0px;fill:#333333;stroke-width:1px;stroke-linecap:butt;stroke-opacity:1" />
 <path id="path4876" d="m 67.444,44.010 c -0.720,0 -1.234,0.058 -1.540,0.175 -0.455,0.169 -0.682,0.497 -0.682,0.984 0,0.297 0.119,0.548 0.358,0.752 0.227,0.195 0.493,0.293 0.796,0.293 0.309,0 0.577,-0.097 0.805,-0.293 0.242,-0.204 0.363,-0.454 0.363,-0.752 0,-0.043 -0.008,-0.106 -0.022,-0.188 l 0.057,0 c 0.440,0 0.660,0.285 0.660,0.857 10e-7,0.551 -0.411,1.185 -1.233,1.899 -0.685,0.595 -1.355,1.025 -2.008,1.290 l -0.376,1.247 4.569,0 0.450,-1.273 -2.993,0 c 0.860,-0.230 1.628,-0.629 2.302,-1.198 0.799,-0.673 1.198,-1.402 1.198,-2.187 0,-0.708 -0.343,-1.181 -1.032,-1.418 -0.361,-0.125 -0.919,-0.188 -1.671,-0.188 z m 6.132,0.916 -1.283,1.461 -1.931,-0.227 0.994,1.671 -0.813,1.766 1.897,-0.428 1.428,1.320 0.178,-1.937 1.696,-0.950 -1.787,-0.768 -0.379,-1.907 z" style="font-style:normal;font-variant:normal;font-weight:bold;font-stretch:semi-expanded;font-size:medium;line-height:125%;font-family:Magneto;-inkscape-font-specification:'Magneto Bold Semi-Expanded';letter-spacing:0px;word-spacing:0px;fill:#333333;stroke-width:1px;stroke-linecap:butt;stroke-opacity:1" />
 </g>
</svg>
