<?xml version="1.0" encoding="UTF-8" standalone="no"?>

<svg xmlns:svg="http://www.w3.org/2000/svg" xmlns="http://www.w3.org/2000/svg" version="1.0" width="100%" height="100%" viewBox="0 0 48 48" id="svg2383">
<defs id="defs2385"/>
<rect width="44" height="44" ry="2.5" x="2" y="2" id="r2393" style="fill:#e6e7ca;fill-opacity:1;fill-rule:evenodd;stroke:#ffffff;stroke-width:4;stroke-linecap:round;stroke-linejoin:miter;marker:none;stroke-miterlimit:4;stroke-dasharray:none;stroke-dashoffset:0;stroke-opacity:1;visibility:visible;display:inline;overflow:visible;enable-background:accumulate"/>
<path d="M 6.37,11.65 C 6.37,19.11 6.37,26.57 6.37,34.03 C 6.84,34.03 7.31,34.03 7.78,34.03 C 9.22,33.86 10.75,34.70 12.06,32.53 C 13.44,30.02 13.67,24.80 13.5,20.53 C 13.40,16.32 12.31,12.17 10.78,11.81 C 9.31,11.49 7.84,11.72 6.37,11.65 z M 21.81,11.65 C 21.81,19.11 21.81,26.57 21.81,34.03 C 22.43,34.03 23.03,34.03 23.65,34.03 C 24.00,34.07 23.75,32.33 23.84,31.62 C 24.50,34.61 26.01,35.27 26.96,33.12 C 28.10,30.33 28.23,25.26 27.75,21.43 C 27.20,17.18 25.04,16.06 24,19.40 C 24,16.82 23.99,14.23 24,11.65 C 23.27,11.65 22.53,11.65 21.81,11.65 z M 8.78,16.71 C 9.48,16.73 10.36,16.47 10.81,18.40 C 11.23,20.97 11.19,24.08 10.93,26.78 C 10.59,29.35 9.55,28.89 8.78,28.93 C 8.78,24.86 8.78,20.79 8.78,16.71 z M 17.5,17.43 C 17.01,17.49 16.54,17.75 16.09,18.18 C 14.41,19.97 13.93,26.43 14.81,30.59 C 15.44,33.98 16.88,34.63 18.09,34.34 C 19.20,34.37 20.27,32.74 20.78,29.84 C 20.36,29.73 19.95,29.61 19.53,29.5 C 19.11,29.51 18.61,28.78 18.37,30.12 C 17.65,31.77 16.52,30.08 16.56,27.46 C 18.00,27.46 19.46,27.46 20.90,27.46 C 20.94,24.41 20.74,20.97 19.81,19.09 C 19.13,17.83 18.30,17.34 17.5,17.43 z M 38.28,17.43 C 37.68,17.50 37.08,18.16 36.68,19.43 C 35.87,22.24 35.88,26.49 36.37,29.71 C 36.92,33.36 38.70,34.58 39.75,31.96 C 40.20,30.05 40.03,32.27 40.06,33.34 C 40.38,36.49 38.65,38.21 38.31,35.09 C 37.77,34.91 37.22,34.73 36.68,34.56 C 35.70,33.60 36.34,38.36 36.84,39.12 C 37.82,40.94 39.07,40.68 40.18,40.37 C 41.25,40.15 42.16,37.66 42.25,34.59 C 42.27,29.00 42.24,23.40 42.25,17.81 C 41.57,17.81 40.89,17.81 40.21,17.81 C 40.21,18.61 40.21,19.42 40.21,20.21 C 39.80,18.27 39.04,17.35 38.28,17.43 z M 29.03,17.81 C 29.03,19.42 29.03,21.04 29.03,22.65 C 29.08,25.59 28.88,28.63 29.21,31.46 C 29.80,35.38 31.89,35.19 32.75,32.15 C 33.13,30.39 32.91,33.24 32.96,34.03 C 33.64,34.03 34.32,34.03 35,34.03 C 35,28.63 35.00,23.21 35,17.81 C 34.28,17.81 33.56,17.81 32.84,17.81 C 32.84,20.30 32.84,22.81 32.84,25.31 C 33.21,28.15 31.73,31.53 31.25,28.03 C 31.14,24.64 31.21,21.21 31.18,17.81 C 30.46,17.81 29.75,17.81 29.03,17.81 z M 17.56,21.15 C 18.15,21.06 18.79,22.50 18.71,24.5 C 18.22,24.5 17.71,24.5 17.21,24.5 C 16.60,24.91 16.38,23.93 16.84,22.31 C 17.02,21.54 17.29,21.19 17.56,21.15 z M 39.12,21.93 C 39.79,22.04 40.35,24.75 40.06,26.81 C 39.88,30.55 37.91,29.18 38.18,25.68 C 38.19,24.71 38.22,23.61 38.43,22.81 C 38.65,22.14 38.90,21.90 39.12,21.93 z M 25,22.09 C 25.76,22.25 26.09,26.00 25.75,28.06 C 25.32,31.64 23.65,29.04 23.96,25.87 C 23.96,24.70 24.05,23.37 24.40,22.62 C 24.62,22.21 24.82,22.05 25,22.09 z" id="text2384" style="font-size:18.42px;font-style:normal;font-variant:normal;font-weight:normal;font-stretch:normal;text-align:start;line-height:80.00%;writing-mode:lr-tb;text-anchor:start;fill:#666666;fill-opacity:1;stroke:none;font-family:Arial Black;-inkscape-font-specification:Arial Black"/>
</svg>
