<?xml version="1.0" encoding="UTF-8" standalone="no"?>
<!-- Created with Inkscape (http://www.inkscape.org/) -->
<svg
   xmlns:svg="http://www.w3.org/2000/svg"
   xmlns="http://www.w3.org/2000/svg"
   version="1.0"
   width="100%"
   height="100%"
   viewBox="0 0 96 96"
   id="svg2383">
  <defs
     id="defs2385" />
  <g
     transform="translate(40.85,76.8)"
     id="use2687">
    <path
       d="M 4.59,-1.18 C 4.42,-1.18 4.27,-1.13 4.12,-1.09 L 1.09,0.09 C 0.45,0.3 -1.73e-18,0.88 0,1.59 L 0,7.65 C 0,8.54 0.7,9.25 1.59,9.25 L 7.65,9.25 L 8.25,9.12 C 9.28,8.71 10.33,8.3 11.37,7.9 C 11.89,7.63 12.25,7.06 12.25,6.43 L 12.25,0.4 C 12.25,-0.48 11.54,-1.18 10.65,-1.18 L 4.59,-1.18 z"
       id="path2403"
       style="fill:#0d3964;fill-opacity:1" />
    <rect
       width="9.25"
       height="9.25"
       ry="1.6"
       x="0"
       y="0"
       id="rect2405"
       style="fill:#007bff;fill-opacity:1" />
    <path
       d="M 4.59,-1.18 C 4.42,-1.18 4.27,-1.13 4.12,-1.09 L 1.09,0.09 C 0.45,0.3 -1.73e-18,0.88 0,1.59 L 0,7.65 C 0,8.54 0.7,9.25 1.59,9.25 L 7.65,9.25 L 8.25,9.12 C 9.28,8.71 10.33,8.3 11.37,7.9 C 11.89,7.63 12.25,7.06 12.25,6.43 L 12.25,0.4 C 12.25,-0.48 11.54,-1.18 10.65,-1.18 L 4.59,-1.18 z"
       id="path2407"
       style="fill:none;stroke:#042d43;stroke-width:0.30000001;stroke-opacity:1" />
  </g>
  <g
     transform="translate(40.85,67.41)"
     id="use2685">
    <path
       d="M 4.59,-1.18 C 4.42,-1.18 4.27,-1.13 4.12,-1.09 L 1.09,0.09 C 0.45,0.3 -1.73e-18,0.88 0,1.59 L 0,7.65 C 0,8.54 0.7,9.25 1.59,9.25 L 7.65,9.25 L 8.25,9.12 C 9.28,8.71 10.33,8.3 11.37,7.9 C 11.89,7.63 12.25,7.06 12.25,6.43 L 12.25,0.4 C 12.25,-0.48 11.54,-1.18 10.65,-1.18 L 4.59,-1.18 z"
       id="path2411"
       style="fill:#0d3964;fill-opacity:1" />
    <rect
       width="9.25"
       height="9.25"
       ry="1.6"
       x="0"
       y="0"
       id="rect2413"
       style="fill:#007bff;fill-opacity:1" />
    <path
       d="M 4.59,-1.18 C 4.42,-1.18 4.27,-1.13 4.12,-1.09 L 1.09,0.09 C 0.45,0.3 -1.73e-18,0.88 0,1.59 L 0,7.65 C 0,8.54 0.7,9.25 1.59,9.25 L 7.65,9.25 L 8.25,9.12 C 9.28,8.71 10.33,8.3 11.37,7.9 C 11.89,7.63 12.25,7.06 12.25,6.43 L 12.25,0.4 C 12.25,-0.48 11.54,-1.18 10.65,-1.18 L 4.59,-1.18 z"
       id="path2415"
       style="fill:none;stroke:#042d43;stroke-width:0.30000001;stroke-opacity:1" />
  </g>
  <g
     transform="translate(40.85,58.03)"
     id="use2683">
    <path
       d="M 4.59,-1.18 C 4.42,-1.18 4.27,-1.13 4.12,-1.09 L 1.09,0.09 C 0.45,0.3 -1.73e-18,0.88 0,1.59 L 0,7.65 C 0,8.54 0.7,9.25 1.59,9.25 L 7.65,9.25 L 8.25,9.12 C 9.28,8.71 10.33,8.3 11.37,7.9 C 11.89,7.63 12.25,7.06 12.25,6.43 L 12.25,0.4 C 12.25,-0.48 11.54,-1.18 10.65,-1.18 L 4.59,-1.18 z"
       id="path2419"
       style="fill:#0d3964;fill-opacity:1" />
    <rect
       width="9.25"
       height="9.25"
       ry="1.6"
       x="0"
       y="0"
       id="rect2421"
       style="fill:#007bff;fill-opacity:1" />
    <path
       d="M 4.59,-1.18 C 4.42,-1.18 4.27,-1.13 4.12,-1.09 L 1.09,0.09 C 0.45,0.3 -1.73e-18,0.88 0,1.59 L 0,7.65 C 0,8.54 0.7,9.25 1.59,9.25 L 7.65,9.25 L 8.25,9.12 C 9.28,8.71 10.33,8.3 11.37,7.9 C 11.89,7.63 12.25,7.06 12.25,6.43 L 12.25,0.4 C 12.25,-0.48 11.54,-1.18 10.65,-1.18 L 4.59,-1.18 z"
       id="path2423"
       style="fill:none;stroke:#042d43;stroke-width:0.30000001;stroke-opacity:1" />
  </g>
  <g
     transform="translate(40.85,48.64)"
     id="use2681">
    <path
       d="M 4.59,-1.18 C 4.42,-1.18 4.27,-1.13 4.12,-1.09 L 1.09,0.09 C 0.45,0.3 -1.73e-18,0.88 0,1.59 L 0,7.65 C 0,8.54 0.7,9.25 1.59,9.25 L 7.65,9.25 L 8.25,9.12 C 9.28,8.71 10.33,8.3 11.37,7.9 C 11.89,7.63 12.25,7.06 12.25,6.43 L 12.25,0.4 C 12.25,-0.48 11.54,-1.18 10.65,-1.18 L 4.59,-1.18 z"
       id="path2427"
       style="fill:#0d3964;fill-opacity:1" />
    <rect
       width="9.25"
       height="9.25"
       ry="1.6"
       x="0"
       y="0"
       id="rect2429"
       style="fill:#007bff;fill-opacity:1" />
    <path
       d="M 4.59,-1.18 C 4.42,-1.18 4.27,-1.13 4.12,-1.09 L 1.09,0.09 C 0.45,0.3 -1.73e-18,0.88 0,1.59 L 0,7.65 C 0,8.54 0.7,9.25 1.59,9.25 L 7.65,9.25 L 8.25,9.12 C 9.28,8.71 10.33,8.3 11.37,7.9 C 11.89,7.63 12.25,7.06 12.25,6.43 L 12.25,0.4 C 12.25,-0.48 11.54,-1.18 10.65,-1.18 L 4.59,-1.18 z"
       id="path2431"
       style="fill:none;stroke:#042d43;stroke-width:0.30000001;stroke-opacity:1" />
  </g>
  <g
     transform="translate(40.85,39.25)"
     id="use2679">
    <path
       d="M 4.59,-1.18 C 4.42,-1.18 4.27,-1.13 4.12,-1.09 L 1.09,0.09 C 0.45,0.3 -1.73e-18,0.88 0,1.59 L 0,7.65 C 0,8.54 0.7,9.25 1.59,9.25 L 7.65,9.25 L 8.25,9.12 C 9.28,8.71 10.33,8.3 11.37,7.9 C 11.89,7.63 12.25,7.06 12.25,6.43 L 12.25,0.4 C 12.25,-0.48 11.54,-1.18 10.65,-1.18 L 4.59,-1.18 z"
       id="path2435"
       style="fill:#0d3964;fill-opacity:1" />
    <rect
       width="9.25"
       height="9.25"
       ry="1.6"
       x="0"
       y="0"
       id="rect2437"
       style="fill:#007bff;fill-opacity:1" />
    <path
       d="M 4.59,-1.18 C 4.42,-1.18 4.27,-1.13 4.12,-1.09 L 1.09,0.09 C 0.45,0.3 -1.73e-18,0.88 0,1.59 L 0,7.65 C 0,8.54 0.7,9.25 1.59,9.25 L 7.65,9.25 L 8.25,9.12 C 9.28,8.71 10.33,8.3 11.37,7.9 C 11.89,7.63 12.25,7.06 12.25,6.43 L 12.25,0.4 C 12.25,-0.48 11.54,-1.18 10.65,-1.18 L 4.59,-1.18 z"
       id="path2439"
       style="fill:none;stroke:#042d43;stroke-width:0.30000001;stroke-opacity:1" />
  </g>
  <g
     transform="translate(40.85,29.87)"
     id="use2677">
    <path
       d="M 4.59,-1.18 C 4.42,-1.18 4.27,-1.13 4.12,-1.09 L 1.09,0.09 C 0.45,0.3 -1.73e-18,0.88 0,1.59 L 0,7.65 C 0,8.54 0.7,9.25 1.59,9.25 L 7.65,9.25 L 8.25,9.12 C 9.28,8.71 10.33,8.3 11.37,7.9 C 11.89,7.63 12.25,7.06 12.25,6.43 L 12.25,0.4 C 12.25,-0.48 11.54,-1.18 10.65,-1.18 L 4.59,-1.18 z"
       id="path2443"
       style="fill:#0d3964;fill-opacity:1" />
    <rect
       width="9.25"
       height="9.25"
       ry="1.6"
       x="0"
       y="0"
       id="rect2445"
       style="fill:#007bff;fill-opacity:1" />
    <path
       d="M 4.59,-1.18 C 4.42,-1.18 4.27,-1.13 4.12,-1.09 L 1.09,0.09 C 0.45,0.3 -1.73e-18,0.88 0,1.59 L 0,7.65 C 0,8.54 0.7,9.25 1.59,9.25 L 7.65,9.25 L 8.25,9.12 C 9.28,8.71 10.33,8.3 11.37,7.9 C 11.89,7.63 12.25,7.06 12.25,6.43 L 12.25,0.4 C 12.25,-0.48 11.54,-1.18 10.65,-1.18 L 4.59,-1.18 z"
       id="path2447"
       style="fill:none;stroke:#042d43;stroke-width:0.30000001;stroke-opacity:1" />
  </g>
  <g
     transform="translate(40.85,20.48)"
     id="use2675">
    <path
       d="M 4.59,-1.18 C 4.42,-1.18 4.27,-1.13 4.12,-1.09 L 1.09,0.09 C 0.45,0.3 -1.73e-18,0.88 0,1.59 L 0,7.65 C 0,8.54 0.7,9.25 1.59,9.25 L 7.65,9.25 L 8.25,9.12 C 9.28,8.71 10.33,8.3 11.37,7.9 C 11.89,7.63 12.25,7.06 12.25,6.43 L 12.25,0.4 C 12.25,-0.48 11.54,-1.18 10.65,-1.18 L 4.59,-1.18 z"
       id="path2451"
       style="fill:#0d3964;fill-opacity:1" />
    <rect
       width="9.25"
       height="9.25"
       ry="1.6"
       x="0"
       y="0"
       id="rect2453"
       style="fill:#007bff;fill-opacity:1" />
    <path
       d="M 4.59,-1.18 C 4.42,-1.18 4.27,-1.13 4.12,-1.09 L 1.09,0.09 C 0.45,0.3 -1.73e-18,0.88 0,1.59 L 0,7.65 C 0,8.54 0.7,9.25 1.59,9.25 L 7.65,9.25 L 8.25,9.12 C 9.28,8.71 10.33,8.3 11.37,7.9 C 11.89,7.63 12.25,7.06 12.25,6.43 L 12.25,0.4 C 12.25,-0.48 11.54,-1.18 10.65,-1.18 L 4.59,-1.18 z"
       id="path2455"
       style="fill:none;stroke:#042d43;stroke-width:0.30000001;stroke-opacity:1" />
  </g>
  <g
     transform="translate(40.85,11.09)"
     id="use2673">
    <path
       d="M 4.59,-1.18 C 4.42,-1.18 4.27,-1.13 4.12,-1.09 L 1.09,0.09 C 0.45,0.3 -1.73e-18,0.88 0,1.59 L 0,7.65 C 0,8.54 0.7,9.25 1.59,9.25 L 7.65,9.25 L 8.25,9.12 C 9.28,8.71 10.33,8.3 11.37,7.9 C 11.89,7.63 12.25,7.06 12.25,6.43 L 12.25,0.4 C 12.25,-0.48 11.54,-1.18 10.65,-1.18 L 4.59,-1.18 z"
       id="path2459"
       style="fill:#0d3964;fill-opacity:1" />
    <rect
       width="9.25"
       height="9.25"
       ry="1.6"
       x="0"
       y="0"
       id="rect2461"
       style="fill:#007bff;fill-opacity:1" />
    <path
       d="M 4.59,-1.18 C 4.42,-1.18 4.27,-1.13 4.12,-1.09 L 1.09,0.09 C 0.45,0.3 -1.73e-18,0.88 0,1.59 L 0,7.65 C 0,8.54 0.7,9.25 1.59,9.25 L 7.65,9.25 L 8.25,9.12 C 9.28,8.71 10.33,8.3 11.37,7.9 C 11.89,7.63 12.25,7.06 12.25,6.43 L 12.25,0.4 C 12.25,-0.48 11.54,-1.18 10.65,-1.18 L 4.59,-1.18 z"
       id="path2463"
       style="fill:none;stroke:#042d43;stroke-width:0.30000001;stroke-opacity:1" />
  </g>
</svg>
