<?xml version="1.0" encoding="UTF-8" standalone="no"?>

<svg xmlns:svg="http://www.w3.org/2000/svg" xmlns="http://www.w3.org/2000/svg" xmlns:xlink="http://www.w3.org/1999/xlink" version="1.0" width="100%" height="100%" viewBox="0 0 96 96" id="svg2383">
<defs id="defs2385"/>
<g transform="translate(-40.17,0)" id="box100y">
<use transform="translate(0,84.48)" id="use2689" x="0" y="0" width="96" height="96" xlink:href="#box100x"/>
<use transform="translate(0,75.09)" id="use2687" x="0" y="0" width="96" height="96" xlink:href="#box100x"/>
<use transform="translate(0,65.70)" id="use2685" x="0" y="0" width="96" height="96" xlink:href="#box100x"/>
<use transform="translate(0,56.32)" id="use2683" x="0" y="0" width="96" height="96" xlink:href="#box100x"/>
<use transform="translate(0,46.93)" id="use2681" x="0" y="0" width="96" height="96" xlink:href="#box100x"/>
<use transform="translate(0,37.54)" id="use2679" x="0" y="0" width="96" height="96" xlink:href="#box100x"/>
<use transform="translate(0,28.16)" id="use2677" x="0" y="0" width="96" height="96" xlink:href="#box100x"/>
<use transform="translate(0,18.77)" id="use2675" x="0" y="0" width="96" height="96" xlink:href="#box100x"/>
<use transform="translate(0,9.38)" id="use2673" x="0" y="0" width="96" height="96" xlink:href="#box100x"/>
<g transform="translate(40.85,1.71)" id="box100x">
<path d="M 4.59,-1.18 C 4.42,-1.18 4.27,-1.13 4.12,-1.09 L 1.09,0.09 C 0.45,0.3 -1.73e-18,0.88 0,1.59 L 0,7.65 C 0,8.54 0.7,9.25 1.59,9.25 L 7.65,9.25 L 8.25,9.12 C 9.28,8.71 10.33,8.3 11.37,7.9 C 11.89,7.63 12.25,7.06 12.25,6.43 L 12.25,0.4 C 12.25,-0.48 11.54,-1.18 10.65,-1.18 L 4.59,-1.18 z" id="path5" style="fill:#144d37;fill-opacity:1"/>
<rect width="9.25" height="9.25" ry="1.6" x="0" y="0" id="rect7" style="fill:#00d8a3;fill-opacity:1"/>
<path d="M 4.59,-1.18 C 4.42,-1.18 4.27,-1.13 4.12,-1.09 L 1.09,0.09 C 0.45,0.3 -1.73e-18,0.88 0,1.59 L 0,7.65 C 0,8.54 0.7,9.25 1.59,9.25 L 7.65,9.25 L 8.25,9.12 C 9.28,8.71 10.33,8.3 11.37,7.9 C 11.89,7.63 12.25,7.06 12.25,6.43 L 12.25,0.4 C 12.25,-0.48 11.54,-1.18 10.65,-1.18 L 4.59,-1.18 z" id="path9" style="fill:none;stroke:#052a15;stroke-width:0.30;stroke-opacity:1"/>
</g>
</g>
<use transform="translate(9.18,0)" id="use2578" x="0" y="0" width="96" height="96" xlink:href="#box100y"/>
<use transform="translate(18.37,0)" id="use2580" x="0" y="0" width="96" height="96" xlink:href="#box100y"/>
<use transform="translate(27.56,0)" id="use2582" x="0" y="0" width="96" height="96" xlink:href="#box100y"/>
<use transform="translate(36.75,0)" id="use2584" x="0" y="0" width="96" height="96" xlink:href="#box100y"/>
<use transform="translate(45.93,0)" id="use2586" x="0" y="0" width="96" height="96" xlink:href="#box100y"/>
<use transform="translate(55.12,0)" id="use2588" x="0" y="0" width="96" height="96" xlink:href="#box100y"/>
<use transform="translate(64.31,0)" id="use2590" x="0" y="0" width="96" height="96" xlink:href="#box100y"/>
<use transform="translate(73.5,0)" id="use2592" x="0" y="0" width="96" height="96" xlink:href="#box100y"/>
<use transform="translate(82.68,0)" id="use2594" x="0" y="0" width="96" height="96" xlink:href="#box100y"/>
</svg>
