<?xml version="1.0" encoding="UTF-8" standalone="no"?>
<svg xmlns:dc="http://purl.org/dc/elements/1.1/" xmlns:cc="http://creativecommons.org/ns#" xmlns:rdf="http://www.w3.org/1999/02/22-rdf-syntax-ns#" xmlns:svg="http://www.w3.org/2000/svg" xmlns="http://www.w3.org/2000/svg" xml:space="preserve" id="svg2" viewBox="0 0 167 242" height="100%" width="100%" version="1.0">
<rect id="card" style="fill:none;stroke:#000000;stroke-width:1;fill-rule:nonzero;stroke-linecap:butt;filter-blend-mode:normal;filter-gaussianBlur-deviation:0;" rx="6" height="241" width="166" y="0.5" x="0.5" />
<path id="use4335" d="m 83.469,88.416 c -6.254,11.434 -27.531,21.912 -27.568,36.362 -0.016,6.822 6.174,12.332 13.782,12.332 4.841,0 9.157,-2.214 11.605,-5.606 -1.019,9.817 -3.764,20.792 -13.824,22.889 l 16.000,0 16.000,0 c -10.059,-2.093 -12.804,-13.072 -13.844,-22.889 2.469,3.392 6.763,5.606 11.626,5.606 7.607,0 13.803,-5.506 13.782,-12.332 -0.037,-14.446 -21.335,-24.924 -27.568,-36.362 z" style="fill:none;stroke:#000000;fill-rule:nonzero;stroke-width:1;stroke-linecap:butt;filter-blend-mode:normal;filter-gaussianBlur-deviation:0;" />
</svg>
