<?xml version="1.0" encoding="UTF-8" standalone="no"?>
<svg xmlns:svg="http://www.w3.org/2000/svg" xmlns="http://www.w3.org/2000/svg" xmlns:xlink="http://www.w3.org/1999/xlink" version="1.0" width="100%" height="100%" viewBox="0 0 167 242" id="svg2" xml:space="preserve">
<defs id="defs88"></defs>
<rect x="0.5" y="0.5" width="166" height="241" rx="6" style="fill:#ffffff;stroke:#000000;stroke-width:0.5;"/>
<path d="M 13.93,26.04 L 13.93,24.57 L 15.43,24.57 L 15.43,9.97 L 13.74,12.19 L 13.74,10.39 L 15.77,7.66 L 17.46,7.66 L 17.46,24.57 L 18.99,24.57 L 18.99,26.04 L 13.93,26.04 z" id="val" style="fill:#e61408;stroke:none"/>
<use transform="matrix(-1,0,0,-1,167.04,242.66)" id="val2" x="0" y="0" width="167.08" height="242.66" xlink:href="#val"/>
<path d="M 75.67,105.19 C 71.36,105.2 67.86,108.88 67.89,113.4 C 67.95,122.98 79.98,129.9 83.53,137.47 C 87.07,129.9 99.13,122.98 99.19,113.4 C 99.22,108.88 95.72,105.2 91.41,105.19 C 87.1,105.18 83.54,108.84 83.53,113.37 C 83.51,108.84 79.98,105.18 75.67,105.19 z" id="p2170" style="fill:#e61408;fill-rule:nonzero;stroke:none"/>
<use transform="matrix(0.29,0,0,0.29,-8.59,-2.04)" id="use2388" x="0" y="0" width="167.08" height="242.66" xlink:href="#p2170"/>
<use transform="matrix(0.29,0,0,-0.29,125.71,244.35)" id="use2390" x="0" y="0" width="167.08" height="242.66" xlink:href="#p2170"/>
</svg>
