<?xml version="1.0" encoding="UTF-8" standalone="no"?>
<svg xmlns:svg="http://www.w3.org/2000/svg" xmlns="http://www.w3.org/2000/svg" xmlns:xlink="http://www.w3.org/1999/xlink" version="1.0" width="100%" height="100%" viewBox="0 0 167 242" id="svg2" xml:space="preserve">
<defs id="defs88"></defs>
<rect x="0.5" y="0.5" width="166" height="241" rx="6" style="fill:#ffffff;stroke:#000000;stroke-width:0.5;"/>
<path d="M 13.44,8.33 C 13.92,8.05 14.38,7.83 14.83,7.69 C 15.28,7.55 15.71,7.48 16.13,7.48 C 17.11,7.48 17.86,7.87 18.38,8.65 C 18.9,9.43 19.16,10.55 19.16,12 C 19.16,13.09 19.01,13.97 18.71,14.65 C 18.42,15.33 17.98,15.78 17.4,16.02 C 18.09,16.27 18.61,16.8 18.96,17.62 C 19.3,18.44 19.48,19.56 19.48,20.99 C 19.48,22.67 19.18,23.96 18.58,24.86 C 17.98,25.75 17.12,26.2 15.99,26.2 C 15.57,26.2 15.13,26.12 14.68,25.96 C 14.22,25.8 13.75,25.56 13.26,25.23 L 13.26,21.26 L 13.91,21.26 C 13.95,22.41 14.12,23.29 14.4,23.89 C 14.68,24.49 15.07,24.8 15.58,24.8 C 16.12,24.8 16.54,24.46 16.84,23.77 C 17.14,23.09 17.29,22.13 17.29,20.88 C 17.29,19.58 17.13,18.57 16.83,17.86 C 16.52,17.15 16.08,16.8 15.51,16.8 L 15.16,16.8 L 15.16,15.36 L 15.44,15.36 C 15.97,15.36 16.37,15.08 16.64,14.53 C 16.9,13.98 17.04,13.16 17.04,12.07 C 17.04,11.04 16.91,10.25 16.66,9.71 C 16.41,9.16 16.05,8.89 15.58,8.89 C 15.14,8.89 14.8,9.15 14.55,9.67 C 14.3,10.18 14.15,10.93 14.1,11.92 L 13.44,11.92 L 13.44,8.33 L 13.44,8.33 z" id="val" style="fill:#e61408;stroke:none"/>
<use transform="matrix(-1,0,0,-1,167.04,242.66)" id="val2" x="0" y="0" width="167.08" height="242.66" xlink:href="#val"/>
<path d="M 83.54,13.62 C 83.51,14.52 82.98,17.88 77.19,23.44 C 71.61,28.79 69.01,29.43 68.23,29.49 C 69.01,29.54 71.61,30.19 77.19,35.54 C 82.98,41.1 83.51,44.46 83.54,45.35 C 83.56,44.46 84.1,41.1 89.89,35.54 C 95.46,30.19 98.07,29.54 98.85,29.49 C 98.07,29.43 95.46,28.79 89.89,23.44 C 84.1,17.88 83.56,14.52 83.54,13.62 z" id="p2243" style="fill:#e61408;fill-opacity:1;stroke:none"/>
<use transform="translate(0,91.84)" id="use2194" x="0" y="0" width="167.08" height="242.66" xlink:href="#p2243"/>
<use transform="translate(0,91.84)" id="use2196" x="0" y="0" width="167.08" height="242.66" xlink:href="#use2194"/>
<use transform="matrix(0.29,0,0,0.29,-8.51,25.51)" id="use2390" x="0" y="0" width="167.08" height="242.66" xlink:href="#p2243"/>
<use transform="matrix(0.29,0,0,0.29,125.83,199.27)" id="use2392" x="0" y="0" width="167.08" height="242.66" xlink:href="#p2243"/>
</svg>
