<?xml version="1.0" encoding="UTF-8" standalone="no"?>
<svg xmlns:svg="http://www.w3.org/2000/svg" xmlns="http://www.w3.org/2000/svg" xmlns:xlink="http://www.w3.org/1999/xlink" version="1.0" width="100%" height="100%" viewBox="0 0 167 242" id="svg2" xml:space="preserve">
<defs id="defs88"></defs>
<rect x="0.5" y="0.5" width="166" height="241" rx="6" style="fill:#ffffff;stroke:#000000;stroke-width:0.5;"/>
<path d="M 19.57,26.04 L 15.16,26.04 L 15.16,24.57 L 16.35,24.57 L 16.35,21.29 L 12.98,21.29 L 12.98,19.9 L 16.35,7.66 L 18.38,7.66 L 18.38,19.73 L 19.76,19.73 L 19.76,21.29 L 18.38,21.29 L 18.38,24.57 L 19.57,24.57 L 19.57,26.04 z M 16.35,19.73 L 16.35,10.96 L 13.94,19.73 L 16.35,19.73 z" id="val" style="stroke:none"/>
<use transform="matrix(-1,0,0,-1,167.04,242.66)" id="val2" x="0" y="0" width="167.08" height="242.66" xlink:href="#val"/>
<path d="M 47.66,12.94 C 43.86,12.94 40.78,16.02 40.78,19.82 C 40.78,21.78 41.62,23.54 42.93,24.79 C 43.95,25.76 45.4,27.96 45.88,29.72 C 44.94,29.15 44.09,28.5 43.58,27.97 C 42.33,26.65 40.57,25.84 38.61,25.84 C 34.81,25.84 31.73,28.92 31.73,32.72 C 31.73,36.51 34.81,39.59 38.61,39.59 C 40.57,39.59 42.33,38.76 43.58,37.44 C 44.12,36.88 45.03,36.16 46.03,35.57 C 45.89,41.87 43.73,45.99 39.78,45.99 C 39.78,45.99 55.56,45.99 55.56,45.99 C 51.6,45.99 49.41,41.85 49.28,35.52 C 50.34,36.12 51.32,36.85 51.88,37.44 C 53.14,38.76 54.9,39.59 56.86,39.59 C 60.66,39.59 63.73,36.51 63.73,32.72 C 63.73,28.92 60.66,25.84 56.86,25.84 C 54.9,25.84 53.14,26.65 51.88,27.97 C 51.35,28.52 50.43,29.18 49.43,29.77 C 49.9,28 51.38,25.77 52.41,24.79 C 53.72,23.54 54.53,21.78 54.53,19.82 C 54.53,16.02 51.46,12.94 47.66,12.94 z" id="p2242" style="fill:#000000;fill-opacity:1;stroke:none"/>
<use transform="matrix(1,0,0,-1,0,242.64)" id="use2597" x="0" y="0" width="167.08" height="242.66" xlink:href="#p2242"/>
<use transform="translate(70.66,0)" id="use2394" x="0" y="0" width="167.08" height="242.66" xlink:href="#p2242"/>
<use transform="matrix(1,0,0,-1,70.68,242.63)" id="use2396" x="0" y="0" width="167.08" height="242.66" xlink:href="#p2242"/>
<use transform="matrix(0.29,0,0,0.29,2.04,25.43)" id="use2391" x="0" y="0" width="167.08" height="242.66" xlink:href="#p2242"/>
<use transform="matrix(0.29,0,0,-0.29,136.37,216.90)" id="use2393" x="0" y="0" width="167.08" height="242.66" xlink:href="#p2242"/>
</svg>
