<?xml version="1.0" encoding="UTF-8" standalone="no"?>
<svg xmlns:svg="http://www.w3.org/2000/svg" xmlns="http://www.w3.org/2000/svg" xmlns:xlink="http://www.w3.org/1999/xlink" version="1.0" width="100%" height="100%" viewBox="0 0 167 242" id="svg2" xml:space="preserve">
<defs id="defs88"></defs>
<rect x="0.5" y="0.5" width="166" height="241" rx="6" style="fill:#ffffff;stroke:#000000;stroke-width:0.5;"/>
<path d="M 17.66,16.24 C 18.30,16.47 18.79,17.00 19.13,17.82 C 19.47,18.65 19.63,19.72 19.63,21.06 C 19.63,22.72 19.35,23.99 18.79,24.88 C 18.23,25.77 17.42,26.21 16.37,26.21 C 15.31,26.21 14.50,25.77 13.94,24.88 C 13.38,23.99 13.10,22.72 13.10,21.06 C 13.10,19.72 13.27,18.65 13.60,17.82 C 13.93,17.00 14.42,16.47 15.05,16.24 C 14.49,15.95 14.08,15.46 13.80,14.78 C 13.52,14.10 13.38,13.24 13.38,12.20 C 13.38,10.67 13.64,9.50 14.15,8.70 C 14.66,7.89 15.40,7.49 16.37,7.49 C 17.33,7.49 18.07,7.89 18.58,8.70 C 19.09,9.50 19.35,10.67 19.35,12.20 C 19.35,13.24 19.21,14.10 18.93,14.78 C 18.65,15.46 18.23,15.95 17.66,16.24 L 17.66,16.24 z M 17.48,20.85 C 17.48,19.37 17.39,18.35 17.23,17.80 C 17.06,17.24 16.77,16.96 16.36,16.96 C 15.94,16.96 15.65,17.24 15.48,17.80 C 15.31,18.35 15.23,19.37 15.23,20.85 C 15.23,22.35 15.31,23.38 15.48,23.95 C 15.65,24.52 15.94,24.80 16.36,24.80 C 16.76,24.80 17.05,24.52 17.22,23.95 C 17.39,23.38 17.48,22.35 17.48,20.85 z M 17.26,12.24 C 17.26,10.97 17.19,10.10 17.06,9.62 C 16.92,9.14 16.69,8.90 16.37,8.90 C 16.03,8.90 15.80,9.14 15.67,9.62 C 15.54,10.10 15.48,10.97 15.48,12.24 C 15.48,13.51 15.54,14.38 15.67,14.85 C 15.80,15.32 16.03,15.55 16.37,15.55 C 16.69,15.55 16.92,15.32 17.06,14.85 C 17.19,14.38 17.26,13.51 17.26,12.24 z" id="val" style="fill-rule:nonzero;stroke:none;"/>
<use transform="matrix(-1,0,0,-1,167.04,242.66)" id="val2" x="0" y="0" width="167.08" height="242.66" xlink:href="#val"/>
<path d="M 59.43,16.56 C 55.47,23.69 41.97,30.23 41.93,39.25 C 41.91,43.5 45.85,46.96 50.68,46.96 C 53.68,46.96 56.32,45.64 57.9,43.62 C 57.19,49.09 55.11,57.71 49.18,57.71 L 69.59,57.71 C 65.26,57.72 62.97,53.11 61.78,48.5 C 61.32,46.74 61.03,44.97 60.84,43.46 C 62.4,45.56 65.12,46.96 68.18,46.96 C 73.02,46.96 76.93,43.5 76.93,39.25 C 76.89,30.23 63.4,23.69 59.43,16.56 z" transform="matrix(0.8,0,0,0.8,0,-0.36)" id="p2242" style="fill-rule:nonzero;stroke-miterlimit:4"/>
<use transform="matrix(1,0,0,-1,35.80,196.72)" id="use4928" x="0" y="0" width="167.08" height="242.66" xlink:href="#p2242"/>
<use transform="translate(35.80,45.93)" id="use4423" x="0" y="0" width="167.08" height="242.66" xlink:href="#p2242"/>
<use transform="translate(0,91.86)" id="use3293" x="0" y="0" width="167.08" height="242.66" xlink:href="#p2242"/>
<use transform="translate(70.67,91.86)" id="use4073" x="0" y="0" width="167.08" height="242.66" xlink:href="#p2242"/>
<use transform="matrix(1,0,0,-1,0,242.64)" id="use2597" x="0" y="0" width="167.08" height="242.66" xlink:href="#p2242"/>
<use transform="matrix(1,0,0,-1,70.70,242.64)" id="use2392" x="0" y="0" width="167.08" height="242.66" xlink:href="#p2242"/>
<use transform="translate(70.67,0)" id="use2394" x="0" y="0" width="167.08" height="242.66" xlink:href="#p2242"/>
<use transform="matrix(0.30,0,0,0.30,2.01,25.42)" id="use2399" x="0" y="0" width="167.08" height="242.66" xlink:href="#p2242"/>
<use transform="matrix(0.30,0,0,-0.30,136.38,216.92)" id="use2401" x="0" y="0" width="167.08" height="242.66" xlink:href="#p2242"/>
</svg>
