<?xml version="1.0" encoding="UTF-8" standalone="no"?>
<svg xmlns:dc="http://purl.org/dc/elements/1.1/" xmlns:cc="http://creativecommons.org/ns#" xmlns:rdf="http://www.w3.org/1999/02/22-rdf-syntax-ns#" xmlns:svg="http://www.w3.org/2000/svg" xmlns="http://www.w3.org/2000/svg" id="svg2383" viewBox="0 0 48 48" height="100%" width="100%" version="1.0">
 <defs id="defs2385" />
 <path id="path4" d="M 24.439 7.830 C 20.078 7.830 16.747 8.764 14.587 10.628 L 14.587 10.630 C 12.464 12.463 11.301 14.867 10.996 17.832 L 10.996 17.837 L 10.994 17.845 C 10.984 17.921 11.043 18.034 11.265 18.064 C 11.265 18.064 11.267 18.066 11.267 18.066 L 20.177 19.064 C 20.291 19.075 20.406 19.038 20.460 19 C 20.460 19 20.462 19 20.462 19 C 20.534 18.945 20.560 18.881 20.564 18.853 C 20.756 17.243 21.206 16.193 21.871 15.601 C 22.509 15.014 23.334 14.740 24.300 14.740 C 25.067 14.740 25.616 14.882 26.013 15.119 L 26.109 15.119 L 26.306 15.289 C 26.694 15.623 26.980 16.212 26.980 16.880 C 26.980 17.303 26.808 17.617 26.525 17.998 C 26.243 18.376 25.823 18.791 25.216 19.232 L 25.210 19.236 C 22.872 20.967 21.358 22.133 20.634 22.865 C 20.634 22.865 20.632 22.867 20.632 22.867 C 19.959 23.568 19.458 24.370 19.109 25.222 C 18.764 26.070 18.580 27.162 18.580 28.509 L 18.580 29.312 L 18.580 29.326 C 18.578 29.372 18.584 29.396 18.632 29.437 L 18.648 29.449 L 18.662 29.460 C 18.705 29.502 18.791 29.544 18.906 29.541 L 18.917 29.539 L 27.691 29.539 L 27.705 29.541 C 27.820 29.544 27.889 29.513 27.960 29.449 L 27.968 29.443 L 27.976 29.437 C 28.016 29.403 28.029 29.381 28.029 29.300 C 28.029 28.260 28.202 27.426 28.607 26.789 C 28.817 26.444 29.133 26.119 29.605 25.691 C 30.080 25.260 30.703 24.759 31.472 24.210 L 31.474 24.208 L 31.476 24.207 C 33.711 22.631 35.159 21.306 35.925 20.164 C 36.663 19.047 37.050 17.886 37.050 16.710 C 37.050 13.862 35.629 11.512 32.769 9.789 L 32.767 9.789 L 32.765 9.787 C 30.648 8.494 27.838 7.830 24.439 7.830 z M 18.630 31.150 C 18.523 31.150 18.417 31.195 18.349 31.248 C 18.302 31.302 18.279 31.353 18.279 31.361 L 18.279 31.376 L 18.279 38.785 L 18.279 38.798 C 18.279 38.787 18.306 38.857 18.349 38.912 C 18.417 38.964 18.523 39.009 18.630 39.009 L 28.009 39.009 C 28.123 39.009 28.253 38.946 28.269 38.931 L 28.275 38.925 L 28.281 38.919 C 28.345 38.862 28.360 38.785 28.361 38.798 L 28.359 38.785 L 28.359 31.376 L 28.361 31.361 C 28.361 31.352 28.354 31.306 28.281 31.240 L 28.275 31.234 L 28.269 31.228 C 28.253 31.213 28.123 31.150 28.009 31.150 L 18.630 31.150 z " style="fill:#ffffff;stroke-width:1.4;stroke-dasharray:none" />
</svg>
