<?xml version="1.0" encoding="UTF-8" standalone="no"?>
<!-- Created with Inkscape (http://www.inkscape.org/) -->

<svg
 xmlns:dc="http://purl.org/dc/elements/1.1/"
 xmlns:cc="http://creativecommons.org/ns#"
 xmlns:rdf="http://www.w3.org/1999/02/22-rdf-syntax-ns#"
 xmlns:svg="http://www.w3.org/2000/svg"
 xmlns="http://www.w3.org/2000/svg"
 version="1.0"
 width="100%"
 height="100%"
 viewBox="0 0 48 48"
 id="ontology">
<metadata
 id="metadata15">
<rdf:RDF>
<cc:Work
 rdf:about="">
<dc:format>image/svg+xml</dc:format>
<dc:type
 rdf:resource="http://purl.org/dc/dcmitype/StillImage" />
<dc:title></dc:title>
</cc:Work>
</rdf:RDF>
</metadata>
<defs
 id="defs2385" />
<rect
 width="39.25423"
 height="27.864405"
 ry="2.7013042"
 x="5.0847459"
 y="13.830508"
 id="rect3005"
 style="color:#000000;fill:none;stroke:#ffffff;stroke-width:2" />
<path
 d="m 34.372881,28.067797 a 9.5593224,9.5593224 0 1 1 -19.118645,0 9.5593224,9.5593224 0 1 1 19.118645,0 z"
 transform="translate(-2.2372881,-0.20338979)"
 id="path3024"
 style="color:#000000;fill:none;stroke:#ffffff;stroke-width:2" />
<path
 d="m 40.467691,13.827331 0,-4.6250005 c 0,-1.4965225 -1.190977,-2.6875 -2.6875,-2.6875 l -5.59375,0 c -1.496523,0 -2.6875,1.1909775 -2.6875,2.6875 l 0,4.6250005"
 id="rect3026"
 style="color:#000000;fill:none;stroke:#ffffff;stroke-width:2" />
<path
 d="m 15.864407,20.745763 9.499216,5.427663"
 id="path3055"
 style="color:#000000;fill:none;stroke:#ffffff" />
<path
 d="m 13.055412,30.117729 9.450102,-5.512731"
 id="path3071"
 style="color:#000000;fill:none;stroke:#ffffff" />
<path
 d="M 19.767275,37.236374 19.718161,26.29598"
 id="path3073"
 style="color:#000000;fill:none;stroke:#ffffff" />
<path
 d="M 29.288133,34.983052 19.788917,29.555389"
 id="path3077"
 style="color:#000000;fill:none;stroke:#ffffff" />
<path
 d="m 32.097129,25.611086 -9.450102,5.512731"
 id="path3079"
 style="color:#000000;fill:none;stroke:#ffffff" />
<path
 d="m 25.385266,18.492442 0.04911,10.940394"
 id="path3083"
 style="color:#000000;fill:none;stroke:#ffffff" />
<rect
 width="8.1355934"
 height="5.2881355"
 rx="1.2203389"
 ry="1.2203389"
 x="33.35593"
 y="17.084745"
 id="rect3870"
 style="color:#000000;fill:none;stroke:#ffffff" />
</svg>
