<?xml version="1.0" encoding="UTF-8" standalone="no"?>
<svg xmlns:dc="http://purl.org/dc/elements/1.1/" xmlns:cc="http://creativecommons.org/ns#" xmlns:rdf="http://www.w3.org/1999/02/22-rdf-syntax-ns#" xmlns:svg="http://www.w3.org/2000/svg" xmlns="http://www.w3.org/2000/svg" style="overflow:visible" xml:space="preserve" id="Layer_1" viewBox="0 0 16 16" height="100%" width="100%" version="1.1">
<defs id="defs279" />
<path id="rect5466" d="M 0,0 0,16 16,16 16,0 0,0 Z" style="fill:#a9c6cb;stroke-width:2;stroke-linecap:butt;marker:none" />
<path id="path5470" d="m 0,0 0,14.697 c 0.967,0.527 2.316,0.485 2.267,-1.173 0.259,-0.640 0.361,-3.231 0.701,-1.111 0.04,1.52 1.22,3.901 2.75,2.181 0.24,-1.49 0.879,0.679 1.869,-0.050 2.1,-0.2 0.411,-3.200 0.791,-3.570 0.78,1.11 2.949,2.119 3.609,0.609 -0.47,-0.96 1.599,-1.498 0.449,-2.798 -1.18,-1.46 1.39,0.399 1.75,-1.150 0.55,-1.809 -1.578,-2.909 -2.968,-3.619 -0.96,-0.24 -2.411,-1.000 -0.531,-0.710 1.55,0.1 3.441,-0.210 3.791,-1.800 C 14.149,1.007 14.270,0.506 14.287,0 L 0,0 Z" style="fill:#597a80;fill-opacity:1" />
<path id="path5472" d="M 0.267,0 C 0.223,0.391 -0.179,1.061 0.308,1.503 0.209,1.521 0.078,1.527 4e-6,1.451 l 0,1.107 c 0.001,0.010 4.15e-4,0.017 0,0.027 l 0,2.560 c 0.452,0.068 1.517,1.329 1.457,1.876 0.74,2.14 1.191,4.550 0.271,6.720 -0.41,1.48 -0.160,0.168 -0.630,0.148 -0.14,0.17 -0.109,0.990 -0.509,0.550 l 0,0.019 C 0.347,14.307 0.156,14.121 0,13.910 l 0,0.787 c 0.967,0.528 2.316,0.487 2.267,-1.173 0.26,-0.640 0.361,-3.229 0.701,-1.109 0.04,1.52 1.22,3.899 2.75,2.179 0.24,-1.49 0.879,0.679 1.869,-0.050 2.1,-0.2 0.409,-3.200 0.789,-3.570 0.78,1.11 2.951,2.121 3.611,0.611 -0.47,-0.96 1.599,-1.500 0.449,-2.800 -1.18,-1.46 1.39,0.399 1.75,-1.150 0.55,-1.809 -1.578,-2.909 -2.968,-3.619 -0.96,-0.24 -2.411,-1.000 -0.531,-0.710 1.55,0.1 3.441,-0.208 3.791,-1.798 C 14.148,1.009 14.270,0.507 14.287,0 l -0.925,0 c -0.110,0.034 -0.191,0.067 -0.353,0.103 -0.59,1.01 -3.480,1.119 -3.130,2.009 1.31,-0.32 2.651,-1.488 3.761,-1.708 -1.21,1.29 -3.020,2.148 -4.740,2.638 -0.41,0.05 -0.820,0.011 -1.230,-0.048 -0.9,-0.17 2.3,-0.630 0.5,-0.640 -1.06,0.48 -4.100,0.640 -4.150,-0.259 0.82,-0.58 -1.109,-0.941 0.320,-0.781 C 5.151,0.879 5.977,0.420 6.820,0 L 5.337,0 C 4.902,0.142 4.464,0.252 4.027,0.312 l -0.009,0.011 C 4.048,0.207 4.098,0.101 4.158,0 L 2.554,0 C 2.628,0.132 2.578,0.240 2.167,0.142 2.138,0.078 2.138,0.048 2.123,0 L 1.390,0 C 1.438,0.091 1.436,0.316 1.287,0.062 1.297,0.030 1.308,0.017 1.318,0 L 0.988,0 c -0.019,0.188 -0.109,0.356 -0.25,0.093 l 0,0.009 C 0.713,0.069 0.708,0.034 0.689,0 L 0.267,0 Z M 8.255,0 C 7.553,0.215 6.856,0.448 6.167,0.712 6.890,1.030 8.217,0.429 9.513,0 L 8.255,0 Z M 0.671,0.341 c 0.040,-0.009 0.158,0.050 0.416,0.220 0.65,0.03 0.369,1.300 -0.390,0.720 0.427,-0.255 -0.146,-0.914 -0.025,-0.941 z m 13.070,0.966 c 0.145,0.013 0.155,0.165 -0.054,0.535 -0.92,0.15 -1.849,0.739 -0.279,0.429 0.39,0.25 -1.990,0.740 -2.310,0.490 0.555,-0.292 2.207,-1.495 2.644,-1.455 z M 2.134,1.695 c 0.115,0.062 0.073,0.548 -0.166,0.128 0.072,-0.122 0.127,-0.149 0.166,-0.128 z m -1.685,0.037 c 0.169,-0.038 0.487,0.641 -0.082,0.341 -0.015,-0.235 0.025,-0.328 0.082,-0.341 z m 2.570,0.832 c 0.201,-0.036 0.499,0.529 -0.130,0.289 0.007,-0.197 0.063,-0.277 0.130,-0.289 z m 0.458,0.166 c 0.197,-0.030 0.693,0.605 -0.041,0.312 -0.057,-0.217 -0.024,-0.302 0.041,-0.312 z M 4.187,3.142 c 2.47,0.09 5.060,0.221 7.240,1.531 0.76,0.2 3.230,2.168 1.550,1.718 0.65,0.51 1.049,1.360 0.089,1.080 0.15,0.32 0.389,0.781 -0.240,0.431 l 0,0.019 c -0.99,-0.1 -3.160,-1.861 -2.880,-2.121 0.86,0.18 2.480,1.86 2.970,1.25 -1.27,-1.07 -2.900,-1.379 -4.140,-1.849 -1.3,-1.08 -3.449,-1.240 -4.589,-2.060 z M 3.626,3.787 c 0.801,-0.025 2.298,0.796 3.130,0.886 2.240,0.97 4.469,2.508 5.509,4.798 -0.86,-0.62 -1.948,-2.618 -3.378,-3.218 -0.81,-0.24 -2.569,-1.919 -2.919,-1.169 2.12,1.22 4.618,2.288 5.728,4.638 0.85,1.09 -0.988,-0.099 -0.208,1.060 l -0.160,0 -0.25,-0.128 -0.019,-0.021 c -1.42,-1.21 -3.181,-1.920 -4.611,-3.070 -1.31,-0.97 -2.259,-2.799 -3.859,-3.179 -0.57,0.65 -0.260,-1.278 0.519,-0.228 0.062,-0.255 0.252,-0.358 0.519,-0.367 z M 7.888,3.937 C 7.657,3.936 7.521,4.001 7.558,4.154 c 0.92,0.15 1.858,0.879 2.718,0.869 C 10.112,4.520 8.581,3.939 7.888,3.937 Z M 0.728,4.464 c 0.162,-0.047 0.484,0.484 -0.070,0.289 -0.02,-0.192 0.016,-0.273 0.070,-0.289 z m 1.476,0.562 c 0.780,0.099 1.952,1.789 2.193,2.566 1.009,2.01 1.668,4.449 1.058,6.679 -0.36,-0.780 -0.019,-2.800 -0.589,-3.970 -0.05,-0.69 -1.309,-3.528 -0.869,-1.378 0.64,1.85 1.230,3.870 0.830,5.820 l -0.121,0.048 -0.119,-0.048 -0.019,-0.021 c 0.13,-0.64 -0.660,-2.208 -0.390,-0.708 0.02,1.47 -0.690,-1.521 -0.810,-1.951 C 2.527,10.152 2.517,7.973 1.507,6.113 1.576,5.266 1.850,4.982 2.205,5.027 Z m 9.490,0.484 c -0.164,0.023 -0.124,0.180 0.412,0.521 0.19,0.04 0.539,0.450 0.759,0.230 -0.056,-0.462 -0.897,-0.791 -1.171,-0.751 z m -9.251,0.062 C 2.314,5.589 2.332,5.820 2.718,6.382 2.758,6.542 3.047,7.153 3.257,6.783 3.276,6.126 2.658,5.549 2.443,5.574 Z m 1.433,0.058 c 1.75,1.710 3.440,3.630 4.080,6.060 0.6,0.83 -0.129,3.489 -0.169,1.169 -0.28,-1.54 -0.869,-3.350 -2.009,-4.380 0.53,1.51 1.610,2.951 1.650,4.671 -0.05,0.15 0.279,1.188 -0.240,0.898 l -0.009,0.009 c -0.85,-1.53 -1.219,-3.179 -1.589,-4.869 -0.07,-1.17 -1.940,-3.240 -1.710,-3.560 z m -3.080,0.380 c -0.49,0.97 0.741,3.310 0.531,4.810 0.22,0.66 -0.560,2.619 0.119,2.759 l 0.009,0 c 0.59,-2.51 0.089,-5.140 -0.660,-7.570 z m 5.732,0.789 c -0.515,0.017 1.657,1.362 2.068,1.589 0.82,0.34 1.489,1.431 2.349,1.441 -1,-1.15 -2.639,-2.071 -4.019,-2.951 C 6.731,6.824 6.602,6.800 6.529,6.802 Z M 0.027,8.562 C 0.083,8.852 0.045,9.300 4e-6,9.769 l 0,1.710 c 0.068,0.241 0.190,0.420 0.408,0.482 -0.25,-0.89 0.499,-3.550 -0.380,-3.400 z m 7.187,0.144 c 0.271,-0.134 1.995,1.195 2.453,1.435 0.35,0.15 2.759,2.110 1.009,1.550 l 0.009,0.009 c -0.96,0.15 -2.550,-1.139 -3.160,-2.279 -0.332,-0.465 -0.403,-0.672 -0.312,-0.716 z m -4.396,0.287 c 0.34,0.97 0.528,2.918 1.218,3.318 -0.21,-0.93 -0.588,-3.238 -1.218,-3.318 z m 5.927,0.933 c -0.208,-0.074 -0.189,0.076 0.380,0.646 0.3,0.17 0.660,0.919 1.080,0.679 -0.131,-0.456 -1.113,-1.202 -1.460,-1.326 z m -8.427,2.445 c -0.253,-0.074 -0.606,0.561 0.099,1.080 0.168,-0.735 0.052,-1.035 -0.099,-1.080 z M 6.210,12.875 c 0.113,-0.037 0.336,0.199 0.476,0.789 0.54,0.820 -0.138,0.598 -0.298,0.058 -0.295,-0.5 -0.291,-0.810 -0.177,-0.847 z" />
<path id="path5480" d="M 7.345,11.203 C 6.548,11.220 5.803,11.319 3.976,11.609 2.588,11.829 1.652,12.089 0.214,12.652 0.178,12.666 0.064,12.711 0,12.736 L 0,16 l 16,0 0,-2.558 c -0.005,-0.003 -0.010,-0.004 -0.015,-0.007 -0.304,-0.173 -0.603,-0.314 -0.662,-0.314 -0.059,0 -0.617,-0.239 -1.240,-0.533 -2.113,-0.995 -3.459,-1.311 -5.878,-1.376 -0.319,-0.008 -0.591,-0.011 -0.857,-0.005 z" style="fill:#bed4d8;fill-opacity:1" />
<path id="path5482" d="M 7.343,11.203 C 6.546,11.220 5.803,11.319 3.976,11.609 2.588,11.829 1.652,12.089 0.214,12.652 0.178,12.666 0.064,12.709 0,12.734 l 0,1.058 c 0.778,-0.257 2.699,-0.686 2.818,-0.613 0.068,0.042 -0.103,0.322 -0.408,0.662 -0.694,0.772 -0.993,1.196 -0.902,1.287 0.184,0.184 0.496,0.036 0.857,-0.408 0.839,-1.032 1.632,-1.810 1.896,-1.861 0.428,-0.081 0.580,0.080 0.269,0.287 -0.967,0.643 -2.035,2.022 -1.794,2.316 0.202,0.248 0.507,0.414 0.845,0.537 l 2.382,0 c 0.555,-0.199 0.974,-0.534 1.021,-0.998 0.033,-0.332 0.125,-0.666 0.203,-0.744 0.154,-0.154 0.189,-0.883 0.052,-1.097 -0.046,-0.073 -0.412,-0.198 -0.814,-0.277 -1.005,-0.197 -0.766,-0.328 0.673,-0.367 2.121,-0.057 3.827,0.227 2.218,0.371 -0.382,0.034 -0.633,0.108 -0.599,0.175 0.032,0.063 0.240,0.100 0.462,0.083 0.560,-0.042 1.525,0.479 1.931,1.044 0.178,0.247 0.447,0.603 0.597,0.791 0.507,0.634 0.185,0.756 -2.208,0.828 C 8.772,15.832 8.479,15.884 8.431,16 l 3.765,0 c 0.320,-0.167 0.336,-0.436 0.171,-0.876 -0.384,-1.031 -1.079,-1.805 -1.845,-2.054 -0.467,-0.152 0.008,-0.317 0.673,-0.234 0.578,0.072 0.659,0.116 0.724,0.386 0.097,0.402 1.172,1.962 1.501,2.177 0.274,0.179 0.847,0.147 1.923,-0.107 0.525,-0.124 0.600,-0.195 0.558,-0.521 C 15.895,14.684 15.925,14.653 16,14.656 l 0,-1.212 c -0.006,-0.003 -0.011,-0.006 -0.017,-0.009 -0.304,-0.173 -0.601,-0.314 -0.660,-0.314 -0.059,0 -0.617,-0.241 -1.240,-0.535 -2.113,-0.995 -3.461,-1.309 -5.880,-1.375 -0.319,-0.008 -0.591,-0.011 -0.857,-0.005 z m 0.433,1.937 c -0.159,0.051 -0.251,0.322 -0.337,0.919 -0.058,0.405 -0.138,0.899 -0.175,1.095 -0.047,0.249 -0.009,0.414 0.125,0.548 0.300,0.300 0.387,0.234 0.464,-0.357 0.039,-0.302 0.121,-0.670 0.181,-0.816 0.180,-0.441 0.135,-1.293 -0.072,-1.373 -0.070,-0.027 -0.132,-0.034 -0.185,-0.017 z m -2.095,0.103 c 0.148,0.008 0.322,0.030 0.537,0.066 l 0.447,0.074 -0.072,0.474 c -0.228,1.531 -0.221,1.509 -0.650,1.656 -0.817,0.277 -2.544,0.079 -2.544,-0.291 -1e-6,-0.162 0.738,-1.072 1.261,-1.554 0.366,-0.338 0.577,-0.450 1.021,-0.425 z m 7.001,0.011 c 0.314,-0.036 2.150,0.637 2.779,1.019 0.424,0.258 0.186,0.580 -0.431,0.580 -0.214,0 -0.423,0.051 -0.462,0.115 -0.102,0.165 -0.816,0.145 -0.955,-0.027 -0.063,-0.079 -0.220,-0.354 -0.349,-0.609 -0.128,-0.254 -0.383,-0.592 -0.564,-0.751 l -0.330,-0.289 0.314,-0.037 z M 0.962,14.890 c -0.058,0.010 -0.115,0.034 -0.166,0.076 C 0.720,15.029 0.378,15.078 0,15.097 l 0,0.472 C 0.627,15.521 1.154,15.361 1.25,15.113 1.309,14.957 1.137,14.859 0.962,14.890 Z" />
</svg>
