<?xml version="1.0" encoding="UTF-8" standalone="no"?>
<!-- Created with Inkscape (http://www.inkscape.org/) -->

<svg
   xmlns:dc="http://purl.org/dc/elements/1.1/"
   xmlns:cc="http://creativecommons.org/ns#"
   xmlns:rdf="http://www.w3.org/1999/02/22-rdf-syntax-ns#"
   xmlns:svg="http://www.w3.org/2000/svg"
   xmlns="http://www.w3.org/2000/svg"
   xmlns:sodipodi="http://sodipodi.sourceforge.net/DTD/sodipodi-0.dtd"
   xmlns:inkscape="http://www.inkscape.org/namespaces/inkscape"
   version="1.0"
   width="100%"
   height="100%"
   viewBox="0 0 36 36"
   id="svg2383"
   inkscape:version="0.91 r13725"
   sodipodi:docname="00b0g1.svg">
  <sodipodi:namedview
     pagecolor="#ffffff"
     bordercolor="#666666"
     borderopacity="1"
     objecttolerance="10"
     gridtolerance="10"
     guidetolerance="10"
     inkscape:pageopacity="0"
     inkscape:pageshadow="2"
     inkscape:window-width="838"
     inkscape:window-height="495"
     id="namedview44"
     showgrid="false"
     inkscape:zoom="6.8585434"
     inkscape:cx="18.251881"
     inkscape:cy="10.898217"
     inkscape:window-x="1770"
     inkscape:window-y="298"
     inkscape:window-maximized="0"
     inkscape:current-layer="svg2383" />
  <metadata
     id="metadata9">
    <rdf:RDF>
      <cc:Work
         rdf:about="">
        <dc:format>image/svg+xml</dc:format>
        <dc:type
           rdf:resource="http://purl.org/dc/dcmitype/StillImage" />
        <dc:title></dc:title>
      </cc:Work>
    </rdf:RDF>
  </metadata>
  <defs
     id="defs2385" />
  <path
     inkscape:connector-curvature="0"
     d="m 22.514285,38.466208 c 1.65827,0 3.00914,1.047812 3.00914,2.334051 0,0.215959 -0.0447,1.200625 -0.11567,1.399127 -1.92894,0.52306 -3.85788,0.512538 -5.78682,0 -0.0691,-0.196096 -0.11568,-1.186094 -0.11568,-1.399127 0,-1.286239 1.35088,-2.334046 3.00915,-2.334051 z"
     id="path5189"
     style="display:inline;overflow:visible;visibility:visible;fill:#9d9d9d;fill-opacity:1;fill-rule:evenodd;stroke:none;stroke-width:0.5;marker:none;enable-background:accumulate" />
  <path
     inkscape:connector-curvature="0"
     d="m 22.529265,38.480017 c 1.65828,0 3.00915,1.047812 3.00915,2.334051 0,0.0721 -0.0293,0.281217 -0.0386,0.46681 -1.98584,0.501607 -3.99387,0.492968 -5.97971,0 -0.01,-0.185489 0,-0.395799 0,-0.46681 0,-1.286239 1.35087,-2.334046 3.00914,-2.334051 z"
     id="path5191"
     style="display:inline;overflow:visible;visibility:visible;fill:#476181;fill-opacity:1;fill-rule:evenodd;stroke:none;stroke-width:0.5;marker:none;enable-background:accumulate" />
  <path
     inkscape:connector-curvature="0"
     d="m 22.514285,38.466208 c 1.65827,0 3.00914,1.047813 3.00914,2.334051 0,0.215959 -0.0447,1.200625 -0.11567,1.399128 -1.92894,0.52306 -3.85788,0.512537 -5.78682,0 -0.0691,-0.196097 -0.11568,-1.186094 -0.11568,-1.399128 0,-1.286238 1.35088,-2.334046 3.00915,-2.334051 z"
     id="path5193"
     style="display:inline;overflow:visible;visibility:visible;fill:none;stroke:#000000;stroke-width:0.5;stroke-linecap:round;stroke-linejoin:miter;stroke-miterlimit:4;stroke-dasharray:none;stroke-dashoffset:0;stroke-opacity:1;marker:none;enable-background:accumulate" />
  <path
     inkscape:connector-curvature="0"
     d="m 14.390365,38.466208 c -1.65827,0 -3.00915,1.047812 -3.00915,2.334051 0,0.215959 0.0447,1.200625 0.11568,1.399127 1.92894,0.52306 3.85788,0.512538 5.78682,0 0.0691,-0.196096 0.11567,-1.186094 0.11567,-1.399127 0,-1.286239 -1.35087,-2.334046 -3.00914,-2.334051 z"
     id="path3507-4"
     style="display:inline;overflow:visible;visibility:visible;fill:#9d9d9d;fill-opacity:1;fill-rule:evenodd;stroke:none;stroke-width:0.5;marker:none;enable-background:accumulate" />
  <path
     inkscape:connector-curvature="0"
     d="m 14.375375,38.480017 c -1.65827,0 -3.00914,1.047812 -3.00914,2.334051 0,0.0721 0.0293,0.281217 0.0386,0.46681 1.98584,0.501607 3.99387,0.492968 5.97971,0 0.01,-0.185489 0,-0.395799 0,-0.46681 0,-1.286239 -1.35087,-2.334046 -3.00915,-2.334051 z"
     id="path3512-0"
     style="display:inline;overflow:visible;visibility:visible;fill:#476181;fill-opacity:1;fill-rule:evenodd;stroke:none;stroke-width:0.5;marker:none;enable-background:accumulate" />
  <path
     inkscape:connector-curvature="0"
     d="m 14.390365,38.466208 c -1.65827,0 -3.00915,1.047813 -3.00915,2.334051 0,0.215959 0.0447,1.200625 0.11568,1.399128 1.92894,0.52306 3.85788,0.512537 5.78682,0 0.0691,-0.196097 0.11567,-1.186094 0.11567,-1.399128 0,-1.286238 -1.35087,-2.334046 -3.00914,-2.334051 z"
     id="path3517-2"
     style="display:inline;overflow:visible;visibility:visible;fill:none;stroke:#000000;stroke-width:0.5;stroke-linecap:round;stroke-linejoin:miter;stroke-miterlimit:4;stroke-dasharray:none;stroke-dashoffset:0;stroke-opacity:1;marker:none;enable-background:accumulate" />
  <path
     inkscape:connector-curvature="0"
     d="m 34.072336,24.841611 c -0.72828,0.643782 -1.88371,0.65979 -3.04102,0.09433 -0.16855,0.506669 -0.495869,0.873833 -0.909319,1.046128 -1.140791,0.475411 -2.737481,-0.75897 -3.579821,-2.785764 -0.54328,-1.307232 -0.64447,-2.625023 -0.33323,-3.518395 -1.00519,-1.130155 -1.35834,-2.417601 -0.75911,-3.050672 0.61996,-0.654993 2.04138,-0.335319 3.25136,0.689555 0.826881,-0.36802 2.00423,-0.479598 3.26585,-0.202537 2.14429,0.470905 3.6472,1.827289 3.38059,3.033776 -0.10687,0.483631 -0.4694,0.897763 -1.02264,1.155987 0.61729,1.420644 0.57578,2.805252 -0.25266,3.53759 z"
     id="path4895"
     style="display:inline;overflow:visible;visibility:visible;fill:#552200;fill-opacity:1;fill-rule:evenodd;stroke:none;stroke-width:0.5;marker:none;enable-background:accumulate" />
  <path
     inkscape:connector-curvature="0"
     d="m 1.7242843,25.045001 c 0.7282801,0.643782 1.8837101,0.65979 3.0410201,0.09433 0.16854,0.506669 0.49587,0.873833 0.90932,1.046128 1.14079,0.475411 2.73747,-0.75897 3.57981,-2.785764 0.54328,-1.307232 0.64448,-2.625023 0.33324,-3.518395 1.0051816,-1.130155 1.3583316,-2.417601 0.7591106,-3.050672 -0.6199706,-0.654993 -2.0413906,-0.335319 -3.2513606,0.689555 -0.82689,-0.36802 -2.00424,-0.479598 -3.26586,-0.202537 -2.1442901,0.470905 -3.64720009,1.827289 -3.38059013,3.033776 0.10687,0.483631 0.4694,0.897763 1.02265003,1.155987 -0.61730003,1.420644 -0.57579003,2.805252 0.25266,3.53759 z"
     id="path3804-0"
     style="display:inline;overflow:visible;visibility:visible;fill:#552200;fill-opacity:1;fill-rule:evenodd;stroke:none;stroke-width:0.5;marker:none;enable-background:accumulate" />
  <path
     inkscape:connector-curvature="0"
     d="m 28.701196,17.316795 c 0.826881,-0.368017 2.00424,-0.479598 3.26585,-0.202535 2.14429,0.470905 3.6472,1.82729 3.38059,3.033774 -0.10686,0.483631 -0.4694,0.897766 -1.02264,1.155987 0.61729,1.420643 0.57579,2.80525 -0.25267,3.537592 -0.72827,0.64378 -1.8837,0.659789 -3.04101,0.09433 -0.16854,0.506674 -0.495879,0.873837 -0.909319,1.046128 -1.140801,0.475409 -2.737491,-0.758971 -3.579821,-2.785767 -0.54328,-1.30723 -0.64448,-2.625022 -0.33324,-3.518394"
     id="path4897"
     style="display:inline;overflow:visible;visibility:visible;fill:none;stroke:#000000;stroke-width:0.5;stroke-linecap:round;stroke-linejoin:miter;stroke-miterlimit:4;stroke-dasharray:none;stroke-dashoffset:0;stroke-opacity:1;marker:none;enable-background:accumulate" />
  <path
     inkscape:connector-curvature="0"
     d="m 7.0954144,17.520185 c -0.82688,-0.368017 -2.00423,-0.479598 -3.26585,-0.202535 -2.1442901,0.470905 -3.64720009,1.82729 -3.38059013,3.033774 0.10687,0.483631 0.4694,0.897766 1.02264003,1.155987 -0.61729003,1.420643 -0.57578003,2.80525 0.25267,3.537592 0.7282801,0.64378 1.8837001,0.659789 3.0410101,0.09433 0.16855,0.506674 0.49588,0.873837 0.90932,1.046128 1.1408,0.475409 2.73749,-0.758971 3.57982,-2.785767 0.54329,-1.30723 0.64448,-2.625022 0.33324,-3.518394"
     id="path3813-1"
     style="display:inline;overflow:visible;visibility:visible;fill:none;stroke:#000000;stroke-width:0.5;stroke-linecap:round;stroke-linejoin:miter;stroke-miterlimit:4;stroke-dasharray:none;stroke-dashoffset:0;stroke-opacity:1;marker:none;enable-background:accumulate" />
  <path
     inkscape:connector-curvature="0"
     d="M 13.858475,3.39463 C 7.9736747,3.221563 4.5120347,14.817135 7.4544347,19.316918 c 2.9424013,4.499771 6.7502103,7.961133 11.2503503,7.961133 4.50014,0 9.86569,-3.461362 11.596521,-9.518758 C 32.032125,11.701911 27.531985,-3.1819679 13.858475,3.39463 Z"
     id="path3403-2-3"
     style="color:#000000;display:inline;overflow:visible;visibility:visible;fill:#552200;fill-opacity:1;fill-rule:evenodd;stroke:#000000;stroke-width:0.50000006;stroke-linecap:round;stroke-linejoin:round;stroke-miterlimit:4;stroke-dasharray:none;stroke-dashoffset:0;stroke-opacity:1;marker:none;enable-background:accumulate" />
  <path
     inkscape:connector-curvature="0"
     d="m 13.229135,32.056427 -0.80389,1.475932 c -0.49074,0.900992 -1.33076,1.221548 -2.021349,0.720496 -0.9770913,-0.855933 -1.7784513,-2.650002 -0.7780413,-4.694329 0.210331,-0.383389 3.6032803,2.497901 3.6032803,2.497901 z"
     id="path5115"
     style="display:inline;overflow:visible;visibility:visible;fill:#ffc78f;fill-opacity:1;fill-rule:evenodd;stroke:#000000;stroke-width:0.5;stroke-linecap:butt;stroke-linejoin:miter;stroke-miterlimit:4;stroke-dasharray:none;stroke-dashoffset:0;stroke-opacity:1;marker:none;enable-background:accumulate" />
  <path
     inkscape:connector-curvature="0"
     d="m 11.185715,31.2784 c 1.01268,0.703472 1.81272,1.298868 2.19654,0.565821 l 1.70317,-3.25283 c 0.61261,-1.169993 0.29053,-2.678236 -0.72215,-3.381696 -1.01268,-0.703461 -2.32114,-0.327876 -2.93374,0.842128 L 9.7263647,29.30464 c -0.33298,0.635959 0.4466713,1.270299 1.4593503,1.97376 z"
     id="path5119"
     style="display:inline;overflow:visible;visibility:visible;fill:#447821;fill-opacity:1;stroke:#000000;stroke-width:0.5;stroke-linecap:round;stroke-linejoin:miter;stroke-miterlimit:4;stroke-dashoffset:0;stroke-opacity:1;marker:none;enable-background:accumulate" />
  <path
     inkscape:connector-curvature="0"
     d="m 23.675505,32.056427 0.80389,1.475932 c 0.49074,0.900992 1.33077,1.221548 2.02135,0.720496 0.97709,-0.855933 1.77845,-2.650002 0.77805,-4.694329 -0.21034,-0.383389 -3.60329,2.497901 -3.60329,2.497901 z"
     id="path3537-2"
     style="display:inline;overflow:visible;visibility:visible;fill:#ffc78f;fill-opacity:1;fill-rule:evenodd;stroke:#000000;stroke-width:0.5;stroke-linecap:butt;stroke-linejoin:miter;stroke-miterlimit:4;stroke-dasharray:none;stroke-dashoffset:0;stroke-opacity:1;marker:none;enable-background:accumulate" />
  <path
     inkscape:connector-curvature="0"
     d="m 25.718935,31.2784 c -1.01269,0.703472 -1.81273,1.298868 -2.19655,0.565821 l -1.70317,-3.25283 c -0.6126,-1.169993 -0.29052,-2.678236 0.72216,-3.381696 1.01268,-0.703461 2.32113,-0.327876 2.93373,0.842128 l 1.70317,3.252817 c 0.33298,0.635959 -0.44666,1.270299 -1.45934,1.97376 z"
     id="path4398-0"
     style="display:inline;overflow:visible;visibility:visible;fill:#447821;fill-opacity:1;stroke:#000000;stroke-width:0.5;stroke-linecap:round;stroke-linejoin:miter;stroke-miterlimit:4;stroke-dashoffset:0;stroke-opacity:1;marker:none;enable-background:accumulate" />
  <path
     inkscape:connector-curvature="0"
     d="m 20.774345,23.80397 c -0.61243,0.0036 -1.34136,0.03074 -2.24871,0.03074 l -0.0661,0 c -1.36102,0 -2.33891,-0.0292 -3.07545,0 -1.22754,0.04868 -1.78997,0.281712 -2.18256,1.229852 -0.5349,1.291778 -2.04503,4.345393 -2.314859,6.518212 -0.0117,0.09408 -0.0262,0.186174 -0.0331,0.276718 -0.0258,0.274485 -0.031,0.535613 0,0.768656 0.0198,0.148458 0.0455,0.259692 0.0661,0.399702 0.231289,1.565988 0.497849,2.640521 0.694459,3.41284 l 0,3.149384 5.62058,0 c 0,0 10e-4,-2.736596 10e-4,-2.74968 0,-1.148542 2.53856,-1.117447 2.51326,0 l 0.002,2.74968 5.61911,0 0,-3.149384 c 0.19661,-0.772319 0.46317,-1.846852 0.69446,-3.41284 0.0222,-0.150581 0.0447,-0.238487 0.0661,-0.399702 0.031,-0.233043 0.0258,-0.494171 0,-0.768656 -0.008,-0.0915 -0.0212,-0.181961 -0.0331,-0.276718 -0.26983,-2.172819 -1.77997,-5.226434 -2.31485,-6.518212 -0.47112,-1.137766 -1.17205,-1.271299 -3.00931,-1.260599 z"
     id="path4592-8-4"
     style="color:#000000;display:inline;overflow:visible;visibility:visible;fill:#005800;fill-opacity:1;stroke:none;stroke-width:0.5;marker:none;enable-background:accumulate" />
  <path
     inkscape:connector-curvature="0"
     d="m 15.374165,23.821556 c -1.22755,0.04868 -1.76551,0.295315 -2.1581,1.243455 -0.5349,1.291777 -2.07116,4.337033 -2.340999,6.509852 -0.0117,0.09408 -0.0297,0.202034 -0.0366,0.292578 -0.004,0.03922 0.002,0.0711 0,0.109716 0.730489,1.23344 3.901499,2.157761 7.681389,2.157761 3.69729,0 6.79078,-0.891498 7.60823,-2.084616 -0.003,-0.06364 0.006,-0.117507 0,-0.182861 -0.008,-0.0915 -0.0247,-0.197821 -0.0366,-0.292578 -0.26982,-2.172819 -1.76953,-5.218075 -2.30442,-6.509852 -0.47112,-1.137767 -1.16214,-1.254155 -2.99939,-1.243455 -0.61243,0.0036 -1.3605,0 -2.26784,0 l -0.0732,0 c -1.36102,0 -2.33602,-0.0292 -3.07256,0 z"
     id="path4594-3-2"
     style="color:#000000;display:inline;overflow:visible;visibility:visible;fill:#447821;fill-opacity:1;fill-rule:evenodd;stroke:none;stroke-width:0.5;marker:none;enable-background:accumulate" />
  <path
     inkscape:connector-curvature="0"
     d="m 14.935115,23.858129 1.1e-4,0 c -0.006,0.100178 -0.0366,0.190592 -0.0366,0.292577 0,2.337979 1.58891,4.242375 3.54807,4.242375 1.95916,0 3.54807,-1.904396 3.54807,-4.242375 0,-0.101981 -0.0307,-0.192398 -0.0366,-0.292577"
     id="path4604-9-2"
     style="color:#000000;display:inline;overflow:visible;visibility:visible;fill:#ffc78f;fill-opacity:1;stroke:#000000;stroke-width:0.5;stroke-linecap:round;stroke-linejoin:round;stroke-miterlimit:4;stroke-dasharray:none;stroke-dashoffset:0;stroke-opacity:1;marker:none;enable-background:accumulate" />
  <path
     inkscape:connector-curvature="0"
     d="m 10.838496,31.977158 c 0.730479,1.233439 3.901499,2.15776 7.681379,2.15776 3.6973,0 6.79078,-0.891498 7.60823,-2.084616"
     id="path4602-8-6"
     style="color:#000000;display:inline;overflow:visible;visibility:visible;fill:none;stroke:#000000;stroke-width:0.5;stroke-opacity:1;marker:none;enable-background:accumulate" />
  <path
     inkscape:connector-curvature="0"
     d="m 20.774345,23.80397 c -0.61242,0.0036 -1.34136,0.03074 -2.24871,0.03074 l -0.0661,0 c -1.36102,0 -2.33891,-0.0292 -3.07545,0 -1.22754,0.04868 -1.78997,0.281713 -2.18256,1.229853 -0.5349,1.291777 -2.04502,4.345393 -2.314859,6.518211 -0.0117,0.09408 -0.0262,0.186175 -0.0331,0.276718 -0.0258,0.274486 -0.031,0.535614 0,0.768657 0.0198,0.148457 0.0455,0.259692 0.0661,0.399702 0.231289,1.565988 0.497849,2.64052 0.694459,3.41284 l 0,3.149383 5.62058,0 c 0,0 10e-4,-2.736596 10e-4,-2.74968 0,-1.148542 2.53856,-1.117447 2.51326,0 l 0.002,2.74968 5.61911,0 0,-3.149383 c 0.19661,-0.77232 0.46317,-1.846852 0.69446,-3.41284 0.0222,-0.150582 0.0447,-0.238487 0.0661,-0.399702 0.031,-0.233043 0.0258,-0.494171 0,-0.768657 -0.008,-0.0915 -0.0212,-0.181961 -0.0331,-0.276718 -0.26983,-2.172818 -1.77997,-5.226434 -2.31485,-6.518211 -0.47112,-1.137767 -1.17205,-1.271299 -3.00931,-1.260599 z"
     id="path4378-9-6-4"
     style="color:#000000;display:inline;overflow:visible;visibility:visible;fill:none;stroke:#000000;stroke-width:0.5;stroke-linecap:round;stroke-linejoin:miter;stroke-miterlimit:4;stroke-dasharray:none;stroke-dashoffset:0;stroke-opacity:1;marker:none;enable-background:accumulate" />
  <path
     inkscape:connector-curvature="0"
     d="m 13.075915,8.058225 c -0.3073,1.44415 -0.62834,7.705739 -3.062499,13.3125 1.021559,0.99061 1.949059,1.487126 2.781249,2.03125 1.34161,0.877204 2.17406,2.183395 4.46875,2.5625 0.0237,0.0026 0.0699,-0.0024 0.0937,0 0.387,0.03936 0.75892,0.0625 1.15625,0.0625 0.39733,0 0.80049,-0.02315 1.1875,-0.0625 0.012,-0.0012 0.0194,0.0012 0.0313,0 0.0125,-0.002 0.0189,0.0021 0.0313,0 2.29088,-0.38067 3.12852,-1.686196 4.46875,-2.5625 1.17876,-0.770732 2.52511,-1.439903 4.09375,-3.59375 -1.44109,-3.176304 -1.28819,-5.515658 -1.4375,-6.375 -2.89985,0.218381 -11.35877,-3.409435 -13.8125,-5.375 z"
     id="path2436-1"
     style="display:inline;overflow:visible;visibility:visible;fill:#ffc78f;fill-opacity:1;fill-rule:evenodd;stroke:#000000;stroke-width:0.49999997;stroke-linecap:round;stroke-linejoin:round;stroke-miterlimit:4;stroke-dasharray:none;stroke-dashoffset:0;stroke-opacity:1;marker:none;enable-background:accumulate" />
  <path
     inkscape:connector-curvature="0"
     d="m 12.277545,16.201878 c 0.57734,-1.51554 3.03107,-1.3712 4.04143,1.08253 0.21651,0.36084 -0.36084,0.72169 -0.64951,0.28867 -0.72169,1.29904 -3.82494,0.50518 -3.39192,-1.3712 z"
     id="path3443-7"
     style="display:inline;overflow:visible;visibility:visible;fill:#ffffff;fill-opacity:1;fill-rule:evenodd;stroke:#000000;stroke-width:0.5;stroke-linecap:round;stroke-linejoin:round;stroke-miterlimit:4;stroke-dasharray:none;stroke-dashoffset:0;stroke-opacity:1;marker:none;enable-background:accumulate" />
  <path
     inkscape:connector-curvature="0"
     d="m 15.337106,16.636443 a 1.100183,1.100183 0 0 1 -2.200366,0 1.100183,1.100183 0 1 1 2.200366,0 z"
     id="path3446-2"
     style="display:inline;overflow:visible;visibility:visible;fill:#000000;fill-opacity:1;fill-rule:evenodd;stroke:none;stroke-width:0.5;marker:none;enable-background:accumulate" />
  <path
     inkscape:connector-curvature="0"
     d="m 24.809225,16.201878 c -0.57735,-1.51554 -3.03108,-1.3712 -4.04144,1.08253 -0.21651,0.36084 0.36084,0.72169 0.64952,0.28867 0.72168,1.29904 3.82493,0.50518 3.39192,-1.3712 z"
     id="path3448-4"
     style="display:inline;overflow:visible;visibility:visible;fill:#ffffff;fill-opacity:1;fill-rule:evenodd;stroke:#000000;stroke-width:0.5;stroke-linecap:round;stroke-linejoin:round;stroke-miterlimit:4;stroke-dasharray:none;stroke-dashoffset:0;stroke-opacity:1;marker:none;enable-background:accumulate" />
  <path
     inkscape:connector-curvature="0"
     d="m 21.749652,16.636443 a 1.1001831,1.1001831 0 0 0 2.200366,0 1.1001831,1.1001831 0 1 0 -2.200366,0 z"
     id="path3450-7"
     style="display:inline;overflow:visible;visibility:visible;fill:#000000;fill-opacity:1;fill-rule:evenodd;stroke:none;stroke-width:0.5;marker:none;enable-background:accumulate" />
  <path
     inkscape:connector-curvature="0"
     d="m 14.403143,16.301248 a 0.4257005,0.4257005 0 1 1 -0.851401,0 0.4257005,0.4257005 0 1 1 0.851401,0 z"
     id="path3452-9"
     style="display:inline;overflow:visible;visibility:visible;fill:#ffffff;fill-opacity:1;fill-rule:evenodd;stroke:none;stroke-width:0.5;marker:none;enable-background:accumulate" />
  <path
     inkscape:connector-curvature="0"
     d="m 22.943893,16.301248 a 0.4257005,0.4257005 0 1 1 -0.851401,0 0.4257005,0.4257005 0 1 1 0.851401,0 z"
     id="path3454-2"
     style="display:inline;overflow:visible;visibility:visible;fill:#ffffff;fill-opacity:1;fill-rule:evenodd;stroke:none;stroke-width:0.5;marker:none;enable-background:accumulate" />
  <path
     inkscape:connector-curvature="0"
     d="m 18.492055,23.013499 0,0.644833"
     id="path5043-3"
     style="display:inline;fill:none;stroke:#000000;stroke-width:0.5;stroke-linecap:round;stroke-linejoin:miter;stroke-miterlimit:4;stroke-dasharray:none;stroke-opacity:1" />
  <path
     inkscape:connector-curvature="0"
     d="m 15.678385,22.985284 6.34629,0"
     id="rect2418-5"
     style="display:inline;overflow:visible;visibility:visible;fill:none;stroke:#000000;stroke-width:0.5;stroke-linecap:round;stroke-linejoin:round;stroke-miterlimit:4;stroke-dashoffset:0;stroke-opacity:1;marker:none;enable-background:accumulate" />
  <path
     inkscape:connector-curvature="0"
     d="m 17.565185,20.437721 c 0.0734,0.464666 0.4523,0.843751 0.9375,0.84375 0.48521,0 0.86408,-0.379083 0.9375,-0.84375"
     id="path3335-9"
     style="display:inline;overflow:visible;visibility:visible;fill:none;stroke:#000000;stroke-width:0.5;stroke-linecap:round;stroke-linejoin:round;stroke-miterlimit:4;stroke-dasharray:none;stroke-dashoffset:0;stroke-opacity:1;marker:none;enable-background:accumulate" />
  <path
     inkscape:connector-curvature="0"
     d="m 12.141195,14.616625 c 1.86285,-1.361315 2.93757,-1.218018 3.869,-0.931426"
     id="path5087"
     style="display:inline;fill:none;stroke:#000000;stroke-width:0.5;stroke-linecap:round;stroke-linejoin:miter;stroke-miterlimit:4;stroke-dasharray:none;stroke-opacity:1" />
  <path
     inkscape:connector-curvature="0"
     d="m 24.763455,14.616625 c -1.86285,-1.361315 -2.93757,-1.218018 -3.869,-0.931426"
     id="path5089"
     style="display:inline;fill:none;stroke:#000000;stroke-width:0.5;stroke-linecap:round;stroke-linejoin:miter;stroke-miterlimit:4;stroke-dasharray:none;stroke-opacity:1" />
</svg>
