<?xml version="1.0" encoding="UTF-8" standalone="no"?>
<!-- Created with Inkscape (http://www.inkscape.org/) -->

<svg
   xmlns:dc="http://purl.org/dc/elements/1.1/"
   xmlns:cc="http://creativecommons.org/ns#"
   xmlns:rdf="http://www.w3.org/1999/02/22-rdf-syntax-ns#"
   xmlns:svg="http://www.w3.org/2000/svg"
   xmlns="http://www.w3.org/2000/svg"
   xmlns:sodipodi="http://sodipodi.sourceforge.net/DTD/sodipodi-0.dtd"
   xmlns:inkscape="http://www.inkscape.org/namespaces/inkscape"
   version="1.0"
   width="100%"
   height="100%"
   viewBox="0 0 36 36"
   id="svg2383"
   inkscape:version="0.91 r13725"
   sodipodi:docname="00bhg1.svg">
  <sodipodi:namedview
     pagecolor="#ffffff"
     bordercolor="#666666"
     borderopacity="1"
     objecttolerance="10"
     gridtolerance="10"
     guidetolerance="10"
     inkscape:pageopacity="0"
     inkscape:pageshadow="2"
     inkscape:window-width="838"
     inkscape:window-height="495"
     id="namedview44"
     showgrid="false"
     inkscape:zoom="8.4468704"
     inkscape:cx="21.915432"
     inkscape:cy="13.287715"
     inkscape:window-x="1427"
     inkscape:window-y="293"
     inkscape:window-maximized="0"
     inkscape:current-layer="svg2383" />
  <metadata
     id="metadata9">
    <rdf:RDF>
      <cc:Work
         rdf:about="">
        <dc:format>image/svg+xml</dc:format>
        <dc:type
           rdf:resource="http://purl.org/dc/dcmitype/StillImage" />
        <dc:title></dc:title>
      </cc:Work>
    </rdf:RDF>
  </metadata>
  <defs
     id="defs2385" />
  <path
     inkscape:connector-curvature="0"
     sodipodi:nodetypes="csccsc"
     id="path4410"
     d="m 22.819059,39.420255 c 1.62266,0 2.94453,1.024522 2.94453,2.282162 0,0.21116 -0.0437,1.17393 -0.11319,1.36802 -1.88752,0.51144 -3.77504,0.50115 -5.66256,0 -0.0676,-0.19174 -0.11319,-1.15972 -0.11319,-1.36802 0,-1.25764 1.32187,-2.282162 2.94453,-2.282162 z"
     style="display:inline;overflow:visible;visibility:visible;fill:#9d9d9d;fill-opacity:1;fill-rule:evenodd;stroke:none;stroke-width:0.5;marker:none;enable-background:accumulate" />
  <path
     inkscape:connector-curvature="0"
     id="path4412"
     d="m 22.833729,39.433757 c 1.62266,0 2.94453,1.02452 2.94453,2.28216 0,0.0705 -0.0286,0.27497 -0.0378,0.45643 -1.9432,0.49046 -3.90812,0.48201 -5.85131,0 -0.01,-0.18136 0,-0.387 0,-0.45643 0,-1.25764 1.32186,-2.28215 2.94453,-2.28216 z"
     style="display:inline;overflow:visible;visibility:visible;fill:#476181;fill-opacity:1;fill-rule:evenodd;stroke:none;stroke-width:0.5;marker:none;enable-background:accumulate" />
  <path
     inkscape:connector-curvature="0"
     style="display:inline;overflow:visible;visibility:visible;fill:none;stroke:#000000;stroke-width:0.5;stroke-linecap:round;stroke-linejoin:miter;stroke-miterlimit:4;stroke-dasharray:none;stroke-dashoffset:0;stroke-opacity:1;marker:none;enable-background:accumulate"
     d="m 22.819059,39.420255 c 1.62266,0 2.94453,1.024512 2.94453,2.282162 0,0.21115 -0.0437,1.17393 -0.11319,1.36802 -1.88752,0.51143 -3.77504,0.50114 -5.66256,0 -0.0676,-0.19174 -0.11319,-1.15973 -0.11319,-1.36802 0,-1.25765 1.32187,-2.282162 2.94453,-2.282162 z"
     id="path4414"
     sodipodi:nodetypes="csccsc" />
  <path
     style="display:inline;overflow:visible;visibility:visible;fill:#9d9d9d;fill-opacity:1;fill-rule:evenodd;stroke:none;stroke-width:0.5;marker:none;enable-background:accumulate"
     d="m 14.766389,39.420255 c -1.62266,0 -2.94453,1.024522 -2.94453,2.282162 0,0.21116 0.0437,1.17393 0.11319,1.36802 1.88752,0.51144 3.77504,0.50115 5.66256,0 0.0677,-0.19174 0.11319,-1.15972 0.11319,-1.36802 0,-1.25764 -1.32186,-2.282162 -2.94453,-2.282162 z"
     id="path3507-3-1"
     sodipodi:nodetypes="csccsc"
     inkscape:connector-curvature="0" />
  <path
     style="display:inline;overflow:visible;visibility:visible;fill:#476181;fill-opacity:1;fill-rule:evenodd;stroke:none;stroke-width:0.5;marker:none;enable-background:accumulate"
     d="m 14.751729,39.433757 c -1.62266,0 -2.94453,1.02452 -2.94453,2.28216 0,0.0705 0.0286,0.27497 0.0378,0.45643 1.9432,0.49046 3.90811,0.48201 5.85131,0 0.01,-0.18136 0,-0.387 0,-0.45643 0,-1.25764 -1.32187,-2.28215 -2.94453,-2.28216 z"
     id="path3512-7"
     inkscape:connector-curvature="0" />
  <path
     sodipodi:nodetypes="csccsc"
     id="path3517-9-1"
     d="m 14.766389,39.420255 c -1.62266,0 -2.94453,1.024512 -2.94453,2.282162 0,0.21115 0.0437,1.17393 0.11319,1.36802 1.88752,0.51143 3.77504,0.50114 5.66256,0 0.0677,-0.19174 0.11319,-1.15973 0.11319,-1.36802 0,-1.25765 -1.32187,-2.282162 -2.94453,-2.282162 z"
     style="display:inline;overflow:visible;visibility:visible;fill:none;stroke:#000000;stroke-width:0.5;stroke-linecap:round;stroke-linejoin:miter;stroke-miterlimit:4;stroke-dasharray:none;stroke-dashoffset:0;stroke-opacity:1;marker:none;enable-background:accumulate"
     inkscape:connector-curvature="0" />
  <path
     style="display:inline;overflow:visible;visibility:visible;fill:#501616;fill-opacity:1;fill-rule:evenodd;stroke:#000000;stroke-width:0.5;stroke-linecap:butt;stroke-linejoin:miter;stroke-miterlimit:4;stroke-dasharray:none;stroke-dashoffset:0;stroke-opacity:1;marker:none;enable-background:accumulate"
     d="m 18.659259,2.4995451 c -6.51372,0 -11.8002166,5.19013 -11.8002166,11.5850999 0,0.96263 -0.0335,1.80007 -0.0335,2.83045 l 0,9.24488 c 0,3.1349 2.5729,5.62799 5.7660166,5.62799 l 12.10192,0 c 3.19311,0 5.76601,-2.49309 5.76601,-5.62799 l 0,-9.24488 c 0,-0.87316 0,-1.79593 0,-2.83045 0,-6.3949699 -5.28649,-11.5850999 -11.80021,-11.5850999 z"
     id="path3219-1"
     sodipodi:nodetypes="scccccccccs"
     inkscape:connector-curvature="0" />
  <path
     inkscape:connector-curvature="0"
     id="path4380-4"
     d="m 14.091989,32.749095 -0.85363,1.52842 c -0.5211,0.93303 -1.47938,1.30645 -2.30864,0.84762 -1.1812796,-0.79644 -2.2093366,-2.54348 -1.1582996,-4.65346 0.2235,-0.39711 4.3205696,2.27742 4.3205696,2.27742 z"
     style="display:inline;overflow:visible;visibility:visible;fill:#ffc78f;fill-opacity:1;fill-rule:evenodd;stroke:#000000;stroke-width:0.5;stroke-linecap:butt;stroke-linejoin:miter;stroke-miterlimit:4;stroke-dasharray:none;stroke-dashoffset:0;stroke-opacity:1;marker:none;enable-background:accumulate"
     sodipodi:nodetypes="ccccc" />
  <path
     inkscape:connector-curvature="0"
     sodipodi:nodetypes="cccsccc"
     id="path4384-2"
     d="m 11.676429,32.097135 c 1.21435,0.64152 2.17586,1.18802 2.58189,0.42987 l 1.80172,-3.36423 c 0.64806,-1.21006 0.19216,-2.70068 -1.02218,-3.34218 -1.21435,-0.64149 -2.71369,-0.18377 -3.36174,1.0263 l -1.8017196,3.36422 c -0.352247,0.65774 0.5876796,1.24453 1.8020296,1.88602 z"
     style="display:inline;overflow:visible;visibility:visible;fill:#3cab5a;fill-opacity:1;stroke:#000000;stroke-width:0.5;stroke-linecap:round;stroke-linejoin:miter;stroke-miterlimit:4;stroke-dashoffset:0;stroke-opacity:1;marker:none;enable-background:accumulate" />
  <path
     sodipodi:nodetypes="ccccc"
     style="display:inline;overflow:visible;visibility:visible;fill:#ffc78f;fill-opacity:1;fill-rule:evenodd;stroke:#000000;stroke-width:0.5;stroke-linecap:butt;stroke-linejoin:miter;stroke-miterlimit:4;stroke-dasharray:none;stroke-dashoffset:0;stroke-opacity:1;marker:none;enable-background:accumulate"
     d="m 23.493459,32.749095 0.85363,1.52842 c 0.5211,0.93303 1.47938,1.30645 2.30864,0.84762 1.18128,-0.79644 2.20934,-2.54348 1.1583,-4.65346 -0.2235,-0.39711 -4.32057,2.27742 -4.32057,2.27742 z"
     id="path3537-7-3"
     inkscape:connector-curvature="0" />
  <path
     style="display:inline;overflow:visible;visibility:visible;fill:#3cab5a;fill-opacity:1;stroke:#000000;stroke-width:0.5;stroke-linecap:round;stroke-linejoin:miter;stroke-miterlimit:4;stroke-dashoffset:0;stroke-opacity:1;marker:none;enable-background:accumulate"
     d="m 25.909019,32.097135 c -1.21435,0.64152 -2.17586,1.18802 -2.58189,0.42987 l -1.80172,-3.36423 c -0.64806,-1.21006 -0.19216,-2.70068 1.02218,-3.34218 1.21435,-0.64149 2.71369,-0.18377 3.36174,1.0263 l 1.80172,3.36422 c 0.35225,0.65774 -0.58768,1.24453 -1.80203,1.88602 z"
     id="path4398-9"
     sodipodi:nodetypes="cccsccc"
     inkscape:connector-curvature="0" />
  <path
     id="path4368-8"
     d="m 21.059439,24.811315 c -0.61156,0.004 -1.33948,0.0307 -2.24556,0.0307 l -0.066,0 c -1.35911,0 -2.33563,-0.0292 -3.07113,0 -1.22583,0.0486 -1.78746,0.28132 -2.17951,1.22813 -0.62728,1.51489 -2.62342,5.46098 -2.34463,7.55297 0.0198,0.14825 0.0455,0.25933 0.066,0.39914 l 15.1245,0 c 0.0203,-0.13981 0.0463,-0.25089 0.066,-0.39914 0.2788,-2.09199 -1.71734,-6.03808 -2.34462,-7.55297 -0.47045,-1.13617 -1.1704,-1.26951 -3.00508,-1.25883 z"
     style="display:inline;overflow:visible;visibility:visible;fill:#3cab5a;fill-opacity:1;fill-rule:evenodd;stroke:none;stroke-width:0.5;marker:none;enable-background:accumulate"
     inkscape:connector-curvature="0" />
  <path
     style="color:#000000;display:inline;overflow:visible;visibility:visible;fill:#197d10;fill-opacity:1;stroke:none;stroke-width:0.5;marker:none;enable-background:accumulate"
     d="m 14.699229,29.261775 0,2.48342 -0.4018,0.73041 -3.06824,0 c -0.005,0.0368 -0.032,0.0732 -0.0366,0.10957 -0.0117,0.094 -0.0297,0.16523 -0.0366,0.25564 -0.0257,0.2741 -0.031,0.53423 0,0.76694 0.0197,0.14825 0.0525,0.26192 0.073,0.40173 0.23096,1.56379 0.49767,2.66173 0.694,3.43296 l 0,3.140802 5.5886,0 0,-2.739072 c 0,-1.14693 2.54562,-1.11588 2.52035,0 l 0,2.739072 5.62512,0 0,-3.140802 c 0.19633,-0.77123 0.46304,-1.86917 0.69401,-3.43296 0.0222,-0.15037 0.0517,-0.24074 0.073,-0.40173 0.031,-0.23271 0.0257,-0.49284 0,-0.76694 -0.007,-0.0786 -0.0261,-0.13869 -0.0366,-0.21912 l -2.70298,0 -0.80359,-0.94955 0,-2.41037 -8.182,0 z"
     id="path4389-6-8"
     inkscape:connector-curvature="0" />
  <path
     style="display:inline;overflow:visible;visibility:visible;fill:#2d5c0b;fill-opacity:1;fill-rule:evenodd;stroke:none;stroke-width:0.49999997;marker:none;enable-background:accumulate"
     d="m 20.901419,24.802765 0,4.71216 c -2e-5,0.58004 0.47919,1.07601 1.03961,1.07601 l 0.35849,0 c 0.56041,0 1.00377,-0.49597 1.00377,-1.07601 l 0,-4.41533 c -0.49091,-0.27765 -1.23407,-0.30731 -2.40187,-0.29683 z m -5.23392,0.0371 c -0.61292,0.0243 -1.06262,0.078 -1.3981,0.25972 l 0,4.41534 c 0,0.58004 0.44334,1.07601 1.00376,1.07601 l 0.39434,0 c 0.56041,0 1.00375,-0.49597 1.00376,-1.07601 l 0,-4.67506 c -0.29714,1.4e-4 -0.7643,-0.01 -1.00376,0 z"
     id="path4372-7"
     inkscape:connector-curvature="0" />
  <path
     style="display:inline;overflow:visible;visibility:visible;fill:none;stroke:#000000;stroke-width:0.50000006;stroke-linecap:round;stroke-linejoin:round;stroke-miterlimit:4;stroke-dasharray:none;stroke-dashoffset:0;stroke-opacity:1;marker:none;enable-background:accumulate"
     d="m 26.388219,32.554705 c -1.71051,-0.30693 -2.91405,0.68992 -3.47733,-0.81628 l 0,-1.29863 c 0,-0.0255 10e-4,-0.0492 0,-0.0742 0.24328,-0.19898 0.39433,-0.50983 0.39433,-0.85338 l 0,-4.41535 m -2.40186,-0.29682 0,4.60085 -4.23015,0 0,-4.56375 m -2.40187,0.25972 0,4.41535 c 0,0.34355 0.15106,0.6544 0.39433,0.85338 -10e-4,0.025 0,0.0487 0,0.0742 l 0,1.29863 c -0.56391,1.50786 -1.76386,0.54939 -3.47732,0.85338"
     id="path4376-1"
     sodipodi:nodetypes="cccsccccccccsccc"
     inkscape:connector-curvature="0" />
  <path
     sodipodi:nodetypes="csscscccccccsscccccccscc"
     id="path4378-8-0"
     d="m 21.059449,24.811315 c -0.61157,0.004 -1.33949,0.0307 -2.24556,0.0307 l -0.066,0 c -1.35912,0 -2.33564,-0.0292 -3.07114,0 -1.22583,0.0486 -1.78746,0.28132 -2.17951,1.22813 -0.53414,1.28997 -2.04215,4.3393 -2.31161,6.50906 -0.0117,0.094 -0.0262,0.18592 -0.0331,0.27633 -0.0257,0.2741 -0.031,0.53487 0,0.76758 0.0197,0.14825 0.0455,0.25933 0.066,0.39914 0.23096,1.56379 0.49715,2.63682 0.69348,3.40805 l 0,3.144962 5.61271,0 c 0,0 10e-4,-2.732752 10e-4,-2.745822 0,-1.14692 2.53501,-1.11587 2.50973,0 l 0.002,2.745822 5.61124,0 0,-3.144962 c 0.19633,-0.77123 0.46252,-1.84426 0.69348,-3.40805 0.0222,-0.15037 0.0446,-0.23815 0.066,-0.39914 0.031,-0.23271 0.0257,-0.49348 0,-0.76758 -0.008,-0.0914 -0.0212,-0.1817 -0.0331,-0.27633 -0.26944,-2.16976 -1.77746,-5.21909 -2.3116,-6.50906 -0.47046,-1.13617 -1.17041,-1.26951 -3.00509,-1.25883 z"
     style="color:#000000;display:inline;overflow:visible;visibility:visible;fill:none;stroke:#000000;stroke-width:0.50000006;stroke-linecap:round;stroke-linejoin:miter;stroke-miterlimit:4;stroke-dasharray:none;stroke-dashoffset:0;stroke-opacity:1;marker:none;enable-background:accumulate"
     inkscape:connector-curvature="0" />
  <path
     style="display:inline;overflow:visible;visibility:visible;fill:#ffc78f;fill-opacity:1;fill-rule:evenodd;stroke:#000000;stroke-width:0.5;stroke-linecap:round;stroke-linejoin:round;stroke-miterlimit:4;stroke-dasharray:none;stroke-dashoffset:0;stroke-opacity:1;marker:none;enable-background:accumulate"
     d="m 18.697559,11.465285 c -0.79774,3.25393 -6.12158,3.44983 -7.09375,4.375 -0.47746,0.45438 -0.65912,3.70828 -0.71875,7.125 2.0436,2.33859 4.84388,3.90625 7.9375,3.90625 2.92464,0 5.58448,-1.40253 7.59375,-3.53125 -0.0414,-3.55269 -0.22309,-7.02831 -0.71875,-7.5 -0.96828,-0.92148 -5.9828,-1.16025 -6.8125,-4.375 l -0.1875,0 z"
     id="path3524-4"
     inkscape:connector-curvature="0" />
  <path
     style="color:#000000;display:inline;overflow:visible;visibility:visible;fill:#dfea19;fill-opacity:1;fill-rule:evenodd;stroke:none;stroke-width:0.5;marker:none;enable-background:accumulate"
     d="m 18.642499,-3.5952449 c -4.9961,0 -9.0488196,4.04629998 -9.0488196,9.03447 0,0.99445 0.17273,1.94461 0.4700796,2.83941 1.48738,0.8808 4.7681,1.47838 8.57874,1.47838 3.81064,0 7.1084,-0.59758 8.60225,-1.47838 0.29735,-0.8948 0.44657,-1.84496 0.44657,-2.83941 0,-4.98817002 -4.05272,-9.03447 -9.04882,-9.03447 z"
     id="path4932-8-1"
     inkscape:connector-curvature="0" />
  <path
     style="color:#000000;display:inline;overflow:visible;visibility:visible;fill:#d9c511;fill-opacity:1;stroke:none;stroke-width:0.5;marker:none;enable-background:accumulate"
     d="m 9.6406994,4.4895851 c -0.0325,0.31121 -0.047,0.61888 -0.047,0.93865 0,0.99444 0.17273,1.9446 0.4700796,2.8394 1.48737,0.8808 4.7681,1.47838 8.57874,1.47838 3.81064,0 7.1084,-0.59758 8.60225,-1.47838 0.29735,-0.8948 0.44657,-1.84496 0.44657,-2.8394 0,-0.31977 -0.0137,-0.62744 -0.047,-0.93865 l -18.0035996,0 z"
     id="rect5151-3-1"
     inkscape:connector-curvature="0" />
  <path
     inkscape:connector-curvature="0"
     id="path5149-5-2"
     d="m 18.642499,-3.5952449 c -4.9961,0 -9.0488196,4.04629998 -9.0488196,9.03447 0,0.99445 0.17273,1.94461 0.4700796,2.83941 1.48738,0.8808 4.7681,1.47838 8.57874,1.47838 3.81064,0 7.1084,-0.59758 8.60225,-1.47838 0.29735,-0.8948 0.44657,-1.84496 0.44657,-2.83941 0,-4.98817002 -4.05272,-9.03447 -9.04882,-9.03447 z"
     style="color:#000000;display:inline;overflow:visible;visibility:visible;fill:none;stroke:#000000;stroke-width:0.49999997;stroke-linecap:round;stroke-linejoin:miter;stroke-miterlimit:4;stroke-dasharray:none;stroke-dashoffset:0;stroke-opacity:1;marker:none;enable-background:accumulate" />
  <path
     inkscape:connector-curvature="0"
     style="display:inline;fill:#edd717;fill-opacity:1;stroke:#000000;stroke-width:0.49999997;stroke-linecap:butt;stroke-linejoin:miter;stroke-miterlimit:4;stroke-dasharray:none;stroke-opacity:1"
     d="m 15.151699,6.9194351 c -1.43143,0.0369 -2.70836,0.17482 -3.04516,0.6177 -2.1892496,2.36183 -0.92622,3.4854699 0,3.4854699 0.90788,0 3.5825,-1.0829399 6.54334,-1.1250399 2.96085,0.0421 5.63546,1.1250399 6.54335,1.1250399 0.9262,0 2.18923,-1.1236399 0,-3.4854699 -0.63277,-0.83198 -4.52792,-0.60211 -6.54335,-0.57359 -0.94263,-0.0137 -2.24043,-0.0765 -3.49818,-0.0441 z"
     id="path3596-2-1-1-1" />
  <path
     sodipodi:nodetypes="ccccc"
     id="path3208-9"
     d="m 15.739039,23.301225 c -1.22799,0 -0.62065,2.17488 2.65625,2.34375 0.37562,0 0.66751,0 1,0 3.28756,-0.16412 3.88576,-2.34375 2.65625,-2.34375 -2.10416,0 -4.20833,0 -6.3125,0 z"
     style="display:inline;fill:#2a2a2a;fill-opacity:1;fill-rule:evenodd;stroke:none"
     inkscape:connector-curvature="0" />
  <path
     id="path3210-1"
     d="m 18.832789,24.176225 c -1.00466,0 -1.8314,0.4514 -2.1875,1.09375 0.47042,0.18559 1.03212,0.33801 1.75,0.375 0.37562,0 0.66751,0 1,0 0.68935,-0.0344 1.2267,-0.17078 1.6875,-0.34375 -0.34329,-0.6616 -1.2264,-1.125 -2.25,-1.125 z"
     style="display:inline;overflow:visible;visibility:visible;fill:#5b1f1f;fill-opacity:1;fill-rule:evenodd;stroke:none;stroke-width:0.5;marker:none;enable-background:accumulate"
     inkscape:connector-curvature="0" />
  <path
     id="path3212-3"
     d="m 16.239039,23.301225 c 0.35757,0.52195 1.06499,1.01575 2.25,1.09375 0.29408,0 0.55219,0 0.8125,0 1.18887,-0.0758 1.89309,-0.57134 2.25,-1.09375 -1.77083,0 -3.54166,0 -5.3125,0 z"
     style="display:inline;fill:#f3f3f3;fill-opacity:1;fill-rule:evenodd;stroke:none"
     inkscape:connector-curvature="0" />
  <path
     style="display:inline;fill:none;stroke:#000000;stroke-width:0.5;stroke-linecap:butt;stroke-linejoin:miter;stroke-miterlimit:4;stroke-dasharray:none;stroke-opacity:1"
     d="m 15.739039,23.301225 c -1.22799,0 -0.62065,2.17488 2.65625,2.34375 0.37562,0 0.66751,0 1,0 3.28756,-0.16412 3.88576,-2.34375 2.65625,-2.34375 -2.10416,0 -4.20833,0 -6.3125,0 z"
     id="path3214-4"
     sodipodi:nodetypes="ccccc"
     inkscape:connector-curvature="0" />
  <path
     style="display:inline;overflow:visible;visibility:visible;fill:#ffffff;fill-opacity:1;fill-rule:evenodd;stroke:#000000;stroke-width:0.49999997;stroke-linecap:round;stroke-linejoin:round;stroke-miterlimit:4;stroke-dashoffset:0;stroke-opacity:1;marker:none;enable-background:accumulate"
     d="m 17.130359,17.496965 c 0,1.06363 -0.94465,1.92687 -2.1086,1.92687 -1.16395,0 -2.1086,-0.86324 -2.1086,-1.92687 0,-1.06364 0.94465,-1.19283 2.1086,-1.19283 1.16395,0 2.1086,0.12919 2.1086,1.19283 z"
     id="path3456-9-2"
     sodipodi:nodetypes="csssc"
     inkscape:connector-curvature="0" />
  <circle
     style="display:inline;overflow:visible;visibility:visible;fill:#000000;fill-opacity:1;fill-rule:evenodd;stroke:none;stroke-width:0.5;marker:none;enable-background:accumulate"
     id="path3458-8"
     cx="15.101252"
     cy="17.405207"
     r="1.1770828" />
  <circle
     style="display:inline;overflow:visible;visibility:visible;fill:#ffffff;fill-opacity:1;fill-rule:evenodd;stroke:none;stroke-width:0.5;marker:none;enable-background:accumulate"
     id="path3460-7"
     cx="14.749971"
     cy="17.150293"
     r="0.42570049" />
  <path
     sodipodi:nodetypes="csssc"
     id="path3462-3"
     d="m 20.493569,17.496965 c 0,1.06363 0.94465,1.92687 2.1086,1.92687 1.16395,0 2.1086,-0.86324 2.1086,-1.92687 0,-1.06364 -0.94465,-1.19283 -2.1086,-1.19283 -1.16395,0 -2.1086,0.12919 -2.1086,1.19283 z"
     style="display:inline;overflow:visible;visibility:visible;fill:#ffffff;fill-opacity:1;fill-rule:evenodd;stroke:#000000;stroke-width:0.49999997;stroke-linecap:round;stroke-linejoin:round;stroke-miterlimit:4;stroke-dashoffset:0;stroke-opacity:1;marker:none;enable-background:accumulate"
     inkscape:connector-curvature="0" />
  <circle
     transform="scale(-1,1)"
     id="path3464-1-5"
     style="display:inline;overflow:visible;visibility:visible;fill:#000000;fill-opacity:1;fill-rule:evenodd;stroke:none;stroke-width:0.5;marker:none;enable-background:accumulate"
     cx="-22.607409"
     cy="17.405207"
     r="1.1770828" />
  <circle
     transform="scale(-1,1)"
     id="path3466-1"
     style="display:inline;overflow:visible;visibility:visible;fill:#ffffff;fill-opacity:1;fill-rule:evenodd;stroke:none;stroke-width:0.5;marker:none;enable-background:accumulate"
     cx="-22.310335"
     cy="17.150293"
     r="0.42570049" />
  <path
     style="display:inline;fill:none;stroke:#000000;stroke-width:0.5;stroke-linecap:round;stroke-linejoin:miter;stroke-miterlimit:4;stroke-dasharray:none;stroke-opacity:1"
     d="m 17.755409,21.364555 0.23764,0.11822"
     id="path3231-6"
     sodipodi:nodetypes="cc"
     inkscape:connector-curvature="0" />
  <path
     sodipodi:nodetypes="cc"
     id="path3233-0"
     d="m 19.925669,21.364555 -0.23764,0.11822"
     style="display:inline;fill:none;stroke:#000000;stroke-width:0.5;stroke-linecap:round;stroke-linejoin:miter;stroke-miterlimit:4;stroke-dasharray:none;stroke-opacity:1"
     inkscape:connector-curvature="0" />
  <path
     style="display:inline;fill:none;stroke:#000000;stroke-width:1px;stroke-linecap:butt;stroke-linejoin:miter;stroke-opacity:1"
     d="m 12.609399,16.031335 c 1.43796,-1.31813 3.2354,-1.13838 3.89446,-0.95864"
     id="path3526"
     inkscape:connector-curvature="0" />
  <path
     inkscape:connector-curvature="0"
     id="path4296"
     d="m 24.976049,16.031335 c -1.43795,-1.31813 -3.2354,-1.13838 -3.89446,-0.95864"
     style="display:inline;fill:none;stroke:#000000;stroke-width:1px;stroke-linecap:butt;stroke-linejoin:miter;stroke-opacity:1" />
  <path
     style="display:inline;fill:#ffc78f;fill-opacity:1;fill-rule:evenodd;stroke:#000000;stroke-width:0.5;stroke-linecap:butt;stroke-linejoin:miter;stroke-miterlimit:4;stroke-dasharray:none;stroke-opacity:1"
     d="m 7.7692024,17.172235 c -2.8241,-0.16296 -1.07214,3.55925 -0.3815,4.19644 0.6632,0.61187 1.94399,0.86997 2.294057,-0.002 -0.810197,-0.90568 -1.854927,-3.07266 -1.912557,-4.19389 z"
     id="path3688-1"
     sodipodi:nodetypes="cscc"
     inkscape:connector-curvature="0" />
  <path
     style="display:inline;fill:none;stroke:#000000;stroke-width:0.5;stroke-linecap:butt;stroke-linejoin:miter;stroke-miterlimit:4;stroke-dasharray:none;stroke-opacity:1"
     d="m 8.0032824,18.367175 c -0.49675,-0.0506 -0.82353,0.32886 -0.72362,0.6598"
     id="path3690-3"
     inkscape:connector-curvature="0" />
  <path
     inkscape:connector-curvature="0"
     sodipodi:nodetypes="cscc"
     id="path4352"
     d="m 29.733899,17.172235 c 2.8241,-0.16296 1.07214,3.55925 0.3815,4.19644 -0.6632,0.61187 -1.94398,0.86997 -2.29405,-0.002 0.8102,-0.90568 1.85493,-3.07266 1.91255,-4.19389 z"
     style="display:inline;fill:#ffc78f;fill-opacity:1;fill-rule:evenodd;stroke:#000000;stroke-width:0.5;stroke-linecap:butt;stroke-linejoin:miter;stroke-miterlimit:4;stroke-dasharray:none;stroke-opacity:1" />
  <path
     inkscape:connector-curvature="0"
     id="path4354"
     d="m 29.499819,18.367175 c 0.49676,-0.0506 0.82353,0.32886 0.72363,0.6598"
     style="display:inline;fill:none;stroke:#000000;stroke-width:0.5;stroke-linecap:butt;stroke-linejoin:miter;stroke-miterlimit:4;stroke-dasharray:none;stroke-opacity:1" />
</svg>
