<?xml version="1.0" encoding="UTF-8" standalone="no"?>
<!-- Created with Inkscape (http://www.inkscape.org/) -->

<svg
   xmlns:dc="http://purl.org/dc/elements/1.1/"
   xmlns:cc="http://creativecommons.org/ns#"
   xmlns:rdf="http://www.w3.org/1999/02/22-rdf-syntax-ns#"
   xmlns:svg="http://www.w3.org/2000/svg"
   xmlns="http://www.w3.org/2000/svg"
   xmlns:sodipodi="http://sodipodi.sourceforge.net/DTD/sodipodi-0.dtd"
   xmlns:inkscape="http://www.inkscape.org/namespaces/inkscape"
   version="1.0"
   width="100%"
   height="100%"
   viewBox="0 0 36 36"
   id="svg2383"
   inkscape:version="0.91 r13725"
   sodipodi:docname="00w0b1.svg">
  <sodipodi:namedview
     pagecolor="#ffffff"
     bordercolor="#666666"
     borderopacity="1"
     objecttolerance="10"
     gridtolerance="10"
     guidetolerance="10"
     inkscape:pageopacity="0"
     inkscape:pageshadow="2"
     inkscape:window-width="838"
     inkscape:window-height="495"
     id="namedview44"
     showgrid="false"
     inkscape:zoom="6.9103343"
     inkscape:cx="-4.9561409"
     inkscape:cy="14.654241"
     inkscape:window-x="1432"
     inkscape:window-y="368"
     inkscape:window-maximized="0"
     inkscape:current-layer="svg2383" />
  <metadata
     id="metadata9">
    <rdf:RDF>
      <cc:Work
         rdf:about="">
        <dc:format>image/svg+xml</dc:format>
        <dc:type
           rdf:resource="http://purl.org/dc/dcmitype/StillImage" />
        <dc:title />
      </cc:Work>
    </rdf:RDF>
  </metadata>
  <defs
     id="defs2385" />
  <path
     inkscape:connector-curvature="0"
     id="path5736"
     d="M 10.409032,32.125754 A 0.49549431,0.54429414 86.400694 0 1 9.853585,31.761561 C 9.611809,30.966572 9.653807,30.2693 9.722554,29.649657 a 0.49568905,0.54450806 86.400694 1 1 1.083066,0.08867 c -0.06512,0.587264 -0.09345,1.120829 0.09758,1.748803 a 0.49549431,0.54429414 86.400694 0 1 -0.494134,0.63868 z"
     style="color:#000000;font-style:normal;font-variant:normal;font-weight:normal;font-stretch:normal;font-size:medium;line-height:normal;font-family:sans-serif;text-indent:0;text-align:start;text-decoration:none;text-decoration-line:none;text-decoration-style:solid;text-decoration-color:#000000;letter-spacing:normal;word-spacing:normal;text-transform:none;direction:ltr;writing-mode:lr-tb;baseline-shift:baseline;text-anchor:start;white-space:normal;clip-rule:nonzero;display:inline;overflow:visible;visibility:visible;opacity:1;isolation:auto;mix-blend-mode:normal;color-interpolation:sRGB;color-interpolation-filters:linearRGB;solid-color:#000000;solid-opacity:1;fill:#ffffff;fill-opacity:1;fill-rule:evenodd;stroke:#000000;stroke-width:0.57485139;stroke-linecap:round;stroke-linejoin:round;stroke-miterlimit:4;stroke-dasharray:none;stroke-dashoffset:0;stroke-opacity:1;marker:none;marker-start:none;marker-mid:none;marker-end:none;color-rendering:auto;image-rendering:auto;shape-rendering:auto;text-rendering:auto;enable-background:accumulate" />
  <path
     style="color:#000000;font-style:normal;font-variant:normal;font-weight:normal;font-stretch:normal;font-size:medium;line-height:normal;font-family:sans-serif;text-indent:0;text-align:start;text-decoration:none;text-decoration-line:none;text-decoration-style:solid;text-decoration-color:#000000;letter-spacing:normal;word-spacing:normal;text-transform:none;direction:ltr;writing-mode:lr-tb;baseline-shift:baseline;text-anchor:start;white-space:normal;clip-rule:nonzero;display:inline;overflow:visible;visibility:visible;opacity:1;isolation:auto;mix-blend-mode:normal;color-interpolation:sRGB;color-interpolation-filters:linearRGB;solid-color:#000000;solid-opacity:1;fill:#ffffff;fill-opacity:1;fill-rule:evenodd;stroke:#000000;stroke-width:0.57485139;stroke-linecap:round;stroke-linejoin:round;stroke-miterlimit:4;stroke-dasharray:none;stroke-dashoffset:0;stroke-opacity:1;marker:none;marker-start:none;marker-mid:none;marker-end:none;color-rendering:auto;image-rendering:auto;shape-rendering:auto;text-rendering:auto;enable-background:accumulate"
     d="M 10.532792,32.890676 A 0.54626039,0.60006002 78.531084 0 1 9.871222,32.576782 C 9.487188,31.745093 9.427806,30.977275 9.40935,30.290207 a 0.54647564,0.60029646 78.531084 1 1 1.196171,-0.06671 c 0.01753,0.651159 0.06719,1.238131 0.370536,1.895086 a 0.54626039,0.60006002 78.531084 0 1 -0.443222,0.772079 z"
     id="path5738"
     inkscape:connector-curvature="0" />
  <path
     style="color:#000000;font-style:normal;font-variant:normal;font-weight:normal;font-stretch:normal;font-size:medium;line-height:normal;font-family:sans-serif;text-indent:0;text-align:start;text-decoration:none;text-decoration-line:none;text-decoration-style:solid;text-decoration-color:#000000;letter-spacing:normal;word-spacing:normal;text-transform:none;direction:ltr;writing-mode:lr-tb;baseline-shift:baseline;text-anchor:start;white-space:normal;clip-rule:nonzero;display:inline;overflow:visible;visibility:visible;opacity:1;isolation:auto;mix-blend-mode:normal;color-interpolation:sRGB;color-interpolation-filters:linearRGB;solid-color:#000000;solid-opacity:1;fill:#ffc78f;fill-opacity:1;fill-rule:evenodd;stroke:#000000;stroke-width:0.57485139;stroke-linecap:round;stroke-linejoin:round;stroke-miterlimit:4;stroke-dasharray:none;stroke-dashoffset:0;stroke-opacity:1;marker:none;marker-start:none;marker-mid:none;marker-end:none;color-rendering:auto;image-rendering:auto;shape-rendering:auto;text-rendering:auto;enable-background:accumulate"
     d="M 10.261533,33.334185 A 0.62054671,0.68166259 77.694239 0 1 9.504879,32.988611 C 9.05486,32.050292 8.974678,31.179137 8.942319,30.39903 a 0.62078938,0.68192916 77.694239 1 1 1.357579,-0.09562 c 0.03072,0.73934 0.09686,1.405246 0.45233,2.146421 a 0.62054671,0.68166259 77.694239 0 1 -0.490631,0.884337 z"
     id="path5740"
     inkscape:connector-curvature="0" />
  <path
     style="color:#000000;clip-rule:nonzero;display:inline;overflow:visible;visibility:visible;opacity:1;isolation:auto;mix-blend-mode:normal;color-interpolation:sRGB;color-interpolation-filters:linearRGB;solid-color:#000000;solid-opacity:1;fill:#ffc78f;fill-opacity:1;fill-rule:evenodd;stroke:#000000;stroke-width:0.57485139;stroke-linecap:round;stroke-linejoin:round;stroke-miterlimit:4;stroke-dasharray:none;stroke-dashoffset:0;stroke-opacity:1;marker:none;marker-start:none;marker-mid:none;marker-end:none;color-rendering:auto;image-rendering:auto;shape-rendering:auto;text-rendering:auto;enable-background:accumulate"
     d="M 9.478192,32.679368 C 9.314927,32.623108 9.188764,32.503499 9.133202,32.352292 8.806205,31.496564 8.799577,30.725198 8.82756,30.038453 c 0.03164,-0.375907 0.107952,-0.73892 0.215438,-1.04467 0.07149,-0.211207 0.210955,-0.604921 0.210955,-0.604921 0.359353,-1.06181 1.055374,-1.785561 1.553357,-1.61666 0.09269,0.02818 0.174232,0.06319 0.257113,0.09326 0.518847,0.175539 0.73719,0.915834 0.48777,1.653799 -0.123867,0.366518 -0.348171,0.68123 -0.620394,0.870506 -0.02513,0.07769 -0.04715,0.143012 -0.07199,0.218941 -0.163677,0.484151 -0.485741,0.826684 -0.827763,0.971464 0.0074,0.45347 0.04862,0.900799 0.23514,1.388906 0.13049,0.32897 -0.111952,0.690693 -0.495649,0.739513 -0.09945,0.01287 -0.200305,0.0029 -0.29325,-0.02909 z"
     id="path5742"
     inkscape:connector-curvature="0"
     sodipodi:nodetypes="cccccccccccccc" />
  <path
     style="color:#000000;clip-rule:nonzero;display:inline;overflow:visible;visibility:visible;opacity:1;isolation:auto;mix-blend-mode:normal;color-interpolation:sRGB;color-interpolation-filters:linearRGB;solid-color:#000000;solid-opacity:1;fill:none;fill-opacity:1;fill-rule:evenodd;stroke:#000000;stroke-width:0.2;stroke-linecap:butt;stroke-linejoin:miter;stroke-miterlimit:4;stroke-dasharray:none;stroke-dashoffset:0;stroke-opacity:1;color-rendering:auto;image-rendering:auto;shape-rendering:auto;text-rendering:auto;enable-background:accumulate"
     d="M 9.860795,30.993046 C 9.916295,30.57688 9.757166,30.265847 9.650568,30.229337"
     id="path5746"
     inkscape:connector-curvature="0" />
  <path
     style="color:#000000;clip-rule:nonzero;display:inline;overflow:visible;visibility:visible;opacity:1;isolation:auto;mix-blend-mode:normal;color-interpolation:sRGB;color-interpolation-filters:linearRGB;solid-color:#000000;solid-opacity:1;fill:#ffc78f;fill-opacity:1;fill-rule:evenodd;stroke:#000000;stroke-width:0.57485139;stroke-linecap:round;stroke-linejoin:round;stroke-miterlimit:4;stroke-dasharray:none;stroke-dashoffset:0;stroke-opacity:1;marker:none;marker-start:none;marker-mid:none;marker-end:none;color-rendering:auto;image-rendering:auto;shape-rendering:auto;text-rendering:auto;enable-background:accumulate"
     d="m 10.404068,28.675038 0.0019,0.956655 c 6.82e-4,0.343774 0.26476,0.593659 0.592099,0.560261 0.327337,-0.03339 0.590316,-0.337034 0.589623,-0.680811 l -0.0038,-1.913317"
     id="path5748"
     inkscape:connector-curvature="0"
     sodipodi:nodetypes="csssc" />
  <path
     style="color:#000000;font-style:normal;font-variant:normal;font-weight:normal;font-stretch:normal;font-size:medium;line-height:normal;font-family:sans-serif;text-indent:0;text-align:start;text-decoration:none;text-decoration-line:none;text-decoration-style:solid;text-decoration-color:#000000;letter-spacing:normal;word-spacing:normal;text-transform:none;direction:ltr;writing-mode:lr-tb;baseline-shift:baseline;text-anchor:start;white-space:normal;clip-rule:nonzero;display:inline;overflow:visible;visibility:visible;opacity:1;isolation:auto;mix-blend-mode:normal;color-interpolation:sRGB;color-interpolation-filters:linearRGB;solid-color:#000000;solid-opacity:1;fill:#ffffff;fill-opacity:1;fill-rule:evenodd;stroke:#000000;stroke-width:0.57485139;stroke-linecap:round;stroke-linejoin:round;stroke-miterlimit:4;stroke-dasharray:none;stroke-dashoffset:0;stroke-opacity:1;marker:none;marker-start:none;marker-mid:none;marker-end:none;color-rendering:auto;image-rendering:auto;shape-rendering:auto;text-rendering:auto;enable-background:accumulate"
     d="m 25.699238,32.125754 a 0.54429414,0.49549431 3.5993058 0 0 0.555447,-0.364193 c 0.241776,-0.794989 0.199778,-1.492261 0.131031,-2.111904 a 0.54450806,0.49568905 3.5993058 1 0 -1.083066,0.08867 c 0.06512,0.587264 0.09345,1.120829 -0.09758,1.748803 a 0.54429414,0.49549431 3.5993058 0 0 0.494134,0.63868 z"
     id="path1734-6-2"
     inkscape:connector-curvature="0" />
  <path
     inkscape:connector-curvature="0"
     id="path780-5-3-8"
     d="m 25.575478,32.890676 a 0.60006002,0.54626039 11.468916 0 0 0.66157,-0.313894 c 0.384034,-0.831689 0.443416,-1.599507 0.461872,-2.286575 a 0.60029646,0.54647564 11.468916 1 0 -1.196171,-0.06671 c -0.01753,0.651159 -0.06719,1.238131 -0.370536,1.895086 a 0.60006002,0.54626039 11.468916 0 0 0.443222,0.772079 z"
     style="color:#000000;font-style:normal;font-variant:normal;font-weight:normal;font-stretch:normal;font-size:medium;line-height:normal;font-family:sans-serif;text-indent:0;text-align:start;text-decoration:none;text-decoration-line:none;text-decoration-style:solid;text-decoration-color:#000000;letter-spacing:normal;word-spacing:normal;text-transform:none;direction:ltr;writing-mode:lr-tb;baseline-shift:baseline;text-anchor:start;white-space:normal;clip-rule:nonzero;display:inline;overflow:visible;visibility:visible;opacity:1;isolation:auto;mix-blend-mode:normal;color-interpolation:sRGB;color-interpolation-filters:linearRGB;solid-color:#000000;solid-opacity:1;fill:#ffffff;fill-opacity:1;fill-rule:evenodd;stroke:#000000;stroke-width:0.57485139;stroke-linecap:round;stroke-linejoin:round;stroke-miterlimit:4;stroke-dasharray:none;stroke-dashoffset:0;stroke-opacity:1;marker:none;marker-start:none;marker-mid:none;marker-end:none;color-rendering:auto;image-rendering:auto;shape-rendering:auto;text-rendering:auto;enable-background:accumulate" />
  <path
     inkscape:connector-curvature="0"
     id="path780-1-7-7"
     d="m 25.846737,33.334185 a 0.68166259,0.62054671 12.305761 0 0 0.756654,-0.345574 c 0.450019,-0.938319 0.530201,-1.809474 0.56256,-2.589581 a 0.68192916,0.62078938 12.305761 1 0 -1.357579,-0.09562 c -0.03072,0.73934 -0.09686,1.405246 -0.45233,2.146421 a 0.68166259,0.62054671 12.305761 0 0 0.490631,0.884337 z"
     style="color:#000000;font-style:normal;font-variant:normal;font-weight:normal;font-stretch:normal;font-size:medium;line-height:normal;font-family:sans-serif;text-indent:0;text-align:start;text-decoration:none;text-decoration-line:none;text-decoration-style:solid;text-decoration-color:#000000;letter-spacing:normal;word-spacing:normal;text-transform:none;direction:ltr;writing-mode:lr-tb;baseline-shift:baseline;text-anchor:start;white-space:normal;clip-rule:nonzero;display:inline;overflow:visible;visibility:visible;opacity:1;isolation:auto;mix-blend-mode:normal;color-interpolation:sRGB;color-interpolation-filters:linearRGB;solid-color:#000000;solid-opacity:1;fill:#ffc78f;fill-opacity:1;fill-rule:evenodd;stroke:#000000;stroke-width:0.57485139;stroke-linecap:round;stroke-linejoin:round;stroke-miterlimit:4;stroke-dasharray:none;stroke-dashoffset:0;stroke-opacity:1;marker:none;marker-start:none;marker-mid:none;marker-end:none;color-rendering:auto;image-rendering:auto;shape-rendering:auto;text-rendering:auto;enable-background:accumulate" />
  <path
     sodipodi:nodetypes="cccccccccccccc"
     inkscape:connector-curvature="0"
     id="path4919-9-5-3-2"
     d="m 26.630078,32.679368 c 0.163265,-0.05626 0.289428,-0.175869 0.34499,-0.327076 0.326997,-0.855728 0.333625,-1.627094 0.305642,-2.313839 -0.03164,-0.375907 -0.107952,-0.73892 -0.215438,-1.04467 -0.07149,-0.211207 -0.210955,-0.604921 -0.210955,-0.604921 -0.359353,-1.06181 -1.055374,-1.785561 -1.553357,-1.61666 -0.09269,0.02818 -0.174232,0.06319 -0.257113,0.09326 -0.518847,0.175539 -0.73719,0.915834 -0.48777,1.653799 0.123867,0.366518 0.348171,0.68123 0.620394,0.870506 0.02513,0.07769 0.04715,0.143012 0.07199,0.218941 0.163677,0.484151 0.485741,0.826684 0.827763,0.971464 -0.0074,0.45347 -0.04862,0.900799 -0.23514,1.388906 -0.13049,0.32897 0.111952,0.690693 0.495649,0.739513 0.09945,0.01287 0.200305,0.0029 0.29325,-0.02909 z"
     style="color:#000000;clip-rule:nonzero;display:inline;overflow:visible;visibility:visible;opacity:1;isolation:auto;mix-blend-mode:normal;color-interpolation:sRGB;color-interpolation-filters:linearRGB;solid-color:#000000;solid-opacity:1;fill:#ffc78f;fill-opacity:1;fill-rule:evenodd;stroke:#000000;stroke-width:0.57485139;stroke-linecap:round;stroke-linejoin:round;stroke-miterlimit:4;stroke-dasharray:none;stroke-dashoffset:0;stroke-opacity:1;marker:none;marker-start:none;marker-mid:none;marker-end:none;color-rendering:auto;image-rendering:auto;shape-rendering:auto;text-rendering:auto;enable-background:accumulate" />
  <path
     inkscape:connector-curvature="0"
     id="path3835-8-3-7-9"
     d="m 26.247475,30.993046 c -0.0555,-0.416166 0.103629,-0.727199 0.210227,-0.763709"
     style="color:#000000;clip-rule:nonzero;display:inline;overflow:visible;visibility:visible;opacity:1;isolation:auto;mix-blend-mode:normal;color-interpolation:sRGB;color-interpolation-filters:linearRGB;solid-color:#000000;solid-opacity:1;fill:none;fill-opacity:1;fill-rule:evenodd;stroke:#000000;stroke-width:0.2;stroke-linecap:butt;stroke-linejoin:miter;stroke-miterlimit:4;stroke-dasharray:none;stroke-dashoffset:0;stroke-opacity:1;color-rendering:auto;image-rendering:auto;shape-rendering:auto;text-rendering:auto;enable-background:accumulate" />
  <path
     sodipodi:nodetypes="csssc"
     inkscape:connector-curvature="0"
     id="rect4946-9-3-20-2-6-9-5"
     d="m 25.704202,28.675038 -0.0019,0.956655 c -6.82e-4,0.343774 -0.26476,0.593659 -0.592099,0.560261 -0.327337,-0.03339 -0.590316,-0.337034 -0.589623,-0.680811 l 0.0038,-1.913317"
     style="color:#000000;clip-rule:nonzero;display:inline;overflow:visible;visibility:visible;opacity:1;isolation:auto;mix-blend-mode:normal;color-interpolation:sRGB;color-interpolation-filters:linearRGB;solid-color:#000000;solid-opacity:1;fill:#ffc78f;fill-opacity:1;fill-rule:evenodd;stroke:#000000;stroke-width:0.57485139;stroke-linecap:round;stroke-linejoin:round;stroke-miterlimit:4;stroke-dasharray:none;stroke-dashoffset:0;stroke-opacity:1;marker:none;marker-start:none;marker-mid:none;marker-end:none;color-rendering:auto;image-rendering:auto;shape-rendering:auto;text-rendering:auto;enable-background:accumulate" />
  <rect
     ry="0"
     rx="0"
     y="34.503647"
     x="-23.479177"
     height="3.574245"
     width="3.2008164"
     id="rect5750"
     style="color:#000000;display:inline;overflow:visible;visibility:visible;fill:#ffc78f;fill-opacity:1;fill-rule:evenodd;stroke:#000000;stroke-width:0.5;stroke-linecap:round;stroke-linejoin:miter;stroke-miterlimit:4;stroke-dasharray:none;stroke-dashoffset:0;stroke-opacity:1;marker:none;enable-background:accumulate"
     transform="scale(-1,1)" />
  <path
     style="color:#000000;display:inline;overflow:visible;visibility:visible;fill:#b3b3b3;fill-opacity:1;fill-rule:evenodd;stroke:none;stroke-width:0.5;marker:none;enable-background:accumulate"
     d="m 23.13891,37.389691 c 0.431,0 0.76664,0.291813 0.875,0.6875 0.88784,0.437864 1.5,1.186783 1.5,2.031251 0,0.195984 -0.0342,0.379997 -0.0937,0.5625 -0.01,0.0093 -0.0212,0.02205 -0.0313,0.03125 -0.6607,0.60198 -1.79345,0.96875 -3.0625,0.96875 -1.52287,0 -2.22313,-0.500251 -2.78125,-1.3125 -0.009,-0.07216 -0.0313,-0.144906 -0.0313,-0.21875 0,-0.654034 0.23139,-1.268232 0.65625,-1.718751 -0.004,-0.03317 0,-0.05961 0,-0.09375 0,-0.517199 0.4203,-0.9375 0.9375,-0.9375 l 2.03125,0 z"
     id="path5752"
     inkscape:connector-curvature="0" />
  <path
     id="path5754"
     d="m 19.60766,39.400415 c 0.54791,0.756354 1.25588,1.218751 2.71875,1.218751 1.26905,0 2.4018,-0.36677 3.0625,-0.968751 0.0101,-0.0092 0.0214,-0.02195 0.0313,-0.03125 0.0466,0.160036 0.0937,0.330527 0.0937,0.500001 0,0.195984 -0.0342,0.379997 -0.0937,0.5625 -0.01,0.0093 -0.0212,0.02205 -0.0313,0.03125 -0.6607,0.60198 -1.79345,0.96875 -3.0625,0.96875 -1.52287,0 -2.22313,-0.500251 -2.78125,-1.3125 -0.009,-0.07216 -0.0313,-0.144906 -0.0313,-0.21875 0,-0.25606 0.0251,-0.513585 0.0937,-0.750001 z"
     style="color:#000000;display:inline;overflow:visible;visibility:visible;fill:#f8ffff;fill-opacity:1;fill-rule:evenodd;stroke:none;stroke-width:0.5;marker:none;enable-background:accumulate"
     inkscape:connector-curvature="0" />
  <path
     inkscape:connector-curvature="0"
     id="path5756"
     d="m 23.13891,37.389691 c 0.431,0 0.76664,0.291813 0.875,0.6875 0.88784,0.437864 1.5,1.186783 1.5,2.031251 0,0.195984 -0.0342,0.379997 -0.0937,0.5625 -0.01,0.0093 -0.0212,0.02205 -0.0313,0.03125 -0.6607,0.60198 -1.79345,0.96875 -3.0625,0.96875 -1.52287,0 -2.22313,-0.500251 -2.78125,-1.3125 -0.009,-0.07216 -0.0313,-0.144906 -0.0313,-0.21875 0,-0.654034 0.23139,-1.268232 0.65625,-1.718751 -0.004,-0.03317 0,-0.05961 0,-0.09375 0,-0.517199 0.4203,-0.9375 0.9375,-0.9375 l 2.03125,0 z"
     style="color:#000000;display:inline;overflow:visible;visibility:visible;fill:none;stroke:#000000;stroke-width:0.5;stroke-linecap:round;stroke-linejoin:miter;stroke-miterlimit:4;stroke-dasharray:none;stroke-dashoffset:0;stroke-opacity:1;marker:none;enable-background:accumulate" />
  <path
     inkscape:connector-curvature="0"
     id="path5758"
     d="m 23.4879,38.66824 c -0.52811,-0.226332 -1.65977,-0.150888 -1.99927,0"
     style="display:inline;fill:none;stroke:#000000;stroke-width:0.5;stroke-linecap:round;stroke-linejoin:miter;stroke-miterlimit:4;stroke-dasharray:none;stroke-opacity:1" />
  <rect
     style="color:#000000;display:inline;overflow:visible;visibility:visible;fill:#ffc78f;fill-opacity:1;fill-rule:evenodd;stroke:#000000;stroke-width:0.5;stroke-linecap:round;stroke-linejoin:miter;stroke-miterlimit:4;stroke-dasharray:none;stroke-dashoffset:0;stroke-opacity:1;marker:none;enable-background:accumulate"
     id="rect4539-2-0"
     width="3.2008164"
     height="3.574245"
     x="12.629079"
     y="34.503647"
     rx="0"
     ry="0" />
  <path
     inkscape:connector-curvature="0"
     id="path4550-1-4"
     d="m 12.96936,37.389691 c -0.431,0 -0.76664,0.291813 -0.875,0.6875 -0.88784,0.437864 -1.5,1.186783 -1.5,2.031251 0,0.195984 0.0342,0.379997 0.0937,0.5625 0.01,0.0093 0.0212,0.02205 0.0313,0.03125 0.6607,0.60198 1.79345,0.96875 3.0625,0.96875 1.52287,0 2.22313,-0.500251 2.78125,-1.3125 0.009,-0.07216 0.0313,-0.144906 0.0313,-0.21875 0,-0.654034 -0.23139,-1.268232 -0.65625,-1.718751 0.004,-0.03317 0,-0.05961 0,-0.09375 0,-0.517199 -0.4203,-0.9375 -0.9375,-0.9375 l -2.03125,0 z"
     style="color:#000000;display:inline;overflow:visible;visibility:visible;fill:#b3b3b3;fill-opacity:1;fill-rule:evenodd;stroke:none;stroke-width:0.5;marker:none;enable-background:accumulate" />
  <path
     inkscape:connector-curvature="0"
     style="color:#000000;display:inline;overflow:visible;visibility:visible;fill:#f8ffff;fill-opacity:1;fill-rule:evenodd;stroke:none;stroke-width:0.5;marker:none;enable-background:accumulate"
     d="m 16.50061,39.400415 c -0.54791,0.756354 -1.25588,1.218751 -2.71875,1.218751 -1.26905,0 -2.4018,-0.36677 -3.0625,-0.968751 -0.0101,-0.0092 -0.0214,-0.02195 -0.0313,-0.03125 -0.0466,0.160036 -0.0937,0.330527 -0.0937,0.500001 0,0.195984 0.0342,0.379997 0.0937,0.5625 0.01,0.0093 0.0212,0.02205 0.0313,0.03125 0.6607,0.60198 1.79345,0.96875 3.0625,0.96875 1.52287,0 2.22313,-0.500251 2.78125,-1.3125 0.009,-0.07216 0.0313,-0.144906 0.0313,-0.21875 0,-0.25606 -0.0251,-0.513585 -0.0937,-0.750001 z"
     id="path4554-4-9" />
  <path
     style="color:#000000;display:inline;overflow:visible;visibility:visible;fill:none;stroke:#000000;stroke-width:0.5;stroke-linecap:round;stroke-linejoin:miter;stroke-miterlimit:4;stroke-dasharray:none;stroke-dashoffset:0;stroke-opacity:1;marker:none;enable-background:accumulate"
     d="m 12.96936,37.389691 c -0.431,0 -0.76664,0.291813 -0.875,0.6875 -0.88784,0.437864 -1.5,1.186783 -1.5,2.031251 0,0.195984 0.0342,0.379997 0.0937,0.5625 0.01,0.0093 0.0212,0.02205 0.0313,0.03125 0.6607,0.60198 1.79345,0.96875 3.0625,0.96875 1.52287,0 2.22313,-0.500251 2.78125,-1.3125 0.009,-0.07216 0.0313,-0.144906 0.0313,-0.21875 0,-0.654034 -0.23139,-1.268232 -0.65625,-1.718751 0.004,-0.03317 0,-0.05961 0,-0.09375 0,-0.517199 -0.4203,-0.9375 -0.9375,-0.9375 l -2.03125,0 z"
     id="path4542-5-1"
     inkscape:connector-curvature="0" />
  <path
     style="display:inline;fill:none;stroke:#000000;stroke-width:0.5;stroke-linecap:round;stroke-linejoin:miter;stroke-miterlimit:4;stroke-dasharray:none;stroke-opacity:1"
     d="m 12.62037,38.66824 c 0.52811,-0.226332 1.65977,-0.150888 1.99927,0"
     id="path4565-9-7"
     inkscape:connector-curvature="0" />
  <path
     style="display:inline;overflow:visible;visibility:visible;fill:#ececec;fill-opacity:1;fill-rule:evenodd;stroke:#000000;stroke-width:0.5;stroke-linecap:butt;stroke-linejoin:miter;stroke-miterlimit:4;stroke-dasharray:none;stroke-dashoffset:0;stroke-opacity:1;marker:none;enable-background:accumulate"
     d="m 18.12972,2.91799 c -5.91513,0 -10.7168,4.713852 -10.7168,10.521484 0,0.352078 -0.006,0.701087 -0.0117,1.035157 -0.20261,-0.04039 -0.38375,-0.0961 -0.52343,-0.177735 -0.36825,0.448339 -0.18413,1.791896 0,2.240235 -1.65713,-0.08966 -2.94541,-0.177007 -3.58985,-0.804688 -0.18412,1.34502 0.091,2.778046 0.36719,3.136719 -0.7365,0 -1.01065,0.269372 -1.37891,0.179687 0.64444,2.86937 2.11791,5.470879 5.24805,5.560547 2.45961,0.07046 7.8906,1.379862 10.60938,1.359375 2.71979,0.02037 8.33385,-1.28893 10.79297,-1.359375 3.13013,-0.08966 4.6036,-2.691177 5.24804,-5.560547 -0.36825,0.08968 -0.6424,-0.179687 -1.3789,-0.179687 0.27618,-0.358673 0.55131,-1.791699 0.36718,-3.136719 -0.64443,0.627676 -1.93271,0.715022 -3.58984,0.804688 0.18412,-0.448339 0.36825,-1.791896 0,-2.240235 -0.18346,0.107212 -0.4346,0.171209 -0.72852,0.205078 l 0,-1.0625 c 0,-5.807632 -4.7997,-10.521484 -10.71484,-10.521484 z"
     id="path3219-8"
     inkscape:connector-curvature="0" />
  <path
     style="color:#000000;display:inline;overflow:visible;visibility:visible;fill:#ffc78f;fill-opacity:1;fill-rule:evenodd;stroke:none;stroke-width:0.5;marker:none;enable-background:accumulate"
     d="M 15.373047 21.806641 C 14.325967 21.846791 13.870036 22.036232 13.535156 22.818359 C 13.513959 22.867868 13.473237 22.96201 13.449219 23.017578 C 12.66502 22.968473 11.894703 23.388104 11.53125 24.142578 L 10.201172 26.904297 L 11.589844 27.583984 L 11.767578 27.490234 C 11.613332 28.077082 11.513672 28.624966 11.513672 29.072266 C 11.513672 30.933774 11.576172 34.170246 11.576172 34.890625 L 24.498047 34.890625 C 24.498047 34.170246 24.558594 30.933774 24.558594 29.072266 C 24.558594 28.619665 24.456253 28.063506 24.298828 27.46875 L 24.519531 27.583984 L 25.908203 26.904297 L 24.576172 24.142578 C 24.207563 23.377403 23.42064 22.960058 22.625 23.023438 C 22.600238 22.966159 22.558896 22.869243 22.537109 22.818359 C 22.202229 22.036232 21.748242 21.846796 20.701172 21.806641 C 19.823442 21.802241 18.944266 21.795211 18.066406 21.806641 C 18.046006 21.806354 18.026259 21.806908 18.005859 21.806641 C 17.127989 21.795211 16.250767 21.802241 15.373047 21.806641 z "
     id="path6025-5" />
  <path
     style="color:#000000;clip-rule:nonzero;display:inline;overflow:visible;visibility:visible;opacity:1;isolation:auto;mix-blend-mode:normal;color-interpolation:sRGB;color-interpolation-filters:linearRGB;solid-color:#000000;solid-opacity:1;fill:#3f7bdc;fill-opacity:1;fill-rule:evenodd;stroke:none;stroke-width:0.49999997;stroke-linecap:round;stroke-linejoin:round;stroke-miterlimit:4;stroke-dasharray:none;stroke-dashoffset:0;stroke-opacity:1;marker:none;marker-start:none;marker-mid:none;marker-end:none;color-rendering:auto;image-rendering:auto;shape-rendering:auto;text-rendering:auto;enable-background:accumulate"
     d="m 14.10238,28.134787 a 3.3125286,1.7836694 10.158186 0 0 -0.22461,0.002 3.3125286,1.7836694 10.158186 0 0 -2.35938,1.224609 c 0.006,1.889845 0.0566,4.844709 0.0566,5.529297 l 12.92188,0 c 0,-0.700066 0.0573,-3.772863 0.0606,-5.654297 a 1.7836694,3.3125286 79.841814 0 0 -3.53125,-1.007812 1.7836694,3.3125286 79.841814 0 0 -2.95703,2.234375 l -0.0293,0.002 a 3.3125286,1.7836694 10.158186 0 0 -2.95899,-2.236328 3.3125286,1.7836694 10.158186 0 0 -0.97851,-0.09375 z"
     id="path4832"
     inkscape:connector-curvature="0" />
  <path
     style="display:inline;overflow:visible;visibility:visible;fill:none;stroke:#000000;stroke-width:0.49999997;stroke-linecap:butt;stroke-linejoin:miter;stroke-miterlimit:4;stroke-dasharray:none;stroke-dashoffset:0;stroke-opacity:1;marker:none;enable-background:accumulate"
     d="m 11.589844,27.583984 0.177734,-0.09375 c -0.154246,0.586848 -0.253906,1.134732 -0.253906,1.582032 0,1.861507 0.0625,5.097978 0.0625,5.818359 l 12.921875,0 c 0,-0.720381 0.06055,-3.956852 0.06055,-5.818359 0,-0.452601 -0.102341,-1.00876 -0.259766,-1.603516 l 0.220703,0.115234 m 1.388672,-0.679687 -1.332031,-2.761719 c -0.368609,-0.765175 -1.155532,-1.18252 -1.951172,-1.11914 -0.02476,-0.05728 -0.0661,-0.154195 -0.08789,-0.205079 -0.33489,-0.782126 -0.788867,-0.971563 -1.835937,-1.011718 -0.87773,-0.0044 -1.756906,-0.01143 -2.634766,0 -0.0204,-2.87e-4 -0.04015,2.66e-4 -0.06055,0 -0.87787,-0.01143 -1.755092,-0.0044 -2.632812,0 -1.04707,0.04015 -1.503011,0.229592 -1.837891,1.011718 -0.0212,0.04951 -0.06192,0.143651 -0.08594,0.199219 -0.784199,-0.04911 -1.554516,0.370526 -1.917969,1.125 l -1.330078,2.761719"
     id="path6023-4"
     inkscape:connector-curvature="0"
     sodipodi:nodetypes="ccsccscccccscccccccc" />
  <g
     id="g6174"
     transform="translate(-3.42692,-10.92576)">
    <path
       inkscape:connector-curvature="0"
       sodipodi:nodetypes="cscc"
       id="path3688-6"
       d="m 13.128981,24.042794 c -5.7164634,-0.124216 -3.9389386,4.102163 -2.832735,4.817009 1.062244,0.68644 3.564809,0.953843 4.709466,-0.0537 -1.220442,-1.01985 -2.306127,-3.479805 -1.876731,-4.763309 z"
       style="display:inline;fill:#ffc78f;fill-opacity:1;fill-rule:evenodd;stroke:#000000;stroke-width:0.5;stroke-linecap:butt;stroke-linejoin:miter;stroke-miterlimit:4;stroke-dasharray:none;stroke-opacity:1" />
    <path
       inkscape:connector-curvature="0"
       id="path3690-8"
       d="m 12.594818,25.406852 c -1.199355,-0.04704 -2.231427,0.39506 -2.179108,0.772063"
       style="display:inline;fill:none;stroke:#000000;stroke-width:0.5;stroke-linecap:butt;stroke-linejoin:miter;stroke-miterlimit:4;stroke-dasharray:none;stroke-opacity:1" />
  </g>
  <g
     transform="matrix(-1,0,0,1,39.38758,-10.92576)"
     id="g6178">
    <path
       style="display:inline;fill:#ffc78f;fill-opacity:1;fill-rule:evenodd;stroke:#000000;stroke-width:0.5;stroke-linecap:butt;stroke-linejoin:miter;stroke-miterlimit:4;stroke-dasharray:none;stroke-opacity:1"
       d="m 13.128981,24.042794 c -5.7164634,-0.124216 -3.9389386,4.102163 -2.832735,4.817009 1.062244,0.68644 3.564809,0.953843 4.709466,-0.0537 -1.220442,-1.01985 -2.306127,-3.479805 -1.876731,-4.763309 z"
       id="path6180"
       sodipodi:nodetypes="cscc"
       inkscape:connector-curvature="0" />
    <path
       style="display:inline;fill:none;stroke:#000000;stroke-width:0.5;stroke-linecap:butt;stroke-linejoin:miter;stroke-miterlimit:4;stroke-dasharray:none;stroke-opacity:1"
       d="m 12.594818,25.406852 c -1.199355,-0.04704 -2.231427,0.39506 -2.179108,0.772063"
       id="path6182"
       inkscape:connector-curvature="0" />
  </g>
  <path
     style="color:#000000;clip-rule:nonzero;display:inline;overflow:visible;visibility:visible;opacity:1;isolation:auto;mix-blend-mode:normal;color-interpolation:sRGB;color-interpolation-filters:linearRGB;solid-color:#000000;solid-opacity:1;fill:#ffc78f;fill-opacity:1;fill-rule:evenodd;stroke:#000000;stroke-width:0.5;stroke-linecap:round;stroke-linejoin:round;stroke-miterlimit:4;stroke-dasharray:none;stroke-dashoffset:0;stroke-opacity:1;marker:none;marker-start:none;marker-mid:none;marker-end:none;color-rendering:auto;image-rendering:auto;shape-rendering:auto;text-rendering:auto;enable-background:accumulate"
     d="m 18.05355,3.908224 a 10.064696,10.064696 0 0 0 -9.82031,7.894532 c -0.49729,4.041577 1.08832,4.339588 3.38672,6.207031 2.06665,1.67916 0.47149,4.173245 2.82812,5.347656 a 10.064696,10.064696 0 0 0 3.60547,0.681641 10.064696,10.064696 0 0 0 3.56641,-0.658203 c 2.42152,-1.16496 0.78752,-3.681371 2.86718,-5.371094 2.28837,-1.859294 3.86927,-2.165084 3.39258,-6.15625 A 10.064696,10.064696 0 0 0 18.05355,3.908224 Z"
     id="path4617-9"
     inkscape:connector-curvature="0" />
  <circle
     style="color:#000000;display:inline;overflow:visible;visibility:visible;fill:#ffffff;fill-opacity:1;fill-rule:evenodd;stroke:#000000;stroke-width:0.5;stroke-linecap:round;stroke-linejoin:round;stroke-miterlimit:4;stroke-dasharray:none;stroke-dashoffset:0;stroke-opacity:1;marker:none;enable-background:accumulate"
     id="path4471-0"
     cx="14.577794"
     cy="13.17115"
     r="1.9637489" />
  <ellipse
     ry="1.0542259"
     rx="1.0541172"
     id="path4467-4-1"
     style="display:inline;overflow:visible;visibility:visible;fill:#000000;fill-opacity:1;fill-rule:evenodd;stroke:none;stroke-width:0.49999997;marker:none;enable-background:accumulate"
     cx="14.643437"
     cy="13.149559" />
  <ellipse
     ry="0.4230563"
     rx="0.44384775"
     id="path4469-6-6"
     style="display:inline;overflow:visible;visibility:visible;fill:#ffffff;fill-opacity:1;fill-rule:evenodd;stroke:none;stroke-width:0.5;marker:none;enable-background:accumulate"
     cx="14.379918"
     cy="12.842075" />
  <circle
     id="path4490-49"
     style="color:#000000;display:inline;overflow:visible;visibility:visible;fill:#ffffff;fill-opacity:1;fill-rule:evenodd;stroke:#000000;stroke-width:0.5;stroke-linecap:round;stroke-linejoin:round;stroke-miterlimit:4;stroke-dasharray:none;stroke-dashoffset:0;stroke-opacity:1;marker:none;enable-background:accumulate"
     transform="scale(-1,1)"
     cx="-21.560019"
     cy="13.17115"
     r="1.9637489" />
  <ellipse
     ry="1.0542259"
     rx="1.0541172"
     style="display:inline;overflow:visible;visibility:visible;fill:#000000;fill-opacity:1;fill-rule:evenodd;stroke:none;stroke-width:0.49999997;marker:none;enable-background:accumulate"
     id="path4492-9"
     transform="scale(-1,1)"
     cx="-21.494375"
     cy="13.149559" />
  <ellipse
     ry="0.4230563"
     rx="0.44384775"
     style="display:inline;overflow:visible;visibility:visible;fill:#ffffff;fill-opacity:1;fill-rule:evenodd;stroke:none;stroke-width:0.5;marker:none;enable-background:accumulate"
     id="path4494-1"
     transform="scale(-1,1)"
     cx="-21.277868"
     cy="12.842075" />
  <path
     style="display:inline;fill:none;stroke:#000000;stroke-width:0.5;stroke-linecap:round;stroke-linejoin:miter;stroke-miterlimit:4;stroke-dasharray:none;stroke-opacity:1"
     d="m 13.18195,21.346666 c 0.15153,-1.773721 2.93432,-0.479318 4.8516,-0.479318 1.91727,0 4.67558,-1.078467 4.79541,0.599148"
     id="path3418-7-6"
     inkscape:connector-curvature="0"
     sodipodi:nodetypes="csc" />
  <path
     style="display:inline;fill:none;stroke:#000000;stroke-width:0.5;stroke-linecap:round;stroke-linejoin:miter;stroke-miterlimit:4;stroke-dasharray:none;stroke-opacity:1"
     d="m 16.97455,18.927532 0.23765,0.118221"
     id="path3231-6-8"
     sodipodi:nodetypes="cc"
     inkscape:connector-curvature="0" />
  <path
     sodipodi:nodetypes="cc"
     id="path3233-4"
     d="m 19.14482,18.927532 -0.23764,0.118221"
     style="display:inline;fill:none;stroke:#000000;stroke-width:0.5;stroke-linecap:round;stroke-linejoin:miter;stroke-miterlimit:4;stroke-dasharray:none;stroke-opacity:1"
     inkscape:connector-curvature="0" />
  <path
     style="color:#000000;clip-rule:nonzero;display:inline;overflow:visible;visibility:visible;opacity:1;isolation:auto;mix-blend-mode:normal;color-interpolation:sRGB;color-interpolation-filters:linearRGB;solid-color:#000000;solid-opacity:1;fill:none;fill-opacity:1;fill-rule:evenodd;stroke:#000000;stroke-width:0.5;stroke-linecap:round;stroke-linejoin:miter;stroke-miterlimit:4;stroke-dasharray:none;stroke-dashoffset:0;stroke-opacity:1;color-rendering:auto;image-rendering:auto;shape-rendering:auto;text-rendering:auto;enable-background:accumulate"
     d="m 15.44244,15.988586 c 0.58752,-0.356559 1.31565,-0.87885 1.40803,-1.25648"
     id="path5359-3-9-4"
     inkscape:connector-curvature="0" />
  <path
     inkscape:connector-curvature="0"
     id="path4768"
     d="m 20.59217,15.988586 c -0.58752,-0.356559 -1.31565,-0.87885 -1.40803,-1.25648"
     style="color:#000000;clip-rule:nonzero;display:inline;overflow:visible;visibility:visible;opacity:1;isolation:auto;mix-blend-mode:normal;color-interpolation:sRGB;color-interpolation-filters:linearRGB;solid-color:#000000;solid-opacity:1;fill:none;fill-opacity:1;fill-rule:evenodd;stroke:#000000;stroke-width:0.5;stroke-linecap:round;stroke-linejoin:miter;stroke-miterlimit:4;stroke-dasharray:none;stroke-dashoffset:0;stroke-opacity:1;color-rendering:auto;image-rendering:auto;shape-rendering:auto;text-rendering:auto;enable-background:accumulate" />
  <path
     id="path5645"
     d="m 24.55746,29.236349 c -0.32067,-0.872778 -1.84989,-1.309213 -3.53125,-1.007812 -1.7248,0.309604 -3.02081,1.288882 -2.95704,2.234375 l -0.0293,0.002 c 0.0654,-0.946315 -1.23217,-1.926969 -2.95898,-2.236328 -0.32702,-0.05843 -0.65688,-0.09003 -0.97852,-0.09375 -0.0755,-8.86e-4 -0.15041,-2.35e-4 -0.2246,0.002 -1.27232,0.03821 -2.20298,0.521262 -2.35938,1.224609"
     style="color:#000000;clip-rule:nonzero;display:inline;overflow:visible;visibility:visible;opacity:1;isolation:auto;mix-blend-mode:normal;color-interpolation:sRGB;color-interpolation-filters:linearRGB;solid-color:#000000;solid-opacity:1;fill:none;fill-opacity:1;fill-rule:evenodd;stroke:#000000;stroke-width:0.49999997;stroke-linecap:round;stroke-linejoin:round;stroke-miterlimit:4;stroke-dasharray:none;stroke-dashoffset:0;stroke-opacity:1;marker:none;marker-start:none;marker-mid:none;marker-end:none;color-rendering:auto;image-rendering:auto;shape-rendering:auto;text-rendering:auto;enable-background:accumulate"
     inkscape:connector-curvature="0"
     sodipodi:nodetypes="cccccccc" />
  <path
     style="color:#000000;clip-rule:nonzero;display:inline;overflow:visible;visibility:visible;opacity:1;isolation:auto;mix-blend-mode:normal;color-interpolation:sRGB;color-interpolation-filters:linearRGB;solid-color:#000000;solid-opacity:1;fill:none;fill-opacity:1;fill-rule:evenodd;stroke:#000000;stroke-width:0.5;stroke-linecap:round;stroke-linejoin:round;stroke-miterlimit:4;stroke-dasharray:none;stroke-dashoffset:0;stroke-opacity:1;marker:none;marker-start:none;marker-mid:none;marker-end:none;color-rendering:auto;image-rendering:auto;shape-rendering:auto;text-rendering:auto;enable-background:accumulate"
     d="m 11.5559,30.493958 c 0.10193,1.783669 1.57982,2.140403 2.08944,2.242327"
     id="path5647"
     inkscape:connector-curvature="0" />
  <path
     inkscape:connector-curvature="0"
     id="path5649"
     d="m 24.50351,30.493958 c -0.10192,1.783669 -1.57982,2.140403 -2.08944,2.242327"
     style="color:#000000;clip-rule:nonzero;display:inline;overflow:visible;visibility:visible;opacity:1;isolation:auto;mix-blend-mode:normal;color-interpolation:sRGB;color-interpolation-filters:linearRGB;solid-color:#000000;solid-opacity:1;fill:none;fill-opacity:1;fill-rule:evenodd;stroke:#000000;stroke-width:0.5;stroke-linecap:round;stroke-linejoin:round;stroke-miterlimit:4;stroke-dasharray:none;stroke-dashoffset:0;stroke-opacity:1;marker:none;marker-start:none;marker-mid:none;marker-end:none;color-rendering:auto;image-rendering:auto;shape-rendering:auto;text-rendering:auto;enable-background:accumulate" />
  <path
     sodipodi:nodetypes="csccsc"
     inkscape:connector-curvature="0"
     id="path5031-0-6"
     d="m 19.37836,4.039712 c -1.2962,0.425013 -2.01872,0.906174 -2.27718,1.463469 -0.25846,0.557293 -1.02164,-0.807186 -4.25142,1.158856 -0.17694,-0.696714 1.23259,-1.725494 2.81334,-2.539431 0.0249,-0.430928 0.72641,-0.800262 1.50615,-0.8384 0.77973,-0.03814 2.74939,0.02377 2.20911,0.755506 z"
     style="color:#000000;clip-rule:nonzero;display:inline;overflow:visible;visibility:visible;opacity:1;isolation:auto;mix-blend-mode:normal;color-interpolation:sRGB;color-interpolation-filters:linearRGB;solid-color:#000000;solid-opacity:1;fill:#ececec;fill-opacity:1;fill-rule:nonzero;stroke:none;stroke-width:0.5;stroke-linecap:round;stroke-linejoin:miter;stroke-miterlimit:4;stroke-dasharray:none;stroke-dashoffset:0;stroke-opacity:1;marker:none;marker-start:none;marker-mid:none;marker-end:none;color-rendering:auto;image-rendering:auto;shape-rendering:auto;text-rendering:auto;enable-background:accumulate" />
  <path
     style="color:#000000;clip-rule:nonzero;display:inline;overflow:visible;visibility:visible;opacity:1;isolation:auto;mix-blend-mode:normal;color-interpolation:sRGB;color-interpolation-filters:linearRGB;solid-color:#000000;solid-opacity:1;fill:none;fill-opacity:1;fill-rule:nonzero;stroke:#000000;stroke-width:0.5;stroke-linecap:round;stroke-linejoin:miter;stroke-miterlimit:4;stroke-dasharray:none;stroke-dashoffset:0;stroke-opacity:1;marker:none;marker-start:none;marker-mid:none;marker-end:none;color-rendering:auto;image-rendering:auto;shape-rendering:auto;text-rendering:auto;enable-background:accumulate"
     d="M 19.37836,4.039712 C 18.08216,4.464725 17.35964,4.945886 17.10118,5.503181 16.84272,6.060474 16.07954,4.695995 12.84976,6.662037 12.67282,5.965323 14.08235,4.936543 15.6631,4.122606"
     id="path5015-2-5"
     inkscape:connector-curvature="0"
     sodipodi:nodetypes="cscc" />
  <circle
     id="path3506-1-6"
     style="color:#000000;display:inline;overflow:visible;visibility:visible;fill:#c83737;fill-opacity:1;fill-rule:evenodd;stroke:#000000;stroke-width:0.50000006;stroke-linecap:round;stroke-linejoin:round;stroke-miterlimit:4;stroke-dasharray:none;stroke-dashoffset:0;stroke-opacity:1;marker:none;enable-background:accumulate"
     cx="8.4257402"
     cy="18.711727"
     r="1.7301974" />
  <circle
     style="color:#000000;display:inline;overflow:visible;visibility:visible;fill:#ebb5b5;fill-opacity:1;fill-rule:evenodd;stroke:none;stroke-width:1.15384638;marker:none;enable-background:accumulate"
     id="path3510-5-1"
     cx="7.7913408"
     cy="18.308018"
     r="0.57673246" />
  <circle
     r="1.7301974"
     cy="18.711727"
     cx="27.814856"
     style="color:#000000;display:inline;overflow:visible;visibility:visible;fill:#c83737;fill-opacity:1;fill-rule:evenodd;stroke:#000000;stroke-width:0.50000006;stroke-linecap:round;stroke-linejoin:round;stroke-miterlimit:4;stroke-dasharray:none;stroke-dashoffset:0;stroke-opacity:1;marker:none;enable-background:accumulate"
     id="circle6226" />
  <circle
     r="0.57673246"
     cy="18.308018"
     cx="27.180456"
     id="circle6228"
     style="color:#000000;display:inline;overflow:visible;visibility:visible;fill:#ebb5b5;fill-opacity:1;fill-rule:evenodd;stroke:none;stroke-width:1.15384638;marker:none;enable-background:accumulate" />
</svg>
