<?xml version="1.0" encoding="UTF-8" standalone="no"?>
<!-- Created with Inkscape (http://www.inkscape.org/) -->
<svg
   xmlns:svg="http://www.w3.org/2000/svg"
   xmlns="http://www.w3.org/2000/svg"
   version="1.0"
   width="100%"
   height="100%"
   viewBox="0 0 48 48"
   id="svg2">
  <defs
     id="defs2385" />
  <path
     d="M 24,0 C 10.745166,2.4320823e-15 -1.5855373e-15,10.745166 0,24 L 0,48 L 48,48 L 48,24 C 48,10.745166 37.254834,-2.3973878e-15 24,0 z"
     id="rect2386"
     style="opacity:1;fill:#ffffff;fill-opacity:1;fill-rule:nonzero;stroke:none;stroke-width:4;stroke-linecap:round;stroke-linejoin:miter;marker:none;marker-start:none;marker-mid:none;marker-end:none;stroke-miterlimit:4;stroke-dasharray:none;stroke-dashoffset:0;stroke-opacity:1;visibility:visible;display:inline;overflow:visible;enable-background:accumulate" />
  <path
     d="M 44,24 C 44,35.045695 35.045695,44 24,44 C 12.954305,44 4,35.045695 4,24 C 4,12.954305 12.954305,4 24,4 C 35.045695,4 44,12.954305 44,24 L 44,24 z"
     id="p3178"
     style="fill:#285d6e;fill-opacity:1;fill-rule:nonzero;stroke:none;marker:none;visibility:visible;display:inline;overflow:visible;enable-background:accumulate" />
  <path
     d="M 24,4 C 15.87,4 8.88,8.85 5.75,15.81 C 9.29,19.1 16.25,21.34 24.25,21.34 C 31.99,21.34 38.73,19.21 42.37,16.09 C 39.3,8.98 32.23,4 24,4 z"
     id="p3182"
     style="fill:#6fceed;fill-opacity:0.08999999;fill-rule:nonzero;stroke:none;marker:none;visibility:visible;display:inline;overflow:visible;enable-background:accumulate" />
  <path
     d="M 44,24 C 44,35.045695 35.045695,44 24,44 C 12.954305,44 4,35.045695 4,24 C 4,12.954305 12.954305,4 24,4 C 35.045695,4 44,12.954305 44,24 L 44,24 z"
     id="p3180"
     style="fill:none;fill-opacity:1;fill-rule:nonzero;stroke:#69b5cd;stroke-width:4;stroke-linecap:round;stroke-linejoin:miter;marker:none;stroke-miterlimit:4;stroke-dasharray:none;stroke-dashoffset:0;stroke-opacity:1;visibility:visible;display:inline;overflow:visible;enable-background:accumulate" />
  <path
     d="M 32.688854,11.793118 C 32.251836,11.793118 31.836221,12.026492 31.501354,12.574368 L 26.345104,21.011868 C 25.718931,22.036351 25.706635,23.598865 26.251354,24.699368 L 30.282604,24.699368 C 30.282605,29.023503 26.825489,32.480618 22.501354,32.480618 C 18.17722,32.480619 14.720104,29.023503 14.720104,24.699368 C 14.720104,20.375234 18.17722,16.918118 22.501354,16.918118 C 22.793525,16.918118 23.092909,16.918612 23.376354,16.949368 L 23.376354,11.949368 C 23.088358,11.929719 22.794082,11.918118 22.501354,11.918118 C 15.471905,11.918118 9.7201038,17.669919 9.7201038,24.699368 C 9.7201038,31.728817 15.471905,37.480618 22.501354,37.480618 C 29.530803,37.48062 35.282604,31.728817 35.282604,24.699368 L 39.157604,24.699368 C 39.702323,23.598866 39.658778,22.036351 39.032604,21.011868 L 33.907604,12.574368 C 33.572738,12.026492 33.125873,11.793118 32.688854,11.793118 z"
     id="path2398"
     style="opacity:1;fill:#aee2e6;fill-opacity:1;fill-rule:evenodd;stroke:none;stroke-width:11.66856289;stroke-linecap:butt;stroke-linejoin:miter;marker:none;stroke-miterlimit:4;stroke-dasharray:none;stroke-dashoffset:0;stroke-opacity:1;visibility:visible;display:inline;overflow:visible;enable-background:accumulate" />
</svg>
