<?xml version="1.0" encoding="UTF-8" standalone="no"?>
<!-- Created with Inkscape (http://www.inkscape.org/) -->
<svg
   xmlns:dc="http://purl.org/dc/elements/1.1/"
   xmlns:cc="http://creativecommons.org/ns#"
   xmlns:rdf="http://www.w3.org/1999/02/22-rdf-syntax-ns#"
   xmlns:svg="http://www.w3.org/2000/svg"
   xmlns="http://www.w3.org/2000/svg"
   xmlns:sodipodi="http://sodipodi.sourceforge.net/DTD/sodipodi-0.dtd"
   xmlns:inkscape="http://www.inkscape.org/namespaces/inkscape"
   version="1.0"
   width="100%"
   height="100%"
   viewBox="0 0 48 48"
   id="svg2"
   sodipodi:version="0.32"
   inkscape:version="0.46"
   sodipodi:docname="se.svg"
   inkscape:output_extension="org.inkscape.output.svg.inkscape">
  <metadata
     id="metadata10">
    <rdf:RDF>
      <cc:Work
         rdf:about="">
        <dc:format>image/svg+xml</dc:format>
        <dc:type
           rdf:resource="http://purl.org/dc/dcmitype/StillImage" />
      </cc:Work>
    </rdf:RDF>
  </metadata>
  <sodipodi:namedview
     inkscape:window-height="670"
     inkscape:window-width="640"
     inkscape:pageshadow="2"
     inkscape:pageopacity="0.0"
     guidetolerance="10.0"
     gridtolerance="10.0"
     objecttolerance="10.0"
     borderopacity="1.0"
     bordercolor="#666666"
     pagecolor="#ffffff"
     id="base"
     showgrid="false"
     inkscape:zoom="2.5246001"
     inkscape:cx="48.216792"
     inkscape:cy="27.385972"
     inkscape:window-x="418"
     inkscape:window-y="221"
     inkscape:current-layer="svg2" />
  <defs
     id="defs2385">
    <inkscape:perspective
       sodipodi:type="inkscape:persp3d"
       inkscape:vp_x="0 : 0.5 : 1"
       inkscape:vp_y="0 : 1000 : 0"
       inkscape:vp_z="1 : 0.5 : 1"
       inkscape:persp3d-origin="0.5 : 0.33333333 : 1"
       id="perspective12" />
  </defs>
  <g
     id="layer1"
     transform="matrix(-1,0,0,1,48,0)">
    <path
       d="M 21,0 C 15.71,0.71 10.78,3.17 7.03,7.03 L 0,14.06 L 0,48 L 33.93,48 L 40.96,40.96 C 44.9,37.13 47.3,32.18 48,26.96 L 48,20.56 C 47.71,18.48 47.15,16.4 46.31,14.4 C 42.96,6.49 35.7,1.1 27.37,0 L 21,0 z"
       id="p2393"
       style="fill:#ffffff;fill-opacity:1;fill-rule:evenodd;stroke:none" />
    <path
       d="M 44,24 C 44,35.045695 35.045695,44 24,44 C 12.954305,44 4,35.045695 4,24 C 4,12.954305 12.954305,4 24,4 C 35.045695,4 44,12.954305 44,24 L 44,24 z"
       id="p3178"
       style="opacity:1;fill:#28596e;fill-opacity:1;fill-rule:nonzero;stroke:none;marker:none;visibility:visible;display:inline;overflow:visible;enable-background:accumulate" />
    <path
       d="M 24,4 C 15.87,4 8.88,8.85 5.75,15.81 C 9.29,19.1 16.25,21.34 24.25,21.34 C 31.99,21.34 38.73,19.21 42.37,16.09 C 39.3,8.98 32.23,4 24,4 z"
       id="p3182"
       style="opacity:1;fill:#6fdfed;fill-opacity:0.08999999;fill-rule:nonzero;stroke:none;marker:none;visibility:visible;display:inline;overflow:visible;enable-background:accumulate" />
    <path
       d="M 44,24 C 44,35.045695 35.045695,44 24,44 C 12.954305,44 4,35.045695 4,24 C 4,12.954305 12.954305,4 24,4 C 35.045695,4 44,12.954305 44,24 L 44,24 z"
       id="p3180"
       style="opacity:1;fill:none;fill-opacity:1;fill-rule:nonzero;stroke:#69b5cd;stroke-width:4;stroke-linecap:round;stroke-linejoin:miter;marker:none;stroke-miterlimit:4;stroke-dasharray:none;stroke-dashoffset:0;stroke-opacity:1;visibility:visible;display:inline;overflow:visible;enable-background:accumulate" />
  </g>
</svg>
