<?xml version="1.0" encoding="UTF-8" standalone="no"?>
<svg
   xmlns:dc="http://purl.org/dc/elements/1.1/"
   xmlns:cc="http://creativecommons.org/ns#"
   xmlns:rdf="http://www.w3.org/1999/02/22-rdf-syntax-ns#"
   xmlns:svg="http://www.w3.org/2000/svg"
   xmlns="http://www.w3.org/2000/svg"
   viewBox="0 0 64 88"
   id="svg6399"
   version="1.1"
   height="100%"
   width="100%">
  <metadata
     id="metadata30">
    <rdf:RDF>
      <cc:Work
         rdf:about="">
        <dc:format>image/svg+xml</dc:format>
        <dc:type
           rdf:resource="http://purl.org/dc/dcmitype/StillImage" />
        <dc:title></dc:title>
      </cc:Work>
    </rdf:RDF>
  </metadata>
  <defs
     id="defs6401" />
  <g
     id="use4418">
    <path
       d="M 9,0 C 8.47,0 7.96,0.21 7.59,0.59 l -7,7 C 0.21,7.96 0,8.47 0,9 l 0,77 c 0,1.1 0.9,2 2,2 l 53,0 c 0.53,0 1.04,-0.21 1.41,-0.59 l 7,-7 C 63.79,80.04 64,79.53 64,79 L 64,2 C 64,0.9 63.1,0 62,0 L 9,0 Z"
       id="path6834" />
    <path
       style="fill:#9f9f9f"
       d="m 11.75,78.25 -9,9 9,0 43.25,0 c 0.33,0 0.65,-0.13 0.88,-0.37 l 7,-7 c 0.23,-0.23 0.37,-1.3 0.37,-1.63 l -51.5,0 z"
       id="path6836" />
    <path
       style="fill:#d7d7d7"
       d="m 8.12,1.12 -7,7 C 0.88,8.35 0.75,8.67 0.75,9 l 0,66.25 0,1 0,9 2,2 7,-7 0,-4 0,-1 0,-74.5 c -0.33,0 -1.4,0.13 -1.63,0.37 z"
       id="path6838" />
    <path
       style="fill:#bfbfbf"
       d="m 1.61,86.89 10.14,-10.14 0,-0.5 -10.41,10.41 c 0.08,0.09 0.17,0.16 0.27,0.23 z"
       id="path6840" />
    <path
       style="fill:#b7b7b7"
       d="m 1.93,87.07 9.82,-9.82 0,-0.5 -10.14,10.14 c 0.1,0.07 0.21,0.13 0.32,0.18 z"
       id="path6842" />
    <path
       style="fill:#afafaf"
       d="m 2.3,87.2 9.45,-9.45 0,-0.5 -9.82,9.82 c 0.12,0.05 0.24,0.1 0.37,0.13 z"
       id="path6844" />
    <path
       style="fill:#a7a7a7"
       d="M 11.75,77.75 2.3,87.2 c 0.14,0.03 0.29,0.05 0.45,0.05 l 9,-9 0,-0.5 z"
       id="path6846" />
    <path
       style="fill:#c7c7c7"
       d="m 1.34,86.66 10.41,-10.41 -0.5,0 -10.14,10.14 c 0.07,0.1 0.14,0.19 0.23,0.27 z"
       id="path6848" />
    <path
       style="fill:#cdcdcd"
       d="m 1.11,86.39 10.14,-10.14 -0.5,0 -9.82,9.82 c 0.05,0.11 0.11,0.22 0.18,0.32 z"
       id="path6850" />
    <path
       style="fill:#d2d2d2"
       d="m 0.93,86.07 9.82,-9.82 -0.5,0 -9.45,9.45 c 0.03,0.13 0.08,0.25 0.13,0.37 z"
       id="path6852" />
    <path
       style="fill:#d7d7d7"
       d="m 10.25,76.25 -0.5,0 -9,9 c 0,0.15 0.02,0.3 0.05,0.45 l 9.45,-9.45 z"
       id="path6854" />
    <path
       style="fill:#f6f6f6"
       d="m 63.25,78.25 0,-75.5 c 0,-1.1 -0.9,-2 -2,-2 l -50.5,0 c -1.1,0 -2,0.9 -2,2 l 0,75.5 c 0,1.1 0.9,2 2,2 l 50.5,0 c 1.1,0 2,-0.9 2,-2 z"
       id="path6856" />
    <path
       style="fill:#ffffff"
       d="m 8.75,78.25 0,-75.5 c 0,-1.1 0.9,-2 2,-2 l -1,0 c -1.1,0 -2,0.9 -2,2 l 0,75.5 c 0,1.1 0.9,2 2,2 l 1,0 c -1.1,0 -2,-0.9 -2,-2 z"
       id="path6858" />
  </g>
  <rect
     id="rect5078"
     height="69"
     width="45"
     y="6"
     x="13"
     style="fill:#bfbfbf" />
  <rect
     id="rect5080"
     height="65"
     width="41"
     y="8"
     x="15"
     style="fill:#f4f4f4" />
  <path
     id="path7672"
     d="M 31.101562 12.431641 L 29.597656 12.744141 L 28.976562 15.509766 L 29.076172 16.425781 L 29.617188 17.908203 L 27.060547 19.195312 L 26.191406 17.876953 L 25.515625 17.251953 L 22.923828 16.103516 L 21.777344 17.125 L 22.625 19.832031 L 23.167969 20.574219 L 24.378906 21.587891 L 22.806641 23.980469 L 21.396484 23.273438 L 20.498047 23.070312 L 17.677734 23.371094 L 17.197266 24.830078 L 19.283203 26.75 L 20.125 27.123047 L 21.679688 27.394531 L 21.517578 30.253906 L 19.941406 30.345703 L 19.0625 30.619141 L 16.769531 32.289062 L 17.082031 33.792969 L 19.849609 34.412109 L 20.763672 34.314453 L 22.248047 33.771484 L 23.535156 36.328125 L 22.216797 37.197266 L 21.591797 37.873047 L 20.441406 40.464844 L 21.464844 41.611328 L 24.171875 40.765625 L 24.914062 40.222656 L 25.925781 39.011719 L 28.320312 40.582031 L 27.613281 41.994141 L 27.410156 42.890625 L 27.710938 45.710938 L 29.169922 46.193359 L 31.089844 44.107422 L 31.460938 43.263672 L 31.732422 41.708984 L 34.591797 41.873047 L 34.683594 43.449219 L 34.957031 44.328125 L 36.628906 46.619141 L 38.130859 46.306641 L 38.751953 43.541016 L 38.652344 42.625 L 38.111328 41.142578 L 40.667969 39.855469 L 41.537109 41.173828 L 42.212891 41.798828 L 44.804688 42.947266 L 45.951172 41.925781 L 45.103516 39.21875 L 44.560547 38.476562 L 43.349609 37.462891 L 44.921875 35.070312 L 46.332031 35.777344 L 47.230469 35.980469 L 50.050781 35.679688 L 50.53125 34.220703 L 48.445312 32.300781 L 47.603516 31.927734 L 46.048828 31.65625 L 46.210938 28.798828 L 47.787109 28.705078 L 48.666016 28.431641 L 50.958984 26.761719 L 50.646484 25.257812 L 47.878906 24.638672 L 46.964844 24.736328 L 45.480469 25.279297 L 44.193359 22.722656 L 45.511719 21.853516 L 46.136719 21.177734 L 47.287109 18.585938 L 46.265625 17.439453 L 43.558594 18.285156 L 42.814453 18.828125 L 41.802734 20.039062 L 39.408203 18.46875 L 40.115234 17.056641 L 40.318359 16.160156 L 40.017578 13.339844 L 38.560547 12.857422 L 36.638672 14.943359 L 36.267578 15.787109 L 35.996094 17.341797 L 33.136719 17.177734 L 33.044922 15.601562 L 32.771484 14.722656 L 31.101562 12.431641 z M 33.470703 21.923828 A 7.6115602 7.6115602 0 0 1 36.251953 22.298828 A 7.6115602 7.6115602 0 0 1 39.275391 24.185547 L 27.160156 33.107422 A 7.6115602 7.6115602 0 0 1 26.636719 27.138672 A 7.6115602 7.6115602 0 0 1 33.470703 21.923828 z M 40.830078 26.478516 A 7.6115602 7.6115602 0 0 1 41.091797 31.912109 A 7.6115602 7.6115602 0 0 1 31.478516 36.751953 A 7.6115602 7.6115602 0 0 1 28.880859 35.275391 L 40.830078 26.478516 z "
     style="color:#000000;clip-rule:nonzero;display:inline;overflow:visible;visibility:visible;opacity:1;isolation:auto;mix-blend-mode:normal;color-interpolation:sRGB;color-interpolation-filters:linearRGB;solid-color:#000000;solid-opacity:1;fill:#bfbfbf;fill-opacity:1;fill-rule:nonzero;stroke:none;stroke-width:1;stroke-linecap:butt;stroke-linejoin:miter;stroke-miterlimit:4;stroke-dasharray:none;stroke-dashoffset:0;stroke-opacity:1;color-rendering:auto;image-rendering:auto;shape-rendering:auto;text-rendering:auto;enable-background:accumulate" />
  <path
     id="path7745"
     d="m 39.758405,41.743646 -0.684963,2.770243 0.101886,0.588441 0.733912,1.672928 -2.158719,1.461037 -1.280159,-1.302926 -0.509231,-0.313308 -2.825728,-0.393036 -0.717255,1.087588 1.474044,2.442624 0.488524,0.344704 1.70177,0.66363 -0.492735,2.560364 -1.826911,-0.01654 -0.581741,0.138222 -2.275939,1.720382 0.261936,1.276562 2.769519,0.685111 0.589166,-0.102035 1.672778,-0.734635 1.461186,2.159441 -1.302926,1.28016 -0.313307,0.509231 -0.393038,2.825727 1.087589,0.717255 2.442624,-1.474043 0.344704,-0.488525 0.66363,-1.701769 2.559641,0.492883 -0.01581,1.826763 0.138073,0.581016 1.720531,2.276663 1.276561,-0.261936 0.68424,-2.770095 -0.101161,-0.58859 -0.734636,-1.672779 2.159442,-1.461185 1.28016,1.302926 0.508508,0.313456 2.82645,0.392888 0.716531,-1.08744 -1.47332,-2.442772 -0.488524,-0.344704 -1.702494,-0.663482 0.493459,-2.560512 1.826913,0.01654 0.581014,-0.138072 2.275937,-1.720382 -0.261936,-1.276562 -2.769517,-0.685112 -0.588439,0.101887 -1.672781,0.734635 -1.461909,-2.159292 1.30365,-1.280309 0.313307,-0.509231 0.392313,-2.825578 -1.086863,-0.717404 -2.443348,1.474191 -0.343981,0.488376 -0.66363,1.70177 -2.560364,-0.492735 0.01654,-1.826911 -0.138798,-0.580868 -1.719808,-2.276811 -1.276561,0.261936 z m 2.294536,7.940898 a 3.7824084,3.7824084 0 0 1 4.465481,2.944945 3.7824084,3.7824084 0 0 1 -2.944946,4.465481 3.7824084,3.7824084 0 0 1 -4.465481,-2.944946 3.7824084,3.7824084 0 0 1 2.944946,-4.46548 z"
     style="color:#000000;clip-rule:nonzero;display:inline;overflow:visible;visibility:visible;opacity:1;isolation:auto;mix-blend-mode:normal;color-interpolation:sRGB;color-interpolation-filters:linearRGB;solid-color:#000000;solid-opacity:1;fill:#bfbfbf;fill-opacity:1;fill-rule:nonzero;stroke:none;stroke-width:1;stroke-linecap:butt;stroke-linejoin:miter;stroke-miterlimit:4;stroke-dasharray:none;stroke-dashoffset:0;stroke-opacity:1;color-rendering:auto;image-rendering:auto;shape-rendering:auto;text-rendering:auto;enable-background:accumulate" />
</svg>
