<?xml version="1.0" encoding="UTF-8" standalone="no"?>
<svg
   xmlns:dc="http://purl.org/dc/elements/1.1/"
   xmlns:cc="http://creativecommons.org/ns#"
   xmlns:rdf="http://www.w3.org/1999/02/22-rdf-syntax-ns#"
   xmlns:svg="http://www.w3.org/2000/svg"
   xmlns="http://www.w3.org/2000/svg"
   viewBox="0 0 64 88"
   id="svg6399"
   version="1.1"
   height="100%"
   width="100%">
  <metadata
     id="metadata30">
    <rdf:RDF>
      <cc:Work
         rdf:about="">
        <dc:format>image/svg+xml</dc:format>
        <dc:type
           rdf:resource="http://purl.org/dc/dcmitype/StillImage" />
        <dc:title></dc:title>
      </cc:Work>
    </rdf:RDF>
  </metadata>
  <defs
     id="defs6401" />
  <g
     id="use4422">
    <path
       id="path6890"
       d="M 9,0 C 8.47,0 7.96,0.21 7.59,0.59 l -7,7 C 0.21,7.96 0,8.47 0,9 l 0,77 c 0,1.1 0.9,2 2,2 l 53,0 c 0.53,0 1.04,-0.21 1.41,-0.59 l 7,-7 C 63.79,80.04 64,79.53 64,79 L 64,2 C 64,0.9 63.1,0 62,0 L 9,0 Z" />
    <path
       id="path6892"
       d="m 11.75,78.25 -9,9 9,0 43.25,0 c 0.33,0 0.65,-0.13 0.88,-0.37 l 7,-7 c 0.23,-0.23 0.37,-1.3 0.37,-1.63 l -51.5,0 z"
       style="fill:#9f9f9f" />
    <path
       id="path6894"
       d="m 8.12,1.12 -7,7 C 0.88,8.35 0.75,8.67 0.75,9 l 0,66.25 0,1 0,9 2,2 7,-7 0,-4 0,-1 0,-74.5 c -0.33,0 -1.4,0.13 -1.63,0.37 z"
       style="fill:#d7d7d7" />
    <path
       id="path6896"
       d="m 1.61,86.89 10.14,-10.14 0,-0.5 -10.41,10.41 c 0.08,0.09 0.17,0.16 0.27,0.23 z"
       style="fill:#bfbfbf" />
    <path
       id="path6898"
       d="m 1.93,87.07 9.82,-9.82 0,-0.5 -10.14,10.14 c 0.1,0.07 0.21,0.13 0.32,0.18 z"
       style="fill:#b7b7b7" />
    <path
       id="path6900"
       d="m 2.3,87.2 9.45,-9.45 0,-0.5 -9.82,9.82 c 0.12,0.05 0.24,0.1 0.37,0.13 z"
       style="fill:#afafaf" />
    <path
       id="path6902"
       d="M 11.75,77.75 2.3,87.2 c 0.14,0.03 0.29,0.05 0.45,0.05 l 9,-9 0,-0.5 z"
       style="fill:#a7a7a7" />
    <path
       id="path6904"
       d="m 1.34,86.66 10.41,-10.41 -0.5,0 -10.14,10.14 c 0.07,0.1 0.14,0.19 0.23,0.27 z"
       style="fill:#c7c7c7" />
    <path
       id="path6906"
       d="m 1.11,86.39 10.14,-10.14 -0.5,0 -9.82,9.82 c 0.05,0.11 0.11,0.22 0.18,0.32 z"
       style="fill:#cdcdcd" />
    <path
       id="path6908"
       d="m 0.93,86.07 9.82,-9.82 -0.5,0 -9.45,9.45 c 0.03,0.13 0.08,0.25 0.13,0.37 z"
       style="fill:#d2d2d2" />
    <path
       id="path6910"
       d="m 10.25,76.25 -0.5,0 -9,9 c 0,0.15 0.02,0.3 0.05,0.45 l 9.45,-9.45 z"
       style="fill:#d7d7d7" />
    <path
       id="path6912"
       d="m 63.25,78.25 0,-75.5 c 0,-1.1 -0.9,-2 -2,-2 l -50.5,0 c -1.1,0 -2,0.9 -2,2 l 0,75.5 c 0,1.1 0.9,2 2,2 l 50.5,0 c 1.1,0 2,-0.9 2,-2 z"
       style="fill:#f6f6f6" />
    <path
       id="path6914"
       d="m 8.75,78.25 0,-75.5 c 0,-1.1 0.9,-2 2,-2 l -1,0 c -1.1,0 -2,0.9 -2,2 l 0,75.5 c 0,1.1 0.9,2 2,2 l 1,0 c -1.1,0 -2,-0.9 -2,-2 z"
       style="fill:#ffffff" />
  </g>
  <g
     id="use4570"
     transform="translate(13,6)">
    <rect
       id="rect7278"
       height="67"
       width="43"
       y="1"
       x="1"
       style="fill:#f8f6d8;stroke:#f8f6d8" />
    <path
       id="path7280"
       d="m 11.27,58.16 -0.71,-8.35 c 1.76,-0.67 2.92,-1.76 2.83,-2.86 -0.09,-1.1 -1.42,-1.91 -3.26,-2.16 L 9.42,36.43 c 1.76,-0.67 2.92,-1.76 2.83,-2.86 -0.13,-1.56 -2.69,-2.54 -5.71,-2.19 -3.02,0.35 -5.37,1.89 -5.23,3.44 0.09,1.1 1.42,1.91 3.25,2.16 l 0.71,8.36 c -1.76,0.67 -2.92,1.76 -2.83,2.86 0.09,1.1 1.42,1.91 3.25,2.16 l 0.71,8.36 c -1.76,0.67 -2.92,1.76 -2.83,2.86 0.13,1.55 2.69,2.53 5.71,2.19 3.02,-0.35 5.37,-1.89 5.23,-3.44 -0.08,-1.11 -1.4,-1.92 -3.24,-2.17 z M 4.34,34.47 c -0.05,-0.58 1,-1.18 2.34,-1.34 1.34,-0.15 2.47,0.2 2.52,0.78 0.04,0.49 -0.7,0.99 -1.74,1.23 l 0.61,7.13 C 8.12,42.83 7.88,43.31 7.55,43.35 7.21,43.39 6.9,42.97 6.85,42.41 L 6.24,35.28 c -1.05,0 -1.86,-0.32 -1.9,-0.81 z M 4.57,47.95 C 4.52,47.37 5.98,46.72 7.82,46.51 9.67,46.3 11.21,46.6 11.25,47.18 11.3,47.76 9.84,48.41 8,48.62 6.15,48.84 4.62,48.54 4.57,47.95 Z M 9.15,62 C 7.81,62.15 6.68,61.81 6.63,61.22 6.59,60.73 7.33,60.23 8.37,59.99 L 7.76,52.86 c -0.05,-0.56 0.19,-1.04 0.52,-1.08 0.33,-0.04 0.65,0.38 0.69,0.94 l 0.61,7.13 c 1.06,0 1.87,0.32 1.91,0.81 0.05,0.59 -1,1.19 -2.34,1.34 z"
       style="fill:#d3bb54" />
    <path
       id="path7282"
       d="m 11.27,58.16 -0.71,-8.35 c 1.76,-0.67 2.92,-1.76 2.83,-2.86 -0.09,-1.1 -1.42,-1.91 -3.26,-2.16 L 9.42,36.43 c 1.76,-0.67 2.92,-1.76 2.83,-2.86 -0.13,-1.56 -2.69,-2.54 -5.71,-2.19 -3.02,0.35 -5.37,1.89 -5.23,3.44 0.09,1.1 1.42,1.91 3.25,2.16 l 0.71,8.36 c -1.76,0.67 -2.92,1.76 -2.83,2.86 0.09,1.1 1.42,1.91 3.25,2.16 l 0.71,8.36 c -1.76,0.67 -2.92,1.76 -2.83,2.86 0.13,1.55 2.69,2.53 5.71,2.19 3.02,-0.35 5.37,-1.89 5.23,-3.44 -0.08,-1.11 -1.4,-1.92 -3.24,-2.17 z M 4.34,34.47 c -0.05,-0.58 1,-1.18 2.34,-1.34 1.34,-0.15 2.47,0.2 2.52,0.78 0.04,0.49 -0.7,0.99 -1.74,1.23 l 0.61,7.13 C 8.12,42.83 7.88,43.31 7.55,43.35 7.21,43.39 6.9,42.97 6.85,42.41 L 6.24,35.28 c -1.05,0 -1.86,-0.32 -1.9,-0.81 z M 4.57,47.95 C 4.52,47.37 5.98,46.72 7.82,46.51 9.67,46.3 11.21,46.6 11.25,47.18 11.3,47.76 9.84,48.41 8,48.62 6.15,48.84 4.62,48.54 4.57,47.95 Z M 9.15,62 C 7.81,62.15 6.68,61.81 6.63,61.22 6.59,60.73 7.33,60.23 8.37,59.99 L 7.76,52.86 c -0.05,-0.56 0.19,-1.04 0.52,-1.08 0.33,-0.04 0.65,0.38 0.69,0.94 l 0.61,7.13 c 1.06,0 1.87,0.32 1.91,0.81 0.05,0.59 -1,1.19 -2.34,1.34 z"
       style="fill:none;stroke:#7c5a2d;stroke-width:0.25" />
    <path
       id="path7284"
       d="M 5.23,67.99 C 7.72,59.81 1.9,49.21 1.9,49.21 c 0,0 10.4,10.59 7.48,18.78 l -4.15,0 z"
       style="fill:#eadda7;stroke:#7c5a2d;stroke-width:0.25" />
    <path
       id="path7286"
       d="m 19.02,36.17 c -2.92,-0.98 -5.59,-0.56 -5.97,0.94 -0.27,1.06 0.7,2.38 2.33,3.41 l -2.03,8.06 c -1.85,-0.14 -3.28,0.37 -3.54,1.43 -0.27,1.06 0.7,2.38 2.33,3.41 l -2.03,8.06 c -1.84,-0.14 -3.27,0.37 -3.54,1.43 -0.38,1.5 1.68,3.51 4.6,4.5 2.92,0.98 5.59,0.56 5.96,-0.94 0.27,-1.06 -0.7,-2.38 -2.32,-3.41 L 16.84,55 c 1.85,0.14 3.28,-0.37 3.55,-1.43 0.27,-1.06 -0.71,-2.38 -2.33,-3.41 l 2.03,-8.06 c 1.84,0.14 3.28,-0.37 3.54,-1.43 0.36,-1.51 -1.69,-3.52 -4.61,-4.5 z m -4.61,20.87 -1.73,6.88 c 0.98,0.45 1.63,1.1 1.51,1.58 -0.14,0.56 -1.31,0.66 -2.6,0.23 -1.3,-0.44 -2.23,-1.25 -2.09,-1.81 0.12,-0.47 0.97,-0.62 2.01,-0.39 l 1.73,-6.88 c 0.13,-0.54 0.51,-0.88 0.83,-0.77 0.32,0.1 0.47,0.62 0.34,1.16 z m 3.91,-4.16 c -0.14,0.56 -1.7,0.53 -3.48,-0.07 -1.78,-0.6 -3.11,-1.54 -2.97,-2.11 0.14,-0.56 1.7,-0.53 3.48,0.07 1.78,0.6 3.11,1.55 2.97,2.11 z m 2.36,-13.21 c -0.12,0.47 -0.97,0.62 -2.01,0.39 l -1.73,6.88 c -0.13,0.54 -0.51,0.88 -0.83,0.77 -0.32,-0.11 -0.48,-0.63 -0.34,-1.17 l 1.73,-6.88 c -0.98,-0.45 -1.63,-1.1 -1.51,-1.58 0.14,-0.56 1.31,-0.67 2.6,-0.23 1.3,0.45 2.23,1.26 2.09,1.82 z"
       style="fill:#dbc879" />
    <path
       id="path7288"
       d="m 19.02,36.17 c -2.92,-0.98 -5.59,-0.56 -5.97,0.94 -0.27,1.06 0.7,2.38 2.33,3.41 l -2.03,8.06 c -1.85,-0.14 -3.28,0.37 -3.54,1.43 -0.27,1.06 0.7,2.38 2.33,3.41 l -2.03,8.06 c -1.84,-0.14 -3.27,0.37 -3.54,1.43 -0.38,1.5 1.68,3.51 4.6,4.5 2.92,0.98 5.59,0.56 5.96,-0.94 0.27,-1.06 -0.7,-2.38 -2.32,-3.41 L 16.84,55 c 1.85,0.14 3.28,-0.37 3.55,-1.43 0.27,-1.06 -0.71,-2.38 -2.33,-3.41 l 2.03,-8.06 c 1.84,0.14 3.28,-0.37 3.54,-1.43 0.36,-1.51 -1.69,-3.52 -4.61,-4.5 z m -4.61,20.87 -1.73,6.88 c 0.98,0.45 1.63,1.1 1.51,1.58 -0.14,0.56 -1.31,0.66 -2.6,0.23 -1.3,-0.44 -2.23,-1.25 -2.09,-1.81 0.12,-0.47 0.97,-0.62 2.01,-0.39 l 1.73,-6.88 c 0.13,-0.54 0.51,-0.88 0.83,-0.77 0.32,0.1 0.47,0.62 0.34,1.16 z m 3.91,-4.16 c -0.14,0.56 -1.7,0.53 -3.48,-0.07 -1.78,-0.6 -3.11,-1.54 -2.97,-2.11 0.14,-0.56 1.7,-0.53 3.48,0.07 1.78,0.6 3.11,1.55 2.97,2.11 z m 2.36,-13.21 c -0.12,0.47 -0.97,0.62 -2.01,0.39 l -1.73,6.88 c -0.13,0.54 -0.51,0.88 -0.83,0.77 -0.32,-0.11 -0.48,-0.63 -0.34,-1.17 l 1.73,-6.88 c -0.98,-0.45 -1.63,-1.1 -1.51,-1.58 0.14,-0.56 1.31,-0.67 2.6,-0.23 1.3,0.45 2.23,1.26 2.09,1.82 z"
       style="fill:none;stroke:#7c5a2d;stroke-width:0.25" />
    <path
       id="path7290"
       d="m 19.85,67.7 c -1.77,-5.79 2.35,-13.28 2.35,-13.28 0,0 -7.35,7.49 -5.29,13.28 l 2.94,0 z"
       style="fill:#eada9b;stroke:#7c5a2d;stroke-width:0.25" />
    <path
       id="path7292"
       d="m 30.33,52.2 c -10.89,0 -12.13,-1.84 -15.85,-5.97 4.7,-3.44 10.9,-3.9 16.34,4.82 l -0.49,1.15 z"
       style="fill:#bfaa52;stroke:#7c5a2d" />
    <path
       id="path7294"
       d="m 27.52,50.68 c -6.89,0 -7.68,-1.16 -10.03,-3.78 2.98,-2.18 6.9,-2.47 10.34,3.05 l -0.31,0.73 z"
       style="fill:#dbc775" />
    <path
       id="path7296"
       d="m 42.27,47.51 c -0.36,2.52 -6.85,4.67 -9.62,5.14 -2.77,0.47 1.52,-5.63 6.18,-9.5 2.95,-0.51 3.67,2.79 3.44,4.36 z"
       style="fill:#bfaa52;stroke:#7c5a2d" />
    <path
       id="path7298"
       d="m 37.59,49.31 c -0.15,1.08 -2.95,2.01 -4.14,2.21 -1.19,0.2 0.66,-2.42 2.66,-4.09 1.27,-0.22 1.58,1.2 1.48,1.88 z"
       style="fill:#dbc775" />
    <path
       id="path7300"
       d="M 38.25,67.92 C 30.43,64.22 32.81,56 32.81,49.2 l -2.23,-0.29 c 0,0 -2.8,17.48 4.83,18.76 l 2.84,0.25 z"
       style="fill:#e5d389;stroke:#7c5a2d;stroke-width:0.75" />
    <path
       id="path7302"
       d="m 43.33,52.91 0,7.75 c 0,0 -2.47,2.07 -4.21,2.07 -1.73,0 -6.93,-9.55 -6.44,-10.59 0.51,-1.04 10.16,-1.29 10.65,0.77 z"
       style="fill:#bfaa52;stroke:#7c5a2d" />
    <path
       id="path7304"
       d="m 40.06,53.5 c 1.02,0.72 0,3.43 0,3.43 0,0 -1.33,0.91 -2.27,0.91 -0.93,0 -3.73,-4.22 -3.47,-4.68 0.26,-0.46 4.72,-0.37 5.74,0.34 z"
       style="fill:#dbc775" />
    <path
       id="path7306"
       d="M 31.45,52.39 C 18.58,51.1 20.56,56.78 17.34,62.46 27.49,65.3 28.23,57.04 31.45,52.39 Z"
       style="fill:#bfaa52;stroke:#7c5a2d" />
    <path
       id="path7308"
       d="m 30.26,53.1 c -8.21,-0.82 -6.95,2.8 -9,6.42 6.48,1.82 6.95,-3.45 9,-6.42 z"
       style="fill:#e2cf7f" />
    <path
       id="path7310"
       d="m 32.93,50.42 c 0,0 3.69,-9.06 -0.25,-11.11 -4.04,-2.11 -6.64,-1.29 -7.13,0 -0.5,1.29 3.91,12.41 5.65,12.66 1.73,0.26 1.73,-1.55 1.73,-1.55 z"
       style="fill:#bfaa52;stroke:#7c5a2d" />
    <path
       id="path7312"
       d="m 32.14,50.27 c 0,0 2.05,-5.67 -0.14,-6.95 -2.24,-1.32 -3.68,-0.81 -3.96,0 -0.28,0.81 2.17,7.76 3.13,7.92 0.97,0.16 0.97,-0.97 0.97,-0.97 z"
       style="fill:#dbc775" />
    <path
       id="path7314"
       d="m 31.45,51.12 c 0,0 -1.48,-2.54 -1.23,-4.87"
       style="fill:#eadda7;stroke:#7c5a2d;stroke-width:0.25" />
    <path
       id="path7316"
       d="m 30.33,52.6 c 0,0 -4.13,5.57 -2.01,5.48 2.41,-0.11 2.6,0 5.1,0.46 2.57,0.47 0.2,-5.55 -1.6,-6.32 l -1.49,0.38 z"
       style="fill:#bfaa52;stroke:#7c5a2d" />
    <path
       id="path7318"
       d="m 27.27,48.13 c 0,0 2.02,2.93 3.35,2.93 1.33,0 0.61,2.18 0,1.56 C 30,51.99 28.15,50.19 27.05,50 c -0.82,0 -1.01,-2.34 0.22,-1.87 z"
       style="fill:#dbc879;stroke:#7c5a2d;stroke-width:0.5" />
    <path
       id="path7320"
       d="m 44,12.51 c -4.46,0 -8.54,2.85 -8.54,6.37 0,3.52 4.08,6.37 8.54,6.37 l 0,-12.74 z"
       style="fill:#d3bb54;stroke:#af9a41" />
    <path
       id="path7322"
       d="m 33.33,7.64 c 0,-3.52 -3.62,-6.23 -8.08,-6.23 -4.46,0 -8.08,2.71 -8.08,6.23 0,3.52 3.62,6.37 8.08,6.37 4.46,0 8.08,-2.85 8.08,-6.37 z"
       style="fill:#d3bb54;stroke:#af9a41" />
    <ellipse
       id="ellipse7324"
       ry="6.3699999"
       rx="8.0799999"
       cy="17.540001"
       cx="29.559999"
       style="fill:#d3bb54;stroke:#af9a41" />
    <path
       id="path7326"
       d="m 44,16.35 0,-14.93 -13.1,0 c -2.93,1.56 -3.79,4.49 -3.79,7.49 0,4.79 4.93,8.68 11.02,8.68 2.08,-0.01 4.21,-0.46 5.87,-1.24 z"
       style="fill:#dbc879;stroke:#af9a41" />
    <path
       id="path7328"
       d="m 31.94,15.47 c 0,0 -0.72,1.82 -3.03,1.82"
       style="fill:#d3bb54;stroke:#af9a41" />
    <path
       id="path7330"
       d="m 27.19,6.62 c 0,0 -1.73,0.57 -3.17,-1.02"
       style="fill:#d3bb54;stroke:#af9a41" />
    <path
       id="path7332"
       d="M 44,0 0,0 0,69 45,69 45,0 44,0 Z m -1,2 c 0,1.91 0,63.09 0,65 C 41.14,67 3.86,67 2,67 2,65.09 2,3.91 2,2 3.86,2 41.14,2 43,2 Z"
       style="fill:#663333" />
    <path
       id="path7334"
       d="m 31.13,52.9 c 0,0 -1.71,2.31 -0.83,2.27 1,-0.04 1.08,0 2.11,0.19 1.06,0.2 0.08,-2.3 -0.66,-2.62 l -0.62,0.16 z"
       style="fill:#e2cf7f" />
  </g>
  <path
     style="fill:#dbc879;stroke:#7c5a2d;stroke-width:0.5"
     d="m 26.9,25.3 c -0.8,-2.5 4.7,2.6 2.6,2.2 -2.1,-0.4 -10.6,0.1 -11.9,0.6 L 17,25.9 c 1.9,0.2 9.9,-0.6 9.9,-0.6 z"
     id="path5164" />
  <path
     style="fill:#dbc879;stroke:#7c5a2d;stroke-width:0.5"
     d="m 26.5,20.8 c -2,-2.3 -2.8,0.6 -9,0.6 l 1.1,1.7 7.7,-1 0.2,-1.3 z"
     id="path5166" />
</svg>
