<?xml version="1.0" encoding="UTF-8" standalone="no"?>
<svg
   xmlns:dc="http://purl.org/dc/elements/1.1/"
   xmlns:cc="http://creativecommons.org/ns#"
   xmlns:rdf="http://www.w3.org/1999/02/22-rdf-syntax-ns#"
   xmlns:svg="http://www.w3.org/2000/svg"
   xmlns="http://www.w3.org/2000/svg"
   viewBox="0 0 64 88"
   id="svg6399"
   version="1.1"
   height="100%"
   width="100%">
  <metadata
     id="metadata30">
    <rdf:RDF>
      <cc:Work
         rdf:about="">
        <dc:format>image/svg+xml</dc:format>
        <dc:type
           rdf:resource="http://purl.org/dc/dcmitype/StillImage" />
        <dc:title></dc:title>
      </cc:Work>
    </rdf:RDF>
  </metadata>
  <defs
     id="defs6401" />
  <g
     id="use4428">
    <path
       id="path6974"
       d="M 9,0 C 8.47,0 7.96,0.21 7.59,0.59 l -7,7 C 0.21,7.96 0,8.47 0,9 l 0,77 c 0,1.1 0.9,2 2,2 l 53,0 c 0.53,0 1.04,-0.21 1.41,-0.59 l 7,-7 C 63.79,80.04 64,79.53 64,79 L 64,2 C 64,0.9 63.1,0 62,0 L 9,0 Z" />
    <path
       id="path6976"
       d="m 11.75,78.25 -9,9 9,0 43.25,0 c 0.33,0 0.65,-0.13 0.88,-0.37 l 7,-7 c 0.23,-0.23 0.37,-1.3 0.37,-1.63 l -51.5,0 z"
       style="fill:#9f9f9f" />
    <path
       id="path6978"
       d="m 8.12,1.12 -7,7 C 0.88,8.35 0.75,8.67 0.75,9 l 0,66.25 0,1 0,9 2,2 7,-7 0,-4 0,-1 0,-74.5 c -0.33,0 -1.4,0.13 -1.63,0.37 z"
       style="fill:#d7d7d7" />
    <path
       id="path6980"
       d="m 1.61,86.89 10.14,-10.14 0,-0.5 -10.41,10.41 c 0.08,0.09 0.17,0.16 0.27,0.23 z"
       style="fill:#bfbfbf" />
    <path
       id="path6982"
       d="m 1.93,87.07 9.82,-9.82 0,-0.5 -10.14,10.14 c 0.1,0.07 0.21,0.13 0.32,0.18 z"
       style="fill:#b7b7b7" />
    <path
       id="path6984"
       d="m 2.3,87.2 9.45,-9.45 0,-0.5 -9.82,9.82 c 0.12,0.05 0.24,0.1 0.37,0.13 z"
       style="fill:#afafaf" />
    <path
       id="path6986"
       d="M 11.75,77.75 2.3,87.2 c 0.14,0.03 0.29,0.05 0.45,0.05 l 9,-9 0,-0.5 z"
       style="fill:#a7a7a7" />
    <path
       id="path6988"
       d="m 1.34,86.66 10.41,-10.41 -0.5,0 -10.14,10.14 c 0.07,0.1 0.14,0.19 0.23,0.27 z"
       style="fill:#c7c7c7" />
    <path
       id="path6990"
       d="m 1.11,86.39 10.14,-10.14 -0.5,0 -9.82,9.82 c 0.05,0.11 0.11,0.22 0.18,0.32 z"
       style="fill:#cdcdcd" />
    <path
       id="path6992"
       d="m 0.93,86.07 9.82,-9.82 -0.5,0 -9.45,9.45 c 0.03,0.13 0.08,0.25 0.13,0.37 z"
       style="fill:#d2d2d2" />
    <path
       id="path6994"
       d="m 10.25,76.25 -0.5,0 -9,9 c 0,0.15 0.02,0.3 0.05,0.45 l 9.45,-9.45 z"
       style="fill:#d7d7d7" />
    <path
       id="path6996"
       d="m 63.25,78.25 0,-75.5 c 0,-1.1 -0.9,-2 -2,-2 l -50.5,0 c -1.1,0 -2,0.9 -2,2 l 0,75.5 c 0,1.1 0.9,2 2,2 l 50.5,0 c 1.1,0 2,-0.9 2,-2 z"
       style="fill:#f6f6f6" />
    <path
       id="path6998"
       d="m 8.75,78.25 0,-75.5 c 0,-1.1 0.9,-2 2,-2 l -1,0 c -1.1,0 -2,0.9 -2,2 l 0,75.5 c 0,1.1 0.9,2 2,2 l 1,0 c -1.1,0 -2,-0.9 -2,-2 z"
       style="fill:#ffffff" />
  </g>
</svg>
