<?xml version="1.0" encoding="UTF-8" standalone="no"?>
<svg xmlns:dc="http://purl.org/dc/elements/1.1/" xmlns:cc="http://creativecommons.org/ns#" xmlns:rdf="http://www.w3.org/1999/02/22-rdf-syntax-ns#" xmlns:svg="http://www.w3.org/2000/svg" xmlns="http://www.w3.org/2000/svg" xmlns:sodipodi="http://sodipodi.sourceforge.net/DTD/sodipodi-0.dtd" xmlns:inkscape="http://www.inkscape.org/namespaces/inkscape" version="1.0" width="100%" height="100%" viewBox="0 0 96 96" id="svg8" sodipodi:docname="3x3b.svg" inkscape:version="0.92.3 (2405546, 2018-03-11)"> 
<metadata id="metadata14"> 
<rdf:RDF> 
<cc:Work rdf:about=""> 
<dc:format>image/svg+xml
</dc:format> 
<dc:type rdf:resource="http://purl.org/dc/dcmitype/StillImage" /> 
</cc:Work> 
</rdf:RDF> 
</metadata> 
<defs id="defs12" /> 
<sodipodi:namedview pagecolor="#ffffff" bordercolor="#666666" borderopacity="1" objecttolerance="10" gridtolerance="10" guidetolerance="10" inkscape:pageopacity="0" inkscape:pageshadow="2" inkscape:window-width="1366" inkscape:window-height="719" id="namedview10" showgrid="false" inkscape:zoom="4.575" inkscape:cx="-9.559" inkscape:cy="94.372" inkscape:window-x="0" inkscape:window-y="25" inkscape:window-maximized="1" inkscape:current-layer="layer4" /> 
<g inkscape:groupmode="layer" id="layer1" inkscape:label="grid" > 
<path id="path6" d="m 0,32 c 6.4,0.06 16.24,-3.37 13.04,2.39 -3.21,5.76 8.31,5.76 5.76,0 -2.56,-5.76 6.8,-2.17 13.2,-2.39 6.4,-0.22 16.46,2.88 13.77,-2.88 -2.68,-5.76 8.84,-5.76 5.76,0 -3.07,5.76 6.07,3.03 12.47,2.88 6.4,-0.15 16.6,2.7 13.25,-3.06 -3.35,-5.76 8.17,-5.76 5.76,0 C 80.6,34.7 89.6,32.64 96,32 M 0,64 c 6.4,0.11 16.42,-2.26 13.39,3.5 -3.03,5.76 8.49,5.76 5.76,0 C 16.42,61.74 25.6,64.29 32,64 c 6.4,-0.29 15.97,-2.42 13.66,3.34 -2.32,5.76 9.2,5.76 5.76,0 C 47.97,61.58 57.6,64.11 64,64 c 6.4,-0.11 16.6,3.21 13.19,-2.55 -3.42,-5.76 8.1,-5.76 5.76,0 C 80.6,67.21 89.6,63.74 96,64 M 32,0 c -0.19,6.4 -3.53,16.71 2.23,13.34 5.76,-3.37 5.76,8.15 0,5.76 -5.76,-2.39 -2.58,6.5 -2.23,12.9 0.35,6.4 -3.39,15.04 2.37,12.73 5.76,-2.31 5.76,9.21 0,5.76 C 28.61,47.04 32.12,57.6 32,64 c -0.12,6.4 2.35,15.57 -3.41,12.64 -5.76,-2.92 -5.76,8.6 0,5.76 5.76,-2.83 3.35,7.2 3.41,13.6 M 64,0 c 0.18,6.4 3.17,16.36 -2.59,13.19 -5.76,-3.17 -5.76,8.35 0,5.76 5.76,-2.59 3.13,6.65 2.59,13.05 -0.54,6.4 -3.09,15.94 2.67,13.23 5.76,-2.7 5.76,8.82 0,5.76 -5.76,-3.05 -3,6.61 -2.67,13.01 0.33,6.4 2.53,16.15 -3.23,12.68 -5.76,-3.47 -5.76,8.05 0,5.76 C 66.53,80.15 64.62,89.6 64,96 M 5,0 h 86 a 5,5 0 0 1 5,5 v 86 a 5,5 0 0 1 -5,5 H 5 A 5,5 0 0 1 0,91 V 5 A 5,5 0 0 1 5,0" /> 
</g> 
<g inkscape:groupmode="layer" id="layer2" inkscape:label="pieces" > 
<path id="path58" d="M 5,0.150 C 2.319,0.150 0.150,2.319 0.150,5 v 26.835 c 3.151,0.004 7.122,-0.798 9.962,-0.927 1.441,-0.065 2.598,0.026 3.236,0.572 0.318,0.272 0.487,0.670 0.460,1.164 -0.026,0.493 -0.232,1.086 -0.638,1.818 -0.783,1.406 -0.659,2.401 -0.111,3.072 0.548,0.670 1.564,1.025 2.611,1.025 1.046,0 2.109,-0.354 2.742,-1.033 0.632,-0.678 0.868,-1.674 0.248,-3.076 -0.325,-0.732 -0.466,-1.327 -0.441,-1.816 0.025,-0.489 0.230,-0.874 0.570,-1.136 0.679,-0.524 1.836,-0.606 3.257,-0.531 2.796,0.148 6.639,0.948 9.781,0.871 -0.194,-3.145 -1.038,-6.876 -1.156,-9.578 -0.059,-1.374 0.057,-2.494 0.613,-3.150 0.278,-0.328 0.672,-0.523 1.169,-0.552 0.497,-0.028 1.097,0.100 1.830,0.404 1.400,0.581 2.398,0.318 3.078,-0.333 0.680,-0.652 1.035,-1.728 1.035,-2.775 0,-1.046 -0.354,-2.051 -1.023,-2.580 -0.668,-0.528 -1.662,-0.626 -3.070,0.197 -0.731,0.428 -1.327,0.647 -1.824,0.677 -0.496,0.030 -0.897,-0.143 -1.171,-0.472 -0.548,-0.658 -0.646,-1.857 -0.576,-3.347 0.137,-2.934 0.981,-7.017 1.097,-10.175 z" /> 
<path id="path56" d="M 32.134,0.150 C 32.018,3.354 31.168,7.448 31.033,10.339 c -0.068,1.466 0.068,2.613 0.507,3.140 0.219,0.263 0.499,0.393 0.921,0.367 0.422,-0.025 0.983,-0.222 1.691,-0.636 1.472,-0.861 2.636,-0.783 3.408,-0.173 0.771,0.609 1.136,1.701 1.136,2.814 0,1.113 -0.365,2.260 -1.125,2.990 -0.759,0.729 -1.922,1.010 -3.402,0.396 -0.707,-0.293 -1.267,-0.407 -1.697,-0.382 -0.430,0.024 -0.728,0.179 -0.957,0.449 -0.456,0.538 -0.603,1.594 -0.544,2.943 0.115,2.660 0.969,6.416 1.162,9.609 3.206,-0.087 7.244,0.603 10.160,0.630 1.477,0.013 2.658,-0.159 3.265,-0.636 0.303,-0.238 0.474,-0.542 0.501,-0.972 0.027,-0.429 -0.097,-0.989 -0.427,-1.695 -0.687,-1.477 -0.467,-2.641 0.226,-3.404 0.694,-0.763 1.826,-1.128 2.939,-1.128 1.113,0 2.222,0.365 2.867,1.132 0.645,0.767 0.782,1.933 -0.005,3.408 -0.377,0.708 -0.560,1.278 -0.589,1.722 -0.029,0.444 0.086,0.758 0.320,1.003 0.468,0.491 1.485,0.699 2.822,0.708 2.637,0.018 6.454,-0.676 9.648,-0.767 0.280,-3.190 1.049,-7.033 1.054,-9.755 0.002,-1.379 -0.202,-2.458 -0.707,-3.005 -0.252,-0.273 -0.574,-0.427 -1.019,-0.443 -0.444,-0.016 -1.013,0.113 -1.720,0.431 -1.477,0.664 -2.640,0.425 -3.402,-0.279 -0.762,-0.705 -1.128,-1.841 -1.128,-2.955 0,-1.113 0.365,-2.215 1.134,-2.849 0.768,-0.633 1.934,-0.754 3.408,0.056 0.707,0.389 1.271,0.570 1.705,0.587 0.433,0.017 0.734,-0.117 0.970,-0.380 0.472,-0.526 0.649,-1.645 0.625,-3.080 C 64.734,7.358 63.972,3.349 63.863,0.150 Z" /> 
<path id="path54" d="m 64.164,0.150 c 0.108,3.157 0.868,7.156 0.917,10.031 0.025,1.459 -0.119,2.636 -0.701,3.285 -0.290,0.324 -0.700,0.498 -1.205,0.478 -0.504,-0.019 -1.105,-0.220 -1.837,-0.623 -1.406,-0.773 -2.401,-0.643 -3.072,-0.089 -0.671,0.553 -1.025,1.572 -1.025,2.619 0,1.046 0.353,2.107 1.031,2.734 0.677,0.627 1.674,0.857 3.076,0.226 0.733,-0.329 1.343,-0.475 1.855,-0.457 0.511,0.018 0.925,0.210 1.228,0.539 0.605,0.656 0.787,1.801 0.785,3.208 -0.005,2.771 -0.770,6.597 -1.050,9.755 3.200,-0.050 7.254,0.590 10.113,0.564 1.453,-0.013 2.585,-0.217 3.111,-0.707 0.262,-0.244 0.392,-0.550 0.365,-0.988 -0.026,-0.437 -0.222,-1.004 -0.634,-1.712 -0.856,-1.472 -0.773,-2.637 -0.162,-3.408 0.611,-0.771 1.705,-1.136 2.818,-1.136 1.113,0 2.259,0.364 2.986,1.125 0.727,0.760 1.003,1.923 0.384,3.402 -0.295,0.706 -0.410,1.282 -0.384,1.744 0.026,0.462 0.186,0.810 0.464,1.089 0.555,0.557 1.621,0.826 2.980,0.888 2.681,0.121 6.457,-0.527 9.640,-0.853 V 5 C 95.849,2.319 93.680,0.150 91,0.150 Z" /> 
<path id="path52" d="m 79.777,24.769 c -1.046,0 -2.053,0.354 -2.583,1.023 -0.530,0.668 -0.633,1.664 0.185,3.072 0.425,0.731 0.644,1.334 0.675,1.843 0.031,0.509 -0.136,0.928 -0.458,1.228 -0.644,0.600 -1.834,0.773 -3.312,0.787 -2.917,0.026 -6.988,-0.621 -10.148,-0.566 -0.281,3.188 -1.026,7.095 -1.011,9.873 0.007,1.409 0.222,2.515 0.734,3.074 0.256,0.279 0.579,0.434 1.025,0.447 0.446,0.013 1.016,-0.126 1.722,-0.458 1.477,-0.692 2.641,-0.474 3.404,0.216 0.763,0.691 1.130,1.820 1.130,2.933 0,1.113 -0.367,2.223 -1.134,2.871 -0.767,0.647 -1.931,0.791 -3.406,0.007 -0.707,-0.374 -1.276,-0.548 -1.716,-0.562 -0.440,-0.014 -0.752,0.119 -0.998,0.378 -0.490,0.518 -0.689,1.608 -0.683,3.011 0.011,2.770 0.758,6.714 0.937,9.910 3.207,-0.031 7.279,0.737 10.140,0.832 1.450,0.047 2.578,-0.099 3.089,-0.542 0.255,-0.221 0.377,-0.505 0.345,-0.929 -0.032,-0.424 -0.234,-0.984 -0.654,-1.693 -0.873,-1.471 -0.806,-2.638 -0.203,-3.410 0.603,-0.771 1.693,-1.136 2.806,-1.136 1.113,0 2.264,0.365 3,1.125 0.735,0.759 1.026,1.920 0.425,3.400 -0.288,0.706 -0.398,1.263 -0.367,1.685 0.031,0.422 0.191,0.713 0.468,0.933 0.553,0.441 1.629,0.568 2.996,0.511 2.691,-0.112 6.463,-0.878 9.662,-0.777 V 32.167 c -3.159,0.325 -6.920,0.975 -9.654,0.851 -1.389,-0.063 -2.524,-0.318 -3.177,-0.974 -0.326,-0.327 -0.522,-0.759 -0.552,-1.285 -0.029,-0.525 0.099,-1.143 0.406,-1.876 0.586,-1.400 0.326,-2.400 -0.324,-3.080 -0.650,-0.679 -1.722,-1.033 -2.769,-1.033 z" /> 
<path id="path50" d="m 48.800,24.949 c -1.046,0 -2.100,0.354 -2.716,1.031 -0.615,0.676 -0.830,1.673 -0.177,3.076 0.342,0.733 0.489,1.337 0.457,1.841 -0.032,0.504 -0.255,0.905 -0.617,1.189 -0.722,0.568 -1.952,0.713 -3.453,0.699 -2.962,-0.027 -6.996,-0.715 -10.152,-0.628 0.141,3.196 -0.666,6.877 -0.833,9.482 -0.084,1.324 0.014,2.358 0.429,2.880 0.207,0.261 0.486,0.411 0.902,0.437 0.415,0.025 0.968,-0.085 1.675,-0.369 1.479,-0.593 2.641,-0.295 3.400,0.443 0.759,0.739 1.125,1.890 1.125,3.003 0,1.113 -0.366,2.203 -1.138,2.802 -0.772,0.599 -1.936,0.660 -3.408,-0.220 -0.708,-0.424 -1.266,-0.625 -1.683,-0.652 -0.417,-0.026 -0.691,0.104 -0.906,0.373 -0.429,0.537 -0.553,1.711 -0.482,3.205 0.139,2.942 0.950,7.086 0.917,10.296 3.163,-0.155 7.075,-0.740 9.964,-0.589 1.465,0.076 2.675,0.334 3.396,0.984 0.360,0.324 0.591,0.753 0.648,1.279 0.056,0.525 -0.054,1.145 -0.349,1.880 -0.563,1.400 -0.288,2.397 0.373,3.078 0.661,0.680 1.742,1.035 2.789,1.035 1.046,0 2.047,-0.353 2.566,-1.021 0.519,-0.667 0.603,-1.663 -0.236,-3.070 -0.437,-0.731 -0.674,-1.338 -0.732,-1.853 -0.058,-0.514 0.072,-0.943 0.359,-1.261 0.573,-0.637 1.692,-0.851 3.093,-0.902 2.757,-0.100 6.669,0.474 9.822,0.441 -0.180,-3.156 -0.922,-7.077 -0.933,-9.890 -0.005,-1.430 0.166,-2.583 0.767,-3.218 0.300,-0.317 0.715,-0.487 1.224,-0.470 0.509,0.016 1.115,0.207 1.847,0.595 1.405,0.746 2.399,0.596 3.072,0.029 0.672,-0.567 1.027,-1.595 1.027,-2.642 0,-1.046 -0.354,-2.097 -1.031,-2.710 -0.676,-0.613 -1.671,-0.825 -3.074,-0.167 -0.733,0.345 -1.344,0.501 -1.859,0.486 -0.514,-0.015 -0.931,-0.210 -1.238,-0.544 -0.612,-0.668 -0.806,-1.838 -0.814,-3.275 -0.014,-2.823 0.728,-6.709 1.009,-9.867 -3.148,0.095 -6.938,0.780 -9.619,0.761 -1.364,-0.009 -2.456,-0.189 -3.039,-0.800 -0.291,-0.305 -0.435,-0.721 -0.402,-1.230 0.033,-0.508 0.237,-1.114 0.626,-1.845 0.751,-1.405 0.603,-2.399 0.039,-3.072 -0.564,-0.672 -1.590,-1.027 -2.636,-1.027 z" /> 
<path id="path48" d="m 11.126,31.197 c -0.310,-0.010 -0.645,-0.006 -1,0.009 -2.794,0.127 -6.773,0.933 -9.976,0.929 V 63.843 C 3.310,63.880 7.328,63.340 10.238,63.480 c 1.476,0.071 2.674,0.308 3.341,0.949 0.333,0.320 0.521,0.749 0.517,1.271 -0.003,0.521 -0.188,1.135 -0.574,1.869 -0.739,1.405 -0.584,2.399 -0.013,3.072 0.571,0.672 1.601,1.027 2.648,1.027 1.046,0 2.095,-0.354 2.705,-1.031 0.609,-0.676 0.815,-1.671 0.150,-3.074 -0.347,-0.732 -0.510,-1.342 -0.507,-1.857 0.002,-0.514 0.179,-0.935 0.494,-1.25 0.629,-0.628 1.754,-0.848 3.144,-0.908 2.736,-0.117 6.545,0.416 9.693,0.296 0.033,-3.155 -0.776,-7.300 -0.917,-10.287 -0.071,-1.515 0.012,-2.734 0.548,-3.406 0.268,-0.335 0.666,-0.515 1.160,-0.484 0.493,0.031 1.086,0.255 1.818,0.693 1.408,0.843 2.402,0.758 3.070,0.240 0.667,-0.518 1.021,-1.517 1.021,-2.564 10e-7,-1.046 -0.352,-2.125 -1.033,-2.789 -0.680,-0.663 -1.680,-0.940 -3.080,-0.378 -0.732,0.293 -1.323,0.418 -1.806,0.388 -0.483,-0.029 -0.859,-0.225 -1.117,-0.548 -0.514,-0.647 -0.582,-1.740 -0.496,-3.087 0.170,-2.658 0.980,-6.341 0.835,-9.482 -3.200,0.079 -7.057,-0.724 -9.810,-0.871 -1.398,-0.074 -2.501,0.039 -3.056,0.468 -0.277,0.214 -0.433,0.496 -0.455,0.914 -0.021,0.417 0.103,0.970 0.417,1.677 v 0.002 c 0.654,1.478 0.407,2.640 -0.302,3.402 -0.710,0.761 -1.849,1.126 -2.962,1.126 -1.113,0 -2.214,-0.365 -2.843,-1.134 -0.629,-0.769 -0.740,-1.934 0.080,-3.408 0.393,-0.708 0.580,-1.265 0.603,-1.687 0.022,-0.421 -0.103,-0.703 -0.357,-0.919 -0.380,-0.325 -1.095,-0.481 -2.027,-0.511 z" /> 
<path id="path46" d="m 79.664,57.279 c -1.046,0 -2.048,0.355 -2.570,1.023 -0.521,0.668 -0.611,1.662 0.224,3.070 0.432,0.731 0.657,1.327 0.695,1.824 0.037,0.497 -0.126,0.901 -0.447,1.179 -0.642,0.557 -1.823,0.665 -3.296,0.617 -2.900,-0.095 -6.954,-0.857 -10.107,-0.830 0.176,3.160 0.784,7.100 0.656,9.884 -0.065,1.416 -0.308,2.546 -0.968,3.126 -0.330,0.290 -0.765,0.423 -1.289,0.367 -0.523,-0.056 -1.135,-0.293 -1.867,-0.734 -1.408,-0.848 -2.404,-0.767 -3.072,-0.251 -0.667,0.515 -1.021,1.513 -1.021,2.560 0,1.046 0.354,2.127 1.035,2.792 0.681,0.665 1.680,0.947 3.080,0.390 0.735,-0.292 1.358,-0.402 1.888,-0.347 0.530,0.055 0.965,0.281 1.298,0.636 0.665,0.711 0.942,1.910 1.025,3.363 0.164,2.859 -0.447,6.731 -0.761,9.896 H 91 c 2.680,0 4.849,-2.169 4.849,-4.849 V 64.158 c -3.143,-0.101 -6.910,0.664 -9.650,0.779 -1.389,0.057 -2.522,-0.041 -3.195,-0.578 -0.336,-0.268 -0.543,-0.655 -0.580,-1.146 -0.036,-0.491 0.087,-1.087 0.386,-1.820 0.568,-1.400 0.298,-2.397 -0.361,-3.078 -0.659,-0.680 -1.738,-1.035 -2.785,-1.035 z" /> 
<path id="path44" d="m 40.978,63.527 c -2.690,0.014 -6.032,0.476 -8.822,0.613 -0.041,3.153 0.521,6.970 0.404,9.685 -0.059,1.376 -0.285,2.483 -0.921,3.083 -0.318,0.300 -0.741,0.457 -1.257,0.439 -0.516,-0.018 -1.127,-0.203 -1.859,-0.576 -1.404,-0.712 -2.398,-0.538 -3.072,0.046 -0.674,0.585 -1.029,1.623 -1.029,2.669 0,1.046 0.354,2.090 1.029,2.685 0.675,0.595 1.670,0.782 3.074,0.089 0.733,-0.360 1.348,-0.522 1.869,-0.505 0.520,0.017 0.947,0.222 1.263,0.570 0.633,0.695 0.862,1.912 0.925,3.402 0.124,2.936 -0.437,6.956 -0.425,10.117 h 31.710 c 0.314,-3.184 0.920,-7.070 0.759,-9.878 -0.081,-1.423 -0.368,-2.559 -0.945,-3.175 -0.288,-0.308 -0.644,-0.494 -1.109,-0.542 -0.465,-0.048 -1.041,0.047 -1.746,0.328 -1.480,0.588 -2.641,0.286 -3.400,-0.455 -0.758,-0.741 -1.125,-1.894 -1.125,-3.007 0,-1.113 0.364,-2.199 1.136,-2.796 0.772,-0.596 1.938,-0.655 3.410,0.230 0.708,0.426 1.286,0.643 1.744,0.693 0.457,0.049 0.792,-0.058 1.060,-0.294 0.537,-0.471 0.803,-1.526 0.867,-2.914 0.125,-2.736 -0.484,-6.699 -0.660,-9.890 -3.196,0.036 -7.127,-0.542 -9.837,-0.443 -1.374,0.050 -2.419,0.290 -2.880,0.802 -0.230,0.256 -0.333,0.577 -0.283,1.027 0.050,0.449 0.266,1.023 0.691,1.732 0.878,1.471 0.815,2.635 0.214,3.408 -0.600,0.772 -1.689,1.138 -2.802,1.138 -1.113,0 -2.265,-0.367 -3.003,-1.126 -0.738,-0.759 -1.031,-1.920 -0.435,-3.400 0.282,-0.704 0.377,-1.277 0.328,-1.736 -0.049,-0.459 -0.238,-0.806 -0.550,-1.087 -0.623,-0.561 -1.773,-0.833 -3.210,-0.908 -0.354,-0.018 -0.725,-0.025 -1.109,-0.023 z" /> 
<path id="rect37" d="M 9.103,63.757 C 6.376,63.767 2.948,64.176 0.150,64.144 V 91 C 0.150,93.680 2.319,95.849 5,95.849 h 26.855 c -0.011,-3.197 0.549,-7.220 0.427,-10.105 -0.061,-1.464 -0.312,-2.623 -0.849,-3.212 -0.268,-0.294 -0.600,-0.457 -1.050,-0.472 -0.450,-0.014 -1.020,0.129 -1.726,0.476 -1.476,0.727 -2.641,0.539 -3.406,-0.134 -0.764,-0.674 -1.130,-1.796 -1.130,-2.910 0,-1.113 0.367,-2.231 1.132,-2.896 0.765,-0.664 1.930,-0.835 3.406,-0.087 0.707,0.360 1.280,0.528 1.732,0.544 0.451,0.016 0.780,-0.112 1.042,-0.359 0.523,-0.494 0.768,-1.529 0.826,-2.878 0.114,-2.657 -0.444,-6.474 -0.404,-9.666 -3.193,0.122 -7.011,-0.414 -9.697,-0.298 -1.363,0.058 -2.421,0.299 -2.945,0.822 -0.261,0.261 -0.404,0.589 -0.406,1.039 -0.002,0.449 0.143,1.019 0.478,1.726 0.699,1.476 0.490,2.640 -0.197,3.404 -0.688,0.763 -1.816,1.130 -2.929,1.130 -1.113,0 -2.225,-0.365 -2.876,-1.132 -0.651,-0.767 -0.799,-1.933 -0.023,-3.408 0.371,-0.706 0.535,-1.278 0.539,-1.730 0.003,-0.451 -0.143,-0.783 -0.423,-1.052 C 12.813,64.108 11.674,63.851 10.224,63.781 9.867,63.764 9.493,63.756 9.103,63.757 Z" /> 
</g> 
<g inkscape:groupmode="layer" id="layer3" inkscape:label="dynamic" > 
<path id="p00" d="m -11,-15.849 c -2.680,0 -4.849,2.169 -4.849,4.849 v 26.835 c 3.151,0.004 7.122,-0.798 9.962,-0.927 1.441,-0.065 2.598,0.026 3.236,0.572 0.318,0.272 0.487,0.670 0.460,1.164 -0.026,0.493 -0.232,1.086 -0.638,1.818 -0.783,1.406 -0.659,2.401 -0.111,3.072 0.548,0.670 1.564,1.025 2.611,1.025 1.046,0 2.109,-0.354 2.742,-1.033 0.632,-0.678 0.868,-1.674 0.248,-3.076 -0.325,-0.732 -0.466,-1.327 -0.441,-1.816 0.025,-0.489 0.230,-0.874 0.570,-1.136 0.679,-0.524 1.836,-0.606 3.257,-0.531 2.796,0.148 6.639,0.948 9.781,0.871 -0.194,-3.145 -1.038,-6.876 -1.156,-9.578 -0.059,-1.374 0.057,-2.494 0.613,-3.150 0.278,-0.328 0.672,-0.523 1.169,-0.552 0.497,-0.028 1.097,0.100 1.830,0.404 1.400,0.581 2.398,0.318 3.078,-0.333 0.680,-0.652 1.035,-1.728 1.035,-2.775 0,-1.046 -0.354,-2.051 -1.023,-2.580 -0.668,-0.528 -1.662,-0.626 -3.070,0.197 -0.731,0.428 -1.327,0.647 -1.824,0.677 -0.496,0.030 -0.897,-0.143 -1.171,-0.472 -0.548,-0.658 -0.646,-1.857 -0.576,-3.347 0.137,-2.934 0.981,-7.017 1.097,-10.175 z" /> 
<path id="p10" d="m -15.865,-15.849 c -0.116,3.204 -0.965,7.297 -1.101,10.189 -0.068,1.466 0.068,2.613 0.507,3.140 0.219,0.263 0.499,0.393 0.921,0.367 0.422,-0.025 0.983,-0.222 1.691,-0.636 1.472,-0.861 2.636,-0.783 3.408,-0.173 0.771,0.609 1.136,1.701 1.136,2.814 0,1.113 -0.365,2.260 -1.125,2.990 -0.759,0.729 -1.922,1.010 -3.402,0.396 -0.707,-0.293 -1.267,-0.407 -1.697,-0.382 -0.430,0.024 -0.728,0.179 -0.957,0.449 -0.456,0.538 -0.603,1.594 -0.544,2.943 0.115,2.660 0.969,6.416 1.162,9.609 3.206,-0.087 7.244,0.603 10.160,0.630 1.477,0.013 2.658,-0.159 3.265,-0.636 0.303,-0.238 0.474,-0.542 0.501,-0.972 0.027,-0.429 -0.097,-0.989 -0.427,-1.695 -0.687,-1.477 -0.467,-2.641 0.226,-3.404 0.694,-0.763 1.826,-1.128 2.939,-1.128 1.113,0 2.222,0.365 2.867,1.132 0.645,0.767 0.782,1.933 -0.005,3.408 -0.377,0.708 -0.560,1.278 -0.589,1.722 -0.029,0.444 0.086,0.758 0.320,1.003 0.468,0.491 1.485,0.699 2.822,0.708 2.637,0.018 6.454,-0.676 9.648,-0.767 0.280,-3.190 1.049,-7.033 1.054,-9.755 0.002,-1.379 -0.202,-2.458 -0.707,-3.005 C 15.958,2.824 15.636,2.670 15.191,2.654 14.746,2.638 14.177,2.768 13.470,3.085 11.992,3.750 10.830,3.511 10.068,2.806 9.306,2.101 8.939,0.964 8.939,-0.148 c 0,-1.113 0.365,-2.215 1.134,-2.849 0.768,-0.633 1.934,-0.754 3.408,0.056 0.707,0.389 1.271,0.570 1.705,0.587 0.433,0.017 0.734,-0.117 0.970,-0.380 0.472,-0.526 0.649,-1.645 0.625,-3.080 -0.048,-2.827 -0.810,-6.836 -0.919,-10.035 z" /> 
<path id="p20" d="m -15.835,-15.849 c 0.108,3.157 0.868,7.156 0.917,10.031 0.025,1.459 -0.119,2.636 -0.701,3.285 -0.290,0.324 -0.700,0.498 -1.205,0.478 -0.504,-0.019 -1.105,-0.220 -1.837,-0.623 -1.406,-0.773 -2.401,-0.643 -3.072,-0.089 -0.671,0.553 -1.025,1.572 -1.025,2.619 0,1.046 0.353,2.107 1.031,2.734 0.677,0.627 1.674,0.857 3.076,0.226 0.733,-0.329 1.343,-0.475 1.855,-0.457 0.511,0.018 0.925,0.210 1.228,0.539 0.605,0.656 0.787,1.801 0.785,3.208 -0.005,2.771 -0.770,6.597 -1.050,9.755 3.200,-0.050 7.254,0.590 10.113,0.564 1.453,-0.013 2.585,-0.217 3.111,-0.707 0.262,-0.244 0.392,-0.550 0.365,-0.988 -0.026,-0.437 -0.222,-1.004 -0.634,-1.712 -0.856,-1.472 -0.773,-2.637 -0.162,-3.408 0.611,-0.771 1.705,-1.136 2.818,-1.136 1.113,0 2.259,0.364 2.986,1.125 0.727,0.760 1.003,1.923 0.384,3.402 -0.295,0.706 -0.410,1.282 -0.384,1.744 0.026,0.462 0.186,0.810 0.464,1.089 0.555,0.557 1.621,0.826 2.980,0.888 2.681,0.121 6.457,-0.527 9.640,-0.853 V -11 c 0,-2.680 -2.169,-4.849 -4.849,-4.849 z" /> 
<path id="p01" d="m -4.873,-16.802 c -0.310,-0.010 -0.645,-0.006 -1,0.009 -2.794,0.127 -6.773,0.933 -9.976,0.929 V 15.843 c 3.159,0.036 7.178,-0.503 10.087,-0.363 1.476,0.071 2.674,0.308 3.341,0.949 0.333,0.320 0.521,0.749 0.517,1.271 -0.003,0.521 -0.188,1.135 -0.574,1.869 -0.739,1.405 -0.584,2.399 -0.013,3.072 0.571,0.672 1.601,1.027 2.648,1.027 1.046,0 2.095,-0.354 2.705,-1.031 0.609,-0.676 0.815,-1.671 0.150,-3.074 -0.347,-0.732 -0.510,-1.342 -0.507,-1.857 0.002,-0.514 0.179,-0.935 0.494,-1.25 0.629,-0.628 1.754,-0.848 3.144,-0.908 2.736,-0.117 6.545,0.416 9.693,0.296 0.033,-3.155 -0.776,-7.300 -0.917,-10.287 -0.071,-1.515 0.012,-2.734 0.548,-3.406 0.268,-0.335 0.666,-0.515 1.160,-0.484 0.493,0.031 1.086,0.255 1.818,0.693 1.408,0.843 2.402,0.758 3.070,0.240 0.667,-0.518 1.021,-1.517 1.021,-2.564 1e-6,-1.046 -0.352,-2.125 -1.033,-2.789 -0.680,-0.663 -1.680,-0.940 -3.080,-0.378 -0.732,0.293 -1.323,0.418 -1.806,0.388 -0.483,-0.029 -0.859,-0.225 -1.117,-0.548 -0.514,-0.647 -0.582,-1.740 -0.496,-3.087 0.170,-2.658 0.980,-6.341 0.835,-9.482 -3.200,0.079 -7.057,-0.724 -9.810,-0.871 -1.398,-0.074 -2.501,0.039 -3.056,0.468 -0.277,0.214 -0.433,0.496 -0.455,0.914 -0.021,0.417 0.103,0.970 0.417,1.677 v 0.002 c 0.654,1.478 0.407,2.640 -0.302,3.402 -0.710,0.761 -1.849,1.126 -2.962,1.126 -1.113,0 -2.214,-0.365 -2.843,-1.134 -0.629,-0.769 -0.740,-1.934 0.080,-3.408 0.393,-0.708 0.580,-1.265 0.603,-1.687 0.022,-0.421 -0.103,-0.703 -0.357,-0.919 -0.380,-0.325 -1.095,-0.481 -2.027,-0.511 z" /> 
<path id="p11" d="m 0.800,-23.050 c -1.046,0 -2.100,0.354 -2.716,1.031 -0.615,0.676 -0.830,1.673 -0.177,3.076 0.342,0.733 0.489,1.337 0.457,1.841 -0.032,0.504 -0.255,0.905 -0.617,1.189 -0.722,0.568 -1.952,0.713 -3.453,0.699 -2.962,-0.027 -6.996,-0.715 -10.152,-0.628 0.141,3.196 -0.666,6.877 -0.833,9.482 -0.084,1.324 0.014,2.358 0.429,2.880 0.207,0.261 0.486,0.411 0.902,0.437 0.415,0.025 0.968,-0.085 1.675,-0.369 1.479,-0.593 2.641,-0.295 3.400,0.443 0.759,0.739 1.125,1.890 1.125,3.003 0,1.113 -0.366,2.203 -1.138,2.802 -0.772,0.599 -1.936,0.660 -3.408,-0.220 -0.708,-0.424 -1.266,-0.625 -1.683,-0.652 -0.417,-0.026 -0.691,0.104 -0.906,0.373 -0.429,0.537 -0.553,1.711 -0.482,3.205 0.139,2.942 0.950,7.086 0.917,10.296 3.163,-0.155 7.075,-0.740 9.964,-0.589 1.465,0.076 2.675,0.334 3.396,0.984 0.360,0.324 0.591,0.753 0.648,1.279 0.056,0.525 -0.054,1.145 -0.349,1.880 -0.563,1.400 -0.288,2.397 0.373,3.078 0.661,0.680 1.742,1.035 2.789,1.035 1.046,0 2.047,-0.353 2.566,-1.021 0.519,-0.667 0.603,-1.663 -0.236,-3.070 -0.437,-0.731 -0.674,-1.338 -0.732,-1.853 -0.058,-0.514 0.072,-0.943 0.359,-1.261 0.573,-0.637 1.692,-0.851 3.093,-0.902 2.757,-0.100 6.669,0.474 9.822,0.441 -0.180,-3.156 -0.922,-7.077 -0.933,-9.890 -0.005,-1.430 0.166,-2.583 0.767,-3.218 0.300,-0.317 0.715,-0.487 1.224,-0.470 0.509,0.016 1.115,0.207 1.847,0.595 1.405,0.746 2.399,0.596 3.072,0.029 0.672,-0.567 1.027,-1.595 1.027,-2.642 0,-1.046 -0.354,-2.097 -1.031,-2.710 -0.676,-0.613 -1.671,-0.825 -3.074,-0.167 -0.733,0.345 -1.344,0.501 -1.859,0.486 -0.514,-0.015 -0.931,-0.210 -1.238,-0.544 -0.612,-0.668 -0.806,-1.838 -0.814,-3.275 -0.014,-2.823 0.728,-6.709 1.009,-9.867 -3.148,0.095 -6.938,0.780 -9.619,0.761 -1.364,-0.009 -2.456,-0.189 -3.039,-0.800 -0.291,-0.305 -0.435,-0.721 -0.402,-1.230 0.033,-0.508 0.237,-1.114 0.626,-1.845 0.751,-1.405 0.603,-2.399 0.039,-3.072 -0.564,-0.672 -1.590,-1.027 -2.636,-1.027 z" /> 
<path id="p21" d="m -0.222,-23.230 c -1.046,0 -2.053,0.354 -2.583,1.023 -0.530,0.668 -0.633,1.664 0.185,3.072 0.425,0.731 0.644,1.334 0.675,1.843 0.031,0.509 -0.136,0.928 -0.458,1.228 -0.644,0.600 -1.834,0.773 -3.312,0.787 -2.917,0.026 -6.988,-0.621 -10.148,-0.566 -0.281,3.188 -1.026,7.095 -1.011,9.873 0.007,1.409 0.222,2.515 0.734,3.074 0.256,0.279 0.579,0.434 1.025,0.447 0.446,0.013 1.016,-0.126 1.722,-0.458 1.477,-0.692 2.641,-0.474 3.404,0.216 0.763,0.691 1.130,1.820 1.130,2.933 0,1.113 -0.367,2.223 -1.134,2.871 -0.767,0.647 -1.931,0.791 -3.406,0.007 -0.707,-0.374 -1.276,-0.548 -1.716,-0.562 -0.440,-0.014 -0.752,0.119 -0.998,0.378 -0.490,0.518 -0.689,1.608 -0.683,3.011 0.011,2.770 0.758,6.714 0.937,9.910 3.207,-0.031 7.279,0.737 10.140,0.832 1.450,0.047 2.578,-0.099 3.089,-0.542 0.255,-0.221 0.377,-0.505 0.345,-0.929 -0.032,-0.424 -0.234,-0.984 -0.654,-1.693 -0.873,-1.471 -0.806,-2.638 -0.203,-3.410 0.603,-0.771 1.693,-1.136 2.806,-1.136 1.113,0 2.264,0.365 3,1.125 0.735,0.759 1.026,1.920 0.425,3.400 -0.288,0.706 -0.398,1.263 -0.367,1.685 0.031,0.422 0.191,0.713 0.468,0.933 0.553,0.441 1.629,0.568 2.996,0.511 2.691,-0.112 6.463,-0.878 9.662,-0.777 v -31.691 c -3.159,0.325 -6.920,0.975 -9.654,0.851 -1.389,-0.063 -2.524,-0.318 -3.177,-0.974 -0.326,-0.327 -0.522,-0.759 -0.552,-1.285 -0.029,-0.525 0.099,-1.143 0.406,-1.876 0.586,-1.400 0.326,-2.400 -0.324,-3.080 -0.650,-0.679 -1.722,-1.033 -2.769,-1.033 z" /> 
<path id="p02" d="m -6.896,-16.242 c -2.727,0.010 -6.155,0.418 -8.953,0.386 V 11 c 0,2.680 2.169,4.849 4.849,4.849 H 15.855 C 15.843,12.652 16.405,8.628 16.283,5.744 16.221,4.280 15.970,3.120 15.433,2.531 15.165,2.236 14.832,2.073 14.382,2.058 13.932,2.043 13.362,2.188 12.656,2.535 11.180,3.262 10.014,3.074 9.25,2.400 8.485,1.725 8.119,0.603 8.119,-0.509 c 0,-1.113 0.367,-2.231 1.132,-2.896 0.765,-0.664 1.930,-0.835 3.406,-0.087 0.707,0.360 1.280,0.528 1.732,0.544 0.451,0.016 0.780,-0.112 1.042,-0.359 0.523,-0.494 0.768,-1.529 0.826,-2.878 0.114,-2.657 -0.444,-6.474 -0.404,-9.666 -3.193,0.122 -7.011,-0.414 -9.697,-0.298 -1.363,0.058 -2.421,0.299 -2.945,0.822 -0.261,0.261 -0.404,0.589 -0.406,1.039 -0.002,0.449 0.143,1.019 0.478,1.726 0.699,1.476 0.490,2.640 -0.197,3.404 -0.688,0.763 -1.816,1.130 -2.929,1.130 -1.113,0 -2.225,-0.365 -2.876,-1.132 -0.651,-0.767 -0.799,-1.933 -0.023,-3.408 0.371,-0.706 0.535,-1.278 0.539,-1.730 0.003,-0.451 -0.143,-0.783 -0.423,-1.052 -0.559,-0.538 -1.698,-0.795 -3.148,-0.865 -0.357,-0.017 -0.731,-0.024 -1.121,-0.023 z" /> 
<path id="p12" d="m -7.021,-16.472 c -2.690,0.014 -6.032,0.476 -8.822,0.613 -0.041,3.153 0.521,6.970 0.404,9.685 -0.059,1.376 -0.285,2.483 -0.921,3.083 -0.318,0.300 -0.741,0.457 -1.257,0.439 -0.516,-0.018 -1.127,-0.203 -1.859,-0.576 -1.404,-0.712 -2.398,-0.538 -3.072,0.046 -0.674,0.585 -1.029,1.623 -1.029,2.669 0,1.046 0.354,2.090 1.029,2.685 0.675,0.595 1.670,0.782 3.074,0.089 0.733,-0.360 1.348,-0.522 1.869,-0.505 0.520,0.017 0.947,0.222 1.263,0.570 0.633,0.695 0.862,1.912 0.925,3.402 0.124,2.936 -0.437,6.956 -0.425,10.117 H 15.867 C 16.181,12.665 16.788,8.779 16.626,5.970 16.545,4.547 16.258,3.411 15.681,2.794 15.393,2.486 15.037,2.300 14.572,2.251 14.107,2.203 13.531,2.299 12.826,2.580 11.346,3.168 10.184,2.866 9.425,2.124 c -0.758,-0.741 -1.125,-1.894 -1.125,-3.007 0,-1.113 0.364,-2.199 1.136,-2.796 0.772,-0.596 1.938,-0.655 3.410,0.230 0.708,0.426 1.286,0.643 1.744,0.693 0.457,0.049 0.792,-0.058 1.060,-0.294 0.537,-0.471 0.803,-1.526 0.867,-2.914 0.125,-2.736 -0.484,-6.699 -0.660,-9.890 -3.196,0.036 -7.127,-0.542 -9.837,-0.443 -1.374,0.050 -2.419,0.290 -2.880,0.802 -0.230,0.256 -0.333,0.577 -0.283,1.027 0.050,0.449 0.266,1.023 0.691,1.732 0.878,1.471 0.815,2.635 0.214,3.408 -0.600,0.772 -1.689,1.138 -2.802,1.138 -1.113,0 -2.265,-0.367 -3.003,-1.126 -0.738,-0.759 -1.031,-1.920 -0.435,-3.400 0.282,-0.704 0.377,-1.277 0.328,-1.736 -0.049,-0.459 -0.238,-0.806 -0.550,-1.087 -0.623,-0.561 -1.773,-0.833 -3.210,-0.908 -0.354,-0.018 -0.725,-0.025 -1.109,-0.023 z" /> 
<path id="p22" d="m -0.335,-22.720 c -1.046,0 -2.048,0.355 -2.570,1.023 -0.521,0.668 -0.611,1.662 0.224,3.070 0.432,0.731 0.657,1.327 0.695,1.824 0.037,0.497 -0.126,0.901 -0.447,1.179 -0.642,0.557 -1.823,0.665 -3.296,0.617 -2.900,-0.095 -6.954,-0.857 -10.107,-0.830 0.176,3.160 0.784,7.100 0.656,9.884 -0.065,1.416 -0.308,2.546 -0.968,3.126 -0.330,0.290 -0.765,0.423 -1.289,0.367 -0.523,-0.056 -1.135,-0.293 -1.867,-0.734 -1.408,-0.848 -2.404,-0.767 -3.072,-0.251 -0.667,0.515 -1.021,1.513 -1.021,2.560 0,1.046 0.354,2.127 1.035,2.792 0.681,0.665 1.680,0.947 3.080,0.390 0.735,-0.292 1.358,-0.402 1.888,-0.347 0.530,0.055 0.965,0.281 1.298,0.636 0.665,0.711 0.942,1.910 1.025,3.363 0.164,2.859 -0.447,6.731 -0.761,9.896 H 11 c 2.680,0 4.849,-2.169 4.849,-4.849 v -26.841 c -3.143,-0.101 -6.910,0.664 -9.650,0.779 -1.389,0.057 -2.522,-0.041 -3.195,-0.578 -0.336,-0.268 -0.543,-0.655 -0.580,-1.146 -0.036,-0.491 0.087,-1.087 0.386,-1.820 0.568,-1.400 0.298,-2.397 -0.361,-3.078 -0.659,-0.680 -1.738,-1.035 -2.785,-1.035 z" /> 
</g> 
<g inkscape:groupmode="layer" id="layer4" inkscape:label="template" > 
<rect id="rect956" width="32" height="32" x="-15.999" y="-16.000" /> 
<rect y="-24.000" x="-24" height="48" width="48" id="rect958" /> 
</g>
</svg>
