<?xml version="1.0" encoding="UTF-8" standalone="no"?>
<svg xmlns:dc="http://purl.org/dc/elements/1.1/" xmlns:cc="http://creativecommons.org/ns#" xmlns:rdf="http://www.w3.org/1999/02/22-rdf-syntax-ns#" xmlns:svg="http://www.w3.org/2000/svg" xmlns="http://www.w3.org/2000/svg" xmlns:sodipodi="http://sodipodi.sourceforge.net/DTD/sodipodi-0.dtd" xmlns:inkscape="http://www.inkscape.org/namespaces/inkscape" version="1.0" width="100%" height="100%" viewBox="0 0 96 96" id="svg8" sodipodi:docname="5x5b.svg" inkscape:version="0.92.3 (2405546, 2018-03-11)"> 
<metadata id="metadata14"> 
<rdf:RDF> 
<cc:Work rdf:about=""> 
<dc:format>image/svg+xml
</dc:format> 
<dc:type rdf:resource="http://purl.org/dc/dcmitype/StillImage" /> 
</cc:Work> 
</rdf:RDF> 
</metadata> 
<defs id="defs12" /> 
<sodipodi:namedview pagecolor="#ffffff" bordercolor="#666666" borderopacity="1" objecttolerance="10" gridtolerance="10" guidetolerance="10" inkscape:pageopacity="0" inkscape:pageshadow="2" inkscape:window-width="1366" inkscape:window-height="719" id="namedview10" showgrid="false" inkscape:zoom="6.160" inkscape:cx="14" inkscape:cy="79.5" inkscape:window-x="0" inkscape:window-y="25" inkscape:window-maximized="1" inkscape:current-layer="layer4" /> 
<g inkscape:groupmode="layer" id="layer1" inkscape:label="grid" > 
<path id="path6" d="m 0,19.2 c 3.84,0 9.57,2.04 8.08,-1.42 -1.49,-3.45 5.42,-3.45 3.46,0 -1.97,3.46 3.82,1.43 7.66,1.42 3.84,-0.01 9.76,1.33 7.92,-2.13 -1.84,-3.45 5.07,-3.45 3.45,0 -1.61,3.46 3.99,1.92 7.83,2.13 3.84,0.21 9.63,-1.34 7.67,2.12 -1.97,3.45 4.95,3.45 3.45,0 -1.49,-3.46 4.24,-1.89 8.08,-2.12 3.84,-0.23 9.57,1.82 7.9,-1.64 -1.68,-3.46 5.23,-3.46 3.45,0 -1.78,3.46 4.01,2.01 7.85,1.64 3.84,-0.37 10.11,1.58 8.24,-1.88 -1.88,-3.45 5.03,-3.45 3.45,0 -1.58,3.46 3.67,1.96 7.51,1.88 M 0,38.4 c 3.84,-0.23 9.54,2.12 7.5,-1.33 -2.03,-3.46 4.88,-3.46 3.46,0 -1.42,3.45 4.4,1.16 8.24,1.33 3.84,0.17 9.29,-1.92 7.61,1.54 -1.68,3.45 5.23,3.45 3.45,0 -1.77,-3.46 4.3,-1.77 8.14,-1.54 3.84,0.23 10.03,-1.34 8.13,2.12 -1.9,3.46 5.02,3.46 3.46,0 -1.56,-3.46 3.77,-2.45 7.61,-2.12 3.84,0.33 9.39,1.78 7.57,-1.68 -1.81,-3.45 5.1,-3.45 3.46,0 -1.64,3.46 4.33,1.9 8.17,1.68 3.84,-0.22 9.35,1.34 7.59,-2.12 -1.75,-3.45 5.16,-3.45 3.46,0 -1.7,3.46 4.31,2.18 8.15,2.12 M 0,57.6 c 3.84,0.01 9.52,-1.61 7.63,1.85 -1.88,3.46 5.03,3.46 3.46,0 -1.57,-3.46 4.27,-2.05 8.11,-1.85 3.84,0.2 10.24,2.12 8.16,-1.34 -2.09,-3.46 4.82,-3.46 3.45,0 -1.37,3.46 3.75,1.59 7.59,1.34 3.84,-0.25 9.62,-1.69 8.02,1.76 -1.59,3.46 5.32,3.46 3.46,0 -1.86,-3.45 3.88,-1.99 7.72,-1.76 3.84,0.23 9.27,-1.66 7.8,1.8 -1.47,3.46 5.44,3.46 3.46,0 -1.99,-3.46 4.1,-1.47 7.94,-1.8 3.84,-0.33 10.18,-1.58 8.12,1.88 -2.06,3.46 4.85,3.46 3.45,0 C 86.98,56.02 92.16,57.72 96,57.6 M 0,76.8 c 3.84,0.05 9.11,1.36 7.67,-2.09 -1.43,-3.46 5.48,-3.46 3.46,0 -2.02,3.45 4.23,2.17 8.07,2.09 3.84,-0.08 9.13,1.4 7.77,-2.06 -1.35,-3.46 5.56,-3.46 3.46,0 -2.1,3.46 4.13,2.17 7.97,2.06 3.84,-0.11 9.71,-1.6 8,1.86 -1.72,3.45 5.19,3.45 3.45,0 -1.74,-3.46 3.91,-1.86 7.75,-1.86 3.84,0 9.74,-1.87 8.21,1.58 -1.53,3.46 5.39,3.46 3.46,0 -1.93,-3.45 3.69,-1.82 7.53,-1.58 3.84,0.24 9.52,-2.03 7.8,1.42 -1.72,3.46 5.19,3.46 3.45,0 C 86.32,74.77 92.16,76.51 96,76.8 M 19.2,0 c 0.38,3.84 1.38,9.12 -2.07,7.71 -3.46,-1.42 -3.46,5.5 0,3.45 3.45,-2.04 2.42,4.2 2.07,8.04 -0.35,3.84 1.71,9.74 -1.74,7.96 -3.46,-1.79 -3.46,5.12 0,3.45 3.45,-1.67 1.82,3.95 1.74,7.79 -0.08,3.84 1.72,9.55 -1.74,7.63 -3.45,-1.91 -3.45,5 0,3.46 3.46,-1.54 1.67,4.27 1.74,8.11 0.07,3.84 -2.07,9.87 1.39,7.98 3.46,-1.9 3.46,5.01 0,3.45 -3.46,-1.56 -1.74,3.93 -1.39,7.77 0.35,3.84 1.92,9.73 -1.53,7.78 -3.46,-1.96 -3.46,4.95 0,3.45 3.45,-1.5 1.89,4.13 1.53,7.97 M 38.4,0 c 0.34,3.84 1.47,9.75 -1.98,7.78 -3.46,-1.97 -3.46,4.94 0,3.45 3.45,-1.48 1.68,4.13 1.98,7.97 0.3,3.84 1.69,10.02 -1.77,7.91 -3.45,-2.1 -3.45,4.81 0,3.46 3.46,-1.35 1.96,3.99 1.77,7.83 -0.19,3.84 -1.4,9.8 2.05,8.16 3.46,-1.63 3.46,5.28 0,3.46 -3.45,-1.82 -2.22,3.74 -2.05,7.58 0.17,3.84 -1.79,9.2 1.66,7.76 3.46,-1.44 3.46,5.48 0,3.46 -3.45,-2.02 -1.51,4.14 -1.66,7.98 -0.15,3.84 -1.84,9.63 1.61,7.61 3.46,-2.01 3.46,4.9 0,3.46 C 36.56,86.43 38.37,92.16 38.4,96 M 57.6,0 c -0.35,3.84 -1.64,9.3 1.82,7.84 3.45,-1.46 3.45,5.45 0,3.45 -3.46,-1.99 -2.02,4.07 -1.82,7.91 0.2,3.84 2.01,10.02 -1.44,8.07 -3.46,-1.95 -3.46,4.96 0,3.45 3.45,-1.5 1.58,3.84 1.44,7.68 -0.14,3.84 -2.04,9.09 1.42,7.5 3.46,-1.6 3.46,5.31 0,3.45 -3.46,-1.86 -1.53,4.41 -1.42,8.25 0.11,3.84 1.74,9.13 -1.72,7.56 -3.45,-1.57 -3.45,5.34 0,3.45 3.46,-1.88 1.37,4.35 1.72,8.19 0.35,3.84 2.05,9.73 -1.4,8.13 -3.46,-1.6 -3.46,5.31 0,3.45 3.45,-1.85 1.08,3.78 1.4,7.62 M 76.8,0 c -0.23,3.84 1.48,9.63 -1.97,8.17 -3.46,-1.47 -3.46,5.45 0,3.46 3.45,-2 2.22,3.73 1.97,7.57 -0.25,3.84 1.41,9.95 -2.05,8.22 -3.45,-1.72 -3.45,5.19 0,3.46 3.46,-1.73 1.65,3.68 2.05,7.52 0.4,3.84 -1.81,9.05 1.65,7.69 3.46,-1.36 3.46,5.55 0,3.45 -3.46,-2.09 -1.63,4.22 -1.65,8.06 -0.02,3.84 1.84,9.65 -1.62,7.76 -3.45,-1.89 -3.45,5.02 0,3.46 3.46,-1.57 1.42,4.14 1.62,7.98 0.2,3.84 -1.51,9.8 1.95,8.17 3.45,-1.62 3.45,5.29 0,3.46 C 75.29,86.6 76.41,92.16 76.8,96 M 5,0 h 86 a 5,5 0 0 1 5,5 v 86 a 5,5 0 0 1 -5,5 H 5 A 5,5 0 0 1 0,91 V 5 A 5,5 0 0 1 5,0" /> 
</g> 
<g inkscape:groupmode="layer" id="layer2" inkscape:label="pieces" > 
<path id="path895" d="M 5,0.150 C 2.319,0.150 0.150,2.319 0.150,5 v 14.064 c 1.919,0.024 4.233,0.497 5.894,0.572 0.851,0.038 1.521,-0.045 1.849,-0.294 0.163,-0.124 0.254,-0.280 0.273,-0.519 0.018,-0.239 -0.046,-0.563 -0.226,-0.982 -0.389,-0.901 -0.229,-1.631 0.216,-2.103 0.446,-0.472 1.146,-0.693 1.828,-0.693 0.681,0 1.356,0.219 1.746,0.701 0.389,0.481 0.446,1.213 -0.062,2.109 -0.239,0.421 -0.355,0.753 -0.375,0.994 -0.019,0.240 0.041,0.385 0.171,0.503 0.260,0.236 0.888,0.326 1.716,0.289 1.618,-0.073 3.953,-0.548 5.875,-0.576 0.178,-1.910 0.506,-4.356 0.380,-6.078 -0.063,-0.877 -0.255,-1.554 -0.583,-1.861 -0.164,-0.153 -0.356,-0.228 -0.623,-0.212 -0.266,0.015 -0.607,0.129 -1.025,0.376 -0.896,0.531 -1.630,0.494 -2.115,0.115 -0.484,-0.378 -0.707,-1.050 -0.707,-1.732 0,-0.681 0.223,-1.386 0.695,-1.841 0.472,-0.455 1.202,-0.631 2.107,-0.259 0.417,0.170 0.757,0.235 1.029,0.220 0.271,-0.015 0.476,-0.105 0.644,-0.261 0.336,-0.311 0.524,-0.923 0.589,-1.718 0.128,-1.554 -0.197,-3.763 -0.390,-5.660 z" /> 
<path id="path893" d="M 19.361,0.150 C 19.553,2.029 19.882,4.226 19.75,5.835 19.681,6.664 19.498,7.348 19.064,7.75 c -0.217,0.200 -0.497,0.321 -0.830,0.339 -0.332,0.018 -0.714,-0.058 -1.160,-0.240 h -0.002 c -0.825,-0.338 -1.392,-0.181 -1.785,0.197 -0.392,0.378 -0.601,1.010 -0.601,1.625 0,0.614 0.209,1.198 0.589,1.496 0.380,0.297 0.944,0.356 1.777,-0.136 0.444,-0.262 0.826,-0.398 1.162,-0.417 0.336,-0.019 0.626,0.088 0.845,0.292 0.437,0.409 0.613,1.151 0.679,2.058 0.128,1.769 -0.202,4.196 -0.380,6.091 1.911,0.011 4.263,0.317 5.921,0.222 0.851,-0.048 1.506,-0.215 1.810,-0.523 0.151,-0.153 0.230,-0.337 0.224,-0.597 -0.005,-0.260 -0.105,-0.598 -0.328,-1.017 -0.478,-0.896 -0.396,-1.628 0.007,-2.107 0.403,-0.478 1.084,-0.701 1.765,-0.701 0.680,0 1.374,0.222 1.804,0.697 0.430,0.474 0.561,1.203 0.138,2.103 -0.195,0.419 -0.273,0.753 -0.267,1.009 0.005,0.256 0.087,0.434 0.240,0.582 0.305,0.294 0.943,0.442 1.769,0.478 1.610,0.070 3.894,-0.230 5.808,-0.148 -0.122,-1.918 0.210,-4.202 0.185,-5.832 -0.012,-0.836 -0.135,-1.491 -0.412,-1.814 -0.138,-0.161 -0.308,-0.250 -0.556,-0.267 -0.247,-0.016 -0.576,0.047 -0.994,0.226 -0.903,0.389 -1.634,0.231 -2.107,-0.214 -0.473,-0.446 -0.695,-1.147 -0.695,-1.828 0,-0.680 0.220,-1.356 0.703,-1.744 0.482,-0.387 1.217,-0.440 2.115,0.070 0.418,0.239 0.759,0.351 1.025,0.369 0.265,0.017 0.454,-0.052 0.613,-0.195 0.316,-0.285 0.496,-0.925 0.548,-1.765 0.102,-1.643 -0.246,-4.002 -0.421,-5.908 z" /> 
<path id="path891" d="M 38.560,0.150 C 38.735,2.037 39.085,4.383 38.980,6.078 38.926,6.948 38.764,7.658 38.333,8.046 38.118,8.241 37.831,8.339 37.5,8.318 37.168,8.296 36.789,8.163 36.345,7.910 35.513,7.436 34.950,7.507 34.568,7.814 c -0.382,0.307 -0.593,0.895 -0.593,1.509 0,0.614 0.209,1.240 0.601,1.609 0.391,0.368 0.958,0.514 1.785,0.158 0.444,-0.190 0.815,-0.273 1.132,-0.251 0.316,0.021 0.576,0.156 0.761,0.373 0.370,0.432 0.473,1.143 0.486,2.003 0.025,1.680 -0.310,3.962 -0.189,5.830 1.873,0.081 4.195,-0.226 5.863,-0.156 0.854,0.036 1.548,0.161 1.931,0.564 0.191,0.201 0.285,0.478 0.261,0.800 -0.024,0.322 -0.156,0.694 -0.408,1.138 -0.473,0.829 -0.403,1.390 -0.095,1.771 0.307,0.381 0.898,0.591 1.513,0.591 0.614,10e-7 1.241,-0.209 1.609,-0.599 0.368,-0.390 0.512,-0.955 0.154,-1.779 -0.192,-0.446 -0.274,-0.821 -0.25,-1.144 0.024,-0.322 0.160,-0.590 0.380,-0.785 0.439,-0.389 1.165,-0.515 2.041,-0.550 1.706,-0.067 4.013,0.237 5.884,0.148 -0.111,-1.883 -0.498,-4.264 -0.451,-5.992 0.024,-0.886 0.148,-1.609 0.552,-2.013 0.202,-0.202 0.482,-0.308 0.808,-0.289 0.326,0.019 0.699,0.152 1.144,0.408 h 0.002 c 0.830,0.481 1.391,0.414 1.771,0.111 0.380,-0.303 0.589,-0.889 0.589,-1.503 0,-0.614 -0.208,-1.242 -0.599,-1.615 C 60.866,7.779 60.301,7.630 59.478,7.978 59.032,8.166 58.653,8.249 58.326,8.230 57.998,8.211 57.724,8.085 57.519,7.876 57.110,7.460 56.965,6.760 56.931,5.914 56.866,4.268 57.255,2.028 57.437,0.150 Z" /> 
<path id="path889" d="m 57.738,0.150 c -0.181,1.902 -0.571,4.157 -0.507,5.751 0.032,0.816 0.192,1.446 0.503,1.763 0.155,0.158 0.344,0.248 0.607,0.263 0.263,0.015 0.600,-0.051 1.019,-0.228 0.901,-0.381 1.631,-0.215 2.103,0.234 0.471,0.449 0.693,1.151 0.693,1.832 0,0.680 -0.221,1.353 -0.703,1.738 -0.482,0.384 -1.214,0.432 -2.109,-0.085 -0.420,-0.241 -0.757,-0.353 -1.013,-0.369 -0.256,-0.015 -0.431,0.055 -0.578,0.201 -0.292,0.292 -0.443,0.951 -0.466,1.810 -0.045,1.682 0.342,4.082 0.453,5.998 1.923,-0.086 4.240,0.331 5.880,0.380 0.840,0.025 1.492,-0.067 1.792,-0.314 0.150,-0.123 0.230,-0.275 0.234,-0.515 0.003,-0.239 -0.080,-0.566 -0.283,-0.986 -0.437,-0.901 -0.319,-1.634 0.103,-2.111 0.423,-0.476 1.112,-0.699 1.792,-0.699 0.680,0 1.366,0.222 1.777,0.701 0.411,0.478 0.507,1.213 0.044,2.113 -0.215,0.419 -0.310,0.754 -0.314,1.011 -0.004,0.256 0.071,0.434 0.220,0.580 0.297,0.291 0.941,0.433 1.779,0.445 1.640,0.022 3.978,-0.408 5.888,-0.601 0.132,-1.909 0.483,-4.233 0.394,-5.832 -0.045,-0.816 -0.215,-1.425 -0.521,-1.689 -0.152,-0.131 -0.337,-0.194 -0.601,-0.169 -0.263,0.024 -0.605,0.143 -1.025,0.386 -0.897,0.516 -1.630,0.466 -2.113,0.080 -0.483,-0.386 -0.705,-1.062 -0.705,-1.744 0,-0.682 0.222,-1.384 0.695,-1.833 0.472,-0.449 1.203,-0.614 2.107,-0.230 0.416,0.176 0.745,0.237 0.994,0.214 0.248,-0.022 0.420,-0.121 0.562,-0.292 0.283,-0.343 0.411,-1.022 0.427,-1.882 0.031,-1.675 -0.305,-4.001 -0.216,-5.919 z" /> 
<path id="path887" d="m 76.955,0.150 c -0.089,1.872 0.248,4.198 0.216,5.925 -0.016,0.884 -0.123,1.617 -0.496,2.068 -0.186,0.225 -0.446,0.371 -0.765,0.400 -0.319,0.029 -0.693,-0.047 -1.138,-0.236 -0.826,-0.350 -1.393,-0.202 -1.785,0.169 -0.392,0.372 -0.601,1.001 -0.601,1.617 0,0.615 0.209,1.204 0.591,1.509 0.381,0.305 0.946,0.371 1.777,-0.105 0.443,-0.256 0.820,-0.395 1.148,-0.425 0.328,-0.030 0.611,0.058 0.824,0.242 0.426,0.368 0.577,1.054 0.625,1.900 0.091,1.649 -0.259,3.956 -0.392,5.839 1.928,-0.152 4.360,0.204 6.103,0.212 0.896,0.004 1.601,-0.104 1.925,-0.365 0.162,-0.130 0.242,-0.285 0.242,-0.525 -1.7e-5,-0.239 -0.096,-0.567 -0.322,-0.986 -0.488,-0.896 -0.414,-1.629 -0.015,-2.109 0.398,-0.479 1.078,-0.701 1.759,-0.701 0.680,0 1.375,0.221 1.810,0.695 0.435,0.473 0.576,1.205 0.164,2.105 -0.191,0.420 -0.275,0.756 -0.275,1.015 -1.39e-4,0.258 0.074,0.436 0.212,0.582 0.277,0.290 0.869,0.433 1.652,0.457 1.526,0.045 3.727,-0.320 5.632,-0.376 V 5 C 95.849,2.319 93.680,0.150 91,0.150 Z" /> 
<path id="path885" d="m 28.761,14.632 c -0.614,0 -1.213,0.210 -1.537,0.593 -0.323,0.383 -0.414,0.945 0.027,1.773 0.236,0.445 0.355,0.821 0.363,1.150 0.007,0.328 -0.106,0.609 -0.310,0.816 -0.408,0.414 -1.127,0.561 -2.005,0.611 -1.712,0.097 -4.061,-0.211 -5.941,-0.222 -0.141,1.866 0.245,4.215 0.285,5.927 0.020,0.876 -0.040,1.594 -0.388,2.019 -0.174,0.212 -0.432,0.335 -0.744,0.333 -0.311,-0.001 -0.675,-0.114 -1.119,-0.343 -0.830,-0.429 -1.393,-0.330 -1.779,0 -0.385,0.330 -0.595,0.932 -0.595,1.546 0,0.614 0.209,1.226 0.597,1.572 0.388,0.345 0.952,0.462 1.781,0.062 0.444,-0.214 0.815,-0.317 1.134,-0.316 0.319,0.001 0.587,0.118 0.779,0.322 0.383,0.407 0.489,1.105 0.496,1.957 0.013,1.656 -0.384,3.928 -0.443,5.800 1.861,0.053 4.094,-0.383 5.707,-0.451 0.827,-0.034 1.502,0.014 1.900,0.363 0.198,0.174 0.309,0.431 0.304,0.740 -0.004,0.308 -0.112,0.671 -0.328,1.115 -0.402,0.826 -0.287,1.388 0.056,1.775 0.344,0.386 0.956,0.595 1.570,0.595 0.614,0 1.217,-0.208 1.548,-0.593 0.331,-0.384 0.432,-0.948 0.005,-1.775 -0.228,-0.445 -0.336,-0.817 -0.332,-1.138 0.004,-0.320 0.134,-0.588 0.353,-0.775 0.438,-0.374 1.179,-0.466 2.080,-0.457 1.759,0.018 4.151,0.471 6.035,0.599 0.109,-1.902 0.502,-4.120 0.470,-5.695 -0.016,-0.808 -0.155,-1.436 -0.451,-1.755 -0.147,-0.159 -0.330,-0.251 -0.587,-0.273 -0.257,-0.021 -0.593,0.033 -1.011,0.197 -0.901,0.352 -1.630,0.163 -2.099,-0.298 -0.469,-0.463 -0.691,-1.170 -0.691,-1.851 0,-0.681 0.220,-1.350 0.705,-1.722 0.484,-0.372 1.215,-0.397 2.109,0.146 h 0.002 c 0.420,0.256 0.757,0.379 1.015,0.402 0.257,0.022 0.433,-0.044 0.580,-0.187 0.293,-0.285 0.447,-0.947 0.470,-1.814 0.045,-1.693 -0.354,-4.117 -0.513,-6.029 -1.873,-0.083 -4.158,0.223 -5.826,0.150 -0.852,-0.037 -1.553,-0.166 -1.964,-0.562 -0.205,-0.198 -0.326,-0.468 -0.333,-0.791 -0.007,-0.322 0.089,-0.698 0.296,-1.144 0.387,-0.825 0.262,-1.387 -0.089,-1.775 -0.352,-0.388 -0.967,-0.597 -1.582,-0.597 z" /> 
<path id="path883" d="m 86.652,14.882 c -0.614,0 -1.210,0.208 -1.529,0.591 -0.318,0.382 -0.402,0.944 0.048,1.773 0.240,0.445 0.359,0.814 0.359,1.130 2.2e-5,0.316 -0.132,0.580 -0.355,0.759 -0.445,0.358 -1.197,0.434 -2.115,0.429 -1.794,-0.008 -4.235,-0.368 -6.107,-0.214 -0.099,1.875 0.224,4.276 0.175,6.048 -0.024,0.907 -0.136,1.656 -0.519,2.101 -0.191,0.222 -0.460,0.357 -0.783,0.367 -0.322,0.010 -0.696,-0.093 -1.142,-0.316 -0.826,-0.412 -1.389,-0.302 -1.775,0.037 -0.386,0.339 -0.595,0.947 -0.595,1.562 0,0.614 0.209,1.222 0.595,1.560 0.385,0.337 0.948,0.445 1.775,0.031 0.444,-0.222 0.811,-0.336 1.126,-0.347 0.314,-0.011 0.579,0.090 0.769,0.281 0.380,0.381 0.476,1.048 0.492,1.869 0.029,1.603 -0.289,3.840 -0.121,5.705 1.911,-0.085 4.171,0.217 5.738,0.150 0.805,-0.034 1.414,-0.181 1.689,-0.468 0.137,-0.143 0.206,-0.317 0.197,-0.574 -0.009,-0.256 -0.106,-0.593 -0.320,-1.013 -0.455,-0.898 -0.352,-1.630 0.062,-2.107 0.414,-0.476 1.101,-0.697 1.783,-0.697 0.681,0 1.370,0.221 1.791,0.697 0.420,0.475 0.534,1.206 0.091,2.105 -0.205,0.418 -0.287,0.756 -0.279,1.017 0.008,0.261 0.096,0.448 0.263,0.607 0.333,0.317 1.015,0.487 1.886,0.539 1.700,0.100 4.081,-0.210 5.994,-0.253 V 19.359 c -1.869,0.056 -4.059,0.425 -5.640,0.378 C 89.397,19.714 88.729,19.586 88.347,19.187 c -0.191,-0.199 -0.297,-0.469 -0.296,-0.791 1.73e-4,-0.321 0.099,-0.693 0.302,-1.138 0.377,-0.824 0.245,-1.388 -0.111,-1.777 -0.357,-0.388 -0.975,-0.597 -1.589,-0.597 z" /> 
<path id="path881" d="m 67.261,15.115 c -0.614,0 -1.223,0.209 -1.568,0.597 -0.344,0.388 -0.460,0.952 -0.058,1.781 0.214,0.445 0.317,0.811 0.312,1.123 -0.004,0.311 -0.129,0.567 -0.341,0.742 -0.423,0.348 -1.131,0.406 -1.994,0.380 -1.680,-0.050 -3.979,-0.462 -5.843,-0.380 0.116,1.880 0.585,4.286 0.630,6.042 0.023,0.902 -0.050,1.639 -0.416,2.066 -0.182,0.213 -0.450,0.333 -0.767,0.322 -0.317,-0.011 -0.685,-0.139 -1.128,-0.390 -0.831,-0.468 -1.394,-0.395 -1.777,-0.085 -0.382,0.309 -0.593,0.901 -0.593,1.515 0,0.614 0.210,1.237 0.601,1.603 0.391,0.366 0.956,0.509 1.783,0.148 0.443,-0.193 0.810,-0.280 1.123,-0.269 0.312,0.011 0.570,0.131 0.75,0.335 0.359,0.408 0.431,1.087 0.404,1.914 -0.053,1.613 -0.523,3.832 -0.611,5.703 1.902,0.175 4.169,0.593 5.738,0.566 0.805,-0.014 1.411,-0.157 1.681,-0.445 0.134,-0.143 0.202,-0.321 0.189,-0.580 -0.013,-0.258 -0.116,-0.597 -0.337,-1.017 -0.470,-0.897 -0.380,-1.629 0.027,-2.107 0.407,-0.478 1.090,-0.699 1.771,-0.699 0.681,0 1.374,0.222 1.802,0.697 0.428,0.474 0.554,1.206 0.126,2.105 -0.198,0.418 -0.275,0.749 -0.263,1.001 0.012,0.252 0.104,0.427 0.271,0.572 0.334,0.289 1.018,0.422 1.888,0.429 1.702,0.014 4.077,-0.404 5.992,-0.527 -0.169,-1.917 0.147,-4.157 0.119,-5.707 -0.014,-0.795 -0.140,-1.397 -0.406,-1.664 -0.133,-0.133 -0.297,-0.200 -0.546,-0.191 -0.249,0.009 -0.583,0.104 -1.003,0.314 -0.898,0.450 -1.628,0.343 -2.105,-0.074 -0.476,-0.417 -0.699,-1.103 -0.699,-1.785 0,-0.681 0.222,-1.370 0.699,-1.789 0.476,-0.418 1.207,-0.527 2.105,-0.080 0.418,0.209 0.750,0.293 1,0.285 0.249,-0.007 0.420,-0.094 0.564,-0.261 0.287,-0.334 0.423,-1.030 0.447,-1.914 0.046,-1.717 -0.269,-4.108 -0.171,-6.029 -1.883,0.192 -4.202,0.625 -5.890,0.601 -0.866,-0.012 -1.576,-0.132 -1.984,-0.531 -0.203,-0.199 -0.317,-0.474 -0.312,-0.798 0.005,-0.324 0.118,-0.699 0.347,-1.144 0.426,-0.829 0.327,-1.395 -0.003,-1.781 -0.331,-0.386 -0.936,-0.595 -1.550,-0.595 z" /> 
<path id="path879" d="m 9.986,15.341 c -0.614,0 -1.240,0.211 -1.609,0.601 -0.369,0.390 -0.515,0.953 -0.160,1.777 0.192,0.446 0.274,0.813 0.25,1.125 -0.024,0.311 -0.166,0.563 -0.390,0.734 C 7.628,19.921 6.906,19.976 6.031,19.937 4.325,19.860 2.020,19.389 0.150,19.365 v 18.898 c 1.924,-0.080 4.230,0.406 5.816,0.529 0.814,0.062 1.429,-1.08e-4 1.664,-0.205 0.117,-0.102 0.168,-0.228 0.140,-0.460 C 7.743,37.894 7.620,37.567 7.371,37.146 6.844,36.249 6.884,35.515 7.265,35.031 c 0.380,-0.484 1.054,-0.707 1.736,-0.707 0.681,0 1.385,0.223 1.839,0.695 0.454,0.472 0.629,1.202 0.257,2.107 -0.171,0.417 -0.227,0.736 -0.201,0.966 0.026,0.229 0.120,0.374 0.292,0.490 0.344,0.231 1.037,0.289 1.906,0.230 1.695,-0.115 4.035,-0.606 5.962,-0.550 0.055,-1.914 0.456,-4.211 0.443,-5.824 -0.006,-0.824 -0.135,-1.457 -0.414,-1.753 -0.139,-0.148 -0.310,-0.227 -0.562,-0.228 -0.251,-0.001 -0.583,0.084 -1.001,0.287 -0.901,0.435 -1.634,0.316 -2.111,-0.107 -0.476,-0.424 -0.699,-1.115 -0.699,-1.796 0,-0.680 0.222,-1.365 0.701,-1.775 0.479,-0.409 1.213,-0.502 2.113,-0.037 0.418,0.216 0.744,0.307 0.982,0.308 0.237,0.001 0.386,-0.074 0.509,-0.224 0.246,-0.300 0.340,-0.964 0.320,-1.820 -0.038,-1.661 -0.422,-4.004 -0.283,-5.927 -1.871,0.027 -4.196,0.502 -5.861,0.578 -0.852,0.038 -1.540,-0.011 -1.931,-0.367 -0.195,-0.177 -0.295,-0.441 -0.269,-0.751 0.025,-0.310 0.161,-0.673 0.414,-1.117 0.471,-0.829 0.398,-1.390 0.089,-1.771 -0.308,-0.381 -0.898,-0.591 -1.513,-0.591 z" /> 
<path id="path877" d="m 44.404,19.191 c -1.609,-0.068 -3.927,0.234 -5.841,0.154 0.158,1.888 0.558,4.301 0.511,6.044 -0.024,0.894 -0.150,1.622 -0.560,2.021 -0.204,0.199 -0.487,0.299 -0.814,0.271 -0.327,-0.028 -0.701,-0.174 -1.146,-0.445 -0.831,-0.506 -1.393,-0.454 -1.771,-0.164 -0.378,0.290 -0.587,0.869 -0.587,1.484 0,0.614 0.208,1.251 0.601,1.638 0.392,0.387 0.959,0.554 1.781,0.232 0.446,-0.174 0.822,-0.245 1.144,-0.218 0.321,0.027 0.588,0.160 0.783,0.371 0.390,0.422 0.512,1.115 0.529,1.953 0.033,1.628 -0.360,3.839 -0.468,5.710 1.876,0.089 4.290,-0.214 6.058,-0.146 0.907,0.034 1.651,0.156 2.080,0.550 0.214,0.197 0.335,0.471 0.330,0.796 -0.005,0.324 -0.126,0.699 -0.371,1.144 -0.456,0.831 -0.375,1.395 -0.058,1.779 0.316,0.383 0.913,0.593 1.529,0.593 0.615,0 1.236,-0.209 1.597,-0.599 0.360,-0.390 0.495,-0.956 0.123,-1.783 C 49.652,40.136 49.558,39.753 49.562,39.419 c 0.004,-0.333 0.113,-0.616 0.306,-0.835 0.386,-0.438 1.063,-0.624 1.888,-0.695 1.608,-0.137 3.824,0.183 5.707,0.351 0.090,-1.908 0.559,-4.128 0.611,-5.687 0.026,-0.800 -0.071,-1.415 -0.328,-1.707 -0.128,-0.145 -0.289,-0.225 -0.535,-0.234 -0.245,-0.008 -0.573,0.064 -0.992,0.246 -0.903,0.394 -1.635,0.238 -2.109,-0.205 -0.473,-0.443 -0.697,-1.141 -0.697,-1.822 0,-0.680 0.222,-1.357 0.705,-1.748 0.482,-0.390 1.217,-0.449 2.115,0.056 0.418,0.236 0.748,0.342 0.992,0.351 0.243,0.008 0.397,-0.065 0.527,-0.216 0.259,-0.303 0.368,-0.984 0.345,-1.863 -0.044,-1.717 -0.518,-4.144 -0.634,-6.064 -1.918,0.093 -4.237,-0.212 -5.898,-0.146 -0.850,0.033 -1.517,0.177 -1.853,0.474 -0.167,0.148 -0.262,0.327 -0.281,0.582 -0.019,0.254 0.046,0.585 0.226,1.003 0.391,0.901 0.232,1.631 -0.212,2.103 -0.445,0.472 -1.144,0.693 -1.826,0.693 -0.681,0 -1.357,-0.219 -1.746,-0.701 -0.388,-0.481 -0.444,-1.214 0.066,-2.109 0.238,-0.420 0.351,-0.757 0.371,-1.013 0.019,-0.255 -0.045,-0.427 -0.181,-0.570 -0.271,-0.285 -0.896,-0.435 -1.724,-0.470 z" /> 
<path id="path875" d="m 86.101,33.841 c -0.614,0 -1.221,0.210 -1.556,0.595 -0.335,0.385 -0.440,0.948 -0.021,1.775 0.226,0.444 0.342,0.815 0.353,1.136 0.011,0.321 -0.089,0.594 -0.281,0.794 -0.382,0.400 -1.062,0.524 -1.894,0.560 -1.627,0.069 -3.889,-0.239 -5.761,-0.152 0.161,1.915 -0.245,4.103 -0.312,5.648 -0.034,0.795 0.042,1.410 0.279,1.707 0.118,0.148 0.268,0.232 0.505,0.25 0.237,0.017 0.562,-0.042 0.982,-0.207 0.905,-0.355 1.636,-0.168 2.107,0.292 0.471,0.461 0.693,1.166 0.693,1.847 2e-6,0.680 -0.221,1.350 -0.707,1.722 -0.485,0.371 -1.219,0.397 -2.115,-0.146 -0.420,-0.254 -0.754,-0.371 -0.998,-0.388 -0.244,-0.017 -0.397,0.049 -0.527,0.197 -0.259,0.294 -0.374,0.980 -0.363,1.867 0.021,1.726 0.440,4.172 0.453,6.095 1.894,-0.170 4.349,-0.548 6.140,-0.470 0.917,0.039 1.668,0.186 2.087,0.605 0.209,0.209 0.322,0.494 0.304,0.826 -0.018,0.332 -0.156,0.710 -0.421,1.156 -0.496,0.833 -0.438,1.397 -0.142,1.777 0.295,0.380 0.878,0.591 1.492,0.591 0.614,0 1.244,-0.210 1.625,-0.603 0.380,-0.393 0.540,-0.959 0.207,-1.785 v -0.002 c -0.178,-0.445 -0.256,-0.816 -0.238,-1.132 0.017,-0.316 0.140,-0.577 0.341,-0.767 0.403,-0.379 1.072,-0.486 1.886,-0.498 1.586,-0.022 3.764,0.340 5.628,0.304 V 38.556 c -1.883,0.043 -4.259,0.357 -6.011,0.253 -0.898,-0.053 -1.638,-0.208 -2.074,-0.623 -0.217,-0.207 -0.349,-0.485 -0.359,-0.816 -0.010,-0.330 0.091,-0.711 0.310,-1.158 0.407,-0.826 0.294,-1.386 -0.046,-1.773 -0.341,-0.386 -0.951,-0.597 -1.566,-0.597 z" /> 
<path id="path873" d="m 66.835,34.283 c -0.614,0 -1.217,0.209 -1.544,0.593 -0.327,0.384 -0.422,0.945 0.011,1.773 0.233,0.444 0.354,0.817 0.371,1.140 0.016,0.323 -0.080,0.598 -0.269,0.800 -0.378,0.403 -1.059,0.524 -1.894,0.539 -1.628,0.028 -3.896,-0.395 -5.777,-0.568 -0.091,1.906 -0.565,4.104 -0.623,5.628 -0.029,0.783 0.067,1.375 0.318,1.644 0.125,0.134 0.284,0.206 0.531,0.205 0.246,-9.84e-4 0.577,-0.084 0.998,-0.277 0.902,-0.417 1.633,-0.282 2.109,0.150 0.475,0.432 0.699,1.127 0.699,1.808 0,0.680 -0.222,1.362 -0.703,1.763 -0.480,0.401 -1.214,0.479 -2.113,-0.003 -0.419,-0.225 -0.748,-0.321 -0.988,-0.320 -0.239,8.09e-4 -0.392,0.082 -0.519,0.244 -0.255,0.324 -0.351,1.029 -0.320,1.925 0.061,1.748 0.538,4.190 0.613,6.113 1.868,0.089 4.113,-0.295 5.755,-0.306 0.838,-0.005 1.529,0.077 1.949,0.439 0.209,0.181 0.338,0.438 0.355,0.751 0.017,0.313 -0.068,0.683 -0.257,1.128 -0.350,0.826 -0.201,1.391 0.169,1.783 0.371,0.391 0.998,0.603 1.613,0.603 0.614,0 1.203,-0.211 1.509,-0.593 0.305,-0.382 0.376,-0.944 -0.099,-1.777 -0.255,-0.444 -0.389,-0.809 -0.408,-1.123 -0.018,-0.313 0.093,-0.579 0.300,-0.759 0.414,-0.360 1.135,-0.428 2.023,-0.416 1.732,0.023 4.123,0.401 5.992,0.269 -0.012,-1.878 -0.430,-4.322 -0.453,-6.097 -0.011,-0.909 0.066,-1.647 0.437,-2.068 0.185,-0.210 0.455,-0.323 0.773,-0.300 0.318,0.022 0.686,0.165 1.130,0.433 0.833,0.506 1.397,0.454 1.777,0.164 0.379,-0.290 0.589,-0.870 0.589,-1.484 0,-0.614 -0.209,-1.248 -0.603,-1.634 -0.393,-0.385 -0.962,-0.550 -1.787,-0.226 -0.445,0.174 -0.808,0.248 -1.113,0.226 -0.305,-0.022 -0.551,-0.152 -0.718,-0.361 -0.334,-0.417 -0.379,-1.089 -0.343,-1.906 0.069,-1.592 0.474,-3.772 0.314,-5.626 -1.880,0.123 -4.238,0.542 -5.984,0.527 -0.896,-0.007 -1.638,-0.119 -2.082,-0.503 -0.221,-0.192 -0.357,-0.459 -0.373,-0.783 -0.015,-0.323 0.079,-0.700 0.291,-1.146 0.392,-0.825 0.271,-1.389 -0.078,-1.777 -0.349,-0.387 -0.965,-0.595 -1.580,-0.595 z" /> 
<path id="path871" d="m 9.001,34.625 c -0.614,0 -1.200,0.210 -1.5,0.591 -0.299,0.380 -0.361,0.944 0.126,1.777 0.260,0.441 0.405,0.795 0.441,1.095 0.035,0.300 -0.052,0.558 -0.242,0.724 C 7.447,39.146 6.778,39.156 5.943,39.091 4.312,38.965 2.013,38.481 0.150,38.562 v 18.876 c 1.873,-0.014 4.168,-0.385 5.816,-0.357 0.845,0.014 1.532,0.122 1.916,0.515 0.191,0.196 0.289,0.469 0.269,0.789 -0.020,0.320 -0.147,0.690 -0.390,1.134 -0.451,0.831 -0.367,1.395 -0.048,1.779 0.318,0.384 0.916,0.593 1.531,0.593 0.614,0 1.235,-0.209 1.593,-0.599 0.358,-0.390 0.490,-0.955 0.115,-1.783 -0.202,-0.446 -0.292,-0.825 -0.273,-1.152 0.018,-0.326 0.155,-0.597 0.375,-0.796 0.438,-0.398 1.171,-0.532 2.056,-0.560 1.729,-0.054 4.067,0.328 5.951,0.439 -0.010,-1.916 0.382,-4.244 0.388,-5.914 0.003,-0.857 -0.111,-1.533 -0.384,-1.865 -0.136,-0.165 -0.304,-0.256 -0.550,-0.273 -0.246,-0.016 -0.575,0.051 -0.994,0.238 -0.900,0.402 -1.630,0.252 -2.103,-0.187 -0.472,-0.440 -0.695,-1.136 -0.695,-1.818 0,-0.681 0.220,-1.360 0.701,-1.755 0.480,-0.395 1.213,-0.462 2.109,0.033 0.421,0.233 0.753,0.345 1.001,0.363 0.248,0.017 0.407,-0.047 0.537,-0.179 0.259,-0.264 0.378,-0.885 0.375,-1.707 -0.007,-1.596 -0.399,-3.898 -0.384,-5.812 -1.867,-0.056 -4.205,0.433 -5.945,0.552 -0.889,0.060 -1.624,0.033 -2.091,-0.281 -0.233,-0.157 -0.390,-0.401 -0.425,-0.707 -0.035,-0.305 0.039,-0.668 0.222,-1.113 h -0.002 C 11.159,36.188 11.003,35.621 10.625,35.228 10.246,34.835 9.616,34.625 9.001,34.625 Z" /> 
<path id="path869" d="m 32.224,37.935 c -0.875,-0.009 -1.560,0.111 -1.882,0.386 -0.160,0.137 -0.244,0.302 -0.248,0.550 -0.003,0.247 0.084,0.578 0.298,0.998 0.463,0.897 0.368,1.629 -0.042,2.107 -0.411,0.477 -1.096,0.699 -1.777,0.699 -0.680,0 -1.369,-0.221 -1.792,-0.697 C 26.356,41.504 26.238,40.773 26.675,39.875 c 0.204,-0.420 0.293,-0.749 0.296,-0.990 0.003,-0.240 -0.065,-0.388 -0.201,-0.507 -0.271,-0.238 -0.884,-0.324 -1.689,-0.291 -1.563,0.065 -3.807,0.504 -5.722,0.451 -0.018,1.873 0.381,4.183 0.388,5.837 0.003,0.846 -0.082,1.532 -0.460,1.917 -0.189,0.192 -0.457,0.290 -0.773,0.267 -0.315,-0.022 -0.683,-0.152 -1.126,-0.398 -0.828,-0.458 -1.389,-0.379 -1.771,-0.064 -0.382,0.314 -0.591,0.908 -0.591,1.523 -10e-7,0.614 0.208,1.237 0.597,1.599 0.389,0.362 0.952,0.500 1.777,0.132 0.446,-0.198 0.818,-0.285 1.136,-0.263 0.317,0.021 0.578,0.160 0.761,0.382 0.366,0.444 0.458,1.172 0.455,2.054 -0.006,1.726 -0.409,4.065 -0.394,5.941 1.922,0.118 4.394,0.613 6.148,0.683 0.898,0.035 1.597,-0.060 1.900,-0.310 0.151,-0.124 0.223,-0.273 0.208,-0.513 -0.014,-0.240 -0.131,-0.569 -0.384,-0.990 h 0.002 c -0.541,-0.896 -0.513,-1.629 -0.140,-2.115 0.373,-0.485 1.041,-0.707 1.722,-0.707 0.680,0 1.387,0.222 1.847,0.693 0.460,0.471 0.645,1.200 0.287,2.105 -0.166,0.419 -0.229,0.750 -0.214,0.998 0.014,0.247 0.097,0.410 0.242,0.539 0.289,0.256 0.887,0.352 1.667,0.320 1.520,-0.063 3.693,-0.558 5.597,-0.701 -0.094,-1.882 -0.426,-4.158 -0.324,-5.792 0.052,-0.836 0.208,-1.516 0.632,-1.892 0.212,-0.187 0.492,-0.285 0.820,-0.269 0.327,0.016 0.704,0.137 1.148,0.371 0.830,0.436 1.393,0.344 1.779,0.017 0.385,-0.326 0.595,-0.928 0.595,-1.542 0,-0.614 -0.210,-1.229 -0.599,-1.580 -0.389,-0.350 -0.953,-0.476 -1.781,-0.085 -0.445,0.211 -0.825,0.308 -1.156,0.292 -0.331,-0.015 -0.610,-0.148 -0.818,-0.367 -0.416,-0.438 -0.575,-1.181 -0.628,-2.078 -0.104,-1.751 0.228,-4.121 0.332,-6.009 -1.915,-0.129 -4.309,-0.579 -6.017,-0.597 z" /> 
<path id="path867" d="m 53.050,38.162 c -0.454,-0.013 -0.881,-0.007 -1.267,0.025 -0.792,0.067 -1.394,0.258 -1.689,0.593 -0.147,0.167 -0.228,0.370 -0.232,0.642 -0.003,0.272 0.076,0.615 0.265,1.035 0.407,0.902 0.262,1.634 -0.175,2.109 -0.438,0.474 -1.136,0.697 -1.818,0.697 -0.682,0 -1.362,-0.221 -1.759,-0.703 -0.397,-0.481 -0.468,-1.216 0.025,-2.115 0.230,-0.419 0.331,-0.753 0.335,-1.005 0.004,-0.252 -0.075,-0.424 -0.234,-0.570 -0.317,-0.291 -1.005,-0.438 -1.888,-0.472 -1.722,-0.066 -4.144,0.239 -6.068,0.146 -0.104,1.910 -0.435,4.282 -0.333,5.980 0.051,0.868 0.225,1.550 0.546,1.888 0.160,0.169 0.352,0.261 0.615,0.273 0.262,0.011 0.596,-0.065 1.013,-0.263 h 0.002 c 0.901,-0.424 1.633,-0.296 2.109,0.132 0.475,0.429 0.699,1.123 0.699,1.804 1e-6,0.681 -0.221,1.365 -0.701,1.771 -0.479,0.406 -1.213,0.492 -2.113,0.019 -0.418,-0.221 -0.759,-0.322 -1.023,-0.335 -0.264,-0.013 -0.452,0.055 -0.607,0.193 -0.310,0.274 -0.482,0.881 -0.533,1.687 -0.097,1.570 0.227,3.839 0.324,5.742 1.882,-0.135 4.202,-0.535 5.912,-0.496 0.876,0.020 1.599,0.146 2.029,0.541 0.214,0.197 0.345,0.468 0.359,0.792 0.013,0.324 -0.079,0.700 -0.285,1.144 v 0.002 c -0.379,0.826 -0.250,1.391 0.105,1.781 0.356,0.389 0.975,0.599 1.589,0.599 0.614,0 1.211,-0.209 1.533,-0.593 0.321,-0.384 0.409,-0.948 -0.037,-1.779 -0.239,-0.443 -0.361,-0.817 -0.376,-1.140 -0.015,-0.323 0.087,-0.598 0.283,-0.798 0.391,-0.401 1.089,-0.523 1.945,-0.542 1.660,-0.037 3.955,0.358 5.832,0.486 -0.076,-1.878 -0.546,-4.304 -0.609,-6.093 -0.032,-0.919 0.030,-1.672 0.382,-2.121 0.176,-0.224 0.439,-0.356 0.755,-0.357 0.316,-0.001 0.685,0.116 1.130,0.355 0.830,0.446 1.392,0.358 1.777,0.037 0.384,-0.321 0.595,-0.919 0.595,-1.533 0,-0.614 -0.209,-1.231 -0.599,-1.585 -0.389,-0.354 -0.955,-0.482 -1.783,-0.099 -0.444,0.204 -0.809,0.303 -1.121,0.304 -0.311,0.001 -0.570,-0.106 -0.751,-0.300 -0.361,-0.388 -0.428,-1.051 -0.398,-1.861 0.059,-1.579 0.534,-3.772 0.623,-5.640 -1.420,-0.127 -3.020,-0.336 -4.382,-0.376 z" /> 
<path id="path865" d="m 28.814,53.814 c -0.614,0 -1.194,0.210 -1.486,0.589 -0.291,0.379 -0.343,0.943 0.160,1.777 v 0.002 c 0.267,0.444 0.406,0.810 0.425,1.126 0.018,0.316 -0.100,0.583 -0.316,0.761 -0.432,0.357 -1.181,0.417 -2.103,0.380 -1.801,-0.071 -4.275,-0.572 -6.160,-0.687 0.005,1.922 -0.470,4.298 -0.560,5.980 -0.046,0.864 0.033,1.536 0.267,1.830 0.117,0.146 0.258,0.218 0.494,0.210 0.235,-0.007 0.561,-0.108 0.982,-0.337 0.898,-0.493 1.632,-0.423 2.113,-0.027 0.481,0.396 0.705,1.074 0.705,1.755 0,0.680 -0.222,1.376 -0.697,1.814 -0.474,0.437 -1.206,0.580 -2.109,0.173 -0.419,-0.189 -0.752,-0.265 -1.001,-0.257 -0.249,0.007 -0.418,0.089 -0.552,0.238 -0.268,0.298 -0.379,0.925 -0.359,1.740 0.039,1.593 0.531,3.859 0.718,5.769 1.910,-0.022 4.128,0.300 5.695,0.230 0.802,-0.035 1.421,-0.183 1.736,-0.484 0.157,-0.150 0.249,-0.336 0.269,-0.595 0.019,-0.259 -0.040,-0.592 -0.205,-1.011 -0.353,-0.905 -0.164,-1.634 0.298,-2.105 0.462,-0.470 1.170,-0.695 1.851,-0.695 0.681,0 1.352,0.223 1.724,0.708 0.372,0.485 0.397,1.219 -0.146,2.115 -0.255,0.420 -0.376,0.758 -0.396,1.019 -0.020,0.260 0.048,0.442 0.195,0.595 0.294,0.307 0.964,0.478 1.837,0.525 1.703,0.092 4.131,-0.232 6.044,-0.300 0.050,-1.875 -0.363,-4.292 -0.398,-6.042 -0.017,-0.895 0.049,-1.621 0.410,-2.039 0.180,-0.208 0.447,-0.320 0.761,-0.300 0.313,0.019 0.679,0.157 1.121,0.416 h 0.002 c 0.831,0.484 1.396,0.420 1.777,0.119 0.381,-0.301 0.591,-0.888 0.591,-1.503 0,-0.615 -0.210,-1.244 -0.603,-1.621 -0.392,-0.376 -0.959,-0.531 -1.785,-0.187 -0.444,0.185 -0.810,0.268 -1.121,0.25 -0.310,-0.018 -0.565,-0.146 -0.742,-0.355 -0.353,-0.418 -0.423,-1.103 -0.404,-1.935 0.036,-1.617 0.441,-3.825 0.388,-5.685 -1.861,0.142 -4.012,0.633 -5.580,0.699 -0.808,0.033 -1.473,-0.036 -1.878,-0.394 -0.202,-0.179 -0.325,-0.434 -0.343,-0.746 -0.018,-0.311 0.058,-0.679 0.234,-1.125 0.326,-0.824 0.161,-1.393 -0.222,-1.787 -0.384,-0.393 -1.018,-0.603 -1.632,-0.603 z" /> 
<path id="path863" d="m 44.447,57.242 c -1.660,-0.038 -3.994,0.360 -5.906,0.496 0.058,1.917 -0.354,4.148 -0.390,5.724 -0.018,0.807 0.079,1.432 0.333,1.734 0.127,0.150 0.286,0.235 0.529,0.25 0.243,0.014 0.569,-0.051 0.988,-0.226 0.904,-0.376 1.634,-0.204 2.107,0.248 0.472,0.453 0.695,1.155 0.695,1.837 -10e-7,0.682 -0.221,1.357 -0.705,1.740 -0.483,0.382 -1.218,0.426 -2.115,-0.097 -0.419,-0.245 -0.749,-0.359 -0.990,-0.375 -0.240,-0.015 -0.388,0.054 -0.513,0.199 -0.250,0.289 -0.355,0.963 -0.337,1.835 0.033,1.698 0.443,4.107 0.396,6.031 1.881,-0.068 4.226,-0.444 5.945,-0.398 0.880,0.023 1.605,0.147 2.029,0.542 0.211,0.197 0.336,0.470 0.341,0.794 0.004,0.324 -0.099,0.700 -0.320,1.146 -0.412,0.826 -0.303,1.389 0.035,1.775 0.339,0.386 0.948,0.595 1.562,0.595 0.614,0 1.220,-0.209 1.556,-0.595 0.336,-0.385 0.444,-0.946 0.027,-1.773 v -0.002 C 49.493,78.281 49.380,77.910 49.375,77.589 c -0.005,-0.320 0.106,-0.591 0.306,-0.787 0.400,-0.390 1.096,-0.503 1.947,-0.519 1.661,-0.032 3.954,0.341 5.830,0.359 -0.141,-1.929 0.252,-4.352 0.296,-6.085 0.022,-0.890 -0.067,-1.591 -0.314,-1.908 -0.123,-0.158 -0.271,-0.236 -0.507,-0.234 -0.236,0.001 -0.562,0.099 -0.982,0.328 -0.896,0.490 -1.627,0.419 -2.107,0.021 -0.479,-0.397 -0.701,-1.077 -0.701,-1.757 0,-0.680 0.221,-1.377 0.695,-1.814 0.473,-0.436 1.203,-0.577 2.103,-0.167 0.420,0.190 0.755,0.271 1.009,0.269 0.254,-0.001 0.427,-0.076 0.566,-0.216 0.277,-0.280 0.406,-0.878 0.412,-1.667 0.010,-1.541 -0.397,-3.760 -0.468,-5.669 -1.911,-0.126 -4.237,-0.524 -5.855,-0.488 -0.827,0.018 -1.455,0.163 -1.736,0.451 -0.140,0.144 -0.211,0.319 -0.199,0.576 0.011,0.256 0.115,0.592 0.341,1.011 0.483,0.899 0.405,1.632 0.003,2.113 -0.401,0.480 -1.082,0.703 -1.763,0.703 -0.681,0 -1.376,-0.222 -1.810,-0.697 -0.434,-0.475 -0.572,-1.208 -0.158,-2.111 0.193,-0.417 0.270,-0.751 0.259,-1.007 -0.010,-0.256 -0.099,-0.435 -0.261,-0.583 -0.323,-0.297 -0.985,-0.443 -1.833,-0.462 z" /> 
<path id="path861" d="m 83.066,57.269 c -1.737,-0.075 -4.194,0.296 -6.105,0.468 0.010,1.874 0.438,4.206 0.468,5.888 0.015,0.860 -0.060,1.558 -0.429,1.958 -0.184,0.200 -0.450,0.307 -0.765,0.291 -0.315,-0.016 -0.682,-0.142 -1.126,-0.384 -0.828,-0.453 -1.388,-0.372 -1.771,-0.054 -0.382,0.317 -0.593,0.914 -0.593,1.529 0,0.614 0.210,1.235 0.599,1.595 0.388,0.359 0.951,0.492 1.775,0.121 0.445,-0.202 0.813,-0.294 1.125,-0.279 0.311,0.015 0.567,0.149 0.740,0.367 0.346,0.434 0.407,1.146 0.380,2.013 -0.051,1.689 -0.472,3.988 -0.404,5.853 1.861,0.084 4.153,-0.377 5.816,-0.482 0.853,-0.053 1.547,-0.025 1.964,0.302 0.208,0.164 0.328,0.415 0.326,0.720 -0.002,0.304 -0.111,0.664 -0.332,1.107 -0.412,0.829 -0.302,1.393 0.037,1.781 0.339,0.387 0.946,0.595 1.560,0.595 0.614,10e-7 1.221,-0.208 1.558,-0.595 0.336,-0.386 0.442,-0.951 0.025,-1.781 -0.222,-0.444 -0.329,-0.813 -0.328,-1.130 0.001,-0.317 0.124,-0.583 0.335,-0.767 0.423,-0.369 1.140,-0.451 2.015,-0.431 1.703,0.039 4.031,0.517 5.910,0.675 V 57.742 c -1.908,0.036 -4.090,-0.326 -5.623,-0.304 -0.787,0.011 -1.390,0.137 -1.687,0.416 -0.148,0.139 -0.233,0.313 -0.248,0.566 -0.014,0.253 0.050,0.584 0.218,1.003 0.366,0.904 0.187,1.635 -0.269,2.107 -0.456,0.471 -1.160,0.693 -1.841,0.693 -0.680,0 -1.353,-0.222 -1.730,-0.707 -0.376,-0.484 -0.410,-1.218 0.123,-2.115 0.249,-0.419 0.364,-0.757 0.378,-1.017 0.014,-0.260 -0.059,-0.442 -0.214,-0.597 -0.310,-0.309 -0.998,-0.478 -1.888,-0.517 z" /> 
<path id="path859" d="m 13.121,57.302 c -0.858,0.027 -1.530,0.176 -1.865,0.480 -0.167,0.151 -0.260,0.335 -0.275,0.593 -0.014,0.257 0.056,0.593 0.246,1.011 0.409,0.902 0.268,1.634 -0.167,2.109 -0.436,0.474 -1.132,0.697 -1.814,0.697 C 8.562,62.195 7.881,61.973 7.482,61.492 7.083,61.011 7.009,60.277 7.498,59.378 7.727,58.958 7.837,58.620 7.853,58.367 7.869,58.113 7.802,57.944 7.667,57.806 7.398,57.530 6.779,57.394 5.960,57.380 4.365,57.353 2.063,57.725 0.150,57.740 v 18.917 c 1.903,0.039 4.108,0.353 5.656,0.259 0.794,-0.047 1.402,-0.211 1.705,-0.523 0.151,-0.155 0.237,-0.346 0.25,-0.609 C 7.774,75.522 7.705,75.185 7.531,74.767 7.157,73.863 7.329,73.132 7.783,72.660 8.236,72.187 8.939,71.964 9.621,71.964 c 0.681,0 1.354,0.221 1.736,0.705 0.381,0.483 0.426,1.218 -0.097,2.115 -0.245,0.418 -0.357,0.756 -0.371,1.015 -0.013,0.259 0.062,0.442 0.216,0.597 0.308,0.309 0.989,0.481 1.871,0.531 1.716,0.097 4.141,-0.217 6.054,-0.271 -0.186,-1.875 -0.674,-4.122 -0.714,-5.763 -0.020,-0.842 0.064,-1.536 0.435,-1.949 0.185,-0.206 0.448,-0.326 0.765,-0.335 0.316,-0.009 0.689,0.082 1.134,0.283 0.827,0.372 1.392,0.238 1.783,-0.121 0.390,-0.359 0.599,-0.979 0.599,-1.593 0,-0.614 -0.210,-1.209 -0.593,-1.525 -0.383,-0.316 -0.947,-0.397 -1.779,0.058 -0.444,0.242 -0.807,0.367 -1.117,0.376 -0.310,0.009 -0.568,-0.111 -0.738,-0.324 -0.339,-0.425 -0.379,-1.146 -0.332,-2.033 0.092,-1.734 0.572,-4.118 0.562,-5.992 C 17.128,57.625 14.793,57.249 13.121,57.302 Z" /> 
<path id="path857" d="m 63.492,57.439 c -1.582,0.010 -3.817,0.385 -5.730,0.300 0.071,1.871 0.477,4.076 0.466,5.669 -0.005,0.817 -0.111,1.487 -0.498,1.876 -0.193,0.194 -0.459,0.304 -0.777,0.306 -0.318,0.002 -0.689,-0.094 -1.134,-0.296 -0.824,-0.375 -1.388,-0.243 -1.777,0.115 -0.388,0.358 -0.597,0.979 -0.597,1.593 0,0.614 0.209,1.208 0.591,1.525 0.382,0.317 0.944,0.401 1.773,-0.052 0.444,-0.241 0.809,-0.360 1.123,-0.363 0.313,-0.002 0.573,0.128 0.746,0.349 0.345,0.442 0.402,1.188 0.378,2.099 -0.045,1.778 -0.438,4.203 -0.298,6.072 1.872,-0.022 4.215,-0.454 5.957,-0.490 0.893,-0.018 1.634,0.057 2.089,0.412 0.227,0.177 0.373,0.436 0.398,0.751 0.025,0.315 -0.058,0.685 -0.255,1.130 -0.365,0.826 -0.226,1.392 0.138,1.783 0.364,0.390 0.988,0.599 1.603,0.599 0.615,0 1.210,-0.210 1.523,-0.593 0.313,-0.383 0.389,-0.945 -0.074,-1.777 -0.247,-0.442 -0.380,-0.811 -0.406,-1.128 -0.026,-0.317 0.064,-0.590 0.251,-0.785 0.374,-0.389 1.050,-0.485 1.886,-0.482 1.630,0.006 3.913,0.447 5.791,0.580 -0.068,-1.918 0.350,-4.218 0.400,-5.859 0.025,-0.844 -0.064,-1.504 -0.314,-1.818 -0.125,-0.157 -0.281,-0.242 -0.521,-0.253 -0.239,-0.011 -0.564,0.061 -0.984,0.251 -0.900,0.407 -1.632,0.262 -2.105,-0.175 -0.473,-0.437 -0.693,-1.133 -0.693,-1.814 0,-0.681 0.221,-1.361 0.701,-1.759 0.479,-0.397 1.211,-0.469 2.107,0.021 0.420,0.229 0.752,0.334 0.998,0.347 0.245,0.012 0.401,-0.054 0.529,-0.193 0.255,-0.277 0.366,-0.916 0.351,-1.751 -0.028,-1.631 -0.457,-3.967 -0.468,-5.886 -1.929,0.136 -4.329,-0.244 -6.019,-0.267 -0.866,-0.011 -1.534,0.091 -1.822,0.341 -0.143,0.125 -0.213,0.274 -0.199,0.515 0.014,0.240 0.127,0.571 0.369,0.992 0.513,0.897 0.461,1.630 0.074,2.113 -0.386,0.482 -1.062,0.705 -1.744,0.705 -0.681,0 -1.381,-0.222 -1.830,-0.695 -0.448,-0.473 -0.612,-1.203 -0.228,-2.107 0.178,-0.419 0.245,-0.748 0.232,-0.994 -0.013,-0.246 -0.097,-0.411 -0.25,-0.542 -0.305,-0.263 -0.937,-0.370 -1.751,-0.365 z" /> 
<path id="path855" d="m 9.621,72.265 c -0.614,0 -1.244,0.208 -1.621,0.601 -0.376,0.392 -0.532,0.959 -0.191,1.785 0.185,0.444 0.267,0.821 0.251,1.146 -0.015,0.325 -0.133,0.598 -0.333,0.804 C 7.326,77.015 6.647,77.167 5.824,77.216 4.220,77.313 2.022,76.996 0.150,76.957 V 91 C 0.150,93.680 2.319,95.849 5,95.849 h 14.066 c 0.189,-1.907 0.642,-4.204 0.646,-5.837 0.001,-0.836 -0.124,-1.487 -0.410,-1.810 -0.142,-0.161 -0.317,-0.251 -0.570,-0.267 -0.252,-0.015 -0.584,0.052 -1.001,0.234 -0.903,0.391 -1.635,0.233 -2.109,-0.210 -0.473,-0.444 -0.695,-1.143 -0.695,-1.824 0,-0.680 0.220,-1.356 0.703,-1.746 0.482,-0.389 1.217,-0.446 2.115,0.062 0.419,0.236 0.753,0.347 1.005,0.363 0.252,0.015 0.419,-0.051 0.556,-0.191 0.274,-0.279 0.406,-0.919 0.404,-1.759 -0.004,-1.641 -0.459,-3.995 -0.644,-5.906 -1.889,0.051 -4.330,0.373 -6.107,0.273 -0.908,-0.051 -1.650,-0.201 -2.066,-0.619 C 10.684,76.400 10.573,76.115 10.589,75.785 10.606,75.454 10.740,75.078 11,74.634 c 0.486,-0.832 0.423,-1.396 0.123,-1.777 -0.300,-0.381 -0.887,-0.591 -1.501,-0.591 z" /> 
<path id="path853" d="m 28.980,72.294 c -0.614,0 -1.249,0.209 -1.636,0.603 -0.387,0.394 -0.556,0.962 -0.234,1.787 0.175,0.446 0.248,0.822 0.224,1.144 -0.024,0.322 -0.153,0.590 -0.361,0.789 -0.414,0.396 -1.101,0.531 -1.931,0.568 -1.613,0.071 -3.807,-0.250 -5.673,-0.232 0.184,1.881 0.637,4.217 0.642,5.906 0.002,0.868 -0.098,1.574 -0.488,1.970 -0.195,0.198 -0.470,0.301 -0.791,0.281 -0.320,-0.020 -0.691,-0.151 -1.134,-0.402 -0.832,-0.471 -1.394,-0.400 -1.777,-0.091 -0.382,0.308 -0.593,0.899 -0.593,1.513 0,0.614 0.210,1.237 0.601,1.605 0.391,0.367 0.956,0.512 1.783,0.154 0.445,-0.193 0.819,-0.277 1.140,-0.257 0.320,0.020 0.586,0.153 0.777,0.369 0.381,0.431 0.488,1.145 0.486,2.009 -0.003,1.680 -0.457,3.957 -0.646,5.835 H 38.238 C 38.202,93.976 37.774,91.669 37.75,89.957 37.737,89.078 37.821,88.349 38.181,87.898 38.361,87.673 38.619,87.529 38.935,87.5 c 0.316,-0.029 0.687,0.046 1.132,0.232 0.825,0.343 1.390,0.188 1.783,-0.187 0.392,-0.375 0.603,-1.004 0.603,-1.619 0,-0.614 -0.210,-1.201 -0.591,-1.503 -0.381,-0.302 -0.944,-0.366 -1.777,0.117 -0.442,0.259 -0.809,0.400 -1.126,0.431 -0.317,0.030 -0.590,-0.060 -0.783,-0.25 -0.385,-0.379 -0.475,-1.069 -0.470,-1.919 0.009,-1.655 0.437,-3.968 0.529,-5.843 -1.885,0.068 -4.301,0.395 -6.054,0.300 -0.901,-0.048 -1.635,-0.196 -2.039,-0.617 -0.201,-0.210 -0.303,-0.495 -0.277,-0.826 0.025,-0.330 0.169,-0.707 0.439,-1.152 0.506,-0.833 0.454,-1.397 0.164,-1.777 -0.290,-0.379 -0.871,-0.589 -1.486,-0.589 z" /> 
<path id="path851" d="m 89.933,76.257 c -0.848,-0.019 -1.507,0.091 -1.812,0.357 -0.152,0.132 -0.232,0.296 -0.234,0.542 -0.001,0.246 0.087,0.575 0.296,0.994 0.452,0.900 0.349,1.635 -0.066,2.113 -0.415,0.478 -1.104,0.699 -1.785,0.699 -0.680,0 -1.368,-0.221 -1.787,-0.699 -0.418,-0.477 -0.527,-1.212 -0.080,-2.113 0.209,-0.419 0.299,-0.742 0.300,-0.974 0.001,-0.232 -0.068,-0.372 -0.210,-0.484 -0.284,-0.223 -0.927,-0.290 -1.759,-0.238 -1.621,0.102 -3.926,0.570 -5.851,0.482 0.077,1.923 -0.269,4.294 -0.240,5.996 0.014,0.871 0.143,1.556 0.425,1.890 0.141,0.167 0.311,0.256 0.560,0.269 0.248,0.012 0.577,-0.062 0.996,-0.259 0.899,-0.422 1.631,-0.291 2.105,0.138 0.474,0.430 0.697,1.125 0.697,1.806 0,0.681 -0.222,1.364 -0.701,1.769 -0.478,0.405 -1.210,0.489 -2.107,0.013 -0.420,-0.222 -0.762,-0.325 -1.031,-0.339 -0.268,-0.013 -0.460,0.054 -0.619,0.191 -0.318,0.274 -0.497,0.878 -0.548,1.683 -0.099,1.572 0.260,3.850 0.458,5.751 H 91 c 2.680,0 4.849,-2.169 4.849,-4.849 V 76.933 c -1.913,-0.158 -4.257,-0.637 -5.916,-0.675 z" /> 
<path id="path849" d="m 70.871,76.355 c -0.807,-0.003 -1.413,0.124 -1.669,0.392 -0.128,0.133 -0.190,0.298 -0.169,0.550 0.020,0.252 0.134,0.587 0.369,1.007 0.501,0.898 0.438,1.633 0.044,2.115 -0.393,0.481 -1.073,0.703 -1.755,0.703 -0.682,0 -1.380,-0.223 -1.822,-0.697 -0.442,-0.474 -0.594,-1.204 -0.195,-2.107 v -0.002 h 0.002 c 0.185,-0.417 0.249,-0.741 0.230,-0.984 -0.019,-0.242 -0.112,-0.404 -0.283,-0.537 -0.340,-0.265 -1.028,-0.369 -1.898,-0.351 -1.692,0.034 -4.038,0.465 -5.955,0.490 0.185,1.883 0.669,4.231 0.707,5.966 0.019,0.889 -0.067,1.623 -0.435,2.068 -0.183,0.222 -0.446,0.359 -0.765,0.376 -0.318,0.017 -0.691,-0.074 -1.136,-0.281 -0.827,-0.382 -1.391,-0.255 -1.781,0.099 -0.389,0.354 -0.599,0.971 -0.599,1.585 0,0.614 0.209,1.212 0.593,1.533 0.384,0.321 0.948,0.409 1.779,-0.037 0.442,-0.237 0.798,-0.361 1.099,-0.378 0.301,-0.017 0.554,0.086 0.716,0.285 0.325,0.397 0.338,1.073 0.277,1.912 -0.119,1.637 -0.584,3.922 -0.460,5.783 h 18.875 c -0.198,-1.882 -0.557,-4.143 -0.455,-5.769 0.052,-0.836 0.217,-1.519 0.650,-1.892 0.216,-0.186 0.500,-0.282 0.832,-0.265 0.331,0.017 0.711,0.139 1.156,0.375 0.827,0.439 1.389,0.346 1.773,0.021 0.383,-0.325 0.593,-0.924 0.593,-1.539 0,-0.614 -0.209,-1.231 -0.597,-1.583 -0.388,-0.352 -0.950,-0.477 -1.775,-0.089 -0.446,0.210 -0.819,0.305 -1.140,0.289 -0.320,-0.016 -0.587,-0.154 -0.775,-0.376 C 76.522,84.572 76.417,83.834 76.402,82.939 76.372,81.186 76.722,78.812 76.644,76.935 74.735,76.801 72.447,76.361 70.871,76.355 Z" /> 
<path id="rect842" d="m 44.476,76.541 c -1.669,-0.044 -4.022,0.329 -5.937,0.398 -0.090,1.915 -0.523,4.251 -0.533,5.863 -0.004,0.824 0.117,1.444 0.380,1.703 0.131,0.129 0.292,0.190 0.542,0.166 0.250,-0.024 0.583,-0.144 1.003,-0.390 h 0.002 c 0.897,-0.521 1.629,-0.476 2.113,-0.093 0.483,0.383 0.707,1.056 0.707,1.738 0,0.681 -0.222,1.383 -0.695,1.835 -0.472,0.452 -1.203,0.622 -2.107,0.246 -0.417,-0.174 -0.745,-0.233 -0.990,-0.210 -0.245,0.023 -0.411,0.119 -0.546,0.289 -0.270,0.338 -0.377,1.013 -0.365,1.867 0.024,1.666 0.452,3.980 0.488,5.896 h 18.925 c -0.123,-1.924 0.342,-4.213 0.458,-5.804 0.059,-0.817 -2.39e-4,-1.441 -0.210,-1.699 -0.105,-0.128 -0.236,-0.191 -0.466,-0.177 -0.230,0.013 -0.554,0.118 -0.974,0.343 -0.899,0.483 -1.632,0.405 -2.113,0.003 -0.480,-0.401 -0.703,-1.082 -0.703,-1.763 0,-0.680 0.221,-1.373 0.697,-1.806 0.475,-0.432 1.208,-0.569 2.111,-0.152 0.417,0.193 0.747,0.267 0.994,0.253 0.247,-0.013 0.414,-0.102 0.550,-0.267 0.272,-0.329 0.385,-1.007 0.367,-1.871 -0.036,-1.690 -0.522,-4.052 -0.708,-5.966 -1.915,-0.016 -4.220,-0.390 -5.832,-0.359 -0.824,0.015 -1.452,0.153 -1.742,0.435 -0.144,0.141 -0.220,0.312 -0.216,0.566 0.004,0.253 0.097,0.587 0.308,1.007 0.452,0.898 0.347,1.630 -0.068,2.107 -0.415,0.476 -1.102,0.699 -1.783,0.699 -0.680,0 -1.368,-0.222 -1.787,-0.699 -0.418,-0.476 -0.527,-1.207 -0.080,-2.105 0.207,-0.419 0.292,-0.754 0.289,-1.009 -0.003,-0.255 -0.088,-0.432 -0.246,-0.580 -0.315,-0.294 -0.978,-0.440 -1.832,-0.462 z" /> 
</g> 
<g inkscape:groupmode="layer" id="layer3" inkscape:label="dynamic" > 
<path id="p00" d="m -4.6,-9.449 c -2.680,0 -4.849,2.169 -4.849,4.849 V 9.464 c 1.919,0.024 4.233,0.497 5.894,0.572 0.851,0.038 1.521,-0.045 1.849,-0.294 0.163,-0.124 0.254,-0.280 0.273,-0.519 0.018,-0.239 -0.046,-0.563 -0.226,-0.982 -0.389,-0.901 -0.229,-1.631 0.216,-2.103 0.446,-0.472 1.146,-0.693 1.828,-0.693 0.681,0 1.356,0.219 1.746,0.701 0.389,0.481 0.446,1.213 -0.062,2.109 -0.239,0.421 -0.355,0.753 -0.375,0.994 -0.019,0.240 0.041,0.385 0.171,0.503 0.260,0.236 0.888,0.326 1.716,0.289 1.618,-0.073 3.953,-0.548 5.875,-0.576 C 9.636,7.553 9.964,5.107 9.839,3.386 9.775,2.508 9.583,1.832 9.255,1.525 9.091,1.371 8.899,1.296 8.632,1.312 8.365,1.327 8.025,1.441 7.607,1.689 6.710,2.220 5.976,2.183 5.491,1.804 5.007,1.425 4.784,0.753 4.784,0.071 c 0,-0.681 0.223,-1.386 0.695,-1.841 0.472,-0.455 1.202,-0.631 2.107,-0.259 0.417,0.170 0.757,0.235 1.029,0.220 0.271,-0.015 0.476,-0.105 0.644,-0.261 0.336,-0.311 0.524,-0.923 0.589,-1.718 C 9.979,-5.343 9.653,-7.552 9.460,-9.449 Z" /> 
<path id="p10" d="m -9.438,-9.449 c 0.192,1.879 0.521,4.076 0.388,5.685 -0.068,0.828 -0.251,1.512 -0.685,1.914 -0.217,0.200 -0.497,0.321 -0.830,0.339 -0.332,0.018 -0.714,-0.058 -1.160,-0.240 h -0.002 c -0.825,-0.338 -1.392,-0.181 -1.785,0.197 -0.392,0.378 -0.601,1.010 -0.601,1.625 0,0.614 0.209,1.198 0.589,1.496 0.380,0.297 0.944,0.356 1.777,-0.136 0.444,-0.262 0.826,-0.398 1.162,-0.417 0.336,-0.019 0.626,0.088 0.845,0.292 0.437,0.409 0.613,1.151 0.679,2.058 0.128,1.769 -0.202,4.196 -0.380,6.091 1.911,0.011 4.263,0.317 5.921,0.222 0.851,-0.048 1.506,-0.215 1.810,-0.523 0.151,-0.153 0.230,-0.337 0.224,-0.597 -0.005,-0.260 -0.105,-0.598 -0.328,-1.017 -0.478,-0.896 -0.396,-1.628 0.007,-2.107 0.403,-0.478 1.084,-0.701 1.765,-0.701 0.680,0 1.374,0.222 1.804,0.697 C 2.196,5.903 2.327,6.633 1.905,7.532 1.709,7.952 1.631,8.286 1.637,8.542 1.643,8.798 1.724,8.977 1.877,9.124 2.183,9.419 2.820,9.566 3.647,9.603 5.257,9.673 7.541,9.372 9.455,9.454 9.333,7.536 9.666,5.252 9.641,3.622 9.628,2.785 9.506,2.131 9.229,1.808 9.090,1.646 8.920,1.557 8.672,1.540 8.424,1.523 8.096,1.588 7.678,1.767 6.774,2.156 6.044,1.998 5.571,1.552 5.097,1.106 4.875,0.405 4.875,-0.275 c 0,-0.680 0.220,-1.356 0.703,-1.744 0.482,-0.387 1.217,-0.440 2.115,0.070 0.418,0.239 0.759,0.351 1.025,0.369 0.265,0.017 0.454,-0.052 0.613,-0.195 C 9.649,-2.061 9.829,-2.700 9.881,-3.541 9.983,-5.184 9.634,-7.543 9.459,-9.449 Z" /> 
<path id="p20" d="m -9.439,-9.449 c 0.174,1.887 0.525,4.233 0.419,5.927 -0.054,0.870 -0.215,1.580 -0.646,1.968 -0.215,0.194 -0.502,0.293 -0.833,0.271 -0.331,-0.021 -0.710,-0.154 -1.154,-0.408 -0.832,-0.473 -1.395,-0.402 -1.777,-0.095 -0.382,0.307 -0.593,0.895 -0.593,1.509 0,0.614 0.209,1.240 0.601,1.609 0.391,0.368 0.958,0.514 1.785,0.158 0.444,-0.190 0.815,-0.273 1.132,-0.251 0.316,0.021 0.576,0.156 0.761,0.373 0.370,0.432 0.473,1.143 0.486,2.003 0.025,1.680 -0.310,3.962 -0.189,5.830 1.873,0.081 4.195,-0.226 5.863,-0.156 0.854,0.036 1.548,0.161 1.931,0.564 0.191,0.201 0.285,0.478 0.261,0.800 -0.024,0.322 -0.156,0.694 -0.408,1.138 -0.473,0.829 -0.403,1.390 -0.095,1.771 0.307,0.381 0.898,0.591 1.513,0.591 0.614,1e-6 1.241,-0.209 1.609,-0.599 C 1.596,13.167 1.741,12.602 1.382,11.778 1.190,11.332 1.108,10.957 1.132,10.634 1.156,10.311 1.293,10.043 1.513,9.849 1.953,9.460 2.679,9.333 3.554,9.298 5.261,9.230 7.568,9.536 9.439,9.446 9.327,7.563 8.941,5.182 8.988,3.454 9.012,2.567 9.136,1.845 9.541,1.441 9.743,1.238 10.023,1.132 10.349,1.151 c 0.326,0.019 0.699,0.152 1.144,0.408 h 0.002 c 0.830,0.481 1.391,0.414 1.771,0.111 0.380,-0.303 0.589,-0.889 0.589,-1.503 0,-0.614 -0.208,-1.242 -0.599,-1.615 -0.390,-0.372 -0.955,-0.522 -1.779,-0.173 -0.446,0.188 -0.825,0.270 -1.152,0.251 C 9.998,-1.388 9.724,-1.514 9.519,-1.723 9.110,-2.139 8.965,-2.839 8.931,-3.685 8.866,-5.331 9.255,-7.571 9.437,-9.449 Z" /> 
<path id="p30" d="m -9.461,-9.449 c -0.181,1.902 -0.571,4.157 -0.507,5.751 0.032,0.816 0.192,1.446 0.503,1.763 0.155,0.158 0.344,0.248 0.607,0.263 0.263,0.015 0.600,-0.051 1.019,-0.228 0.901,-0.381 1.631,-0.215 2.103,0.234 0.471,0.449 0.693,1.151 0.693,1.832 0,0.680 -0.221,1.353 -0.703,1.738 -0.482,0.384 -1.214,0.432 -2.109,-0.085 -0.420,-0.241 -0.757,-0.353 -1.013,-0.369 -0.256,-0.015 -0.431,0.055 -0.578,0.201 -0.292,0.292 -0.443,0.951 -0.466,1.810 -0.045,1.682 0.342,4.082 0.453,5.998 1.923,-0.086 4.240,0.331 5.880,0.380 0.840,0.025 1.492,-0.067 1.792,-0.314 0.150,-0.123 0.230,-0.275 0.234,-0.515 0.003,-0.239 -0.080,-0.566 -0.283,-0.986 C -2.272,7.123 -2.154,6.390 -1.731,5.913 -1.308,5.436 -0.619,5.214 0.061,5.214 c 0.680,0 1.366,0.222 1.777,0.701 0.411,0.478 0.507,1.213 0.044,2.113 C 1.668,8.448 1.573,8.783 1.569,9.040 1.565,9.297 1.641,9.475 1.790,9.620 2.087,9.911 2.731,10.054 3.569,10.066 5.210,10.088 7.548,9.657 9.458,9.464 9.590,7.555 9.941,5.230 9.852,3.632 9.807,2.816 9.636,2.206 9.331,1.942 9.178,1.811 8.993,1.748 8.729,1.773 8.465,1.797 8.123,1.916 7.704,2.159 6.806,2.675 6.074,2.626 5.591,2.239 5.107,1.853 4.885,1.177 4.885,0.495 c 0,-0.682 0.222,-1.384 0.695,-1.833 0.472,-0.449 1.203,-0.614 2.107,-0.230 0.416,0.176 0.745,0.237 0.994,0.214 0.248,-0.022 0.420,-0.121 0.562,-0.292 0.283,-0.343 0.411,-1.022 0.427,-1.882 0.031,-1.675 -0.305,-4.001 -0.216,-5.919 z" /> 
<path id="p40" d="m -9.444,-9.449 c -0.089,1.872 0.248,4.198 0.216,5.925 -0.016,0.884 -0.123,1.617 -0.496,2.068 -0.186,0.225 -0.446,0.371 -0.765,0.400 -0.319,0.029 -0.693,-0.047 -1.138,-0.236 -0.826,-0.350 -1.393,-0.202 -1.785,0.169 -0.392,0.372 -0.601,1.001 -0.601,1.617 0,0.615 0.209,1.204 0.591,1.509 0.381,0.305 0.946,0.371 1.777,-0.105 0.443,-0.256 0.820,-0.395 1.148,-0.425 0.328,-0.030 0.611,0.058 0.824,0.242 0.426,0.368 0.577,1.054 0.625,1.900 0.091,1.649 -0.259,3.956 -0.392,5.839 1.928,-0.152 4.360,0.204 6.103,0.212 0.896,0.004 1.601,-0.104 1.925,-0.365 C -1.249,9.173 -1.169,9.019 -1.169,8.778 -1.169,8.539 -1.265,8.211 -1.491,7.792 -1.980,6.896 -1.906,6.162 -1.507,5.683 -1.108,5.203 -0.428,4.982 0.252,4.982 c 0.680,0 1.375,0.221 1.810,0.695 C 2.498,6.151 2.639,6.882 2.226,7.782 2.035,8.202 1.951,8.539 1.951,8.798 1.951,9.057 2.025,9.235 2.164,9.380 2.442,9.670 3.033,9.814 3.816,9.837 5.343,9.882 7.544,9.516 9.449,9.460 V -4.599 C 9.449,-7.280 7.280,-9.449 4.6,-9.449 Z" /> 
<path id="p01" d="m 0.386,-13.458 c -0.614,0 -1.240,0.211 -1.609,0.601 -0.369,0.390 -0.515,0.953 -0.160,1.777 0.192,0.446 0.274,0.813 0.25,1.125 -0.024,0.311 -0.166,0.563 -0.390,0.734 C -1.971,-8.878 -2.693,-8.823 -3.568,-8.862 -5.274,-8.939 -7.579,-9.410 -9.449,-9.434 V 9.463 c 1.924,-0.080 4.230,0.406 5.816,0.529 0.814,0.062 1.429,-1.08e-4 1.664,-0.205 0.117,-0.102 0.168,-0.228 0.140,-0.460 C -1.856,9.094 -1.979,8.767 -2.228,8.346 -2.755,7.449 -2.715,6.715 -2.334,6.231 c 0.380,-0.484 1.054,-0.707 1.736,-0.707 0.681,0 1.385,0.223 1.839,0.695 C 1.696,6.691 1.870,7.422 1.499,8.326 1.327,8.744 1.272,9.063 1.298,9.293 1.324,9.523 1.419,9.668 1.591,9.783 1.935,10.015 2.629,10.073 3.497,10.014 5.192,9.898 7.533,9.407 9.460,9.463 9.516,7.549 9.917,5.252 9.903,3.639 9.897,2.814 9.768,2.181 9.489,1.885 9.350,1.737 9.178,1.658 8.927,1.657 8.675,1.655 8.343,1.741 7.925,1.944 7.023,2.379 6.290,2.261 5.814,1.836 5.337,1.412 5.114,0.720 5.114,0.039 c 0,-0.680 0.222,-1.365 0.701,-1.775 0.479,-0.409 1.213,-0.502 2.113,-0.037 0.418,0.216 0.744,0.307 0.982,0.308 0.237,0.001 0.386,-0.074 0.509,-0.224 C 9.667,-1.989 9.761,-2.653 9.741,-3.508 9.703,-5.170 9.319,-7.513 9.458,-9.436 7.586,-9.409 5.261,-8.934 3.597,-8.858 2.744,-8.819 2.057,-8.869 1.665,-9.225 1.469,-9.403 1.370,-9.667 1.396,-9.977 c 0.025,-0.310 0.161,-0.673 0.414,-1.117 0.471,-0.829 0.398,-1.390 0.089,-1.771 -0.308,-0.381 -0.898,-0.591 -1.513,-0.591 z" /> 
<path id="p11" d="m -0.038,-14.167 c -0.614,0 -1.213,0.210 -1.537,0.593 -0.323,0.383 -0.414,0.945 0.027,1.773 0.236,0.445 0.355,0.821 0.363,1.150 0.007,0.328 -0.106,0.609 -0.310,0.816 -0.408,0.414 -1.127,0.561 -2.005,0.611 -1.712,0.097 -4.061,-0.211 -5.941,-0.222 -0.141,1.866 0.245,4.215 0.285,5.927 0.020,0.876 -0.040,1.594 -0.388,2.019 -0.174,0.212 -0.432,0.335 -0.744,0.333 -0.311,-0.001 -0.675,-0.114 -1.119,-0.343 -0.830,-0.429 -1.393,-0.330 -1.779,0 -0.385,0.330 -0.595,0.932 -0.595,1.546 0,0.614 0.209,1.226 0.597,1.572 0.388,0.345 0.952,0.462 1.781,0.062 0.444,-0.214 0.815,-0.317 1.134,-0.316 0.319,0.001 0.587,0.118 0.779,0.322 0.383,0.407 0.489,1.105 0.496,1.957 0.013,1.656 -0.384,3.928 -0.443,5.800 1.861,0.053 4.094,-0.383 5.707,-0.451 0.827,-0.034 1.502,0.014 1.900,0.363 0.198,0.174 0.309,0.431 0.304,0.740 -0.004,0.308 -0.112,0.671 -0.328,1.115 -0.402,0.826 -0.287,1.388 0.056,1.775 0.344,0.386 0.956,0.595 1.570,0.595 0.614,0 1.217,-0.208 1.548,-0.593 0.331,-0.384 0.432,-0.948 0.005,-1.775 C 1.098,10.762 0.990,10.390 0.994,10.069 0.999,9.748 1.129,9.480 1.348,9.293 1.786,8.919 2.527,8.827 3.428,8.836 5.188,8.855 7.579,9.308 9.463,9.436 9.573,7.533 9.966,5.315 9.934,3.741 9.917,2.932 9.778,2.304 9.483,1.985 9.335,1.825 9.152,1.733 8.895,1.711 8.637,1.690 8.302,1.745 7.883,1.908 6.981,2.261 6.253,2.072 5.784,1.610 5.314,1.147 5.092,0.439 5.092,-0.241 c 0,-0.681 0.220,-1.350 0.705,-1.722 0.484,-0.372 1.215,-0.397 2.109,0.146 h 0.002 c 0.420,0.256 0.757,0.379 1.015,0.402 0.257,0.022 0.433,-0.044 0.580,-0.187 0.293,-0.285 0.447,-0.947 0.470,-1.814 0.045,-1.693 -0.354,-4.117 -0.513,-6.029 -1.873,-0.083 -4.158,0.223 -5.826,0.150 -0.852,-0.037 -1.553,-0.166 -1.964,-0.562 -0.205,-0.198 -0.326,-0.468 -0.333,-0.791 -0.007,-0.322 0.089,-0.698 0.296,-1.144 0.387,-0.825 0.262,-1.387 -0.089,-1.775 -0.352,-0.388 -0.967,-0.597 -1.582,-0.597 z" /> 
<path id="p21" d="m -3.595,-9.608 c -1.609,-0.068 -3.927,0.234 -5.841,0.154 0.158,1.888 0.558,4.301 0.511,6.044 -0.024,0.894 -0.150,1.622 -0.560,2.021 -0.204,0.199 -0.487,0.299 -0.814,0.271 -0.327,-0.028 -0.701,-0.174 -1.146,-0.445 -0.831,-0.506 -1.393,-0.454 -1.771,-0.164 -0.378,0.290 -0.587,0.869 -0.587,1.484 0,0.614 0.208,1.251 0.601,1.638 0.392,0.387 0.959,0.554 1.781,0.232 0.446,-0.174 0.822,-0.245 1.144,-0.218 0.321,0.027 0.588,0.160 0.783,0.371 0.390,0.422 0.512,1.115 0.529,1.953 0.033,1.628 -0.360,3.839 -0.468,5.710 1.876,0.089 4.290,-0.214 6.058,-0.146 0.907,0.034 1.651,0.156 2.080,0.550 0.214,0.197 0.335,0.471 0.330,0.796 -0.005,0.324 -0.126,0.699 -0.371,1.144 -0.456,0.831 -0.375,1.395 -0.058,1.779 0.316,0.383 0.913,0.593 1.529,0.593 0.615,0 1.236,-0.209 1.597,-0.599 C 2.091,13.174 2.226,12.609 1.853,11.782 1.652,11.336 1.558,10.953 1.562,10.619 1.566,10.286 1.676,10.003 1.869,9.783 2.255,9.345 2.932,9.159 3.757,9.088 5.365,8.950 7.582,9.271 9.464,9.440 9.555,7.532 10.024,5.311 10.076,3.752 10.102,2.952 10.004,2.336 9.748,2.045 9.619,1.900 9.458,1.820 9.212,1.811 8.967,1.802 8.639,1.875 8.220,2.057 7.317,2.451 6.585,2.295 6.111,1.852 5.637,1.408 5.414,0.710 5.414,0.030 c 0,-0.680 0.222,-1.357 0.705,-1.748 0.482,-0.390 1.217,-0.449 2.115,0.056 0.418,0.236 0.748,0.342 0.992,0.351 0.243,0.008 0.397,-0.065 0.527,-0.216 0.259,-0.303 0.368,-0.984 0.345,-1.863 -0.044,-1.717 -0.518,-4.144 -0.634,-6.064 -1.918,0.093 -4.237,-0.212 -5.898,-0.146 -0.850,0.033 -1.517,0.177 -1.853,0.474 -0.167,0.148 -0.262,0.327 -0.281,0.582 -0.019,0.254 0.046,0.585 0.226,1.003 0.391,0.901 0.232,1.631 -0.212,2.103 -0.445,0.472 -1.144,0.693 -1.826,0.693 -0.681,0 -1.357,-0.219 -1.746,-0.701 -0.388,-0.481 -0.444,-1.214 0.066,-2.109 0.238,-0.420 0.351,-0.757 0.371,-1.013 0.019,-0.255 -0.045,-0.427 -0.181,-0.570 -0.271,-0.285 -0.896,-0.435 -1.724,-0.470 z" /> 
<path id="p31" d="m 0.061,-13.684 c -0.614,0 -1.223,0.209 -1.568,0.597 -0.344,0.388 -0.460,0.952 -0.058,1.781 0.214,0.445 0.317,0.811 0.312,1.123 -0.004,0.311 -0.129,0.567 -0.341,0.742 -0.423,0.348 -1.131,0.406 -1.994,0.380 -1.680,-0.050 -3.979,-0.462 -5.843,-0.380 0.116,1.880 0.585,4.286 0.630,6.042 0.023,0.902 -0.050,1.639 -0.416,2.066 -0.182,0.213 -0.450,0.333 -0.767,0.322 -0.317,-0.011 -0.685,-0.139 -1.128,-0.390 -0.831,-0.468 -1.394,-0.395 -1.777,-0.085 -0.382,0.309 -0.593,0.901 -0.593,1.515 0,0.614 0.210,1.237 0.601,1.603 0.391,0.366 0.956,0.509 1.783,0.148 0.443,-0.193 0.810,-0.280 1.123,-0.269 0.312,0.011 0.570,0.131 0.75,0.335 0.359,0.408 0.431,1.087 0.404,1.914 -0.053,1.613 -0.523,3.832 -0.611,5.703 1.902,0.175 4.169,0.593 5.738,0.566 0.805,-0.014 1.411,-0.157 1.681,-0.445 C -1.879,9.443 -1.811,9.265 -1.824,9.006 -1.838,8.748 -1.941,8.409 -2.162,7.989 -2.633,7.091 -2.543,6.359 -2.135,5.881 -1.727,5.403 -1.045,5.182 -0.364,5.182 c 0.681,0 1.374,0.222 1.802,0.697 C 1.866,6.354 1.993,7.085 1.565,7.985 1.367,8.403 1.289,8.734 1.301,8.987 1.314,9.239 1.406,9.414 1.573,9.559 1.907,9.848 2.591,9.981 3.462,9.989 5.164,10.003 7.539,9.584 9.454,9.461 9.284,7.544 9.602,5.304 9.573,3.754 9.558,2.958 9.433,2.357 9.167,2.090 9.034,1.957 8.870,1.890 8.620,1.899 8.370,1.908 8.037,2.003 7.616,2.213 6.718,2.664 5.987,2.556 5.510,2.139 5.034,1.722 4.811,1.035 4.811,0.354 c 0,-0.681 0.222,-1.370 0.699,-1.789 0.476,-0.418 1.207,-0.527 2.105,-0.080 0.418,0.209 0.750,0.293 1,0.285 0.249,-0.007 0.420,-0.094 0.564,-0.261 0.287,-0.334 0.423,-1.030 0.447,-1.914 0.046,-1.717 -0.269,-4.108 -0.171,-6.029 -1.883,0.192 -4.202,0.625 -5.890,0.601 -0.866,-0.012 -1.576,-0.132 -1.984,-0.531 -0.203,-0.199 -0.317,-0.474 -0.312,-0.798 0.005,-0.324 0.118,-0.699 0.347,-1.144 0.426,-0.829 0.327,-1.395 -0.003,-1.781 -0.331,-0.386 -0.936,-0.595 -1.550,-0.595 z" /> 
<path id="p41" d="m 0.252,-13.917 c -0.614,0 -1.210,0.208 -1.529,0.591 -0.318,0.382 -0.402,0.944 0.048,1.773 0.240,0.445 0.359,0.814 0.359,1.130 2.2e-5,0.316 -0.132,0.580 -0.355,0.759 -0.445,0.358 -1.197,0.434 -2.115,0.429 -1.794,-0.008 -4.235,-0.368 -6.107,-0.214 -0.099,1.875 0.224,4.276 0.175,6.048 -0.024,0.907 -0.136,1.656 -0.519,2.101 -0.191,0.222 -0.460,0.357 -0.783,0.367 -0.322,0.010 -0.696,-0.093 -1.142,-0.316 -0.826,-0.412 -1.389,-0.302 -1.775,0.037 -0.386,0.339 -0.595,0.947 -0.595,1.562 0,0.614 0.209,1.222 0.595,1.560 0.385,0.337 0.948,0.445 1.775,0.031 0.444,-0.222 0.811,-0.336 1.126,-0.347 0.314,-0.011 0.579,0.090 0.769,0.281 0.380,0.381 0.476,1.048 0.492,1.869 0.029,1.603 -0.289,3.840 -0.121,5.705 1.911,-0.085 4.171,0.217 5.738,0.150 0.805,-0.034 1.414,-0.181 1.689,-0.468 0.137,-0.143 0.206,-0.317 0.197,-0.574 -0.009,-0.256 -0.106,-0.593 -0.320,-1.013 -0.455,-0.898 -0.352,-1.630 0.062,-2.107 0.414,-0.476 1.101,-0.697 1.783,-0.697 0.681,0 1.370,0.221 1.791,0.697 0.420,0.475 0.534,1.206 0.091,2.105 C 1.378,7.964 1.296,8.302 1.305,8.563 1.313,8.824 1.402,9.012 1.568,9.170 1.902,9.487 2.583,9.658 3.455,9.709 5.156,9.810 7.536,9.499 9.449,9.455 V -9.440 C 7.580,-9.384 5.389,-9.014 3.808,-9.061 2.997,-9.085 2.329,-9.213 1.947,-9.612 1.756,-9.812 1.650,-10.082 1.650,-10.403 c 1.73e-4,-0.321 0.099,-0.693 0.302,-1.138 0.377,-0.824 0.245,-1.388 -0.111,-1.777 -0.357,-0.388 -0.975,-0.597 -1.589,-0.597 z" /> 
<path id="p02" d="m -0.598,-13.375 c -0.614,0 -1.200,0.210 -1.5,0.591 -0.299,0.380 -0.361,0.944 0.126,1.777 0.260,0.441 0.405,0.795 0.441,1.095 0.035,0.300 -0.052,0.558 -0.242,0.724 -0.380,0.331 -1.049,0.341 -1.884,0.277 C -5.287,-9.034 -7.586,-9.518 -9.449,-9.437 V 9.439 c 1.873,-0.014 4.168,-0.385 5.816,-0.357 0.845,0.014 1.532,0.122 1.916,0.515 0.191,0.196 0.289,0.469 0.269,0.789 -0.020,0.320 -0.147,0.690 -0.390,1.134 -0.451,0.831 -0.367,1.395 -0.048,1.779 0.318,0.384 0.916,0.593 1.531,0.593 0.614,0 1.235,-0.209 1.593,-0.599 C 1.596,12.904 1.728,12.339 1.353,11.511 1.150,11.065 1.060,10.685 1.079,10.359 1.098,10.032 1.235,9.761 1.454,9.562 1.893,9.163 2.625,9.029 3.511,9.001 5.240,8.947 7.578,9.330 9.462,9.441 9.451,7.524 9.845,5.197 9.851,3.527 9.854,2.669 9.739,1.993 9.466,1.662 9.329,1.496 9.162,1.405 8.915,1.388 8.668,1.372 8.340,1.440 7.921,1.626 7.020,2.028 6.290,1.879 5.817,1.439 5.344,0.999 5.122,0.302 5.122,-0.378 c 0,-0.681 0.220,-1.360 0.701,-1.755 0.480,-0.395 1.213,-0.462 2.109,0.033 0.421,0.233 0.753,0.345 1.001,0.363 0.248,0.017 0.407,-0.047 0.537,-0.179 0.259,-0.264 0.378,-0.885 0.375,-1.707 C 9.840,-5.221 9.447,-7.523 9.462,-9.437 7.594,-9.493 5.257,-9.003 3.517,-8.884 2.628,-8.824 1.892,-8.851 1.425,-9.166 1.191,-9.323 1.034,-9.567 0.999,-9.873 c -0.035,-0.305 0.039,-0.668 0.222,-1.113 h -0.002 C 1.559,-11.811 1.403,-12.378 1.025,-12.771 0.646,-13.164 0.016,-13.375 -0.598,-13.375 Z" /> 
<path id="p12" d="m 3.424,-10.064 c -0.875,-0.009 -1.560,0.111 -1.882,0.386 -0.160,0.137 -0.244,0.302 -0.248,0.550 -0.003,0.247 0.084,0.578 0.298,0.998 0.463,0.897 0.368,1.629 -0.042,2.107 -0.411,0.477 -1.096,0.699 -1.777,0.699 -0.680,0 -1.369,-0.221 -1.792,-0.697 C -2.443,-6.495 -2.561,-7.226 -2.124,-8.125 c 0.204,-0.420 0.293,-0.749 0.296,-0.990 0.003,-0.240 -0.065,-0.388 -0.201,-0.507 -0.271,-0.238 -0.884,-0.324 -1.689,-0.291 -1.563,0.065 -3.807,0.504 -5.722,0.451 -0.018,1.873 0.381,4.183 0.388,5.837 0.003,0.846 -0.082,1.532 -0.460,1.917 -0.189,0.192 -0.457,0.290 -0.773,0.267 -0.315,-0.022 -0.683,-0.152 -1.126,-0.398 -0.828,-0.458 -1.389,-0.379 -1.771,-0.064 -0.382,0.314 -0.591,0.908 -0.591,1.523 -1e-6,0.614 0.208,1.237 0.597,1.599 0.389,0.362 0.952,0.500 1.777,0.132 0.446,-0.198 0.818,-0.285 1.136,-0.263 0.317,0.021 0.578,0.160 0.761,0.382 0.366,0.444 0.458,1.172 0.455,2.054 -0.006,1.726 -0.409,4.065 -0.394,5.941 1.922,0.118 4.394,0.613 6.148,0.683 0.898,0.035 1.597,-0.060 1.900,-0.310 0.151,-0.124 0.223,-0.273 0.208,-0.513 -0.014,-0.240 -0.131,-0.569 -0.384,-0.990 h 0.002 C -2.108,7.441 -2.081,6.708 -1.708,6.222 -1.335,5.737 -0.666,5.515 0.014,5.515 c 0.680,0 1.387,0.222 1.847,0.693 0.460,0.471 0.645,1.200 0.287,2.105 -0.166,0.419 -0.229,0.750 -0.214,0.998 0.014,0.247 0.097,0.410 0.242,0.539 0.289,0.256 0.887,0.352 1.667,0.320 C 5.365,10.108 7.537,9.613 9.442,9.470 9.348,7.588 9.016,5.311 9.118,3.677 9.170,2.841 9.326,2.160 9.750,1.785 9.962,1.597 10.243,1.499 10.571,1.515 c 0.327,0.016 0.704,0.137 1.148,0.371 0.830,0.436 1.393,0.344 1.779,0.017 0.385,-0.326 0.595,-0.928 0.595,-1.542 0,-0.614 -0.210,-1.229 -0.599,-1.580 -0.389,-0.350 -0.953,-0.476 -1.781,-0.085 -0.445,0.211 -0.825,0.308 -1.156,0.292 C 10.226,-1.026 9.947,-1.159 9.739,-1.378 9.322,-1.817 9.163,-2.560 9.110,-3.457 9.005,-5.208 9.338,-7.578 9.442,-9.466 7.526,-9.596 5.133,-10.046 3.424,-10.064 Z" /> 
<path id="p22" d="m 5.050,-9.837 c -0.454,-0.013 -0.881,-0.007 -1.267,0.025 -0.792,0.067 -1.394,0.258 -1.689,0.593 -0.147,0.167 -0.228,0.370 -0.232,0.642 -0.003,0.272 0.076,0.615 0.265,1.035 0.407,0.902 0.262,1.634 -0.175,2.109 -0.438,0.474 -1.136,0.697 -1.818,0.697 -0.682,0 -1.362,-0.221 -1.759,-0.703 -0.397,-0.481 -0.468,-1.216 0.025,-2.115 0.230,-0.419 0.331,-0.753 0.335,-1.005 0.004,-0.252 -0.075,-0.424 -0.234,-0.570 -0.317,-0.291 -1.005,-0.438 -1.888,-0.472 -1.722,-0.066 -4.144,0.239 -6.068,0.146 -0.104,1.910 -0.435,4.282 -0.333,5.980 0.051,0.868 0.225,1.550 0.546,1.888 0.160,0.169 0.352,0.261 0.615,0.273 0.262,0.011 0.596,-0.065 1.013,-0.263 h 0.002 c 0.901,-0.424 1.633,-0.296 2.109,0.132 0.475,0.429 0.699,1.123 0.699,1.804 1e-6,0.681 -0.221,1.365 -0.701,1.771 -0.479,0.406 -1.213,0.492 -2.113,0.019 C -8.038,1.931 -8.378,1.829 -8.642,1.816 c -0.264,-0.013 -0.452,0.055 -0.607,0.193 -0.310,0.274 -0.482,0.881 -0.533,1.687 -0.097,1.570 0.227,3.839 0.324,5.742 1.882,-0.135 4.202,-0.535 5.912,-0.496 0.876,0.020 1.599,0.146 2.029,0.541 0.214,0.197 0.345,0.468 0.359,0.792 0.013,0.324 -0.079,0.700 -0.285,1.144 v 0.002 c -0.379,0.826 -0.250,1.391 0.105,1.781 0.356,0.389 0.975,0.599 1.589,0.599 0.614,0 1.211,-0.209 1.533,-0.593 0.321,-0.384 0.409,-0.948 -0.037,-1.779 C 1.508,10.988 1.386,10.614 1.371,10.291 1.356,9.967 1.458,9.692 1.654,9.492 2.046,9.090 2.744,8.968 3.599,8.949 5.259,8.912 7.555,9.307 9.431,9.435 9.355,7.557 8.885,5.130 8.822,3.341 8.790,2.422 8.852,1.669 9.205,1.220 9.381,0.996 9.644,0.864 9.960,0.863 c 0.316,-0.001 0.685,0.116 1.130,0.355 0.830,0.446 1.392,0.358 1.777,0.037 0.384,-0.321 0.595,-0.919 0.595,-1.533 0,-0.614 -0.209,-1.231 -0.599,-1.585 -0.389,-0.354 -0.955,-0.482 -1.783,-0.099 -0.444,0.204 -0.809,0.303 -1.121,0.304 C 9.649,-1.656 9.390,-1.764 9.209,-1.958 8.847,-2.347 8.780,-3.010 8.810,-3.820 8.870,-5.400 9.345,-7.593 9.433,-9.460 8.013,-9.587 6.413,-9.797 5.050,-9.837 Z" /> 
<path id="p32" d="m -0.364,-13.716 c -0.614,0 -1.217,0.209 -1.544,0.593 -0.327,0.384 -0.422,0.945 0.011,1.773 0.233,0.444 0.354,0.817 0.371,1.140 0.016,0.323 -0.080,0.598 -0.269,0.800 -0.378,0.403 -1.059,0.524 -1.894,0.539 -1.628,0.028 -3.896,-0.395 -5.777,-0.568 -0.091,1.906 -0.565,4.104 -0.623,5.628 -0.029,0.783 0.067,1.375 0.318,1.644 0.125,0.134 0.284,0.206 0.531,0.205 0.246,-9.84e-4 0.577,-0.084 0.998,-0.277 0.902,-0.417 1.633,-0.282 2.109,0.150 0.475,0.432 0.699,1.127 0.699,1.808 0,0.680 -0.222,1.362 -0.703,1.763 -0.480,0.401 -1.214,0.479 -2.113,-0.003 -0.419,-0.225 -0.748,-0.321 -0.988,-0.320 -0.239,8.09e-4 -0.392,0.082 -0.519,0.244 -0.255,0.324 -0.351,1.029 -0.320,1.925 0.061,1.748 0.538,4.190 0.613,6.113 1.868,0.089 4.113,-0.295 5.755,-0.306 0.838,-0.005 1.529,0.077 1.949,0.439 0.209,0.181 0.338,0.438 0.355,0.751 0.017,0.313 -0.068,0.683 -0.257,1.128 -0.350,0.826 -0.201,1.391 0.169,1.783 0.371,0.391 0.998,0.603 1.613,0.603 0.614,0 1.203,-0.211 1.509,-0.593 C 1.936,12.869 2.006,12.306 1.530,11.474 1.275,11.030 1.140,10.665 1.122,10.351 1.103,10.037 1.215,9.771 1.423,9.591 1.837,9.231 2.558,9.163 3.446,9.175 5.179,9.199 7.569,9.577 9.438,9.445 9.426,7.566 9.007,5.122 8.985,3.347 8.974,2.437 9.052,1.699 9.423,1.279 9.608,1.069 9.878,0.955 10.196,0.978 c 0.318,0.022 0.686,0.165 1.130,0.433 0.833,0.506 1.397,0.454 1.777,0.164 0.379,-0.290 0.589,-0.870 0.589,-1.484 0,-0.614 -0.209,-1.248 -0.603,-1.634 -0.393,-0.385 -0.962,-0.550 -1.787,-0.226 -0.445,0.174 -0.808,0.248 -1.113,0.226 -0.305,-0.022 -0.551,-0.152 -0.718,-0.361 -0.334,-0.417 -0.379,-1.089 -0.343,-1.906 0.069,-1.592 0.474,-3.772 0.314,-5.626 C 7.561,-9.314 5.203,-8.895 3.458,-8.910 2.561,-8.917 1.820,-9.029 1.376,-9.414 1.154,-9.606 1.018,-9.873 1.003,-10.197 c -0.015,-0.323 0.079,-0.700 0.291,-1.146 0.392,-0.825 0.271,-1.389 -0.078,-1.777 -0.349,-0.387 -0.965,-0.595 -1.580,-0.595 z" /> 
<path id="p42" d="m -0.298,-14.158 c -0.614,0 -1.221,0.210 -1.556,0.595 -0.335,0.385 -0.440,0.948 -0.021,1.775 0.226,0.444 0.342,0.815 0.353,1.136 0.011,0.321 -0.089,0.594 -0.281,0.794 -0.382,0.400 -1.062,0.524 -1.894,0.560 -1.627,0.069 -3.889,-0.239 -5.761,-0.152 0.161,1.915 -0.245,4.103 -0.312,5.648 -0.034,0.795 0.042,1.410 0.279,1.707 0.118,0.148 0.268,0.232 0.505,0.25 0.237,0.017 0.562,-0.042 0.982,-0.207 0.905,-0.355 1.636,-0.168 2.107,0.292 0.471,0.461 0.693,1.166 0.693,1.847 2e-6,0.680 -0.221,1.350 -0.707,1.722 C -6.397,2.186 -7.130,2.211 -8.026,1.667 -8.447,1.413 -8.780,1.296 -9.024,1.279 -9.269,1.261 -9.422,1.329 -9.552,1.476 -9.812,1.771 -9.926,2.457 -9.915,3.343 c 0.021,1.726 0.440,4.172 0.453,6.095 1.894,-0.170 4.349,-0.548 6.140,-0.470 0.917,0.039 1.668,0.186 2.087,0.605 0.209,0.209 0.322,0.494 0.304,0.826 -0.018,0.332 -0.156,0.710 -0.421,1.156 -0.496,0.833 -0.438,1.397 -0.142,1.777 0.295,0.380 0.878,0.591 1.492,0.591 0.614,0 1.244,-0.210 1.625,-0.603 0.380,-0.393 0.540,-0.959 0.207,-1.785 v -0.002 C 1.651,11.089 1.574,10.718 1.592,10.402 1.610,10.085 1.732,9.824 1.933,9.634 2.337,9.255 3.006,9.148 3.820,9.136 5.407,9.114 7.585,9.477 9.449,9.441 V -9.443 c -1.883,0.043 -4.259,0.357 -6.011,0.253 -0.898,-0.053 -1.638,-0.208 -2.074,-0.623 -0.217,-0.207 -0.349,-0.485 -0.359,-0.816 -0.010,-0.330 0.091,-0.711 0.310,-1.158 0.407,-0.826 0.294,-1.386 -0.046,-1.773 -0.341,-0.386 -0.951,-0.597 -1.566,-0.597 z" /> 
<path id="p03" d="m 3.521,-9.897 c -0.858,0.027 -1.530,0.176 -1.865,0.480 -0.167,0.151 -0.260,0.335 -0.275,0.593 -0.014,0.257 0.056,0.593 0.246,1.011 0.409,0.902 0.268,1.634 -0.167,2.109 -0.436,0.474 -1.132,0.697 -1.814,0.697 -0.681,1e-6 -1.362,-0.222 -1.761,-0.703 -0.399,-0.480 -0.472,-1.214 0.015,-2.113 0.229,-0.420 0.339,-0.758 0.355,-1.011 0.015,-0.253 -0.050,-0.422 -0.185,-0.560 -0.269,-0.276 -0.888,-0.411 -1.707,-0.425 -1.595,-0.027 -3.897,0.344 -5.810,0.359 V 9.458 c 1.903,0.039 4.108,0.353 5.656,0.259 0.794,-0.047 1.402,-0.211 1.705,-0.523 0.151,-0.155 0.237,-0.346 0.25,-0.609 C -1.825,8.322 -1.894,7.985 -2.068,7.567 -2.442,6.663 -2.270,5.932 -1.816,5.460 -1.363,4.987 -0.660,4.764 0.021,4.764 c 0.681,0 1.354,0.221 1.736,0.705 0.381,0.483 0.426,1.218 -0.097,2.115 -0.245,0.418 -0.357,0.756 -0.371,1.015 -0.013,0.259 0.062,0.442 0.216,0.597 0.308,0.309 0.989,0.481 1.871,0.531 C 5.092,9.826 7.518,9.512 9.431,9.458 9.245,7.582 8.757,5.335 8.716,3.694 8.695,2.851 8.780,2.157 9.151,1.745 9.337,1.539 9.600,1.418 9.917,1.409 c 0.316,-0.009 0.689,0.082 1.134,0.283 0.827,0.372 1.392,0.238 1.783,-0.121 0.390,-0.359 0.599,-0.979 0.599,-1.593 0,-0.614 -0.210,-1.209 -0.593,-1.525 -0.383,-0.316 -0.947,-0.397 -1.779,0.058 -0.444,0.242 -0.807,0.367 -1.117,0.376 C 9.634,-1.102 9.376,-1.223 9.206,-1.436 8.866,-1.861 8.827,-2.582 8.874,-3.469 8.967,-5.203 9.447,-7.588 9.437,-9.461 7.528,-9.574 5.193,-9.950 3.521,-9.897 Z" /> 
<path id="p13" d="m 0.014,-13.385 c -0.614,0 -1.194,0.210 -1.486,0.589 -0.291,0.379 -0.343,0.943 0.160,1.777 v 0.002 c 0.267,0.444 0.406,0.810 0.425,1.126 0.018,0.316 -0.100,0.583 -0.316,0.761 -0.432,0.357 -1.181,0.417 -2.103,0.380 -1.801,-0.071 -4.275,-0.572 -6.160,-0.687 0.005,1.922 -0.470,4.298 -0.560,5.980 -0.046,0.864 0.033,1.536 0.267,1.830 0.117,0.146 0.258,0.218 0.494,0.210 0.235,-0.007 0.561,-0.108 0.982,-0.337 0.898,-0.493 1.632,-0.423 2.113,-0.027 0.481,0.396 0.705,1.074 0.705,1.755 0,0.680 -0.222,1.376 -0.697,1.814 -0.474,0.437 -1.206,0.580 -2.109,0.173 -0.419,-0.189 -0.752,-0.265 -1.001,-0.257 -0.249,0.007 -0.418,0.089 -0.552,0.238 -0.268,0.298 -0.379,0.925 -0.359,1.740 0.039,1.593 0.531,3.859 0.718,5.769 1.910,-0.022 4.128,0.300 5.695,0.230 0.802,-0.035 1.421,-0.183 1.736,-0.484 0.157,-0.150 0.249,-0.336 0.269,-0.595 0.019,-0.259 -0.040,-0.592 -0.205,-1.011 -0.353,-0.905 -0.164,-1.634 0.298,-2.105 0.462,-0.470 1.170,-0.695 1.851,-0.695 0.681,0 1.352,0.223 1.724,0.708 C 2.277,5.988 2.302,6.722 1.758,7.618 1.503,8.038 1.382,8.377 1.362,8.637 c -0.020,0.260 0.048,0.442 0.195,0.595 0.294,0.307 0.964,0.478 1.837,0.525 C 5.098,9.851 7.526,9.526 9.440,9.458 9.490,7.582 9.076,5.165 9.041,3.415 9.024,2.520 9.091,1.793 9.451,1.376 9.632,1.167 9.899,1.055 10.213,1.075 c 0.313,0.019 0.679,0.157 1.121,0.416 h 0.002 c 0.831,0.484 1.396,0.420 1.777,0.119 0.381,-0.301 0.591,-0.888 0.591,-1.503 0,-0.615 -0.210,-1.244 -0.603,-1.621 -0.392,-0.376 -0.959,-0.531 -1.785,-0.187 -0.444,0.185 -0.810,0.268 -1.121,0.25 -0.310,-0.018 -0.565,-0.146 -0.742,-0.355 -0.353,-0.418 -0.423,-1.103 -0.404,-1.935 0.036,-1.617 0.441,-3.825 0.388,-5.685 -1.861,0.142 -4.012,0.633 -5.580,0.699 -0.808,0.033 -1.473,-0.036 -1.878,-0.394 -0.202,-0.179 -0.325,-0.434 -0.343,-0.746 -0.018,-0.311 0.058,-0.679 0.234,-1.125 0.326,-0.824 0.161,-1.393 -0.222,-1.787 -0.384,-0.393 -1.018,-0.603 -1.632,-0.603 z" /> 
<path id="p23" d="m -3.552,-9.957 c -1.660,-0.038 -3.994,0.360 -5.906,0.496 0.058,1.917 -0.354,4.148 -0.390,5.724 -0.018,0.807 0.079,1.432 0.333,1.734 0.127,0.150 0.286,0.235 0.529,0.25 0.243,0.014 0.569,-0.051 0.988,-0.226 0.904,-0.376 1.634,-0.204 2.107,0.248 0.472,0.453 0.695,1.155 0.695,1.837 -10e-7,0.682 -0.221,1.357 -0.705,1.740 -0.483,0.382 -1.218,0.426 -2.115,-0.097 -0.419,-0.245 -0.749,-0.359 -0.990,-0.375 -0.240,-0.015 -0.388,0.054 -0.513,0.199 -0.250,0.289 -0.355,0.963 -0.337,1.835 0.033,1.698 0.443,4.107 0.396,6.031 1.881,-0.068 4.226,-0.444 5.945,-0.398 0.880,0.023 1.605,0.147 2.029,0.542 0.211,0.197 0.336,0.470 0.341,0.794 0.004,0.324 -0.099,0.700 -0.320,1.146 -0.412,0.826 -0.303,1.389 0.035,1.775 0.339,0.386 0.948,0.595 1.562,0.595 0.614,0 1.220,-0.209 1.556,-0.595 0.336,-0.385 0.444,-0.946 0.027,-1.773 v -0.002 C 1.493,11.081 1.380,10.710 1.375,10.389 1.369,10.068 1.481,9.798 1.681,9.602 2.082,9.211 2.778,9.099 3.628,9.083 5.290,9.050 7.583,9.424 9.458,9.442 9.317,7.512 9.711,5.089 9.755,3.356 9.778,2.465 9.688,1.764 9.441,1.448 9.318,1.290 9.169,1.212 8.933,1.214 8.697,1.215 8.371,1.313 7.951,1.542 7.054,2.033 6.323,1.961 5.843,1.563 5.363,1.165 5.142,0.486 5.142,-0.194 c 0,-0.680 0.221,-1.377 0.695,-1.814 0.473,-0.436 1.203,-0.577 2.103,-0.167 0.420,0.190 0.755,0.271 1.009,0.269 0.254,-0.001 0.427,-0.076 0.566,-0.216 0.277,-0.280 0.406,-0.878 0.412,-1.667 0.010,-1.541 -0.397,-3.760 -0.468,-5.669 -1.911,-0.126 -4.237,-0.524 -5.855,-0.488 -0.827,0.018 -1.455,0.163 -1.736,0.451 -0.140,0.144 -0.211,0.319 -0.199,0.576 0.011,0.256 0.115,0.592 0.341,1.011 0.483,0.899 0.405,1.632 0.003,2.113 -0.401,0.480 -1.082,0.703 -1.763,0.703 -0.681,0 -1.376,-0.222 -1.810,-0.697 -0.434,-0.475 -0.572,-1.208 -0.158,-2.111 0.193,-0.417 0.270,-0.751 0.259,-1.007 -0.010,-0.256 -0.099,-0.435 -0.261,-0.583 -0.323,-0.297 -0.985,-0.443 -1.833,-0.462 z" /> 
<path id="p33" d="m -3.707,-9.760 c -1.582,0.010 -3.817,0.385 -5.730,0.300 0.071,1.871 0.477,4.076 0.466,5.669 -0.005,0.817 -0.111,1.487 -0.498,1.876 -0.193,0.194 -0.459,0.304 -0.777,0.306 -0.318,0.002 -0.689,-0.094 -1.134,-0.296 -0.824,-0.375 -1.388,-0.243 -1.777,0.115 -0.388,0.358 -0.597,0.979 -0.597,1.593 0,0.614 0.209,1.208 0.591,1.525 0.382,0.317 0.944,0.401 1.773,-0.052 0.444,-0.241 0.809,-0.360 1.123,-0.363 0.313,-0.002 0.573,0.128 0.746,0.349 0.345,0.442 0.402,1.188 0.378,2.099 -0.045,1.778 -0.438,4.203 -0.298,6.072 1.872,-0.022 4.215,-0.454 5.957,-0.490 0.893,-0.018 1.634,0.057 2.089,0.412 0.227,0.177 0.373,0.436 0.398,0.751 0.025,0.315 -0.058,0.685 -0.255,1.130 -0.365,0.826 -0.226,1.392 0.138,1.783 0.364,0.390 0.988,0.599 1.603,0.599 0.615,0 1.210,-0.210 1.523,-0.593 0.313,-0.383 0.389,-0.945 -0.074,-1.777 C 1.691,10.810 1.558,10.442 1.532,10.124 1.506,9.806 1.597,9.533 1.784,9.339 2.158,8.949 2.835,8.853 3.671,8.856 5.301,8.862 7.584,9.304 9.462,9.436 9.393,7.518 9.812,5.217 9.862,3.577 9.888,2.733 9.798,2.073 9.548,1.758 9.422,1.601 9.266,1.516 9.026,1.505 8.786,1.493 8.461,1.566 8.042,1.757 7.141,2.164 6.410,2.019 5.936,1.581 5.463,1.143 5.243,0.448 5.243,-0.233 c 0,-0.681 0.221,-1.361 0.701,-1.759 0.479,-0.397 1.211,-0.469 2.107,0.021 0.420,0.229 0.752,0.334 0.998,0.347 0.245,0.012 0.401,-0.054 0.529,-0.193 0.255,-0.277 0.366,-0.916 0.351,-1.751 -0.028,-1.631 -0.457,-3.967 -0.468,-5.886 -1.929,0.136 -4.329,-0.244 -6.019,-0.267 -0.866,-0.011 -1.534,0.091 -1.822,0.341 -0.143,0.125 -0.213,0.274 -0.199,0.515 0.014,0.240 0.127,0.571 0.369,0.992 0.513,0.897 0.461,1.630 0.074,2.113 -0.386,0.482 -1.062,0.705 -1.744,0.705 -0.681,0 -1.381,-0.222 -1.830,-0.695 -0.448,-0.473 -0.612,-1.203 -0.228,-2.107 0.178,-0.419 0.245,-0.748 0.232,-0.994 -0.013,-0.246 -0.097,-0.411 -0.25,-0.542 -0.305,-0.263 -0.937,-0.370 -1.751,-0.365 z" /> 
<path id="p43" d="m -3.333,-9.930 c -1.737,-0.075 -4.194,0.296 -6.105,0.468 0.010,1.874 0.438,4.206 0.468,5.888 0.015,0.860 -0.060,1.558 -0.429,1.958 -0.184,0.200 -0.450,0.307 -0.765,0.291 -0.315,-0.016 -0.682,-0.142 -1.126,-0.384 -0.828,-0.453 -1.388,-0.372 -1.771,-0.054 -0.382,0.317 -0.593,0.914 -0.593,1.529 0,0.614 0.210,1.235 0.599,1.595 0.388,0.359 0.951,0.492 1.775,0.121 0.445,-0.202 0.813,-0.294 1.125,-0.279 0.311,0.015 0.567,0.149 0.740,0.367 0.346,0.434 0.407,1.146 0.380,2.013 -0.051,1.689 -0.472,3.988 -0.404,5.853 1.861,0.084 4.153,-0.377 5.816,-0.482 0.853,-0.053 1.547,-0.025 1.964,0.302 0.208,0.164 0.328,0.415 0.326,0.720 -0.002,0.304 -0.111,0.664 -0.332,1.107 -0.412,0.829 -0.302,1.393 0.037,1.781 0.339,0.387 0.946,0.595 1.560,0.595 0.614,10e-7 1.221,-0.208 1.558,-0.595 0.336,-0.386 0.442,-0.951 0.025,-1.781 C 1.293,10.643 1.186,10.273 1.187,9.956 1.189,9.638 1.312,9.373 1.523,9.188 1.947,8.819 2.664,8.736 3.539,8.757 5.242,8.796 7.571,9.274 9.449,9.432 V -9.457 C 7.541,-9.421 5.359,-9.784 3.826,-9.762 c -0.787,0.011 -1.390,0.137 -1.687,0.416 -0.148,0.139 -0.233,0.313 -0.248,0.566 -0.014,0.253 0.050,0.584 0.218,1.003 0.366,0.904 0.187,1.635 -0.269,2.107 -0.456,0.471 -1.160,0.693 -1.841,0.693 -0.680,0 -1.353,-0.222 -1.730,-0.707 -0.376,-0.484 -0.410,-1.218 0.123,-2.115 0.249,-0.419 0.364,-0.757 0.378,-1.017 0.014,-0.260 -0.059,-0.442 -0.214,-0.597 -0.310,-0.309 -0.998,-0.478 -1.888,-0.517 z" /> 
<path id="p04" d="m 0.021,-14.134 c -0.614,0 -1.244,0.208 -1.621,0.601 -0.376,0.392 -0.532,0.959 -0.191,1.785 0.185,0.444 0.267,0.821 0.251,1.146 -0.015,0.325 -0.133,0.598 -0.333,0.804 -0.400,0.411 -1.078,0.563 -1.902,0.613 -1.603,0.096 -3.801,-0.219 -5.673,-0.259 V 4.6 c 0,2.680 2.169,4.849 4.849,4.849 H 9.466 C 9.656,7.541 10.109,5.245 10.112,3.611 10.114,2.775 9.987,2.123 9.702,1.801 9.560,1.639 9.385,1.549 9.132,1.533 8.879,1.517 8.547,1.586 8.130,1.767 7.226,2.159 6.494,2.001 6.021,1.557 5.547,1.112 5.325,0.413 5.325,-0.267 c 0,-0.680 0.220,-1.356 0.703,-1.746 0.482,-0.389 1.217,-0.446 2.115,0.062 0.419,0.236 0.753,0.347 1.005,0.363 0.252,0.015 0.419,-0.051 0.556,-0.191 0.274,-0.279 0.406,-0.919 0.404,-1.759 -0.004,-1.641 -0.459,-3.995 -0.644,-5.906 -1.889,0.051 -4.330,0.373 -6.107,0.273 C 2.450,-9.222 1.708,-9.372 1.292,-9.790 1.084,-9.999 0.973,-10.284 0.989,-10.614 c 0.016,-0.330 0.150,-0.706 0.410,-1.150 0.486,-0.832 0.423,-1.396 0.123,-1.777 -0.300,-0.381 -0.887,-0.591 -1.501,-0.591 z" /> 
<path id="p14" d="m 0.180,-14.105 c -0.614,0 -1.249,0.209 -1.636,0.603 -0.387,0.394 -0.556,0.962 -0.234,1.787 0.175,0.446 0.248,0.822 0.224,1.144 -0.024,0.322 -0.153,0.590 -0.361,0.789 -0.414,0.396 -1.101,0.531 -1.931,0.568 -1.613,0.071 -3.807,-0.250 -5.673,-0.232 0.184,1.881 0.637,4.217 0.642,5.906 0.002,0.868 -0.098,1.574 -0.488,1.970 -0.195,0.198 -0.470,0.301 -0.791,0.281 -0.320,-0.020 -0.691,-0.151 -1.134,-0.402 -0.832,-0.471 -1.394,-0.400 -1.777,-0.091 -0.382,0.308 -0.593,0.899 -0.593,1.513 0,0.614 0.210,1.237 0.601,1.605 0.391,0.367 0.956,0.512 1.783,0.154 0.445,-0.193 0.819,-0.277 1.140,-0.257 0.320,0.020 0.586,0.153 0.777,0.369 0.381,0.431 0.488,1.145 0.486,2.009 -0.003,1.680 -0.457,3.957 -0.646,5.835 H 9.438 C 9.402,7.576 8.974,5.269 8.95,3.557 8.937,2.678 9.021,1.949 9.381,1.498 9.561,1.273 9.819,1.129 10.135,1.1 c 0.316,-0.029 0.687,0.046 1.132,0.232 0.825,0.343 1.390,0.188 1.783,-0.187 0.392,-0.375 0.603,-1.004 0.603,-1.619 0,-0.614 -0.210,-1.201 -0.591,-1.503 -0.381,-0.302 -0.944,-0.366 -1.777,0.117 -0.442,0.259 -0.809,0.400 -1.126,0.431 -0.317,0.030 -0.590,-0.060 -0.783,-0.25 -0.385,-0.379 -0.475,-1.069 -0.470,-1.919 0.009,-1.655 0.437,-3.968 0.529,-5.843 -1.885,0.068 -4.301,0.395 -6.054,0.300 C 2.478,-9.191 1.743,-9.338 1.340,-9.759 1.139,-9.969 1.037,-10.254 1.063,-10.585 c 0.025,-0.330 0.169,-0.707 0.439,-1.152 0.506,-0.833 0.454,-1.397 0.164,-1.777 -0.290,-0.379 -0.871,-0.589 -1.486,-0.589 z" /> 
<path id="p24" d="m -3.523,-9.858 c -1.669,-0.044 -4.022,0.329 -5.937,0.398 -0.090,1.915 -0.523,4.251 -0.533,5.863 -0.004,0.824 0.117,1.444 0.380,1.703 0.131,0.129 0.292,0.190 0.542,0.166 0.250,-0.024 0.583,-0.144 1.003,-0.390 h 0.002 c 0.897,-0.521 1.629,-0.476 2.113,-0.093 0.483,0.383 0.707,1.056 0.707,1.738 0,0.681 -0.222,1.383 -0.695,1.835 -0.472,0.452 -1.203,0.622 -2.107,0.246 -0.417,-0.174 -0.745,-0.233 -0.990,-0.210 -0.245,0.023 -0.411,0.119 -0.546,0.289 -0.270,0.338 -0.377,1.013 -0.365,1.867 0.024,1.666 0.452,3.980 0.488,5.896 H 9.464 C 9.341,7.524 9.807,5.236 9.923,3.644 9.983,2.826 9.923,2.203 9.712,1.945 9.607,1.816 9.476,1.754 9.246,1.767 9.015,1.781 8.691,1.886 8.271,2.111 7.372,2.595 6.638,2.516 6.158,2.115 5.677,1.714 5.455,1.032 5.455,0.351 c 0,-0.680 0.221,-1.373 0.697,-1.806 0.475,-0.432 1.208,-0.569 2.111,-0.152 0.417,0.193 0.747,0.267 0.994,0.253 0.247,-0.013 0.414,-0.102 0.550,-0.267 0.272,-0.329 0.385,-1.007 0.367,-1.871 C 10.139,-5.182 9.652,-7.544 9.466,-9.458 7.550,-9.475 5.246,-9.849 3.634,-9.817 2.810,-9.801 2.182,-9.664 1.892,-9.382 c -0.144,0.141 -0.220,0.312 -0.216,0.566 0.004,0.253 0.097,0.587 0.308,1.007 0.452,0.898 0.347,1.630 -0.068,2.107 -0.415,0.476 -1.102,0.699 -1.783,0.699 -0.680,0 -1.368,-0.222 -1.787,-0.699 -0.418,-0.476 -0.527,-1.207 -0.080,-2.105 0.207,-0.419 0.292,-0.754 0.289,-1.009 -0.003,-0.255 -0.088,-0.432 -0.246,-0.580 -0.315,-0.294 -0.978,-0.440 -1.832,-0.462 z" /> 
<path id="p34" d="M 3.671,-10.044 C 2.863,-10.047 2.258,-9.919 2.001,-9.651 1.872,-9.518 1.810,-9.353 1.831,-9.101 c 0.020,0.252 0.134,0.587 0.369,1.007 0.501,0.898 0.438,1.633 0.044,2.115 C 1.851,-5.496 1.171,-5.275 0.489,-5.275 c -0.682,0 -1.380,-0.223 -1.822,-0.697 -0.442,-0.474 -0.594,-1.204 -0.195,-2.107 v -0.002 h 0.002 c 0.185,-0.417 0.249,-0.741 0.230,-0.984 -0.019,-0.242 -0.112,-0.404 -0.283,-0.537 -0.340,-0.265 -1.028,-0.369 -1.898,-0.351 -1.692,0.034 -4.038,0.465 -5.955,0.490 0.185,1.883 0.669,4.231 0.707,5.966 0.019,0.889 -0.067,1.623 -0.435,2.068 -0.183,0.222 -0.446,0.359 -0.765,0.376 -0.318,0.017 -0.691,-0.074 -1.136,-0.281 -0.827,-0.382 -1.391,-0.255 -1.781,0.099 -0.389,0.354 -0.599,0.971 -0.599,1.585 0,0.614 0.209,1.212 0.593,1.533 0.384,0.321 0.948,0.409 1.779,-0.037 0.442,-0.237 0.798,-0.361 1.099,-0.378 0.301,-0.017 0.554,0.086 0.716,0.285 0.325,0.397 0.338,1.073 0.277,1.912 -0.119,1.637 -0.584,3.922 -0.460,5.783 h 18.875 C 9.238,7.567 8.878,5.306 8.981,3.680 9.034,2.843 9.199,2.160 9.632,1.787 c 0.216,-0.186 0.500,-0.282 0.832,-0.265 0.331,0.017 0.711,0.139 1.156,0.375 0.827,0.439 1.389,0.346 1.773,0.021 0.383,-0.325 0.593,-0.924 0.593,-1.539 0,-0.614 -0.209,-1.231 -0.597,-1.583 -0.388,-0.352 -0.950,-0.477 -1.775,-0.089 -0.446,0.210 -0.819,0.305 -1.140,0.289 -0.320,-0.016 -0.587,-0.154 -0.775,-0.376 C 9.322,-1.827 9.217,-2.565 9.202,-3.460 9.172,-5.213 9.522,-7.587 9.444,-9.464 7.535,-9.598 5.247,-10.038 3.671,-10.044 Z" /> 
<path id="p44" d="m 3.533,-10.142 c -0.848,-0.019 -1.507,0.091 -1.812,0.357 -0.152,0.132 -0.232,0.296 -0.234,0.542 -0.001,0.246 0.087,0.575 0.296,0.994 0.452,0.900 0.349,1.635 -0.066,2.113 -0.415,0.478 -1.104,0.699 -1.785,0.699 -0.680,0 -1.368,-0.221 -1.787,-0.699 -0.418,-0.477 -0.527,-1.212 -0.080,-2.113 0.209,-0.419 0.299,-0.742 0.300,-0.974 0.001,-0.232 -0.068,-0.372 -0.210,-0.484 -0.284,-0.223 -0.927,-0.290 -1.759,-0.238 -1.621,0.102 -3.926,0.570 -5.851,0.482 0.077,1.923 -0.269,4.294 -0.240,5.996 0.014,0.871 0.143,1.556 0.425,1.890 0.141,0.167 0.311,0.256 0.560,0.269 0.248,0.012 0.577,-0.062 0.996,-0.259 0.899,-0.422 1.631,-0.291 2.105,0.138 0.474,0.430 0.697,1.125 0.697,1.806 0,0.681 -0.222,1.364 -0.701,1.769 -0.478,0.405 -1.210,0.489 -2.107,0.013 -0.420,-0.222 -0.762,-0.325 -1.031,-0.339 -0.268,-0.013 -0.460,0.054 -0.619,0.191 -0.318,0.274 -0.497,0.878 -0.548,1.683 -0.099,1.572 0.260,3.850 0.458,5.751 H 4.6 c 2.680,0 4.849,-2.169 4.849,-4.849 V -9.466 C 7.536,-9.625 5.192,-10.103 3.533,-10.142 Z" /> 
</g> 
<g inkscape:groupmode="layer" id="layer4" inkscape:label="template" > 
<rect id="rect417" width="19.200" height="19.200" x="-9.600" y="-9.600" /> 
<rect y="-15.000" x="-15" height="30" width="30" id="rect1224" /> 
</g>
</svg>
