<?xml version="1.0" encoding="UTF-8" standalone="no"?>
<svg xmlns:svg="http://www.w3.org/2000/svg" xmlns="http://www.w3.org/2000/svg" version="1.0" width="100%" height="100%" viewBox="0 0 48 132" id="svg2985" style="display:inline">
<defs id="defs2987"/>
<g id="g2438">
<path d="M 24,96.19 L 0.12,108.22 L 0.19,119.83 L 24,131.77 L 24,96.19 z" id="p3863" style="fill:#4a96b6;fill-opacity:1;stroke:none"/>
<path d="M 23.96,96.41 L 23.97,131.81 L 47.93,119.87 L 47.93,108.12 L 23.96,96.41 z" id="p3863-0" style="fill:#6da4b7;fill-opacity:1;stroke:none"/>
<path d="M 24,120 L 24,131.12" id="p3976" style="fill:none;stroke:#7db2c5;stroke-width:2;stroke-linecap:butt;stroke-linejoin:miter;marker:none;stroke-miterlimit:4;stroke-dasharray:none;stroke-dashoffset:0;stroke-opacity:1;visibility:visible;display:inline;overflow:visible;enable-background:accumulate"/>
<path d="M 24,120 L 0.16,108.06 L 24,96.12 L 47.87,108.12 L 24,120 z" id="p2993" style="fill:#90cce0;fill-opacity:1;stroke:none"/>
<path d="M 0.75,108.37 L 24,120 L 47.31,108.34" id="p2993-8" style="fill:none;stroke:#cdf4f9;stroke-width:1.5;stroke-linejoin:round;stroke-miterlimit:4;stroke-dasharray:none;stroke-opacity:1"/>
<path d="M 24,96.55 L 47.5,108.31 L 47.5,119.69 L 24,131.44 L 0.5,119.7 L 0.5,108.3 L 24,96.55 z" id="p3034" style="fill:none;fill-opacity:1;fill-rule:nonzero;stroke:#4a96b6;stroke-width:1;stroke-linecap:butt;stroke-linejoin:miter;marker:none;stroke-miterlimit:4;stroke-dasharray:none;stroke-dashoffset:0;stroke-opacity:1;visibility:visible;display:inline;overflow:visible;enable-background:accumulate"/>
</g>
<g id="g4256">
<path d="M 24,90.28 C 15.9,90.28 9.34,93.24 9.34,96.87 C 9.34,101.18 9.34,104.47 9.34,107.71 C 9.34,111.34 15.9,114.28 24,114.28 C 32.09,114.28 38.65,111.34 38.65,107.71 C 38.65,104.04 38.65,101.65 38.65,96.87 C 38.65,93.24 32.09,90.28 24,90.28 z" id="p2398" style="opacity:1;fill:#484848;fill-opacity:1;fill-rule:nonzero;stroke:none;marker:none;visibility:visible;display:inline;overflow:visible;enable-background:accumulate"/>
<path d="M 38.9,101.36 C 38.9,103.77 36.01,105.87 31.71,107.02 M 38.87,101.08 C 38.88,101.18 38.9,101.27 38.9,101.36 C 38.9,101.27 38.9,101.17 38.9,101.08 L 38.87,101.08 z" id="p4234" style="opacity:1;fill:none;fill-opacity:1;fill-rule:nonzero;stroke:#858585;stroke-width:0.60;stroke-linecap:round;stroke-linejoin:miter;marker:none;stroke-miterlimit:4;stroke-dasharray:none;stroke-dashoffset:0;stroke-opacity:1;visibility:visible;display:inline;overflow:visible;enable-background:accumulate"/>
<path d="M 21.93,90.34 C 18.1,90.58 14.75,91.5 12.46,92.81 L 12.46,111.78 C 14.75,113.08 18.1,113.97 21.93,114.21 L 21.93,90.34 z" id="p4158" style="opacity:1;fill:#3f3f3f;fill-opacity:1;fill-rule:nonzero;stroke:none;marker:none;visibility:visible;display:inline;overflow:visible;enable-background:accumulate"/>
<path d="M 23.87,90 C 15.82,90 9.31,92.90 9.31,96.46 C 9.31,100.03 15.82,102.90 23.87,102.90 C 31.91,102.90 38.43,100.03 38.43,96.46 C 38.43,92.90 31.91,89.99 23.87,90 z" id="p2400" style="opacity:1;fill:#bcbcbc;fill-opacity:1;fill-rule:nonzero;stroke:none;marker:none;visibility:visible;display:inline;overflow:visible;enable-background:accumulate"/>
<path d="M 24,85.18 C 17.17,85.18 11.62,87.66 11.62,90.71 C 13.67,94.16 12.56,93.42 11.62,96.87 C 11.62,99.93 17.17,102.4 24,102.4 C 30.82,102.4 36.37,99.93 36.37,96.87 C 34.32,93.41 35.43,94.16 36.37,90.71 C 36.37,87.66 30.82,85.18 24,85.18 z" id="p2402" style="opacity:1;fill:#5d5d5d;fill-opacity:1;fill-rule:nonzero;stroke:none;marker:none;visibility:visible;display:inline;overflow:visible;enable-background:accumulate"/>
<path d="M 35,88.21 L 32.93,88.93 L 34.56,91.9 L 34.28,91.9 C 34.3,92.03 34.31,92.15 34.31,92.28 C 34.31,92.34 34.31,92.4 34.31,92.46 L 33.87,92.46 C 34,92.6 34.12,92.73 34.21,92.87 C 34.11,93.18 33.92,93.49 33.62,93.81 C 33.13,94.32 32.37,94.83 31.43,95.25 C 29.56,96.08 26.92,96.62 24,96.62 C 21.07,96.62 18.43,96.08 16.56,95.25 C 15.62,94.83 14.86,94.32 14.37,93.81 C 14.07,93.49 13.88,93.18 13.78,92.87 C 13.78,92.86 13.77,92.84 13.78,92.84 C 13.72,92.65 13.68,92.47 13.68,92.28 C 13.68,92.15 13.69,92.03 13.71,91.9 L 13.53,91.9 L 15.62,91 L 14.15,88.65 L 12.28,88.93 C 11.86,89.49 11.62,90.09 11.62,90.71 C 12.55,92.27 12.81,92.97 12.75,93.59 L 12.78,93.59 C 12.77,93.63 12.75,93.67 12.75,93.71 C 12.74,93.73 12.75,93.76 12.75,93.78 C 12.73,93.85 12.71,93.92 12.68,94 C 12.65,94.1 12.6,94.2 12.56,94.31 C 12.54,94.36 12.52,94.41 12.5,94.46 C 12.43,94.61 12.38,94.76 12.31,94.93 C 12.21,95.16 12.11,95.35 12,95.65 C 11.99,95.66 12,95.67 12,95.68 C 11.99,95.72 12,95.77 12,95.81 C 12,96.67 12.38,97.47 13.03,98.15 C 13.67,98.83 14.57,99.42 15.65,99.9 C 17.82,100.87 20.76,101.46 24,101.46 C 27.23,101.46 30.17,100.87 32.34,99.9 C 33.42,99.42 34.32,98.83 34.96,98.15 C 35.52,97.56 35.87,96.88 35.96,96.15 C 35.94,96.1 35.93,96.07 35.9,96.03 C 35.76,95.77 35.65,95.54 35.56,95.34 C 35.54,95.31 35.54,95.27 35.53,95.25 C 35.43,95.01 35.35,94.8 35.31,94.62 C 35.03,93.48 35.72,93.08 36.37,90.71 C 36.37,89.81 35.86,88.97 35,88.21 z M 13.43,94.25 C 13.5,94.33 13.57,94.41 13.65,94.5 C 14.26,95.14 15.1,95.69 16.12,96.15 C 18.17,97.07 20.94,97.62 24,97.62 C 27.05,97.62 29.82,97.07 31.87,96.15 C 32.89,95.69 33.73,95.14 34.34,94.5 C 34.42,94.41 34.49,94.33 34.56,94.25 C 34.49,94.69 34.25,95.12 33.84,95.56 C 33.34,96.09 32.58,96.6 31.62,97.03 C 29.7,97.89 26.99,98.43 24,98.43 C 21,98.43 18.29,97.89 16.37,97.03 C 15.41,96.6 14.65,96.09 14.15,95.56 C 13.74,95.12 13.5,94.69 13.43,94.25 z M 13,95.71 C 13.12,95.89 13.28,96.08 13.43,96.25 C 14.06,96.91 14.92,97.46 15.96,97.93 C 18.06,98.87 20.87,99.43 24,99.43 C 27.12,99.43 29.93,98.87 32.03,97.93 C 33.07,97.46 33.93,96.91 34.56,96.25 C 34.71,96.08 34.87,95.89 35,95.71 C 35,95.74 35,95.78 35,95.81 C 35,96.37 34.73,96.94 34.21,97.5 C 33.69,98.05 32.93,98.55 31.93,99 C 29.94,99.89 27.11,100.46 24,100.46 C 20.88,100.46 18.05,99.89 16.06,99 C 15.06,98.55 14.3,98.05 13.78,97.5 C 13.26,96.94 13,96.37 13,95.81 C 13,95.78 12.99,95.74 13,95.71 z" id="p4163" style="opacity:1;fill:#3d3d3d;fill-opacity:1;fill-rule:nonzero;stroke:none;marker:none;visibility:visible;display:inline;overflow:visible;enable-background:accumulate"/>
<path d="M 24,85.18 C 20.46,85.18 17.28,85.84 15.03,86.9 C 15.97,90.71 15.68,94.58 13.56,99.81 C 15.45,101.14 18.57,102.1 22.21,102.34 C 21.3,98.26 22.66,92.56 32.4,86.65 C 30.19,85.74 27.24,85.18 24,85.18 z" id="p4210" style="fill:#212121;fill-opacity:0.27;fill-rule:evenodd;stroke:none"/>
<path d="M 24,85.18 C 17.17,85.18 11.62,87.66 11.62,90.71 C 12.44,92.08 12.75,92.8 12.78,93.37 C 14.96,95.14 19.17,96.34 24,96.34 C 29.03,96.34 33.4,95.05 35.5,93.15 C 35.72,92.61 36.04,91.92 36.37,90.71 C 36.37,87.66 30.82,85.18 24,85.18 z" id="p3271" style="opacity:1;fill:#101010;fill-opacity:0.56;fill-rule:nonzero;stroke:none;marker:none;visibility:visible;display:inline;overflow:visible;enable-background:accumulate"/>
<path d="M 38.65,107.71 C 38.65,104.04 38.65,101.65 38.65,96.87 C 38.65,95.36 37.5,93.98 35.59,92.87 C 35.81,92.37 36.09,91.73 36.37,90.71 C 36.37,87.66 30.82,85.18 24,85.18 C 17.17,85.18 11.62,87.66 11.62,90.71 C 12.16,91.61 12.46,92.24 12.62,92.71 C 10.57,93.85 9.34,95.3 9.34,96.87 C 9.34,101.18 9.34,104.47 9.34,107.71" id="p4046" style="opacity:1;fill:none;fill-opacity:1;fill-rule:nonzero;stroke:#3d3d3d;stroke-width:1;stroke-linecap:round;stroke-linejoin:miter;marker:none;stroke-miterlimit:4;stroke-dasharray:none;stroke-dashoffset:0;stroke-opacity:1;visibility:visible;display:inline;overflow:visible;enable-background:accumulate"/>
<path d="M 24,73.59 C 14.77,73.59 7.28,76.96 7.28,81.09 C 7.28,83.03 7.28,84.39 7.28,86.34 C 7.28,90.47 14.77,93.84 24,93.84 C 33.22,93.84 40.71,90.47 40.71,86.34 C 40.71,84.84 40.71,83.21 40.71,81.09 C 40.71,76.96 33.22,73.59 24,73.59 z" id="p2406" style="opacity:1;fill:#323232;fill-opacity:1;fill-rule:nonzero;stroke:none;marker:none;visibility:visible;display:inline;overflow:visible;enable-background:accumulate"/>
<path d="M 10,84.03 L 10,90.43 C 12.27,91.99 15.8,93.12 19.93,93.59 L 19.93,87.21 L 10,84.03 z" id="p4039" style="opacity:1;fill:#292929;fill-opacity:1;fill-rule:nonzero;stroke:none;marker:none;visibility:visible;display:inline;overflow:visible;enable-background:accumulate"/>
<path d="M 23.90,73.15 C 14.70,73.15 7.25,76.41 7.25,80.43 C 7.25,84.45 14.70,87.71 23.90,87.71 C 33.09,87.71 40.56,84.45 40.56,80.43 C 40.56,76.41 33.09,73.15 23.90,73.15 z" id="p2408" style="opacity:1;fill:#656565;fill-opacity:1;fill-rule:nonzero;stroke:none;marker:none;visibility:visible;display:inline;overflow:visible;enable-background:accumulate"/>
<path d="M 24,73.59 C 14.77,73.59 7.28,76.96 7.28,81.09 C 7.28,83.03 7.28,84.39 7.28,86.34 C 7.28,90.47 14.77,93.84 24,93.84 C 33.22,93.84 40.71,90.47 40.71,86.34 C 40.71,84.84 40.71,83.21 40.71,81.09 C 40.71,76.96 33.22,73.59 24,73.59 z" id="p4044" style="opacity:1;fill:none;fill-opacity:1;fill-rule:nonzero;stroke:#29292a;stroke-width:1;stroke-linecap:round;stroke-linejoin:miter;marker:none;stroke-miterlimit:4;stroke-dasharray:none;stroke-dashoffset:0;stroke-opacity:1;visibility:visible;display:inline;overflow:visible;enable-background:accumulate"/>
<path d="M 23.87,74.81 C 16.4,74.81 10.31,77.51 10.31,80.84 C 10.31,84.17 16.39,86.87 23.87,86.87 C 31.34,86.87 37.37,84.17 37.37,80.84 C 37.37,77.51 31.34,74.81 23.87,74.81 z" id="p3268" style="opacity:1;fill:#919191;fill-opacity:1;fill-rule:nonzero;stroke:none;marker:none;visibility:visible;display:inline;overflow:visible;enable-background:accumulate"/>
<path d="M 32.72,82.69 C 32.72,84.85 28.81,86.6 23.99,86.6 C 19.18,86.6 15.27,84.85 15.27,82.69 C 15.27,80.53 19.18,78.78 23.99,78.78 C 28.81,78.78 32.72,80.53 32.72,82.69 L 32.72,82.69 z" id="p3173" style="opacity:1;fill:#272727;fill-opacity:1;fill-rule:nonzero;stroke:none;marker:none;visibility:visible;display:inline;overflow:visible;enable-background:accumulate"/>
<path d="M 33.37,85.86 C 35.25,85.39 37.30,84.36 38.09,83.44" id="p3276" style="opacity:1;fill:none;fill-opacity:1;fill-rule:nonzero;stroke:#838383;stroke-width:1;stroke-linecap:round;stroke-linejoin:round;marker:none;stroke-miterlimit:4;stroke-dasharray:none;stroke-dashoffset:0;stroke-opacity:1;visibility:visible;display:inline;overflow:visible;enable-background:accumulate"/>
<path d="M 22.5,68.52 C 23.15,68.52 25.14,68.52 25.92,68.52 C 26.63,68.52 26.55,69.63 26.03,69.63 C 25.9,69.63 25.82,69.64 25.63,69.64 C 25.61,70.06 25.34,77.69 25.35,78.19 C 25.37,79.08 27.05,78.4 27.07,79.33 C 27.07,79.81 26.91,83.78 26.83,84.25 C 26.76,84.62 21.35,84.46 21.24,84.07 C 21.16,83.73 21.16,80.82 21.16,79.94 C 21.16,78.7 21.98,79.47 22.37,79 C 22.54,78.79 22.84,78.53 22.83,78.21 C 22.81,77.64 22.89,70.03 22.88,69.43 C 22.78,69.43 22.68,69.45 22.5,69.43 C 21.87,69.41 21.86,68.51 22.5,68.51 L 22.5,68.51 L 22.5,68.52 z" id="p3909" style="fill:#bebcb7;fill-opacity:0.5;stroke:none;display:inline"/>
<path d="M 30.88,62.11 C 30.88,62.11 26.92,75.21 26.73,75.88 C 26.54,76.53 26.33,77.58 26.21,78.18 C 26.16,78.44 26.2,78.74 26.2,78.74" id="p3911" style="fill:none;stroke:#000000;stroke-width:0.47;stroke-linecap:round;stroke-linejoin:miter;stroke-miterlimit:4;stroke-dasharray:none;stroke-opacity:0.82;display:inline"/>
<path d="M 16.83,61.12 L 18.47,61.32 C 18.47,61.32 24.06,62.22 24.59,62.5 C 25.11,62.76 26.63,63.15 26.63,63.15 C 26.63,63.15 30.18,62.95 30.59,63.02 C 30.97,63.08 31.17,63.21 31.17,63.21" id="p3913" style="fill:none;stroke:#404040;stroke-width:0.63;stroke-linecap:butt;stroke-linejoin:miter;stroke-miterlimit:4;stroke-dasharray:none;stroke-opacity:0.62;display:inline"/>
<path d="M 17.04,61.12 L 21.32,77.59 C 21.32,77.59 21.69,78.05 21.77,78.71 C 21.79,78.92 21.79,79.17 21.79,79.17" id="p3915" style="fill:none;stroke:#000000;stroke-width:0.47;stroke-linecap:round;stroke-linejoin:miter;stroke-miterlimit:4;stroke-dasharray:none;stroke-opacity:0.82;display:inline"/>
<path d="M 31.28,62.11 L 31.15,63.36" id="p3917" style="fill:none;stroke:#272727;stroke-width:0.47;stroke-linecap:round;stroke-linejoin:miter;stroke-miterlimit:4;stroke-dasharray:none;stroke-opacity:1;display:inline"/>
<path d="M 22.47,69.01 L 26.02,69.04" id="p3919" style="fill:none;stroke:#000000;stroke-width:0.80;stroke-linecap:round;stroke-linejoin:miter;stroke-miterlimit:4;stroke-dasharray:none;stroke-opacity:0.62"/>
<path d="M 23.8,69.14 L 24.93,69.17" id="p3921" style="fill:none;stroke:#f6f6f6;stroke-width:0.97;stroke-linecap:round;stroke-linejoin:miter;stroke-miterlimit:4;stroke-dasharray:none;stroke-opacity:0.81"/>
<path d="M 22.42,79.02 C 22.42,79.04 22.39,79.05 22.37,79.07 C 21.98,79.54 21.17,78.73 21.16,79.98 C 21.16,80.56 21.17,81.87 21.21,82.91 C 22.16,83.28 23.04,82.96 23.33,82.81 C 23.64,82.63 24.64,83.88 25.14,83.62 C 25.63,83.36 25.66,82.83 25.39,82.92 C 25.14,83 24.5,82.79 24.04,82.15 C 23.59,81.51 23.57,81.68 23.38,82 C 23.2,82.32 22.49,83.1 22.23,82.5 C 21.98,82 22.05,80.85 22.42,79.02 z" id="p3927" style="fill:#444e52;fill-opacity:0.66;stroke:none;display:inline"/>
<path d="M 21.51,83.34 C 21.97,83.47 22.15,83.52 22.6,83.21 C 23.05,82.91 23.09,82.76 23.59,83.3 C 24.07,83.83 25.18,84.2 25.5,84.06 C 25.81,83.93 26.68,83.2 26.68,83.2" id="p3929" style="fill:none;stroke:#e9e9e9;stroke-width:0.80;stroke-linecap:round;stroke-linejoin:miter;stroke-miterlimit:4;stroke-dasharray:none;stroke-opacity:0.76;display:inline"/>
<path d="M 23.85,79.72 C 23.69,79.73 23.51,79.81 23.3,79.91 C 22.89,80.09 23.35,81.27 22.96,81.27 C 22.52,81.29 22.63,80.23 22.63,80.23 C 22.63,80.23 22.62,81.27 22.34,81.5 C 22.15,81.66 21.74,81.5 21.19,81.04 C 21.19,81.27 21.19,81.43 21.19,81.69 C 22.2,82.05 22.91,81.61 23.22,81.5 C 23.57,81.37 24.71,81.95 24.98,82.05 C 25.24,82.13 25.34,80.96 25.43,80.64 C 25.52,80.33 25.08,79.93 24.53,79.78 C 24.22,79.7 24.01,79.68 23.85,79.72 z" id="p3931" style="fill:#ededeb;fill-opacity:0.51;stroke:none;display:inline"/>
<path d="M 21.19,83.34 C 21.55,83.47 22.28,83.6 22.6,83.34 C 22.91,83.09 23.13,83.04 23.64,83.52 C 24.12,84.01 24.72,84.11 24.72,84.11" id="p3933" style="fill:none;stroke:#f8f8f8;stroke-width:0.47;stroke-linecap:round;stroke-linejoin:miter;stroke-miterlimit:4;stroke-dasharray:none;stroke-opacity:0.62;display:inline"/>
<path d="M 24.03,78.7 C 24.06,79.33 23.8,81.01 24.03,81.42 C 24.25,81.82 26.34,82.4 26.39,81.87 C 26.42,81.34 26.42,79 26.42,79 C 26.42,79 24.43,78.37 24.03,78.7 z" id="p3935" style="fill:#ededeb;fill-opacity:0.31;stroke:none"/>
<path d="M 26.44,79.02 L 26.36,82.15" id="p3937" style="fill:none;stroke:#403e29;stroke-width:0.31;stroke-linecap:butt;stroke-linejoin:miter;stroke-miterlimit:4;stroke-dasharray:none;stroke-opacity:0.54"/>
<path d="M 21.22,83.04 C 20.56,83.99 20.32,84.6 20.14,85.77" id="p3943" style="fill:none;stroke:#939a9f;stroke-width:0.63;stroke-linecap:butt;stroke-linejoin:miter;stroke-miterlimit:4;stroke-dasharray:none;stroke-opacity:0.61;display:inline"/>
<path d="M 22.5,68.52 C 23.15,68.52 25.14,68.52 25.92,68.52 C 26.63,68.52 26.55,69.63 26.03,69.63 C 25.9,69.63 25.82,69.64 25.63,69.64 C 25.61,70.06 25.34,77.69 25.35,78.19 C 25.37,79.08 27.05,78.4 27.07,79.33 C 27.07,79.81 26.91,83.78 26.83,84.25 C 26.76,84.62 21.35,84.46 21.24,84.07 C 21.16,83.73 21.16,80.82 21.16,79.94 C 21.16,78.7 21.98,79.47 22.37,79 C 22.54,78.79 22.84,78.53 22.83,78.21 C 22.81,77.64 22.89,70.03 22.88,69.43 C 22.78,69.43 22.68,69.45 22.5,69.43 C 21.87,69.41 21.86,68.51 22.5,68.51 L 22.5,68.51 L 22.5,68.52 z" id="p3951" style="fill:none;stroke:#7b7b7b;stroke-width:0.47;stroke-miterlimit:4;stroke-dasharray:none;stroke-opacity:0.98;display:inline"/>
<path d="M 23.83,68.9 C 24.03,68.9 24.48,68.44 24.82,67.84 C 25.14,67.26 26.86,63.18 26.86,63.18" id="p3953" style="fill:none;stroke:#252525;stroke-width:0.31;stroke-linecap:round;stroke-linejoin:miter;stroke-miterlimit:4;stroke-dasharray:none;stroke-opacity:0.61;display:inline"/>
<path d="M 21.2,69.21 L 24.74,69.24" id="p3987" style="fill:none;stroke:#000000;stroke-width:0.80;stroke-linecap:round;stroke-linejoin:miter;stroke-miterlimit:4;stroke-dasharray:none;stroke-opacity:0.62"/>
<path d="M 25.74,69.04 C 26.26,68.91 26.92,68.65 27.85,67.86 C 28.76,67.08 31.99,64.04 32.25,63.78 C 32.51,63.52 32.32,62.53 31.61,62.79 C 30.89,63.05 30.89,63.7 31.28,63.91 C 31.67,64.1 32.19,63.91 32.53,63.71 C 32.85,63.52 33.18,63 33.18,63" id="p3955" style="fill:none;stroke:#252525;stroke-width:0.31;stroke-linecap:round;stroke-linejoin:miter;stroke-miterlimit:4;stroke-dasharray:none;stroke-opacity:0.61;display:inline"/>
<path d="M 26.03,84.35 L 25.81,86.5" id="p3959" style="fill:none;stroke:#000000;stroke-width:0.31;stroke-linecap:butt;stroke-linejoin:miter;stroke-miterlimit:4;stroke-dasharray:none;stroke-opacity:0.86;display:inline"/>
<path d="M 21.73,80.02 L 21.63,86.1" id="p3963" style="fill:none;stroke:#521515;stroke-width:0.47;stroke-linecap:butt;stroke-linejoin:miter;stroke-miterlimit:4;stroke-dasharray:none;stroke-opacity:1;display:inline"/>
<path d="M 23.46,84.4 C 24.16,84.46 25.39,84.46 25.39,84.46" id="p3965" style="fill:none;stroke:#eeeeee;stroke-width:0.63;stroke-linecap:round;stroke-linejoin:miter;stroke-miterlimit:4;stroke-dasharray:none;stroke-opacity:0.76"/>
<path d="M 26.34,84.3 C 26.73,84.25 26.71,84.06 26.73,83.78 C 26.73,83.51 26.81,82.21 26.81,82.21" id="p3969" style="fill:none;stroke:#e6e6e6;stroke-width:0.63;stroke-linecap:round;stroke-linejoin:miter;stroke-miterlimit:4;stroke-dasharray:none;stroke-opacity:0.67"/>
<path d="M 24.74,84.43 L 25.58,84.46" id="p3971" style="fill:none;stroke:#f6f6f6;stroke-width:0.63;stroke-linecap:round;stroke-linejoin:miter;stroke-miterlimit:4;stroke-dasharray:none;stroke-opacity:0.67"/>
<path d="M 22.52,69.34 L 23.66,69.37" id="p3989" style="fill:none;stroke:#f6f6f6;stroke-width:0.97;stroke-linecap:round;stroke-linejoin:miter;stroke-miterlimit:4;stroke-dasharray:none;stroke-opacity:0.81"/>
<path d="M 30.01,62.31 L 29.88,63.56" id="p3985" style="fill:none;stroke:#272727;stroke-width:0.47;stroke-linecap:round;stroke-linejoin:miter;stroke-miterlimit:4;stroke-dasharray:none;stroke-opacity:1;display:inline"/>
<path d="M 27.18,108.46 C 26.22,108.50 25.37,109.16 25.28,109.96 C 25.19,110.77 25.88,111.40 26.84,111.37 C 27.80,111.34 28.66,110.64 28.75,109.84 C 28.83,109.03 28.14,108.43 27.18,108.46 z" id="p4215" style="opacity:1;fill:#2d2d2d;fill-opacity:1;fill-rule:nonzero;stroke:none;marker:none;visibility:visible;display:inline;overflow:visible;enable-background:accumulate"/>
<path d="M 26.62,109.06 C 25.99,109.08 25.43,109.53 25.37,110.06 C 25.31,110.59 25.77,110.98 26.40,110.96 C 27.03,110.94 27.56,110.52 27.62,110 C 27.68,109.47 27.25,109.04 26.62,109.06 z" id="p4217" style="opacity:1;fill:#3e3e3e;fill-opacity:1;fill-rule:nonzero;stroke:none;marker:none;visibility:visible;display:inline;overflow:visible;enable-background:accumulate"/>
<path d="M 27.31,109.1 L 25.75,111.24" id="p4219" style="fill:none;fill-rule:evenodd;stroke:#2d2d2d;stroke-width:0.5;stroke-linecap:butt;stroke-linejoin:miter;stroke-miterlimit:4;stroke-dasharray:none;stroke-opacity:1"/>
<path d="M 32.82,101.20 C 33.63,100.81 35.06,100.22 36.22,99.17" id="p4221" style="opacity:1;fill:#ffffff;fill-opacity:1;fill-rule:nonzero;stroke:#cfcfcf;stroke-width:1;stroke-linecap:round;stroke-linejoin:round;marker:none;stroke-miterlimit:4;stroke-dasharray:none;stroke-dashoffset:0;stroke-opacity:1;visibility:visible;display:inline;overflow:visible;enable-background:accumulate"/>
<path d="M 38.65,101.06 C 38.65,103.46 35.77,105.57 31.46,106.71 L 31.46,113.16 M 38.62,100.78 C 38.63,100.87 38.65,100.96 38.65,101.06 C 38.65,100.97 38.65,100.87 38.65,100.78 L 38.62,100.78 z" id="p4225" style="opacity:1;fill:none;fill-opacity:1;fill-rule:nonzero;stroke:#3d3d3d;stroke-width:0.40;stroke-linecap:round;stroke-linejoin:miter;marker:none;stroke-miterlimit:4;stroke-dasharray:none;stroke-dashoffset:0;stroke-opacity:1;visibility:visible;display:inline;overflow:visible;enable-background:accumulate"/>
</g>
<path d="M 24,45.78 C 12.51,45.78 3.18,55.1 3.18,66.59 C 3.18,76.25 9.79,84.37 18.71,86.71 C 18.75,86.72 18.78,86.74 18.81,86.75 C 20.41,87.05 22.15,87.21 24,87.21 C 25.84,87.21 27.58,87.05 29.18,86.75 C 29.21,86.74 29.24,86.72 29.28,86.71 C 38.2,84.37 44.81,76.25 44.81,66.59 C 44.81,55.1 35.48,45.78 24,45.78 z" id="bg" style="fill:#41bee8;fill-opacity:0.9;fill-rule:nonzero;stroke:none;marker:none;visibility:visible;display:inline;overflow:visible;enable-background:accumulate"/>
<g id="g2455">
<path d="M 24,45.78 C 13.08,45.78 4.11,54.2 3.25,64.9 C 5.11,61.4 7.02,60.47 9.15,59.25 C 12.59,57.29 14.22,53.24 16.34,52.59 C 18.46,51.94 19.43,48.14 23.37,48.46 C 27.29,48.79 29.26,47.16 33.68,51.25 C 38.1,55.34 38.43,57.63 40.25,60.9 C 41.06,62.38 43.12,64.78 44.78,65.71 C 44.31,54.64 35.19,45.78 24,45.78 z" id="p3975" style="fill:#bdbdc6;fill-opacity:0.12;stroke:none;display:inline"/>
<path d="M 12.75,57.28 C 10.73,57.34 7.44,58.34 4.25,60 C 3.55,62.07 3.18,64.28 3.18,66.59 C 3.18,68.83 3.53,70.97 4.18,73 C 6.33,67.03 7.42,66.27 8.75,65.5 C 10.33,64.57 12.9,63.21 12.9,63.21 C 12.9,63.21 16.06,66.8 17,67.06 C 17.92,67.32 22.96,64.44 24.03,64.71 C 25.08,64.97 25.75,64.06 25.75,63 C 25.75,61.94 17,57.15 12.75,57.28 z" id="p3977" style="fill:#dfdfe3;fill-opacity:0.12;stroke:none;display:inline"/>
<path d="M 26.52,50.04 C 24.69,50.12 22.83,50.47 21.51,50.55 C 18.91,50.71 21.19,52.17 18.74,52.67 C 17.21,52.98 15.73,54.58 15.46,56.77 C 16.38,56.91 17.21,57.15 17.77,57.58 C 19.89,55.62 32.98,56.93 34.62,59.7 C 35.09,59.44 35.8,59.44 36.58,59.65 C 36.25,58.14 34.96,57.28 34.96,57.28 C 34.96,57.28 36.22,57.27 36.06,55.62 C 35.91,53.96 34.15,52.85 31.52,51.05 C 30.21,50.14 28.37,49.96 26.52,50.04 z" id="p3979" style="fill:#fbfbfc;fill-opacity:0.18;stroke:none;display:inline"/>
</g>
<path d="M 35.59,83.84 C 41.14,80.1 44.81,73.78 44.81,66.59 C 44.81,55.1 35.48,45.78 24,45.78 C 12.51,45.78 3.18,55.1 3.18,66.59 C 3.18,73.78 6.85,80.1 12.4,83.84" id="fg" style="fill:none;fill-opacity:1;fill-rule:nonzero;stroke:#49b5dd;stroke-width:1;stroke-linecap:round;stroke-linejoin:miter;marker:none;stroke-miterlimit:4;stroke-dasharray:none;stroke-dashoffset:0;stroke-opacity:1;visibility:visible;display:inline;overflow:visible;enable-background:accumulate"/>
</svg>
