<?xml version="1.0" encoding="UTF-8" standalone="no"?>
<svg xmlns:svg="http://www.w3.org/2000/svg" xmlns="http://www.w3.org/2000/svg" version="1.0" width="100%" height="100%" viewBox="0 0 48 36" id="svg2985" style="display:inline">
<defs id="defs2987"/>
<g id="layer1" style="display:inline">
<path d="M 24,0.19 L 0.12,12.22 L 0.19,23.83 L 24,35.77 L 24,0.19 z" id="p3863" style="fill:#b64a4a;fill-opacity:1;stroke:none"/>
<path d="M 23.96,0.41 L 23.97,35.81 L 47.93,23.87 L 47.93,12.12 L 23.96,0.41 z" id="p3863-0" style="fill:#c16363;fill-opacity:1;stroke:none"/>
<path d="M 24,24 L 24,35.12" id="p3976" style="fill:none;stroke:#c57d7d;stroke-width:2;stroke-linecap:butt;stroke-linejoin:miter;marker:none;stroke-miterlimit:4;stroke-dasharray:none;stroke-dashoffset:0;stroke-opacity:1;visibility:visible;display:inline;overflow:visible;enable-background:accumulate"/>
<path d="M 24,24 L 0.16,12.06 L 24,0.12 L 47.87,12.12 L 24,24 z" id="p2993" style="fill:#e09090;fill-opacity:1;stroke:none"/>
<path d="M 34.56,6.03 C 34.56,6.74 34.56,7.45 34.56,8.16 C 30.29,8.16 26.01,8.16 21.74,8.16 C 21.74,8.92 21.74,9.67 21.74,10.42 C 23.65,9.64 26.98,9.38 29.94,9.56 C 32.64,9.66 35.15,10.27 35.81,11.14 C 36.95,12.42 36.49,13.77 36.58,15.09 C 36.51,16.23 36.76,17.51 34.36,18.44 C 31.70,19.48 27.18,19.65 23.25,19.59 C 19.44,19.52 15.15,19.09 13.28,17.92 C 11.65,16.81 11.86,15.55 11.83,14.35 C 15.28,14.35 18.73,14.35 22.17,14.35 C 22.21,15.28 22.03,16.22 22.55,17.14 C 23.23,17.90 26.88,17.49 26.18,16.75 C 26.25,15.31 26.29,13.87 26.19,12.43 C 26.48,11.85 24.55,11.26 22.94,11.70 C 21.44,11.89 23.11,12.81 21.48,12.74 C 18.29,12.74 15.11,12.74 11.93,12.74 C 12.08,10.51 12.22,8.27 12.37,6.03 C 19.77,6.03 27.16,6.03 34.56,6.03 L 34.56,6.03 z" style="fill:#b64a4a;"/>
<path d="M 0.75,12.37 L 24,24 L 47.31,12.34" id="p2993-8" style="fill:none;stroke:#f9cdcd;stroke-width:1.5;stroke-linejoin:round;stroke-miterlimit:4;stroke-dasharray:none;stroke-opacity:1"/>
<path d="M 24,0.55 L 47.5,12.31 L 47.5,23.69 L 24,35.44 L 0.5,23.7 L 0.5,12.3 L 24,0.55 z" id="p3034" style="opacity:1;fill:none;fill-opacity:1;fill-rule:nonzero;stroke:#b64a4a;stroke-width:1;stroke-linecap:butt;stroke-linejoin:miter;marker:none;stroke-miterlimit:4;stroke-dasharray:none;stroke-dashoffset:0;stroke-opacity:1;visibility:visible;display:inline;overflow:visible;enable-background:accumulate"/>
</g>
</svg>
