<?xml version="1.0" encoding="UTF-8" standalone="no"?>
<svg xmlns:svg="http://www.w3.org/2000/svg" xmlns="http://www.w3.org/2000/svg" version="1.0" width="100%" height="100%" viewBox="0 0 48 36" id="svg2985" style="display:inline">
<defs id="defs2987"/>
<g id="layer1" style="display:inline">
<path d="M 24,0.19 L 0.12,12.22 L 0.19,23.83 L 24,35.77 L 24,0.19 z" id="p3863" style="fill:#43a443;fill-opacity:1;stroke:none"/>
<path d="M 23.96,0.41 L 23.97,35.81 L 47.93,23.87 L 47.93,12.12 L 23.96,0.41 z" id="p3863-0" style="fill:#59ae59;fill-opacity:1;stroke:none"/>
<path d="M 24,24 L 24,35.12" id="p3976" style="fill:none;stroke:#71b171;stroke-width:2;stroke-linecap:butt;stroke-linejoin:miter;marker:none;stroke-miterlimit:4;stroke-dasharray:none;stroke-dashoffset:0;stroke-opacity:1;visibility:visible;display:inline;overflow:visible;enable-background:accumulate"/>
<path d="M 24,24 L 0.16,12.06 L 24,0.12 L 47.87,12.12 L 24,24 z" id="p2993" style="fill:#82ca82;fill-opacity:1;stroke:none"/>
<path d="M 20.77,2.72 L 25.68,11.22 L 27.58,10.12 C 28.50,10.65 29.08,11.36 29.08,12.15 C 29.08,12.98 28.47,13.72 27.49,14.25 L 32.11,16.90 C 34.33,15.70 35.71,14.02 35.71,12.15 C 35.71,10.32 34.36,8.67 32.21,7.47 L 34.33,6.22 L 20.77,2.72 z M 15.61,7.40 C 13.40,8.61 12.02,10.29 12.02,12.15 C 12.02,13.97 13.34,15.61 15.46,16.81 L 13.36,18.03 L 26.90,21.53 L 21.99,13.03 L 20.08,14.15 C 19.21,13.63 18.68,12.93 18.68,12.15 C 18.68,11.33 19.27,10.60 20.24,10.06 L 15.61,7.40 z" id="p4493" style="fill:#cae7ca;fill-opacity:1;fill-rule:nonzero;stroke:none;marker:none;visibility:visible;display:inline;overflow:visible;enable-background:accumulate"/>
<path d="M 0.75,12.37 L 24,24 L 47.31,12.34" id="p2993-8" style="fill:none;stroke:#cae7ca;stroke-width:1.5;stroke-linejoin:round;stroke-miterlimit:4;stroke-dasharray:none;stroke-opacity:1"/>
<path d="M 24,0.55 L 47.5,12.31 L 47.5,23.69 L 24,35.44 L 0.5,23.7 L 0.5,12.3 L 24,0.55 z" id="p3034" style="opacity:1;fill:none;fill-opacity:1;fill-rule:nonzero;stroke:#43a443;stroke-width:1;stroke-linecap:butt;stroke-linejoin:miter;marker:none;stroke-miterlimit:4;stroke-dasharray:none;stroke-dashoffset:0;stroke-opacity:1;visibility:visible;display:inline;overflow:visible;enable-background:accumulate"/>
</g>
</svg>
