<?xml version="1.0" encoding="UTF-8" standalone="no"?>
<svg xmlns:svg="http://www.w3.org/2000/svg" xmlns="http://www.w3.org/2000/svg" version="1.0" width="100%" height="100%" viewBox="0 0 48 36" id="svg2985" style="display:inline">
<defs id="defs2987"/>
<g id="layer1" style="display:inline">
<path d="M 24,0.19 L 0.12,12.22 L 0.19,23.83 L 24,35.77 L 24,0.19 z" id="p3863" style="fill:#43a443;fill-opacity:1;stroke:none"/>
<path d="M 23.96,0.41 L 23.97,35.81 L 47.93,23.87 L 47.93,12.12 L 23.96,0.41 z" id="p3863-0" style="fill:#59ae59;fill-opacity:1;stroke:none"/>
<path d="M 24,24 L 24,35.12" id="p3976" style="fill:none;stroke:#71b171;stroke-width:2;stroke-linecap:butt;stroke-linejoin:miter;marker:none;stroke-miterlimit:4;stroke-dasharray:none;stroke-dashoffset:0;stroke-opacity:1;visibility:visible;display:inline;overflow:visible;enable-background:accumulate"/>
<path d="M 24,24 L 0.16,12.06 L 24,0.12 L 47.87,12.12 L 24,24 z" id="p2993" style="fill:#82ca82;fill-opacity:1;stroke:none"/>
<path d="M 36.13,9.78 C 32.68,9.78 29.23,9.78 25.79,9.78 C 25.55,9.22 26.48,8.38 24.46,8.08 C 22.28,7.81 21.30,8.61 21.65,9.17 C 21.63,10.02 21.64,10.86 21.64,11.71 C 22.87,10.80 26.33,10.53 29.14,10.67 C 32.49,10.81 35.62,11.68 35.85,12.80 C 36.30,13.95 36.10,15.11 36.07,16.26 C 36.04,17.11 35.70,18.02 33.82,18.66 C 30.82,19.74 25.95,19.90 21.72,19.77 C 17.95,19.69 14.00,19.10 12.44,17.94 C 11.01,16.97 11.48,15.87 11.31,14.84 C 11.33,12.87 11.18,10.90 11.50,8.93 C 11.84,7.63 15.00,6.49 18.95,6.18 C 22.62,5.88 26.65,5.89 30.21,6.33 C 33.26,6.69 35.39,7.61 35.83,8.64 C 36.05,9.01 36.13,9.40 36.13,9.78 M 25.79,13.93 C 25.77,13.48 25.81,12.76 23.98,12.70 C 22.09,12.60 21.56,13.29 21.65,13.76 C 21.67,14.83 21.56,15.92 21.73,16.99 C 21.48,17.55 23.49,18.03 24.89,17.60 C 26.03,17.23 25.72,16.65 25.79,16.16 C 25.79,15.42 25.79,14.68 25.79,13.93 L 25.79,13.93 z" style="fill:#43a443;"/>
<path d="M 0.75,12.37 L 24,24 L 47.31,12.34" id="p2993-8" style="fill:none;stroke:#cae7ca;stroke-width:1.5;stroke-linejoin:round;stroke-miterlimit:4;stroke-dasharray:none;stroke-opacity:1"/>
<path d="M 24,0.55 L 47.5,12.31 L 47.5,23.69 L 24,35.44 L 0.5,23.7 L 0.5,12.3 L 24,0.55 z" id="p3034" style="opacity:1;fill:none;fill-opacity:1;fill-rule:nonzero;stroke:#43a443;stroke-width:1;stroke-linecap:butt;stroke-linejoin:miter;marker:none;stroke-miterlimit:4;stroke-dasharray:none;stroke-dashoffset:0;stroke-opacity:1;visibility:visible;display:inline;overflow:visible;enable-background:accumulate"/>
</g>
</svg>
