<?xml version="1.0" encoding="UTF-8" standalone="no"?>
<svg xmlns:svg="http://www.w3.org/2000/svg" xmlns="http://www.w3.org/2000/svg" version="1.0" width="100%" height="100%" viewBox="0 0 48 36" id="svg2985" style="display:inline">
<defs id="defs2987"/>
<g id="layer1" style="display:inline">
<path d="M 24,0.19 L 0.12,12.22 L 0.19,23.83 L 24,35.77 L 24,0.19 z" id="p3863" style="fill:#43a443;fill-opacity:1;stroke:none"/>
<path d="M 23.96,0.41 L 23.97,35.81 L 47.93,23.87 L 47.93,12.12 L 23.96,0.41 z" id="p3863-0" style="fill:#59ae59;fill-opacity:1;stroke:none"/>
<path d="M 24,24 L 24,35.12" id="p3976" style="fill:none;stroke:#71b171;stroke-width:2;stroke-linecap:butt;stroke-linejoin:miter;marker:none;stroke-miterlimit:4;stroke-dasharray:none;stroke-dashoffset:0;stroke-opacity:1;visibility:visible;display:inline;overflow:visible;enable-background:accumulate"/>
<path d="M 24,24 L 0.16,12.06 L 24,0.12 L 47.87,12.12 L 24,24 z" id="p2993" style="fill:#82ca82;fill-opacity:1;stroke:none"/>
<path d="M 0.75,12.37 L 24,24 L 47.31,12.34" id="p2993-8" style="fill:none;stroke:#cae7ca;stroke-width:1.5;stroke-linejoin:round;stroke-miterlimit:4;stroke-dasharray:none;stroke-opacity:1"/>
<path d="M 0.75,15.43 L 24,27.06 L 47.31,15.40" id="p2401" style="fill:none;stroke:#cae7ca;stroke-width:1;stroke-linejoin:round;stroke-miterlimit:4;stroke-dasharray:none;stroke-opacity:1"/>
<path d="M 24,4.46 C 23.9,4.46 20.44,9.06 20.37,9.09 C 20.29,9.12 11.43,9.54 11.40,9.59 C 11.37,9.64 18.12,12.88 18.15,12.93 C 18.17,12.98 16.13,17.84 16.21,17.87 C 16.28,17.90 23.9,15.31 24,15.31 C 24.09,15.31 31.71,17.90 31.78,17.87 C 31.86,17.84 29.82,12.98 29.84,12.93 C 29.87,12.88 36.62,9.64 36.59,9.59 C 36.56,9.54 27.67,9.12 27.59,9.09 C 27.52,9.06 24.09,4.46 24,4.46 z" id="p3188" style="fill:#43a443;fill-opacity:1;fill-rule:nonzero;stroke:none;marker:none;visibility:visible;display:inline;overflow:visible;enable-background:accumulate"/>
<path d="M 24,0.55 L 47.5,12.31 L 47.5,23.69 L 24,35.44 L 0.5,23.7 L 0.5,12.3 L 24,0.55 z" id="p3034" style="opacity:1;fill:none;fill-opacity:1;fill-rule:nonzero;stroke:#43a443;stroke-width:1;stroke-linecap:butt;stroke-linejoin:miter;marker:none;stroke-miterlimit:4;stroke-dasharray:none;stroke-dashoffset:0;stroke-opacity:1;visibility:visible;display:inline;overflow:visible;enable-background:accumulate"/>
</g>
</svg>
