<?xml version="1.0" encoding="UTF-8" standalone="no"?>
<svg xmlns:svg="http://www.w3.org/2000/svg" xmlns="http://www.w3.org/2000/svg" version="1.0" width="100%" height="100%" viewBox="0 0 48 36" id="svg2985" style="display:inline">
<defs id="defs2987"/>
<g id="layer1" style="display:inline">
<path d="M 24,0.19 L 0.12,12.22 L 0.19,23.83 L 24,35.77 L 24,0.19 z" id="p3863" style="fill:#a443a4;fill-opacity:1;stroke:none"/>
<path d="M 23.96,0.41 L 23.97,35.81 L 47.93,23.87 L 47.93,12.12 L 23.96,0.41 z" id="p3863-0" style="fill:#ae59ae;fill-opacity:1;stroke:none"/>
<path d="M 24,24 L 24,35.12" id="p3976" style="fill:none;stroke:#b171b1;stroke-width:2;stroke-linecap:butt;stroke-linejoin:miter;marker:none;stroke-miterlimit:4;stroke-dasharray:none;stroke-dashoffset:0;stroke-opacity:1;visibility:visible;display:inline;overflow:visible;enable-background:accumulate"/>
<path d="M 24,24 L 0.16,12.06 L 24,0.12 L 47.87,12.12 L 24,24 z" id="p2993" style="fill:#ca82ca;fill-opacity:1;stroke:none"/>
<path d="M 0.75,12.37 L 24,24 L 47.31,12.34" id="p2993-8" style="fill:none;stroke:#e7cae7;stroke-width:1.5;stroke-linejoin:round;stroke-miterlimit:4;stroke-dasharray:none;stroke-opacity:1"/>
<path d="M 24,0.55 L 47.5,12.31 L 47.5,23.69 L 24,35.44 L 0.5,23.7 L 0.5,12.3 L 24,0.55 z" id="p3034" style="opacity:1;fill:none;fill-opacity:1;fill-rule:nonzero;stroke:#a443a4;stroke-width:1;stroke-linecap:butt;stroke-linejoin:miter;marker:none;stroke-miterlimit:4;stroke-dasharray:none;stroke-dashoffset:0;stroke-opacity:1;visibility:visible;display:inline;overflow:visible;enable-background:accumulate"/>
<g id="g3219">
<path d="M 36.61,12 A 12.61,7.35 0 1 1 11.38,12 A 12.61,7.35 0 1 1 36.61,12 z" id="p2394" style="opacity:1;fill:#a443a4;fill-opacity:1;fill-rule:evenodd;stroke:none;marker:none;visibility:visible;display:inline;overflow:visible;enable-background:accumulate"/>
<path d="M 11.38,12 C 11.38,7.93 17.03,4.64 24,4.64 C 30.96,4.64 36.61,7.93 36.61,12" id="p3168" style="opacity:1;fill:none;fill-opacity:1;fill-rule:nonzero;stroke:#a443a4;stroke-width:1;stroke-linecap:round;stroke-linejoin:miter;marker:none;stroke-miterlimit:4;stroke-dasharray:none;stroke-dashoffset:0;stroke-opacity:1;visibility:visible;display:inline;overflow:visible;enable-background:accumulate"/>
<path d="M 31.84,7.75 L 19.56,10.46 L 15.87,17.62 C 18.07,18.70 20.90,19.34 24,19.34 C 30.14,19.34 35.26,16.77 36.37,13.37 L 31.84,7.75 z" id="p3174" style="opacity:1;fill:#ae59ae;fill-opacity:1;fill-rule:nonzero;stroke:none;marker:none;visibility:visible;display:inline;overflow:visible;enable-background:accumulate"/>
<path d="M 27.25,11.09 L 21.93,11.34 L 20.25,19.03 C 21.43,19.24 22.69,19.34 24,19.34 C 26.35,19.34 28.55,18.96 30.43,18.31 L 27.25,11.09 z" id="p3177" style="opacity:1;fill:#b171b1;fill-opacity:1;fill-rule:nonzero;stroke:none;marker:none;visibility:visible;display:inline;overflow:visible;enable-background:accumulate"/>
<path d="M 23.93,5.25 C 18.64,5.25 14.34,7.44 14.34,10.12 C 14.34,12.80 18.64,14.96 23.93,14.96 C 29.23,14.96 33.53,12.80 33.53,10.12 C 33.53,7.44 29.23,5.24 23.93,5.25 z" id="p3166" style="opacity:1;fill:#ca82ca;fill-opacity:1;fill-rule:evenodd;stroke:none;marker:none;visibility:visible;display:inline;overflow:visible;enable-background:accumulate"/>
<path d="M 33.61,10.61 C 33.61,13.30 29.30,15.48 24.00,15.48 C 18.69,15.48 14.38,13.30 14.38,10.61" id="p3185" style="fill:none;fill-opacity:1;fill-rule:nonzero;stroke:#e7cae7;stroke-width:1;stroke-linecap:round;stroke-linejoin:round;marker:none;stroke-miterlimit:4;stroke-dashoffset:0;stroke-opacity:1;visibility:visible;display:inline;overflow:visible;enable-background:accumulate"/>
<path d="M 21.18,6.40 L 21.93,11.34 L 26.12,11.34 L 26.87,6.40 L 21.18,6.40 z M 24.03,11.96 C 22.66,11.96 21.56,12.45 21.56,13.09 C 21.56,13.72 22.66,14.25 24.03,14.25 C 25.39,14.25 26.53,13.72 26.53,13.09 C 26.53,12.45 25.39,11.96 24.03,11.96 z" id="p3188" style="opacity:1;fill:#a443a4;fill-opacity:1;fill-rule:nonzero;stroke:none;marker:none;visibility:visible;display:inline;overflow:visible;enable-background:accumulate"/>
</g>
</g>
</svg>
