<?xml version="1.0" encoding="UTF-8" standalone="no"?>
<svg xmlns:svg="http://www.w3.org/2000/svg" xmlns="http://www.w3.org/2000/svg" version="1.0" width="100%" height="100%" viewBox="0 0 48 36" id="svg2985" style="display:inline">
<defs id="defs2987"/>
<g id="layer1" style="display:inline">
<path d="M 24,0.19 L 0.12,12.22 L 0.19,23.83 L 24,35.77 L 24,0.19 z" id="p3863" style="fill:#a443a4;fill-opacity:1;stroke:none"/>
<path d="M 23.96,0.41 L 23.97,35.81 L 47.93,23.87 L 47.93,12.12 L 23.96,0.41 z" id="p3863-0" style="fill:#ae59ae;fill-opacity:1;stroke:none"/>
<path d="M 24,24 L 24,35.12" id="p3976" style="fill:none;stroke:#b171b1;stroke-width:2;stroke-linecap:butt;stroke-linejoin:miter;marker:none;stroke-miterlimit:4;stroke-dasharray:none;stroke-dashoffset:0;stroke-opacity:1;visibility:visible;display:inline;overflow:visible;enable-background:accumulate"/>
<path d="M 24,24 L 0.16,12.06 L 24,0.12 L 47.87,12.12 L 24,24 z" id="p2993" style="fill:#ca82ca;fill-opacity:1;stroke:none"/>
<path d="M 0.75,12.37 L 24,24 L 47.31,12.34" id="p2993-8" style="fill:none;stroke:#e7cae7;stroke-width:1.5;stroke-linejoin:round;stroke-miterlimit:4;stroke-dasharray:none;stroke-opacity:1"/>
<path d="M 24,0.55 L 47.5,12.31 L 47.5,23.69 L 24,35.44 L 0.5,23.7 L 0.5,12.3 L 24,0.55 z" id="p3034" style="opacity:1;fill:none;fill-opacity:1;fill-rule:nonzero;stroke:#a443a4;stroke-width:1;stroke-linecap:butt;stroke-linejoin:miter;marker:none;stroke-miterlimit:4;stroke-dasharray:none;stroke-dashoffset:0;stroke-opacity:1;visibility:visible;display:inline;overflow:visible;enable-background:accumulate"/>
<g id="g3299">
<path d="M 36.61,12 A 12.61,7.35 0 1 1 11.38,12 A 12.61,7.35 0 1 1 36.61,12 z" id="p2394" style="fill:#a443a4;fill-opacity:1;fill-rule:evenodd;stroke:none;marker:none;visibility:visible;display:inline;overflow:visible;enable-background:accumulate"/>
<path d="M 24,4.65 C 20.01,4.65 16.46,5.71 14.15,7.40 L 19.21,12.78 L 16.56,17.93 C 16.57,17.94 16.58,17.93 16.59,17.93 C 17.03,18.12 17.51,18.31 18,18.46 C 18.07,18.49 18.14,18.50 18.21,18.53 C 18.79,18.70 19.40,18.84 20.03,18.96 C 20.65,19.08 21.30,19.18 21.96,19.25 C 22.63,19.31 23.30,19.34 24,19.34 C 24.68,19.34 25.37,19.31 26.03,19.25 C 27.35,19.12 28.60,18.87 29.75,18.53 C 30.21,18.39 30.63,18.26 31.06,18.09 C 31.16,18.05 31.26,18.01 31.37,17.96 C 31.40,17.95 31.43,17.95 31.46,17.93 C 31.84,17.77 32.19,17.58 32.53,17.40 C 32.65,17.33 32.78,17.25 32.90,17.18 C 33.11,17.06 33.30,16.97 33.5,16.84 C 33.57,16.79 33.64,16.73 33.71,16.68 C 33.84,16.59 33.97,16.50 34.09,16.40 C 34.28,16.25 34.48,16.09 34.65,15.93 C 34.81,15.79 34.95,15.64 35.09,15.5 C 35.10,15.48 35.10,15.45 35.12,15.43 C 35.29,15.24 35.48,15.07 35.62,14.87 C 35.73,14.72 35.81,14.56 35.90,14.40 L 31.84,9.37 L 30.18,9.75 L 31.56,6.12 C 29.45,5.20 26.83,4.65 24,4.65 z" id="p3174" style="fill:#ae59ae;fill-opacity:1;fill-rule:nonzero;stroke:none;marker:none;visibility:visible;display:inline;overflow:visible;enable-background:accumulate"/>
<path d="M 24,4.65 C 21.27,4.65 18.74,5.14 16.68,6 L 21.68,14.12 L 20.59,19.09 C 20.67,19.10 20.76,19.11 20.84,19.12 C 21.27,19.18 21.70,19.24 22.15,19.28 C 22.34,19.29 22.52,19.30 22.71,19.31 C 23.13,19.33 23.56,19.34 24,19.34 C 24.52,19.34 25.05,19.31 25.56,19.28 C 26.06,19.24 26.54,19.19 27.03,19.12 C 27.51,19.05 28.00,18.97 28.46,18.87 C 28.61,18.84 28.75,18.81 28.90,18.78 C 29.21,18.70 29.51,18.62 29.81,18.53 L 27.25,12.71 L 27.06,12.71 L 28.31,5.09 C 26.96,4.80 25.51,4.65 24,4.65 z" id="p3177" style="fill:#b171b1;fill-opacity:1;fill-rule:nonzero;stroke:none;marker:none;visibility:visible;display:inline;overflow:visible;enable-background:accumulate"/>
<path d="M 23.93,6.87 C 18.64,6.87 14.34,9.03 14.34,11.71 C 14.34,14.39 18.64,16.59 23.93,16.59 C 29.23,16.59 33.53,14.39 33.53,11.71 C 33.53,9.03 29.23,6.87 23.93,6.87 z" id="p3166" style="fill:#ca82ca;fill-opacity:1;fill-rule:evenodd;stroke:none;marker:none;visibility:visible;display:inline;overflow:visible;enable-background:accumulate"/>
<path d="M 33.61,12.24 C 33.61,14.92 29.30,17.10 24.00,17.10 C 18.69,17.10 14.38,14.92 14.38,12.24" id="p3185" style="fill:none;fill-opacity:1;fill-rule:nonzero;stroke:#e7cae7;stroke-width:1;stroke-linecap:round;stroke-linejoin:round;marker:none;stroke-miterlimit:4;stroke-dashoffset:0;stroke-opacity:1;visibility:visible;display:inline;overflow:visible;enable-background:accumulate"/>
<path d="M 21.18,8.03 L 21.93,12.96 L 26.12,12.96 L 26.87,8.03 L 21.18,8.03 z M 24.03,13.59 C 22.66,13.59 21.56,14.08 21.56,14.71 C 21.56,15.35 22.66,15.87 24.03,15.87 C 25.39,15.87 26.53,15.35 26.53,14.71 C 26.53,14.08 25.39,13.59 24.03,13.59 z" id="p3188" style="fill:#b171b1;fill-opacity:1;fill-rule:nonzero;stroke:none;marker:none;visibility:visible;display:inline;overflow:visible;enable-background:accumulate"/>
</g>
</g>
</svg>
