<?xml version="1.0" encoding="UTF-8" standalone="no"?>
<svg xmlns:svg="http://www.w3.org/2000/svg" xmlns="http://www.w3.org/2000/svg" version="1.0" width="100%" height="100%" viewBox="0 0 48 132" id="svg2985" style="display:inline">
<defs id="defs2987"/>
<path d="M 24,96.19 L 0.12,108.22 L 0.19,119.83 L 24,131.77 L 24,96.19 z" id="p3863" style="fill:#838383;fill-opacity:1;stroke:none"/>
<path d="M 23.96,96.41 L 23.97,131.81 L 47.93,119.87 L 47.93,108.12 L 23.96,96.41 z" id="p3863-0" style="fill:#969696;fill-opacity:1;stroke:none"/>
<path d="M 24,120 L 24,131.12" id="p3976" style="fill:none;stroke:#a4a4a4;stroke-width:2;stroke-linecap:butt;stroke-linejoin:miter;marker:none;stroke-miterlimit:4;stroke-dasharray:none;stroke-dashoffset:0;stroke-opacity:1;visibility:visible;display:inline;overflow:visible;enable-background:accumulate"/>
<path d="M 24,120 L 0.16,108.06 L 24,96.12 L 47.87,108.12 L 24,120 z" id="p2993" style="fill:#bcbcbc;fill-opacity:1;stroke:none"/>
<path d="M 14.37,102.28 L 10.78,102.75 L 6.34,105.84 L 6.34,107.5 C 6.34,108.01 6.69,108.59 7.15,108.81 L 27.18,118.25 L 31.21,115.54 C 31.21,115.47 27.98,113.94 27.96,113.87 L 33.25,113.18 L 32.90,110.68 L 24.96,111.75 L 11.12,105.21 L 14.71,104.75 L 14.37,102.28 z" id="r3802" style="fill:#838383;fill-opacity:1;fill-rule:nonzero;stroke:none;marker:none;visibility:visible;display:inline;overflow:visible;enable-background:accumulate"/>
<path d="M 0.75,108.37 L 24,120 L 47.31,108.34" id="p2993-8" style="fill:none;stroke:#e9e9e9;stroke-width:1.5;stroke-linejoin:round;stroke-miterlimit:4;stroke-dasharray:none;stroke-opacity:1"/>
<path d="M 24,96.55 L 47.5,108.31 L 47.5,119.69 L 24,131.44 L 0.5,119.7 L 0.5,108.3 L 24,96.55 z" id="p3034" style="fill:none;fill-opacity:1;fill-rule:nonzero;stroke:#838383;stroke-width:1;stroke-linecap:butt;stroke-linejoin:miter;marker:none;stroke-miterlimit:4;stroke-dasharray:none;stroke-dashoffset:0;stroke-opacity:1;visibility:visible;display:inline;overflow:visible;enable-background:accumulate"/>
<rect width="2.57" height="38.44" ry="1.15" x="13.73" y="65.65" id="r2440" style="fill:#969696;fill-opacity:1;fill-rule:nonzero;stroke:#838383;stroke-width:1;stroke-linecap:butt;stroke-linejoin:miter;marker:none;stroke-miterlimit:4;stroke-dasharray:none;stroke-dashoffset:0;stroke-opacity:1;visibility:visible;display:inline;overflow:visible;enable-background:accumulate"/>
<rect width="2.57" height="38.68" ry="1.15" x="31.51" y="74.30" id="r2442" style="fill:#969696;fill-opacity:1;fill-rule:nonzero;stroke:#838383;stroke-width:1;stroke-linecap:butt;stroke-linejoin:miter;marker:none;stroke-miterlimit:4;stroke-dasharray:none;stroke-dashoffset:0;stroke-opacity:1;visibility:visible;display:inline;overflow:visible;enable-background:accumulate"/>
<path d="M 5.74,53.25 L 5.74,89.06 L 42.90,107.69 L 42.90,71.87 L 5.74,53.25 z" id="p2444" style="fill:#d3bc5f;fill-opacity:1;fill-rule:nonzero;stroke:none;marker:none;visibility:visible;display:inline;overflow:visible;enable-background:accumulate"/>
<path d="M 15.21,72.55 C 15.19,72.54 15.16,72.52 15.14,72.51 C 14.45,72.31 13.72,72.02 13.08,71.86 C 11.24,71.40 9.80,72.28 9.33,73.84 C 9.17,74.36 9.17,75.05 9.38,75.75" id="p3881-6-0-0" style="fill:none;fill-opacity:1;fill-rule:nonzero;stroke:#5e4721;stroke-width:0.64;stroke-linecap:butt;stroke-linejoin:miter;marker:none;stroke-miterlimit:4;stroke-dasharray:none;stroke-dashoffset:0;stroke-opacity:1;visibility:visible;display:inline;overflow:visible;enable-background:accumulate"/>
<path d="M 24.20,85.03 L 24.20,92.29" id="p3111-6" style="fill:none;fill-opacity:1;fill-rule:nonzero;stroke:#5e4721;stroke-width:0.40;stroke-linecap:butt;stroke-linejoin:miter;marker:none;stroke-miterlimit:4;stroke-dasharray:none;stroke-dashoffset:0;stroke-opacity:1;visibility:visible;display:inline;overflow:visible;enable-background:accumulate"/>
<path d="M 12.37,73.12 L 24.15,84.88 L 35.92,84.87" id="p2993-7-9-4-0" style="fill:none;fill-opacity:1;fill-rule:nonzero;stroke:#5e4721;stroke-width:0.40;stroke-linecap:butt;stroke-linejoin:miter;marker:none;stroke-miterlimit:4;stroke-dasharray:none;stroke-dashoffset:0;stroke-opacity:1;visibility:visible;display:inline;overflow:visible;enable-background:accumulate"/>
<path d="M 17.50,74.62 C 17.44,75.30 17.47,76.02 18.18,77.22 C 19.23,78.98 21.29,80.72 22.77,81.14 C 24.16,81.53 24.45,80.70 24.24,79.36" id="p4109-4" style="fill:none;fill-opacity:1;fill-rule:nonzero;stroke:#5e4721;stroke-width:0.64;stroke-linecap:butt;stroke-linejoin:miter;marker:none;stroke-miterlimit:4;stroke-dasharray:none;stroke-dashoffset:0;stroke-opacity:1;visibility:visible;display:inline;overflow:visible;enable-background:accumulate"/>
<path d="M 11.21,63.83 L 21.35,73.97 L 21.35,77.50 L 11.21,67.36 L 11.21,63.83 z" id="p2993-7-9-8-8-5-59" style="fill:none;fill-opacity:1;fill-rule:nonzero;stroke:#5e4721;stroke-width:0.40;stroke-linecap:butt;stroke-linejoin:miter;marker:none;stroke-miterlimit:4;stroke-dasharray:none;stroke-dashoffset:0;stroke-opacity:1;visibility:visible;display:inline;overflow:visible;enable-background:accumulate"/>
<path d="M 22.10,74.03 L 22.10,79.10" id="p5148-2" style="fill:none;fill-opacity:1;fill-rule:nonzero;stroke:#5e4721;stroke-width:0.40;stroke-linecap:butt;stroke-linejoin:miter;marker:none;stroke-miterlimit:4;stroke-dasharray:none;stroke-dashoffset:0;stroke-opacity:1;visibility:visible;display:inline;overflow:visible;enable-background:accumulate"/>
<path d="M 28.26,74.00 L 22.07,74.00 L 10.30,62.23" id="p2993-7-9-8-8-57-9" style="fill:none;fill-opacity:1;fill-rule:nonzero;stroke:#5e4721;stroke-width:0.40;stroke-linecap:butt;stroke-linejoin:miter;marker:none;stroke-miterlimit:4;stroke-dasharray:none;stroke-dashoffset:0;stroke-opacity:1;visibility:visible;display:inline;overflow:visible;enable-background:accumulate"/>
<path d="M 16.48,62.23 L 28.25,73.99 C 28.25,76.17 28.25,78.27 28.25,79.37 L 22.07,79.38 L 10.30,67.62 C 10.30,65.79 10.30,63.59 10.30,62.23 L 16.48,62.23 z" id="p2993-7-9-8-2-6" style="fill:none;stroke:#5e4721;stroke-width:0.81;stroke-linecap:butt;stroke-linejoin:miter;marker:none;stroke-miterlimit:4;stroke-dasharray:none;stroke-dashoffset:0;stroke-opacity:1;visibility:visible;display:inline;overflow:visible;enable-background:accumulate"/>
<path d="M 39.64,93.29 C 39.90,93.42 40.14,93.61 40.35,93.85 C 41.19,94.79 41.17,96.17 40.33,96.95 C 39.87,97.38 39.39,97.64 38.85,97.67 L 33.70,97.73 C 33.48,97.78 33.25,97.78 33.02,97.77 C 32.09,97.76 31.14,97.38 30.43,96.58 C 29.16,95.15 29.17,93.05 30.45,91.87 C 31.27,91.13 32.41,90.96 33.45,91.29 L 33.45,91.26 C 33.66,91.35 39.33,93.15 39.54,93.24 C 39.55,93.25 39.57,93.26 39.59,93.26 C 39.60,93.27 39.62,93.28 39.64,93.29 L 39.64,93.29 z" id="p3881-5-4" style="fill:none;fill-opacity:1;fill-rule:nonzero;stroke:#5e4721;stroke-width:0.40;stroke-linecap:butt;stroke-linejoin:miter;marker:none;stroke-miterlimit:4;stroke-dasharray:none;stroke-dashoffset:0;stroke-opacity:1;visibility:visible;display:inline;overflow:visible;enable-background:accumulate"/>
<path d="M 35.13,88.94 C 35.68,89.25 36.15,89.84 36.65,90.29 C 37.49,91.07 38.21,91.82 39.01,92.59 C 39.47,93.03 39.95,93.46 40.41,93.92 C 41.16,94.85 41.06,95.89 40.71,96.48 C 40.30,97.28 39.50,97.68 38.56,97.69 C 36.90,97.64 35.20,97.64 33.60,97.75 C 32.70,97.86 31.50,97.71 30.49,96.65 C 28.94,95.12 27.34,93.65 25.87,92.19 C 24.96,91.12 24.82,89.78 25.08,88.93 C 25.56,87.36 26.99,86.45 28.84,86.92 C 29.47,87.08 30.21,87.37 30.89,87.57 C 32.30,88.03 33.72,88.43 35.13,88.94 L 35.13,88.94 z" id="p3881-6-4" style="fill:none;fill-opacity:1;fill-rule:nonzero;stroke:#5e4721;stroke-width:0.64;stroke-linecap:butt;stroke-linejoin:miter;marker:none;stroke-miterlimit:4;stroke-dasharray:none;stroke-dashoffset:0;stroke-opacity:1;visibility:visible;display:inline;overflow:visible;enable-background:accumulate"/>
<path d="M 37.47,93.36 C 37.66,93.53 37.89,93.77 38.10,93.96 C 38.57,94.49 38.58,95.27 38.10,95.70 C 37.62,96.15 36.85,96.06 36.37,95.53 C 36.14,95.31 35.95,95.12 35.74,94.93 C 35.27,94.40 35.27,93.62 35.74,93.19 C 35.85,93.09 35.99,93.04 36.12,92.99" id="p3881-7-3-7-9-7" style="fill:none;fill-opacity:1;fill-rule:nonzero;stroke:#5e4721;stroke-width:0.40;stroke-linecap:butt;stroke-linejoin:miter;marker:none;stroke-miterlimit:4;stroke-dasharray:none;stroke-dashoffset:0;stroke-opacity:1;visibility:visible;display:inline;overflow:visible;enable-background:accumulate"/>
<path d="M 32.95,92.20 C 33.03,92.25 33.12,92.32 33.18,92.39 C 33.43,92.61 33.73,92.94 34.02,93.19 C 34.66,93.91 34.66,94.95 34.02,95.55 C 33.37,96.13 32.32,96.03 31.68,95.32 C 31.36,95.02 31.13,94.77 30.84,94.52 C 30.73,94.39 30.62,94.24 30.54,94.09" id="p3881-7-3-7-7-7-5" style="fill:none;fill-opacity:1;fill-rule:nonzero;stroke:#5e4721;stroke-width:0.40;stroke-linecap:butt;stroke-linejoin:miter;marker:none;stroke-miterlimit:4;stroke-dasharray:none;stroke-dashoffset:0;stroke-opacity:1;visibility:visible;display:inline;overflow:visible;enable-background:accumulate"/>
<path d="M 38.92,93.77 C 39.14,93.87 39.35,94.01 39.54,94.18 C 40.29,94.89 40.36,95.94 39.69,96.52 C 39.34,96.84 38.96,97.05 38.51,97.08 L 34.24,97.16 C 34.06,97.19 33.86,97.19 33.68,97.20 C 32.90,97.19 32.09,96.91 31.46,96.32 C 30.32,95.25 30.21,93.67 31.22,92.78 C 31.85,92.21 32.78,92.08 33.67,92.31 C 35.35,92.76 37.12,93.24 38.83,93.73 C 38.85,93.74 38.86,93.75 38.88,93.76 C 38.89,93.76 38.91,93.76 38.92,93.77 L 38.92,93.77 z" id="p3881-5-7-8-6" style="fill:none;fill-opacity:1;fill-rule:nonzero;stroke:#5e4721;stroke-width:0.40;stroke-linecap:butt;stroke-linejoin:miter;marker:none;stroke-miterlimit:4;stroke-dasharray:none;stroke-dashoffset:0;stroke-opacity:1;visibility:visible;display:inline;overflow:visible;enable-background:accumulate"/>
<path d="M 22.60,84.61 L 22.60,90.29 L 17.60,90.31 L 17.60,84.63 L 22.60,84.61 z" id="p4502-0-7" style="fill:none;fill-opacity:1;fill-rule:nonzero;stroke:#5e4721;stroke-width:0.40;stroke-linecap:butt;stroke-linejoin:miter;marker:none;stroke-miterlimit:4;stroke-dasharray:none;stroke-dashoffset:0;stroke-opacity:1;visibility:visible;display:inline;overflow:visible;enable-background:accumulate"/>
<path d="M 21.26,83.54 L 14.34,76.64" id="p5229-81" style="fill:none;stroke:#5e4721;stroke-width:0.40;stroke-linecap:butt;stroke-linejoin:miter;stroke-miterlimit:4;stroke-dasharray:none;stroke-opacity:1"/>
<path d="M 22.25,90.32 L 17.60,90.31 C 17.54,90.25 16.66,89.29 16.61,89.23 L 16.61,83.55 L 21.61,83.53" id="p4502-0-2-0-6" style="fill:none;stroke:#5e4721;stroke-width:0.64;stroke-linecap:round;stroke-miterlimit:4;stroke-dasharray:none;stroke-opacity:1;display:inline"/>
<path d="M 14.80,76.84 L 14.80,82.52 L 9.80,82.53 L 9.80,76.85 L 14.80,76.84 L 14.80,76.84 z" id="p4502-0-1-2" style="fill:none;fill-opacity:1;fill-rule:nonzero;stroke:#5e4721;stroke-width:0.40;stroke-linecap:butt;stroke-linejoin:miter;marker:none;stroke-miterlimit:4;stroke-dasharray:none;stroke-dashoffset:0;stroke-opacity:1;visibility:visible;display:inline;overflow:visible;enable-background:accumulate"/>
<path d="M 14.46,82.55 L 9.80,82.53 C 9.74,82.47 8.87,81.52 8.82,81.46 L 8.82,75.78 L 13.81,75.76" id="p4502-0-2-0-9-1" style="fill:none;stroke:#5e4721;stroke-width:0.64;stroke-linecap:round;stroke-miterlimit:4;stroke-dasharray:none;stroke-opacity:1;display:inline"/>
<path d="M 14.89,69.09 L 12.58,66.74" id="p5093-4" style="fill:none;fill-opacity:1;fill-rule:nonzero;stroke:#5e4721;stroke-width:0.81;stroke-linecap:round;stroke-linejoin:miter;marker:none;stroke-miterlimit:4;stroke-dasharray:none;stroke-dashoffset:0;stroke-opacity:1;visibility:visible;display:inline;overflow:visible;enable-background:accumulate"/>
<path d="M 19.88,74.11 L 17.56,71.75" id="p5093-1-8" style="fill:none;fill-opacity:1;fill-rule:nonzero;stroke:#5e4721;stroke-width:0.81;stroke-linecap:round;stroke-linejoin:miter;marker:none;stroke-miterlimit:4;stroke-dasharray:none;stroke-dashoffset:0;stroke-opacity:1;visibility:visible;display:inline;overflow:visible;enable-background:accumulate"/>
<path d="M 28.27,77.23 L 35.95,84.90 L 35.95,89.51" id="p3294" style="fill:none;fill-opacity:1;fill-rule:nonzero;stroke:#5e4721;stroke-width:0.81;stroke-linecap:butt;stroke-linejoin:miter;marker:none;stroke-miterlimit:4;stroke-dasharray:none;stroke-dashoffset:0;stroke-opacity:1;visibility:visible;display:inline;overflow:visible;enable-background:accumulate"/>
<path d="M 22.05,90.32 L 24.12,92.36 L 26.04,92.40" id="p3296" style="fill:none;fill-opacity:1;fill-rule:nonzero;stroke:#5e4721;stroke-width:0.81;stroke-linecap:butt;stroke-linejoin:miter;marker:none;stroke-miterlimit:4;stroke-dasharray:none;stroke-dashoffset:0;stroke-opacity:1;visibility:visible;display:inline;overflow:visible;enable-background:accumulate"/>
<path d="M 14.29,82.54 L 16.52,84.72" id="p3298" style="fill:none;fill-opacity:1;fill-rule:nonzero;stroke:#5e4721;stroke-width:0.81;stroke-linecap:butt;stroke-linejoin:miter;marker:none;stroke-miterlimit:4;stroke-dasharray:none;stroke-dashoffset:0;stroke-opacity:1;visibility:visible;display:inline;overflow:visible;enable-background:accumulate"/>
<path d="M 12.45,75.78 L 12.45,73.09 L 15.83,73.16" id="p3300" style="fill:none;fill-opacity:1;fill-rule:nonzero;stroke:#5e4721;stroke-width:0.81;stroke-linecap:butt;stroke-linejoin:miter;marker:none;stroke-miterlimit:4;stroke-dasharray:none;stroke-dashoffset:0;stroke-opacity:1;visibility:visible;display:inline;overflow:visible;enable-background:accumulate"/>
<path d="M 25.04,79.22 L 27.81,81.99 L 33.03,81.98" id="p3305" style="fill:none;fill-opacity:1;fill-rule:nonzero;stroke:#5e4721;stroke-width:0.40;stroke-linecap:butt;stroke-linejoin:miter;marker:none;stroke-miterlimit:4;stroke-dasharray:none;stroke-dashoffset:0;stroke-opacity:1;visibility:visible;display:inline;overflow:visible;enable-background:accumulate"/>
<path d="M 15.47,102.86 L 15.47,99.55" id="p3794" style="fill:none;fill-opacity:1;fill-rule:nonzero;stroke:#e9e9e9;stroke-width:1;stroke-linecap:round;stroke-linejoin:round;marker:none;stroke-miterlimit:4;stroke-dasharray:none;stroke-dashoffset:0;stroke-opacity:1;visibility:visible;display:inline;overflow:visible;enable-background:accumulate"/>
<path d="M 33.34,111.68 L 33.34,108.62" id="p3796" style="fill:none;fill-opacity:1;fill-rule:nonzero;stroke:#e9e9e9;stroke-width:1;stroke-linecap:round;stroke-linejoin:round;marker:none;stroke-miterlimit:4;stroke-dasharray:none;stroke-dashoffset:0;stroke-opacity:1;visibility:visible;display:inline;overflow:visible;enable-background:accumulate"/>
<path d="M 42.41,107.30 L 42.41,72.36 L 5.94,54.13" id="p2579" style="opacity:1;fill:none;fill-opacity:1;fill-rule:nonzero;stroke:#f5ebdc;stroke-width:1.29;stroke-linecap:butt;stroke-linejoin:bevel;marker:none;stroke-miterlimit:4;stroke-dasharray:none;stroke-dashoffset:0;stroke-opacity:1;visibility:visible;display:inline;overflow:visible;enable-background:accumulate"/>
<path d="M 5.74,53.25 L 5.74,89.06 L 42.90,107.69 L 42.90,71.87 L 5.74,53.25 z" id="p2577" style="opacity:1;fill:none;fill-opacity:1;fill-rule:nonzero;stroke:#5e4721;stroke-width:1;stroke-linecap:butt;stroke-linejoin:bevel;marker:none;stroke-miterlimit:4;stroke-dasharray:none;stroke-dashoffset:0;stroke-opacity:1;visibility:visible;display:inline;overflow:visible;enable-background:accumulate"/>
</svg>
