<?xml version="1.0" encoding="UTF-8" standalone="no"?>
<svg xmlns:svg="http://www.w3.org/2000/svg" xmlns="http://www.w3.org/2000/svg" version="1.0" width="100%" height="100%" viewBox="0 0 48 132" id="svg2985" style="display:inline">
<defs id="defs2987"/>
<path d="M 24,84.18 L 0.12,96.21 L 0.18,119.84 L 24,131.78 L 24,84.18 z" id="p3863" style="fill:#838383;fill-opacity:1;stroke:none"/>
<path d="M 23.96,84.40 L 23.96,131.81 L 47.93,119.87 L 47.93,96.12 L 23.96,84.40 z" id="p3863-0" style="fill:#969696;fill-opacity:1;stroke:none"/>
<path d="M 24,108.10 L 24,131.12" id="p3976" style="fill:none;stroke:#a4a4a4;stroke-width:2;stroke-linecap:butt;stroke-linejoin:miter;marker:none;stroke-miterlimit:4;stroke-dasharray:none;stroke-dashoffset:0;stroke-opacity:1;visibility:visible;display:inline;overflow:visible;enable-background:accumulate"/>
<path d="M 24,108 L 0.16,96.06 L 24,84.12 L 47.87,96.12 L 24,108 z" id="p2993" style="fill:#bcbcbc;fill-opacity:1;stroke:none"/>
<path d="M 15.46,89.68 L 5.12,93.59 L 3.03,94.62 L 5.75,95.96 L 3,97.5 L 19.62,105.81 L 21.12,105.34 L 25.06,103.21 L 26.21,104.06 L 36.68,99.09 L 35.06,98.37 L 43.06,94.31 L 35.28,90.06 L 22.78,92.93 L 15.46,89.68 z" id="p5953" style="opacity:1;fill:#838383;fill-opacity:1;fill-rule:nonzero;stroke:none;marker:none;visibility:visible;display:inline;overflow:visible;enable-background:accumulate"/>
<path d="M 0.75,96.37 L 24,108 L 47.31,96.34" id="p2993-8" style="fill:none;stroke:#e9e9e9;stroke-width:1.5;stroke-linejoin:round;stroke-miterlimit:4;stroke-dasharray:none;stroke-opacity:1"/>
<path d="M 24,84.56 L 0.5,96.31 L 0.5,119.68 L 24,131.43 L 47.5,119.68 L 47.5,96.31 L 24,84.56 z" id="p3034" style="fill:none;fill-opacity:1;fill-rule:nonzero;stroke:#838383;stroke-width:1;stroke-linecap:butt;stroke-linejoin:miter;marker:none;stroke-miterlimit:4;stroke-dasharray:none;stroke-dashoffset:0;stroke-opacity:1;visibility:visible;display:inline;overflow:visible;enable-background:accumulate"/>
<path d="M 33.39,82.73 C 33.28,82.73 33.16,82.77 33.05,82.80 C 30.31,84.00 30.17,84.17 28.15,85.15 C 27.98,85.25 27.82,85.37 27.68,85.52 C 27.40,85.80 27.18,86.17 27.05,86.58 C 26.78,87.42 26.82,88.47 27.22,89.56 C 27.74,90.93 28.75,91.99 29.81,92.49 L 29.81,92.52 C 30.04,92.59 35.86,95.23 36.08,95.32 C 36.10,95.32 36.13,95.31 36.14,95.32 C 36.16,95.32 36.18,95.33 36.20,95.34 C 36.49,95.41 36.76,95.41 37.03,95.35 C 38.69,94.64 40.47,93.67 41.36,93.20 C 42.45,92.93 42.88,91.56 42.33,90.14 C 42.05,89.37 41.70,88.74 41.20,88.29 L 36.43,84.20 C 36.24,83.98 36.04,83.80 35.83,83.62 C 35.07,83.00 34.21,82.65 33.39,82.73 z" id="p3881-5-2-4-3-07" style="fill:#989898;fill-opacity:1;fill-rule:nonzero;stroke:none;marker:none;visibility:visible;display:inline;overflow:visible;enable-background:accumulate"/>
<path d="M 35.71,90.34 L 40.65,88.12" id="p4080-79-8-3" style="fill:none;stroke:#555555;stroke-width:0.51;stroke-linecap:round;stroke-linejoin:miter;stroke-miterlimit:4;stroke-dasharray:none;stroke-opacity:1"/>
<path d="M 33.96,88.43 L 38.64,86.24" id="p4082-5-3-6" style="fill:none;stroke:#555555;stroke-width:0.42;stroke-linecap:round;stroke-linejoin:miter;stroke-miterlimit:4;stroke-dasharray:none;stroke-opacity:1"/>
<path d="M 31.84,86.84 L 36.78,84.52" id="p4084-5-3-8" style="fill:none;stroke:#555555;stroke-width:0.34;stroke-linecap:butt;stroke-linejoin:miter;stroke-miterlimit:4;stroke-dasharray:none;stroke-opacity:1"/>
<path d="M 42.05,89.49 L 34.07,93.31 C 34.07,93.31 33.91,94.16 33.88,94.33 C 34.86,94.76 36.02,95.28 36.09,95.31 C 36.11,95.32 36.13,95.31 36.14,95.31 C 36.16,95.32 36.18,95.33 36.20,95.33 C 36.49,95.41 36.76,95.40 37.02,95.33 C 38.68,94.63 40.46,93.67 41.35,93.20 C 42.44,92.93 42.88,91.56 42.34,90.13 C 42.25,89.90 42.15,89.70 42.05,89.49 z" id="p7129-9" style="fill:#6c6c6c;fill-opacity:1;fill-rule:nonzero;stroke:none;marker:none;visibility:visible;display:inline;overflow:visible;enable-background:accumulate"/>
<path d="M 37.55,92.48 L 42.30,90.23" id="p4078-2-4-8-0" style="fill:none;stroke:#959595;stroke-width:0.58;stroke-linecap:butt;stroke-linejoin:miter;stroke-miterlimit:4;stroke-dasharray:none;stroke-opacity:1;display:inline"/>
<path d="M 42.50,90.77 L 34.31,94.51 C 35.02,94.83 36.03,95.29 36.09,95.31 C 36.11,95.32 36.13,95.31 36.14,95.31 C 36.16,95.32 36.18,95.33 36.20,95.33 C 36.49,95.41 36.76,95.40 37.02,95.33 C 38.68,94.63 40.46,93.67 41.35,93.20 C 42.27,92.98 42.71,91.94 42.50,90.77 z" id="p7131-2" style="opacity:1;fill:#7a7a7a;fill-opacity:1;fill-rule:nonzero;stroke:none;marker:none;visibility:visible;display:inline;overflow:visible;enable-background:accumulate"/>
<path d="M 37.60,94.30 L 42.50,91.87" id="p4076-6-5-6-2" style="fill:none;stroke:#949494;stroke-width:0.42;stroke-linecap:round;stroke-linejoin:miter;stroke-miterlimit:4;stroke-dasharray:none;stroke-opacity:1;display:inline"/>
<path d="M 37.36,92.16 L 42.11,89.92" id="p4078-4-2-8" style="fill:none;stroke:#555555;stroke-width:0.58;stroke-linecap:butt;stroke-linejoin:miter;stroke-miterlimit:4;stroke-dasharray:none;stroke-opacity:1"/>
<path d="M 29.91,85.51 L 34.91,83.18" id="p4084-9-2-2-2" style="fill:none;stroke:#555555;stroke-width:0.34;stroke-linecap:round;stroke-linejoin:miter;stroke-miterlimit:4;stroke-dasharray:none;stroke-opacity:1;display:inline"/>
<path d="M 33.39,82.73 C 33.28,82.73 33.16,82.77 33.05,82.80 C 30.31,84.00 30.17,84.17 28.15,85.15 C 27.98,85.25 27.82,85.37 27.68,85.52 C 27.40,85.80 27.18,86.17 27.05,86.58 C 26.78,87.42 26.82,88.47 27.22,89.56 C 27.74,90.93 28.75,91.99 29.81,92.49 L 29.81,92.52 C 30.04,92.59 35.86,95.23 36.08,95.32 C 36.10,95.32 36.13,95.31 36.14,95.32 C 36.16,95.32 36.18,95.33 36.20,95.34 C 36.49,95.41 36.76,95.41 37.03,95.35 C 38.69,94.64 40.47,93.67 41.36,93.20 C 42.45,92.93 42.88,91.56 42.33,90.14 C 42.05,89.37 41.70,88.74 41.20,88.29 L 36.43,84.20 C 36.24,83.98 36.04,83.80 35.83,83.62 C 35.07,83.00 34.21,82.65 33.39,82.73 z" id="p3881-5-2-4-3-0-5" style="opacity:1;fill:none;fill-opacity:1;fill-rule:nonzero;stroke:#515151;stroke-width:0.57;stroke-linecap:butt;stroke-linejoin:miter;marker:none;stroke-miterlimit:4;stroke-dasharray:none;stroke-dashoffset:0;stroke-opacity:1;visibility:visible;display:inline;overflow:visible;enable-background:accumulate"/>
<path d="M 11.57,85.07 C 11.52,85.09 10.59,85.65 10.53,85.68 L 10.53,91.65 L 15.78,94.30 C 15.85,94.26 16.77,93.71 16.82,93.69 L 16.82,87.71 L 11.57,85.07 z" id="p4502-0-2-5" style="fill:#bababa;fill-opacity:1;stroke:none;display:inline"/>
<path d="M 10.53,85.68 L 10.53,91.65 L 15.78,94.30 L 15.78,88.32 L 10.53,85.68 L 10.53,85.68 z" id="p4502-0-16" style="fill:#595959;fill-opacity:1;stroke:none;display:inline"/>
<path d="M 11.57,85.07 C 11.52,85.09 10.59,85.65 10.53,85.68 L 10.53,91.65 L 15.78,94.30 C 15.85,94.26 16.77,93.71 16.82,93.69 L 16.82,87.71 L 11.57,85.07 z" id="p4502-0-2-5-1" style="opacity:1;fill:none;fill-opacity:1;fill-rule:nonzero;stroke:#515151;stroke-width:0.50;stroke-linecap:round;stroke-linejoin:miter;marker:none;stroke-miterlimit:4;stroke-dasharray:none;stroke-dashoffset:0;stroke-opacity:1;visibility:visible;display:inline;overflow:visible;enable-background:accumulate"/>
<path d="M 26.44,81.67 L 14.05,87.87 C 14.05,90.66 14.05,93.22 14.05,95.77 L 26.44,101.96 L 38.83,95.77 C 38.83,93.18 38.83,90.00 38.83,87.87 L 26.44,81.67 z" id="p2993-7-4" style="fill:#999999;fill-opacity:1;stroke:none;display:inline"/>
<path d="M 18.26,85.77 L 14.05,87.88 L 14.05,95.78 L 26.38,101.94 L 26.38,92.44 L 18.26,85.77 z" id="p4502-88" style="fill:#595959;fill-opacity:1;stroke:none"/>
<path d="M 26.44,94.06 L 14.05,87.87 L 26.44,81.67 L 38.83,87.87 L 26.44,94.06 z" id="p2993-7-9-85" style="fill:#bababa;fill-opacity:1;stroke:none;display:inline"/>
<path d="M 26.38,94.19 L 26.38,101.83" id="p3111-7" style="fill:none;stroke:#7e7e7e;stroke-width:1.28;stroke-linecap:butt;stroke-linejoin:miter;stroke-miterlimit:4;stroke-dasharray:none;stroke-opacity:1"/>
<path d="M 30.62,86.47 L 23.30,90.10 L 28.83,92.87 L 36.14,89.22 L 30.62,86.47 L 30.62,86.47 z" id="p2993-7-9-7-2" style="opacity:1;fill:none;fill-opacity:1;fill-rule:nonzero;stroke:#454545;stroke-width:0.33;stroke-linecap:butt;stroke-linejoin:miter;marker:none;stroke-miterlimit:4;stroke-dasharray:none;stroke-dashoffset:0;stroke-opacity:1;visibility:visible;display:inline;overflow:visible;enable-background:accumulate"/>
<path d="M 38.83,87.87 L 26.44,94.06 L 14.05,87.87" id="p2993-7-9-4-2" style="fill:none;stroke:#c5c5c5;stroke-width:0.85;stroke-linejoin:bevel;stroke-opacity:1;display:inline"/>
<path d="M 19.55,95.05 L 19.55,92.53 L 23.85,94.68 L 23.85,96.76" id="p4705-2" style="fill:none;stroke:#797979;stroke-width:0.25;stroke-linecap:butt;stroke-linejoin:bevel;stroke-miterlimit:4;stroke-dasharray:none;stroke-opacity:1"/>
<path d="M 26.44,81.67 L 14.05,87.87 C 14.05,90.66 14.05,93.22 14.05,95.77 L 26.44,101.96 L 38.83,95.77 C 38.83,93.18 38.83,90.00 38.83,87.87 L 26.44,81.67 z" id="p2993-7-3-0" style="opacity:1;fill:none;fill-opacity:1;fill-rule:nonzero;stroke:#515151;stroke-width:0.83;stroke-linecap:butt;stroke-linejoin:miter;marker:none;stroke-miterlimit:4;stroke-dasharray:none;stroke-dashoffset:0;stroke-opacity:1;visibility:visible;display:inline;overflow:visible;enable-background:accumulate"/>
<path d="M 25.24,80.54 C 23.75,80.47 21.98,81.21 21.02,82.35 C 20.16,83.36 19.99,84.31 20.37,84.94 C 20.08,86.36 20.31,87.51 21.87,87.85 C 23.44,88.19 25.59,87.42 26.70,86.12 C 27.55,85.11 27.52,84.31 27.41,83.46 C 27.36,81.90 27.40,80.96 25.84,80.62 C 25.65,80.57 25.44,80.55 25.24,80.54 L 25.24,80.54 z" id="p4109-9" style="opacity:1;fill:#515151;fill-opacity:1;fill-rule:nonzero;stroke:#515151;stroke-width:0.50;stroke-linecap:round;stroke-linejoin:miter;marker:none;stroke-miterlimit:4;stroke-dasharray:none;stroke-dashoffset:0;stroke-opacity:1;visibility:visible;display:inline;overflow:visible;enable-background:accumulate"/>
<path d="M 25.71,71.76 L 13.33,77.95 C 13.33,80.23 13.33,82.45 13.33,83.61 L 19.84,86.86 L 32.22,80.67 C 32.22,78.74 32.22,76.44 32.22,75.01 L 25.71,71.76 z" id="p2993-7-9-8-7" style="fill:#999999;fill-opacity:1;stroke:none;display:inline"/>
<path d="M 16.13,76.53 L 13.33,77.95 L 13.33,83.61 L 19.81,86.86 L 19.81,79.97 L 19.90,79.71 L 16.13,76.53 z" id="p4170-3" style="fill:#595959;fill-opacity:1;stroke:none"/>
<path d="M 19.80,81.22 L 19.80,86.54" id="p5148-5" style="fill:none;stroke:#7e7e7e;stroke-width:0.42;stroke-linecap:butt;stroke-linejoin:miter;marker:none;stroke-miterlimit:4;stroke-dasharray:none;stroke-dashoffset:0;stroke-opacity:1;visibility:visible;display:inline;overflow:visible;enable-background:accumulate"/>
<path d="M 25.71,71.76 L 13.33,77.95 L 19.84,81.21 L 32.22,75.01 L 25.71,71.76 z" id="p2993-7-9-8-8-7" style="fill:#bababa;fill-opacity:1;stroke:none;display:inline"/>
<path d="M 13.33,77.95 L 19.84,81.21 L 32.22,75.01" id="p2993-7-9-8-8-57-8" style="fill:none;stroke:#c5c5c5;stroke-width:0.42;stroke-linecap:butt;stroke-linejoin:bevel;marker:none;stroke-miterlimit:4;stroke-dasharray:none;stroke-dashoffset:0;stroke-opacity:1;visibility:visible;display:inline;overflow:visible;enable-background:accumulate"/>
<path d="M 25.71,71.76 L 13.33,77.95 C 13.33,80.23 13.33,82.45 13.33,83.61 L 19.84,86.86 L 32.22,80.67 C 32.22,78.74 32.22,76.44 32.22,75.01 L 25.71,71.76 z" id="p2993-7-9-8-2-7" style="opacity:1;fill:none;fill-opacity:1;fill-rule:nonzero;stroke:#515151;stroke-width:0.83;stroke-linecap:butt;stroke-linejoin:miter;marker:none;stroke-miterlimit:4;stroke-dasharray:none;stroke-dashoffset:0;stroke-opacity:1;visibility:visible;display:inline;overflow:visible;enable-background:accumulate"/>
<path d="M 16.48,91.31 C 16.37,91.32 16.25,91.35 16.14,91.38 C 13.40,92.58 13.26,92.75 11.23,93.74 C 11.06,93.83 10.90,93.96 10.76,94.10 C 10.48,94.39 10.27,94.75 10.13,95.17 C 9.86,96.01 9.89,97.07 10.30,98.14 C 10.82,99.52 11.82,100.59 12.90,101.07 L 12.90,101.10 C 13.12,101.18 18.95,103.83 19.17,103.90 C 19.19,103.91 19.20,103.90 19.22,103.90 C 19.25,103.91 19.26,103.93 19.28,103.94 C 19.56,104.00 19.85,104.00 20.12,103.94 C 21.77,103.24 23.55,102.25 24.45,101.79 C 25.53,101.52 25.96,100.15 25.41,98.73 C 25.12,97.97 24.78,97.32 24.28,96.87 L 19.51,92.79 C 19.32,92.57 19.13,92.39 18.91,92.21 C 18.15,91.58 17.30,91.23 16.48,91.31 z" id="p3881-5-2-4-3" style="fill:#989898;fill-opacity:1;fill-rule:nonzero;stroke:none;marker:none;visibility:visible;display:inline;overflow:visible;enable-background:accumulate"/>
<path d="M 18.79,98.93 L 23.74,96.71" id="p4080-79-8" style="fill:none;stroke:#555555;stroke-width:0.51;stroke-linecap:round;stroke-linejoin:miter;stroke-miterlimit:4;stroke-dasharray:none;stroke-opacity:1"/>
<path d="M 17.04,97.03 L 21.72,94.81" id="p4082-5-3" style="fill:none;stroke:#555555;stroke-width:0.42;stroke-linecap:round;stroke-linejoin:miter;stroke-miterlimit:4;stroke-dasharray:none;stroke-opacity:1"/>
<path d="M 14.92,95.44 L 19.85,93.10" id="p4084-5-3" style="fill:none;stroke:#555555;stroke-width:0.34;stroke-linecap:butt;stroke-linejoin:miter;stroke-miterlimit:4;stroke-dasharray:none;stroke-opacity:1"/>
<path d="M 25.13,98.08 L 17.15,101.90 C 17.15,101.90 16.99,102.76 16.97,102.91 C 17.94,103.36 19.10,103.88 19.18,103.90 C 19.20,103.91 19.21,103.89 19.23,103.90 C 19.25,103.91 19.26,103.93 19.28,103.93 C 19.57,104.00 19.85,104.00 20.11,103.93 C 21.77,103.23 23.54,102.26 24.44,101.79 C 25.52,101.52 25.96,100.15 25.42,98.73 C 25.34,98.49 25.24,98.29 25.13,98.08 z" id="p7129" style="fill:#6c6c6c;fill-opacity:1;fill-rule:nonzero;stroke:none;marker:none;visibility:visible;display:inline;overflow:visible;enable-background:accumulate"/>
<path d="M 20.63,101.07 L 25.39,98.83" id="p4078-2-4-8" style="fill:none;stroke:#959595;stroke-width:0.58;stroke-linecap:butt;stroke-linejoin:miter;stroke-miterlimit:4;stroke-dasharray:none;stroke-opacity:1;display:inline"/>
<path d="M 20.69,102.89 L 25.59,100.46" id="p4076-6-5-6" style="fill:none;stroke:#949494;stroke-width:0.42;stroke-linecap:round;stroke-linejoin:miter;stroke-miterlimit:4;stroke-dasharray:none;stroke-opacity:1;display:inline"/>
<path d="M 20.44,100.75 L 25.19,98.51" id="p4078-4-2" style="fill:none;stroke:#555555;stroke-width:0.58;stroke-linecap:butt;stroke-linejoin:miter;stroke-miterlimit:4;stroke-dasharray:none;stroke-opacity:1"/>
<path d="M 20.67,102.50 L 25.56,100.08" id="p4076-2-4" style="opacity:1;fill:#7a7a7a;fill-opacity:1;fill-rule:nonzero;stroke:none;marker:none;visibility:visible;display:inline;overflow:visible;enable-background:accumulate"/>
<path d="M 12.99,94.10 L 17.99,91.76" id="p4084-9-2-2" style="fill:none;stroke:#555555;stroke-width:0.34;stroke-linecap:round;stroke-linejoin:miter;stroke-miterlimit:4;stroke-dasharray:none;stroke-opacity:1;display:inline"/>
<path d="M 19.29,103.94 C 19.57,104.00 19.85,104.00 20.13,103.94 C 21.21,103.67 21.63,102.29 21.09,100.87 C 20.80,100.10 20.44,99.46 19.95,99.01 L 15.20,94.93 C 15.01,94.72 14.79,94.54 14.57,94.36 C 13.70,93.64 12.70,93.28 11.80,93.51 C 10.16,93.92 9.50,96.00 10.32,98.15 C 10.84,99.53 11.84,100.58 12.91,101.07 L 12.90,101.09 C 13.12,101.17 18.96,103.83 19.18,103.90 C 19.20,103.91 19.21,103.91 19.23,103.92 C 19.25,103.93 19.27,103.93 19.29,103.94 L 19.29,103.94 z" id="p3881-5-2-4" style="opacity:1;fill:#616161;fill-opacity:1;fill-rule:nonzero;stroke:none;marker:none;visibility:visible;display:inline;overflow:visible;enable-background:accumulate"/>
<path d="M 16.48,91.31 C 16.37,91.32 16.25,91.35 16.14,91.38 C 13.40,92.58 13.26,92.75 11.23,93.74 C 11.06,93.83 10.90,93.96 10.76,94.10 C 10.48,94.39 10.27,94.75 10.13,95.17 C 9.86,96.01 9.89,97.07 10.30,98.14 C 10.82,99.52 11.82,100.59 12.90,101.07 L 12.90,101.10 C 13.12,101.18 18.95,103.83 19.17,103.90 C 19.19,103.91 19.20,103.90 19.22,103.90 C 19.25,103.91 19.26,103.93 19.28,103.94 C 19.56,104.00 19.85,104.00 20.12,103.94 C 21.77,103.24 23.55,102.25 24.45,101.79 C 25.53,101.52 25.96,100.15 25.41,98.73 C 25.12,97.97 24.78,97.32 24.28,96.87 L 19.51,92.79 C 19.32,92.57 19.13,92.39 18.91,92.21 C 18.15,91.58 17.30,91.23 16.48,91.31 z" id="p3881-5-2-4-3-0" style="opacity:1;fill:none;fill-opacity:1;fill-rule:nonzero;stroke:#515151;stroke-width:0.57;stroke-linecap:butt;stroke-linejoin:miter;marker:none;stroke-miterlimit:4;stroke-dasharray:none;stroke-dashoffset:0;stroke-opacity:1;visibility:visible;display:inline;overflow:visible;enable-background:accumulate"/>
<path d="M 18.49,103.11 C 18.73,103.20 18.99,103.24 19.25,103.24 C 20.25,103.20 20.74,102.30 20.36,101.22 C 20.16,100.65 19.89,100.15 19.47,99.77 L 15.47,96.24 C 15.32,96.07 15.13,95.91 14.95,95.75 C 14.22,95.13 13.34,94.74 12.49,94.76 C 10.97,94.82 10.22,96.18 10.79,97.79 C 11.16,98.83 11.99,99.70 12.92,100.20 L 12.91,100.21 C 13.11,100.30 18.20,102.99 18.38,103.07 C 18.40,103.08 18.42,103.08 18.44,103.09 C 18.45,103.10 18.47,103.10 18.49,103.11 L 18.49,103.11 z" id="p3881-5-2-4-6" style="opacity:1;fill:#515151;fill-opacity:1;fill-rule:nonzero;stroke:none;marker:none;visibility:visible;display:inline;overflow:visible;enable-background:accumulate"/>
<path d="M 12.64,94.77 C 12.50,95.26 12.52,95.84 12.75,96.45 C 13.11,97.49 13.94,98.36 14.88,98.85 L 14.86,98.89 C 15.05,98.96 20.14,101.66 20.32,101.74 C 20.34,101.75 20.37,101.76 20.38,101.77 C 20.39,101.78 20.42,101.76 20.43,101.77 C 20.44,101.77 20.45,101.77 20.46,101.77 C 20.44,101.59 20.42,101.42 20.35,101.24 C 20.15,100.66 19.89,100.15 19.47,99.77 L 15.47,96.24 C 15.31,96.06 15.14,95.91 14.96,95.76 C 14.27,95.17 13.44,94.79 12.64,94.77 z" id="p3881-5-2-4-6-7" style="opacity:1;fill:#595959;fill-opacity:1;fill-rule:nonzero;stroke:none;marker:none;visibility:visible;display:inline;overflow:visible;enable-background:accumulate"/>
<path d="M 13.01,94.83 C 12.99,94.84 12.96,94.84 12.93,94.86 C 12.55,95.02 12.29,95.15 11.87,95.39 C 11.16,95.82 11.18,96.97 11.89,97.97 C 12.59,98.97 13.72,99.43 14.43,98.99 C 14.88,98.71 15.13,98.67 15.47,98.46 C 16.01,98.12 16.14,97.36 15.84,96.56 L 15.47,96.24 C 15.31,96.06 15.14,95.91 14.96,95.76 C 14.38,95.27 13.69,94.93 13.01,94.83 z" id="p3881-7-2-2" style="fill:#707070;fill-opacity:1;fill-rule:nonzero;stroke:none;marker:none;visibility:visible;display:inline;overflow:visible;enable-background:accumulate"/>
<path d="M 14.35,98.77 C 13.66,99.19 12.55,98.74 11.86,97.76 C 11.17,96.78 11.17,95.64 11.86,95.21 C 12.55,94.79 13.67,95.24 14.35,96.22 C 15.04,97.20 15.04,98.34 14.35,98.77 L 14.35,98.77 z" id="p3881-7-2" style="opacity:1;fill:#595959;fill-opacity:1;fill-rule:nonzero;stroke:none;marker:none;visibility:visible;display:inline;overflow:visible;enable-background:accumulate"/>
<path d="M 13.01,94.83 C 12.99,94.84 12.96,94.84 12.93,94.86 C 12.55,95.02 12.29,95.15 11.87,95.39 C 11.16,95.82 11.18,96.97 11.89,97.97 C 12.59,98.97 13.72,99.43 14.43,98.99 C 14.88,98.71 15.13,98.67 15.47,98.46 C 16.01,98.12 16.14,97.36 15.84,96.56" id="p3881-7-2-2-4" style="opacity:1;fill:none;fill-opacity:1;fill-rule:nonzero;stroke:#515151;stroke-width:0.25;stroke-linecap:butt;stroke-linejoin:miter;marker:none;stroke-miterlimit:4;stroke-dasharray:none;stroke-dashoffset:0;stroke-opacity:1;visibility:visible;display:inline;overflow:visible;enable-background:accumulate"/>
<path d="M 17.50,98.16 C 17.35,98.16 17.21,98.20 17.09,98.27 C 16.87,98.38 16.70,98.50 16.51,98.61 C 16.03,98.91 16.03,99.72 16.51,100.41 C 16.99,101.09 17.79,101.40 18.27,101.10 C 18.49,101.03 18.64,100.87 18.83,100.75 C 19.21,100.51 19.30,99.96 19.07,99.39 L 17.68,98.19 C 17.62,98.18 17.56,98.16 17.50,98.16 z" id="p3881-7-2-6-3" style="fill:#707070;fill-opacity:1;fill-rule:nonzero;stroke:none;marker:none;visibility:visible;display:inline;overflow:visible;enable-background:accumulate"/>
<path d="M 18.20,100.78 C 17.74,101.06 16.98,100.75 16.51,100.09 C 16.05,99.43 16.05,98.66 16.51,98.37 C 16.98,98.09 17.74,98.40 18.20,99.06 C 18.67,99.72 18.67,100.49 18.20,100.78 L 18.20,100.78 z" id="p3881-7-2-6" style="opacity:1;fill:#595959;fill-opacity:1;fill-rule:nonzero;stroke:none;marker:none;visibility:visible;display:inline;overflow:visible;enable-background:accumulate"/>
<path d="M 17.68,98.19 C 17.62,98.18 17.56,98.16 17.50,98.16 C 17.35,98.16 17.21,98.20 17.09,98.27 C 16.87,98.38 16.70,98.50 16.51,98.61 C 16.03,98.91 16.03,99.72 16.51,100.41 C 16.99,101.09 17.79,101.40 18.27,101.10 C 18.49,101.03 18.64,100.87 18.83,100.75 C 19.21,100.51 19.30,99.96 19.07,99.39" id="p3881-7-2-6-3-8" style="opacity:1;fill:none;fill-opacity:1;fill-rule:nonzero;stroke:#515151;stroke-width:0.25;stroke-linecap:butt;stroke-linejoin:miter;marker:none;stroke-miterlimit:4;stroke-dasharray:none;stroke-dashoffset:0;stroke-opacity:1;visibility:visible;display:inline;overflow:visible;enable-background:accumulate"/>
<path d="M 18.49,103.11 C 18.73,103.20 18.99,103.24 19.25,103.24 C 20.25,103.20 20.74,102.30 20.36,101.22 C 20.16,100.65 19.89,100.15 19.47,99.77 L 15.47,96.24 C 15.32,96.07 15.13,95.91 14.95,95.75 C 14.22,95.13 13.34,94.74 12.49,94.76 C 10.97,94.82 10.22,96.18 10.79,97.79 C 11.16,98.83 11.99,99.70 12.92,100.20 L 12.91,100.21 C 13.11,100.30 18.20,102.99 18.38,103.07 C 18.40,103.08 18.42,103.08 18.44,103.09 C 18.45,103.10 18.47,103.10 18.49,103.11 L 18.49,103.11 z" id="p3881-5-2-4-6-5" style="opacity:1;fill:none;fill-opacity:1;fill-rule:nonzero;stroke:#515151;stroke-width:0.25;stroke-linecap:butt;stroke-linejoin:miter;marker:none;stroke-miterlimit:4;stroke-dasharray:none;stroke-dashoffset:0;stroke-opacity:1;visibility:visible;display:inline;overflow:visible;enable-background:accumulate"/>
<path d="M 17.90,100.48 C 17.63,100.66 17.20,100.48 16.93,100.09 C 16.66,99.69 16.66,99.23 16.92,99.06 C 17.18,98.88 17.61,99.06 17.88,99.45 C 18.15,99.85 18.16,100.31 17.90,100.48 L 17.90,100.48 z" id="p3881-7-3-1-5-5" style="fill:#535353;fill-opacity:1;fill-rule:nonzero;stroke:none;marker:none;visibility:visible;display:inline;overflow:visible;enable-background:accumulate"/>
<path d="M 17.15,99.06 C 17.03,99.28 17.06,99.62 17.28,99.94 C 17.49,100.23 17.78,100.41 18.03,100.42 C 18.04,100.42 18.05,100.42 18.06,100.42 C 18.18,100.19 18.12,99.82 17.90,99.51 C 17.70,99.23 17.40,99.08 17.15,99.06 z" id="p3881-7-3-1-6-5-5" style="opacity:1;fill:#515151;fill-opacity:1;fill-rule:nonzero;stroke:none;marker:none;visibility:visible;display:inline;overflow:visible;enable-background:accumulate"/>
</svg>
