<?xml version="1.0" encoding="UTF-8" standalone="no"?>
<svg xmlns:svg="http://www.w3.org/2000/svg" xmlns="http://www.w3.org/2000/svg" version="1.0" width="100%" height="100%" viewBox="0 0 48 132" id="svg2985" style="display:inline">
<defs id="defs2987"/>
<path d="M 24,84.18 L 0.12,96.21 L 0.18,119.84 L 24,131.78 L 24,84.18 z" id="p3863" style="fill:#838383;fill-opacity:1;stroke:none"/>
<path d="M 23.96,84.40 L 23.96,131.81 L 47.93,119.87 L 47.93,96.12 L 23.96,84.40 z" id="p3863-0" style="fill:#969696;fill-opacity:1;stroke:none"/>
<path d="M 24,108.10 L 24,131.12" id="p3976" style="fill:none;stroke:#a4a4a4;stroke-width:2;stroke-linecap:butt;stroke-linejoin:miter;marker:none;stroke-miterlimit:4;stroke-dasharray:none;stroke-dashoffset:0;stroke-opacity:1;visibility:visible;display:inline;overflow:visible;enable-background:accumulate"/>
<path d="M 24.06,108 L 47.9,96.06 L 24.06,84.12 L 0.19,96.12 L 24.06,108 z" id="p2993" style="fill:#bcbcbc;fill-opacity:1;stroke:none"/>
<path d="M 15.76,90.25 L 5.42,94.16 L 3.32,95.19 L 6.04,96.53 L 3.29,98.06 L 19.92,106.37 L 21.42,105.91 L 25.36,103.78 L 26.51,104.62 L 36.98,99.66 L 35.36,98.94 L 43.36,94.87 L 35.57,90.62 L 23.07,93.50 L 15.76,90.25 z" id="p5953" style="opacity:1;fill:#838383;fill-opacity:1;fill-rule:nonzero;stroke:none;marker:none;visibility:visible;display:inline;overflow:visible;enable-background:accumulate"/>
<path d="M 47.31,96.37 L 24.06,108 L 0.75,96.34" id="p2993-8" style="fill:none;stroke:#e9e9e9;stroke-width:1.5;stroke-linejoin:round;stroke-miterlimit:4;stroke-dasharray:none;stroke-opacity:1"/>
<path d="M 24,84.56 L 0.5,96.31 L 0.5,119.68 L 24,131.43 L 47.5,119.68 L 47.5,96.31 L 24,84.56 z" id="p3034" style="fill:none;fill-opacity:1;fill-rule:nonzero;stroke:#838383;stroke-width:1;stroke-linecap:butt;stroke-linejoin:miter;marker:none;stroke-miterlimit:4;stroke-dasharray:none;stroke-dashoffset:0;stroke-opacity:1;visibility:visible;display:inline;overflow:visible;enable-background:accumulate"/>
<path d="M 14.66,82.73 C 14.77,82.73 14.89,82.77 15.00,82.80 C 17.74,84.00 17.88,84.17 19.90,85.15 C 20.07,85.25 20.23,85.37 20.37,85.52 C 20.65,85.80 20.87,86.17 21.00,86.58 C 21.27,87.42 21.23,88.47 20.83,89.56 C 20.31,90.93 19.30,91.99 18.24,92.49 L 18.24,92.52 C 18.01,92.59 12.19,95.23 11.97,95.32 C 11.95,95.32 11.92,95.31 11.91,95.32 C 11.89,95.32 11.87,95.33 11.85,95.34 C 11.56,95.41 11.29,95.41 11.02,95.35 C 9.36,94.64 7.58,93.67 6.69,93.20 C 5.60,92.93 5.17,91.56 5.72,90.14 C 6.00,89.37 6.35,88.74 6.85,88.29 L 11.62,84.20 C 11.81,83.98 12.01,83.80 12.22,83.62 C 12.98,83.00 13.84,82.65 14.66,82.73 z" id="p3881-5-2-4-3-07" style="fill:#989898;fill-opacity:1;fill-rule:nonzero;stroke:none;marker:none;visibility:visible;display:inline;overflow:visible;enable-background:accumulate"/>
<path d="M 12.34,90.34 L 7.40,88.12" id="p4080-79-8-3" style="fill:none;stroke:#555555;stroke-width:0.51;stroke-linecap:round;stroke-linejoin:miter;stroke-miterlimit:4;stroke-dasharray:none;stroke-opacity:1"/>
<path d="M 14.09,88.43 L 9.41,86.24" id="p4082-5-3-6" style="fill:none;stroke:#555555;stroke-width:0.42;stroke-linecap:round;stroke-linejoin:miter;stroke-miterlimit:4;stroke-dasharray:none;stroke-opacity:1"/>
<path d="M 16.21,86.84 L 11.27,84.52" id="p4084-5-3-8" style="fill:none;stroke:#555555;stroke-width:0.34;stroke-linecap:butt;stroke-linejoin:miter;stroke-miterlimit:4;stroke-dasharray:none;stroke-opacity:1"/>
<path d="M 6.00,89.49 L 13.98,93.31 C 13.98,93.31 14.14,94.16 14.17,94.33 C 13.19,94.76 12.03,95.28 11.96,95.31 C 11.94,95.32 11.92,95.31 11.91,95.31 C 11.89,95.32 11.87,95.33 11.85,95.33 C 11.56,95.41 11.29,95.40 11.03,95.33 C 9.37,94.63 7.59,93.67 6.70,93.20 C 5.61,92.93 5.17,91.56 5.71,90.13 C 5.80,89.90 5.90,89.70 6.00,89.49 z" id="p7129-9" style="fill:#6c6c6c;fill-opacity:1;fill-rule:nonzero;stroke:none;marker:none;visibility:visible;display:inline;overflow:visible;enable-background:accumulate"/>
<path d="M 10.50,92.48 L 5.75,90.23" id="p4078-2-4-8-0" style="fill:none;stroke:#959595;stroke-width:0.58;stroke-linecap:butt;stroke-linejoin:miter;stroke-miterlimit:4;stroke-dasharray:none;stroke-opacity:1;display:inline"/>
<path d="M 5.55,90.77 L 13.74,94.51 C 13.03,94.83 12.02,95.29 11.96,95.31 C 11.94,95.32 11.92,95.31 11.91,95.31 C 11.89,95.32 11.87,95.33 11.85,95.33 C 11.56,95.41 11.29,95.40 11.03,95.33 C 9.37,94.63 7.59,93.67 6.70,93.20 C 5.78,92.98 5.34,91.94 5.55,90.77 z" id="p7131-2" style="opacity:1;fill:#7a7a7a;fill-opacity:1;fill-rule:nonzero;stroke:none;marker:none;visibility:visible;display:inline;overflow:visible;enable-background:accumulate"/>
<path d="M 10.45,94.30 L 5.55,91.87" id="p4076-6-5-6-2" style="fill:none;stroke:#949494;stroke-width:0.42;stroke-linecap:round;stroke-linejoin:miter;stroke-miterlimit:4;stroke-dasharray:none;stroke-opacity:1;display:inline"/>
<path d="M 10.69,92.16 L 5.94,89.92" id="p4078-4-2-8" style="fill:none;stroke:#555555;stroke-width:0.58;stroke-linecap:butt;stroke-linejoin:miter;stroke-miterlimit:4;stroke-dasharray:none;stroke-opacity:1"/>
<path d="M 18.14,85.51 L 13.14,83.18" id="p4084-9-2-2-2" style="fill:none;stroke:#555555;stroke-width:0.34;stroke-linecap:round;stroke-linejoin:miter;stroke-miterlimit:4;stroke-dasharray:none;stroke-opacity:1;display:inline"/>
<path d="M 14.66,82.73 C 14.77,82.73 14.89,82.77 15.00,82.80 C 17.74,84.00 17.88,84.17 19.90,85.15 C 20.07,85.25 20.23,85.37 20.37,85.52 C 20.65,85.80 20.87,86.17 21.00,86.58 C 21.27,87.42 21.23,88.47 20.83,89.56 C 20.31,90.93 19.30,91.99 18.24,92.49 L 18.24,92.52 C 18.01,92.59 12.19,95.23 11.97,95.32 C 11.95,95.32 11.92,95.31 11.91,95.32 C 11.89,95.32 11.87,95.33 11.85,95.34 C 11.56,95.41 11.29,95.41 11.02,95.35 C 9.36,94.64 7.58,93.67 6.69,93.20 C 5.60,92.93 5.17,91.56 5.72,90.14 C 6.00,89.37 6.35,88.74 6.85,88.29 L 11.62,84.20 C 11.81,83.98 12.01,83.80 12.22,83.62 C 12.98,83.00 13.84,82.65 14.66,82.73 z" id="p3881-5-2-4-3-0-5" style="opacity:1;fill:none;fill-opacity:1;fill-rule:nonzero;stroke:#515151;stroke-width:0.57;stroke-linecap:butt;stroke-linejoin:miter;marker:none;stroke-miterlimit:4;stroke-dasharray:none;stroke-dashoffset:0;stroke-opacity:1;visibility:visible;display:inline;overflow:visible;enable-background:accumulate"/>
<path d="M 36.48,85.07 C 36.53,85.09 37.46,85.65 37.52,85.68 L 37.52,91.65 L 32.27,94.30 C 32.20,94.26 31.28,93.71 31.23,93.69 L 31.23,87.71 L 36.48,85.07 z" id="p4502-0-2-5" style="fill:#bababa;fill-opacity:1;stroke:none;display:inline"/>
<path d="M 37.52,85.68 L 37.52,91.65 L 32.27,94.30 L 32.27,88.32 L 37.52,85.68 L 37.52,85.68 z" id="p4502-0-16" style="fill:#595959;fill-opacity:1;stroke:none;display:inline"/>
<path d="M 36.48,85.07 C 36.53,85.09 37.46,85.65 37.52,85.68 L 37.52,91.65 L 32.27,94.30 C 32.20,94.26 31.28,93.71 31.23,93.69 L 31.23,87.71 L 36.48,85.07 z" id="p4502-0-2-5-1" style="opacity:1;fill:none;fill-opacity:1;fill-rule:nonzero;stroke:#515151;stroke-width:0.50;stroke-linecap:round;stroke-linejoin:miter;marker:none;stroke-miterlimit:4;stroke-dasharray:none;stroke-dashoffset:0;stroke-opacity:1;visibility:visible;display:inline;overflow:visible;enable-background:accumulate"/>
<path d="M 21.61,81.67 L 34.00,87.87 C 34.00,90.66 34.00,93.22 34.00,95.77 L 21.61,101.96 L 9.22,95.77 C 9.22,93.18 9.22,90.00 9.22,87.87 L 21.61,81.67 z" id="p2993-7-4" style="fill:#999999;fill-opacity:1;stroke:none;display:inline"/>
<path d="M 29.79,85.77 L 34.00,87.88 L 34.00,95.78 L 21.67,101.94 L 21.67,92.44 L 29.79,85.77 z" id="p4502-88" style="fill:#595959;fill-opacity:1;stroke:none"/>
<path d="M 21.61,94.06 L 34.00,87.87 L 21.61,81.67 L 9.22,87.87 L 21.61,94.06 z" id="p2993-7-9-85" style="fill:#bababa;fill-opacity:1;stroke:none;display:inline"/>
<path d="M 21.67,94.19 L 21.67,101.83" id="p3111-7" style="fill:none;stroke:#7e7e7e;stroke-width:1.28;stroke-linecap:butt;stroke-linejoin:miter;stroke-miterlimit:4;stroke-dasharray:none;stroke-opacity:1"/>
<path d="M 17.43,86.47 L 24.75,90.10 L 19.22,92.87 L 11.91,89.22 L 17.43,86.47 L 17.43,86.47 z" id="p2993-7-9-7-2" style="opacity:1;fill:none;fill-opacity:1;fill-rule:nonzero;stroke:#454545;stroke-width:0.33;stroke-linecap:butt;stroke-linejoin:miter;marker:none;stroke-miterlimit:4;stroke-dasharray:none;stroke-dashoffset:0;stroke-opacity:1;visibility:visible;display:inline;overflow:visible;enable-background:accumulate"/>
<path d="M 9.22,87.87 L 21.61,94.06 L 34.00,87.87" id="p2993-7-9-4-2" style="fill:none;stroke:#c5c5c5;stroke-width:0.85;stroke-linejoin:bevel;stroke-opacity:1;display:inline"/>
<path d="M 28.50,95.05 L 28.50,92.53 L 24.20,94.68 L 24.20,96.76" id="p4705-2" style="fill:none;stroke:#797979;stroke-width:0.25;stroke-linecap:butt;stroke-linejoin:bevel;stroke-miterlimit:4;stroke-dasharray:none;stroke-opacity:1"/>
<path d="M 21.61,81.67 L 34.00,87.87 C 34.00,90.66 34.00,93.22 34.00,95.77 L 21.61,101.96 L 9.22,95.77 C 9.22,93.18 9.22,90.00 9.22,87.87 L 21.61,81.67 z" id="p2993-7-3-0" style="opacity:1;fill:none;fill-opacity:1;fill-rule:nonzero;stroke:#515151;stroke-width:0.83;stroke-linecap:butt;stroke-linejoin:miter;marker:none;stroke-miterlimit:4;stroke-dasharray:none;stroke-dashoffset:0;stroke-opacity:1;visibility:visible;display:inline;overflow:visible;enable-background:accumulate"/>
<path d="M 22.81,80.54 C 24.30,80.47 26.07,81.21 27.03,82.35 C 27.89,83.36 28.06,84.31 27.68,84.94 C 27.97,86.36 27.74,87.51 26.18,87.85 C 24.61,88.19 22.46,87.42 21.35,86.12 C 20.50,85.11 20.53,84.31 20.64,83.46 C 20.69,81.90 20.65,80.96 22.21,80.62 C 22.40,80.57 22.61,80.55 22.81,80.54 L 22.81,80.54 z" id="p4109-9" style="opacity:1;fill:#515151;fill-opacity:1;fill-rule:nonzero;stroke:#515151;stroke-width:0.50;stroke-linecap:round;stroke-linejoin:miter;marker:none;stroke-miterlimit:4;stroke-dasharray:none;stroke-dashoffset:0;stroke-opacity:1;visibility:visible;display:inline;overflow:visible;enable-background:accumulate"/>
<path d="M 22.34,71.76 L 34.72,77.95 C 34.72,80.23 34.72,82.45 34.72,83.61 L 28.21,86.86 L 15.83,80.67 C 15.83,78.74 15.83,76.44 15.83,75.01 L 22.34,71.76 z" id="p2993-7-9-8-7" style="fill:#999999;fill-opacity:1;stroke:none;display:inline"/>
<path d="M 31.92,76.53 L 34.72,77.95 L 34.72,83.61 L 28.24,86.86 L 28.24,79.97 L 28.15,79.71 L 31.92,76.53 z" id="p4170-3" style="fill:#595959;fill-opacity:1;stroke:none"/>
<path d="M 28.25,81.22 L 28.25,86.54" id="p5148-5" style="fill:none;stroke:#7e7e7e;stroke-width:0.42;stroke-linecap:butt;stroke-linejoin:miter;marker:none;stroke-miterlimit:4;stroke-dasharray:none;stroke-dashoffset:0;stroke-opacity:1;visibility:visible;display:inline;overflow:visible;enable-background:accumulate"/>
<path d="M 22.34,71.76 L 34.72,77.95 L 28.21,81.21 L 15.83,75.01 L 22.34,71.76 z" id="p2993-7-9-8-8-7" style="fill:#bababa;fill-opacity:1;stroke:none;display:inline"/>
<path d="M 34.72,77.95 L 28.21,81.21 L 15.83,75.01" id="p2993-7-9-8-8-57-8" style="fill:none;stroke:#c5c5c5;stroke-width:0.42;stroke-linecap:butt;stroke-linejoin:bevel;marker:none;stroke-miterlimit:4;stroke-dasharray:none;stroke-dashoffset:0;stroke-opacity:1;visibility:visible;display:inline;overflow:visible;enable-background:accumulate"/>
<path d="M 22.34,71.76 L 34.72,77.95 C 34.72,80.23 34.72,82.45 34.72,83.61 L 28.21,86.86 L 15.83,80.67 C 15.83,78.74 15.83,76.44 15.83,75.01 L 22.34,71.76 z" id="p2993-7-9-8-2-7" style="opacity:1;fill:none;fill-opacity:1;fill-rule:nonzero;stroke:#515151;stroke-width:0.83;stroke-linecap:butt;stroke-linejoin:miter;marker:none;stroke-miterlimit:4;stroke-dasharray:none;stroke-dashoffset:0;stroke-opacity:1;visibility:visible;display:inline;overflow:visible;enable-background:accumulate"/>
<path d="M 31.57,91.31 C 31.68,91.32 31.80,91.35 31.91,91.38 C 34.65,92.58 34.79,92.75 36.82,93.74 C 36.99,93.83 37.15,93.96 37.29,94.10 C 37.57,94.39 37.78,94.75 37.92,95.17 C 38.19,96.01 38.16,97.07 37.75,98.14 C 37.23,99.52 36.23,100.59 35.15,101.07 L 35.15,101.10 C 34.93,101.18 29.10,103.83 28.88,103.90 C 28.86,103.91 28.85,103.90 28.83,103.90 C 28.80,103.91 28.79,103.93 28.77,103.94 C 28.49,104.00 28.20,104.00 27.93,103.94 C 26.28,103.24 24.50,102.25 23.60,101.79 C 22.52,101.52 22.09,100.15 22.64,98.73 C 22.93,97.97 23.27,97.32 23.77,96.87 L 28.54,92.79 C 28.73,92.57 28.92,92.39 29.14,92.21 C 29.90,91.58 30.75,91.23 31.57,91.31 z" id="p3881-5-2-4-3" style="fill:#989898;fill-opacity:1;fill-rule:nonzero;stroke:none;marker:none;visibility:visible;display:inline;overflow:visible;enable-background:accumulate"/>
<path d="M 29.26,98.93 L 24.31,96.71" id="p4080-79-8" style="fill:none;stroke:#555555;stroke-width:0.51;stroke-linecap:round;stroke-linejoin:miter;stroke-miterlimit:4;stroke-dasharray:none;stroke-opacity:1"/>
<path d="M 31.01,97.03 L 26.33,94.81" id="p4082-5-3" style="fill:none;stroke:#555555;stroke-width:0.42;stroke-linecap:round;stroke-linejoin:miter;stroke-miterlimit:4;stroke-dasharray:none;stroke-opacity:1"/>
<path d="M 33.13,95.44 L 28.20,93.10" id="p4084-5-3" style="fill:none;stroke:#555555;stroke-width:0.34;stroke-linecap:butt;stroke-linejoin:miter;stroke-miterlimit:4;stroke-dasharray:none;stroke-opacity:1"/>
<path d="M 22.92,98.08 L 30.90,101.90 C 30.90,101.90 31.06,102.76 31.08,102.91 C 30.11,103.36 28.95,103.88 28.87,103.90 C 28.85,103.91 28.84,103.89 28.82,103.90 C 28.80,103.91 28.79,103.93 28.77,103.93 C 28.48,104.00 28.20,104.00 27.94,103.93 C 26.28,103.23 24.51,102.26 23.61,101.79 C 22.53,101.52 22.09,100.15 22.63,98.73 C 22.71,98.49 22.81,98.29 22.92,98.08 z" id="p7129" style="fill:#6c6c6c;fill-opacity:1;fill-rule:nonzero;stroke:none;marker:none;visibility:visible;display:inline;overflow:visible;enable-background:accumulate"/>
<path d="M 27.42,101.07 L 22.66,98.83" id="p4078-2-4-8" style="fill:none;stroke:#959595;stroke-width:0.58;stroke-linecap:butt;stroke-linejoin:miter;stroke-miterlimit:4;stroke-dasharray:none;stroke-opacity:1;display:inline"/>
<path d="M 27.36,102.89 L 22.46,100.46" id="p4076-6-5-6" style="fill:none;stroke:#949494;stroke-width:0.42;stroke-linecap:round;stroke-linejoin:miter;stroke-miterlimit:4;stroke-dasharray:none;stroke-opacity:1;display:inline"/>
<path d="M 27.61,100.75 L 22.86,98.51" id="p4078-4-2" style="fill:none;stroke:#555555;stroke-width:0.58;stroke-linecap:butt;stroke-linejoin:miter;stroke-miterlimit:4;stroke-dasharray:none;stroke-opacity:1"/>
<path d="M 27.38,102.50 L 22.49,100.08" id="p4076-2-4" style="opacity:1;fill:#7a7a7a;fill-opacity:1;fill-rule:nonzero;stroke:none;marker:none;visibility:visible;display:inline;overflow:visible;enable-background:accumulate"/>
<path d="M 35.06,94.10 L 30.06,91.76" id="p4084-9-2-2" style="fill:none;stroke:#555555;stroke-width:0.34;stroke-linecap:round;stroke-linejoin:miter;stroke-miterlimit:4;stroke-dasharray:none;stroke-opacity:1;display:inline"/>
<path d="M 28.76,103.94 C 28.48,104.00 28.20,104.00 27.92,103.94 C 26.84,103.67 26.42,102.29 26.96,100.87 C 27.25,100.10 27.61,99.46 28.10,99.01 L 32.85,94.93 C 33.04,94.72 33.26,94.54 33.48,94.36 C 34.35,93.64 35.35,93.28 36.25,93.51 C 37.89,93.92 38.55,96.00 37.73,98.15 C 37.21,99.53 36.21,100.58 35.14,101.07 L 35.15,101.09 C 34.93,101.17 29.09,103.83 28.87,103.90 C 28.85,103.91 28.84,103.91 28.82,103.92 C 28.80,103.93 28.78,103.93 28.76,103.94 L 28.76,103.94 z" id="p3881-5-2-4" style="opacity:1;fill:#616161;fill-opacity:1;fill-rule:nonzero;stroke:none;marker:none;visibility:visible;display:inline;overflow:visible;enable-background:accumulate"/>
<path d="M 31.57,91.31 C 31.68,91.32 31.80,91.35 31.91,91.38 C 34.65,92.58 34.79,92.75 36.82,93.74 C 36.99,93.83 37.15,93.96 37.29,94.10 C 37.57,94.39 37.78,94.75 37.92,95.17 C 38.19,96.01 38.16,97.07 37.75,98.14 C 37.23,99.52 36.23,100.59 35.15,101.07 L 35.15,101.10 C 34.93,101.18 29.10,103.83 28.88,103.90 C 28.86,103.91 28.85,103.90 28.83,103.90 C 28.80,103.91 28.79,103.93 28.77,103.94 C 28.49,104.00 28.20,104.00 27.93,103.94 C 26.28,103.24 24.50,102.25 23.60,101.79 C 22.52,101.52 22.09,100.15 22.64,98.73 C 22.93,97.97 23.27,97.32 23.77,96.87 L 28.54,92.79 C 28.73,92.57 28.92,92.39 29.14,92.21 C 29.90,91.58 30.75,91.23 31.57,91.31 z" id="p3881-5-2-4-3-0" style="opacity:1;fill:none;fill-opacity:1;fill-rule:nonzero;stroke:#515151;stroke-width:0.57;stroke-linecap:butt;stroke-linejoin:miter;marker:none;stroke-miterlimit:4;stroke-dasharray:none;stroke-dashoffset:0;stroke-opacity:1;visibility:visible;display:inline;overflow:visible;enable-background:accumulate"/>
<path d="M 29.56,103.11 C 29.32,103.20 29.06,103.24 28.80,103.24 C 27.80,103.20 27.31,102.30 27.69,101.22 C 27.89,100.65 28.16,100.15 28.58,99.77 L 32.58,96.24 C 32.73,96.07 32.92,95.91 33.10,95.75 C 33.83,95.13 34.71,94.74 35.56,94.76 C 37.08,94.82 37.83,96.18 37.26,97.79 C 36.89,98.83 36.06,99.70 35.13,100.20 L 35.14,100.21 C 34.94,100.30 29.85,102.99 29.67,103.07 C 29.65,103.08 29.63,103.08 29.61,103.09 C 29.60,103.10 29.58,103.10 29.56,103.11 L 29.56,103.11 z" id="p3881-5-2-4-6" style="opacity:1;fill:#515151;fill-opacity:1;fill-rule:nonzero;stroke:none;marker:none;visibility:visible;display:inline;overflow:visible;enable-background:accumulate"/>
<path d="M 35.41,94.77 C 35.55,95.26 35.53,95.84 35.30,96.45 C 34.94,97.49 34.11,98.36 33.17,98.85 L 33.19,98.89 C 33.00,98.96 27.91,101.66 27.73,101.74 C 27.71,101.75 27.68,101.76 27.67,101.77 C 27.66,101.78 27.63,101.76 27.62,101.77 C 27.61,101.77 27.60,101.77 27.59,101.77 C 27.61,101.59 27.63,101.42 27.70,101.24 C 27.90,100.66 28.16,100.15 28.58,99.77 L 32.58,96.24 C 32.74,96.06 32.91,95.91 33.09,95.76 C 33.78,95.17 34.61,94.79 35.41,94.77 z" id="p3881-5-2-4-6-7" style="opacity:1;fill:#595959;fill-opacity:1;fill-rule:nonzero;stroke:none;marker:none;visibility:visible;display:inline;overflow:visible;enable-background:accumulate"/>
<path d="M 35.04,94.83 C 35.06,94.84 35.09,94.84 35.12,94.86 C 35.50,95.02 35.76,95.15 36.18,95.39 C 36.89,95.82 36.87,96.97 36.16,97.97 C 35.46,98.97 34.33,99.43 33.62,98.99 C 33.17,98.71 32.92,98.67 32.58,98.46 C 32.04,98.12 31.91,97.36 32.21,96.56 L 32.58,96.24 C 32.74,96.06 32.91,95.91 33.09,95.76 C 33.67,95.27 34.36,94.93 35.04,94.83 z" id="p3881-7-2-2" style="fill:#707070;fill-opacity:1;fill-rule:nonzero;stroke:none;marker:none;visibility:visible;display:inline;overflow:visible;enable-background:accumulate"/>
<path d="M 33.70,98.77 C 34.39,99.19 35.50,98.74 36.19,97.76 C 36.88,96.78 36.88,95.64 36.19,95.21 C 35.50,94.79 34.38,95.24 33.70,96.22 C 33.01,97.20 33.01,98.34 33.70,98.77 L 33.70,98.77 z" id="p3881-7-2" style="opacity:1;fill:#595959;fill-opacity:1;fill-rule:nonzero;stroke:none;marker:none;visibility:visible;display:inline;overflow:visible;enable-background:accumulate"/>
<path d="M 35.04,94.83 C 35.06,94.84 35.09,94.84 35.12,94.86 C 35.50,95.02 35.76,95.15 36.18,95.39 C 36.89,95.82 36.87,96.97 36.16,97.97 C 35.46,98.97 34.33,99.43 33.62,98.99 C 33.17,98.71 32.92,98.67 32.58,98.46 C 32.04,98.12 31.91,97.36 32.21,96.56" id="p3881-7-2-2-4" style="opacity:1;fill:none;fill-opacity:1;fill-rule:nonzero;stroke:#515151;stroke-width:0.25;stroke-linecap:butt;stroke-linejoin:miter;marker:none;stroke-miterlimit:4;stroke-dasharray:none;stroke-dashoffset:0;stroke-opacity:1;visibility:visible;display:inline;overflow:visible;enable-background:accumulate"/>
<path d="M 30.55,98.16 C 30.70,98.16 30.84,98.20 30.96,98.27 C 31.18,98.38 31.35,98.50 31.54,98.61 C 32.02,98.91 32.02,99.72 31.54,100.41 C 31.06,101.09 30.26,101.40 29.78,101.10 C 29.56,101.03 29.41,100.87 29.22,100.75 C 28.84,100.51 28.75,99.96 28.98,99.39 L 30.37,98.19 C 30.43,98.18 30.49,98.16 30.55,98.16 z" id="p3881-7-2-6-3" style="fill:#707070;fill-opacity:1;fill-rule:nonzero;stroke:none;marker:none;visibility:visible;display:inline;overflow:visible;enable-background:accumulate"/>
<path d="M 29.85,100.78 C 30.31,101.06 31.07,100.75 31.54,100.09 C 32.00,99.43 32.00,98.66 31.54,98.37 C 31.07,98.09 30.31,98.40 29.85,99.06 C 29.38,99.72 29.38,100.49 29.85,100.78 L 29.85,100.78 z" id="p3881-7-2-6" style="opacity:1;fill:#595959;fill-opacity:1;fill-rule:nonzero;stroke:none;marker:none;visibility:visible;display:inline;overflow:visible;enable-background:accumulate"/>
<path d="M 30.37,98.19 C 30.43,98.18 30.49,98.16 30.55,98.16 C 30.70,98.16 30.84,98.20 30.96,98.27 C 31.18,98.38 31.35,98.50 31.54,98.61 C 32.02,98.91 32.02,99.72 31.54,100.41 C 31.06,101.09 30.26,101.40 29.78,101.10 C 29.56,101.03 29.41,100.87 29.22,100.75 C 28.84,100.51 28.75,99.96 28.98,99.39" id="p3881-7-2-6-3-8" style="opacity:1;fill:none;fill-opacity:1;fill-rule:nonzero;stroke:#515151;stroke-width:0.25;stroke-linecap:butt;stroke-linejoin:miter;marker:none;stroke-miterlimit:4;stroke-dasharray:none;stroke-dashoffset:0;stroke-opacity:1;visibility:visible;display:inline;overflow:visible;enable-background:accumulate"/>
<path d="M 29.56,103.11 C 29.32,103.20 29.06,103.24 28.80,103.24 C 27.80,103.20 27.31,102.30 27.69,101.22 C 27.89,100.65 28.16,100.15 28.58,99.77 L 32.58,96.24 C 32.73,96.07 32.92,95.91 33.10,95.75 C 33.83,95.13 34.71,94.74 35.56,94.76 C 37.08,94.82 37.83,96.18 37.26,97.79 C 36.89,98.83 36.06,99.70 35.13,100.20 L 35.14,100.21 C 34.94,100.30 29.85,102.99 29.67,103.07 C 29.65,103.08 29.63,103.08 29.61,103.09 C 29.60,103.10 29.58,103.10 29.56,103.11 L 29.56,103.11 z" id="p3881-5-2-4-6-5" style="opacity:1;fill:none;fill-opacity:1;fill-rule:nonzero;stroke:#515151;stroke-width:0.25;stroke-linecap:butt;stroke-linejoin:miter;marker:none;stroke-miterlimit:4;stroke-dasharray:none;stroke-dashoffset:0;stroke-opacity:1;visibility:visible;display:inline;overflow:visible;enable-background:accumulate"/>
<path d="M 30.15,100.48 C 30.42,100.66 30.85,100.48 31.12,100.09 C 31.39,99.69 31.39,99.23 31.13,99.06 C 30.87,98.88 30.44,99.06 30.17,99.45 C 29.90,99.85 29.89,100.31 30.15,100.48 L 30.15,100.48 z" id="p3881-7-3-1-5-5" style="fill:#535353;fill-opacity:1;fill-rule:nonzero;stroke:none;marker:none;visibility:visible;display:inline;overflow:visible;enable-background:accumulate"/>
<path d="M 30.90,99.06 C 31.02,99.28 30.99,99.62 30.77,99.94 C 30.56,100.23 30.27,100.41 30.02,100.42 C 30.01,100.42 30.00,100.42 29.99,100.42 C 29.87,100.19 29.93,99.82 30.15,99.51 C 30.35,99.23 30.65,99.08 30.90,99.06 z" id="p3881-7-3-1-6-5-5" style="opacity:1;fill:#515151;fill-opacity:1;fill-rule:nonzero;stroke:none;marker:none;visibility:visible;display:inline;overflow:visible;enable-background:accumulate"/>
</svg>
