<?xml version="1.0" encoding="UTF-8" standalone="no"?>
<svg xmlns:svg="http://www.w3.org/2000/svg" xmlns="http://www.w3.org/2000/svg" xmlns:xlink="http://www.w3.org/1999/xlink" version="1.0" width="100%" height="100%" viewBox="0 0 48 132" id="svg2985" style="display:inline">
<defs id="defs2987"/>
<g id="g2427">
<path d="M 24,96.19 L 0.12,108.22 L 0.19,119.83 L 24,131.77 L 24,96.19 z" id="p3863" style="fill:#838383;fill-opacity:1;stroke:none"/>
<path d="M 23.96,96.41 L 23.97,131.81 L 47.93,119.87 L 47.93,108.12 L 23.96,96.41 z" id="p3863-0" style="fill:#969696;fill-opacity:1;stroke:none"/>
<path d="M 24,120 L 24,131.12" id="p3976" style="fill:none;stroke:#a4a4a4;stroke-width:2;stroke-linecap:butt;stroke-linejoin:miter;marker:none;stroke-miterlimit:4;stroke-dasharray:none;stroke-dashoffset:0;stroke-opacity:1;visibility:visible;display:inline;overflow:visible;enable-background:accumulate"/>
<path d="M 24,120 L 0.16,108.06 L 24,96.12 L 47.87,108.12 L 24,120 z" id="p2993" style="fill:#bcbcbc;fill-opacity:1;stroke:none"/>
<path d="M 0.75,108.37 L 24,120 L 47.31,108.34" id="p2993-8" style="fill:none;stroke:#e9e9e9;stroke-width:1.5;stroke-linejoin:round;stroke-miterlimit:4;stroke-dasharray:none;stroke-opacity:1"/>
<path d="M 24,96.55 L 47.5,108.31 L 47.5,119.69 L 24,131.44 L 0.5,119.7 L 0.5,108.3 L 24,96.55 z" id="p3034" style="fill:none;fill-opacity:1;fill-rule:nonzero;stroke:#838383;stroke-width:1;stroke-linecap:butt;stroke-linejoin:miter;marker:none;stroke-miterlimit:4;stroke-dasharray:none;stroke-dashoffset:0;stroke-opacity:1;visibility:visible;display:inline;overflow:visible;enable-background:accumulate"/>
</g>
<g id="g2877">
<path d="M 23.21,90.88 L 6.49,99.31 L 6.54,107.43 L 23.21,115.79 L 23.21,90.88 z" id="p2437" style="fill:#6a6a6a;fill-opacity:1;stroke:none"/>
<path d="M 23.18,91.04 L 23.19,115.82 L 39.96,107.46 L 39.96,99.24 L 23.18,91.04 z" id="p2439" style="fill:#7a7a7a;fill-opacity:1;stroke:none"/>
<path d="M 23.21,107.55 L 23.21,115.34" id="p2441" style="fill:none;stroke:#858585;stroke-width:1.38;stroke-linecap:butt;stroke-linejoin:miter;marker:none;stroke-miterlimit:4;stroke-dasharray:none;stroke-dashoffset:0;stroke-opacity:1;visibility:visible;display:inline;overflow:visible;enable-background:accumulate"/>
<path d="M 23.21,107.55 L 6.52,99.19 L 23.21,90.84 L 39.92,99.24 L 23.21,107.55 z" id="p2443" style="fill:#989898;fill-opacity:1;stroke:none"/>
<path d="M 6.94,99.41 L 23.21,107.55 L 39.53,99.39" id="p2445" style="fill:none;stroke:#bdbdbd;stroke-width:1.03;stroke-linejoin:round;stroke-miterlimit:4;stroke-dasharray:none;stroke-opacity:1"/>
<path d="M 23.21,91.14 L 39.66,99.37 L 39.66,107.33 L 23.21,115.56 L 6.76,107.34 L 6.76,99.36 L 23.21,91.14 z" id="p2447" style="fill:none;fill-opacity:1;fill-rule:nonzero;stroke:#6a6a6a;stroke-width:0.69;stroke-linecap:butt;stroke-linejoin:miter;marker:none;stroke-miterlimit:4;stroke-dasharray:none;stroke-dashoffset:0;stroke-opacity:1;visibility:visible;display:inline;overflow:visible;enable-background:accumulate"/>
<path d="M 9.18,102.83 L 9.18,106.74 C 9.35,106.89 9.53,107.04 9.72,107.15 L 9.72,102.9 C 9.53,102.86 9.35,102.82 9.18,102.83 z M 9.09,102.85 C 8.89,102.87 8.71,102.94 8.56,103.03 L 8.56,106.06 C 8.71,106.28 8.89,106.48 9.09,106.66 L 9.09,102.85 z M 9.81,102.95 L 9.81,107.2 C 9.9,107.25 10,107.29 10.09,107.33 C 10.18,107.37 10.25,107.4 10.34,107.42 L 10.34,103.17 C 10.25,103.12 10.18,103.08 10.09,103.05 C 9.99,103 9.9,102.97 9.81,102.95 z M 10.43,103.22 L 10.43,107.47 C 10.62,107.51 10.8,107.51 10.97,107.51 L 10.97,103.63 C 10.8,103.48 10.62,103.33 10.43,103.22 z M 8.47,103.08 C 8.22,103.25 8.04,103.51 7.97,103.85 L 7.97,104.73 C 8.04,105.14 8.22,105.54 8.47,105.92 L 8.47,103.08 z M 11.06,103.71 L 11.06,107.52 C 11.26,107.5 11.44,107.46 11.59,107.37 L 11.59,104.31 C 11.44,104.09 11.26,103.89 11.06,103.71 z M 11.68,104.45 L 11.68,107.29 C 11.92,107.12 12.11,106.85 12.18,106.51 L 12.18,105.64 C 12.11,105.23 11.93,104.83 11.68,104.45 z" id="p3545" style="fill:#454545;fill-opacity:1;fill-rule:evenodd;stroke:none"/>
<path d="M 38.6,101.62 L 38.26,101.79 L 38.26,104.57 L 38.6,104.4 L 38.6,101.62 z M 38.02,101.89 L 37.72,102.06 L 37.72,104.84 L 38.02,104.71 L 38.02,101.89 z M 37.45,102.19 L 37.14,102.33 L 37.14,105.15 L 37.45,104.98 L 37.45,102.19 z M 36.94,102.43 L 36.6,102.6 L 36.6,105.42 L 36.94,105.25 L 36.94,102.43 z M 36.36,102.74 L 36.02,102.91 L 36.02,105.69 L 36.36,105.52 L 36.36,102.74 z M 35.78,103.01 L 35.44,103.18 L 35.44,105.99 L 35.78,105.83 L 35.78,103.01 z M 35.24,103.28 L 34.9,103.45 L 34.9,106.27 L 35.24,106.1 L 35.24,103.28 z M 34.66,103.58 L 34.36,103.72 L 34.36,106.54 L 34.66,106.37 L 34.66,103.58 z M 34.09,103.86 L 33.78,104.03 L 33.78,106.81 L 34.09,106.67 L 34.09,103.86 z M 33.58,104.13 L 33.24,104.26 L 33.24,107.08 L 33.58,106.91 L 33.58,104.13 z M 33,104.4 L 32.66,104.57 L 32.66,107.35 L 33,107.18 L 33,104.4 z M 32.42,104.67 L 32.08,104.84 L 32.08,107.66 L 32.42,107.49 L 32.42,104.67 z M 38.6,104.77 L 38.26,104.94 L 38.26,107.12 L 38.6,106.95 L 38.6,104.77 z M 31.88,104.94 L 31.54,105.11 L 31.54,107.93 L 31.88,107.76 L 31.88,104.94 z M 38.02,105.04 L 37.72,105.21 L 37.72,107.39 L 38.02,107.25 L 38.02,105.04 z M 31.3,105.25 L 31,105.38 L 31,108.2 L 31.3,108.03 L 31.3,105.25 z M 37.45,105.35 L 37.14,105.49 L 37.14,107.69 L 37.45,107.52 L 37.45,105.35 z M 30.73,105.52 L 30.42,105.69 L 30.42,108.47 L 30.73,108.34 L 30.73,105.52 z M 36.94,105.59 L 36.6,105.76 L 36.6,107.96 L 36.94,107.79 L 36.94,105.59 z M 36.36,105.89 L 36.02,106.06 L 36.02,108.24 L 36.36,108.07 L 36.36,105.89 z M 35.78,106.16 L 35.44,106.33 L 35.44,108.54 L 35.78,108.37 L 35.78,106.16 z M 35.24,106.44 L 34.9,106.61 L 34.9,108.81 L 35.24,108.64 L 35.24,106.44 z M 34.66,106.71 L 34.36,106.88 L 34.36,109.08 L 34.66,108.91 L 34.66,106.71 z M 34.09,107.01 L 33.78,107.15 L 33.78,109.36 L 34.09,109.22 L 34.09,107.01 z M 33.58,107.25 L 33.24,107.42 L 33.24,109.66 L 33.58,109.46 L 33.58,107.25 z M 33,107.56 L 32.66,107.73 L 32.66,109.93 L 33,109.76 L 33,107.56 z M 32.42,107.83 L 32.08,108 L 32.08,110.24 L 32.42,110.07 L 32.42,107.83 z M 31.88,108.1 L 31.54,108.27 L 31.54,110.51 L 31.88,110.34 L 31.88,108.1 z M 31.3,108.37 L 31,108.54 L 31,110.65 L 31.23,110.65 L 31.3,110.61 L 31.3,108.37 z M 30.73,108.68 L 30.42,108.81 L 30.42,110.88 L 30.73,110.88 L 30.73,108.68 z" id="p3723" style="fill:#424242;fill-opacity:1;fill-rule:evenodd;stroke:none"/>
<path d="M 29.06,106.56 C 28.95,106.56 28.84,106.62 28.71,106.68 L 25.12,108.53 C 24.62,108.78 24.21,109.42 24.21,110 L 24.21,110.03 C 24.21,110.60 24.62,110.85 25.12,110.59 L 28.71,108.75 C 29.22,108.49 29.62,107.82 29.62,107.25 C 29.62,106.82 29.38,106.55 29.06,106.56 z" id="r3894" style="fill:none;fill-opacity:1;fill-rule:nonzero;stroke:#424242;stroke-width:0.30;stroke-linecap:butt;stroke-linejoin:miter;marker:none;stroke-miterlimit:4;stroke-dasharray:none;stroke-dashoffset:0;stroke-opacity:1;visibility:visible;display:inline;overflow:visible;enable-background:accumulate"/>
</g>
<use transform="translate(0,-8.49)" id="use2908" x="0" y="0" width="48" height="132" xlink:href="#g2877"/>
<use transform="translate(0,-16.99)" id="use2910" x="0" y="0" width="48" height="132" xlink:href="#g2877"/>
<use transform="translate(0,-25.49)" id="use2912" x="0" y="0" width="48" height="132" xlink:href="#g2877"/>
</svg>
