<?xml version="1.0" encoding="UTF-8" standalone="no"?>
<svg xmlns:svg="http://www.w3.org/2000/svg" xmlns="http://www.w3.org/2000/svg" version="1.0" width="100%" height="100%" viewBox="0 0 48 132" id="svg2985" style="display:inline">
<defs id="defs2987"/>
<path d="M 24,96.19 L 0.12,108.22 L 0.19,119.83 L 24,131.77 L 24,96.19 z" id="p3863" style="fill:#838383;fill-opacity:1;stroke:none"/>
<path d="M 23.96,96.41 L 23.97,131.81 L 47.93,119.87 L 47.93,108.12 L 23.96,96.41 z" id="p3863-0" style="fill:#969696;fill-opacity:1;stroke:none"/>
<path d="M 24,120 L 24,131.12" id="p3976" style="fill:none;stroke:#a4a4a4;stroke-width:2;stroke-linecap:butt;stroke-linejoin:miter;marker:none;stroke-miterlimit:4;stroke-dasharray:none;stroke-dashoffset:0;stroke-opacity:1;visibility:visible;display:inline;overflow:visible;enable-background:accumulate"/>
<path d="M 24,120 L 0.16,108.06 L 24,96.12 L 47.87,108.12 L 24,120 z" id="p2993" style="fill:#bcbcbc;fill-opacity:1;stroke:none"/>
<path d="M 0.75,108.37 L 24,120 L 47.31,108.34" id="p2993-8" style="fill:none;stroke:#e9e9e9;stroke-width:1.5;stroke-linejoin:round;stroke-miterlimit:4;stroke-dasharray:none;stroke-opacity:1"/>
<path d="M 24,96.55 L 47.5,108.31 L 47.5,119.69 L 24,131.44 L 0.5,119.7 L 0.5,108.3 L 24,96.55 z" id="p3034" style="fill:none;fill-opacity:1;fill-rule:nonzero;stroke:#838383;stroke-width:1;stroke-linecap:butt;stroke-linejoin:miter;marker:none;stroke-miterlimit:4;stroke-dasharray:none;stroke-dashoffset:0;stroke-opacity:1;visibility:visible;display:inline;overflow:visible;enable-background:accumulate"/>
<path d="M 34.47,98.86 L 34.47,104.1" id="p3264" style="opacity:1;fill:none;fill-opacity:1;fill-rule:nonzero;stroke:#838383;stroke-width:1;stroke-linecap:round;stroke-linejoin:miter;marker:none;stroke-miterlimit:4;stroke-dasharray:none;stroke-dashoffset:0;stroke-opacity:1;visibility:visible;display:inline;overflow:visible;enable-background:accumulate"/>
<path d="M 16.04,107.88 L 16.04,113.4" id="p3266" style="opacity:1;fill:none;fill-opacity:1;fill-rule:nonzero;stroke:#838383;stroke-width:1;stroke-linecap:round;stroke-linejoin:miter;marker:none;stroke-miterlimit:4;stroke-dasharray:none;stroke-dashoffset:0;stroke-opacity:1;visibility:visible;display:inline;overflow:visible;enable-background:accumulate"/>
<path d="M 37.90,54.96 C 37.48,54.98 37.01,55.09 36.53,55.34 L 12.15,67.65 C 10.20,68.64 8.65,71.21 8.65,73.40 L 8.65,107.46 C 8.65,109.65 10.20,110.64 12.15,109.65 L 36.53,97.31 C 38.47,96.32 40.06,93.78 40.06,91.59 L 40.06,57.53 C 40.06,55.89 39.16,54.92 37.90,54.96 z" id="r2404" style="opacity:1;fill:#ffffff;fill-opacity:0.5;fill-rule:nonzero;stroke:#838383;stroke-width:1.06;stroke-linecap:butt;stroke-linejoin:miter;marker:none;stroke-miterlimit:4;stroke-dasharray:none;stroke-dashoffset:0;stroke-opacity:1;visibility:visible;display:inline;overflow:visible;enable-background:accumulate"/>
<g id="g2441">
<path d="M 32.33,76.45 C 32.35,76.44 32.38,76.42 32.4,76.42 C 32.95,76.26 33.55,76.03 34.08,75.91 C 35.58,75.55 36.76,76.29 37.14,77.57 C 37.27,77.99 37.28,78.56 37.1,79.13" id="p3881-6-0-0" style="fill:none;fill-opacity:1;fill-rule:nonzero;stroke:#ff1414;stroke-width:0.52;stroke-linecap:butt;stroke-linejoin:miter;marker:none;stroke-miterlimit:4;stroke-dasharray:none;stroke-dashoffset:0;stroke-opacity:1;visibility:visible;display:inline;overflow:visible;enable-background:accumulate"/>
<path d="M 24.99,86.56 L 24.99,92.49" id="p3111-6" style="fill:none;fill-opacity:1;fill-rule:nonzero;stroke:#ff1414;stroke-width:0.33;stroke-linecap:butt;stroke-linejoin:miter;marker:none;stroke-miterlimit:4;stroke-dasharray:none;stroke-dashoffset:0;stroke-opacity:1;visibility:visible;display:inline;overflow:visible;enable-background:accumulate"/>
<path d="M 34.65,76.95 L 25.03,86.43 L 15.41,86.3" id="p2993-7-9-4-0" style="fill:none;fill-opacity:1;fill-rule:nonzero;stroke:#ff1414;stroke-width:0.33;stroke-linecap:butt;stroke-linejoin:miter;marker:none;stroke-miterlimit:4;stroke-dasharray:none;stroke-dashoffset:0;stroke-opacity:1;visibility:visible;display:inline;overflow:visible;enable-background:accumulate"/>
<path d="M 30.47,78.12 C 30.52,78.67 30.49,79.27 29.91,80.24 C 29.05,81.66 27.37,83.07 26.15,83.39 C 25.02,83.69 24.79,83.01 24.95,81.92" id="p4109-4" style="fill:none;fill-opacity:1;fill-rule:nonzero;stroke:#ff1414;stroke-width:0.52;stroke-linecap:butt;stroke-linejoin:miter;marker:none;stroke-miterlimit:4;stroke-dasharray:none;stroke-dashoffset:0;stroke-opacity:1;visibility:visible;display:inline;overflow:visible;enable-background:accumulate"/>
<path d="M 35.61,69.37 L 27.32,77.55 L 27.32,80.43 L 35.61,72.25 L 35.61,69.37 z" id="p2993-7-9-8-8-5-59" style="fill:none;fill-opacity:1;fill-rule:nonzero;stroke:#ff1414;stroke-width:0.33;stroke-linecap:butt;stroke-linejoin:miter;marker:none;stroke-miterlimit:4;stroke-dasharray:none;stroke-dashoffset:0;stroke-opacity:1;visibility:visible;display:inline;overflow:visible;enable-background:accumulate"/>
<path d="M 26.7,77.59 L 26.7,81.73" id="p5148-2" style="fill:none;fill-opacity:1;fill-rule:nonzero;stroke:#ff1414;stroke-width:0.33;stroke-linecap:butt;stroke-linejoin:miter;marker:none;stroke-miterlimit:4;stroke-dasharray:none;stroke-dashoffset:0;stroke-opacity:1;visibility:visible;display:inline;overflow:visible;enable-background:accumulate"/>
<path d="M 21.67,77.49 L 26.73,77.56 L 36.35,68.07" id="p2993-7-9-8-8-57-9" style="fill:none;fill-opacity:1;fill-rule:nonzero;stroke:#ff1414;stroke-width:0.33;stroke-linecap:butt;stroke-linejoin:miter;marker:none;stroke-miterlimit:4;stroke-dasharray:none;stroke-dashoffset:0;stroke-opacity:1;visibility:visible;display:inline;overflow:visible;enable-background:accumulate"/>
<path d="M 31.3,68 L 21.68,77.49 C 21.68,79.27 21.68,80.99 21.68,81.88 L 26.73,81.96 L 36.35,72.47 C 36.35,70.98 36.35,69.18 36.35,68.07 L 31.3,68 z" id="p2993-7-9-8-2-6" style="fill:none;stroke:#ff1414;stroke-width:0.66;stroke-linecap:butt;stroke-linejoin:miter;marker:none;stroke-miterlimit:4;stroke-dasharray:none;stroke-dashoffset:0;stroke-opacity:1;visibility:visible;display:inline;overflow:visible;enable-background:accumulate"/>
<path d="M 12.37,93.14 C 12.16,93.24 11.96,93.4 11.79,93.59 C 11.1,94.35 11.12,95.48 11.81,96.12 C 12.18,96.47 12.57,96.7 13.02,96.73 L 17.22,96.83 C 17.4,96.88 17.59,96.88 17.78,96.87 C 18.54,96.87 19.31,96.57 19.9,95.93 C 20.94,94.77 20.93,93.05 19.88,92.08 C 19.21,91.46 18.28,91.32 17.43,91.57 L 17.43,91.55 C 17.26,91.62 12.62,93.03 12.45,93.1 C 12.44,93.1 12.43,93.11 12.41,93.12 C 12.4,93.12 12.39,93.13 12.37,93.14 L 12.37,93.14 z" id="p3881-5-4" style="fill:none;fill-opacity:1;fill-rule:nonzero;stroke:#ff1414;stroke-width:0.33;stroke-linecap:butt;stroke-linejoin:miter;marker:none;stroke-miterlimit:4;stroke-dasharray:none;stroke-dashoffset:0;stroke-opacity:1;visibility:visible;display:inline;overflow:visible;enable-background:accumulate"/>
<path d="M 16.06,89.64 C 15.6,89.88 15.23,90.36 14.81,90.72 C 14.12,91.35 13.54,91.95 12.88,92.57 C 12.51,92.93 12.11,93.28 11.74,93.64 C 11.13,94.39 11.21,95.25 11.5,95.73 C 11.83,96.39 12.49,96.73 13.25,96.74 C 14.61,96.72 16,96.74 17.3,96.85 C 18.04,96.95 19.02,96.84 19.85,95.99 C 21.12,94.75 22.42,93.56 23.63,92.39 C 24.37,91.52 24.48,90.43 24.27,89.73 C 23.88,88.44 22.71,87.68 21.2,88.05 C 20.68,88.17 20.08,88.4 19.52,88.56 C 18.37,88.92 17.21,89.23 16.06,89.64 L 16.06,89.64 z" id="p3881-6-4" style="fill:none;fill-opacity:1;fill-rule:nonzero;stroke:#ff1414;stroke-width:0.52;stroke-linecap:butt;stroke-linejoin:miter;marker:none;stroke-miterlimit:4;stroke-dasharray:none;stroke-dashoffset:0;stroke-opacity:1;visibility:visible;display:inline;overflow:visible;enable-background:accumulate"/>
<path d="M 14.14,93.22 C 13.99,93.36 13.8,93.55 13.63,93.7 C 13.24,94.13 13.24,94.77 13.63,95.13 C 14.02,95.5 14.65,95.43 15.04,95.01 C 15.23,94.83 15.38,94.67 15.56,94.52 C 15.94,94.1 15.94,93.46 15.56,93.1 C 15.46,93.01 15.35,92.98 15.25,92.93" id="p3881-7-3-7-9-7" style="fill:none;fill-opacity:1;fill-rule:nonzero;stroke:#ff1414;stroke-width:0.33;stroke-linecap:butt;stroke-linejoin:miter;marker:none;stroke-miterlimit:4;stroke-dasharray:none;stroke-dashoffset:0;stroke-opacity:1;visibility:visible;display:inline;overflow:visible;enable-background:accumulate"/>
<path d="M 17.83,92.32 C 17.77,92.36 17.7,92.41 17.65,92.47 C 17.44,92.65 17.2,92.92 16.96,93.11 C 16.44,93.69 16.44,94.55 16.96,95.05 C 17.49,95.53 18.35,95.46 18.88,94.88 C 19.14,94.64 19.33,94.44 19.56,94.24 C 19.65,94.13 19.74,94.01 19.8,93.89" id="p3881-7-3-7-7-7-5" style="fill:none;fill-opacity:1;fill-rule:nonzero;stroke:#ff1414;stroke-width:0.33;stroke-linecap:butt;stroke-linejoin:miter;marker:none;stroke-miterlimit:4;stroke-dasharray:none;stroke-dashoffset:0;stroke-opacity:1;visibility:visible;display:inline;overflow:visible;enable-background:accumulate"/>
<path d="M 12.96,93.54 C 12.78,93.62 12.6,93.73 12.45,93.87 C 11.83,94.44 11.78,95.29 12.33,95.78 C 12.61,96.05 12.92,96.22 13.29,96.25 L 16.78,96.36 C 16.93,96.39 17.09,96.39 17.24,96.4 C 17.88,96.4 18.54,96.18 19.05,95.7 C 19.99,94.84 20.08,93.55 19.25,92.81 C 18.74,92.34 17.97,92.22 17.25,92.41 C 15.88,92.75 14.43,93.13 13.03,93.51 C 13.02,93.51 13,93.52 12.99,93.53 C 12.98,93.53 12.97,93.53 12.96,93.54 L 12.96,93.54 z" id="p3881-5-7-8-6" style="fill:none;fill-opacity:1;fill-rule:nonzero;stroke:#ff1414;stroke-width:0.33;stroke-linecap:butt;stroke-linejoin:miter;marker:none;stroke-miterlimit:4;stroke-dasharray:none;stroke-dashoffset:0;stroke-opacity:1;visibility:visible;display:inline;overflow:visible;enable-background:accumulate"/>
<path d="M 26.3,86.23 L 26.3,90.87 L 30.38,90.94 L 30.38,86.3 L 26.3,86.23 z" id="p4502-0-7" style="fill:none;fill-opacity:1;fill-rule:nonzero;stroke:#ff1414;stroke-width:0.33;stroke-linecap:butt;stroke-linejoin:miter;marker:none;stroke-miterlimit:4;stroke-dasharray:none;stroke-dashoffset:0;stroke-opacity:1;visibility:visible;display:inline;overflow:visible;enable-background:accumulate"/>
<path d="M 27.39,85.37 L 33.05,79.8" id="p5229-81" style="fill:none;stroke:#ff1414;stroke-width:0.33;stroke-linecap:butt;stroke-linejoin:miter;stroke-miterlimit:4;stroke-dasharray:none;stroke-opacity:1"/>
<path d="M 26.58,90.9 L 30.38,90.94 C 30.43,90.89 31.15,90.12 31.19,90.07 L 31.19,85.43 L 27.11,85.36" id="p4502-0-2-0-6" style="fill:none;stroke:#ff1414;stroke-width:0.52;stroke-linecap:round;stroke-miterlimit:4;stroke-dasharray:none;stroke-opacity:1;display:inline"/>
<path d="M 32.67,79.96 L 32.67,84.61 L 36.76,84.67 L 36.76,80.03 L 32.67,79.96 L 32.67,79.96 z" id="p4502-0-1-2" style="fill:none;fill-opacity:1;fill-rule:nonzero;stroke:#ff1414;stroke-width:0.33;stroke-linecap:butt;stroke-linejoin:miter;marker:none;stroke-miterlimit:4;stroke-dasharray:none;stroke-dashoffset:0;stroke-opacity:1;visibility:visible;display:inline;overflow:visible;enable-background:accumulate"/>
<path d="M 32.95,84.63 L 36.76,84.67 C 36.8,84.62 37.52,83.85 37.56,83.8 L 37.56,79.16 L 33.48,79.09" id="p4502-0-2-0-9-1" style="fill:none;stroke:#ff1414;stroke-width:0.52;stroke-linecap:round;stroke-miterlimit:4;stroke-dasharray:none;stroke-opacity:1;display:inline"/>
<path d="M 32.6,73.63 L 34.49,71.73" id="p5093-4" style="fill:none;fill-opacity:1;fill-rule:nonzero;stroke:#ff1414;stroke-width:0.66;stroke-linecap:round;stroke-linejoin:miter;marker:none;stroke-miterlimit:4;stroke-dasharray:none;stroke-dashoffset:0;stroke-opacity:1;visibility:visible;display:inline;overflow:visible;enable-background:accumulate"/>
<path d="M 28.52,77.67 L 30.41,75.77" id="p5093-1-8" style="fill:none;fill-opacity:1;fill-rule:nonzero;stroke:#ff1414;stroke-width:0.66;stroke-linecap:round;stroke-linejoin:miter;marker:none;stroke-miterlimit:4;stroke-dasharray:none;stroke-dashoffset:0;stroke-opacity:1;visibility:visible;display:inline;overflow:visible;enable-background:accumulate"/>
<path d="M 21.66,80.13 L 15.38,86.32 L 15.38,90.09" id="p3294" style="fill:none;fill-opacity:1;fill-rule:nonzero;stroke:#ff1414;stroke-width:0.66;stroke-linecap:butt;stroke-linejoin:miter;marker:none;stroke-miterlimit:4;stroke-dasharray:none;stroke-dashoffset:0;stroke-opacity:1;visibility:visible;display:inline;overflow:visible;enable-background:accumulate"/>
<path d="M 26.75,90.9 L 25.05,92.54 L 23.48,92.55" id="p3296" style="fill:none;fill-opacity:1;fill-rule:nonzero;stroke:#ff1414;stroke-width:0.66;stroke-linecap:butt;stroke-linejoin:miter;marker:none;stroke-miterlimit:4;stroke-dasharray:none;stroke-dashoffset:0;stroke-opacity:1;visibility:visible;display:inline;overflow:visible;enable-background:accumulate"/>
<path d="M 33.09,84.62 L 31.27,86.39" id="p3298" style="fill:none;fill-opacity:1;fill-rule:nonzero;stroke:#ff1414;stroke-width:0.66;stroke-linecap:butt;stroke-linejoin:miter;marker:none;stroke-miterlimit:4;stroke-dasharray:none;stroke-dashoffset:0;stroke-opacity:1;visibility:visible;display:inline;overflow:visible;enable-background:accumulate"/>
<path d="M 34.59,79.12 L 34.59,76.92 L 31.83,76.95" id="p3300" style="fill:none;fill-opacity:1;fill-rule:nonzero;stroke:#ff1414;stroke-width:0.66;stroke-linecap:butt;stroke-linejoin:miter;marker:none;stroke-miterlimit:4;stroke-dasharray:none;stroke-dashoffset:0;stroke-opacity:1;visibility:visible;display:inline;overflow:visible;enable-background:accumulate"/>
<path d="M 24.3,81.8 L 22.04,84.03 L 17.77,83.97" id="p3305" style="fill:none;fill-opacity:1;fill-rule:nonzero;stroke:#ff1414;stroke-width:0.33;stroke-linecap:butt;stroke-linejoin:miter;marker:none;stroke-miterlimit:4;stroke-dasharray:none;stroke-dashoffset:0;stroke-opacity:1;visibility:visible;display:inline;overflow:visible;enable-background:accumulate"/>
</g>
</svg>
