<?xml version="1.0" encoding="UTF-8" standalone="no"?>
<svg xmlns:svg="http://www.w3.org/2000/svg" xmlns="http://www.w3.org/2000/svg" version="1.0" width="100%" height="100%" viewBox="0 0 48 132" id="svg2985" style="display:inline">
<defs id="defs2987"/>
<path d="M 24,96.19 L 0.12,108.22 L 0.19,119.83 L 24,131.77 L 24,96.19 z" id="p3863" style="fill:#838383;fill-opacity:1;stroke:none"/>
<path d="M 23.96,96.41 L 23.97,131.81 L 47.93,119.87 L 47.93,108.12 L 23.96,96.41 z" id="p3863-0" style="fill:#969696;fill-opacity:1;stroke:none"/>
<path d="M 24,120 L 24,131.12" id="p3976" style="fill:none;stroke:#a4a4a4;stroke-width:2;stroke-linecap:butt;stroke-linejoin:miter;marker:none;stroke-miterlimit:4;stroke-dasharray:none;stroke-dashoffset:0;stroke-opacity:1;visibility:visible;display:inline;overflow:visible;enable-background:accumulate"/>
<path d="M 24,120 L 0.16,108.06 L 24,96.12 L 47.87,108.12 L 24,120 z" id="p2993" style="fill:#bcbcbc;fill-opacity:1;stroke:none"/>
<path d="M 0.75,108.37 L 24,120 L 47.31,108.34" id="p2993-8" style="fill:none;stroke:#e9e9e9;stroke-width:1.5;stroke-linejoin:round;stroke-miterlimit:4;stroke-dasharray:none;stroke-opacity:1"/>
<path d="M 24,96.55 L 47.5,108.31 L 47.5,119.69 L 24,131.44 L 0.5,119.7 L 0.5,108.3 L 24,96.55 z" id="p3034" style="fill:none;fill-opacity:1;fill-rule:nonzero;stroke:#838383;stroke-width:1;stroke-linecap:butt;stroke-linejoin:miter;marker:none;stroke-miterlimit:4;stroke-dasharray:none;stroke-dashoffset:0;stroke-opacity:1;visibility:visible;display:inline;overflow:visible;enable-background:accumulate"/>
<g id="g2429">
<path d="M 24,72.1 L 1.99,83.18 L 2.06,107.19 L 24,118.2 L 24,72.1 z" id="p2417" style="fill:#5f5f5f;fill-opacity:1;stroke:none"/>
<path d="M 23.96,72.58 L 23.97,118.23 L 46.05,107.23 L 46.05,83.37 L 23.96,72.58 z" id="p2419" style="fill:#6e6e6e;fill-opacity:1;stroke:none"/>
<path d="M 24,94.32 L 24,117.6" id="p2421" style="fill:none;stroke:#787878;stroke-width:1.84;stroke-linecap:butt;stroke-linejoin:miter;marker:none;stroke-miterlimit:4;stroke-dasharray:none;stroke-dashoffset:0;stroke-opacity:1;visibility:visible;display:inline;overflow:visible;enable-background:accumulate"/>
<path d="M 24,94.04 L 2.03,83.03 L 24,72.03 L 45.99,83.09 L 24,94.04 z" id="p2423" style="fill:#898989;fill-opacity:1;stroke:none"/>
<path d="M 2.57,83.32 L 24,94.04 L 45.48,83.29" id="p2425" style="fill:none;stroke:#aaaaaa;stroke-width:1.38;stroke-linejoin:round;stroke-miterlimit:4;stroke-dasharray:none;stroke-opacity:1"/>
<path d="M 24,71.86 L 45.65,82.7 L 45.65,107.06 L 24,117.89 L 2.34,107.07 L 2.34,82.69 L 24,71.86 z" id="p2427" style="fill:none;fill-opacity:1;fill-rule:nonzero;stroke:#5f5f5f;stroke-width:0.92;stroke-linecap:butt;stroke-linejoin:miter;marker:none;stroke-miterlimit:4;stroke-dasharray:none;stroke-dashoffset:0;stroke-opacity:1;visibility:visible;display:inline;overflow:visible;enable-background:accumulate"/>
</g>
<path d="M 41.15,89.53 C 40.80,89.54 40.43,89.63 40.03,89.84 L 29.28,95.34 C 27.66,96.16 26.37,98.29 26.37,100.12 L 26.37,110.25 C 26.37,112.08 27.66,112.88 29.28,112.06 L 40.03,106.59 C 41.64,105.76 42.93,103.61 42.93,101.78 L 42.93,91.65 C 42.93,90.28 42.20,89.49 41.15,89.53 z" id="r2539" style="opacity:1;fill:#343434;fill-opacity:1;fill-rule:nonzero;stroke:none;marker:none;visibility:visible;display:inline;overflow:visible;enable-background:accumulate"/>
<path d="M 41.65,89.12 C 41.76,89.41 41.8,89.73 41.8,90.12 L 41.8,100.21 C 41.8,102.05 40.5,104.22 38.87,105.06 L 28.02,110.65 C 27.59,110.87 27.17,110.99 26.8,111 C 26.7,110.7 26.65,110.38 26.65,110 L 26.65,99.9 C 26.65,98.06 27.95,95.9 29.59,95.06 L 40.43,89.46 C 40.86,89.24 41.28,89.12 41.65,89.12 z" id="r3311" style="opacity:1;fill:#2a3b2b;fill-opacity:1;fill-rule:nonzero;stroke:none;marker:none;visibility:visible;display:inline;overflow:visible;enable-background:accumulate"/>
<path d="M 41.77,89.84 C 41.78,89.93 41.8,90.02 41.8,90.12 L 41.8,91.5 L 26.74,99.03 C 26.89,98.3 27.19,97.56 27.62,96.9 L 41.77,89.84 z M 41.8,92.93 L 41.8,94.62 L 26.65,102.21 L 26.65,100.53 L 41.8,92.93 z M 41.8,96.06 L 41.8,97.75 L 26.65,105.34 L 26.65,103.65 L 41.8,96.06 z M 41.8,99.18 L 41.8,100.21 C 41.8,100.43 41.78,100.64 41.74,100.87 C 41.74,100.88 41.74,100.89 41.74,100.9 L 26.65,108.43 L 26.65,106.78 L 41.8,99.18 z M 41.15,102.62 C 40.61,103.66 39.8,104.58 38.87,105.06 L 28.02,110.65 C 27.59,110.87 27.17,110.99 26.8,111 C 26.7,110.7 26.65,110.38 26.65,110 L 26.65,109.87 L 41.15,102.62 z" id="p3316" style="fill:#284024;fill-opacity:1;stroke:none"/>
<path d="M 40.74,92.75 C 40.81,92.74 40.88,92.74 40.93,92.78 C 41.04,92.84 41.12,92.95 41.18,93.06 C 41.3,93.28 41.38,93.59 41.46,93.96 C 41.6,94.59 41.7,95.4 41.8,96.25 L 41.8,99.03 C 41.69,98.36 41.59,97.61 41.49,96.81 C 41.37,95.79 41.24,94.74 41.09,94.03 C 41.01,93.67 40.92,93.4 40.84,93.25 C 40.79,93.17 40.75,93.13 40.74,93.12 C 40.7,93.14 40.59,93.29 40.49,93.56 C 40.4,93.82 40.29,94.21 40.21,94.65 C 40.06,95.53 39.96,96.64 39.84,97.78 C 39.72,98.92 39.6,100.09 39.43,101 C 39.34,101.45 39.24,101.84 39.12,102.15 C 39,102.46 38.86,102.69 38.62,102.81 C 38.5,102.87 38.36,102.9 38.24,102.84 C 38.12,102.78 38.03,102.67 37.96,102.56 C 37.83,102.34 37.73,102.03 37.65,101.65 C 37.48,100.9 37.38,99.87 37.27,98.84 C 37.16,97.81 37.05,96.78 36.9,96.06 C 36.82,95.7 36.73,95.42 36.65,95.28 C 36.61,95.2 36.6,95.19 36.59,95.18 C 36.58,95.18 36.58,95.17 36.55,95.18 C 36.5,95.21 36.37,95.35 36.27,95.62 C 36.17,95.89 36.07,96.25 35.99,96.68 C 35.83,97.55 35.7,98.68 35.59,99.81 C 35.47,100.94 35.36,102.09 35.21,103 C 35.13,103.45 35.07,103.84 34.96,104.15 C 34.86,104.46 34.74,104.68 34.52,104.81 C 34.5,104.82 34.49,104.84 34.49,104.84 L 34.46,104.84 C 34.34,104.89 34.19,104.88 34.09,104.81 C 33.98,104.74 33.93,104.64 33.87,104.53 C 33.75,104.3 33.67,104 33.59,103.62 C 33.42,102.86 33.3,101.82 33.18,100.81 C 33.06,99.79 32.93,98.8 32.77,98.09 C 32.7,97.73 32.61,97.46 32.52,97.31 C 32.48,97.23 32.44,97.19 32.43,97.18 C 32.39,97.2 32.27,97.35 32.18,97.62 C 32.09,97.89 32,98.25 31.93,98.68 C 31.78,99.56 31.67,100.7 31.55,101.84 C 31.44,102.98 31.29,104.12 31.12,105.03 C 31.03,105.48 30.93,105.87 30.8,106.18 C 30.68,106.49 30.57,106.75 30.34,106.87 C 30.22,106.93 30.05,106.93 29.93,106.87 C 29.81,106.81 29.75,106.73 29.68,106.62 C 29.54,106.4 29.45,106.09 29.37,105.71 C 29.2,104.96 29.1,103.93 28.99,102.9 C 28.88,101.87 28.77,100.84 28.62,100.12 C 28.54,99.76 28.45,99.49 28.37,99.34 C 28.33,99.26 28.28,99.22 28.27,99.21 C 28.26,99.21 28.27,99.2 28.24,99.21 C 28.19,99.24 28.06,99.41 27.96,99.68 C 27.86,99.95 27.79,100.31 27.71,100.75 C 27.55,101.62 27.42,102.76 27.3,103.9 C 27.19,105.04 27.05,106.19 26.9,107.09 C 26.82,107.54 26.76,107.94 26.65,108.25 L 26.65,106.06 C 26.73,105.37 26.82,104.63 26.9,103.87 C 27.02,102.73 27.14,101.59 27.3,100.68 C 27.39,100.23 27.47,99.84 27.59,99.53 C 27.7,99.22 27.85,98.99 28.09,98.87 C 28.2,98.81 28.35,98.81 28.46,98.87 C 28.57,98.93 28.65,99.01 28.71,99.12 C 28.84,99.34 28.91,99.68 28.99,100.06 C 29.15,100.81 29.26,101.84 29.37,102.87 C 29.48,103.9 29.59,104.91 29.74,105.62 C 29.82,105.98 29.94,106.26 30.02,106.4 C 30.07,106.47 30.1,106.52 30.12,106.53 C 30.13,106.53 30.11,106.54 30.15,106.53 C 30.22,106.49 30.35,106.33 30.46,106.06 C 30.57,105.78 30.66,105.4 30.74,104.96 C 30.91,104.08 31.03,102.95 31.15,101.81 C 31.27,100.67 31.37,99.52 31.52,98.62 C 31.6,98.17 31.7,97.8 31.8,97.5 C 31.91,97.19 32.01,96.95 32.24,96.84 C 32.36,96.78 32.54,96.78 32.65,96.84 C 32.76,96.9 32.81,96.98 32.87,97.09 C 32.99,97.31 33.1,97.62 33.18,98 C 33.34,98.74 33.46,99.76 33.59,100.78 C 33.71,101.79 33.81,102.8 33.96,103.53 C 34.04,103.89 34.13,104.18 34.21,104.34 C 34.24,104.4 34.28,104.41 34.3,104.43 C 34.36,104.39 34.5,104.29 34.59,104.03 C 34.68,103.75 34.76,103.37 34.84,102.93 C 34.99,102.05 35.09,100.91 35.21,99.78 C 35.33,98.64 35.45,97.52 35.62,96.62 C 35.7,96.17 35.78,95.77 35.9,95.46 C 36.01,95.16 36.13,94.92 36.37,94.81 C 36.48,94.75 36.66,94.75 36.77,94.81 C 36.89,94.87 36.96,94.98 37.02,95.09 C 37.15,95.31 37.23,95.62 37.3,96 C 37.46,96.75 37.57,97.78 37.68,98.81 C 37.79,99.84 37.9,100.87 38.05,101.59 C 38.13,101.95 38.22,102.23 38.3,102.37 C 38.35,102.44 38.38,102.46 38.4,102.46 C 38.41,102.47 38.4,102.48 38.43,102.46 C 38.5,102.43 38.64,102.27 38.74,102 C 38.85,101.72 38.94,101.34 39.02,100.9 C 39.19,100.02 39.31,98.88 39.43,97.75 C 39.55,96.61 39.68,95.46 39.84,94.56 C 39.91,94.11 40.01,93.74 40.12,93.43 C 40.22,93.13 40.32,92.89 40.55,92.78 C 40.61,92.75 40.68,92.75 40.74,92.75 z" id="p3364" style="fill:#0ccd0a;fill-opacity:1;fill-rule:evenodd;stroke:none"/>
<path d="M 3.84,87.9 C 3.9,87.9 3.98,87.93 4.05,87.96 L 4.24,88.06 L 4.24,95.34 L 3.77,95.12 C 3.71,95.05 3.66,94.95 3.62,94.87 L 3.62,87.96 C 3.67,87.92 3.75,87.9 3.84,87.9 z M 4.87,88.37 L 5.46,88.65 L 5.46,96 L 4.87,95.68 L 4.87,88.37 z M 6.09,88.96 L 6.68,89.28 L 6.68,96.65 L 6.65,96.62 L 6.09,96.31 L 6.09,88.96 z M 7.3,89.59 L 7.93,89.9 L 7.93,97.28 L 7.3,96.96 L 7.3,89.59 z M 8.52,90.18 L 9.12,90.5 L 9.12,97.87 L 8.52,97.56 L 8.52,90.18 z M 9.74,90.81 L 10.37,91.12 L 10.37,98.5 L 9.74,98.18 L 9.74,90.81 z M 10.96,91.4 L 11.59,91.71 L 11.59,99.09 L 10.96,98.78 L 10.96,91.4 z M 12.18,92.03 L 12.8,92.34 L 12.8,99.71 L 12.18,99.4 L 12.18,92.03 z M 13.43,92.65 L 14.02,92.93 L 14.02,100.31 L 13.43,100.03 L 13.43,92.65 z M 14.62,93.25 L 15.24,93.56 L 15.24,100.93 L 14.62,100.62 L 14.62,93.25 z M 15.87,93.87 L 16.46,94.15 L 16.46,101.53 L 15.87,101.25 L 15.87,93.87 z M 17.09,94.46 L 17.68,94.78 L 17.68,102.15 L 17.09,101.84 L 17.09,94.46 z M 18.3,95.09 L 18.93,95.4 L 18.93,102.78 L 18.3,102.46 L 18.3,95.09 z M 19.52,95.68 L 19.9,95.87 C 19.98,95.91 20.05,95.96 20.12,96.03 L 20.12,103.31 C 20.05,103.31 19.98,103.28 19.9,103.25 L 19.52,103.06 L 19.52,95.68 z" id="r3376" style="opacity:1;fill:#3f3f3f;fill-opacity:1;fill-rule:nonzero;stroke:none;marker:none;visibility:visible;display:inline;overflow:visible;enable-background:accumulate"/>
</svg>
