<?xml version="1.0" encoding="UTF-8" standalone="no"?>
<svg xmlns:svg="http://www.w3.org/2000/svg" xmlns="http://www.w3.org/2000/svg" xmlns:xlink="http://www.w3.org/1999/xlink" version="1.0" width="100%" height="100%" viewBox="0 0 48 132" id="svg2985" style="display:inline">
<defs id="defs2987">
<linearGradient id="lg3246">
<stop id="s3248" style="stop-color:#eeeea1;stop-opacity:1" offset="0"/>
<stop id="s3250" style="stop-color:#eeeea1;stop-opacity:0" offset="1"/>
</linearGradient>
<linearGradient x1="25.63" y1="23.25" x2="25.63" y2="115.25" id="lg3252" xlink:href="#lg3246" gradientUnits="userSpaceOnUse"/>
</defs>
<path d="M 24,96.19 L 0.12,108.22 L 0.19,119.83 L 24,131.77 L 24,96.19 z" id="p3863" style="fill:#838383;fill-opacity:1;stroke:none"/>
<path d="M 23.96,96.41 L 23.97,131.81 L 47.93,119.87 L 47.93,108.12 L 23.96,96.41 z" id="p3863-0" style="fill:#969696;fill-opacity:1;stroke:none"/>
<path d="M 24,120 L 24,131.12" id="p3976" style="fill:none;stroke:#a4a4a4;stroke-width:2;stroke-linecap:butt;stroke-linejoin:miter;marker:none;stroke-miterlimit:4;stroke-dasharray:none;stroke-dashoffset:0;stroke-opacity:1;visibility:visible;display:inline;overflow:visible;enable-background:accumulate"/>
<path d="M 24,120 L 0.16,108.06 L 24,96.12 L 47.87,108.12 L 24,120 z" id="p2993" style="fill:#bcbcbc;fill-opacity:1;stroke:none"/>
<path d="M 0.75,108.37 L 24,120 L 47.31,108.34" id="p2993-8" style="fill:none;stroke:#e9e9e9;stroke-width:1.5;stroke-linejoin:round;stroke-miterlimit:4;stroke-dasharray:none;stroke-opacity:1"/>
<path d="M 24,96.55 L 47.5,108.31 L 47.5,119.69 L 24,131.44 L 0.5,119.7 L 0.5,108.3 L 24,96.55 z" id="p3034" style="fill:none;fill-opacity:1;fill-rule:nonzero;stroke:#838383;stroke-width:1;stroke-linecap:butt;stroke-linejoin:miter;marker:none;stroke-miterlimit:4;stroke-dasharray:none;stroke-dashoffset:0;stroke-opacity:1;visibility:visible;display:inline;overflow:visible;enable-background:accumulate"/>
<rect width="10.87" height="26.87" rx="3.78" ry="4.40" x="11.42" y="82.34" id="r3315" style="opacity:1;fill:#969696;fill-opacity:1;fill-rule:nonzero;stroke:#838383;stroke-width:0.93;stroke-linecap:butt;stroke-linejoin:miter;marker:none;stroke-miterlimit:4;stroke-dasharray:none;stroke-dashoffset:0;stroke-opacity:1;visibility:visible;display:inline;overflow:visible;enable-background:accumulate"/>
<rect width="3.98" height="76.05" ry="1.99" x="14.86" y="8.79" id="r2440" style="fill:#969696;fill-opacity:1;fill-rule:nonzero;stroke:#838383;stroke-width:1;stroke-linecap:butt;stroke-linejoin:miter;marker:none;stroke-miterlimit:4;stroke-dasharray:none;stroke-dashoffset:0;stroke-opacity:1;visibility:visible;display:inline;overflow:visible;enable-background:accumulate"/>
<path d="M 19.56,89.28 C 17.24,89.63 14.29,98.36 12.84,109.03 L 12.03,109.43 C 13.23,112.73 18.86,115.25 25.65,115.25 C 33.32,115.25 39.56,112.04 39.56,108.12 C 39.56,104.2 33.32,101.03 25.65,101.03 C 24.66,101.03 23.71,101.11 22.78,101.21 L 22.78,103.9 C 22.78,104.08 22.68,104.25 22.53,104.34 C 22.37,104.43 22.18,104.43 22.03,104.34 C 21.87,104.25 21.77,104.08 21.78,103.9 L 21.78,93.62 C 21.38,90.79 20.62,89.12 19.56,89.28 z" id="p3313" style="opacity:1;fill:#ffffac;fill-opacity:0.25;fill-rule:nonzero;stroke:none;marker:none;visibility:visible;display:inline;overflow:visible;enable-background:accumulate"/>
<path d="M 19,84.78 C 18.81,84.77 18.61,84.79 18.40,84.84 C 17.58,85.02 16.98,85.54 17.09,86.03 C 17.19,86.51 17.95,86.77 18.78,86.59 C 19.60,86.41 20.16,85.88 20.06,85.40 C 19.98,85.04 19.56,84.79 19,84.78 z" id="p3334" style="opacity:1;fill:#cdcdcd;fill-opacity:1;fill-rule:nonzero;stroke:none;marker:none;visibility:visible;display:inline;overflow:visible;enable-background:accumulate"/>
<path d="M 18.46,23.25 L 11.71,107.68 L 11.81,107.68 C 11.79,107.83 11.78,107.97 11.78,108.12 C 11.78,112.04 17.99,115.25 25.65,115.25 C 33.32,115.25 39.56,112.04 39.56,108.12 C 39.56,107.67 39.46,107.23 39.31,106.81 L 32.18,23.25 L 18.46,23.25 z" id="p2449" style="fill:url(#lg3252);fill-opacity:1;fill-rule:evenodd;stroke:none"/>
<path d="M 25.62,16.84 C 21.35,16.84 17.41,20.54 13.65,24.18 C 13.45,24.63 13.34,25.08 13.34,25.56 C 13.34,29 18.77,31.78 25.49,31.78 C 32.22,31.78 37.68,29 37.68,25.56 C 37.68,24.84 37.43,24.17 36.99,23.53 C 33.45,20.07 29.74,16.84 25.62,16.84 z" id="p2438" style="opacity:1;fill:#969696;fill-opacity:1;fill-rule:nonzero;stroke:none;marker:none;visibility:visible;display:inline;overflow:visible;enable-background:accumulate"/>
<path d="M 22.21,20.53 C 21.46,20.54 20.64,20.66 19.75,20.9 C 19.73,20.91 19.73,20.92 19.71,20.93 C 17.74,22.31 15.83,24.12 13.96,25.93 C 13.81,26.29 13.72,26.65 13.68,27.03 C 14.97,29.75 19.76,31.78 25.5,31.78 C 26.37,31.78 27.2,31.74 28.03,31.65 C 26.16,26.7 26.94,22.02 24.84,21.03 C 24.08,20.67 23.2,20.5 22.21,20.53 z" id="p3228" style="fill:#767676;fill-opacity:0.45;fill-rule:evenodd;stroke:none"/>
<path d="M 18.12,14.93 C 17.46,15.01 16.93,15.52 16.82,16.18 C 16.71,16.84 17.05,17.49 17.65,17.78 L 22.4,20.15 C 23.14,20.52 24.05,20.22 24.42,19.48 C 24.79,18.74 24.49,17.83 23.75,17.46 L 19,15.09 C 18.73,14.95 18.42,14.89 18.12,14.93 L 18.12,14.93 z" id="path21" style="opacity:1;fill:#969696;fill-opacity:1;fill-rule:nonzero;stroke:#838383;stroke-width:1;stroke-linecap:butt;stroke-linejoin:miter;marker:none;stroke-miterlimit:4;stroke-dasharray:none;stroke-dashoffset:0;stroke-opacity:1;visibility:visible;display:inline;overflow:visible;enable-background:accumulate"/>
<path d="M 25.75,17 C 22.38,17 19.65,18.37 19.65,20.09 C 19.65,21.81 22.38,23.21 25.75,23.21 C 29.11,23.21 31.84,21.81 31.84,20.09 C 31.84,18.37 29.11,16.99 25.75,17 z" id="p3224" style="opacity:1;fill:#b5b5b5;fill-opacity:1;fill-rule:nonzero;stroke:none;marker:none;visibility:visible;display:inline;overflow:visible;enable-background:accumulate"/>
<path d="M 25.62,16.84 C 21.35,16.84 17.41,20.54 13.65,24.18 C 13.45,24.63 13.34,25.08 13.34,25.56 C 13.34,29 18.77,31.78 25.49,31.78 C 32.22,31.78 37.68,29 37.68,25.56 C 37.68,24.84 37.43,24.17 36.99,23.53 C 33.45,20.07 29.74,16.84 25.62,16.84 z" id="p3226" style="opacity:1;fill:none;fill-opacity:1;fill-rule:nonzero;stroke:#838383;stroke-width:1;stroke-linecap:butt;stroke-linejoin:miter;marker:none;stroke-miterlimit:4;stroke-dasharray:none;stroke-dashoffset:0;stroke-opacity:1;visibility:visible;display:inline;overflow:visible;enable-background:accumulate"/>
<path d="M 30.18,19.75 C 30.00,19.75 29.81,19.81 29.65,19.90 C 29.02,20.28 28.96,21.32 29.5,22.21 C 30.03,23.11 30.99,23.50 31.62,23.12 C 32.25,22.74 32.31,21.70 31.78,20.81 C 31.37,20.14 30.74,19.74 30.18,19.75 z" id="p3233" style="opacity:1;fill:#ededed;fill-opacity:1;fill-rule:nonzero;stroke:none;marker:none;visibility:visible;display:inline;overflow:visible;enable-background:accumulate"/>
<path d="M 33.53,24.68 C 33.45,24.68 33.37,24.70 33.31,24.75 C 33.04,24.94 32.99,25.48 33.21,25.93 C 33.44,26.39 33.82,26.60 34.09,26.40 C 34.36,26.21 34.40,25.67 34.18,25.21 C 34.02,24.87 33.76,24.68 33.53,24.68 z" id="p3235" style="opacity:1;fill:#ededed;fill-opacity:1;fill-rule:nonzero;stroke:none;marker:none;visibility:visible;display:inline;overflow:visible;enable-background:accumulate"/>
<path d="M 16.75,9.68 C 16.65,9.68 16.57,9.72 16.5,9.78 C 16.18,10.00 16.14,10.62 16.40,11.15 C 16.66,11.68 17.12,11.91 17.43,11.68 C 17.75,11.46 17.79,10.87 17.53,10.34 C 17.33,9.94 17.02,9.68 16.75,9.68 z" id="p3287" style="opacity:1;fill:#ededed;fill-opacity:1;fill-rule:nonzero;stroke:none;marker:none;visibility:visible;display:inline;overflow:visible;enable-background:accumulate"/>
</svg>
