<?xml version="1.0" encoding="UTF-8" standalone="no"?>
<svg xmlns:svg="http://www.w3.org/2000/svg" xmlns="http://www.w3.org/2000/svg" version="1.0" width="100%" height="100%" viewBox="0 0 48 132" id="svg2985" style="display:inline">
<defs id="defs2987"/>
<path d="M 24,96.19 L 0.12,108.22 L 0.19,119.83 L 24,131.77 L 24,96.19 z" id="p3863" style="fill:#838383;fill-opacity:1;stroke:none"/>
<path d="M 23.96,96.41 L 23.97,131.81 L 47.93,119.87 L 47.93,108.12 L 23.96,96.41 z" id="p3863-0" style="fill:#969696;fill-opacity:1;stroke:none"/>
<path d="M 24,120 L 24,131.12" id="p3976" style="fill:none;stroke:#a4a4a4;stroke-width:2;stroke-linecap:butt;stroke-linejoin:miter;marker:none;stroke-miterlimit:4;stroke-dasharray:none;stroke-dashoffset:0;stroke-opacity:1;visibility:visible;display:inline;overflow:visible;enable-background:accumulate"/>
<path d="M 24,120 L 0.16,108.06 L 24,96.12 L 47.87,108.12 L 24,120 z" id="p2993" style="fill:#bcbcbc;fill-opacity:1;stroke:none"/>
<path d="M 0.75,108.37 L 24,120 L 47.31,108.34" id="p2993-8" style="fill:none;stroke:#e9e9e9;stroke-width:1.5;stroke-linejoin:round;stroke-miterlimit:4;stroke-dasharray:none;stroke-opacity:1"/>
<path d="M 24.06,86.4 C 15.2,86.4 8.03,90.83 8.03,96.31 C 8.03,97.7 8.03,98.84 8.03,100.28 C 8.03,101.05 8.19,101.8 8.46,102.53 L 8.43,102.53 L 8.5,102.65 L 10.96,109.25 C 11.98,113.15 17.44,116.12 24.06,116.12 C 30.69,116.12 36.18,113.13 37.18,109.21 C 38,106.98 38.86,104.76 39.68,102.53 C 39.96,101.8 40.12,101.05 40.12,100.28 C 40.12,98.83 40.12,97.71 40.12,96.31 C 40.12,90.83 32.91,86.4 24.06,86.4 z" id="p2420" style="opacity:1;fill:#d3bc5f;fill-opacity:1;fill-rule:nonzero;stroke:none;marker:none;visibility:visible;display:inline;overflow:visible;enable-background:accumulate"/>
<path d="M 24,96.55 L 47.5,108.31 L 47.5,119.69 L 24,131.44 L 0.5,119.7 L 0.5,108.3 L 24,96.55 z" id="p3034" style="fill:none;fill-opacity:1;fill-rule:nonzero;stroke:#838383;stroke-width:1;stroke-linecap:butt;stroke-linejoin:miter;marker:none;stroke-miterlimit:4;stroke-dasharray:none;stroke-dashoffset:0;stroke-opacity:1;visibility:visible;display:inline;overflow:visible;enable-background:accumulate"/>
<path d="M 23.90,89.68 C 15.09,89.68 7.96,94.09 7.96,99.53 C 7.96,104.97 15.09,109.37 23.90,109.37 C 32.71,109.37 39.84,104.97 39.84,99.53 C 39.84,94.09 32.71,89.68 23.90,89.68 z" id="p2430" style="opacity:1;fill:#c39753;fill-opacity:1;fill-rule:nonzero;stroke:none;marker:none;visibility:visible;display:inline;overflow:visible;enable-background:accumulate"/>
<path d="M 9.75,98.75 L 14.15,113.37 C 16.24,114.82 19.15,115.81 22.43,116.06 L 21.56,101.87 L 9.75,98.75 z" id="p3219" style="fill:#aa753b;fill-opacity:0.37;fill-rule:evenodd;stroke:none"/>
<path d="M 23.90,85.71 C 15.09,85.71 7.96,90.12 7.96,95.56 C 7.96,101.00 15.09,105.40 23.90,105.40 C 32.71,105.40 39.84,101.00 39.84,95.56 C 39.84,90.12 32.71,85.71 23.90,85.71 z" id="p2428" style="opacity:1;fill:#e1d292;fill-opacity:1;fill-rule:nonzero;stroke:none;marker:none;visibility:visible;display:inline;overflow:visible;enable-background:accumulate"/>
<path d="M 24.06,86.4 C 15.2,86.4 8.03,90.83 8.03,96.31 C 8.03,97.7 8.03,98.84 8.03,100.28 C 8.03,101.05 8.19,101.8 8.46,102.53 L 8.43,102.53 L 8.5,102.65 L 10.96,109.25 C 11.98,113.15 17.44,116.12 24.06,116.12 C 30.69,116.12 36.18,113.13 37.18,109.21 C 38,106.98 38.86,104.76 39.68,102.53 C 39.96,101.8 40.12,101.05 40.12,100.28 C 40.12,98.83 40.12,97.71 40.12,96.31 C 40.12,90.83 32.91,86.4 24.06,86.4 z" id="p2440" style="opacity:1;fill:none;fill-opacity:1;fill-rule:nonzero;stroke:#5e4b36;stroke-width:1;stroke-linecap:butt;stroke-linejoin:bevel;marker:none;stroke-miterlimit:4;stroke-dasharray:none;stroke-dashoffset:0;stroke-opacity:1;visibility:visible;display:inline;overflow:visible;enable-background:accumulate"/>
<path d="M 23.87,88 C 16.53,88 10.59,91.57 10.59,95.96 C 10.59,100.36 16.53,103.93 23.87,103.93 C 31.21,103.93 37.15,100.36 37.15,95.96 C 37.15,91.57 31.21,87.99 23.87,88 z" id="p3212" style="opacity:1;fill:#744920;fill-opacity:1;fill-rule:nonzero;stroke:none;marker:none;visibility:visible;display:inline;overflow:visible;enable-background:accumulate"/>
<path d="M 24.06,90.45 C 17.27,90.45 11.68,93.48 10.8,97.39 C 11.69,101.29 17.28,104.3 24.06,104.3 C 30.84,104.3 36.46,101.29 37.35,97.39 C 36.47,93.48 30.84,90.45 24.06,90.45 z" id="p3214" style="opacity:1;fill:#493521;fill-opacity:1;fill-rule:nonzero;stroke:none;marker:none;visibility:visible;display:inline;overflow:visible;enable-background:accumulate"/>
<path d="M 12.78,89.21 C 15.81,91.49 17.65,98.09 17.76,99.93" id="p3249" style="fill:none;fill-rule:evenodd;stroke:#0a3a09;stroke-width:1.38;stroke-linecap:round;stroke-linejoin:miter;stroke-miterlimit:4;stroke-dasharray:none;stroke-opacity:1"/>
<path d="M 7.48,99.98 C 8.93,99.53 14.27,102.11 17.22,100.16 C 19.55,98.63 18.09,94.23 15.4,94.21 C 12.71,94.18 9.38,98.9 7.48,99.98 z" id="p3255" style="fill:#264921;fill-opacity:1;fill-rule:evenodd;stroke:none"/>
<path d="M 16.49,81.35 C 17.54,82.45 17.62,88.38 20.69,90.15 C 23.1,91.54 26.38,88.27 25.19,85.85 C 24.01,83.44 18.3,82.57 16.49,81.35 z" id="p3257" style="fill:#2c5426;fill-opacity:1;fill-rule:evenodd;stroke:none;display:inline"/>
<path d="M 13.1,80.37 C 11.38,80.37 9.96,81.76 9.82,83.53 C 9.39,83.32 8.92,83.21 8.41,83.21 C 6.6,83.21 5.13,84.75 5.13,86.65 C 5.13,88.22 6.14,89.52 7.51,89.93 C 7.08,90.51 6.82,91.24 6.82,92.03 C 6.82,93.93 8.28,95.46 10.1,95.46 C 11.14,95.46 12.06,94.94 12.66,94.15 C 13.25,95.12 14.3,95.78 15.48,95.78 C 17.29,95.78 18.76,94.21 18.76,92.31 C 18.76,91.79 18.64,91.34 18.45,90.9 C 19.74,90.44 20.66,89.16 20.66,87.65 C 20.66,85.75 19.2,84.21 17.38,84.21 C 17.01,84.21 16.66,84.28 16.32,84.4 C 16.35,84.21 16.38,84 16.38,83.81 C 16.38,81.91 14.92,80.37 13.1,80.37 z" id="p3224" style="opacity:1;fill:#e1942c;fill-opacity:1;fill-rule:nonzero;stroke:none;marker:none;visibility:visible;display:inline;overflow:visible;enable-background:accumulate"/>
<path d="M 12.87,85.59 C 11.35,85.59 10.12,86.82 10.12,88.34 C 10.12,89.86 11.35,91.09 12.87,91.09 C 14.39,91.09 15.62,89.86 15.62,88.34 C 15.62,86.82 14.39,85.59 12.87,85.59 z" id="p3235" style="opacity:1;fill:#fffc54;fill-opacity:1;fill-rule:nonzero;stroke:none;marker:none;visibility:visible;display:inline;overflow:visible;enable-background:accumulate"/>
<path d="M 29.02,81.41 C 28.05,86.39 26.86,96.47 26.97,97.88" id="p3251" style="fill:none;fill-rule:evenodd;stroke:#096206;stroke-width:1.38;stroke-linecap:round;stroke-linejoin:miter;stroke-miterlimit:4;stroke-dasharray:none;stroke-opacity:1"/>
<path d="M 37,83.92 C 35.88,84.94 29.96,84.88 28.11,87.9 C 26.66,90.28 29.85,93.63 32.29,92.51 C 34.74,91.39 35.74,85.7 37,83.92 z" id="p3259" style="fill:#1e3b1a;fill-opacity:1;fill-rule:evenodd;stroke:none;display:inline"/>
<path d="M 39.42,93.33 C 33.68,95.06 30.97,95.49 27.51,99.07" id="p3253" style="fill:none;fill-rule:evenodd;stroke:#0e3a0d;stroke-width:1.38;stroke-linecap:round;stroke-linejoin:miter;stroke-miterlimit:4;stroke-dasharray:none;stroke-opacity:1"/>
<path d="M 14.79,106.95 C 15.62,105.68 21.37,104.24 22.38,100.85 C 23.18,98.18 19.25,95.74 17.17,97.45 C 15.09,99.15 15.56,104.91 14.79,106.95 z" id="p3261" style="fill:#344c30;fill-opacity:1;fill-rule:evenodd;stroke:none;display:inline"/>
<path d="M 39.41,101.96 C 37.94,101.59 34.71,96.62 31.17,96.76 C 28.38,96.87 27.36,101.38 29.64,102.8 C 31.93,104.21 37.23,101.9 39.41,101.96 z" id="p3263" style="fill:#486125;fill-opacity:1;fill-rule:evenodd;stroke:none;display:inline"/>
<path d="M 24.4,85.23 C 22.68,85.23 21.26,86.62 21.12,88.39 C 20.69,88.18 20.22,88.07 19.71,88.07 C 17.9,88.07 16.43,89.61 16.43,91.51 C 16.43,93.08 17.44,94.38 18.81,94.79 C 18.38,95.37 18.12,96.1 18.12,96.89 C 18.12,98.79 19.58,100.32 21.4,100.32 C 22.44,100.32 23.36,99.8 23.96,99.01 C 24.55,99.98 25.6,100.64 26.78,100.64 C 28.59,100.64 30.06,99.07 30.06,97.17 C 30.06,96.65 29.94,96.2 29.74,95.76 C 31.04,95.3 31.96,94.02 31.96,92.51 C 31.96,90.61 30.5,89.07 28.68,89.07 C 28.31,89.07 27.96,89.14 27.62,89.26 C 27.65,89.07 27.68,88.87 27.68,88.67 C 27.68,86.77 26.22,85.23 24.4,85.23 z" id="p3237" style="opacity:1;fill:#e1712c;fill-opacity:1;fill-rule:nonzero;stroke:none;marker:none;visibility:visible;display:inline;overflow:visible;enable-background:accumulate"/>
<path d="M 24.15,90.43 C 22.63,90.43 21.40,91.66 21.40,93.18 C 21.40,94.70 22.63,95.96 24.15,95.96 C 25.67,95.96 26.90,94.70 26.90,93.18 C 26.90,91.66 25.67,90.43 24.15,90.43 z" id="p3239" style="opacity:1;fill:#fffc54;fill-opacity:1;fill-rule:nonzero;stroke:none;marker:none;visibility:visible;display:inline;overflow:visible;enable-background:accumulate"/>
<path d="M 29.46,72.98 C 27.73,72.98 26.31,74.37 26.17,76.13 C 25.75,75.92 25.27,75.82 24.77,75.82 C 22.95,75.82 21.49,77.36 21.49,79.26 C 21.49,80.83 22.49,82.12 23.86,82.54 C 23.44,83.12 23.17,83.85 23.17,84.63 C 23.17,86.54 24.64,88.07 26.46,88.07 C 27.5,88.07 28.41,87.55 29.02,86.76 C 29.6,87.73 30.66,88.38 31.83,88.38 C 33.65,88.38 35.11,86.82 35.11,84.91 C 35.11,84.4 34.99,83.95 34.8,83.51 C 36.09,83.04 37.02,81.77 37.02,80.26 C 37.02,78.36 35.55,76.82 33.74,76.82 C 33.36,76.82 33.01,76.89 32.67,77.01 C 32.7,76.82 32.74,76.61 32.74,76.41 C 32.74,74.51 31.27,72.98 29.46,72.98 z" id="p3241" style="opacity:1;fill:#e1bb2c;fill-opacity:1;fill-rule:nonzero;stroke:none;marker:none;visibility:visible;display:inline;overflow:visible;enable-background:accumulate"/>
<path d="M 29.21,78.18 C 27.69,78.18 26.46,79.41 26.46,80.93 C 26.46,82.45 27.69,83.71 29.21,83.71 C 30.74,83.71 31.96,82.45 31.96,80.93 C 31.96,79.41 30.74,78.18 29.21,78.18 z" id="p3243" style="opacity:1;fill:#fffc54;fill-opacity:1;fill-rule:nonzero;stroke:none;marker:none;visibility:visible;display:inline;overflow:visible;enable-background:accumulate"/>
<path d="M 39.87,84.62 C 38.15,84.62 36.73,86.01 36.59,87.77 C 36.16,87.56 35.69,87.46 35.18,87.46 C 33.37,87.46 31.9,89 31.9,90.9 C 31.9,92.47 32.91,93.76 34.28,94.18 C 33.85,94.76 33.59,95.49 33.59,96.27 C 33.59,98.18 35.05,99.71 36.87,99.71 C 37.91,99.71 38.83,99.19 39.43,98.4 C 40.02,99.37 41.07,100.02 42.25,100.02 C 44.06,100.02 45.53,98.46 45.53,96.56 C 45.53,96.04 45.41,95.59 45.22,95.15 C 46.51,94.68 47.43,93.41 47.43,91.9 C 47.43,90 45.97,88.46 44.15,88.46 C 43.78,88.46 43.43,88.53 43.09,88.65 C 43.12,88.46 43.15,88.25 43.15,88.06 C 43.15,86.15 41.69,84.62 39.87,84.62 z" id="p3245" style="opacity:1;fill:#cf831d;fill-opacity:1;fill-rule:nonzero;stroke:none;marker:none;visibility:visible;display:inline;overflow:visible;enable-background:accumulate"/>
<path d="M 39.62,89.84 C 38.10,89.84 36.87,91.07 36.87,92.59 C 36.87,94.11 38.10,95.34 39.62,95.34 C 41.14,95.34 42.37,94.11 42.37,92.59 C 42.37,91.07 41.14,89.84 39.62,89.84 z" id="p3247" style="opacity:1;fill:#fffc54;fill-opacity:1;fill-rule:nonzero;stroke:none;marker:none;visibility:visible;display:inline;overflow:visible;enable-background:accumulate"/>
<path d="M 39.43,98.4 C 40.02,99.37 41.07,100.03 42.25,100.03 C 44.06,100.03 45.53,98.46 45.53,96.56 C 45.53,96.04 45.41,95.59 45.21,95.15 C 46.51,94.69 47.43,93.41 47.43,91.9 C 47.43,90 45.97,88.46 44.15,88.46 C 43.78,88.46 43.42,88.53 43.09,88.65 C 43.12,88.46 43.15,88.25 43.15,88.06 C 43.15,86.16 41.69,84.62 39.87,84.62 C 38.15,84.62 36.73,86.01 36.59,87.78 C 36.25,87.61 35.86,87.53 35.46,87.5 C 36.01,86.05 36.48,84.66 37,83.93 C 36.68,84.22 35.96,84.41 35.09,84.62 C 35.05,84.22 34.96,83.85 34.81,83.5 C 36.1,83.03 37.03,81.75 37.03,80.25 C 37.03,78.34 35.56,76.81 33.75,76.81 C 33.37,76.81 33.02,76.87 32.68,77 C 32.71,76.81 32.75,76.6 32.75,76.4 C 32.74,74.5 31.28,72.96 29.46,72.96 C 27.74,72.96 26.32,74.35 26.18,76.12 C 25.76,75.91 25.28,75.81 24.78,75.81 C 22.96,75.81 21.49,77.34 21.5,79.25 C 21.49,80.81 22.5,82.11 23.87,82.53 C 23.54,82.98 23.3,83.53 23.21,84.12 C 21.01,82.93 17.78,82.2 16.5,81.34 C 16.89,81.75 17.17,82.92 17.5,84.21 C 17.45,84.21 17.41,84.21 17.37,84.21 C 16.99,84.21 16.64,84.28 16.31,84.4 C 16.34,84.21 16.37,84 16.37,83.81 C 16.37,81.91 14.91,80.37 13.09,80.37 C 11.36,80.37 9.95,81.76 9.81,83.53 C 9.38,83.32 8.9,83.21 8.4,83.21 C 6.58,83.21 5.12,84.75 5.12,86.65 C 5.12,88.22 6.13,89.51 7.5,89.93 C 7.07,90.51 6.81,91.24 6.81,92.03 C 6.81,92.98 7.17,93.84 7.77,94.46" id="p3285" style="fill:none;fill-opacity:1;fill-rule:evenodd;stroke:#375a37;stroke-width:0.5;stroke-linecap:round;stroke-linejoin:round;stroke-miterlimit:4;stroke-dasharray:none;stroke-opacity:1;display:inline"/>
</svg>
