<?xml version="1.0" encoding="UTF-8" standalone="no"?>
<svg xmlns:svg="http://www.w3.org/2000/svg" xmlns="http://www.w3.org/2000/svg" version="1.0" width="100%" height="100%" viewBox="0 0 48 132" id="svg2985" style="display:inline">
<defs id="defs2987"/>
<path d="M 24,96.19 L 0.12,108.22 L 0.19,119.83 L 24,131.77 L 24,96.19 z" id="p3863" style="fill:#838383;fill-opacity:1;stroke:none"/>
<path d="M 23.96,96.41 L 23.97,131.81 L 47.93,119.87 L 47.93,108.12 L 23.96,96.41 z" id="p3863-0" style="fill:#969696;fill-opacity:1;stroke:none"/>
<path d="M 24,120 L 24,131.12" id="p3976" style="fill:none;stroke:#a4a4a4;stroke-width:2;stroke-linecap:butt;stroke-linejoin:miter;marker:none;stroke-miterlimit:4;stroke-dasharray:none;stroke-dashoffset:0;stroke-opacity:1;visibility:visible;display:inline;overflow:visible;enable-background:accumulate"/>
<path d="M 24,120 L 0.16,108.06 L 24,96.12 L 47.87,108.12 L 24,120 z" id="p2993" style="fill:#bcbcbc;fill-opacity:1;stroke:none"/>
<path d="M 0.75,108.37 L 24,120 L 47.31,108.34" id="p2993-8" style="fill:none;stroke:#e9e9e9;stroke-width:1.5;stroke-linejoin:round;stroke-miterlimit:4;stroke-dasharray:none;stroke-opacity:1"/>
<path d="M 24,96.55 L 47.5,108.31 L 47.5,119.69 L 24,131.44 L 0.5,119.7 L 0.5,108.3 L 24,96.55 z" id="p3034" style="fill:none;fill-opacity:1;fill-rule:nonzero;stroke:#838383;stroke-width:1;stroke-linecap:butt;stroke-linejoin:miter;marker:none;stroke-miterlimit:4;stroke-dasharray:none;stroke-dashoffset:0;stroke-opacity:1;visibility:visible;display:inline;overflow:visible;enable-background:accumulate"/>
<g id="g2588">
<path d="M 23.97,75.47 L 2.62,86.22 L 2.68,107.34 L 23.97,118.02 L 23.97,75.47 z" id="p2396" style="fill:#b18755;fill-opacity:1;stroke:none"/>
<path d="M 23.93,75.66 L 23.93,118.04 L 45.36,107.37 L 45.36,86.14 L 23.93,75.66 z" id="p2398" style="fill:#bd996f;fill-opacity:1;stroke:none"/>
<path d="M 23.97,96.85 L 23.97,117.43" id="p2400" style="fill:none;fill-opacity:1;fill-rule:nonzero;stroke:#cba981;stroke-width:2;stroke-linecap:butt;stroke-linejoin:miter;marker:none;stroke-miterlimit:4;stroke-dasharray:none;stroke-dashoffset:0;stroke-opacity:1;visibility:visible;display:inline;overflow:visible;enable-background:accumulate"/>
<path d="M 24.02,96.76 L 45.33,86.09 L 24.02,75.41 L 2.68,86.14 L 24.02,96.76 z" id="p2402" style="fill:#d2b18a;fill-opacity:1;stroke:none"/>
<path d="M 24.02,95.66 L 4.15,85.79" id="p3538" style="fill:none;fill-opacity:1;fill-rule:nonzero;stroke:#e3ceb6;stroke-width:0.60;stroke-linecap:round;stroke-linejoin:round;marker:none;stroke-miterlimit:4;stroke-dasharray:none;stroke-dashoffset:0;stroke-opacity:1;visibility:visible;display:inline;overflow:visible;enable-background:accumulate"/>
<path d="M 31.68,79.25 L 10.31,89.93 L 15.93,92.71 L 37.28,82.06 L 31.68,79.25 z" id="r3529" style="fill:#e5dacd;fill-opacity:1;fill-rule:nonzero;stroke:none;marker:none;visibility:visible;display:inline;overflow:visible;enable-background:accumulate"/>
<path d="M 44.81,86.36 L 24.02,96.76 L 3.18,86.34" id="p2404" style="fill:none;fill-opacity:1;fill-rule:nonzero;stroke:#d9be9f;stroke-width:1.5;stroke-linecap:butt;stroke-linejoin:round;marker:none;stroke-miterlimit:4;stroke-dasharray:none;stroke-dashoffset:0;stroke-opacity:1;visibility:visible;display:inline;overflow:visible;enable-background:accumulate"/>
<path d="M 13.57,91.10 L 34.22,80.89" id="p3536" style="fill:none;fill-rule:evenodd;stroke:#4e2f1c;stroke-width:1px;stroke-linecap:butt;stroke-linejoin:miter;stroke-opacity:1"/>
<path d="M 23.61,96.07 L 3.73,86.20" id="p3534" style="fill:none;fill-opacity:1;fill-rule:evenodd;stroke:#4e2f1c;stroke-width:0.69;stroke-linecap:round;stroke-linejoin:miter;marker:none;stroke-miterlimit:4;stroke-dasharray:none;stroke-dashoffset:0;stroke-opacity:1;visibility:visible;display:inline;overflow:visible;enable-background:accumulate"/>
<path d="M 23.97,75.81 L 2.96,86.31 L 2.96,107.20 L 23.97,117.70 L 44.98,107.20 L 44.98,86.31 L 23.97,75.81 z" id="p2406" style="fill:none;fill-opacity:1;fill-rule:nonzero;stroke:#8c7250;stroke-width:1;stroke-linecap:butt;stroke-linejoin:round;marker:none;stroke-miterlimit:4;stroke-dasharray:none;stroke-dashoffset:0;stroke-opacity:1;visibility:visible;display:inline;overflow:visible;enable-background:accumulate"/>
<path d="M 18.77,96.66 C 18.64,96.59 18.50,96.61 18.40,96.75 L 16.28,99.56 C 16.09,99.81 16.08,100.37 16.25,100.84 L 17.66,101.56 L 17.66,105.46 C 17.66,105.88 17.85,106.31 18.08,106.43 L 19.43,107.12 C 19.66,107.24 19.85,106.99 19.85,106.57 L 19.85,102.67 L 21.30,103.41 C 21.47,103.11 21.46,102.55 21.26,102.10 L 19.15,97.13 C 19.04,96.89 18.91,96.73 18.77,96.66 z" id="r3515" style="fill:#9a3b3b;fill-opacity:1;fill-rule:nonzero;stroke:none;marker:none;visibility:visible;display:inline;overflow:visible;enable-background:accumulate"/>
<path d="M 33.59,94.00 C 33.49,94.00 33.36,94.03 33.25,94.09 L 26.47,97.40 C 25.99,97.63 25.59,98.25 25.59,98.78 L 25.59,104.93 C 25.59,105.46 25.99,105.69 26.47,105.46 L 33.25,102.15 C 33.72,101.92 34.09,101.30 34.09,100.78 L 34.09,94.62 C 34.09,94.23 33.90,93.99 33.59,94.00 z" id="r3523" style="fill:#d9d9d9;fill-opacity:1;fill-rule:nonzero;stroke:none;marker:none;visibility:visible;display:inline;overflow:visible;enable-background:accumulate"/>
<path d="M 4.40,101.68 C 4.20,101.68 4.06,101.80 4.06,102.06 L 4.06,105.71 C 4.06,106.05 4.32,106.44 4.62,106.59 L 9.75,109.15 C 10.05,109.30 10.31,109.15 10.31,108.81 L 10.31,105.18 C 10.31,104.84 10.05,104.46 9.75,104.31 L 4.62,101.75 C 4.55,101.71 4.47,101.68 4.40,101.68 z" id="r3525" style="fill:#cfcfcf;fill-opacity:1;fill-rule:nonzero;stroke:none;marker:none;visibility:visible;display:inline;overflow:visible;enable-background:accumulate"/>
<path d="M 14.01,82.30 L 7.23,85.70 L 11.48,87.83 L 18.26,84.42 L 14.01,82.30 z" id="p3542" style="fill:#ebe2b2;fill-opacity:1;stroke:none"/>
<path d="M 35.45,109.70 L 42.60,106.13" id="p3547" style="fill:none;fill-rule:evenodd;stroke:#574134;stroke-width:0.80;stroke-linecap:round;stroke-linejoin:miter;stroke-miterlimit:4;stroke-dasharray:none;stroke-opacity:1"/>
<path d="M 35.45,108.19 L 42.60,104.62" id="p3549" style="fill:none;fill-rule:evenodd;stroke:#574134;stroke-width:0.80;stroke-linecap:round;stroke-linejoin:miter;stroke-miterlimit:4;stroke-dasharray:none;stroke-opacity:1"/>
<path d="M 35.45,106.54 L 42.60,102.96" id="p3551" style="fill:none;fill-rule:evenodd;stroke:#574134;stroke-width:0.80;stroke-linecap:round;stroke-linejoin:miter;stroke-miterlimit:4;stroke-dasharray:none;stroke-opacity:1"/>
</g>
</svg>
