<?xml version="1.0" encoding="UTF-8" standalone="no"?>

<svg xmlns:svg="http://www.w3.org/2000/svg" xmlns="http://www.w3.org/2000/svg" version="1.0" width="100%" height="100%" viewBox="0 0 48 132" id="svg2985" style="display:inline">
<defs id="defs2987"/>
<g id="g2416">
<path d="M 24,96.19 L 0.12,108.22 L 0.19,119.83 L 24,131.77 L 24,96.19 z" id="p3863" style="fill:#838383;fill-opacity:1;stroke:none"/>
<path d="M 23.96,96.41 L 23.97,131.81 L 47.93,119.87 L 47.93,108.12 L 23.96,96.41 z" id="p3863-0" style="fill:#969696;fill-opacity:1;stroke:none"/>
<path d="M 24,120 L 24,131.12" id="p3976" style="fill:none;stroke:#a4a4a4;stroke-width:2;stroke-linecap:butt;stroke-linejoin:miter;marker:none;stroke-miterlimit:4;stroke-dasharray:none;stroke-dashoffset:0;stroke-opacity:1;visibility:visible;display:inline;overflow:visible;enable-background:accumulate"/>
<path d="M 24,120 L 0.16,108.06 L 24,96.12 L 47.87,108.12 L 24,120 z" id="p2993" style="fill:#bcbcbc;fill-opacity:1;stroke:none"/>
<path d="M 0.75,108.37 L 24,120 L 47.31,108.34" id="p2993-8" style="fill:none;stroke:#e9e9e9;stroke-width:1.5;stroke-linejoin:round;stroke-miterlimit:4;stroke-dasharray:none;stroke-opacity:1"/>
<path d="M 24,96.55 L 47.5,108.31 L 47.5,119.69 L 24,131.44 L 0.5,119.7 L 0.5,108.3 L 24,96.55 z" id="p3034" style="fill:none;fill-opacity:1;fill-rule:nonzero;stroke:#838383;stroke-width:1;stroke-linecap:butt;stroke-linejoin:miter;marker:none;stroke-miterlimit:4;stroke-dasharray:none;stroke-dashoffset:0;stroke-opacity:1;visibility:visible;display:inline;overflow:visible;enable-background:accumulate"/>
</g>
<g id="g3259">
<path d="M 23.87,75.12 C 15.89,75.12 9.43,78.65 9.43,83 C 9.43,92.09 9.43,100.26 9.43,107.93 C 9.43,112.27 15.89,115.78 23.87,115.78 C 31.85,115.78 38.31,112.27 38.31,107.93 C 38.31,98.92 38.31,91.51 38.31,83 C 38.31,78.67 31.85,75.12 23.87,75.12 z" id="p2423" style="opacity:1;fill:#8d8d8d;fill-opacity:1;fill-rule:nonzero;stroke:none;marker:none;visibility:visible;display:inline;overflow:visible;enable-background:accumulate"/>
<path d="M 23.87,75.12 C 15.89,75.12 9.43,78.65 9.43,83 C 9.43,87.34 15.89,90.84 23.87,90.84 C 31.85,90.84 38.31,87.34 38.31,83 C 38.31,78.65 31.85,75.12 23.87,75.12 z" id="p2440" style="opacity:1;fill:#999999;fill-opacity:1;fill-rule:nonzero;stroke:none;marker:none;visibility:visible;display:inline;overflow:visible;enable-background:accumulate"/>
<path d="M 15.81,84.34 L 12.03,87.75 L 12.03,112.4 C 13.73,113.73 16.17,114.75 19.03,115.31 L 19.03,90.53 L 20.43,84.71 L 15.81,84.34 z" id="p3237" style="opacity:1;fill:#3a3a3a;fill-opacity:0.12;fill-rule:evenodd;stroke:none;marker:none;visibility:visible;display:inline;overflow:visible;enable-background:accumulate"/>
<path d="M 31.84,82.31 L 25.84,84.93 L 28.25,90.75 L 28.25,115.4 C 31.88,114.77 34.9,113.4 36.65,111.59 L 36.65,86.71 L 31.84,82.31 z" id="p2462" style="fill:#d8d8d8;fill-opacity:0.12;fill-rule:evenodd;stroke:none"/>
<path d="M 23.87,75.4 C 17.9,75.4 13.07,78.04 13.07,81.29 C 13.07,84.54 17.9,87.15 23.87,87.15 C 29.83,87.15 34.66,84.54 34.66,81.29 C 34.66,78.04 29.83,75.4 23.87,75.4 z" id="p2442" style="opacity:1;fill:#b3b3b3;fill-opacity:1;fill-rule:nonzero;stroke:none;marker:none;visibility:visible;display:inline;overflow:visible;enable-background:accumulate"/>
<path d="M 23.87,31.09 C 21.5,31.09 19.59,32.11 19.59,33.4 C 19.49,48.61 19.59,65.36 19.59,81.28 C 19.59,82.56 21.5,83.62 23.87,83.62 C 26.24,83.62 28.15,82.56 28.15,81.28 C 28.15,67.3 28.15,46.33 28.15,33.4 C 28.15,32.11 26.24,31.09 23.87,31.09 z" id="p2444" style="opacity:1;fill:#8d8d8d;fill-opacity:1;fill-rule:nonzero;stroke:none;marker:none;visibility:visible;display:inline;overflow:visible;enable-background:accumulate"/>
<path d="M 25.62,31.31 L 25.62,83.4 C 26.07,83.29 26.49,83.15 26.84,82.96 L 26.84,31.75 C 26.49,31.56 26.07,31.42 25.62,31.31 z" id="r3244" style="opacity:1;fill:#d8d8d8;fill-opacity:0.12;fill-rule:evenodd;stroke:none;marker:none;visibility:visible;display:inline;overflow:visible;enable-background:accumulate"/>
<path d="M 23.62,31.09 C 22.31,31.13 21.17,31.49 20.43,32.03 L 20.43,82.68 C 21.17,83.22 22.32,83.55 23.62,83.59 L 23.62,31.09 z" id="r3242" style="opacity:1;fill:#3a3a3a;fill-opacity:0.12;fill-rule:evenodd;stroke:none;marker:none;visibility:visible;display:inline;overflow:visible;enable-background:accumulate"/>
<path d="M 23.87,31.08 C 21.5,31.08 19.58,32.12 19.58,33.41 C 19.58,34.7 21.5,35.74 23.87,35.74 C 26.23,35.74 28.15,34.7 28.15,33.41 C 28.15,32.12 26.23,31.08 23.87,31.08 z" id="p2446" style="opacity:1;fill:#999999;fill-opacity:1;fill-rule:nonzero;stroke:none;marker:none;visibility:visible;display:inline;overflow:visible;enable-background:accumulate"/>
<path d="M 23.87,31.64 C 22.65,31.64 21.66,32.18 21.66,32.84 C 21.66,33.5 22.65,34.04 23.87,34.04 C 25.08,34.04 26.07,33.5 26.07,32.84 C 26.07,32.18 25.08,31.64 23.87,31.64 z" id="p2448" style="opacity:1;fill:#b3b3b3;fill-opacity:1;fill-rule:nonzero;stroke:none;marker:none;visibility:visible;display:inline;overflow:visible;enable-background:accumulate"/>
<path d="M 9.43,91.61 C 9.43,95.95 15.89,99.45 23.87,99.45 C 31.85,99.45 38.31,95.95 38.31,91.61" id="p3252" style="opacity:1;fill:none;fill-opacity:1;fill-rule:nonzero;stroke:#b6b6b6;marker:none;stroke-opacity:1;visibility:visible;display:inline;overflow:visible;enable-background:accumulate"/>
<path d="M 38.31,107.93 C 38.31,98.92 38.31,91.51 38.31,83 C 38.31,79.48 34.03,76.47 28.15,75.46 C 28.15,61.89 28.15,44.76 28.15,33.4 C 28.15,32.11 26.24,31.09 23.87,31.09 C 21.5,31.09 19.59,32.11 19.59,33.4 C 19.5,46.78 19.57,61.32 19.59,75.46 C 13.71,76.46 9.43,79.46 9.43,83 C 9.43,92.09 9.43,100.26 9.43,107.93" id="p3254" style="opacity:1;fill:none;fill-opacity:1;fill-rule:nonzero;stroke:#727272;stroke-linecap:round;marker:none;stroke-opacity:1;visibility:visible;display:inline;overflow:visible;enable-background:accumulate"/>
</g>
<g id="g2430">
<path d="M 34.31,45.27 L -37.39,9.61 L -37.39,16.62 L 34.31,52.68 L 34.31,45.27 z" id="p3308" style="fill:#ecf240;fill-opacity:1;fill-rule:evenodd;stroke:none"/>
<path d="M -37.38,11.96 L -33.6,18.53 L -37.38,16.62 L -37.38,11.96 z M -32.35,12.12 L -25.35,15.59 L -19.6,25.56 L -26.63,22.03 L -32.35,12.12 z M -18.44,19.03 L -11.5,22.5 L -5.66,32.56 L -12.66,29.06 L -18.44,19.03 z M -4.75,25.84 L 2.24,29.34 L 8.11,39.53 L 1.08,35.96 L -4.75,25.84 z M 9.14,32.78 L 16.11,36.21 L 22.05,46.53 L 15.05,43 L 9.14,32.78 z M 22.89,39.59 L 29.86,43.06 L 34.3,50.75 L 34.3,52.68 L 28.86,49.93 L 22.89,39.59 z" id="p3310" style="fill:#ff0000;fill-rule:evenodd;stroke:none"/>
<path d="M -37.38,10.43 L 33.52,45.68 L 33.52,52.28" id="p3301" style="fill:none;fill-opacity:1;fill-rule:evenodd;stroke:#fafdb1;stroke-width:1.27;stroke-linecap:butt;stroke-linejoin:round;stroke-miterlimit:4;stroke-dasharray:none;stroke-opacity:1"/>
<path d="M 34.31,45.27 L -37.39,9.61 L -37.39,16.62 L 34.31,52.68 L 34.31,45.27 z" id="p3299" style="fill:none;fill-opacity:1;fill-rule:evenodd;stroke:#494949;stroke-width:1px;stroke-linecap:butt;stroke-linejoin:round;stroke-opacity:1"/>
</g>
<g id="g2418">
<path d="M 10.86,44.43 C 11.39,44.44 11.95,44.61 12.55,44.9 L 25.96,51.4 C 28.37,52.57 30.3,55.69 30.3,58.37 L 30.3,70.81 C 30.3,73.49 28.37,74.67 25.96,73.5 L 12.55,67 C 10.15,65.82 8.21,62.7 8.21,60.03 L 8.21,47.59 C 8.21,45.58 9.3,44.4 10.86,44.43 z" id="r3342" style="fill:#a7a88a;fill-opacity:1;fill-rule:evenodd;stroke:none;marker:none;visibility:visible;display:inline;overflow:visible;enable-background:accumulate"/>
<path d="M 10.86,44.43 C 11.39,44.44 11.95,44.61 12.55,44.9 L 25.96,51.4 C 26.17,51.51 26.38,51.64 26.58,51.78 C 26.87,51.99 27.17,52.21 27.43,52.46 C 28.35,53.35 29.15,54.46 29.71,55.65 C 29.74,55.72 29.74,55.8 29.77,55.87 C 29.84,56.04 29.94,56.2 29.99,56.37 C 30.2,57.03 30.3,57.72 30.3,58.37 L 30.3,70.81 C 30.3,73.49 28.37,74.67 25.96,73.5 L 25.4,73.12 C 27.35,74.07 28.86,73.13 28.86,70.96 L 28.86,58.53 C 28.86,56.36 27.35,53.88 25.4,52.93 L 11.99,46.4 C 10.04,45.45 8.52,46.42 8.52,48.59 L 8.21,47.59 C 8.21,45.58 9.3,44.4 10.86,44.43 z" id="r3344" style="fill:#d0d0d0;fill-opacity:1;fill-rule:evenodd;stroke:none;marker:none;visibility:visible;display:inline;overflow:visible;enable-background:accumulate"/>
<path d="M 10.86,44.43 C 11.39,44.44 11.95,44.61 12.55,44.9 L 25.96,51.4 C 28.37,52.57 30.3,55.69 30.3,58.37 L 30.3,70.81 C 30.3,73.49 28.37,74.67 25.96,73.5 L 12.55,67 C 10.15,65.82 8.21,62.7 8.21,60.03 L 8.21,47.59 C 8.21,45.58 9.3,44.4 10.86,44.43 z" id="r3340" style="fill:none;fill-opacity:1;fill-rule:evenodd;stroke:#494949;stroke-width:1px;stroke-linecap:butt;stroke-linejoin:round;marker:none;stroke-miterlimit:4;stroke-dasharray:none;stroke-dashoffset:0;stroke-opacity:1;visibility:visible;display:inline;overflow:visible;enable-background:accumulate"/>
<path d="M 11.61,50.12 C 11.69,50.12 11.75,50.17 11.83,50.21 L 25.02,56.93 C 25.37,57.11 25.68,57.54 25.68,57.93 L 25.68,67.84 C 25.68,68.23 25.37,68.42 25.02,68.25 L 11.83,61.53 C 11.48,61.35 11.21,60.89 11.21,60.5 L 11.21,50.59 C 11.21,50.29 11.39,50.11 11.61,50.12 z" id="r2393" style="fill:#e4e4e4;fill-opacity:1;fill-rule:evenodd;stroke:#acacac;stroke-width:2.23;stroke-linecap:round;stroke-linejoin:miter;marker:none;stroke-miterlimit:4;stroke-dasharray:none;stroke-dashoffset:0;stroke-opacity:1;visibility:visible;display:inline;overflow:visible;enable-background:accumulate"/>
<path d="M 18.44,53.87 C 18.67,53.99 18.91,54.17 19.09,54.4 L 24.96,62 C 25.31,62.45 25.31,62.9 24.96,62.99 L 24.88,63.02 L 21.33,61.21 L 21.33,65.11 C 21.33,65.51 20.93,65.62 20.43,65.36 L 16.45,63.34 C 15.96,63.08 15.55,62.56 15.55,62.17 L 15.55,58.27 L 12.01,56.46 L 11.93,56.36 C 11.58,55.9 11.58,55.46 11.93,55.36 L 17.8,53.75 C 17.97,53.7 18.21,53.75 18.44,53.87 z" id="r3165" style="fill:#5b5b5b;fill-opacity:1;fill-rule:evenodd;stroke:none;marker:none;visibility:visible;display:inline;overflow:visible;enable-background:accumulate"/>
</g>
</svg>
