<?xml version="1.0" encoding="UTF-8" standalone="no"?>

<svg xmlns:svg="http://www.w3.org/2000/svg" xmlns="http://www.w3.org/2000/svg" xmlns:xlink="http://www.w3.org/1999/xlink" version="1.0" width="100%" height="100%" viewBox="0 0 48 132" id="svg2985" style="display:inline">
<defs id="defs2987"/>
<path d="M 24,96.19 L 0.12,108.22 L 0.19,119.83 L 24,131.77 L 24,96.19 z" id="p3863" style="fill:#838383;fill-opacity:1;stroke:none"/>
<path d="M 23.96,96.41 L 23.97,131.81 L 47.93,119.87 L 47.93,108.12 L 23.96,96.41 z" id="p3863-0" style="fill:#969696;fill-opacity:1;stroke:none"/>
<path d="M 24,120 L 24,131.12" id="p3976" style="fill:none;stroke:#a4a4a4;stroke-width:2;stroke-linecap:butt;stroke-linejoin:miter;marker:none;stroke-miterlimit:4;stroke-dasharray:none;stroke-dashoffset:0;stroke-opacity:1;visibility:visible;display:inline;overflow:visible;enable-background:accumulate"/>
<path d="M 24,120 L 0.16,108.06 L 24,96.12 L 47.87,108.12 L 24,120 z" id="p2993" style="fill:#bcbcbc;fill-opacity:1;stroke:none"/>
<path d="M 7.12,107.21 C 6.99,107.2 6.88,107.21 6.75,107.25 C 6.57,107.28 6.41,107.35 6.28,107.46 L 3.31,109.62 L 19.93,117.96 L 28.09,117.96 L 41.59,111.25 C 41.54,110.89 41.27,110.62 40.9,110.62 L 39.53,110.62 L 41.43,109.25 C 41.87,108.96 42.04,108.39 41.84,107.9 C 41.64,107.41 41.14,107.15 40.62,107.25 C 40.45,107.28 40.29,107.35 40.15,107.46 L 35.78,110.62 L 5.68,110.62 L 7.59,109.25 C 8.04,108.96 8.24,108.4 8.03,107.9 C 7.87,107.53 7.5,107.26 7.12,107.21 z" id="r3583" style="opacity:1;fill:#838383;fill-opacity:1;fill-rule:nonzero;stroke:none;marker:none;visibility:visible;display:inline;overflow:visible;enable-background:accumulate"/>
<path d="M 0.75,108.37 L 24,120 L 47.31,108.34" id="p2993-8" style="fill:none;stroke:#e9e9e9;stroke-width:1.5;stroke-linejoin:round;stroke-miterlimit:4;stroke-dasharray:none;stroke-opacity:1"/>
<path d="M 24,96.55 L 47.5,108.31 L 47.5,119.69 L 24,131.44 L 0.5,119.7 L 0.5,108.3 L 24,96.55 z" id="p3034" style="fill:none;fill-opacity:1;fill-rule:nonzero;stroke:#838383;stroke-width:1;stroke-linecap:butt;stroke-linejoin:miter;marker:none;stroke-miterlimit:4;stroke-dasharray:none;stroke-dashoffset:0;stroke-opacity:1;visibility:visible;display:inline;overflow:visible;enable-background:accumulate"/>
<rect width="2.56" height="97.27" ry="1.15" x="5.80" y="11.62" id="r2440" style="fill:#969696;fill-opacity:1;fill-rule:nonzero;stroke:#838383;stroke-width:1;stroke-linecap:butt;stroke-linejoin:miter;marker:none;stroke-miterlimit:4;stroke-dasharray:none;stroke-dashoffset:0;stroke-opacity:1;visibility:visible;display:inline;overflow:visible;enable-background:accumulate"/>
<path d="M 7.54,107.67 L 7.54,94.64" id="p3794" style="fill:none;fill-opacity:1;fill-rule:nonzero;stroke:#e9e9e9;stroke-width:1;stroke-linecap:round;stroke-linejoin:round;marker:none;stroke-miterlimit:4;stroke-dasharray:none;stroke-dashoffset:0;stroke-opacity:1;visibility:visible;display:inline;overflow:visible;enable-background:accumulate"/>
<path d="M 7.54,18.73 L 7.54,12.78" id="p2427" style="fill:none;fill-opacity:1;fill-rule:nonzero;stroke:#e9e9e9;stroke-width:1;stroke-linecap:round;stroke-linejoin:round;marker:none;stroke-miterlimit:4;stroke-dasharray:none;stroke-dashoffset:0;stroke-opacity:1;visibility:visible;display:inline;overflow:visible;enable-background:accumulate"/>
<rect width="2.56" height="97.27" ry="1.15" x="39.79" y="11.62" id="r2429" style="fill:#969696;fill-opacity:1;fill-rule:nonzero;stroke:#838383;stroke-width:1;stroke-linecap:butt;stroke-linejoin:miter;marker:none;stroke-miterlimit:4;stroke-dasharray:none;stroke-dashoffset:0;stroke-opacity:1;visibility:visible;display:inline;overflow:visible;enable-background:accumulate"/>
<path d="M 41.53,107.67 L 41.53,94.64" id="p2431" style="fill:none;fill-opacity:1;fill-rule:nonzero;stroke:#e9e9e9;stroke-width:1;stroke-linecap:round;stroke-linejoin:round;marker:none;stroke-miterlimit:4;stroke-dasharray:none;stroke-dashoffset:0;stroke-opacity:1;visibility:visible;display:inline;overflow:visible;enable-background:accumulate"/>
<path d="M 41.53,18.73 L 41.53,12.78" id="p2433" style="fill:none;fill-opacity:1;fill-rule:nonzero;stroke:#e9e9e9;stroke-width:1;stroke-linecap:round;stroke-linejoin:round;marker:none;stroke-miterlimit:4;stroke-dasharray:none;stroke-dashoffset:0;stroke-opacity:1;visibility:visible;display:inline;overflow:visible;enable-background:accumulate"/>
<rect width="45.02" height="86.95" ry="1.15" x="1.41" y="16.13" id="r2435" style="opacity:1;fill:#d3bc5f;fill-opacity:1;fill-rule:nonzero;stroke:none;marker:none;visibility:visible;display:inline;overflow:visible;enable-background:accumulate"/>
<path d="M 1.69,16.99 L 45.88,16.99" id="p2439" style="opacity:1;fill:none;fill-opacity:1;fill-rule:nonzero;stroke:#f5ebdc;stroke-width:1.28;stroke-linecap:butt;stroke-linejoin:bevel;marker:none;stroke-miterlimit:4;stroke-dasharray:none;stroke-dashoffset:0;stroke-opacity:1;visibility:visible;display:inline;overflow:visible;enable-background:accumulate"/>
<rect width="45.02" height="86.95" ry="1.15" x="1.41" y="16.13" id="r2437" style="opacity:1;fill:none;fill-opacity:1;fill-rule:nonzero;stroke:#5e4721;stroke-width:1;stroke-linecap:butt;stroke-linejoin:bevel;marker:none;stroke-miterlimit:4;stroke-dasharray:none;stroke-dashoffset:0;stroke-opacity:1;visibility:visible;display:inline;overflow:visible;enable-background:accumulate"/>
<path d="M 25.02,66.49 L 38.27,58.83 L 11.74,58.83 L 25.02,66.49 z" id="p3498" style="fill:#fad993;fill-opacity:1;fill-rule:evenodd;stroke:none"/>
<g id="g2551">
<g transform="matrix(1.55,0,0,1.55,1.95,-11.29)" id="use3601">
<path d="M 14.62,25.72 L 24.49,30.66 L 24.49,35.44 L 14.62,40.37 L 4.75,35.44 L 4.75,30.65 L 14.62,25.72 z" id="p2558" style="opacity:1;fill:#d3bc5f;fill-opacity:1;fill-rule:nonzero;stroke:#5e4721;stroke-width:0.41;stroke-linecap:butt;stroke-linejoin:bevel;marker:none;stroke-miterlimit:4;stroke-dasharray:none;stroke-dashoffset:0;stroke-opacity:1;visibility:visible;display:inline;overflow:visible;enable-background:accumulate"/>
<path d="M 14.62,35.57 L 14.62,40.24" id="p2560" style="opacity:1;fill:none;fill-opacity:1;fill-rule:nonzero;stroke:#5e4721;stroke-width:0.41;stroke-linecap:butt;stroke-linejoin:bevel;marker:none;stroke-miterlimit:4;stroke-dasharray:none;stroke-dashoffset:0;stroke-opacity:1;visibility:visible;display:inline;overflow:visible;enable-background:accumulate"/>
<path d="M 4.85,30.68 L 14.62,35.57 L 24.41,30.67" id="p2562" style="opacity:1;fill:none;fill-opacity:1;fill-rule:nonzero;stroke:#5e4721;stroke-width:0.41;stroke-linecap:butt;stroke-linejoin:bevel;marker:none;stroke-miterlimit:4;stroke-dasharray:none;stroke-dashoffset:0;stroke-opacity:1;visibility:visible;display:inline;overflow:visible;enable-background:accumulate"/>
</g>
</g>
<g id="g2523">
<path d="M 30.47,21.09 L 22.19,25.25 C 22.19,26.18 22.19,26.78 22.19,27.53 L 22.15,27.53 L 16.77,30.24 L 16.77,33.49 L 16.77,33.54 C 16.61,33.60 16.44,33.71 16.29,33.77 C 15.68,34.04 15.16,34.30 14.58,34.55 C 14.27,34.70 13.93,34.87 13.62,35.04 C 13.08,35.43 13.17,36.19 13.42,36.73 C 13.72,37.45 14.26,38.00 14.93,38.33 C 16.09,38.87 17.28,39.48 18.41,40.13 C 19.05,40.51 19.89,40.79 20.60,40.41 C 21.67,39.88 22.81,39.46 23.84,38.96 L 25.00,39.58 L 26.41,38.86 L 26.46,38.86 L 29.70,40.51 C 29.74,40.48 30.35,40.10 30.38,40.08 L 30.38,36.92 L 31.88,36.14 L 31.93,36.14 L 35.17,37.76 C 35.21,37.72 35.87,37.38 35.90,37.37 L 35.90,33.34 L 35.46,33.15 C 35.49,33.07 35.49,32.98 35.51,32.90 L 35.66,32.56 L 35.56,32.47 C 35.57,32.24 35.57,32.00 35.51,31.79 C 35.18,30.52 34.19,29.40 32.91,29.08 C 32.46,28.97 31.96,28.92 31.49,28.84 L 34.84,27.09 C 34.84,25.80 34.84,24.22 34.84,23.28 L 30.47,21.09 z" id="p3553" style="fill:#d3bc5f;fill-opacity:1;fill-rule:nonzero;stroke:none;marker:none;visibility:visible;display:inline;overflow:visible;enable-background:accumulate"/>
<path d="M 31.37,28.83 C 31.39,28.83 31.40,28.81 31.43,28.83 C 31.91,28.92 32.42,28.97 32.87,29.09 C 34.18,29.40 35.18,30.53 35.52,31.80 C 35.63,32.22 35.63,32.72 35.48,33.12" id="p3881-6-0-0" style="fill:none;fill-opacity:1;fill-rule:nonzero;stroke:#5e4721;stroke-width:0.44;stroke-linecap:butt;stroke-linejoin:miter;marker:none;stroke-miterlimit:4;stroke-dasharray:none;stroke-dashoffset:0;stroke-opacity:1;visibility:visible;display:inline;overflow:visible;enable-background:accumulate"/>
<path d="M 25.03,34.45 L 25.03,39.57" id="p3111-6" style="fill:none;fill-opacity:1;fill-rule:nonzero;stroke:#5e4721;stroke-width:0.27;stroke-linecap:butt;stroke-linejoin:miter;marker:none;stroke-miterlimit:4;stroke-dasharray:none;stroke-dashoffset:0;stroke-opacity:1;visibility:visible;display:inline;overflow:visible;enable-background:accumulate"/>
<path d="M 33.37,30.22 L 25.08,34.38 L 16.79,30.22" id="p2993-7-9-4-0" style="fill:none;fill-opacity:1;fill-rule:nonzero;stroke:#5e4721;stroke-width:0.27;stroke-linecap:butt;stroke-linejoin:miter;marker:none;stroke-miterlimit:4;stroke-dasharray:none;stroke-dashoffset:0;stroke-opacity:1;visibility:visible;display:inline;overflow:visible;enable-background:accumulate"/>
<path d="M 29.76,29.48 C 29.81,29.97 29.79,30.47 29.28,31.07 C 28.55,31.94 27.09,32.44 26.04,32.22 C 25.06,32.00 24.86,31.31 25.02,30.44" id="p4109-4" style="fill:none;fill-opacity:1;fill-rule:nonzero;stroke:#5e4721;stroke-width:0.44;stroke-linecap:butt;stroke-linejoin:miter;marker:none;stroke-miterlimit:4;stroke-dasharray:none;stroke-dashoffset:0;stroke-opacity:1;visibility:visible;display:inline;overflow:visible;enable-background:accumulate"/>
<path d="M 34.19,24.08 L 27.05,27.66 L 27.05,30.14 L 34.19,26.58 L 34.19,24.08 z" id="p2993-7-9-8-8-5-59" style="fill:none;fill-opacity:1;fill-rule:nonzero;stroke:#5e4721;stroke-width:0.27;stroke-linecap:butt;stroke-linejoin:miter;marker:none;stroke-miterlimit:4;stroke-dasharray:none;stroke-dashoffset:0;stroke-opacity:1;visibility:visible;display:inline;overflow:visible;enable-background:accumulate"/>
<path d="M 26.52,27.45 L 26.52,31.01" id="p5148-2" style="fill:none;fill-opacity:1;fill-rule:nonzero;stroke:#5e4721;stroke-width:0.27;stroke-linecap:butt;stroke-linejoin:miter;marker:none;stroke-miterlimit:4;stroke-dasharray:none;stroke-dashoffset:0;stroke-opacity:1;visibility:visible;display:inline;overflow:visible;enable-background:accumulate"/>
<path d="M 22.18,25.25 L 26.53,27.43 L 34.84,23.29" id="p2993-7-9-8-8-57-9" style="fill:none;fill-opacity:1;fill-rule:nonzero;stroke:#5e4721;stroke-width:0.27;stroke-linecap:butt;stroke-linejoin:miter;marker:none;stroke-miterlimit:4;stroke-dasharray:none;stroke-dashoffset:0;stroke-opacity:1;visibility:visible;display:inline;overflow:visible;enable-background:accumulate"/>
<path d="M 30.47,21.12 L 22.18,25.25 C 22.18,26.78 22.18,28.27 22.18,29.04 L 26.53,31.23 L 34.84,27.08 C 34.84,25.79 34.84,24.24 34.84,23.29 L 30.47,21.12 z" id="p2993-7-9-8-2-6" style="fill:none;stroke:#5e4721;stroke-width:0.55;stroke-linecap:butt;stroke-linejoin:miter;marker:none;stroke-miterlimit:4;stroke-dasharray:none;stroke-dashoffset:0;stroke-opacity:1;visibility:visible;display:inline;overflow:visible;enable-background:accumulate"/>
<path d="M 14.17,34.84 C 13.98,34.84 13.81,34.90 13.65,34.98 C 13.07,35.35 13.08,36.34 13.67,37.18 C 14,37.65 14.34,38.00 14.72,38.20 L 18.35,40.06 C 18.51,40.17 18.66,40.25 18.83,40.33 C 19.48,40.65 20.15,40.72 20.64,40.41 C 21.54,39.85 21.54,38.36 20.63,37.07 C 20.06,36.27 19.25,35.76 18.52,35.62 L 18.52,35.60 C 18.37,35.59 14.38,34.86 14.23,34.84 C 14.21,34.84 14.21,34.84 14.20,34.84 C 14.18,34.84 14.17,34.84 14.17,34.84 L 14.17,34.84 z" id="p3881-5-4" style="fill:none;fill-opacity:1;fill-rule:nonzero;stroke:#5e4721;stroke-width:0.27;stroke-linecap:butt;stroke-linejoin:miter;marker:none;stroke-miterlimit:4;stroke-dasharray:none;stroke-dashoffset:0;stroke-opacity:1;visibility:visible;display:inline;overflow:visible;enable-background:accumulate"/>
<path d="M 17.34,33.37 C 16.94,33.40 16.61,33.65 16.27,33.79 C 15.67,34.04 15.17,34.31 14.60,34.58 C 14.27,34.73 13.93,34.86 13.62,35.01 C 13.08,35.40 13.16,36.17 13.41,36.72 C 13.69,37.43 14.26,37.99 14.93,38.33 C 16.09,38.87 17.28,39.48 18.41,40.11 C 19.05,40.50 19.90,40.82 20.61,40.44 C 21.70,39.89 22.83,39.43 23.87,38.92 C 24.50,38.48 24.60,37.58 24.43,36.89 C 24.09,35.62 23.08,34.47 21.78,34.16 C 21.33,34.05 20.80,33.99 20.32,33.90 C 19.33,33.73 18.34,33.51 17.34,33.37 L 17.34,33.37 z" id="p3881-6-4" style="fill:none;fill-opacity:1;fill-rule:nonzero;stroke:#5e4721;stroke-width:0.44;stroke-linecap:butt;stroke-linejoin:miter;marker:none;stroke-miterlimit:4;stroke-dasharray:none;stroke-dashoffset:0;stroke-opacity:1;visibility:visible;display:inline;overflow:visible;enable-background:accumulate"/>
<path d="M 15.68,35.66 C 15.56,35.71 15.39,35.80 15.24,35.86 C 14.91,36.07 14.91,36.61 15.24,37.09 C 15.58,37.57 16.12,37.79 16.46,37.57 C 16.63,37.51 16.75,37.43 16.91,37.37 C 17.23,37.17 17.23,36.62 16.91,36.14 C 16.83,36.03 16.72,35.96 16.65,35.88" id="p3881-7-3-7-9-7" style="fill:none;fill-opacity:1;fill-rule:nonzero;stroke:#5e4721;stroke-width:0.27;stroke-linecap:butt;stroke-linejoin:miter;marker:none;stroke-miterlimit:4;stroke-dasharray:none;stroke-dashoffset:0;stroke-opacity:1;visibility:visible;display:inline;overflow:visible;enable-background:accumulate"/>
<path d="M 18.88,36.44 C 18.82,36.44 18.75,36.45 18.71,36.48 C 18.54,36.55 18.32,36.67 18.12,36.75 C 17.67,37.03 17.67,37.77 18.12,38.42 C 18.58,39.06 19.31,39.35 19.76,39.07 C 19.99,38.98 20.16,38.89 20.35,38.81 C 20.44,38.75 20.52,38.69 20.57,38.61" id="p3881-7-3-7-7-7-5" style="fill:none;fill-opacity:1;fill-rule:nonzero;stroke:#5e4721;stroke-width:0.27;stroke-linecap:butt;stroke-linejoin:miter;marker:none;stroke-miterlimit:4;stroke-dasharray:none;stroke-dashoffset:0;stroke-opacity:1;visibility:visible;display:inline;overflow:visible;enable-background:accumulate"/>
<path d="M 14.66,35.43 C 14.51,35.43 14.37,35.45 14.23,35.51 C 13.70,35.74 13.65,36.45 14.12,37.10 C 14.37,37.46 14.63,37.74 14.96,37.91 L 17.96,39.48 C 18.09,39.55 18.23,39.63 18.37,39.69 C 18.91,39.97 19.48,40.05 19.92,39.86 C 20.72,39.51 20.80,38.42 20.09,37.45 C 19.65,36.83 18.99,36.41 18.37,36.25 C 17.19,35.99 15.93,35.69 14.72,35.45 C 14.72,35.45 14.71,35.45 14.69,35.45 C 14.69,35.45 14.68,35.43 14.66,35.43 L 14.66,35.43 z" id="p3881-5-7-8-6" style="fill:none;fill-opacity:1;fill-rule:nonzero;stroke:#5e4721;stroke-width:0.27;stroke-linecap:butt;stroke-linejoin:miter;marker:none;stroke-miterlimit:4;stroke-dasharray:none;stroke-dashoffset:0;stroke-opacity:1;visibility:visible;display:inline;overflow:visible;enable-background:accumulate"/>
<path d="M 26.16,34.73 L 26.16,38.73 L 29.68,40.50 L 29.68,36.50 L 26.16,34.73 z" id="p4502-0-7" style="fill:none;fill-opacity:1;fill-rule:nonzero;stroke:#5e4721;stroke-width:0.27;stroke-linecap:butt;stroke-linejoin:miter;marker:none;stroke-miterlimit:4;stroke-dasharray:none;stroke-dashoffset:0;stroke-opacity:1;visibility:visible;display:inline;overflow:visible;enable-background:accumulate"/>
<path d="M 27.11,34.44 L 31.99,32.02" id="p5229-81" style="fill:none;stroke:#5e4721;stroke-width:0.27;stroke-linecap:butt;stroke-linejoin:miter;stroke-miterlimit:4;stroke-dasharray:none;stroke-opacity:1"/>
<path d="M 26.41,38.87 L 29.68,40.50 C 29.73,40.47 30.35,40.11 30.39,40.08 L 30.39,36.08 L 26.88,34.31" id="p4502-0-2-0-6" style="fill:none;stroke:#5e4721;stroke-width:0.44;stroke-linecap:round;stroke-miterlimit:4;stroke-dasharray:none;stroke-opacity:1;display:inline"/>
<path d="M 31.67,31.99 L 31.67,35.99 L 35.18,37.77 L 35.18,33.76 L 31.67,31.99 L 31.67,31.99 z" id="p4502-0-1-2" style="fill:none;fill-opacity:1;fill-rule:nonzero;stroke:#5e4721;stroke-width:0.27;stroke-linecap:butt;stroke-linejoin:miter;marker:none;stroke-miterlimit:4;stroke-dasharray:none;stroke-dashoffset:0;stroke-opacity:1;visibility:visible;display:inline;overflow:visible;enable-background:accumulate"/>
<path d="M 31.90,36.13 L 35.18,37.77 C 35.23,37.74 35.85,37.37 35.88,37.35 L 35.88,33.35 L 32.36,31.59" id="p4502-0-2-0-9-1" style="fill:none;stroke:#5e4721;stroke-width:0.44;stroke-linecap:round;stroke-miterlimit:4;stroke-dasharray:none;stroke-opacity:1;display:inline"/>
<path d="M 31.60,26.50 L 33.23,25.65" id="p5093-4" style="fill:none;fill-opacity:1;fill-rule:nonzero;stroke:#5e4721;stroke-width:0.55;stroke-linecap:round;stroke-linejoin:miter;marker:none;stroke-miterlimit:4;stroke-dasharray:none;stroke-dashoffset:0;stroke-opacity:1;visibility:visible;display:inline;overflow:visible;enable-background:accumulate"/>
<path d="M 28.08,28.28 L 29.71,27.43" id="p5093-1-8" style="fill:none;fill-opacity:1;fill-rule:nonzero;stroke:#5e4721;stroke-width:0.55;stroke-linecap:round;stroke-linejoin:miter;marker:none;stroke-miterlimit:4;stroke-dasharray:none;stroke-dashoffset:0;stroke-opacity:1;visibility:visible;display:inline;overflow:visible;enable-background:accumulate"/>
<path d="M 22.16,27.53 L 16.75,30.22 L 16.75,33.48" id="p3294" style="fill:none;fill-opacity:1;fill-rule:nonzero;stroke:#5e4721;stroke-width:0.55;stroke-linecap:butt;stroke-linejoin:miter;marker:none;stroke-miterlimit:4;stroke-dasharray:none;stroke-dashoffset:0;stroke-opacity:1;visibility:visible;display:inline;overflow:visible;enable-background:accumulate"/>
<path d="M 26.55,38.95 L 25.09,39.65 L 23.74,39" id="p3296" style="fill:none;fill-opacity:1;fill-rule:nonzero;stroke:#5e4721;stroke-width:0.55;stroke-linecap:butt;stroke-linejoin:miter;marker:none;stroke-miterlimit:4;stroke-dasharray:none;stroke-dashoffset:0;stroke-opacity:1;visibility:visible;display:inline;overflow:visible;enable-background:accumulate"/>
<path d="M 32.02,36.19 L 30.46,36.95" id="p3298" style="fill:none;fill-opacity:1;fill-rule:nonzero;stroke:#5e4721;stroke-width:0.55;stroke-linecap:butt;stroke-linejoin:miter;marker:none;stroke-miterlimit:4;stroke-dasharray:none;stroke-dashoffset:0;stroke-opacity:1;visibility:visible;display:inline;overflow:visible;enable-background:accumulate"/>
<path d="M 33.32,32.07 L 33.32,30.18 L 30.94,29.04" id="p3300" style="fill:none;fill-opacity:1;fill-rule:nonzero;stroke:#5e4721;stroke-width:0.55;stroke-linecap:butt;stroke-linejoin:miter;marker:none;stroke-miterlimit:4;stroke-dasharray:none;stroke-dashoffset:0;stroke-opacity:1;visibility:visible;display:inline;overflow:visible;enable-background:accumulate"/>
<path d="M 24.44,30.07 L 22.49,31.04 L 18.82,29.20" id="p3305" style="fill:none;fill-opacity:1;fill-rule:nonzero;stroke:#5e4721;stroke-width:0.27;stroke-linecap:butt;stroke-linejoin:miter;marker:none;stroke-miterlimit:4;stroke-dasharray:none;stroke-dashoffset:0;stroke-opacity:1;visibility:visible;display:inline;overflow:visible;enable-background:accumulate"/>
</g>
<g id="g2437">
<path d="M 6.21,43.46 C 5.81,43.46 5.5,43.78 5.5,44.18 L 5.5,54.34 C 5.5,54.74 5.81,55.06 6.21,55.06 L 16.37,55.06 C 16.77,55.06 17.09,54.74 17.09,54.34 L 17.09,44.18 C 17.09,43.78 16.77,43.46 16.37,43.46 L 6.21,43.46 z" id="r3358" style="fill:#fad993;fill-opacity:1;fill-rule:evenodd;stroke:#b68422;stroke-width:2.01;stroke-linecap:round;stroke-linejoin:miter;marker:none;stroke-miterlimit:4;stroke-dasharray:none;stroke-dashoffset:0;stroke-opacity:1;visibility:visible;display:inline;overflow:visible;enable-background:accumulate"/>
<path d="M 11.22,43.72 C 11.04,43.72 10.86,43.8 10.71,43.94 L 10.65,44.01 L 10.65,46.85 L 6.65,46.85 C 6.24,46.85 5.92,47.17 5.92,47.57 L 5.92,53.87 C 5.92,54.27 6.25,54.59 6.65,54.59 L 8.01,54.59 C 8.41,54.59 8.73,54.27 8.73,53.87 L 8.73,51.49 L 10.65,51.49 L 10.65,54.33 L 10.71,54.39 C 11,54.68 11.45,54.68 11.74,54.39 L 16.46,49.68 C 16.6,49.54 16.67,49.35 16.67,49.17 C 16.67,48.99 16.6,48.79 16.46,48.65 L 11.74,43.94 C 11.6,43.8 11.41,43.72 11.22,43.72 z" id="p3360" style="fill:#5e4721;fill-opacity:1;fill-rule:evenodd;stroke:none;marker:none;visibility:visible;display:inline;overflow:visible;enable-background:accumulate"/>
</g>
<path d="M 18.21,39.09 C 18.17,39.08 16.53,41.67 16.5,41.68 C 16.47,41.70 13.41,41.40 13.40,41.43 C 13.38,41.45 15.33,43.84 15.34,43.87 C 15.34,43.90 14.10,46.72 14.12,46.75 C 14.14,46.77 17.02,45.61 17.06,45.62 C 17.09,45.62 19.37,47.69 19.40,47.68 C 19.43,47.67 19.24,44.59 19.25,44.56 C 19.27,44.53 21.94,42.99 21.93,42.96 C 21.93,42.93 18.92,42.14 18.90,42.12 C 18.88,42.10 18.24,39.09 18.21,39.09 z" id="p3208" style="opacity:1;fill:#d3bc5f;fill-opacity:1;fill-rule:nonzero;stroke:#5e4721;stroke-width:0.30;stroke-linecap:butt;stroke-linejoin:bevel;marker:none;stroke-miterlimit:4;stroke-dasharray:none;stroke-dashoffset:0;stroke-opacity:1;visibility:visible;display:inline;overflow:visible;enable-background:accumulate"/>
<path d="M 15.89,42.64 L 17.02,42.83 L 17.21,41.69 L 18.17,41.85 L 17.98,42.99 L 19.12,43.18 L 18.96,44.14 L 17.82,43.95 L 17.62,45.08 L 16.67,44.92 L 16.86,43.79 L 15.73,43.6 L 15.89,42.64" id="text3210" style="font-size:6.15px;font-style:normal;font-variant:normal;font-weight:normal;font-stretch:normal;fill:#5e4721;fill-opacity:1;stroke:none;font-family:Arial Black;-inkscape-font-specification:Arial Black"/>
<use transform="translate(0,47.02)" id="use2554" x="0" y="0" width="48" height="132" xlink:href="#g2551"/>
<use transform="matrix(-1,0,0,1,49.10,46.73)" id="use2564" x="0" y="0" width="48" height="132" xlink:href="#g2523"/>
</svg>
