<?xml version="1.0" encoding="UTF-8" standalone="no"?>

<svg xmlns:svg="http://www.w3.org/2000/svg" xmlns="http://www.w3.org/2000/svg" xmlns:xlink="http://www.w3.org/1999/xlink" version="1.0" width="100%" height="100%" viewBox="0 0 48 132" id="svg2985" style="display:inline">
<defs id="defs2987"/>
<path d="M 24,96.19 L 0.12,108.22 L 0.19,119.83 L 24,131.77 L 24,96.19 z" id="p3863" style="fill:#838383;fill-opacity:1;stroke:none"/>
<path d="M 23.96,96.41 L 23.97,131.81 L 47.93,119.87 L 47.93,108.12 L 23.96,96.41 z" id="p3863-0" style="fill:#969696;fill-opacity:1;stroke:none"/>
<path d="M 24,120 L 24,131.12" id="p3976" style="fill:none;stroke:#a4a4a4;stroke-width:2;stroke-linecap:butt;stroke-linejoin:miter;marker:none;stroke-miterlimit:4;stroke-dasharray:none;stroke-dashoffset:0;stroke-opacity:1;visibility:visible;display:inline;overflow:visible;enable-background:accumulate"/>
<path d="M 24,120 L 0.16,108.06 L 24,96.12 L 47.87,108.12 L 24,120 z" id="p2993" style="fill:#bcbcbc;fill-opacity:1;stroke:none"/>
<path d="M 7.12,107.21 C 6.99,107.2 6.88,107.21 6.75,107.25 C 6.57,107.28 6.41,107.35 6.28,107.46 L 3.31,109.62 L 19.93,117.96 L 28.09,117.96 L 41.59,111.25 C 41.54,110.89 41.27,110.62 40.9,110.62 L 39.53,110.62 L 41.43,109.25 C 41.87,108.96 42.04,108.39 41.84,107.9 C 41.64,107.41 41.14,107.15 40.62,107.25 C 40.45,107.28 40.29,107.35 40.15,107.46 L 35.78,110.62 L 5.68,110.62 L 7.59,109.25 C 8.04,108.96 8.24,108.4 8.03,107.9 C 7.87,107.53 7.5,107.26 7.12,107.21 z" id="r3583" style="opacity:1;fill:#838383;fill-opacity:1;fill-rule:nonzero;stroke:none;marker:none;visibility:visible;display:inline;overflow:visible;enable-background:accumulate"/>
<path d="M 0.75,108.37 L 24,120 L 47.31,108.34" id="p2993-8" style="fill:none;stroke:#e9e9e9;stroke-width:1.5;stroke-linejoin:round;stroke-miterlimit:4;stroke-dasharray:none;stroke-opacity:1"/>
<path d="M 24,96.55 L 47.5,108.31 L 47.5,119.69 L 24,131.44 L 0.5,119.7 L 0.5,108.3 L 24,96.55 z" id="p3034" style="fill:none;fill-opacity:1;fill-rule:nonzero;stroke:#838383;stroke-width:1;stroke-linecap:butt;stroke-linejoin:miter;marker:none;stroke-miterlimit:4;stroke-dasharray:none;stroke-dashoffset:0;stroke-opacity:1;visibility:visible;display:inline;overflow:visible;enable-background:accumulate"/>
<rect width="2.56" height="97.27" ry="1.15" x="5.80" y="11.62" id="r2440" style="fill:#969696;fill-opacity:1;fill-rule:nonzero;stroke:#838383;stroke-width:1;stroke-linecap:butt;stroke-linejoin:miter;marker:none;stroke-miterlimit:4;stroke-dasharray:none;stroke-dashoffset:0;stroke-opacity:1;visibility:visible;display:inline;overflow:visible;enable-background:accumulate"/>
<path d="M 7.54,107.67 L 7.54,94.64" id="p3794" style="fill:none;fill-opacity:1;fill-rule:nonzero;stroke:#e9e9e9;stroke-width:1;stroke-linecap:round;stroke-linejoin:round;marker:none;stroke-miterlimit:4;stroke-dasharray:none;stroke-dashoffset:0;stroke-opacity:1;visibility:visible;display:inline;overflow:visible;enable-background:accumulate"/>
<path d="M 7.54,18.73 L 7.54,12.78" id="p2427" style="fill:none;fill-opacity:1;fill-rule:nonzero;stroke:#e9e9e9;stroke-width:1;stroke-linecap:round;stroke-linejoin:round;marker:none;stroke-miterlimit:4;stroke-dasharray:none;stroke-dashoffset:0;stroke-opacity:1;visibility:visible;display:inline;overflow:visible;enable-background:accumulate"/>
<rect width="2.56" height="97.27" ry="1.15" x="39.79" y="11.62" id="r2429" style="fill:#969696;fill-opacity:1;fill-rule:nonzero;stroke:#838383;stroke-width:1;stroke-linecap:butt;stroke-linejoin:miter;marker:none;stroke-miterlimit:4;stroke-dasharray:none;stroke-dashoffset:0;stroke-opacity:1;visibility:visible;display:inline;overflow:visible;enable-background:accumulate"/>
<path d="M 41.53,107.67 L 41.53,94.64" id="p2431" style="fill:none;fill-opacity:1;fill-rule:nonzero;stroke:#e9e9e9;stroke-width:1;stroke-linecap:round;stroke-linejoin:round;marker:none;stroke-miterlimit:4;stroke-dasharray:none;stroke-dashoffset:0;stroke-opacity:1;visibility:visible;display:inline;overflow:visible;enable-background:accumulate"/>
<path d="M 41.53,18.73 L 41.53,12.78" id="p2433" style="fill:none;fill-opacity:1;fill-rule:nonzero;stroke:#e9e9e9;stroke-width:1;stroke-linecap:round;stroke-linejoin:round;marker:none;stroke-miterlimit:4;stroke-dasharray:none;stroke-dashoffset:0;stroke-opacity:1;visibility:visible;display:inline;overflow:visible;enable-background:accumulate"/>
<rect width="45.02" height="86.95" ry="1.15" x="1.41" y="16.13" id="r2435" style="opacity:1;fill:#d3bc5f;fill-opacity:1;fill-rule:nonzero;stroke:none;marker:none;visibility:visible;display:inline;overflow:visible;enable-background:accumulate"/>
<path d="M 1.69,16.99 L 45.88,16.99" id="p2439" style="opacity:1;fill:none;fill-opacity:1;fill-rule:nonzero;stroke:#f5ebdc;stroke-width:1.28;stroke-linecap:butt;stroke-linejoin:bevel;marker:none;stroke-miterlimit:4;stroke-dasharray:none;stroke-dashoffset:0;stroke-opacity:1;visibility:visible;display:inline;overflow:visible;enable-background:accumulate"/>
<rect width="45.02" height="86.95" ry="1.15" x="1.41" y="16.13" id="r2437" style="opacity:1;fill:none;fill-opacity:1;fill-rule:nonzero;stroke:#5e4721;stroke-width:1;stroke-linecap:butt;stroke-linejoin:bevel;marker:none;stroke-miterlimit:4;stroke-dasharray:none;stroke-dashoffset:0;stroke-opacity:1;visibility:visible;display:inline;overflow:visible;enable-background:accumulate"/>
<path d="M 25.02,72.32 L 38.27,64.66 L 11.74,64.66 L 25.02,72.32 z" id="p3498" style="fill:#fad993;fill-opacity:1;fill-rule:evenodd;stroke:none"/>
<g id="g2538">
<path d="M 16.87,27.68 L 29.80,34.15 L 29.80,40.41 L 16.87,46.87 L 3.94,40.41 L 3.94,34.14 L 16.87,27.68 z" id="p2502" style="fill:#d3bc5f;fill-opacity:1;fill-rule:nonzero;stroke:#5e4721;stroke-width:0.55;stroke-linecap:butt;stroke-linejoin:bevel;marker:none;stroke-miterlimit:4;stroke-dasharray:none;stroke-dashoffset:0;stroke-opacity:1;visibility:visible;display:inline;overflow:visible;enable-background:accumulate"/>
<path d="M 16.87,40.58 L 16.87,46.70" id="p2496" style="fill:none;fill-opacity:1;fill-rule:nonzero;stroke:#5e4721;stroke-width:0.55;stroke-linecap:butt;stroke-linejoin:bevel;marker:none;stroke-miterlimit:4;stroke-dasharray:none;stroke-dashoffset:0;stroke-opacity:1;visibility:visible;display:inline;overflow:visible;enable-background:accumulate"/>
<path d="M 4.07,34.18 L 16.87,40.58 L 29.69,34.16" id="p2500" style="fill:none;fill-opacity:1;fill-rule:nonzero;stroke:#5e4721;stroke-width:0.55;stroke-linecap:butt;stroke-linejoin:bevel;marker:none;stroke-miterlimit:4;stroke-dasharray:none;stroke-dashoffset:0;stroke-opacity:1;visibility:visible;display:inline;overflow:visible;enable-background:accumulate"/>
</g>
<g id="g2496">
<path d="M 17.83,20.5 L 10.83,24 C 10.83,25.3 10.83,26.57 10.83,27.22 L 13.39,28.5 L 12.39,29.16 L 12.02,29.16 L 9.83,28.04 C 9.81,28.05 9.27,28.39 9.24,28.41 L 9.24,31.79 L 10.64,32.47 C 10.36,32.62 10.11,32.75 9.64,32.97 C 9.55,33.03 9.44,33.08 9.36,33.16 C 9.2,33.32 9.1,33.55 9.02,33.79 C 8.86,34.26 8.88,34.86 9.11,35.47 C 9.41,36.25 9.97,36.85 10.58,37.13 C 10.71,37.17 14.02,38.68 14.14,38.72 C 14.15,38.73 14.17,38.72 14.18,38.72 C 14.19,38.73 14.2,38.75 14.21,38.75 C 14.37,38.79 14.52,38.79 14.68,38.75 C 15.61,38.36 16.6,37.8 17.11,37.54 C 17.29,37.49 17.44,37.39 17.55,37.25 L 18.27,37.63 L 25.27,34.13 C 25.27,33.89 25.27,33.66 25.27,33.41 C 25.85,33.12 26.38,32.83 26.71,32.66 C 27.32,32.51 27.58,31.71 27.27,30.91 C 27.11,30.47 26.89,30.14 26.61,29.88 L 23.93,27.57 C 23.81,27.44 23.7,27.32 23.58,27.22 C 23.15,26.87 22.64,26.68 22.18,26.72 C 22.11,26.73 22.08,26.73 22.02,26.75 C 21.44,27.01 21.07,27.17 20.77,27.32 L 19.55,26.57 L 21.52,25.57 C 21.52,24.48 21.52,23.16 21.52,22.35 L 17.83,20.5 z" id="p3427" style="fill:#d3bc5f;fill-opacity:1;fill-rule:nonzero;stroke:none;marker:none;visibility:visible;display:inline;overflow:visible;enable-background:accumulate"/>
<path d="M 25.28,33.4 C 25.85,33.12 26.39,32.83 26.71,32.66 C 27.33,32.51 27.57,31.73 27.26,30.92 C 27.1,30.49 26.9,30.14 26.62,29.88 L 23.91,27.56 C 23.8,27.44 23.7,27.33 23.58,27.23 C 23.15,26.88 22.65,26.69 22.19,26.73 C 22.13,26.74 22.07,26.74 22.01,26.76 C 21.39,27.03 21.03,27.2 20.72,27.35" id="p3881-5-2-4-3-0-5" style="fill:none;fill-opacity:1;fill-rule:nonzero;stroke:#5e4721;stroke-width:0.38;stroke-linecap:butt;stroke-linejoin:miter;marker:none;stroke-miterlimit:4;stroke-dasharray:none;stroke-dashoffset:0;stroke-opacity:1;visibility:visible;display:inline;overflow:visible;enable-background:accumulate"/>
<path d="M 12.14,29.21 L 9.83,28.05 C 9.8,28.06 9.27,28.38 9.24,28.4 L 9.24,31.79 L 10.63,32.48" id="p4502-0-2-5" style="fill:none;fill-opacity:1;fill-rule:nonzero;stroke:#5e4721;stroke-width:0.38;stroke-linecap:round;stroke-linejoin:miter;marker:none;stroke-miterlimit:4;stroke-dasharray:none;stroke-dashoffset:0;stroke-opacity:1;visibility:visible;display:inline;overflow:visible;enable-background:accumulate"/>
<path d="M 9.23,28.4 L 9.23,28.4 L 11.46,29.5" id="p4502-0-16" style="fill:none;fill-opacity:1;fill-rule:nonzero;stroke:#5e4721;stroke-width:0.38;stroke-linecap:round;stroke-linejoin:miter;marker:none;stroke-miterlimit:4;stroke-dasharray:none;stroke-dashoffset:0;stroke-opacity:1;visibility:visible;display:inline;overflow:visible;enable-background:accumulate"/>
<path d="M 18.22,33.22 L 18.22,37.55" id="p3111-7" style="fill:none;fill-opacity:1;fill-rule:nonzero;stroke:#5e4721;stroke-width:0.23;stroke-linecap:butt;stroke-linejoin:miter;marker:none;stroke-miterlimit:4;stroke-dasharray:none;stroke-dashoffset:0;stroke-opacity:1;visibility:visible;display:inline;overflow:visible;enable-background:accumulate"/>
<path d="M 20.62,28.85 L 16.48,30.9 L 19.61,32.48 L 23.75,30.4 L 20.62,28.85 L 20.62,28.85 z" id="p2993-7-9-7-2" style="fill:none;fill-opacity:1;fill-rule:nonzero;stroke:#5e4721;stroke-width:0.23;stroke-linecap:butt;stroke-linejoin:miter;marker:none;stroke-miterlimit:4;stroke-dasharray:none;stroke-dashoffset:0;stroke-opacity:1;visibility:visible;display:inline;overflow:visible;enable-background:accumulate"/>
<path d="M 25.27,29.64 L 18.25,33.15 L 11.23,29.64" id="p2993-7-9-4-2" style="fill:none;fill-opacity:1;fill-rule:nonzero;stroke:#5e4721;stroke-width:0.23;stroke-linecap:butt;stroke-linejoin:miter;marker:none;stroke-miterlimit:4;stroke-dasharray:none;stroke-dashoffset:0;stroke-opacity:1;visibility:visible;display:inline;overflow:visible;enable-background:accumulate"/>
<path d="M 14.35,32.28 L 16.79,33.5 L 16.79,34.68" id="p4705-2" style="fill:none;fill-opacity:1;fill-rule:nonzero;stroke:#5e4721;stroke-width:0.23;stroke-linecap:butt;stroke-linejoin:miter;marker:none;stroke-miterlimit:4;stroke-dasharray:none;stroke-dashoffset:0;stroke-opacity:1;visibility:visible;display:inline;overflow:visible;enable-background:accumulate"/>
<path d="M 17.54,37.26 L 18.25,37.63 L 25.28,34.12 C 25.28,32.65 25.28,30.84 25.28,29.64 L 19.33,26.66" id="p2734" style="fill:none;fill-opacity:1;fill-rule:nonzero;stroke:#5e4721;stroke-width:0.47;stroke-linecap:butt;stroke-linejoin:miter;marker:none;stroke-miterlimit:4;stroke-dasharray:none;stroke-dashoffset:0;stroke-opacity:1;visibility:visible;display:inline;overflow:visible;enable-background:accumulate"/>
<path d="M 13.44,28.53 L 11.23,29.64 C 11.23,30.53 11.23,31.33 11.23,32.16" id="p2993-7-3-0" style="fill:none;fill-opacity:1;fill-rule:nonzero;stroke:#5e4721;stroke-width:0.47;stroke-linecap:butt;stroke-linejoin:miter;marker:none;stroke-miterlimit:4;stroke-dasharray:none;stroke-dashoffset:0;stroke-opacity:1;visibility:visible;display:inline;overflow:visible;enable-background:accumulate"/>
<path d="M 14.81,28.91 C 14.91,29.26 15.17,29.53 15.67,29.64 C 16.56,29.83 17.77,29.39 18.39,28.65 C 18.88,28.08 18.86,27.62 18.8,27.14 C 18.8,27.06 18.8,27 18.8,26.93" id="p4109-9" style="fill:none;fill-opacity:1;fill-rule:nonzero;stroke:#5e4721;stroke-width:0.38;stroke-linecap:butt;stroke-linejoin:miter;marker:none;stroke-miterlimit:4;stroke-dasharray:none;stroke-dashoffset:0;stroke-opacity:1;visibility:visible;display:inline;overflow:visible;enable-background:accumulate"/>
<path d="M 14.49,25.87 L 14.49,28.89" id="p5148-5" style="fill:none;fill-opacity:1;fill-rule:nonzero;stroke:#5e4721;stroke-width:0.23;stroke-linecap:butt;stroke-linejoin:miter;marker:none;stroke-miterlimit:4;stroke-dasharray:none;stroke-dashoffset:0;stroke-opacity:1;visibility:visible;display:inline;overflow:visible;enable-background:accumulate"/>
<path d="M 10.82,24.02 L 14.51,25.86 L 21.53,22.35" id="p2993-7-9-8-8-57-8" style="fill:none;fill-opacity:1;fill-rule:nonzero;stroke:#5e4721;stroke-width:0.23;stroke-linecap:butt;stroke-linejoin:miter;marker:none;stroke-miterlimit:4;stroke-dasharray:none;stroke-dashoffset:0;stroke-opacity:1;visibility:visible;display:inline;overflow:visible;enable-background:accumulate"/>
<path d="M 17.84,20.51 L 10.82,24.02 C 10.82,25.31 10.82,26.57 10.82,27.22 L 14.51,29.07 L 21.53,25.56 C 21.53,24.47 21.53,23.16 21.53,22.35 L 17.84,20.51 z" id="p2993-7-9-8-2-7" style="fill:none;fill-opacity:1;fill-rule:nonzero;stroke:#5e4721;stroke-width:0.47;stroke-linecap:butt;stroke-linejoin:miter;marker:none;stroke-miterlimit:4;stroke-dasharray:none;stroke-dashoffset:0;stroke-opacity:1;visibility:visible;display:inline;overflow:visible;enable-background:accumulate"/>
<path d="M 14.2,38.75 C 14.36,38.79 14.52,38.79 14.67,38.75 C 15.29,38.6 15.53,37.81 15.22,37.01 C 15.06,36.57 14.85,36.21 14.57,35.95 L 11.88,33.64 C 11.77,33.52 11.65,33.42 11.53,33.32 C 11.03,32.91 10.47,32.71 9.95,32.84 C 9.02,33.07 8.65,34.25 9.12,35.47 C 9.41,36.25 9.98,36.84 10.58,37.12 L 10.58,37.13 C 10.7,37.18 14.01,38.68 14.14,38.73 C 14.15,38.73 14.16,38.73 14.17,38.74 C 14.18,38.74 14.19,38.74 14.2,38.75 L 14.2,38.75 z" id="p3881-5-2-4" style="fill:none;fill-opacity:1;fill-rule:nonzero;stroke:#5e4721;stroke-width:0.23;stroke-linecap:butt;stroke-linejoin:miter;marker:none;stroke-miterlimit:4;stroke-dasharray:none;stroke-dashoffset:0;stroke-opacity:1;visibility:visible;display:inline;overflow:visible;enable-background:accumulate"/>
<path d="M 12.61,31.59 C 12.54,31.6 12.48,31.61 12.41,31.63 C 10.86,32.31 10.78,32.41 9.63,32.97 C 9.54,33.02 9.45,33.09 9.37,33.17 C 9.21,33.33 9.09,33.54 9.01,33.78 C 8.86,34.25 8.87,34.85 9.11,35.46 C 9.4,36.24 9.97,36.85 10.58,37.12 L 10.58,37.14 C 10.7,37.18 14.01,38.68 14.13,38.73 C 14.14,38.73 14.15,38.73 14.16,38.73 C 14.18,38.73 14.19,38.74 14.2,38.75 C 14.36,38.79 14.52,38.79 14.67,38.75 C 15.6,38.35 16.62,37.79 17.12,37.53 C 17.74,37.38 17.98,36.6 17.67,35.79 C 17.51,35.36 17.31,35 17.03,34.74 L 14.33,32.43 C 14.22,32.3 14.11,32.2 13.99,32.1 C 13.56,31.75 13.07,31.55 12.61,31.59 z" id="p3881-5-2-4-3-0" style="fill:none;fill-opacity:1;fill-rule:nonzero;stroke:#5e4721;stroke-width:0.38;stroke-linecap:butt;stroke-linejoin:miter;marker:none;stroke-miterlimit:4;stroke-dasharray:none;stroke-dashoffset:0;stroke-opacity:1;visibility:visible;display:inline;overflow:visible;enable-background:accumulate"/>
<path d="M 10.64,33.59 C 10.63,33.59 10.61,33.59 10.6,33.6 C 10.38,33.69 10.24,33.76 9.99,33.9 C 9.59,34.15 9.61,34.8 10.01,35.37 C 10.4,35.93 11.04,36.19 11.45,35.94 C 11.7,35.78 11.84,35.76 12.04,35.64 C 12.34,35.45 12.41,35.02 12.24,34.57" id="p3881-7-2-2-4" style="fill:none;fill-opacity:1;fill-rule:nonzero;stroke:#5e4721;stroke-width:0.23;stroke-linecap:butt;stroke-linejoin:miter;marker:none;stroke-miterlimit:4;stroke-dasharray:none;stroke-dashoffset:0;stroke-opacity:1;visibility:visible;display:inline;overflow:visible;enable-background:accumulate"/>
<path d="M 13.29,35.49 C 13.26,35.48 13.22,35.47 13.18,35.47 C 13.1,35.47 13.02,35.49 12.96,35.54 C 12.83,35.59 12.73,35.67 12.62,35.73 C 12.35,35.9 12.35,36.35 12.62,36.75 C 12.9,37.13 13.35,37.31 13.62,37.14 C 13.75,37.1 13.83,37.01 13.94,36.94 C 14.16,36.81 14.21,36.49 14.07,36.17" id="p3881-7-2-6-3-8" style="fill:none;fill-opacity:1;fill-rule:nonzero;stroke:#5e4721;stroke-width:0.23;stroke-linecap:butt;stroke-linejoin:miter;marker:none;stroke-miterlimit:4;stroke-dasharray:none;stroke-dashoffset:0;stroke-opacity:1;visibility:visible;display:inline;overflow:visible;enable-background:accumulate"/>
<path d="M 13.75,38.28 C 13.89,38.33 14.03,38.35 14.18,38.35 C 14.74,38.33 15.02,37.82 14.81,37.21 C 14.69,36.88 14.54,36.6 14.3,36.38 L 12.04,34.38 C 11.95,34.29 11.84,34.2 11.74,34.11 C 11.32,33.75 10.83,33.53 10.35,33.55 C 9.48,33.58 9.06,34.35 9.38,35.27 C 9.59,35.85 10.06,36.35 10.59,36.63 L 10.58,36.64 C 10.7,36.68 13.58,38.21 13.69,38.26 C 13.7,38.26 13.71,38.26 13.72,38.27 C 13.73,38.27 13.74,38.27 13.75,38.28 L 13.75,38.28 z" id="p3881-5-2-4-6-5" style="fill:none;fill-opacity:1;fill-rule:nonzero;stroke:#5e4721;stroke-width:0.23;stroke-linecap:butt;stroke-linejoin:miter;marker:none;stroke-miterlimit:4;stroke-dasharray:none;stroke-dashoffset:0;stroke-opacity:1;visibility:visible;display:inline;overflow:visible;enable-background:accumulate"/>
</g>
<use transform="translate(13.31,6.79)" id="use2543" x="0" y="0" width="48" height="132" xlink:href="#g2538"/>
<use transform="translate(0,45.73)" id="use2553" x="0" y="0" width="48" height="132" xlink:href="#g2538"/>
<use transform="translate(13.31,52.40)" id="use2555" x="0" y="0" width="48" height="132" xlink:href="#g2538"/>
<use transform="translate(13.59,52.40)" id="use2517" x="0" y="0" width="48" height="132" xlink:href="#g2496"/>
<g id="g2432">
<path d="M 6.21,49.31 C 5.81,49.31 5.5,49.63 5.5,50.03 L 5.5,60.15 C 5.5,60.55 5.81,60.87 6.21,60.87 L 16.34,60.87 C 16.74,60.87 17.06,60.55 17.06,60.15 L 17.06,50.03 C 17.06,49.63 16.74,49.31 16.34,49.31 L 6.21,49.31 z" id="r2393" style="fill:#fad993;fill-opacity:1;fill-rule:evenodd;stroke:#b68422;stroke-width:2.01;stroke-linecap:round;stroke-linejoin:miter;marker:none;stroke-miterlimit:4;stroke-dasharray:none;stroke-dashoffset:0;stroke-opacity:1;visibility:visible;display:inline;overflow:visible;enable-background:accumulate"/>
<path d="M 11.27,60.55 C 11.09,60.55 10.9,60.48 10.75,60.34 L 6.05,55.63 C 5.77,55.35 5.77,54.9 6.05,54.61 L 6.12,54.55 L 8.96,54.55 L 8.96,50.56 C 8.96,50.15 9.28,49.83 9.68,49.83 L 12.86,49.83 C 13.26,49.83 13.59,50.15 13.59,50.56 L 13.59,54.55 L 16.42,54.55 L 16.49,54.61 C 16.77,54.9 16.77,55.35 16.49,55.63 L 11.79,60.34 C 11.64,60.48 11.45,60.55 11.27,60.55 z" id="r3165" style="fill:#5e4721;fill-opacity:1;fill-rule:evenodd;stroke:none;marker:none;visibility:visible;display:inline;overflow:visible;enable-background:accumulate"/>
</g>
<path d="M 19.4,53.51 C 19.37,53.53 17.08,51.47 17.05,51.46 C 17.01,51.45 14.14,52.58 14.12,52.56 C 14.1,52.54 15.35,49.72 15.35,49.69 C 15.34,49.66 13.38,47.28 13.4,47.25 C 13.41,47.22 16.48,47.54 16.51,47.53 C 16.54,47.51 18.19,44.91 18.23,44.92 C 18.26,44.92 18.9,47.94 18.92,47.96 C 18.94,47.99 21.93,48.76 21.93,48.79 C 21.94,48.82 19.27,50.37 19.25,50.39 C 19.24,50.42 19.43,53.5 19.4,53.51 z" id="p3208" style="opacity:1;fill:#d3bc5f;fill-opacity:1;fill-rule:nonzero;stroke:#5e4721;stroke-width:0.30;stroke-linecap:butt;stroke-linejoin:bevel;marker:none;stroke-miterlimit:4;stroke-dasharray:none;stroke-dashoffset:0;stroke-opacity:1;visibility:visible;display:inline;overflow:visible;enable-background:accumulate"/>
<path d="M 15.89,48.47 L 17.02,48.66 L 17.21,47.52 L 18.17,47.68 L 17.98,48.82 L 19.12,49.01 L 18.96,49.97 L 17.82,49.78 L 17.62,50.91 L 16.67,50.75 L 16.86,49.62 L 15.73,49.43 L 15.89,48.47" id="text3210" style="font-size:6.15px;font-style:normal;font-variant:normal;font-weight:normal;font-stretch:normal;fill:#5e4721;fill-opacity:1;stroke:none;font-family:Arial Black;-inkscape-font-specification:Arial Black"/>
</svg>
