<?xml version="1.0" encoding="UTF-8" standalone="no"?>
<!-- Created with Inkscape (http://www.inkscape.org/) -->
<svg
   xmlns:svg="http://www.w3.org/2000/svg"
   xmlns="http://www.w3.org/2000/svg"
   version="1.0"
   width="100%"
   height="100%"
   viewBox="0 0 48 48"
   id="ontology">
  <defs
     id="defs2385" />
  <path
     d="M 12.5,3.5625 C 12.426982,3.5625002 10.059073,10.394582 10,10.4375 C 9.9409274,10.480419 2.7413137,10.586806 2.71875,10.65625 C 2.6961863,10.725695 8.446186,15.055555 8.46875,15.125 C 8.4913131,15.194443 6.4096773,22.113332 6.46875,22.15625 C 6.495354,22.175579 7.732504,21.298449 9.0625,20.375 C 9.0497613,20.349212 9.0313784,20.250589 9.03125,20.25 C 9.0311216,20.249411 9.0311204,20.000399 9.03125,20 C 9.0313796,19.999601 9.1870497,19.78165 9.1875,19.78125 C 9.1879503,19.78085 9.255709,19.700862 9.28125,19.6875 C 9.332332,19.660776 9.353423,19.662507 9.375,19.65625 C 9.4181539,19.643735 9.4470329,19.628404 9.46875,19.625 C 9.5121843,19.618192 9.5480435,19.628898 9.59375,19.625 C 9.6851631,19.617204 9.7880472,19.600984 9.9375,19.59375 C 10.006433,19.590413 10.137495,19.596052 10.21875,19.59375 C 11.277607,18.857726 12.472466,18.03125 12.5,18.03125 C 12.525547,18.03125 13.67273,18.8072 14.625,19.46875 C 14.703989,19.466953 14.764856,19.470521 14.84375,19.46875 C 15.901447,19.445002 16.858932,19.429901 17.75,19.40625 C 17.167545,17.438402 16.486943,15.165188 16.5,15.125 C 16.522564,15.055555 22.303814,10.725693 22.28125,10.65625 C 22.258686,10.586805 15.027823,10.480419 14.96875,10.4375 C 14.909677,10.394582 12.573018,3.5624999 12.5,3.5625 z"
     id="path2410"
     style="fill:#30251c;fill-opacity:1;fill-rule:evenodd;stroke:none;stroke-width:2.5;stroke-linecap:round;stroke-linejoin:round;marker:none;marker-start:none;marker-mid:none;marker-end:none;stroke-miterlimit:4;stroke-dasharray:none;stroke-dashoffset:0;stroke-opacity:1;visibility:visible;display:inline;overflow:visible;enable-background:accumulate" />
  <path
     d="M 35.375,3.5625 C 35.301983,3.5625002 32.934073,10.394582 32.875,10.4375 C 32.815929,10.480419 25.616314,10.586806 25.59375,10.65625 C 25.571188,10.725695 31.321186,15.055555 31.34375,15.125 C 31.356807,15.165187 30.698637,17.438402 30.125,19.40625 C 31.000307,19.429371 31.918193,19.445962 32.9375,19.46875 C 33.051659,19.471302 33.136346,19.466146 33.25,19.46875 C 34.20227,18.807199 35.349453,18.03125 35.375,18.03125 C 35.402534,18.03125 36.597393,18.857726 37.65625,19.59375 C 37.698442,19.59524 37.774046,19.591897 37.8125,19.59375 C 37.962568,19.600983 38.095799,19.617212 38.1875,19.625 C 38.233351,19.628894 38.26906,19.618219 38.3125,19.625 C 38.33422,19.62839 38.363172,19.643806 38.40625,19.65625 C 38.427789,19.662472 38.448939,19.660883 38.5,19.6875 C 38.52553,19.700808 38.593298,19.78085 38.59375,19.78125 C 38.594202,19.78165 38.74987,19.999601 38.75,20 C 38.75013,20.000399 38.75013,20.249411 38.75,20.25 C 38.749931,20.250312 38.725493,20.282589 38.71875,20.3125 C 40.087595,21.263224 41.378978,22.176064 41.40625,22.15625 C 41.465324,22.113332 39.352437,15.194445 39.375,15.125 C 39.397567,15.055555 45.178814,10.725693 45.15625,10.65625 C 45.133687,10.586805 37.902823,10.480419 37.84375,10.4375 C 37.784679,10.394582 35.448018,3.5624999 35.375,3.5625 z"
     id="path2414"
     style="fill:#30251c;fill-opacity:1;fill-rule:evenodd;stroke:none;stroke-width:2.5;stroke-linecap:round;stroke-linejoin:round;marker:none;marker-start:none;marker-mid:none;marker-end:none;stroke-miterlimit:4;stroke-dasharray:none;stroke-dashoffset:0;stroke-opacity:1;visibility:visible;display:inline;overflow:visible;enable-background:accumulate" />
  <path
     d="M 12.5,24.25 C 12.426982,24.25 10.059073,31.082081 10,31.125 C 9.9409274,31.167919 2.7413137,31.274306 2.71875,31.34375 C 2.6961863,31.413194 8.446186,35.743055 8.46875,35.8125 C 8.4913131,35.881941 6.4096773,42.800832 6.46875,42.84375 C 6.5278223,42.886668 12.426982,38.71875 12.5,38.71875 C 12.573018,38.718748 18.472178,42.886668 18.53125,42.84375 C 18.58424,42.80525 17.051976,37.728149 16.71875,36.53125 C 16.304087,36.814851 15.938289,37.053872 15.6875,37.21875 C 15.562106,37.301189 15.484883,37.358584 15.40625,37.40625 C 15.366933,37.430083 15.320369,37.448647 15.28125,37.46875 C 15.26169,37.478802 15.260967,37.515931 15.21875,37.53125 C 15.197641,37.538909 15.150802,37.522722 15.09375,37.53125 C 15.065224,37.535514 14.96935,37.531308 14.96875,37.53125 C 14.96815,37.531192 14.719089,37.437746 14.71875,37.4375 C 14.718411,37.437254 14.562744,37.250554 14.5625,37.25 C 14.562256,37.249446 14.536128,37.15318 14.53125,37.125 C 14.521493,37.068641 14.530655,37.053564 14.53125,37.03125 C 14.53244,36.986622 14.527917,36.959189 14.53125,36.9375 C 14.537916,36.894121 14.552358,36.857353 14.5625,36.8125 C 14.582785,36.722794 14.617816,36.61389 14.65625,36.46875 C 14.733118,36.17847 14.831271,35.764667 14.96875,35.28125 C 15.243708,34.314415 15.624897,33.032019 16,31.75 C 16.063474,31.533061 16.124456,31.371654 16.1875,31.15625 C 15.845796,31.146036 14.978595,31.132153 14.96875,31.125 C 14.909677,31.082082 12.573018,24.25 12.5,24.25 z"
     id="path2406"
     style="fill:#30251c;fill-opacity:1;fill-rule:evenodd;stroke:none;stroke-width:2.5;stroke-linecap:round;stroke-linejoin:round;marker:none;marker-start:none;marker-mid:none;marker-end:none;stroke-miterlimit:4;stroke-dasharray:none;stroke-dashoffset:0;stroke-opacity:1;visibility:visible;display:inline;overflow:visible;enable-background:accumulate" />
  <path
     d="M 35.375,24.25 C 35.301983,24.25 32.934073,31.082081 32.875,31.125 C 32.864398,31.132703 31.950356,31.145039 31.5625,31.15625 C 31.625757,31.371654 31.685555,31.533062 31.75,31.75 C 32.130846,33.032017 32.533223,34.314419 32.8125,35.28125 C 32.952138,35.764665 33.04685,36.178474 33.125,36.46875 C 33.164075,36.613888 33.198079,36.722796 33.21875,36.8125 C 33.229086,36.857352 33.243152,36.894103 33.25,36.9375 C 33.253424,36.959198 33.248638,36.98653 33.25,37.03125 C 33.250681,37.05361 33.259615,37.068404 33.25,37.125 C 33.245193,37.153298 33.218992,37.249446 33.21875,37.25 C 33.218508,37.250554 33.062839,37.437254 33.0625,37.4375 C 33.062161,37.437746 32.8131,37.531192 32.8125,37.53125 C 32.8119,37.531308 32.716025,37.535514 32.6875,37.53125 C 32.63045,37.522722 32.583608,37.538909 32.5625,37.53125 C 32.520284,37.515931 32.519559,37.478801 32.5,37.46875 C 32.460881,37.448647 32.414316,37.430083 32.375,37.40625 C 32.296367,37.358584 32.219144,37.301189 32.09375,37.21875 C 31.856991,37.063095 31.511108,36.825439 31.125,36.5625 C 30.785633,37.795687 29.291016,42.805438 29.34375,42.84375 C 29.402822,42.886668 35.301982,38.71875 35.375,38.71875 C 35.448019,38.718748 41.347178,42.886668 41.40625,42.84375 C 41.465324,42.800831 39.352437,35.881944 39.375,35.8125 C 39.397567,35.743052 45.178814,31.413193 45.15625,31.34375 C 45.133687,31.274305 37.902823,31.167919 37.84375,31.125 C 37.784679,31.082082 35.448018,24.25 35.375,24.25 z"
     id="path2418"
     style="fill:#30251c;fill-opacity:1;fill-rule:evenodd;stroke:none;stroke-width:2.5;stroke-linecap:round;stroke-linejoin:round;marker:none;marker-start:none;marker-mid:none;marker-end:none;stroke-miterlimit:4;stroke-dasharray:none;stroke-dashoffset:0;stroke-opacity:1;visibility:visible;display:inline;overflow:visible;enable-background:accumulate" />
  <path
     d="M 23.875,11.09375 C 23.825851,11.227456 23.805113,11.317208 23.75,11.46875 C 23.408212,12.408558 22.9784,13.647164 22.53125,14.90625 C 22.0841,16.165336 21.621993,17.423112 21.28125,18.375 C 21.110879,18.850944 20.979918,19.247296 20.875,19.53125 C 20.822541,19.673227 20.782765,19.791684 20.75,19.875 C 20.733617,19.916658 20.70145,19.96816 20.6875,20 C 20.680525,20.01592 20.667946,20.008618 20.65625,20.03125 C 20.650402,20.042566 20.639573,20.07099 20.625,20.09375 C 20.617714,20.10513 20.610384,20.104327 20.59375,20.125 C 20.577116,20.145673 20.500339,20.218504 20.5,20.21875 C 20.499661,20.218996 20.399996,20.271784 20.375,20.28125 C 20.350004,20.290716 20.35694,20.309089 20.34375,20.3125 C 20.31737,20.319322 20.293909,20.310462 20.28125,20.3125 C 20.255933,20.316576 20.23607,20.310851 20.21875,20.3125 C 20.18411,20.315798 20.138309,20.34124 20.09375,20.34375 C 20.004632,20.348771 19.900659,20.33843 19.75,20.34375 C 19.448681,20.354389 19.034503,20.362416 18.53125,20.375 C 17.524744,20.400168 16.173913,20.438884 14.84375,20.46875 C 13.513587,20.498616 12.182804,20.532585 11.1875,20.5625 C 11.030456,20.56722 10.951641,20.557847 10.8125,20.5625 C 10.927341,20.652422 10.994004,20.710688 11.125,20.8125 C 11.910975,21.423371 12.9749,22.22304 14.03125,23.03125 C 15.0876,23.83946 16.139684,24.636381 16.9375,25.25 C 17.336408,25.55681 17.669231,25.813802 17.90625,26 C 18.02476,26.093099 18.11851,26.19343 18.1875,26.25 C 18.221995,26.278285 18.255245,26.289446 18.28125,26.3125 C 18.294252,26.324027 18.294498,26.325588 18.3125,26.34375 C 18.321501,26.352831 18.326513,26.385276 18.34375,26.40625 C 18.352368,26.416737 18.360424,26.415224 18.375,26.4375 C 18.389576,26.459776 18.43737,26.562101 18.4375,26.5625 C 18.43763,26.562899 18.46742,26.661113 18.46875,26.6875 C 18.47008,26.713887 18.46952,26.736561 18.46875,26.75 C 18.467211,26.776879 18.47064,26.79994 18.46875,26.8125 C 18.46497,26.83762 18.441172,26.826788 18.4375,26.84375 C 18.430156,26.877674 18.417373,26.925428 18.40625,26.96875 C 18.384005,27.055395 18.353135,27.166812 18.3125,27.3125 C 18.23123,27.603876 18.140644,28.014827 18,28.5 C 17.718712,29.470345 17.343675,30.749838 16.96875,32.03125 C 16.593825,33.312662 16.210853,34.601312 15.9375,35.5625 C 15.893399,35.717573 15.882234,35.800383 15.84375,35.9375 C 15.960296,35.858373 16.024842,35.808624 16.15625,35.71875 C 16.980716,35.154872 18.060361,34.386761 19.15625,33.625 C 20.252139,32.863239 21.356772,32.105554 22.1875,31.53125 C 22.602864,31.244098 22.936996,31.013148 23.1875,30.84375 C 23.312752,30.759051 23.42483,30.673566 23.5,30.625 C 23.537585,30.600717 23.563763,30.580271 23.59375,30.5625 C 23.608744,30.553615 23.633364,30.542882 23.65625,30.53125 C 23.667693,30.525434 23.662115,30.541292 23.6875,30.53125 C 23.700193,30.526229 23.724143,30.507086 23.75,30.5 C 23.775857,30.492914 23.874581,30.5 23.875,30.5 C 23.875419,30.5 24.005393,30.492914 24.03125,30.5 C 24.057107,30.507086 24.049807,30.526229 24.0625,30.53125 C 24.087885,30.541292 24.113557,30.525434 24.125,30.53125 C 24.147887,30.542882 24.172506,30.553614 24.1875,30.5625 C 24.217487,30.580271 24.243665,30.600717 24.28125,30.625 C 24.35642,30.673566 24.468498,30.759051 24.59375,30.84375 C 24.844254,31.013148 25.178386,31.244098 25.59375,31.53125 C 26.424478,32.105554 27.529111,32.863239 28.625,33.625 C 29.720889,34.386761 30.800534,35.154872 31.625,35.71875 C 31.756408,35.808624 31.820954,35.858373 31.9375,35.9375 C 31.898405,35.800382 31.888544,35.717573 31.84375,35.5625 C 31.566102,34.601309 31.193167,33.312664 30.8125,32.03125 C 30.431833,30.749836 30.035603,29.470352 29.75,28.5 C 29.607198,28.014824 29.488795,27.60389 29.40625,27.3125 C 29.364978,27.166805 29.335116,27.055422 29.3125,26.96875 C 29.301192,26.925414 29.288739,26.87773 29.28125,26.84375 C 29.277506,26.82676 29.285133,26.837727 29.28125,26.8125 C 29.279309,26.799887 29.282873,26.777046 29.28125,26.75 C 29.280438,26.736477 29.279963,26.714079 29.28125,26.6875 C 29.282537,26.660921 29.28112,26.562899 29.28125,26.5625 C 29.28138,26.562101 29.329066,26.459859 29.34375,26.4375 C 29.358434,26.415141 29.366329,26.385505 29.375,26.375 C 29.392342,26.353991 29.428456,26.352831 29.4375,26.34375 C 29.455589,26.325589 29.455688,26.324021 29.46875,26.3125 C 29.494875,26.289457 29.527829,26.27828 29.5625,26.25 C 29.631842,26.19344 29.724608,26.093096 29.84375,26 C 30.082033,25.813807 30.411437,25.556809 30.8125,25.25 C 31.614627,24.636383 32.687907,23.839462 33.75,23.03125 C 34.812093,22.223038 35.865967,21.423382 36.65625,20.8125 C 36.787964,20.710686 36.853278,20.652425 36.96875,20.5625 C 36.82238,20.557594 36.728994,20.567483 36.5625,20.5625 C 35.562877,20.532584 34.242157,20.498616 32.90625,20.46875 C 31.570343,20.438884 30.229556,20.400168 29.21875,20.375 C 28.713347,20.362416 28.302561,20.354388 28,20.34375 C 27.84872,20.338431 27.714429,20.348768 27.625,20.34375 C 27.580286,20.341241 27.534689,20.31579 27.5,20.3125 C 27.482655,20.310855 27.462797,20.316559 27.4375,20.3125 C 27.424851,20.31047 27.432617,20.3193 27.40625,20.3125 C 27.393066,20.3091 27.368771,20.290705 27.34375,20.28125 C 27.318729,20.271795 27.219089,20.218996 27.21875,20.21875 C 27.218411,20.218504 27.141713,20.145838 27.125,20.125 C 27.108287,20.104162 27.101059,20.105224 27.09375,20.09375 C 27.079132,20.070802 27.068344,20.042643 27.0625,20.03125 C 27.050812,20.008464 27.03818,20.015969 27.03125,20 C 27.01739,19.968061 27.016212,19.916686 27,19.875 C 26.967577,19.791628 26.926829,19.673242 26.875,19.53125 C 26.771342,19.247267 26.636967,18.850951 26.46875,18.375 C 26.132316,17.423098 25.691409,16.165337 25.25,14.90625 C 24.808591,13.647163 24.36874,12.408546 24.03125,11.46875 C 23.975828,11.314419 23.924311,11.229553 23.875,11.09375 z"
     id="path3286"
     style="opacity:1;fill:#30251c;fill-opacity:1;fill-rule:evenodd;stroke:none;stroke-width:2.5;stroke-linecap:round;stroke-linejoin:round;marker:none;marker-start:none;marker-mid:none;marker-end:none;stroke-miterlimit:4;stroke-dasharray:none;stroke-dashoffset:0;stroke-opacity:1;visibility:visible;display:inline;overflow:visible;enable-background:accumulate" />
</svg>
