<?xml version="1.0" encoding="UTF-8" standalone="no"?>
<!-- Created with Inkscape (http://www.inkscape.org/) -->
<svg
   xmlns:svg="http://www.w3.org/2000/svg"
   xmlns="http://www.w3.org/2000/svg"
   version="1.0"
   width="100%"
   height="100%"
   viewBox="0 0 48 48"
   id="svg2383">
  <defs
     id="defs2385" />
  <g
     id="layer1">
    <path
       d="M 40.285715,23.285715 A 17.285715,17.285715 0 1 1 5.7142849,23.285715 A 17.285715,17.285715 0 1 1 40.285715,23.285715 z"
       transform="matrix(1.3719008,0,0,1.3719008,-7.4108615,-7.9456906)"
       id="path2393"
       style="opacity:1;fill:#ffffff;fill-opacity:1;fill-rule:evenodd;stroke:none;stroke-width:10;stroke-linecap:butt;stroke-linejoin:round;marker:none;marker-start:none;marker-mid:none;marker-end:none;stroke-miterlimit:4;stroke-dasharray:none;stroke-dashoffset:0;stroke-opacity:1;visibility:visible;display:inline;overflow:visible;enable-background:accumulate" />
    <path
       d="M 40.285715,23.285715 A 17.285715,17.285715 0 1 1 5.7142849,23.285715 A 17.285715,17.285715 0 1 1 40.285715,23.285715 z"
       transform="matrix(1.1652893,0,0,1.1652893,-2.6587957,-3.1345926)"
       id="path3165"
       style="opacity:1;fill:#deaa87;fill-opacity:1;fill-rule:evenodd;stroke:none;stroke-width:10;stroke-linecap:butt;stroke-linejoin:round;marker:none;marker-start:none;marker-mid:none;marker-end:none;stroke-miterlimit:4;stroke-dasharray:none;stroke-dashoffset:0;stroke-opacity:1;visibility:visible;display:inline;overflow:visible;enable-background:accumulate" />
    <path
       d="M 24.15625,3.84375 C 20.00201,3.84375 16.114248,5.1232684 12.90625,7.28125 C 13.982783,12.133711 19.234489,17.233509 26.59375,19.90625 C 33.180014,22.298253 39.748695,22.138558 43.875,19.90625 C 41.984122,10.745262 33.874586,3.84375 24.15625,3.84375 z"
       id="path3177"
       style="opacity:1;fill:#f7e8de;fill-opacity:0.56818183;fill-rule:evenodd;stroke:none;stroke-width:4;stroke-linecap:butt;stroke-linejoin:round;marker:none;marker-start:none;marker-mid:none;marker-end:none;stroke-miterlimit:4;stroke-dasharray:none;stroke-dashoffset:0;stroke-opacity:1;visibility:visible;display:inline;overflow:visible;enable-background:accumulate" />
    <path
       d="M 10.277347,13.241134 C 8.3286406,15.245412 8.4496833,18.271096 8.611184,20.860772 C 9.0263811,25.051389 8.699003,29.392768 10.053233,33.434764 C 10.957776,34.727043 12.853622,33.722397 13.088289,32.39266 C 13.895032,30.128282 13.307146,27.662062 12.689,25.427024 C 12.439643,24.025511 11.169584,24.888423 11.428715,25.956165 C 11.683504,27.073915 10.516925,28.31954 10.388519,26.606638 C 9.9489757,24.494515 10.064885,22.294115 10.333452,20.169395 C 10.666181,18.691749 11.281201,19.943061 11.738742,20.630541 C 12.970276,21.216045 12.699107,18.734151 12.84266,17.955599 C 12.843681,16.295928 12.515705,14.377777 11.104615,13.323356 C 10.859136,13.177443 10.547038,13.135509 10.277347,13.241134 z M 21.475363,13.529632 C 19.872221,14.763805 20.207889,17.047338 19.17059,18.628805 C 18.304459,20.076719 18.208011,21.769768 18.301186,23.409885 C 18.279962,26.306193 18.23491,29.351609 19.59372,31.995304 C 19.758094,33.320259 21.992881,35.860772 22.395856,33.374201 C 22.654837,29.161709 22.4779,24.893195 23.27849,20.727711 C 23.603209,18.822263 23.593891,16.856991 23.291319,14.953251 C 23.121557,14.168482 22.330818,13.314921 21.475363,13.529632 z M 15.255742,13.64503 C 13.61121,15.034211 13.823841,17.385841 13.391604,19.300322 C 12.894679,22.130179 12.83421,25.061436 13.593347,27.851627 C 14.010236,29.90289 14.298327,32.138243 15.673913,33.804824 C 17.064424,35.134057 18.584988,33.377305 18.20297,31.868519 C 18.270159,29.650646 17.872178,27.446584 17.969595,25.226805 C 17.86229,21.746883 18.710916,18.165299 17.623208,14.768776 C 17.24003,13.890274 16.179759,13.379705 15.255742,13.64503 z M 36.478004,13.760429 C 35.135499,15.173914 35.681175,17.268596 35.716512,19.011512 C 35.897506,21.128031 36.360566,23.284906 37.522133,25.094812 C 38.708285,25.70456 38.847474,28.049235 37.638397,28.56164 C 37.080575,27.935267 36.427787,25.281313 35.707215,27.249273 C 35.127335,28.885804 35.408251,30.665008 35.629847,32.336657 C 35.79586,34.061143 38.081801,34.596254 38.408527,32.692632 C 39.031806,31.089324 39.386592,29.395505 39.994282,27.786515 C 40.541515,25.879766 40.435939,23.595885 38.979636,22.105337 C 37.881082,20.785299 36.915484,19.143039 37.157062,17.363446 C 38.257151,16.819807 37.985371,19.830306 38.981409,19.239432 C 39.350315,17.471555 38.612025,15.662564 37.740632,14.146967 C 37.453132,13.778874 36.924164,13.589553 36.478004,13.760429 z M 24.551443,14.106625 C 24.65743,18.031252 23.740062,21.882448 23.607534,25.793769 C 23.448493,28.404289 23.218515,31.139373 24.121735,33.641546 C 25.09401,34.642937 25.039432,32.338143 25.04976,31.697087 C 24.975006,29.797836 24.764721,27.862673 25.132204,25.984422 C 25.63923,24.606889 26.097194,27.015948 25.89016,27.619157 C 26.074913,29.554135 25.79466,31.708552 26.955025,33.398083 C 28.500225,33.700636 27.840006,31.133295 27.910157,30.169097 C 27.6601,26.602882 26.414175,23.01332 27.342354,19.444862 C 27.696174,17.625244 28.163779,15.801422 28.113222,13.933528 C 26.165649,13.598072 26.480369,16.27641 26.110958,17.506961 C 25.915561,18.465007 25.451933,20.53704 25.265654,20.754674 C 25.396354,18.500191 25.527054,16.245709 25.657754,13.991226 C 25.400778,13.813391 24.33881,13.417632 24.551443,14.106625 z M 30.973438,14.048926 C 30.905981,20.299691 30.838522,26.550455 30.771065,32.801219 C 31.846137,33.429013 33.593024,33.20894 34.52762,33.218398 C 34.716721,31.565734 34.565075,29.892684 34.791556,28.242969 C 33.62365,27.991843 31.678654,27.906761 32.419783,26.171103 C 32.306264,25.077732 33.270247,24.095989 34.219188,25.038511 C 35.870348,25.523058 34.806424,23.134872 35.021695,22.234536 C 34.728447,20.926473 32.398913,22.103269 32.588141,20.324544 C 32.67299,19.257307 32.007598,17.453828 33.741853,17.693446 C 35.544512,17.67651 34.246638,15.514748 34.517964,14.431899 C 34.022276,13.171324 32.025183,14.345082 30.973438,14.048926 z M 29.759195,13.991226 C 27.861917,13.937262 29.198624,16.559595 28.756088,17.699566 C 28.676715,22.714217 28.597345,27.728869 28.517969,32.74352 C 29.721811,33.989948 30.175876,31.866077 29.911986,30.943699 C 30.099257,25.335292 30.65673,19.698988 29.961125,14.103083 C 29.990346,14.022152 29.811496,13.840324 29.759195,13.991226 z M 15.660489,19.126471 C 16.448249,20.737222 16.237351,22.598922 16.380759,24.339992 C 16.417668,25.60854 16.395441,26.908404 15.984251,28.122726 C 14.672852,27.423915 15.182905,25.444018 14.772109,24.192261 C 14.671647,22.505919 14.658979,20.670107 15.476984,19.154294 L 15.566074,19.113107 L 15.660489,19.126471 L 15.660489,19.126471 z M 21.070616,20.165058 C 21.833365,21.815152 21.314863,23.698368 21.237091,25.434531 C 21.033199,26.217295 21.19352,28.209416 20.386608,28.165289 C 19.687762,26.807199 20.04593,25.137956 19.878648,23.652679 C 20.004375,22.574587 19.767169,20.557371 21.070616,20.165058 z"
       id="path3175"
       style="font-size:13.99222374px;font-style:normal;font-variant:normal;font-weight:normal;font-stretch:normal;text-align:start;line-height:80.00000119%;writing-mode:lr-tb;text-anchor:start;fill:none;fill-opacity:1;stroke:#ffffff;stroke-width:4;stroke-linecap:butt;stroke-linejoin:round;stroke-miterlimit:4;stroke-dasharray:none;stroke-opacity:1;font-family:Arial Black;-inkscape-font-specification:Arial Black" />
    <path
       d="M 10.277347,13.241134 C 8.3286406,15.245412 8.4496833,18.271096 8.611184,20.860772 C 9.0263811,25.051389 8.699003,29.392768 10.053233,33.434764 C 10.957776,34.727043 12.853622,33.722397 13.088289,32.39266 C 13.895032,30.128282 13.307146,27.662062 12.689,25.427024 C 12.439643,24.025511 11.169584,24.888423 11.428715,25.956165 C 11.683504,27.073915 10.516925,28.31954 10.388519,26.606638 C 9.9489757,24.494515 10.064885,22.294115 10.333452,20.169395 C 10.666181,18.691749 11.281201,19.943061 11.738742,20.630541 C 12.970276,21.216045 12.699107,18.734151 12.84266,17.955599 C 12.843681,16.295928 12.515705,14.377777 11.104615,13.323356 C 10.859136,13.177443 10.547038,13.135509 10.277347,13.241134 z M 21.475363,13.529632 C 19.872221,14.763805 20.207889,17.047338 19.17059,18.628805 C 18.304459,20.076719 18.208011,21.769768 18.301186,23.409885 C 18.279962,26.306193 18.23491,29.351609 19.59372,31.995304 C 19.758094,33.320259 21.992881,35.860772 22.395856,33.374201 C 22.654837,29.161709 22.4779,24.893195 23.27849,20.727711 C 23.603209,18.822263 23.593891,16.856991 23.291319,14.953251 C 23.121557,14.168482 22.330818,13.314921 21.475363,13.529632 z M 15.255742,13.64503 C 13.61121,15.034211 13.823841,17.385841 13.391604,19.300322 C 12.894679,22.130179 12.83421,25.061436 13.593347,27.851627 C 14.010236,29.90289 14.298327,32.138243 15.673913,33.804824 C 17.064424,35.134057 18.584988,33.377305 18.20297,31.868519 C 18.270159,29.650646 17.872178,27.446584 17.969595,25.226805 C 17.86229,21.746883 18.710916,18.165299 17.623208,14.768776 C 17.24003,13.890274 16.179759,13.379705 15.255742,13.64503 z M 36.478004,13.760429 C 35.135499,15.173914 35.681175,17.268596 35.716512,19.011512 C 35.897506,21.128031 36.360566,23.284906 37.522133,25.094812 C 38.708285,25.70456 38.847474,28.049235 37.638397,28.56164 C 37.080575,27.935267 36.427787,25.281313 35.707215,27.249273 C 35.127335,28.885804 35.408251,30.665008 35.629847,32.336657 C 35.79586,34.061143 38.081801,34.596254 38.408527,32.692632 C 39.031806,31.089324 39.386592,29.395505 39.994282,27.786515 C 40.541515,25.879766 40.435939,23.595885 38.979636,22.105337 C 37.881082,20.785299 36.915484,19.143039 37.157062,17.363446 C 38.257151,16.819807 37.985371,19.830306 38.981409,19.239432 C 39.350315,17.471555 38.612025,15.662564 37.740632,14.146967 C 37.453132,13.778874 36.924164,13.589553 36.478004,13.760429 z M 24.551443,14.106625 C 24.65743,18.031252 23.740062,21.882448 23.607534,25.793769 C 23.448493,28.404289 23.218515,31.139373 24.121735,33.641546 C 25.09401,34.642937 25.039432,32.338143 25.04976,31.697087 C 24.975006,29.797836 24.764721,27.862673 25.132204,25.984422 C 25.63923,24.606889 26.097194,27.015948 25.89016,27.619157 C 26.074913,29.554135 25.79466,31.708552 26.955025,33.398083 C 28.500225,33.700636 27.840006,31.133295 27.910157,30.169097 C 27.6601,26.602882 26.414175,23.01332 27.342354,19.444862 C 27.696174,17.625244 28.163779,15.801422 28.113222,13.933528 C 26.165649,13.598072 26.480369,16.27641 26.110958,17.506961 C 25.915561,18.465007 25.451933,20.53704 25.265654,20.754674 C 25.396354,18.500191 25.527054,16.245709 25.657754,13.991226 C 25.400778,13.813391 24.33881,13.417632 24.551443,14.106625 z M 30.973438,14.048926 C 30.905981,20.299691 30.838522,26.550455 30.771065,32.801219 C 31.846137,33.429013 33.593024,33.20894 34.52762,33.218398 C 34.716721,31.565734 34.565075,29.892684 34.791556,28.242969 C 33.62365,27.991843 31.678654,27.906761 32.419783,26.171103 C 32.306264,25.077732 33.270247,24.095989 34.219188,25.038511 C 35.870348,25.523058 34.806424,23.134872 35.021695,22.234536 C 34.728447,20.926473 32.398913,22.103269 32.588141,20.324544 C 32.67299,19.257307 32.007598,17.453828 33.741853,17.693446 C 35.544512,17.67651 34.246638,15.514748 34.517964,14.431899 C 34.022276,13.171324 32.025183,14.345082 30.973438,14.048926 z M 29.759195,13.991226 C 27.861917,13.937262 29.198624,16.559595 28.756088,17.699566 C 28.676715,22.714217 28.597345,27.728869 28.517969,32.74352 C 29.721811,33.989948 30.175876,31.866077 29.911986,30.943699 C 30.099257,25.335292 30.65673,19.698988 29.961125,14.103083 C 29.990346,14.022152 29.811496,13.840324 29.759195,13.991226 z M 15.660489,19.126471 C 16.448249,20.737222 16.237351,22.598922 16.380759,24.339992 C 16.417668,25.60854 16.395441,26.908404 15.984251,28.122726 C 14.672852,27.423915 15.182905,25.444018 14.772109,24.192261 C 14.671647,22.505919 14.658979,20.670107 15.476984,19.154294 L 15.566074,19.113107 L 15.660489,19.126471 L 15.660489,19.126471 z M 21.070616,20.165058 C 21.833365,21.815152 21.314863,23.698368 21.237091,25.434531 C 21.033199,26.217295 21.19352,28.209416 20.386608,28.165289 C 19.687762,26.807199 20.04593,25.137956 19.878648,23.652679 C 20.004375,22.574587 19.767169,20.557371 21.070616,20.165058 z"
       id="text3167"
       style="font-size:13.99222374px;font-style:normal;font-variant:normal;font-weight:normal;font-stretch:normal;text-align:start;line-height:80.00000119%;writing-mode:lr-tb;text-anchor:start;fill:#c87137;fill-opacity:1;stroke:none;stroke-width:1px;stroke-linecap:butt;stroke-linejoin:miter;stroke-opacity:1;font-family:Arial Black;-inkscape-font-specification:Arial Black" />
  </g>
</svg>
