<?xml version="1.0" encoding="UTF-8" standalone="no"?>
<svg xmlns:dc="http://purl.org/dc/elements/1.1/" xmlns:cc="http://creativecommons.org/ns#" xmlns:rdf="http://www.w3.org/1999/02/22-rdf-syntax-ns#" xmlns:svg="http://www.w3.org/2000/svg" xmlns="http://www.w3.org/2000/svg" version="1.1" id="redcarpet01" viewBox="0 0 640 480" height="100%" width="100%" >
<defs id="defs8" />
<rect style="fill:#d14f4e;stroke-width:0.3;stroke-linecap:round;stop-color:#000000" id="rect404" width="640" height="480" x="0" y="0" />
<path id="rect850" style="fill:#d14f4e;stroke-width:0.3;stroke-linecap:round;stop-color:#000000" d="m -92.197,-20.238 40,-24 40,24 v 80 h -40 -40 z" />
<path d="m -52.197,-44.238 40,24 v 80 h -40 z" style="fill:#950000;stroke-width:0.3;stroke-linecap:round;stop-color:#000000" id="path859" />
<path d="m -92.197,-20.238 40,-24 40,24 -40,23.999 z" style="fill:#bd3434;stroke-width:0.3;stroke-linecap:round;stop-color:#000000" id="path853" />
<path d="m -12.197,-20.238 40,-24 40,24 v 80 h -40 -40 z" style="fill:#d14f4e;stroke-width:0.3;stroke-linecap:round;stop-color:#000000" id="path866" />
<path id="path868" style="fill:#950000;stroke-width:0.3;stroke-linecap:round;stop-color:#000000" d="m 27.802,-44.238 40,24 v 80 h -40 z" />
<path id="path870" style="fill:#bd3434;stroke-width:0.3;stroke-linecap:round;stop-color:#000000" d="m -12.197,-20.238 40,-24 40,24 -40,23.999 z" />
<path d="m 67.802,-20.238 40.000,-24 40,24 v 80 h -40 -40.000 z" style="fill:#d14f4e;stroke-width:0.3;stroke-linecap:round;stop-color:#000000" id="path880" />
<path id="path882" style="fill:#950000;stroke-width:0.3;stroke-linecap:round;stop-color:#000000" d="m 107.802,-44.238 40,24 v 80 h -40 z" />
<path id="path884" style="fill:#bd3434;stroke-width:0.3;stroke-linecap:round;stop-color:#000000" d="m 67.802,-20.238 40.000,-24 40,24 -40,23.999 z" />
<path id="path886" style="fill:#d14f4e;stroke-width:0.3;stroke-linecap:round;stop-color:#000000" d="m 147.802,-20.238 40,-24 40,24 v 80 h -40 -40 z" />
<path d="m 187.802,-44.238 40,24 v 80 h -40 z" style="fill:#950000;stroke-width:0.3;stroke-linecap:round;stop-color:#000000" id="path888" />
<path d="m 147.802,-20.238 40,-24 40,24 -40,23.999 z" style="fill:#bd3434;stroke-width:0.3;stroke-linecap:round;stop-color:#000000" id="path890" />
<path d="m 227.802,-20.238 40,-24 40,24 v 80 h -40 -40 z" style="fill:#d14f4e;stroke-width:0.3;stroke-linecap:round;stop-color:#000000" id="path906" />
<path id="path908" style="fill:#950000;stroke-width:0.3;stroke-linecap:round;stop-color:#000000" d="m 267.802,-44.238 40,24 v 80 h -40 z" />
<path id="path910" style="fill:#bd3434;stroke-width:0.3;stroke-linecap:round;stop-color:#000000" d="m 227.802,-20.238 40,-24 40,24 -40,23.999 z" />
<path id="path912" style="fill:#d14f4e;stroke-width:0.3;stroke-linecap:round;stop-color:#000000" d="m 307.802,-20.238 40,-24 40,24 v 80 h -40 -40 z" />
<path d="m 347.802,-44.238 40,24 v 80 h -40 z" style="fill:#950000;stroke-width:0.3;stroke-linecap:round;stop-color:#000000" id="path914" />
<path d="m 307.802,-20.238 40,-24 40,24 -40,23.999 z" style="fill:#bd3434;stroke-width:0.3;stroke-linecap:round;stop-color:#000000" id="path916" />
<path id="path918" style="fill:#d14f4e;stroke-width:0.3;stroke-linecap:round;stop-color:#000000" d="m 387.802,-20.238 40,-24 40,24 v 80 h -40 -40 z" />
<path d="m 427.802,-44.238 40,24 v 80 h -40 z" style="fill:#950000;stroke-width:0.3;stroke-linecap:round;stop-color:#000000" id="path920" />
<path d="m 387.802,-20.238 40,-24 40,24 -40,23.999 z" style="fill:#bd3434;stroke-width:0.3;stroke-linecap:round;stop-color:#000000" id="path922" />
<path d="m 467.802,-20.238 40,-24 40,24 v 80 h -40 -40 z" style="fill:#d14f4e;stroke-width:0.3;stroke-linecap:round;stop-color:#000000" id="path924" />
<path id="path926" style="fill:#950000;stroke-width:0.3;stroke-linecap:round;stop-color:#000000" d="m 507.802,-44.238 40,24 v 80 h -40 z" />
<path id="path928" style="fill:#bd3434;stroke-width:0.3;stroke-linecap:round;stop-color:#000000" d="m 467.802,-20.238 40,-24 40,24 -40,23.999 z" />
<path id="path944" style="fill:#d14f4e;stroke-width:0.3;stroke-linecap:round;stop-color:#000000" d="m 547.802,-20.238 40,-24 40,24 v 80 h -40 -40 z" />
<path d="m 587.802,-44.238 40,24 v 80 h -40 z" style="fill:#950000;stroke-width:0.3;stroke-linecap:round;stop-color:#000000" id="path946" />
<path d="m 547.802,-20.238 40,-24 40,24 -40,23.999 z" style="fill:#bd3434;stroke-width:0.3;stroke-linecap:round;stop-color:#000000" id="path948" />
<path d="m 627.802,-20.238 40,-24 40,24 v 80 h -40 -40 z" style="fill:#d14f4e;stroke-width:0.3;stroke-linecap:round;stop-color:#000000" id="path950" />
<path id="path954" style="fill:#bd3434;stroke-width:0.3;stroke-linecap:round;stop-color:#000000" d="m 627.802,-20.238 40,-24 40,24 -40,23.999 z" />
<path id="path1180" style="fill:#d14f4e;stroke-width:0.3;stroke-linecap:round;stop-color:#000000" d="m -132.197,39.761 39.999,-24 40,24 v 80.000 h -40 -39.999 z" />
<path d="m -92.197,15.761 40,24 v 80.000 h -40 z" style="fill:#950000;stroke-width:0.3;stroke-linecap:round;stop-color:#000000" id="path1182" />
<path d="m -132.197,39.761 39.999,-24 40,24 -40,24 z" style="fill:#bd3434;stroke-width:0.3;stroke-linecap:round;stop-color:#000000" id="path1184" />
<path d="m -52.197,39.761 40,-24 40,24 v 80.000 h -40 -40 z" style="fill:#d14f4e;stroke-width:0.3;stroke-linecap:round;stop-color:#000000" id="path1186" />
<path id="path1188" style="fill:#950000;stroke-width:0.3;stroke-linecap:round;stop-color:#000000" d="m -12.197,15.761 40,24 v 80.000 h -40 z" />
<path id="path1190" style="fill:#bd3434;stroke-width:0.3;stroke-linecap:round;stop-color:#000000" d="m -52.197,39.761 40,-24 40,24 -40,24 z" />
<path d="m 27.802,39.761 40,-24 40.000,24 v 80.000 h -40.000 -40 z" style="fill:#d14f4e;stroke-width:0.3;stroke-linecap:round;stop-color:#000000" id="path1192" />
<path id="path1194" style="fill:#950000;stroke-width:0.3;stroke-linecap:round;stop-color:#000000" d="m 67.802,15.761 40.000,24 V 119.761 H 67.802 Z" />
<path id="path1196" style="fill:#bd3434;stroke-width:0.3;stroke-linecap:round;stop-color:#000000" d="m 27.802,39.761 40,-24 40.000,24 -40.000,24 z" />
<path id="path1198" style="fill:#d14f4e;stroke-width:0.3;stroke-linecap:round;stop-color:#000000" d="m 107.802,39.761 40,-24 40,24 v 80.000 h -40 -40 z" />
<path d="m 147.802,15.761 40,24 v 80.000 h -40 z" style="fill:#950000;stroke-width:0.3;stroke-linecap:round;stop-color:#000000" id="path1200" />
<path d="m 107.802,39.761 40,-24 40,24 -40,24 z" style="fill:#bd3434;stroke-width:0.3;stroke-linecap:round;stop-color:#000000" id="path1202" />
<path d="m 187.802,39.761 40,-24 40,24 v 80.000 h -40 -40 z" style="fill:#d14f4e;stroke-width:0.3;stroke-linecap:round;stop-color:#000000" id="path1204" />
<path id="path1206" style="fill:#950000;stroke-width:0.3;stroke-linecap:round;stop-color:#000000" d="m 227.802,15.761 40,24 v 80.000 h -40 z" />
<path id="path1208" style="fill:#bd3434;stroke-width:0.3;stroke-linecap:round;stop-color:#000000" d="m 187.802,39.761 40,-24 40,24 -40,24 z" />
<path id="path1210" style="fill:#d14f4e;stroke-width:0.3;stroke-linecap:round;stop-color:#000000" d="m 267.802,39.761 40,-24 40,24 v 80.000 h -40 -40 z" />
<path d="m 307.802,15.761 40,24 v 80.000 h -40 z" style="fill:#950000;stroke-width:0.3;stroke-linecap:round;stop-color:#000000" id="path1212" />
<path d="m 267.802,39.761 40,-24 40,24 -40,24 z" style="fill:#bd3434;stroke-width:0.3;stroke-linecap:round;stop-color:#000000" id="path1214" />
<path id="path1216" style="fill:#d14f4e;stroke-width:0.3;stroke-linecap:round;stop-color:#000000" d="m 347.802,39.761 40,-24 40,24 v 80.000 h -40 -40 z" />
<path d="m 387.802,15.761 40,24 v 80.000 h -40 z" style="fill:#950000;stroke-width:0.3;stroke-linecap:round;stop-color:#000000" id="path1218" />
<path d="m 347.802,39.761 40,-24 40,24 -40,24 z" style="fill:#bd3434;stroke-width:0.3;stroke-linecap:round;stop-color:#000000" id="path1220" />
<path d="m 427.802,39.761 40,-24 40,24 v 80.000 h -40 -40 z" style="fill:#d14f4e;stroke-width:0.3;stroke-linecap:round;stop-color:#000000" id="path1222" />
<path id="path1224" style="fill:#950000;stroke-width:0.3;stroke-linecap:round;stop-color:#000000" d="m 467.802,15.761 40,24 v 80.000 h -40 z" />
<path id="path1226" style="fill:#bd3434;stroke-width:0.3;stroke-linecap:round;stop-color:#000000" d="m 427.802,39.761 40,-24 40,24 -40,24 z" />
<path id="path1228" style="fill:#d14f4e;stroke-width:0.3;stroke-linecap:round;stop-color:#000000" d="m 507.802,39.761 40,-24 40,24 v 80.000 h -40 -40 z" />
<path d="m 547.802,15.761 40,24 v 80.000 h -40 z" style="fill:#950000;stroke-width:0.3;stroke-linecap:round;stop-color:#000000" id="path1230" />
<path d="m 507.802,39.761 40,-24 40,24 -40,24 z" style="fill:#bd3434;stroke-width:0.3;stroke-linecap:round;stop-color:#000000" id="path1232" />
<path d="m 587.802,39.761 40,-24 40,24 v 80.000 h -40 -40 z" style="fill:#d14f4e;stroke-width:0.3;stroke-linecap:round;stop-color:#000000" id="path1234" />
<path id="path1236" style="fill:#950000;stroke-width:0.3;stroke-linecap:round;stop-color:#000000" d="m 627.802,15.761 40,24 v 80.000 h -40 z" />
<path id="path1238" style="fill:#bd3434;stroke-width:0.3;stroke-linecap:round;stop-color:#000000" d="m 587.802,39.761 40,-24 40,24 -40,24 z" />
<path d="m -92.197,99.761 40,-24 40,24 v 80.000 h -40 -40 z" style="fill:#d14f4e;stroke-width:0.3;stroke-linecap:round;stop-color:#000000" id="path1106" />
<path id="path1108" style="fill:#950000;stroke-width:0.3;stroke-linecap:round;stop-color:#000000" d="m -52.197,75.761 40,24 v 80.000 h -40 z" />
<path id="path1110" style="fill:#bd3434;stroke-width:0.3;stroke-linecap:round;stop-color:#000000" d="m -92.197,99.761 40,-24 40,24 -40,24.000 z" />
<path id="path1112" style="fill:#d14f4e;stroke-width:0.3;stroke-linecap:round;stop-color:#000000" d="m -12.197,99.761 40,-24 40,24 v 80.000 h -40 -40 z" />
<path d="m 27.802,75.761 40,24 v 80.000 h -40 z" style="fill:#950000;stroke-width:0.3;stroke-linecap:round;stop-color:#000000" id="path1114" />
<path d="m -12.197,99.761 40,-24 40,24 -40,24.000 z" style="fill:#bd3434;stroke-width:0.3;stroke-linecap:round;stop-color:#000000" id="path1116" />
<path id="path1118" style="fill:#d14f4e;stroke-width:0.3;stroke-linecap:round;stop-color:#000000" d="m 67.802,99.761 40.000,-24 40,24 v 80.000 h -40 -40.000 z" />
<path d="m 107.802,75.761 40,24 v 80.000 h -40 z" style="fill:#950000;stroke-width:0.3;stroke-linecap:round;stop-color:#000000" id="path1120" />
<path d="m 67.802,99.761 40.000,-24 40,24 -40,24.000 z" style="fill:#bd3434;stroke-width:0.3;stroke-linecap:round;stop-color:#000000" id="path1122" />
<path d="m 147.802,99.761 40,-24 40,24 v 80.000 h -40 -40 z" style="fill:#d14f4e;stroke-width:0.3;stroke-linecap:round;stop-color:#000000" id="path1124" />
<path id="path1126" style="fill:#950000;stroke-width:0.3;stroke-linecap:round;stop-color:#000000" d="m 187.802,75.761 40,24 v 80.000 h -40 z" />
<path id="path1128" style="fill:#bd3434;stroke-width:0.3;stroke-linecap:round;stop-color:#000000" d="m 147.802,99.761 40,-24 40,24 -40,24.000 z" />
<path id="path1130" style="fill:#d14f4e;stroke-width:0.3;stroke-linecap:round;stop-color:#000000" d="m 227.802,99.761 40,-24 40,24 v 80.000 h -40 -40 z" />
<path d="m 267.802,75.761 40,24 v 80.000 h -40 z" style="fill:#950000;stroke-width:0.3;stroke-linecap:round;stop-color:#000000" id="path1132" />
<path d="m 227.802,99.761 40,-24 40,24 -40,24.000 z" style="fill:#bd3434;stroke-width:0.3;stroke-linecap:round;stop-color:#000000" id="path1134" />
<path d="m 307.802,99.761 40,-24 40,24 v 80.000 h -40 -40 z" style="fill:#d14f4e;stroke-width:0.3;stroke-linecap:round;stop-color:#000000" id="path1136" />
<path id="path1138" style="fill:#950000;stroke-width:0.3;stroke-linecap:round;stop-color:#000000" d="m 347.802,75.761 40,24 v 80.000 h -40 z" />
<path id="path1140" style="fill:#bd3434;stroke-width:0.3;stroke-linecap:round;stop-color:#000000" d="m 307.802,99.761 40,-24 40,24 -40,24.000 z" />
<path d="m 387.802,99.761 40,-24 40,24 v 80.000 h -40 -40 z" style="fill:#d14f4e;stroke-width:0.3;stroke-linecap:round;stop-color:#000000" id="path1142" />
<path id="path1144" style="fill:#950000;stroke-width:0.3;stroke-linecap:round;stop-color:#000000" d="m 427.802,75.761 40,24 v 80.000 h -40 z" />
<path id="path1146" style="fill:#bd3434;stroke-width:0.3;stroke-linecap:round;stop-color:#000000" d="m 387.802,99.761 40,-24 40,24 -40,24.000 z" />
<path id="path1148" style="fill:#d14f4e;stroke-width:0.3;stroke-linecap:round;stop-color:#000000" d="m 467.802,99.761 40,-24 40,24 v 80.000 h -40 -40 z" />
<path d="m 507.802,75.761 40,24 v 80.000 h -40 z" style="fill:#950000;stroke-width:0.3;stroke-linecap:round;stop-color:#000000" id="path1150" />
<path d="m 467.802,99.761 40,-24 40,24 -40,24.000 z" style="fill:#bd3434;stroke-width:0.3;stroke-linecap:round;stop-color:#000000" id="path1152" />
<path d="m 547.802,99.761 40,-24 40,24 v 80.000 h -40 -40 z" style="fill:#d14f4e;stroke-width:0.3;stroke-linecap:round;stop-color:#000000" id="path1154" />
<path id="path1156" style="fill:#950000;stroke-width:0.3;stroke-linecap:round;stop-color:#000000" d="m 587.802,75.761 40,24 v 80.000 h -40 z" />
<path id="path1158" style="fill:#bd3434;stroke-width:0.3;stroke-linecap:round;stop-color:#000000" d="m 547.802,99.761 40,-24 40,24 -40,24.000 z" />
<path id="path1160" style="fill:#d14f4e;stroke-width:0.3;stroke-linecap:round;stop-color:#000000" d="m 627.802,99.761 40,-24 40,24 v 80.000 h -40 -40 z" />
<path d="m 627.802,99.761 40,-24 40,24 -40,24.000 z" style="fill:#bd3434;stroke-width:0.3;stroke-linecap:round;stop-color:#000000" id="path1164" />
<path d="m -132.197,159.761 39.999,-24 40,24 v 80 h -40 -39.999 z" style="fill:#d14f4e;stroke-width:0.3;stroke-linecap:round;stop-color:#000000" id="path1254" />
<path id="path1256" style="fill:#950000;stroke-width:0.3;stroke-linecap:round;stop-color:#000000" d="m -92.197,135.761 40,24 v 80 h -40 z" />
<path id="path1258" style="fill:#bd3434;stroke-width:0.3;stroke-linecap:round;stop-color:#000000" d="m -132.197,159.761 39.999,-24 40,24 -40,24 z" />
<path id="path1260" style="fill:#d14f4e;stroke-width:0.3;stroke-linecap:round;stop-color:#000000" d="m -52.197,159.761 40,-24 40,24 v 80 h -40 -40 z" />
<path d="m -12.197,135.761 40,24 v 80 h -40 z" style="fill:#950000;stroke-width:0.3;stroke-linecap:round;stop-color:#000000" id="path1262" />
<path d="m -52.197,159.761 40,-24 40,24 -40,24 z" style="fill:#bd3434;stroke-width:0.3;stroke-linecap:round;stop-color:#000000" id="path1264" />
<path id="path1266" style="fill:#d14f4e;stroke-width:0.3;stroke-linecap:round;stop-color:#000000" d="m 27.802,159.761 40,-24 40.000,24 v 80 h -40.000 -40 z" />
<path d="m 67.802,135.761 40.000,24 v 80 H 67.802 Z" style="fill:#950000;stroke-width:0.3;stroke-linecap:round;stop-color:#000000" id="path1268" />
<path d="m 27.802,159.761 40,-24 40.000,24 -40.000,24 z" style="fill:#bd3434;stroke-width:0.3;stroke-linecap:round;stop-color:#000000" id="path1270" />
<path d="m 107.802,159.761 40,-24 40,24 v 80 h -40 -40 z" style="fill:#d14f4e;stroke-width:0.3;stroke-linecap:round;stop-color:#000000" id="path1272" />
<path id="path1274" style="fill:#950000;stroke-width:0.3;stroke-linecap:round;stop-color:#000000" d="m 147.802,135.761 40,24 v 80 h -40 z" />
<path id="path1276" style="fill:#bd3434;stroke-width:0.3;stroke-linecap:round;stop-color:#000000" d="m 107.802,159.761 40,-24 40,24 -40,24 z" />
<path id="path1278" style="fill:#d14f4e;stroke-width:0.3;stroke-linecap:round;stop-color:#000000" d="m 187.802,159.761 40,-24 40,24 v 80 h -40 -40 z" />
<path d="m 227.802,135.761 40,24 v 80 h -40 z" style="fill:#950000;stroke-width:0.3;stroke-linecap:round;stop-color:#000000" id="path1280" />
<path d="m 187.802,159.761 40,-24 40,24 -40,24 z" style="fill:#bd3434;stroke-width:0.3;stroke-linecap:round;stop-color:#000000" id="path1282" />
<path d="m 267.802,159.761 40,-24 40,24 v 80 h -40 -40 z" style="fill:#d14f4e;stroke-width:0.3;stroke-linecap:round;stop-color:#000000" id="path1284" />
<path id="path1286" style="fill:#950000;stroke-width:0.3;stroke-linecap:round;stop-color:#000000" d="m 307.802,135.761 40,24 v 80 h -40 z" />
<path id="path1288" style="fill:#bd3434;stroke-width:0.3;stroke-linecap:round;stop-color:#000000" d="m 267.802,159.761 40,-24 40,24 -40,24 z" />
<path d="m 347.802,159.761 40,-24 40,24 v 80 h -40 -40 z" style="fill:#d14f4e;stroke-width:0.3;stroke-linecap:round;stop-color:#000000" id="path1290" />
<path id="path1292" style="fill:#950000;stroke-width:0.3;stroke-linecap:round;stop-color:#000000" d="m 387.802,135.761 40,24 v 80 h -40 z" />
<path id="path1294" style="fill:#bd3434;stroke-width:0.3;stroke-linecap:round;stop-color:#000000" d="m 347.802,159.761 40,-24 40,24 -40,24 z" />
<path id="path1296" style="fill:#d14f4e;stroke-width:0.3;stroke-linecap:round;stop-color:#000000" d="m 427.802,159.761 40,-24 40,24 v 80 h -40 -40 z" />
<path d="m 467.802,135.761 40,24 v 80 h -40 z" style="fill:#950000;stroke-width:0.3;stroke-linecap:round;stop-color:#000000" id="path1298" />
<path d="m 427.802,159.761 40,-24 40,24 -40,24 z" style="fill:#bd3434;stroke-width:0.3;stroke-linecap:round;stop-color:#000000" id="path1300" />
<path d="m 507.802,159.761 40,-24 40,24 v 80 h -40 -40 z" style="fill:#d14f4e;stroke-width:0.3;stroke-linecap:round;stop-color:#000000" id="path1302" />
<path id="path1304" style="fill:#950000;stroke-width:0.3;stroke-linecap:round;stop-color:#000000" d="m 547.802,135.761 40,24 v 80 h -40 z" />
<path id="path1306" style="fill:#bd3434;stroke-width:0.3;stroke-linecap:round;stop-color:#000000" d="m 507.802,159.761 40,-24 40,24 -40,24 z" />
<path id="path1308" style="fill:#d14f4e;stroke-width:0.3;stroke-linecap:round;stop-color:#000000" d="m 587.802,159.761 40,-24 40,24 v 80 h -40 -40 z" />
<path d="m 627.802,135.761 40,24 v 80 h -40 z" style="fill:#950000;stroke-width:0.3;stroke-linecap:round;stop-color:#000000" id="path1310" />
<path d="m 587.802,159.761 40,-24 40,24 -40,24 z" style="fill:#bd3434;stroke-width:0.3;stroke-linecap:round;stop-color:#000000" id="path1312" />
<path id="path1328" style="fill:#d14f4e;stroke-width:0.3;stroke-linecap:round;stop-color:#000000" d="m -92.197,219.761 40,-24 40,24 v 80 h -40 -40 z" />
<path d="m -52.197,195.761 40,24 v 80 h -40 z" style="fill:#950000;stroke-width:0.3;stroke-linecap:round;stop-color:#000000" id="path1330" />
<path d="m -92.197,219.761 40,-24 40,24 -40,24 z" style="fill:#bd3434;stroke-width:0.3;stroke-linecap:round;stop-color:#000000" id="path1332" />
<path d="m -12.197,219.761 40,-24 40,24 v 80 h -40 -40 z" style="fill:#d14f4e;stroke-width:0.3;stroke-linecap:round;stop-color:#000000" id="path1334" />
<path id="path1336" style="fill:#950000;stroke-width:0.3;stroke-linecap:round;stop-color:#000000" d="m 27.802,195.761 40,24 v 80 h -40 z" />
<path id="path1338" style="fill:#bd3434;stroke-width:0.3;stroke-linecap:round;stop-color:#000000" d="m -12.197,219.761 40,-24 40,24 -40,24 z" />
<path d="m 67.802,219.761 40.000,-24 40,24 v 80 h -40 -40.000 z" style="fill:#d14f4e;stroke-width:0.3;stroke-linecap:round;stop-color:#000000" id="path1340" />
<path id="path1342" style="fill:#950000;stroke-width:0.3;stroke-linecap:round;stop-color:#000000" d="m 107.802,195.761 40,24 v 80 h -40 z" />
<path id="path1344" style="fill:#bd3434;stroke-width:0.3;stroke-linecap:round;stop-color:#000000" d="m 67.802,219.761 40.000,-24 40,24 -40,24 z" />
<path id="path1346" style="fill:#d14f4e;stroke-width:0.3;stroke-linecap:round;stop-color:#000000" d="m 147.802,219.761 40,-24 40,24 v 80 h -40 -40 z" />
<path d="m 187.802,195.761 40,24 v 80 h -40 z" style="fill:#950000;stroke-width:0.3;stroke-linecap:round;stop-color:#000000" id="path1348" />
<path d="m 147.802,219.761 40,-24 40,24 -40,24 z" style="fill:#bd3434;stroke-width:0.3;stroke-linecap:round;stop-color:#000000" id="path1350" />
<path d="m 227.802,219.761 40,-24 40,24 v 80 h -40 -40 z" style="fill:#d14f4e;stroke-width:0.3;stroke-linecap:round;stop-color:#000000" id="path1352" />
<path id="path1354" style="fill:#950000;stroke-width:0.3;stroke-linecap:round;stop-color:#000000" d="m 267.802,195.761 40,24 v 80 h -40 z" />
<path id="path1356" style="fill:#bd3434;stroke-width:0.3;stroke-linecap:round;stop-color:#000000" d="m 227.802,219.761 40,-24 40,24 -40,24 z" />
<path id="path1358" style="fill:#d14f4e;stroke-width:0.3;stroke-linecap:round;stop-color:#000000" d="m 307.802,219.761 40,-24 40,24 v 80 h -40 -40 z" />
<path d="m 347.802,195.761 40,24 v 80 h -40 z" style="fill:#950000;stroke-width:0.3;stroke-linecap:round;stop-color:#000000" id="path1360" />
<path d="m 307.802,219.761 40,-24 40,24 -40,24 z" style="fill:#bd3434;stroke-width:0.3;stroke-linecap:round;stop-color:#000000" id="path1362" />
<path id="path1364" style="fill:#d14f4e;stroke-width:0.3;stroke-linecap:round;stop-color:#000000" d="m 387.802,219.761 40,-24 40,24 v 80 h -40 -40 z" />
<path d="m 427.802,195.761 40,24 v 80 h -40 z" style="fill:#950000;stroke-width:0.3;stroke-linecap:round;stop-color:#000000" id="path1366" />
<path d="m 387.802,219.761 40,-24 40,24 -40,24 z" style="fill:#bd3434;stroke-width:0.3;stroke-linecap:round;stop-color:#000000" id="path1368" />
<path d="m 467.802,219.761 40,-24 40,24 v 80 h -40 -40 z" style="fill:#d14f4e;stroke-width:0.3;stroke-linecap:round;stop-color:#000000" id="path1370" />
<path id="path1372" style="fill:#950000;stroke-width:0.3;stroke-linecap:round;stop-color:#000000" d="m 507.802,195.761 40,24 v 80 h -40 z" />
<path id="path1374" style="fill:#bd3434;stroke-width:0.3;stroke-linecap:round;stop-color:#000000" d="m 467.802,219.761 40,-24 40,24 -40,24 z" />
<path id="path1376" style="fill:#d14f4e;stroke-width:0.3;stroke-linecap:round;stop-color:#000000" d="m 547.802,219.761 40,-24 40,24 v 80 h -40 -40 z" />
<path d="m 587.802,195.761 40,24 v 80 h -40 z" style="fill:#950000;stroke-width:0.3;stroke-linecap:round;stop-color:#000000" id="path1378" />
<path d="m 547.802,219.761 40,-24 40,24 -40,24 z" style="fill:#bd3434;stroke-width:0.3;stroke-linecap:round;stop-color:#000000" id="path1380" />
<path d="m 627.802,219.761 40,-24 40,24 v 80 h -40 -40 z" style="fill:#d14f4e;stroke-width:0.3;stroke-linecap:round;stop-color:#000000" id="path1382" />
<path id="path1386" style="fill:#bd3434;stroke-width:0.3;stroke-linecap:round;stop-color:#000000" d="m 627.802,219.761 40,-24 40,24 -40,24 z" />
<path d="m -132.197,279.761 39.999,-24 40,24 v 80 h -40 -39.999 z" style="fill:#d14f4e;stroke-width:0.3;stroke-linecap:round;stop-color:#000000" id="path1552" />
<path id="path1554" style="fill:#950000;stroke-width:0.3;stroke-linecap:round;stop-color:#000000" d="m -92.197,255.761 40,24 v 80 h -40 z" />
<path id="path1556" style="fill:#bd3434;stroke-width:0.3;stroke-linecap:round;stop-color:#000000" d="m -132.197,279.761 39.999,-24 40,24 -40,24 z" />
<path id="path1558" style="fill:#d14f4e;stroke-width:0.3;stroke-linecap:round;stop-color:#000000" d="m -52.197,279.761 40,-24 40,24 v 80 h -40 -40 z" />
<path d="m -12.197,255.761 40,24 v 80 h -40 z" style="fill:#950000;stroke-width:0.3;stroke-linecap:round;stop-color:#000000" id="path1560" />
<path d="m -52.197,279.761 40,-24 40,24 -40,24 z" style="fill:#bd3434;stroke-width:0.3;stroke-linecap:round;stop-color:#000000" id="path1562" />
<path id="path1564" style="fill:#d14f4e;stroke-width:0.3;stroke-linecap:round;stop-color:#000000" d="m 27.802,279.761 40,-24 40.000,24 v 80 h -40.000 -40 z" />
<path d="m 67.802,255.761 40.000,24 v 80 H 67.802 Z" style="fill:#950000;stroke-width:0.3;stroke-linecap:round;stop-color:#000000" id="path1566" />
<path d="m 27.802,279.761 40,-24 40.000,24 -40.000,24 z" style="fill:#bd3434;stroke-width:0.3;stroke-linecap:round;stop-color:#000000" id="path1568" />
<path d="m 107.802,279.761 40,-24 40,24 v 80 h -40 -40 z" style="fill:#d14f4e;stroke-width:0.3;stroke-linecap:round;stop-color:#000000" id="path1570" />
<path id="path1572" style="fill:#950000;stroke-width:0.3;stroke-linecap:round;stop-color:#000000" d="m 147.802,255.761 40,24 v 80 h -40 z" />
<path id="path1574" style="fill:#bd3434;stroke-width:0.3;stroke-linecap:round;stop-color:#000000" d="m 107.802,279.761 40,-24 40,24 -40,24 z" />
<path id="path1576" style="fill:#d14f4e;stroke-width:0.3;stroke-linecap:round;stop-color:#000000" d="m 187.802,279.761 40,-24 40,24 v 80 h -40 -40 z" />
<path d="m 227.802,255.761 40,24 v 80 h -40 z" style="fill:#950000;stroke-width:0.3;stroke-linecap:round;stop-color:#000000" id="path1578" />
<path d="m 187.802,279.761 40,-24 40,24 -40,24 z" style="fill:#bd3434;stroke-width:0.3;stroke-linecap:round;stop-color:#000000" id="path1580" />
<path d="m 267.802,279.761 40,-24 40,24 v 80 h -40 -40 z" style="fill:#d14f4e;stroke-width:0.3;stroke-linecap:round;stop-color:#000000" id="path1582" />
<path id="path1584" style="fill:#950000;stroke-width:0.3;stroke-linecap:round;stop-color:#000000" d="m 307.802,255.761 40,24 v 80 h -40 z" />
<path id="path1586" style="fill:#bd3434;stroke-width:0.3;stroke-linecap:round;stop-color:#000000" d="m 267.802,279.761 40,-24 40,24 -40,24 z" />
<path d="m 347.802,279.761 40,-24 40,24 v 80 h -40 -40 z" style="fill:#d14f4e;stroke-width:0.3;stroke-linecap:round;stop-color:#000000" id="path1588" />
<path id="path1590" style="fill:#950000;stroke-width:0.3;stroke-linecap:round;stop-color:#000000" d="m 387.802,255.761 40,24 v 80 h -40 z" />
<path id="path1592" style="fill:#bd3434;stroke-width:0.3;stroke-linecap:round;stop-color:#000000" d="m 347.802,279.761 40,-24 40,24 -40,24 z" />
<path id="path1594" style="fill:#d14f4e;stroke-width:0.3;stroke-linecap:round;stop-color:#000000" d="m 427.802,279.761 40,-24 40,24 v 80 h -40 -40 z" />
<path d="m 467.802,255.761 40,24 v 80 h -40 z" style="fill:#950000;stroke-width:0.3;stroke-linecap:round;stop-color:#000000" id="path1596" />
<path d="m 427.802,279.761 40,-24 40,24 -40,24 z" style="fill:#bd3434;stroke-width:0.3;stroke-linecap:round;stop-color:#000000" id="path1598" />
<path d="m 507.802,279.761 40,-24 40,24 v 80 h -40 -40 z" style="fill:#d14f4e;stroke-width:0.3;stroke-linecap:round;stop-color:#000000" id="path1600" />
<path id="path1602" style="fill:#950000;stroke-width:0.3;stroke-linecap:round;stop-color:#000000" d="m 547.802,255.761 40,24 v 80 h -40 z" />
<path id="path1604" style="fill:#bd3434;stroke-width:0.3;stroke-linecap:round;stop-color:#000000" d="m 507.802,279.761 40,-24 40,24 -40,24 z" />
<path id="path1606" style="fill:#d14f4e;stroke-width:0.3;stroke-linecap:round;stop-color:#000000" d="m 587.802,279.761 40,-24 40,24 v 80 h -40 -40 z" />
<path d="m 627.802,255.761 40,24 v 80 h -40 z" style="fill:#950000;stroke-width:0.3;stroke-linecap:round;stop-color:#000000" id="path1608" />
<path d="m 587.802,279.761 40,-24 40,24 -40,24 z" style="fill:#bd3434;stroke-width:0.3;stroke-linecap:round;stop-color:#000000" id="path1610" />
<path id="path1626" style="fill:#d14f4e;stroke-width:0.3;stroke-linecap:round;stop-color:#000000" d="m -92.197,339.761 40,-24 40,24 v 80 h -40 -40 z" />
<path d="m -52.197,315.761 40,24 v 80 h -40 z" style="fill:#950000;stroke-width:0.3;stroke-linecap:round;stop-color:#000000" id="path1628" />
<path d="m -92.197,339.761 40,-24 40,24 -40,24 z" style="fill:#bd3434;stroke-width:0.3;stroke-linecap:round;stop-color:#000000" id="path1630" />
<path d="m -12.197,339.761 40,-24 40,24 v 80 h -40 -40 z" style="fill:#d14f4e;stroke-width:0.3;stroke-linecap:round;stop-color:#000000" id="path1632" />
<path id="path1634" style="fill:#950000;stroke-width:0.3;stroke-linecap:round;stop-color:#000000" d="m 27.802,315.761 40,24 v 80 h -40 z" />
<path id="path1636" style="fill:#bd3434;stroke-width:0.3;stroke-linecap:round;stop-color:#000000" d="m -12.197,339.761 40,-24 40,24 -40,24 z" />
<path d="m 67.802,339.761 40.000,-24 40,24 v 80 h -40 -40.000 z" style="fill:#d14f4e;stroke-width:0.3;stroke-linecap:round;stop-color:#000000" id="path1638" />
<path id="path1640" style="fill:#950000;stroke-width:0.3;stroke-linecap:round;stop-color:#000000" d="m 107.802,315.761 40,24 v 80 h -40 z" />
<path id="path1642" style="fill:#bd3434;stroke-width:0.3;stroke-linecap:round;stop-color:#000000" d="m 67.802,339.761 40.000,-24 40,24 -40,24 z" />
<path id="path1644" style="fill:#d14f4e;stroke-width:0.3;stroke-linecap:round;stop-color:#000000" d="m 147.802,339.761 40,-24 40,24 v 80 h -40 -40 z" />
<path d="m 187.802,315.761 40,24 v 80 h -40 z" style="fill:#950000;stroke-width:0.3;stroke-linecap:round;stop-color:#000000" id="path1646" />
<path d="m 147.802,339.761 40,-24 40,24 -40,24 z" style="fill:#bd3434;stroke-width:0.3;stroke-linecap:round;stop-color:#000000" id="path1648" />
<path d="m 227.802,339.761 40,-24 40,24 v 80 h -40 -40 z" style="fill:#d14f4e;stroke-width:0.3;stroke-linecap:round;stop-color:#000000" id="path1650" />
<path id="path1652" style="fill:#950000;stroke-width:0.3;stroke-linecap:round;stop-color:#000000" d="m 267.802,315.761 40,24 v 80 h -40 z" />
<path id="path1654" style="fill:#bd3434;stroke-width:0.3;stroke-linecap:round;stop-color:#000000" d="m 227.802,339.761 40,-24 40,24 -40,24 z" />
<path id="path1656" style="fill:#d14f4e;stroke-width:0.3;stroke-linecap:round;stop-color:#000000" d="m 307.802,339.761 40,-24 40,24 v 80 h -40 -40 z" />
<path d="m 347.802,315.761 40,24 v 80 h -40 z" style="fill:#950000;stroke-width:0.3;stroke-linecap:round;stop-color:#000000" id="path1658" />
<path d="m 307.802,339.761 40,-24 40,24 -40,24 z" style="fill:#bd3434;stroke-width:0.3;stroke-linecap:round;stop-color:#000000" id="path1660" />
<path id="path1662" style="fill:#d14f4e;stroke-width:0.3;stroke-linecap:round;stop-color:#000000" d="m 387.802,339.761 40,-24 40,24 v 80 h -40 -40 z" />
<path d="m 427.802,315.761 40,24 v 80 h -40 z" style="fill:#950000;stroke-width:0.3;stroke-linecap:round;stop-color:#000000" id="path1664" />
<path d="m 387.802,339.761 40,-24 40,24 -40,24 z" style="fill:#bd3434;stroke-width:0.3;stroke-linecap:round;stop-color:#000000" id="path1666" />
<path d="m 467.802,339.761 40,-24 40,24 v 80 h -40 -40 z" style="fill:#d14f4e;stroke-width:0.3;stroke-linecap:round;stop-color:#000000" id="path1668" />
<path id="path1670" style="fill:#950000;stroke-width:0.3;stroke-linecap:round;stop-color:#000000" d="m 507.802,315.761 40,24 v 80 h -40 z" />
<path id="path1672" style="fill:#bd3434;stroke-width:0.3;stroke-linecap:round;stop-color:#000000" d="m 467.802,339.761 40,-24 40,24 -40,24 z" />
<path id="path1674" style="fill:#d14f4e;stroke-width:0.3;stroke-linecap:round;stop-color:#000000" d="m 547.802,339.761 40,-24 40,24 v 80 h -40 -40 z" />
<path d="m 587.802,315.761 40,24 v 80 h -40 z" style="fill:#950000;stroke-width:0.3;stroke-linecap:round;stop-color:#000000" id="path1676" />
<path d="m 547.802,339.761 40,-24 40,24 -40,24 z" style="fill:#bd3434;stroke-width:0.3;stroke-linecap:round;stop-color:#000000" id="path1678" />
<path d="m 627.802,339.761 40,-24 40,24 v 80 h -40 -40 z" style="fill:#d14f4e;stroke-width:0.3;stroke-linecap:round;stop-color:#000000" id="path1680" />
<path id="path1684" style="fill:#bd3434;stroke-width:0.3;stroke-linecap:round;stop-color:#000000" d="m 627.802,339.761 40,-24 40,24 -40,24 z" />
<path id="path1700" style="fill:#d14f4e;stroke-width:0.3;stroke-linecap:round;stop-color:#000000" d="m -132.197,399.761 39.999,-24 40,24 v 80 h -40 -39.999 z" />
<path d="m -92.197,375.761 40,24 v 80 h -40 z" style="fill:#950000;stroke-width:0.3;stroke-linecap:round;stop-color:#000000" id="path1702" />
<path d="m -132.197,399.761 39.999,-24 40,24 -40,24 z" style="fill:#bd3434;stroke-width:0.3;stroke-linecap:round;stop-color:#000000" id="path1704" />
<path d="m -52.197,399.761 40,-24 40,24 v 80 h -40 -40 z" style="fill:#d14f4e;stroke-width:0.3;stroke-linecap:round;stop-color:#000000" id="path1706" />
<path id="path1708" style="fill:#950000;stroke-width:0.3;stroke-linecap:round;stop-color:#000000" d="m -12.197,375.761 40,24 v 80 h -40 z" />
<path id="path1710" style="fill:#bd3434;stroke-width:0.3;stroke-linecap:round;stop-color:#000000" d="m -52.197,399.761 40,-24 40,24 -40,24 z" />
<path d="m 27.802,399.761 40,-24 40.000,24 v 80 h -40.000 -40 z" style="fill:#d14f4e;stroke-width:0.3;stroke-linecap:round;stop-color:#000000" id="path1712" />
<path id="path1714" style="fill:#950000;stroke-width:0.3;stroke-linecap:round;stop-color:#000000" d="m 67.802,375.761 40.000,24 v 80 H 67.802 Z" />
<path id="path1716" style="fill:#bd3434;stroke-width:0.3;stroke-linecap:round;stop-color:#000000" d="m 27.802,399.761 40,-24 40.000,24 -40.000,24 z" />
<path id="path1718" style="fill:#d14f4e;stroke-width:0.3;stroke-linecap:round;stop-color:#000000" d="m 107.802,399.761 40,-24 40,24 v 80 h -40 -40 z" />
<path d="m 147.802,375.761 40,24 v 80 h -40 z" style="fill:#950000;stroke-width:0.3;stroke-linecap:round;stop-color:#000000" id="path1720" />
<path d="m 107.802,399.761 40,-24 40,24 -40,24 z" style="fill:#bd3434;stroke-width:0.3;stroke-linecap:round;stop-color:#000000" id="path1722" />
<path d="m 187.802,399.761 40,-24 40,24 v 80 h -40 -40 z" style="fill:#d14f4e;stroke-width:0.3;stroke-linecap:round;stop-color:#000000" id="path1724" />
<path id="path1726" style="fill:#950000;stroke-width:0.3;stroke-linecap:round;stop-color:#000000" d="m 227.802,375.761 40,24 v 80 h -40 z" />
<path id="path1728" style="fill:#bd3434;stroke-width:0.3;stroke-linecap:round;stop-color:#000000" d="m 187.802,399.761 40,-24 40,24 -40,24 z" />
<path id="path1730" style="fill:#d14f4e;stroke-width:0.3;stroke-linecap:round;stop-color:#000000" d="m 267.802,399.761 40,-24 40,24 v 80 h -40 -40 z" />
<path d="m 307.802,375.761 40,24 v 80 h -40 z" style="fill:#950000;stroke-width:0.3;stroke-linecap:round;stop-color:#000000" id="path1732" />
<path d="m 267.802,399.761 40,-24 40,24 -40,24 z" style="fill:#bd3434;stroke-width:0.3;stroke-linecap:round;stop-color:#000000" id="path1734" />
<path id="path1736" style="fill:#d14f4e;stroke-width:0.3;stroke-linecap:round;stop-color:#000000" d="m 347.802,399.761 40,-24 40,24 v 80 h -40 -40 z" />
<path d="m 387.802,375.761 40,24 v 80 h -40 z" style="fill:#950000;stroke-width:0.3;stroke-linecap:round;stop-color:#000000" id="path1738" />
<path d="m 347.802,399.761 40,-24 40,24 -40,24 z" style="fill:#bd3434;stroke-width:0.3;stroke-linecap:round;stop-color:#000000" id="path1740" />
<path d="m 427.802,399.761 40,-24 40,24 v 80 h -40 -40 z" style="fill:#d14f4e;stroke-width:0.3;stroke-linecap:round;stop-color:#000000" id="path1742" />
<path id="path1744" style="fill:#950000;stroke-width:0.3;stroke-linecap:round;stop-color:#000000" d="m 467.802,375.761 40,24 v 80 h -40 z" />
<path id="path1746" style="fill:#bd3434;stroke-width:0.3;stroke-linecap:round;stop-color:#000000" d="m 427.802,399.761 40,-24 40,24 -40,24 z" />
<path id="path1748" style="fill:#d14f4e;stroke-width:0.3;stroke-linecap:round;stop-color:#000000" d="m 507.802,399.761 40,-24 40,24 v 80 h -40 -40 z" />
<path d="m 547.802,375.761 40,24 v 80 h -40 z" style="fill:#950000;stroke-width:0.3;stroke-linecap:round;stop-color:#000000" id="path1750" />
<path d="m 507.802,399.761 40,-24 40,24 -40,24 z" style="fill:#bd3434;stroke-width:0.3;stroke-linecap:round;stop-color:#000000" id="path1752" />
<path d="m 587.802,399.761 40,-24 40,24 v 80 h -40 -40 z" style="fill:#d14f4e;stroke-width:0.3;stroke-linecap:round;stop-color:#000000" id="path1754" />
<path id="path1756" style="fill:#950000;stroke-width:0.3;stroke-linecap:round;stop-color:#000000" d="m 627.802,375.761 40,24 v 80 h -40 z" />
<path id="path1758" style="fill:#bd3434;stroke-width:0.3;stroke-linecap:round;stop-color:#000000" d="m 587.802,399.761 40,-24 40,24 -40,24 z" />
<path d="m -92.197,459.761 40,-24 40,24 v 80 h -40 -40 z" style="fill:#d14f4e;stroke-width:0.3;stroke-linecap:round;stop-color:#000000" id="path1774" />
<path id="path1776" style="fill:#950000;stroke-width:0.3;stroke-linecap:round;stop-color:#000000" d="m -52.197,435.761 40,24 v 80 h -40 z" />
<path id="path1778" style="fill:#bd3434;stroke-width:0.3;stroke-linecap:round;stop-color:#000000" d="m -92.197,459.761 40,-24 40,24 -40,24 z" />
<path id="path1780" style="fill:#d14f4e;stroke-width:0.3;stroke-linecap:round;stop-color:#000000" d="m -12.197,459.761 40,-24 40,24 v 80 h -40 -40 z" />
<path d="m 27.802,435.761 40,24 v 80 h -40 z" style="fill:#950000;stroke-width:0.3;stroke-linecap:round;stop-color:#000000" id="path1782" />
<path d="m -12.197,459.761 40,-24 40,24 -40,24 z" style="fill:#bd3434;stroke-width:0.3;stroke-linecap:round;stop-color:#000000" id="path1784" />
<path id="path1786" style="fill:#d14f4e;stroke-width:0.3;stroke-linecap:round;stop-color:#000000" d="m 67.802,459.761 40.000,-24 40,24 v 80 h -40 -40.000 z" />
<path d="m 107.802,435.761 40,24 v 80 h -40 z" style="fill:#950000;stroke-width:0.3;stroke-linecap:round;stop-color:#000000" id="path1788" />
<path d="m 67.802,459.761 40.000,-24 40,24 -40,24 z" style="fill:#bd3434;stroke-width:0.3;stroke-linecap:round;stop-color:#000000" id="path1790" />
<path d="m 147.802,459.761 40,-24 40,24 v 80 h -40 -40 z" style="fill:#d14f4e;stroke-width:0.3;stroke-linecap:round;stop-color:#000000" id="path1792" />
<path id="path1794" style="fill:#950000;stroke-width:0.3;stroke-linecap:round;stop-color:#000000" d="m 187.802,435.761 40,24 v 80 h -40 z" />
<path id="path1796" style="fill:#bd3434;stroke-width:0.3;stroke-linecap:round;stop-color:#000000" d="m 147.802,459.761 40,-24 40,24 -40,24 z" />
<path id="path1798" style="fill:#d14f4e;stroke-width:0.3;stroke-linecap:round;stop-color:#000000" d="m 227.802,459.761 40,-24 40,24 v 80 h -40 -40 z" />
<path d="m 267.802,435.761 40,24 v 80 h -40 z" style="fill:#950000;stroke-width:0.3;stroke-linecap:round;stop-color:#000000" id="path1800" />
<path d="m 227.802,459.761 40,-24 40,24 -40,24 z" style="fill:#bd3434;stroke-width:0.3;stroke-linecap:round;stop-color:#000000" id="path1802" />
<path d="m 307.802,459.761 40,-24 40,24 v 80 h -40 -40 z" style="fill:#d14f4e;stroke-width:0.3;stroke-linecap:round;stop-color:#000000" id="path1804" />
<path id="path1806" style="fill:#950000;stroke-width:0.3;stroke-linecap:round;stop-color:#000000" d="m 347.802,435.761 40,24 v 80 h -40 z" />
<path id="path1808" style="fill:#bd3434;stroke-width:0.3;stroke-linecap:round;stop-color:#000000" d="m 307.802,459.761 40,-24 40,24 -40,24 z" />
<path d="m 387.802,459.761 40,-24 40,24 v 80 h -40 -40 z" style="fill:#d14f4e;stroke-width:0.3;stroke-linecap:round;stop-color:#000000" id="path1810" />
<path id="path1812" style="fill:#950000;stroke-width:0.3;stroke-linecap:round;stop-color:#000000" d="m 427.802,435.761 40,24 v 80 h -40 z" />
<path id="path1814" style="fill:#bd3434;stroke-width:0.3;stroke-linecap:round;stop-color:#000000" d="m 387.802,459.761 40,-24 40,24 -40,24 z" />
<path id="path1816" style="fill:#d14f4e;stroke-width:0.3;stroke-linecap:round;stop-color:#000000" d="m 467.802,459.761 40,-24 40,24 v 80 h -40 -40 z" />
<path d="m 507.802,435.761 40,24 v 80 h -40 z" style="fill:#950000;stroke-width:0.3;stroke-linecap:round;stop-color:#000000" id="path1818" />
<path d="m 467.802,459.761 40,-24 40,24 -40,24 z" style="fill:#bd3434;stroke-width:0.3;stroke-linecap:round;stop-color:#000000" id="path1820" />
<path d="m 547.802,459.761 40,-24 40,24 v 80 h -40 -40 z" style="fill:#d14f4e;stroke-width:0.3;stroke-linecap:round;stop-color:#000000" id="path1822" />
<path id="path1824" style="fill:#950000;stroke-width:0.3;stroke-linecap:round;stop-color:#000000" d="m 587.802,435.761 40,24 v 80 h -40 z" />
<path id="path1826" style="fill:#bd3434;stroke-width:0.3;stroke-linecap:round;stop-color:#000000" d="m 547.802,459.761 40,-24 40,24 -40,24 z" />
<path id="path1828" style="fill:#d14f4e;stroke-width:0.3;stroke-linecap:round;stop-color:#000000" d="m 627.802,459.761 40,-24 40,24 v 80 h -40 -40 z" />
<path d="m 627.802,459.761 40,-24 40,24 -40,24 z" style="fill:#bd3434;stroke-width:0.3;stroke-linecap:round;stop-color:#000000" id="path1832" />
</svg>
