<?xml version="1.0" encoding="UTF-8" standalone="no"?>
<svg
   xmlns:dc="http://purl.org/dc/elements/1.1/"
   xmlns:cc="http://creativecommons.org/ns#"
   xmlns:rdf="http://www.w3.org/1999/02/22-rdf-syntax-ns#"
   xmlns:svg="http://www.w3.org/2000/svg"
   xmlns="http://www.w3.org/2000/svg"
   xmlns:xlink="http://www.w3.org/1999/xlink"
   version="1.1"
   id="greenboard01"
   viewBox="0 0 640 480"
   height="100%"
   width="100%">
  <metadata
     id="metadata42">
    <rdf:RDF>
      <cc:Work
         rdf:about="">
        <dc:format>image/svg+xml</dc:format>
        <dc:type
           rdf:resource="http://purl.org/dc/dcmitype/StillImage" />
        <dc:title></dc:title>
      </cc:Work>
    </rdf:RDF>
  </metadata>
  <defs
     id="defs3">
    <style
       id="style5">
 svg#greenboard01 #lines line { fill:none;stroke:#61bc3a;stroke-width:5;opacity:0.2; }
 </style>
  </defs>
  <rect
     x="0"
     y="0"
     width="640"
     height="480"
     style="fill:#1a1a1a"
     id="rect7" />
  <g
     id="lines">
    <line
       style="stroke:#414141;stroke-opacity:1"
       x1="0"
       y1="0"
       x2="640"
       y2="0"
       id="line10" />
    <line
       style="stroke:#414141;stroke-opacity:1"
       x1="0"
       y1="10"
       x2="640"
       y2="10"
       id="line12" />
    <line
       style="stroke:#414141;stroke-opacity:1"
       x1="0"
       y1="20"
       x2="640"
       y2="20"
       id="line14" />
    <line
       style="stroke:#414141;stroke-opacity:1"
       x1="0"
       y1="30"
       x2="640"
       y2="30"
       id="line16" />
    <line
       style="stroke:#414141;stroke-opacity:1"
       x1="0"
       y1="40"
       x2="640"
       y2="40"
       id="line18" />
    <line
       style="stroke:#414141;stroke-opacity:1"
       x1="0"
       y1="50"
       x2="640"
       y2="50"
       id="line20" />
    <line
       style="stroke:#414141;stroke-opacity:1"
       x1="0"
       y1="60"
       x2="640"
       y2="60"
       id="line22" />
    <line
       style="stroke:#414141;stroke-opacity:1"
       x1="0"
       y1="70"
       x2="640"
       y2="70"
       id="line24" />
    <line
       style="stroke:#414141;stroke-opacity:1"
       x1="0"
       y1="80"
       x2="640"
       y2="80"
       id="line26" />
    <line
       style="stroke:#414141;stroke-opacity:1"
       x1="0"
       y1="90"
       x2="640"
       y2="90"
       id="line28" />
    <line
       style="stroke:#414141;stroke-opacity:1"
       x1="0"
       y1="100"
       x2="640"
       y2="100"
       id="line30" />
    <line
       style="stroke:#414141;stroke-opacity:1"
       x1="0"
       y1="110"
       x2="640"
       y2="110"
       id="line32" />
  </g>
  <use
     transform="translate(0,120)"
     xlink:href="#lines"
     id="use34" />
  <use
     transform="translate(0,240)"
     xlink:href="#lines"
     id="use36" />
  <use
     transform="translate(0,360)"
     xlink:href="#lines"
     id="use38" />
  <path
     id="rect4945"
     d="m 132.77698,-26.920332 -18.76367,8.4961 8.49609,18.76366961 18.76368,-8.49609001 -8.4961,-18.7636796 z m 148.46094,11.64454 -6.61914,19.5038996 19.5039,6.6191404 6.6211,-19.5039004 -19.50586,-6.6191396 z m -109.29297,3.08007 -9.24414,18.4062496 18.40625,9.2441404 9.24414,-18.4062504 -18.40625,-9.2441396 z M 65.687141,7.1929576 l -19.50391,6.6210904 6.61914,19.50391 19.503908,-6.6211 -6.619138,-19.5039004 z m 273.035149,1.71093 -19.32617,7.1211004 7.1211,19.32617 19.32617,-7.1211 -7.1211,-19.3261704 z m 259.66993,1.5878904 -14.00586,15.10352 15.10351,14.00391 14.00586,-15.10352 -15.10351,-14.00391 z m -41.81446,1.55078 -20.38672,2.9336 2.9336,20.38672 20.38672,-2.9336 -2.9336,-20.38672 z m -136.96094,0.6875 -18.39257,9.27149 9.27148,18.39258 18.39258,-9.27149 -9.27149,-18.39258 z m 53.74415,13.38672 -18.96485,8.03711 8.03711,18.96485 18.96485,-8.03711 -8.03711,-18.96485 z m -217.64649,2.91602 -14.38867,14.73828 14.73633,14.38867 14.39062,-14.73828 -14.73828,-14.38867 z m -247.5117187,2.33984 -7.12109,19.32813 19.3281197,7.12109 7.11914,-19.32812 -19.3261697,-7.1211 z m 358.6582087,5.99024 -14.39063,14.73828 14.73828,14.38867 14.38867,-14.73828 -14.73632,-14.38867 z m -192.03321,9.27148 -14.62304,14.50586 14.50586,14.62305 14.62304,-14.50586 -14.50586,-14.62305 z m 141.76563,2.83399 -18.33203,9.39062 9.39062,18.33203 18.33203,-9.39062 -9.39062,-18.33203 z m -205.88867,3.52148 -20.597659,0.0664 0.0664,20.59766 20.597649,-0.0664 -0.0664,-20.59766 z m 424.49218,13.9375 -18.39258,9.27148 9.26954,18.39258 18.39257,-9.27148 -9.26953,-18.39258 z m -299.32031,7.29688 -20.45508,2.4082 2.40625,20.45508 20.45703,-2.40821 -2.4082,-20.45507 z m -94.32617,1.35156 -18.53711,8.97461 8.97461,18.539062 18.53906,-8.976562 -8.97656,-18.53711 z m 327.64062,2.32422 -14.0039,15.10351 15.10351,14.005862 14.00391,-15.103512 -15.10352,-14.00586 z m -41.81445,1.55078 -20.38672,2.93359 2.9336,20.388672 20.38671,-2.933592 -2.93359,-20.38867 z m 161.56445,0.86328 -18.96484,8.03711 8.03711,18.962892 18.96484,-8.037112 -8.03711,-18.96289 z m -520.134761,7.59766 -20.548828,1.42578 1.42578,20.548832 20.548829,-1.42579 -1.425781,-20.548822 z m 309.148441,6.94531 -14.00586,15.103512 15.10351,14.00586 14.00586,-15.10351 -15.10351,-14.005862 z m -41.81446,1.55078 -20.38867,2.93359 2.93359,20.388672 20.38868,-2.93359 -2.9336,-20.388672 z m -248.779289,0.66406 -6.6211,19.503912 19.503909,6.61914 6.62109,-19.50391 -19.503899,-6.619142 z m 207.701169,2.50977 -17.67383,10.580082 10.58008,17.67187 17.67187,-10.58008 -10.57812,-17.671872 z m 262.52148,5.339842 -14.38867,14.73828 14.73828,14.38867 14.38867,-14.73828 -14.73828,-14.38867 z m -412.73828,16.33008 -19.32812,7.12109 7.12109,19.32618 19.32617,-7.11915 -7.11914,-19.32812 z m 31.53516,2.03516 -6.6211,19.5039 19.50586,6.61914 6.61914,-19.5039 -19.5039,-6.61914 z m 229.61523,11.04882 -18.39258,9.27149 9.27149,18.39258 18.39258,-9.27149 -9.27149,-18.39258 z m -401.2480487,6.66016 -19.5039003,6.62109 6.6210903,19.50391 19.5039097,-6.62109 -6.6210997,-19.50391 z m 37.5957097,1.87305 -0.0684,20.5957 20.59765,0.0684 0.0664,-20.59766 -20.5957,-0.0664 z m 191.521479,4.59765 -19.32617,7.1211 7.11914,19.32617 19.32813,-7.1211 -7.1211,-19.32617 z m 225.875,0.25586 -18.96289,8.03711 8.03711,18.96485 18.96289,-8.03711 -8.03711,-18.96485 z m -144.98242,3.57031 -18.39258,9.27149 9.27149,18.39258 18.39257,-9.27149 -9.27148,-18.39258 z m 53.74609,13.38672 -18.96484,8.03711 8.03711,18.96485 18.96484,-8.03711 -8.03711,-18.96485 z m 215.04102,3.09961 -13.27734,15.74805 15.74804,13.27539 13.27735,-15.74609 -15.74805,-13.27735 z m -452.18164,1.30469 -0.0664,20.5957 20.59766,0.0664 0.0664,-20.5957 -20.59766,-0.0664 z m 410.95508,2.04688 -20.38672,2.93359 2.93359,20.38867 20.38672,-2.93359 -2.93359,-20.38867 z m -113.9336,1.19921 -14.38867,14.73829 14.73633,14.38867 14.38867,-14.73828 -14.73633,-14.38868 z m -166.38281,3.59571 -14.38867,14.73828 14.73828,14.38867 14.38867,-14.73828 -14.73828,-14.38867 z m -177.759769,1.86523 -1.42578,20.54688 20.546879,1.42578 1.42578,-20.54688 -20.546879,-1.42578 z m -89.5644497,12.74805 -0.0664,20.5957 20.5976597,0.0664 0.0664,-20.59571 -20.5976597,-0.0664 z m 494.5859387,2.22656 -18.33203,9.39063 9.39062,18.33203 18.33203,-9.39063 -9.39062,-18.33203 z m -154.87891,9.80274 -17.67382,10.57812 10.58007,17.67383 17.67188,-10.58008 -10.57813,-17.67187 z m -161.12304,1.4375 -1.42578,20.54687 20.54882,1.42578 1.42578,-20.54687 -20.54882,-1.42578 z m -18.55469,9.1582 -19.50391,6.62109 6.6211,19.50391 19.5039,-6.6211 -6.62109,-19.5039 z m -103.462889,0.12109 -14.6211,14.50586 14.50391,14.62305 14.62305,-14.50586 -14.50586,-14.62305 z m 502.107419,0.38477 -18.33203,9.39062 9.39062,18.33203 18.33203,-9.39062 -9.39062,-18.33203 z m -259.49023,1.71289 -18.39258,9.27148 9.26953,18.39258 18.39258,-9.27148 -9.26953,-18.39258 z m 114.68554,2.13867 -20.45508,2.4082 2.40625,20.45508 20.45704,-2.4082 -2.40821,-20.45508 z m 184.69531,3.93359 -14.2871,14.83594 14.83789,14.28711 14.28711,-14.83789 -14.8379,-14.28516 z m -496.019529,15.89063 -7.11914,19.32617 19.326169,7.12109 7.1211,-19.32812 -19.328129,-7.11914 z m 370.509769,5.5332 -17.67383,10.58008 10.58008,17.67188 17.67187,-10.58008 -10.57812,-17.67188 z m -230.41211,14.21094 -6.62109,19.50391 19.5039,6.61914 6.6211,-19.50391 -19.50391,-6.61914 z m -37.5957,1.87109 -20.59571,0.0684 0.0664,20.59571 20.5957,-0.0664 -0.0664,-20.59766 z m 185.83593,4.35157 -18.76367,8.49609 8.4961,18.76367 18.76367,-8.49609 -8.4961,-18.76367 z m -377.7011687,4.15429 -6.62109,19.50391 19.5038997,6.61914 6.6211,-19.50391 -19.5039097,-6.61914 z m 51.1816397,0.20313 -1.42578,20.54687 20.54883,1.42578 1.425781,-20.54687 -20.548831,-1.42578 z m 474.980469,7.28515 -6.61914,19.50586 19.50391,6.61914 6.61914,-19.5039 -19.50391,-6.6211 z m -109.29297,3.08204 -9.24414,18.40625 18.4043,9.24414 9.24414,-18.40625 -18.4043,-9.24414 z m -266.90234,15.8457 -20.54688,1.42578 1.42579,20.54883 20.54687,-1.42578 -1.42578,-20.54883 z m 160.64453,3.54297 -19.50586,6.61914 6.6211,19.50586 19.5039,-6.6211 -6.61914,-19.5039 z m 273.03516,1.71094 -19.32618,7.11914 7.11915,19.32812 19.32812,-7.12109 -7.12109,-19.32617 z m -344.11719,7.49414 -20.5957,0.0664 0.0664,20.59766 20.59766,-0.0664 -0.0684,-20.59765 z m -147.999999,1.23828 -18.33203,9.39062 9.39062,18.33203 18.332029,-9.39062 -9.390619,-18.33203 z m 409.109369,11.39648 -14.38867,14.73828 14.73633,14.38867 14.38867,-14.73828 -14.73633,-14.38867 z m -247.51171,2.33984 -7.1211,19.32813 19.32617,7.11914 7.1211,-19.32617 -19.32617,-7.1211 z m 358.65625,5.99024 -14.38868,14.73828 14.73828,14.38867 14.38868,-14.73828 -14.73828,-14.38867 z m -600.970709,5.0293 -20.4570297,2.4082 2.40820002,20.45508 20.45507968,-2.40821 -2.40625,-20.45507 z m 408.939459,4.24218 -14.62305,14.50586 14.50586,14.62305 14.62304,-14.50586 -14.50585,-14.62305 z m -217.43946,0.98438 -20.38672,2.93359 2.9336,20.38672 20.38672,-2.93359 -2.9336,-20.38672 z m 359.20508,1.84961 -18.33203,9.39062 9.39062,18.33203 18.33204,-9.39062 -9.39063,-18.33203 z m -205.88867,3.52148 -20.59766,0.0664 0.0664,20.59766 20.59765,-0.0664 -0.0664,-20.59766 z m -202.74024,10.03516 -14.0039,15.10351 15.10351,14.0059 14.00391,-15.10355 -15.10352,-14.00586 z m -41.81445,1.55078 -20.386719,2.93359 2.933599,20.38672 20.38671,-2.93359 -2.93359,-20.38672 z M 77.855107,357.98202 60.183231,368.5621 70.76331,386.23392 88.435181,375.65389 77.855107,357.98202 Z m 184.173823,5.32617 -18.39257,9.27148 9.26953,18.39255 18.39258,-9.2715 -9.26954,-18.39253 z m 226.63086,1.14844 -20.45703,2.40625 2.40821,20.45704 20.45703,-2.4082 -2.40821,-20.45509 z m -94.32617,1.34961 -18.53906,8.97656 8.97656,18.53902 18.53906,-8.9765 -8.97656,-18.53908 z m -72.74414,12.33789 -20.54883,1.42578 1.42578,20.54691 20.54883,-1.4258 -1.42578,-20.54689 z m 309.14649,6.94529 -14.00391,15.1035 15.10352,14.0059 14.0039,-15.1035 -15.10351,-14.0059 z m -41.81446,1.5508 -20.38672,2.9336 2.9336,20.3867 20.38672,-2.9336 -2.9336,-20.3867 z m -248.77929,0.6641 -6.61914,19.5039 19.5039,6.6191 6.6211,-19.5039 -19.50586,-6.6191 z m 207.70312,2.5097 -17.67383,10.5801 10.58008,17.6719 17.67188,-10.5801 -10.57813,-17.6719 z m -359.05469,2.9219 -18.39257,9.2715 9.27148,18.3926 18.39062,-9.2715 -9.26953,-18.3926 z m -172.130859,13.1309 -19.3281197,7.1211 7.12109,19.3261 19.3261697,-7.1211 -7.11914,-19.3261 z m 80.89258,3.8261 -18.392576,9.2715 9.271486,18.3926 18.392579,-9.2715 -9.271489,-18.3926 z m 300.074219,1.791 -19.32617,7.1211 7.12109,19.3262 19.32617,-7.1211 -7.12109,-19.3262 z m 31.53711,2.0332 -6.62109,19.5059 19.5039,6.6191 6.6211,-19.5038 -19.50391,-6.6212 z m -277.86719,9.5625 -18.96484,8.0372 8.03711,18.9648 18.96484,-8.0371 -8.03711,-18.9649 z m 59.88086,7.6504 -14.38867,14.7383 14.73828,14.3887 14.38867,-14.7383 -14.73828,-14.3887 z m 46.35352,0.4981 -19.50391,6.6211 6.6211,19.5039 19.5039,-6.6211 -6.62109,-19.5039 z m 37.59375,1.873 -0.0664,20.5957 20.59766,0.066 0.0664,-20.5957 -20.59765,-0.066 z m -250.328129,1.2247 -14.38867,14.7382 14.73633,14.3887 14.38867,-14.7383 -14.73633,-14.3886 z m 441.851569,3.373 -19.32813,7.1191 7.12109,19.3282 19.32813,-7.1211 -7.12109,-19.3262 z m 80.89257,3.8262 -18.39257,9.2715 9.27148,18.3925 18.39258,-9.2715 -9.27149,-18.3925 z m 53.74414,13.3867 -18.96289,8.0371 8.03711,18.9648 18.96485,-8.039 -8.03907,-18.9629 z m -237.13867,4.4023 -0.0664,20.5977 20.5957,0.066 0.0684,-20.5957 -20.59766,-0.068 z m -266.96875,1.6543 -17.671869,10.5782 10.578119,17.6738 17.67383,-10.5801 -10.58008,-17.6719 z m 397.60742,5.1895 -14.38867,14.7383 14.73828,14.3886 14.38868,-14.7382 -14.73829,-14.3887 z m -177.76171,1.8652 -1.42579,20.5469 20.54883,1.4258 1.42578,-20.5469 -20.54882,-1.4258 z m -145.6836,7.8985 -20.45508,2.4062 2.40821,20.457 20.45507,-2.4082 -2.4082,-20.4551 z"
     style="color:#000000;clip-rule:nonzero;display:inline;overflow:visible;visibility:visible;opacity:1;isolation:auto;mix-blend-mode:normal;color-interpolation:sRGB;color-interpolation-filters:linearRGB;solid-color:#000000;solid-opacity:1;fill:#525252;fill-opacity:0.11049724;fill-rule:nonzero;stroke:none;stroke-width:10;stroke-linecap:butt;stroke-linejoin:miter;stroke-miterlimit:4;stroke-dasharray:none;stroke-dashoffset:0;stroke-opacity:1;marker:none;marker-start:none;marker-mid:none;marker-end:none;color-rendering:auto;image-rendering:auto;shape-rendering:auto;text-rendering:auto;enable-background:accumulate" />
  <path
     id="path4180"
     d="M 247.01562 0 L 261.55469 24.283203 L 296.15625 3.5683594 L 294.01953 0 L 247.01562 0 z M 320.48633 0 L 321.69727 8.4179688 L 361.61523 2.6738281 L 361.23047 0 L 320.48633 0 z M 421.86914 0 L 439.89062 16.710938 L 455.38672 0 L 421.86914 0 z M 43.074219 15.380859 L 30.111328 53.568359 L 68.302734 66.527344 L 81.261719 28.339844 L 43.074219 15.380859 z M 492.64453 37.013672 L 456.63281 55.166016 L 474.78516 91.177734 L 510.79688 73.025391 L 492.64453 37.013672 z M 155.625 62.722656 L 117.78516 76.666016 L 131.72461 114.50391 L 169.56641 100.5625 L 155.625 62.722656 z M 597.87109 63.224609 L 560.74219 78.958984 L 576.47852 116.0918 L 613.60742 100.35547 L 597.87109 63.224609 z M 314.00586 70.214844 L 277.99414 88.367188 L 296.14844 124.37891 L 332.1582 106.22461 L 314.00586 70.214844 z M 419.23633 96.423828 L 382.10547 112.16016 L 397.8418 149.29297 L 434.97266 133.55664 L 419.23633 96.423828 z M 536.47852 111.40234 L 508.30664 140.25977 L 537.16016 168.43164 L 565.33203 139.57617 L 536.47852 111.40234 z M 210.71484 118.44336 L 182.54297 147.30078 L 211.39844 175.47266 L 239.57031 146.61523 L 210.71484 118.44336 z M 640 159.44336 L 619.7832 169.80078 L 638.16797 205.69336 L 640 204.75586 L 640 159.44336 z M 352.43359 170.60742 L 317.83008 191.31836 L 338.54492 225.92188 L 373.14648 205.20703 L 352.43359 170.60742 z M 36.966797 173.42188 L 34.175781 213.65039 L 74.408203 216.44336 L 77.201172 176.21289 L 36.966797 173.42188 z M 0.63867188 191.35352 L 0 191.57031 L 0 234.1582 L 13.603516 229.54102 L 0.63867188 191.35352 z M 273.0918 195.69727 L 237.08203 213.84961 L 255.23047 249.86133 L 291.24219 231.70898 L 273.0918 195.69727 z M 497.63867 199.88477 L 457.58789 204.59961 L 462.30078 244.64844 L 502.35352 239.93359 L 497.63867 199.88477 z M 613.51953 249.5332 L 578.91406 270.24805 L 599.63086 304.84766 L 634.23047 284.13281 L 613.51953 249.5332 z M 162.38867 277.35742 L 149.42578 315.54297 L 187.61328 328.50391 L 200.57617 290.31641 L 162.38867 277.35742 z M 88.779297 281.01953 L 48.455078 281.1543 L 48.585938 321.47852 L 88.910156 321.34961 L 88.779297 281.01953 z M 452.63281 289.53906 L 415.89453 306.17383 L 432.5293 342.91211 L 469.26758 326.27734 L 452.63281 289.53906 z M 529.32031 318.36914 L 511.2207 354.4082 L 547.25586 372.50781 L 565.35547 336.46875 L 529.32031 318.36914 z M 6.7460938 349.39453 L 0 349.86328 L 0 390.28906 L 9.5371094 389.62695 L 6.7460938 349.39453 z M 321.27539 356.33203 L 283.08398 369.29102 L 296.04883 407.48242 L 334.23633 394.51758 L 321.27539 356.33203 z M 182.10156 374.35352 L 141.77734 374.48438 L 141.9082 414.8125 L 182.23633 414.68359 L 182.10156 374.35352 z M 208.72656 403.67383 L 194.7832 441.51562 L 232.62305 455.45508 L 246.56445 417.61523 L 208.72656 403.67383 z M 534.96484 433.55469 L 506.33398 461.95508 L 524.23438 480 L 545.4082 480 L 563.36719 462.18555 L 534.96484 433.55469 z M 109.23438 435.48242 L 69.318359 441.22461 L 74.898438 480 L 82.988281 480 L 114.97852 475.39648 L 109.23438 435.48242 z M 409.41602 445.99805 L 369.08789 446.12891 L 369.19727 480 L 409.52539 480 L 409.41602 445.99805 z M 12.466797 465.64648 L 0 479.0918 L 0 480 L 27.945312 480 L 12.466797 465.64648 z "
     style="color:#000000;clip-rule:nonzero;display:inline;overflow:visible;visibility:visible;opacity:1;isolation:auto;mix-blend-mode:normal;color-interpolation:sRGB;color-interpolation-filters:linearRGB;solid-color:#000000;solid-opacity:1;fill:#525252;fill-opacity:0.11049727;fill-rule:nonzero;stroke:none;stroke-width:10;stroke-linecap:butt;stroke-linejoin:miter;stroke-miterlimit:4;stroke-dasharray:none;stroke-dashoffset:0;stroke-opacity:1;marker:none;marker-start:none;marker-mid:none;marker-end:none;color-rendering:auto;image-rendering:auto;shape-rendering:auto;text-rendering:auto;enable-background:accumulate" />
</svg>
