<?xml version="1.0" encoding="UTF-8" standalone="no"?>
<svg xmlns:dc="http://purl.org/dc/elements/1.1/" xmlns:cc="http://creativecommons.org/ns#" xmlns:rdf="http://www.w3.org/1999/02/22-rdf-syntax-ns#" xmlns:svg="http://www.w3.org/2000/svg" xmlns="http://www.w3.org/2000/svg" xmlns:xlink="http://www.w3.org/1999/xlink" version="1.1" id="greenboard01" viewBox="0 0 640 480" height="100%" width="100%">
 <defs>
 <style>
 svg#greenboard01 #lines line { fill:none;stroke:#61bc3a;stroke-width:5;opacity:0.2; }
 </style>
 </defs>
 
 <rect x="0" y="0" width="640" height="480" style="fill:#3daa54"/>
 
 <g id="lines">
 <line x1="0" y1="0" x2="640" y2="0"/> 
 <line x1="0" y1="10" x2="640" y2="10"/> 
 <line x1="0" y1="20" x2="640" y2="20"/> 
 <line x1="0" y1="30" x2="640" y2="30"/> 
 <line x1="0" y1="40" x2="640" y2="40"/> 
 <line x1="0" y1="50" x2="640" y2="50"/> 
 <line x1="0" y1="60" x2="640" y2="60"/> 
 <line x1="0" y1="70" x2="640" y2="70"/> 
 <line x1="0" y1="80" x2="640" y2="80"/>  
 <line x1="0" y1="90" x2="640" y2="90"/>  
 <line x1="0" y1="100" x2="640" y2="100"/>  
 <line x1="0" y1="110" x2="640" y2="110"/> 
 </g>
 
 <use transform="translate(0,120)" xlink:href="#lines"/>
 <use transform="translate(0,240)" xlink:href="#lines"/>
 <use transform="translate(0,360)" xlink:href="#lines"/>
 
</svg>
