<?xml version="1.0" encoding="UTF-8" standalone="no"?>
<svg
   xmlns:dc="http://purl.org/dc/elements/1.1/"
   xmlns:cc="http://creativecommons.org/ns#"
   xmlns:rdf="http://www.w3.org/1999/02/22-rdf-syntax-ns#"
   xmlns:svg="http://www.w3.org/2000/svg"
   xmlns="http://www.w3.org/2000/svg"
   xmlns:xlink="http://www.w3.org/1999/xlink"
   xmlns:sodipodi="http://sodipodi.sourceforge.net/DTD/sodipodi-0.dtd"
   xmlns:inkscape="http://www.inkscape.org/namespaces/inkscape"
   width="100%"
   height="100%"
   viewBox="0 0 80 60"
   id="ppvs"
   version="1.1"
   inkscape:version="0.91 r13725"
   sodipodi:docname="price05.svg">
  <metadata
     id="metadata241">
    <rdf:RDF>
      <cc:Work
         rdf:about="">
        <dc:format>image/svg+xml</dc:format>
        <dc:type
           rdf:resource="http://purl.org/dc/dcmitype/StillImage" />
        <dc:title></dc:title>
      </cc:Work>
    </rdf:RDF>
  </metadata>
  <sodipodi:namedview
     pagecolor="#ffffff"
     bordercolor="#666666"
     borderopacity="1"
     objecttolerance="10"
     gridtolerance="10"
     guidetolerance="10"
     inkscape:pageopacity="0"
     inkscape:pageshadow="2"
     inkscape:window-width="903"
     inkscape:window-height="825"
     id="namedview239"
     showgrid="false"
     inkscape:zoom="4.1909664"
     inkscape:cx="68.980343"
     inkscape:cy="52.298153"
     inkscape:window-x="0"
     inkscape:window-y="0"
     inkscape:window-maximized="0"
     inkscape:current-layer="ppvs" />
  <defs
     id="defs5015">
    <clipPath
       id="clipPath3466">
      <path
         style="opacity:1;fill:#000000;fill-opacity:1;fill-rule:evenodd;stroke:none;marker:none;visibility:visible;display:inline;overflow:visible;enable-background:accumulate"
         id="p3468"
         d="M 26.81,-0.81 L 11.53,2.96 L 11,10.21 L 9.46,18.37 L 12.46,21.96 L 13.06,22.25 C 13.01,22.33 12.99,22.41 13,22.5 C 13.02,23.02 14.1,23.41 15.4,23.34 C 16.68,23.27 17.7,22.79 17.71,22.28 L 19.15,22.09 L 33.06,20.93 C 33.11,21.44 34.17,21.84 35.43,21.81 C 36.72,21.78 37.76,21.33 37.75,20.81 L 39.15,20.81 L 40.53,2.78 L 26.81,-0.81 z" />
    </clipPath>
  </defs>
  <rect
     y="0"
     x="0"
     height="60"
     width="80"
     id="rect0001"
     style="fill:#7eb4db" />
  <use
     x="0"
     y="0"
     xlink:href="#g4100"
     id="use5160"
     transform="matrix(0.99139466,-0.13090697,0.13090697,0.99139466,-17.916199,8.4468974)"
     width="100%"
     height="100%" />
  <circle
     r="6.0040002"
     cy="51.944263"
     cx="41.260628"
     id="circle4474"
     style="fill:#ffffff;fill-rule:nonzero;stroke-width:5;stroke-linecap:round;stroke-linejoin:round;marker:none" />
  <circle
     r="6.0040002"
     cy="11.010209"
     cx="35.086594"
     id="circle5159-6"
     style="fill:#ffffff;fill-rule:nonzero;stroke-width:5;stroke-linecap:round;stroke-linejoin:round;marker:none" />
  <circle
     style="fill:#ffffff;fill-rule:nonzero;stroke-width:5;stroke-linecap:round;stroke-linejoin:round;marker:none"
     id="circle6016"
     cx="10.673128"
     cy="11.751499"
     r="6.0040002" />
  <circle
     style="fill:#ffffff;fill-rule:nonzero;stroke-width:5;stroke-linecap:round;stroke-linejoin:round;marker:none"
     id="circle6018"
     cx="56.328884"
     cy="37.581379"
     r="6.0040002" />
  <g
     transform="matrix(0.319,0,0,0.358,-1.9808735,-22.7985)"
     id="text6032"
     style="font-style:normal;font-variant:normal;font-weight:bold;font-stretch:semi-expanded;font-size:22.5px;line-height:125%;font-family:Magneto;-inkscape-font-specification:'Magneto Bold Semi-Expanded';letter-spacing:0px;word-spacing:0px;fill:#333333;stroke-width:1px;stroke-linecap:butt;stroke-opacity:1">
    <path
       id="path6045"
       d="m 39.164,88.375 -1.329,3.131 -5.646,0 -0.966,2.647 1.549,0 q 2.559,0 3.878,1.087 1.417,1.175 1.439,2.878 0.01,1.834 -1.56,3.438 -2.57,2.647 -7.185,2.647 -0.988,0 -1.988,-0.153 -1.142,-0.153 -1.9,-0.9 -0.758,-0.747 -0.758,-1.768 0,-1.087 0.845,-1.856 0.856,-0.78 2.054,-0.78 1.219,0 2.076,0.78 0.856,0.769 0.856,1.856 0,0.472 -0.186,0.944 1.307,-0.164 2.23,-1.274 0.878,-1.065 0.878,-2.307 0,-1.142 -0.922,-1.856 -1.043,-0.823 -3.021,-0.823 l -2.922,0 2.702,-7.69 9.876,0 z"
       inkscape:connector-curvature="0" />
  </g>
  <path
     style="font-style:normal;font-variant:normal;font-weight:bold;font-stretch:semi-expanded;font-size:medium;line-height:125%;font-family:Magneto;-inkscape-font-specification:'Magneto Bold Semi-Expanded';letter-spacing:0px;word-spacing:0px;fill:#333333;stroke-width:1px;stroke-linecap:butt;stroke-opacity:1"
     d="m 59.171881,34.727379 -1.166,1.33 -1.756,-0.206 0.903,1.521 -0.739,1.606 1.726,-0.391 1.299,1.201 0.162,-1.763 1.543,-0.864 -1.625,-0.698 -0.345,-1.736 z"
     id="path6078"
     inkscape:connector-curvature="0" />
  <path
     id="path6080"
     d="m 13.901127,9.5105004 -1.166,1.3289996 -1.756,-0.206 0.903,1.521 -0.739,1.606 1.725,-0.389 1.3,1.2 0.162,-1.761 1.543,-0.865 -1.627,-0.698 -0.343,-1.7359996 z"
     style="font-style:normal;font-variant:normal;font-weight:bold;font-stretch:semi-expanded;font-size:medium;line-height:125%;font-family:Magneto;-inkscape-font-specification:'Magneto Bold Semi-Expanded';letter-spacing:0px;word-spacing:0px;fill:#333333;stroke-width:1px;stroke-linecap:butt;stroke-opacity:1"
     inkscape:connector-curvature="0" />
  <circle
     style="fill:#ffffff;fill-rule:nonzero;stroke-width:5;stroke-linecap:round;stroke-linejoin:round;marker:none"
     id="circle4482"
     cx="65.83744"
     cy="22.853079"
     r="6.0040002" />
  <path
     style="font-style:normal;font-variant:normal;font-weight:bold;font-stretch:semi-expanded;font-size:medium;line-height:125%;font-family:Magneto;-inkscape-font-specification:'Magneto Bold Semi-Expanded';letter-spacing:0px;word-spacing:0px;fill:#333333;stroke-width:1px;stroke-linecap:butt;stroke-opacity:1"
     d="m 69.070441,20.390078 -1.166,1.33 -1.756,-0.206 0.903,1.521 -0.739,1.606 1.726,-0.391 1.299,1.201 0.162,-1.763 1.543,-0.864 -1.625,-0.698 -0.345,-1.736 z"
     id="path4488"
     inkscape:connector-curvature="0" />
  <path
     id="path4523"
     d="m 39.887628,48.934261 c -0.52,0 -0.891,0.049 -1.112,0.148 -0.328,0.142 -0.492,0.42 -0.492,0.832 0,0.251 0.085,0.463 0.258,0.636 0.163,0.164 0.356,0.247 0.574,0.247 0.223,0 0.416,-0.082 0.581,-0.247 0.174,-0.172 0.262,-0.384 0.262,-0.636 0,-0.036 -0.005,-0.089 -0.015,-0.159 l 0.041,0 c 0.317,0 0.476,0.241 0.476,0.724 0,0.466 -0.296,1.002 -0.89,1.606 -0.494,0.503 -0.978,0.866 -1.45,1.091 l -0.271,1.054 3.299,0 0.325,-1.076 -2.161,0 c 0.621,-0.194 1.175,-0.532 1.662,-1.013 0.577,-0.569 0.865,-1.185 0.865,-1.849 0,-0.598 -0.247,-0.998 -0.745,-1.199 -0.26,-0.105 -0.663,-0.159 -1.206,-0.159 z"
     style="font-style:normal;font-variant:normal;font-weight:bold;font-stretch:semi-expanded;font-size:medium;line-height:125%;font-family:Magneto;-inkscape-font-specification:'Magneto Bold Semi-Expanded';letter-spacing:0px;word-spacing:0px;fill:#333333;stroke-width:1px;stroke-linecap:butt;stroke-opacity:1"
     inkscape:connector-curvature="0" />
  <path
     id="path4876"
     d="m 44.739628,49.709261 -1.085,1.235 -1.633,-0.192 0.84,1.413 -0.687,1.493 1.604,-0.362 1.207,1.116 0.15,-1.638 1.434,-0.803 -1.511,-0.649 -0.32,-1.613 z"
     style="font-style:normal;font-variant:normal;font-weight:bold;font-stretch:semi-expanded;font-size:medium;line-height:125%;font-family:Magneto;-inkscape-font-specification:'Magneto Bold Semi-Expanded';letter-spacing:0px;word-spacing:0px;fill:#333333;stroke-width:1px;stroke-linecap:butt;stroke-opacity:1"
     inkscape:connector-curvature="0" />
  <path
     style="font-style:normal;font-variant:normal;font-weight:bold;font-stretch:semi-expanded;font-size:medium;line-height:125%;font-family:Magneto;-inkscape-font-specification:'Magneto Bold Semi-Expanded';letter-spacing:0px;word-spacing:0px;fill:#333333;stroke-width:1px;stroke-linecap:butt;stroke-opacity:1"
     d="m 31.650591,8.6542105 -0.385,1.004 1.923,0 -1.022,1.2459995 c 0.286,0.026 0.554,0.135 0.803,0.33 0.295,0.235 0.443,0.52 0.443,0.854 0,0.287 -0.083,0.532 -0.247,0.736 -0.169,0.21 -0.385,0.324 -0.648,0.338 0.042,-0.094 0.063,-0.197 0.063,-0.309 0,-0.244 -0.096,-0.448 -0.289,-0.613 -0.183,-0.155 -0.399,-0.233 -0.648,-0.233 -0.243,0 -0.458,0.077 -0.641,0.233 -0.192,0.164 -0.288,0.368 -0.288,0.613 0,0.242 0.096,0.446 0.288,0.613 0.183,0.157 0.399,0.242 0.648,0.254 0.479,0.02 0.905,8.18e-4 1.276,-0.058 0.584,-0.091 1.052,-0.275 1.4,-0.555 0.415,-0.336 0.622,-0.782 0.622,-1.336 0,-0.26 -0.091,-0.521 -0.277,-0.782 -0.171,-0.244 -0.38,-0.431 -0.624,-0.56 l 1.219,-1.7749995 -3.617,0 z m 6.21,0.587 -1.05,1.1959995 -1.579,-0.187 0.812,1.367 -0.663,1.445 1.55,-0.351 1.167,1.079 0.147,-1.583 1.387,-0.777 -1.461,-0.627 -0.309,-1.5599995 z"
     id="path5220"
     inkscape:connector-curvature="0" />
  <path
     d="m 51.886881,37.617379 q 0,-1.152 0.83,-2.155 0.695,-0.833 1.758,-1.364 l 1.073,0 q -1.049,0.876 -1.501,1.758 0.774,0.011 1.278,0.475 0.545,0.499 0.545,1.349 0,0.876 -0.552,1.447 -0.531,0.55 -1.32,0.566 -2.113,0.05 -2.113,-2.076 z m 1.324,0.668 q 0,0.782 0.476,0.782 0.354,0 0.597,-0.574 0.205,-0.475 0.205,-0.932 0,-0.353 -0.198,-0.656 -0.212,-0.318 -0.528,-0.373 -0.198,0.251 -0.371,0.798 -0.18,0.562 -0.18,0.955 z"
     id="path6060"
     style="font-style:normal;font-variant:normal;font-weight:bold;font-stretch:semi-expanded;font-size:medium;line-height:125%;font-family:Magneto;-inkscape-font-specification:'Magneto Bold Semi-Expanded';letter-spacing:0px;word-spacing:0px;fill:#333333;stroke-width:1px;stroke-linecap:butt;stroke-opacity:1"
     inkscape:connector-curvature="0" />
  <path
     id="path4514"
     d="m 65.745441,22.374078 -0.304,1.095 -0.755,0 -0.421,1.518 -1.054,0 0.412,-1.518 -1.528,0 q -0.444,0 -0.444,-0.441 0,-0.199 0.119,-0.368 l 0.96,-1.364 q -0.231,-0.092 -0.377,-0.33 -0.143,-0.242 -0.143,-0.542 0,-0.399 0.239,-0.668 0.231,-0.253 0.538,-0.249 0.327,0 0.556,0.287 0.228,0.284 0.228,0.711 0,0.353 -0.245,0.699 l -0.831,1.172 1.186,0 0.778,-2.794 1.063,0 -0.743,2.794 0.767,0 z"
     style="font-style:normal;font-variant:normal;font-weight:bold;font-stretch:semi-expanded;font-size:medium;line-height:125%;font-family:Magneto;-inkscape-font-specification:'Magneto Bold Semi-Expanded';letter-spacing:0px;word-spacing:0px;fill:#333333;stroke-width:1px;stroke-linecap:butt;stroke-opacity:1"
     inkscape:connector-curvature="0" />
  <g
     id="layer4-7"
     transform="matrix(0.46430198,0.29332051,-0.29332051,0.46430198,69.49202,24.351976)">
    <path
       style="fill:#b5b4af"
       id="path5496-0"
       d="m 11.48,8.2 c 0.16,0.86 -0.05,1.45 -0.26,1.77 -0.21,0.32 0.37,0.75 0.21,1.24 -0.16,0.48 -0.26,1.4 -0.05,1.45 0.21,0.05 1.56,-1.07 2.1,-1.99 0.53,-0.91 0.37,-1.4 0.37,-1.4 0,0 0.21,1.02 1.5,0.64 0.26,0.53 1.4,2.75 1.4,2.75 l 4.2,-2.37 c 0,0 -1.5,-2.37 -1.83,-2.8 0.32,-0.26 0.91,-0.86 0.91,-1.34 0,-0.48 -0.48,-1.24 -1.24,-1.83 C 18.06,3.72 17.2,2.37 14.66,2.59 12.13,2.8 9.54,4.53 9.32,4.69 9.11,4.85 9.05,5.77 9.22,6.2 c 0.16,0.43 1.02,1.67 1.61,1.61 0.26,0.05 0.64,0.37 0.64,0.37 z"
       inkscape:connector-curvature="0" />
    <path
       style="fill:#e0e0e0;fill-opacity:0.32000002"
       id="path5576"
       d="M 14.65,2.59 C 14.02,2.64 13.38,2.8 12.78,3 c 2.34,-0.08 4.2,0.6 5.06,1.9 1.1,1.68 1.04,2.03 0.68,2.46 0.39,0.91 1.36,2.53 1.81,3.28 l 0.62,-0.34 c 0,0 -1.48,-2.38 -1.81,-2.81 0.32,-0.26 0.9,-0.85 0.9,-1.34 0,-0.48 -0.49,-1.25 -1.25,-1.84 -0.74,-0.6 -1.6,-1.94 -4.14,-1.72 z"
       inkscape:connector-curvature="0" />
    <path
       style="fill:#e0e0e0;fill-opacity:0.58999999"
       id="path5541"
       d="m 15.96,8.78 c -0.23,0.15 -0.6,0.53 -0.78,1.18 0.06,-0.01 0.11,-0.01 0.18,-0.03 0.26,0.53 1.4,2.75 1.4,2.75 l 0.87,-0.5 c 0,0 -1.36,-3.62 -1.68,-3.4 z"
       inkscape:connector-curvature="0" />
    <path
       style="fill:#cbd552"
       id="path4797"
       d="m 20.71,10.05 c 1.82,2.15 6.29,6.46 7.12,7.29 2.23,0.82 2.56,1.82 3.23,2.98 0.66,1.15 8.03,13.5 8.61,14.58 0.57,1.07 -0.57,2.73 -1.07,3.31 -0.49,0.57 -4.8,3.97 -5.96,4.72 -1.15,0.74 -4.55,1.4 -5.21,1.4 -0.66,0 -1.57,-0.24 -2.48,-1.9 -0.91,-1.65 -4.97,-9.77 -5.46,-10.85 -0.49,-1.07 -0.82,-2.31 -0.33,-4.8 0.49,-2.48 0.82,-4.14 0.99,-4.63 0.16,-0.49 0.33,-0.66 0.91,-1.07 0.41,-1.32 -0.49,-1.98 -0.74,-2.23 -0.24,-0.24 -0.62,-0.5 -0.71,-1.17 -0.08,-0.66 -0.24,-0.98 -0.69,-1.14 -0.3,-0.1 -0.74,-0.63 -0.66,-1.21 0.08,-0.57 -0.74,-1.1 -1.4,-1.26 -0.66,-0.16 -0.49,-1.07 -0.49,-1.65 0,-0.57 3.23,-2.81 4.39,-2.31 z"
       inkscape:connector-curvature="0" />
    <path
       style="fill:#a5b62e"
       id="path5405"
       d="m 20.18,10 c -1.39,0.1 -3.87,1.86 -3.87,2.37 0,0.57 -0.16,1.49 0.5,1.65 0.66,0.16 1.48,0.7 1.4,1.28 -0.08,0.57 0.34,1.11 0.65,1.21 0.45,0.15 0.63,0.46 0.71,1.12 0.08,0.66 0.47,0.93 0.71,1.18 0.2,0.2 0.79,0.65 0.81,1.53 1.44,-0.59 4.35,-2.43 6.21,-3.53 C 26.05,15.58 22.36,12.02 20.68,10.03 20.57,10 20.38,9.98 20.18,10 Z"
       inkscape:connector-curvature="0" />
    <path
       style="fill:none;stroke:#2b561b;stroke-width:2.28999996;stroke-opacity:0.26000001"
       id="path5488"
       d="m 19.66,10.52 c 0,0 -0.17,1.1 0.39,1.76 0.57,0.66 3.09,3 5.21,6.14"
       inkscape:connector-curvature="0" />
    <path
       style="fill:#ebf7a4;fill-opacity:0.17000002"
       id="path5311"
       d="m 27.53,17.03 c -2.21,0.72 -5.1,0.78 -6.9,2.09 0.33,0.35 0.7,0.96 0.4,1.93 -0.57,0.41 -0.74,0.59 -0.9,1.09 -0.16,0.49 -0.5,2.13 -1,4.62 -0.49,2.48 -0.15,3.73 0.34,4.81 0.21,0.45 1.23,2.46 2.21,4.43 C 24.58,32.27 29,26.49 31.89,21.69 31.72,21.4 31.11,20.4 31.05,20.29 30.39,19.14 30.07,18.15 27.84,17.33 27.8,17.29 27.59,17.08 27.53,17.02 Z"
       inkscape:connector-curvature="0" />
    <path
       style="fill:#d9f465;fill-opacity:0.45"
       id="path5313"
       d="m 27.21,16.75 c -2.51,1.64 -5.1,3.75 -7.25,6 -0.18,0.75 -0.44,2.02 -0.84,4.03 -0.36,1.8 -0.29,2.96 -0.03,3.87 4.16,-0.81 9.56,-3.05 13.53,-7.71 -0.47,-0.79 -1.44,-2.41 -1.56,-2.62 -0.66,-1.15 -0.98,-2.14 -3.21,-2.96 -0.07,-0.07 -0.48,-0.45 -0.62,-0.59 z"
       inkscape:connector-curvature="0" />
    <path
       style="fill:#91a132"
       id="path5307"
       d="m 27.4,17.34 c -0.62,0.04 -1.14,0.33 -1.43,1.62 -0.58,2.57 -1.86,6.44 -2.21,7.5 -0.35,1.05 0,2.56 0.93,3.96 0.93,1.4 4.1,7.97 4.68,9.03 0.45,0.82 1.83,2.82 3.09,3.56 0.05,-0.03 0.13,-0.06 0.18,-0.09 1.15,-0.74 5.44,-4.13 5.93,-4.71 0.49,-0.57 1.67,-2.23 1.09,-3.31 -0.57,-1.07 -7.96,-13.43 -8.62,-14.59 -0.65,-1.15 -0.97,-2.14 -3.18,-2.96 -0.01,-4.63e-4 -0.02,4.24e-4 -0.03,0 -0.14,0 -0.3,0 -0.43,0 z"
       inkscape:connector-curvature="0" />
    <path
       style="fill:#687725;fill-opacity:0.22000002"
       id="path5355"
       d="m 25.4,21.25 c -0.61,2.17 -1.39,4.44 -1.65,5.21 -0.35,1.05 0,2.56 0.93,3.96 0.93,1.4 4.1,7.97 4.68,9.03 0.45,0.82 1.83,2.82 3.09,3.56 0.05,-0.03 0.13,-0.06 0.18,-0.09 1.15,-0.74 5.44,-4.13 5.93,-4.71 0.49,-0.57 1.67,-2.23 1.09,-3.31 -0.2,-0.38 -1.72,-2.94 -3.03,-5.15 -6.32,2.36 -8.66,-0.66 -11.25,-8.5 z"
       inkscape:connector-curvature="0" />
    <path
       style="fill:#49740b;fill-opacity:0.52999998"
       id="path5309"
       d="m 39.81,35.34 c -2.14,2.68 -7.49,6.63 -8.09,7.03 -0.49,0.32 -3.18,1.16 -5.71,1.43 0.52,0.43 1.03,0.53 1.43,0.53 0.66,0 4.05,-0.66 5.21,-1.4 1.15,-0.74 5.44,-4.13 5.93,-4.71 0.43,-0.5 1.37,-1.82 1.21,-2.87 z"
       inkscape:connector-curvature="0" />
    <path
       style="fill:#6c7d19;fill-opacity:0.27000002"
       id="path5350"
       d="m 27.12,17.81 c -0.84,2.56 -2.38,7.3 -2.65,8.65 -0.35,1.75 0.35,2.21 0.93,3.5 0.58,1.28 4.21,8.53 4.56,9.12 0.24,0.41 1.6,2.43 2.9,3.68 0.5,-0.34 1.33,-0.97 2.25,-1.68 -1.67,0.69 -3.79,-1.8 -4.46,-3.87 -1.13,-3.51 -3.34,-9.84 -3.53,-19.4 z m 10.13,12.94 c 0.26,5.68 -0.38,8.58 -1.37,9.78 1.27,-1.01 2.47,-2.02 2.71,-2.31 0.49,-0.57 1.67,-2.23 1.09,-3.31 -0.16,-0.32 -1.48,-2.54 -2.43,-4.16 z"
       inkscape:connector-curvature="0" />
    <path
       style="fill:none;stroke:#96a13e;stroke-width:1.20000005;stroke-opacity:0.42000002"
       id="path5353"
       d="m 27.86,17.45 c -1.01,-0.36 -1.44,0.36 -1.66,1.08 -0.21,0.72 -2.17,7.52 -2.31,8.17 -0.14,0.65 -0.14,1.8 0.36,2.67 0.5,0.86 5.21,9.84 5.5,10.42 0.28,0.57 2.17,2.96 2.75,3.18"
       inkscape:connector-curvature="0" />
    <path
       style="fill:none;stroke:#ffffff;stroke-width:3;stroke-opacity:0.31000001"
       id="path5378"
       d="m 21.69,28.66 1.64,3.95"
       inkscape:connector-curvature="0" />
    <path
       style="fill:none;stroke:#f3f2d4;stroke-width:1.70000005;stroke-opacity:0.56000001"
       id="path5380"
       d="m 23.23,28.22 -1.97,0.65"
       inkscape:connector-curvature="0" />
    <path
       style="fill:#adc292;fill-opacity:0.68999999"
       id="path5403"
       d="m 21.18,10.56 c -0.98,0.17 -1.27,0.3 -1.31,0.68 -0.04,0.45 0.42,0.3 1.06,0.71 0.63,0.4 0.9,1.11 1,1.43 0.72,0.22 1.85,1.55 1.81,2.28 0.68,0.36 1.08,1.09 1.31,1.5 0.2,0.37 1.13,0.68 2.03,-0.56 -1.3,-1.27 -4.15,-4.08 -5.9,-6.06 z"
       inkscape:connector-curvature="0" />
    <path
       style="fill:none;stroke:#e3ec8f;stroke-width:1px;stroke-opacity:0.43999999"
       id="path5407"
       d="m 18.92,14.01 0.59,1.04"
       inkscape:connector-curvature="0" />
    <path
       style="fill:none;stroke:#e3ec8f;stroke-width:1.28999996;stroke-opacity:0.43999999"
       id="path5409"
       d="m 20.33,16.15 0.68,1.13"
       inkscape:connector-curvature="0" />
    <path
       style="fill:none;stroke:#e3ec8f;stroke-width:1.28999996;stroke-opacity:0.43999999"
       id="path5411"
       d="m 22.06,18.51 0.77,1"
       inkscape:connector-curvature="0" />
    <path
       style="fill:none;stroke:#e3ec8f;stroke-width:1px;stroke-opacity:0.43999999"
       id="path5413"
       d="m 17.33,12.23 0.45,0.54"
       inkscape:connector-curvature="0" />
    <path
       style="fill:none;stroke:#ffffff;stroke-width:1px;stroke-opacity:0.76999996"
       id="path5456"
       d="m 27.27,16.95 -0.79,0.47"
       inkscape:connector-curvature="0" />
    <path
       style="fill:none;stroke:#345614;stroke-width:1px;stroke-opacity:0.2"
       id="path5458"
       d="m 17.24,14.09 c 0.53,-0.79 2.33,-2.33 3.13,-1.96"
       inkscape:connector-curvature="0" />
    <path
       style="fill:none;stroke:#345614;stroke-width:1px;stroke-opacity:0.2"
       id="path5460"
       d="m 19.05,16.42 c 0.15,-0.74 2.54,-2.33 3.07,-2.33"
       inkscape:connector-curvature="0" />
    <path
       style="fill:none;stroke:#345614;stroke-width:1px;stroke-opacity:0.2"
       id="path5462"
       d="m 20.37,18.76 c 0.42,-0.79 2.17,-2.22 3.39,-2.38"
       inkscape:connector-curvature="0" />
    <path
       style="fill:none;stroke:#adc62e;stroke-width:1.88999999;stroke-linecap:round;stroke-opacity:0.27000002"
       id="path5490"
       d="m 19.04,14.28 c 0.31,-0.25 0.76,-0.64 1.04,-0.73"
       inkscape:connector-curvature="0" />
    <path
       style="fill:none;stroke:#adc62e;stroke-width:1.70000005;stroke-linecap:round;stroke-opacity:0.27000002"
       id="path5492"
       d="m 20.59,16.54 c 0.31,-0.25 0.76,-0.64 1.04,-0.73"
       inkscape:connector-curvature="0" />
    <path
       style="fill:none;stroke:#adc62e;stroke-width:1.70000005;stroke-linecap:round;stroke-opacity:0.27000002"
       id="path5494"
       d="m 22.23,18.71 c 0.31,-0.25 0.76,-0.64 1.04,-0.73"
       inkscape:connector-curvature="0" />
    <path
       style="fill:#cdd6bc;fill-opacity:0.58999999"
       id="path5530"
       d="m 14.37,5.87 c 0.18,0.82 -0.29,2.43 -0.47,3.56 0.12,0.26 0.48,0.73 1.35,0.53 -0.22,-0.85 0.65,-1.73 1.37,-2.18 -0.11,-1 -1.14,-1.59 -2.25,-1.91 z"
       inkscape:connector-curvature="0" />
    <path
       style="fill:#ffffff;fill-opacity:0.58999999"
       id="path5534"
       d="m 12.68,6.59 c -0.2,0.2 -0.95,1.08 -1.31,1.5 0.04,0.03 0.12,0.09 0.12,0.09 0.16,0.86 -0.06,1.45 -0.28,1.78 -0.21,0.32 0.38,0.76 0.21,1.25 -0.16,0.48 -0.27,1.41 -0.06,1.46 0.08,0.02 0.35,-0.16 0.65,-0.4 0.88,-1.5 0.91,-2.46 0.71,-2.75 C 12.47,9.17 12.57,8.82 13.03,8.46 13.49,8.11 12.91,6.34 12.66,6.59 Z"
       inkscape:connector-curvature="0" />
    <path
       style="fill:#ffffff;fill-opacity:0.33000004"
       id="path5539"
       d="m 12.62,6.28 c 0,0 -1.64,0.45 -1.96,0.59 -0.22,0.09 -0.39,0.38 -0.5,0.59 0.23,0.2 0.47,0.36 0.68,0.34 0.12,0.02 0.25,0.13 0.37,0.21 l 1.4,-1.75 z"
       inkscape:connector-curvature="0" />
    <path
       style="fill:none;stroke:#a3a3a3;stroke-width:0.2"
       id="path5545"
       d="m 11.26,7.95 c 0.71,-0.96 1.14,-1.71 1.71,-1.85 0.57,-0.14 2.43,-0.42 2.96,0.39 0.53,0.82 0.75,0.96 0.92,1.32 0.89,-0.42 1.96,-0.46 2.21,-0.32"
       inkscape:connector-curvature="0" />
    <path
       style="fill:none;stroke:#a3a3a3;stroke-width:0.2"
       id="path5547"
       d="m 11.19,3.73 c 0.35,0.17 1.39,2.53 1.39,2.53"
       inkscape:connector-curvature="0" />
    <path
       style="fill:none;stroke:#a3a3a3;stroke-width:0.2"
       id="path5549"
       d="M 11.87,4.91 C 13.9,4.3 16.09,3.84 18.98,4.66"
       inkscape:connector-curvature="0" />
    <path
       style="fill:#ffffff;fill-opacity:0.68999999"
       id="path5566"
       d="m 9.4,4.87 c -0.06,0 -0.15,0 -0.21,0.06 0,0 0,0.02 0,0.03 C 9.1,5.3 9.11,5.89 9.22,6.21 9.3,6.44 9.59,6.87 9.93,7.25 11.01,6.96 10.4,5.58 10.06,5.28 9.86,5.1 9.62,4.87 9.4,4.87 Z"
       inkscape:connector-curvature="0" />
    <path
       style="fill:#e0e0e0;fill-opacity:0.32000002"
       id="path5578"
       d="M 10.81,3.84 C 10.02,4.25 9.43,4.61 9.34,4.68 9.12,4.84 9.05,5.78 9.21,6.21 c 0.11,0.28 0.49,0.83 0.91,1.22 0.18,-0.37 0.35,-0.74 0.47,-0.9 0.32,-0.47 1.28,-0.44 1.28,-0.44 0,0 -0.49,-0.2 -1.03,-0.78 -0.28,-0.3 -0.28,-0.86 -0.03,-1.47 z"
       inkscape:connector-curvature="0" />
    <path
       style="fill:none;stroke:#b0b0b0;stroke-width:0.40000001"
       id="path5588"
       d="m 16.31,9.2 1.07,1.99"
       inkscape:connector-curvature="0" />
    <path
       style="fill:none;stroke:#a7a7a7;stroke-width:0.40000001"
       id="path5590"
       d="m 17.09,8.77 1.04,2.02"
       inkscape:connector-curvature="0" />
    <path
       style="fill:none;stroke:#a7a7a7;stroke-width:0.40000001"
       id="path5592"
       d="m 17.88,8.48 0.97,1.89"
       inkscape:connector-curvature="0" />
    <path
       style="fill:none;stroke:#a7a7a7;stroke-width:0.40000001"
       id="path5594"
       d="m 18.5,8.35 0.88,1.63"
       inkscape:connector-curvature="0" />
    <path
       style="fill:none;stroke:#c3c3c3;stroke-width:0.40000001"
       id="path5596"
       d="m 16.08,10.18 0.71,1.33"
       inkscape:connector-curvature="0" />
    <path
       style="fill:none;stroke:#3e3e3e;stroke-width:0.5"
       id="stroke02-5"
       d="m 20.71,10.06 c 0.05,0.06 0.15,0.17 0.21,0.25 0,0 0.02,0 0.03,0 0,0 -1.48,-2.38 -1.81,-2.81 0.32,-0.26 0.9,-0.85 0.9,-1.34 0,-0.48 -0.49,-1.25 -1.25,-1.84 C 18.04,3.73 17.17,2.39 14.64,2.61 12.11,2.82 9.55,4.54 9.33,4.7 9.12,4.86 9.05,5.79 9.21,6.23 c 0.16,0.43 1.03,1.64 1.62,1.59 0.26,0.05 0.65,0.37 0.65,0.37 0.16,0.86 -0.06,1.45 -0.28,1.78 -0.21,0.32 0.38,0.76 0.21,1.24 -0.16,0.48 -0.27,1.41 -0.06,1.46 0.21,0.05 1.55,-1.08 2.09,-2 0.4,-0.68 0.42,-1.13 0.4,-1.31 0.06,0.21 0.39,0.88 1.5,0.56 0.21,0.42 0.78,1.54 1.09,2.15"
       inkscape:connector-curvature="0" />
    <path
       style="fill:none;stroke:#26331e;stroke-width:0.5"
       id="stroke01-7"
       d="m 20.71,10.05 c 1.82,2.15 6.29,6.46 7.12,7.29 2.23,0.82 2.56,1.82 3.23,2.98 0.66,1.15 8.03,13.5 8.61,14.58 0.57,1.07 -0.57,2.73 -1.07,3.31 -0.49,0.57 -4.8,3.97 -5.96,4.72 -1.15,0.74 -4.55,1.4 -5.21,1.4 -0.66,0 -1.57,-0.24 -2.48,-1.9 -0.91,-1.65 -4.97,-9.77 -5.46,-10.85 -0.49,-1.07 -0.82,-2.31 -0.33,-4.8 0.49,-2.48 0.82,-4.14 0.99,-4.63 0.16,-0.49 0.33,-0.66 0.91,-1.07 0.41,-1.32 -0.49,-1.98 -0.74,-2.23 -0.24,-0.24 -0.62,-0.5 -0.71,-1.17 -0.08,-0.66 -0.24,-0.98 -0.69,-1.14 -0.3,-0.1 -0.74,-0.63 -0.66,-1.21 0.08,-0.57 -0.74,-1.1 -1.4,-1.26 -0.66,-0.16 -0.49,-1.07 -0.49,-1.65 0,-0.57 3.23,-2.81 4.39,-2.31 z"
       inkscape:connector-curvature="0" />
  </g>
  <use
     x="0"
     y="0"
     xlink:href="#g4100"
     id="use5158"
     transform="matrix(0.96639416,-0.25706482,0.25706482,0.96639416,-6.7369266,22.189179)"
     width="100%"
     height="100%" />
  <g
     style="display:inline"
     id="g4100"
     transform="matrix(0.39231426,0,0,0.39231426,59.990648,-0.53996563)">
    <g
       style="display:inline"
       id="envelope01">
      <path
         style="fill:#8ee03e;fill-opacity:1;fill-rule:evenodd;stroke:none"
         id="p2482"
         d="M 3.5,33.78 6.69,7.41 44.7,11.63 42.02,38 3.5,33.78 Z"
         inkscape:connector-curvature="0" />
      <path
         style="fill:#7ed22c;fill-opacity:0.35;fill-rule:evenodd;stroke:none"
         id="p3299"
         d="M 6.68,7.4 3.5,33.78 3.87,33.81 4.81,31.78 8.81,27 18.56,8.71 6.68,7.4 Z"
         inkscape:connector-curvature="0" />
      <path
         style="display:inline;fill:none;fill-rule:evenodd;stroke:#bffc7f;stroke-width:0.5;stroke-linecap:butt;stroke-linejoin:miter;stroke-miterlimit:4;stroke-dasharray:none;stroke-opacity:0.93000034"
         id="p3293"
         d="M 4.01,33.78 4.84,31.82 24.2,22.24 40.89,35.53 41.81,37.8"
         inkscape:connector-curvature="0" />
      <path
         style="display:inline;fill:#326203;fill-opacity:0.41000001;fill-rule:evenodd;stroke:none"
         id="p3263"
         d="M 6.68,7.4 6.65,7.62 7.09,11.03 21.93,24.93 43.37,14.4 44.68,11.96 44.71,11.62 6.68,7.4 Z"
         inkscape:connector-curvature="0" />
      <path
         style="display:inline;fill:#0e420e;fill-opacity:0.46000001;fill-rule:evenodd;stroke:none"
         id="p3260"
         d="m 6.68,7.4 -0.03,0.13 0.56,3.18 14.94,12.88 21.53,-9.78 1.03,-2.13 0,-0.06 L 6.68,7.4 Z"
         inkscape:connector-curvature="0" />
      <path
         style="display:inline;fill:#4b8711;fill-opacity:0.11000001;fill-rule:evenodd;stroke:none"
         id="p3290"
         d="m 6.68,7.4 -0.47,3.94 c 6.31,6.59 12.74,13.85 14.19,14.81 1.55,1.03 6.69,1.54 8.75,4.94 1.07,1.77 2.05,4.04 2.78,5.81 l 6.1,0.66 c -1.27,-1.07 -2.99,-2.63 -3.63,-3.78 -1.03,-1.86 -3.29,-4.13 -5.25,-5.88 -1.96,-1.75 -4.24,-2.56 -3.31,-2.97 0.93,-0.41 16.09,-8.98 16.81,-9.5 0.37,-0.26 1.24,-1.85 2.03,-3.4 L 44.71,11.62 6.68,7.4 Z"
         inkscape:connector-curvature="0" />
      <path
         style="display:inline;fill:#abf95e;fill-opacity:1;fill-rule:evenodd;stroke:none"
         id="p3257"
         d="M 6.75,7.4 7.53,10.18 24.5,21.71 43.68,13.5 44.59,11.62 6.75,7.4 Z"
         inkscape:connector-curvature="0" />
      <path
         style="display:inline;fill:#5aa016;fill-opacity:0.12000002;fill-rule:evenodd;stroke:none"
         id="p3266"
         d="m 5.56,16.59 -0.97,8.19 c 6.04,4.66 9.25,8.01 10.97,10.31 l 12.62,1.37 C 26.13,34.93 23.3,32.98 19.37,30.5 11.95,25.8 7.7,20.82 5.56,16.59 Z"
         inkscape:connector-curvature="0" />
      <path
         style="display:inline;fill:#326203;fill-opacity:0.06000001;fill-rule:evenodd;stroke:none"
         id="p3269"
         d="m 43.96,19.12 c -4.52,0.9 -16.25,6.13 -16.25,6.13 l 3.6,2.96 c 0,0 1.84,-1.42 5.34,-1.93 2.25,-0.33 4.26,2.47 5.97,5.78 l 1.34,-12.94 z"
         inkscape:connector-curvature="0" />
      <path
         style="display:inline;fill:none;fill-opacity:1;fill-rule:evenodd;stroke:#2d451f;stroke-width:0.5;stroke-linecap:butt;stroke-linejoin:round;stroke-miterlimit:4;stroke-dasharray:none;stroke-opacity:1"
         id="p3287"
         d="M 6.75,7.4 7.53,10.18 24.5,21.71 43.68,13.5 44.59,11.62 6.75,7.4 Z"
         inkscape:connector-curvature="0" />
      <path
         style="fill:none;fill-opacity:1;fill-rule:evenodd;stroke:#000000;stroke-width:0.70096868;stroke-linecap:butt;stroke-linejoin:miter;stroke-miterlimit:4;stroke-dasharray:none;stroke-opacity:1"
         id="stroke01-96"
         d="M 3.5,33.78 6.69,7.41 44.7,11.63 42.02,38 3.5,33.78 Z"
         inkscape:connector-curvature="0" />
    </g>
  </g>
  <g
     style="display:inline"
     id="lock01"
     transform="matrix(0.17866592,-0.36869259,0.36869259,0.17866592,14.145586,52.719155)">
    <path
       style="fill:#b8a270;fill-opacity:1;fill-rule:evenodd;stroke:none"
       id="p2548"
       d="m 10.96,41.61 -0.07,-20.57 27.07,-1.98 1.76,3.08 -0.77,20.13 c 0,0 -3.3,1.21 -13.21,2.09 -9.9,0.88 -13.64,0.33 -13.64,0.33 l -1.14,-3.08 z"
       inkscape:connector-curvature="0" />
    <path
       style="display:inline;fill:#f6ecdb;fill-opacity:1;fill-rule:evenodd;stroke:none"
       id="p3329"
       d="m 37.96,19.06 -27.06,1.97 0,1.47 1.19,1.84 c 0,0 3.53,2.35 14.53,1.44 9.13,-0.77 13,-3.63 13,-3.63 l 0.03,-0.12 -1.69,-2.97 z"
       inkscape:connector-curvature="0" />
    <path
       style="fill:#cdb88a;fill-opacity:1;fill-rule:evenodd;stroke:none"
       id="p3325"
       d="m 37.96,19.06 -27.06,1.97 -0.03,3.31 28.84,-2.16 0,-0.03 -1.75,-3.09 z"
       inkscape:connector-curvature="0" />
    <path
       style="fill:#664e39;fill-opacity:0.91000001;fill-rule:evenodd;stroke:none"
       id="p3323"
       d="m 10.9,21.03 0.07,20.62 1.12,3.03 c 0,0 0.11,0 0.12,0 l 0,-20.25 -1.25,-3.4 -0.06,0 z"
       inkscape:connector-curvature="0" />
    <path
       style="display:inline;fill:#664e39;fill-opacity:0.27000002;fill-rule:evenodd;stroke:none"
       id="p3370"
       d="m 37.96,19.06 -21.18,1.53 c 0.46,0.89 0.67,1.95 0.72,3.25 l 22.21,-1.66 0,-0.03 -1.75,-3.09 z"
       inkscape:connector-curvature="0" />
    <path
       style="display:inline;overflow:visible;visibility:visible;fill:#000000;fill-opacity:1;fill-rule:evenodd;stroke:none;marker:none;enable-background:accumulate"
       id="p3461"
       d="m 37.68,20.71 c 0.01,0.52 -1.02,0.96 -2.31,1 -1.29,0.03 -2.34,-0.37 -2.35,-0.89 -0.02,-0.52 1.02,-0.96 2.3,-0.99 1.29,-0.04 2.35,0.36 2.36,0.88 z"
       inkscape:connector-curvature="0" />
    <path
       style="display:inline;fill:#7d6c49;fill-opacity:0.36000001;fill-rule:evenodd;stroke:none"
       id="p3334"
       d="m 33.75,19.37 -13.32,0.97 c 1.1,1.22 -0.27,2.48 -2.03,3.44 l 13.41,-1 c 0.02,-0.74 0.55,-1.81 1.94,-3.41 z"
       inkscape:connector-curvature="0" />
    <path
       style="display:inline;fill:#cbbeb3;fill-opacity:0.25;fill-rule:evenodd;stroke:none"
       id="p3332"
       d="m 10.81,34.68 0.16,7 1.12,3 c 0,0 0.11,0 0.12,0 l 0,-6.93 c -0.47,-0.63 -0.97,-1.71 -1.4,-3.07 z"
       inkscape:connector-curvature="0" />
    <path
       style="display:inline;overflow:visible;visibility:visible;fill:#000000;fill-opacity:1;fill-rule:evenodd;stroke:none;marker:none;enable-background:accumulate"
       id="p3459"
       d="m 17.64,22.16 c 0.03,0.52 -1.01,1 -2.31,1.07 -1.3,0.07 -2.38,-0.3 -2.4,-0.83 -0.03,-0.52 1,-1 2.3,-1.07 1.3,-0.07 2.38,0.3 2.41,0.83 z"
       inkscape:connector-curvature="0" />
    <path
       style="display:inline;fill:none;fill-opacity:1;fill-rule:evenodd;stroke:#d6cbc6;stroke-width:0.40000001;stroke-linecap:butt;stroke-linejoin:miter;stroke-miterlimit:4;stroke-dasharray:none;stroke-opacity:0.95"
       id="p3365"
       d="m 12.18,24.27 27.53,-2.09 0,-0.03"
       inkscape:connector-curvature="0" />
    <path
       style="display:inline;fill:none;fill-opacity:0.91000001;fill-rule:evenodd;stroke:#533d32;stroke-width:0.40000001;stroke-linecap:butt;stroke-linejoin:miter;stroke-miterlimit:4;stroke-dasharray:none;stroke-opacity:0.95"
       id="p3362"
       d="m 12.09,44.68 c 0,0 0.11,0 0.12,0 l 0,-20.25 -1.25,-3.4 -0.06,0"
       inkscape:connector-curvature="0" />
    <path
       style="display:inline;fill:none;fill-opacity:1;fill-rule:evenodd;stroke:#1f1711;stroke-width:0.67121953;stroke-linecap:butt;stroke-linejoin:miter;stroke-miterlimit:4;stroke-dasharray:none;stroke-opacity:1"
       id="stroke01-68"
       d="m 10.96,41.61 -0.07,-20.57 27.07,-1.98 1.76,3.08 -0.77,20.13 c 0,0 -3.3,1.21 -13.21,2.09 -9.9,0.88 -13.64,0.33 -13.64,0.33 l -1.14,-3.08 z"
       inkscape:connector-curvature="0" />
    <g
       style="display:inline;stroke-width:0.67121953;stroke-miterlimit:4;stroke-dasharray:none"
       id="g3441"
       clip-path="url(#clipPath3466)">
      <path
         style="display:inline;fill:#b9b1af;fill-opacity:1;fill-rule:evenodd;stroke:none;stroke-width:0.67121953;stroke-miterlimit:4;stroke-dasharray:none"
         id="p3379"
         d="m 13.18,24.39 c -0.04,2.69 4.16,1.88 4.1,0 -0.11,-3.02 0.17,-9.21 0.2,-10.29 0.07,-2.82 3.5,-6.09 8.27,-6.59 4.51,-0.47 7.4,1.88 7.47,3.97 0.06,2.08 -0.14,19.17 -0.14,19.17 l 4.44,-0.27 c 0,0 -0.2,-17.56 -0.2,-19.64 0,-2.08 -2.29,-7.53 -11.03,-7.4 -8.74,0.14 -12.85,6.79 -12.98,9.75 -0.13,2.96 -0.1,8.61 -0.13,11.3 z"
         inkscape:connector-curvature="0" />
      <path
         style="fill:#1f1815;fill-opacity:0.79000005;fill-rule:evenodd;stroke:none;stroke-width:0.67121953;stroke-miterlimit:4;stroke-dasharray:none"
         id="p3430-6"
         d="m 23.37,7.93 c -4.28,1.51 -6.02,3.68 -6.25,4.5 -0.22,0.81 -0.58,12.75 -0.59,13.22 0.45,-0.3 0.76,-0.73 0.75,-1.25 -0.11,-3.02 0.19,-9.24 0.22,-10.31 0.05,-2.32 2.36,-4.93 5.84,-6.06 l 0.03,-0.1 z"
         inkscape:connector-curvature="0" />
      <path
         style="display:inline;fill:#09090a;fill-opacity:0.92000002;fill-rule:evenodd;stroke:none;stroke-width:0.67121953;stroke-miterlimit:4;stroke-dasharray:none"
         id="p3382"
         d="m 26.28,3.34 c -8.75,0.13 -12.84,6.79 -12.97,9.75 -0.01,0.1 0,0.26 0,0.37 0,0.01 -0.01,0.03 0,0.04 0.33,0.58 0.69,0.87 0.69,0.87 0,0 0.79,-1.74 1.87,-2.75 1.08,-1.01 5.04,-5.59 10.63,-5.59 5.58,0 8.12,2.16 8.59,2.56 0.42,0.36 1.86,1.83 1.03,-1.13 0,0 0,-0.02 0,-0.03 C 34.68,5.34 31.74,3.25 26.28,3.34 Z"
         inkscape:connector-curvature="0" />
      <path
         style="display:inline;fill:#f7f7f8;fill-opacity:0.65;fill-rule:evenodd;stroke:none;stroke-width:0.67121953;stroke-miterlimit:4;stroke-dasharray:none"
         id="p3385"
         d="M 25.68,4 C 22.56,4.12 20.06,5.36 18.75,6.37 17,7.71 15.76,8.59 14.79,9.94 c -0.14,0.21 -0.7,0.93 -1.04,1.37 -0.26,0.66 -0.42,1.28 -0.44,1.78 -0.01,0.1 0,0.26 0,0.37 0,0.01 -0.01,0.03 0,0.04 0.33,0.58 0.69,0.87 0.69,0.87 0,0 0.44,-0.99 1.12,-1.91 0.01,-0.01 0.02,-0.02 0.03,-0.03 0.75,-2.12 1.29,-3.38 3.06,-4.65 2.42,-1.75 7.73,-2.97 10.75,-2.57 3.03,0.41 4.64,0.07 0,-0.93 C 27.8,4.02 26.72,3.95 25.68,4 Z"
         inkscape:connector-curvature="0" />
      <path
         style="display:inline;fill:#f7f7f8;fill-opacity:0.92000002;fill-rule:evenodd;stroke:none;stroke-width:0.67121953;stroke-miterlimit:4;stroke-dasharray:none"
         id="p3388"
         d="m 25.68,4 c -3.12,0.12 -5.62,1.36 -6.93,2.37 -0.14,0.11 -0.25,0.18 -0.38,0.28 -0.01,0.34 0.25,0.54 0.72,0.6 2.66,-1.46 7.17,-2.4 9.87,-2.04 3.03,0.41 4.64,0.07 0,-0.93 C 27.8,4.02 26.72,3.95 25.68,4 Z"
         inkscape:connector-curvature="0" />
      <path
         style="display:inline;fill:#d7cac5;fill-opacity:0.73000004;fill-rule:evenodd;stroke:none;stroke-width:0.67121953;stroke-miterlimit:4;stroke-dasharray:none"
         id="p3408"
         d="m 28.46,7.12 c -1.41,-0.01 -2.9,0.23 -4.31,0.5 l 0.03,0.16 c 0.51,-0.13 1.02,-0.2 1.57,-0.25 4.5,-0.47 7.4,1.88 7.46,3.97 0.07,2.08 -0.12,19.15 -0.12,19.15 l 1.16,-0.06 C 34.29,23.69 34.35,13.53 34.09,10.53 32.96,7.88 30.81,7.14 28.46,7.12 Z"
         inkscape:connector-curvature="0" />
      <path
         style="display:inline;fill:#3f312b;fill-opacity:0.73000004;fill-rule:evenodd;stroke:none;stroke-width:0.67121953;stroke-miterlimit:4;stroke-dasharray:none"
         id="p3411-4"
         d="m 33.62,10.06 c -0.03,0 -0.06,0.03 -0.09,0.06 -0.16,0.16 -0.28,0.29 -0.41,0.72 0.06,0.21 0.09,0.45 0.09,0.66 0.07,2.08 -0.12,19.15 -0.12,19.15 l 4.44,-0.28 c 0,0 -0.06,-4.54 -0.1,-8.34 -1.38,0.32 -2.22,-0.09 -2.47,-0.28 -0.3,-0.25 -0.59,-1.06 -0.65,-1.6 -0.06,-0.54 -0.16,-7.79 -0.16,-8.78 0,-0.87 -0.3,-1.36 -0.53,-1.31 z"
         inkscape:connector-curvature="0" />
      <path
         style="display:inline;fill:none;fill-opacity:1;fill-rule:evenodd;stroke:#000000;stroke-width:0.67121953;stroke-linecap:butt;stroke-linejoin:miter;stroke-miterlimit:4;stroke-dasharray:none;stroke-opacity:1"
         id="stroke02-1"
         d="m 13.18,24.39 c -0.04,2.69 4.16,1.88 4.1,0 -0.11,-3.02 0.17,-9.21 0.2,-10.29 0.07,-2.82 3.5,-6.09 8.27,-6.59 4.51,-0.47 7.4,1.88 7.47,3.97 0.06,2.08 -0.14,19.17 -0.14,19.17 l 4.44,-0.27 c 0,0 -0.2,-17.56 -0.2,-19.64 0,-2.08 -2.29,-7.53 -11.03,-7.4 -8.74,0.14 -12.85,6.79 -12.98,9.75 -0.13,2.96 -0.1,8.61 -0.13,11.3 z"
         inkscape:connector-curvature="0" />
      <path
         style="display:inline;fill:#1f1815;fill-opacity:0.79000005;fill-rule:evenodd;stroke:none;stroke-width:0.67121953;stroke-miterlimit:4;stroke-dasharray:none"
         id="p3414"
         d="m 37.4,19.71 c -0.14,0.32 -0.24,0.6 -0.28,0.66 -0.09,0.12 -0.23,-0.06 -0.41,-0.06 -0.18,0 -0.48,1.05 -0.84,2.34 l 0.78,2.19 0.81,-0.56 c -0.02,-1.8 -0.04,-2.4 -0.06,-4.57 z"
         inkscape:connector-curvature="0" />
      <path
         style="fill:none;fill-rule:evenodd;stroke:#ececec;stroke-width:0.67121953;stroke-linecap:round;stroke-linejoin:miter;stroke-miterlimit:4;stroke-dasharray:none;stroke-opacity:0.4"
         id="p3426"
         d="m 33.38,7.6 c 1.29,0.56 2.36,1.51 2.52,3.25"
         inkscape:connector-curvature="0" />
      <path
         style="fill:none;fill-rule:evenodd;stroke:#383838;stroke-width:0.67121953;stroke-linecap:round;stroke-linejoin:miter;stroke-miterlimit:4;stroke-dasharray:none;stroke-opacity:0.16000001"
         id="p3428"
         d="m 16.64,11.19 c -1.03,1.21 -1.55,2.13 -1.55,2.99 0,0.87 -0.12,5.01 -0.12,5.01"
         inkscape:connector-curvature="0" />
      <path
         style="display:inline;fill:#533e28;fill-opacity:0.79000005;fill-rule:evenodd;stroke:none;stroke-width:0.67121953;stroke-miterlimit:4;stroke-dasharray:none"
         id="p3435"
         d="m 13.68,11.53 c -0.21,0.58 -0.35,1.11 -0.37,1.56 -0.14,2.96 -0.09,8.62 -0.13,11.31 -0.03,2.69 4.16,1.88 4.1,0 -0.03,-0.87 -0.05,-2.02 -0.03,-3.22 -0.63,0.84 -1.34,1.63 -1.85,1.63 -0.98,0 -0.97,-1.03 -0.97,-1.03 0,0 -0.37,0.5 -0.75,0.5 -0.37,0 -0.22,-0.52 -0.22,-0.82 0,-0.27 0.19,-5.18 0.22,-9.93 z"
         inkscape:connector-curvature="0" />
    </g>
    <path
       style="display:inline;overflow:visible;visibility:visible;fill:none;fill-opacity:1;fill-rule:evenodd;stroke:#e2d4c2;stroke-width:0.28999999;stroke-linecap:round;stroke-linejoin:round;stroke-miterlimit:4;stroke-dashoffset:0;stroke-opacity:1;marker:none;enable-background:accumulate"
       id="p3470"
       d="m 17.44,21.8 c 0.13,0.11 0.19,0.23 0.2,0.36 0.03,0.52 -1.01,1 -2.31,1.07 -1.29,0.07 -2.38,-0.3 -2.4,-0.83"
       inkscape:connector-curvature="0" />
    <path
       style="display:inline;overflow:visible;visibility:visible;fill:none;fill-opacity:1;fill-rule:evenodd;stroke:#e2d4c2;stroke-width:0.28999999;stroke-linecap:round;stroke-linejoin:round;stroke-miterlimit:4;stroke-dasharray:none;stroke-dashoffset:0;stroke-opacity:1;marker:none;enable-background:accumulate"
       id="p3487"
       d="m 37.49,20.35 c 0.13,0.11 0.18,0.23 0.19,0.36 0.01,0.52 -1.02,0.96 -2.31,1 -1.28,0.03 -2.34,-0.37 -2.35,-0.89"
       inkscape:connector-curvature="0" />
  </g>
  <g
     style="display:inline"
     id="shovel01"
     transform="matrix(0.95607005,-0.29313829,0.29313829,0.95607005,-14.57921,12.183443)">
    <path
       style="fill:#5f6050;fill-opacity:1;fill-rule:evenodd;stroke:none"
       id="p2481"
       d="m 35.09,3.21 c -0.31,0.04 -2.17,2.8 -2.22,3.75 -0.13,2.72 -0.46,2.78 -1.12,3.75 -0.67,0.98 -5.74,7.21 -8,10.04 -2.27,2.82 -2.87,3.16 -4.22,5.59 -0.53,0.94 -1.88,3.8 -2.44,4.62 -0.74,-0.57 -1.47,-1.2 -2.03,-1.68 -0.56,-0.49 -0.84,-1.04 -1.22,-0.97 -0.38,0.07 -3.23,2.55 -4.66,3.87 -1.43,1.33 -2.06,2.85 -2.37,4.07 -0.32,1.21 -0.56,2.32 -0.28,3.68 0.28,1.36 0.61,2.65 2.22,2.75 1.6,0.11 3.67,-0.19 4.43,-0.47 0.77,-0.28 2.07,-1.03 3.19,-1.87 1.12,-0.84 4.95,-4.36 5.41,-4.81 0.45,-0.46 0.59,-0.72 0.59,-0.72 0,0 -0.06,-0.19 -1,-0.53 -0.94,-0.35 -0.95,-0.78 -1.44,-1.13 -0.49,-0.35 -0.28,-0.27 -0.56,-0.53 1.67,-2.6 1.89,-4.03 3.31,-6.03 2.39,-3.35 7.94,-10.09 10.35,-13.44 2.4,-3.34 3.81,-1.94 5.9,-4.06 0.49,-0.5 2.12,-2.3 1.91,-2.72 C 40.63,5.95 38.77,4.84 37.62,4.25 36.47,3.65 35.4,3.18 35.09,3.21 Z m 0.22,1.82 c 0.42,0.24 0.99,0.78 1.65,1.15 1.05,0.6 1.5,0.68 1.83,0.89 -0.21,0.34 -0.47,0.81 -0.96,1.19 -0.58,0.46 -2.04,0.91 -2.49,1.02 -0.45,0.1 -1.44,0.78 -1.44,0.78 L 33.81,10 c 0,0 0.16,-0.38 0.12,-0.69 C 33.9,8.99 33.88,7.78 34.06,7.15 34.23,6.52 35.31,5.03 35.31,5.03 Z"
       inkscape:connector-curvature="0" />
    <path
       style="fill:#aeaaa7;fill-opacity:0.33000004;fill-rule:evenodd;stroke:none"
       id="p3255"
       d="m 31.13,12.4 c 0.31,-0.43 0.55,-0.72 0.82,-1 0.28,-0.27 0.3,-0.16 0.39,0 0.1,0.16 0.08,0.2 -0.13,0.49 -0.22,0.3 -0.91,1.08 -1.04,1.26 -0.14,0.18 -0.26,-0.16 -0.36,-0.2 -0.1,-0.04 -0.06,-0.08 0.32,-0.55 z"
       inkscape:connector-curvature="0" />
    <path
       style="display:inline;fill:#78653d;fill-opacity:1;fill-rule:evenodd;stroke:none"
       id="p3260-8"
       d="m 35.9,3.46 c -0.51,0.43 -0.63,0.92 -0.56,1.6 0.41,0.25 0.97,0.75 1.62,1.12 1.05,0.6 1.49,0.67 1.82,0.88 C 38.77,7.07 38.76,7.1 38.75,7.12 39.33,6.65 39.71,6.06 39.93,5.59 39.24,5.12 38.31,4.6 37.62,4.25 37,3.92 36.4,3.65 35.93,3.46 c -0.01,0 -0.02,0.01 -0.03,0 z"
       inkscape:connector-curvature="0" />
    <path
       style="display:inline;fill:#9d7f56;fill-opacity:1;fill-rule:evenodd;stroke:none"
       id="p3262"
       d="m 30.25,12.65 c -1.85,2.34 -4.88,6.07 -6.5,8.1 -0.45,0.55 -0.64,0.75 -0.97,1.15 0.79,0.83 1.48,1.38 2.12,1.72 2.37,-3.06 5.37,-6.78 7.31,-9.37 -0.65,-0.7 -1.3,-1.21 -1.96,-1.6 z"
       inkscape:connector-curvature="0" />
    <path
       style="display:inline;fill:#555146;fill-opacity:0.7;fill-rule:evenodd;stroke:none"
       id="p3318"
       d="m 13.84,28.31 c -0.38,0.07 -3.23,2.55 -4.66,3.87 -1.43,1.33 -2.06,2.85 -2.37,4.07 -0.32,1.21 -0.56,2.32 -0.28,3.68 0.28,1.36 0.61,2.65 2.22,2.75 1.6,0.11 3.67,-0.19 4.43,-0.47 0.09,-0.03 0.21,-0.08 0.32,-0.12 -0.17,-4.88 0.94,-8.91 2.09,-12.38 C 15.42,29.57 15.2,29.4 15.06,29.28 14.5,28.79 14.22,28.24 13.84,28.31 Z"
       inkscape:connector-curvature="0" />
    <path
       style="display:inline;fill:#2d2e26;fill-opacity:0.52999998;fill-rule:evenodd;stroke:none"
       id="p3264"
       d="m 13.84,28.31 c -0.38,0.07 -3.23,2.55 -4.66,3.87 -1.43,1.33 -2.06,2.85 -2.37,4.07 -0.04,0.15 -0.09,0.31 -0.13,0.46 3.34,-2.43 4.91,-0.79 5.82,-1.46 0.71,-0.54 1.72,-3.34 2.4,-6.13 -0.44,-0.44 -0.72,-0.87 -1.06,-0.81 z"
       inkscape:connector-curvature="0" />
    <path
       style="display:inline;fill:#535244;fill-opacity:0.88999999;fill-rule:evenodd;stroke:none"
       id="p3316"
       d="m 20.37,30.93 c -0.96,0.23 -1.8,0.4 -2.16,0.5 -0.64,0.19 -2.41,2.98 -3.15,3.63 -0.74,0.64 -0.84,2.12 -0.1,2.12 0.74,0 4.09,-2.03 1.5,-0.09 -2.23,1.67 -2.77,1.3 -7.12,5.59 1.49,0.02 3.17,-0.22 3.84,-0.47 0.77,-0.28 2.07,-1.03 3.19,-1.87 0.12,-0.09 0.36,-0.3 0.53,-0.44 2.07,-3.72 3.24,-5.23 4.1,-5.81 -0.56,-0.31 -0.66,-0.65 -1.07,-0.94 -0.49,-0.35 -0.28,-0.27 -0.56,-0.53 0.4,-0.62 0.73,-1.17 1,-1.69 z"
       inkscape:connector-curvature="0" />
    <path
       style="display:inline;fill:#2a3133;fill-opacity:0.47000002;fill-rule:evenodd;stroke:none"
       id="p3292"
       d="m 7.81,33.87 c -0.5,0.82 -0.82,1.66 -1,2.38 -0.32,1.21 -0.56,2.32 -0.28,3.68 0.28,1.36 0.61,2.65 2.22,2.75 1.6,0.11 3.67,-0.19 4.43,-0.47 0.72,-0.26 1.91,-0.94 2.97,-1.71 -4.49,1.12 -4.93,0 -5.72,-0.47 C 9.51,39.47 7.4,39.94 7.12,38.46 6.98,37.72 7.22,36.07 7.81,33.87 Z"
       inkscape:connector-curvature="0" />
    <path
       style="display:inline;fill:#d7890f;fill-opacity:0.28000004;fill-rule:evenodd;stroke:none"
       id="p3266-7"
       d="m 6.53,37.56 c -0.13,0.75 -0.18,1.51 0,2.37 0.28,1.36 0.61,2.65 2.22,2.75 0.5,0.04 1.04,0.01 1.59,-0.03 C 10.13,41.87 9.89,41.1 9.53,40.59 8.67,39.38 7.75,39.74 6.53,37.56 Z"
       inkscape:connector-curvature="0" />
    <path
       style="display:inline;fill:#bfc0b3;fill-opacity:0.52999998;fill-rule:evenodd;stroke:none"
       id="p3268"
       d="m 20.65,33.84 c -1.06,1.57 -2.18,3.56 -3.28,5.69 1.57,-1.35 4.04,-3.64 4.41,-4 0.45,-0.46 0.59,-0.72 0.59,-0.72 0,0 -0.06,-0.19 -1,-0.53 -0.36,-0.14 -0.55,-0.29 -0.72,-0.44 z"
       inkscape:connector-curvature="0" />
    <path
       style="display:inline;fill:#2a271d;fill-opacity:0.65;fill-rule:evenodd;stroke:none"
       id="p3290-8"
       d="m 40.62,6.15 c -0.81,0.01 -1.18,1.09 -1.59,1.69 -0.55,0.8 -1.6,1.33 -2.78,1.72 -1.19,0.39 -2.16,0.88 -2.75,1.31 -0.6,0.43 -9.64,11.92 -10.16,12.97 -0.53,1.05 -1.62,2 -2.13,2.75 -0.5,0.75 -0.4,0.97 -0.56,1.22 -0.16,0.25 -0.37,0.15 -0.62,0.56 -0.25,0.41 -0.04,0.8 -0.22,1.09 -0.18,0.3 -0.36,0.33 -0.56,0.69 -0.21,0.37 -0.09,0.76 -0.22,0.97 -0.14,0.21 -0.48,0.35 -0.35,0.78 0.09,0.27 0.3,0.51 0.72,0.69 1.65,-2.57 1.87,-4.01 3.28,-6 2.39,-3.35 7.94,-10.09 10.35,-13.44 2.4,-3.34 3.81,-1.94 5.9,-4.06 0.49,-0.5 2.12,-2.3 1.91,-2.72 C 40.81,6.32 40.76,6.25 40.68,6.18 40.67,6.17 40.63,6.16 40.62,6.15 Z"
       inkscape:connector-curvature="0" />
    <path
       style="display:inline;fill:#c7c8bd;fill-opacity:0.28000004;fill-rule:evenodd;stroke:none"
       id="p3294"
       d="m 15.18,29.37 c -0.54,2.05 -1.52,5.9 -1.31,6.41 0.28,0.64 2.77,-0.91 2.03,-0.91 -0.65,0 -1.02,0.78 0.85,-4.19 -0.57,-0.45 -1.12,-0.92 -1.57,-1.31 z"
       inkscape:connector-curvature="0" />
    <path
       style="display:inline;fill:#bb8844;fill-opacity:0.5;fill-rule:evenodd;stroke:none"
       id="p3314"
       d="m 8.75,40.96 c -0.48,0.02 -1.01,0.27 -1.66,0.66 0.32,0.58 0.78,1.01 1.66,1.06 0.62,0.04 1.3,0 1.96,-0.06 -0.63,-1.18 -1.23,-1.69 -1.96,-1.66 z"
       inkscape:connector-curvature="0" />
    <path
       style="display:inline;fill:#989a86;fill-opacity:0.22000002;fill-rule:evenodd;stroke:none"
       id="p3332-1"
       d="m 14.21,28.43 c -1.32,2.28 -3.04,4.95 -3.68,5.6 -0.6,0.59 -1.83,1.35 -3.25,0.93 -0.11,0.25 -0.21,0.49 -0.28,0.72 0.05,0.1 0.1,0.22 0.12,0.28 0.21,0.75 -0.57,1.66 -0.12,2.19 0.44,0.54 2.93,2.9 4.75,2.03 1.81,-0.86 3.2,-2.26 3.62,-2.56 0.42,-0.3 3.19,-2.28 2.06,-1.69 -1.13,0.6 -3.31,0.73 -3.37,0.25 -0.06,-0.47 0.2,-2.45 1.12,-4.03 0.38,-0.65 0.74,-1.33 1.03,-1.94 -0.39,-0.32 -0.84,-0.66 -1.15,-0.93 -0.37,-0.33 -0.61,-0.67 -0.85,-0.85 z"
       inkscape:connector-curvature="0" />
    <path
       style="display:inline;fill:#393329;fill-opacity:0.73999999;fill-rule:evenodd;stroke:none"
       id="p3334-5"
       d="m 19.31,30.12 c -0.33,-0.03 0.2,0.64 -0.03,0.84 -0.24,0.21 -0.74,0.62 -1.03,0.5 -0.3,-0.12 -0.55,0.55 -0.88,0.82 -0.33,0.26 -1.44,1.72 -2.09,2.47 -0.33,0.32 0.76,-0.2 1.12,-0.44 0.36,-0.24 1.37,-0.14 1.81,-0.47 0.45,-0.33 0.97,-1.66 0.97,-1.66 l 0.66,-0.37 c 0.26,-0.44 0.49,-0.81 0.69,-1.19 -0.5,-0.25 -1.04,-0.48 -1.22,-0.5 z"
       inkscape:connector-curvature="0" />
    <path
       style="display:inline;fill:#35322d;fill-opacity:0.42000002;fill-rule:evenodd;stroke:none"
       id="p3338"
       d="m 15.16,34.73 c -0.08,-0.24 0.75,-1.4 0.75,-1.58 0,-0.18 -0.06,-0.95 0.15,-1.22 0.2,-0.26 1.22,-0.92 1.22,-0.92 0,0 0.14,0.42 0,0.77 -0.15,0.36 -0.54,0.54 -0.6,0.81 -0.06,0.27 -0.83,1.31 -1.01,1.6 -0.18,0.3 -0.42,0.63 -0.51,0.54 z"
       inkscape:connector-curvature="0" />
    <path
       style="display:inline;fill:none;fill-opacity:0.73999999;fill-rule:evenodd;stroke:#8c8c73;stroke-width:0.2;stroke-linecap:round;stroke-linejoin:miter;stroke-miterlimit:4;stroke-dasharray:none;stroke-opacity:0.5"
       id="p3341"
       d="m 15.52,34.31 c 0.39,-0.41 1.1,-1.07 1.19,-1.22 0.09,-0.15 0.3,-0.77 0.54,-0.83 0.23,-0.06 0.35,-0.68 0.62,-0.77 0.27,-0.09 0.71,0.15 0.83,-0.15 0.12,-0.3 0.03,-0.51 0.03,-0.51"
       inkscape:connector-curvature="0" />
    <path
       style="display:inline;fill:none;fill-rule:evenodd;stroke:#c1bfb4;stroke-width:0.2;stroke-linecap:round;stroke-linejoin:miter;stroke-miterlimit:4;stroke-dasharray:none;stroke-opacity:0.42000002"
       id="p3344"
       d="m 14.09,36.01 c -0.12,-0.45 0.54,-2.41 0.69,-2.8 0.15,-0.38 1.4,-2.94 1.4,-2.94"
       inkscape:connector-curvature="0" />
    <path
       style="display:inline;fill:none;fill-rule:evenodd;stroke:#bab8a8;stroke-width:0.1;stroke-linecap:round;stroke-linejoin:miter;stroke-miterlimit:4;stroke-dasharray:none;stroke-opacity:0.42000002"
       id="p3346"
       d="m 16.74,35.47 3.69,-1.75"
       inkscape:connector-curvature="0" />
    <path
       style="display:inline;fill:#2c3035;fill-opacity:0.42000002;fill-rule:evenodd;stroke:none"
       id="p3348"
       d="m 7.03,35.53 c -0.09,0.24 -0.16,0.49 -0.22,0.72 -0.15,0.58 -0.31,1.14 -0.38,1.71 0.52,-0.2 1,-0.78 1.35,-1.06 0.44,-0.36 0.94,0.4 0.97,0.91 0.02,0.5 -0.68,0.49 -1,0.28 -0.33,-0.21 -0.09,0.02 0.09,0.37 0.18,0.36 0.54,0.58 -0.5,0.25 C 6.3,38.39 6.86,38.58 7.25,38.96 7.63,39.35 6.62,39.35 7.81,39.62 9,39.89 8.77,40.01 8.71,39.75 8.65,39.48 8.03,39.33 8.12,39.06 8.21,38.79 7.81,38.21 7.81,38.21 c 0,0 0.3,0.28 0.72,0.22 0.33,-0.05 0.36,-0.41 0.4,-0.47 0.09,0.15 0.67,0 0.88,0 0.21,0 1.02,0.62 0.84,0.38 C 10.47,38.1 10.3,37.7 10.18,37.5 10.06,37.29 10.46,37 10.46,37 c 0,0 -0.41,-0.2 -0.62,-0.25 -0.11,-0.03 -0.25,-0.17 -0.34,-0.29 0,0.11 -0.08,0.25 -0.22,0.35 -0.21,0.15 0.04,0.44 0.22,0.44 0.17,0 0.17,0.5 -0.13,0.65 -0.3,0.15 -0.76,-0.86 -1.03,-1.15 -0.27,-0.3 -0.91,0.14 -0.88,-0.16 0.02,-0.2 -0.13,-0.6 -0.43,-1.06 z"
       inkscape:connector-curvature="0" />
    <path
       style="display:inline;fill:#2c3035;fill-opacity:0.42000002;fill-rule:evenodd;stroke:none"
       id="p3350"
       d="m 10.2,39.55 c 0.03,-0.21 0.86,-0.48 0.8,-0.3 -0.06,0.18 -0.3,0.45 0.27,0.15 0.56,-0.3 0.92,-0.57 1.25,-0.42 0.32,0.15 -0.21,-0.15 -0.78,0.3 -0.56,0.45 -0.98,0.65 -1.13,0.51 -0.15,-0.15 -0.47,-0.06 -0.41,-0.24 z"
       inkscape:connector-curvature="0" />
    <path
       style="display:inline;fill:none;fill-rule:evenodd;stroke:#060604;stroke-width:0.5;stroke-linecap:round;stroke-linejoin:miter;stroke-miterlimit:4;stroke-dasharray:none;stroke-opacity:0.27000002"
       id="p3352"
       d="m 16.26,39.34 -0.41,0.24"
       inkscape:connector-curvature="0" />
    <path
       style="display:inline;fill:none;fill-rule:evenodd;stroke:#12110e;stroke-width:0.30000001;stroke-linecap:round;stroke-linejoin:miter;stroke-miterlimit:4;stroke-dasharray:none;stroke-opacity:0.38000034"
       id="p3354"
       d="m 16.83,38.33 -0.24,0.3"
       inkscape:connector-curvature="0" />
    <path
       style="fill:#c7c3b4;fill-opacity:0.45;fill-rule:evenodd;stroke:none"
       id="p3215"
       d="m 22.32,23.93 -0.11,0.48 c 0,0 0.28,0.14 0.51,-0.05 0.24,-0.2 0.45,-0.63 0.42,-0.74 -0.03,-0.11 -0.1,-0.15 -0.1,-0.15 l -0.72,0.46 z"
       inkscape:connector-curvature="0" />
    <path
       style="display:inline;overflow:visible;visibility:visible;fill:#6d5e4a;fill-opacity:1;fill-rule:nonzero;stroke:#1e1c18;stroke-width:0.1;stroke-linecap:round;stroke-linejoin:round;stroke-miterlimit:4;stroke-dasharray:none;stroke-dashoffset:0;stroke-opacity:1;marker:none;enable-background:accumulate"
       id="p2418"
       d="m 22.85,23.78 c -0.04,0.13 -0.13,0.24 -0.24,0.31 -0.12,0.06 -0.24,0.06 -0.32,0 -0.08,-0.07 -0.11,-0.18 -0.08,-0.31 0.04,-0.13 0.13,-0.25 0.25,-0.31 0.11,-0.07 0.23,-0.07 0.31,0 0.09,0.06 0.11,0.18 0.08,0.31 z"
       inkscape:connector-curvature="0" />
    <path
       style="display:inline;fill:#34291b;fill-opacity:0.62999998;fill-rule:evenodd;stroke:none"
       id="p2424"
       d="m 19.03,27.31 c -0.57,1.11 -1.27,2.53 -1.75,3.34 0.32,0.35 0.58,0.39 0.68,0.25 0.18,-0.23 0.86,-0.83 0.94,-0.34 0.07,0.41 -0.47,2.09 0.5,2 1.24,-1.94 1.69,-3.25 2.44,-4.63 -1.06,0.06 -2.08,0.54 -2.53,0.19 -0.2,-0.15 -0.26,-0.48 -0.28,-0.81 z"
       inkscape:connector-curvature="0" />
    <path
       style="display:inline;fill:#b9ac9c;fill-opacity:0.38999999;fill-rule:evenodd;stroke:none"
       id="p3206"
       d="m 19.06,29.29 c 0,0 -0.2,0.19 -0.16,0.22 0.04,0.04 0.4,0.18 0.6,0.07 0.19,-0.11 0.27,-0.36 0.29,-0.52 0.02,-0.16 -0.39,-0.19 -0.39,-0.19 l -0.34,0.42 z"
       inkscape:connector-curvature="0" />
    <path
       style="display:inline;overflow:visible;visibility:visible;fill:#695d4f;fill-opacity:1;fill-rule:nonzero;stroke:#1e1c18;stroke-width:0.1;stroke-linecap:round;stroke-linejoin:round;stroke-miterlimit:4;stroke-dasharray:none;stroke-dashoffset:0;stroke-opacity:1;marker:none;enable-background:accumulate"
       id="p2420"
       d="m 19.54,28.89 c 0.01,0.14 -0.04,0.28 -0.13,0.38 -0.09,0.09 -0.2,0.13 -0.3,0.1 -0.1,-0.04 -0.16,-0.14 -0.17,-0.27 -0.01,-0.14 0.04,-0.28 0.13,-0.38 0.09,-0.09 0.2,-0.13 0.3,-0.1 0.1,0.04 0.16,0.14 0.17,0.27 z"
       inkscape:connector-curvature="0" />
    <path
       style="display:inline;fill:#b9ac9c;fill-opacity:0.51000001;fill-rule:evenodd;stroke:none"
       id="p3203"
       d="m 18.17,31.1 c 0,0 -0.19,0.18 -0.15,0.22 0.03,0.04 0.4,0.18 0.59,0.07 0.2,-0.12 0.27,-0.37 0.29,-0.53 0.02,-0.16 -0.38,-0.18 -0.38,-0.18 l -0.35,0.42 z"
       inkscape:connector-curvature="0" />
    <path
       style="display:inline;overflow:visible;visibility:visible;fill:#6b5d4d;fill-opacity:0.98999999;fill-rule:nonzero;stroke:#1e1c18;stroke-width:0.1;stroke-linecap:round;stroke-linejoin:round;stroke-miterlimit:4;stroke-dasharray:none;stroke-dashoffset:0;stroke-opacity:1;marker:none;enable-background:accumulate"
       id="p2422"
       d="m 18.71,30.73 c 0,0.13 -0.05,0.27 -0.15,0.35 -0.09,0.08 -0.21,0.1 -0.31,0.05 -0.09,-0.05 -0.15,-0.16 -0.15,-0.29 -0.01,-0.14 0.05,-0.27 0.15,-0.35 0.09,-0.08 0.21,-0.1 0.3,-0.05 0.1,0.05 0.16,0.16 0.16,0.29 z"
       inkscape:connector-curvature="0" />
    <path
       style="fill:#21262c;fill-opacity:0.34000017;fill-rule:evenodd;stroke:none"
       id="p3208"
       d="M 7.37,34.75 C 7.13,35.27 6.93,35.78 6.81,36.25 6.62,36.99 6.47,37.69 6.43,38.43 7.03,38.51 7.51,38.21 7.71,37.9 8.03,37.44 6.76,38.75 7.56,36.93 8.36,35.11 8.62,36.37 8.81,36.25 8.99,36.12 7.8,35.43 8.12,35.37 8.44,35.31 10.64,36.34 8.03,35.15 7.73,35.02 7.54,34.9 7.37,34.75 Z"
       inkscape:connector-curvature="0" />
    <path
       style="fill:#443828;fill-opacity:0.56999966;fill-rule:evenodd;stroke:none"
       id="p3217"
       d="m 21.25,23.78 c -0.58,0.71 -1.08,1.39 -1.72,2.56 -0.05,0.07 -0.14,0.28 -0.19,0.37 0.48,0.11 1.23,-0.08 1.5,-0.12 0.32,-0.06 0.42,-0.95 0.66,-0.78 0.16,0.11 0.37,1.02 0.87,1.28 0.11,-0.17 0.19,-0.33 0.31,-0.5 0.14,-0.2 0.37,-0.5 0.53,-0.72 -0.42,-0.17 -0.93,-0.42 -1.12,-0.84 -0.14,-0.31 -0.47,-0.85 -0.84,-1.25 z"
       inkscape:connector-curvature="0" />
    <path
       style="fill:#d9bc96;fill-opacity:0.38000034;fill-rule:evenodd;stroke:none"
       id="p3224"
       d="m 23.19,22.28 0.43,0.41 7.44,-9.59 -0.4,-0.2 -7.47,9.38 z"
       inkscape:connector-curvature="0" />
    <path
       style="fill:#bf6c21;fill-opacity:0.26000001;fill-rule:evenodd;stroke:none"
       id="p3226"
       d="m 31.65,13.65 c 0,0 -1.82,2.19 -2.37,2.88 -0.4,0.5 -3.99,5.57 -4.03,6.65 2.32,-3 5.14,-6.49 7,-8.97 l -0.6,-0.56 z"
       inkscape:connector-curvature="0" />
    <path
       style="fill:#0f0b07;fill-opacity:0.52999998;fill-rule:evenodd;stroke:none"
       id="p3241"
       d="m 35.46,3.28 c -0.07,0.1 -1.71,2.56 -1.9,2.97 -0.19,0.4 -0.31,1.1 -0.28,1.65 0.02,0.55 0.15,1.68 0.06,1.97 -0.1,0.29 -0.88,1.26 -0.91,1.41 -0.02,0.14 0.12,0.31 0.28,0.31 0,0 0.74,-0.74 0.91,-0.91 0.11,-0.11 0.58,-0.57 0.94,-1.03 -0.35,0.2 -0.66,0.41 -0.66,0.41 L 33.81,10 c 0,0 0.16,-0.38 0.12,-0.69 C 33.9,8.99 33.88,7.78 34.06,7.15 34.23,6.52 35.31,5.03 35.31,5.03 35.33,5.04 35.37,5.07 35.4,5.09 35.35,4.72 35.35,4.34 35.43,4.18 35.54,3.96 35.8,3.51 35.84,3.43 35.7,3.38 35.57,3.31 35.46,3.28 Z"
       inkscape:connector-curvature="0" />
    <path
       style="fill:#754924;fill-opacity:0.32000002;fill-rule:evenodd;stroke:none"
       id="p3251"
       d="m 32.84,11.34 c 0.13,0.3 0.11,0.49 0.07,0.63 -0.03,0.14 0.52,-0.51 0.77,-0.67 0.26,-0.16 1.06,-1.34 -0.31,-0.47 -0.22,0.14 -0.48,0.53 -0.53,0.51 z"
       inkscape:connector-curvature="0" />
    <path
       style="display:inline;fill:none;fill-rule:evenodd;stroke:#bdbdab;stroke-width:0.2;stroke-linecap:round;stroke-linejoin:miter;stroke-miterlimit:4;stroke-dasharray:none;stroke-opacity:0.76999996"
       id="p3231"
       d="m 32.92,11.29 c 0.69,-0.9 2.04,-1.52 2.29,-1.61 0.2,-0.08 2.07,-0.55 2.84,-1.12 0.4,-0.29 1.04,-1.4 1.18,-1.56 0.13,-0.15 0.81,-0.94 0.88,-1.15"
       inkscape:connector-curvature="0" />
    <path
       style="fill:#866c29;fill-opacity:0.32000002;fill-rule:evenodd;stroke:none"
       id="p3246"
       d="m 34.34,5 c 0,-0.03 0,-0.01 -0.03,0.03 -0.26,0.4 -0.48,0.75 -0.6,0.97 -0.07,0.14 -0.15,0.24 -0.25,0.46 -0.01,0.05 -0.01,0.05 -0.03,0.1 0,0.01 0.01,0.02 0,0.03 -0.06,0.21 -0.1,0.45 -0.12,0.69 0.06,0.28 0.32,0.48 0.62,0.78 0.02,-0.34 0.06,-0.67 0.13,-0.91 0.04,-0.15 0.16,-0.34 0.28,-0.56 -0.01,-0.01 0,-0.03 0,-0.03 -0.41,-0.41 -0.03,-1.41 0,-1.56 z"
       inkscape:connector-curvature="0" />
    <path
       style="display:inline;fill:none;fill-rule:evenodd;stroke:#b1b197;stroke-width:0.2;stroke-linecap:round;stroke-linejoin:miter;stroke-miterlimit:4;stroke-dasharray:none;stroke-opacity:0.65"
       id="p3233"
       d="M 32.64,10.81 C 32.79,10.56 33.07,10.29 33.27,9.79 33.38,9.51 33.08,7.28 33.44,6.51 33.8,5.75 35.35,3.37 35.5,3.35"
       inkscape:connector-curvature="0" />
    <path
       style="display:inline;overflow:visible;visibility:visible;fill:none;fill-opacity:1;fill-rule:evenodd;stroke:#cfcfc0;stroke-width:0.2;stroke-linecap:round;stroke-linejoin:miter;stroke-miterlimit:4;stroke-dasharray:none;stroke-dashoffset:0;stroke-opacity:0.65;marker:none;enable-background:accumulate"
       id="p3237"
       d="m 32.4,11.1 c -0.24,0.34 0.19,0.51 0.33,0.39"
       inkscape:connector-curvature="0" />
    <path
       style="display:inline;overflow:visible;visibility:visible;fill:none;fill-opacity:1;fill-rule:evenodd;stroke:#e8e8e0;stroke-width:0.2;stroke-linecap:round;stroke-linejoin:miter;stroke-miterlimit:4;stroke-dasharray:none;stroke-dashoffset:0;stroke-opacity:0.82999998;marker:none;enable-background:accumulate"
       id="p3239"
       d="m 32.73,11.5 0.32,-0.38"
       inkscape:connector-curvature="0" />
    <path
       style="fill:#754924;fill-opacity:0.32000002;fill-rule:evenodd;stroke:none"
       id="p3253"
       d="m 31.18,12.74 c 0.28,-0.36 0.5,-0.3 0.59,-0.18 0.1,0.12 -0.03,0.51 0.14,0.47 0.18,-0.04 0.55,-0.35 0.55,-0.02 0,0.34 -0.65,0.83 -0.65,0.83 l -0.47,-0.4 c 0,0 0.34,-0.31 -0.16,-0.7 z"
       inkscape:connector-curvature="0" />
    <path
       style="fill:#14100e;fill-opacity:0.42000002;fill-rule:evenodd;stroke:none"
       id="p3258"
       d="m 38.31,8.65 c 0,-0.02 -0.03,0 -0.06,0.03 -0.3,0.26 -1.38,0.63 -2,0.85 -0.63,0.21 -1.16,0.37 -1.69,0.84 -0.33,0.29 -0.27,0.62 0.09,1.06 1.3,-0.97 2.34,-0.83 3.6,-1.75 -0.48,0.09 0.07,-0.91 0.06,-1.03 z"
       inkscape:connector-curvature="0" />
    <path
       style="fill:#14100e;fill-opacity:0.42000002;fill-rule:evenodd;stroke:none"
       id="p3261-4"
       d="m 40.59,6.15 c -0.35,0.05 -0.7,0.33 -0.97,0.72 -0.44,0.66 0.19,0.05 0.59,0.75 0.41,-0.53 0.73,-1.05 0.63,-1.25 -0.03,-0.06 -0.1,-0.14 -0.19,-0.22 -0.02,0 -0.04,0 -0.06,0 z"
       inkscape:connector-curvature="0" />
    <path
       style="fill:#14100e;fill-opacity:0.56000001;fill-rule:evenodd;stroke:none"
       id="p3271"
       d="m 35.4,4.21 c -0.07,0.25 -0.1,0.53 -0.06,0.85 0.41,0.25 0.97,0.75 1.62,1.12 1.05,0.6 1.49,0.67 1.82,0.88 C 38.77,7.07 38.76,7.1 38.75,7.12 38.99,6.92 39.19,6.69 39.37,6.46 38,5.8 36.54,4.89 35.4,4.21 Z"
       inkscape:connector-curvature="0" />
    <path
       style="fill:none;fill-rule:evenodd;stroke:#e9e5cb;stroke-width:0.30000001;stroke-linecap:butt;stroke-linejoin:miter;stroke-miterlimit:4;stroke-dasharray:none;stroke-opacity:0.33000004"
       id="p3273"
       d="m 35.57,3.87 c 0,0 1.67,0.77 2.24,1.08 0.57,0.32 1.87,1.12 1.87,1.12"
       inkscape:connector-curvature="0" />
    <path
       style="display:inline;fill:none;fill-opacity:1;fill-rule:evenodd;stroke:#141717;stroke-width:0.30000001;stroke-linecap:butt;stroke-linejoin:miter;stroke-miterlimit:4;stroke-dasharray:none;stroke-opacity:1"
       id="p3311"
       d="m 30.25,12.65 c -1.85,2.34 -4.88,6.07 -6.5,8.1 -0.45,0.55 -0.64,0.75 -0.97,1.15 0.79,0.83 1.48,1.38 2.12,1.72 2.37,-3.06 5.37,-6.78 7.31,-9.37 -0.65,-0.7 -1.3,-1.21 -1.96,-1.6 z"
       inkscape:connector-curvature="0" />
    <path
       style="display:inline;fill:none;fill-opacity:1;fill-rule:evenodd;stroke:#13120f;stroke-width:0.30000001;stroke-linecap:butt;stroke-linejoin:miter;stroke-miterlimit:4;stroke-dasharray:none;stroke-opacity:1"
       id="p3308"
       d="m 35.9,3.46 c -0.51,0.43 -0.63,0.92 -0.56,1.6 0.41,0.25 0.97,0.75 1.62,1.12 1.05,0.6 1.49,0.67 1.82,0.88 C 38.77,7.07 38.76,7.1 38.75,7.12 39.33,6.65 39.71,6.06 39.93,5.59 39.24,5.12 38.31,4.6 37.62,4.25 37,3.92 36.4,3.65 35.93,3.46 c -0.01,0 -0.02,0.01 -0.03,0 z"
       inkscape:connector-curvature="0" />
    <path
       style="display:inline;fill:none;fill-opacity:1;fill-rule:evenodd;stroke:#000000;stroke-width:0.27500001;stroke-linecap:butt;stroke-linejoin:round;stroke-miterlimit:4;stroke-dasharray:none;stroke-opacity:1"
       id="stroke01-3"
       d="m 35.09,3.21 c -0.31,0.04 -2.17,2.8 -2.22,3.75 -0.13,2.72 -0.46,2.78 -1.12,3.75 -0.67,0.98 -5.74,7.21 -8,10.04 -2.27,2.82 -2.87,3.16 -4.22,5.59 -0.53,0.94 -1.88,3.8 -2.44,4.62 -0.74,-0.57 -1.47,-1.2 -2.03,-1.68 -0.56,-0.49 -0.84,-1.04 -1.22,-0.97 -0.38,0.07 -3.23,2.55 -4.66,3.87 -1.43,1.33 -2.06,2.85 -2.37,4.07 -0.32,1.21 -0.56,2.32 -0.28,3.68 0.28,1.36 0.61,2.65 2.22,2.75 1.6,0.11 3.67,-0.19 4.43,-0.47 0.77,-0.28 2.07,-1.03 3.19,-1.87 1.12,-0.84 4.95,-4.36 5.41,-4.81 0.45,-0.46 0.59,-0.72 0.59,-0.72 0,0 -0.06,-0.19 -1,-0.53 -0.94,-0.35 -0.95,-0.78 -1.44,-1.13 -0.49,-0.35 -0.28,-0.27 -0.56,-0.53 1.67,-2.6 1.89,-4.03 3.31,-6.03 2.39,-3.35 7.94,-10.09 10.35,-13.44 2.4,-3.34 3.81,-1.94 5.9,-4.06 0.49,-0.5 2.12,-2.3 1.91,-2.72 C 40.63,5.95 38.77,4.84 37.62,4.25 36.47,3.65 35.4,3.18 35.09,3.21 Z m 0.22,1.82 c 0.42,0.24 0.99,0.78 1.65,1.15 1.05,0.6 1.5,0.68 1.83,0.89 -0.21,0.34 -0.47,0.81 -0.96,1.19 -0.58,0.46 -2.04,0.91 -2.49,1.02 -0.45,0.1 -1.44,0.78 -1.44,0.78 L 33.81,10 c 0,0 0.16,-0.38 0.12,-0.69 C 33.9,8.99 33.88,7.78 34.06,7.15 34.23,6.52 35.31,5.03 35.31,5.03 Z"
       inkscape:connector-curvature="0" />
  </g>
  <use
     x="0"
     y="0"
     xlink:href="#layer4-7"
     id="use5156"
     transform="matrix(0.96876756,0.24797061,-0.24797061,0.96876756,2.6078781,-13.225041)"
     width="100%"
     height="100%" />
  <use
     x="0"
     y="0"
     xlink:href="#g4100"
     id="use5164"
     transform="matrix(0.87932712,0.47621825,-0.47621825,0.87932712,-4.5763886,-21.800646)"
     width="100%"
     height="100%" />
  <g
     id="layer2"
     transform="matrix(0.38318436,0,0,0.38318436,19.494423,17.073122)">
    <path
       style="fill:#b5b4b1;fill-opacity:1"
       id="path3172"
       d="M 6.2,31.31 C 7.37,30.01 26.78,6.61 28.71,4.4 32.33,0.26 41.39,5.82 38.8,11.13 36.22,16.43 27.46,31.69 22.37,40.49 17.07,49.68 1.55,37.26 6.2,31.31 Z"
       inkscape:connector-curvature="0" />
    <path
       style="font-style:normal;font-variant:normal;font-weight:bold;font-stretch:normal;font-size:2.82999992px;line-height:125%;font-family:'DejaVu Sans';-inkscape-font-specification:'DejaVu Sans Bold';letter-spacing:0px;word-spacing:0px;fill:#041e0a"
       id="path5699"
       d="m 30.77,18.22 c 0.04,-0.45 -0.19,-0.98 -0.56,-0.89 -0.29,-0.12 -0.67,-0.82 -0.85,-0.27 0.18,0.27 0.92,0.44 0.69,0.79 0.14,0.41 0.61,-0.18 0.44,0.47 0.19,0.21 0.16,0.08 0.29,-0.09 m -2.38,3.95 c 0.05,-0.36 -0.21,-1.11 -0.54,-0.93 -0.29,-0.12 -0.66,-0.85 -0.89,-0.5 -0.02,0.31 0.56,0.53 0.77,0.81 -0.36,0.69 0.56,0 0.36,0.55 -0.1,0.16 0.27,0.4 0.29,0.06 m -2.63,4.38 c -0.23,-0.31 -0.96,-0.62 -0.25,-0.66 0.23,-1.05 -1.42,-1.46 -1.33,-0.83 -0.43,0.25 0.23,0.57 0.43,0.82 0.33,0.31 0.66,0.62 0.99,0.94 0.05,-0.09 0.1,-0.18 0.16,-0.27 m -1.99,3.3 c -0.31,-0.57 -0.67,0.02 -0.16,0.27 0.05,-0.09 0.1,-0.18 0.16,-0.27 z m 9.14,-15.32 c -0.43,-0.3 -0.87,-0.61 -1.31,-0.92 -0.55,0.37 0.52,0.44 0.16,0.78 -0.35,1.15 0.94,1 1.14,0.14 z m -8.85,14.5 c -0.39,-0.16 -0.21,-0.69 -0.57,-0.69 -0.31,0.1 -0.76,-1.07 -1.18,-0.48 -0.25,0.59 0.41,0.11 0.59,0.47 0.56,0.25 0.01,0.63 0.48,0.9 0.25,-0.71 0.45,0.54 0.68,-0.19 z M 32.48,14.66 C 32.1,15.44 31.75,14 32.37,14.58 c 0.03,0.02 0.07,0.05 0.11,0.08 z m -0.8,1.17 c 0.55,-1.38 -2.06,-1.03 -0.81,0.05 0.22,0.2 0.64,0.27 0.81,-0.05 z m -1.82,2.96 c -0.18,-0.6 0.29,-0.14 0.26,-0.61 -0.46,-0.36 -0.93,-0.73 -1.4,-1.1 -0.56,0.41 0.91,0.65 0.02,0.83 -0.24,0.47 0.69,1.31 1.1,0.88 z m -0.58,0.94 c 0.58,-1.27 -1.97,-1.38 -0.96,-0.12 0.22,0.25 0.72,0.53 0.96,0.12 z m -2.14,3.48 c -0.16,-0.64 0.24,-0.1 0.25,-0.6 -0.49,-0.43 -0.99,-0.87 -1.49,-1.31 -0.59,0.35 0.89,0.77 0.12,0.8 -0.41,0.47 0.66,1.52 1.1,1.1 m -0.67,1.09 c -0.19,-0.61 0.35,-0.13 0.21,-0.64 -0.34,-0.3 -0.69,-0.61 -1.03,-0.92 -0.46,0.46 0.64,0.63 0.59,1.14 -0.29,0.15 0.07,0.59 0.22,0.43 z m -0.38,0.62 c 0.61,-1.09 -1.88,-1.9 -1.11,-0.36 0.22,0.3 0.78,0.84 1.11,0.36 z m -1.99,3.25 c 0.62,-0.9 -1.6,-2.02 -1.21,-0.78 0.24,0.43 0.24,-0.69 0.71,-0.02 0.59,0.38 -0.39,0.94 0.39,0.91 l 0.1,-0.11 m -1.32,2.15 c 0.59,-0.97 -1.74,-2.23 -1.25,-0.64 0.21,0.35 0.83,1.15 1.25,0.64 z m -0.73,1.19 c 0.04,-0.55 -0.08,-0.34 0.22,-0.42 0.19,-0.34 -0.46,-0.59 -0.63,-0.9 -0.17,-0.36 -0.85,-0.66 -0.53,-0.1 0.45,0.24 1.1,1.56 0.24,0.74 -0.21,-0.21 -0.69,-0.86 -0.69,-0.28 0.42,0.36 0.73,0.95 1.29,1.07 l 0.1,-0.09 z m 9.24,-15.07 c -0.36,-0.31 -1.36,-1.12 -1.24,-0.1 -0.55,-0.17 -0.05,0.46 0.26,0.57 0.24,0.45 0.91,0.26 0.36,-0.09 -0.59,-0.22 -0.47,-1.05 0.14,-0.35 0.27,0.28 0.3,0.3 0.46,-0.01 m -2.39,3.88 c -0.37,-0.24 -1.06,-1.17 -1.34,-0.44 0.19,0.17 -0.58,0.24 -0.01,0.56 0.29,0.15 0.66,0.77 0.91,0.6 0.22,-0.39 -0.97,-0.6 -0.58,-1.08 0.39,-0.05 0.83,1.05 1.03,0.35 m -3.87,6.29 c -0.41,-0.31 -0.73,-0.89 -1.27,-0.94 -0.29,0.35 0.01,0.49 -0.33,0.49 -0.19,0.33 0.48,0.58 0.65,0.87 0.18,0.45 0.83,0.4 0.4,-0.03 -0.48,-0.23 -0.94,-1.42 -0.1,-0.58 0.27,0.15 0.47,0.74 0.64,0.19 m -1.68,2.74 c -0.4,-0.4 -0.81,-0.8 -1.21,-1.2 -0.39,0.36 0.29,0.6 0.48,0.9 0.26,0.13 0.56,0.9 0.73,0.29 z m 8.16,-13.73 c -1.16,0.22 -0.39,-1.32 3.2e-5,8e-6 M 29.04,19.55 c -0.72,0.31 -0.83,-1.18 -0.07,-0.32 0.06,0.08 0.14,0.21 0.07,0.32 m -3.21,5.16 c -0.55,0.3 -1.03,-1.17 -0.22,-0.49 0.11,0.12 0.31,0.3 0.22,0.49 m -3.34,5.36 c -0.59,0.26 -1.09,-1.34 -0.25,-0.55 0.11,0.14 0.33,0.33 0.25,0.55 z m 7.18,-11.59 c -0.67,0.33 -0.8,-1.13 -0.05,-0.29 0.07,0.07 0.13,0.2 0.05,0.29 z m -2.74,4.39 c -0.71,0.3 -0.84,-1.25 -0.07,-0.3 0.05,0.07 0.15,0.2 0.07,0.3 m -1.77,2.84 c -0.54,0.29 -1.01,-1.18 -0.21,-0.48 0.1,0.12 0.33,0.3 0.21,0.48 z"
       inkscape:connector-curvature="0" />
    <path
       style="color:#000000;font-style:normal;font-variant:normal;font-weight:bold;font-stretch:normal;font-size:8px;line-height:125%;font-family:'DejaVu Sans';-inkscape-font-specification:'DejaVu Sans Bold';letter-spacing:0px;word-spacing:0px;stroke:#914800;stroke-width:0.28999999;stroke-opacity:0.97000002"
       id="path5473"
       d="m 29.11,14.78 c 0.36,-0.54 0.49,-1.04 0.38,-1.47 -0.1,-0.42 -0.45,-0.76 -1.03,-1.01 -0.57,-0.24 -1.14,-0.28 -1.69,-0.13 -0.56,0.15 -1.07,0.49 -1.52,1.02 -0.45,0.52 -0.63,1 -0.52,1.43 0.11,0.43 0.51,0.78 1.17,1.04 0.65,0.26 1.28,0.32 1.84,0.17 0.55,-0.15 1.01,-0.51 1.38,-1.06 0,0 0,0 0,0 m -2.55,3.8 c 0.13,-0.2 0.26,-0.42 0.37,-0.64 0.11,-0.22 0.2,-0.44 0.29,-0.67 0,0 -0.76,-0.3 -0.76,-0.3 -0.04,0.2 -0.13,0.4 -0.22,0.59 -0.08,0.19 -0.17,0.36 -0.29,0.53 -0.16,0.23 -0.34,0.4 -0.52,0.5 -0.18,0.09 -0.35,0.08 -0.52,0.02 -0.18,-0.07 -0.25,-0.18 -0.24,-0.35 0,-0.16 0.1,-0.38 0.3,-0.64 0,0 0.32,-0.43 0.32,-0.43 0,0 -0.69,-0.27 -0.69,-0.27 0,0 -0.32,0.41 -0.32,0.41 -0.23,0.29 -0.44,0.51 -0.66,0.62 -0.22,0.11 -0.43,0.14 -0.63,0.06 -0.19,-0.07 -0.26,-0.22 -0.25,-0.41 0.01,-0.18 0.12,-0.41 0.35,-0.69 0.15,-0.18 0.32,-0.36 0.53,-0.53 0.2,-0.17 0.46,-0.33 0.71,-0.48 0,0 -0.82,-0.33 -0.82,-0.33 -0.23,0.17 -0.45,0.37 -0.66,0.57 -0.21,0.19 -0.4,0.36 -0.58,0.57 -0.49,0.58 -0.75,1.07 -0.78,1.46 -0.02,0.39 0.17,0.69 0.61,0.86 0.3,0.11 0.59,0.13 0.89,0.06 0.3,-0.06 0.6,-0.23 0.89,-0.47 -0.11,0.27 -0.14,0.51 -0.07,0.71 0.07,0.19 0.25,0.32 0.52,0.42 0.38,0.14 0.76,0.13 1.14,-0.06 0.37,-0.19 0.73,-0.55 1.09,-1.09 0,0 0,0 0,0 m -2.64,3.73 c 0,0 0.42,-1.04 0.42,-1.04 0,0 -0.8,-0.3 -0.8,-0.3 0,0 -0.44,1.04 -0.44,1.04 0,0 -3.12,-1.18 -3.12,-1.18 0,0 0.74,-0.9 0.74,-0.9 0,0 -0.82,-0.31 -0.82,-0.31 0,0 -2.38,2.79 -2.38,2.79 0,0 0.9,0.33 0.9,0.33 0,0 0.74,-0.9 0.74,-0.9 0,0 4.07,1.53 4.07,1.53 0,0 0.69,-1.02 0.69,-1.02 0,0 0,0 0,0 m -2.89,4.28 c 0,0 -1.96,-2.82 -1.96,-2.82 0,0 -1.14,-0.42 -1.14,-0.42 0,0 -1.47,1.79 -1.47,1.79 0,0 -0.99,-0.36 -0.99,-0.36 0,0 -0.84,0.98 -0.84,0.98 0,0 1.02,0.37 1.02,0.37 0,0 -0.46,0.56 -0.46,0.56 0,0 1.06,0.38 1.06,0.38 0,0 0.44,-0.56 0.44,-0.56 0,0 3.52,1.28 3.52,1.28 0,0 0.81,-1.2 0.81,-1.2 0,0 0,0 0,0 m 7.43,-12.1 c -0.16,0.22 -0.36,0.35 -0.62,0.37 -0.26,0.01 -0.65,-0.06 -1.13,-0.26 -0.48,-0.19 -0.78,-0.39 -0.89,-0.56 -0.11,-0.17 -0.07,-0.37 0.1,-0.59 0.18,-0.22 0.39,-0.34 0.66,-0.36 0.26,-0.01 0.63,0.06 1.09,0.25 0.45,0.18 0.74,0.38 0.86,0.55 0.11,0.17 0.09,0.37 -0.06,0.6 0,0 0,0 0,0 m -8.72,11.83 c 0,0 -2.28,-0.83 -2.28,-0.83 0,0 0.9,-1.15 0.9,-1.15 0,0 1.37,1.99 1.37,1.99 0,0 0,0 0,0"
       inkscape:connector-curvature="0" />
    <path
       style="color:#000000;fill:#a93b06;stroke-width:0.50999999"
       id="path3991"
       d="m 11.4,28.09 c -1.2,0.03 -2.28,0.31 -3.18,0.81 -0.38,0.45 -1.89,2.28 -2,2.4 -4.44,5.68 9.49,17.24 15.37,10.25 0.04,-0.12 0.12,-0.24 0.15,-0.37 0.17,-0.14 0.32,-0.3 0.46,-0.46 0.02,-0.02 0.03,-0.06 0.06,-0.09 0.02,-0.04 0.06,-0.07 0.09,-0.12 0.19,-0.33 0.45,-0.8 0.65,-1.15 1.08,-2.88 -0.94,-6.85 -4.96,-9.31 -2.21,-1.35 -4.57,-2 -6.65,-1.93 z"
       inkscape:connector-curvature="0" />
    <path
       style="fill:#155724;fill-opacity:1"
       id="path3944"
       d="m 32.18,2.96 c -1.31,-0.02 -2.56,0.4 -3.46,1.43 -0.45,0.51 -3.47,4.16 -5.37,6.43 4.06,-2.09 6.35,-0.63 8.09,0.56 1.61,1.11 4,3.31 3.25,7.43 1.75,-3.17 3.3,-6.03 4.12,-7.71 1.94,-3.97 -2.67,-8.08 -6.62,-8.15 z"
       inkscape:connector-curvature="0" />
    <path
       style="fill:#979f00"
       id="path5647"
       d="m 31.5,3.49 c 0,0 -0.37,0.68 -0.68,1.06 0.38,-0.13 1.71,0.25 1.71,0.25 0,0 -0.3,0.43 -0.75,0.96 -0.23,0.28 0.17,0.8 0.78,1.31 C 31.48,6.54 30.3,6.13 29.31,6.2 c 0,0 -0.39,0.69 -0.71,1.09 0.4,-0.14 1.81,0.28 1.81,0.28 0,0 -0.31,0.46 -0.78,1.03 -0.69,0.83 3.71,3.6 4.4,2.65 0.35,-0.49 1.06,-1.42 1.5,-2.18 C 35.33,8.86 34.96,8.55 34.5,8.23 35.16,8.49 35.75,8.58 35.96,8.29 36.29,7.83 36.98,6.96 37.39,6.23 36.6,5.4 33.56,3.35 31.49,3.48 Z m 2.71,2 1,0.65 c 0,0 -0.27,0.36 -0.37,0.5 -0.1,0.13 -1.17,-0.31 -0.96,-0.62 l 0.34,-0.53 z m -2.03,2.81 1.06,0.68 c 0,0 -0.29,0.38 -0.4,0.53 -0.1,0.14 -1.25,-0.32 -1.03,-0.65 L 32.18,8.3 Z"
       inkscape:connector-curvature="0" />
    <path
       style="fill:#e9d6cd;fill-opacity:0.07999998"
       id="path4005"
       d="m 8.53,29.12 c -0.19,0.01 -0.38,0.04 -0.59,0.09 -0.55,0.66 -1.62,1.99 -1.71,2.09 -1.06,1.36 -1.08,3.05 -0.4,4.75 -0.03,-2.75 0.28,-3.34 1,-4 0.91,-0.83 2.14,-1.44 5.03,-0.75 0.17,-0.73 -1.21,-2.31 -3.31,-2.17 z"
       inkscape:connector-curvature="0" />
    <path
       style="fill:none;stroke:#d4d4d4;stroke-width:0.80000001;stroke-linecap:round;stroke-opacity:0.31000001"
       id="path4053"
       d="m 7.91,30.58 c 0.59,-0.2 1.39,-0.3 1.63,-0.2"
       inkscape:connector-curvature="0" />
    <path
       style="fill:#ffffff;fill-opacity:0.1"
       id="path4082"
       d="m 17.36,39.25 c 3.4,-0.45 3.29,-0.79 6.12,-5.44 C 26.33,29.15 37.45,9.4 38.13,8.61 38.82,7.81 37.91,5.09 37.57,4.63 37.23,4.18 37.68,5.66 37.23,6.79 36.77,7.93 19.41,33.92 18.95,34.49 c -0.45,0.56 1.13,1.92 -1.81,3.51 -2.95,1.58 0.22,1.24 0.22,1.24 z"
       inkscape:connector-curvature="0" />
    <path
       style="fill:#ffffff;fill-opacity:0.27000002"
       id="path4084"
       d="M 31.09,3.06 C 30.2,3.23 29.37,3.66 28.72,4.4 26.79,6.6 7.39,30.01 6.22,31.3 5.76,31.89 5.51,32.54 5.41,33.23 6.05,32.22 6.82,31.77 7.16,31.77 8.39,30.13 27.34,7.53 31.09,3.06 Z"
       inkscape:connector-curvature="0" />
    <path
       style="fill:#ffffff;fill-opacity:0.12000002"
       id="path4086"
       d="m 34.65,3.5 c -2.68,3.51 -20.97,27.39 -21.5,28.03 -0.56,0.68 -0.43,3.53 -0.43,3.53 l 4.4,3.62 c 0,0 1.83,-1.01 3.31,-2.37 C 21.61,35.22 33.33,14.76 38.21,6.21 38.01,5.93 37.77,5.68 37.53,5.43 37.51,5.42 37.51,5.39 37.5,5.37 37.45,5.33 37.41,5.29 37.37,5.25 37.16,5.04 36.94,4.86 36.71,4.68 36.69,4.66 36.67,4.64 36.65,4.62 36.62,4.6 36.59,4.58 36.56,4.56 36.29,4.36 36.01,4.16 35.71,4 35.71,3.99 35.69,4 35.68,4 35.67,3.99 35.66,3.97 35.65,3.96 35.37,3.81 35.07,3.68 34.78,3.56 34.73,3.54 34.69,3.51 34.65,3.5 Z"
       inkscape:connector-curvature="0" />
    <path
       style="color:#000000;fill:#762e18;fill-opacity:0.72000002;stroke-width:0.47"
       id="path3954"
       d="m 10.25,30.96 c -1.93,0.05 -3.56,0.75 -4.4,2.06 -0.24,0.38 -0.37,0.81 -0.46,1.25 0.48,5.44 9.82,12.18 15.12,8.34 0.25,-0.22 0.47,-0.46 0.65,-0.75 1.67,-2.62 -0.39,-6.71 -4.62,-9.15 -2.11,-1.21 -4.34,-1.8 -6.28,-1.75 z"
       inkscape:connector-curvature="0" />
    <path
       style="color:#000000;fill:#474840;stroke-width:0.28"
       id="path3948"
       d="M 10.18,32.62 C 8.71,32.67 7.53,33.21 7,34.21 c -1.07,2 0.82,5.13 4.25,7 3.42,1.86 7.04,1.75 8.12,-0.25 1.07,-2 -0.79,-5.13 -4.21,-7 -1.72,-0.93 -3.5,-1.39 -4.98,-1.34 z"
       inkscape:connector-curvature="0" />
    <path
       style="fill:#e9d6cd;fill-opacity:0.26000001"
       id="path4009"
       d="m 18.03,36.18 -1.87,1.03 0.37,1.53 2.93,-0.21 c -0.25,-0.78 -0.74,-1.57 -1.43,-2.34 z"
       inkscape:connector-curvature="0" />
    <path
       style="fill:#1e130d;fill-opacity:0.26000001"
       id="path4007"
       d="M 14.28,33.53 12,37.75 15.84,42.5 c 1.62,0.02 2.95,-0.45 3.53,-1.53 1.07,-2 -0.79,-5.13 -4.21,-7 -0.28,-0.15 -0.58,-0.3 -0.87,-0.43 z"
       inkscape:connector-curvature="0" />
    <path
       style="color:#000000;fill:#1c201f;stroke-width:0.28"
       id="path3946"
       d="m 10.53,33.5 c -1.25,0.03 -2.26,0.49 -2.71,1.34 -0.91,1.69 0.69,4.35 3.59,5.93 2.9,1.58 5.99,1.51 6.9,-0.18 0.91,-1.7 -0.69,-4.39 -3.6,-5.97 -1.45,-0.79 -2.93,-1.16 -4.18,-1.12 z"
       inkscape:connector-curvature="0" />
    <path
       style="color:#000000;fill:#675c48;stroke-width:0.28"
       id="path3950"
       d="m 11.31,35.84 c -0.74,0.02 -1.35,0.31 -1.62,0.84 -0.54,1.06 0.41,2.72 2.15,3.71 1.74,0.99 3.57,0.94 4.12,-0.12 0.54,-1.06 -0.41,-2.72 -2.15,-3.71 -0.87,-0.49 -1.75,-0.74 -2.5,-0.71 z"
       inkscape:connector-curvature="0" />
    <path
       style="color:#000000;fill:#837b75;stroke-width:0.28"
       id="path3952"
       d="m 11.28,36.71 c -0.63,0.01 -1.14,0.25 -1.37,0.68 -0.46,0.86 0.37,2.19 1.84,3 1.47,0.8 3.03,0.76 3.5,-0.09 0.46,-0.86 -0.37,-2.22 -1.84,-3.03 -0.73,-0.4 -1.49,-0.58 -2.12,-0.56 z"
       inkscape:connector-curvature="0" />
    <path
       style="color:#000000;fill:#ffffff;fill-opacity:0.66000001;stroke-width:1.20000005"
       id="path4047"
       d="m 11.12,35.78 c -0.46,0 -0.84,0.24 -0.84,0.53 0,0.28 0.37,0.5 0.84,0.5 0.46,0 0.84,-0.21 0.84,-0.5 0,-0.28 -0.37,-0.53 -0.84,-0.53 z"
       inkscape:connector-curvature="0" />
    <path
       style="fill:none;stroke:#000000;stroke-width:0.88999999;stroke-opacity:0.41000001"
       id="path4049"
       d="m 12.96,36.62 c 0.54,0.14 1.38,0.69 1.68,1.13"
       inkscape:connector-curvature="0" />
    <path
       style="fill:none;stroke:#dedede;stroke-width:0.69;stroke-opacity:0.22000002"
       id="path4051"
       d="m 17.71,32.95 c 0.69,0.19 1.03,0.74 1.28,0.98"
       inkscape:connector-curvature="0" />
    <path
       style="fill:none;stroke:#ffffff;stroke-width:1.38999999;stroke-opacity:0.05"
       id="path4134"
       d="m 16.71,31.73 c 0.74,0.29 2.56,1.45 3.27,2.41"
       inkscape:connector-curvature="0" />
    <path
       style="fill:none;stroke:#44160d;stroke-width:1.20000005;stroke-linecap:round;stroke-opacity:0.26000001"
       id="path4003"
       d="m 13.04,31.84 c 3.79,1.13 9.4,5.08 7.5,10.08"
       inkscape:connector-curvature="0" />
    <path
       style="fill:none;stroke:#f5f5f5;stroke-width:0.80000001;stroke-opacity:0.27000002"
       id="path4132"
       d="m 19.65,33.07 c 0.4,0.22 0.63,0.67 0.63,0.67"
       inkscape:connector-curvature="0" />
    <path
       style="fill:none;stroke:#000000;stroke-width:0.5"
       id="stroke01"
       d="M 6.2,31.31 C 7.37,30.01 26.78,6.61 28.71,4.4 32.33,0.26 41.39,5.82 38.8,11.13 36.22,16.43 27.46,31.69 22.37,40.49 17.07,49.68 1.55,37.26 6.2,31.31 Z"
       inkscape:connector-curvature="0" />
  </g>
  <use
     x="0"
     y="0"
     xlink:href="#layer2"
     id="use5225"
     transform="matrix(0.95526467,-0.29575228,0.29575228,0.95526467,0.23842501,13.27381)"
     width="100%"
     height="100%" />
  <use
     x="0"
     y="0"
     xlink:href="#layer2"
     id="use5227"
     transform="matrix(0.85486395,-0.51885222,0.51885222,0.85486395,4.6440848,25.00494)"
     width="100%"
     height="100%" />
</svg>
