<?xml version="1.0" encoding="UTF-8" standalone="no"?>
<svg
   xmlns:dc="http://purl.org/dc/elements/1.1/"
   xmlns:cc="http://creativecommons.org/ns#"
   xmlns:rdf="http://www.w3.org/1999/02/22-rdf-syntax-ns#"
   xmlns:svg="http://www.w3.org/2000/svg"
   xmlns="http://www.w3.org/2000/svg"
   xmlns:sodipodi="http://sodipodi.sourceforge.net/DTD/sodipodi-0.dtd"
   xmlns:inkscape="http://www.inkscape.org/namespaces/inkscape"
   width="100%"
   height="100%"
   viewBox="0 0 640 480"
   id="redcarpet01"
   version="1.1"
   inkscape:version="0.91 r13725"
   sodipodi:docname="redsplash01.svg">
  <sodipodi:namedview
     pagecolor="#ffffff"
     bordercolor="#666666"
     borderopacity="1"
     objecttolerance="10"
     gridtolerance="10"
     guidetolerance="10"
     inkscape:pageopacity="0"
     inkscape:pageshadow="2"
     inkscape:window-width="701"
     inkscape:window-height="480"
     id="namedview17"
     showgrid="false"
     inkscape:zoom="0.091571381"
     inkscape:cx="304.89131"
     inkscape:cy="140.74498"
     inkscape:window-x="0"
     inkscape:window-y="0"
     inkscape:window-maximized="0"
     inkscape:current-layer="redcarpet01" />
  <metadata
     id="metadata9">
    <rdf:RDF>
      <cc:Work
         rdf:about="">
        <dc:format>image/svg+xml</dc:format>
        <dc:type
           rdf:resource="http://purl.org/dc/dcmitype/StillImage" />
        <dc:title />
      </cc:Work>
    </rdf:RDF>
  </metadata>
  <defs
     id="defs8" />
  <rect
     id="rect7"
     style="fill:#950000;fill-opacity:1"
     height="480"
     width="640"
     y="0"
     x="0" />
  <path
     id="path4163"
     d="m 241.27954,214.08761 c 6.14524,-2.76601 14.81676,-1.86686 26.19148,2.5705 22.24967,9.02568 37.90589,22.3983 38.63523,33.33024 0.51043,7.65245 -12.03452,12.40896 -28.62002,10.69186 -31.43235,-3.23642 -52.05542,-20.51756 -44.57035,-37.64477 1.88943,-4.30259 4.67644,-7.28817 8.36366,-8.94783 z m 88.70398,-4.50362 c 7.47906,-1.78645 16.26257,1.8069 23.08315,9.65078 0.29287,0.33252 0.34602,0.49895 0.605,0.80415 6.08906,-5.35677 14.27811,-10.66927 25.10615,-15.82366 6.25792,-3.01519 30.31438,-11.61893 37.23687,-13.34242 34.95733,-8.66962 65.37276,-10.42005 88.82504,-5.17885 5.14716,1.15227 8.70004,2.47426 14.12915,5.22478 7.87228,3.94294 11.33996,6.79276 14.92219,12.20089 l 2.11419,3.09671 10.23173,-3.76597 c 6.86151,-2.50694 14.3544,-4.73048 21.83269,-6.70932 -5.99094,-12.14166 -1.99111,-35.29922 11.06855,-50.77945 7.32441,-8.32118 12.85422,-10.69783 21.48353,-8.74608 20.27891,4.58661 28.14243,19.94905 20.1042,39.44723 -1.54721,4.11663 -5.95998,8.91187 -11.39187,13.36178 24.29348,-0.59499 41.49511,6.53889 48.39324,20.50344 5.24198,10.66093 3.48136,25.01934 -4.77081,37.9858 -7.86859,12.47852 -17.95798,20.54869 -40.08276,31.89934 -25.72765,13.25486 -30.08807,15.81503 -32.30258,19.37795 -1.70191,2.73092 -0.92595,4.71421 2.60365,6.45664 7.03933,3.61183 14.58489,4.22656 31.0705,2.39055 23.96552,-2.59484 28.13888,-2.76102 35.80651,-1.28687 2.30258,0.39374 6.01604,1.73173 8.2055,2.88657 4.07147,2.10828 9.6598,7.03725 11.4222,10.02242 2.64362,4.56827 1.16158,10.18374 -4.01831,15.20069 -2.75395,2.65279 -5.67664,4.74367 -22.48595,16.2857 -11.78273,8.08487 -17.68275,15.32752 -18.57589,22.92569 -0.34352,3.19167 -0.22395,4.502 1.11618,8.41034 1.78562,5.45299 3.98655,8.71137 11.47427,16.82559 5.53867,6.03549 10.42279,12.47129 14.14502,18.86002 3.88387,6.69812 8.60077,21.62947 9.05441,28.54508 1.0152,17.29784 -4.29707,32.38481 -16.16234,45.7494 -11.81068,13.34683 -32.30015,24.77204 -54.81255,30.51365 -37.64828,9.67155 -62.1099,7.93822 -75.64925,-5.19805 -4.51305,-4.3788 -7.11638,-8.81756 -9.50914,-16.12465 -2.41062,-7.36164 -3.26913,-13.12527 -4.32635,-29.26211 -1.19379,-17.84314 -2.61897,-23.83507 -6.62631,-27.77569 -6.76921,-6.65886 -22.83407,-1.70055 -49.97885,15.33958 -9.86758,6.18975 -17.23968,9.86692 -21.78076,10.75013 -5.54045,1.14966 -10.14167,0.77635 -14.30537,-1.0602 -6.82416,-3.139 -11.31862,-9.14316 -16.83566,-22.67255 -5.46244,-13.54715 -9.3903,-21.87335 -11.7676,-25.26096 -4.4668,-6.26557 -9.70244,-9.19129 -16.21766,-8.98992 -4.77307,0.17432 -14.1976,3.86808 -20.13439,7.86437 -14.67777,9.93839 -20.35236,12.88924 -29.12788,15.03825 -21.82138,5.45504 -45.1871,-1.32739 -62.13691,-18.05641 -9.20579,-9.12137 -14.73666,-18.29593 -18.06813,-29.94467 -4.86311,-17.06424 -1.87982,-32.47033 8.86097,-45.94983 8.34788,-10.46182 19.25749,-17.72923 35.87423,-23.77428 20.65309,-7.54788 36.31407,-8.38576 66.71778,-3.48882 26.75973,4.27902 37.33405,4.08545 50.80593,-0.86946 7.96344,-2.9694 14.61363,-6.96185 19.26505,-11.56419 5.14417,-5.12602 5.49515,-9.42366 1.10892,-13.78363 -4.5845,-4.59696 -11.45273,-7.84455 -30.47109,-14.2962 -14.12792,-4.79262 -26.82069,-10.8949 -32.90943,-15.84453 -7.52029,-6.08731 -10.85379,-12.62857 -10.17528,-19.35326 -0.0993,0.002 -0.11841,0.0209 -0.21334,0.0212 -19.85944,0.53336 -28.48645,-5.36262 -24.82251,-16.90368 1.15046,-3.40906 9.33788,-11.00045 12.99266,-11.83255 z m 369.97575,45.00368 c 4.43546,-1.38994 8.48602,-2.61995 8.94052,-2.70738 0.47337,-0.0298 2.82586,-0.3834 5.16888,-0.78766 15.03695,-2.3881 28.40422,-0.48102 39.22271,5.63686 12.42883,6.97921 18.55605,19.58474 13.95397,28.57853 -4.45644,8.88579 -17.65863,11.35016 -35.1072,6.55816 l -4.43081,-1.21363 -3.99553,2.57949 c -4.49701,2.86122 -12.92348,5.85645 -17.9889,6.42877 -5.41083,0.62409 -13.05874,-0.72336 -17.90877,-3.18045 -6.22519,-3.15404 -10.41066,-7.64047 -12.25076,-13.07563 -2.37777,-7.07055 -0.53408,-13.24389 5.68466,-19.14446 4.28572,-4.06001 9.42344,-6.69073 18.71151,-9.67171 z m 49.75707,62.59167 c 3.66432,-1.26237 7.44272,-1.53853 12.75873,-0.97561 8.68884,0.89506 13.15016,5.60931 12.45605,13.17961 -0.51679,4.75336 -1.57846,6.96586 -4.27977,9.10164 -2.47109,1.93311 -8.96593,2.86096 -13.29216,1.81038 -2.05572,-0.52087 -6.53719,-2.68453 -9.96539,-4.90157 -5.09341,-3.40951 -6.3151,-4.57794 -7.10218,-7.28124 -1.2545,-4.2135 0.0107,-6.39932 5.76511,-9.34374 1.24817,-0.65027 2.43848,-1.16772 3.6598,-1.58891 z M 299.47829,485.95351 c 2.67827,-1.17239 5.74669,-2.12711 9.24975,-2.88254 9.21416,-2.02722 10.21086,-1.97048 13.0605,0.31899 3.91237,3.19535 4.13845,8.5266 0.76289,18.23081 -3.87238,10.93277 -10.46002,20.80328 -15.84761,23.7923 -4.07173,2.0918 -5.17512,2.17025 -8.93105,0.9445 -8.62054,-2.9738 -14.61788,-13.87099 -12.72781,-22.89313 1.91161,-8.46375 6.39873,-13.99327 14.43323,-17.51124 z m 384.84325,-26.72272 c 1.43552,-0.48065 3.49771,-0.83746 6.8241,-1.25707 4.85566,-0.68514 10.31501,-0.73975 13.93717,-0.13917 11.07854,1.87327 20.10908,7.06645 22.4204,12.7034 1.53635,3.7248 0.81018,9.38777 -1.60087,12.35582 -4.73713,5.82278 -16.74906,4.58342 -32.20475,-3.24158 -6.87222,-3.57848 -13.42737,-10.02781 -13.94464,-13.69432 -0.18155,-1.28826 0.53145,-3.3073 1.55277,-4.66415 0.77322,-0.96787 1.5801,-1.58254 3.01589,-2.0627 z"
     style="fill:#bd4734;fill-opacity:1;stroke:none" />
  <path
     d="m -65.051806,304.81851 c -2.95911,-3.66881 -4.36143,-11.65649 -3.15964,-17.99677 1.196,-6.30966 1.60311,-7.11011 14.000901,-27.53255 18.325297,-30.18632 24.852351,-46.40064 37.586197,-93.37068 0.558385,-2.05917 -2.149129,-4.63247 -4.873795,-4.63247 -3.541812,0 -6.252715,2.57806 -7.94926,7.55987 -1.913947,5.6195 -3.168174,6.76839 -8.092486,7.41251 -4.6983,0.61431 -10.295068,-1.5735 -12.528732,-4.89828 -1.579727,-2.35122 -1.574683,-2.95536 0.09267,-10.96193 1.665178,-7.9996 1.671329,-8.70964 0.110983,-12.69441 -4.637055,-11.84153 -16.084386,-13.25063 -22.651416,-2.78812 -4.4169,7.03732 -14.03978,19.12025 -19.61234,24.62625 -9.865326,9.74767 -16.313886,10.05878 -22.962536,1.10761 -2.199,-2.96049 -2.91556,-4.97227 -2.91556,-8.18528 0,-3.70217 0.48045,-4.69078 3.66862,-7.54812 4.69692,-4.20977 11.32319,-7.80191 21.766966,-11.79978 14.21978,-5.44347 20.48231,-10.27931 24.02704,-18.55312 2.63628,-6.15335 1.41021,-13.70863 -2.5608,-15.7813 -5.83407,-3.04507 -12.7013,2.06368 -24.39427,18.14746 -10.848046,14.92163 -16.717226,18.58273 -28.833816,17.98601 -8.37607,-0.4126 -12.3492,-2.60033 -16.92591,-9.32013 -4.17364,-6.12814 -5.37956,-10.62896 -4.96062,-18.51541 0.309,-5.80991 0.83254,-7.49973 3.48532,-11.24396 3.71236,-5.23964 10.44966,-9.65275 17.93918,-11.750747 3.05704,-0.856385 12.48519,-1.905513 21.52235,-2.394917 19.989286,-1.082409 26.142426,-2.266945 48.111128,-9.261849 11.106787,-3.536262 14.439726,-5.965458 14.439726,-10.523854 0,-2.763319 -4.038759,-6.660015 -7.658969,-7.389358 -2.659198,-0.535642 -22.788949,-2.452116 -25.772369,-2.453456 -2.71696,-0.0014 -7.53711,-4.673561 -8.56423,-8.301179 -1.47896,-5.224128 0.69134,-9.440118 5.51114,-10.705923 5.13135,-1.34751 8.92832,-0.177695 18.39653,5.666912 4.298706,2.653498 10.812202,5.716211 14.474208,6.805933 6.394203,1.902711 6.830836,1.917007 11.007408,0.361623 8.402758,-3.129644 9.415202,-8.650447 3.612132,-19.697689 -4.787961,-9.114757 -13.596463,-18.29399 -21.100015,-21.988086 -11.327413,-5.5765797 -18.706623,-14.43339225 -23.322313,-27.992326 -1.83756,-5.397893 -2.26814,-8.691331 -2.24522,-17.173627 0.0275,-9.303034 0.32184,-11.115235 2.61657,-15.956486 5.72064,-12.070783 17.066925,-12.406169 24.427266,-0.722152 2.359284,3.74526 3.073182,6.937161 5.756955,25.742387 3.515035,24.6298457 4.859758,28.6857877 12.643883,38.136442 8.059108,9.784563 15.150986,12.919524 19.540926,8.638196 2.8774194,-2.806224 3.2861824,-5.88231 1.5403914,-11.590537 C -10.720408,10.463525 -11.67967,5.1495467 -11.98885,1.4762717 c -0.485959,-5.777086 -0.152205,-7.915384 2.4724274,-15.8411007 4.920088,-14.854883 3.955331,-21.277268 -5.3937744,-35.906236 -5.437688,-8.508766 -5.96491,-12.214856 -2.283729,-16.05749 4.581946,-4.782947 11.1609944,-6.673241 13.5313634,-3.887875 0.752783,0.884443 1.026932,7.162048 0.865556,19.797369 -0.261315,20.442162 -0.613412,18.896202 7.574898,33.290616 2.8159,4.950372 5.3298486,15.4893687 5.3545196,22.4473527 0.0096,2.745139 0.660169,5.6918783 1.520135,6.8898013 2.721181,3.78862 12.007374,4.865458 15.926485,1.846852 0.708772,-0.545557 3.21705,-3.900455 5.574859,-7.4552833 2.452718,-3.697572 5.978114,-7.55450195 8.238731,-9.013513 3.386763,-2.185792 4.713335,-2.488608 9.282624,-2.11907 4.441563,0.359151 5.995075,1.015973 9.308565,3.93540705 3.126186,2.75451095 4.780909,3.50433595 7.733609,3.50433595 7.822915,0 16.781967,-7.248138 16.781967,-13.5769137 0,-1.539947 -1.32556,-5.745601 -2.945908,-9.346009 -4.350426,-9.666915 -4.596529,-13.357546 -1.49392,-22.410393 5.350501,-15.611107 10.143137,-19.948466 22.049112,-19.954315 9.90125,-0.0042 16.69899,4.604498 18.42414,12.493174 1.15419,5.277979 0.31541,9.197084 -4.45963,20.832486 -10.38319,25.3018147 -11.02556,33.1444607 -3.32964,40.650046 1.97923,1.930308 5.44429,4.048956 7.70014,4.708099 6.62637,1.936202 11.34621,-0.400137 20.35083,-10.0730023 8.99865,-9.666585 13.63148,-11.986749 19.31251,-9.671774 2.998,1.221625 3.73775,2.167858 5.04123,6.448561 0.83987,2.75927 1.52765,6.0697804 1.52765,7.3567443 0,10.145454 -9.56219,20.203575 -22.0116,23.153111 -2.6903,0.637431 -6.99845,2.183501 -9.57366,3.435768 -14.76982,7.182199 -8.50821,22.157909 9.29244,22.224731 7.89002,0.02938 14.71774,-2.800113 23.27105,-9.644603 15.56863,-12.458051 34.74857,-25.788171 42.39608,-29.465499 12.27998,-5.904848 29.04185,-8.16811 40.83358,-5.513614 12.16619,2.738795 16.87641,14.701503 10.60828,26.941736 -3.28132,6.407625 -4.24323,6.69167 -15.89486,4.692546 -18.68821,-3.206403 -34.99448,-1.769299 -51.26609,4.518213 -13.66,5.278445 -28.37601,13.058319 -30.9016,16.336847 -5.20333,6.754515 -3.94635,13.880904 3.28011,18.594853 8.72194,5.689245 10.88363,8.13379 11.43835,12.933573 0.73719,6.375557 -0.95605,9.461437 -7.73479,14.098937 -8.94365,6.11822 -11.52326,11.72528 -8.2326,17.89347 2.04277,3.82892 5.33995,6.48233 11.34611,9.13073 7.85896,3.46533 13.27252,3.95872 22.19619,2.0225 10.67952,-2.31732 18.09313,-1.59468 25.40964,2.47636 11.96282,6.65626 18.30081,14.7326 22.39835,28.54142 1.42147,4.79044 1.83261,9.24109 1.80639,19.55889 -0.0366,15.08084 -1.25167,19.75895 -6.49157,25.03133 -11.87205,11.94603 -30.06228,-4.45761 -36.42421,-32.847 -2.74483,-12.24789 -5.85157,-18.8924 -11.19391,-23.94059 -6.99284,-6.60792 -24.32145,-13.40033 -31.04711,-12.16985 -4.29339,0.78579 -10.71694,7.07793 -12.06799,11.8218 -2.27658,7.99355 -0.73535,12.95014 7.32806,23.56685 15.3405,20.19797 19.76795,28.48631 20.76664,38.87564 0.64091,6.66321 -0.54189,9.23338 -5.47207,11.89331 -4.99995,2.69762 -9.13849,3.36879 -13.57941,2.20268 -5.25256,-1.37948 -8.23222,-4.73855 -8.68296,-9.78903 -2.36158,-26.45784 -4.03712,-33.2067 -9.90274,-39.88991 -6.12132,-6.97441 -16.11931,-9.5719 -24.18805,-6.28398 -6.25702,2.54971 -7.35877,6.13205 -5.91456,19.23073 0.51988,4.71636 0.38785,7.39756 -0.44012,8.90595 -1.24488,2.2687 -6.45132,4.85904 -9.766109,4.85904 -5.319585,0 -13.276731,-11.94146 -17.635413,-26.46637 -2.658733,-8.86021 -5.236881,-11.888 -10.12269,-11.888 -5.543218,0 -8.207637,2.24227 -10.063822,8.46896 -2.549897,8.55487 -1.53122,16.49441 4.263144,33.22476 5.649949,16.31324 6.36494,17.99429 15.421923,36.2553 5.092835,10.26866 6.729406,14.6025 7.077649,18.74222 0.59507,7.07931 -1.107804,11.92705 -5.004268,14.24416 -5.899893,3.5087 -9.48104,1.95887 -14.16108,-6.12848 -4.547011,-7.85785 -5.910541,-13.99724 -6.95755,-31.32815 -1.487948,-24.62955 -6.592702,-46.20655 -15.260177,-64.50194 -4.226556,-8.92145 -5.807294,-10.6941 -9.536054,-10.6941 -7.77762,0 -13.726485,7.81108 -13.805881,18.1277 -0.04579,5.58577 0.360338,6.89299 4.061968,13.16525 2.260343,3.82998 4.78017,8.88972 5.599693,11.24387 1.505552,4.32475 1.85389,15.08698 0.630838,19.47893 -1.024923,3.67962 -6.232459,5.72138 -14.597262,5.72303 -8.9164216,10e-4 -12.1454726,-1.50629 -14.2599386,-6.65973 -2.55155,-6.21953 -1.992892,-12.15848 2.324527,-24.70858 4.5820416,-13.31956 5.2261646,-22.48675 2.057991,-29.28978 -1.947965,-4.18273 -6.193026,-8.03482 -8.85498499,-8.03482 -5.73824401,0 -14.55545241,18.86159 -21.07828341,45.09002 -3.477354,13.98248 -4.661711,20.66065 -8.755224,49.36481 -2.728972,19.13592 -4.284958,24.52593 -8.851774,30.66313 -6.410523,8.61502 -21.244886,12.61913 -25.804916,6.96542 l 0,0 z"
     id="path2529"
     stroke-miterlimit="4"
     style="fill:#bd4734;fill-opacity:1;fill-rule:evenodd;stroke:none;stroke-width:0.99984902;stroke-miterlimit:4;stroke-dashoffset:0" />
  <path
     id="path4202"
     d="m 258.01433,109.03235 c -3.16949,-0.3388 -6.93507,1.34178 -11.39495,5.01071 -8.6729,7.33216 -13.74214,15.64779 -12.46086,20.66915 0.89696,3.51498 7.23617,3.80652 14.43875,0.59337 13.65275,-6.08147 20.37931,-16.88511 14.49367,-23.48218 -1.48263,-1.65594 -3.17489,-2.58776 -5.07661,-2.79105 z m -40.53616,11.03234 c -3.62487,0.29785 -7.04421,3.20599 -8.95555,7.73583 -0.0827,0.19258 -0.0821,0.27522 -0.15359,0.45053 -3.52557,-1.51164 -7.9886,-2.69428 -13.6146,-3.41739 -3.25681,-0.43422 -15.33684,-0.7607 -18.70224,-0.51647 -16.98977,1.24846 -30.91943,4.93862 -40.68997,10.74664 -2.14409,1.27559 -3.54655,2.3928 -5.58212,4.42832 -2.95829,2.93115 -4.09756,4.72259 -4.91176,7.68088 l -0.49453,1.7032 -5.15358,-0.18679 c -3.45333,-0.11691 -7.14874,-0.0135 -10.80157,0.19776 0.90579,-6.33962 -4.30084,-16.1604 -12.449894,-21.19659 -4.51722,-2.66234 -7.35275,-2.91671 -10.94442,-0.76919 -8.44043,5.04667 -9.71389,13.1097 -3.23059,20.69113 1.30142,1.62272 3.99084,3.12869 7.08753,4.32942 -11.00771,3.30842 -17.68994,9.04715 -18.73521,16.33972 -0.78708,5.56377 2.11782,11.75885 7.73583,16.37272 5.37378,4.45099 11.09694,6.5935 22.712994,8.43908 13.51586,2.1712 15.85275,2.68019 17.37263,3.95579 1.16701,0.97707 1.11013,1.98279 -0.21998,3.28556 -2.6326,2.65971 -5.93391,4.0467 -13.61459,5.64799 -11.154674,2.3612 -13.055094,2.90079 -16.284784,4.69207 -0.97708,0.51591 -2.44936,1.66396 -3.26356,2.50534 -1.51983,1.54699 -3.30632,4.58518 -3.65913,6.18646 -0.51591,2.44261 0.97685,4.74867 4.04372,6.24138 1.62841,0.78708 3.24995,1.29675 12.50481,4.01075 6.486504,1.89987 10.204704,4.28706 11.724584,7.57104 0.62421,1.38412 0.76334,1.99072 0.73622,3.94482 0,2.71401 -0.50972,4.50264 -2.68115,9.25221 -1.60129,3.52827 -2.84943,7.14014 -3.58222,10.55982 -0.75991,3.58256 -0.68238,10.98864 0.13165,14.16404 2.0898,7.92497 6.69844,13.92476 13.99919,18.18576 7.27359,4.26106 18.16552,6.38085 29.13019,5.64805 18.34684,-1.19418 29.08742,-5.57395 33.2399,-13.47175 1.38412,-2.6326 1.90098,-5.01107 1.90098,-8.64786 0,-3.66397 -0.46246,-6.38113 -2.36249,-13.79041 -2.08979,-8.19637 -2.33115,-11.09958 -1.10985,-13.46078 2.06268,-3.98961 10.01381,-4.12547 24.72386,-0.46134 5.34666,1.32989 9.20175,1.89767 11.37301,1.62627 2.65971,-0.29875 4.67305,-1.14383 6.27434,-2.58225 2.60548,-2.41549 3.742,-5.77598 4.23051,-12.66964 0.46134,-6.89361 1.00138,-11.21447 1.57136,-13.08716 1.0856,-3.47392 3.00842,-5.55972 5.96671,-6.42821 2.1712,-0.62421 6.95132,-0.35107 10.20819,0.57143 8.06067,2.30691 11.0458,2.79807 15.3068,2.47237 10.61186,-0.75991 20.11663,-7.24798 25.2733,-17.26275 2.79547,-5.45519 3.9312,-10.39335 3.71409,-16.11994 -0.32575,-8.38636 -3.93446,-14.87241 -10.74666,-19.35058 -5.29237,-3.47392 -11.26606,-5.13486 -19.62524,-5.40626 -10.39476,-0.35281 -17.55785,1.57576 -30.50379,8.25225 -11.39889,5.86235 -16.18064,7.33182 -22.96571,7.08754 -4.01672,-0.1626 -7.59371,-0.97837 -10.36201,-2.3625 -3.06687,-1.54699 -3.85722,-3.42716 -2.52734,-6.03264 1.38413,-2.74119 3.99343,-5.21198 11.59271,-10.91146 5.64518,-4.23388 10.45247,-8.84522 12.46086,-11.96635 2.48441,-3.84325 3.02001,-7.27428 1.72518,-10.19722 0.045,-0.0135 0.0563,-0.008 0.099,-0.0219 9.00551,-2.68345 12.01557,-6.6036 8.66981,-11.2521 -1.01894,-1.36306 -5.81667,-3.57032 -7.58201,-3.40639 z M 57.794986,194.75274 c -2.19838,0.0281 -4.20019,0.0714 -4.41736,0.099 -0.21716,0.0563 -1.32668,0.24361 -2.4394,0.40677 -7.11076,1.13989 -12.83876,3.96473 -16.80125,8.3072 -4.55957,4.96668 -5.45834,11.53487 -2.06583,14.90026 3.31116,3.33828 9.6084,2.50275 16.74634,-2.21964 l 1.81305,-1.19773 2.17571,0.57138 c 2.44261,0.62421 6.67126,0.73026 9.03246,0.24192 2.52407,-0.51591 5.76355,-2.24733 7.58201,-4.06572 2.33402,-2.33408 3.55504,-4.96685 3.58216,-7.68086 0.0281,-3.52827 -1.70936,-6.03186 -5.37327,-7.76885 -2.52408,-1.19418 -5.22076,-1.62047 -9.83462,-1.59329 z m -13.1531,35.4595 c -1.83296,-0.0281 -3.57203,0.40395 -5.87877,1.43948 -3.77396,1.68129 -5.08545,4.45707 -3.65913,7.75782 0.93196,2.0606 1.73485,2.89888 3.2635,3.46131 1.39532,0.50522 4.45139,-0.0337 6.24143,-1.14276 0.8474,-0.53672 2.54337,-2.16896 3.75804,-3.67015 1.78768,-2.28233 2.16485,-2.98738 2.12074,-4.31839 -0.0563,-2.07866 -0.94675,-2.87497 -3.96682,-3.3515 -0.65678,-0.10858 -1.268,-0.16597 -1.87899,-0.17553 z m 227.228794,9.59287 c -1.37647,-0.13278 -2.89629,-0.11027 -4.58214,0.0658 -4.44025,0.44502 -4.87992,0.61723 -5.82386,2.06583 -1.28831,2.01221 -0.6052,4.44194 2.34055,8.30721 3.34992,4.34438 7.76401,7.8116 10.62575,8.36217 2.13818,0.34094 2.64571,0.21379 4.15361,-0.89005 3.43729,-2.60565 4.52914,-8.38681 2.35152,-12.16414 -2.1051,-3.52315 -4.93602,-5.34824 -9.06543,-5.74696 z M 94.946676,284.4399 c -0.71603,-0.005 -1.69552,0.1384 -3.25253,0.4394 -2.28351,0.40676 -4.74558,1.1858 -6.28537,1.98892 -4.70417,2.47276 -7.99907,6.13639 -8.2083,9.01046 -0.14234,1.90048 1.01764,4.33915 2.53831,5.31842 2.98647,1.92011 8.20351,-0.40508 13.99919,-6.19749 2.56239,-2.62011 4.55969,-6.48403 4.25251,-8.2083 -0.10802,-0.60581 -0.72571,-1.40843 -1.38452,-1.86802 -0.49003,-0.32125 -0.94321,-0.47878 -1.65929,-0.48328 z"
     style="fill:#d16a4e;fill-opacity:1;stroke:none" />
  <g
     style="fill:#bd4734;fill-opacity:1;stroke:none"
     transform="matrix(1.2484275,0,0,1.2621794,144.4177,-323.60642)"
     id="g4274">
    <path
       style="fill:#bd4734;fill-opacity:1;fill-rule:evenodd;stroke:none;stroke-width:47.91140747;stroke-linecap:round;stroke-linejoin:round;stroke-miterlimit:4"
       stroke-miterlimit="4"
       id="path593"
       d="m 247.46564,298.25797 c -16.86209,8.00826 26.43216,-10.59342 25.57934,-21.13678 -0.85281,-10.5434 -8.36273,-12.04929 -22.47442,-6.02463 -11.54146,5.88803 -45.99457,4.21731 -52.26654,-21.68955 -6.27196,-25.90636 16.20259,-49.40314 30.31457,-31.32872 14.11171,18.07442 40.24524,37.95616 42.85849,25.30409 4.56412,-19.40908 -14.73038,-12.79313 -13.04465,-20.77548 2.0904,-10.24197 15.13547,-7.54094 14.61255,-0.31126 -0.52252,7.22967 10.89267,3.11494 15.68003,-1.80731 4.45025,-4.5755 22.78302,-17.50461 -4.18113,-25.90635 -26.96417,-8.40173 -45.4718,-25.90634 -47.56257,-39.76342 -2.09078,-13.85709 26.1331,-16.86992 37.10905,-3.01284 10.97599,13.85707 23.51984,46.99309 38.15448,46.39084 4.36872,-0.65262 10.45307,0.60278 13.58924,-9.03697 3.13574,-9.63971 -16.20252,-13.25479 -13.06681,-22.29178 3.13623,-9.03746 25.08817,-18.67717 22.99741,-6.02513 -2.09082,12.65204 -2.09082,26.50966 3.13617,28.31691 5.22653,1.80731 14.11175,3.61462 13.06677,-7.83241 -1.04541,-11.44704 -10.97598,-34.34107 -14.6351,-56.0306 -1.56784,-18.07391 22.47488,-34.943311 31.88299,-20.48398 9.40769,14.45935 -2.09079,38.55842 -4.18154,48.19814 -2.09086,9.63975 3.65863,27.11191 12.54382,30.12422 8.88513,3.01233 26.42126,-3.12199 25.61105,-11.44702 -0.52295,-18.67667 16.72498,-17.47215 21.95154,-2.41002 3.65857,9.03691 1.04532,11.44647 -17.77087,20.48395 -8.88471,1.20503 -3.65824,30.72646 5.74948,27.71416 9.40805,-3.0123 36.58654,-40.3662 54.3569,-40.3662 17.77078,0 43.77466,22.42352 11.49896,43.98129 -23.6496,15.79615 -32.40497,-14.45982 -46.51715,-6.62739 -14.11175,7.83191 -21.42905,15.06208 -17.24795,27.11087 4.18118,9.63971 9.93063,15.66487 13.5892,7.83241 3.65875,-7.83194 19.33871,-3.61458 20.38412,9.63974 -1.04541,12.04981 -14.63461,13.25485 -20.38412,8.43472 -5.74893,-4.81961 -15.15711,7.8324 -11.49841,14.45932 3.65866,6.62741 13.5888,25.90638 31.88211,19.27945 18.29382,-6.62741 49.65332,27.71417 41.29068,42.77631 -8.36231,15.06155 -35.01838,18.07388 -42.33567,6.62692 -7.31729,-11.44705 -17.24786,-31.93155 -24.56518,-32.53378 -7.31735,-0.60227 -31.88257,2.41003 -29.79172,12.65201 2.09033,10.242 18.29327,9.03692 20.38361,19.88177 2.09075,10.8447 -0.52253,24.09909 -13.06632,21.0867 -12.54431,-3.01227 -15.68005,-7.22964 -15.68005,-19.27945 0,-12.04925 -27.4249,-3.13421 -30.93167,1.42252 -4.14966,5.39203 -0.9213,5.96329 4.27569,21.4715 5.19696,15.50833 13.32776,21.38815 3.65866,37.35391 -9.66916,15.96579 -25.61062,13.2543 -28.74682,-6.02512 -1.04496,-19.88174 11.4989,-43.98032 9.40857,-50.6077 -2.09079,-6.62744 -1.43461,-3.24798 -19.33915,-9.64032 -18.32736,-6.54318 -26.65597,1.80838 -27.17846,22.89466 -0.52249,14.45981 -2.61307,61.45266 -30.83713,39.76336 -28.22412,-21.6892 15.06293,-47.59536 24.40234,-67.87231 2.61332,-15.66437 -2.3966,-25.11566 -15.51724,-26.71612 -13.12063,-1.60047 -12.02133,3.61459 -24.56515,16.2666 -12.0214,12.04931 -31.35979,40.36572 -49.13027,10.84479 -9.40796,-18.07444 -4.18136,-31.32926 17.77062,-32.53379 l 28.77765,-10.79474 z" />
    <title
       id="title4277">Layer 1</title>
  </g>
  <path
     style="fill:#d16a4e;fill-opacity:1;fill-rule:evenodd;stroke:none;stroke-width:0.99984902;stroke-miterlimit:4;stroke-dashoffset:0"
     stroke-miterlimit="4"
     id="path4159"
     d="m 4.5246917,549.25148 c -2.90048,-3.59611 -4.27500997,-11.42551 -3.09703,-17.64015 1.1723,-6.18463 1.57134,-6.96922 13.7234603,-26.98697 17.96216,-29.58816 24.35988,-45.48118 36.84139,-91.52047 0.54732,-2.01837 -2.10653,-4.54068 -4.77721,-4.54068 -3.47163,0 -6.12882,2.52698 -7.79174,7.41007 -1.87603,5.50814 -3.10539,6.63427 -7.93213,7.26562 -4.6052,0.60214 -10.09106,-1.54232 -12.28047,-4.80121 -1.54842,-2.30463 -1.54347,-2.8968 0.0909,-10.74471 1.63218,-7.84109 1.63821,-8.53706 0.10878,-12.44286 -4.54517,-11.60689 -15.7656603,-12.98806 -22.2025603,-2.73288 -4.32938,6.89787 -13.7615697,18.74137 -19.2237107,24.13827 -9.66984,9.55451 -15.99061,9.85945 -22.507519,1.08566 -2.15542,-2.90183 -2.85778,-4.87374 -2.85778,-8.02308 0,-3.62881 0.47093,-4.59783 3.59592,-7.39855 4.60385,-4.12635 11.098809,-7.64731 21.335639,-11.56596 13.9380107,-5.3356 20.0764407,-10.07562 23.5509307,-18.18548 2.58404,-6.03141 1.38226,-13.43698 -2.51006,-15.46858 -5.71846,-2.98473 -12.4496097,2.02279 -23.9108807,17.78786 -10.63308,14.62594 -16.385959,18.2145 -28.262449,17.6296 -8.2101,-0.40442 -12.1045,-2.5488 -16.59051,-9.13545 -4.09094,-6.0067 -5.27296,-10.41833 -4.86233,-18.14851 0.30288,-5.69478 0.81605,-7.35112 3.41626,-11.02115 3.6388,-5.13581 10.24259,-9.46148 17.5837,-11.5179 2.99646,-0.83941 12.23779,-1.86775 21.095869,-2.34745 19.593191,-1.06097 25.6244007,-2.22203 47.157771,-9.07832 10.8867,-3.4662 14.1536,-5.84725 14.1536,-10.31533 0,-2.70856 -3.95873,-6.52803 -7.5072,-7.24293 -2.60651,-0.52503 -22.3373703,-2.40352 -25.2616703,-2.40483 -2.66313,-9.8e-4 -7.3877597,-4.58095 -8.3945297,-8.13669 -1.44965,-5.12061 0.67764,-9.25306 5.4019397,-10.49377 5.02966,-1.32081 8.75139,-0.17418 18.0319803,5.55461 4.21352,2.60092 10.59795,5.60294 14.1874,6.67107 6.26749,1.865 6.69547,1.87902 10.78928,0.35445 8.23625,-3.06762 9.22864,-8.47902 3.54056,-19.30735 -4.69308,-8.93415 -13.32705,-17.93149 -20.68191,-21.55238 C 7.3754317,258.92897 0.14245173,250.24766 -4.3817783,236.9574 c -1.80115,-5.29092 -2.22319,-8.5191 -2.20073,-16.83331 0.027,-9.11869 0.31546,-10.89498 2.56472,-15.6403 5.60728,-11.83159 16.7287303,-12.16033 23.9432203,-0.70784 2.31254,3.67105 3.01229,6.7997 5.64288,25.23229 3.44538,24.14178 4.76346,28.11735 12.39333,37.38074 7.89942,9.59067 14.85076,12.66351 19.15371,8.46701 2.82041,-2.75061 3.22107,-5.76574 1.50987,-11.36085 -0.8457,-2.76579 -1.78595,-7.97446 -2.08901,-11.57495 -0.47633,-5.6626 -0.14918,-7.75853 2.42344,-15.5272 4.82259,-14.56052 3.87695,-20.85564 -5.28689,-35.19473 -5.32994,-8.34015 -5.84671,-11.9728 -2.23847,-15.7393 4.49114,-4.68816 10.93982,-6.54099 13.26322,-3.81083 0.73786,0.86692 1.00658,7.02013 0.84841,19.40508 -0.25614,20.03708 -0.60126,18.52175 7.424792,32.63093 2.7601,4.85228 5.22423,15.18243 5.24841,22.00255 0.01,2.69074 0.64709,5.57909 1.49002,6.75327 2.66726,3.71355 11.76944,4.76905 15.61089,1.81025 0.69473,-0.53475 3.1533,-3.82316 5.464386,-7.30754 2.40411,-3.6243 5.85966,-7.40481 8.07547,-8.83491 3.31966,-2.14248 4.61994,-2.43929 9.09869,-2.07708 4.35355,0.35204 5.87627,0.99584 9.1241,3.85742 3.06424,2.69993 4.68617,3.4349 7.58036,3.4349 7.66791,0 16.44943,-7.10451 16.44943,-13.30788 0,-1.50943 -1.2993,-5.63175 -2.88754,-9.16081 -4.26422,-9.47536 -4.50544,-13.09285 -1.46431,-21.96632 5.24447,-15.30176 9.94214,-19.55316 21.61219,-19.5589 9.70505,-0.004 16.36808,4.51325 18.05905,12.24561 1.13132,5.1734 0.30916,9.01484 -4.37126,20.41968 -10.17744,24.80044 -10.80708,32.48768 -3.26366,39.84453 1.94001,1.89206 5.33641,3.96873 7.54756,4.61481 6.49506,1.89783 11.12137,-0.39221 19.94756,-9.8734 8.82033,-9.47504 13.36136,-11.74922 18.92982,-9.48012 2.93859,1.19742 3.66368,2.1249 4.94133,6.32078 0.82323,2.70459 1.49738,5.9495 1.49738,7.21096 0,9.94441 -9.37271,19.80323 -21.57542,22.69432 -2.63699,0.62479 -6.85977,2.14023 -9.38395,3.36768 -14.47715,7.03988 -8.33962,21.71884 9.1083,21.78433 7.73367,0.0288 14.4261,-2.74462 22.80992,-9.45348 15.26012,-12.21119 34.06,-25.27716 41.55597,-28.88162 12.03664,-5.78784 28.46636,-8.00625 40.02443,-5.40436 11.92511,2.68452 16.54199,14.41018 10.39807,26.40787 -3.2163,6.28065 -4.15915,6.55907 -15.57989,4.59956 -18.31789,-3.14287 -34.30104,-1.73424 -50.25022,4.42868 -13.38932,5.17384 -27.81372,12.79956 -30.28926,16.01312 -5.10022,6.62067 -3.86815,13.60584 3.21511,18.22638 8.54911,5.5765 10.66796,7.97261 11.21169,12.67728 0.72258,6.24923 -0.9371,9.27396 -7.58152,13.81956 -8.76642,5.99698 -11.29492,11.49294 -8.06946,17.5389 2.00229,3.75305 5.23413,6.35388 11.12128,8.9498 7.70323,3.39666 13.00951,3.88027 21.75635,1.98242 10.4679,-2.2714 17.7346,-1.56308 24.90613,2.42729 11.72577,6.52436 17.93817,14.44066 21.95451,27.97585 1.3933,4.69551 1.7963,9.05797 1.7706,19.17132 -0.0359,14.782 -1.22687,19.36741 -6.36294,24.53531 -11.63679,11.70931 -29.46657,-4.36928 -35.70244,-32.19611 -2.69043,-12.00519 -5.73561,-18.51803 -10.97209,-23.46619 -6.85427,-6.47698 -23.8395,-13.13479 -30.43189,-11.9287 -4.20831,0.77022 -10.50457,6.93768 -11.82885,11.58755 -2.23147,7.83515 -0.72078,12.69352 7.18285,23.09985 15.03651,19.79773 19.37623,27.92183 20.35513,38.10529 0.62821,6.53118 -0.53115,9.05042 -5.36364,11.65764 -4.90087,2.64416 -8.9574,3.30203 -13.31032,2.15903 -5.14848,-1.35214 -8.06909,-4.64465 -8.5109,-9.59505 -2.31478,-25.93356 -3.95712,-32.54869 -9.70651,-39.09947 -6.00002,-6.8362 -15.7999,-9.38222 -23.70875,-6.15945 -6.13303,2.49918 -7.21295,6.01054 -5.79736,18.84966 0.50958,4.6229 0.38017,7.25097 -0.43139,8.72947 -1.22022,2.22374 -6.32349,4.76275 -9.57259,4.76275 -5.21417,0 -13.01364,-11.70483 -17.28595,-25.94192 -2.60605,-8.68464 -5.13311,-11.65243 -9.9221,-11.65243 -5.43338,0 -8.045,2.19784 -9.8644,8.30114 -2.49937,8.38535 -1.50088,16.16756 4.17866,32.56639 5.53799,15.98998 6.23881,17.63772 15.11633,35.53688 4.99192,10.06517 6.59606,14.31314 6.93739,18.37082 0.58328,6.93903 -1.08584,11.69071 -4.90509,13.96191 -5.78299,3.43917 -9.29317,1.92005 -13.88047,-6.00704 -4.45691,-7.70214 -5.79342,-13.71988 -6.81968,-30.70736 -1.45847,-24.1415 -6.46207,-45.29094 -14.95779,-63.22379 -4.14281,-8.74467 -5.69221,-10.48219 -9.34709,-10.48219 -7.623496,0 -13.454486,7.6563 -13.532306,17.76849 -0.0449,5.47508 0.3532,6.7564 3.98148,12.90437 2.21556,3.75408 4.68544,8.71356 5.48874,11.02106 1.475706,4.23905 1.817146,14.78802 0.618316,19.09294 -1.004606,3.60671 -6.108946,5.60801 -14.307996,5.60963 -8.73973,9.8e-4 -11.9048,-1.47644 -13.97737,-6.52777 -2.500992,-6.09628 -1.953402,-11.91755 2.27847,-24.21896 4.49124,-13.05562 5.1226,-22.04115 2.01721,-28.70938 -1.90936,-4.09984 -6.070302,-7.8756 -8.679512,-7.8756 -5.62455,0 -14.26704,18.48783 -20.66061,44.19653 -3.40845,13.7054 -4.56934,20.25124 -8.58173,48.38661 -2.67489,18.75672 -4.20005,24.03993 -8.67638,30.05551 -6.28349,8.44431 -20.8238903,12.36908 -25.2935603,6.8274 l 0,0 z" />
  <path
     style="fill:#d16a4e;fill-opacity:1;stroke:none"
     d="m 227.30282,69.555447 c 3.80588,-2.75715 9.85481,-3.36824 18.24967,-1.94495 16.46976,3.02029 29.0509,9.94069 31.09346,17.30321 1.42973,5.15385 -6.46538,10.1745 -18.03443,11.3451 -21.92281,2.23062 -38.44808,-6.65724 -35.75619,-19.41113 0.68244,-3.20524 2.16392,-5.63789 4.44749,-7.29223 z m 59.94083,-15.60783 c 4.85516,-2.27664 11.36121,-1.06364 17.12727,3.32942 0.24698,0.18571 0.3068,0.29186 0.52678,0.46369 3.40148,-4.51848 8.24333,-9.30342 14.90972,-14.35322 3.84762,-2.94324 19.06055,-12.21759 23.54451,-14.3726 22.64796,-10.85943 43.17175,-16.35196 59.92811,-16.08605 3.67786,0.0597 6.29094,0.46054 10.38715,1.57188 5.93315,1.58047 8.7039,3.03673 11.91432,6.22391 l 1.88132,1.81609 6.45531,-4.01739 c 4.33164,-2.68143 9.13448,-5.25852 13.96193,-7.66644 -5.80669,-7.4452904 -6.34689,-23.82499 0.38466,-36.241735 3.8263,-6.71745 7.2669,-9.12176 13.43572,-9.00805 14.49674,0.26722 22.03727,9.64746 19.30259,24.098685 -0.475,3.0298896 -2.81106,6.9280696 -5.89188,10.73439961 16.50627,-3.83855001 29.26138,-1.39701 35.94514,7.16498999 5.08601,6.5398904 5.91224,16.5941804 2.10865,26.6150304 -3.61058,9.63343 -9.36059,16.5701 -22.86625,27.44744 -15.69709,12.68676 -18.31317,15.05118 -19.32211,17.79721 -0.77643,2.10544 0.0337,3.35022 2.69027,4.04148 5.31754,1.47204 10.55735,0.8258 21.55619,-2.75715 15.99977,-5.15794 18.82633,-5.86105 24.27093,-5.93763 1.62809,-0.0564 4.35309,0.33267 6.01146,0.81199 3.07832,0.86455 7.59104,3.44108 9.21635,5.2307 2.45078,2.74624 2.23204,6.7905 -0.59657,10.94846 -1.50592,2.20071 -3.20646,4.04152 -13.05508,14.298573 -6.90434,7.18595 -9.91029,12.96562 -9.44674,18.28069 0.21633,2.22817 0.48311,3.10611 1.95048,5.58584 1.98983,3.47164 3.95322,5.38588 10.21308,9.86931 4.63513,3.3392 8.87982,7.04426 12.32439,10.88132 3.59867,4.02552 8.92943,13.55592 10.21627,18.21459 3.13717,11.6695 1.64086,22.72311 -4.57392,33.52631 -6.18001,10.78336 -18.55836,21.48057 -33.12119,28.58218 -24.34409,11.92384 -41.29414,14.1961 -52.39626,7.13803 -3.70066,-2.35272 -6.10563,-5.01621 -8.77203,-9.66826 -2.68631,-4.68679 -4.08689,-8.50155 -7.08872,-19.37225 -3.33617,-12.01665 -5.15599,-15.90727 -8.44939,-18.03221 -5.56356,-3.59105 -15.83394,2.06471 -31.96401,17.5367 -5.8642,5.62117 -10.37919,9.1739 -13.35557,10.41863 -3.62123,1.56788 -6.8162,1.96301 -9.91912,1.29706 -5.10379,-1.17954 -9.02139,-4.64487 -14.70051,-13.10481 -5.64433,-8.47979 -9.50306,-13.61092 -11.60516,-15.5885 -3.93564,-3.64776 -7.92448,-4.90608 -12.34536,-3.84808 -3.23496,0.7934 -9.14924,4.64743 -12.63895,8.21531 -8.61953,8.86075 -12.07788,11.67764 -17.76718,14.38505 -14.13141,6.80828 -31.0464,5.47762 -44.98515,-3.55215 -7.57544,-4.9285 -12.64874,-10.41252 -16.5696,-17.89692 -5.73195,-10.96632 -5.87121,-21.90883 -0.44059,-32.63163 4.22281,-8.32392 10.64637,-14.82826 21.14011,-21.30414 13.03789,-8.07245 23.6146,-10.85726 45.06954,-11.80856 18.87912,-0.85846 26.07311,-2.48461 34.5732,-7.77171 5.01882,-3.15293 8.99626,-6.81898 11.52255,-10.61914 2.78881,-4.2274 2.42132,-7.211903 -1.19008,-9.569693 -3.78028,-2.49162 -8.92951,-3.73909 -22.8289,-5.45806 -10.32525,-1.27693 -19.85545,-3.651 -24.71282,-6.17093 -5.99573,-3.09463 -9.19638,-7.09078 -9.6831,-11.77902 -0.0674,0.0157 -0.0779,0.031 -0.14269,0.0446 -13.48692,3.17002 -20.21141,0.36241 -19.3398,-8.03678 0.30403,-2.49063 4.8228,-8.83162 7.20114,-9.91623 z m 259.0195,-21.53718 c 2.83266,-1.57586 5.42506,-2.98812 5.7231,-3.11204 0.31906,-0.0872 1.87564,-0.66107 3.41861,-1.26817 9.93154,-3.75531 19.32965,-4.34149 27.58209,-1.69196 9.47385,3.01023 15.43913,10.75304 13.56697,17.54521 -1.78796,6.69784 -10.45574,10.24602 -23.04862,9.43866 l -3.19732,-0.20281 -2.36417,2.32606 c -2.66683,2.58931 -7.9982,5.8253 -11.37659,6.93179 -3.60695,1.19065 -9.02018,1.35097 -12.67947,0.35821 -4.69687,-1.27443 -8.18903,-3.74694 -10.21355,-7.19871 -2.62275,-4.49264 -2.23585,-8.96897 1.17737,-13.87714 2.35317,-3.37813 5.49011,-5.90055 11.4119,-9.24853 z m 42.82281,35.71491 c 2.32407,-1.37979 4.86537,-2.1022 8.57527,-2.46883 6.06018,-0.61632 9.77291,1.9728 10.36844,7.24072 0.31864,3.31914 -0.0938,4.98008 -1.63682,6.82028 -1.41442,1.66927 -5.71875,3.22051 -8.82162,3.11427 -1.47746,-0.0653 -4.8436,-0.90972 -7.49799,-1.93942 -3.96006,-1.60879 -4.95945,-2.23413 -5.87888,-3.96905 -1.452,-2.70021 -0.8968,-4.37168 2.61697,-7.19546 0.76052,-0.62042 1.50029,-1.14197 2.27484,-1.60215 z M 305.45718,246.99383 c 1.66338,-1.17903 3.62397,-2.26453 5.90952,-3.27534 6.00607,-2.68621 6.69474,-2.78828 8.96426,-1.62737 3.12325,1.6294 4.03085,5.23824 3.09667,12.34228 -1.09991,8.01323 -4.20417,15.68464 -7.46113,18.48705 -2.4851,2.00378 -3.22754,2.21324 -5.96569,1.9068 -6.30723,-0.81292 -11.94246,-7.40744 -11.92637,-13.83581 0.10969,-6.05008 2.39278,-10.46021 7.38263,-13.9978 z m 259.03908,-72.62059 c 0.91243,-0.53105 2.27031,-1.06607 4.48266,-1.82259 3.2192,-1.1539 6.93975,-1.96251 9.49822,-2.06411 7.83034,-0.28591 14.73112,1.98473 17.10594,5.50773 1.57545,2.32666 1.87961,6.29657 0.6524,8.66412 -2.4124,4.64573 -10.7906,5.49642 -22.45102,2.33623 -5.1987,-1.47287 -10.58648,-4.95108 -11.45774,-7.38191 -0.30599,-0.85412 -0.10432,-2.33368 0.40145,-3.40459 0.3913,-0.77021 0.85549,-1.30397 1.76817,-1.83473 z"
     id="path4161" />
  <g
     id="g4165"
     transform="matrix(1.2484275,0,0,1.2621794,97.638035,107.58002)"
     style="fill:#d16a4e;fill-opacity:1;stroke:none">
    <path
       d="m 247.46564,298.25797 c -16.86209,8.00826 26.43216,-10.59342 25.57934,-21.13678 -0.85281,-10.5434 -8.36273,-12.04929 -22.47442,-6.02463 -11.54146,5.88803 -45.99457,4.21731 -52.26654,-21.68955 -6.27196,-25.90636 16.20259,-49.40314 30.31457,-31.32872 14.11171,18.07442 40.24524,37.95616 42.85849,25.30409 4.56412,-19.40908 -14.73038,-12.79313 -13.04465,-20.77548 2.0904,-10.24197 15.13547,-7.54094 14.61255,-0.31126 -0.52252,7.22967 10.89267,3.11494 15.68003,-1.80731 4.45025,-4.5755 22.78302,-17.50461 -4.18113,-25.90635 -26.96417,-8.40173 -45.4718,-25.90634 -47.56257,-39.76342 -2.09078,-13.85709 26.1331,-16.86992 37.10905,-3.01284 10.97599,13.85707 23.51984,46.99309 38.15448,46.39084 4.36872,-0.65262 10.45307,0.60278 13.58924,-9.03697 3.13574,-9.63971 -16.20252,-13.25479 -13.06681,-22.29178 3.13623,-9.03746 25.08817,-18.67717 22.99741,-6.02513 -2.09082,12.65204 -2.09082,26.50966 3.13617,28.31691 5.22653,1.80731 14.11175,3.61462 13.06677,-7.83241 -1.04541,-11.44704 -10.97598,-34.34107 -14.6351,-56.0306 -1.56784,-18.07391 22.47488,-34.943311 31.88299,-20.48398 9.40769,14.45935 -2.09079,38.55842 -4.18154,48.19814 -2.09086,9.63975 3.65863,27.11191 12.54382,30.12422 8.88513,3.01233 26.42126,-3.12199 25.61105,-11.44702 -0.52295,-18.67667 16.72498,-17.47215 21.95154,-2.41002 3.65857,9.03691 1.04532,11.44647 -17.77087,20.48395 -8.88471,1.20503 -3.65824,30.72646 5.74948,27.71416 9.40805,-3.0123 36.58654,-40.3662 54.3569,-40.3662 17.77078,0 43.77466,22.42352 11.49896,43.98129 -23.6496,15.79615 -32.40497,-14.45982 -46.51715,-6.62739 -14.11175,7.83191 -21.42905,15.06208 -17.24795,27.11087 4.18118,9.63971 9.93063,15.66487 13.5892,7.83241 3.65875,-7.83194 19.33871,-3.61458 20.38412,9.63974 -1.04541,12.04981 -14.63461,13.25485 -20.38412,8.43472 -5.74893,-4.81961 -15.15711,7.8324 -11.49841,14.45932 3.65866,6.62741 13.5888,25.90638 31.88211,19.27945 18.29382,-6.62741 49.65332,27.71417 41.29068,42.77631 -8.36231,15.06155 -35.01838,18.07388 -42.33567,6.62692 -7.31729,-11.44705 -17.24786,-31.93155 -24.56518,-32.53378 -7.31735,-0.60227 -31.88257,2.41003 -29.79172,12.65201 2.09033,10.242 18.29327,9.03692 20.38361,19.88177 2.09075,10.8447 -0.52253,24.09909 -13.06632,21.0867 -12.54431,-3.01227 -15.68005,-7.22964 -15.68005,-19.27945 0,-12.04925 -27.4249,-3.13421 -30.93167,1.42252 -4.14966,5.39203 -0.9213,5.96329 4.27569,21.4715 5.19696,15.50833 13.32776,21.38815 3.65866,37.35391 -9.66916,15.96579 -25.61062,13.2543 -28.74682,-6.02512 -1.04496,-19.88174 11.4989,-43.98032 9.40857,-50.6077 -2.09079,-6.62744 -1.43461,-3.24798 -19.33915,-9.64032 -18.32736,-6.54318 -26.65597,1.80838 -27.17846,22.89466 -0.52249,14.45981 -2.61307,61.45266 -30.83713,39.76336 -28.22412,-21.6892 15.06293,-47.59536 24.40234,-67.87231 2.61332,-15.66437 -2.3966,-25.11566 -15.51724,-26.71612 -13.12063,-1.60047 -12.02133,3.61459 -24.56515,16.2666 -12.0214,12.04931 -31.35979,40.36572 -49.13027,10.84479 -9.40796,-18.07444 -4.18136,-31.32926 17.77062,-32.53379 l 28.77765,-10.79474 z"
       id="path4167"
       stroke-miterlimit="4"
       style="fill:#d16a4e;fill-opacity:1;fill-rule:evenodd;stroke:none;stroke-width:47.91140747;stroke-linecap:round;stroke-linejoin:round;stroke-miterlimit:4" />
    <title
       id="title4169">Layer 1</title>
  </g>
</svg>
