<?xml version="1.0" encoding="UTF-8" standalone="no"?>

<svg xmlns:svg="http://www.w3.org/2000/svg" xmlns="http://www.w3.org/2000/svg" version="1.0" width="100%" height="100%" viewBox="0 0 48 48" id="svg2985" style="display:inline">
<defs id="defs3"/>
<path d="M 13.90,20.93 C 13.87,20.94 13.84,20.93 13.81,20.93 C 12.97,21.10 12.07,21.20 11.28,21.40 C 9.01,21.96 7.23,23.93 6.65,26.15 C 6.46,26.88 6.45,27.73 6.71,28.46" id="p3881-6-0-0" style="opacity:1;fill:none;fill-opacity:1;fill-rule:nonzero;stroke:#070707;stroke-width:0.80;stroke-linecap:butt;stroke-linejoin:miter;marker:none;stroke-miterlimit:4;stroke-dasharray:none;stroke-dashoffset:0;stroke-opacity:1;visibility:visible;display:inline;overflow:visible;enable-background:accumulate"/>
<path d="M 24.98,30.79 L 24.98,39.73" id="p3111-6" style="opacity:1;fill:none;fill-opacity:1;fill-rule:nonzero;stroke:#070707;stroke-width:0.5;stroke-linecap:butt;stroke-linejoin:miter;marker:none;stroke-miterlimit:4;stroke-dasharray:none;stroke-dashoffset:0;stroke-opacity:1;visibility:visible;display:inline;overflow:visible;enable-background:accumulate"/>
<path d="M 10.41,23.39 L 24.91,30.64 L 39.41,23.39" id="p2993-7-9-4-0" style="opacity:1;fill:none;fill-opacity:1;fill-rule:nonzero;stroke:#070707;stroke-width:0.5;stroke-linecap:butt;stroke-linejoin:miter;marker:none;stroke-miterlimit:4;stroke-dasharray:none;stroke-dashoffset:0;stroke-opacity:1;visibility:visible;display:inline;overflow:visible;enable-background:accumulate"/>
<path d="M 16.71,22.09 C 16.64,22.96 16.68,23.83 17.56,24.87 C 18.85,26.39 21.38,27.27 23.21,26.87 C 24.92,26.5 25.28,25.29 25.03,23.78" id="p4109-4" style="opacity:1;fill:none;fill-opacity:1;fill-rule:nonzero;stroke:#070707;stroke-width:0.80;stroke-linecap:butt;stroke-linejoin:miter;marker:none;stroke-miterlimit:4;stroke-dasharray:none;stroke-dashoffset:0;stroke-opacity:1;visibility:visible;display:inline;overflow:visible;enable-background:accumulate"/>
<path d="M 8.97,12.67 L 21.47,18.92 L 21.47,23.26 L 8.97,17.01 L 8.97,12.67 z" id="p2993-7-9-8-8-5-59" style="opacity:1;fill:none;fill-opacity:1;fill-rule:nonzero;stroke:#070707;stroke-width:0.5;stroke-linecap:butt;stroke-linejoin:miter;marker:none;stroke-miterlimit:4;stroke-dasharray:none;stroke-dashoffset:0;stroke-opacity:1;visibility:visible;display:inline;overflow:visible;enable-background:accumulate"/>
<path d="M 22.39,18.53 L 22.39,24.77" id="p5148-2" style="opacity:1;fill:none;fill-opacity:1;fill-rule:nonzero;stroke:#070707;stroke-width:0.5;stroke-linecap:butt;stroke-linejoin:miter;marker:none;stroke-miterlimit:4;stroke-dasharray:none;stroke-dashoffset:0;stroke-opacity:1;visibility:visible;display:inline;overflow:visible;enable-background:accumulate"/>
<path d="M 29.98,14.7 L 22.35,18.51 L 7.85,11.26" id="p2993-7-9-8-8-57-9" style="opacity:1;fill:none;fill-opacity:1;fill-rule:nonzero;stroke:#070707;stroke-width:0.5;stroke-linecap:butt;stroke-linejoin:miter;marker:none;stroke-miterlimit:4;stroke-dasharray:none;stroke-dashoffset:0;stroke-opacity:1;visibility:visible;display:inline;overflow:visible;enable-background:accumulate"/>
<path d="M 15.47,7.45 L 29.97,14.7 C 29.97,17.38 29.97,19.97 29.97,21.32 L 22.35,25.14 L 7.85,17.89 C 7.85,15.64 7.85,12.93 7.85,11.26 L 15.47,7.45 z" id="p2993-7-9-8-2-6" style="fill:none;stroke:#070707;stroke-width:1;stroke-linecap:butt;stroke-linejoin:miter;marker:none;stroke-miterlimit:4;stroke-dasharray:none;stroke-dashoffset:0;stroke-opacity:1;visibility:visible;display:inline;overflow:visible;enable-background:accumulate"/>
<path d="M 43.99,31.47 C 44.31,31.47 44.61,31.56 44.87,31.72 C 45.91,32.36 45.88,34.08 44.84,35.56 C 44.28,36.36 43.69,36.98 43.02,37.35 L 36.68,40.59 C 36.41,40.79 36.12,40.93 35.84,41.06 C 34.69,41.62 33.53,41.73 32.65,41.19 C 31.08,40.21 31.1,37.61 32.68,35.37 C 33.69,33.95 35.09,33.05 36.37,32.81 L 36.37,32.78 C 36.63,32.76 43.61,31.49 43.87,31.47 C 43.89,31.47 43.91,31.47 43.93,31.47 C 43.95,31.47 43.97,31.47 43.99,31.47 L 43.99,31.47 z" id="p3881-5-4" style="opacity:1;fill:none;fill-opacity:1;fill-rule:nonzero;stroke:#070707;stroke-width:0.5;stroke-linecap:butt;stroke-linejoin:miter;marker:none;stroke-miterlimit:4;stroke-dasharray:none;stroke-dashoffset:0;stroke-opacity:1;visibility:visible;display:inline;overflow:visible;enable-background:accumulate"/>
<path d="M 38.44,28.89 C 39.12,28.93 39.69,29.37 40.31,29.61 C 41.35,30.06 42.23,30.54 43.22,30.99 C 43.78,31.26 44.38,31.49 44.94,31.77 C 45.87,32.45 45.74,33.8 45.31,34.74 C 44.81,35.98 43.82,36.97 42.66,37.55 C 40.62,38.51 38.53,39.56 36.56,40.68 C 35.45,41.36 33.97,41.92 32.72,41.24 C 30.81,40.3 28.85,39.47 27.03,38.58 C 25.91,37.82 25.74,36.26 26.06,35.05 C 26.65,32.82 28.41,30.82 30.69,30.27 C 31.47,30.07 32.38,29.97 33.22,29.8 C 34.95,29.51 36.7,29.13 38.44,28.89 L 38.44,28.89 z" id="p3881-6-4" style="opacity:1;fill:none;fill-opacity:1;fill-rule:nonzero;stroke:#070707;stroke-width:0.80;stroke-linecap:butt;stroke-linejoin:miter;marker:none;stroke-miterlimit:4;stroke-dasharray:none;stroke-dashoffset:0;stroke-opacity:1;visibility:visible;display:inline;overflow:visible;enable-background:accumulate"/>
<path d="M 41.32,32.89 C 41.55,32.99 41.84,33.14 42.1,33.24 C 42.68,33.6 42.69,34.56 42.1,35.39 C 41.51,36.23 40.56,36.6 39.97,36.24 C 39.68,36.11 39.45,35.99 39.19,35.89 C 38.61,35.53 38.61,34.57 39.19,33.74 C 39.33,33.55 39.5,33.41 39.66,33.27" id="p3881-7-3-7-9-7" style="opacity:1;fill:none;fill-opacity:1;fill-rule:nonzero;stroke:#070707;stroke-width:0.5;stroke-linecap:butt;stroke-linejoin:miter;marker:none;stroke-miterlimit:4;stroke-dasharray:none;stroke-dashoffset:0;stroke-opacity:1;visibility:visible;display:inline;overflow:visible;enable-background:accumulate"/>
<path d="M 35.76,34.24 C 35.85,34.26 35.96,34.28 36.04,34.33 C 36.35,34.45 36.72,34.67 37.07,34.8 C 37.86,35.29 37.86,36.58 37.07,37.71 C 36.27,38.83 34.98,39.35 34.19,38.86 C 33.79,38.69 33.51,38.53 33.16,38.39 C 33.02,38.3 32.88,38.19 32.79,38.05" id="p3881-7-3-7-7-7-5" style="opacity:1;fill:none;fill-opacity:1;fill-rule:nonzero;stroke:#070707;stroke-width:0.5;stroke-linecap:butt;stroke-linejoin:miter;marker:none;stroke-miterlimit:4;stroke-dasharray:none;stroke-dashoffset:0;stroke-opacity:1;visibility:visible;display:inline;overflow:visible;enable-background:accumulate"/>
<path d="M 43.11,32.5 C 43.38,32.49 43.64,32.53 43.87,32.63 C 44.8,33.04 44.88,34.29 44.06,35.42 C 43.63,36.03 43.16,36.52 42.6,36.83 L 37.34,39.56 C 37.12,39.71 36.88,39.83 36.65,39.95 C 35.69,40.42 34.7,40.57 33.92,40.23 C 32.51,39.62 32.38,37.73 33.62,36.02 C 34.4,34.93 35.55,34.19 36.64,33.94 C 38.71,33.46 40.89,32.96 43,32.51 C 43.02,32.51 43.04,32.51 43.06,32.51 C 43.07,32.51 43.09,32.5 43.11,32.5 L 43.11,32.5 z" id="p3881-5-7-8-6" style="opacity:1;fill:none;fill-opacity:1;fill-rule:nonzero;stroke:#070707;stroke-width:0.5;stroke-linecap:butt;stroke-linejoin:miter;marker:none;stroke-miterlimit:4;stroke-dasharray:none;stroke-dashoffset:0;stroke-opacity:1;visibility:visible;display:inline;overflow:visible;enable-background:accumulate"/>
<path d="M 23,31.26 L 23,38.26 L 16.85,41.35 L 16.85,34.35 L 23,31.26 z" id="p4502-0-7" style="opacity:1;fill:none;fill-opacity:1;fill-rule:nonzero;stroke:#070707;stroke-width:0.5;stroke-linecap:butt;stroke-linejoin:miter;marker:none;stroke-miterlimit:4;stroke-dasharray:none;stroke-dashoffset:0;stroke-opacity:1;visibility:visible;display:inline;overflow:visible;enable-background:accumulate"/>
<path d="M 21.35,30.76 L 12.83,26.52" id="p5229-81" style="fill:none;stroke:#131313;stroke-width:0.5;stroke-linecap:butt;stroke-linejoin:miter;stroke-miterlimit:4;stroke-dasharray:none;stroke-opacity:1"/>
<path d="M 22.58,38.5 L 16.85,41.35 C 16.77,41.31 15.69,40.67 15.63,40.63 L 15.63,33.63 L 21.78,30.54" id="p4502-0-2-0-6" style="fill:none;stroke:#070707;stroke-width:0.80;stroke-linecap:round;stroke-miterlimit:4;stroke-dasharray:none;stroke-opacity:1;display:inline"/>
<path d="M 13.4,26.48 L 13.4,33.48 L 7.24,36.57 L 7.24,29.57 L 13.4,26.48 L 13.4,26.48 z" id="p4502-0-1-2" style="opacity:1;fill:none;fill-opacity:1;fill-rule:nonzero;stroke:#070707;stroke-width:0.5;stroke-linecap:butt;stroke-linejoin:miter;marker:none;stroke-miterlimit:4;stroke-dasharray:none;stroke-dashoffset:0;stroke-opacity:1;visibility:visible;display:inline;overflow:visible;enable-background:accumulate"/>
<path d="M 12.98,33.72 L 7.24,36.57 C 7.17,36.53 6.09,35.89 6.03,35.85 L 6.03,28.85 L 12.18,25.76" id="p4502-0-2-0-9-1" style="fill:none;stroke:#070707;stroke-width:0.80;stroke-linecap:round;stroke-miterlimit:4;stroke-dasharray:none;stroke-opacity:1;display:inline"/>
<path d="M 13.51,16.88 L 10.66,15.41" id="p5093-4" style="opacity:1;fill:none;fill-opacity:1;fill-rule:nonzero;stroke:#070707;stroke-width:1;stroke-linecap:round;stroke-linejoin:miter;marker:none;stroke-miterlimit:4;stroke-dasharray:none;stroke-dashoffset:0;stroke-opacity:1;visibility:visible;display:inline;overflow:visible;enable-background:accumulate"/>
<path d="M 19.66,19.99 L 16.8,18.51" id="p5093-1-8" style="opacity:1;fill:none;fill-opacity:1;fill-rule:nonzero;stroke:#070707;stroke-width:1;stroke-linecap:round;stroke-linejoin:miter;marker:none;stroke-miterlimit:4;stroke-dasharray:none;stroke-dashoffset:0;stroke-opacity:1;visibility:visible;display:inline;overflow:visible;enable-background:accumulate"/>
<path d="M 29.98,18.67 L 39.45,23.40 L 39.45,29.07" id="p3294" style="opacity:1;fill:none;fill-opacity:1;fill-rule:nonzero;stroke:#070707;stroke-width:1;stroke-linecap:butt;stroke-linejoin:miter;marker:none;stroke-miterlimit:4;stroke-dasharray:none;stroke-dashoffset:0;stroke-opacity:1;visibility:visible;display:inline;overflow:visible;enable-background:accumulate"/>
<path d="M 22.32,38.63 L 24.88,39.86 L 27.24,38.72" id="p3296" style="opacity:1;fill:none;fill-opacity:1;fill-rule:nonzero;stroke:#070707;stroke-width:1;stroke-linecap:butt;stroke-linejoin:miter;marker:none;stroke-miterlimit:4;stroke-dasharray:none;stroke-dashoffset:0;stroke-opacity:1;visibility:visible;display:inline;overflow:visible;enable-background:accumulate"/>
<path d="M 12.77,33.80 L 15.51,35.13" id="p3298" style="opacity:1;fill:none;fill-opacity:1;fill-rule:nonzero;stroke:#070707;stroke-width:1;stroke-linecap:butt;stroke-linejoin:miter;marker:none;stroke-miterlimit:4;stroke-dasharray:none;stroke-dashoffset:0;stroke-opacity:1;visibility:visible;display:inline;overflow:visible;enable-background:accumulate"/>
<path d="M 10.50,26.61 L 10.50,23.30 L 14.66,21.32" id="p3300" style="opacity:1;fill:none;fill-opacity:1;fill-rule:nonzero;stroke:#070707;stroke-width:1;stroke-linecap:butt;stroke-linejoin:miter;marker:none;stroke-miterlimit:4;stroke-dasharray:none;stroke-dashoffset:0;stroke-opacity:1;visibility:visible;display:inline;overflow:visible;enable-background:accumulate"/>
<path d="M 26.01,23.11 L 29.42,24.82 L 35.85,21.60" id="p3305" style="opacity:1;fill:none;fill-opacity:1;fill-rule:nonzero;stroke:#070707;stroke-width:0.5;stroke-linecap:butt;stroke-linejoin:miter;marker:none;stroke-miterlimit:4;stroke-dasharray:none;stroke-dashoffset:0;stroke-opacity:1;visibility:visible;display:inline;overflow:visible;enable-background:accumulate"/>
</svg>
