<?xml version="1.0" encoding="UTF-8" standalone="no"?>

<svg xmlns:svg="http://www.w3.org/2000/svg" xmlns="http://www.w3.org/2000/svg" version="1.0" width="100%" height="100%" viewBox="0 0 48 48" id="svg2985" style="display:inline">
<defs id="defs3"/>
<g id="layer3" style="display:inline">
<g id="g2458">
<path d="M 19.03,20.03 C 19.71,20.06 20.29,20.5 20.91,20.75 C 21.95,21.2 22.82,21.67 23.82,22.11 C 24.38,22.38 24.98,22.62 25.53,22.89 C 26.47,23.57 26.34,24.93 25.91,25.86 C 25.4,27.11 24.42,28.09 23.25,28.67 C 21.22,29.63 19.13,30.68 17.16,31.8 C 16.04,32.48 14.56,33.04 13.32,32.36 C 11.44,31.43 9.47,30.61 7.63,29.7 C 6.5,28.95 6.34,27.38 6.66,26.17 C 7.24,23.95 9.01,21.96 11.28,21.4 C 12.07,21.2 12.98,21.1 13.82,20.93 C 15.55,20.64 17.29,20.27 19.03,20.03 L 19.03,20.03 z" id="p3881-2-7" style="fill:#ffc453;fill-opacity:1;fill-rule:nonzero;stroke:none;marker:none;visibility:visible;display:inline;overflow:visible;enable-background:accumulate"/>
<path d="M 18.23,23.92 L 12.76,21.34" id="p4082-6-4" style="fill:none;stroke:#975e29;stroke-width:0.5;stroke-linecap:round;stroke-linejoin:miter;stroke-miterlimit:4;stroke-dasharray:none;stroke-opacity:1;display:inline"/>
<path d="M 7.79,23.83 L 13.92,26.74 C 13.92,26.74 16.58,28.9 18.95,30.83 C 18.35,31.15 17.74,31.47 17.17,31.8 C 16.05,32.48 14.57,33.04 13.32,32.36 C 12.51,31.98 11.69,31.6 10.88,31.2 C 10.85,31.19 10.82,31.18 10.79,31.17 C 10.71,31.13 10.62,31.09 10.54,31.05 C 10.5,31.03 10.45,31.04 10.42,31.02 C 9.49,30.59 8.55,30.15 7.63,29.7 C 6.51,28.95 6.35,27.38 6.67,26.17 C 6.88,25.34 7.27,24.54 7.79,23.83 L 7.79,23.83 z" id="p4122-0-1" style="fill:#df9e1f;fill-opacity:1;fill-rule:nonzero;stroke:none;marker:none;visibility:visible;display:inline;overflow:visible;enable-background:accumulate"/>
<path d="M 6.63,26.27 L 18.1,31.3 C 17.79,31.47 17.47,31.63 17.17,31.8 C 16.05,32.48 14.57,33.04 13.32,32.36 C 12.51,31.98 11.69,31.6 10.88,31.2 C 10.85,31.19 10.82,31.18 10.79,31.17 C 10.71,31.13 10.62,31.09 10.54,31.05 C 10.5,31.03 10.45,31.04 10.42,31.02 C 9.49,30.59 8.55,30.15 7.63,29.7 C 6.54,28.97 6.35,27.46 6.63,26.27 L 6.63,26.27 z" id="p4239-2-9" style="fill:#b77711;fill-opacity:1;stroke:none;display:inline"/>
<path d="M 15.1,25.02 L 9.31,22.42" id="p4080-7-3" style="fill:none;stroke:#975e29;stroke-width:0.60;stroke-linecap:round;stroke-linejoin:miter;stroke-miterlimit:4;stroke-dasharray:none;stroke-opacity:1;display:inline"/>
<path d="M 12.65,28.02 L 7.09,25.39" id="p4078-2-1-7" style="fill:none;stroke:#f1c057;stroke-width:0.69;stroke-linecap:butt;stroke-linejoin:miter;stroke-miterlimit:4;stroke-dasharray:none;stroke-opacity:1;display:inline"/>
<path d="M 12.88,27.64 L 7.32,25.02" id="p4078-5-9" style="fill:none;stroke:#975e29;stroke-width:0.69;stroke-linecap:butt;stroke-linejoin:miter;stroke-miterlimit:4;stroke-dasharray:none;stroke-opacity:1;display:inline"/>
<path d="M 12.49,30.83 L 6.76,28.18" id="p4076-6-9-2" style="fill:none;stroke:#d6bb68;stroke-width:0.60;stroke-linecap:round;stroke-linejoin:miter;stroke-miterlimit:4;stroke-dasharray:none;stroke-opacity:1;display:inline"/>
<path d="M 12.51,30.38 L 6.79,27.72" id="p4076-7-4" style="fill:none;stroke:#975e29;stroke-width:0.60;stroke-linecap:round;stroke-linejoin:miter;stroke-miterlimit:4;stroke-dasharray:none;stroke-opacity:1;display:inline"/>
<path d="M 19.03,20.03 C 19.71,20.06 20.29,20.5 20.91,20.75 C 21.95,21.2 22.82,21.67 23.82,22.11 C 24.38,22.38 24.98,22.62 25.53,22.89 C 26.47,23.57 26.34,24.93 25.91,25.86 C 25.4,27.11 24.42,28.09 23.25,28.67 C 21.22,29.63 19.13,30.68 17.16,31.8 C 16.04,32.48 14.56,33.04 13.32,32.36 C 11.4,31.43 9.45,30.59 7.63,29.7 C 6.5,28.95 6.34,27.38 6.66,26.17 C 7.24,23.95 9.01,21.96 11.28,21.4 C 12.07,21.2 12.98,21.1 13.82,20.93 C 15.55,20.64 17.29,20.27 19.03,20.03 L 19.03,20.03 z" id="p3881-6-0-0" style="fill:none;stroke:#2c1b06;stroke-width:0.69;marker:none;stroke-miterlimit:4;stroke-dasharray:none;stroke-opacity:1;visibility:visible;display:inline;overflow:visible;enable-background:accumulate"/>
</g>
<path d="M 24.91,16.14 L 39.41,23.39 C 39.41,26.66 39.41,29.66 39.41,32.64 L 24.91,39.89 L 10.41,32.64 C 10.41,29.61 10.41,25.88 10.41,23.39 L 24.91,16.14 z" id="p2993-7-32" style="fill:#0000ff;fill-opacity:1;stroke:none;display:inline"/>
<path d="M 34.47,20.93 L 39.41,23.39 L 39.41,32.64 L 24.97,39.86 L 24.97,28.74 L 34.47,20.93 L 34.47,20.93 z" id="p4502-8" style="fill:#000094;fill-opacity:1;stroke:none"/>
<path d="M 24.91,30.64 L 39.41,23.39 L 24.91,16.14 L 10.41,23.39 L 24.91,30.64 z" id="p2993-7-9-49" style="fill:#5363ff;fill-opacity:1;stroke:none;display:inline"/>
<path d="M 24.98,30.79 L 24.98,39.73" id="p3111-6" style="fill:none;stroke:#2559b9;stroke-width:1.5;stroke-linecap:butt;stroke-linejoin:miter;stroke-miterlimit:4;stroke-dasharray:none;stroke-opacity:1"/>
<path d="M 27.32,17.35 L 35.88,21.6 L 29.41,24.85 L 20.85,20.57 L 27.32,17.35 z" id="p2993-7-9-7-0" style="fill:none;stroke:#21365d;stroke-width:0.40;stroke-miterlimit:4;stroke-dasharray:none;stroke-opacity:1;display:inline"/>
<path d="M 10.41,23.39 L 24.91,30.64 L 39.41,23.39" id="p2993-7-9-4-0" style="fill:none;stroke:#859eef;stroke-linejoin:bevel;stroke-opacity:1;display:inline"/>
<path d="M 36.94,29.6 L 36.94,26.65 L 31.9,29.17 L 31.9,31.6" id="p4705-4" style="fill:none;stroke:#2f46ab;stroke-width:0.30;stroke-linecap:butt;stroke-linejoin:bevel;stroke-miterlimit:4;stroke-dasharray:none;stroke-opacity:1"/>
<path d="M 24.91,16.14 L 39.41,23.39 C 39.41,26.66 39.41,29.66 39.41,32.64 L 24.91,39.89 L 10.41,32.64 C 10.41,29.61 10.41,25.88 10.41,23.39 L 24.91,16.14 z" id="p2993-7-3-6" style="fill:none;stroke:#00003c;stroke-opacity:1;display:inline"/>
<path d="M 19.29,18.32 C 21.02,18.25 23.09,19.12 24.22,20.45 C 25.22,21.63 25.42,22.73 24.98,23.48 C 25.33,25.14 25.04,26.49 23.22,26.89 C 21.39,27.29 18.86,26.38 17.57,24.86 C 16.57,23.68 16.62,22.73 16.73,21.74 C 16.79,19.92 16.75,18.81 18.57,18.42 C 18.8,18.37 19.04,18.33 19.29,18.32 L 19.29,18.32 z" id="p4109-4" style="fill:#00003c;fill-opacity:1;fill-rule:nonzero;stroke:#00003c;stroke-width:0.60;stroke-linecap:round;stroke-linejoin:miter;marker:none;stroke-miterlimit:4;stroke-dasharray:none;stroke-dashoffset:0;stroke-opacity:1;visibility:visible;display:inline;overflow:visible;enable-background:accumulate"/>
<path d="M 15.47,7.45 L 29.97,14.7 C 29.97,17.38 29.97,19.97 29.97,21.32 L 22.35,25.14 L 7.85,17.89 C 7.85,15.64 7.85,12.93 7.85,11.26 L 15.47,7.45 z" id="p2993-7-9-8-29" style="fill:#0000ff;fill-opacity:1;stroke:none;display:inline"/>
<path d="M 8.97,12.67 L 21.47,18.92 L 21.47,23.26 L 8.97,17.01 L 8.97,12.67 z" id="p2993-7-9-8-8-5-59" style="fill:#5363ff;fill-opacity:1;stroke:none;display:inline"/>
<path d="M 26.69,13.04 L 29.97,14.7 L 29.97,21.32 L 22.38,25.14 L 22.38,17.07 L 22.29,16.76 L 26.69,13.04 z" id="p4170-7" style="fill:#000094;fill-opacity:1;stroke:none"/>
<path d="M 22.39,18.53 L 22.39,24.77" id="p5148-2" style="fill:none;stroke:#2559b9;stroke-width:0.5;stroke-linecap:butt;stroke-linejoin:miter;marker:none;stroke-miterlimit:4;stroke-dasharray:none;stroke-dashoffset:0;stroke-opacity:1;visibility:visible;display:inline;overflow:visible;enable-background:accumulate"/>
<path d="M 15.48,7.45 L 29.98,14.7 L 22.35,18.51 L 7.85,11.26 L 15.48,7.45 z" id="p2993-7-9-8-8-51" style="fill:#5363ff;fill-opacity:1;stroke:none;display:inline"/>
<path d="M 29.98,14.7 L 22.35,18.51 L 7.85,11.26" id="p2993-7-9-8-8-57-9" style="fill:none;stroke:#859eef;stroke-width:0.5;stroke-linecap:butt;stroke-linejoin:bevel;marker:none;stroke-miterlimit:4;stroke-dasharray:none;stroke-dashoffset:0;stroke-opacity:1;visibility:visible;display:inline;overflow:visible;enable-background:accumulate"/>
<path d="M 15.47,7.45 L 29.97,14.7 C 29.97,17.38 29.97,19.97 29.97,21.32 L 22.35,25.14 L 7.85,17.89 C 7.85,15.64 7.85,12.93 7.85,11.26 L 15.47,7.45 z" id="p2993-7-9-8-2-6" style="fill:none;stroke:#00003c;stroke-width:1;stroke-linecap:butt;stroke-linejoin:miter;marker:none;stroke-miterlimit:4;stroke-dasharray:none;stroke-dashoffset:0;stroke-opacity:1;visibility:visible;display:inline;overflow:visible;enable-background:accumulate"/>
<path d="M 8.97,12.67 L 13.26,14.82 L 8.97,16.95 L 8.97,12.67 z" id="p2993-7-9-8-8-5-5-0" style="fill:#000094;fill-opacity:1;stroke:none;display:inline"/>
<path d="M 21.47,31.22 L 12.96,26.98" id="p5229-8-1" style="fill:none;stroke:#5353ff;stroke-width:0.5;stroke-linecap:butt;stroke-linejoin:miter;stroke-miterlimit:4;stroke-dasharray:none;stroke-opacity:1;display:inline"/>
<path d="M 21.78,30.54 C 21.83,30.56 22.93,31.21 23,31.26 L 23,38.26 L 16.85,41.35 C 16.77,41.31 15.69,40.67 15.63,40.63 L 15.63,33.63 L 21.78,30.54 z" id="p4502-0-2-8" style="fill:#5363ff;fill-opacity:1;stroke:none;display:inline"/>
<path d="M 15.63,33.72 L 23,37.97 L 23,38.26 L 16.85,41.35 C 16.77,41.31 15.69,40.67 15.63,40.63 L 15.63,33.72 z" id="p4925-8" style="fill:#0000ff;fill-opacity:1;fill-rule:nonzero;stroke:none;marker:none;visibility:visible;display:inline;overflow:visible;enable-background:accumulate"/>
<path d="M 23,31.26 L 23,38.26 L 16.85,41.35 L 16.85,34.35 L 23,31.26 z" id="p4502-0-7" style="fill:#000094;fill-opacity:1;stroke:none;display:inline"/>
<path d="M 21.35,30.76 L 12.83,26.52" id="p5229-81" style="fill:none;stroke:#0f0e3a;stroke-width:0.5;stroke-linecap:butt;stroke-linejoin:miter;stroke-miterlimit:4;stroke-dasharray:none;stroke-opacity:1"/>
<path d="M 22.58,38.5 L 16.85,41.35 C 16.77,41.31 15.69,40.67 15.63,40.63 L 15.63,33.63 L 21.78,30.54" id="p4502-0-2-0-6" style="fill:none;stroke:#00003c;stroke-width:0.60;stroke-linecap:round;stroke-miterlimit:4;stroke-dasharray:none;stroke-opacity:1;display:inline"/>
<path d="M 12.18,25.76 C 12.23,25.78 13.33,26.43 13.4,26.48 L 13.4,33.48 L 7.24,36.57 C 7.17,36.53 6.09,35.89 6.03,35.85 L 6.03,28.85 L 12.18,25.76 z" id="p4502-0-2-4-0" style="fill:#5363ff;fill-opacity:1;stroke:none;display:inline"/>
<path d="M 6.03,28.94 L 13.4,33.19 L 13.4,33.48 L 7.24,36.57 C 7.17,36.53 6.09,35.89 6.03,35.85 L 6.03,28.94 z" id="p4925-0-0" style="fill:#0000ff;fill-opacity:1;fill-rule:nonzero;stroke:none;marker:none;visibility:visible;display:inline;overflow:visible;enable-background:accumulate"/>
<path d="M 13.4,26.48 L 13.4,33.48 L 7.24,36.57 L 7.24,29.57 L 13.4,26.48 L 13.4,26.48 z" id="p4502-0-1-2" style="fill:#000094;fill-opacity:1;stroke:none;display:inline"/>
<path d="M 12.98,33.72 L 7.24,36.57 C 7.17,36.53 6.09,35.89 6.03,35.85 L 6.03,28.85 L 12.18,25.76" id="p4502-0-2-0-9-1" style="fill:none;stroke:#00003c;stroke-width:0.60;stroke-linecap:round;stroke-miterlimit:4;stroke-dasharray:none;stroke-opacity:1;display:inline"/>
<path d="M 9.47,12.91 L 21.47,18.91 L 21.47,22.69 L 9.47,16.69 L 9.47,12.91 z" id="p2993-7-9-8-8-5-9-2" style="fill:#1a1a1a;fill-opacity:1;stroke:none;display:inline"/>
<path d="M 9.47,14.26 L 21.47,20.32 L 21.47,21.41 L 9.47,15.35 L 9.47,14.26 z" id="p5068-5" style="fill:#900000;fill-opacity:1;stroke:none;marker:none;visibility:visible"/>
<path d="M 13.51,16.88 L 10.66,15.41" id="p5093-4" style="fill:none;stroke:#ff0b0b;stroke-width:1.38;stroke-linecap:round;stroke-linejoin:miter;stroke-miterlimit:4;stroke-dasharray:none;stroke-opacity:1"/>
<path d="M 19.66,19.99 L 16.8,18.51" id="p5093-1-8" style="fill:none;stroke:#ff0b0b;stroke-width:1.38;stroke-linecap:round;stroke-linejoin:miter;stroke-miterlimit:4;stroke-dasharray:none;stroke-opacity:1;display:inline"/>
<g id="g2493">
<path d="M 38.44,28.89 C 39.12,28.93 39.69,29.37 40.31,29.61 C 41.35,30.06 42.23,30.54 43.22,30.99 C 43.78,31.26 44.38,31.49 44.94,31.77 C 45.87,32.45 45.74,33.8 45.31,34.74 C 44.81,35.98 43.82,36.97 42.66,37.55 C 40.62,38.51 38.53,39.56 36.56,40.68 C 35.45,41.36 33.97,41.92 32.72,41.24 C 30.84,40.31 28.87,39.49 27.03,38.58 C 25.91,37.82 25.74,36.26 26.06,35.05 C 26.65,32.82 28.41,30.82 30.69,30.27 C 31.47,30.07 32.38,29.97 33.22,29.8 C 34.95,29.51 36.7,29.13 38.44,28.89 L 38.44,28.89 z" id="p3881-3" style="fill:#ffc453;fill-opacity:1;fill-rule:nonzero;stroke:none;marker:none;visibility:visible;display:inline;overflow:visible;enable-background:accumulate"/>
<path d="M 40.95,32.24 L 35.18,29.51" id="p4084-7" style="fill:none;stroke:#975e29;stroke-width:0.40;stroke-linecap:butt;stroke-linejoin:miter;stroke-miterlimit:4;stroke-dasharray:none;stroke-opacity:1"/>
<path d="M 43.36,31.75 L 37.51,29.02" id="p4084-9-0" style="fill:none;stroke:#975e29;stroke-width:0.40;stroke-linecap:round;stroke-linejoin:miter;stroke-miterlimit:4;stroke-dasharray:none;stroke-opacity:1;display:inline"/>
<path d="M 37.63,32.8 L 32.16,30.21" id="p4082-64" style="fill:none;stroke:#975e29;stroke-width:0.5;stroke-linecap:round;stroke-linejoin:miter;stroke-miterlimit:4;stroke-dasharray:none;stroke-opacity:1"/>
<path d="M 27.19,32.71 L 33.32,35.61 C 33.32,35.61 35.98,37.77 38.35,39.71 C 37.75,40.02 37.15,40.35 36.57,40.68 C 35.45,41.36 33.97,41.92 32.72,41.24 C 31.92,40.86 31.1,40.47 30.29,40.08 C 30.26,40.07 30.22,40.06 30.19,40.05 C 30.11,40.01 30.03,39.97 29.94,39.93 C 29.9,39.91 29.86,39.92 29.82,39.89 C 28.9,39.46 27.95,39.03 27.04,38.58 C 25.91,37.82 25.75,36.26 26.07,35.05 C 26.29,34.22 26.68,33.41 27.19,32.71 z" id="p4122-1" style="fill:#df9e1f;fill-opacity:1;fill-rule:nonzero;stroke:none;marker:none;visibility:visible;display:inline;overflow:visible;enable-background:accumulate"/>
<path d="M 26.04,35.14 L 37.51,40.18 C 37.19,40.34 36.87,40.5 36.57,40.68 C 35.45,41.36 33.97,41.92 32.72,41.24 C 31.92,40.86 31.1,40.47 30.29,40.08 C 30.26,40.07 30.22,40.06 30.19,40.05 C 30.11,40.01 30.03,39.97 29.94,39.93 C 29.9,39.91 29.86,39.92 29.82,39.89 C 28.9,39.46 27.95,39.03 27.04,38.58 C 25.94,37.84 25.75,36.34 26.04,35.14 z" id="p4239-0" style="fill:#b77711;fill-opacity:1;stroke:none"/>
<path d="M 34.5,33.9 L 28.71,31.3" id="p4080-1" style="fill:none;stroke:#975e29;stroke-width:0.60;stroke-linecap:round;stroke-linejoin:miter;stroke-miterlimit:4;stroke-dasharray:none;stroke-opacity:1"/>
<path d="M 32.05,36.89 L 26.49,34.27" id="p4078-2-15" style="fill:none;stroke:#f1c057;stroke-width:0.69;stroke-linecap:butt;stroke-linejoin:miter;stroke-miterlimit:4;stroke-dasharray:none;stroke-opacity:1;display:inline"/>
<path d="M 32.28,36.52 L 26.72,33.9" id="p4078-3" style="fill:none;stroke:#975e29;stroke-width:0.69;stroke-linecap:butt;stroke-linejoin:miter;stroke-miterlimit:4;stroke-dasharray:none;stroke-opacity:1"/>
<path d="M 31.89,39.71 L 26.16,37.05" id="p4076-6-1" style="fill:none;stroke:#d6bb68;stroke-width:0.60;stroke-linecap:round;stroke-linejoin:miter;stroke-miterlimit:4;stroke-dasharray:none;stroke-opacity:1;display:inline"/>
<path d="M 31.91,39.26 L 26.19,36.6" id="p4076-0" style="fill:none;stroke:#975e29;stroke-width:0.60;stroke-linecap:round;stroke-linejoin:miter;stroke-miterlimit:4;stroke-dasharray:none;stroke-opacity:1"/>
<path d="M 43.99,31.47 C 44.31,31.47 44.61,31.56 44.87,31.72 C 45.91,32.36 45.88,34.08 44.84,35.56 C 44.28,36.36 43.69,36.98 43.02,37.35 L 36.68,40.59 C 36.41,40.79 36.12,40.93 35.84,41.06 C 34.69,41.62 33.53,41.73 32.65,41.19 C 31.08,40.21 31.1,37.61 32.68,35.37 C 33.69,33.95 35.09,33.05 36.37,32.81 L 36.37,32.78 C 36.63,32.76 43.61,31.49 43.87,31.47 C 43.89,31.47 43.91,31.47 43.93,31.47 C 43.95,31.47 43.97,31.47 43.99,31.47 L 43.99,31.47 z" id="p3881-5-4" style="fill:#945b00;fill-opacity:1;fill-rule:nonzero;stroke:none;marker:none;visibility:visible;display:inline;overflow:visible;enable-background:accumulate"/>
<path d="M 43.11,32.5 C 43.38,32.49 43.64,32.53 43.87,32.63 C 44.8,33.04 44.88,34.29 44.06,35.42 C 43.63,36.03 43.16,36.52 42.6,36.83 L 37.34,39.56 C 37.12,39.71 36.88,39.83 36.65,39.95 C 35.69,40.42 34.7,40.57 33.92,40.23 C 32.51,39.62 32.38,37.73 33.62,36.02 C 34.4,34.93 35.55,34.19 36.64,33.94 L 36.64,33.91 C 36.86,33.88 42.78,32.54 43,32.51 C 43.02,32.51 43.04,32.51 43.06,32.51 C 43.07,32.51 43.09,32.5 43.11,32.5 L 43.11,32.5 z" id="p3881-5-7-7" style="fill:#39200b;fill-opacity:1;fill-rule:nonzero;stroke:none;marker:none;visibility:visible;display:inline;overflow:visible;enable-background:accumulate"/>
<path d="M 42.34,32.68 C 42.31,33.12 42.13,33.6 41.78,34.08 C 41.34,34.69 40.87,35.18 40.31,35.49 L 35.06,38.24 C 34.84,38.39 34.61,38.5 34.37,38.61 C 33.88,38.86 33.36,39.04 32.87,39.08 C 32.6,38.23 32.85,37.09 33.62,36.02 C 34.41,34.93 35.54,34.18 36.62,33.93 C 36.82,33.9 41.2,32.92 42.34,32.68 L 42.34,32.68 z" id="p3881-5-7-4-0" style="fill:#643c1c;fill-opacity:1;fill-rule:nonzero;stroke:none;marker:none;visibility:visible;display:inline;overflow:visible;enable-background:accumulate"/>
<path d="M 38.44,28.89 C 39.12,28.93 39.69,29.37 40.31,29.61 C 41.35,30.06 42.23,30.54 43.22,30.99 C 43.78,31.26 44.38,31.49 44.94,31.77 C 45.87,32.45 45.74,33.8 45.31,34.74 C 44.81,35.98 43.82,36.97 42.66,37.55 C 40.62,38.51 38.53,39.56 36.56,40.68 C 35.45,41.36 33.97,41.92 32.72,41.24 C 30.81,40.3 28.85,39.47 27.03,38.58 C 25.91,37.82 25.74,36.26 26.06,35.05 C 26.65,32.82 28.41,30.82 30.69,30.27 C 31.47,30.07 32.38,29.97 33.22,29.8 C 34.95,29.51 36.7,29.13 38.44,28.89 L 38.44,28.89 z" id="p3881-6-4" style="fill:none;stroke:#2c1b06;stroke-width:0.69;marker:none;stroke-miterlimit:4;stroke-dasharray:none;stroke-opacity:1;visibility:visible;display:inline;overflow:visible;enable-background:accumulate"/>
<path d="M 41.32,32.89 C 41.55,32.99 41.84,33.14 42.1,33.24 C 42.68,33.6 42.69,34.56 42.1,35.39 C 41.51,36.23 40.56,36.6 39.97,36.24 C 39.68,36.11 39.45,35.99 39.19,35.89 C 38.61,35.53 38.61,34.57 39.19,33.74 C 39.33,33.55 39.5,33.41 39.66,33.27 C 40.22,33.14 40.76,33.02 41.32,32.89 L 41.32,32.89 z" id="p3881-7-3-7-3" style="fill:#707070;fill-opacity:1;fill-rule:nonzero;stroke:none;marker:none;visibility:visible;display:inline;overflow:visible;enable-background:accumulate"/>
<path d="M 41.31,33.10 C 40.85,33.19 40.35,33.54 40,34.04 C 39.42,34.85 39.43,35.78 40,36.14 C 40.56,36.49 41.48,36.13 42.06,35.32 C 42.63,34.52 42.66,33.58 42.09,33.23 C 41.88,33.10 41.58,33.05 41.31,33.10 z" id="p3881-7-3-6" style="fill:#363636;fill-opacity:1;fill-rule:nonzero;stroke:none;marker:none;visibility:visible;display:inline;overflow:visible;enable-background:accumulate"/>
<path d="M 35.76,34.24 C 35.85,34.26 35.96,34.28 36.04,34.33 C 36.35,34.45 36.72,34.67 37.07,34.8 C 37.86,35.29 37.86,36.58 37.07,37.71 C 36.27,38.83 34.98,39.35 34.19,38.86 C 33.79,38.69 33.51,38.53 33.16,38.39 C 33.02,38.3 32.88,38.19 32.79,38.05 C 32.85,37.41 33.14,36.7 33.63,36.02 C 34.2,35.22 34.96,34.61 35.76,34.24 z" id="p3881-7-3-7-7-0" style="fill:#707070;fill-opacity:1;fill-rule:nonzero;stroke:none;marker:none;visibility:visible;display:inline;overflow:visible;enable-background:accumulate"/>
<path d="M 36.46,34.5 C 35.74,34.49 34.89,35.00 34.31,35.84 C 33.53,36.96 33.56,38.24 34.34,38.71 C 35.12,39.19 36.38,38.68 37.15,37.56 C 37.93,36.44 37.93,35.13 37.15,34.65 C 36.96,34.53 36.70,34.50 36.46,34.5 z" id="p3881-7-3-8-5" style="fill:#363636;fill-opacity:1;fill-rule:nonzero;stroke:none;marker:none;visibility:visible;display:inline;overflow:visible;enable-background:accumulate"/>
<path d="M 41.32,32.89 C 41.55,32.99 41.84,33.14 42.1,33.24 C 42.68,33.6 42.69,34.56 42.1,35.39 C 41.51,36.23 40.56,36.6 39.97,36.24 C 39.68,36.11 39.45,35.99 39.19,35.89 C 38.61,35.53 38.61,34.57 39.19,33.74 C 39.33,33.55 39.5,33.41 39.66,33.27" id="p3881-7-3-7-9-7" style="fill:none;stroke:#191919;stroke-width:0.30;marker:none;stroke-miterlimit:4;stroke-dasharray:none;stroke-opacity:1;visibility:visible;display:inline;overflow:visible;enable-background:accumulate"/>
<path d="M 35.76,34.24 C 35.85,34.26 35.96,34.28 36.04,34.33 C 36.35,34.45 36.72,34.67 37.07,34.8 C 37.86,35.29 37.86,36.58 37.07,37.71 C 36.27,38.83 34.98,39.35 34.19,38.86 C 33.79,38.69 33.51,38.53 33.16,38.39 C 33.02,38.3 32.88,38.19 32.79,38.05" id="p3881-7-3-7-7-7-5" style="fill:none;stroke:#191919;stroke-width:0.30;marker:none;stroke-miterlimit:4;stroke-dasharray:none;stroke-opacity:1;visibility:visible;display:inline;overflow:visible;enable-background:accumulate"/>
<path d="M 43.11,32.5 C 43.38,32.49 43.64,32.53 43.87,32.63 C 44.8,33.04 44.88,34.29 44.06,35.42 C 43.63,36.03 43.16,36.52 42.6,36.83 L 37.34,39.56 C 37.12,39.71 36.88,39.83 36.65,39.95 C 35.69,40.42 34.7,40.57 33.92,40.23 C 32.51,39.62 32.38,37.73 33.62,36.02 C 34.4,34.93 35.55,34.19 36.64,33.94 C 38.71,33.46 40.89,32.96 43,32.51 C 43.02,32.51 43.04,32.51 43.06,32.51 C 43.07,32.51 43.09,32.5 43.11,32.5 L 43.11,32.5 z" id="p3881-5-7-8-6" style="fill:none;stroke:#2c1b06;stroke-width:0.30;marker:none;stroke-miterlimit:4;stroke-dasharray:none;stroke-opacity:1;visibility:visible;display:inline;overflow:visible;enable-background:accumulate"/>
<path d="M 41.31,33.75 C 41.02,33.74 40.70,33.96 40.46,34.31 C 40.15,34.77 40.12,35.29 40.43,35.5 C 40.74,35.70 41.24,35.49 41.56,35.03 C 41.87,34.57 41.90,34.04 41.59,33.84 C 41.51,33.79 41.40,33.75 41.31,33.75 z" id="p3881-7-3-1-4" style="fill:#535353;fill-opacity:1;fill-rule:nonzero;stroke:none;marker:none;visibility:visible;display:inline;overflow:visible;enable-background:accumulate"/>
<path d="M 41.35,33.73 C 41.50,33.99 41.45,34.39 41.19,34.76 C 40.95,35.10 40.62,35.32 40.32,35.33 C 40.31,35.33 40.30,35.33 40.29,35.33 C 40.15,35.06 40.22,34.62 40.47,34.26 C 40.71,33.93 41.05,33.75 41.35,33.73 L 41.35,33.73 z" id="p3881-7-3-1-6-7" style="fill:#202020;fill-opacity:1;fill-rule:nonzero;stroke:none;marker:none;visibility:visible;display:inline;overflow:visible;enable-background:accumulate"/>
</g>
</g>
</svg>
