<?xml version="1.0" encoding="UTF-8" standalone="no"?>

<svg xmlns:svg="http://www.w3.org/2000/svg" xmlns="http://www.w3.org/2000/svg" version="1.0" width="100%" height="100%" viewBox="0 0 48 48" id="svg2985" style="display:inline">
<defs id="defs3"/>
<g id="g2458">
<path d="M 29.73,20.24 C 29.05,20.27 28.47,20.71 27.85,20.96 C 26.81,21.41 25.94,21.88 24.94,22.32 C 24.38,22.59 23.78,22.83 23.23,23.1 C 22.29,23.78 22.42,25.14 22.85,26.07 C 23.36,27.32 24.34,28.3 25.51,28.88 C 27.54,29.84 29.63,30.89 31.6,32.01 C 32.72,32.69 34.2,33.25 35.44,32.57 C 37.32,31.64 39.29,30.82 41.13,29.91 C 42.26,29.16 42.42,27.59 42.1,26.38 C 41.52,24.16 39.75,22.17 37.48,21.61 C 36.69,21.41 35.78,21.31 34.94,21.14 C 33.21,20.85 31.47,20.48 29.73,20.24 L 29.73,20.24 z" id="p3881-2" style="fill:#ffc453;fill-opacity:1;fill-rule:nonzero;stroke:none;marker:none;visibility:visible;display:inline;overflow:visible;enable-background:accumulate"/>
<path d="M 30.53,24.13 L 36,21.55" id="p4082-6" style="fill:none;stroke:#975e29;stroke-width:0.5;stroke-linecap:round;stroke-linejoin:miter;stroke-miterlimit:4;stroke-dasharray:none;stroke-opacity:1;display:inline"/>
<path d="M 40.97,24.04 L 34.84,26.95 C 34.84,26.95 32.18,29.11 29.81,31.04 C 30.41,31.36 31.02,31.68 31.59,32.01 C 32.71,32.69 34.19,33.25 35.44,32.57 C 36.25,32.19 37.07,31.81 37.88,31.41 C 37.91,31.4 37.94,31.39 37.97,31.38 C 38.05,31.34 38.14,31.3 38.22,31.26 C 38.26,31.24 38.31,31.25 38.34,31.23 C 39.27,30.8 40.21,30.36 41.13,29.91 C 42.25,29.16 42.41,27.59 42.09,26.38 C 41.88,25.55 41.49,24.75 40.97,24.04 L 40.97,24.04 z" id="p4122-0" style="fill:#df9e1f;fill-opacity:1;fill-rule:nonzero;stroke:none;marker:none;visibility:visible;display:inline;overflow:visible;enable-background:accumulate"/>
<path d="M 42.13,26.48 L 30.66,31.51 C 30.97,31.68 31.29,31.84 31.59,32.01 C 32.71,32.69 34.19,33.25 35.44,32.57 C 36.25,32.19 37.07,31.81 37.88,31.41 C 37.91,31.4 37.94,31.39 37.97,31.38 C 38.05,31.34 38.14,31.3 38.22,31.26 C 38.26,31.24 38.31,31.25 38.34,31.23 C 39.27,30.8 40.21,30.36 41.13,29.91 C 42.22,29.18 42.41,27.67 42.13,26.48 L 42.13,26.48 z" id="p4239-2" style="fill:#b77711;fill-opacity:1;stroke:none;display:inline"/>
<path d="M 33.66,25.23 L 39.45,22.63" id="p4080-7" style="fill:none;stroke:#975e29;stroke-width:0.60;stroke-linecap:round;stroke-linejoin:miter;stroke-miterlimit:4;stroke-dasharray:none;stroke-opacity:1;display:inline"/>
<path d="M 36.11,28.23 L 41.67,25.6" id="p4078-2-1" style="fill:none;stroke:#f1c057;stroke-width:0.69;stroke-linecap:butt;stroke-linejoin:miter;stroke-miterlimit:4;stroke-dasharray:none;stroke-opacity:1;display:inline"/>
<path d="M 35.88,27.85 L 41.44,25.23" id="p4078-5" style="fill:none;stroke:#975e29;stroke-width:0.69;stroke-linecap:butt;stroke-linejoin:miter;stroke-miterlimit:4;stroke-dasharray:none;stroke-opacity:1;display:inline"/>
<path d="M 36.27,31.04 L 42,28.39" id="p4076-6-9" style="fill:none;stroke:#d6bb68;stroke-width:0.60;stroke-linecap:round;stroke-linejoin:miter;stroke-miterlimit:4;stroke-dasharray:none;stroke-opacity:1;display:inline"/>
<path d="M 36.25,30.59 L 41.97,27.93" id="p4076-7" style="fill:none;stroke:#975e29;stroke-width:0.60;stroke-linecap:round;stroke-linejoin:miter;stroke-miterlimit:4;stroke-dasharray:none;stroke-opacity:1;display:inline"/>
<path d="M 29.73,20.24 C 29.05,20.27 28.47,20.71 27.85,20.96 C 26.81,21.41 25.94,21.88 24.94,22.32 C 24.38,22.59 23.78,22.83 23.23,23.1 C 22.29,23.78 22.42,25.14 22.85,26.07 C 23.36,27.32 24.34,28.3 25.51,28.88 C 27.54,29.84 29.63,30.89 31.6,32.01 C 32.72,32.69 34.2,33.25 35.44,32.57 C 37.36,31.64 39.31,30.8 41.13,29.91 C 42.26,29.16 42.42,27.59 42.1,26.38 C 41.52,24.16 39.75,22.17 37.48,21.61 C 36.69,21.41 35.78,21.31 34.94,21.14 C 33.21,20.85 31.47,20.48 29.73,20.24 L 29.73,20.24 z" id="p3881-6-0" style="fill:none;stroke:#2c1b06;stroke-width:0.69;marker:none;stroke-miterlimit:4;stroke-dasharray:none;stroke-opacity:1;visibility:visible;display:inline;overflow:visible;enable-background:accumulate"/>
</g>
<g id="g4448">
<path d="M 23.84,16.35 L 9.34,23.6 C 9.34,26.87 9.34,29.87 9.34,32.85 L 23.84,40.1 L 38.34,32.85 C 38.34,29.82 38.34,26.09 38.34,23.6 L 23.84,16.35 z" id="p2993-7" style="fill:#be00b6;fill-opacity:1;stroke:none;display:inline"/>
<path d="M 14.27,21.14 L 9.34,23.61 L 9.34,32.86 L 23.77,40.07 L 23.77,28.95 L 14.27,21.14 L 14.27,21.14 z" id="p4502" style="fill:#7e007f;fill-opacity:1;stroke:none"/>
<path d="M 23.84,30.85 L 9.34,23.6 L 23.84,16.35 L 38.34,23.6 L 23.84,30.85 z" id="p2993-7-9" style="fill:#fe3aff;fill-opacity:1;stroke:none;display:inline"/>
<path d="M 23.77,31 L 23.77,39.94" id="p3111" style="fill:none;stroke:#d838d5;stroke-width:1.5;stroke-linecap:butt;stroke-linejoin:miter;stroke-miterlimit:4;stroke-dasharray:none;stroke-opacity:1"/>
<path d="M 21.43,17.56 L 12.87,21.81 L 19.34,25.06 L 27.9,20.78 L 21.43,17.56 z" id="p2993-7-9-7" style="fill:none;stroke:#5b215d;stroke-width:0.40;stroke-miterlimit:4;stroke-dasharray:none;stroke-opacity:1;display:inline"/>
<path d="M 38.34,23.6 L 23.84,30.85 L 9.34,23.6" id="p2993-7-9-4" style="fill:none;stroke:#ec85ef;stroke-linejoin:bevel;stroke-opacity:1;display:inline"/>
<path d="M 11.81,29.81 L 11.81,26.87 L 16.85,29.38 L 16.85,31.81" id="p4705" style="fill:none;stroke:#a72fab;stroke-width:0.30;stroke-linecap:butt;stroke-linejoin:bevel;stroke-miterlimit:4;stroke-dasharray:none;stroke-opacity:1"/>
<path d="M 23.84,16.35 L 9.34,23.6 C 9.34,26.87 9.34,29.87 9.34,32.85 L 23.84,40.1 L 38.34,32.85 C 38.34,29.82 38.34,26.09 38.34,23.6 L 23.84,16.35 z" id="p2993-7-3" style="fill:none;stroke:#3c003b;stroke-opacity:1;display:inline"/>
<path d="M 29.46,18.54 C 27.73,18.46 25.65,19.33 24.52,20.66 C 23.52,21.84 23.33,22.94 23.77,23.69 C 23.42,25.36 23.71,26.7 25.52,27.1 C 27.36,27.5 29.89,26.59 31.18,25.07 C 32.18,23.89 32.13,22.95 32.02,21.96 C 31.96,20.13 32,19.03 30.18,18.63 C 29.95,18.58 29.71,18.55 29.46,18.54 L 29.46,18.54 z" id="p4109" style="fill:#3c003b;fill-opacity:1;fill-rule:nonzero;stroke:#3c003b;stroke-width:0.60;stroke-linecap:round;stroke-linejoin:miter;marker:none;stroke-miterlimit:4;stroke-dasharray:none;stroke-dashoffset:0;stroke-opacity:1;visibility:visible;display:inline;overflow:visible;enable-background:accumulate"/>
<path d="M 33.27,7.66 L 18.77,14.91 C 18.77,17.59 18.77,20.19 18.77,21.54 L 26.4,25.35 L 40.9,18.1 C 40.9,15.85 40.9,13.14 40.9,11.47 L 33.27,7.66 z" id="p2993-7-9-8" style="fill:#be00b6;fill-opacity:1;stroke:none;display:inline"/>
<path d="M 39.77,12.88 L 27.27,19.13 L 27.27,23.47 L 39.77,17.22 L 39.77,12.88 z" id="p2993-7-9-8-8-5" style="fill:#fe3aff;fill-opacity:1;stroke:none;display:inline"/>
<path d="M 22.06,13.25 L 18.77,14.91 L 18.77,21.54 L 26.37,25.35 L 26.37,17.29 L 26.46,16.97 L 22.06,13.25 z" id="p4170" style="fill:#7e007f;fill-opacity:1;stroke:none"/>
<path d="M 26.36,18.74 L 26.36,24.98" id="p5148" style="fill:none;stroke:#d838d5;stroke-width:0.5;stroke-linecap:butt;stroke-linejoin:miter;marker:none;stroke-miterlimit:4;stroke-dasharray:none;stroke-dashoffset:0;stroke-opacity:1;visibility:visible;display:inline;overflow:visible;enable-background:accumulate"/>
<path d="M 33.27,7.66 L 18.77,14.91 L 26.4,18.72 L 40.9,11.47 L 33.27,7.66 z" id="p2993-7-9-8-8" style="fill:#fe3aff;fill-opacity:1;stroke:none;display:inline"/>
<path d="M 18.77,14.91 L 26.4,18.72 L 40.9,11.47" id="p2993-7-9-8-8-57" style="fill:none;stroke:#ec85ef;stroke-width:0.5;stroke-linecap:butt;stroke-linejoin:bevel;marker:none;stroke-miterlimit:4;stroke-dasharray:none;stroke-dashoffset:0;stroke-opacity:1;visibility:visible;display:inline;overflow:visible;enable-background:accumulate"/>
<path d="M 33.27,7.66 L 18.77,14.91 C 18.77,17.59 18.77,20.19 18.77,21.54 L 26.4,25.35 L 40.9,18.1 C 40.9,15.85 40.9,13.14 40.9,11.47 L 33.27,7.66 z" id="p2993-7-9-8-2" style="fill:none;stroke:#3c003b;stroke-width:1;stroke-linecap:butt;stroke-linejoin:miter;marker:none;stroke-miterlimit:4;stroke-dasharray:none;stroke-dashoffset:0;stroke-opacity:1;visibility:visible;display:inline;overflow:visible;enable-background:accumulate"/>
<path d="M 39.77,12.88 L 35.49,15.04 L 39.77,17.16 L 39.77,12.88 z" id="p2993-7-9-8-8-5-5" style="fill:#7e007f;fill-opacity:1;stroke:none;display:inline"/>
<path d="M 27.28,31.43 L 35.79,27.19" id="p5229-8" style="fill:none;stroke:#ff7bff;stroke-width:0.5;stroke-linecap:butt;stroke-linejoin:miter;stroke-miterlimit:4;stroke-dasharray:none;stroke-opacity:1;display:inline"/>
<path d="M 26.96,30.75 C 26.92,30.78 25.82,31.42 25.75,31.47 L 25.75,38.47 L 31.9,41.56 C 31.98,41.52 33.06,40.88 33.12,40.84 L 33.12,33.84 L 26.96,30.75 z" id="p4502-0-2" style="fill:#fe3aff;fill-opacity:1;stroke:none;display:inline"/>
<path d="M 33.12,33.94 L 25.75,38.19 L 25.75,38.47 L 31.9,41.56 C 31.98,41.52 33.06,40.88 33.12,40.84 L 33.12,33.94 z" id="p4925" style="fill:#be00b6;fill-opacity:1;fill-rule:nonzero;stroke:none;marker:none;visibility:visible;display:inline;overflow:visible;enable-background:accumulate"/>
<path d="M 25.75,31.47 L 25.75,38.47 L 31.9,41.56 L 31.9,34.56 L 25.75,31.47 z" id="p4502-0" style="fill:#7e007f;fill-opacity:1;stroke:none;display:inline"/>
<path d="M 27.4,30.97 L 35.91,26.73" id="p5229" style="fill:none;stroke:#390e3a;stroke-width:0.5;stroke-linecap:butt;stroke-linejoin:miter;stroke-miterlimit:4;stroke-dasharray:none;stroke-opacity:1"/>
<path d="M 26.17,38.71 L 31.9,41.56 C 31.98,41.52 33.06,40.88 33.12,40.84 L 33.12,33.84 L 26.96,30.75" id="p4502-0-2-0" style="fill:none;stroke:#3c003b;stroke-width:0.60;stroke-linecap:round;stroke-miterlimit:4;stroke-dasharray:none;stroke-opacity:1;display:inline"/>
<path d="M 36.57,25.97 C 36.52,26 35.42,26.64 35.35,26.69 L 35.35,33.69 L 41.5,36.78 C 41.58,36.74 42.66,36.1 42.72,36.06 L 42.72,29.06 L 36.57,25.97 z" id="p4502-0-2-4" style="fill:#fe3aff;fill-opacity:1;stroke:none;display:inline"/>
<path d="M 42.72,29.16 L 35.35,33.41 L 35.35,33.69 L 41.5,36.78 C 41.58,36.74 42.66,36.1 42.72,36.06 L 42.72,29.16 z" id="p4925-0" style="fill:#be00b6;fill-opacity:1;fill-rule:nonzero;stroke:none;marker:none;visibility:visible;display:inline;overflow:visible;enable-background:accumulate"/>
<path d="M 35.35,26.69 L 35.35,33.69 L 41.5,36.78 L 41.5,29.78 L 35.35,26.69 L 35.35,26.69 z" id="p4502-0-1" style="fill:#7e007f;fill-opacity:1;stroke:none;display:inline"/>
<path d="M 35.77,33.93 L 41.5,36.78 C 41.58,36.74 42.66,36.1 42.72,36.06 L 42.72,29.06 L 36.57,25.97" id="p4502-0-2-0-9" style="fill:none;stroke:#3c003b;stroke-width:0.60;stroke-linecap:round;stroke-miterlimit:4;stroke-dasharray:none;stroke-opacity:1;display:inline"/>
<path d="M 39.28,13.12 L 27.28,19.12 L 27.28,22.9 L 39.28,16.9 L 39.28,13.12 z" id="p2993-7-9-8-8-5-9" style="fill:#1a1a1a;fill-opacity:1;stroke:none;display:inline"/>
</g>
<g id="g2514">
<path d="M 10.31,29.11 C 9.63,29.14 9.06,29.58 8.44,29.82 C 7.4,30.28 6.52,30.75 5.53,31.2 C 4.97,31.47 4.37,31.71 3.81,31.98 C 2.87,32.66 3.01,34.01 3.44,34.95 C 3.94,36.2 4.93,37.18 6.09,37.76 C 8.13,38.72 10.22,39.77 12.19,40.89 C 13.3,41.57 14.78,42.13 16.03,41.45 C 17.91,40.52 19.88,39.7 21.72,38.79 C 22.84,38.04 23.01,36.47 22.69,35.26 C 22.1,33.04 20.34,31.04 18.06,30.48 C 17.27,30.28 16.37,30.18 15.53,30.01 C 13.79,29.72 12.05,29.35 10.31,29.11 L 10.31,29.11 z" id="p3881" style="fill:#ffc453;fill-opacity:1;fill-rule:nonzero;stroke:none;marker:none;visibility:visible;display:inline;overflow:visible;enable-background:accumulate"/>
<path d="M 7.8,32.45 L 13.57,29.72" id="p4084" style="fill:none;stroke:#975e29;stroke-width:0.40;stroke-linecap:butt;stroke-linejoin:miter;stroke-miterlimit:4;stroke-dasharray:none;stroke-opacity:1"/>
<path d="M 5.38,31.96 L 11.24,29.23" id="p4084-9" style="fill:none;stroke:#975e29;stroke-width:0.40;stroke-linecap:round;stroke-linejoin:miter;stroke-miterlimit:4;stroke-dasharray:none;stroke-opacity:1;display:inline"/>
<path d="M 11.12,33.01 L 16.59,30.42" id="p4082" style="fill:none;stroke:#975e29;stroke-width:0.5;stroke-linecap:round;stroke-linejoin:miter;stroke-miterlimit:4;stroke-dasharray:none;stroke-opacity:1"/>
<path d="M 21.56,32.92 L 15.43,35.82 C 15.43,35.82 12.77,37.99 10.4,39.92 C 11,40.24 11.6,40.56 12.18,40.89 C 13.3,41.57 14.78,42.13 16.02,41.45 C 16.83,41.07 17.65,40.69 18.46,40.29 C 18.49,40.28 18.52,40.27 18.56,40.26 C 18.64,40.22 18.72,40.18 18.81,40.14 C 18.85,40.12 18.89,40.13 18.93,40.11 C 19.85,39.68 20.79,39.24 21.71,38.79 C 22.83,38.04 23,36.47 22.68,35.26 C 22.46,34.43 22.07,33.63 21.56,32.92 z" id="p4122" style="fill:#df9e1f;fill-opacity:1;fill-rule:nonzero;stroke:none;marker:none;visibility:visible;display:inline;overflow:visible;enable-background:accumulate"/>
<path d="M 22.71,35.36 L 11.24,40.39 C 11.56,40.56 11.88,40.72 12.18,40.89 C 13.3,41.57 14.78,42.13 16.02,41.45 C 16.83,41.07 17.65,40.69 18.46,40.29 C 18.49,40.28 18.52,40.27 18.56,40.26 C 18.64,40.22 18.72,40.18 18.81,40.14 C 18.85,40.12 18.89,40.13 18.93,40.11 C 19.85,39.68 20.79,39.24 21.71,38.79 C 22.81,38.06 23,36.55 22.71,35.36 z" id="p4239" style="fill:#b77711;fill-opacity:1;stroke:none"/>
<path d="M 14.25,34.11 L 20.04,31.51" id="p4080" style="fill:none;stroke:#975e29;stroke-width:0.60;stroke-linecap:round;stroke-linejoin:miter;stroke-miterlimit:4;stroke-dasharray:none;stroke-opacity:1"/>
<path d="M 16.7,37.11 L 22.26,34.48" id="p4078-2" style="fill:none;stroke:#f1c057;stroke-width:0.69;stroke-linecap:butt;stroke-linejoin:miter;stroke-miterlimit:4;stroke-dasharray:none;stroke-opacity:1;display:inline"/>
<path d="M 16.47,36.73 L 22.03,34.11" id="p4078" style="fill:none;stroke:#975e29;stroke-width:0.69;stroke-linecap:butt;stroke-linejoin:miter;stroke-miterlimit:4;stroke-dasharray:none;stroke-opacity:1"/>
<path d="M 16.86,39.92 L 22.59,37.27" id="p4076-6" style="fill:none;stroke:#d6bb68;stroke-width:0.60;stroke-linecap:round;stroke-linejoin:miter;stroke-miterlimit:4;stroke-dasharray:none;stroke-opacity:1;display:inline"/>
<path d="M 16.83,39.47 L 22.56,36.81" id="p4076" style="fill:none;stroke:#975e29;stroke-width:0.60;stroke-linecap:round;stroke-linejoin:miter;stroke-miterlimit:4;stroke-dasharray:none;stroke-opacity:1"/>
<path d="M 4.75,31.68 C 4.43,31.68 4.14,31.77 3.88,31.93 C 2.84,32.58 2.87,34.3 3.91,35.77 C 4.47,36.57 5.06,37.19 5.73,37.56 L 12.07,40.81 C 12.34,41 12.63,41.14 12.91,41.27 C 14.06,41.83 15.22,41.94 16.1,41.4 C 17.67,40.42 17.65,37.82 16.07,35.59 C 15.06,34.17 13.66,33.26 12.38,33.02 L 12.38,32.99 C 12.12,32.97 5.14,31.7 4.88,31.68 C 4.86,31.68 4.84,31.68 4.82,31.68 C 4.8,31.68 4.77,31.68 4.75,31.68 L 4.75,31.68 z" id="p3881-5" style="fill:#945b00;fill-opacity:1;fill-rule:nonzero;stroke:none;marker:none;visibility:visible;display:inline;overflow:visible;enable-background:accumulate"/>
<path d="M 5.64,32.71 C 5.36,32.7 5.11,32.74 4.87,32.84 C 3.95,33.25 3.87,34.5 4.69,35.63 C 5.12,36.24 5.59,36.73 6.15,37.04 L 11.4,39.77 C 11.63,39.93 11.87,40.05 12.1,40.16 C 13.06,40.64 14.05,40.78 14.83,40.44 C 16.24,39.83 16.36,37.94 15.13,36.23 C 14.35,35.14 13.2,34.4 12.11,34.15 L 12.11,34.13 C 11.89,34.1 5.97,32.76 5.75,32.72 C 5.73,32.72 5.71,32.72 5.69,32.72 C 5.68,32.72 5.66,32.72 5.64,32.71 L 5.64,32.71 z" id="p3881-5-7" style="fill:#39200b;fill-opacity:1;fill-rule:nonzero;stroke:none;marker:none;visibility:visible;display:inline;overflow:visible;enable-background:accumulate"/>
<path d="M 6.41,32.89 C 6.43,33.34 6.62,33.81 6.97,34.29 C 7.41,34.9 7.88,35.39 8.44,35.7 L 13.69,38.45 C 13.91,38.61 14.14,38.71 14.37,38.82 C 14.87,39.07 15.39,39.25 15.87,39.29 C 16.15,38.44 15.89,37.3 15.12,36.23 C 14.34,35.14 13.21,34.39 12.12,34.14 C 11.93,34.11 7.55,33.13 6.41,32.89 L 6.41,32.89 z" id="p3881-5-7-4" style="fill:#643c1c;fill-opacity:1;fill-rule:nonzero;stroke:none;marker:none;visibility:visible;display:inline;overflow:visible;enable-background:accumulate"/>
<path d="M 10.31,29.11 C 9.63,29.14 9.06,29.58 8.44,29.82 C 7.4,30.28 6.52,30.75 5.53,31.2 C 4.97,31.47 4.37,31.71 3.81,31.98 C 2.87,32.66 3.01,34.01 3.44,34.95 C 3.94,36.2 4.93,37.18 6.09,37.76 C 8.13,38.72 10.22,39.77 12.19,40.89 C 13.3,41.57 14.78,42.13 16.03,41.45 C 17.94,40.52 19.9,39.68 21.72,38.79 C 22.84,38.04 23.01,36.47 22.69,35.26 C 22.1,33.04 20.34,31.04 18.06,30.48 C 17.27,30.28 16.37,30.18 15.53,30.01 C 13.79,29.72 12.05,29.35 10.31,29.11 L 10.31,29.11 z" id="p3881-6" style="fill:none;stroke:#2c1b06;stroke-width:0.69;marker:none;stroke-miterlimit:4;stroke-dasharray:none;stroke-opacity:1;visibility:visible;display:inline;overflow:visible;enable-background:accumulate"/>
<path d="M 7.43,33.11 C 7.2,33.2 6.91,33.35 6.65,33.45 C 6.06,33.81 6.06,34.78 6.65,35.61 C 7.24,36.44 8.19,36.81 8.77,36.45 C 9.07,36.32 9.3,36.21 9.56,36.11 C 10.14,35.74 10.14,34.78 9.56,33.95 C 9.42,33.76 9.25,33.62 9.09,33.48 C 8.53,33.36 7.99,33.23 7.43,33.11 L 7.43,33.11 z" id="p3881-7-3-7" style="fill:#707070;fill-opacity:1;fill-rule:nonzero;stroke:none;marker:none;visibility:visible;display:inline;overflow:visible;enable-background:accumulate"/>
<path d="M 8.75,36.15 C 8.18,36.51 7.25,36.14 6.68,35.34 C 6.10,34.53 6.10,33.59 6.66,33.23 C 7.23,32.88 8.16,33.24 8.74,34.05 C 9.31,34.85 9.32,35.79 8.75,36.15 L 8.75,36.15 z" id="p3881-7-3" style="fill:#363636;fill-opacity:1;fill-rule:nonzero;stroke:none;marker:none;visibility:visible;display:inline;overflow:visible;enable-background:accumulate"/>
<path d="M 12.99,34.45 C 12.9,34.48 12.79,34.49 12.71,34.54 C 12.4,34.67 12.03,34.88 11.68,35.01 C 10.89,35.5 10.89,36.8 11.68,37.92 C 12.47,39.04 13.76,39.57 14.56,39.07 C 14.96,38.9 15.24,38.74 15.59,38.61 C 15.73,38.52 15.87,38.4 15.96,38.26 C 15.89,37.62 15.6,36.91 15.12,36.23 C 14.55,35.43 13.79,34.82 12.99,34.45 z" id="p3881-7-3-7-7" style="fill:#707070;fill-opacity:1;fill-rule:nonzero;stroke:none;marker:none;visibility:visible;display:inline;overflow:visible;enable-background:accumulate"/>
<path d="M 14.41,38.93 C 13.63,39.40 12.37,38.88 11.59,37.76 C 10.81,36.64 10.82,35.34 11.60,34.87 C 12.38,34.40 13.65,34.92 14.42,36.04 C 15.20,37.16 15.19,38.46 14.41,38.93 L 14.41,38.93 z" id="p3881-7-3-8" style="fill:#363636;fill-opacity:1;fill-rule:nonzero;stroke:none;marker:none;visibility:visible;display:inline;overflow:visible;enable-background:accumulate"/>
<path d="M 7.43,33.11 C 7.2,33.2 6.91,33.35 6.65,33.45 C 6.06,33.81 6.06,34.78 6.65,35.61 C 7.24,36.44 8.19,36.81 8.77,36.45 C 9.07,36.32 9.3,36.21 9.56,36.11 C 10.14,35.74 10.14,34.78 9.56,33.95 C 9.42,33.76 9.25,33.62 9.09,33.48" id="p3881-7-3-7-9" style="fill:none;stroke:#191919;stroke-width:0.30;marker:none;stroke-miterlimit:4;stroke-dasharray:none;stroke-opacity:1;visibility:visible;display:inline;overflow:visible;enable-background:accumulate"/>
<path d="M 12.99,34.45 C 12.9,34.48 12.79,34.49 12.71,34.54 C 12.4,34.67 12.03,34.88 11.68,35.01 C 10.89,35.5 10.89,36.8 11.68,37.92 C 12.47,39.04 13.76,39.57 14.56,39.07 C 14.96,38.9 15.24,38.74 15.59,38.61 C 15.73,38.52 15.87,38.4 15.96,38.26" id="p3881-7-3-7-7-7" style="fill:none;stroke:#191919;stroke-width:0.30;marker:none;stroke-miterlimit:4;stroke-dasharray:none;stroke-opacity:1;visibility:visible;display:inline;overflow:visible;enable-background:accumulate"/>
<path d="M 5.64,32.71 C 5.36,32.7 5.11,32.74 4.87,32.84 C 3.95,33.25 3.87,34.5 4.69,35.63 C 5.12,36.24 5.59,36.73 6.15,37.04 L 11.4,39.77 C 11.63,39.93 11.87,40.05 12.1,40.16 C 13.06,40.64 14.05,40.78 14.83,40.44 C 16.24,39.83 16.36,37.94 15.13,36.23 C 14.35,35.14 13.2,34.4 12.11,34.15 C 10.04,33.67 7.86,33.17 5.75,32.72 C 5.73,32.72 5.71,32.72 5.69,32.72 C 5.68,32.72 5.66,32.72 5.64,32.71 L 5.64,32.71 z" id="p3881-5-7-8" style="fill:none;stroke:#2c1b06;stroke-width:0.30;marker:none;stroke-miterlimit:4;stroke-dasharray:none;stroke-opacity:1;visibility:visible;display:inline;overflow:visible;enable-background:accumulate"/>
<path d="M 8.30,35.71 C 8.00,35.91 7.49,35.71 7.17,35.25 C 6.86,34.79 6.85,34.25 7.16,34.04 C 7.47,33.84 7.97,34.05 8.29,34.51 C 8.61,34.97 8.61,35.50 8.30,35.71 L 8.30,35.71 z" id="p3881-7-3-1" style="fill:#535353;fill-opacity:1;fill-rule:nonzero;stroke:none;marker:none;visibility:visible;display:inline;overflow:visible;enable-background:accumulate"/>
<path d="M 7.43,34.04 C 7.28,34.3 7.32,34.7 7.59,35.07 C 7.83,35.42 8.16,35.63 8.46,35.64 C 8.47,35.64 8.48,35.64 8.49,35.64 C 8.63,35.38 8.56,34.94 8.31,34.57 C 8.07,34.24 7.72,34.06 7.43,34.04 L 7.43,34.04 z" id="p3881-7-3-1-6" style="fill:#202020;fill-opacity:1;fill-rule:nonzero;stroke:none;marker:none;visibility:visible;display:inline;overflow:visible;enable-background:accumulate"/>
</g>
<path d="M 39.28,14.47 L 27.28,20.53 L 27.28,21.62 L 39.28,15.56 L 39.28,14.47 z" id="p5068" style="fill:#900000;fill-opacity:1;stroke:none;marker:none;visibility:visible;display:inline"/>
<path d="M 35.24,17.1 L 38.09,15.62" id="p5093" style="fill:none;stroke:#ff0b0b;stroke-width:1.38;stroke-linecap:round;stroke-linejoin:miter;stroke-miterlimit:4;stroke-dasharray:none;stroke-opacity:1"/>
<path d="M 29.09,20.2 L 31.95,18.73" id="p5093-1" style="fill:none;stroke:#ff0b0b;stroke-width:1.38;stroke-linecap:round;stroke-linejoin:miter;stroke-miterlimit:4;stroke-dasharray:none;stroke-opacity:1;display:inline"/>
</svg>
