<?xml version="1.0" encoding="UTF-8" standalone="no"?>
<!-- Created with Inkscape (http://www.inkscape.org/) -->
<svg xmlns:dc="http://purl.org/dc/elements/1.1/" xmlns:cc="http://creativecommons.org/ns#" xmlns:rdf="http://www.w3.org/1999/02/22-rdf-syntax-ns#" xmlns:svg="http://www.w3.org/2000/svg" xmlns="http://www.w3.org/2000/svg" version="1.0" width="100%" height="100%" viewBox="0 0 96 48" id="svg2383">
<defs id="defs2385" />
<rect width="91.84" height="46.61" x="1.99" y="0.95" id="r2472" style="fill:#fafafc;" />
<path d="m 56.35,0.96 0,46.63 18.94,0 0,-46.63 -18.94,0 z" id="p3280" style="fill:#636364;fill-rule:evenodd;stroke:none" />
<path d="m 56.35,3.34 0,42.09 27.62,0 0,-42.09 -27.62,0 z" id="p3276" style="fill:#6d6f96;fill-opacity:0.47;fill-rule:evenodd;stroke:none" />
<path d="m 88.30,14.44 c -4.64,0 -8.39,3.78 -8.39,8.43 0,4.64 3.74,8.39 8.39,8.39 2.10,0 4.03,-0.77 5.50,-2.05 l 0,-12.72 c -1.47,-1.28 -3.40,-2.05 -5.50,-2.05 z" id="p3338" style="fill:#fafafc;fill-opacity:0.54;" />
<path d="m 93.34,23.01 a 5.14,5.14 0 0 1 -10.28,0 5.14,5.14 0 1 1 10.28,0 z" id="p3345" style="fill:#8e8bb1;" />
<path d="m 70.34,16.82 c -0.03,0 -0.95,2.69 -0.97,2.72 -0.02,0.01 -2.87,0.05 -2.88,0.09 -0.01,0.02 2.27,1.74 2.28,1.76 0,0.02 -0.82,2.75 -0.80,2.76 0.02,0.02 2.35,-1.61 2.38,-1.61 0.02,0 2.36,1.63 2.38,1.61 0.02,-0.01 -0.81,-2.74 -0.80,-2.76 0.01,-0.02 2.29,-1.74 2.28,-1.76 -0.01,-0.03 -2.85,-0.08 -2.88,-0.09 -0.02,-0.02 -0.95,-2.72 -0.97,-2.72 z" id="p3328" style="fill:#fafafc;" />
<path d="m 4.24,3.52 4.95,0 0,1.61 -3.36,0 -0.17,1.09 C 5.89,6.11 6.11,6.04 6.34,5.99 6.57,5.93 6.80,5.91 7.02,5.91 c 0.75,0 1.36,0.21 1.82,0.65 0.46,0.44 0.69,0.99 0.69,1.67 0,0.46 -0.11,0.91 -0.36,1.35 -0.23,0.42 -0.58,0.76 -1.02,0.99 -0.44,0.22 -1.00,0.33 -1.69,0.33 -0.48,0 -0.91,-0.04 -1.26,-0.13 C 4.84,10.70 4.54,10.57 4.28,10.39 4.04,10.21 3.84,10.00 3.69,9.78 3.54,9.54 3.41,9.26 3.31,8.92 L 5.41,8.69 c 0.05,0.32 0.17,0.57 0.36,0.75 0.18,0.16 0.40,0.24 0.67,0.24 0.29,0 0.52,-0.10 0.71,-0.31 0.19,-0.21 0.29,-0.54 0.29,-0.96 0,-0.44 -0.09,-0.75 -0.29,-0.96 C 6.97,7.26 6.72,7.17 6.40,7.17 6.19,7.17 6.01,7.21 5.81,7.30 5.67,7.37 5.52,7.51 5.35,7.69 L 3.57,7.44 4.24,3.52" id="text3256" style="fill:#8e8bb1;" />
<path d="m 5.02,36.48 4.95,0 0,2.04 -3.36,0 -0.17,1.38 c 0.22,-0.13 0.45,-0.24 0.68,-0.30 0.22,-0.06 0.45,-0.10 0.68,-0.10 0.74,0 1.35,0.27 1.82,0.83 0.46,0.55 0.70,1.25 0.70,2.10 0,0.59 -0.12,1.16 -0.36,1.71 -0.23,0.54 -0.58,0.96 -1.02,1.25 -0.44,0.29 -1.00,0.43 -1.70,0.43 -0.49,0 -0.92,-0.05 -1.27,-0.16 C 5.62,45.56 5.32,45.39 5.07,45.16 4.82,44.93 4.62,44.67 4.47,44.38 4.31,44.09 4.19,43.74 4.08,43.30 l 2.11,-0.29 c 0.05,0.41 0.16,0.73 0.35,0.95 0.18,0.21 0.41,0.31 0.67,0.31 0.29,0 0.52,-0.12 0.71,-0.39 0.19,-0.27 0.29,-0.68 0.29,-1.21 0,-0.54 -0.09,-0.95 -0.29,-1.20 -0.18,-0.25 -0.44,-0.38 -0.75,-0.38 -0.20,0 -0.40,0.06 -0.59,0.17 -0.13,0.08 -0.29,0.25 -0.45,0.48 L 4.35,41.43 5.02,36.48" id="text3260" style="fill:#636364;" />
<path d="m 68.13,8.72 c -0.03,0 -0.95,2.69 -0.97,2.72 -0.02,0.01 -2.87,0.05 -2.88,0.09 -0.01,0.02 2.27,1.74 2.28,1.76 0,0.02 -0.82,2.75 -0.80,2.76 0.02,0.02 2.35,-1.61 2.38,-1.61 0.02,0 2.36,1.63 2.38,1.61 0.02,-0.01 -0.81,-2.74 -0.80,-2.76 0.01,-0.02 2.29,-1.74 2.28,-1.76 -0.01,-0.03 -2.85,-0.08 -2.88,-0.09 -0.02,-0.02 -0.95,-2.72 -0.97,-2.72 z" id="p3330" style="fill:#fafafc;" />
<path d="m 68.44,3.70 10.00,0 0,4.19 -6.77,0 -0.35,2.84 c 0.46,-0.28 0.92,-0.48 1.38,-0.62 0.46,-0.14 0.91,-0.20 1.36,-0.20 1.51,0 2.74,0.57 3.69,1.71 0.94,1.15 1.41,2.58 1.41,4.32 0,1.21 -0.24,2.39 -0.73,3.52 -0.48,1.12 -1.16,1.99 -2.06,2.58 -0.89,0.58 -2.03,0.89 -3.42,0.89 -1.00,0 -1.85,-0.11 -2.57,-0.35 -0.70,-0.23 -1.32,-0.58 -1.82,-1.04 -0.49,-0.47 -0.89,-1.01 -1.21,-1.60 -0.30,-0.60 -0.56,-1.34 -0.76,-2.22 l 4.25,-0.57 c 0.10,0.84 0.34,1.49 0.72,1.94 0.37,0.43 0.83,0.66 1.35,0.66 0.58,0 1.06,-0.28 1.44,-0.83 0.38,-0.56 0.58,-1.39 0.58,-2.49 0,-1.12 -0.19,-1.94 -0.58,-2.47 -0.38,-0.52 -0.90,-0.79 -1.53,-0.79 -0.41,0 -0.80,0.12 -1.17,0.37 -0.28,0.19 -0.59,0.51 -0.93,0.98 L 67.10,13.88 68.44,3.70" id="text3264" style="fill:#424041;stroke:#e5e5e5;stroke-width:0.49;stroke-linecap:butt;stroke-linejoin:miter;stroke-miterlimit:4;" />
<rect width="10.81" height="7.12" x="11.20" y="3.66" id="r3272" style="fill:#585083;" />
<path d="m 28.50,0.96 0,46.63 27.84,0 0,-46.63 -27.84,0 z" id="p3274" style="fill:#8e8bb1;fill-rule:evenodd;stroke:none" />
<path d="m 24.38,42.15 0,3.27 59.60,0 0,-3.27 -59.60,0 z" id="p3278" style="fill:#6d6f96;fill-rule:evenodd;stroke:none" />
<path d="m 35.67,16.82 c 0.03,0 0.95,2.69 0.97,2.72 0.02,0.01 2.87,0.05 2.88,0.09 0.01,0.02 -2.27,1.74 -2.28,1.76 0,0.02 0.82,2.75 0.80,2.76 -0.02,0.02 -2.35,-1.61 -2.38,-1.61 -0.02,0 -2.36,1.63 -2.38,1.61 -0.02,-0.01 0.81,-2.74 0.80,-2.76 -0.01,-0.02 -2.29,-1.74 -2.28,-1.76 0.01,-0.03 2.85,-0.08 2.88,-0.09 0.02,-0.02 0.95,-2.72 0.97,-2.72 z" id="p3284" style="fill:#fafafc;" />
<path d="m 37.87,8.72 c 0.03,0 0.95,2.69 0.97,2.72 0.02,0.01 2.87,0.05 2.88,0.09 0.01,0.02 -2.27,1.74 -2.28,1.76 0,0.02 0.82,2.75 0.80,2.76 -0.02,0.02 -2.35,-1.61 -2.38,-1.61 -0.02,0 -2.36,1.63 -2.38,1.61 -0.02,-0.01 0.81,-2.74 0.80,-2.76 -0.01,-0.02 -2.29,-1.74 -2.28,-1.76 0.01,-0.03 2.85,-0.08 2.88,-0.09 0.02,-0.02 0.95,-2.72 0.97,-2.72 z" id="p3286" style="fill:#fafafc;" />
<path d="m 44.27,2.82 c 0.03,0 0.95,2.69 0.97,2.72 0.02,0.01 2.87,0.05 2.88,0.09 0.01,0.02 -2.27,1.74 -2.28,1.76 0,0.02 0.82,2.75 0.80,2.76 -0.02,0.02 -2.35,-1.61 -2.38,-1.61 -0.02,0 -2.36,1.63 -2.38,1.61 -0.02,-0.01 0.81,-2.74 0.80,-2.76 -0.01,-0.02 -2.29,-1.74 -2.28,-1.76 0.01,-0.03 2.85,-0.08 2.88,-0.09 0.02,-0.02 0.95,-2.72 0.97,-2.72 z" id="p3288" style="fill:#fafafc;" />
<path d="m 52.63,0.84 c 0.03,0 0.95,2.69 0.97,2.72 0.02,0.01 2.87,0.05 2.88,0.09 0.01,0.02 -2.27,1.74 -2.28,1.76 0,0.02 0.82,2.75 0.80,2.76 -0.02,0.02 -2.35,-1.61 -2.38,-1.61 -0.02,0 -2.36,1.63 -2.38,1.61 -0.02,-0.01 0.81,-2.74 0.80,-2.76 -0.01,-0.02 -2.29,-1.74 -2.28,-1.76 0.01,-0.03 2.85,-0.08 2.88,-0.09 0.02,-0.02 0.95,-2.72 0.97,-2.72 z" id="p3290" style="fill:#fafafc;" />
<path d="m 61.61,2.69 c 0.03,0 0.95,2.69 0.97,2.72 0.02,0.01 2.87,0.05 2.88,0.09 0.01,0.02 -2.27,1.74 -2.28,1.76 0,0.02 0.82,2.75 0.80,2.76 -0.02,0.02 -2.35,-1.61 -2.38,-1.61 -0.02,0 -2.36,1.63 -2.38,1.61 -0.02,-0.01 0.81,-2.74 0.80,-2.76 -0.01,-0.02 -2.29,-1.74 -2.28,-1.76 0.01,-0.03 2.85,-0.08 2.88,-0.09 0.02,-0.02 0.95,-2.72 0.97,-2.72 z" id="p3292" style="fill:#fafafc;" />
<path d="m 37.87,25.56 c 0.03,0 0.95,2.69 0.97,2.72 0.02,0.01 2.87,0.05 2.88,0.09 0.01,0.02 -2.27,1.74 -2.28,1.76 0,0.02 0.82,2.75 0.80,2.76 -0.02,0.02 -2.35,-1.61 -2.38,-1.61 -0.02,0 -2.36,1.63 -2.38,1.61 -0.02,-0.01 0.81,-2.74 0.80,-2.76 -0.01,-0.02 -2.29,-1.74 -2.28,-1.76 0.01,-0.03 2.85,-0.08 2.88,-0.09 0.02,-0.02 0.95,-2.72 0.97,-2.72 z" id="p3294" style="fill:#fafafc;" />
<path d="m 44.40,31.59 c 0.03,0 0.95,2.69 0.97,2.72 0.02,0.01 2.87,0.05 2.88,0.09 0.01,0.02 -2.27,1.74 -2.28,1.76 0,0.02 0.82,2.75 0.80,2.76 -0.02,0.02 -2.35,-1.61 -2.38,-1.61 -0.02,0 -2.36,1.63 -2.38,1.61 -0.02,-0.01 0.81,-2.74 0.80,-2.76 -0.01,-0.02 -2.29,-1.74 -2.28,-1.76 0.01,-0.03 2.85,-0.08 2.88,-0.09 0.02,-0.02 0.95,-2.72 0.97,-2.72 z" id="p3296" style="fill:#fafafc;" />
<path d="m 53.00,33.93 c 0.03,0 0.95,2.69 0.97,2.72 0.02,0.01 2.87,0.05 2.88,0.09 0.01,0.02 -2.27,1.74 -2.28,1.76 0,0.02 0.82,2.75 0.80,2.76 -0.02,0.02 -2.35,-1.61 -2.38,-1.61 -0.02,0 -2.36,1.63 -2.38,1.61 -0.02,-0.01 0.81,-2.74 0.80,-2.76 -0.01,-0.02 -2.29,-1.74 -2.28,-1.76 0.01,-0.03 2.85,-0.08 2.88,-0.09 0.02,-0.02 0.95,-2.72 0.97,-2.72 z" id="p3298" style="fill:#fafafc;" />
<path d="m 61.85,31.72 c 0.03,0 0.95,2.69 0.97,2.72 0.02,0.01 2.87,0.05 2.88,0.09 0.01,0.02 -2.27,1.74 -2.28,1.76 0,0.02 0.82,2.75 0.80,2.76 -0.02,0.02 -2.35,-1.61 -2.38,-1.61 -0.02,0 -2.36,1.63 -2.38,1.61 -0.02,-0.01 0.81,-2.74 0.80,-2.76 -0.01,-0.02 -2.29,-1.74 -2.28,-1.76 0.01,-0.03 2.85,-0.08 2.88,-0.09 0.02,-0.02 0.95,-2.72 0.97,-2.72 z" id="p3300" style="fill:#fafafc;" />
<path d="m 67.88,25.93 c 0.03,0 0.95,2.69 0.97,2.72 0.02,0.01 2.87,0.05 2.88,0.09 0.01,0.02 -2.27,1.74 -2.28,1.76 0,0.02 0.82,2.75 0.80,2.76 -0.02,0.02 -2.35,-1.61 -2.38,-1.61 -0.02,0 -2.36,1.63 -2.38,1.61 -0.02,-0.01 0.81,-2.74 0.80,-2.76 -0.01,-0.02 -2.29,-1.74 -2.28,-1.76 0.01,-0.03 2.85,-0.08 2.88,-0.09 0.02,-0.02 0.95,-2.72 0.97,-2.72 z" id="p3302" style="fill:#fafafc;" />
<path d="m 86.87,3.04 3.44,0 0,1.11 -2.33,0 -0.12,0.76 c 0.16,-0.06 0.32,-0.12 0.48,-0.16 0.16,-0.03 0.31,-0.05 0.47,-0.05 0.51,0 0.94,0.14 1.26,0.46 0.32,0.29 0.48,0.69 0.48,1.15 0,0.32 -0.08,0.64 -0.25,0.94 -0.16,0.29 -0.40,0.53 -0.71,0.69 -0.29,0.16 -0.69,0.23 -1.17,0.23 -0.34,0 -0.63,-0.02 -0.88,-0.09 C 87.29,8.03 87.08,7.94 86.91,7.81 86.73,7.68 86.59,7.53 86.49,7.38 86.37,7.22 86.29,7.03 86.21,6.78 l 1.47,-0.14 c 0.03,0.21 0.11,0.40 0.24,0.51 0.13,0.11 0.28,0.17 0.47,0.17 0.19,0 0.36,-0.06 0.49,-0.21 0.13,-0.14 0.20,-0.36 0.20,-0.66 0,-0.29 -0.06,-0.51 -0.20,-0.65 -0.12,-0.13 -0.31,-0.21 -0.53,-0.21 -0.13,0 -0.27,0.03 -0.40,0.10 -0.10,0.04 -0.20,0.13 -0.32,0.26 L 86.41,5.76 86.87,3.04" id="p3332" style="fill:#8e8bb1;" />
<path d="m 86.87,39.23 3.44,0 0,1.13 -2.33,0 -0.12,0.74 c 0.16,-0.06 0.32,-0.12 0.48,-0.16 0.16,-0.03 0.31,-0.05 0.47,-0.05 0.51,0 0.94,0.16 1.26,0.46 0.32,0.31 0.48,0.69 0.48,1.15 0,0.33 -0.08,0.64 -0.25,0.94 -0.16,0.29 -0.40,0.53 -0.71,0.69 -0.29,0.16 -0.69,0.24 -1.17,0.24 -0.34,0 -0.63,-0.03 -0.88,-0.09 -0.24,-0.06 -0.44,-0.16 -0.62,-0.28 -0.17,-0.12 -0.31,-0.26 -0.41,-0.42 -0.11,-0.16 -0.19,-0.35 -0.27,-0.59 l 1.47,-0.14 c 0.03,0.23 0.11,0.40 0.24,0.51 0.13,0.11 0.28,0.17 0.47,0.17 0.19,0 0.36,-0.06 0.49,-0.21 0.13,-0.14 0.20,-0.36 0.20,-0.66 0,-0.29 -0.06,-0.51 -0.20,-0.65 -0.12,-0.13 -0.31,-0.20 -0.53,-0.20 -0.13,0 -0.27,0.03 -0.40,0.09 -0.10,0.05 -0.20,0.13 -0.32,0.26 L 86.41,41.95 86.87,39.23" id="p3334" style="fill:#8e8bb1;" />
<path d="m 86.87,19.55 3.44,0 0,1.60 -2.33,0 -0.12,1.09 c 0.16,-0.10 0.32,-0.18 0.48,-0.24 0.16,-0.04 0.31,-0.08 0.47,-0.08 0.51,0 0.94,0.21 1.26,0.65 0.32,0.44 0.48,0.99 0.48,1.66 0,0.47 -0.08,0.92 -0.25,1.34 -0.16,0.43 -0.40,0.77 -0.71,0.99 -0.29,0.23 -0.69,0.34 -1.17,0.34 -0.34,0 -0.63,-0.04 -0.88,-0.13 -0.24,-0.09 -0.44,-0.21 -0.62,-0.40 -0.17,-0.18 -0.31,-0.38 -0.41,-0.61 -0.11,-0.23 -0.19,-0.50 -0.27,-0.85 l 1.47,-0.21 c 0.03,0.32 0.11,0.57 0.24,0.74 0.13,0.16 0.28,0.24 0.47,0.24 0.19,0 0.36,-0.10 0.49,-0.31 0.13,-0.21 0.20,-0.53 0.20,-0.95 0,-0.42 -0.06,-0.74 -0.20,-0.94 -0.12,-0.20 -0.31,-0.29 -0.53,-0.29 -0.13,0 -0.27,0.04 -0.40,0.13 -0.10,0.06 -0.20,0.19 -0.32,0.38 L 86.41,23.45 86.87,19.55" id="p3336" style="fill:#fafafc;" />
<rect width="91.84" height="46.61" x="1.99" y="0.95" id="r3343" style="fill:none;stroke:#646464;stroke-width:0.5;stroke-linecap:round;stroke-linejoin:round;stroke-miterlimit:4;" />
<path d="m 23.93,3.95 c 0.43,0.04 0.92,-0.12 1.30,0.16 0.58,0.85 -0.47,1.07 -0.77,1.22 0.04,0.42 0.03,0.78 -0.40,0.62 -0.26,-0.04 -0.04,-0.66 -0.12,-0.95 0,-0.34 0,-0.70 0,-1.04 z m 0.53,0.85 c 0.85,0.14 -0.05,-0.96 0,-0.14 0,0.05 0,0.10 0,0.14 z M 25.49,5.24 C 25.48,3.92 27.43,4.50 26.80,5.66 26.45,6.25 25.46,6.03 25.49,5.24 l 0,0 z m 0.47,-0.01 c 0.58,1.49 0.56,-1.44 0,0 l 0,0 z m 2.45,0.72 c -0.54,0.06 -0.38,-0.32 -0.88,0.03 -0.59,-0.06 -0.36,-0.91 -0.41,-1.40 0.14,-0.20 0.66,-0.12 0.47,0.33 -0.17,0.68 0.48,0.81 0.35,0.04 -0.16,-0.47 0.25,-0.58 0.47,-0.40 0,0.47 0,0.93 0,1.39 z m 0.80,-1.45 c 0.44,-0.05 0.13,0.49 0,0.53 -0.08,0.27 0.17,0.94 -0.14,0.92 C 28.62,6.14 28.78,5.57 28.76,5.24 28.87,4.89 28.33,4.74 28.69,4.50 28.61,4.05 29.69,3.50 29.51,4.28 c -0.13,-0.05 -0.32,0 -0.27,0.21 z m 0.42,-0.55 c 0.42,0.04 0.91,-0.12 1.29,0.16 0.58,0.85 -0.47,1.07 -0.77,1.22 0.04,0.42 0.03,0.78 -0.40,0.62 -0.26,-0.04 -0.04,-0.66 -0.11,-0.95 0,-0.34 0,-0.70 0,-1.04 z m 0.51,0.85 c 0.85,0.14 -0.04,-0.96 0,-0.14 0,0.05 0,0.10 0,0.14 z m 1.03,0.43 c 0,-1.31 1.94,-0.73 1.30,0.42 -0.33,0.58 -1.32,0.36 -1.30,-0.42 l 0,0 z m 0.47,-0.01 c 0.58,1.49 0.56,-1.44 0,0 l 0,0 z m 2.45,0.72 c -0.54,0.06 -0.38,-0.32 -0.87,0.03 -0.59,-0.06 -0.36,-0.91 -0.41,-1.40 0.13,-0.20 0.65,-0.12 0.47,0.33 -0.17,0.68 0.47,0.81 0.34,0.04 -0.16,-0.47 0.26,-0.58 0.47,-0.40 0,0.47 0,0.93 0,1.39 z m 0.80,-1.45 c 0.46,-0.05 0.14,0.49 0,0.53 -0.06,0.27 0.17,0.94 -0.14,0.92 C 34.35,6.14 34.51,5.57 34.48,5.24 34.59,4.89 34.05,4.74 34.40,4.50 34.33,4.05 35.42,3.50 35.22,4.28 c -0.13,-0.05 -0.32,0 -0.27,0.21 z m 0.42,-0.55 c 0.43,0.04 0.91,-0.12 1.30,0.16 0.57,0.85 -0.47,1.07 -0.77,1.22 0.04,0.42 0.03,0.78 -0.40,0.62 -0.26,-0.04 -0.05,-0.66 -0.12,-0.95 0,-0.34 0,-0.70 0,-1.04 z m 0.53,0.85 c 0.84,0.14 -0.05,-0.96 0,-0.14 0,0.05 0,0.10 0,0.14 z m 1.15,-0.29 c 0.51,-0.11 0.36,0.35 0.73,-0.03 0.62,0.35 -0.57,0.48 -0.26,1.18 0.20,0.41 -0.54,0.43 -0.47,0.12 0,-0.42 0,-0.85 0,-1.28 z m 1.02,0.73 C 38.07,3.92 40.02,4.50 39.38,5.66 39.05,6.25 38.05,6.03 38.08,5.24 l 0,0 z m 0.47,-0.01 c 0.58,1.49 0.56,-1.44 0,0 l 0,0 z m 2.45,-1.28 c 0,0.66 0,1.33 0,2.00 -0.51,0.09 -0.38,-0.31 -0.84,0.03 -0.97,-0.10 -0.36,-2.13 0.36,-1.40 -0.04,-0.41 -0.04,-0.79 0.40,-0.63 l 0.04,0 0.02,0 z m -0.47,1.28 c -0.55,-1.33 -0.47,1.33 0,0 l 0,0 z m 2.05,0.72 c -0.54,0.06 -0.38,-0.32 -0.88,0.03 -0.59,-0.06 -0.35,-0.91 -0.41,-1.40 0.14,-0.20 0.66,-0.12 0.47,0.33 -0.17,0.68 0.48,0.81 0.35,0.04 -0.16,-0.47 0.25,-0.58 0.47,-0.40 0,0.47 0,0.93 0,1.39 z M 43.79,5.39 C 44.81,5.34 43.44,6.51 43.01,5.81 42.07,4.73 44.19,3.90 44.11,4.98 43.72,5.05 43.08,4.63 43.36,5.53 c 0.12,0.17 0.39,0.09 0.42,-0.13 l 0,0 z M 45.02,3.95 c -0.14,0.51 0.18,0.47 0.25,0.73 -0.01,0.33 -0.42,0.18 -0.25,0.73 0.19,0.06 0.51,0.65 -0.04,0.56 C 44.25,6.16 44.81,4.89 44.37,4.90 44.34,4.48 44.52,4.44 44.68,4.15 44.79,4.08 44.90,4.02 45.02,3.95 z m 0.49,0 c 0.31,-0.17 0.70,0.18 0.36,0.38 -0.32,0.01 -0.42,0.08 -0.36,-0.38 z m 0,0.55 c 0.39,-0.10 0.56,0.05 0.47,0.54 -0.08,0.27 0.17,0.93 -0.14,0.91 -0.46,0.18 -0.29,-0.38 -0.32,-0.71 0,-0.25 0,-0.49 0,-0.73 z m 0.71,0.73 C 46.22,3.92 48.17,4.50 47.53,5.66 47.20,6.25 46.19,6.03 46.23,5.24 l 0,0 z m 0.47,-0.01 c 0.58,1.49 0.56,-1.44 0,0 l 0,0 z m 1.16,-0.72 c 0.54,-0.06 0.38,0.32 0.87,-0.03 0.61,0.06 0.36,0.91 0.41,1.40 -0.13,0.20 -0.65,0.12 -0.47,-0.33 0.18,-0.66 -0.47,-0.81 -0.34,-0.03 0.16,0.46 -0.26,0.57 -0.47,0.39 0,-0.46 0,-0.93 0,-1.39 z" id="text3347" style="fill:#424041;" />
<path d="m 23.33,6.54 26.86,0" id="p3353" style="fill:none;stroke:#252525;stroke-width:0.09;stroke-linecap:butt;stroke-linejoin:miter;stroke-miterlimit:4;stroke-dasharray:none" />
</svg>