<?xml version="1.0" encoding="UTF-8" standalone="no"?>
<!-- Created with Inkscape (http://www.inkscape.org/) -->
<svg xmlns:dc="http://purl.org/dc/elements/1.1/" xmlns:cc="http://creativecommons.org/ns#" xmlns:rdf="http://www.w3.org/1999/02/22-rdf-syntax-ns#" xmlns:svg="http://www.w3.org/2000/svg" xmlns="http://www.w3.org/2000/svg" version="1.0" width="100%" height="100%" viewBox="0 0 96 48" id="svg2383">
<defs id="defs2385" />
<rect width="90.01" height="47.42" x="3.02" y="0.28" id="r2472" style="fill:#ece7df;" />
<path d="m 66.21,3.78 0,15.09 26.81,0 0,-15.09 -26.81,0 z" id="rect4028" style="color:#000000;fill:#ed8b6c;stroke-width:0.54;marker:none;" />
<path d="m 24.71,0.26 0,47.44 52.99,0 0,-47.44 -52.99,0 z" id="path3264" style="fill:#cfb8a3;fill-rule:evenodd;stroke:none" />
<path d="m 59.48,0.26 0,47.44 18.22,0 0,-47.44 -18.22,0 z" id="path3273" style="fill:#f2a894;fill-rule:evenodd;stroke:none" />
<path d="m 68.09,13.15 -12.84,11.25 0,23.31 25.68,0 0,-23.31 -12.84,-11.25 z" id="rect4065" style="color:#000000;fill:#b58475;fill-opacity:0.62;fill-rule:nonzero;stroke-width:0.54;marker:none;" />
<path d="m 24.71,17.15 0,30.56 53,0 0,-30.56 -53,0 z" id="rect4038" style="color:#000000;fill:#e0e2a2;fill-opacity:0.26;fill-rule:nonzero;stroke-width:0.54;marker:none;" />
<path d="m 24.71,1.31 0,23.71 c 1.49,-0.61 3.12,-0.96 4.84,-0.96 7.01,0 12.65,5.66 12.65,12.68 l 0,10.96 9.53,0 12.21,0 3.59,0 0,-21.65 L 63.96,24 l 0,-11.59 -12.21,0 0,4.53 -27.03,-15.62 z" id="rect4033" style="color:#000000;fill:#a9857a;fill-opacity:0.43;fill-rule:nonzero;stroke-width:0.54;marker:none;" />
<path d="m 54.75,5.45 0,12.96 5.46,-3.15 0,-9.81 -5.46,0 z" id="rect4043" style="color:#000000;fill:#e27b44;stroke-width:0.54;marker:none;" />
<path d="m 68.33,20.19 c -0.03,0 -0.89,2.52 -0.91,2.54 -0.02,0.01 -2.68,0.05 -2.69,0.08 -0.01,0.02 2.12,1.62 2.13,1.64 0,0.02 -0.77,2.57 -0.75,2.58 0.02,0.02 2.19,-1.50 2.23,-1.50 0.02,0 2.20,1.53 2.23,1.50 0.02,-0.01 -0.76,-2.56 -0.75,-2.58 0.01,-0.02 2.14,-1.62 2.13,-1.64 -0.01,-0.03 -2.67,-0.07 -2.69,-0.08 -0.02,-0.02 -0.89,-2.54 -0.91,-2.54 z" id="p3328" style="fill:#fafafc;" />
<rect width="10.39" height="6.66" x="14.62" y="2.67" id="r3272" style="fill:#585083;" />
<path d="m 17.42,41.22 0,3.06 55.74,0 0,-3.06 -55.74,0 z" id="p3278" style="fill:#ce9b6a;fill-rule:evenodd;stroke:none" />
<path d="m 33.19,20.56 c 0.03,0 0.89,2.52 0.91,2.54 0.02,0.01 2.68,0.05 2.69,0.08 0.01,0.02 -2.12,1.62 -2.13,1.64 0,0.02 0.77,2.57 0.75,2.58 -0.02,0.02 -2.19,-1.50 -2.23,-1.50 -0.02,0 -2.20,1.53 -2.23,1.50 -0.02,-0.01 0.76,-2.56 0.75,-2.58 -0.01,-0.02 -2.14,-1.62 -2.13,-1.64 0.01,-0.03 2.67,-0.07 2.69,-0.08 0.02,-0.02 0.89,-2.54 0.91,-2.54 z" id="p3284" style="fill:#fafafc;" />
<path d="m 35.50,11.38 c 0.03,0 0.89,2.52 0.91,2.54 0.02,0.01 2.68,0.05 2.69,0.08 0.01,0.02 -2.12,1.62 -2.13,1.64 0,0.02 0.77,2.57 0.75,2.58 -0.02,0.02 -2.19,-1.50 -2.23,-1.50 -0.02,0 -2.20,1.53 -2.23,1.50 -0.02,-0.01 0.76,-2.56 0.75,-2.58 -0.01,-0.02 -2.14,-1.62 -2.13,-1.64 0.01,-0.03 2.67,-0.07 2.69,-0.08 0.02,-0.02 0.89,-2.54 0.91,-2.54 z" id="p3286" style="fill:#fafafc;" />
<path d="m 42.10,5.62 c 0.03,0 0.89,2.52 0.91,2.54 0.02,0.01 2.68,0.05 2.69,0.08 0.01,0.02 -2.12,1.62 -2.13,1.64 0,0.02 0.77,2.57 0.75,2.58 -0.02,0.02 -2.19,-1.50 -2.23,-1.50 -0.02,0 -2.20,1.53 -2.23,1.50 -0.02,-0.01 0.76,-2.56 0.75,-2.58 -0.01,-0.02 -2.14,-1.62 -2.13,-1.64 0.01,-0.03 2.67,-0.07 2.69,-0.08 0.02,-0.02 0.89,-2.54 0.91,-2.54 z" id="p3288" style="fill:#fafafc;" />
<path d="m 51.14,3.77 c 0.03,0 0.89,2.52 0.91,2.54 0.02,0.01 2.68,0.05 2.69,0.08 0.01,0.02 -2.12,1.62 -2.13,1.64 0,0.02 0.77,2.57 0.75,2.58 -0.02,0.02 -2.19,-1.50 -2.23,-1.50 -0.02,0 -2.20,1.53 -2.23,1.50 -0.02,-0.01 0.76,-2.56 0.75,-2.58 -0.01,-0.02 -2.14,-1.62 -2.13,-1.64 0.01,-0.03 2.67,-0.07 2.69,-0.08 0.02,-0.02 0.89,-2.54 0.91,-2.54 z" id="p3290" style="fill:#fafafc;" />
<path d="m 60.65,5.25 c 0.03,0 0.89,2.52 0.91,2.54 0.02,0.01 2.68,0.05 2.69,0.08 0.01,0.02 -2.12,1.62 -2.13,1.64 0,0.02 0.77,2.57 0.75,2.58 -0.02,0.02 -2.19,-1.50 -2.23,-1.50 -0.02,0 -2.20,1.53 -2.23,1.50 -0.02,-0.01 0.76,-2.56 0.75,-2.58 -0.01,-0.02 -2.14,-1.62 -2.13,-1.64 0.01,-0.03 2.67,-0.07 2.69,-0.08 0.02,-0.02 0.89,-2.54 0.91,-2.54 z" id="p3292" style="fill:#fafafc;" />
<path d="m 35.99,28.73 c 0.03,0 0.89,2.52 0.91,2.54 0.02,0.01 2.68,0.05 2.69,0.08 0.01,0.02 -2.12,1.62 -2.13,1.64 0,0.02 0.77,2.57 0.75,2.58 -0.02,0.02 -2.19,-1.50 -2.23,-1.50 -0.02,0 -2.20,1.53 -2.23,1.50 -0.02,-0.01 0.76,-2.56 0.75,-2.58 -0.01,-0.02 -2.14,-1.62 -2.13,-1.64 0.01,-0.03 2.67,-0.07 2.69,-0.08 0.02,-0.02 0.89,-2.54 0.91,-2.54 z" id="p3294" style="fill:#fafafc;" />
<path d="m 42.22,35.48 c 0.03,0 0.89,2.52 0.91,2.54 0.02,0.01 2.68,0.05 2.69,0.08 0.01,0.02 -2.12,1.62 -2.13,1.64 0,0.02 0.77,2.57 0.75,2.58 -0.02,0.02 -2.19,-1.50 -2.23,-1.50 -0.02,0 -2.20,1.53 -2.23,1.50 -0.02,-0.01 0.76,-2.56 0.75,-2.58 -0.01,-0.02 -2.14,-1.62 -2.13,-1.64 0.01,-0.03 2.67,-0.07 2.69,-0.08 0.02,-0.02 0.89,-2.54 0.91,-2.54 z" id="p3296" style="fill:#fafafc;" />
<path d="m 50.75,37.30 c 0.03,0 0.89,2.52 0.91,2.54 0.02,0.01 2.68,0.05 2.69,0.08 0.01,0.02 -2.12,1.62 -2.13,1.64 0,0.02 0.77,2.57 0.75,2.58 -0.02,0.02 -2.19,-1.50 -2.23,-1.50 -0.02,0 -2.20,1.53 -2.23,1.50 -0.02,-0.01 0.76,-2.56 0.75,-2.58 -0.01,-0.02 -2.14,-1.62 -2.13,-1.64 0.01,-0.03 2.67,-0.07 2.69,-0.08 0.02,-0.02 0.89,-2.54 0.91,-2.54 z" id="p3298" style="fill:#fafafc;" />
<path d="m 59.77,35.35 c 0.03,0 0.89,2.52 0.91,2.54 0.02,0.01 2.68,0.05 2.69,0.08 0.01,0.02 -2.12,1.62 -2.13,1.64 0,0.02 0.77,2.57 0.75,2.58 -0.02,0.02 -2.19,-1.50 -2.23,-1.50 -0.02,0 -2.20,1.53 -2.23,1.50 -0.02,-0.01 0.76,-2.56 0.75,-2.58 -0.01,-0.02 -2.14,-1.62 -2.13,-1.64 0.01,-0.03 2.67,-0.07 2.69,-0.08 0.02,-0.02 0.89,-2.54 0.91,-2.54 z" id="p3300" style="fill:#fafafc;" />
<path d="m 66.89,29.20 c 0.03,0 0.89,2.52 0.91,2.54 0.02,0.01 2.68,0.05 2.69,0.08 0.01,0.02 -2.12,1.62 -2.13,1.64 0,0.02 0.77,2.57 0.75,2.58 -0.02,0.02 -2.19,-1.50 -2.23,-1.50 -0.02,0 -2.20,1.53 -2.23,1.50 -0.02,-0.01 0.76,-2.56 0.75,-2.58 -0.01,-0.02 -2.14,-1.62 -2.13,-1.64 0.01,-0.03 2.67,-0.07 2.69,-0.08 0.02,-0.02 0.89,-2.54 0.91,-2.54 z" id="p3302" style="fill:#fafafc;" />
<path d="m 26.52,2.37 c 0.40,0.04 0.86,-0.11 1.21,0.15 0.54,0.79 -0.44,1.00 -0.72,1.14 0.04,0.39 0.03,0.73 -0.37,0.58 -0.24,-0.04 -0.04,-0.62 -0.11,-0.89 0,-0.32 0,-0.65 0,-0.98 z m 0.49,0.79 c 0.79,0.14 -0.05,-0.90 0,-0.14 0,0.05 0,0.09 0,0.14 z M 27.99,3.58 C 27.98,2.35 29.80,2.89 29.21,3.97 28.88,4.52 27.96,4.32 27.99,3.58 l 0,0 z m 0.44,-0.01 c 0.54,1.40 0.52,-1.34 0,0 l 0,0 z m 2.29,0.67 C 30.22,4.31 30.37,3.94 29.90,4.28 29.34,4.21 29.55,3.42 29.51,2.96 c 0.14,-0.19 0.62,-0.11 0.44,0.31 -0.16,0.63 0.45,0.76 0.33,0.04 -0.15,-0.44 0.23,-0.54 0.44,-0.37 0,0.44 0,0.87 0,1.30 z m 0.75,-1.35 c 0.42,-0.05 0.12,0.46 0,0.49 -0.07,0.25 0.16,0.88 -0.14,0.86 -0.43,0.17 -0.28,-0.35 -0.30,-0.66 0.10,-0.32 -0.39,-0.46 -0.06,-0.69 -0.07,-0.42 0.93,-0.93 0.76,-0.20 -0.12,-0.05 -0.30,0 -0.25,0.20 z M 31.88,2.37 c 0.39,0.04 0.85,-0.11 1.20,0.15 0.54,0.79 -0.44,1.00 -0.72,1.14 0.04,0.39 0.03,0.73 -0.37,0.58 -0.24,-0.04 -0.04,-0.62 -0.10,-0.89 0,-0.32 0,-0.65 0,-0.98 z m 0.48,0.79 c 0.79,0.14 -0.04,-0.90 0,-0.14 0,0.05 0,0.09 0,0.14 z m 0.97,0.40 c 0,-1.22 1.82,-0.69 1.21,0.39 -0.31,0.54 -1.23,0.34 -1.21,-0.39 l 0,0 z m 0.44,-0.01 c 0.54,1.40 0.52,-1.34 0,0 l 0,0 z m 2.29,0.67 c -0.50,0.06 -0.35,-0.30 -0.81,0.03 -0.56,-0.06 -0.34,-0.85 -0.38,-1.31 0.12,-0.19 0.61,-0.11 0.44,0.31 -0.16,0.63 0.44,0.76 0.32,0.04 -0.15,-0.44 0.24,-0.54 0.44,-0.37 0,0.44 0,0.87 0,1.30 z m 0.75,-1.35 c 0.43,-0.05 0.14,0.46 0,0.49 -0.06,0.25 0.16,0.88 -0.14,0.86 C 36.27,4.42 36.42,3.89 36.40,3.58 36.49,3.25 35.99,3.11 36.32,2.89 36.26,2.46 37.27,1.95 37.09,2.68 c -0.12,-0.05 -0.30,0 -0.25,0.20 z M 37.23,2.37 c 0.40,0.04 0.85,-0.11 1.21,0.15 0.53,0.79 -0.44,1.00 -0.72,1.14 0.04,0.39 0.03,0.73 -0.37,0.58 -0.24,-0.04 -0.05,-0.62 -0.11,-0.89 0,-0.32 0,-0.65 0,-0.98 z m 0.49,0.79 c 0.78,0.14 -0.05,-0.90 0,-0.14 0,0.05 0,0.09 0,0.14 z m 1.07,-0.28 c 0.48,-0.10 0.34,0.33 0.68,-0.03 0.58,0.33 -0.53,0.45 -0.24,1.11 0.19,0.38 -0.50,0.40 -0.44,0.11 0,-0.39 0,-0.79 0,-1.19 z m 0.95,0.69 C 39.75,2.35 41.57,2.89 40.98,3.97 40.67,4.52 39.73,4.32 39.76,3.58 l 0,0 z m 0.44,-0.01 c 0.54,1.40 0.52,-1.34 0,0 l 0,0 z M 42.50,2.37 c 0,0.62 0,1.25 0,1.87 -0.48,0.08 -0.35,-0.29 -0.78,0.03 -0.91,-0.09 -0.34,-1.99 0.34,-1.31 -0.04,-0.38 -0.04,-0.74 0.37,-0.59 l 0.04,0 0.02,0 z m -0.44,1.19 c -0.51,-1.25 -0.44,1.25 0,0 l 0,0 z m 1.91,0.67 c -0.50,0.06 -0.35,-0.30 -0.83,0.03 -0.56,-0.06 -0.33,-0.85 -0.38,-1.31 0.14,-0.19 0.62,-0.11 0.44,0.31 -0.16,0.63 0.45,0.76 0.33,0.04 -0.15,-0.44 0.23,-0.54 0.44,-0.37 0,0.44 0,0.87 0,1.30 z M 45.10,3.72 C 46.06,3.67 44.77,4.76 44.37,4.11 43.49,3.10 45.47,2.32 45.40,3.34 45.03,3.40 44.44,3.00 44.70,3.85 44.82,4.01 45.06,3.93 45.10,3.72 l 0,0 z m 1.15,-1.34 c -0.14,0.48 0.17,0.44 0.23,0.69 -0.01,0.31 -0.39,0.17 -0.23,0.69 0.18,0.06 0.48,0.61 -0.04,0.52 C 45.53,4.44 46.06,3.25 45.65,3.26 45.61,2.86 45.79,2.83 45.94,2.56 46.03,2.50 46.14,2.43 46.25,2.37 z m 0.46,0 c 0.29,-0.16 0.65,0.17 0.34,0.35 -0.30,0.01 -0.39,0.07 -0.34,-0.35 z m 0,0.51 c 0.36,-0.09 0.52,0.05 0.44,0.50 -0.07,0.25 0.16,0.87 -0.14,0.85 -0.43,0.17 -0.28,-0.35 -0.30,-0.66 0,-0.23 0,-0.46 0,-0.69 z M 47.38,3.58 C 47.37,2.35 49.19,2.89 48.60,3.97 48.29,4.52 47.35,4.32 47.38,3.58 l 0,0 z m 0.44,-0.01 c 0.54,1.40 0.52,-1.34 0,0 l 0,0 z m 1.08,-0.67 c 0.50,-0.06 0.35,0.30 0.81,-0.03 0.57,0.06 0.34,0.85 0.38,1.31 -0.12,0.19 -0.61,0.11 -0.44,-0.31 0.17,-0.62 -0.44,-0.76 -0.32,-0.03 0.15,0.43 -0.24,0.53 -0.44,0.36 0,-0.43 0,-0.87 0,-1.30 z" id="text3347" style="fill:#795238;" />
<path d="m 25.96,4.79 25.12,0" id="p3353" style="fill:none;stroke:#442206;stroke-width:0.1;stroke-linecap:butt;stroke-linejoin:miter;stroke-miterlimit:4;stroke-dasharray:none" />
<path d="m 67.12,11.51 c -0.03,0 -0.89,2.52 -0.91,2.54 -0.02,0.01 -2.68,0.05 -2.69,0.08 -0.01,0.02 2.12,1.62 2.13,1.64 0,0.02 -0.77,2.57 -0.75,2.58 0.02,0.02 2.19,-1.50 2.23,-1.50 0.02,0 2.20,1.53 2.23,1.50 0.02,-0.01 -0.76,-2.56 -0.75,-2.58 0.01,-0.02 2.14,-1.62 2.13,-1.64 -0.01,-0.03 -2.67,-0.07 -2.69,-0.08 -0.02,-0.02 -0.89,-2.54 -0.91,-2.54 z" id="p3330" style="fill:#fafafc;" />
<path d="m 75.14,2.51 c -1.49,1.57e-5 -2.65,0.66 -3.45,2.04 -0.80,1.37 -1.21,3.35 -1.21,5.89 0,2.53 0.40,4.43 1.21,5.81 0.80,1.37 1.96,2.12 3.45,2.12 1.48,0 2.58,-0.75 3.39,-2.12 0.80,-1.37 1.21,-3.28 1.21,-5.81 0,-2.53 -0.40,-4.52 -1.21,-5.89 C 77.73,3.18 76.63,2.51 75.14,2.51 z m -13.65,0.24 0,8.59 c 0.54,-0.30 1.04,-0.51 1.51,-0.65 0.47,-0.15 0.91,-0.24 1.33,-0.24 0.70,8e-6 1.23,0.27 1.63,0.73 0.40,0.46 0.66,1.07 0.66,1.88 -1.9e-5,0.79 -0.25,1.41 -0.66,1.88 -0.40,0.46 -0.93,0.73 -1.63,0.73 -0.49,3e-6 -1.02,-0.17 -1.57,-0.40 -0.55,-0.23 -1.14,-0.58 -1.76,-1.06 l 0,3.11 c 0.62,0.34 1.25,0.57 1.88,0.73 0.63,0.17 1.29,0.32 1.94,0.32 1.48,0 2.62,-0.53 3.45,-1.47 0.83,-0.93 1.27,-2.19 1.27,-3.84 0,-1.66 -0.38,-2.91 -1.15,-3.84 -0.76,-0.93 -1.83,-1.47 -3.21,-1.47 -0.24,0 -0.50,0.03 -0.72,0.08 -0.22,0.04 -0.44,0.16 -0.66,0.24 l 0,-2.37 4.91,0 0,-2.94 -7.22,0 z M 75.14,5.21 c 0.62,1.31e-5 1.07,0.36 1.33,1.14 0.26,0.77 0.36,2.10 0.36,4.01 -1.9e-5,1.93 -0.09,3.30 -0.36,4.09 -0.26,0.79 -0.71,1.22 -1.33,1.22 -0.62,3e-6 -1.12,-0.43 -1.39,-1.22 -0.26,-0.79 -0.36,-2.16 -0.36,-4.09 0,-1.90 0.09,-3.23 0.36,-4.01 0.26,-0.78 0.76,-1.14 1.39,-1.14 z" id="path3961" style="fill:#a56120;stroke:#e5e5e5;stroke-width:0.54;stroke-linecap:butt;stroke-linejoin:miter;stroke-miterlimit:4;" />
<path d="m 12.42,34.89 c -0.76,9e-6 -1.35,0.40 -1.77,1.23 -0.41,0.82 -0.62,2.02 -0.62,3.56 0,1.52 0.20,2.67 0.62,3.51 0.41,0.82 1.00,1.28 1.77,1.28 0.76,0 1.32,-0.45 1.74,-1.28 0.41,-0.83 0.62,-1.98 0.62,-3.51 0,-1.53 -0.20,-2.73 -0.62,-3.56 -0.41,-0.83 -0.98,-1.23 -1.74,-1.23 z m -7.00,0.14 0,5.19 c 0.28,-0.18 0.53,-0.30 0.77,-0.39 0.24,-0.09 0.46,-0.14 0.68,-0.14 0.36,5e-6 0.63,0.16 0.84,0.44 0.21,0.28 0.34,0.65 0.34,1.13 -9.7e-6,0.48 -0.13,0.85 -0.34,1.13 C 7.51,42.69 7.24,42.85 6.88,42.85 6.63,42.85 6.35,42.75 6.07,42.61 5.79,42.46 5.48,42.25 5.17,41.96 l 0,1.87 c 0.31,0.20 0.64,0.34 0.96,0.44 0.32,0.10 0.66,0.19 0.99,0.19 0.76,0 1.34,-0.32 1.77,-0.89 0.43,-0.56 0.65,-1.32 0.65,-2.32 0,-1.00 -0.19,-1.76 -0.59,-2.32 -0.39,-0.56 -0.94,-0.89 -1.65,-0.89 -0.12,0 -0.25,0.02 -0.37,0.04 -0.11,0.02 -0.22,0.09 -0.34,0.14 l 0,-1.43 2.52,0 0,-1.78 -3.70,0 z m 7.00,1.48 c 0.32,8e-6 0.55,0.21 0.68,0.69 0.13,0.46 0.18,1.26 0.18,2.42 -1e-5,1.16 -0.04,1.99 -0.18,2.47 -0.13,0.47 -0.36,0.74 -0.68,0.74 -0.32,1e-6 -0.57,-0.26 -0.71,-0.74 -0.13,-0.47 -0.18,-1.30 -0.18,-2.47 0,-1.15 0.04,-1.95 0.18,-2.42 0.13,-0.47 0.39,-0.69 0.71,-0.69 z" id="path3961-1" style="fill:#a56120;stroke-width:0.54;marker:none;" />
<path d="m 11.17,2.51 c -0.63,5.4e-6 -1.12,0.24 -1.47,0.74 -0.34,0.49 -0.51,1.21 -0.51,2.13 0,0.91 0.17,1.60 0.51,2.10 0.34,0.49 0.83,0.77 1.47,0.77 0.63,0 1.10,-0.27 1.44,-0.77 0.34,-0.49 0.51,-1.18 0.51,-2.10 0,-0.91 -0.17,-1.63 -0.51,-2.13 -0.34,-0.49 -0.81,-0.74 -1.44,-0.74 z m -5.82,0.08 0,3.11 c 0.23,-0.11 0.44,-0.18 0.64,-0.23 0.20,-0.05 0.39,-0.08 0.56,-0.08 0.30,3e-6 0.52,0.09 0.69,0.26 0.17,0.16 0.28,0.39 0.28,0.68 C 7.55,6.62 7.44,6.85 7.27,7.02 7.09,7.19 6.87,7.28 6.57,7.28 6.36,7.28 6.13,7.22 5.90,7.14 5.66,7.05 5.41,6.92 5.15,6.75 l 0,1.12 C 5.41,8.00 5.68,8.08 5.95,8.14 c 0.26,0.06 0.55,0.11 0.82,0.11 0.63,0 1.11,-0.19 1.47,-0.53 0.35,-0.33 0.54,-0.79 0.54,-1.39 0,-0.60 -0.16,-1.05 -0.49,-1.39 C 7.97,4.60 7.52,4.41 6.93,4.41 c -0.10,0 -0.21,0.01 -0.31,0.02 -0.09,0.01 -0.18,0.05 -0.28,0.08 l 0,-0.85 2.09,0 0,-1.06 -3.07,0 z m 5.82,0.88 c 0.26,4.8e-6 0.45,0.13 0.56,0.41 0.11,0.28 0.15,0.76 0.15,1.45 -9e-6,0.69 -0.04,1.19 -0.15,1.48 -0.11,0.28 -0.30,0.44 -0.56,0.44 -0.26,6e-7 -0.48,-0.15 -0.59,-0.44 -0.11,-0.28 -0.15,-0.78 -0.15,-1.48 0,-0.69 0.04,-1.17 0.15,-1.45 0.11,-0.28 0.32,-0.41 0.59,-0.41 z" id="path3961-1-3" style="fill:#a56120;stroke-width:0.54;marker:none;" />
<rect width="90.01" height="47.42" x="3.02" y="0.28" id="rect2479" style="fill:none;stroke:#646464;stroke-width:0.5;stroke-linecap:round;stroke-linejoin:round;stroke-miterlimit:4;" />
</svg>