<?xml version="1.0" encoding="UTF-8" standalone="no"?>
<!-- Created with Inkscape (http://www.inkscape.org/) -->
<svg xmlns:dc="http://purl.org/dc/elements/1.1/" xmlns:cc="http://creativecommons.org/ns#" xmlns:rdf="http://www.w3.org/1999/02/22-rdf-syntax-ns#" xmlns:svg="http://www.w3.org/2000/svg" xmlns="http://www.w3.org/2000/svg" version="1.0" width="100%" height="100%" viewBox="0 0 48 48" id="svg2383">
<defs id="defs2385" />
<path d="m 47.08,24.06 c 0,12.68 -10.29,22.97 -22.98,22.97 -12.69,0 -22.98,-10.29 -22.98,-22.97 0,-12.69 10.29,-22.98 22.98,-22.98 12.69,0 22.98,10.29 22.98,22.98 z" id="p3302" style="fill:#a66e47;fill-opacity:1" />
<path d="m 24.11,23.10 c -9.10,0 -17.24,2.03 -22.59,5.22 0.01,0.04 0.02,0.08 0.02,0.12 0.10,0.52 0.21,1.05 0.35,1.56 0.06,0.25 0.16,0.49 0.22,0.74 0.13,0.43 0.29,0.86 0.45,1.29 0.05,0.14 0.12,0.32 0.19,0.48 0.04,0.13 0.10,0.28 0.14,0.42 0.16,0.34 0.29,0.68 0.45,1.03 0.17,0.33 0.34,0.65 0.51,0.97 0.18,0.32 0.36,0.65 0.55,0.97 0.05,0.06 0.09,0.13 0.13,0.22 0.25,0.39 0.52,0.80 0.81,1.18 0.31,0.43 0.63,0.86 0.96,1.27 0.08,0.09 0.14,0.17 0.22,0.25 0.41,0.50 0.86,0.96 1.33,1.43 0.41,0.40 0.83,0.80 1.29,1.19 0.03,0.03 0.08,0.09 0.12,0.13 0.03,0.02 0.09,0.05 0.12,0.09 0.12,0.10 0.26,0.18 0.39,0.28 0.19,0.16 0.37,0.34 0.57,0.48 0.19,0.13 0.40,0.26 0.59,0.40 0.05,0.03 0.12,0.11 0.18,0.14 1.51,1.03 3.17,1.86 4.90,2.50 0.01,0.01 0.03,0.02 0.06,0.03 0.58,0.21 1.22,0.41 1.84,0.57 0.59,0.17 1.19,0.31 1.81,0.42 0.10,0.02 0.20,0.04 0.32,0.06 0.59,0.10 1.21,0.17 1.84,0.22 0.67,0.05 1.36,0.09 2.06,0.09 0.71,0 1.39,-0.03 2.07,-0.09 0.47,-0.04 0.93,-0.09 1.39,-0.17 0.29,-0.03 0.59,-0.10 0.88,-0.14 0.08,-0.02 0.16,-0.02 0.25,-0.03 0.50,-0.10 0.97,-0.22 1.45,-0.36 0.03,0 0.04,-0.01 0.06,-0.02 0.21,-0.06 0.45,-0.12 0.67,-0.19 0.41,-0.12 0.82,-0.27 1.22,-0.42 0.60,-0.22 1.18,-0.47 1.75,-0.74 0.05,-0.02 0.10,-0.03 0.16,-0.05 0.53,-0.27 1.07,-0.55 1.59,-0.85 0.43,-0.26 0.87,-0.51 1.29,-0.81 0.01,-0.01 0.01,-0.01 0.02,-0.02 0.29,-0.20 0.56,-0.41 0.85,-0.62 0.29,-0.22 0.58,-0.44 0.87,-0.67 0.10,-0.09 0.21,-0.17 0.32,-0.26 0.42,-0.35 0.83,-0.74 1.22,-1.12 0.01,-0.01 0.02,-0.02 0.03,-0.03 0.01,-0.02 0.02,-0.03 0.03,-0.04 0.52,-0.51 1.02,-1.07 1.49,-1.64 0.22,-0.28 0.45,-0.55 0.67,-0.83 0.18,-0.26 0.37,-0.52 0.55,-0.78 0.03,-0.05 0.06,-0.08 0.09,-0.13 0.20,-0.29 0.40,-0.62 0.59,-0.93 0.18,-0.32 0.36,-0.65 0.55,-0.97 0.17,-0.32 0.34,-0.64 0.51,-0.97 0.22,-0.48 0.41,-0.96 0.60,-1.45 0.05,-0.16 0.13,-0.33 0.19,-0.48 0.16,-0.42 0.32,-0.87 0.45,-1.29 0.06,-0.26 0.16,-0.49 0.22,-0.74 0.13,-0.51 0.25,-1.02 0.35,-1.56 0,-0.04 0.01,-0.08 0.02,-0.12 -5.36,-3.18 -13.46,-5.22 -22.57,-5.22 z" id="p3304" style="fill:#573628;fill-opacity:0.09" />
<path d="m 31.60,40.93 c -0.74,3.00 -6.75,4.08 -13.41,2.42 -6.66,-1.66 -11.46,-5.45 -10.70,-8.45 0.74,-2.99 6.75,-4.07 13.41,-2.41 6.66,1.66 11.46,5.44 10.70,8.44 z" id="p3312" style="fill:#703c0f;fill-opacity:0.13" />
<path d="m 24.11,1.06 c -9.36,0 -17.42,5.60 -21.01,13.64 2.55,5.29 10.52,7.78 18.74,5.58 C 30.79,17.89 36.66,10.83 34.97,4.53 34.89,4.22 34.80,3.94 34.69,3.64 31.50,2.00 27.93,1.06 24.11,1.06 z" id="p3316" style="fill:#edc19c;fill-opacity:0.12" />
<path d="m 47.08,24.06 c 0,12.68 -10.29,22.97 -22.98,22.97 -12.69,0 -22.98,-10.29 -22.98,-22.97 0,-12.69 10.29,-22.98 22.98,-22.98 12.69,0 22.98,10.29 22.98,22.98 z" id="p2480" style="fill:none;stroke:#524326;stroke-width:0.5" />
<path d="m 32.31,19.27 c 0.07,0 2.40,6.77 2.46,6.81 0.04,0.04 7.21,0.15 7.24,0.22 0.01,0.07 -5.71,4.38 -5.75,4.46 -0.01,0.06 2.08,6.91 2.03,6.96 -0.06,0.04 -5.92,-4.07 -6.00,-4.07 -0.06,0 -5.94,4.12 -6.02,4.07 -0.04,-0.04 2.05,-6.89 2.03,-6.96 -0.03,-0.07 -5.76,-4.38 -5.73,-4.46 0.01,-0.06 7.18,-0.17 7.26,-0.22 0.04,-0.04 2.38,-6.81 2.45,-6.81 z" id="p3358" style="fill:#58483c;fill-opacity:1" />
<path d="m 32.31,18.41 c 0.07,0 2.40,6.77 2.46,6.81 0.04,0.03 7.21,0.15 7.24,0.22 0.01,0.07 -5.71,4.38 -5.75,4.44 -0.01,0.07 2.08,6.92 2.03,6.97 -0.06,0.03 -5.92,-4.07 -6.00,-4.07 -0.06,0 -5.94,4.11 -6.02,4.07 -0.04,-0.04 2.05,-6.89 2.03,-6.97 -0.03,-0.06 -5.76,-4.36 -5.73,-4.44 0.01,-0.06 7.18,-0.19 7.26,-0.22 0.04,-0.04 2.38,-6.81 2.45,-6.81 z" id="p3356" style="fill:#3d322a;fill-opacity:1" />
<path d="m 32.39,20.34 c 0.05,0 1.92,5.40 1.96,5.43 0.04,0.02 5.73,0.13 5.76,0.17 0.01,0.05 -4.54,3.48 -4.57,3.53 0,0.05 1.66,5.50 1.61,5.54 -0.04,0.02 -4.71,-3.24 -4.77,-3.24 -0.05,0 -4.71,3.27 -4.77,3.24 -0.04,-0.04 1.61,-5.48 1.61,-5.54 -0.02,-0.05 -4.58,-3.48 -4.55,-3.53 0.01,-0.04 5.70,-0.14 5.76,-0.17 0.04,-0.02 1.89,-5.43 1.95,-5.43 z" id="p3360" style="fill:#74503b;fill-opacity:1" />
<path d="m 39.03,9.90 -5.96,7.5 c 0.11,0.33 0.27,0.71 0.40,1.09 l 6.21,-7.84 c -0.21,-0.25 -0.42,-0.50 -0.65,-0.75 z m 1.62,2 -6.59,8.28 c 0.19,0.55 0.22,0.61 0.40,1.12 l 6.81,-8.56 c -0.19,-0.29 -0.41,-0.56 -0.62,-0.84 z m 1.5,2.31 -7.03,8.87 c 0.10,0.28 0.37,1.06 0.40,1.12 l 7.12,-8.96 c -0.16,-0.34 -0.31,-0.69 -0.5,-1.03 z m 1.18,2.56 L 37.18,24.5 c 0.35,0.01 0.74,0.01 1.28,0.03 l 5.28,-6.62 c -0.12,-0.38 -0.26,-0.74 -0.40,-1.12 z m 0.87,2.96 -3.84,4.84 c 0.45,0.01 0.80,0.01 1.25,0.03 l 2.81,-3.56 C 44.37,20.62 44.30,20.17 44.21,19.75 z M 30.37,20.78 27.40,24.5 c 0.37,-0.01 1.21,-0.05 1.31,-0.06 l 0.62,-0.78 c 0.17,-0.46 0.54,-1.49 1.03,-2.87 z m 14.28,2.65 -0.96,1.21 c 0.58,0.01 0.71,0.04 0.96,0.06 0.00,-0.21 0.03,-0.43 0.03,-0.65 0,-0.20 -0.02,-0.41 -0.03,-0.62 z m -0.34,2 c -0.82,0.64 -1.89,1.47 -3.25,2.5 l -3.12,3.93 c 0.08,0.27 0.20,0.73 0.34,1.18 l 6.03,-7.62 z M 24.25,28.5 13.65,41.78 c 0.28,0.17 0.57,0.34 0.87,0.5 l 10.5,-13.18 C 24.73,28.86 24.60,28.77 24.25,28.5 z m 2,1.53 -10.28,12.90 c 0.31,0.13 0.64,0.25 0.96,0.37 L 27.03,30.65 c -1.2e-5,-4.97e-4 6.5e-5,-0.03 0,-0.03 -0.00,-0.00 -0.63,-0.48 -0.78,-0.59 z m 6.18,4.53 -8,10.06 c 0.43,-0.00 0.88,-0.02 1.31,-0.06 l 7.5,-9.43 c -0.17,-0.11 -0.77,-0.54 -0.81,-0.56 z m -6.65,0.25 -7.18,9.06 c 0.34,0.09 0.70,0.20 1.06,0.28 l 5.37,-6.75 c 0.26,-0.88 0.45,-1.60 0.75,-2.59 z m 8.84,1.25 -6.53,8.18 c 0.53,-0.10 1.07,-0.25 1.59,-0.40 l 5.75,-7.21 C 35.05,36.36 34.95,36.29 34.62,36.06 z m -6.28,1.15 c -0.98,0.67 -2.00,1.33 -2.75,1.84 l -4.28,5.37 c 0.39,0.05 0.78,0.09 1.18,0.12 l 5.84,-7.34 z" id="path3911" style="font-size:medium;font-style:normal;text-indent:0;text-align:start;text-decoration:none;line-height:normal;letter-spacing:normal;word-spacing:normal;text-transform:none;direction:ltr;block-progression:tb;writing-mode:lr-tb;text-anchor:start;baseline-shift:baseline;color:#000000;fill:#514237;stroke-width:1px;marker:none;font-family:Sans;-inkscape-font-specification:Sans" />
<text x="-21.55" y="32.13" id="text2994" xml:space="preserve" style="line-height:125%;letter-spacing:0px;word-spacing:0px;fill:#000000;">
<tspan x="-21.55" y="32.13" id="tspan2996" />
</text>
<g transform="translate(15.66,10.57)" id="g3857" style="line-height:125%;letter-spacing:0px;word-spacing:0px;color:#000000;fill:none;stroke:#000000;stroke-width:1;font-family:FreeSerif;-inkscape-font-specification:FreeSerif" />
<path d="m 22.62,4.88 c -0.94,1.26 -2.38,0.71 -3.60,0.82 -1.54,-0.00 -3.08,-0.00 -4.63,0.01 -0.59,0.57 -0.89,1.39 -1.37,2.07 -1.19,1.92 -2.39,3.84 -3.55,5.78 -0.00,1.25 1.79,0.45 2.55,0.91 1.92,0.43 3.88,1.19 4.96,2.80 1.52,2.36 0.66,6.34 -2.14,8.17 -1.10,0.73 -2.52,0.82 -3.44,0.11 -1.03,-0.68 -2.03,-1.74 -3.51,-1.46 -1.12,0.25 -1.70,1.68 -1.11,2.49 0.77,1.12 2.39,1.19 3.75,1.22 2.86,-0.01 6.11,-1.13 8.10,-3.61 1.73,-2.19 2.42,-5.01 2.11,-7.48 -0.23,-1.78 -1.36,-3.21 -2.87,-4.03 -1.46,-0.87 -3.17,-1.37 -4.90,-1.72 0.48,-0.73 0.96,-1.46 1.45,-2.19 2.16,-0.02 4.32,0.05 6.50,-0.04 0.81,-0.26 0.97,-1.26 1.45,-1.88 0.33,-0.62 1.39,-1.83 0.26,-1.99 l -0.01,0.00 -5e-6,-4.3e-6 z" id="path3012" style="line-height:125%;letter-spacing:0px;word-spacing:0px;color:#000000;fill:#58483c;stroke-width:1;marker:none;font-family:FreeSerif;-inkscape-font-specification:FreeSerif" />
<path d="m 22.31,4.27 c -0.94,1.26 -2.38,0.71 -3.60,0.82 -1.54,-0.00 -3.08,-0.00 -4.63,0.01 -0.59,0.57 -0.89,1.39 -1.37,2.07 -1.19,1.92 -2.39,3.84 -3.55,5.78 -0.00,1.25 1.79,0.45 2.55,0.91 1.92,0.43 3.88,1.19 4.96,2.80 1.52,2.36 0.66,6.34 -2.14,8.17 -1.10,0.73 -2.52,0.82 -3.44,0.11 -1.03,-0.68 -2.03,-1.74 -3.51,-1.46 -1.12,0.25 -1.70,1.68 -1.11,2.49 0.77,1.12 2.39,1.19 3.75,1.22 2.86,-0.01 6.11,-1.13 8.10,-3.61 1.73,-2.19 2.42,-5.01 2.11,-7.48 -0.23,-1.78 -1.36,-3.21 -2.87,-4.03 -1.46,-0.87 -3.17,-1.37 -4.90,-1.72 0.48,-0.73 0.96,-1.46 1.45,-2.19 2.16,-0.02 4.32,0.05 6.50,-0.04 C 21.42,7.88 21.58,6.88 22.06,6.26 22.39,5.64 23.46,4.43 22.32,4.27 l -0.01,0.00 -4e-6,-4.3e-6 z" id="path3046" style="line-height:125%;letter-spacing:0px;word-spacing:0px;color:#000000;fill:#3d322a;stroke-width:1;marker:none;font-family:FreeSerif;-inkscape-font-specification:FreeSerif" />
<path d="m 22.33,4.84 c -0.54,0.49 -1.19,0.74 -1.77,0.78 -0.70,0.03 -1.35,-0.07 -1.87,-0.03 l -0.03,0 -0.03,0 c -1.45,-0.00 -2.89,0.01 -4.34,0.03 -0.38,0.44 -0.66,1.09 -1.15,1.78 -0.00,0.00 4.85e-4,0.02 -0.00,0.03 -1.14,1.85 -2.30,3.70 -3.42,5.56 0.01,0.04 -0.00,0.13 0.03,0.15 0.06,0.04 0.24,0.08 0.48,0.09 0.44,0.01 1.09,-0.08 1.65,0.18 l 0.00,-0.03 c 1.96,0.44 4.05,1.21 5.22,2.96 l -0.00,0.03 c 1.66,2.59 0.75,6.85 -2.34,8.87 -1.28,0.85 -2.89,0.94 -3.98,0.12 -0.00,-0.00 -0.02,0.00 -0.03,0 -0.53,-0.35 -1.04,-0.78 -1.55,-1.06 -0.51,-0.28 -0.98,-0.42 -1.57,-0.31 -0.72,0.16 -1.10,1.13 -0.72,1.65 l -0.00,0.03 c 0.63,0.91 2.05,1.00 3.40,1.03 0.01,1.98e-4 0.02,-1.9e-4 0.03,0 2.72,-0.02 5.77,-1.09 7.61,-3.37 1.62,-2.05 2.30,-4.74 2.00,-7.09 -0.20,-1.63 -1.25,-2.95 -2.67,-3.71 l -0.03,0 c -1.40,-0.84 -3.03,-1.34 -4.73,-1.68 l -0.63,-0.12 0.37,-0.59 1.46,-2.18 0.16,-0.28 0.31,0 c 2.14,-0.02 4.27,0.05 6.37,-0.03 0.19,-0.07 0.32,-0.20 0.48,-0.5 0.16,-0.28 0.33,-0.68 0.60,-1.06 l -0.03,0 c 0.01,-0.03 0.05,-0.05 0.07,-0.09 0.21,-0.37 0.49,-0.77 0.59,-1.03 0.04,-0.11 0.04,-0.11 0.05,-0.12 z" id="path3881" style="line-height:125%;letter-spacing:0px;word-spacing:0px;color:#000000;fill:#74503b;stroke-width:1;marker:none;font-family:FreeSerif;-inkscape-font-specification:FreeSerif" />
</svg>