<?xml version="1.0" encoding="UTF-8" standalone="no"?>
<!-- Created with Inkscape (http://www.inkscape.org/) -->
<svg xmlns:dc="http://purl.org/dc/elements/1.1/" xmlns:cc="http://creativecommons.org/ns#" xmlns:rdf="http://www.w3.org/1999/02/22-rdf-syntax-ns#" xmlns:svg="http://www.w3.org/2000/svg" xmlns="http://www.w3.org/2000/svg" version="1.0" width="100%" height="100%" viewBox="0 0 48 48" id="svg2383">
<defs id="defs2385" />
<path d="M 36.57,5.57 C 35.92,5.93 35.14,5.97 34.49,5.60 33.86,5.23 33.51,4.55 33.49,3.83 27.25,0.92 20.22,1.15 14.34,4.00 14.34,4.74 13.97,5.45 13.32,5.83 12.69,6.19 11.92,6.15 11.28,5.80 8.70,7.61 6.44,9.99 4.77,12.90 c -1.74,3.02 -2.69,6.29 -2.92,9.56 0.02,0.01 0.05,0.02 0.08,0.04 0.60,0.37 0.97,1.02 0.97,1.75 -10e-8,0.72 -0.40,1.35 -1,1.73 7.58e-4,0.00 -0.01,0.01 -0.01,0.02 0.58,6.50 3.99,12.65 9.73,16.51 0.63,-0.36 1.42,-0.40 2.07,-0.02 0.63,0.36 0.98,1.05 0.99,1.76 6.26,2.92 13.30,2.68 19.19,-0.17 0.00,-0.73 0.35,-1.42 1.00,-1.80 0.62,-0.36 1.36,-0.33 1.98,-0.00 0.01,0.00 0.03,0.02 0.05,0.03 2.58,-1.80 4.80,-4.20 6.48,-7.11 1.75,-3.03 2.71,-6.31 2.94,-9.59 -0.64,-0.36 -1.06,-1.01 -1.06,-1.77 0,-0.72 0.40,-1.35 1,-1.73 0.00,-0.00 0.00,-0.02 0.01,-0.02 C 45.72,15.58 42.31,9.43 36.57,5.57 z" id="path3002" style="color:#000000;fill:#d3bd61;stroke-width:1;marker:none;" />
<path d="m 24.12,23.12 c -7.53,0.05 -15.29,1.27 -21.90,5.06 1.08,5.79 4.60,11.05 9.46,14.34 1.67,-1.04 2.78,0.83 3.41,1.84 5.80,2.63 12.75,2.55 18.48,-0.22 0.42,-1.13 1.67,-2.81 3.25,-1.87 4.71,-3.23 7.98,-8.38 9.12,-13.96 C 44.61,27.20 42.68,26.55 40.99,25.86 35.60,23.91 29.84,23.13 24.12,23.12 z" id="p3304" style="fill:#875a2a;fill-opacity:0.15" />
<path d="m 31.36,40.40 c -0.72,2.91 -6.54,3.96 -12.99,2.34 C 11.91,41.14 7.26,37.47 7.99,34.56 8.72,31.66 14.54,30.61 20.99,32.22 c 6.45,1.61 11.10,5.27 10.37,8.17 z" id="p3312" style="fill:#703c0f;fill-opacity:0.13" />
<path d="m 24.12,1.78 c -3.37,0.00 -6.75,0.76 -9.78,2.25 0.10,1.82 -1.95,2.31 -3.20,1.96 C 7.89,8.23 5.34,11.41 3.75,15 c 1.79,3.65 5.86,5.50 9.72,6.01 6.09,0.75 12.55,-1.13 17.15,-5.24 C 33.39,13.26 35.50,9.51 34.75,5.68 33.37,5.27 33.88,3.38 32.28,3.33 29.70,2.31 26.90,1.75 24.12,1.78 z" id="p3316" style="fill:#f8eed8;fill-opacity:0.25" />
<path d="m 13.33,15.48 c 0.07,0 2.33,6.55 2.39,6.60 0.04,0.04 6.99,0.15 7.02,0.21 0.01,0.07 -5.54,4.24 -5.57,4.32 -0.01,0.06 2.02,6.69 1.97,6.74 -0.06,0.04 -5.74,-3.95 -5.81,-3.95 -0.06,0 -5.75,3.99 -5.83,3.95 -0.04,-0.04 1.99,-6.68 1.97,-6.74 -0.03,-0.07 -5.58,-4.24 -5.55,-4.32 0.01,-0.06 6.96,-0.16 7.03,-0.21 0.04,-0.04 2.31,-6.60 2.37,-6.60 z" id="p3358" style="color:#000000;fill:#5b4726;stroke-width:1;stroke-linecap:butt;stroke-linejoin:miter;stroke-miterlimit:4;" />
<path d="m 13.33,14.65 c 0.07,0 2.33,6.55 2.39,6.60 0.04,0.03 6.99,0.15 7.02,0.21 0.01,0.07 -5.54,4.24 -5.57,4.30 -0.01,0.07 2.02,6.71 1.97,6.75 -0.06,0.03 -5.74,-3.95 -5.81,-3.95 -0.06,0 -5.75,3.98 -5.83,3.95 -0.04,-0.04 1.99,-6.68 1.97,-6.75 -0.03,-0.06 -5.58,-4.22 -5.55,-4.30 0.01,-0.06 6.96,-0.18 7.03,-0.21 0.04,-0.04 2.31,-6.60 2.37,-6.60 z" id="p3356" style="color:#000000;fill:#493a1e;stroke-width:1;stroke-linecap:butt;stroke-linejoin:miter;stroke-miterlimit:4;" />
<path d="m 13.41,16.51 c 0.05,0 1.86,5.23 1.90,5.26 0.04,0.02 5.55,0.12 5.58,0.16 0.01,0.05 -4.40,3.37 -4.42,3.42 0,0.05 1.60,5.33 1.56,5.37 -0.04,0.02 -4.57,-3.14 -4.62,-3.14 -0.05,0 -4.57,3.17 -4.62,3.14 -0.04,-0.04 1.56,-5.31 1.56,-5.37 -0.02,-0.05 -4.44,-3.37 -4.41,-3.42 0.01,-0.04 5.53,-0.14 5.58,-0.16 0.04,-0.02 1.83,-5.26 1.89,-5.26 z" id="p3360" style="color:#000000;fill:#c3a145;stroke-width:1px;marker:none;" />
<path d="M 35.78,6.74 C 35.18,7.07 34.44,7.08 33.84,6.74 33.25,6.40 32.92,5.77 32.90,5.11 27.04,2.38 20.45,2.60 14.94,5.28 14.92,5.97 14.60,6.63 14.00,6.97 13.41,7.31 12.69,7.27 12.09,6.96 9.67,8.65 7.59,10.89 6.01,13.62 c -1.64,2.85 -2.52,5.91 -2.73,8.99 0.00,0.00 0.01,0.01 0.02,0.01 0.56,0.35 0.91,0.92 0.91,1.60 1e-7,0.68 -0.34,1.28 -0.91,1.63 0.54,6.08 3.74,11.84 9.10,15.47 0.59,-0.32 1.32,-0.31 1.93,0.03 0.59,0.34 0.92,0.95 0.93,1.62 5.86,2.74 12.46,2.48 17.97,-0.19 0.00,-0.00 0.00,-0.02 0.01,-0.02 0.02,-0.66 0.34,-1.28 0.93,-1.62 0.58,-0.33 1.26,-0.31 1.84,-0.01 0.00,0.00 0.01,0.01 0.02,0.01 2.42,-1.69 4.53,-3.91 6.11,-6.64 1.64,-2.84 2.49,-5.93 2.71,-9.00 -0.56,-0.35 -0.92,-0.97 -0.92,-1.65 0,-0.68 0.34,-1.28 0.91,-1.63 C 44.35,16.12 41.16,10.36 35.78,6.74 z" id="path2995" style="fill:none;stroke:#7d5f26;stroke-width:0.5;stroke-opacity:1" />
<path d="M 17.97,5.77 C 17.65,5.88 17.32,5.98 17.01,6.11 l 0,14.47 c 0.08,0.00 0.71,0.02 0.96,0.03 l 0,-14.83 z M 15.61,6.71 C 15.28,6.87 14.96,7.05 14.64,7.23 l 0,7.87 c 0.40,1.13 0.59,1.67 0.96,2.72 l 0,-11.11 z m -2.36,1.36 c -0.32,0.22 -0.65,0.48 -0.96,0.72 l 0,6.75 c 0.43,-1.22 0.74,-2.12 0.96,-2.72 l 0,-4.75 z M 10.89,9.98 C 10.55,10.30 10.24,10.64 9.92,10.98 l 0,9.59 c 0.06,-0.00 0.53,0.00 0.54,0 0.00,-0.00 0.32,-0.89 0.42,-1.18 l 0,-9.41 z M 8.53,12.64 C 8.19,13.11 7.86,13.60 7.56,14.10 l 0,6.56 c 0.41,-0.01 0.64,-0.02 0.96,-0.03 l 0,-7.99 z m -2.36,4.23 c -0.40,1.01 -0.73,2.05 -0.96,3.14 l 0,0.69 c 0.37,-0.00 0.58,-0.02 0.96,-0.03 l 0,-3.81 z m -0.96,6.93 0,4.23 c 0.23,1.09 0.55,2.16 0.96,3.17 l 0,-6.66 C 5.74,24.24 5.68,24.18 5.20,23.82 z m 2.36,1.81 0,4.20 C 8.03,28.26 8.52,26.58 8.53,26.48 l 0,-0.12 C 8.51,26.34 7.79,25.81 7.56,25.63 z m 5.69,4.57 c -0.07,0.04 -0.69,0.48 -0.96,0.66 l 0,8.44 c 0.31,0.24 0.63,0.50 0.96,0.72 l 0,-9.83 z m 1.39,0.57 0,10.11 c 0.31,0.17 0.64,0.32 0.96,0.48 l 0,-9.92 c -0.38,-0.26 -0.71,-0.49 -0.96,-0.66 z m -3.75,1.02 c -0.44,0.30 -0.48,0.33 -0.96,0.66 l 0,4.66 c 0.31,0.34 0.63,0.68 0.96,0.99 l 0,-6.32 z m 6.11,0.57 0,9.59 c 0.31,0.12 0.64,0.25 0.96,0.36 l 0,-9.29 C 17.59,32.79 17.39,32.65 17.01,32.38 z m -8.47,1.05 c -0.30,0.20 -0.63,0.42 -0.90,0.60 0.28,0.47 0.57,0.94 0.90,1.39 l 0,-1.99 z" id="path2997" style="font-size:medium;font-style:normal;text-indent:0;text-align:start;text-decoration:none;line-height:normal;letter-spacing:normal;word-spacing:normal;text-transform:none;direction:ltr;block-progression:tb;writing-mode:lr-tb;text-anchor:start;baseline-shift:baseline;color:#000000;fill:#805e15;stroke-width:1px;marker:none;font-family:Sans;-inkscape-font-specification:Sans" />
<g transform="matrix(0.73,0,-0.19,0.73,21.65,7.10)" id="text3951" style="line-height:125%;letter-spacing:0px;word-spacing:0px;color:#000000;fill:#5b4726;stroke-width:1.04;marker:none;font-family:FreeSerif;-inkscape-font-specification:FreeSerif">
<path d="m 28.78,17.01 c -1.92,-0.05 -3.70,1.14 -4.64,2.79 -1.57,2.61 -1.76,5.84 -1.26,8.79 0.41,2.13 1.37,4.35 3.30,5.53 1.99,1.22 4.79,0.74 6.30,-1.03 1.82,-2.06 2.29,-4.95 2.22,-7.62 -0.05,-2.49 -0.65,-5.15 -2.45,-6.98 -0.90,-0.92 -2.17,-1.48 -3.47,-1.47 z m -0.06,1.84 c 1.05,0.00 1.58,1.11 1.85,1.98 0.70,2.31 0.68,4.78 0.56,7.17 -0.14,1.51 -0.27,3.15 -1.21,4.41 -0.69,0.85 -2.22,0.66 -2.69,-0.33 -0.88,-1.60 -0.95,-3.50 -1.03,-5.29 -0.01,-2.17 -0.00,-4.41 0.79,-6.46 0.29,-0.73 0.86,-1.49 1.74,-1.46 z" id="path3958" style="color:#000000;fill:#5b4726;stroke-width:1.04;marker:none;" />
</g>
<g transform="matrix(0.73,0,-0.19,0.73,21.36,6.70)" id="g3979" style="line-height:125%;letter-spacing:0px;word-spacing:0px;color:#000000;fill:#493a1e;stroke-width:1.04;marker:none;font-family:FreeSerif;-inkscape-font-specification:FreeSerif">
<path d="m 28.78,17.01 c -1.92,-0.05 -3.70,1.14 -4.64,2.79 -1.57,2.61 -1.76,5.84 -1.26,8.79 0.41,2.13 1.37,4.35 3.30,5.53 1.99,1.22 4.79,0.74 6.30,-1.03 1.82,-2.06 2.29,-4.95 2.22,-7.62 -0.05,-2.49 -0.65,-5.15 -2.45,-6.98 -0.90,-0.92 -2.17,-1.48 -3.47,-1.47 z m -0.06,1.84 c 1.05,0.00 1.58,1.11 1.85,1.98 0.70,2.31 0.68,4.78 0.56,7.17 -0.14,1.51 -0.27,3.15 -1.21,4.41 -0.69,0.85 -2.22,0.66 -2.69,-0.33 -0.88,-1.60 -0.95,-3.50 -1.03,-5.29 -0.01,-2.17 -0.00,-4.41 0.79,-6.46 0.29,-0.73 0.86,-1.49 1.74,-1.46 z" id="path3981" style="color:#000000;fill:#493a1e;stroke-width:1.04;marker:none;" />
</g>
<path d="m 39.25,19.62 c -1.24,-0.03 -2.69,0.78 -3.63,1.91 -1.59,1.84 -2.32,4.13 -2.51,6.24 -0.10,1.50 0.17,2.98 1.19,3.73 1.02,0.74 3.01,0.46 4.35,-0.74 1.65,-1.44 2.54,-3.49 2.99,-5.40 0.42,-1.78 0.45,-3.63 -0.40,-4.83 -0.41,-0.57 -1.11,-0.91 -1.96,-0.90 l -0.02,0 z m -0.38,0.57 c 0.00,5.7e-5 0.01,-2.17e-4 0.02,0 0.51,0.01 0.91,0.35 1.10,0.71 0.18,0.36 0.22,0.77 0.23,1.12 0.07,1.78 -0.42,3.63 -0.98,5.40 -0.39,1.11 -0.82,2.39 -1.84,3.39 -0.42,0.39 -0.96,0.56 -1.45,0.50 -0.48,-0.06 -0.94,-0.39 -1.07,-0.90 -0.00,-0.00 0.00,-0.02 0,-0.02 -0.37,-1.31 -0.04,-2.75 0.23,-4.06 l 0,-0.02 c 0.40,-1.60 0.84,-3.28 1.86,-4.85 0.38,-0.58 1.03,-1.28 1.89,-1.26 z" id="path4011" style="line-height:125%;letter-spacing:0px;word-spacing:0px;color:#000000;fill:#c3a145;stroke-width:1.04;marker:none;font-family:FreeSerif;-inkscape-font-specification:FreeSerif" />
<path d="M 36.57,5.57 C 35.92,5.93 35.14,5.97 34.49,5.60 33.86,5.23 33.51,4.55 33.49,3.83 27.25,0.92 20.22,1.15 14.34,4.00 14.34,4.74 13.97,5.45 13.32,5.83 12.69,6.19 11.92,6.15 11.28,5.80 8.70,7.61 6.44,9.99 4.77,12.90 c -1.74,3.02 -2.69,6.29 -2.92,9.56 0.02,0.01 0.05,0.02 0.08,0.04 0.60,0.37 0.97,1.02 0.97,1.75 -10e-8,0.72 -0.40,1.35 -1,1.73 7.58e-4,0.00 -0.01,0.01 -0.01,0.02 0.58,6.50 3.99,12.65 9.73,16.51 0.63,-0.36 1.42,-0.40 2.07,-0.02 0.63,0.36 0.98,1.05 0.99,1.76 6.26,2.92 13.30,2.68 19.19,-0.17 0.00,-0.73 0.35,-1.42 1.00,-1.80 0.62,-0.36 1.36,-0.33 1.98,-0.00 0.01,0.00 0.03,0.02 0.05,0.03 2.58,-1.80 4.80,-4.20 6.48,-7.11 1.75,-3.03 2.71,-6.31 2.94,-9.59 -0.64,-0.36 -1.06,-1.01 -1.06,-1.77 0,-0.72 0.40,-1.35 1,-1.73 0.00,-0.00 0.00,-0.02 0.01,-0.02 C 45.72,15.58 42.31,9.43 36.57,5.57 z" id="path3000" style="color:#000000;fill:none;stroke:#524326;stroke-width:0.5;stroke-linecap:butt;stroke-linejoin:miter;stroke-miterlimit:4;" />
<text x="45.30" y="31.67" id="text2994" xml:space="preserve" style="line-height:125%;letter-spacing:0px;word-spacing:0px;fill:#000000;">
<tspan x="45.30" y="31.67" id="tspan2996" />
</text>
<g transform="translate(82.52,10.11)" id="g3857" style="line-height:125%;letter-spacing:0px;word-spacing:0px;color:#000000;fill:none;stroke:#000000;stroke-width:1;font-family:FreeSerif;-inkscape-font-specification:FreeSerif" />
<path d="m 29.63,19.14 c -1.23,-0.04 -2.62,0.75 -3.39,2.06 -0.40,0.63 -0.74,1.32 -0.95,2.02 0.01,0.26 0.32,0.21 0.48,0.29 0.27,-0.01 0.32,-0.44 0.49,-0.64 0.44,-0.78 1.03,-1.68 1.87,-1.82 0.93,-0.21 1.90,0.20 2.15,1.19 0.27,1.16 -0.26,2.51 -0.92,3.60 -1.01,1.66 -2.44,2.90 -3.74,4.26 -0.60,0.62 -1.22,1.23 -1.82,1.86 -0.09,0.20 -0.13,0.57 0.11,0.54 2.15,-0.00 4.31,0.00 6.47,-0.00 0.22,-0.09 0.27,-0.42 0.41,-0.62 0.37,-0.73 0.76,-1.46 1.12,-2.19 0.04,-0.24 -0.21,-0.30 -0.36,-0.35 -0.32,0.09 -0.46,0.59 -0.74,0.81 -0.45,0.58 -1.08,0.41 -1.62,0.44 -0.95,0 -1.91,0 -2.87,0 1.18,-1.20 2.40,-2.36 3.56,-3.59 1.17,-1.30 2.30,-2.95 2.43,-4.73 0.10,-1.75 -1.07,-3.16 -2.60,-3.15 l -0.08,-0.00 z" id="path3176-9" style="line-height:125%;letter-spacing:0px;word-spacing:0px;color:#000000;fill:#5b4726;stroke-width:0.76;marker:none;font-family:FreeSerif;-inkscape-font-specification:FreeSerif" />
<path d="m 29.45,19.14 c -1.19,-0.04 -2.53,0.72 -3.27,1.99 -0.38,0.60 -0.71,1.27 -0.92,1.95 0.01,0.25 0.31,0.21 0.47,0.28 0.26,-0.01 0.31,-0.42 0.47,-0.61 0.43,-0.75 1.00,-1.62 1.81,-1.75 0.90,-0.20 1.83,0.20 2.07,1.15 0.26,1.12 -0.25,2.42 -0.89,3.48 -0.97,1.60 -2.36,2.79 -3.61,4.11 -0.58,0.60 -1.18,1.19 -1.76,1.80 -0.09,0.19 -0.13,0.55 0.11,0.52 2.08,-0.00 4.16,0.00 6.24,-0.00 0.22,-0.08 0.26,-0.40 0.40,-0.60 0.35,-0.70 0.74,-1.40 1.08,-2.12 0.04,-0.23 -0.20,-0.29 -0.35,-0.34 -0.31,0.09 -0.44,0.57 -0.71,0.78 -0.43,0.56 -1.05,0.40 -1.56,0.42 -0.92,0 -1.85,0 -2.77,0 1.14,-1.15 2.32,-2.28 3.44,-3.47 1.13,-1.26 2.22,-2.85 2.34,-4.56 0.10,-1.69 -1.04,-3.05 -2.51,-3.04 l -0.08,-9.91e-4 z" id="path3155-7" style="line-height:125%;letter-spacing:0px;word-spacing:0px;color:#000000;fill:#493a1e;stroke-width:0.76;marker:none;font-family:FreeSerif;-inkscape-font-specification:FreeSerif" />
<path d="m 29.45,19.42 c -1.06,-0.03 -2.32,0.67 -3.01,1.85 l -0.01,0 0,0.01 c -0.35,0.55 -0.62,1.15 -0.82,1.76 0.02,0.00 0.07,0.02 0.12,0.03 0.01,-0.01 0.01,-0.04 0.03,-0.08 0.04,-0.08 0.09,-0.23 0.19,-0.37 0.00,-0.01 0.02,-0.03 0.03,-0.05 0.43,-0.75 1.01,-1.65 1.95,-1.83 l 0,-0.01 c 0.00,-0.00 0.01,0.00 0.01,0 1.02,-0.22 2.12,0.26 2.40,1.36 l 0,0.01 c 0.29,1.25 -0.26,2.59 -0.91,3.68 -1.00,1.65 -2.42,2.86 -3.66,4.16 -0.56,0.58 -1.15,1.14 -1.70,1.72 -0.00,0.00 0.00,0.01 0,0.01 -0.01,0.03 -0.01,0.06 -0.01,0.10 2.01,-0.00 4.02,-0.00 6.03,-0.01 0.01,-0.00 0.03,-0.01 0.07,-0.08 0.04,-0.08 0.07,-0.21 0.16,-0.34 0.00,-0.00 0.01,-0.01 0.01,-0.01 0.00,-0.00 -0.00,-0.01 0,-0.01 0.33,-0.66 0.68,-1.31 1.00,-1.97 -0.04,0.03 -0.10,0.06 -0.17,0.17 -0.08,0.13 -0.18,0.30 -0.34,0.44 -0.00,0.00 -0.01,0.01 -0.01,0.01 -0.01,0.01 -0.02,0.02 -0.03,0.03 l -0.01,-0.01 c -0.25,0.29 -0.58,0.44 -0.88,0.48 -0.32,0.03 -0.60,0.00 -0.82,0.01 l -0.01,0 -2.78,0 -0.68,0 0.48,-0.48 c 1.15,-1.16 2.31,-2.28 3.43,-3.46 1.11,-1.23 2.16,-2.77 2.28,-4.38 0.09,-1.55 -0.93,-2.75 -2.22,-2.74 l -0.08,0 z" id="path3969-5" style="line-height:125%;letter-spacing:0px;word-spacing:0px;color:#000000;fill:#c3a145;stroke-width:1.04;marker:none;font-family:FreeSerif;-inkscape-font-specification:FreeSerif" />
</svg>