<?xml version="1.0" encoding="UTF-8" standalone="no"?>
<!-- Created with Inkscape (http://www.inkscape.org/) -->
<svg xmlns:dc="http://purl.org/dc/elements/1.1/" xmlns:cc="http://creativecommons.org/ns#" xmlns:rdf="http://www.w3.org/1999/02/22-rdf-syntax-ns#" xmlns:svg="http://www.w3.org/2000/svg" xmlns="http://www.w3.org/2000/svg" version="1.0" width="100%" height="100%" viewBox="0 0 48 48" id="svg2383">
<defs id="defs2385" />
<path d="m 24.45,1.02 c -0.76,0 -1.45,0.30 -1.94,0.80 -0.62,0.04 -1.23,0.09 -1.84,0.19 C 20.03,1.64 19.25,1.50 18.48,1.70 17.74,1.90 17.15,2.38 16.80,3.00 16.22,3.20 15.64,3.43 15.08,3.68 14.38,3.46 13.57,3.54 12.88,3.94 12.22,4.32 11.80,4.94 11.62,5.62 11.11,5.96 10.63,6.35 10.16,6.73 9.40,6.69 8.63,6.92 8.05,7.50 7.49,8.06 7.22,8.81 7.24,9.54 6.86,9.98 6.49,10.44 6.14,10.90 5.42,11.06 4.76,11.53 4.36,12.23 3.97,12.90 3.91,13.63 4.10,14.31 3.83,14.87 3.58,15.44 3.35,16.02 2.69,16.37 2.17,16.96 1.96,17.74 1.76,18.48 1.87,19.23 2.22,19.85 c -0.11,0.58 -0.19,1.21 -0.25,1.81 -0.55,0.49 -0.90,1.19 -0.90,2.00 -4e-7,0.76 0.32,1.43 0.84,1.94 0.04,0.61 0.10,1.24 0.19,1.84 -0.40,0.63 -0.56,1.43 -0.35,2.20 0.20,0.74 0.69,1.33 1.32,1.68 0.20,0.58 0.43,1.15 0.68,1.71 -0.22,0.70 -0.17,1.51 0.22,2.20 0.38,0.67 0.98,1.11 1.68,1.29 0.34,0.50 0.74,0.98 1.13,1.45 -0.04,0.74 0.17,1.50 0.74,2.07 0.55,0.55 1.29,0.79 2.00,0.77 0.45,0.39 0.93,0.77 1.42,1.13 0.15,0.72 0.56,1.37 1.26,1.78 0.65,0.37 1.42,0.46 2.10,0.29 0.55,0.27 1.13,0.52 1.71,0.74 0.34,0.67 0.96,1.21 1.74,1.42 0.75,0.20 1.52,0.05 2.13,-0.32 0.58,0.11 1.17,0.19 1.78,0.25 0.50,0.53 1.21,0.87 2.00,0.87 0.77,0 1.47,-0.30 1.97,-0.80 0.61,-0.04 1.21,-0.10 1.81,-0.19 0.63,0.39 1.42,0.53 2.20,0.32 0.73,-0.19 1.30,-0.68 1.65,-1.29 0.58,-0.20 1.15,-0.43 1.71,-0.68 0.70,0.23 1.50,0.17 2.20,-0.22 0.66,-0.38 1.07,-0.99 1.26,-1.68 0.50,-0.34 0.98,-0.72 1.45,-1.10 0.75,0.03 1.53,-0.20 2.10,-0.77 0.55,-0.55 0.81,-1.28 0.80,-2.00 0.39,-0.45 0.77,-0.93 1.13,-1.42 0.73,-0.16 1.37,-0.62 1.78,-1.32 0.38,-0.66 0.47,-1.39 0.29,-2.07 0.26,-0.54 0.52,-1.11 0.74,-1.68 0.65,-0.35 1.18,-0.95 1.39,-1.71 0.19,-0.74 0.03,-1.49 -0.32,-2.10 0.11,-0.60 0.22,-1.22 0.29,-1.84 0.54,-0.50 0.87,-1.21 0.87,-2.00 0,-0.76 -0.30,-1.44 -0.80,-1.94 -0.04,-0.62 -0.09,-1.26 -0.19,-1.87 0.38,-0.62 0.52,-1.40 0.32,-2.17 -0.19,-0.74 -0.67,-1.33 -1.29,-1.68 -0.20,-0.57 -0.43,-1.16 -0.68,-1.71 0.21,-0.69 0.13,-1.48 -0.25,-2.17 -0.38,-0.66 -0.99,-1.08 -1.68,-1.26 C 42.17,11.06 41.82,10.55 41.42,10.06 41.44,9.33 41.20,8.58 40.64,8.02 40.09,7.46 39.33,7.19 38.60,7.21 38.16,6.83 37.71,6.45 37.24,6.11 37.09,5.37 36.66,4.71 35.95,4.30 35.29,3.92 34.52,3.86 33.84,4.04 33.28,3.76 32.71,3.52 32.12,3.29 31.77,2.62 31.18,2.07 30.41,1.87 29.65,1.66 28.89,1.82 28.27,2.19 27.68,2.08 27.06,1.96 26.45,1.90 25.95,1.36 25.24,1.02 24.45,1.02 z" id="p3302" style="fill:#d3bd61;fill-opacity:1" />
<path d="m 24.11,23.13 c -8.82,0 -16.70,1.96 -21.89,5.06 0.01,0.04 0.02,0.07 0.02,0.12 0.10,0.51 0.21,1.02 0.34,1.51 0.06,0.24 0.15,0.47 0.22,0.72 0.13,0.42 0.28,0.83 0.44,1.25 0.05,0.14 0.12,0.31 0.18,0.46 0.04,0.13 0.10,0.27 0.14,0.41 0.15,0.33 0.28,0.66 0.44,1.00 0.16,0.32 0.33,0.63 0.50,0.94 0.17,0.31 0.35,0.63 0.53,0.94 0.05,0.06 0.08,0.13 0.13,0.22 0.24,0.37 0.51,0.77 0.79,1.14 0.30,0.42 0.61,0.83 0.93,1.23 0.07,0.08 0.14,0.16 0.22,0.24 0.40,0.48 0.83,0.93 1.29,1.39 0.40,0.38 0.81,0.77 1.25,1.15 0.03,0.03 0.07,0.08 0.12,0.13 0.03,0.02 0.08,0.05 0.12,0.08 0.12,0.10 0.25,0.17 0.37,0.27 0.18,0.15 0.36,0.33 0.55,0.46 0.18,0.13 0.38,0.25 0.57,0.38 0.05,0.03 0.12,0.11 0.17,0.14 1.46,1.00 3.07,1.80 4.75,2.42 0.01,0.01 0.03,0.02 0.06,0.03 0.56,0.21 1.19,0.40 1.79,0.55 0.57,0.16 1.15,0.30 1.75,0.41 0.10,0.02 0.20,0.04 0.31,0.06 0.57,0.10 1.17,0.16 1.79,0.22 0.65,0.05 1.32,0.08 2.00,0.08 0.68,0 1.34,-0.03 2.01,-0.08 0.45,-0.04 0.90,-0.08 1.34,-0.16 0.28,-0.03 0.57,-0.10 0.85,-0.14 0.07,-0.02 0.15,-0.02 0.24,-0.03 0.48,-0.10 0.94,-0.22 1.41,-0.35 0.03,0 0.04,-0.01 0.06,-0.02 0.21,-0.06 0.44,-0.12 0.65,-0.18 0.40,-0.12 0.80,-0.26 1.19,-0.41 0.58,-0.22 1.14,-0.45 1.70,-0.72 0.05,-0.02 0.10,-0.03 0.15,-0.05 0.52,-0.26 1.04,-0.53 1.54,-0.82 0.42,-0.25 0.84,-0.50 1.25,-0.79 0.01,-0.01 0.01,-0.01 0.02,-0.02 0.28,-0.20 0.54,-0.40 0.82,-0.60 0.28,-0.22 0.56,-0.43 0.84,-0.65 0.10,-0.08 0.21,-0.16 0.31,-0.25 0.41,-0.34 0.81,-0.72 1.19,-1.09 0.01,-0.01 0.02,-0.02 0.03,-0.03 0.01,-0.02 0.02,-0.03 0.03,-0.04 0.51,-0.50 0.99,-1.04 1.44,-1.59 0.22,-0.27 0.44,-0.53 0.65,-0.81 0.17,-0.25 0.36,-0.51 0.53,-0.75 0.03,-0.05 0.06,-0.07 0.08,-0.13 0.20,-0.28 0.38,-0.60 0.57,-0.90 0.17,-0.31 0.35,-0.63 0.53,-0.94 0.16,-0.31 0.33,-0.62 0.50,-0.94 0.22,-0.46 0.40,-0.93 0.58,-1.41 0.05,-0.15 0.13,-0.32 0.18,-0.46 0.15,-0.41 0.31,-0.84 0.44,-1.25 0.06,-0.25 0.15,-0.47 0.22,-0.72 0.13,-0.50 0.24,-0.99 0.34,-1.51 0,-0.04 0.01,-0.07 0.02,-0.12 -5.19,-3.08 -13.04,-5.06 -21.86,-5.06 z" id="p3304" style="fill:#875a2a;fill-opacity:0.15" />
<path d="m 31.36,40.40 c -0.72,2.91 -6.54,3.96 -12.99,2.34 C 11.91,41.14 7.26,37.47 7.99,34.56 8.72,31.66 14.54,30.61 20.99,32.22 c 6.45,1.61 11.10,5.27 10.37,8.17 z" id="p3312" style="fill:#703c0f;fill-opacity:0.13" />
<path d="m 24.11,1.78 c -9.06,0 -16.88,5.43 -20.35,13.22 2.47,5.13 10.19,7.54 18.16,5.40 C 30.58,18.08 36.27,11.25 34.63,5.14 34.56,4.84 34.47,4.57 34.36,4.28 31.27,2.69 27.81,1.78 24.11,1.78 z" id="p3316" style="fill:#f8eed8;fill-opacity:0.25" />
<path d="m 24.45,1.02 c -0.76,0 -1.45,0.30 -1.94,0.80 -0.62,0.04 -1.23,0.09 -1.84,0.19 C 20.03,1.64 19.25,1.50 18.48,1.70 17.74,1.90 17.15,2.38 16.80,3.00 16.22,3.20 15.64,3.43 15.08,3.68 14.38,3.46 13.57,3.54 12.88,3.94 12.22,4.32 11.80,4.94 11.62,5.62 11.11,5.96 10.63,6.35 10.16,6.73 9.40,6.69 8.63,6.92 8.05,7.50 7.49,8.06 7.22,8.81 7.24,9.54 6.86,9.98 6.49,10.44 6.14,10.90 c -0.72,0.15 -1.37,0.62 -1.78,1.32 -0.38,0.66 -0.44,1.39 -0.25,2.07 -0.27,0.55 -0.51,1.13 -0.74,1.71 -0.66,0.35 -1.18,0.93 -1.39,1.71 -0.19,0.73 -0.09,1.49 0.25,2.10 -0.11,0.58 -0.19,1.21 -0.25,1.81 -0.55,0.49 -0.90,1.19 -0.90,2.00 -4e-7,0.76 0.32,1.43 0.84,1.94 0.04,0.61 0.10,1.24 0.19,1.84 -0.40,0.63 -0.56,1.43 -0.35,2.20 0.20,0.74 0.69,1.33 1.32,1.68 0.20,0.58 0.43,1.15 0.68,1.71 -0.22,0.70 -0.17,1.51 0.22,2.20 0.38,0.67 0.98,1.11 1.68,1.29 0.34,0.50 0.74,0.98 1.13,1.45 -0.04,0.74 0.17,1.50 0.74,2.07 0.55,0.55 1.29,0.79 2.00,0.77 0.45,0.39 0.93,0.77 1.42,1.13 0.15,0.72 0.56,1.37 1.26,1.78 0.65,0.37 1.42,0.46 2.10,0.29 0.55,0.27 1.13,0.52 1.71,0.74 0.34,0.67 0.96,1.21 1.74,1.42 0.75,0.20 1.52,0.05 2.13,-0.32 0.58,0.11 1.17,0.19 1.78,0.25 0.50,0.53 1.21,0.87 2.00,0.87 0.77,0 1.47,-0.30 1.97,-0.80 0.61,-0.04 1.21,-0.10 1.81,-0.19 0.63,0.39 1.42,0.53 2.20,0.32 0.73,-0.19 1.30,-0.68 1.65,-1.29 0.58,-0.20 1.15,-0.43 1.71,-0.68 0.70,0.23 1.50,0.17 2.20,-0.22 0.66,-0.38 1.07,-0.99 1.26,-1.68 0.50,-0.34 0.98,-0.72 1.45,-1.10 0.75,0.03 1.53,-0.20 2.10,-0.77 0.55,-0.55 0.81,-1.28 0.80,-2.00 0.39,-0.45 0.77,-0.93 1.13,-1.42 0.73,-0.16 1.37,-0.62 1.78,-1.32 0.38,-0.66 0.47,-1.39 0.29,-2.07 0.26,-0.54 0.52,-1.11 0.74,-1.68 0.65,-0.35 1.18,-0.95 1.39,-1.71 0.19,-0.74 0.03,-1.49 -0.32,-2.10 0.11,-0.60 0.22,-1.22 0.29,-1.84 0.54,-0.50 0.87,-1.21 0.87,-2.00 0,-0.76 -0.30,-1.44 -0.80,-1.94 -0.04,-0.62 -0.09,-1.26 -0.19,-1.87 0.38,-0.62 0.52,-1.40 0.32,-2.17 -0.19,-0.74 -0.67,-1.33 -1.29,-1.68 -0.20,-0.57 -0.43,-1.16 -0.68,-1.71 0.21,-0.69 0.13,-1.48 -0.25,-2.17 -0.38,-0.66 -0.99,-1.08 -1.68,-1.26 C 42.17,11.06 41.82,10.55 41.42,10.06 41.44,9.33 41.20,8.58 40.64,8.02 40.09,7.46 39.33,7.19 38.60,7.21 38.16,6.83 37.71,6.45 37.24,6.11 37.09,5.37 36.66,4.71 35.95,4.30 35.29,3.92 34.52,3.86 33.84,4.04 33.28,3.76 32.71,3.52 32.12,3.29 31.77,2.62 31.18,2.07 30.41,1.87 29.65,1.66 28.89,1.82 28.27,2.19 27.68,2.08 27.06,1.96 26.45,1.90 25.95,1.36 25.24,1.02 24.45,1.02 z" id="p2480" style="fill:none;stroke:#524326;stroke-width:0.5" />
<path d="m 27.17,20.50 c -1.04,0.07 -2.08,0.45 -3.12,0.74 0.01,-0.33 0.20,-0.58 0.65,-0.66 2.54,-0.96 5.09,-1.92 7.62,-2.89 0.51,-0.02 0.16,0.42 0.12,0.70 -0.67,2.48 -3.25,11.84 -3.85,14.05 -0.30,0.89 0.38,1.59 1.42,1.59 0.46,0.27 2.04,-0.24 1.85,0.40 0.00,0.39 -0.57,0.14 -0.87,0.21 -3.44,0 -6.90,0 -10.36,0 -0.05,-0.64 0.61,-0.52 1.19,-0.56 1.02,-0.07 2.40,-0.28 2.95,-1.25 0.65,-1.14 0.79,-2.34 1.16,-3.50 0.51,-1.86 1.66,-6.04 2.04,-7.43 0.17,-0.60 0.08,-1.43 -0.83,-1.39 l 0,0 z" id="p3333" style="fill:#5b4726;font-family:FreeSerif;-inkscape-font-specification:FreeSerif" />
<path d="m 13.33,15.48 c 0.07,0 2.33,6.55 2.39,6.60 0.04,0.04 6.99,0.15 7.02,0.21 0.01,0.07 -5.54,4.24 -5.57,4.32 -0.01,0.06 2.02,6.69 1.97,6.74 -0.06,0.04 -5.74,-3.95 -5.81,-3.95 -0.06,0 -5.75,3.99 -5.83,3.95 -0.04,-0.04 1.99,-6.68 1.97,-6.74 -0.03,-0.07 -5.58,-4.24 -5.55,-4.32 0.01,-0.06 6.96,-0.16 7.03,-0.21 0.04,-0.04 2.31,-6.60 2.37,-6.60 z" id="p3358" style="color:#000000;fill:#5b4726;stroke-width:1;stroke-linecap:butt;stroke-linejoin:miter;stroke-miterlimit:4;" />
<path d="m 13.33,14.65 c 0.07,0 2.33,6.55 2.39,6.60 0.04,0.03 6.99,0.15 7.02,0.21 0.01,0.07 -5.54,4.24 -5.57,4.30 -0.01,0.07 2.02,6.71 1.97,6.75 -0.06,0.03 -5.74,-3.95 -5.81,-3.95 -0.06,0 -5.75,3.98 -5.83,3.95 -0.04,-0.04 1.99,-6.68 1.97,-6.75 -0.03,-0.06 -5.58,-4.22 -5.55,-4.30 0.01,-0.06 6.96,-0.18 7.03,-0.21 0.04,-0.04 2.31,-6.60 2.37,-6.60 z" id="p3356" style="color:#000000;fill:#493a1e;stroke-width:1;stroke-linecap:butt;stroke-linejoin:miter;stroke-miterlimit:4;" />
<path d="m 13.41,16.51 c 0.05,0 1.86,5.23 1.90,5.26 0.04,0.02 5.55,0.12 5.58,0.16 0.01,0.05 -4.40,3.37 -4.42,3.42 0,0.05 1.60,5.33 1.56,5.37 -0.04,0.02 -4.57,-3.14 -4.62,-3.14 -0.05,0 -4.57,3.17 -4.62,3.14 -0.04,-0.04 1.56,-5.31 1.56,-5.37 -0.02,-0.05 -4.44,-3.37 -4.41,-3.42 0.01,-0.04 5.53,-0.14 5.58,-0.16 0.04,-0.02 1.83,-5.26 1.89,-5.26 z" id="p3360" style="color:#000000;fill:#c3a145;stroke-width:1px;marker:none;" />
<path d="m 26.87,20.18 c -1.04,0.07 -2.08,0.44 -3.12,0.73 0.01,-0.33 0.20,-0.57 0.65,-0.65 2.54,-0.95 5.09,-1.90 7.62,-2.85 0.51,-0.02 0.16,0.41 0.12,0.69 -0.67,2.44 -3.25,11.68 -3.85,13.85 -0.30,0.88 0.38,1.57 1.42,1.57 0.46,0.27 2.04,-0.23 1.85,0.40 0.00,0.39 -0.57,0.14 -0.87,0.21 -3.44,0 -6.90,0 -10.36,0 -0.05,-0.63 0.61,-0.52 1.19,-0.55 1.02,-0.07 2.40,-0.28 2.95,-1.24 0.65,-1.12 0.79,-2.31 1.16,-3.45 0.51,-1.84 1.66,-5.95 2.04,-7.33 0.17,-0.59 0.08,-1.41 -0.83,-1.37 l 0,0 z" id="path3880" style="fill:#493a1e;font-family:FreeSerif;-inkscape-font-specification:FreeSerif" />
<path d="m 44.98,24.06 c 0,11.52 -9.35,20.87 -20.88,20.87 -11.53,0 -20.88,-9.35 -20.88,-20.87 0,-11.53 9.35,-20.88 20.88,-20.88 11.53,0 20.88,9.35 20.88,20.88 z" id="path2995" style="fill:none;stroke:#7d5f26;stroke-width:0.5;stroke-opacity:1" />
<path d="M 17.97,5.77 C 17.65,5.88 17.32,5.98 17.01,6.11 l 0,14.47 c 0.08,0.00 0.71,0.02 0.96,0.03 l 0,-14.83 z M 15.61,6.71 C 15.28,6.87 14.96,7.05 14.64,7.23 l 0,7.87 c 0.40,1.13 0.59,1.67 0.96,2.72 l 0,-11.11 z m -2.36,1.36 c -0.32,0.22 -0.65,0.48 -0.96,0.72 l 0,6.75 c 0.43,-1.22 0.74,-2.12 0.96,-2.72 l 0,-4.75 z M 10.89,9.98 C 10.55,10.30 10.24,10.64 9.92,10.98 l 0,9.59 c 0.06,-0.00 0.53,0.00 0.54,0 0.00,-0.00 0.32,-0.89 0.42,-1.18 l 0,-9.41 z M 8.53,12.64 C 8.19,13.11 7.86,13.60 7.56,14.10 l 0,6.56 c 0.41,-0.01 0.64,-0.02 0.96,-0.03 l 0,-7.99 z m -2.36,4.23 c -0.40,1.01 -0.73,2.05 -0.96,3.14 l 0,0.69 c 0.37,-0.00 0.58,-0.02 0.96,-0.03 l 0,-3.81 z m -0.96,6.93 0,4.23 c 0.23,1.09 0.55,2.16 0.96,3.17 l 0,-6.66 C 5.74,24.24 5.68,24.18 5.20,23.82 z m 2.36,1.81 0,4.20 C 8.03,28.26 8.52,26.58 8.53,26.48 l 0,-0.12 C 8.51,26.34 7.79,25.81 7.56,25.63 z m 5.69,4.57 c -0.07,0.04 -0.69,0.48 -0.96,0.66 l 0,8.44 c 0.31,0.24 0.63,0.50 0.96,0.72 l 0,-9.83 z m 1.39,0.57 0,10.11 c 0.31,0.17 0.64,0.32 0.96,0.48 l 0,-9.92 c -0.38,-0.26 -0.71,-0.49 -0.96,-0.66 z m -3.75,1.02 c -0.44,0.30 -0.48,0.33 -0.96,0.66 l 0,4.66 c 0.31,0.34 0.63,0.68 0.96,0.99 l 0,-6.32 z m 6.11,0.57 0,9.59 c 0.31,0.12 0.64,0.25 0.96,0.36 l 0,-9.29 C 17.59,32.79 17.39,32.65 17.01,32.38 z m -8.47,1.05 c -0.30,0.20 -0.63,0.42 -0.90,0.60 0.28,0.47 0.57,0.94 0.90,1.39 l 0,-1.99 z" id="path2997" style="font-size:medium;font-style:normal;text-indent:0;text-align:start;text-decoration:none;line-height:normal;letter-spacing:normal;word-spacing:normal;text-transform:none;direction:ltr;block-progression:tb;writing-mode:lr-tb;text-anchor:start;baseline-shift:baseline;color:#000000;fill:#805e15;stroke-width:1px;marker:none;font-family:Sans;-inkscape-font-specification:Sans" />
<path d="m 31.66,18.06 c -1.54,0.58 -3.10,1.14 -4.66,1.72 0.50,0.05 0.99,0.28 1.15,0.66 0.17,0.43 0.13,0.86 0.03,1.24 -0.38,1.37 -1.54,5.48 -2.05,7.32 -0.34,1.09 -0.50,2.34 -1.21,3.57 -0.32,0.57 -0.89,0.85 -1.45,1.05 l 5.32,0 c -0.20,-0.09 -0.48,-0.07 -0.63,-0.24 -0.37,-0.39 -0.49,-1.02 -0.30,-1.60 l -0.03,0 c 0.60,-2.15 3.14,-11.22 3.84,-13.74 z" id="path3815" style="color:#000000;fill:#c3a145;stroke-width:1px;marker:none;font-family:FreeSerif;-inkscape-font-specification:FreeSerif" />
<g transform="matrix(0.93,0,-0.24,0.93,17.11,2.08)" id="text3951" style="line-height:125%;letter-spacing:0px;word-spacing:0px;color:#000000;fill:#5b4726;stroke-width:1.04;marker:none;font-family:FreeSerif;-inkscape-font-specification:FreeSerif">
<path d="m 28.78,17.01 c -1.92,-0.05 -3.70,1.14 -4.64,2.79 -1.57,2.61 -1.76,5.84 -1.26,8.79 0.41,2.13 1.37,4.35 3.30,5.53 1.99,1.22 4.79,0.74 6.30,-1.03 1.82,-2.06 2.29,-4.95 2.22,-7.62 -0.05,-2.49 -0.65,-5.15 -2.45,-6.98 -0.90,-0.92 -2.17,-1.48 -3.47,-1.47 z m -0.06,1.84 c 1.05,0.00 1.58,1.11 1.85,1.98 0.70,2.31 0.68,4.78 0.56,7.17 -0.14,1.51 -0.27,3.15 -1.21,4.41 -0.69,0.85 -2.22,0.66 -2.69,-0.33 -0.88,-1.60 -0.95,-3.50 -1.03,-5.29 -0.01,-2.17 -0.00,-4.41 0.79,-6.46 0.29,-0.73 0.86,-1.49 1.74,-1.46 z" id="path3958" style="color:#000000;fill:#5b4726;stroke-width:1.04;marker:none;" />
</g>
<g transform="matrix(0.93,0,-0.24,0.93,16.74,1.58)" id="g3979" style="line-height:125%;letter-spacing:0px;word-spacing:0px;color:#000000;fill:#493a1e;stroke-width:1.04;marker:none;font-family:FreeSerif;-inkscape-font-specification:FreeSerif">
<path d="m 28.78,17.01 c -1.92,-0.05 -3.70,1.14 -4.64,2.79 -1.57,2.61 -1.76,5.84 -1.26,8.79 0.41,2.13 1.37,4.35 3.30,5.53 1.99,1.22 4.79,0.74 6.30,-1.03 1.82,-2.06 2.29,-4.95 2.22,-7.62 -0.05,-2.49 -0.65,-5.15 -2.45,-6.98 -0.90,-0.92 -2.17,-1.48 -3.47,-1.47 z m -0.06,1.84 c 1.05,0.00 1.58,1.11 1.85,1.98 0.70,2.31 0.68,4.78 0.56,7.17 -0.14,1.51 -0.27,3.15 -1.21,4.41 -0.69,0.85 -2.22,0.66 -2.69,-0.33 -0.88,-1.60 -0.95,-3.50 -1.03,-5.29 -0.01,-2.17 -0.00,-4.41 0.79,-6.46 0.29,-0.73 0.86,-1.49 1.74,-1.46 z" id="path3981" style="color:#000000;fill:#493a1e;stroke-width:1.04;marker:none;" />
</g>
<path d="m 39.38,17.91 c -1.57,-0.04 -3.41,0.99 -4.60,2.42 -2.02,2.33 -2.93,5.23 -3.17,7.90 -0.12,1.90 0.21,3.77 1.51,4.72 1.29,0.94 3.81,0.59 5.50,-0.93 2.09,-1.83 3.21,-4.41 3.78,-6.84 0.53,-2.25 0.57,-4.59 -0.51,-6.11 -0.52,-0.72 -1.41,-1.16 -2.48,-1.15 l -0.03,0 z m -0.48,0.72 c 0.01,7.2e-5 0.01,-2.75e-4 0.03,0 0.64,0.01 1.15,0.44 1.39,0.90 0.23,0.46 0.28,0.98 0.30,1.42 0.10,2.26 -0.54,4.59 -1.24,6.84 -0.49,1.40 -1.04,3.03 -2.33,4.29 -0.53,0.49 -1.22,0.71 -1.84,0.63 -0.61,-0.08 -1.20,-0.49 -1.36,-1.15 -0.00,-0.00 0.00,-0.02 0,-0.03 -0.47,-1.66 -0.05,-3.49 0.30,-5.14 l 0,-0.03 c 0.51,-2.02 1.07,-4.15 2.36,-6.14 0.49,-0.74 1.30,-1.62 2.39,-1.60 z" id="path4011" style="line-height:125%;letter-spacing:0px;word-spacing:0px;color:#000000;fill:#c3a145;stroke-width:1.04;marker:none;font-family:FreeSerif;-inkscape-font-specification:FreeSerif" />
</svg>