<?xml version="1.0" encoding="UTF-8" standalone="no"?>
<!-- Created with Inkscape (http://www.inkscape.org/) -->
<svg   xmlns:svg="http://www.w3.org/2000/svg"   xmlns="http://www.w3.org/2000/svg"   version="1.0"   width="100%"   height="100%"   viewBox="0 0 96 48"   id="svg2383">
<defs id="defs2385" />
<rect width="83.50" height="43.97" x="6.19" y="1.98" id="r2472" style="opacity:1;fill:#fafafc;" />
<path d="M 81.18,1.96 L 81.18,45.96 L 87,45.96 L 87,1.96 L 81.18,1.96 z" id="rect3287" style="opacity:1;fill:#c5bcbc;stroke-width:0.49;stroke-linecap:butt;stroke-linejoin:miter;marker:none;marker-start:none;marker-mid:none;marker-end:none;stroke-miterlimit:4;" />
<path d="M 26.31,1.96 L 26.31,45.96 L 75.46,45.96 L 75.46,1.96 L 26.31,1.96 z" id="path3264" style="fill:#f1d2d2;fill-rule:evenodd;stroke-width:1px;stroke-linecap:butt;stroke-linejoin:miter;stroke-opacity:1" />
<path d="M 53.56,11.15 C 46.90,11.21 40.25,15.57 40.25,24.09 C 40.25,37.10 40.25,44.41 40.25,45.96 L 66.90,45.96 C 66.90,42.96 66.90,38.15 66.90,24.09 C 66.90,15.34 60.22,11.09 53.56,11.15 z" id="path3269" style="fill:#fce6e2;fill-rule:evenodd;stroke-width:1px;stroke-linecap:butt;stroke-linejoin:miter;stroke-opacity:1" />
<path d="M 58.56,1.96 L 58.56,45.96 L 75.46,45.96 L 75.46,1.96 L 58.56,1.96 z" id="path3273" style="fill:#f7bdbd;fill-rule:evenodd;stroke-width:1px;stroke-linecap:butt;stroke-linejoin:miter;stroke-opacity:1" />
<path d="M 63.53,11.71 C 56.87,11.77 50.18,16.16 50.18,24.68 C 50.18,37.36 50.18,44.07 50.18,45.96 L 75.46,45.96 L 75.46,42.40 L 78.78,42.40 L 78.56,29.46 L 75.46,29.46 L 75.46,18.5 C 73.18,13.91 68.37,11.67 63.53,11.71 z" id="path3271" style="fill:#d6948c;fill-rule:evenodd;stroke-width:1px;stroke-linecap:butt;stroke-linejoin:miter;stroke-opacity:1" />
<path d="M 15.26,27.18 L 15.26,34.04 L 13.37,34.04 L 13.37,29.54 C 13.06,29.78 12.76,29.97 12.47,30.11 C 12.19,30.25 11.83,30.39 11.40,30.52 L 11.40,28.99 C 12.04,28.78 12.53,28.54 12.88,28.25 C 13.24,27.96 13.51,27.60 13.71,27.18 L 15.26,27.18 M 16.14,30.64 C 16.14,29.36 16.37,28.46 16.83,27.95 C 17.30,27.44 18.00,27.18 18.94,27.18 C 19.40,27.18 19.77,27.24 20.06,27.35 C 20.35,27.46 20.59,27.61 20.77,27.79 C 20.96,27.97 21.10,28.15 21.21,28.35 C 21.31,28.55 21.40,28.78 21.46,29.04 C 21.59,29.55 21.65,30.07 21.65,30.62 C 21.65,31.84 21.45,32.73 21.03,33.30 C 20.62,33.87 19.91,34.15 18.89,34.15 C 18.33,34.15 17.87,34.06 17.52,33.88 C 17.17,33.70 16.88,33.43 16.66,33.08 C 16.50,32.84 16.37,32.50 16.28,32.07 C 16.19,31.64 16.14,31.16 16.14,30.64 M 18.00,30.64 C 18.00,31.50 18.08,32.09 18.23,32.40 C 18.38,32.72 18.60,32.87 18.89,32.87 C 19.08,32.87 19.24,32.81 19.38,32.68 C 19.52,32.54 19.63,32.33 19.69,32.04 C 19.76,31.75 19.79,31.30 19.79,30.69 C 19.79,29.80 19.71,29.20 19.56,28.89 C 19.41,28.58 19.18,28.43 18.88,28.43 C 18.57,28.43 18.35,28.58 18.21,28.90 C 18.07,29.21 18.00,29.79 18.00,30.64" transform="scale(0.79,1.25)" id="text2481" style="fill:#943142;stroke-width:1px;stroke-linecap:butt;stroke-linejoin:miter;" />
<path d="M 66.77,20.44 C 66.74,20.44 65.94,22.78 65.92,22.80 C 65.90,22.81 63.43,22.85 63.42,22.88 C 63.41,22.90 65.39,24.39 65.40,24.41 C 65.40,24.43 64.68,26.80 64.70,26.81 C 64.72,26.83 66.74,25.41 66.77,25.41 C 66.79,25.41 68.82,26.83 68.84,26.81 C 68.86,26.80 68.13,24.43 68.14,24.41 C 68.15,24.39 70.13,22.90 70.12,22.88 C 70.11,22.85 67.64,22.81 67.62,22.80 C 67.60,22.78 66.79,20.44 66.77,20.44 z" id="p3328" style="opacity:1;fill:#fafafc;" />
<rect width="9.64" height="6.17" x="16.95" y="4.20" id="r3272" style="opacity:1;fill:#585083;" />
<path d="M 19.54,39.95 L 19.54,42.79 L 71.25,42.79 L 71.25,39.95 L 19.54,39.95 z" id="p3278" style="fill:#d69898;fill-rule:evenodd;stroke:none" />
<path d="M 34.17,20.79 C 34.20,20.79 35.00,23.13 35.02,23.15 C 35.04,23.16 37.51,23.20 37.52,23.23 C 37.53,23.25 35.55,24.74 35.54,24.76 C 35.54,24.78 36.26,27.15 36.24,27.16 C 36.22,27.18 34.20,25.76 34.17,25.76 C 34.15,25.76 32.12,27.18 32.10,27.16 C 32.08,27.15 32.81,24.78 32.80,24.76 C 32.79,24.74 30.81,23.25 30.82,23.23 C 30.83,23.20 33.30,23.16 33.32,23.15 C 33.34,23.13 34.15,20.79 34.17,20.79 z" id="p3284" style="opacity:1;fill:#fafafc;" />
<path d="M 36.31,12.28 C 36.34,12.28 37.14,14.62 37.16,14.64 C 37.18,14.65 39.65,14.69 39.66,14.72 C 39.67,14.74 37.69,16.23 37.68,16.25 C 37.68,16.27 38.40,18.64 38.38,18.65 C 38.36,18.67 36.34,17.25 36.31,17.25 C 36.29,17.25 34.26,18.67 34.24,18.65 C 34.22,18.64 34.95,16.27 34.94,16.25 C 34.93,16.23 32.95,14.74 32.96,14.72 C 32.97,14.69 35.44,14.65 35.46,14.64 C 35.48,14.62 36.29,12.28 36.31,12.28 z" id="p3286" style="opacity:1;fill:#fafafc;" />
<path d="M 42.43,6.93 C 42.46,6.93 43.26,9.27 43.28,9.29 C 43.30,9.30 45.77,9.34 45.78,9.37 C 45.79,9.39 43.81,10.88 43.80,10.90 C 43.80,10.92 44.52,13.29 44.50,13.30 C 44.48,13.32 42.46,11.90 42.43,11.90 C 42.41,11.90 40.38,13.32 40.36,13.30 C 40.34,13.29 41.07,10.92 41.06,10.90 C 41.05,10.88 39.07,9.39 39.08,9.37 C 39.09,9.34 41.56,9.30 41.58,9.29 C 41.60,9.27 42.41,6.93 42.43,6.93 z" id="p3288" style="opacity:1;fill:#fafafc;" />
<path d="M 50.83,5.22 C 50.86,5.22 51.66,7.56 51.68,7.58 C 51.70,7.59 54.17,7.63 54.18,7.66 C 54.19,7.68 52.21,9.17 52.20,9.19 C 52.20,9.21 52.92,11.58 52.90,11.59 C 52.88,11.61 50.86,10.19 50.83,10.19 C 50.81,10.19 48.78,11.61 48.76,11.59 C 48.74,11.58 49.47,9.21 49.46,9.19 C 49.45,9.17 47.47,7.68 47.48,7.66 C 47.49,7.63 49.96,7.59 49.98,7.58 C 50.00,7.56 50.81,5.22 50.83,5.22 z" id="p3290" style="opacity:1;fill:#fafafc;" />
<path d="M 59.65,6.59 C 59.68,6.59 60.48,8.93 60.50,8.95 C 60.52,8.96 62.99,9.00 63.00,9.03 C 63.01,9.05 61.03,10.54 61.02,10.56 C 61.02,10.58 61.74,12.95 61.72,12.96 C 61.70,12.98 59.68,11.56 59.65,11.56 C 59.63,11.56 57.60,12.98 57.58,12.96 C 57.56,12.95 58.29,10.58 58.28,10.56 C 58.27,10.54 56.29,9.05 56.30,9.03 C 56.31,9.00 58.78,8.96 58.80,8.95 C 58.82,8.93 59.63,6.59 59.65,6.59 z" id="p3292" style="opacity:1;fill:#fafafc;" />
<path d="M 36.77,28.37 C 36.80,28.37 37.60,30.71 37.62,30.73 C 37.64,30.74 40.11,30.78 40.12,30.81 C 40.13,30.83 38.15,32.32 38.14,32.34 C 38.14,32.36 38.86,34.73 38.84,34.74 C 38.82,34.76 36.80,33.34 36.77,33.34 C 36.75,33.34 34.72,34.76 34.70,34.74 C 34.68,34.73 35.41,32.36 35.40,32.34 C 35.39,32.32 33.41,30.83 33.42,30.81 C 33.43,30.78 35.90,30.74 35.92,30.73 C 35.94,30.71 36.75,28.37 36.77,28.37 z" id="p3294" style="opacity:1;fill:#fafafc;" />
<path d="M 42.54,34.63 C 42.57,34.63 43.37,36.97 43.39,36.99 C 43.41,37.00 45.88,37.04 45.89,37.07 C 45.90,37.09 43.92,38.58 43.91,38.60 C 43.91,38.62 44.63,40.99 44.61,41.00 C 44.59,41.02 42.57,39.60 42.54,39.60 C 42.52,39.60 40.49,41.02 40.47,41.00 C 40.45,40.99 41.18,38.62 41.17,38.60 C 41.16,38.58 39.18,37.09 39.19,37.07 C 39.20,37.04 41.67,37.00 41.69,36.99 C 41.71,36.97 42.52,34.63 42.54,34.63 z" id="p3296" style="opacity:1;fill:#fafafc;" />
<path d="M 50.46,36.31 C 50.49,36.31 51.29,38.65 51.31,38.67 C 51.33,38.68 53.80,38.72 53.81,38.75 C 53.82,38.77 51.84,40.26 51.83,40.28 C 51.83,40.30 52.55,42.67 52.53,42.68 C 52.51,42.70 50.49,41.28 50.46,41.28 C 50.44,41.28 48.41,42.70 48.39,42.68 C 48.37,42.67 49.10,40.30 49.09,40.28 C 49.08,40.26 47.10,38.77 47.11,38.75 C 47.12,38.72 49.59,38.68 49.61,38.67 C 49.63,38.65 50.44,36.31 50.46,36.31 z" id="p3298" style="opacity:1;fill:#fafafc;" />
<path d="M 58.83,34.51 C 58.86,34.51 59.66,36.85 59.68,36.87 C 59.70,36.88 62.17,36.92 62.18,36.95 C 62.19,36.97 60.21,38.46 60.20,38.48 C 60.20,38.50 60.92,40.87 60.90,40.88 C 60.88,40.90 58.86,39.48 58.83,39.48 C 58.81,39.48 56.78,40.90 56.76,40.88 C 56.74,40.87 57.47,38.50 57.46,38.48 C 57.45,38.46 55.47,36.97 55.48,36.95 C 55.49,36.92 57.96,36.88 57.98,36.87 C 58.00,36.85 58.81,34.51 58.83,34.51 z" id="p3300" style="opacity:1;fill:#fafafc;" />
<path d="M 65.43,28.80 C 65.46,28.80 66.26,31.14 66.28,31.16 C 66.30,31.17 68.77,31.21 68.78,31.24 C 68.79,31.26 66.81,32.75 66.80,32.77 C 66.80,32.79 67.52,35.16 67.50,35.17 C 67.48,35.19 65.46,33.77 65.43,33.77 C 65.41,33.77 63.38,35.19 63.36,35.17 C 63.34,35.16 64.07,32.79 64.06,32.77 C 64.05,32.75 62.07,31.26 62.08,31.24 C 62.09,31.21 64.56,31.17 64.58,31.16 C 64.60,31.14 65.41,28.80 65.43,28.80 z" id="p3302" style="opacity:1;fill:#fafafc;" />
<path d="M 27.99,3.92 C 28.37,3.96 28.79,3.81 29.12,4.06 C 29.63,4.80 28.71,4.99 28.45,5.12 C 28.49,5.49 28.48,5.80 28.1,5.66 C 27.87,5.62 28.06,5.08 27.99,4.83 C 27.99,4.53 27.99,4.22 27.99,3.92 z M 28.45,4.66 C 29.19,4.79 28.4,3.82 28.45,4.53 C 28.45,4.58 28.45,4.62 28.45,4.66 z M 29.35,5.04 C 29.34,3.90 31.03,4.40 30.48,5.41 C 30.18,5.92 29.32,5.73 29.35,5.04 L 29.35,5.04 z M 29.76,5.03 C 30.27,6.33 30.25,3.78 29.76,5.03 L 29.76,5.03 z M 31.89,5.66 C 31.42,5.72 31.56,5.38 31.12,5.69 C 30.6,5.63 30.8,4.90 30.76,4.47 C 30.89,4.29 31.34,4.36 31.17,4.76 C 31.02,5.35 31.59,5.47 31.48,4.80 C 31.34,4.39 31.7,4.29 31.89,4.45 C 31.89,4.86 31.89,5.26 31.89,5.66 z M 32.59,4.40 C 32.98,4.35 32.71,4.83 32.59,4.86 C 32.52,5.10 32.74,5.68 32.46,5.66 C 32.06,5.82 32.2,5.33 32.18,5.04 C 32.28,4.74 31.81,4.61 32.12,4.40 C 32.05,4.01 32.99,3.53 32.83,4.21 C 32.71,4.16 32.55,4.21 32.59,4.40 z M 32.96,3.92 C 33.33,3.96 33.75,3.81 34.08,4.06 C 34.59,4.80 33.67,4.99 33.41,5.12 C 33.45,5.49 33.44,5.80 33.06,5.66 C 32.83,5.62 33.02,5.08 32.96,4.83 C 32.96,4.53 32.96,4.22 32.96,3.92 z M 33.41,4.66 C 34.15,4.79 33.37,3.82 33.41,4.53 C 33.41,4.58 33.41,4.62 33.41,4.66 z M 34.31,5.04 C 34.31,3.90 36,4.40 35.44,5.41 C 35.15,5.92 34.29,5.73 34.31,5.04 L 34.31,5.04 z M 34.72,5.03 C 35.23,6.33 35.21,3.78 34.72,5.03 L 34.72,5.03 z M 36.85,5.66 C 36.38,5.72 36.52,5.38 36.09,5.69 C 35.57,5.63 35.77,4.90 35.73,4.47 C 35.85,4.29 36.3,4.36 36.14,4.76 C 35.99,5.35 36.55,5.47 36.44,4.80 C 36.3,4.39 36.67,4.29 36.85,4.45 C 36.85,4.86 36.85,5.26 36.85,5.66 z M 37.55,4.40 C 37.95,4.35 37.68,4.83 37.55,4.86 C 37.49,5.10 37.7,5.68 37.42,5.66 C 37.03,5.82 37.17,5.33 37.15,5.04 C 37.24,4.74 36.77,4.61 37.08,4.40 C 37.02,4.01 37.96,3.53 37.79,4.21 C 37.67,4.16 37.51,4.21 37.55,4.40 z M 37.92,3.92 C 38.3,3.96 38.71,3.81 39.05,4.06 C 39.55,4.80 38.64,4.99 38.38,5.12 C 38.42,5.49 38.41,5.80 38.03,5.66 C 37.8,5.62 37.98,5.08 37.92,4.83 C 37.92,4.53 37.92,4.22 37.92,3.92 z M 38.38,4.66 C 39.11,4.79 38.33,3.82 38.38,4.53 C 38.38,4.58 38.38,4.62 38.38,4.66 z M 39.38,4.40 C 39.83,4.30 39.7,4.71 40.02,4.37 C 40.56,4.68 39.52,4.79 39.79,5.40 C 39.97,5.76 39.32,5.78 39.38,5.51 C 39.38,5.14 39.38,4.77 39.38,4.40 z M 40.27,5.04 C 40.26,3.90 41.95,4.40 41.4,5.41 C 41.11,5.92 40.24,5.73 40.27,5.04 L 40.27,5.04 z M 40.68,5.03 C 41.19,6.33 41.17,3.78 40.68,5.03 L 40.68,5.03 z M 42.81,3.92 C 42.81,4.50 42.81,5.08 42.81,5.66 C 42.36,5.74 42.48,5.39 42.08,5.69 C 41.23,5.60 41.76,3.84 42.4,4.47 C 42.36,4.11 42.36,3.78 42.75,3.92 L 42.79,3.92 L 42.81,3.92 z M 42.4,5.03 C 41.92,3.87 41.99,6.19 42.4,5.03 L 42.4,5.03 z M 44.18,5.66 C 43.71,5.72 43.85,5.38 43.41,5.69 C 42.89,5.63 43.1,4.90 43.05,4.47 C 43.18,4.29 43.63,4.36 43.46,4.76 C 43.31,5.35 43.88,5.47 43.77,4.80 C 43.63,4.39 43.99,4.29 44.18,4.45 C 44.18,4.86 44.18,5.26 44.18,5.66 z M 45.22,5.17 C 46.11,5.13 44.92,6.14 44.55,5.54 C 43.73,4.60 45.57,3.88 45.5,4.82 C 45.16,4.88 44.61,4.51 44.85,5.29 C 44.96,5.44 45.19,5.37 45.22,5.17 L 45.22,5.17 z M 46.29,3.92 C 46.16,4.37 46.45,4.33 46.51,4.56 C 46.5,4.85 46.14,4.72 46.29,5.20 C 46.46,5.26 46.74,5.77 46.25,5.69 C 45.62,5.84 46.11,4.74 45.73,4.75 C 45.7,4.38 45.86,4.35 46,4.10 C 46.09,4.04 46.19,3.98 46.29,3.92 z M 46.72,3.92 C 46.99,3.77 47.33,4.08 47.04,4.25 C 46.76,4.26 46.67,4.32 46.72,3.92 z M 46.72,4.40 C 47.06,4.31 47.21,4.45 47.13,4.87 C 47.06,5.11 47.28,5.68 47,5.66 C 46.6,5.82 46.74,5.33 46.72,5.04 C 46.72,4.82 46.72,4.61 46.72,4.40 z M 47.34,5.04 C 47.33,3.90 49.02,4.40 48.47,5.41 C 48.18,5.92 47.31,5.73 47.34,5.04 L 47.34,5.04 z M 47.75,5.03 C 48.26,6.33 48.24,3.78 47.75,5.03 L 47.75,5.03 z M 48.76,4.40 C 49.23,4.34 49.09,4.68 49.52,4.37 C 50.05,4.43 49.84,5.16 49.88,5.59 C 49.76,5.77 49.31,5.70 49.47,5.30 C 49.63,4.72 49.06,4.59 49.17,5.27 C 49.31,5.67 48.94,5.77 48.76,5.61 C 48.76,5.21 48.76,4.80 48.76,4.40 z" id="text3347" style="fill:#943142;" />
<path d="M 27.47,6.17 L 50.78,6.17" id="p3353" style="fill:none;fill-rule:evenodd;stroke:#440606;stroke-width:0.1;stroke-linecap:butt;stroke-linejoin:miter;stroke-miterlimit:4;stroke-dasharray:none;stroke-opacity:1" />
<path d="M 11.09,4.05 L 11.09,9.31 L 9.73,9.31 L 9.73,5.86 C 9.51,6.04 9.30,6.19 9.09,6.30 C 8.89,6.41 8.63,6.52 8.32,6.62 L 8.32,5.44 C 8.78,5.28 9.13,5.09 9.38,4.87 C 9.64,4.65 9.83,4.37 9.98,4.05 L 11.09,4.05 M 11.72,6.70 C 11.72,5.72 11.88,5.03 12.21,4.64 C 12.55,4.25 13.05,4.05 13.73,4.05 C 14.05,4.05 14.32,4.09 14.53,4.18 C 14.74,4.26 14.91,4.38 15.04,4.52 C 15.17,4.65 15.27,4.80 15.35,4.95 C 15.42,5.10 15.49,5.28 15.53,5.48 C 15.62,5.87 15.67,6.27 15.67,6.69 C 15.67,7.63 15.52,8.31 15.22,8.75 C 14.93,9.18 14.42,9.40 13.69,9.40 C 13.28,9.40 12.96,9.33 12.71,9.19 C 12.45,9.06 12.25,8.85 12.09,8.58 C 11.97,8.39 11.88,8.13 11.82,7.80 C 11.75,7.47 11.72,7.10 11.72,6.70 M 13.05,6.71 C 13.05,7.37 13.11,7.82 13.21,8.06 C 13.32,8.30 13.48,8.42 13.69,8.42 C 13.82,8.42 13.94,8.37 14.04,8.27 C 14.14,8.17 14.21,8.00 14.26,7.78 C 14.31,7.56 14.33,7.22 14.33,6.75 C 14.33,6.06 14.28,5.60 14.17,5.36 C 14.06,5.13 13.90,5.01 13.68,5.01 C 13.46,5.01 13.30,5.13 13.20,5.37 C 13.10,5.61 13.05,6.06 13.05,6.71" id="path2490" style="fill:#943142;stroke-width:1px;stroke-linecap:butt;stroke-linejoin:miter;" />
<path d="M 65.65,12.39 C 65.62,12.39 64.82,14.73 64.80,14.75 C 64.78,14.76 62.31,14.80 62.30,14.83 C 62.29,14.85 64.27,16.34 64.28,16.36 C 64.28,16.38 63.56,18.75 63.58,18.76 C 63.60,18.78 65.62,17.36 65.65,17.36 C 65.67,17.36 67.70,18.78 67.72,18.76 C 67.74,18.75 67.01,16.38 67.02,16.36 C 67.03,16.34 69.01,14.85 69.00,14.83 C 68.99,14.80 66.52,14.76 66.50,14.75 C 66.48,14.73 65.67,12.39 65.65,12.39 z" id="p3330" style="opacity:1;fill:#fafafc;" />
<path d="M 66.79,3.84 L 66.79,19.17 L 63.57,19.17 L 63.57,9.12 C 63.05,9.64 62.54,10.06 62.05,10.39 C 61.56,10.71 60.95,11.02 60.22,11.31 L 60.22,7.88 C 61.30,7.42 62.15,6.87 62.75,6.22 C 63.35,5.58 63.82,4.78 64.16,3.84 L 66.79,3.84 M 68.30,11.57 C 68.30,8.70 68.69,6.70 69.47,5.55 C 70.26,4.41 71.46,3.84 73.07,3.84 C 73.84,3.84 74.48,3.96 74.97,4.22 C 75.47,4.46 75.87,4.79 76.19,5.19 C 76.50,5.59 76.74,6.01 76.92,6.46 C 77.10,6.90 77.25,7.41 77.36,8.00 C 77.57,9.13 77.68,10.30 77.68,11.52 C 77.68,14.25 77.33,16.26 76.62,17.52 C 75.92,18.79 74.70,19.43 72.98,19.43 C 72.02,19.43 71.24,19.22 70.64,18.82 C 70.05,18.42 69.56,17.82 69.18,17.04 C 68.90,16.49 68.68,15.73 68.53,14.77 C 68.37,13.80 68.30,12.74 68.30,11.57 M 71.46,11.58 C 71.46,13.50 71.59,14.81 71.85,15.52 C 72.11,16.22 72.48,16.57 72.97,16.57 C 73.30,16.57 73.58,16.42 73.81,16.13 C 74.05,15.82 74.23,15.35 74.34,14.71 C 74.45,14.06 74.51,13.06 74.51,11.69 C 74.51,9.69 74.38,8.35 74.12,7.66 C 73.86,6.97 73.48,6.62 72.96,6.62 C 72.43,6.62 72.05,6.98 71.82,7.68 C 71.58,8.38 71.46,9.68 71.46,11.58" id="path3262" style="opacity:1;fill:#943142;stroke:#e5e5e5;stroke-width:0.54;stroke-linecap:butt;stroke-linejoin:miter;marker:none;marker-start:none;marker-mid:none;marker-end:none;stroke-miterlimit:4;" />
<rect width="83.50" height="43.97" x="6.19" y="1.98" id="rect2479" style="opacity:1;fill:none;stroke:#646464;stroke-width:0.5;stroke-linecap:round;stroke-linejoin:round;marker:none;marker-start:none;marker-mid:none;marker-end:none;stroke-miterlimit:4;" />
<path d="M 83.50,4.57 L 83.50,9.19 L 82.62,9.19 L 82.62,6.16 C 82.48,6.32 82.34,6.45 82.21,6.54 C 82.07,6.64 81.91,6.73 81.71,6.82 L 81.71,5.79 C 82.00,5.65 82.23,5.48 82.40,5.29 C 82.56,5.09 82.69,4.85 82.78,4.57 L 83.50,4.57 M 83.91,6.90 C 83.91,6.04 84.02,5.43 84.23,5.08 C 84.45,4.74 84.77,4.57 85.21,4.57 C 85.42,4.57 85.59,4.60 85.73,4.68 C 85.86,4.76 85.98,4.85 86.06,4.98 C 86.15,5.10 86.21,5.22 86.26,5.36 C 86.31,5.49 86.35,5.65 86.38,5.82 C 86.44,6.16 86.47,6.52 86.47,6.88 C 86.47,7.71 86.37,8.31 86.18,8.70 C 85.99,9.08 85.66,9.27 85.19,9.27 C 84.92,9.27 84.71,9.21 84.55,9.09 C 84.39,8.97 84.25,8.79 84.15,8.55 C 84.07,8.38 84.02,8.16 83.97,7.87 C 83.93,7.57 83.91,7.25 83.91,6.90 M 84.77,6.90 C 84.77,7.48 84.81,7.88 84.88,8.09 C 84.95,8.30 85.05,8.41 85.19,8.41 C 85.27,8.41 85.35,8.36 85.41,8.28 C 85.48,8.18 85.53,8.04 85.56,7.85 C 85.59,7.65 85.60,7.35 85.60,6.94 C 85.60,6.33 85.57,5.93 85.50,5.72 C 85.43,5.51 85.32,5.41 85.18,5.41 C 85.04,5.41 84.93,5.51 84.87,5.73 C 84.81,5.94 84.77,6.33 84.77,6.90" id="path3292" style="fill:#fafafc;stroke-width:1px;stroke-linecap:butt;stroke-linejoin:miter;" />
<path d="M 83.50,39.01 L 83.50,43.64 L 82.62,43.64 L 82.62,40.61 C 82.48,40.76 82.34,40.89 82.21,40.99 C 82.07,41.09 81.91,41.18 81.71,41.27 L 81.71,40.23 C 82.00,40.09 82.23,39.93 82.40,39.73 C 82.56,39.54 82.69,39.30 82.78,39.01 L 83.50,39.01 M 83.91,41.35 C 83.91,40.48 84.02,39.88 84.23,39.53 C 84.45,39.18 84.77,39.01 85.21,39.01 C 85.42,39.01 85.59,39.05 85.73,39.13 C 85.86,39.20 85.98,39.30 86.06,39.42 C 86.15,39.54 86.21,39.67 86.26,39.80 C 86.31,39.94 86.35,40.09 86.38,40.27 C 86.44,40.61 86.47,40.96 86.47,41.33 C 86.47,42.16 86.37,42.76 86.18,43.14 C 85.99,43.53 85.66,43.72 85.19,43.72 C 84.92,43.72 84.71,43.66 84.55,43.53 C 84.39,43.41 84.25,43.23 84.15,43.00 C 84.07,42.83 84.02,42.60 83.97,42.31 C 83.93,42.02 83.91,41.70 83.91,41.35 M 84.77,41.35 C 84.77,41.93 84.81,42.32 84.88,42.54 C 84.95,42.75 85.05,42.85 85.19,42.85 C 85.27,42.85 85.35,42.81 85.41,42.72 C 85.48,42.63 85.53,42.49 85.56,42.29 C 85.59,42.10 85.60,41.80 85.60,41.38 C 85.60,40.78 85.57,40.37 85.50,40.17 C 85.43,39.96 85.32,39.85 85.18,39.85 C 85.04,39.85 84.93,39.96 84.87,40.17 C 84.81,40.38 84.77,40.78 84.77,41.35" id="path3294" style="fill:#fafafc;stroke-width:1px;stroke-linecap:butt;stroke-linejoin:miter;" />
</svg>