<?xml version="1.0" encoding="UTF-8" standalone="no"?>
<svg
   xmlns:dc="http://purl.org/dc/elements/1.1/"
   xmlns:cc="http://creativecommons.org/ns#"
   xmlns:rdf="http://www.w3.org/1999/02/22-rdf-syntax-ns#"
   xmlns:svg="http://www.w3.org/2000/svg"
   xmlns="http://www.w3.org/2000/svg"
   xmlns:sodipodi="http://sodipodi.sourceforge.net/DTD/sodipodi-0.dtd"
   xmlns:inkscape="http://www.inkscape.org/namespaces/inkscape"
   version="1.0"
   width="100%"
   height="100%"
   viewBox="0 0 48 48"
   id="_earth01"
   style="display:inline"
   inkscape:version="0.91 r13725"
   sodipodi:docname="planet07.svg">
  <metadata
     id="metadata47">
    <rdf:RDF>
      <cc:Work
         rdf:about="">
        <dc:format>image/svg+xml</dc:format>
        <dc:type
           rdf:resource="http://purl.org/dc/dcmitype/StillImage" />
        <dc:title></dc:title>
      </cc:Work>
    </rdf:RDF>
  </metadata>
  <sodipodi:namedview
     pagecolor="#ffffff"
     bordercolor="#666666"
     borderopacity="1"
     objecttolerance="10"
     gridtolerance="10"
     guidetolerance="10"
     inkscape:pageopacity="0"
     inkscape:pageshadow="2"
     inkscape:window-width="742"
     inkscape:window-height="474"
     id="namedview45"
     showgrid="false"
     inkscape:zoom="3.0341309"
     inkscape:cx="11.481972"
     inkscape:cy="12.786017"
     inkscape:window-x="1384"
     inkscape:window-y="269"
     inkscape:window-maximized="0"
     inkscape:current-layer="_earth01" />
  <defs
     id="defs2818" />
  <g
     transform="matrix(1.1064229,0,0,1.1064229,-2.4566467,-2.4540558)"
     style="display:inline"
     id="layer1">
    <path
       inkscape:connector-curvature="0"
       d="M 44.66,25 A 19.965,19.965 0 1 1 4.73,25 19.965,19.965 0 1 1 44.66,25 Z"
       transform="translate(-0.75,-1.13)"
       id="p3465"
       style="display:inline;overflow:visible;visibility:visible;opacity:1;fill:#71360d;fill-opacity:1;fill-rule:evenodd;stroke:none;marker:none;enable-background:accumulate" />
    <path
       inkscape:connector-curvature="0"
       d="m 20.06,12.79 c -4.84,1.64 -9.61,4.58 -12.01,9.25 -1.3,2.7 -1.68,6.18 0.16,8.74 2.35,3.58 7,6.07 11.28,4.77 2.09,-0.48 3.19,-2.65 5.26,-3.16 4.16,-1.12 8.41,1.73 12.54,0.22 3.15,-1.33 4.61,-4.98 4.7,-8.21 0.13,-4.04 -2.06,-8.29 -5.9,-9.88 -4.78,-2.89 -10.72,-2.94 -16.03,-1.73 z"
       id="p3469"
       style="fill:#f39b17;fill-opacity:0.32000002;fill-rule:evenodd;stroke:none" />
    <path
       inkscape:connector-curvature="0"
       d="m 6.43,20.74 c -0.19,2.84 1.51,5.68 3.03,6.63"
       id="p3602"
       style="fill:none;fill-rule:evenodd;stroke:#543320;stroke-width:1.88999999;stroke-linecap:round;stroke-linejoin:miter;stroke-miterlimit:4;stroke-dasharray:none;stroke-opacity:0.51000001" />
    <path
       inkscape:connector-curvature="0"
       d="m 24.6,7.12 c -6.55,0.12 -13.19,4.16 -13.55,11.26 -1.3,6.25 -1.76,15.23 5.74,17.59 6.06,2.91 14.19,0.8 18.54,-4.13 3.95,-6.43 2.93,-17.41 -4.75,-20.63 -2.34,-0.66 -3.53,-3.4 -5.98,-4.09 z"
       id="p3476"
       style="display:inline;overflow:visible;visibility:visible;opacity:1;fill:#f39b17;fill-opacity:0.32000002;fill-rule:evenodd;stroke:none;marker:none;enable-background:accumulate" />
    <path
       inkscape:connector-curvature="0"
       d="M 24.53,6.62 C 23.09,6.63 21.65,6.79 20.25,7.12 12.96,8.76 5.16,16.02 4,23.34 3.99,23.37 3.97,23.4 3.96,23.43 c 0,0.15 0,0.29 0,0.44 0,1.93 0.3,3.8 0.82,5.56 0.79,1.7 2.1,3.32 4.06,4.75 10.57,7.35 30.83,4.61 34.31,-9.25 C 44.54,13.8 34.59,6.52 24.53,6.62 Z"
       id="p3485"
       style="display:inline;overflow:visible;visibility:visible;opacity:1;fill:#f39b17;fill-opacity:0.32000002;fill-rule:evenodd;stroke:none;marker:none;enable-background:accumulate" />
    <path
       inkscape:connector-curvature="0"
       d="m 22.15,27.65 c -2.92,0.38 -5.18,6.91 -7.44,6.16 -1.35,-0.45 -4.21,0.3 -6.84,1.87 3.64,4.93 9.47,8.16 16.06,8.16 8.96,0 16.54,-5.91 19.07,-14.03 -0.22,0.21 -0.46,0.47 -0.72,0.78 -8.3,9.9 -16.32,-2.4 -19.53,-2.94 -0.21,-0.03 -0.4,-0.02 -0.6,0 z"
       id="p3498"
       style="fill:#71360d;fill-opacity:0.51999996;fill-rule:evenodd;stroke:none" />
    <path
       inkscape:connector-curvature="0"
       d="m 28.28,12.34 c -0.24,1.76 -1.65,2.97 -3.28,3.44 0.44,-0.11 0.99,-0.12 1.65,-0.03 l 1.06,-0.41 0.91,-0.69 c 2.2,4.99 -6.36,2.9 -4.69,8.22 -0.5,-1.4 -2.08,-6.32 1.07,-7.09 -1.94,0.55 -4.17,0.05 -5.13,-1.91 -3.77,0.37 6.55,6.91 2.19,10.34 -2.13,1.09 -6.41,6.47 -6.63,5.38 2.7,-7.64 -4.2,5.34 -7.5,-0.03 -1.49,-0.6 -3.03,-3.99 -3.97,-5.44 0.01,0.6 0.04,1.19 0.1,1.78 l 0,0.03 c 0.04,0.38 0.13,0.76 0.19,1.13 1.29,1.61 2.52,2.89 0.15,0.9 0.07,0.33 0.17,0.65 0.25,0.97 2.15,1.52 4.57,3.42 1.06,3.1 0.15,0.32 0.31,0.65 0.47,0.97 2.11,0.39 7.26,-1.62 8.32,-3.88 2.81,-0.08 -7.59,5.78 -1.47,3.88 3.88,-2.81 8.14,-9.24 12.59,-4.72 2.98,-3.38 7.5,-1.1 7.59,2.37 3.35,1.93 2.81,4.36 -0.71,1.6 -1.76,-1.99 -5.24,-3.28 -1.75,-0.22 1.93,3.03 6.34,4.69 9.43,3.4 0.28,-0.38 0.54,-0.78 0.78,-1.18 0.39,-0.64 0.75,-1.3 1.07,-1.97 -1.65,1.12 -4.5,3.5 -5.82,-0.07 -4,-5.29 6.63,1.07 6.13,-4.4 2.19,-4.91 -1.89,4.11 -4.63,1.65 -2.94,0.2 -10.88,-4.43 -4,-5.15 5.2,-1.65 11.37,-10.06 2.97,-11.16 -0.36,2.52 -0.59,8.18 -3.53,5.97 -1.66,2.21 0.59,4.67 -3.5,6.03 -1.86,1.48 -7.42,3.91 -3.72,0.47 0.64,-1.42 6.59,-4.47 1.75,-3.5 -1.57,-1.78 -3.78,2.37 -2.68,-1.84 3.22,-1.53 7.08,-3.33 3.28,-7.94 z m 9.03,0.97 c 7.36,2.84 -1.32,10.11 -4.25,9.65 2.66,-2.89 4.36,-5.48 4.25,-9.65 z m -17.38,1.47 c 1.66,1.25 1.11,1.4 0,0 z m 13.53,5.15 c 0.23,1.28 -1.42,1.08 0,0 z m -6.81,2.25 c -0.16,1.19 -1.54,0.79 0,0 z m 2.25,0.19 c -1.13,1.37 -2.01,0.36 0,0 z m -2.75,1.31 c -0.44,1.15 -1.91,-0.09 0,0 z m -3.47,0.5 c 2.44,0.32 -1.36,2.05 0,0 z m 1.78,0.32 c 0.26,0.11 -0.24,0.18 0,0 z m 0.32,0.78 c 0.42,1.32 -1.28,-0.01 0,0 z m -3.69,0.43 c -0.11,0.47 -0.73,0.02 0,0 z m 12,3.75 c 1.94,0.1 1.47,2.42 0,0 z M 9.4,31.06 c 1.16,0.07 -0.12,1.03 -0.65,0.03 0.27,-0.03 0.49,-0.04 0.65,-0.03 z m 24.35,2.65 c 3.92,0.78 2.91,3.01 0,0 z m 3.15,0.04 c 1.64,0.7 0.91,1.54 0,0 z"
       id="p3505"
       style="fill:#e1ce66;fill-opacity:0.38000039;fill-rule:evenodd;stroke:none" />
    <path
       inkscape:connector-curvature="0"
       d="m 20.46,13.15 c -2.13,0.05 -2.43,3.44 -1.68,3.81 -2.45,0.96 -4.06,3.7 -4.85,6.13 -0.95,2.34 0.87,4.38 1.28,6.12 -1.12,1.88 -2.93,4.68 -4.93,1.88 C 7.74,29.71 6.71,27.01 5.5,24.59 5.3,23.77 4.37,22.51 4.03,22.56 4.01,22.78 4,22.99 4,23.21 c 0.03,0.16 0.04,0.31 0.12,0.54 0.62,1.3 3.12,4.2 2.28,4.81 -0.51,-0.81 -1.71,-1.22 -2.06,-0.88 0.07,0.35 0.16,0.69 0.25,1.03 0.06,0.1 0.1,0.17 0.19,0.29 1.28,3.11 6.65,6.09 9.28,3.18 1.19,-1.98 3.16,-4.13 0.47,-5.9 -0.46,-2.43 0.49,-4.88 2.06,-6.75 0.73,-2.29 4.09,-1.5 4.87,-2.6 -3.07,0.28 -2.91,-3.39 -0.03,-3 2.85,0.82 2.18,4.67 2.28,7 -0.07,2.57 -2.76,4.45 -5.15,4.75 -1.69,-0.1 -4.93,2.25 -1.35,2.07 2.27,-1.75 5.8,-0.25 7,-3.22 3.25,-1.17 3.91,4.79 0.6,4.56 -1.5,-0.05 -3.71,0.29 -3,2.09 -0.03,1.95 -2.31,2.01 -3.31,2.28 0.83,0.96 3.29,-0.13 2.81,2.07 1.5,2.68 2.76,5.48 4.06,8.25 0.28,-0.02 0.54,-0.07 0.81,-0.1 -1,-1.48 -1.68,-3.21 -2.31,-4.9 -0.98,-1.39 -3.86,-5.78 -0.06,-4.88 1.38,3.37 4.93,5.1 8.5,5.72 0.74,0.02 1.93,0.34 3.09,0.59 0.29,-0.2 0.56,-0.43 0.85,-0.65 -3.89,-0.52 -7.95,-1.11 -10.72,-4.06 -1.25,-3 5.07,-0.08 5.5,-3.32 1.83,-3.98 1.48,6.24 2.84,2.1 0.77,-3.82 -3.11,-5.21 -5.44,-7.19 -1.24,-2.07 3.64,-2.72 5.28,-3.38 0.88,-0.17 1.79,-0.25 2.69,-0.25 3.58,0.55 0.71,8.02 -1.84,5.22 -0.99,-0.96 -4.63,-4.09 -2.66,-1 1.56,2.29 4.25,2.88 6.5,4.22 3.03,1.22 4.85,-3.06 4.97,-5.53 0.05,-1 0.25,-1.39 0.5,-1.41 0.01,-0.24 0.03,-0.5 0.03,-0.75 -2.04,-0.35 -0.67,4.73 -2.59,6 -1.41,2.86 -6.27,0.07 -3.28,-2.25 0.71,-1.61 2.78,-4.96 0.34,-3.84 -1.55,-2.35 -4.77,-1.15 -6.94,-0.47 -1.96,0.35 -4.02,3.15 -5.09,0.31 0.71,0.06 2.4,-3.69 0.03,-4.68 -1.19,0.27 -2.13,3.86 -1.94,0.78 0.06,-2.51 0.02,-7 -3.53,-6.88 -0.16,-0.03 -0.29,-0.03 -0.44,-0.03 z m 5.79,6.81 c 2.36,1.76 -1.44,4.84 -2.41,3.41 0.98,-1.03 2.11,-1.93 2.41,-3.41 z m -3.66,5.47 c -1,1.09 -2.37,0.03 0,0 z m -3.81,0.94 c -1.74,0.71 -1.4,0.27 0,0 z m 8.81,0.88 c 1.46,1.69 4.97,2.36 2.72,4.9 -0.69,2.02 -6.19,1.14 -2.56,-0.09 2.28,-1.96 -1.82,-2.82 -0.16,-4.81 z M 5.46,28.78 c 1.46,1.04 4.95,2.79 4.97,3.56 -2.1,-0.26 -4.19,-1.52 -4.97,-3.56 z m 20.22,0.84 c -0.84,1.08 -3.31,0.02 -0.62,0.06 l 0.62,-0.06 z m 0.78,0.06 c 2.08,0 1.07,2.95 -0.46,1.16 -0.28,-0.07 -0.56,-0.12 -0.79,-0.13 0.15,-0.01 0.2,0 0.41,-0.03 0.4,-0.23 0.57,-0.66 0.84,-1 z m -1.34,1.03 c -0.77,0.08 -0.62,-0.01 0,0 z m -2.28,0.25 c 1.31,0.68 5.21,0.52 1.72,1.47 -1.6,0.83 -3.91,0.32 -1.72,-1.47 z m 2.81,1.85 c -1.55,0.85 -1.82,0.34 0,0 z m 12.78,1.5 c -0.62,0.11 -0.41,1.23 0.94,1.09 0.21,0.1 0.41,0.22 0.59,0.35 0.35,-0.47 0.67,-0.95 0.97,-1.44 -0.52,0.2 -1.06,0.32 -1.62,0.31 -0.38,-0.28 -0.67,-0.35 -0.88,-0.31 z m 1.53,0.53 c 0.23,-0.03 -0.26,0.15 0,0 z"
       id="p3517"
       style="display:inline;overflow:visible;visibility:visible;opacity:1;fill:#e1ce66;fill-opacity:0.28999999;fill-rule:evenodd;stroke:none;marker:none;enable-background:accumulate" />
    <path
       inkscape:connector-curvature="0"
       d="m 17.68,7.25 c -0.9,4.58 3.24,7.92 4.41,12.03 0.1,2.33 3.76,6.16 4.41,2.09 0.66,-1.63 -3.66,-3.07 -1.97,-3.5 1.98,1.87 3.79,5.05 1.87,7.59 -0.83,2.06 -2.98,-1.27 -4.56,-0.21 -1.26,-1.43 -5.21,-2.92 -3.81,0.46 1.3,1.4 2,5.14 -0.97,4.41 -1.02,-0.85 0.18,-4.73 -1.06,-3.84 -0.37,1.69 1.33,5.79 -1.35,5.59 0.62,-1.2 0.34,-4.36 -1.94,-4.09 -1.08,1.48 2.42,5 -1.28,4.15 -2.52,0.4 -4.86,-1.5 -6.53,-2.4 0.59,1.99 2.42,3.76 3.38,5.75 2.15,2.43 4.96,-0.86 7.03,-1.88 2.28,-2.21 6.29,-3.29 6.78,-6.78 0.95,0.26 3.02,2.19 2.66,0.56 2.18,3.44 4.93,0.14 6.65,-1.87 1.88,-0.62 -0.65,5.21 2.22,3.53 1.86,-1.97 2.12,-4.92 2.44,-7.5 -0.58,-3.86 3.15,0.13 3.53,1.91 1.25,1.61 -0.59,6.9 2.59,5.53 0.58,-0.23 1,-0.63 1.35,-1.07 0.06,-0.33 0.14,-0.69 0.18,-1.03 -0.23,0.37 -0.51,0.7 -0.9,0.94 -3.16,3.13 -1.54,-3.31 -2.94,-4.97 -0.45,-1.91 -4.59,-5.74 -4.34,-1.65 -0.03,2.34 -0.54,4.81 -1.72,6.87 -2.71,2.69 0.57,-5.17 -2.97,-2.87 -1.09,1.4 -4.14,5.16 -4.88,1.9 1.5,-1.62 2.53,-4.2 1.19,-6.25 -0.42,-1.59 -4.24,-5.91 -3.37,-2.06 1.14,1.08 3.65,2.74 1.25,4.22 -2.45,-1.38 -2.48,-5.05 -4.1,-7.25 C 19.05,13.15 18.07,9.6 17.68,7.25 Z m 0.47,16.65 c 3.17,0.02 4.81,4.28 1.5,5.56 0.65,-2.03 -1.62,-3.57 -1.5,-5.56 z m 4.47,1.6 c 0.11,-0.03 0.27,-0.01 0.47,0.06 1.19,0.6 0.98,2.49 -0.22,0.72 -0.53,-0.26 -0.58,-0.7 -0.25,-0.78 z m 2,0.71 c 0.86,-0.03 0.43,1 0,0 z m -11.69,1.82 c 2.15,0.08 1.55,4.86 0.38,1.93 -0.25,-0.61 -0.44,-1.27 -0.38,-1.93 z m 3.72,2.22 c 0.78,0.82 1.58,0.66 -0.06,1.5 -1.03,0.95 0.39,-0.95 0.06,-1.5 z M 5.96,30.68 c 2.07,1.86 5.22,2 7.79,1.53 1.65,0.12 2.26,0.21 0.5,1.19 -1.7,1.29 -4.9,3.75 -6.16,0.72 C 7.49,32.9 6.75,31.79 5.96,30.68 Z"
       id="p3542"
       style="display:inline;overflow:visible;visibility:visible;opacity:1;fill:#e1ce66;fill-opacity:0.37000002;fill-rule:evenodd;stroke:none;marker:none;enable-background:accumulate" />
    <path
       inkscape:connector-curvature="0"
       d="m 11.5,12.13 c -2.67,5.09 -1.6,14.45 4.02,16.86 5.62,2.41 9.9,-3.74 11.24,-7.22"
       id="p3556"
       style="fill:none;fill-opacity:1;fill-rule:evenodd;stroke:#f5df78;stroke-width:4;stroke-linecap:round;stroke-linejoin:miter;stroke-miterlimit:4;stroke-dasharray:none;stroke-opacity:0.22000002" />
    <path
       inkscape:connector-curvature="0"
       d="m 35.86,13.47 c 2.67,5.62 0.53,18.2 -7.23,14.72"
       id="p3558"
       style="display:inline;overflow:visible;visibility:visible;opacity:1;fill:none;fill-opacity:1;fill-rule:evenodd;stroke:#f5df78;stroke-width:4;stroke-linecap:round;stroke-linejoin:miter;stroke-miterlimit:4;stroke-dasharray:none;stroke-dashoffset:0;stroke-opacity:0.22000002;marker:none;enable-background:accumulate" />
    <path
       inkscape:connector-curvature="0"
       d="m 19.53,21.5 c 2.68,-4.82 5.09,-7.49 9.1,-8.3"
       id="p3560"
       style="display:inline;overflow:visible;visibility:visible;opacity:1;fill:none;fill-opacity:1;fill-rule:evenodd;stroke:#f5bc78;stroke-width:10.68999958;stroke-linecap:round;stroke-linejoin:miter;stroke-miterlimit:4;stroke-dasharray:none;stroke-dashoffset:0;stroke-opacity:0.28999999;marker:none;enable-background:accumulate" />
    <path
       inkscape:connector-curvature="0"
       d="m 14.72,32.74 c 3.74,-2.41 10.43,-4.28 15.79,-1.07"
       id="p3562"
       style="display:inline;overflow:visible;visibility:visible;opacity:1;fill:none;fill-opacity:1;fill-rule:evenodd;stroke:#f5df78;stroke-width:4;stroke-linecap:round;stroke-linejoin:miter;stroke-miterlimit:4;stroke-dasharray:none;stroke-dashoffset:0;stroke-opacity:0.3;marker:none;enable-background:accumulate" />
    <path
       inkscape:connector-curvature="0"
       d="m 13.84,12.12 c -0.81,-0.55 -1.77,0.13 -2.31,0.76 -0.4,0.54 -1,1.21 -0.8,1.91 0.75,0.12 1.35,-0.84 2.19,-0.55 1.1,0.39 -0.04,1.47 -0.55,1.79 -0.61,1.79 0.26,3.62 1.02,5.22 0.33,0.71 0.66,1.42 0.89,2.18 1.27,1.31 1.09,3.5 -0.04,4.84 -0.63,0.74 -1.57,1.48 -2.6,1.25 -0.39,-0.1 -1.49,-0.11 -1.39,-0.55 1.13,0.17 1.35,-1.18 0.87,-1.96 -0.09,-0.46 -0.89,-0.91 -0.73,-0.11 0.22,0.64 0.19,1.24 -0.63,1.3 -0.45,0.27 -1.87,0.07 -1.66,0.79 0.7,0.51 1.47,0.98 2.29,1.26 1.82,0.59 3.82,-0.43 4.74,-2.03 0.44,-0.7 0.47,-1.65 1.37,-1.94 1.59,-1 3.44,-1.63 4.76,-3.01 0.34,-0.39 0.7,-1.01 -0.08,-0.91 -0.8,-0.34 -0.61,-1.65 -1.53,-1.81 -0.75,-0.1 -1.16,0.7 -1.88,0.72 -1.02,0.09 -1.94,-0.53 -2.94,-0.55 -0.8,0.44 -0.07,1.58 0.22,2.18 0.17,0.45 0.57,1.17 0.52,1.52 -0.6,-0.88 -0.74,-1.95 -1.26,-2.87 -0.62,-1.37 -1.56,-2.77 -1.34,-4.34 0.13,-0.81 0.74,-1.43 1.44,-1.78 0.74,-0.44 1.32,-1.44 0.76,-2.23 -0.31,-0.49 -0.82,-0.82 -1.33,-1.08 z m -0.28,0.66 c 0.18,0.36 1.08,0.95 0.75,1.29 -0.66,-0.38 -1.65,-0.17 -2.13,-0.71 0.23,-0.48 0.9,-0.54 1.38,-0.58 z m 6.15,8.34 c 0.59,0.9 -0.56,1.57 -1.35,1.22 -0.95,-0.15 -0.22,-0.84 0.37,-0.8 0.38,-0.01 0.67,-0.24 0.98,-0.42 z m -4.56,0.09 c 0.6,0.12 1.19,1.5 0.46,1.56 -0.33,-0.45 -0.25,-1.06 -0.46,-1.56 z M 17,23.25 c 0.44,0.05 0,0.55 0,0 z m 1.34,0.46 c 0.62,-0.15 0.96,0.47 0.3,0.74 -0.36,0.21 -1.49,0.96 -1.6,0.35 0.28,-0.54 0.85,-0.73 1.3,-1.09 z M 16.62,24 c 0.14,0.13 -0.21,0.11 0,0 z"
       id="p3570"
       style="fill:#912e0f;fill-opacity:0.37000002;fill-rule:evenodd;stroke:none" />
    <path
       inkscape:connector-curvature="0"
       d="M 27.03,7.15 C 26.17,8.52 30.98,8.84 28.57,9.37 27.45,8.78 24.1,6.99 24.3,8.95 c 2.01,1.32 4.49,1.26 6.67,2.02 1.47,0.78 4.8,3.75 3.31,4.71 -1.21,-2.4 -1.19,2.35 -2.03,3.16 -1.61,3.05 2.32,3.98 3.93,1.79 2.49,-2.05 -0.21,-4.51 -1.09,-6.6 C 34.16,11.66 31.5,11.05 30.04,9.33 30.29,7.68 27.66,7.82 27.03,7.15 Z m 8.56,9.22 c 0.42,0.16 -0.09,0.46 0,0 z M 33.62,17 c 0.11,1.36 3.9,-0.41 2.11,1.48 -1.54,1.3 1.43,0.45 0.25,1.43 -1.24,2.05 -4.79,1.02 -2.77,-1.34 0.15,-0.52 0.16,-1.08 0.41,-1.57 z"
       id="p3572"
       style="display:inline;overflow:visible;visibility:visible;opacity:1;fill:#5b1e0a;fill-opacity:0.26000001;fill-rule:evenodd;stroke:none;marker:none;enable-background:accumulate" />
    <path
       inkscape:connector-curvature="0"
       d="m 22.68,28.06 c -1.78,-1.28 -3.2,1.49 -2.4,1.84 -3.72,0.96 -0.14,5.54 2.52,5.18 1.5,0.31 6.69,-0.28 3.12,1.38 -3.39,1.09 -1.1,4.89 1.75,4.15 1.53,-0.16 5.51,-0.73 4.9,-2.44 -2.11,0.65 -4.94,2.56 -7.05,0.74 -0.69,-2.09 6,-2.94 2.23,-4.58 -2.48,-0.39 -8.2,0.56 -7.97,-2.99 1.38,-1.69 2.55,1.75 4.4,0.3 1.72,-0.19 5.03,-1.19 2.05,-2.61 -1.13,-0.48 -2.38,-0.59 -3.55,-0.97 z m -0.15,1 c 1.68,0.16 -0.67,0.23 0,0 z M 25,29.71 c 0.83,-0.21 0.01,0.66 0,0 z"
       id="p3574"
       style="display:inline;overflow:visible;visibility:visible;opacity:1;fill:#5b1e0a;fill-opacity:0.3;fill-rule:evenodd;stroke:none;marker:none;enable-background:accumulate" />
    <path
       inkscape:connector-curvature="0"
       d="m 21,31.91 c 5.3,5.49 9.09,7 13.63,2.46"
       id="p3604"
       style="display:inline;overflow:visible;visibility:visible;opacity:1;fill:none;fill-opacity:1;fill-rule:evenodd;stroke:#671a03;stroke-width:4.5;stroke-linecap:round;stroke-linejoin:miter;stroke-miterlimit:4;stroke-dasharray:none;stroke-dashoffset:0;stroke-opacity:0.34000017;marker:none;enable-background:accumulate" />
    <path
       inkscape:connector-curvature="0"
       d="m 26.62,21.63 a 2.675,2.675 0 1 1 -5.35,0 2.675,2.675 0 1 1 5.35,0 z"
       transform="matrix(0.45,0,0,0.45,13.57,12.83)"
       id="p3606"
       style="display:inline;overflow:visible;visibility:visible;opacity:1;fill:#ffffff;fill-opacity:0.43999999;fill-rule:evenodd;stroke:none;marker:none;enable-background:accumulate" />
    <path
       inkscape:connector-curvature="0"
       d="m 26.62,21.63 a 2.675,2.675 0 1 1 -5.35,0 2.675,2.675 0 1 1 5.35,0 z"
       transform="matrix(0.35,0,0,0.35,13.96,10.31)"
       id="p3608"
       style="display:inline;overflow:visible;visibility:visible;opacity:1;fill:#ffffff;fill-opacity:0.33000004;fill-rule:evenodd;stroke:none;marker:none;enable-background:accumulate" />
    <path
       inkscape:connector-curvature="0"
       d="m 26.62,21.63 a 2.675,2.675 0 1 1 -5.35,0 2.675,2.675 0 1 1 5.35,0 z"
       transform="matrix(0.25,0,0,0.25,13.28,14.35)"
       id="p3610"
       style="display:inline;overflow:visible;visibility:visible;opacity:1;fill:#ffffff;fill-opacity:0.33000004;fill-rule:evenodd;stroke:none;marker:none;enable-background:accumulate" />
    <path
       inkscape:connector-curvature="0"
       d="m 33.68,15.26 c 0.95,1.51 1.14,3.21 0.57,4.54"
       id="p3612"
       style="display:inline;overflow:visible;visibility:visible;opacity:1;fill:none;fill-opacity:1;fill-rule:evenodd;stroke:#7f2c19;stroke-width:1.88999999;stroke-linecap:round;stroke-linejoin:miter;stroke-miterlimit:4;stroke-dasharray:none;stroke-dashoffset:0;stroke-opacity:0.32000002;marker:none;enable-background:accumulate" />
  </g>
  <circle
     style="color:#000000;clip-rule:nonzero;display:inline;overflow:visible;visibility:visible;opacity:1;isolation:auto;mix-blend-mode:normal;color-interpolation:sRGB;color-interpolation-filters:linearRGB;solid-color:#000000;solid-opacity:1;fill:none;fill-opacity:1;fill-rule:nonzero;stroke:#c98651;stroke-width:0.5;stroke-linecap:butt;stroke-linejoin:miter;stroke-miterlimit:4;stroke-dasharray:none;stroke-dashoffset:0;stroke-opacity:1;marker:none;marker-start:none;marker-mid:none;marker-end:none;color-rendering:auto;image-rendering:auto;shape-rendering:auto;text-rendering:auto;enable-background:accumulate;filter-blend-mode:normal;filter-gaussianBlur-deviation:0"
     id="path3372"
     cx="24"
     cy="24"
     r="22" />
</svg>
