<?xml version="1.0" encoding="UTF-8" standalone="no"?>
<svg
   xmlns:dc="http://purl.org/dc/elements/1.1/"
   xmlns:cc="http://creativecommons.org/ns#"
   xmlns:rdf="http://www.w3.org/1999/02/22-rdf-syntax-ns#"
   xmlns:svg="http://www.w3.org/2000/svg"
   xmlns="http://www.w3.org/2000/svg"
   xmlns:sodipodi="http://sodipodi.sourceforge.net/DTD/sodipodi-0.dtd"
   xmlns:inkscape="http://www.inkscape.org/namespaces/inkscape"
   version="1.0"
   width="100%"
   height="100%"
   viewBox="0 0 48 48"
   id="_earth01"
   style="display:inline"
   inkscape:version="0.91 r13725"
   sodipodi:docname="planet02.svg">
  <metadata
     id="metadata47">
    <rdf:RDF>
      <cc:Work
         rdf:about="">
        <dc:format>image/svg+xml</dc:format>
        <dc:type
           rdf:resource="http://purl.org/dc/dcmitype/StillImage" />
        <dc:title></dc:title>
      </cc:Work>
    </rdf:RDF>
  </metadata>
  <sodipodi:namedview
     pagecolor="#ffffff"
     bordercolor="#666666"
     borderopacity="1"
     objecttolerance="10"
     gridtolerance="10"
     guidetolerance="10"
     inkscape:pageopacity="0"
     inkscape:pageshadow="2"
     inkscape:window-width="742"
     inkscape:window-height="474"
     id="namedview45"
     showgrid="false"
     inkscape:zoom="3.695329"
     inkscape:cx="29.084746"
     inkscape:cy="23.389831"
     inkscape:window-x="1384"
     inkscape:window-y="269"
     inkscape:window-maximized="0"
     inkscape:current-layer="_earth01" />
  <defs
     id="defs2818" />
  <g
     id="g4283"
     transform="matrix(1.031571,0,0,1.031571,-14.391322,-14.491452)">
    <path
       inkscape:connector-curvature="0"
       d="m 58.500339,37.175525 a 21.42651,21.42651 0 0 1 -42.853019,0 21.42651,21.42651 0 1 1 42.853019,0 z"
       id="p3295"
       style="display:inline;overflow:visible;visibility:visible;opacity:1;fill:#b13005;fill-opacity:1;fill-rule:evenodd;stroke:none;marker:none;enable-background:accumulate" />
    <path
       inkscape:connector-curvature="0"
       d="m 26.331357,21.319908 c -9.583493,6.973355 -2.610138,14.81351 0,20.920065 2.619877,6.096816 13.079909,9.583493 18.309926,4.577481 5.230016,-5.015751 -3.272412,-8.502429 -0.652535,-12.427375 2.610139,-3.924947 -4.363217,-21.348594 -17.657391,-13.070171 z"
       id="p3297"
       style="display:inline;fill:#fb782d;fill-opacity:0.28000004;fill-rule:evenodd;stroke:none" />
    <path
       inkscape:connector-curvature="0"
       d="m 31.347108,20.657634 c -11.765102,7.411625 -11.336571,12.641641 -10.898302,16.790592 0.43827,4.139213 5.45402,3.915207 7.19736,8.930959 1.743338,5.01575 8.716693,9.807498 15.690047,6.106555 6.973355,-3.710682 14.813509,-13.51818 8.06416,-24.416481 C 44.641283,17.170957 36.791389,17.833231 31.347108,20.657634 Z"
       id="p3299"
       style="display:inline;overflow:visible;visibility:visible;opacity:1;fill:#fb782d;fill-opacity:0.28000004;fill-rule:evenodd;stroke:none;marker:none;enable-background:accumulate" />
    <path
       inkscape:connector-curvature="0"
       d="m 22.630414,50.304132 c 4.791748,6.973354 28.117424,9.583493 32.4709,-9.807498 4.363217,-19.40073 -17.647652,-29.412753 -28.545953,-19.176726 -10.898301,10.236029 -7.411623,14.37524 -6.75909,16.128318 0.652535,1.74334 -1.529074,7.401885 2.834143,12.855906 z"
       id="p3301"
       style="display:inline;overflow:visible;visibility:visible;opacity:1;fill:#fb782d;fill-opacity:0.28000004;fill-rule:evenodd;stroke:none;marker:none;enable-background:accumulate" />
    <path
       inkscape:connector-curvature="0"
       d="m 43.998487,28.731533 a 9.9194999,7.1911501 0 0 1 -19.838999,0 9.9194999,7.1911501 0 1 1 19.838999,0 z"
       id="p3303"
       style="display:inline;overflow:visible;visibility:visible;opacity:1;fill:#fb833d;fill-opacity:0.4;fill-rule:evenodd;stroke:none;marker:none;enable-background:accumulate" />
    <path
       inkscape:connector-curvature="0"
       d="m 47.037156,44.304709 a 4.791747,4.246345 0 0 1 -9.583494,0 4.791747,4.246345 0 1 1 9.583494,0 z"
       id="p3305"
       style="display:inline;overflow:visible;visibility:visible;opacity:1;fill:#fb833d;fill-opacity:0.4;fill-rule:evenodd;stroke:none;marker:none;enable-background:accumulate" />
    <path
       inkscape:connector-curvature="0"
       d="m 42.673939,20.219365 c -4.538524,0 -1.743339,4.528785 -1.100543,6.661696 -1.158979,1.821253 -2.327698,7.04153 1.344026,4.567743 1.197937,-2.376395 3.126323,-8.862783 4.684614,-3.194498 0.399313,4.6067 -5.171579,3.301631 -7.401884,5.230016 -1.431681,3.321109 3.603549,2.425092 5.152101,1.860211 0.165569,-0.08765 0.331137,-0.185048 0.486965,-0.272701 0.0098,0.0487 -0.214264,0.165568 -0.486965,0.272701 -1.918647,1.022629 -4.947576,1.879689 -5.697503,2.736749 -1.811514,-2.610138 -5.02549,-3.282152 -7.976505,-3.379545 -2.493268,2.980233 -5.492978,-0.525923 -5.385845,-3.038668 -3.009451,-0.399312 -4.937837,4.752789 -2.649096,6.515607 1.616727,1.431679 7.226577,-1.081066 6.398735,0.944714 -1.314809,2.347177 -3.89573,5.950725 -1.7336,8.366077 1.947864,0.116878 1.879689,3.496417 4.528785,1.373245 1.081065,-1.139501 2.843882,0.253222 3.623027,-1.986822 2.259524,-2.0063 3.691203,-6.661696 7.577193,-7.207099 2.902319,-0.896016 5.7462,0.759667 5.02549,3.954166 3.252934,0.584359 4.04182,5.025489 2.951015,8.122594 -0.85706,0.331138 -1.431679,1.256373 -1.645945,2.191348 4.45087,-3.535375 7.450581,-8.784869 8.005723,-14.755073 -0.0487,-0.07791 -0.07791,-0.165568 -0.116877,-0.243483 -1.01289,-3.087365 -6.320822,-3.817815 -2.834144,-6.875962 1.86995,-3.535374 -1.782296,-6.427953 -3.623027,-9.008873 -2.259524,-3.545114 -5.90203,-1.519334 -9.125746,-2.834143 z m 0.272702,2.795185 c 1.061586,0.418791 0.185047,0.818103 0,0 z m 8.697213,4.17817 c 3.291892,0.964193 0.155831,8.424514 -1.003148,5.044969 0.613576,-1.665423 0.710969,-3.340588 1.003148,-5.044969 z M 33.109926,39.912275 c 1.12976,0.136345 5.152101,3.360066 2.376394,2.249783 -0.272701,-0.886278 -3.437981,-1.256373 -2.376394,-2.249783 z m -2.366656,4.109994 c -0.155829,1.558292 -0.603839,0.584359 0,0 z"
       id="p3307"
       style="display:inline;fill:#751502;fill-opacity:0.3;fill-rule:evenodd;stroke:none" />
    <path
       inkscape:connector-curvature="0"
       d="m 35.973286,15.778234 c -1.256373,0.05844 -2.493267,0.243483 -3.681463,0.516184 -0.01948,0.214265 0,0.399312 0.02922,0.516184 0.06818,0.262962 0.116877,0.389573 0.185047,0.486966 0.116877,0.194787 0.233744,0.282441 0.331136,0.399313 0.409052,0.457748 0.973933,0.954453 1.675165,1.548552 0.701231,0.584359 1.480375,1.227154 2.191346,1.762818 0.710971,0.535662 1.246634,0.925235 1.830993,1.217415 0.584359,0.292179 1.120022,0.788884 1.704381,1.217414 -0.194786,0.438271 -0.194786,0.8668 -0.126611,1.158979 0.146091,0.623318 0.399312,0.954454 0.73045,1.373246 0.0098,0.0098 0.350615,1.042107 0.642795,2.064737 0.136345,0.506444 0.272701,1.032367 0.730448,1.616726 0.224005,0.29218 0.594099,0.603839 1.090805,0.759667 0.496705,0.146091 1.051847,0.0974 1.460899,-0.05843 -0.02922,0.0098 0.983671,-0.233744 1.616726,-1.188198 0.08766,-0.136345 0.05843,-0.340876 0.116878,-0.486965 0.06818,1.1395 -0.08765,2.493266 -0.08765,3.525635 0,0.993411 0.409052,1.616727 0.730449,2.074475 -0.116878,0.185047 -0.350616,0.564881 -0.428529,0.701231 -1.285592,-0.262961 -2.551703,-0.370094 -3.798337,-0.370094 -0.633056,0 -1.529074,0.185046 -2.376394,0.331137 -0.584359,-0.43827 -1.178458,-0.915496 -1.704381,-1.120022 -0.779147,-0.311659 -1.460899,-0.506445 -2.464049,-1.003151 -1.772557,-0.886278 -3.73016,-1.460898 -5.239756,-1.830993 -0.749927,-0.185045 -1.382983,-0.311657 -1.821253,-0.389572 -0.224004,-0.0487 -0.360355,-0.07791 -0.486965,-0.0974 -0.06818,-0.0098 -0.06818,-0.01948 -0.243484,-0.02921 -0.02922,0 -0.07791,0 -0.126611,0 -0.03896,0 -0.214265,0.02921 -0.214265,0.02921 0,0 -0.331137,0.08765 -0.331137,0.0974 0,0 -0.730449,0.662274 -0.730449,0.662274 0,0 0.02922,1.519335 0.02922,1.529074 0,0 0.428531,0.448008 0.428531,0.448008 0,0 0.165568,0.06818 0.214264,0.0974 0.03896,0.01948 0.05843,0.0487 0.08766,0.05843 0.05843,0.01948 0.0974,0.01948 0.126611,0.02922 0.0487,0.01948 0.06818,0.02922 0.08765,0.02922 0.331136,0.08766 1.100543,0.613578 1.57777,0.886279 -0.165568,0.165568 -0.428529,0.28244 -0.516184,0.42853 -0.379834,0.603839 -0.07791,0.360356 -0.2727,0.457748 0.08765,-0.0487 -0.185048,0.0487 -0.574622,0 -0.28244,-0.0487 -0.642795,-0.175308 -0.973931,-0.311658 -0.01948,-0.0487 -0.0098,-0.136346 -0.02922,-0.175308 -0.243483,-0.535662 -0.574621,-0.934975 -1.042109,-1.402463 -0.165568,-0.165568 -0.292179,-0.340876 -0.759666,-0.516183 -0.224005,-0.08765 -0.633056,-0.175308 -1.120023,0 0.06818,-0.10713 -0.0098,-0.03895 0.175308,-0.243484 0.399313,-0.399312 0.555142,-0.964192 0.399313,-1.490115 -0.155832,-0.535675 -0.613579,-0.954466 -1.158982,-1.071338 -0.545402,-0.107129 -1.100543,0.08766 -1.460898,0.516184 -0.779146,0.857061 -1.431681,1.918646 -1.246634,3.16528 0.194787,1.246633 1.071326,2.103693 2.16213,2.834143 0.545402,0.360355 1.042108,0.623316 1.548552,0.788884 0.233744,0.07791 0.506446,0.136345 0.798625,0.15583 0.02922,0.0098 0.05843,0.0098 0.08765,0.02922 0.710971,0.340876 1.451159,0.594099 2.191348,0.701231 0.769407,0.10713 1.538813,0.126612 2.347177,-0.2727 0.818103,-0.418791 1.227154,-1.081066 1.363504,-1.344027 0.03896,-0.0098 0.06818,-0.02922 0.370094,-0.02922 0.545403,0 1.071326,0.0974 1.606989,0.155831 0.331137,0.204525 0.837581,0.613576 1.314808,0.973931 -0.331137,0.311659 -0.662273,0.642795 -0.973932,1.188198 -0.701231,1.217415 -1.928385,2.834143 -2.980232,4.626178 -1.061586,1.782296 -2.01604,3.759378 -2.01604,5.931247 0,0.545401 0.0487,1.129762 0.02922,1.675163 -0.262962,-0.107129 -0.496706,-0.175308 -0.759667,-0.272701 -0.71097,-0.292179 -1.402462,-0.555142 -1.977083,-0.759667 -0.57462,-0.214266 -0.876539,-0.42853 -1.675163,-0.42853 -0.301919,0 -0.779146,0.136345 -1.090805,0.457748 -0.321396,0.311658 -0.428529,0.672014 -0.457747,0.905757 -0.06818,0.477227 0.02922,0.681752 0.08765,0.85706 0.116877,0.350616 0.2727,0.584359 0.457747,0.886279 0.379835,0.584359 0.915496,1.29533 1.645946,2.0063 0.301919,0.29218 0.642794,0.594099 1.00315,0.876539 1.402462,0.827843 2.892577,1.490117 4.470349,1.986822 0.0098,0 0.01948,-0.0098 0.03896,0 0.262961,0.02922 0.535663,0.05843 0.818103,0.05843 0.350615,0 0.798624,0.185048 1.490117,0.516184 0.01948,0.0098 0.03895,0.01948 0.05843,0.02922 1.285591,0.243483 2.610138,0.370093 3.963904,0.370093 2.171869,0 4.256083,-0.350615 6.233166,-0.944713 0.379833,-0.603838 0.29218,-1.392724 -0.214265,-1.889429 0.07791,0.06818 -0.05843,-0.107129 -0.243484,-0.42853 C 42.673941,55.01796 42.41098,54.511514 41.8461,54.092723 41.476006,53.810283 40.628684,53.128531 39.898235,52.602608 39.53788,52.339645 39.294397,52.13512 38.739256,51.930594 c -0.136344,-0.0487 -0.292179,-0.116878 -0.633057,-0.116878 -0.340876,0 -1.061585,0.243484 -1.373243,0.788886 -0.311658,0.545403 -0.204526,0.925235 -0.14609,1.158979 0.0098,0.06818 0.03896,0.0974 0.05843,0.146091 -0.02922,-0.02922 -0.06818,-0.05843 -0.0974,-0.08765 -0.321398,-0.340876 -0.555142,-0.623316 -0.847321,-0.886278 -0.01948,-0.01948 -0.06818,-0.03896 -0.08765,-0.05843 0.340876,-0.07791 0.710971,-0.253223 1.061585,-0.672012 0.262962,-0.321399 0.438269,-0.788886 0.42853,-1.217417 -0.01948,-0.418789 -0.155829,-0.769405 -0.311658,-1.032367 -0.224004,-0.379835 -0.418791,-0.555142 -0.662274,-0.847322 -0.243483,-0.301918 -0.496705,-0.652533 -0.730448,-0.973932 -0.233744,-0.331136 -0.45775,-0.642795 -0.555142,-0.85706 -0.03896,-0.107129 -0.05843,-0.194786 -0.05843,-0.214266 0.03896,-0.2727 0.01948,-0.516183 -0.02922,-0.730448 0.0487,-0.02922 0.15583,-0.03896 0.214266,-0.05843 0.02922,-0.01948 0.05843,-0.0487 0.08765,-0.05843 0.126611,-0.03896 0.340877,0.0098 0.457749,-0.02922 0.457748,-0.155829 0.85706,-0.350616 1.217415,-0.555141 0.370093,-0.194787 0.642795,-0.331138 0.973931,-0.633055 0.08765,-0.07791 0.165569,-0.175308 0.30192,-0.399314 0.07791,-0.107129 0.165568,-0.262961 0.214264,-0.545401 0.05843,-0.292179 0.01948,-0.779146 -0.243482,-1.15898 -0.194787,-0.29218 -0.379834,-0.360354 -0.574621,-0.457748 0.175308,-0.10713 0.360355,-0.214265 0.574621,-0.428529 0.175308,-0.16557 0.379833,-0.564882 0.457748,-1.032369 0.02922,-0.0098 0.02922,-0.01948 0.05843,-0.02922 0.07791,-0.01948 0.126611,-0.03896 0.28244,-0.08766 0.06818,-0.02922 0.175308,-0.02922 0.360355,-0.155829 0.07791,-0.0487 0.233744,-0.185047 0.370093,-0.331137 0.05843,0.0098 0.116878,0.03896 0.175308,0.05843 0.613578,0.146091 1.30507,0.214266 1.977084,-0.155828 0.681752,-0.360355 1.071324,-1.178458 1.100543,-1.792035 0.0098,-0.301919 -0.126612,-0.535663 -0.185047,-0.788886 0.07791,-0.0098 0.28244,-0.02922 0.340876,-0.02922 1.792036,0 3.019191,0.05843 4.285302,0.57462 -0.02922,0.399312 -0.0098,0.827843 0.126612,1.032368 0.165568,0.272702 0.311658,0.399312 0.418791,0.486966 0.467486,0.360355 0.701231,0.409052 1.042107,0.545403 0.243482,0.107129 0.467487,0.204525 0.701231,0.311657 0.116878,0.272702 0.185046,0.506446 0.331138,0.788886 0.243482,0.477227 0.56488,0.72071 0.84732,1.032367 -0.0487,0.146091 -0.136345,0.30192 -0.146089,0.399312 -0.03896,0.311659 0,0.44801 0.02922,0.574621 0.08765,0.486966 0.204526,0.808364 0.360355,1.217415 -0.0974,0.126612 -0.321398,0.321397 -0.360355,0.399312 -0.07791,0.136346 -0.126612,0.253223 -0.185048,0.389573 -0.116877,0.282441 -0.224004,0.633057 -0.389572,1.129761 -0.165568,0.496707 -0.301919,0.934975 -0.42853,1.246634 -0.175308,0.448008 -0.710971,0.915496 -1.129762,1.402462 -0.185046,0.0974 -0.214265,0.116878 -0.428529,0.214265 -0.681754,0.311659 -1.480378,0.681753 -2.220566,1.00315 -0.73045,0.321399 -1.344026,0.58436 -1.850472,0.886279 -0.126611,0.06818 -0.2727,0.14609 -0.42853,0.2727 -0.0487,0.03896 -0.116878,0.243484 -0.185046,0.301919 -0.136346,-0.01948 -0.07791,-0.136345 -0.428531,-0.02922 -0.0974,0.02922 -0.360355,0.146089 -0.360355,0.146089 0,0 -0.370095,0.311659 -0.370095,0.311659 0,0 -0.2727,0.486966 -0.2727,0.486966 0,0 -0.08765,0.448008 -0.08765,0.457748 0,0 0.0098,0.262961 0.02922,0.360355 0.01948,0.0974 0.02922,0.175308 0.05843,0.243483 0.05843,0.136346 0.107129,0.233744 0.155828,0.301918 0.185048,0.282442 0.29218,0.321398 0.399314,0.399313 0.05843,0.0487 0.146089,0.0487 0.204525,0.08765 -0.0487,-0.02922 0.155829,0.0974 0.486966,0.428531 0.788885,0.788884 1.782296,1.334286 2.834142,1.616726 1.714121,-0.788884 3.31137,-1.801774 4.75279,-2.989971 -0.41879,-0.282441 -0.925236,-0.409052 -1.285591,-0.389573 -0.57462,0.01948 -1.012888,0.194787 -1.519334,0.457748 -0.02922,0.0098 -0.116878,-0.01948 -0.155829,0 1.606988,-0.681752 3.136061,-1.58751 4.236606,-3.16528 0.370093,-0.204525 0.71097,-0.379832 1.188196,-0.701231 0.331138,-0.224004 0.701231,-0.623316 0.973933,-1.071326 0.136345,0.136346 0.301919,0.29218 0.457748,0.399312 0.03895,0.02922 0.07791,0.05843 0.116878,0.08766 1.27585,-1.850471 2.279001,-3.924947 2.921796,-6.145512 -0.28244,-0.399312 -0.613577,-0.72071 -0.915496,-1.120022 0.0974,-0.43827 0.194786,-0.808364 0.214265,-1.373245 0.07791,-1.840731 -0.418791,-4.382695 -2.522485,-6.486388 -0.944714,-0.934975 -1.996561,-1.266112 -2.649096,-1.548553 0.155831,-0.623316 0.340876,-1.275851 0.486967,-1.830991 0.224004,-0.847322 0.486967,-1.616729 0.486967,-1.606989 0.915495,-1.830993 1.246632,-3.671725 1.061586,-5.356628 -1.947865,-2.454309 -4.411913,-4.470349 -7.236317,-5.872811 -0.03895,0.02922 -0.06818,0.05844 -0.0974,0.08766 -0.311658,0.331137 -0.467487,0.730449 -0.574621,1.129761 -0.194785,0.175308 -0.486965,0.311659 -0.584359,0.486966 -0.370093,0.691492 -0.350616,1.168718 -0.360354,1.675163 -0.0098,0.827843 0.08765,1.519334 0.116878,1.947865 -0.07791,-0.0098 -0.126612,0 -0.204527,0 -0.165568,-0.07791 -0.321397,-0.116878 -0.486966,-0.185047 -0.02922,-0.02922 -0.03895,-0.06818 -0.06818,-0.0974 0.03896,-0.331137 0.0974,-0.58436 0.0974,-1.032368 0,-1.305068 -0.740189,-2.415351 -1.587509,-3.165279 -0.847318,-0.740182 -1.860207,-1.246627 -2.892576,-1.704375 -1.227154,-0.545402 -2.512745,-0.973932 -3.525635,-1.334287 -0.146089,0 -0.28244,-0.0097 -0.428529,0 z m 15.183603,19.936393 c 0.42853,0.194787 0.915496,0.389573 1.129761,0.603839 0.282441,0.28244 0.350617,0.56488 0.545402,0.857059 -0.116877,-0.126611 -0.243483,-0.253222 -0.360355,-0.370094 -0.340876,-0.340876 -0.84732,-0.720709 -1.314808,-1.090804 z M 32.165211,48.619229 c 0.10713,0.214265 0.243484,0.399312 0.370094,0.603837 -0.14609,-0.05843 -0.301918,-0.146089 -0.457748,-0.185046 0.0098,-0.126611 0.06818,-0.282441 0.08766,-0.418791 z m 1.314808,3.983383 c 0.126611,0.02922 0.262962,0.06818 0.389574,0.08765 -0.06818,0.03896 -0.10713,0.10713 -0.175308,0.15583 -0.08766,-0.05843 -0.15583,-0.08766 -0.214266,-0.126611 0.0098,0.0098 0.0098,-0.0098 0,-0.08765 0,-0.0098 0,-0.01948 0,-0.02922 z"
       id="p3319"
       style="display:inline;fill:#801703;fill-opacity:0.18000004;fill-rule:evenodd;stroke:none" />
    <path
       inkscape:connector-curvature="0"
       d="m 46.287228,22.138011 c -2.181608,0.29218 -3.369806,2.951015 -2.434831,4.869662 0.360355,1.43168 1.908908,2.171868 2.804926,2.921797 0.06818,1.061585 0.08765,2.882839 -1.30507,3.00945 -1.412202,-0.837582 -2.980232,0.165568 -3.379545,1.645945 0.06818,1.246634 -1.509595,2.366656 -1.100543,3.437981 1.402462,0.964193 3.486678,-0.272701 4.16843,-1.57777 0.42853,-0.973932 -1.061587,-1.519335 -1.246634,-1.616727 1.275852,-1.01289 2.678315,0.42853 4.051558,0.360355 1.139501,0.438269 2.356916,1.227154 3.59381,1.675163 1.197938,0.555142 2.580921,1.704381 2.006301,3.194498 -0.477227,1.149239 0.02922,2.386134 1.363504,2.259522 0.749929,1.120022 -0.204525,2.561443 -0.389572,3.769118 -0.389573,1.14924 -0.691492,2.649096 -0.02922,3.710682 2.58092,-3.535374 4.109994,-7.908329 4.109994,-12.622162 0,-0.08766 0,-0.165568 0,-0.243483 -1.412202,-0.973931 -3.03867,-1.636206 -4.694353,-2.045257 -1.168719,-1.061587 -3.291891,-0.613578 -4.012602,-2.220566 0.477227,-1.305069 1.801774,-2.532224 1.490117,-4.139212 0,-1.918646 -0.769406,-3.74964 -1.762817,-5.356627 -1.090801,-0.301919 -2.298477,-0.331138 -3.233451,-1.032369 z m 0.126612,1.645945 c -0.866801,0.720711 0.428529,3.18476 -0.857062,3.038669 -0.876539,-0.934975 -0.340876,-2.678313 0.857062,-3.038669 z m 3.077625,3.924948 c 0.730449,0.496706 -0.516184,2.912058 -0.399312,1.305069 0.107129,-0.448008 0.311658,-0.85706 0.399312,-1.305069 z m 6.447431,9.281574 c 1.149241,-0.01948 0.973933,2.464049 -0.272701,1.188198 -0.253222,-0.350616 0.03895,-0.779146 0.02922,-1.158979 0.08765,-0.02922 0.16557,-0.02922 0.243483,-0.02922 z"
       id="p3328"
       style="display:inline;fill:#551308;fill-opacity:0.23312887;fill-rule:evenodd;stroke:none" />
    <path
       inkscape:connector-curvature="0"
       d="m 22.883637,30.289824 c -1.071326,0.525923 -0.740189,1.957604 -0.28244,2.804926 0.272701,0.954453 0.934975,1.71412 1.801774,2.201086 1.14924,0.827843 2.483528,1.392723 3.88599,1.616727 1.256372,-0.107129 2.512745,0.0487 3.769117,0.02922 1.00315,0.107129 1.957604,0.652535 2.629618,1.373243 0.146089,0.818105 -1.139502,1.003151 -1.421942,1.792037 -0.730449,0.925235 -1.266112,2.230304 -0.779146,3.389283 -0.01948,1.032369 -1.227154,0.399312 -1.684902,0.964194 -0.788886,0.876539 -0.477227,2.162129 -0.379834,3.213976 0.0974,0.759667 0.525923,1.986822 1.499856,1.58751 0.827843,-0.57462 0.253223,-1.57777 0.03895,-2.327699 -0.331137,-0.759667 0.506445,-1.675163 1.178458,-0.8668 0.701231,1.081066 1.840732,-0.486965 1.548553,-0.56488 -0.05843,1.090804 1.85047,1.558291 2.064735,0.370095 0.08766,-0.876539 -0.642795,-1.723861 -0.29218,-2.580921 0.691493,-0.42853 1.860212,0.623316 2.249784,-0.584359 0.165568,-0.779146 -1.344026,-1.499856 -0.0098,-1.918647 0.769406,-0.691492 -0.02922,-1.665424 -0.633056,-2.16213 -1.100543,-0.72071 -1.168718,-2.376394 -2.473788,-2.86336 -1.051847,-0.477227 -2.191347,-0.73045 -3.282152,-1.110283 -1.051822,-0.136349 -2.23028,-0.720714 -3.233431,-0.155833 -0.866799,0.672013 -1.723859,-0.311658 -2.678313,-0.126611 -0.749927,-0.29218 -0.915495,-1.314809 -1.879689,-1.344026 -1.100543,-0.44801 -0.243483,-1.918648 -0.954454,-2.629617 -0.194787,-0.136345 -0.448008,-0.136345 -0.681752,-0.10713 z m 13.547397,9.281574 c 0.788884,-0.03896 -0.02922,1.15898 -0.29218,0.418792 -1.081065,0.340876 -0.136345,-0.457748 0.29218,-0.418792 z m -1.675164,1.431681 c 0.370094,0.506445 -0.973932,1.801775 -0.545401,0.672013 0.136345,-0.253222 0.331136,-0.477227 0.545401,-0.672013 z"
       id="p3341"
       style="display:inline;overflow:visible;visibility:visible;opacity:1;fill:#551308;fill-opacity:0.23999999;fill-rule:evenodd;stroke:none;marker:none;enable-background:accumulate" />
    <path
       inkscape:connector-curvature="0"
       d="m 48.059785,22.410713 c -0.808365,0.759667 -2.240044,0.730448 -2.74649,1.821253 -0.340876,0.954453 0.681754,1.275851 1.373245,1.158979 -0.652535,0.973932 -0.409051,2.201087 -0.545402,3.321109 -0.08765,1.051847 -0.915496,1.879689 -0.915496,2.951015 -0.204527,1.217415 0.516184,2.376394 1.675163,2.736749 0.749929,0.681754 -1.042107,1.256373 -0.08765,2.103694 1.081064,1.110282 2.951015,1.15898 4.285302,0.486966 0.944714,-0.662274 2.639356,-0.486966 1.762817,0.973932 -0.564881,0.837582 0.243484,1.188197 0.827843,1.490117 0.02922,0.847321 -1.071326,1.869949 0.08765,2.493267 0.944714,1.071324 2.01604,2.191346 2.162129,3.681463 0.09739,0.506445 0.08766,1.012889 0.08766,1.529074 0.934974,-1.762817 1.636206,-3.652246 2.045257,-5.668286 0,-0.0098 0,-0.01948 0,-0.02922 -0.44801,-2.142652 -1.188198,-4.246345 -2.775707,-5.814376 -1.090802,-1.207671 -2.5517,-2.113429 -4.197646,-2.278997 -1.081065,-0.136345 -1.850472,-1.236894 -1.246633,-2.162129 -0.652535,-1.256374 0.886278,-1.977084 0.642795,-3.136063 0.194787,-1.314807 0.136345,-2.834142 -1.071326,-3.554852 -0.340876,-0.769407 -0.05843,-2.298481 -1.363504,-2.103694 z m -0.672014,8.093377 c 0.545403,0.57462 -1.01289,1.032368 -0.126611,0.214265 0.0487,-0.06818 0.08766,-0.136346 0.126611,-0.214265 z m 2.678313,4.811225 c 1.061587,0.175308 -1.382983,0.594099 -0.05843,0.05843 l 0.02922,-0.02922 0.02922,-0.02922 z"
       id="p3351"
       style="display:inline;overflow:visible;visibility:visible;opacity:1;fill:#560c04;fill-opacity:0.16564415;fill-rule:evenodd;stroke:none;marker:none;enable-background:accumulate" />
    <path
       inkscape:connector-curvature="0"
       d="m 20.5462,23.569692 c -0.574621,0.691491 -1.129762,1.421941 -1.616728,2.191348 -0.02922,0.185046 -0.126612,0.360354 -0.272701,0.486965 -1.908907,3.194499 -3.009451,6.924659 -3.009451,10.92752 0,1.519335 0.14609,3.009451 0.448009,4.441131 0.185047,-0.409052 0.457748,-0.759667 0.730449,-1.100543 -0.224004,0.233744 -0.409051,1.236894 -0.603838,1.645945 0.253223,1.081064 0.58436,2.123173 1.003151,3.136061 0.01948,-0.672012 0.01948,-1.353765 0.185047,-1.889427 -0.136351,-0.535663 1.158979,-2.337438 0.516183,-0.915497 -0.350615,1.275851 -0.175307,2.600399 -0.214264,3.895729 0.71097,1.480378 1.606988,2.8731 2.619877,4.139212 0.0098,-0.633056 -0.06818,-1.29533 -0.155829,-1.87969 -0.759667,-1.665423 1.694642,-0.525923 1.645946,-1.918646 -0.136346,-1.227154 1.305069,-1.636206 1.275851,-2.649095 -0.58436,-0.973932 -2.113433,-1.558291 -1.43168,-2.951016 -0.370095,-1.353764 -1.344028,-2.600398 -0.701232,-4.051556 -0.08765,-1.938125 -3.145801,-0.652535 -3.038669,-2.649096 0.10713,-1.626467 -0.954453,-3.418503 0.116878,-4.869661 1.197937,-1.59725 2.882839,-3.291891 2.619878,-5.4735 -0.01948,-0.165569 -0.06818,-0.350616 -0.116877,-0.516184 z"
       id="p3365"
       style="display:inline;overflow:visible;visibility:visible;opacity:1;fill:#551308;fill-opacity:0.28000004;fill-rule:evenodd;stroke:none;marker:none;enable-background:accumulate" />
    <path
       inkscape:connector-curvature="0"
       d="m 55.266883,43.652174 c -0.399313,0.0098 -0.798625,0.136345 -1.120022,0.301919 -0.857061,0.467488 -1.412202,1.236894 -1.801775,2.01604 -0.545401,1.090804 -0.788885,2.279002 -1.363504,2.853621 -0.06818,0.06818 -0.409052,0.331138 -0.827843,0.613578 -0.409052,0.28244 -0.905758,0.623316 -1.392723,0.944715 -0.496706,0.311657 -0.993411,0.603837 -1.373245,0.876539 -0.194787,0.136345 -0.340876,0.2727 -0.486966,0.399311 -0.05843,0.0487 -0.116878,0.224005 -0.185046,0.272701 -0.136346,0.0098 -0.233745,0.02922 -0.360355,0.02922 -0.857062,0 -1.918648,0.175308 -2.921798,0.243483 -1.012889,0.07791 -1.957603,-0.01948 -2.220565,-0.14609 -0.116878,-0.05843 -0.448009,-0.331137 -0.769407,-0.730449 -0.321397,-0.399313 -0.642795,-0.896018 -0.973932,-1.344028 -0.321397,-0.448008 -0.584359,-0.857059 -1.032367,-1.188196 -0.224004,-0.15583 -0.662275,-0.379834 -1.158981,-0.175308 -0.486965,0.194786 -0.623316,0.633056 -0.691491,0.934975 -0.116878,0.438269 -0.214265,0.954454 -0.185048,1.499855 -0.136345,-0.925235 -0.262961,-1.86021 -0.370093,-2.59066 -0.05843,-0.418789 -0.116877,-0.769405 -0.14609,-1.032367 -0.03895,-0.272701 -0.02922,-0.535663 -0.02922,-0.457748 0,-0.194787 -0.08766,-0.555142 -0.399312,-0.788886 -0.321399,-0.243483 -0.623318,-0.224004 -0.788886,-0.185047 -0.331136,0.06818 -0.448008,0.165569 -0.584359,0.243483 -0.10713,0.05843 -0.204527,0.116878 -0.272701,0.146091 -0.292179,-0.08766 -0.43827,-0.146091 -0.545402,-0.204527 -0.01948,-0.02922 -0.03895,-0.06818 -0.05843,-0.0974 -0.116877,-0.126612 -0.253223,-0.214265 -0.486966,-0.30192 -0.01948,-0.194787 0.06818,-0.311658 0.02922,-0.516183 -0.107129,-0.477227 -0.555142,-0.769407 -1.032369,-0.672014 -0.486965,0.09739 -0.808363,0.555142 -0.701231,1.032369 0.136346,0.701231 -0.07791,1.606987 -0.155828,2.678313 -0.0487,0.701231 0.175307,1.480377 0.574619,2.220565 -0.02922,0.0487 -0.0487,0.116878 -0.08765,0.15583 -1.684904,-0.43827 -3.506157,-0.886278 -5.171581,-0.545402 -0.70123,0.136345 -1.00315,0.652534 -1.217414,1.090803 -0.214266,0.43827 -0.370095,0.925235 -0.486967,1.402462 -0.126611,0.477227 -0.224004,0.954454 -0.301919,1.344027 -0.03896,0.136345 -0.03896,0.126611 -0.06818,0.243483 0.57462,0.428531 1.158979,0.837582 1.772557,1.217415 0.185047,-0.185046 0.360355,-0.41879 0.545402,-0.642795 0.175308,-0.233744 0.360356,-0.428529 0.457748,-0.818103 0.0974,-0.41879 0.57462,-0.905756 1.246634,-1.217415 0.633056,-0.301919 1.373244,-0.370095 1.889427,-0.28244 -0.02922,0.175308 -0.136345,0.555142 -0.28244,0.915496 0,0.0098 -0.01948,0.01948 -0.02922,0.02922 -0.0098,0.02922 -0.01948,0.06818 -0.02922,0.0974 -0.02922,0.08765 -0.01948,0.116877 -0.05843,0.214266 -0.243483,0.57462 -0.535663,1.227154 -0.730449,1.908906 -0.116877,0.409052 -0.175307,0.837583 -0.15583,1.285591 1.149241,0.486966 2.347177,0.876539 3.593811,1.149239 -0.165569,-0.2727 -0.214265,-0.506444 -0.185048,-0.876539 0.0487,-0.613576 0.379835,-1.636206 0.886279,-3.165279 0.08765,-0.272701 0.107129,-0.409052 0.185047,-0.642795 0.05843,0.08766 0.08765,0.224005 0.146089,0.301919 0.379835,0.477227 0.574621,0.71097 0.857061,1.042107 -0.02922,0.06818 0.0098,0.09739 -0.02922,0.175308 -0.321397,0.642795 -0.516184,1.207676 -0.457748,1.801775 0.0487,0.58436 0.42853,1.14924 0.876539,1.43168 0.399312,0.243483 0.827842,0.350615 1.28559,0.418791 0.02922,0.0098 0.05843,0 0.08766,0 0.360355,0.01948 0.730448,0.03895 1.100543,0.03895 4.548263,0 8.784868,-1.412201 12.261807,-3.837293 -0.175308,-0.01948 -0.340876,-0.02921 -0.516184,-0.02921 -0.136345,0 -0.233744,-0.02922 -0.370095,-0.02922 -0.0487,-0.204527 -0.136345,-0.399312 -0.175308,-0.584359 -0.0487,-0.214265 -0.0098,-0.272701 -0.03895,-0.457748 0.311657,-0.07791 0.496704,-0.136346 0.642795,-0.175308 0.03896,-0.01948 0.146089,-0.01948 0.185046,-0.03896 0.01948,0 0.01948,0.0098 0.08765,-0.02922 0.01948,-0.0098 0.05843,-0.03896 0.0974,-0.05843 0.02922,-0.01948 0.14609,-0.08765 0.14609,-0.08765 0,0 0.155829,-0.185046 0.155829,-0.185046 0,0 0.146091,-0.399313 0.146091,-0.399313 0,0 -0.146091,-0.57462 -0.146091,-0.57462 0,0 -0.07791,-0.0487 -0.126611,-0.08765 0.107129,-0.06818 0.175307,-0.116877 0.272702,-0.185047 0.486965,-0.311659 0.99341,-0.642795 1.431679,-0.944714 0.44801,-0.30192 0.808364,-0.535663 1.100543,-0.818103 1.110284,-1.120023 1.353766,-2.629617 1.704382,-3.32111 0.282441,-0.57462 0.740189,-1.110283 1.061586,-1.275851 0.15583,-0.08765 0.243483,-0.08765 0.370095,-0.06818 0.116877,0.01948 0.28244,0.07791 0.545402,0.340878 0.224004,0.224004 0.389573,0.438268 0.516184,0.672012 0.29218,-0.613576 0.525923,-1.246633 0.759667,-1.889429 -0.0098,-0.0098 -0.01948,-0.01948 -0.02922,-0.02921 -0.448008,-0.44801 -0.944713,-0.73045 -1.490115,-0.827843 -0.136346,-0.01948 -0.262963,-0.02922 -0.399312,-0.02922 z m -21.183026,4.411913 c 0.03896,-0.0098 0.08765,0.0098 0.126612,0 0.02922,0.214266 0.05843,0.389574 0.08765,0.642795 0,-0.0098 -0.02922,-0.01948 -0.02922,-0.02922 -0.05843,-0.272702 -0.116877,-0.389574 -0.185047,-0.613578 z m 2.347177,3.16528 c 0.01948,0.243483 0.224004,0.457748 0.301919,0.701231 -0.07791,-0.07791 -0.165568,-0.165568 -0.243483,-0.243483 -0.01948,-0.10713 -0.0098,-0.194786 -0.02922,-0.301918 -0.0098,-0.05843 -0.01948,-0.0974 -0.02922,-0.15583 z m 1.821253,0.02922 c 0.116878,0.165568 0.243484,0.350615 0.370095,0.525923 -0.03896,-0.01948 -0.116878,-0.05843 -0.15583,-0.06818 -0.03895,-0.03896 -0.07791,-0.07791 -0.116878,-0.116877 -0.05843,-0.05843 -0.05843,-0.214265 -0.09739,-0.340876 z m 8.278424,2.619877 c 0.03895,0.204526 -0.0098,0.399312 0.03895,0.613578 -0.701231,-0.0974 -1.460898,-0.204527 -2.132912,-0.399313 0.691493,-0.0487 1.421941,-0.0974 2.093955,-0.214265 z m -9.61271,0.613578 c 0.175307,0.165568 0.340876,0.340876 0.516183,0.516184 0.506445,0.506444 1.285591,0.944714 2.317958,1.548551 0.185048,0.10713 0.409052,0.224006 0.603839,0.340877 -0.934975,-0.0098 -1.908907,0 -2.619877,0 -1.110283,0 -2.02578,-0.165569 -2.220566,-0.282441 -0.09739,-0.05843 -0.01948,0.02922 -0.02922,-0.05843 0,-0.02922 0.07791,-0.224004 0.08766,-0.301917 0.0098,0.0098 0.01948,0.01948 0.03895,0.02922 0.0098,0.0098 0.03896,0.0098 0.05843,0.02922 0.01948,0.01948 0.116877,0.08765 0.116877,0.0974 0,0 1.28559,-0.857061 1.28559,-0.857061 -0.0098,0 0,-0.01948 0,-0.02922 -0.0098,-0.0098 0,-0.02922 0,-0.02922 -0.0098,-0.0098 0,-0.01948 0,-0.02922 -0.0098,-0.01948 -0.02922,-0.03896 -0.03895,-0.06818 -0.0098,-0.05843 -0.0098,-0.155828 -0.02922,-0.2727 -0.01948,-0.15583 -0.0487,-0.399312 -0.08765,-0.633056 z m 4.869661,0.457748 c 0.934975,0.399312 1.879688,0.798624 2.795185,1.032367 -0.370095,0.08766 -0.701231,0.0974 -1.090805,0.243484 -0.56488,-0.438271 -1.14924,-0.769407 -1.70438,-1.275851 z"
       id="p3380"
       style="display:inline;overflow:visible;visibility:visible;opacity:1;fill:#551308;fill-opacity:0.23999999;fill-rule:evenodd;stroke:none;marker:none;enable-background:accumulate" />
    <path
       inkscape:connector-curvature="0"
       d="m 51.010799,37.078133 c -1.597249,0.642795 -0.438269,2.386133 -0.301919,3.564591 0.175307,2.016039 -1.947864,3.097105 -3.691203,3.223716 -2.970493,0.57462 -5.931246,1.256372 -8.940697,1.548551 -1.860211,1.110283 0.262961,3.808075 1.977082,2.863362 1.792036,0.146089 0.681752,2.765967 2.405612,2.951014 0.691492,0.02922 3.252934,0.525923 1.246634,0.486966 -1.928386,-0.340876 -3.515895,-1.606988 -5.083926,-2.707531 -1.081065,-0.769407 -2.142652,-1.743339 -3.437982,-2.064737 -2.308218,0.185047 -1.032367,3.019191 -1.977082,4.109994 -1.56803,0.399312 -2.736749,-1.227154 -3.720421,-2.230305 -1.14924,-1.324547 -2.347177,-2.902317 -4.197647,-3.223715 -1.558291,0.09739 -1.392723,2.162129 -0.457748,2.951015 0.866799,0.613576 1.830992,0.993411 2.464048,1.918646 1.324547,1.470638 2.853621,3.087366 4.967054,3.223715 1.597249,-0.165568 2.824404,2.405613 4.324259,0.944715 0.915497,-0.837582 -0.876539,-3.476939 1.305069,-2.824404 2.01604,1.490117 4.431391,2.970494 7.061009,2.649096 1.587509,-0.2727 3.058146,-1.090803 4.29504,-2.103693 1.149241,-0.915496 1.110283,-2.999712 -0.584359,-3.16528 -1.382983,-0.672014 -0.701231,-2.084216 0.584359,-2.191348 1.032369,-0.993411 3.17502,-1.704382 3.340588,0.331138 0.370095,1.28559 0.418791,2.619877 0.613578,3.924947 1.830993,-2.093956 3.262672,-4.567742 4.16843,-7.265535 C 56.786218,41.519263 55.59802,39.191566 53.387194,37.8378 52.685963,37.38005 51.85812,37.039174 51.010799,37.078133 Z m 2.30822,4.382694 c 0.652534,0.350616 1.694642,2.785446 0.340876,2.006301 -0.467488,-0.525923 -0.973932,-1.402462 -0.340876,-2.006301 z m -14.579765,6.486388 c 0.03895,-0.0098 0.107129,0 0.214264,0.05843 -0.155828,0.146091 -0.321398,-0.0487 -0.214264,-0.05843 z"
       id="p3389"
       style="display:inline;overflow:visible;visibility:visible;opacity:1;fill:#801703;fill-opacity:0.18000004;fill-rule:evenodd;stroke:none;marker:none;enable-background:accumulate" />
    <path
       inkscape:connector-curvature="0"
       d="m 27.850691,55.047181 c 2.0063,1.811514 3.681463,2.395873 4.333998,2.522485"
       id="p3447"
       style="display:inline;overflow:visible;visibility:visible;opacity:1;fill:none;fill-opacity:1;fill-rule:evenodd;stroke:#9a3b18;stroke-width:0.97393227px;stroke-linecap:butt;stroke-linejoin:miter;stroke-miterlimit:4;stroke-dasharray:none;stroke-dashoffset:0;stroke-opacity:0.57999998;marker:none;enable-background:accumulate" />
    <path
       inkscape:connector-curvature="0"
       d="m 37.366009,41.441348 c -1.00315,2.288741 -0.73045,3.934686 0,4.937837"
       id="p3449"
       style="display:inline;fill:none;fill-rule:evenodd;stroke:#e27646;stroke-width:1.35376573;stroke-linecap:round;stroke-linejoin:miter;stroke-miterlimit:4;stroke-dasharray:none;stroke-opacity:0.58999999" />
    <path
       inkscape:connector-curvature="0"
       d="m 36.966697,38.315025 -0.516184,0.896018"
       id="p3451"
       style="display:inline;fill:none;fill-rule:evenodd;stroke:#181818;stroke-width:0.97393227px;stroke-linecap:butt;stroke-linejoin:miter;stroke-opacity:0.38000039" />
    <path
       inkscape:connector-curvature="0"
       d="m 32.048339,35.850978 -1.28559,0"
       id="p3453"
       style="display:inline;fill:none;fill-rule:evenodd;stroke:#181818;stroke-width:0.97393227px;stroke-linecap:butt;stroke-linejoin:miter;stroke-opacity:0.38000039" />
    <path
       inkscape:connector-curvature="0"
       d="m 26.126832,32.208472 c 0.360355,1.645945 2.736749,2.191346 4.382694,0.185045 1.830993,-0.185045 7.129183,0 8.599821,0.73045"
       id="p3455"
       style="display:inline;fill:none;fill-rule:evenodd;stroke:#f37022;stroke-width:2.14265084;stroke-linecap:round;stroke-linejoin:miter;stroke-miterlimit:4;stroke-dasharray:none;stroke-opacity:0.62000002" />
  </g>
  <circle
     style="color:#000000;clip-rule:nonzero;display:inline;overflow:visible;visibility:visible;opacity:1;isolation:auto;mix-blend-mode:normal;color-interpolation:sRGB;color-interpolation-filters:linearRGB;solid-color:#000000;solid-opacity:1;fill:none;fill-opacity:1;fill-rule:nonzero;stroke:#e77627;stroke-width:0.5;stroke-linecap:butt;stroke-linejoin:miter;stroke-miterlimit:4;stroke-dasharray:none;stroke-dashoffset:0;stroke-opacity:1;marker:none;marker-start:none;marker-mid:none;marker-end:none;color-rendering:auto;image-rendering:auto;shape-rendering:auto;text-rendering:auto;enable-background:accumulate"
     id="path3372"
     cx="24"
     cy="24"
     r="22" />
</svg>
