<?xml version="1.0" encoding="UTF-8" standalone="no"?>
<!-- Created with Inkscape (http://www.inkscape.org/) -->
<svg
   xmlns:svg="http://www.w3.org/2000/svg"
   xmlns="http://www.w3.org/2000/svg"
   xmlns:xlink="http://www.w3.org/1999/xlink"
   version="1.0"
   width="100%"
   height="100%"
   viewBox="0 0 640 230"
   id="svg2383"
   style="display:inline">
  <defs
     id="defs2385" />
  <path
     d="M 121.53125,23 C 121.11771,22.988161 120.70096,23.013002 120.28125,23.03125 C 93.419931,24.199132 40.875,30.312503 40.875,30.3125 L 57.21875,140.09375 L 92.25,137.78125 L 87.59375,106.25 L 114.4375,135.4375 L 164.65625,134.25 L 159.8125,130.25 C 161.29959,130.44182 162.81158,130.5625 164.34375,130.5625 C 175.29867,130.5625 185.24654,125.51531 192.4375,117.375 L 191.65625,136.34375 C 191.65625,136.34376 212.73477,138.17525 247.46875,140.65625 C 261.10729,141.63043 269.88801,132.11418 273.09375,120.125 C 283.52528,125.98229 295.75557,127.27828 306.75,122.5625 C 326.88572,113.92578 335.31317,88.399427 325.53125,65.59375 C 324.47687,63.13555 323.24332,60.808871 321.875,58.625 L 338.65625,60.0625 L 331.84375,144.40625 L 366.5625,142.53125 L 362.84375,60.65625 L 392.625,63.15625 L 391.375,38.96875 L 313.21875,37.09375 L 311.46875,46.78125 C 299.89358,37.339281 284.69095,34.199155 271.3125,39.9375 C 268.84524,40.995768 266.54066,42.315069 264.4375,43.84375 C 261.93467,39.088401 257.49476,35.469758 251.1875,34.59375 C 228.85851,31.492505 196.62025,29.03125 196,29.03125 L 194.875,56.84375 C 187.58485,46.949461 176.60123,40.65625 164.34375,40.65625 C 157.41919,40.65625 150.91829,42.654685 145.25,46.1875 C 140.7289,33.443398 132.17505,23.304703 121.53125,23 z M 229.28125,49.59375 C 241.1805,49.436854 246.35755,58.664571 236.9375,61.28125 C 225.77301,64.3825 222.03125,63.749999 222.03125,63.75 L 222.03125,50.75 C 224.64793,49.97469 227.07769,49.622805 229.28125,49.59375 z M 110.1875,55.5625 C 122.9064,55.123919 124.21889,73.99458 111.5,76.1875 C 98.781101,78.380409 83.4375,81.4375 83.4375,81.4375 L 79.9375,59.0625 C 79.937501,59.062499 97.468603,56.00108 110.1875,55.5625 z M 290.46875,55.8125 C 298.83759,55.713515 307.2043,61.275849 311.09375,70.34375 C 316.07224,81.950665 311.81055,94.916861 301.5625,99.3125 C 291.31446,103.70815 278.94724,97.888163 273.96875,86.28125 C 268.99027,74.674343 273.28321,61.676889 283.53125,57.28125 C 285.77301,56.319704 288.12548,55.840216 290.46875,55.8125 z M 168.75,61.40625 C 179.90097,61.406249 188.9375,71.65169 188.9375,84.28125 C 188.9375,96.910809 179.90097,107.15625 168.75,107.15625 C 157.59902,107.15625 148.53125,96.91081 148.53125,84.28125 C 148.53126,71.651699 157.59903,61.40625 168.75,61.40625 z M 248.46875,76.4375 C 248.46549,76.614711 248.47003,76.791171 248.46875,76.96875 C 247.54123,76.876166 246.57319,76.796554 245.59375,76.78125 C 246.58562,76.71205 247.5471,76.600948 248.46875,76.4375 z M 222.71875,92.78125 C 224.77091,92.738848 230.26232,94.320813 240.03125,95.40625 C 251.19575,96.646747 258.02525,115.875 245,115.875 C 231.97476,115.875 222.03125,113.375 222.03125,113.375 L 222.03125,92.90625 C 222.18631,92.828717 222.42559,92.787307 222.71875,92.78125 z M 126.53125,99.25 C 126.99294,100.88789 127.53854,102.48068 128.15625,104.03125 L 123.78125,100.40625 C 123.78125,100.40625 125.08509,99.866385 126.53125,99.25 z"
     id="path3403"
     style="opacity:1;fill:none;fill-opacity:1;fill-rule:evenodd;stroke:#ffffff;stroke-width:25;stroke-linecap:butt;stroke-linejoin:round;marker:none;marker-start:none;marker-mid:none;marker-end:none;stroke-miterlimit:4;stroke-dasharray:none;stroke-dashoffset:0;stroke-opacity:1;visibility:visible;display:inline;overflow:visible;enable-background:accumulate" />
  <text
     x="70.992905"
     y="393.60284"
     id="text3495"
     xml:space="preserve"
     style="font-size:64px;font-style:normal;font-variant:normal;font-weight:normal;font-stretch:normal;text-align:start;line-height:80.00000119%;writing-mode:lr-tb;text-anchor:start;fill:#000000;fill-opacity:1;stroke:none;stroke-width:1px;stroke-linecap:butt;stroke-linejoin:miter;stroke-opacity:1;font-family:Arial Black;-inkscape-font-specification:Arial Black"><tspan
       x="70.992905"
       y="393.60284"
       id="tspan3497" /></text>
  <path
     d="M 164.34799,40.643531 C 142.43815,40.643531 124.66049,60.766011 124.66049,85.581031 C 124.66049,110.39604 142.43816,130.54978 164.34799,130.54978 C 186.25783,130.54978 204.06674,110.39604 204.06674,85.581031 C 204.06674,60.766021 186.25784,40.643531 164.34799,40.643531 z M 168.75424,61.393531 C 179.90521,61.393531 188.94174,71.638971 188.94174,84.268531 C 188.94174,96.898091 179.90521,107.14353 168.75424,107.14353 C 157.60326,107.14353 148.53549,96.898091 148.53549,84.268531 C 148.5355,71.638981 157.60327,61.393531 168.75424,61.393531 z"
     id="path2519"
     style="opacity:1;fill:#e68425;fill-opacity:1;fill-rule:evenodd;stroke:#f7ff0b;stroke-width:8;stroke-linecap:butt;stroke-linejoin:round;marker:none;marker-start:none;marker-mid:none;marker-end:none;stroke-miterlimit:4;stroke-dasharray:none;stroke-dashoffset:0;stroke-opacity:1;visibility:visible;display:inline;overflow:visible;enable-background:accumulate" />
  <path
     d="M 121.53549,22.987281 C 121.12195,22.975443 120.7052,23.000283 120.28549,23.018531 C 93.424173,24.186414 40.879243,30.299784 40.879243,30.299781 L 57.222993,140.08103 L 92.254243,137.76853 L 87.597993,106.23728 L 114.44174,135.42478 L 164.66049,134.23728 L 123.78549,100.39353 C 123.78549,100.39353 129.19595,98.206431 133.56674,96.018531 C 161.15798,83.372541 147.58832,23.733103 121.53549,22.987281 z M 110.19174,55.549781 C 122.91064,55.111201 124.22313,73.981861 111.50424,76.174781 C 98.785343,78.367691 83.441743,81.424781 83.441743,81.424781 L 79.941743,59.049781 C 79.941743,59.049781 97.472843,55.988361 110.19174,55.549781 z"
     id="path2514"
     style="fill:#e68425;fill-opacity:1;fill-rule:evenodd;stroke:#f7ff0b;stroke-width:8;stroke-linecap:butt;stroke-linejoin:round;stroke-miterlimit:4;stroke-dasharray:none;stroke-opacity:1" />
  <path
     d="M 271.29922,39.947908 C 251.16347,48.584623 242.75746,74.085573 252.53938,96.891258 C 262.32129,119.69694 286.60393,131.21094 306.73967,122.57423 C 326.87541,113.93751 335.29782,88.395515 325.5159,65.589838 C 315.73399,42.784161 291.43497,31.31119 271.29922,39.947908 z M 283.52819,57.280814 C 293.77624,52.885175 306.11975,58.738876 311.09824,70.345789 C 316.07673,81.952702 311.81059,94.930684 301.56254,99.326323 C 291.31449,103.72197 278.94227,97.88058 273.96378,86.273667 C 268.9853,74.666759 273.28015,61.676453 283.52819,57.280814 z"
     id="path2532"
     style="opacity:1;fill:#e68425;fill-opacity:1;fill-rule:evenodd;stroke:#f7ff0b;stroke-width:8;stroke-linecap:butt;stroke-linejoin:round;marker:none;marker-start:none;marker-mid:none;marker-end:none;stroke-miterlimit:4;stroke-dasharray:none;stroke-dashoffset:0;stroke-opacity:1;visibility:visible;display:inline;overflow:visible;enable-background:accumulate" />
  <path
     d="M 196.01334,29.044439 L 191.66959,136.35694 C 191.66959,136.35694 212.74811,138.18844 247.48209,140.66944 C 282.21607,143.15044 285.30307,77.414689 245.60709,76.794439 C 272.27783,74.93369 273.52983,37.708187 251.20084,34.606939 C 228.87185,31.505692 196.63359,29.044439 196.01334,29.044439 z M 229.29459,49.606939 C 241.19384,49.450041 246.37089,58.67776 236.95084,61.294439 C 225.78635,64.395687 222.04459,63.763188 222.04459,63.763189 L 222.04459,50.763189 C 224.66127,49.987877 227.09103,49.635994 229.29459,49.606939 z M 222.73209,92.794439 C 224.78425,92.752039 230.27566,94.334002 240.04459,95.419439 C 251.20909,96.659938 258.03859,115.88819 245.01334,115.88819 C 231.9881,115.88819 222.04459,113.38819 222.04459,113.38819 L 222.04459,92.919439 C 222.19965,92.841908 222.43893,92.800496 222.73209,92.794439 z"
     id="path2524"
     style="fill:#e68425;fill-opacity:1;fill-rule:evenodd;stroke:#f7ff0b;stroke-width:8;stroke-linecap:butt;stroke-linejoin:round;stroke-miterlimit:4;stroke-dasharray:none;stroke-opacity:1" />
  <path
     d="M 313.22609,37.102351 L 309.50459,57.570591 L 338.65632,60.051589 L 331.83358,144.40555 L 366.56756,142.5448 L 362.84606,60.671839 L 392.61804,63.152838 L 391.37754,38.9631 L 313.22609,37.102351 z"
     id="path2534"
     style="fill:#e68425;fill-opacity:1;fill-rule:evenodd;stroke:#f7ff0b;stroke-width:8;stroke-linecap:butt;stroke-linejoin:round;stroke-miterlimit:4;stroke-dasharray:none;stroke-opacity:1" />
  <path
     d="M 456,33.40625 L 416.1875,36.78125 L 420.5,87.625 L 466,94.75 L 437.28125,101.09375 C 417.64408,102.92917 391.26113,102.5599 382.0625,114.625 C 372.95911,126.56519 367.79549,146.896 369.65625,153.71875 C 371.31166,159.78858 387.21933,168.2855 401.625,169.65625 L 408.5,180.65625 L 418.5625,180.1875 L 432.8125,167.84375 L 459.03125,175.875 L 460.0625,193.75 L 468.875,196.46875 L 488.9375,185.0625 L 516.90625,193.625 L 522.90625,190.9375 C 523.49644,194.36313 524.65982,197.2948 526.5,199.375 C 537.53203,211.84595 567.74174,212.83809 572.0625,213.28125 C 590.76893,215.19986 615.98943,183.83063 621.46875,174.4375 C 628.18386,162.92585 621.95717,127.91278 592.21875,131.75 C 591.84008,131.79886 591.49762,131.85709 591.125,131.90625 L 587.40625,112.09375 L 526.125,99.15625 L 558.15625,89.0625 L 553.34375,42.0625 L 456,33.40625 z"
     id="path2571"
     style="fill:none;fill-opacity:1;fill-rule:evenodd;stroke:#ffffff;stroke-width:20;stroke-linecap:butt;stroke-linejoin:round;stroke-miterlimit:4;stroke-dasharray:none;stroke-opacity:1" />
  <use
     transform="matrix(0.8708033,5.5446119e-2,-5.5446119e-2,0.8708033,-74.94404,-45.751884)"
     id="use3460"
     x="0"
     y="0"
     width="640"
     height="240"
     xlink:href="#g3447" />
  <path
     d="M 415.21927,162.44299 L 407.06519,107.76268 L 485.24845,90.495212 L 587.4143,112.07955 L 596.04804,158.12613 L 516.90547,193.62037 L 415.21927,162.44299 z"
     id="path3274"
     style="fill:#343482;fill-opacity:1;fill-rule:evenodd;stroke:none;stroke-width:1px;stroke-linecap:butt;stroke-linejoin:miter;marker:none;marker-start:none;marker-mid:none;marker-end:none;stroke-miterlimit:4;stroke-dasharray:none;stroke-dashoffset:0;stroke-opacity:1;visibility:visible;display:inline;overflow:visible;enable-background:accumulate" />
  <path
     d="M 587.45465,112.36764 L 515.94518,132.71265 L 497.8762,187.80212 L 516.8974,193.63157 L 596.04787,158.1207 L 587.45465,112.36764 z"
     id="path3334"
     style="fill:#232359;fill-opacity:1;fill-rule:evenodd;stroke:none;stroke-width:1px;stroke-linecap:butt;stroke-linejoin:miter;marker:none;marker-start:none;marker-mid:none;marker-end:none;stroke-miterlimit:4;stroke-dasharray:none;stroke-dashoffset:0;stroke-opacity:1;visibility:visible;display:inline;overflow:visible;enable-background:accumulate" />
  <path
     d="M 511.57889,96.063754 L 482.84969,107.28138 L 501.54574,114.4811 L 527.46473,115.92105 L 553.33727,104.88922 L 511.57889,96.063754 z"
     id="path3293"
     style="fill:#302a4c;fill-opacity:1;fill-rule:evenodd;stroke:none;stroke-width:1px;stroke-linecap:butt;stroke-linejoin:miter;stroke-opacity:1" />
  <path
     d="M 469.89959,92.41382 L 472.29785,107.28303 L 502.03626,115.43711 L 514.02756,112.5592 L 510.66999,96.251032 L 469.89959,92.41382 z"
     id="path3286"
     style="fill:#4d4db8;fill-opacity:1;fill-rule:evenodd;stroke:none;stroke-width:1px;stroke-linecap:butt;stroke-linejoin:miter;marker:none;marker-start:none;marker-mid:none;marker-end:none;stroke-miterlimit:4;stroke-dasharray:none;stroke-dashoffset:0;stroke-opacity:1;visibility:visible;display:inline;overflow:visible;enable-background:accumulate" />
  <path
     d="M 416.17857,36.774199 L 420.49544,87.6173 L 515.46651,102.48651 L 558.15553,89.056257 L 553.35902,42.05037 L 455.98968,33.416636 L 416.17857,36.774199 z"
     id="path2458"
     style="fill:#343482;fill-opacity:1;fill-rule:evenodd;stroke:none;stroke-width:1px;stroke-linecap:butt;stroke-linejoin:miter;stroke-opacity:1" />
  <path
     d="M 553.38372,42.298103 L 497.36525,49.613948 L 515.82905,102.38093 L 558.14482,89.049833 L 553.38372,42.298103 z"
     id="path3260"
     style="fill:#232359;fill-opacity:1;fill-rule:evenodd;stroke:none;stroke-width:1px;stroke-linecap:butt;stroke-linejoin:miter;stroke-opacity:1" />
  <path
     d="M 469.89019,92.417444 L 471.14434,100.19779 L 501.08124,103.44927 L 501.80121,115.36365 L 502.03346,115.43332 L 514.01751,112.55344 L 510.67312,96.249553 L 469.89019,92.417444 z"
     id="path3288"
     style="fill:#232359;fill-opacity:1;fill-rule:evenodd;stroke:none;stroke-width:1px;stroke-linecap:butt;stroke-linejoin:miter;marker:none;marker-start:none;marker-mid:none;marker-end:none;stroke-miterlimit:4;stroke-dasharray:none;stroke-dashoffset:0;stroke-opacity:1;visibility:visible;display:inline;overflow:visible;enable-background:accumulate" />
  <path
     d="M 416.17099,36.770576 L 420.49082,87.609889 L 515.45745,102.49705 L 516.27032,102.24158 L 515.45745,47.337907 L 416.19422,36.770576 L 416.17099,36.770576 z"
     id="path3230"
     style="fill:#4d4db8;fill-opacity:1;fill-rule:evenodd;stroke:none;stroke-width:1px;stroke-linecap:butt;stroke-linejoin:miter;stroke-opacity:1" />
  <path
     d="M 426.73091,48.285844 L 429.12917,82.34113 L 508.75139,90.974864 L 505.39382,54.521319 L 426.73091,48.285844 z"
     id="path3235"
     style="fill:#222257;fill-opacity:1;fill-rule:evenodd;stroke:none;stroke-width:1px;stroke-linecap:butt;stroke-linejoin:miter;stroke-opacity:1" />
  <path
     d="M 432.9626,48.801076 L 435.49411,79.899221 L 508.58288,89.096283 L 505.40107,54.514402 L 432.9626,48.801076 z"
     id="path3242"
     style="fill:#3e5487;fill-opacity:1;fill-rule:evenodd;stroke:none;stroke-width:1px;stroke-linecap:butt;stroke-linejoin:miter;stroke-opacity:1" />
  <path
     d="M 436.79273,61.233482 L 437.28045,69.385423 L 507.72356,79.643747 L 506.58554,67.497123 L 436.79273,61.233482 z"
     id="path3247"
     style="fill:#701501;fill-opacity:1;fill-rule:evenodd;stroke:none;stroke-width:1px;stroke-linecap:butt;stroke-linejoin:miter;stroke-opacity:1" />
  <path
     d="M 407.43843,107.67621 L 407.06683,107.76911 L 415.21877,162.44053 L 516.8974,193.63157 L 517.52447,193.35287 L 522.65717,131.27271 L 407.43843,107.67621 z"
     id="path3281"
     style="fill:#4d4db8;fill-opacity:1;fill-rule:evenodd;stroke:none;stroke-width:1px;stroke-linecap:butt;stroke-linejoin:miter;marker:none;marker-start:none;marker-mid:none;marker-end:none;stroke-miterlimit:4;stroke-dasharray:none;stroke-dashoffset:0;stroke-opacity:1;visibility:visible;display:inline;overflow:visible;enable-background:accumulate" />
  <path
     d="M 496.27368,140.37687 L 472.77008,155.72853 L 470.35469,179.34826 L 515.8755,193.30642 L 496.27368,140.37687 z M 443.0422,157.6562 L 420.79275,164.15917 L 447.98911,172.49691 L 443.0422,157.6562 z"
     id="path3326"
     style="fill:#3c345f;fill-opacity:1;fill-rule:evenodd;stroke:none;stroke-width:1px;stroke-linecap:butt;stroke-linejoin:miter;stroke-opacity:1" />
  <path
     d="M 418.09718,120.71328 L 443.99838,158.12613 L 418.57683,180.19012 L 408.50414,180.66977 L 378.76572,133.18423 L 386.44015,126.94876 L 418.09718,120.71328 z"
     id="path3303"
     style="fill:#3c3c7a;fill-opacity:1;fill-rule:evenodd;stroke:none;stroke-width:1px;stroke-linecap:butt;stroke-linejoin:miter;marker:none;marker-start:none;marker-mid:none;marker-end:none;stroke-miterlimit:4;stroke-dasharray:none;stroke-dashoffset:0;stroke-opacity:1;visibility:visible;display:inline;overflow:visible;enable-background:accumulate" />
  <path
     d="M 385.60702,127.6264 L 378.75567,133.17715 L 408.50677,180.67208 L 418.58638,180.18435 L 419.05088,179.78953 L 385.60702,127.6264 z"
     id="path3305"
     style="fill:#4d4d9d;fill-opacity:1;fill-rule:evenodd;stroke:none;stroke-width:1px;stroke-linecap:butt;stroke-linejoin:miter;marker:none;marker-start:none;marker-mid:none;marker-end:none;stroke-miterlimit:4;stroke-dasharray:none;stroke-dashoffset:0;stroke-opacity:1;visibility:visible;display:inline;overflow:visible;enable-background:accumulate" />
  <path
     d="M 456.66759,135.41448 L 489.90577,138.12779 L 498.04574,139.48445 L 498.72407,179.50594 L 468.87753,196.46419 L 460.05924,193.75088 L 456.66759,135.41448 z"
     id="path3310"
     style="fill:#343469;fill-opacity:1;fill-rule:evenodd;stroke:none;stroke-width:1px;stroke-linecap:butt;stroke-linejoin:miter;marker:none;marker-start:none;marker-mid:none;marker-end:none;stroke-miterlimit:4;stroke-dasharray:none;stroke-dashoffset:0;stroke-opacity:1;visibility:visible;display:inline;overflow:visible;enable-background:accumulate" />
  <path
     d="M 456.67522,135.40674 L 460.06606,193.7477 L 468.8683,196.46501 L 468.98442,196.39534 L 465.82583,137.7989 L 498.03878,140.05172 L 498.03878,139.49432 L 489.91006,138.12405 L 456.67522,135.40674 z"
     id="path3312"
     style="fill:#6b6bb7;fill-opacity:1;fill-rule:evenodd;stroke:none;stroke-width:1px;stroke-linecap:butt;stroke-linejoin:miter;marker:none;marker-start:none;marker-mid:none;marker-end:none;stroke-miterlimit:4;stroke-dasharray:none;stroke-dashoffset:0;stroke-opacity:1;visibility:visible;display:inline;overflow:visible;enable-background:accumulate" />
  <path
     d="M 456.67522,135.40674 L 460.06606,193.7477 L 468.8683,196.46501 L 468.98442,196.39534 L 465.84906,138.0776 L 456.90747,135.42996 L 456.67522,135.40674 z"
     id="path3314"
     style="fill:#4d4d9d;fill-opacity:1;fill-rule:evenodd;stroke:none;stroke-width:1px;stroke-linecap:butt;stroke-linejoin:miter;marker:none;marker-start:none;marker-mid:none;marker-end:none;stroke-miterlimit:4;stroke-dasharray:none;stroke-dashoffset:0;stroke-opacity:1;visibility:visible;display:inline;overflow:visible;enable-background:accumulate" />
  <g
     transform="matrix(0.7431969,0,0,0.7431969,187.86426,29.16302)"
     id="g3447">
    <path
       d="M 489.20568,148.35461 C 457.58156,155.4539 440.80142,212.24823 455.64539,229.02837 C 470.48937,245.80851 511.14369,247.1484 516.95745,247.74468 C 542.12766,250.32624 576.05999,208.1069 583.43263,195.46808 C 592.46809,179.97872 584.07802,132.86525 544.06383,138.02837 C 504.04965,143.19149 489.20568,149.64539 489.20568,148.35461 z"
       id="path3339"
       style="fill:#674f59;fill-opacity:1;fill-rule:evenodd;stroke:none;stroke-width:1px;stroke-linecap:butt;stroke-linejoin:miter;stroke-opacity:1" />
    <path
       d="M 450.3125,206.34375 C 449.6761,215.82405 451.3253,224.13539 455.65625,229.03125 C 470.50023,245.81139 511.15499,247.15372 516.96875,247.75 C 527.60112,248.8405 539.77804,241.91631 550.875,232.625 L 450.3125,206.34375 z"
       id="path3350"
       style="fill:#48373e;fill-opacity:1;fill-rule:evenodd;stroke:none;stroke-width:1px;stroke-linecap:butt;stroke-linejoin:miter;stroke-opacity:1" />
    <path
       d="M 549.46875,137.625 C 547.7306,137.64593 545.93817,137.78923 544.0625,138.03125 C 504.04831,143.19437 489.21875,149.63453 489.21875,148.34375 C 474.39494,151.67154 462.82227,165.91708 456.25,181.84375 L 568.15625,215.59375 C 575.3616,207.42761 580.94348,199.74422 583.4375,195.46875 C 592.04944,180.70546 584.81122,137.19939 549.46875,137.625 z"
       id="path3355"
       style="fill:#7a5b61;fill-opacity:1;fill-rule:evenodd;stroke:none;stroke-width:1px;stroke-linecap:butt;stroke-linejoin:miter;stroke-opacity:1" />
    <path
       d="M 479.1875,152.46875 C 478.29699,153.00997 477.4189,153.60068 476.5625,154.21875 L 545.34375,173.53125 L 547.28125,171.59375 L 479.1875,152.46875 z M 465.8125,164.96875 C 464.6837,166.45482 463.61221,167.99123 462.59375,169.59375 L 527.28125,190.9375 L 529.21875,184.5 L 465.8125,164.96875 z M 454.5625,186.28125 C 453.59181,189.06225 452.78181,191.8732 452.125,194.65625 L 520.1875,223.21875 L 519.53125,216.78125 L 454.5625,186.28125 z M 450.78125,217.59375 C 451.11717,219.57451 451.58187,221.43242 452.21875,223.125 L 520.1875,240.65625 L 522.125,234.84375 L 450.78125,217.59375 z"
       id="path3360"
       style="fill:#3f3036;fill-opacity:1;fill-rule:evenodd;stroke:none;stroke-width:1px;stroke-linecap:butt;stroke-linejoin:miter;stroke-opacity:1" />
    <path
       d="M 574.71875,157.875 C 565.94253,157.91007 553.18285,164.25931 535.03125,166.4375 C 510.54035,180.43229 497.64307,236.56984 521.5625,247.75 C 546.09566,245.39821 576.50487,207.35327 583.4375,195.46875 C 587.71575,188.13462 588.0738,173.70138 583.03125,161.09375 C 580.78673,158.75208 578.02673,157.86178 574.71875,157.875 z"
       id="path3341"
       style="fill:#331d28;fill-opacity:1;fill-rule:evenodd;stroke:none;stroke-width:1px;stroke-linecap:butt;stroke-linejoin:miter;stroke-opacity:1" />
    <path
       d="M 570.70197,163.28775 C 563.23494,163.31759 552.37868,168.71968 536.93484,170.57294 C 516.09737,182.48006 505.12404,230.2433 525.47529,239.75566 C 546.34872,237.7547 572.22165,205.38511 578.1201,195.27346 C 581.76015,189.0334 582.06478,176.75323 577.77445,166.02635 C 575.86476,164.034 573.51648,163.27651 570.70197,163.28775 z"
       id="path3380"
       style="fill:#533f48;fill-opacity:1;fill-rule:evenodd;stroke:none;stroke-width:1px;stroke-linecap:butt;stroke-linejoin:miter;stroke-opacity:1" />
    <path
       d="M 557.15625,166.15625 C 551.50235,167.76565 544.82495,169.61601 536.9375,170.5625 C 521.7829,179.22228 511.83929,206.85432 515.375,224.9375 C 533.55628,218.28959 552.74386,203.38108 557.46875,195.28125 C 561.09537,189.06427 561.39688,176.85481 557.15625,166.15625 z"
       id="path3382"
       style="fill:#331d28;fill-opacity:1;fill-rule:evenodd;stroke:none;stroke-width:1px;stroke-linecap:butt;stroke-linejoin:miter;stroke-opacity:1" />
    <path
       d="M 561.40625,164.96875 C 556.88643,166.19456 551.61921,167.84997 545.4375,169.15625 C 543.86247,170.99414 542.56391,173.18193 541.71875,175.625 C 539.71262,181.42402 540.79893,186.95417 544.0625,189.96875 L 544,190.09375 L 544.375,190.25 C 548.22862,192.13603 551.93813,194.64096 556.1875,195.5625 C 560.41615,196.38957 565.13495,193.9357 568.25,189.71875 C 569.28836,188.3131 570.14867,186.70698 570.75,184.96875 C 572.27795,180.55206 571.76356,176.29455 569.75,173.5 C 567.80711,170.94269 564.71563,167.99814 562.1875,165.53125 L 561.9375,165.28125 L 561.90625,165.3125 C 561.74925,165.19027 561.57145,165.08003 561.40625,164.96875 z"
       id="path3402"
       style="opacity:1;fill:#45405d;fill-opacity:1;fill-rule:evenodd;stroke:none;stroke-width:1px;stroke-linecap:butt;stroke-linejoin:miter;marker:none;marker-start:none;marker-mid:none;marker-end:none;stroke-miterlimit:4;stroke-dasharray:none;stroke-dashoffset:0;stroke-opacity:1;visibility:visible;display:inline;overflow:visible;enable-background:accumulate" />
    <path
       d="M 554.02068,201.66579 C 554.02441,214.27045 543.80736,224.49053 531.20269,224.49053 C 518.59803,224.49053 508.38098,214.27045 508.38471,201.66579 C 508.38098,189.06113 518.59803,178.84105 531.2027,178.84105 C 543.80736,178.84105 554.02441,189.06113 554.02068,201.66579 z"
       transform="matrix(-0.4476331,-8.7551374e-2,0.1909668,-0.5520168,759.80505,340.79608)"
       id="path3404"
       style="opacity:1;fill:#564f74;fill-opacity:1;fill-rule:evenodd;stroke:none;stroke-width:1px;stroke-linecap:butt;stroke-linejoin:miter;marker:none;marker-start:none;marker-mid:none;marker-end:none;stroke-miterlimit:4;stroke-dasharray:none;stroke-dashoffset:0;stroke-opacity:1;visibility:visible;display:inline;overflow:visible;enable-background:accumulate" />
    <path
       d="M 534.4375,172.21875 C 521.0741,182.0475 512.52375,206.52338 515.15625,223.5625 C 522.01824,225.65046 528.86132,228.40425 536.09375,228.65625 C 543.86558,228.76829 551.47888,222.8911 555.65625,214.40625 C 557.04874,211.57796 558.02124,208.43478 558.53125,205.15625 C 559.82715,196.82583 557.59565,189.44005 553.125,185.125 C 548.85583,181.20838 542.43528,177.00589 537.15625,173.4375 L 536.59375,173.03125 L 536.53125,173.125 C 535.85866,172.77244 535.15898,172.47077 534.4375,172.21875 z"
       id="path3394"
       style="opacity:1;fill:#36314d;fill-opacity:1;fill-rule:evenodd;stroke:none;stroke-width:1px;stroke-linecap:butt;stroke-linejoin:miter;marker:none;marker-start:none;marker-mid:none;marker-end:none;stroke-miterlimit:4;stroke-dasharray:none;stroke-dashoffset:0;stroke-opacity:1;visibility:visible;display:inline;overflow:visible;enable-background:accumulate" />
    <path
       d="M 554.02068,201.66579 C 554.02441,214.27045 543.80736,224.49053 531.20269,224.49053 C 518.59803,224.49053 508.38098,214.27045 508.38471,201.66579 C 508.38098,189.06113 518.59803,178.84105 531.2027,178.84105 C 543.80736,178.84105 554.02441,189.06113 554.02068,201.66579 z"
       transform="matrix(-0.8227064,-1.1860499e-2,0.1619647,-1.041172,944.14504,421.15556)"
       id="path3387"
       style="opacity:1;fill:#504973;fill-opacity:1;fill-rule:evenodd;stroke:none;stroke-width:1px;stroke-linecap:butt;stroke-linejoin:miter;marker:none;marker-start:none;marker-mid:none;marker-end:none;stroke-miterlimit:4;stroke-dasharray:none;stroke-dashoffset:0;stroke-opacity:1;visibility:visible;display:inline;overflow:visible;enable-background:accumulate" />
  </g>
  <path
     d="M 443.65921,67.225035 L 454.35204,67.83519"
     id="path3678"
     style="fill:none;fill-rule:evenodd;stroke:#bc2a1c;stroke-width:5.94557524;stroke-linecap:round;stroke-linejoin:miter;stroke-miterlimit:4;stroke-dasharray:none;stroke-opacity:1" />
  <path
     d="M 471.67771,69.215953 L 490.35004,72.535294"
     id="path3680"
     style="fill:none;fill-rule:evenodd;stroke:#bc2a1c;stroke-width:8.24948597;stroke-linecap:round;stroke-linejoin:miter;stroke-miterlimit:4;stroke-dasharray:none;stroke-opacity:1" />
</svg>
