<?xml version="1.0" encoding="UTF-8" standalone="no"?>
<!-- Created with Inkscape (http://www.inkscape.org/) -->
<svg
   xmlns:svg="http://www.w3.org/2000/svg"
   xmlns="http://www.w3.org/2000/svg"
   version="1.0"
   width="100%"
   height="100%"
   viewBox="0 0 48 48"
   id="svg2383">
  <defs
     id="defs2385">
  </defs>
  <g
     id="layer1">
    <rect
       width="48"
       height="48"
       ry="5.2857141"
       x="0"
       y="0"
       id="rect2393"
       style="opacity:1;fill:#ffffff;fill-opacity:1;fill-rule:evenodd;stroke:none;stroke-width:1;stroke-linecap:butt;stroke-linejoin:miter;marker:none;marker-start:none;marker-mid:none;marker-end:none;stroke-miterlimit:4;stroke-dasharray:none;stroke-dashoffset:0;stroke-opacity:1;visibility:visible;display:inline;overflow:visible;enable-background:accumulate" />
    <rect
       width="44"
       height="44"
       ry="5.2857141"
       x="2"
       y="2"
       id="rect3165"
       style="opacity:1;fill:#e44a4a;fill-opacity:1;fill-rule:evenodd;stroke:none;stroke-width:1;stroke-linecap:butt;stroke-linejoin:miter;marker:none;marker-start:none;marker-mid:none;marker-end:none;stroke-miterlimit:4;stroke-dasharray:none;stroke-dashoffset:0;stroke-opacity:1;visibility:visible;display:inline;overflow:visible;enable-background:accumulate" />
    <path
       d="M 7.5763872,14.83392 L 23.468357,14.83392 L 23.468357,20.638078 L 14.032499,20.638078 L 14.032499,25.355111 L 22.091998,25.355111 L 22.091998,30.809179 L 14.032499,30.809179 L 14.032499,41.846295 L 7.5763872,41.846295 L 7.5763872,14.83392 M 39.119109,14.373271 L 39.119109,41.846295 L 33.273135,41.846295 L 33.273135,23.844187 C 32.327176,24.777784 31.409606,25.533244 30.520418,26.110573 C 29.64068,26.687934 28.533918,27.240709 27.200132,27.768904 L 27.200132,21.614652 C 29.167705,20.79165 30.695414,19.802793 31.783262,18.648081 C 32.871098,17.493416 33.722453,16.06848 34.337329,14.373271 L 39.119109,14.373271"
       id="text2382"
       style="font-size:28.89360237px;font-style:normal;font-variant:normal;font-weight:normal;font-stretch:normal;fill:#eb9e9e;fill-opacity:0.6;stroke:none;stroke-width:1px;stroke-linecap:butt;stroke-linejoin:miter;stroke-opacity:1;font-family:Arial Black;-inkscape-font-specification:Arial Black" />
    <path
       d="M 7.28125,2 C 4.3529644,2 2,4.3529644 2,7.28125 L 2,14.15625 C 7.7634036,16.742619 15.339518,18.34375 23.6875,18.34375 C 32.319606,18.34375 40.172268,16.651235 46,13.90625 L 46,7.28125 C 46,4.3529644 43.647035,2 40.71875,2 L 7.28125,2 z"
       id="path3958"
       style="opacity:1;fill:#ffcccc;fill-opacity:0.28181817;fill-rule:evenodd;stroke:none;stroke-width:1;stroke-linecap:butt;stroke-linejoin:miter;marker:none;marker-start:none;marker-mid:none;marker-end:none;stroke-miterlimit:4;stroke-dasharray:none;stroke-dashoffset:0;stroke-opacity:1;visibility:visible;display:inline;overflow:visible;enable-background:accumulate" />
    <text
       x="52.42857"
       y="21.285713"
       id="text3728"
       xml:space="preserve"
       style="font-size:64px;font-style:normal;font-variant:normal;font-weight:normal;font-stretch:normal;text-align:start;line-height:80.00000119%;writing-mode:lr-tb;text-anchor:start;fill:#000000;fill-opacity:1;stroke:none;stroke-width:1px;stroke-linecap:butt;stroke-linejoin:miter;stroke-opacity:1;font-family:Arial Black;-inkscape-font-specification:Arial Black"><tspan
         x="52.42857"
         y="21.285713"
         id="tspan3730" /></text>
    <path
       d="M 9.3959304,10.252695 C 10.061805,10.458943 10.727681,10.66519 11.393556,10.871438 C 11.152468,12.280377 9.9489859,13.447813 8.5260546,13.456944 C 7.167855,13.578843 5.5802962,13.280414 4.8416972,11.966947 C 4.0156935,10.617212 4.0275414,8.7964573 4.6772199,7.3774984 C 5.585973,5.6155281 7.8959494,5.3287174 9.5802361,5.9263345 C 10.461489,6.2623938 11.049827,7.1120768 11.32311,8.0045962 C 10.652203,8.1575632 9.981296,8.3105302 9.3103894,8.4634972 C 9.1000662,7.2070116 7.2322362,7.028828 6.7414967,8.1677428 C 6.3970806,9.13718 6.3718179,10.343311 6.8749975,11.258152 C 7.523172,12.065064 9.0085658,11.799126 9.2565297,10.742373 C 9.3160373,10.583417 9.3608452,10.418992 9.3959303,10.252695 L 9.3959304,10.252695 z M 17.034205,12.093455 C 16.168735,12.093455 15.303265,12.093455 14.437795,12.093455 C 14.318709,12.509387 14.199624,12.92532 14.080538,13.341252 C 13.303963,13.341252 12.527388,13.341252 11.750813,13.341252 C 12.674988,10.821595 13.599162,8.3019366 14.523336,5.7822787 C 15.351906,5.7822787 16.180476,5.7822787 17.009046,5.7822787 C 17.93322,8.3019366 18.857394,10.821595 19.781568,13.341252 C 18.986544,13.341252 18.19152,13.341252 17.396497,13.341252 C 17.275733,12.92532 17.154969,12.509387 17.034205,12.093455 z M 16.556184,10.458943 C 16.284467,9.553172 16.012749,8.6474014 15.741032,7.7416307 C 15.470993,8.6474014 15.200952,9.553172 14.930912,10.458943 C 15.472669,10.458943 16.014427,10.458943 16.556184,10.458943 z M 20.506148,5.7822787 C 21.265951,5.7822787 22.025753,5.7822787 22.785555,5.7822787 C 22.785555,7.6814753 22.785555,9.580672 22.785555,11.479868 C 23.971382,11.479868 25.157211,11.479868 26.343039,11.479868 C 26.343039,12.10033 26.343039,12.720791 26.343039,13.341252 C 24.397409,13.341252 22.451779,13.341252 20.506148,13.341252 C 20.506148,10.821595 20.506148,8.3019366 20.506148,5.7822787 z M 27.389655,5.7822787 C 28.149456,5.7822787 28.909258,5.7822787 29.66906,5.7822787 C 29.66906,7.6814753 29.66906,9.580672 29.66906,11.479868 C 30.854889,11.479868 32.040717,11.479868 33.226546,11.479868 C 33.226546,12.10033 33.226546,12.720791 33.226546,13.341252 C 31.280916,13.341252 29.335285,13.341252 27.389655,13.341252 C 27.389655,10.821595 27.389655,8.3019366 27.389655,5.7822787 z"
       id="text3732"
       style="font-size:10.4317255px;font-style:normal;font-variant:normal;font-weight:normal;font-stretch:normal;text-align:start;line-height:80.00000119%;writing-mode:lr-tb;text-anchor:start;fill:#c73838;fill-opacity:1;stroke:none;stroke-width:1px;stroke-linecap:butt;stroke-linejoin:miter;stroke-opacity:1;font-family:Arial Black;-inkscape-font-specification:Arial Black" />
    <g
       id="g4830">
      <path
         d="M 35.413248,22.857312 C 35.44353,22.862435 35.476722,22.852237 35.506998,22.857312 C 36.346998,23.027312 37.248248,23.126062 38.038248,23.326062 C 40.308248,23.886062 42.083248,25.856062 42.663248,28.076062 C 42.855248,28.802062 42.860188,29.658242 42.600748,30.388562"
         id="p3881-6-0-0"
         style="fill:none;fill-opacity:1;fill-rule:nonzero;stroke:#b42222;stroke-width:0.80000001;stroke-linecap:butt;stroke-linejoin:miter;marker:none;marker-start:none;marker-mid:none;marker-end:none;stroke-miterlimit:4;stroke-dasharray:none;stroke-dashoffset:0;stroke-opacity:1;visibility:visible;display:inline;overflow:visible;enable-background:accumulate" />
      <path
         d="M 24.339498,32.709812 L 24.339498,41.649812"
         id="p3111-6"
         style="fill:none;fill-opacity:1;fill-rule:nonzero;stroke:#b42222;stroke-width:0.5;stroke-linecap:butt;stroke-linejoin:miter;marker:none;marker-start:none;marker-mid:none;marker-end:none;stroke-miterlimit:4;stroke-dasharray:none;stroke-dashoffset:0;stroke-opacity:1;visibility:visible;display:inline;overflow:visible;enable-background:accumulate" />
      <path
         d="M 38.909498,25.309812 L 24.409498,32.559812 L 9.909498,25.309812"
         id="p2993-7-9-4-0"
         style="fill:none;fill-opacity:1;fill-rule:nonzero;stroke:#b42222;stroke-width:0.5;stroke-linecap:butt;stroke-linejoin:miter;marker:none;marker-start:none;marker-mid:none;marker-end:none;stroke-miterlimit:4;stroke-dasharray:none;stroke-dashoffset:0;stroke-opacity:1;visibility:visible;display:inline;overflow:visible;enable-background:accumulate" />
      <path
         d="M 32.600748,24.013562 C 32.672592,24.880394 32.637658,25.755632 31.756998,26.794812 C 30.466998,28.314812 27.930747,29.194813 26.100748,28.794812 C 24.394498,28.419812 24.038382,27.21864 24.288248,25.701062"
         id="p4109-4"
         style="fill:none;fill-opacity:1;fill-rule:nonzero;stroke:#b42222;stroke-width:0.80000001;stroke-linecap:butt;stroke-linejoin:miter;marker:none;marker-start:none;marker-mid:none;marker-end:none;stroke-miterlimit:4;stroke-dasharray:none;stroke-dashoffset:0;stroke-opacity:1;visibility:visible;display:inline;overflow:visible;enable-background:accumulate" />
      <path
         d="M 40.349498,14.589812 L 27.849498,20.839812 L 27.849498,25.179812 L 40.349498,18.929812 L 40.349498,14.589812 z"
         id="p2993-7-9-8-8-5-59"
         style="fill:none;fill-opacity:1;fill-rule:nonzero;stroke:#b42222;stroke-width:0.5;stroke-linecap:butt;stroke-linejoin:miter;marker:none;marker-start:none;marker-mid:none;marker-end:none;stroke-miterlimit:4;stroke-dasharray:none;stroke-dashoffset:0;stroke-opacity:1;visibility:visible;display:inline;overflow:visible;enable-background:accumulate" />
      <path
         d="M 26.929498,20.449812 L 26.929498,26.689812"
         id="p5148-2"
         style="fill:none;fill-opacity:1;fill-rule:nonzero;stroke:#b42222;stroke-width:0.5;stroke-linecap:butt;stroke-linejoin:miter;marker:none;marker-start:none;marker-mid:none;marker-end:none;stroke-miterlimit:4;stroke-dasharray:none;stroke-dashoffset:0;stroke-opacity:1;visibility:visible;display:inline;overflow:visible;enable-background:accumulate" />
      <path
         d="M 19.339498,16.619812 L 26.969498,20.429812 L 41.469498,13.179812"
         id="p2993-7-9-8-8-57-9"
         style="fill:none;fill-opacity:1;fill-rule:nonzero;stroke:#b42222;stroke-width:0.5;stroke-linecap:butt;stroke-linejoin:miter;marker:none;marker-start:none;marker-mid:none;marker-end:none;stroke-miterlimit:4;stroke-dasharray:none;stroke-dashoffset:0;stroke-opacity:1;visibility:visible;display:inline;overflow:visible;enable-background:accumulate" />
      <path
         d="M 33.849498,9.3698122 L 19.349498,16.619812 C 19.349498,19.299812 19.349498,21.889812 19.349498,23.239812 L 26.969498,27.059812 L 41.469498,19.809812 C 41.469498,17.559812 41.469498,14.849812 41.469498,13.179812 L 33.849498,9.3698122 z"
         id="p2993-7-9-8-2-6"
         style="fill:none;stroke:#b42222;stroke-width:1;stroke-linecap:butt;stroke-linejoin:miter;marker:none;stroke-miterlimit:4;stroke-dasharray:none;stroke-dashoffset:0;stroke-opacity:1;visibility:visible;display:inline;overflow:visible;enable-background:accumulate" />
      <path
         d="M 5.329498,33.389812 C 5.009498,33.389812 4.709498,33.479812 4.449498,33.639812 C 3.409498,34.279812 3.439498,35.999812 4.479498,37.479812 C 5.039498,38.279812 5.629498,38.899812 6.299498,39.269812 L 12.639498,42.509812 C 12.909498,42.709812 13.199498,42.849812 13.479498,42.979812 C 14.629498,43.539812 15.789498,43.649812 16.669498,43.109812 C 18.239498,42.129812 18.219498,39.529812 16.639498,37.289812 C 15.629498,35.869812 14.229498,34.969812 12.949498,34.729812 L 12.949498,34.699812 C 12.689498,34.679812 5.709498,33.409812 5.449498,33.389812 C 5.429498,33.389812 5.409498,33.389812 5.389498,33.389812 C 5.369498,33.389812 5.349498,33.389812 5.329498,33.389812 L 5.329498,33.389812 z"
         id="p3881-5-4"
         style="fill:none;fill-opacity:1;fill-rule:nonzero;stroke:#b42222;stroke-width:0.5;stroke-linecap:butt;stroke-linejoin:miter;marker:none;marker-start:none;marker-mid:none;marker-end:none;stroke-miterlimit:4;stroke-dasharray:none;stroke-dashoffset:0;stroke-opacity:1;visibility:visible;display:inline;overflow:visible;enable-background:accumulate" />
      <path
         d="M 10.879498,30.809812 C 10.199498,30.849812 9.629498,31.289812 9.009498,31.529812 C 7.969498,31.979812 7.089498,32.459812 6.099498,32.909812 C 5.539498,33.179812 4.939498,33.409812 4.379498,33.689812 C 3.449498,34.369812 3.579498,35.719812 4.009498,36.659812 C 4.509498,37.899812 5.499498,38.889812 6.659498,39.469812 C 8.699498,40.429812 10.789498,41.479812 12.759498,42.599812 C 13.869498,43.279812 15.349498,43.839812 16.599498,43.159812 C 18.509498,42.219812 20.469498,41.389812 22.289498,40.499812 C 23.409498,39.739812 23.579498,38.179812 23.259498,36.969812 C 22.669498,34.739812 20.909498,32.739812 18.629498,32.189812 C 17.849498,31.989812 16.939498,31.889812 16.099498,31.719812 C 14.369498,31.429812 12.619498,31.049812 10.879498,30.809812 L 10.879498,30.809812 z"
         id="p3881-6-4"
         style="fill:none;fill-opacity:1;fill-rule:nonzero;stroke:#b42222;stroke-width:0.80000001;stroke-linecap:butt;stroke-linejoin:miter;marker:none;marker-start:none;marker-mid:none;marker-end:none;stroke-miterlimit:4;stroke-dasharray:none;stroke-dashoffset:0;stroke-opacity:1;visibility:visible;display:inline;overflow:visible;enable-background:accumulate" />
      <path
         d="M 7.999498,34.809812 C 7.769498,34.909812 7.479498,35.059812 7.219498,35.159812 C 6.639498,35.519812 6.629498,36.479812 7.219498,37.309812 C 7.809498,38.149812 8.759498,38.519812 9.349498,38.159812 C 9.639498,38.029812 9.869498,37.909812 10.129498,37.809812 C 10.709498,37.449812 10.709498,36.489812 10.129498,35.659812 C 9.989498,35.469812 9.819498,35.329812 9.659498,35.189812"
         id="p3881-7-3-7-9-7"
         style="fill:none;fill-opacity:1;fill-rule:nonzero;stroke:#b42222;stroke-width:0.5;stroke-linecap:butt;stroke-linejoin:miter;marker:none;marker-start:none;marker-mid:none;marker-end:none;stroke-miterlimit:4;stroke-dasharray:none;stroke-dashoffset:0;stroke-opacity:1;visibility:visible;display:inline;overflow:visible;enable-background:accumulate" />
      <path
         d="M 13.559498,36.159812 C 13.469498,36.179812 13.359498,36.199812 13.279498,36.249812 C 12.969498,36.369812 12.599498,36.589812 12.249498,36.719812 C 11.459498,37.209812 11.459498,38.499812 12.249498,39.629812 C 13.049498,40.749812 14.339498,41.269812 15.129498,40.779812 C 15.529498,40.609812 15.809498,40.449812 16.159498,40.309812 C 16.299498,40.219812 16.439498,40.109812 16.529498,39.969812"
         id="p3881-7-3-7-7-7-5"
         style="fill:none;fill-opacity:1;fill-rule:nonzero;stroke:#b42222;stroke-width:0.5;stroke-linecap:butt;stroke-linejoin:miter;marker:none;marker-start:none;marker-mid:none;marker-end:none;stroke-miterlimit:4;stroke-dasharray:none;stroke-dashoffset:0;stroke-opacity:1;visibility:visible;display:inline;overflow:visible;enable-background:accumulate" />
      <path
         d="M 6.209498,34.419812 C 5.939498,34.409812 5.679498,34.449812 5.449498,34.549812 C 4.519498,34.959812 4.439498,36.209812 5.259498,37.339812 C 5.689498,37.949812 6.159498,38.439812 6.719498,38.749812 L 11.979498,41.479812 C 12.199498,41.629812 12.439498,41.749812 12.669498,41.869812 C 13.629498,42.339812 14.619498,42.489812 15.399498,42.149812 C 16.809498,41.539812 16.939498,39.649812 15.699498,37.939812 C 14.919498,36.849812 13.769498,36.109812 12.679498,35.859812 C 10.609498,35.379812 8.429498,34.879812 6.319498,34.429812 C 6.299498,34.429812 6.279498,34.429812 6.259498,34.429812 C 6.249498,34.429812 6.229498,34.419812 6.209498,34.419812 L 6.209498,34.419812 z"
         id="p3881-5-7-8-6"
         style="fill:none;fill-opacity:1;fill-rule:nonzero;stroke:#b42222;stroke-width:0.5;stroke-linecap:butt;stroke-linejoin:miter;marker:none;marker-start:none;marker-mid:none;marker-end:none;stroke-miterlimit:4;stroke-dasharray:none;stroke-dashoffset:0;stroke-opacity:1;visibility:visible;display:inline;overflow:visible;enable-background:accumulate" />
      <path
         d="M 26.319498,33.179812 L 26.319498,40.179812 L 32.469498,43.269812 L 32.469498,36.269812 L 26.319498,33.179812 z"
         id="p4502-0-7"
         style="fill:none;fill-opacity:1;fill-rule:nonzero;stroke:#b42222;stroke-width:0.5;stroke-linecap:butt;stroke-linejoin:miter;marker:none;marker-start:none;marker-mid:none;marker-end:none;stroke-miterlimit:4;stroke-dasharray:none;stroke-dashoffset:0;stroke-opacity:1;visibility:visible;display:inline;overflow:visible;enable-background:accumulate" />
      <path
         d="M 27.969498,32.679812 L 36.489498,28.439812"
         id="p5229-81"
         style="fill:none;stroke:#b42222;stroke-width:0.5;stroke-linecap:butt;stroke-linejoin:miter;stroke-miterlimit:4;stroke-dasharray:none;stroke-opacity:1" />
      <path
         d="M 26.739498,40.419812 L 32.469498,43.269812 C 32.549498,43.229812 33.629498,42.589812 33.689498,42.549812 L 33.689498,35.549812 L 27.539498,32.459812"
         id="p4502-0-2-0-6"
         style="fill:none;stroke:#b42222;stroke-width:0.80000001;stroke-linecap:round;stroke-miterlimit:4;stroke-dasharray:none;stroke-opacity:1;display:inline" />
      <path
         d="M 35.919498,28.399812 L 35.919498,35.399812 L 42.079498,38.489812 L 42.079498,31.489812 L 35.919498,28.399812 L 35.919498,28.399812 z"
         id="p4502-0-1-2"
         style="fill:none;fill-opacity:1;fill-rule:nonzero;stroke:#b42222;stroke-width:0.5;stroke-linecap:butt;stroke-linejoin:miter;marker:none;marker-start:none;marker-mid:none;marker-end:none;stroke-miterlimit:4;stroke-dasharray:none;stroke-dashoffset:0;stroke-opacity:1;visibility:visible;display:inline;overflow:visible;enable-background:accumulate" />
      <path
         d="M 36.339498,35.639812 L 42.079498,38.489812 C 42.149498,38.449812 43.229498,37.809812 43.289498,37.769812 L 43.289498,30.769812 L 37.139498,27.679812"
         id="p4502-0-2-0-9-1"
         style="fill:none;stroke:#b42222;stroke-width:0.80000001;stroke-linecap:round;stroke-miterlimit:4;stroke-dasharray:none;stroke-opacity:1;display:inline" />
      <path
         d="M 35.809498,18.799812 L 38.659498,17.329812"
         id="p5093-4"
         style="fill:none;fill-opacity:1;fill-rule:nonzero;stroke:#b42222;stroke-width:1;stroke-linecap:round;stroke-linejoin:miter;marker:none;marker-start:none;marker-mid:none;marker-end:none;stroke-miterlimit:4;stroke-dasharray:none;stroke-dashoffset:0;stroke-opacity:1;visibility:visible;display:inline;overflow:visible;enable-background:accumulate" />
      <path
         d="M 29.659498,21.909812 L 32.519498,20.429812"
         id="p5093-1-8"
         style="fill:none;fill-opacity:1;fill-rule:nonzero;stroke:#b42222;stroke-width:1;stroke-linecap:round;stroke-linejoin:miter;marker:none;marker-start:none;marker-mid:none;marker-end:none;stroke-miterlimit:4;stroke-dasharray:none;stroke-dashoffset:0;stroke-opacity:1;visibility:visible;display:inline;overflow:visible;enable-background:accumulate" />
      <path
         d="M 19.329776,20.592324 L 9.869296,25.322564 L 9.869296,30.998852"
         id="path3294"
         style="fill:none;fill-opacity:1;fill-rule:nonzero;stroke:#b42222;stroke-width:1;stroke-linecap:butt;stroke-linejoin:miter;marker:none;marker-start:none;marker-mid:none;marker-end:none;stroke-miterlimit:4;stroke-dasharray:none;stroke-dashoffset:0;stroke-opacity:1;visibility:visible;display:inline;overflow:visible;enable-background:accumulate" />
      <path
         d="M 26.992765,40.553937 L 24.438436,41.783799 L 22.073316,40.648542"
         id="path3296"
         style="fill:none;fill-opacity:1;fill-rule:nonzero;stroke:#b42222;stroke-width:1;stroke-linecap:butt;stroke-linejoin:miter;marker:none;marker-start:none;marker-mid:none;marker-end:none;stroke-miterlimit:4;stroke-dasharray:none;stroke-dashoffset:0;stroke-opacity:1;visibility:visible;display:inline;overflow:visible;enable-background:accumulate" />
      <path
         d="M 36.54785,35.729092 L 33.804311,37.053559"
         id="path3298"
         style="fill:none;fill-opacity:1;fill-rule:nonzero;stroke:#b42222;stroke-width:1;stroke-linecap:butt;stroke-linejoin:miter;marker:none;marker-start:none;marker-mid:none;marker-end:none;stroke-miterlimit:4;stroke-dasharray:none;stroke-dashoffset:0;stroke-opacity:1;visibility:visible;display:inline;overflow:visible;enable-background:accumulate" />
      <path
         d="M 38.818365,28.539128 L 38.818365,25.227959 L 34.655754,23.241258"
         id="path3300"
         style="fill:none;fill-opacity:1;fill-rule:nonzero;stroke:#b42222;stroke-width:1;stroke-linecap:butt;stroke-linejoin:miter;marker:none;marker-start:none;marker-mid:none;marker-end:none;stroke-miterlimit:4;stroke-dasharray:none;stroke-dashoffset:0;stroke-opacity:1;visibility:visible;display:inline;overflow:visible;enable-background:accumulate" />
      <path
         d="M 23.303178,25.03875 L 19.897405,26.741636 L 13.464279,23.525073"
         id="path3305"
         style="fill:none;fill-opacity:1;fill-rule:nonzero;stroke:#b42222;stroke-width:0.5;stroke-linecap:butt;stroke-linejoin:miter;marker:none;marker-start:none;marker-mid:none;marker-end:none;stroke-miterlimit:4;stroke-dasharray:none;stroke-dashoffset:0;stroke-opacity:1;visibility:visible;display:inline;overflow:visible;enable-background:accumulate" />
    </g>
  </g>
</svg>
