<?xml version="1.0" encoding="UTF-8" standalone="no"?>
<!-- Created with Inkscape (http://www.inkscape.org/) -->
<svg
   xmlns:svg="http://www.w3.org/2000/svg"
   xmlns="http://www.w3.org/2000/svg"
   version="1.0"
   width="100%"
   height="100%"
   viewBox="0 0 48 48"
   id="svg2383">
  <defs
     id="defs2385">
  </defs>
  <g
     id="layer1">
    <rect
       width="48"
       height="48"
       ry="5.2857141"
       x="0"
       y="0"
       id="rect2393"
       style="opacity:1;fill:#ffffff;fill-opacity:1;fill-rule:evenodd;stroke:none;stroke-width:1;stroke-linecap:butt;stroke-linejoin:miter;marker:none;marker-start:none;marker-mid:none;marker-end:none;stroke-miterlimit:4;stroke-dasharray:none;stroke-dashoffset:0;stroke-opacity:1;visibility:visible;display:inline;overflow:visible;enable-background:accumulate" />
    <rect
       width="44"
       height="44"
       ry="5.2857141"
       x="2"
       y="2"
       id="rect3165"
       style="opacity:1;fill:#db4ae4;fill-opacity:1;fill-rule:evenodd;stroke:none;stroke-width:1;stroke-linecap:butt;stroke-linejoin:miter;marker:none;marker-start:none;marker-mid:none;marker-end:none;stroke-miterlimit:4;stroke-dasharray:none;stroke-dashoffset:0;stroke-opacity:1;visibility:visible;display:inline;overflow:visible;enable-background:accumulate" />
    <path
       d="M 7.28125,2 C 4.3529644,2 2,4.3529644 2,7.28125 L 2,14.15625 C 7.7634036,16.742619 15.339518,18.34375 23.6875,18.34375 C 32.319606,18.34375 40.172268,16.651235 46,13.90625 L 46,7.28125 C 46,4.3529644 43.647035,2 40.71875,2 L 7.28125,2 z"
       id="path3958"
       style="opacity:1;fill:#ffccff;fill-opacity:0.28181817;fill-rule:evenodd;stroke:none;stroke-width:1;stroke-linecap:butt;stroke-linejoin:miter;marker:none;marker-start:none;marker-mid:none;marker-end:none;stroke-miterlimit:4;stroke-dasharray:none;stroke-dashoffset:0;stroke-opacity:1;visibility:visible;display:inline;overflow:visible;enable-background:accumulate" />
    <text
       x="52.42857"
       y="21.285713"
       id="text3728"
       xml:space="preserve"
       style="font-size:64px;font-style:normal;font-variant:normal;font-weight:normal;font-stretch:normal;text-align:start;line-height:80.00000119%;writing-mode:lr-tb;text-anchor:start;fill:#000000;fill-opacity:1;stroke:none;stroke-width:1px;stroke-linecap:butt;stroke-linejoin:miter;stroke-opacity:1;font-family:Arial Black;-inkscape-font-specification:Arial Black"><tspan
         x="52.42857"
         y="21.285713"
         id="tspan3730" /></text>
    <rect
       width="29.773193"
       height="31.840162"
       ry="2.6606767"
       x="18.596329"
       y="-15.653415"
       transform="matrix(0.7071068,0.7071068,-0.7071068,0.7071068,0,0)"
       id="r2383"
       style="fill:#eba9f0;fill-opacity:0.60909095;fill-rule:evenodd;stroke:none;marker:none;visibility:visible;display:inline;overflow:visible;enable-background:accumulate" />
    <path
       d="M 4.6316722,5.712107 L 6.9441738,5.712107 L 6.9441738,13.179348 L 4.6316722,13.179348 L 4.6316722,5.712107 M 8.6046926,5.712107 L 14.309542,5.712107 L 14.309542,7.316596 L 10.922288,7.316596 L 10.922288,8.6205617 L 13.815462,8.6205617 L 13.815462,10.128272 L 10.922288,10.128272 L 10.922288,13.179348 L 8.6046926,13.179348 L 8.6046926,5.712107"
       transform="scale(0.9878644,1.0122847)"
       id="text3732"
       style="font-size:10.4317255px;font-style:normal;font-variant:normal;font-weight:normal;font-stretch:normal;text-align:start;line-height:80.00000119%;writing-mode:lr-tb;text-anchor:start;fill:#c738b1;fill-opacity:1;stroke:none;stroke-width:1px;stroke-linecap:butt;stroke-linejoin:miter;stroke-opacity:1;font-family:Arial Black;-inkscape-font-specification:Arial Black" />
    <path
       d="M 25.566512,27.516267 L 21.346173,27.516267 L 21.346173,27.094234 C 21.346173,26.372334 21.435023,25.794814 21.590509,25.350567 C 21.757101,24.895215 22.001436,24.484287 22.312409,24.117784 C 22.645593,23.751281 23.367493,23.096018 24.489215,22.163101 C 25.088947,21.67443 25.388813,21.230184 25.388813,20.830363 C 25.388813,20.419435 25.266646,20.108463 25.02231,19.88634 C 24.789081,19.65311 24.422578,19.542049 23.933907,19.542049 C 23.411918,19.542049 22.967672,19.708641 22.623381,20.064038 C 22.290196,20.408329 22.068073,21.019167 21.968118,21.874341 L 17.670036,21.341246 C 17.814416,19.764172 18.391936,18.49807 19.39149,17.531835 C 20.391044,16.565599 21.934799,16.076929 24.000544,16.076929 C 25.610937,16.076929 26.910357,16.421219 27.898804,17.087589 C 29.242649,17.998293 29.920124,19.208864 29.920124,20.730407 C 29.920124,21.352352 29.742426,21.96319 29.398135,22.54071 C 29.053844,23.129337 28.34305,23.84013 27.265753,24.684198 C 26.521641,25.272824 26.055183,25.750389 25.855272,26.116892 C 25.655361,26.472289 25.566512,26.938747 25.566512,27.516267 M 21.201793,28.626883 L 25.721998,28.626883 L 25.721998,32.613992 L 21.201793,32.613992 L 21.201793,28.626883"
       id="text3173"
       style="font-size:20.44000053px;font-style:normal;font-variant:normal;font-weight:normal;font-stretch:normal;fill:#fedcfa;fill-opacity:0.71363633;stroke:none;font-family:Arial Black;-inkscape-font-specification:Arial Black" />
    <path
       d="M 26.341543,17.714241 L 26.341543,26.408747"
       id="p3156"
       style="fill:none;fill-opacity:1;fill-rule:nonzero;stroke:#bd26b3;stroke-width:0.31275201;stroke-linecap:round;stroke-linejoin:miter;marker:none;stroke-miterlimit:4;stroke-dasharray:none;stroke-dashoffset:0;stroke-opacity:1;visibility:visible;display:inline;overflow:visible;enable-background:accumulate" />
    <path
       d="M 7.967363,35.548924 L 26.341543,26.361834 L 44.715723,35.556743"
       id="p3158"
       style="fill:none;fill-opacity:1;fill-rule:nonzero;stroke:#bd26b3;stroke-width:0.31275201;stroke-linecap:round;stroke-linejoin:miter;marker:none;stroke-miterlimit:4;stroke-dasharray:none;stroke-dashoffset:0;stroke-opacity:1;visibility:visible;display:inline;overflow:visible;enable-background:accumulate" />
    <path
       d="M 26.341543,35.932045 L 26.341543,44.626551"
       id="p3976"
       style="fill:none;fill-opacity:1;fill-rule:nonzero;stroke:#bd26b3;stroke-width:0.62550402;stroke-linecap:round;stroke-linejoin:miter;marker:none;stroke-miterlimit:4;stroke-dasharray:none;stroke-dashoffset:0;stroke-opacity:1;visibility:visible;display:inline;overflow:visible;enable-background:accumulate" />
    <path
       d="M 8.162833,26.838781 L 26.341543,35.932045 L 44.567166,26.815324"
       id="p2993-8"
       style="fill:none;fill-opacity:1;fill-rule:nonzero;stroke:#bd26b3;stroke-width:0.62550402;stroke-linecap:round;stroke-linejoin:miter;marker:none;stroke-miterlimit:4;stroke-dasharray:none;stroke-dashoffset:0;stroke-opacity:1;visibility:visible;display:inline;overflow:visible;enable-background:accumulate" />
    <path
       d="M 26.341543,17.596959 L 44.715723,26.791868 L 44.715723,35.689662 L 26.341543,44.876752 L 7.967363,35.697481 L 7.967363,26.784049 L 26.341543,17.596959 z"
       id="p3034"
       style="fill:none;fill-opacity:1;fill-rule:nonzero;stroke:#bd26b3;stroke-width:0.78188002;stroke-linecap:round;stroke-linejoin:miter;marker:none;stroke-miterlimit:4;stroke-dasharray:none;stroke-dashoffset:0;stroke-opacity:1;visibility:visible;display:inline;overflow:visible;enable-background:accumulate" />
  </g>
</svg>
