<?xml version="1.0" encoding="UTF-8" standalone="no"?>
<!-- Created with Inkscape (http://www.inkscape.org/) -->
<svg xmlns:dc="http://purl.org/dc/elements/1.1/" xmlns:cc="http://creativecommons.org/ns#" xmlns:rdf="http://www.w3.org/1999/02/22-rdf-syntax-ns#" xmlns:svg="http://www.w3.org/2000/svg" xmlns="http://www.w3.org/2000/svg" version="1.1" width="100%" height="100%" viewBox="0 0 48 48" id="ladder_xA0_Image_1_" xml:space="preserve">
<defs id="defs79" />
<path d="m 31.09,2.52 c -0.19,0.01 -0.39,0.06 -0.57,0.12 -0.09,0.23 0.08,0.55 0,0.78 -0.62,-0.03 -1.26,0.12 -1.80,0.03 -0.01,-0.31 0.02,-0.65 0,-0.85 -0.32,-0.16 -0.77,-0.02 -1.06,0.08 -0.12,0.89 -0.09,1.71 -0.08,2.50 0.05,3.97 -0.01,8.07 -0.03,12.23 -0.00,1.40 -0.01,2.93 0,4.06 0.02,1.98 0.05,4.18 0.03,6.36 -0.00,0.38 -0.05,0.76 -0.03,1.14 0.06,2.09 0.03,4.21 0.03,6.64 0,1.93 0.05,3.92 0,5.78 -0.01,0.58 -0.05,1.27 -0.03,1.84 0.01,0.48 0.09,0.94 -0.04,1.39 -0.32,-0.05 -0.72,-0.04 -1.10,-0.04 0.15,0.33 1.07,-0.08 1.23,0.24 -0.19,0.10 -0.42,-0.05 -0.69,0 0.00,0.29 0.63,-0.03 0.69,0.20 -0.31,0.03 -0.88,-0.01 -1.23,-0.08 -0.35,0.22 -1.26,0.03 -1.63,0.03 0.07,0.13 -0.54,-0.07 -0.53,0.12 0.61,0.01 1.27,0.04 1.92,0.03 0.11,-0.00 0.20,-0.07 0.32,-0.08 0.30,-0.02 0.69,0.08 0.86,0.12 0.07,0.02 0.25,-0.07 0.24,0.08 -0.69,0.05 -1.58,-0.05 -2.25,-0.08 -0.20,-0.00 -0.45,-0.03 -0.57,0.08 0.46,0.05 1.12,0.05 1.51,0.08 0.49,0.03 0.97,-0.04 1.35,0.12 -0.69,0.02 -1.61,-0.03 -2.50,-0.04 0.05,0.21 0.32,0.11 0.49,0.12 0.41,0.02 0.71,-0.03 1.02,-0.04 0.16,-0.00 0.33,0.06 0.49,0.08 0.17,0.01 0.40,-0.07 0.53,0.08 -0.76,-0.03 -1.28,0.02 -2.13,0 0.21,0.23 0.65,-0.02 0.90,0.16 -0.15,0.08 -0.30,-0.06 -0.37,0.08 1.01,0.05 2.03,0.13 3.03,0.12 0.11,-0.12 -0.06,-0.30 0.04,-0.40 0.81,-0.00 1.58,0.05 2.33,0.08 0.74,0.02 1.53,0.12 2.29,-0.04 -0.07,-2.97 -0.33,-5.71 -0.49,-8.57 -0.10,-1.85 -0.16,-3.73 -0.24,-5.66 -0.04,-0.97 -0.11,-1.95 -0.16,-2.95 -0.01,-0.42 0.03,-0.87 0,-1.31 C 32.56,23.63 32.59,19.93 32.36,16.23 32.07,11.63 31.95,7.20 31.74,2.73 31.58,2.55 31.34,2.50 31.09,2.52 z m 0.03,0.16 c 0.09,1.23 0.10,2.29 0.12,3.48 -0.08,-0.13 -0.33,-0.09 -0.49,-0.16 -0.03,-0.56 -0.02,-1.28 -0.08,-1.92 0.32,0.01 0.45,-0.31 0.32,-0.61 -0.05,-0.06 -0.20,-0.03 -0.32,-0.04 0.02,-0.24 -0.03,-0.51 0,-0.65 0.13,-0.04 0.27,-0.08 0.44,-0.08 z m -3.11,0.04 c 0.03,0.00 0.04,0.03 0.08,0.03 0.02,7.71 0.12,13.73 0.12,21.87 0,1.01 0.01,1.92 0.03,2.82 0.10,3.69 0.02,8.82 0.12,12.97 0.04,1.77 -0.07,3.58 0.08,5.41 -0.26,0.08 -0.42,-0.28 -0.74,-0.28 0.08,-0.19 -1.95e-4,-0.41 0,-0.61 0.01,-11.57 -0.04,-21.74 0,-31.56 0.01,-3.01 0.04,-5.82 0.04,-9.39 0,-0.41 -0.09,-0.84 0.08,-1.23 0.08,0.01 0.10,-0.02 0.16,-0.03 z m 0.26,0 c 0.00,-9.48e-4 0.01,-5.83e-4 0.02,0 0.30,0.01 0.19,0.39 0.20,0.53 0.10,1.95 -0.07,3.80 0,5.70 0.01,0.31 0.04,0.63 0.04,1.10 -0.07,4.50 0.16,9.28 0.08,14.40 -0.01,0.77 0.03,1.64 0.03,2.50 0.01,2.12 0.08,5.01 0.08,7.67 0,1.79 0.08,3.66 0.08,5.54 0,1.71 0.05,3.37 0.04,5.08 -0.00,0.19 0.07,0.49 -0.08,0.61 -0.33,0.01 -0.20,-0.39 -0.20,-0.53 -0.06,-1.69 -0.01,-3.39 -0.03,-4.96 -0.05,-3.37 -0.10,-6.90 -0.12,-10.58 -0.00,-0.92 0.04,-1.85 0,-2.79 -0.18,-4.29 -0.05,-9.03 -0.12,-13.58 -0.05,-3.42 -0.00,-7.05 -0.08,-10.58 -0.01,-0.07 0.00,-0.11 0.05,-0.12 z m 3.07,0.08 c 0.00,-8.79e-4 0.01,-6.76e-4 0.02,0 0.25,0.07 0.15,0.40 0.16,0.57 0.16,2.30 0.14,4.91 0.28,7.46 0.14,2.56 0.22,5.30 0.37,8.00 0.28,5.32 0.48,10.98 0.73,16.25 0.14,3.06 0.37,6.20 0.49,9.23 0.00,0.22 0.03,0.46 0.04,0.69 0.00,0.16 0.08,0.46 -0.12,0.57 -0.32,0.00 -0.19,-0.39 -0.20,-0.53 -0.14,-3.47 -0.37,-6.85 -0.53,-10.26 -0.04,-0.90 -0.02,-1.80 -0.08,-2.70 C 32.31,28.84 32.18,24.88 32.03,21.69 31.95,19.92 31.91,18.09 31.83,16.23 31.63,11.73 31.39,7.13 31.29,2.93 c -0.01,-0.07 0.00,-0.11 0.05,-0.12 z m -0.76,0.72 c 0.16,-0.00 0.31,0.01 0.38,0.13 -0.08,0.21 -0.45,0.13 -0.69,0.16 -0.39,0.04 -1.15,0.06 -1.55,0.04 l 0,-0.16 c 0.08,-0.11 0.31,-0.11 0.45,-0.12 0.31,-0.02 0.73,0.01 0.94,0 0.13,-0.00 0.31,-0.04 0.47,-0.05 z m -0.06,0.50 c 0.12,0.52 0.07,1.40 0.08,2.01 -0.62,0.01 -1.23,0.05 -1.84,0.08 -0.04,-0.64 0.02,-1.25 -0.03,-2.01 0.53,-0.09 1.25,-7.43e-4 1.80,-0.08 z m 0.28,2.13 c 0.13,0.00 0.24,0.04 0.24,0.20 -0.33,0.08 -0.76,0.06 -1.19,0.08 -0.40,0.01 -0.86,0.12 -1.14,0 -0.08,-0.37 0.35,-0.20 0.57,-0.20 0.27,-0.00 0.71,-0.02 1.06,-0.04 0.13,-0.00 0.30,-0.04 0.44,-0.04 z m 0.41,0.12 c 0.04,0.01 0.02,0.08 0.08,0.08 0.02,0.97 0.03,1.95 0.12,2.70 -0.15,-0.16 -0.34,-0.21 -0.57,-0.20 0.00,-0.64 -0.06,-1.42 -0.04,-2.21 l 0.28,0 c 0.06,-0.09 0.07,-0.24 0.12,-0.36 z m -0.61,0.36 c 0.05,0.62 0.06,1.51 0.08,2.21 -0.51,0.02 -1.26,0.16 -1.97,0.04 0.13,-0.76 -0.06,-1.45 0.03,-2.17 0.66,-0.06 1.17,-0.05 1.84,-0.08 z M 30.88,9.03 c 0.11,0.00 0.20,0.02 0.29,0.09 0.04,0.32 -0.30,0.19 -0.53,0.20 -0.38,0.02 -0.91,0.02 -1.35,0.03 -0.21,0.00 -0.51,0.16 -0.57,-0.08 -0.02,-0.21 0.28,-0.18 0.40,-0.20 0.33,-0.04 0.78,0.01 1.15,0 0.21,-0.00 0.42,-0.06 0.61,-0.05 z m 0.48,0.21 c 0.02,0.00 0.04,0.01 0.05,0.04 -0.01,0.97 0.05,1.54 0.08,2.50 -0.13,-0.12 -0.25,-0.26 -0.57,-0.20 -0.03,-0.49 -0.02,-1.22 -0.08,-1.97 0.24,-0.04 0.52,-0.05 0.49,-0.36 0.01,-0.00 0.02,-0.00 0.03,-0.00 z m -1.22,0.32 c 0.17,7.43e-4 0.35,0.00 0.53,0.00 0.12,0.72 0.02,1.29 0.08,2.01 -0.75,0.00 -1.21,0.06 -2.01,0.04 0.04,-0.69 -0.00,-1.21 0,-1.97 0.40,-0.08 0.87,-0.08 1.39,-0.08 z m 0.90,2.13 c 0.12,0.00 0.30,0.09 0.28,0.24 -0.15,0.19 -0.46,0.11 -0.69,0.12 -0.49,0.00 -1.37,0.05 -1.88,0.08 -0.04,-0.16 0.00,-0.16 0,-0.36 0.57,-0.09 1.70,0.00 2.25,-0.08 0.01,-0.00 0.02,-0.00 0.04,-0.00 z m 0.40,0.24 c 0.03,0.01 0.07,0.03 0.08,0.08 0.00,0.87 0.07,1.69 0.12,2.62 -0.09,-0.01 -0.43,-0.09 -0.65,-0.12 0.00,-0.72 0.01,-1.67 -0.04,-2.21 l 0.40,0 c 0.04,-0.12 -0.01,-0.23 0.08,-0.37 z M 30.05,12.35 c 0.27,-0.00 0.53,0.00 0.75,0.01 -0.05,0.62 0.02,1.39 0.04,2.17 -0.69,0.07 -1.41,0.03 -2.05,0.08 -0.00,-0.73 0.02,-1.61 -0.04,-2.17 0.36,-0.06 0.84,-0.09 1.29,-0.10 z m 1.13,2.32 c 0.09,-0.00 0.18,0.01 0.23,0.11 -0.05,0.43 -0.78,0.20 -1.23,0.24 -0.34,0.02 -1.01,0.06 -1.43,0.03 0.05,-0.12 0.00,-0.13 0,-0.28 0.63,-0.04 1.48,-0.06 2.13,-0.08 0.09,-0.00 0.20,-0.03 0.29,-0.03 z m 0.42,0.47 c 0.02,-3.89e-4 0.03,1.94e-4 0.05,0.00 -0.04,0.84 0.04,1.53 0.08,2.29 -0.17,-0.03 -0.35,0.02 -0.61,0 -0.02,-0.65 -0.09,-1.37 -0.08,-2.17 0.20,0.00 0.41,-0.12 0.55,-0.13 z m -0.84,0.08 c 0.22,0.07 0.10,0.37 0.12,0.53 0.03,0.47 0.07,1.05 0.08,1.68 -0.75,-0.03 -1.39,0.05 -2.13,0.04 -0.05,-0.78 -0.02,-1.19 -0.03,-2.13 l 0,-0.00 c 0.53,-0.14 1.31,-0.01 1.97,-0.12 z m 0.18,2.31 c 0.26,-0.00 0.49,0.03 0.59,0.18 -0.14,0.29 -0.69,0.14 -1.10,0.16 -0.57,0.02 -1.20,0.07 -1.64,0.03 -0.07,-0.54 0.86,-0.31 1.31,-0.32 0.27,-0.01 0.57,-0.05 0.84,-0.06 z m 0.76,0.34 c 0.03,0.01 0.07,0.03 0.08,0.08 -0.03,1.00 0.06,1.40 0.08,2.38 -0.13,-0.01 -0.11,-0.18 -0.24,-0.20 -0.19,-0.02 -0.27,0.07 -0.41,0 0.01,-0.69 -0.07,-1.29 -0.03,-2.01 0.19,-0.06 0.52,0.00 0.53,-0.24 z m -0.78,0.24 0.08,0 c 0.00,0.69 0.03,1.35 0.08,2.01 -0.60,0.17 -1.52,0.04 -2.25,0.08 -0.05,-0.59 0.03,-1.25 -0.03,-1.96 0.58,-0.14 1.57,-0.09 2.13,-0.12 z m 0.13,2.15 c 0.26,-0.00 0.49,0.01 0.64,0.13 -0.01,0.31 -0.42,0.20 -0.65,0.20 -0.58,0.00 -1.11,0.01 -1.60,0.03 -0.24,0.01 -0.53,0.08 -0.65,-0.08 -0.04,-0.34 0.39,-0.24 0.61,-0.24 0.27,-0.00 0.58,0.01 0.81,0 0.27,-0.01 0.56,-0.05 0.82,-0.05 z m 0.73,0.38 c 0.04,-0.00 0.07,0.00 0.08,0.03 0.13,2.45 0.24,5.29 0.36,8.04 0.08,1.98 0.15,3.68 0.24,5.66 0.04,0.97 0.11,1.95 0.12,2.83 -0.16,-0.12 -0.38,-0.18 -0.69,-0.16 -0.04,-0.63 -0.00,-1.35 -0.08,-2.05 0.14,-0.08 0.47,0.01 0.57,-0.12 0.02,-0.20 0.05,-0.41 -0.03,-0.57 -0.12,-0.08 -0.38,-0.02 -0.57,-0.03 -0.04,-0.61 -0.02,-1.52 -0.08,-2.09 0.17,7.45e-4 0.22,-0.12 0.44,-0.08 0.06,-0.20 0.20,-0.54 0.04,-0.73 -0.11,-0.08 -0.35,-0.02 -0.53,-0.04 0.01,-0.67 -0.11,-1.53 -0.08,-1.96 0.07,-0.07 0.27,-0.03 0.40,-0.04 0.28,-0.43 0.09,-0.91 -0.44,-0.81 -0.01,-0.78 -0.01,-1.43 -0.08,-2.13 0.21,0.03 0.29,-0.05 0.49,-0.04 0.00,-0.13 0.09,-0.45 0,-0.65 -0.13,-0.10 -0.28,0.04 -0.49,0 -0.12,-0.53 -0.04,-1.39 -0.12,-1.84 0.01,-0.13 0.23,-0.06 0.37,-0.08 0.12,-0.14 0.17,-0.37 0.24,-0.57 -0.05,-0.22 -0.42,-0.12 -0.61,-0.20 0.01,-0.63 -0.06,-1.33 -0.08,-2.04 0.16,-0.09 0.56,0.04 0.53,-0.24 z m -0.69,0.20 c -0.03,0.58 0.10,1.64 0.03,2.13 -0.79,7.45e-4 -1.54,0.04 -2.29,0.08 0.01,-0.77 -0.00,-1.49 0,-2.09 0.55,-0.12 1.52,-0.05 2.25,-0.12 z m 0.25,2.24 c 0.21,-0.00 0.39,0.02 0.40,0.25 -0.45,0.16 -1.04,0.05 -1.60,0.08 -0.47,0.02 -0.94,0.10 -1.35,0 -0.02,-0.35 0.31,-0.28 0.61,-0.28 0.58,-0.01 1.14,-0.03 1.72,-0.03 0.07,-6.77e-4 0.14,-0.00 0.21,-0.00 z m -0.77,0.62 c 0.20,-7.44e-4 0.42,0 0.64,0 0.07,0.57 0.02,1.28 0.04,1.92 -0.84,-0.00 -1.71,0.08 -2.38,0.03 0.00,-0.57 -0.06,-1.07 -0.04,-1.88 0.53,-0.06 1.10,-0.07 1.73,-0.08 z m 0.68,1.99 c 0.15,-0.00 0.29,0.00 0.40,0.01 0.10,0.01 0.20,0.02 0.24,0.16 -0.05,0.31 -0.46,0.20 -0.69,0.20 -0.27,0.00 -0.59,-0.00 -0.85,0 -0.49,0.01 -1.12,0.13 -1.52,-0.04 0.01,-0.39 0.53,-0.23 0.86,-0.24 0.45,-0.01 1.09,-0.09 1.56,-0.10 z m 0.03,0.63 c 0.07,0.73 0.04,1.56 0.04,2.17 -0.91,-0.01 -1.50,0.06 -2.42,0.04 -0.00,-0.61 -0.02,-1.50 -0.03,-2.09 0.77,-0.15 1.56,-0.07 2.42,-0.12 z m 0.15,2.24 c 0.06,-0.00 0.12,-0.00 0.17,0.00 0.22,0.03 0.45,0.11 0.36,0.40 -0.69,0.13 -2.18,0.12 -3.11,0.12 -0.07,-0.13 0.02,-0.20 0,-0.40 0.50,-0.04 1.26,-0.05 1.92,-0.08 0.21,-0.00 0.45,-0.04 0.64,-0.04 z m -0.03,0.74 c 0.06,0.56 0.01,1.29 0.08,1.96 -0.90,0.03 -1.71,0.14 -2.58,0.04 0.04,-0.66 -0.01,-1.29 0,-1.92 l 0,-0.00 c 0.81,-0.04 1.64,-0.08 2.50,-0.07 z m 0.23,2.08 c 0.24,0.00 0.48,0.05 0.45,0.24 -0.04,0.29 -1.50,0.22 -1.97,0.24 -0.40,0.01 -0.82,-0.01 -1.23,0 l 0,-0.36 c 0.62,-0.01 1.65,-0.09 2.50,-0.12 0.07,-0.00 0.15,-0.00 0.23,-0.00 z m -0.11,0.74 c -0.03,0.67 0.07,1.45 0.08,2.09 -0.97,4.86e-4 -1.70,0.01 -2.62,0.08 -0.10,-0.60 0.01,-1.43 -0.08,-2.05 0.76,-0.15 1.73,-0.09 2.62,-0.12 z m 0.16,2.19 c 0.22,-0.00 0.43,0.02 0.57,0.14 -0.02,0.34 -0.41,0.19 -0.65,0.20 -0.77,0.02 -1.92,0.10 -2.66,0 l 0,-0.16 c 0.12,-0.13 0.44,-0.11 0.73,-0.12 0.59,-0.01 1.09,-0.00 1.60,-0.04 0.13,-0.01 0.27,-0.02 0.41,-0.02 z m -0.67,0.63 c 0.22,-0.00 0.43,-0.00 0.63,0.00 -0.06,0.64 0.08,1.48 0.04,2.09 -1.02,-0.02 -1.76,0.04 -2.71,0.04 -0.06,-0.68 0.00,-1.18 -0.03,-2.05 0.64,-0.03 1.40,-0.07 2.07,-0.08 z m 0.97,2.16 c 0.24,-0.00 0.44,0.05 0.43,0.34 -0.92,-0.09 -2.20,0.28 -3.20,0.08 -0.11,-0.02 -0.34,0.02 -0.28,-0.20 0.12,-0.22 0.51,-0.12 0.78,-0.12 0.54,0 1.28,-0.03 1.68,-0.03 0.17,-0.00 0.39,-0.04 0.58,-0.05 z m 0.55,0.42 c 0.03,-0.00 0.04,0.01 0.04,0.04 0.19,1.53 0.15,3.41 0.28,5.33 -0.13,0.09 -0.19,-0.17 -0.33,-0.20 -0.19,-0.02 -0.28,0.05 -0.40,0 0.00,-0.83 -0.04,-1.36 -0.12,-2.09 0.41,-0.00 0.73,-0.11 0.61,-0.65 -0.06,-0.19 -0.35,-0.16 -0.61,-0.16 0.02,-0.57 -0.05,-1.48 -0.08,-2.01 0.22,-0.06 0.54,-0.02 0.61,-0.24 z m -1.38,0.23 c 0.22,-0.00 0.43,0.00 0.60,0.00 -0.02,0.69 0.08,1.47 0.03,2.04 -0.97,0.04 -1.76,0.07 -2.79,0.08 -0.00,-0.51 -0.11,-1.47 0,-2.04 l 0,-0.00 c 0.65,-0.04 1.47,-0.08 2.14,-0.08 z m 0.72,2.14 c 0.34,-8.8e-4 0.68,0.06 0.57,0.32 -0.07,0.16 -0.29,0.07 -0.40,0.08 -0.91,0.08 -2.09,0.08 -3.07,0.08 0.02,-0.09 0.06,-0.18 0.04,-0.33 0.69,-0.05 1.63,-0.03 2.33,-0.12 0.11,-0.01 0.32,-0.03 0.52,-0.03 z m -0.37,0.69 c 0.12,-7.45e-4 0.24,-0.00 0.37,0 0.00,0.68 0.08,1.35 0.04,2.09 -0.97,0.12 -1.88,0.09 -2.87,0.16 0.01,-0.61 -0.05,-1.40 -0.04,-2.13 0.83,-0.04 1.62,-0.11 2.49,-0.12 z m 0.75,2.29 c 0.20,-0.00 0.37,0.02 0.39,0.29 -0.33,0.15 -0.71,0.06 -1.06,0.08 -0.68,0.02 -1.75,0.19 -2.58,0.04 0.01,-0.09 0.06,-0.15 0.04,-0.28 0.70,-0.08 2.12,-0.12 2.99,-0.12 0.07,-1.94e-4 0.14,-0.00 0.21,-0.00 z m 0.52,0.17 c 0.04,-0.00 0.07,0.01 0.08,0.04 0.03,0.82 0.05,1.51 0.12,2.38 -0.32,-0.04 -0.54,-0.19 -0.78,-0.32 0.08,-0.33 0.06,-1.15 -0.03,-1.56 0.38,0.00 0.60,-0.16 0.61,-0.53 z m -1.47,0.51 c 0.22,-0.00 0.44,5.82e-4 0.65,0.01 -0.01,0.60 0.09,1.08 0.12,1.64 -1.03,-0.00 -2.06,-0.01 -2.99,-0.12 0.89,-0.05 1.85,0.05 2.75,0.04 -0.09,-0.15 -0.33,-0.14 -0.49,-0.16 -0.67,-0.06 -1.54,0.09 -2.25,-0.04 0.03,-0.09 0.22,-0.01 0.32,-0.03 -0.00,-0.17 -0.25,-0.09 -0.36,-0.16 0.06,-0.40 -0.02,-0.60 0,-1.06 0.79,-0.02 1.56,-0.08 2.25,-0.09 z m -7.51,0.00 c -0.26,0.00 -0.51,0.01 -0.73,0.04 0.54,0.10 1.06,0.03 1.47,0.03 0.18,0.00 0.48,0.17 0.57,-0.08 -0.41,0.01 -0.88,-0.00 -1.31,-0.00 z M 23.08,43.89 c -0.00,0.14 0.07,0.10 0.12,0.12 0.42,0.10 1.22,0.03 1.72,0.04 0.24,0.00 0.58,0.06 0.69,-0.08 -0.77,-0.00 -1.64,-0.02 -2.54,-0.08 z m 1.89,0.24 c -0.56,0.00 -1.13,0.01 -1.73,0.00 0.01,0.14 0.04,0.11 0.12,0.12 0.31,0.03 0.80,-0.01 1.27,0 0.56,0.01 1.14,0.04 1.47,0.03 0.16,-0.00 0.42,0.09 0.49,-0.12 -0.52,-0.04 -1.07,-0.04 -1.63,-0.04 z m 1.87,0.23 c -0.34,-4.86e-4 -0.76,0.08 -0.98,0.01 -0.02,0.10 0.06,0.10 0.12,0.12 0.34,0.07 0.95,-0.05 1.35,0 -0.10,-0.10 -0.28,-0.13 -0.49,-0.13 z m -2.56,0.00 c -0.32,-0.00 -0.65,0.00 -0.88,0.00 0.00,0.05 0.01,0.09 0.08,0.08 0.28,0.01 0.77,-0.01 1.19,0 0.19,0.00 0.43,0.14 0.53,-0.03 -0.26,-0.03 -0.59,-0.04 -0.92,-0.05 z m -0.01,0.23 c -0.24,0.00 -0.48,0.02 -0.74,0.05 0.40,0.21 0.97,-0.00 1.43,0 0.19,0.00 0.47,0.24 0.57,-0.04 -0.35,0.00 -0.69,-0.01 -1.02,-0.01 -0.08,-5.83e-4 -0.16,-0.00 -0.24,0 z m -0.34,0.20 c -0.06,3.9e-4 -0.12,0.02 -0.14,0.10 0.83,-0.01 1.55,0.03 2.17,0.04 -0.03,-0.24 -0.29,-0.07 -0.44,-0.08 -0.41,-0.01 -0.96,-0.05 -1.39,-0.03 -0.04,0.00 -0.11,-0.01 -0.17,-0.01 z m 5.18,0.67 c 1.12,0.07 2.36,0.01 3.40,0.16 -0.75,0.08 -1.73,0.03 -2.42,-0.08 -0.18,-0.04 -0.36,0.04 -0.53,0.04 -0.14,-0.00 -0.36,-0.01 -0.45,-0.12 z m -1.79,0.34 c 0.23,-0.00 0.50,0.04 0.72,0.06 -0.14,0.12 -0.35,-0.02 -0.53,0 -0.14,0.01 -0.39,0.06 -0.65,0.04 -0.24,-0.01 -0.54,-0.07 -0.24,-0.08 0.15,-0.02 0.17,0.06 0.33,0.03 0.10,-0.04 0.23,-0.06 0.38,-0.06 z" />
</svg>
