<?xml version="1.0" encoding="UTF-8" standalone="no"?>
<!-- Created with Inkscape (http://www.inkscape.org/) -->
<svg xmlns:dc="http://purl.org/dc/elements/1.1/" xmlns:cc="http://creativecommons.org/ns#" xmlns:rdf="http://www.w3.org/1999/02/22-rdf-syntax-ns#" xmlns:svg="http://www.w3.org/2000/svg" xmlns="http://www.w3.org/2000/svg" version="1.1" width="100%" height="100%" viewBox="0 0 48 48" id="svg2">
<defs id="defs8" />
<path d="M 22.98,45.84 C 16.65,45.45 11.93,42.38 8.26,36.27 7.77,35.46 7.10,33.75 6.76,32.47 5.71,28.41 6.41,23.18 8.52,19.45 10.82,15.37 16.03,11.56 20.05,11.01 c 2.12,-0.28 2.50,-0.41 2.50,-0.81 0,-0.21 -0.36,-0.47 -0.81,-0.57 C 21.29,9.52 20.46,9.03 19.89,8.54 18.96,7.73 18.84,7.47 18.71,5.95 18.59,4.45 18.66,4.13 19.36,3.07 c 0.94,-1.43 1.79,-1.76 4.43,-1.75 3.62,0.01 5.23,1.34 5.23,4.34 0,1.95 -0.56,2.80 -2.38,3.55 -1.51,0.62 -1.91,1.02 -1.20,1.21 0.19,0.05 1.23,0.30 2.32,0.57 6.50,1.57 11.06,5.89 13.05,12.36 0.72,2.34 0.80,6.72 0.17,9.39 -1.18,5.01 -6.09,10.63 -10.60,12.13 -1.83,0.61 -5.41,1.06 -7.39,0.94 z m 3.79,-2.05 c 4.56,-0.72 8.70,-3.93 11.04,-8.56 1.32,-2.61 1.62,-4.17 1.50,-7.71 -0.09,-2.81 -0.21,-3.45 -0.84,-4.73 -0.40,-0.81 -0.73,-1.55 -0.73,-1.65 0,-0.09 -0.57,-0.97 -1.27,-1.96 -3.20,-4.48 -8.19,-6.82 -13.92,-6.51 -7.85,0.42 -14.35,7.43 -14.34,15.48 1.19e-4,7.21 4.99,13.60 12.09,15.50 1.86,0.49 4.00,0.54 6.47,0.15 z M 20.59,42.70 C 17.97,42.00 16.76,41.42 15.12,40.08 13.20,38.51 11.75,36.71 10.73,34.65 9.88,32.94 8.94,28.99 9.33,28.75 c 0.11,-0.07 0.27,0.53 0.36,1.33 0.44,4.32 3.66,9.08 7.44,10.99 4.26,2.15 9.40,2.14 13.72,-0.03 1.79,-0.90 4.54,-3.73 5.70,-5.87 0.49,-0.90 0.90,-1.44 0.90,-1.18 0.01,0.73 -2.70,4.60 -4.01,5.72 -1.85,1.59 -4.79,2.88 -7.32,3.21 -2.79,0.37 -3.31,0.34 -5.53,-0.24 z m 2.25,-2.08 c 0,-1.44 0.16,-1.98 0.53,-1.75 0.27,0.16 0.00,3.25 -0.27,3.25 -0.14,0 -0.25,-0.67 -0.25,-1.50 z m 1.23,0.86 c 0.09,-0.34 0.25,-1.10 0.35,-1.68 0.09,-0.58 0.28,-1.05 0.40,-1.05 0.26,0 1.38,2.41 1.38,2.99 0,0.70 -0.50,0.39 -0.85,-0.52 l -0.34,-0.91 -0.28,0.91 c -0.31,1.01 -0.93,1.28 -0.66,0.28 z m -4.79,-0.95 0.16,-1.02 -0.69,0.64 c -1.13,1.07 -1.11,0.40 0.04,-0.97 1.57,-1.88 1.71,-1.80 1.19,0.77 -0.35,1.74 -0.98,2.25 -0.71,0.57 z m 10.00,-1.50 c -0.24,-0.92 -0.32,-1.68 -0.18,-1.68 0.33,0 2.75,2.02 2.75,2.31 0,0.42 -0.66,0.21 -1.36,-0.41 -0.43,-0.39 -0.64,-0.47 -0.54,-0.21 0.50,1.45 0.52,1.68 0.16,1.68 -0.22,0 -0.55,-0.68 -0.81,-1.68 z m -12.41,1.24 c -0.17,-0.17 0.92,-2.37 1.51,-3.05 0.52,-0.59 0.52,0.14 3.9e-5,1.14 -0.76,1.48 -1.28,2.13 -1.51,1.90 z m -0.96,-1.08 c 0.37,-0.98 1.70,-2.79 1.80,-2.48 0.13,0.39 -1.34,2.87 -1.71,2.88 -0.13,2.78e-4 -0.17,-0.17 -0.08,-0.40 z m 9.10,-1.21 c -0.06,-0.11 -0.21,-0.84 -0.32,-1.61 -0.11,-0.77 -0.28,-1.53 -0.38,-1.68 -0.09,-0.15 -0.19,-0.59 -0.20,-0.98 -0.07,-2.11 -0.52,-4.12 -1.02,-4.60 -0.30,-0.28 -0.48,-0.69 -0.40,-0.89 0.08,-0.22 -0.32,-0.65 -1.05,-1.07 -0.66,-0.38 -1.56,-1.24 -2.01,-1.91 -1.16,-1.74 -1.87,-2.50 -2.59,-2.78 -0.34,-0.13 -0.63,-0.41 -0.63,-0.62 0,-0.20 -0.39,-0.74 -0.86,-1.20 -0.47,-0.45 -0.99,-1.07 -1.15,-1.38 -0.16,-0.31 0.18,-0.10 0.79,0.47 0.59,0.57 1.43,1.16 1.86,1.32 0.42,0.16 0.77,0.47 0.77,0.69 0,0.44 1.19,1.54 3.14,2.88 0.70,0.48 1.45,1.27 1.66,1.75 0.25,0.58 0.58,0.87 0.97,0.87 0.81,0 1.73,1.02 1.29,1.46 -0.31,0.31 -0.20,4.05 0.14,5.00 0.19,0.52 0.40,4.50 0.23,4.50 -0.06,0 -0.17,-0.09 -0.24,-0.21 z M 13.71,37.64 c -0.08,-0.13 0.12,-0.59 0.46,-1.02 l 0.61,-0.78 -0.82,0.20 c -0.45,0.11 -0.88,0.22 -0.96,0.25 -0.08,0.02 -0.15,-0.07 -0.15,-0.23 -0.01,-0.30 2.91,-1.40 3.14,-1.18 0.13,0.13 -1.79,3.01 -2.01,3.01 -0.05,0 -0.16,-0.11 -0.25,-0.24 z m 19.30,-1.75 c -0.51,-0.78 -0.87,-1.49 -0.79,-1.56 0.07,-0.07 0.91,0.14 1.86,0.49 1.07,0.39 1.62,0.72 1.46,0.89 -0.16,0.16 -0.48,0.14 -0.83,-0.04 -0.99,-0.53 -1.23,-0.34 -0.63,0.49 0.51,0.71 0.53,1.17 0.05,1.15 -0.09,-0.00 -0.58,-0.64 -1.09,-1.43 z M 12.01,35.36 c -0.09,-0.14 0.61,-0.66 1.56,-1.14 0.95,-0.48 1.68,-0.73 1.62,-0.56 -0.16,0.48 -3.00,2.00 -3.18,1.70 z m 22.29,-1.35 c -1.25,-0.72 -1.67,-1.18 -1.06,-1.18 0.39,0 2.82,1.50 2.82,1.75 0,0.35 -0.35,0.23 -1.75,-0.56 z M 11.30,34.38 c 0,-0.27 3.35,-1.81 3.48,-1.59 0.07,0.12 -0.55,0.56 -1.39,0.98 -1.48,0.72 -2.08,0.90 -2.08,0.61 z m -0.28,-0.92 c 0,-0.25 2.59,-1.46 3.13,-1.46 0.70,0 0.06,0.51 -1.22,0.99 -0.80,0.30 -1.56,0.59 -1.68,0.64 -0.12,0.05 -0.21,-0.02 -0.21,-0.17 z m 26.91,-2.03 c 0.09,-0.69 0.27,-1.38 0.41,-1.53 0.27,-0.30 0.01,1.31 -0.35,2.24 -0.13,0.33 -0.16,0.05 -0.06,-0.70 z M 10.18,29.73 c 0,-0.15 0.74,-0.28 1.67,-0.28 0.91,0 1.74,0.12 1.84,0.28 0.10,0.17 -0.51,0.28 -1.67,0.28 -1.04,0 -1.84,-0.12 -1.84,-0.28 z m 23.75,-0.04 c -0.06,-0.11 -0.00,-0.27 0.14,-0.36 0.37,-0.23 3.40,0.15 3.40,0.43 0,0.27 -3.36,0.21 -3.54,-0.06 z m -23.88,-1.07 c -0.09,-0.14 0.11,-0.41 0.45,-0.59 0.56,-0.30 0.58,-0.36 0.14,-0.67 -0.84,-0.61 -0.55,-1.06 0.34,-0.53 0.76,0.45 0.86,0.45 1.53,0.01 0.81,-0.53 1.29,-0.60 1.29,-0.18 0,0.15 -0.34,0.42 -0.77,0.58 l -0.77,0.29 0.80,0.42 c 0.53,0.28 0.71,0.51 0.52,0.70 -0.18,0.18 -0.51,0.12 -0.99,-0.18 -0.65,-0.42 -0.78,-0.42 -1.56,-0.02 -0.49,0.25 -0.91,0.32 -1.01,0.17 z m 24.05,-0.29 c 0,-0.15 0.79,-0.28 1.82,-0.28 1.03,0 1.82,0.12 1.82,0.28 0,0.15 -0.79,0.28 -1.82,0.28 -1.03,0 -1.82,-0.12 -1.82,-0.28 z m 4.26,-0.56 c -0.02,-0.38 -0.11,-1.20 -0.19,-1.82 -0.12,-0.98 -0.10,-1.03 0.15,-0.43 0.16,0.38 0.25,1.20 0.19,1.82 -0.05,0.62 -0.12,0.81 -0.15,0.43 z M 9.05,27.48 c 0,-0.15 0.12,-0.28 0.28,-0.28 0.15,0 0.28,0.12 0.28,0.28 0,0.15 -0.12,0.28 -0.28,0.28 -0.15,0 -0.28,-0.12 -0.28,-0.28 z M 34.10,26.92 c 0,-0.15 0.74,-0.28 1.67,-0.28 0.91,0 1.74,0.12 1.84,0.28 0.10,0.17 -0.51,0.28 -1.67,0.28 -1.04,0 -1.84,-0.12 -1.84,-0.28 z M 9.36,26.05 c -0.01,-0.40 0.24,-1.53 0.56,-2.52 3.12,-9.52 14.64,-13.16 22.62,-7.15 1.45,1.09 3.47,3.41 4.05,4.64 0.27,0.59 0.22,0.56 -0.30,-0.14 -0.35,-0.46 -1.49,-1.70 -2.53,-2.75 -2.30,-2.31 -4.96,-3.69 -8.10,-4.17 C 18.64,12.85 11.54,17.86 9.78,25.11 9.56,26.05 9.37,26.46 9.36,26.05 z M 37.53,23.61 c -0.28,-0.94 -0.27,-0.99 0.09,-0.50 0.35,0.47 0.57,1.56 0.31,1.56 -0.05,0 -0.23,-0.47 -0.40,-1.05 z M 13.76,23.22 c -0.45,-0.79 -0.58,-0.85 -1.50,-0.68 -0.76,0.14 -0.98,0.10 -0.88,-0.18 0.06,-0.20 0.45,-0.40 0.86,-0.45 0.65,-0.07 0.70,-0.15 0.41,-0.62 -0.54,-0.86 0.00,-0.99 0.66,-0.15 0.49,0.63 0.76,0.74 1.43,0.60 0.97,-0.19 0.96,0.42 -0.00,0.66 -0.45,0.11 -0.53,0.25 -0.33,0.57 0.32,0.50 0.35,1.12 0.06,1.12 -0.11,-0.00 -0.43,-0.39 -0.70,-0.87 z m 19.34,0.58 c -0.22,-0.36 -0.32,-0.28 1.48,-1.25 1.83,-0.98 2.21,-0.75 0.58,0.34 -1.77,1.19 -1.86,1.23 -2.06,0.90 z m -0.55,-1.10 c -0.17,-0.28 2.28,-1.95 2.88,-1.96 0.57,-0.00 0.42,0.14 -1.18,1.21 -0.84,0.56 -1.60,0.89 -1.70,0.75 z M 16.93,19.32 c 0,-0.64 -0.19,-0.93 -0.85,-1.27 -0.46,-0.24 -0.77,-0.56 -0.68,-0.71 0.10,-0.17 0.36,-0.16 0.71,0.02 0.45,0.24 0.54,0.19 0.54,-0.28 0,-0.31 0.12,-0.57 0.28,-0.57 0.15,0 0.28,0.31 0.28,0.69 0,0.48 0.25,0.82 0.84,1.13 0.80,0.41 1.23,1.20 0.49,0.90 -1.29,-0.52 -1.26,-0.53 -1.12,0.20 0.08,0.42 0.00,0.71 -0.17,0.71 -0.17,0 -0.31,-0.37 -0.31,-0.83 z m 12.01,0.09 c -0.18,-0.18 1.28,-2.47 1.79,-2.79 0.64,-0.39 0.52,0.14 -0.33,1.52 -0.88,1.42 -1.10,1.61 -1.45,1.26 z m -10.40,-2.21 c -0.41,-0.85 -0.63,-1.54 -0.48,-1.54 0.23,0 1.69,2.53 1.69,2.94 0,0.56 -0.56,-0.08 -1.20,-1.39 z m 2.89,0.71 c 0,-0.14 0.14,-0.59 0.33,-0.99 0.27,-0.60 0.24,-0.87 -0.15,-1.56 -0.50,-0.85 -0.23,-1.15 0.38,-0.41 0.29,0.36 0.41,0.33 0.86,-0.21 0.56,-0.67 0.73,-0.25 0.25,0.64 -0.19,0.36 -0.18,0.75 0.04,1.24 0.50,1.09 0.76,0.86 0.85,-0.75 0.04,-0.81 0.18,-1.44 0.29,-1.40 0.11,0.03 0.21,0.13 0.21,0.21 v 1.68 c 0,1.44 -0.04,1.54 -0.67,1.54 -0.37,0 -0.74,-0.18 -0.83,-0.42 -0.22,-0.59 -0.67,-0.52 -0.88,0.14 -0.18,0.56 -0.70,0.78 -0.70,0.29 z m 3.65,-0.68 c 0,-1.32 0.30,-2.70 0.59,-2.70 0.28,0 0.31,1.09 0.06,2.60 -0.21,1.31 -0.66,1.38 -0.66,0.10 z M 26.06,7.15 C 27.13,6.21 27.27,4.96 26.43,3.98 25.84,3.30 25.48,3.16 24.02,3.06 22.40,2.94 22.25,2.98 21.44,3.79 c -0.96,0.96 -1.11,2.09 -0.41,3.08 0.44,0.62 1.36,0.83 1.65,0.37 0.08,-0.13 -0.07,-0.31 -0.36,-0.38 -0.74,-0.19 -1.00,-1.51 -0.47,-2.33 0.83,-1.27 3.78,-1.09 4.04,0.25 0.15,0.82 -0.20,1.87 -0.65,1.87 -0.22,0 -0.41,0.25 -0.41,0.56 0,0.73 0.36,0.71 1.25,-0.07 z M 23.46,5.60 C 23.38,5.17 23.26,4.99 23.19,5.19 c -0.11,0.35 0.09,1.18 0.30,1.18 0.06,0 0.04,-0.34 -0.03,-0.77 z M 24.43,5.17 c -0.07,-0.19 -0.13,0.03 -0.12,0.49 0.00,0.46 0.06,0.62 0.14,0.34 0.07,-0.27 0.06,-0.65 -0.01,-0.84 z m 0.84,-0.28 c -0.07,-0.19 -0.13,0.03 -0.12,0.49 0.00,0.46 0.06,0.62 0.14,0.34 0.07,-0.27 0.06,-0.65 -0.01,-0.84 z m -2.64,0.22 c 0.07,-0.38 0.02,-0.62 -0.10,-0.54 -0.23,0.14 -0.35,1.24 -0.13,1.24 0.05,0 0.16,-0.31 0.24,-0.69 z" />
</svg>
