<?xml version="1.0" encoding="UTF-8" standalone="no"?>
<!-- Created with Inkscape (http://www.inkscape.org/) -->
<svg xmlns:dc="http://purl.org/dc/elements/1.1/" xmlns:cc="http://creativecommons.org/ns#" xmlns:rdf="http://www.w3.org/1999/02/22-rdf-syntax-ns#" xmlns:svg="http://www.w3.org/2000/svg" xmlns="http://www.w3.org/2000/svg" version="1.1" width="100%" height="100%" viewBox="0 0 48 48" id="Layer_1" xml:space="preserve">
<defs id="defs121" />
<path d="m 8.38,3.36 c 0.01,0.27 0.21,0.53 0.34,0.75 0.72,1.19 1.64,2.49 2.37,3.62 0.21,0.33 0.44,0.68 0.59,0.93 0.58,0.97 1.26,1.92 1.81,2.81 0.32,0.52 0.64,1.07 1,1.62 1.03,1.61 2.10,3.29 3.12,4.90 0.41,0.64 0.82,1.29 1.18,1.96 -1.10,-0.84 -2.22,-1.67 -3.34,-2.5 -0.55,-0.40 -1.10,-0.82 -1.65,-1.25 -0.54,-0.41 -1.13,-0.80 -1.68,-1.21 -2.36,-1.78 -4.72,-3.43 -7.03,-5.21 -0.12,-0.09 -0.26,-0.21 -0.43,-0.21 1.68,1.37 3.39,2.54 5.06,3.75 0.56,0.40 1.16,0.81 1.65,1.34 -0.22,-0.18 -0.47,-0.38 -0.71,-0.56 -0.24,-0.17 -0.47,-0.40 -0.75,-0.46 1.13,0.92 2.25,1.66 3.34,2.46 0.57,0.42 1.16,0.86 1.68,1.25 0.19,0.14 0.37,0.31 0.59,0.40 -1.23,-1.07 -2.79,-2.02 -4.03,-3.06 0.78,0.50 1.54,1.05 2.31,1.62 1.55,1.14 3.08,2.32 4.59,3.43 0.38,0.28 0.74,0.59 1.12,0.87 0.38,0.28 0.83,0.49 1.12,0.87 -1.44,-1.14 -3.10,-2.25 -4.43,-3.28 -0.21,-0.16 -0.44,-0.40 -0.65,-0.43 1.34,1.06 2.75,2.02 4.12,3.06 1.38,1.04 2.78,2.09 4.12,3.15 0.19,0.00 0.33,0.28 0.43,0.25 -0.69,0.62 -1.03,1.38 -1.75,1.93 -0.13,-0.19 -0.33,-0.27 -0.40,-0.43 -0.13,0.04 -0.21,-0.11 -0.31,-0.18 -0.53,-0.41 -1.14,-0.91 -1.65,-1.34 -0.14,-0.12 -0.32,-0.26 -0.46,-0.37 -0.12,-0.09 -0.30,-0.26 -0.46,-0.21 0.54,0.39 1.16,0.98 1.68,1.40 0.10,0.08 0.21,0.10 0.28,0.21 0.08,0.14 0.01,0.40 0.03,0.56 0.02,0.21 0.12,0.37 0.06,0.56 -0.19,-0.39 -0.06,-0.89 -0.31,-1.21 0.05,0.37 0.21,0.75 0.18,1.12 -2.24,-1.67 -4.48,-3.57 -6.71,-5.43 -0.03,-0.05 0.05,-0.10 -0.03,-0.15 -0.12,-0.04 -0.24,-0.23 -0.37,-0.25 0.04,0.07 0.21,0.14 0.18,0.21 l -0.03,0 c -0.07,-0.11 -0.14,-0.07 -0.21,-0.18 -0.11,-0.10 0.12,-0.08 -0.03,-0.18 -0.42,-0.39 -0.84,-0.78 -1.28,-1.21 0.19,0.18 0.45,0.47 0.53,0.65 -0.80,-0.76 -1.55,-1.54 -2.31,-2.31 0.57,0.56 1.27,1.16 1.78,1.65 -0.37,-0.37 -0.76,-0.76 -1.09,-1.06 -0.07,-0.06 -0.10,-0.26 -0.25,-0.21 0.02,-0.12 -0.01,-0.02 -0.09,-0.09 -0.12,-0.10 -0.25,-0.30 -0.37,-0.37 -0.14,-0.25 -0.31,-0.21 -0.37,-0.34 -0.05,-0.05 -0.13,-0.09 -0.18,-0.15 -0.06,-0.14 -0.32,-0.42 -0.46,-0.5 -0.04,-0.04 -0.11,-0.07 -0.15,-0.12 0.04,-0.03 0.02,-0.09 -0.03,-0.15 -0.04,-0.04 -0.11,-0.07 -0.15,-0.06 l -0.03,0 c -0.04,-0.05 -0.07,-0.13 -0.12,-0.18 -0.01,-0.00 -0.01,-0.02 -0.03,-0.03 -0.04,-0.05 -0.08,-0.10 -0.12,-0.15 -0.02,-0.03 -0.06,-0.03 -0.09,-0.06 -0.02,-0.01 -0.03,-0.05 -0.06,-0.06 -0.02,-0.02 -0.03,-0.06 -0.06,-0.09 -0.47,-0.45 -0.99,-1.05 -1.5,-1.59 -0.13,-0.14 -0.22,-0.41 -0.43,-0.43 0.43,0.50 1.01,1.02 1.37,1.53 -0.59,-0.64 -1.44,-1.44 -2.18,-2.37 -0.11,-0.14 -0.21,-0.33 -0.34,-0.5 -0.43,-0.55 -1.06,-1.07 -1.37,-1.65 0.08,-0.01 0.13,0.25 0.28,0.18 -0.41,-0.45 -0.82,-0.81 -1.03,-1.21 -0.07,-0.10 -0.03,0.08 -0.12,-0.06 -0.03,-0.19 -0.35,-0.40 -0.40,-0.65 0.11,0.07 0.09,0.10 0.21,0.12 -0.11,-0.18 -0.45,-0.24 -0.5,-0.46 0.43,0.34 0.97,0.66 1.40,1 0.09,0.07 0.17,0.30 0.34,0.21 -0.47,-0.37 -1.01,-0.80 -1.40,-1.09 -0.13,-0.10 -0.35,-0.32 -0.53,-0.18 0.01,0.20 0.14,0.38 0.25,0.56 0.29,0.47 0.72,0.95 1.06,1.43 0.10,0.15 0.17,0.35 0.28,0.5 0.05,0.06 0.12,0.09 0.18,0.15 0.42,0.45 0.75,1.04 1.18,1.37 0.25,0.43 0.69,0.98 1.09,1.18 -9.68e-4,0.32 0.40,0.45 0.56,0.59 0.79,0.70 1.52,1.69 2.31,2.46 0.27,0.27 0.53,0.52 0.78,0.75 0.45,0.42 0.99,0.99 1.40,1.34 0.12,0.10 0.22,0.26 0.34,0.37 0.32,0.32 0.66,0.63 1,0.93 0.24,0.21 0.45,0.43 0.68,0.65 0.66,0.61 1.37,1.19 2,1.71 0.64,0.54 1.21,0.97 1.81,1.46 1.22,0.99 2.41,1.96 3.53,2.78 0.85,0.62 1.56,1.28 2.37,1.75 0.62,1.11 1.03,2.88 2.40,3.46 0.17,0.07 0.43,0.07 0.62,0.12 0.42,0.10 0.78,0.26 1.18,0.37 0.22,0.06 0.46,0.11 0.62,0.25 0.33,0.29 0.33,0.65 0.28,0.90 -0.06,0.28 -0.08,0.52 -0.15,0.75 0.04,0.75 0.07,1.52 0.25,2.28 0.13,0.58 0.34,1.08 0.62,1.68 0.53,0.80 0.92,1.72 1.68,2.40 0.07,0.06 0.17,0.09 0.25,0.15 0.07,0.06 0.13,0.19 0.21,0.28 0.21,0.22 0.50,0.46 0.75,0.68 0.13,0.12 0.27,0.19 0.37,0.31 0.05,0.06 0.02,0.18 0.12,0.18 -0.04,0.40 -0.05,0.85 0,1.25 0.01,0.12 0.00,0.28 0.03,0.37 0.14,0.58 0.87,0.95 1.28,0.68 0.36,-0.24 0.18,-0.54 0.18,-0.87 0.00,-0.21 0.00,-0.46 0.18,-0.62 0.14,-0.12 0.59,-0.21 0.84,-0.18 0.16,0.01 0.37,0.09 0.59,0.12 0.40,0.04 0.81,0.07 1.21,0.03 0.21,-0.02 0.47,-0.03 0.59,-0.09 0.24,-0.12 0.83,-0.66 1.09,-0.96 0.17,-0.20 0.10,-0.43 0.21,-0.62 -0.00,-0.75 -0.13,-1.40 -0.59,-2.03 -0.04,-0.05 -0.13,-0.09 -0.18,-0.15 -0.05,-0.07 -0.09,-0.18 -0.15,-0.25 -0.54,-0.66 -1.12,-1.21 -1.65,-1.65 -0.59,-0.50 -1.11,-0.95 -1.65,-1.31 -0.08,-0.05 -0.14,-0.06 -0.21,-0.12 -0.25,-0.22 -0.40,-0.44 -0.53,-0.68 -0.13,-0.26 -0.26,-0.58 -0.37,-0.84 -0.06,-0.15 -0.17,-0.28 -0.21,-0.40 -0.03,-0.08 -1e-4,-0.16 -0.03,-0.25 -0.05,-0.14 -0.14,-0.25 -0.18,-0.37 -0.07,-0.18 -0.06,-0.40 -0.12,-0.56 -0.18,-0.48 -0.63,-0.87 -1.06,-1.12 -0.48,-0.27 -1.03,-0.51 -1.56,-0.62 -0.54,-0.11 -1.09,-0.17 -1.56,-0.40 -0.02,-0.13 -0.16,-0.27 -0.15,-0.40 0.53,-0.14 1.06,-0.39 1.59,-0.15 0.08,-0.02 -0.02,-0.14 0.09,-0.09 0.57,0.11 0.70,0.83 1.12,1.21 0.46,0.43 1.12,0.28 1.59,0.21 0.13,-0.01 0.23,-0.02 0.37,-0.03 0.13,-0.00 0.25,-0.02 0.37,-0.03 0.12,-0.00 0.28,0.08 0.37,-0.03 0.22,0.09 0.43,0.01 0.65,0 0.08,0.10 0.31,0.06 0.37,0.06 0.02,-5.6e-4 0.04,0.09 0.06,0.09 0.07,0.01 0.14,-0.01 0.21,0 0.37,0.05 0.75,0.09 1.12,0.25 0.17,0.35 -0.03,0.71 -0.03,1.06 0.10,0.14 0.19,0.20 0.28,0.28 0.09,0.09 0.13,0.16 0.25,0.18 0.45,0.09 0.85,-0.77 1.37,-0.75 0.34,0.45 0.51,1.09 0.90,1.56 0.32,0.38 0.83,0.69 1.25,0.81 0.15,0.04 0.34,-0.00 0.46,0.12 0.14,-0.06 0.29,-0.03 0.43,0 0.16,-0.03 0.30,-0.11 0.46,-0.03 0.22,-0.09 0.46,-0.15 0.68,-0.25 0.23,-0.09 0.50,-0.21 0.71,-0.37 0.69,-0.50 1.08,-1.13 1.34,-1.62 0.17,-0.33 0.21,-0.47 0.28,-0.78 0.11,-0.49 0.18,-1.03 0.09,-1.46 -0.09,-0.01 -0.18,0.04 -0.21,-0.09 0.07,-0.18 0.15,0.01 0.21,-0.15 -0.08,-0.05 0.00,-0.15 0,-0.21 -0.02,-0.22 -0.12,-0.43 -0.15,-0.62 -0.02,-0.14 -0.15,-0.27 -0.25,-0.43 -0.35,-0.62 -1.30,-1.66 -1.87,-1.90 -0.07,-0.02 -0.14,-0.05 -0.21,-0.09 -0.35,-0.16 -0.77,-0.30 -1.09,-0.40 -0.17,-0.05 -0.24,-0.09 -0.37,-0.09 -0.02,5.8e-4 -0.04,-0.05 -0.06,-0.06 -0.02,-0.00 -0.05,0.04 -0.09,0.03 -0.18,-0.04 -0.28,-0.07 -0.46,-0.09 -0.35,-0.03 -0.89,-0.08 -1.15,-0.06 -0.55,0.05 -1.38,0.37 -1.87,0.81 -0.25,0.22 -0.39,0.54 -0.65,0.75 -0.13,0.10 -0.30,0.10 -0.46,0.21 -0.21,-0.06 -0.44,0.05 -0.65,-0.06 -0.13,0.05 -0.26,0.04 -0.40,0.09 -0.37,-0.15 -0.76,-0.10 -1.15,-0.15 -0.09,-0.01 -0.21,-0.04 -0.31,-0.06 -0.30,-0.04 -0.57,-0.12 -0.87,-0.18 -0.62,-0.11 -1.20,-0.17 -1.78,-0.15 -0.09,0.00 -0.18,0.02 -0.28,0.03 -0.76,0.05 -1.65,-0.15 -2.34,-0.53 -0.06,-0.03 -0.11,-0.11 -0.18,-0.15 -0.06,-0.03 -0.16,-0.02 -0.21,-0.06 -0.40,-0.26 -0.80,-0.68 -1.12,-0.96 -0.12,-0.11 -0.27,-0.25 -0.40,-0.34 -0.09,-0.06 -0.25,-0.06 -0.34,-0.12 -0.14,-0.09 -0.19,-0.30 -0.40,-0.34 -0.53,-1.54 -1.13,-2.98 -2.21,-4.53 -0.04,-0.07 -0.01,-0.14 -0.06,-0.21 -0.29,-0.16 -0.40,-0.60 -0.59,-0.90 -0.64,-1.01 -1.41,-2.03 -2.18,-3.09 -0.29,-0.40 -0.58,-0.83 -0.87,-1.25 -0.73,-1.06 -1.46,-1.94 -2.25,-2.93 -1.64,-2.06 -3.51,-4.16 -5.34,-5.90 -0.38,-0.36 -0.78,-0.65 -1.18,-1 -0.27,-0.22 -0.59,-0.40 -0.87,-0.59 -0.15,-0.10 -0.27,-0.21 -0.43,-0.31 -0.13,-0.07 -0.31,-0.10 -0.37,-0.28 -0.41,0.02 -0.83,-0.49 -1.25,-0.40 z m 1.21,12.68 c 0.17,0.18 0.37,0.34 0.56,0.37 -0.20,-0.22 -0.55,-0.49 -0.87,-0.81 -0.25,-0.25 -0.45,-0.59 -0.75,-0.71 0.32,0.33 0.69,0.76 1.03,1.09 0.01,0.01 0.01,0.04 0.03,0.06 z M 8.51,3.54 c 0.46,0.14 0.91,0.48 1.37,0.75 0.01,-0.03 0.00,-0.08 -0.03,-0.12 0.64,0.37 1.31,0.90 2.00,1.5 -0.29,-0.23 -0.60,-0.45 -0.87,-0.65 -0.29,-0.21 -0.54,-0.44 -0.84,-0.56 1.32,0.90 2.76,2.23 3.93,3.46 0.15,0.15 0.31,0.30 0.46,0.46 0.13,0.14 0.25,0.37 0.46,0.43 -0.16,-0.20 -0.41,-0.46 -0.56,-0.59 -0.58,-0.52 -1.13,-1.20 -1.71,-1.78 0.92,0.87 1.84,1.82 2.65,2.71 -0.10,-0.11 -0.21,-0.21 -0.34,-0.31 0.08,0.26 0.33,0.44 0.53,0.65 0.88,0.95 1.68,1.92 2.43,2.90 -0.24,-0.32 -0.46,-0.66 -0.75,-1 -0.33,-0.39 -0.64,-0.85 -0.96,-1.25 0.16,0.05 0.26,0.23 0.37,0.37 2.06,2.49 3.82,4.98 5.59,7.53 1.03,1.49 2.00,3.17 2.90,4.68 -0.07,0.09 -0.14,0.08 -0.21,0.15 0.07,0.39 0.29,0.83 0.46,1.25 0.05,0.13 0.18,0.26 0.12,0.40 -0.52,-0.26 -1.09,-0.47 -1.62,-0.87 -1.09,-0.82 -2.30,-1.66 -3.46,-2.53 -0.11,-0.08 -0.22,-0.16 -0.37,-0.28 -0.16,-0.12 -0.36,-0.29 -0.59,-0.46 -0.13,-0.10 -0.32,-0.18 -0.40,-0.28 -0.15,-0.18 -0.27,-0.49 -0.43,-0.75 -0.46,-0.71 -0.96,-1.51 -1.43,-2.25 -1.59,-2.47 -3.01,-4.78 -4.59,-7.28 -0.22,-0.35 -0.47,-0.74 -0.65,-1.06 -0.06,-0.12 -0.06,-0.23 -0.12,-0.34 -0.12,-0.20 -0.28,-0.36 -0.40,-0.56 -0.12,-0.20 -0.24,-0.40 -0.37,-0.59 -0.82,-1.23 -1.72,-2.46 -2.53,-3.75 z m -4.96,5.31 c 0.29,0.26 0.58,0.51 0.87,0.68 -0.29,-0.27 -0.58,-0.51 -0.87,-0.68 z m 12.03,0.5 0.03,0 c 0.21,0.23 0.50,0.43 0.68,0.78 -0.25,-0.20 -0.47,-0.50 -0.71,-0.78 z m -11.12,0.21 c 0.46,0.42 0.79,0.58 1.25,1.06 0.49,0.27 1.03,0.67 1.40,0.93 -0.88,-0.65 -1.66,-1.35 -2.65,-2.00 z m 0.34,1.09 c -0.00,0.00 0.00,0.04 0.03,0.06 0.10,0.20 0.34,0.41 0.46,0.53 0.12,0.11 0.23,0.34 0.40,0.34 -0.21,-0.33 -0.63,-0.72 -0.87,-0.93 -0.01,-0.01 -0.02,-0.00 -0.03,0 z m 0.25,0.59 c 0.02,-0.07 0.34,0.45 0.5,0.56 -0.17,-0.07 -0.33,-0.35 -0.5,-0.5 -0.01,-0.03 -0.00,-0.05 0,-0.06 z m 2.09,0.31 c 0.29,0.20 0.55,0.44 0.84,0.65 0.29,0.21 0.57,0.45 0.87,0.65 0.28,0.19 0.60,0.47 0.93,0.62 -0.49,-0.44 -0.95,-0.71 -1.43,-1.06 -0.40,-0.29 -0.83,-0.58 -1.21,-0.87 z m -1.21,0.25 c -0.12,0.24 0.42,0.40 0.5,0.68 0.06,-0.01 0.11,0.08 0.18,0 -0.15,-0.28 -0.47,-0.47 -0.68,-0.68 z m 0.68,0.75 c 0.55,0.51 0.99,1.05 1.5,1.5 0.17,0.15 0.34,0.22 0.46,0.37 0.03,0.04 0.09,0.08 0.12,0.12 -0.03,-0.03 -0.05,-0.14 -0.12,-0.21 -0.23,-0.23 -0.50,-0.43 -0.75,-0.68 -0.23,-0.24 -0.46,-0.54 -0.71,-0.78 -0.15,-0.14 -0.35,-0.35 -0.5,-0.31 z m 2.09,2 c 0.06,0.08 0.11,0.17 0.21,0.28 0.48,0.49 1.03,1.06 1.71,1.68 0.06,0.06 -0.11,0.00 0,0.09 0.05,0.03 0.01,-0.09 0.09,0.03 0.09,0.16 0.67,0.77 0.56,0.5 0.11,0.20 0.29,0.49 0.53,0.5 0.64,0.63 1.31,1.12 1.93,1.65 0.21,0.18 0.39,0.41 0.56,0.40 -0.10,-0.07 -0.53,-0.32 -0.56,-0.53 -0.26,-0.10 -0.41,-0.35 -0.62,-0.53 -0.99,-0.83 -2.04,-1.78 -3.03,-2.78 -0.06,-0.06 -0.15,-0.11 -0.21,-0.18 0.06,0.04 0.12,0.07 0.18,0.06 -0.40,-0.38 -0.82,-0.76 -1.21,-1.09 -0.04,-0.04 -0.13,-0.06 -0.15,-0.09 z m 1.40,1.31 c 0.55,0.42 1.10,1.08 1.62,1.43 -0.54,-0.54 -1.02,-1.04 -1.62,-1.43 z m 8.06,-3.28 c 0.69,0.91 1.33,1.83 2,2.75 0.08,-0.17 -0.14,-0.27 -0.21,-0.37 -0.24,-0.33 -0.45,-0.66 -0.68,-1 -0.32,-0.46 -0.71,-0.91 -1.09,-1.37 z m -10.62,1.18 c 0.20,0.28 0.48,0.43 0.68,0.59 -0.04,-0.03 -0.08,-0.08 -0.12,-0.12 -0.19,-0.17 -0.30,-0.42 -0.56,-0.46 z m 0.68,0.59 c 0.71,0.57 1.37,1.46 2.12,2.15 0.50,0.46 0.98,0.99 1.46,1.34 -0.22,-0.25 -0.60,-0.62 -0.90,-0.90 -0.16,-0.15 -0.46,-0.36 -0.62,-0.59 -0.02,-0.03 0.01,-0.06 0,-0.09 -0.01,-0.03 -0.07,-0.06 -0.09,-0.09 -0.12,-0.13 -0.29,-0.30 -0.43,-0.43 -0.37,-0.36 -0.71,-0.68 -1.06,-1 -0.14,-0.13 -0.31,-0.25 -0.46,-0.37 z m 1.06,0.75 c 0.12,0.05 0.28,0.22 0.40,0.37 -0.12,-0.13 -0.28,-0.23 -0.40,-0.37 z m 11.03,0.34 c -0.04,0.14 0.09,0.27 0.15,0.37 0.08,0.12 0.16,0.22 0.25,0.34 0.99,1.44 2.02,3.05 2.93,4.5 0.15,0.24 0.26,0.50 0.40,0.75 0.24,0.42 0.54,0.84 0.75,1.28 0.07,-0.16 -0.08,-0.30 -0.15,-0.43 -0.25,-0.47 -0.52,-0.88 -0.78,-1.34 -1.03,-1.82 -2.37,-3.66 -3.56,-5.46 z m -8.46,1.93 c 0.03,0.02 0.07,0.08 0.12,0.12 0.01,0.02 0.06,0.04 0.09,0.06 -0.07,-0.06 -0.14,-0.18 -0.21,-0.18 z m 0.31,0.25 c -0.01,-1.8e-4 -0.01,-6e-6 -0.03,0.03 0.88,0.68 1.63,1.49 2.5,2.18 0.04,-0.07 -0.07,-0.16 -0.12,-0.21 -0.07,-0.07 -0.19,-0.18 -0.28,-0.25 -0.65,-0.54 -1.32,-1.19 -1.93,-1.62 -0.01,-0.00 -0.07,-0.12 -0.12,-0.12 z m -0.43,0.31 c 0.16,0.21 0.33,0.29 0.5,0.5 -0.06,-0.19 -0.46,-0.49 -0.5,-0.5 z m 0.28,0.09 c -0.00,0.00 -0.01,0.01 0,0.03 l 0.06,0.06 c 0.23,0.14 0.44,0.52 0.68,0.56 -0.24,-0.25 -0.47,-0.43 -0.71,-0.65 -0.00,-0.00 -0.02,-0.00 -0.03,0 z m 0.28,0.43 c -0.01,-0.00 -0.00,0.01 0.03,0.06 0.21,0.29 0.55,0.48 0.78,0.71 -0.12,-0.16 -0.33,-0.34 -0.5,-0.5 -0.07,-0.06 -0.27,-0.26 -0.31,-0.28 z m 0.31,0 c 0.02,0.02 0.06,0.06 0.09,0.09 0.01,0.00 0.07,0.00 0.12,0.03 -0.05,-0.04 -0.14,-0.08 -0.21,-0.12 z m 0.31,0.34 c 0.26,0.26 0.54,0.57 0.81,0.65 -0.08,-0.13 -0.24,-0.22 -0.37,-0.34 -0.13,-0.12 -0.26,-0.36 -0.43,-0.31 z m 0.37,0.65 c 0.59,0.59 1.11,1.19 1.75,1.65 -0.47,-0.56 -1.23,-1.15 -1.71,-1.65 l -0.03,0 z m 0.43,0.06 0.21,0.25 c 0.10,-0.08 -0.25,-0.29 -0.21,-0.25 z m 0.62,0.25 c 0.10,0.07 0.20,0.30 0.31,0.25 -0.10,-0.11 -0.20,-0.21 -0.31,-0.25 z m 0.34,0.09 c 0.52,0.46 1.01,0.93 1.53,1.53 0.78,0.90 1.54,1.79 2.34,2.71 -0.66,-1.01 -1.73,-2.11 -2.5,-3.03 1.23,0.93 2.11,2.37 3.03,3.5 0.03,-0.16 -0.12,-0.27 -0.21,-0.40 -0.49,-0.67 -1.09,-1.42 -1.56,-2.09 1.05,0.69 1.55,1.94 2.28,2.84 0.01,-0.16 -0.15,-0.29 -0.25,-0.43 -0.33,-0.47 -0.71,-1.13 -1.09,-1.68 0.15,0.07 0.30,0.26 0.46,0.40 0.14,0.13 0.27,0.31 0.43,0.31 -0.34,-0.49 -0.96,-0.74 -1.31,-1.21 -0.45,-0.16 -1.00,-0.65 -1.40,-1 -0.38,-0.32 -0.69,-0.67 -1.03,-0.93 -0.21,-0.17 -0.45,-0.41 -0.71,-0.5 z m -1.21,0.09 c 0.09,-0.03 0.18,0.09 0.28,0.18 -0.13,0.02 -0.13,-0.08 -0.28,-0.18 z m 7.21,1.5 c 0.23,0.07 0.45,0.34 0.68,0.46 -0.23,-0.05 -0.45,-0.31 -0.68,-0.46 z m 2.06,1.53 c 0.06,7.68e-4 0.12,0.05 0.18,0.12 -0.06,-4.71e-4 -0.12,-0.05 -0.18,-0.12 z m -3.78,0.62 c 0.33,0.49 0.63,1.19 1.06,1.59 -0.30,-0.47 -0.64,-1.13 -1.06,-1.59 z m 5.18,0.37 c 0.05,0.00 0.10,0.11 0.15,0.12 -0.06,0.03 -0.15,-0.05 -0.21,-0.09 0.01,-0.02 0.04,-0.03 0.06,-0.03 z m -4.71,0.06 c 0.25,0.44 0.64,1.01 0.96,1.53 0.06,-0.08 -0.05,-0.15 -0.09,-0.21 -0.25,-0.44 -0.55,-0.91 -0.81,-1.28 -0.02,-0.01 -0.03,-0.05 -0.06,-0.03 z m 6,0.5 c 0.03,-0.01 0.15,0.01 0.18,0.06 -0.06,0.07 -0.12,-0.07 -0.18,-0.03 -0.00,-0.01 -0.01,-0.02 0,-0.03 z m -0.53,0.03 c 0.02,0.01 0.06,0.04 0.09,0.06 -0.05,0.06 -0.13,0.03 -0.18,-0.03 0.02,-0.03 0.06,-0.04 0.09,-0.03 z m 0.09,0.15 c 0.04,-0.02 0.11,0.01 -0.03,0.06 0.00,-0.02 0.01,-0.05 0.03,-0.06 z m 0.28,0.03 c -0.01,0.12 -0.22,0.02 -0.31,0.09 0.01,-0.08 0.22,-0.04 0.31,-0.09 z m -4.87,0.09 c -0.04,0.17 0.08,0.32 0.18,0.5 0.04,0.15 0.11,0.44 0.28,0.53 -0.20,-0.34 -0.26,-0.68 -0.46,-1.03 z m -0.25,0.06 c 0.04,0.13 0.12,0.37 0.25,0.43 -0.07,-0.13 -0.12,-0.37 -0.25,-0.43 z m 4.90,0 c 0.19,-0.01 0.41,0.08 0.59,0.15 0.09,0.03 0.20,0.04 0.31,0.18 -0.22,-0.07 -0.40,-0.18 -0.62,-0.21 -0.14,-0.02 -0.32,0.01 -0.46,-0.06 0.05,-0.03 0.12,-0.05 0.18,-0.06 z m -0.09,0.18 c 0.50,-0.03 0.98,0.20 1.46,0.75 -0.09,0.09 -0.15,0.02 -0.25,0.06 0.08,0.09 0.15,0.03 0.25,0 0.10,0.08 0.15,0.19 0.21,0.28 -0.07,0.09 -0.17,0.07 -0.25,0.03 0.00,-0.05 0.03,-0.08 0.09,-0.09 -0.08,-0.07 -0.15,-0.08 -0.25,-0.06 0.05,0.04 0.13,0.07 0.12,0.15 -0.03,0.02 -0.08,-0.06 -0.12,-0.09 -0.03,0.09 -0.00,0.21 0.03,0.31 -0.12,-0.00 -0.06,-0.20 -0.12,-0.28 -0.05,0.14 0.03,0.29 0,0.43 -0.12,-0.18 -0.05,-0.45 -0.28,-0.71 -0.26,-0.31 -0.68,-0.36 -1,-0.40 -0.03,0.03 -0.06,0.05 -0.09,0.03 -0.07,0.13 -0.12,0.26 -0.09,0.40 0.07,0.00 0.00,-0.20 0.09,-0.28 0.04,0.11 0.11,0.23 0.03,0.34 -0.11,-0.04 -0.23,0.13 -0.34,0.15 -0.10,-0.07 0.12,-0.14 0.09,-0.21 -0.08,-0.08 -0.19,3.99e-4 -0.28,-0.15 0.07,-0.10 0.14,0.09 0.21,0.06 -0.05,-0.15 -0.30,-0.24 -0.43,-0.37 0.30,-0.20 0.60,-0.32 0.90,-0.34 z m -4.18,0.06 c -0.09,0.08 -0.00,0.25 0.03,0.37 0.04,0.12 0.10,0.29 0.18,0.34 -0.09,-0.23 -0.13,-0.48 -0.21,-0.71 z m 2.68,0.03 c -0.04,0.17 -0.24,0.35 -0.37,0.53 0.07,-0.17 0.22,-0.35 0.37,-0.53 z m -2.21,0.06 c 0.08,0.06 0.16,0.12 0.25,0.15 0.05,0.38 0.07,0.76 0.15,1.15 0.05,-0.25 -0.04,-0.69 -0.09,-1.03 0.23,0.10 0.20,0.39 0.21,0.59 0.01,0.19 0.10,0.41 0,0.59 -0.46,-0.26 -0.50,-0.50 -0.53,-0.90 -0.01,-0.20 -0.02,-0.40 0,-0.56 z m 2.40,0.09 c 0.02,0.16 -0.14,0.30 -0.21,0.43 -0.17,0.31 -0.25,0.62 -0.18,0.96 -0.04,0.08 -0.02,0.16 -0.03,0.25 0.10,-0.00 0.08,0.15 0.03,0.21 -0.11,-0.07 0.03,-0.14 -0.03,-0.21 -0.00,0.08 -0.04,0.17 -0.12,0.25 -0.04,-0.27 0.11,-0.54 0.09,-0.81 -0.05,-0.02 -0.09,0.03 -0.09,-0.06 -0.08,0.20 -0.08,0.41 -0.12,0.62 -0.09,-0.08 0.04,-0.34 0,-0.5 -0.17,0.24 0.03,0.70 -0.15,1.03 -0.07,-0.12 -0.05,-0.07 -0.15,-0.12 -0.07,-0.16 0.06,-0.33 -0.03,-0.5 0.15,0.20 0.09,-0.44 0.12,-0.59 -0.11,0.19 0.00,0.37 -0.09,0.56 -0.01,-0.14 0.00,-0.29 -0.06,-0.43 0.01,0.27 -0.00,0.54 0,0.81 -0.02,-0.03 -0.04,-0.07 -0.06,-0.12 -0.00,0.04 -0.03,0.08 -0.06,0.12 -0.05,-0.07 -0.05,-0.25 0,-0.25 0.02,0.04 0.06,0.07 0.06,0.12 -0.06,-0.21 0.03,-0.51 0,-0.75 -0.12,0.08 0.05,0.36 -0.06,0.53 -0.03,-0.26 -0.08,-0.52 -0.03,-0.78 0.14,0.17 0.29,0.06 0.43,0.15 -0.07,0.25 -0.08,0.49 -0.12,0.75 0.09,-0.18 0.05,-0.55 0.18,-0.81 0.08,0.07 -0.01,0.14 0.03,0.21 0.05,-0.24 0.26,-0.47 0.46,-0.71 -0.04,-0.05 -0.11,0.07 -0.15,0.09 0.01,-0.07 0.11,-0.20 0.18,-0.15 0.01,-0.05 -0.05,-0.04 -0.03,-0.12 l 0.21,-0.18 z m 0.31,0.15 c 0.09,-0.05 0.19,0.08 0.28,0.15 -0.09,0.00 -0.19,-0.09 -0.28,-0.15 z m 0,0.03 0.03,0.06 -0.03,0.03 -0.06,-0.06 0.06,-0.03 z m -2.15,0.15 c 0.16,0.13 0.10,0.47 0.12,0.71 0.01,0.15 0.10,0.31 0,0.43 -0.13,-0.23 -0.04,-0.48 -0.06,-0.71 -0.01,-0.15 -0.13,-0.28 -0.06,-0.43 z m 2.34,0 c 0.01,0.00 0.01,0.04 0.03,0.06 -0.03,0.01 -0.05,0.01 -0.09,-0.03 0.01,-0.02 0.04,-0.04 0.06,-0.03 z m -0.37,0.03 c 0.07,0.06 -0.01,0.12 -0.03,0.18 -0.07,-0.06 -0.03,-0.12 0.03,-0.18 z m -0.25,0.03 c 0.04,0.03 0.01,0.12 0.06,0.09 0.03,0.12 -0.08,0.22 -0.15,0.34 -0.05,0.45 -0.11,0.90 0.18,1.37 -0.27,-0.21 -0.29,-0.59 -0.31,-0.90 -0.01,-0.28 0.01,-0.60 0.21,-0.90 z m -1.53,0.06 c 0.18,0.36 0.11,0.73 0.15,1.09 0.12,-0.22 -0.08,-0.64 0.03,-0.93 0.16,0.38 0.03,0.76 0.15,1.15 -0.00,-0.34 -0.06,-0.71 -0.06,-1.06 0.08,0.13 0.07,0.39 0.09,0.59 0.01,0.18 0.05,0.36 0.03,0.53 -0.07,0.06 -0.25,-0.15 -0.18,-0.21 -0.03,-0.02 -0.08,0.06 -0.12,0.03 -0.12,-0.27 -0.07,-0.57 -0.06,-0.87 -0.05,-0.10 -0.10,-0.21 -0.03,-0.31 z m 1.84,0.06 0.03,0.03 -0.03,0.06 -0.06,-0.06 0.06,-0.03 z m 0.12,0 c 0.01,-0.01 0.03,0.01 0.06,0.03 0.02,0.01 0.05,-0.01 0.06,0 -0.06,0.07 -0.03,0.01 -0.06,0 -0.01,-0.00 -0.03,-0.01 -0.06,0 -0.00,-0.02 -0.00,-0.02 0,-0.03 z m -0.28,0.06 c 0.09,0.03 -0.06,0.16 -0.09,0.06 l 0.09,-0.06 z m 0.25,0 c 0.04,0.03 0.02,0.06 0,0.09 -0.01,-0.02 -0.01,-0.01 -0.03,0 -0.02,-0.03 0.00,-0.06 0.03,-0.09 z m 0.21,0.03 c 0.00,-0.00 0.06,-0.00 0.06,0.03 -0.00,0.03 -0.12,-0.01 -0.06,-0.03 z m 0.81,0.03 c -0.06,0.12 -0.32,0.07 -0.46,0.28 -0.00,-0.18 0.33,-0.30 0.46,-0.28 z m -1.15,0.03 c 0.03,-0.05 0.15,0.07 0.06,0.09 l -0.06,-0.03 c 0.02,-0.01 0.01,-0.04 0,-0.06 z m 0.31,0 0.03,0.06 -0.03,0.03 -0.06,-0.06 0.06,-0.03 z m 1.31,0 c 0.02,0.03 0.00,0.05 0.03,0.09 -0.06,0.04 -0.09,-0.06 -0.03,-0.09 z m -0.37,0.03 c 0.01,-0.01 0.04,0.02 0.06,0.03 -0.03,0.02 -0.06,0.06 -0.09,0.09 -0.01,-0.05 0.00,-0.10 0.03,-0.12 z m -1.34,0.03 c 0.03,0.02 0.04,0.07 0.03,0.09 l 0.06,-0.03 0.03,0.06 -0.06,0.03 -0.03,-0.06 c -0.00,0.00 -0.02,-0.00 -0.03,0 -0.01,-0.02 -0.04,-0.01 -0.06,0 -0.02,-0.03 0.03,-0.06 0.06,-0.09 z m 1.5,0 c 0.09,0.03 0.20,0.06 0.28,0.18 -0.03,0.04 -0.08,0.02 -0.06,0 -0.03,-0.00 -0.08,0.01 -0.12,0.03 0.06,-0.14 -0.18,-0.08 -0.09,-0.21 z m -0.81,0.03 c 0.04,0.07 -0.06,0.14 -0.09,0.21 -0.07,-0.07 0.01,-0.14 0.09,-0.21 z m 1.15,0 c 0.01,0.04 0.14,0.11 0.09,0.15 -0.05,0.10 -0.23,-0.12 -0.09,-0.15 z m 14.62,0 c 0.24,-0.02 0.48,0.10 0.71,0.15 -0.23,-0.05 -0.48,-0.01 -0.71,-0.15 z m -16.18,0.03 c 0.03,-0.01 0.06,0.02 0.09,0 8.33e-4,0.03 -0.05,0.20 -0.12,0.09 0.09,0.00 0.04,-0.03 0.03,-0.09 z m 16.78,0 c 0.03,-0.02 0.18,0.02 0.25,0.03 0.14,0.02 0.25,0.05 0.40,0.12 0.16,0.03 0.33,0.05 0.5,0.15 -0.38,-0.03 -0.74,-0.22 -1.12,-0.25 -0.01,-0.02 -0.04,-0.05 -0.03,-0.06 z m -15.84,0.03 c 0.03,0.02 0.04,0.07 0.03,0.09 0.11,-0.08 0.20,-0.12 0.15,-0.06 -0.12,0.13 -0.25,0.22 -0.37,0.31 -0.01,-0.03 0.06,-0.14 0.15,-0.21 -0.04,0.03 -0.10,0.04 -0.12,0.06 -0.03,-0.06 0.11,-0.12 0.15,-0.18 z m -1.37,0.03 0.03,0.03 -0.06,0.06 c -0.02,0.21 -0.02,0.43 -0.06,0.65 -0.04,-0.21 -0.03,-0.44 0.06,-0.65 l -0.03,-0.06 0.06,-0.03 z m 1.03,0.03 c 0.09,-0.00 -0.13,0.15 -0.18,0.21 -0.09,0.00 0.13,-0.15 0.18,-0.21 z m 16.46,0.12 c 0.06,-0.05 0.12,0.05 0.18,0 0.02,0.08 -0.14,0.08 -0.18,0 z m -13.5,0.09 0.03,0.03 -0.03,0.06 -0.06,-0.06 0.06,-0.03 z m -1.31,0.03 0.03,0.03 -0.03,0.06 -0.06,-0.06 0.06,-0.03 z m 12.90,0 0.06,0.06 c -0.03,0.05 -0.08,0.00 -0.12,-0.03 0.02,-0.01 0.03,-0.01 0.06,-0.03 z m 2.25,0.03 c 0.07,-0.04 0.14,0.03 0.21,0.06 0.08,0.01 -0.16,0.00 -0.21,-0.06 z m -16.5,0.03 c 0.04,0.17 -0.21,0.11 -0.31,0.21 0.01,-0.08 0.22,-0.17 0.31,-0.21 z m 17.15,0 c 0.05,-0.01 0.16,0.04 0.21,0.06 -0.08,-2.6e-4 -0.16,-0.03 -0.25,-0.03 -4.89e-4,-0.02 0.01,-0.02 0.03,-0.03 z m -15.40,0.03 0.03,0.06 -0.03,0.03 -0.06,-0.03 0.06,-0.06 z m 12.25,0 0.06,0.03 c -0.02,-0.03 0.06,-0.07 0.06,0.03 -0.03,0.00 -0.05,-0.02 -0.06,-0.03 l 0,0.03 c -0.03,0.04 -0.06,0.03 -0.09,0.06 l -0.06,-0.06 0.09,-0.06 z m 1.43,0 c 0.51,0.19 1.03,0.46 1.53,0.93 0.40,0.19 0.97,0.88 1.28,1.37 0.11,0.18 0.15,0.36 0.21,0.56 0.06,0.18 0.10,0.29 0.12,0.46 0.03,0.36 -0.04,0.90 -0.21,1.25 -0.14,0.28 -0.58,0.46 -0.90,0.71 -0.15,-0.03 -0.25,0.07 -0.40,0.09 -0.02,0.00 -0.11,-0.03 -0.15,-0.03 -0.05,0.00 -0.08,0.02 -0.12,0.03 -0.08,0.00 -0.19,-0.02 -0.28,0.03 -0.38,-0.08 -0.76,-0.18 -1.15,-0.28 l -0.15,-0.15 c -0.59,-0.18 -1.22,-0.77 -1.62,-1.34 -0.12,-0.17 -0.32,-0.30 -0.40,-0.43 -0.09,-0.14 -0.06,-0.36 -0.21,-0.46 0.03,-0.27 -0.12,-0.44 -0.18,-0.75 -0.08,-0.08 0.02,-0.03 0.06,-0.09 0.04,-0.22 0.02,-0.44 0.12,-0.65 0.09,-0.20 0.28,-0.36 0.5,-0.62 0.04,-0.05 0.07,-0.05 0.06,-0.12 0.62,-0.27 1.23,-0.64 1.84,-0.37 0.06,-0.04 0.01,-0.08 0.09,-0.12 z m -16.75,0.03 0.03,0.03 -0.06,0.06 -0.03,-0.06 0.06,-0.03 z m 0.93,0 c 0.05,0.04 -0.07,0.08 -0.09,0.12 0.03,0.03 0.05,0.06 0.03,0.09 0.07,0.03 0.16,0.01 0.25,-0.03 -0.01,0.00 -0.02,0.02 -0.03,0.03 0.01,0.06 0.05,0.06 -0.06,0.12 0.07,0.11 0.16,0.06 0.25,0.03 -0.03,0.03 -0.09,0.03 -0.12,0.06 -0.02,0.09 0.13,0.01 0.18,0.12 -0.21,0.02 -0.33,-0.14 -0.46,-0.34 -0.02,-0.03 -0.07,-0.05 -0.09,-0.09 0.04,-0.10 0.06,-0.05 0.15,-0.12 z m 1.46,0 c 0.01,0.05 0.06,0.10 0,0.15 -0.01,-0.02 -0.00,-0.03 -0.03,-0.06 -0.04,-0.02 -0.01,0.03 -0.06,0.06 -0.09,-0.10 0.05,-0.07 0.09,-0.15 z m 12.71,0.03 0.09,0.06 -0.09,0.06 -0.06,-0.06 0.06,-0.06 z m -15,0.03 c -0.03,0.04 0.00,0.08 0,0.12 -0.03,-0.05 -0.05,-0.07 0,-0.12 z m 4.12,0 c 0.01,0.01 0.04,0.05 0.09,0.06 -0.06,0.09 -0.07,-0.02 -0.09,-0.06 z m 13.03,0.03 c 0.03,-0.05 0.12,0.07 0.03,0.09 -0.04,-0.03 -0.00,-0.06 -0.03,-0.09 z m -17.31,0.03 0.06,0.06 -0.06,0.03 -0.03,-0.03 0.03,-0.06 z m 4.65,0.03 c 0.02,-0.00 0.03,-0.00 0.06,0.03 -0.05,0.03 -0.10,0.09 -0.15,0.03 0.02,-0.03 0.06,-0.05 0.09,-0.06 z m -4.25,0.03 0.06,0.06 -0.06,0.03 -0.03,-0.03 0.03,-0.06 z m 1.96,0 c 0.04,-0.05 0.04,0.07 0.03,0.09 -0.03,0.04 -0.07,-0.03 -0.03,-0.09 z m 0.28,0 c 0.00,-0.00 0.02,-0.01 0.06,0 0.01,0.10 -0.08,0.02 -0.06,0 z m 12.21,0 c 0.04,-0.01 0.07,-0.02 0.12,0 -0.55,0.50 -1.01,0.92 -1.65,1.40 -0.05,-0.07 0.17,-0.14 0.12,-0.21 -0.21,0.12 -0.44,0.32 -0.65,0.43 -0.12,-0.05 0.09,-0.10 0.03,-0.15 -0.26,0.05 -0.51,0.15 -0.78,0.31 -0.02,-0.15 0.09,-0.04 0.18,-0.18 -0.10,-0.05 -0.27,0.14 -0.31,-0.03 -0.06,0.05 -0.10,0.10 -0.06,0.15 -0.09,0.04 -0.00,-0.07 -0.03,-0.09 -0.21,0.06 -0.44,0.12 -0.65,0.21 -0.02,-0.16 0.28,-0.16 0.40,-0.28 -0.23,-0.04 -0.50,0.16 -0.75,0.18 l 0,0.03 -0.06,0.03 -0.03,-0.03 0.03,-0.06 0.06,0.03 c 0.03,-0.18 0.26,-0.09 0.37,-0.25 -0.14,0.02 -0.49,0.08 -0.5,0.25 -0.06,-0.00 -0.11,-0.04 -0.18,-0.03 0.09,-0.21 0.36,-0.16 0.53,-0.28 -0.16,-0.01 -0.39,-8.92e-4 -0.5,0.15 -0.15,-0.08 -0.33,0.01 -0.5,0.09 -0.05,0.02 -0.10,0.05 -0.15,0.06 -0.13,-0.07 0.17,-0.07 0.15,-0.06 0.04,-0.02 0.07,-0.10 0.12,-0.12 0.00,-0.00 0.02,0.03 0.03,0.03 0.11,-0.02 0.24,-0.14 0.34,-0.18 -0.12,-0.00 -0.24,0.09 -0.37,0.06 -0.16,0.10 -0.33,0.16 -0.5,0.15 0.16,-0.11 0.32,-0.11 0.5,-0.25 -0.37,-0.13 -0.77,0.17 -1.15,0.15 0.27,-0.14 0.56,-0.18 0.84,-0.34 -0.14,-0.03 -0.29,0.09 -0.46,0.12 -0.02,0.00 -0.09,-0.03 -0.12,-0.03 -0.03,0.01 -0.05,0.08 -0.09,0.09 -0.00,0.00 -0.02,-0.03 -0.03,-0.03 -0.04,0.01 -0.07,0.07 -0.12,0.09 -0.00,0.00 -0.02,-0.06 -0.03,-0.06 -0.18,0.05 -0.39,0.35 -0.59,0.18 0.33,-0.24 0.77,-0.19 1.03,-0.43 -0.05,0.05 -0.09,-0.02 -0.15,-0.03 -0.51,-0.04 -1.06,0.35 -1.59,0.53 0.16,0.01 0.33,-0.14 0.5,-0.18 0.02,0.03 -0.06,0.08 -0.03,0.12 -0.14,0.05 -0.31,0.11 -0.46,0.18 -0.04,0.02 -0.08,0.15 -0.15,0.06 0.07,-0.06 0.11,-0.09 0.18,-0.12 -0.00,-0.02 -0.01,-0.05 -0.03,-0.06 -0.04,-0.01 -0.12,0.05 -0.21,0.03 0.06,-0.05 0.11,-0.06 0.18,-0.12 -0.05,-0.00 -0.10,0.00 -0.15,0.03 0.23,-0.10 0.56,-0.25 0.81,-0.31 -0.41,-0.03 -0.85,0.22 -1.28,0.34 0.04,-0.05 0.09,-0.09 0.15,-0.12 -0.05,0.02 -0.12,0.03 -0.18,0.06 -0.08,-0.05 -0.07,-0.03 -0.12,-0.12 0.20,-0.12 0.39,-0.13 0.59,-0.25 -0.12,-0.12 -0.45,0.18 -0.65,0.18 -0.05,-0.04 0.07,-0.11 0.09,-0.15 -0.08,-0.04 -0.18,0.05 -0.28,0.09 l 0,0.03 c -0.04,0.07 -0.10,-0.01 -0.15,0.03 -0.02,-0.03 0.06,-0.08 0.09,-0.12 l 0.06,0.06 c -0.00,-0.14 -0.03,-0.08 -0.15,-0.06 0.02,-0.09 0.24,-0.15 0.34,-0.18 -0.07,-0.08 -0.37,0.12 -0.53,0.15 -0.00,-0.10 0.17,-0.08 0.25,-0.15 0.00,-0.03 -0.02,-0.08 0.03,-0.12 -0.15,-0.02 -0.30,0.05 -0.46,0.09 0.08,-0.17 0.40,-0.03 0.43,-0.28 0.03,0.21 0.16,-0.08 0.12,0.09 0.09,0.04 0.04,-0.09 0.12,-0.06 0.02,0.11 0.12,0.02 0.25,0 0.04,0.03 0.01,0.08 0.06,0.12 0.07,-0.07 0.08,0.02 0.15,-0.12 0.25,0.16 0.52,-0.12 0.78,0.06 0.07,-0.10 0.14,0.03 0.21,-0.09 0.04,0.03 -0.00,0.06 -0.03,0.09 0.13,0.01 0.27,-0.02 0.40,0 0.03,0.00 0.20,0.03 0.21,0.03 0.11,-0.00 0.20,-0.05 0.34,-0.03 0.03,0.00 0.06,0.05 0.09,0.06 0.05,0.00 0.07,0.01 0.15,0.03 0.25,0.06 0.52,0.07 0.78,0.15 0.05,0.05 0.09,-0.06 0.15,-0.06 0.05,0.14 0.15,0.03 0.25,0.03 0.03,-0.00 0.12,0.19 0.18,0.03 0.13,0.21 0.30,-0.02 0.43,0.12 0.08,-0.05 0.16,0.02 0.25,-0.06 0.16,0.13 0.32,0.10 0.5,0.03 0.16,0.11 0.33,0.15 0.5,0.03 0.03,0.04 0.08,0.01 0.12,0.06 0.10,-0.12 0.18,-0.02 0.28,-0.09 0.35,0.17 0.65,-0.22 1,-0.5 0.04,-0.03 0.10,0.00 0.15,-0.03 0.14,-0.08 0.27,-0.27 0.40,-0.37 0.00,-0.00 0.02,0.03 0.03,0.03 0.11,-0.07 0.23,-0.23 0.37,-0.28 z m -7.68,1.46 c 0.19,-0.08 0.46,-0.09 0.65,-0.21 -0.21,-0.02 -0.43,0.10 -0.65,0.21 z m 12,-1.46 c 0.06,0.00 0.09,0.02 0.15,0.09 -0.12,0.00 -0.22,-0.00 -0.34,-0.06 0.06,-0.02 0.12,-0.03 0.18,-0.03 z m -16.68,0.03 c 0.04,0.14 -0.06,0.26 -0.15,0.40 0.03,-0.10 0.05,-0.24 0.15,-0.40 z m -2.46,0.03 c 0.16,0.00 -0.06,0.19 -0.06,0.06 2.3e-4,-0.00 0.05,-0.06 0.06,-0.06 z m 4.71,0 c 0.04,-0.01 0.07,-0.02 0.09,0.03 -0.06,0.02 -0.12,0.08 -0.18,0.06 -0.01,-0.04 0.05,-0.08 0.09,-0.09 z m -4.62,0.03 c 0.03,-0.01 0.07,0.06 0.06,0.09 -0.03,0.06 -0.13,-0.05 -0.06,-0.09 z m 2.43,0 c 0.06,0.01 0.12,-0.02 0.18,0.03 -0.06,0.02 -0.12,0.01 -0.18,-0.03 z m 2.31,0.03 c 0.04,-0.01 0.08,-0.01 0.12,0.03 -0.00,0.00 0.00,0.02 0,0.03 l 0.09,0.09 c -0.07,0.06 -0.14,0.03 -0.21,-0.03 -0.04,0.01 -0.08,0.01 -0.12,-0.03 0.04,-0.02 0.08,-0.07 0.12,-0.09 z m -1.87,0.03 0.03,0.06 c -0.03,0.05 -0.05,0.00 -0.09,-0.03 0.02,-0.01 0.03,-0.01 0.06,-0.03 z m -2.96,0.03 c 0.10,0.07 0.02,0.14 0.06,0.21 0.09,0.01 0.18,-0.00 0.28,-0.03 0.01,-0.02 0.00,-0.02 0,-0.03 -0.02,-0.00 -0.08,-0.03 -0.09,-0.06 0.10,-0.05 0.35,0.06 0.31,0.15 0.07,0.03 0.17,-0.14 0.25,-0.03 -0.01,-8.6e-4 -0.01,0.02 -0.03,0.03 0.02,0.03 0.00,0.08 0.03,0.12 -0.01,0.02 -0.01,0.01 -0.03,0 l -0.06,-0.06 c -0.01,0.08 3.13e-4,0.18 0.06,0.18 0.01,0.06 -0.02,0.05 -0.06,0.03 0.20,0.34 0.65,0.41 0.93,0.37 0.06,-0.07 -0.10,-0.37 -0.21,-0.25 -0.01,-0.15 -0.25,-0.27 -0.40,-0.28 -0.04,0.08 0.09,0.10 0.12,0.15 -0.10,0.03 -0.20,-0.10 -0.31,-0.15 0.08,-0.11 -0.02,-0.25 -0.03,-0.37 0.32,0.31 0.68,0.35 1.03,0.12 0.02,0.11 -0.01,0.22 0.09,0.34 -0.08,0.04 -0.04,-0.09 -0.09,-0.12 -0.02,0.05 -0.07,0.12 -0.12,0.18 0.07,0.09 0.17,0.14 0.25,0.03 0.02,0.03 0.06,0.04 0.09,0.06 0.03,0.03 0.05,0.10 0.09,0.12 0.04,-0.05 0.17,-0.16 0.25,-0.21 -0.01,0.01 5.5e-4,0.03 -0.03,0.06 -0.03,0.09 -0.13,0.11 -0.21,0.15 -0.02,0.01 -0.03,0.05 -0.06,0.06 -0.00,0.05 0.00,0.10 -0.03,0.15 0.10,0.09 0.21,-0.13 0.31,-0.03 0.11,-0.14 0.17,-0.07 0.03,0.03 -0.24,0.11 -0.51,0.27 -0.75,0.21 -0.07,0.10 -0.11,0.01 -0.18,0.12 -0.16,-0.06 -0.30,-0.01 -0.5,-0.06 -0.40,-0.10 -0.93,-0.56 -1.06,-1.12 0.06,-0.04 0.00,-0.08 0.09,-0.12 z m 0.09,0.06 c 0.05,-0.01 0.10,0.03 0.15,0.06 -0.06,0.09 -0.16,0.00 -0.15,-0.06 z m 0.53,0 c 0.02,0.05 -0.03,0.04 -0.06,0.06 -0.02,-0.05 0.03,-0.03 0.06,-0.06 z m 4.59,0 c 0.02,0.01 0.01,0.16 -0.09,0.21 0.03,-0.03 0.16,-0.01 0.12,-0.09 0.05,-0.06 0.10,0.06 0.15,0.03 0.03,0.07 -0.12,0.08 -0.15,0.06 -0.04,0.06 0.08,0.22 -0.06,0.21 -0.03,-0.04 0.08,-0.25 -0.06,-0.15 -0.01,-0.02 -0.01,-0.05 0,-0.06 -0.00,0.00 -0.02,-0.00 -0.03,0 -0.02,-0.03 -0.06,-0.08 -0.09,-0.06 -0.01,-0.11 0.11,-0.09 0.18,-0.09 0.01,-0.03 0.02,-0.06 0.03,-0.06 z m -3.06,0.09 c 0.02,0.01 0.03,0.06 0.06,0.09 -0.05,0.09 -0.10,-0.02 -0.15,-0.06 0.02,-0.02 0.06,-0.04 0.09,-0.03 z m -2.40,0.06 c 0.01,0.04 0.04,0.11 0.06,0.15 -0.09,0.06 -0.13,-0.09 -0.06,-0.15 z m -0.21,0.03 c 0.05,0.06 0.04,0.15 -0.03,0.21 -0.05,-0.06 -0.05,-0.15 0.03,-0.21 z m 0.12,0 c 0.05,0.06 0.05,0.12 -0.03,0.18 -0.07,-0.07 -0.01,-0.12 0.03,-0.18 z m 5.78,0.03 c 0.04,-0.01 0.07,-0.00 0.12,0.06 -0.09,0.01 -0.18,0.15 -0.28,0.03 0.05,-0.02 0.10,-0.08 0.15,-0.09 z m -6.03,0.03 c 0.04,0.09 -0.03,0.21 0.03,0.31 -0.10,0.00 -0.01,-0.17 -0.15,-0.18 2.3e-4,-0.03 0.05,-0.05 0.03,-0.09 0.09,-0.00 0.01,0.11 0.09,-0.03 z m 6.28,0.06 c 0.05,-0.00 0.10,0.03 0.15,0.09 0.01,-0.01 0.03,-0.03 0.03,-0.06 0.07,0.09 0.20,0.00 0.18,0.15 0.06,0.05 0.01,-0.07 0.09,-0.09 0.05,0.09 0.06,0.15 0.12,0.03 0.04,0.03 0.01,0.05 0.06,0.09 -0.12,0.04 -0.27,0.11 -0.40,0.12 0.04,-0.01 0.10,-0.04 0.12,-0.06 -0.08,-0.03 -0.19,0.03 -0.28,0.03 -0.04,-0.06 0.09,-0.03 0.12,-0.06 -0.07,-0.09 -0.16,-6.37e-4 -0.25,0 -0.00,-0.03 -0.01,-0.04 0,-0.06 -0.05,0.01 -0.10,-0.01 -0.15,-0.09 0.05,-0.05 0.13,-0.09 0.18,-0.09 z m -5.81,0.09 0.09,0.12 c -0.03,-0.01 -0.19,0.02 -0.15,-0.06 l 0.06,-0.06 z m -0.37,0.03 c 0.01,0.06 0.02,0.12 0,0.18 -0.01,0.02 -0.09,-0.14 0,-0.18 z m 0.21,0 0.06,0.06 -0.06,0.03 -0.03,-0.03 0.03,-0.06 z m -0.09,0.03 0.03,0.06 -0.06,0.03 -0.03,-0.06 0.06,-0.03 z m 6.71,0 c 0.03,-0.04 0.13,0.06 0.03,0.06 0.01,6e-5 -0.02,-0.06 -0.03,-0.06 z m -6.59,0.09 c 0.09,0.03 -0.03,0.16 -0.06,0.06 l 0.06,-0.06 z m 0.09,0 c 0.02,-0.02 0.10,0.00 0.12,0.06 -0.04,0.03 -0.07,-0.05 -0.12,0 -0.00,-0.02 -0.00,-0.05 0,-0.06 z m 20.12,0.43 c 0.01,-0.01 0.03,-0.00 0.06,0 0.05,0.00 0.09,0.03 0.12,0.06 -0.07,0.05 -0.14,-0.04 -0.21,0 -0.00,-0.01 0.01,-0.05 0.03,-0.06 z m -0.28,0.06 c 0.03,-0.02 0.15,0.04 0.18,0.03 0.02,0.08 -0.13,-0.01 -0.18,0.03 -0.00,-0.02 -0.01,-0.05 0,-0.06 z m -6.53,0.09 0.06,0.06 -0.06,0.03 -0.03,-0.03 0.03,-0.06 z m 6.56,0 c 0.04,-0.04 0.08,0.03 0.12,0.03 -0.04,0.02 -0.10,0.03 -0.12,-0.03 z m 0.40,0.03 c 0.03,-0.01 0.11,0.06 0.15,0.03 0.02,0.12 -0.13,-0.03 -0.18,0.03 -0.00,-0.03 0.01,-0.05 0.03,-0.06 z m 0.62,0.03 c 0.02,0.01 0.06,0.02 0.09,0 0.01,0.03 -0.03,0.01 -0.09,0 z m -0.25,0.03 c 0.12,-0.01 0.28,0.03 0.40,0.06 -0.17,0.03 -0.32,-0.05 -0.5,-0.03 0.02,-0.02 0.05,-0.02 0.09,-0.03 z m -10.93,0.03 c 0.07,-0.01 -0.18,0.17 -0.25,0.06 0.09,-0.02 0.15,-0.03 0.25,-0.06 z m -2.25,0.03 c 0.03,-0.00 0.09,0.01 0.12,0 -0.04,0.02 -0.10,0.08 -0.15,0.09 -0.02,-0.06 -0.00,-0.08 0.03,-0.09 z m 12.40,0 c 0.04,0.03 0.02,0.03 0,0.06 -0.01,-0.02 -0.04,-0.01 -0.06,0 -0.02,-0.03 0.03,-0.03 0.06,-0.06 z m -10.90,0.03 c 0.02,-0.00 0.06,-0.00 0.09,0.03 -0.05,0.03 -0.13,0.09 -0.18,0.03 0.02,-0.03 0.06,-0.05 0.09,-0.06 z m 11.12,0.03 c 0.21,-0.03 0.41,0.04 0.62,0.06 -0.06,0.02 -0.19,0.03 -0.31,0.03 0.39,0.03 0.82,-0.08 1.06,0.43 -0.36,0.17 -0.72,0.12 -1.09,0.21 0.28,0.09 0.79,-0.14 1.15,-0.06 -0.21,0.04 -0.43,0.11 -0.65,0.15 0.07,-0.00 0.14,0.01 0.21,0 0.08,-0.01 0.18,-0.05 0.28,-0.06 0.09,-0.00 0.19,0.03 0.28,0.12 -0.41,0.15 -0.84,0.15 -1.25,0.25 0.02,0.07 0.24,0.01 0.34,0 -0.04,0.10 -0.25,0.05 -0.37,0.12 -0.09,-0.10 -0.10,-0.20 -0.09,-0.31 0.18,-0.06 0.38,-0.10 0.59,-0.12 -0.21,0.03 -0.43,0.04 -0.65,0.03 0.06,-0.16 -0.19,-0.29 -0.03,-0.40 -0.05,0.02 -0.19,-0.04 -0.06,-0.12 -0.03,-0.01 -0.05,-0.03 -0.09,0 -0.05,-0.04 0.07,-0.08 0.09,-0.12 -0.06,-0.12 -0.15,0.07 -0.21,-0.03 0.07,-0.08 0.17,-0.05 0.25,-0.12 -0.03,-0.00 -0.06,-0.02 -0.09,-0.03 -0.06,0.05 -0.12,0.10 -0.18,0.03 0.07,-0.04 0.14,-0.05 0.21,-0.06 z m 0.78,0 c 0.02,-0.00 0.07,0.01 0.12,0.03 -0.04,-0.01 -0.08,-0.01 -0.12,0 -0.01,-0.02 -0.01,-0.02 0,-0.03 z m -12.68,0.03 c 0.08,0.05 -0.02,0.10 0.06,0.15 -0.05,0.03 -0.19,-0.12 -0.06,-0.15 z m 0.09,0 c 0.02,-0.01 0.07,0.01 0.09,0.09 -0.10,-0.02 -0.11,-0.08 -0.09,-0.09 z m 2.28,0 c 0.05,0.03 0.04,0.08 0,0.12 l -0.06,-0.06 0.06,-0.06 z m -1,0.06 c 0.03,-0.01 0.05,0.00 0.03,0.06 l -0.03,0.03 c -0.06,-0.04 -0.03,-0.08 0,-0.09 z m -1.53,0.03 c 0.03,-0.00 0.08,0.06 0.12,0.09 -0.05,0.04 -0.10,-0.00 -0.15,-0.06 0.01,-0.02 0.01,-0.03 0.03,-0.03 z m 1.40,0 0.06,0.06 c -0.03,0.06 -0.05,-8.2e-4 -0.09,0.03 -0.02,-0.03 0.00,-0.06 0.03,-0.09 z m 0.5,0 0.06,0.06 c -0.02,0.03 -0.06,0.05 -0.09,0.03 -0.03,0.06 -0.08,-7.6e-4 -0.12,0.03 -0.01,-0.01 -0.00,-0.05 0,-0.06 0.02,-0.03 0.10,-0.01 0.12,0.03 -0.01,-0.01 -0.01,-0.04 -0.03,-0.06 0.02,-0.01 0.03,-0.00 0.06,-0.03 z m -2.03,0.03 0.12,0.09 c -0.03,0.00 -0.08,0.05 -0.12,0.09 0.00,-0.08 -0.03,-0.03 -0.09,-0.12 0.03,-0.04 0.05,-0.01 0.09,-0.06 z m 1.06,0 c 0.02,0.05 -0.03,0.04 -0.06,0.06 -0.02,-0.05 0.03,-0.04 0.06,-0.06 z m 1.81,0 c 0.05,0.03 0.07,0.05 0.03,0.09 l -0.09,-0.06 0,0.03 -0.06,0.09 -0.06,-0.09 c 0.03,-0.04 0.06,-0.00 0.09,-0.03 l 0.03,0 0.06,-0.03 z m -0.53,0.03 c 0.03,-0.02 0.08,0.02 0.12,0 0.04,0.06 -0.10,0.06 -0.12,0 z m -0.56,0.03 c 0.04,-0.00 0.07,0.03 0.06,0.09 -0.03,0.02 -0.05,-0.02 -0.09,0 -0.03,-0.05 -0.00,-0.08 0.03,-0.09 z m 0.46,0 c 0.05,0.03 0.00,0.05 -0.03,0.09 -0.01,-0.02 -0.00,-0.03 -0.03,-0.06 l 0.06,-0.03 z m -6.34,0.03 0.03,0.06 -0.03,0.03 -0.06,-0.03 0.06,-0.06 z m 5.75,0 c 0.05,-0.00 0.08,0.10 0,0.15 l -0.06,-0.09 c 0.01,-0.02 0.04,-0.06 0.06,-0.06 z m 0.96,0 c 0.05,0.03 0.04,0.08 0,0.12 l -0.06,-0.09 0.06,-0.03 z m -9.78,0.03 c 0.09,0.03 -0.06,0.16 -0.09,0.06 l 0.09,-0.06 z m 9.68,0 c 0.06,0.05 0.03,0.10 -0.03,0.15 -0.09,-0.12 -0.04,0.00 -0.12,0.06 l -0.09,-0.09 c 0.08,-0.03 0.16,-0.08 0.25,-0.12 z m -1.03,0.03 c 0.04,0.03 0.03,0.06 0.06,0.09 -0.05,0.06 -0.10,0.03 -0.15,-0.03 0.03,-0.05 0.05,-0.04 0.09,-0.06 z m 1.40,0 c 0.02,-0.01 0.03,0.02 0.06,0 l 0.06,0.03 c -0.03,0.05 -0.08,0.00 -0.12,-0.03 z m -10,0.03 c 0.06,0.07 -0.01,0.12 -0.06,0.18 -0.06,-0.07 0.01,-0.12 0.06,-0.18 z m 8.96,0 c 0.09,0.03 -0.03,0.16 -0.06,0.06 l 0.06,-0.06 z m 0.96,0 c 0.05,0.03 0.07,0.08 0.03,0.12 l -0.09,-0.09 0.06,-0.03 z m -1.53,0.03 c 0.03,-0.00 0.08,0.06 0.12,0.09 -0.05,0.04 -0.10,-0.00 -0.15,-0.06 0.01,-0.02 0.01,-0.03 0.03,-0.03 z m -8.31,0.03 c 0.03,0.02 0.06,0.04 0.06,0.06 0.01,-0.01 0.05,-0.01 0.06,-0.03 0.03,0.04 0.04,0.10 0.03,0.15 0.02,-0.02 0.04,-0.04 0.06,-0.06 l 0.06,0.09 c 0.02,-0.02 0.07,-0.03 0.09,-0.06 0.07,0.16 -0.16,0.33 -0.25,0.5 -0.06,-0.08 -0.03,-0.16 0.03,-0.25 -0.02,0.04 -0.07,0.04 -0.12,0.09 -0.02,-0.06 -0.00,-0.12 0.03,-0.18 -0.01,0.02 -0.05,0.03 -0.06,0.06 -0.02,-0.04 -0.04,-0.08 -0.03,-0.12 -0.13,8.11e-4 -0.02,-0.18 0.03,-0.25 z m 9.21,0 c 0.05,0.03 0.04,0.08 0,0.12 l -0.06,-0.03 -0.06,0.06 c -0.05,-0.04 -0.05,-0.08 0,-0.12 l 0.06,0.03 0.06,-0.06 z m 0.37,0.03 0.06,0.09 -0.06,0.06 -0.06,-0.09 0.06,-0.06 z m -6.62,0.06 0.06,0.03 -0.06,0.06 -0.03,-0.06 0.03,-0.03 z m 5.90,0 c 0.05,-0.04 0.10,0.00 0.15,0.06 -0.09,0.09 -0.11,0.00 -0.15,-0.06 z m 0.53,0 c 0.03,0.00 0.08,0.02 0.12,0.06 -0.05,0.06 -0.10,0.06 -0.15,0 0.00,-0.02 -0.00,-0.03 0.03,-0.06 z m -0.56,0.03 c 0.02,0.00 0.04,0.03 0.06,0.06 -0.04,0.08 -0.08,0.00 -0.12,-0.03 0.02,-0.01 0.04,-0.04 0.06,-0.03 z m -6.12,0.03 c 0.02,0.03 -0.03,0.06 -0.06,0.09 l -0.06,-0.06 c 0.03,-0.02 0.08,-0.00 0.12,-0.03 z m 6.59,0 0.03,0.06 -0.03,0.03 -0.03,-0.03 0.03,-0.06 z m -0.84,0.06 c 0.04,-0.03 0.08,0.00 0.12,0.06 -0.04,0.03 -0.08,-0.00 -0.12,-0.06 z m 0.59,0 c 0.05,0.03 0.07,0.08 0.03,0.12 l -0.06,-0.06 0.03,-0.06 z m -0.75,0.03 c 0.05,0.03 0.07,0.08 0.03,0.12 l -0.06,-0.06 0.03,-0.06 z m -7.87,0.06 c 0.02,0.02 0.03,0.07 0.06,0.09 0.03,0.02 0.08,0.00 0.12,0 -0.01,0.08 -0.03,0.16 -0.09,0.25 0.07,-0.07 0.15,-0.12 0.18,-0.15 0.10,0.16 -0.27,0.41 -0.34,0.62 -0.10,-0.05 -0.06,-0.15 -0.03,-0.21 -0.01,0.02 -0.05,0.03 -0.06,0.06 -0.07,-0.08 -0.05,-0.16 0,-0.25 -0.02,0.03 -0.05,0.06 -0.09,0.09 -0.09,-0.17 0.14,-0.33 0.25,-0.5 z m 0.06,0.09 c -0.13,0.02 -0.13,0.17 -0.18,0.28 0.07,-0.09 0.16,-0.18 0.18,-0.28 z m 2.96,0.15 0.06,0.06 -0.06,0.03 -0.03,-0.03 0.03,-0.06 z m 6.31,0 0.03,0.06 -0.06,0.06 -0.06,-0.06 c 0.03,-0.04 0.06,-0.03 0.09,-0.06 z m 10.93,0 c 0.05,0.03 0.03,0.09 0.03,0.12 -0.06,-0.06 -0.11,-0.03 -0.18,-0.03 -0.02,-0.09 0.10,-0.06 0.15,-0.09 z m -19.84,0.03 c -0.05,0.13 -0.13,0.27 -0.21,0.40 0.08,-0.13 0.20,-0.26 0.28,-0.34 0.13,0.08 -0.05,0.16 -0.06,0.25 0.11,0.01 0.17,-0.27 0.31,-0.09 -0.04,0.05 -0.08,0.10 -0.12,0.15 0.03,-0.04 0.08,-0.07 0.12,-0.09 0.02,-0.01 0.06,-0.00 0.09,0 0.04,0.12 -0.11,0.21 -0.18,0.31 -0.13,0.17 -0.24,0.36 -0.37,0.53 -0.08,-0.13 0.13,-0.45 0.25,-0.59 0.03,-0.04 0.05,-0.10 0.09,-0.15 -0.16,0.19 -0.30,0.38 -0.43,0.59 -0.17,-0.20 0.18,-0.39 0.28,-0.59 -0.19,0.00 -0.22,0.29 -0.37,0.43 -0.01,-0.12 0.03,-0.26 0.12,-0.40 -0.06,0.10 -0.14,0.20 -0.18,0.31 -0.13,-0.22 0.23,-0.64 0.40,-0.71 z m 5.40,0.12 c 0.17,-0.00 0.37,0.09 0.53,0.31 6.5e-4,0.02 -0.02,0.07 -0.03,0.09 -0.16,-0.19 -0.43,-0.37 -0.65,-0.34 0.04,-0.03 0.09,-0.05 0.15,-0.06 z m 14.25,0 c 0.02,0.08 -0.34,0.11 -0.46,0.18 0.06,-0.12 0.33,-0.13 0.46,-0.18 z m 0.21,0.06 c -0.08,0.08 -0.61,0.20 -0.62,0.18 0.20,-0.10 0.42,-0.13 0.62,-0.18 z m -11.40,0.06 c 0.04,0.03 0.00,0.06 0.03,0.09 -0.02,0.01 -0.03,0.00 -0.06,0.03 l -0.06,-0.06 0.09,-0.06 z m 10.46,0 c -0.01,0.09 -0.19,0.07 -0.28,0.15 0.12,0.05 0.24,-0.04 0.37,-0.06 -0.02,0.11 -0.24,0.11 -0.34,0.21 0.14,0.02 0.29,-0.07 0.43,-0.12 -0.05,0.07 -0.42,0.28 -0.56,0.18 -0.05,0.08 0.03,0.07 0.09,0.12 -0.12,-0.02 -0.14,0.09 -0.18,0.18 -0.01,-0.11 0.06,-0.22 0,-0.34 0.03,-0.02 0.05,-0.00 0.09,-0.03 0.03,-0.06 0.02,-0.11 -0.06,-0.18 0.14,-0.06 0.29,-0.06 0.43,-0.12 z m 1,0.06 0.06,0.06 c -0.06,0.10 -0.12,0.01 -0.18,0.09 0.00,-0.07 0.07,-0.05 0.12,-0.15 z m -19.40,0.03 0.06,0.09 c -0.21,0.24 -0.48,0.58 -0.65,0.75 -0.12,-0.11 0.11,-0.24 0.18,-0.34 0.09,-0.12 0.24,-0.33 0.40,-0.5 z m 2.18,0 c 0.03,0.05 -0.09,0.09 -0.12,0.03 0.04,-0.01 0.07,-0.01 0.12,-0.03 z m -2.06,0.09 c 0.05,0.09 0.09,0.07 0.15,0.15 -0.27,0.23 -0.35,0.58 -0.65,0.75 -0.00,-0.05 0.01,-0.14 0.06,-0.21 -0.05,0.06 -0.12,0.11 -0.18,0.15 -0.07,-0.09 0.08,-0.13 0.12,-0.18 0.11,-0.15 0.30,-0.45 0.5,-0.65 z m -0.43,0.68 c 0.13,-0.18 0.42,-0.37 0.5,-0.56 -0.18,0.08 -0.32,0.36 -0.5,0.56 z m 6.59,-0.68 c 0.02,-0.00 0.04,-0.00 0.06,0.03 -0.04,-0.00 -0.08,0.07 -0.12,0 0.02,0.00 0.03,-0.02 0.06,-0.03 z m -3.71,0.12 c 0.10,0.00 -0.11,0.12 -0.15,0.12 -0.03,-0.09 0.11,-0.05 0.15,-0.12 z m 16.31,0.03 c 0.00,-0.00 0.01,0.00 0.03,0 0.03,-0.00 0.07,0.00 0.09,0 0.03,0.04 -0.09,0.03 -0.12,0.06 -0.00,-0.02 -0.00,-0.05 0,-0.06 z m -16.09,0.03 c 0.03,0.14 0.00,0.28 0.15,0.37 -0.17,0.03 -0.03,0.11 -0.03,0.15 -0.06,0.06 -0.12,0.02 -0.12,-0.03 -0.06,0.05 -0.12,0.09 -0.03,0.15 -0.11,-0.01 -0.23,0.06 -0.34,-0.03 0.09,-0.06 0.13,-0.12 0.18,-0.18 -0.00,0.01 0.01,0.04 0,0.06 0.00,-0.02 0.03,-0.05 0.06,-0.06 0.01,0.03 0.01,0.08 -0.03,0.12 0.23,-0.08 8.4e-4,-0.26 0.06,-0.34 -0.20,0.06 -0.20,0.33 -0.40,0.46 0.06,-0.14 0.18,-0.37 0.31,-0.53 -0.03,0.03 -0.09,0.05 -0.12,0.09 0.01,-0.07 0.08,-0.14 0.15,-0.21 0.01,0.01 0.00,0.04 0,0.06 0.05,-0.05 0.10,-0.07 0.15,-0.09 z m 2.71,0 c 0.02,-0.00 0.03,-0.00 0.06,0.03 -0.05,0.03 -0.10,0.09 -0.15,0.03 0.02,-0.01 0.06,-0.05 0.09,-0.06 z m -5.12,0.03 c 0.05,0.06 -0.04,0.15 -0.09,0.21 -0.09,0.12 -0.39,0.47 -0.59,0.56 -0.00,-0.11 0.11,-0.15 0.18,-0.25 0.17,-0.21 0.33,-0.49 0.5,-0.53 z m 18.18,0 c -0.08,0.09 -0.37,0.21 -0.53,0.18 0.17,-0.08 0.35,-0.12 0.53,-0.18 z m -9.18,0.03 0.03,0.06 -0.03,0.03 -0.03,-0.06 0.03,-0.03 z m -8.87,0.03 c 0.02,0.03 0.03,0.04 0.06,0.03 -3.6e-5,0.04 -0.00,0.08 -0.03,0.12 0.03,-0.02 0.07,-0.03 0.09,-0.06 0.06,0.02 0.12,0.08 0.18,0.12 -0.11,0.14 -0.28,0.29 -0.37,0.43 0.18,-0.04 0.23,-0.28 0.43,-0.40 0.02,0.13 -0.09,0.24 -0.18,0.37 0.12,-0.13 0.26,-0.26 0.37,-0.40 0.05,0.12 -0.18,0.22 -0.21,0.34 0.15,-0.01 0.20,-0.22 0.37,-0.31 0.01,0.11 -0.17,0.20 -0.21,0.31 0.14,-0.01 0.17,-0.21 0.34,-0.31 -0.02,0.13 -0.23,0.27 -0.25,0.40 -0.13,-0.06 -0.27,0.04 -0.40,-0.03 -0.01,0.02 -0.05,0.03 -0.06,0.06 -0.14,0.00 -0.29,0.04 -0.43,0.09 0.14,-0.20 0.36,-0.38 0.53,-0.59 -0.29,0.15 -0.43,0.48 -0.71,0.65 0.05,-0.20 0.24,-0.39 0.43,-0.59 -0.06,0.06 -0.16,0.09 -0.21,0.15 -0.13,0.14 -0.20,0.34 -0.37,0.40 -0.06,-0.14 0.15,-0.22 0.25,-0.34 l 0,-0.03 c 0.14,-0.17 0.28,-0.36 0.40,-0.43 z m 1.31,0 c -0.13,0.09 -0.48,0.15 -0.68,0.06 0.22,-0.07 0.45,-0.01 0.68,-0.06 z m 0.65,0 c 0.03,0.03 -0.08,0.22 -0.12,0.28 -0.10,0.13 -0.23,0.30 -0.40,0.28 0.03,-0.15 0.25,-0.39 0.34,-0.46 -0.02,0.13 -0.18,0.24 -0.25,0.37 0.17,-0.06 0.23,-0.32 0.43,-0.46 z m 3.09,0 c 0.02,-0.00 0.06,0.01 0.09,0 0.01,0.03 -0.02,0.07 -0.06,0.09 l 0.03,0 c 0.08,0.04 0.00,0.08 -0.03,0.12 0.08,-0.00 0.16,0.01 0.25,-0.03 0.02,0.02 0.03,0.05 0.03,0.06 0.03,-0.00 0.07,7.42e-4 0.09,0.03 -0.07,0.06 -0.11,0.01 -0.18,0.06 -0.00,-0.04 0.01,-0.07 0.06,-0.09 -0.03,-0.00 -0.10,-0.02 -0.12,0.03 -0.01,0.03 -0.03,0.08 0,0.12 0.08,0.07 0.19,-0.01 0.28,0 -0.01,0.04 -0.03,0.08 -0.06,0.09 0.04,-0.00 0.11,-0.01 0.15,0.03 -0.03,0.04 -0.06,0.07 -0.09,0.09 0.15,-0.01 0.34,-0.06 0.5,-0.03 -0.07,0.09 -0.35,0.10 -0.5,0.03 -0.01,0.00 -0.04,-0.02 -0.06,0 0.08,0.06 0.16,0.09 0.25,0.12 -0.02,0.03 -0.14,-0.03 -0.25,-0.12 -0.04,-0.03 -0.09,-0.05 -0.12,-0.09 0.03,0.00 0.05,-0.02 0.09,-0.03 -0.05,0.01 -0.11,-0.04 -0.18,-0.09 -0.07,-0.05 -0.16,-0.10 -0.21,-0.18 l 0.09,-0.12 c -0.03,0.01 -0.07,0.00 -0.09,-0.03 0.02,-0.02 0.03,-0.05 0.06,-0.06 z m 5.5,0 c 0.04,-0.06 0.08,0.03 0.12,0 0.04,0.06 -0.10,0.06 -0.12,0 z m -0.53,0.06 c 0.01,0.00 0.04,0.01 0.06,0 0.04,0.06 -0.10,0.09 -0.12,0.03 0.02,-0.03 0.04,-0.03 0.06,-0.03 z m 0.37,0 c 0.03,-0.00 0.08,0.07 0.12,0 0.09,0.08 -0.05,0.00 -0.09,0.09 l -0.03,0 -0.06,0.06 -0.06,-0.06 0.06,-0.06 0.03,0 c 0.01,-0.02 0.01,-0.03 0.03,-0.03 z m -8.78,0.06 c -0.10,0.36 -0.53,0.56 -0.81,0.43 0.02,-0.02 0.03,-0.08 0.06,-0.12 -0.05,0.07 -0.14,0.13 -0.18,0.15 0.03,-0.12 0.15,-0.25 0.25,-0.37 0.00,0.03 0.01,0.08 0,0.12 0.06,-0.09 0.16,-0.12 0.25,-0.06 -0.06,0.05 -0.12,0.09 -0.12,0.15 0.10,0.00 0.12,-0.17 0.21,-0.25 0.09,0.09 -0.11,0.15 -0.09,0.25 0.09,0.00 0.13,-0.17 0.25,-0.25 0.01,0.02 0.00,0.04 0,0.06 0.04,-0.06 0.10,-0.12 0.18,-0.12 z m 9.09,0 c 0.01,-0.01 0.03,-0.00 0.03,0.06 -0.07,0.00 -0.05,-0.04 -0.03,-0.06 z m -0.93,0.03 c 0.00,0.05 0.00,0.10 0,0.15 0.15,-0.02 0.28,-0.11 0.43,-0.15 0.05,0.06 -0.18,0.11 -0.12,0.18 0.15,-0.02 0.34,-0.18 0.5,-0.09 l -0.09,0.09 c 0.07,0.06 0.14,0.04 0.21,0 0.05,-0.03 0.10,-0.08 0.15,-0.09 0.03,0.07 -0.11,0.11 -0.15,0.09 -0.02,0.02 0.00,0.06 0.03,0.09 0.09,-0.05 0.21,-0.01 0.31,-0.12 0.09,0.05 -0.05,0.10 -0.09,0.15 0.07,-0.00 0.17,0.01 0.25,-0.06 0.03,0.05 -0.11,0.10 -0.09,0.15 0.08,-0.02 0.16,0.00 0.25,-0.09 0.09,0.06 0.07,0.12 0.09,0.18 0.08,-0.06 0.30,-0.10 0.25,-0.18 -0.03,0.05 -0.13,0.08 -0.15,0.06 -0.10,-0.09 0.08,-0.11 0.12,-0.15 0.03,0.01 0.05,0.06 0.03,0.09 0.06,0.00 0.14,0.05 0.21,-0.03 7.61e-4,0.13 -0.20,0.13 -0.28,0.25 0.12,-0.05 0.25,-0.09 0.37,-0.12 0.11,0.13 0.19,0.14 0.21,0.28 -0.09,0.00 -0.19,0.07 -0.28,0.09 -0.03,0.07 0.15,0.05 0.03,0.15 0.04,0.02 0.10,0.00 0.15,-0.03 -0.00,0.00 -0.03,0.03 -0.03,0.06 0.05,-0.01 0.15,0.01 0.03,0.09 0.19,0.06 0.26,0.11 0.43,0.21 -0.07,0.03 -0.14,-0.06 -0.21,0 -0.07,-0.07 -0.10,-0.13 -0.21,-0.15 -0.44,-0.09 -1.00,-0.36 -1.46,-0.46 -0.10,0.01 -0.20,0.00 -0.31,-0.03 -0.03,0.04 -0.02,0.10 0.03,0.15 0.05,0.01 0.13,-0.03 0.18,-0.06 0.09,0.09 -0.05,0.03 -0.09,0.06 0.09,0.09 0.18,7.5e-4 0.28,0.15 -0.49,-7.2e-4 -0.97,-0.21 -1.46,-0.21 -0.02,-0.02 0.01,-0.04 0.03,-0.06 -0.31,-0.09 -0.64,-0.19 -0.96,-0.15 -0.00,0.03 0.02,0.05 -0.03,0.09 -0.03,-0.06 -0.05,-5.2e-4 -0.09,0.03 -0.09,-0.04 0.03,-0.07 -0.06,-0.12 -0.08,-0.04 -0.07,0.09 -0.12,0.12 l -0.12,-0.12 c -0.39,0.00 -0.78,-0.01 -1.18,0.03 -0.06,-0.11 -0.16,-0.02 -0.15,-0.15 -0.04,0.27 -0.41,0.17 -0.59,0.15 0.08,-0.04 -0.02,-0.10 0.06,-0.15 -0.00,0.00 -0.02,-0.00 -0.03,0 -0.02,-0.05 0.03,-0.07 0.06,-0.09 0.01,0.04 -6e-4,0.08 -0.03,0.09 0.18,0.01 0.32,0.01 0.43,-0.09 0.09,0.11 0.05,0.02 0.15,0 0.04,0.03 0.00,0.06 0.03,0.09 0.08,0.04 -0.01,-0.12 0.09,-0.15 0.01,0.02 0.04,0.01 0.06,0.03 l 0.06,-0.03 0.03,0.03 -0.03,0.06 c 0.13,0.05 0.32,-0.08 0.46,0.03 0.04,-0.19 0.13,-0.00 0.18,-0.03 0.04,-0.01 0.04,-0.13 0.15,-0.03 0.00,-0.03 -0.02,-0.05 0.03,-0.09 0.07,0.11 0.14,0.07 0.21,0 -0.16,0.01 -0.01,-0.05 0.06,-0.06 0.01,0.02 -0.03,0.03 -0.06,0.06 -0.00,0.00 0.00,0.02 0,0.03 0.15,0.14 0.34,-0.07 0.5,0 0.11,-0.09 0.09,-0.20 0.21,-0.18 0.02,0.03 -0.03,0.06 -0.06,0.09 0.06,0.03 0.15,-0.03 0.21,-0.03 0.04,0.08 -0.09,0.04 -0.12,0.12 0.09,-0.02 0.17,0.02 0.21,-0.09 0.01,0.03 -0.02,0.03 0,0.06 0.12,-0.00 0.12,-0.15 0.25,-0.12 0.02,0.04 -0.03,0.01 -0.06,0.06 0.22,0.00 0.42,-0.07 0.65,-0.12 z m 7.93,0 c 0.03,0.10 -0.14,0.08 -0.18,0.15 -0.11,-0.16 0.11,-0.09 0.18,-0.15 z m -6.40,0.03 c 0.05,0.03 0.07,0.05 0.03,0.09 l -0.06,-0.06 0.03,-0.03 z m -3.65,0.06 c 0.03,0.00 0.08,0.01 0.12,0 0.01,0.07 -0.15,0.09 -0.21,0.03 0.03,-0.02 0.05,-0.03 0.09,-0.03 z m -5.75,0.03 c -0.02,0.10 -0.11,0.21 -0.18,0.31 -0.02,-0.10 0.08,-0.21 0.18,-0.31 z m 4.12,0 0.06,0.06 c -0.03,0.04 -0.06,0.00 -0.09,0.03 l -0.03,-0.03 c 0.03,-0.04 0.03,-0.03 0.06,-0.06 z m 1.34,0 c 0.05,-0.01 0.09,-0.01 0.12,0.03 -0.08,0.06 -0.16,-0.01 -0.25,0.06 -0.00,-0.04 0.07,-0.07 0.12,-0.09 z m 10.34,0 c 0.00,0.07 -0.18,0.21 -0.25,0.15 0.08,-0.11 0.16,-0.09 0.25,-0.15 z m -10.56,0.03 c 0.09,0.03 -0.03,0.16 -0.06,0.06 l 0.06,-0.06 z m 11.68,0 c 0.03,0.08 -0.11,0.11 -0.15,0.15 -0.03,-0.08 0.11,-0.11 0.15,-0.15 z m -13.03,0.03 c 0.03,-0.00 0.06,-0.03 0.12,0 -0.06,0.07 -0.12,-0.01 -0.18,0.09 l -0.06,-0.03 c -0.03,0.04 -0.06,0.03 -0.09,0.06 l -0.06,-0.06 c 0.03,-0.04 0.06,-0.00 0.09,-0.03 l 0.06,0.03 0,-0.03 c 0.06,-0.01 0.09,-0.02 0.12,-0.03 z m 1.18,0 0.06,0.06 -0.06,0.03 -0.03,-0.03 0.03,-0.06 z m -0.71,0.09 c 0.04,0.06 -0.10,0.09 -0.12,0.03 0.03,-0.02 0.08,-0.00 0.12,-0.03 z m 11.40,0.12 c -0.01,0.03 -0.20,0.28 -0.28,0.12 0.09,-0.01 0.18,-0.10 0.28,-0.12 z m 1.25,0.09 c 0.12,0.14 -0.07,0.18 -0.15,0.25 -0.19,0.15 -0.56,0.26 -0.75,0.34 0.20,-0.20 0.59,-0.25 0.87,-0.5 -0.06,-0.10 -0.12,0.07 -0.18,-0.03 0.07,-0.00 0.14,-0.07 0.21,-0.06 z m -1.28,0.09 c -0.00,0.07 -0.20,0.19 -0.28,0.12 0.09,-0.13 0.18,-0.05 0.28,-0.12 z m -11.84,0.03 c 0.06,0.02 0.02,0.11 -0.09,0.03 0.04,-0.01 0.07,-0.03 0.09,-0.03 z m 12.59,0 c -0.05,0.16 -0.30,0.16 -0.43,0.28 0.05,-0.13 0.30,-0.18 0.43,-0.28 z m 0.5,0.12 c 0.00,0.02 0.00,0.05 0,0.06 0.08,0.32 -0.17,0.38 -0.5,0.56 -0.34,0.18 -0.77,0.43 -1.06,0.5 0.36,-0.28 0.84,-0.41 1.31,-0.68 -0.10,-0.06 -0.18,0.05 -0.28,0.09 -0.08,0.03 -0.22,0.05 -0.31,0.09 -0.20,0.08 -0.39,0.27 -0.59,0.21 0.45,-0.17 0.89,-0.37 1.34,-0.62 -0.13,-0.01 -0.26,0.03 -0.40,0.12 0.05,-0.12 0.20,-0.16 0.34,-0.21 -0.09,-0.08 0.11,-0.06 0.15,-0.12 z m -0.15,0.12 c 0.05,-0.01 0.11,-0.02 0.15,-0.06 -0.02,0.02 -0.12,-0.01 -0.15,0.06 z m -1.28,-0.09 c 0.02,0.03 -0.14,0.16 -0.18,0.09 0.06,-0.07 0.12,-0.06 0.18,-0.09 z m -16.96,0.03 c 0.23,-0.00 0.45,-0.02 0.68,0.03 -0.47,0.05 -0.93,0.06 -1.40,0.03 0.23,-0.02 0.48,-0.05 0.71,-0.06 z m 0.71,0.03 c 0.02,-0.02 0.00,-8.16e-4 0.03,0 0.03,0.00 0.02,0.02 0.03,0.03 -0.04,0.01 -0.10,0.02 -0.06,-0.03 z m 9.78,0 c 0.02,0.05 -0.03,0.04 -0.06,0.06 -0.02,-0.05 0.03,-0.04 0.06,-0.06 z m 1.21,0 c 0.02,-0.00 0.03,0.00 0.06,0.03 -0.03,0.03 -0.06,0.03 -0.09,0.03 0.01,-0.01 0.01,-0.05 0.03,-0.06 z m -12.28,0.09 c 0.05,-0.01 0.10,-0.03 0.15,0.03 -0.05,0.01 -0.10,0.03 -0.15,-0.03 z m 0.15,0 c 0.12,0.00 0.28,-0.06 0.40,0.06 -0.12,0.01 -0.28,0.03 -0.40,-0.06 z m 0.5,0 c 0.37,-0.01 0.75,0.00 1.12,0.09 0.02,0.04 -0.06,0.01 -0.09,0.06 -0.34,-0.10 -0.68,0.01 -1.03,-0.15 z m 10.31,0 c 0.03,-0.00 0.08,-0.00 0.09,0.03 -0.03,0.02 -0.08,0.00 -0.12,0.03 -0.02,-0.03 3.35e-4,-0.05 0.03,-0.06 z m 0.15,0.03 c 0.02,0.00 0.03,0.01 0.06,0 0.02,0.03 -0.03,0.08 -0.06,0.12 l -0.06,-0.06 c 0.02,-0.04 0.04,-0.06 0.06,-0.06 z m 1.5,0.03 c 0.09,0.07 -0.12,0.17 -0.15,0.09 0.04,-0.08 0.10,-0.03 0.15,-0.09 z m -10.46,0.03 c 0.04,-0.01 0.13,0.07 0.18,0.03 0.00,0.11 -0.15,0.01 -0.21,0.03 -0.00,-0.03 0.01,-0.05 0.03,-0.06 z m -0.75,0.09 c 0.03,-0.02 0.12,0.01 0.15,0 0.02,0.11 -0.13,0.04 -0.18,0.06 -0.00,-0.03 0.01,-0.05 0.03,-0.06 z m 0.31,0 c 0.08,-0.02 0.19,0.02 0.28,0.03 0.17,0.01 0.42,0.05 0.62,0.12 -0.12,0.03 -0.29,0.02 -0.46,0 0.16,0.00 0.32,0.09 0.5,0.06 0.02,0.02 -0.01,0.04 -0.03,0.06 0.17,0.01 0.35,-0.00 0.53,0.09 -0.12,9.8e-4 -0.25,0.06 -0.37,0.09 0.21,-0.03 0.44,-0.03 0.65,0.03 -0.27,0.01 -0.54,0.12 -0.81,0 -0.06,-1.37e-4 -0.11,-0.02 -0.18,-0.06 0.03,-0.03 0.05,-0.05 0.09,-0.06 -0.06,0.00 -0.11,0.00 -0.18,0 0.00,-0.02 0.01,-0.05 0.03,-0.06 -0.13,0.00 -0.27,-0.01 -0.40,-0.12 0.05,-0.02 0.13,-0.03 0.18,-0.03 -0.17,-0.02 -0.34,-0.06 -0.5,-0.09 0.01,-0.03 0.03,-0.05 0.06,-0.06 z m 10,0.03 c 0.01,0.03 -0.02,0.06 0,0.09 -0.07,0.05 -0.07,-0.07 0,-0.09 z m 0.06,0.03 c 0.06,0.06 -0.00,0.12 -0.06,0.12 -0.01,-0.04 0.02,-0.08 0.06,-0.12 z m 6,0 c -0.10,0.17 -0.41,0.19 -0.59,0.28 0.10,-0.14 0.41,-0.23 0.59,-0.28 z m -15.09,0.03 c 0.16,-0.03 0.33,0.08 0.5,0.15 -0.16,0.00 -0.33,-0.09 -0.5,-0.15 z m 9.21,0.03 c 0.02,0.01 0.03,0.04 0.03,0.06 l 0.06,-0.03 0.06,0.06 c -0.05,0.06 -0.10,0.09 -0.15,0.03 l 0,-0.03 c -0.03,0.02 -0.07,0.03 -0.09,0.03 -0.01,-0.06 0.02,-0.12 0.09,-0.12 z m 6.93,0 c 0.07,0.32 -0.45,0.41 -0.65,0.59 0.14,-0.01 0.29,-0.15 0.43,-0.15 -0.12,0.22 -0.15,0.57 -0.43,0.71 -0.03,-0.04 0.00,-0.11 0.06,-0.15 -0.42,0.07 -0.84,0.21 -1.28,0.31 -0.12,0.02 -0.27,0.11 -0.40,0.03 6.41e-4,-0.06 0.06,-0.14 0.12,-0.06 0.53,-0.22 1.05,-0.22 1.59,-0.46 -0.10,-0.07 -0.23,0.03 -0.34,0.06 -0.29,0.07 -0.66,0.18 -1,0.18 0.17,-0.17 0.47,-0.15 0.71,-0.21 0.24,-0.05 0.48,-0.15 0.71,-0.21 -0.19,-0.04 -0.45,0.06 -0.71,0.12 -0.24,0.05 -0.52,0.19 -0.75,0.09 0.38,-0.18 0.89,-0.18 1.28,-0.37 0.01,-0.00 0.02,-0.06 0.06,-0.09 0.08,-0.05 0.44,-0.15 0.37,-0.21 -0.01,-0.09 0.16,-0.06 0.21,-0.15 z m -17.09,0.03 c 0.07,-0.02 0.14,0.00 0.21,0.09 -0.07,0.02 -0.14,-0.00 -0.21,-0.09 z m 16.25,0 c -0.03,0.04 -0.54,0.34 -0.75,0.28 0.24,-0.14 0.50,-0.19 0.75,-0.28 z m -0.87,0.03 c 0.03,-0.00 0.05,0.00 0.09,0 0.01,0.05 -0.13,0.15 -0.18,0.06 0.03,-0.04 0.05,-0.05 0.09,-0.06 z m -4.93,0.06 c 0.04,0.00 0.06,0.03 0.06,0.09 -0.07,0.05 -0.14,-0.06 -0.21,-0.06 0.03,-0.02 0.11,-0.03 0.15,-0.03 z m 0.15,0.03 c 0.03,0.03 0.04,0.06 0.03,0.09 l 0.06,-0.03 c 0.09,0.03 -0.03,0.16 -0.06,0.06 l 0,-0.03 c -0.01,0.02 -0.05,0.03 -0.09,0.03 -0.03,-0.04 0.00,-0.08 0.06,-0.12 z m 0.31,0.03 0.06,0.06 -0.06,0.03 -0.03,-0.03 0.03,-0.06 z m 4.34,0.03 c 0.05,-0.01 0.12,-0.00 0.15,0.03 -0.02,0.00 -0.04,0.02 -0.06,0.03 -0.06,0.15 -0.29,0.26 -0.43,0.31 0.07,-0.03 0.18,-0.02 0.25,0 -0.11,0.05 -0.24,0.00 -0.28,0.09 -0.00,-0.00 -0.04,-0.01 -0.06,0 0.00,-0.03 0.05,-0.07 0.09,-0.09 0.06,-0.22 0.29,-0.23 0.43,-0.31 -0.06,0.01 -0.12,0.02 -0.18,0.03 -9.08e-4,-0.05 0.03,-0.08 0.09,-0.09 z m -4.18,0.06 c 0.07,-0.00 0.23,0.05 0.09,0.12 -0.04,-0.02 -0.07,-0.14 -0.12,-0.09 -0.01,-0.02 0.00,-0.02 0.03,-0.03 z m -0.21,0.03 c 0.10,2.61e-4 0.21,0.07 0.31,0.12 0.05,-0.05 0.10,-0.09 0.15,-0.09 0.11,0.05 0.21,0.24 0.37,0.15 l 0.06,0.09 c 0.70,0.12 1.43,0.33 2.15,0.21 0.02,0.06 -0.06,0.08 0.03,0.09 -0.50,0.14 -1.12,0.07 -1.65,-0.06 -0.42,-0.10 -0.90,-0.17 -1.25,-0.40 -0.09,-0.02 -0.18,-0.01 -0.28,-0.09 0.03,-0.02 0.05,-0.03 0.09,-0.03 z m 4.65,0.03 c 0.08,0.04 -0.02,0.08 -0.06,0.12 l -0.06,-0.06 c 0.03,-0.05 0.08,-0.04 0.12,-0.06 z m 0.21,0 c 0.09,0.11 -0.11,0.05 -0.15,0.12 -0.03,-0.09 0.12,-0.04 0.15,-0.12 z m -5.28,0.03 c 0.04,-0.05 0.07,0.03 0.12,0 0.03,0.08 -0.09,0.08 -0.12,0 z m -0.84,0.03 c 0.04,-0.01 0.14,0.03 0.18,0.06 -0.06,0.01 -0.15,-0.04 -0.21,-0.03 -0.00,-0.02 0.01,-0.02 0.03,-0.03 z m -7.96,0.03 c 0.15,-0.00 0.31,-0.00 0.46,0.03 0.05,0.05 0.00,0.04 -0.03,0.06 -0.29,-0.07 -0.61,0.13 -0.90,-0.03 0.15,-0.03 0.31,-0.05 0.46,-0.06 z m 7.81,0 c 0.07,-3.32e-4 0.20,0.07 0.28,0.06 -0.02,0.13 -0.21,-0.06 -0.31,-0.03 0.00,-0.02 0.00,-0.03 0.03,-0.03 z m 1.15,0.06 c 0.03,-0.02 0.05,0.03 0.09,0.06 -0.06,0.05 -0.09,0.10 -0.15,0.03 0.03,-0.03 0.09,-0.05 0.06,-0.09 z m 4.78,0.03 c 0.11,0.07 -0.06,0.24 -0.12,0.12 0.00,-0.08 0.06,-0.07 0.12,-0.12 z m -13.34,0.03 c 0.12,-0.01 0.31,0.04 0.43,0.03 -0.09,0.09 -0.36,-0.01 -0.53,0.03 0.02,-0.02 0.05,-0.05 0.09,-0.06 z m 7.34,0 c 0.06,0.00 0.18,0.07 0.25,0.09 -0.10,0.06 -0.21,-0.06 -0.31,-0.06 0.00,-0.02 0.04,-0.03 0.06,-0.03 z m -7.5,0.09 c 0.16,2.04e-4 0.35,0.03 0.5,0.03 -0.22,0.09 -0.64,0.03 -0.93,0.06 0.11,-0.07 0.27,-0.09 0.43,-0.09 z m 7.25,0 c 0.14,-0.02 0.29,0.07 0.43,0.18 -0.14,-0.02 -0.29,-0.13 -0.43,-0.18 z m 5.96,0 c 0.03,-0.02 0.08,0.02 0.12,0 0.04,0.06 -0.10,0.06 -0.12,0 z m -0.46,0.03 c 0.05,-0.00 0.13,-0.00 0.18,0.03 -0.11,-0.02 -0.23,0.13 -0.34,0.03 l 0,-0.03 c 0.05,-0.00 0.09,-0.02 0.15,-0.03 z m 0.25,0.03 c 9.6e-4,-0.00 0.04,0.01 0.06,0.03 -0.00,0.00 -0.01,0.02 -0.03,0.03 -0.03,-0.01 -0.02,-0.03 -0.03,-0.06 z m -10.03,0.03 c 0.06,0.23 0.17,0.33 0.31,0.59 -0.01,0.01 -0.04,-0.01 -0.06,-0.03 0.00,0.03 0.02,0.06 0.03,0.09 0.16,0.10 0.16,0.38 0.28,0.56 -0.03,-0.02 -0.09,-0.04 -0.12,-0.09 0.06,0.18 0.13,0.38 0.21,0.56 0.03,0.06 0.08,0.15 0.12,0.21 -0.01,-0.04 -0.02,-0.08 -0.03,-0.12 0.06,-0.03 0.13,0.11 0.06,0.15 0.02,0.05 0.02,0.09 0,0.15 -0.35,-0.53 -0.49,-1.05 -0.71,-1.59 0.00,0.16 0.09,0.33 0.15,0.5 -0.05,-0.04 -0.09,-0.09 -0.12,-0.15 -0.12,0.08 -0.00,0.15 -0.06,0.28 0.11,0.22 0.21,0.46 0.31,0.68 -0.18,-0.08 -0.31,-0.34 -0.40,-0.53 -0.05,-0.10 -0.13,-0.20 -0.18,-0.31 0.04,0.19 0.12,0.27 0.25,0.5 -0.23,-0.20 -0.26,-0.26 -0.40,-0.5 -0.02,-0.01 0.02,-0.04 0,-0.06 0.02,-0.02 0.02,-0.06 0,-0.09 0.05,0.05 0.12,0.12 0.15,0.15 -0.05,-0.10 -0.12,-0.20 -0.18,-0.31 -0.08,-0.01 -0.27,-0.09 -0.15,-0.18 0.07,0.06 0.06,0.12 0.15,0.18 -0.07,-0.13 -0.13,-0.28 -0.21,-0.40 0.12,-0.09 0.30,-0.01 0.34,-0.21 0.13,0.13 0.16,0.00 0.28,-0.03 z m 0.12,0.84 c -0.07,-0.15 -0.09,-0.35 -0.18,-0.5 -0.01,0.16 0.12,0.33 0.18,0.5 z m -3,-0.81 c 0.10,-0.01 0.21,-0.01 0.31,0.03 -0.20,0.03 -0.42,0.06 -0.62,0 0.10,0.00 0.21,-0.01 0.31,-0.03 z m 9.12,0 c 0.05,0.01 0.10,0.10 0.15,0.15 -0.09,0.02 -0.07,-0.04 -0.18,-0.12 0.01,-0.01 0.01,-0.03 0.03,-0.03 z m 3.12,0.03 c 0.09,-0.00 0.18,-0.00 0.28,0 -0.01,0.09 -0.22,0.07 -0.31,0.15 -0.07,-0.02 -0.14,-0.01 -0.21,-0.06 0.08,-0.04 0.16,-0.08 0.25,-0.09 z m 0.71,0 c 0.01,0.01 0.05,0.01 0.06,0.03 10e-4,-0.01 0.00,-0.02 0.03,-0.03 0.03,0.00 0.08,0.01 0.12,0.06 l -0.06,0.06 c -0.01,-0.02 -0.07,-0.04 -0.09,-0.06 0.01,0.03 -0.00,0.06 -0.06,0.09 -0.06,-0.05 -0.06,-0.10 0,-0.15 z m -13,0.06 c 0.16,0.00 0.34,0.05 0.46,0.09 -0.28,0.07 -0.55,-0.03 -0.84,0.03 0.08,-0.10 0.21,-0.12 0.37,-0.12 z m 7.25,0 c 0.01,-0.01 0.07,0.01 0.09,0 0.00,0.01 -0.00,0.02 0,0.03 -0.02,-0.00 -0.08,-0.02 -0.09,0 -0.01,-0.02 -0.00,-0.02 0,-0.03 z m 5.53,0 c 0.07,-0.06 0.20,0.09 0.09,0.15 -0.05,-0.04 -0.08,-0.11 -0.09,-0.15 z m -12,0.03 c 0.07,-0.02 0.14,10e-4 0.21,0.06 -0.07,0.01 -0.14,-0.01 -0.21,-0.06 z m 11.78,0 c 0.05,0.03 0.04,0.08 0.06,0.12 -0.03,0.04 -0.16,-0.10 -0.06,-0.12 z m 0.15,0 0.06,0.06 -0.06,0.06 -0.06,-0.06 0.06,-0.06 z m -3.31,0.03 c 0.10,0.03 0.21,0.19 0.31,0.21 -0.13,0.06 -0.27,-0.11 -0.40,-0.18 0.03,-0.02 0.05,-0.04 0.09,-0.03 z m 2.93,0.06 c 0.04,-0.00 0.08,-0.02 0.12,0 -0.08,0.03 -0.17,0.10 -0.25,0.03 0.04,-0.00 0.08,-0.02 0.12,-0.03 z m 0.84,0 c 0.05,0.04 0.05,0.08 0,0.12 l -0.06,-0.06 0.06,-0.06 z m -13.43,0.03 c 0.16,-0.02 0.33,0.03 0.5,0.03 -0.01,0.01 -0.43,0.02 -0.59,0.03 0.14,0.10 0.49,-0.02 0.71,0.03 -0.16,0.05 -0.62,0.18 -0.78,-0.03 0.05,-0.02 0.09,-0.05 0.15,-0.06 z m 2.78,0 c 0.10,0.25 0.24,0.49 0.37,0.75 -0.09,-0.24 -0.22,-0.50 -0.37,-0.75 z m 10.53,0 c 0.06,0.05 0.03,0.10 -0.03,0.15 -0.09,-0.06 -0.05,-0.16 0.03,-0.15 z m -10.84,0.03 0.09,0.09 c -0.04,0.08 -0.08,-0.02 -0.12,-0.06 l 0.03,-0.03 z m 5,0 c 0.07,-0.05 0.14,0.04 0.21,0.03 0.00,0.11 -0.15,-0.00 -0.21,-0.03 z m 5.59,0 c 0.07,-0.06 0.20,0.06 0.09,0.12 -0.05,-0.04 -0.08,-0.07 -0.09,-0.12 z m -1.12,0.03 c 0.03,-0.02 0.08,0.02 0.12,0 0.04,0.06 -0.10,0.06 -0.12,0 z m 1.03,0 c 0.05,-0.00 0.11,0.07 0.03,0.12 l -0.09,-0.09 c 0.01,-0.02 0.04,-0.03 0.06,-0.03 z m -3.31,0.03 c 0.12,0.01 0.24,0.16 0.37,0.21 -0.06,0.02 -0.12,0.01 -0.18,-0.03 0.07,0.06 0.14,0.14 0.21,0.15 0.02,0.07 -0.14,0.00 -0.18,-0.06 0.01,0.16 0.25,0.19 0.34,0.34 -0.09,-0.00 -0.19,-0.01 -0.28,-0.12 0.09,0.16 0.24,0.34 0.40,0.40 -0.00,0.04 -0.16,-0.00 -0.25,-0.06 0.06,0.07 0.11,0.15 0.15,0.21 -0.17,-0.02 -0.35,-0.22 -0.53,-0.40 0.04,-0.00 0.10,0.00 0.15,0.03 -0.13,-0.12 -0.22,-0.28 -0.18,-0.37 -0.05,-0.03 -0.09,-0.10 -0.12,-0.15 0.04,-0.02 0.08,-0.00 0.12,0.03 -0.04,-0.02 -0.06,-0.08 -0.09,-0.12 0.03,1.31e-4 0.08,0.00 0.12,0.03 -0.02,-0.02 -0.03,-0.06 -0.06,-0.09 z m 0.03,0.31 c -10e-4,0.09 0.12,0.06 0.18,0.18 -0.01,-0.10 -0.10,-0.12 -0.18,-0.18 z m 3.12,-0.31 c 0.06,-0.05 0.01,0.07 0.09,0.09 -0.03,0.04 -0.06,0.00 -0.09,0.03 l -0.03,-0.03 c 0.03,-0.02 0.05,-0.06 0.03,-0.09 z m -0.09,0.06 0.03,0.03 c -0.02,0.01 -0.01,0.04 0,0.06 -0.04,0.03 -0.08,-0.00 -0.12,-0.06 0.03,-0.00 0.06,-8.2e-4 0.09,-0.03 z m -0.15,0.03 0.06,0.06 c -0.03,0.04 -0.06,0.00 -0.09,0.03 l -0.06,-0.06 c 0.03,-0.04 0.06,-0.00 0.09,-0.03 z m 1.65,0 c 0.02,-0.00 0.03,0.00 0.06,0.06 -0.43,0.06 -0.94,0.32 -1.31,0.28 0.17,-0.11 0.39,-0.11 0.59,-0.15 0.19,-0.04 0.37,-0.13 0.56,-0.15 0.03,-0.00 0.06,-0.02 0.09,-0.03 z m -1.18,0.03 c 0.05,0.06 0.07,0.16 0,0.15 -0.06,-0.05 -0.06,-0.10 0,-0.15 z m 1.53,0 c 0.07,-0.01 0.14,-0.00 0.21,0 -0.29,0.44 -0.76,0.51 -1.18,0.62 -0.24,0.06 -0.44,0.15 -0.65,0.09 0.51,-0.12 1.01,-0.33 1.53,-0.53 -0.19,-0.02 -0.44,0.10 -0.71,0.15 -0.24,0.05 -0.52,0.17 -0.75,0.09 0.28,-0.08 0.60,-0.13 0.90,-0.21 0.22,-0.06 0.43,-0.17 0.65,-0.21 z m -14.09,0.03 c 0.07,-0.00 0.17,-0.00 0.21,0 -0.02,0.10 -0.21,-0.02 -0.31,0.03 -0.03,-0.01 0.01,-0.02 0.09,-0.03 z m 1.40,0 c 0.08,0.01 0.20,0.18 0.28,0.25 -0.11,-0.02 -0.22,-0.15 -0.34,-0.18 0.00,-0.03 0.03,-0.06 0.06,-0.06 z m 0.25,0.03 c 0.05,0.01 0.13,0.15 0.18,0.18 -0.06,0.06 -0.23,-0.14 -0.21,-0.15 0.01,-0.02 0.01,-0.03 0.03,-0.03 z m 0.21,0 c 0.03,-0.00 0.08,0.09 0.12,0.12 -0.05,0.04 -0.10,-0.03 -0.15,-0.09 0.01,-0.02 0.01,-0.03 0.03,-0.03 z m 10.37,0 c 0.05,0.03 0.04,0.08 0.06,0.12 -0.04,0.03 -0.11,-0.00 -0.15,-0.06 l 0.09,-0.06 z m 0.15,0 c 0.05,0.04 0.02,0.08 -0.03,0.12 l -0.06,-0.06 0.09,-0.06 z m -0.34,0.03 c 0.03,-0.00 0.06,0.06 0.09,0.09 -0.04,0.03 -0.08,-0.00 -0.12,-0.06 0.01,-0.02 0.01,-0.02 0.03,-0.03 z m -2.25,0.03 0.06,0.06 -0.06,0.03 -0.03,-0.03 0.03,-0.06 z m 2.06,0 c 0.01,0.00 0.04,0.01 0.06,0.03 -0.03,0.01 -0.08,0.04 -0.12,0 0.01,-0.02 0.04,-0.04 0.06,-0.03 z m -12.37,0.03 c 0.06,-0.00 0.12,-0.00 0.18,0.06 -0.12,0.02 -0.25,0.13 -0.37,-0.03 0.06,-0.00 0.12,-0.02 0.18,-0.03 z m 2.37,0.09 c 0.05,-0.01 0.10,0.00 0.15,0.06 -0.05,0.04 -0.10,-0.00 -0.15,-0.06 z m 10.53,0 c 0.05,0.03 0.04,0.08 0.06,0.12 -0.07,-0.01 -0.14,-0.05 -0.21,0 -0.06,-0.14 0.09,-0.04 0.15,-0.12 z m -0.28,0.03 0.06,0.06 c -0.03,0.05 -0.08,0.00 -0.12,-0.03 0.02,-0.01 0.03,-0.00 0.06,-0.03 z m -12.78,0.03 c 0.02,-0.00 0.03,0.01 0.06,0 0.04,0.07 -0.27,0.07 -0.15,0.06 0.02,-0.02 0.06,-0.05 0.09,-0.06 z m 0.21,0.03 0.06,0.06 c -0.05,-0.00 -0.09,-0.00 -0.15,0 0.03,-0.00 0.07,-0.03 0.09,-0.06 z m 12.87,0.09 0.06,0.03 -0.09,0.09 c 0.05,-0.01 0.08,0.01 0.09,0.09 -0.09,0.01 -0.16,0.02 -0.25,-0.03 0.04,-0.01 0.10,-0.04 0.15,-0.06 l -0.06,-0.09 c 0.03,-0.04 0.06,-0.00 0.09,-0.03 z m -13.06,0.03 c -0.00,0.08 -0.20,0.24 -0.28,0.18 0.09,-0.13 0.18,-0.08 0.28,-0.18 z m 3.46,0 c 0.12,0.32 0.30,0.64 0.46,0.96 -0.23,-0.01 -0.26,-0.42 -0.34,-0.59 -0.06,-0.13 -0.14,-0.21 -0.18,-0.34 0.02,-0.02 0.04,-0.04 0.06,-0.03 z m 10.06,0 c 0.05,0.00 -0.25,0.22 -0.34,0.09 0.12,-0.03 0.22,-0.07 0.34,-0.09 z m 0.78,0.03 c 0.07,0.12 -0.21,0.14 -0.28,0.12 0.09,-0.07 0.18,-0.02 0.28,-0.12 z m -12.28,0.03 c 0.10,-0.02 0.31,0.13 0.34,0.18 -0.11,-0.01 -0.23,-0.11 -0.34,-0.18 z m 10.53,0.03 0.03,0.06 -0.06,0.03 -0.03,-0.03 0.06,-0.06 z m 1.87,0 c 0.09,0.03 -0.03,0.16 -0.06,0.06 l 0.06,-0.06 z m -14.59,0.12 c 0.02,-0.00 0.05,-0.00 0.09,0.03 -0.14,0.01 -0.04,0.21 -0.21,0.21 0.01,-0.05 0.04,-0.22 0.12,-0.25 z m 1.28,0 c 0.18,-0.01 0.64,0.15 0.75,0.28 0.08,0.10 0.16,0.20 0.21,0.31 -0.01,-0.04 -0.00,-0.10 -0.03,-0.12 0.10,-0.00 0.14,0.18 0.15,0.25 -0.02,0.00 -0.04,-0.01 -0.06,-0.03 0.12,0.30 0.13,0.64 0.21,0.93 0.11,0.38 0.27,0.68 0.53,1.12 0.40,0.67 1.22,1.66 1.93,2.28 0.28,0.24 0.53,0.52 0.84,0.75 0.30,0.22 0.52,0.45 0.78,0.68 0.51,0.44 0.96,0.82 1.15,1.5 -0.10,0.20 -0.06,0.34 -0.21,0.5 -0.26,0.26 -0.70,0.11 -1,0.12 -0.45,-0.12 -0.80,-0.26 -1.28,-0.5 -0.28,-0.14 -0.64,-0.35 -0.96,-0.56 -0.37,-0.23 -0.71,-0.51 -1.12,-0.84 -1.00,-0.80 -2.16,-2.16 -2.56,-3.21 -0.23,-0.62 -0.31,-0.99 -0.31,-1.65 0.00,-0.31 0.03,-0.57 0.09,-0.84 0.08,-0.36 0.36,-0.91 0.87,-0.96 z m 12.87,0 c 0.03,0.04 -0.11,0.10 -0.15,0.03 0.05,-0.03 0.10,0.00 0.15,-0.03 z m -0.59,0.09 c 0.01,-0.00 0.04,8.08e-4 0.06,0 0.04,-0.00 0.10,0.02 0.12,0 0.02,0.10 -0.13,0.00 -0.18,0.06 -0.00,-0.02 -0.01,-0.05 0,-0.06 z m 0.78,0 c 0.08,-0.00 -0.18,0.14 -0.25,0.06 0.08,-0.01 0.16,-0.03 0.25,-0.06 z m -11.56,0.06 0.09,0.09 c -0.06,0.10 -0.12,-0.06 -0.18,-0.03 -0.00,-0.00 0.00,-0.02 0,-0.03 0.02,-0.00 0.08,0.00 0.09,-0.03 z m 1.25,0.03 c 0.01,-0.02 0.06,-0.01 0.09,0.09 -0.07,-0.01 -0.10,-0.06 -0.09,-0.09 z m 8.96,0 0.03,0.06 -0.06,0.03 -0.03,-0.03 0.06,-0.06 z m 1,0.03 c 0.02,0.07 -0.31,0.06 -0.43,0.12 0.05,-0.14 0.30,-0.08 0.43,-0.12 z m -9.87,0.15 c 0.08,-0.04 0.00,0.09 0.09,0.12 -0.06,0.04 -0.09,-0.09 -0.09,-0.12 z m -3.81,0.03 c 0.05,0.03 0.07,0.08 0.03,0.12 0.00,0.00 -0.00,0.02 0,0.03 -0.04,0.08 -0.08,0.00 -0.12,-0.03 0.02,-0.01 0.04,-0.04 0.06,-0.03 l 0,-0.03 0.03,-0.06 z m 2.59,0 c 0.20,-0.08 0.33,0.17 0.5,0.31 0.07,0.06 0.34,0.23 0.46,0.31 0.02,0.05 -0.06,0.04 -0.09,0.06 -0.31,-0.28 -0.66,-0.38 -0.87,-0.68 z m 8.84,0 c 0.06,-0.01 0.12,0.02 0.12,0.09 -0.04,0.05 -0.08,-0.07 -0.12,-0.09 z m -11.68,0.28 c 0.07,-0.03 0.14,0.03 0.21,0.09 -0.07,0.05 -0.21,0.01 -0.21,-0.09 z m 3.84,0.12 c 0.20,-0.10 0.30,0.22 0.43,0.37 -0.19,0.03 -0.24,-0.33 -0.43,-0.37 z m -3.75,0.03 c 0.04,0.01 0.08,0.07 0.12,0.09 -0.09,0.13 -0.23,0.03 -0.25,-0.06 0.04,-0.03 0.08,-0.04 0.12,-0.03 z m 2.43,0.06 c 0.02,-0.00 0.22,0.18 0.12,0.25 -0.10,-0.08 -0.14,-0.16 -0.12,-0.25 z m -2.46,0.12 c 0.03,0.01 0.05,0.02 0.09,0.06 -0.07,0.04 -0.14,0.04 -0.21,-0.03 0.03,-0.03 0.08,-0.04 0.12,-0.03 z m 2.5,0.12 c 0.31,0.14 0.12,0.46 0.37,0.68 -0.04,0.03 -0.03,0.08 -0.03,0.12 0.06,-0.05 0.12,-0.05 0.18,0 -0.06,0.03 -0.12,0.04 -0.18,0 0.00,0.03 0.02,0.05 0.03,0.09 0.03,0.00 0.09,-0.05 0.18,-0.03 0.09,0.09 -0.05,0.03 -0.09,0.06 0.02,0.08 0.02,0.16 0.12,0.25 0.08,0.03 0.16,-0.09 0.25,0 -0.07,0.11 -0.14,0.00 -0.21,0.09 0.07,0.10 0.14,-0.02 0.21,0.06 -0.05,0.05 -0.10,0.03 -0.15,0.06 0.19,0.07 0.20,0.21 0.40,0.31 -0.05,0.05 -0.13,0.03 -0.18,0.06 0.06,0.07 0.15,-0.00 0.21,0 -0.01,0.05 0.00,0.14 0.09,0.09 0.05,0.06 -0.07,0.08 -0.09,0.09 0.04,0.02 0.07,0.01 0.12,0 0.02,0.03 -0.03,0.05 -0.06,0.09 0.05,0.08 0.13,-0.10 0.18,0 -0.03,0.04 -0.06,0.03 -0.09,0.06 0.05,0.06 0.10,0.01 0.15,0.03 0.01,0.01 0.01,0.04 0,0.06 0.03,-0.02 0.06,-0.02 0.09,0.03 -0.09,0.08 -0.18,0.09 -0.28,0.12 -0.74,-0.80 -1.10,-1.58 -1.25,-2.37 z m -2.62,0.03 c 0.07,-0.06 0.14,0.02 0.21,0.06 -0.07,0.02 -0.14,-0.00 -0.21,-0.06 z m 3.84,0.06 c 0.06,7.68e-4 0.12,0.05 0.18,0.12 -0.06,0.05 -0.12,-0.06 -0.18,-0.12 z m -3.75,0.03 c 0.04,0.01 0.07,0.04 0.12,0.06 -0.01,0.07 0.00,0.14 -0.06,0.21 -0.06,-0.02 -0.15,-0.00 -0.21,-0.09 0.06,-0.05 0.12,-0.05 0.18,0 0.02,-0.12 -0.13,-0.04 -0.18,-0.15 0.04,-0.02 0.10,-0.04 0.15,-0.03 z m 4.12,0.25 c 0.28,0.12 0.56,0.33 0.84,0.56 -0.28,-0.09 -0.56,-0.33 -0.84,-0.56 z m -4.15,0.03 c 0.10,-7.17e-4 0.18,0.09 0.15,0.21 -0.08,-0.02 -0.17,0.04 -0.25,-0.06 0.06,-0.03 0.11,0.00 0.18,-0.03 -0.07,-0.07 -0.14,-0.00 -0.21,-0.09 0.04,-0.02 0.08,-0.03 0.12,-0.03 z m -0.09,0.25 c 0.07,-0.02 0.17,0.00 0.25,0.06 -0.04,0.04 -0.10,-0.04 -0.15,0.03 l -0.09,-0.09 z m 0.03,0.12 c 0.03,-0.01 0.15,0.03 0.18,0 0.02,0.13 -0.13,-0.01 -0.18,0.03 -0.00,-0.03 -0.01,-0.02 0,-0.03 z m 0.09,0.12 c 0.04,0.00 0.08,0.01 0.12,0.06 -0.08,0.00 -0.16,0.03 -0.25,-0.03 0.04,-0.02 0.08,-0.03 0.12,-0.03 z m -0.03,0.12 c 0.06,-0.02 0.14,-0.02 0.18,0.06 -0.10,0.11 -0.18,0.01 -0.28,0.06 -0.02,-0.05 0.02,-0.10 0.09,-0.12 z m 3.56,0.06 0.06,0.03 c -0.03,0.05 -0.08,0.03 -0.12,0 0.02,-0.01 0.03,-0.01 0.06,-0.03 z m -3.53,0.09 c 0.06,-0.01 0.14,2.09e-4 0.18,0.06 -0.10,0.08 -0.20,0.07 -0.31,0.03 0.01,-0.04 0.06,-0.08 0.12,-0.09 z m 0.12,0.15 0.06,0.06 c -0.00,0.38 0.24,0.93 0.46,1.40 0.16,0.34 0.32,0.58 0.56,0.96 -0.21,-0.13 -0.36,-0.36 -0.5,-0.53 -0.01,0.16 0.18,0.26 0.28,0.37 0.37,0.43 1.00,1.23 1.59,1.75 -0.46,-0.22 -1.02,-0.98 -1.46,-1.43 0.20,0.43 0.71,0.77 1.03,1.18 0.22,0.28 0.77,0.66 0.96,0.93 -0.20,0.00 -0.39,-0.25 -0.56,-0.40 -0.43,-0.40 -1.09,-0.98 -1.43,-1.40 -0.13,-0.16 -0.22,-0.38 -0.18,-0.56 -0.19,-0.13 -0.24,-0.37 -0.37,-0.43 -0.02,-0.03 0.03,-0.05 0.06,-0.09 -0.05,-0.10 -0.13,0.08 -0.18,-0.06 0.03,-0.04 0.06,-0.02 0.09,0 0.03,-0.10 -0.11,-0.08 -0.15,-0.18 0.10,-0.11 -0.21,-0.29 -0.03,-0.34 -0.05,-0.08 -0.10,0.01 -0.15,-0.09 0.03,-0.22 -0.23,-0.57 -0.03,-0.71 -0.10,-0.01 -0.12,-0.06 -0.15,-0.18 0.00,-0.08 0.06,-0.06 0.12,-0.09 0.02,-0.09 -0.13,0.03 -0.18,-0.06 0.06,-0.02 0.11,-0.06 0.18,-0.06 z m 3.34,0.06 c 0.03,5.85e-4 0.06,0.01 0.09,0.03 -0.06,0.03 -0.15,0.07 -0.21,0 0.03,-0.03 0.09,-0.03 0.12,-0.03 z m 2.28,0.09 c 0.00,-0.00 0.09,-0.00 0.09,0.03 -0.00,0.03 -0.15,-0.01 -0.09,-0.03 z m 0.37,0.28 c 0.05,-0.00 0.16,0.03 0.15,0.09 -0.06,0.01 -0.16,-0.02 -0.15,-0.09 z m 0.18,0.12 c 0.04,-0.01 0.08,0.02 0.12,0.06 -0.04,0.08 -0.08,-0.02 -0.12,-0.06 z m 0.15,0.12 c 0.03,-0.00 0.08,0.06 0.12,0.09 -0.05,0.01 -0.10,-0.00 -0.15,-0.06 0.01,-0.02 0.01,-0.03 0.03,-0.03 z m 0.12,0.15 c 0.04,-0.05 0.07,0.03 0.12,0 0.03,0.09 -0.09,0.09 -0.12,0 z m 0.18,0.06 c 0.05,0.03 0.04,0.08 0.06,0.12 -0.05,-0.02 -0.10,0.03 -0.15,-0.03 0.08,-0.00 0.02,-0.03 0.09,-0.09 z m -2.59,0.03 c 0.05,0.12 -0.14,0.06 -0.21,0.15 0.09,0.07 0.18,-0.11 0.28,0 -0.10,0.06 -0.17,0.02 -0.28,0.12 0.08,0.04 0.16,-0.03 0.25,-0.03 0.00,0.02 0.01,0.05 0,0.06 0.06,-0.00 0.12,-0.02 0.18,-0.03 -0.00,0.11 -0.20,0.05 -0.28,0.15 0.10,0.01 0.23,-0.06 0.34,-0.09 0.00,0.13 -0.18,0.08 -0.25,0.18 0.09,0.03 0.21,-0.05 0.31,-0.06 0.02,0.09 -0.13,0.09 -0.18,0.12 0.11,0.10 0.22,-0.06 0.34,0.03 -0.08,0.03 -0.16,0.05 -0.25,0.09 -0.01,0.10 0.16,-0.05 0.21,0.06 -0.07,0.06 -0.13,0.01 -0.21,0.12 -0.26,-0.25 -0.42,-0.50 -0.65,-0.75 0.13,-0.09 0.26,-0.03 0.40,-0.15 z m 2.28,0 c 0.04,-0.03 0.11,0.00 0.15,0.06 -0.04,0.03 -0.11,-0.00 -0.15,-0.06 z m 0.46,0.09 0.06,0.06 c -0.13,0.15 -0.25,-0.01 -0.06,-0.06 z m 0.09,0.12 c 0.03,0.00 0.06,0.02 0.09,0.06 -0.06,0.07 -0.13,0.08 -0.18,0 0.03,-0.03 0.06,-0.06 0.09,-0.06 z m 0.15,0.09 c 0.03,0.05 0.05,0.09 0.09,0.12 0.04,0.03 0.10,0.02 0.15,0.09 -0.03,0.04 -0.05,0.01 -0.09,0.06 -0.04,-0.09 -0.00,-0.10 -0.12,-0.06 -0.02,-0.03 0.03,-0.06 0.06,-0.09 -0.06,-0.06 -0.15,0.07 -0.21,-0.03 l 0.12,-0.09 z m -0.21,0.03 c 0.08,0.12 -0.15,0.11 0,0 z m 0.5,0.21 0.12,0.12 c -0.11,0.08 -0.09,-0.03 -0.21,-0.03 l 0.09,-0.09 z m -2.75,0.12 c 0.02,6.99e-4 0.06,-2.5e-4 0.09,0.03 -0.05,0.01 -0.10,0.06 -0.15,0 0.02,-0.00 0.03,-0.03 0.06,-0.03 z m 0.18,0.09 0.03,0.03 c -0.03,0.04 -0.06,0.03 -0.09,0.06 l -0.03,-0.06 c 0.03,-0.04 0.06,-0.00 0.09,-0.03 z m 2.75,0 0.06,0.06 c -0.03,0.04 -0.06,0.00 -0.09,0.03 l -0.03,-0.03 0.06,-0.06 z m -2.87,0.06 c 0.01,0.09 -0.16,0.06 -0.21,0.15 0.11,0.04 0.23,-0.16 0.34,-0.03 -0.09,0.10 -0.18,0.04 -0.28,0.12 l -0.06,-0.09 -0.06,-0.06 c 0.09,-0.05 0.18,-0.07 0.28,-0.09 z m 0.18,0.06 c 0.03,-0.00 0.05,-0.00 0.06,0.03 -0.03,0.06 -0.05,-7.6e-4 -0.09,0.03 -0.02,-0.03 3.76e-4,-0.05 0.03,-0.06 z m 2.90,0.06 c 0.09,0.07 -0.11,0.20 -0.15,0.09 0.05,-0.05 0.10,-0.09 0.15,-0.09 z m -0.25,0.03 c -0.00,0.10 0.06,0.07 0.12,0.15 -0.09,0.06 -0.20,-0.05 -0.12,-0.15 z m -2.59,0.06 c -0.02,0.11 -0.24,0.14 -0.34,0.09 0.11,-0.03 0.18,-0.06 0.34,-0.09 z m 0.71,0 c 0.06,-0.02 0.12,0.01 0.18,0.06 -0.06,0.07 -0.19,0.00 -0.18,-0.06 z m 2.21,0.03 c 0.06,0.08 -0.09,0.19 -0.15,0.06 0.05,-0.05 0.10,-0.03 0.15,-0.06 z m -2.31,0.03 c 0.02,-0.02 0.10,5.42e-4 0.12,0.06 -0.04,0.05 -0.07,-0.06 -0.12,-0.03 -0.00,-0.02 -0.00,-0.02 0,-0.03 z m -0.65,0.03 c 0.03,-0.00 0.05,0.00 0.09,0 0.00,0.08 -0.15,0.12 -0.21,0.06 0.03,-0.02 0.08,-0.05 0.12,-0.06 z m 3.03,0 c 0.06,0.05 0.00,0.10 -0.03,0.15 -0.09,-0.05 -0.03,-0.10 0.03,-0.15 z m -2.46,0.03 c 0.02,0.01 0.03,0.02 0.03,0.06 -0.04,0.03 -0.08,0.02 -0.12,-0.03 0.03,-0.03 0.06,-0.04 0.09,-0.03 z m -0.25,0.03 c 0.03,-0.00 0.06,0.03 0.09,0.06 -0.02,0.02 -0.06,0.04 -0.09,0.03 -0.09,0.04 -0.21,0.12 -0.31,0.09 0.02,0.03 0.06,0.06 0.09,0.09 0.00,-0.12 0.20,-0.09 0.28,-0.12 -0.00,0.08 -0.20,0.10 -0.28,0.12 0.01,0.01 0.01,0.05 0.03,0.06 -0.11,-0.02 -0.25,-0.21 -0.37,-0.31 0.05,0.01 0.12,0.05 0.18,0.12 -0.01,-0.01 -0.01,-0.04 -0.03,-0.06 0.12,-0.05 0.28,-0.14 0.40,0 -0.01,-0.01 -0.01,-0.04 -0.03,-0.06 0.01,-0.02 0.01,-0.02 0.03,-0.03 z m 2.46,0 c 0.02,0.00 0.06,0.02 0.09,0.06 -0.05,0.06 -0.10,0.00 -0.15,-0.03 0.02,-0.03 0.03,-0.03 0.06,-0.03 z m 0.37,0.03 c 0.03,0.03 -0.09,0.19 -0.12,0.09 0.04,-0.08 0.07,-0.03 0.12,-0.09 z m -7.40,0.06 c 0.03,-0.04 0.16,0.10 0.06,0.12 -0.05,-0.03 -0.04,-0.08 -0.06,-0.12 z m 7.15,0 0.06,0.06 c -0.03,0.04 -0.06,0.00 -0.09,0.03 l -0.06,-0.03 0.09,-0.06 z m 0.31,0.03 c 0.07,0.09 0.05,0.14 0.15,0.18 l -0.09,0.06 c -0.07,-0.10 -0.05,-0.07 -0.15,-0.15 l 0.09,-0.09 z m -2.90,0.15 c 0.05,-0.01 0.13,-0.00 0.18,0.03 -0.11,0.03 -0.23,0.14 -0.34,0.06 0.05,-0.04 0.09,-0.08 0.15,-0.09 z m 2.75,0 0.06,0.06 c -0.03,0.04 -0.06,0.00 -0.09,0.03 l -0.03,-0.03 0.06,-0.06 z m -1.87,0.03 c 0.09,0.08 -0.05,0.03 -0.09,0.12 l -0.06,-0.03 c -0.03,0.04 -0.06,0.03 -0.09,0.06 l -0.03,-0.06 c 0.03,-0.04 0.06,-0.00 0.09,-0.03 l 0.03,0 c 0.05,-0.08 0.09,0.05 0.15,-0.06 z m 2.21,0.03 c -0.01,0.16 -0.17,0.04 0,0 z m -2.84,0.03 c 0.02,0.09 -0.13,0.06 -0.18,0.09 0.10,0.08 0.20,-0.04 0.31,0 0.05,0.03 0.00,0.08 -0.03,0.12 0.09,0.05 0.22,-0.02 0.31,0.12 -0.03,0.05 -0.08,0.04 -0.12,0.06 0.07,0.08 0.16,-0.01 0.25,0.03 0.00,0.03 -0.01,0.05 -0.03,0.09 0.23,0.05 0.47,0.35 0.78,0.65 0.01,-0.04 -0.00,-0.08 -0.03,-0.12 0.04,0.03 0.11,0.04 0.18,0 0.00,-0.03 -0.05,-0.05 -0.09,-0.09 -0.00,0.01 -0.05,0.00 -0.12,-0.06 -0.05,-0.04 -0.11,-0.14 -0.18,-0.21 0.02,-0.01 0.10,0.01 0.15,0.06 -0.02,-0.03 -0.03,-0.06 -0.03,-0.09 0.09,-0.03 0.21,0.08 0.31,0.12 -0.03,0.00 -0.06,4.5e-4 -0.09,0.03 0.26,0.06 0.47,0.51 0.78,0.71 l -0.09,0.09 c 0.17,0.32 0.30,0.61 0.40,0.93 -0.10,0.03 -0.10,-0.11 -0.15,-0.21 -0.08,-0.18 -0.16,-0.42 -0.28,-0.53 0.01,0.18 0.16,0.37 0.25,0.56 -0.10,0.06 -0.20,-0.17 -0.31,-0.18 0.11,-0.00 -0.04,-0.17 -0.12,-0.15 -0.03,-0.06 -0.02,-0.08 0.03,-0.09 -0.17,-0.01 -0.24,-0.30 -0.40,-0.31 -0.03,-0.04 0.07,-0.07 0.06,-0.12 -0.11,-0.03 -0.23,-0.08 -0.34,-0.06 -0.50,-0.44 -0.99,-0.86 -1.5,-1.34 0.10,-0.03 0.20,-0.08 0.31,-0.09 z m 0.90,0.06 c 0.01,0.00 0.04,0.01 0.06,0.03 -0.03,0.01 -0.08,0.04 -0.12,0 0.01,-0.02 0.04,-0.04 0.06,-0.03 z m -0.18,0.03 c 0.03,-0.00 0.05,0.00 0.09,0.06 -0.07,0.04 -0.14,0.07 -0.21,-0.03 0.03,-0.02 0.08,-0.02 0.12,-0.03 z m -0.18,0.06 c 0.02,0.00 0.06,0.02 0.09,0.06 -0.05,0.06 -0.10,0.03 -0.15,-0.03 0.02,-0.03 0.03,-0.03 0.06,-0.03 z m 2.37,0 c 0.02,-0.00 0.07,-0.00 0.12,0.03 -0.16,0.15 -0.20,-0.00 -0.12,-0.03 z m -2.12,0.06 c 0.04,-0.01 0.09,0.00 0.12,0.03 -0.05,0.00 -0.10,0.05 -0.15,0.06 -0.03,-0.04 -0.00,-0.08 0.03,-0.09 z m 2,0.03 c 0.03,-0.00 0.08,-0.00 0.09,0.03 -0.03,0.06 -0.08,-7.6e-4 -0.12,0.03 -0.02,-0.03 3.04e-4,-0.05 0.03,-0.06 z m -1.81,0.03 0.06,0.06 c -0.06,0.00 -0.13,0.08 -0.18,0 0.03,-0.00 0.08,-0.02 0.12,-0.06 z m 2.18,0.03 c 0.04,0.17 -0.14,0.07 -0.18,0.21 l -0.06,-0.09 c 0.10,-0.00 0.12,-0.12 0.25,-0.12 z m -2.12,0.12 c 0.02,0.00 0.03,0.02 0.06,0 0.03,0.05 -0.12,0.09 -0.15,0.03 0.02,-0.03 0.07,-0.03 0.09,-0.03 z m 2.15,0 c 0.04,0.04 0.07,0.10 0.12,0.15 0.45,0.52 0.68,1.17 0.56,1.71 -0.19,-0.20 -0.06,-0.52 -0.18,-0.81 -0.08,-0.19 -0.18,-0.34 -0.34,-0.56 0.03,-0.05 -0.06,-0.10 0.03,-0.15 -0.05,-0.04 -0.13,-0.03 -0.18,-0.12 0.03,-0.04 0.08,-0.01 0.12,-0.06 -0.06,-0.10 -0.12,0.09 -0.18,-0.03 0.00,-0.03 0.02,-0.08 0.06,-0.12 z m -1.53,0.15 c 0.02,0.03 0.03,0.08 0.06,0.06 0.05,0.08 -0.18,0.10 -0.12,0 l 0.06,-0.06 z m -0.12,0.09 c 0.02,0.01 0.03,0.02 0.03,0.06 -0.04,0.01 -0.08,0.00 -0.12,-0.03 0.03,-0.03 0.06,-0.04 0.09,-0.03 z m 0.84,0.03 c 0.05,-0.03 0.10,0.00 0.15,0 0.03,0.08 -0.11,0.10 -0.15,0 z m -1.46,0.03 c 0.12,-0.05 0.17,0.10 0.25,0.21 -0.08,-0.06 -0.19,-0.12 -0.25,-0.21 z m 1.21,0 0.09,0.09 c -0.01,0.02 -0.01,0.02 -0.03,0.03 0.03,0.01 0.03,0.06 0.06,0.09 -0.02,0.01 0.06,0.14 0.09,0.21 -0.15,-0.07 -0.24,-0.26 -0.31,-0.37 0.05,0.04 0.09,0.04 0.12,0.06 -0.02,-0.01 -0.04,-0.04 -0.06,-0.06 l 0.03,-0.06 z m -0.56,0.09 c 0.04,-0.04 0.05,0.02 0.09,0.06 0.04,0.05 0.13,0.09 0.18,0.12 -0.09,0.02 -0.12,-0.05 -0.18,-0.12 -0.02,-0.02 -0.05,-0.05 -0.09,-0.06 z m 0.25,0 c 0.03,-0.01 0.08,0.05 0.12,0.03 0.20,0.22 0.22,0.47 0.31,0.68 0.04,0.11 0.19,0.18 0.12,0.31 -0.11,-0.32 -0.32,-0.66 -0.59,-1 0.01,-0.03 0.01,-0.02 0.03,-0.03 z m 0.65,0 c 0.11,-0.04 0.25,0.21 0.21,0.31 -0.08,-0.10 -0.15,-0.20 -0.21,-0.31 z m 0.28,0 c 0.14,0.10 0.09,0.21 0.18,0.31 -0.05,0.05 -0.29,-0.22 -0.18,-0.31 z m -5.71,0.75 c 0.14,-0.03 0.16,0.10 0.28,0.15 -0.10,0.07 -0.18,-0.06 -0.28,-0.15 z m 0.34,0.21 c 0.02,0.00 0.04,0.03 0.06,0.06 -0.04,0.08 -0.08,0.00 -0.12,-0.03 0.02,-0.01 0.04,-0.03 0.06,-0.03 z m 0.18,0.25 c 0.04,-0.03 0.11,0.00 0.15,0.06 -0.04,0.03 -0.11,-0.00 -0.15,-0.06 z m 0.03,0.15 c 0.03,-0.00 0.06,0.06 0.09,0.09 -0.04,0.01 -0.08,-0.02 -0.12,-0.06 0.01,-0.02 0.01,-0.02 0.03,-0.03 z m -0.25,0.03 c 0.18,-0.00 0.34,0.26 0.53,0.43 -0.13,-0.00 -0.20,-0.17 -0.37,-0.15 0.07,-0.07 -0.02,-0.16 -0.15,-0.28 z m 0.34,0.15 c 0.48,0.24 0.86,0.62 1.37,1.03 -0.14,-0.00 -0.32,-0.11 -0.46,-0.21 -0.28,-0.21 -0.58,-0.54 -0.90,-0.81 z m 5.12,0.21 c 0.12,-0.05 0.23,0.17 0.06,0.25 -0.04,-0.09 -0.00,-0.15 -0.06,-0.25 z m -0.18,0.06 c 0.07,-0.02 0.14,0.13 0.21,0.18 -0.05,0.05 -0.03,0.10 -0.12,0.15 -0.00,-0.01 -0.02,0.00 -0.03,0 0.04,0.08 -0.07,0.03 -0.09,0.09 -0.04,-0.06 0.07,-0.08 0.09,-0.09 -0.04,-0.05 -0.08,-0.07 -0.12,-0.12 0.02,-0.05 0.04,-0.09 0.03,-0.15 -0.02,-0.08 0.13,0.15 0.03,-0.06 z m -4.09,0.06 0.03,0.06 -0.06,0.03 -0.03,-0.03 0.06,-0.06 z m 4.40,0.18 c 0.00,0.03 4.5e-4,0.06 0.03,0.09 -0.13,0.07 -0.27,0.26 -0.40,0.15 0.12,-0.07 0.25,-0.14 0.37,-0.25 z m 0.15,0.06 c 0.02,-0.00 0.03,-0.00 0,0.06 -0.01,-0.01 -0.02,0.00 -0.03,0 -0.03,0.15 -0.42,0.34 -0.59,0.31 0.19,-0.07 0.39,-0.17 0.59,-0.31 -0.01,-0.02 0.01,-0.05 0.03,-0.06 z m -4.21,0.18 c 0.34,0.15 0.68,0.45 1.03,0.56 -0.26,0.02 -0.70,-0.28 -1.03,-0.56 z m 0.53,0.53 c 0.01,-0.01 0.03,0.02 0.06,0.03 -0.01,-0.00 -0.04,0.01 -0.06,0.03 -0.00,-0.02 -0.01,-0.05 0,-0.06 z m -1.37,0.40 c 0.07,0.02 0.35,0.24 0.28,0.34 -0.11,-0.16 -0.20,-0.18 -0.28,-0.34 z m 0.18,0.28 c 0.00,0.03 0.02,0.05 0.06,0.09 -0.03,0.04 -0.16,-0.07 -0.06,-0.09 z m -0.18,0.09 c 0.15,-0.00 0.22,0.22 0.28,0.34 0.06,0.07 0.12,0.10 0.18,0.18 0.10,0.12 0.23,0.28 0.21,0.40 -0.22,-0.30 -0.52,-0.63 -0.68,-0.93 z m 0.34,0.18 c 0.01,-0.01 0.02,-0.00 0.03,0 0.06,0.05 0.08,0.10 0.09,0.12 -0.03,-0.02 -0.10,-0.04 -0.12,-0.12 z m 0.40,0.78 c 0.07,-0.01 0.11,0.05 0.12,0.09 -0.02,-0.01 -0.07,-0.02 -0.12,-0.09 z m 0.31,0.15 c 0.01,0.00 -4.25e-4,0.02 0,0.06 -0.11,0.00 -0.03,-0.08 0,-0.06 z" />
</svg>
