<?xml version="1.0" encoding="UTF-8" standalone="no"?>
<svg
   xmlns:dc="http://purl.org/dc/elements/1.1/"
   xmlns:cc="http://creativecommons.org/ns#"
   xmlns:rdf="http://www.w3.org/1999/02/22-rdf-syntax-ns#"
   xmlns:svg="http://www.w3.org/2000/svg"
   xmlns="http://www.w3.org/2000/svg"
   xmlns:xlink="http://www.w3.org/1999/xlink"
   version="1.1"
   id="svg2"
   style="enable-background:new 0 0 128 128;"
   viewBox="0 0 128 128"
   height="100%"
   width="100%">
  <metadata
     id="metadata121">
    <rdf:RDF>
      <cc:Work
         rdf:about="">
        <dc:format>image/svg+xml</dc:format>
        <dc:type
           rdf:resource="http://purl.org/dc/dcmitype/StillImage" />
        <dc:title></dc:title>
      </cc:Work>
    </rdf:RDF>
  </metadata>
  <defs
     id="defs119" />
  <path
     id="path115-3"
     d="m 50.785945,8.8211695 c -2.961264,0 -6.20769,0.1105014 -9.729939,0.377199 C 27.656747,10.20998 18.6335,12.81172 13.529458,14.752176 10.411854,15.93852 8.5188893,19.093197 8.8683552,22.403927 14.367845,75.513551 37.928201,79.348408 44.623232,79.348408 c 1.131165,0 1.774631,-0.109567 1.774631,-0.109567 l 0.02874,0 c 0.286423,0 3.178232,-0.05601 7.015902,-1.717154 3.810983,41.194353 27.299451,41.547573 28.095939,41.547573 l 0.01796,0 c 0,0 0.652231,0.10957 1.792593,0.10957 6.713424,0 30.239733,-3.85411 35.794393,-56.908557 0.34947,-3.301533 -1.53631,-6.463611 -4.65392,-7.649956 -5.10404,-1.940455 -14.11651,-4.55254 -27.515769,-5.582545 -3.586624,-0.275894 -6.870196,-0.38618 -9.868246,-0.38618 -1.490766,0 -2.885623,0.0361 -4.23361,0.08801 C 74.640831,40.634861 75.516736,30.39877 74.879981,17.410528 74.714444,14.090601 72.36999,11.259022 69.105243,10.550894 65.169153,9.7048182 59.08116,8.8211665 50.785943,8.8211665 Z"
     style="opacity:1;fill:#ffffff;stroke:#ffffff;stroke-width:13.7947073;stroke-miterlimit:4;stroke-dasharray:none;stroke-opacity:1;fill-opacity:1" />
  <g
     transform="matrix(0.91964717,0,0,0.91964717,5.1430657,5.1425808)"
     id="g4">
    <radialGradient
       r="76.077301"
       gradientUnits="userSpaceOnUse"
       gradientTransform="matrix(0.076,0.9971,-0.5924,0.0448,39.6451,-37.2821)"
       cy="6.3396001"
       cx="42.037701"
       id="SVGID_1_">
      <stop
         id="stop7"
         style="stop-color:#29B6F6"
         offset="0" />
      <stop
         id="stop9"
         style="stop-color:#03A9F4"
         offset="0.6577" />
      <stop
         id="stop11"
         style="stop-color:#0288D1"
         offset="1" />
    </radialGradient>
    <path
       id="path13"
       style="fill:url(#SVGID_1_)"
       d="m 39.05,4.41 c -14.57,1.1 -24.38,3.93 -29.93,6.04 -3.39,1.29 -5.45,4.72 -5.07,8.32 6.99,67.5 40.81,61.8 40.81,61.8 0,0 34.29,0.54 30.97,-67.23 C 75.65,9.73 73.1,6.65 69.55,5.88 63.74,4.63 53.62,3.31 39.05,4.41 Z m -15.5,35.75 c -3.28,0.16 -7.1,1.24 -9,1.83 -0.57,0.18 -1.16,-0.19 -1.1,-0.69 1.21,-9.72 8.25,-11.63 13,-11.78 3.06,-0.1 6.16,1.13 7.21,3.5 2.03,4.63 -5.29,6.91 -10.11,7.14 z m 34.37,24.2 c -4.37,-1.04 -9.37,-1.25 -12.18,-1.27 -1.53,-0.01 -3.05,0.1 -4.56,0.33 -2.88,0.44 -7.86,1.38 -11.64,3.07 -0.93,0.42 -2.1,-0.05 -1.95,-0.8 0.42,-2.08 1.91,-5.54 6.95,-8.12 4.93,-2.53 11.47,-3.06 16.77,-1.36 5.56,1.78 7.59,5.04 8.34,7.06 0.26,0.69 -0.75,1.32 -1.73,1.09 z M 68.96,37.88 c -1.97,-0.31 -5.91,-0.8 -9.18,-0.46 -4.8,0.49 -12.38,-0.65 -11.07,-5.53 0.67,-2.51 3.55,-4.18 6.59,-4.55 4.72,-0.56 11.97,0.27 14.64,9.69 0.14,0.49 -0.39,0.94 -0.98,0.85 z" />
    <radialGradient
       r="45.958099"
       gradientUnits="userSpaceOnUse"
       cy="76.055"
       cx="70.075104"
       id="SVGID_2_">
      <stop
         id="stop16"
         style="stop-color:#2196F3"
         offset="0" />
      <stop
         id="stop18"
         style="stop-color:#2196F3;stop-opacity:0"
         offset="1" />
    </radialGradient>
    <path
       id="path20"
       style="fill:url(#SVGID_2_)"
       d="m 39.05,4.41 c -14.57,1.1 -24.38,3.93 -29.93,6.04 -3.39,1.29 -5.45,4.72 -5.07,8.32 6.99,67.5 40.81,61.8 40.81,61.8 0,0 34.29,0.54 30.97,-67.23 C 75.65,9.73 73.1,6.65 69.55,5.88 63.74,4.63 53.62,3.31 39.05,4.41 Z m -15.5,35.75 c -3.28,0.16 -7.1,1.24 -9,1.83 -0.57,0.18 -1.16,-0.19 -1.1,-0.69 1.21,-9.72 8.25,-11.63 13,-11.78 3.06,-0.1 6.16,1.13 7.21,3.5 2.03,4.63 -5.29,6.91 -10.11,7.14 z m 34.37,24.2 c -4.37,-1.04 -9.37,-1.25 -12.18,-1.27 -1.53,-0.01 -3.05,0.1 -4.56,0.33 -2.88,0.44 -7.86,1.38 -11.64,3.07 -0.93,0.42 -2.1,-0.05 -1.95,-0.8 0.42,-2.08 1.91,-5.54 6.95,-8.12 4.93,-2.53 11.47,-3.06 16.77,-1.36 5.56,1.78 7.59,5.04 8.34,7.06 0.26,0.69 -0.75,1.32 -1.73,1.09 z M 68.96,37.88 c -1.97,-0.31 -5.91,-0.8 -9.18,-0.46 -4.8,0.49 -12.38,-0.65 -11.07,-5.53 0.67,-2.51 3.55,-4.18 6.59,-4.55 4.72,-0.56 11.97,0.27 14.64,9.69 0.14,0.49 -0.39,0.94 -0.98,0.85 z" />
    <g
       id="g22">
      <radialGradient
         r="16.2673"
         gradientUnits="userSpaceOnUse"
         gradientTransform="matrix(1.0042,0,0,1,-0.2705,0)"
         cy="36.75"
         cx="22.25"
         id="SVGID_3_">
        <stop
           id="stop25"
           style="stop-color:#03A9F4"
           offset="0" />
        <stop
           id="stop27"
           style="stop-color:#0277BD"
           offset="1" />
      </radialGradient>
      <path
         id="path29"
         style="fill:url(#SVGID_3_)"
         d="m 35.81,30.37 c -1.2,-3.18 -4.67,-4.86 -8.09,-4.78 -5.29,0.12 -13.1,2.55 -14.29,15.46 -0.01,0.09 0,0.18 0.02,0.27 0,0 0,0 0,-0.01 1.21,-9.72 8.25,-11.63 13,-11.78 3.06,-0.1 6.16,1.13 7.21,3.5 1.04,2.37 -0.38,4.12 -2.66,5.3 3.56,-1.44 6.29,-4.04 4.81,-7.96 z" />
      <radialGradient
         r="0.368"
         gradientUnits="userSpaceOnUse"
         gradientTransform="matrix(1.0013,-0.0757,0.076,0.9971,-3.4902,1.7803)"
         cy="41.441399"
         cx="15.0686"
         id="SVGID_4_">
        <stop
           id="stop32"
           style="stop-color:#03A9F4"
           offset="0" />
        <stop
           id="stop34"
           style="stop-color:#0277BD"
           offset="1" />
      </radialGradient>
      <path
         id="path36"
         style="fill:url(#SVGID_4_)"
         d="m 14.55,42 c -0.06,0.02 -0.11,0.03 -0.17,0.03 0.09,0 0.19,-0.02 0.29,-0.05 0.12,-0.04 0.27,-0.09 0.4,-0.14 -0.18,0.05 -0.37,0.11 -0.52,0.16 z" />
    </g>
    <g
       id="g38">
      <radialGradient
         r="0.43470001"
         gradientUnits="userSpaceOnUse"
         gradientTransform="matrix(1.0013,-0.0757,0.076,0.9971,-3.4902,1.7803)"
         cy="41.457001"
         cx="69.035301"
         id="SVGID_5_">
        <stop
           id="stop41"
           style="stop-color:#03A9F4"
           offset="0" />
        <stop
           id="stop43"
           style="stop-color:#0277BD"
           offset="1" />
      </radialGradient>
      <path
         id="path45"
         style="fill:url(#SVGID_5_)"
         d="m 68.96,37.88 c -0.16,-0.02 -0.35,-0.05 -0.53,-0.08 0.14,0.03 0.29,0.05 0.42,0.08 0.1,0.02 0.2,0.02 0.29,0.01 -0.06,0 -0.12,0 -0.18,-0.01 z" />
      <radialGradient
         r="15.5081"
         gradientUnits="userSpaceOnUse"
         gradientTransform="matrix(1.0042,0,0,1,-0.2705,0)"
         cy="34"
         cx="53.75"
         id="SVGID_6_">
        <stop
           id="stop48"
           style="stop-color:#03A9F4"
           offset="0" />
        <stop
           id="stop50"
           style="stop-color:#0277BD"
           offset="1" />
      </radialGradient>
      <path
         id="path52"
         style="fill:url(#SVGID_6_)"
         d="m 48.72,31.89 c 0.67,-2.51 3.55,-4.18 6.59,-4.55 4.72,-0.56 11.97,0.27 14.64,9.69 0,0 0,0 0,0.01 0.01,-0.09 0,-0.18 -0.02,-0.27 C 66.8,24.19 58.71,22.96 53.46,23.64 c -3.38,0.43 -6.56,2.62 -7.27,5.94 -0.87,4.1 2.22,6.27 5.96,7.15 -2.44,-0.82 -4.11,-2.34 -3.43,-4.84 z" />
    </g>
    <g
       id="g54">
      <radialGradient
         r="14.8236"
         gradientUnits="userSpaceOnUse"
         gradientTransform="matrix(1,0,0,0.9958,0,0.2564)"
         cy="60.928101"
         cx="43.641899"
         id="SVGID_7_">
        <stop
           id="stop57"
           style="stop-color:#03A9F4"
           offset="0" />
        <stop
           id="stop59"
           style="stop-color:#0277BD"
           offset="1" />
      </radialGradient>
      <path
         id="path61"
         style="fill:url(#SVGID_7_)"
         d="m 44.75,55.22 c 2.27,0 4.52,0.32 6.58,0.98 5.56,1.78 7.59,5.04 8.34,7.06 0.22,0.6 -0.49,1.14 -1.31,1.14 -0.14,0 -0.28,-0.02 -0.42,-0.05 -4.37,-1.04 -9.37,-1.25 -12.18,-1.27 -0.09,0 -0.17,0 -0.26,0 -1.44,0 -2.88,0.11 -4.3,0.33 -2.88,0.44 -7.86,1.38 -11.64,3.07 -0.24,0.11 -0.5,0.16 -0.74,0.16 -0.71,0 -1.32,-0.4 -1.2,-0.96 0.42,-2.08 1.91,-5.54 6.95,-8.12 3,-1.54 6.61,-2.34 10.18,-2.34 m 0,-3.01 c -4.09,0 -8.2,0.95 -11.57,2.68 -6.27,3.21 -8.04,7.77 -8.53,10.2 -0.22,1.08 0.06,2.18 0.76,3.04 0.79,0.97 2.03,1.52 3.39,1.52 0.68,0 1.36,-0.14 1.97,-0.42 3.51,-1.57 8.31,-2.46 10.86,-2.84 1.29,-0.2 2.59,-0.29 3.85,-0.29 l 0.23,0 c 2.52,0.02 7.38,0.21 11.51,1.19 0.37,0.09 0.74,0.13 1.12,0.13 1.51,0 2.89,-0.68 3.69,-1.83 0.7,-1 0.86,-2.23 0.45,-3.36 -0.87,-2.37 -3.36,-6.68 -10.24,-8.89 -2.33,-0.75 -4.85,-1.13 -7.49,-1.13 l 0,0 z" />
    </g>
  </g>
  <g
     transform="matrix(0.91964717,0,0,0.91964717,5.1430657,5.1425808)"
     id="g63"
     style="opacity:0.2">
    <path
       id="path65"
       style="fill:#424242"
       d="m 49.63,7 c 8.98,0 15.44,0.99 19.29,1.81 2.19,0.47 3.8,2.39 3.91,4.67 0.91,18.54 -0.63,43.39 -13.1,56.49 -7.15,7.51 -14.54,7.59 -14.82,7.59 l -0.28,0 -0.25,0.04 c -0.01,0 -0.54,0.08 -1.46,0.08 -2.88,0 -10.38,-0.82 -17.78,-8.4 C 15.61,59.51 9.51,42.41 7.03,18.46 6.8,16.19 8.09,14.05 10.18,13.26 15.65,11.18 25.14,8.48 39.27,7.41 42.82,7.14 46.3,7 49.63,7 m 0,-3 C 46.41,4 42.88,4.12 39.05,4.41 24.48,5.51 14.67,8.34 9.12,10.45 c -3.39,1.29 -5.45,4.72 -5.07,8.32 5.98,57.75 31.6,61.92 38.88,61.92 1.23,0 1.93,-0.12 1.93,-0.12 0,0 0.01,0 0.03,0 1.05,0 34.21,-0.53 30.94,-67.23 C 75.65,9.73 73.1,6.65 69.55,5.88 65.27,4.96 58.65,4 49.63,4 l 0,0 z" />
  </g>
  <g
     transform="matrix(0.91964717,0,0,0.91964717,5.1430657,5.1425808)"
     id="g67">
    <defs
       id="defs69">
      <path
         d="m 39.05,4.41 c -14.57,1.1 -24.38,3.93 -29.93,6.04 -3.39,1.29 -5.45,4.72 -5.07,8.32 6.99,67.5 40.81,61.8 40.81,61.8 0,0 34.29,0.54 30.97,-67.23 C 75.65,9.73 73.1,6.65 69.55,5.88 63.74,4.63 53.62,3.31 39.05,4.41 Z m -15.5,35.75 c -3.28,0.16 -7.1,1.24 -9,1.83 -0.57,0.18 -1.16,-0.19 -1.1,-0.69 1.21,-9.72 8.25,-11.63 13,-11.78 3.06,-0.1 6.16,1.13 7.21,3.5 2.03,4.63 -5.29,6.91 -10.11,7.14 z m 34.37,24.2 c -4.37,-1.04 -9.37,-1.25 -12.18,-1.27 -1.53,-0.01 -3.05,0.1 -4.56,0.33 -2.88,0.44 -7.86,1.38 -11.64,3.07 -0.93,0.42 -2.1,-0.05 -1.95,-0.8 0.42,-2.08 1.91,-5.54 6.95,-8.12 4.93,-2.53 11.47,-3.06 16.77,-1.36 5.56,1.78 7.59,5.04 8.34,7.06 0.26,0.69 -0.75,1.32 -1.73,1.09 z M 68.96,37.88 c -1.97,-0.31 -5.91,-0.8 -9.18,-0.46 -4.8,0.49 -12.38,-0.65 -11.07,-5.53 0.67,-2.51 3.55,-4.18 6.59,-4.55 4.72,-0.56 11.97,0.27 14.64,9.69 0.14,0.49 -0.39,0.94 -0.98,0.85 z"
         id="SVGID_8_" />
    </defs>
    <clipPath
       id="SVGID_9_">
      <use
         height="100%"
         width="100%"
         y="0"
         x="0"
         id="use73"
         xlink:href="#SVGID_8_"
         style="overflow:visible" />
    </clipPath>
  </g>
  <g
     transform="matrix(0.91964717,0,0,0.91964717,5.1430657,5.1425808)"
     id="g75">
    <g
       id="g77">
      <radialGradient
         r="76.256599"
         gradientUnits="userSpaceOnUse"
         gradientTransform="matrix(-0.0771,0.997,-0.6665,-0.0511,129.016,-40.1856)"
         cy="49.916901"
         cx="90.602699"
         id="SVGID_10_">
        <stop
           id="stop80"
           style="stop-color:#F48FB1"
           offset="0" />
        <stop
           id="stop82"
           style="stop-color:#F06292"
           offset="0.4192" />
        <stop
           id="stop84"
           style="stop-color:#EC407A"
           offset="1" />
      </radialGradient>
      <path
         id="path86"
         style="fill:url(#SVGID_10_)"
         d="m 88.97,47.73 c -14.57,-1.12 -24.69,0.19 -30.5,1.44 -3.55,0.76 -6.1,3.84 -6.28,7.45 -3.4,67.77 30.9,67.26 30.9,67.26 0,0 33.81,5.73 40.87,-61.76 0.38,-3.59 -1.67,-7.03 -5.06,-8.32 -5.56,-2.11 -15.36,-4.95 -29.93,-6.07 z M 60.39,75.01 c -0.55,-0.21 -0.77,-0.74 -0.41,-1 7.09,-4.91 13.71,-2.15 17.46,0.37 2.42,1.62 4.02,4.03 3.32,5.97 -1.36,3.77 -8.43,1.06 -12.29,-1.45 -2.62,-1.72 -6.24,-3.19 -8.08,-3.89 z m 40.6,25.87 c -0.75,2.02 -2.78,5.27 -8.34,7.05 -5.3,1.7 -11.84,1.15 -16.77,-1.38 -5.04,-2.59 -6.53,-6.04 -6.95,-8.13 -0.15,-0.75 1.02,-1.22 1.95,-0.8 3.78,1.7 8.76,2.64 11.64,3.08 1.51,0.23 3.03,0.34 4.56,0.33 2.81,-0.02 7.81,-0.23 12.18,-1.26 0.97,-0.22 1.98,0.41 1.73,1.11 z m 12.03,-21.84 c -1.93,0.41 -5.73,1.32 -8.59,2.61 -4.2,1.89 -11.6,3.49 -12.37,-0.44 -0.4,-2.02 1.56,-4.15 4.2,-5.39 4.1,-1.92 11.06,-3.64 17.31,2.3 0.33,0.3 0.03,0.8 -0.55,0.92 z" />
      <radialGradient
         r="16.816999"
         gradientUnits="userSpaceOnUse"
         gradientTransform="matrix(1.0042,0,0,1,-0.2705,0)"
         cy="74.25"
         cx="72"
         id="SVGID_11_">
        <stop
           id="stop89"
           style="stop-color:#F06292"
           offset="0" />
        <stop
           id="stop91"
           style="stop-color:#EC407A"
           offset="1" />
      </radialGradient>
      <path
         id="path93"
         style="fill:url(#SVGID_11_)"
         d="m 77.56,69.14 c -4.24,-3.28 -11.91,-6.91 -20.84,3.05 -0.46,0.51 -0.24,1.35 0.39,1.56 0.71,0.24 1.74,0.6 2.91,1.03 -0.26,-0.25 -0.32,-0.59 -0.05,-0.77 7.09,-4.91 13.71,-2.15 17.46,0.37 2.16,1.45 3.67,3.53 3.46,5.34 0.13,-0.28 0.25,-0.58 0.35,-0.91 1.04,-3.42 -0.94,-7.56 -3.68,-9.67 z" />
      <radialGradient
         r="16.2577"
         gradientUnits="userSpaceOnUse"
         gradientTransform="matrix(1.0042,0,0,1,-0.2705,0)"
         cy="74"
         cx="102"
         id="SVGID_12_">
        <stop
           id="stop96"
           style="stop-color:#F06292"
           offset="0" />
        <stop
           id="stop98"
           style="stop-color:#EC407A"
           offset="1" />
      </radialGradient>
      <path
         id="path100"
         style="fill:url(#SVGID_12_)"
         d="m 117.08,76.81 c -7.3,-11.21 -15.43,-8.78 -20.13,-6.19 -3.03,1.67 -5.62,5.47 -5.13,8.99 0.05,0.35 0.12,0.66 0.2,0.95 0.08,-1.82 1.88,-3.64 4.24,-4.74 4.1,-1.92 11.06,-3.64 17.31,2.3 0.24,0.23 0.13,0.55 -0.17,0.76 1.22,-0.25 2.29,-0.45 3.04,-0.58 0.67,-0.11 1.02,-0.91 0.64,-1.49 z" />
      <g
         id="g102">
        <radialGradient
           r="14.8253"
           gradientUnits="userSpaceOnUse"
           gradientTransform="matrix(1,0,0,0.9958,0,0.4342)"
           cy="103.1862"
           cx="84.972198"
           id="SVGID_13_">
          <stop
             id="stop105"
             style="stop-color:#F06292"
             offset="0" />
          <stop
             id="stop107"
             style="stop-color:#EC407A"
             offset="0.5669" />
          <stop
             id="stop109"
             style="stop-color:#EC407A"
             offset="1" />
        </radialGradient>
        <path
           id="path111"
           style="fill:url(#SVGID_13_)"
           d="m 70.13,97.47 c 0.25,0 0.5,0.05 0.75,0.16 3.78,1.7 8.76,2.64 11.64,3.08 1.44,0.22 2.88,0.33 4.33,0.33 0.08,0 0.15,0 0.23,0 2.81,-0.02 7.81,-0.23 12.18,-1.26 0.14,-0.03 0.28,-0.05 0.42,-0.05 0.82,0 1.53,0.55 1.32,1.15 -0.75,2.02 -2.78,5.27 -8.34,7.05 -2.05,0.66 -4.29,0.98 -6.55,0.98 -3.57,0 -7.2,-0.8 -10.22,-2.36 -5.04,-2.59 -6.53,-6.04 -6.95,-8.13 -0.12,-0.55 0.49,-0.95 1.19,-0.95 m 0,-3.01 c -1.36,0 -2.6,0.55 -3.39,1.52 -0.7,0.85 -0.98,1.96 -0.76,3.03 0.49,2.43 2.25,6.99 8.52,10.21 3.37,1.73 7.49,2.69 11.59,2.69 2.63,0 5.14,-0.38 7.47,-1.12 6.88,-2.2 9.38,-6.51 10.25,-8.88 0.42,-1.13 0.26,-2.36 -0.44,-3.36 -0.8,-1.14 -2.18,-1.83 -3.69,-1.83 -0.38,0 -0.75,0.04 -1.11,0.13 -4.14,0.98 -8.99,1.16 -11.51,1.18 l -0.2,0 c -1.27,0 -2.58,-0.1 -3.88,-0.3 -2.55,-0.39 -7.35,-1.28 -10.86,-2.85 -0.63,-0.27 -1.31,-0.42 -1.99,-0.42 l 0,0 z" />
      </g>
    </g>
    <g
       id="g113"
       style="opacity:0.2">
      <path
         id="path115"
         style="fill:#424242"
         d="m 78.25,50.31 c 3.37,0 6.9,0.14 10.49,0.41 14.13,1.08 23.61,3.8 29.08,5.88 2.09,0.8 3.39,2.94 3.15,5.21 -2.5,23.93 -8.61,41.02 -18.15,50.79 -7.4,7.58 -14.91,8.4 -17.79,8.4 -0.91,0 -1.45,-0.08 -1.45,-0.08 0,0 0,0 0,0 l -0.27,-0.04 -0.25,0 c -0.31,0 -7.69,-0.09 -14.83,-7.6 C 55.76,100.17 54.25,75.31 55.18,56.77 c 0.11,-2.28 1.72,-4.2 3.92,-4.67 3.82,-0.82 10.24,-1.79 19.15,-1.79 m 0,-3 c -8.95,0 -15.53,0.95 -19.78,1.86 -3.55,0.76 -6.1,3.84 -6.28,7.45 -3.34,66.76 29.89,67.26 30.88,67.26 0.01,0 0.02,0 0.02,0 0,0 0.71,0.12 1.95,0.12 7.3,0 32.88,-4.19 38.92,-61.88 0.38,-3.59 -1.67,-7.03 -5.06,-8.32 -5.55,-2.11 -15.35,-4.95 -29.92,-6.07 -3.9,-0.3 -7.47,-0.42 -10.73,-0.42 l 0,0 z" />
    </g>
  </g>
</svg>
