<?xml version="1.0" encoding="UTF-8" standalone="no"?>
<svg
   xmlns:dc="http://purl.org/dc/elements/1.1/"
   xmlns:cc="http://creativecommons.org/ns#"
   xmlns:rdf="http://www.w3.org/1999/02/22-rdf-syntax-ns#"
   xmlns:svg="http://www.w3.org/2000/svg"
   xmlns="http://www.w3.org/2000/svg"
   xmlns:xlink="http://www.w3.org/1999/xlink"
   id="ontology"
   viewBox="0 0 48 48"
   height="100%"
   width="100%"
   version="1.0">
  <metadata
     id="metadata148">
    <rdf:RDF>
      <cc:Work
         rdf:about="">
        <dc:format>image/svg+xml</dc:format>
        <dc:type
           rdf:resource="http://purl.org/dc/dcmitype/StillImage" />
        <dc:title></dc:title>
      </cc:Work>
    </rdf:RDF>
  </metadata>
  <defs
     id="defs2385">
    <linearGradient
       id="linearGradient3220">
      <stop
         offset="0"
         style="stop-color:#f26b6b;stop-opacity:1"
         id="stop3222" />
      <stop
         offset="1"
         style="stop-color:#581717;stop-opacity:1"
         id="stop3224" />
    </linearGradient>
    <linearGradient
       id="linearGradient3210">
      <stop
         offset="0"
         style="stop-color:#7c1313;stop-opacity:1"
         id="stop3212" />
      <stop
         offset="1"
         style="stop-color:#f39898;stop-opacity:1"
         id="stop3214" />
    </linearGradient>
    <linearGradient
       gradientUnits="userSpaceOnUse"
       xlink:href="#linearGradient3210"
       id="linearGradient3496"
       y2="0"
       x2="24"
       y1="48"
       x1="24" />
    <radialGradient
       gradientTransform="matrix(2.351355,0,0,1.8182318,-32.43252,-35.370889)"
       gradientUnits="userSpaceOnUse"
       xlink:href="#linearGradient3220"
       id="radialGradient3597"
       fy="43.228447"
       fx="24"
       r="23.5"
       cy="43.228447"
       cx="24" />
  </defs>
  <path
     style="fill:url(#radialGradient3597);fill-opacity:1;fill-rule:nonzero;stroke:none;stroke-width:1;stroke-linecap:butt;stroke-linejoin:round;marker:none;stroke-miterlimit:4;stroke-dasharray:none;stroke-dashoffset:0;stroke-opacity:1;visibility:visible;display:inline;overflow:visible;enable-background:accumulate"
     id="rect3218"
     d="M 9.625,0.5 C 4.5670164,0.5 0.5,4.5670164 0.5,9.625 L 0.5,38.375 C 0.5,43.432984 4.5670164,47.5 9.625,47.5 L 38.375,47.5 C 43.432984,47.5 47.5,43.432986 47.5,38.375 L 47.5,9.625 C 47.5,4.5670164 43.432986,0.5 38.375,0.5 L 9.625,0.5 z" />
  <path
     id="card-6"
     d="M 29.582637,4.8149512 20.222882,6.0388781 17.338039,5.8754509 C 16.911888,5.8513079 16.558121,6.1369262 16.451625,6.5327121 L 7.0723307,7.7584153 C 6.5864611,7.8219693 6.2449326,8.2655429 6.3084867,8.7514125 L 10.687267,42.223768 c 0.06355,0.48587 0.507128,0.825622 0.992997,0.762068 l 9.972606,-1.303864 16.328498,0.923718 c 0.488918,0.0277 0.904901,-0.342428 0.9326,-0.831347 L 40.821801,8.0905986 C 40.849501,7.6016795 40.479374,7.1856975 39.990455,7.1579983 L 30.712415,6.6321894 30.573857,5.5770188 C 30.510303,5.0911493 30.068505,4.7513972 29.582637,4.8149512 Z"
     style="color:#000000;clip-rule:nonzero;display:inline;overflow:visible;visibility:visible;opacity:1;isolation:auto;mix-blend-mode:normal;color-interpolation:sRGB;color-interpolation-filters:linearRGB;solid-color:#000000;solid-opacity:1;fill:none;fill-opacity:1;fill-rule:evenodd;stroke:#fdfdfd;stroke-width:2.27376819;stroke-linecap:butt;stroke-linejoin:miter;stroke-miterlimit:4;stroke-dasharray:none;stroke-dashoffset:0;stroke-opacity:0.61818183;color-rendering:auto;image-rendering:auto;shape-rendering:auto;text-rendering:auto;enable-background:accumulate" />
  <path
     style="fill:#edbaba;fill-opacity:0.36818183;fill-rule:evenodd;stroke:none;stroke-width:1;stroke-linecap:round;stroke-linejoin:round;marker:none;marker-start:none;marker-mid:none;marker-end:none;stroke-miterlimit:4;stroke-dasharray:none;stroke-dashoffset:0;stroke-opacity:1;visibility:visible;display:inline;overflow:visible;enable-background:accumulate"
     id="path3228"
     d="M 9.625,0.5 C 4.5670164,0.5 0.5,4.5670164 0.5,9.625 L 0.5,18.78125 C 6.9980288,21.8908 15.151882,23.75 24,23.75 C 32.848118,23.75 41.001971,21.8908 47.5,18.78125 L 47.5,9.625 C 47.5,4.5670164 43.432986,0.5 38.375,0.5 L 9.625,0.5 z" />
  <rect
     style="fill:none;fill-opacity:1;fill-rule:nonzero;stroke:url(#linearGradient3496);stroke-width:1;stroke-linecap:butt;stroke-linejoin:round;marker:none;stroke-miterlimit:4;stroke-dasharray:none;stroke-dashoffset:0;stroke-opacity:1;visibility:visible;display:inline;overflow:visible;enable-background:accumulate"
     id="r2393"
     y="0.5"
     x="0.5"
     ry="9.1299343"
     height="47"
     width="47" />
  <g
     id="g4703"
     transform="matrix(0.14728364,-0.01751532,0.01751532,0.14728364,6.2068601,7.4566193)">
    <rect
       x="0.5"
       y="0.5"
       width="166"
       height="241"
       rx="6"
       style="fill:#ffffff;stroke:#000000;stroke-width:1"
       id="card" />
    <rect
       id="rect4155"
       style="fill:none;stroke:#3d8eca;stroke-width:2;stroke-opacity:1"
       rx="5.336"
       height="222.55"
       width="147.636"
       y="9.724"
       x="9.6809998" />
    <rect
       x="14.958"
       y="14.559"
       width="137.082"
       height="212.881"
       rx="4.954"
       style="fill:#3d8eca;stroke-width:1.86199999;stroke-opacity:1"
       id="rect4157" />
    <path
       style="fill:#64a5d5;stroke-width:2;stroke-linecap:butt;marker:none"
       d="m 19.914,14.558 c -2.745,0 -4.956,2.21 -4.956,4.955 l 0,8.422 0.155,-0.268 5.262,9.116 -5.278,9.142 -0.139,-0.24 0,10.506 0.137,-0.236 5.264,9.115 -5.264,9.115 -0.137,-0.236 0,10.504 0.139,-0.241 5.262,9.116 -5.264,9.115 -0.137,-0.236 0,10.505 0.139,-0.24 5.264,9.115 -5.264,9.116 -0.139,-0.241 0,10.506 0.137,-0.236 5.264,9.115 -5.262,9.117 -0.139,-0.24 0,10.502 0.137,-0.236 5.264,9.115 -5.262,9.115 -0.139,-0.24 0,10.51 0.139,-0.24 5.278,9.142 -5.262,9.115 -0.155,-0.267 0,7.246 c 0,2.745 2.211,4.955 4.956,4.955 l 2.087,0 -3.994,-6.918 5.264,-9.115 5.262,9.115 -3.994,6.918 5.789,0 1.099,-1.904 1.1,1.904 5.789,0 -3.994,-6.918 5.263,-9.115 5.262,9.115 -3.994,6.918 5.793,0 1.098,-1.902 1.097,1.902 5.791,0 -3.994,-6.916 5.262,-9.115 5.264,9.115 -3.993,6.916 5.789,0 1.098,-1.902 1.098,1.902 5.793,0 -3.994,-6.918 5.261,-9.115 5.264,9.115 -3.994,6.918 5.787,0 1.1,-1.904 1.099,1.904 5.789,0 -3.994,-6.918 5.264,-9.115 5.263,9.115 -3.994,6.918 5.793,0 1.098,-1.902 1.098,1.902 5.789,0 -3.995,-6.916 5.264,-9.115 5.262,9.115 -3.992,6.916 5.789,0 1.097,-1.902 1.098,1.902 5.795,0 -3.996,-6.92 5.279,-9.143 5.262,9.116 -4.01,6.947 5.789,0 1.115,-1.932 1.116,1.932 5.791,0 -4.012,-6.947 5.264,-9.116 5.252,9.096 -4.024,6.967 5.793,0 1.125,-1.949 1.125,1.949 0.32,0 c 1.753,0 3.28,-0.906 4.161,-2.272 l -2.711,-4.693 3.506,-6.074 0,-16.115 -3.495,-6.053 3.495,-6.051 0,-16.154 -3.495,-6.053 3.495,-6.053 0,-16.152 -3.495,-6.053 3.495,-6.051 0,-16.16 -3.495,-6.05 3.495,-6.053 0,-16.154 -3.495,-6.051 3.495,-6.053 0,-16.154 -3.495,-6.051 3.495,-6.053 0,-16.115 -3.506,-6.074 3.039,-5.262 c -0.738,-1.598 -2.291,-2.733 -4.139,-2.861 l -1.795,3.109 -1.805,-3.127 -5.791,0 4.702,8.143 -5.252,9.095 -5.264,-9.115 4.689,-8.123 -5.789,0 -1.795,3.109 -1.794,-3.109 -5.79,0 4.69,8.123 -5.262,9.115 -5.279,-9.142 4.676,-8.096 -5.793,0 -1.778,3.08 -1.779,-3.08 -5.789,0 4.672,8.094 -5.262,9.115 -5.264,-9.115 4.674,-8.094 -5.789,0 -1.779,3.08 -1.777,-3.08 -5.793,0 4.675,8.096 -5.261,9.115 -5.264,-9.115 4.674,-8.096 -5.789,0 -1.779,3.082 -1.78,-3.082 -5.791,0 4.676,8.096 -5.264,9.115 -5.263,-9.115 4.675,-8.096 -5.793,0 -1.777,3.08 -1.777,-3.08 -5.789,0 4.672,8.094 -5.264,9.115 -5.262,-9.115 4.674,-8.094 -5.791,0 -1.777,3.08 -1.78,-3.08 -5.791,0 4.674,8.096 -5.262,9.115 -5.263,-9.115 4.676,-8.096 -5.791,0 -1.78,3.082 -1.779,-3.082 -5.789,0 4.674,8.096 -5.264,9.115 -5.262,-9.115 4.676,-8.096 -2.769,0 z m 11.513,13.109 5.264,9.116 -5.264,9.115 -5.261,-9.115 5.261,-9.116 z m 16.315,0 5.263,9.116 -5.263,9.115 -5.262,-9.115 5.262,-9.116 z m 16.316,0 5.264,9.116 -5.262,9.115 -5.264,-9.115 5.262,-9.116 z m 16.315,0 5.263,9.118 -5.261,9.113 -5.264,-9.115 5.262,-9.116 z m 16.316,0 5.262,9.116 -5.262,9.115 -5.264,-9.115 5.264,-9.116 z m 16.316,0 5.28,9.143 -5.264,9.115 -5.277,-9.142 5.261,-9.116 z m 16.33,0.028 5.264,9.115 -5.264,9.115 -5.261,-9.115 5.261,-9.115 z m 16.305,0.021 5.262,9.114 -5.252,9.095 -5.262,-9.115 5.252,-9.094 z m -122.369,14.08 5.262,9.116 -5.28,9.142 -5.261,-9.115 5.279,-9.143 z m 16.314,0 5.262,9.116 -5.262,9.115 -5.263,-9.115 5.263,-9.116 z m 32.631,0 5.264,9.116 -5.264,9.115 -5.263,-9.115 5.263,-9.116 z m 16.315,0 5.263,9.116 -5.263,9.115 -5.262,-9.115 5.262,-9.116 z m -32.631,0.002 5.264,9.116 -5.262,9.115 -5.264,-9.115 5.262,-9.116 z m 48.947,0 5.278,9.143 -5.262,9.115 -5.278,-9.142 5.262,-9.116 z m 16.332,0.026 5.262,9.115 -5.262,9.115 -5.263,-9.115 5.263,-9.115 z m 16.315,0 5.261,9.115 -5.261,9.115 -5.262,-9.115 5.262,-9.115 z m -106.067,14.101 5.264,9.116 -5.279,9.142 -5.262,-9.115 5.277,-9.143 z m 48.948,0 5.261,9.116 -5.261,9.115 -5.264,-9.115 5.264,-9.116 z m -32.631,0.002 5.263,9.115 -5.263,9.116 -5.264,-9.116 5.264,-9.115 z m 16.314,0 5.264,9.115 -5.264,9.116 -5.264,-9.116 5.264,-9.115 z m 32.631,0 5.279,9.143 -5.263,9.115 -5.278,-9.143 5.262,-9.115 z m 16.332,0.028 5.262,9.115 -5.262,9.115 -5.264,-9.115 5.264,-9.115 z m 16.314,0 5.262,9.113 -5.262,9.115 -5.261,-9.115 5.261,-9.113 z m 16.317,0 5.264,9.115 -5.264,9.115 -5.264,-9.115 5.264,-9.115 z m -106.067,14.101 5.264,9.115 -5.279,9.143 -5.264,-9.115 5.279,-9.143 z m 16.315,0 5.264,9.115 -5.262,9.116 -5.264,-9.116 5.262,-9.115 z m 16.314,0 5.264,9.115 -5.262,9.116 -5.263,-9.116 5.261,-9.115 z m 16.319,0 5.277,9.143 -5.262,9.115 -5.279,-9.143 5.264,-9.115 z m -65.28,0.027 5.262,9.116 -5.262,9.115 -5.261,-9.115 5.261,-9.116 z m 81.61,0 5.262,9.116 -5.262,9.115 -5.262,-9.115 5.262,-9.116 z m 16.314,0 5.262,9.116 -5.262,9.115 -5.261,-9.115 5.261,-9.116 z m 16.317,0 5.263,9.116 -5.261,9.115 -5.264,-9.115 5.262,-9.116 z m -89.75,14.102 5.263,9.115 -5.279,9.145 -5.264,-9.117 5.28,-9.143 z m 16.314,0 5.264,9.115 -5.264,9.116 -5.264,-9.116 5.264,-9.115 z m 16.317,0.002 5.277,9.143 -5.262,9.115 -5.279,-9.143 5.264,-9.115 z m 16.332,0.025 5.261,9.116 -5.263,9.115 -5.262,-9.115 5.264,-9.116 z m 48.945,0 5.262,9.116 -5.262,9.115 -5.264,-9.115 5.264,-9.116 z m -114.24,0.002 5.263,9.116 -5.263,9.115 -5.262,-9.115 5.262,-9.116 z m 81.609,0 5.262,9.114 -5.264,9.115 -5.262,-9.115 5.264,-9.114 z m 16.314,0 5.264,9.116 -5.264,9.115 -5.261,-9.115 5.261,-9.116 z m -73.435,14.1 5.264,9.115 -5.28,9.143 -5.261,-9.115 5.277,-9.143 z m 16.316,0.002 5.28,9.142 -5.264,9.116 -5.277,-9.143 5.261,-9.115 z m 32.647,0.025 5.262,9.116 -5.262,9.115 -5.262,-9.115 5.262,-9.116 z m -81.61,0.002 5.264,9.115 -5.262,9.116 -5.263,-9.116 5.261,-9.115 z m 16.315,0 5.264,9.117 -5.262,9.114 -5.264,-9.116 5.262,-9.115 z m 48.978,0 5.264,9.115 -5.264,9.116 -5.261,-9.116 5.261,-9.115 z m 32.631,0 5.264,9.115 -5.262,9.116 -5.263,-9.116 5.261,-9.115 z m 16.317,0 5.261,9.115 -5.261,9.116 -5.264,-9.116 5.264,-9.115 z m -73.434,14.102 5.277,9.142 -5.279,9.143 -5.277,-9.143 5.279,-9.142 z m -32.648,0.027 5.263,9.115 -5.263,9.116 -5.262,-9.116 5.262,-9.115 z m 16.314,0 5.264,9.115 -5.264,9.116 -5.262,-9.116 5.262,-9.115 z m 32.664,0 5.262,9.115 -5.262,9.116 -5.264,-9.116 5.264,-9.115 z m 16.315,0 5.261,9.115 -5.261,9.116 -5.262,-9.116 5.262,-9.115 z m 16.316,0 5.264,9.115 -5.264,9.116 -5.264,-9.116 5.264,-9.115 z m 16.314,0 5.264,9.115 -5.264,9.116 -5.261,-9.116 5.261,-9.115 z m 16.315,0 5.264,9.115 -5.262,9.116 -5.264,-9.116 5.262,-9.115 z m -122.397,14.129 5.264,9.115 -5.262,9.116 -5.263,-9.116 5.261,-9.115 z m 16.317,0 5.262,9.115 -5.262,9.116 -5.264,-9.116 5.264,-9.115 z m 32.662,0 5.264,9.115 -5.28,9.143 -5.261,-9.115 5.277,-9.143 z m 16.316,0 5.262,9.115 -5.264,9.116 -5.261,-9.116 5.263,-9.115 z m 32.631,0 5.262,9.115 -5.262,9.116 -5.263,-9.116 5.263,-9.115 z m 16.315,0 5.261,9.115 -5.261,9.116 -5.264,-9.116 5.264,-9.115 z m -81.61,0.002 5.28,9.143 -5.264,9.115 -5.277,-9.143 5.261,-9.115 z m 48.979,0 5.263,9.117 -5.263,9.113 -5.264,-9.115 5.264,-9.115 z m -73.451,14.127 5.263,9.115 -5.263,9.115 -5.262,-9.115 5.262,-9.115 z m 48.978,0 5.262,9.115 -5.277,9.143 -5.264,-9.115 5.279,-9.143 z m 48.945,0 5.264,9.115 -5.264,9.115 -5.263,-9.115 5.263,-9.115 z m -81.607,0.002 5.277,9.143 -5.261,9.115 -5.28,-9.143 5.264,-9.115 z m 48.977,0 5.263,9.115 -5.261,9.115 -5.264,-9.115 5.262,-9.115 z m 16.314,0 5.264,9.115 -5.262,9.115 -5.264,-9.115 5.262,-9.115 z m 32.633,0 5.262,9.115 -5.262,9.115 -5.262,-9.115 5.262,-9.115 z m -81.594,0.027 5.262,9.116 -5.262,9.115 -5.262,-9.115 5.262,-9.116 z m -40.805,14.102 5.264,9.115 -5.264,9.115 -5.263,-9.115 5.263,-9.115 z m 16.317,0 5.279,9.142 -5.264,9.116 -5.277,-9.143 5.262,-9.115 z m 48.978,0 5.264,9.115 -5.279,9.143 -5.264,-9.116 5.279,-9.142 z m 16.315,0 5.263,9.115 -5.263,9.115 -5.264,-9.115 5.264,-9.115 z m 16.314,0 5.264,9.115 -5.264,9.115 -5.261,-9.115 5.261,-9.115 z m 16.319,0 5.261,9.115 -5.263,9.115 -5.262,-9.115 5.264,-9.115 z m -81.594,0.027 5.262,9.115 -5.264,9.116 -5.262,-9.116 5.264,-9.115 z m 16.314,0 5.262,9.115 -5.264,9.116 -5.261,-9.116 5.263,-9.115 z m 24.489,14.102 5.263,9.115 -5.279,9.143 -5.262,-9.116 5.278,-9.142 z m 16.314,0 5.264,9.115 -5.262,9.115 -5.264,-9.115 5.262,-9.115 z m 32.633,0 5.262,9.115 -5.262,9.115 -5.264,-9.115 5.264,-9.115 z m -114.24,0.002 5.279,9.142 -5.264,9.116 -5.277,-9.143 5.262,-9.115 z m 97.923,0 5.262,9.115 -5.262,9.115 -5.261,-9.115 5.261,-9.115 z m -81.591,0.025 5.261,9.115 -5.261,9.116 -5.262,-9.116 5.262,-9.115 z m 16.314,0 5.262,9.115 -5.262,9.116 -5.262,-9.116 5.262,-9.115 z m 16.317,0.002 5.261,9.115 -5.261,9.116 -5.264,-9.116 5.264,-9.115 z m 24.488,14.1 5.263,9.115 -5.279,9.142 -5.264,-9.115 5.28,-9.142 z m -81.608,0.002 5.278,9.142 -5.262,9.115 -5.279,-9.142 5.263,-9.115 z m 97.924,0 5.262,9.115 -5.262,9.115 -5.263,-9.115 5.263,-9.115 z m 16.315,0 5.261,9.115 -5.261,9.115 -5.264,-9.115 5.264,-9.115 z m -81.592,0.025 5.262,9.115 -5.264,9.115 -5.262,-9.115 5.264,-9.115 z m -16.317,0.002 5.262,9.115 -5.262,9.115 -5.263,-9.115 5.263,-9.115 z m 32.631,0 5.264,9.115 -5.264,9.117 -5.263,-9.117 5.263,-9.115 z m 16.315,0 5.263,9.115 -5.263,9.115 -5.262,-9.115 5.262,-9.115 z m 24.49,14.102 5.264,9.115 -5.28,9.142 -5.261,-9.115 5.277,-9.142 z m 16.314,0 5.264,9.115 -5.264,9.115 -5.261,-9.115 5.261,-9.115 z m 16.315,0 5.252,9.095 -5.262,9.115 -5.252,-9.095 5.262,-9.115 z m -114.223,0.027 5.264,9.115 -5.264,9.115 -5.261,-9.115 5.261,-9.115 z m 16.317,0 5.261,9.115 -5.263,9.115 -5.262,-9.115 5.264,-9.115 z m 16.314,0 5.264,9.115 -5.262,9.115 -5.264,-9.115 5.262,-9.115 z m 16.317,0 5.261,9.115 -5.261,9.115 -5.264,-9.115 5.264,-9.115 z m 16.314,0 5.262,9.115 -5.262,9.115 -5.264,-9.115 5.264,-9.115 z"
       id="rect4159" />
    <circle
       style="fill:#64a5d5;stroke-width:2;stroke-linecap:butt;marker:none"
       id="path4244"
       cx="83.5"
       cy="121"
       r="25.969999" />
    <circle
       r="22.358999"
       cy="121"
       cx="83.5"
       id="circle4246"
       style="fill:#3d8eca;stroke-width:2;stroke-linecap:butt;marker:none" />
  </g>
  <g
     transform="matrix(0.14708757,0.00833308,-0.00833308,0.14708757,16.386701,5.7473232)"
     id="g4693">
    <rect
       x="0.5"
       y="0.5"
       width="166"
       height="241"
       rx="6"
       style="fill:#ffffff;stroke:#000000;stroke-width:1"
       id="card-0" />
    <g
       id="upleft-0">
      <path
         style="fill:#000000;stroke:none"
         d="m 14.616,42.503 c -1.81,0 -3.281,1.471 -3.281,3.286 0,0.936 0.396,1.776 1.026,2.373 0.487,0.463 1.179,1.514 1.408,2.354 -0.448,-0.272 -0.854,-0.582 -1.098,-0.835 -0.601,-0.63 -1.442,-1.017 -2.378,-1.017 -1.81,0 -3.281,1.471 -3.281,3.286 0,1.814 1.471,3.281 3.281,3.281 0.936,0 1.776,-0.396 2.378,-1.026 0.257,-0.267 0.687,-0.611 1.17,-0.893 -0.066,3.009 -1.103,4.976 -2.985,4.976 0,0 7.532,0 7.532,0 -1.886,0 -2.932,-1.977 -2.994,-5 0.506,0.291 0.974,0.64 1.241,0.917 0.597,0.63 1.437,1.026 2.373,1.026 1.814,0 3.286,-1.466 3.286,-3.281 0,-1.814 -1.471,-3.286 -3.286,-3.286 -0.936,0 -1.776,0.386 -2.373,1.017 -0.253,0.267 -0.692,0.582 -1.17,0.859 0.224,-0.845 0.931,-1.91 1.418,-2.378 0.63,-0.597 1.017,-1.437 1.017,-2.373 0,-1.814 -1.471,-3.286 -3.286,-3.286 z"
         id="fig-6" />
      <text
         transform="scale(0.7,1.255)"
         y="24.964001"
         x="16.181999"
         style="font-size:25.39999962px;font-family:sans-serif;text-align:center;letter-spacing:-5px;text-anchor:middle;fill:#000000"
         id="text4654">
        <tspan
           y="25"
           x="20"
           id="tspan4656">7</tspan>
      </text>
    </g>
    <use
       height="100%"
       width="100%"
       y="0"
       x="0"
       transform="matrix(-1,0,0,-1,167,242)"
       id="downright-0"
       xlink:href="#upleft-0" />
    <g
       transform="translate(33,-21)"
       id="g4659">
      <use
         height="100%"
         width="100%"
         y="0"
         x="0"
         transform="matrix(2.1,0,0,2.1,-16.13,-55.46)"
         xlink:href="#fig-6"
         id="use4661" />
    </g>
    <g
       transform="translate(33,71)"
       id="g4663">
      <use
         height="100%"
         width="100%"
         y="0"
         x="0"
         transform="matrix(2.1,0,0,2.1,-16.13,-55.46)"
         xlink:href="#fig-6"
         id="use4665" />
    </g>
    <g
       transform="translate(33,163)"
       id="g4667">
      <use
         height="100%"
         width="100%"
         y="0"
         x="0"
         transform="matrix(2.1,0,0,-2.1,-16.13,156.25)"
         xlink:href="#fig-6"
         id="use4669" />
    </g>
    <g
       transform="translate(69,10)"
       id="g4671">
      <use
         height="100%"
         width="100%"
         y="0"
         x="0"
         transform="matrix(2.1,0,0,2.1,-16.13,-55.46)"
         xlink:href="#fig-6"
         id="use4673" />
    </g>
    <g
       transform="translate(105,-21)"
       id="g4675">
      <use
         height="100%"
         width="100%"
         y="0"
         x="0"
         transform="matrix(2.1,0,0,2.1,-16.13,-55.46)"
         xlink:href="#fig-6"
         id="use4677" />
    </g>
    <g
       transform="translate(105,71)"
       id="g4679">
      <use
         height="100%"
         width="100%"
         y="0"
         x="0"
         transform="matrix(2.1,0,0,2.1,-16.13,-55.46)"
         xlink:href="#fig-6"
         id="use4681" />
    </g>
    <g
       transform="translate(105,163)"
       id="g4683">
      <use
         height="100%"
         width="100%"
         y="0"
         x="0"
         transform="matrix(2.1,0,0,-2.1,-16.13,156.25)"
         xlink:href="#fig-6"
         id="use4685" />
    </g>
  </g>
</svg>
