<?xml version="1.0" encoding="UTF-8" standalone="no"?>
<!-- Created with Inkscape (http://www.inkscape.org/) -->
<svg
   xmlns:svg="http://www.w3.org/2000/svg"
   xmlns="http://www.w3.org/2000/svg"
   xmlns:xlink="http://www.w3.org/1999/xlink"
   version="1.0"
   width="100%"
   height="100%"
   viewBox="0 0 48 48"
   id="ontology">
  <defs
     id="defs2385">
    <linearGradient
       id="linearGradient3220">
      <stop
         id="stop3222"
         style="stop-color:#b9d1f9;stop-opacity:1"
         offset="0" />
      <stop
         id="stop3224"
         style="stop-color:#0e1f77;stop-opacity:1"
         offset="1" />
    </linearGradient>
    <linearGradient
       id="linearGradient3210">
      <stop
         id="stop3212"
         style="stop-color:#1e327e;stop-opacity:1"
         offset="0" />
      <stop
         id="stop3214"
         style="stop-color:#82c2fa;stop-opacity:1"
         offset="1" />
    </linearGradient>
    <linearGradient
       x1="24"
       y1="48"
       x2="24"
       y2="0"
       id="linearGradient3496"
       xlink:href="#linearGradient3210"
       gradientUnits="userSpaceOnUse" />
    <radialGradient
       cx="24"
       cy="43.228447"
       r="23.5"
       fx="24"
       fy="43.228447"
       id="radialGradient3597"
       xlink:href="#linearGradient3220"
       gradientUnits="userSpaceOnUse"
       gradientTransform="matrix(2.351355,0,0,1.8182318,-32.43252,-35.370889)" />
    <linearGradient
       id="linearGradient4347">
      <stop
         id="stop4349"
         style="stop-color:#acb0a7;stop-opacity:1"
         offset="0" />
      <stop
         id="stop4351"
         style="stop-color:#ffffff;stop-opacity:1"
         offset="1" />
    </linearGradient>
    <linearGradient
       id="linearGradient4933">
      <stop
         id="stop4935"
         style="stop-color:#ffffff;stop-opacity:1"
         offset="0" />
      <stop
         id="stop4937"
         style="stop-color:#ffffff;stop-opacity:0"
         offset="1" />
    </linearGradient>
    <linearGradient
       x1="22.120455"
       y1="3.5600939"
       x2="22.120455"
       y2="26.366886"
       id="linearGradient2518"
       xlink:href="#linearGradient4933"
       gradientUnits="userSpaceOnUse"
       gradientTransform="matrix(0.8950846,0,0,0.846007,3.8685744,5.2253769)" />
    <linearGradient
       x1="28.820486"
       y1="35.237659"
       x2="17.993687"
       y2="-11.102687"
       id="linearGradient2522"
       xlink:href="#linearGradient4347"
       gradientUnits="userSpaceOnUse"
       gradientTransform="matrix(0.8668913,0,0,0.8193596,3.5498683,4.7606878)" />
  </defs>
  <path
     d="M 9.625,0.5 C 4.5670164,0.5 0.5,4.5670164 0.5,9.625 L 0.5,38.375 C 0.5,43.432984 4.5670164,47.5 9.625,47.5 L 38.375,47.5 C 43.432984,47.5 47.5,43.432986 47.5,38.375 L 47.5,9.625 C 47.5,4.5670164 43.432986,0.5 38.375,0.5 L 9.625,0.5 z"
     id="rect3218"
     style="fill:url(#radialGradient3597);fill-opacity:1;fill-rule:nonzero;stroke:none;stroke-width:1;stroke-linecap:butt;stroke-linejoin:round;marker:none;stroke-miterlimit:4;stroke-dasharray:none;stroke-dashoffset:0;stroke-opacity:1;visibility:visible;display:inline;overflow:visible;enable-background:accumulate" />
  <path
     d="M 9.625,0.5 C 4.5670164,0.5 0.5,4.5670164 0.5,9.625 L 0.5,18.78125 C 6.9980288,21.8908 15.151882,23.75 24,23.75 C 32.848118,23.75 41.001971,21.8908 47.5,18.78125 L 47.5,9.625 C 47.5,4.5670164 43.432986,0.5 38.375,0.5 L 9.625,0.5 z"
     id="path3228"
     style="fill:#caeef2;fill-opacity:0.34090911;fill-rule:evenodd;stroke:none;stroke-width:1;stroke-linecap:round;stroke-linejoin:round;marker:none;marker-start:none;marker-mid:none;marker-end:none;stroke-miterlimit:4;stroke-dasharray:none;stroke-dashoffset:0;stroke-opacity:1;visibility:visible;display:inline;overflow:visible;enable-background:accumulate" />
  <rect
     width="47"
     height="47"
     ry="9.1299343"
     x="0.5"
     y="0.5"
     id="r2393"
     style="fill:none;fill-opacity:1;fill-rule:nonzero;stroke:url(#linearGradient3496);stroke-width:1;stroke-linecap:butt;stroke-linejoin:round;marker:none;stroke-miterlimit:4;stroke-dasharray:none;stroke-dashoffset:0;stroke-opacity:1;visibility:visible;display:inline;overflow:visible;enable-background:accumulate" />
  <path
     d="M 17.826485,6.7834816 C 15.518019,6.8394764 13.605134,7.7111713 12.516775,9.6512402 C 11.773094,10.976899 12.28419,12.51363 13.329486,13.415175 C 13.350867,13.438259 13.327831,13.442634 13.356576,13.466385 C 13.427094,13.525226 13.510278,13.568906 13.60039,13.59441 C 13.613081,13.604312 13.641914,13.584739 13.65457,13.59441 C 13.970429,13.835751 14.298786,14.083376 14.548551,14.20893 C 14.764949,14.317709 14.841566,14.371276 14.900727,14.413769 C 14.901963,14.398383 14.902582,14.373319 14.900727,14.36256 C 14.90062,14.371631 14.916645,14.396686 15.009087,14.490584 C 15.013238,14.494801 14.920064,14.427658 14.900727,14.413769 C 14.89949,14.429156 14.907272,14.445421 14.900727,14.46498 C 14.885872,14.509352 14.835219,14.570633 14.792365,14.61861 C 14.770938,14.642599 14.721435,14.661291 14.711094,14.669818 C 12.415274,15.467838 8.8601334,15.644204 6.0150904,15.642808 C 5.5496328,15.64832 5.0895153,15.843365 4.7960246,16.231723 C 4.5025338,16.620082 4.4313703,17.11248 4.5793017,17.537577 C 5.4329497,20.108748 6.6546156,22.585722 7.5592405,25.756778 C 7.5590525,25.765314 7.5590525,25.773848 7.5592405,25.782383 C 7.7028926,26.25851 8.0849226,26.619597 8.588674,26.755373 C 9.1767976,26.913676 9.7580723,26.847654 10.214095,26.652952 C 10.603839,26.486549 10.871124,26.282351 11.053896,26.140853 C 11.76558,25.589891 12.041821,25.162795 12.408414,24.860604 C 12.428486,24.836319 12.446598,24.810641 12.462595,24.783788 C 12.465734,24.780799 12.483219,24.762509 12.489685,24.758183 C 12.526327,24.733679 12.589571,24.696277 12.679318,24.681369 C 12.754734,24.668841 12.791867,24.67923 12.814769,24.681369 C 13.734222,25.306568 14.066813,25.915407 14.006745,26.960213 C 13.991212,27.385436 13.87185,27.77726 13.790021,27.907596 C 13.678349,28.085472 13.669139,28.088337 13.437847,28.138042 C 13.428554,28.146324 13.419519,28.154862 13.410757,28.163647 C 13.392704,28.162935 13.374628,28.162935 13.356576,28.163647 C 12.965671,28.25529 12.668772,28.182897 12.029149,28.112436 C 11.333475,28.035802 10.298066,28.059136 9.3201135,28.675747 C 9.3110844,28.675568 9.3020523,28.675568 9.2930232,28.675747 C 8.7740571,29.011803 8.5476698,29.634462 8.6970354,30.212046 C 9.6611046,33.703077 10.403493,36.788669 11.270619,39.78831 C 11.270431,39.796845 11.270431,39.805381 11.270619,39.813916 C 11.398536,40.229369 11.738265,40.574983 12.191691,40.735695 C 12.645118,40.896407 13.133691,40.857616 13.546208,40.607669 C 16.800244,38.660445 20.567116,37.533799 24.490711,36.408452 C 24.95434,36.277308 25.331865,35.943565 25.493055,35.512278 C 25.691335,34.956663 25.617488,34.405613 25.411783,33.950375 C 25.232129,33.552785 24.980969,33.267097 24.815797,33.079804 C 24.412472,32.62247 23.996319,32.332337 23.650911,32.13242 C 23.305502,31.932502 23.03725,31.751879 23.082013,31.799555 C 23.051825,31.768381 23.006639,31.725672 22.973652,31.697135 C 22.89952,31.628793 22.890804,31.496957 22.892381,31.441085 C 23.474719,30.679439 24.584943,30.168121 25.601416,30.212046 C 25.610446,30.212223 25.619477,30.212223 25.628506,30.212046 C 25.644243,30.212278 25.639749,30.212281 25.655597,30.212046 C 26.099228,30.222914 26.616425,30.335495 26.901753,30.468096 C 27.235887,30.623377 27.277104,30.648772 27.308108,30.775356 C 27.305882,30.766263 27.306912,30.894003 27.226837,31.133824 C 27.146761,31.373649 27.003557,31.724064 26.874663,32.158025 C 26.651037,32.910929 26.673005,33.696729 26.874663,34.436868 C 27.081947,35.15601 27.86151,35.629258 28.635535,35.486672 C 32.128332,34.82175 35.827855,33.874916 40.365658,33.566299 C 40.927131,33.542374 41.398678,33.226653 41.638905,32.772544 C 41.879134,32.318432 41.838956,31.74057 41.530543,31.313061 C 39.654456,28.683807 37.7878,26.589707 36.843913,24.502132 C 36.859418,24.42513 36.889018,24.326365 36.925183,24.271689 C 36.956754,24.223961 36.979411,24.193848 37.006455,24.169269 C 37.00415,24.185118 37.136345,24.220992 37.439902,24.3229 C 37.799605,24.443658 38.287252,24.591194 38.875689,24.630159 C 38.895931,24.631499 38.909151,24.630244 38.92987,24.630159 C 38.938899,24.631051 38.947924,24.629336 38.956959,24.630159 C 40.332478,24.755493 41.733065,24.082277 42.316165,22.760996 L 42.343254,22.760996 C 42.351303,22.742445 42.362637,22.728593 42.370344,22.709784 C 42.376326,22.698245 42.391783,22.695866 42.397434,22.68418 C 42.408242,22.659166 42.417291,22.633505 42.424526,22.607365 C 43.057484,20.652756 42.517192,18.525259 41.124189,17.025478 C 39.997942,15.763426 38.229619,15.019086 36.410467,15.309944 C 35.478035,15.459027 34.865148,16.052596 34.514142,16.538984 C 34.212939,16.956361 34.048841,17.348635 33.918155,17.614393 C 33.911995,17.626922 33.896985,17.653649 33.891065,17.665602 C 33.882115,17.674928 33.863056,17.691518 33.863973,17.691208 C 33.851262,17.68983 33.600134,17.590821 33.5118,17.460764 C 32.368763,15.777843 31.630583,14.073455 30.260958,11.443589 C 30.251927,11.443411 30.242896,11.443411 30.233867,11.443589 C 29.876106,10.777013 29.03886,10.486875 28.310452,10.777859 C 28.301422,10.777682 28.292389,10.777682 28.283362,10.777859 C 25.698667,11.847149 24.051106,12.62178 22.838199,12.595815 C 22.633061,12.591379 22.419733,12.462128 22.160941,12.288555 C 22.474575,11.568551 22.8486,10.526601 22.486025,9.3439803 C 22.150628,8.2500134 21.23469,7.5509785 20.345888,7.1931615 C 19.488625,6.8480426 18.6033,6.7652059 17.826485,6.7834816 z"
     id="path2526"
     style="opacity:1;fill:none;fill-opacity:1;fill-rule:evenodd;stroke:#b6e0e5;stroke-width:2.5;stroke-linecap:butt;stroke-linejoin:round;marker:none;marker-start:none;marker-mid:none;marker-end:none;stroke-miterlimit:4;stroke-dasharray:none;stroke-dashoffset:0;stroke-opacity:0.56363639;visibility:visible;display:inline;overflow:visible;enable-background:accumulate" />
  <path
     d="M 17.826485,6.7834816 C 15.518019,6.8394764 13.605134,7.7111713 12.516775,9.6512402 C 11.773094,10.976899 12.28419,12.51363 13.329486,13.415175 C 13.350867,13.438259 13.327831,13.442634 13.356576,13.466385 C 13.427094,13.525226 13.510278,13.568906 13.60039,13.59441 C 13.613081,13.604312 13.641914,13.584739 13.65457,13.59441 C 13.970429,13.835751 14.298786,14.083376 14.548551,14.20893 C 14.764949,14.317709 14.841566,14.371276 14.900727,14.413769 C 14.901963,14.398383 14.902582,14.373319 14.900727,14.36256 C 14.90062,14.371631 14.916645,14.396686 15.009087,14.490584 C 15.013238,14.494801 14.920064,14.427658 14.900727,14.413769 C 14.89949,14.429156 14.907272,14.445421 14.900727,14.46498 C 14.885872,14.509352 14.835219,14.570633 14.792365,14.61861 C 14.770938,14.642599 14.721435,14.661291 14.711094,14.669818 C 12.415274,15.467838 8.8601334,15.644204 6.0150904,15.642808 C 5.5496328,15.64832 5.0895153,15.843365 4.7960246,16.231723 C 4.5025338,16.620082 4.4313703,17.11248 4.5793017,17.537577 C 5.4329497,20.108748 6.6546156,22.585722 7.5592405,25.756778 C 7.5590525,25.765314 7.5590525,25.773848 7.5592405,25.782383 C 7.7028926,26.25851 8.0849226,26.619597 8.588674,26.755373 C 9.1767976,26.913676 9.7580723,26.847654 10.214095,26.652952 C 10.603839,26.486549 10.871124,26.282351 11.053896,26.140853 C 11.76558,25.589891 12.041821,25.162795 12.408414,24.860604 C 12.428486,24.836319 12.446598,24.810641 12.462595,24.783788 C 12.465734,24.780799 12.483219,24.762509 12.489685,24.758183 C 12.526327,24.733679 12.589571,24.696277 12.679318,24.681369 C 12.754734,24.668841 12.791867,24.67923 12.814769,24.681369 C 13.734222,25.306568 14.066813,25.915407 14.006745,26.960213 C 13.991212,27.385436 13.87185,27.77726 13.790021,27.907596 C 13.678349,28.085472 13.669139,28.088337 13.437847,28.138042 C 13.428554,28.146324 13.419519,28.154862 13.410757,28.163647 C 13.392704,28.162935 13.374628,28.162935 13.356576,28.163647 C 12.965671,28.25529 12.668772,28.182897 12.029149,28.112436 C 11.333475,28.035802 10.298066,28.059136 9.3201135,28.675747 C 9.3110844,28.675568 9.3020523,28.675568 9.2930232,28.675747 C 8.7740571,29.011803 8.5476698,29.634462 8.6970354,30.212046 C 9.6611046,33.703077 10.403493,36.788669 11.270619,39.78831 C 11.270431,39.796845 11.270431,39.805381 11.270619,39.813916 C 11.398536,40.229369 11.738265,40.574983 12.191691,40.735695 C 12.645118,40.896407 13.133691,40.857616 13.546208,40.607669 C 16.800244,38.660445 20.567116,37.533799 24.490711,36.408452 C 24.95434,36.277308 25.331865,35.943565 25.493055,35.512278 C 25.691335,34.956663 25.617488,34.405613 25.411783,33.950375 C 25.232129,33.552785 24.980969,33.267097 24.815797,33.079804 C 24.412472,32.62247 23.996319,32.332337 23.650911,32.13242 C 23.305502,31.932502 23.03725,31.751879 23.082013,31.799555 C 23.051825,31.768381 23.006639,31.725672 22.973652,31.697135 C 22.89952,31.628793 22.890804,31.496957 22.892381,31.441085 C 23.474719,30.679439 24.584943,30.168121 25.601416,30.212046 C 25.610446,30.212223 25.619477,30.212223 25.628506,30.212046 C 25.644243,30.212278 25.639749,30.212281 25.655597,30.212046 C 26.099228,30.222914 26.616425,30.335495 26.901753,30.468096 C 27.235887,30.623377 27.277104,30.648772 27.308108,30.775356 C 27.305882,30.766263 27.306912,30.894003 27.226837,31.133824 C 27.146761,31.373649 27.003557,31.724064 26.874663,32.158025 C 26.651037,32.910929 26.673005,33.696729 26.874663,34.436868 C 27.081947,35.15601 27.86151,35.629258 28.635535,35.486672 C 32.128332,34.82175 35.827855,33.874916 40.365658,33.566299 C 40.927131,33.542374 41.398678,33.226653 41.638905,32.772544 C 41.879134,32.318432 41.838956,31.74057 41.530543,31.313061 C 39.654456,28.683807 37.7878,26.589707 36.843913,24.502132 C 36.859418,24.42513 36.889018,24.326365 36.925183,24.271689 C 36.956754,24.223961 36.979411,24.193848 37.006455,24.169269 C 37.00415,24.185118 37.136345,24.220992 37.439902,24.3229 C 37.799605,24.443658 38.287252,24.591194 38.875689,24.630159 C 38.895931,24.631499 38.909151,24.630244 38.92987,24.630159 C 38.938899,24.631051 38.947924,24.629336 38.956959,24.630159 C 40.332478,24.755493 41.733065,24.082277 42.316165,22.760996 L 42.343254,22.760996 C 42.351303,22.742445 42.362637,22.728593 42.370344,22.709784 C 42.376326,22.698245 42.391783,22.695866 42.397434,22.68418 C 42.408242,22.659166 42.417291,22.633505 42.424526,22.607365 C 43.057484,20.652756 42.517192,18.525259 41.124189,17.025478 C 39.997942,15.763426 38.229619,15.019086 36.410467,15.309944 C 35.478035,15.459027 34.865148,16.052596 34.514142,16.538984 C 34.212939,16.956361 34.048841,17.348635 33.918155,17.614393 C 33.911995,17.626922 33.896985,17.653649 33.891065,17.665602 C 33.882115,17.674928 33.863056,17.691518 33.863973,17.691208 C 33.851262,17.68983 33.600134,17.590821 33.5118,17.460764 C 32.368763,15.777843 31.630583,14.073455 30.260958,11.443589 C 30.251927,11.443411 30.242896,11.443411 30.233867,11.443589 C 29.876106,10.777013 29.03886,10.486875 28.310452,10.777859 C 28.301422,10.777682 28.292389,10.777682 28.283362,10.777859 C 25.698667,11.847149 24.051106,12.62178 22.838199,12.595815 C 22.633061,12.591379 22.419733,12.462128 22.160941,12.288555 C 22.474575,11.568551 22.8486,10.526601 22.486025,9.3439803 C 22.150628,8.2500134 21.23469,7.5509785 20.345888,7.1931615 C 19.488625,6.8480426 18.6033,6.7652059 17.826485,6.7834816 z"
     id="path3781"
     style="opacity:1;fill:#eeeeec;fill-opacity:1;fill-rule:evenodd;stroke:#555753;stroke-width:0.89453208;stroke-linecap:butt;stroke-linejoin:round;stroke-miterlimit:4;stroke-dasharray:none;stroke-opacity:1;" />
  <path
     d="M 17.861454,8.2282124 C 16.275395,8.2415083 14.695251,9.0476925 13.87045,10.335196 C 13.496836,11.027057 13.767483,11.907203 14.373818,12.408197 C 14.881955,12.893334 15.664019,13.05063 16.135614,13.529656 C 16.836326,14.241406 16.284867,15.674087 15.380194,16.001186 C 12.686484,16.975142 8.9674882,17.099846 6.0292771,17.098403 C 6.84192,19.54607 8.0870265,22.110334 9.0277987,25.408098 C 9.4396935,25.518965 9.7730236,25.291084 10.105952,25.033341 C 10.64152,24.618721 10.856008,24.246919 11.400334,23.79822 C 11.9676,23.257889 12.922586,23.062294 13.629544,23.458384 C 14.936967,24.317664 15.616509,25.543651 15.530447,27.040599 C 15.487647,28.212287 15.015287,29.297909 13.735053,29.567096 C 12.277974,29.908696 11.383244,29.106302 10.16063,29.877175 C 11.131975,33.394556 11.864836,36.46728 12.719889,39.42516 C 16.194769,37.34578 20.110094,36.191494 24.042756,35.063548 C 24.19409,34.639478 23.969138,34.359222 23.669065,34.018966 C 23.225806,33.516349 22.422615,33.272173 21.943226,32.761573 C 21.366694,32.230076 21.170702,31.360146 21.583676,30.688572 C 22.481529,29.445495 24.098079,28.717023 25.682546,28.785492 C 26.922527,28.815873 28.478878,29.276993 28.774678,30.48467 C 28.957338,31.230425 28.537096,31.904924 28.343218,32.557671 C 28.199258,33.042353 28.193389,33.588917 28.329078,34.086931 C 31.752547,33.435206 35.564226,32.472128 40.261433,32.152668 C 38.41819,29.569442 36.471647,27.394591 35.407504,24.982129 C 35.034058,24.13551 35.908313,22.71936 36.953571,22.739212 C 37.645719,22.752358 38.317642,23.180156 39.038962,23.214981 C 39.838227,23.308445 40.683706,22.91981 40.980533,22.195474 C 41.446592,20.756252 41.020204,19.10813 39.973792,17.981508 C 39.174056,17.085339 37.880629,16.563885 36.665932,16.758097 C 35.86739,16.885774 35.543459,17.730326 35.227729,18.355327 C 34.423058,19.609039 32.909763,19.233659 32.236394,18.24224 C 31.009551,16.43593 30.243392,14.703408 28.89121,12.107034 C 26.361641,13.153519 24.595859,14.078128 22.787294,14.03941 C 22.156761,14.025776 21.572514,13.792454 20.989544,13.325754 C 20.513482,12.944642 20.407433,12.320235 20.737856,11.830474 C 21.020516,11.191489 21.250908,10.492706 21.025497,9.757475 C 20.660463,8.5668374 19.101343,8.1946384 17.861454,8.2282124 z"
     id="path4761"
     style="opacity:1;fill:url(#linearGradient2522);fill-opacity:1;fill-rule:evenodd;stroke:none;stroke-width:1;stroke-linecap:butt;stroke-linejoin:round;stroke-miterlimit:4;stroke-dasharray:none;stroke-opacity:1;" />
  <path
     d="M 17.938184,8.2392766 C 16.352125,8.2525725 14.763077,9.0667907 13.938276,10.354294 C 13.564662,11.046155 13.835425,11.915443 14.44176,12.416436 C 14.949898,12.901575 15.732364,13.074234 16.203958,13.55326 C 16.90467,14.265011 16.353403,15.684868 15.448731,16.011967 C 12.75502,16.985923 9.0444965,17.123794 6.1062857,17.122352 C 6.4852824,18.263882 6.9565294,19.436612 7.4489125,20.691444 C 16.25644,19.489555 14.934825,23.12042 19.503218,24.487201 C 23.976676,25.825579 30.440139,19.598253 35.839875,25.767485 C 35.70884,25.517031 35.588727,25.255791 35.476247,25.000791 C 35.102801,24.154171 35.969415,22.733734 37.014673,22.753585 C 37.706821,22.76673 38.391208,23.194639 39.112528,23.229464 C 39.911793,23.322927 40.745727,22.922728 41.042554,22.198393 C 41.508613,20.75917 41.081996,19.121417 40.035584,17.994796 C 39.235848,17.098627 37.949656,16.584448 36.734959,16.778661 C 35.936417,16.906338 35.624148,17.739923 35.308419,18.364924 C 34.503746,19.618637 32.988849,19.250592 32.31548,18.259173 C 31.088638,16.452864 30.311095,14.721995 28.958912,12.125621 C 26.429346,13.172106 24.669714,14.094294 22.861149,14.055576 C 22.230616,14.041942 21.65395,13.808457 21.07098,13.341758 C 20.594919,12.960646 20.488815,12.324567 20.819238,11.834806 C 21.101899,11.195821 21.324364,10.507895 21.098951,9.7726641 C 20.733918,8.5820267 19.178073,8.2057026 17.938184,8.2392766 z"
     id="path4925"
     style="opacity:0.86881193;fill:url(#linearGradient2518);fill-opacity:1;fill-rule:evenodd;stroke:none;stroke-width:1;stroke-linecap:butt;stroke-linejoin:round;stroke-miterlimit:4;stroke-dasharray:none;stroke-opacity:1;" />
</svg>
