<?xml version="1.0" encoding="UTF-8" standalone="no"?>
<!-- Created with Inkscape (http://www.inkscape.org/) -->
<svg
   xmlns:svg="http://www.w3.org/2000/svg"
   xmlns="http://www.w3.org/2000/svg"
   xmlns:xlink="http://www.w3.org/1999/xlink"
   version="1.0"
   width="100%"
   height="100%"
   viewBox="0 0 48 48"
   id="ontology">
  <defs
     id="defs2385">
    <linearGradient
       id="linearGradient3929">
      <stop
         id="stop3931"
         style="stop-color:#e38c64;stop-opacity:0.61403507"
         offset="0" />
      <stop
         id="stop3933"
         style="stop-color:#e6c699;stop-opacity:0"
         offset="1" />
    </linearGradient>
    <linearGradient
       id="linearGradient3921">
      <stop
         id="stop3923"
         style="stop-color:#d4954f;stop-opacity:0.49122807"
         offset="0" />
      <stop
         id="stop3925"
         style="stop-color:#e69999;stop-opacity:0"
         offset="1" />
    </linearGradient>
    <linearGradient
       id="linearGradient3220">
      <stop
         id="stop3222"
         style="stop-color:#ff8282;stop-opacity:1"
         offset="0" />
      <stop
         id="stop3224"
         style="stop-color:#7b0606;stop-opacity:1"
         offset="1" />
    </linearGradient>
    <linearGradient
       id="linearGradient3210">
      <stop
         id="stop3212"
         style="stop-color:#491010;stop-opacity:1"
         offset="0" />
      <stop
         id="stop3214"
         style="stop-color:#b50707;stop-opacity:1"
         offset="1" />
    </linearGradient>
    <linearGradient
       x1="24"
       y1="48"
       x2="24"
       y2="0"
       id="linearGradient3496"
       xlink:href="#linearGradient3210"
       gradientUnits="userSpaceOnUse" />
    <radialGradient
       cx="24"
       cy="43.228447"
       r="23.5"
       fx="24"
       fy="43.228447"
       id="radialGradient3597"
       xlink:href="#linearGradient3220"
       gradientUnits="userSpaceOnUse"
       gradientTransform="matrix(2.351355,0,0,1.8182318,-32.43252,-35.370889)" />
    <radialGradient
       cx="24"
       cy="24"
       r="23.5"
       fx="24"
       fy="24"
       id="radialGradient3927"
       xlink:href="#linearGradient3921"
       gradientUnits="userSpaceOnUse"
       gradientTransform="matrix(1.3943123,0,0,1.2376551,-9.463496,-5.7037232)" />
    <radialGradient
       cx="24"
       cy="24"
       r="23.5"
       fx="24"
       fy="24"
       id="radialGradient3935"
       xlink:href="#linearGradient3929"
       gradientUnits="userSpaceOnUse" />
  </defs>
  <path
     d="M 9.625,0.5 C 4.5670164,0.5 0.5,4.5670164 0.5,9.625 L 0.5,38.375 C 0.5,43.432984 4.5670164,47.5 9.625,47.5 L 38.375,47.5 C 43.432984,47.5 47.5,43.432986 47.5,38.375 L 47.5,9.625 C 47.5,4.5670164 43.432986,0.5 38.375,0.5 L 9.625,0.5 z"
     id="rect3218"
     style="fill:url(#radialGradient3597);fill-opacity:1;fill-rule:nonzero;stroke:none;stroke-width:1;stroke-linecap:butt;stroke-linejoin:round;marker:none;stroke-miterlimit:4;stroke-dasharray:none;stroke-dashoffset:0;stroke-opacity:1;visibility:visible;display:inline;overflow:visible;enable-background:accumulate" />
  <path
     d="M 22.677419,2.9990457 C 22.387419,3.0090457 22.107419,3.0290457 21.867419,3.0590457 C 19.807419,3.2890457 18.427419,4.5590457 18.427419,5.9990457 C 18.427419,6.4790457 18.477419,7.1690457 18.927419,7.8090457 C 19.377419,8.4490457 20.147419,8.9890457 21.397419,9.4990457 L 21.427419,9.4290457 C 21.787419,9.7190457 22.287419,10.039046 23.017419,10.219046 C 23.047419,10.599046 23.007419,11.539046 22.987419,11.969046 C 21.097419,12.109046 19.227419,12.559046 17.487419,13.339046 C 17.227419,13.009046 16.897419,12.759046 16.587419,12.899046 C 15.837419,13.229046 14.017419,14.189046 13.367419,14.679046 C 13.157419,14.519046 12.687419,13.769046 12.397419,14.059046 C 12.107419,14.349046 10.787419,15.489046 10.457419,15.899046 C 10.127419,16.309046 10.087419,16.439046 10.207419,16.559046 C 10.327419,16.679046 10.587419,16.939046 10.837419,17.179046 C 10.547419,17.509046 9.157419,19.759046 8.987419,20.219046 C 8.857419,20.579046 9.087419,20.919046 9.487419,21.149046 C 6.367419,27.739046 8.007419,35.929046 13.957419,40.969046 C 21.047419,46.949046 31.577419,46.209046 37.457419,39.309046 C 43.337419,32.409046 42.357419,21.949046 35.267419,15.969046 C 32.777419,13.859046 29.857419,12.589046 26.867419,12.119046 C 26.847419,11.839046 26.767419,10.639046 26.797419,10.219046 C 27.307419,10.089046 27.697419,9.8890457 28.017419,9.6790457 C 29.007419,9.3790457 30.087419,8.9890457 30.737419,8.1490457 C 31.397419,7.3090457 31.327419,6.2290457 30.897419,5.4290457 C 30.457419,4.6390457 29.717419,4.0190457 28.867419,3.6790457 C 28.037419,3.3490457 26.837419,3.1890457 25.517419,3.0890457 C 24.537419,3.0090457 23.537419,2.9690457 22.677419,2.9990457 z M 22.017419,4.5590457 C 22.057419,4.5590457 22.107419,4.5590457 22.147419,4.5590457 L 22.087419,5.0590457 L 22.897419,6.5890457 C 22.737419,6.5890457 22.617419,6.5890457 22.457419,6.5890457 C 21.787419,6.5890457 20.897419,7.3390457 20.897419,7.3390457 C 20.897419,7.3390457 20.897419,7.5190457 20.897419,7.5590457 C 20.527419,7.3290457 20.297419,7.1090457 20.177419,6.9290457 C 19.957419,6.6190457 19.927419,6.3890457 19.927419,5.9990457 C 19.927419,5.6890457 20.517419,4.7290457 22.017419,4.5590457 z M 27.797419,4.9290457 C 28.007419,4.9790457 28.187419,5.0090457 28.297419,5.0590457 C 28.837419,5.2690457 29.357419,5.7290457 29.587419,6.1490457 C 29.807419,6.5690457 29.847419,6.8690457 29.547419,7.2490457 C 29.467419,7.3590457 29.237419,7.4990457 28.957419,7.6490457 C 28.957419,7.5690457 28.957419,7.3390457 28.957419,7.3390457 C 28.957419,7.3390457 28.037419,6.5890457 27.367419,6.5890457 C 27.267419,6.5890457 27.177419,6.5890457 27.087419,6.5890457 L 27.797419,5.0890457 L 27.797419,4.9290457 z"
     id="path3731"
     style="fill:none;fill-opacity:0.5;fill-rule:evenodd;stroke:#f3cbcb;stroke-width:2.5;stroke-linecap:butt;stroke-linejoin:miter;marker:none;stroke-miterlimit:4;stroke-dasharray:none;stroke-dashoffset:0;stroke-opacity:0.61363639;visibility:visible;display:inline;overflow:visible;enable-background:accumulate" />
  <path
     d="M 28.25,0.5 C 27.167616,4.9305774 25.119856,14.011884 23.96875,18.84375 C 21.493952,13.401838 17.389622,4.1785036 17.25,4.21875 C 17.092558,4.2641327 21.041661,16.708899 22.5,21.5625 C 19.627409,19.563568 9.6423875,12.073351 1.3125,5.875 C 1.1884026,6.1509179 1.0654739,6.4289056 0.96875,6.71875 C 6.4429049,11.081918 12.722998,16.04233 16.90625,19.40625 C 10.45899,16.552393 1.3388958,12.467733 0.5,12.25 L 0.5,12.3125 C 1.3315445,13.022226 14.832084,21.036 19.6875,24.03125 C 13.922337,24.691795 2.7551005,25.847878 2.75,26 C 2.7453928,26.137409 11.828454,26.22171 17.8125,26.3125 C 13.638375,29.311678 6.6913651,34.208933 0.5,38.59375 C 0.50791462,38.932218 0.55028816,39.265562 0.59375,39.59375 C 7.994239,34.703186 16.48019,29.073841 20.3125,26.625 C 16.600622,30.859091 4.9158078,43.663196 5.0625,43.8125 C 5.2093553,43.96197 18.247248,32.466689 22.53125,28.84375 C 21.488732,34.070728 18.847251,46.444646 19,46.5 C 19.13826,46.550105 22.476246,36.588727 24.375,31.0625 C 25.722105,35.317242 27.677589,41.632821 29.5,47.5 L 30.53125,47.5 C 28.895545,41.59637 27.126726,35.242667 25.96875,30.96875 C 28.709931,35.657704 33.513709,44.037798 35.59375,47.5 L 36.03125,47.5 C 34.493357,43.662229 30.1714,33.599732 28.1875,28.8125 C 33.0546,31.552486 43.434366,37.530613 43.53125,37.40625 C 43.6389,37.268069 31.499714,28.358622 28.25,25.84375 C 28.946508,25.681783 29.938662,25.445767 31.125,25.1875 C 31.141559,25.183895 31.170866,25.19112 31.1875,25.1875 C 35.554682,25.2246 41.726495,25.328804 47.5,25.40625 L 47.5,24.40625 C 43.895033,24.248521 40.349376,24.086864 37.03125,23.9375 C 40.790641,23.135253 44.667353,22.287391 47.5,21.65625 L 47.5,20.9375 C 42.848113,21.296772 35.106167,21.9909 30.40625,22.375 C 34.784975,18.365962 42.520086,11.403322 42.4375,11.28125 C 42.338813,11.135379 29.97306,20.026551 26.65625,22.28125 C 26.672672,21.717633 26.839598,19.573258 27.125,16.78125 C 28.593042,12.392122 30.713715,6.2255441 32.65625,0.5 L 31.59375,0.5 C 30.275011,4.0196225 28.976502,7.4822011 27.75,10.75 C 28.164185,6.7814232 28.58518,2.9597248 28.8125,0.5 L 28.25,0.5 z"
     id="path3901"
     style="opacity:1;fill:url(#radialGradient3927);fill-opacity:1;fill-rule:evenodd;stroke:none;stroke-width:2.5;stroke-linecap:round;stroke-linejoin:round;marker:none;marker-start:none;marker-mid:none;marker-end:none;stroke-miterlimit:4;stroke-dasharray:none;stroke-dashoffset:0;stroke-opacity:0.61363639;visibility:visible;display:inline;overflow:visible;enable-background:accumulate" />
  <path
     d="M 20.9375,0.5 C 21.683672,7.1402134 22.526682,14.627069 22.96875,18.90625 C 19.592108,15.160442 11.952322,6.4130914 7.03125,0.875 C 6.6695696,0.98143466 6.309994,1.1016654 5.96875,1.25 C 10.130611,7.4539119 16.987639,17.476577 19.75,21.65625 C 14.04786,19.89685 5.0125374,17.022943 4.96875,17.15625 C 4.9286095,17.278454 12.377815,19.861333 18,21.8125 C 13.399148,21.045526 6.4956066,19.837699 0.5,18.8125 L 0.5,19.59375 C 7.9787338,21.134947 16.701416,22.903145 20.6875,23.78125 C 19.611771,24.390629 8.9029661,28.981865 0.5,32.625 L 0.5,34.34375 C 7.8731745,32.212371 17.099315,29.499294 20.875,28.46875 C 20.838989,28.538286 20.818036,28.585298 20.78125,28.65625 C 17.328306,33.551078 12.360956,40.483654 12.46875,40.5625 C 12.553128,40.624219 15.766861,36.402831 18.90625,32.25 C 16.47735,36.886183 13.384186,42.759755 10.90625,47.5 L 11.65625,47.5 C 15.33696,41.059012 20.015122,32.758696 22.59375,28.3125 C 22.797683,29.144626 23.7053,38.807091 24.53125,47.5 L 26.5625,47.5 C 26.849624,38.323743 27.133018,28.021127 27.28125,27.90625 C 27.47542,28.10226 27.632751,28.254876 27.84375,28.46875 C 31.427989,33.252502 36.949622,40.737707 37.0625,40.65625 C 37.151261,40.592196 33.821783,35.852386 30.71875,31.40625 C 34.959556,35.743987 40.304755,41.26442 44.28125,45.3125 C 44.429567,45.186498 44.578871,45.072627 44.71875,44.9375 C 40.25639,39.990445 33.818929,32.974179 29.625,28.34375 C 33.280598,29.116032 40.851201,30.853688 47.5,32.34375 L 47.5,30.34375 C 38.745034,27.192298 28.658495,23.586332 28.59375,23.40625 C 28.587247,23.388162 28.804312,22.975387 28.90625,22.78125 C 34.364408,20.906057 44.795828,17.455099 44.75,17.3125 C 44.708686,17.183947 36.361523,19.734355 30.625,21.46875 C 35.080809,19.244806 41.857354,15.921382 47.5,13.125 L 47.5,12.3125 C 41.872009,14.854324 35.104606,17.950299 30.46875,20.03125 C 33.184924,15.372573 38.195942,7.0166736 41.65625,1.125 C 41.250646,0.96926886 40.83774,0.81606636 40.40625,0.71875 C 35.05508,7.5510849 27.000837,18.014649 25.21875,20.125 C 25.117,14.560628 25.06143,2.7817481 24.90625,2.78125 C 24.758631,2.7807761 24.601041,13.38622 24.46875,19.21875 C 23.825967,15.094465 22.718158,7.3470282 21.71875,0.5 L 20.9375,0.5 z"
     id="path3903"
     style="opacity:1;fill:url(#radialGradient3935);fill-opacity:1;fill-rule:evenodd;stroke:none;stroke-width:2.5;stroke-linecap:round;stroke-linejoin:round;marker:none;marker-start:none;marker-mid:none;marker-end:none;stroke-miterlimit:4;stroke-dasharray:none;stroke-dashoffset:0;stroke-opacity:0.61363639;visibility:visible;display:inline;overflow:visible;enable-background:accumulate" />
  <path
     d="M 9.625,0.5 C 4.5670164,0.5 0.5,4.5670164 0.5,9.625 L 0.5,18.78125 C 6.9980288,21.8908 15.151882,23.75 24,23.75 C 32.848118,23.75 41.001971,21.8908 47.5,18.78125 L 47.5,9.625 C 47.5,4.5670164 43.432986,0.5 38.375,0.5 L 9.625,0.5 z"
     id="path3228"
     style="fill:#caeef2;fill-opacity:0.34090911;fill-rule:evenodd;stroke:none;stroke-width:1;stroke-linecap:round;stroke-linejoin:round;marker:none;marker-start:none;marker-mid:none;marker-end:none;stroke-miterlimit:4;stroke-dasharray:none;stroke-dashoffset:0;stroke-opacity:1;visibility:visible;display:inline;overflow:visible;enable-background:accumulate" />
  <rect
     width="47"
     height="47"
     ry="9.1299343"
     x="0.5"
     y="0.5"
     id="r2393"
     style="fill:none;fill-opacity:1;fill-rule:nonzero;stroke:url(#linearGradient3496);stroke-width:1;stroke-linecap:butt;stroke-linejoin:round;marker:none;stroke-miterlimit:4;stroke-dasharray:none;stroke-dashoffset:0;stroke-opacity:1;visibility:visible;display:inline;overflow:visible;enable-background:accumulate" />
  <path
     d="M 21.867419,3.0590457 C 19.807419,3.2890457 18.427419,4.5590457 18.427419,5.9990457 C 18.427419,6.4790457 18.477419,7.1690457 18.927419,7.8090457 C 19.377419,8.4490457 20.147419,8.9890457 21.397419,9.4990457 L 21.957419,8.0890457 C 20.867419,7.6490457 20.387419,7.2390457 20.177419,6.9290457 C 19.957419,6.6190457 19.927419,6.3890457 19.927419,5.9990457 C 19.927419,5.6890457 20.517419,4.7290457 22.017419,4.5590457 C 22.817419,4.4690457 24.157419,4.4890457 25.397419,4.5890457 C 26.637419,4.6890457 27.847419,4.8790457 28.297419,5.0590457 C 28.837419,5.2690457 29.357419,5.7290457 29.587419,6.1490457 C 29.807419,6.5690457 29.847419,6.8690457 29.547419,7.2490457 C 29.317419,7.5390457 28.267419,8.0490457 27.297419,8.3390457 C 26.337419,8.6290457 25.457419,8.7790457 25.457419,8.7790457 L 25.707419,10.249046 C 25.707419,10.249046 26.637419,10.089046 27.707419,9.7790457 C 28.777419,9.4590457 30.017419,9.0790457 30.737419,8.1490457 C 31.397419,7.3090457 31.327419,6.2290457 30.897419,5.4290457 C 30.457419,4.6390457 29.717419,4.0190457 28.867419,3.6790457 C 28.037419,3.3490457 26.837419,3.1890457 25.517419,3.0890457 C 24.207419,2.9890457 22.837419,2.9490457 21.867419,3.0590457 z"
     id="p3256"
     style="fill:#a0a0a1;fill-opacity:1;fill-rule:evenodd;stroke:none;display:inline" />
  <path
     d="M 22.677419,2.9990457 C 22.387419,3.0090457 22.107419,3.0290457 21.867419,3.0590457 C 20.377419,3.2190457 19.247419,3.9390457 18.737419,4.8690457 C 18.467419,7.3590457 20.087419,8.2290457 21.427419,8.7790457 L 21.677419,8.7790457 L 21.957419,8.0890457 C 20.867419,7.6490457 20.387419,7.2390457 20.177419,6.9290457 C 19.957419,6.6190457 19.927419,6.3890457 19.927419,5.9990457 C 19.927419,5.6890457 20.517419,4.7290457 22.017419,4.5590457 C 22.817419,4.4690457 24.157419,4.4890457 25.397419,4.5890457 C 26.637419,4.6890457 27.847419,4.8790457 28.297419,5.0590457 C 28.837419,5.2690457 29.357419,5.7290457 29.587419,6.1490457 C 29.807419,6.5690457 29.847419,6.8690457 29.547419,7.2490457 C 29.317419,7.5390457 28.267419,8.0490457 27.297419,8.3390457 C 26.907419,8.4590457 26.577419,8.5190457 26.267419,8.5890457 L 28.017419,8.5290457 C 28.017419,8.5290457 26.877419,9.9290457 29.117419,8.8390457 C 30.177419,8.3190457 30.837419,7.5790457 31.237419,6.7190457 C 31.237419,6.2590457 31.097419,5.8090457 30.897419,5.4290457 C 30.457419,4.6390457 29.717419,4.0190457 28.867419,3.6790457 C 28.037419,3.3490457 26.837419,3.1890457 25.517419,3.0890457 C 24.537419,3.0090457 23.537419,2.9690457 22.677419,2.9990457 z"
     id="p3700"
     style="fill:#101222;fill-opacity:0.81000001;fill-rule:evenodd;stroke:none;display:inline" />
  <path
     d="M 21.217419,8.0290457 C 19.277419,6.7390457 19.177419,5.8490457 19.327419,4.8090457 C 19.477419,3.7690457 21.957419,2.8790457 24.987419,3.1190457 C 28.007419,3.3690457 31.677419,4.2590457 30.487419,6.9890457"
     id="p3703"
     style="fill:none;fill-rule:evenodd;stroke:#8ba7ca;stroke-width:0.40000001;stroke-linecap:round;stroke-linejoin:miter;stroke-miterlimit:4;stroke-dasharray:none;stroke-opacity:0.4;display:inline" />
  <path
     d="M 19.677419,6.2990457 C 19.527419,5.4490457 19.727419,4.1190457 21.907419,3.9690457 C 24.097419,3.8190457 28.457419,3.4190457 29.747419,5.3590457"
     id="p3706"
     style="fill:none;fill-rule:evenodd;stroke:#d5d2a9;stroke-width:0.30000001;stroke-linecap:round;stroke-linejoin:miter;stroke-miterlimit:4;stroke-dasharray:none;stroke-opacity:0.22000002;display:inline" />
  <path
     d="M 24.767419,3.4990457 C 22.077419,3.4990457 22.177419,4.3990457 22.177419,4.3990457 L 22.087419,5.0590457 L 22.897419,6.5890457 C 22.737419,6.5890457 22.617419,6.5890457 22.457419,6.5890457 C 21.787419,6.5890457 20.897419,7.3390457 20.897419,7.3390457 C 20.897419,7.3390457 20.837419,8.6890457 20.837419,8.9690457 C 21.027419,9.0390457 21.717419,9.8990457 23.017419,10.219046 C 23.057419,10.689046 22.987419,12.309046 22.987419,12.309046 L 24.017419,12.529046 L 24.047419,12.899046 L 24.927419,12.719046 L 25.767419,12.899046 L 25.797419,12.529046 L 26.867419,12.309046 C 26.867419,12.309046 26.757419,10.689046 26.797419,10.219046 C 28.107419,9.8990457 28.787419,9.0390457 28.987419,8.9690457 C 28.987419,8.6890457 28.957419,7.3390457 28.957419,7.3390457 C 28.957419,7.3390457 28.037419,6.5890457 27.367419,6.5890457 C 27.267419,6.5890457 27.177419,6.5890457 27.087419,6.5890457 L 27.797419,5.0890457 L 27.837419,4.4690457 C 27.837419,4.4690457 27.457419,3.4990457 24.767419,3.4990457 z"
     id="p3244"
     style="fill:#6c8281;fill-opacity:1;fill-rule:evenodd;stroke:none;display:inline" />
  <path
     d="M 24.677419,11.899046 C 22.207419,11.839046 19.747419,12.339046 17.487419,13.339046 C 17.227419,13.009046 16.897419,12.759046 16.587419,12.899046 C 15.837419,13.229046 14.017419,14.189046 13.367419,14.679046 C 13.157419,14.519046 12.687419,13.769046 12.397419,14.059046 C 12.107419,14.349046 10.787419,15.489046 10.457419,15.899046 C 10.127419,16.309046 10.087419,16.439046 10.207419,16.559046 C 10.327419,16.679046 10.587419,16.939046 10.837419,17.179046 C 10.547419,17.509046 9.157419,19.759046 8.987419,20.219046 C 8.857419,20.579046 9.087419,20.919046 9.487419,21.149046 C 6.367419,27.739046 8.007419,35.929046 13.957419,40.969046 C 21.047419,46.949046 31.577419,46.209046 37.457419,39.309046 C 43.337419,32.409046 42.357419,21.949046 35.267419,15.969046 C 32.167419,13.349046 28.417419,11.989046 24.677419,11.899046 z"
     id="p2465"
     style="fill:#949596;fill-opacity:1;fill-rule:evenodd;stroke:none;marker:none;visibility:visible;display:inline;overflow:visible;enable-background:accumulate" />
  <path
     d="M 12.427419,29.779046 C 11.657419,29.739046 11.297419,30.159046 11.457419,31.219046 C 11.957419,34.569046 11.407419,36.119046 11.087419,37.869046 C 11.077419,37.879046 11.087419,37.889046 11.087419,37.899046 C 11.887419,39.019046 12.857419,40.039046 13.957419,40.969046 C 20.757419,46.709046 30.717419,46.239046 36.707419,40.089046 C 28.337419,40.059046 16.007419,29.959046 12.427419,29.779046 z"
     id="p3638"
     style="fill:#3b4650;fill-opacity:0.65;fill-rule:evenodd;stroke:none;display:inline" />
  <path
     d="M 34.777419,16.439046 C 41.487419,21.959046 42.407419,31.589046 36.837419,37.959046 C 31.267419,44.319046 21.317419,44.999046 14.607419,39.479046 C 7.907419,33.969046 6.977419,24.329046 12.547419,17.969046 C 18.117419,11.599046 28.067419,10.919046 34.777419,16.439046 z"
     id="p3246"
     style="fill:#000000;fill-opacity:1;fill-rule:evenodd;stroke:none;marker:none;visibility:visible;display:inline;overflow:visible;enable-background:accumulate" />
  <path
     d="M 12.837419,19.149046 C 12.417419,19.139046 11.587419,19.689046 10.587419,20.869046 C 10.567419,20.879046 10.557419,20.889046 10.547419,20.899046 C 8.777419,24.319046 8.477419,28.249046 9.547419,31.869046 C 9.637419,28.739046 9.697419,24.559046 11.987419,21.559046 C 13.187419,19.989046 13.327419,19.159046 12.837419,19.149046 z"
     id="p3400"
     style="fill:#674e05;fill-opacity:1;fill-rule:evenodd;stroke:none;display:inline" />
  <path
     d="M 24.737419,12.719046 C 20.187419,12.609046 15.677419,14.389046 12.547419,17.969046 C 11.617419,19.029046 10.867419,20.189046 10.297419,21.399046 C 10.327419,24.079046 11.347419,27.159046 14.087419,30.529046 L 28.337419,24.869046 C 28.337419,24.869046 20.717419,38.499046 26.617419,40.589046 C 29.927419,41.759046 33.607419,40.149046 36.707419,38.089046 C 36.747419,38.049046 36.797419,38.009046 36.837419,37.969046 C 42.397419,31.599046 41.477419,21.949046 34.767419,16.429046 C 31.837419,14.019046 28.277419,12.799046 24.737419,12.719046 z"
     id="p3402"
     style="fill:#545a58;fill-opacity:1;fill-rule:evenodd;stroke:none;display:inline" />
  <path
     d="M 24.737419,12.719046 C 23.117419,12.679046 21.517419,12.899046 19.957419,13.339046 C 26.277419,14.219046 34.027419,17.379046 35.457419,19.969046 C 37.117419,22.949046 39.267419,23.189046 39.767419,32.749046 C 41.577419,27.079046 39.817419,20.589046 34.767419,16.429046 C 31.837419,14.019046 28.277419,12.799046 24.737419,12.719046 z"
     id="p3404"
     style="fill:#a2a391;fill-opacity:1;fill-rule:evenodd;stroke:none;display:inline" />
  <path
     d="M 37.867419,21.519046 C 41.557419,28.559046 38.787419,36.999046 31.667419,40.369046 C 24.547419,43.739046 15.787419,40.769046 12.097419,33.729046 C 8.407419,26.689046 11.187419,18.249046 18.297419,14.879046 C 25.417419,11.509046 34.177419,14.479046 37.867419,21.519046 z"
     id="p3241"
     style="fill:#bbd5d3;fill-opacity:1;fill-rule:evenodd;stroke:none;marker:none;visibility:visible;display:inline;overflow:visible;enable-background:accumulate" />
  <path
     d="M 26.317419,21.839046 C 26.317419,22.419046 25.847419,22.889046 25.267419,22.889046 C 24.687419,22.889046 24.217419,22.419046 24.217419,21.839046 C 24.217419,21.259046 24.687419,20.789046 25.267419,20.789046 C 25.847419,20.789046 26.317419,21.259046 26.317419,21.839046 z"
     id="p3566"
     style="fill:#2b2b2b;fill-opacity:1;fill-rule:evenodd;stroke:none;marker:none;visibility:visible;display:inline;overflow:visible;enable-background:accumulate" />
  <path
     d="M 26.017419,21.709046 C 26.017419,22.139046 25.687419,22.489046 25.267419,22.489046 C 24.857419,22.489046 24.517419,22.139046 24.517419,21.709046 C 24.517419,21.279046 24.857419,20.929046 25.267419,20.929046 C 25.687419,20.929046 26.017419,21.279046 26.017419,21.709046 z"
     id="p3568"
     style="fill:#595037;fill-opacity:1;fill-rule:evenodd;stroke:none;marker:none;visibility:visible;display:inline;overflow:visible;enable-background:accumulate" />
  <path
     d="M 29.207419,22.099046 C 29.207419,24.269046 27.367419,26.029046 25.107419,26.029046 C 22.847419,26.029046 21.017419,24.269046 21.017419,22.099046 C 21.017419,19.939046 22.847419,18.179046 25.107419,18.179046 C 27.367419,18.179046 29.207419,19.939046 29.207419,22.099046 L 29.207419,22.099046 z"
     id="p3528"
     style="fill:none;fill-opacity:1;fill-rule:evenodd;stroke:#000000;stroke-width:0.15000001;stroke-linecap:butt;stroke-linejoin:miter;marker:none;stroke-miterlimit:4;stroke-dasharray:none;stroke-dashoffset:0;stroke-opacity:1;visibility:visible;display:inline;overflow:visible;enable-background:accumulate" />
  <path
     d="M 25.887419,21.709046 C 25.887419,22.059046 25.617419,22.349046 25.267419,22.349046 C 24.927419,22.349046 24.647419,22.059046 24.647419,21.709046 C 24.647419,21.349046 24.927419,21.069046 25.267419,21.069046 C 25.617419,21.069046 25.887419,21.349046 25.887419,21.709046 z"
     id="p3570"
     style="fill:#152e1c;fill-opacity:1;fill-rule:evenodd;stroke:none;marker:none;visibility:visible;display:inline;overflow:visible;enable-background:accumulate" />
  <path
     d="M 29.747419,22.099046 C 29.747419,24.559046 27.667419,26.549046 25.107419,26.549046 C 22.547419,26.549046 20.477419,24.559046 20.477419,22.099046 C 20.477419,19.649046 22.547419,17.659046 25.107419,17.659046 C 27.667419,17.659046 29.747419,19.649046 29.747419,22.099046 L 29.747419,22.099046 z"
     id="p3524"
     style="fill:none;fill-opacity:1;fill-rule:evenodd;stroke:#000000;stroke-width:0.14;stroke-linecap:butt;stroke-linejoin:miter;marker:none;stroke-miterlimit:4;stroke-dasharray:none;stroke-dashoffset:0;stroke-opacity:1;visibility:visible;display:inline;overflow:visible;enable-background:accumulate" />
  <path
     d="M 37.227419,21.869046 C 40.687419,28.499046 38.087419,36.449046 31.407419,39.629046 C 24.737419,42.809046 16.527419,40.009046 13.057419,33.379046 C 9.597419,26.749046 12.207419,18.799046 18.877419,15.619046 C 25.547419,12.439046 33.767419,15.239046 37.227419,21.869046 z"
     id="p3420"
     style="fill:none;fill-opacity:1;fill-rule:evenodd;stroke:#000000;stroke-width:0.19;stroke-linecap:butt;stroke-linejoin:miter;marker:none;stroke-miterlimit:4;stroke-dasharray:none;stroke-dashoffset:0;stroke-opacity:1;visibility:visible;display:inline;overflow:visible;enable-background:accumulate" />
  <path
     d="M 36.567419,22.189046 C 39.837419,28.459046 37.377419,35.969046 31.067419,38.969046 C 24.757419,41.969046 16.997419,39.329046 13.727419,33.059046 C 10.457419,26.799046 12.917419,19.279046 19.227419,16.279046 C 25.527419,13.279046 33.297419,15.929046 36.567419,22.189046 z"
     id="p3425"
     style="fill:none;fill-opacity:1;fill-rule:evenodd;stroke:#000000;stroke-width:0.2;stroke-linecap:butt;stroke-linejoin:miter;marker:none;stroke-miterlimit:4;stroke-dasharray:none;stroke-dashoffset:0;stroke-opacity:1;visibility:visible;display:inline;overflow:visible;enable-background:accumulate" />
  <path
     d="M 35.997419,22.459046 C 39.107419,28.409046 36.767419,35.549046 30.777419,38.399046 C 24.777419,41.259046 17.407419,38.739046 14.297419,32.789046 C 11.187419,26.839046 13.527419,19.699046 19.517419,16.849046 C 25.507419,13.989046 32.887419,16.509046 35.997419,22.459046 z"
     id="p3427"
     style="fill:none;fill-opacity:1;fill-rule:evenodd;stroke:#000000;stroke-width:0.14;stroke-linecap:butt;stroke-linejoin:miter;marker:none;stroke-miterlimit:4;stroke-dasharray:none;stroke-dashoffset:0;stroke-opacity:1;visibility:visible;display:inline;overflow:visible;enable-background:accumulate" />
  <path
     d="M 17.307419,16.509046 L 18.077419,17.609046"
     id="p3429"
     style="fill:none;fill-rule:evenodd;stroke:#000000;stroke-width:0.30000001;stroke-linecap:butt;stroke-linejoin:miter;stroke-miterlimit:4;stroke-dasharray:none;stroke-opacity:1;display:inline" />
  <path
     d="M 12.297419,22.919046 L 13.597419,23.329046"
     id="p3431"
     style="fill:none;fill-rule:evenodd;stroke:#000000;stroke-width:0.30000001;stroke-linecap:butt;stroke-linejoin:miter;stroke-miterlimit:4;stroke-dasharray:none;stroke-opacity:1;display:inline" />
  <path
     d="M 12.117419,31.089046 L 13.427419,30.639046"
     id="p3433"
     style="fill:none;fill-rule:evenodd;stroke:#000000;stroke-width:0.30000001;stroke-linecap:butt;stroke-linejoin:miter;stroke-miterlimit:4;stroke-dasharray:none;stroke-opacity:1;display:inline" />
  <path
     d="M 16.947419,37.989046 L 17.757419,36.909046"
     id="p3435"
     style="fill:none;fill-rule:evenodd;stroke:#000000;stroke-width:0.30000001;stroke-linecap:butt;stroke-linejoin:miter;stroke-miterlimit:4;stroke-dasharray:none;stroke-opacity:1;display:inline" />
  <path
     d="M 24.997419,40.899046 L 24.997419,39.579046"
     id="p3437"
     style="fill:none;fill-rule:evenodd;stroke:#000000;stroke-width:0.30000001;stroke-linecap:butt;stroke-linejoin:miter;stroke-miterlimit:4;stroke-dasharray:none;stroke-opacity:1;display:inline" />
  <path
     d="M 33.137419,38.639046 L 32.357419,37.499046"
     id="p3439"
     style="fill:none;fill-rule:evenodd;stroke:#000000;stroke-width:0.30000001;stroke-linecap:butt;stroke-linejoin:miter;stroke-miterlimit:4;stroke-dasharray:none;stroke-opacity:1;display:inline" />
  <path
     d="M 38.107419,32.079046 L 36.807419,31.559046"
     id="p3441"
     style="fill:none;fill-rule:evenodd;stroke:#000000;stroke-width:0.30000001;stroke-linecap:butt;stroke-linejoin:miter;stroke-miterlimit:4;stroke-dasharray:none;stroke-opacity:1;display:inline" />
  <path
     d="M 36.757419,24.239046 L 38.057419,23.839046"
     id="p3443"
     style="fill:none;fill-rule:evenodd;stroke:#000000;stroke-width:0.30000001;stroke-linecap:butt;stroke-linejoin:miter;stroke-miterlimit:4;stroke-dasharray:none;stroke-opacity:1;display:inline" />
  <path
     d="M 32.307419,18.159046 L 33.117419,17.129046"
     id="p3445"
     style="fill:none;fill-rule:evenodd;stroke:#000000;stroke-width:0.30000001;stroke-linecap:butt;stroke-linejoin:miter;stroke-miterlimit:4;stroke-dasharray:none;stroke-opacity:1;display:inline" />
  <path
     d="M 32.087419,18.189046 C 32.087419,18.809046 32.087419,19.439046 32.087419,20.069046 C 31.917419,20.069046 31.747419,20.069046 31.567419,20.069046 C 31.567419,19.649046 31.567419,19.239046 31.567419,18.829046 C 31.407419,18.959046 31.227419,19.049046 31.027419,19.099046 C 31.027419,18.959046 31.027419,18.819046 31.027419,18.679046 C 31.247419,18.609046 31.467419,18.499046 31.597419,18.309046 C 31.637419,18.279046 31.637419,18.179046 31.697419,18.189046 C 31.827419,18.189046 31.957419,18.189046 32.087419,18.189046 z"
     id="text3451"
     style="font-size:2.57999992px;font-style:normal;font-variant:normal;font-weight:normal;font-stretch:normal;fill:#000000;fill-opacity:1;stroke:none;display:inline;font-family:Arial Black;-inkscape-font-specification:Arial Black" />
  <path
     d="M 36.407419,25.289046 C 35.887419,25.289046 35.377419,25.289046 34.867419,25.289046 C 34.887419,25.039046 35.027419,24.809046 35.217419,24.639046 C 35.387419,24.469046 35.607419,24.349046 35.777419,24.179046 C 35.857419,24.099046 35.917419,23.969046 35.847419,23.859046 C 35.767419,23.719046 35.527419,23.729046 35.457419,23.879046 C 35.417419,23.929046 35.457419,24.059046 35.377419,24.039046 C 35.217419,24.029046 35.057419,24.009046 34.907419,23.999046 C 34.927419,23.819046 34.987419,23.619046 35.157419,23.519046 C 35.347419,23.399046 35.577419,23.409046 35.787419,23.419046 C 35.977419,23.429046 36.177419,23.479046 36.297419,23.649046 C 36.437419,23.839046 36.417419,24.119046 36.277419,24.299046 C 36.127419,24.509046 35.887419,24.619046 35.697419,24.779046 C 35.677419,24.809046 35.557419,24.879046 35.647419,24.869046 C 35.897419,24.869046 36.147419,24.869046 36.407419,24.869046 C 36.407419,25.009046 36.407419,25.149046 36.407419,25.289046 z"
     id="text3459"
     style="font-size:2.57999992px;font-style:normal;font-variant:normal;font-weight:normal;font-stretch:normal;fill:#000000;fill-opacity:1;stroke:none;display:inline;font-family:Arial Black;-inkscape-font-specification:Arial Black" />
  <path
     d="M 35.437419,30.889046 C 35.277419,30.859046 35.107419,30.829046 34.947419,30.799046 C 34.997419,30.599046 35.147419,30.419046 35.347419,30.369046 C 35.547419,30.309046 35.777419,30.309046 35.977419,30.359046 C 36.177419,30.399046 36.337419,30.559046 36.357419,30.759046 C 36.367419,30.919046 36.277419,31.079046 36.137419,31.159046 C 36.087419,31.179046 36.087419,31.189046 36.137419,31.199046 C 36.317419,31.239046 36.447419,31.409046 36.447419,31.579046 C 36.467419,31.839046 36.307419,32.089046 36.067419,32.179046 C 35.867419,32.249046 35.647419,32.239046 35.437419,32.209046 C 35.237419,32.179046 35.047419,32.039046 34.967419,31.849046 C 34.967419,31.809046 34.887419,31.709046 34.947419,31.709046 C 35.117419,31.689046 35.277419,31.669046 35.437419,31.649046 C 35.457419,31.759046 35.497419,31.889046 35.617419,31.909046 C 35.737419,31.949046 35.867419,31.879046 35.907419,31.769046 C 35.957419,31.639046 35.937419,31.459046 35.797419,31.399046 C 35.707419,31.359046 35.607419,31.379046 35.517419,31.399046 C 35.527419,31.279046 35.537419,31.159046 35.547419,31.039046 C 35.667419,31.069046 35.797419,31.009046 35.837419,30.889046 C 35.877419,30.789046 35.817419,30.659046 35.697419,30.649046 C 35.597419,30.619046 35.487419,30.679046 35.457419,30.779046 C 35.447419,30.819046 35.437419,30.849046 35.437419,30.889046 L 35.437419,30.889046 z"
     id="text3463"
     style="font-size:2.57999992px;font-style:normal;font-variant:normal;font-weight:normal;font-stretch:normal;fill:#000000;fill-opacity:1;stroke:none;display:inline;font-family:Arial Black;-inkscape-font-specification:Arial Black" />
  <path
     d="M 31.697419,37.119046 C 31.387419,37.119046 31.077419,37.119046 30.757419,37.119046 C 30.757419,36.979046 30.757419,36.839046 30.757419,36.689046 C 31.077419,36.319046 31.387419,35.949046 31.697419,35.579046 C 31.847419,35.579046 31.997419,35.579046 32.147419,35.579046 C 32.147419,35.959046 32.147419,36.339046 32.147419,36.719046 C 32.217419,36.719046 32.297419,36.719046 32.377419,36.719046 C 32.377419,36.849046 32.377419,36.979046 32.377419,37.119046 C 32.297419,37.119046 32.217419,37.119046 32.147419,37.119046 C 32.147419,37.229046 32.147419,37.349046 32.147419,37.459046 C 31.997419,37.459046 31.847419,37.459046 31.697419,37.459046 C 31.697419,37.349046 31.697419,37.229046 31.697419,37.119046 z M 31.697419,36.719046 C 31.697419,36.529046 31.697419,36.329046 31.697419,36.139046 C 31.537419,36.329046 31.367419,36.529046 31.207419,36.719046 C 31.367419,36.719046 31.537419,36.719046 31.697419,36.719046 z"
     id="text3467"
     style="font-size:2.57999992px;font-style:normal;font-variant:normal;font-weight:normal;font-stretch:normal;fill:#000000;fill-opacity:1;stroke:none;display:inline;font-family:Arial Black;-inkscape-font-specification:Arial Black" />
  <path
     d="M 24.477419,37.509046 C 24.887419,37.509046 25.297419,37.509046 25.697419,37.509046 C 25.697419,37.649046 25.697419,37.779046 25.697419,37.919046 C 25.427419,37.919046 25.147419,37.919046 24.877419,37.919046 C 24.857419,38.009046 24.847419,38.099046 24.827419,38.199046 C 25.067419,38.079046 25.387419,38.079046 25.597419,38.259046 C 25.767419,38.409046 25.817419,38.659046 25.767419,38.869046 C 25.717419,39.079046 25.577419,39.259046 25.367419,39.339046 C 25.167419,39.399046 24.957419,39.399046 24.747419,39.359046 C 24.537419,39.319046 24.347419,39.159046 24.277419,38.959046 C 24.247419,38.899046 24.247419,38.859046 24.307419,38.869046 C 24.467419,38.859046 24.617419,38.839046 24.767419,38.819046 C 24.777419,38.939046 24.867419,39.069046 24.997419,39.079046 C 25.127419,39.089046 25.247419,38.989046 25.257419,38.859046 C 25.277419,38.729046 25.277419,38.569046 25.167419,38.479046 C 25.047419,38.389046 24.867419,38.429046 24.767419,38.549046 C 24.747419,38.579046 24.707419,38.549046 24.677419,38.549046 C 24.557419,38.539046 24.437419,38.519046 24.317419,38.499046 C 24.367419,38.169046 24.427419,37.839046 24.477419,37.509046 z"
     id="text3471"
     style="font-size:2.57999992px;font-style:normal;font-variant:normal;font-weight:normal;font-stretch:normal;fill:#000000;fill-opacity:1;stroke:none;display:inline;font-family:Arial Black;-inkscape-font-specification:Arial Black" />
  <path
     d="M 19.097419,35.449046 C 18.927419,35.479046 18.757419,35.499046 18.587419,35.519046 C 18.577419,35.429046 18.527419,35.329046 18.427419,35.319046 C 18.297419,35.309046 18.197419,35.429046 18.177419,35.549046 C 18.157419,35.639046 18.147419,35.739046 18.137419,35.839046 C 18.247419,35.709046 18.417419,35.639046 18.577419,35.649046 C 18.867419,35.659046 19.107419,35.899046 19.137419,36.179046 C 19.167419,36.429046 19.057419,36.719046 18.827419,36.839046 C 18.627419,36.929046 18.407419,36.929046 18.197419,36.899046 C 18.007419,36.869046 17.837419,36.749046 17.747419,36.579046 C 17.617419,36.349046 17.607419,36.059046 17.627419,35.789046 C 17.647419,35.559046 17.717419,35.309046 17.907419,35.159046 C 18.117419,34.999046 18.397419,34.979046 18.647419,35.029046 C 18.847419,35.059046 19.007419,35.199046 19.077419,35.379046 C 19.087419,35.409046 19.097419,35.429046 19.097419,35.449046 L 19.097419,35.449046 z M 18.157419,36.279046 C 18.147419,36.409046 18.227419,36.559046 18.367419,36.589046 C 18.487419,36.619046 18.617419,36.529046 18.637419,36.409046 C 18.667419,36.269046 18.657419,36.089046 18.527419,35.999046 C 18.397419,35.929046 18.217419,35.989046 18.177419,36.129046 C 18.157419,36.179046 18.157419,36.229046 18.157419,36.279046 L 18.157419,36.279046 z"
     id="text3475"
     style="font-size:2.57999992px;font-style:normal;font-variant:normal;font-weight:normal;font-stretch:normal;fill:#000000;fill-opacity:1;stroke:none;display:inline;font-family:Arial Black;-inkscape-font-specification:Arial Black" />
  <path
     d="M 13.637419,29.549046 C 14.137419,29.549046 14.637419,29.549046 15.137419,29.549046 C 15.137419,29.659046 15.137419,29.779046 15.137419,29.899046 C 14.747419,30.239046 14.537419,30.739046 14.477419,31.239046 C 14.457419,31.289046 14.477419,31.369046 14.447419,31.399046 C 14.277419,31.399046 14.117419,31.399046 13.947419,31.399046 C 13.997419,31.029046 14.087419,30.659046 14.287419,30.349046 C 14.367419,30.219046 14.457419,30.099046 14.547419,29.979046 C 14.247419,29.979046 13.937419,29.979046 13.637419,29.979046 C 13.637419,29.839046 13.637419,29.689046 13.637419,29.549046 z"
     id="text3479"
     style="font-size:2.57999992px;font-style:normal;font-variant:normal;font-weight:normal;font-stretch:normal;fill:#000000;fill-opacity:1;stroke:none;display:inline;font-family:Arial Black;-inkscape-font-specification:Arial Black" />
  <path
     d="M 14.197419,23.559046 C 14.067419,23.499046 13.957419,23.369046 13.947419,23.219046 C 13.927419,23.049046 14.007419,22.889046 14.147419,22.799046 C 14.347419,22.659046 14.597419,22.659046 14.827419,22.689046 C 15.017419,22.709046 15.217419,22.799046 15.297419,22.979046 C 15.377419,23.159046 15.327419,23.379046 15.177419,23.499046 C 15.147419,23.529046 15.067419,23.559046 15.147419,23.579046 C 15.337419,23.679046 15.427419,23.909046 15.387419,24.109046 C 15.357419,24.309046 15.207419,24.479046 15.017419,24.529046 C 14.787419,24.599046 14.547419,24.599046 14.317419,24.549046 C 14.117419,24.509046 13.957419,24.359046 13.907419,24.169046 C 13.857419,23.979046 13.897419,23.749046 14.057419,23.629046 C 14.097419,23.599046 14.147419,23.579046 14.197419,23.559046 z M 14.427419,23.199046 C 14.417419,23.299046 14.507419,23.399046 14.607419,23.409046 C 14.717419,23.429046 14.837419,23.349046 14.847419,23.229046 C 14.867419,23.119046 14.787419,22.999046 14.667419,22.989046 C 14.557419,22.969046 14.437419,23.049046 14.427419,23.159046 C 14.427419,23.169046 14.427419,23.179046 14.427419,23.199046 L 14.427419,23.199046 z M 14.397419,23.989046 C 14.387419,24.139046 14.527419,24.289046 14.677419,24.269046 C 14.827419,24.239046 14.907419,24.069046 14.877419,23.929046 C 14.857419,23.789046 14.707419,23.669046 14.567419,23.719046 C 14.457419,23.759046 14.397419,23.879046 14.397419,23.989046 z"
     id="text3483"
     style="font-size:2.57999992px;font-style:normal;font-variant:normal;font-weight:normal;font-stretch:normal;fill:#000000;fill-opacity:1;stroke:none;display:inline;font-family:Arial Black;-inkscape-font-specification:Arial Black" />
  <path
     d="M 18.007419,19.199046 C 18.177419,19.179046 18.347419,19.159046 18.517419,19.139046 C 18.527419,19.229046 18.577419,19.329046 18.687419,19.339046 C 18.807419,19.349046 18.907419,19.229046 18.927419,19.109046 C 18.947419,19.019046 18.957419,18.919046 18.967419,18.819046 C 18.857419,18.939046 18.697419,19.009046 18.537419,18.999046 C 18.267419,19.009046 18.017419,18.779046 17.977419,18.509046 C 17.927419,18.259046 18.027419,17.979046 18.247419,17.839046 C 18.437419,17.729046 18.677419,17.729046 18.897419,17.759046 C 19.087419,17.789046 19.257419,17.899046 19.347419,18.059046 C 19.497419,18.309046 19.497419,18.599046 19.477419,18.879046 C 19.457419,19.109046 19.377419,19.369046 19.177419,19.509046 C 18.967419,19.659046 18.687419,19.669046 18.447419,19.629046 C 18.237419,19.589046 18.077419,19.429046 18.017419,19.239046 L 18.007419,19.219046 L 18.007419,19.199046 z M 18.947419,18.379046 C 18.957419,18.239046 18.877419,18.089046 18.727419,18.059046 C 18.607419,18.039046 18.487419,18.129046 18.467419,18.249046 C 18.437419,18.379046 18.447419,18.559046 18.567419,18.649046 C 18.687419,18.729046 18.867419,18.669046 18.917419,18.539046 C 18.947419,18.489046 18.947419,18.429046 18.947419,18.379046 z"
     id="text3487"
     style="font-size:2.57999992px;font-style:normal;font-variant:normal;font-weight:normal;font-stretch:normal;fill:#000000;fill-opacity:1;stroke:none;display:inline;font-family:Arial Black;-inkscape-font-specification:Arial Black" />
  <path
     d="M 24.437419,16.599046 C 24.437419,16.409046 24.457419,16.209046 24.587419,16.039046 C 24.707419,15.879046 24.957419,15.819046 25.177419,15.819046 C 25.387419,15.819046 25.607419,15.859046 25.747419,15.989046 C 25.897419,16.129046 25.927419,16.319046 25.947419,16.489046 C 25.957419,16.699046 25.947419,16.919046 25.837419,17.109046 C 25.767419,17.239046 25.607419,17.339046 25.437419,17.359046 C 25.247419,17.399046 25.047419,17.399046 24.867419,17.339046 C 24.667419,17.279046 24.527419,17.119046 24.487419,16.949046 C 24.447419,16.839046 24.437419,16.719046 24.437419,16.599046 L 24.437419,16.599046 z M 24.947419,16.599046 C 24.947419,16.729046 24.947419,16.869046 25.007419,16.989046 C 25.047419,17.069046 25.167419,17.119046 25.267419,17.089046 C 25.387419,17.039046 25.417419,16.919046 25.427419,16.819046 C 25.447419,16.649046 25.447419,16.469046 25.407419,16.289046 C 25.387419,16.199046 25.327419,16.109046 25.207419,16.099046 C 25.097419,16.089046 25.007419,16.169046 24.987419,16.249046 C 24.947419,16.359046 24.947419,16.479046 24.947419,16.599046 L 24.947419,16.599046 z"
     id="text3491"
     style="font-size:2.32999992px;font-style:normal;font-variant:normal;font-weight:normal;font-stretch:normal;fill:#000000;fill-opacity:1;stroke:none;display:inline;font-family:Arial Black;-inkscape-font-specification:Arial Black" />
  <path
     d="M 24.047419,19.249046 C 24.107419,19.249046 24.167419,19.239046 24.227419,19.239046 C 24.247419,19.319046 24.327419,19.419046 24.467419,19.439046 C 24.637419,19.469046 24.837419,19.369046 24.847419,19.249046 C 24.867419,19.139046 24.737419,19.029046 24.577419,19.019046 C 24.517419,18.999046 24.387419,19.069046 24.417419,18.999046 C 24.427419,18.979046 24.427419,18.949046 24.437419,18.919046 C 24.567419,18.929046 24.737419,18.889046 24.767419,18.789046 C 24.807419,18.699046 24.717419,18.599046 24.577419,18.589046 C 24.447419,18.569046 24.307419,18.629046 24.277419,18.709046 C 24.267419,18.759046 24.247419,18.789046 24.177419,18.769046 C 24.137419,18.759046 24.097419,18.759046 24.057419,18.749046 C 24.087419,18.619046 24.237419,18.509046 24.437419,18.489046 C 24.637419,18.459046 24.887419,18.529046 24.947419,18.679046 C 25.007419,18.779046 24.937419,18.909046 24.787419,18.959046 C 24.737419,18.979046 24.897419,18.989046 24.927419,19.019046 C 25.107419,19.139046 25.067419,19.349046 24.897419,19.449046 C 24.697419,19.589046 24.307419,19.579046 24.137419,19.419046 C 24.077419,19.369046 24.047419,19.309046 24.047419,19.249046 L 24.047419,19.249046 z M 25.227419,19.019046 C 25.237419,18.849046 25.257419,18.669046 25.437419,18.549046 C 25.627419,18.439046 25.967419,18.469046 26.097419,18.619046 C 26.237419,18.769046 26.237419,18.969046 26.217419,19.139046 C 26.207419,19.289046 26.137419,19.449046 25.927419,19.519046 C 25.737419,19.579046 25.467419,19.539046 25.357419,19.409046 C 25.247419,19.289046 25.237419,19.149046 25.227419,19.019046 z M 25.427419,19.019046 C 25.427419,19.129046 25.427419,19.249046 25.507419,19.359046 C 25.587419,19.439046 25.757419,19.469046 25.877419,19.409046 C 26.017419,19.329046 26.017419,19.189046 26.037419,19.079046 C 26.027419,18.949046 26.047419,18.809046 25.957419,18.689046 C 25.887419,18.599046 25.707419,18.559046 25.587419,18.619046 C 25.447419,18.689046 25.437419,18.819046 25.427419,18.929046 C 25.427419,18.959046 25.427419,18.989046 25.427419,19.019046 L 25.427419,19.019046 z"
     id="text3530"
     style="font-size:1.75px;font-style:normal;font-variant:normal;font-weight:normal;font-stretch:normal;fill:#000000;fill-opacity:1;stroke:none;display:inline;font-family:Arial;-inkscape-font-specification:Arial" />
  <path
     d="M 27.347419,20.879046 C 27.407419,20.879046 27.477419,20.879046 27.537419,20.869046 C 27.557419,20.949046 27.617419,21.029046 27.727419,21.059046 C 27.857419,21.089046 28.007419,21.059046 28.087419,20.979046 C 28.167419,20.909046 28.177419,20.799046 28.137419,20.719046 C 28.097419,20.629046 27.967419,20.579046 27.837419,20.579046 C 27.727419,20.579046 27.617419,20.619046 27.547419,20.679046 C 27.497419,20.679046 27.437419,20.669046 27.377419,20.669046 C 27.427419,20.489046 27.477419,20.309046 27.527419,20.129046 C 27.777419,20.129046 28.027419,20.129046 28.287419,20.129046 C 28.287419,20.169046 28.287419,20.209046 28.287419,20.249046 C 28.077419,20.249046 27.877419,20.249046 27.677419,20.249046 C 27.647419,20.349046 27.617419,20.439046 27.587419,20.529046 C 27.757419,20.449046 27.987419,20.439046 28.157419,20.529046 C 28.287419,20.589046 28.367419,20.699046 28.357419,20.809046 C 28.357419,20.969046 28.207419,21.119046 27.977419,21.159046 C 27.797419,21.189046 27.587419,21.169046 27.457419,21.069046 C 27.387419,21.019046 27.347419,20.949046 27.347419,20.879046 L 27.347419,20.879046 z"
     id="text3534"
     style="font-size:1.75px;font-style:normal;font-variant:normal;font-weight:normal;font-stretch:normal;fill:#000000;fill-opacity:1;stroke:none;display:inline;font-family:Arial;-inkscape-font-specification:Arial" />
  <path
     d="M 27.287419,24.059046 C 27.217419,24.059046 27.157419,24.059046 27.097419,24.059046 C 27.097419,23.789046 27.097419,23.519046 27.097419,23.249046 C 26.987419,23.319046 26.857419,23.369046 26.717419,23.409046 C 26.717419,23.359046 26.717419,23.319046 26.717419,23.279046 C 26.897419,23.219046 27.067419,23.139046 27.157419,23.019046 C 27.207419,23.019046 27.247419,23.019046 27.287419,23.019046 C 27.287419,23.369046 27.287419,23.719046 27.287419,24.059046 z M 27.497419,23.549046 C 27.497419,23.389046 27.517419,23.219046 27.697419,23.099046 C 27.877419,22.979046 28.227419,22.999046 28.367419,23.149046 C 28.507419,23.309046 28.497419,23.499046 28.487419,23.669046 C 28.477419,23.809046 28.407419,23.969046 28.217419,24.049046 C 28.027419,24.109046 27.757419,24.089046 27.627419,23.959046 C 27.517419,23.839046 27.497419,23.689046 27.497419,23.549046 L 27.497419,23.549046 z M 27.687419,23.549046 C 27.697419,23.669046 27.687419,23.789046 27.777419,23.889046 C 27.847419,23.979046 28.027419,24.009046 28.137419,23.939046 C 28.287419,23.869046 28.287419,23.739046 28.297419,23.629046 C 28.297419,23.499046 28.307419,23.359046 28.237419,23.229046 C 28.177419,23.149046 28.017419,23.099046 27.887419,23.139046 C 27.747419,23.189046 27.717419,23.309046 27.697419,23.409046 C 27.697419,23.459046 27.687419,23.499046 27.687419,23.549046 L 27.687419,23.549046 z"
     id="text3538"
     style="font-size:1.75px;font-style:normal;font-variant:normal;font-weight:normal;font-stretch:normal;fill:#000000;fill-opacity:1;stroke:none;display:inline;font-family:Arial;-inkscape-font-specification:Arial" />
  <path
     d="M 24.897419,25.789046 C 24.827419,25.789046 24.767419,25.789046 24.707419,25.789046 C 24.707419,25.519046 24.707419,25.249046 24.707419,24.979046 C 24.597419,25.039046 24.467419,25.089046 24.327419,25.129046 C 24.327419,25.089046 24.327419,25.049046 24.327419,25.009046 C 24.507419,24.949046 24.677419,24.869046 24.777419,24.749046 C 24.817419,24.749046 24.857419,24.749046 24.897419,24.749046 C 24.897419,25.089046 24.897419,25.439046 24.897419,25.789046 z M 25.057419,25.519046 C 25.117419,25.509046 25.187419,25.509046 25.247419,25.509046 C 25.257419,25.599046 25.347419,25.689046 25.487419,25.699046 C 25.657419,25.719046 25.827419,25.629046 25.857419,25.519046 C 25.887419,25.409046 25.847419,25.279046 25.687419,25.229046 C 25.537419,25.189046 25.347419,25.219046 25.257419,25.309046 C 25.207419,25.309046 25.147419,25.299046 25.087419,25.299046 C 25.137419,25.119046 25.187419,24.939046 25.237419,24.769046 C 25.487419,24.769046 25.737419,24.769046 25.997419,24.769046 C 25.997419,24.809046 25.997419,24.849046 25.997419,24.889046 C 25.787419,24.889046 25.587419,24.889046 25.387419,24.889046 C 25.357419,24.979046 25.327419,25.069046 25.297419,25.169046 C 25.487419,25.069046 25.777419,25.079046 25.937419,25.199046 C 26.107419,25.329046 26.107419,25.529046 25.957419,25.669046 C 25.847419,25.779046 25.647419,25.819046 25.457419,25.799046 C 25.257419,25.789046 25.077419,25.679046 25.057419,25.539046 C 25.057419,25.529046 25.057419,25.529046 25.057419,25.519046 L 25.057419,25.519046 z"
     id="text3542"
     style="font-size:1.75px;font-style:normal;font-variant:normal;font-weight:normal;font-stretch:normal;fill:#000000;fill-opacity:1;stroke:none;display:inline;font-family:Arial;-inkscape-font-specification:Arial" />
  <path
     d="M 22.657419,23.739046 C 22.657419,23.779046 22.657419,23.819046 22.657419,23.859046 C 22.317419,23.859046 21.977419,23.859046 21.647419,23.859046 C 21.647419,23.719046 21.797419,23.609046 21.947419,23.529046 C 22.107419,23.429046 22.307419,23.339046 22.417419,23.199046 C 22.487419,23.119046 22.467419,23.009046 22.347419,22.949046 C 22.197419,22.889046 21.957419,22.919046 21.897419,23.039046 C 21.867419,23.079046 21.897419,23.149046 21.807419,23.119046 C 21.767419,23.119046 21.727419,23.119046 21.677419,23.119046 C 21.687419,22.989046 21.797419,22.869046 21.977419,22.829046 C 22.187419,22.789046 22.447419,22.809046 22.577419,22.939046 C 22.707419,23.059046 22.657419,23.219046 22.517419,23.329046 C 22.357419,23.469046 22.127419,23.559046 21.947419,23.689046 C 21.897419,23.729046 21.907419,23.739046 21.977419,23.739046 C 22.207419,23.739046 22.427419,23.739046 22.657419,23.739046 z M 22.857419,23.349046 C 22.857419,23.179046 22.877419,22.999046 23.067419,22.879046 C 23.257419,22.769046 23.587419,22.799046 23.727419,22.949046 C 23.867419,23.099046 23.857419,23.299046 23.847419,23.469046 C 23.827419,23.619046 23.757419,23.779046 23.557419,23.849046 C 23.367419,23.909046 23.097419,23.869046 22.977419,23.739046 C 22.877419,23.619046 22.857419,23.479046 22.857419,23.349046 L 22.857419,23.349046 z M 23.047419,23.349046 C 23.057419,23.459046 23.047419,23.579046 23.137419,23.689046 C 23.207419,23.769046 23.387419,23.799046 23.497419,23.739046 C 23.647419,23.659046 23.647419,23.519046 23.657419,23.409046 C 23.657419,23.279046 23.667419,23.139046 23.587419,23.019046 C 23.517419,22.929046 23.337419,22.889046 23.207419,22.949046 C 23.077419,23.019046 23.067419,23.149046 23.057419,23.259046 C 23.047419,23.289046 23.047419,23.319046 23.047419,23.349046 L 23.047419,23.349046 z"
     id="text3546"
     style="font-size:1.75px;font-style:normal;font-variant:normal;font-weight:normal;font-stretch:normal;fill:#000000;fill-opacity:1;stroke:none;display:inline;font-family:Arial;-inkscape-font-specification:Arial" />
  <path
     d="M 22.617419,20.849046 C 22.617419,20.889046 22.617419,20.929046 22.617419,20.969046 C 22.277419,20.969046 21.947419,20.969046 21.607419,20.969046 C 21.607419,20.839046 21.767419,20.729046 21.907419,20.639046 C 22.077419,20.539046 22.277419,20.449046 22.387419,20.309046 C 22.457419,20.229046 22.417419,20.119046 22.297419,20.069046 C 22.147419,20.009046 21.917419,20.039046 21.857419,20.159046 C 21.827419,20.199046 21.857419,20.269046 21.767419,20.239046 C 21.727419,20.239046 21.687419,20.229046 21.637419,20.229046 C 21.647419,20.109046 21.757419,19.989046 21.947419,19.949046 C 22.147419,19.909046 22.407419,19.929046 22.547419,20.059046 C 22.667419,20.179046 22.617419,20.339046 22.487419,20.439046 C 22.317419,20.579046 22.087419,20.679046 21.917419,20.809046 C 21.857419,20.839046 21.867419,20.859046 21.937419,20.849046 C 22.167419,20.849046 22.387419,20.849046 22.617419,20.849046 z M 22.817419,20.699046 C 22.887419,20.699046 22.947419,20.689046 23.017419,20.689046 C 23.027419,20.779046 23.127419,20.879046 23.267419,20.889046 C 23.447419,20.909046 23.617419,20.799046 23.627419,20.679046 C 23.657419,20.569046 23.587419,20.449046 23.437419,20.409046 C 23.297419,20.379046 23.107419,20.409046 23.027419,20.499046 C 22.967419,20.489046 22.907419,20.489046 22.857419,20.479046 C 22.897419,20.309046 22.947419,20.129046 22.997419,19.949046 C 23.257419,19.949046 23.507419,19.949046 23.757419,19.949046 C 23.757419,19.989046 23.757419,20.029046 23.757419,20.069046 C 23.557419,20.069046 23.357419,20.069046 23.147419,20.069046 C 23.127419,20.159046 23.097419,20.259046 23.067419,20.349046 C 23.257419,20.249046 23.567419,20.269046 23.717419,20.399046 C 23.937419,20.569046 23.837419,20.879046 23.527419,20.959046 C 23.297419,21.029046 22.997419,20.989046 22.877419,20.829046 C 22.847419,20.789046 22.827419,20.749046 22.817419,20.699046 L 22.817419,20.699046 z"
     id="text3550"
     style="font-size:1.75px;font-style:normal;font-variant:normal;font-weight:normal;font-stretch:normal;fill:#000000;fill-opacity:1;stroke:none;display:inline;font-family:Arial;-inkscape-font-specification:Arial" />
  <path
     d="M 25.117419,14.309046 L 25.017419,26.219046 C 24.537419,26.329046 24.177419,26.769046 24.177419,27.309046 C 24.177419,27.839046 24.517419,28.269046 24.987419,28.399046 C 24.967419,28.749046 24.877419,30.089046 24.837419,30.869046 C 24.797419,31.599046 25.707419,31.639046 25.707419,30.929046 C 25.707419,30.479046 25.637419,29.319046 25.587419,28.399046 C 26.037419,28.259046 26.367419,27.829046 26.367419,27.309046 C 26.367419,26.789046 26.037419,26.349046 25.587419,26.219046 L 25.367419,14.369046 L 25.117419,14.309046 z"
     id="p3515"
     style="fill:#000000;fill-opacity:1;fill-rule:evenodd;stroke:none;display:inline" />
  <path
     d="M 26.017419,27.109046 C 26.017419,27.539046 25.687419,27.889046 25.267419,27.889046 C 24.857419,27.889046 24.527419,27.539046 24.527419,27.109046 C 24.527419,26.679046 24.857419,26.329046 25.267419,26.329046 C 25.687419,26.329046 26.017419,26.679046 26.017419,27.109046 z"
     id="p3519"
     style="fill:#71602e;fill-opacity:1;fill-rule:evenodd;stroke:none;marker:none;visibility:visible;display:inline;overflow:visible;enable-background:accumulate" />
  <path
     d="M 36.987419,20.059046 C 30.297419,24.269046 25.747419,32.949046 25.087419,41.749046 C 27.297419,41.799046 29.567419,41.369046 31.677419,40.369046 C 38.787419,36.999046 41.557419,28.559046 37.867419,21.529046 C 37.597419,21.019046 37.307419,20.519046 36.987419,20.059046 z"
     id="p3643"
     style="fill:#3b4650;fill-opacity:0.1;fill-rule:evenodd;stroke:none;display:inline" />
  <path
     d="M 25.887419,27.109046 C 25.887419,27.469046 25.617419,27.749046 25.267419,27.749046 C 24.927419,27.749046 24.657419,27.469046 24.657419,27.109046 C 24.657419,26.749046 24.927419,26.469046 25.267419,26.469046 C 25.617419,26.469046 25.887419,26.749046 25.887419,27.109046 z"
     id="p3522"
     style="fill:#0f351a;fill-opacity:1;fill-rule:evenodd;stroke:none;marker:none;visibility:visible;display:inline;overflow:visible;enable-background:accumulate" />
  <path
     d="M 38.207419,22.249046 C 29.547419,30.689046 19.497419,37.109046 10.797419,30.179046 C 11.067419,31.389046 11.477419,32.589046 12.087419,33.749046 C 15.767419,40.779046 24.567419,43.739046 31.677419,40.369046 C 38.547419,37.119046 41.347419,29.129046 38.207419,22.249046 z"
     id="p3655"
     style="fill:#23685a;fill-opacity:0.1;fill-rule:evenodd;stroke:none;display:inline" />
  <path
     d="M 37.867419,21.519046 C 41.557419,28.559046 38.787419,36.999046 31.667419,40.369046 C 24.547419,43.739046 15.787419,40.769046 12.097419,33.729046 C 8.407419,26.689046 11.187419,18.249046 18.297419,14.879046 C 25.417419,11.509046 34.177419,14.479046 37.867419,21.519046 z"
     id="p3612"
     style="fill:#6bbac6;fill-opacity:0.35;fill-rule:evenodd;stroke:none;marker:none;visibility:visible;display:inline;overflow:visible;enable-background:accumulate" />
  <path
     d="M 16.837419,12.869046 C 16.757419,12.859046 16.657419,12.869046 16.587419,12.899046 C 15.837419,13.229046 14.017419,14.189046 13.367419,14.679046 C 13.157419,14.519046 12.687419,13.769046 12.397419,14.059046 C 12.107419,14.349046 10.787419,15.489046 10.457419,15.899046 C 10.127419,16.309046 10.087419,16.439046 10.207419,16.559046 C 10.327419,16.679046 10.587419,16.939046 10.837419,17.179046 C 10.547419,17.509046 9.157419,19.759046 8.987419,20.219046 C 8.857419,20.569046 9.067419,20.919046 9.457419,21.149046 C 9.467419,21.159046 9.477419,21.149046 9.487419,21.149046 C 10.347419,19.559046 11.157419,17.979046 12.647419,16.529046 C 14.127419,15.079046 16.197419,14.159046 17.457419,13.309046 C 17.267419,13.079046 17.057419,12.899046 16.837419,12.869046 z"
     id="p3614"
     style="fill:#cbc6c4;fill-opacity:1;fill-rule:evenodd;stroke:none;display:inline" />
  <path
     d="M 23.657419,11.949046 C 23.657419,11.949046 24.497419,11.769046 25.007419,11.809046 C 25.517419,11.859046 26.257419,11.999046 26.257419,11.999046 L 26.217419,9.8590457 C 26.217419,9.8590457 27.427419,9.4890457 28.347419,8.9290457 C 29.277419,8.3690457 28.117419,7.3990457 27.697419,7.2090457 C 27.287419,7.0290457 23.057419,6.9790457 22.587419,7.0290457 C 22.127419,7.0690457 20.957419,7.3690457 21.377419,8.5590457 C 21.657419,9.3490457 23.657419,9.5790457 23.657419,9.5790457 L 23.657419,11.949046 z"
     id="p3648"
     style="fill:#192332;fill-opacity:1;fill-rule:evenodd;stroke:none;display:inline" />
  <path
     d="M 21.707419,12.509046 C 23.377419,12.279046 25.427419,11.949046 28.167419,12.739046"
     id="p3651"
     style="fill:none;fill-rule:evenodd;stroke:#0f1530;stroke-width:0.5;stroke-linecap:round;stroke-linejoin:miter;stroke-miterlimit:4;stroke-dasharray:none;stroke-opacity:0.67000002;display:inline" />
  <path
     d="M 24.077419,8.0190457 C 24.517419,7.9990457 25.337419,8.0790457 25.547419,8.1590457"
     id="p3662"
     style="fill:none;fill-rule:evenodd;stroke:#9b9b9b;stroke-width:1.60000002;stroke-linecap:round;stroke-linejoin:miter;stroke-miterlimit:4;stroke-dasharray:none;stroke-opacity:0.41999996;display:inline" />
  <path
     d="M 24.217419,7.9990457 C 24.447419,7.9590457 24.727419,7.9990457 24.917419,7.9990457"
     id="p3653"
     style="fill:none;fill-rule:evenodd;stroke:#ffffff;stroke-width:1px;stroke-linecap:round;stroke-linejoin:miter;stroke-opacity:0.77999998;display:inline" />
  <path
     d="M 24.697419,9.8490457 L 24.757419,11.359046"
     id="p3664"
     style="fill:none;fill-rule:evenodd;stroke:#494d5e;stroke-width:0.40000001;stroke-linecap:round;stroke-linejoin:miter;stroke-miterlimit:4;stroke-dasharray:none;stroke-opacity:0.68999999;display:inline" />
  <path
     d="M 23.957419,9.6290457 C 24.207419,9.6090457 25.067419,9.6690457 25.317419,9.6690457"
     id="p3660"
     style="fill:none;fill-rule:evenodd;stroke:#ebebeb;stroke-width:0.30000001;stroke-linecap:round;stroke-linejoin:miter;stroke-miterlimit:4;stroke-dasharray:none;stroke-opacity:0.9;display:inline" />
  <path
     d="M 25.087419,3.6790457 L 24.547419,3.9990457 L 23.837419,3.7190457 L 23.207419,4.1490457 L 22.737419,3.9690457 L 22.207419,4.4690457 L 22.147419,4.5590457 L 22.087419,5.0590457 L 22.897419,6.5890457 C 22.857419,6.5890457 22.827419,6.5890457 22.797419,6.5890457 C 23.427419,6.7890457 23.997419,6.6290457 24.927419,6.6790457 C 25.727419,6.7190457 26.507419,6.8090457 27.177419,6.5890457 C 27.147419,6.5890457 27.117419,6.5890457 27.087419,6.5890457 L 27.797419,5.0890457 L 27.797419,4.8390457 L 27.587419,4.3690457 L 27.297419,4.3690457 L 26.957419,4.1190457 L 26.367419,4.1490457 L 26.047419,3.8390457 L 25.547419,4.0290457 L 25.087419,3.6790457 z"
     id="p3666"
     style="fill:#1f242b;fill-opacity:0.81999972;fill-rule:evenodd;stroke:none;display:inline" />
  <path
     d="M 25.087419,3.6790457 L 24.547419,3.9990457 L 23.837419,3.7190457 L 23.587419,3.8990457 L 24.047419,6.6790457 C 24.317419,6.6690457 24.587419,6.6590457 24.927419,6.6790457 C 25.317419,6.7090457 25.717419,6.7390457 26.087419,6.7490457 L 26.647419,4.1490457 L 26.367419,4.1490457 L 26.047419,3.8390457 L 25.547419,4.0290457 L 25.087419,3.6790457 z"
     id="p3679"
     style="fill:#3c4654;fill-opacity:0.51000001;fill-rule:evenodd;stroke:none;display:inline" />
  <path
     d="M 20.077419,7.5890457 L 21.017419,8.1290457"
     id="p3709"
     style="fill:none;fill-rule:evenodd;stroke:#dddddd;stroke-width:0.5;stroke-linecap:round;stroke-linejoin:miter;stroke-miterlimit:4;stroke-dasharray:none;stroke-opacity:0.91000001;display:inline" />
  <path
     d="M 28.207419,4.0690457 L 28.707419,4.3090457"
     id="p3712"
     style="fill:none;fill-rule:evenodd;stroke:#ffffff;stroke-width:0.5;stroke-linecap:round;stroke-linejoin:miter;stroke-miterlimit:4;stroke-dasharray:none;stroke-opacity:0.82999998;display:inline" />
  <path
     d="M 11.377419,15.889046 C 11.647419,15.359046 12.707419,14.509046 12.707419,14.509046"
     id="p3624"
     style="fill:none;fill-rule:evenodd;stroke:#0d234f;stroke-width:0.60000002;stroke-linecap:round;stroke-linejoin:miter;stroke-miterlimit:4;stroke-dasharray:none;stroke-opacity:0.67000002" />
  <path
     d="M 11.697419,16.469046 L 11.167419,16.099046"
     id="p3628"
     style="fill:none;fill-rule:evenodd;stroke:#fdfdfd;stroke-width:0.69;stroke-linecap:round;stroke-linejoin:miter;stroke-miterlimit:4;stroke-dasharray:none;stroke-opacity:0.86000001" />
  <path
     d="M 10.527419,15.889046 L 10.527419,15.889046 L 11.277419,16.629046 L 11.327419,16.999046 L 10.897419,17.319046"
     id="p3616"
     style="fill:none;fill-rule:evenodd;stroke:#000000;stroke-width:0.2;stroke-linecap:butt;stroke-linejoin:miter;stroke-miterlimit:4;stroke-dasharray:none;stroke-opacity:1" />
  <path
     d="M 27.797419,5.0890457 L 27.837419,4.4690457 C 27.837419,4.4690457 27.457419,3.4990457 24.767419,3.4990457 C 22.077419,3.4990457 22.177419,4.3990457 22.177419,4.3990457"
     id="p3675"
     style="fill:none;fill-opacity:1;fill-rule:evenodd;stroke:#000000;stroke-width:0.2;stroke-linecap:butt;stroke-linejoin:miter;stroke-miterlimit:4;stroke-dasharray:none;stroke-opacity:1;display:inline" />
  <path
     d="M 37.867419,21.519046 C 41.557419,28.559046 38.787419,36.999046 31.667419,40.369046 C 24.547419,43.739046 15.787419,40.769046 12.097419,33.729046 C 8.407419,26.689046 11.187419,18.249046 18.297419,14.879046 C 25.417419,11.509046 34.177419,14.479046 37.867419,21.519046 z"
     id="p3398"
     style="fill:none;fill-opacity:1;fill-rule:evenodd;stroke:#d0bb9b;stroke-width:0.40000001;stroke-linecap:butt;stroke-linejoin:miter;marker:none;stroke-miterlimit:4;stroke-dasharray:none;stroke-dashoffset:0;stroke-opacity:1;visibility:visible;display:inline;overflow:visible;enable-background:accumulate" />
  <path
     d="M 9.617419,21.009046 C 10.847419,18.709046 12.887419,15.479046 17.307419,13.449046"
     id="p3630"
     style="fill:none;fill-rule:evenodd;stroke:#545c71;stroke-width:0.30000001;stroke-linecap:butt;stroke-linejoin:miter;stroke-miterlimit:4;stroke-dasharray:none;stroke-opacity:1" />
  <path
     d="M 12.017419,17.529046 C 12.497419,16.899046 13.237419,16.259046 13.607419,15.989046"
     id="p3619"
     style="fill:none;fill-rule:evenodd;stroke:#232e3b;stroke-width:0.60000002;stroke-linecap:round;stroke-linejoin:miter;stroke-miterlimit:4;stroke-dasharray:none;stroke-opacity:0.5" />
  <path
     d="M 9.577419,20.139046 L 9.837419,19.659046"
     id="p3626"
     style="fill:none;fill-rule:evenodd;stroke:#ffffff;stroke-width:0.69;stroke-linecap:round;stroke-linejoin:miter;stroke-miterlimit:4;stroke-dasharray:none;stroke-opacity:0.76999996" />
  <path
     d="M 14.167419,14.999046 L 14.697419,14.599046"
     id="p3632"
     style="fill:none;fill-rule:evenodd;stroke:#f9f9f9;stroke-width:0.5;stroke-linecap:round;stroke-linejoin:miter;stroke-miterlimit:4;stroke-dasharray:none;stroke-opacity:0.83999999" />
  <path
     d="M 28.337419,20.219046 C 29.337419,22.089046 29.587419,24.589046 29.457419,25.839046"
     id="p3634"
     style="fill:none;fill-rule:evenodd;stroke:#fdfdfd;stroke-width:4.59000015;stroke-linecap:round;stroke-linejoin:miter;stroke-miterlimit:4;stroke-dasharray:none;stroke-opacity:0.21000001" />
  <path
     d="M 19.207419,31.589046 C 19.957419,32.339046 21.457419,33.839046 22.337419,34.219046"
     id="p3636"
     style="fill:none;fill-rule:evenodd;stroke:#fafafa;stroke-width:4.4000001;stroke-linecap:round;stroke-linejoin:miter;stroke-miterlimit:4;stroke-dasharray:none;stroke-opacity:0.21000001" />
  <path
     d="M 23.497419,6.4090457 L 23.217419,5.0190457"
     id="p3682"
     style="fill:none;fill-rule:evenodd;stroke:#80a78f;stroke-width:0.40000001;stroke-linecap:round;stroke-linejoin:miter;stroke-miterlimit:4;stroke-dasharray:none;stroke-opacity:0.68999999" />
  <path
     d="M 23.907419,6.1590457 L 23.827419,5.5090457"
     id="p3684"
     style="fill:none;fill-opacity:1;fill-rule:evenodd;stroke:#abb899;stroke-width:0.40000001;stroke-linecap:round;stroke-linejoin:miter;marker:none;stroke-miterlimit:4;stroke-dasharray:none;stroke-dashoffset:0;stroke-opacity:0.46000001;visibility:visible;display:inline;overflow:visible;enable-background:accumulate" />
  <path
     d="M 25.957419,6.4090457 L 26.317419,4.9390457"
     id="p3686"
     style="fill:none;fill-opacity:1;fill-rule:evenodd;stroke:#abc290;stroke-width:0.40000001;stroke-linecap:round;stroke-linejoin:miter;marker:none;stroke-miterlimit:4;stroke-dasharray:none;stroke-dashoffset:0;stroke-opacity:0.33000004;visibility:visible;display:inline;overflow:visible;enable-background:accumulate" />
  <path
     d="M 26.357419,6.2890457 L 26.567419,5.7990457"
     id="p3688"
     style="fill:none;fill-opacity:1;fill-rule:evenodd;stroke:#80a78f;stroke-width:0.40000001;stroke-linecap:round;stroke-linejoin:miter;marker:none;stroke-miterlimit:4;stroke-dasharray:none;stroke-dashoffset:0;stroke-opacity:0.68999999;visibility:visible;display:inline;overflow:visible;enable-background:accumulate" />
  <path
     d="M 23.457419,4.4090457 L 23.787419,4.3190457"
     id="p3692"
     style="fill:none;fill-rule:evenodd;stroke:#fefefe;stroke-width:0.60000002;stroke-linecap:round;stroke-linejoin:miter;stroke-miterlimit:4;stroke-dasharray:none;stroke-opacity:0.88999999" />
  <path
     d="M 26.447419,4.4090457 L 26.727419,4.5290457"
     id="p3694"
     style="fill:none;fill-rule:evenodd;stroke:#fdfdfd;stroke-width:0.40000001;stroke-linecap:round;stroke-linejoin:miter;stroke-miterlimit:4;stroke-dasharray:none;stroke-opacity:0.88999999" />
  <path
     d="M 24.317419,4.6890457 L 24.337419,6.4190457"
     id="p3696"
     style="fill:none;fill-rule:evenodd;stroke:#676767;stroke-width:0.40000001;stroke-linecap:round;stroke-linejoin:miter;stroke-miterlimit:4;stroke-dasharray:none;stroke-opacity:0.36000001" />
  <path
     d="M 25.567419,5.2290457 L 25.447419,6.3690457"
     id="p3698"
     style="fill:none;fill-rule:evenodd;stroke:#676767;stroke-width:0.40000001;stroke-linecap:round;stroke-linejoin:miter;stroke-miterlimit:4;stroke-dasharray:none;stroke-opacity:0.36000001;display:inline" />
  <path
     d="M 22.677419,2.9990457 C 22.387419,3.0090457 22.107419,3.0290457 21.867419,3.0590457 C 19.807419,3.2890457 18.427419,4.5590457 18.427419,5.9990457 C 18.427419,6.4790457 18.477419,7.1690457 18.927419,7.8090457 C 19.377419,8.4490457 20.147419,8.9890457 21.397419,9.4990457 L 21.427419,9.4290457 C 21.787419,9.7190457 22.287419,10.039046 23.017419,10.219046 C 23.047419,10.599046 23.007419,11.539046 22.987419,11.969046 C 21.097419,12.109046 19.227419,12.559046 17.487419,13.339046 C 17.227419,13.009046 16.897419,12.759046 16.587419,12.899046 C 15.837419,13.229046 14.017419,14.189046 13.367419,14.679046 C 13.157419,14.519046 12.687419,13.769046 12.397419,14.059046 C 12.107419,14.349046 10.787419,15.489046 10.457419,15.899046 C 10.127419,16.309046 10.087419,16.439046 10.207419,16.559046 C 10.327419,16.679046 10.587419,16.939046 10.837419,17.179046 C 10.547419,17.509046 9.157419,19.759046 8.987419,20.219046 C 8.857419,20.579046 9.087419,20.919046 9.487419,21.149046 C 6.367419,27.739046 8.007419,35.929046 13.957419,40.969046 C 21.047419,46.949046 31.577419,46.209046 37.457419,39.309046 C 43.337419,32.409046 42.357419,21.949046 35.267419,15.969046 C 32.777419,13.859046 29.857419,12.589046 26.867419,12.119046 C 26.847419,11.839046 26.767419,10.639046 26.797419,10.219046 C 27.307419,10.089046 27.697419,9.8890457 28.017419,9.6790457 C 29.007419,9.3790457 30.087419,8.9890457 30.737419,8.1490457 C 31.397419,7.3090457 31.327419,6.2290457 30.897419,5.4290457 C 30.457419,4.6390457 29.717419,4.0190457 28.867419,3.6790457 C 28.037419,3.3490457 26.837419,3.1890457 25.517419,3.0890457 C 24.537419,3.0090457 23.537419,2.9690457 22.677419,2.9990457 z M 22.017419,4.5590457 C 22.057419,4.5590457 22.107419,4.5590457 22.147419,4.5590457 L 22.087419,5.0590457 L 22.897419,6.5890457 C 22.737419,6.5890457 22.617419,6.5890457 22.457419,6.5890457 C 21.787419,6.5890457 20.897419,7.3390457 20.897419,7.3390457 C 20.897419,7.3390457 20.897419,7.5190457 20.897419,7.5590457 C 20.527419,7.3290457 20.297419,7.1090457 20.177419,6.9290457 C 19.957419,6.6190457 19.927419,6.3890457 19.927419,5.9990457 C 19.927419,5.6890457 20.517419,4.7290457 22.017419,4.5590457 z M 27.797419,4.9290457 C 28.007419,4.9790457 28.187419,5.0090457 28.297419,5.0590457 C 28.837419,5.2690457 29.357419,5.7290457 29.587419,6.1490457 C 29.807419,6.5690457 29.847419,6.8690457 29.547419,7.2490457 C 29.467419,7.3590457 29.237419,7.4990457 28.957419,7.6490457 C 28.957419,7.5690457 28.957419,7.3390457 28.957419,7.3390457 C 28.957419,7.3390457 28.037419,6.5890457 27.367419,6.5890457 C 27.267419,6.5890457 27.177419,6.5890457 27.087419,6.5890457 L 27.797419,5.0890457 L 27.797419,4.9290457 z"
     id="stroke01"
     style="fill:none;fill-opacity:0.5;fill-rule:evenodd;stroke:#2e0b0b;stroke-width:0.5;stroke-linecap:butt;stroke-linejoin:miter;marker:none;stroke-miterlimit:4;stroke-dasharray:none;stroke-dashoffset:0;stroke-opacity:1;visibility:visible;display:inline;overflow:visible;enable-background:accumulate" />
</svg>
