<?xml version="1.0" encoding="UTF-8" standalone="no"?>
<svg xmlns:svg="http://www.w3.org/2000/svg" xmlns="http://www.w3.org/2000/svg" version="1.0" width="100%" height="100%" viewBox="0 0 48 48" id="svg2383">
<defs id="defs2385"/>
<rect width="40" height="40" ry="2.5" x="4" y="4" id="r2393" style="fill:#5b5b5b;fill-opacity:1;fill-rule:evenodd;stroke:#acacac;stroke-width:7;stroke-linecap:round;stroke-linejoin:miter;marker:none;stroke-miterlimit:4;stroke-dasharray:none;stroke-dashoffset:0;stroke-opacity:1;visibility:visible;display:inline;overflow:visible;enable-background:accumulate"/>
<path d="M 33.12,11.25 C 32.58,12.72 31.82,13.99 30.87,15 C 29.92,16.00 28.59,16.84 26.87,17.56 L 26.87,22.93 C 28.03,22.47 29.01,22.00 29.78,21.5 C 30.55,20.99 31.36,20.34 32.18,19.53 L 32.18,35.21 L 37.28,35.21 L 37.28,11.25 L 33.12,11.25 z M 9.78,11.65 L 9.78,35.21 L 15.40,35.21 L 15.40,25.59 L 22.43,25.59 L 22.43,20.84 L 15.40,20.84 L 15.40,16.71 L 23.62,16.71 L 23.62,11.65 L 9.78,11.65 z" id="text2382" style="font-size:28.89px;font-style:normal;font-variant:normal;font-weight:normal;font-stretch:normal;fill:#e4e4e4;fill-opacity:1;stroke:none;font-family:Arial Black;-inkscape-font-specification:Arial Black"/>
</svg>
