<?xml version="1.0" encoding="UTF-8" standalone="no"?>
<svg xmlns:svg="http://www.w3.org/2000/svg" xmlns="http://www.w3.org/2000/svg" version="1.0" width="100%" height="100%" viewBox="0 0 48 48" id="svg2383">
<defs id="defs2385"/>
<rect width="40" height="40" ry="2.5" x="4" y="4" id="r2393" style="fill:#5b5b5b;fill-opacity:1;fill-rule:evenodd;stroke:#acacac;stroke-width:7;stroke-linecap:round;stroke-linejoin:miter;marker:none;stroke-miterlimit:4;stroke-dasharray:none;stroke-dashoffset:0;stroke-opacity:1;visibility:visible;display:inline;overflow:visible;enable-background:accumulate"/>
<path d="M 31.93,11.25 C 30.23,11.25 28.90,11.53 27.93,12.09 C 26.98,12.64 26.24,13.42 25.71,14.46 C 25.19,15.49 24.82,16.93 24.62,18.78 L 29.68,19.31 C 29.82,17.98 30.09,17.05 30.5,16.53 C 30.91,16.00 31.44,15.75 32.09,15.75 C 32.71,15.75 33.22,15.98 33.62,16.5 C 34.03,17.00 34.21,17.62 34.21,18.34 C 34.21,19.00 34.03,19.69 33.62,20.43 C 33.21,21.17 32.25,22.26 30.78,23.68 C 28.36,26.01 26.69,28.03 25.81,29.75 C 24.93,31.45 24.42,33.27 24.25,35.21 L 39.37,35.21 L 39.37,29.87 L 31.5,29.87 C 31.96,29.28 32.38,28.83 32.71,28.46 C 33.06,28.10 33.73,27.44 34.75,26.53 C 36.45,24.96 37.63,23.55 38.28,22.25 C 38.93,20.94 39.24,19.56 39.25,18.12 C 39.24,16.77 38.97,15.55 38.40,14.46 C 37.84,13.37 37.05,12.55 36.06,12.03 C 35.08,11.50 33.71,11.25 31.93,11.25 z M 8.53,11.65 L 8.53,35.21 L 14.15,35.21 L 14.15,25.59 L 21.18,25.59 L 21.18,20.84 L 14.15,20.84 L 14.15,16.71 L 22.40,16.71 L 22.40,11.65 L 8.53,11.65 z" id="text2382" style="font-size:28.89px;font-style:normal;font-variant:normal;font-weight:normal;font-stretch:normal;fill:#e4e4e4;fill-opacity:1;stroke:none;font-family:Arial Black;-inkscape-font-specification:Arial Black"/>
</svg>
