<?xml version="1.0" encoding="UTF-8" standalone="no"?>
<svg xmlns:svg="http://www.w3.org/2000/svg" xmlns="http://www.w3.org/2000/svg" version="1.0" width="100%" height="100%" viewBox="0 0 48 48" id="svg2383">
<defs id="defs2385"/>
<rect width="40" height="40" ry="2.5" x="4" y="4" id="r2393" style="fill:#4d4d4d;fill-opacity:1;fill-rule:evenodd;stroke:#ffffff;stroke-width:7;stroke-linecap:round;stroke-linejoin:miter;marker:none;stroke-miterlimit:4;stroke-dasharray:none;stroke-dashoffset:0;stroke-opacity:1;visibility:visible;display:inline;overflow:visible;enable-background:accumulate"/>
<path d="M 24.28,5 C 23.66,5 23.06,5.24 22.59,5.71 L 5.68,22.59 C 4.74,23.53 4.74,25.03 5.68,25.96 L 21.28,41.56 C 22.21,42.50 23.71,42.50 24.65,41.56 L 41.53,24.65 C 42.46,23.71 42.46,22.21 41.53,21.28 L 25.96,5.71 C 25.49,5.24 24.89,5 24.28,5 z" id="r2383" style="fill:#9a9a9a;fill-opacity:1;fill-rule:evenodd;stroke:none;marker:none;visibility:visible;display:inline;overflow:visible;enable-background:accumulate"/>
<path d="M 24.09,14.37 C 21.39,14.37 19.38,15.07 18.06,16.46 C 16.74,17.86 16.09,20.29 16.09,23.78 C 16.09,25.19 16.21,26.51 16.46,27.68 C 16.73,28.85 17.09,29.76 17.56,30.43 C 18.20,31.38 19.03,32.10 20.03,32.59 C 21.03,33.08 22.34,33.34 23.96,33.34 C 26.86,33.34 28.87,32.57 30.06,31.03 C 31.24,29.48 31.84,27.04 31.84,23.71 C 31.84,22.23 31.67,20.80 31.31,19.43 C 31.12,18.72 30.86,18.09 30.56,17.56 C 30.26,17.02 29.87,16.51 29.34,16.03 C 28.81,15.53 28.11,15.14 27.28,14.84 C 26.44,14.53 25.39,14.37 24.09,14.37 z M 23.90,17.75 C 24.77,17.75 25.44,18.18 25.87,19.03 C 26.31,19.86 26.53,21.50 26.53,23.93 C 26.53,25.59 26.41,26.80 26.21,27.59 C 26.03,28.37 25.74,28.94 25.34,29.31 C 24.94,29.67 24.48,29.87 23.93,29.87 C 23.11,29.87 22.46,29.44 22.03,28.59 C 21.60,27.73 21.40,26.11 21.40,23.78 C 21.40,21.47 21.60,19.91 22,19.06 C 22.39,18.20 23.02,17.75 23.90,17.75 z" id="text3349" style="font-size:26.28px;font-style:normal;font-variant:normal;font-weight:normal;font-stretch:normal;text-align:start;line-height:80.00%;writing-mode:lr-tb;text-anchor:start;fill:#ffffff;fill-opacity:1;stroke:none;font-family:Arial Black;-inkscape-font-specification:Arial Black"/>
<g id="g3325">
<path d="M 9.18,5.56 C 4.66,5.56 0.96,9.25 0.96,13.78 C 0.96,18.30 4.66,21.96 9.18,21.96 C 13.71,21.96 17.37,18.30 17.37,13.78 C 17.37,9.25 13.71,5.56 9.18,5.56 z" id="p3242" style="fill:#333333;fill-opacity:1;fill-rule:evenodd;stroke:none;marker:none;visibility:visible;display:inline;overflow:visible;enable-background:accumulate"/>
<path d="M 10.46,15.81 C 9.44,15.81 8.43,15.81 7.41,15.81 C 7.38,15.06 7.48,14.25 8.02,13.66 C 8.63,13.00 9.43,12.54 10.08,11.92 C 10.52,11.53 10.36,10.74 9.74,10.59 C 9.10,10.40 8.28,10.66 8.06,11.28 C 7.83,11.53 8.08,12.23 7.57,12.05 C 6.63,11.94 5.69,11.84 4.75,11.73 C 4.84,10.38 5.71,9.00 7.17,8.55 C 8.36,8.18 9.68,8.16 10.91,8.41 C 12.26,8.71 13.51,9.72 13.60,11.04 C 13.73,11.92 13.21,12.74 12.51,13.30 C 11.90,13.87 11.05,14.25 10.62,14.97 C 10.49,15.23 10.46,15.52 10.46,15.81 L 10.46,15.81 z M 7.31,16.55 C 8.39,16.55 9.48,16.55 10.57,16.55 C 10.57,17.42 10.57,18.30 10.57,19.18 C 9.48,19.18 8.39,19.18 7.31,19.18 C 7.31,18.30 7.31,17.42 7.31,16.55 z" id="text3234" style="font-size:12.35px;font-style:normal;font-variant:normal;font-weight:normal;font-stretch:normal;text-align:start;line-height:80.00%;writing-mode:lr-tb;text-anchor:start;fill:#ffffff;fill-opacity:1;stroke:none;font-family:Arial Black;-inkscape-font-specification:Arial Black"/>
</g>
</svg>
