<?xml version="1.0" encoding="UTF-8" standalone="no"?>
<svg xmlns:svg="http://www.w3.org/2000/svg" xmlns="http://www.w3.org/2000/svg" version="1.0" width="100%" height="100%" viewBox="0 0 48 48" id="svg2383">
<defs id="defs2385"/>
<rect width="40" height="40" ry="2.5" x="4" y="4" id="r2393" style="fill:#4d4d4d;fill-opacity:1;fill-rule:evenodd;stroke:#ffffff;stroke-width:7;stroke-linecap:round;stroke-linejoin:miter;marker:none;stroke-miterlimit:4;stroke-dasharray:none;stroke-dashoffset:0;stroke-opacity:1;visibility:visible;display:inline;overflow:visible;enable-background:accumulate"/>
<path d="M 24.28,5 C 23.66,5 23.06,5.24 22.59,5.71 L 5.68,22.59 C 4.74,23.53 4.74,25.03 5.68,25.96 L 21.28,41.56 C 22.21,42.50 23.71,42.50 24.65,41.56 L 41.53,24.65 C 42.46,23.71 42.46,22.21 41.53,21.28 L 25.96,5.71 C 25.49,5.24 24.89,5 24.28,5 z" id="r2383" style="fill:#9a9a9a;fill-opacity:1;fill-rule:evenodd;stroke:none;marker:none;visibility:visible;display:inline;overflow:visible;enable-background:accumulate"/>
<path d="M 7.5,7.5 L 7.5,14.62 L 16.87,24 L 7.5,33.37 L 7.5,40.5 L 14.62,40.5 L 24,31.12 L 33.37,40.5 L 40.5,40.5 L 40.5,33.37 L 31.12,24 L 40.5,14.62 L 40.5,7.5 L 33.37,7.5 L 24,16.87 L 14.62,7.5 L 7.5,7.5 z" id="p2384" style="fill:#800000;fill-opacity:0.75;fill-rule:evenodd;stroke:none;"/>
<path d="M 23.65,14.37 C 21.70,14.37 20.12,14.74 18.93,15.5 C 17.41,16.47 16.68,17.71 16.68,19.25 C 16.68,20.18 16.94,21.03 17.46,21.75 C 17.85,22.27 18.47,22.73 19.31,23.15 C 18.21,23.56 17.40,24.15 16.87,24.90 C 16.34,25.64 16.09,26.54 16.09,27.62 C 16.09,28.72 16.37,29.73 16.93,30.62 C 17.49,31.51 18.29,32.19 19.37,32.65 C 20.45,33.11 22.01,33.34 24.06,33.34 C 25.15,33.34 26.16,33.23 27.12,33.03 C 28.09,32.83 28.92,32.49 29.56,32.06 C 30.21,31.62 30.74,31.04 31.18,30.25 C 31.63,29.44 31.84,28.57 31.84,27.65 C 31.84,26.70 31.58,25.84 31.06,25.06 C 30.55,24.27 29.79,23.63 28.75,23.15 C 29.53,22.65 30.10,22.15 30.46,21.62 C 30.96,20.90 31.21,20.13 31.21,19.31 C 31.21,17.89 30.61,16.71 29.37,15.78 C 28.14,14.84 26.23,14.37 23.65,14.37 z M 23.90,17.46 C 24.54,17.46 25.08,17.66 25.5,18.06 C 25.91,18.45 26.12,18.99 26.12,19.62 C 26.12,20.23 25.92,20.71 25.53,21.09 C 25.13,21.47 24.61,21.68 24,21.68 C 23.30,21.68 22.76,21.47 22.34,21.09 C 21.93,20.70 21.71,20.19 21.71,19.56 C 21.71,18.94 21.90,18.44 22.31,18.06 C 22.72,17.67 23.25,17.46 23.90,17.46 z M 23.90,24.68 C 24.58,24.68 25.17,24.95 25.68,25.46 C 26.20,25.98 26.46,26.62 26.46,27.43 C 26.46,28.23 26.22,28.91 25.71,29.43 C 25.20,29.95 24.60,30.21 23.96,30.21 C 23.30,30.21 22.70,29.94 22.18,29.43 C 21.66,28.92 21.43,28.27 21.43,27.46 C 21.43,26.61 21.66,25.93 22.15,25.43 C 22.65,24.93 23.23,24.68 23.90,24.68 z" id="text3349" style="font-size:26.28px;font-style:normal;font-variant:normal;font-weight:normal;font-stretch:normal;text-align:start;line-height:80.00%;writing-mode:lr-tb;text-anchor:start;fill:#ffffff;fill-opacity:1;stroke:none;font-family:Arial Black;-inkscape-font-specification:Arial Black"/>
<g id="g3325">
<path d="M 9.18,5.56 C 4.66,5.56 0.96,9.25 0.96,13.78 C 0.96,18.30 4.66,21.96 9.18,21.96 C 13.71,21.96 17.37,18.30 17.37,13.78 C 17.37,9.25 13.71,5.56 9.18,5.56 z" id="p3242" style="fill:#333333;fill-opacity:1;fill-rule:evenodd;stroke:none;marker:none;visibility:visible;display:inline;overflow:visible;enable-background:accumulate"/>
<path d="M 10.46,15.81 C 9.44,15.81 8.43,15.81 7.41,15.81 C 7.38,15.06 7.48,14.25 8.02,13.66 C 8.63,13.00 9.43,12.54 10.08,11.92 C 10.52,11.53 10.36,10.74 9.74,10.59 C 9.10,10.40 8.28,10.66 8.06,11.28 C 7.83,11.53 8.08,12.23 7.57,12.05 C 6.63,11.94 5.69,11.84 4.75,11.73 C 4.84,10.38 5.71,9.00 7.17,8.55 C 8.36,8.18 9.68,8.16 10.91,8.41 C 12.26,8.71 13.51,9.72 13.60,11.04 C 13.73,11.92 13.21,12.74 12.51,13.30 C 11.90,13.87 11.05,14.25 10.62,14.97 C 10.49,15.23 10.46,15.52 10.46,15.81 L 10.46,15.81 z M 7.31,16.55 C 8.39,16.55 9.48,16.55 10.57,16.55 C 10.57,17.42 10.57,18.30 10.57,19.18 C 9.48,19.18 8.39,19.18 7.31,19.18 C 7.31,18.30 7.31,17.42 7.31,16.55 z" id="text3234" style="font-size:12.35px;font-style:normal;font-variant:normal;font-weight:normal;font-stretch:normal;text-align:start;line-height:80.00%;writing-mode:lr-tb;text-anchor:start;fill:#ffffff;fill-opacity:1;stroke:none;font-family:Arial Black;-inkscape-font-specification:Arial Black"/>
</g>
</svg>
