<?xml version="1.0" encoding="UTF-8" standalone="no"?>
<svg xmlns:svg="http://www.w3.org/2000/svg" xmlns="http://www.w3.org/2000/svg" version="1.0" width="100%" height="100%" viewBox="0 0 48 48" id="svg2383">
<defs id="defs2385"/>
<rect width="40" height="40" ry="2.5" x="4" y="4" id="r2393" style="fill:#4d4d4d;fill-opacity:1;fill-rule:evenodd;stroke:#ffffff;stroke-width:7;stroke-linecap:round;stroke-linejoin:miter;marker:none;stroke-miterlimit:4;stroke-dasharray:none;stroke-dashoffset:0;stroke-opacity:1;visibility:visible;display:inline;overflow:visible;enable-background:accumulate"/>
<path d="M 24.28,5 C 23.66,5 23.06,5.24 22.59,5.71 L 5.68,22.59 C 4.74,23.53 4.74,25.03 5.68,25.96 L 21.28,41.56 C 22.21,42.50 23.71,42.50 24.65,41.56 L 41.53,24.65 C 42.46,23.71 42.46,22.21 41.53,21.28 L 25.96,5.71 C 25.49,5.24 24.89,5 24.28,5 z" id="r2383" style="fill:#9a9a9a;fill-opacity:1;fill-rule:evenodd;stroke:none;marker:none;visibility:visible;display:inline;overflow:visible;enable-background:accumulate"/>
<path d="M 7.5,7.5 L 7.5,14.62 L 16.87,24 L 7.5,33.37 L 7.5,40.5 L 14.62,40.5 L 24,31.12 L 33.37,40.5 L 40.5,40.5 L 40.5,33.37 L 31.12,24 L 40.5,14.62 L 40.5,7.5 L 33.37,7.5 L 24,16.87 L 14.62,7.5 L 7.5,7.5 z" id="p2384" style="fill:#800000;fill-opacity:0.75;fill-rule:evenodd;stroke:none;"/>
<path d="M 23.71,14.37 C 21.52,14.37 19.82,14.77 18.62,15.59 C 17.43,16.41 16.63,17.59 16.21,19.12 L 21.28,20 C 21.42,19.09 21.69,18.45 22.09,18.09 C 22.48,17.72 22.99,17.53 23.62,17.53 C 24.23,17.53 24.71,17.69 25.06,18.03 C 25.41,18.36 25.59,18.81 25.59,19.37 C 25.59,19.95 25.34,20.44 24.87,20.87 C 24.40,21.30 23.82,21.53 23.12,21.53 C 22.95,21.53 22.73,21.51 22.43,21.46 L 22.15,25.09 C 22.89,24.89 23.48,24.81 23.90,24.81 C 24.69,24.81 25.32,25.03 25.78,25.5 C 26.24,25.96 26.46,26.61 26.46,27.46 C 26.46,28.30 26.23,28.99 25.75,29.5 C 25.27,30.00 24.68,30.25 23.96,30.25 C 23.28,30.25 22.69,30.04 22.25,29.65 C 21.81,29.25 21.49,28.52 21.28,27.5 L 15.93,28.18 C 16.28,29.33 16.78,30.27 17.43,31.03 C 18.09,31.78 18.92,32.35 19.93,32.75 C 20.95,33.14 22.33,33.34 24.09,33.34 C 25.89,33.34 27.33,33.08 28.43,32.56 C 29.54,32.02 30.38,31.25 30.96,30.28 C 31.55,29.29 31.87,28.28 31.87,27.21 C 31.87,26.36 31.67,25.64 31.31,25.03 C 30.96,24.41 30.48,23.90 29.84,23.53 C 29.44,23.29 28.87,23.08 28.12,22.90 C 29.04,22.42 29.73,21.86 30.18,21.21 C 30.64,20.57 30.87,19.85 30.87,19.06 C 30.87,17.71 30.31,16.61 29.18,15.71 C 28.06,14.82 26.23,14.37 23.71,14.37 z" id="text3349" style="font-size:26.28px;font-style:normal;font-variant:normal;font-weight:normal;font-stretch:normal;text-align:start;line-height:80.00%;writing-mode:lr-tb;text-anchor:start;fill:#ffffff;fill-opacity:1;stroke:none;font-family:Arial Black;-inkscape-font-specification:Arial Black"/>
<g id="g3325">
<path d="M 9.18,5.56 C 4.66,5.56 0.96,9.25 0.96,13.78 C 0.96,18.30 4.66,21.96 9.18,21.96 C 13.71,21.96 17.37,18.30 17.37,13.78 C 17.37,9.25 13.71,5.56 9.18,5.56 z" id="p3242" style="fill:#333333;fill-opacity:1;fill-rule:evenodd;stroke:none;marker:none;visibility:visible;display:inline;overflow:visible;enable-background:accumulate"/>
<path d="M 10.46,15.81 C 9.44,15.81 8.43,15.81 7.41,15.81 C 7.38,15.06 7.48,14.25 8.02,13.66 C 8.63,13.00 9.43,12.54 10.08,11.92 C 10.52,11.53 10.36,10.74 9.74,10.59 C 9.10,10.40 8.28,10.66 8.06,11.28 C 7.83,11.53 8.08,12.23 7.57,12.05 C 6.63,11.94 5.69,11.84 4.75,11.73 C 4.84,10.38 5.71,9.00 7.17,8.55 C 8.36,8.18 9.68,8.16 10.91,8.41 C 12.26,8.71 13.51,9.72 13.60,11.04 C 13.73,11.92 13.21,12.74 12.51,13.30 C 11.90,13.87 11.05,14.25 10.62,14.97 C 10.49,15.23 10.46,15.52 10.46,15.81 L 10.46,15.81 z M 7.31,16.55 C 8.39,16.55 9.48,16.55 10.57,16.55 C 10.57,17.42 10.57,18.30 10.57,19.18 C 9.48,19.18 8.39,19.18 7.31,19.18 C 7.31,18.30 7.31,17.42 7.31,16.55 z" id="text3234" style="font-size:12.35px;font-style:normal;font-variant:normal;font-weight:normal;font-stretch:normal;text-align:start;line-height:80.00%;writing-mode:lr-tb;text-anchor:start;fill:#ffffff;fill-opacity:1;stroke:none;font-family:Arial Black;-inkscape-font-specification:Arial Black"/>
</g>
</svg>
