<?xml version="1.0" encoding="UTF-8" standalone="no"?>
<!-- Created with Inkscape (http://www.inkscape.org/) -->
<svg
   xmlns:svg="http://www.w3.org/2000/svg"
   xmlns="http://www.w3.org/2000/svg"
   version="1.0"
   width="100%"
   height="100%"
   viewBox="0 0 48 48"
   id="svg2383">
  <defs
     id="defs2385" />
  <rect
     width="40"
     height="40"
     ry="2.5"
     x="4"
     y="4"
     id="r2393"
     style="fill:#e4e4e4;fill-opacity:1;fill-rule:evenodd;stroke:#acacac;stroke-width:7;stroke-linecap:round;stroke-linejoin:miter;marker:none;stroke-miterlimit:4;stroke-dasharray:none;stroke-dashoffset:0;stroke-opacity:1;visibility:visible;display:inline;overflow:visible;enable-background:accumulate" />
  <path
     d="M 24.204482,4.0536557 L 16.933676,16.644564 L 4.2836557,23.944926 L 16.933676,31.235436 L 24.204482,43.826344 L 31.43588,31.235436 L 44.056344,23.944926 L 31.43588,16.644564 L 24.204482,4.0536557 z M 17.209533,16.949977 L 21.741472,16.949977 L 21.741472,18.979497 L 21.741472,21.481916 L 19.248906,21.481916 L 17.209533,21.481916 L 17.209533,16.949977 z M 26.667492,16.949977 L 31.189579,16.949977 L 31.189579,21.481916 L 29.160059,21.481916 L 26.667492,21.481916 L 26.667492,18.979497 L 26.667492,16.949977 z M 17.209533,26.407936 L 19.248906,26.407936 L 21.741472,26.407936 L 21.741472,28.900503 L 21.741472,30.930023 L 17.209533,30.930023 L 17.209533,26.407936 z M 26.667492,26.407936 L 29.160059,26.407936 L 31.189579,26.407936 L 31.189579,30.930023 L 26.667492,30.930023 L 26.667492,28.900503 L 26.667492,26.407936 z"
     id="p3414"
     style="fill:#5b5b5b;fill-opacity:1;fill-rule:evenodd;stroke:#e4e4e4;stroke-width:1.37928569;stroke-linecap:butt;stroke-linejoin:round;stroke-miterlimit:4;stroke-dasharray:none;stroke-opacity:1" />
</svg>
