<?xml version="1.0" encoding="UTF-8" standalone="no"?>
<!-- Created with Inkscape (http://www.inkscape.org/) -->

<svg
 xmlns:dc="http://purl.org/dc/elements/1.1/"
 xmlns:cc="http://creativecommons.org/ns#"
 xmlns:rdf="http://www.w3.org/1999/02/22-rdf-syntax-ns#"
 xmlns:svg="http://www.w3.org/2000/svg"
 xmlns="http://www.w3.org/2000/svg"
 version="1.0"
 width="100%"
 height="100%"
 viewBox="0 0 48 48"
 id="svg2383">
<metadata
 id="metadata14">
<rdf:RDF>
<cc:Work
 rdf:about="">
<dc:format>image/svg+xml</dc:format>
<dc:type
 rdf:resource="http://purl.org/dc/dcmitype/StillImage" />
<dc:title></dc:title>
</cc:Work>
</rdf:RDF>
</metadata>
<defs
 id="defs2385" />
<rect
 width="40"
 height="40"
 ry="2.5"
 x="4"
 y="4"
 id="r2393"
 style="fill:#e4e4e4;fill-opacity:1;fill-rule:evenodd;stroke:#acacac;stroke-width:7;stroke-linecap:round;stroke-linejoin:miter;stroke-miterlimit:4;stroke-opacity:1;stroke-dasharray:none;stroke-dashoffset:0;marker:none;visibility:visible;display:inline;overflow:visible;enable-background:accumulate" />
<path
 d="m 10.142427,21.851114 -1.4439249,1.578826 1.4439249,1.588946 4.010256,0 1.432552,-1.588946 -1.432552,-1.578826 z"
 id="p2403"
 style="fill:#333333;fill-opacity:1;fill-rule:evenodd;stroke:none" />
<path
 d="m 21.728247,21.851114 1.443926,1.578826 -1.443926,1.588946 -4.010257,0 -1.432552,-1.588946 1.432552,-1.578826 z"
 id="path3005"
 style="fill:#333333;fill-opacity:1;fill-rule:evenodd;stroke:none" />
<path
 d="m 17.519224,17.64209 -1.578826,-1.443925 -1.588947,1.443925 0,4.010256 1.588947,1.432552 1.578826,-1.432552 z"
 id="path3035"
 style="fill:#333333;fill-opacity:1;fill-rule:evenodd;stroke:none" />
<path
 d="m 17.519224,29.22791 -1.578826,1.443925 -1.588947,-1.443925 0,-4.010257 1.588947,-1.432552 1.578826,1.432552 z"
 id="path3037"
 style="fill:#333333;fill-opacity:1;fill-rule:evenodd;stroke:none" />
<path
 d="m 26.336603,21.851114 -1.443927,1.578826 1.443927,1.588946 4.010255,0 1.432552,-1.588946 -1.432552,-1.578826 z"
 id="path3039"
 style="fill:#333333;fill-opacity:1;fill-rule:evenodd;stroke:none" />
<path
 d="m 37.922423,21.851114 1.443925,1.578826 -1.443925,1.588946 -4.010257,0 -1.432552,-1.588946 1.432552,-1.578826 z"
 id="path3041"
 style="fill:#333333;fill-opacity:1;fill-rule:evenodd;stroke:none" />
<path
 d="m 33.713399,17.64209 -1.578826,-1.443925 -1.588947,1.443925 0,4.010256 1.588947,1.432552 1.578826,-1.432552 z"
 id="path3043"
 style="fill:#333333;fill-opacity:1;fill-rule:evenodd;stroke:none" />
<path
 d="m 33.713399,29.22791 -1.578826,1.443925 -1.588947,-1.443925 0,-4.010257 1.588947,-1.432552 1.578826,1.432552 z"
 id="path3045"
 style="fill:#333333;fill-opacity:1;fill-rule:evenodd;stroke:none" />
</svg>
