<?xml version="1.0" encoding="UTF-8" standalone="no"?>
<svg xmlns:svg="http://www.w3.org/2000/svg" xmlns="http://www.w3.org/2000/svg" version="1.0" width="100%" height="100%" viewBox="0 0 48 48" id="svg2383">
<defs id="defs2385"/>
<rect width="40" height="40" ry="2.5" x="4" y="4" id="r2393" style="fill:#e4e4e4;fill-opacity:1;fill-rule:evenodd;stroke:#acacac;stroke-width:7;stroke-linecap:round;stroke-linejoin:miter;marker:none;stroke-miterlimit:4;stroke-dasharray:none;stroke-dashoffset:0;stroke-opacity:1;visibility:visible;display:inline;overflow:visible;enable-background:accumulate"/>
<path d="M 23.75,4.84 C 23.11,4.84 22.49,5.10 22,5.59 L 21.78,5.81 L 21.78,15.62 L 7.96,15.62 C 6.57,15.62 5.46,16.74 5.46,18.12 L 5.46,39.84 C 5.46,41.22 6.58,42.34 7.96,42.34 L 12.65,42.34 C 14.04,42.34 15.15,41.22 15.15,39.84 L 15.15,31.62 L 21.78,31.62 L 21.78,41.43 L 22,41.65 C 22.98,42.63 24.55,42.63 25.53,41.65 L 41.81,25.40 C 42.30,24.91 42.53,24.26 42.53,23.62 C 42.53,22.99 42.30,22.33 41.81,21.84 L 25.53,5.59 C 25.04,5.10 24.38,4.84 23.75,4.84 z" id="r3165" style="fill:#5b5b5b;fill-opacity:1;fill-rule:evenodd;stroke:none;marker:none;visibility:visible;display:inline;overflow:visible;enable-background:accumulate"/>
</svg>
