<?xml version="1.0" encoding="UTF-8" standalone="no"?>
<svg xmlns:svg="http://www.w3.org/2000/svg" xmlns="http://www.w3.org/2000/svg" version="1.0" width="100%" height="100%" viewBox="0 0 48 48" id="svg2383">
<defs id="defs2385"/>
<rect width="40" height="40" ry="2.5" x="4" y="4" id="r2393" style="fill:#e4e4e4;fill-opacity:1;fill-rule:evenodd;stroke:#ffffff;stroke-width:7;stroke-linecap:round;stroke-linejoin:miter;marker:none;stroke-miterlimit:4;stroke-dasharray:none;stroke-dashoffset:0;stroke-opacity:1;visibility:visible;display:inline;overflow:visible;enable-background:accumulate"/>
<path d="M 15.90,11.81 C 14.31,11.81 13.03,12.08 12.12,12.62 C 11.22,13.15 10.55,13.92 10.06,14.93 C 9.56,15.94 9.21,17.35 9.03,19.15 L 13.75,19.68 C 13.88,18.38 14.15,17.48 14.53,16.96 C 14.91,16.45 15.42,16.18 16.03,16.18 C 16.61,16.18 17.08,16.43 17.46,16.93 C 17.85,17.42 18.03,18.01 18.03,18.71 C 18.03,19.36 17.85,20.05 17.46,20.78 C 17.08,21.50 16.19,22.57 14.81,23.96 C 12.54,26.24 10.98,28.19 10.15,29.87 C 9.33,31.54 8.85,33.32 8.68,35.21 L 22.87,35.21 L 22.87,30 L 15.5,30 C 15.93,29.42 16.30,28.98 16.62,28.62 C 16.95,28.26 17.57,27.64 18.53,26.75 C 20.13,25.22 21.23,23.80 21.84,22.53 C 22.45,21.25 22.74,19.90 22.75,18.5 C 22.74,17.18 22.50,15.99 21.96,14.93 C 21.44,13.86 20.71,13.07 19.78,12.56 C 18.85,12.04 17.57,11.81 15.90,11.81 z M 24.31,18.53 L 28.56,26.5 L 24.06,35.21 L 29.18,35.21 L 31.87,29.84 L 34.15,35.21 L 39.65,35.21 L 35.15,26.5 L 39.37,18.53 L 34.15,18.53 L 31.87,23.18 L 29.90,18.53 L 24.31,18.53 z" id="text3155" style="font-size:27.66px;font-style:normal;font-variant:normal;font-weight:normal;font-stretch:normal;fill:#5b5b5b;fill-opacity:1;stroke:none;font-family:Arial Black;-inkscape-font-specification:Arial Black"/>
</svg>
