<?xml version="1.0" encoding="UTF-8" standalone="no"?>
<svg
   xmlns:dc="http://purl.org/dc/elements/1.1/"
   xmlns:cc="http://creativecommons.org/ns#"
   xmlns:rdf="http://www.w3.org/1999/02/22-rdf-syntax-ns#"
   xmlns:svg="http://www.w3.org/2000/svg"
   xmlns="http://www.w3.org/2000/svg"
   viewBox="0 0 48 48"
   version="1.1"
   id="svg3346"
   height="100%"
   width="100%">
  <defs
     id="defs3348" />
  <metadata
     id="metadata3351">
    <rdf:RDF>
      <cc:Work
         rdf:about="">
        <dc:format>image/svg+xml</dc:format>
        <dc:type
           rdf:resource="http://purl.org/dc/dcmitype/StillImage" />
        <dc:title></dc:title>
      </cc:Work>
    </rdf:RDF>
  </metadata>
  <g
     id="layer1">
    <rect
       ry="4.197022"
       rx="4.197022"
       y="5.2857141"
       x="5.2857141"
       height="37.42857"
       width="37.42857"
       id="rect3354"
       style="color:#000000;clip-rule:nonzero;display:inline;overflow:visible;visibility:visible;opacity:1;isolation:auto;mix-blend-mode:normal;color-interpolation:sRGB;color-interpolation-filters:linearRGB;solid-color:#000000;solid-opacity:1;fill:#5092c7;fill-opacity:1;fill-rule:evenodd;stroke:none;stroke-width:1.5;stroke-linecap:butt;stroke-linejoin:miter;stroke-miterlimit:4;stroke-dasharray:none;stroke-dashoffset:0;stroke-opacity:1;marker:none;marker-start:none;marker-mid:none;marker-end:none;color-rendering:auto;image-rendering:auto;shape-rendering:auto;text-rendering:auto;enable-background:accumulate" />
    <rect
       style="color:#000000;clip-rule:nonzero;display:inline;overflow:visible;visibility:visible;opacity:1;isolation:auto;mix-blend-mode:normal;color-interpolation:sRGB;color-interpolation-filters:linearRGB;solid-color:#000000;solid-opacity:1;fill:#92bbdc;fill-opacity:1;fill-rule:evenodd;stroke:none;stroke-width:1.5;stroke-linecap:butt;stroke-linejoin:miter;stroke-miterlimit:4;stroke-dasharray:none;stroke-dashoffset:0;stroke-opacity:1;marker:none;marker-start:none;marker-mid:none;marker-end:none;color-rendering:auto;image-rendering:auto;shape-rendering:auto;text-rendering:auto;enable-background:accumulate"
       id="rect4169"
       width="32.571426"
       height="32.571426"
       x="7.7142854"
       y="7.7142854"
       rx="3.6523702"
       ry="3.6523702" />
    <g
       id="text3356"
       style="font-style:normal;font-variant:normal;font-weight:normal;font-stretch:normal;font-size:34.32106781px;line-height:125%;font-family:'Snap ITC';-inkscape-font-specification:'Snap ITC';letter-spacing:0px;word-spacing:0px;fill:#273d63;fill-opacity:1;stroke:none;stroke-width:1px;stroke-linecap:butt;stroke-linejoin:miter;stroke-opacity:1">
      <path
         id="path4204"
         style=""
         d="m 21.283949,32.095385 q 2.564025,-1.50825 3.804142,-2.731608 1.256875,-1.223358 1.256875,-2.2121 0,-0.636817 -0.519508,-1.055775 -0.50275,-0.418958 -1.273634,-0.418958 -0.536266,0 -1.2066,0.150825 -0.670333,0.134066 -1.4077,0.4022 l -0.653575,5.865416 z m 1.2066,-11.328633 q 1.876934,-0.217859 3.033259,-0.854675 1.156325,-0.653575 1.156325,-1.441217 0,-1.139567 -1.223359,-1.793142 -1.223358,-0.670333 -3.401941,-0.720608 l 0.435716,4.809642 z m 7.373667,1.994241 q 3.770625,0.234617 5.73135,1.675834 1.960725,1.441217 1.960725,3.988483 0,3.552767 -2.8154,5.412942 -2.8154,1.843417 -9.401425,2.547267 L 10.541857,37.927286 17.513324,34.65941 14.161657,14.381826 9.3520155,12.186485 26.479033,13.074676 q 4.943708,0.251375 6.887675,1.256875 1.960725,1.0055 1.960725,3.167326 0,1.826658 -1.357425,3.133808 -1.340667,1.290392 -4.105792,2.128308 z" />
    </g>
    <path
       id="path4162"
       d="M 9.4824219 5.2851562 C 7.1572717 5.2851562 5.2851562 7.1572717 5.2851562 9.4824219 L 5.2851562 16.294922 A 27.275431 16.857143 0 0 0 24.142578 21 A 27.275431 16.857143 0 0 0 42.714844 16.470703 L 42.714844 9.4824219 C 42.714844 7.1572717 40.842728 5.2851562 38.517578 5.2851562 L 9.4824219 5.2851562 z "
       style="color:#000000;clip-rule:nonzero;display:inline;overflow:visible;visibility:visible;opacity:1;isolation:auto;mix-blend-mode:normal;color-interpolation:sRGB;color-interpolation-filters:linearRGB;solid-color:#000000;solid-opacity:1;fill:#c5e7ea;fill-opacity:0.2044199;fill-rule:evenodd;stroke:none;stroke-width:1.5;stroke-linecap:butt;stroke-linejoin:miter;stroke-miterlimit:4;stroke-dasharray:none;stroke-dashoffset:0;stroke-opacity:1;marker:none;marker-start:none;marker-mid:none;marker-end:none;color-rendering:auto;image-rendering:auto;shape-rendering:auto;text-rendering:auto;enable-background:accumulate" />
    <rect
       style="color:#000000;clip-rule:nonzero;display:inline;overflow:visible;visibility:visible;opacity:1;isolation:auto;mix-blend-mode:normal;color-interpolation:sRGB;color-interpolation-filters:linearRGB;solid-color:#000000;solid-opacity:1;fill:none;fill-opacity:1;fill-rule:evenodd;stroke:#273d63;stroke-width:1.5;stroke-linecap:butt;stroke-linejoin:miter;stroke-miterlimit:4;stroke-dasharray:none;stroke-dashoffset:0;stroke-opacity:1;marker:none;marker-start:none;marker-mid:none;marker-end:none;color-rendering:auto;image-rendering:auto;shape-rendering:auto;text-rendering:auto;enable-background:accumulate"
       id="rect4167"
       width="37.42857"
       height="37.42857"
       x="5.2857141"
       y="5.2857141"
       rx="4.197022"
       ry="4.197022" />
    <path
       id="path3360"
       d="m 40.702312,11.898803 -4.193523,2.88628 6.862128,10.643159 -6.480899,9.741196 7.338666,0.631375 2.954527,-11.454926 z"
       style="color:#000000;clip-rule:nonzero;display:inline;overflow:visible;visibility:visible;opacity:1;isolation:auto;mix-blend-mode:normal;color-interpolation:sRGB;color-interpolation-filters:linearRGB;solid-color:#000000;solid-opacity:1;fill:#5092c7;fill-opacity:1;fill-rule:evenodd;stroke:#273d63;stroke-width:1.5;stroke-linecap:butt;stroke-linejoin:miter;stroke-miterlimit:4;stroke-dasharray:none;stroke-dashoffset:0;stroke-opacity:1;marker:none;marker-start:none;marker-mid:none;marker-end:none;color-rendering:auto;image-rendering:auto;shape-rendering:auto;text-rendering:auto;enable-background:accumulate" />
  </g>
</svg>
