<?xml version="1.0" encoding="UTF-8" standalone="no"?>
<!-- Created with Inkscape (http://www.inkscape.org/) -->
<svg
   xmlns:svg="http://www.w3.org/2000/svg"
   xmlns="http://www.w3.org/2000/svg"
   version="1.0"
   width="100%"
   height="100%"
   viewBox="0 0 48 48"
   id="svg2383">
  <defs
     id="defs2385" />
  <path
     d="M 0,0 L 0,48 L 48,48 L 48,0 L 0,0 z M 5,1 L 43,1 C 45.216,1 47,2.784 47,5 L 47,43 C 47,45.216 45.216,47 43,47 L 5,47 C 2.784,47 1,45.216 1,43 L 1,5 C 1,2.784 2.784,1 5,1 z"
     id="rect2393"
     style="fill:#4d4d4d;fill-opacity:1;fill-rule:evenodd;stroke:none;stroke-width:4;stroke-linecap:butt;stroke-linejoin:round;marker:none;marker-start:none;marker-mid:none;marker-end:none;stroke-miterlimit:4;stroke-dasharray:none;stroke-dashoffset:0;stroke-opacity:1;visibility:visible;display:inline;overflow:visible;enable-background:accumulate" />
  <path
     d="M 25.4375,41.25 C 27.96418,41.25 30.031249,39.18293 30.03125,36.65625 L 29.90625,31.1875 L 32.327521,27.303246 C 33.89415,24.921025 35.187502,22.653138 35.1875,19.5625 C 35.1875,13.611526 30.357223,8.7812505 24.40625,8.78125 C 18.455276,8.78125 13.625,13.611527 13.625,19.5625"
     id="path2388"
     style="opacity:1;fill:none;fill-opacity:0.5;fill-rule:evenodd;stroke:#4d4d4d;stroke-width:4;stroke-linecap:round;stroke-linejoin:round;marker:none;marker-start:none;marker-mid:none;marker-end:none;stroke-miterlimit:4;stroke-dasharray:none;stroke-dashoffset:0;stroke-opacity:1;visibility:visible;display:inline;overflow:visible;enable-background:accumulate" />
  <path
     d="M 31.200464,19.519045 C 31.200464,15.768813 28.156481,12.724832 24.40625,12.724831 C 20.656018,12.724831 17.612036,15.768813 17.612036,19.519045"
     id="path3171"
     style="opacity:1;fill:none;fill-opacity:0.5;fill-rule:evenodd;stroke:#4d4d4d;stroke-width:1.79999995;stroke-linecap:round;stroke-linejoin:round;marker:none;marker-start:none;marker-mid:none;marker-end:none;stroke-miterlimit:4;stroke-dasharray:none;stroke-dashoffset:0;stroke-opacity:1;visibility:visible;display:inline;overflow:visible;enable-background:accumulate" />
  <path
     d="M 40.84375,20.28125 C 40.749083,13.963717 37.058127,8.5078691 31.75,5.84375"
     id="path3173"
     style="opacity:1;fill:none;fill-opacity:0.5;fill-rule:evenodd;stroke:#4d4d4d;stroke-width:1.79999995;stroke-linecap:butt;stroke-linejoin:round;marker:none;marker-start:none;marker-mid:none;marker-end:none;stroke-miterlimit:4;stroke-dasharray:none;stroke-dashoffset:0;stroke-opacity:1;visibility:visible;display:inline;overflow:visible;enable-background:accumulate" />
  <path
     d="M 43.9375,20.28125 C 43.80772,12.831768 39.489895,6.4322365 33.25,3.25"
     id="path3175"
     style="opacity:1;fill:none;fill-opacity:0.5;fill-rule:evenodd;stroke:#4d4d4d;stroke-width:1.79999995;stroke-linecap:butt;stroke-linejoin:round;marker:none;marker-start:none;marker-mid:none;marker-end:none;stroke-miterlimit:4;stroke-dasharray:none;stroke-dashoffset:0;stroke-opacity:1;visibility:visible;display:inline;overflow:visible;enable-background:accumulate" />
</svg>
