<?xml version="1.0" encoding="UTF-8" standalone="no"?>
<!-- Created with Inkscape (http://www.inkscape.org/) -->
<svg
   xmlns:svg="http://www.w3.org/2000/svg"
   xmlns="http://www.w3.org/2000/svg"
   version="1.0"
   width="100%"
   height="100%"
   viewBox="0 0 48 48"
   id="svg2383">
  <defs
     id="defs2385" />
  <path
     d="M 0,0 L 0,48 L 48,48 L 48,0 L 0,0 z M 5,1 L 43,1 C 45.216,1 47,2.784 47,5 L 47,43 C 47,45.216 45.216,47 43,47 L 5,47 C 2.784,47 1,45.216 1,43 L 1,5 C 1,2.784 2.784,1 5,1 z"
     id="rect2393"
     style="fill:#4d4d4d;fill-opacity:1;fill-rule:evenodd;stroke:none;stroke-width:4;stroke-linecap:butt;stroke-linejoin:round;marker:none;marker-start:none;marker-mid:none;marker-end:none;stroke-miterlimit:4;stroke-dasharray:none;stroke-dashoffset:0;stroke-opacity:1;visibility:visible;display:inline;overflow:visible;enable-background:accumulate" />
  <path
     d="M 24,7.8308791 L 24,40.583691"
     id="path2384"
     style="opacity:1;fill:none;fill-opacity:0.5;fill-rule:evenodd;stroke:#4d4d4d;stroke-width:4;stroke-linecap:butt;stroke-linejoin:round;marker:none;marker-start:none;marker-mid:none;marker-end:none;stroke-miterlimit:4;stroke-dasharray:none;stroke-dashoffset:0;stroke-opacity:1;visibility:visible;display:inline;overflow:visible;enable-background:accumulate" />
  <path
     d="M 32.943267,15.839751 L 24.005767,6.871001 L 15.037017,15.839751"
     id="path2386"
     style="opacity:1;fill:none;fill-opacity:0.5;fill-rule:evenodd;stroke:#4d4d4d;stroke-width:4;stroke-linecap:round;stroke-linejoin:round;marker:none;marker-start:none;marker-mid:none;marker-end:none;stroke-miterlimit:4;stroke-dasharray:none;stroke-dashoffset:0;stroke-opacity:1;visibility:visible;display:inline;overflow:visible;enable-background:accumulate" />
  <path
     d="M 32.943267,31.418002 L 24.005767,40.386752 L 15.037017,31.418002"
     id="path2391"
     style="opacity:1;fill:none;fill-opacity:0.5;fill-rule:evenodd;stroke:#4d4d4d;stroke-width:4;stroke-linecap:round;stroke-linejoin:round;marker:none;marker-start:none;marker-mid:none;marker-end:none;stroke-miterlimit:4;stroke-dasharray:none;stroke-dashoffset:0;stroke-opacity:1;visibility:visible;display:inline;overflow:visible;enable-background:accumulate" />
</svg>
