<?xml version="1.0" encoding="UTF-8" standalone="no"?>

<svg xmlns:svg="http://www.w3.org/2000/svg" xmlns="http://www.w3.org/2000/svg" xmlns:xlink="http://www.w3.org/1999/xlink" version="1.0" width="100%" height="100%" viewBox="0 0 640 480" id="compare">
<defs id="defs2385">
 <style type="text/css">
    svg#compare .disable                { display:none; }
    svg#compare .pieces>g               { display:none; }
    svg#compare .pieces .result         { fill:white; fill-opacity:0; cursor:move; }
    svg#compare .pieces .wrong .result  { fill:red; fill-opacity:0.5; }
    svg#compare .pieces .good .result   { fill:#0F0; fill-opacity:0.5; }
    svg#compare .pieces circle          { fill:#2d457e; stroke:white; stroke-width:3; cursor:move; }
    svg#compare .pieces .wrong circle   { fill:red; }
    svg#compare .pieces .good circle    { fill:#0F0; }
    svg#compare text                    { font-size:48px;text-anchor:middle;fill:white;font-family:Times New Roman; }
    svg#compare.small text              { font-size:40px; }
    svg#compare #up                     { display:none; }
    svg#compare #down                   { display:none; }
    svg#compare.up #up                  { display:inline; }
    svg#compare.down #down              { display:inline; }
    svg#compare.l4 .e5                  { display:none; }
    svg#compare.l3 .e5                  { display:none !important; }
    svg#compare.l3 .e4                  { display:none; }
    svg#compare .shadow                 { fill-opacity:0.5; display:none; }
    svg#compare .drag .shadow           { display:inline; }
 </style>
</defs>

<g class="disable">
    <g id="tt">
        <rect width="96" height="46" ry="6.24" x="2" y="2" id="r3253" style="opacity:1;fill:#ffffff;fill-opacity:0.31;stroke:#2d457e;stroke-width:4"/>
    </g>

    <g id="tp">
        <rect width="96" height="46" ry="6.13" x="-48" y="-23" id="r3435" style="fill:none;stroke:white;stroke-width:6"/>
        <rect width="96" height="46" ry="6.13" x="-48" y="-23" id="r3435" style="fill:#1f2931"/>
        <path d="M -41.87,-23 C -45.27,-23 -48,-20.27 -48,-16.87 L -48,-7.15 C -36.78,-2.39 -19.45,0.65 0,0.65 C 19.45,0.65 36.78,-2.39 48,-7.15 L 48,-16.87 C 48,-20.27 45.27,-23 41.87,-23 L -41.87,-23 z" id="p3437" style="opacity:1;fill:#919fd7;fill-opacity:0.12;fill-rule:nonzero;stroke:none;marker:none;visibility:visible;display:inline;overflow:visible;enable-background:accumulate"/>
    </g>
</g>

<g id="background"> 

<g id="arrow">
	<line x1="40" y1="278" x2="40" y2="190" style="fill:none;stroke:white;stroke-width:15"/>
	<path d="m 40,175 L 60,200 L 20,200 L 40,175 z" style="fill:white"/>
</g>
<use x="0" y="0" transform="translate(560,0)" xlink:href="#arrow"/>
<use x="0" y="0" transform="translate(186,0)" xlink:href="#arrow"/>
<use x="0" y="0" transform="translate(374,0)" xlink:href="#arrow"/>

<rect x="-10" y="278" height="80" width="660" style="fill:gray;fill-opacity:0.95;stroke:white;stroke-width:5"/>
<rect x="-10" y="80" height="90" width="660" style="fill:gray;fill-opacity:0.95;stroke:white;stroke-width:5"/>

</g> 

<g id="bg">


    <g id="target">
        <g id="t01" class="e4" transform="translate(10,100)">
            <use x="0" y="0" xlink:href="#tt"/>
        </g>
        <g id="t02" transform="translate(140,100)">
            <use x="0" y="0" xlink:href="#tt"/>
        </g>
        <g id="t03" transform="translate(270,100)">
            <use x="0" y="0" xlink:href="#tt"/>
        </g>
        <g id="t04" transform="translate(400,100)">
            <use x="0" y="0" xlink:href="#tt"/>
        </g>
        <g id="t05" class="e5" transform="translate(530,100)">
            <use x="0" y="0" xlink:href="#tt"/>
        </g>
    </g>

    <g id="up"> 
        <path style="fill:#2d457e;" d="m 113.730,125.047 c 0,1.600 0.438,3.200 1.316,4.426 l 12.671,17.704 c 1.755,2.452 4.580,2.452 6.335,0 l 1.792,-2.503 -10.879,-15.201 c -1.755,-2.452 -1.755,-6.400 0,-8.852 l 10.879,-15.201 -1.792,-2.503 c -1.755,-2.452 -4.580,-2.452 -6.335,0 l -12.671,17.704 c -0.877,1.226 -1.316,2.826 -1.316,4.426 z" class="e4" /> 
        <path transform="translate(130,0)" d="m 113.730,125.047 c 0,1.600 0.438,3.200 1.316,4.426 l 12.671,17.704 c 1.755,2.452 4.580,2.452 6.335,0 l 1.792,-2.503 -10.879,-15.201 c -1.755,-2.452 -1.755,-6.400 0,-8.852 l 10.879,-15.201 -1.792,-2.503 c -1.755,-2.452 -4.580,-2.452 -6.335,0 l -12.671,17.704 c -0.877,1.226 -1.316,2.826 -1.316,4.426 z" style="fill:#2d457e;" /> 
        <path transform="translate(260,0)"  style="fill:#2d457e;" d="m 113.730,125.047 c 0,1.600 0.438,3.200 1.316,4.426 l 12.671,17.704 c 1.755,2.452 4.580,2.452 6.335,0 l 1.792,-2.503 -10.879,-15.201 c -1.755,-2.452 -1.755,-6.400 0,-8.852 l 10.879,-15.201 -1.792,-2.503 c -1.755,-2.452 -4.580,-2.452 -6.335,0 l -12.671,17.704 c -0.877,1.226 -1.316,2.826 -1.316,4.426 z" /> 
        <path transform="translate(390,0)"  d="m 113.730,125.047 c 0,1.600 0.438,3.200 1.316,4.426 l 12.671,17.704 c 1.755,2.452 4.580,2.452 6.335,0 l 1.792,-2.503 -10.879,-15.201 c -1.755,-2.452 -1.755,-6.400 0,-8.852 l 10.879,-15.201 -1.792,-2.503 c -1.755,-2.452 -4.580,-2.452 -6.335,0 l -12.671,17.704 c -0.877,1.226 -1.316,2.826 -1.316,4.426 z" style="fill:#2d457e;" class="e5" /> 
    </g> 
    
    <g id="down"> 
        <path style="fill:#2d457e;" d="m 135.845,125.047 c 0,1.600 -0.438,3.200 -1.316,4.426 l -12.671,17.704 c -1.755,2.452 -4.580,2.452 -6.335,0 l -1.792,-2.503 10.879,-15.201 c 1.755,-2.452 1.755,-6.400 0,-8.852 l -10.879,-15.201 1.792,-2.503 c 1.755,-2.452 4.580,-2.452 6.335,0 l 12.671,17.704 c 0.877,1.226 1.316,2.826 1.316,4.426 z" class="e4" /> 
        <path transform="translate(130,0)" d="m 135.845,125.047 c 0,1.600 -0.438,3.200 -1.316,4.426 l -12.671,17.704 c -1.755,2.452 -4.580,2.452 -6.335,0 l -1.792,-2.503 10.879,-15.201 c 1.755,-2.452 1.755,-6.400 0,-8.852 l -10.879,-15.201 1.792,-2.503 c 1.755,-2.452 4.580,-2.452 6.335,0 l 12.671,17.704 c 0.877,1.226 1.316,2.826 1.316,4.426 z" style="fill:#2d457e;" /> 
        <path transform="translate(260,0)"  style="fill:#2d457e;" d="m 135.845,125.047 c 0,1.600 -0.438,3.200 -1.316,4.426 l -12.671,17.704 c -1.755,2.452 -4.580,2.452 -6.335,0 l -1.792,-2.503 10.879,-15.201 c 1.755,-2.452 1.755,-6.400 0,-8.852 l -10.879,-15.201 1.792,-2.503 c 1.755,-2.452 4.580,-2.452 6.335,0 l 12.671,17.704 c 0.877,1.226 1.316,2.826 1.316,4.426 z" /> 
        <path transform="translate(390,0)"  d="m 135.845,125.047 c 0,1.600 -0.438,3.200 -1.316,4.426 l -12.671,17.704 c -1.755,2.452 -4.580,2.452 -6.335,0 l -1.792,-2.503 10.879,-15.201 c 1.755,-2.452 1.755,-6.400 0,-8.852 l -10.879,-15.201 1.792,-2.503 c 1.755,-2.452 4.580,-2.452 6.335,0 l 12.671,17.704 c 0.877,1.226 1.316,2.826 1.316,4.426 z" style="fill:#2d457e;" class="e5" /> 
    </g> 

</g>
<g id="pieces" class="pieces">

    <g id="a" transform="translate(60,125) "><g class="scale"><g class="rot">
        <rect width="100" height="50" ry="7.00" x="-45" y="-15" class="shadow"/>
        <use x="0" y="0" xlink:href="#tp"/>
        <text y="16"></text>
        <rect width="100" height="50" ry="7.00" x="-50" y="-25" class="result"/>
    </g></g></g>
    <g id="b" transform="translate(190,125) "><g class="scale"><g class="rot">
        <rect width="100" height="50" ry="7.00" x="-45" y="-15" class="shadow"/>
        <use x="0" y="0" xlink:href="#tp"/>
        <text y="16"></text>
        <rect width="100" height="50" ry="7.00" x="-50" y="-25" class="result"/>
    </g></g></g>
    <g id="c" transform="translate(320,125) "><g class="scale"><g class="rot">
        <rect width="100" height="50" ry="7.00" x="-45" y="-15" class="shadow"/>
        <use x="0" y="0" xlink:href="#tp"/>
        <text y="16"></text>
        <rect width="100" height="50" ry="7.00" x="-50" y="-25" class="result"/>
    </g></g></g>
    <g id="d" transform="translate(450,125) "><g class="scale"><g class="rot">
        <rect width="100" height="50" ry="7.00" x="-45" y="-15" class="shadow"/>
        <use x="0" y="0" xlink:href="#tp"/>
        <text y="16"></text>
        <rect width="100" height="50" ry="7.00" x="-50" y="-25" class="result"/>
    </g></g></g>
    <g id="e" transform="translate(580,125) "><g class="scale"><g class="rot">
        <rect width="100" height="50" ry="7.00" x="-45" y="-15" class="shadow"/>
        <use x="0" y="0" xlink:href="#tp"/>
        <text y="16"></text>
        <rect width="100" height="50" ry="7.00" x="-50" y="-25" class="result"/>
    </g></g></g>
</g>

<g id="rdown" class="pieces">

    <g id="ad" transform="translate(60,125) "><g class="scale"><g class="rot">
        <rect width="100" height="50" ry="7.00" x="-45" y="-15" class="shadow"/>
        <use x="0" y="0" xlink:href="#tp"/>
        <rect width="100" height="50" ry="7.00" x="-50" y="-25" class="result"/>
        <circle cx="0" cy="0" r="40"/>
    </g></g></g>
    <g id="bd" transform="translate(190,125) "><g class="scale"><g class="rot">
        <rect width="100" height="50" ry="7.00" x="-45" y="-15" class="shadow"/>
        <use x="0" y="0" xlink:href="#tp"/>
        <rect width="100" height="50" ry="7.00" x="-50" y="-25" class="result"/>
        <circle cx="0" cy="0" r="30"/>
    </g></g></g>
    <g id="cd" transform="translate(320,125) "><g class="scale"><g class="rot">
        <rect width="100" height="50" ry="7.00" x="-45" y="-15" class="shadow"/>
        <use x="0" y="0" xlink:href="#tp"/>
        <rect width="100" height="50" ry="7.00" x="-50" y="-25" class="result"/>
        <circle cx="0" cy="0" r="20"/>
    </g></g></g>
    <g id="dd" transform="translate(450,125) "><g class="scale"><g class="rot">
        <rect width="100" height="50" ry="7.00" x="-45" y="-15" class="shadow"/>
        <use x="0" y="0" xlink:href="#tp"/>
        <rect width="100" height="50" ry="7.00" x="-50" y="-25" class="result"/>
        <circle cx="0" cy="0" r="10"/>
    </g></g></g>
    <g id="ed" transform="translate(580,125) "><g class="scale"><g class="rot">
        <rect width="100" height="50" ry="7.00" x="-45" y="-15" class="shadow"/>
        <use x="0" y="0" xlink:href="#tp"/>
        <rect width="100" height="50" ry="7.00" x="-50" y="-25" class="result"/>
        <circle cx="0" cy="0" r="5"/>
    </g></g></g>

</g>

<g id="rup" class="pieces">

    <g id="au" transform="translate(60,125) "><g class="scale"><g class="rot">
        <rect width="100" height="50" ry="7.00" x="-45" y="-15" class="shadow"/>
        <use x="0" y="0" xlink:href="#tp"/>
        <rect width="100" height="50" ry="7.00" x="-50" y="-25" class="result"/>
        <circle cx="0" cy="0" r="5"/>
    </g></g></g>
    <g id="bu" transform="translate(190,125) "><g class="scale"><g class="rot">
        <rect width="100" height="50" ry="7.00" x="-45" y="-15" class="shadow"/>
        <use x="0" y="0" xlink:href="#tp"/>
        <rect width="100" height="50" ry="7.00" x="-50" y="-25" class="result"/>
        <circle cx="0" cy="0" r="10"/>
    </g></g></g>
    <g id="cu" transform="translate(320,125) "><g class="scale"><g class="rot">
        <rect width="100" height="50" ry="7.00" x="-45" y="-15" class="shadow"/>
        <use x="0" y="0" xlink:href="#tp"/>
        <rect width="100" height="50" ry="7.00" x="-50" y="-25" class="result"/>
        <circle cx="0" cy="0" r="20"/>
    </g></g></g>
    <g id="du" transform="translate(450,125) "><g class="scale"><g class="rot">
        <rect width="100" height="50" ry="7.00" x="-45" y="-15" class="shadow"/>
        <use x="0" y="0" xlink:href="#tp"/>
        <rect width="100" height="50" ry="7.00" x="-50" y="-25" class="result"/>
        <circle cx="0" cy="0" r="30"/>
    </g></g></g>
    <g id="eu" transform="translate(580,125) "><g class="scale"><g class="rot">
        <rect width="100" height="50" ry="7.00" x="-45" y="-15" class="shadow"/>
        <use x="0" y="0" xlink:href="#tp"/>
        <rect width="100" height="50" ry="7.00" x="-50" y="-25" class="result"/>
        <circle cx="0" cy="0" r="40"/>
    </g></g></g>

</g>


</svg>
