<?xml version="1.0" encoding="UTF-8" standalone="no"?>

<svg xmlns:svg="http://www.w3.org/2000/svg" xmlns="http://www.w3.org/2000/svg" xmlns:xlink="http://www.w3.org/1999/xlink" version="1.0" width="100%" height="100%" viewBox="0 0 640 480" id="groups">
<defs id="defs2385">
 <style type="text/css">
    svg#groups .disable            { display:none; }
    svg#groups text                { font-size:16px;text-anchor:middle;fill:#241c1c;font-weight:bold; fill:white; cursor:move; dominant-baseline: middle; }
    svg#groups #board text         { font-size:20px; dominant-baseline: middle;  }
    svg#groups.big #board text     { font-size:30px;  }
    svg#groups.big text            { font-size:30px; }
    svg#groups #pieces .result     { fill:white; fill-opacity:0; cursor:move; }
    svg#groups #pieces .wrong .result { fill:red; fill-opacity:0.5;}
    svg#groups #pieces .good .result  { fill:#0F0; fill-opacity:0.5;}
	svg#groups #pieces .shadow		{ fill:black; fill-opacity:0.5; display:none; }
	svg#groups #pieces .drag .shadow	{ display:inline; }
 </style>
</defs>

<g class="disable"><g id="template">
    <rect width="152" height="48" ry="2" x="-76" y="-24" id="r5531" style="fill:#241c1c;fill-opacity:1;fill-rule:nonzero;stroke:none;marker:none;visibility:visible;display:inline;overflow:visible;enable-background:accumulate"/>
    <path d="M 107,0 A 21,21 0 1 1 65,2.57e-15 A 21,21 0 1 1 107,-5.14e-15 z" id="p6313" style="fill:#241c1c;fill-opacity:1;fill-rule:nonzero;stroke:none;marker:none;visibility:visible;display:inline;overflow:visible;enable-background:accumulate"/>
    <path d="M 103,0 A 17,17 0 1 1 69,2.08e-15 A 17,17 0 1 1 103,-4.16e-15 z" id="p6317" style="fill:#483737;fill-opacity:1;fill-rule:nonzero;stroke:none;marker:none;visibility:visible;display:inline;overflow:visible;enable-background:accumulate"/>
    <path d="M 96,0 A 10,10 0 1 1 76,1.22e-15 A 10,10 0 1 1 96,-2.44e-15 z" id="p6323" style="fill:#241c1c;fill-opacity:1;fill-rule:nonzero;stroke:none;marker:none;visibility:visible;display:inline;overflow:visible;enable-background:accumulate"/>
    <path d="M 93,0 A 7,7 0 1 1 79,8.57e-16 A 7,7 0 1 1 93,-1.71e-15 z" id="p6321" style="fill:#916f6f;fill-opacity:1;fill-rule:nonzero;stroke:none;marker:none;visibility:visible;display:inline;overflow:visible;enable-background:accumulate"/>
    <path d="M 93,0 A 7,7 0 1 1 79,8.57e-16 A 7,7 0 1 1 93,-1.71e-15 z" transform="matrix(0.55,0,0,0.55,38.35,-2.10)" id="p6327" style="fill:#ac9393;fill-opacity:1;fill-rule:nonzero;stroke:none;marker:none;visibility:visible;display:inline;overflow:visible;enable-background:accumulate"/>
    <path d="M 80.27,4.78 L 91.78,-5.03" id="p6325" style="fill:none;fill-rule:evenodd;stroke:#241c1c;stroke-width:3.70;stroke-linecap:butt;stroke-linejoin:miter;stroke-miterlimit:4;stroke-dasharray:none;stroke-opacity:1"/>
    <path d="M 107,0 A 21,21 0 1 1 65,2.57e-15 A 21,21 0 1 1 107,-5.14e-15 z" transform="translate(-172,0)" id="p6341" style="fill:#241c1c;fill-opacity:1;fill-rule:nonzero;stroke:none;marker:none;visibility:visible;display:inline;overflow:visible;enable-background:accumulate"/>
    <path d="M 103,0 A 17,17 0 1 1 69,2.08e-15 A 17,17 0 1 1 103,-4.16e-15 z" transform="translate(-172,0)" id="p6343" style="fill:#483737;fill-opacity:1;fill-rule:nonzero;stroke:none;marker:none;visibility:visible;display:inline;overflow:visible;enable-background:accumulate"/>
    <path d="M 96,0 A 10,10 0 1 1 76,1.22e-15 A 10,10 0 1 1 96,-2.44e-15 z" transform="translate(-172,0)" id="p6345" style="fill:#241c1c;fill-opacity:1;fill-rule:nonzero;stroke:none;marker:none;visibility:visible;display:inline;overflow:visible;enable-background:accumulate"/>
    <path d="M 93,0 A 7,7 0 1 1 79,8.57e-16 A 7,7 0 1 1 93,-1.71e-15 z" transform="translate(-172,0)" id="p6347" style="fill:#916f6f;fill-opacity:1;fill-rule:nonzero;stroke:none;marker:none;visibility:visible;display:inline;overflow:visible;enable-background:accumulate"/>
    <path d="M 93,0 A 7,7 0 1 1 79,8.57e-16 A 7,7 0 1 1 93,-1.71e-15 z" transform="matrix(0.55,0,0,0.55,-133.64,-2.10)" id="p6349" style="fill:#ac9393;fill-opacity:1;fill-rule:nonzero;stroke:none;marker:none;visibility:visible;display:inline;overflow:visible;enable-background:accumulate"/>
    <path d="M -81.88,6.24 L -90.04,-6.49" id="p6351" style="fill:none;fill-rule:evenodd;stroke:#241c1c;stroke-width:3.70;stroke-linecap:butt;stroke-linejoin:miter;stroke-miterlimit:4;stroke-dasharray:none;stroke-opacity:1"/>
    <rect width="144" height="40" ry="2" x="-72" y="-20" id="r6319" style="fill:#483737;fill-opacity:1;fill-rule:nonzero;stroke:none;marker:none;visibility:visible;display:inline;overflow:visible;enable-background:accumulate"/>
    <rect width="140" height="36" ry="2" x="-70" y="-18" id="r6329" style="fill:#916f6f;fill-opacity:1;fill-rule:nonzero;stroke:none;marker:none;visibility:visible;display:inline;overflow:visible;enable-background:accumulate"/>
    <path d="M -68,-18 C -69.10,-18 -70,-17.10 -70,-16 L -70,-4.84 C -50.59,-1.35 -26.33,0.71 0,0.71 C 26.33,0.71 50.59,-1.35 70,-4.84 L 70,-16 C 70,-17.10 69.10,-18 68,-18 L -68,-18 z" id="p7554" style="fill:#d0b59a;fill-opacity:0.18;fill-rule:nonzero;stroke:none;marker:none;visibility:visible;display:inline;overflow:visible;enable-background:accumulate"/>
</g></g>


<g id="source">
    <rect width="496" height="112" ry="10" x="128" y="8" id="r6852" style="fill:#604444;stroke:none;marker:none;visibility:visible;display:inline;overflow:visible;enable-background:accumulate"/>
	<g style="opacity:0.1">
		<line x1="128" y1="18" x2="624" y2="18" style="fill:none;stroke:black;stroke-width:2"/> 
		<line x1="128" y1="28" x2="624" y2="28" style="fill:none;stroke:black;stroke-width:2"/> 
		<line x1="128" y1="38" x2="624" y2="38" style="fill:none;stroke:black;stroke-width:2"/> 
		<line x1="128" y1="48" x2="624" y2="48" style="fill:none;stroke:black;stroke-width:2"/> 
		<line x1="128" y1="58" x2="624" y2="58" style="fill:none;stroke:black;stroke-width:2"/> 
		<line x1="128" y1="68" x2="624" y2="68" style="fill:none;stroke:black;stroke-width:2"/> 
		<line x1="128" y1="78" x2="624" y2="78" style="fill:none;stroke:black;stroke-width:2"/> 
		<line x1="128" y1="88" x2="624" y2="88" style="fill:none;stroke:black;stroke-width:2"/> 
		<line x1="128" y1="98" x2="624" y2="98" style="fill:none;stroke:black;stroke-width:2"/> 
		<line x1="128" y1="108" x2="624" y2="108" style="fill:none;stroke:black;stroke-width:2"/> 
		<line x1="128" y1="118" x2="624" y2="118" style="fill:none;stroke:black;stroke-width:2"/>
	</g>
    <rect width="496" height="112" ry="10" x="128" y="8" id="r6852" style="fill:none;stroke:white;stroke-width:5"/>
</g>


<g id="board">
    <g id="bg">
        <rect width="496" height="241.74" ry="10" x="128" y="132" id="r6854" style="opacity:1;fill:#916f6f;fill-opacity:1;fill-rule:nonzero;stroke:none;marker:none;visibility:visible;display:inline;overflow:visible;enable-background:accumulate"/>
        <path d="M 306.09,128 C 317.33,146.62 332.99,172.18 333,172.65 C 333.00,173.39 295.90,236.65 296.34,237.25 C 296.78,237.84 368.07,220.49 368.78,220.71 C 369.49,220.94 418.17,275.79 418.87,275.56 C 419.57,275.32 425.10,202.16 425.53,201.56 C 425.96,200.95 493.16,171.58 493.15,170.84 C 493.14,170.10 425.31,142.25 424.87,141.65 C 424.75,141.49 424.14,135.80 423.31,128 L 306.09,128 z M 571.09,128 C 564.86,156.82 555.70,201.09 555.25,201.59 C 554.57,202.33 459.61,230.19 459.5,231.18 C 459.38,232.18 545.47,281.00 545.96,281.87 C 546.37,282.60 544.50,350.42 544.37,373.75 L 554.40,373.75 C 574.40,356.09 618.70,315.68 619.46,315.53 C 619.59,315.50 621.27,316.05 624,316.96 L 624,170.84 C 615.66,158.88 604.02,142.05 594.21,128 L 571.09,128 z M 220.56,131.12 C 219.29,130.99 158.85,241.66 157.75,242.31 C 157.41,242.50 144.37,242.45 128,242.37 L 128,348.75 C 128,362.6 139.15,373.74 153,373.75 L 284.46,373.75 C 283.09,362.26 282.06,353.41 282.18,353.12 C 282.70,351.95 385.64,279.15 385.37,277.90 C 385.10,276.65 261.17,253.34 260.21,252.5 C 259.26,251.65 221.83,131.25 220.56,131.12 z M 362.12,313.5 C 361.65,313.83 372.62,365.25 374.18,373.75 L 456.84,373.75 C 459.48,362.21 471.00,315.58 470.56,315.25 C 470.06,314.87 416.47,345.94 415.84,345.93 C 415.21,345.92 362.63,313.13 362.12,313.5 z" id="p7987" style="opacity:1;fill:#b39382;fill-opacity:0.29;fill-rule:nonzero;stroke:none;marker:none;visibility:visible;display:inline;overflow:visible;enable-background:accumulate"/>
        <path d="M 372,132 L 372,373.74" id="r7584" style="stroke:#e0d7d7;stroke-width:2.12;stroke-linecap:butt;stroke-opacity:0.40;"/>
        <rect width="496" height="241.74" ry="10" x="128" y="132" id="r6854" style="fill:none;stroke:white;stroke-width:5;"/>
    </g>

    <g id="screens">
        <rect width="224.37" height="65.64" ry="13.12" x="380.50" y="146.85" id="r7973" style="opacity:1;fill:#0e0e17;fill-opacity:1;fill-rule:nonzero;stroke:none;marker:none;visibility:visible;display:inline;overflow:visible;enable-background:accumulate"/>
        <rect width="195.03" height="57.05" ry="11.41" x="395.17" y="151.14" id="r7975" style="opacity:1;fill:#1d1d42;fill-opacity:1;fill-rule:nonzero;stroke:#1c1c24;stroke-width:0;stroke-linecap:butt;stroke-linejoin:round;marker:none;stroke-miterlimit:4;stroke-dasharray:none;stroke-dashoffset:0;stroke-opacity:1;visibility:visible;display:inline;overflow:visible;enable-background:accumulate"/>
        <rect width="224.37" height="65.64" ry="13.12" x="139.90" y="146.85" id="r7971" style="opacity:1;fill:#0e0e17;fill-opacity:1;fill-rule:nonzero;stroke:none;marker:none;visibility:visible;display:inline;overflow:visible;enable-background:accumulate"/>
        <rect width="195.03" height="57.05" ry="11.41" x="154.57" y="151.14" id="r7643" style="opacity:1;fill:#1d1d42;fill-opacity:1;fill-rule:nonzero;stroke:#1c1c24;stroke-width:0;stroke-linecap:butt;stroke-linejoin:round;marker:none;stroke-miterlimit:4;stroke-dasharray:none;stroke-dashoffset:0;stroke-opacity:1;visibility:visible;display:inline;overflow:visible;enable-background:accumulate"/>
        <path d="M 165.96,151.15 C 159.64,151.15 154.56,156.24 154.56,162.56 L 154.56,173.65 C 178.07,179.61 210.73,183.28 246.84,183.28 C 288.68,183.28 325.88,178.32 349.59,170.62 L 349.59,162.56 C 349.59,156.24 344.50,151.15 338.18,151.15 L 165.96,151.15 z" id="p7977" style="opacity:1;fill:#8282b3;fill-opacity:0.29;fill-rule:nonzero;stroke:none;marker:none;visibility:visible;display:inline;overflow:visible;enable-background:accumulate"/>
        <path d="M 406.59,151.15 C 400.27,151.15 395.18,156.24 395.18,162.56 L 395.18,172.31 C 418.95,179.04 453.71,183.28 492.43,183.28 C 531.46,183.28 566.44,178.98 590.21,172.15 L 590.21,162.56 C 590.21,156.24 585.10,151.15 578.78,151.15 L 406.59,151.15 z" id="p7979" style="opacity:1;fill:#8282b3;fill-opacity:0.29;fill-rule:nonzero;stroke:none;marker:none;visibility:visible;display:inline;overflow:visible;enable-background:accumulate"/>
    </g>
    <text x="247.94"  y="181" id="text1"></text>
    <text x="498.81"  y="181" id="text2"></text>

    <g transform="translate(255,255)"><g transform="scale(1,1)"><path d="M -74 -24 C -75.108 -24 -76 -23.108 -76 -22 L -76 -18.46 C -78.97 -20.08 -82.37 -21 -86 -21 C -97.6 -21 -107 -11.6 -107 0 C -107 11.6 -97.6 21 -86 21 C -82.37 21 -78.97 20.08 -76 18.46 L -76 22 C -76 23.108 -75.108 24 -74 24 L 74 24 C 75.108 24 76 23.108 76 22 L 76 18.46 C 78.97 20.08 82.371 21 86 21 C 97.6 21 107 11.6 107 0 C 107 -11.6 97.6 -21 86 -21 C 82.371 -21 78.97 -20.08 76 -18.46 L 76 -22 C 76 -23.108 75.108 -24 74 -24 L -74 -24 z " id="p8168" style="opacity:1;fill:#241c1c;fill-opacity:0.75;stroke:#3c2d27;stroke-width:6;"/></g></g>
    <g transform="translate(255,320)"><g transform="scale(1,1)"><path d="M -74 -24 C -75.108 -24 -76 -23.108 -76 -22 L -76 -18.46 C -78.97 -20.08 -82.37 -21 -86 -21 C -97.6 -21 -107 -11.6 -107 0 C -107 11.6 -97.6 21 -86 21 C -82.37 21 -78.97 20.08 -76 18.46 L -76 22 C -76 23.108 -75.108 24 -74 24 L 74 24 C 75.108 24 76 23.108 76 22 L 76 18.46 C 78.97 20.08 82.371 21 86 21 C 97.6 21 107 11.6 107 0 C 107 -11.6 97.6 -21 86 -21 C 82.371 -21 78.97 -20.08 76 -18.46 L 76 -22 C 76 -23.108 75.108 -24 74 -24 L -74 -24 z " id="p8168" style="opacity:1;fill:#241c1c;fill-opacity:0.75;stroke:#3c2d27;stroke-width:6;"/></g></g>
    <g transform="translate(490,255)"><g transform="scale(1,1)"><path d="M -74 -24 C -75.108 -24 -76 -23.108 -76 -22 L -76 -18.46 C -78.97 -20.08 -82.37 -21 -86 -21 C -97.6 -21 -107 -11.6 -107 0 C -107 11.6 -97.6 21 -86 21 C -82.37 21 -78.97 20.08 -76 18.46 L -76 22 C -76 23.108 -75.108 24 -74 24 L 74 24 C 75.108 24 76 23.108 76 22 L 76 18.46 C 78.97 20.08 82.371 21 86 21 C 97.6 21 107 11.6 107 0 C 107 -11.6 97.6 -21 86 -21 C 82.371 -21 78.97 -20.08 76 -18.46 L 76 -22 C 76 -23.108 75.108 -24 74 -24 L -74 -24 z " id="p8168" style="opacity:1;fill:#241c1c;fill-opacity:0.75;stroke:#3c2d27;stroke-width:6;"/></g></g>
    <g transform="translate(490,320)"><g transform="scale(1,1)"><path d="M -74 -24 C -75.108 -24 -76 -23.108 -76 -22 L -76 -18.46 C -78.97 -20.08 -82.37 -21 -86 -21 C -97.6 -21 -107 -11.6 -107 0 C -107 11.6 -97.6 21 -86 21 C -82.37 21 -78.97 20.08 -76 18.46 L -76 22 C -76 23.108 -75.108 24 -74 24 L 74 24 C 75.108 24 76 23.108 76 22 L 76 18.46 C 78.97 20.08 82.371 21 86 21 C 97.6 21 107 11.6 107 0 C 107 -11.6 97.6 -21 86 -21 C 82.371 -21 78.97 -20.08 76 -18.46 L 76 -22 C 76 -23.108 75.108 -24 74 -24 L -74 -24 z " id="p8168" style="opacity:1;fill:#241c1c;fill-opacity:0.75;stroke:#3c2d27;stroke-width:6;"/></g></g>
</g>

<g id="pieces">
    <g transform="translate(255,255)" id="a"><g class="scale"><g class="rot">
		<g transform="translate(5,10)"><path d="M -74 -24 C -75.108 -24 -76 -23.108 -76 -22 L -76 -18.46 C -78.97 -20.08 -82.37 -21 -86 -21 C -97.6 -21 -107 -11.6 -107 0 C -107 11.6 -97.6 21 -86 21 C -82.37 21 -78.97 20.08 -76 18.46 L -76 22 C -76 23.108 -75.108 24 -74 24 L 74 24 C 75.108 24 76 23.108 76 22 L 76 18.46 C 78.97 20.08 82.371 21 86 21 C 97.6 21 107 11.6 107 0 C 107 -11.6 97.6 -21 86 -21 C 82.371 -21 78.97 -20.08 76 -18.46 L 76 -22 C 76 -23.108 75.108 -24 74 -24 L -74 -24 z " class="shadow"/></g>
        <use x="0" y="0" xlink:href="#template"/><text y="2"></text>
        <rect width="152" height="48" ry="2" x="-76" y="-24" class="result"/>
    </g></g></g>
    <g transform="translate(255,320)" id="b"><g class="scale"><g class="rot">
		<g transform="translate(5,10)"><path d="M -74 -24 C -75.108 -24 -76 -23.108 -76 -22 L -76 -18.46 C -78.97 -20.08 -82.37 -21 -86 -21 C -97.6 -21 -107 -11.6 -107 0 C -107 11.6 -97.6 21 -86 21 C -82.37 21 -78.97 20.08 -76 18.46 L -76 22 C -76 23.108 -75.108 24 -74 24 L 74 24 C 75.108 24 76 23.108 76 22 L 76 18.46 C 78.97 20.08 82.371 21 86 21 C 97.6 21 107 11.6 107 0 C 107 -11.6 97.6 -21 86 -21 C 82.371 -21 78.97 -20.08 76 -18.46 L 76 -22 C 76 -23.108 75.108 -24 74 -24 L -74 -24 z " class="shadow"/></g>
        <use x="0" y="0" xlink:href="#template"/><text y="2"></text>
        <rect width="152" height="48" ry="2" x="-76" y="-24" class="result"/>
    </g></g></g>
    <g transform="translate(490,255)" id="c"><g class="scale"><g class="rot">
		<g transform="translate(5,10)"><path d="M -74 -24 C -75.108 -24 -76 -23.108 -76 -22 L -76 -18.46 C -78.97 -20.08 -82.37 -21 -86 -21 C -97.6 -21 -107 -11.6 -107 0 C -107 11.6 -97.6 21 -86 21 C -82.37 21 -78.97 20.08 -76 18.46 L -76 22 C -76 23.108 -75.108 24 -74 24 L 74 24 C 75.108 24 76 23.108 76 22 L 76 18.46 C 78.97 20.08 82.371 21 86 21 C 97.6 21 107 11.6 107 0 C 107 -11.6 97.6 -21 86 -21 C 82.371 -21 78.97 -20.08 76 -18.46 L 76 -22 C 76 -23.108 75.108 -24 74 -24 L -74 -24 z " class="shadow"/></g>
        <use x="0" y="0" xlink:href="#template"/><text y="2"></text>
        <rect width="152" height="48" ry="2" x="-76" y="-24" class="result"/>
    </g></g></g>
    <g transform="translate(490,320)" id="d"><g class="scale"><g class="rot">
		<g transform="translate(5,10)"><path d="M -74 -24 C -75.108 -24 -76 -23.108 -76 -22 L -76 -18.46 C -78.97 -20.08 -82.37 -21 -86 -21 C -97.6 -21 -107 -11.6 -107 0 C -107 11.6 -97.6 21 -86 21 C -82.37 21 -78.97 20.08 -76 18.46 L -76 22 C -76 23.108 -75.108 24 -74 24 L 74 24 C 75.108 24 76 23.108 76 22 L 76 18.46 C 78.97 20.08 82.371 21 86 21 C 97.6 21 107 11.6 107 0 C 107 -11.6 97.6 -21 86 -21 C 82.371 -21 78.97 -20.08 76 -18.46 L 76 -22 C 76 -23.108 75.108 -24 74 -24 L -74 -24 z " class="shadow"/></g>
        <use x="0" y="0" xlink:href="#template"/><text y="2"></text>
        <rect width="152" height="48" ry="2" x="-76" y="-24" class="result"/>
    </g></g></g>
</g>

</svg>
