<?xml version="1.0" encoding="UTF-8" standalone="no"?>
<svg xmlns:xlink="http://www.w3.org/1999/xlink" xmlns:svg="http://www.w3.org/2000/svg" xmlns="http://www.w3.org/2000/svg" version="1.0" width="100%" height="100%" viewBox="0 0 640 480" id="rebus">
<defs>
 <style type="text/css">
    svg#rebus .disable { display:none; }
    svg#rebus .box    { fill:white; fill-opacity:0.95; cursor:move; }
    svg#rebus .good .box { fill:green; }
    svg#rebus .wrong .box { fill:red; }

    svg#rebus.l2 #t03      { fill:#352b00; opacity:0.1; }
    svg#rebus.l2 #t04      { fill:#352b00; opacity:0.1;  }
    svg#rebus.l3 #t04      { fill:#352b00; opacity:0.1;  }
    
    svg#rebus #pieces>g		{ cursor:move; }

    svg#rebus #target rect    { fill:#e1a94b; stroke:#352b00;stroke-width:1;stroke-linecap:butt;stroke-linejoin:round; }
    
 </style>
</defs>
<g id="bg">

	<rect width="280" height="390" ry="25" x="350" y="15" id="r3815" style="fill:#e1a94b;stroke:none;marker:none;visibility:visible;display:inline;overflow:visible;enable-background:accumulate"/>


    <g id="target">
        <rect id="t01" width="80" height="80" x="22" y="325"/>
        <rect id="t02" width="80" height="80" x="102" y="325"/>
        <rect id="t03" width="80" height="80" x="182" y="325"/>
        <rect id="t04" width="80" height="80" x="262" y="325"/>
    </g>
</g>
<g id="pieces">
    <g id="p01" transform="translate(62,365)"><g class="scale"><g class="rot"><rect width="78" height="78" ry="2" x="-39" y="-39" class="box"/><image transform="translate(-39,-39)" xlink:href="" width="78" height="78" x="0" y="0"/></g></g></g>
    <g id="p02" transform="translate(142,365)"><g class="scale"><g class="rot"><rect width="78" height="78" ry="2" x="-39" y="-39" class="box"/><image transform="translate(-39,-39)" xlink:href="" width="78" height="78" x="0" y="0"/></g></g></g>
    <g id="p03" transform="translate(222,365)"><g class="scale"><g class="rot"><rect width="78" height="78" ry="2" x="-39" y="-39" class="box"/><image transform="translate(-39,-39)" xlink:href="" width="78" height="78" x="0" y="0"/></g></g></g>
    <g id="p04" transform="translate(302,365)"><g class="scale"><g class="rot"><rect width="78" height="78" ry="2" x="-39" y="-39" class="box"/><image transform="translate(-39,-39)" xlink:href="" width="78" height="78" x="0" y="0"/></g></g></g>
    
    
    <g id="dd01" transform="translate(62,365)"><g class="scale"><g class="rot"><rect width="78" height="78" ry="2" x="-39" y="-39" class="box"/><image transform="translate(-39,-39)" xlink:href="" width="78" height="78" x="0" y="0"/></g></g></g>
    <g id="dd02" transform="translate(142,365)"><g class="scale"><g class="rot"><rect width="78" height="78" ry="2" x="-39" y="-39" class="box"/><image transform="translate(-39,-39)" xlink:href="" width="78" height="78" x="0" y="0"/></g></g></g>
    <g id="dd03" transform="translate(222,365)"><g class="scale"><g class="rot"><rect width="78" height="78" ry="2" x="-39" y="-39" class="box"/><image transform="translate(-39,-39)" xlink:href="" width="78" height="78" x="0" y="0"/></g></g></g>
    <g id="dd04" transform="translate(302,365)"><g class="scale"><g class="rot"><rect width="78" height="78" ry="2" x="-39" y="-39" class="box"/><image transform="translate(-39,-39)" xlink:href="" width="78" height="78" x="0" y="0"/></g></g></g>
    
    <g id="dd05" transform="translate(62,365)"><g class="scale"><g class="rot"><rect width="78" height="78" ry="2" x="-39" y="-39" class="box"/><image transform="translate(-39,-39)" xlink:href="" width="78" height="78" x="0" y="0"/></g></g></g>
    <g id="dd06" transform="translate(142,365)"><g class="scale"><g class="rot"><rect width="78" height="78" ry="2" x="-39" y="-39" class="box"/><image transform="translate(-39,-39)" xlink:href="" width="78" height="78" x="0" y="0"/></g></g></g>
    <g id="dd07" transform="translate(222,365)"><g class="scale"><g class="rot"><rect width="78" height="78" ry="2" x="-39" y="-39" class="box"/><image transform="translate(-39,-39)" xlink:href="" width="78" height="78" x="0" y="0"/></g></g></g>
    <g id="dd08" transform="translate(302,365)"><g class="scale"><g class="rot"><rect width="78" height="78" ry="2" x="-39" y="-39" class="box"/><image transform="translate(-39,-39)" xlink:href="" width="78" height="78" x="0" y="0"/></g></g></g>
    
    <g id="dd09" transform="translate(62,365)"><g class="scale"><g class="rot"><rect width="78" height="78" ry="2" x="-39" y="-39" class="box"/><image transform="translate(-39,-39)" xlink:href="" width="78" height="78" x="0" y="0"/></g></g></g>
    <g id="dd10" transform="translate(142,365)"><g class="scale"><g class="rot"><rect width="78" height="78" ry="2" x="-39" y="-39" class="box"/><image transform="translate(-39,-39)" xlink:href="" width="78" height="78" x="0" y="0"/></g></g></g>
    <g id="dd11" transform="translate(222,365)"><g class="scale"><g class="rot"><rect width="78" height="78" ry="2" x="-39" y="-39" class="box"/><image transform="translate(-39,-39)" xlink:href="" width="78" height="78" x="0" y="0"/></g></g></g>
    <g id="dd12" transform="translate(302,365)"><g class="scale"><g class="rot"><rect width="78" height="78" ry="2" x="-39" y="-39" class="box"/><image transform="translate(-39,-39)" xlink:href="" width="78" height="78" x="0" y="0"/></g></g></g>


</g>


</svg>
