<?xml version="1.0" encoding="UTF-8" standalone="no"?>

<svg xmlns:svg="http://www.w3.org/2000/svg" xmlns="http://www.w3.org/2000/svg" xmlns:xlink="http://www.w3.org/1999/xlink" version="1.0" width="100%" height="100%" viewBox="0 0 640 480" id="ruler02">
<defs id="defs2385">
 <style type="text/css">
    svg#ruler02 #template               { display:none; }
    svg#ruler02 .hide                   { display:none; }
    svg#ruler02 .box                    { fill:#553300; fill-opacity:0.95;}
    svg#ruler02 #pieces>g               { display:none; }
    svg#ruler02 #pieces text            { font-size:40px; cursor:move; }
    svg#ruler02.small #pieces text      { font-size:30px; }
    svg#ruler02.tiny #pieces text       { font-size:20px; }
    svg#ruler02 #pieces .result         { fill:#ccc; stroke:#eee;stroke-width:2; cursor:move; }
    svg#ruler02 #pieces .wrong .result  { fill:red; fill-opacity:0.8; }
    svg#ruler02 #pieces .good .result   { fill:#0F0; fill-opacity:0.8; }

    
    svg#ruler02 text                    { font-size:24px;text-anchor:middle;fill:black;font-weight:bold;}
    svg#ruler02 #big line               { fill:none;stroke:black;stroke-width:3;}
    svg#ruler02 #small line             { fill:none;stroke:black;stroke-width:1.5; }
    svg#ruler02 .bg                     { fill:white;stroke:black;stroke-width:1.5; }
    svg#ruler02 .bgl                    { fill:none;stroke:black;stroke-width:1.5; }
	
	svg#ruler02 .shadow					{ fill:black;fill-opacity:0.5;display:none; }
	svg#ruler02 .drag .shadow			{ display:inline; }
 </style>
</defs>

<g id="template">
    <g id="panel">
        <rect ry="10" rx="10" y="-40" x="-40" height="80" width="80" style="fill:#3576b5;stroke:#2d457e;stroke-width:2;stroke-linecap:butt;stroke-linejoin:round;" />
        <rect style="fill:#accae7;stroke-width:2;stroke-linecap:butt;stroke-linejoin:round;" width="69.472" height="69.472" x="-34.736" y="-34.736" rx="8.684" ry="8.684" />
        <path d="m -20.695,-34.949 -8.929,0 c -2.949,0 -5.324,2.374 -5.324,5.324 l 0,8.929" style="fill:none;stroke:#2d457e;stroke-width:3;stroke-linecap:round;" />
        <path d="m 34.949,-20.695 0,-8.929 c 0,-2.949 -2.374,-5.324 -5.324,-5.324 l -8.929,0" style="fill:none;stroke:#2d457e;stroke-width:3;stroke-linecap:round;" />
        <path d="m -34.949,20.695 0,8.929 c 0,2.949 2.374,5.324 5.324,5.324 l 8.929,0" style="fill:none;stroke:#2d457e;stroke-width:3;stroke-linecap:round;" />
        <path d="m 20.695,34.949 8.929,0 c 2.949,0 5.324,-2.374 5.324,-5.324 l 0,-8.929" style="fill:none;stroke:#2d457e;stroke-width:3;stroke-linecap:round;" />
        <path d="M -13.125 57.994 L -13.769 58.638 C -14.859 59.728 -14.859 61.482 -13.769 62.572 L -1.966 74.375 C -0.877 75.464 0.877 75.464 1.966 74.375 L 13.769 62.572 C 14.859 61.482 14.859 59.728 13.769 58.638 L 13.125 57.994 L -13.125 57.994 z " style="fill:#accae7;stroke:#2d457e;stroke-width:4;stroke-linecap:butt;stroke-linejoin:round;" />
        <path d="M 0,56.665 0,40.264" style="fill:none;stroke:#2d457e;stroke-width:4;stroke-linecap:butt;" />
    </g>
</g>

<rect style="fill:#000;fill-opacity:0.3;stroke:white;stroke-width:5" width="700" height="200" x="-10" y="-20" rx="0" ry="0" />


<g id="big">
    <line x1="10" y1="340" x2="630" y2="340" style="display:inherit;"/>
    <line x1="20" y1="325" x2="20" y2="355" id="s01" class="hide"/>
    <line x1="50" y1="325" x2="50" y2="355" id="s02" class="hide"/>
    <line x1="80" y1="325" x2="80" y2="355" id="s03" class="hide"/>
    <line x1="110" y1="325" x2="110" y2="355" id="s04" class="hide"/>
    <line x1="140" y1="325" x2="140" y2="355" id="s05" class="hide"/>
    <line x1="170" y1="325" x2="170" y2="355" id="s06" class="hide"/>
    <line x1="200" y1="325" x2="200" y2="355" id="s07" class="hide"/>
    <line x1="230" y1="325" x2="230" y2="355" id="s08" class="hide"/>
    <line x1="260" y1="325" x2="260" y2="355" id="s09" class="hide"/>
    <line x1="290" y1="325" x2="290" y2="355" id="s10" class="hide"/>
    <line x1="320" y1="325" x2="320" y2="355" id="s11" class="hide"/>
    <line x1="350" y1="325" x2="350" y2="355" id="s12" class="hide"/>
    <line x1="380" y1="325" x2="380" y2="355" id="s13" class="hide"/>
    <line x1="410" y1="325" x2="410" y2="355" id="s14" class="hide"/>
    <line x1="440" y1="325" x2="440" y2="355" id="s15" class="hide"/>
    <line x1="470" y1="325" x2="470" y2="355" id="s16" class="hide"/>
    <line x1="500" y1="325" x2="500" y2="355" id="s17" class="hide"/>
    <line x1="530" y1="325" x2="530" y2="355" id="s18" class="hide"/>
    <line x1="560" y1="325" x2="560" y2="355" id="s19" class="hide"/>
    <line x1="590" y1="325" x2="590" y2="355" id="s20" class="hide"/>
    <line x1="620" y1="325" x2="620" y2="355" id="s21" class="hide"/>
</g>
<g id="small">
    <line x1="20" y1="325" x2="20" y2="355"/>
    <line x1="50" y1="325" x2="50" y2="355"/>
    <line x1="80" y1="325" x2="80" y2="355"/>
    <line x1="110" y1="325" x2="110" y2="355"/>
    <line x1="140" y1="325" x2="140" y2="355"/>
    <line x1="170" y1="325" x2="170" y2="355"/>
    <line x1="200" y1="325" x2="200" y2="355"/>
    <line x1="230" y1="325" x2="230" y2="355"/>
    <line x1="260" y1="325" x2="260" y2="355"/>
    <line x1="290" y1="325" x2="290" y2="355"/>
    <line x1="320" y1="325" x2="320" y2="355"/>
    <line x1="350" y1="325" x2="350" y2="355"/>
    <line x1="380" y1="325" x2="380" y2="355"/>
    <line x1="410" y1="325" x2="410" y2="355"/>
    <line x1="440" y1="325" x2="440" y2="355"/>
    <line x1="470" y1="325" x2="470" y2="355"/>
    <line x1="500" y1="325" x2="500" y2="355"/>
    <line x1="530" y1="325" x2="530" y2="355"/>
    <line x1="560" y1="325" x2="560" y2="355"/>
    <line x1="590" y1="325" x2="590" y2="355"/>
    <line x1="620" y1="325" x2="620" y2="355"/>
</g>

<text transform="translate(20,380)" id="t01" class="hide"></text>
<text transform="translate(50,380)" id="t02" class="hide"></text>
<text transform="translate(80,380)" id="t03" class="hide"></text>
<text transform="translate(110,380)" id="t04" class="hide"></text>
<text transform="translate(140,380)" id="t05" class="hide"></text>
<text transform="translate(170,380)" id="t06" class="hide"></text>
<text transform="translate(200,380)" id="t07" class="hide"></text>
<text transform="translate(230,380)" id="t08" class="hide"></text>
<text transform="translate(260,380)" id="t09" class="hide"></text>
<text transform="translate(290,380)" id="t10" class="hide"></text>
<text transform="translate(320,380)" id="t11" class="hide"></text>
<text transform="translate(350,380)" id="t12" class="hide"></text>
<text transform="translate(380,380)" id="t13" class="hide"></text>
<text transform="translate(410,380)" id="t14" class="hide"></text>
<text transform="translate(440,380)" id="t15" class="hide"></text>
<text transform="translate(470,380)" id="t16" class="hide"></text>
<text transform="translate(500,380)" id="t17" class="hide"></text>
<text transform="translate(530,380)" id="t18" class="hide"></text>
<text transform="translate(560,380)" id="t19" class="hide"></text>
<text transform="translate(590,380)" id="t20" class="hide"></text>
<text transform="translate(620,380)" id="t21" class="hide"></text>

<use xlink:href="#panel" transform="translate(50,240)" width="100%" height="100%" class="hide" id="pa02"/>
<use xlink:href="#panel" transform="translate(80,240)" width="100%" height="100%" class="hide" id="pa03"/>
<use xlink:href="#panel" transform="translate(110,240)" width="100%" height="100%" class="hide" id="pa04"/>
<use xlink:href="#panel" transform="translate(140,240)" width="100%" height="100%" class="hide" id="pa05"/>
<use xlink:href="#panel" transform="translate(170,240)" width="100%" height="100%" class="hide" id="pa06"/>
<use xlink:href="#panel" transform="translate(200,240)" width="100%" height="100%" class="hide" id="pa07"/>
<use xlink:href="#panel" transform="translate(230,240)" width="100%" height="100%" class="hide" id="pa08"/>
<use xlink:href="#panel" transform="translate(260,240)" width="100%" height="100%" class="hide" id="pa09"/>
<use xlink:href="#panel" transform="translate(290,240)" width="100%" height="100%" class="hide" id="pa10"/>
<use xlink:href="#panel" transform="translate(320,240)" width="100%" height="100%" class="hide" id="pa11"/>
<use xlink:href="#panel" transform="translate(350,240)" width="100%" height="100%" class="hide" id="pa12"/>
<use xlink:href="#panel" transform="translate(380,240)" width="100%" height="100%" class="hide" id="pa13"/>
<use xlink:href="#panel" transform="translate(410,240)" width="100%" height="100%" class="hide" id="pa14"/>
<use xlink:href="#panel" transform="translate(440,240)" width="100%" height="100%" class="hide" id="pa15"/>
<use xlink:href="#panel" transform="translate(470,240)" width="100%" height="100%" class="hide" id="pa16"/>
<use xlink:href="#panel" transform="translate(500,240)" width="100%" height="100%" class="hide" id="pa17"/>
<use xlink:href="#panel" transform="translate(530,240)" width="100%" height="100%" class="hide" id="pa18"/>
<use xlink:href="#panel" transform="translate(560,240)" width="100%" height="100%" class="hide" id="pa19"/>
<use xlink:href="#panel" transform="translate(590,240)" width="100%" height="100%" class="hide" id="pa20"/>


<g id="pieces">

<g transform="translate(50,240)" id="p02"><g class="scale">
    <rect x="-33" y="-30" height="76" width="76" ry="10" class="shadow"/>
    <rect x="-38" y="-38" height="76" width="76" ry="10" class="result"/>
    <image id="i02" transform="translate(-38,-38)" xlink:href="" width="76" height="76" x="0" y="0"/>
    <text y="12"></text>
</g></g>

<g transform="translate(80,240)" id="p03"><g class="scale">
    <rect x="-33" y="-30" height="76" width="76" ry="10" class="shadow"/>
     <rect x="-38" y="-38" height="76" width="76" ry="10" class="result"/>
    <image id="i03" transform="translate(-38,-38)" xlink:href="" width="76" height="76" x="0" y="0"/>
    <text y="12"></text>
</g></g>

<g transform="translate(110,240)" id="p04"><g class="scale">
    <rect x="-33" y="-30" height="76" width="76" ry="10" class="shadow"/>
     <rect x="-38" y="-38" height="76" width="76" ry="10" class="result"/>
    <image id="i04" transform="translate(-38,-38)" xlink:href="" width="76" height="76" x="0" y="0"/>
    <text y="12"></text>
</g></g>

<g transform="translate(140,240)" id="p05"><g class="scale">
    <rect x="-33" y="-30" height="76" width="76" ry="10" class="shadow"/>
     <rect x="-38" y="-38" height="76" width="76" ry="10" class="result"/>
    <image id="i05" transform="translate(-38,-38)" xlink:href="" width="76" height="76" x="0" y="0"/>
    <text y="12"></text>
</g></g>

<g transform="translate(170,240)" id="p06"><g class="scale">
    <rect x="-33" y="-30" height="76" width="76" ry="10" class="shadow"/>
     <rect x="-38" y="-38" height="76" width="76" ry="10" class="result"/>
    <image id="i06" transform="translate(-38,-38)" xlink:href="" width="76" height="76" x="0" y="0"/>
    <text y="12"></text>
</g></g>

<g transform="translate(200,240)" id="p07"><g class="scale">
    <rect x="-33" y="-30" height="76" width="76" ry="10" class="shadow"/>
     <rect x="-38" y="-38" height="76" width="76" ry="10" class="result"/>
    <image id="i07" transform="translate(-38,-38)" xlink:href="" width="76" height="76" x="0" y="0"/>
    <text y="12"></text>
</g></g>

<g transform="translate(230,240)" id="p08"><g class="scale">
    <rect x="-33" y="-30" height="76" width="76" ry="10" class="shadow"/>
     <rect x="-38" y="-38" height="76" width="76" ry="10" class="result"/>
    <image id="i08" transform="translate(-38,-38)" xlink:href="" width="76" height="76" x="0" y="0"/>
    <text y="12"></text>
</g></g>

<g transform="translate(260,240)" id="p09"><g class="scale">
    <rect x="-33" y="-30" height="76" width="76" ry="10" class="shadow"/>
     <rect x="-38" y="-38" height="76" width="76" ry="10" class="result"/>
    <image id="i09" transform="translate(-38,-38)" xlink:href="" width="76" height="76" x="0" y="0"/>
    <text y="12"></text>
</g></g>

<g transform="translate(290,240)" id="p10"><g class="scale">
    <rect x="-33" y="-30" height="76" width="76" ry="10" class="shadow"/>
     <rect x="-38" y="-38" height="76" width="76" ry="10" class="result"/>
    <image id="i10" transform="translate(-38,-38)" xlink:href="" width="76" height="76" x="0" y="0"/>
    <text y="12"></text>
</g></g>

<g transform="translate(320,240)" id="p11"><g class="scale">
    <rect x="-33" y="-30" height="76" width="76" ry="10" class="shadow"/>
     <rect x="-38" y="-38" height="76" width="76" ry="10" class="result"/>
    <image id="i11" transform="translate(-38,-38)" xlink:href="" width="76" height="76" x="0" y="0"/>
    <text y="12"></text>
</g></g>

<g transform="translate(350,240)" id="p12"><g class="scale">
    <rect x="-33" y="-30" height="76" width="76" ry="10" class="shadow"/>
     <rect x="-38" y="-38" height="76" width="76" ry="10" class="result"/>
    <image id="i12" transform="translate(-38,-38)" xlink:href="" width="76" height="76" x="0" y="0"/>
    <text y="12"></text>
</g></g>

<g transform="translate(380,240)" id="p13"><g class="scale">
    <rect x="-33" y="-30" height="76" width="76" ry="10" class="shadow"/>
     <rect x="-38" y="-38" height="76" width="76" ry="10" class="result"/>
    <image id="i13" transform="translate(-38,-38)" xlink:href="" width="76" height="76" x="0" y="0"/>
    <text y="12"></text>
</g></g>

<g transform="translate(410,240)" id="p14"><g class="scale">
    <rect x="-33" y="-30" height="76" width="76" ry="10" class="shadow"/>
     <rect x="-38" y="-38" height="76" width="76" ry="10" class="result"/>
    <image id="i14" transform="translate(-38,-38)" xlink:href="" width="76" height="76" x="0" y="0"/>
    <text y="12"></text>
</g></g>

<g transform="translate(440,240)" id="p15"><g class="scale">
    <rect x="-33" y="-30" height="76" width="76" ry="10" class="shadow"/>
     <rect x="-38" y="-38" height="76" width="76" ry="10" class="result"/>
    <image id="i15" transform="translate(-38,-38)" xlink:href="" width="76" height="76" x="0" y="0"/>
    <text y="12"></text>
</g></g>

<g transform="translate(470,240)" id="p16"><g class="scale">
    <rect x="-33" y="-30" height="76" width="76" ry="10" class="shadow"/>
     <rect x="-38" y="-38" height="76" width="76" ry="10" class="result"/>
    <image id="i16" transform="translate(-38,-38)" xlink:href="" width="76" height="76" x="0" y="0"/>
    <text y="12"></text>
</g></g>

<g transform="translate(500,240)" id="p17"><g class="scale">
    <rect x="-33" y="-30" height="76" width="76" ry="10" class="shadow"/>
     <rect x="-38" y="-38" height="76" width="76" ry="10" class="result"/>
    <image id="i17" transform="translate(-38,-38)" xlink:href="" width="76" height="76" x="0" y="0"/>
    <text y="12"></text>
</g></g>

<g transform="translate(530,240)" id="p18"><g class="scale">
    <rect x="-33" y="-30" height="76" width="76" ry="10" class="shadow"/>
     <rect x="-38" y="-38" height="76" width="76" ry="10" class="result"/>
    <image id="i18" transform="translate(-38,-38)" xlink:href="" width="76" height="76" x="0" y="0"/>
    <text y="12"></text>
</g></g>

<g transform="translate(560,240)" id="p19"><g class="scale">
    <rect x="-33" y="-30" height="76" width="76" ry="10" class="shadow"/>
     <rect x="-38" y="-38" height="76" width="76" ry="10" class="result"/>
    <image id="i19" transform="translate(-38,-38)" xlink:href="" width="76" height="76" x="0" y="0"/>
    <text y="12"></text>
</g></g>

<g transform="translate(590,240)" id="p20"><g class="scale">
    <rect x="-33" y="-30" height="76" width="76" ry="10" class="shadow"/>
     <rect x="-38" y="-38" height="76" width="76" ry="10" class="result"/>
    <image id="i20" transform="translate(-38,-38)" xlink:href="" width="76" height="76" x="0" y="0"/>
    <text y="12"></text>
</g></g>



<g transform="translate(50,240)" id="d02"><g class="scale">
    <rect x="-33" y="-30" height="76" width="76" ry="10" class="shadow"/>
    <rect x="-38" y="-38" height="76" width="76" ry="10" class="result"/>
    <image id="id02" transform="translate(-38,-38)" xlink:href="" width="76" height="76" x="0" y="0"/>
    <text y="12"></text>
</g></g>

<g transform="translate(80,240)" id="d03"><g class="scale">
    <rect x="-33" y="-30" height="76" width="76" ry="10" class="shadow"/>
     <rect x="-38" y="-38" height="76" width="76" ry="10" class="result"/>
    <image id="id03" transform="translate(-38,-38)" xlink:href="" width="76" height="76" x="0" y="0"/>
    <text y="12"></text>
</g></g>

<g transform="translate(110,240)" id="d04"><g class="scale">
    <rect x="-33" y="-30" height="76" width="76" ry="10" class="shadow"/>
     <rect x="-38" y="-38" height="76" width="76" ry="10" class="result"/>
    <image id="id04" transform="translate(-38,-38)" xlink:href="" width="76" height="76" x="0" y="0"/>
    <text y="12"></text>
</g></g>

<g transform="translate(140,240)" id="d05"><g class="scale">
    <rect x="-33" y="-30" height="76" width="76" ry="10" class="shadow"/>
     <rect x="-38" y="-38" height="76" width="76" ry="10" class="result"/>
    <image id="id05" transform="translate(-38,-38)" xlink:href="" width="76" height="76" x="0" y="0"/>
    <text y="12"></text>
</g></g>

<g transform="translate(170,240)" id="d06"><g class="scale">
    <rect x="-33" y="-30" height="76" width="76" ry="10" class="shadow"/>
     <rect x="-38" y="-38" height="76" width="76" ry="10" class="result"/>
    <image id="id06" transform="translate(-38,-38)" xlink:href="" width="76" height="76" x="0" y="0"/>
    <text y="12"></text>
</g></g>

<g transform="translate(200,240)" id="d07"><g class="scale">
    <rect x="-33" y="-30" height="76" width="76" ry="10" class="shadow"/>
     <rect x="-38" y="-38" height="76" width="76" ry="10" class="result"/>
    <image id="id07" transform="translate(-38,-38)" xlink:href="" width="76" height="76" x="0" y="0"/>
    <text y="12"></text>
</g></g>

<g transform="translate(230,240)" id="d08"><g class="scale">
    <rect x="-33" y="-30" height="76" width="76" ry="10" class="shadow"/>
     <rect x="-38" y="-38" height="76" width="76" ry="10" class="result"/>
    <image id="id08" transform="translate(-38,-38)" xlink:href="" width="76" height="76" x="0" y="0"/>
    <text y="12"></text>
</g></g>

<g transform="translate(260,240)" id="d09"><g class="scale">
    <rect x="-33" y="-30" height="76" width="76" ry="10" class="shadow"/>
     <rect x="-38" y="-38" height="76" width="76" ry="10" class="result"/>
    <image id="id09" transform="translate(-38,-38)" xlink:href="" width="76" height="76" x="0" y="0"/>
    <text y="12"></text>
</g></g>

<g transform="translate(290,240)" id="d10"><g class="scale">
    <rect x="-33" y="-30" height="76" width="76" ry="10" class="shadow"/>
     <rect x="-38" y="-38" height="76" width="76" ry="10" class="result"/>
    <image id="id10" transform="translate(-38,-38)" xlink:href="" width="76" height="76" x="0" y="0"/>
    <text y="12"></text>
</g></g>

<g transform="translate(320,240)" id="d11"><g class="scale">
    <rect x="-33" y="-30" height="76" width="76" ry="10" class="shadow"/>
     <rect x="-38" y="-38" height="76" width="76" ry="10" class="result"/>
    <image id="id11" transform="translate(-38,-38)" xlink:href="" width="76" height="76" x="0" y="0"/>
    <text y="12"></text>
</g></g>

<g transform="translate(350,240)" id="d12"><g class="scale">
    <rect x="-33" y="-30" height="76" width="76" ry="10" class="shadow"/>
     <rect x="-38" y="-38" height="76" width="76" ry="10" class="result"/>
    <image id="id12" transform="translate(-38,-38)" xlink:href="" width="76" height="76" x="0" y="0"/>
    <text y="12"></text>
</g></g>

<g transform="translate(380,240)" id="d13"><g class="scale">
    <rect x="-33" y="-30" height="76" width="76" ry="10" class="shadow"/>
     <rect x="-38" y="-38" height="76" width="76" ry="10" class="result"/>
    <image id="id13" transform="translate(-38,-38)" xlink:href="" width="76" height="76" x="0" y="0"/>
    <text y="12"></text>
</g></g>

<g transform="translate(410,240)" id="d14"><g class="scale">
    <rect x="-33" y="-30" height="76" width="76" ry="10" class="shadow"/>
     <rect x="-38" y="-38" height="76" width="76" ry="10" class="result"/>
    <image id="id14" transform="translate(-38,-38)" xlink:href="" width="76" height="76" x="0" y="0"/>
    <text y="12"></text>
</g></g>

<g transform="translate(440,240)" id="d15"><g class="scale">
    <rect x="-33" y="-30" height="76" width="76" ry="10" class="shadow"/>
     <rect x="-38" y="-38" height="76" width="76" ry="10" class="result"/>
    <image id="id15" transform="translate(-38,-38)" xlink:href="" width="76" height="76" x="0" y="0"/>
    <text y="12"></text>
</g></g>

<g transform="translate(470,240)" id="d16"><g class="scale">
    <rect x="-33" y="-30" height="76" width="76" ry="10" class="shadow"/>
     <rect x="-38" y="-38" height="76" width="76" ry="10" class="result"/>
    <image id="id16" transform="translate(-38,-38)" xlink:href="" width="76" height="76" x="0" y="0"/>
    <text y="12"></text>
</g></g>

<g transform="translate(500,240)" id="d17"><g class="scale">
    <rect x="-33" y="-30" height="76" width="76" ry="10" class="shadow"/>
     <rect x="-38" y="-38" height="76" width="76" ry="10" class="result"/>
    <image id="id17" transform="translate(-38,-38)" xlink:href="" width="76" height="76" x="0" y="0"/>
    <text y="12"></text>
</g></g>

<g transform="translate(530,240)" id="d18"><g class="scale">
    <rect x="-33" y="-30" height="76" width="76" ry="10" class="shadow"/>
     <rect x="-38" y="-38" height="76" width="76" ry="10" class="result"/>
    <image id="id18" transform="translate(-38,-38)" xlink:href="" width="76" height="76" x="0" y="0"/>
    <text y="12"></text>
</g></g>

<g transform="translate(560,240)" id="d19"><g class="scale">
    <rect x="-33" y="-30" height="76" width="76" ry="10" class="shadow"/>
     <rect x="-38" y="-38" height="76" width="76" ry="10" class="result"/>
    <image id="id19" transform="translate(-38,-38)" xlink:href="" width="76" height="76" x="0" y="0"/>
    <text y="12"></text>
</g></g>

<g transform="translate(590,240)" id="d20"><g class="scale">
    <rect x="-33" y="-30" height="76" width="76" ry="10" class="shadow"/>
     <rect x="-38" y="-38" height="76" width="76" ry="10" class="result"/>
    <image id="id20" transform="translate(-38,-38)" xlink:href="" width="76" height="76" x="0" y="0"/>
    <text y="12"></text>
</g></g>

</g>

</svg>