<?xml version="1.0" encoding="UTF-8" standalone="no"?>
<svg xmlns:svg="http://www.w3.org/2000/svg" xmlns="http://www.w3.org/2000/svg" xmlns:xlink="http://www.w3.org/1999/xlink" version="1.0" width="100%" height="100%" viewBox="0 0 640 480" id="ruler">
<defs id="defs2385">
 <style type="text/css">
    .r4 svg#ruler use.r4 { display:none; }
    .r6 svg#ruler use.r6 { display:none; }

    svg#ruler .disable { display:none; }

    svg#ruler #pieces .result { fill:white; fill-opacity:0; cursor:move; }
    svg#ruler #pieces .wrong .result { fill:red; fill-opacity:0.5; }
    svg#ruler #pieces .good .result  { fill:#0F0; fill-opacity:0.5; }

    svg#ruler .hide { display:none; } 
    svg#ruler #ref rect.hide { fill:#47B;stroke:black; }
    
    svg#ruler #pieces #ruler    { cursor:move; }
    svg#ruler #pieces #ref      { cursor:move; }

    svg#ruler #pieces .r1 { fill:white; fill-opacity:0.5; }
    svg#ruler #pieces .r2 { fill:white; fill-opacity:0.5; }
    svg#ruler #pieces .r3 { fill:none; stroke:black; stroke-width:1; }
    svg#ruler #pieces .r4 { fill:none; stroke:black; stroke-width:0.5; }
    svg#ruler #pieces .r5 { fill:none; stroke:black; stroke-width:1; }
    svg#ruler #pieces text { font-size:24px;fill:black;opacity:0.7;text-anchor:middle; cursor:move; }
    svg#ruler #pieces #ruler text { font-size:12px; }
	svg#ruler .shadow				{ fill:black; fill-opacity:0.5; display:none; }
	svg#ruler .drag .shadow			{ display:inline; }
 </style>
</defs>

<g class="disable">
    <g id="tt">
        <circle cx="0" cy="0" r="45" style="fill:gray;"/>
    </g>
    <g id="tp">
        <circle cx="0" cy="0" r="20" style="fill:#8e572b;"/>
        <circle cx="0" cy="0" r="15" style="fill:#c27642;"/>
        <circle cx="0" cy="0" r="20" style="fill:none;stroke:#463326;stroke-width:2;"/>
    </g>

    <g id="border">
        <rect x="-100" y="-20" width="200" height="40" ry="10" style="fill:white;fill-opacity:0.5;stroke:black;stroke-width:2"/>
        <circle cx="75" cy="-29" r="21" style="fill:none;stroke:black;stroke-width:2"/>
        <circle cx="75" cy="-29" r="17" style="fill:white;fill-opacity:0.6"/>

    </g>

    <g id="len01"><rect x="-5" y="-5" width="10" height="10" style="fill:gray;stroke:black;"/></g>
    <g id="len02"><rect x="-10" y="-5" width="20" height="10" style="fill:gray;stroke:black;"/></g>
    <g id="len03"><rect x="-15" y="-5" width="30" height="10" style="fill:gray;stroke:black;"/></g>
    <g id="len04"><rect x="-20" y="-5" width="40" height="10" style="fill:gray;stroke:black;"/></g>
    <g id="len05"><rect x="-25" y="-5" width="50" height="10" style="fill:gray;stroke:black;"/></g>
    <g id="len06"><rect x="-30" y="-5" width="60" height="10" style="fill:gray;stroke:black;"/></g>
    <g id="len07"><rect x="-35" y="-5" width="70" height="10" style="fill:gray;stroke:black;"/></g>
    <g id="len08"><rect x="-40" y="-5" width="80" height="10" style="fill:gray;stroke:black;"/></g>
    <g id="len09"><rect x="-45" y="-5" width="90" height="10" style="fill:gray;stroke:black;"/></g>
    <g id="len10"><rect x="-50" y="-5" width="100" height="10" style="fill:gray;stroke:black;"/></g>
    <g id="len11"><rect x="-55" y="-5" width="110" height="10" style="fill:gray;stroke:black;"/></g>
    <g id="len12"><rect x="-60" y="-5" width="120" height="10" style="fill:gray;stroke:black;"/></g>
    <g id="len13"><rect x="-65" y="-5" width="130" height="10" style="fill:gray;stroke:black;"/></g>
    <g id="len14"><rect x="-70" y="-5" width="140" height="10" style="fill:gray;stroke:black;"/></g>
    <g id="len15"><rect x="-75" y="-5" width="150" height="10" style="fill:gray;stroke:black;"/></g>
    <g id="len16"><rect x="-80" y="-5" width="160" height="10" style="fill:gray;stroke:black;"/></g>
    <g id="len17"><rect x="-85" y="-5" width="170" height="10" style="fill:gray;stroke:black;"/></g>

</g>

<g transform="translate(110,150)">
    <use x="0" y="0" xlink:href="#border"/>
    <use transform="translate(-50,0)" id="b0101" x="0" y="0" xlink:href="#len01" class="hide"/>
    <use transform="translate(20,0)" id="b0102" x="0" y="0" xlink:href="#len02" class="hide"/>
    <use transform="translate(10,0)" id="b0103" x="0" y="0" xlink:href="#len03" class="hide"/>
    <use transform="translate(0,0)" id="b0104" x="0" y="0" xlink:href="#len04" class="hide"/>
    <use transform="translate(-20,0)" id="b0105" x="0" y="0" xlink:href="#len05" class="hide"/>
    <use transform="translate(30,0)" id="b0106" x="0" y="0" xlink:href="#len06" class="hide"/>
    <use transform="translate(5,0)" id="b0107" x="0" y="0" xlink:href="#len07" class="hide"/>
    <use transform="translate(15,0)" id="b0108" x="0" y="0" xlink:href="#len08" class="hide"/>
    <use transform="translate(-5,0)" id="b0109" x="0" y="0" xlink:href="#len09" class="hide"/>
    <use transform="translate(-15,0)" id="b0110" x="0" y="0" xlink:href="#len10" class="hide"/>
    <use transform="translate(10,0)" id="b0111" x="0" y="0" xlink:href="#len11" class="hide"/>
    <use transform="translate(20,0)" id="b0112" x="0" y="0" xlink:href="#len12" class="hide"/>
    <use transform="translate(5,0)" id="b0113" x="0" y="0" xlink:href="#len13" class="hide"/>
    <use transform="translate(-5,0)" id="b0114" x="0" y="0" xlink:href="#len14" class="hide"/>
    <use transform="translate(0,0)" id="b0115" x="0" y="0" xlink:href="#len15" class="hide"/>
    <use transform="translate(-5,0)" id="b0116" x="0" y="0" xlink:href="#len16" class="hide"/>
    <use transform="translate(0,0)" id="b0117" x="0" y="0" xlink:href="#len17" class="hide"/>
</g>
<g transform="translate(320,150)">
    <use x="0" y="0" xlink:href="#border"/>
    <use transform="translate(40,0)" id="b0201" x="0" y="0" xlink:href="#len01" class="hide"/>
    <use transform="translate(-30,0)" id="b0202" x="0" y="0" xlink:href="#len02" class="hide"/>
    <use transform="translate(-30,0)" id="b0203" x="0" y="0" xlink:href="#len03" class="hide"/>
    <use transform="translate(20,0)" id="b0204" x="0" y="0" xlink:href="#len04" class="hide"/>
    <use transform="translate(30,0)" id="b0205" x="0" y="0" xlink:href="#len05" class="hide"/>
    <use transform="translate(40,0)" id="b0206" x="0" y="0" xlink:href="#len06" class="hide"/>
    <use transform="translate(20,0)" id="b0207" x="0" y="0" xlink:href="#len07" class="hide"/>
    <use transform="translate(-10,0)" id="b0208" x="0" y="0" xlink:href="#len08" class="hide"/>
    <use transform="translate(-20,0)" id="b0209" x="0" y="0" xlink:href="#len09" class="hide"/>
    <use transform="translate(-15,0)" id="b0210" x="0" y="0" xlink:href="#len10" class="hide"/>
    <use transform="translate(10,0)" id="b0211" x="0" y="0" xlink:href="#len11" class="hide"/>
    <use transform="translate(5,0)" id="b0212" x="0" y="0" xlink:href="#len12" class="hide"/>
    <use transform="translate(20,0)" id="b0213" x="0" y="0" xlink:href="#len13" class="hide"/>
    <use transform="translate(10,0)" id="b0214" x="0" y="0" xlink:href="#len14" class="hide"/>
    <use transform="translate(-10,0)" id="b0215" x="0" y="0" xlink:href="#len15" class="hide"/>
    <use transform="translate(-5,0)" id="b0216" x="0" y="0" xlink:href="#len16" class="hide"/>
    <use transform="translate(0,0)" id="b0217" x="0" y="0" xlink:href="#len17" class="hide"/>
</g>
<g transform="translate(530,150)">
    <use x="0" y="0" xlink:href="#border" class="r4 r6"/>
    <use transform="translate(50,0)" id="b0301" x="0" y="0" xlink:href="#len01" class="hide"/>
    <use transform="translate(30,0)" id="b0302" x="0" y="0" xlink:href="#len02" class="hide"/>
    <use transform="translate(-20,0)" id="b0303" x="0" y="0" xlink:href="#len03" class="hide"/>
    <use transform="translate(-30,0)" id="b0304" x="0" y="0" xlink:href="#len04" class="hide"/>
    <use transform="translate(10,0)" id="b0305" x="0" y="0" xlink:href="#len05" class="hide"/>
    <use transform="translate(5,0)" id="b0306" x="0" y="0" xlink:href="#len06" class="hide"/>
    <use transform="translate(-20,0)" id="b0307" x="0" y="0" xlink:href="#len07" class="hide"/>
    <use transform="translate(15,0)" id="b0308" x="0" y="0" xlink:href="#len08" class="hide"/>
    <use transform="translate(5,0)" id="b0309" x="0" y="0" xlink:href="#len09" class="hide"/>
    <use transform="translate(-5,0)" id="b0310" x="0" y="0" xlink:href="#len10" class="hide"/>
    <use transform="translate(10,0)" id="b0311" x="0" y="0" xlink:href="#len11" class="hide"/>
    <use transform="translate(15,0)" id="b0312" x="0" y="0" xlink:href="#len12" class="hide"/>
    <use transform="translate(-10,0)" id="b0313" x="0" y="0" xlink:href="#len13" class="hide"/>
    <use transform="translate(-10,0)" id="b0314" x="0" y="0" xlink:href="#len14" class="hide"/>
    <use transform="translate(-5,0)" id="b0315" x="0" y="0" xlink:href="#len15" class="hide"/>
    <use transform="translate(5,0)" id="b0316" x="0" y="0" xlink:href="#len16" class="hide"/>
    <use transform="translate(0,0)" id="b0317" x="0" y="0" xlink:href="#len17" class="hide"/>
</g>
<g transform="translate(110,230)">
    <use x="0" y="0" xlink:href="#border" class="r4"/>
    <use transform="translate(10,0)" id="b0401" x="0" y="0" xlink:href="#len01" class="hide"/>
    <use transform="translate(0,0)" id="b0402" x="0" y="0" xlink:href="#len02" class="hide"/>
    <use transform="translate(-10,0)" id="b0403" x="0" y="0" xlink:href="#len03" class="hide"/>
    <use transform="translate(20,0)" id="b0404" x="0" y="0" xlink:href="#len04" class="hide"/>
    <use transform="translate(-30,0)" id="b0405" x="0" y="0" xlink:href="#len05" class="hide"/>
    <use transform="translate(25,0)" id="b0406" x="0" y="0" xlink:href="#len06" class="hide"/>
    <use transform="translate(-15,0)" id="b0407" x="0" y="0" xlink:href="#len07" class="hide"/>
    <use transform="translate(-10,0)" id="b0408" x="0" y="0" xlink:href="#len08" class="hide"/>
    <use transform="translate(-5,0)" id="b0409" x="0" y="0" xlink:href="#len09" class="hide"/>
    <use transform="translate(10,0)" id="b0410" x="0" y="0" xlink:href="#len10" class="hide"/>
    <use transform="translate(15,0)" id="b0411" x="0" y="0" xlink:href="#len11" class="hide"/>
    <use transform="translate(-5,0)" id="b0412" x="0" y="0" xlink:href="#len12" class="hide"/>
    <use transform="translate(5,0)" id="b0413" x="0" y="0" xlink:href="#len13" class="hide"/>
    <use transform="translate(10,0)" id="b0414" x="0" y="0" xlink:href="#len14" class="hide"/>
    <use transform="translate(-10,0)" id="b0415" x="0" y="0" xlink:href="#len15" class="hide"/>
    <use transform="translate(5,0)" id="b0416" x="0" y="0" xlink:href="#len16" class="hide"/>
    <use transform="translate(0,0)" id="b0417" x="0" y="0" xlink:href="#len17" class="hide"/>
</g>
<g transform="translate(320,230)">
    <use x="0" y="0" xlink:href="#border" class="r4"/>
    <use transform="translate(25,0)" id="b0501" x="0" y="0" xlink:href="#len01" class="hide"/>
    <use transform="translate(30,0)" id="b0502" x="0" y="0" xlink:href="#len02" class="hide"/>
    <use transform="translate(-25,0)" id="b0503" x="0" y="0" xlink:href="#len03" class="hide"/>
    <use transform="translate(-20,0)" id="b0504" x="0" y="0" xlink:href="#len04" class="hide"/>
    <use transform="translate(5,0)" id="b0505" x="0" y="0" xlink:href="#len05" class="hide"/>
    <use transform="translate(-15,0)" id="b0506" x="0" y="0" xlink:href="#len06" class="hide"/>
    <use transform="translate(5,0)" id="b0507" x="0" y="0" xlink:href="#len07" class="hide"/>
    <use transform="translate(-10,0)" id="b0508" x="0" y="0" xlink:href="#len08" class="hide"/>
    <use transform="translate(10,0)" id="b0509" x="0" y="0" xlink:href="#len09" class="hide"/>
    <use transform="translate(5,0)" id="b0510" x="0" y="0" xlink:href="#len10" class="hide"/>
    <use transform="translate(-5,0)" id="b0511" x="0" y="0" xlink:href="#len11" class="hide"/>
    <use transform="translate(10,0)" id="b0512" x="0" y="0" xlink:href="#len12" class="hide"/>
    <use transform="translate(15,0)" id="b0513" x="0" y="0" xlink:href="#len13" class="hide"/>
    <use transform="translate(-10,0)" id="b0514" x="0" y="0" xlink:href="#len14" class="hide"/>
    <use transform="translate(5,0)" id="b0515" x="0" y="0" xlink:href="#len15" class="hide"/>
    <use transform="translate(0,0)" id="b0516" x="0" y="0" xlink:href="#len16" class="hide"/>
    <use transform="translate(0,0)" id="b0517" x="0" y="0" xlink:href="#len17" class="hide"/>
</g>
<g transform="translate(530,230)">
    <use x="0" y="0" xlink:href="#border" class="r4 r6"/>
    <use transform="translate(45,0)" id="b0601" x="0" y="0" xlink:href="#len01" class="hide"/>
    <use transform="translate(-35,0)" id="b0602" x="0" y="0" xlink:href="#len02" class="hide"/>
    <use transform="translate(20,0)" id="b0603" x="0" y="0" xlink:href="#len03" class="hide"/>
    <use transform="translate(25,0)" id="b0604" x="0" y="0" xlink:href="#len04" class="hide"/>
    <use transform="translate(-15,0)" id="b0605" x="0" y="0" xlink:href="#len05" class="hide"/>
    <use transform="translate(10,0)" id="b0606" x="0" y="0" xlink:href="#len06" class="hide"/>
    <use transform="translate(-5,0)" id="b0607" x="0" y="0" xlink:href="#len07" class="hide"/>
    <use transform="translate(0,0)" id="b0608" x="0" y="0" xlink:href="#len08" class="hide"/>
    <use transform="translate(5,0)" id="b0609" x="0" y="0" xlink:href="#len09" class="hide"/>
    <use transform="translate(10,0)" id="b0610" x="0" y="0" xlink:href="#len10" class="hide"/>
    <use transform="translate(20,0)" id="b0611" x="0" y="0" xlink:href="#len11" class="hide"/>
    <use transform="translate(-15,0)" id="b0612" x="0" y="0" xlink:href="#len12" class="hide"/>
    <use transform="translate(10,0)" id="b0613" x="0" y="0" xlink:href="#len13" class="hide"/>
    <use transform="translate(-5,0)" id="b0614" x="0" y="0" xlink:href="#len14" class="hide"/>
    <use transform="translate(0,0)" id="b0615" x="0" y="0" xlink:href="#len15" class="hide"/>
    <use transform="translate(5,0)" id="b0616" x="0" y="0" xlink:href="#len16" class="hide"/>
    <use transform="translate(0,0)" id="b0617" x="0" y="0" xlink:href="#len17" class="hide"/>
</g>
<g transform="translate(110,310)">
    <use x="0" y="0" xlink:href="#border"/>
    <use transform="translate(15,0)" id="b0701" x="0" y="0" xlink:href="#len01" class="hide"/>
    <use transform="translate(20,0)" id="b0702" x="0" y="0" xlink:href="#len02" class="hide"/>
    <use transform="translate(-10,0)" id="b0703" x="0" y="0" xlink:href="#len03" class="hide"/>
    <use transform="translate(-5,0)" id="b0704" x="0" y="0" xlink:href="#len04" class="hide"/>
    <use transform="translate(10,0)" id="b0705" x="0" y="0" xlink:href="#len05" class="hide"/>
    <use transform="translate(5,0)" id="b0706" x="0" y="0" xlink:href="#len06" class="hide"/>
    <use transform="translate(15,0)" id="b0707" x="0" y="0" xlink:href="#len07" class="hide"/>
    <use transform="translate(20,0)" id="b0708" x="0" y="0" xlink:href="#len08" class="hide"/>
    <use transform="translate(-25,0)" id="b0709" x="0" y="0" xlink:href="#len09" class="hide"/>
    <use transform="translate(-10,0)" id="b0710" x="0" y="0" xlink:href="#len10" class="hide"/>
    <use transform="translate(-15,0)" id="b0711" x="0" y="0" xlink:href="#len11" class="hide"/>
    <use transform="translate(-10,0)" id="b0712" x="0" y="0" xlink:href="#len12" class="hide"/>
    <use transform="translate(5,0)" id="b0713" x="0" y="0" xlink:href="#len13" class="hide"/>
    <use transform="translate(-10,0)" id="b0714" x="0" y="0" xlink:href="#len14" class="hide"/>
    <use transform="translate(5,0)" id="b0715" x="0" y="0" xlink:href="#len15" class="hide"/>
    <use transform="translate(-5,0)" id="b0716" x="0" y="0" xlink:href="#len16" class="hide"/>
    <use transform="translate(0,0)" id="b0717" x="0" y="0" xlink:href="#len17" class="hide"/>
</g>
<g transform="translate(320,310)">
    <use x="0" y="0" xlink:href="#border"/>
    <use transform="translate(25,0)" id="b0801" x="0" y="0" xlink:href="#len01" class="hide"/>
    <use transform="translate(-25,0)" id="b0802" x="0" y="0" xlink:href="#len02" class="hide"/>
    <use transform="translate(30,0)" id="b0803" x="0" y="0" xlink:href="#len03" class="hide"/>
    <use transform="translate(15,0)" id="b0804" x="0" y="0" xlink:href="#len04" class="hide"/>
    <use transform="translate(-15,0)" id="b0805" x="0" y="0" xlink:href="#len05" class="hide"/>
    <use transform="translate(10,0)" id="b0806" x="0" y="0" xlink:href="#len06" class="hide"/>
    <use transform="translate(-5,0)" id="b0807" x="0" y="0" xlink:href="#len07" class="hide"/>
    <use transform="translate(0,0)" id="b0808" x="0" y="0" xlink:href="#len08" class="hide"/>
    <use transform="translate(5,0)" id="b0809" x="0" y="0" xlink:href="#len09" class="hide"/>
    <use transform="translate(10,0)" id="b0810" x="0" y="0" xlink:href="#len10" class="hide"/>
    <use transform="translate(15,0)" id="b0811" x="0" y="0" xlink:href="#len11" class="hide"/>
    <use transform="translate(-15,0)" id="b0812" x="0" y="0" xlink:href="#len12" class="hide"/>
    <use transform="translate(-10,0)" id="b0813" x="0" y="0" xlink:href="#len13" class="hide"/>
    <use transform="translate(-5,0)" id="b0814" x="0" y="0" xlink:href="#len14" class="hide"/>
    <use transform="translate(5,0)" id="b0815" x="0" y="0" xlink:href="#len15" class="hide"/>
    <use transform="translate(5,0)" id="b0816" x="0" y="0" xlink:href="#len16" class="hide"/>
    <use transform="translate(0,0)" id="b0817" x="0" y="0" xlink:href="#len17" class="hide"/>
</g>
<g transform="translate(530,310)">
    <use x="0" y="0" xlink:href="#border" class="r4 r6"/>
    <use transform="translate(-35,0)" id="b0901" x="0" y="0" xlink:href="#len01" class="hide"/>
    <use transform="translate(35,0)" id="b0902" x="0" y="0" xlink:href="#len02" class="hide"/>
    <use transform="translate(30,0)" id="b0903" x="0" y="0" xlink:href="#len03" class="hide"/>
    <use transform="translate(-25,0)" id="b0904" x="0" y="0" xlink:href="#len04" class="hide"/>
    <use transform="translate(-20,0)" id="b0905" x="0" y="0" xlink:href="#len05" class="hide"/>
    <use transform="translate(-15,0)" id="b0906" x="0" y="0" xlink:href="#len06" class="hide"/>
    <use transform="translate(25,0)" id="b0907" x="0" y="0" xlink:href="#len07" class="hide"/>
    <use transform="translate(-20,0)" id="b0908" x="0" y="0" xlink:href="#len08" class="hide"/>
    <use transform="translate(15,0)" id="b0909" x="0" y="0" xlink:href="#len09" class="hide"/>
    <use transform="translate(10,0)" id="b0910" x="0" y="0" xlink:href="#len10" class="hide"/>
    <use transform="translate(5,0)" id="b0911" x="0" y="0" xlink:href="#len11" class="hide"/>
    <use transform="translate(0,0)" id="b0912" x="0" y="0" xlink:href="#len12" class="hide"/>
    <use transform="translate(5,0)" id="b0913" x="0" y="0" xlink:href="#len13" class="hide"/>
    <use transform="translate(0,0)" id="b0914" x="0" y="0" xlink:href="#len14" class="hide"/>
    <use transform="translate(10,0)" id="b0915" x="0" y="0" xlink:href="#len15" class="hide"/>
    <use transform="translate(-5,0)" id="b0916" x="0" y="0" xlink:href="#len16" class="hide"/>
    <use transform="translate(0,0)" id="b0917" x="0" y="0" xlink:href="#len17" class="hide"/>
</g>
<g transform="translate(110,390)">
    <use x="0" y="0" xlink:href="#border" class="r4 r6"/>
    <use transform="translate(-45,0)" id="b1001" x="0" y="0" xlink:href="#len01" class="hide"/>
    <use transform="translate(20,0)" id="b1002" x="0" y="0" xlink:href="#len02" class="hide"/>
    <use transform="translate(25,0)" id="b1003" x="0" y="0" xlink:href="#len03" class="hide"/>
    <use transform="translate(-25,0)" id="b1004" x="0" y="0" xlink:href="#len04" class="hide"/>
    <use transform="translate(0,0)" id="b1005" x="0" y="0" xlink:href="#len05" class="hide"/>
    <use transform="translate(5,0)" id="b1006" x="0" y="0" xlink:href="#len06" class="hide"/>
    <use transform="translate(15,0)" id="b1007" x="0" y="0" xlink:href="#len07" class="hide"/>
    <use transform="translate(-15,0)" id="b1008" x="0" y="0" xlink:href="#len08" class="hide"/>
    <use transform="translate(-5,0)" id="b1009" x="0" y="0" xlink:href="#len09" class="hide"/>
    <use transform="translate(-20,0)" id="b1010" x="0" y="0" xlink:href="#len10" class="hide"/>
    <use transform="translate(-10,0)" id="b1011" x="0" y="0" xlink:href="#len11" class="hide"/>
    <use transform="translate(5,0)" id="b1012" x="0" y="0" xlink:href="#len12" class="hide"/>
    <use transform="translate(15,0)" id="b1013" x="0" y="0" xlink:href="#len13" class="hide"/>
    <use transform="translate(10,0)" id="b1014" x="0" y="0" xlink:href="#len14" class="hide"/>
    <use transform="translate(-5,0)" id="b1015" x="0" y="0" xlink:href="#len15" class="hide"/>
    <use transform="translate(-5,0)" id="b1016" x="0" y="0" xlink:href="#len16" class="hide"/>
    <use transform="translate(0,0)" id="b1017" x="0" y="0" xlink:href="#len17" class="hide"/>
</g>
<g transform="translate(320,390)">
    <use x="0" y="0" xlink:href="#border" class="r4 r6"/>
    <use transform="translate(40,0)" id="b1101" x="0" y="0" xlink:href="#len01" class="hide"/>
    <use transform="translate(-35,0)" id="b1102" x="0" y="0" xlink:href="#len02" class="hide"/>
    <use transform="translate(30,0)" id="b1103" x="0" y="0" xlink:href="#len03" class="hide"/>
    <use transform="translate(-25,0)" id="b1104" x="0" y="0" xlink:href="#len04" class="hide"/>
    <use transform="translate(-20,0)" id="b1105" x="0" y="0" xlink:href="#len05" class="hide"/>
    <use transform="translate(15,0)" id="b1106" x="0" y="0" xlink:href="#len06" class="hide"/>
    <use transform="translate(-10,0)" id="b1107" x="0" y="0" xlink:href="#len07" class="hide"/>
    <use transform="translate(-25,0)" id="b1108" x="0" y="0" xlink:href="#len08" class="hide"/>
    <use transform="translate(-5,0)" id="b1109" x="0" y="0" xlink:href="#len09" class="hide"/>
    <use transform="translate(5,0)" id="b1110" x="0" y="0" xlink:href="#len10" class="hide"/>
    <use transform="translate(0,0)" id="b1111" x="0" y="0" xlink:href="#len11" class="hide"/>
    <use transform="translate(10,0)" id="b1112" x="0" y="0" xlink:href="#len12" class="hide"/>
    <use transform="translate(5,0)" id="b1113" x="0" y="0" xlink:href="#len13" class="hide"/>
    <use transform="translate(-5,0)" id="b1114" x="0" y="0" xlink:href="#len14" class="hide"/>
    <use transform="translate(0,0)" id="b1115" x="0" y="0" xlink:href="#len15" class="hide"/>
    <use transform="translate(5,0)" id="b1116" x="0" y="0" xlink:href="#len16" class="hide"/>
    <use transform="translate(0,0)" id="b1117" x="0" y="0" xlink:href="#len17" class="hide"/>
</g>
<g transform="translate(530,390)">
    <use x="0" y="0" xlink:href="#border" class="r4 r6"/>
    <use transform="translate(-35,0)" id="b1201" x="0" y="0" xlink:href="#len01" class="hide"/>
    <use transform="translate(35,0)" id="b1202" x="0" y="0" xlink:href="#len02" class="hide"/>
    <use transform="translate(25,0)" id="b1203" x="0" y="0" xlink:href="#len03" class="hide"/>
    <use transform="translate(-5,0)" id="b1204" x="0" y="0" xlink:href="#len04" class="hide"/>
    <use transform="translate(10,0)" id="b1205" x="0" y="0" xlink:href="#len05" class="hide"/>
    <use transform="translate(-10,0)" id="b1206" x="0" y="0" xlink:href="#len06" class="hide"/>
    <use transform="translate(-15,0)" id="b1207" x="0" y="0" xlink:href="#len07" class="hide"/>
    <use transform="translate(20,0)" id="b1208" x="0" y="0" xlink:href="#len08" class="hide"/>
    <use transform="translate(25,0)" id="b1209" x="0" y="0" xlink:href="#len09" class="hide"/>
    <use transform="translate(-15,0)" id="b1210" x="0" y="0" xlink:href="#len10" class="hide"/>
    <use transform="translate(-25,0)" id="b1211" x="0" y="0" xlink:href="#len11" class="hide"/>
    <use transform="translate(-5,0)" id="b1212" x="0" y="0" xlink:href="#len12" class="hide"/>
    <use transform="translate(-5,0)" id="b1213" x="0" y="0" xlink:href="#len13" class="hide"/>
    <use transform="translate(0,0)" id="b1214" x="0" y="0" xlink:href="#len14" class="hide"/>
    <use transform="translate(5,0)" id="b1215" x="0" y="0" xlink:href="#len15" class="hide"/>
    <use transform="translate(5,0)" id="b1216" x="0" y="0" xlink:href="#len16" class="hide"/>
    <use transform="translate(0,0)" id="b1217" x="0" y="0" xlink:href="#len17" class="hide"/>
</g>


<g id="pieces">
    <g id="ruler" transform="translate(185,100)"><g class="scale"><g class="rot">
        <rect x="-160" y="-25" width="320" height="50" class="r1"/>
        <rect x="-160" y="-25" width="320" height="20" class="r2"/>
        <path d="M -150,-25 L -150,-5" class="r3"/>
        <g>
            <path d="M -140,-25 L -140,-15" class="r4"/>
            <path d="M -130,-25 L -130,-15" class="r4"/>
            <path d="M -120,-25 L -120,-15" class="r4"/>
            <path d="M -110,-25 L -110,-15" class="r4"/>
            <path d="M -100,-25 L -100,-15" class="r3"/>
            <path d="M -90,-25 L -90,-15" class="r4"/>
            <path d="M -80,-25 L -80,-15" class="r4"/>
            <path d="M -70,-25 L -70,-15" class="r4"/>
            <path d="M -60,-25 L -60,-15" class="r4"/>
            <path d="M -50,-25 L -50,-5" class="r3"/>
        </g>
        <g transform="translate(100,0)">
            <path d="M -140,-25 L -140,-15" class="r4"/>
            <path d="M -130,-25 L -130,-15" class="r4"/>
            <path d="M -120,-25 L -120,-15" class="r4"/>
            <path d="M -110,-25 L -110,-15" class="r4"/>
            <path d="M -100,-25 L -100,-15" class="r3"/>
            <path d="M -90,-25 L -90,-15" class="r4"/>
            <path d="M -80,-25 L -80,-15" class="r4"/>
            <path d="M -70,-25 L -70,-15" class="r4"/>
            <path d="M -60,-25 L -60,-15" class="r4"/>
            <path d="M -50,-25 L -50,-5" class="r3"/>
        </g>
        <g transform="translate(200,0)">
            <path d="M -140,-25 L -140,-15" class="r4"/>
            <path d="M -130,-25 L -130,-15" class="r4"/>
            <path d="M -120,-25 L -120,-15" class="r4"/>
            <path d="M -110,-25 L -110,-15" class="r4"/>
            <path d="M -100,-25 L -100,-15" class="r3"/>
            <path d="M -90,-25 L -90,-15" class="r4"/>
            <path d="M -80,-25 L -80,-15" class="r4"/>
            <path d="M -70,-25 L -70,-15" class="r4"/>
            <path d="M -60,-25 L -60,-15" class="r4"/>
            <path d="M -50,-25 L -50,-5" class="r3"/>
        </g>
        
        <g transform="translate(-150,-5)"><text y="14">0</text></g>
        <g transform="translate(-50,-5)"><text y="14">10</text></g>
        <g transform="translate(50,-5)"><text y="14">20</text></g>
        <g transform="translate(150,-5)"><text y="14">30</text></g>
        <rect x="-160" y="-25" width="320" height="50" class="r5"/>
    </g></g></g>

    <g id="ref" transform="translate(185,100)"><g class="scale"><g class="rot">
        <rect x="-100" y="-25" width="200" height="50" ry="20" style="fill:white;fill-opacity:0.4;stroke:white;stroke-width:2;opacity:0.5"/>
        <rect id="ref01" x="-5" y="-5" width="10" height="10" class="hide"/>
        <rect id="ref02" x="-10" y="-10" width="20" height="10" class="hide"/>
        <rect id="ref03" x="-15" y="-5" width="30" height="10" class="hide"/>
        <rect id="ref04" x="-20" y="-10" width="40" height="10" class="hide"/>
        <rect id="ref05" x="-25" y="-5" width="50" height="10" class="hide"/>
        <rect id="ref06" x="-30" y="-10" width="60" height="10" class="hide"/>
        <rect id="ref07" x="-35" y="-5" width="70" height="10" class="hide"/>
        <rect id="ref08" x="-40" y="-10" width="80" height="10" class="hide"/>
        <rect id="ref09" x="-45" y="-5" width="90" height="10" class="hide"/>
        <rect id="ref10" x="-50" y="-10" width="100" height="10" class="hide"/>
        <rect id="ref11" x="-55" y="-5" width="110" height="10" class="hide"/>
        <rect id="ref12" x="-60" y="-10" width="120" height="10" class="hide"/>
        <rect id="ref13" x="-65" y="-5" width="130" height="10" class="hide"/>
        <rect id="ref14" x="-70" y="-10" width="140" height="10" class="hide"/>
        <rect id="ref15" x="-75" y="-5" width="150" height="10" class="hide"/>
        <rect id="ref16" x="-80" y="-10" width="160" height="10" class="hide"/>
        <rect id="ref17" x="-85" y="-5" width="170" height="10" class="hide"/>
    </g></g></g>
    
    <g id="pp01" transform="translate(185,121)"><g class="scale"><g class="rot">
        <circle transform="translate(-2,4)" cx="0" cy="0" r="20" class="shadow"/>
        <use x="0" y="0" xlink:href="#tp"/>
        <circle cx="0" cy="0" r="21" class="result"/>
        <text y="8"></text>
    </g></g></g>
    <g id="pp02" transform="translate(395,121)"><g class="scale"><g class="rot">
        <circle transform="translate(-2,4)" cx="0" cy="0" r="20" class="shadow"/>
        <use x="0" y="0" xlink:href="#tp"/>
        <circle cx="0" cy="0" r="21" class="result"/>
        <text y="8"></text>
    </g></g></g>
    <g id="pp03" transform="translate(605,121)"><g class="scale"><g class="rot">
        <circle transform="translate(-2,4)" cx="0" cy="0" r="20" class="shadow"/>
        <use x="0" y="0" xlink:href="#tp"/>
        <circle cx="0" cy="0" r="21" class="result"/>
        <text y="8"></text>
    </g></g></g>

    <g id="pp04" transform="translate(185,201)"><g class="scale"><g class="rot">
        <circle transform="translate(-2,4)" cx="0" cy="0" r="20" class="shadow"/>
        <use x="0" y="0" xlink:href="#tp"/>
        <circle cx="0" cy="0" r="21" class="result"/>
        <text y="8"></text>
    </g></g></g>
    <g id="pp05" transform="translate(395,201)"><g class="scale"><g class="rot">
        <circle transform="translate(-2,4)" cx="0" cy="0" r="20" class="shadow"/>
        <use x="0" y="0" xlink:href="#tp"/>
        <circle cx="0" cy="0" r="21" class="result"/>
        <text y="8"></text>
    </g></g></g>
    <g id="pp06" transform="translate(605,201)"><g class="scale"><g class="rot">
        <circle transform="translate(-2,4)" cx="0" cy="0" r="20" class="shadow"/>
        <use x="0" y="0" xlink:href="#tp"/>
        <circle cx="0" cy="0" r="21" class="result"/>
        <text y="8"></text>
    </g></g></g>

    <g id="pp07" transform="translate(185,281)"><g class="scale"><g class="rot">
        <circle transform="translate(-2,4)" cx="0" cy="0" r="20" class="shadow"/>
        <use x="0" y="0" xlink:href="#tp"/>
        <circle cx="0" cy="0" r="21" class="result"/>
        <text y="8"></text>
    </g></g></g>
    <g id="pp08" transform="translate(395,281)"><g class="scale"><g class="rot">
        <circle transform="translate(-2,4)" cx="0" cy="0" r="20" class="shadow"/>
        <use x="0" y="0" xlink:href="#tp"/>
        <circle cx="0" cy="0" r="21" class="result"/>
        <text y="8"></text>
    </g></g></g>
    <g id="pp09" transform="translate(605,281)"><g class="scale"><g class="rot">
        <circle transform="translate(-2,4)" cx="0" cy="0" r="20" class="shadow"/>
        <use x="0" y="0" xlink:href="#tp"/>
        <circle cx="0" cy="0" r="21" class="result"/>
        <text y="8"></text>
    </g></g></g>

    <g id="pp10" transform="translate(185,361)"><g class="scale"><g class="rot">
        <circle transform="translate(-2,4)" cx="0" cy="0" r="20" class="shadow"/>
        <use x="0" y="0" xlink:href="#tp"/>
        <circle cx="0" cy="0" r="21" class="result"/>
        <text y="8"></text>
    </g></g></g>
    <g id="pp11" transform="translate(395,361)"><g class="scale"><g class="rot">
        <circle transform="translate(-2,4)" cx="0" cy="0" r="20" class="shadow"/>
        <use x="0" y="0" xlink:href="#tp"/>
        <circle cx="0" cy="0" r="21" class="result"/>
        <text y="8"></text>
    </g></g></g>
    <g id="pp12" transform="translate(605,361)"><g class="scale"><g class="rot">
        <circle transform="translate(-2,4)" cx="0" cy="0" r="20" class="shadow"/>
        <use x="0" y="0" xlink:href="#tp"/>
        <circle cx="0" cy="0" r="21" class="result"/>
        <text y="8"></text>
    </g></g></g>


</g>







</svg>
