<?xml version="1.0" encoding="UTF-8" standalone="no"?>

<svg xmlns:svg="http://www.w3.org/2000/svg" xmlns="http://www.w3.org/2000/svg" xmlns:xlink="http://www.w3.org/1999/xlink" version="1.0" width="100%" height="100%" viewBox="0 0 640 480" id="table5x5">
<defs>
 <style type="text/css">
    svg#table5x5 text                   { font-size:40px;text-anchor:middle; }
    svg#table5x5 .shadow                { fill:black; fill-opacity:0.5; display:none; }
    svg#table5x5 .drag .shadow          { display:inline; }
	svg#table5x5 .tab					{ fill:gray; }
	svg#table5x5 .cell					{ fill:white; }
 </style>
</defs>

<g id="bg">
	<rect x="24" y="44" width="302" height="302" style="fill:none;stroke:white;stroke-width:20"/>
	<rect x="24" y="44" width="302" height="302"/>
	
    <g transform="translate(50,70)">
        <rect x="-24" y="-24" height="48" width="48" class="tab"/>
        <text y="8" id="t0"></text>
        <image id="i0" transform="translate(-24,-24)" xlink:href="" width="48" height="48" x="0" y="0"/>
    </g>
	
    <g transform="translate(100,70)">
        <rect x="-24" y="-24" height="48" width="48" class="tab"/>
        <text y="12" id="ta"></text>
        <image id="ia" transform="translate(-24,-24)" xlink:href="" width="48" height="48" x="0" y="0"/>
    </g>
    <g transform="translate(150,70)">
        <rect x="-24" y="-24" height="48" width="48" class="tab"/>
        <text y="12" id="tb"></text>
        <image id="ib" transform="translate(-24,-24)" xlink:href="" width="48" height="48" x="0" y="0"/>
    </g>
    <g transform="translate(200,70)">
        <rect x="-24" y="-24" height="48" width="48" class="tab"/>
        <text y="12" id="tc"></text>
        <image id="ic" transform="translate(-24,-24)" xlink:href="" width="48" height="48" x="0" y="0"/>
    </g>
    <g transform="translate(250,70)">
        <rect x="-24" y="-24" height="48" width="48" class="tab"/>
        <text y="12" id="td"></text>
        <image id="id" transform="translate(-24,-24)" xlink:href="" width="48" height="48" x="0" y="0"/>
    </g>
    <g transform="translate(300,70)">
        <rect x="-24" y="-24" height="48" width="48" class="tab"/>
        <text y="12" id="te"></text>
        <image id="ie" transform="translate(-24,-24)" xlink:href="" width="48" height="48" x="0" y="0"/>
    </g>
    
    <g transform="translate(50,120)">
        <rect x="-24" y="-24" height="48" width="48" class="tab"/>
        <text y="12" id="t1"></text>
        <image id="i1" transform="translate(-24,-24)" xlink:href="" width="48" height="48" x="0" y="0"/>
    </g>
    <g transform="translate(50,170)">
        <rect x="-24" y="-24" height="48" width="48" class="tab"/>
        <text y="12" id="t2"></text>
        <image id="i2" transform="translate(-24,-24)" xlink:href="" width="48" height="48" x="0" y="0"/>
    </g>
    <g transform="translate(50,220)">
        <rect x="-24" y="-24" height="48" width="48" class="tab"/>
        <text y="12" id="t3"></text>
        <image id="i3" transform="translate(-24,-24)" xlink:href="" width="48" height="48" x="0" y="0"/>
    </g>
    <g transform="translate(50,270)">
        <rect x="-24" y="-24" height="48" width="48" class="tab"/>
        <text y="12" id="t4"></text>
        <image id="i4" transform="translate(-24,-24)" xlink:href="" width="48" height="48" x="0" y="0"/>
    </g>
    <g transform="translate(50,320)">
        <rect x="-24" y="-24" height="48" width="48" class="tab"/>
        <text y="12" id="t5"></text>
        <image id="i5" transform="translate(-24,-24)" xlink:href="" width="48" height="48" x="0" y="0"/>
    </g>
	
	
	
    <g transform="translate(100,120)">
        <rect x="-24" y="-24" height="48" width="48" class="cell"/>
        <text y="12" id="ta1"></text>
        <image id="ia1" transform="translate(-24,-24)" xlink:href="" width="48" height="48" x="0" y="0"/>
    </g>
    <g transform="translate(100,170)">
        <rect x="-24" y="-24" height="48" width="48" class="cell"/>
        <text y="12" id="ta2"></text>
        <image id="ia2" transform="translate(-24,-24)" xlink:href="" width="48" height="48" x="0" y="0"/>
    </g>
    <g transform="translate(100,220)">
        <rect x="-24" y="-24" height="48" width="48" class="cell"/>
        <text y="12" id="ta3"></text>
        <image id="ia3" transform="translate(-24,-24)" xlink:href="" width="48" height="48" x="0" y="0"/>
    </g>
    <g transform="translate(100,270)">
        <rect x="-24" y="-24" height="48" width="48" class="cell"/>
        <text y="12" id="ta4"></text>
        <image id="ia4" transform="translate(-24,-24)" xlink:href="" width="48" height="48" x="0" y="0"/>
    </g>
    <g transform="translate(100,320)">
        <rect x="-24" y="-24" height="48" width="48" class="cell"/>
        <text y="12" id="ta5"></text>
        <image id="ia5" transform="translate(-24,-24)" xlink:href="" width="48" height="48" x="0" y="0"/>
    </g>
    
    <g transform="translate(150,120)">
        <rect x="-24" y="-24" height="48" width="48" class="cell"/>
        <text y="12" id="tb1"></text>
        <image id="ib1" transform="translate(-24,-24)" xlink:href="" width="48" height="48" x="0" y="0"/>
    </g>
    <g transform="translate(150,170)">
        <rect x="-24" y="-24" height="48" width="48" class="cell"/>
        <text y="12" id="tb2"></text>
        <image id="ib2" transform="translate(-24,-24)" xlink:href="" width="48" height="48" x="0" y="0"/>
    </g>
    <g transform="translate(150,220)">
        <rect x="-24" y="-24" height="48" width="48" class="cell"/>
        <text y="12" id="tb3"></text>
        <image id="ib3" transform="translate(-24,-24)" xlink:href="" width="48" height="48" x="0" y="0"/>
    </g>
    <g transform="translate(150,270)">
        <rect x="-24" y="-24" height="48" width="48" class="cell"/>
        <text y="12" id="tb4"></text>
        <image id="ib4" transform="translate(-24,-24)" xlink:href="" width="48" height="48" x="0" y="0"/>
    </g>
    <g transform="translate(150,320)">
        <rect x="-24" y="-24" height="48" width="48" class="cell"/>
        <text y="12" id="tb5"></text>
        <image id="ib5" transform="translate(-24,-24)" xlink:href="" width="48" height="48" x="0" y="0"/>
    </g>
	
    <g transform="translate(200,120)">
        <rect x="-24" y="-24" height="48" width="48" class="cell"/>
        <text y="12" id="tc1"></text>
        <image id="ic1" transform="translate(-24,-24)" xlink:href="" width="48" height="48" x="0" y="0"/>
    </g>
    <g transform="translate(200,170)">
        <rect x="-24" y="-24" height="48" width="48" class="cell"/>
        <text y="12" id="tc2"></text>
        <image id="ic2" transform="translate(-24,-24)" xlink:href="" width="48" height="48" x="0" y="0"/>
    </g>
    <g transform="translate(200,220)">
        <rect x="-24" y="-24" height="48" width="48" class="cell"/>
        <text y="12" id="tc3"></text>
        <image id="ic3" transform="translate(-24,-24)" xlink:href="" width="48" height="48" x="0" y="0"/>
    </g>
    <g transform="translate(200,270)">
        <rect x="-24" y="-24" height="48" width="48" class="cell"/>
        <text y="12" id="tc4"></text>
        <image id="ic4" transform="translate(-24,-24)" xlink:href="" width="48" height="48" x="0" y="0"/>
    </g>
    <g transform="translate(200,320)">
        <rect x="-24" y="-24" height="48" width="48" class="cell"/>
        <text y="12" id="tc5"></text>
        <image id="ic5" transform="translate(-24,-24)" xlink:href="" width="48" height="48" x="0" y="0"/>
    </g>
	
    <g transform="translate(250,120)">
        <rect x="-24" y="-24" height="48" width="48" class="cell"/>
        <text y="12" id="td1"></text>
        <image id="id1" transform="translate(-24,-24)" xlink:href="" width="48" height="48" x="0" y="0"/>
    </g>
    <g transform="translate(250,170)">
        <rect x="-24" y="-24" height="48" width="48" class="cell"/>
        <text y="12" id="td2"></text>
        <image id="id2" transform="translate(-24,-24)" xlink:href="" width="48" height="48" x="0" y="0"/>
    </g>
    <g transform="translate(250,220)">
        <rect x="-24" y="-24" height="48" width="48" class="cell"/>
        <text y="12" id="td3"></text>
        <image id="id3" transform="translate(-24,-24)" xlink:href="" width="48" height="48" x="0" y="0"/>
    </g>
    <g transform="translate(250,270)">
        <rect x="-24" y="-24" height="48" width="48" class="cell"/>
        <text y="12" id="td4"></text>
        <image id="id4" transform="translate(-24,-24)" xlink:href="" width="48" height="48" x="0" y="0"/>
    </g>
    <g transform="translate(250,320)">
        <rect x="-24" y="-24" height="48" width="48" class="cell"/>
        <text y="12" id="td5"></text>
        <image id="id5" transform="translate(-24,-24)" xlink:href="" width="48" height="48" x="0" y="0"/>
    </g>
	
    <g transform="translate(300,120)">
        <rect x="-24" y="-24" height="48" width="48" class="cell"/>
        <text y="12" id="te1"></text>
        <image id="ie1" transform="translate(-24,-24)" xlink:href="" width="48" height="48" x="0" y="0"/>
    </g>
    <g transform="translate(300,170)">
        <rect x="-24" y="-24" height="48" width="48" class="cell"/>
        <text y="12" id="te2"></text>
        <image id="ie2" transform="translate(-24,-24)" xlink:href="" width="48" height="48" x="0" y="0"/>
    </g>
    <g transform="translate(300,220)">
        <rect x="-24" y="-24" height="48" width="48" class="cell"/>
        <text y="12" id="te3"></text>
        <image id="ie3" transform="translate(-24,-24)" xlink:href="" width="48" height="48" x="0" y="0"/>
    </g>
    <g transform="translate(300,270)">
        <rect x="-24" y="-24" height="48" width="48" class="cell"/>
        <text y="12" id="te4"></text>
        <image id="ie4" transform="translate(-24,-24)" xlink:href="" width="48" height="48" x="0" y="0"/>
    </g>
    <g transform="translate(300,320)">
        <rect x="-24" y="-24" height="48" width="48" class="cell"/>
        <text y="12" id="te5"></text>
        <image id="ie5" transform="translate(-24,-24)" xlink:href="" width="48" height="48" x="0" y="0"/>
    </g>
	
	
</g>

<g id="pieces">

    <g id="pa1" transform="translate(50,70)"><g class="scale">
        <rect transform="translate(10,8)" x="-24" y="-24" height="48" width="48" class="shadow"/><g class="rot">
        <rect x="-24" y="-24" height="48" width="48" class="piece"/>
        <text y="8" id="pta1"></text>
        <image transform="translate(-24,-24)" xlink:href="" width="48" height="48" x="0" y="0" id="pia1"/>
    </g></g></g>

</g>







</svg>
