<?xml version="1.0" encoding="UTF-8" standalone="no"?>
<!-- Created with Inkscape (http://www.inkscape.org/) -->

<svg
   xmlns:dc="http://purl.org/dc/elements/1.1/"
   xmlns:cc="http://creativecommons.org/ns#"
   xmlns:rdf="http://www.w3.org/1999/02/22-rdf-syntax-ns#"
   xmlns:svg="http://www.w3.org/2000/svg"
   xmlns="http://www.w3.org/2000/svg"
   xmlns:sodipodi="http://sodipodi.sourceforge.net/DTD/sodipodi-0.dtd"
   xmlns:inkscape="http://www.inkscape.org/namespaces/inkscape"
   version="1.0"
   width="100%"
   height="100%"
   viewBox="0 0 640 480"
   id="svg2"
   inkscape:version="0.91 r13725"
   sodipodi:docname="equation.svg">
  <metadata
     id="metadata37">
    <rdf:RDF>
      <cc:Work
         rdf:about="">
        <dc:format>image/svg+xml</dc:format>
        <dc:type
           rdf:resource="http://purl.org/dc/dcmitype/StillImage" />
      </cc:Work>
    </rdf:RDF>
  </metadata>
  <sodipodi:namedview
     pagecolor="#ffffff"
     bordercolor="#666666"
     borderopacity="1"
     objecttolerance="10"
     gridtolerance="10"
     guidetolerance="10"
     inkscape:pageopacity="0"
     inkscape:pageshadow="2"
     inkscape:window-width="984"
     inkscape:window-height="650"
     id="namedview35"
     showgrid="false"
     inkscape:zoom="0.49514666"
     inkscape:cx="350.54289"
     inkscape:cy="220.63198"
     inkscape:window-x="217"
     inkscape:window-y="75"
     inkscape:window-maximized="0"
     inkscape:current-layer="svg2" />
  <defs
     id="defs4" />
  <g
     style="opacity:0.8"
     id="splashbg">
    <rect
       x="0"
       y="0"
       width="640"
       height="480"
       style="fill:black;fill-opacity:0.95;"
       id="rect5" />
    <path
       d="M 0 0 L 0 10 L 640 10 L 640 0 L 0 0 z M 0 20 L 0 30 L 640 30 L 640 20 L 0 20 z M 0 40 L 0 50 L 640 50 L 640 40 L 0 40 z M 0 60 L 0 70 L 640 70 L 640 60 L 0 60 z M 0 80 L 0 90 L 640 90 L 640 80 L 0 80 z M 0 100 L 0 110 L 640 110 L 640 100 L 0 100 z M 0 120 L 0 130 L 640 130 L 640 120 L 0 120 z M 0 140 L 0 150 L 640 150 L 640 140 L 0 140 z M 0 160 L 0 170 L 640 170 L 640 160 L 0 160 z M 0 180 L 0 190 L 640 190 L 640 180 L 0 180 z M 0 200 L 0 210 L 640 210 L 640 200 L 0 200 z M 0 220 L 0 230 L 640 230 L 640 220 L 0 220 z M 0 240 L 0 250 L 640 250 L 640 240 L 0 240 z M 0 260 L 0 270 L 640 270 L 640 260 L 0 260 z M 0 280 L 0 290 L 640 290 L 640 280 L 0 280 z M 0 300 L 0 310 L 640 310 L 640 300 L 0 300 z M 0 320 L 0 330 L 640 330 L 640 320 L 0 320 z M 0 340 L 0 350 L 640 350 L 640 340 L 0 340 z M 0 360 L 0 370 L 640 370 L 640 360 L 0 360 z M 0 380 L 0 390 L 640 390 L 640 380 L 0 380 z M 0 400 L 0 410 L 640 410 L 640 400 L 0 400 z M 0 420 L 0 430 L 640 430 L 640 420 L 0 420 z M 0 440 L 0 450 L 640 450 L 640 440 L 0 440 z M 0 460 L 0 470 L 640 470 L 640 460 L 0 460 z "
       style="fill:black;"
       id="path7" />
  </g>
  <path
     style="display:inline;overflow:visible;visibility:visible;opacity:1;fill:none;fill-opacity:1;fill-rule:evenodd;stroke:#ffffff;stroke-width:15;stroke-linecap:round;stroke-linejoin:round;stroke-miterlimit:4;stroke-dasharray:none;stroke-dashoffset:0;stroke-opacity:1;marker:none;marker-start:none;marker-mid:none;marker-end:none;enable-background:accumulate"
     d="M 97.546875 23.568359 C 90.846669 23.293448 84.938416 28.124757 83.96875 34.912109 L 78.869141 70.609375 L 66.949219 70.892578 L 66.892578 76.445312 C 68.672415 77.164388 69.955427 78.889844 70.003906 80.929688 C 70.068956 83.666568 67.899 85.942756 65.162109 86.007812 C 62.425206 86.072852 60.150986 83.902917 60.085938 81.166016 C 60.039198 79.198872 61.152137 77.463758 62.794922 76.623047 L 62.820312 70.990234 L 47.890625 71.345703 L 47.873047 77.298828 C 49.229771 78.155877 50.126995 79.679113 50.167969 81.402344 C 50.233009 84.139226 48.065025 86.413459 45.328125 86.478516 C 42.591201 86.543546 40.31703 84.37557 40.251953 81.638672 C 40.198013 79.368367 41.686386 77.418024 43.755859 76.78125 L 43.763672 71.443359 L 40.761719 71.515625 C 33.450548 71.689385 27.714895 77.731677 27.888672 85.042969 L 31.332031 229.91406 C 31.505807 237.22535 37.522708 242.98823 44.833984 242.81445 L 55.509766 242.56055 L 29.246094 354.14062 C 27.570411 361.25941 31.937867 368.35362 39.056641 370.0293 L 109.61328 386.63672 L 113.5 431.50391 C 114.13126 438.78995 120.49519 444.16445 127.78125 443.5332 L 338.07617 425.3125 C 345.3622 424.68124 350.70745 418.29195 350.07617 411.00586 L 348.75586 395.77344 L 523.89062 369.73633 C 531.12446 368.66091 536.07154 361.95653 534.99609 354.72266 L 513.68555 211.38672 C 512.61012 204.15288 505.92914 199.17651 498.69531 200.25195 L 494.79688 200.83008 L 493.89453 206.98242 C 495.35692 207.66202 496.45237 209.0526 496.70703 210.76562 C 497.10966 213.47353 495.23916 215.99781 492.53125 216.40039 C 489.82332 216.80291 487.2971 214.93254 486.89453 212.22461 C 486.56313 209.99583 487.7726 207.88002 489.7207 206.98047 L 490.52734 201.46484 L 472.22852 204.18555 L 474.01172 209.80273 C 475.59547 210.43709 476.81323 211.87565 477.08203 213.68359 C 477.48456 216.39151 475.61416 218.91577 472.90625 219.31836 C 470.19833 219.72088 467.67407 217.8505 467.27148 215.14258 C 466.95764 213.03144 468.02371 211.02052 469.79297 210.05078 L 468.0918 204.80078 L 454.16992 206.87109 L 455.63281 213.42969 C 456.58966 214.18505 457.26574 215.30167 457.45898 216.60156 C 457.8616 219.30946 455.98919 221.83376 453.28125 222.23633 C 450.57334 222.63896 448.04905 220.76651 447.64648 218.05859 C 447.27459 215.55708 448.84081 213.20141 451.2168 212.54102 L 450.08594 207.47852 L 435.71094 209.61523 C 435.38919 211.79915 435.09216 213.90512 434.87695 215.67578 C 436.40792 216.33112 437.57132 217.75082 437.83398 219.51758 C 438.2365 222.22549 436.36611 224.75172 433.6582 225.1543 C 430.95029 225.55682 428.42405 223.68447 428.02148 220.97656 C 427.69754 218.7972 428.85021 216.73603 430.72266 215.80469 C 430.74706 215.59604 430.76872 215.41358 430.79492 215.19727 C 430.97645 213.70156 431.2097 212.02142 431.46875 210.24609 L 414.44336 212.77734 L 415.13867 218.55469 C 416.7224 219.18904 417.94018 220.6276 418.20898 222.43555 C 418.6115 225.14346 416.74112 227.66774 414.0332 228.07031 C 411.32528 228.47293 408.80101 226.60245 408.39844 223.89453 C 408.0802 221.7537 409.18212 219.71944 410.99609 218.76562 L 410.35938 213.38477 L 394.81836 215.69531 L 395.68555 221.5293 C 397.19021 222.19435 398.32633 223.60734 398.58594 225.35352 C 398.98846 228.06143 397.11611 230.58571 394.4082 230.98828 C 391.70029 231.39081 389.176 229.52042 388.77344 226.8125 C 388.44501 224.60359 389.63125 222.51426 391.54883 221.60156 L 390.76172 216.29688 L 375.9375 218.50195 L 375.66211 224.31641 C 377.35314 224.90184 378.67978 226.38019 378.96094 228.27148 C 379.36356 230.97939 377.4931 233.50368 374.78516 233.90625 C 372.07727 234.30877 369.55102 232.43643 369.14844 229.72852 C 368.8434 227.67675 369.84086 225.71288 371.52148 224.71484 L 371.77344 219.12109 L 354.11133 221.74609 L 356.52539 227.4043 C 357.98778 228.08388 359.08125 229.47446 359.33594 231.1875 C 359.73846 233.8954 357.8681 236.42166 355.16016 236.82422 C 352.45225 237.22675 349.92797 235.35438 349.52539 232.64648 C 349.20845 230.5145 350.29509 228.48016 352.0957 227.52148 L 349.89453 222.37305 L 336.44922 224.37109 L 336.66797 230.2207 C 338.24141 230.85933 339.44529 232.30558 339.71289 234.10547 C 340.11551 236.81337 338.24307 239.33764 335.53516 239.74023 C 332.82725 240.14275 330.30295 238.27236 329.90039 235.56445 C 329.57905 233.40278 330.70329 231.34233 332.54883 230.40039 L 332.36523 224.97852 L 315.81641 227.43945 L 316.44727 232.95703 C 318.30228 233.45078 319.78785 235.0052 320.08789 237.02344 C 320.49041 239.73134 318.62001 242.25562 315.91211 242.6582 C 313.20418 243.06072 310.67795 241.19034 310.27539 238.48242 C 309.98609 236.53611 310.87597 234.67583 312.40234 233.63867 L 311.73242 228.04688 L 296.96289 230.24219 L 297.67773 236.1543 C 299.12993 236.83722 300.2094 238.23643 300.46289 239.94141 C 300.86541 242.6493 298.99502 245.17358 296.28711 245.57617 C 293.57917 245.97869 291.05494 244.10635 290.65234 241.39844 C 290.31846 239.15218 291.55431 237.03397 293.5293 236.14648 L 292.87695 230.84961 L 289.9082 231.29102 C 282.67435 232.36644 277.72926 239.07084 278.80469 246.30469 L 279.55859 251.37305 L 276.83594 256.08203 C 277.94339 257.25421 278.44563 258.95095 278.04883 260.63672 C 277.57287 262.65874 275.91854 264.09147 273.98438 264.39453 C 274.35016 264.2116 274.7332 264.05681 275.14648 263.96875 L 274.32617 258.8457 L 268.26172 259.37109 C 268.27063 259.03791 268.31323 258.70038 268.39258 258.36328 C 268.90887 256.16993 270.81437 254.6506 272.95703 254.53516 L 275.74609 249.71094 L 257.73828 245.47266 L 257.31836 251.34961 C 258.55529 252.52463 259.15512 254.31261 258.73633 256.0918 C 258.10905 258.75664 255.43828 260.41047 252.77344 259.7832 C 250.1086 259.1559 248.45477 256.4832 249.08203 253.81836 C 249.57107 251.7408 251.30614 250.26826 253.30859 250.02148 L 253.66797 244.51367 L 239.9668 241.28906 L 238.90039 247.92383 C 239.51011 248.97946 239.72689 250.2657 239.42578 251.54492 C 238.79851 254.20975 236.12579 255.86362 233.46094 255.23633 C 230.79609 254.60906 229.14225 251.93828 229.76953 249.27344 C 230.349 246.81172 232.67516 245.19984 235.12695 245.46484 L 235.94727 240.34375 L 227.95508 238.46289 L 255.85547 237.79883 C 263.16673 237.62507 268.90231 231.58278 268.72852 224.27148 L 268.65234 221.0332 L 283.62305 223.17188 C 290.86286 224.2062 297.51647 219.193 298.55078 211.95312 L 319.04688 68.496094 C 320.08119 61.256255 315.09725 54.58118 307.85742 53.546875 L 303.95508 52.988281 L 301.33594 58.626953 C 302.54348 59.695733 303.1961 61.340246 302.95117 63.054688 C 302.56401 65.76485 300.05 67.650845 297.33984 67.263672 C 294.62969 66.876409 292.74366 64.362518 293.13086 61.652344 C 293.4495 59.421699 295.2121 57.739597 297.33594 57.433594 L 299.68164 52.378906 L 281.36914 49.761719 L 281.47461 55.654297 C 282.81137 56.71436 283.56904 58.440554 283.31055 60.25 C 282.92329 62.960144 280.40938 64.846157 277.69922 64.458984 C 274.98908 64.071722 273.10306 61.557826 273.49023 58.847656 C 273.79208 56.734765 275.38886 55.111827 277.36133 54.6875 L 277.22852 49.169922 L 263.29492 47.179688 L 262.82422 53.882812 C 263.52561 54.879883 263.8558 56.142389 263.66992 57.443359 C 263.28276 60.153507 260.76877 62.039539 258.05859 61.652344 C 255.34843 61.265179 253.46242 58.751179 253.84961 56.041016 C 254.20724 53.537427 256.38203 51.72613 258.84766 51.771484 L 259.20703 46.595703 L 244.82227 44.541016 C 243.89049 46.542213 243.00469 48.475775 242.29297 50.111328 C 243.57316 51.17643 244.28192 52.870441 244.0293 54.638672 C 243.64204 57.348805 241.12811 59.232895 238.41797 58.845703 C 235.70783 58.458441 233.82179 55.944529 234.20898 53.234375 C 234.52063 51.053227 236.21304 49.406897 238.27344 49.048828 C 238.35634 48.855825 238.42878 48.688116 238.51562 48.488281 C 239.11658 47.106629 239.81916 45.561108 240.57422 43.933594 L 223.53516 41.5 L 222.55273 47.236328 C 223.88948 48.296378 224.64715 50.022573 224.38867 51.832031 C 224.00141 54.542164 221.4875 56.42821 218.77734 56.041016 C 216.06717 55.65385 214.18116 53.139848 214.56836 50.429688 C 214.87454 48.287101 216.51267 46.650203 218.52344 46.253906 L 219.44727 40.916016 L 203.89453 38.693359 L 203.06055 44.533203 C 204.31274 45.600113 204.99771 47.277755 204.74805 49.025391 C 204.36079 51.735524 201.84687 53.621568 199.13672 53.234375 C 196.42658 52.847113 194.54053 50.333199 194.92773 47.623047 C 195.2435 45.412283 196.97784 43.749196 199.07617 43.421875 L 199.83398 38.113281 L 184.99805 35.994141 L 183.07422 41.488281 C 184.52777 42.53208 185.37786 44.327845 185.10742 46.220703 C 184.72026 48.930863 182.20627 50.814931 179.49609 50.427734 C 176.78597 50.040475 174.89993 47.526563 175.28711 44.816406 C 175.5805 42.762933 177.09659 41.16425 178.99219 40.6875 L 180.83008 35.398438 L 163.1543 32.873047 L 163.85156 38.986328 C 165.05911 40.055091 165.71172 41.699599 165.4668 43.414062 C 165.07954 46.124186 162.56564 48.010243 159.85547 47.623047 C 157.14533 47.235785 155.25931 44.721866 155.64648 42.011719 C 155.95132 39.877976 157.57487 38.236805 159.57422 37.832031 L 158.93359 32.269531 L 145.47656 30.347656 L 144.01758 36.015625 C 145.34324 37.076844 146.08351 38.806036 145.82617 40.607422 C 145.43901 43.317581 142.92499 45.203569 140.21484 44.816406 C 137.50471 44.429145 135.61866 41.915232 136.00586 39.205078 C 136.31493 37.041618 137.97994 35.387626 140.01758 35.011719 L 141.39062 29.763672 L 124.82812 27.398438 L 123.85742 32.865234 C 125.49429 33.867972 126.47413 35.782829 126.18555 37.802734 C 125.79829 40.512859 123.28436 42.398891 120.57422 42.011719 C 117.86406 41.624456 115.97803 39.108602 116.36523 36.398438 C 116.6436 34.450533 118.02623 32.923519 119.78516 32.365234 L 120.74023 26.814453 L 105.95703 24.701172 L 104.95508 30.572266 C 106.15189 31.641322 106.78868 33.289699 106.54492 34.996094 C 106.15766 37.706217 103.64374 39.592259 100.93359 39.205078 C 98.223422 38.817833 96.337439 36.303909 96.724609 33.59375 C 97.045889 31.345651 98.83626 29.667629 100.98242 29.380859 L 101.86914 24.117188 L 98.896484 23.693359 C 98.443995 23.628714 97.993555 23.586687 97.546875 23.568359 z M 220.88672 238.63086 C 220.14794 239.91975 219.38213 241.24602 218.78711 242.33594 C 219.96724 243.51093 220.52254 245.26133 220.11328 247 C 219.48601 249.66482 216.81327 251.31869 214.14844 250.69141 C 211.4836 250.06412 209.82975 247.39141 210.45703 244.72656 C 210.96186 242.58187 212.79478 241.09287 214.87891 240.91992 C 214.97871 240.73509 215.06555 240.57409 215.16992 240.38281 C 215.44175 239.8847 215.79398 239.28169 216.0957 238.74414 L 220.88672 238.63086 z M 200.4082 239.11719 C 200.90393 240.11677 201.07585 241.28453 200.80078 242.45312 C 200.1735 245.11795 197.50078 246.77181 194.83594 246.14453 C 192.17107 245.51726 190.51724 242.84647 191.14453 240.18164 C 191.21474 239.88338 191.31687 239.60151 191.43555 239.33008 L 200.4082 239.11719 z M 180.73242 239.58398 C 179.60563 241.21301 177.56691 242.08061 175.52344 241.59961 C 174.36366 241.32661 173.41431 240.65198 172.74219 239.77344 L 180.73242 239.58398 z "
     id="path4520" />
  <path
     id="path4445"
     d="m 337.56888,266.63431 c -0.63126,-7.28607 -6.99657,-12.6611 -14.2826,-12.02983 l -3.9265,0.34013 -1.27588,6.08484 c 1.41811,0.76771 2.42622,2.2227 2.57571,3.94808 0.23633,2.72746 -1.78591,5.13332 -4.51336,5.36964 -2.72747,0.23624 -5.13333,-1.7859 -5.36962,-4.51338 -0.19454,-2.24487 1.14114,-4.28352 3.1406,-5.06231 l 1.14212,-5.45428 -18.43046,1.5968 1.43706,5.71524 c 1.54201,0.72997 2.66989,2.2398 2.82768,4.06081 0.23623,2.72745 -1.78592,5.13333 -4.51337,5.36965 -2.72746,0.23623 -5.13331,-1.78593 -5.36964,-4.51339 -0.18424,-2.12638 1.00417,-4.06791 2.82936,-4.92771 l -1.37797,-5.34358 -14.02316,1.21496 1.05936,6.63602 c 0.90887,0.81243 1.51601,1.9673 1.62942,3.27657 0.23633,2.72745 -1.78588,5.13332 -4.51336,5.36962 -2.72746,0.23632 -5.13331,-1.7859 -5.36962,-4.51336 -0.21833,-2.51956 1.48942,-4.77579 3.90132,-5.2897 l -0.82058,-5.12276 -14.47724,1.25431 c -0.45466,2.16015 -0.87967,4.24354 -1.20268,5.99774 1.48804,0.7477 2.56203,2.23715 2.71621,4.01667 0.23622,2.72745 -1.78594,5.13333 -4.51338,5.36962 -2.72746,0.23623 -5.13331,-1.78592 -5.36961,-4.51338 -0.19014,-2.19507 1.0858,-4.18214 3.01167,-4.99729 0.0371,-0.20675 0.07,-0.38721 0.10938,-0.6015 0.27261,-1.48183 0.60764,-3.14541 0.97471,-4.9016 l -17.14834,1.48574 0.3419,5.81012 c 1.54199,0.72996 2.66987,2.23981 2.82767,4.0608 0.23624,2.72746 -1.78591,5.13334 -4.51337,5.36962 -2.72747,0.23634 -5.13335,-1.78589 -5.36964,-4.51335 -0.18674,-2.15628 1.03826,-4.12021 2.90716,-4.96135 l -0.30724,-5.40945 -15.65254,1.35613 0.5091,5.87636 c 1.46118,0.75579 2.50808,2.23578 2.66048,3.99457 0.23623,2.72745 -1.78593,5.13333 -4.51338,5.36963 -2.72746,0.23623 -5.13332,-1.78592 -5.36961,-4.51338 -0.19283,-2.22486 1.11968,-4.23716 3.08946,-5.03095 l -0.46282,-5.34214 -14.93134,1.29363 -0.62891,5.78658 c 1.65209,0.6877 2.88556,2.24419 3.05058,4.14914 0.23633,2.72745 -1.78588,5.13335 -4.51336,5.36966 -2.72744,0.23622 -5.1333,-1.78593 -5.36961,-4.51339 -0.17903,-2.06659 0.93519,-3.96694 2.67368,-4.86039 l 0.59404,-5.56827 -17.78938,1.54128 2.06298,5.79554 c 1.41812,0.7677 2.42622,2.2227 2.57571,3.94809 0.23623,2.72746 -1.78591,5.13334 -4.51337,5.36965 -2.72747,0.23623 -5.13333,-1.78594 -5.36965,-4.51339 -0.18604,-2.14736 1.02462,-4.11222 2.88046,-4.95903 l -1.88315,-5.27291 -13.54236,1.1733 -0.13888,5.85176 c 1.53146,0.73362 2.64387,2.25025 2.80095,4.06313 0.23633,2.72746 -1.78592,5.13333 -4.51336,5.36965 -2.72745,0.23622 -5.13332,-1.78592 -5.36961,-4.51338 -0.18866,-2.17727 1.05858,-4.16532 2.95826,-4.99269 l 0.14917,-5.42207 -16.66752,1.44407 0.29211,5.54531 c 1.82135,0.60622 3.20888,2.24883 3.385,4.28164 0.23622,2.72744 -1.7859,5.13332 -4.51334,5.36963 -2.72748,0.23623 -5.13334,-1.78592 -5.36963,-4.51337 -0.16976,-1.96037 0.83127,-3.76177 2.41816,-4.7037 l -0.32576,-5.62314 -14.87789,1.28903 0.35348,5.94366 c 1.40773,0.77042 2.40019,2.23312 2.54899,3.95041 0.23622,2.72743 -1.78592,5.13333 -4.51337,5.36964 -2.72748,0.23624 -5.13332,-1.78594 -5.36964,-4.5134 -0.19591,-2.26247 1.16849,-4.30181 3.19404,-5.06692 l -0.32721,-5.32699 -2.99161,0.25915 c -7.28605,0.63124 -12.63204,7.02094 -12.00078,14.307 l 12.50831,144.37179 c 0.63126,7.28604 6.99655,12.66105 14.28261,12.0298 l 210.29399,-18.21978 c 7.28603,-0.63126 12.63207,-7.02094 12.00079,-14.30703 z"
     style="display:inline;overflow:visible;visibility:visible;opacity:1;fill:#feffdd;fill-opacity:1;fill-rule:evenodd;stroke:#331d16;stroke-width:2.53213644;stroke-linecap:round;stroke-linejoin:round;stroke-miterlimit:4;stroke-dasharray:none;stroke-dashoffset:0;stroke-opacity:1;marker:none;marker-start:none;marker-mid:none;marker-end:none;enable-background:accumulate"
     inkscape:connector-curvature="0" />
  <path
     inkscape:connector-curvature="0"
     style="display:inline;overflow:visible;visibility:visible;opacity:1;fill:#feffdd;fill-opacity:1;fill-rule:evenodd;stroke:#331d16;stroke-width:2.53213644;stroke-linecap:round;stroke-linejoin:round;stroke-miterlimit:4;stroke-dasharray:none;stroke-dashoffset:0;stroke-opacity:1;marker:none;marker-start:none;marker-mid:none;marker-end:none;enable-background:accumulate"
     d="m 319.04626,68.496825 c 1.03432,-7.239839 -3.94914,-13.916161 -11.18897,-14.950466 l -3.90157,-0.557452 -2.62007,5.638116 c 1.20754,1.06878 1.86014,2.714191 1.61521,4.428633 -0.38716,2.710163 -2.90147,4.595853 -5.61163,4.20868 -2.71015,-0.387263 -4.59586,-2.901478 -4.20866,-5.611652 0.31864,-2.230645 2.0811,-3.914053 4.20494,-4.220056 l 2.34705,-5.054205 -18.31355,-2.616353 0.10612,5.892173 c 1.33676,1.060063 2.09362,2.786019 1.83513,4.595465 -0.38726,2.710144 -2.90149,4.595864 -5.61165,4.208691 -2.71014,-0.387262 -4.59584,-2.901496 -4.20867,-5.611666 0.30185,-2.112891 1.89883,-3.73506 3.8713,-4.159387 l -0.13268,-5.516795 -13.93421,-1.990713 -0.4702,6.703581 c 0.70139,0.99707 1.03137,2.25938 0.84549,3.56035 -0.38716,2.710148 -2.90146,4.59585 -5.61164,4.208655 -2.71016,-0.387165 -4.59584,-2.901464 -4.20865,-5.611627 0.35763,-2.503589 2.53175,-4.314711 4.99738,-4.269357 l 0.36025,-5.175544 -14.38542,-2.055154 c -0.93178,2.001197 -1.81733,3.934307 -2.52905,5.56986 1.28019,1.065102 1.98916,2.758991 1.73654,4.527222 -0.38726,2.710133 -2.9015,4.595858 -5.61164,4.208666 -2.71014,-0.387262 -4.59584,-2.901494 -4.20865,-5.611648 0.31165,-2.181148 2.00424,-3.827836 4.06464,-4.185905 0.0829,-0.193003 0.15583,-0.361309 0.24267,-0.561144 0.60096,-1.381652 1.30383,-2.926238 2.05889,-4.553752 l -17.03957,-2.434339 -0.9821,5.736705 c 1.33675,1.06005 2.09361,2.786007 1.83513,4.595465 -0.38726,2.710133 -2.90149,4.595853 -5.61165,4.208659 -2.71017,-0.387166 -4.59588,-2.901476 -4.20868,-5.611637 0.30618,-2.142586 1.94394,-3.778252 3.95471,-4.174549 l 0.92516,-5.338594 -15.55325,-2.22201 -0.83423,5.839085 c 1.25219,1.06691 1.93692,2.745451 1.68726,4.493087 -0.38726,2.710133 -2.9015,4.595866 -5.61165,4.208673 -2.71014,-0.387262 -4.59585,-2.901494 -4.20865,-5.611646 0.31577,-2.210764 2.0497,-3.873759 4.14803,-4.20108 l 0.75838,-5.308264 -14.83662,-2.119636 -1.92238,5.49405 c 1.45355,1.043799 2.30269,2.839092 2.03225,4.73195 -0.38716,2.71016 -2.90146,4.595884 -5.61164,4.208687 -2.71012,-0.387259 -4.59583,-2.901492 -4.20865,-5.611649 0.29339,-2.053473 1.80884,-3.652297 3.70444,-4.129047 l 1.839,-5.289297 -17.67655,-2.525349 0.69762,6.11209 c 1.20755,1.068763 1.86014,2.714172 1.61522,4.428635 -0.38726,2.710123 -2.90149,4.595871 -5.61166,4.208675 -2.71014,-0.387262 -4.59585,-2.901508 -4.20868,-5.611655 0.30484,-2.133743 1.92883,-3.77357 3.92818,-4.178344 l -0.64076,-5.562308 -13.45646,-1.922452 -1.45982,5.668449 c 1.32566,1.061219 2.06591,2.790288 1.80857,4.591674 -0.38716,2.710159 -2.90149,4.595854 -5.61164,4.208691 -2.71013,-0.387261 -4.59585,-2.9015 -4.20865,-5.611654 0.30907,-2.16346 1.97394,-3.817602 4.01158,-4.193509 l 1.37258,-5.247583 -16.5618,-2.366094 -0.97065,5.467519 c 1.63687,1.002738 2.61658,2.91679 2.328,4.936695 -0.38726,2.710125 -2.90147,4.595859 -5.61161,4.208687 -2.71016,-0.387263 -4.59587,-2.901492 -4.20867,-5.611656 0.27837,-1.947905 1.66115,-3.475979 3.42008,-4.034264 l 0.95549,-5.55092 -14.78353,-2.112038 -1.00104,5.869419 c 1.19681,1.069056 1.83243,2.71844 1.58867,4.424835 -0.38726,2.710123 -2.90149,4.595858 -5.61164,4.208677 -2.710172,-0.387245 -4.595852,-2.901505 -4.208682,-5.611664 0.32128,-2.248099 2.11188,-3.925685 4.258042,-4.212455 l 0.88704,-5.262793 -2.972622,-0.424737 c -7.23983,-1.034326 -13.89339,3.979482 -14.9277,11.219325 l -20.49478,143.45603 c -1.03431,7.23983 3.94915,13.91612 11.18899,14.95045 l 208.960092,29.85298 c 7.23981,1.03432 13.89341,-3.97946 14.92772,-11.21933 z"
     id="path4418" />
  <path
     inkscape:connector-curvature="0"
     style="display:inline;overflow:visible;visibility:visible;opacity:1;fill:#feffdd;fill-opacity:1;fill-rule:evenodd;stroke:#331d16;stroke-width:2.53213644;stroke-linecap:round;stroke-linejoin:round;stroke-miterlimit:4;stroke-dasharray:none;stroke-dashoffset:0;stroke-opacity:1;marker:none;marker-start:none;marker-mid:none;marker-end:none;enable-background:accumulate"
     d="m 265.28546,79.399915 c -0.17378,-7.311276 -6.19002,-13.074354 -13.50129,-12.900569 l -3.94008,0.09365 -1.6544,5.993006 c 1.36726,0.855011 2.28228,2.370264 2.32343,4.101628 0.0651,2.736898 -2.10384,5.01142 -4.84074,5.076477 -2.73691,0.06503 -5.01142,-2.103843 -5.07646,-4.840756 -0.0536,-2.252655 1.40713,-4.203662 3.45142,-4.855718 l 1.48142,-5.372059 -18.49427,0.439587 1.07635,5.794002 c 1.49328,0.825099 2.52441,2.402603 2.56786,4.229902 0.065,2.736903 -2.10386,5.011433 -4.84076,5.07649 -2.7369,0.06503 -5.01141,-2.103854 -5.07647,-4.840764 -0.0507,-2.133738 1.25688,-3.99706 3.13236,-4.740858 l -1.04065,-5.419384 -14.07172,0.334462 0.64173,6.689341 c 0.85623,0.867746 1.38985,2.058356 1.42107,3.372162 0.0651,2.736899 -2.10383,5.011419 -4.84075,5.076469 -2.73691,0.06505 -5.01141,-2.103834 -5.07645,-4.840747 -0.0601,-2.528292 1.78553,-4.673143 4.22489,-5.035024 l -0.4982,-5.164093 -14.52737,0.345307 c -0.58901,2.127459 -1.14364,4.180146 -1.57589,5.910674 1.43831,0.839398 2.41691,2.393179 2.45936,4.17886 0.0651,2.73689 -2.10386,5.011421 -4.84075,5.076467 -2.7369,0.06504 -5.01141,-2.103854 -5.07646,-4.840755 -0.0523,-2.202687 1.34555,-4.10595 3.31869,-4.798908 0.05,-0.204032 0.0941,-0.382053 0.14681,-0.593478 0.36487,-1.461839 0.8034,-3.101185 1.27973,-4.830934 l -17.20772,0.409019 -0.0226,5.820119 c 1.49326,0.825092 2.52439,2.402597 2.56784,4.229905 0.065,2.736893 -2.10385,5.011421 -4.84075,5.076469 -2.73692,0.06506 -5.01145,-2.103839 -5.07649,-4.840742 -0.0514,-2.163746 1.29425,-4.047102 3.21213,-4.769574 l 0.0321,-5.41807 -15.70674,0.373331 0.14017,5.896713 c 1.411,0.845793 2.36316,2.38844 2.40512,4.153321 0.065,2.736882 -2.10386,5.011423 -4.84075,5.076479 -2.7369,0.06505 -5.01142,-2.103864 -5.07646,-4.840766 -0.0531,-2.232563 1.38281,-4.158732 3.39843,-4.82762 l -0.12739,-5.360651 -14.98304,0.356125 -0.99002,5.735845 c 1.60578,0.789803 2.73936,2.420481 2.78478,4.332027 0.065,2.736892 -2.10382,5.011439 -4.84074,5.076488 -2.73688,0.06503 -5.0114,-2.103865 -5.07646,-4.840766 -0.0493,-2.073733 1.18177,-3.900581 2.97279,-4.683412 l 0.94155,-5.520156 -17.85098,0.424307 1.69602,5.913355 c 1.36727,0.85499 2.28227,2.370254 2.32344,4.101626 0.065,2.736884 -2.10385,5.011442 -4.84077,5.07648 -2.7369,0.06505 -5.011419,-2.103862 -5.076485,-4.840751 -0.05121,-2.154809 1.280115,-4.039992 3.185345,-4.768946 l -1.54928,-5.380476 -13.589263,0.322995 -0.50503,5.831583 c 1.482524,0.828065 2.497785,2.411386 2.541035,4.230555 0.06506,2.73689 -2.103854,5.011411 -4.840751,5.076488 -2.736895,0.06503 -5.011413,-2.103863 -5.076451,-4.840766 -0.05193,-2.184805 1.317348,-4.090862 3.265092,-4.79765 l 0.4884,-5.402092 -16.725246,0.397541 -0.05574,5.552733 c 1.779837,0.719075 3.061775,2.445351 3.110254,4.485195 0.06505,2.736881 -2.103832,5.011419 -4.840723,5.076475 -2.736903,0.06504 -5.011421,-2.103853 -5.076469,-4.840754 -0.04674,-1.967144 1.065172,-3.702337 2.707957,-4.543048 l 0.02703,-5.632484 -14.929422,0.354854 -0.0194,5.954148 c 1.356724,0.857049 2.255649,2.379022 2.296623,4.102253 0.06504,2.736882 -2.103843,5.01142 -4.840743,5.076477 -2.736924,0.06503 -5.011413,-2.103863 -5.07649,-4.840761 -0.05394,-2.270305 1.435581,-4.220213 3.505054,-4.856987 l 0.0072,-5.33702 -3.001961,0.07135 C 33.450695,71.688876 27.715075,77.731288 27.888852,85.04258 l 3.443439,144.87169 c 0.173776,7.31129 6.19001,13.07434 13.501286,12.90056 l 211.022193,-5.01576 c 7.31126,-0.17376 13.04692,-6.21617 12.87313,-13.52747 z"
     id="path5401" />
  <g
     id="g4247"
     transform="matrix(0.99051059,-0.13743646,0.13743646,0.99051059,11.127503,-30.43586)">
    <path
       inkscape:connector-curvature="0"
       style="display:inline;overflow:visible;visibility:visible;opacity:1;fill:none;fill-opacity:1;fill-rule:evenodd;stroke:#ffffff;stroke-width:0.57219464;stroke-linecap:butt;stroke-linejoin:miter;stroke-miterlimit:4;stroke-dasharray:2.28877853, 2.28877853;stroke-dashoffset:0;stroke-opacity:1;marker:none;marker-start:none;marker-mid:none;marker-end:none;enable-background:accumulate"
       id="path3489"
       d="M 81.131854,184.89775 13.396828,176.88152" />
    <path
       inkscape:connector-curvature="0"
       style="fill:none;fill-rule:evenodd;stroke:#ffffff;stroke-width:0.57219464;stroke-linecap:butt;stroke-linejoin:miter;stroke-miterlimit:4;stroke-dasharray:2.28877853, 2.28877853;stroke-dashoffset:0;stroke-opacity:1"
       id="path3487"
       d="M 81.256447,184.79953 77.327441,217.9986" />
    <path
       inkscape:connector-curvature="0"
       style="display:inline;overflow:visible;visibility:visible;opacity:1;fill:none;fill-opacity:1;fill-rule:evenodd;stroke:#2f9fbe;stroke-width:2;stroke-linecap:round;stroke-linejoin:miter;stroke-miterlimit:4;stroke-dasharray:none;stroke-dashoffset:0;stroke-opacity:1;marker:none;marker-start:none;marker-mid:none;marker-end:none;enable-background:accumulate"
       id="path3481"
       d="M 1.6359121,196.03751 122.58354,179.02878" />
    <path
       inkscape:connector-curvature="0"
       style="display:inline;overflow:visible;visibility:visible;opacity:1;fill:none;fill-opacity:1;fill-rule:evenodd;stroke:#cf931d;stroke-width:2;stroke-linecap:round;stroke-linejoin:miter;stroke-miterlimit:4;stroke-dasharray:none;stroke-dashoffset:0;stroke-opacity:1;marker:none;marker-start:none;marker-mid:none;marker-end:none;enable-background:accumulate"
       id="path3483"
       d="M 40.379907,229.22155 112.77973,150.63158" />
    <path
       inkscape:connector-curvature="0"
       style="font-style:normal;font-variant:normal;font-weight:normal;font-stretch:normal;font-size:14.03459549px;line-height:80.00000119%;font-family:'Arial Black';-inkscape-font-specification:'Arial Black';text-align:center;writing-mode:lr-tb;text-anchor:middle;fill:#492b2b;fill-opacity:1;stroke:none;stroke-width:1px;stroke-linecap:butt;stroke-linejoin:miter;stroke-opacity:1"
       id="text3491"
       d="m 70.91905,222.35771 3.903067,0.4619 1.082621,2.55361 1.866947,-2.20452 3.628366,0.42939 -3.409232,3.74278 2.603685,4.86405 -3.838465,-0.45425 -1.256783,-2.95111 -2.193765,2.54275 -3.563694,-0.42177 3.650965,-4.12385 -2.473712,-4.43898" />
    <path
       inkscape:connector-curvature="0"
       style="font-style:normal;font-variant:normal;font-weight:normal;font-stretch:normal;font-size:14.03459549px;line-height:80.00000119%;font-family:'Arial Black';-inkscape-font-specification:'Arial Black';text-align:center;writing-mode:lr-tb;text-anchor:middle;fill:#492b2b;fill-opacity:1;stroke:none;stroke-width:1px;stroke-linecap:butt;stroke-linejoin:miter;stroke-opacity:1"
       id="text3495"
       d="m 2.3111339,167.1716 3.1758772,0.37586 0.9995214,5.41318 2.1172739,-5.04431 2.9617006,0.35051 -4.1015057,8.01488 c -0.4675551,0.91326 -0.9057966,1.51544 -1.3147239,1.80658 -0.5778809,0.41091 -1.4010402,0.55314 -2.469498,0.42669 -0.4332922,-0.0513 -1.0959446,-0.18971 -1.9879717,-0.41496 l 0.011857,-2.12554 c 0.4169906,0.18926 0.8913632,0.3152 1.4231223,0.37813 0.3545329,0.042 0.6497316,-0.005 0.8855936,-0.14242 0.240762,-0.13633 0.4622822,-0.40464 0.6644778,-0.80512 l -2.3657653,-8.23352" />
    <path
       inkscape:connector-curvature="0"
       style="display:inline;overflow:visible;visibility:visible;opacity:1;fill:none;fill-opacity:1;fill-rule:evenodd;stroke:#ff1e1e;stroke-width:2;stroke-linecap:round;stroke-linejoin:miter;stroke-miterlimit:4;stroke-dasharray:none;stroke-dashoffset:0;stroke-opacity:1;marker:none;marker-start:none;marker-mid:none;marker-end:none;enable-background:accumulate"
       id="path3485"
       d="m 85.76892,185.39913 a 4.6802316,4.6802316 0 1 1 -9.295592,-1.10011 4.6802316,4.6802316 0 0 1 9.295592,1.10011 z" />
    <path
       inkscape:connector-curvature="0"
       style="display:inline;overflow:visible;visibility:visible;opacity:1;fill:none;fill-opacity:1;fill-rule:evenodd;stroke:#492b2b;stroke-width:2;stroke-linecap:round;stroke-linejoin:round;stroke-miterlimit:4;stroke-dasharray:none;stroke-dashoffset:0;stroke-opacity:1;marker:none;marker-start:none;marker-mid:none;marker-end:none;enable-background:accumulate"
       id="path3473"
       d="m 9.0238435,215.59488 9.3483435,-78.99108 4.654344,5.90386" />
    <path
       inkscape:connector-curvature="0"
       style="display:inline;overflow:visible;visibility:visible;opacity:1;fill:none;fill-opacity:1;fill-rule:evenodd;stroke:#492b2b;stroke-width:2;stroke-linecap:round;stroke-linejoin:miter;stroke-miterlimit:4;stroke-dasharray:none;stroke-dashoffset:0;stroke-opacity:1;marker:none;marker-start:none;marker-mid:none;marker-end:none;enable-background:accumulate"
       id="path3475"
       d="m 18.32808,136.50285 -5.882762,4.6377" />
    <path
       inkscape:connector-curvature="0"
       style="display:inline;overflow:visible;visibility:visible;opacity:1;fill:none;fill-opacity:1;fill-rule:evenodd;stroke:#492b2b;stroke-width:2;stroke-linecap:round;stroke-linejoin:round;stroke-miterlimit:4;stroke-dasharray:none;stroke-dashoffset:0;stroke-opacity:1;marker:none;marker-start:none;marker-mid:none;marker-end:none;enable-background:accumulate"
       id="path3477"
       d="m 2.7944891,209.27967 110.7762909,13.11004 -5.90387,4.65433" />
    <path
       inkscape:connector-curvature="0"
       style="display:inline;overflow:visible;visibility:visible;opacity:1;fill:none;fill-opacity:1;fill-rule:evenodd;stroke:#492b2b;stroke-width:2;stroke-linecap:round;stroke-linejoin:miter;stroke-miterlimit:4;stroke-dasharray:none;stroke-dashoffset:0;stroke-opacity:1;marker:none;marker-start:none;marker-mid:none;marker-end:none;enable-background:accumulate"
       id="path3479"
       d="m 113.67171,222.34559 -4.63769,-5.88276" />
  </g>
  <rect
     style="color:#000000;clip-rule:nonzero;display:inline;overflow:visible;visibility:visible;opacity:1;isolation:auto;mix-blend-mode:normal;color-interpolation:sRGB;color-interpolation-filters:linearRGB;solid-color:#000000;solid-opacity:1;fill:#e9dada;fill-opacity:1;fill-rule:evenodd;stroke:#492b2b;stroke-width:4;stroke-linecap:round;stroke-linejoin:round;stroke-miterlimit:4;stroke-dasharray:none;stroke-dashoffset:0;stroke-opacity:1;marker:none;marker-start:none;marker-mid:none;marker-end:none;color-rendering:auto;image-rendering:auto;shape-rendering:auto;text-rendering:auto;enable-background:accumulate"
     id="rect4181"
     width="76.306297"
     height="76.306297"
     x="167.75363"
     y="134.20158"
     rx="14.307431"
     ry="14.307431"
     transform="matrix(0.99947507,-0.03239731,0.03239731,0.99947507,0,0)" />
  <g
     transform="matrix(0.99947507,-0.03239731,0.03239731,0.99947507,0,0)"
     style="color:#000000;font-style:normal;font-variant:normal;font-weight:normal;font-stretch:semi-expanded;font-size:65.30673981px;line-height:125%;font-family:Ravie;-inkscape-font-specification:'Ravie Semi-Expanded';letter-spacing:0px;word-spacing:0px;clip-rule:nonzero;display:inline;overflow:visible;visibility:visible;opacity:1;isolation:auto;mix-blend-mode:normal;color-interpolation:sRGB;color-interpolation-filters:linearRGB;solid-color:#000000;solid-opacity:1;fill:#492b2b;fill-opacity:1;fill-rule:nonzero;stroke:none;stroke-width:1px;stroke-linecap:butt;stroke-linejoin:miter;stroke-miterlimit:4;stroke-dasharray:none;stroke-dashoffset:0;stroke-opacity:1;color-rendering:auto;image-rendering:auto;shape-rendering:auto;text-rendering:auto;enable-background:accumulate"
     id="text4197">
    <path
       d="m 230.14591,166.07094 q 0,11.03327 -3.69901,19.03717 -4.59188,9.91718 -14.06263,12.50012 -1.81762,0.47832 -4.30489,0.47832 -7.68502,0 -14.28585,-5.64419 -7.01537,-5.99495 -8.92866,-15.46571 -0.38265,-1.97706 -0.38265,-4.11356 0,-7.4618 4.40055,-13.83941 4.84698,-7.04726 13.42487,-10.07663 7.46181,-2.58293 13.0741,-2.58293 14.76417,0 14.76417,19.70682 z m -5.10208,6.4095 q 0,-4.20923 -5.3572,-7.46181 -5.3253,-3.25258 -12.2769,-3.25258 -5.0702,0 -10.49117,3.22069 -5.77174,3.44391 -5.77174,7.30237 0,4.46433 5.54852,8.0039 5.19776,3.34825 10.71439,3.34825 6.72838,0 12.24501,-3.63524 5.38909,-3.50769 5.38909,-7.52558 z"
       style=""
       id="path4495" />
  </g>
  <path
     id="path4215"
     d="m 293.59567,267.49161 c 1.67568,-7.11879 -2.6927,-14.21283 -9.81148,-15.88849 l -3.83635,-0.90304 -3.1123,5.38207 c 1.10745,1.17218 1.61074,2.86922 1.21394,4.55499 -0.62727,2.66484 -3.29969,4.31887 -5.96453,3.6916 -2.66484,-0.6273 -4.31886,-3.29968 -3.69158,-5.96453 0.51629,-2.19335 2.42178,-3.71291 4.56444,-3.82835 l 2.78832,-4.82481 -18.00733,-4.23871 -0.41964,5.87817 c 1.23693,1.17502 1.8369,2.96157 1.41811,4.74076 -0.62728,2.66484 -3.2997,4.31887 -5.96454,3.6916 -2.66484,-0.6273 -4.31885,-3.29969 -3.69159,-5.96453 0.48904,-2.07756 2.22427,-3.55089 4.22672,-3.79767 l 0.35972,-5.50665 -13.70124,-3.22512 -1.06602,6.63496 c 0.60972,1.05563 0.82583,2.34233 0.52472,3.62155 -0.62727,2.66483 -3.29968,4.31886 -5.96453,3.69157 -2.66485,-0.62727 -4.31886,-3.29967 -3.69158,-5.96451 0.57947,-2.46172 2.90635,-4.07179 5.35814,-3.80679 l 0.82023,-5.12282 -14.14489,-3.32953 c -1.10649,1.91014 -2.16087,3.75661 -3.01557,5.3222 1.18013,1.17499 1.73525,2.92534 1.32599,4.66401 -0.62727,2.66482 -3.29969,4.31886 -5.96452,3.69158 -2.66484,-0.62729 -4.31886,-3.29968 -3.69158,-5.96453 0.50483,-2.14469 2.33754,-3.63389 4.42167,-3.80684 0.0998,-0.18483 0.18734,-0.34599 0.29171,-0.53727 0.72175,-1.32257 1.55953,-2.79834 2.45669,-4.35206 l -16.75467,-3.94384 -1.48961,5.62631 c 1.23691,1.17501 1.83688,2.96157 1.41809,4.74077 -0.62728,2.66483 -3.29968,4.31887 -5.96452,3.69159 -2.66487,-0.62727 -4.3189,-3.29969 -3.69161,-5.96452 0.49592,-2.10678 2.27306,-3.5899 4.31115,-3.80534 l 1.39749,-5.23485 -15.29321,-3.59983 -1.35146,5.74145 c 1.15208,1.17431 1.68442,2.90721 1.27994,4.62564 -0.62728,2.66482 -3.2997,4.31885 -5.96454,3.69159 -2.66483,-0.62728 -4.31884,-3.2997 -3.69157,-5.96454 0.51169,-2.17379 2.38692,-3.67558 4.50608,-3.81452 l 1.22863,-5.21951 -14.58856,-3.43398 -2.40455,5.30077 c 1.35469,1.16924 2.04039,3.03309 1.60227,4.89431 -0.62728,2.66482 -3.29967,4.31888 -5.96452,3.6916 -2.66482,-0.62729 -4.31885,-3.2997 -3.69158,-5.96454 0.47528,-2.01913 2.12726,-3.47648 4.05783,-3.78232 l 2.30324,-5.10428 -17.381,-4.09128 0.1499,6.14994 c 1.10746,1.17217 1.61075,2.86922 1.21395,4.55501 -0.62729,2.66482 -3.2997,4.31888 -5.96454,3.69159 -2.66485,-0.62727 -4.31887,-3.29969 -3.69161,-5.96453 0.49387,-2.09807 2.25759,-3.58657 4.28507,-3.81148 l -0.14229,-5.59729 -13.23148,-3.11454 -1.95938,5.51573 c 1.22577,1.17517 1.80892,2.96336 1.39199,4.73464 -0.62726,2.66483 -3.29968,4.31885 -5.96453,3.6916 -2.66482,-0.62729 -4.31885,-3.2997 -3.69157,-5.96453 0.50073,-2.12728 2.30645,-3.62641 4.36949,-3.81915 l 1.83497,-5.10431 -16.28489,-3.83328 -1.4543,5.35919 c 1.54097,1.1447 2.34611,3.13847 1.8786,5.12461 -0.62727,2.66482 -3.29968,4.31887 -5.964509,3.69159 -2.664837,-0.62728 -4.318862,-3.29968 -3.691587,-5.96452 0.450869,-1.91535 1.964442,-3.31404 3.766153,-3.71329 l 1.446616,-5.44361 -14.536355,-3.42169 -1.520353,5.75681 c 1.09673,1.17149 1.582769,2.87098 1.187835,4.54884 -0.627277,2.66482 -3.299676,4.31887 -5.96452,3.6916 -2.664862,-0.6273 -4.318856,-3.2997 -3.691612,-5.96454 0.520352,-2.21053 2.453486,-3.72177 4.616661,-3.81605 l 1.352954,-5.16269 -2.922923,-0.68803 c -7.11878,-1.6757 -14.192853,2.72493 -15.868548,9.84373 L 29.246026,354.1399 c -1.675683,7.11879 2.692698,14.21281 9.811472,15.88849 l 205.466332,48.36439 c 7.11875,1.6757 14.19287,-2.72491 15.86855,-9.84373 z"
     style="display:inline;overflow:visible;visibility:visible;opacity:1;fill:#feffdd;fill-opacity:1;fill-rule:evenodd;stroke:#331d16;stroke-width:2.53213644;stroke-linecap:round;stroke-linejoin:round;stroke-miterlimit:4;stroke-dasharray:none;stroke-dashoffset:0;stroke-opacity:1;marker:none;marker-start:none;marker-mid:none;marker-end:none;enable-background:accumulate"
     inkscape:connector-curvature="0" />
  <circle
     style="color:#000000;clip-rule:nonzero;display:inline;overflow:visible;visibility:visible;opacity:1;isolation:auto;mix-blend-mode:normal;color-interpolation:sRGB;color-interpolation-filters:linearRGB;solid-color:#000000;solid-opacity:1;fill:none;fill-opacity:1;fill-rule:nonzero;stroke:#1b5c7b;stroke-width:3.53812051;stroke-linecap:butt;stroke-linejoin:miter;stroke-miterlimit:4;stroke-dasharray:none;stroke-dashoffset:0;stroke-opacity:1;marker:none;marker-start:none;marker-mid:none;marker-end:none;color-rendering:auto;image-rendering:auto;shape-rendering:auto;text-rendering:auto;enable-background:accumulate"
     id="path4260"
     cx="222.72916"
     cy="273.47501"
     r="64.354256"
     transform="matrix(0.97632329,0.21631651,-0.21631651,0.97632329,0,0)" />
  <circle
     r="52.473385"
     cy="273.47501"
     cx="222.72916"
     id="circle4296"
     style="color:#000000;clip-rule:nonzero;display:inline;overflow:visible;visibility:visible;opacity:1;isolation:auto;mix-blend-mode:normal;color-interpolation:sRGB;color-interpolation-filters:linearRGB;solid-color:#000000;solid-opacity:1;fill:none;fill-opacity:1;fill-rule:nonzero;stroke:#1b5c7b;stroke-width:2;stroke-linecap:butt;stroke-linejoin:miter;stroke-miterlimit:4;stroke-dasharray:none;stroke-dashoffset:0;stroke-opacity:1;marker:none;marker-start:none;marker-mid:none;marker-end:none;color-rendering:auto;image-rendering:auto;shape-rendering:auto;text-rendering:auto;enable-background:accumulate"
     transform="matrix(0.97632329,0.21631651,-0.21631651,0.97632329,0,0)" />
  <rect
     transform="matrix(0.97533968,0.22070911,-0.22070911,0.97533968,0,0)"
     ry="14.307431"
     rx="14.307431"
     y="234.39967"
     x="185.25041"
     height="76.306297"
     width="76.306297"
     id="rect4217"
     style="color:#000000;clip-rule:nonzero;display:inline;overflow:visible;visibility:visible;opacity:1;isolation:auto;mix-blend-mode:normal;color-interpolation:sRGB;color-interpolation-filters:linearRGB;solid-color:#000000;solid-opacity:1;fill:#e9dada;fill-opacity:1;fill-rule:evenodd;stroke:#492b2b;stroke-width:4;stroke-linecap:round;stroke-linejoin:round;stroke-miterlimit:4;stroke-dasharray:none;stroke-dashoffset:0;stroke-opacity:1;marker:none;marker-start:none;marker-mid:none;marker-end:none;color-rendering:auto;image-rendering:auto;shape-rendering:auto;text-rendering:auto;enable-background:accumulate" />
  <g
     transform="matrix(0.97533968,0.22070911,-0.22070911,0.97533968,0,0)"
     style="color:#000000;font-style:normal;font-variant:normal;font-weight:normal;font-stretch:semi-expanded;font-size:65.30673981px;line-height:125%;font-family:Ravie;-inkscape-font-specification:'Ravie Semi-Expanded';letter-spacing:0px;word-spacing:0px;clip-rule:nonzero;display:inline;overflow:visible;visibility:visible;opacity:1;isolation:auto;mix-blend-mode:normal;color-interpolation:sRGB;color-interpolation-filters:linearRGB;solid-color:#000000;solid-opacity:1;fill:#492b2b;fill-opacity:1;fill-rule:nonzero;stroke:none;stroke-width:1px;stroke-linecap:butt;stroke-linejoin:miter;stroke-miterlimit:4;stroke-dasharray:none;stroke-dashoffset:0;stroke-opacity:1;color-rendering:auto;image-rendering:auto;shape-rendering:auto;text-rendering:auto;enable-background:accumulate"
     id="text4219">
    <path
       d="m 237.85199,296.29572 q 0,0.44644 -0.19133,0.44644 -0.44643,0 -1.94517,-0.12756 -1.49874,-0.12755 -3.22069,-0.12755 -10.04474,0 -15.81648,2.61482 -0.31888,0.15944 -0.44643,-0.19133 -0.31888,-2.04083 -0.31888,-5.03831 0,-8.09956 3.02936,-18.9415 2.35972,-8.41845 5.00643,-13.9032 -4.52811,3.44391 -9.02432,3.44391 -4.91076,0 -7.30237,-3.44391 -1.5944,-2.26405 -1.5944,-5.54852 0,-4.11356 2.6786,-6.09062 3.1888,-2.35971 8.03579,-2.35971 5.89929,0 5.89929,3.53957 0,2.48727 -2.04084,5.32531 -2.00894,2.80615 -4.81509,4.33677 -0.5421,0.28699 -0.5421,0.5421 0,0.38266 0.92475,0.38266 2.6786,0 6.37761,-3.66713 3.82657,-3.79468 5.77174,-8.73733 2.48727,-0.60587 7.17481,-1.91328 0.287,-0.0957 0.35077,0.0319 0.0638,0.12755 -0.0319,0.44643 -4.8151,18.08053 -4.8151,32.36638 0,7.01537 1.49874,10.45928 0.44643,1.05231 2.42349,1.37119 0.86098,0.12755 2.32783,0.66964 0.60587,0.38266 0.60587,4.11356 z"
       style=""
       id="path4492" />
  </g>
  <path
     style="color:#000000;clip-rule:nonzero;display:inline;overflow:visible;visibility:visible;opacity:1;isolation:auto;mix-blend-mode:normal;color-interpolation:sRGB;color-interpolation-filters:linearRGB;solid-color:#000000;solid-opacity:1;fill:none;fill-opacity:1;fill-rule:nonzero;stroke:#1b5c7b;stroke-width:3.21123362;stroke-linecap:butt;stroke-linejoin:miter;stroke-miterlimit:4;stroke-dasharray:none;stroke-dashoffset:0;stroke-opacity:1;marker:none;marker-start:none;marker-mid:none;marker-end:none;color-rendering:auto;image-rendering:auto;shape-rendering:auto;text-rendering:auto;enable-background:accumulate"
     d="m 219.31213,301.3728 c -2.5063,-2.21386 -6.25089,-2.60325 -9.2185,-0.71214 l -23.93666,15.25356 c -1.79771,1.14558 -2.95971,2.90275 -3.38523,4.82334 -0.42554,1.92058 -0.11448,4.00409 1.0311,5.80181 l 15.25316,23.93857 c 1.8911,2.9676 5.45014,4.19442 8.65702,3.24639 l 11.59911,-52.35153 z m -87.95182,7.97392 c 0.42553,-1.9206 0.11449,-4.00413 -1.03111,-5.80182 l -15.25357,-23.93665 c -1.8911,-2.96761 -5.44972,-4.19635 -8.6566,-3.24831 l -11.599124,52.35152 c 2.506306,2.21386 6.250484,2.60514 9.218094,0.71407 l 23.93708,-15.2555 c 1.79771,-1.14559 2.95969,-2.90272 3.38523,-4.82331 z"
     id="path4291"
     inkscape:connector-curvature="0" />
  <path
     inkscape:connector-curvature="0"
     id="path4289"
     d="m 162.76159,289.3361 c -1.9206,-0.42553 -3.67839,-1.58666 -4.82394,-3.38441 l -15.25392,-23.93716 c -1.8911,-2.96761 -1.50155,-6.71128 0.71232,-9.21758 l 52.35251,11.59934 c 0.94804,3.20686 -0.27914,6.76495 -3.24675,8.65606 l -23.93818,15.25366 c -1.79772,1.14558 -3.88145,1.45562 -5.80204,1.03009 z"
     style="color:#000000;clip-rule:nonzero;display:inline;overflow:visible;visibility:visible;opacity:1;isolation:auto;mix-blend-mode:normal;color-interpolation:sRGB;color-interpolation-filters:linearRGB;solid-color:#000000;solid-opacity:1;fill:none;fill-opacity:1;fill-rule:nonzero;stroke:#1b5c7b;stroke-width:3.21123362;stroke-linecap:butt;stroke-linejoin:miter;stroke-miterlimit:4;stroke-dasharray:none;stroke-dashoffset:0;stroke-opacity:1;marker:none;marker-start:none;marker-mid:none;marker-end:none;color-rendering:auto;image-rendering:auto;shape-rendering:auto;text-rendering:auto;enable-background:accumulate" />
  <path
     inkscape:connector-curvature="0"
     id="path4298"
     d="m 151.3705,340.7487 c -1.92059,-0.42553 -4.00434,-0.11549 -5.80204,1.0301 l -23.93717,15.25388 c -2.96762,1.89109 -4.19581,5.44896 -3.24777,8.65583 l 52.35253,11.59934 c 2.21385,-2.50631 2.60441,-6.24976 0.71331,-9.21736 l -15.25491,-23.93738 c -1.1456,-1.79772 -2.90337,-2.95888 -4.82395,-3.38441 z"
     style="color:#000000;clip-rule:nonzero;display:inline;overflow:visible;visibility:visible;opacity:1;isolation:auto;mix-blend-mode:normal;color-interpolation:sRGB;color-interpolation-filters:linearRGB;solid-color:#000000;solid-opacity:1;fill:#e68686;fill-opacity:1;fill-rule:nonzero;stroke:none;stroke-width:3.21123362;stroke-linecap:butt;stroke-linejoin:miter;stroke-miterlimit:4;stroke-dasharray:none;stroke-dashoffset:0;stroke-opacity:1;marker:none;marker-start:none;marker-mid:none;marker-end:none;color-rendering:auto;image-rendering:auto;shape-rendering:auto;text-rendering:auto;enable-background:accumulate" />
  <path
     style="color:#000000;clip-rule:nonzero;display:inline;overflow:visible;visibility:visible;opacity:1;isolation:auto;mix-blend-mode:normal;color-interpolation:sRGB;color-interpolation-filters:linearRGB;solid-color:#000000;solid-opacity:1;fill:none;fill-opacity:1;fill-rule:nonzero;stroke:#1b5c7b;stroke-width:3.21123362;stroke-linecap:butt;stroke-linejoin:miter;stroke-miterlimit:4;stroke-dasharray:none;stroke-dashoffset:0;stroke-opacity:1;marker:none;marker-start:none;marker-mid:none;marker-end:none;color-rendering:auto;image-rendering:auto;shape-rendering:auto;text-rendering:auto;enable-background:accumulate"
     d="m 151.3705,340.7487 c -1.92059,-0.42553 -4.00434,-0.11549 -5.80204,1.0301 l -23.93717,15.25388 c -2.96762,1.89109 -4.19581,5.44896 -3.24777,8.65583 l 52.35253,11.59934 c 2.21385,-2.50631 2.60441,-6.24976 0.71331,-9.21736 l -15.25491,-23.93738 c -1.1456,-1.79772 -2.90337,-2.95888 -4.82395,-3.38441 z"
     id="rect4264"
     inkscape:connector-curvature="0" />
  <path
     id="path4347"
     d="m 513.68625,211.38585 c -1.07543,-7.23384 -7.75738,-12.20976 -14.99121,-11.13432 l -3.89835,0.5795 -0.90157,6.15145 c 1.46239,0.6796 2.55755,2.07025 2.81221,3.78327 0.40263,2.70791 -1.46879,5.23289 -4.1767,5.63547 -2.70793,0.40252 -5.23289,-1.4688 -5.63546,-4.17673 -0.3314,-2.22878 0.87719,-4.34526 2.82529,-5.24481 l 0.8066,-5.5139 -18.29838,2.72037 1.7837,5.6167 c 1.58375,0.63436 2.80181,2.07244 3.07061,3.88038 0.40253,2.70792 -1.46881,5.2329 -4.17672,5.63549 -2.70792,0.40252 -5.23288,-1.46882 -5.63547,-4.17674 -0.31384,-2.11114 0.7536,-4.12169 2.52286,-5.09143 l -1.702,-5.24936 -13.92268,2.06983 1.46298,6.55887 c 0.95685,0.75536 1.63343,1.87095 1.82667,3.17084 0.40262,2.7079 -1.46878,5.23288 -4.17672,5.63545 -2.70791,0.40263 -5.23287,-1.46879 -5.63544,-4.17671 -0.37189,-2.50151 1.1947,-4.85789 3.57069,-5.51828 l -1.13217,-5.06302 -14.3735,2.13687 c -0.32175,2.18392 -0.61862,4.28939 -0.83383,6.06005 1.53097,0.65534 2.69398,2.07636 2.95664,3.84312 0.40252,2.70791 -1.46881,5.23289 -4.17672,5.63547 -2.70791,0.40252 -5.23288,-1.46882 -5.63545,-4.17673 -0.32394,-2.17936 0.82814,-4.2407 2.70059,-5.17204 0.0244,-0.20865 0.0462,-0.39076 0.0724,-0.60707 0.18153,-1.49571 0.41424,-3.17667 0.67329,-4.952 l -17.02546,2.53113 0.69639,5.77835 c 1.58373,0.63435 2.80179,2.07243 3.07059,3.88038 0.40252,2.70791 -1.4688,5.23289 -4.17672,5.63546 -2.70792,0.40262 -5.23291,-1.46879 -5.63548,-4.17671 -0.31824,-2.14083 0.7845,-4.17596 2.59847,-5.12977 l -0.6373,-5.38055 -15.54038,2.31033 0.86737,5.83426 c 1.50466,0.66505 2.64005,2.07829 2.89966,3.82447 0.40252,2.70791 -1.46881,5.2329 -4.17672,5.63547 -2.70791,0.40253 -5.23289,-1.46881 -5.63545,-4.17673 -0.32843,-2.20891 0.8586,-4.29768 2.77618,-5.21038 l -0.78849,-5.30387 -14.82434,2.20387 -0.27404,5.81421 c 1.69103,0.58543 3.01733,2.06363 3.29849,3.95492 0.40262,2.70791 -1.46877,5.23291 -4.17671,5.63548 -2.70789,0.40252 -5.23287,-1.46882 -5.63545,-4.17673 -0.30504,-2.05177 0.69098,-4.01668 2.3716,-5.01472 l 0.25258,-5.59417 -17.66191,2.62574 2.41337,5.65862 c 1.46239,0.67958 2.55753,2.07023 2.81222,3.78327 0.40252,2.7079 -1.4688,5.23291 -4.17674,5.63547 -2.70791,0.40253 -5.23289,-1.46882 -5.63547,-4.17672 -0.31694,-2.13198 0.77135,-4.16716 2.57196,-5.12584 l -2.20193,-5.14794 -13.44533,1.99887 0.21907,5.84931 c 1.57344,0.63863 2.77647,2.08444 3.04407,3.88433 0.40262,2.7079 -1.46881,5.23289 -4.17672,5.63548 -2.70791,0.40252 -5.23288,-1.46882 -5.63544,-4.17673 -0.32134,-2.16167 0.80202,-4.22224 2.64756,-5.16418 l -0.18253,-5.42105 -16.54809,2.46015 0.63052,5.5171 c 1.85501,0.49375 3.34034,2.04848 3.64038,4.06672 0.40252,2.7079 -1.46879,5.23289 -4.17669,5.63547 -2.70793,0.40252 -5.2329,-1.46881 -5.63546,-4.17673 -0.2893,-1.94631 0.59976,-3.80554 2.12613,-4.8427 l -0.66885,-5.59271 -14.77129,2.19601 0.71611,5.91095 c 1.4522,0.68292 2.53221,2.08223 2.7857,3.78721 0.40252,2.70789 -1.46881,5.23288 -4.17672,5.63547 -2.70794,0.40252 -5.23288,-1.46883 -5.63548,-4.17674 -0.33388,-2.24626 0.90337,-4.3652 2.87836,-5.25269 l -0.6522,-5.29702 -2.97017,0.44151 c -7.23385,1.07542 -12.17928,7.77995 -11.10385,15.0138 l 21.30948,143.33727 c 1.07543,7.23384 7.75737,12.20973 14.99121,11.13431 l 208.78711,-31.03969 c 7.23383,-1.07542 12.17931,-7.77994 11.10386,-15.01381 z"
     style="display:inline;overflow:visible;visibility:visible;opacity:1;fill:#feffdd;fill-opacity:1;fill-rule:evenodd;stroke:#331d16;stroke-width:2.53213644;stroke-linecap:round;stroke-linejoin:round;stroke-miterlimit:4;stroke-dasharray:none;stroke-dashoffset:0;stroke-opacity:1;marker:none;marker-start:none;marker-mid:none;marker-end:none;enable-background:accumulate"
     inkscape:connector-curvature="0" />
  <rect
     transform="matrix(0.98782178,-0.15558963,0.15558963,0.98782178,0,0)"
     ry="14.307431"
     rx="14.307431"
     y="335.14655"
     x="384.71643"
     height="76.306297"
     width="76.306297"
     id="rect4373"
     style="color:#000000;clip-rule:nonzero;display:inline;overflow:visible;visibility:visible;opacity:1;isolation:auto;mix-blend-mode:normal;color-interpolation:sRGB;color-interpolation-filters:linearRGB;solid-color:#000000;solid-opacity:1;fill:#e9dada;fill-opacity:1;fill-rule:evenodd;stroke:#492b2b;stroke-width:4;stroke-linecap:round;stroke-linejoin:round;stroke-miterlimit:4;stroke-dasharray:none;stroke-dashoffset:0;stroke-opacity:1;marker:none;marker-start:none;marker-mid:none;marker-end:none;color-rendering:auto;image-rendering:auto;shape-rendering:auto;text-rendering:auto;enable-background:accumulate" />
  <g
     transform="matrix(0.98782178,-0.15558963,0.15558963,0.98782178,0,0)"
     style="color:#000000;font-style:normal;font-variant:normal;font-weight:normal;font-stretch:semi-expanded;font-size:65.30673981px;line-height:125%;font-family:Ravie;-inkscape-font-specification:'Ravie Semi-Expanded';letter-spacing:0px;word-spacing:0px;clip-rule:nonzero;display:inline;overflow:visible;visibility:visible;opacity:1;isolation:auto;mix-blend-mode:normal;color-interpolation:sRGB;color-interpolation-filters:linearRGB;solid-color:#000000;solid-opacity:1;fill:#492b2b;fill-opacity:1;fill-rule:nonzero;stroke:none;stroke-width:1px;stroke-linecap:butt;stroke-linejoin:miter;stroke-miterlimit:4;stroke-dasharray:none;stroke-dashoffset:0;stroke-opacity:1;color-rendering:auto;image-rendering:auto;shape-rendering:auto;text-rendering:auto;enable-background:accumulate"
     id="text4375">
    <path
       d="m 436.17394,395.74476 q 0,0.44643 -0.19133,0.44643 -0.44643,0 -1.94517,-0.12755 -1.49874,-0.12755 -3.2207,-0.12755 -10.04473,0 -15.81647,2.61482 -0.31888,0.15944 -0.44644,-0.19133 -0.31888,-2.04084 -0.31888,-5.03831 0,-8.09957 3.02937,-18.94151 2.35972,-8.41844 5.00642,-13.90319 -4.5281,3.44391 -9.02432,3.44391 -4.91076,0 -7.30236,-3.44391 -1.5944,-2.26405 -1.5944,-5.54852 0,-4.11356 2.67859,-6.09062 3.18881,-2.35972 8.03579,-2.35972 5.89929,0 5.89929,3.53958 0,2.48727 -2.04083,5.3253 -2.00895,2.80615 -4.8151,4.33678 -0.5421,0.28699 -0.5421,0.54209 0,0.38266 0.92476,0.38266 2.67859,0 6.37761,-3.66712 3.82657,-3.79468 5.77174,-8.73733 2.48727,-0.60588 7.17481,-1.91329 0.28699,-0.0957 0.35077,0.0319 0.0638,0.12755 -0.0319,0.44643 -4.8151,18.08053 -4.8151,32.36638 0,7.01537 1.49874,10.45928 0.44644,1.05231 2.4235,1.37119 0.86097,0.12755 2.32782,0.66965 0.60588,0.38266 0.60588,4.11356 z"
       style=""
       id="path4483" />
  </g>
  <rect
     style="color:#000000;clip-rule:nonzero;display:inline;overflow:visible;visibility:visible;opacity:1;isolation:auto;mix-blend-mode:normal;color-interpolation:sRGB;color-interpolation-filters:linearRGB;solid-color:#000000;solid-opacity:1;fill:#e9dada;fill-opacity:1;fill-rule:evenodd;stroke:#492b2b;stroke-width:4;stroke-linecap:round;stroke-linejoin:round;stroke-miterlimit:4;stroke-dasharray:none;stroke-dashoffset:0;stroke-opacity:1;marker:none;marker-start:none;marker-mid:none;marker-end:none;color-rendering:auto;image-rendering:auto;shape-rendering:auto;text-rendering:auto;enable-background:accumulate"
     id="rect4395"
     width="76.306297"
     height="76.306297"
     x="249.12048"
     y="330.75131"
     rx="14.307431"
     ry="14.307431"
     transform="matrix(0.98782178,-0.15558963,0.15558963,0.98782178,0,0)" />
  <g
     transform="matrix(0.98782178,-0.15558963,0.15558963,0.98782178,0,0)"
     style="color:#000000;font-style:normal;font-variant:normal;font-weight:normal;font-stretch:semi-expanded;font-size:65.30673981px;line-height:125%;font-family:Ravie;-inkscape-font-specification:'Ravie Semi-Expanded';letter-spacing:0px;word-spacing:0px;clip-rule:nonzero;display:inline;overflow:visible;visibility:visible;opacity:1;isolation:auto;mix-blend-mode:normal;color-interpolation:sRGB;color-interpolation-filters:linearRGB;solid-color:#000000;solid-opacity:1;fill:#492b2b;fill-opacity:1;fill-rule:nonzero;stroke:none;stroke-width:1px;stroke-linecap:butt;stroke-linejoin:miter;stroke-miterlimit:4;stroke-dasharray:none;stroke-dashoffset:0;stroke-opacity:1;color-rendering:auto;image-rendering:auto;shape-rendering:auto;text-rendering:auto;enable-background:accumulate"
     id="text4397">
    <path
       d="m 314.00766,381.38834 q 0,2.00895 -0.12755,3.18881 -0.44644,3.92223 -4.24111,6.28194 -3.53958,2.20028 -8.38656,2.20028 -3.63524,0 -6.72838,-1.37119 -10.71439,-4.75132 -16.96445,-4.75132 -3.25258,0 -4.97454,1.37119 -0.98853,0.76531 -0.98853,2.61482 0,0.82909 0.22322,1.81762 -4.01789,0.38265 -6.53705,1.97706 -1.91328,-4.59188 -1.91328,-9.40698 0,-7.81257 4.5281,-13.01033 5.03831,-5.77173 14.03074,-6.05873 5.19776,-0.19133 7.62125,-1.81762 3.09314,-2.07272 4.91076,-7.97201 1.24364,-4.0179 1.24364,-6.34572 0,-3.2207 -2.51916,-4.36867 -2.04084,-0.92475 -7.39803,-0.98853 -3.38013,-0.0319 -6.28195,0.73343 -2.74237,0.73342 -2.74237,1.49874 0,0.35077 0.66965,0.51021 5.0702,1.21174 7.58936,2.90181 3.69901,2.42349 3.69901,6.50516 0,2.16839 -2.58293,3.4758 -2.71049,1.3393 -7.39803,1.3393 -2.32783,0 -4.84699,-0.31888 -8.8011,-1.14797 -8.8011,-6.79216 0,-4.97453 4.24111,-8.51411 5.99496,-5.00642 19.00528,-5.00642 9.78964,0 16.07158,3.25258 7.36615,3.76279 7.36615,11.06515 0,15.27438 -20.3127,15.91214 -9.50264,0.31888 -14.57284,3.98601 -4.62377,3.34825 -4.68754,8.70544 2.58293,-5.96307 12.14935,-5.96307 6.21817,0 10.96949,2.23217 1.14797,0.54209 5.19775,3.09314 2.55105,1.5944 4.33678,1.5944 2.99747,0 2.99747,-1.94517 0,-3.28447 -6.05873,-5.93118 6.25006,-4.71943 8.48223,-6.6646 3.7309,3.7309 3.7309,10.96949 z"
       style=""
       id="path4489" />
  </g>
  <g
     transform="matrix(0.98782178,-0.15558963,0.15558963,0.98782178,0,0)"
     style="color:#000000;font-style:normal;font-variant:normal;font-weight:normal;font-stretch:semi-expanded;font-size:65.30673981px;line-height:125%;font-family:Ravie;-inkscape-font-specification:'Ravie Semi-Expanded';letter-spacing:0px;word-spacing:0px;clip-rule:nonzero;display:inline;overflow:visible;visibility:visible;opacity:1;isolation:auto;mix-blend-mode:normal;color-interpolation:sRGB;color-interpolation-filters:linearRGB;solid-color:#000000;solid-opacity:1;fill:#492b2b;fill-opacity:1;fill-rule:nonzero;stroke:none;stroke-width:1px;stroke-linecap:butt;stroke-linejoin:miter;stroke-miterlimit:4;stroke-dasharray:none;stroke-dashoffset:0;stroke-opacity:1;color-rendering:auto;image-rendering:auto;shape-rendering:auto;text-rendering:auto;enable-background:accumulate"
     id="text4401">
    <path
       d="m 374.48059,376.94329 q -5.58041,-0.92475 -15.94403,-1.02042 -0.0638,8.00391 1.24363,15.40193 0.12755,0.70154 -0.12755,0.79721 -6.09062,0.86097 -9.78963,2.32782 1.21174,-8.13145 1.88139,-18.3994 -5.89929,0.15944 -12.532,1.88139 -0.47833,0.12755 -0.57399,-0.0638 -1.21175,-3.41202 -3.60335,-10.23606 5.29342,0.60587 17.12389,1.62629 l 0,-2.35972 q 0,-5.45285 -0.7972,-11.83047 -0.0957,-0.73342 0,-0.82909 5.0702,-0.60587 9.02432,-1.78573 -1.21175,6.50517 -1.65818,17.06011 6.63271,-0.0957 13.3292,-1.69006 0.44644,-0.12756 0.60588,0.12755 0,2.71048 1.81762,8.99243 z"
       style=""
       id="path4486" />
  </g>
  <path
     style="fill:#ffff00;fill-opacity:0.53987732;fill-rule:nonzero;marker:none"
     id="p3327-3"
     d="m 224.25273,115.19976 c 0.353,0 14.6499,34.04192 14.94408,34.25373 0.30594,0.22357 37.08957,3.28299 37.20724,3.64776 0.11767,0.34125 -27.84071,24.42829 -27.97015,24.79306 -0.1059,0.34125 8.3428,36.27765 8.04862,36.50122 -0.30594,0.21181 -31.87679,-18.92133 -32.22979,-18.92133 -0.36478,0 -31.93563,19.13314 -32.2298,18.92133 -0.30595,-0.22357 8.14276,-36.15997 8.03685,-36.50122 -0.11767,-0.36477 -28.08781,-24.45181 -27.97014,-24.79306 0.11767,-0.36477 36.90129,-3.42419 37.20723,-3.64776 0.30595,-0.21181 14.59108,-34.25373 14.95586,-34.25373 z"
     inkscape:connector-curvature="0" />
  <path
     style="opacity:0.76000001;fill:#ffffff;stroke:#000000;stroke-width:3.64626956px;stroke-linecap:butt;stroke-linejoin:round;stroke-opacity:1"
     id="p3329"
     d="m 264.42734,257.16017 c -0.50542,-1.13728 -2.54926,-5.62879 -2.54926,-5.62879 0,0 -21.47939,-6.12813 -25.99942,-13.98718 -4.52003,-7.85905 -11.68679,-24.79195 -11.68679,-24.79195 0,0 -0.38345,-1.02424 -2.9794,-4.12352 -7.19821,-2.70261 2.10877,-17.56668 12.82943,-7.42182 5.18952,8.61281 5.60183,9.43308 7.33533,13.44129 0.63843,1.43657 -17.22647,-38.60118 -19.48087,-43.83536 1.99311,-4.06353 3.96187,-9.09583 13.80038,-5.77464 1.87981,3.79982 18.21288,40.98217 18.21288,40.98217 l -10.0951,-23.46841 c 0,0 11.11802,-8.69215 13.80032,-3.4092 2.70225,5.27408 7.69213,18.06132 7.69213,18.06132 l -7.01155,-17.33637 c 0,0 8.81457,-6.40216 15.71344,-1.63119 3.78395,8.56846 6.63029,15.8333 6.63029,15.8333 0,0 -0.36797,-0.72051 -5.98522,-14.54304 0.27935,-0.12414 4.19006,-4.01247 10.22441,-1.9395 3.92154,5.75962 14.60182,32.05017 14.60182,32.05017 0,0 3.06801,7.11855 -0.25101,17.12335 1.80209,8.94745 3.83928,13.58527 3.83928,13.58527 l -38.64108,16.8141 z"
     inkscape:connector-curvature="0" />
  <path
     inkscape:connector-curvature="0"
     d="m 157.13318,250.86693 c 0.353,0 14.6499,34.04192 14.94408,34.25373 0.30594,0.22357 37.08957,3.28299 37.20724,3.64776 0.11767,0.34125 -27.84071,24.42829 -27.97015,24.79306 -0.1059,0.34125 8.3428,36.27765 8.04862,36.50122 -0.30594,0.21181 -31.87679,-18.92133 -32.22979,-18.92133 -0.36478,0 -31.93563,19.13314 -32.2298,18.92133 -0.30595,-0.22357 8.14276,-36.15997 8.03685,-36.50122 -0.11767,-0.36477 -28.08781,-24.45181 -27.97014,-24.79306 0.11767,-0.36477 36.90129,-3.42419 37.20723,-3.64776 0.30595,-0.21181 14.59108,-34.25373 14.95586,-34.25373 z"
     id="path4505"
     style="fill:#ffff00;fill-opacity:0.53987732;fill-rule:nonzero;marker:none" />
  <path
     style="display:inline;opacity:0.76000001;fill:#ffffff;stroke:#000000;stroke-width:3.09872627px;stroke-linecap:butt;stroke-linejoin:round;stroke-opacity:1"
     id="p3329-5"
     d="m 200.6323,365.21942 c -0.58467,-0.88134 -2.93424,-4.355 -2.93424,-4.355 0,0 -18.867,-2.08912 -23.76883,-8.03342 -4.90186,-5.94434 -13.30809,-19.11654 -13.30809,-19.11654 0,0 -0.46654,-0.80387 -3.08123,-3.03272 -6.41475,-1.24387 -0.72396,-15.01849 9.69765,-8.0381 5.56971,6.48101 6.0315,7.10985 8.05239,10.22259 0.73871,1.11317 -19.90804,-29.90201 -22.53925,-33.96818 -3.18772,-4.88508 6.97475,-12.57306 10.74479,-6.79559 2.11394,2.9174 21.0722,31.75726 21.0722,31.75726 0,0 -21.27015,-32.76636 -24.02831,-36.99318 -2.75816,-4.22681 7.01901,-10.49115 10.01569,-6.44478 3.01213,4.03609 22.31261,34.43446 22.31261,34.43446 0,0 -14.98838,-23.73082 -18.21796,-28.68006 -3.22959,-4.94923 7.56877,-11.81903 11.03443,-6.50799 4.38567,6.64313 19.58627,30.3877 19.58627,30.3877 0,0 -9.2306,-14.06802 -15.8974,-24.8537 -1.77057,-2.66812 3.23005,-7.61283 8.29222,-3.07497 4.10264,4.27005 25.59993,38.30147 25.59993,38.30147 0,0 3.58019,5.52973 2.21775,14.38361 2.77875,7.24173 5.14339,10.839 5.14339,10.839 l -29.99367,19.56854 z"
     inkscape:connector-curvature="0"
     sodipodi:nodetypes="ccsccccccczcczccccccccc" />
  <path
     style="color:#000000;clip-rule:nonzero;display:inline;overflow:visible;visibility:visible;opacity:1;isolation:auto;mix-blend-mode:normal;color-interpolation:sRGB;color-interpolation-filters:linearRGB;solid-color:#000000;solid-opacity:1;fill:none;fill-opacity:1;fill-rule:nonzero;stroke:#f2ff29;stroke-width:68.30000305;stroke-linecap:round;stroke-linejoin:miter;stroke-miterlimit:4;stroke-dasharray:none;stroke-dashoffset:0;stroke-opacity:0.46408841;marker:none;marker-start:none;marker-mid:none;marker-end:none;color-rendering:auto;image-rendering:auto;shape-rendering:auto;text-rendering:auto;enable-background:accumulate;filter-blend-mode:normal;filter-gaussianBlur-deviation:0"
     d="m 345.59425,304.34672 c 64.2634,-54.26686 109.96181,-27.13343 125.67064,-9.99653"
     id="path4513"
     inkscape:connector-curvature="0" />
  <path
     sodipodi:nodetypes="ccsccccccczcczccccccccc"
     inkscape:connector-curvature="0"
     d="m 509.0966,365.21942 c -0.58467,-0.88134 -2.93424,-4.355 -2.93424,-4.355 0,0 -18.867,-2.08912 -23.76883,-8.03342 -4.90186,-5.94434 -13.30809,-19.11654 -13.30809,-19.11654 0,0 -0.46654,-0.80387 -3.08123,-3.03272 -6.41475,-1.24387 -0.72396,-15.01849 9.69765,-8.0381 5.56971,6.48101 6.0315,7.10985 8.05239,10.22259 0.73871,1.11317 -19.90804,-29.90201 -22.53925,-33.96818 -3.18772,-4.88508 6.97475,-12.57306 10.74479,-6.79559 2.11394,2.9174 21.0722,31.75726 21.0722,31.75726 0,0 -21.27015,-32.76636 -24.02831,-36.99318 -2.75816,-4.22681 7.01901,-10.49115 10.01569,-6.44478 3.01213,4.03609 22.31261,34.43446 22.31261,34.43446 0,0 -14.98838,-23.73082 -18.21796,-28.68006 -3.22959,-4.94923 7.56877,-11.81903 11.03443,-6.50799 4.38567,6.64313 19.58627,30.3877 19.58627,30.3877 0,0 -9.2306,-14.06802 -15.8974,-24.8537 -1.77057,-2.66812 3.23005,-7.61283 8.29222,-3.07497 4.10264,4.27005 25.59993,38.30147 25.59993,38.30147 0,0 3.58019,5.52973 2.21775,14.38361 2.77875,7.24173 5.14339,10.839 5.14339,10.839 l -29.99367,19.56854 z"
     id="path4509"
     style="display:inline;opacity:0.76000001;fill:#ffffff;stroke:#000000;stroke-width:3.09872627px;stroke-linecap:butt;stroke-linejoin:round;stroke-opacity:1" />
</svg>
