<?xml version="1.0" encoding="UTF-8" standalone="no"?>
<!-- Created with Inkscape (http://www.inkscape.org/) -->

<svg
   xmlns:dc="http://purl.org/dc/elements/1.1/"
   xmlns:cc="http://creativecommons.org/ns#"
   xmlns:rdf="http://www.w3.org/1999/02/22-rdf-syntax-ns#"
   xmlns:svg="http://www.w3.org/2000/svg"
   xmlns="http://www.w3.org/2000/svg"
   xmlns:sodipodi="http://sodipodi.sourceforge.net/DTD/sodipodi-0.dtd"
   xmlns:inkscape="http://www.inkscape.org/namespaces/inkscape"
   version="1.0"
   width="100%"
   height="100%"
   viewBox="0 0 640 480"
   id="svg2"
   inkscape:version="0.91 r13725"
   sodipodi:docname="impress.svg">
  <metadata
     id="metadata37">
    <rdf:RDF>
      <cc:Work
         rdf:about="">
        <dc:format>image/svg+xml</dc:format>
        <dc:type
           rdf:resource="http://purl.org/dc/dcmitype/StillImage" />
        <dc:title></dc:title>
      </cc:Work>
    </rdf:RDF>
  </metadata>
  <sodipodi:namedview
     pagecolor="#ffffff"
     bordercolor="#666666"
     borderopacity="1"
     objecttolerance="10"
     gridtolerance="10"
     guidetolerance="10"
     inkscape:pageopacity="0"
     inkscape:pageshadow="2"
     inkscape:window-width="984"
     inkscape:window-height="650"
     id="namedview35"
     showgrid="false"
     inkscape:zoom="0.53382999"
     inkscape:cx="364.89207"
     inkscape:cy="182.99152"
     inkscape:window-x="217"
     inkscape:window-y="75"
     inkscape:window-maximized="0"
     inkscape:current-layer="svg2" />
  <defs
     id="defs4">
    <linearGradient
       gradientTransform="matrix(1.6811838,0,0,1.6811838,74.110022,100.78219)"
       id="SVGID_1_"
       gradientUnits="userSpaceOnUse"
       x1="64"
       x2="64"
       y1="4.3779998"
       y2="123.5449">
      <stop
         offset="0"
         style="stop-color:#FFFFFF"
         id="stop8" />
      <stop
         offset="1"
         style="stop-color:#C8C9CA"
         id="stop10" />
    </linearGradient>
  </defs>
  <g
     style="opacity:0.8"
     id="splashbg">
    <rect
       x="0"
       y="0"
       width="640"
       height="480"
       style="fill:black;fill-opacity:0.95;"
       id="rect5" />
    <path
       d="M 0 0 L 0 10 L 640 10 L 640 0 L 0 0 z M 0 20 L 0 30 L 640 30 L 640 20 L 0 20 z M 0 40 L 0 50 L 640 50 L 640 40 L 0 40 z M 0 60 L 0 70 L 640 70 L 640 60 L 0 60 z M 0 80 L 0 90 L 640 90 L 640 80 L 0 80 z M 0 100 L 0 110 L 640 110 L 640 100 L 0 100 z M 0 120 L 0 130 L 640 130 L 640 120 L 0 120 z M 0 140 L 0 150 L 640 150 L 640 140 L 0 140 z M 0 160 L 0 170 L 640 170 L 640 160 L 0 160 z M 0 180 L 0 190 L 640 190 L 640 180 L 0 180 z M 0 200 L 0 210 L 640 210 L 640 200 L 0 200 z M 0 220 L 0 230 L 640 230 L 640 220 L 0 220 z M 0 240 L 0 250 L 640 250 L 640 240 L 0 240 z M 0 260 L 0 270 L 640 270 L 640 260 L 0 260 z M 0 280 L 0 290 L 640 290 L 640 280 L 0 280 z M 0 300 L 0 310 L 640 310 L 640 300 L 0 300 z M 0 320 L 0 330 L 640 330 L 640 320 L 0 320 z M 0 340 L 0 350 L 640 350 L 640 340 L 0 340 z M 0 360 L 0 370 L 640 370 L 640 360 L 0 360 z M 0 380 L 0 390 L 640 390 L 640 380 L 0 380 z M 0 400 L 0 410 L 640 410 L 640 400 L 0 400 z M 0 420 L 0 430 L 640 430 L 640 420 L 0 420 z M 0 440 L 0 450 L 640 450 L 640 440 L 0 440 z M 0 460 L 0 470 L 640 470 L 640 460 L 0 460 z "
       style="fill:black;"
       id="path7" />
  </g>
  <rect
     transform="matrix(-0.99126336,0.13189749,0.13189749,0.99126336,0,0)"
     ry="31.220896"
     rx="30.264357"
     y="160.50171"
     x="-476.39429"
     height="237.97859"
     width="252.36275"
     id="rect4247"
     style="color:#000000;display:inline;overflow:visible;visibility:visible;fill:none;fill-opacity:1;fill-rule:evenodd;stroke:#ffffff;stroke-width:20;stroke-linecap:round;stroke-linejoin:round;stroke-miterlimit:4;stroke-dasharray:none;stroke-dashoffset:0;stroke-opacity:1;marker:none;enable-background:accumulate" />
  <rect
     style="color:#000000;display:inline;overflow:visible;visibility:visible;fill:none;fill-opacity:1;fill-rule:evenodd;stroke:#ffffff;stroke-width:20;stroke-linecap:round;stroke-linejoin:round;stroke-miterlimit:4;stroke-dasharray:none;stroke-dashoffset:0;stroke-opacity:1;marker:none;enable-background:accumulate"
     id="rect4232"
     width="252.36275"
     height="237.97859"
     x="-461.97424"
     y="89.612724"
     rx="30.264357"
     ry="31.220896"
     transform="matrix(-0.99025393,-0.13927364,-0.13927364,0.99025393,0,0)" />
  <path
     inkscape:connector-curvature="0"
     style="color:#000000;display:inline;overflow:visible;visibility:visible;fill:none;fill-opacity:1;stroke:#ffffff;stroke-width:20;stroke-linecap:round;stroke-linejoin:round;stroke-miterlimit:4;stroke-dasharray:none;stroke-dashoffset:0;stroke-opacity:1;marker:none;enable-background:accumulate"
     d="m 180.39062,43.009766 c -6.19517,0 -11.18359,4.863081 -11.18359,10.904296 l 0,36.644532 -79.724608,0 c -16.766454,0 -30.263672,13.924326 -30.263672,31.220706 l 0,175.53711 c 0,14.40076 9.358282,26.4563 22.167969,30.09179 -0.229552,0.80616 -0.359375,1.65539 -0.359375,2.53711 l 0,3.74805 c 0,5.09726 4.104189,9.20117 9.203125,9.20117 l 18.751951,0 -30.789061,60.68164 c -2.733773,5.38774 -0.487934,11.9816 5.03711,14.78321 l 8.935547,4.52929 c 5.525043,2.8016 12.174434,0.71977 14.908204,-4.66797 l 38.22266,-75.32617 23.91015,0 0,17.57617 c 0,6.04122 4.98842,10.9043 11.18359,10.9043 l 10.01954,0 c 6.19518,0 11.18164,-4.86308 11.18164,-10.9043 l 0,-17.57617 23.91211,0 38.2207,75.32813 c 2.73377,5.38773 9.38316,7.46957 14.9082,4.66796 l 8.93555,-4.53124 c 5.52504,-2.80161 7.77284,-9.39547 5.03906,-14.78321 l -30.79101,-60.68164 23.0625,0 c 5.09893,0 9.20312,-4.10391 9.20312,-9.20117 l 0,-3.74805 c 0,-1.39651 -0.31688,-2.7131 -0.86914,-3.89648 10.81901,-4.75006 18.36719,-15.79784 18.36719,-28.73242 l 0,-175.53711 c 0,-17.29638 -13.49722,-31.220706 -30.26367,-31.220706 l -79.72461,0 0,-36.644532 c 0,-6.041215 -4.98646,-10.904296 -11.18164,-10.904296 l -10.01954,0 z"
     id="rect4195" />
  <rect
     style="color:#000000;display:inline;overflow:visible;visibility:visible;fill:#b8a17a;fill-opacity:1;fill-rule:evenodd;stroke:#000000;stroke-width:3.19013023;stroke-linecap:round;stroke-linejoin:round;stroke-miterlimit:4;stroke-dasharray:none;stroke-dashoffset:0;stroke-opacity:1;marker:none;enable-background:accumulate"
     id="rect4249"
     width="252.36275"
     height="237.97859"
     x="-476.39429"
     y="160.50171"
     rx="30.264357"
     ry="31.220896"
     transform="matrix(-0.99126336,0.13189749,0.13189749,0.99126336,0,0)" />
  <rect
     transform="matrix(-0.99025393,-0.13927364,-0.13927364,0.99025393,0,0)"
     ry="31.220896"
     rx="30.264357"
     y="89.612724"
     x="-461.97424"
     height="237.97859"
     width="252.36275"
     id="rect5793-3"
     style="color:#000000;display:inline;overflow:visible;visibility:visible;fill:#cbba9d;fill-opacity:1;fill-rule:evenodd;stroke:#000000;stroke-width:3.19013023;stroke-linecap:round;stroke-linejoin:round;stroke-miterlimit:4;stroke-dasharray:none;stroke-dashoffset:0;stroke-opacity:1;marker:none;enable-background:accumulate" />
  <rect
     ry="10.90472"
     rx="11.182633"
     y="233.36"
     x="169.20729"
     height="138.01508"
     width="32.384552"
     id="rect4269"
     style="color:#000000;display:inline;overflow:visible;visibility:visible;fill:#46372f;fill-opacity:1;stroke:#000000;stroke-width:3.19013143;stroke-linecap:round;stroke-linejoin:round;stroke-miterlimit:4;stroke-dasharray:none;stroke-dashoffset:0;stroke-opacity:1;marker:none;enable-background:accumulate" />
  <rect
     ry="10.905454"
     rx="11.181882"
     y="197.46368"
     x="252.34422"
     height="138.02434"
     width="32.38237"
     id="rect4265"
     style="color:#000000;display:inline;overflow:visible;visibility:visible;fill:#6b4b39;fill-opacity:1;stroke:#000000;stroke-width:3.19013095;stroke-linecap:round;stroke-linejoin:round;stroke-miterlimit:4;stroke-dasharray:none;stroke-dashoffset:0;stroke-opacity:1;marker:none;enable-background:accumulate"
     transform="matrix(0.89188946,0.45225346,-0.45249002,0.89176947,0,0)" />
  <rect
     transform="matrix(-0.89188946,0.45225346,0.45249002,0.89176947,0,0)"
     style="color:#000000;display:inline;overflow:visible;visibility:visible;fill:#6b4b39;fill-opacity:1;stroke:#000000;stroke-width:3.19013095;stroke-linecap:round;stroke-linejoin:round;stroke-miterlimit:4;stroke-dasharray:none;stroke-dashoffset:0;stroke-opacity:1;marker:none;enable-background:accumulate"
     id="rect4267"
     width="32.38237"
     height="138.02434"
     x="-78.323235"
     y="365.15964"
     rx="11.181882"
     ry="10.905454" />
  <rect
     style="color:#000000;display:inline;overflow:visible;visibility:visible;fill:#6b4b39;fill-opacity:1;stroke:#000000;stroke-width:3.19013143;stroke-linecap:round;stroke-linejoin:round;stroke-miterlimit:4;stroke-dasharray:none;stroke-dashoffset:0;stroke-opacity:1;marker:none;enable-background:accumulate"
     id="rect4261"
     width="32.384552"
     height="138.01508"
     x="169.20729"
     y="43.009228"
     rx="11.182633"
     ry="10.90472" />
  <rect
     style="color:#000000;display:inline;overflow:visible;visibility:visible;fill:#ffe6d5;fill-opacity:1;fill-rule:evenodd;stroke:#000000;stroke-width:3.19013023;stroke-linecap:round;stroke-linejoin:round;stroke-miterlimit:4;stroke-dasharray:none;stroke-dashoffset:0;stroke-opacity:1;marker:none;enable-background:accumulate"
     id="rect5793"
     width="252.36275"
     height="237.97859"
     x="-311.58054"
     y="90.558228"
     rx="30.264357"
     ry="31.220896"
     transform="scale(-1,1)" />
  <rect
     style="color:#000000;display:inline;overflow:visible;visibility:visible;fill:#6b4b39;fill-opacity:1;fill-rule:evenodd;stroke:#000000;stroke-width:3.19013143;stroke-linecap:round;stroke-linejoin:round;stroke-miterlimit:4;stroke-dasharray:none;stroke-dashoffset:0;stroke-opacity:1;marker:none;enable-background:accumulate"
     id="rect4263"
     width="213.05623"
     height="22.150566"
     x="81.02668"
     y="320.74435"
     rx="9.2038555"
     ry="9.2008305" />
  <g
     id="g4293">
    <rect
       id="rect12"
       y="107.50689"
       x="80.834763"
       width="201.74207"
       style="fill:url(#SVGID_1_)"
       height="201.74207" />
    <g
       id="g14"
       transform="matrix(1.6811838,0,0,1.6811838,74.110022,100.78219)">
      <rect
         id="rect16"
         y="4"
         x="4"
         width="120"
         style="fill:none;stroke:#575757;stroke-miterlimit:10"
         height="120" />
      <line
         id="line18"
         y2="104"
         y1="104"
         x2="124"
         x1="4"
         style="fill:none;stroke:#575757;stroke-miterlimit:10" />
      <line
         id="line20"
         y2="84"
         y1="84"
         x2="124"
         x1="4"
         style="fill:none;stroke:#575757;stroke-miterlimit:10" />
      <line
         id="line22"
         y2="64"
         y1="64"
         x2="124"
         x1="4"
         style="fill:none;stroke:#575757;stroke-miterlimit:10" />
      <line
         id="line24"
         y2="44"
         y1="44"
         x2="124"
         x1="4"
         style="fill:none;stroke:#575757;stroke-miterlimit:10" />
      <line
         id="line26"
         y2="24"
         y1="24"
         x2="124"
         x1="4"
         style="fill:none;stroke:#575757;stroke-miterlimit:10" />
      <line
         id="line28"
         y2="124"
         y1="4"
         x2="104"
         x1="104"
         style="fill:none;stroke:#575757;stroke-miterlimit:10" />
      <line
         id="line30"
         y2="124"
         y1="4"
         x2="84"
         x1="84"
         style="fill:none;stroke:#575757;stroke-miterlimit:10" />
      <line
         id="line32"
         y2="124"
         y1="4"
         x2="64"
         x1="64"
         style="fill:none;stroke:#575757;stroke-miterlimit:10" />
      <line
         id="line34"
         y2="124"
         y1="4"
         x2="44"
         x1="44"
         style="fill:none;stroke:#575757;stroke-miterlimit:10" />
      <line
         id="line36"
         y2="124"
         y1="4"
         x2="24"
         x1="24"
         style="fill:none;stroke:#575757;stroke-miterlimit:10" />
    </g>
    <polyline
       id="polyline38"
       style="fill:none;stroke:#ec4431;stroke-width:4;stroke-linecap:round;stroke-linejoin:round;stroke-miterlimit:10"
       points=" 10.77,113.19 33.47,75.66 47.57,93.52 70.91,61.35 92.81,73.84 116.16,13.5 "
       transform="matrix(1.6811838,0,0,1.6811838,74.110022,100.78219)" />
    <g
       id="g40"
       style="opacity:0.2"
       transform="matrix(1.6811838,0,0,1.6811838,74.110022,100.78219)">
      <path
         inkscape:connector-curvature="0"
         id="path42"
         style="fill:#424242"
         d="M 121,7 121,121 7,121 7,7 121,7 m 3,-3 -120,0 0,120 120,0 0,-120 0,0 z" />
    </g>
  </g>
  <path
     style="fill:#ffff00;fill-opacity:0.53987732;fill-rule:nonzero;marker:none"
     id="p3327-3"
     d="m 284.46034,241.38108 c 0.353,0 14.6499,34.04192 14.94408,34.25373 0.30594,0.22357 37.08957,3.28299 37.20724,3.64776 0.11767,0.34125 -27.84071,24.42829 -27.97015,24.79306 -0.1059,0.34125 8.3428,36.27765 8.04862,36.50122 -0.30594,0.21181 -31.87679,-18.92133 -32.22979,-18.92133 -0.36478,0 -31.93563,19.13314 -32.2298,18.92133 -0.30595,-0.22357 8.14276,-36.15997 8.03685,-36.50122 -0.11767,-0.36477 -28.08781,-24.45181 -27.97014,-24.79306 0.11767,-0.36477 36.90129,-3.42419 37.20723,-3.64776 0.30595,-0.21181 14.59108,-34.25373 14.95586,-34.25373 z"
     inkscape:connector-curvature="0" />
  <path
     style="opacity:0.76000001;fill:#ffffff;stroke:#000000;stroke-width:3.64626956px;stroke-linecap:butt;stroke-linejoin:round;stroke-opacity:1"
     id="p3329"
     d="m 324.63495,383.34149 c -0.50542,-1.13728 -2.54926,-5.62879 -2.54926,-5.62879 0,0 -21.47939,-6.12813 -25.99942,-13.98718 -4.52003,-7.85905 -11.68679,-24.79195 -11.68679,-24.79195 0,0 -0.38345,-1.02424 -2.9794,-4.12352 -7.19821,-2.70261 2.10877,-17.56668 12.82943,-7.42182 5.18952,8.61281 5.60183,9.43308 7.33533,13.44129 0.63843,1.43657 -17.22647,-38.60118 -19.48087,-43.83536 1.99311,-4.06353 3.96187,-9.09583 13.80038,-5.77464 1.87981,3.79982 18.21288,40.98217 18.21288,40.98217 l -10.0951,-23.46841 c 0,0 11.11802,-8.69215 13.80032,-3.4092 2.70225,5.27408 7.69213,18.06132 7.69213,18.06132 l -7.01155,-17.33637 c 0,0 8.81457,-6.40216 15.71344,-1.63119 3.78395,8.56846 6.63029,15.8333 6.63029,15.8333 0,0 -0.36797,-0.72051 -5.98522,-14.54304 0.27935,-0.12414 4.19006,-4.01247 10.22441,-1.9395 3.92154,5.75962 14.60182,32.05017 14.60182,32.05017 0,0 3.06801,7.11855 -0.25101,17.12335 1.80209,8.94745 3.83928,13.58527 3.83928,13.58527 l -38.64108,16.8141 z"
     inkscape:connector-curvature="0" />
</svg>
