<?xml version="1.0" encoding="UTF-8" standalone="no"?>
<!-- Created with Inkscape (http://www.inkscape.org/) -->

<svg
   xmlns:dc="http://purl.org/dc/elements/1.1/"
   xmlns:cc="http://creativecommons.org/ns#"
   xmlns:rdf="http://www.w3.org/1999/02/22-rdf-syntax-ns#"
   xmlns:svg="http://www.w3.org/2000/svg"
   xmlns="http://www.w3.org/2000/svg"
   xmlns:sodipodi="http://sodipodi.sourceforge.net/DTD/sodipodi-0.dtd"
   xmlns:inkscape="http://www.inkscape.org/namespaces/inkscape"
   version="1.0"
   width="100%"
   height="100%"
   viewBox="0 0 640 480"
   id="svg2383"
   inkscape:version="0.91 r13725"
   sodipodi:docname="wordmix.svg">
  <metadata
     id="metadata561">
    <rdf:RDF>
      <cc:Work
         rdf:about="">
        <dc:format>image/svg+xml</dc:format>
        <dc:type
           rdf:resource="http://purl.org/dc/dcmitype/StillImage" />
      </cc:Work>
    </rdf:RDF>
  </metadata>
  <sodipodi:namedview
     pagecolor="#ffffff"
     bordercolor="#666666"
     borderopacity="1"
     objecttolerance="10"
     gridtolerance="10"
     guidetolerance="10"
     inkscape:pageopacity="0"
     inkscape:pageshadow="2"
     inkscape:window-width="1073"
     inkscape:window-height="796"
     id="namedview559"
     showgrid="false"
     inkscape:zoom="0.49166667"
     inkscape:cx="320"
     inkscape:cy="565.42373"
     inkscape:window-x="0"
     inkscape:window-y="0"
     inkscape:window-maximized="0"
     inkscape:current-layer="svg2383" />
  <defs
     id="defs2385" />
  <g
     style="opacity:0.8"
     id="splashbg">
    <rect
       x="0"
       y="0"
       width="640"
       height="480"
       style="fill:black;fill-opacity:0.95;"
       id="rect5" />
    <path
       d="M 0 0 L 0 10 L 640 10 L 640 0 L 0 0 z M 0 20 L 0 30 L 640 30 L 640 20 L 0 20 z M 0 40 L 0 50 L 640 50 L 640 40 L 0 40 z M 0 60 L 0 70 L 640 70 L 640 60 L 0 60 z M 0 80 L 0 90 L 640 90 L 640 80 L 0 80 z M 0 100 L 0 110 L 640 110 L 640 100 L 0 100 z M 0 120 L 0 130 L 640 130 L 640 120 L 0 120 z M 0 140 L 0 150 L 640 150 L 640 140 L 0 140 z M 0 160 L 0 170 L 640 170 L 640 160 L 0 160 z M 0 180 L 0 190 L 640 190 L 640 180 L 0 180 z M 0 200 L 0 210 L 640 210 L 640 200 L 0 200 z M 0 220 L 0 230 L 640 230 L 640 220 L 0 220 z M 0 240 L 0 250 L 640 250 L 640 240 L 0 240 z M 0 260 L 0 270 L 640 270 L 640 260 L 0 260 z M 0 280 L 0 290 L 640 290 L 640 280 L 0 280 z M 0 300 L 0 310 L 640 310 L 640 300 L 0 300 z M 0 320 L 0 330 L 640 330 L 640 320 L 0 320 z M 0 340 L 0 350 L 640 350 L 640 340 L 0 340 z M 0 360 L 0 370 L 640 370 L 640 360 L 0 360 z M 0 380 L 0 390 L 640 390 L 640 380 L 0 380 z M 0 400 L 0 410 L 640 410 L 640 400 L 0 400 z M 0 420 L 0 430 L 640 430 L 640 420 L 0 420 z M 0 440 L 0 450 L 640 450 L 640 440 L 0 440 z M 0 460 L 0 470 L 640 470 L 640 460 L 0 460 z "
       style="fill:black;"
       id="path7" />
  </g>
  <path
     style="color:#000000;clip-rule:nonzero;display:inline;overflow:visible;visibility:visible;opacity:1;isolation:auto;mix-blend-mode:normal;color-interpolation:sRGB;color-interpolation-filters:linearRGB;solid-color:#000000;solid-opacity:1;fill:none;fill-opacity:0.99545456;fill-rule:nonzero;stroke:#ffffff;stroke-width:20;stroke-linecap:butt;stroke-linejoin:miter;stroke-miterlimit:4;stroke-dasharray:none;stroke-dashoffset:0;stroke-opacity:1;marker:none;marker-start:none;marker-mid:none;marker-end:none;color-rendering:auto;image-rendering:auto;shape-rendering:auto;text-rendering:auto;enable-background:accumulate;filter-blend-mode:normal;filter-gaussianBlur-deviation:0"
     d="M 402.74609 18.261719 L 20.511719 75.125 L 73.185547 429.19531 L 248.14648 403.16602 C 304.96109 414.71045 478.27625 447.49708 481.07617 447.55078 C 483.41748 447.64378 490.67723 449.28262 493.70312 450.02539 C 498.57238 451.15597 502.75477 452.4547 506.93945 452.93555 C 511.1113 453.51708 517.35365 454.31121 520.91406 455.27539 C 524.51839 456.29631 533.49805 456.875 533.49805 456.875 C 533.49805 456.875 547.34611 460.22131 550.21289 459 C 552.979 457.76588 554.83605 451.60825 556.07031 445.93359 C 557.34849 440.31567 557.53285 434.45623 555.60352 433.13672 C 553.61744 431.86114 534.26624 429.96446 529.17188 428.19141 C 524.06469 426.51904 516.77241 425.54043 512.14844 424.49219 C 507.5373 423.34327 489.7163 421.07667 484.22656 418.79297 C 481.06436 417.45553 403.22329 402.71029 335.82227 390.12305 L 420.4668 377.53125 C 425.23038 380.04848 430.6014 380.46875 432.53711 380.46875 C 433.06169 380.46875 436.51895 378.07312 441.51953 374.40039 L 455.41992 372.33203 L 454.30078 364.81445 C 472.46738 351.01356 496.19205 332.50134 501.70898 328.42578 C 510.68723 321.71992 551.10954 290.63659 553.13281 288.86523 C 555.15608 287.13604 562.99737 271.44555 564.47266 268.24023 C 565.90581 265.03491 567.9278 259.21484 562.99609 255.16602 C 560.08764 252.84638 532.77295 241.2063 529.02148 240.02539 C 525.22785 238.88666 522.32028 239.77369 520.00195 240.61719 C 517.68362 241.50287 492.09877 257.78187 470.60156 272.03711 C 463.26218 276.8896 453.28651 283.32469 443.1582 289.91406 L 402.74609 18.261719 z "
     id="rect4689-7" />
  <g
     id="g4822"
     transform="matrix(0.98911457,-0.14714742,0.14714742,0.98911457,43.092789,448.06627)">
    <rect
       y="-372.2034"
       x="32.542374"
       height="357.96609"
       width="386.4407"
       id="rect4689"
       style="color:#000000;clip-rule:nonzero;display:inline;overflow:visible;visibility:visible;opacity:1;isolation:auto;mix-blend-mode:normal;color-interpolation:sRGB;color-interpolation-filters:linearRGB;solid-color:#000000;solid-opacity:1;fill:#a6c3d1;fill-opacity:1;fill-rule:nonzero;stroke:none;stroke-width:1;stroke-linecap:butt;stroke-linejoin:miter;stroke-miterlimit:4;stroke-dasharray:none;stroke-dashoffset:0;stroke-opacity:1;marker:none;marker-start:none;marker-mid:none;marker-end:none;color-rendering:auto;image-rendering:auto;shape-rendering:auto;text-rendering:auto;enable-background:accumulate" />
    <path
       inkscape:connector-curvature="0"
       id="path4801"
       d="m 95.878906,-344.73054 c -3.463542,1.16211 -6.686849,2.07357 -9.671875,2.73438 -2.89388,0.61523 -6.038411,1.12695 -9.433593,1.53711 -0.227865,6.08398 -1.800131,13.85417 -4.716797,23.31054 -2.757162,9.02344 -5.85612,15.90495 -9.296875,20.64454 -1.800131,-0.82032 -3.111329,-1.40235 -3.931641,-1.74415 l -1.810547,2.4961 c -0.911458,1.27604 -1.686198,2.32422 -2.324219,3.14453 4.671224,0.8431 8.499349,1.64062 11.484375,2.39258 4.488932,1.11653 9.319662,2.54166 14.492188,4.27344 0,-2.43816 0.215495,-5.12891 0.648437,-8.06836 -5.605468,-0.27344 -9.079426,-0.56966 -10.423828,-0.88868 1.298829,-2.16471 2.506511,-4.78515 3.623047,-7.86132 0.979818,-2.6888 1.845703,-5.36524 2.597656,-8.03125 7.952474,0.88866 13.808594,1.51627 17.56836,1.88085 0.70638,2.3698 1.058594,5.66146 1.058594,9.87696 0,3.82812 -0.283855,7.70183 -0.853516,11.62109 6.083978,-1.02538 11.689448,-1.53711 16.816408,-1.53711 1.48112,0 4.08919,0.0892 7.82617,0.27149 1.54948,-2.71159 2.6888,-4.73763 3.41797,-6.08203 -1.59505,-0.36459 -3.20052,-0.72917 -4.81836,-1.09375 -2.09635,-0.66081 -3.36198,-1.58464 -3.79492,-2.76954 -3.05339,-8.81835 -5.50196,-15.90494 -7.34766,-21.25976 -4.03321,-11.07422 -7.736979,-19.35612 -11.109374,-24.84766 z m 180.460934,0.29297 c -0.34607,0.009 -0.51953,0.1836 -0.51953,0.52539 0,0.0684 0.0104,0.38737 0.0332,0.95704 0.0228,0.56966 0.0351,1.04817 0.0351,1.43554 0,6.22071 -0.60481,12.54493 -1.8125,18.9707 -1.43554,7.61068 -3.49674,13.79623 -6.18555,18.5586 -2.52929,4.51172 -5.01302,6.76757 -7.45117,6.76757 -1.64062,0 -2.93945,-0.69401 -3.89648,-2.08398 -0.95703,-1.41276 -1.43555,-3.21289 -1.43555,-5.40039 0,-4.12435 1.33204,-9.28646 3.99805,-15.48437 2.57487,-6.01563 5.80013,-11.63151 9.67383,-16.84961 -4.69402,0.13672 -8.83073,0.20508 -12.40821,0.20508 -3.71419,0 -8.47656,-0.13672 -14.28711,-0.41016 -0.25064,-0.0228 -0.41015,0.0684 -0.47851,0.27344 -0.43295,1.25325 -1.27604,3.12174 -2.5293,5.60547 -0.0684,0.18229 0.0456,0.27343 0.3418,0.27343 4.53451,-0.43294 9.16016,-0.69596 13.87695,-0.78711 -3.78255,3.39519 -7.04102,7.25847 -9.77539,11.58789 -4.21549,6.65365 -6.32226,13.29492 -6.32226,19.92578 0,4.14714 1.17252,7.38282 3.51953,9.70703 2.21028,2.21029 5.16211,3.31641 8.85351,3.31641 3.21289,0 6.58529,-0.88867 10.11719,-2.66601 4.51172,-2.27865 8.4642,-5.70899 11.85938,-10.28907 -1e-5,2.32422 -0.67123,6.99545 -2.01563,14.01367 -0.0456,0.27345 0.056,0.44532 0.30664,0.51368 0.29623,0.0684 0.6836,-0.0579 1.16211,-0.37696 2.82552,-1.86848 6.32422,-3.51953 10.49414,-4.95507 4.60287,-1.59506 8.6237,-2.39258 12.06445,-2.39258 0.20508,0 0.51367,0.0104 0.92383,0.0332 0.43294,0.0228 0.75195,0.0352 0.95703,0.0352 l -0.51367,-6.66407 c -0.95703,-0.31901 -2.028,-0.48046 -3.21289,-0.48046 -1.93685,0 -3.78255,0.51366 -5.53711,1.53906 1.07097,-5.97006 1.83529,-12.4082 2.29102,-19.3125 0.0228,-0.29622 0.29622,-5.97005 0.82031,-17.02148 0.0228,-0.75196 0.48893,-1.12696 1.40039,-1.12696 0.38737,0 1.10612,0.0912 2.1543,0.27344 1.13932,0.18229 2.0052,0.28385 2.59765,0.30664 0.18229,-1.11653 0.27344,-2.26627 0.27344,-3.45117 -8.27148,-2.16471 -14.5957,-3.8405 -18.9707,-5.02539 -0.15381,-0.0342 -0.28699,-0.0497 -0.40235,-0.0469 z m -129.2832,0.45703 -0.61523,8.61329 c 1.11653,0.70638 2.49414,1.06054 4.13476,1.06054 1.27604,0 2.6556,-0.26106 4.13672,-0.78515 -1.23047,6.01562 -1.8457,12.22395 -1.8457,18.62695 0,6.08398 0.66081,14.13997 1.98242,24.16601 0.0228,0.22786 0.0332,0.44336 0.0332,0.64844 0,1.43555 -0.85352,2.47136 -2.5625,3.10938 -1.59505,0.52408 -2.80273,0.90104 -3.62304,1.1289 -0.43295,0.15951 -0.65039,0.83073 -0.65039,2.01563 0,0.95703 0.11393,1.84765 0.34179,2.66797 9.75261,-2.14193 19.30013,-4.14909 28.64258,-6.01758 -4.01042,-7.83854 -6.76758,-15.34571 -8.27148,-22.52344 2.39257,2.05078 4.43294,3.5319 6.11914,4.44336 3.00781,1.59505 6.26627,2.39258 9.77539,2.39258 8.5677,0 14.73046,-4.70443 18.49023,-14.11524 1.11654,-2.82552 1.67578,-5.51627 1.67578,-8.06835 0,-4.07878 -1.36718,-7.32487 -4.10156,-9.74024 -3.12174,-2.77995 -7.81575,-4.16992 -14.08203,-4.16992 -2.34701,0 -5.81055,0.22786 -10.39063,0.68359 -4.55729,0.45573 -7.86133,0.6836 -9.91211,0.6836 -6.47135,0 -12.89713,-1.60742 -19.27734,-4.82032 z m 224.57813,3.00977 c -1.48112,0 -3.23568,0.48893 -5.26368,1.46875 -8.79557,4.26107 -14.76563,12.00846 -17.91015,23.24219 -0.13672,-0.97982 -0.20508,-2.1875 -0.20508,-3.62305 0,-7.26888 1.13932,-14.15039 3.41797,-20.64453 -15.08464,1.11654 -23.92579,1.67383 -26.52344,1.67383 -0.47851,0 -0.71875,0.0931 -0.71875,0.27539 0,3.30403 0.42253,5.02344 1.26563,5.16015 l 4.58007,0.3418 c 1.5267,0.3418 2.28907,1.46875 2.28907,3.38281 l 0,1.47071 c 0,5.14973 0.44531,10.82356 1.33398,17.02148 0.91146,6.49414 2.09635,11.95247 3.55469,16.37305 -1.77735,-0.70638 -3.36198,-1.06055 -4.75196,-1.06055 -1.25325,0 -2.30143,0.23828 -3.14453,0.7168 l 0.3418,8.16992 c 1.66341,-1.57227 4.67122,-2.35742 9.02344,-2.35742 4.94466,0 9.66146,0.97786 14.15039,2.9375 -2.09633,-8.38542 -3.16729,-14.01172 -3.21289,-16.88282 0.70638,-4.94466 1.972,-9.17252 3.79492,-12.68164 1.89127,-3.62304 3.86133,-5.43554 5.91211,-5.43554 3.09896,0 4.64844,4.56965 4.64844,13.70703 0,8.49934 -1.26368,15.57357 -3.79297,21.22461 5.8789,1.66341 12.71484,3.3164 20.50781,4.95703 0.59245,-1.64063 1.01302,-2.77995 1.26367,-3.41797 -2.48372,-1.02539 -4.16992,-1.73177 -5.05859,-2.11914 -0.59245,-1.57227 -0.88867,-5.33203 -0.88867,-11.2793 1.54948,-5.3776 3.72656,-10.37825 6.52929,-15.0039 3.25847,-5.42318 6.20834,-8.13672 8.85157,-8.13672 1.59505,0 2.39257,1.36913 2.39257,4.10351 0,3.50912 -1.17252,8.54492 -3.51953,15.10742 -2.14192,5.97006 -4.11393,10.29949 -5.91406,12.98829 5.10417,-0.13672 9.92448,-0.20704 14.45899,-0.20704 4.78516,0 8.45377,0.0931 11.00585,0.27539 -0.86588,-1.80013 -1.53906,-3.1569 -2.01757,-4.06835 l -9.4668,-1.88086 c 9.16015,-7.86133 13.74023,-16.05209 13.74023,-24.57422 0,-4.30664 -1.23047,-7.8737 -3.6914,-10.69922 -2.43816,-2.75716 -5.45834,-4.13476 -9.0586,-4.13476 -5.05859,0 -9.70703,2.63281 -13.94531,7.89648 -3.73698,4.67122 -6.27669,8.52213 -7.62109,11.55273 0.61523,-4.10156 0.92187,-7.88607 0.92187,-11.34961 0,-9.66145 -2.42577,-14.49023 -7.27929,-14.49023 z m -189.33985,10.49219 c 4.375,0 7.89649,0.48893 10.5625,1.46875 2.75717,1.0026 4.13477,2.35937 4.13477,4.06836 0,1.86849 -2.10677,3.56705 -6.32227,5.09374 -4.01041,1.45834 -8.20312,2.1875 -12.57812,2.1875 -3.28126,0 -6.43816,-0.43489 -9.46875,-1.30078 -3.30404,-0.93424 -4.95508,-2.01562 -4.95508,-3.24609 0,-1.95963 1.86849,-3.80534 5.60547,-5.53711 3.8737,-1.82291 8.21354,-2.73437 13.02148,-2.73437 z m -91.816404,0.44531 c 4.238281,0 6.357422,1.5599 6.357422,4.68164 0,5.42317 -3.656251,8.13476 -10.970704,8.13476 -5.08138,0 -7.623046,-1.48112 -7.623046,-4.44336 -10e-7,-2.23307 1.298827,-4.20507 3.896484,-5.91406 2.483724,-1.64062 5.263672,-2.45898 8.339844,-2.45898 z m 55.757814,71.81836 c -0.13672,0.25064 -0.20508,0.88867 -0.20508,1.91406 0,1.66341 0.25065,2.63282 0.75195,2.90625 1.75456,0.45573 3.29167,0.78516 4.61328,0.99023 1.29882,0.50131 1.95963,1.53907 1.98243,3.11133 0.1595,17.43164 1.78971,30.65821 4.88867,39.68164 -1.98242,-0.93424 -3.78255,-1.40039 -5.40039,-1.40039 -1.07096,0 -1.97201,0.1823 -2.70117,0.54688 l -0.23829,8.75 c 1.57227,-1.11654 3.79297,-1.67578 6.66407,-1.67578 1.41276,0 3.4987,0.14909 6.25586,0.44531 3.23567,0.3418 5.49153,0.54687 6.76757,0.61523 7.4056,0.36458 11.60873,0.54688 12.61133,0.54688 6.49414,0 11.52995,-0.93425 15.10742,-2.80274 4.73959,-2.48372 7.44076,-6.75716 8.10157,-12.81836 0.0684,-0.22786 0.10156,-0.59244 0.10156,-1.09375 0,-4.26106 -2.5293,-6.39062 -7.58789,-6.39062 -0.93425,0 -2.028,0.0911 -3.28125,0.27344 -4.21549,0.63802 -7.48438,1.69661 -9.80859,3.17773 -2.1875,1.38997 -3.28126,2.97461 -3.28126,4.75195 10e-6,0.59245 0.11394,1.17253 0.3418,1.74219 1.38998,3.41797 4.30665,5.12696 8.75,5.12696 0.47852,-1e-5 1.0586,-0.0228 1.74219,-0.0684 0.68359,-0.0684 1.23047,-0.10157 1.64062,-0.10157 0.50131,0 0.75196,0.12436 0.75196,0.375 0,0.50131 -0.73959,1.08334 -2.22071,1.74414 -1.6862,0.75196 -3.48633,1.12696 -5.40039,1.12696 -6.0612,0 -10.38021,-1.28646 -12.95507,-3.86133 -2.96224,-2.93945 -4.65885,-8.35222 -5.0918,-16.23633 2.11914,0.0684 4.2487,0.14909 6.39062,0.24023 4.64844,0.1823 7.92969,0.41017 9.84375,0.6836 0.20508,0.0228 0.3418,0 0.41016,-0.0684 0.0911,-0.11393 0.0911,-0.37696 0,-0.78711 -0.93425,-3.94206 -1.40039,-6.7448 -1.40039,-8.4082 0,-0.47852 0.0332,-1.21811 0.10156,-2.22071 0.0684,-1.0026 0.10352,-1.75456 0.10352,-2.25586 0,-1.64062 -0.22787,-2.92903 -0.6836,-3.86328 -1.41276,0.0456 -3.24804,0.54688 -5.5039,1.50391 -0.93425,0.41015 -1.92448,0.90104 -2.97266,1.4707 l 1.8457,1.84571 c 0.72917,0.86588 1.09375,1.81055 1.09375,2.83593 0,0.61524 -0.0911,1.22005 -0.27343,1.8125 -0.11394,0.3418 -1.74414,0.69401 -4.88868,1.0586 -1.29882,0.13671 -2.84831,0.27343 -4.64843,0.41015 0,-0.59244 -0.0332,-1.60547 -0.10157,-3.04101 -0.0684,-1.43555 -0.10351,-2.56445 -0.10351,-3.38477 0,-4.51172 0.67318,-8.33985 2.01758,-11.48437 4.12434,-0.1823 6.4134,-0.27344 6.86914,-0.27344 5.85612,0 9.42318,1.00261 10.69922,3.00781 0.86588,1.32162 1.38997,3.60026 1.57226,6.83594 0.0456,0.29623 0.29622,0.44531 0.75196,0.44531 0.54687,0 1.29882,-0.0579 2.25585,-0.17187 1.20768,-0.11392 1.97005,-0.18228 2.28907,-0.20508 0.63802,-2.27865 1.27604,-4.56771 1.91406,-6.86914 0.88867,-2.73438 1.95964,-5.27604 3.21289,-7.62305 -8.06641,0.3418 -14.92513,0.51367 -20.57617,0.51367 -4.96745,0 -11.25651,-0.39974 -18.86719,-1.19726 -7.49675,-0.77474 -12.24675,-1.50391 -14.25195,-2.1875 z m -54.697268,0.37695 c 0.615234,2.5293 1.309245,4.73959 2.083985,6.63086 6.995443,0.18229 10.220703,0.27344 9.673833,0.27344 1.13931,1.29882 2.07356,2.92708 2.80273,4.88672 0.6836,1.8457 1.02539,3.5319 1.02539,5.05859 0,0.43294 -0.0228,0.74153 -0.0684,0.92383 -0.47852,6.17513 -5.53711,9.69466 -15.175781,10.56055 -1.048177,0.0911 -2.45052,0.13671 -4.205078,0.13671 -8.909505,0 -13.363281,-2.65365 -13.363281,-7.96289 0,-4.85352 3.26888,-8.89909 9.808594,-12.13476 0.410156,-0.20508 0.364583,-0.38737 -0.136719,-0.54688 -9.547526,-3.3496 -16.758464,-5.93489 -21.634766,-7.75781 -0.31901,-0.11393 -0.582031,-0.0456 -0.787109,0.20508 -1.162109,1.36718 -2.141927,3.10937 -2.939453,5.22851 -0.136719,0.41016 -0.04557,0.65039 0.273437,0.71875 5.08138,1.50391 8.932292,2.43816 11.552735,2.80274 0.182291,0.0228 0.296223,0.0788 0.341797,0.16992 0.02279,0.0683 -0.02279,0.12628 -0.136719,0.17187 -7.838542,3.60027 -11.757813,8.1224 -11.757813,13.56836 0,3.80534 1.80013,7.14454 5.400391,10.01563 3.873698,3.07617 8.772787,4.61328 14.697266,4.61328 0.660807,0 1.220052,-0.0456 1.675781,-0.13672 1.412761,3.12175 2.11914,5.57227 2.11914,7.34961 0,2.25586 -0.979817,4.05599 -2.939453,5.40039 -0.751953,0.52409 -2.83789,0.78516 -6.255859,0.78516 -1.025391,0 -2.073567,-0.0456 -3.144531,-0.13672 -1.070964,-0.11393 -1.582683,-0.16992 -1.53711,-0.16992 -0.592448,0 -0.70638,0.23828 -0.341797,0.71679 1.754558,2.25586 3.382813,4.2155 4.886719,5.87891 8.476563,-1.82291 15.780599,-2.73437 21.910157,-2.73437 5.491542,0 11.028652,0.72916 16.611332,2.1875 1.11654,-1.34441 2.0612,-2.68881 2.83593,-4.03321 0.61524,-1.04817 0.92383,-1.66341 0.92383,-1.8457 -1.38997,0.13672 -2.32421,0.20508 -2.80273,0.20508 -1.54948,0 -2.93946,-0.23828 -4.16993,-0.7168 -5.17252,-1.91406 -7.83854,-6.27864 -7.99804,-13.0918 12.7832,-0.91145 19.17383,-5.05859 19.17383,-12.4414 0,-5.10417 -3.26888,-11.10742 -9.8086,-18.01172 4.46615,-0.0684 6.80079,-0.11392 7.00586,-0.13672 0.88868,-2.02799 1.57227,-3.70378 2.05078,-5.02539 -12.57812,-0.63802 -21.794266,-1.17252 -27.650388,-1.60547 z m 142.923828,1.26367 c -0.25063,0.0912 -0.38736,0.20508 -0.41016,0.3418 0.77474,6.88151 1.4004,11.84896 1.87891,14.90234 0.0911,0.34183 0.27344,0.36459 0.54688,0.0684 5.14973,-4.07877 10.98306,-6.48177 17.5,-7.21094 -1.8685,2.3698 -3.70183,5.62826 -5.50196,9.7754 -2.57487,6.01562 -3.86328,11.74544 -3.86328,17.1914 0,6.81316 1.88086,12.18034 5.64063,16.09961 4.14713,4.32943 10.2871,6.49414 18.42187,6.49414 6.01563,0 11.42839,-1.23046 16.23633,-3.6914 5.49154,-2.80274 9.20573,-6.80274 11.14258,-11.99805 0.75195,-1.98242 1.12695,-3.5651 1.12695,-4.75 0,-3.71419 -3.58789,-6.05079 -10.76562,-7.00781 -2.11914,-0.27344 -3.96485,-0.41016 -5.53711,-0.41016 -3.5319,0 -6.33464,0.5013 -8.40821,1.50391 -2.05078,1.0026 -3.07617,2.27864 -3.07617,3.82812 0,2.89388 1.45833,5.35482 4.375,7.38281 2.46094,1.73178 5.41081,2.86068 8.85156,3.38477 0.27344,0 0.41016,0.20507 0.41016,0.61523 0,1.02539 -1.23047,2.36979 -3.69141,4.03321 -2.64322,1.75456 -5.06901,2.63086 -7.27929,2.63086 -2.96224,0 -5.28646,-1.83334 -6.97266,-5.50196 -1.57226,-3.3724 -2.35937,-7.67903 -2.35937,-12.91992 0,-9.43359 2.06315,-18.03646 6.1875,-25.80664 2.39258,0.3418 5.62825,1.85808 9.70703,4.54688 0.70638,0.45572 1.05859,1.24088 1.05859,2.35742 0,0.77474 -0.18229,1.95964 -0.54687,3.55468 -0.3418,1.57227 -0.51172,2.58724 -0.51172,3.04297 0,0.8431 0.61523,1.46876 1.8457,1.87891 2.59766,0.59245 4.7168,1.01497 6.35742,1.26562 0.54688,-5.65103 2.01563,-13.18293 4.40821,-22.59374 0.11393,-0.47852 -0.0228,-0.7168 -0.41016,-0.7168 -19.52799,0 -38.31445,-0.76432 -56.36133,-2.29102 z m 121.27734,1.74414 c -8.75,0 -15.86978,3.04102 -21.36132,9.125 -4.99024,5.53712 -7.48633,12.07683 -7.48633,19.61914 0,7.90691 2.41536,14.66407 7.24609,20.26954 4.67122,5.40038 10.0944,8.0996 16.26953,8.0996 6.72201,0 12.68165,-2.83593 17.87696,-8.50976 3.80534,-4.16992 6.97265,-9.57031 9.50195,-16.20117 2.1875,-5.76498 3.28125,-10.778 3.28125,-15.03907 0,-11.57552 -8.44336,-17.36328 -25.32813,-17.36328 z m -2.05078,15.51758 c 4.94466,0 9.17253,1.09375 12.68164,3.28125 3.60026,2.1875 5.40039,4.8763 5.40039,8.06641 0,3.16732 -2.06315,6.15234 -6.1875,8.95508 -4.21549,2.89388 -8.87434,4.33984 -13.97851,4.33984 -4.05599,0 -7.8737,-1.03581 -11.45117,-3.10938 -4.12435,-2.41536 -6.18555,-5.45833 -6.18555,-9.12695 0,-3.14453 2.2207,-6.02604 6.66406,-8.64648 4.23828,-2.50652 8.5905,-3.75977 13.05664,-3.75977 z m -109.28125,63.17188 -2.1875,8.0664 c 1.41276,1.29883 3.32682,1.94922 5.74219,1.94922 0.88867,0 1.57227,-0.0456 2.05078,-0.13672 -2.6888,6.5625 -4.64844,13.6823 -5.8789,21.36133 -0.6836,4.39779 -1.32162,10.88151 -1.91407,19.44922 -0.0911,1.59505 -0.79752,2.59765 -2.11914,3.00781 l -3.96484,0.54688 c -0.79753,0.13672 -1.19531,1.46874 -1.19531,3.99804 0.0228,0.1595 0.0456,0.29623 0.0684,0.41016 0.27344,-0.0911 4.13477,-0.16993 11.58593,-0.23828 l 16.13282,-0.10352 c -2.41537,-8.15755 -3.62305,-15.55078 -3.62305,-22.18164 0,-2.62044 0.0911,-4.20508 0.27344,-4.75195 3.12174,1.48112 5.24088,3.30404 6.35742,5.46875 0.82031,1.52669 1.32162,3.86328 1.5039,7.00781 0.25066,4.44336 0.52409,7.48438 0.82032,9.125 0.97981,5.24089 5.54947,7.86133 13.70703,7.86133 2.73437,0 6.0944,-0.35221 10.08203,-1.05859 5.94727,-1.04818 10.47135,-3.77214 13.57031,-8.16993 2.21028,-3.14453 3.31446,-6.18554 3.31446,-9.125 0,-1.45833 -0.5241,-2.77995 -1.57227,-3.96484 -1.23047,-1.41276 -2.88151,-2.11914 -4.95508,-2.11914 -1.41276,0 -2.97461,0.32943 -4.68359,0.99023 -3.5319,1.3444 -6.36784,3.02019 -8.50977,5.02539 -1.93685,1.80014 -2.90625,3.46355 -2.90625,4.99024 0,0.36458 0.0579,0.67122 0.17188,0.92187 0.79752,1.98242 2.722,2.97461 5.77539,2.97461 1.23046,0 2.8151,-0.21745 4.75195,-0.65039 1.93685,-0.45573 3.06381,-0.68359 3.38281,-0.68359 0.47852,0 0.71875,0.14909 0.71875,0.44531 0,0.8431 -1.58463,1.87891 -4.75195,3.10938 -3.25847,1.27604 -6.18555,1.91406 -8.7832,1.91406 -3.25847,0 -4.88867,-1.40039 -4.88867,-4.20313 0,-1.07096 0.18228,-2.54166 0.54687,-4.41015 0.38737,-1.89128 0.58203,-3.22331 0.58203,-3.99805 0,-1.89128 -0.8431,-3.46354 -2.5293,-4.7168 -2.07356,-1.5039 -5.66341,-2.79232 -10.76757,-3.86328 2.5065,0.27344 4.8763,0.41016 7.10937,0.41016 6.81315,0 12.55534,-1.28646 17.22656,-3.86133 5.33204,-2.91667 7.99805,-6.88151 7.99805,-11.89453 0,-3.32683 -1.08138,-6.00521 -3.24609,-8.0332 -2.55208,-2.39258 -6.347,-3.58789 -11.38282,-3.58789 -1.04817,0 -3.90689,0.1595 -8.57812,0.47851 -4.64843,0.29622 -7.99804,0.44336 -10.04883,0.44336 -4.76237,0 -8.94466,-0.53451 -12.54492,-1.60547 -4.28385,-1.27604 -8.43099,-3.47591 -12.44141,-6.59765 z m -63.10547,2.25586 c -3.46354,1.1621 -6.68684,2.07356 -9.67187,2.73437 -2.89388,0.61524 -6.03841,1.12891 -9.43359,1.53906 -0.22786,6.08399 -1.80013,13.85417 -4.7168,23.31055 -2.75717,9.02343 -5.85612,15.90494 -9.29688,20.64453 -1.80012,-0.82031 -3.11132,-1.40234 -3.93164,-1.74414 l -1.81054,2.49609 c -0.91146,1.27604 -1.6862,2.32422 -2.32422,3.14454 4.67122,0.8431 8.49935,1.64062 11.48437,2.39257 4.48894,1.11654 9.31966,2.53971 14.49219,4.27149 0,-2.43816 0.2155,-5.12695 0.64844,-8.06641 -5.60547,-0.27343 -9.07943,-0.56966 -10.42383,-0.88867 1.29883,-2.16471 2.50651,-4.78515 3.62305,-7.86133 0.97982,-2.6888 1.8457,-5.36523 2.59765,-8.03125 7.95248,0.88868 13.8086,1.51433 17.56836,1.87891 0.70638,2.36979 1.0586,5.66341 1.0586,9.8789 0,3.82813 -0.28386,7.70183 -0.85352,11.6211 6.08398,-1.02539 11.68945,-1.53906 16.81641,-1.53906 1.48112,0 4.08919,0.0911 7.82617,0.27343 1.54948,-2.71159 2.6888,-4.73958 3.41797,-6.08398 -1.59506,-0.36458 -3.20052,-0.72916 -4.81836,-1.09375 -2.09636,-0.66081 -3.36198,-1.58269 -3.79492,-2.76758 -3.05339,-8.81836 -5.50196,-15.90494 -7.34766,-21.25977 -4.03321,-11.07421 -7.73698,-19.35807 -11.10938,-24.8496 z m 173.24219,1.94921 c -7.20052,0 -12.88672,1.30925 -17.05664,3.92969 -3.48633,2.1875 -5.72982,5.12695 -6.73242,8.81836 -0.75195,2.71159 -1.12891,5.01302 -1.12891,6.9043 0,5.94726 3.68099,8.92187 11.04102,8.92187 1.07096,0 2.81315,-0.1263 5.22851,-0.37695 2.43816,-0.27343 4.15951,-0.41016 5.16211,-0.41016 3.82813,0 6.42579,1.34441 7.79297,4.03321 0.63802,1.29882 1.60547,5.27604 2.9043,11.92968 0.0912,0.47852 0.13672,0.89909 0.13672,1.26368 0,2.5065 -1.59506,4.42056 -4.78516,5.74218 -2.57487,1.07096 -5.7194,1.60743 -9.43359,1.60743 -4.7168,0 -7.07422,-0.55925 -7.07422,-1.67579 0,-0.36458 0.63802,-0.76237 1.91406,-1.19531 3.30404,-1.16211 5.63867,-2.1875 7.00586,-3.07617 2.87109,-1.84571 4.30664,-4.11393 4.30664,-6.80273 0,-1.77735 -1.08138,-3.20053 -3.24609,-4.27149 -2.23308,-1.11654 -5.27604,-1.67578 -9.12696,-1.67578 -1.86848,0 -3.6914,0.11393 -5.46874,0.3418 -3.57748,0.47851 -6.31186,1.60742 -8.20313,3.38476 -1.66341,1.54948 -2.49414,3.4056 -2.49414,5.57031 0,3.3724 1.98242,6.36979 5.94727,8.99024 4.73958,3.16731 11.17578,4.75 19.31054,4.75 8.29427,0 15.06185,-1.32162 20.30274,-3.96484 5.0358,-2.5293 8.11197,-5.97006 9.22851,-10.32227 0.8431,-3.25846 1.26563,-5.95768 1.26563,-8.09961 0,-4.10157 -1.33398,-6.96224 -4,-8.58008 -2.09636,-1.25326 -5.33203,-1.8789 -9.70703,-1.8789 -0.91146,0 -2.27865,0.0456 -4.10157,0.13672 -1.82292,0.0684 -2.9043,0.10156 -3.24609,0.10156 -3.85091,0 -6.68881,-0.62566 -8.51172,-1.87891 -1.38998,-0.95703 -2.43815,-2.5293 -3.14453,-4.7168 l -1.8457,-6.15234 c -0.43294,-1.07097 -0.64844,-2.05078 -0.64844,-2.93945 0,-1.89128 0.95703,-3.31641 2.87109,-4.27344 1.59506,-0.79753 3.64584,-1.19531 6.15235,-1.19531 2.028,0 3.83854,0.23827 5.43359,0.71679 1.61783,0.45573 2.42773,0.99219 2.42773,1.60743 0,0.45573 -0.58203,0.89909 -1.74414,1.33203 -1.27604,0.41015 -2.5397,0.82031 -3.79296,1.23047 -3.30404,1.25325 -4.95704,2.96224 -4.95704,5.12695 0,1.50391 1.24285,2.83789 3.72657,4 2.64323,1.25325 5.85611,1.87891 9.63867,1.87891 7.74739,0 11.62109,-2.42579 11.62109,-7.2793 0,-3.25847 -1.88086,-5.94727 -5.64062,-8.06641 -4.14714,-2.32422 -9.92253,-3.48633 -17.32813,-3.48633 z m -262.751951,0.25586 c -0.01495,-0.005 -0.03174,4.9e-4 -0.04883,0.0176 -3.691407,0.97982 -9.46875,1.89128 -17.330079,2.73438 -6.858723,0.75195 -11.813802,1.12695 -14.867187,1.12695 -0.843099,0 -1.265625,0.1595 -1.265625,0.47852 0,0.68359 0.468099,1.72135 1.402344,3.11132 0.957031,1.38998 1.628255,2.08399 2.015625,2.08399 0.136719,0 0.638021,-0.13672 1.503906,-0.41016 0.865885,-0.29622 1.561849,-0.44336 2.085937,-0.44336 0.729167,0 1.195313,0.23829 1.400391,0.7168 0.934245,1.73177 1.402344,4.8763 1.402344,9.43359 0,5.19531 -0.513672,11.24609 -1.539063,18.15039 -0.911458,6.35742 -1.663411,9.85417 -2.255859,10.49219 -0.797526,0.86589 -2.243489,1.49349 -4.339844,1.88086 -1.936848,0.36455 -2.916666,0.56964 -2.939453,0.61524 -0.660807,3.28125 -0.992187,5.34245 -0.992187,6.18554 10.322266,-1.68619 17.535156,-2.5293 21.636718,-2.5293 2.529297,0 5.696615,0.1823 9.501953,0.54688 3.828125,0.38737 5.866537,0.58203 6.117188,0.58203 0.31901,0 0.478516,-0.14908 0.478516,-0.44531 0,-2.05078 -0.136719,-4.61328 -0.410157,-7.68945 -0.06836,-0.66081 -0.205078,-0.99219 -0.410156,-0.99219 -0.159505,0 -0.785156,0.18229 -1.878906,0.54687 -1.070963,0.3418 -1.936849,0.51367 -2.597656,0.51367 -0.934245,0 -1.663412,-0.2858 -2.1875,-0.85546 -1.822917,-2.00521 -2.734375,-6.94987 -2.734375,-14.83399 0,-1.11653 0.04557,-2.41536 0.136718,-3.89648 0.524088,-8.15756 1.058594,-13.35287 1.605469,-15.58594 1.002604,-3.91927 3.020182,-6.49414 6.050781,-7.72461 0.410156,-0.18229 0.615235,-0.86588 0.615235,-2.05078 0,-1.13647 -0.05157,-1.72238 -0.15625,-1.75977 z m 179.001951,10.95508 c 4.42058,0 8.65885,0.89909 12.71485,2.69922 4.07877,1.77735 6.11914,3.62305 6.11914,5.53711 0,1.27605 -1.32162,2.27865 -3.96485,3.00781 -2.30143,0.61524 -5.13932,0.92383 -8.51172,0.92383 -3.41796,0 -7.33724,-0.63802 -11.75781,-1.91406 -5.49153,-1.59505 -8.23633,-3.4987 -8.23633,-5.70899 0,-1.27604 1.35482,-2.34701 4.06641,-3.21289 2.71159,-0.88867 5.90169,-1.33203 9.57031,-1.33203 z m -94.89258,1.53711 c 4.23828,0 6.35743,1.56185 6.35743,4.6836 0,5.42317 -3.65625,8.13476 -10.97071,8.13476 -5.08138,0 -7.62304,-1.48112 -7.62304,-4.44336 0,-2.23307 1.29883,-4.20507 3.89648,-5.91406 2.48373,-1.64063 5.26367,-2.46094 8.33984,-2.46094 z m -78.546871,68.988283 c -0.34607,0.0085 -0.519531,0.1836 -0.519531,0.52539 0,0.06836 0.01237,0.38737 0.03516,0.95703 0.02279,0.56967 0.0332,1.04818 0.0332,1.43555 0,6.22071 -0.602864,12.54297 -1.810547,18.96875 -1.435547,7.61067 -3.498698,13.79817 -6.1875,18.56055 -2.529297,4.51172 -5.013021,6.76758 -7.451172,6.76758 -1.640625,0 -2.939453,-0.69596 -3.896484,-2.08594 -0.957031,-1.41276 -1.435547,-3.21289 -1.435547,-5.40039 0,-4.12435 1.333985,-9.28451 4,-15.48242 2.57487,-6.01563 5.798177,-11.63347 9.671875,-16.85157 -4.694011,0.13672 -8.828776,0.20508 -12.40625,0.20508 -3.714193,0 -8.476563,-0.13671 -14.28711,-0.41015 -0.250651,-0.02279 -0.410156,0.06835 -0.478515,0.27343 -0.432943,1.25326 -1.276042,3.12175 -2.529297,5.60547 -0.06836,0.1823 0.04557,0.27344 0.341797,0.27344 4.534505,-0.43295 9.160156,-0.69401 13.876953,-0.78516 -3.782552,3.39519 -7.041016,7.25651 -9.775391,11.58594 -4.215495,6.65365 -6.324218,13.29688 -6.324218,19.92774 0,4.14713 1.174479,7.38281 3.521484,9.70703 2.210287,2.21028 5.160156,3.31445 8.851563,3.31445 3.21289,0 6.585286,-0.88867 10.117187,-2.66602 4.511719,-2.27864 8.466146,-5.70703 11.861328,-10.28711 0,2.32422 -0.673177,6.99544 -2.017578,14.01368 -0.04557,0.27343 0.05794,0.44336 0.308594,0.51171 0.296224,0.06836 0.683594,-0.05598 1.162109,-0.375 2.825521,-1.86848 6.322264,-3.52148 10.492191,-4.95703 4.60286,-1.59505 8.62564,-2.39257 12.0664,-2.39257 0.20508,0 0.51172,0.01235 0.92188,0.03515 0.43294,0.0228 0.75195,0.03321 0.95703,0.03321 l -0.51172,-6.66407 c -0.95703,-0.319 -2.02799,-0.47851 -3.21289,-0.47851 -1.93685,0 -3.78255,0.51172 -5.53711,1.53711 1.07097,-5.97006 1.83334,-12.40626 2.28906,-19.31055 0.0228,-0.29623 0.29622,-5.97005 0.82031,-17.02148 0.0228,-0.75196 0.49089,-1.12891 1.40235,-1.12891 0.38737,0 1.10417,0.09114 2.15234,0.27344 1.13933,0.18228 2.00521,0.28579 2.59766,0.30859 0.18229,-1.11654 0.27344,-2.26823 0.27344,-3.45312 -8.27149,-2.16472 -14.59376,-3.83855 -18.968753,-5.02344 -0.153809,-0.03418 -0.288941,-0.04973 -0.404297,-0.04688 z m 227.281251,0.1836 c -0.0911,0.45572 -0.13672,0.94466 -0.13672,1.46875 0,2.02799 0.30859,3.12174 0.92383,3.28125 1.57226,0.29622 2.73438,0.49088 3.48633,0.58203 2.07357,0.38736 3.10937,1.54947 3.10937,3.48633 0,1.11653 -0.0332,2.73437 -0.10156,4.85351 -0.0456,2.09635 -0.0684,3.65625 -0.0684,4.68164 0,13.78581 1.57227,24.60938 4.7168,32.47071 -1.27604,-0.27344 -2.40496,-0.41016 -3.38477,-0.41016 -1.93685,0 -3.51953,0.41015 -4.75,1.23047 l 1.53711,8.61328 c 2.02799,-2.75716 8.05599,-4.13477 18.08203,-4.13477 7.58789,0 15.58594,0.63802 23.99414,1.91407 0.43294,0.06835 0.73958,-0.04558 0.92188,-0.3418 0.70638,-1.16211 1.42513,-2.31381 2.15429,-3.45313 1.32162,-2.23307 2.35743,-4.5345 3.10938,-6.90429 1.04818,-3.28125 1.57226,-6.64128 1.57226,-10.08203 0,-7.15496 -2.47135,-10.73243 -7.41601,-10.73243 -1.73177,0 -3.94206,0.42058 -6.63086,1.26368 -3.39519,1.04818 -6.14193,2.45052 -8.23828,4.20507 -2.16472,1.77735 -3.2461,3.60027 -3.2461,5.46875 0,1.13933 0.44336,2.21029 1.33204,3.21289 2.0052,2.27865 4.68359,3.41797 8.0332,3.41797 3.66862,0 7.24609,-1.20768 10.73242,-3.62304 0.11393,-0.09115 0.22786,-0.13672 0.3418,-0.13672 0.5013,0 0.75195,0.51172 0.75195,1.53711 0,1.95964 -1.06055,3.72656 -3.17969,5.29882 -2.89388,2.16472 -7.20052,3.2461 -12.91992,3.2461 -7.88412,0 -11.82617,-5.16016 -11.82617,-15.48242 0,-4.30664 0.85547,-9.79818 2.56445,-16.47461 1.59506,-6.31186 3.36003,-11.43881 5.29688,-15.38086 -20.07487,-1.84571 -30.32877,-2.8711 -30.76172,-3.07617 z m -178.40039,0.61523 c -0.13672,0.25065 -0.20508,0.88868 -0.20508,1.91406 0,1.66342 0.25065,2.63086 0.75195,2.9043 1.75456,0.45573 3.29167,0.78711 4.61328,0.99219 1.29882,0.5013 1.95963,1.53711 1.98243,3.10937 0.1595,17.43164 1.78971,30.66016 4.88867,39.6836 -1.98242,-0.93425 -3.78255,-1.40235 -5.40039,-1.40235 -1.07096,0 -1.97201,0.1823 -2.70117,0.54688 l -0.23829,8.75 c 1.57227,-1.11654 3.79297,-1.67383 6.66407,-1.67383 1.41276,0 3.4987,0.14714 6.25586,0.44336 3.23567,0.3418 5.49153,0.54687 6.76757,0.61523 7.4056,0.36458 11.60873,0.54688 12.61133,0.54688 6.49414,0 11.52995,-0.93425 15.10742,-2.80274 4.73959,-2.48372 7.44076,-6.75521 8.10157,-12.8164 0.0684,-0.22787 0.10156,-0.59245 0.10156,-1.09375 0,-4.26107 -2.5293,-6.39063 -7.58789,-6.39063 -0.93425,0 -2.028,0.09115 -3.28125,0.27344 -4.21549,0.63802 -7.48437,1.69661 -9.80859,3.17773 -2.1875,1.38998 -3.28126,2.97461 -3.28126,4.75196 10e-6,0.59244 0.11394,1.17253 0.3418,1.74219 1.38998,3.41797 4.30665,5.12695 8.75,5.12695 0.47852,0 1.0586,-0.02276 1.74219,-0.06836 0.68359,-0.06836 1.23047,-0.10156 1.64062,-0.10156 0.50131,0 0.75196,0.12434 0.75196,0.375 0,0.5013 -0.73959,1.08333 -2.22071,1.74414 -1.6862,0.75195 -3.48633,1.12695 -5.40039,1.12695 -6.0612,0 -10.38021,-1.28645 -12.95507,-3.86133 -2.96224,-2.93944 -4.65885,-8.35221 -5.0918,-16.23633 2.11914,0.06836 4.2487,0.14909 6.39062,0.24024 4.64844,0.18229 7.92969,0.41016 9.84375,0.68359 0.20508,0.02276 0.3418,-0.002 0.41016,-0.07031 0.0911,-0.11393 0.0911,-0.375 0,-0.78516 -0.93425,-3.94205 -1.40039,-6.74479 -1.40039,-8.4082 0,-0.47851 0.0332,-1.22005 0.10156,-2.22266 0.0684,-1.0026 0.10352,-1.75456 0.10352,-2.25586 0,-1.64062 -0.22787,-2.92708 -0.6836,-3.86132 -1.41276,0.04557 -3.24804,0.54688 -5.5039,1.5039 -0.93425,0.41016 -1.92448,0.89909 -2.97266,1.46875 l 1.8457,1.84571 c 0.72917,0.86588 1.09375,1.81249 1.09375,2.83789 0,0.61523 -0.0911,1.2181 -0.27343,1.81054 -0.11394,0.3418 -1.74414,0.69596 -4.88868,1.06055 -1.29882,0.13672 -2.84831,0.27344 -4.64843,0.41016 0,-0.59246 -0.0332,-1.60743 -0.10157,-3.04297 -0.0684,-1.43555 -0.10351,-2.5625 -0.10351,-3.38281 0,-4.51172 0.67318,-8.33985 2.01758,-11.48438 4.12434,-0.18229 6.4134,-0.27344 6.86914,-0.27344 5.85612,0 9.42318,1.00261 10.69922,3.00782 0.86588,1.32162 1.38997,3.60026 1.57226,6.83593 0.0456,0.29623 0.29622,0.44336 0.75196,0.44336 0.54687,0 1.29882,-0.05599 2.25585,-0.16992 1.20768,-0.11392 1.97005,-0.18228 2.28907,-0.20508 0.63802,-2.27864 1.27604,-4.56966 1.91406,-6.87109 0.88867,-2.73438 1.95964,-5.27409 3.21289,-7.6211 -8.06641,0.3418 -14.92513,0.51172 -20.57617,0.51172 -4.96745,0 -11.25651,-0.39778 -18.86719,-1.19531 -7.49675,-0.77474 -12.24675,-1.50391 -14.25195,-2.1875 z m 131.12109,3.31445 c -7.4056,0.36458 -16.56575,0.54688 -27.48047,0.54688 l -8.0664,0 c -0.3418,0 -0.47852,0.11393 -0.41016,0.3418 2.32422,8.77278 3.77214,15.84895 4.3418,21.22656 2.16471,-0.5241 3.95247,-0.92383 5.36523,-1.19727 1.59506,-0.41016 2.39258,-0.96745 2.39258,-1.67383 0,-0.36458 -0.18229,-1.32161 -0.54688,-2.87109 -0.34179,-1.57227 -0.51171,-2.64323 -0.51171,-3.21289 0,-1.09375 0.32942,-1.84571 0.99023,-2.25586 2.98503,-1.82291 6.50651,-3.3164 10.5625,-4.47852 4.10157,7.99805 6.15234,16.88477 6.15234,26.66016 0,5.26367 -0.72916,9.54753 -2.1875,12.85156 -1.59505,3.62305 -3.85091,5.43555 -6.76757,5.43555 -2.16472,0 -4.54688,-0.87825 -7.14453,-2.63281 -2.41537,-1.64062 -3.62305,-2.96224 -3.62305,-3.96485 0,-0.29622 0.11393,-0.47852 0.34179,-0.54687 8.20313,-2.05079 12.54492,-5.50196 13.02344,-10.35547 0.18229,-1.77735 -0.74154,-3.20248 -2.76953,-4.27344 -2.00521,-1.07096 -4.84114,-1.60547 -8.50976,-1.60547 -1.5267,0 -3.31641,0.13672 -5.36719,0.41016 -7.06381,0.95703 -10.5957,3.29167 -10.5957,7.00586 0,1.3444 0.35416,2.95183 1.06054,4.82031 1.93685,5.14974 5.5931,9.125 10.9707,11.92774 4.7168,2.46094 10.00326,3.6914 15.85938,3.6914 1.57227,0 3.31641,-0.13671 5.23047,-0.41015 10.0944,-1.48112 15.95052,-6.59571 17.56836,-15.34571 0.52408,-2.75716 0.78515,-5.25325 0.78515,-7.48632 0,-4.69401 -1.42317,-9.92253 -4.27148,-15.6875 -3.21289,-6.51694 -5.10417,-11.92969 -5.67383,-16.23633 -0.0684,-0.47853 -0.30859,-0.7064 -0.71875,-0.6836 z"
       style="font-style:normal;font-variant:normal;font-weight:normal;font-stretch:semi-expanded;font-size:medium;line-height:125%;font-family:Ravie;-inkscape-font-specification:'Ravie Semi-Expanded';letter-spacing:0px;word-spacing:0px;fill:#323e44;fill-opacity:1;stroke:none;stroke-width:1px;stroke-linecap:butt;stroke-linejoin:miter;stroke-opacity:1" />
    <path
       inkscape:connector-curvature="0"
       id="path4820"
       d="M 83.389831,-61.016949 264.40678,-229.83051"
       style="color:#000000;clip-rule:nonzero;display:inline;overflow:visible;visibility:visible;opacity:1;isolation:auto;mix-blend-mode:normal;color-interpolation:sRGB;color-interpolation-filters:linearRGB;solid-color:#000000;solid-opacity:1;fill:none;fill-opacity:1;fill-rule:nonzero;stroke:#f2ff29;stroke-width:68.30000305;stroke-linecap:round;stroke-linejoin:miter;stroke-miterlimit:4;stroke-dasharray:none;stroke-dashoffset:0;stroke-opacity:0.46408841;marker:none;marker-start:none;marker-mid:none;marker-end:none;color-rendering:auto;image-rendering:auto;shape-rendering:auto;text-rendering:auto;enable-background:accumulate" />
  </g>
  <g
     transform="matrix(4.2151398,0,0,4.217525,376.64497,208.56325)"
     id="eraser02"
     style="display:inline">
    <path
       d="m 44.21,11.05 c 1.17,0.96 0.69,2.34 0.35,3.1 -0.35,0.76 -2.21,4.48 -2.69,4.89 -0.48,0.42 -10.07,7.79 -12.2,9.38 C 27.53,30 13.81,40.76 13.26,40.76 12.71,40.76 10.99,40.62 9.75,39.65 8.51,38.69 3.61,34.35 3.2,33.52 2.79,32.69 2.79,32.07 3.27,31.04 3.75,30 4.3,27.87 5.54,26.42 c 1.24,-1.45 11.65,-8 16.75,-11.37 5.1,-3.38 11.17,-7.24 11.72,-7.45 0.55,-0.2 1.24,-0.41 2.14,-0.14 0.89,0.28 7.37,3.04 8.06,3.59 z"
       id="p2618"
       style="fill:#de5533;fill-opacity:1;fill-rule:evenodd;stroke:none"
       inkscape:connector-curvature="0" />
    <path
       d="m 44.96,12.5 c 0.03,0.62 -0.22,1.23 -0.41,1.65 -0.34,0.76 -2.2,4.49 -2.69,4.91 -0.48,0.41 -10.05,7.79 -12.18,9.37 -2.14,1.59 -15.86,12.32 -16.41,12.32 -0.15,0 -0.42,-0.03 -0.72,-0.07 1.07,-1.76 1.77,-4.24 2.41,-5.09 0.81,-1.08 14.58,-11.51 17.81,-13.94 2.54,-1.9 9,-7.48 12.19,-9.15 z"
       id="p3425"
       style="display:inline;fill:#3d0902;fill-opacity:0.25;fill-rule:evenodd;stroke:none"
       inkscape:connector-curvature="0" />
    <path
       d="m 35.52,7.34 c 0.2,0.01 0.4,0.05 0.63,0.12 0.89,0.28 7.37,3.05 8.06,3.6 1.17,0.96 0.69,2.33 0.34,3.09 -0.34,0.76 -2.2,4.49 -2.69,4.91 -0.29,0.25 -3.6,2.81 -6.9,5.34 0.06,-2.16 -0.11,-4.45 -0.41,-4.94 -0.41,-0.69 -0.46,-0.84 -1.22,-1.18 -0.56,-0.26 -5.69,-3.18 -8.87,-4.63 4.49,-2.94 9.09,-5.88 9.56,-6.06 0.41,-0.16 0.9,-0.3 1.5,-0.25 z"
       id="p3394"
       style="display:inline;fill:#678aa6;fill-opacity:1;fill-rule:evenodd;stroke:none"
       inkscape:connector-curvature="0" />
    <path
       d="m 35.52,7.34 c 0.06,0 0.13,0.02 0.19,0.03 0.11,0.16 0.85,0.44 0.87,0.28 1.53,0.57 6.99,2.9 7.63,3.41 1.17,0.96 0.69,2.33 0.34,3.09 -0.06,0.15 -0.34,0.65 -0.5,0.97 -0.13,-0.16 -0.33,-0.36 -0.75,-0.59 -0.18,0.63 0.23,0.94 0.56,1 -0.24,0.49 -0.39,0.79 -0.68,1.34 -0.02,-0.15 -0.2,-0.38 -0.63,-0.69 L 42.24,15.9 41.9,15.71 c -1.35,1.01 0.84,1.68 1.21,1.32 -0.51,0.95 -1.03,1.84 -1.25,2.03 -0.13,0.11 -1.87,1.46 -3.09,2.4 -0.07,-0.02 -0.13,-0.04 -0.22,-0.06 -0.1,0.16 -0.14,0.27 -0.19,0.38 -0.06,0.05 -0.08,0.07 -0.15,0.12 0,-0.03 -0.07,-0.07 -0.22,-0.06 -0.19,0.2 -0.03,0.21 0.09,0.16 -3.13,2.42 -7,5.4 -8.4,6.43 -0.09,0.06 -0.57,0.44 -0.69,0.53 -0.17,0.03 -0.22,0.09 -0.19,0.16 -0.14,0.11 -0.6,0.46 -0.78,0.59 -0.1,-0.02 -0.21,-0.07 -0.41,-0.06 -0.13,0.24 -0.2,0.41 -0.21,0.53 -0.15,0.11 -0.38,0.29 -0.54,0.41 -0.05,0 -0.09,-0.01 -0.15,0 -0.02,0.06 -0.02,0.1 -0.03,0.16 -0.29,0.22 -0.64,0.46 -0.97,0.71 -0.05,-0.02 -0.09,-0.03 -0.16,-0.06 -0.04,0.09 -0.06,0.16 -0.06,0.22 -0.12,0.09 -0.19,0.19 -0.31,0.28 -0.04,-0.13 -0.22,-0.23 -0.66,-0.25 -0.26,0.48 -0.22,0.71 -0.09,0.78 -0.37,0.29 -0.55,0.45 -0.94,0.75 -0.12,-0.16 -0.37,-0.41 -0.84,-0.68 0.27,0.41 0.51,0.65 0.68,0.78 -0.11,0.09 -0.16,0.12 -0.28,0.22 -0.58,-0.37 -1.25,-0.51 -1.87,-0.29 -0.73,0.29 -1.17,-0.68 -1.35,-1.21 -0.64,1.17 -0.38,2.59 0.35,3.71 -0.33,0.26 -0.59,0.45 -0.91,0.69 -0.7,-0.37 -1.39,-0.76 -1.78,-1.5 -0.86,0.77 -0.51,1.87 0.22,2.69 -2.31,1.74 -4.25,3.16 -4.44,3.16 -0.04,0 -0.13,0 -0.19,0 0.06,-0.19 0.1,-0.45 0.07,-0.88 -0.16,-0.62 -0.49,-1.2 -0.94,-1.66 -0.74,0.56 -0.33,1.83 0.15,2.44 C 11.71,40.56 10.9,40.36 10.15,39.9 9.79,38.56 9.42,37.21 9.18,35.84 9.09,37.02 9.19,38.19 9.4,39.34 8.65,38.73 7.37,37.62 6.08,36.43 5.87,33.21 5.89,29.96 6.21,26.75 5.43,29.59 4.83,32.7 5.24,35.65 4.73,35.17 4.25,34.71 3.9,34.34 3.96,34.24 3.99,33.86 3.96,33.09 3.88,32.56 3.74,32.05 3.55,31.56 3.3,32.27 3.54,33.72 3.74,34.18 3.48,33.9 3.27,33.66 3.21,33.53 2.8,32.7 2.79,32.06 3.27,31.03 3.43,30.68 3.6,30.19 3.8,29.65 3.96,30.42 4.22,31.18 4.55,31.9 4.74,30.19 5.48,28.32 5.46,26.56 5.49,26.52 5.52,26.47 5.55,26.43 5.88,26.05 6.87,25.28 8.21,24.34 8.38,24.38 8.52,24.35 8.65,24.25 8.6,24.2 8.56,24.16 8.52,24.12 8.7,23.99 8.95,23.85 9.15,23.71 c 0.3,0 0.58,-0.18 0.84,-0.53 -0.01,-0.01 -0.02,-0.02 -0.03,-0.03 2.37,-1.61 4.88,-3.24 7.59,-5 0.06,-0.04 0.1,-0.09 0.16,-0.12 1.12,-0.73 2.33,-1.47 3.28,-2.1 0.39,1.49 2.99,3.32 3.5,0.63 0.31,-0.83 -0.32,-1.96 -1.16,-2.16 0.35,-0.23 0.66,-0.43 1,-0.65 0.01,-0.01 0.03,0 0.03,0 0.24,0.11 0.5,-0.15 0.57,-0.41 4.33,-2.83 8.64,-5.58 9.09,-5.75 0.41,-0.16 0.9,-0.3 1.5,-0.25 z M 34.15,7.87 C 34.12,7.9 34.29,8.16 34.24,7.93 34.17,7.87 34.15,7.86 34.15,7.87 Z m 2.25,0.81 c -2.31,1.99 3.92,2.39 1.4,0.38 C 37.36,8.83 36.89,8.68 36.4,8.68 Z m 4.34,1.03 c 0.27,0.35 0.6,0.62 0.69,0.66 -0.03,-0.05 -0.21,-0.26 -0.69,-0.66 z m -7.59,0.35 c -2.2,0.83 2.28,3.12 0.37,0.81 l -0.22,-0.41 -0.15,-0.4 z m 5.93,1.06 c -2.26,0.6 0.96,1.97 0,0 z m 2.5,0.41 c 0.33,1.03 1.65,1.31 0.32,0.25 l -0.32,-0.25 z m -1.25,0.12 c -1.54,0.95 1.84,1.56 0,0 z m -3.37,0.22 c -1.53,0.12 -0.48,0.94 0,0.84 -0.08,0.31 1.28,0.94 0.69,-0.12 -0.24,-0.02 -0.42,-0.03 -0.54,0 0.08,-0.12 0.06,-0.34 -0.15,-0.72 z m 0.15,0.72 c -0.03,0.06 -0.08,0.11 -0.15,0.12 0.01,-0.05 0.04,-0.1 0.15,-0.12 z M 29.05,11.9 c -1.43,1.46 1.62,1.13 0,0 z m 2.47,0.19 c -1.95,0.11 0.97,4.49 0.5,1.47 -0.12,-0.47 -0.17,-0.97 -0.03,-1.44 -0.18,-0.03 -0.34,-0.04 -0.47,-0.03 z m 1.19,0.19 c -1.38,1.14 2.07,2.27 0.22,0.43 -0.08,-0.14 -0.14,-0.29 -0.22,-0.43 z m 11.62,0.4 c 0.2,0.06 0.38,0.13 0.57,0.22 -0.16,-0.12 -0.33,-0.21 -0.57,-0.22 z M 28.15,13 c -1.2,1.75 1.78,0.74 0,0 z m 1.68,0.43 c -0.76,0.65 0.89,0.35 0,0 z m 9.07,0.22 c -1.7,0.37 1.19,1.71 0,0.03 l 0,-0.03 z m 2.75,0.25 c -0.28,0.69 0.73,0.57 0,0 z m -14.94,0 c -0.04,-0.01 -0.12,0.01 -0.22,0.03 -0.46,0.65 0.51,0.02 0.22,-0.03 z m 12.87,0.25 c -2.39,1.43 3.11,2.85 1,0.63 -0.28,-0.28 -0.63,-0.48 -1,-0.63 z m -3.62,0.22 c -0.53,0.3 0.56,0.15 0,0 z m -5.56,0.22 c -1.05,1.86 1.94,1.04 0,0 z m -4.72,0.25 c -0.58,0.74 0.93,-0.01 0,0 z m 1.93,0.03 c -0.04,-0.04 -0.14,-0.01 -0.34,0.13 0.08,0.6 0.48,-0.02 0.34,-0.13 z m 7.38,0.16 c -0.34,-0.07 0.45,0.68 0.22,0.09 -0.1,-0.05 -0.17,-0.08 -0.22,-0.09 z m 1.94,0.22 c -0.94,1.58 2.76,4.74 1.59,1.5 -0.38,-0.64 -0.92,-1.18 -1.59,-1.5 z m -8.75,0.12 c -1.24,1.38 1.72,0.08 0,0 z m 8.09,0.16 c -0.18,1.63 0.87,1.18 0,0 z m -2.5,0.31 c -0.01,-0.03 -0.08,0 -0.22,0.09 -0.17,0.44 0.25,-0.01 0.22,-0.09 z m 1.69,0.12 c -0.2,0.59 0.68,0.18 0,0 z m -6.19,0.38 c -1.11,1.45 1.75,0.05 0,0 z m 5.41,0.03 c -1.27,1.53 1.96,0.81 0,0 z m -8.91,0.31 c -2.36,-0.03 0.52,2.23 0,0 z m 0.44,0.28 c -0.28,-0.01 0.31,0.56 0.19,0.07 C 26.32,17 26.25,16.97 26.21,16.96 Z m 7.12,0.13 c -1.11,1.5 1.88,0.16 0,0 z m -13.78,0 c -0.08,0 -0.19,0 -0.34,0.06 -0.23,1.14 0.89,-0.05 0.34,-0.06 z m 20.1,0.28 c -2.43,1.53 3.25,2.94 0.96,0.59 -0.31,-0.21 -0.65,-0.37 -0.96,-0.59 z m -18.54,0 c -0.16,0 -0.35,0.03 -0.62,0.13 0.62,1.9 1.77,-0.11 0.62,-0.13 z m 5.85,0.28 c -1.68,0.56 1.39,0.72 0,0 z m -8.41,0.44 c -0.45,0.18 0.4,0.11 0,0 z m 1.5,0.09 c -0.12,-0.05 -0.35,0 -0.69,0.19 0.07,1.84 1.23,0.02 0.69,-0.19 z m 3.41,0.13 c -1.64,0.29 0.97,0.1 0,0 z m 0.78,0.47 c -0.7,0.07 0.62,1.97 0.84,0.31 -0.41,-0.24 -0.68,-0.33 -0.84,-0.31 z m 3.66,0.09 c -0.01,-0.02 -0.06,-0.01 -0.16,0.06 -0.01,0.05 0,0.08 0,0.1 0.05,-0.03 0.18,-0.13 0.16,-0.16 z m 2.03,0.06 c -0.05,0 -0.12,0.03 -0.22,0.07 -0.1,0.78 0.58,-0.05 0.22,-0.07 z m 8.09,0.16 c -0.06,0.01 -0.03,0.49 0.09,0.19 -0.04,-0.15 -0.07,-0.2 -0.09,-0.19 z m -11.97,0.03 c -1.92,0.09 1.02,1.3 0,0 z m -10.06,0.13 c 0.08,0.86 1.07,0.17 0,0 z m 6.22,0.43 c -0.1,0 -0.22,0.02 -0.35,0.03 -0.08,1.97 1.79,0 0.35,-0.03 z m 9.75,0.66 c -0.06,0 -0.14,0.01 -0.25,0.06 0.02,0.79 0.67,-0.09 0.25,-0.06 z m -3.53,0.09 c -2.55,0.79 2.45,1.16 0,0 z m -13.72,0.13 c -1.67,1.1 2.2,1.28 0,0 z m 6.69,0.19 c -0.08,-0.01 -0.16,0 -0.29,0.03 0.18,0.8 0.8,0.03 0.29,-0.03 z m -5.32,0.03 c -0.28,0.92 1.07,-0.07 0,0 z m 20.35,0.25 c -0.03,0.01 -0.08,0.04 -0.13,0.09 -0.11,0.62 0.3,-0.16 0.13,-0.09 z m -5.28,0.06 c -0.03,-0.01 -0.09,-0.02 -0.16,0 -0.18,0.44 0.37,0.03 0.16,0 z m -6.44,0.25 c -0.79,0.34 0.68,0.12 0,0 z m -1.91,0.03 c -0.13,0.02 0.58,0.99 0.47,0.41 -0.29,-0.3 -0.42,-0.42 -0.47,-0.41 z m 12.78,0.22 c -0.1,-0.01 -0.21,-0.02 -0.34,0 0.25,1.98 1.89,0.06 0.34,0 z m -9.93,0.16 c -0.97,0.22 0.74,0.18 0,0 z m -9.69,0.15 c -0.52,0.4 0.66,0.38 0,0 z m 3.15,0.1 c -0.05,0.04 0.23,0.47 0.19,0.12 C 19.19,22 19.13,21.98 19.11,22 Z m -1.96,0.03 c -0.16,0.82 0.58,0.24 0,0 z m 16.25,0.25 c -1.79,-0.17 1.16,0.98 0,0 z m -4.85,0.15 c -0.03,-0.04 -0.05,-0.01 -0.09,0.16 0.19,0.66 0.18,-0.04 0.09,-0.16 z m -11.97,0.19 c -1.89,1.31 1.57,1.22 0,0 z m 10.85,0.03 c -0.95,0.21 1.54,0.23 0,0 z m -1.66,0.1 c -0.1,-0.02 -0.21,-0.02 -0.37,0 0.32,0.85 1.05,0.1 0.37,0 z m -13.56,0.21 c -2.61,1.08 2.86,3.36 0.81,0.88 -0.27,-0.29 -0.54,-0.59 -0.81,-0.88 z m 18.31,0.32 c -1.39,0.88 1.58,0.36 0,0 z m 1.81,0.09 c -0.76,1.65 2.33,0.06 0.07,0.03 l -0.07,-0.03 z m -10.37,0.19 c -0.11,-0.02 -0.25,-0.01 -0.47,0.03 -0.46,1.43 1.21,0.1 0.47,-0.03 z m -1.63,0.09 c -0.85,1.96 2.03,0.24 0,0 z m 14.85,0.28 c -0.01,-0.02 -0.07,-0.02 -0.25,0.07 -0.21,0.4 0.28,0.01 0.25,-0.07 z m -17.66,0.32 c -0.95,-0.11 0.79,1.49 0.59,0.15 -0.25,-0.1 -0.45,-0.14 -0.59,-0.15 z m 9.06,0.34 c -0.08,0 -0.16,0.03 -0.28,0.06 -0.91,1.86 1.49,-0.15 0.28,-0.06 z m -1.15,0.25 c -0.02,-0.04 -0.09,-0.02 -0.25,0.09 -0.08,0.6 0.31,0.03 0.25,-0.09 z m -2.63,0.28 c -0.06,0.11 0.84,1.1 0.47,0.28 -0.31,-0.25 -0.45,-0.32 -0.47,-0.28 z M 8.02,25.34 c -0.3,1.7 2.3,1.05 0,0 z m 20.28,0.03 c -2.05,2.4 4.56,1.83 1.63,0.22 -0.54,-0.06 -1.1,-0.08 -1.63,-0.22 z m 5.91,0.22 c -0.48,0.27 -0.29,0.16 0,0 z m -22.31,0 c -0.89,1.92 1.92,0.84 0,0 z m 12.25,0.09 c -0.86,1.4 1.9,0.7 0,0 z m -2.57,0.13 c -0.44,2.02 2,0.56 0,0 z M 18.9,25.87 C 18.16,25.83 20.44,27.39 19.43,26 19.18,25.91 19,25.88 18.9,25.87 Z M 7.15,26.03 c -0.1,-0.02 -0.24,-0.02 -0.44,0.03 -0.4,1.41 1.14,0.08 0.44,-0.03 z m 7.78,0.59 c -1.89,1.16 1.31,1.71 0,0 z m 0.72,0.13 c -1.42,1.94 2,1.15 0,0 z M 27.27,27 c -0.08,0 -0.18,0.04 -0.31,0.09 0.1,0.92 0.85,-0.11 0.31,-0.09 z m -8.59,0.28 c -0.1,-0.01 -0.22,-0.01 -0.35,0 -0.26,1.88 1.78,0.11 0.35,0 z M 8.15,27.62 C 6.19,29.03 11.2,30.46 8.77,28.28 8.56,28.06 8.35,27.85 8.15,27.62 Z m 11.62,0.09 c -2.24,2 3.94,2.58 1.41,0.54 -0.41,-0.29 -0.9,-0.51 -1.41,-0.54 z m 9.19,0.35 c -0.52,-0.13 -0.24,1.07 0.28,0.15 -0.11,-0.08 -0.21,-0.13 -0.28,-0.15 z m -15.31,0 c -0.8,1.33 1.91,1.29 0,0 z m -2.63,0.03 c -0.54,0.83 0.95,0.09 0,0 z m 5.81,0.19 c -3.12,0.42 2.21,4.29 0.91,1.12 -0.3,-0.37 -0.61,-0.74 -0.91,-1.12 z m 6.72,0.06 c -0.92,2.08 2.09,0.8 0,0 z m 1.06,0.06 c -0.31,0.88 1.09,0.29 0,0 z m -17.71,0 c 0.02,1.27 -1.31,3.6 0.62,4 0.23,-1.35 0.14,-2.82 -0.62,-4 z m 19.68,0.13 c -0.89,1.39 1.53,-0.04 0,0 z m -15.84,0.72 c -0.18,0.98 1.07,0.02 0,0 z m 2.09,0.5 c 0.15,1.91 1.86,-0.03 0,0 z m 13.19,0.56 c -0.97,0.46 0.83,0.18 0,0 z m -15.34,0.06 c -0.04,-0.01 -0.09,-0.01 -0.19,0 -0.63,0.55 0.42,0.07 0.19,0 z m 1.47,0.06 c -0.75,0.18 0.56,0.19 0,0 z m 12.78,0.35 c -0.01,-0.02 -0.06,-0.02 -0.16,0.03 -0.08,0.21 0.19,0.01 0.16,-0.03 z m -9.22,0.15 c -0.48,0.9 0.97,0.01 0,0 z m 7.44,0.25 c -1.18,1.62 2.23,0.8 0,0 z m -3.97,0 c -0.96,0.29 0.75,0.19 0,0 z m -6.41,0.13 c 0.05,2.18 2.28,0.21 0,0 z m -1.59,0.09 c -2.85,-0.37 1.03,4.24 0.34,0.85 -0.03,-0.3 -0.13,-0.62 -0.34,-0.85 z m 6.56,0.69 c -0.52,-0.2 0.4,1.24 0.31,0.19 -0.14,-0.11 -0.24,-0.16 -0.31,-0.19 z m -5.53,0.75 c -1.42,1.42 0.68,6.73 2.25,4 -0.07,-1.61 -1.32,-2.81 -2.25,-4 z m 2.9,0.09 c -0.91,1.67 1.62,0.97 0,0 z M 8.61,33 c -0.51,0.75 0.45,0.4 0,0 z m 8.82,0.34 c -0.03,-0.01 -0.08,-0.01 -0.16,0 -0.56,0.44 0.33,0.05 0.16,0 z m -3.82,0.19 c 0.08,1.04 0.64,0.09 0,0 z m -3.93,0.18 c 0,1.43 0.05,6.08 1.9,4.72 -0.08,-1.74 -0.88,-3.34 -1.9,-4.72 z m 6.84,0.16 c -0.09,-0.01 -0.19,0 -0.31,0 -0.77,1.95 1.65,0.19 0.31,0 z m 1.56,0.22 c -0.01,-0.03 -0.06,-0.03 -0.18,0.03 -0.07,0.42 0.24,0.07 0.18,-0.03 z M 7.61,34.12 C 6.18,34.8 8.01,37.53 7.58,35 7.59,34.71 7.61,34.41 7.61,34.12 Z m 7.54,1 c -0.5,1.97 1.91,0.19 0,0 z m 0,1.5 c -1.13,1.3 1.6,0.35 0,0 z m 1.68,0.09 c -0.06,-0.01 -0.16,-0.01 -0.28,0 -0.22,0.75 0.7,0.12 0.28,0 z"
       id="p3444"
       style="fill:#300700;fill-opacity:0.02000002;fill-rule:evenodd;stroke:none"
       inkscape:connector-curvature="0" />
    <path
       d="m 5.18,26.93 c 0.55,0.08 1.12,0.27 1.62,0.66 1.17,0.9 5.4,4.77 5.94,5.31 0.54,0.54 0.63,0.56 1.34,1.1 0.81,1.88 -0.09,3.21 -0.81,4.56 -0.32,0.6 -0.84,1.36 -1.47,2 0,0 -0.02,-0.01 -0.03,0 C 11.12,40.4 10.36,40.13 9.74,39.65 8.5,38.69 3.62,34.35 3.21,33.53 2.8,32.7 2.79,32.06 3.27,31.03 3.7,30.11 4.2,28.34 5.18,26.93 Z"
       id="p3413"
       style="display:inline;fill:#f7a341;fill-opacity:0.2;fill-rule:evenodd;stroke:none"
       inkscape:connector-curvature="0" />
    <path
       d="m 44.3,14.65 c -0.2,0.42 -0.48,0.96 -0.84,1.66 -1.37,1.03 -7.64,5.78 -14.28,10.78 -3.48,2.61 -6.91,5.18 -9.5,7.12 -1.36,1.02 -2.9,2.28 -4.1,3.04 -1.18,0.74 -1.84,1.77 -3.31,0.62 -1.47,-1.15 -5.78,-4.4 -8.94,-7 0.18,-0.41 0.37,-0.94 0.6,-1.53 0.03,0.02 0.06,0.07 0.09,0.09 3.13,2.63 6.57,5.04 9.78,7.57 0.38,0.26 0.65,0.05 1,-0.16 1.45,-1.09 2.92,-2.17 4.38,-3.25 2.59,-1.94 6.02,-4.54 9.5,-7.16 6.94,-5.22 14.03,-10.53 14.93,-11.22 0.01,0 0.03,-0.03 0.04,-0.03 0,0 -0.01,-0.02 0,-0.03 0.03,-0.03 0.08,-0.06 0.12,-0.09 0.08,-0.07 0.17,-0.13 0.28,-0.22 0.07,-0.06 0.17,-0.13 0.25,-0.19 z"
       id="p3396"
       style="display:inline;fill:#ede3c3;fill-opacity:0.87000002;fill-rule:evenodd;stroke:none"
       inkscape:connector-curvature="0" />
    <path
       d="m 5.93,26.09 c 0.24,0.63 0.36,1.4 0.72,1.87 0.54,0.72 7.06,4.93 7.87,5.47 0.81,0.54 0.83,1.1 1.09,1.91 0.19,0.55 -0.57,2.6 -1.68,5.06 -0.35,0.23 -0.6,0.35 -0.66,0.35 -0.55,0 -2.29,-0.13 -3.53,-1.1 C 8.5,38.69 3.62,34.35 3.21,33.53 2.8,32.7 2.79,32.06 3.27,31.03 3.75,29.99 4.31,27.88 5.55,26.43 5.62,26.35 5.81,26.2 5.93,26.09 Z"
       id="p3416"
       style="display:inline;fill:#f7c941;fill-opacity:0.15;fill-rule:evenodd;stroke:none"
       inkscape:connector-curvature="0" />
    <path
       d="m 44.9,12.15 c 0.15,0.74 -0.12,1.51 -0.35,2 -0.34,0.76 -2.2,4.49 -2.69,4.91 -0.48,0.41 -10.05,7.79 -12.18,9.37 -2.14,1.59 -15.86,12.32 -16.41,12.32 -0.15,0 -0.42,-0.03 -0.72,-0.07 0.62,-2.31 1.57,-5.57 2.16,-6.09 0.72,-0.63 20.49,-15.99 22.37,-17.16 1.56,-0.96 5.94,-4.48 7.82,-5.28 z"
       id="p3431"
       style="display:inline;fill:#1d0400;fill-opacity:0.18000004;fill-rule:evenodd;stroke:none"
       inkscape:connector-curvature="0" />
    <path
       d="m 44.9,12.15 c 0.15,0.74 -0.12,1.51 -0.35,2 -0.34,0.76 -2.2,4.49 -2.69,4.91 -0.29,0.25 -3.6,2.81 -6.9,5.34 0.06,-2.16 -0.11,-4.45 -0.41,-4.94 -0.03,-0.04 -0.03,-0.08 -0.06,-0.12 1.25,-0.94 2.26,-1.7 2.59,-1.91 1.56,-0.96 5.94,-4.48 7.82,-5.28 z"
       id="p3428"
       style="display:inline;fill:#000e30;fill-opacity:0.12000002;fill-rule:evenodd;stroke:none"
       inkscape:connector-curvature="0" />
    <path
       d="m 44.21,11.05 c 1.17,0.96 0.69,2.34 0.35,3.1 -0.35,0.76 -2.21,4.48 -2.69,4.89 -0.48,0.42 -10.07,7.79 -12.2,9.38 C 27.53,30 13.81,40.76 13.26,40.76 12.71,40.76 10.99,40.62 9.75,39.65 8.51,38.69 3.61,34.35 3.2,33.52 2.79,32.69 2.79,32.07 3.27,31.04 3.75,30 4.3,27.87 5.54,26.42 c 1.24,-1.45 11.65,-8 16.75,-11.37 5.1,-3.38 11.17,-7.24 11.72,-7.45 0.55,-0.2 1.24,-0.41 2.14,-0.14 0.89,0.28 7.37,3.04 8.06,3.59 z"
       id="stroke01"
       style="display:inline;fill:none;fill-opacity:1;fill-rule:evenodd;stroke:#1c1212;stroke-width:0.24877696;stroke-linecap:butt;stroke-linejoin:round;stroke-miterlimit:4;stroke-dasharray:none;stroke-opacity:1"
       inkscape:connector-curvature="0" />
  </g>
  <g
     transform="matrix(4.3929571,5.6738974,-5.6751444,4.3939225,409.27994,165.36268)"
     id="pencil02"
     style="display:inline">
    <path
       d="m 4.04,42.71 c 0,0 5.81,-2.7 6.43,-3.01 0.62,-0.31 26.55,-23.13 26.75,-23.54 0.21,-0.42 0.73,-1.04 1.35,-1.35 0.62,-0.31 1.04,-0.62 1.45,-1.04 0.42,-0.41 1.04,-1.03 1.45,-1.34 0.42,-0.31 1.25,-1.25 1.25,-1.25 0,0 1.55,-1.24 1.66,-1.66 C 44.48,9.11 43.96,8.38 43.44,7.76 42.93,7.14 42.3,6.62 41.99,6.72 c -0.31,0.11 -2.17,2.08 -2.8,2.49 -0.62,0.42 -1.35,1.14 -1.86,1.56 -0.52,0.41 -2.29,2.18 -3.01,2.59 C 33.59,13.77 8.71,35.97 8.19,36.48 7.67,37 3.94,42.91 4.04,42.71 Z"
       id="p2752"
       style="fill:#d6964c;fill-opacity:1;fill-rule:evenodd;stroke:none"
       inkscape:connector-curvature="0" />
    <path
       d="m 35.59,12.71 c -0.18,-0.03 -0.38,0.03 -0.56,0.13 -0.11,0.09 -0.19,0.14 -0.28,0.22 -0.1,0.09 -0.2,0.19 -0.29,0.34 -0.14,0.1 -0.27,0.15 -0.4,0.19 -0.05,0.04 -0.2,0.15 -0.28,0.22 0.96,0.65 -0.37,3.48 -0.53,1.28 0.02,-0.31 0.07,-0.6 0.09,-0.91 -0.27,0.23 -0.52,0.45 -0.91,0.78 -0.02,0.02 -0.04,0.05 -0.06,0.07 -0.01,0 -0.03,-0.01 -0.03,0 -0.16,0.13 -0.36,0.34 -0.53,0.5 0.33,0.78 0.11,2.01 -0.6,0.78 -0.03,-0.08 -0.06,-0.15 -0.09,-0.22 -0.15,0.13 -0.25,0.24 -0.41,0.37 0.43,0.83 0.87,1.64 1.63,2.1 0.32,1.89 -1.31,-0.27 -1.63,-0.91 -0.18,-0.24 -0.36,-0.49 -0.53,-0.75 -0.53,0.47 -1.24,1.13 -1.84,1.66 0.08,-0.03 0.2,-0.06 0.37,-0.06 l 0.07,-0.04 c 0.32,0.77 -0.61,0.47 -0.6,0.22 -1.76,1.56 -3.65,3.23 -5.72,5.07 0.83,0.55 -0.91,2.4 -1.28,1.12 0,0 -0.03,0 -0.03,0 -0.69,0.61 -0.7,0.68 -1.37,1.28 -0.61,0.96 -1.16,2.01 -2.19,1.94 -0.5,0.44 -0.63,0.55 -1.09,0.97 -0.08,0.39 -0.31,0.69 -0.75,0.69 -0.01,0 -0.03,-0.01 -0.04,0 -0.7,0.62 -1.12,1.02 -1.71,1.56 0.04,0.34 0.03,0.66 -0.07,1 -0.25,0.87 -0.79,0.47 -1.28,0.19 -0.22,0.19 -0.56,0.51 -0.75,0.68 0.12,0.99 -0.4,2.5 -1.06,0.94 -0.51,0.46 -2.6,2.32 -2.66,2.38 -0.08,0.08 -0.36,0.47 -0.59,0.81 0.45,1.52 1.93,0.54 1.47,-0.85 C 9,35.71 9.35,35.12 9.4,36.28 c 0.39,1.33 0.86,-0.03 0.91,-0.63 1.22,-0.5 0.55,2.08 0.75,2.81 -0.04,0.2 -0.04,0.46 0,0.75 0.28,-0.23 0.55,-0.45 1.12,-0.93 0,-0.12 0.05,-0.28 0.13,-0.57 0.04,-0.18 0.09,-0.38 0.15,-0.56 0.16,0.25 0.13,0.56 0.07,0.81 0.1,-0.09 0.26,-0.21 0.37,-0.31 -0.08,-0.65 -0.15,-1.31 0.06,-1.94 0.63,-1.48 1.13,-0.25 0.63,0.66 -0.05,0.21 -0.02,0.42 0.06,0.63 0.74,-0.64 1.58,-1.36 2.5,-2.16 -0.09,-0.16 -0.14,-0.39 -0.15,-0.72 0.14,-0.66 0.56,-1.24 1.06,-1.69 0.6,0.11 0.85,0.45 0.87,0.85 0.68,-0.6 1.37,-1.21 2.1,-1.85 -0.26,0.18 -0.56,0.18 -0.13,-0.43 0.01,-0.07 0.02,-0.13 0.03,-0.19 0.57,0.1 0.36,0.45 0.1,0.62 0.77,-0.67 1.45,-1.23 2.25,-1.93 -0.18,-0.02 -0.41,-0.22 0.03,-0.32 0.06,0.08 0.08,0.14 0.09,0.19 0.43,-0.37 0.76,-0.66 1.19,-1.03 -0.23,-0.78 -0.45,-1.67 0.19,-2.38 0.39,-1.06 1.36,-1.59 1.72,-0.21 0.07,0.22 0.16,0.45 0.28,0.65 0.12,-0.11 0.22,-0.2 0.34,-0.31 -0.02,-0.08 -0.05,-0.15 -0.06,-0.28 -0.04,-0.09 -0.09,-0.2 -0.13,-0.28 0.36,-0.13 0.52,0.02 0.57,0.22 0.05,-0.05 0.1,-0.08 0.15,-0.13 -1.44,-0.96 -1.04,-3.16 -0.15,-4.37 -0.15,1.31 1.08,2.68 0.62,3.93 0.38,-0.33 0.72,-0.61 1.09,-0.93 -0.02,-0.01 -0.04,-0.03 -0.06,-0.04 -0.6,-1.11 0.36,-2.26 0.44,-3.37 0.72,0.23 1.1,1.25 1.06,2.12 0.11,-0.09 0.24,-0.18 0.35,-0.28 0,-0.01 -0.01,-0.02 0,-0.03 0,-0.23 0.01,-0.46 -0.04,-0.69 0.22,0.05 0.33,0.2 0.41,0.38 0.27,-0.24 0.59,-0.52 0.84,-0.75 -0.02,-0.59 0.09,-1.04 0.66,-1.06 0.08,0.1 0.14,0.2 0.19,0.31 0.37,-0.33 0.85,-0.73 1.19,-1.03 0,-0.01 -0.01,-0.03 0,-0.03 0.05,-0.16 0.15,-0.3 0.28,-0.41 0.06,0.01 0.1,0.02 0.15,0.03 0.11,-0.09 0.18,-0.16 0.28,-0.25 -0.19,-0.82 0.01,-1.51 1.22,-1.25 0.05,0.01 0.09,0.03 0.13,0.03 0.5,-0.45 0.82,-0.75 1.12,-1.03 0.03,-0.79 -0.21,-1.82 0.07,-2.4 0.22,-0.9 -0.28,-1.68 -0.91,-1.79 z m 0.03,0.22 c 0.67,1.08 -0.9,1.11 0,0 z m -0.72,2.03 c 1.06,1.01 -0.92,1.17 0,0 z m -5.06,2.35 c 0.37,0.06 -0.27,0.29 0,0 z m -0.09,1.37 c 0.49,0.33 -0.5,0.29 0,0 z m -0.88,1.19 c 0.99,0.43 -0.84,0.58 0,0 z m 1.53,0.19 c 0.82,0.87 -0.48,0.99 0,0 z m -3.19,0.03 c 1.11,0.57 -0.79,2.34 -0.25,0.53 0.05,-0.19 0.13,-0.38 0.25,-0.53 z m 0.57,0.25 c 1.16,0.62 -0.72,1.02 0,0 z m -4.1,1.75 -0.03,0.09 0.03,-0.09 z m 1.78,0.25 c 0.19,0.33 -0.45,0.23 0,0 z m -1.09,2.06 c 1.14,0.07 -0.69,0.69 0,0 z m -3.28,1.56 c 1.25,0.06 -0.65,1.74 -0.03,0.19 0.01,-0.06 0.02,-0.12 0.03,-0.19 z m -0.66,0.13 c 0.57,0.87 -1.21,1.23 -0.12,0.25 0.04,-0.08 0.08,-0.17 0.12,-0.25 z m 0.28,1.16 c 1.95,0.05 -0.5,3.64 -0.34,1.31 0.16,-0.43 0.32,-0.85 0.34,-1.31 z m -0.84,1.12 c 0.45,1.17 -1.14,0.6 0,0 z m -2.47,0.5 c 1.01,0.71 -1.42,0.89 -0.12,0.13 l 0.12,-0.13 z m 1.56,0.84 c 1.52,-0.1 -0.65,2.25 -0.09,0.5 l 0.03,-0.25 0.06,-0.25 z m -3.21,0.91 c 0.02,0.06 -0.22,0.31 -0.13,0.03 0.09,-0.04 0.12,-0.05 0.13,-0.03 z m 0.96,0.19 c 0.44,-0.11 -0.5,0.97 -0.28,0.12 0.13,-0.07 0.22,-0.11 0.28,-0.12 z m -1.65,0.06 c 1.19,0.45 -0.8,1.11 0,0 z m 2.53,0.81 c 0.69,0.74 -0.92,0.14 0,0 z m -1.44,0.03 c 0.78,0.98 -1.07,0.81 0,0 z m -1.37,0.72 c 0.62,0.84 -0.61,1.04 0,0 z m -2.41,1.25 c 0.45,0.99 -0.44,1.04 0,0 z"
       id="p3701"
       style="display:inline;fill:#b56804;fill-opacity:0.2;fill-rule:evenodd;stroke:none"
       inkscape:connector-curvature="0" />
    <path
       d="M 37.06,15.15 9.46,39.43 8.81,39.18 9.59,40.12 C 9.84,40 10.38,39.76 10.46,39.71 11.07,39.41 35.82,17.62 37.03,16.34 l 0.03,-1.19 z"
       id="p3733"
       style="display:inline;fill:#f0dbc5;fill-opacity:0.43000004;fill-rule:evenodd;stroke:none"
       inkscape:connector-curvature="0" />
    <path
       d="m 35.62,12.31 c -0.5,0.45 -1.01,0.89 -1.31,1.06 C 33.58,13.78 8.7,35.98 8.18,36.5 8.03,36.65 7.59,37.3 7.06,38.09 L 7.4,38.93 36.93,13 35.62,12.31 Z"
       id="p3735"
       style="display:inline;fill:#291c0b;fill-opacity:0.45;fill-rule:evenodd;stroke:none"
       inkscape:connector-curvature="0" />
    <path
       d="M 8.3,37.9 35.13,14.26"
       id="p3730"
       style="display:inline;fill:none;fill-rule:evenodd;stroke:#ffc37b;stroke-width:0.25290477;stroke-linecap:butt;stroke-linejoin:miter;stroke-miterlimit:4;stroke-dasharray:none;stroke-opacity:0.58999999"
       inkscape:connector-curvature="0" />
    <path
       d="m 7.78,37.06 c -1.04,1.42 -3.85,5.84 -3.75,5.65 0,0 5.5,-2.54 6.31,-2.93 C 10.21,39.59 10.1,39.46 10.09,39.4 10.03,39.18 10.6,39.01 10.21,38.62 9.82,38.23 9.09,38.67 8.87,38.34 8.65,38 9.1,37.79 8.65,37.4 8.37,37.15 8.19,37.1 7.78,37.06 Z"
       id="p3530"
       style="fill:#b88e78;fill-opacity:1;fill-rule:evenodd;stroke:none"
       inkscape:connector-curvature="0" />
    <path
       d="m 10.18,38.62 c -0.23,0.07 -0.47,0.13 -0.62,0.13 -0.34,0 -3.47,2.5 -4.94,3.68 0.86,-0.39 4.99,-2.3 5.72,-2.65 -0.13,-0.19 -0.24,-0.32 -0.25,-0.38 -0.06,-0.22 0.51,-0.39 0.12,-0.78 0,-0.01 -0.02,0.01 -0.03,0 z"
       id="p3757"
       style="display:inline;fill:#582d12;fill-opacity:0.33000004;fill-rule:evenodd;stroke:none"
       inkscape:connector-curvature="0" />
    <path
       d="M 9.06,38.46 C 8.25,39.2 5.22,41.73 4.09,42.68 4.2,42.63 9.54,40.17 10.34,39.78 10.21,39.59 10.1,39.46 10.09,39.4 10.03,39.18 10.6,39.01 10.21,38.62 9.9,38.31 9.37,38.53 9.06,38.46 Z"
       id="p3763"
       style="display:inline;fill:#a87459;fill-opacity:0.41000001;fill-rule:evenodd;stroke:none"
       inkscape:connector-curvature="0" />
    <path
       d="m 6.09,40.87 c -0.23,0 -0.62,0.1 -1,0.19 -0.45,0.69 -1.09,1.71 -1.06,1.65 0,0 1.48,-0.69 2.75,-1.28 C 6.71,41.06 6.55,40.86 6.09,40.87 Z"
       id="p3532"
       style="fill:#1b1c1c;fill-opacity:0.86000001;fill-rule:evenodd;stroke:none"
       inkscape:connector-curvature="0" />
    <path
       d="m 42,6.71 c -0.32,0.11 -2.2,2.09 -2.82,2.5 -0.62,0.42 -1.32,1.15 -1.84,1.57 -0.52,0.41 -2.31,2.18 -3.03,2.59 -0.02,0.01 -0.16,0.14 -0.19,0.16 0.36,0.9 1.11,1.93 2.59,3.12 0.16,-0.14 0.49,-0.48 0.5,-0.5 0.21,-0.41 0.73,-1.03 1.35,-1.34 0.62,-0.31 1.05,-0.62 1.47,-1.03 0.41,-0.42 1.02,-1.04 1.43,-1.35 0.42,-0.31 1.25,-1.25 1.25,-1.25 0,0 1.56,-1.24 1.66,-1.65 C 44.47,9.11 43.95,8.37 43.43,7.75 42.91,7.12 42.31,6.61 42,6.71 Z"
       id="p3542"
       style="display:inline;fill:#f9e29c;fill-opacity:1;fill-rule:evenodd;stroke:none"
       inkscape:connector-curvature="0" />
    <path
       d="m 42.31,9.62 c 0,0 -1.8,1.15 -1.88,1.38 -0.07,0.22 -0.67,0.59 -1.09,0.78 -0.42,0.19 -0.7,0.86 -1.31,1.25 -0.61,0.38 -0.89,0.22 -1.35,0.56 -0.36,0.27 -0.67,0.98 -1.37,1.72 0.38,0.42 0.81,0.87 1.4,1.34 0.16,-0.14 0.49,-0.48 0.5,-0.5 0.21,-0.41 0.73,-1.03 1.35,-1.34 0.62,-0.31 1.05,-0.62 1.47,-1.03 0.41,-0.42 1.02,-1.04 1.43,-1.35 0.42,-0.31 1.25,-1.25 1.25,-1.25 0,0 0.21,-0.15 0.29,-0.22 L 42.31,9.62 Z"
       id="p3554"
       style="display:inline;fill:#492718;fill-opacity:0.43000004;fill-rule:evenodd;stroke:none"
       inkscape:connector-curvature="0" />
    <path
       d="m 43.34,9.5 c 0,0 -0.5,0.87 -1.03,1.21 -0.54,0.35 -1.57,1.4 -2.06,1.82 -0.5,0.42 -1.57,1.06 -1.88,1.4 -0.31,0.35 -0.67,0.96 -0.94,1.03 -0.19,0.06 -0.7,0.43 -1.28,1.19 0.19,0.17 0.35,0.33 0.56,0.5 0.16,-0.14 0.49,-0.48 0.5,-0.5 0.21,-0.41 0.73,-1.03 1.35,-1.34 0.62,-0.31 1.05,-0.62 1.47,-1.03 0.41,-0.42 1.02,-1.04 1.43,-1.35 0.42,-0.31 1.25,-1.25 1.25,-1.25 0,0 0.31,-0.28 0.6,-0.53 L 43.34,9.5 Z"
       id="p3556"
       style="display:inline;fill:#f4aa2d;fill-opacity:0.55;fill-rule:evenodd;stroke:none"
       inkscape:connector-curvature="0" />
    <path
       d="m 34.45,14.08 0.87,-0.71 c 0,0 0.38,0.33 0.76,-0.05 0.37,-0.38 0.37,-1.08 0.37,-1.08 l 1.68,-1.35 c 0,0 1.24,-0.76 1.56,-1.08 0.33,-0.33 0.81,-1.03 0.81,-1.03"
       id="p3572"
       style="display:inline;fill:none;fill-rule:evenodd;stroke:#55351a;stroke-width:0.20232382;stroke-linecap:butt;stroke-linejoin:miter;stroke-miterlimit:4;stroke-dasharray:none;stroke-opacity:0.54000005"
       inkscape:connector-curvature="0" />
    <path
       d="m 42,6.71 c -0.21,0.07 -1.12,0.97 -1.88,1.69 0.95,0.9 1.7,1.72 2.5,2.88 0.01,-0.02 0.09,-0.1 0.09,-0.1 0,0 1.56,-1.24 1.66,-1.65 C 44.47,9.11 43.95,8.37 43.43,7.75 42.91,7.12 42.31,6.61 42,6.71 Z"
       id="p3544"
       style="display:inline;fill:#ae585b;fill-opacity:1;fill-rule:evenodd;stroke:none"
       inkscape:connector-curvature="0" />
    <path
       d="m 39.31,9.12 c -0.04,0.02 -0.1,0.08 -0.13,0.09 -0.13,0.09 -0.27,0.2 -0.4,0.32 0.02,0.05 0.03,0.11 0.06,0.15 0.8,0.91 1.42,1.97 2.22,2.88 0.01,0.05 0.05,0.1 0.09,0.15 0.11,-0.09 0.22,-0.21 0.31,-0.28 0.05,-0.03 0.14,-0.11 0.19,-0.15 -0.14,-0.14 -0.29,-0.26 -0.4,-0.41 C 40.55,11 39.94,10.05 39.31,9.12 Z m -0.94,0.75 c -0.15,0.14 -0.29,0.24 -0.44,0.38 0.04,0.14 0.45,0.38 0.52,0.49 0.14,0.17 0.12,0.73 -0.12,0.46 -0.04,-0.14 -0.48,-0.64 -0.61,-0.77 -0.16,0.14 -0.09,0.21 -0.23,0.32 0.49,0.55 1.74,2.14 2.56,3.12 0.28,-0.22 0.28,-0.41 0.54,-0.66 C 39.98,12.44 39.5,11.61 39,10.78 38.8,10.47 38.59,10.16 38.37,9.87 Z m -1.81,1.5 c -0.16,0.15 -0.08,0.19 -0.28,0.38 0.04,0.1 -0.06,0.33 0.01,0.41 0.52,1 1.11,1.97 1.78,2.88 0.1,-0.07 0.38,-0.18 0.49,-0.23 -0.41,-0.56 -1.28,-2 -1.81,-2.76 -0.08,-0.17 -0.1,-0.51 -0.19,-0.68 z m 0.42,1.35 c -0.23,-0.22 -0.49,-0.75 -0.7,-0.97 -0.21,0.18 -0.32,0.3 -0.53,0.5 0.06,0.14 0.14,0.27 0.25,0.34 0.59,0.94 1.11,1.92 1.75,2.84 0.14,-0.15 0.42,-0.43 0.6,-0.56 -0.55,-0.77 -1,-1.27 -1.37,-2.15 z m -1.86,0.06 c -0.23,0.19 -0.22,0.16 -0.39,0.28 0.86,1.02 1.58,2.18 2.29,3.33 0.17,-0.12 0.11,-0.18 0.26,-0.33 -0.52,-1.02 -1.23,-1.9 -1.91,-2.81 -0.09,-0.16 -0.17,-0.32 -0.25,-0.47 z"
       id="p3602"
       style="display:inline;fill:#63421c;fill-opacity:0.65;fill-rule:evenodd;stroke:none"
       inkscape:connector-curvature="0" />
    <path
       d="m 40.53,9.28 c -0.33,0.21 -0.28,0.65 -0.27,0.99 -0.09,0.49 -0.6,-0.11 -0.84,0.15 -0.25,0.27 -0.79,0.11 -0.9,0.52 -0.07,0.36 -0.29,0.68 -0.64,0.8 -0.25,0.07 -0.61,0.12 -0.64,0.43 -0.14,0.3 -0.63,0.1 -0.74,0.44 -0.05,0.29 -0.1,0.69 -0.43,0.8 -0.33,-0.05 -0.52,0.21 -0.65,0.47 -0.15,0.1 -0.63,-0.14 -0.59,0.26 0.03,0.42 0.65,0.65 0.92,0.31 0.22,-0.2 0.41,-0.44 0.68,-0.57 0.09,-0.36 0.36,-0.66 0.73,-0.7 0.29,-0.2 0.45,-0.61 0.84,-0.63 0.35,-0.13 0.42,-0.59 0.77,-0.72 0.31,0.04 0.73,-0.07 0.76,-0.44 0.02,-0.39 0.41,-0.43 0.71,-0.35 0.42,0.04 0.49,-0.44 0.44,-0.75 C 40.59,9.96 41.08,9.74 40.86,9.43 40.78,9.32 40.63,9.36 40.53,9.28 Z m 0.5,0.56 c -0.29,-0.1 0.05,0.24 0,0 z"
       id="p3664"
       style="display:inline;fill:#fbf2a3;fill-opacity:0.68000034;fill-rule:evenodd;stroke:none"
       inkscape:connector-curvature="0" />
    <path
       d="m 36.58,14.62 c 0.72,0.12 0.72,-0.47 0.72,-0.47"
       id="p3689"
       style="fill:none;fill-rule:evenodd;stroke:#e8e989;stroke-width:0.15174288;stroke-linecap:round;stroke-linejoin:miter;stroke-miterlimit:4;stroke-dasharray:none;stroke-opacity:0.5"
       inkscape:connector-curvature="0" />
    <path
       d="m 37.13,14.07 c 0,0.59 -0.7,0.34 -0.7,0 0,-0.34 0.7,-0.57 0.7,0 z"
       id="p3691"
       style="display:inline;overflow:visible;visibility:visible;fill:#714c25;fill-opacity:0.76999996;fill-rule:evenodd;stroke:none;marker:none;enable-background:accumulate"
       inkscape:connector-curvature="0" />
    <path
       d="m 39.91,11.08 c 0,0.59 -0.7,0.35 -0.7,0 0,-0.34 0.7,-0.57 0.7,0 z"
       id="p3695"
       style="display:inline;overflow:visible;visibility:visible;fill:#714c25;fill-opacity:0.52999998;fill-rule:evenodd;stroke:none;marker:none;enable-background:accumulate"
       inkscape:connector-curvature="0" />
    <path
       d="m 39.48,11.55 c 0.72,0.11 0.72,-0.47 0.72,-0.47"
       id="p3699"
       style="display:inline;fill:none;fill-rule:evenodd;stroke:#e8e989;stroke-width:0.15174288;stroke-linecap:round;stroke-linejoin:miter;stroke-miterlimit:4;stroke-dasharray:none;stroke-opacity:0.79000005"
       inkscape:connector-curvature="0" />
    <path
       d="m 34.12,13.53 c 0.36,0.9 1.11,1.93 2.59,3.12"
       id="p3569"
       style="display:inline;fill:none;fill-opacity:1;fill-rule:evenodd;stroke:#956938;stroke-width:0.20232382;stroke-linecap:butt;stroke-linejoin:miter;stroke-miterlimit:4;stroke-dasharray:none;stroke-opacity:1"
       inkscape:connector-curvature="0" />
    <path
       d="m 40.12,8.4 c 0.95,0.9 1.7,1.72 2.5,2.88"
       id="p3566"
       style="display:inline;fill:none;fill-opacity:1;fill-rule:evenodd;stroke:#46250a;stroke-width:0.15174288;stroke-linecap:butt;stroke-linejoin:miter;stroke-miterlimit:4;stroke-dasharray:none;stroke-opacity:1"
       inkscape:connector-curvature="0" />
    <path
       d="m 4.04,42.71 c 0,0 5.81,-2.7 6.43,-3.01 0.62,-0.31 26.46,-23.18 26.75,-23.54 0.21,-0.25 1.01,-0.91 1.35,-1.18 0.54,-0.44 1.04,-0.79 1.45,-1.21 0.42,-0.41 1.04,-1.03 1.45,-1.34 0.42,-0.31 1.25,-1.25 1.25,-1.25 0,0 1.55,-1.24 1.66,-1.66 C 44.48,9.11 43.96,8.38 43.44,7.76 42.93,7.14 42.3,6.62 41.99,6.72 c -0.31,0.11 -2.17,2.08 -2.8,2.49 -0.62,0.42 -1.35,1.14 -1.86,1.56 -0.52,0.41 -2.29,2.18 -3.01,2.59 C 33.59,13.77 8.71,35.97 8.19,36.48 7.67,37 3.94,42.91 4.04,42.71 Z"
       id="path4827"
       style="display:inline;fill:none;fill-opacity:1;fill-rule:evenodd;stroke:#0b0908;stroke-width:0.25290477;stroke-linecap:butt;stroke-linejoin:miter;stroke-miterlimit:4;stroke-dasharray:none;stroke-opacity:1"
       inkscape:connector-curvature="0" />
  </g>
  <path
     style="color:#000000;clip-rule:nonzero;display:inline;overflow:visible;visibility:visible;opacity:1;isolation:auto;mix-blend-mode:normal;color-interpolation:sRGB;color-interpolation-filters:linearRGB;solid-color:#000000;solid-opacity:1;fill:#ff0000;fill-opacity:1;fill-rule:nonzero;stroke:#ffffff;stroke-width:8;stroke-linecap:round;stroke-linejoin:round;stroke-miterlimit:4;stroke-dasharray:none;stroke-dashoffset:0;stroke-opacity:1;marker:none;marker-start:none;marker-mid:none;marker-end:none;color-rendering:auto;image-rendering:auto;shape-rendering:auto;text-rendering:auto;enable-background:accumulate"
     d="m 269.94801,47.508339 c -3.28218,0 -6.5651,1.25847 -9.08008,3.77344 l -33.75586,33.755865 c -3.39584,3.39588 -4.49605,8.18943 -3.30664,12.49414 l 29.50195,0 0,26.111336 c 0,9.47004 7.62373,17.09375 17.09375,17.09375 9.47002,0 17.09374,-7.62371 17.09374,-17.09375 l 0,-26.111336 28.59375,0 c 0.29735,-1.07618 0.45179,-2.18323 0.46289,-3.29102 0.0333,-3.32336 -1.22068,-6.65623 -3.76758,-9.20312 l -33.7578,-33.755865 c -2.51499,-2.51497 -5.79594,-3.77344 -9.07812,-3.77344 z m -83.53322,83.662121 c -3.32336,-0.0333 -6.65623,1.22068 -9.20311,3.76758 l -33.75586,33.75779 c -2.51497,2.51499 -3.77344,5.79595 -3.77344,9.07813 0,3.28218 1.25847,6.56509 3.77344,9.08007 l 33.75586,33.75586 c 3.39587,3.39584 8.18942,4.49605 12.49413,3.30664 l 0,-29.50195 26.11134,0 c 9.47004,0 17.09375,-7.62373 17.09375,-17.09375 0,-9.47002 -7.62371,-17.09375 -17.09375,-17.09375 l -26.11134,0 0,-28.59373 c -1.07618,-0.29735 -2.18323,-0.45179 -3.29102,-0.46289 z m 167.06641,0 c -1.10779,0.0111 -2.21484,0.16554 -3.29102,0.46289 l 0,28.59373 -26.11132,0 c -9.47004,0 -17.09376,7.62373 -17.09376,17.09375 0,9.47002 7.62371,17.09375 17.09376,17.09375 l 26.11132,0 0,29.50195 c 4.30471,1.18941 9.09826,0.0892 12.49414,-3.30664 l 33.75586,-33.75586 c 2.51497,-2.51498 3.77344,-5.79789 3.77344,-9.08007 0,-3.28218 -1.25847,-6.56314 -3.77344,-9.07813 l -33.75586,-33.75779 c -2.54689,-2.5469 -5.87976,-3.80085 -9.20312,-3.76758 z m -83.08007,83.64061 c -9.47002,0 -17.09375,7.6237 -17.09375,17.09375 l 0,26.11132 -29.50195,0 c -1.18941,4.30471 -0.0892,9.09826 3.30664,12.49414 l 33.75586,33.75586 c 2.51498,2.51497 5.7979,3.77344 9.08008,3.77344 3.28218,0 6.56313,-1.25847 9.07812,-3.77344 l 33.7578,-33.75586 c 2.5469,-2.54689 3.80085,-5.87976 3.76758,-9.20312 -0.0111,-1.10779 -0.16554,-2.21484 -0.46289,-3.29102 l -28.59375,0 0,-26.11132 c 0,-9.47004 -7.62372,-17.09375 -17.09374,-17.09375 z"
     id="path4494"
     inkscape:connector-curvature="0" />
  <path
     style="fill:#ffff00;fill-opacity:0.53987732;fill-rule:nonzero;marker:none"
     id="p3327"
     d="m 125.27952,350.90963 c 0.3,0 12.45,28.93 12.7,29.11 0.26,0.19 31.52,2.79 31.62,3.1 0.1,0.29 -23.66,20.76 -23.77,21.07 -0.09,0.29 7.09,30.83 6.84,31.02 -0.26,0.18 -27.09,-16.08 -27.39,-16.08 -0.31,0 -27.139999,16.26 -27.389999,16.08 -0.26,-0.19 6.919999,-30.73 6.829999,-31.02 -0.1,-0.31 -23.869999,-20.78 -23.769999,-21.07 0.1,-0.31 31.359999,-2.91 31.619999,-3.1 0.26,-0.18 12.4,-29.11 12.71,-29.11 z"
     inkscape:connector-curvature="0" />
  <path
     style="opacity:0.76000001;fill:#ffffff;stroke:#000000;stroke-width:3.09872627px;stroke-linecap:butt;stroke-linejoin:round;stroke-opacity:1"
     id="p3329"
     d="m 303.82808,262.06098 c -0.42952,-0.9665 -2.16645,-4.78354 -2.16645,-4.78354 0,0 -18.25393,-5.2079 -22.09521,-11.88679 -3.84128,-6.67889 -9.93184,-21.06906 -9.93184,-21.06906 0,0 -0.32587,-0.87043 -2.53199,-3.50431 -6.11729,-2.29677 1.7921,-14.92877 10.90289,-6.30732 4.41023,7.31947 4.76063,8.01656 6.23382,11.42288 0.54256,1.22084 -14.63965,-32.80462 -16.55552,-37.25281 1.69381,-3.45333 3.36693,-7.72995 11.72804,-4.90749 1.59753,3.22922 15.47794,34.82807 15.47794,34.82807 l -8.57917,-19.94427 c 0,0 9.44848,-7.38689 11.72799,-2.89726 2.29647,4.4821 6.53704,15.34914 6.53704,15.34914 l -5.95866,-14.73305 c 0,0 7.49093,-5.44078 13.35383,-1.38624 3.21573,7.28177 5.63465,13.45569 5.63465,13.45569 0,0 -0.31272,-0.61232 -5.08645,-12.35918 0.2374,-0.1055 3.56086,-3.40994 8.68906,-1.64826 3.33266,4.89473 12.40913,27.23735 12.40913,27.23735 0,0 2.6073,6.04959 -0.21332,14.55201 1.53148,7.60386 3.26276,11.54524 3.26276,11.54524 l -32.83853,14.2892 z"
     inkscape:connector-curvature="0" />
</svg>
