<?xml version="1.0" encoding="UTF-8" standalone="no"?>
<!-- Created with Inkscape (http://www.inkscape.org/) -->
<svg xmlns:dc="http://purl.org/dc/elements/1.1/" xmlns:cc="http://creativecommons.org/ns#" xmlns:rdf="http://www.w3.org/1999/02/22-rdf-syntax-ns#" xmlns:svg="http://www.w3.org/2000/svg" xmlns="http://www.w3.org/2000/svg" version="1.1" width="100%" height="100%" viewBox="0 0 48 48" id="ear_xA0_Image_1_" xml:space="preserve">
<defs id="defs167" />
<path d="m 26.09,1.62 c -0.25,-0.00 -0.53,0.08 -0.81,0.09 -1.51,0.06 -2.24,0.34 -3.28,1 -0.89,1.10 -2.21,1.81 -3.15,2.87 -1.11,0.69 -2.00,1.61 -2.90,2.53 -0.10,0.43 -0.44,0.65 -0.65,0.93 -0.07,0.10 -0.11,0.24 -0.18,0.34 -0.07,0.10 -0.16,0.17 -0.25,0.28 -0.61,0.82 -1.02,1.84 -1.37,2.84 -0.18,0.51 -0.23,0.95 -0.28,1.59 -0.08,1.08 -0.26,2.29 -0.31,3.34 -0.02,0.62 0.02,1.22 0,1.84 -0.08,2.05 0.40,3.94 0.62,5.84 0.09,0.11 0.20,-0.13 0.31,0 -5.53e-4,1.16 0.14,1.98 0.34,2.90 0.11,0.50 0.25,1.02 0.37,1.5 0.16,0.62 0.40,1.22 0.53,1.81 0.09,0.41 0.17,0.69 0.25,1 0.29,1.18 0.45,2.40 0.75,3.56 0.39,1.52 0.88,3.15 1.34,4.56 0.19,0.24 0.38,0.48 0.37,0.93 0.46,0.42 0.70,0.92 1.06,1.43 0.18,0.26 0.37,0.60 0.59,0.84 0.10,0.11 0.30,0.17 0.43,0.31 0.13,0.13 0.20,0.33 0.34,0.43 0.19,0.14 0.54,0.27 0.81,0.40 0.27,0.12 0.51,0.31 0.78,0.43 0.06,0.02 0.15,-0.02 0.21,0 0.18,0.07 0.37,0.31 0.62,0.21 0.12,0.17 0.42,0.15 0.56,0.31 0.61,0.03 1.18,0.20 1.75,0.18 0.22,-0.00 0.44,-0.09 0.65,-0.09 0.89,0.01 1.59,-0.53 2.34,-0.71 0.34,-0.34 0.87,-0.52 1.25,-0.84 0.09,-0.08 0.12,-0.23 0.25,-0.34 0.07,-0.06 0.21,-0.05 0.28,-0.12 0.07,-0.06 0.13,-0.22 0.21,-0.31 0.09,-0.10 0.25,-0.16 0.31,-0.25 0.14,-0.20 0.15,-0.52 0.28,-0.81 0.11,-0.24 0.35,-0.42 0.46,-0.65 0.16,-0.32 0.24,-0.76 0.34,-1.15 0.10,-0.40 0.08,-0.88 0.25,-1.25 0.04,-0.09 0.15,-0.13 0.18,-0.21 0.16,-0.45 0.24,-1.06 0.31,-1.5 0.05,-0.37 0.10,-0.77 -0.03,-1.15 -0.51,-0.00 -0.53,0.63 -0.62,1 -0.12,0.53 -0.30,1.00 -0.37,1.53 -0.07,0.55 -0.31,0.96 -0.43,1.40 -0.14,0.52 -0.13,1.07 -0.34,1.5 -0.17,0.35 -0.48,0.63 -0.71,0.90 -0.23,0.27 -0.43,0.57 -0.78,0.68 0.14,-0.23 0.32,-0.41 0.56,-0.56 0.08,-0.22 0.23,-0.39 0.37,-0.56 0.00,-0.46 0.43,-0.73 0.28,-1.21 -0.19,0.21 -0.32,0.51 -0.34,0.90 -0.57,0.64 -1.13,1.39 -1.81,1.90 -0.22,0.17 -0.54,0.36 -0.84,0.34 C 27.21,44.21 27.53,44.16 27.75,44 c 0.42,-0.32 0.73,-0.78 1.18,-1.06 0.07,-0.42 0.51,-0.74 0.62,-1.15 0.10,-0.40 0.14,-0.90 0.18,-1.31 -0.37,0.30 -0.25,0.88 -0.40,1.31 -0.23,0.66 -0.92,1.27 -1.40,1.62 -0.34,0.24 -0.69,0.36 -1.12,0.53 -0.22,0.08 -0.49,0.25 -0.71,0.31 -0.16,0.04 -0.46,0.10 -0.59,0 0.43,-0.16 0.76,-0.35 1.18,-0.43 0.43,-0.32 0.93,-0.55 1.31,-0.96 0.08,-0.09 0.11,-0.22 0.18,-0.31 0.23,-0.28 0.51,-0.39 0.62,-0.71 0.05,-0.14 0.04,-0.36 0.09,-0.53 0.11,-0.42 0.31,-0.86 0.21,-1.40 -0.26,0.24 -0.20,0.70 -0.28,1.06 -0.08,0.38 -0.25,0.72 -0.34,1.03 -0.11,0.10 -0.29,0.14 -0.40,0.25 -0.12,0.28 -0.34,0.46 -0.56,0.65 -0.46,0.12 -0.75,0.52 -1.15,0.68 -0.12,0.05 -0.28,0.01 -0.40,0.06 -0.14,0.05 -0.23,0.22 -0.40,0.25 -0.31,0.05 -0.52,-0.07 -0.68,-0.09 -0.08,-0.00 -0.20,0.04 -0.28,0.03 C 24.37,43.77 24.19,43.61 24,43.56 23.83,43.51 23.63,43.53 23.46,43.5 22.94,43.38 22.25,42.91 21.81,42.5 21.65,42.35 21.55,42.13 21.40,42 21.15,41.76 20.80,41.58 20.62,41.37 20.39,41.09 20.28,40.59 19.96,40.5 c -0.03,0.22 0.12,0.45 0.21,0.62 0.44,0.82 1.27,1.28 1.71,2.03 0.29,0.01 0.42,0.31 0.65,0.43 0.35,0.18 0.79,0.22 1.25,0.34 0.07,0.13 0.26,0.15 0.34,0.28 0.13,-0.05 0.36,-0.03 0.5,-0.09 0.07,0.35 0.46,-0.09 0.56,0.21 -0.04,0.20 -0.24,-0.01 -0.40,0 -0.08,0.00 -0.11,0.10 -0.21,0.09 -0.21,-0.02 -0.38,-0.09 -0.56,-0.18 -0.07,0.04 -0.09,0.15 -0.18,0.18 0.01,-0.18 -0.07,-0.23 -0.15,-0.31 l -0.37,0 C 23.06,43.94 22.69,43.88 22.53,43.62 22.42,43.62 22.38,43.56 22.25,43.59 21.85,43.21 21.41,42.91 21.03,42.53 20.76,42.26 20.55,41.84 20.12,41.75 c -0.02,0.28 0.24,0.49 0.40,0.68 0.36,0.42 0.71,0.76 1.15,1.06 -0.00,0.13 0.08,0.18 0.12,0.28 0.26,0.05 0.43,0.20 0.59,0.37 -0.34,0.03 -0.47,-0.15 -0.59,-0.34 -0.49,-0.19 -0.71,-0.68 -1.15,-0.93 -0.51,-0.91 -1.47,-1.37 -1.71,-2.56 -0.47,-0.14 -0.27,-0.95 -0.68,-1.15 -0.14,0.35 0.12,0.65 0.21,0.93 0.03,0.11 -0.00,0.25 0.03,0.37 0.03,0.11 0.14,0.20 0.21,0.34 0.23,0.45 0.45,0.79 0.65,1.18 0.35,0.25 0.61,0.58 0.84,0.96 0.40,0.27 0.82,0.80 1.03,1.12 C 20.63,43.83 20.40,43.41 20,42.93 19.68,42.56 19.31,42.34 19.21,41.87 18.99,41.71 18.84,41.47 18.68,41.25 c -0.30,-0.90 -0.94,-1.46 -1.03,-2.59 -0.11,-0.19 -0.28,-0.44 -0.31,-0.62 -0.27,-1.65 -0.66,-3.20 -1.06,-4.84 -0.10,-0.44 -0.24,-0.84 -0.37,-1.28 -0.13,-0.45 -0.20,-0.89 -0.31,-1.34 -0.12,-0.49 -0.39,-0.96 -0.53,-1.34 -0.13,-0.37 -0.21,-0.83 -0.31,-1.25 -0.14,-0.60 -0.25,-1.03 -0.31,-1.65 -0.05,-0.52 -0.29,-0.97 -0.40,-1.5 -0.15,-0.70 -0.20,-1.51 -0.34,-2.31 -0.12,-0.75 -0.34,-1.57 -0.40,-2.31 -0.01,-0.20 0.01,-0.43 0,-0.65 -0.04,-0.56 -0.14,-1.20 -0.09,-1.84 0.05,-0.68 0.24,-1.34 0.31,-2.03 0.05,-0.56 0.09,-0.94 0.18,-1.43 0.06,-0.35 0.10,-0.76 0.21,-1.06 0.04,-0.13 0.17,-0.21 0.21,-0.34 0.10,-0.30 0.11,-0.64 0.21,-0.93 0.20,-0.59 0.53,-1.05 0.78,-1.53 0.13,-0.25 0.22,-0.57 0.5,-0.71 0.04,0.54 0.08,1.10 0.21,1.56 0.19,0.05 0.07,-0.21 0.12,-0.28 0.05,-0.07 0.19,-0.02 0.21,-0.12 -0.03,-0.50 0.03,-0.92 0.25,-1.18 0.10,-0.01 0.09,0.06 0.21,0.03 0.22,-0.51 0.26,-1.18 0.68,-1.5 C 17.28,8.57 17.01,8.79 17,9.28 17.14,9.38 17.32,9.19 17.5,9.18 17.68,8.84 17.70,8.36 18,8.12 18.11,7.69 18.31,7.28 18.46,6.96 18.51,6.86 18.56,6.69 18.68,6.65 18.54,6.98 18.38,7.32 18.25,7.68 18.12,8.03 17.91,8.39 17.93,8.75 c 0.29,0.01 0.20,-0.32 0.37,-0.43 -0.01,0.11 0.07,0.13 0.18,0.12 C 18.68,8.15 18.76,7.73 19,7.5 18.94,7.62 18.93,7.81 18.93,8 c 0.20,-0.01 0.17,-0.26 0.21,-0.43 0.38,-0.67 0.71,-1.44 1.12,-2.09 -0.16,0.31 -0.24,0.69 -0.37,1.06 -0.13,0.37 -0.54,0.73 -0.34,1.09 0.35,-0.15 0.26,-0.93 0.56,-1 -0.03,0.21 -0.18,0.49 -0.06,0.71 0.26,-0.03 0.22,-0.37 0.28,-0.62 0.43,-0.14 0.48,-0.69 0.68,-1.06 0.08,0.01 0.01,0.16 0.15,0.12 0.48,-0.88 1.19,-1.56 1.75,-2.37 C 22.92,3.28 22.77,3.29 22.71,3.21 22.96,3.18 23.11,2.97 23.37,2.90 23.51,2.86 23.67,2.91 23.81,2.87 23.99,2.81 24.11,2.64 24.28,2.59 24.43,2.54 24.69,2.52 24.87,2.5 c 0.41,-0.04 0.84,0.00 1.21,0 0.23,-0.00 0.43,-0.09 0.62,-0.09 0.23,0.00 0.50,0.13 0.75,0.15 0.53,0.04 0.83,0.06 1.25,0.15 0.82,0.17 1.48,0.64 2.15,0.81 0.76,0.52 1.69,1.07 2.34,1.71 0.42,0.41 0.81,0.78 1.12,1.28 0.34,0.55 0.38,1.02 0.15,1.59 -0.06,0.16 -0.09,0.35 -0.15,0.5 -0.11,0.26 -0.37,0.48 -0.43,0.81 -0.09,0.50 -0.04,0.67 -0.31,1 0.06,0.33 0.03,0.63 -0.21,0.75 -0.08,-0.07 -0.03,-0.33 -0.15,-0.37 -0.37,0.23 -0.65,0.55 -0.59,1.21 -0.05,0.15 -0.31,0.06 -0.31,0.28 0.15,0.22 -0.00,0.26 0.06,0.53 0.19,0.09 0.32,-0.20 0.5,-0.28 0.18,-0.07 0.40,-0.09 0.43,-0.31 0.17,-0.11 -0.24,-0.17 -0.09,-0.28 0.10,-0.10 0.21,0.03 0.37,0 -0.09,0.11 -0.10,0.31 -0.18,0.43 0.16,0.19 0.03,0.42 0.18,0.62 0.22,-0.05 0.24,-0.30 0.34,-0.46 0.11,-0.17 0.27,-0.33 0.40,-0.5 0.24,-0.32 0.40,-0.75 0.68,-0.93 -0.02,0.30 -0.25,0.38 -0.25,0.71 -0.04,0.09 -0.22,0.04 -0.21,0.18 -0.51,0.58 -0.79,1.40 -1.46,1.84 -0.07,-0.16 -0.28,-0.17 -0.40,-0.18 0.12,-0.04 0.28,-0.07 0.37,-0.15 -0.08,-0.42 0.23,-0.42 0.15,-0.84 -0.47,0.10 -0.73,0.40 -0.96,0.75 -0.33,0.06 -0.36,0.39 -0.68,0.46 -0.08,-0.68 0.10,-1.10 0.15,-1.59 0.04,-0.40 0.06,-0.50 0.18,-0.78 0.06,-0.14 0.13,-0.34 0.18,-0.43 0.08,-0.15 0.23,-0.23 0.28,-0.37 C 32.50,10.35 32.47,9.89 32.43,9.62 32.30,8.68 31.45,8.07 31.06,7.25 30.88,7.17 30.76,7.01 30.65,6.87 30.35,6.74 29.98,6.69 29.81,6.43 30.17,6.39 30.09,6.29 30.34,6.5 30.49,6.01 31.09,5.71 31.03,5.15 30.69,5.09 30.69,5.62 30.5,5.56 c 0.04,-0.09 0.18,-0.38 0,-0.43 -0.24,0.08 -0.27,0.64 -0.46,0.62 -0.01,-0.21 0.20,-0.41 0.06,-0.62 -0.38,0.02 -0.24,0.59 -0.5,0.75 0.02,-0.20 0.17,-0.73 -0.12,-0.75 -0.14,0.10 -0.01,0.48 -0.18,0.56 0.00,-0.21 -0.03,-0.35 -0.12,-0.46 -0.18,-0.05 -0.11,0.12 -0.21,0.15 -0.06,-0.10 -0.06,-0.24 -0.25,-0.21 -0.19,0.15 0.03,0.51 -0.15,0.62 -0.02,-0.18 0.07,-0.49 -0.12,-0.5 C 28.30,5.15 28.30,5.49 28.18,5.5 28.18,5.32 27.96,5.39 27.84,5.34 27.52,5.48 27.08,5.35 26.68,5.21 26.35,5.10 26.07,4.88 25.84,4.90 25.52,4.93 25.42,5.34 25.06,5.25 c -0.09,-0.50 0.52,-0.57 0.46,-0.96 -0.04,-0.31 -0.49,-0.34 -0.84,-0.5 -0.19,0.11 -0.23,0.22 -0.53,0.15 -0.17,0.08 -0.27,0.45 -0.46,0.37 0.03,-0.19 0.23,-0.21 0.21,-0.46 -0.33,-0.10 -0.48,0.33 -0.81,0.37 -0.09,0.36 -0.49,0.42 -0.46,0.90 0.47,-0.05 0.48,-0.57 0.87,-0.71 -0.02,0.50 0.27,0.23 0.56,0.31 -0.16,-0.26 0.14,-0.46 0.28,-0.40 -0.04,0.31 -0.15,0.41 -0.09,0.75 -0.05,0.15 -0.26,0.15 -0.21,0.40 0.32,0.02 0.38,-0.57 0.62,-0.78 -0.19,0.37 0.27,0.34 0.25,0.68 -0.43,0.37 -0.93,0.68 -1.31,1.12 -0.52,0.24 -0.96,0.64 -1.46,0.96 -0.64,0.41 -1.36,0.75 -2,1.18 -0.30,0.20 -0.57,0.47 -0.87,0.71 -0.83,0.67 -1.66,1.29 -2.06,2.34 -0.43,0.63 -0.66,1.42 -0.90,2.28 -0.15,0.56 -0.24,1.10 -0.34,1.71 -0.15,0.99 -0.43,1.99 -0.56,2.96 -0.09,0.72 -0.05,1.46 -0.09,2.21 -0.02,0.53 -0.12,1.16 0,1.68 0.06,0.29 0.26,0.54 0.34,0.84 0.15,0.58 0.22,1.16 0.40,1.75 0.25,0.84 0.76,1.73 0.93,2.53 0.28,0.40 0.51,1.07 0.75,1.46 0.18,0.30 0.22,0.62 0.37,0.90 0.10,0.19 0.30,0.32 0.40,0.53 0.10,0.21 0.19,0.48 0.28,0.71 0.27,0.71 0.67,1.36 0.96,2.03 0.20,0.47 0.34,0.99 0.53,1.46 0.17,0.45 0.28,0.98 0.68,1.31 0.17,-0.25 -0.03,-0.54 -0.12,-0.75 -0.11,-0.26 -0.28,-0.51 -0.31,-0.78 -0.01,-0.15 0.08,-0.33 0.06,-0.5 C 20.55,33.85 20.33,33.62 20.18,33.34 20.04,33.05 19.95,32.73 19.84,32.5 19.56,31.87 19.17,31.00 19.25,30.25 18.93,29.84 18.82,29.30 18.68,28.75 18.55,28.20 18.31,27.65 18.25,27.06 18.12,25.97 18.14,24.75 18.06,23.65 17.99,22.71 17.83,21.76 17.75,20.81 17.67,19.97 17.74,19.07 17.71,18.25 17.69,17.60 17.64,16.98 17.65,16.40 17.67,15.26 17.53,14.14 18,13.25 c 0.10,1.62 0.17,3.35 0.25,4.96 0.05,1.23 -0.07,2.64 0.06,3.62 0.03,0.26 -0.08,0.73 0.21,0.78 0.08,-0.69 -0.18,-1.84 0.06,-2.56 -0.18,-0.24 -0.08,-0.46 -0.06,-0.71 0.06,-0.96 -0.00,-2.10 -0.06,-3.25 -0.04,-1.03 -0.01,-2.17 -0.09,-3.03 -0.03,-0.35 -0.07,-0.65 0.21,-0.81 0.03,0.42 0.00,0.88 0,1.21 -0.00,0.25 0.10,0.50 0.12,0.75 0.04,0.46 -0.03,0.99 0.28,1.28 0.10,-0.58 -0.14,-1.29 -0.15,-2.03 -0.00,-0.59 -0.00,-1.72 0.28,-1.90 0.03,0.96 -0.10,2.09 0.43,2.56 0.20,-0.16 0.01,-0.42 -0.03,-0.68 -0.11,-0.56 -0.23,-1.64 -0.09,-2.12 0.02,-0.08 0.10,-0.27 0.25,-0.28 -0.02,0.53 0.22,0.88 0.31,1.25 0.06,0.26 0.05,0.57 0.09,0.84 0.03,0.26 0.02,0.55 0.21,0.75 0.21,-0.19 0.02,-0.49 0,-0.71 -0.04,-0.31 -0.04,-0.66 -0.09,-1 -0.07,-0.52 -0.26,-1.09 -0.03,-1.56 0.23,1.01 0.24,2.28 0.84,2.93 0.03,0.26 -0.00,0.60 0.21,0.68 0.22,-0.25 0.13,-0.90 0,-1.18 -0.11,-0.13 -0.16,0.16 -0.28,0.03 C 20.80,12.43 20.67,11.75 20.62,11 c -0.01,-0.21 -0.16,-0.48 0.03,-0.65 0.30,0.59 0.21,1.20 0.46,1.75 0.07,0.16 0.26,0.31 0.34,0.5 0.09,0.20 0.10,0.49 0.18,0.71 0.39,-0.15 0.00,-0.76 0.06,-1.12 -0.08,-0.11 -0.26,-0.10 -0.31,-0.25 -0.07,-0.27 -0.15,-0.69 -0.25,-1.06 -0.07,-0.28 -0.37,-0.85 0.12,-0.93 0.05,0.28 0.12,0.60 0.21,0.87 0.09,0.25 0.18,0.59 0.5,0.62 -0.06,-0.59 -0.53,-1.20 -0.28,-1.84 0.18,0.12 0.12,0.37 0.18,0.56 0.05,0.16 0.21,0.33 0.28,0.5 0.07,0.18 0.02,0.52 0.28,0.53 0.19,-0.23 -0.03,-0.61 -0.15,-0.93 -0.10,-0.28 -0.40,-0.76 0.09,-0.84 0.05,0.53 0.12,1.03 0.46,1.28 0.16,-0.51 -0.47,-1.03 -0.12,-1.59 0.25,0.37 0.17,1.09 0.62,1.28 0.12,-0.46 -0.36,-1.16 -0.18,-1.46 0.23,0.38 0.18,1.07 0.62,1.25 0.04,-0.34 -0.09,-0.48 -0.12,-0.75 0.26,0.16 0.11,0.70 0.59,0.65 0.01,-0.44 -0.62,-0.82 -0.43,-1.43 0.18,0.40 0.21,0.97 0.71,1.06 0.12,-0.41 -0.75,-0.96 -0.21,-1.37 0.14,0.35 0.07,0.92 0.53,0.96 C 24.91,8.87 24.44,8.74 24.65,8.31 24.83,8.56 24.80,8.99 25.21,9 25.34,8.72 24.71,8.28 25.12,8 c 0.17,0.19 0.17,0.78 0.5,0.68 0.15,-0.20 -0.34,-0.66 0,-0.78 0.17,0.14 0.10,0.53 0.43,0.53 0.12,-0.21 -0.33,-0.67 0.12,-0.71 0.17,0.07 0.12,0.40 0.37,0.40 0.15,-0.13 -0.14,-0.44 0.06,-0.5 0.32,-0.09 0.22,0.25 0.5,0.21 0.18,0.03 0.09,-0.19 0.28,-0.15 0.49,0.33 0.84,0.79 1.18,1.28 0.44,0.14 0.37,0.78 0.34,1.31 -0.00,0.19 -0.00,0.48 -0.03,0.59 -0.21,0.86 -1.36,0.89 -1.78,1.43 -1.38,0.66 -2.15,1.95 -3.21,2.93 -0.37,0.68 -0.90,1.30 -1.37,2 -0.44,0.65 -0.85,1.43 -1.15,2.25 -0.36,0.99 -0.68,2.09 -0.87,3.12 -0.07,0.41 -0.03,0.88 -0.09,1.34 -0.01,0.11 -0.09,0.22 -0.09,0.34 -0.00,0.29 0.14,0.57 0.18,0.84 0.01,0.11 -0.01,0.23 0,0.34 0.14,1.17 0.63,2.26 1.06,3.18 0.26,0.19 0.48,0.40 0.75,0.56 0.30,0.18 0.64,0.28 0.96,0.46 0.26,0.15 0.44,0.36 0.75,0.37 0.74,0.57 1.46,1.19 2.21,1.75 0.34,0.72 1.05,1.23 1.28,2.15 0.16,0.67 0.05,1.43 0.25,2.21 0.17,0.16 0.38,0.30 0.59,0.43 0.25,-0.02 0.28,-0.02 0.53,0 0.30,-0.19 0.59,-0.40 0.90,-0.59 0.65,-1.00 1.26,-2.05 1.12,-3.43 -0.12,-1.17 -0.57,-1.87 -1.03,-2.68 -0.26,-0.47 -0.71,-0.93 -0.78,-1.34 -0.15,-0.92 0.37,-1.25 0.75,-1.75 -0.01,0.25 0.24,0.46 0.43,0.25 0.05,-0.28 -0.32,-0.15 -0.31,-0.40 0.25,-0.42 0.37,-0.94 0.56,-1.43 0.07,0.03 0.12,0.12 0.21,0.03 -0.07,-0.30 0.19,-0.28 0.28,-0.43 0.01,-0.18 -0.05,-0.44 0.03,-0.56 -0.00,-0.12 0.28,0.02 0.21,-0.15 -0.13,-1.07 0.27,-1.92 0.46,-2.81 -0.44,0.24 -0.41,0.98 -0.68,1.40 0.05,-0.60 0.32,-1.01 0.40,-1.59 -0.10,-0.16 -0.21,0.26 -0.31,0.09 0.21,-1.05 0.66,-1.88 1.28,-2.53 -0.00,-0.14 -0.06,-0.22 -0.03,-0.40 0.30,-0.52 1.46,-0.75 1.06,-1.40 -0.11,-0.19 -0.14,-0.22 -0.31,-0.43 -0.08,-0.11 -0.15,-0.19 -0.21,-0.34 -0.21,-0.03 -0.38,0.20 -0.53,0.09 0.28,-0.12 0.54,-0.29 0.78,-0.46 0.19,0.11 0.41,-0.07 0.53,0 -0.06,0.17 -0.33,0.11 -0.37,0.31 0.00,0.22 0.19,0.28 0.34,0.37 0.15,-0.11 0.32,-0.18 0.56,-0.21 0.01,0.31 0.19,0.35 0.09,0.68 0.18,-0.03 0.39,0.11 0.62,0.12 0.44,0.01 1.09,-0.24 1.62,-0.15 0.42,0.06 0.66,0.39 0.96,0.09 l 0,-0.40 C 37.32,16.29 37.30,15.96 37.12,15.68 c -0.15,-0.24 -0.41,-0.38 -0.53,-0.65 -0.03,-0.08 -0.02,-0.21 -0.06,-0.31 -0.05,-0.16 -0.20,-0.29 -0.25,-0.43 -0.06,-0.17 -0.07,-0.42 -0.12,-0.62 -0.21,-0.94 -0.28,-2.04 -0.37,-3.09 -0.08,-0.94 -0.23,-1.97 -0.37,-2.84 -0.07,-0.46 -0.13,-0.64 -0.28,-1 C 34.89,6.17 34.61,5.70 34.25,5.34 33.62,4.72 32.89,4.08 32.21,3.62 31.95,3.44 31.65,3.33 31.37,3.15 31.24,3.07 31.16,2.94 31.03,2.87 30.83,2.76 30.60,2.68 30.40,2.59 c -0.17,-0.08 -0.35,-0.19 -0.5,-0.25 C 29.48,2.17 29.20,2.17 28.75,2.09 27.90,1.94 27.03,1.64 26.09,1.62 z m 3.93,39.65 c 0.20,-0.11 0.39,-0.43 0.31,-0.68 -0.21,0.12 -0.29,0.36 -0.31,0.68 z M 26.34,2.87 c -0.09,0.28 0.03,0.36 0.12,0.56 -0.05,0.01 -0.09,0.05 -0.18,0.03 l 0,0.28 c 0.23,-0.15 0.19,0.18 0.40,0.18 0.27,-0.12 0.11,-0.66 -0.12,-0.68 0.00,-0.20 0.01,-0.39 -0.21,-0.37 z m -4,0.65 c 0.04,0.31 -0.25,0.42 -0.40,0.62 -0.20,0.26 -0.28,0.67 -0.65,0.81 0.26,-0.54 0.45,-1.38 1.06,-1.43 z m 0.81,0.03 c -0.45,0.44 -0.85,0.91 -1.25,1.37 -0.15,0.17 -0.39,0.35 -0.34,0.65 0.24,0.02 0.20,-0.22 0.31,-0.34 0.49,-0.28 0.67,-0.85 1.21,-1.09 0.00,-0.22 0.34,-0.33 0.18,-0.59 l -0.12,0 z m 8.43,1.90 C 31.18,5.50 30.95,5.69 30.93,6.12 31.13,6.17 31.08,5.98 31.25,6 c 0.12,0.23 0.56,0.46 0.78,0.21 0.03,0.05 0.07,0.11 0.06,0.21 0.11,0.04 0.26,0.07 0.43,0.06 0.05,0.28 0.48,0.17 0.65,0.34 C 33.24,6.72 33.27,6.69 33.21,6.56 32.93,6.55 32.98,6.25 32.62,6.31 32.56,6.13 32.36,6.09 32.34,5.87 32.20,5.82 32.01,5.79 32.03,5.59 31.85,5.56 31.86,5.71 31.68,5.68 31.69,5.57 31.61,5.55 31.59,5.46 z M 15.96,9 c 0.10,0.43 -0.06,0.96 0,1.5 -0.11,-0.37 -0.22,-1.18 0,-1.5 z m 18.93,0.18 c 0.04,0.41 -0.31,0.66 -0.53,1 -0.14,0.22 -0.25,0.43 -0.40,0.62 0.14,-0.53 0.65,-1.08 0.93,-1.62 z m -19.5,1.15 c -0.13,0.57 0.06,1.18 0.40,1.43 0.09,-0.48 -0.29,-0.84 -0.28,-1.40 -0.05,-0.00 -0.05,-0.04 -0.12,-0.03 z m 6.62,1.18 c -0.07,0.30 -0.02,0.81 0.31,0.84 0.09,-0.28 0.00,-0.73 -0.21,-0.84 l -0.09,0 z M 15.18,11.56 c -0.03,0.00 -0.06,0.04 -0.06,0.09 -0.06,0.19 0.16,0.46 0.40,0.5 0.14,-0.26 -0.16,-0.64 -0.34,-0.59 z M 35,12.25 c 0.04,0.32 -0.29,0.62 -0.56,0.78 C 34.56,12.70 34.82,12.52 35,12.25 z m -19.93,0.78 c 0.09,0.30 -0.30,0.68 0.03,0.81 0.02,-0.25 0.13,-0.63 0.09,-0.81 l -0.12,0 z m 19.90,0.31 C 35.01,13.34 34.99,13.40 35,13.43 c -0.31,0.40 -0.70,0.72 -1.15,1 0.26,-0.47 0.81,-0.66 1.12,-1.09 z M 20.62,13.68 c -0.17,0.22 -0.05,0.69 0,0.96 0.40,-0.02 0.13,-0.63 0.12,-0.90 -0.05,-0.00 -0.05,-0.07 -0.12,-0.06 z m -5.75,0.28 c -0.01,0.22 -0.15,0.59 0.12,0.62 0.04,-0.12 0.16,-0.69 -0.12,-0.62 z m 20.09,0 c -0.00,0.23 -0.25,0.27 -0.40,0.40 -0.17,0.15 -0.31,0.39 -0.5,0.53 -0.06,0.04 -0.20,0.05 -0.31,0.12 -0.19,0.12 -0.34,0.31 -0.65,0.37 -0.12,0.02 -0.13,0.18 -0.18,0.28 -0.04,0.01 -0.14,-0.02 -0.18,0 0.02,-0.08 0.24,-0.16 0.25,-0.31 0.78,-0.35 1.29,-0.97 2,-1.40 z M 20,14 c 0.00,0.06 -0.00,0.08 -0.03,0.12 0.06,1.35 0.08,2.80 0.09,4.15 0.00,0.31 -0.11,0.74 0.15,0.93 0.20,-0.24 0.10,-0.61 0.09,-0.93 -0.04,-1.45 0.02,-2.96 -0.18,-4.21 C 20.06,14.06 20.07,13.98 20,14 z m 1.68,0 c -0.18,0.13 -0.16,0.59 0.09,0.65 C 21.91,14.55 21.93,13.99 21.68,14 z m 8.06,0.09 c 0.27,0.47 0.30,1.19 0.46,1.78 -0.22,0.30 -0.00,0.74 -0.12,1.12 -0.11,-0.22 -0.14,-0.51 -0.12,-0.78 0.02,-0.28 0.05,-0.34 0,-0.65 -0.04,-0.23 -0.01,-0.53 -0.06,-0.75 C 29.85,14.57 29.68,14.34 29.75,14.09 z M 19.34,14.5 l 0,0.12 c -0.14,0.52 -8.1e-4,1.16 0.03,1.81 0.05,1.13 4e-4,2.34 0.06,3.43 0.01,0.30 -0.00,0.71 0.25,0.90 0.15,-0.14 0.07,-0.40 0.06,-0.59 -0.08,-1.94 -0.03,-3.94 -0.28,-5.68 l -0.12,0 z m 13.21,0.15 c 0.05,0.01 0.09,0.08 0.09,0.15 -0.34,0.23 -0.70,0.44 -1.06,0.65 0.15,-0.43 0.66,-0.52 0.96,-0.81 z M 30.25,14.75 c 0.25,0.24 0.17,0.85 0.37,1.15 -0.17,0.18 -0.20,0.38 -0.21,0.65 -0.12,-0.12 -0.08,-0.28 -0.06,-0.43 0.00,-0.01 0.09,-0.02 0.09,-0.03 C 30.56,15.62 30.27,15.19 30.25,14.75 z m -0.75,0.09 c 0.23,0.43 0.38,1.13 0.25,1.68 -0.19,-0.41 -0.25,-1.22 -0.25,-1.68 z m -8.34,0.09 c -0.14,0.15 -0.04,0.31 -0.03,0.56 0.01,0.27 -0.08,0.66 0.12,0.71 0.22,-0.19 0.15,-1.01 0.03,-1.28 l -0.12,0 z m 7.75,0.09 c 0.16,0.34 0.00,1.01 0.25,1.28 0.14,-0.02 0.04,-0.30 0.12,-0.40 0.11,0.21 0.21,0.35 0.15,0.65 -0.10,0.01 -0.09,-0.06 -0.21,-0.03 -0.13,0.31 0.04,0.68 0,1.06 -0.08,-0.07 -0.08,-0.25 -0.18,-0.31 -0.26,0.41 0.09,1.30 -0.31,1.5 0.01,-0.36 0.26,-0.86 0.03,-1.18 -0.21,0.01 -0.09,0.35 -0.12,0.56 -0.09,0.24 -0.20,0.45 -0.25,0.75 -0.09,-0.21 0.18,-0.83 -0.06,-1.06 -0.22,0.11 -0.09,0.39 -0.12,0.59 -0.07,0.41 -0.26,0.84 -0.40,1.15 -0.05,-0.43 0.44,-1.05 0.18,-1.56 -0.31,0.20 -0.11,0.89 -0.43,1.09 -0.13,-0.20 0.18,-0.69 -0.06,-0.87 -0.27,0.14 -0.19,0.55 -0.25,0.84 -0.07,0.41 -0.19,0.78 -0.31,1.09 -0.15,-0.57 0.42,-1.17 0.12,-1.75 -0.25,0.25 -0.17,0.82 -0.40,1.09 -0.17,-0.18 0.18,-0.62 -0.06,-0.75 -0.31,0.31 -0.18,1.19 -0.46,1.62 -0.00,-0.32 0.19,-0.83 0.15,-1.34 -0.41,0.13 -0.14,1.05 -0.43,1.40 -0.19,-0.12 -0.01,-0.40 0.03,-0.59 0.05,-0.23 0.11,-0.44 0.03,-0.65 -0.47,0.22 -0.18,1.20 -0.59,1.5 -0.02,-0.44 0.27,-0.78 0.12,-1.21 -0.33,0.31 -0.18,1.10 -0.5,1.43 -0.34,-0.19 0.15,-0.79 -0.03,-1.12 -0.33,0.28 -0.16,1.06 -0.5,1.34 -0.15,-0.32 0.17,-0.74 0,-1.09 -0.34,0.31 -0.07,1.25 -0.65,1.34 0.02,-0.33 0.18,-0.55 0.18,-0.90 -0.41,0.13 -0.18,0.92 -0.53,1.12 -0.05,-0.33 0.22,-0.64 0.03,-0.84 -0.34,0.32 -0.25,1.05 -0.43,1.53 -0.13,-0.44 0.32,-0.98 0.09,-1.40 -0.33,0.29 -0.19,1.08 -0.53,1.37 -0.10,-0.22 0.12,-0.48 0.12,-0.75 -0.20,-0.36 -0.48,-0.65 -0.53,-1.18 0.21,0.17 0.27,0.46 0.56,0.56 0.15,-0.24 -0.12,-0.42 -0.06,-0.71 0.27,-0.17 0.22,0.20 0.46,0.18 0.17,-0.26 -0.13,-0.70 -0.15,-1.06 0.27,0.03 0.29,0.33 0.53,0.40 0.19,-0.52 -0.38,-1.00 -0.31,-1.68 0.18,0.42 0.22,0.98 0.53,1.28 0.29,-0.05 0.00,-0.35 0,-0.5 0.12,0.01 0.10,0.21 0.21,0.25 0.32,-0.11 -0.09,-0.51 0.03,-0.68 0.22,-0.00 0.19,0.23 0.43,0.21 0.16,-0.18 -0.11,-0.45 0,-0.59 0.21,-0.02 0.10,0.27 0.31,0.25 0.23,-0.10 -0.03,-0.51 0.09,-0.65 0.20,0.06 0.08,0.43 0.31,0.46 0.26,-0.10 0.05,-0.47 0.09,-0.75 0.21,0.00 0.08,0.34 0.25,0.40 0.16,0.02 0.18,-0.08 0.18,-0.21 0.16,-0.01 0.07,0.21 0.21,0.21 0.33,-0.04 0.01,-0.47 0.21,-0.62 0.13,0.03 0.03,0.31 0.12,0.40 0.41,-0.01 0.11,-0.46 0.18,-0.78 0.19,0.07 -0.02,0.54 0.25,0.53 0.28,-0.05 0.00,-0.44 0.09,-0.71 0.18,0.12 0.06,0.56 0.31,0.62 0.21,-0.16 -0.02,-0.79 0.12,-1.03 0.33,0.11 -0.03,0.70 0.18,0.87 0.49,-0.04 0.05,-1.01 0.40,-1.21 0.17,0.30 -0.19,0.89 0.12,1.06 0.24,-0.22 0.14,-0.81 0.18,-1.25 0.30,0.08 0.00,0.77 0.21,0.93 0.34,-0.08 0.08,-0.76 0.15,-1.12 0.25,0.14 0.06,0.75 0.31,0.90 0.30,-0.17 -0.02,-0.85 0.15,-1.28 z m 3.84,0 c 0.05,-0.00 0.08,-0.00 0.09,0.03 -0.03,0.33 -0.40,0.36 -0.68,0.5 -0.19,0.09 -0.30,0.32 -0.53,0.34 0.23,-0.43 0.86,-0.47 1.12,-0.87 z M 20.62,15.12 c -0.14,0.28 -0.11,1.00 0.12,1.18 0.16,-0.25 0.09,-0.91 0,-1.18 l -0.12,0 z m -3.31,0.43 c 0.05,-0.00 0.08,-0.00 0.09,0.03 -0.08,3.36 0.25,6.44 0.37,9.81 -0.31,-0.18 -0.12,-0.58 -0.15,-0.87 -0.03,-0.32 -0.12,-0.69 -0.15,-1.03 -0.06,-0.68 -0.10,-1.36 -0.15,-2.09 -0.15,-1.99 -0.59,-4.08 0,-5.71 l 0,-0.12 z M 18.90,16 c -0.11,0.73 -0.00,1.65 0.03,2.53 0.03,0.89 -0.05,1.75 0,2.5 0.01,0.18 -0.09,0.47 0.12,0.59 0.22,-0.62 0.15,-1.40 0.15,-2.12 0,-1.19 -0.14,-2.39 -0.21,-3.40 C 18.99,16.04 18.94,16.01 18.90,16 z m 5.43,0.56 c 0.05,-0.00 0.08,0.02 0.09,0.06 -0.00,0.37 -0.05,0.55 0,0.90 -0.18,-0.16 -0.21,-0.76 -0.09,-0.96 z m -3.68,0.15 c -0.14,0.25 -0.11,0.83 0.18,0.90 0.05,-0.27 0.11,-0.85 -0.18,-0.90 z m -6.28,0.06 c -0.13,0.00 -0.25,0.09 -0.37,0.15 0.13,0.39 -0.31,0.59 -0.15,1 0.26,-0.08 0.55,-0.18 0.68,-0.40 -0.06,-0.27 0.01,-0.45 0,-0.75 -0.04,-0.01 -0.11,-0.00 -0.15,0 z M 23.84,17 c 0.16,0.23 0.10,0.72 0.18,1.03 C 23.73,17.92 23.71,17.26 23.84,17 z M 14.25,17.87 c -0.19,0.02 -0.47,0.26 -0.43,0.46 0.28,0.00 0.42,-0.13 0.62,-0.21 0.02,-0.18 -0.06,-0.26 -0.18,-0.25 z m 2.62,1.84 c 0.13,0.92 0.19,1.92 0.21,2.96 -0.20,-0.82 -0.35,-1.94 -0.21,-2.96 z m 5,0.65 c 0.25,0.30 0.08,1.00 0.59,1.06 -0.28,0.57 -0.34,1.34 -0.53,2 -0.01,0.05 -0.10,0.09 -0.12,0.15 -0.07,0.22 -0.01,0.57 -0.25,0.68 0.01,-0.29 0.00,-0.58 0.09,-0.84 0.07,-0.22 0.40,-0.69 0.37,-1.06 -0.02,-0.32 -0.38,-0.47 -0.31,-0.90 0.18,0.08 0.17,0.40 0.37,0.46 C 22.21,21.42 21.73,20.90 21.87,20.37 z m 8.03,0.09 c 0.26,0.24 0.08,0.83 0.06,1.18 -0.07,-0.31 -0.07,-0.93 -0.06,-1.18 z m 4.15,0.12 c -0.23,0.23 -0.14,0.78 -0.15,1.25 -0.21,0.23 -0.50,0.74 -0.5,1.18 0.00,0.15 0.03,0.38 0.18,0.46 0.13,-0.35 -0.07,-1.02 0.25,-1.18 0.02,0.57 -0.22,1.36 0.06,1.78 0.07,-0.24 0.22,-0.42 0.46,-0.5 -0.04,-0.89 0.24,-1.69 0.31,-2.34 -0.45,-0.03 -0.38,0.54 -0.43,0.90 -0.02,0.19 -0.06,0.37 -0.09,0.56 -0.03,0.21 0.03,0.45 -0.12,0.56 -0.04,-0.97 0.25,-1.77 0.15,-2.65 -0.05,-0.00 -0.05,-0.04 -0.12,-0.03 z M 30.62,20.68 c 0.17,0.18 -0.16,0.88 0.21,0.87 -0.07,0.33 -0.04,0.79 -0.28,0.96 -0.10,-0.01 -0.03,-0.19 -0.12,-0.21 -0.16,-0.00 -0.16,0.17 -0.18,0.31 -0.14,0.04 -0.04,-0.13 -0.06,-0.21 -0.22,0.09 -0.17,0.05 -0.31,-0.09 -0.20,0.06 -0.04,0.50 -0.28,0.53 -0.01,-0.16 0.05,-0.37 -0.03,-0.46 -0.36,0.22 -0.14,1.04 -0.5,1.28 -0.01,-0.42 0.13,-0.69 0.09,-1.15 -0.27,0.16 -0.15,0.71 -0.31,1 7.37e-4,-0.74 0.15,-1.65 0.12,-2.37 0.17,0.26 -0.12,1.02 0.18,1.15 0.03,-0.20 0.09,-0.49 0.09,-0.75 0.00,-0.23 -0.18,-0.57 0.09,-0.65 0.19,0.41 -0.24,1.14 0.12,1.34 0.12,-0.04 0.09,-0.21 0.12,-0.34 0.09,0.03 0.06,0.20 0.18,0.21 0.14,-9.21e-4 0.03,-0.25 0.12,-0.31 0.09,0.05 0.05,0.26 0.18,0.28 0.07,-0.01 0.10,-0.08 0.09,-0.18 0.46,0.43 0.28,-0.97 0.43,-1.18 z m -16.25,0.21 c -0.15,-0.00 -0.34,0.06 -0.34,0.21 0.09,0.20 0.54,0.11 0.5,-0.18 -0.03,-0.01 -0.10,-0.02 -0.15,-0.03 z m 14,0.43 c 0.05,-0.00 0.05,0.02 0.06,0.06 0.13,0.86 -0.09,1.64 -0.06,2.34 -0.19,-0.16 -0.08,-0.47 -0.06,-0.71 0.03,-0.49 0.08,-1.17 0.06,-1.68 z m 3.53,0.12 c -0.00,0.05 -0.07,0.08 -0.06,0.15 -0.14,0.50 -0.43,1.34 -0.43,1.93 1.84e-4,0.18 0.01,0.46 0.21,0.53 0.05,-0.93 0.20,-1.77 0.40,-2.56 -0.05,-0.00 -0.05,-0.07 -0.12,-0.06 z m -3.81,0.06 c 0.03,0.01 0.08,0.04 0.09,0.09 -0.00,0.39 -0.00,0.80 -0.03,1.28 -0.01,0.37 -0.04,0.76 -0.25,0.96 -0.01,-0.85 0.07,-1.61 0.18,-2.34 z m 4.25,0.03 c -0.00,0.05 -0.04,0.05 -0.03,0.12 -0.09,0.40 -0.39,1.06 -0.40,1.59 -0.00,0.20 -0.04,0.53 0.21,0.62 0.17,-0.22 0.07,-0.51 0.09,-0.78 0.04,-0.54 0.31,-1.09 0.25,-1.56 l -0.12,0 z m 0.43,0.09 c -0.13,0.63 -0.59,1.74 -0.09,2.12 0.08,-0.48 0.08,-0.95 0.15,-1.37 0.04,-0.24 0.27,-0.54 0.03,-0.75 l -0.09,0 z m -5.12,0.18 c 0.05,-0.00 0.08,-0.00 0.09,0.03 -0.11,0.69 0.06,1.68 -0.12,2.31 -0.28,-0.15 -0.13,-0.59 -0.09,-0.93 0.04,-0.43 0.06,-0.90 0.12,-1.28 l 0,-0.12 z m -0.87,0.09 C 26.82,21.95 26.86,21.95 26.87,22 c 0.00,0.46 -0.04,0.96 -0.06,1.5 -0.01,0.28 0.02,0.58 -0.12,0.71 -0.20,-0.16 -0.07,-0.42 -0.06,-0.65 0.03,-0.52 0.04,-1.16 0.15,-1.62 z m 8,0 c -0.03,0.03 -0.06,0.08 -0.09,0.15 -0.09,0.23 -0.22,1.04 0.03,1.15 0.24,-0.08 0.14,-0.47 0.15,-0.75 0.01,-0.18 0.07,-0.38 0.03,-0.53 -0.05,-0.00 -0.05,-0.04 -0.12,-0.03 z m -8.68,0.15 0.15,0 c -0.03,0.76 -0.10,1.40 -0.18,2.21 -0.00,0.08 0.01,0.30 -0.12,0.34 -0.01,-0.93 0.08,-1.72 0.15,-2.56 z m 7.12,0.06 c -0.12,0.36 -0.41,1.12 -0.09,1.5 0.10,-0.44 0.15,-0.95 0.25,-1.5 l -0.15,0 z M 25.75,22.18 c 0.03,0.01 0.08,0.04 0.09,0.09 -0.08,0.81 -0.23,1.55 -0.40,2.28 -0.13,-0.26 0.04,-0.49 0.09,-0.81 0.07,-0.53 -0.00,-1.24 0.21,-1.56 z m -0.43,0.12 c 0.05,-0.00 0.08,0.02 0.09,0.06 -0.02,1.03 -0.18,1.91 -0.43,2.71 -0.07,-0.94 0.22,-1.88 0.34,-2.78 z m -0.34,0.06 0.12,0 c -0.13,0.54 -0.24,1.21 -0.31,1.84 -0.03,0.28 -0.00,0.68 -0.25,0.84 0.12,-0.91 0.18,-1.89 0.43,-2.68 z m -0.5,0.09 0.09,0 c 0.16,0.10 0.04,0.43 0,0.65 -0.04,0.19 -0.15,0.42 -0.18,0.62 -0.13,0.87 -0.10,1.85 -0.37,2.62 -0.16,-1.39 0.25,-2.62 0.46,-3.90 z M 23.15,22.5 c 0.03,0.01 0.05,0.04 0.06,0.09 0.00,0.50 -0.14,0.94 -0.25,1.43 -0.10,0.48 -0.12,1.00 -0.21,1.46 -0.03,0.14 -0.15,0.27 -0.18,0.40 -0.04,0.15 0.05,0.35 -0.12,0.43 0.19,-1.31 0.40,-2.64 0.71,-3.84 z m 0.90,0.03 c 0.03,0.01 0.08,0.04 0.09,0.09 -0.21,1.10 -0.40,2.23 -0.65,3.31 -0.08,-1.23 0.32,-2.34 0.56,-3.40 z m -0.53,0.09 0.15,0 c 0.09,0.63 -0.14,1.29 -0.28,1.90 -0.13,0.62 -0.16,1.28 -0.46,1.78 0.11,-1.14 0.33,-2.54 0.59,-3.68 z m 11.59,0 c -0.09,0.09 -0.16,0.56 0.06,0.59 0.13,-0.05 0.15,-0.38 0.06,-0.53 -0.05,-0.00 -0.05,-0.07 -0.12,-0.06 z m -12.78,0.09 c 0.04,0.01 0.03,0.09 0.09,0.09 -0.02,0.45 -0.19,0.87 -0.31,1.31 -0.10,0.41 -0.12,0.94 -0.43,1.21 -0.08,-0.30 0.13,-0.52 0.21,-0.78 0.19,-0.60 0.15,-1.27 0.43,-1.84 z m -7.25,0.09 c -0.32,0.20 -1.23,0.52 -0.56,0.93 0.18,-0.18 0.71,-0.21 0.56,-0.59 0.02,-0.11 0.19,-0.09 0.18,-0.25 -0.06,-0.02 -0.12,-0.07 -0.18,-0.09 z m 7.75,0.09 c -0.29,1.14 -0.57,2.32 -0.81,3.53 -0.28,-0.35 0.06,-1.03 0.21,-1.37 0.01,-0.38 0.13,-0.79 0.21,-1.15 0.08,-0.36 0.12,-0.76 0.37,-1 z M 15.06,23.68 c -0.27,-0.01 -0.52,0.02 -0.5,0.31 0.19,0.08 0.55,-0.00 0.5,-0.31 z m 0,0.43 c -0.16,-0.00 -0.25,0.08 -0.28,0.21 0.08,0.12 0.05,0.39 0.18,0.46 0.08,-0.18 0.13,-0.46 0.09,-0.68 z m 0.31,1.90 c -0.22,0.02 -0.36,0.15 -0.18,0.34 0.14,-0.04 0.17,-0.11 0.25,0.06 -0.10,0.06 -0.26,0.04 -0.25,0.21 0.06,0.23 0.44,0.07 0.46,-0.12 -0.10,-0.16 -0.02,-0.24 -0.03,-0.5 -0.09,-0.01 -0.17,-0.00 -0.25,0 z m 16.59,0.06 c -0.18,0.01 -0.31,0.08 -0.28,0.28 0.08,0.18 0.39,-0.05 0.56,0.09 -0.07,0.25 -0.59,0.04 -0.53,0.43 0.26,0.06 0.72,-0.02 0.81,-0.28 -0.06,-0.17 -0.18,-0.24 -0.09,-0.46 -0.06,-0.03 -0.28,-0.07 -0.46,-0.06 z m -8.56,0.06 c 0.18,0.33 -0.03,0.93 -0.12,1.37 -0.21,-0.05 0.00,-0.33 0.03,-0.43 -0.00,-0.34 -0.01,-0.71 0.09,-0.93 z m -7.75,0.71 c -0.22,0.10 -0.53,0.10 -0.53,0.43 0.24,0.10 0.66,-0.16 0.53,-0.43 z M 25.71,27 c 0.21,0.29 -0.01,0.89 -0.06,1.21 C 25.44,27.90 25.80,27.46 25.71,27 z m 6.71,0.09 c -0.35,0.06 -0.72,0.24 -1.03,0.21 -0.06,0.05 -0.03,0.19 -0.03,0.31 0.44,0.12 1.34,-0.09 1.40,-0.53 -0.10,-0.01 -0.22,-0.02 -0.34,0 z m -8.28,0.09 c 0.28,0.33 -0.02,0.84 0.06,1.37 -0.27,-0.25 -0.02,-0.92 -0.06,-1.37 z m 5.75,0.09 c -0.06,0.01 -0.13,0.04 -0.12,0.12 -0.03,0.18 0.22,0.09 0.18,0.28 -0.06,0.08 -0.31,-0.02 -0.37,0.06 -0.02,0.15 0.09,0.20 0.15,0.28 -0.11,0.00 -0.25,6.1e-4 -0.25,0.12 0.04,0.27 0.30,0.18 0.18,0.53 0.29,0.16 0.75,-0.06 1.03,-0.18 0.04,-0.37 -0.34,-0.36 -0.5,-0.56 -0.08,-0.11 -0.03,-0.25 -0.18,-0.34 0.05,-0.05 0.06,-0.17 0.06,-0.28 -0.03,-0.03 -0.11,-0.04 -0.18,-0.03 z m -5.25,0.03 c 0.25,0.41 -0.10,0.94 0,1.5 -0.17,-0.33 -0.00,-1.05 0,-1.5 z M 15.68,27.37 c -0.22,0.03 -0.48,0.27 -0.5,0.53 0.23,0.16 0.40,-0.44 0.62,-0.15 -0.13,0.08 -0.41,0.25 -0.28,0.46 0.18,-0.06 0.38,-0.11 0.43,-0.31 -0.09,-0.18 -0.11,-0.22 -0.06,-0.5 -0.06,-0.04 -0.14,-0.04 -0.21,-0.03 z m 16.62,0.28 c -0.29,0.03 -0.60,0.22 -0.90,0.25 -0.01,0.57 1.20,0.00 1.21,-0.21 -0.09,-0.02 -0.21,-0.04 -0.31,-0.03 z m 0.75,0.09 c -0.28,0.29 -1.80,0.35 -1.37,0.90 0.42,-0.02 0.77,-0.28 1.09,-0.43 0.17,-0.08 0.45,-0.06 0.5,-0.31 -0.04,-0.07 -0.08,-0.17 -0.21,-0.15 z m -7.93,0.37 c 0.10,0.33 0.03,0.86 0.06,1.28 C 24.95,29.21 25.00,28.38 25.12,28.12 z m 7.62,0.34 c -0.34,0.06 -0.75,0.27 -0.65,0.62 0.29,-0.11 0.57,-0.23 0.68,-0.53 C 32.74,28.55 32.74,28.51 32.75,28.46 z m -2.21,0.25 c -0.17,-0.01 -0.42,0.18 -0.62,0.18 -0.02,0.46 0.71,0.16 0.75,-0.09 -0.03,-0.07 -0.06,-0.08 -0.12,-0.09 z m 2.37,0.09 c -0.25,-0.01 -0.61,0.30 -0.46,0.59 0.30,-0.06 0.56,-0.15 0.65,-0.43 -0.03,-0.08 -0.10,-0.15 -0.18,-0.15 z m -2.12,0.28 c -0.25,0.04 -0.50,0.07 -0.53,0.34 0.25,0.11 0.62,0.02 0.53,-0.34 z M 33.06,30.37 c -0.11,0.32 0.10,0.69 0.21,0.93 -0.11,0.23 -0.12,0.59 0.15,0.65 0.20,-0.19 -0.00,-0.47 -0.06,-0.75 -0.05,-0.29 0.01,-0.65 -0.18,-0.84 l -0.12,0 z m -9.59,0.03 c -0.24,-0.04 -0.29,0.28 -0.15,0.37 -0.23,0.19 -0.12,0.45 -0.31,0.68 0.20,0.05 0.31,-0.01 0.46,0.12 0.19,-0.05 0.41,-0.29 0.56,-0.25 -0.03,0.15 -0.28,0.11 -0.28,0.31 0.09,0.09 0.15,-0.03 0.31,0 -0.00,0.13 -0.00,0.27 0.15,0.25 0.14,-0.40 -0.03,-0.86 0.06,-1.21 -0.14,-0.37 -0.57,-0.23 -0.78,0 0.00,-0.10 0.01,-0.22 -0.03,-0.28 z m 1.87,1.37 c -0.20,0.05 -0.34,0.32 -0.65,0.28 -0.21,0.18 -0.54,0.21 -0.78,0.37 0.06,0.20 0.12,0.31 0.12,0.5 0.51,-0.09 0.94,-0.25 1.40,-0.40 -0.16,0.22 -0.49,0.35 -0.75,0.5 -0.09,0.05 -0.31,-0.01 -0.21,0.21 0.16,0.03 0.17,-0.09 0.34,-0.06 -0.01,0.10 -0.05,0.16 -0.03,0.31 0.28,0.05 0.79,-0.16 0.75,-0.43 -0.22,-0.03 -0.26,0.14 -0.5,0.09 0.10,-0.20 0.35,-0.27 0.53,-0.40 -0.04,-0.24 0.14,-0.43 -0.03,-0.56 -0.22,0.03 -0.44,0.30 -0.65,0.21 0.13,-0.17 0.38,-0.24 0.65,-0.28 0.01,-0.15 0.10,-0.13 0.03,-0.28 -0.09,-0.04 -0.14,-0.07 -0.21,-0.06 z M 17.06,32.12 c -0.08,0.02 -0.10,0.12 -0.18,0.15 -0.00,0.28 0.06,0.46 0.25,0.56 0.34,-0.05 0.15,-0.50 0.06,-0.71 -0.04,-0.01 -0.09,-0.00 -0.12,0 z m 11.21,0.18 c 0.14,0.40 0.07,0.88 0,1.34 -0.21,-0.31 -0.03,-0.98 0,-1.34 z m 0.87,0.09 c 0.20,0.19 0.26,0.87 0,1.06 -0.02,-0.20 -0.10,-0.75 0,-1.06 z M 25.56,33.5 c -0.13,-0.09 -0.46,0.17 -0.53,0.28 0.12,0.16 0.48,0.05 0.59,-0.06 0.01,-0.12 -0.01,-0.18 -0.06,-0.21 z m 0.18,0.84 0,0.18 c 0.32,0.27 0.44,0.76 0.81,1 0.15,-0.30 -0.16,-0.45 -0.21,-0.68 -0.26,-0.05 -0.28,-0.38 -0.5,-0.5 l -0.09,0 z m -7.59,0.12 c -0.01,0.21 -0.10,0.77 0.21,0.78 -0.01,-0.26 0.04,-0.63 -0.09,-0.78 l -0.12,0 z m 0.68,0.25 c -0.05,0.20 -0.15,0.59 0.09,0.68 0.07,-0.16 0.08,-0.63 -0.09,-0.68 z M 19.87,35.25 c -0.08,0.23 -0.06,0.70 0.18,0.75 0.06,-0.18 -0.02,-0.50 -0.06,-0.71 -0.05,-0.00 -0.05,-0.04 -0.12,-0.03 z m -2.68,0.12 c -0.20,0.16 -0.03,0.60 0.12,0.68 0.07,-0.19 0.06,-0.62 -0.12,-0.68 z m 14.37,0.03 c -0.16,0.14 -0.15,0.44 -0.06,0.65 0.26,-0.03 0.33,-0.59 0.06,-0.65 z m -14.09,0.12 c -0.01,0.44 0.03,0.84 0.31,1 -0.04,-0.37 0.07,-0.96 -0.31,-1 z m 0.81,0.25 c -0.08,0.25 -0.07,0.67 0.12,0.78 0.13,-0.15 0.10,-0.71 -0.12,-0.78 z m 2.15,0.06 c -0.04,0.24 0.01,0.70 0.21,0.84 0.14,-0.29 -0.05,-0.56 -0.06,-0.84 l -0.15,0 z m -0.37,0.46 c -0.19,0.35 0.02,0.66 0.12,1.03 0.06,0.26 0.02,0.70 0.34,0.62 C 20.38,37.45 20.22,36.93 20.12,36.37 20.11,36.32 20.10,36.33 20.06,36.31 z m 10.78,0.15 c -0.06,0.16 -0.33,0.56 -0.09,0.75 0.12,-0.18 0.16,-0.42 0.21,-0.68 -0.05,-0.00 -0.05,-0.07 -0.12,-0.06 z m 0.46,0 c -0.08,0.15 -0.26,0.74 -0.06,0.87 0.12,-0.24 0.23,-0.49 0.21,-0.87 l -0.15,0 z m -12.25,0.09 c -0.09,0.23 0.06,0.61 0.25,0.71 0.13,-0.23 -0.10,-0.46 -0.09,-0.71 l -0.15,0 z m -1.21,0.21 C 17.73,37.06 17.93,37.33 18,37.62 c 0.09,0.41 0.10,0.92 0.5,0.96 0.02,-0.40 -0.27,-0.69 -0.34,-1.06 -0.06,-0.34 -0.08,-0.50 -0.21,-0.71 -0.00,-0.03 -0.04,-0.03 -0.09,-0.03 z m 10.31,0 c -0.10,0.25 -1.6e-4,0.61 0.06,0.84 0.31,-0.05 0.17,-0.79 -0.06,-0.84 z M 18.5,37.06 c -0.02,0.17 0.03,0.67 0.21,0.78 0.04,-0.23 -0.00,-0.66 -0.21,-0.78 z m 3.09,0.06 c 0.01,0.24 0.29,0.42 0.53,0.31 -0.00,-0.27 -0.29,-0.26 -0.53,-0.31 z m 6.25,0.46 c -0.10,0.16 -0.14,0.64 0.06,0.75 0.05,-0.17 0.15,-0.70 -0.06,-0.75 z M 21.06,37.62 c -0.01,0.05 -0.05,0.09 -0.03,0.18 0.28,0.25 0.41,0.66 0.84,0.78 0.17,-0.31 -0.22,-0.40 -0.37,-0.53 0.01,-0.26 -0.28,-0.21 -0.31,-0.43 l -0.12,0 z M 19.37,37.75 c 0.22,1.23 0.83,2.07 1.37,3 -0.03,0.13 0.06,0.17 0.06,0.28 0.81,0.89 1.50,1.90 2.81,2.31 0.12,-0.00 0.11,-0.15 0.21,-0.18 -0.00,0.10 0.01,0.19 0.06,0.25 0.61,-0.06 1.18,0.11 1.71,0 0.40,-0.08 0.67,-0.42 1.09,-0.43 0.98,-0.53 1.41,-1.86 1.43,-3.21 -0.20,0.07 -0.15,0.40 -0.18,0.65 -0.25,0.42 -0.36,1.01 -0.5,1.56 -0.33,0.19 -0.53,0.49 -0.90,0.68 -0.76,0.38 -2.12,0.43 -2.96,0.09 -0.35,-0.14 -0.57,-0.47 -0.93,-0.46 C 22.60,42.18 22.49,42.11 22.46,42 22.30,41.95 22.14,41.90 22,41.81 c -0.12,-0.08 -0.22,-0.28 -0.40,-0.46 -0.19,-0.19 -0.47,-0.32 -0.62,-0.5 -0.05,-0.06 -0.08,-0.21 -0.15,-0.31 C 20.64,40.30 20.52,40.20 20.5,39.93 20.33,39.83 20.26,39.59 20.12,39.46 19.92,38.89 19.75,38.35 19.53,37.81 19.47,37.81 19.44,37.73 19.37,37.75 z m -0.65,0.18 c 0.02,0.45 0.15,0.79 0.43,1 0.09,-0.37 -0.21,-0.67 -0.31,-1 l -0.12,0 z M 29.43,38.12 c -0.08,0.09 -0.18,0.58 0,0.65 0.09,-0.09 0.26,-0.61 0,-0.65 z m -11.59,0.28 c -0.00,0.30 0.03,0.54 0.25,0.62 0.09,-0.22 -0.02,-0.57 -0.25,-0.62 z M 30.75,38.56 c -0.03,0.25 -0.22,0.67 -0.03,0.87 0.15,-0.20 0.19,-0.60 0.15,-0.87 l -0.12,0 z m -12.21,0.21 c -0.02,0.60 0.24,1.31 0.68,1.59 0.12,-0.27 -0.20,-0.47 -0.28,-0.68 -0.04,-0.25 -0.24,-0.63 -0.40,-0.90 z m 1.81,0.09 c 0.12,0.61 0.49,1.06 0.84,1.43 0.15,0.16 0.38,0.38 0.59,0.31 0.05,-0.32 -0.28,-0.30 -0.43,-0.43 C 20.95,39.86 20.74,39.35 20.5,38.87 l -0.15,0 z m 0.68,0.06 c 0.13,0.26 0.33,0.68 0.65,0.62 -0.17,-0.24 -0.40,-0.45 -0.65,-0.62 z m -1.68,0.46 c -0.01,0.41 0.17,0.61 0.40,0.78 -0.03,-0.36 -0.16,-0.62 -0.40,-0.78 z m 11.21,0.06 c -0.06,0.22 -0.21,0.57 -0.12,0.81 0.19,-0.06 0.30,-0.66 0.12,-0.81 z M 19.25,40.5 c -0.04,0.37 0.19,0.43 0.34,0.65 0.15,0.22 0.23,0.55 0.46,0.43 C 19.80,41.21 19.66,40.71 19.25,40.5 z m 7.46,0.03 c -0.12,0.25 -0.35,0.42 -0.56,0.59 -0.14,0.08 -0.40,0.02 -0.34,0.31 0.43,-0.01 0.96,-0.28 1,-0.84 -0.00,-0.03 -0.04,-0.06 -0.09,-0.06 z m 0.18,0.90 c -0.16,0.32 -0.41,0.52 -0.75,0.65 -0.25,0.10 -0.67,0.01 -0.75,0.34 0.03,0.00 0.03,0.04 0.03,0.09 0.73,-0.15 1.31,-0.45 1.59,-1.06 -0.05,-0.00 -0.05,-0.04 -0.12,-0.03 z M 23.37,44.53 c 0.17,0.03 0.37,0.25 0.46,0 0.10,0.20 0.39,0.23 0.59,0.34 -0.09,0.08 -0.10,0.27 -0.28,0.28 0.08,-0.63 -0.70,-0.13 -0.78,-0.62 z m 1.28,0.25 c 0.22,0.24 0.82,-0.07 0.87,0.28 -0.30,-0.10 -0.87,0.13 -1.06,-0.15 0.01,-0.09 0.20,-0.00 0.18,-0.12 z" />
</svg>
