<?xml version="1.0" encoding="UTF-8" standalone="no"?>
<!-- Created with Inkscape (http://www.inkscape.org/) -->
<svg xmlns:dc="http://purl.org/dc/elements/1.1/" xmlns:cc="http://creativecommons.org/ns#" xmlns:rdf="http://www.w3.org/1999/02/22-rdf-syntax-ns#" xmlns:svg="http://www.w3.org/2000/svg" xmlns="http://www.w3.org/2000/svg" version="1.1" width="100%" height="100%" viewBox="0 0 48 48">
<defs/>
<path d="m 25.10,1.12 c -0.47,-0.00 -1.01,0.08 -1.28,0.37 0.00,0.33 0.12,0.56 -0.16,0.66 C 22.99,1.86 22.11,1.75 21.42,1.66 19.03,1.33 17.79,2.18 16.56,3.17 14.68,3.91 13.23,5.08 13.10,7.58 12.87,7.78 12.85,8.18 12.60,8.36 11.58,8.10 11.28,8.90 10.64,9.20 10.58,9.34 10.44,9.40 10.42,9.59 9.80,9.95 9.43,10.57 9.08,11.21 9.04,11.85 8.72,12.22 8.69,12.88 c 0.29,0.22 0.42,0.61 0.44,1.11 -0.07,0.07 -0.24,0.05 -0.39,0.05 -0.76,1.00 -1.62,1.90 -1.67,3.62 -0.05,0.11 -0.24,0.08 -0.22,0.27 0.03,0.07 0.21,0.00 0.22,0.11 0.07,0.39 0.04,0.58 0.16,0.94 -0.26,0.41 -0.30,0.87 -0.50,1.39 -0.10,0.26 -0.27,0.53 -0.33,0.78 -0.05,0.25 -0.01,0.60 -0.05,0.89 -0.08,0.53 -0.23,0.85 -0.11,1.45 0.13,0.67 0.41,1.42 0.50,2.17 0.09,0.84 0.35,1.20 0.66,1.84 0.10,0.21 0.12,0.45 0.22,0.61 0.08,0.13 0.31,0.29 0.44,0.44 0.37,0.43 0.73,0.73 1.17,1.00 0.28,-0.02 0.36,0.15 0.66,0.11 -0.00,0.52 0.59,0.44 0.55,1.00 0.61,0.30 1.18,1.14 2.17,0.94 0.22,-0.04 0.32,-0.25 0.61,-0.33 0.15,-0.13 0.16,-0.54 0.44,-0.39 0.00,0.25 -0.09,0.30 -0.11,0.50 -0.09,1.06 1.04,1.21 1.06,2.40 0.41,0.56 1.54,0.79 2.06,0.22 0.06,0.08 0.04,0.24 0.22,0.22 0.64,-0.01 0.79,-0.62 1.39,-0.39 0.24,-0.32 0.48,-0.78 0.33,-1.33 0.28,-0.31 0.80,-0.21 1.17,-0.16 0.01,0.20 -0.32,0.05 -0.22,0.33 0.03,0.17 0.20,0.20 0.33,0.27 0.36,-0.10 0.37,-0.55 0.61,-0.78 0.73,-0.05 0.54,1.00 -0.16,0.66 -0.08,0.12 0.04,0.41 0.22,0.44 0.35,0.03 0.34,-0.28 0.72,-0.22 0.81,0.96 1.52,2.04 2.62,2.73 0.11,0.19 0.26,0.60 0.11,0.89 -0.77,-0.06 -0.90,0.50 -1.28,0.83 -0.28,-0.14 -0.43,0.14 -0.61,0.27 -0.19,-0.06 -0.30,-0.21 -0.55,-0.22 -0.29,0.13 -0.42,0.43 -0.61,0.66 -0.27,-0.01 -0.35,0.17 -0.61,0.16 -0.44,0.57 -1.61,0.42 -2.06,1.00 0.33,0.11 0.82,0.00 1.22,-0.11 0.40,-0.12 0.80,-0.43 1.11,-0.55 l 0.44,0 c 0.20,-0.03 0.17,-0.30 0.33,-0.39 -0.02,0.17 0.14,0.19 0.22,0.11 0.00,-0.25 -0.20,-0.27 -0.27,-0.44 0.26,-0.21 0.77,0.53 1.17,0.05 -0.07,0.26 0.18,0.47 0.11,0.55 -0.49,0.08 -1.03,0.12 -1.39,0.33 -0.15,0.25 -0.02,0.45 -0.05,0.78 -0.04,0.58 -0.46,1.28 -0.33,1.73 0.18,0.64 1.27,0.40 1.33,-0.27 0.06,-0.62 -0.55,-0.72 -0.55,-1.39 0.58,-0.10 1.12,-0.24 1.73,-0.33 0.04,-0.32 -0.20,-0.34 -0.22,-0.61 0.22,-0.10 0.33,-0.33 0.50,-0.50 0.37,0.10 0.35,0.61 0.66,0.78 0.05,-0.30 -0.02,-0.45 -0.16,-0.72 0.22,-0.24 0.07,-0.85 0.50,-0.89 -0.12,0.17 0.11,0.53 0.05,0.72 -0.01,0.03 -0.19,-0.03 -0.16,0.05 0.00,0.01 0.15,-0.01 0.16,0 0.10,0.09 -0.01,0.53 0.27,0.33 0.13,-0.69 -0.59,-1.47 -0.33,-2.12 0.81,0.11 1.42,0.43 1.95,0.83 0.99,-0.43 1.64,-1.36 2.51,-1.84 0.30,-0.16 0.49,-0.29 0.78,-0.50 0.48,-0.36 0.71,-0.56 1.00,-1.06 0.28,-0.47 0.44,-0.96 0.83,-1.33 -0.10,0.28 0.07,0.48 0.11,0.78 0.16,1.22 -0.27,2.75 0.22,3.74 -0.43,0.12 -0.70,0.40 -0.94,0.72 -0.13,-0.00 -0.17,0.08 -0.27,0.11 -0.18,0.46 -0.87,0.43 -1.00,0.94 0.50,0.01 0.81,-0.44 1.22,-0.72 0.09,-0.06 0.23,-0.05 0.33,-0.11 0.22,-0.13 0.38,-0.50 0.72,-0.39 -0.15,0.32 -0.52,0.44 -0.78,0.66 -0.13,0.86 -0.63,1.37 -1.28,1.73 0.00,-0.13 -0.08,-0.17 -0.16,-0.22 -0.42,0.24 -0.80,0.59 -1.22,0.83 -0.29,0.16 -0.65,0.21 -0.94,0.39 -0.57,0.33 -0.92,0.94 -1.56,1.17 -0.40,-0.40 -0.33,-1.30 -0.72,-1.73 -0.79,0.10 -0.79,-0.58 -1.28,-0.78 -0.05,0.57 0.48,0.47 0.55,0.94 0.11,0.72 -0.47,0.60 -0.55,1.11 -0.03,0.18 0.11,0.85 0.27,0.89 0.33,-0.12 0.02,-0.56 -0.05,-0.78 0.27,-0.32 0.59,-0.59 0.61,-1.17 0.24,0.10 0.37,0.32 0.39,0.66 0.25,0.04 0.26,0.32 0.33,0.55 -0.16,0.06 -0.19,0.25 -0.16,0.50 0.21,0.20 0.47,0.01 0.83,0.05 0.16,-0.07 0.22,-0.25 0.39,-0.33 0.91,-0.44 1.58,-1.12 2.51,-1.56 -0.49,0.33 -0.21,0.97 0,1.45 -0.14,0.41 -0.73,0.37 -0.83,0.83 0.13,0.12 0.32,-0.04 0.50,-0.16 0.05,-0.03 0.44,-0.33 0.44,-0.33 0.33,-0.46 -0.17,-0.81 -0.22,-1.22 0.30,-0.45 0.62,-0.90 1.28,-1.00 0.53,-0.49 1.00,-0.95 1.17,-1.78 0.47,-0.05 0.57,-0.46 0.78,-0.78 0.26,-0.00 0.47,0.04 0.55,0.22 -0.42,-0.05 -0.44,0.29 -0.72,0.39 0.10,0.54 -0.17,0.82 -0.16,1.28 -0.15,-0.14 -0.36,-0.22 -0.61,-0.27 -0.25,0.24 -0.27,0.49 -0.22,0.94 -0.49,0.28 -1.17,0.38 -1.39,0.94 0.09,0.23 0.30,0.36 0.39,0.61 -0.14,0.45 -0.52,0.66 -0.66,1.11 0.05,0.28 0.18,0.48 0.33,0.66 0.26,0.01 0.50,0.04 0.72,0 0.49,-0.10 0.85,-0.61 1.28,-0.55 -0.30,0.28 -0.65,0.20 -0.89,0.55 -0.33,0.48 0.04,1.32 -0.44,1.73 -0.31,-0.20 -1.52,-0.69 -1.33,0.05 0.67,-0.26 1.08,0.29 1.61,0.16 0.30,-0.38 0.33,-1.00 0.27,-1.61 0.31,-0.74 1.54,-0.57 2.06,-1.11 0.01,-0.12 -0.00,-0.21 -0.05,-0.27 0.31,-0.19 0.57,-0.43 0.94,-0.55 0.16,-0.30 0.27,-0.65 0.61,-0.78 -0.22,0.42 -0.10,1.19 -0.61,1.33 0.09,0.06 0.38,0.20 0.50,0.05 -0.07,-0.03 -0.02,-0.42 0.11,-0.44 -0.11,0.54 0.43,0.58 0.39,0.89 0.18,-0.14 0.41,0.08 0.50,-0.16 -1.69e-4,-0.38 -0.51,-0.03 -0.55,-0.44 0.30,-0.17 0.54,-0.42 0.61,-0.83 0.21,-0.04 0.26,0.18 0.39,0.05 0.08,-0.36 -0.30,-0.19 -0.44,-0.27 -0.14,-0.08 -0.09,-0.23 -0.22,-0.27 -0.16,-0.06 -0.43,-0.01 -0.55,-0.11 0.07,-0.35 0.35,-0.52 0.66,-0.66 0.63,-0.29 0.99,0.73 1.61,0.61 0.21,-0.06 0.32,-0.22 0.50,-0.33 0.31,0.09 0.67,0.13 1.11,0.11 0.17,0.03 0.14,0.26 0.33,0.27 0.27,0.01 0.51,-0.00 0.72,-0.05 l 0,-0.39 c -0.31,0.00 -0.67,-0.04 -0.83,0.11 C 38.62,40.32 37.67,40.14 37.16,40.23 36.77,39.89 36.26,39.97 35.88,39.73 c -0.51,-0.31 -0.78,-0.99 -1.11,-1.45 -0.22,-0.04 -0.28,0.08 -0.50,0.05 -0.38,-0.58 -0.98,-0.95 -1.45,-1.45 -0.17,-0.38 -0.05,-1.22 -0.16,-1.89 -0.07,-0.43 -0.25,-0.73 -0.27,-1.00 0.14,0.04 0.21,0.33 0.39,0.16 0.04,-0.36 -0.33,-0.29 -0.22,-0.72 0.32,-0.37 0.99,-0.37 1.11,-0.83 0.09,-0.38 -0.26,-0.55 -0.44,-0.94 0.03,-0.20 0.33,-0.15 0.50,-0.22 0.17,-0.12 0.27,-0.32 0.61,-0.27 -0.04,-0.70 0.35,-1.37 0.27,-1.95 -0.05,-0.43 -0.51,-0.55 -0.50,-1.00 0.59,-0.36 0.95,-0.88 1.33,-1.39 0.38,-0.52 0.92,-0.95 1.06,-1.67 0.16,0.00 0.21,-0.11 0.33,-0.16 0.05,-0.73 0.37,-1.20 0.58,-1.77 -0.01,-0.07 -0.00,-0.16 0.01,-0.22 0.00,-0.02 0.02,-0.04 0.03,-0.07 -0.01,2.79e-4 -0.01,7.95e-4 -0.02,0.00 0.16,-0.50 0.38,-0.95 0.39,-1.61 0.23,-0.19 0.48,-0.45 0.61,-0.83 0.15,-0.47 0.04,-1.16 0.55,-1.33 0.05,-0.28 0.15,-0.51 0.11,-0.89 -0.15,-0.21 -0.46,-0.28 -0.50,-0.61 0.07,-0.29 0.47,-0.26 0.78,-0.33 0.22,-0.42 -0.06,-0.92 -0.05,-1.45 0.00,-0.25 0.14,-0.48 0.16,-0.72 0.06,-0.64 -0.12,-1.08 -0.33,-1.39 -0.24,-0.08 -0.40,-0.03 -0.66,0 -0.02,-0.25 -0.18,-0.48 -0.22,-0.78 -0.08,-0.69 0.19,-1.51 -0.05,-2.06 -0.08,-0.19 -0.33,-0.36 -0.50,-0.55 -0.34,-0.03 -0.35,0.27 -0.72,0.22 0.18,-0.21 0.43,-0.31 0.50,-0.55 C 37.73,9.08 36.97,8.57 36.60,8.19 36.60,7.93 36.72,7.92 36.66,7.63 36.35,7.74 36.20,7.30 36.05,7.07 36.07,6.90 36.22,6.84 36.21,6.63 36.05,5.92 35.26,5.83 34.31,5.90 33.76,5.53 33.38,4.98 32.70,4.73 32.21,4.91 31.70,5.07 31.19,5.23 30.54,4.74 29.90,4.02 28.79,4.17 28.74,3.89 28.53,3.76 28.56,3.39 28.12,3.10 27.92,2.46 27.45,2.05 27.06,1.72 26.10,1.24 25.55,1.16 25.41,1.14 25.26,1.12 25.10,1.12 z M 24.88,1.38 c 0.46,0.00 0.86,0.32 1.22,0.55 0.94,0.60 1.62,1.40 2.06,2.56 -0.61,0.35 -1.42,0.51 -1.50,1.39 0.34,-0.07 0.24,-0.61 0.66,-0.61 -0.10,0.19 -0.28,0.30 -0.39,0.50 0.43,0.12 0.49,-0.57 0.89,-0.66 0.55,0.04 0.74,0.01 1.11,-0.16 0.12,0.00 0.02,-0.19 0.05,-0.27 0.39,-0.02 0.64,-0.11 0.94,0.11 0.08,0.05 0.13,0.20 0.22,0.27 0.05,0.04 0.16,0.00 0.22,0.05 0.48,0.40 0.85,1.04 1.17,1.39 0.17,-0.07 -0.10,-0.24 0.05,-0.33 0.08,0.14 0.19,0.24 0.27,0.39 0.81,0.09 1.04,0.77 1.39,1.33 -0.09,0.16 -0.16,0.35 -0.16,0.61 0.03,0.08 0.08,0.13 0.16,0.16 0.31,-0.08 0.47,-0.32 0.78,-0.27 -0.05,-0.30 -0.17,-0.45 0,-0.72 0.43,0.01 0.60,0.28 0.83,0.50 0.04,0.17 -0.08,0.17 -0.11,0.27 0.00,0.10 0.18,0.03 0.16,0.16 -0.07,0.59 -0.29,1.22 -0.83,1.50 0.10,0.30 0.38,-0.14 0.55,0.05 -0.12,0.37 -0.15,0.84 -0.66,0.83 0.03,-1.02 -0.62,-1.35 -1.06,-1.89 -0.14,5.57e-4 -0.31,-0.02 -0.39,0.05 0.09,0.83 1.34,1.05 0.83,2.12 -0.07,-0.73 -0.65,-1.31 -1.17,-1.78 -0.00,-0.37 -0.05,-0.49 0,-0.83 0.08,-0.19 0.33,-0.21 0.33,-0.50 -0.51,-0.10 -0.64,0.82 -0.50,1.28 0.20,0.66 1.50,1.13 1.00,2.00 -1.18,-0.58 -1.80,-3.10 -0.78,-4.13 -0.03,-0.20 -0.21,-0.27 -0.27,-0.44 -0.34,0.06 -0.53,0.28 -0.83,0.39 -0.22,0.32 -0.76,1.46 0,1.61 0.24,-0.24 -0.13,-0.80 0,-1.11 0.42,0.29 0.57,-0.20 0.78,-0.44 0.04,0.18 -0.22,0.52 -0.33,0.72 0.09,0.15 -0.04,0.28 -0.05,0.44 -0.03,0.63 0.25,1.34 0.33,1.95 -0.10,-0.00 -0.03,-0.18 -0.16,-0.16 -0.00,0.24 0.11,0.40 0.33,0.27 0.06,0.49 0.53,0.58 0.72,0.94 -1.07,0.91 -1.61,-1.76 -1.39,-2.45 -0.17,-0.02 -0.14,0.15 -0.27,0.16 -0.07,1.04 0.38,1.72 0.50,2.40 0.15,0.12 0.29,0.26 0.55,0.27 -0.27,0.02 -0.60,0.11 -0.78,0.05 -0.58,-0.19 -0.72,-1.32 -0.55,-1.89 -0.01,-0.23 -0.28,-0.32 -0.05,-0.50 -0.12,0.04 -0.30,0.03 -0.33,0.16 -0.02,0.17 0.04,0.24 0.22,0.22 -0.28,0.70 0.10,1.62 0.39,2.12 -0.66,0.03 -0.89,-1.88 -0.83,-2.73 0.03,-0.42 0.13,-0.96 0.27,-1.33 0.16,-0.42 0.59,-0.77 0.50,-1.17 -0.23,0.08 -0.37,0.48 -0.55,0.89 -0.28,0.62 -0.50,1.45 -0.39,2.62 0.12,1.22 0.51,2.27 1.73,1.73 0.11,0.21 -0.11,0.30 -0.27,0.39 -0.17,0.04 -0.07,-0.18 -0.22,-0.16 -0.23,0.13 -0.53,0.20 -0.94,0.16 -0.88,-0.78 -0.07,-2.69 -0.61,-3.40 -0.21,0.04 -0.01,0.25 0,0.39 0.03,0.36 0.06,0.97 0,1.33 -0.03,0.22 -0.19,0.22 -0.16,0.44 -0.67,-0.05 -0.88,-0.56 -1.11,-1.06 0.58,0.03 0.29,0.93 1.11,0.72 C 29.36,10.58 29.18,10.20 29.23,9.59 29.21,9.38 29.51,9.32 29.35,9.14 28.76,9.35 29.08,10.26 29.23,10.76 28.81,10.61 28.86,9.90 28.90,9.36 28.93,9.02 28.93,8.65 29.01,8.36 28.41,8.59 28.76,9.49 28.68,10.03 28.06,9.63 28.31,8.58 28.17,7.69 28.51,7.08 28.62,6.24 29.12,5.68 c 0.21,-0.08 0.38,-0.21 0.50,-0.39 -0.03,-0.11 -0.11,-0.18 -0.16,-0.27 -0.33,0.12 -0.81,0.38 -1.06,0.72 -0.18,0.26 -0.46,0.76 -0.22,1.00 0.19,-0.47 0.35,-0.98 0.78,-1.22 -0.42,0.70 -1.02,1.65 -1.00,2.79 0.01,1.08 0.41,2.17 0.89,2.90 -0.31,0.13 -0.67,-0.12 -0.66,-0.50 -0.54,-0.44 -0.65,-1.31 -0.78,-2.17 -0.31,0.68 0.25,1.53 0.39,2.12 0.14,0.26 0.47,0.34 0.44,0.78 l -0.50,0 c 0.01,-0.07 0.09,-0.08 0.11,-0.16 -0.78,-0.15 -1.34,-1.45 -1.45,-2.40 -0.11,-1.01 0.26,-1.99 0.50,-2.73 -0.21,0.03 -0.48,0.54 -0.55,0.78 -0.30,0.94 -0.05,2.26 0.22,3.07 -0.26,-0.25 -0.44,-0.87 -0.50,-1.39 -0.03,-0.34 0.06,-0.72 0.11,-1.06 -0.34,0.03 -0.26,0.79 -0.22,1.17 0.02,0.22 0.06,0.46 0.11,0.61 0.23,0.76 0.86,1.35 1.17,1.89 -0.63,-0.33 -1.18,-1.33 -1.45,-2.23 -0.29,-0.98 0.18,-2.75 0.72,-3.51 0.07,-0.10 0.28,-0.20 0.22,-0.39 -0.31,-0.01 -0.63,0.53 -0.78,0.89 -0.23,0.59 -0.37,1.47 -0.44,2.12 -0.07,0.67 0.29,1.49 0.55,2.00 0.22,0.43 0.54,0.79 0.72,1.11 0.55,0.22 1.03,0.57 1.73,0.50 0.26,-0.22 0.44,-0.41 0.94,-0.27 0.12,0.37 0.35,0.63 0.61,0.94 0.23,0.27 0.39,0.80 0.78,1.06 0.13,0.52 0.49,0.80 0.72,1.22 -0.30,0.12 -0.61,0.24 -0.72,0.55 0.10,0.27 0.01,0.43 -0.11,0.61 0.02,0.17 0.21,0.19 0.22,0.39 -0.12,0.04 0.01,0.34 -0.22,0.27 0.01,0.19 0.19,0.21 0.22,0.39 -0.05,0.34 -0.36,0.45 -0.61,0.61 -0.25,-0.06 -0.75,-0.27 -0.83,-0.61 -0.06,-0.27 -0.04,-0.76 0.39,-0.72 -0.00,0.32 -0.23,0.36 -0.16,0.66 0.09,0.38 0.68,0.50 0.89,0.11 -0.11,-0.11 0.01,-0.34 -0.05,-0.50 -0.20,-0.47 -1.25,-0.76 -1.17,0.16 -0.20,0.03 -0.21,-0.12 -0.39,-0.11 0.11,0.22 0.31,0.27 0.44,0.50 0.13,0.22 0.15,0.58 0.39,0.78 0.25,0.10 0.36,0.02 0.55,0.16 0.66,-0.71 1.65,-1.09 2.28,-1.84 -0.03,-0.31 -0.36,-0.34 -0.33,-0.72 -0.51,-0.58 -0.98,-1.21 -1.33,-1.95 -0.15,-0.25 -0.50,-0.31 -0.44,-0.78 0.39,0.01 0.65,-0.24 0.89,0.05 0.52,-0.09 0.63,-0.59 1.28,-0.55 0.16,-0.35 0.59,-0.24 0.89,-0.22 0.26,-0.06 0.31,-0.35 0.39,-0.61 0.14,5.59e-4 0.31,-0.02 0.39,0.05 0.03,0.20 -0.23,0.09 -0.27,0.22 0.22,0.36 0.91,-0.02 1.11,-0.22 0.70,-0.00 1.24,-0.16 1.67,-0.44 0.25,-0.05 0.33,0.07 0.50,0.11 0.18,-0.17 -0.20,-0.31 -0.05,-0.44 0.60,0.27 0.38,1.26 0.33,1.95 -0.49,0.09 -0.50,0.02 -1.00,0.11 -0.04,0.15 -0.14,0.26 -0.27,0.33 0.07,0.27 0.50,0.26 0.66,0.16 0.07,-0.24 -0.26,-0.06 -0.22,-0.27 0.35,0.02 0.53,-0.12 0.72,-0.11 0.13,0.05 0.19,0.34 0.11,0.44 -0.24,0.00 -0.13,-0.33 -0.39,-0.16 -0.04,0.23 0.18,0.18 0.27,0.27 0.01,0.20 -0.16,0.20 -0.16,0.39 -0.16,-0.08 -0.11,-0.40 -0.39,-0.22 0.01,0.15 0.09,0.23 0.27,0.22 -0.29,1.01 0.89,0.35 1.50,0.27 0.34,0.23 0.05,0.87 0,1.28 -0.07,0.60 0.09,1.29 -0.05,1.61 -0.19,0.07 -0.35,0.19 -0.61,0.22 -0.06,-0.18 0.18,-0.04 0.11,-0.22 -0.15,-0.08 -0.38,-0.09 -0.61,-0.11 -0.34,-0.38 -0.94,-0.32 -1.56,-0.55 -1.08,-0.40 -2.58,-0.87 -3.68,-1.39 0.06,-0.35 0.35,-0.09 0.55,-0.11 0.24,-0.01 0.50,-0.08 0.78,-0.11 0.72,-0.06 1.54,-0.02 2.00,-0.27 0.02,0.12 0.27,0.02 0.39,0.05 -0.14,0.25 0.26,0.18 0.39,0.33 0.06,-0.20 0.06,-0.46 0,-0.72 -0.31,-0.05 -0.28,0.23 -0.55,0.22 -0.01,-0.14 0.21,-0.04 0.16,-0.22 -0.02,-0.04 -0.05,-0.09 -0.05,-0.16 -0.31,-0.10 -0.19,0.21 -0.39,0.22 -0.20,0.05 -0.04,-0.25 -0.22,-0.22 -0.33,0.23 -0.82,-0.08 -1.11,0.33 -0.32,-0.05 -0.72,-0.11 -0.83,0.16 -0.10,0.00 -0.11,-0.06 -0.22,-0.05 -0.17,-0.02 -0.14,0.15 -0.27,0.16 l -0.72,0 c -0.25,-0.43 -0.50,-0.87 -0.72,-1.33 1.30,0.01 2.38,-0.01 3.51,0.22 0.03,-0.15 0.21,-0.15 0.22,-0.33 0.05,-0.20 -0.24,-0.05 -0.27,-0.16 0.06,-0.10 0.18,-0.31 0.05,-0.44 -0.23,0.09 -0.14,0.24 -0.27,0.50 -0.24,-0.01 -0.28,0.18 -0.50,0.05 -0.19,0.00 -0.08,-0.28 -0.27,-0.27 -0.59,0.46 -1.82,-0.04 -2.45,0.39 -0.22,0.01 -0.17,-0.23 -0.39,-0.22 -0.14,0.11 0.14,0.26 0.22,0.33 0.25,0.70 0.73,1.19 0.94,1.95 0.21,0.33 0.72,0.70 0.83,1.06 0.14,0.43 -0.63,0.86 -0.94,1.11 -0.40,0.32 -0.91,0.59 -1.22,1.00 0.45,0.55 0.10,1.15 -0.22,1.61 -0.34,0.48 -0.87,1.22 -1.33,1.45 -0.30,0.04 -0.43,-0.08 -0.72,-0.05 0.00,0.06 -0.01,0.09 -0.05,0.11 0.31,0.57 0.97,-0.03 1.56,0 0.43,-0.38 1.18,-0.59 1.28,-1.28 0.06,-0.46 -0.24,-0.90 -0.22,-1.50 0.46,0.06 0.56,0.51 0.55,0.89 0.24,0.03 0.11,-0.29 0.27,-0.33 0.71,0.54 -0.17,1.70 -0.05,2.34 0.47,0.04 0.39,-0.45 0.78,-0.50 0.13,-0.34 -0.00,-1.02 0.05,-1.28 0.48,0.32 0.48,2.68 -0.83,2.17 -0.00,0.51 0.70,0.40 0.89,0.11 0.09,0.12 0.10,0.34 0.39,0.27 0.38,1.93 -0.49,3.41 -1.50,4.29 0.04,-0.35 0.39,-0.55 0.61,-0.89 0.33,-0.51 0.55,-1.11 0.72,-1.89 -0.07,-0.07 -0.02,-0.27 -0.16,-0.27 -0.13,0.88 -0.32,1.72 -0.83,2.23 -0.16,0.05 -0.09,-0.12 -0.11,-0.22 -0.22,0.13 -0.32,0.38 -0.61,0.44 -0.00,-0.17 0.14,-0.18 0.11,-0.39 0.89,-0.09 1.03,-0.94 1.22,-1.73 -0.04,-0.05 -0.10,-0.08 -0.16,-0.11 -0.21,0.10 -0.07,0.38 -0.11,0.55 -0.08,0.39 -0.40,1.14 -0.89,1.17 0.38,-0.38 0.82,-0.70 0.78,-1.50 -0.22,-9.5e-4 -0.15,0.29 -0.16,0.50 -0.23,0.18 -0.29,0.81 -0.66,0.66 0.21,-0.24 0.62,-0.55 0.50,-0.94 -0.28,0.09 -0.15,0.58 -0.44,0.66 -0.21,-0.17 -0.38,-0.40 -0.44,-0.72 0.50,-0.23 0.99,-0.49 1.11,-1.11 -0.53,0.23 -0.70,0.91 -1.28,1.11 -0.14,0.05 -0.32,0.00 -0.50,0.05 0.71,-0.34 1.77,-0.88 1.50,-1.84 -0.20,0.06 -0.07,0.27 -0.11,0.39 -0.16,0.48 -0.60,0.83 -1.00,1.06 0.20,-0.37 0.52,-0.63 0.44,-1.28 0.00,-0.14 0.08,-0.21 0.22,-0.22 0.00,-0.52 0.35,-1.21 -0.16,-1.39 -0.19,0.04 -0.00,0.13 -0.05,0.33 -0.22,0.34 -0.30,0.84 -0.72,1.00 0.02,-0.33 0.21,-0.49 0.22,-0.83 -0.21,-0.12 -0.28,0.28 -0.44,0.39 -0.13,0.18 -0.29,0.33 -0.39,0.55 -0.61,0.23 -1.28,0.75 -2.00,0.39 0.31,-0.22 0.87,-0.20 1.17,-0.44 -0.38,-0.23 -1.00,-0.03 -1.50,0 -0.08,0.00 -0.19,-0.06 -0.27,-0.05 -0.65,0.08 -1.25,0.41 -1.56,0.83 0.36,0.01 0.58,-0.40 1.00,-0.55 0.49,-0.18 1.05,-0.04 1.67,-0.16 -0.31,0.31 -1.13,0.23 -1.45,0.39 0.12,0.17 0.31,-0.05 0.50,0 -0.17,0.21 -0.52,0.17 -0.83,0.27 -0.38,0.13 -0.62,0.45 -1.22,0.33 -0.43,-0.08 -0.57,-0.49 -0.94,-0.72 -0.05,0.22 0.23,0.57 0.55,0.61 0.05,0.31 0.30,0.44 0.44,0.66 0.32,-0.01 0.42,0.07 0.66,0.05 0.88,-0.07 1.50,-1.40 1.89,-0.22 0.18,0.00 0.29,0.20 0.44,0.27 0.14,0.07 0.42,0.02 0.50,0.22 -0.26,0.04 -0.60,0.02 -0.78,0.27 -0.13,0.00 -0.17,-0.08 -0.22,-0.16 -0.78,0.17 -2.11,0.04 -2.84,0.44 -0.10,0.05 -0.16,0.20 -0.27,0.27 -0.10,0.06 -0.24,0.04 -0.33,0.11 -0.29,0.22 -0.54,0.56 -0.66,0.89 0.05,0.11 0.21,0.12 0.39,0.11 0.19,-0.08 0.22,-0.33 0.33,-0.50 0.46,-0.23 0.95,-0.39 1.45,-0.61 0.07,-0.03 0.14,-0.14 0.22,-0.16 0.43,-0.13 0.96,-0.09 1.45,-0.16 0.43,-0.06 1.08,-0.16 1.61,-0.27 -0.11,0.23 -0.34,0.35 -0.66,0.39 -0.01,0.43 -0.16,0.73 -0.27,1.06 0.14,0.28 0.28,0.57 0.44,0.83 -0.18,0.22 -0.00,0.49 -0.05,0.89 0.31,0.40 1.13,-0.03 1.33,0.44 -0.08,0.45 -0.67,0.32 -0.89,0.05 -0.08,0.01 -0.01,0.16 -0.11,0.16 0.14,0.89 1.58,0.33 1.11,-0.44 -0.12,-0.06 -0.25,-0.11 -0.39,-0.16 0.40,-0.25 0.87,-0.00 1.17,0.16 0.03,0.22 -0.14,0.22 -0.11,0.44 0.59,-0.01 0.15,-0.82 -0.16,-0.78 0.22,-0.10 0.62,0.07 0.72,0.27 0.00,0.29 -0.37,0.63 -0.05,0.89 0.27,-0.34 0.48,-1.03 1.11,-0.83 -0.08,0.26 -0.27,0.42 -0.33,0.72 -0.19,-0.04 -0.15,-0.32 -0.33,-0.39 -0.08,0.26 0.28,0.52 0.22,0.94 -0.72,0.08 -1.21,1.01 -0.66,1.56 0.05,-0.04 0.08,-0.10 0.11,-0.16 0.10,0.06 -0.06,0.34 0,0.55 -1.03,0.45 -0.70,2.26 -1.78,2.67 l 0,0.33 c -0.56,0.49 -1.28,1.41 -2.23,1.73 -0.45,0.15 -1.36,0.32 -1.95,0.22 -0.83,-0.15 -1.32,-0.67 -2.06,-1.00 -0.62,-0.74 -1.39,-1.35 -1.84,-2.28 -0.26,-0.26 -0.35,-0.68 -0.61,-0.94 -0.13,-0.91 -0.60,-1.47 -0.72,-2.40 0.21,-0.24 0.36,-0.13 0.61,-0.16 0.06,-0.23 -0.23,-0.09 -0.27,-0.22 0.17,-0.25 0.25,-0.59 0.50,-0.78 0.20,0.05 0.34,0.47 0.33,0.55 -0.01,0.22 -0.44,0.04 -0.44,0.27 0.17,0.26 0.70,-0.02 0.61,-0.22 1.14,0.33 1.40,-1.12 1.00,-1.89 -0.12,0.04 -0.13,0.19 -0.22,0.27 -0.19,-0.06 -0.33,-0.11 -0.55,-0.11 -0.65,0.01 -1.11,0.48 -1.56,0.78 0.07,0.16 -0.03,0.67 -0.22,0.55 0.14,0.21 -0.02,0.24 0.05,0.61 0.20,-0.16 0.24,-0.49 0.27,-0.83 0.40,-0.56 0.92,-1.06 1.78,-0.89 -0.08,0.14 -0.36,0.30 -0.55,0.16 -0.76,0.25 -1.18,1.04 -1.39,1.67 -0.36,-0.01 -0.32,-0.44 -0.44,-0.66 -0.12,-0.22 -0.40,-0.39 -0.39,-0.66 -0.23,-0.04 -0.26,0.10 -0.44,0.11 -0.10,-0.11 -0.32,-0.12 -0.33,-0.33 0.23,-0.01 0.17,0.27 0.44,0.22 -0.03,-0.26 -0.27,-0.31 -0.33,-0.55 0.30,-0.59 0.87,-0.90 0.83,-1.84 0.07,-0.10 0.27,0.08 0.39,-0.05 0.18,-0.15 0.33,-0.41 0.33,-0.61 0.00,-0.49 -0.52,-0.71 -0.78,-1.00 0.25,-0.22 0.28,-0.68 0.78,-0.66 -0.16,0.44 -0.27,1.01 0.22,1.06 0.18,0.01 0.46,-0.13 0.50,-0.44 -0.05,-0.12 -0.35,-0.02 -0.50,-0.05 -0.07,0.22 0.20,0.13 0.05,0.27 -0.53,-0.06 6.71e-4,-0.60 0.05,-0.78 0.87,0.03 1.55,0.02 2.00,-0.44 0.82,-0.12 1.49,0.82 0.94,1.56 -0.14,0.05 -0.27,0.13 -0.50,0.11 0.08,-0.25 0.38,-0.28 0.33,-0.66 -0.35,0.05 -0.37,0.44 -0.66,0.55 0.05,-0.31 -0.32,-0.19 -0.22,-0.55 -0.24,0.09 -0.22,0.44 -0.39,0.61 0.00,0.33 0.44,0.49 0.66,0.27 0.15,0.16 0.23,0.39 0.44,0.50 0.54,-0.15 1.09,-0.42 1.28,-0.94 0.06,-0.16 0.13,-0.58 0.11,-0.78 -0.08,-0.77 -0.85,-0.83 -1.56,-1.06 -0.22,-0.03 -0.15,0.21 -0.39,0.16 0.07,-0.27 0.28,-0.46 0.55,-0.39 0.15,-0.23 0.29,-0.48 0.55,-0.61 0.12,-0.03 0.07,0.10 0.16,0.11 0.90,-0.21 1.51,-0.71 2.28,-1.06 0.37,-0.32 0.91,-0.49 0.94,-1.17 -0.26,-0.02 -0.21,0.27 -0.33,0.39 -0.43,0.21 -0.75,0.68 -1.33,0.83 -0.13,0.03 -0.31,-0.01 -0.44,0 -0.45,0.06 -0.79,0.29 -1.11,0.50 -0.14,-0.15 0.23,-0.25 0.33,-0.33 1.14,-1.01 1.94,-2.37 3.74,-2.73 -0.25,-0.15 -0.66,0.01 -0.89,0.11 -1.34,0.55 -2.20,1.99 -3.34,2.79 -0.38,0.10 -0.48,-0.29 -0.66,-0.05 -0.00,0.24 0.42,0.35 0.61,0.22 -0.21,0.32 -0.92,0.63 -1.11,1.17 -0.26,-0.12 0.11,-0.41 0.11,-0.66 -0.00,-0.34 -0.12,-0.58 -0.55,-0.61 -0.22,0.13 -0.03,0.32 -0.05,0.50 -0.07,0.63 -0.48,1.07 -0.94,1.39 l -0.78,0 c -0.10,-0.10 -0.27,-0.13 -0.33,-0.27 -0.17,-0.18 -0.21,0.34 -0.44,0.11 -0.09,-0.33 0.30,-0.17 0.33,-0.39 2.24e-4,-0.20 -0.19,-0.21 -0.27,-0.33 -0.44,0.09 -0.76,0.31 -1.22,0.39 7.25e-4,0.11 0.15,0.07 0.11,0.22 0.20,0.04 0.31,-0.13 0.44,0 0.11,-0.11 0.26,-0.40 0.44,-0.27 -0.12,0.65 -1.06,0.40 -1.50,0.22 0.07,0.53 1.04,0.44 1.39,0.22 -0.15,0.32 -0.92,0.37 -1.45,0.16 -0.23,-0.09 -0.33,-0.40 -0.55,-0.33 0.19,0.53 1.24,0.77 1.78,0.44 0.17,0.48 -0.55,0.35 -0.89,0.27 -0.81,-0.19 -1.30,-0.75 -1.67,-1.33 0.02,0.92 1.05,1.32 1.95,1.56 0.18,0.03 0.25,-0.03 0.39,-0.05 0.00,0.13 0.10,0.79 -0.22,0.78 0.08,0.70 -0.35,1.21 -1.00,1.17 -0.02,0.18 0.24,0.09 0.33,0.16 -0.24,0.71 -1.18,0.20 -1.50,-0.11 0.05,0.76 1.64,0.95 1.67,0.05 0.26,0.03 0.24,-0.19 0.44,-0.22 -0.06,0.56 -0.34,0.92 -0.61,1.28 -0.40,0.08 -0.71,0.25 -1.00,0.44 0.59,0.33 1.32,-0.11 1.50,-0.55 0.13,0.13 -0.12,0.35 -0.16,0.50 -0.34,-0.01 -0.55,0.34 -0.89,0.39 -0.67,0.10 -1.19,-0.29 -1.50,-0.72 -0.19,0.06 3.35e-4,0.50 0.16,0.55 -0.05,0.07 -0.15,0.10 -0.16,0.22 -0.08,1.28 0.73,1.83 2.00,1.61 0.17,-0.02 0.32,-0.10 0.50,-0.22 -0.06,0.39 -0.63,0.67 -1.06,0.66 -0.75,-0.00 -1.17,-0.74 -1.61,-1.00 0.35,0.61 1.27,1.41 2.23,0.89 0.06,0.27 -0.51,0.27 -0.72,0.27 -0.67,0.01 -1.41,-0.33 -1.61,-0.72 0.05,-0.47 -0.03,-0.51 -0.05,-0.94 -0.21,0.06 -0.14,0.70 -0.11,0.83 0.19,0.73 1.33,1.04 2.23,0.83 -0.18,0.25 -0.58,0.32 -0.89,0.33 -1.03,0.02 -1.77,-0.82 -1.95,-1.78 0.01,-0.20 0.24,-0.20 0.16,-0.50 0.47,0.18 0.74,-0.23 0.78,-0.66 -0.02,-0.08 -0.08,-0.14 -0.11,-0.22 -0.02,0.26 -0.04,0.84 -0.55,0.78 0.24,-0.27 0.27,-0.77 0.61,-0.94 -0.03,-0.12 -0.11,-0.33 0,-0.44 0.32,0.32 0.87,0.90 1.50,0.55 -0.43,0.01 -1.04,-0.10 -1.22,-0.50 0.26,0.16 0.58,0.26 0.83,0.44 0.41,-0.08 0.84,-0.15 1.06,-0.44 -0.46,0.14 -1.19,-0.09 -1.61,-0.44 -0.11,-0.05 -0.04,-0.28 -0.22,-0.27 -0.09,0.61 0.74,0.78 1.28,0.94 -1.16,0.12 -1.71,-0.84 -2.06,-1.73 -0.09,0.57 0.41,1.03 0.66,1.45 -0.43,-0.42 -1.02,-0.96 -1.11,-1.73 -0.07,-0.56 0.17,-1.20 -0.05,-1.78 0.18,0.15 0.15,0.44 0.27,0.72 0.17,0.40 0.58,0.88 0.89,1.22 0.09,0.10 0.50,0.32 0.78,0.22 -0.07,-0.19 -0.35,-0.19 -0.55,-0.27 -0.67,-0.63 -1.32,-1.41 -1.22,-2.51 0.01,-0.19 0.08,-0.60 0.16,-0.83 0.04,-0.13 0.21,-0.21 0.27,-0.33 0.20,-0.41 0.14,-0.87 0.27,-1.28 0.15,-0.50 0.57,-0.96 0.94,-1.06 0.04,-0.11 0.16,-0.16 0.16,-0.33 0.43,-0.12 0.68,-0.43 1.17,-0.50 -0.53,0.75 -1.45,1.11 -1.61,2.23 -0.05,0.12 -0.21,0.15 -0.27,0.27 0.25,0.06 0.23,0.71 -0.05,0.72 -0.11,-0.94 0.28,-1.91 0.89,-2.45 0.13,-0.11 0.36,-0.10 0.39,-0.33 -0.10,-0.04 -0.32,0.11 -0.44,0.22 -0.48,0.40 -1.17,1.39 -1.00,2.45 0.03,0.19 0.06,0.50 0.33,0.50 0.18,-0.26 0.22,-0.66 0.22,-1.11 0.89,-0.36 1.24,-1.29 1.67,-2.12 -0.00,-0.26 -0.01,-0.53 0.27,-0.50 -0.02,0.41 -0.33,0.55 -0.33,1.00 0.28,-0.16 0.24,-0.57 0.39,-0.83 0.12,-0.22 0.35,-0.33 0.44,-0.55 0.09,0.37 -0.62,0.59 -0.39,1.11 -0.35,0.67 -1.37,1.46 -1.50,2.45 -0.06,0.49 0.05,1.52 0.66,1.22 0.00,-0.31 -0.19,-0.12 -0.33,-0.22 -0.43,-0.98 0.21,-1.95 0.66,-2.56 -0.09,0.50 -0.76,1.16 -0.50,2.12 0.20,-0.21 0.06,-0.41 0.11,-0.66 0.22,-1.20 1.12,-2.06 1.89,-2.79 -0.09,-0.25 -0.14,0.08 -0.33,0.05 0.40,-0.61 1.04,-1.00 1.89,-1.17 -1.16,0.65 -1.93,1.71 -2.51,2.95 -0.15,-0.04 -0.14,0.07 -0.27,0.05 -0.54,0.49 -0.75,1.73 -0.16,2.34 0.15,-0.40 -0.28,-1.00 -0.11,-1.56 0.07,-0.23 0.37,-0.32 0.39,-0.61 0.13,0.02 0.12,-0.10 0.27,-0.05 0.78,-1.18 1.22,-2.71 2.90,-3.01 -0.84,0.47 -1.62,1.02 -2.00,1.95 0.35,0.11 0.38,-0.34 0.50,-0.50 0.36,-0.50 0.93,-0.96 1.56,-1.28 0.24,-0.12 0.65,-0.16 1.11,-0.22 -0.09,-0.12 -0.42,-0.02 -0.61,-0.05 0.37,-0.40 1.23,-0.19 1.61,0.11 -1.18,-0.10 -2.45,0.41 -3.07,1.22 0.30,0.13 0.40,-0.24 0.61,-0.39 0.66,-0.45 1.57,-0.72 2.56,-0.66 0.02,0.23 -0.26,0.10 -0.33,0.11 -0.29,0.04 -0.55,0.11 -0.83,0.33 -0.35,0.27 -0.87,0.77 -0.78,1.22 0.33,0.04 0.36,-0.27 0.50,-0.44 0.04,-0.05 0.18,-0.06 0.22,-0.11 0.05,-0.07 -5.6e-5,-0.16 0.05,-0.22 0.44,-0.46 1.04,-0.64 1.95,-0.66 -0.68,0.29 -1.44,0.53 -1.95,1.00 0.02,0.04 0.05,0.09 0.05,0.16 0.67,-0.35 1.29,-1.04 2.34,-0.83 0.12,-0.09 0.20,-0.24 0.44,-0.22 0.17,-0.04 0.17,0.08 0.22,0.16 0.08,-0.11 0.20,-0.20 0.27,-0.33 0.19,0.14 -0.30,0.24 -0.11,0.39 0.31,-0.05 0.45,-0.39 0.72,-0.55 0.19,-0.11 0.43,-0.10 0.61,-0.22 0.06,-0.04 0.26,-0.29 0.33,-0.39 -0.71,-0.06 -1.33,0.44 -1.78,0.83 -0.69,0.00 -1.13,-0.15 -1.84,-0.11 -0.11,-0.74 -1.18,-0.96 -1.89,-0.61 -0.50,-0.29 -1.01,0.05 -1.56,-0.16 0.06,-0.42 0.35,-0.83 0.66,-1.17 -0.28,-0.25 -0.64,-0.43 -0.83,-0.78 0.05,-0.57 0.25,-1.00 0.44,-1.45 -0.23,-0.03 -0.22,0.18 -0.44,0.16 0.06,-0.06 0.04,-0.11 -0.05,-0.11 -0.26,0.17 0.05,0.27 0.11,0.44 -0.07,0.09 -0.33,0.00 -0.33,0.16 -0.01,0.14 0.02,0.24 0.16,0.22 -0.00,0.14 -0.21,0.07 -0.22,0.22 -0.07,0.19 0.30,0.20 0.16,0.27 -0.14,0.14 -0.22,-0.01 -0.27,-0.11 -0.08,0.07 -0.20,0.11 -0.34,0.13 0.08,-0.08 0.14,-0.37 -0.10,-0.24 -0.00,0.14 0.01,0.22 0.03,0.24 -0.27,0.02 -0.60,-0.03 -0.81,-0.13 -0.00,-0.97 0.58,-1.34 0.50,-2.40 0.40,-0.11 0.65,-0.38 0.78,-0.78 -0.04,-0.08 -0.08,-0.17 -0.22,-0.16 -0.02,0.33 -0.21,0.77 -0.78,0.72 -0.05,-0.49 0.79,-0.93 1.17,-0.83 0.05,-0.20 -0.20,-0.08 -0.16,-0.27 0.37,-0.52 1.28,-0.49 1.67,-1.00 -0.05,-0.07 -0.05,-0.20 -0.16,-0.22 -0.21,0.02 -0.16,0.32 -0.33,0.39 C 20.82,9.65 20.48,9.39 20.25,9.14 20.03,8.91 19.80,8.47 19.69,8.13 19.46,7.43 19.47,6.59 19.19,5.90 c -0.48,1.41 0.32,2.28 0.78,3.12 0.16,0.30 0.56,0.64 0.83,0.83 -0.00,0.14 -0.08,0.21 -0.22,0.22 -0.20,-0.00 -0.14,-0.08 -0.11,-0.22 -0.19,-0.03 -0.13,0.19 -0.33,0.16 C 20.12,9.81 19.94,9.74 19.74,9.70 19.61,9.30 19.29,8.95 19.13,8.58 c -0.06,-0.14 0.06,-0.35 -0.16,-0.39 0.00,0.36 0.20,0.63 0.33,0.89 0.14,0.27 0.35,0.52 0.33,0.78 C 18.98,9.56 18.90,8.70 18.57,8.08 18.27,8.24 18.70,8.41 18.63,8.69 18.37,8.83 18.17,8.40 18.07,8.13 17.87,7.60 17.70,6.56 17.90,5.79 c 0.12,-0.47 0.50,-0.72 0.50,-1.11 0.44,-0.50 0.92,-0.97 1.61,-1.22 -0.47,0.53 -1.19,1.34 -1.33,2.28 -0.06,0.41 -0.09,1.01 0.16,1.39 -0.09,-1.23 0.28,-2.74 1.17,-3.34 -0.27,0.39 -0.31,1.02 -0.55,1.45 0.01,0.06 0.11,0.03 0.11,0.11 -0.01,0.08 -0.05,0.18 -0.05,0.27 0.02,1.00 0.60,2.38 1.45,2.90 0.28,0.17 1.18,0.45 1.39,-0.11 0.10,-0.10 0.14,-0.00 0.27,0 -0.02,-0.15 -0.20,-0.28 -0.05,-0.44 0.32,-0.01 0.49,0.14 0.61,0.33 -0.11,0.28 -0.38,0.61 -0.78,0.44 0.03,0.37 0.38,0.14 0.61,0.11 -0.07,0.26 -0.39,0.12 -0.55,0.39 0.11,0.24 0.29,-0.20 0.66,-0.05 0.05,0.27 -0.35,0.09 -0.44,0.22 -0.08,0.21 0.24,0.01 0.16,0.22 -1.17,-0.21 -1.64,0.67 -2.23,1.22 0.78,0.04 0.99,-1.43 1.95,-0.83 0.25,0.16 0.40,0.18 0.44,0.50 l 0.39,0 c 0.08,0.37 0.30,0.62 0.55,0.83 -0.05,-0.63 -0.79,-1.06 -1.00,-1.73 -0.05,-0.16 0.12,-0.09 0.22,-0.11 0.09,-0.24 0.35,-0.31 0.50,-0.50 -0.04,-0.12 -0.59,0.17 -0.55,-0.16 0.47,7.24e-4 0.80,0.06 1.06,0.39 -0.00,0.23 -0.36,0.11 -0.44,0.27 l 0,0.39 c 0.41,0.58 0.88,1.12 1.17,1.84 0.37,0.38 0.75,0.77 1.00,1.28 0.32,0.27 0.56,0.71 0.83,1.11 0.14,0.21 0.30,0.43 0.39,0.66 l -0.44,0 c -0.22,-0.53 -0.65,-0.87 -1.06,-1.22 -0.09,-0.35 -0.24,-0.64 -0.55,-0.78 0.02,-0.39 -0.18,-0.55 -0.44,-0.66 -0.07,-0.13 -0.17,-0.29 -0.27,-0.44 -0.07,-0.11 -0.07,-0.40 -0.33,-0.33 0.12,0.24 0.17,0.57 0.39,0.72 0.05,0.20 -0.27,0.02 -0.16,0.27 0.09,0.29 0.28,-0.20 0.44,0 0.01,0.12 -0.16,0.06 -0.16,0.16 0.08,0.23 0.21,0.12 0.39,0.05 -0.09,0.13 -0.20,0.24 -0.27,0.39 0.17,-0.01 0.29,-0.01 0.55,0.11 -0.19,0.10 -0.22,0.37 -0.44,0.44 -0.14,-0.10 0.21,-0.25 -0.05,-0.33 -0.21,-0.08 -0.01,0.24 -0.16,0.22 -0.42,-0.16 -1.08,-0.29 -0.94,-0.83 -0.20,-0.10 -0.20,0.02 -0.39,0.05 -0.37,-0.16 -0.59,-0.48 -1.06,-0.55 -0.04,-0.04 -0.06,-0.12 -0.05,-0.22 -0.13,0.13 -0.38,0.17 -0.50,0.33 0.21,0.66 0.99,0.64 1.56,0.83 0.09,0.03 0.20,0.17 0.33,0.22 0.12,0.04 0.29,0.00 0.39,0.05 0.04,0.02 0.07,0.15 0.11,0.16 0.56,0.22 1.15,0.32 1.61,0.61 0.02,-0.16 -0.16,-0.52 -0.55,-0.44 -0.00,-0.24 0.06,-0.41 0.27,-0.44 0.05,0.15 0.06,0.20 0.16,0.33 0.03,0.04 0.19,0.11 0.22,0.16 0.08,0.17 -0.01,0.46 0.05,0.61 0.11,0.24 0.28,0.23 0.44,0.44 -1.02,-0.00 -2.38,-0.09 -3.12,0.33 0.36,0.22 0.85,-0.11 1.33,-0.11 0.62,0.00 1.55,-0.06 2.28,0.05 0.12,-0.01 0.17,0.04 0.16,0.16 0.17,-0.10 0.38,-0.17 0.61,-0.22 0.23,0.06 0.27,0.31 0.55,0.33 0.21,0.24 0.32,0.60 0.72,0.66 0.03,-0.27 -0.21,-0.26 -0.33,-0.39 -0.42,-0.49 -0.90,-1.06 -1.39,-1.67 -0.26,-0.32 -0.57,-0.63 -0.55,-0.94 0.03,-0.50 0.62,-0.57 0.61,-1.22 -0.50,0.09 -0.46,0.72 -0.83,0.94 -6.14e-4,0.14 0.02,0.31 -0.05,0.39 -0.12,-0.01 -0.12,-0.14 -0.05,-0.22 -0.42,-0.31 -0.59,-0.89 -1.06,-1.17 -0.04,-0.34 -0.31,-0.46 -0.39,-0.78 0.48,-0.02 0.83,-0.33 0.66,-0.83 -0.00,-0.02 -0.10,-0.16 -0.11,-0.22 -0.00,-0.19 0.13,-0.31 0.11,-0.44 C 25.34,9.21 25.18,9.10 25.16,8.97 25.08,8.67 25.46,8.82 25.38,8.53 25.27,8.34 25.15,8.62 25.05,8.64 24.80,8.51 24.42,8.52 24.10,8.47 23.88,8.23 23.68,7.97 23.65,7.63 23.60,7.04 23.95,6.52 24.32,6.13 24.07,6.01 23.89,6.38 23.76,6.57 23.73,5.74 24.27,4.99 25.16,4.90 25.09,4.66 24.82,4.74 24.66,4.79 c -0.97,0.25 -1.26,2.01 -1.11,3.29 -0.16,-0.08 -0.15,-0.30 -0.16,-0.44 -0.06,-0.54 -0.03,-1.34 0.11,-1.84 0.03,-0.12 0.12,-0.32 0.27,-0.39 0.03,-0.80 0.80,-0.86 1.00,-1.50 -0.58,0.04 -0.83,0.90 -1.28,1.28 -0.02,-0.43 0.04,-0.77 0.39,-0.83 0.02,-0.17 -0.11,-0.17 -0.27,-0.16 -0.36,0.24 -0.12,1.09 -0.27,1.56 -0.37,-0.01 -0.34,-0.47 -0.33,-0.66 0.02,-0.58 0.57,-1.27 0.89,-1.50 0.08,0.00 0.21,-0.02 0.22,0.05 0.16,-0.08 0.11,-0.36 0.39,-0.33 -0.10,-0.34 0.19,-0.66 0.27,-1.00 0.57,-0.20 1.37,0.08 1.56,0.61 -0.37,-0.16 -0.76,-0.31 -1.22,-0.39 0.01,0.34 0.83,0.34 1.17,0.55 0.43,0.36 0.44,1.44 1.17,1.33 C 27.23,4.33 27.31,3.97 27.17,3.84 27.49,3.70 27.34,4.47 27.78,4.39 27.72,4.03 27.37,3.95 27.34,3.56 27.12,3.48 27.33,3.81 27.11,3.72 26.72,2.96 26.14,1.96 25.10,1.99 c -0.50,0.01 -0.64,0.42 -1.11,0.39 0.05,-0.16 0.26,-0.17 0.22,-0.44 0.28,0.04 0.69,-0.17 1.00,-0.27 0.01,-0.21 -0.33,-0.07 -0.33,-0.27 z m -0.39,0.05 c 0.16,0.06 -0.07,0.18 -0.16,0.16 -0.01,-0.12 0.16,-0.06 0.16,-0.16 z m -4.09,0.56 c 0.88,-0.01 1.80,0.10 2.41,0.33 0.20,0.07 0.51,0.09 0.55,0.33 C 23.34,2.94 23.13,2.58 23.04,2.55 21.95,2.18 20.99,2.67 20.30,3.17 20.06,3.18 19.97,3.05 19.80,3.00 19.12,3.29 18.67,3.81 18.18,4.28 c -0.00,-0.10 0.06,-0.11 0.05,-0.22 -0.39,0.12 -0.48,0.66 -0.72,1.06 -0.20,0.33 -0.51,0.69 -0.66,1.06 -0.09,0.21 -0.08,0.52 -0.16,0.78 -0.08,0.25 -0.24,0.76 -0.27,1.22 -0.07,1.00 0.21,1.91 0.33,2.79 0.31,0.33 0.50,0.79 0.94,1.00 0.21,0.00 0.49,-0.04 0.55,0.11 -0.06,0.36 -0.54,0.18 -0.72,0.11 -0.49,-0.20 -1.20,-1.08 -1.28,-1.61 -0.04,-0.29 0.09,-0.47 0,-0.72 -0.29,0.19 -0.16,0.73 -0.11,0.94 0.21,0.77 1.07,1.45 1.78,1.67 -0.03,0.13 -0.08,0.25 -0.05,0.44 -0.20,0.11 -0.31,-0.00 -0.44,-0.11 -0.04,0.66 0.89,0.16 0.78,-0.39 0.26,0.51 -0.06,1.16 -0.72,1.06 -0.69,-0.11 -1.29,-1.26 -1.28,-1.78 -0.20,-0.13 -0.36,-1.14 -0.33,-1.61 0.02,-0.47 0.34,-0.87 0.22,-1.22 -0.34,0.19 -0.30,0.54 -0.33,0.94 -0.01,0.17 -0.11,0.30 -0.11,0.44 0.01,0.56 0.23,1.37 0.50,1.95 0.18,0.41 0.40,0.88 0.72,1.17 0.26,0.23 0.61,0.23 0.83,0.55 -1.42,0.10 -1.91,-1.20 -2.23,-2.40 0.08,-0.12 0.08,-0.54 0,-0.66 -0.59,1.20 1.05,3.76 2.23,3.18 -0.03,0.27 -0.27,0.41 -0.44,0.44 -0.79,0.14 -1.87,-1.02 -2.12,-2.12 -0.02,-0.10 0.01,-0.29 0,-0.44 -0.03,-0.26 -0.16,-0.52 0,-0.83 -0.23,-0.19 -0.12,0.33 -0.33,0.33 -0.12,-1.70 0.76,-2.39 1.11,-3.62 -0.25,-0.01 -0.37,0.40 -0.50,0.66 -0.14,0.29 -0.28,0.63 -0.39,0.89 -0.05,-0.50 0.28,-1.17 0.50,-1.67 0.21,-0.49 0.32,-0.81 0.55,-1.28 0.31,-0.64 0.74,-1.32 1.06,-2.00 -0.49,0.22 -0.76,1.00 -1.06,1.56 -0.20,0.38 -0.50,0.78 -0.66,1.17 -0.18,0.44 -0.24,0.95 -0.44,1.39 -0.31,0.69 -0.81,1.25 -0.94,2.17 0.04,-0.87 0.38,-1.68 0.72,-2.45 0.10,-0.24 0.17,-0.55 0.27,-0.78 0.01,-0.04 0.15,-0.07 0.16,-0.11 0.07,-0.19 0.13,-0.33 0.22,-0.50 0.11,-0.21 0.27,-0.40 0.27,-0.66 -0.31,0.05 -0.41,0.44 -0.55,0.72 -0.55,1.05 -0.96,2.20 -1.28,3.62 -0.29,1.29 -0.55,2.88 -0.27,4.41 0.16,-0.28 -0.00,-0.70 0,-1.06 0.22,0.07 0.09,0.27 0.11,0.39 0.21,1.29 1.02,2.03 2.00,2.62 0.10,0.10 -0.03,0.10 0,0.27 0.19,-0.13 0.68,-0.05 0.78,0.22 -0.42,0.28 -0.83,-0.19 -1.06,-0.44 0.00,0.23 -0.33,0.11 -0.44,0.22 -0.02,0.26 0.31,0.15 0.44,0.11 0.40,0.30 1.13,0.60 1.33,-0.05 1.04,-0.08 1.32,-1.37 0.83,-2.23 0.56,-0.10 0.28,-1.05 0.94,-1.06 -0.26,1.25 1.59,0.37 2.00,0.94 -0.02,0.14 -0.24,0.31 0.05,0.33 -0.23,0.25 -0.42,0.12 -0.61,0.11 -0.02,0.13 0.10,0.12 0.05,0.27 0.09,0.16 0.35,0.16 0.61,0.16 -0.07,0.26 -0.47,0.19 -0.55,0.44 -0.12,0.01 -0.21,-0.00 -0.27,-0.05 -0.12,0.07 -0.21,0.19 -0.33,0.27 -0.82,-0.04 -1.06,0.82 -1.56,1.17 -0.31,0.21 -0.77,0.33 -1.11,0.55 -0.18,0.12 -0.30,0.33 -0.55,0.39 -0.17,-0.23 -0.08,-0.73 -0.44,-0.78 -0.12,0.21 0.20,0.70 0,1.00 -0.14,-0.04 0.10,-0.24 -0.05,-0.33 -0.14,0.30 -0.28,0.61 -0.66,0.66 -0.20,-0.02 -0.03,-0.40 -0.22,-0.44 -0.12,0.00 -0.02,0.23 -0.05,0.33 -0.31,0.03 -0.30,-0.25 -0.55,-0.27 -0.00,0.37 0.40,0.33 0.55,0.55 -0.04,0.39 -0.22,0.67 -0.72,0.61 -0.16,-0.20 -0.04,-0.70 -0.33,-0.78 -0.17,0.14 0.13,0.26 0.05,0.50 -0.53,-0.20 -0.53,-0.95 -0.83,-1.39 0.17,-0.36 -0.14,-0.70 -0.22,-1.11 -0.15,-0.82 -0.05,-1.64 0.16,-2.34 -0.27,0.14 -0.30,0.54 -0.33,0.94 -0.22,-0.32 -0.06,-1.26 0.33,-1.45 0.20,0.72 0.12,1.51 0.22,2.23 0.12,0.90 0.68,1.54 1.11,2.06 0.19,-0.05 0.29,0.06 0.44,0.05 0.44,-0.03 0.91,-0.82 0.27,-0.94 -0.01,0.24 0.20,0.49 -0.11,0.72 l -0.44,0 c -0.85,-0.67 -1.24,-1.94 -1.11,-3.29 -0.57,-0.65 -0.10,-1.72 0.11,-2.40 -0.31,0.07 -0.12,0.65 -0.44,0.72 0.05,-2.25 1.05,-3.98 1.67,-5.86 -0.48,0.42 -0.54,1.22 -0.83,1.84 -0.03,0.08 -0.16,0.17 -0.22,0.27 -0.09,0.17 -0.07,0.34 -0.27,0.39 -0.69,1.61 -1.62,3.10 -1.45,5.24 0.03,0.38 0.08,0.70 -0.16,1.06 0.02,0.22 -0.14,-0.04 -0.22,0.11 0.00,0.28 -0.09,0.46 -0.05,0.78 -0.20,-0.08 -0.11,-0.40 -0.11,-0.55 0.01,-0.69 0.23,-1.59 0.27,-2.28 -0.30,0.10 -0.15,0.66 -0.33,0.89 -0.02,-0.80 0.22,-1.82 0.50,-2.51 -0.11,-0.12 -0.19,-0.00 -0.22,0.11 -0.14,-0.20 0.16,-0.42 0.11,-0.72 0.11,-0.06 0.31,-0.06 0.39,-0.16 0.11,-0.20 0.08,-0.41 0.16,-0.61 0.16,-0.37 0.59,-0.62 0.50,-1.06 -0.34,-0.01 -0.49,0.61 -0.72,0.89 0.02,-0.57 0.52,-0.96 0.83,-1.45 0.09,-0.14 0.12,-0.39 0.22,-0.55 0.04,-0.07 0.18,-0.10 0.22,-0.16 0.15,-0.23 0.08,-0.56 0.16,-1.00 0.06,-0.31 0.32,-0.60 0.27,-1.00 0.87,-1.13 1.32,-2.69 2.73,-3.29 -0.66,0.63 -1.21,1.38 -1.78,2.12 -0.53,1.07 -1.11,2.38 -1.22,3.68 0.26,0.00 0.13,-0.38 0.22,-0.55 0.42,-1.13 0.80,-2.32 1.61,-3.07 C 15.74,4.69 16.87,4.03 17.85,3.22 17.58,2.88 17.42,3.47 17.12,3.45 17.50,2.97 18.04,2.36 18.91,2.16 19.35,2.06 19.87,2.01 20.40,2.00 z m -0.75,0.54 c -1.74,0.32 -2.58,2.09 -3.22,3.63 -0.29,1.38 0.71,-1.31 1.10,-1.73 0.50,-0.91 1.81,-1.79 2.51,-1.71 l -0.09,-0.10 -0.29,-0.07 z m 2.74,0.06 c 0.25,0.00 0.51,0.05 0.76,0.16 -0.24,0.22 -0.59,0.19 -0.89,0.33 -0.94,0.45 -1.71,1.47 -1.73,2.84 0.47,-0.18 0.12,-1.46 0.78,-1.28 0.01,-0.66 0.52,-1.09 1.17,-1.28 -0.41,0.40 -1.23,1.35 -0.66,2.00 0.70,-0.68 1.04,-1.74 2.12,-2.06 -0.68,0.36 -1.67,2.03 -0.61,2.62 -0.16,0.59 0.08,1.58 -0.11,2.00 -0.46,-0.11 -0.69,-1.01 -0.72,-1.56 -0.00,-0.15 -0.02,-0.38 0.11,-0.44 -0.26,-0.29 0.15,-0.87 0.11,-1.11 -0.25,0.17 -0.40,0.45 -0.72,0.55 -0.31,0.73 -0.06,1.63 0.16,2.40 -1.04,-8.93e-4 -1.25,-0.82 -1.39,-1.73 -0.34,0.06 -0.17,0.47 -0.11,0.66 0.12,0.39 0.51,0.87 0.66,1.11 0.39,0.02 0.65,0.31 1.06,0.16 -0.06,0.36 -0.27,0.51 -0.55,0.55 -1.21,0.17 -2.08,-1.53 -2.06,-3.01 0.00,-0.89 0.35,-1.60 0.66,-2.12 0.47,-0.42 1.20,-0.84 1.96,-0.83 z m 1.26,0.55 c -0.43,0.46 -1.02,0.74 -1.39,1.28 -0.16,0.24 -0.14,0.62 -0.50,0.72 0.12,-0.97 0.66,-1.96 1.89,-2.00 z m -4.01,0.22 c -0.11,0.08 -0.22,0.18 -0.39,0.22 0.07,-0.13 0.18,-0.22 0.39,-0.22 z m -2.90,0.44 c 0.06,0.02 -0.81,0.59 -0.33,0.16 0.05,-0.04 0.21,-0.10 0.33,-0.16 z m 2.06,0.05 c 0.08,0.19 -0.30,0.40 -0.44,0.55 -0.39,0.79 -0.81,1.37 -0.66,2.73 0.02,0.20 0.15,0.43 0.16,0.66 0.00,0.16 -0.08,0.33 -0.05,0.50 0.08,0.57 0.50,1.06 0.83,1.45 0.18,0.21 0.49,0.40 0.44,0.66 -0.88,-0.21 -1.03,-1.16 -1.50,-1.78 -0.02,-0.26 0.00,-0.60 -0.16,-0.72 0.00,1.22 0.75,2.18 1.61,2.73 0.24,-0.18 0.33,-0.23 0.78,-0.16 -0.09,0.36 -0.39,0.52 -0.89,0.44 -0.92,-0.13 -1.87,-1.52 -1.67,-2.28 -0.69,0.38 0.50,1.24 0.05,1.56 0.09,0.10 0.17,-0.01 0.22,-0.11 0.32,0.15 0.12,0.51 0.39,0.66 0.00,0.20 -0.08,0.31 -0.22,0.39 -0.44,-0.01 -0.67,-0.57 -0.78,-1.00 -0.10,-0.43 -0.05,-0.95 0,-1.39 -0.23,0.06 -0.12,0.47 -0.22,0.66 -0.31,-0.55 0.07,-1.32 0,-2.00 0.07,-0.05 0.10,-0.15 0.22,-0.16 0.05,-1.49 1.10,-2.46 1.89,-3.40 z M 14.94,4.34 c 0.11,0.03 0.11,0.08 0.05,0.16 l -0.11,0 c -0.01,-0.09 0.05,-0.09 0.05,-0.16 z m 11.31,0.10 c -1.19,0.42 -1.51,2.87 -1.70,3.40 0.53,-1.27 0.00,1.38 0.59,0.10 -0.55,-0.57 0.29,-2.93 1.20,-3.50 l -0.09,-0.00 z m -10.30,0.00 c 0.18,0.05 -0.06,0.11 -0.05,0.16 -0.16,-0.03 0.08,-0.08 0.05,-0.16 z m -1.33,0.27 c 0.06,0.00 0.04,0.10 0.05,0.16 C 14.32,5.17 14.22,5.68 13.88,5.96 13.71,5.85 14.05,5.54 14.16,5.34 14.31,5.08 14.36,4.89 14.61,4.73 z m 1.11,0.05 c -0.08,0.08 -0.04,0.29 -0.22,0.27 0.03,-0.13 0.07,-0.25 0.22,-0.27 z M 26.22,4.90 C 25.48,5.37 24.97,7.73 25.38,7.70 25.29,6.68 25.95,5.60 26.22,4.90 z M 15.33,5.18 c 0.09,0.04 0.00,0.10 0,0.16 -0.09,-0.04 -0.00,-0.10 0,-0.16 z m 7.00,0.10 c 0.06,-5.64e-4 0.07,0.05 0.08,0.11 -0.06,0.41 -0.10,0.84 -0.05,1.22 0.06,0.45 0.44,0.89 0.05,1.17 -0.36,-0.24 -0.63,-2.11 -0.11,-2.51 0.01,-0.00 0.02,-0.00 0.03,-0.00 z m 5.68,0.05 c -0.52,0.52 0.56,0.36 0,0 z m 4.38,0.08 c 0.05,7.54e-4 0.10,0.01 0.16,0.03 -0.01,2.19e-4 0.22,0.16 0.23,0.16 0.07,0.07 0.24,0.36 0.33,0.55 0.09,0.18 0.17,0.43 0.16,0.66 -0.37,-0.27 -0.73,-0.56 -1.28,-0.66 -0.09,-0.37 -0.39,-0.53 -0.72,-0.66 0.10,-0.10 0.20,0.04 0.33,0.05 0.27,0.01 0.53,-0.14 0.77,-0.14 z m -17.30,0.08 c 0.17,0.05 -0.06,0.14 -0.05,0.22 -0.13,-0.01 0.06,-0.14 0.05,-0.22 z m 3.20,0.00 c -0.47,0.21 0.51,0.33 0,0 z m 14.76,0.04 c 0.21,0.01 0.49,0.27 0.72,0.50 0.19,0.18 0.54,0.45 0.16,0.83 C 33.80,6.73 33.51,6.38 33.59,6.13 33.42,5.94 33.16,5.85 33.09,5.57 z m -3.67,0.07 c -0.16,0.67 0.64,0.07 0,0 z m 1.29,0.03 c -0.62,0.19 0.58,0.40 0,0 z m -2.97,0.44 c -0.62,0.46 0.61,0.40 0,0 z m 2.76,0.00 c -1.28,0.01 -0.92,3.01 -0.52,1.14 -0.41,-0.43 0.56,-0.75 0.65,-1.13 -0.04,-0.00 -0.08,-0.00 -0.12,-0.00 z m -12.27,0.00 c -0.26,0.65 0.64,0.22 0,0 z M 31.01,6.27 c -0.03,-0.00 -0.07,0.00 -0.11,0.01 -1.17,0.53 -0.87,1.00 0.09,0.29 0.45,0.28 0.37,-0.30 0.02,-0.31 z m 4.15,0.01 c 0.04,-0.00 0.09,-0.00 0.14,0.00 0.15,0.12 0.20,0.35 0.27,0.55 -0.03,0.17 -0.14,0.07 -0.27,0.05 0.03,0.17 0.38,0.20 0.16,0.44 -0.44,-0.13 -0.60,-0.54 -1.17,-0.55 0.04,-0.23 -0.08,-0.28 -0.05,-0.50 0.30,0.11 0.58,0.01 0.91,-0.00 z m -6.02,0.08 c -0.53,0.53 0.64,0.36 0,0 z m 4.32,0.08 c 0.16,0.28 0.35,0.54 0.50,0.83 -0.15,0.40 -0.12,0.99 -0.55,1.11 0.19,-0.58 0.05,-1.26 0.05,-1.95 z m -5.83,0.10 c -0.63,0.07 0.52,0.87 0,0 z M 19.19,6.68 C 19.34,7.12 19.40,7.66 19.58,8.08 19.30,7.80 19.17,7.08 19.19,6.68 z m -0.87,0.16 c -0.48,0.25 0.49,0.21 0,0 z m 10.58,0.05 c -0.38,0.67 0.73,0.28 0,0 z m 5.19,0.05 c 0.09,0.01 0.12,0.09 0.11,0.22 -0.06,-0.00 -0.09,0.01 -0.11,0.05 -0.13,-0.01 -0.03,-0.24 0,-0.27 z m 0.27,0.05 c 0.46,0.16 0.79,0.47 0.94,0.94 0.04,0.24 -0.11,-0.04 -0.11,0.11 0.09,0.22 0.31,0.32 0.27,0.66 -0.53,-0.28 -0.39,-1.23 -1.28,-1.17 -0.08,-0.13 0.15,-0.33 0.16,-0.55 z m -2.45,0.16 c -0.08,0.22 -0.29,0.34 -0.39,0.55 -0.12,-0.22 0.11,-0.55 0.39,-0.55 z m -4.48,0.10 c -0.45,0.49 0.60,0.22 0,0 z M 18.39,7.35 c -0.30,0.35 0.45,0.17 0,0 z m 17.26,0.11 c 0.16,0.14 0.35,0.42 0.16,0.61 C 35.70,7.92 35.46,7.62 35.65,7.46 z m -12.61,0.11 c -0.19,0.24 0.33,0.15 0,0 z m 5.78,0.15 c -0.44,0.49 0.74,0.37 0,0 z m -1.34,0.11 c -0.38,0.59 0.48,0.15 0,0 z m 8.53,0.16 c 0.13,-0.01 0.08,0.36 0.19,0.17 0.19,0.09 -0.13,0.12 -0.16,0.16 0.28,0.48 -0.13,1.03 -0.16,1.56 -0.43,0.12 -0.43,0.68 -0.83,0.83 0.10,-0.30 0.24,-0.56 0.50,-0.72 -0.03,-0.43 0.27,-0.79 0.33,-1.17 0.04,-0.28 -0.12,-0.61 0.11,-0.83 0.01,-0.00 0.02,-0.00 0.02,-0.00 z M 17.93,8.19 c 0.06,0.00 0.07,0.05 0.13,0.05 0.25,0.68 0.53,1.32 1.06,1.73 0.17,-0.03 0.68,-0.00 0.94,0.16 0.00,0.45 -0.68,0.23 -0.89,0.11 -0.28,-0.17 -1.09,-1.20 -1.22,-1.61 -0.05,-0.15 -0.02,-0.31 -0.05,-0.44 0.01,-0.00 0.02,-0.00 0.02,-0.00 z m 5.72,0.00 c 0.19,0.13 0.28,0.38 0.50,0.50 0.33,-0.01 0.61,0.02 0.78,0.16 -0.01,0.17 -0.12,0.25 -0.16,0.39 -0.62,-0.09 -1.07,-0.38 -1.11,-1.06 z m 7.31,0 c 0.19,0.01 0.10,0.30 0.16,0.44 -0.28,0.04 -0.23,-0.29 -0.16,-0.44 z m -4.14,0.22 c -0.30,0.69 0.27,2.75 0.79,2.52 -0.71,-0.67 -0.69,-1.67 -0.79,-2.52 z m -3.39,0.00 c 7.26e-4,0.11 0.15,0.07 0.11,0.22 -0.10,0.07 -0.31,0.05 -0.44,0.11 0.07,-0.14 0.13,-0.31 0.33,-0.33 z M 33.95,8.56 c -0.04,0.00 -0.09,0.00 -0.15,0.02 l -0.03,0 c -0.02,1.16 0.83,-0.03 0.18,-0.02 z m 2.37,0.07 c 0.16,0.13 0.00,0.79 -0.22,0.89 0.08,-0.28 0.09,-0.65 0.22,-0.89 z M 12.53,8.72 c 0.17,-0.00 0.31,0.04 0.40,0.20 -0.01,0.24 -0.40,0.11 -0.44,0.33 C 12.41,9.18 12.40,9.04 12.32,8.97 10.89,9.87 9.90,11.21 9.58,13.22 9.35,13.14 9.39,12.77 9.19,12.66 9.49,12.09 9.81,11.38 10.20,10.81 c 0.21,-0.31 0.33,-0.54 0.55,-0.83 0.15,-0.19 0.40,-0.56 0.61,-0.72 0.13,-0.10 0.72,-0.51 1.15,-0.53 z m 5.98,0.08 0.11,0 C 18.96,9.03 18.98,9.57 19.30,9.81 18.89,9.85 18.63,9.25 18.52,8.80 z m 14.17,0.05 c -0.22,0.37 0.46,0.20 0,0 z m 2.67,0 c 0.25,0.00 0.03,0.31 0,0.39 -0.15,-0.06 2.24e-4,-0.29 0,-0.39 z m 1.17,0 C 36.89,8.98 36.90,9.44 36.88,9.92 36.75,9.99 36.68,10.13 36.44,10.09 36.55,9.83 36.72,9.63 36.66,9.20 36.48,9.13 36.62,9.38 36.44,9.31 36.40,9.09 36.58,9.08 36.55,8.86 z M 14.78,9.03 c 0.21,0.16 -0.02,0.41 -0.05,0.61 -0.01,0.12 0.01,0.25 0,0.39 -0.03,0.38 -0.23,0.78 -0.27,1.11 -0.12,0.88 -0.11,1.75 0.11,2.56 -0.05,0.20 -0.11,0.14 -0.05,0.39 0.15,0.55 0.69,0.72 0.89,1.22 0.33,0.03 0.50,0.23 0.72,0.39 l 0.50,0 c 0.08,-0.30 -0.17,-0.71 -0.61,-0.66 0.10,0.19 0.44,0.15 0.50,0.39 -0.11,0.31 -0.40,-0.25 -0.55,-0.05 -0.08,-0.06 -0.08,-0.21 -0.16,-0.27 -0.05,0.00 -0.04,0.06 -0.05,0.11 -0.16,-0.17 -0.21,-0.27 -0.44,-0.27 -0.67,-0.75 -0.93,-2.40 -0.66,-3.74 0.09,0.16 0.06,0.45 0.11,0.66 0.09,-0.01 0.12,-0.09 0.11,-0.22 0.25,0.15 -0.00,0.82 0.22,1.00 -0.36,1.12 0.96,2.37 1.95,2.51 -0.02,0.12 -0.30,-0.00 -0.27,0.16 0.08,0.15 0.25,-0.07 0.44,0 -0.17,0.90 -0.89,1.34 -1.67,0.83 -0.73,-0.48 -1.41,-2.19 -1.39,-3.23 0.00,-0.09 0.08,-0.16 0.11,-0.27 0.07,-0.38 -0.00,-0.91 0.11,-1.22 -0.26,0.04 -0.30,0.39 -0.33,0.55 -0.05,0.33 0.03,0.64 0.05,0.94 0.04,0.75 0.11,1.37 0.39,2.00 0.13,0.30 0.41,0.71 0.44,1.22 -1.84,-1.45 -1.14,-5.32 -0.11,-7.14 z m 10.27,0.11 c 0.38,0.19 0.02,0.80 -0.33,0.78 -0.05,-0.22 0.20,-0.55 0.33,-0.78 z M 12.71,9.25 c -0.55,0.91 -1.57,1.79 -1.73,3.12 -0.06,0.50 0.09,1.05 -0.05,1.39 -0.00,0.18 0.13,0.24 0.22,0.33 -0.13,1.62 -0.82,4.12 -0.16,6.08 0.07,0.22 0.24,0.39 0.33,0.61 0.16,0.40 0.21,0.77 0.44,1.06 0.33,0.43 1.28,1.02 2.12,0.55 -0.10,0.29 -0.32,0.37 -0.61,0.39 -0.63,0.02 -1.57,-0.71 -1.89,-1.11 -0.23,-0.29 -0.41,-0.72 -0.55,-1.17 -0.15,-0.45 -0.21,-0.89 -0.33,-1.33 -0.25,-0.90 -0.01,-2.52 0.05,-3.51 -0.23,0.06 -0.24,0.23 -0.27,0.39 -0.03,0.14 -0.05,0.29 -0.06,0.44 0.00,3.34e-4 0.00,-4.47e-4 0.00,0 -0.00,0.01 -0.00,0.03 -0.01,0.05 -0.06,0.84 0.10,1.81 0.06,2.68 -0.03,0.91 -0.43,1.75 -0.55,2.62 -0.10,0.75 0.06,1.67 -0.16,2.23 -0.43,1.02 -0.63,2.09 -0.50,3.40 0.01,0.15 -0.03,0.33 0,0.44 0.12,0.36 0.43,0.53 0.94,0.61 -0.15,-0.34 -0.78,-0.22 -0.83,-0.66 0.23,-0.02 0.61,0.55 1.00,0.22 -1.72,-0.14 -0.96,-2.64 -0.55,-3.68 0.12,0.35 0.24,1.06 0.50,1.45 0.10,0.11 0.26,0.18 0.39,0.27 0.14,1.05 0.25,2.41 1.50,2.17 0.23,-0.08 0.29,-0.34 0.55,-0.39 -0.13,0.14 0.12,0.20 0.11,0.39 -0.24,0.82 -1.68,0.74 -1.95,0 -0.02,-0.17 0.19,-0.14 0.05,-0.27 -0.34,-0.57 -0.83,-1.21 -0.72,-2.06 -0.23,-0.06 -0.09,0.23 -0.22,0.27 0.04,0.86 1.00,1.53 0.55,2.34 0.03,0.27 0.16,0.46 0.22,0.72 -0.32,0.04 -0.45,-0.10 -0.66,-0.16 0.02,-0.19 0.40,-0.03 0.33,-0.33 -0.13,-0.09 -0.41,0.13 -0.66,0.11 -0.71,-0.37 -1.12,-0.88 -1.11,-1.78 0.00,-0.69 0.34,-1.42 0.33,-2.06 -0.19,0.12 -0.21,0.41 -0.27,0.66 -0.04,0.15 -0.05,0.30 -0.11,0.55 -0.01,0.06 -0.11,0.11 -0.11,0.11 -0.06,0.54 0.15,1.15 0.16,1.73 -0.25,-0.08 -0.55,-0.63 -0.27,-0.89 -0.05,-0.07 -0.15,-0.10 -0.16,-0.22 0.03,-0.89 0.21,-1.64 0.61,-2.17 0.16,-0.01 0.19,-0.17 0.44,-0.11 -0.50,-0.39 -0.75,0.38 -1.00,0.61 -0.12,0.69 -0.33,1.43 -0.11,2.17 -0.61,-0.49 -0.69,-1.54 -1.00,-2.34 0.08,-1.30 0.27,-2.28 0.61,-3.40 0.01,0.56 -0.51,2.62 0.27,2.67 0.48,0.03 0.57,-0.74 -0.05,-0.72 -0.19,0.25 0.36,0.12 0.27,0.44 -0.57,0.07 -0.54,-0.45 -0.50,-1.17 0.08,-1.34 0.57,-2.84 1.00,-3.74 0.02,0.52 -0.43,1.05 -0.44,1.73 0.26,-0.24 0.22,-0.87 0.44,-1.28 0.04,0.37 -0.12,1.01 -0.05,1.45 0.02,0.15 -0.30,-0.04 -0.27,0.11 0.02,0.28 0.11,0.06 0.27,0.05 0.03,0.17 0.01,0.39 0.22,0.39 0.14,-0.16 -0.09,-0.44 -0.05,-0.89 0.02,-0.29 0.27,-0.81 0.39,-1.11 0.29,-0.74 0.80,-1.50 0.94,-2.34 0.00,-0.13 -0.08,-0.17 -0.16,-0.22 0.08,-0.23 0.25,-0.36 0.32,-0.61 0.00,-0.01 0.00,-0.03 0.00,-0.05 -0.23,-0.03 -0.34,0.33 -0.43,0.50 -0.33,0.59 -0.71,1.36 -1.00,2.00 0.03,0.18 -0.11,0.08 -0.16,0.05 -0.04,0.27 -0.26,0.36 -0.27,0.66 -0.01,-0.46 0.32,-0.87 0.44,-1.33 0.02,-0.09 -0.02,-0.24 0,-0.33 0.25,-1.17 0.93,-2.14 1.56,-2.90 -0.04,-0.16 -0.17,0.03 -0.27,0 -0.01,-0.18 0.27,-0.21 0.39,-0.11 0.13,-0.61 0.52,-1.25 0.39,-1.95 -0.36,0.03 -0.53,0.53 -0.83,0.44 0.02,-1.21 0.59,-1.92 1.17,-2.73 0.48,-0.67 0.85,-1.24 1.56,-1.56 z m 9.15,0 c -0.02,0.67 1.21,-0.01 0,0 z m -0.83,0.05 c -0.01,2.22e-4 -0.03,0.00 -0.05,0.00 -0.04,0.32 0.28,-0.00 0.05,-0.00 z m 3.40,0.00 0.22,0 c -0.05,0.47 -0.15,0.70 -0.05,1.11 0.52,0.15 0.31,-0.42 0.61,-0.50 0.17,0.50 -0.15,0.85 -0.66,0.83 -0.10,-0.28 -0.28,-0.50 -0.39,-0.78 0.03,-0.27 0.27,-0.36 0.27,-0.66 z m 8.37,0.05 c 0.26,0.08 0.40,0.30 0.44,0.61 C 33.12,9.79 32.72,9.60 32.81,9.36 z m -19.78,0.10 c -0.24,0.31 0.45,0.13 0,0 z m -1.14,0.00 c 0.03,0.35 -0.60,0.50 -0.61,1.00 -0.29,0.03 -0.39,0.38 -0.61,0.72 -0.07,0.12 -0.21,0.21 -0.27,0.33 -0.15,0.27 -0.18,0.67 -0.44,0.83 0.40,-1.21 1.01,-2.22 1.95,-2.90 z m 12.09,0.05 c 0.08,-0.00 0.11,0.04 0.18,0.06 -0.01,0.16 -0.17,0.19 -0.11,0.44 -0.25,-0.06 -0.10,-0.27 -0.11,-0.50 0.01,-0.00 0.02,-0.00 0.04,-0.00 z m -7.35,0.00 c 0.20,0.04 0.05,0.42 0.16,0.55 -0.19,-0.04 -0.10,-0.37 -0.16,-0.55 z m 19.81,0 c 0.22,0.17 -0.24,0.56 -0.33,0.78 -0.29,0.03 -0.40,0.26 -0.66,0.33 0.12,-0.58 0.73,-0.68 1.00,-1.11 z M 22.70,9.75 c 0.16,0.02 0.25,0.11 0.27,0.27 -0.20,0.01 -0.37,-0.16 -0.27,-0.27 z m 12.11,0 c 0.06,0.19 0.11,0.40 0.27,0.50 -0.03,0.27 -0.13,0.49 -0.39,0.55 0.20,-0.38 -0.05,-0.78 0.11,-1.06 z M 12.38,10.03 c -0.31,0.42 -0.48,1.00 -0.78,1.45 -0.03,0.26 -0.09,0.50 -0.33,0.55 0.25,-0.78 0.58,-1.49 1.11,-2.00 z m 12.43,0.01 c 0.17,0.00 0.14,0.25 -0.09,0.26 0.00,-0.10 -0.06,-0.11 -0.05,-0.22 0.05,-0.03 0.10,-0.04 0.14,-0.04 z m 8.78,0.09 c 0.33,0.24 0.44,1.08 0.16,1.45 -0.21,-0.31 0.13,-0.94 -0.16,-1.45 z m -16.80,0.11 c 0.18,0.23 0.17,0.55 0.33,0.78 0.17,0.25 0.40,0.29 0.61,0.50 -0.22,0.06 -0.32,-0.00 -0.55,-0.05 -0.10,-0.43 -0.37,-0.70 -0.39,-1.22 z m 19.48,0 c 0.13,0.21 -0.15,0.47 -0.39,0.50 0.06,-0.23 0.26,-0.32 0.39,-0.50 z m -23.11,0.44 c -0.12,0.81 -0.60,1.73 -0.78,2.79 -0.12,0.72 0.13,1.59 -0.39,1.95 -0.13,-2.04 0.50,-3.37 1.17,-4.74 z m 4.91,0.05 c 0.33,0.09 0.51,0.34 0.89,0.39 -0.15,0.49 -0.58,0.71 -1.28,0.66 0.01,-0.26 0.45,-0.54 0.39,-1.06 z m 2.84,0.33 c -0.58,0.57 -2.35,2.81 -1.56,2.54 -0.23,-0.99 1.88,-1.95 1.85,-2.41 l -0.11,-0.09 -0.17,-0.03 z m 7.60,0.23 c 0.03,0.00 0.07,0.02 0.09,0.04 -0.01,0.12 -0.14,0.12 -0.22,0.05 0.00,-0.08 0.06,-0.11 0.12,-0.10 z m 1.10,0.04 0.16,0 0,0.27 c -0.06,-0.08 -0.16,-0.13 -0.16,-0.27 z m 7.70,0.05 c -0.01,2.23e-4 -0.03,0.00 -0.05,0.00 -0.04,0.32 0.28,-0.00 0.05,-0.00 z m -25.28,0.00 c -0.03,0.26 -0.18,0.41 -0.27,0.61 C 11.73,11.94 11.84,11.49 12.04,11.43 z m 10.79,0.05 c -0.51,0.29 0.50,0.21 0,0 z m 0.33,0.15 c -0.43,0.36 0.46,0.22 0,0 z m -2.12,0.05 c -0.02,-9.9e-5 -0.05,0.00 -0.08,0.00 0.26,0.89 -1.26,0.47 -0.21,0.92 -0.87,0.01 0.36,0.79 0.30,-0.20 -0.01,-0.18 0.33,-0.72 -0.01,-0.72 z m 1.54,0.03 c -0.44,0.27 0.55,0.28 0,0 z m 0.88,0.08 c -0.35,0.34 0.63,0.13 0,0 z m -4.89,0.00 c 0.03,0.00 0.07,0.01 0.10,0.04 0.00,0.18 -0.22,0.26 -0.33,0.16 0.02,-0.10 0.12,-0.21 0.23,-0.21 z m 18.60,0.01 c -0.27,0.28 0.47,0.18 0,0 z m -18.10,0.03 c -0.04,0.90 -0.10,1.79 -0.89,1.95 0.23,-0.46 0.29,-0.72 0.22,-1.33 0.21,-0.21 0.28,-0.56 0.66,-0.61 z m 3.96,0.05 c -0.27,0.65 0.68,0.02 0,0 z m 4.91,0.05 c -0.20,0.61 0.76,0.56 0,0 z m 8.93,0 c -1.34,0.42 1.12,0.37 0,0 z m -16.21,0.00 c -0.48,0.29 0.50,0.30 0,0 z m 3.33,0.04 c -0.02,0.00 -0.04,0.00 -0.07,0.01 -0.01,0.59 0.38,-0.03 0.07,-0.01 z m -11.12,0.01 c -0.06,0.65 0.11,2.05 -0.39,2.45 -0.07,-0.80 0.26,-1.66 0.39,-2.45 z m -1.67,0.05 c 0.21,-0.02 0.11,0.44 -0.05,0.39 -0.04,-0.19 0.08,-0.21 0.05,-0.39 z m 16.37,0.05 c -0.48,0.49 0.79,0.26 0,0 z m 8.62,0.04 c -0.02,9.12e-4 -0.06,0.00 -0.10,0.01 -0.13,0.55 0.53,-0.02 0.10,-0.01 z m -12.72,0.00 c -0.25,0.33 0.65,0.05 0,0 z m -1.34,0.03 c 0.14,-9.31e-4 0.32,0.14 0.46,0.19 -0.02,0.12 -0.09,0.19 -0.22,0.22 0.23,-0.28 -0.29,-0.19 -0.33,-0.39 0.02,-0.01 0.06,-0.02 0.09,-0.02 z m 13.41,0.02 c -0.26,0.49 0.59,0.13 0,0 z m -11.49,0.13 c -0.03,0.00 -0.06,0.01 -0.11,0.02 0.08,0.66 0.41,-0.04 0.11,-0.02 z m 4.29,0.08 c -0.71,-0.01 -1.67,0.40 -0.55,0.66 -1.11,-0.48 1.19,-0.42 0.06,0.03 0.11,-0.05 1.32,0.60 0.42,0.64 -1.56,-1.09 0.86,0.97 0.79,1.92 1.33,1.22 -1.36,-3.02 -0.05,-1.11 0.61,0.33 -0.79,-1.80 -0.66,-2.16 z m -5.65,0.04 c 0.04,-0.01 0.10,0.10 0.18,0.06 0.04,0.17 -0.14,0.11 -0.16,0.22 -0.19,-0.01 0.14,-0.20 -0.05,-0.22 0.00,-0.04 0.02,-0.05 0.03,-0.06 z m -12.82,0.00 c 0.08,0.32 -0.08,0.73 0,1.11 -0.29,-0.24 -0.10,-0.81 0,-1.11 z m 24.53,0.00 c -0.48,0.25 0.49,0.21 0,0 z m 1.92,0.01 c -1.05,-0.02 0.10,1.76 -0.10,0.20 0.29,0.20 0.52,-0.14 0.10,-0.20 z m -0.78,0.02 c -0.58,0.54 0.68,1.25 0.05,0.01 l -0.05,-0.01 z m -15.46,0.01 c -0.56,1.09 0.50,0.48 0,0 z m 4.36,0.03 c -0.04,-0.00 -0.10,0.00 -0.17,0.02 0.05,0.40 0.48,-0.01 0.17,-0.02 z m -0.51,0.13 c -0.41,0.25 0.44,0.32 0,0 z m -12.66,0.00 c 0.13,0.21 -0.10,0.53 -0.11,0.78 -0.10,-0.18 0.10,-0.52 0.11,-0.78 z m 3.89,0.16 c 0.00,-1.17e-4 0.00,-1.39e-4 0.00,0.00 0.30,0.58 0.94,1.75 2.00,1.73 0.47,-0.01 0.61,-0.40 0.83,-0.83 -0.00,0.53 -0.40,1.29 -1.11,1.17 -0.39,-0.06 -1.02,-0.42 -1.33,-0.83 -0.26,-0.34 -0.40,-0.76 -0.44,-1.22 0.00,0.00 0.03,-0.00 0.04,-0.00 z m 19.77,0.01 c 0.04,-0.00 0.09,0.01 0.11,0.04 0.05,0.12 -0.20,0.12 -0.16,0 0.00,-0.02 0.02,-0.03 0.05,-0.04 z m -10.61,0.04 c -0.48,0.17 0.33,0.27 0,0 z m 5.89,0.16 c -0.57,0.26 0.06,1.12 0,0 z m -10.27,0.14 c -1.05,0.08 0.29,0.53 0,0 z m 16.86,0.02 c -0.74,0.26 0.49,0.41 0,0 z m -8.52,0.06 c -0.50,0.18 0.33,0.27 0,0 z m -17.57,0.05 c -0.02,0.45 -0.20,0.76 -0.33,1.11 -0.15,0.05 -0.23,0.05 -0.39,0 -0.03,0.12 0.10,0.07 0.11,0.16 -0.74,1.11 -1.67,2.37 -1.84,3.90 -0.01,0.12 0.05,0.24 0.05,0.39 -0.00,0.22 -0.15,0.34 -0.22,0.55 -0.06,0.20 -0.04,0.45 -0.11,0.66 -0.38,1.24 -0.97,2.35 -1.06,3.79 -0.32,-2.25 0.78,-3.56 1.00,-5.47 C 7.97,18.37 7.77,18.42 7.80,18.24 7.96,18.05 7.96,17.69 7.96,17.35 8.16,17.06 8.36,16.77 8.41,16.34 8.02,16.59 8.10,17.30 7.57,17.40 7.45,17.65 7.47,18.04 7.24,18.18 c 0.03,-1.56 0.90,-2.29 1.56,-3.23 -0.01,0.43 -0.40,0.97 -0.27,1.73 0.31,0.05 0.40,-0.11 0.39,-0.39 -0.07,-0.15 -0.11,0.17 -0.27,0.11 0.10,-0.88 0.33,-1.63 0.89,-2.06 0.07,-0.13 0.02,-0.38 0.11,-0.50 0.42,6.15e-4 0.20,0.64 0.61,0.66 0.18,-0.25 -0.24,-0.29 -0.16,-0.61 0.13,-0.21 0.33,-0.37 0.61,-0.44 z m 7.36,0.05 c 0.20,0.13 -0.32,0.44 -0.27,0.11 0.13,0.00 0.23,-0.02 0.27,-0.11 z m 1.53,0.16 c -0.49,0.66 0.41,0.33 0,0 z m 10.48,0.24 c -0.52,0.38 0.59,0.41 0,0 z m -10.21,0.02 c -0.02,3.56e-4 -0.04,0.00 -0.07,0.00 -0.14,0.51 0.41,-0.01 0.07,-0.00 z m 2.22,0.00 c -2.49,1.04 1.39,3.11 1.52,1.89 -1.67,0.37 -2.64,-0.72 -1.52,-1.89 z m -2.80,0.00 c -0.52,0.06 -0.05,0.63 0,0 z m 15.92,0.10 c 0.13,-0.00 0.11,0.14 0.26,0.12 -0.08,0.08 -0.24,0.08 -0.39,0.11 0.04,-0.04 0.06,-0.12 0.05,-0.22 0.02,-0.00 0.04,-0.01 0.06,-0.01 z m -0.28,0.17 c -0.02,0.06 -0.07,0.11 -0.16,0.11 -0.02,-0.11 0.07,-0.10 0.16,-0.11 z m -4.96,0.22 c 0.26,1.07 1.45,1.04 0,0 z m -14.38,0.09 c -0.02,0.00 -0.04,0.00 -0.07,0.01 -0.05,0.47 0.38,-0.03 0.07,-0.01 z m 21.36,0.00 c -0.01,2.23e-4 -0.03,0.00 -0.05,0.00 -0.04,0.32 0.28,-0.00 0.05,-0.00 z m -7.69,0.27 c -0.01,6.45e-4 -0.03,0.00 -0.06,0.01 0.00,0.51 0.34,-0.02 0.06,-0.01 z m -9.27,0.06 c -0.04,0.37 0.42,0.07 0,0 z m 9.88,0 c -0.22,0.31 0.37,0.11 0,0 z m 1.61,0.03 c 0.43,-0.02 0.89,0.58 0.72,1.25 -0.05,0.21 -0.42,0.53 -0.50,0.55 -0.29,0.07 -0.62,0.01 -0.66,-0.27 0.15,-0.14 0.27,0.05 0.44,0.05 0.60,-0.03 0.67,-1.19 0.11,-1.33 -0.32,-0.11 -0.34,0.28 -0.55,0.11 0.11,-0.24 0.27,-0.34 0.44,-0.35 z m -14.12,0.19 c 0.05,-0.00 0.11,0.00 0.16,0.00 0.19,0.94 0.07,2.08 -1.11,1.95 -0.11,-0.01 -0.35,-0.00 -0.39,-0.16 0.60,-0.09 1.08,0.00 1.28,-0.44 -0.22,-0.18 -0.36,0.19 -0.55,0.22 -0.32,0.02 -0.62,0.08 -1.00,0.05 -0.28,-0.35 -0.70,-0.28 -0.78,-0.89 0.43,0.40 1.06,0.97 1.84,0.55 0.23,-0.32 0.57,-0.53 0.61,-1.06 -0.01,-0.09 -0.09,-0.12 -0.22,-0.11 0.00,-0.08 0.07,-0.10 0.16,-0.11 z m 6.92,0.00 c -0.79,1.16 0.74,0.56 0,0 z m 3.05,0.09 c -0.46,0.55 0.77,0.42 0,0 z m -7.64,0.04 c -0.02,0.00 -0.06,0.00 -0.10,0.01 0.05,0.37 0.36,-0.03 0.10,-0.01 z m 13.12,0.01 c 1.17,0.40 2.29,0.86 3.46,1.28 0.25,0.24 0.63,0.36 1.06,0.44 0.55,0.47 0.65,1.38 1.22,1.84 -0.04,0.34 -0.38,0.39 -0.44,0.72 -0.19,0.08 -0.03,-0.18 -0.16,-0.16 -0.24,0.08 -0.01,0.29 0.05,0.39 0.00,0.43 -0.18,0.67 -0.50,0.78 -0.20,0.05 -0.04,-0.25 -0.22,-0.22 -0.16,0.03 -0.08,0.32 -0.27,0.33 -0.22,0.07 -0.13,-0.16 -0.27,-0.16 -0.23,0.04 0.05,0.27 -0.11,0.39 l -0.27,0 0,-0.33 -0.16,0 c -0.19,0.11 -0.02,0.16 0,0.33 -0.16,0.05 -0.28,0.15 -0.55,0.11 -0.47,-0.39 -0.66,-1.08 -1.22,-1.39 0.01,-0.20 -0.16,-0.20 -0.16,-0.39 -0.03,-0.07 -0.11,-0.10 -0.22,-0.11 -0.04,-0.15 0.11,-0.11 0.11,-0.22 -0.04,-0.04 -0.12,-0.06 -0.22,-0.05 -0.16,0.03 0.05,0.11 0,0.22 -0.30,0.00 -0.29,-0.30 -0.39,-0.50 0.17,-0.04 0.10,0.15 0.27,0.11 0.13,-0.32 -0.19,-0.20 -0.22,-0.22 -0.07,-0.05 -0.07,-0.26 -0.27,-0.22 -0.00,-0.13 0.08,-0.17 0.11,-0.27 0.34,0.17 0.55,0.49 0.83,0.72 0.23,-0.07 0.00,-0.31 0.11,-0.44 -0.10,-0.10 -0.10,0.03 -0.27,0 -0.11,-0.26 0.22,-0.40 0.44,-0.50 0.02,0.17 -0.07,0.21 -0.11,0.33 0.05,0.21 0.22,0.04 0.39,0.05 0.12,0.12 -0.11,0.21 -0.16,0.33 0.08,0.06 0.13,0.16 0.27,0.16 0.08,-0.01 0.01,-0.16 0.11,-0.16 0.18,0.06 0.00,0.61 0.27,0.72 -0.01,0.19 -0.15,0.13 -0.05,0.33 l 0.22,0 c 0.17,-0.08 -0.09,-0.11 -0.11,-0.22 -0.00,-0.04 0.09,-0.11 0.11,-0.22 0.04,-0.26 -0.16,-0.59 -0.05,-0.89 -0.11,-0.17 -0.22,-0.03 -0.39,-0.11 -0.40,-0.86 -1.66,-1.16 -1.56,-2.34 -0.12,-0.26 -0.58,-0.01 -0.61,-0.44 z m -1.28,0.02 c 0.03,-0.00 0.09,0.00 0.16,0.02 0.12,0.30 0.12,0.63 0,0.94 -0.12,0.03 -0.33,0.11 -0.44,0 0.20,-0.26 0.27,-0.53 0.05,-0.83 0.11,-0.07 0.13,-0.13 0.22,-0.13 z m -2.40,0.02 c 0.31,0.14 -0.01,0.44 0,0 z m -16.87,0.05 c 0.03,0.00 0.05,0.02 0.06,0.05 0.01,0.89 0.22,1.59 0.39,2.34 -0.18,0.16 -0.12,0.21 -0.11,0.55 -0.28,0.04 -0.43,-0.04 -0.55,-0.16 -0.02,-0.26 0.02,-0.45 0.11,-0.61 -0.14,-0.01 -0.24,0.02 -0.22,0.16 -0.03,-0.15 -0.10,-0.81 0.27,-0.72 -0.08,-0.50 -0.29,-1.08 0,-1.61 0.01,-0.00 0.03,-0.00 0.04,-0.00 z m 8.40,0.04 c 0.02,-7.36e-4 0.06,0.00 0.09,0.01 l 0,0.22 c -0.18,-0.17 -0.55,0.15 -0.55,-0.16 0.19,0.16 0.25,-0.06 0.46,-0.06 z m -9.47,0.06 c 0.06,-6.19e-4 0.07,0.05 0.08,0.11 -0.19,1.83 -0.15,4.38 0.72,5.63 -0.47,0.11 -0.51,-0.67 -0.83,-0.89 -0.40,-1.38 -0.31,-3.43 0,-4.85 0.01,-0.00 0.02,-0.00 0.03,-0.00 z m 2.58,0.05 c -0.37,0.48 0.84,1.40 0.16,0.26 l -0.10,-0.26 -0.06,0 z m 13.81,0.04 c -0.02,0.00 -0.04,0.00 -0.07,0.00 0.02,0.91 0.77,-0.04 0.07,-0.00 z m -8.27,0.00 c -0.28,0.43 0.57,0.11 0,0 z m 11.77,0 c 0.11,0.07 0.28,0.08 0.27,0.27 -0.11,0.04 -0.16,0.16 -0.33,0.16 -0.14,-0.09 -0.08,-0.34 0.05,-0.44 z m -11.39,0.07 c -0.41,0.34 0.75,0.18 0,0 z m -10.09,0.03 c 0.20,0.12 -0.16,0.12 -0.11,0.27 -0.15,0.09 0.05,-0.23 0.11,-0.27 z m 10.60,0.16 c -0.67,0.11 -0.26,0.42 0,0 z m -0.72,0.15 c -0.42,0.40 0.26,0.27 0,0 z m 8.43,0.00 c -0.12,0.96 0.70,0.37 0.27,1.28 0.95,-0.37 0.01,-1.11 -0.27,-1.28 z m -8.77,0.11 c -0.50,0.18 0.33,0.27 0,0 z m 11.06,0.05 c 0.16,0.00 0.14,0.33 -0.05,0.27 -0.12,-0.11 0.00,-0.18 0.05,-0.27 z m -6.52,0.10 c -0.46,0.34 0.65,0.22 0,0 z m -14.46,0.00 c 0.11,0.04 -0.01,0.31 -0.16,0.27 0.05,-0.09 0.13,-0.16 0.16,-0.27 z m 2.67,0 c 0.15,0.05 0.12,0.28 0.16,0.44 -0.41,0.32 -0.31,1.61 -0.22,2.34 -0.35,-0.21 -0.32,-0.80 -0.33,-1.17 -0.01,-0.62 0.19,-1.18 0.39,-1.61 z m 12.11,0.05 c -0.29,0.74 0.69,0.03 0,0 z m -3.91,0.16 c 0.07,-0.00 0.15,0.00 0.23,0.00 -0.01,0.18 -0.32,0.08 -0.50,0.11 0.03,-0.08 0.14,-0.11 0.27,-0.11 z m -5.85,0.00 c -0.19,0.85 0.62,-0.03 0,0 z m 5.02,0.11 c -0.09,0.16 -0.32,0.19 -0.50,0.27 0.07,-0.18 0.29,-0.22 0.50,-0.27 z m 5.08,0 c 0.07,0.68 1.29,0.07 0,0 z m 5.89,0.05 c 0.12,-0.00 0.23,0.00 0.30,0.06 -0.01,0.38 -0.69,0.32 -0.66,-0.05 0.11,0.01 0.24,-0.00 0.36,-0.00 z m -9.63,0.00 c 0.03,-0.00 0.07,6.97e-4 0.11,0.00 -0.03,0.11 -0.14,0.14 -0.27,0.16 -0.01,-0.13 0.05,-0.16 0.16,-0.17 z m 7.14,0.00 c -0.57,0.59 1.04,0.29 0,0 z M 8.97,16.79 C 9.09,17.04 8.80,17.36 8.75,17.63 8.62,17.28 8.94,17.05 8.97,16.79 z m 24.18,0.02 c 0.09,-9.28e-4 0.19,0.13 0.37,0.02 -0.14,0.09 -0.07,0.40 -0.27,0.44 -0.15,-0.04 -0.28,-0.12 -0.33,-0.27 0.13,-0.14 0.11,0.11 0.33,0.05 0.12,-0.03 -0.10,-0.18 -0.16,-0.22 0.02,-0.01 0.04,-0.02 0.06,-0.02 z m -1.88,0.02 c 0.02,-7.4e-4 0.05,7.83e-4 0.08,0.00 0.09,0.26 -0.32,0.30 -0.27,0.05 0.04,-0.03 0.10,-0.05 0.19,-0.06 z m -16.64,0.05 c -0.36,0.56 0.71,0.20 0,0 z m 5.50,0.11 c -0.43,0.34 -0.99,0.56 -1.06,1.28 -0.22,0.10 -0.36,0.30 -0.50,0.50 -0.07,-0.18 0.30,-0.40 0.16,-0.83 0.31,-0.46 0.60,-0.95 1.39,-0.94 z m 13.62,0.05 c 0.26,0.07 -0.16,0.74 -0.33,0.39 0.07,-0.17 0.21,-0.26 0.33,-0.39 z m -6.34,0.04 c -0.05,0.05 -0.12,0.10 -0.18,0.14 l 0.27,-0.02 c 6.8e-4,0.41 -1.15,0.61 -0.88,0.34 -1.37,0.52 -3.15,0.16 -4.04,1.68 -0.42,0.56 0.04,2.33 0.34,0.78 0.10,-0.49 0.84,-1.11 1.31,-1.35 -0.08,0.00 -0.15,-0.04 0.08,-0.17 0.04,0.05 0.04,0.09 0.02,0.12 0.33,-0.14 0.45,-0.02 -0.09,0.62 -0.05,1.27 0.82,-1.76 0.75,-0.71 -0.65,0.79 -0.25,1.16 0.03,0.09 0.84,-0.94 1.58,-0.24 1.94,-0.82 0.54,-0.08 2.08,-0.29 0.42,-0.71 z m -3.06,1.52 c -0.03,0.01 -0.07,0.03 -0.10,0.05 0.04,-0.00 0.08,-0.02 0.10,-0.05 z m 2.28,-1.06 c 0.21,-0.08 0.41,-0.18 0.60,-0.31 l -0.08,0.00 c -0.29,0.13 -0.45,0.23 -0.52,0.30 z m 2.04,-0.45 c -0.18,0.49 -0.28,0.90 -0.13,0.89 0.01,-0.00 0.02,-0.00 0.04,-0.01 -0.01,0.00 -0.02,0.00 -0.04,0.01 -1.10,0.27 -3.08,1.67 -2.97,2.10 0.96,-0.94 2.12,-1.95 3.55,-1.94 -1.02,0.38 -2.40,0.65 -2.84,1.78 0.51,-0.75 3.82,-2.55 2.40,-0.61 -0.53,0.40 -1.75,1.30 -0.34,0.76 0.62,-0.61 1.33,-1.18 0.47,-0.06 -0.12,0.85 1.11,-0.52 1.21,-1.19 -0.06,0.86 -1.34,2.86 -0.22,1.27 1.03,-0.79 -0.34,-2.88 -0.62,-1.07 -0.35,0.62 -1.38,1.27 -0.38,0.32 0.68,-0.73 0.74,-1.65 -0.10,-2.26 z m 4.01,0.05 c 0.48,0.05 0.68,0.39 0.94,0.66 -0.31,-0.00 -0.73,-0.37 -0.94,-0.66 z m -13.88,0.05 c 0.01,-3.33e-4 0.02,4.18e-4 0.04,0.00 -0.11,0.10 -0.11,0.32 -0.33,0.33 0.06,-0.14 0.08,-0.33 0.29,-0.33 z m 15.24,0.16 c 0.16,3.22e-4 0.25,0.07 0.26,0.22 -0.28,-0.16 -0.24,0.30 -0.50,0.33 -0.02,-0.04 -0.05,-0.09 -0.05,-0.16 0.04,-0.15 0.20,-0.20 0.22,-0.39 0.02,-0.00 0.05,-0.00 0.07,-0.00 z m -24.26,0.00 c 0.06,0.00 0.07,0.05 0.02,0.05 -0.02,0.42 -0.23,0.75 -0.39,1.11 -0.16,0.38 -0.28,0.92 -0.55,1.17 -0.02,0.21 -0.02,0.46 -0.22,0.50 0.22,-1.09 0.58,-2.05 1.11,-2.84 0.01,-0.00 0.02,-0.00 0.03,-0.00 z m 13.53,0.05 c -0.34,0.21 -0.63,0.48 -0.89,0.78 0.01,-0.22 0.46,-0.71 0.89,-0.78 z m 9.09,0.05 c 0.54,0.25 0.83,0.76 1.00,1.39 -0.42,-0.37 -0.75,-0.84 -1.00,-1.39 z M 8.63,17.68 c 0.26,0.12 -0.07,0.49 -0.16,0.72 -0.03,0.09 0.09,0.31 -0.11,0.27 0.06,-0.36 0.13,-0.71 0.27,-1.00 z m 5.94,0.05 c -0.38,0.40 0.57,0.34 0,0 z m 0.81,0.00 c -0.39,0.32 0.53,0.27 0,0 z m 16.57,0.11 c 0.14,0.00 0.28,0.01 0.27,0.16 -0.14,-0.00 -0.35,0.05 -0.27,-0.16 z m -0.22,0.05 c 0.16,0.50 0.68,-0.00 0.94,0.33 -0.37,0.11 -0.56,0.08 -1.00,0 -0.06,-0.16 -0.01,-0.18 0.05,-0.33 z m -5.66,0.05 c 0.29,0.08 -0.40,0.16 0,0 z m -1.16,0.05 c -0.43,0.14 -2.09,1.53 -2.22,1.71 -0.00,0.00 -0.00,0.01 -0.00,0.01 -0.01,0.00 -0.00,-0.00 0.00,-0.01 0.19,-1.05 1.30,-1.48 2.22,-1.71 z m -6.84,0.00 c -0.01,0.19 -0.16,0.24 -0.33,0.27 0.09,-0.11 0.14,-0.25 0.33,-0.27 z m -2.45,0.06 c -0.47,0.23 0.43,0.30 0,0 z m -3.75,0.02 c 0.09,-0.01 0.15,0.29 0.23,0.36 0.11,0.07 0.26,0.10 0.39,0.16 -0.13,0.22 -0.20,0.50 -0.50,0.55 -0.12,-0.28 -0.04,-0.77 -0.16,-1.06 0.01,-0.01 0.02,-0.02 0.04,-0.02 z m 19.62,0.02 c 0.01,-8.72e-4 0.02,-0.00 0.03,0 l 0,0.33 c -0.15,-0.01 -0.23,-0.09 -0.22,-0.27 0.08,0.00 0.11,-0.04 0.18,-0.05 z M 12.71,18.24 c 0.55,0.40 0.17,1.41 0.72,1.78 0.19,0.04 0.21,-0.08 0.39,-0.05 0.03,0.24 -0.09,0.31 -0.16,0.44 -0.90,0.04 -1.21,-0.49 -1.56,-1.00 0.31,-0.28 0.64,-0.55 0.61,-1.17 z m 17.55,0.07 c -0.46,0.04 0.37,1.27 0.25,0.14 0.47,0.54 -0.61,2.27 0.42,0.95 0.14,-0.41 -0.00,-1.10 -0.56,-1.08 -0.04,-0.00 -0.08,-0.01 -0.11,-0.00 z m -12.42,0.03 c 0.05,0.44 -0.42,0.84 -0.61,1.22 -0.16,-0.15 0.05,-0.12 0.11,-0.22 0.17,-0.33 0.17,-0.84 0.50,-1.00 z m 14.23,0.05 c 0.21,0.09 0.55,0.05 0.78,0 -0.01,0.16 0.12,0.17 0.11,0.33 -0.31,-0.09 -0.70,-0.11 -0.89,-0.33 z m 0.00,0.21 c 0.13,-0.00 0.21,0.04 0.32,0.06 -0.02,0.21 -0.37,0.18 -0.39,-0.05 0.02,-0.00 0.04,-0.00 0.06,-0.00 z m -2.40,0.06 c 0.34,0.83 -1.33,2.13 -0.25,0.62 0.10,-0.19 0.20,-0.40 0.25,-0.62 z m 4.80,0 c -0.20,1.17 2.07,1.73 0.51,0.86 -0.17,-0.28 -0.23,-0.64 -0.51,-0.86 z m -5.02,0.05 c 0.13,0.41 -0.39,0.48 0,0 z m 0.55,0 c 0.00,0.02 0.00,0.04 0.00,0.07 7.27e-4,-0.02 4.13e-4,-0.05 -0.00,-0.07 z m -12.61,0.05 c -0.16,0.48 -0.33,0.96 -0.83,1.11 0.20,-0.41 0.42,-1.10 0.83,-1.11 z m 8.59,0 c -0.44,0.06 -0.07,0.43 0,0 z m 6.92,0.05 c 0.31,2.8e-4 0.38,0.24 0.61,0.33 -0.16,0.06 -0.56,-0.10 -0.61,-0.33 z m -17.30,0.05 c 0.23,0.07 -0.08,0.18 0.05,0.44 -0.17,0.09 -0.30,0.02 -0.50,0 -0.00,0.30 0.30,0.19 0.50,0.16 -0.19,0.55 -0.58,0.90 -0.55,1.67 -0.17,0.17 -0.19,-0.13 -0.39,-0.11 -0.05,0.27 0.23,0.21 0.22,0.44 -0.03,0.67 -0.62,0.78 -0.61,1.50 -0.12,-0.01 -0.21,0.00 -0.27,0.05 0.17,0.78 -0.43,1.32 -0.94,1.33 -0.89,0.03 -1.50,-1.06 -1.89,-1.50 0.00,-0.08 -0.02,-0.21 0.05,-0.22 -0.31,-0.24 -0.37,-0.71 -0.39,-1.11 0.39,0.23 0.35,0.91 0.66,1.22 0.16,-0.09 -0.06,-0.26 -0.11,-0.33 0.32,-0.04 0.42,0.41 0.72,0.61 0.31,0.21 0.73,0.29 1.22,0.16 -0.22,-0.21 -0.53,-0.02 -0.83,-0.16 -0.56,-0.27 -1.18,-0.94 -1.39,-1.50 0.63,0.68 1.28,1.53 2.62,1.33 -0.23,1.19 -1.36,0.76 -2.00,0.16 0.30,1.03 2.45,1.11 2.17,-0.33 0.01,-0.13 0.06,-0.23 0.11,-0.33 -0.00,-0.14 -0.10,-0.19 -0.16,-0.27 0.38,-0.16 0.65,-0.91 0.33,-1.28 -0.17,0.17 0.07,0.45 -0.05,0.61 -0.29,-0.07 -0.19,-0.54 -0.33,-0.78 -0.14,0.03 -0.11,0.25 -0.27,0.27 -0.99,0.02 -1.28,-0.65 -1.56,-1.33 0.34,0.29 0.92,1.19 1.67,0.94 0.17,-0.05 0.33,-0.20 0.33,-0.50 0.56,0.11 0.67,-0.21 0.94,-0.39 0.16,0.36 -0.14,0.60 -0.33,0.78 0.41,0.27 0.77,-0.82 0.27,-0.94 -0.02,-0.13 0.10,-0.12 0.05,-0.27 0.34,0.01 0.60,-0.06 0.66,-0.33 z m 16.80,0 c 0.39,-0.00 0.48,0.29 0.61,0.55 -0.32,-0.06 -0.47,-0.30 -0.61,-0.55 z m -22.54,0.05 c -0.25,0.35 0.49,0.19 0,0 z m 1.54,0.00 c 0.03,0.00 0.05,0.02 0.06,0.05 0.17,0.88 0.51,2.04 1.28,2.51 -0.13,0.15 -0.21,0.04 -0.44,0.05 -0.53,-0.65 -0.79,-1.58 -0.94,-2.62 0.01,-0.00 0.03,-0.00 0.04,-0.00 z m 19.43,0.00 c 0.17,0.46 -0.44,0.91 -0.04,0.18 l 0.04,-0.18 z m -9.75,0.05 c -0.10,0.62 -1.10,1.44 -0.88,1.78 1.02,0.20 1.73,-2.55 0.69,-0.68 -0.20,0.12 0.54,-0.93 0.19,-1.09 z m 17.09,0 c -0.46,0.11 0.24,0.43 0,0 z m -2.54,0.05 c -0.26,1.31 0.90,0.45 0,0 z m -2.42,0.16 c 0.16,-0.00 0.25,0.26 0.35,0.11 0.05,-0.21 0.26,0.05 0.33,0.11 0.37,0.28 0.98,0.78 1.06,1.39 1.11,1.34 0.49,3.91 -0.22,5.24 0.01,-0.53 0.35,-1.06 0.39,-1.73 0.04,-0.78 0.05,-1.72 -0.11,-2.51 -0.05,-0.28 -0.29,-0.54 -0.39,-0.83 -0.05,-0.15 -0.00,-0.31 -0.05,-0.44 -0.19,-0.51 -0.60,-0.97 -1.00,-1.17 0.43,0.54 0.81,0.93 0.94,1.67 -0.22,-0.29 -0.41,-0.62 -0.61,-0.94 -0.30,-0.23 -0.69,-0.38 -0.72,-0.89 0.01,-0.00 0.02,-0.00 0.03,-0.00 z m -21.48,0.05 c 0.03,0.00 0.05,0.02 0.06,0.05 0.16,0.91 0.63,1.52 1.39,1.84 0.10,-0.08 0.36,-0.00 0.44,-0.11 0.12,0.05 0.20,0.16 0.22,0.33 -0.23,0.03 -0.65,0.13 -0.72,-0.11 -0.07,0.05 -0.16,0.09 -0.22,0.16 -0.72,-0.37 -1.11,-1.37 -1.22,-2.17 0.01,-0.00 0.03,-0.00 0.04,-0.00 z m 10.34,0.05 c -0.49,0.88 -2.19,2.61 -1.56,3.15 1.01,0.06 0.85,-1.24 0.11,-0.41 0.07,-1.05 1.84,-1.94 1.45,-2.73 z m -8.82,0.11 c 0.18,0.05 0.32,0.15 0.33,0.39 -0.21,-0.02 -0.37,-0.10 -0.33,-0.39 z m -3.43,0.00 c -0.48,0.29 0.50,0.30 0,0 z m 27.65,0.04 c 0.04,0.85 0.51,0.18 0,0 z m -6.24,0.00 c 0.31,0.89 -0.54,1.52 -1.28,1.73 0.52,-0.48 0.89,-1.11 1.28,-1.73 z m 5.86,0.16 c -0.38,0.51 1.02,0.79 0,0 z m -0.43,0.10 c -0.61,0.25 0.61,0.36 0,0 z m -26.36,0.00 c 0.03,0.00 0.05,0.02 0.06,0.05 -0.04,0.46 0.28,0.81 0.39,1.28 0.05,0.25 -0.03,0.55 0,0.83 0.17,1.33 1.11,2.34 2.45,2.62 0.25,0.03 0.23,-0.21 0.50,-0.16 0.08,0.41 -0.54,0.56 -1.06,0.55 -0.18,-0.18 -0.33,-0.40 -0.55,-0.55 -0.15,0.05 0.04,0.20 0.11,0.22 -0.19,-0.01 -0.53,-0.27 -0.72,-0.50 -0.81,-0.95 -0.98,-2.80 -1.22,-4.35 0.01,-0.00 0.03,-0.00 0.04,-0.00 z m -0.60,0.05 c -0.36,0.41 0.52,0.34 0,0 z m 23.81,0.10 c 0.06,0.00 0.07,0.05 0.13,0.05 0.22,0.37 0.61,0.77 0.78,1.22 0.08,0.22 0.24,0.82 0.27,1.06 0.05,0.41 0.05,1.00 -0.05,1.33 -0.16,0.48 -0.28,0.90 -0.50,1.33 -0.13,0.26 -0.22,0.39 -0.39,0.61 -0.13,0.18 -0.22,0.30 -0.39,0.50 -0.10,0.12 -0.18,0.29 -0.22,0.33 -0.03,0.03 -0.18,0.02 -0.22,0.05 -0.10,0.08 -0.21,0.29 -0.33,0.44 -0.25,0.04 -0.43,0.16 -0.78,0.11 1.43,-0.80 2.41,-2.27 2.45,-4.29 l 0.27,0 c -0.04,-0.12 -0.24,-0.09 -0.33,-0.16 0.02,-0.77 -0.58,-1.06 -0.55,-1.67 -0.01,-0.07 -0.13,-0.04 -0.22,-0.05 0.16,-0.26 -0.07,-0.68 0.05,-0.89 0.01,-0.00 0.02,-0.00 0.02,-0.00 z m 3.36,0.15 c -0.02,-2.41e-4 -0.06,0.00 -0.10,0.01 -0.06,0.51 0.35,-0.01 0.10,-0.01 z m -4.40,0.01 c 0.30,0.15 0.02,0.93 -0.22,1.06 0.11,-0.31 0.18,-0.67 0.22,-1.06 z m 5.19,0.05 c -0.53,0.35 0.41,0.25 0,0 z m -27.13,0.00 c 0.08,0.04 0.12,0.14 0.11,0.27 -0.08,-0.04 -0.12,-0.14 -0.11,-0.27 z m 25.17,0 c -0.20,0.48 0.58,0.20 0,0 z m 0.54,0.05 c -0.25,0.54 0.57,0.13 0,0 z m -3.55,0.22 c 0.14,0.10 -0.03,0.37 -0.05,0.50 -0.08,-0.04 0.01,-0.39 0.05,-0.50 z m 2.74,0.00 c -0.47,0.27 0.55,0.25 0,0 z m -25.30,0.05 c 0.11,0.51 0.47,1.31 0.27,1.78 0.52,0.57 0.43,1.93 1.00,2.62 -0.40,0.55 -0.14,1.48 0.16,1.95 0.37,0.09 1.08,0.44 0.78,1.00 -0.22,0.00 0.01,-0.08 -0.11,-0.16 -0.12,0.06 -0.13,0.23 -0.39,0.16 -0.49,-0.18 -0.69,-0.86 -0.61,-1.45 -0.27,0.24 -0.12,0.94 0.11,1.28 0.10,0.15 0.28,0.21 0.33,0.33 l 0.39,0 c -0.98,0.56 -1.42,-0.73 -1.45,-1.67 -0.01,-0.21 0.04,-0.02 0.16,-0.05 -0.40,-0.58 0.05,-1.41 0.05,-1.89 -0.18,0.22 -0.27,0.54 -0.33,0.89 -0.46,-1.10 -0.36,-2.60 -0.22,-3.79 -0.21,-0.04 -0.09,0.24 -0.33,0.16 -0.03,-0.48 0.15,-0.73 0.16,-1.17 z m -0.50,0.01 c -0.63,0.37 0.63,0.41 0,0 z m 26.08,0.10 c -0.35,0.33 0.63,0.16 0,0 z m -25.02,0.09 c 0.13,0.03 0.12,0.21 0.16,0.33 -0.02,0.07 -0.17,-0.19 -0.16,-0.33 z m 14.37,0.05 c 0.02,-0.00 0.05,-4.06e-4 0.08,0.00 -0.03,0.07 -0.11,0.10 -0.22,0.11 0.01,-0.07 0.05,-0.10 0.13,-0.11 z m 1.98,0.00 c -0.50,1.28 -3.43,0.94 -3.28,1.42 1.36,0.35 3.22,0.55 4.23,-0.75 -0.59,0.42 -2.27,1.17 -2.45,0.77 0.80,0.12 3.04,-1.74 1.26,-0.61 -0.60,0.68 -3.66,0.67 -1.44,0.38 0.29,-0.09 2.53,-1.01 1.69,-1.21 z m -2.43,0.16 c 0.01,-8.51e-4 0.02,1.82e-4 0.03,0.00 -0.05,0.03 -0.24,0.28 -0.22,0.05 0.08,0.00 0.11,-0.05 0.18,-0.05 z m 0.48,0.05 c -0.27,0.18 -0.63,0.29 -0.94,0.44 -0.00,-0.24 0.60,-0.35 0.94,-0.44 z M 8.13,21.09 C 7.80,21.71 7.73,24.66 8.08,22.65 8.12,22.13 8.10,21.61 8.13,21.09 z m 25.28,0.05 c 0.24,0.20 -0.09,0.54 -0.11,0.83 -0.12,-0.21 0.11,-0.55 0.11,-0.83 z m -23.96,0.05 c -0.43,0.54 0.56,0.20 0,0 z m 2.08,0.00 c 0.67,0.38 1.01,1.10 2.23,0.94 -0.09,0.35 -0.55,0.30 -0.78,0.27 -0.62,-0.07 -1.29,-0.76 -1.45,-1.22 z m 3.96,0 c -0.67,1.24 0.50,3.54 1.80,3.52 -0.02,-0.01 -0.06,-0.05 -0.11,-0.09 -1.39,-0.54 -1.87,-2.15 -1.68,-3.42 z m 1.68,3.42 c 0.02,0.00 0.04,0.01 0.06,0.02 0.03,0.03 0.05,0.05 0.06,0.07 0.18,-0.00 0.37,-0.06 0.56,-0.17 -0.93,-0.05 -2.25,-1.35 -2.05,-2.73 -0.78,0.65 0.84,2.35 1.35,2.81 z m 0.13,0.09 c -0.00,1.95e-4 -0.01,-8.1e-5 -0.01,0 0.03,0.02 0.04,0.02 0.01,0 z m 19.07,-3.45 c 0.02,0.00 0.06,0.01 0.09,0.03 -0.21,0.15 -0.06,0.33 -0.39,0.39 0.01,0.11 0.14,0.11 0.22,0.16 0.16,-0.06 0.19,-0.27 0.11,-0.44 0.20,0.05 0.34,0.17 0.44,0.33 -0.05,1.54 -0.59,2.60 -1.17,3.62 -0.40,-0.82 0.29,-1.41 0.11,-2.51 l 0.22,0 c -0.21,-0.19 -0.32,-0.49 -0.33,-0.89 0.24,-0.00 0.25,0.22 0.50,0.22 -0.03,-0.19 -0.21,-0.23 -0.39,-0.27 -0.03,-0.31 0.30,-0.36 0.16,-0.61 0.21,0.10 0.28,-0.03 0.40,-0.03 z m -13.91,0.08 c 0.04,0.02 0.09,0.04 0.11,0.11 -0.05,0.76 -0.33,1.30 -0.94,1.50 0.42,-0.39 0.79,-0.83 0.83,-1.61 z m 8.93,0.11 c 0.23,0.06 0.07,0.23 0.05,0.33 -0.07,0.37 -0.48,1.05 -0.78,1.39 -0.23,0.27 -0.78,0.62 -1.39,0.61 -0.24,-0.00 -0.46,-0.01 -0.61,-0.22 1.50,-0.11 2.18,-1.05 2.73,-2.12 z m -23.08,0.05 c -0.34,1.10 0.50,0.55 0,0 z m 25.29,0.05 c 0.06,0.00 0.07,0.05 0.13,0.05 0.74,1.86 -0.25,3.94 -1.39,4.80 0.60,-1.01 1.56,-2.06 1.33,-3.62 -0.04,-0.34 -0.29,-0.69 -0.11,-1.22 0.01,-0.00 0.02,-0.00 0.02,-0.00 z M 13.16,21.66 c 0.26,-0.00 0.55,0.04 0.72,0.09 -0.13,0.33 -1.01,0.27 -1.22,0.05 0.10,-0.10 0.30,-0.14 0.50,-0.15 z m 21.60,0.09 c 0.14,0.00 0.11,0.18 0.11,0.33 -0.09,-0.05 -0.06,-0.23 -0.11,-0.33 z m -24.73,0.05 c 0.05,0.51 -0.03,1.28 -0.22,1.73 -0.04,0.01 -0.05,-0.02 -0.05,-0.05 0.14,-0.50 -0.05,-1.35 0.27,-1.67 z m 26.62,0.05 c -0.56,0.14 -0.13,0.43 0,0 z M 9.36,22.03 c -0.63,0.31 0.58,0.27 0,0 z m -2.73,0.00 c 0.11,0.17 0.05,0.65 0,0.83 0.04,0.25 0.17,0.96 -0.05,1.11 0.02,-0.61 -0.14,-1.35 0.05,-1.95 z m 8.20,0.11 c 0.22,-0.00 0.04,0.39 0.16,0.50 -0.18,0.05 -0.07,-0.18 -0.16,-0.22 -0.34,0.12 -0.16,0.62 -0.11,0.94 -0.57,-0.20 -0.07,-0.94 0.11,-1.22 z m 15.51,0 c 0.09,0.04 0.00,0.10 0,0.16 -0.09,-0.04 -0.00,-0.10 0,-0.16 z m 5.96,0.05 c -0.33,0.17 0.31,0.27 0,0 z m -27.90,0.05 c 0.23,1.61 0.63,1.04 0.16,0 l -0.10,0 -0.06,0 z m 27.46,0.05 c 0.01,0.53 0.68,0.16 0,0 z m -13.45,0.05 c 0.29,0.11 -0.11,0.37 -0.16,0.50 -0.18,-0.18 0.21,-0.26 0.16,-0.50 z m 7.75,0 c -0.14,0.47 -0.88,0.82 -1.56,0.94 -0.05,-0.07 -0.05,-0.20 -0.16,-0.22 0.62,-0.19 1.34,-0.29 1.73,-0.72 z M 9.25,22.54 c -0.26,0.49 0.59,0.13 0,0 z m 1.22,0.05 c -0.23,0.34 0.45,0.26 0,0 z m 12.56,0 c 0.57,0.00 1.48,0.15 1.45,0.94 -0.53,-0.26 -0.80,-0.79 -1.45,-0.94 z m -3.00,0.21 c 0.13,-7.2e-4 0.18,0.07 0.16,0.22 -0.14,-0.00 -0.21,-0.08 -0.22,-0.22 0.02,-0.00 0.04,-0.00 0.06,-0.00 z m 7.83,0.00 c 0.02,-0.00 0.05,-4.05e-4 0.08,0.00 0.05,0.16 -0.12,0.09 -0.22,0.11 0.01,-0.07 0.05,-0.10 0.13,-0.11 z m -11.25,0.00 c -0.47,1.05 2.03,1.40 1.36,0.95 -0.67,0.20 -1.14,-0.42 -1.36,-0.95 z m 13.52,0.00 c -0.14,0.17 -0.34,0.29 -0.55,0.39 0.00,-0.08 0.33,-0.33 0.55,-0.39 z m -15.40,0.05 0.11,0 0,0.11 -0.11,0 0,-0.11 z m -4.17,0.04 c -0.02,5.2e-5 -0.04,0.00 -0.06,0.01 -0.01,0.71 0.37,-0.01 0.06,-0.01 z m 9.15,0.00 c 0.03,-0.00 0.06,3.06e-4 0.09,0.00 -0.08,0.16 -0.35,0.13 -0.39,0.33 -0.11,-0.13 0.07,-0.33 0.29,-0.34 z m 7.78,0.07 c 0.04,-0.00 0.09,0.00 0.12,0.04 -0.00,0.12 -0.23,0.02 -0.33,0.05 0.04,-0.04 0.13,-0.09 0.21,-0.09 z m -7.69,0.09 c 0.03,0.13 -0.16,0.49 -0.39,0.55 -7.82e-4,-0.31 0.30,-0.33 0.39,-0.55 z m 11.27,0 c -0.00,0.31 -0.31,0.79 -0.72,0.89 0.07,-0.23 0.61,-0.49 0.72,-0.89 z m -16.80,0.05 c 0.18,0.11 0.18,0.41 0.55,0.33 -0.55,1.26 0.33,2.32 0.72,3.18 -0.38,0.20 -0.68,0.50 -0.72,1.06 -0.12,-0.05 -0.11,-0.25 -0.11,-0.44 -0.09,-0.10 -0.16,0.06 -0.27,-0.05 -0.11,0.06 0.17,0.19 0.16,0.33 0.00,0.41 -0.13,0.68 -0.22,1.00 0.18,0.29 0.35,0.61 0.33,1.11 -0.22,0.08 -0.48,0.14 -0.61,0.33 -0.72,-0.16 -1.75,0.06 -2.06,-0.61 -0.19,0.15 -0.46,0.23 -0.78,0.27 -0.12,-0.15 0.25,-0.29 0,-0.44 -0.22,-0.03 -0.22,0.14 -0.44,0.11 -0.10,-0.17 -0.22,-0.32 -0.27,-0.55 0.04,-0.04 0.15,-0.03 0.16,-0.11 0.40,0.12 0.55,0.58 1.28,0.44 0.41,-0.07 0.59,-0.43 0.78,-0.72 0.08,-0.21 -0.16,-0.38 -0.05,-0.44 0.65,0.49 0.07,1.27 -0.55,1.28 0.33,0.58 0.96,-0.03 1.33,-0.22 0.01,-0.14 -0.11,-0.14 -0.22,-0.16 0.02,-0.37 -0.14,-0.54 -0.39,-0.94 -0.23,-0.38 -0.48,-0.81 -0.94,-1.00 -0.07,-0.57 -0.36,-0.93 -0.39,-1.56 0.23,-0.01 0.28,0.16 0.44,0.22 -0.02,1.36 0.60,2.07 1.89,2.12 0.18,-0.08 0.14,-0.12 0.11,-0.33 0.38,-0.06 0.84,-0.56 0.39,-0.83 -0.37,0.04 -0.17,0.34 -0.27,0.61 -0.23,-0.04 0.09,-0.45 -0.33,-0.39 -0.02,0.20 -0.09,0.20 -0.16,0.44 -0.66,0.02 -0.79,-0.76 -0.72,-1.28 0.50,0.53 1.65,0.12 1.73,-0.55 0.02,-0.20 -0.06,-0.87 -0.50,-0.50 -0.05,0.21 0.29,0.04 0.33,0.16 0.04,0.76 -0.87,1.14 -1.45,0.78 0.18,-0.27 0.64,0.08 0.78,-0.22 -0.19,-0.34 -0.61,-2.79e-4 -1.00,-0.05 -0.04,-0.12 -0.14,-0.19 -0.11,-0.39 0.55,0.07 1.29,-0.00 1.22,-0.72 0.19,-0.34 0.45,-0.62 0.39,-1.22 z m 12.67,0 c 0.27,0.03 -0.18,0.14 -0.05,0.39 -0.37,0.15 -1.16,0.41 -1.39,-0.05 0.50,0.10 1.13,-0.07 1.45,-0.33 z m 1.33,0.10 c 0.10,-0.00 0.17,0.02 0.23,0.06 0.00,0.09 -0.36,0.11 -0.27,-0.05 0.01,-0.00 0.03,-0.00 0.04,-0.00 z m -8.97,0.06 c 0.13,0.11 -0.13,0.30 -0.11,0.50 -0.15,-0.13 0.04,-0.39 0.11,-0.50 z m -8.70,0.05 c -0.28,0.31 0.51,0.20 0,0 z m -0.63,0.05 c 0.03,0.00 0.05,0.02 0.06,0.05 0.02,0.95 0.32,1.65 0.44,2.51 -0.65,-0.38 -0.85,-1.74 -0.55,-2.56 0.01,-0.00 0.03,-0.00 0.04,-0.00 z m -1.10,0.10 c -0.40,0.56 0.77,0.40 0,0 z m 15.18,0.00 c 0.19,0.01 0.10,0.30 0.16,0.44 0.20,-0.01 0.02,-0.42 0.27,-0.39 -0.09,0.46 -0.20,0.90 -0.61,1.06 -0.17,-0.39 0.24,-0.64 0.16,-1.11 z m 10.83,0 c 0.12,1.52 -0.89,2.37 -1.61,3.23 -0.27,-0.04 -0.18,0.24 -0.55,0.22 0.95,-0.92 1.90,-1.85 2.17,-3.46 z M 30.30,23.65 c 0.14,-0.00 0.06,0.04 0.05,0.11 -0.49,0.42 -1.54,0.50 -1.95,-0.05 0.61,0.15 1.42,0.36 1.89,-0.05 z m -19.54,0.04 c -0.44,0.32 0.35,0.33 0,0 z m 8.54,0.06 c 0.10,-0.02 0.08,0.25 -0.05,0.16 l 0,-0.11 c 0.04,0.01 0.05,-0.02 0.05,-0.05 z m -8.20,0.11 c 0.23,0.14 0.28,0.45 0.33,0.78 -0.16,-0.20 -0.24,-0.49 -0.33,-0.78 z m -1.86,0.05 c -0.61,0.26 0.49,0.37 0,0 z m 10.18,0.05 c 0.29,0.22 0.73,0.30 0.66,0.89 -0.31,-0.20 -0.97,-0.41 -0.66,-0.89 z m 10.77,0 c 0.05,0.29 -0.60,0.46 -1.00,0.33 0.16,-0.14 0.83,-0.02 1.00,-0.33 z m -19.42,0.05 c -0.28,0.43 0.57,0.11 0,0 z m -2.28,0.05 c -0.20,0.39 0.34,0.15 0,0 z m -1.63,0.05 c 0.16,0.01 0.03,0.36 -0.09,0.33 -0.00,-0.13 0.09,-0.16 0.05,-0.33 0.01,-0.00 0.02,-0.00 0.03,-0.00 z m 12.24,0.00 c 0.16,0.08 0.08,0.39 0.33,0.39 -0.13,0.26 0.01,0.52 0.27,0.55 -0.03,-0.20 -0.26,-0.22 -0.27,-0.44 0.16,0.13 0.38,0.20 0.50,0.39 -0.01,0.17 -0.15,0.21 -0.22,0.33 -0.33,-0.27 -0.57,-0.65 -0.61,-1.22 z m 3.29,0.05 c 0.07,0.07 0.24,0.05 0.39,0.05 0.03,0.27 -0.41,0.14 -0.39,-0.05 z m 8.70,0.11 c 0.26,0.40 0.56,0.81 0.33,1.45 -0.13,-0.07 -0.06,-0.35 -0.11,-0.55 -0.05,-0.23 -0.27,-0.51 -0.50,-0.66 0.04,0.30 0.54,0.59 0.44,1.22 -0.60,-0.12 -1.13,-0.32 -1.28,-0.89 0.37,0.00 1.09,0.26 1.00,0.72 0.32,-0.49 -0.46,-1.01 -1.06,-0.78 -0.05,-0.07 -0.05,-0.20 -0.16,-0.22 0.24,-0.41 0.80,-0.17 1.33,-0.27 z m -2.17,0.05 c 0.05,-0.00 0.11,0.00 0.16,0.00 -0.00,0.14 -0.18,0.11 -0.33,0.11 0.00,-0.08 0.07,-0.11 0.16,-0.11 z m -17.36,0.03 c 0.14,-0.00 0.41,0.27 0.28,0.41 -0.23,-0.00 -0.20,-0.27 -0.33,-0.39 0.01,-0.01 0.03,-0.02 0.05,-0.02 z m 7.42,0.07 c 0.26,0.53 0.66,1.55 0.05,2.00 -0.05,-0.26 0.17,-0.43 0.16,-0.72 -0.01,-0.41 -0.51,-0.84 -0.22,-1.28 z m 4.35,0.05 c 0.01,0.14 -0.07,0.18 -0.22,0.16 0.04,-0.08 0.08,-0.17 0.22,-0.16 z m -11.27,0.22 c 0.21,0.13 0.46,0.24 0.44,0.61 -0.17,-0.01 -0.25,-0.12 -0.39,-0.16 0.03,-0.20 -0.09,-0.23 -0.05,-0.44 z m 17.64,0 c 0.25,0.10 0.06,0.33 0.11,0.66 0.09,0.42 0.62,0.42 0.83,0.72 -0.53,0.01 -0.80,-0.23 -0.89,-0.66 -0.26,0.23 0.23,0.55 0.33,0.78 0.55,0.07 0.85,-0.11 1.17,-0.27 -0.14,0.19 -0.23,0.50 -0.44,0.61 -0.05,0.02 -0.09,-0.10 -0.11,-0.11 -0.05,-0.00 -0.31,0.16 -0.33,0.16 -0.00,2.22e-4 0.00,-0.10 0,-0.11 0.01,0.00 -0.39,0.09 -0.33,0.11 -0.71,-0.17 -0.97,-1.34 -0.33,-1.89 z m -17.84,0.07 c 0.05,0.00 0.12,0.12 0.20,0.15 -0.06,0.16 -0.21,-0.03 -0.27,-0.05 0.02,-0.07 0.04,-0.09 0.07,-0.09 z m -0.23,0.04 c 0.22,0.07 0.34,0.25 0.39,0.50 -0.25,-0.03 -0.34,-0.25 -0.39,-0.50 z m 17.41,0.16 c -0.52,0.82 0.09,1.49 0.55,1.95 -0.74,0.06 -1.19,-1.42 -0.55,-1.95 z m 6.36,0 0.16,0 c 0,0.87 -0.46,1.28 -0.83,1.78 -0.19,-0.22 0.15,-0.51 0.27,-0.78 0.16,-0.33 0.26,-0.62 0.39,-1.00 z M 18.80,25.11 c 0.12,0.03 0.18,0.26 0.11,0.33 -0.12,-0.03 -0.18,-0.26 -0.11,-0.33 z m 15.96,0 c 0.01,0.36 -0.39,1.09 -0.66,1.17 -0.01,-0.41 0.51,-0.74 0.66,-1.17 z m -23.34,0.16 c 0.03,0.00 0.05,0.02 0.06,0.05 -0.05,0.65 0.24,0.94 0.27,1.50 -0.33,-0.29 -0.50,-0.98 -0.39,-1.56 0.01,-0.00 0.03,-0.00 0.04,-0.00 z m 18.49,0.00 c 0.23,0.09 0.39,0.27 0.55,0.44 0.15,0.08 0.47,0.01 0.50,0.22 -0.61,0.03 -0.95,-0.19 -1.06,-0.66 z m -17.76,0.10 c 0.10,-0.00 0.17,0.02 0.23,0.06 0.00,0.09 -0.36,0.11 -0.27,-0.05 0.01,-0.00 0.03,-0.00 0.04,-0.00 z m 3.02,0.06 c 0.19,0.17 0.30,0.43 0.50,0.61 -0.15,0.00 -0.49,-0.28 -0.50,-0.61 z m 11.10,0.10 c -0.10,0.01 -0.03,0.18 -0.16,0.17 -0.68,-0.16 -0.88,0.19 -1.28,0.44 -0.08,-0.06 -0.21,-0.17 -0.33,-0.05 -0.26,0.59 0.26,0.79 0.27,1.28 0.23,0.17 0.52,0.03 0.83,0 l 0,0.22 c 0.32,0.04 0.31,-0.24 0.55,-0.27 0.59,0.07 1.35,-0.10 1.50,-0.78 0.06,0.06 0.15,0.10 0.11,0.27 0.20,0.05 0.10,-0.18 0.22,-0.22 0.29,0.05 0.37,-0.10 0.44,-0.27 -0.16,-0.02 -0.17,-0.19 -0.39,-0.16 -0.00,0.08 0.01,0.20 -0.05,0.22 -0.24,0.02 -0.39,-0.02 -0.27,-0.22 0.14,-0.01 0.04,0.21 0.22,0.16 -0.08,-0.17 -0.01,-0.24 0,-0.44 -0.32,-0.04 -0.34,0.20 -0.61,0.22 0.01,-0.17 0.27,-0.09 0.22,-0.33 -0.26,-0.05 -0.35,0.35 -0.55,0.16 0.06,-0.10 0.29,-0.03 0.22,-0.27 -0.25,0.11 -0.81,0.33 -0.89,-0.11 -0.02,-0.00 -0.04,-0.00 -0.05,-0.00 z m -13.89,0.04 c 0.10,0 0.20,0.00 0.26,0.01 -0.00,0.20 -0.13,0.27 -0.16,0.44 0.14,-0.00 0.21,-0.08 0.22,-0.22 0.12,-0.12 -0.01,0.27 -0.05,0.33 0.14,0.67 0.37,1.26 1.22,1.22 -0.26,0.34 -0.69,-0.02 -0.83,-0.11 -0.10,-0.06 -0.23,-0.02 -0.27,-0.05 -0.43,-0.32 -0.66,-1.01 -0.66,-1.61 0.08,-0.01 0.18,-0.01 0.28,-0.01 z m 6.57,0.01 c 0.27,0.08 -0.00,0.49 0,0.66 -0.16,-0.16 0.02,-0.45 0,-0.66 z m -0.22,0.05 c 0.13,0.03 0.03,0.33 0,0.44 -0.04,0.13 -0.21,0.41 -0.27,0.50 -0.21,0.27 -0.63,0.53 -1.06,0.50 0.05,-0.22 0.36,-0.19 0.55,-0.27 0.36,-0.28 0.70,-0.60 0.78,-1.17 z m 10.16,0.05 c 0.19,0.10 0.18,0.40 0.27,0.61 -0.27,-0.02 -0.25,-0.33 -0.27,-0.61 z m -3.40,0.11 c 0.43,0.01 0.95,-0.05 1.11,0.22 -0.52,-0.11 -0.81,-0.05 -1.28,0.05 -0.16,0.13 -0.19,0.39 -0.39,0.50 -0.25,-0.34 0.39,-0.51 0.55,-0.78 z m 6.25,0.16 c 0.20,0.04 -0.32,0.52 -0.61,0.50 0.12,-0.24 0.43,-0.30 0.61,-0.50 z m -22.06,0.05 c -1.34,0.76 0.95,2.88 0.57,1.56 C 9.17,28.07 9.53,26.44 9.68,26.05 z m 22.17,0.11 c 0.06,0.00 0.04,0.10 0.05,0.16 -0.18,0.24 -0.54,0.32 -0.94,0.50 -0.50,0.22 -0.75,0.60 -1.22,0.22 0.11,-0.17 0.39,-0.00 0.61,-0.05 0.28,-0.06 0.45,-0.27 0.61,-0.39 0.52,0.08 0.64,-0.24 0.89,-0.44 z m -5.99,0.06 c 0.09,-2.69e-4 0.17,0.02 0.24,0.10 -0.03,0.36 0.22,0.44 0.22,0.78 -0.26,-0.02 -0.51,-0.19 -0.72,-0.11 -0.17,0.06 0.08,0.21 -0.05,0.27 -0.18,-0.21 -0.37,-0.26 -0.33,-0.55 0.02,-0.21 0.36,-0.49 0.64,-0.49 z m 0.41,0.10 0.16,0 c 0.24,5.03e-4 0.22,0.26 0.39,0.33 0.26,-0.05 0.29,-0.36 0.61,-0.22 -0.05,0.37 -0.39,0.45 -0.72,0.55 -0.18,-0.18 -0.43,-0.30 -0.44,-0.66 z m 7.59,0 c 0.13,-0.00 -0.05,0.33 -0.16,0.44 -0.12,0.11 -0.39,0.17 -0.50,0.22 0.21,-0.23 0.53,-0.36 0.66,-0.66 z m 0.50,0 c -0.50,0.65 -1.32,1.54 -2.51,1.39 -0.15,-0.01 -0.36,-0.01 -0.44,-0.22 0.44,-0.12 0.73,0.15 1.11,0.11 0.78,-0.07 1.21,-0.99 1.84,-1.28 z m -12.94,0.04 c -0.05,6.8e-4 -0.11,0.00 -0.16,0.00 -0.45,0.02 -1.07,0.29 -1.33,0.44 -0.26,0.15 -0.60,0.48 -0.55,0.72 0.87,-0.43 1.92,-0.69 3.12,-0.78 -0.08,-0.33 -0.63,-0.40 -1.05,-0.39 z m 10.88,0.11 c -0.03,0.16 -0.12,0.28 -0.33,0.27 0.01,-0.18 0.18,-0.22 0.33,-0.27 z m -13.23,0.05 c 0.07,0.01 0.05,0.11 0,0.11 -0.05,0.14 -0.17,0.23 -0.27,0.33 -0.07,0.09 0.02,0.35 -0.16,0.33 0.00,-0.40 0.24,-0.56 0.44,-0.78 z m 15.24,0 c 0.34,0.24 -0.19,0.43 -0.33,0.66 -0.14,-0.25 0.23,-0.47 0.33,-0.66 z m -9.49,0.11 0.11,0 0,0.22 -0.11,0 0,-0.22 z m 6.65,0.16 c 0.04,-0.00 0.10,-4.89e-4 0.15,0.00 -0.01,0.18 -0.32,0.08 -0.50,0.11 0.07,-0.08 0.19,-0.10 0.34,-0.11 z m -2.46,0.11 c 0.44,0.34 1.17,0.27 1.67,0.44 -0.04,0.20 -0.22,0.04 -0.33,0 -0.50,0.29 -1.21,0.09 -1.33,-0.44 z m 2.04,0.11 c 0.32,-0.01 0.74,0.12 0.97,0.16 -0.33,0.15 -1.10,0.19 -1.39,0.05 0.06,-0.15 0.22,-0.21 0.42,-0.22 z m -12.53,0.05 c -0.22,0.63 -1.12,0.98 -1.95,0.66 0.45,0.48 1.70,0.22 1.89,-0.44 0.08,0.08 0.08,0.24 0.11,0.39 -0.38,0.69 -1.63,0.62 -2.23,0.16 0.28,0.69 1.71,1.18 2.28,0.44 0.11,0.90 -1.55,0.75 -1.78,0.11 -0.04,0.01 -0.05,0.05 -0.11,0.05 0.07,0.24 0.40,0.22 0.44,0.50 -0.71,0.13 -1.22,-0.94 -0.94,-1.61 0.37,0.18 1.05,0.51 1.56,0.22 0.07,-0.01 0.04,-0.13 0.05,-0.22 0.25,-0.05 0.45,-0.17 0.66,-0.27 z m 14.62,0.05 c -0.16,0.34 -0.69,0.33 -1.11,0.27 0.27,-0.31 0.71,-0.11 1.11,-0.27 z m 0.89,0.16 c 0.09,0.07 -0.13,0.30 -0.16,0.44 -0.27,-0.12 0.08,-0.33 0.16,-0.44 z m -17.27,0.09 c 0.23,-0.02 0.60,0.27 0.91,0.07 -0.25,0.26 -0.73,0.00 -1.06,0 0.03,-0.04 0.08,-0.07 0.14,-0.07 z m 12.43,0.08 c 0.08,0.00 0.21,0.12 0.31,0.10 -0.08,0.15 -0.33,0.00 -0.39,-0.05 0.01,-0.03 0.04,-0.04 0.07,-0.04 z m -14.80,0.21 c -0.23,0.69 -1.64,0.55 -0.31,0.65 0.25,-0.08 0.47,-0.38 0.31,-0.65 z m 19.31,0 c 0.11,0.13 0.00,0.42 -0.16,0.44 -0.09,-0.12 -0.04,-0.45 0.16,-0.44 z m -18.98,0.16 c 0.29,0.27 -0.07,0.73 0.05,1.00 -0.33,-0.17 -0.18,-0.72 -0.05,-1.00 z m 3.85,0 c 0.21,0.06 0.24,0.31 0.61,0.22 0.00,0.18 -0.48,0.26 -0.44,0 -0.34,0.49 -1.30,0.66 -1.78,0.16 0.59,0.23 1.36,0.04 1.61,-0.39 z m 3.68,0 c 0.52,0.18 -0.01,0.66 -0.22,0.78 -0.34,-0.05 -0.84,-0.38 -0.55,-0.72 0.22,0.09 0.41,0.21 0.61,0.33 0.15,-0.02 0.10,-0.26 0.16,-0.39 z m 10.71,0.05 0.27,0 c -0.34,0.54 -0.29,1.49 -0.78,1.89 -0.19,-0.10 0.04,-0.32 0.11,-0.50 0.14,-0.37 0.20,-0.94 0.39,-1.39 z m 0.33,0.11 c 0.13,0.02 0.11,0.31 0.11,0.50 -0.00,0.30 -0.01,0.73 -0.27,0.89 0.11,-0.47 -0.06,-0.97 0.16,-1.39 z m -0.73,0.22 c 0.03,0.00 0.05,0.02 0.06,0.05 -0.05,0.79 -0.26,1.62 -1.00,1.56 0.04,-0.30 0.41,-0.28 0.61,-0.44 0.03,-0.44 0.26,-0.70 0.27,-1.17 0.01,-0.00 0.03,-0.00 0.04,-0.00 z m -13.38,0.00 c 0.26,-6.69e-4 0.33,0.18 0.39,0.39 -0.21,0.02 -0.23,0.24 -0.27,0.44 -0.21,-0.18 0.08,-0.57 -0.11,-0.83 z m -0.33,0.16 c 0.44,0.12 0.07,0.73 0,1.00 -0.37,-0.09 -0.33,0.22 -0.61,0.22 0.18,-0.42 0.55,-0.67 0.61,-1.22 z m 0.83,0.27 c 0.33,0.30 0.47,0.79 0.55,1.33 -0.28,-0.10 -0.12,0.05 -0.33,0.11 -0.07,-0.32 0.01,-0.62 -0.05,-1.06 -0.04,0.02 -0.09,0.04 -0.11,0.11 -0.12,-0.05 -0.02,-0.35 -0.05,-0.50 z m 13.78,0.05 0.16,0 c 0.02,0.17 -0.07,0.21 -0.11,0.33 -0.12,-0.00 -0.02,-0.23 -0.05,-0.33 z m -20.32,0.05 c -0.09,0.27 -0.37,0.54 -0.66,0.44 0.29,-0.07 0.40,-0.33 0.66,-0.44 z m 1.77,0.06 c 0.07,-0.01 0.16,0.18 0.17,0.26 -0.14,-0.00 -0.07,-0.21 -0.22,-0.22 0.01,-0.02 0.03,-0.04 0.04,-0.04 z m 4.52,0.04 c 0.11,0.24 0.01,0.76 -0.39,0.66 0.21,0.33 0.38,-0.02 0.66,-0.05 0.02,0.17 -0.10,0.19 -0.05,0.39 -0.35,0.21 -0.75,0.40 -1.22,0.50 0.15,-0.22 0.31,-0.43 0.55,-0.55 0.04,-0.17 -0.14,-0.11 -0.16,-0.22 0.15,-0.29 0.54,-0.34 0.61,-0.72 z m 14.54,0.05 c 0.14,-0.00 0.06,0.21 0.19,0.22 -0.00,0.83 -0.16,1.50 -0.72,1.78 0.23,-0.39 0.37,-0.82 0.16,-1.28 -0.27,0.24 -0.05,0.64 -0.33,0.89 -0.13,-0.57 0.38,-1.03 0.55,-1.61 l 0.11,0 c 0.01,-0.00 0.02,-0.00 0.03,-0.00 z m -19.12,0.17 c 0.15,-0.00 0.16,0.13 0.16,0.27 -0.21,0.04 -0.26,-0.18 -0.16,-0.27 z m 0,0.33 c 0.63,0.36 0.95,1.05 1.95,1.06 -0.50,0.25 -1.21,-0.02 -1.56,-0.33 -0.20,-0.18 -0.33,-0.49 -0.39,-0.72 z m 18.08,0 c -0.01,0.48 -0.48,1.00 -1.00,1.17 0.19,-0.52 0.72,-0.72 1.00,-1.17 z m -20.96,0.16 c 0.14,0.00 0.26,0.07 0.36,0.28 -0.19,0.10 -0.28,-0.03 -0.39,-0.16 -0.13,0.47 0.31,0.60 0.72,0.55 0.28,-0.03 0.45,-0.40 0.66,-0.22 -0.08,0.45 -0.90,0.17 -1.11,0.50 -0.61,0.02 -0.98,-0.20 -0.94,-0.83 0.28,-0.02 0.51,-0.12 0.69,-0.11 z m 6.55,0.00 c 0.06,0 0.13,0.01 0.16,0.05 0.03,0.12 -0.38,0.20 -0.33,0 0.03,-0.03 0.10,-0.05 0.16,-0.05 z m -7.62,0.00 c 0.08,-1.44e-4 0.17,0.03 0.25,0.05 -0.06,0.77 0.33,1.07 1.11,1.00 -0.46,0.29 -1.14,-0.05 -1.39,-0.33 -0.05,-0.20 0.20,-0.08 0.16,-0.27 0.09,-0.27 -0.39,-0.27 -0.27,-0.39 0.03,-0.04 0.08,-0.05 0.13,-0.05 z m 7.17,0 c 0.19,0.09 -0.13,0.12 -0.16,0.16 -0.16,-0.06 0.18,-0.06 0.16,-0.16 z m -2.67,0.04 c 0.28,-0.02 0.57,0.32 0.72,0.56 0.34,0.08 0.70,0.14 1.17,0.11 -0.12,0.19 -0.46,0.12 -0.61,0.11 -0.56,-0.05 -1.04,-0.47 -1.33,-0.78 0.01,-0.00 0.03,-0.00 0.05,-0.01 z m 2.78,0.06 c 0.22,0.10 -0.14,0.40 -0.39,0.39 0.04,-0.21 0.25,-0.26 0.39,-0.39 z m 14.96,0 c 0.11,0.37 -0.20,0.79 -0.50,0.94 -0.05,-0.31 0.36,-0.63 0.50,-0.94 z m -14.01,0.05 c -0.01,0.12 0.04,0.17 0.16,0.16 l 0,-0.16 -0.16,0 z m 12.53,0.10 c 0.16,-0.00 0.13,0.17 0.13,0.33 -0.27,0.05 -0.23,-0.18 -0.16,-0.33 0.01,-0.00 0.02,-0.00 0.03,-0.00 z m -13.09,0.00 c -0.13,0.38 -0.36,0.67 -0.72,0.83 0.15,-0.13 0.45,-0.62 0.72,-0.83 z m -1.03,0.04 c 0.04,-0.00 0.07,0.01 0.08,0.07 -0.47,0.16 -1.09,0.32 -1.50,0 0.14,-0.05 0.60,0.09 1.00,0.05 0.15,-0.01 0.32,-0.12 0.41,-0.12 z m -5.07,0.06 c 0.13,-0.00 0.29,0.02 0.41,0.00 -0.04,0.18 -0.44,0.22 -0.61,0.11 0.01,-0.08 0.09,-0.11 0.19,-0.11 z m 1.02,0.05 c 0.10,-0.00 0.17,0.02 0.23,0.06 -0.20,0.51 -0.80,0.32 -1.22,0.55 -0.03,-0.33 0.93,-0.14 0.94,-0.61 0.01,-0.00 0.03,-0.00 0.04,-0.00 z m 4.19,0.00 c 0.04,0.19 -0.06,0.23 -0.11,0.33 -0.12,-0.04 -0.19,-0.14 -0.39,-0.11 0.10,-0.14 0.29,-0.18 0.50,-0.22 z m 0.44,0 c 0.10,0.32 -0.29,0.63 -0.72,0.61 0.21,-0.23 0.43,-0.45 0.72,-0.61 z m 1.50,0.05 c 0.01,-5.73e-4 0.03,-4.3e-4 0.05,0.00 0.05,0.35 -0.25,0.34 -0.39,0.50 -0.12,-0.19 0.06,-0.49 0.33,-0.50 z m 5.88,0.05 c -0.31,0.00 -0.52,0.17 -0.69,0.23 -0.27,0.09 -0.70,0.02 -0.78,0.33 -0.00,0.16 0.28,0.05 0.27,0.22 -0.08,0.14 -0.26,0.18 -0.22,0.44 0.20,0.08 0.58,0.08 0.72,-0.05 0.04,-0.28 -0.04,-0.43 -0.16,-0.55 0.29,-0.01 0.49,-0.43 0.78,-0.27 -0.13,0.08 -0.36,0.07 -0.39,0.27 l 0,0.16 c 0.36,0.05 1.15,0.09 1.17,-0.50 -0.17,-0.07 -0.15,0.01 -0.39,0 0.01,-0.16 -0.10,-0.19 -0.16,-0.27 -0.04,-0.00 -0.09,-0.00 -0.14,-0.00 z m -11.47,0.00 0.11,0 0,0.11 -0.11,0 0,-0.11 z m 0.91,0.05 c 0.15,0.01 0.23,0.20 0.36,0.28 -0.04,0.65 0.40,0.82 0.72,1.11 0.28,0.03 0.40,-0.11 0.61,0 0.04,0.45 -0.57,0.94 -0.83,0.55 -0.26,-0.03 -0.08,0.35 -0.33,0.33 0.13,0.48 0.78,0.40 1.22,0.44 0.06,0.31 -0.12,0.35 -0.27,0.44 -0.47,-0.13 -0.90,-0.31 -1.22,-0.61 0.01,-0.33 -0.13,-0.49 -0.16,-0.78 -0.16,0.00 -0.07,0.26 -0.16,0.33 -0.70,-0.31 -0.22,-1.33 -0.44,-2.00 0.22,-0.04 0.25,0.11 0.33,0.22 -0.18,0.85 0.06,1.56 1.00,1.45 0.12,0.01 0.06,-0.16 0.16,-0.16 0.01,-0.23 -0.16,-0.28 -0.22,-0.44 -0.41,0.62 -1.25,-0.18 -0.72,-0.72 -0.06,-0.14 -0.26,-0.14 -0.22,-0.39 0.07,-0.04 0.13,-0.06 0.18,-0.05 z m 5.05,0.00 c -0.00,0.32 -0.33,0.33 -0.50,0.50 -0.04,-0.15 0.21,-0.48 0.50,-0.50 z m -4.74,0.05 c 0.31,0.26 0.77,0.38 1.22,0.50 l -0.33,0 c -0.38,-0.08 -0.75,-0.18 -0.89,-0.50 z m 3.79,0 c 0.06,0.02 0.11,0.07 0.11,0.16 -0.14,0.15 -0.27,0.32 -0.55,0.33 -0.14,-0.26 0.29,-0.35 0.44,-0.50 z m 12.75,0.05 c 0.06,-5.65e-4 0.07,0.05 0.08,0.11 -0.04,-0.01 -0.05,0.02 -0.05,0.05 -0.06,-0.00 -0.04,-0.10 -0.05,-0.16 0.01,-0.00 0.02,-0.00 0.03,-0.00 z m -11.58,0.00 c 0.37,0.20 0.21,0.93 0.55,1.17 -0.16,0.14 -0.35,-0.16 -0.61,-0.11 -0.12,0.08 -0.08,0.13 -0.05,0.27 -0.38,-0.28 -1.27,0.03 -1.39,-0.61 0.29,0.33 0.35,-0.23 0.72,-0.16 l 0,0.22 c 0.28,0.06 0.65,-0.22 0.78,0.05 0.10,-0.07 0.03,-0.34 0.11,-0.44 -0.23,-0.01 -0.23,0.21 -0.44,0.22 0.08,-0.22 0.21,-0.41 0.33,-0.61 z m -5.97,0.06 c 0.03,0 0.07,0.01 0.11,0.04 3.35e-4,0.72 -0.23,1.82 0.50,2.06 0.05,0.14 0.03,0.37 0.16,0.44 -0.57,-0.12 -1.09,-0.88 -1.06,-1.89 0.07,-0.11 0.23,-0.13 0.33,-0.22 -0.02,-0.12 -0.30,-0.28 -0.16,-0.39 0.04,-0.03 0.07,-0.04 0.11,-0.04 z m 2.90,0.10 c 0.08,0.21 -0.24,0.01 -0.22,0.16 -0.13,-0.04 0.12,-0.16 0.22,-0.16 z m 1.28,0 c 0.06,0.10 0.00,0.22 0.05,0.44 -0.13,0.01 -0.20,0.08 -0.39,0.05 0.07,-0.19 0.18,-0.37 0.33,-0.50 z m 14.06,0 c -0.18,0.32 -0.76,0.34 -0.55,0.89 -0.22,0.00 -0.24,-0.20 -0.22,-0.44 0.33,-0.07 0.43,-0.38 0.78,-0.44 z M 17.29,30.74 c 0.22,0.25 0.70,0.16 0.94,0 -0.28,0.45 -0.08,0.70 0,1.22 -0.37,-0.21 -0.81,-0.42 -1.11,-0.05 0.11,0.16 0.29,-0.07 0.50,0 -0.00,0.25 -0.42,0.09 -0.39,0.39 0.38,-0.08 0.88,0.32 0.55,0.78 -0.16,-0.08 -0.23,-0.25 -0.27,-0.44 -0.08,0.03 -0.28,-0.06 -0.27,0.05 -0.05,0.16 0.12,0.09 0.22,0.11 -0.01,0.51 -0.25,0.78 -0.66,0.89 0.05,-0.28 0.48,-0.18 0.39,-0.61 -0.04,-0.12 -0.11,-0.22 -0.27,-0.22 0.19,-0.39 -0.00,-0.73 -0.11,-1.11 0.20,0.03 0.27,-0.06 0.39,-0.11 -0.08,-0.16 -0.24,0.04 -0.39,0 -0.05,-0.11 -0.18,-0.26 -0.05,-0.39 -0.32,0.11 -0.48,-0.15 -0.72,-0.27 0.34,0.01 0.96,-0.04 1.28,-0.22 z m 15.74,0 c -0.14,0.15 -0.20,0.38 -0.55,0.33 0.06,-0.23 0.29,-0.29 0.55,-0.33 z m -13.35,0.05 c 0.10,-0.00 0.17,0.02 0.23,0.06 0.00,0.09 -0.36,0.11 -0.27,-0.05 0.01,-0.00 0.03,-0.00 0.04,-0.00 z m -4.23,0.00 c 0.21,0.08 0.38,0.21 0.50,0.39 0.16,0.09 0.47,0.04 0.44,0.33 -0.59,0.03 -0.76,-0.35 -0.94,-0.72 z m 18.47,0 c 0.14,0.05 -0.04,0.24 -0.16,0.22 0.01,-0.11 0.15,-0.10 0.16,-0.22 z m -2.60,0.11 c -0.05,0.00 -0.10,0.02 -0.13,0.05 -0.03,0.19 0.19,0.20 0.27,0.11 0.02,-0.12 -0.05,-0.16 -0.14,-0.16 z M 32.20,31.02 c 0.01,-0.00 0.03,-3.63e-4 0.05,0.00 -0.02,0.10 -0.02,0.24 -0.16,0.22 -0.01,-0.12 0.01,-0.21 0.11,-0.22 z m -13.73,0.16 c -0.20,0.46 0.22,0.67 0.61,0.72 -0.26,0.50 -1.24,-0.51 -0.61,-0.72 z m 0.11,0.05 c 0.23,0.17 0.37,0.44 0.78,0.44 -0.13,0.21 -0.60,-0.06 -0.83,-0.11 -0.04,-0.17 0.05,-0.20 0.05,-0.33 z m 7.97,0.43 c -0.13,0.00 -0.25,0.07 -0.33,0.23 -0.07,-0.09 -0.31,-0.01 -0.39,-0.11 -0.32,0.47 -1.29,0.30 -1.50,0.89 0.02,0.16 0.11,0.25 0.27,0.27 0.17,0.02 0.12,-0.17 0.33,-0.11 0.22,0.42 0.70,0.59 1.17,0.78 0.15,-0.07 0.16,-0.27 0.16,-0.50 0.21,-0.00 0.37,-0.06 0.33,-0.33 -0.36,-0.07 -0.74,0.28 -1.22,0.27 0.02,-0.13 -0.10,-0.12 -0.05,-0.27 l 0.44,0 c -0.00,-0.13 0.12,-0.13 0.16,-0.22 0.56,0.01 0.63,-0.29 1.17,-0.39 l 0,-0.33 c -0.18,-0.09 -0.38,-0.18 -0.56,-0.17 z m -6.70,0.06 c 0.09,0.00 0.16,0.03 0.11,0.17 -0.10,-0.02 -0.24,-0.02 -0.22,-0.16 0.03,-0.00 0.07,-0.00 0.10,-0.00 z m 12.12,0.00 c 0.05,0.00 0.04,0.06 0.05,0.11 0.06,0.27 -0.25,0.36 -0.39,0.55 -0.17,0.24 -0.23,0.73 -0.61,0.61 0.39,-0.34 0.53,-0.95 0.94,-1.28 z m -16.13,0.05 c 0.00,0.29 -0.33,0.11 -0.50,0.11 0.11,-0.09 0.34,-0.06 0.50,-0.11 z m 16.66,0.22 c 0.06,0.00 0.07,0.05 0.13,0.05 0.00,0.10 -0.06,0.11 -0.05,0.22 0.09,0.16 0.11,-0.21 0.27,-0.16 -0.04,0.43 -0.21,0.74 -0.66,0.78 0.13,-0.43 0.23,-0.57 0.27,-0.89 0.01,-0.00 0.02,-0.00 0.02,-0.00 z M 25.89,32.08 c 0.13,-0.00 0.23,0.02 0.27,0.11 -0.24,0.23 -0.76,0.45 -1.11,0.39 0.02,-0.39 0.72,-0.03 0.78,-0.50 0.02,-0.00 0.03,-0.00 0.05,-0.00 z m -8.12,0.00 c 0.00,-6.13e-4 0.01,-3e-4 0.02,0 0.21,0.06 0.18,0.36 0.44,0.39 0.05,0.51 -0.09,0.83 -0.50,0.89 0.40,-0.35 0.23,-0.93 -0.11,-1.22 0.03,-0.02 0.07,-0.05 0.13,-0.05 z m 15.49,0.05 c 0.17,0.01 0.09,0.27 0.11,0.44 -0.26,0.03 -0.15,-0.31 -0.11,-0.44 z m -16.52,0.05 c 0.26,0.00 -0.06,0.08 0,0.22 -0.09,-0.05 -0.39,0.19 -0.55,0.22 -0.22,0.04 -0.46,-0.06 -0.11,-0.05 0.22,-0.12 0.53,-0.17 0.66,-0.39 z m 16.24,0.11 c 0.28,0.09 -0.05,0.43 -0.11,0.55 -0.22,-0.07 0.14,-0.31 0.11,-0.55 z M 16.90,32.47 c 0.00,0.40 -0.55,0.44 -0.83,0.39 0.16,-0.24 0.56,-0.25 0.83,-0.39 z m 14.01,0.89 c -0.12,0.21 -0.20,0.46 -0.44,0.55 0.12,-0.20 0.19,-0.47 0.44,-0.55 z M 14.94,33.48 c 0.49,0.14 1.01,0.31 1.56,0.11 -0.28,0.56 -1.34,0.32 -1.56,-0.11 z m 3.12,0.05 c 0.08,-0.00 0.18,0.02 0.22,0.06 -0.02,0.12 -0.27,0.02 -0.39,0.05 5.3e-4,-0.08 0.07,-0.11 0.16,-0.11 z m -1.17,0.34 0.50,0 c -0.04,0.14 -0.51,0.29 -0.50,0 z m 13.45,0.33 c -0.15,0.23 -0.26,0.51 -0.55,0.61 0.14,-0.24 0.27,-0.50 0.55,-0.61 z m 1.22,0.16 c -0.01,-2.52e-4 -0.02,0.00 -0.04,0.00 -0.13,0.16 -0.18,0.41 -0.27,0.61 0.21,-0.01 0.21,-0.23 0.44,-0.22 -0.01,-0.12 0.00,-0.21 0.05,-0.27 -0.09,-6.36e-4 -0.07,-0.11 -0.17,-0.11 z m -2.56,0.95 c -0.01,0.21 -0.28,0.15 -0.33,0.33 -0.13,-0.14 0.19,-0.29 0.33,-0.33 z m -0.50,0.33 c -0.12,0.24 -0.38,0.35 -0.66,0.44 0.20,-0.16 0.39,-0.34 0.66,-0.44 z m -0.66,0.61 c -0.14,0.39 -0.66,0.41 -1.00,0.61 -0.16,-0.12 -0.56,-0.02 -0.66,-0.22 0.63,0.12 1.06,-0.31 1.67,-0.39 z m -2.68,0.01 c 0.42,-4.41e-4 1.56,0.19 1.62,0.09 -0.16,0.23 -0.64,0.17 -1.09,0.08 1.08,0.23 -0.69,-0.09 -0.69,-0.14 0.00,-0.02 0.06,-0.03 0.16,-0.03 z m 1.35,0.64 c 0.05,1.8e-5 0.09,0.01 0.10,0.06 0.05,0.20 -0.24,0.09 -0.27,0.05 -0.01,-0.06 0.08,-0.12 0.17,-0.12 z m 1.86,0.06 c -1.00,0.34 0.79,0.51 0,0 z m -4.94,0.27 c 0.23,-0.01 0.32,0.13 0.50,0.17 l 0,0.33 c 0.21,0.08 0.01,-0.24 0.22,-0.16 0.14,0.23 -0.28,0.29 -0.39,0.44 0.13,0.18 0.31,-0.05 0.44,-0.05 -0.02,0.17 -0.16,0.24 -0.16,0.44 -0.41,-0.10 -0.26,-0.77 -0.83,-0.72 -0.00,-0.20 0.08,-0.32 0.16,-0.44 0.01,-0.00 0.03,-0.00 0.04,-0.00 z m -4.12,0.09 c -0.92,0.01 -1.31,1.50 -0.22,0.56 0.59,-0.00 2.37,0.03 0.76,-0.51 l -0.34,-0.03 c -0.06,-0.01 -0.13,-0.01 -0.19,-0.01 z m 6.42,0.07 c 0.36,0.78 -0.03,1.17 0.79,0.65 0.63,0.60 2.99,-0.53 1.16,-0.21 -0.75,0.14 -1.42,0.10 -1.95,-0.43 z m -2.52,0.38 c 0.14,-0.01 0.30,0.08 0.40,0.39 -0.17,0.20 -0.25,0.61 -0.55,0.55 -0.57,-0.10 -0.22,-0.91 0.15,-0.95 z m -0.60,0.00 0.16,0 c 0.01,0.14 -0.02,0.24 -0.16,0.22 l 0,-0.22 z m 10.49,0.22 c 0.36,0.19 0.57,0.53 1.00,0.66 0.25,-0.21 0.51,-0.02 0.72,0.11 0.02,0.09 -0.04,0.10 -0.11,0.11 0.21,0.05 0.33,0.31 0.61,0.44 -0.40,0.05 -1.00,-0.73 -1.89,-0.50 -0.14,0.03 -0.30,0.15 -0.39,0.33 -0.61,-0.22 -0.39,-0.91 0.05,-1.17 z m -4.96,0.44 c -0.71,0.14 -2.46,0.00 -0.83,0.39 -0.48,0.70 0.57,0.18 0.40,-0.02 0.19,-0.01 0.47,-0.10 0.43,-0.36 z m -5.56,0.44 c 0.30,-4.83e-4 0.56,0.10 0.59,0.44 -0.60,0.13 -1.12,0.27 -1.73,0.27 l 0,-0.44 c 0.24,-0.09 0.73,-0.27 1.13,-0.27 z m 9.92,0.05 c 0.56,0.31 0.49,1.06 -0.11,1.28 -0.20,-0.42 0.10,-0.77 0.11,-1.28 z m -3.30,0.07 c -0.66,0.70 1.10,0.47 0,0 z m 4.73,0.07 c 0.62,0.00 1.37,0.48 1.58,0.91 -0.77,-0.10 -0.48,0.85 -1.06,0.94 0.01,0.31 -0.27,0.64 -0.55,0.83 0.22,-0.33 0.11,-1.00 0.55,-1.11 -0.02,-0.24 0.34,-0.98 -0.16,-1.06 -0.54,-0.08 -0.64,-0.08 -0.89,0.50 -0.07,-0.18 -0.16,-0.35 -0.22,-0.55 0.15,-0.33 0.43,-0.46 0.76,-0.46 z M 21.63,39.45 c -0.19,0.25 0.52,0.10 0,0 z m 2.55,0.00 c -1.49,0.30 -1.46,3.35 -0.86,3.52 -0.18,-1.40 -0.06,-2.83 0.86,-3.52 z m -4.06,0.02 c -1.30,-0.00 -1.93,3.49 -0.90,1.28 -0.11,-1.07 2.09,-0.42 1.10,-1.25 -0.06,-0.01 -0.13,-0.02 -0.19,-0.02 z m 7.34,0.03 c -0.81,0.27 0.87,0.37 0,0 z m -9.83,0.01 c -1.01,0.63 1.07,0.66 0,0 z m 13.98,0.08 c 0.19,-0.00 0.36,0.02 0.41,0.17 -0.01,0.31 -0.43,0.47 -0.61,0.44 -0.04,-0.28 0.05,-0.42 0.11,-0.61 0.02,-0.00 0.05,-0.00 0.08,-0.00 z m -5.45,0.10 c -1.20,1.14 2.83,0.60 0.68,0.18 l -0.35,-0.12 -0.32,-0.06 z m 7.90,0.15 c 0.08,-0.00 0.16,0.01 0.25,0.08 -0.29,1.25 -1.13,1.95 -2.23,2.40 -0.05,-0.11 0.05,-0.51 -0.05,-0.72 0.27,-0.09 0.53,-0.21 0.66,-0.44 0.22,0.09 0.38,0.20 0.50,0.16 0.43,-0.13 0.18,-0.42 0.27,-0.83 0.04,-0.22 0.26,-0.33 0.22,-0.55 0.14,-0.03 0.25,-0.07 0.36,-0.08 z m -9.46,0.02 c -0.14,0.35 0.28,0.10 0,0 z m 8.37,0 c 0.48,0.23 0.20,0.91 -0.22,1.00 -0.20,-0.04 -0.20,-0.28 -0.22,-0.50 0.32,0.00 0.28,-0.34 0.44,-0.50 z m -15.88,0.11 c -0.51,0.69 0.89,0.36 0,0 z m 14.99,0.05 c 0.15,0.04 0.18,0.22 0.22,0.39 -0.22,0.13 -0.35,0.35 -0.66,0.39 -0.02,-0.14 -0.07,-0.25 -0.16,-0.33 0.11,-0.23 0.46,-0.24 0.61,-0.44 z m -5.67,0.00 c 1.28,0.22 -0.71,0.14 0,0 z m -4.93,0.04 c 0.19,0.37 0.54,0.61 0.50,1.22 -0.17,0.27 -0.53,0.42 -0.83,0.16 0.10,-0.47 0.19,-0.95 0.33,-1.39 z m 9.88,0.39 c 0.08,0.08 0.11,0.21 0.16,0.33 -0.19,0.25 -0.57,0.29 -0.66,0.61 -0.06,0.21 -0.02,0.64 0.11,0.89 0.17,0.31 0.54,0.25 0.61,0.61 -0.39,0.25 -1.18,0.62 -1.67,0.27 -0.08,-0.66 0.66,-0.90 0.55,-1.50 -0.03,-0.20 -0.18,-0.25 -0.33,-0.44 0.20,-0.46 0.72,-0.61 1.22,-0.78 z m -4.74,0.05 c -0.26,1.18 1.19,-0.02 0,0 z m 5.69,0.05 c 0.20,0.03 0.17,0.31 0.33,0.39 -0.20,0.20 -0.39,0.42 -0.78,0.44 -0.02,-0.17 -0.10,-0.30 -0.11,-0.50 0.25,-0.04 0.39,-0.19 0.55,-0.33 z m 0.94,0.08 c 0.03,-0.00 0.07,0.00 0.11,0.02 0.04,0.31 -0.21,0.53 -0.44,0.39 0.03,-0.17 0.17,-0.40 0.33,-0.41 z m -1.70,0.41 c 0.02,-9.66e-4 0.05,-6.3e-5 0.08,0.00 0.01,0.19 0.14,0.26 0.11,0.50 -0.28,0.05 -0.50,0.16 -0.66,0.33 -0.25,-0.32 0.03,-0.82 0.46,-0.84 z m 3.51,0.11 c 0.10,-0.00 0.10,0.10 0.25,0.05 0.01,0.09 -0.36,0.11 -0.27,-0.05 0.00,-0.00 0.01,-0.00 0.02,-0.00 z m -1.30,0.17 c 0.09,0.35 -0.22,0.77 -0.61,0.83 -0.18,0.44 -0.66,0.59 -1.22,0.66 0.00,-0.49 0.50,-0.50 0.94,-0.55 0.28,-0.32 0.56,-0.66 0.89,-0.94 z m 1.20,0.04 c 0.07,-0.00 0.18,0.07 0.25,0.06 -0.13,0.22 -0.40,0.30 -0.44,0.61 -0.16,-0.08 0.07,-0.21 0,-0.39 0.10,0.00 0.39,-0.19 0.11,-0.22 0.01,-0.04 0.04,-0.06 0.08,-0.06 z m 1.47,0.22 c -0.01,2.23e-4 -0.03,0.00 -0.05,0.00 -0.04,0.32 0.28,-0.00 0.05,-0.00 z m -4.63,0.00 c 0.57,0.46 -0.49,1.19 -0.66,0.44 0.06,-0.30 0.49,-0.24 0.66,-0.44 z m 3.58,0.02 c 0.03,0.00 0.06,0.01 0.09,0.03 -0.08,0.24 -0.25,0.41 -0.44,0.55 -0.16,-0.24 0.11,-0.60 0.34,-0.58 z m 0.79,0.13 c -1.34,0.48 0.35,1.14 0.74,0.67 -0.09,-0.65 -0.56,-0.33 -0.74,-0.67 z m -0.07,0.25 c 0.66,0.30 -0.73,0.43 0,0 z m -4.37,0.43 c 0.04,-0.00 0.09,0.00 0.12,0.04 -0.02,0.04 -0.05,0.09 -0.05,0.16 -0.17,0.04 -0.17,-0.08 -0.27,-0.11 0.04,-0.04 0.13,-0.09 0.21,-0.09 z m -4.15,0.33 c -1.03,0.64 0.93,0.39 0,0 z m -2.80,0.17 c -0.94,0.73 0.97,0.53 0,0 z" id="path5" style="fill-rule:evenodd" />
</svg>
