<?xml version="1.0" encoding="UTF-8" standalone="no"?>
<!-- Created with Inkscape (http://www.inkscape.org/) -->
<svg xmlns:dc="http://purl.org/dc/elements/1.1/" xmlns:cc="http://creativecommons.org/ns#" xmlns:rdf="http://www.w3.org/1999/02/22-rdf-syntax-ns#" xmlns:svg="http://www.w3.org/2000/svg" xmlns="http://www.w3.org/2000/svg" version="1.1" width="100%" height="100%" viewBox="0 0 48 48" id="svg2">
<defs id="defs15" />
<path d="m 35.28,6.83 c -2.62,-0.12 -4.44,2.50 -4.72,4.87 -0.10,1.99 -0.47,-1.51 -1.04,-1.83 -1.65,-1.88 -5.40,-0.67 -5.39,1.93 -0.35,1.45 1.02,3.45 0.13,4.52 -0.51,-1.75 0.05,-3.91 -1.32,-5.39 -1.85,-2.21 -5.77,0.05 -5.36,2.70 -0.54,-0.87 -3.39,-1.17 -4.16,0.52 -0.77,1.50 -1.30,3.27 -0.79,4.94 -0.75,-2.13 -2.87,0.36 -3.25,1.57 -1.07,1.51 -1.11,3.41 -0.84,5.18 0.24,1.90 0.26,3.81 0.12,5.72 -0.18,4.44 0.78,8.81 1.36,13.20 -0.83,1.71 1.11,0.85 2.19,1.11 8.16,0.06 16.33,0.02 24.50,0.03 0.62,-4.18 0.44,-8.48 1.56,-12.60 0.67,-2.68 1.25,-5.39 1.31,-8.17 0.18,-3.05 0.38,-6.10 0.93,-9.11 0.37,-2.62 -0.58,-5.21 -1.74,-7.51 C 38.05,7.33 36.66,6.74 35.28,6.83 z m 0,0.21 c 2.14,-0.29 3.63,1.57 4.11,3.44 0.91,2.11 1.26,4.47 0.75,6.74 -0.94,4.82 -0.43,9.82 -1.74,14.59 -0.98,3.70 -1.41,7.51 -1.59,11.33 -0.31,0.81 0.39,2.91 -1.01,2.57 -8.42,-0.03 -16.85,0.08 -25.27,-0.09 C 9.66,45.51 10.46,43.72 9.90,42.92 9.28,38.65 8.55,34.36 8.91,30.03 9.17,27.65 8.31,25.27 8.65,22.91 9.19,21.27 9.94,19.32 11.55,18.53 c 1.60,0.01 1.12,2.52 1.43,3.63 0.29,0.76 -0.20,3.17 0.29,3.14 0.10,-2.62 -0.30,-5.23 -0.69,-7.82 0.31,-1.65 0.69,-3.96 2.67,-4.33 2.10,-0.57 2.57,1.63 2.50,3.21 6.86e-4,0.69 0.58,3.93 0.98,1.78 -0.05,-1.73 -0.93,-3.34 -1.02,-5.03 0.17,-2.21 3.41,-3.96 5.03,-2.04 1.30,1.47 0.80,3.55 1.25,5.29 1.55,0.46 0.35,-2.37 0.36,-3.27 -0.45,-1.71 0.54,-3.79 2.46,-3.88 2.14,-0.51 3.10,1.55 3.40,3.27 0.06,1.76 0.06,3.68 0.48,5.42 1.33,-0.07 -0.02,-2.45 0.13,-3.42 -0.53,-1.64 -0.14,-3.26 0.53,-4.82 0.71,-1.47 2.13,-2.77 3.87,-2.61 z m 1.09,1.14 c -1.55,0.01 -3.49,0.06 -4.35,1.60 0.36,1.41 0.75,2.82 1.09,4.24 0.77,-0.86 1.91,-1.12 3.04,-0.90 0.95,0.10 2.22,0.66 1.84,-0.77 -0.00,-1.01 0.15,-2.06 0.04,-3.06 -0.33,-0.64 -0.89,-1.16 -1.68,-1.09 z m 0,0.21 c 1.26,-0.13 1.71,1.17 1.48,2.18 -0.03,0.84 -0.06,1.69 -0.09,2.54 -1.48,-0.18 -3.36,-0.72 -4.51,0.53 -0.32,-1.29 -0.65,-2.58 -0.98,-3.87 0.89,-1.39 2.65,-1.33 4.11,-1.38 z m -8.75,1.68 c -0.94,-0.10 -2.86,0.33 -2.15,1.59 0.21,0.41 0.16,1.54 0.54,1.50 0.50,-1.10 2.52,0.41 2.46,-0.70 -0.08,-0.78 0.43,-1.87 -0.46,-2.32 l -0.19,-0.04 -0.21,-0.01 z m -0.02,0.21 c 1.11,0.04 0.64,1.24 0.70,1.95 0.05,0.89 -1.97,-0.01 -2.33,0.56 -0.15,-0.60 -0.30,-1.21 -0.45,-1.82 0.45,-0.69 1.35,-0.65 2.08,-0.69 z m -6.46,1.30 c -0.95,-0.15 -2.86,0.33 -2.14,1.59 0.20,0.40 0.16,1.52 0.54,1.47 0.52,-1.06 2.48,0.38 2.46,-0.67 -0.08,-0.78 0.44,-1.87 -0.46,-2.32 l -0.19,-0.04 -0.21,-0.01 z m -0.02,0.21 c 1.15,0.03 0.65,1.29 0.70,2.02 -0.09,0.50 -2.11,0.26 -2.36,0.36 -0.07,-0.59 -0.47,-1.25 -0.34,-1.81 0.47,-0.62 1.30,-0.56 2.00,-0.58 z m 9.39,1.76 c 0.08,1.27 0.79,3.25 0.40,4.13 -0.29,-1.35 -0.34,-2.75 -0.40,-4.13 z m -12.76,0.85 c 0.30,1.25 1.03,3.28 0.64,4.19 -0.26,-1.38 -0.52,-2.78 -0.64,-4.19 z m -1.60,0.02 c -0.92,-0.10 -2.84,0.33 -2.14,1.59 0.20,0.41 0.20,1.53 0.54,1.50 0.53,-1.02 2.37,0.24 2.49,-0.60 -0.09,-0.78 0.40,-1.76 -0.32,-2.35 -0.16,-0.11 -0.37,-0.13 -0.56,-0.14 z m 0,0.21 c 1.11,0.05 0.63,1.24 0.68,1.95 -0.01,0.61 -2.08,0.33 -2.33,0.46 -0.08,-0.60 -0.48,-1.27 -0.36,-1.83 0.49,-0.61 1.31,-0.56 2.02,-0.58 z m -4.29,4.56 c -1.39,-0.25 -1.80,0.80 -1.25,1.82 0.04,0.61 1.42,-0.34 1.84,-2.6e-4 -0.08,-0.63 0.43,-1.75 -0.58,-1.82 z m -0.02,0.21 c 0.71,0.04 0.67,1.99 -0.28,1.37 -0.87,0.74 -1.26,-0.89 -0.63,-1.25 0.29,-0.10 0.60,-0.10 0.91,-0.12 z" />
</svg>
