<?xml version="1.0" encoding="UTF-8" standalone="no"?>
<!-- Created with Inkscape (http://www.inkscape.org/) -->
<svg
    xmlns:svg="http://www.w3.org/2000/svg"
    xmlns="http://www.w3.org/2000/svg"
    xmlns:xlink="http://www.w3.org/1999/xlink"
    version="1.0"
    width="100%"
    height="100%"
    viewBox="0 0 48 576"
    id="svg2383"
   style="display:inline">
  <defs>
        <style>
            circle { opacity:1;fill:green;stroke:limegreen;stroke-width:3 }
            #template { display:none; }
            #s          { opacity:0.5;fill:yellow;stroke:limegreen;stroke-width:3 }
        </style>
  </defs>
  <g id="template">
      <path id="s" d="M 0,-20 C 0.14,-20 4.88,-6.95 4.99,-6.87 C 5.10,-6.79 18.97,-6.31 19.02,-6.18 C 19.06,-6.04 8.12,2.49 8.08,2.62 C 8.04,2.76 11.86,16.09 11.75,16.18 C 11.64,16.26 0.14,8.5 0,8.5 C -0.14,8.5 -11.64,16.26 -11.75,16.18 C -11.86,16.09 -8.04,2.76 -8.08,2.62 C -8.12,2.49 -19.06,-6.04 -19.02,-6.18 C -18.97,-6.31 -5.10,-6.79 -4.99,-6.87 C -4.88,-6.95 -0.14,-20 0,-20 z"/>
  </g>
  <g id="layer1">
    <g transform="translate(0,0)">  <circle cx="24" cy="24" r="2"/></g>
    <g transform="translate(0,48)"> <circle cx="24" cy="24" r="5"/></g>
    <g transform="translate(0,96)"> <circle cx="24" cy="24" r="8"/></g>
    <g transform="translate(0,144)"><circle cx="24" cy="24" r="10"/></g>
    <g transform="translate(0,192)"><circle cx="24" cy="24" r="12"/></g>
    <g transform="translate(0,240)"><circle cx="24" cy="24" r="14"/></g>
    <g transform="translate(0,288)"><circle cx="24" cy="24" r="15"/></g>
    <g transform="translate(0,336)"><circle cx="24" cy="24" r="16"/></g>
    <g transform="translate(0,384)"><circle cx="24" cy="24" r="17"/></g>
    <g transform="translate(0,432)"><circle cx="24" cy="24" r="17"/></g>
    <g transform="translate(0,480)"><circle cx="24" cy="24" r="15" style="opacity:0.8;" /></g>
    <g transform="translate(0,528)"><circle cx="24" cy="24" r="13" style="opacity:0.5;" /></g>

    <g transform="translate(24,72)"> <g transform="rotate(90)"><use x="0" y="0" xlink:href="#s" transform="scale(0.2)"/></g></g>
    <g transform="translate(24,120)"><g transform="rotate(80)"><use x="0" y="0" xlink:href="#s" transform="scale(0.4)"/></g></g>
    <g transform="translate(24,168)"><g transform="rotate(70)"><use x="0" y="0" xlink:href="#s" transform="scale(0.6)"/></g></g>
    <g transform="translate(24,216)"><g transform="rotate(60)"><use x="0" y="0" xlink:href="#s" transform="scale(0.7)"/></g></g>
    <g transform="translate(24,264)"><g transform="rotate(50)"><use x="0" y="0" xlink:href="#s" transform="scale(0.8)"/></g></g>
    <g transform="translate(24,312)"><g transform="rotate(40)"><use x="0" y="0" xlink:href="#s" transform="scale(0.85)"/></g></g>
    <g transform="translate(24,360)"><g transform="rotate(30)"><use x="0" y="0" xlink:href="#s" transform="scale(0.9)"/></g></g>
    <g transform="translate(24,408)"><g transform="rotate(20)"><use x="0" y="0" xlink:href="#s" transform="scale(0.95)"/></g></g>
    <g transform="translate(24,456)"><g transform="rotate(10)"><use x="0" y="0" xlink:href="#s" transform="scale(1)"/></g></g>
    <g transform="translate(24,504)"><g transform="rotate(0)"> <use x="0" y="0" xlink:href="#s" transform="scale(1)"/></g></g>
  </g>
</svg>
