<?xml version="1.0" encoding="UTF-8" standalone="no"?>
<!DOCTYPE svg PUBLIC "-//W3C//DTD SVG 1.0//EN" "http://www.w3.org/TR/2001/REC-SVG-20010904/DTD/svg10.dtd">
<svg xmlns:svg="http://www.w3.org/2000/svg" xmlns="http://www.w3.org/2000/svg" version="1.0" width="100%" height="100%" viewBox="0 0 48 48" id="_down" style="display:inline">
<defs id="defs2385"/>
<g id="down">
<path d="M 24.11,44.77 C 25.41,44.76 26.66,44.25 27.58,43.33 L 41.33,29.55 C 42.71,28.31 43.28,26.41 42.83,24.61 C 42.39,22.82 41.00,21.44 39.21,20.99 C 37.42,20.54 35.51,21.12 34.27,22.49 L 29.05,27.71 L 29.05,8.40 C 29.08,6.59 28.14,4.93 26.58,4.02 C 25.03,3.11 23.08,3.11 21.52,4.02 C 19.96,4.93 19.03,6.59 19.05,8.40 L 19.05,27.71 L 13.83,22.49 C 12.60,21.12 10.69,20.54 8.90,20.99 C 7.10,21.44 5.72,22.82 5.27,24.61 C 4.82,26.41 5.40,28.31 6.77,29.55 L 20.49,43.30 C 21.45,44.26 22.76,44.79 24.11,44.77 z" id="r2393" style="fill:#000000;fill-opacity:1;fill-rule:evenodd;stroke:#ffffff;stroke-width:2;stroke-linecap:round;stroke-linejoin:miter;marker:none;stroke-miterlimit:4;stroke-dasharray:none;stroke-dashoffset:0;stroke-opacity:0.5;visibility:visible;display:inline;overflow:visible;enable-background:accumulate"/>
</g>
</svg>
