<?xml version="1.0" encoding="UTF-8" standalone="no"?>
<!-- Created with Inkscape (http://www.inkscape.org/) -->

<svg
 xmlns:dc="http://purl.org/dc/elements/1.1/"
 xmlns:cc="http://creativecommons.org/ns#"
 xmlns:rdf="http://www.w3.org/1999/02/22-rdf-syntax-ns#"
 xmlns:svg="http://www.w3.org/2000/svg"
 xmlns="http://www.w3.org/2000/svg"
 xmlns:xlink="http://www.w3.org/1999/xlink"
 version="1.1"
 width="100%"
 height="100%"
 viewBox="0 0 48 576"
 id="svg2985">
<defs
 id="defs2987" />
<metadata
 id="metadata2990">
<rdf:RDF>
<cc:Work
 rdf:about="">
<dc:format>image/svg+xml</dc:format>
<dc:type
 rdf:resource="http://purl.org/dc/dcmitype/StillImage" />
<dc:title></dc:title>
</cc:Work>
</rdf:RDF>
</metadata>
<g style="display:none;">
<g id="circle">
<path
 d="m -0.5,-23 c -3.825547,0.08189 -7.4118819,1.104999 -10.5625,2.84375 l 2,3.4375 c 2.5534284,-1.384611 5.4656105,-2.169346 8.5625,-2.25 L -0.5,-23 z"
 id="path6066"
 style="font-size:medium;font-style:normal;font-variant:normal;font-weight:normal;font-stretch:normal;text-indent:0;text-align:start;text-decoration:none;line-height:normal;letter-spacing:normal;word-spacing:normal;text-transform:none;direction:ltr;block-progression:tb;writing-mode:lr-tb;text-anchor:start;baseline-shift:baseline;color:#000000;fill:#aa0000;fill-opacity:1;stroke:none;stroke-width:4;marker:none;visibility:visible;display:inline;overflow:visible;enable-background:accumulate;font-family:Sans;-inkscape-font-specification:Sans" />
<path
 d="m 0.5,-23 0,4.03125 c 3.0968895,0.08065 6.0090716,0.865389 8.5625,2.25 l 2,-3.4375 C 7.9118819,-21.895001 4.325547,-22.918111 0.5,-23 z"
 id="path6064"
 style="font-size:medium;font-style:normal;font-variant:normal;font-weight:normal;font-stretch:normal;text-indent:0;text-align:start;text-decoration:none;line-height:normal;letter-spacing:normal;word-spacing:normal;text-transform:none;direction:ltr;block-progression:tb;writing-mode:lr-tb;text-anchor:start;baseline-shift:baseline;color:#000000;fill:#aa0000;fill-opacity:0.1372549;stroke:none;stroke-width:4;marker:none;visibility:visible;display:inline;overflow:visible;enable-background:accumulate;font-family:Sans;-inkscape-font-specification:Sans" />
<path
 d="m -11.9375,-19.65625 c -3.144142,1.917727 -5.801023,4.574608 -7.71875,7.71875 l 3.46875,2 c 1.561947,-2.542888 3.707112,-4.688053 6.25,-6.25 l -2,-3.46875 z"
 id="path6062"
 style="font-size:medium;font-style:normal;font-variant:normal;font-weight:normal;font-stretch:normal;text-indent:0;text-align:start;text-decoration:none;line-height:normal;letter-spacing:normal;word-spacing:normal;text-transform:none;direction:ltr;block-progression:tb;writing-mode:lr-tb;text-anchor:start;baseline-shift:baseline;color:#000000;fill:#aa0000;fill-opacity:0.92156863;stroke:none;stroke-width:4;marker:none;visibility:visible;display:inline;overflow:visible;enable-background:accumulate;font-family:Sans;-inkscape-font-specification:Sans" />
<path
 d="m 11.9375,-19.65625 -2,3.46875 c 2.542888,1.561947 4.688053,3.707112 6.25,6.25 l 3.46875,-2 c -1.917727,-3.144142 -4.574608,-5.801023 -7.71875,-7.71875 z"
 id="path6060"
 style="font-size:medium;font-style:normal;font-variant:normal;font-weight:normal;font-stretch:normal;text-indent:0;text-align:start;text-decoration:none;line-height:normal;letter-spacing:normal;word-spacing:normal;text-transform:none;direction:ltr;block-progression:tb;writing-mode:lr-tb;text-anchor:start;baseline-shift:baseline;color:#000000;fill:#aa0000;fill-opacity:0.21568627;stroke:none;stroke-width:4;marker:none;visibility:visible;display:inline;overflow:visible;enable-background:accumulate;font-family:Sans;-inkscape-font-specification:Sans" />
<path
 d="M -20.15625,-11.0625 C -21.895001,-7.9118819 -22.918111,-4.325547 -23,-0.5 l 4.03125,0 c 0.08065,-3.0968895 0.865389,-6.0090716 2.25,-8.5625 l -3.4375,-2 z"
 id="path6058"
 style="font-size:medium;font-style:normal;font-variant:normal;font-weight:normal;font-stretch:normal;text-indent:0;text-align:start;text-decoration:none;line-height:normal;letter-spacing:normal;word-spacing:normal;text-transform:none;direction:ltr;block-progression:tb;writing-mode:lr-tb;text-anchor:start;baseline-shift:baseline;color:#000000;fill:#aa0000;fill-opacity:0.84313725;stroke:none;stroke-width:4;marker:none;visibility:visible;display:inline;overflow:visible;enable-background:accumulate;font-family:Sans;-inkscape-font-specification:Sans" />
<path
 d="m 20.15625,-11.0625 -3.4375,2 c 1.384611,2.5534284 2.169346,5.4656105 2.25,8.5625 L 23,-0.5 c -0.08189,-3.825547 -1.104999,-7.4118819 -2.84375,-10.5625 z"
 id="path6056"
 style="font-size:medium;font-style:normal;font-variant:normal;font-weight:normal;font-stretch:normal;text-indent:0;text-align:start;text-decoration:none;line-height:normal;letter-spacing:normal;word-spacing:normal;text-transform:none;direction:ltr;block-progression:tb;writing-mode:lr-tb;text-anchor:start;baseline-shift:baseline;color:#000000;fill:#aa0000;fill-opacity:0.29411765;stroke:none;stroke-width:4;marker:none;visibility:visible;display:inline;overflow:visible;enable-background:accumulate;font-family:Sans;-inkscape-font-specification:Sans" />
<path
 d="m -23,0.5 c 0.08189,3.825547 1.104999,7.4118819 2.84375,10.5625 l 3.4375,-2 C -18.103361,6.5090716 -18.888096,3.5968895 -18.96875,0.5 L -23,0.5 z"
 id="path6054"
 style="font-size:medium;font-style:normal;font-variant:normal;font-weight:normal;font-stretch:normal;text-indent:0;text-align:start;text-decoration:none;line-height:normal;letter-spacing:normal;word-spacing:normal;text-transform:none;direction:ltr;block-progression:tb;writing-mode:lr-tb;text-anchor:start;baseline-shift:baseline;color:#000000;fill:#aa0000;fill-opacity:0.76470588;stroke:none;stroke-width:4;marker:none;visibility:visible;display:inline;overflow:visible;enable-background:accumulate;font-family:Sans;-inkscape-font-specification:Sans" />
<path
 d="m 18.96875,0.5 c -0.08065,3.0968895 -0.865389,6.0090716 -2.25,8.5625 l 3.4375,2 C 21.895001,7.9118819 22.918111,4.325547 23,0.5 l -4.03125,0 z"
 id="path6052"
 style="font-size:medium;font-style:normal;font-variant:normal;font-weight:normal;font-stretch:normal;text-indent:0;text-align:start;text-decoration:none;line-height:normal;letter-spacing:normal;word-spacing:normal;text-transform:none;direction:ltr;block-progression:tb;writing-mode:lr-tb;text-anchor:start;baseline-shift:baseline;color:#000000;fill:#aa0000;fill-opacity:0.37254902;stroke:none;stroke-width:4;marker:none;visibility:visible;display:inline;overflow:visible;enable-background:accumulate;font-family:Sans;-inkscape-font-specification:Sans" />
<path
 d="m -16.1875,9.9375 -3.46875,2 c 1.917727,3.144142 4.574608,5.801023 7.71875,7.71875 l 2,-3.46875 c -2.542888,-1.561947 -4.688053,-3.707112 -6.25,-6.25 z"
 id="path6050"
 style="font-size:medium;font-style:normal;font-variant:normal;font-weight:normal;font-stretch:normal;text-indent:0;text-align:start;text-decoration:none;line-height:normal;letter-spacing:normal;word-spacing:normal;text-transform:none;direction:ltr;block-progression:tb;writing-mode:lr-tb;text-anchor:start;baseline-shift:baseline;color:#000000;fill:#aa0000;fill-opacity:0.68627451;stroke:none;stroke-width:4;marker:none;visibility:visible;display:inline;overflow:visible;enable-background:accumulate;font-family:Sans;-inkscape-font-specification:Sans" />
<path
 d="m 16.1875,9.9375 c -1.561947,2.542888 -3.707112,4.688053 -6.25,6.25 l 2,3.46875 c 3.144142,-1.917727 5.801023,-4.574608 7.71875,-7.71875 l -3.46875,-2 z"
 id="path6048"
 style="font-size:medium;font-style:normal;font-variant:normal;font-weight:normal;font-stretch:normal;text-indent:0;text-align:start;text-decoration:none;line-height:normal;letter-spacing:normal;word-spacing:normal;text-transform:none;direction:ltr;block-progression:tb;writing-mode:lr-tb;text-anchor:start;baseline-shift:baseline;color:#000000;fill:#aa0000;fill-opacity:0.45098039;stroke:none;stroke-width:4;marker:none;visibility:visible;display:inline;overflow:visible;enable-background:accumulate;font-family:Sans;-inkscape-font-specification:Sans" />
<path
 d="m -9.0625,16.71875 -2,3.4375 C -7.9118819,21.895001 -4.325547,22.918111 -0.5,23 l 0,-4.03125 c -3.0968895,-0.08065 -6.0090716,-0.865389 -8.5625,-2.25 z"
 id="path6046"
 style="font-size:medium;font-style:normal;font-variant:normal;font-weight:normal;font-stretch:normal;text-indent:0;text-align:start;text-decoration:none;line-height:normal;letter-spacing:normal;word-spacing:normal;text-transform:none;direction:ltr;block-progression:tb;writing-mode:lr-tb;text-anchor:start;baseline-shift:baseline;color:#000000;fill:#aa0000;fill-opacity:0.60784314;stroke:none;stroke-width:4;marker:none;visibility:visible;display:inline;overflow:visible;enable-background:accumulate;font-family:Sans;-inkscape-font-specification:Sans" />
<path
 d="M 9.0625,16.71875 C 6.5090716,18.103361 3.5968895,18.888096 0.5,18.96875 L 0.5,23 c 3.825547,-0.08189 7.4118819,-1.104999 10.5625,-2.84375 l -2,-3.4375 z"
 id="path6000"
 style="font-size:medium;font-style:normal;font-variant:normal;font-weight:normal;font-stretch:normal;text-indent:0;text-align:start;text-decoration:none;line-height:normal;letter-spacing:normal;word-spacing:normal;text-transform:none;direction:ltr;block-progression:tb;writing-mode:lr-tb;text-anchor:start;baseline-shift:baseline;color:#000000;fill:#aa0000;fill-opacity:0.52941176;stroke:none;stroke-width:4;marker:none;visibility:visible;display:inline;overflow:visible;enable-background:accumulate;font-family:Sans;-inkscape-font-specification:Sans" />
</g>
</g>
<g transform="translate(24,24)"><use x="0" y="0" width="48" height="576" xlink:href="#circle" transform="rotate(0)"/></g>
<g transform="translate(24,72)"><use x="0" y="0" width="48" height="576" xlink:href="#circle" transform="rotate(30)"/></g>
<g transform="translate(24,120)"><use x="0" y="0" width="48" height="576" xlink:href="#circle" transform="rotate(60)"/></g>
<g transform="translate(24,168)"><use x="0" y="0" width="48" height="576" xlink:href="#circle" transform="rotate(90)"/></g>
<g transform="translate(24,216)"><use x="0" y="0" width="48" height="576" xlink:href="#circle" transform="rotate(120)"/></g>
<g transform="translate(24,264)"><use x="0" y="0" width="48" height="576" xlink:href="#circle" transform="rotate(150)"/></g>
<g transform="translate(24,312)"><use x="0" y="0" width="48" height="576" xlink:href="#circle" transform="rotate(180)"/></g>
<g transform="translate(24,360)"><use x="0" y="0" width="48" height="576" xlink:href="#circle" transform="rotate(210)"/></g>
<g transform="translate(24,408)"><use x="0" y="0" width="48" height="576" xlink:href="#circle" transform="rotate(240)"/></g>
<g transform="translate(24,456)"><use x="0" y="0" width="48" height="576" xlink:href="#circle" transform="rotate(270)"/></g>
<g transform="translate(24,504)"><use x="0" y="0" width="48" height="576" xlink:href="#circle" transform="rotate(300)"/></g>
<g transform="translate(24,552)"><use x="0" y="0" width="48" height="576" xlink:href="#circle" transform="rotate(330)"/></g>
</svg>
