<?xml version="1.0" encoding="UTF-8" standalone="no"?>
<!-- Created with Inkscape (http://www.inkscape.org/) -->
<svg
   xmlns:svg="http://www.w3.org/2000/svg"
   xmlns="http://www.w3.org/2000/svg"
   version="1.0"
   width="100%"
   height="100%"
   viewBox="0 0 48 48"
   id="svg2383">
  <defs
     id="defs2385" />
  <path
     d="M 46,24 C 46,36.150264 36.150264,46 24,46 C 11.849736,46 2,36.150264 2,24 C 2,11.849736 11.849736,2 24,2 C 36.150264,2 46,11.849736 46,24 L 46,24 z"
     id="path3223"
     style="fill:#ff9955;fill-opacity:1;fill-rule:evenodd;stroke:none;stroke-width:2;stroke-linecap:round;stroke-linejoin:round;marker:none;marker-start:none;marker-mid:none;marker-end:none;stroke-miterlimit:4;stroke-dasharray:none;stroke-dashoffset:0;stroke-opacity:1;visibility:visible;display:inline;overflow:visible;enable-background:accumulate" />
  <path
     d="M 13.09375,10.09375 C 13.09375,10.09375 13.09375,24.716604 13.09375,28.21875 C 13.09375,38.115743 24,40.90625 24,40.90625 C 24,40.90625 34.906252,38.115743 34.90625,28.21875 C 34.90625,24.716604 34.906252,10.09375 34.90625,10.09375 L 34.71875,10.09375 L 13.28125,10.09375 L 13.09375,10.09375 z"
     id="path2401"
     style="opacity:1;fill:none;fill-opacity:1;fill-rule:evenodd;stroke:#4b2e1c;stroke-width:2;stroke-linecap:round;stroke-linejoin:round;marker:none;marker-start:none;marker-mid:none;marker-end:none;stroke-miterlimit:4;stroke-dasharray:none;stroke-dashoffset:0;stroke-opacity:1;visibility:visible;display:inline;overflow:visible;enable-background:accumulate" />
  <path
     d="M 24,10.197425 L 24,40.583691"
     id="path2410"
     style="opacity:1;fill:none;fill-opacity:1;fill-rule:evenodd;stroke:#4b2e1c;stroke-width:1.20000005;stroke-linecap:round;stroke-linejoin:round;marker:none;marker-start:none;marker-mid:none;marker-end:none;stroke-miterlimit:4;stroke-dasharray:none;stroke-dashoffset:0;stroke-opacity:1;visibility:visible;display:inline;overflow:visible;enable-background:accumulate" />
</svg>
