<?xml version="1.0" encoding="UTF-8" standalone="no"?>
<!-- Created with Inkscape (http://www.inkscape.org/) -->
<svg
   xmlns:svg="http://www.w3.org/2000/svg"
   xmlns="http://www.w3.org/2000/svg"
   version="1.0"
   width="100%"
   height="100%"
   viewBox="0 0 48 48"
   id="_stabilo01"
   style="display:inline">
  <defs
     id="defs2385">
    <filter
       id="filter4022">
      <feBlend
         mode="screen"
         in2="BackgroundImage"
         id="feBlend4024" />
    </filter>
    <clipPath
       id="clipPath3129">
      <rect
         width="48"
         height="48"
         ry="0"
         x="0"
         y="0"
         id="rect3131"
         style="opacity:1;fill:#000000;fill-opacity:1;fill-rule:evenodd;stroke:#d7d7d7;stroke-width:0.91611463;stroke-linecap:round;stroke-linejoin:miter;marker:none;marker-start:none;marker-mid:none;marker-end:none;stroke-miterlimit:4;stroke-dasharray:none;stroke-dashoffset:0;stroke-opacity:0.86818183;visibility:visible;display:inline;overflow:visible;enable-background:accumulate" />
    </clipPath>
  </defs>
  <path
     d="M 0,0 L 0,48 C 26.496,48 48,26.496 48,0 L 0,0 z"
     id="path2387"
     style="opacity:1;fill:#ffffff;fill-opacity:1;fill-rule:evenodd;stroke:none;stroke-width:4;stroke-linecap:round;stroke-linejoin:miter;marker:none;marker-start:none;marker-mid:none;marker-end:none;stroke-miterlimit:4;stroke-dasharray:none;stroke-dashoffset:0;stroke-opacity:1;visibility:visible;display:inline;overflow:visible;enable-background:accumulate" />
  <path
     d="M 0,0 L 0,42 C 23.184,42 42,23.184 42,0 L 0,0 z"
     id="path3159"
     style="opacity:1;fill:#c03c3c;fill-opacity:1;fill-rule:evenodd;stroke:none;stroke-width:4;stroke-linecap:round;stroke-linejoin:miter;marker:none;marker-start:none;marker-mid:none;marker-end:none;stroke-miterlimit:4;stroke-dasharray:none;stroke-dashoffset:0;stroke-opacity:1;visibility:visible;display:inline;overflow:visible;enable-background:accumulate" />
  <path
     d="M 0,0 L 0,12.65625 C 5.1846082,15.654033 12.126697,17.5 19.78125,17.5 C 27.737609,17.5 34.946161,15.522623 40.1875,12.3125 C 41.378142,8.4226026 42,4.2781561 42,0 L 0,0 z"
     id="path3169"
     style="opacity:1;fill:#fbf0f0;fill-opacity:0.23181817;fill-rule:evenodd;stroke:none;stroke-width:1;stroke-linecap:round;stroke-linejoin:miter;marker:none;marker-start:none;marker-mid:none;marker-end:none;stroke-miterlimit:4;stroke-dasharray:none;stroke-dashoffset:0;stroke-opacity:1;visibility:visible;display:inline;overflow:visible;enable-background:accumulate" />
  <path
     d="M 15.918962,31.382073 C 16.324892,31.382073 16.730823,31.214547 17.046546,30.898823 L 17.181856,30.75707 L 17.181856,24.436156 L 26.086548,24.436156 C 26.982172,24.436156 27.697382,23.714502 27.697382,22.825322 L 27.697382,8.8303935 C 27.697382,7.941213 26.975729,7.2195593 26.086548,7.2195593 L 23.064623,7.2195593 C 22.168999,7.2195593 21.453789,7.941213 21.453789,8.8303935 L 21.453789,14.126817 L 17.181856,14.126817 L 17.181856,7.8059029 L 17.046546,7.6641495 C 16.415099,7.0327025 15.397052,7.0327025 14.765605,7.6641495 L 4.2758512,18.134572 C 3.9601277,18.450296 3.811931,18.869113 3.811931,19.281486 C 3.811931,19.687416 3.9601277,20.112677 4.2758512,20.4284 L 14.765605,30.898823 C 15.081328,31.214547 15.506589,31.382073 15.918962,31.382073 z"
     id="r3165"
     style="opacity:1;fill:#a43333;fill-opacity:1;fill-rule:evenodd;stroke:#ffffff;stroke-width:1;stroke-linecap:round;stroke-linejoin:miter;marker:none;marker-start:none;marker-mid:none;marker-end:none;stroke-miterlimit:4;stroke-dasharray:none;stroke-dashoffset:0;stroke-opacity:1;visibility:visible;display:inline;overflow:visible;enable-background:accumulate" />
</svg>
