<?xml version="1.0" encoding="UTF-8" standalone="no"?>
<svg
   xmlns:dc="http://purl.org/dc/elements/1.1/"
   xmlns:cc="http://creativecommons.org/ns#"
   xmlns:rdf="http://www.w3.org/1999/02/22-rdf-syntax-ns#"
   xmlns:svg="http://www.w3.org/2000/svg"
   xmlns="http://www.w3.org/2000/svg"
   xmlns:sodipodi="http://sodipodi.sourceforge.net/DTD/sodipodi-0.dtd"
   xmlns:inkscape="http://www.inkscape.org/namespaces/inkscape"
   viewBox="0 0 48 48"
   version="1.1"
   id="svg3346"
   height="100%"
   width="100%"
   inkscape:version="0.91 r13725"
   sodipodi:docname="heart02.svg">
  <sodipodi:namedview
     pagecolor="#ffffff"
     bordercolor="#666666"
     borderopacity="1"
     objecttolerance="10"
     gridtolerance="10"
     guidetolerance="10"
     inkscape:pageopacity="0"
     inkscape:pageshadow="2"
     inkscape:window-width="702"
     inkscape:window-height="480"
     id="namedview13"
     showgrid="false"
     inkscape:zoom="6.3930077"
     inkscape:cx="28.284047"
     inkscape:cy="10.824789"
     inkscape:window-x="1535"
     inkscape:window-y="370"
     inkscape:window-maximized="0"
     inkscape:current-layer="svg3346" />
  <defs
     id="defs3348" />
  <metadata
     id="metadata3351">
    <rdf:RDF>
      <cc:Work
         rdf:about="">
        <dc:format>image/svg+xml</dc:format>
        <dc:type
           rdf:resource="http://purl.org/dc/dcmitype/StillImage" />
        <dc:title></dc:title>
      </cc:Work>
    </rdf:RDF>
  </metadata>
  <path
     inkscape:connector-curvature="0"
     id="path3363"
     d="m 6.2703079,10.018819 c -4.9079798,4.90798 -4.9079797,12.810887 0,17.718867 1.400198,1.400198 2.606191,2.586427 3.8472241,3.847224 2.99e-4,3.02e-4 6.27e-4,6.22e-4 9.38e-4,9.37e-4 l 10.019795,10.019796 9.37e-4,6.69e-4 c 0.132977,0.132918 0.270837,0.258123 0.413292,0.374458 3.35e-4,2.74e-4 5.92e-4,6.56e-4 9.38e-4,6.69e-4 0.142473,0.116295 0.289416,0.223879 0.440106,0.323605 0.03102,0.02056 0.06389,0.03655 0.09523,0.05637 0.233182,0.147553 0.474924,0.274131 0.72303,0.382787 0.04329,0.01894 0.08485,0.04231 0.128518,0.06012 3.78e-4,1.54e-4 5.47e-4,6.7e-4 9.37e-4,6.7e-4 0.163392,0.06648 0.329614,0.123934 0.49743,0.173823 0.168557,0.05007 0.338626,0.09238 0.510374,0.125741 0.171367,0.03334 0.343577,0.05818 0.516847,0.0749 0.157646,0.01513 0.316094,0.02176 0.474316,0.02309 0.01544,1.34e-4 0.03079,0.002 0.04623,0.002 0.01606,0 0.03203,-0.002 0.04808,-0.002 0.157873,-0.0014 0.31609,-0.0071 0.473392,-0.02222 0.173594,-0.01667 0.346089,-0.04238 0.517772,-0.07582 0.171367,-0.03327 0.341258,-0.07486 0.50945,-0.124817 3.56e-4,-1.07e-4 5.65e-4,-6.7e-4 9.37e-4,-6.7e-4 0.167807,-0.04987 0.33405,-0.107363 0.497427,-0.173829 3.66e-4,-1.47e-4 5.64e-4,-6.69e-4 9.37e-4,-6.69e-4 0.0436,-0.01775 0.08529,-0.04117 0.12852,-0.06012 0.248105,-0.108655 0.48985,-0.235233 0.723029,-0.382786 0.03098,-0.01961 0.06364,-0.03515 0.09431,-0.0555 3.56e-4,-2.34e-4 5.68e-4,-6.69e-4 9.37e-4,-6.69e-4 0.150668,-0.09974 0.297652,-0.207283 0.440106,-0.323604 3.35e-4,-2.82e-4 5.85e-4,-6.57e-4 9.38e-4,-6.7e-4 0.142433,-0.116369 0.280336,-0.241513 0.413289,-0.374465 3.12e-4,-3.14e-4 6.13e-4,-6.16e-4 9.38e-4,-6.69e-4 l 10.019794,-10.019796 9.38e-4,-9.38e-4 c 1.460029,-1.460029 2.606265,-2.619794 3.847225,-3.847225 4.907979,-4.907979 4.907981,-12.810885 10e-7,-17.718865 C 36.797112,5.1118526 28.895567,5.1112498 23.98745,10.017299 19.079333,5.1111893 11.177788,5.1117921 6.2704318,10.019209 Z"
     style="color:#000000;clip-rule:nonzero;display:inline;overflow:visible;visibility:visible;opacity:1;isolation:auto;mix-blend-mode:normal;color-interpolation:sRGB;color-interpolation-filters:linearRGB;solid-color:#000000;solid-opacity:1;fill:#502a2a;fill-opacity:1;fill-rule:evenodd;stroke:none;stroke-width:1.5;stroke-linecap:butt;stroke-linejoin:miter;stroke-miterlimit:4;stroke-dasharray:none;stroke-dashoffset:0;stroke-opacity:1;marker:none;marker-start:none;marker-mid:none;marker-end:none;color-rendering:auto;image-rendering:auto;shape-rendering:auto;text-rendering:auto;enable-background:accumulate;filter-blend-mode:normal;filter-gaussianBlur-deviation:0" />
  <path
     style="color:#000000;clip-rule:nonzero;display:inline;overflow:visible;visibility:visible;opacity:1;isolation:auto;mix-blend-mode:normal;color-interpolation:sRGB;color-interpolation-filters:linearRGB;solid-color:#000000;solid-opacity:1;fill:none;fill-opacity:1;fill-rule:evenodd;stroke:#632727;stroke-width:1.5;stroke-linecap:butt;stroke-linejoin:miter;stroke-miterlimit:4;stroke-dasharray:none;stroke-dashoffset:0;stroke-opacity:1;marker:none;marker-start:none;marker-mid:none;marker-end:none;color-rendering:auto;image-rendering:auto;shape-rendering:auto;text-rendering:auto;enable-background:accumulate;filter-blend-mode:normal;filter-gaussianBlur-deviation:0"
     d="m 6.2703079,10.018819 c -4.9079798,4.90798 -4.9079797,12.810887 0,17.718867 1.400198,1.400198 2.606191,2.586427 3.8472241,3.847224 2.99e-4,3.02e-4 6.27e-4,6.22e-4 9.38e-4,9.37e-4 l 10.019795,10.019796 9.37e-4,6.69e-4 c 0.132977,0.132918 0.270837,0.258123 0.413292,0.374458 3.35e-4,2.74e-4 5.92e-4,6.56e-4 9.38e-4,6.69e-4 0.142473,0.116295 0.289416,0.223879 0.440106,0.323605 0.03102,0.02056 0.06389,0.03655 0.09523,0.05637 0.233182,0.147553 0.474924,0.274131 0.72303,0.382787 0.04329,0.01894 0.08485,0.04231 0.128518,0.06012 3.78e-4,1.54e-4 5.47e-4,6.7e-4 9.37e-4,6.7e-4 0.163392,0.06648 0.329614,0.123934 0.49743,0.173823 0.168557,0.05007 0.338626,0.09238 0.510374,0.125741 0.171367,0.03334 0.343577,0.05818 0.516847,0.0749 0.157646,0.01513 0.316094,0.02176 0.474316,0.02309 0.01544,1.34e-4 0.03079,0.002 0.04623,0.002 0.01606,0 0.03203,-0.002 0.04808,-0.002 0.157873,-0.0014 0.31609,-0.0071 0.473392,-0.02222 0.173594,-0.01667 0.346089,-0.04238 0.517772,-0.07582 0.171367,-0.03327 0.341258,-0.07486 0.50945,-0.124817 3.56e-4,-1.07e-4 5.65e-4,-6.7e-4 9.37e-4,-6.7e-4 0.167807,-0.04987 0.33405,-0.107363 0.497427,-0.173829 3.66e-4,-1.47e-4 5.64e-4,-6.69e-4 9.37e-4,-6.69e-4 0.0436,-0.01775 0.08529,-0.04117 0.12852,-0.06012 0.248105,-0.108655 0.48985,-0.235233 0.723029,-0.382786 0.03098,-0.01961 0.06364,-0.03515 0.09431,-0.0555 3.56e-4,-2.34e-4 5.68e-4,-6.69e-4 9.37e-4,-6.69e-4 0.150668,-0.09974 0.297652,-0.207283 0.440106,-0.323604 3.35e-4,-2.82e-4 5.85e-4,-6.57e-4 9.38e-4,-6.7e-4 0.142433,-0.116369 0.280336,-0.241513 0.413289,-0.374465 3.12e-4,-3.14e-4 6.13e-4,-6.16e-4 9.38e-4,-6.69e-4 l 10.019794,-10.019796 9.38e-4,-9.38e-4 c 1.460029,-1.460029 2.606265,-2.619794 3.847225,-3.847225 4.907979,-4.907979 4.907981,-12.810885 10e-7,-17.718865 C 36.797112,5.1118526 28.895567,5.1112498 23.98745,10.017299 19.079333,5.1111893 11.177788,5.1117921 6.2704318,10.019209 Z"
     id="rect3341"
     inkscape:connector-curvature="0" />
</svg>
