<?xml version="1.0" encoding="UTF-8" standalone="no"?>
<!-- Created with Inkscape (http://www.inkscape.org/) -->

<svg
 xmlns:dc="http://purl.org/dc/elements/1.1/"
 xmlns:cc="http://creativecommons.org/ns#"
 xmlns:rdf="http://www.w3.org/1999/02/22-rdf-syntax-ns#"
 xmlns:svg="http://www.w3.org/2000/svg"
 xmlns="http://www.w3.org/2000/svg"
 version="1.1"
 width="100%"
 height="100%"
 viewBox="0 0 48 48"
 id="svg2985">
<metadata
 id="metadata17">
<rdf:RDF>
<cc:Work
 rdf:about="">
<dc:format>image/svg+xml</dc:format>
<dc:type
 rdf:resource="http://purl.org/dc/dcmitype/StillImage" />
<dc:title></dc:title>
</cc:Work>
</rdf:RDF>
</metadata>
<defs
 id="defs2987" />
<rect
 width="47.5"
 height="47.5"
 rx="8.5500002"
 ry="8.5500002"
 x="0.25"
 y="0.25"
 id="rect3782"
 style="fill:#82e5fb;fill-opacity:0.27848098;stroke-width:0.5" />
<path
 d="m 8.81,0.25 c -4.74,0 -8.56,3.82 -8.56,8.56 l 0,17.4 C 0.55,25.88 0.89,25.63 1.28,25.43 0.37,21.62 1.02,17.54 0.9,13.62 0.55,8.89 3.54,4.13 7.81,2.4 12.91,0.63 18.42,1.17 23.75,0.9 c 4.97,-0.46 10,-0.05 14.96,-0.06 6.62,-0.21 2.75,5.85 -0.43,7.71 -3,2.56 3.14,4.09 4.15,6.71 1.67,-4.02 3.58,-2.15 3.25,1.21 0.18,5.31 -0.07,10.69 -0.93,15.9 -0.92,2.77 -7.02,6.95 -4.21,8.87 2.81,-1.87 4.96,-4.64 7.21,-7.25 l 0,-25.21 c 0,-4.71 -3.83,-8.53 -8.57,-8.53 l -30.37,0 z"
 id="path4425"
 style="fill:#ffffff;fill-opacity:0.29535864" />
<rect
 width="47.5"
 height="47.5"
 rx="8.5500002"
 ry="8.5500002"
 x="0.25"
 y="0.25"
 id="rect4401"
 style="fill:none;stroke:#000000;stroke-width:0.5" />
<path
 d="m 12.610169,10.372881 a 3.9661016,3.0508475 0 1 1 -7.9322029,0 3.9661016,3.0508475 0 1 1 7.9322029,0 z"
 transform="matrix(0.89235576,-0.45133269,0.45133269,0.89235576,-3.7511362,5.0179313)"
 id="path3784"
 style="color:#000000;fill:#dffafc;fill-opacity:0.30801685;stroke-width:2" />
<path
 d="m 38.644068,42.711864 a 3.3559322,1.8305085 0 1 1 -6.711865,0 3.3559322,1.8305085 0 1 1 6.711865,0 z"
 id="path3803"
 style="color:#000000;fill:#dffafc;fill-opacity:0.27004221;stroke-width:2" />
<path
 d="m 29.694916,42.508476 a 2.1355932,1.8305085 0 1 1 -4.271187,0 2.1355932,1.8305085 0 1 1 4.271187,0 z"
 transform="translate(0.40677966,0.40677966)"
 id="path3805"
 style="color:#000000;fill:#dffafc;fill-opacity:0.18987343;stroke-width:2" />
</svg>
