<?xml version="1.0" encoding="UTF-8" standalone="no"?>
<!-- Created with Inkscape (http://www.inkscape.org/) -->

<svg
   xmlns:dc="http://purl.org/dc/elements/1.1/"
   xmlns:cc="http://creativecommons.org/ns#"
   xmlns:rdf="http://www.w3.org/1999/02/22-rdf-syntax-ns#"
   xmlns:svg="http://www.w3.org/2000/svg"
   xmlns="http://www.w3.org/2000/svg"
   xmlns:sodipodi="http://sodipodi.sourceforge.net/DTD/sodipodi-0.dtd"
   xmlns:inkscape="http://www.inkscape.org/namespaces/inkscape"
   version="1.1"
   width="100%"
   height="100%"
   viewBox="0 0 48 48"
   id="svg2985"
   inkscape:version="0.91 r13725"
   sodipodi:docname="locked02.svg">
  <sodipodi:namedview
     pagecolor="#ffffff"
     bordercolor="#666666"
     borderopacity="1"
     objecttolerance="10"
     gridtolerance="10"
     guidetolerance="10"
     inkscape:pageopacity="0"
     inkscape:pageshadow="2"
     inkscape:window-width="671"
     inkscape:window-height="480"
     id="namedview11"
     showgrid="false"
     inkscape:zoom="7.5700932"
     inkscape:cx="30.867079"
     inkscape:cy="25.803293"
     inkscape:window-x="0"
     inkscape:window-y="0"
     inkscape:window-maximized="0"
     inkscape:current-layer="svg2985" />
  <metadata
     id="metadata17">
    <rdf:RDF>
      <cc:Work
         rdf:about="">
        <dc:format>image/svg+xml</dc:format>
        <dc:type
           rdf:resource="http://purl.org/dc/dcmitype/StillImage" />
        <dc:title></dc:title>
      </cc:Work>
    </rdf:RDF>
  </metadata>
  <defs
     id="defs2987" />
  <path
     style="fill:#272727;stroke:#3f3f3f;stroke-width:0.5;fill-opacity:1;stroke-opacity:1"
     d="M 8.8007812 0.25 C 4.0640813 0.25 0.25 4.0640813 0.25 8.8007812 L 0.25 39.199219 C 0.25 43.935919 4.0640813 47.75 8.8007812 47.75 L 39.199219 47.75 C 43.935919 47.75 47.75 43.935919 47.75 39.199219 L 47.75 8.8007812 C 47.75 4.0640813 43.935919 0.25 39.199219 0.25 L 8.8007812 0.25 z M 9.1992188 2.4648438 L 38.800781 2.4648438 C 39.386353 2.4648438 39.951306 2.5464662 40.492188 2.6855469 C 40.449046 2.7235711 40.400568 2.7517761 40.359375 2.7929688 L 37.679688 5.4726562 C 36.95957 6.1927714 36.735888 7.2197457 36.984375 8.1425781 L 34.375 10.751953 C 33.451811 10.503651 32.423303 10.729041 31.703125 11.449219 L 29.023438 14.128906 C 28.303266 14.849085 28.079823 15.87564 28.328125 16.798828 L 25.71875 19.408203 C 25.187568 19.265336 24.627231 19.298333 24.105469 19.472656 C 23.583895 19.298414 23.025323 19.265336 22.494141 19.408203 L 19.882812 16.798828 C 20.131114 15.87564 19.907671 14.849085 19.1875 14.128906 L 16.507812 11.449219 C 15.787635 10.729041 14.76108 10.503651 13.837891 10.751953 L 11.228516 8.1425781 C 11.477003 7.2197457 11.253321 6.1927714 10.533203 5.4726562 L 7.8535156 2.7929688 C 7.7967358 2.7361889 7.7303494 2.6952912 7.6699219 2.6445312 C 8.1615194 2.5311298 8.6721214 2.4648438 9.1992188 2.4648438 z M 5.9042969 3.4121094 C 6.2404999 3.4121095 6.5762059 3.5430027 6.8398438 3.8066406 L 9.5195312 6.4863281 C 9.7069164 6.6737131 9.8248682 6.8983276 9.8789062 7.1328125 C 9.7824045 7.0861497 9.6870727 7.0381055 9.5898438 7.0019531 C 9.3248864 6.9034323 9.0538735 6.8415236 8.7636719 6.8535156 C 8.4734696 6.8655091 8.1412146 6.9701143 7.8964844 7.2148438 L 7.4492188 7.6621094 C 7.2044878 7.9068403 7.0998827 8.2390946 7.0878906 8.5292969 C 7.0758971 8.8194993 7.1378082 9.0905108 7.2363281 9.3554688 C 7.2724806 9.4526968 7.3205225 9.5480295 7.3671875 9.6445312 C 7.1327026 9.5904961 6.9080874 9.4725407 6.7207031 9.2851562 L 4.0410156 6.6054688 C 3.6803496 6.2448027 3.5723402 5.7492257 3.7050781 5.3027344 C 4.2420408 4.5452221 4.9317129 3.9072915 5.7304688 3.4277344 C 5.7880684 3.4198958 5.8463251 3.4121094 5.9042969 3.4121094 z M 42.251953 3.4179688 C 43.199021 3.9827192 43.9925 4.7713208 44.5625 5.7148438 C 44.551287 6.0359442 44.423778 6.353566 44.171875 6.6054688 L 41.492188 9.2851562 C 41.304803 9.4725406 41.080188 9.5904962 40.845703 9.6445312 C 40.892364 9.5480294 40.938459 9.4526967 40.974609 9.3554688 C 41.073131 9.0905109 41.135037 8.8194993 41.123047 8.5292969 C 41.111054 8.2390946 41.008403 7.9068403 40.763672 7.6621094 L 40.316406 7.2148438 C 40.071675 6.9701143 39.739422 6.8655086 39.449219 6.8535156 C 39.159018 6.8415236 38.888004 6.9034321 38.623047 7.0019531 C 38.525818 7.0381057 38.430484 7.0861495 38.333984 7.1328125 C 38.388022 6.8983276 38.505974 6.6737131 38.693359 6.4863281 L 41.371094 3.8066406 C 41.619901 3.5578338 41.93488 3.4319656 42.251953 3.4179688 z M 2.7441406 7.2734375 C 2.8300481 7.3933306 2.9198667 7.5116636 3.0273438 7.6191406 L 5.7070312 10.298828 C 6.4271471 11.018944 7.4541215 11.242628 8.3769531 10.994141 L 10.986328 13.603516 C 10.738026 14.526703 10.963423 15.55326 11.683594 16.273438 L 14.361328 18.953125 C 15.081506 19.673304 16.110016 19.896739 17.033203 19.648438 L 19.642578 22.259766 C 19.497359 22.79969 19.534301 23.367814 19.716797 23.896484 C 19.559699 24.402611 19.53604 24.940827 19.673828 25.453125 L 17.064453 28.064453 C 16.141265 27.816152 15.112757 28.039587 14.392578 28.759766 L 11.712891 31.439453 C 10.99271 32.159632 10.769276 33.186187 11.017578 34.109375 L 8.3769531 36.75 C 7.4537651 36.501698 6.4272102 36.725133 5.7070312 37.445312 L 3.0273438 40.125 C 2.9008163 40.251527 2.7919463 40.387855 2.6953125 40.53125 C 2.5496845 39.978685 2.4648438 39.400433 2.4648438 38.800781 L 2.4648438 9.1992188 C 2.4648438 8.5291669 2.5636942 7.8833145 2.7441406 7.2734375 z M 45.304688 7.4707031 C 45.450004 8.0227202 45.535156 8.6002292 45.535156 9.1992188 L 45.535156 38.800781 C 45.535156 39.329203 45.469425 39.841258 45.355469 40.333984 C 45.298167 40.263955 45.248846 40.190252 45.183594 40.125 L 42.505859 37.445312 C 41.78568 36.725133 40.759124 36.501698 39.835938 36.75 L 37.195312 34.109375 C 37.443615 33.186187 37.218228 32.159632 36.498047 31.439453 L 33.818359 28.759766 C 33.09818 28.039587 32.071624 27.816152 31.148438 28.064453 L 28.539062 25.453125 C 28.677008 24.940243 28.653633 24.400963 28.496094 23.894531 C 28.677525 23.366642 28.713255 22.798486 28.568359 22.259766 L 31.179688 19.648438 C 32.102874 19.896739 33.129431 19.673304 33.849609 18.953125 L 36.529297 16.273438 C 37.249468 15.55326 37.472911 14.526703 37.224609 13.603516 L 39.835938 10.994141 C 40.758769 11.242628 41.785744 11.018944 42.505859 10.298828 L 45.183594 7.6191406 C 45.229665 7.5730694 45.26258 7.5192012 45.304688 7.4707031 z M 8.8476562 8.2910156 C 8.8862233 8.2920856 8.9671906 8.3000911 9.0898438 8.3457031 C 9.1710196 8.3758871 9.2779272 8.4442305 9.3769531 8.5 L 8.734375 9.1425781 C 8.678606 9.0435523 8.6102617 8.9366441 8.5800781 8.8554688 C 8.5343467 8.7324781 8.5264008 8.6516433 8.5253906 8.6132812 L 8.8476562 8.2910156 z M 39.365234 8.2910156 L 39.6875 8.6132812 C 39.68649 8.6516432 39.678542 8.7324782 39.632812 8.8554688 C 39.602629 8.9366441 39.534286 9.0435521 39.478516 9.1425781 L 38.835938 8.5 C 38.934963 8.4442305 39.041867 8.3758871 39.123047 8.3457031 C 39.2457 8.3000911 39.326664 8.2920856 39.365234 8.2910156 z M 10.480469 9.421875 L 12.558594 11.5 L 11.734375 12.324219 L 9.65625 10.246094 L 10.480469 9.421875 z M 37.732422 9.421875 L 38.556641 10.246094 L 36.478516 12.324219 L 35.654297 11.5 L 37.732422 9.421875 z M 14.849609 12.101562 C 15.084185 12.155784 15.308761 12.273604 15.496094 12.460938 L 18.173828 15.140625 C 18.361161 15.327959 18.478984 15.552532 18.533203 15.787109 C 18.436703 15.740449 18.34137 15.694354 18.244141 15.658203 C 17.979184 15.559683 17.708171 15.497775 17.417969 15.509766 C 17.127767 15.521756 16.797463 15.626364 16.552734 15.871094 L 16.105469 16.318359 C 15.860738 16.56309 15.756133 16.893392 15.744141 17.183594 C 15.732151 17.473797 15.794057 17.744809 15.892578 18.009766 C 15.928728 18.106996 15.974823 18.202326 16.021484 18.298828 C 15.786908 18.244608 15.562333 18.128739 15.375 17.941406 L 12.695312 15.261719 C 12.507981 15.074385 12.390156 14.84981 12.335938 14.615234 C 12.432437 14.661894 12.529726 14.70799 12.626953 14.744141 C 12.891911 14.842661 13.16097 14.90457 13.451172 14.892578 C 13.741375 14.880588 14.073629 14.77598 14.318359 14.53125 L 14.765625 14.083984 C 15.010355 13.839254 15.11496 13.506999 15.126953 13.216797 C 15.138943 12.926595 15.077038 12.657536 14.978516 12.392578 C 14.942366 12.295348 14.89627 12.198065 14.849609 12.101562 z M 33.363281 12.101562 C 33.31662 12.198064 33.270525 12.295348 33.234375 12.392578 C 33.135853 12.657536 33.073948 12.926595 33.085938 13.216797 C 33.097931 13.506999 33.202536 13.839254 33.447266 14.083984 L 33.894531 14.53125 C 34.139261 14.77598 34.469563 14.880588 34.759766 14.892578 C 35.049968 14.90457 35.320979 14.842661 35.585938 14.744141 C 35.683164 14.70799 35.7785 14.661894 35.875 14.615234 C 35.82078 14.84981 35.702958 15.074385 35.515625 15.261719 L 32.835938 17.941406 C 32.648604 18.128739 32.425982 18.244608 32.191406 18.298828 C 32.238067 18.202326 32.284163 18.106996 32.320312 18.009766 C 32.418834 17.744809 32.48074 17.473797 32.46875 17.183594 C 32.456758 16.893392 32.352153 16.56309 32.107422 16.318359 L 31.660156 15.871094 C 31.415427 15.626364 31.083171 15.521756 30.792969 15.509766 C 30.502767 15.497775 30.233707 15.559683 29.96875 15.658203 C 29.871521 15.694354 29.774234 15.740449 29.677734 15.787109 C 29.731953 15.552532 29.849776 15.327959 30.037109 15.140625 L 32.716797 12.460938 C 32.90413 12.273604 33.128705 12.155783 33.363281 12.101562 z M 13.482422 12.603516 C 13.538622 12.703146 13.606374 12.810967 13.636719 12.892578 C 13.682109 13.014648 13.688273 13.093893 13.689453 13.132812 L 13.367188 13.457031 C 13.328246 13.455831 13.248987 13.447764 13.126953 13.402344 C 13.045343 13.371994 12.93752 13.304245 12.837891 13.248047 L 13.482422 12.603516 z M 34.730469 12.603516 L 35.375 13.248047 C 35.275371 13.304245 35.167547 13.371994 35.085938 13.402344 C 34.963904 13.447764 34.884643 13.455831 34.845703 13.457031 L 34.523438 13.132812 C 34.524618 13.093893 34.530782 13.014648 34.576172 12.892578 C 34.606517 12.810967 34.674269 12.703146 34.730469 12.603516 z M 17.501953 16.947266 C 17.540553 16.948366 17.621543 16.95437 17.744141 17 C 17.825751 17.03035 17.933575 17.098099 18.033203 17.154297 L 17.388672 17.798828 C 17.332472 17.699198 17.264721 17.591377 17.234375 17.509766 C 17.188805 17.387199 17.180778 17.308153 17.179688 17.269531 L 17.501953 16.947266 z M 30.708984 16.947266 L 31.03125 17.269531 C 31.03016 17.308153 31.022133 17.387199 30.976562 17.509766 C 30.946216 17.591377 30.878466 17.699198 30.822266 17.798828 L 30.179688 17.154297 C 30.279315 17.098099 30.38714 17.03035 30.46875 17 C 30.591348 16.95437 30.670384 16.948366 30.708984 16.947266 z M 19.136719 18.078125 L 21.214844 20.15625 L 20.390625 20.980469 L 18.3125 18.902344 L 19.136719 18.078125 z M 29.076172 18.078125 L 29.900391 18.902344 L 27.822266 20.980469 L 26.998047 20.15625 L 29.076172 18.078125 z M 24.105469 21.083984 C 24.119532 21.096939 24.136696 21.103492 24.150391 21.117188 L 24.466797 21.433594 C 24.438408 21.575848 24.423435 21.721715 24.429688 21.873047 C 24.441679 22.16325 24.546287 22.495504 24.791016 22.740234 L 25.238281 23.1875 C 25.483011 23.43223 25.815267 23.534885 26.105469 23.546875 C 26.256801 23.553129 26.402668 23.540108 26.544922 23.511719 L 26.830078 23.796875 C 26.85431 23.821107 26.868706 23.849638 26.890625 23.875 C 26.878616 23.88797 26.872017 23.903373 26.859375 23.916016 L 26.560547 24.214844 C 26.40318 24.17993 26.24248 24.159063 26.074219 24.166016 C 25.784017 24.178006 25.451761 24.282613 25.207031 24.527344 L 24.759766 24.972656 C 24.515036 25.217386 24.412384 25.549642 24.400391 25.839844 C 24.393431 26.008291 24.41618 26.168639 24.451172 26.326172 L 24.181641 26.595703 C 24.158296 26.619048 24.129908 26.631152 24.105469 26.652344 C 24.081567 26.631518 24.05414 26.618594 24.03125 26.595703 L 23.761719 26.326172 C 23.796978 26.168635 23.81946 26.008291 23.8125 25.839844 C 23.800507 25.549642 23.697855 25.217386 23.453125 24.972656 L 23.005859 24.527344 C 22.761129 24.282613 22.426921 24.178006 22.136719 24.166016 C 21.968375 24.159059 21.809788 24.181581 21.652344 24.216797 L 21.351562 23.916016 C 21.339591 23.904044 21.333671 23.889207 21.322266 23.876953 C 21.344487 23.851126 21.358199 23.821489 21.382812 23.796875 L 21.667969 23.511719 C 21.810219 23.539861 21.956089 23.553129 22.107422 23.546875 C 22.397624 23.534885 22.729879 23.43223 22.974609 23.1875 L 23.421875 22.740234 C 23.666604 22.495504 23.769258 22.16325 23.78125 21.873047 C 23.78751 21.721528 23.772354 21.576011 23.744141 21.433594 L 24.060547 21.117188 C 24.074229 21.103506 24.091404 21.096925 24.105469 21.083984 z M 20.419922 26.732422 L 21.244141 27.556641 L 19.167969 29.634766 L 18.34375 28.810547 L 20.419922 26.732422 z M 27.791016 26.732422 L 29.869141 28.810547 L 29.044922 29.634766 L 26.966797 27.556641 L 27.791016 26.732422 z M 24.105469 28.251953 C 24.618698 28.416843 25.166458 28.444827 25.6875 28.304688 L 28.298828 30.914062 C 28.050527 31.837252 28.27397 32.865758 28.994141 33.585938 L 31.673828 36.263672 C 32.394006 36.98385 33.420561 37.209238 34.34375 36.960938 L 36.984375 39.601562 C 36.736074 40.524752 36.959515 41.551306 37.679688 42.271484 L 40.359375 44.949219 C 40.47553 45.065373 40.601896 45.162945 40.732422 45.253906 C 40.120821 45.435472 39.472987 45.535156 38.800781 45.535156 L 9.1992188 45.535156 C 8.5854872 45.535156 7.9938631 45.447237 7.4296875 45.294922 C 7.5793582 45.195692 7.721978 45.080756 7.8535156 44.949219 L 10.53125 42.271484 C 11.251422 41.551306 11.476817 40.524752 11.228516 39.601562 L 13.869141 36.960938 C 14.79233 37.209239 15.818884 36.98385 16.539062 36.263672 L 19.21875 33.585938 C 19.938921 32.865759 20.162364 31.837252 19.914062 30.914062 L 22.525391 28.304688 C 23.045848 28.44467 23.592536 28.416392 24.105469 28.251953 z M 16.052734 29.414062 C 16.006073 29.510564 15.958025 29.605895 15.921875 29.703125 C 15.823353 29.968083 15.761447 30.239095 15.773438 30.529297 C 15.785431 30.819499 15.891988 31.149802 16.136719 31.394531 L 16.583984 31.841797 C 16.828714 32.086527 17.159017 32.191135 17.449219 32.203125 C 17.739421 32.215117 18.010433 32.153208 18.275391 32.054688 C 18.372619 32.018537 18.467953 31.972441 18.564453 31.925781 C 18.510233 32.160357 18.392412 32.384933 18.205078 32.572266 L 15.525391 35.251953 C 15.3327 35.444644 15.101261 35.565328 14.859375 35.617188 C 14.901262 35.528828 14.945436 35.440512 14.978516 35.351562 C 15.077038 35.086604 15.138943 34.815592 15.126953 34.525391 C 15.11496 34.235188 15.010355 33.904886 14.765625 33.660156 L 14.318359 33.212891 C 14.073629 32.968161 13.741374 32.863552 13.451172 32.851562 C 13.16097 32.83957 12.891911 32.90148 12.626953 33 C 12.537998 33.033076 12.449688 33.075297 12.361328 33.117188 C 12.413183 32.875302 12.533872 32.643862 12.726562 32.451172 L 15.40625 29.773438 C 15.593583 29.586104 15.818158 29.468283 16.052734 29.414062 z M 32.160156 29.414062 C 32.394732 29.468283 32.619308 29.586104 32.806641 29.773438 L 35.486328 32.451172 C 35.679019 32.643862 35.799709 32.875301 35.851562 33.117188 C 35.763202 33.075297 35.674892 33.033076 35.585938 33 C 35.320979 32.90148 35.049968 32.839571 34.759766 32.851562 C 34.469564 32.863552 34.137308 32.968161 33.892578 33.212891 L 33.445312 33.660156 C 33.200584 33.904886 33.097929 34.235188 33.085938 34.525391 C 33.073948 34.815592 33.135853 35.086604 33.234375 35.351562 C 33.267455 35.440512 33.309675 35.528827 33.351562 35.617188 C 33.109676 35.565328 32.878238 35.444644 32.685547 35.251953 L 30.007812 32.572266 C 29.820479 32.384933 29.702656 32.160357 29.648438 31.925781 C 29.744937 31.972441 29.840272 32.018536 29.9375 32.054688 C 30.202458 32.153208 30.47347 32.215117 30.763672 32.203125 C 31.053874 32.191135 31.384176 32.086527 31.628906 31.841797 L 32.076172 31.394531 C 32.320903 31.149802 32.425507 30.819499 32.4375 30.529297 C 32.44949 30.239095 32.387584 29.968083 32.289062 29.703125 C 32.252913 29.605895 32.206817 29.510564 32.160156 29.414062 z M 17.419922 29.914062 L 18.064453 30.558594 C 17.964825 30.614791 17.857001 30.682541 17.775391 30.712891 C 17.652826 30.758511 17.573776 30.766478 17.535156 30.767578 L 17.212891 30.445312 C 17.213971 30.406711 17.220035 30.325725 17.265625 30.203125 C 17.295971 30.121515 17.363722 30.013693 17.419922 29.914062 z M 30.792969 29.914062 C 30.849169 30.013693 30.91692 30.121515 30.947266 30.203125 C 30.992856 30.325725 30.99892 30.406712 31 30.445312 L 30.677734 30.767578 C 30.639114 30.766478 30.560065 30.758511 30.4375 30.712891 C 30.35589 30.682541 30.248065 30.614791 30.148438 30.558594 L 30.792969 29.914062 z M 13.367188 34.289062 L 13.689453 34.611328 C 13.688363 34.649951 13.682289 34.728996 13.636719 34.851562 C 13.610596 34.92182 13.547343 35.015549 13.501953 35.099609 L 12.878906 34.474609 C 12.962961 34.42922 13.056703 34.367917 13.126953 34.341797 C 13.249552 34.296167 13.328587 34.290163 13.367188 34.289062 z M 34.84375 34.289062 C 34.88235 34.290163 34.963338 34.296167 35.085938 34.341797 C 35.156188 34.367917 35.249929 34.42922 35.333984 34.474609 L 34.708984 35.099609 C 34.663594 35.015549 34.602295 34.92182 34.576172 34.851562 C 34.530602 34.728997 34.522574 34.649951 34.521484 34.611328 L 34.84375 34.289062 z M 11.765625 35.388672 L 12.589844 36.212891 L 10.480469 38.322266 L 9.65625 37.498047 L 11.765625 35.388672 z M 36.447266 35.388672 L 38.556641 37.498047 L 37.732422 38.322266 L 35.623047 36.212891 L 36.447266 35.388672 z M 7.3652344 38.099609 C 7.3185134 38.196166 7.2724781 38.293395 7.2363281 38.390625 C 7.1378051 38.655582 7.0759006 38.924642 7.0878906 39.214844 C 7.0998836 39.505047 7.2044888 39.837302 7.4492188 40.082031 L 7.8964844 40.529297 C 8.1412154 40.774028 8.4734699 40.876682 8.7636719 40.888672 C 9.0538739 40.900664 9.3229326 40.840708 9.5878906 40.742188 C 9.6851196 40.706036 9.7823462 40.658048 9.8789062 40.611328 C 9.8246862 40.845904 9.7068652 41.070479 9.5195312 41.257812 L 6.8398438 43.9375 C 6.3125677 44.464776 5.496025 44.464776 4.96875 43.9375 L 4.0410156 43.009766 C 3.5137396 42.482488 3.5137406 41.665948 4.0410156 41.138672 L 6.71875 38.458984 C 6.906084 38.271651 7.1306574 38.153829 7.3652344 38.099609 z M 40.845703 38.099609 C 41.08028 38.153829 41.304853 38.271651 41.492188 38.458984 L 44.171875 41.138672 C 44.499893 41.46669 44.621118 41.905439 44.541016 42.318359 C 44.079018 43.073035 43.47501 43.727451 42.761719 44.246094 C 42.29368 44.42225 41.755534 44.321941 41.371094 43.9375 L 38.693359 41.257812 C 38.506025 41.070479 38.388204 40.845904 38.333984 40.611328 C 38.430544 40.658048 38.527771 40.706035 38.625 40.742188 C 38.889958 40.840708 39.159017 40.900664 39.449219 40.888672 C 39.739421 40.876682 40.069722 40.774028 40.314453 40.529297 L 40.761719 40.082031 C 41.006449 39.837302 41.111054 39.505047 41.123047 39.214844 C 41.135037 38.924642 41.075086 38.655582 40.976562 38.390625 C 40.940413 38.293395 40.892424 38.196166 40.845703 38.099609 z M 8.734375 38.601562 L 9.3769531 39.244141 C 9.2779271 39.299909 9.1710237 39.368248 9.0898438 39.398438 C 8.9668538 39.444157 8.8860263 39.452125 8.8476562 39.453125 L 8.5253906 39.130859 C 8.5264606 39.092291 8.5344681 39.011325 8.5800781 38.888672 C 8.6102611 38.807496 8.678605 38.700583 8.734375 38.601562 z M 39.478516 38.601562 C 39.534286 38.700584 39.602629 38.807496 39.632812 38.888672 C 39.678424 39.011325 39.68643 39.092291 39.6875 39.130859 L 39.365234 39.453125 C 39.326864 39.452125 39.246037 39.444156 39.123047 39.398438 C 39.041867 39.368248 38.934964 39.299909 38.835938 39.244141 L 39.478516 38.601562 z "
     id="rect4401" />
</svg>
