<?xml version="1.0" encoding="UTF-8" standalone="no"?>
<!-- Created with Inkscape (http://www.inkscape.org/) -->
<svg
   xmlns:svg="http://www.w3.org/2000/svg"
   xmlns="http://www.w3.org/2000/svg"
   version="1.0"
   width="100%"
   height="100%"
   viewBox="0 0 48 48"
   id="_board00"
   style="display:inline">
  <defs
     id="defs2385" />
  <g
     id="layer2"
     style="display:inline">
    <path
       d="M 25.050125,30.412535 C 25.146122,30.412535 28.813017,39.153992 28.89068,39.210417 C 28.968342,39.266842 38.415095,40.053009 38.44476,40.144307 C 38.474424,40.235604 31.293937,46.424288 31.264273,46.515586 C 31.234609,46.606884 33.406127,55.834218 33.328464,55.890643 C 33.250802,55.947068 25.146121,51.030428 25.050125,51.030428 C 24.954129,51.030428 16.849448,55.947068 16.771786,55.890643 C 16.694123,55.834218 18.865642,46.606883 18.835977,46.515586 C 18.806313,46.424288 11.625827,40.235604 11.655491,40.144306 C 11.685155,40.053008 21.131908,39.266842 21.209571,39.210417 C 21.287233,39.153992 24.954129,30.412535 25.050125,30.412535 z"
       transform="matrix(0.6468951,0,0,0.6468951,7.7942691,9.281151)"
       id="path3273"
       style="opacity:1;fill:#ebf83d;fill-opacity:1;fill-rule:evenodd;stroke:#aa8a1f;stroke-width:1.54584575;stroke-linecap:round;stroke-linejoin:round;marker:none;marker-start:none;marker-mid:none;marker-end:none;stroke-miterlimit:4;stroke-dasharray:none;stroke-dashoffset:0;stroke-opacity:1;visibility:visible;display:inline;overflow:visible;enable-background:accumulate" />
    <path
       d="M 25.050125,30.412535 C 25.146122,30.412535 28.813017,39.153992 28.89068,39.210417 C 28.968342,39.266842 38.415095,40.053009 38.44476,40.144307 C 38.474424,40.235604 31.293937,46.424288 31.264273,46.515586 C 31.234609,46.606884 33.406127,55.834218 33.328464,55.890643 C 33.250802,55.947068 25.146121,51.030428 25.050125,51.030428 C 24.954129,51.030428 16.849448,55.947068 16.771786,55.890643 C 16.694123,55.834218 18.865642,46.606883 18.835977,46.515586 C 18.806313,46.424288 11.625827,40.235604 11.655491,40.144306 C 11.685155,40.053008 21.131908,39.266842 21.209571,39.210417 C 21.287233,39.153992 24.954129,30.412535 25.050125,30.412535 z"
       transform="matrix(0.5798586,-0.2867704,0.2867704,0.5798586,-17.703471,19.883059)"
       id="path3277"
       style="opacity:1;fill:#ebf83d;fill-opacity:1;fill-rule:evenodd;stroke:#aa8a1f;stroke-width:1.54584575;stroke-linecap:round;stroke-linejoin:round;marker:none;marker-start:none;marker-mid:none;marker-end:none;stroke-miterlimit:4;stroke-dasharray:none;stroke-dashoffset:0;stroke-opacity:1;visibility:visible;display:inline;overflow:visible;enable-background:accumulate" />
    <path
       d="M 25.050125,30.412535 C 25.146122,30.412535 28.813017,39.153992 28.89068,39.210417 C 28.968342,39.266842 38.415095,40.053009 38.44476,40.144307 C 38.474424,40.235604 31.293937,46.424288 31.264273,46.515586 C 31.234609,46.606884 33.406127,55.834218 33.328464,55.890643 C 33.250802,55.947068 25.146121,51.030428 25.050125,51.030428 C 24.954129,51.030428 16.849448,55.947068 16.771786,55.890643 C 16.694123,55.834218 18.865642,46.606883 18.835977,46.515586 C 18.806313,46.424288 11.625827,40.235604 11.655491,40.144306 C 11.685155,40.053008 21.131908,39.266842 21.209571,39.210417 C 21.287233,39.153992 24.954129,30.412535 25.050125,30.412535 z"
       transform="matrix(-0.5798586,-0.2867704,-0.2867704,0.5798586,65.788447,19.883059)"
       id="path3279"
       style="opacity:1;fill:#ebf83d;fill-opacity:1;fill-rule:evenodd;stroke:#aa8a1f;stroke-width:1.54584575;stroke-linecap:round;stroke-linejoin:round;marker:none;marker-start:none;marker-mid:none;marker-end:none;stroke-miterlimit:4;stroke-dasharray:none;stroke-dashoffset:0;stroke-opacity:1;visibility:visible;display:inline;overflow:visible;enable-background:accumulate" />
  </g>
</svg>
