<?xml version="1.0" encoding="UTF-8" standalone="no"?>
<!-- Created with Inkscape (http://www.inkscape.org/) -->
<svg
   xmlns:svg="http://www.w3.org/2000/svg"
   xmlns="http://www.w3.org/2000/svg"
   version="1.0"
   width="100%"
   height="100%"
   viewBox="0 0 48 48"
   id="svg2">
  <defs
     id="defs2385" />
  <path
     d="M 24,0 C 10.745166,2.4320823e-15 -1.5855373e-15,10.745166 0,24 L 0,48 L 48,48 L 48,24 C 48,10.745166 37.254834,-2.3973878e-15 24,0 z"
     id="rect2386"
     style="opacity:1;fill:#ffffff;fill-opacity:1;fill-rule:nonzero;stroke:none;stroke-width:4;stroke-linecap:round;stroke-linejoin:miter;marker:none;marker-start:none;marker-mid:none;marker-end:none;stroke-miterlimit:4;stroke-dasharray:none;stroke-dashoffset:0;stroke-opacity:1;visibility:visible;display:inline;overflow:visible;enable-background:accumulate" />
  <path
     d="M 44,24 C 44,35.045695 35.045695,44 24,44 C 12.954305,44 4,35.045695 4,24 C 4,12.954305 12.954305,4 24,4 C 35.045695,4 44,12.954305 44,24 L 44,24 z"
     id="p3178"
     style="fill:#285d6e;fill-opacity:1;fill-rule:nonzero;stroke:none;marker:none;visibility:visible;display:inline;overflow:visible;enable-background:accumulate" />
  <path
     d="M 24,4 C 15.87,4 8.88,8.85 5.75,15.81 C 9.29,19.1 16.25,21.34 24.25,21.34 C 31.99,21.34 38.73,19.21 42.37,16.09 C 39.3,8.98 32.23,4 24,4 z"
     id="p3182"
     style="fill:#6fceed;fill-opacity:0.08999999;fill-rule:nonzero;stroke:none;marker:none;visibility:visible;display:inline;overflow:visible;enable-background:accumulate" />
  <path
     d="M 44,24 C 44,35.045695 35.045695,44 24,44 C 12.954305,44 4,35.045695 4,24 C 4,12.954305 12.954305,4 24,4 C 35.045695,4 44,12.954305 44,24 L 44,24 z"
     id="p3180"
     style="fill:none;fill-opacity:1;fill-rule:nonzero;stroke:#69b5cd;stroke-width:4;stroke-linecap:round;stroke-linejoin:miter;marker:none;stroke-miterlimit:4;stroke-dasharray:none;stroke-dashoffset:0;stroke-opacity:1;visibility:visible;display:inline;overflow:visible;enable-background:accumulate" />
  <path
     d="M 22.071195,13.634121 C 20.973352,13.634121 19.864997,13.966768 18.986949,14.645349 C 18.97014,14.662159 18.952905,14.678813 18.936388,14.69591 C 18.220134,15.437344 17.773476,16.435541 17.773476,17.552629 L 17.773476,30.57219 C 17.773476,31.929323 18.436481,33.107623 19.442002,33.85868 C 19.467495,33.874031 19.492087,33.894386 19.517844,33.909242 C 21.32083,34.949098 23.766996,34.764822 25.357686,33.378347 L 32.714369,26.95705 C 34.532301,25.372507 34.532301,22.828153 32.714369,21.243611 L 25.357686,14.822314 C 24.44872,14.030043 23.257444,13.634121 22.071195,13.634121 z"
     id="rect3196"
     style="opacity:1;fill:#aee2e6;fill-opacity:1;fill-rule:evenodd;stroke:none;stroke-width:5;stroke-linecap:round;stroke-linejoin:round;marker:none;marker-start:none;marker-mid:none;marker-end:none;stroke-miterlimit:4;stroke-dasharray:none;stroke-dashoffset:0;stroke-opacity:1;visibility:visible;display:inline;overflow:visible;enable-background:accumulate" />
</svg>
