<?xml version="1.0" encoding="UTF-8" standalone="no"?>
<!-- Created with Inkscape (http://www.inkscape.org/) -->
<svg
   xmlns:svg="http://www.w3.org/2000/svg"
   xmlns="http://www.w3.org/2000/svg"
   version="1.0"
   width="100%"
   height="100%"
   viewBox="0 0 48 48"
   id="_stabilo01"
   style="display:inline">
  <defs
     id="defs2385">
    <filter
       id="filter4022">
      <feBlend
         id="feBlend4024"
         in2="BackgroundImage"
         mode="screen" />
    </filter>
    <clipPath
       id="clipPath3129">
      <rect
         width="48"
         height="48"
         ry="0"
         x="0"
         y="0"
         id="rect3131"
         style="opacity:1;fill:#000000;fill-opacity:1;fill-rule:evenodd;stroke:#d7d7d7;stroke-width:0.91611463;stroke-linecap:round;stroke-linejoin:miter;marker:none;marker-start:none;marker-mid:none;marker-end:none;stroke-miterlimit:4;stroke-dasharray:none;stroke-dashoffset:0;stroke-opacity:0.86818183;visibility:visible;display:inline;overflow:visible;enable-background:accumulate" />
    </clipPath>
  </defs>
  <path
     d="M 0,0 L 0,48 C 26.496,48 48,26.496 48,0 L 0,0 z"
     id="path2387"
     style="opacity:1;fill:#ffffff;fill-opacity:1;fill-rule:evenodd;stroke:none;stroke-width:4;stroke-linecap:round;stroke-linejoin:miter;marker:none;marker-start:none;marker-mid:none;marker-end:none;stroke-miterlimit:4;stroke-dasharray:none;stroke-dashoffset:0;stroke-opacity:1;visibility:visible;display:inline;overflow:visible;enable-background:accumulate" />
  <path
     d="M 0,0 L 0,42 C 23.184,42 42,23.184 42,0 L 0,0 z"
     id="path3159"
     style="opacity:1;fill:#c03c3c;fill-opacity:1;fill-rule:evenodd;stroke:none;stroke-width:4;stroke-linecap:round;stroke-linejoin:miter;marker:none;marker-start:none;marker-mid:none;marker-end:none;stroke-miterlimit:4;stroke-dasharray:none;stroke-dashoffset:0;stroke-opacity:1;visibility:visible;display:inline;overflow:visible;enable-background:accumulate" />
  <path
     d="M 0,0 L 0,12.65625 C 5.1846082,15.654033 12.126697,17.5 19.78125,17.5 C 27.737609,17.5 34.946161,15.522623 40.1875,12.3125 C 41.378142,8.4226026 42,4.2781561 42,0 L 0,0 z"
     id="path3169"
     style="opacity:1;fill:#fbf0f0;fill-opacity:0.23181817;fill-rule:evenodd;stroke:none;stroke-width:1;stroke-linecap:round;stroke-linejoin:miter;marker:none;marker-start:none;marker-mid:none;marker-end:none;stroke-miterlimit:4;stroke-dasharray:none;stroke-dashoffset:0;stroke-opacity:1;visibility:visible;display:inline;overflow:visible;enable-background:accumulate" />
  <path
     d="M 25.147113,5.8558757 C 24.009622,4.7247036 22.176996,4.7247036 21.045824,5.8558757 L 16.299956,10.614382 L 11.528811,5.8369176 C 10.39132,4.7057455 8.5523753,4.7057455 7.421203,5.8369176 L 5.2220527,8.0360677 C 4.0845612,9.1798788 4.0845612,11.006185 5.2220527,12.143676 L 9.9868782,16.908502 L 5.2410109,21.667008 C 4.1098387,22.791861 4.1098387,24.624486 5.2410109,25.768297 L 7.421203,27.948489 C 8.5523753,29.079661 10.39132,29.079661 11.528811,27.948489 L 16.280998,23.189983 L 21.020546,27.948489 C 22.158038,29.079661 23.996983,29.079661 25.128155,27.948489 L 27.327305,25.749339 C 28.464797,24.605528 28.464797,22.772902 27.327305,21.641731 L 22.581438,16.895863 L 27.327305,12.143676 C 28.464797,11.006185 28.464797,9.1798788 27.327305,8.0360677 L 25.147113,5.8558757 z"
     id="r3226"
     style="fill:#a43333;fill-opacity:1;fill-rule:evenodd;stroke:#ffffff;stroke-width:1;stroke-linecap:round;stroke-linejoin:miter;marker:none;stroke-miterlimit:4;stroke-dasharray:none;stroke-dashoffset:0;stroke-opacity:1;visibility:visible;display:inline;overflow:visible;enable-background:accumulate" />
</svg>
