<?xml version="1.0" encoding="UTF-8" standalone="no"?>
<!-- Created with Inkscape (http://www.inkscape.org/) -->
<svg
   xmlns:svg="http://www.w3.org/2000/svg"
   xmlns="http://www.w3.org/2000/svg"
   version="1.0"
   width="100%"
   height="100%"
   viewBox="0 0 48 48"
   id="svg2383">
  <defs
     id="defs2385" />
  <path
     d="M 46,24 C 46,36.150264 36.150264,46 24,46 C 11.849736,46 2,36.150264 2,24 C 2,11.849736 11.849736,2 24,2 C 36.150264,2 46,11.849736 46,24 L 46,24 z"
     id="path3223"
     style="fill:#ff9955;fill-opacity:1;fill-rule:evenodd;stroke:none;stroke-width:2;stroke-linecap:round;stroke-linejoin:round;marker:none;marker-start:none;marker-mid:none;marker-end:none;stroke-miterlimit:4;stroke-dasharray:none;stroke-dashoffset:0;stroke-opacity:1;visibility:visible;display:inline;overflow:visible;enable-background:accumulate" />
  <path
     d="M 12.010155,11.306876 C 11.097865,11.350318 10.298527,11.923757 9.9596763,12.775227 C 9.620826,13.618009 9.8032839,14.582429 10.437542,15.242752 L 18.205033,23.687944 L 10.437542,32.159201 C 9.5686952,33.114933 9.638203,34.591972 10.585246,35.460819 C 11.540977,36.329666 13.018017,36.260158 13.886864,35.313115 L 23.087952,25.269245 C 23.904668,24.374333 23.904668,23.010243 23.087952,22.115331 L 13.886864,12.097527 C 13.417687,11.558842 12.722609,11.272122 12.010155,11.306876 z"
     id="p3157"
     style="opacity:1;fill:#4b2e1c;fill-opacity:1;fill-rule:evenodd;stroke:none;stroke-width:2;stroke-linecap:round;stroke-linejoin:round;marker:none;marker-start:none;marker-mid:none;marker-end:none;stroke-miterlimit:4;stroke-dasharray:none;stroke-dashoffset:0;stroke-opacity:1;visibility:visible;display:inline;overflow:visible;enable-background:accumulate" />
  <path
     d="M 20.620427,11.306876 C 19.708138,11.350318 18.908799,11.923757 18.569949,12.775227 C 18.231098,13.618009 18.413556,14.582429 19.047814,15.242752 L 26.806617,23.687944 L 19.047814,32.159201 C 18.178967,33.114933 18.239787,34.591972 19.195518,35.460819 C 20.142561,36.329666 21.619601,36.260158 22.497136,35.313115 L 31.698225,25.269245 C 32.514941,24.374333 32.514941,23.010243 31.698225,22.115331 L 22.497136,12.097527 C 22.019271,11.558842 21.332882,11.272122 20.620427,11.306876 z"
     id="p3162"
     style="opacity:1;fill:#4b2e1c;fill-opacity:1;fill-rule:evenodd;stroke:none;stroke-width:2;stroke-linecap:round;stroke-linejoin:round;marker:none;marker-start:none;marker-mid:none;marker-end:none;stroke-miterlimit:4;stroke-dasharray:none;stroke-dashoffset:0;stroke-opacity:1;visibility:visible;display:inline;overflow:visible;enable-background:accumulate" />
  <path
     d="M 29.11775,11.306876 C 28.214149,11.359007 27.41481,11.941134 27.084648,12.783916 C 26.754486,13.626697 26.945632,14.591117 27.571202,15.242752 L 35.338693,23.687944 L 27.571202,32.159201 C 26.945632,32.758705 26.702355,33.662306 26.936944,34.496399 C 27.180221,35.330492 27.86661,35.956062 28.71808,36.129831 C 29.56955,36.303601 30.447085,35.990816 30.994459,35.313115 L 40.195547,25.269245 C 41.012263,24.374333 41.012263,23.010243 40.195547,22.115331 L 30.994459,12.097527 C 30.516593,11.558842 29.830204,11.272122 29.11775,11.306876 z"
     id="p3164"
     style="opacity:1;fill:#4b2e1c;fill-opacity:1;fill-rule:evenodd;stroke:none;stroke-width:2;stroke-linecap:round;stroke-linejoin:round;marker:none;marker-start:none;marker-mid:none;marker-end:none;stroke-miterlimit:4;stroke-dasharray:none;stroke-dashoffset:0;stroke-opacity:1;visibility:visible;display:inline;overflow:visible;enable-background:accumulate" />
</svg>
