<?xml version="1.0" encoding="UTF-8" standalone="no"?>
<svg xmlns:svg="http://www.w3.org/2000/svg" xmlns="http://www.w3.org/2000/svg" version="1.0" width="100%" height="100%" viewBox="0 0 48 48">
<defs id="defs2385"/>
<g id="layer1">
<path d="M 21,0 C 15.71,0.71 10.78,3.17 7.03,7.03 L 0,14.06 L 0,48 L 33.93,48 L 40.96,40.96 C 44.90,37.13 47.30,32.18 48,26.96 L 48,20.56 C 47.71,18.48 47.15,16.40 46.31,14.40 C 42.96,6.49 35.70,1.10 27.37,0 L 21,0 z" id="p2393" style="fill:#ffffff;fill-opacity:1;fill-rule:evenodd;stroke:none;"/>
<path d="M 44,24 A 20,20 0 1 1 4,24 A 20,20 0 1 1 44,24 z" id="p3178" style="opacity:1;fill:#28596e;fill-opacity:1;fill-rule:nonzero;stroke:none;marker:none;visibility:visible;display:inline;overflow:visible;enable-background:accumulate"/>
<path d="M 24,4 C 15.87,4 8.88,8.85 5.75,15.81 C 9.29,19.10 16.25,21.34 24.25,21.34 C 31.99,21.34 38.73,19.21 42.37,16.09 C 39.30,8.98 32.23,4 24,4 z" id="p3182" style="opacity:1;fill:#6fdfed;fill-opacity:0.09;fill-rule:nonzero;stroke:none;marker:none;visibility:visible;display:inline;overflow:visible;enable-background:accumulate"/>
<path d="M 17.04,11.37 L 19.62,26.60 L 28.64,26.60 L 31.21,11.37 L 17.04,11.37 z M 23.95,28.05 C 20.59,28.05 17.86,30.10 17.86,32.63 C 17.86,35.16 20.59,37.22 23.95,37.22 C 27.31,37.22 30.04,35.16 30.04,32.63 C 30.04,30.10 27.31,28.05 23.95,28.05 z" id="p3195" style="fill:#c2fdfe;fill-opacity:1;fill-rule:evenodd;stroke:none;"/>
<path d="M 44,24 A 20,20 0 1 1 4,24 A 20,20 0 1 1 44,24 z" id="p3180" style="opacity:1;fill:none;fill-opacity:1;fill-rule:nonzero;stroke:#69b5cd;stroke-width:4;stroke-linecap:round;stroke-linejoin:miter;marker:none;stroke-miterlimit:4;stroke-dasharray:none;stroke-dashoffset:0;stroke-opacity:1;visibility:visible;display:inline;overflow:visible;enable-background:accumulate"/>
</g>
</svg>
