<?xml version="1.0" encoding="UTF-8" standalone="no"?>
<!DOCTYPE svg PUBLIC "-//W3C//DTD SVG 1.0//EN" "http://www.w3.org/TR/2001/REC-SVG-20010904/DTD/svg10.dtd">
<svg xmlns:svg="http://www.w3.org/2000/svg" xmlns="http://www.w3.org/2000/svg" version="1.0" width="100%" height="100%" viewBox="0 0 640 480" title="0 0 640 480" id="grid01">
<defs>
<style type="text/css">
    svg#grid01 #bg path             { opacity:1;fill:none;stroke:white;stroke-width:6;stroke-linecap:round; }
    svg#grid01 #lines path          { opacity:1;fill:none;stroke:black;stroke-width:2;stroke-linecap:round; }
    svg#grid01 #inter circle        { display:none; }
    svg#grid01 #o100 *              { fill:black; }
    svg#grid01 text                 { font-size:32px; font-weight:bold; text-anchor:middle;}
    svg#grid01 #cursor				{ cursor: move; }
    
    </style>
</defs>

<g id="inter">
	
    <circle id="pa1" cx="220" cy="170" r="5"/>
    <circle id="pb1" cx="270" cy="170" r="5"/>
    <circle id="pc1" cx="320" cy="170" r="5"/>
    <circle id="pd1" cx="370" cy="170" r="5"/>
    <circle id="pe1" cx="420" cy="170" r="5"/>
    <circle id="pf1" cx="470" cy="170" r="5"/>
    <circle id="pg1" cx="520" cy="170" r="5"/>
    
    <circle id="pa2" cx="220" cy="220" r="5"/>
    <circle id="pb2" cx="270" cy="220" r="5"/>
    <circle id="pc2" cx="320" cy="220" r="5"/>
    <circle id="pd2" cx="370" cy="220" r="5"/>
    <circle id="pe2" cx="420" cy="220" r="5"/>
    <circle id="pf2" cx="470" cy="220" r="5"/>
    <circle id="pg2" cx="520" cy="220" r="5"/>
	
    <circle id="pa3" cx="220" cy="270" r="5"/>
    <circle id="pb3" cx="270" cy="270" r="5"/>
    <circle id="pc3" cx="320" cy="270" r="5"/>
    <circle id="pd3" cx="370" cy="270" r="5"/>
    <circle id="pe3" cx="420" cy="270" r="5"/>
    <circle id="pf3" cx="470" cy="270" r="5"/>
    <circle id="pg3" cx="520" cy="270" r="5"/>
    
    <circle id="pa4" cx="220" cy="320" r="5"/>
    <circle id="pb4" cx="270" cy="320" r="5"/>
    <circle id="pc4" cx="320" cy="320" r="5"/>
    <circle id="pd4" cx="370" cy="320" r="5"/>
    <circle id="pe4" cx="420" cy="320" r="5"/>
    <circle id="pf4" cx="470" cy="320" r="5"/>
    <circle id="pg4" cx="520" cy="320" r="5"/>
	
    <circle id="pa5" cx="220" cy="370" r="5"/>
    <circle id="pb5" cx="270" cy="370" r="5"/>
    <circle id="pc5" cx="320" cy="370" r="5"/>
    <circle id="pd5" cx="370" cy="370" r="5"/>
    <circle id="pe5" cx="420" cy="370" r="5"/>
    <circle id="pf5" cx="470" cy="370" r="5"/>
    <circle id="pg5" cx="520" cy="370" r="5"/>
    
    <circle id="pa6" cx="220" cy="420" r="5"/>
    <circle id="pb6" cx="270" cy="420" r="5"/>
    <circle id="pc6" cx="320" cy="420" r="5"/>
    <circle id="pd6" cx="370" cy="420" r="5"/>
    <circle id="pe6" cx="420" cy="420" r="5"/>
    <circle id="pf6" cx="470" cy="420" r="5"/>
    <circle id="pg6" cx="520" cy="420" r="5"/>

</g>

<text transform="translate(220,120)">A</text>
<text transform="translate(270,120)">B</text>
<text transform="translate(320,120)">C</text>
<text transform="translate(370,120)">D</text>
<text transform="translate(420,120)">E</text>
<text transform="translate(470,120)">F</text>
<text transform="translate(520,120)">G</text>

<text transform="translate(160,180)">1</text>
<text transform="translate(160,230)">2</text>
<text transform="translate(160,280)">3</text>
<text transform="translate(160,330)">4</text>
<text transform="translate(160,380)">5</text>
<text transform="translate(160,430)">6</text>


<g id="bg">
<path d="M 220,140 L 220,420"/>
<path d="M 270,140 L 270,420"/>
<path d="M 320,140 L 320,420"/>
<path d="M 370,140 L 370,420"/>
<path d="M 420,140 L 420,420"/>
<path d="M 470,140 L 470,420"/>
<path d="M 520,140 L 520,420"/>

<path d="M 190,170 L 520,170"/>
<path d="M 190,220 L 520,220"/>
<path d="M 190,270 L 520,270"/>
<path d="M 190,320 L 520,320"/>
<path d="M 190,370 L 520,370"/>
<path d="M 190,420 L 520,420"/>
</g>
<g id="lines">
<path d="M 220,140 L 220,420"/>
<path d="M 270,140 L 270,420"/>
<path d="M 320,140 L 320,420"/>
<path d="M 370,140 L 370,420"/>
<path d="M 420,140 L 420,420"/>
<path d="M 470,140 L 470,420"/>
<path d="M 520,140 L 520,420"/>

<path d="M 190,170 L 520,170"/>
<path d="M 190,220 L 520,220"/>
<path d="M 190,270 L 520,270"/>
<path d="M 190,320 L 520,320"/>
<path d="M 190,370 L 520,370"/>
<path d="M 190,420 L 520,420"/>
</g>


<g id="cursor" style="display:none">
<path d="M 0,-20 C -11.04,-20 -20,-11.04 -20,0 C -20,0.052224771 -20.0004,0.10411905 -20,0.15625 C -26.516748,3.4539658 -31,10.201483 -31,18 C -31,29.04 -22.04,38 -11,38 C -2.6229661,38 3.8708146,38 11,38 C 22.04,38 31,29.04 31,18 C 31,10.201483 26.516748,3.4539658 20,0.15625 C 20.0004,0.10411905 20,0.052224771 20,0 C 20,-11.04 11.04,-20 0,-20 z" style="fill:#ffffff;fill-opacity:0.04;stroke:#858585;stroke-width:0.3;"/>
<path d="M 15,0 A 15,15 0 1 1 -15,1.83e-15 A 15,15 0 1 1 15,-3.67e-15 z" transform="scale(0.91,0.91)" id="p5340" style="opacity:1;fill:#feffca;fill-opacity:0.31;fill-rule:nonzero;stroke:none;marker:none;visibility:visible;display:inline;overflow:visible;enable-background:accumulate"/>
<path d="M 0,-15 C -8.28,-15 -15,-8.28 -15,0 C -15,8.28 -8.28,15 0,15 C 8.28,15 15,8.28 15,0 C 15,-8.28 8.28,-15 0,-15 z M 0,-11.37 C 6.27,-11.37 11.37,-6.27 11.37,0 C 11.37,6.27 6.27,11.37 0,11.37 C -6.27,11.37 -11.37,6.27 -11.37,0 C -11.37,-6.27 -6.27,-11.37 0,-11.37 z" id="p5335" style="opacity:1;fill:red;fill-opacity:1;fill-rule:nonzero;stroke:#ffffff;stroke-width:0.5;stroke-linecap:round;stroke-linejoin:round;marker:none;stroke-miterlimit:4;stroke-dasharray:none;stroke-dashoffset:0;stroke-opacity:1;visibility:visible;display:inline;overflow:visible;enable-background:accumulate"/>
<path d="M 13,0 L -13,0" id="p5342" style="fill:none;fill-rule:evenodd;stroke:red;stroke-width:2px;stroke-linecap:butt;stroke-linejoin:miter;stroke-opacity:1"/>
<path d="M 0,-13 L 0,13" id="p5344" style="opacity:1;fill:none;fill-opacity:1;fill-rule:evenodd;stroke:red;stroke-width:2px;stroke-linecap:butt;stroke-linejoin:miter;marker:none;stroke-miterlimit:4;stroke-dasharray:none;stroke-dashoffset:0;stroke-opacity:1;visibility:visible;display:inline;overflow:visible;enable-background:accumulate"/>
</g>


</svg>
