<?xml version="1.0" encoding="UTF-8" standalone="no"?>
<!-- Created with Inkscape (http://www.inkscape.org/) -->
<svg
   xmlns:svg="http://www.w3.org/2000/svg"
   xmlns="http://www.w3.org/2000/svg"
   version="1.0"
   width="100%"
   height="100%"
   viewBox="0 0 48 48"
   id="svg2383">
  <defs
     id="defs2385" />
  <path
     d="M 46,24 C 46,36.150264 36.150264,46 24,46 C 11.849736,46 2,36.150264 2,24 C 2,11.849736 11.849736,2 24,2 C 36.150264,2 46,11.849736 46,24 L 46,24 z"
     id="path3223"
     style="fill:#ff9955;fill-opacity:1;fill-rule:evenodd;stroke:none;stroke-width:2;stroke-linecap:round;stroke-linejoin:round;marker:none;marker-start:none;marker-mid:none;marker-end:none;stroke-miterlimit:4;stroke-dasharray:none;stroke-dashoffset:0;stroke-opacity:1;visibility:visible;display:inline;overflow:visible;enable-background:accumulate" />
  <path
     d="M 40,24 A 16,16 0 1 1 8,24 A 16,16 0 1 1 40,24 z"
     id="path2419"
     style="opacity:1;fill:none;fill-opacity:1;fill-rule:evenodd;stroke:#4b2e1c;stroke-width:2;stroke-linecap:round;stroke-linejoin:round;marker:none;marker-start:none;marker-mid:none;marker-end:none;stroke-miterlimit:4;stroke-dasharray:none;stroke-dashoffset:0;stroke-opacity:1;visibility:visible;display:inline;overflow:visible;enable-background:accumulate" />
  <path
     d="M 24.96875,8.0625 C 28.926254,8.5431839 32,11.913445 32,16 C 32,20.416 28.416,24 24,24 C 19.584,24 16,27.584 16,32 C 16,36.416 19.584,40 24,40 C 24.329445,40 24.649709,39.976251 24.96875,39.9375 C 33.344757,39.430417 40,32.502794 40,24 C 40,15.497206 33.344757,8.5695834 24.96875,8.0625 z M 24,12 C 21.792,12 20,13.792 20,16 C 20,18.208 21.792,20 24,20 C 26.208,20 28,18.208 28,16 C 28,13.792 26.208,12 24,12 z M 24,28 C 26.208,28 28,29.792 28,32 C 28,34.208 26.208,36 24,36 C 21.792,36 20,34.208 20,32 C 20,29.792 21.792,28 24,28 z"
     id="path2423"
     style="opacity:1;fill:#4b2e1c;fill-opacity:1;fill-rule:evenodd;stroke:none;stroke-width:2;stroke-linecap:round;stroke-linejoin:round;marker:none;marker-start:none;marker-mid:none;marker-end:none;stroke-miterlimit:4;stroke-dasharray:none;stroke-dashoffset:0;stroke-opacity:1;visibility:visible;display:inline;overflow:visible;enable-background:accumulate" />
</svg>
