<?xml version="1.0" encoding="UTF-8" standalone="no"?>
<svg xmlns:svg="http://www.w3.org/2000/svg" xmlns="http://www.w3.org/2000/svg" xmlns:xlink="http://www.w3.org/1999/xlink" version="1.0" width="100%" height="100%" viewBox="0 0 640 480" title="0 0 640 480" id="paint">
<defs id="defs2385">
    <style type="text/css">
        .c0         { fill:black !important; }
        .c1         { fill:#dddddd !important; }
        .p          { cursor:pointer; }
        .s .p       { stroke:#FF5555; stroke-width:10px;}

        .c          { fill:white; }
        .bg1        { fill:#5599BB; }
        .bg2        { fill:#2277BB; }
        .bg3        { fill:#77CCFF; }
        .bg4        { fill:#AAEEFF; }
        .bg5        { stroke:#5599BB; stroke-width:2px; }

        text    { font-size:50px;text-anchor:middle;fill:white;font-family:Times New Roman;font-weight:bold; }

    </style>
</defs>

<g style="display:none">
    <g id="v1">
        <rect x="0" y="0" width="49" height="49" class="bg1"/>
        <rect x="0" y="50" width="49" height="49" class="bg1"/>
        <rect x="0" y="100" width="49" height="49" class="bg1"/>
    </g>
    <g id="v2">
        <rect x="0" y="0" width="49" height="49" class="bg2"/>
        <rect x="0" y="50" width="49" height="49" class="bg2"/>
        <rect x="0" y="100" width="49" height="49" class="bg2"/>
    </g>
    <g id="h1">
        <rect y="0" x="0" width="49" height="49" class="bg1"/>
        <rect y="0" x="50" width="49" height="49" class="bg1"/>
        <rect y="0" x="100" width="49" height="49" class="bg1"/>
    </g>
    <g id="h2">
        <rect y="0" x="0" width="49" height="49" class="bg2"/>
        <rect y="0" x="50" width="49" height="49" class="bg2"/>
        <rect y="0" x="100" width="49" height="49" class="bg2"/>
    </g>
</g>


<g id="source">
    <g id="0" transform="translate(20,50)">
        <rect x="0" y="0" width="96" height="96" class="c0"/>
        <rect x="-5" y="-5" width="106" height="106" style="fill:none;" class="p"/>
    </g>
    <g id="1" transform="translate(20,160)">
        <rect x="0" y="0" width="96" height="96" class="c1"/>
        <path d="M 0,0 L 10,0 L 96,86 L 96,96 L 86,96 L 0,10 L 0,0 Z" style="fill:#dd9999;"/>
        <path d="M 96,0 L 86,0 L 0,86 L 0,96 L 10,96 L 96,10 L 96,0 Z" style="fill:#dd9999;"/>
        <rect x="-5" y="-5" width="106" height="106" style="fill:none;" class="p"/>
    </g>
</g>


<g id="canvas" transform="translate(140,10)">
    <rect x="-1" y="-1" width="400" height="400" class="bg3"/>
    <rect x="0" y="0" width="149" height="149" class="bg4"/>
    <g>
        <use transform="translate(150,0)" xlink:href="#v1"/>
        <use transform="translate(200,0)" xlink:href="#v2"/>
        <use transform="translate(250,0)" xlink:href="#v1"/>
        <use transform="translate(300,0)" xlink:href="#v2"/>
        <use transform="translate(350,0)" xlink:href="#v1"/>

        <use transform="translate(0,150)" xlink:href="#h1"/>
        <use transform="translate(0,200)" xlink:href="#h2"/>
        <use transform="translate(0,250)" xlink:href="#h1"/>
        <use transform="translate(0,300)" xlink:href="#h2"/>
        <use transform="translate(0,350)" xlink:href="#h1"/>
    </g>

    <g transform="translate(0,0)">
        <text y="40" transform="translate(175,0)" class="t"></text>
        <text y="40" transform="translate(175,50)" class="t"></text>
        <text y="40" transform="translate(175,100)" class="t"></text>
    </g>
    <g transform="translate(50,0)">
        <text y="40" transform="translate(175,0)" class="t"></text>
        <text y="40" transform="translate(175,50)" class="t"></text>
        <text y="40" transform="translate(175,100)" class="t"></text>
    </g>
    <g transform="translate(100,0)">
        <text y="40" transform="translate(175,0)" class="t"></text>
        <text y="40" transform="translate(175,50)" class="t"></text>
        <text y="40" transform="translate(175,100)" class="t"></text>
    </g>
    <g transform="translate(150,0)">
        <text y="40" transform="translate(175,0)" class="t"></text>
        <text y="40" transform="translate(175,50)" class="t"></text>
        <text y="40" transform="translate(175,100)" class="t"></text>
    </g>
    <g transform="translate(200,0)">
        <text y="40" transform="translate(175,0)" class="t"></text>
        <text y="40" transform="translate(175,50)" class="t"></text>
        <text y="40" transform="translate(175,100)" class="t"></text>
    </g>
    <g transform="translate(0,0)">
        <text y="40" transform="translate(25,150)" class="t"></text>
        <text y="40" transform="translate(75,150)" class="t"></text>
        <text y="40" transform="translate(125,150)" class="t"></text>
    </g>
    <g transform="translate(0,50)">
        <text y="40" transform="translate(25,150)" class="t"></text>
        <text y="40" transform="translate(75,150)" class="t"></text>
        <text y="40" transform="translate(125,150)" class="t"></text>
    </g>
    <g transform="translate(0,100)">
        <text y="40" transform="translate(25,150)" class="t"></text>
        <text y="40" transform="translate(75,150)" class="t"></text>
        <text y="40" transform="translate(125,150)" class="t"></text>
    </g>
    <g transform="translate(0,150)">
        <text y="40" transform="translate(25,150)" class="t"></text>
        <text y="40" transform="translate(75,150)" class="t"></text>
        <text y="40" transform="translate(125,150)" class="t"></text>
    </g>
    <g transform="translate(0,200)">
        <text y="40" transform="translate(25,150)" class="t"></text>
        <text y="40" transform="translate(75,150)" class="t"></text>
        <text y="40" transform="translate(125,150)" class="t"></text>
    </g>


    <rect x="150" y="150" width="49" height="49" class="c"/>
    <rect x="200" y="150" width="49" height="49" class="c"/>
    <rect x="250" y="150" width="49" height="49" class="c"/>
    <rect x="300" y="150" width="49" height="49" class="c"/>
    <rect x="350" y="150" width="49" height="49" class="c"/>

    <rect x="150" y="200" width="49" height="49" class="c"/>
    <rect x="200" y="200" width="49" height="49" class="c"/>
    <rect x="250" y="200" width="49" height="49" class="c"/>
    <rect x="300" y="200" width="49" height="49" class="c"/>
    <rect x="350" y="200" width="49" height="49" class="c"/>

    <rect x="150" y="250" width="49" height="49" class="c"/>
    <rect x="200" y="250" width="49" height="49" class="c"/>
    <rect x="250" y="250" width="49" height="49" class="c"/>
    <rect x="300" y="250" width="49" height="49" class="c"/>
    <rect x="350" y="250" width="49" height="49" class="c"/>

    <rect x="150" y="300" width="49" height="49" class="c"/>
    <rect x="200" y="300" width="49" height="49" class="c"/>
    <rect x="250" y="300" width="49" height="49" class="c"/>
    <rect x="300" y="300" width="49" height="49" class="c"/>
    <rect x="350" y="300" width="49" height="49" class="c"/>

    <rect x="150" y="350" width="49" height="49" class="c"/>
    <rect x="200" y="350" width="49" height="49" class="c"/>
    <rect x="250" y="350" width="49" height="49" class="c"/>
    <rect x="300" y="350" width="49" height="49" class="c"/>
    <rect x="350" y="350" width="49" height="49" class="c"/>

</g>


</svg> 
