<?xml version="1.0" encoding="UTF-8" standalone="no"?>
<svg xmlns:dc="http://purl.org/dc/elements/1.1/" xmlns:cc="http://creativecommons.org/ns#" xmlns:rdf="http://www.w3.org/1999/02/22-rdf-syntax-ns#" xmlns:svg="http://www.w3.org/2000/svg" xmlns="http://www.w3.org/2000/svg" version="1.0" width="100%" height="100%" viewBox="0 0 48 48" id="_up" style="display:inline">
 <defs id="defs2385" />
 <circle r="18.577" cy="24" cx="24" id="circle4148" style="fill:#1f6b21;fill-rule:nonzero;stroke-width:2.900;stroke-linecap:butt;stroke-linejoin:round;marker:none" />
 <path id="circle4142" d="m 24,9.921 c -9.476,-10e-8 -17.128,7.652 -17.128,17.128 -10e-8,2.484 0.537,4.836 1.484,6.964 A 18.577,18.577 0 0 0 24,42.578 18.577,18.577 0 0 0 39.718,33.861 c 0.903,-2.087 1.410,-4.387 1.410,-6.810 C 41.128,17.574 33.476,9.921 24,9.921 Z" style="fill:#69c46b;fill-rule:nonzero;stroke-width:2.900;stroke-linecap:butt;stroke-linejoin:round;marker:none" />
 <circle r="13.947" cy="24.926" cx="24" id="circle4144" style="fill:#359e37;fill-rule:nonzero;stroke-width:3.598;stroke-linecap:butt;marker:none" />
 <circle style="fill:none;fill-rule:nonzero;stroke:#1f6b21;stroke-width:2.900;stroke-linecap:butt;stroke-linejoin:round;marker:none;stroke-opacity:1" id="circle4155" cx="24" cy="24" r="18.577" />
 <path d="m 17.223,14.849 7.324,0 q 6.511,0 6.511,4.316 0,2.139 -2.229,3.557 3.233,1.181 3.233,4.217 0,2.326 -1.904,3.707 -0.930,0.659 -1.993,0.920 -1.063,0.261 -2.864,0.261 l -1.137,0 0,-4.366 1.018,0 q 0.900,0 1.269,-0.186 0.369,-0.199 0.369,-0.684 0,-0.821 -1.506,-0.821 l -1.151,0 0,-4.528 q 1.653,0 1.653,-0.957 0,-0.883 -1.491,-0.883 l -1.107,0 0,12.427 -5.995,0 0,-16.980 z" style="font-style:normal;font-variant:normal;font-weight:normal;font-stretch:normal;font-size:medium;line-height:125%;font-family:'Bauhaus 93';-inkscape-font-specification:'Bauhaus 93, ';letter-spacing:0px;word-spacing:0px;fill:#ffffff;stroke-width:1px;stroke-linecap:butt;stroke-opacity:1" id="path4145" />
</svg>
