<?xml version="1.0" encoding="UTF-8" standalone="no"?>
<svg
   xmlns:dc="http://purl.org/dc/elements/1.1/"
   xmlns:cc="http://creativecommons.org/ns#"
   xmlns:rdf="http://www.w3.org/1999/02/22-rdf-syntax-ns#"
   xmlns:svg="http://www.w3.org/2000/svg"
   xmlns="http://www.w3.org/2000/svg"
   version="1.0"
   width="100%"
   height="100%"
   viewBox="0 0 48 48"
   id="_up"
   style="display:inline">
  <metadata
     id="metadata4319">
    <rdf:RDF>
      <cc:Work
         rdf:about="">
        <dc:format>image/svg+xml</dc:format>
        <dc:type
           rdf:resource="http://purl.org/dc/dcmitype/StillImage" />
        <dc:title></dc:title>
      </cc:Work>
    </rdf:RDF>
  </metadata>
  <defs
     id="defs2385" />
  <g
     id="g4327">
    <path
       style="fill:#1f296b;stroke:none;stroke-width:2.9;stroke-linecap:butt;stroke-linejoin:round;marker:none;fill-opacity:1"
       d="m 24,45.470 c -4.309,0 -19.683,-13.751 -19.683,-19.220 -4e-7,-3.473 5.222,-4.378 10.759,-4.580 -1.371,-4.609 -2.191,-9.213 -2.191,-11.691 0,-6.139 4.976,-6.792 11.115,-6.792 6.139,0 11.115,0.653 11.115,6.792 10e-7,2.489 -0.826,7.122 -2.208,11.751 5.543,0.250 10.777,1.194 10.777,4.519 0,5.229 -15.373,19.220 -19.683,19.220 z"
       id="path4342" />
    <path
       id="path4329"
       d="M 24 6.8730469 C 20.981912 6.8730469 18.358173 7.0899352 16.75 7.8339844 C 15.141874 8.5780338 14.335938 9.5371132 14.335938 12.214844 C 14.335938 14.009698 14.904554 17.512781 15.859375 21.230469 C 16.237447 21.242374 16.539062 21.546648 16.539062 21.927734 L 16.539062 23.953125 C 16.539062 23.993436 16.522083 24.027998 16.515625 24.066406 A 1.450145 1.450145 0 0 1 16.513672 24.082031 A 1.450145 1.450145 0 0 1 15.128906 25.355469 C 12.422651 25.454199 9.8247331 25.747018 8.0917969 26.341797 C 7.2253288 26.639186 6.5942504 27.009075 6.2441406 27.359375 C 5.8940309 27.709675 5.7675781 27.981448 5.7675781 28.486328 C 5.7675781 29.174225 6.5224216 30.984884 7.9550781 32.939453 C 9.3877347 34.894022 11.394837 37.078833 13.535156 39.091797 C 15.675476 41.104761 17.955478 42.952512 19.914062 44.267578 C 21.87265 45.582644 23.693963 46.255859 24 46.255859 A 1.450145 1.450145 0 0 0 24.001953 46.255859 C 24.294962 46.255859 26.118705 45.571823 28.078125 44.238281 C 30.037545 42.90474 32.319057 41.033059 34.460938 39.003906 C 36.602817 36.974754 38.612055 34.780906 40.046875 32.833984 C 41.481695 30.887062 42.234375 29.081137 42.234375 28.484375 C 42.234375 28.033541 42.120726 27.793788 41.769531 27.453125 C 41.418336 27.112462 40.779845 26.743386 39.90625 26.445312 C 38.15906 25.849166 35.551755 25.536288 32.841797 25.414062 A 1.450145 1.450145 0 0 1 31.46875 24.148438 C 31.450167 24.085234 31.429688 24.022535 31.429688 23.953125 L 31.429688 21.927734 C 31.429687 21.539039 31.742164 21.226562 32.130859 21.226562 L 32.142578 21.226562 C 33.096856 17.510198 33.664063 14.009721 33.664062 12.214844 C 33.664016 9.5371133 32.858126 8.5780338 31.25 7.8339844 C 29.641874 7.0899352 27.018088 6.8730469 24 6.8730469 z "
       style="fill:#6978c4;stroke-width:3.59899998;stroke-linecap:butt;marker:none;fill-opacity:1" />
    <path
       style="fill:#35449e;stroke-width:3.59899998;stroke-linecap:butt;marker:none;fill-opacity:1"
       d="m 30.803,12.854288 c 0,-4.2859999 -3.045,-4.7429999 -6.803,-4.7429999 -3.757,0 -6.803,0.456 -6.803,4.7429999 -10e-7,4.286 3.045,17.678 6.803,17.678 3.757,0 6.803,-13.392 6.803,-17.678 z"
       id="path4331" />
    <path
       style="fill:#35449e;stroke-width:3.59899998;stroke-linecap:butt;marker:none;fill-opacity:1"
       d="m 38.413,28.636288 c 0,-3.146 -9.48,-2.757 -14.413,-2.757 -4.932,0 -14.413,-0.532 -14.413,2.757 5e-7,3.29 11.257,11.564 14.413,11.564 3.155,0 14.413,-8.418 14.413,-11.564 z"
       id="path4333" />
    <path
       id="path4335"
       d="m 24,45.470 c -4.309,0 -19.683,-13.751 -19.683,-19.220 -4e-7,-3.473 5.222,-4.378 10.759,-4.580 -1.371,-4.609 -2.191,-9.213 -2.191,-11.691 0,-6.139 4.976,-6.792 11.115,-6.792 6.139,0 11.115,0.653 11.115,6.792 10e-7,2.489 -0.826,7.122 -2.208,11.751 5.543,0.250 10.777,1.194 10.777,4.519 0,5.229 -15.373,19.220 -19.683,19.220 z"
       style="fill:none;stroke:#1f296b;stroke-width:2.900;stroke-linecap:butt;stroke-linejoin:round;marker:none;" />
  </g>
</svg>
