<?xml version="1.0" encoding="UTF-8" standalone="no"?>
<svg xmlns:dc="http://purl.org/dc/elements/1.1/" xmlns:cc="http://creativecommons.org/ns#" xmlns:rdf="http://www.w3.org/1999/02/22-rdf-syntax-ns#" xmlns:svg="http://www.w3.org/2000/svg" xmlns="http://www.w3.org/2000/svg" style="display:inline" id="_up" viewBox="0 0 48 48" height="100%" width="100%" version="1.0">
 <defs id="defs2385" />
 <path id="path4144" d="M 24 2.466 C 19.690 2.466 4.316 16.218 4.316 21.687 C 4.316 25.161 9.538 26.065 15.076 26.267 C 13.704 30.876 12.884 35.480 12.884 37.958 C 12.884 44.097 17.860 44.751 24 44.751 C 30.139 44.751 35.115 44.097 35.115 37.958 C 35.115 35.469 34.288 30.836 32.906 26.207 C 38.450 25.956 43.683 25.012 43.683 21.687 C 43.683 16.458 28.309 2.466 24 2.466 z " style="fill:#6e85fd;stroke-width:3.599;stroke-linecap:butt;marker:none;" />
 <path id="path3336" d="m 30.803,33.486 c 0,4.286 -3.045,4.743 -6.803,4.743 -3.757,0 -6.803,-0.456 -6.803,-4.743 -1e-6,-4.286 3.045,-17.678 6.803,-17.678 3.757,0 6.803,13.392 6.803,17.678 z" style="fill:#304eff;stroke-width:3.599;stroke-linecap:butt;marker:none;" />
 <path id="circle4141" d="m 38.413,18.909 c 0,3.408 -9.480,2.987 -14.413,2.987 -4.932,0 -14.413,0.577 -14.413,-2.987 C 9.586,15.344 20.844,6.379 24,6.379 c 3.155,0 14.413,9.120 14.413,12.529 z" style="fill:#304eff;stroke-width:3.599;stroke-linecap:butt;marker:none;;filter-blend-mode:normal;filter-gaussianBlur-deviation:0" />
 <path style="fill:none;stroke:#1f296b;stroke-width:2.9;stroke-linecap:butt;stroke-linejoin:round;marker:none;" d="M 24 2.466 C 19.690 2.466 4.316 16.218 4.316 21.687 C 4.316 25.161 9.538 26.065 15.076 26.267 C 13.704 30.876 12.884 35.480 12.884 37.958 C 12.884 44.097 17.860 44.751 24 44.751 C 30.139 44.751 35.115 44.097 35.115 37.958 C 35.115 35.469 34.288 30.836 32.906 26.207 C 38.450 25.956 43.683 25.012 43.683 21.687 C 43.683 16.458 28.309 2.466 24 2.466 z " id="path4149" />
</svg>
