<?xml version="1.0" encoding="UTF-8" standalone="no"?>
<!-- Created with Inkscape (http://www.inkscape.org/) -->
<svg xmlns:dc="http://purl.org/dc/elements/1.1/" xmlns:cc="http://creativecommons.org/ns#" xmlns:rdf="http://www.w3.org/1999/02/22-rdf-syntax-ns#" xmlns:svg="http://www.w3.org/2000/svg" xmlns="http://www.w3.org/2000/svg" version="1.0" width="100%" height="100%" viewBox="0 0 48 48" id="svg2380">
<defs id="defs8" />
<path d="M 33.57,6.23 C 32.43,2.86 28.12,4.25 25.55,3.79 23.43,3.42 21.52,1.85 19.41,1.30 15.41,0.27 9.64,2.23 7.38,5.71 5.08,9.27 4.85,14.33 5.79,18.34 c 0.34,1.47 1.15,2.79 1.51,4.26 0.66,2.72 0.93,6.23 0.78,9.04 -0.13,2.60 -3.29,6.76 -1.74,9.21 0.90,1.43 2.88,2.17 4.35,2.86 3.98,1.86 8.26,2.48 12.60,2.47 1.61,0 4.65,-0.51 5.94,-1.58 0.67,-0.56 0.51,-1.77 0.61,-2.56 0.25,-2.07 0.26,-4.64 1.33,-6.48 2.64,-4.57 5.99,-8.75 8.93,-13.14 1.33,-1.99 3.18,-4.26 3.75,-6.65 C 44.48,13.30 44.25,9.37 42.39,7.48 40.19,5.25 36.73,5.33 33.97,6.15 M 23.85,4.18 c -3.32,1.03 -5.62,6.10 -5.63,9.38 -0.03,1.05 -0.41,2.98 0.68,3.58 -0.47,-3.77 0.27,-9.43 3.78,-11.75 2.42,-1.59 7.92,-1.86 9.97,0.50 1.27,1.46 1.28,3.78 1.05,5.61 -0.36,2.98 -2.89,4.95 -4.06,7.50 2.13,-0.60 4.58,-5.36 4.69,-7.50 0.11,-2.16 -0.91,-4.40 1.78,-5.13 5.40,-1.45 7.31,3.50 7.10,7.78 -0.23,1.59 -1.12,3.98 -1.99,5.36 -1.95,3.09 -3.87,6.46 -6.29,9.21 -0.77,0.87 -3.07,4.69 -4.50,2.96 -0.49,-0.59 0.14,-1.41 0.45,-1.94 1.08,-1.80 2.31,-3.45 3.36,-5.29 -2.09,1.03 -2.56,4.48 -4.77,5.80 -1.16,0.68 -3.47,-0.33 -3.70,-1.70 -0.23,-1.40 0.62,-3.26 1.31,-4.43 -1.53,1.13 -1.14,3.28 -2.45,4.31 -0.68,0.53 -1.93,0.13 -2.68,-0.04 -0.79,-0.19 -2.03,-0.28 -2.60,-0.93 -0.42,-0.47 -0.27,-1.36 -0.27,-1.96 -0.00,-1.32 -0.17,-2.64 -0.51,-3.92 0,0 0.38,4.30 -0.48,5.40 -0.82,1.04 -4.19,0.71 -4.45,-0.46 l -0.34,-3.92 c -0.44,1.23 -0.05,2.55 -0.50,3.75 -0.27,0.71 -1.80,1.72 -2.29,0.65 -0.43,-0.96 -0.19,-2.66 -0.29,-3.72 -0.14,-1.48 -0.62,-3.15 -1.00,-4.60 0,0 0.48,4.51 0.51,6.65 0.01,0.93 -0.26,3.00 -0.90,2.04 C 8.06,25.55 8.28,24.44 7.82,22.55 7.47,21.13 6.71,19.41 6.35,18.00 5.40,14.31 5.78,9.92 7.69,6.57 10.15,2.25 16.78,0.55 21.12,2.60 c 0.90,0.42 2.16,0.71 2.73,1.57 M 13.09,11.00 13.23,11.23 C 13.43,8.70 15.04,5.33 17.70,4.69 15.08,3.60 12.22,8.89 13.09,11.00 M 38.01,9.13 c 0.56,1.37 1.11,2.64 0.83,4.18 -0.10,1.22 -0.89,2.63 -1.17,3.84 1.79,-1.48 2.63,-6.49 0.34,-8.02 M 29.31,42.92 C 22.93,39.56 13.71,37.80 6.61,39.68 6.73,37.02 8.43,34.67 8.64,32.00 c 0.07,-0.90 -0.22,-2.56 0.45,-3.29 1.05,-1.11 3.62,-0.81 5.01,-0.80 4.57,0.05 9.61,0.90 13.65,3.16 1.02,0.57 2.65,1.09 3.30,2.12 0.58,0.91 -0.56,2.03 -0.85,2.89 -0.68,1.98 -0.91,4.72 -0.91,6.82 m -1.47,0.21 c 0.82,0.52 1.34,0.94 0.62,1.38 -4.21,1.99 -9.20,0.99 -13.49,-0.53 -1.10,-0.39 -4.28,-1.18 -4.17,-2.75 0.12,-1.65 2.86,-1.39 3.91,-1.39 4.56,0.18 8.96,1.04 13.12,3.30 z" />
</svg>
