<?xml version="1.0" encoding="UTF-8" standalone="no"?>
<!-- Created with Inkscape (http://www.inkscape.org/) -->
<svg xmlns:dc="http://purl.org/dc/elements/1.1/" xmlns:cc="http://creativecommons.org/ns#" xmlns:rdf="http://www.w3.org/1999/02/22-rdf-syntax-ns#" xmlns:svg="http://www.w3.org/2000/svg" xmlns="http://www.w3.org/2000/svg" version="1.1" width="100%" height="100%" viewBox="0 0 48 48" id="svg2">
<defs id="defs23" />
<path d="m 45.96,29.23 c -0.75,-1.13 -2.38,-1.90 -3.30,-2.70 -1.07,-0.24 -1.99,-0.77 -2.92,-1.20 -0.98,-0.44 -1.94,-0.81 -2.92,-1.20 -2.96,-1.17 -5.79,-2.50 -7.80,-4.57 -0.69,-0.71 -1.29,-1.59 -1.72,-2.40 -0.25,-0.48 -0.45,-1.35 -0.82,-1.57 -0.62,-0.37 -1.77,-0.03 -2.40,-0.30 0.58,-2.07 -1.69,-2.82 -1.57,-4.50 0.11,-1.62 1.99,-1.58 2.77,-0.67 0.25,0.29 0.40,1.09 1.12,0.82 0.24,-0.42 -0.26,-0.89 -0.52,-1.20 -0.32,-0.38 -0.71,-0.76 -1.20,-0.90 -1.24,-0.34 -2.71,0.34 -2.85,1.80 -0.19,2.14 1.92,2.25 1.65,4.65 -0.94,0.24 -2.09,-0.05 -2.62,0.30 -0.32,0.21 -0.80,1.57 -1.12,2.10 -0.42,0.70 -0.98,1.48 -1.42,1.95 -2.32,2.49 -5.92,3.47 -9.30,4.95 -1.21,0.52 -2.44,1.15 -3.67,1.80 -1.66,0.86 -3.50,1.70 -4.05,3.37 -0.14,0.44 -0.37,1.56 0.22,2.10 0.86,0.23 1.67,-0.98 2.62,-1.20 0.47,-0.10 1.33,0 2.10,0 h 2.62 c 8.28,0 19.76,0.07 29.79,0.07 1.71,0 3.66,-0.20 4.95,0.07 0.94,0.20 1.57,1.39 2.70,1.27 0.68,-0.93 0.17,-2.14 -0.30,-2.85 z M 25.78,10.32 C 25.35,9.79 25.00,9.20 24.13,9.12 24.95,8.95 25.51,9.69 25.78,10.32 z M 23.45,9.04 c 0.15,-0.04 0.57,-0.03 0.60,0 0.07,0.09 -0.38,0.04 -0.45,0.07 -0.27,0.12 -1.03,0.46 -1.27,0.82 0.25,-0.50 0.82,-0.82 1.12,-0.90 z m -1.27,1.05 c 0.30,0.02 -0.05,0.55 -0.07,0.75 0.41,1.60 1.88,2.48 1.72,4.42 C 23.46,14.94 23.68,14.70 23.60,14.29 23.32,12.79 21.57,12.06 22.18,10.09 z m 4.20,5.70 c 0.90,1.76 1.67,3.29 3.07,4.57 2.21,2.02 6.03,3.30 9.15,4.65 1.43,0.62 2.46,1.17 3.90,1.72 1.27,0.97 2.87,1.62 3.37,3.37 -3.26,-4.79 -12.03,-5.35 -16.43,-9.15 -1.43,-1.24 -2.30,-2.74 -3.22,-4.65 -1.24,-0.42 -3.24,-0.71 -4.57,-0.22 -0.82,0.30 -0.82,1.10 -1.35,1.65 -0.30,-0.11 0.22,-0.60 0.30,-0.82 -0.23,-2.05 3.99,-1.47 5.77,-1.12 z M 3.19,27.73 C 8.36,24.17 16.90,23.35 20.00,17.60 c 0.23,0.31 -0.20,0.65 -0.37,0.97 0.33,-0.06 0.38,-0.41 0.52,-0.67 -1.38,3.32 -4.72,4.64 -8.32,6.15 -1.65,0.69 -3.35,1.43 -5.10,2.25 -2.01,0.93 -4.28,1.88 -5.10,3.90 -0.03,-1.08 0.83,-1.96 1.57,-2.47 z m -0.45,3.30 c -0.04,0.13 -0.20,0.01 -0.07,0 4.26,-2.36 8.42,-4.83 12.75,-7.12 -4.15,2.44 -8.39,4.80 -12.68,7.12 z M 23.60,19.62 c 0.70,0.17 0.97,0.26 1.92,0.89 0.73,0.48 1.32,0.84 1.97,1.20 4.66,2.61 9.64,5.26 14.18,8.10 -3.96,-0.13 -8.95,-0.01 -13.12,0.00 l -2.42,-0.01 C 20.43,29.67 13.50,29.72 5.82,29.68 11.64,26.22 17.75,23.05 23.60,19.62 z m -8.10,4.27 c 0.62,-0.42 1.27,-0.82 2.02,-1.12 -0.25,0.20 -1.38,0.81 -2.02,1.12 z m 2.17,-1.20 c 0.57,-0.44 1.25,-0.79 1.95,-1.12 -0.58,0.44 -1.27,0.78 -1.95,1.12 z M 5.14,30.35 c 0.35,0.03 1.47,-0.28 1.87,0.07 -0.47,-0.08 -1.59,0.11 -1.87,-0.07 z m 1.95,-0.07 c 0.99,0.05 1.43,0.03 2.25,0.07 -0.55,0.07 -1.81,0.21 -2.25,-0.07 z m 2.40,0.07 h 0.45 c 5.62,-0.04 11.63,0.10 17.40,-0.07 -5.78,-0.03 -13.80,0.02 -22.21,-0.15 0.55,-0.38 2.14,-0.33 3.37,-0.30 3.58,0.09 8.71,0.11 13.65,0.06 l 0.04,0.02 9.05,0.07 -0.01,-0.02 c 2.56,0.03 5.07,0.03 7.27,0.01 1.28,-0.01 2.65,-0.16 3.82,0.22 -5.60,0.15 -9.98,-0.02 -14.93,0.07 5.44,0.19 11.20,-0.01 15.30,0.15 C 30.38,30.54 20.18,30.57 9.50,30.35 z m 36.54,1.35 C 39.91,28.26 33.84,24.75 27.73,21.27 h -0.52 c -1.04,-0.76 -2.28,-1.31 -3.45,-1.95 -1.25,0.61 -2.41,1.33 -3.60,2.02 -1.83,0.43 -3.59,1.71 -5.17,2.62 -4.47,2.56 -9.04,4.96 -13.50,7.42 0.70,-3.28 4.35,-4.69 7.27,-5.92 2.37,-1.00 4.80,-1.88 6.82,-2.92 0.16,0.17 -0.44,0.19 -0.45,0.45 1.88,-1.04 3.89,-2.65 5.17,-4.87 0.34,-0.59 0.84,-1.82 1.42,-1.87 0.85,-0.07 1.24,0.93 2.10,1.05 -0.08,-0.31 -0.48,-0.32 -0.67,-0.52 0.43,-0.03 0.93,0.51 1.42,0.67 -0.39,-0.52 -1.10,-0.74 -1.72,-1.05 -0.05,0.20 0.15,0.14 0.22,0.22 -0.25,0.12 -0.56,-0.33 -0.90,-0.37 1.25,-0.37 2.96,-0.29 3.97,0.22 0.61,1.29 1.19,2.45 2.02,3.45 3.42,4.11 10.44,4.59 14.70,7.87 h 0.37 c 0.88,0.84 1.98,1.46 2.47,2.70 -0.32,-0.05 -0.46,-0.28 -0.75,-0.37 0.34,0.51 1.31,0.68 1.05,1.57 z" />
</svg>
