<?xml version="1.0" encoding="UTF-8" standalone="no"?>
<!-- Created with Inkscape (http://www.inkscape.org/) -->
<svg xmlns:dc="http://purl.org/dc/elements/1.1/" xmlns:cc="http://creativecommons.org/ns#" xmlns:rdf="http://www.w3.org/1999/02/22-rdf-syntax-ns#" xmlns:svg="http://www.w3.org/2000/svg" xmlns="http://www.w3.org/2000/svg" version="1.1" width="100%" height="100%" viewBox="0 0 48 48" id="svg2">
<defs id="defs4" />
<path d="m 11.90,4.72 c -0.04,7.66e-5 -0.08,0 -0.13,0 C 11.10,4.78 10.58,5.15 10.29,5.60 10.02,5.99 9.76,6.23 9.55,6.76 9.32,7.36 9.19,8.48 9.34,9.42 c -0.44,1.89 -0.39,3.25 -0.40,5.20 -0.25,0.40 -0.34,0.85 -0.28,1.43 0.03,0.33 0.06,0.59 0.09,0.82 -0.99,-0.26 -1.93,-0.43 -2.73,-0.43 -0.89,0 -1.74,-0.00 -2.39,0.20 -0.57,0.18 -0.98,0.54 -1.15,1.23 -0.44,1.86 -0.33,3.82 -0.56,5.73 -0.18,1.46 0.47,3.01 0.24,4.33 -0.48,1.45 -0.29,3.27 0.52,4.57 1.41,1.32 3.18,2.20 4.86,3.15 0.33,0.20 0.78,0.47 1.21,0.17 0.40,-0.25 0.64,-0.34 1.28,-0.47 1.22,0.81 3.37,2.41 4.48,3.15 0.71,0.47 0.94,0.99 1.36,1.49 3.03,1.63 6.88,2.61 10.31,2.85 3.11,0.20 6.30,0.20 9.32,-0.80 1.94,-0.64 4.41,-1.59 4.81,-3.74 0.25,-1.36 0.05,-2.93 -1.03,-3.89 -0.11,-1.50 -0.23,-3.12 -1.50,-4.21 -0.82,-0.71 -1.70,-1.36 -2.60,-1.98 0,3.11e-4 0.00,-3.05e-4 0.00,0 2.78,0.18 5.61,0.02 8.31,-0.71 0.71,-0.20 1.42,-0.66 1.96,-1.22 0.58,-0.61 0.88,-1.39 0.83,-2.32 C 46.26,22.98 45.77,22.14 45.41,21.25 45.39,20.70 45.33,20.18 45.18,19.53 44.71,17.48 42.95,15.96 40.92,15.45 38.57,14.85 36.24,14.09 33.97,13.21 33.59,12.30 32.78,11.94 31.94,11.62 31.77,11.40 31.47,11.25 31.10,11.29 c -0.27,-0.12 -0.54,-0.26 -0.79,-0.44 -0.13,-0.09 -0.27,-0.20 -0.41,-0.30 0,-0.06 0.00,-0.12 0,-0.18 -0.06,-0.30 -0.39,-0.56 -0.81,-0.49 -0.00,0 -0.02,0 -0.04,0 0,0 -0.00,-0.00 -0.00,-0.00 0.32,-0.24 0.25,-0.51 0.09,-0.75 C 28.94,8.80 28.74,8.85 28.35,8.73 28.34,8.41 28.38,7.87 28.04,7.56 27.70,7.25 27.60,7.20 27.27,7.12 27.01,6.38 26.66,5.91 25.98,5.84 25.31,5.78 24.60,6.39 24.29,7.00 24.03,6.89 23.77,6.81 23.48,6.86 22.86,6.94 22.32,7.23 21.82,7.54 21.52,7.72 21.25,7.96 20.95,8.01 20.62,8.07 20.28,7.96 19.85,7.81 17.53,7.00 15.85,6.20 13.57,5.22 13.26,5.09 12.39,4.75 12.06,4.73 c -0.05,0 -0.10,-0.00 -0.15,-0.00 z m 0.03,0.68 c 0.20,0 0.99,0.24 1.18,0.33 0.94,0.40 2.24,0.88 3.59,1.51 C 18.06,7.88 19.83,8.51 20.58,8.71 20.53,8.94 20.42,9.15 20.38,9.52 20.04,9.48 19.20,9.18 18.89,9.05 17.64,8.56 16.39,7.95 15.21,7.41 14.04,6.89 12.95,6.52 12.31,6.43 11.80,6.35 10.61,6.35 10.46,7.05 10.27,6.87 10.48,5.91 11.06,5.59 11.31,5.46 11.73,5.41 11.94,5.41 z m 13.93,0.83 c 0.02,0 0.06,0 0.09,0 0.27,0.00 0.76,0.66 0.78,0.93 -0.25,0 -0.39,0.10 -0.47,0.25 0,-0.39 0.01,-0.61 -0.23,-0.72 -0.41,-0.17 -0.74,0.25 -1.02,0.54 l -0.02,0 c -0.07,-0.01 -0.15,-0.04 -0.23,-0.06 l -0.00,0 -0.02,-0.00 c 0.23,-0.39 0.68,-0.87 1.16,-0.90 z M 11.58,6.84 c 0.13,0 0.28,0 0.40,0.01 0.62,0.08 1.95,0.44 3.05,0.89 1.19,0.48 2.52,1.15 3.69,1.61 0.52,0.20 1.07,0.38 1.64,0.53 C 20.25,11.47 17.88,12.19 16.43,11.89 15.61,11.72 14.30,11.16 13.38,10.68 12.49,10.21 11.88,9.56 11.33,8.78 11.12,8.50 10.73,8.07 10.57,7.49 10.68,7.22 10.93,7.03 11.19,6.92 c 0.10,-0.05 0.24,-0.06 0.38,-0.07 z m 14.19,0.15 c 0.02,3.53e-4 0.05,-4.15e-4 0.09,0 0.04,0.00 0.08,0.03 0.10,0.06 -0.20,0.13 -0.38,0.20 -0.56,0.22 0.13,-0.16 0.16,-0.31 0.35,-0.30 z M 10.11,7.30 c 0.42,2.15 2.48,3.94 4.14,4.59 1.41,0.54 3.48,0.99 4.61,0.61 1.26,-0.41 1.40,-0.80 2.01,-1.43 0.32,0.27 0.80,0.78 1.27,1.30 -0.80,0.58 -1.67,1.15 -2.68,1.29 -1.84,0.24 -3.80,0.11 -5.50,-0.70 -0.92,-0.43 -0.89,-0.19 -2.67,-1.82 C 10.61,10.54 10.21,9.64 9.95,8.77 9.82,8.39 10.03,7.60 10.11,7.30 z m 17.03,0.23 c 0.44,0.05 0.58,0.13 0.74,0.54 0.12,0.33 0.01,0.63 -0.12,0.79 0.09,-0.51 -0.62,-1.03 -1.15,-1.15 0.20,-0.11 0.42,-0.20 0.53,-0.19 z m -3.55,0.03 c 0.22,0 0.40,0.10 0.54,0.16 0.13,0.05 0.29,0.16 0.47,0.30 -0.06,0.09 -0.12,0.20 -0.16,0.33 -0.14,0.48 0.38,1.04 0.88,0.84 0.08,0.24 0.10,0.54 0.16,0.80 -0.02,0 -0.06,0.00 -0.09,0.00 -0.13,-0.18 -0.37,-0.32 -0.60,-0.29 -0.48,0.05 -0.67,0.31 -0.67,0.57 -0.36,0.13 -0.70,0.31 -0.93,0.59 -0.30,0.37 -0.36,0.89 -0.31,1.38 C 22.38,11.66 21.82,11.09 21.23,10.61 20.95,9.64 21.37,8.72 22.13,8.19 c 0.31,-0.20 0.84,-0.50 1.20,-0.61 0.09,-0.02 0.17,-0.04 0.25,-0.04 z m 2.52,0.50 c 0.05,0 0.10,0 0.16,0 0.10,0.00 0.21,0.03 0.40,0.13 0.18,0.08 0.63,0.29 0.56,0.36 -0.06,0.06 -0.11,0.06 -0.17,0.06 -0.27,-0.02 -0.58,-0.06 -0.92,-0.06 -0.33,0 -0.59,0.00 -0.77,0.09 -0.17,0.07 -0.18,0.20 -0.26,0.23 -0.14,0.04 -0.29,0.01 -0.33,-0.23 -0.01,-0.14 0.16,-0.43 0.36,-0.49 0.22,-0.06 0.44,-0.06 0.76,-0.06 0.07,0 0.13,0 0.20,0 z m -0.27,0.76 c 0.13,0 0.24,0.08 0.27,0.11 0.11,0.44 0.24,1.90 0.08,2.80 -0.20,0.60 -0.49,1.35 -1.01,1.77 -0.51,0.41 -1.45,0.00 -1.74,-0.53 -0.26,-0.49 -0.24,-1.19 0.02,-1.68 0.28,-0.51 1.49,-0.82 2.04,-0.94 0,0.16 0,0.27 -0.00,0.35 -0.57,0.06 -1.21,0.20 -1.49,0.75 -0.23,0.46 -0.35,0.97 0.00,1.39 0.40,0.46 1.04,0.30 1.35,-0.18 0.29,-0.48 0.45,-1.01 0.50,-1.58 0.03,-0.71 -0.11,-1.36 -0.25,-2.06 0.03,-0.06 0.06,-0.19 0.20,-0.20 z m 0.86,0.06 c 0.04,0 0.09,0 0.13,0 0.22,0.01 0.39,0 0.50,0.10 0.23,0.13 -0.02,0.28 0.02,0.53 l 0.06,0.99 c 0.19,0.62 0.47,1.27 0.46,1.94 -0.02,1.25 -0.41,2.47 -0.49,3.74 -0.02,0.49 -0.08,1.30 -0.10,1.47 -0.02,0.23 -0.06,0.23 -0.18,0.26 0,0.20 0.08,1.15 0.07,1.36 0,0.11 -0.16,0.15 -0.23,0.16 -0.12,0.00 -0.26,-0.02 -0.25,-0.20 0.00,-0.27 0.20,-0.95 0.20,-1.39 -0.13,-0.03 -0.11,-0.20 -0.10,-0.28 0,-0.10 0.02,-1.03 0.20,-2.06 0.07,-0.47 0.13,-0.95 0.26,-1.36 0.17,-0.59 0.25,-1.40 0.13,-2.03 -0.10,-0.60 -0.27,-1.25 -0.67,-1.73 -0.04,-0.19 -0.24,-1.25 -0.13,-1.40 0.01,-0.02 0.06,-0.03 0.10,-0.04 z m 1.70,0.13 c 0.12,-0.00 0.28,0.00 0.43,0.20 0.07,0.10 -0.14,0.28 -0.14,0.28 0,0 0,0 0,0 -0.12,-0.10 -0.25,-0.22 -0.37,-0.32 -0.02,-0.02 -0.06,-0.05 -0.09,-0.08 0.00,-0.00 0.08,-0.06 0.20,-0.06 z M 9.89,9.69 c 0.10,0.24 0.20,0.49 0.32,0.73 0.27,0.61 0.72,1.13 1.25,1.55 1.69,1.34 3.76,2.31 5.96,2.33 1.04,0.00 2.13,-0.00 3.13,-0.37 0.70,-0.25 1.31,-0.71 1.91,-1.16 0.45,0.54 0.87,1.09 1.06,1.49 -0.31,0.17 -1.65,0.96 -1.94,1.18 -0.54,0.41 -1.16,1.02 -1.74,1.63 -0.20,0.06 -0.39,0.17 -0.54,0.29 -0.15,-0.06 -0.32,-0.11 -0.47,-0.13 -0.41,-0.04 -0.76,0.13 -1.16,0.55 -0.03,0.03 -0.07,0.07 -0.12,0.11 -0.83,-0.20 -1.64,-0.47 -2.48,-0.74 -1.34,-0.43 -2.71,-0.81 -3.99,-1.62 -0.73,-0.45 -1.36,-0.95 -1.57,-1.58 -0.22,-0.68 0,-2.18 0.14,-3.00 0.08,-0.44 0.16,-0.84 0.24,-1.27 z m 17.83,0 c 0.14,0.13 0.30,0.27 0.47,0.42 -0.10,0.05 -0.22,0.11 -0.35,0.19 -0.03,-0.13 -0.07,-0.28 -0.12,-0.43 0.00,-0.06 0.00,-0.12 0.01,-0.18 z m -2.95,0.39 c 0.08,0 0.15,0.00 0.21,0.04 -0.14,0.01 -0.29,0.05 -0.44,0.08 0.05,-0.06 0.13,-0.13 0.22,-0.13 z m 4.50,0.20 c 0.11,0.00 0.13,0.07 0.14,0.13 0.01,0.08 -3.66e-4,0.19 -0.15,0.23 -0.30,0.07 -0.67,0.23 -1.19,0.59 -0.03,-0.15 -0.06,-0.30 -0.10,-0.47 0.48,-0.30 0.85,-0.44 1.16,-0.49 0.05,-0.00 0.10,-0.00 0.13,0 z m -2.59,0.59 c 0.01,0.00 0.04,0.08 0.07,0.20 -0.05,0.04 -0.11,0.08 -0.17,0.13 0.03,-0.17 0.06,-0.30 0.07,-0.33 0,0 0,-0.00 0.00,0 z M 29.40,11.10 c 0.19,0.14 0.39,0.29 0.60,0.43 -0.22,0.09 -0.45,0.22 -0.67,0.36 -0.26,-0.18 -0.49,-0.33 -0.74,-0.43 0.34,-0.20 0.58,-0.29 0.80,-0.35 0,0 0,0 0.00,0 z m -4.19,0.06 c 0.09,0 0.19,0 0.21,0.00 0.01,0.11 -0.10,0.75 -0.24,1.09 -0.13,0.33 -0.45,0.65 -0.81,0.50 C 24.02,12.64 24.12,12.13 24.20,11.84 c 0.10,-0.42 0.38,-0.53 0.76,-0.63 0.04,-0.00 0.14,-0.01 0.24,-0.02 z m 1.67,0.39 c 0.03,0.17 0.06,0.35 0.09,0.53 -0.13,0.11 -0.27,0.23 -0.43,0.38 l -0.00,0 c -0.06,0.06 -0.11,0.06 -0.16,0.06 -0.02,0 -0.06,-0.01 -0.09,-0.03 0.05,-0.17 0.09,-0.35 0.13,-0.53 0.16,-0.14 0.31,-0.28 0.47,-0.40 z m 4.33,0.13 c 0.21,0 0.33,0.12 0.36,0.22 0.01,0.05 0,0.09 0,0.10 0,0.00 0,0.02 -0.07,0.03 l -0.00,0 c -0.94,0.10 -1.59,0.43 -2.15,0.85 -0.43,0.33 -0.81,0.69 -1.23,1.07 0.00,-0.04 0.01,-0.08 0.02,-0.13 0.02,-0.17 0.06,-0.35 0.07,-0.53 0.89,-0.74 1.90,-1.52 2.88,-1.61 l 0,-0.00 0.00,0 c 0.03,0 0.06,-0.00 0.09,-0.00 z m -2.95,0.01 c 0.15,0.07 0.40,0.24 0.66,0.43 -0.04,0.02 -0.08,0.06 -0.13,0.10 -0.19,-0.21 -0.38,-0.41 -0.52,-0.54 z m -0.02,0.53 c 0.07,0.07 0.16,0.15 0.24,0.23 -0.07,0.06 -0.14,0.12 -0.22,0.19 0,-0.13 -0.00,-0.28 -0.01,-0.43 z m 3.48,0.23 c 0.26,0.11 0.54,0.21 0.81,0.30 0.68,1.22 2.04,1.52 3.29,1.94 2.11,0.69 4.37,1.08 6.36,2.06 1.98,0.97 3.01,3.67 2.25,5.64 -0.64,1.66 -3.11,1.70 -4.57,1.91 -2.94,0.39 -6.87,-0.05 -8.38,-0.26 -0.56,-0.07 -1.99,-0.49 -2.55,-0.67 -0.61,-0.18 -1.99,-1.01 -3.53,-1.91 -0.01,-0.26 -0.06,-0.53 -0.13,-0.77 -0.13,-0.50 -0.38,-0.88 -0.54,-1.25 0.19,-0.13 0.40,-0.34 0.60,-0.56 0.30,0.11 0.61,0.23 0.92,0.34 -0.00,0.10 0,0.21 0.08,0.32 0.14,0.19 0.34,0.32 0.49,0.33 0.15,0.00 0.44,-0.05 0.53,-0.20 0.00,-0.00 0.00,-0.02 0.01,-0.05 0.57,0.18 1.16,0.36 1.74,0.54 1.09,-1.77 1.14,-4.04 0.79,-6.04 -0.03,-0.24 -0.18,-0.53 -0.36,-0.83 0,0 0.00,-0.00 0.01,-0.01 0.14,-0.10 0.29,-0.20 0.46,-0.29 0.37,0.27 0.73,0.53 0.95,0.64 0.68,0.35 2.04,0.36 2.85,0.76 -0.66,-0.83 -1.51,-0.56 -2.32,-0.96 -0.27,-0.13 -0.70,-0.44 -1.02,-0.67 0.27,-0.10 0.60,-0.18 0.99,-0.23 0.05,0 0.11,-0.02 0.16,-0.04 z m -4.68,0.20 c 0.00,0.35 -0.03,0.71 -0.09,1.07 -3.86e-4,0 3.87e-4,0 0,0 -0.09,0.13 -0.12,0.29 -0.07,0.46 5.69e-4,0 -6.13e-4,0 0,0 -0.04,0.24 -0.08,0.48 -0.12,0.73 -0.11,0.94 -0.45,3.02 -0.07,3.02 0.00,0.26 -0.10,0.41 -0.20,0.61 -0.25,-0.08 -0.47,-0.18 -0.68,-0.26 0.29,-0.48 0.45,-1.05 0.20,-1.54 -0.25,-0.51 -0.61,-0.78 -1.12,-0.84 -0.22,-0.70 -0.53,-1.41 -0.90,-2.07 0.14,0.06 0.31,0.10 0.48,0.12 0.66,0.05 1.24,-0.37 1.57,-0.92 0.02,-0.04 0.04,-0.09 0.06,-0.14 0.00,0.00 0.03,0.00 0.05,0.01 0.07,0.04 0.15,0.07 0.24,0.09 0.22,0.03 0.48,-0.04 0.64,-0.36 z m 2.23,0.89 c 0.06,0.13 0.11,0.29 0.14,0.46 0.40,1.80 0.29,3.81 -0.49,5.51 -0.46,-0.18 -0.98,-0.37 -1.50,-0.55 -0.04,-0.33 -0.11,-0.68 -0.12,-0.87 0.07,0.00 0.30,-0.17 0.32,-0.37 0.02,-0.35 0.02,-1.14 0.09,-1.64 0.06,-0.51 0.13,-0.90 0.20,-1.28 0.07,-0.05 0.15,-0.13 0.22,-0.25 0.40,-0.33 0.76,-0.66 1.10,-0.96 z m -19.91,1.07 c 1.46,1.73 3.65,2.41 5.78,3.02 0.64,0.18 1.28,0.37 1.91,0.56 -0.19,0.11 -0.40,0.21 -0.61,0.28 C 15.52,18.27 14.59,17.99 13.65,17.64 12.15,17.08 10.54,16.46 9.47,15.22 9.39,14.99 9.35,14.90 9.36,14.65 z m 14.48,0 c 0.22,0.40 0.38,0.86 0.50,1.32 -1.06,0.13 -1.84,0.51 -2.82,1.03 -0.20,-0.09 -0.47,-0.13 -0.76,-0.13 0.37,-0.36 0.74,-0.75 1.16,-1.07 0.59,-0.44 1.23,-0.81 1.91,-1.16 z M 9.44,15.76 c 1.68,1.52 3.84,2.29 6.01,2.95 -1.05,0.05 -2.18,-0.24 -3.15,-0.63 -0.94,-0.33 -1.92,-0.68 -2.86,-0.98 -0.04,-0.43 -0.00,-0.89 0.02,-1.27 z m 14.99,0.75 c 0.57,-0.02 0.84,0.15 1.02,0.47 0.13,0.24 0.21,0.74 0.06,1.04 -0.31,0.61 -0.94,1.08 -1.54,1.36 -0.79,0.36 -1.83,0.29 -2.68,0.23 -0.38,-0.02 -1.51,-0.12 -0.83,-0.47 1.50,0.38 3.32,0.26 4.42,-0.96 0.55,-0.62 -0.20,-1.49 -0.94,-1.27 -1.04,0.30 -2.42,0.65 -3.05,1.18 -0.40,0.34 -1.11,1.23 -1.22,1.16 -0.25,-0.39 0.93,-1.61 1.77,-1.94 0.88,-0.34 1.77,-0.66 2.73,-0.79 0.08,-0.00 0.17,-0.01 0.26,-0.02 z M 5.13,17.00 c 0.11,0 0.23,0 0.33,0 3.19,0.18 5.98,1.76 9.01,2.67 0.93,0.27 1.91,-0.17 2.67,-0.54 0.67,-0.32 1.12,-0.98 1.69,-0.89 -0.00,0.06 -0.01,0.13 -0.02,0.20 -3.29e-4,0 3.24e-4,0 0,0 -0.04,0.09 -0.08,0.20 -0.13,0.33 -0.84,0.29 -1.66,0.72 -2.32,1.34 -0.36,0.35 -0.88,0.66 -1.20,0.70 -0.73,0.12 -1.34,-0.13 -1.97,-0.35 C 11.26,19.78 8.60,18.85 6.61,18.39 5.41,18.12 4.15,18.32 3.53,19.03 3.08,19.56 3.68,20.86 3.95,21.21 4.76,22.24 6.11,23.66 7.07,23.99 5.85,23.60 4.89,23.12 3.67,21.48 3.13,20.75 2.67,19.43 2.93,18.50 3.06,17.96 3.49,17.28 4.06,17.14 4.35,17.07 4.77,17.02 5.13,17.00 z M 20.37,17.35 c 0.21,0 0.41,0.02 0.50,0.03 -0.42,0.17 -0.70,0.33 -0.94,0.62 -0.17,0.21 -0.47,0.80 -0.62,1.09 -0.13,-0.48 -0.22,-0.61 -0.01,-1.02 0.13,-0.26 0.21,-0.32 0.43,-0.50 0.18,-0.15 0.42,-0.20 0.64,-0.21 z m 3.82,0.06 c 0.21,0 0.35,0.03 0.44,0.10 0.01,0.13 0.03,0.27 0.05,0.40 -0.00,0.01 -0.00,0.03 -0.02,0.06 -0.14,0.26 -0.49,0.47 -0.69,0.62 -0.22,-0.16 -1.02,-0.77 -1.04,-0.85 0.33,-0.19 0.84,-0.34 1.27,-0.35 z M 22.20,17.93 c 0.30,0.05 1.15,0.57 1.38,0.82 -0.13,0.17 -0.24,0.19 -0.40,0.21 -0.45,-0.15 -1.29,-0.75 -1.50,-0.85 0.09,-0.03 0.43,-0.14 0.53,-0.19 z m -0.92,0.43 c 0.40,0.19 0.87,0.45 1.09,0.60 -0.24,4.37e-4 -0.59,0.00 -0.90,-0.00 -0.01,-0.01 -0.04,-0.04 -0.06,-0.06 -0.11,-0.08 -0.24,-0.20 -0.37,-0.33 0.11,-0.07 0.22,-0.16 0.26,-0.20 z M 5.80,18.65 c 0.29,0 0.61,0.01 0.91,0.09 1.22,0.27 3.16,1.17 5.19,1.82 1.33,0.41 2.80,1.37 4.26,0.41 -0.15,0.28 -0.20,0.57 -0.26,0.73 -0.09,0.31 -0.15,0.40 -0.28,0.66 -1.28,0.41 -2.44,1.63 -3.80,2.11 -0.30,0.10 -1.74,0.70 -3.43,-0.09 C 6.89,23.90 6.25,23.14 5.19,22.08 4.78,21.66 4.21,21.13 3.86,20.37 3.68,19.98 3.74,19.38 3.92,19.18 4.12,18.97 4.91,18.67 5.80,18.65 z m 13.22,0.91 c 0.20,-0.02 0.68,0.22 0.98,0.47 0.37,0.30 0.57,0.72 0.47,0.75 -0.08,-0.12 -0.37,-0.34 -0.68,-0.53 -0.40,-0.25 -0.96,-0.54 -0.84,-0.67 0.00,-0.00 0.03,-0.02 0.06,-0.02 z m -0.68,0.04 c 0.04,0 0.08,0 0.13,0 -0.01,0.07 -0.05,0.17 -0.08,0.26 -0.07,0.04 -0.15,0.08 -0.17,0.17 -0.01,0.09 0,0.19 0.02,0.27 0,0.03 -0.01,0.06 -0.02,0.10 -0.04,0.47 -0.14,0.85 -0.01,1.23 -0.03,0.06 -0.07,0.12 -0.12,0.19 -0.47,0.02 -1.11,0.26 -1.50,0.33 0.07,-0.47 0.13,-1.08 0.75,-1.98 0.26,-0.36 0.69,-0.59 1.02,-0.61 z m 6.00,0.13 c 0.28,0.69 0.67,1.52 0.65,2.32 -0.10,-0.09 -0.20,-0.19 -0.32,-0.29 0.04,-0.27 -0.43,-1.76 -0.63,-1.86 0.10,-0.06 0.23,-0.04 0.30,-0.14 z M 23.57,20.03 c 0.16,0.27 0.29,0.47 0.40,0.67 -0.32,-0.18 -0.64,-0.36 -0.96,-0.54 0.19,-0.02 0.38,-0.06 0.56,-0.12 z m -4.81,0.04 c 0.02,0 0.05,0.00 0.08,0.00 0.20,0.02 0.54,0.29 0.73,0.43 0.17,0.12 0.70,0.34 0.83,0.62 0.05,0.10 -0.13,0.45 -0.20,0.58 -0.34,-0.55 -0.82,-0.76 -1.22,-0.96 -0.19,-0.08 -0.37,-0.27 -0.36,-0.53 0,-0.13 0.06,-0.16 0.13,-0.16 z m 1.91,0 c 0.24,0.02 0.50,0.06 0.76,0.08 0.32,0.27 0.65,0.54 1.00,0.81 1.20,0.95 2.37,2.20 3.88,2.66 0.92,0.80 1.54,1.84 2.77,2.18 -0.54,0.39 -2.58,-0.85 -3.73,-0.87 -0.47,-0.05 -0.93,-0.15 -1.38,-0.29 0.23,-0.19 0.48,-0.38 0.73,-0.56 0.06,-0.06 0.11,-0.13 0.14,-0.20 0.13,-0.27 0.01,-0.59 -0.19,-0.80 -0.22,-0.20 -0.55,-0.28 -0.85,-0.04 -0.44,0.31 -0.87,0.66 -1.27,1.03 -0.20,-0.10 -0.42,-0.20 -0.63,-0.33 0.27,-0.28 0.59,-0.55 0.94,-0.76 0.00,0 0.02,0 0.03,0 0.20,-0.05 0.34,-0.23 0.23,-0.55 6.98e-4,-0.14 -0.04,-0.30 -0.13,-0.42 -0.20,-0.27 -0.63,-0.34 -0.96,-0.10 -0.43,0.15 -0.98,0.66 -1.36,1.11 -0.08,-0.05 -0.18,-0.11 -0.27,-0.17 0.13,-0.75 0.48,-1.37 0.51,-2.08 0.00,-0.40 0.00,-0.41 -0.22,-0.64 z m -1.70,1.08 c 0.13,0.07 0.21,0.16 0.34,0.23 -0.00,0.27 -0.34,0.74 -0.54,1.28 -0.08,0.23 -0.20,0.56 -0.21,0.87 -0.17,1.36 -0.12,3.24 -0.47,5.18 -0.13,0.81 -0.68,1.94 -1.66,1.81 -0.80,-0.10 -1.34,-0.92 -1.67,-1.61 -0.59,-1.26 -0.11,-2.79 0.58,-3.91 0.62,-0.99 1.65,-1.65 2.64,-2.27 -0.27,0.54 -1.02,0.81 -1.47,1.28 -1.05,1.10 -1.85,2.64 -1.65,4.19 0.10,0.81 0.78,1.43 1.47,1.81 0.77,0.42 1.25,-0.61 1.34,-1.27 0.18,-1.48 0.49,-2.96 0.47,-4.47 0.08,-1.09 0.39,-2.13 0.83,-3.13 z M 2.87,21.48 c 1.09,1.80 3.00,2.83 4.98,3.48 2.16,0.69 4.91,0.50 6.59,-1.09 0.09,0.36 0.20,0.80 0.33,1.16 -0.15,0.27 -0.29,0.58 -0.40,0.89 -7.48e-4,0 7.49e-4,0 0,0 -2.24,1.06 -5.40,1.58 -7.53,0.56 -1.70,-0.81 -2.86,-2.44 -4.04,-3.89 0.01,-0.37 0.04,-0.75 0.06,-1.13 z m 16.80,0.15 c 0.06,0.06 0.12,0.13 0.16,0.22 -0.11,0.17 -0.21,0.34 -0.34,0.49 -0.09,0.10 -0.20,0.20 -0.36,0.28 0.10,-0.36 0.29,-0.70 0.54,-1.01 z m 5.80,0.52 c 0.42,0.24 0.85,0.49 1.28,0.76 2.78,1.78 7.01,2.11 10.59,2.11 2.09,2.62e-4 4.01,-0.20 6.00,-0.95 0.67,-0.24 1.67,-1.11 1.65,-1.70 0.22,0.25 0.34,0.51 0.40,1.00 -0.29,0.49 -0.96,1.02 -1.94,1.42 -1.05,0.41 -2.39,0.51 -3.35,0.63 -2.59,0.30 -5.24,0.20 -7.84,-0.11 -1.63,-0.20 -3.16,-0.72 -4.63,-1.41 -0.53,-0.56 -0.93,-1.01 -1.93,-1.17 -0.06,-0.06 -0.16,-0.15 -0.24,-0.23 -4.8e-4,-0.10 0,-0.21 0,-0.34 z m -3.06,0.06 c 0.67,0.34 -0.45,0.85 -0.70,1.14 -0.48,0.53 -1.08,1.48 -1.41,2.48 0.04,-0.42 0.05,-1.51 0.06,-1.94 0.17,-0.43 0.65,-0.78 1.08,-1.13 0.27,-0.22 0.61,-0.43 0.95,-0.53 z m -2.43,0.20 c 0.02,0.46 0.00,0.98 0.02,1.42 0.00,0.34 0,0.65 0.00,1.01 0.02,1.09 -0.02,2.19 -0.39,3.22 -0.26,0.75 -0.37,1.47 -0.51,2.25 -0.07,0.45 -0.10,1.14 -0.15,1.57 -0.06,0.61 -0.27,1.02 -0.26,1.61 -0.13,0 -0.00,0.83 -0.23,1.30 -0.19,0.42 -0.52,0.57 -0.73,0.48 -0.35,-0.14 -0.00,-0.59 0.24,-1.03 0.22,-0.38 0.39,-0.79 0.17,-0.82 0.10,-0.60 0.15,-0.90 0.27,-1.61 0.14,-0.88 0.23,-1.91 0.46,-2.72 0.15,-0.60 0.33,-0.95 0.51,-1.51 0.20,-0.62 0.20,-1.29 0.25,-2.01 0.06,-1.10 0.10,-2.25 0.06,-2.80 0.13,-0.15 0.19,-0.30 0.24,-0.37 z m -2.45,0.03 c -0.17,0.14 -0.38,0.28 -0.60,0.41 -0.65,0.38 -1.22,0.90 -1.67,1.51 -0.06,-0.35 -0.06,-0.69 0.03,-1.00 0.73,-0.33 1.45,-0.78 2.24,-0.94 z m 1.94,0.47 c -0.06,0.31 -0.33,0.71 -0.58,0.80 0,-0.08 0.10,-0.54 0.11,-0.63 0.06,-0.01 0.40,-0.13 0.47,-0.15 z M 2.78,23.45 c 1.52,1.92 3.39,3.82 5.99,4.18 1.91,0.27 3.74,-0.19 5.44,-0.96 -0.15,0.75 -0.15,1.56 0.07,2.28 -0.52,0.27 -1.03,0.55 -1.52,0.88 -0.74,0.49 -1.39,1.09 -1.84,1.88 C 10.43,32.44 8.92,30.97 7.90,30.78 6.02,30.43 4.04,29.53 3.23,27.63 2.72,26.31 2.73,24.84 2.78,23.45 z m 21.35,0.04 c 0.12,-0.00 0.20,0.04 0.23,0.20 -0.53,0.31 -0.78,0.47 -1.09,0.76 -0.66,0.61 -1.29,1.29 -1.76,2.04 -0.34,0.56 -0.54,1.20 -0.86,1.81 -0.84,0.05 0.10,-1.03 0.24,-1.39 0.81,-1.38 1.75,-2.49 3.09,-3.39 0.04,-0.01 0.09,-0.03 0.13,-0.03 z m -6.30,0.13 c 0,0.01 0,0.04 0,0.06 -0.14,0.14 -0.15,0.34 -0.08,0.52 0.01,0.05 0.06,0.11 0.09,0.16 0,0.77 -0.07,1.57 -0.19,2.36 -0.05,0.43 -0.08,0.95 -0.15,1.44 -0.00,-0.13 -0.02,-0.27 -0.05,-0.42 -0.51,-0.51 -1.15,-1.25 -1.61,-2.01 0.05,-0.10 0.11,-0.22 0.16,-0.33 0.42,-0.75 1.12,-1.30 1.83,-1.80 z m 1.58,0.18 c 0.01,0.47 0.00,1.02 -0.02,1.57 -0.25,0.15 -0.31,0.38 -0.24,0.59 0.02,0.08 0.08,0.17 0.15,0.26 -0.08,0.67 -0.22,1.33 -0.42,1.89 -0.54,1.56 -0.60,2.86 -0.83,4.35 -0.20,-0.08 -0.42,-0.17 -0.63,-0.27 -0.06,-0.48 -0.04,-0.98 0,-1.48 0.94,-0.61 1.19,-1.90 1.27,-2.96 0.06,-0.92 0.10,-2.05 0.20,-3.05 0.16,-0.10 0.28,-0.33 0.24,-0.70 0.13,-0.10 0.23,-0.19 0.29,-0.19 z m 26.16,0.07 c 0,0.31 0.01,0.34 -0.13,0.87 -0.51,1.68 -2.53,2.15 -4.12,2.35 -2.68,0.32 -5.44,0.36 -8.11,-0.11 -1.01,-0.58 -2.04,-1.12 -3.10,-1.63 2.85,0.78 5.85,0.91 8.78,0.74 1.80,-0.10 3.73,-0.19 5.36,-1.08 0.44,-0.24 1.10,-0.82 1.32,-1.13 z m -23.90,0.34 c 0.14,0.10 0.31,0.20 0.47,0.29 -0.06,0.07 -0.14,0.15 -0.21,0.23 -0.07,-0.17 -0.16,-0.35 -0.25,-0.53 z m -0.42,0.42 c 0.10,0.17 0.21,0.35 0.30,0.54 -0.47,0.56 -0.88,1.17 -1.24,1.83 0.00,-0.24 0.06,-0.48 0.14,-0.71 0.01,-0.02 0.02,-0.06 0.03,-0.10 0,-0.00 0.00,-0.02 0.00,-0.03 0.12,-0.32 0.29,-0.64 0.44,-0.96 0.07,-0.18 0.17,-0.35 0.27,-0.53 z m 2.30,0.43 c 1.40,0.40 2.92,0.52 4.24,1.17 1.43,0.49 2.66,-0.34 3.92,0.85 2.25,1.23 4.67,2.68 6.27,4.63 0.34,1.03 0.66,2.21 0.55,3.18 -0.83,1.96 -3.07,3.19 -5.11,3.46 -4.41,0.62 -8.96,0.40 -13.31,-0.62 -3.04,-0.71 -5.46,-2.75 -7.89,-4.61 -0.48,-0.36 -0.84,-0.62 -0.88,-0.94 -0.03,-0.27 0.12,-0.42 0.34,-0.72 0.44,-0.59 1.22,-1.17 1.77,-1.45 0.27,-0.13 0.64,-0.36 1.03,-0.61 0.10,0.20 0.24,0.40 0.40,0.60 0.47,0.54 1.16,1.13 1.91,0.96 -0.01,0.26 -0.02,0.53 0,0.79 0.02,0.27 0.10,0.75 0.45,0.92 0.21,0.11 0.43,0.21 0.64,0.32 -0.02,0.18 -0.06,0.36 -0.10,0.55 0.23,0.12 -0.75,1.19 -0.56,1.84 0.10,0.37 0.67,0.50 1.00,0.20 0.27,-0.25 0.45,-0.69 0.54,-1.03 0.09,-0.37 -0.16,-0.81 0,-0.78 0.03,-0.09 0.06,-0.21 0.09,-0.34 0.49,0.20 1.01,0.40 1.57,0.62 0.39,0.13 0.88,-0.38 1.17,-0.81 0.44,-0.68 0.76,-1.58 1.10,-2.25 0.51,-1.02 0.45,-2.15 0.23,-3.22 -0.10,-0.54 -0.27,-1.09 -0.48,-1.63 0.30,-0.38 0.65,-0.74 1.02,-1.07 z m -7.99,1.20 c 0.24,0.39 0.63,0.76 0.83,1.09 0.14,0.23 0.13,0.34 -0.03,0.49 -0.12,0.10 -0.33,0.20 -0.65,0.35 -0.14,0.06 -0.29,0.13 -0.45,0.21 -0.18,-0.67 0.00,-1.47 0.30,-2.18 z m 6.56,0.40 c 0.51,1.59 0.80,3.32 -0.10,4.78 -0.23,0.37 -0.48,0.98 -0.76,1.47 -0.26,0.47 -0.57,0.73 -1.18,0.42 -0.33,-0.16 -0.68,-0.32 -1.02,-0.47 0.16,-0.93 0.28,-2.18 0.43,-2.99 0.16,-0.89 0.18,-0.75 0.40,-1.44 0.19,0.25 0.40,0.36 0.63,0.36 0,3.5e-4 0,-3.28e-4 0,0 0.10,0.00 0.20,0 0.29,-0.02 0.05,-0.01 0.09,-0.06 0.14,-0.10 0,0 0.00,-0.00 0.01,-0.01 0.03,-0.02 0.06,-0.04 0.09,-0.07 0.31,-0.30 0.39,-0.85 0.56,-1.17 0.13,-0.24 0.27,-0.47 0.43,-0.70 z M 2.96,28.17 c 1.10,2.32 3.88,2.59 5.98,3.53 3.62,1.59 6.14,5.08 10.03,6.23 4.24,1.25 8.75,1.54 13.15,1.14 2.27,-0.20 5.10,-1.25 6.32,-2.72 0.31,-0.37 0.49,-0.70 0.69,-1.03 0.13,0.06 0.34,0.52 0.33,0.94 -0.81,1.56 -2.53,2.55 -4.23,2.99 -3.19,0.88 -6.56,1.00 -9.85,0.79 -3.84,-0.23 -7.82,-1.16 -10.83,-3.73 -2.17,-1.84 -4.53,-3.52 -7.25,-4.50 -1.71,-0.62 -3.69,-1.43 -4.48,-3.21 0.02,-0.13 0.09,-0.27 0.15,-0.40 z m 13.75,0.06 c 0.13,1.5e-4 0.22,0.06 0.24,0.20 0.05,0.40 0.02,0.83 -0.00,1.27 -0.44,0.38 -1.33,-0.47 -1.57,-0.88 0.54,-0.32 1.04,-0.59 1.33,-0.59 z m -13.97,1.30 c 2.13,2.63 5.86,2.80 8.46,4.81 2.59,2.02 5.13,4.34 8.41,5.20 4.72,1.23 9.76,1.48 14.55,0.54 1.79,-0.34 3.55,-1.10 4.68,-2.10 0.23,-0.20 0.65,-0.43 0.80,-0.86 0.11,0.13 0.01,1.03 -0.26,1.57 -0.28,0.55 -0.96,1.09 -1.35,1.29 -1.95,0.98 -4.03,1.84 -6.20,2.03 -5.02,0.47 -10.23,-0.21 -14.85,-2.42 C 15.90,39.10 15.74,38.33 14.73,37.65 13.12,36.57 11.72,35.60 10.05,34.63 9.63,34.85 9.07,34.98 8.65,35.17 8.41,35.13 7.84,34.92 7.51,34.74 6.05,33.93 4.43,33.12 3.23,31.90 2.82,31.19 2.83,30.36 2.75,29.56 z" id="path4" />
</svg>
