<?xml version="1.0" encoding="UTF-8" standalone="no"?>

<svg xmlns:svg="http://www.w3.org/2000/svg" xmlns="http://www.w3.org/2000/svg" xmlns:xlink="http://www.w3.org/1999/xlink" version="1.0" width="100%" height="100%" viewBox="0 0 640 480" id="groups">
<defs id="defs2385">
 <style type="text/css">
    svg#groups .disable            { display:none; }
    svg#groups text                { font-size:16px;text-anchor:middle;fill:#241c1c;font-weight:bold; fill:white; cursor:move; dominant-baseline: middle; }
    svg#groups #board text         { font-size:20px; dominant-baseline: middle;  }
    svg#groups.big #board text     { font-size:30px;  }
    svg#groups.big text            { font-size:30px; }
    svg#groups #pieces .result     { fill:white; fill-opacity:0; cursor:move; }
    svg#groups #pieces .wrong .result { fill:red; fill-opacity:0.5;}
    svg#groups #pieces .good .result  { fill:#0F0; fill-opacity:0.5;}
 </style>
</defs>

<g class="disable"><g id="template">
    <g transform="scale(0.75,0.75)">
    <rect width="152" height="48" ry="2" x="-76" y="-24" id="r5531" style="fill:#241c1c;fill-opacity:1;fill-rule:nonzero;stroke:none;marker:none;visibility:visible;display:inline;overflow:visible;enable-background:accumulate"/>
    <path d="M 107,0 A 21,21 0 1 1 65,2.57e-15 A 21,21 0 1 1 107,-5.14e-15 z" id="p6313" style="fill:#241c1c;fill-opacity:1;fill-rule:nonzero;stroke:none;marker:none;visibility:visible;display:inline;overflow:visible;enable-background:accumulate"/>
    <path d="M 103,0 A 17,17 0 1 1 69,2.08e-15 A 17,17 0 1 1 103,-4.16e-15 z" id="p6317" style="fill:#483737;fill-opacity:1;fill-rule:nonzero;stroke:none;marker:none;visibility:visible;display:inline;overflow:visible;enable-background:accumulate"/>
    <path d="M 96,0 A 10,10 0 1 1 76,1.22e-15 A 10,10 0 1 1 96,-2.44e-15 z" id="p6323" style="fill:#241c1c;fill-opacity:1;fill-rule:nonzero;stroke:none;marker:none;visibility:visible;display:inline;overflow:visible;enable-background:accumulate"/>
    <path d="M 93,0 A 7,7 0 1 1 79,8.57e-16 A 7,7 0 1 1 93,-1.71e-15 z" id="p6321" style="fill:#916f6f;fill-opacity:1;fill-rule:nonzero;stroke:none;marker:none;visibility:visible;display:inline;overflow:visible;enable-background:accumulate"/>
    <path d="M 93,0 A 7,7 0 1 1 79,8.57e-16 A 7,7 0 1 1 93,-1.71e-15 z" transform="matrix(0.55,0,0,0.55,38.35,-2.10)" id="p6327" style="fill:#ac9393;fill-opacity:1;fill-rule:nonzero;stroke:none;marker:none;visibility:visible;display:inline;overflow:visible;enable-background:accumulate"/>
    <path d="M 80.27,4.78 L 91.78,-5.03" id="p6325" style="fill:none;fill-rule:evenodd;stroke:#241c1c;stroke-width:3.70;stroke-linecap:butt;stroke-linejoin:miter;stroke-miterlimit:4;stroke-dasharray:none;stroke-opacity:1"/>
    <path d="M 107,0 A 21,21 0 1 1 65,2.57e-15 A 21,21 0 1 1 107,-5.14e-15 z" transform="translate(-172,0)" id="p6341" style="fill:#241c1c;fill-opacity:1;fill-rule:nonzero;stroke:none;marker:none;visibility:visible;display:inline;overflow:visible;enable-background:accumulate"/>
    <path d="M 103,0 A 17,17 0 1 1 69,2.08e-15 A 17,17 0 1 1 103,-4.16e-15 z" transform="translate(-172,0)" id="p6343" style="fill:#483737;fill-opacity:1;fill-rule:nonzero;stroke:none;marker:none;visibility:visible;display:inline;overflow:visible;enable-background:accumulate"/>
    <path d="M 96,0 A 10,10 0 1 1 76,1.22e-15 A 10,10 0 1 1 96,-2.44e-15 z" transform="translate(-172,0)" id="p6345" style="fill:#241c1c;fill-opacity:1;fill-rule:nonzero;stroke:none;marker:none;visibility:visible;display:inline;overflow:visible;enable-background:accumulate"/>
    <path d="M 93,0 A 7,7 0 1 1 79,8.57e-16 A 7,7 0 1 1 93,-1.71e-15 z" transform="translate(-172,0)" id="p6347" style="fill:#916f6f;fill-opacity:1;fill-rule:nonzero;stroke:none;marker:none;visibility:visible;display:inline;overflow:visible;enable-background:accumulate"/>
    <path d="M 93,0 A 7,7 0 1 1 79,8.57e-16 A 7,7 0 1 1 93,-1.71e-15 z" transform="matrix(0.55,0,0,0.55,-133.64,-2.10)" id="p6349" style="fill:#ac9393;fill-opacity:1;fill-rule:nonzero;stroke:none;marker:none;visibility:visible;display:inline;overflow:visible;enable-background:accumulate"/>
    <path d="M -81.88,6.24 L -90.04,-6.49" id="p6351" style="fill:none;fill-rule:evenodd;stroke:#241c1c;stroke-width:3.70;stroke-linecap:butt;stroke-linejoin:miter;stroke-miterlimit:4;stroke-dasharray:none;stroke-opacity:1"/>
    <rect width="144" height="40" ry="2" x="-72" y="-20" id="r6319" style="fill:#483737;fill-opacity:1;fill-rule:nonzero;stroke:none;marker:none;visibility:visible;display:inline;overflow:visible;enable-background:accumulate"/>
    <rect width="140" height="36" ry="2" x="-70" y="-18" id="r6329" style="fill:#916f6f;fill-opacity:1;fill-rule:nonzero;stroke:none;marker:none;visibility:visible;display:inline;overflow:visible;enable-background:accumulate"/>
    <path d="M -68,-18 C -69.10,-18 -70,-17.10 -70,-16 L -70,-4.84 C -50.59,-1.35 -26.33,0.71 0,0.71 C 26.33,0.71 50.59,-1.35 70,-4.84 L 70,-16 C 70,-17.10 69.10,-18 68,-18 L -68,-18 z" id="p7554" style="fill:#d0b59a;fill-opacity:0.18;fill-rule:nonzero;stroke:none;marker:none;visibility:visible;display:inline;overflow:visible;enable-background:accumulate"/>
    </g>
</g></g>


<g id="source">
    <rect width="496" height="112" ry="25" x="128" y="8" id="r6852" style="opacity:1;fill:#6f8991;fill-opacity:1;fill-rule:nonzero;stroke:none;marker:none;visibility:visible;display:inline;overflow:visible;enable-background:accumulate"/>
    <path d="M 153,8 C 139.18,8 128.05,19.10 128,32.90 C 172.89,56.21 268.29,72.31 378.65,72.31 C 484.84,72.31 577.18,57.39 624,35.5 L 624,33 C 624,19.15 612.85,8 599,8 L 153,8 z" id="p6919" style="opacity:1;fill:#d0b59a;fill-opacity:0.18;fill-rule:nonzero;stroke:none;marker:none;visibility:visible;display:inline;overflow:visible;enable-background:accumulate"/>
    <path d="M 153,8 C 152.52,8 152.06,8.00 151.59,8.03 L 128,54.5 L 128,74.34 L 170.59,8 L 153,8 z M 190.53,8 L 128,88.03 L 128,95 C 128,95.85 128.04,96.69 128.12,97.53 L 210.96,8 L 190.53,8 z M 229.56,8 L 129.28,102.96 C 129.80,104.53 130.47,106.02 131.28,107.43 L 252,8 L 229.56,8 z M 276.06,8 L 133.71,110.96 C 134.53,111.94 135.45,112.87 136.40,113.71 L 301.59,8 L 276.06,8 z M 327.96,8 L 139.37,115.96 C 140.48,116.68 141.65,117.30 142.87,117.84 L 358,8 L 327.96,8 z M 391.40,8 L 147.28,119.34 C 149.11,119.77 151.02,120 153,120 L 153.62,120 L 428.28,8 L 391.40,8 z M 463.46,8 L 161.25,120 L 171.15,120 L 510.18,8 L 463.46,8 z M 565.12,8 L 183.06,120 L 196.78,120 L 613.03,12.28 C 609.03,9.57 604.20,8 599,8 L 565.12,8 z M 623.12,26.43 L 212.87,120 L 233.34,120 L 624,42.84 L 624,33 C 624,30.72 623.69,28.53 623.12,26.43 z M 624,58.78 L 260.28,120 L 296.12,120 L 624,73.90 L 624,58.78 z M 624,86.56 L 339.06,120 L 413.87,120 L 623.31,100.90 C 623.76,99.01 624,97.03 624,95 L 624,86.56 z M 613.21,115.59 L 545.84,120 L 599,120 C 604.29,120 609.18,118.37 613.21,115.59 z" id="p6856" style="fill:#e9edc0;fill-opacity:0.19;fill-rule:evenodd;stroke:none;"/>
    <path d="M 153,8 C 142.71,8 133.93,14.16 130.09,23 C 132.45,25.70 134.07,27.58 134.09,27.68 C 134.12,27.87 131.17,36.00 128,44.71 L 128,64.56 C 139.39,59.72 158.82,51.24 159.12,51.28 C 159.54,51.33 192.56,77.48 192.93,77.28 C 193.31,77.07 189.09,35.16 189.28,34.78 C 189.46,34.39 224.54,11.07 224.46,10.65 C 224.44,10.51 219.56,9.36 213.62,8 L 153,8 z M 287.25,8 C 285.54,17.85 283.11,32.69 282.96,32.87 C 282.74,33.13 250.96,43.91 250.93,44.25 C 250.91,44.58 280.75,59.92 280.93,60.21 C 281.11,60.50 281.52,94.05 281.84,94.18 C 282.15,94.31 305.98,70.67 306.31,70.59 C 306.64,70.51 338.68,80.47 338.90,80.21 C 339.12,79.95 323.97,49.99 324,49.65 C 324.02,49.31 343.42,21.91 343.25,21.62 C 343.07,21.33 309.90,26.47 309.59,26.34 C 309.39,26.26 301.59,15.88 295.59,8 L 287.25,8 z M 483.28,8 C 482.36,9.74 481.63,11.13 481.59,11.15 C 481.46,11.23 466.43,11.39 466.37,11.53 C 466.31,11.67 476.87,22.38 476.90,22.53 C 476.94,22.67 472.44,37.02 472.56,37.12 C 472.67,37.22 486.12,30.45 486.28,30.46 C 486.43,30.48 498.68,39.20 498.81,39.12 C 498.94,39.04 496.69,24.17 496.75,24.03 C 496.80,23.89 508.87,14.92 508.84,14.78 C 508.80,14.63 493.95,12.19 493.84,12.09 C 493.80,12.06 493.16,10.20 492.40,8 L 483.28,8 z M 610.78,10.93 C 610.22,11.83 609.65,12.76 609.62,12.78 C 609.46,12.86 591.64,11.90 591.56,12.06 C 591.48,12.22 603.18,25.69 603.21,25.87 C 603.25,26.05 596.83,42.71 596.96,42.84 C 597.09,42.96 613.53,35.97 613.71,36 C 613.83,36.01 619.83,40.86 624,44.18 L 624,33 C 624,23.41 618.65,15.13 610.78,10.93 z M 528.21,31.34 C 527.91,31.46 527.11,63.56 526.93,63.84 C 526.76,64.11 498.01,78.42 498.03,78.75 C 498.05,79.07 528.35,89.78 528.56,90.03 C 528.73,90.24 532.15,113.06 533.37,120 L 535.59,120 C 540.36,114.04 553.68,96.66 553.93,96.56 C 554.24,96.44 585.91,101.77 586.09,101.5 C 586.26,101.22 568.05,74.76 568.03,74.43 C 568.01,74.11 582.86,45.62 582.65,45.37 C 582.44,45.12 551.65,54.30 551.34,54.21 C 551.02,54.13 528.52,31.22 528.21,31.34 z M 398.09,36.5 C 397.66,36.63 393.39,81.16 393.12,81.53 C 392.85,81.89 351.53,98.98 351.53,99.43 C 351.52,99.89 392.54,117.69 392.81,118.06 C 392.84,118.10 392.94,118.84 393.06,120 L 460.56,120 C 454.91,110.26 449.21,100.50 449.21,100.28 C 449.22,99.82 472.60,61.71 472.34,61.34 C 472.08,60.97 428.39,70.67 427.96,70.53 C 427.53,70.38 398.52,36.36 398.09,36.5 z M 220.46,78.15 C 220.25,78.08 205.21,95.14 205,95.21 C 204.78,95.28 182.66,90.03 182.53,90.21 C 182.39,90.40 194.00,109.95 194,110.18 C 193.99,110.30 191.07,115.13 188.15,120 L 222.5,120 C 222.50,119.97 222.52,119.66 222.53,119.65 C 222.66,119.47 243.65,110.73 243.65,110.5 C 243.65,110.26 222.75,101.24 222.62,101.06 C 222.49,100.87 220.68,78.22 220.46,78.15 z" id="p7586" style="opacity:1;fill:#e8ff09;fill-opacity:0.14;fill-rule:nonzero;stroke:none;marker:none;visibility:visible;display:inline;overflow:visible;enable-background:accumulate"/>
</g>


<g id="board">
    <g id="bg" transform="translate(0,-20)"><g transform="scale(1,1.15)">
        <rect width="496" height="245.74" ry="25" x="128" y="128" id="r6854" style="opacity:1;fill:#916f6f;fill-opacity:1;fill-rule:nonzero;stroke:none;marker:none;visibility:visible;display:inline;overflow:visible;enable-background:accumulate"/>
        <path d="M 306.09,128 C 317.33,146.62 332.99,172.18 333,172.65 C 333.00,173.39 295.90,236.65 296.34,237.25 C 296.78,237.84 368.07,220.49 368.78,220.71 C 369.49,220.94 418.17,275.79 418.87,275.56 C 419.57,275.32 425.10,202.16 425.53,201.56 C 425.96,200.95 493.16,171.58 493.15,170.84 C 493.14,170.10 425.31,142.25 424.87,141.65 C 424.75,141.49 424.14,135.80 423.31,128 L 306.09,128 z M 571.09,128 C 564.86,156.82 555.70,201.09 555.25,201.59 C 554.57,202.33 459.61,230.19 459.5,231.18 C 459.38,232.18 545.47,281.00 545.96,281.87 C 546.37,282.60 544.50,350.42 544.37,373.75 L 554.40,373.75 C 574.40,356.09 618.70,315.68 619.46,315.53 C 619.59,315.50 621.27,316.05 624,316.96 L 624,170.84 C 615.66,158.88 604.02,142.05 594.21,128 L 571.09,128 z M 220.56,131.12 C 219.29,130.99 158.85,241.66 157.75,242.31 C 157.41,242.50 144.37,242.45 128,242.37 L 128,348.75 C 128,362.6 139.15,373.74 153,373.75 L 284.46,373.75 C 283.09,362.26 282.06,353.41 282.18,353.12 C 282.70,351.95 385.64,279.15 385.37,277.90 C 385.10,276.65 261.17,253.34 260.21,252.5 C 259.26,251.65 221.83,131.25 220.56,131.12 z M 362.12,313.5 C 361.65,313.83 372.62,365.25 374.18,373.75 L 456.84,373.75 C 459.48,362.21 471.00,315.58 470.56,315.25 C 470.06,314.87 416.47,345.94 415.84,345.93 C 415.21,345.92 362.63,313.13 362.12,313.5 z" id="p7987" style="opacity:1;fill:#b39382;fill-opacity:0.29;fill-rule:nonzero;stroke:none;marker:none;visibility:visible;display:inline;overflow:visible;enable-background:accumulate"/>
        <path d="M 372,128 L 372,373.74" id="r7584" style="stroke:#e0d7d7;stroke-width:2.12;stroke-linecap:butt;stroke-opacity:0.40;"/>
    </g></g>

    <g id="screens">
        <rect width="224.37" height="65.64" ry="13.12" x="380.50" y="146.85" id="r7973" style="opacity:1;fill:#0e0e17;fill-opacity:1;fill-rule:nonzero;stroke:none;marker:none;visibility:visible;display:inline;overflow:visible;enable-background:accumulate"/>
        <rect width="195.03" height="57.05" ry="11.41" x="395.17" y="151.14" id="r7975" style="opacity:1;fill:#1d1d42;fill-opacity:1;fill-rule:nonzero;stroke:#1c1c24;stroke-width:0;stroke-linecap:butt;stroke-linejoin:round;marker:none;stroke-miterlimit:4;stroke-dasharray:none;stroke-dashoffset:0;stroke-opacity:1;visibility:visible;display:inline;overflow:visible;enable-background:accumulate"/>
        <rect width="224.37" height="65.64" ry="13.12" x="139.90" y="146.85" id="r7971" style="opacity:1;fill:#0e0e17;fill-opacity:1;fill-rule:nonzero;stroke:none;marker:none;visibility:visible;display:inline;overflow:visible;enable-background:accumulate"/>
        <rect width="195.03" height="57.05" ry="11.41" x="154.57" y="151.14" id="r7643" style="opacity:1;fill:#1d1d42;fill-opacity:1;fill-rule:nonzero;stroke:#1c1c24;stroke-width:0;stroke-linecap:butt;stroke-linejoin:round;marker:none;stroke-miterlimit:4;stroke-dasharray:none;stroke-dashoffset:0;stroke-opacity:1;visibility:visible;display:inline;overflow:visible;enable-background:accumulate"/>
        <path d="M 165.96,151.15 C 159.64,151.15 154.56,156.24 154.56,162.56 L 154.56,173.65 C 178.07,179.61 210.73,183.28 246.84,183.28 C 288.68,183.28 325.88,178.32 349.59,170.62 L 349.59,162.56 C 349.59,156.24 344.50,151.15 338.18,151.15 L 165.96,151.15 z" id="p7977" style="opacity:1;fill:#8282b3;fill-opacity:0.29;fill-rule:nonzero;stroke:none;marker:none;visibility:visible;display:inline;overflow:visible;enable-background:accumulate"/>
        <path d="M 406.59,151.15 C 400.27,151.15 395.18,156.24 395.18,162.56 L 395.18,172.31 C 418.95,179.04 453.71,183.28 492.43,183.28 C 531.46,183.28 566.44,178.98 590.21,172.15 L 590.21,162.56 C 590.21,156.24 585.10,151.15 578.78,151.15 L 406.59,151.15 z" id="p7979" style="opacity:1;fill:#8282b3;fill-opacity:0.29;fill-rule:nonzero;stroke:none;marker:none;visibility:visible;display:inline;overflow:visible;enable-background:accumulate"/>
    </g>
    <text x="247.94" y="181" id="text1"></text>
    <text x="498.81"  y="181" id="text2"></text>

    <g transform="translate(255,245)"><g transform="scale(0.75,0.75)"><path d="M -74 -24 C -75.108 -24 -76 -23.108 -76 -22 L -76 -18.46 C -78.97 -20.08 -82.37 -21 -86 -21 C -97.6 -21 -107 -11.6 -107 0 C -107 11.6 -97.6 21 -86 21 C -82.37 21 -78.97 20.08 -76 18.46 L -76 22 C -76 23.108 -75.108 24 -74 24 L 74 24 C 75.108 24 76 23.108 76 22 L 76 18.46 C 78.97 20.08 82.371 21 86 21 C 97.6 21 107 11.6 107 0 C 107 -11.6 97.6 -21 86 -21 C 82.371 -21 78.97 -20.08 76 -18.46 L 76 -22 C 76 -23.108 75.108 -24 74 -24 L -74 -24 z " id="p8168" style="opacity:1;fill:#241c1c;fill-opacity:0.75;stroke:#3c2d27;stroke-width:6;"/></g></g>
    <g transform="translate(255,290)"><g transform="scale(0.75,0.75)"><path d="M -74 -24 C -75.108 -24 -76 -23.108 -76 -22 L -76 -18.46 C -78.97 -20.08 -82.37 -21 -86 -21 C -97.6 -21 -107 -11.6 -107 0 C -107 11.6 -97.6 21 -86 21 C -82.37 21 -78.97 20.08 -76 18.46 L -76 22 C -76 23.108 -75.108 24 -74 24 L 74 24 C 75.108 24 76 23.108 76 22 L 76 18.46 C 78.97 20.08 82.371 21 86 21 C 97.6 21 107 11.6 107 0 C 107 -11.6 97.6 -21 86 -21 C 82.371 -21 78.97 -20.08 76 -18.46 L 76 -22 C 76 -23.108 75.108 -24 74 -24 L -74 -24 z " id="p8168" style="opacity:1;fill:#241c1c;fill-opacity:0.75;stroke:#3c2d27;stroke-width:6;"/></g></g>
    <g transform="translate(255,335)"><g transform="scale(0.75,0.75)"><path d="M -74 -24 C -75.108 -24 -76 -23.108 -76 -22 L -76 -18.46 C -78.97 -20.08 -82.37 -21 -86 -21 C -97.6 -21 -107 -11.6 -107 0 C -107 11.6 -97.6 21 -86 21 C -82.37 21 -78.97 20.08 -76 18.46 L -76 22 C -76 23.108 -75.108 24 -74 24 L 74 24 C 75.108 24 76 23.108 76 22 L 76 18.46 C 78.97 20.08 82.371 21 86 21 C 97.6 21 107 11.6 107 0 C 107 -11.6 97.6 -21 86 -21 C 82.371 -21 78.97 -20.08 76 -18.46 L 76 -22 C 76 -23.108 75.108 -24 74 -24 L -74 -24 z " id="p8168" style="opacity:1;fill:#241c1c;fill-opacity:0.75;stroke:#3c2d27;stroke-width:6;"/></g></g>
    <g transform="translate(255,380)"><g transform="scale(0.75,0.75)"><path d="M -74 -24 C -75.108 -24 -76 -23.108 -76 -22 L -76 -18.46 C -78.97 -20.08 -82.37 -21 -86 -21 C -97.6 -21 -107 -11.6 -107 0 C -107 11.6 -97.6 21 -86 21 C -82.37 21 -78.97 20.08 -76 18.46 L -76 22 C -76 23.108 -75.108 24 -74 24 L 74 24 C 75.108 24 76 23.108 76 22 L 76 18.46 C 78.97 20.08 82.371 21 86 21 C 97.6 21 107 11.6 107 0 C 107 -11.6 97.6 -21 86 -21 C 82.371 -21 78.97 -20.08 76 -18.46 L 76 -22 C 76 -23.108 75.108 -24 74 -24 L -74 -24 z " id="p8168" style="opacity:1;fill:#241c1c;fill-opacity:0.75;stroke:#3c2d27;stroke-width:6;"/></g></g>

    <g transform="translate(490,245)"><g transform="scale(0.75,0.75)"><path d="M -74 -24 C -75.108 -24 -76 -23.108 -76 -22 L -76 -18.46 C -78.97 -20.08 -82.37 -21 -86 -21 C -97.6 -21 -107 -11.6 -107 0 C -107 11.6 -97.6 21 -86 21 C -82.37 21 -78.97 20.08 -76 18.46 L -76 22 C -76 23.108 -75.108 24 -74 24 L 74 24 C 75.108 24 76 23.108 76 22 L 76 18.46 C 78.97 20.08 82.371 21 86 21 C 97.6 21 107 11.6 107 0 C 107 -11.6 97.6 -21 86 -21 C 82.371 -21 78.97 -20.08 76 -18.46 L 76 -22 C 76 -23.108 75.108 -24 74 -24 L -74 -24 z " id="p8168" style="opacity:1;fill:#241c1c;fill-opacity:0.75;stroke:#3c2d27;stroke-width:6;"/></g></g>
    <g transform="translate(490,290)"><g transform="scale(0.75,0.75)"><path d="M -74 -24 C -75.108 -24 -76 -23.108 -76 -22 L -76 -18.46 C -78.97 -20.08 -82.37 -21 -86 -21 C -97.6 -21 -107 -11.6 -107 0 C -107 11.6 -97.6 21 -86 21 C -82.37 21 -78.97 20.08 -76 18.46 L -76 22 C -76 23.108 -75.108 24 -74 24 L 74 24 C 75.108 24 76 23.108 76 22 L 76 18.46 C 78.97 20.08 82.371 21 86 21 C 97.6 21 107 11.6 107 0 C 107 -11.6 97.6 -21 86 -21 C 82.371 -21 78.97 -20.08 76 -18.46 L 76 -22 C 76 -23.108 75.108 -24 74 -24 L -74 -24 z " id="p8168" style="opacity:1;fill:#241c1c;fill-opacity:0.75;stroke:#3c2d27;stroke-width:6;"/></g></g>
    <g transform="translate(490,335)"><g transform="scale(0.75,0.75)"><path d="M -74 -24 C -75.108 -24 -76 -23.108 -76 -22 L -76 -18.46 C -78.97 -20.08 -82.37 -21 -86 -21 C -97.6 -21 -107 -11.6 -107 0 C -107 11.6 -97.6 21 -86 21 C -82.37 21 -78.97 20.08 -76 18.46 L -76 22 C -76 23.108 -75.108 24 -74 24 L 74 24 C 75.108 24 76 23.108 76 22 L 76 18.46 C 78.97 20.08 82.371 21 86 21 C 97.6 21 107 11.6 107 0 C 107 -11.6 97.6 -21 86 -21 C 82.371 -21 78.97 -20.08 76 -18.46 L 76 -22 C 76 -23.108 75.108 -24 74 -24 L -74 -24 z " id="p8168" style="opacity:1;fill:#241c1c;fill-opacity:0.75;stroke:#3c2d27;stroke-width:6;"/></g></g>
    <g transform="translate(490,380)"><g transform="scale(0.75,0.75)"><path d="M -74 -24 C -75.108 -24 -76 -23.108 -76 -22 L -76 -18.46 C -78.97 -20.08 -82.37 -21 -86 -21 C -97.6 -21 -107 -11.6 -107 0 C -107 11.6 -97.6 21 -86 21 C -82.37 21 -78.97 20.08 -76 18.46 L -76 22 C -76 23.108 -75.108 24 -74 24 L 74 24 C 75.108 24 76 23.108 76 22 L 76 18.46 C 78.97 20.08 82.371 21 86 21 C 97.6 21 107 11.6 107 0 C 107 -11.6 97.6 -21 86 -21 C 82.371 -21 78.97 -20.08 76 -18.46 L 76 -22 C 76 -23.108 75.108 -24 74 -24 L -74 -24 z " id="p8168" style="opacity:1;fill:#241c1c;fill-opacity:0.75;stroke:#3c2d27;stroke-width:6;"/></g></g>
</g>

<g id="pieces">
    <g transform="translate(255,245)" id="a"><g class="scale"><g class="rot">
        <use x="0" y="0" xlink:href="#template"/><text y="2"></text>
        <rect width="106" height="36" ry="2" x="-53" y="-18" class="result"/>
    </g></g></g>
    <g transform="translate(255,290)" id="b"><g class="scale"><g class="rot">
        <use x="0" y="0" xlink:href="#template"/><text y="2"></text>
        <rect width="106" height="36" ry="2" x="-53" y="-18" class="result"/>
    </g></g></g>
    <g transform="translate(255,335)" id="c"><g class="scale"><g class="rot">
        <use x="0" y="0" xlink:href="#template"/><text y="2"></text>
        <rect width="106" height="36" ry="2" x="-53" y="-18" class="result"/>
    </g></g></g>
    <g transform="translate(255,380)" id="d"><g class="scale"><g class="rot">
        <use x="0" y="0" xlink:href="#template"/><text y="2"></text>
        <rect width="106" height="36" ry="2" x="-53" y="-18" class="result"/>
    </g></g></g>
    <g transform="translate(490,245)" id="e"><g class="scale"><g class="rot">
        <use x="0" y="0" xlink:href="#template"/><text y="2"></text>
        <rect width="106" height="36" ry="2" x="-53" y="-18" class="result"/>
    </g></g></g>
    <g transform="translate(490,290)" id="f"><g class="scale"><g class="rot">
        <use x="0" y="0" xlink:href="#template"/><text y="2"></text>
        <rect width="106" height="36" ry="2" x="-53" y="-18" class="result"/>
    </g></g></g>
    <g transform="translate(490,335)" id="g"><g class="scale"><g class="rot">
        <use x="0" y="0" xlink:href="#template"/><text y="2"></text>
        <rect width="106" height="36" ry="2" x="-53" y="-18" class="result"/>
    </g></g></g>
    <g transform="translate(490,380)" id="h"><g class="scale"><g class="rot">
        <use x="0" y="0" xlink:href="#template"/><text y="2"></text>
        <rect width="106" height="36" ry="2" x="-53" y="-18" class="result"/>
    </g></g></g>
</g>

</svg>
