<?xml version="1.0" encoding="UTF-8" standalone="no"?>
<!-- Created with Inkscape (http://www.inkscape.org/) -->
<svg xmlns:dc="http://purl.org/dc/elements/1.1/" xmlns:cc="http://creativecommons.org/ns#" xmlns:rdf="http://www.w3.org/1999/02/22-rdf-syntax-ns#" xmlns:svg="http://www.w3.org/2000/svg" xmlns="http://www.w3.org/2000/svg" version="1.0" width="100%" height="100%" viewBox="0 0 48 48" id="gateau_xA0_Image_1_" xml:space="preserve">
<defs id="defs2625" />
<path d="m 12.24,1.39 c -0.17,0 -0.37,0.03 -0.60,0.14 0.30,1.09 1.32,1.49 2.19,2.03 C 14.11,3.39 14.35,3.16 14.53,2.87 13.56,2.72 13.22,1.39 12.25,1.39 z m 12.18,1.05 c -0.55,0.60 -1.23,0.63 -1.70,1.72 0.09,0.53 0.25,0.23 0.44,0.33 0.36,-0.83 0.93,-0.62 1.31,-1.45 -0.03,-0.16 0,-0.46 -0.05,-0.59 z m 13.48,0.39 c -3.40,0.61 -5.62,0.82 -7.08,2.47 -4.22,0.65 -9.43,1.16 -10.67,4.25 -0.53,1.32 -0.48,3.05 0.38,3.85 0.26,0.24 1.32,0.54 1.40,0.93 0.13,0.64 -0.66,0.55 -1.24,0.70 -1.18,0.29 -2.17,0.59 -2.59,1.57 -0.04,0.44 0.03,0.90 0.04,1.24 -0.06,-0.53 -0.24,-1.00 -0.53,-0.96 -0.18,-0.27 0.18,-0.17 0.23,-0.46 0.02,-0.22 -0.19,-0.41 -0.15,-0.70 0.07,-0.47 0.45,-0.83 0.46,-1.33 0.02,-1.94 -1.54,-1.44 -3.05,-1.64 0.26,-0.94 1.32,-0.53 1.87,-0.63 1.21,-0.19 1.45,-0.66 1.97,-1.69 0.47,-0.94 0.43,-1.71 0.60,-3.04 0.21,-1.70 0.40,-2.91 1.57,-4.11 -4.38,0.78 -6.80,0.88 -8.17,4.31 -0.53,1.32 -0.47,3.03 0.39,3.83 0.26,0.24 1.32,0.54 1.40,0.93 0.13,0.64 -0.66,0.57 -1.24,0.71 -1.18,0.29 -2.16,0.58 -2.57,1.56 -0.08,0.90 0.34,1.40 0.25,1.88 -0.08,0.50 -0.29,1.08 -0.25,1.57 0.04,0.64 0.40,0.96 0.11,2.14 -1.13,0.14 -2.43,1.12 -2.69,2.19 -0.84,0.70 -2.27,1.98 -2.27,3.45 0,1.24 0.96,2.14 2.03,2.66 0.08,0.97 0.19,1.94 0.15,3.06 -1.04,0.93 -2.97,1.85 -3.76,3.43 -0.15,0.31 -0.42,0.91 -0.58,1.29 -0.16,0.40 -0.16,0.58 -0.17,0.97 -0.07,1.43 0.54,2.36 1.16,3.37 0.68,0.80 1.66,1.31 2.42,2.04 0.85,0.38 1.42,0.73 2.27,1.09 0.58,0.24 1.26,0.46 1.85,0.66 0.34,0.11 0.24,0.11 0.95,0.33 0.71,0.21 1.46,0.32 2.26,0.47 1.94,0.37 4.08,0.66 6.36,0.70 0.47,0 1.61,0.00 2.09,-0.00 1.21,-0.06 1.77,-0.02 2.99,-0.14 3.86,-0.36 7.13,-0.71 10.44,-1.88 2.90,-1.01 5.34,-1.82 6.58,-4.31 0.34,-0.70 0.66,-1.60 0.85,-2.12 l 0,-0.54 c -0.02,-2.34 -1.65,-3.56 -3.15,-4.71 -0.83,-0.24 -0.89,-0.44 -1.85,-0.53 -0.25,-1.47 0.02,-2.90 0.46,-3.91 0.17,-0.33 0.50,-0.10 0.77,-0.39 0.88,-1.56 1.02,-3.48 0.15,-5.01 -0.17,-0.31 -0.58,-0.51 -0.93,-0.86 -0.33,-0.33 -0.50,-0.76 -0.78,-0.93 -1.05,-0.64 -2.67,-0.38 -4.07,-0.15 -0.08,-0.06 0.63,-0.47 0.54,-0.53 0.10,-0.64 0.00,-1.19 0.01,-1.56 0.00,-0.66 0.02,-1.89 -0.46,-1.82 -0.18,-0.27 -0.22,-0.23 -0.17,-0.51 0.02,-0.22 0.20,-0.43 0.24,-0.72 0.07,-0.47 0.05,-0.81 0.06,-1.31 0.02,-1.94 -1.56,-1.44 -3.06,-1.64 0.26,-0.94 1.32,-0.52 1.87,-0.61 1.21,-0.19 1.45,-0.67 1.97,-1.70 0.47,-0.94 0.43,-1.71 0.60,-3.04 0.21,-1.70 0.41,-2.90 1.58,-4.10 z m 6.00,0.31 c -0.76,0 -1.20,0.54 -1.75,0.79 -0.41,0.17 -0.91,0.15 -1.41,0.31 -0.42,0.12 -0.81,0.42 -1.22,0.62 -0.70,0.33 -1.70,-0.01 -2.01,0.85 1.22,0.76 2.34,-0.69 3.58,-0.85 0.91,-0.11 1.24,-0.26 1.90,-0.62 0.41,-0.22 0.85,-0.22 1.22,-0.54 -0.09,-0.09 -0.10,-0.33 -0.14,-0.54 -0.05,0 -0.10,-0.00 -0.15,-0.00 z m -6.72,0.18 c 0.01,0 0.03,0 0.05,0 0.06,0.32 -0.96,1.50 -1.04,1.86 -0.16,0.74 0.12,0.71 -0.03,1.59 -0.03,0.21 -0.31,0.96 -0.33,1.34 -0.02,0.40 -0.14,1.29 -0.37,1.64 -1.23,1.85 -4.81,2.15 -5.05,-0.39 -0.00,-0.11 -0.00,-0.26 0,-0.38 0.28,-2.36 0.99,-4.07 3.57,-4.59 1.01,-0.20 1.22,-0.49 2.14,-0.65 0.16,-0.02 0.77,-0.38 1.07,-0.41 z M 20.27,3.78 c 0.01,0 0.03,0 0.05,0 0.06,0.32 -0.96,1.50 -1.04,1.86 -0.16,0.74 0.12,0.71 -0.04,1.59 -0.03,0.21 -0.30,0.96 -0.33,1.34 -0.02,0.40 -0.14,1.29 -0.37,1.64 -1.23,1.85 -4.81,2.15 -5.05,-0.39 -0.00,-0.11 -0.00,-0.26 0,-0.38 0.30,-2.39 1.00,-4.10 3.59,-4.62 1.00,-0.19 1.22,-0.49 2.13,-0.64 0.16,-0.01 0.76,-0.38 1.07,-0.41 z M 4.55,4.20 C 4.20,4.19 3.94,4.37 3.82,5.00 4.52,5.62 5.46,5.38 6.36,5.47 7.25,5.56 8.14,6.00 9.06,6.11 9.98,6.21 10.84,6.36 11.60,6.81 11.72,6.60 11.94,6.51 11.97,6.18 11.35,5.93 10.50,5.46 9.54,5.32 8.46,5.15 7.33,4.79 6.36,4.69 5.71,4.62 5.04,4.21 4.55,4.20 z M 29.24,6.27 c 0.03,0 0.08,0 0.16,0 0.06,0.32 -0.37,0.50 -0.62,0.70 -0.59,0.47 -1.78,1.63 -1.95,2.50 -0.03,0.21 0.09,0.55 0.07,0.93 -0.02,0.40 -0.31,1.29 -0.54,1.64 -1.23,1.85 -5.48,2.23 -5.72,-0.31 -0.00,-0.11 -0.00,-0.26 0,-0.38 0.30,-2.39 2.51,-4.18 5.10,-4.70 1.00,-0.19 2.30,-0.16 3.21,-0.31 0.12,-0.01 0.16,-0.07 0.29,-0.08 z m 0.52,0.76 c -0.00,0.03 -0.02,0.06 -0.04,0.10 -0.53,1.32 -0.48,3.04 0.38,3.84 0.26,0.24 1.32,0.54 1.40,0.93 0.13,0.64 -0.66,0.55 -1.24,0.70 -1.18,0.29 -2.16,0.58 -2.57,1.56 -0.08,0.90 0.35,1.40 0.26,1.88 -0.08,0.50 -0.30,1.08 -0.26,1.57 0.00,0.19 0.00,0.39 -0.00,0.59 -0.12,0.13 -0.24,0.29 -0.30,0.46 -0.83,-0.25 -2.07,0.07 -2.58,0.14 -0.18,-0.27 0.19,-0.17 0.23,-0.46 0.02,-0.22 -0.19,-0.41 -0.15,-0.70 0.07,-0.47 0.45,-0.82 0.46,-1.32 0.02,-1.94 -1.55,-1.46 -3.06,-1.65 0.26,-0.94 1.32,-0.52 1.87,-0.61 1.21,-0.19 2.70,-1.10 3.22,-2.12 0.47,-0.94 0.19,-2.37 0.77,-3.28 0.40,-0.62 0.99,-1.16 1.62,-1.65 z M 11.81,9.07 c -0.94,0 -1.62,0.33 -2.07,0.93 -1.77,0.77 -3.20,1.97 -5.22,2.43 -0.24,0.37 -0.95,0.52 -0.69,1.25 2.22,-0.39 3.94,-2.48 6.05,-3.14 0.72,-0.22 1.43,-0.21 2.08,-0.78 0.05,-0.35 -0.16,-0.37 -0.13,-0.70 z m 26.46,0.18 c -0.20,0.00 -0.38,0.12 -0.53,0.40 0.08,0.29 0.42,0.27 0.72,0.32 1.30,0.92 2.96,1.72 4.31,2.69 0.33,0.24 0.96,0.76 1.34,0.25 C 43.21,11.91 41.30,10.97 39.98,10.20 39.48,9.90 38.82,9.24 38.29,9.27 z m -0.88,3.68 c -1.27,0.07 -0.29,2.29 0.23,2.34 1.11,0.10 0.21,-1.89 -0.23,-2.34 z m -4.81,0.31 c 0.04,0 0.10,0 0.16,0 0.42,0.00 0.89,0.09 1.22,0.16 0.69,0.82 -0.01,1.38 -0.15,2.19 -0.24,1.42 0.95,2.65 0.70,3.68 -0.27,1.14 -1.80,0.74 -1.95,2.03 -0.66,0.33 -1.30,0.73 -2.11,0.93 -0.49,-0.42 -0.87,-1.21 -0.62,-1.95 1.39,-0.66 2.55,-1.57 3.37,-2.81 -1.09,0.72 -2.14,2.66 -3.84,1.80 0.13,-0.91 0.68,-1.40 0.93,-2.19 1.41,-0.61 2.30,-1.77 2.98,-3.13 -0.45,0.16 -0.72,0.51 -1.09,0.77 -0.10,1.60 -2.13,1.49 -2.81,2.50 -0.29,0.41 -0.07,0.95 -0.46,1.40 -0.55,0.02 -0.49,-0.55 -0.70,-0.85 0.71,-0.66 0.85,-2.14 0.38,-3.06 0.39,-0.96 1.98,-1.48 3.13,-1.16 0.17,-0.22 0.50,-0.31 0.88,-0.32 z m -16.90,0.41 c 0.47,-0.00 1.01,0.08 1.38,0.16 0.69,0.82 -0.01,1.38 -0.15,2.19 -0.24,1.42 0.95,2.65 0.70,3.68 -0.27,1.14 -1.81,0.74 -1.96,2.03 -0.66,0.33 -1.29,0.73 -2.11,0.93 -0.49,-0.42 -0.88,-1.21 -0.62,-1.95 1.39,-0.66 2.56,-1.57 3.37,-2.81 -1.09,0.72 -2.14,2.66 -3.84,1.80 0.13,-0.91 0.68,-1.40 0.93,-2.19 1.41,-0.61 2.30,-1.77 2.98,-3.13 -0.45,0.16 -0.73,0.51 -1.09,0.77 -0.10,1.60 -2.12,1.49 -2.81,2.50 -0.29,0.41 -0.07,0.95 -0.46,1.40 -0.55,0.02 -0.49,-0.55 -0.70,-0.85 0.71,-0.66 0.85,-2.14 0.38,-3.06 0.39,-0.96 1.98,-1.48 3.13,-1.16 0.17,-0.22 0.50,-0.31 0.88,-0.32 z m 7.15,1.90 c 0.47,-0.00 1.01,0.08 1.38,0.16 0.69,0.82 -0.00,1.38 -0.15,2.19 -0.24,1.42 0.95,2.65 0.70,3.68 -0.27,1.14 -1.80,0.74 -1.95,2.03 -0.66,0.33 -1.30,0.73 -2.11,0.93 -0.49,-0.42 -0.87,-1.21 -0.62,-1.95 1.39,-0.66 2.55,-1.57 3.37,-2.81 -1.09,0.72 -2.14,2.66 -3.84,1.80 0.13,-0.91 0.68,-1.40 0.93,-2.19 1.41,-0.61 2.30,-1.77 2.98,-3.13 -0.45,0.16 -0.72,0.51 -1.09,0.77 -0.10,1.60 -2.13,1.49 -2.81,2.50 -0.29,0.41 -0.07,0.95 -0.46,1.40 -0.55,0.02 -0.49,-0.55 -0.70,-0.85 0.71,-0.66 0.85,-2.14 0.38,-3.06 0.39,-0.96 1.98,-1.48 3.13,-1.16 0.17,-0.22 0.50,-0.31 0.88,-0.32 z m 4.20,3.77 c 0.22,0 0.44,0.01 0.61,0.07 0.33,0.23 0.39,0.79 0.49,0.89 0.15,0.15 0.48,1.20 0.54,1.06 0.05,-0.14 1.03,0.99 -0.03,1.01 -1.07,0.01 -2.84,0.14 -3.40,0.38 -0.47,-0.74 0.86,-2.40 -0.23,-3.21 0.48,-0.07 1.32,-0.23 2.01,-0.22 z m -8.71,0.04 c -0.03,0.05 -0.10,0.15 -0.16,0.29 -0.04,0.10 -0.08,0.22 -0.13,0.31 -0.01,0.06 -0.04,0.13 -0.06,0.20 0,0.33 0.19,0.50 0.24,0.82 0.14,0.74 0.59,0.57 0.77,1.19 0.29,0.16 -0.11,0.23 0.21,0.35 -0.06,0.24 0.16,0.24 0.14,0.54 -0.57,0.05 -0.62,0.18 -1.17,0.31 -0.02,-0.04 -0.16,-0.09 -0.38,-0.20 0.33,0.06 0,-0.87 0.00,-1.99 0,-0.41 0.06,-0.76 0.13,-1.04 5.41e-4,-0.02 -4.75e-4,-0.06 0,-0.09 0.01,-0.02 0.04,-0.06 0.06,-0.10 0.03,-0.11 0.08,-0.22 0.13,-0.31 0.04,-0.09 0.09,-0.19 0.16,-0.29 z m -6.09,0.81 c -0.06,0.24 0.66,0.22 0.38,0.26 -0.02,0.41 -0.26,0.18 -0.13,0.76 0.20,0.52 0.21,1.31 0.43,1.75 0.07,0.15 -0.24,1.45 0.23,1.38 0.53,-0.07 2.98,-0.06 3.15,-0.63 l 0.16,0.33 c 0.16,0.38 0.33,0.69 0.38,0.78 0.24,0.49 0.36,0.62 0.85,1.02 -0.70,1.06 -1.82,1.73 -2.27,3.06 0.24,0.56 0.99,0.60 1.64,0.77 1.44,-0.60 3.00,-1.12 4.23,-1.95 0.27,0.13 0.71,0.11 0.70,0.54 -1.92,0.06 -4.22,1.33 -2.90,3.21 0.49,0.06 0.86,0.47 1.24,0.54 2.10,0.40 3.21,-1.68 2.27,-3.37 0.38,0.23 0.74,0.60 1.24,0.85 0.40,0.20 1.11,0.60 1.49,0.54 0.90,-0.14 0.95,-2.50 0.70,-3.60 1.75,-0.77 1.68,-1.48 3.24,-2.45 0.36,-0.02 1.53,0.10 1.77,0.17 0.33,0.03 1.57,-0.02 2.53,-0.50 0,0.16 0.04,0.33 0.11,0.51 0.15,0.37 1.66,1.42 1.95,1.49 2.51,0.54 3.55,-2.59 1.64,-3.99 -0.68,-0.10 -1.71,0.02 -2.50,0.40 0.01,-0.24 0,-0.49 -0.06,-0.80 1.46,-0.14 2.33,-0.41 3.52,0.08 0,0.24 0.24,0.21 0.15,0.54 0.59,0.10 1.23,0.49 1.57,1.16 0.63,1.29 0.69,3.49 -0.46,3.68 -0.58,0.80 -1.06,1.70 -1.32,2.81 -0.54,0.41 -0.86,0.76 -1.56,0.85 -0.56,0.07 -1.12,-0.22 -1.64,-0.15 -0.38,0.04 -1.03,0.45 -1.32,0.70 -0.86,0.73 -1.26,2.06 -2.58,2.11 -1.20,-0.47 -2.07,-1.91 -3.68,-1.56 -1.02,0.22 -1.48,1.48 -2.34,2.03 -1.05,0.20 -1.47,-0.66 -2.34,-0.77 -0.82,-0.10 -1.51,0.41 -2.34,0.31 -1.60,-0.18 -2.57,-2.15 -4.23,-1.32 -0.52,0.25 -0.75,0.97 -1.80,0.77 -1.33,-0.10 -2.03,-1.72 -2.98,-2.38 -0.74,0.12 -1.16,-0.02 -1.73,-0.24 C 9.15,29.55 9.22,28.64 8.83,28.02 8.55,27.59 7.98,27.51 7.57,27.16 6.36,26.10 6.87,24.39 8.05,23.47 c 0.25,0.35 0.34,0.90 0.70,1.16 2.23,0.49 4.48,-1.29 3.29,-3.68 0.28,-0.51 -0.45,-0.49 0.15,-0.69 z m 21.53,0.95 c 0.04,-2.32e-4 0.08,0 0.13,0 0.24,0.51 0.23,1.31 0.15,1.80 -1.23,0.13 -2.65,0.05 -3.76,0.54 -0.33,-0.74 0.41,-0.83 1.16,-1.24 0.41,-0.22 0.91,-0.74 1.16,-0.85 0.40,-0.16 0.76,-0.23 1.10,-0.23 z M 10.44,21.33 c 0.41,-0.00 0.86,0.15 1.21,0.57 0.03,0.48 0.18,1.13 -0.07,1.49 -0.74,0.16 -1.75,0.06 -2.34,0.38 C 8.38,22.55 9.35,21.35 10.44,21.32 z m 6.39,0.30 c 0.04,-2.3e-4 0.08,0 0.13,0 0.24,0.51 0.23,1.31 0.15,1.80 -1.23,0.13 -2.65,0.05 -3.76,0.54 -0.33,-0.74 0.41,-0.83 1.16,-1.24 0.41,-0.22 0.91,-0.74 1.16,-0.85 0.40,-0.16 0.76,-0.23 1.10,-0.23 z m 19.18,0.91 c 0.91,0.00 1.94,0.43 1.84,1.31 -0.04,0.41 -1.21,1.16 -1.64,1.16 -0.55,0.00 -1.80,-0.82 -1.88,-1.24 -0.15,-0.85 0.51,-1.05 1.09,-1.16 0.11,-0.01 0.25,-0.03 0.39,-0.04 0.05,0 0.11,0 0.17,0 z m -8.29,0.66 c 0.07,0 0.15,0 0.23,0 0.37,0 0.71,0.04 0.97,0.16 -0.78,1.06 -1.81,1.90 -2.81,2.73 -0.33,-0.33 -0.64,-0.71 -1.09,-0.93 0.23,-0.74 0.56,-1.41 1.09,-1.88 0.44,-0.00 1.04,-0.08 1.60,-0.09 z m -3.71,0.33 c 0.04,-2.3e-4 0.08,0 0.13,0 0.24,0.51 0.23,1.30 0.15,1.80 -1.23,0.13 -2.65,0.05 -3.76,0.54 -0.33,-0.74 0.41,-0.83 1.16,-1.24 0.41,-0.22 0.91,-0.74 1.16,-0.85 0.40,-0.16 0.76,-0.23 1.10,-0.23 z m -5.69,0.30 c 0.58,0 1.24,0.08 1.66,0.48 0.11,0.10 0.05,0.06 0.31,0.31 -0.43,0.45 -0.69,1.26 -0.31,1.95 0.08,-0.00 0.13,0.00 0.15,0.07 1.57,-0.57 3.85,-1.07 5.09,-0.23 0.30,0.77 0.43,2.06 0.15,2.98 -1.78,-0.27 -2.25,-1.87 -3.99,-2.19 -1.42,0.78 -2.97,1.80 -5.17,1.56 0.19,-1.63 1.57,-2.07 2.42,-3.06 -0.71,-0.82 -0.95,-0.41 -1.49,-1.41 0.02,-0.06 -0.20,-0.27 -0.11,-0.29 0.15,-0.03 0.67,-0.15 1.27,-0.16 z m -6.01,1.50 c -0.11,0 -0.24,0.01 -0.38,0.06 -0.86,0.24 -1.36,0.87 -1.80,1.56 -0.43,3.37 4.47,2.53 3.91,-0.38 -0.41,-0.48 -0.87,-1.26 -1.72,-1.24 z m 20.44,0.49 c -0.17,0 -0.36,0.03 -0.58,0.09 -0.85,0.70 -2.72,1.56 -2.58,3.14 0.16,1.90 3.10,1.43 4.15,0.54 1.19,-1.02 0.75,-3.82 -0.98,-3.79 z m -20.84,0.33 c 0.40,-0.01 1.45,0.26 1.57,0.78 0.37,1.64 -2.87,2.09 -2.58,0.07 0.03,-0.27 0.35,-0.74 0.93,-0.85 0.01,0 0.03,0 0.06,0 z m 20.67,0.66 c 0.16,4.8e-5 0.33,0.00 0.52,0.04 0.47,0.42 0.78,1.24 0.46,2.03 -0.85,0.88 -3.34,1.29 -3.21,-0.38 0.07,-0.94 1.00,-1.69 2.21,-1.69 z m -11.68,2.43 c 0.82,-0.01 1.63,0.47 1.37,1.68 -0.81,0.99 -2.68,0.24 -2.90,-0.77 0.19,-0.55 0.86,-0.88 1.51,-0.90 z m 17.24,1.29 c 0.50,1.60 -2.15,1.39 -2.58,2.58 -1.54,0.07 -2.28,0.95 -3.21,1.64 -1.90,0 -3.19,-0.33 -4.70,0.38 -0.73,-0.18 -1.66,-0.36 -2.58,-0.31 -0.93,0.05 -1.74,0.55 -2.66,0.46 -0.52,-0.04 -0.99,-0.35 -1.49,-0.38 -0.81,-0.04 -1.58,0.27 -2.42,0.23 -0.66,-0.03 -1.54,-0.56 -2.34,-0.70 -0.21,-0.03 -0.43,0.05 -0.62,0 -0.54,-0.16 -0.79,-0.53 -1.24,-0.54 -0.23,0 -0.49,0.18 -0.77,0.15 -0.60,-0.07 -0.88,-0.91 -1.64,-1.09 -0.29,-0.07 -0.73,0.08 -1.01,0 -0.52,-0.08 -0.82,-0.74 -1.10,-0.96 -0.48,-0.17 -0.82,-0.48 -0.70,-1.25 0.77,-0.05 1.29,0.77 1.88,0.93 0.14,0.03 0.38,-0.07 0.54,0 0.98,0.41 1.57,1.81 3.13,1.72 0.45,-0.01 0.72,-0.33 1.24,-0.38 0.41,0.14 0.59,0.41 1.09,0.54 0.49,0.11 1.11,-0.08 1.64,0 0.48,0.08 0.91,0.58 1.40,0.62 0.37,0.02 0.82,-0.26 1.32,-0.31 1.31,-0.10 2.33,0.97 3.60,0.46 0.45,-0.17 0.67,-0.63 1.01,-0.85 0.86,0.17 2.03,0.40 3.06,0.23 0.20,-0.02 0.49,-0.24 0.70,-0.23 0.40,0.02 0.71,0.44 1.09,0.46 1.00,0.03 2.05,-0.82 2.50,-1.49 0.95,-0.23 1.89,-0.49 2.42,-1.16 0.87,0.10 1.82,-0.21 2.35,-0.70 z M 8.13,32.50 c 0.47,1.64 -1.02,3.06 -0.77,4.78 0.21,1.50 2.07,1.98 3.60,2.58 0.65,0.25 1.38,0.63 2.03,0.77 0.79,0.17 1.57,0.16 2.34,0.38 0.58,0.16 1.21,0.57 2.03,0.70 1.53,0.24 3.24,0.38 4.86,0.46 1.05,0.05 2.27,0.07 3.37,0 1.06,-0.07 2.23,-0.46 3.29,-0.62 1.03,-0.15 2.04,-0.08 3.06,-0.31 1.06,-0.23 2.14,-0.82 3.21,-1.24 1.18,-0.45 2.36,-0.76 3.13,-1.32 0.58,-0.42 1.50,-1.47 1.64,-2.19 0.28,-1.52 -0.94,-2.28 -0.70,-3.60 2.34,0.75 4.72,2.88 3.45,5.48 -0.49,1.02 -1.56,1.90 -2.27,2.73 -4.47,2.35 -11.25,4.02 -18.68,3.76 -3.02,-0.08 -6.58,-0.53 -9.12,-1.31 C 11.84,43.34 10.74,43.11 9.93,42.81 9.30,42.58 8.40,42.05 7.65,41.53 6.93,41.03 6.04,40.52 5.61,40.04 4.29,38.54 4.20,36.65 5.46,34.94 6.21,33.91 7.38,33.15 8.13,32.50 z m 30.07,0.16 c 0.20,0.49 0.45,1.24 0.38,1.64 -0.15,0.88 -1.81,1.90 -2.98,2.11 -0.42,0.07 -0.75,-0.08 -1.09,0 -0.61,0.15 -0.98,0.93 -1.49,1.16 -0.64,0.29 -1.58,-0.08 -2.58,-0.07 -0.93,0 -1.99,0.65 -2.73,0.70 -0.68,0.04 -1.42,-0.29 -2.03,-0.23 -0.64,0.06 -0.91,0.58 -1.88,0.46 -0.81,-0.08 -1.66,-0.54 -2.50,-0.62 -0.77,-0.06 -1.50,0.35 -2.11,0.31 -0.49,-0.03 -0.91,-0.55 -1.40,-0.62 -0.31,-0.03 -0.49,0.15 -0.77,0.15 -0.48,0.00 -1.32,-0.10 -1.72,-0.23 -0.58,-0.17 -1.01,-0.90 -1.72,-1.09 -0.26,-0.07 -0.59,0.02 -0.85,0 -1.64,-0.16 -2.74,-1.40 -3.76,-2.34 -0.00,-0.32 0.13,-0.49 0.07,-0.85 0.63,0.07 0.76,0.63 1.24,0.85 0.34,-0.00 0.66,-0.05 0.93,-0.15 0.74,0.42 1.03,1.26 2.03,1.24 0.34,0 0.67,-0.34 1.09,-0.31 0.45,0.03 0.65,0.50 1.09,0.77 1.19,0.72 3.38,1.03 5.01,0.54 1.37,1.21 3.27,-0.05 4.94,0 0.59,0.01 1.20,0.40 1.80,0.38 1.07,-0.01 1.99,-0.74 2.98,-0.70 0.68,0.26 1.17,0.36 1.72,0.31 1.18,-0.11 1.89,-1.25 2.73,-1.56 0.69,-0.24 1.29,-0.08 1.88,-0.54 0.32,-0.24 0.47,-0.53 0.77,-0.93 0.36,-0.07 0.81,-0.06 0.93,-0.38 z M 8.44,35.64 c 1.26,0.73 2.47,1.81 4.55,1.49 0.63,0.34 0.95,0.88 1.72,1.09 0.56,0.15 1.22,0 1.80,0.15 0.68,0.16 1.28,0.74 2.03,0.85 0.76,0.11 1.58,-0.31 2.34,-0.23 1.32,0.14 2.04,0.87 3.29,0.70 0.39,-0.05 0.77,-0.34 1.24,-0.38 0.52,-0.03 1.01,0.34 1.56,0.38 0.94,0.07 1.75,-0.70 2.66,-0.77 0.74,-0.05 1.98,0.28 2.81,0.15 0.48,-0.07 1.09,-0.31 1.49,-0.54 0.27,-0.16 0.41,-0.52 0.77,-0.70 0.28,-0.13 0.64,-0.07 0.93,-0.15 1.16,-0.30 2.08,-1.07 3.21,-1.64 -0.08,2.03 -2.00,2.63 -3.84,3.29 -1.59,0.57 -2.81,1.14 -4.78,1.40 -4.34,0.58 -8.68,1.06 -12.95,-0.16 C 15.35,40.04 13.36,40.04 11.66,39.25 11.36,39.12 11.09,38.76 10.79,38.63 10.10,38.30 9.17,38.03 8.75,37.45 8.38,36.94 8.28,36.14 8.44,35.64 z" id="path4" />
</svg>
