<?xml version="1.0" encoding="UTF-8" standalone="no"?>
<!-- Created with Inkscape (http://www.inkscape.org/) -->
<svg xmlns:dc="http://purl.org/dc/elements/1.1/" xmlns:cc="http://creativecommons.org/ns#" xmlns:rdf="http://www.w3.org/1999/02/22-rdf-syntax-ns#" xmlns:svg="http://www.w3.org/2000/svg" xmlns="http://www.w3.org/2000/svg" version="1.1" width="100%" height="100%" viewBox="0 0 48 48" id="svg2" xml:space="preserve">
<defs id="defs4" />
<path d="m 4.59,14.17 c -1.32,-4.2e-4 -3.08,0.38 -3.32,0.78 -0.25,0.43 0.77,1.52 2.24,1.83 1.48,0.30 4.87,-0.13 6.53,0 1.64,0.12 2.46,0.42 3.22,0.73 0.73,0.30 1.12,0.64 1.18,1.06 l 0.36,1.47 c 0.10,0.59 0.21,1.19 0.32,1.78 L 9.60,24.13 C 8.69,25.27 7.95,26.12 7.31,26.75 6.66,27.36 6.09,27.59 5.80,27.85 5.51,28.10 5.02,28.13 5.59,28.26 c 0.57,0.12 2.60,0.06 3.63,0.37 1.01,0.29 1.82,0.76 2.45,1.42 l 3.22,-0.81 c -0.25,0.72 -0.20,1.19 0.16,1.42 0.36,0.22 1.22,0.16 2.00,-0.04 0.78,-0.21 1.62,-0.59 2.61,-1.18 0.23,0.06 0.47,0.10 0.73,0.12 0.25,0.00 0.50,0.00 0.77,-0.04 -0.11,0.24 -0.05,0.43 0.16,0.61 0.23,0.17 0.61,0.29 1.18,0.41 l -1.88,0.77 c 0.02,0.80 -0.22,1.58 -0.73,2.36 -0.51,0.78 -1.87,1.79 -2.32,2.28 -0.47,0.46 -0.84,0.40 -0.40,0.57 0.43,0.16 2.06,0.14 3.02,0.41 0.94,0.25 1.82,0.62 2.65,1.11 0.41,0.08 1.56,-0.25 3.55,-1.06 1.99,-0.81 4.92,-2.38 8.25,-3.75 3.32,-1.37 7.10,-2.84 11.51,-4.45 0.40,-1.18 0.56,-2.15 0.49,-2.98 -0.08,-0.82 -0.59,-1.42 -0.94,-1.91 -0.35,-0.49 -0.73,-0.83 -1.14,-1.01 l -4.41,1.42 0.94,-2.57 c 0.18,-0.50 0.14,-1.03 -0.12,-1.59 -0.28,-0.57 -0.77,-1.15 -1.50,-1.79 0.15,-0.56 0.20,-1.04 0.11,-1.47 -0.09,-0.42 -0.05,-0.63 -0.61,-1.06 -0.56,-0.44 -1.46,-0.95 -2.73,-1.55 l -4.24,1.06 c -2.72,-0.38 -4.91,-0.60 -6.70,-0.69 -1.78,-0.08 -2.36,-0.01 -3.92,0.16 -1.56,0.15 -3.31,0.43 -5.35,0.81 -0.91,0.24 -1.90,0.35 -3.06,0.32 C 11.82,15.91 10.54,15.74 9.19,15.45 7.83,15.15 6.32,14.27 4.98,14.18 4.86,14.18 4.72,14.17 4.59,14.17 z m -0.45,0.27 c 0.03,-3.98e-4 0.06,-1.97e-4 0.09,0 0.06,4.19e-4 0.12,0.00 0.18,0.00 0.97,0.05 1.92,0.60 3.18,0.90 1.26,0.29 2.95,0.69 4.28,0.81 1.32,0.09 2.47,0.03 3.55,-0.20 -0.19,0.12 -0.36,0.33 -0.53,0.61 -0.16,0.28 -0.31,0.62 -0.45,1.05 C 14.27,17.27 13.78,16.99 12.95,16.79 12.09,16.58 10.70,16.46 9.48,16.42 8.26,16.38 6.88,16.57 5.76,16.54 4.63,16.51 3.44,16.41 2.78,16.18 2.10,15.92 1.52,15.31 1.79,15.03 2.06,14.76 3.18,14.46 4.13,14.45 z m 32.09,0.05 c 0.98,0.47 1.69,0.91 2.22,1.31 0.50,0.39 0.74,0.67 0.86,1.06 0.12,0.38 0.09,0.80 -0.08,1.26 -1.43,-0.77 -2.67,-1.36 -3.80,-1.82 -1.12,-0.45 -2.07,-0.73 -2.89,-0.86 l 3.69,-0.95 z m -12.91,0.44 c 2.01,-0.01 4.62,0.24 6.42,0.49 1.83,0.24 2.93,0.50 4.40,0.97 1.47,0.47 3.27,1.10 4.41,1.83 1.12,0.72 1.86,1.52 2.28,2.45 -0.24,0.17 -0.51,0.32 -0.84,0.46 -0.33,0.13 -0.69,0.24 -1.11,0.35 -0.53,-0.64 -1.46,-1.28 -2.85,-1.95 -1.41,-0.68 -3.44,-1.63 -5.47,-2.08 -2.04,-0.45 -4.61,-0.62 -6.57,-0.61 -1.96,0.01 -3.94,0.34 -5.06,0.65 -1.12,0.29 -1.36,0.67 -1.59,1.10 -0.22,0.40 -0.14,0.85 0.24,1.34 -1.08,-0.61 -1.83,-1.16 -2.24,-1.67 -0.42,-0.51 -0.62,-0.90 -0.24,-1.34 0.37,-0.44 1.18,-0.97 2.53,-1.30 1.34,-0.33 3.47,-0.65 5.51,-0.69 0.06,-0.00 0.12,-0.00 0.19,-0.00 z M 3.27,15.14 c -0.21,1.89e-4 -0.34,0.06 -0.32,0.17 0,0.12 0.22,0.51 0.53,0.57 0.31,0.02 1.29,-0.19 1.30,-0.32 -0.01,-0.12 -1.03,-0.36 -1.34,-0.41 -0.05,-0.00 -0.11,-0.01 -0.15,-0.01 z m 33.88,0.27 c -0.13,-0.01 -1.41,0.22 -1.75,0.31 -0.34,0.07 -0.40,0.14 -0.26,0.15 0.13,0 0.69,-0.01 1.04,-0.08 0.33,-0.07 1.09,-0.37 0.97,-0.37 z m 0.78,0.34 c -0.22,0.00 -0.95,0.11 -1.18,0.16 -0.26,0.04 -0.35,0.10 -0.28,0.13 0.06,0.02 0.42,0.09 0.68,0.04 0.25,-0.05 0.91,-0.31 0.84,-0.33 -0.00,-0.00 -0.03,-0.00 -0.06,-0.00 z m -13.51,1.30 c 1.60,-0.00 3.50,0.22 4.89,0.48 1.36,0.25 2.09,0.59 3.31,1.02 1.21,0.42 2.95,1.03 3.96,1.55 0.99,0.51 1.65,1.00 2.00,1.50 l -0.63,0.28 -0.96,0.24 c -0.19,-0.16 -0.34,-0.39 -0.44,-0.69 -0.10,-0.31 -0.01,-0.94 -0.15,-1.14 -0.15,-0.20 -0.44,0.08 -0.73,-0.04 -0.30,-0.13 -0.57,-0.61 -1.01,-0.73 -0.45,-0.11 -1.23,0.13 -1.63,0.04 -0.39,-0.11 -0.37,-0.54 -0.77,-0.65 -0.42,-0.10 -1.04,0.10 -1.71,0.08 -0.68,-0.04 -1.62,-0.23 -2.28,-0.24 -0.66,-0.01 -1.38,-0.00 -1.63,0.20 -0.25,0.20 -0.21,0.56 0.12,1.06 -0.64,-0.18 -1.22,-0.29 -1.79,-0.32 -0.56,-0.04 -1.23,-0.02 -1.59,0.12 -0.37,0.14 -0.58,0.51 -0.61,0.73 -0.03,0.21 0.11,0.38 0.44,0.52 -0.99,-0.08 -1.90,-0.23 -2.77,-0.44 -0.88,-0.21 -1.99,-0.47 -2.44,-0.81 -0.44,-0.36 -0.50,-0.92 -0.20,-1.30 0.28,-0.38 0.88,-0.69 1.99,-0.94 1.12,-0.26 3.07,-0.51 4.70,-0.53 z m -9.82,0.87 c 0.43,0.59 0.95,1.08 1.58,1.52 0.63,0.42 1.36,0.77 2.17,1.05 0.78,0.28 1.54,0.39 2.59,0.62 1.05,0.22 2.45,0.47 3.71,0.71 1.25,0.23 2.13,0.48 3.75,0.69 1.62,0.19 3.90,0.62 5.88,0.46 1.95,-0.18 3.84,-0.68 5.77,-1.52 l 0.98,-0.60 c -0.09,0.79 -0.39,1.60 -0.95,2.48 -0.56,0.86 -1.34,1.75 -2.37,2.70 -2.07,0.35 -3.76,0.54 -5.19,0.62 -1.42,0.06 -2.50,-0.01 -3.28,-0.22 0.20,-0.54 0.29,-1.06 0.26,-1.58 -0.02,-0.52 -0.16,-1.01 -0.42,-1.51 -0.11,0.44 -0.40,0.86 -0.87,1.31 -0.47,0.43 -1.11,0.87 -1.94,1.32 0.11,-0.57 0.15,-1.14 0.13,-1.74 -0.03,-0.60 -0.13,-1.19 -0.31,-1.81 -0.09,0.64 -0.31,1.19 -0.67,1.65 -0.36,0.45 -0.84,0.80 -1.47,1.07 0.20,-0.55 0.29,-1.03 0.24,-1.49 -0.05,-0.46 -0.23,-0.85 -0.53,-1.22 -0.01,0.58 -0.15,1.03 -0.42,1.38 -0.28,0.33 -0.68,0.56 -1.22,0.66 0.29,-0.24 0.47,-0.58 0.51,-1.00 0.03,-0.42 -0.05,-0.92 -0.26,-1.51 -0.20,0.41 -0.50,0.80 -0.89,1.20 -0.40,0.38 -0.89,0.76 -1.49,1.14 -0.41,-0.13 -0.81,-0.49 -1.22,-1.07 -0.42,-0.59 -0.84,-1.37 -1.27,-2.41 -0.30,0.50 -0.49,0.98 -0.56,1.47 -0.07,0.48 -0.02,0.95 0.13,1.43 -0.53,-0.11 -0.94,-0.46 -1.25,-1.02 -0.31,-0.58 -0.40,-1.53 -0.58,-2.34 -0.18,-0.80 -0.34,-1.60 -0.49,-2.43 z m 12.94,1.11 c 0.56,-0.00 1.31,0.03 1.75,0.06 0.61,0.02 0.90,0.16 1.36,0.17 0.44,0 0.97,-0.20 1.31,-0.12 0.33,0.07 0.32,0.47 0.71,0.57 0.38,0.08 1.21,-0.08 1.61,0 0.37,0.09 0.38,0.38 0.66,0.53 0.29,0.12 0.84,0.11 1.05,0.26 0.17,0.13 0.01,0.35 0.11,0.62 0.09,0.27 0.25,0.59 0.47,1.00 -0.63,0.23 -1.29,0.36 -2.03,0.44 -0.74,0.07 -1.52,0.05 -2.37,-0.01 -0.64,-0.39 -1.20,-0.75 -1.69,-1.07 -0.51,-0.33 -0.80,-0.67 -1.27,-0.84 -0.48,-0.17 -1.12,-0.02 -1.52,-0.17 -0.40,-0.16 -0.70,-0.55 -0.82,-0.78 -0.13,-0.24 -0.34,-0.52 0.06,-0.62 0.12,-0.03 0.34,-0.04 0.59,-0.04 z m -3.44,0.78 c 0.02,-7.62e-4 0.05,-4.69e-4 0.08,0 0.26,0.00 0.56,0.05 0.87,0.11 0.43,0.07 1.00,0.20 1.43,0.35 0.41,0.14 0.68,0.37 1.09,0.49 0.41,0.08 0.93,-0.00 1.34,0.11 0.39,0.12 0.66,0.32 1.05,0.57 0.38,0.23 0.78,0.51 1.23,0.85 0.13,0.06 0.26,0.13 0.40,0.20 -0.16,-0.01 -0.34,-0.02 -0.57,-0.04 -0.23,-0.02 -0.50,-0.05 -0.80,-0.08 -0.00,-0.16 -0.11,-0.33 -0.33,-0.53 -0.22,-0.20 -0.61,-0.59 -0.98,-0.67 -0.38,-0.07 -0.97,0.03 -1.25,0.17 -0.27,0.12 -0.40,0.32 -0.38,0.60 -0.65,-0.11 -1.28,-0.23 -1.92,-0.35 -0.63,-0.13 -1.25,-0.27 -1.88,-0.42 -0.28,-0.36 -0.39,-0.64 -0.33,-0.87 0.06,-0.22 0.38,-0.41 0.71,-0.47 0.07,-0.01 0.15,-0.02 0.24,-0.02 z m 8.35,0.31 c -0.41,0.00 -0.77,0.06 -0.96,0.13 -0.33,0.11 -0.14,0.50 -0.02,0.73 0.10,0.21 0.17,0.38 0.71,0.60 0.53,0.22 1.89,0.70 2.48,0.71 0.57,-0.01 1.20,-0.39 1.00,-0.73 -0.22,-0.35 -1.53,-1.09 -2.23,-1.31 -0.31,-0.09 -0.66,-0.13 -0.97,-0.13 z m 0.09,0.22 c 0.22,2.52e-4 0.48,0.02 0.72,0.09 0.37,0.10 0.82,0.33 1.16,0.57 0.35,0.23 0.82,0.61 0.87,0.80 0.00,0.17 -0.38,0.25 -0.73,0.24 -0.36,-0.01 -0.89,-0.16 -1.34,-0.31 -0.46,-0.15 -1.09,-0.42 -1.36,-0.60 -0.28,-0.20 -0.32,-0.40 -0.26,-0.53 0.05,-0.13 0.29,-0.21 0.58,-0.24 0.10,-0.01 0.23,-0.02 0.36,-0.02 z m -15.21,1.01 c 0.20,0.73 0.50,1.35 0.91,1.91 0.39,0.54 0.89,1.00 1.49,1.37 0.54,-0.23 1.02,-0.52 1.42,-0.87 0.39,-0.35 0.71,-0.75 0.95,-1.22 0.13,0.26 0.17,0.55 0.11,0.86 -0.07,0.30 -0.24,0.66 -0.48,0.97 -0.25,0.30 -0.57,0.59 -0.97,0.86 0.52,-0.14 0.98,-0.27 1.37,-0.44 0.39,-0.16 0.67,-0.24 0.97,-0.51 0.28,-0.28 0.53,-0.64 0.75,-1.13 0.01,0.76 -0.04,1.38 -0.15,1.91 -0.13,0.50 -0.28,0.84 -0.57,1.17 -0.29,0.31 -0.82,0.69 -1.15,0.75 -0.34,0.04 -0.64,-0.23 -0.86,-0.42 -0.22,-0.19 -0.40,-0.42 -0.51,-0.71 -0.65,0.02 -1.22,-0.07 -1.75,-0.35 -0.53,-0.28 -1.06,-0.89 -1.37,-1.29 -0.31,-0.40 -0.46,-0.68 -0.48,-1.15 -0.01,-0.48 0.08,-1.05 0.35,-1.73 z m 11.17,0.01 c 0.08,2.83e-4 0.16,0.00 0.24,0.01 0.19,0.00 0.32,-0.02 0.53,0.13 0.20,0.15 0.43,0.42 0.69,0.80 -0.32,-0.02 -0.67,-0.05 -1.07,-0.11 -0.40,-0.05 -0.83,-0.11 -1.31,-0.20 0.15,-0.27 0.31,-0.45 0.51,-0.56 0.11,-0.06 0.26,-0.08 0.40,-0.08 z m -13.37,0.71 c 0.04,0.46 0.19,0.82 0.51,1.15 0.29,0.30 0.73,0.57 1.31,0.75 -0.04,0.11 0.06,0.29 0.31,0.55 0.25,0.25 0.65,0.58 1.20,1.00 -1.57,0.70 -2.65,1.24 -3.31,1.64 -0.65,0.38 -0.49,0.41 -0.57,0.71 -0.08,0.28 -0.05,0.63 0.08,1.04 -0.56,0.17 -1.07,0.33 -1.53,0.44 -0.47,0.11 -0.89,0.18 -1.26,0.22 0.78,-0.53 1.28,-0.99 1.53,-1.44 0.23,-0.45 0.20,-0.84 -0.08,-1.22 0.41,-0.36 0.58,-0.73 0.51,-1.11 -0.08,-0.38 -0.57,-1.00 -0.95,-1.15 -0.38,-0.15 -0.81,-0.07 -1.31,0.24 0.12,-0.37 0.06,-0.61 -0.17,-0.73 -0.24,-0.12 -0.67,-0.11 -1.28,0.01 l 5.04,-2.13 z m 2.34,0.78 c -0.00,-3.81e-4 -0.00,1.58e-4 -0.00,9.82e-4 -0.03,0.02 0.06,0.74 0.28,1.10 0.21,0.34 0.62,0.73 0.97,0.98 0.34,0.24 0.96,0.42 1.06,0.44 0.07,0.00 -0.26,-0.14 -0.57,-0.40 -0.31,-0.28 -0.97,-0.81 -1.26,-1.18 -0.28,-0.35 -0.44,-0.92 -0.48,-0.94 z m 27.14,0.25 c 0.92,0.77 1.49,1.48 1.78,2.20 0.26,0.70 -0.09,1.47 -0.15,2.01 -0.06,0.54 -0.14,0.91 -0.24,1.18 -0.13,0.01 -0.73,0.22 -1.88,0.64 -1.16,0.42 -3.36,1.20 -4.94,1.82 -1.56,0.60 -2.65,1.01 -4.40,1.78 -1.76,0.76 -4.11,1.94 -6.02,2.77 -1.90,0.82 -3.65,1.52 -5.31,2.13 0.45,-0.19 0.79,-0.47 1.02,-0.84 0.22,-0.38 0.41,-1.05 0.33,-1.35 -0.08,-0.30 -0.36,-0.46 -0.84,-0.46 0.44,-0.53 0.62,-0.99 0.53,-1.44 -0.10,-0.45 -0.51,-0.85 -1.09,-1.22 -0.58,-0.37 -1.37,-0.68 -2.37,-0.97 1.47,-0.50 3.06,-1.11 4.82,-1.82 1.76,-0.71 3.62,-1.53 5.67,-2.46 0.86,-0.01 1.79,-0.08 2.84,-0.20 1.04,-0.13 2.15,-0.29 3.38,-0.53 0.28,-0.18 0.55,-0.41 0.82,-0.64 0.26,-0.23 0.50,-0.50 0.75,-0.77 l 5.31,-1.80 z m -18.50,0.00 c 0.09,1.23 0.05,2.17 -0.11,2.86 -0.17,0.67 -0.57,1.00 -0.91,1.22 -0.35,0.20 -0.85,0.18 -1.13,0.04 -0.27,-0.14 -0.44,-0.43 -0.51,-0.88 0.04,-0.06 0.11,-0.15 0.19,-0.33 0.08,-0.17 0.17,-0.38 0.31,-0.66 0.62,-0.16 1.09,-0.42 1.46,-0.79 0.36,-0.37 0.58,-0.85 0.68,-1.44 z m 3.00,0.77 c 0.16,0.23 0.20,0.60 0.13,1.11 -0.07,0.51 -0.27,1.44 -0.59,1.91 -0.34,0.44 -0.94,0.76 -1.42,0.79 -0.48,0.03 -0.98,-0.17 -1.49,-0.60 0.13,-0.12 0.23,-0.26 0.33,-0.39 0.08,-0.13 0.15,-0.29 0.20,-0.44 0.40,-0.20 0.77,-0.43 1.15,-0.66 0.36,-0.23 0.78,-0.48 1.06,-0.75 0.28,-0.28 0.48,-0.60 0.62,-0.95 z M 16.50,24.28 c -0.14,3.87e-4 -0.64,0.20 -0.86,0.38 -0.30,0.22 -0.98,1.06 -0.84,1.01 0.14,-0.07 1.58,-1.17 1.73,-1.35 0.03,-0.03 0.01,-0.05 -0.02,-0.05 z m -6.06,0.05 c 0.09,-4.03e-4 0.17,0.01 0.25,0.04 0.29,0.10 0.49,0.38 0.64,0.86 0.68,-0.33 1.19,-0.44 1.53,-0.33 0.34,0.11 0.47,0.66 0.48,1.00 -0.00,0.32 -0.16,0.64 -0.48,0.97 0.36,0.32 0.43,0.69 0.19,1.10 -0.23,0.41 -0.76,0.85 -1.59,1.33 -0.88,-0.59 -1.76,-0.98 -2.69,-1.20 -0.92,-0.21 -1.85,-0.24 -2.82,-0.08 0.72,-0.44 1.38,-0.94 1.99,-1.50 0.61,-0.57 1.14,-1.19 1.64,-1.88 0.29,-0.19 0.56,-0.29 0.79,-0.31 0.01,-6.56e-4 0.02,-8.93e-4 0.03,-9.82e-4 z m -0.22,0.53 c -0.10,-0.00 -0.21,0.02 -0.31,0.07 0.10,-0.04 0.24,-0.02 0.41,0.05 0.18,0.09 0.41,0.24 0.66,0.48 -0.15,-0.28 -0.33,-0.46 -0.51,-0.55 -0.08,-0.03 -0.16,-0.06 -0.25,-0.06 z m -0.31,0.07 c -0.00,0.00 -0.01,0.00 -0.02,0.01 0.00,-0.00 0.01,-0.00 0.02,-0.01 z m 13.26,0.05 c -0.22,0.40 -0.49,0.66 -0.77,0.81 -0.29,0.14 -0.61,0.14 -0.97,0.04 0.25,0.68 0.51,0.95 0.81,0.81 0.28,-0.14 0.60,-0.69 0.94,-1.67 z m -6.15,0.04 c -0.07,0.00 -1.01,0.65 -1.37,0.88 -0.38,0.21 -0.85,0.41 -0.80,0.42 0.05,-0.00 0.81,-0.20 1.18,-0.42 0.35,-0.23 1.05,-0.88 1.00,-0.88 z m 8.51,0.15 c -0.31,0.32 -0.58,0.57 -0.81,0.73 -0.24,0.16 -0.43,0.24 -0.61,0.24 0.50,0.48 0.85,0.65 1.10,0.48 0.23,-0.16 0.35,-0.65 0.32,-1.47 z m -13.30,0.08 c 0.12,0.00 0.22,0.09 0.28,0.26 0.05,0.17 0.08,0.42 0.06,0.77 0.13,-0.35 0.16,-0.60 0.11,-0.77 -0.06,-0.17 -0.21,-0.26 -0.46,-0.26 z m 16.28,0.16 c -0.27,0.25 -0.54,0.46 -0.81,0.69 -0.28,0.21 -0.53,0.42 -0.81,0.61 0.32,0.40 0.62,0.49 0.89,0.28 0.27,-0.22 0.51,-0.75 0.73,-1.59 z m 16.36,0.20 c -0.22,0 -0.57,0.03 -0.90,0.09 -0.68,0.13 -2.58,0.58 -2.93,0.73 -0.34,0.12 0.21,0.15 0.88,0.04 0.66,-0.13 2.76,-0.64 3.11,-0.77 0.16,-0.06 0.06,-0.09 -0.16,-0.09 z m -26.28,0.14 c 0.39,0.21 0.74,0.36 1.04,0.42 0.29,0.05 0.54,0.03 0.75,-0.06 0.12,0.28 0.29,0.52 0.51,0.71 0.21,0.17 0.50,0.37 0.75,0.42 0.23,0.04 0.45,-0.03 0.70,-0.13 0.25,-0.10 0.50,-0.25 0.78,-0.46 l 0.26,0.35 c -1.28,0.53 -2.20,0.91 -2.80,1.17 -0.60,0.25 -0.60,0.17 -0.77,0.35 -0.16,0.17 -0.24,0.39 -0.22,0.69 l -0.97,0.55 c 0.48,-0.61 0.58,-1.02 0.31,-1.24 -0.28,-0.22 -0.93,-0.25 -1.98,-0.08 1.65,-0.71 2.60,-1.15 2.89,-1.31 0.27,-0.17 -0.73,0.14 -1.22,0.33 -0.50,0.19 -1.07,0.45 -1.75,0.79 0.39,-0.47 0.56,-0.82 0.48,-1.06 -0.07,-0.23 -0.38,-0.36 -0.93,-0.37 l 2.15,-1.06 z m -6.89,0.55 c 0.21,0.44 0.31,0.84 0.29,1.22 -0.03,0.36 -0.16,0.69 -0.44,1.00 l -0.66,-0.11 0.73,0.38 c 0.25,-0.29 0.42,-0.56 0.53,-0.84 0.10,-0.29 0.15,-0.57 0.08,-0.84 -0.07,-0.27 -0.25,-0.54 -0.53,-0.79 z m -1.53,0.04 c 0.29,0.47 0.44,0.89 0.48,1.24 0.02,0.34 -0.05,0.62 -0.28,0.84 0.21,0.04 0.36,-0.04 0.44,-0.24 0.07,-0.21 0.13,-0.64 0.02,-0.95 -0.10,-0.30 -0.33,-0.61 -0.66,-0.88 z m -0.93,0.08 -0.99,0.68 0.97,-0.44 c 0.17,0.15 0.29,0.33 0.33,0.53 0.04,0.19 0.01,0.41 -0.08,0.64 0.10,-0.06 0.17,-0.17 0.20,-0.31 0.02,-0.15 0.01,-0.36 -0.04,-0.55 -0.07,-0.19 -0.20,-0.36 -0.38,-0.55 z m 0.42,0 c 0.21,0.30 0.31,0.61 0.35,0.88 0.02,0.26 -0.03,0.53 -0.17,0.75 0.20,0.05 0.32,-0.01 0.37,-0.17 0.04,-0.17 -0.00,-0.58 -0.08,-0.82 -0.08,-0.25 -0.25,-0.45 -0.46,-0.64 z m 19.52,0.30 c 0.37,0.08 0.72,0.15 1.04,0.20 0.32,0.04 0.60,0.05 0.87,0.06 l -5.96,2.33 c -0.22,-0.20 -0.42,-0.35 -0.62,-0.44 -0.20,-0.09 -0.38,-0.14 -0.57,-0.12 l 2.75,-0.84 c 0.20,0.25 0.51,0.28 0.93,0.08 0.42,-0.20 0.92,-0.62 1.55,-1.26 z m 15.71,0.10 c -0.52,0.00 -2.07,0.30 -3.44,0.65 -1.70,0.43 -5.15,1.50 -6.47,1.95 -1.31,0.43 -1.94,0.78 -1.37,0.64 0.57,-0.15 3.31,-1.09 4.78,-1.53 1.45,-0.45 2.98,-0.91 3.91,-1.13 0.90,-0.23 1.37,-0.21 1.53,-0.20 0.13,-0.00 -0.09,0.00 -0.64,0.26 -0.54,0.26 -2.60,1.20 -2.60,1.35 0,0.13 1.77,-0.33 2.62,-0.53 0.85,-0.22 2.75,-0.71 2.44,-0.68 -0.35,0.03 -4.32,1.00 -4.42,0.88 -0.08,-0.13 3.78,-1.44 3.84,-1.62 0.00,-0.03 -0.06,-0.04 -0.18,-0.04 z M 16.53,27.05 c 0.27,-0.00 0.48,0.17 0.52,0.30 0.03,0.14 -0.16,0.37 -0.38,0.60 -0.22,0.22 -0.63,0.59 -0.93,0.73 -0.31,0.13 -0.81,0.22 -0.91,0.08 -0.10,-0.15 -0.00,-0.66 0.26,-0.95 0.26,-0.29 0.97,-0.67 1.31,-0.75 0.04,-0.00 0.08,-0.01 0.11,-0.01 z m 21.76,0.18 c -0.14,0.00 -0.64,0.12 -1.04,0.23 -0.68,0.17 -1.87,0.51 -3.33,1.02 -1.48,0.50 -5.02,1.79 -5.42,1.97 -0.37,0.15 1.48,-0.41 3.09,-0.93 1.58,-0.52 5.39,-1.75 6.36,-2.11 0.38,-0.14 0.44,-0.19 0.35,-0.18 z m -14.76,0.01 c 0.04,0.14 0.17,0.25 0.37,0.33 0.20,0.07 0.57,0.14 0.86,0.11 0.28,-0.04 0.58,-0.15 0.86,-0.35 0.09,0.08 0.20,0.15 0.33,0.24 0.12,0.07 0.24,0.16 0.39,0.24 -0.64,0.17 -1.21,0.34 -1.76,0.48 -0.54,0.14 -1.02,0.27 -1.46,0.37 0.01,-0.36 -0.03,-0.61 -0.13,-0.77 -0.11,-0.16 -0.27,-0.23 -0.51,-0.20 l 1.02,-0.46 z m 10.67,0.36 c -0.17,0.01 -1.37,0.31 -2.24,0.60 -0.99,0.30 -2.53,0.83 -3.56,1.22 -1.02,0.38 -2.26,0.89 -2.51,1.04 -0.25,0.12 0.05,0.06 1.01,-0.24 0.96,-0.32 3.44,-1.21 4.69,-1.64 1.22,-0.45 2.55,-0.90 2.62,-0.97 0.00,-0.00 -0.00,-0.00 -0.01,-0.00 z M 22.14,27.93 c 0.27,-7.65e-4 0.55,0.03 0.65,0.14 0.14,0.16 0.11,0.62 -0.17,0.84 -0.29,0.22 -1.13,0.38 -1.55,0.44 -0.42,0.04 -0.90,-0.03 -0.97,-0.17 -0.08,-0.15 0.21,-0.55 0.48,-0.75 0.26,-0.21 0.70,-0.40 1.09,-0.46 0.13,-0.02 0.30,-0.03 0.47,-0.03 z m -4.13,0.58 c 0.21,-0.00 0.40,0.01 0.52,0.07 0.24,0.11 0.26,0.46 0.11,0.73 -0.16,0.25 -0.54,0.63 -1.04,0.84 -0.51,0.20 -1.55,0.45 -1.97,0.39 -0.42,-0.07 -0.57,-0.57 -0.53,-0.82 0.02,-0.25 0.35,-0.48 0.71,-0.66 0.34,-0.20 0.88,-0.38 1.35,-0.46 0.25,-0.05 0.57,-0.09 0.85,-0.09 z m -1.34,0.53 c -0.53,0.36 -0.82,0.63 -0.86,0.82 -0.04,0.19 0.18,0.35 0.57,0.29 0.38,-0.08 1.52,-0.57 1.73,-0.75 0.19,-0.17 0.03,-0.28 -0.51,-0.31 0.09,0.07 0.05,0.16 -0.10,0.29 -0.16,0.11 -0.66,0.38 -0.88,0.42 -0.24,0.03 -0.49,-0.08 -0.48,-0.20 0.00,-0.12 0.19,-0.31 0.55,-0.55 z m 6.71,0.00 c 0.07,7e-6 0.14,0.00 0.22,0.01 0.40,0.04 0.78,0.20 1.19,0.48 l -1.80,0.79 c -0.55,-0.05 -0.95,-0.14 -1.20,-0.26 -0.26,-0.11 -0.39,-0.32 -0.29,-0.44 0.10,-0.13 0.40,-0.25 0.91,-0.35 0.31,-0.15 0.63,-0.23 0.95,-0.23 z m 11.76,2.26 c -0.13,-0.00 -2.36,0.67 -3.47,1.07 -1.19,0.41 -2.59,1.00 -3.60,1.44 -1.00,0.44 -2.81,1.27 -2.40,1.15 0.41,-0.13 3.30,-1.32 4.89,-1.93 1.58,-0.61 4.37,-1.62 4.58,-1.73 0.01,-0.00 0.01,-0.01 9.82e-4,-0.01 z m -14.19,0.25 c 0.96,0.36 1.67,0.72 2.20,1.11 0.52,0.37 0.87,0.66 0.91,1.15 0.02,0.48 -0.24,1.04 -0.78,1.73 0.59,-0.26 0.96,-0.28 1.11,-0.06 0.13,0.22 -0.01,0.93 -0.24,1.33 -0.23,0.37 -0.60,0.67 -1.13,0.91 -0.15,-0.17 -0.49,-0.34 -1.02,-0.55 -0.53,-0.21 -1.47,-0.55 -2.13,-0.68 -0.66,-0.13 -1.44,-0.08 -1.78,-0.13 -0.35,-0.05 -0.53,0.07 -0.26,-0.22 0.26,-0.32 1.38,-1.08 1.86,-1.62 0.46,-0.54 0.77,-1.03 0.97,-1.53 0.20,-0.50 0.30,-0.96 0.28,-1.42 z m 14.98,0.38 c -0.16,-0.00 -2.57,0.64 -3.91,1.14 -1.43,0.53 -3.77,1.56 -4.62,1.97 -0.85,0.39 -1.04,0.61 -0.44,0.39 0.61,-0.23 2.53,-1.15 4.05,-1.73 1.50,-0.59 4.74,-1.67 4.93,-1.78 0.00,-0.00 0.00,-0.00 -0.00,-0.00 z m -14.16,0.54 c 0.35,0.41 0.59,0.85 0.73,1.35 0.12,0.49 0.13,1.01 0.04,1.60 l -0.48,0.35 0.64,-0.08 c 0.26,-0.65 0.33,-1.23 0.17,-1.77 -0.16,-0.54 -0.53,-1.02 -1.10,-1.44 z m -0.55,0.77 c -0.08,0.22 -0.22,0.44 -0.40,0.66 -0.17,0.21 -0.39,0.43 -0.64,0.64 0.22,-0.04 0.40,-0.12 0.57,-0.24 0.17,-0.13 0.30,-0.29 0.44,-0.51 0.13,0.39 0.23,0.78 0.28,1.20 0.04,0.40 0.04,0.82 0,1.24 0.22,-0.39 0.31,-0.83 0.26,-1.33 -0.05,-0.50 -0.21,-1.04 -0.53,-1.66 z m -0.29,1.28 c -0.00,0.36 -0.02,0.67 -0.04,1.02 -0.03,0.33 -0.05,0.64 -0.10,0.95 0.19,-0.45 0.31,-0.81 0.33,-1.15 0.02,-0.32 -0.03,-0.61 -0.17,-0.82 z m 2.60,1.49 -1.20,0.19 0.93,0.04 c 0.07,0.07 0.07,0.16 0.02,0.33 -0.06,0.16 -0.17,0.34 -0.37,0.60 0.20,-0.05 0.35,-0.18 0.46,-0.37 0.10,-0.20 0.15,-0.46 0.15,-0.79 z" />
</svg>
