<?xml version="1.0" encoding="UTF-8" standalone="no"?>
<!-- Created with Inkscape (http://www.inkscape.org/) -->
<svg xmlns:dc="http://purl.org/dc/elements/1.1/" xmlns:cc="http://creativecommons.org/ns#" xmlns:rdf="http://www.w3.org/1999/02/22-rdf-syntax-ns#" xmlns:svg="http://www.w3.org/2000/svg" xmlns="http://www.w3.org/2000/svg" version="1.0" width="100%" height="100%" viewBox="0 0 48 48" id="svg2561">
<defs id="defs8" />
<path d="m 21.66,46.40 c -0.54,-0.39 -0.53,-0.44 0.26,-1.24 0.94,-0.94 0.94,-0.98 -0.29,-1.18 -1.75,-0.28 -3.66,-0.88 -4.82,-1.53 l -1.16,-0.65 -0.57,0.79 c -0.42,0.59 -0.76,0.75 -1.33,0.64 -0.89,-0.17 -1.02,-0.97 -0.19,-1.19 0.52,-0.13 1.25,-1.26 1.25,-1.93 0,-0.15 -0.27,-0.28 -0.61,-0.28 -0.34,0 -0.69,-0.19 -0.78,-0.44 -0.13,-0.34 -0.28,-0.36 -0.71,-0.10 -0.42,0.26 -0.80,0.21 -1.65,-0.18 -0.78,-0.37 -1.59,-0.49 -2.78,-0.39 C 6.86,38.79 6.36,38.68 5.56,38.15 5.02,37.79 4.54,37.20 4.49,36.84 4.28,35.42 6.75,35.18 9.68,36.33 c 1.17,0.46 1.55,0.49 2.03,0.19 0.48,-0.29 0.67,-0.28 1.04,0.07 0.24,0.24 0.95,0.45 1.57,0.45 0.89,0 1.08,-0.09 0.93,-0.48 -0.10,-0.26 -0.18,-0.67 -0.18,-0.91 0,-0.23 -0.20,-0.43 -0.45,-0.43 -0.24,0 -0.67,-0.34 -0.94,-0.76 -0.62,-0.95 -0.41,-2.14 0.65,-3.77 0.90,-1.36 0.91,-2.61 0.00,-2.61 -0.31,0 -0.64,0.19 -0.72,0.42 -0.10,0.30 0.01,0.36 0.37,0.22 0.40,-0.15 0.49,-0.05 0.42,0.48 -0.06,0.43 -0.34,0.71 -0.77,0.77 -0.94,0.13 -1.28,-1.25 -0.59,-2.45 0.78,-1.36 0.62,-1.91 -1.02,-3.45 -0.84,-0.78 -1.61,-1.78 -1.71,-2.21 -0.10,-0.43 -0.28,-0.92 -0.41,-1.09 -0.42,-0.55 -0.68,-2.89 -0.32,-2.89 0.18,0 0.33,0.22 0.33,0.49 0,0.91 0.66,2.72 1.27,3.47 0.33,0.40 0.51,0.57 0.40,0.36 -0.10,-0.21 -0.02,-0.38 0.17,-0.38 0.20,0 0.04,-0.36 -0.36,-0.80 -0.54,-0.59 -0.33,-0.50 0.78,0.33 1.91,1.43 1.92,1.44 1.20,1.21 -0.56,-0.17 -0.56,-0.16 -0.06,0.24 0.29,0.24 0.53,0.54 0.53,0.66 0,0.12 -0.24,0.13 -0.53,0.02 -0.40,-0.15 -0.44,-0.11 -0.18,0.14 0.50,0.50 1.48,0.21 1.43,-0.42 -0.04,-0.51 -0.01,-0.51 0.52,-0.02 0.31,0.28 0.50,0.62 0.42,0.74 -0.34,0.55 1.68,1.32 4.87,1.85 2.74,0.45 5.84,0.69 5.58,0.43 -0.21,-0.22 -0.36,-0.24 -4.25,-0.71 -2.59,-0.31 -6.21,-1.19 -5.95,-1.45 0.07,-0.07 0.94,0.07 1.92,0.33 0.98,0.25 3.02,0.60 4.53,0.77 3.57,0.40 4.71,0.61 4.71,0.89 0,0.12 0.44,0.19 0.98,0.15 1.52,-0.11 1.65,-0.18 0.83,-0.44 -0.70,-0.22 -0.68,-0.24 0.30,-0.31 0.58,-0.03 1.30,-0.03 1.59,-0.00 0.29,0.03 0.53,-0.07 0.53,-0.24 0,-0.35 1.78,-1.01 2.14,-0.80 0.13,0.08 0.59,-0.00 1.02,-0.20 0.52,-0.24 0.68,-0.46 0.49,-0.70 -0.19,-0.23 -0.07,-0.47 0.35,-0.74 0.55,-0.34 0.61,-0.33 0.45,0.08 -0.29,0.75 0.20,0.57 1.16,-0.42 0.48,-0.50 0.72,-0.91 0.53,-0.91 -0.18,0 -0.42,0.13 -0.53,0.30 -0.10,0.16 -0.55,0.30 -1.00,0.29 -0.76,-0.00 -0.77,-0.03 -0.21,-0.34 0.87,-0.48 2.28,-1.83 2.28,-2.19 0,-0.16 -0.37,0.04 -0.83,0.47 -0.84,0.79 -1.96,1.46 -2.41,1.46 -0.13,-0.00 0.20,-0.27 0.75,-0.61 0.55,-0.33 0.92,-0.74 0.81,-0.91 -0.10,-0.16 -0.03,-0.29 0.13,-0.29 0.17,0 0.32,-0.15 0.32,-0.34 0,-0.23 -0.14,-0.22 -0.45,0.03 -0.24,0.20 -0.38,0.48 -0.30,0.61 0.07,0.12 -0.12,0.30 -0.45,0.39 -0.33,0.08 -0.52,0.03 -0.43,-0.11 0.27,-0.45 -0.18,-0.31 -1.30,0.37 -0.81,0.50 -1.11,0.56 -1.29,0.26 -0.13,-0.21 -0.38,-0.30 -0.55,-0.19 -0.46,0.28 -2.95,0.71 -5.38,0.93 -2.19,0.19 -8.73,-0.49 -9.38,-0.98 -0.19,-0.14 -0.97,-0.49 -1.74,-0.77 -1.43,-0.53 -3.01,-1.81 -4.16,-3.39 -0.61,-0.84 -0.66,-0.86 -0.67,-0.24 -0.01,0.78 -0.45,1.13 -1.12,0.87 -0.37,-0.14 -0.39,-0.27 -0.11,-0.61 0.28,-0.34 0.23,-0.49 -0.24,-0.75 -0.33,-0.17 -0.81,-0.32 -1.06,-0.32 -0.65,0 -1.71,-1.61 -1.71,-2.61 0,-0.46 -0.22,-1.08 -0.49,-1.38 C 5.14,10.76 5.44,9.36 6.27,9.14 c 0.32,-0.08 0.59,-0.40 0.59,-0.70 0,-0.80 0.83,-1.50 1.81,-1.50 1.04,0 1.65,0.66 1.39,1.50 -0.10,0.34 -0.06,0.62 0.09,0.62 0.16,0 0.37,-0.33 0.47,-0.73 0.48,-1.92 5.03,-4.52 9.58,-5.47 4.88,-1.01 11.92,-0.01 14.83,2.11 3.16,2.31 4.35,3.98 4.82,6.77 0.11,0.70 0.34,1.27 0.49,1.27 0.15,0 0.27,0.34 0.27,0.77 0,1.01 0.69,1.24 1.64,0.55 0.84,-0.61 1.82,-2.69 1.51,-3.20 -0.10,-0.17 -0.02,-0.42 0.18,-0.55 0.21,-0.13 0.28,-0.38 0.17,-0.57 -0.30,-0.49 -1.25,-0.41 -1.72,0.15 -0.34,0.41 -0.31,0.55 0.15,0.90 0.42,0.30 0.51,0.64 0.38,1.31 -0.21,1.07 -1.06,2.16 -1.69,2.16 -0.30,0 -0.18,-0.27 0.37,-0.85 0.94,-0.98 1.01,-1.47 0.31,-2.24 -0.42,-0.46 -0.44,-0.69 -0.14,-1.35 0.20,-0.44 0.29,-0.87 0.20,-0.95 -0.23,-0.23 -1.03,0.51 -1.24,1.17 -0.24,0.78 -0.61,0.73 -0.67,-0.09 -0.05,-0.78 0.96,-2.56 1.69,-2.94 0.80,-0.42 1.87,0.14 1.87,0.98 0,0.40 0.21,0.91 0.48,1.13 1.12,0.93 -0.24,4.59 -2.10,5.63 -1.38,0.77 -1.87,1.61 -2.11,3.64 -0.25,2.15 -1.60,4.55 -3.83,6.81 -1.77,1.80 -1.88,1.97 -1.29,2.19 0.47,0.17 0.63,0.49 0.63,1.27 0,1.26 -0.62,1.85 -1.69,1.58 -0.66,-0.16 -0.76,-0.32 -0.60,-0.95 l 0.18,-0.75 -1.14,0.48 c -2.59,1.10 -3.92,1.40 -6.20,1.41 -2.37,0.00 -3.10,0.30 -1.64,0.67 0.41,0.10 1.28,0.10 1.92,0 1.07,-0.17 1.17,-0.12 1.14,0.49 -0.02,0.52 0.24,0.77 1.16,1.09 0.66,0.23 1.44,0.64 1.73,0.91 0.36,0.33 0.80,0.42 1.35,0.28 0.71,-0.17 0.79,-0.12 0.64,0.42 -0.08,0.34 -0.05,0.62 0.08,0.62 0.52,0 0.56,-0.95 0.09,-2.21 -0.34,-0.94 -0.42,-1.66 -0.24,-2.51 l 0.24,-1.19 0.71,2.28 c 0.83,2.65 0.89,3.73 0.26,4.26 -0.24,0.20 -0.45,0.55 -0.45,0.76 0,0.21 -0.20,0.55 -0.45,0.76 -0.63,0.52 -0.60,3.17 0.03,3.91 0.27,0.31 0.75,0.86 1.06,1.21 0.31,0.35 0.57,0.85 0.57,1.10 0,0.70 -1.41,0.55 -1.95,-0.20 -0.39,-0.56 -0.57,-0.61 -1.15,-0.33 -1.37,0.66 -2.86,1.02 -4.95,1.19 -1.17,0.09 -2.17,0.28 -2.22,0.42 -0.05,0.13 -0.46,0.66 -0.91,1.19 -0.73,0.83 -0.88,0.89 -1.38,0.52 z m 1.79,-2.34 c 0.28,-0.98 -0.21,-0.46 -0.72,0.76 -0.33,0.80 -0.33,0.85 0.06,0.45 0.24,-0.24 0.54,-0.79 0.66,-1.21 z m 5.45,-0.78 c 0.76,-0.19 1.04,-0.82 1.13,-2.56 0.03,-0.81 0.10,-0.66 0.25,0.60 l 0.20,1.67 0.05,-1.69 c 0.02,-0.93 -0.03,-1.78 -0.12,-1.87 -0.09,-0.09 -0.64,0.01 -1.20,0.25 -1.37,0.57 -3.16,0.69 -5.88,0.39 -2.66,-0.29 -4.61,-0.96 -6.27,-2.16 l -1.21,-0.87 -0.10,0.83 c -0.05,0.45 -0.01,1.42 0.09,2.15 0.17,1.19 0.33,1.38 1.62,2.03 2.06,1.04 4.70,1.54 5.50,1.04 0.53,-0.33 0.70,-0.30 1.16,0.16 0.44,0.45 0.84,0.52 2.29,0.37 0.96,-0.09 2.08,-0.25 2.48,-0.35 z m 0.25,-1.65 c 0,-0.75 0.06,-1.06 0.13,-0.68 0.07,0.37 0.07,0.99 0,1.36 -0.07,0.37 -0.13,0.07 -0.13,-0.68 z m -14.38,0.57 c 0,-0.16 -0.13,-0.21 -0.30,-0.11 -0.16,0.10 -0.30,0.32 -0.30,0.49 0,0.16 0.13,0.21 0.30,0.11 0.16,-0.10 0.30,-0.32 0.30,-0.49 z m 17.71,-0.32 c -0.19,-0.19 -0.45,-0.25 -0.57,-0.13 -0.12,0.12 -0.02,0.34 0.21,0.49 0.56,0.35 0.82,0.09 0.36,-0.36 z m -16.99,-0.7 c 0.09,-0.24 0.04,-0.45 -0.11,-0.45 -0.16,0 -0.29,0.20 -0.29,0.45 0,0.24 0.05,0.45 0.11,0.45 0.06,0 0.20,-0.20 0.29,-0.45 z m 12.97,-1.68 c 0.33,-0.22 0.21,-0.25 -0.45,-0.10 -1.12,0.24 -1.36,0.42 -0.58,0.41 0.32,0 0.79,-0.14 1.04,-0.31 z M 15.39,38.61 c 0,-0.62 -0.17,-0.92 -0.60,-1.03 -0.33,-0.08 -0.68,-0.03 -0.77,0.11 -0.09,0.15 0.04,0.27 0.30,0.27 0.26,0 0.47,0.20 0.47,0.45 0,0.24 -0.24,0.45 -0.53,0.46 -0.45,0.00 -0.46,0.04 -0.07,0.29 0.81,0.52 1.21,0.33 1.21,-0.57 z m 14.35,-0.40 c 0.78,-0.33 1.64,-0.85 1.92,-1.15 0.47,-0.52 0.44,-0.62 -0.48,-1.64 -0.54,-0.59 -1.12,-1.08 -1.29,-1.08 -0.17,0 -0.52,-0.18 -0.78,-0.42 -0.26,-0.23 -0.78,-0.51 -1.16,-0.63 -0.52,-0.16 -0.64,-0.10 -0.51,0.24 0.27,0.71 -1.05,1.23 -2.97,1.16 -1.52,-0.05 -1.75,0.01 -1.93,0.58 -0.12,0.39 -0.05,0.73 0.17,0.88 0.25,0.15 0.32,0.65 0.21,1.47 l -0.16,1.23 1.41,0.11 c 2.10,0.17 3.98,-0.08 5.57,-0.75 z m -3.03,-0.91 c -0.50,-0.50 -0.45,-1.32 0.11,-1.89 0.62,-0.62 1.42,-0.60 2.25,0.06 0.59,0.48 0.62,0.63 0.28,1.36 -0.29,0.64 -0.58,0.83 -1.33,0.83 -0.52,0 -1.12,-0.16 -1.32,-0.36 z m 0.7,-0.54 c -0.10,-0.16 -0.24,-0.30 -0.32,-0.30 -0.07,0 -0.13,0.13 -0.13,0.30 0,0.16 0.14,0.30 0.32,0.30 0.17,0 0.23,-0.13 0.13,-0.30 z m 1.60,-0.68 c -0.14,-0.43 -1.75,-0.71 -1.75,-0.29 0,0.45 0.37,0.67 1.14,0.67 0.45,0 0.68,-0.14 0.61,-0.38 z m -15.44,2.03 c 0,-0.07 -0.13,-0.13 -0.30,-0.13 -0.16,0 -0.30,0.14 -0.30,0.32 0,0.17 0.13,0.23 0.30,0.13 0.16,-0.10 0.30,-0.24 0.30,-0.32 z m 5.78,0.35 c 0,-0.06 -0.21,-0.20 -0.47,-0.30 -0.27,-0.10 -0.39,-0.05 -0.28,0.11 0.17,0.28 0.75,0.42 0.75,0.18 z m 12.02,-0.18 c 0.10,-0.16 0.05,-0.30 -0.11,-0.30 -0.16,0 -0.38,0.13 -0.49,0.30 -0.10,0.16 -0.05,0.30 0.11,0.30 0.16,0 0.38,-0.13 0.49,-0.30 z M 20.56,37.56 c 0,-0.39 0.31,-1.31 0.7,-2.05 1.09,-2.10 0.62,-2.83 -1.52,-2.37 -1.34,0.28 -3.65,1.68 -4.06,2.45 -0.24,0.45 -0.24,0.57 -0.00,0.42 0.18,-0.11 0.75,0.09 1.27,0.45 0.99,0.70 3.01,1.77 3.39,1.79 0.12,0.00 0.22,-0.31 0.22,-0.70 z m 1.52,-0.67 c 0,-0.44 -0.13,-0.69 -0.30,-0.59 -0.16,0.10 -0.30,0.45 -0.30,0.77 0,0.32 0.13,0.59 0.30,0.59 0.16,0 0.30,-0.35 0.30,-0.77 z m -5.63,-0.13 c -0.10,-0.16 -0.35,-0.30 -0.55,-0.29 -0.21,0 -0.17,0.12 0.09,0.29 0.58,0.37 0.69,0.37 0.45,0 z m 16.28,-0.91 c 0,-0.16 -0.21,-0.30 -0.47,-0.30 -0.26,0 -0.38,0.13 -0.28,0.30 0.10,0.16 0.31,0.30 0.47,0.30 0.15,0 0.28,-0.13 0.28,-0.30 z m -16.79,-2.24 c 0.08,-0.44 -0.02,-0.51 -0.52,-0.35 -0.49,0.15 -0.63,0.07 -0.63,-0.39 0,-1.21 1.69,-1.12 2.00,0.10 l 0.17,0.7 1.26,-0.57 c 0.69,-0.31 1.47,-0.57 1.72,-0.58 0.64,-0.00 0.63,-2.28 -0.00,-2.30 -0.24,-0.00 -1.25,-0.38 -2.24,-0.83 -0.98,-0.45 -1.83,-0.82 -1.90,-0.82 -0.06,0 -0.11,0.32 -0.11,0.73 0,0.40 -0.34,1.32 -0.75,2.05 -0.41,0.72 -0.75,1.53 -0.76,1.79 -0.00,1.15 1.56,1.57 1.77,0.48 z m 9.18,-0.19 c 0,-0.16 -0.13,-0.30 -0.30,-0.30 -0.16,0 -0.30,0.13 -0.30,0.30 0,0.16 0.13,0.30 0.30,0.30 0.16,0 0.30,-0.13 0.30,-0.30 z m 7.85,-1.38 c -0.19,-0.66 -0.40,-0.98 -0.46,-0.71 -0.11,0.52 0.45,2.27 0.67,2.05 0.07,-0.07 -0.02,-0.67 -0.21,-1.33 z m -6.02,0.17 c 0,-0.16 -0.75,-0.30 -1.67,-0.30 -0.91,0 -1.67,0.13 -1.67,0.30 0,0.16 0.75,0.30 1.67,0.30 0.91,0 1.67,-0.13 1.67,-0.30 z m -5.88,-1.29 c -0.08,-0.20 -0.14,0.03 -0.14,0.53 0.00,0.50 0.07,0.66 0.15,0.37 0.07,-0.29 0.07,-0.70 -0.00,-0.91 z m 1.19,0.86 c 0.55,-0.55 0.56,-1.08 0.01,-1.08 -0.39,0 -0.79,0.61 -0.79,1.24 0,0.40 0.28,0.34 0.78,-0.15 z m 6.37,-2.27 c 1.73,-0.33 4.24,-1.34 4.55,-1.83 0.28,-0.46 -0.06,-0.41 -1.88,0.27 -1.36,0.52 -3.94,0.84 -7.15,0.90 -1.02,0.01 -1.14,0.83 -0.15,1.00 0.89,0.15 2.73,0.01 4.64,-0.35 z m -6.23,-0.48 c 0,-0.44 -0.30,-0.56 -2.54,-0.92 -1.13,-0.18 -2.47,-0.66 -4.23,-1.53 -0.68,-0.33 -0.83,-0.33 -0.83,-0.01 0,0.36 2.84,1.82 5.02,2.56 1.39,0.47 2.58,0.43 2.58,-0.09 z m 12.17,0.14 c 0,-0.16 -0.13,-0.30 -0.30,-0.30 -0.16,0 -0.30,0.13 -0.30,0.30 0,0.16 0.13,0.30 0.30,0.30 0.16,0 0.30,-0.13 0.30,-0.30 z m 0.60,-0.45 c 0,-0.24 -0.13,-0.45 -0.29,-0.45 -0.16,0 -0.21,0.20 -0.11,0.45 0.09,0.24 0.22,0.45 0.29,0.45 0.06,0 0.11,-0.20 0.11,-0.45 z M 19.04,27.32 c 0,-0.16 -0.14,-0.30 -0.32,-0.30 -0.17,0 -0.23,0.13 -0.13,0.30 0.10,0.16 0.24,0.30 0.32,0.30 0.07,0 0.13,-0.13 0.13,-0.30 z m 11.26,-1.06 c 0,-0.24 -0.13,-0.45 -0.30,-0.45 -0.16,0 -0.30,0.20 -0.30,0.45 0,0.24 0.13,0.45 0.30,0.45 0.16,0 0.30,-0.20 0.30,-0.45 z m -13.23,-0.76 c -0.10,-0.16 -0.24,-0.30 -0.32,-0.30 -0.07,0 -0.13,0.13 -0.13,0.30 0,0.16 0.14,0.30 0.32,0.30 0.17,0 0.23,-0.13 0.13,-0.30 z m -3.19,-0.91 c 0,-0.16 -0.14,-0.30 -0.32,-0.30 -0.17,0 -0.23,0.13 -0.13,0.30 0.10,0.16 0.24,0.30 0.32,0.30 0.07,0 0.13,-0.13 0.13,-0.30 z M 37.15,23.06 c 0.10,-0.16 0.05,-0.30 -0.11,-0.30 -0.16,0 -0.38,0.13 -0.49,0.30 -0.10,0.16 -0.05,0.30 0.11,0.30 0.16,0 0.38,-0.13 0.49,-0.30 z m -5.63,-3.36 c 2.84,-0.82 4.95,-2.19 6.20,-4.00 1.52,-2.20 1.78,-4.08 0.80,-5.98 -2.58,-5.06 -10.94,-7.91 -18.30,-6.24 -4.57,1.04 -8.05,3.30 -9.26,6.05 -0.54,1.22 -0.65,1.84 -0.46,2.63 1.12,4.82 5.35,7.69 12.02,8.13 3.48,0.23 6.99,0.00 8.99,-0.57 z m -0.73,-1.85 c 0.19,-0.31 1.64,-0.34 1.64,-0.03 0,0.12 -0.40,0.24 -0.90,0.25 -0.49,0.01 -0.83,-0.08 -0.74,-0.22 z m 2.78,-0.15 c 0.21,-0.08 0.55,-0.08 0.76,0 0.21,0.08 0.03,0.15 -0.38,0.15 -0.42,0 -0.59,-0.06 -0.38,-0.15 z m 0.07,-0.72 c -0.67,-0.18 -0.69,-0.23 -0.20,-0.44 0.31,-0.13 0.69,-0.08 0.89,0.10 0.46,0.46 0.21,0.59 -0.68,0.34 z M 14.93,16.36 c 0.10,-0.16 0.37,-0.30 0.60,-0.30 0.23,0 0.50,0.13 0.60,0.30 0.10,0.17 -0.15,0.30 -0.60,0.30 -0.45,0 -0.71,-0.13 -0.60,-0.30 z m 20.54,-0.36 c 0,-0.33 0.84,-0.30 1.05,0.04 0.09,0.15 -0.10,0.26 -0.43,0.24 -0.33,-0.02 -0.61,-0.15 -0.61,-0.28 z m -2.43,-0.84 c 0,-0.16 0.19,-0.30 0.43,-0.30 0.24,0 0.52,0.13 0.62,0.30 0.10,0.16 -0.09,0.30 -0.43,0.30 -0.34,0 -0.62,-0.13 -0.62,-0.30 z M 12.99,14.87 c -0.28,-0.18 -0.31,-0.32 -0.07,-0.46 0.38,-0.24 0.94,0.03 0.94,0.45 0,0.35 -0.32,0.35 -0.87,0.01 z m 22.17,0.08 c 0,-0.50 0.65,-0.99 1.10,-0.82 0.23,0.08 0.42,0.29 0.42,0.46 0,0.16 -0.18,0.23 -0.42,0.14 -0.23,-0.09 -0.57,-0.00 -0.76,0.17 -0.20,0.20 -0.34,0.21 -0.34,0.03 z m -0.91,-1.70 c 0,-0.36 0.53,-0.56 1.03,-0.36 0.72,0.28 0.58,0.57 -0.27,0.57 -0.42,0 -0.76,-0.09 -0.76,-0.21 z m 3.27,-0.83 C 35.68,8.14 28.83,5.73 21.17,6.67 c -2.42,0.29 -5.60,1.62 -6.99,2.90 -0.41,0.38 -0.84,0.70 -0.95,0.70 -0.10,0 -0.48,0.48 -0.83,1.06 -0.34,0.58 -0.77,1.06 -0.94,1.06 -0.45,0 -0.38,-1.27 0.13,-2.51 0.41,-0.99 2.97,-3.57 3.54,-3.57 0.14,0 1.01,-0.35 1.95,-0.77 0.93,-0.42 2.00,-0.72 2.36,-0.65 0.56,0.11 0.55,0.13 -0.13,0.17 -0.43,0.02 -0.96,0.24 -1.17,0.49 -0.33,0.39 -0.20,0.39 1.10,0.00 1.54,-0.47 4.67,-0.62 4.67,-0.22 0,0.12 0.71,0.27 1.58,0.32 2.26,0.13 5.21,0.87 7.79,1.94 1.79,0.74 2.45,1.22 3.42,2.44 1.16,1.47 1.66,2.61 1.44,3.27 -0.05,0.17 -0.34,-0.21 -0.63,-0.88 z M 22.77,5.51 c -0.21,-0.08 -0.55,-0.08 -0.76,0 -0.21,0.08 -0.03,0.15 0.38,0.15 0.42,0 0.59,-0.06 0.38,-0.15 z m -9.89,7.57 c -0.29,-0.06 -0.53,-0.24 -0.53,-0.39 0,-0.38 0.83,-0.35 1.07,0.04 0.25,0.41 0.11,0.50 -0.54,0.35 z m 1.29,0.09 c 0,-0.32 0.58,-0.45 0.75,-0.17 0.10,0.17 -0.02,0.31 -0.28,0.31 -0.26,0 -0.47,-0.06 -0.47,-0.13 z m 20.84,-1.69 c -0.10,-0.16 -0.04,-0.30 0.13,-0.30 0.17,0 0.32,0.13 0.32,0.30 0,0.16 -0.06,0.30 -0.13,0.30 -0.07,0 -0.21,-0.13 -0.32,-0.30 z M 14.17,10.58 c 0,-0.16 0.26,-0.30 0.59,-0.30 0.32,0 0.67,0.13 0.77,0.30 0.10,0.17 -0.14,0.30 -0.59,0.30 -0.42,0 -0.77,-0.13 -0.77,-0.30 z M 31.91,9.87 c 0.14,-0.43 1.13,-0.66 1.13,-0.26 0,0.16 -0.28,0.36 -0.62,0.45 -0.39,0.10 -0.58,0.03 -0.50,-0.19 z M 16.15,9.06 c -0.10,-0.16 -0.05,-0.30 0.11,-0.30 0.16,0 0.38,0.13 0.49,0.30 0.10,0.16 0.05,0.30 -0.11,0.30 -0.16,0 -0.38,-0.13 -0.49,-0.30 z m 14.88,-0.35 c -0.08,-0.13 0.12,-0.25 0.46,-0.25 0.34,0 0.62,0.11 0.62,0.25 0,0.14 -0.21,0.25 -0.46,0.25 -0.25,0 -0.54,-0.11 -0.62,-0.25 z m -1.16,-0.54 c -0.32,-0.11 -0.45,-0.29 -0.29,-0.39 0.31,-0.19 1.26,0.25 1.02,0.48 -0.07,0.07 -0.40,0.03 -0.73,-0.08 z m -3.82,-0.31 c 0,-0.24 0.74,-0.60 1.24,-0.60 0.66,0 0.20,0.76 -0.48,0.80 -0.42,0.02 -0.76,-0.06 -0.76,-0.19 z m -5.78,-0.30 c -0.36,-0.23 -0.32,-0.29 0.22,-0.29 0.37,-0.00 0.68,0.13 0.68,0.29 0,0.38 -0.32,0.38 -0.91,0 z m 4.41,-0.30 c -0.10,-0.16 0.02,-0.30 0.28,-0.30 0.26,0 0.47,0.13 0.47,0.30 0,0.16 -0.12,0.30 -0.28,0.30 -0.15,0 -0.37,-0.13 -0.47,-0.30 z m 15.55,8.29 c -0.10,-0.10 -0.17,0.07 -0.15,0.39 0.01,0.35 0.08,0.42 0.18,0.18 0.08,-0.21 0.07,-0.48 -0.02,-0.58 z M 8.32,14.67 C 6.96,13.94 6.51,10.94 7.81,11.35 8.59,11.60 8.59,10.55 7.80,9.84 7.34,9.42 7.09,9.38 6.59,9.65 5.90,10.02 5.72,10.88 6.33,10.88 c 0.24,0.00 0.38,0.48 0.38,1.35 0.00,1.44 1.00,2.91 1.94,2.89 0.29,-0.00 0.15,-0.19 -0.35,-0.46 z m 1.51,-0.26 c -0.61,-0.45 -0.68,-1.72 -0.19,-3.68 0.26,-1.04 0.25,-1.45 -0.03,-1.80 -0.21,-0.25 -0.48,-0.45 -0.61,-0.45 -0.38,0 -0.54,1.09 -0.24,1.63 0.37,0.67 0.04,1.63 -0.63,1.85 -0.88,0.28 -0.42,1.61 0.84,2.42 1.12,0.71 1.84,0.74 0.87,0.03 z M 40.34,13.93 c 0,-0.16 -0.13,-0.30 -0.30,-0.30 -0.16,0 -0.30,0.13 -0.30,0.30 0,0.16 0.13,0.30 0.30,0.30 0.16,0 0.30,-0.13 0.30,-0.30 z M 9.12,8.05 c 0.70,0.05 0.77,-0.01 0.47,-0.38 -0.53,-0.64 -1.40,-0.54 -1.93,0.22 -0.36,0.52 -0.38,0.75 -0.10,1.10 0.31,0.37 0.39,0.33 0.54,-0.28 0.14,-0.56 0.36,-0.71 1.01,-0.66 z m 33.96,0.38 c 0,-0.73 -0.80,-1.12 -1.29,-0.64 -0.25,0.25 -0.19,0.45 0.24,0.79 0.80,0.61 1.05,0.57 1.05,-0.14 z" />
</svg>
