<?xml version="1.0" encoding="UTF-8" standalone="no"?>
<!-- Created with Inkscape (http://www.inkscape.org/) -->
<svg xmlns:dc="http://purl.org/dc/elements/1.1/" xmlns:cc="http://creativecommons.org/ns#" xmlns:rdf="http://www.w3.org/1999/02/22-rdf-syntax-ns#" xmlns:svg="http://www.w3.org/2000/svg" xmlns="http://www.w3.org/2000/svg" version="1.1" width="100%" height="100%" viewBox="0 0 48 48" id="svg2" style="overflow:visible">
<defs id="defs33" />
<path d="m 19.34,1.31 c -1.71,0.00 -3.40,0.14 -4.83,0.46 C 12.11,2.17 10.12,3.02 8.72,4.12 7.37,5.12 6.37,6.46 6.12,8.16 5.77,14.00 5.88,19.59 6.03,25.13 c 0.09,5.54 0.64,10.62 1.24,15.86 0.89,1.74 2.44,3.34 4.63,4.24 2.04,0.94 5.44,1.54 8.23,1.59 2.69,-0.04 5.68,-0.59 8.23,-1.64 2.39,-1.19 4.54,-2.83 6.43,-5.13 l 0.10,-7.23 c 1.04,1.04 2.14,1.24 3.49,0.79 1.14,-0.59 2.94,-1.64 4.04,-3.89 1.04,-2.54 1.74,-7.03 2.09,-10.17 0.05,-3.14 -0.39,-6.58 -1.14,-8.38 C 42.65,9.31 41.46,8.51 40.41,8.16 39.31,7.51 37.81,7.41 36.46,7.66 c 0,-0.74 -0.54,-1.54 -1.64,-2.39 C 33.52,4.32 31.82,3.07 29.73,2.47 27.53,1.77 24.89,1.42 22.39,1.42 21.40,1.35 20.37,1.31 19.34,1.31 z m 0.61,0.65 c 0.30,-0.00 0.60,0 0.89,0 2.14,0 4.44,0.10 6.28,0.50 1.89,0.19 3.24,0.99 4.58,1.64 1.24,0.49 2.14,1.49 2.89,2.19 0.64,0.59 0.94,1.34 0.89,2.04 C 35.22,9.11 34.57,9.81 33.37,10.65 32.87,9.06 31.53,7.71 29.53,6.81 27.33,5.77 23.79,5.12 21.05,5.07 18.15,4.97 15.11,5.81 13.06,6.81 10.97,7.71 9.62,9.16 8.82,10.95 8.27,10.70 7.82,10.26 7.47,9.81 7.02,9.36 6.82,8.71 6.67,8.06 7.12,7.01 7.77,6.11 9.02,5.17 10.17,4.12 11.51,3.12 13.61,2.57 15.31,2.05 17.82,1.98 19.95,1.97 z m 0.25,3.87 c 0.99,-0.00 2.02,0.05 3.03,0.16 2.19,0.29 4.73,0.85 6.48,1.84 1.54,0.79 2.54,1.99 2.99,3.39 -2.34,1.29 -4.09,2.29 -5.98,2.79 -1.94,0.44 -2.79,0.29 -4.83,0.29 C 19.80,14.20 16.65,14.20 14.61,13.75 12.51,13.25 10.86,12.35 9.47,11.25 10.27,10.01 11.36,8.81 12.56,8.06 13.56,7.11 15.01,6.56 16.71,6.21 17.72,5.96 18.93,5.85 20.21,5.85 z m 17.32,2.22 c 0.34,0 0.72,0.06 1.12,0.18 0.64,0.05 1.74,0.30 2.54,1.15 0.79,0.79 1.49,1.89 2.09,4.04 0.39,1.99 0.59,4.93 0.39,7.88 -0.49,2.84 -1.39,7.08 -2.49,9.08 -1.24,1.69 -3.39,2.19 -4.34,2.29 -1.09,0.24 -1.64,-0.34 -1.84,-1.24 l 0.09,-2.69 c 1.24,0.14 2.24,0.00 3.19,-0.84 0.84,-0.79 1.64,-2.29 2.19,-3.94 0.44,-1.89 0.74,-4.44 0.69,-6.48 -0.14,-2.19 -0.34,-4.79 -0.79,-5.89 -0.49,-1.09 -1.25,-1.09 -1.84,-0.94 -0.64,0 -1.54,0.45 -2.29,1.15 -0.05,-0.79 0.04,-1.50 0.09,-2.09 0.05,-0.60 0.05,-1.14 0.20,-1.44 0.29,-0.12 0.62,-0.18 0.96,-0.18 z M 6.47,9.31 c 0.39,1.09 1.40,1.99 2.44,2.89 0.94,0.79 2.29,1.74 4.23,2.29 1.94,0.49 4.99,0.79 7.78,0.89 2.69,-0.04 5.29,0.10 7.98,-0.69 2.44,-0.84 4.79,-2.54 7.03,-4.69 -0.24,0.86 -0.45,1.93 -0.64,3.28 -0.77,0.72 -1.76,1.29 -2.80,1.86 -1.29,0.54 -2.24,1.09 -4.18,1.44 -2.09,0.34 -5.34,0.64 -7.98,0.69 C 17.50,16.99 14.31,16.64 12.31,16.04 10.37,15.39 9.37,14.85 8.52,14.20 7.50,13.57 6.82,12.84 6.46,12.21 c 0.00,-0.94 0.00,-1.90 0.01,-2.90 z M 38.69,11.47 c 0.19,-0.00 0.37,0.06 0.56,0.23 0.44,0.44 0.69,1.00 0.94,2.79 0.25,1.59 0.25,4.83 0.20,6.83 -0.25,1.84 -1.35,3.39 -1.74,4.44 -0.54,1.04 -1.14,1.49 -1.59,1.94 -0.64,0.24 -1.20,0.24 -1.84,0 -0.20,-1.59 -0.20,-3.59 0,-5.98 0.05,-2.49 0.55,-5.39 0.95,-8.68 l -0.00,0 c 0.34,-0.54 0.79,-0.89 1.34,-1.04 0.34,-0.20 0.75,-0.53 1.17,-0.53 z m -29.32,4.87 2.89,3.99 1.74,-1.45 3.79,2.94 1.24,-3.09 c 1.99,1.24 3.54,2.14 4.23,2.69 0.79,0.49 0.74,0.64 0.25,0.44 l -4.14,-2.39 -0.89,3.99 -4.09,-3.69 -1.84,2.04 -2.99,-4.63 -2.24,0.64 2.04,-1.49 z m 23.75,0.74 1.79,0.74 -0.10,0.80 -1.44,-0.39 -2.59,2.19 2.34,-3.34 z M 6.47,20.16 c 1.48,1.07 3.45,2.09 6.09,2.87 2.74,0.74 6.53,1.49 9.63,1.69 2.99,0 5.44,-0.79 7.73,-1.24 2.04,-0.54 3.54,-1.09 4.68,-1.84 L 34.65,21.15 c -0.14,2.96 -0.20,6.33 -0.23,8.86 -0.10,3.59 -0.45,6.48 -0.50,8.88 -1.34,1.89 -3.19,3.29 -5.53,4.39 -2.49,1.04 -5.78,1.74 -8.53,1.89 C 17.05,45.08 14.26,44.24 12.26,43.24 10.27,42.19 8.67,40.84 7.67,39.00 7.22,36.50 6.82,32.71 6.67,27.82 6.56,25.48 6.50,22.93 6.47,20.16 z" />
</svg>
