<?xml version="1.0" encoding="UTF-8" standalone="no"?>
<!-- Created with Inkscape (http://www.inkscape.org/) -->
<svg xmlns:dc="http://purl.org/dc/elements/1.1/" xmlns:cc="http://creativecommons.org/ns#" xmlns:rdf="http://www.w3.org/1999/02/22-rdf-syntax-ns#" xmlns:svg="http://www.w3.org/2000/svg" xmlns="http://www.w3.org/2000/svg" version="1.1" width="100%" height="100%" viewBox="0 0 48 48">
<defs/>
<path d="m 15.98,10.12 c -0.04,0.00 -0.09,0.02 -0.15,0.05 -0.25,0.13 -0.27,0.43 -0.04,0.62 0.12,0.10 0.15,0.25 0.11,0.71 -0.07,0.83 -0.35,1.37 -1.17,2.23 -0.39,0.41 -0.72,0.79 -0.73,0.83 0,0.03 0.17,0.12 0.38,0.17 l 0.38,0.10 -0.11,0.46 c -0.08,0.37 -0.22,0.58 -0.69,1.01 -0.58,0.54 -0.71,0.72 -0.43,0.61 0.12,-0.04 0.14,-0.00 0.08,0.20 -0.04,0.18 -0.03,0.24 0.05,0.19 0.24,-0.14 0.32,0.05 0.13,0.32 -0.10,0.15 -0.21,0.38 -0.25,0.52 -0.03,0.14 -0.29,0.51 -0.57,0.83 -0.28,0.31 -0.51,0.61 -0.51,0.66 0,0.05 0.13,0.07 0.30,0.05 0.23,-0.03 0.30,-0.00 0.30,0.11 0,0.18 0.20,0.21 0.36,0.06 0.05,-0.05 0.20,-0.07 0.32,-0.03 0.18,0.05 0.20,0.08 0.11,0.20 -0.06,0.07 -0.20,0.14 -0.30,0.14 -0.23,0 -0.90,0.58 -0.90,0.78 0,0.10 0.05,0.13 0.17,0.08 0.10,-0.03 0.16,-0.19 0.23,-0.22 0.07,-0.03 0.14,0.08 0.14,0.21 0,0.24 0.18,0.23 0.36,0.02 0.06,-0.08 0.28,-0.02 0.36,0.00 0.13,0.05 0.07,0.06 -0.10,0.20 -0.18,0.14 -0.20,0.16 -0.11,0.33 -0.05,0.13 -0.14,0.06 -0.30,0.17 -0.10,0.20 -0.25,0.14 -0.32,0.12 0.06,-0.07 0.21,-0.07 0.21,-0.15 0,-0.12 -0.02,-0.12 -0.17,-0.00 -0.14,0.11 -0.14,0.09 0.01,-0.08 0.27,-0.32 0.21,-0.36 -0.19,-0.11 -0.46,0.28 -0.47,0.31 -0.18,0 0.13,-0.14 0.20,-0.28 0.17,-0.31 -0.06,-0.06 -1.17,0.88 -1.21,1.04 -0.02,0.10 0.41,-0.07 1.02,-0.01 0.32,0.03 0.62,-0.14 0.97,-0.31 0.27,-0.20 0.53,-0.50 0.76,-0.73 0.07,-0.10 0.41,-0.45 0.45,-0.57 -0.02,-0.10 0.15,-0.21 0.15,-0.33 0.01,-0.04 -0.05,-0.12 -0.14,-0.12 -0.11,0 -0.13,-0.04 -0.05,-0.19 0.18,-0.34 -0.02,-0.32 -0.26,0.03 -0.15,0.21 -0.31,0.34 -0.43,0.33 -0.25,-0.02 -0.25,0.00 0.05,-0.48 0.27,-0.42 0.56,-0.62 0.63,-0.41 0.05,0.16 0.29,0.15 0.36,-0.03 0.03,-0.08 0.14,-0.15 0.25,-0.15 0.19,0 0.52,-0.53 0.52,-0.85 0,-0.29 0.15,-0.16 0.42,0.37 0.14,0.29 0.32,0.52 0.40,0.52 0.07,0 0.19,0.10 0.27,0.23 0.10,0.18 0.16,0.21 0.26,0.12 0.09,-0.07 0.16,-0.06 0.26,0.05 0.07,0.08 0.18,0.13 0.25,0.11 0.15,-0.06 0.72,0.51 0.61,0.61 -0.03,0.04 -0.11,0.01 -0.16,-0.07 -0.05,-0.07 -0.12,-0.11 -0.16,-0.07 -0.03,0.03 -0.12,-0.01 -0.20,-0.10 -0.12,-0.16 -0.13,-0.15 -0.14,0.07 -0.01,0.24 -0.01,0.24 -0.17,-0.07 -0.18,-0.36 -0.38,-0.45 -0.29,-0.12 0.06,0.25 -0.12,0.21 -0.27,-0.05 -0.13,-0.23 -0.47,-0.59 -0.51,-0.54 -0.01,0.01 -0.07,0.17 -0.13,0.33 l -0.10,0.30 -0.07,-0.30 c -0.18,-0.76 -0.24,-0.83 -0.24,-0.28 -0.00,0.29 -0.05,0.53 -0.11,0.53 -0.05,0 -0.10,-0.13 -0.10,-0.30 0,-0.23 -0.04,-0.30 -0.20,-0.30 -0.15,0 -0.20,0.06 -0.20,0.26 0,0.22 0.02,0.24 0.15,0.14 0.23,-0.19 0.18,0.04 -0.05,0.25 -0.27,0.11 -0.32,0.24 -0.36,0.36 -0.00,0.13 -0.02,0.24 -0.04,0.33 -0.08,0.14 -0.74,0.65 -0.91,0.84 -0.01,0.07 0.10,0.13 0.08,0.14 -0.47,0.40 -0.96,0.64 -1.51,1.04 0.01,0.06 0.09,0.19 0.09,0.20 0.30,-0.12 0.87,-0.52 1.13,-0.54 -0.15,0.19 -1.86,1.07 -2.34,1.25 -0.02,0.09 0.06,0.23 0.10,0.31 0.37,-0.14 0.73,-0.34 1.18,-0.53 2.3e-4,0.12 -0.27,0.22 -0.61,0.39 -0.38,0.18 -0.13,0.09 -0.33,0.20 -0.59,0.19 -1.04,0.48 -1.37,0.52 0.03,0.10 0.11,0.20 0.14,0.30 0.20,-0.09 0.42,-0.15 0.69,-0.26 l 0.31,-0.11 c -0.03,0.03 -0.05,0.04 -0.08,0.07 -0.13,0.07 -0.15,0.09 -0.15,0.09 0.00,6.37e-4 0.00,-0.00 -0.14,0.06 -0.22,0.14 -0.44,0.24 -0.63,0.33 -0.26,0.13 -1.13,0.53 -1.47,0.72 0,0.12 0.05,0.17 0.12,0.28 0.26,-0.10 0.44,-0.24 0.59,-0.31 0.09,-0.04 0.20,-0.12 0.29,-0.11 -0.06,0.10 -0.23,0.18 -0.34,0.27 -0.30,0.18 -0.77,0.44 -1.03,0.58 -0.21,0.10 -0.61,0.38 -0.82,0.47 0.02,0.09 0.08,0.17 0.15,0.29 0.11,-0.10 0.40,-0.23 0.59,-0.34 0.12,-0.06 0.34,-0.18 0.42,-0.16 -0.03,0.06 -0.14,0.11 -0.46,0.29 -0.71,0.43 -0.77,0.45 -1.51,0.91 0.02,0.13 0.09,0.35 0.17,0.47 0.68,-0.01 1.79,-5e-4 1.97,-0.01 0.05,-0.22 0.30,-0.36 0.44,-0.26 -0.27,0.05 -0.67,0.70 -0.03,0.92 1.53e-4,0.05 -0.00,0.12 -0.01,0.21 -0.07,0.05 -0.19,0.08 -0.22,0.22 -0.16,0.20 -0.18,0.54 0.19,0.71 0.01,0.06 -0.01,0.11 -0.00,0.17 -0.37,0.05 -0.41,0.78 0.05,0.84 -0.04,0.06 -0.04,0.15 -0.04,0.20 -0.51,0.13 -0.38,0.74 0.05,0.81 -0.05,0.04 -0.08,0.22 -0.02,0.30 -0.51,0.19 -0.44,0.76 0.14,0.88 -0.11,0.06 -0.12,0.17 -0.10,0.28 -0.37,0.05 -0.63,0.78 0.08,0.93 -0.03,0.04 -0.06,0.18 -0.04,0.24 -0.52,0.15 -0.59,0.82 0.07,1.01 -0.03,0.07 -0.05,0.16 -0.02,0.24 l -0.23,0.08 c -0.25,0.04 -0.43,0.71 0.28,0.82 0.12,0.39 0.62,0.41 0.80,0.23 0.25,0.03 0.91,0.21 1.36,0.29 0.30,0.08 0.86,0.15 1.22,0.24 0.36,0.09 1.28,0.35 2.03,0.59 0.75,0.24 1.57,0.46 1.83,0.51 0.24,0.03 0.37,0.10 0.55,0.15 0.24,0.07 0.94,0.31 2.03,0.55 0.44,0.10 0.83,0.25 0.91,0.34 0.07,0.09 0.14,0.23 0.34,0.30 l 0.15,0.04 c 0.53,0.12 0.98,0.08 1.46,-0.08 0.22,-0.07 1.20,-0.08 1.39,-0.05 -1.15e-4,-0.00 1.15e-4,-0.00 0,-0.01 l 0.67,0.03 c 0.21,0 0.60,0.11 0.87,0.26 0.25,0.13 0.60,0.25 0.76,0.25 0.15,0.00 0.47,0.07 0.71,0.15 0.31,0.11 1.36,0.22 1.92,0.17 0.08,-0.31 -0.18,-0.82 0.18,-1.10 -0.01,0.12 -0.01,0.33 -0.02,0.57 l 0.08,0.18 0.17,0.29 0.47,0.17 0.01,1.12 -0.57,-0.26 -0.06,-1.03 -0.10,-0.11 c -0.00,0.54 0.00,1.12 0.00,1.24 l 0.70,0.33 c 0.22,-0.06 0.53,-0.12 0.71,-0.23 0,-0.21 0.02,-2.10 0.03,-2.74 l 0.56,-0.15 0.01,-0.31 -0.94,0.24 c -0.12,-0.00 -0.24,-3.07e-4 -0.28,0.00 -0.45,-0.07 -0.99,-0.18 -1.20,-0.22 -0.56,-0.08 -1.15,-0.17 -1.32,-0.20 -0.16,-0.02 -0.89,-0.16 -1.62,-0.30 -0.72,-0.10 -1.72,-0.26 -1.83,-0.26 -0.36,-0.05 -1.20,-0.19 -1.36,-0.20 0.00,0.03 0.01,0.13 0.01,0.19 0.28,0.05 0.99,0.15 1.36,0.20 3.07e-4,4.49e-4 8.99e-4,7.57e-4 0.00,0.00 0.73,0.12 2.96,0.52 4.69,0.78 0.57,0.13 0.83,0.10 1.07,0.18 0,0.10 -0.00,0.21 -0.01,0.35 -0.06,0 -0.85,-0.14 -1.84,-0.33 -1.18,-0.23 -2.66,-0.51 -3.90,-0.70 -3e-5,-0.00 2.8e-5,-0.00 0,-0.01 -0.53,-0.07 -1.15,-0.18 -1.68,-0.26 -0.01,-0.08 -0.04,-0.42 -0.04,-0.52 0.22,-0.05 0.48,-0.10 0.88,-0.20 0.60,-0.14 1.04,-0.19 1.25,-0.26 0.05,-0.36 -0.43,-0.61 -0.76,-0.56 -0.24,0.10 -0.42,0.40 -0.45,0.62 -0.16,0.00 -0.38,-0.04 -0.60,-0.06 -0.22,-0.02 -0.37,-0.09 -0.20,-0.24 0.16,-0.04 0.47,-0.20 0.70,-0.41 0.23,-0.09 0.54,-0.00 0.79,-0.02 0.01,-0.08 0.00,-0.17 0.00,-0.32 0.15,-0.11 0.55,-0.27 0.50,-0.73 0,-0.36 -0.56,-0.48 -0.78,-0.42 -0.18,0.09 -0.37,0.30 -0.41,0.52 -0.01,0.04 -0.74,-0.06 -0.95,-0.08 0.29,-0.33 0.52,-0.39 0.87,-0.68 0.30,0.04 0.70,0.09 0.78,0.09 -0.00,-0.08 0.01,-0.23 0.00,-0.33 0.20,-0.04 0.59,-0.35 0.50,-0.79 -0.02,-0.48 -0.63,-0.56 -0.99,-0.26 -0.22,0.18 -0.19,0.35 -0.18,0.48 -0.22,0.01 -0.73,-0.03 -0.86,-0.04 -0.20,-0.00 -0.37,-0.09 0.02,-0.21 0.21,-0.11 0.30,-0.33 0.46,-0.44 -0.04,-0.02 -0.07,-0.06 -0.12,-0.06 -0.16,0.03 -0.36,0.06 -0.57,0.07 -0.03,-0.17 -0.17,-0.38 -0.26,-0.37 -0.13,-0.05 -0.05,0.04 -0.04,0.06 0.18,0.08 0.22,0.40 0.06,0.65 -0.26,0.24 -0.65,0.28 -1.00,-0.05 -0.02,-0.04 -0.04,-0.05 -0.07,-0.09 -0.05,-0.20 -0.04,-0.20 -0.02,-0.30 -0.04,0.00 -0.09,0.03 -0.11,0.06 -0.06,0.09 -0.04,0.16 -0.05,0.32 0.00,0.07 0.12,0.29 0.18,0.34 -1.70,-0.11 -3.32,-0.28 -5.04,-0.45 -1.25,-0.06 -2.47,-0.22 -3.71,-0.29 -0.66,-0.07 -1.05,-0.11 -1.48,-0.15 0.25,-0.07 0.43,-0.34 0.37,-0.61 2.19,0.21 4.63,0.31 6.83,0.46 0.36,0.02 1.17,0.10 1.80,0.16 0.37,0.03 0.86,0.05 1.10,0.06 l 0.03,0.00 c 0.01,3.84e-4 0.03,0.00 0.04,0.00 -3.07e-4,3.84e-4 -9.7e-4,0.00 -0.00,0.00 l 0.04,0.00 c 0.01,-0.04 0.03,-0.08 0.05,-0.11 0.06,-0.08 0.18,-0.19 0.33,-0.22 0.32,-0.00 0.73,-0.06 1.02,-0.03 0.24,0.05 0.40,0.13 0.53,0.37 -0.00,3.08e-4 0.09,0.08 0.17,0.14 0.16,-0.05 0.70,-0.01 0.94,0.01 0.00,-0.01 -0.03,-0.11 -0.00,-0.12 0.44,-0.13 0.51,-0.33 0.46,-0.68 0.00,-0.13 -0.15,-0.33 -0.33,-0.39 -0.17,-0.04 -0.29,-0.07 -0.47,-0.01 -0.19,0.12 -0.32,0.14 -0.38,0.39 -0.29,-0.00 -0.76,-0.03 -1.01,-0.06 0.29,-0.10 0.58,-0.43 0.75,-0.52 l -0.23,-0.07 c -0.22,0.03 -0.49,0.06 -0.59,0.07 -0.02,-0.07 -0.07,-0.20 -0.30,-0.35 l -0.16,0 c 0.07,0.05 0.22,0.16 0.26,0.21 0.19,0.25 0.06,0.54 -0.08,0.64 -0.18,0.17 -0.62,0.16 -0.85,-0.12 -0.10,-0.14 -0.11,-0.24 -0.10,-0.37 -0.05,0.03 -0.10,0.08 -0.13,0.14 -0.03,0.10 -0.04,0.16 0.00,0.26 0.03,0.14 0.06,0.18 0.17,0.30 0,0.05 -0.22,0.02 -0.38,0.01 -1.86,-0.10 -3.67,-0.30 -5.50,-0.40 -1.19,-0.02 -3.07,-0.18 -4.25,-0.28 0.14,-0.13 0.22,-0.36 0.27,-0.53 0.19,-0.01 0.72,0.04 1.85,0.09 0.80,0.02 1.88,0.05 2.40,0.05 1.85,0.17 3.75,0.16 5.57,0.21 0.06,-0.16 0.21,-0.28 0.38,-0.31 0.26,-0.03 0.52,-0.04 0.76,-0.02 0.39,0.03 0.57,0.13 0.73,0.28 l 0.39,0.16 0.79,0.05 -0.02,-0.25 c -0.00,-0.02 0.00,-0.03 0.04,-0.04 0.19,-0.04 0.52,-0.14 0.47,-0.64 -0.00,-0.37 -0.30,-0.47 -0.43,-0.51 -0.11,-0.02 -0.30,-0.04 -0.46,0.03 -0.16,0.11 -0.31,0.26 -0.25,0.64 -0.24,-0.01 -0.48,-0.02 -0.72,-0.03 -0.36,0.03 -0.41,-0.02 -0.14,-0.19 0.31,-0.11 0.49,-0.27 0.59,-0.46 0.12,-0.03 0.25,-0.06 0.36,-0.08 -0.03,-0.04 -0.06,-0.05 -0.12,-0.08 -0.30,0.02 -0.98,0.02 -1.14,0.08 -0.06,-0.12 -0.14,-0.19 -0.26,-0.26 -0.05,-0.00 -0.11,-0.00 -0.16,-0.00 0.29,0.18 0.24,0.58 0.08,0.81 -0.21,0.23 -0.55,0.24 -0.77,-0.04 -0.10,-0.14 -0.13,-0.28 -0.09,-0.44 -0.05,0.02 -0.11,0.05 -0.16,0.10 -0.05,0.07 -0.06,0.18 -0.03,0.27 0.01,0.10 0.08,0.19 0.23,0.26 -0.32,0.03 -0.52,0.03 -0.81,0.03 l -0.20,0.17 0.04,0.09 -0.38,0.06 -0.00,-0.21 0.30,-0.03 0.10,-0.08 -0.01,0 c 0.00,-0.15 -0.00,-0.64 -0.01,-0.75 0.13,0.01 0.35,-0.00 0.68,-0.00 0.02,0.00 0.18,-0.00 0.18,-0.00 l 0.09,-0.00 c 0.06,-0.19 0.22,-0.35 0.46,-0.36 0.23,-0.01 0.38,-0.01 0.53,-0.01 0.19,-4.99e-4 0.38,0.03 0.52,0.06 0.32,0.06 0.63,0.10 0.91,0.23 0.04,0.03 0.08,0.07 0.13,0.12 0.14,-0.02 0.33,-0.00 0.48,-0.00 -0.00,-0.07 0.00,-0.18 -0.00,-0.26 0.49,-0.14 0.50,-0.76 0.17,-0.98 -0.23,-0.10 -0.51,-0.10 -0.69,-0.00 -0.08,0.11 -0.15,0.23 -0.20,0.37 -0.24,-0.00 -0.43,-0.00 -0.81,-0.00 0.04,-0.17 0.10,-0.28 0.17,-0.37 -0.00,-8.52e-4 -0.00,-0.00 -0.01,-0.00 0.11,-0.12 0.31,-0.20 0.46,-0.23 l -0.02,-0.05 c -0.33,-0.00 -0.64,-0.00 -0.82,-0.00 -0.05,-0.09 -0.05,-0.15 -0.19,-0.24 l -0.23,0.01 c 0.15,0.08 0.33,0.28 0.29,0.52 -0.00,-1.92e-4 -0.01,2.3e-4 -0.02,0 -0.06,0.42 -0.42,0.48 -0.56,0.47 -0.35,-0.01 -0.52,-0.24 -0.56,-0.39 0.00,-1.91e-4 0.00,-3.83e-4 0.01,0 -0.04,-0.41 0.12,-0.63 0.47,-0.70 0.04,-0.00 0.08,-0.01 0.13,-0.00 l 0.35,-0.00 c 0.20,-0.00 0.36,-0.01 0.52,0.00 0.12,0.01 0.31,0.04 0.42,0.10 0.09,0.05 0.24,0.12 0.27,0.23 l 0.02,0.04 c 0.04,-0.00 0.09,-0.01 0.14,-0.01 0.19,-0.00 0.55,-0.02 0.69,-0.01 l -0.00,-0.37 c 0.35,-0.30 0.28,-0.68 0.10,-0.87 0.14,0.09 0.22,0.21 0.25,0.39 l -0.00,0 c 0.01,0.18 0.06,0.29 -0.02,0.41 1.73,0.08 3.34,0.13 5.09,0.12 l -0.01,-0.88 c -0.43,-0.02 -0.62,-0.01 -0.94,-0.07 -0.02,-0.07 -0.03,-0.14 -0.03,-0.15 l 3.19,0.17 c 2.41,0.15 6.35,0.31 6.40,0.36 0.00,0.08 0.02,0.06 0.02,0.13 -0.19,-0.01 -0.66,-0.04 -1.26,-0.07 l 0,0.17 c 0.02,0.13 -0.02,0.55 0.02,0.56 0.88,0.02 2.41,0.08 3.35,0.08 0.02,-0.26 0.01,-0.42 0.01,-0.65 -1.00,-0.06 -0.81,-0.01 -1.98,-0.09 -0.06,-0.06 -0.02,-0.09 -0.03,-0.13 2.66,0.12 3.91,0.21 6.60,0.34 0.55,0.02 1.15,0.05 1.85,0.08 l -0.03,-0.28 c -0.02,-0.24 -0.08,-0.28 -0.43,-0.31 -0.22,-0.01 -0.45,-0.07 -0.50,-0.11 -0.05,-0.04 -0.58,-0.14 -1.17,-0.20 -0.58,-0.06 -1.11,-0.05 -1.17,-0.09 -0.05,-0.03 -0.51,-0.09 -1.03,-0.11 -0.51,-0.02 -0.99,-0.02 -1.06,-0.08 -0.05,-0.04 -0.24,-0.11 -0.45,-0.16 L 39.77,27.33 39.71,27.22 38.57,26.98 38.53,26.84 c -0.08,-0.03 -0.21,-0.06 -0.33,-0.09 l -0.83,-0.16 -0.00,-0.04 c -0.07,-0.02 -0.11,-0.06 -0.10,-0.11 l -0.66,-0.20 -0.01,-0.07 -0.41,-0.23 0.00,-0.21 c -0.00,-0.34 -1.8e-5,-0.82 0.00,-1.05 0.01,-0.24 -0.03,-0.50 -0.10,-0.58 -0.06,-0.07 -0.12,-0.34 -0.12,-0.60 -0.00,-0.25 -0.04,-0.48 -0.08,-0.51 -0.05,-0.02 -0.08,-0.16 -0.08,-0.30 0,-0.13 -0.07,-0.27 -0.15,-0.30 -0.23,-0.09 -0.46,-0.59 -0.33,-0.72 0.07,-0.07 0.06,-0.17 -0.01,-0.33 -0.06,-0.12 -0.12,-0.42 -0.12,-0.67 -0.00,-0.47 -0.22,-0.74 -0.61,-0.74 -0.10,0 -0.25,-0.06 -0.34,-0.15 -0.08,-0.08 -0.29,-0.15 -0.46,-0.15 -0.38,0 -1.61,0.39 -1.75,0.56 -0.05,0.06 -0.10,0.58 -0.09,1.15 0.00,0.56 -0.02,1.03 -0.06,1.03 -0.10,0 -0.33,0.72 -0.31,0.92 0.00,0.05 -0.01,0.13 -0.05,0.20 l -3.63,-0.56 c -0.02,-0.01 -0.05,-0.03 -0.07,-0.04 -0.24,-0.13 -0.71,-0.86 -0.61,-0.96 0.03,-0.03 0.17,-0.03 0.30,0 0.29,0.07 0.29,0.03 0.01,-0.29 -0.51,-0.58 -1.03,-1.30 -1.05,-1.45 -0.01,-0.10 0.03,-0.13 0.17,-0.08 0.24,0.07 0.24,-0.04 -0.01,-0.55 -0.11,-0.22 -0.21,-0.47 -0.23,-0.54 -0.01,-0.07 -0.10,-0.26 -0.19,-0.40 -0.09,-0.14 -0.17,-0.29 -0.17,-0.32 0,-0.12 0.26,-0.31 0.38,-0.27 0.23,0.07 0.14,-0.46 -0.11,-0.63 -0.39,-0.25 -0.87,-1.01 -0.88,-1.39 0,-0.23 -0.08,-0.42 -0.28,-0.61 -0.41,-0.40 -0.56,-1.06 -0.37,-1.61 0.20,-0.58 0.19,-0.63 -0.15,-0.44 -0.19,0.09 -0.34,0.28 -0.47,0.47 l -0.00,-0.05 -0.22,0.49 c -0.07,0.31 -0.19,0.63 -0.28,0.69 -0.07,0.06 -0.14,0.19 -0.14,0.27 0,0.18 -0.51,1.14 -0.60,1.14 -0.03,0 -0.12,0.11 -0.18,0.25 -0.11,0.23 -0.10,0.25 0.18,0.25 0.35,0 0.39,0.18 0.09,0.45 -0.11,0.10 -0.20,0.26 -0.20,0.35 0,0.09 -0.16,0.35 -0.35,0.56 -0.36,0.40 -0.45,0.65 -0.22,0.65 0.06,0 0.19,0.04 0.27,0.09 0.11,0.07 0.12,0.12 0.02,0.24 -0.06,0.08 -0.11,0.19 -0.10,0.23 0.03,0.21 -0.03,0.34 -0.38,0.71 -0.20,0.21 -0.47,0.50 -0.58,0.63 l -0.20,0.24 0.44,-0.06 0.44,-0.07 -0.23,0.30 c -0.13,0.16 -0.29,0.30 -0.36,0.31 -0.06,0.00 -0.12,0.05 -0.12,0.11 0,0.05 -0.05,0.07 -0.14,0.06 l -0.46,-0.12 c -0.13,-0.05 -0.29,-0.11 -0.46,-0.20 -0.29,-0.14 -0.60,-0.22 -0.73,-0.19 -0.16,0.04 -0.28,-0.03 -0.53,-0.37 -0.34,-0.47 -0.29,-0.59 0.22,-0.59 0.33,-0.00 0.34,-0.02 0.05,-0.34 -0.53,-0.58 -1.17,-1.63 -1.06,-1.75 0.03,-0.03 0.22,-0.06 0.42,-0.06 0.19,0 0.36,-0.02 0.36,-0.05 0,-0.02 -0.16,-0.21 -0.35,-0.40 -0.19,-0.19 -0.35,-0.42 -0.35,-0.49 0,-0.07 -0.08,-0.22 -0.20,-0.32 -0.11,-0.09 -0.20,-0.22 -0.20,-0.29 0,-0.16 -0.33,-0.74 -0.43,-0.74 -0.12,0 -0.08,0.49 0.07,0.86 0.19,0.47 0.01,0.45 -0.25,-0.02 l -0.20,-0.37 0.05,0.50 c 0.05,0.47 0.04,0.49 -0.10,0.30 -0.10,-0.13 -0.14,-0.37 -0.12,-0.73 0.01,-0.29 7.6e-5,-0.53 -0.04,-0.53 -0.04,0 -0.07,0.17 -0.07,0.38 0,0.20 -0.09,0.56 -0.20,0.78 -0.16,0.31 -0.20,0.35 -0.20,0.16 0,-0.13 -0.04,-0.20 -0.10,-0.16 -0.05,0.03 -0.09,0.11 -0.08,0.18 0.03,0.27 -0.01,0.47 -0.12,0.47 -0.06,0 -0.08,-0.09 -0.04,-0.25 0.07,-0.32 -0.04,-0.32 -0.27,0.00 -0.20,0.28 -0.15,0.65 0.10,0.65 0.11,0 0.14,0.06 0.08,0.27 -0.10,0.42 -0.26,0.52 -0.26,0.17 l -0.00,-0.29 -0.15,0.27 c -0.22,0.41 -0.36,0.34 -0.18,-0.08 0.23,-0.55 0.08,-0.53 -0.20,0.03 -0.13,0.27 -0.32,0.56 -0.41,0.63 -0.14,0.12 -0.15,0.10 -0.05,-0.14 0.05,-0.15 0.10,-0.35 0.10,-0.44 0,-0.14 -0.02,-0.13 -0.11,0.03 -0.15,0.28 -0.50,0.65 -0.71,0.77 -0.11,0.06 -0.07,-0.06 0.14,-0.41 0.17,-0.28 0.28,-0.54 0.24,-0.58 -0.04,-0.03 -0.11,0.00 -0.17,0.10 -0.05,0.09 -0.20,0.30 -0.34,0.45 l -0.25,0.28 0.15,-0.30 c 0.08,-0.16 0.15,-0.35 0.15,-0.42 0,-0.06 0.21,-0.30 0.47,-0.52 0.34,-0.29 0.51,-0.38 0.60,-0.30 0.19,0.16 0.74,-0.20 0.74,-0.49 0,-0.19 -0.04,-0.23 -0.35,-0.23 -0.19,0 -0.35,-0.05 -0.35,-0.11 0,-0.06 -0.08,-0.09 -0.20,-0.05 -0.23,0.06 -0.27,-0.14 -0.06,-0.32 0.07,-0.06 0.17,-0.26 0.20,-0.44 0.03,-0.18 0.15,-0.44 0.27,-0.58 0.20,-0.24 0.20,-0.25 0.16,-0.02 -0.07,0.34 0.07,0.27 0.24,-0.10 0.10,-0.24 0.20,-0.32 0.36,-0.30 0.16,0.01 0.25,-0.07 0.38,-0.38 0.16,-0.41 0.20,-0.70 0.10,-0.70 -0.10,0 -0.70,0.33 -0.90,0.49 -0.13,0.11 -0.11,0.05 0.07,-0.23 0.31,-0.47 0.27,-0.59 -0.09,-0.25 -0.25,0.23 -0.26,0.23 -0.15,0.02 0.06,-0.12 0.15,-0.25 0.21,-0.28 0.21,-0.12 0.53,-1.05 0.58,-1.70 0.04,-0.53 0.02,-0.73 -0.10,-0.93 -0.17,-0.27 -0.10,-0.41 0.14,-0.26 0.11,0.07 0.14,0.34 0.11,1.38 -0.01,0.71 -0.07,1.35 -0.13,1.42 -0.06,0.07 -0.09,0.18 -0.06,0.25 0.02,0.08 0.08,0.05 0.18,-0.09 0.13,-0.22 0.14,-0.21 0.29,0.20 0.08,0.23 0.20,0.42 0.26,0.43 0.18,0 0.35,0.16 0.35,0.32 0,0.12 -0.02,0.14 -0.12,0.04 -0.06,-0.06 -0.20,-0.12 -0.30,-0.12 -0.21,0 -0.53,0.45 -0.45,0.64 0.07,0.19 1.38,0.61 1.51,0.48 0.05,-0.05 0.16,-0.07 0.24,-0.04 0.07,0.03 0.14,0.00 0.14,-0.06 0,-0.06 -0.06,-0.14 -0.14,-0.17 -0.16,-0.06 -0.59,-0.76 -0.71,-1.15 -0.03,-0.14 -0.14,-0.32 -0.22,-0.42 -0.19,-0.22 -0.42,-1.22 -0.43,-1.86 -0.00,-0.57 -0.14,-1.13 -0.35,-1.40 -0.07,-0.09 -0.12,-0.13 -0.19,-0.12 z m 28.74,18.59 -0.41,-0.00 -0.00,3.48 c 0,1.46 0.01,2.84 -0.00,3.10 -0.15,-0.01 -0.29,-0.02 -0.43,-0.06 -0.01,-0.37 0.03,-1.56 0.03,-3.10 0.00,-2.25 0.01,-3.13 0,-3.44 -0.04,-0.01 -0.07,-0.01 -0.12,-0.00 -0.00,2.03 0.03,4.13 0.00,6.09 -0.01,0.07 -0.00,0.37 0.01,0.56 0.10,0.00 0.36,0.02 0.52,0.04 0.27,-0.06 0.27,-0.05 0.42,-0.09 l -0.01,-3.11 0.00,-3.46 z m -22.81,4.77 c -0.00,-0.00 -0.00,-0.00 -0.00,-0.00 0.01,0.00 0.01,0.00 0.00,0.00 z M 6.85,11.71 c -0.30,0 -0.49,0.58 -0.49,1.57 0,0.99 -0.21,1.68 -0.76,2.48 l -0.34,0.50 0.31,0.06 c 0.29,0.05 0.30,0.08 0.25,0.41 -0.06,0.36 -0.52,1.24 -1.31,2.46 -0.42,0.66 -0.38,0.76 0.28,0.69 0.61,-0.05 0.61,-0.06 0.15,0.54 -0.27,0.36 -0.45,0.65 -0.58,0.91 -0.04,0.08 -0.18,0.23 -0.31,0.34 -0.25,0.20 -0.58,0.76 -0.49,0.85 0.03,0.03 0.28,0.06 0.55,0.06 0.27,0.00 0.53,0.03 0.56,0.07 0.05,0.05 -0.11,0.47 -0.63,1.57 -0.08,0.18 -0.37,0.56 -0.64,0.86 -0.71,0.77 -0.69,0.85 0.13,0.83 0.37,-0.00 0.68,0.01 0.68,0.03 0,0.14 -0.57,0.76 -0.93,1.01 -0.22,0.15 -0.55,0.42 -0.73,0.59 -0.17,0.16 -0.65,0.58 -0.92,0.83 -0.06,0.13 -0.25,0.28 -0.25,0.38 0.02,0.08 0.09,0.16 0.28,0.10 -0.01,0.21 0.16,0.25 0.50,0.21 0.41,-0.05 0.48,-0.01 0.44,0.26 -0.02,0.13 0.29,0.07 0.35,-0.06 0.06,-0.18 0.40,-0.27 0.52,-0.14 0.05,0.06 0.20,1.92e-4 0.40,-0.16 0.16,-0.14 0.39,-0.25 0.50,-0.25 0.10,0 0.28,-0.09 0.38,-0.20 0.10,-0.11 0.25,-0.19 0.33,-0.17 0.08,0.01 0.23,-0.14 0.34,-0.35 0.10,-0.20 0.29,-0.40 0.41,-0.44 0.12,-0.03 0.32,-0.18 0.44,-0.33 0.34,-0.40 0.28,-0.82 -0.06,-0.49 -0.11,0.10 -0.11,0.08 -0.00,-0.12 0.22,-0.43 0.53,-0.81 0.67,-0.81 0.07,0 0.17,-0.09 0.24,-0.21 0.11,-0.20 0.13,-0.20 0.50,0.22 0.21,0.24 0.42,0.41 0.46,0.37 0.04,-0.03 0.14,-0.01 0.22,0.04 0.11,0.09 0.31,0.14 0.48,0.08 0.26,-0.07 0.18,-0.26 0.08,-0.45 0.19,-0.07 0.34,-0.18 0.45,-0.28 -0.11,-0.26 -0.30,-0.39 -0.51,-0.39 -0.07,0 -0.13,-0.19 -0.27,-0.32 L 8.37,24.68 8.43,25.01 c 0.03,0.18 0.03,0.33 -0.00,0.33 -0.12,0 -0.43,-0.33 -0.43,-0.46 0,-0.07 -0.05,-0.16 -0.11,-0.20 -0.08,-0.05 -0.09,-1.92e-4 -0.05,0.16 0.06,0.23 -0.07,0.50 -0.24,0.50 -0.05,0 -0.08,-0.16 -0.08,-0.37 0,-0.35 -0.00,-0.36 -0.16,-0.17 -0.15,0.18 -0.15,0.18 -0.10,-0.15 0.04,-0.25 0.02,-0.30 -0.04,-0.20 -0.05,0.08 -0.09,0.22 -0.10,0.32 0,0.16 -0.39,0.72 -0.40,0.56 -0.00,-0.04 0.06,-0.24 0.15,-0.44 0.08,-0.20 0.12,-0.39 0.10,-0.42 -0.06,-0.06 -0.04,-0.09 -0.34,0.51 -0.29,0.57 -0.42,0.55 -0.16,-0.02 0.10,-0.22 0.15,-0.43 0.12,-0.47 -0.03,-0.03 -0.10,0.05 -0.16,0.19 -0.05,0.14 -0.14,0.28 -0.20,0.32 -0.06,0.04 -0.08,1.16e-4 -0.03,-0.11 0.06,-0.15 0.04,-0.16 -0.09,-0.04 -0.09,0.07 -0.19,0.22 -0.23,0.33 -0.08,0.27 -0.27,0.24 -0.19,-0.03 0.10,-0.38 0.28,-0.68 0.40,-0.68 0.18,0 0.86,-0.72 0.86,-0.92 0,-0.10 0.04,-0.21 0.10,-0.24 0.05,-0.03 0.10,-0.17 0.10,-0.31 l 0,-0.25 -0.30,0.22 c -0.18,0.12 -0.30,0.16 -0.30,0.09 0,-0.06 -0.09,-0.01 -0.21,0.11 L 6.04,23.36 6.16,23.12 c 0.17,-0.36 0.03,-0.38 -0.15,-0.01 -0.09,0.18 -0.19,0.30 -0.22,0.27 -0.02,-0.02 0.01,-0.17 0.09,-0.33 0.08,-0.16 0.17,-0.41 0.21,-0.56 0.05,-0.21 0.10,-0.25 0.29,-0.21 0.12,0.02 0.31,0.12 0.40,0.20 0.14,0.12 0.20,0.12 0.32,0.02 0.08,-0.06 0.15,-0.19 0.15,-0.26 0,-0.22 0.19,-0.16 0.63,0.17 0.25,0.20 0.54,0.33 0.78,0.35 0.35,0.03 0.39,0.01 0.44,-0.25 0.05,-0.26 0.08,-0.28 0.33,-0.21 0.19,0.05 0.39,0.26 0.65,0.67 0.42,0.67 0.48,0.87 0.20,0.61 -0.10,-0.09 -0.23,-0.16 -0.29,-0.16 -0.05,0 -0.18,-0.18 -0.28,-0.40 -0.20,-0.46 -0.39,-0.54 -0.29,-0.12 0.06,0.23 0.05,0.25 -0.08,0.15 -0.20,-0.17 -0.30,-0.04 -0.16,0.21 0.10,0.19 0.10,0.20 -0.06,0.06 -0.09,-0.08 -0.24,-0.15 -0.33,-0.17 -0.15,-0.02 -0.14,0.04 0.01,0.52 0.06,0.20 0.06,0.20 -0.09,0 -0.09,-0.11 -0.19,-0.30 -0.22,-0.43 -0.03,-0.12 -0.09,-0.22 -0.14,-0.22 -0.11,0 -0.11,0.07 0.01,0.32 0.09,0.16 0.08,0.19 -0.02,0.16 C 8.30,23.46 8.16,23.27 8.06,23.06 7.83,22.58 7.73,22.64 7.87,23.17 L 7.98,23.56 7.73,23.27 C 7.59,23.12 7.48,22.92 7.48,22.84 c 0,-0.07 -0.04,-0.14 -0.09,-0.14 -0.05,0 -0.05,0.14 0.00,0.36 0.05,0.19 0.07,0.38 0.04,0.42 -0.03,0.03 -0.05,0.00 -0.05,-0.06 0,-0.06 -0.07,-0.11 -0.15,-0.11 -0.18,0 -0.19,0.13 -0.03,0.42 0.14,0.27 0.70,0.82 0.77,0.75 0.02,-0.02 0.25,0.04 0.50,0.15 l 0.45,0.20 0.20,-0.23 c 0.14,-0.16 0.18,-0.32 0.15,-0.50 -0.05,-0.26 -0.04,-0.27 0.26,-0.17 0.87,0.27 1.03,0.30 1.25,0.24 0.13,-0.03 0.24,-0.10 0.24,-0.15 0,-0.05 -0.25,-0.42 -0.55,-0.82 -0.54,-0.71 -0.60,-0.90 -0.30,-0.90 0.08,0 0.14,-0.06 0.14,-0.13 0,-0.22 -0.40,-1.08 -0.51,-1.08 -0.09,0 -0.50,-0.59 -0.50,-0.73 0,-0.03 0.08,-0.09 0.20,-0.13 0.42,-0.13 0.17,-0.70 -0.42,-1.00 -0.38,-0.19 -0.84,-1.17 -0.55,-1.17 0.21,0 0.30,-0.35 0.15,-0.63 C 8.63,17.26 8.41,16.94 8.22,16.67 8.03,16.41 7.85,16.02 7.82,15.81 7.77,15.45 7.32,14.22 7.16,14.00 7.01,13.79 6.96,12.97 7.07,12.51 7.19,11.95 7.13,11.71 6.85,11.71 z M 6.64,12.45 c 0.05,-0.00 0.10,0.30 0.11,0.86 0.00,0.34 0.05,0.71 0.09,0.81 0.05,0.09 0.14,0.30 0.20,0.46 0.06,0.15 0.15,0.25 0.21,0.22 0.11,-0.06 0.26,0.22 0.16,0.32 -0.13,0.12 -0.55,-0.28 -0.66,-0.64 -0.10,-0.37 -0.10,-0.37 -0.07,-0.05 0.01,0.18 -0.00,0.33 -0.05,0.33 -0.19,0 -0.05,0.28 0.37,0.74 0.25,0.27 0.45,0.55 0.45,0.62 0,0.07 0.13,0.29 0.30,0.48 0.16,0.19 0.30,0.37 0.30,0.41 0,0.03 -0.04,0.06 -0.10,0.06 -0.05,0 -0.10,-0.04 -0.10,-0.09 0,-0.05 -0.06,-0.07 -0.13,-0.04 -0.09,0.03 -0.17,-0.08 -0.25,-0.35 -0.06,-0.22 -0.18,-0.41 -0.26,-0.41 -0.07,0 -0.16,-0.05 -0.18,-0.12 -0.02,-0.07 -0.02,-0.00 -0.00,0.15 0.01,0.15 -0.00,0.28 -0.05,0.28 -0.11,0 -0.21,-0.26 -0.21,-0.59 0,-0.20 -0.02,-0.23 -0.12,-0.14 -0.06,0.06 -0.18,0.12 -0.25,0.12 -0.10,0 -0.11,-0.04 -0.01,-0.22 0.11,-0.22 0.11,-0.22 -0.07,-0.05 -0.31,0.28 -0.33,0.21 -0.07,-0.40 0.14,-0.34 0.24,-0.79 0.24,-1.10 0,-0.28 0.03,-0.81 0.06,-1.16 0.03,-0.32 0.07,-0.47 0.11,-0.47 z m 17.67,1.39 c 0.04,-3.46e-4 0.03,0.11 0.00,0.38 -0.05,0.38 -0.03,0.48 0.13,0.60 0.19,0.13 0.49,0.59 0.39,0.59 -0.02,0 -0.12,-0.07 -0.22,-0.17 -0.12,-0.12 -0.19,-0.14 -0.21,-0.05 -0.06,0.18 -0.22,0.15 -0.24,-0.05 -0.01,-0.16 -0.01,-0.16 -0.05,-0.00 -0.09,0.36 0.38,0.81 0.87,0.83 0.07,0.00 0.17,0.13 0.22,0.29 0.04,0.15 0.17,0.39 0.29,0.52 l 0.21,0.23 -0.35,-0.12 c -0.19,-0.06 -0.43,-0.18 -0.53,-0.27 -0.16,-0.13 -0.17,-0.12 -0.10,0.07 0.07,0.24 -0.08,0.41 -0.17,0.18 -0.05,-0.15 -0.37,-0.21 -0.37,-0.07 0,0.04 0.20,0.29 0.46,0.56 0.55,0.59 0.76,0.94 0.51,0.84 -0.10,-0.03 -0.16,-0.00 -0.16,0.08 0,0.08 -0.04,0.15 -0.10,0.15 -0.05,0 -0.10,-0.09 -0.10,-0.20 0,-0.11 -0.05,-0.19 -0.12,-0.17 -0.06,0.01 -0.15,-0.11 -0.19,-0.28 -0.05,-0.23 -0.07,-0.25 -0.08,-0.07 -0.01,0.22 -0.15,0.25 -0.30,0.12 -0.00,-0.06 -0.01,-0.12 -0.01,-0.16 l -0.25,-0.74 -0.12,0.40 c -0.08,0.27 -0.13,0.33 -0.15,0.20 -0.01,-0.11 -0.05,0.02 -0.08,0.29 -0.05,0.48 -0.06,0.49 -0.24,0.31 -0.12,-0.13 -0.15,-0.21 -0.07,-0.29 0.23,-0.23 0.09,-0.28 -0.15,-0.05 l -0.26,0.24 0.07,-0.35 c 0.03,-0.19 0.18,-0.47 0.31,-0.61 0.13,-0.14 0.24,-0.33 0.24,-0.42 0,-0.12 0.08,-0.17 0.30,-0.17 0.07,0.00 0.23,-0.02 0.36,-0.03 0.00,0.03 0.00,0.09 0.00,0.11 0.17,-0.00 0.29,-0.06 0.34,-0.12 0.20,-0.20 0.17,-0.39 -0.02,-0.39 -0.08,0 -0.15,-0.06 -0.15,-0.15 0,-0.05 -0.03,-0.18 -0.08,-0.25 -0.00,-0.06 -0.01,-0.12 -0.01,-0.16 -0.18,-7.69e-4 -0.38,0.14 -0.51,0.33 -0.12,0.18 -0.36,0.26 -0.38,0.24 -0.06,-0.06 0.37,-0.98 0.47,-0.98 0.12,0 0.22,-0.30 0.31,-0.52 7.7e-5,0.00 0,0.01 0,0.02 0.07,-0.13 0.13,-0.24 0.14,-0.38 0.01,-0.20 0.08,-0.24 0.15,-0.30 0.02,-0.02 0.04,-0.03 0.05,-0.03 z m -8.63,1.00 c -0.03,-0.00 -0.09,0.07 -0.19,0.24 -0.12,0.20 -0.28,0.37 -0.35,0.37 -0.08,0 -0.13,0.14 -0.13,0.41 0,0.36 0.02,0.40 0.20,0.35 0.11,-0.03 0.20,-0.01 0.20,0.04 0,0.06 0.16,0.10 0.36,0.10 0.38,0 0.45,-0.09 0.59,-0.79 0.04,-0.24 0.02,-0.32 -0.06,-0.29 -0.06,0.02 -0.14,0.15 -0.16,0.28 -0.05,0.39 -0.21,0.47 -0.21,0.11 0,-0.36 -0.06,-0.40 -0.26,-0.14 -0.11,0.15 -0.12,0.12 -0.03,-0.17 0.09,-0.34 0.11,-0.52 0.06,-0.52 z m -9.07,1.41 c 0.04,4.33e-4 0.05,0.03 0.05,0.11 0,0.09 0.11,0.36 0.25,0.60 0.30,0.53 0.31,0.66 0.05,0.59 -0.10,-0.02 -0.21,-7.7e-5 -0.24,0.06 -0.02,0.06 -0.05,0.00 -0.05,-0.13 -0.00,-0.20 -0.02,-0.22 -0.10,-0.10 -0.07,0.11 -0.10,0.04 -0.11,-0.25 -0.00,-0.22 -0.03,-0.30 -0.05,-0.18 -0.02,0.13 -0.09,0.20 -0.17,0.17 -0.28,-0.11 -0.29,0.69 -0.01,1.07 0.15,0.21 0.36,0.59 0.36,0.67 0,0.03 -0.06,0.00 -0.15,-0.06 -0.08,-0.07 -0.15,-0.19 -0.15,-0.26 0,-0.18 -0.20,-0.18 -0.48,0.01 -0.25,0.18 -0.28,0.10 -0.07,-0.25 0.07,-0.14 0.14,-0.32 0.14,-0.40 -0.00,-0.08 -0.05,-0.03 -0.12,0.10 -0.15,0.32 -0.78,1.09 -0.78,0.94 0,-0.06 0.11,-0.27 0.25,-0.48 0.14,-0.20 0.25,-0.44 0.25,-0.52 0,-0.08 0.04,-0.14 0.08,-0.14 0.11,0 0.41,-0.75 0.41,-1.04 0,-0.16 0.10,-0.27 0.35,-0.39 0.16,-0.07 0.25,-0.11 0.30,-0.11 z m 0.99,1.55 c 0.32,0.00 0.42,0.09 0.63,0.55 0.10,0.22 0.25,0.49 0.35,0.60 0.37,0.44 0.28,0.59 -0.09,0.17 C 8.28,18.91 8.07,18.57 8.03,18.39 7.99,18.21 7.94,18.12 7.91,18.20 c -0.02,0.07 0.00,0.27 0.06,0.45 0.06,0.17 0.09,0.34 0.06,0.37 -0.08,0.08 -0.34,-0.32 -0.35,-0.53 -0.00,-0.19 -0.00,-0.19 -0.15,0 -0.25,0.33 -0.17,0.62 0.30,1.16 0.24,0.28 0.45,0.53 0.45,0.56 0,0.13 -0.20,0.01 -0.40,-0.25 -0.12,-0.16 -0.29,-0.30 -0.36,-0.30 -0.07,0 -0.16,-0.16 -0.20,-0.36 -0.03,-0.19 -0.11,-0.38 -0.17,-0.42 -0.06,-0.03 -0.08,0.01 -0.04,0.15 0.06,0.25 -0.07,0.39 -0.16,0.15 -0.10,-0.27 0.04,-0.65 0.25,-0.65 0.15,0 0.19,-0.07 0.19,-0.35 0,-0.29 0.03,-0.35 0.22,-0.35 z m 17.62,0.00 c 0.02,-0.00 0.09,0.02 0.22,0.09 0.31,0.16 0.54,0.50 0.54,0.81 0,0.16 -0.03,0.14 -0.16,-0.10 -0.09,-0.16 -0.18,-0.24 -0.20,-0.18 -0.02,0.06 0.00,0.21 0.06,0.32 0.15,0.28 0.13,0.42 -0.04,0.35 -0.10,-0.03 -0.13,-0.01 -0.09,0.09 0.03,0.10 -7.6e-5,0.15 -0.11,0.14 -0.36,-0.03 -0.22,0.19 0.26,0.42 0.27,0.12 0.50,0.28 0.50,0.34 0,0.06 0.15,0.29 0.33,0.52 0.18,0.22 0.37,0.47 0.41,0.54 0.14,0.24 -0.06,0.11 -0.40,-0.24 -0.29,-0.32 -0.32,-0.33 -0.27,-0.12 0.05,0.21 0.04,0.22 -0.10,0.10 -0.09,-0.07 -0.17,-0.20 -0.17,-0.27 0,-0.07 -0.05,-0.26 -0.11,-0.42 l -0.11,-0.28 -0.06,0.30 -0.06,0.30 -0.24,-0.40 -0.24,-0.40 -0.05,0.35 -0.05,0.35 -0.08,-0.45 c -0.04,-0.24 -0.14,-0.51 -0.21,-0.58 -0.11,-0.11 -0.12,-0.05 -0.07,0.35 0.03,0.31 0.01,0.52 -0.05,0.56 -0.06,0.03 -0.11,-0.00 -0.12,-0.11 -0.00,-0.12 -0.05,-0.08 -0.14,0.12 l -0.14,0.30 -0.00,-0.35 c -0.00,-0.19 -0.05,-0.19 -0.12,-0.13 -8.14e-4,-0.02 -0.00,-0.04 -0.00,-0.07 -0.18,0.07 -0.36,0.55 -0.44,0.55 -0.20,0 -0.28,0.31 -0.12,0.49 0.04,0.04 0.08,0.11 0.12,0.19 0.03,0.06 0.06,0.13 0.08,0.19 l -0.08,-0.19 c 0.10,0.33 0.21,0.33 0.34,0.27 -1.53e-4,0.03 1.53e-4,0.06 0,0.09 0.18,-0.07 0.31,-0.18 0.36,-0.10 0.12,0.20 0.24,0.12 0.31,-0.18 0.03,-0.16 0.13,-0.30 0.21,-0.30 0.07,0 0.14,-0.04 0.14,-0.10 0,-0.18 0.39,-0.10 0.50,0.10 0.06,0.11 0.19,0.20 0.29,0.20 0.10,0 0.23,0.06 0.30,0.14 0.06,0.07 0.22,0.16 0.35,0.19 0.12,0.03 0.33,0.19 0.46,0.37 0.24,0.32 0.22,0.51 -0.02,0.30 -0.07,-0.06 -0.20,-0.10 -0.27,-0.08 -0.07,0.01 -0.19,-0.08 -0.27,-0.22 -0.13,-0.24 -0.14,-0.23 -0.09,0.17 0.06,0.52 -0.07,0.56 -0.23,0.06 -0.06,-0.19 -0.18,-0.38 -0.26,-0.41 -0.07,-0.02 -0.14,-0.11 -0.14,-0.19 0,-0.21 -0.18,-0.16 -0.25,0.07 -0.07,0.24 -0.21,0.14 -0.27,-0.21 -0.04,-0.24 -0.04,-0.24 -0.06,0.02 -0.00,0.15 -0.05,0.28 -0.11,0.28 -0.05,0 -0.10,0.08 -0.10,0.19 0,0.10 0.04,0.22 0.10,0.25 0.05,0.03 0.10,0.11 0.10,0.17 0,0.17 -0.31,-0.13 -0.42,-0.41 -0.05,-0.14 -0.12,-0.21 -0.16,-0.15 -0.04,0.08 -0.20,0.14 -0.33,0.17 -0.00,-0.04 -0.00,-0.08 -0.00,-0.11 -0.18,0.04 -0.32,-0.04 -0.38,-0.00 -0.11,0.07 -0.23,-0.19 -0.23,-0.37 0,-0.06 -0.11,-1.92e-4 -0.26,0.15 -0.14,0.15 -0.29,0.24 -0.33,0.20 -0.03,-0.03 0.03,-0.15 0.16,-0.26 0.30,-0.24 0.25,-0.55 -0.08,-0.55 -0.14,0 -0.30,-0.03 -0.36,-0.07 -0.06,-0.04 -0.19,-0.01 -0.30,0.07 -0.21,0.16 -0.44,0.19 -0.44,0.06 0,-0.09 0.85,-0.73 0.96,-0.73 0.03,0 0.04,0.06 0.01,0.15 -0.07,0.20 0.06,0.19 0.37,-0.05 0.14,-0.11 0.32,-0.19 0.39,-0.17 0.08,0.01 0.15,-0.16 0.20,-0.53 0.03,-0.30 0.05,-0.57 0.03,-0.59 -0.02,-0.02 -0.11,0.15 -0.21,0.40 -0.09,0.24 -0.19,0.38 -0.21,0.31 -0.02,-0.06 -0.08,-0.09 -0.13,-0.06 -0.15,0.09 -0.23,-0.27 -0.10,-0.48 0.18,-0.29 0.02,-0.37 -0.17,-0.09 -0.61,0.85 -0.84,0.95 -0.61,0.25 0.15,-0.45 0.37,-0.74 0.55,-0.74 0.27,0 0.63,-0.23 0.69,-0.44 0.06,-0.21 0.06,-0.21 0.21,-0.01 0.02,0.04 0.12,0.13 0.21,0.22 0.00,0.05 0.00,0.12 0.00,0.16 0.09,0.07 0.12,0.16 0.16,0.17 0.03,0.01 0.07,-0.02 0.13,-0.11 0.12,-0.17 0.14,-0.16 0.24,0.10 0.07,0.19 0.15,0.27 0.27,0.22 0.08,-0.03 0.24,-0.06 0.36,-0.06 0.18,0 0.19,-0.05 0.16,-0.48 -0.02,-0.26 -0.07,-0.56 -0.12,-0.65 -0.03,-0.08 -0.05,-0.12 -0.02,-0.12 z M 4.80,19.07 c 0.00,7.7e-5 0.01,0.00 0.02,0.00 0.02,0.02 7.66e-5,0.11 -0.07,0.17 -0.10,0.10 -0.11,0.09 -0.05,-0.05 0.03,-0.07 0.07,-0.13 0.10,-0.13 z m 18.58,0.29 c -0.01,-0.00 -0.02,0.03 -0.02,0.11 -0.00,0.10 0.01,0.16 0.05,0.13 0.03,-0.03 0.03,-0.12 0.01,-0.19 -0.01,-0.03 -0.02,-0.04 -0.03,-0.04 z m -17.17,0.02 c 0.09,-5.07e-4 0.14,0.03 0.14,0.08 0,0.06 0.13,0.28 0.30,0.46 0.16,0.19 0.30,0.30 0.30,0.25 0,-0.05 0.11,0.00 0.24,0.13 0.13,0.12 0.28,0.21 0.33,0.20 0.05,-0.01 0.20,0.02 0.34,0.08 0.13,0.05 0.36,0.14 0.49,0.18 0.23,0.07 0.24,0.05 0.18,-0.29 -0.05,-0.31 -0.03,-0.36 0.14,-0.36 0.12,0 0.23,0.10 0.30,0.26 0.05,0.14 0.21,0.40 0.35,0.57 0.14,0.16 0.22,0.33 0.19,0.36 -0.03,0.03 -0.15,-0.05 -0.26,-0.19 -0.19,-0.24 -0.20,-0.24 -0.13,-0.02 0.08,0.31 -0.01,0.28 -0.19,-0.05 C 8.86,20.90 8.81,20.87 8.81,20.99 c -0.00,0.11 -0.05,0.15 -0.15,0.11 -0.19,-0.07 -0.19,0.15 0.00,0.45 0.09,0.12 0.14,0.30 0.12,0.39 -0.03,0.15 -0.04,0.15 -0.17,0 -0.11,-0.13 -0.17,-0.14 -0.28,-0.05 -0.11,0.09 -0.16,0.05 -0.26,-0.20 -0.06,-0.17 -0.17,-0.32 -0.25,-0.32 -0.07,0 -0.16,-0.13 -0.19,-0.30 -0.03,-0.16 -0.10,-0.30 -0.15,-0.30 -0.05,0 -0.06,0.13 -0.02,0.31 0.05,0.22 0.03,0.29 -0.03,0.24 C 7.33,21.29 7.27,21.21 7.27,21.14 7.27,21.07 7.20,20.88 7.12,20.71 6.97,20.41 6.97,20.41 7.02,20.91 c 0.05,0.55 -0.03,0.54 -0.22,-0.02 l -0.12,-0.37 0.04,0.48 c 0.03,0.30 0.01,0.46 -0.05,0.42 -0.05,-0.03 -0.10,-0.01 -0.10,0.03 0,0.05 -0.07,0.12 -0.16,0.15 -0.13,0.05 -0.15,0.01 -0.09,-0.21 0.19,-0.80 0.15,-0.99 -0.12,-0.72 -0.06,0.06 -0.15,0.08 -0.19,0.04 -0.04,-0.04 0.00,-0.12 0.10,-0.17 0.09,-0.05 0.17,-0.18 0.17,-0.29 0,-0.35 -0.19,-0.20 -0.46,0.36 -0.27,0.58 -0.47,0.70 -0.24,0.14 0.19,-0.48 0.06,-0.45 -0.20,0.05 -0.13,0.25 -0.29,0.44 -0.34,0.42 -0.05,-0.01 -0.18,0.06 -0.27,0.17 -0.09,0.11 -0.17,0.16 -0.17,0.09 0,-0.06 0.06,-0.17 0.15,-0.24 0.08,-0.06 0.15,-0.20 0.15,-0.29 0,-0.09 0.13,-0.32 0.29,-0.51 0.15,-0.19 0.32,-0.45 0.35,-0.58 0.03,-0.12 0.14,-0.22 0.21,-0.22 0.07,0 0.14,-0.04 0.14,-0.08 0,-0.05 0.11,-0.11 0.25,-0.14 0.03,-0.00 0.07,-0.01 0.10,-0.01 z M 33.46,19.68 c 0.14,-0.00 0.23,0.05 0.25,0.16 0.03,0.15 -0.00,0.18 -0.22,0.14 -0.16,-0.03 -0.27,0.00 -0.31,0.08 -0.02,0.07 -0.21,0.14 -0.43,0.14 l -0.38,0.01 0.33,0.09 c 0.21,0.06 0.40,0.06 0.53,-0.00 0.24,-0.13 0.51,-0.13 0.51,-0.01 0,0.12 -0.67,0.34 -0.80,0.26 -0.05,-0.03 -0.20,-0.01 -0.32,0.05 -0.19,0.10 -0.20,0.12 -0.05,0.21 0.09,0.05 0.16,0.15 0.16,0.24 0,0.21 0.09,0.17 0.40,-0.15 0.35,-0.38 0.71,-0.41 0.71,-0.05 0,0.29 -0.19,0.41 -0.90,0.56 -0.56,0.12 -0.80,0.31 -0.34,0.28 0.15,-0.01 0.38,0.01 0.50,0.05 0.14,0.05 0.23,0.02 0.27,-0.08 0.08,-0.23 0.45,-0.19 0.52,0.05 0.10,0.33 -0.11,0.49 -0.68,0.47 -0.30,-0.00 -0.53,-0.06 -0.55,-0.13 -0.03,-0.09 -0.10,-0.07 -0.24,0.06 -0.10,0.10 -0.19,0.23 -0.19,0.28 0,0.09 0.96,0.06 1.49,-0.04 l 0.33,-0.06 0,0.42 c 0,0.38 -0.01,0.41 -0.20,0.31 -0.11,-0.06 -0.20,-0.17 -0.20,-0.25 0,-0.08 -0.04,-0.14 -0.10,-0.14 -0.05,0 -0.10,0.08 -0.10,0.19 0,0.20 -0.27,0.41 -0.55,0.41 -0.10,0 -0.15,-0.08 -0.15,-0.25 0,-0.15 -0.05,-0.25 -0.15,-0.25 -0.08,0 -0.15,0.06 -0.15,0.14 0,0.08 -0.10,0.20 -0.22,0.27 -0.21,0.11 -0.21,0.12 0.17,0.20 0.23,0.04 0.68,0.03 1.04,-0.03 0.58,-0.10 0.65,-0.09 0.77,0.08 0.18,0.25 0.10,0.34 -0.30,0.34 -0.46,0 -0.44,0.14 0.03,0.26 0.37,0.10 0.37,0.10 0.12,0.21 -0.25,0.11 -0.24,0.11 0.08,0.11 0.22,0.00 0.32,0.05 0.29,0.13 -0.10,0.32 -0.45,0.18 -1.09,-0.42 -0.27,-0.26 -0.54,-0.42 -0.79,-0.46 -0.89,-0.14 -0.89,-0.14 -0.89,-0.41 0.00,-0.14 0.06,-0.29 0.13,-0.33 0.07,-0.04 0.10,-0.15 0.06,-0.24 -0.03,-0.09 -0.01,-0.17 0.04,-0.17 0.06,0 0.11,-0.06 0.11,-0.14 0,-0.07 0.05,-0.16 0.12,-0.19 0.09,-0.03 0.09,-0.07 -0.01,-0.14 -0.07,-0.05 -0.10,-0.15 -0.06,-0.22 0.10,-0.18 0.12,-0.91 0.02,-0.98 -0.04,-0.03 -0.03,-0.11 0.02,-0.19 0.07,-0.09 0.07,-0.15 0,-0.20 -0.15,-0.09 0.06,-0.35 0.30,-0.35 0.09,0 0.30,-0.06 0.46,-0.14 0.23,-0.11 0.43,-0.17 0.58,-0.17 z M 5.31,20.50 c -0.06,-0.01 -0.37,0.53 -0.36,0.66 0,0.03 0.09,-0.09 0.21,-0.27 0.11,-0.18 0.19,-0.35 0.15,-0.38 -0.00,-0.00 -0.00,-0.00 -0.00,-0.00 z m 10.69,0.09 c 0.07,0.03 0.17,0.08 0.28,0.12 l 0,0.00 0.00,0.00 1.59,0.28 0.08,0.12 1.50,0.18 0.18,0.16 1.27,0.25 0.19,0.12 1.25,0.12 0.07,0.12 1.27,0.10 0.07,0.10 0.14,0.01 c -0.00,0.03 -0.00,0.07 -0.01,0.11 l 0.49,0.07 0.14,0.12 0.64,0.10 1.00,0.10 0.08,0.10 1.46,0.10 0.12,0.17 1.50,0.05 0.17,0.16 0.41,0.03 0.24,0.22 -0.18,0.00 0.03,0.07 -0.37,-0.00 -0.35,-0.34 -0.11,-0.03 0.19,0.22 -0.70,-0.02 -0.31,-0.31 -0.10,0 0.37,0.40 -0.42,-0.03 -0.39,-0.42 -0.14,-0.01 0.25,0.31 -0.31,0 -0.14,-0.21 -0.12,-0.01 0.14,0.21 -0.31,0 -0.20,-0.27 -0.08,0.01 0.18,0.24 -0.11,0 0.12,0.16 -0.19,-0.00 -0.37,-0.42 -0.07,0.00 0.16,0.23 -0.67,-0.01 -0.64,-0.48 -0.10,-0.01 0.36,0.31 -0.50,-0.02 -0.42,-0.40 -0.11,-0.00 0.17,0.19 -0.32,-0.03 0.06,0.10 -0.56,-0.06 -0.23,-0.32 -0.37,-0.03 0.07,0.08 0.22,0.03 0.43,0.57 -0.46,-0.04 -0.33,-0.38 -0.11,0.01 0.27,0.34 -0.48,-0.03 -0.57,-0.62 0.39,0.04 -0.11,-0.10 -0.39,-0.03 -0.43,-0.41 -0.16,-0.01 0.87,0.87 -0.54,-0.05 -0.70,-0.65 -0.14,0.01 0.54,0.52 -1.08,-0.07 -0.63,-0.51 -0.21,-0.04 0.40,0.51 -0.65,-0.03 -0.76,-0.59 -0.59,-0.05 0.06,0.12 0.46,0.05 0.65,0.48 -1.10,-0.07 0.01,0.13 2.17,0.11 -0.25,-0.36 0.36,0.36 1.19,0.06 0.07,-0.02 0.15,0.16 0.64,0.03 0.28,0.27 1.36,0.11 -0.24,-0.34 0.64,0.05 -0.06,-0.09 0.26,0.03 0.26,0.21 0.62,0.02 0.24,0.18 0.79,0.01 0.17,0.17 0.39,0.01 -0.14,-0.15 0.94,0.03 0.11,0.11 0.65,0.04 -0.07,-0.11 0.73,0.03 0.17,0.15 0.53,0.01 -0.04,-0.07 0.71,0.03 0.07,0.07 0.65,-0.00 0.06,0.05 1.08,0.04 -0.08,-0.08 -0.94,-0.04 -0.22,-0.20 0.04,0.00 c 0.09,-0.01 0.25,-0.00 0.45,0.01 0.25,0.03 0.43,0.08 0.62,0.18 l 0.03,-0.01 0.86,0.59 0.01,0.12 0.98,0.43 0,0.14 0.95,0.39 0.01,0.17 0.78,0.37 0.04,0.17 0.86,0.29 0.03,0.14 1.12,0.21 0.07,0.17 1.06,0.20 0.07,0.09 c 0.13,0.02 0.25,0.04 0.39,0.07 l 0.07,0.00 0.11,0.03 c 0.03,0.00 0.06,0.01 0.10,0.01 l 0.44,0.05 0.01,0.08 0.34,0.10 c 0.24,-0.00 0.42,-0.01 0.47,0.01 0.11,0.06 0.45,0.04 0.74,0.05 0.29,0 0.72,0.04 0.94,0.10 0.22,0.05 0.73,0.05 1.14,0.12 0.38,0.06 0.80,0.07 0.89,0.12 l 0.18,0.01 0.03,0.15 -0.94,-0.02 -0.43,-0.01 -0.73,-0.08 -0.28,-0.19 -0.12,0.04 0.26,0.17 0.02,0.07 -0.69,-0.03 -0.43,-0.26 -0.15,0.02 0.22,0.17 -0.57,-0.04 -0.18,-0.15 -0.12,0.02 0.14,0.13 -0.10,0.08 -0.25,-0.02 -0.44,-0.26 -0.12,-0.02 0.31,0.25 -0.58,-0.05 -0.14,-0.01 -0.21,-0.18 -0.12,0 0.15,0.16 -0.65,-0.07 0.03,0.11 -0.89,-0.06 -0.01,0.02 -0.26,-0.01 -0.40,-0.27 -0.13,0.04 0.29,0.21 -0.48,-0.03 -0.11,-0.11 -0.38,-0.01 c -0.00,0.00 -0.01,0.00 -0.02,0.00 l 0,0.00 -0.23,-0.14 -0.13,0.02 0.21,0.17 -0.39,-0.02 -0.18,-0.02 -0.38,-0.32 -0.14,0.04 0.30,0.26 -0.17,0.00 -0.22,-0.00 -0.21,-0.04 c 0,0 -0.23,-0.04 -0.20,0.03 l -0.02,-0.00 -0.44,-0.35 -0.13,0.04 0.28,0.26 -0.70,-0.04 -0.43,-0.32 -0.13,0 0.23,0.20 -0.60,-0.03 -0.50,-0.43 -0.13,0.04 0.45,0.47 -0.45,-0.01 -0.61,-0.42 -0.10,0.04 0.30,0.28 -0.18,-0.01 -0.14,-0.02 -0.11,-0.07 -0.30,-0.04 -0.40,-0.30 -0.11,0.06 0.37,0.30 -0.13,0.00 -0.44,0 -0.12,-0.09 -0.00,0 -0.45,-0.37 -0.10,0.04 0.38,0.32 -0.64,-0.01 -0.47,-0.33 -0.13,0.02 0.48,0.38 0.00,0.01 -0.53,-0.01 -0.12,-0.04 -0.09,-0.00 -0.04,-0.01 -0.70,-0.43 -0.15,0 0.64,0.44 -0.00,0 -0.72,-0.05 -0.73,-0.50 -0.10,0.04 0.52,0.48 -0.39,-0.03 -0.15,-0.06 -0.28,0.01 -0.39,-0.32 -0.15,0.04 0.27,0.27 -0.23,0.00 -0.09,-0.03 -0.43,-0.01 -0.43,-0.35 -0.19,0 0.30,0.28 -0.52,0 -0.46,-0.39 -0.17,0 0.37,0.34 -0.51,0.01 -0.07,-0.05 c -6.06e-4,-0.05 -0.00,-0.11 -0.00,-0.15 l -1.38,-0.77 0,-0.06 c -0.34,-0.20 -0.66,-0.39 -0.76,-0.44 -0.00,-0.05 0.00,-0.08 0.00,-0.13 -0.19,-0.10 -0.96,-0.53 -1.01,-0.59 0.01,-0.05 5.68e-4,-0.07 0.00,-0.12 -0.10,-0.06 -0.90,-0.55 -0.97,-0.61 0.00,-0.01 -0.00,-0.07 -0.02,-0.13 -0.26,-0.15 -0.88,-0.60 -0.93,-0.63 0.00,-0.05 -0.00,-0.06 -0.00,-0.10 -0.15,-0.12 -0.67,-0.45 -0.76,-0.53 0.00,-0.04 -0.01,-0.10 -0.00,-0.16 -0.13,-0.07 -0.58,-0.41 -0.72,-0.52 0.02,-0.05 -0.01,-0.08 0.00,-0.13 -0.10,-0.03 -0.59,-0.29 -0.78,-0.46 -0.00,-0.06 0.03,-0.06 0.07,-0.11 -0.16,-0.12 -0.65,-0.57 -0.87,-0.72 0.07,-0.06 0.11,-0.10 0.23,-0.17 z m 1.26,0.52 0.42,0.48 -0.25,-0.01 -0.27,-0.27 -0.14,-0.00 0.25,0.27 -0.44,-0.03 0.00,0.07 -0.03,0.01 1.08,0.07 -0.08,-0.12 c 0.34,0.03 0.68,0.07 1.03,0.10 l 0.30,0.25 1.29,0.20 -0.23,-0.23 0.90,0.18 -0.12,-0.11 -0.71,-0.14 -0.35,-0.31 -0.21,-0.04 0.38,0.35 -0.07,0 0.17,0.17 -0.94,-0.15 -0.65,-0.60 -0.38,-0.05 0.08,0.11 0.19,0.02 0.27,0.21 -0.94,-0.08 -0.30,-0.31 -0.20,-0.02 z m -11.21,0.82 c 0.02,-0.00 0.03,0.00 0.04,0.01 0.06,0.09 -0.03,0.33 -0.47,1.21 -0.21,0.43 -0.21,0.43 -0.27,0.15 -0.04,-0.23 -0.06,-0.25 -0.12,-0.09 -0.03,0.10 -0.07,0.26 -0.07,0.35 0,0.09 -0.09,0.28 -0.20,0.42 -0.23,0.29 -0.26,0.16 -0.05,-0.20 0.07,-0.14 0.14,-0.31 0.14,-0.38 0.01,-0.28 -0.16,-0.09 -0.43,0.47 -0.15,0.33 -0.38,0.68 -0.50,0.78 -0.20,0.18 -0.20,0.18 0.00,-0.13 0.12,-0.17 0.22,-0.40 0.22,-0.50 0.00,-0.30 0.65,-1.39 0.90,-1.52 0.12,-0.06 0.35,-0.23 0.51,-0.38 0.11,-0.11 0.23,-0.18 0.30,-0.19 z m 13.61,1.12 0.61,0.50 -1.27,-0.07 0.12,0.12 1.22,0.08 0.35,0.29 1.14,0.06 -0.54,-0.53 0.45,0.03 0.59,0.50 0.76,0.00 0.08,-0.04 0.10,0.10 0.88,0.03 0.08,0.10 1.23,0.09 -0.23,-0.23 0.56,0.01 0.31,0.25 1.03,0.09 -0.09,-0.12 0.51,0 0.08,0.07 0.72,0.04 -0.11,-0.12 0.59,0.06 0.14,0.11 0.58,0.03 -0.10,-0.12 0.40,0.04 0.14,0.12 0.57,0.04 -0.09,-0.09 0.40,0 0.17,0.15 0.67,0.01 -0.12,-0.10 0.37,0.01 0.15,0.10 0.51,0.01 -0.09,-0.09 0.26,0.00 0.12,0.10 0.81,0.03 -0.11,-0.09 c -0.24,0.00 -0.38,-0.01 -0.58,-0.02 l -0.54,-0.50 -0.12,-0.03 0.45,0.45 -0.40,-0.01 c -0.01,0.01 0.01,0.04 0.03,0.06 l -0.28,0.00 -0.35,-0.31 -0.14,-0.01 0.24,0.20 -0.37,-0.02 -0.42,-0.34 -0.14,0 0.51,0.45 -0.35,0.01 -0.38,-0.33 -0.10,0 0.17,0.15 -0.38,0.01 -0.29,-0.32 -0.13,-0.01 0.36,0.41 -0.35,-0.02 -0.27,-0.32 -0.11,-0.01 0.17,0.20 -0.41,-0.04 -0.31,-0.34 -0.10,-0.00 0.38,0.45 -0.34,-0.01 -0.42,-0.40 -0.14,-0.01 0.30,0.31 -0.59,-0.07 -0.24,-0.26 -0.12,-0.01 0.31,0.37 -0.43,-0.00 -0.41,-0.36 -0.13,-0.00 0.32,0.28 -0.34,-0.00 -0.13,-0.00 -0.27,-0.27 -0.13,0.00 0.36,0.38 -0.78,-0.05 -0.50,-0.48 -0.11,0.00 0.17,0.18 -0.60,-0.02 -0.26,-0.25 -0.10,0.00 0.47,0.48 -0.91,-0.06 -0.07,-0.08 -0.37,-0.45 -0.17,-0.02 0.37,0.41 -0.75,-0.01 -0.52,-0.47 -0.16,-0.00 0.45,0.44 -0.74,-0.03 -0.56,-0.51 -0.76,-0.05 0.52,0.51 -0.79,-0.03 -0.90,-0.80 -0.19,-0.01 z m 10.43,0.46 0.60,0.04 0.03,0.02 -0.04,-0.00 0.18,0.19 -0.52,-0.03 -0.25,-0.22 z m 0.77,0.15 0.61,0.02 -0.06,0.00 0.15,0.16 -0.54,-0.01 -0.16,-0.18 z M 9.57,24.10 c -0.11,0.00 -0.14,0.16 -0.16,0.51 -0.07,0.15 -0.06,0.41 -0.02,0.56 l 0.13,0.18 c 0.05,0.08 0.34,0.17 0.51,-0.02 0.05,-0.02 0.11,-0.13 0.32,-0.19 0.15,-0.05 0.00,-0.24 -0.01,-0.45 0.14,-0.12 0.06,-0.27 -0.22,-0.35 C 9.96,24.31 9.81,24.20 9.71,24.14 9.65,24.11 9.61,24.10 9.57,24.10 z m 11.26,0.11 0.70,0.59 0.47,0.03 0.23,0.17 -1.36,-0.00 0.05,0.09 1.56,0.02 -0.34,-0.27 0.39,0.00 -0.06,-0.13 0.34,0.25 1.03,0.00 -0.37,-0.37 0.40,0.00 0.52,0.63 0.11,0.00 -0.15,-0.18 0.19,0 0.47,0.48 0.15,0.00 -0.30,-0.27 0.88,-0.00 0.10,0.14 0.68,0.01 -0.15,-0.15 0.54,0.03 0.12,0.18 0.73,-0.04 -0.07,-0.09 0.23,0 0.14,0.07 0.70,-0.01 0.15,0.12 0.93,0.04 -0.10,-0.12 0.42,0.03 0.23,0.17 0.92,0.01 -0.10,-0.10 0.68,0 0.25,0.23 0.85,0.01 -0.11,-0.09 0.36,0 0.17,0.15 0.70,0.01 -0.14,-0.10 0.33,-0.02 0.21,0.16 0.29,0.01 0.05,0.03 0.77,0.01 -0.05,-0.08 -0.67,-0.03 -0.18,-0.18 -0.10,0.02 0.11,0.12 -0.14,0 -0.37,-0.34 -0.14,0.01 0.16,0.16 -0.31,0.00 -0.47,-0.47 -0.18,-0.03 0.61,0.63 -0.38,-0.00 -0.58,-0.54 -0.12,0.01 0.34,0.35 -0.31,0.00 -0.50,-0.50 -0.15,0 0.58,0.58 -0.50,0.01 -0.66,-0.58 -0.15,0.03 0.32,0.28 -0.39,0.01 -0.59,-0.45 -0.14,0 0.54,0.44 -0.23,-0.00 0.12,0.09 -0.64,0.00 -0.65,-0.58 -0.14,-0.00 0.45,0.42 -0.45,-0.02 -0.40,-0.38 -0.17,-0.01 0.53,0.50 -0.61,-0.01 -0.66,-0.55 -0.12,0.01 0.47,0.41 -0.59,0.01 -0.64,-0.50 -0.12,0.01 0.46,0.40 -0.26,0.02 0.11,0.09 -0.51,0.02 -0.59,-0.62 -0.15,0 0.39,0.42 -0.32,-0.03 -0.56,-0.62 -0.10,-0.00 0.55,0.63 -0.13,-0.01 0.14,0.16 -0.39,-0.01 -0.50,-0.61 -0.12,0.00 0.36,0.47 -0.42,0.01 -0.34,-0.37 -0.13,0.01 0.33,0.35 -0.30,0 -0.23,-0.22 -0.29,0.00 -0.38,-0.45 -0.63,0.01 0.35,0.36 -0.74,-0.01 -0.69,-0.52 -0.21,-0.01 0.45,0.41 -0.84,-0.03 -0.58,-0.49 -0.17,0 z m 0.99,1.07 0.57,0.45 -0.46,-0.04 0.06,0.10 1.12,0.08 0.35,0.24 0.84,0.03 -0.13,-0.11 0.30,0.00 -0.00,-0.00 0.44,0.02 0.07,0.04 c 0,0 1.03,0.03 1.33,0.02 0.01,-0.01 0.02,-0.03 0.02,-0.05 l 1.15,0.06 -0.06,-0.07 0.94,0.04 -0.07,-0.09 0.46,0 0.29,0.21 0.86,0.01 0.10,0.09 c 0.00,0.00 0.80,0.04 1.06,0.03 0.03,-0.01 0.01,-0.03 0.02,-0.04 l 0.89,0.02 0.26,0.15 1.16,-0.03 0.39,0.22 0.63,-0.03 0.10,0.06 0.68,-0.02 0.16,0.10 0.56,-0.04 0.10,0.06 0.40,-0.02 0.08,0.05 0.64,0 -0.07,-0.09 -0.53,0.00 -0.28,-0.19 -0.11,0.03 0.16,0.10 -0.28,0.01 -0.39,-0.35 -0.06,0.02 0.28,0.29 -0.44,0.02 -0.55,-0.41 -0.07,0.01 0.36,0.30 -0.56,0.01 -0.71,-0.53 -0.10,0.02 0.57,0.47 -0.53,-0.00 -0.91,-0.55 -0.11,0.00 0.53,0.37 -1.02,0.03 -0.16,-0.09 -0.16,-0.10 -1.03,-0.03 -0.16,-0.14 -0.12,0 0.25,0.21 -0.83,-0.01 -0.47,-0.46 -0.10,0.00 0.34,0.34 -0.77,-0.00 -0.45,-0.41 -0.12,0 0.18,0.18 -0.53,0 -0.26,-0.28 -0.12,0.01 0.26,0.31 -0.72,-0.01 -0.35,-0.26 -0.14,0 0.39,0.32 -0.95,-0.03 -0.29,-0.28 -0.14,0.01 0.33,0.29 -1.14,-0.00 -0.41,-0.31 -0.17,-0.01 0.37,0.29 -0.43,-0.00 -0.00,-0.00 -0.05,-0.00 c -0.00,-0.00 -0.00,-0.00 -0.00,0 l -0.23,-0.00 -0.54,-0.48 -0.13,-0.00 0.65,0.59 -0.52,-0.01 -0.59,-0.44 -0.20,-0.03 0.27,0.20 -0.41,-0.03 -0.56,-0.41 -0.20,-0.03 z M 5.19,25.53 c 0.03,0.00 -0.03,0.11 -0.23,0.33 -0.12,0.14 -0.10,0.20 0.13,0.44 0.27,0.27 0.28,0.27 0.61,0.11 0.40,-0.18 0.44,-0.19 0.44,-0.06 0,0.11 -0.62,0.71 -0.74,0.71 -0.04,0 -0.05,-0.09 -0.01,-0.22 0.05,-0.18 0.03,-0.20 -0.14,-0.16 -0.15,0.03 -0.21,0.01 -0.21,-0.11 -0.00,-0.10 -0.17,0.01 -0.50,0.35 -0.55,0.58 -0.63,0.78 -0.26,0.69 0.14,-0.03 0.28,-0.00 0.35,0.08 0.07,0.08 0.23,0.13 0.40,0.10 l 0.27,-0.04 -0.30,0.21 c -0.36,0.25 -0.45,0.26 -0.45,0.06 0,-0.21 -0.07,-0.19 -0.47,0.10 -0.36,0.27 -0.45,0.23 -0.17,-0.07 0.28,-0.31 0.08,-0.31 -0.39,0.01 -0.59,0.40 -0.69,0.39 -0.30,-0.02 0.69,-0.72 0.93,-1.03 0.87,-1.08 -0.03,-0.02 -0.08,-1.53e-4 -0.10,0.07 -0.05,0.13 -0.60,0.53 -1.30,0.93 L 2.24,28.21 2.73,27.77 c 0.27,-0.24 0.74,-0.70 1.06,-1.01 0.78,-0.76 1.33,-1.23 1.39,-1.22 z m 2.22,0.54 c -0.06,-0.00 -0.11,0.03 -0.18,0.09 -0.23,0.14 -0.32,0.07 -0.38,-0.01 -0.14,-0.22 -0.19,0.57 -0.04,0.94 -0.07,0.05 -0.13,0.16 -0.11,0.25 0.05,0.13 0.13,0.23 0.29,0.24 -0.02,0.49 0.72,0.27 0.89,-0.08 -0.00,-0.18 -0.14,-0.23 -0.08,-0.41 0.52,-0.29 0.76,-0.80 0.39,-0.69 C 8.08,26.44 7.88,26.42 7.73,26.27 7.59,26.13 7.50,26.07 7.42,26.07 z m 17.52,0.20 0.41,0.31 -0.50,-0.03 -0.14,-0.12 -0.51,-0.00 -0.10,-0.09 -0.11,0 0.15,0.14 -0.43,-0.01 -0.20,-0.17 -0.15,-0.00 0.40,0.32 -0.37,-0.00 0.09,0.06 0.48,0.01 -0.16,-0.15 0.43,0.01 0.08,0.08 0.12,0 -0.14,-0.13 0.36,0.00 0.17,0.14 0.64,0.03 0.17,0.09 1.18,-0.02 -0.10,-0.08 0.86,-0.01 0.17,0.10 0.67,0 0.14,0.09 1.15,0.01 -0.07,-0.09 0.59,-0.02 0.31,0.17 1.02,0.02 0.09,0.03 1.01,0.04 -0.06,-0.07 0.32,0.01 0.12,0.07 -0.00,0.00 0.26,0.25 1.04,0.10 -0.03,-0.09 0.93,0.03 0.31,0.14 0.93,0.03 0.37,0.14 0.47,-0.03 0.18,0.07 0.78,-0.01 0.37,0.15 1.28,0.03 -0.05,-0.06 0.04,-0.02 0.45,0.01 -0.08,-0.04 -0.45,-0.02 -0.46,-0.18 -0.17,0.01 0.52,0.22 -0.99,-0.04 -0.79,-0.39 -0.15,0.01 0.37,0.21 -0.62,-0.01 -0.68,-0.39 -0.10,0.01 0.47,0.34 -0.35,0.01 -0.72,-0.37 -0.14,0 0.29,0.23 -0.70,-0.03 -0.57,-0.29 -0.12,0 0.15,0.17 -0.84,-0.07 -0.20,-0.09 -0.15,0 0.17,0.15 -0.67,-0.06 -0.08,-0.06 0.02,0 -0.37,-0.25 -0.62,-0.01 0.07,0.07 -0.78,-0.03 -0.24,-0.21 -0.09,0.02 0.17,0.17 -0.93,-0.03 -0.28,-0.15 -0.76,-0.01 -0.39,-0.28 -0.15,-0.00 0.46,0.38 -0.82,0.00 -0.16,-0.11 -0.69,0.00 -0.40,-0.23 -0.10,0.01 0.21,0.14 -0.86,-0.00 -0.24,-0.16 -0.22,-0.01 0.39,0.26 -0.83,0.00 -0.55,-0.39 -0.15,0 z m -2.75,1.06 c 0.13,0.01 0.34,0.02 0.50,0.08 0.13,0.05 0.45,0.13 0.48,0.32 0.28,-0.05 0.48,-0.00 0.76,-0.01 -7.7e-5,-0.03 7.7e-5,-0.06 0,-0.09 0.68,0.04 3.18,0.13 4.31,0.19 0.00,0.05 0.01,0.14 0.05,0.17 -0.41,-0.02 -3.91,-0.18 -4.27,-0.21 -0.00,0.05 -2.31e-4,0.09 -0.00,0.18 -0.02,-0.02 -0.05,-0.04 -0.08,-0.05 -0.15,-0.10 -0.32,-0.09 -0.44,-0.07 -0.23,0.09 -0.43,0.28 -0.44,0.52 -0.03,0 -0.40,0.01 -0.64,0.03 -0.04,-0.23 0.08,-0.36 0.18,-0.45 0.11,-0.09 0.25,-0.13 0.39,-0.16 l -0.00,-0.03 -0.25,0.00 -0.53,0.02 c -0.08,-0.10 -0.21,-0.22 -0.24,-0.31 -0.07,0.00 -0.25,-0.02 -0.35,-0.00 0.35,0.07 0.49,0.45 0.42,0.71 -0.11,0.48 -0.78,0.44 -0.93,0.24 -0.39,-0.43 -0.09,-0.99 0.43,-1.06 l 0.65,-0.02 z m -2.68,0.24 c 0.04,0.23 0.02,1.43 0.04,2.18 4.61e-4,-2.7e-5 7.41e-4,2.6e-5 0.00,0 l 0.02,1.69 c -0.54,0.04 -2.87,-0.00 -3.06,-0.05 0.00,-0.43 -0.02,-1.19 -0.01,-1.70 0.00,0 0.00,0 0.00,0 0.00,-0.15 -0.00,-0.71 0.00,-0.83 l -0.02,-1.01 0.79,-0.06 c 0.39,-0.06 1.82,-0.17 2.23,-0.19 z m -12.88,0.02 c -0.04,0.01 -0.13,0.15 -0.21,0.33 -0.21,0.45 -0.66,1.07 -0.73,1.00 -0.02,-0.02 0.07,-0.28 0.22,-0.57 0.33,-0.63 0.27,-0.78 -0.08,-0.20 -0.14,0.22 -0.31,0.41 -0.36,0.41 -0.06,0 -0.17,0.15 -0.25,0.34 -0.08,0.19 -0.20,0.38 -0.26,0.42 -0.08,0.05 -0.09,0.02 -0.04,-0.11 0.15,-0.37 0.18,-0.55 0.08,-0.55 -0.05,0 -0.17,0.17 -0.25,0.39 L 4.55,29.49 c 0.00,1.16e-4 0.00,-1.14e-4 0.01,0 -0.24,0.45 -0.61,1.02 -0.29,0.95 0.13,-0.02 0.31,-0.00 0.38,0.03 0.18,0.11 0.19,0.11 0.34,-0.08 0.09,-0.13 0.15,-0.14 0.26,-0.06 0.10,0.08 0.18,0.07 0.33,-0.02 0.10,-0.07 0.28,-0.14 0.40,-0.14 0.20,0 0.49,-0.30 0.68,-0.63 -0.00,-5.99e-4 -0.02,-0.00 -0.03,-0.00 0.17,-0.27 0.58,-1.25 0.37,-1.04 -0.12,0.12 -0.17,0.21 -0.24,0.10 -0.13,-0.16 -0.21,0.12 -0.36,0.15 -0.11,-0.07 -0.08,-0.16 -0.00,-0.25 0.22,-0.36 0.29,-0.81 0.22,-0.87 -0.00,-0.00 -0.00,-0.00 -0.01,-0.00 z m 12.55,0.24 -1.01,0.09 0.01,0.94 1.00,-0.03 -0.00,-0.99 z m -1.34,0.13 -1.00,0.08 c 0,0.18 0.00,0.53 0.01,0.85 l 1.00,-0.03 -0.00,-0.91 z m 12.02,0.02 -0.00,4.16 c 0.03,1.49 0.08,3.62 0.10,4.73 -0.01,0.28 0.02,1.49 0,1.86 -0.11,-0.03 -0.50,-0.05 -0.55,-0.08 -0.04,-0.04 -0.02,-1.21 -0.02,-2.51 l 0.02,-2.29 c -1.57,0.18 -3.15,0.32 -4.73,0.45 0.02,0.38 -0.27,0.65 -0.53,0.79 0.00,0.09 -0.00,0.23 0.01,0.31 0.14,0.07 0.33,0.21 0.33,0.23 0.30,-0.04 1.17,-0.17 2.26,-0.31 1.47,-0.19 2.06,-0.27 2.44,-0.33 0.00,0.09 0.01,0.18 0.02,0.23 -0.71,0.14 -1.93,0.20 -2.69,0.33 -0.55,0.11 -1.52,0.20 -1.90,0.25 0.07,0.35 -0.11,0.67 -0.48,0.87 0.00,0.06 -0.03,0.17 -0.00,0.28 0.14,0.07 0.30,0.22 0.32,0.22 1.36,-0.18 3.44,-0.64 4.72,-0.82 0.03,0.15 0.05,0.07 0.02,0.21 -0.68,0.09 -2.19,0.39 -2.39,0.42 -0.67,0.12 -2.13,0.36 -2.18,0.37 0.01,0.15 0.07,0.17 0.12,0.26 0.53,-0.10 0.96,-0.18 2.53,-0.47 0.59,-0.10 1.36,-0.25 1.91,-0.35 l 0,0.92 0.01,0.50 c -0.09,-0.01 -3.03,-0.46 -3.09,-0.49 l 0,0.12 3.10,0.50 0.01,0.44 c 0.26,0.03 0.59,0.06 0.73,0.10 l 0.00,0 c 0.20,-0.01 0.48,-0.10 0.71,-0.15 -0.03,-0.35 -0.01,-1.78 -0.01,-2.38 -0.01,-0.62 -0.01,0.14 -0.01,-0.09 l 0,-1.27 -0.00,0 c -0.07,-1.53 0.00,-5.51 0.00,-7.05 l -0.81,0 z m 0.95,0.08 c -0.00,0.10 0.02,0.71 0.03,0.88 0.18,0.05 0.65,0.01 1.02,0.05 0,-0.05 -0.01,-0.21 0.00,-0.28 1.07,0.03 1.79,0.05 3.01,0.07 l 0.02,0.27 c 0.28,-6.92e-4 0.49,0.03 0.69,0.00 -0.00,-0.47 0.00,-0.51 0.00,-0.74 -2.12,-0.12 -4.79,-0.26 -4.80,-0.25 z m 5.29,0.26 0.01,4.88 c 0,1.90 -0.00,3.53 -0.01,4.11 l -0.49,-0.06 0.03,-1.65 -0.11,0.02 0,1.70 0.60,0.06 c 0.18,-0.01 0.49,-0.13 0.60,-0.15 -0.01,-0.24 0.01,-0.99 -0.00,-1.52 0.01,-0.70 -0.02,-2.23 -0.05,-3.67 l -0.03,-3.71 -0.52,0 z m 4.72,0.15 c -0.06,4.46e-4 -0.13,0.00 -0.20,0.01 0.02,0.29 -0.01,3.13 -0.03,4.66 5.76e-4,1.56 0.02,2.71 0.01,3.00 -0.14,-0.00 -0.37,-0.01 -0.44,-0.02 -0.02,-0.17 0.03,-1.09 -0.00,-1.25 -0.04,0.03 -0.01,-0.00 -0.11,0.13 0.00,0.19 0.01,1.05 0.01,1.20 0.20,0.04 0.39,0.03 0.53,0.06 0.20,-0.07 0.41,-0.14 0.54,-0.17 0,-1.46 0.03,-5.38 0.01,-7.63 -0.10,0.00 -0.20,-0.00 -0.31,-0.00 z m 0.47,0.04 0,0.46 c 0.01,-0.00 0.03,-0.00 0.05,-0.00 l 0.13,-0.00 -0.00,-0.17 0.13,0.00 c 0.02,0.00 0.05,0.01 0.09,0.01 0.15,0 0.28,-0.10 0.31,-0.24 l -0.72,-0.04 z M 8.62,28.79 c -0.08,0.00 -0.15,0.12 -0.19,0.35 0.04,0.22 0.03,0.20 -0.12,0.16 -0.10,-0.02 -0.14,0.05 -0.14,0.10 l 0.01,0.13 c 0,0.01 0.01,0.02 0.03,0.02 -0.01,0.00 -0.02,0.01 -0.03,0.01 -0.08,0.11 -0.22,0.11 -0.20,-0.05 -0.00,4.61e-4 -0.00,7.99e-4 -0.00,0.00 -0.01,-0.75 -0.20,-0.67 -0.22,-0.29 -0.00,0.13 0.02,0.26 -0.02,0.39 0.00,0.00 0.01,0.00 0.01,0.01 -0.02,0.12 -0.08,0.26 -0.17,0.23 -0.05,-0.07 -0.06,-0.17 -0.06,-0.27 2.72e-5,-3.83e-4 -2.71e-5,-8.18e-4 0,-0.00 -2.61e-5,-7.92e-4 2.53e-5,-0.00 0,-0.00 0.02,-0.28 6.68e-4,-0.69 -0.10,-0.72 -0.05,0 -0.15,0.06 -0.15,0.22 -0.04,0.16 -0.03,0.32 -0.04,0.51 0.00,1.92e-4 0.00,-1.91e-4 0.00,0 -0.02,0.32 -0.00,0.88 -0.12,0.68 -0.10,-0.18 -0.08,-0.16 -0.21,0.06 -0.07,0.08 -0.18,1.9e-5 -0.18,-0.09 0,-0.09 -0.01,-0.17 -0.02,-0.22 -0.01,-0.04 -0.03,-0.07 -0.06,-0.06 -0.12,0.07 -0.12,0.51 0,0.76 0.07,0.13 0.05,0.22 -0.05,0.31 -0.08,0.06 -0.15,0.09 -0.15,0.04 0,-0.04 -0.10,0.01 -0.21,0.11 -0.21,0.19 -0.22,0.19 -0.14,-0.00 0.22,-0.57 0.18,-0.60 -0.26,-0.17 -0.60,0.58 -0.69,0.54 -0.23,-0.08 0.20,-0.28 0.34,-0.54 0.30,-0.57 -0.03,-0.03 -0.29,0.15 -0.56,0.43 -0.28,0.27 -0.50,0.45 -0.50,0.39 0,-0.05 0.05,-0.15 0.11,-0.21 0.06,-0.06 0.09,-0.16 0.07,-0.22 -0.05,-0.15 -0.94,0.64 -0.97,0.87 -0.09,0.69 -0.09,0.69 0.25,0.67 0.18,-0.00 0.33,0.02 0.33,0.06 0,0.11 -0.30,0.21 -0.42,0.14 -0.05,-0.03 -0.21,0.01 -0.35,0.11 l -0.26,0.17 0.06,-0.28 c 0.07,-0.27 0.06,-0.28 -0.16,-0.11 -0.59,0.42 -0.64,0.42 -0.39,0.02 0.12,-0.20 0.21,-0.39 0.19,-0.41 -0.02,-0.02 -0.26,0.13 -0.53,0.35 -0.67,0.55 -0.79,0.50 -0.22,-0.10 0.46,-0.49 0.59,-0.69 0.34,-0.55 -0.24,0.14 -1.34,1.10 -1.44,1.25 -0.05,0.08 -0.23,0.28 -0.39,0.43 -0.36,0.34 -0.29,0.45 0.18,0.30 0.34,-0.10 0.35,-0.09 0.35,0.14 0,0.08 -0.09,0.20 0,0.25 0.05,-0.03 0.14,-0.07 0.15,-0.14 0.02,-0.08 0.11,-0.06 0.15,-0.12 0.24,-0.20 0.34,-0.24 0.45,-0.14 0.10,0.08 0.17,0.08 0.28,-0.00 0.08,-0.06 0.20,-0.10 0.28,-0.07 0.07,0.02 0.26,-0.01 0.42,-0.10 0.46,-0.23 0.50,0.01 0.11,0.57 -0.18,0.25 -0.37,0.60 -0.41,0.77 -0.07,0.28 -0.06,0.29 0.10,0.15 0.14,-0.11 0.19,-0.12 0.23,-0.02 0.06,0.17 0.33,0.15 0.55,-0.03 0.14,-0.13 0.21,-0.14 0.32,-0.04 0.11,0.09 0.22,0.05 0.53,-0.21 0.74,-0.65 1.24,-0.71 1.26,-0.14 0.01,0.50 0.13,0.85 0.23,0.68 0.06,-0.10 0.12,-0.05 0.21,0.17 0.16,0.38 0.31,0.40 0.46,0.06 0.06,-0.14 0.17,-0.25 0.25,-0.25 0.07,0 0.13,-0.04 0.13,-0.10 0,-0.05 0.08,-0.10 0.19,-0.10 0.14,0 0.23,-0.10 0.29,-0.33 0.05,-0.18 0.09,-0.24 0.10,-0.14 0.00,0.11 0.06,0.16 0.14,0.13 0.07,-0.02 0.23,0.07 0.34,0.22 0.14,0.19 0.29,0.27 0.49,0.27 0.26,-0.00 0.29,-0.03 0.29,-0.38 0,-0.33 -0.09,-0.45 0.04,-0.51 0.03,0.02 0.18,-0.35 0.02,-0.34 -0.06,0.00 -0.04,-0.07 -0.02,-0.12 0,-0.11 -0.04,-0.21 -0.10,-0.21 -0.05,0 -0.10,0.10 -0.10,0.24 0,0.13 -0.07,0.30 -0.16,0.37 -0.13,0.11 -0.17,0.10 -0.27,-0.06 -0.06,-0.11 -0.14,-0.29 -0.18,-0.40 -0.06,-0.18 -0.06,-0.18 -0.07,0.02 -0.01,0.29 -0.15,0.29 -0.39,-0.02 -0.27,-0.34 -0.40,-0.32 -0.45,0.07 -0.03,0.30 -0.04,0.30 -0.11,0.10 -0.10,-0.32 -0.21,-0.28 -0.31,0.10 -0.07,0.30 -0.08,0.28 -0.14,-0.28 -0.06,-0.61 -0.11,-0.60 -0.29,0.05 -0.08,0.32 -0.09,0.28 -0.11,-0.35 -0.01,-0.69 -0.01,-0.70 -0.16,-0.43 -0.21,0.39 -0.25,0.34 -0.17,-0.19 0.04,-0.34 0.03,-0.45 -0.05,-0.40 -0.06,0.03 -0.11,0.15 -0.11,0.24 0,0.09 -0.07,0.26 -0.15,0.37 -0.15,0.19 -0.15,0.18 -0.08,-0.05 L 5.78,32.76 5.46,33.06 c -0.33,0.32 -0.39,0.26 -0.16,-0.14 0.08,-0.14 0.14,-0.33 0.15,-0.44 0,-0.10 -0.15,0.12 -0.35,0.51 -0.34,0.69 -0.86,1.32 -0.86,1.05 0,-0.07 0.13,-0.35 0.30,-0.63 0.52,-0.85 0.37,-0.76 -0.44,0.25 -0.21,0.26 -0.41,0.46 -0.43,0.44 -0.11,-0.11 0.41,-0.99 0.77,-1.27 0.22,-0.18 0.41,-0.39 0.41,-0.47 0,-0.17 0.16,-0.20 0.22,-0.03 0.02,0.07 0.13,0.06 0.33,-0.04 0.16,-0.08 0.51,-0.25 0.76,-0.37 0.29,-0.14 0.51,-0.33 0.59,-0.52 0.12,-0.28 0.13,-0.28 0.37,-0.13 0.13,0.08 0.24,0.12 0.24,0.09 0,-0.03 0.11,0.01 0.25,0.10 0.32,0.21 0.35,0.20 0.35,-0.08 0,-0.34 0.10,-0.56 0.25,-0.56 0.07,0 0.19,-0.20 0.26,-0.45 0.04,-0.15 -0.00,-0.34 0.13,-0.45 0.14,0.04 0.08,0.40 0.22,0.53 l 0.14,-0.24 0.29,0.98 -0.07,-1.01 c 0.12,-0.25 0.04,-0.37 0.07,-0.57 8.86e-4,-0.00 0.00,-0.00 0.00,-0.01 0.03,-0.21 0.01,-0.49 0.02,-0.68 -0.16,0.04 -0.36,0.06 -0.53,0.05 -0.07,-0.08 -0.14,-0.11 -0.19,-0.11 z m 23.55,0.05 c 0.02,2.25 0.00,5.12 0.04,7.37 0.20,-0.03 0.40,-0.07 0.61,-0.10 0.01,-1.49 0.01,-2.99 0.01,-4.50 l 0.01,-2.76 -0.68,0 z m 0.86,0.01 0.00,2.80 c 0.04,1.42 -0.02,2.84 -0.01,4.28 l 0.44,-0.07 c 0.02,-2.34 -0.03,-4.68 -0.04,-7.01 l -0.39,-0.01 z m 0.49,0.00 -0.00,7.12 0.48,-0.11 -0.02,-6.99 -0.45,-0.01 z m 0.57,0.01 -0.00,6.99 0.58,-0.10 0.02,-6.88 -0.59,0 z m -9.90,0.01 -0.11,0.10 0.01,0.41 c 0.22,0.05 0.37,0.32 0.37,0.63 0.35,0.02 0.74,-0.00 1.04,0.00 0.04,0.05 0.03,0.14 0.07,0.18 -0.27,0.00 -0.85,-0.02 -1.17,-0.01 -0.03,0.09 -0.10,0.29 -0.35,0.35 0.00,0.05 0.01,0.15 0.00,0.25 0.34,0.06 0.55,0.38 0.55,0.58 0.23,-0.00 0.50,-0.02 0.85,-0.00 0.03,0.02 0.07,0.06 0.11,0.10 -0.43,0.02 -0.82,0.02 -0.98,0.04 -0.01,0.22 -0.17,0.47 -0.47,0.61 0.03,0.12 0.00,0.15 -0.02,0.21 0.29,0.16 0.39,0.29 0.44,0.44 0.28,-0.01 0.68,-0.02 0.96,-0.05 0.09,0.06 0.12,0.08 0.17,0.15 -0.30,0.03 -0.80,0.05 -1.04,0.08 0.02,0.20 -0.12,0.44 -0.44,0.63 0.30,0.13 0.38,0.35 0.45,0.46 0.46,-0.02 1.35,-0.13 1.89,-0.16 1.92,-0.15 2.64,-0.23 2.84,-0.24 0.00,-1.46 0.00,-2.62 0.00,-4.08 l -1.66,0 c 0,0.43 0.00,0.72 0.00,1.16 0.44,3.85e-4 0.89,0.00 1.34,0.00 l 0.00,0.19 -1.35,0.01 0,1.08 1.40,-0.08 0.01,0.29 -1.42,0.04 0.02,1.08 c 0.42,0.01 0.97,-0.06 1.33,-0.13 0.04,0.09 0.01,0.23 0.03,0.32 -0.25,0.02 -0.56,0.03 -1.31,0.10 -0.66,0.01 -1.32,0.06 -1.98,0.14 0.00,-0.18 -0.05,-0.83 -0.07,-2.08 l -0.05,-2.41 3.71,0.02 -0.00,-0.33 -5.22,-0.14 z m -5.01,0.13 -1.00,0.02 0.00,0.47 c -7.84e-4,0 -0.00,0 -0.00,0 3.07e-4,0.13 0.00,0.34 0.01,0.58 l 1.01,-0.02 -0.02,-0.44 0.00,0 -0.00,-0.61 z m 11.76,0.02 c -0.03,-2.3e-4 -0.06,7.6e-5 -0.09,0.00 -0.00,0.08 -0.02,0.82 -0.01,0.93 0.10,-7.65e-4 0.55,-0.02 0.76,-0.00 0.01,0.03 0.01,0.12 0.02,0.20 -0.08,-0.01 -0.70,9.7e-4 -0.78,-0.01 0,0.34 0.00,0.71 0.00,1.01 0.26,-0.00 0.57,-0.00 0.85,-0.00 -0.00,0.03 0.01,0.13 -0.01,0.17 -0.16,0.01 -0.61,0.01 -0.86,0.04 0,0.38 0.01,0.70 0.02,1.00 0.16,0 0.69,-0.00 0.89,-0.01 0,0.04 0.03,0.11 0.03,0.16 -0.13,0.00 -0.78,0.05 -0.92,0.06 -0.00,0.09 0.00,0.82 0,0.98 0.21,-0.02 0.45,-0.02 0.73,-0.00 0.00,0.04 0.02,0.06 0.02,0.10 -0.18,0.01 -0.56,0.02 -0.75,0.04 -0.00,0.17 -3.84e-4,1.00 0,1.17 0.30,-0.00 0.71,-0.06 0.85,-0.07 0.01,0.03 6.41e-4,0.09 -0.02,0.12 -0.15,0.02 -0.60,0.08 -0.85,0.09 l 0.01,1.06 c 0.31,-0.02 0.54,-0.07 0.79,-0.10 -0.00,0.10 -0.00,0.03 -0.00,0.16 -0.17,0 -0.59,0.08 -0.80,0.12 0,0.11 0.01,0.00 0,0.20 0.34,-0.07 0.69,-0.16 1.06,-0.24 -0.00,-0.69 0.02,-1.52 0.01,-2.11 -0.01,-0.97 -0.02,-1.98 -0.02,-2.12 l -0.01,-2.96 c -0.27,0.00 -0.70,-0.02 -0.94,-0.02 z m -13.10,0.00 -1.00,0.02 c 0.00,0.12 0.00,0.29 0.00,0.43 l -0.00,0 c 0,0.17 4.42e-4,0.38 0.00,0.61 l 1.01,-0.02 c -3.45e-4,-0.22 -0.00,-0.43 -0.01,-0.59 l -0.00,0 0.00,-0.45 z m 23.88,0.02 c -0.14,0 -0.28,0.08 -0.31,0.25 l -0.11,-0.00 0,0.57 c 0.02,-0.00 0.05,-0.00 0.07,-0.01 l 0.13,-0.00 -0.00,-0.17 0.13,0.00 c 0.02,0.00 0.05,0.01 0.08,0.01 0.17,0 0.32,-0.14 0.32,-0.32 0,-0.17 -0.14,-0.32 -0.32,-0.32 z m -6.83,0.07 0.01,0.92 0.75,-0.00 -0.03,-0.90 -0.73,-0.00 z m 1.89,0.03 0.01,0.86 0.67,0.03 0,0.09 -0.65,0 -0.03,0.93 0.71,-0.03 0.01,0.09 -0.71,0.03 -0.01,0.93 0.73,-0.01 0,0.07 -0.71,0.04 -0.01,0.87 3.10,-0.34 0.01,0.12 -3.12,0.32 0.01,0.92 3.12,-0.43 -0.03,0.12 -3.09,0.42 0,1.08 3.37,-0.56 -0.01,-2.21 -2.51,0.22 0,-3.39 2.50,0.03 0,-0.16 -3.36,-0.09 z m -16.24,0.04 c 0.07,1.8e-5 0.14,8.52e-4 0.17,0.00 -0.06,0.05 -0.09,0.15 -0.07,0.29 -0.00,2.68e-4 -0.00,-2.69e-4 -0.00,0 -0.01,0.16 0.09,0.31 0.20,0.46 -0.11,0.00 -0.70,0.02 -0.95,0.02 -0.01,-0.11 -0.03,-0.37 -0.02,-0.49 -6.83e-4,-8e-6 -5.22e-4,8e-6 -0.00,0 0.00,-0.11 0.01,-0.23 0.01,-0.26 0.07,-0.01 0.43,-0.02 0.66,-0.02 z m -4.40,0.04 c 0.02,1.53e-4 0.04,0.00 0.06,0.00 8.44e-4,0.03 0.01,0.24 0,0.39 0.00,3.9e-5 0.01,-3.7e-5 0.01,0 -2.68e-4,0.14 -8.44e-4,0.31 -0.00,0.47 -0.28,0.01 -0.64,-0.05 -2.84,0.02 -0.19,0.00 -0.89,0.03 -1.50,0.01 l -1.15,0.04 0.22,-0.28 c 0.07,-0.16 0.22,-0.33 0.56,-0.40 -0.06,-8.06e-4 -0.12,-0.00 -0.16,-0.00 0.04,-0.02 0.09,-0.02 0.16,-0.03 0.34,-0.12 1.09,-0.11 1.57,-0.12 0.44,-0.02 1.36,-0.04 2.01,-0.06 0.55,-0.03 0.89,-0.05 1.06,-0.05 z m -5.90,0.13 c 0.11,-0.00 0.23,0.04 0.33,0.15 -0.00,-5.48e-4 -0.01,-5.98e-4 -0.02,-0.00 0.17,0.17 0.11,0.48 -0.07,0.60 -0.14,0.07 -0.33,0.07 -0.46,-0.02 -0.10,-0.09 -0.20,-0.21 -0.13,-0.39 0.03,-0.12 0.10,-0.15 0.17,-0.22 -0.01,0.00 -0.03,0.00 -0.05,0.00 0.07,-0.06 0.15,-0.10 0.23,-0.10 z m 15.74,0.17 c 0.04,0.85 0.05,1.70 0.07,2.55 l 1.40,-0.07 -0.01,-1.07 -1.22,0.02 c -0.01,-0.08 0.01,-0.16 -0.02,-0.21 0.41,-0.02 0.82,-0.01 1.25,-0.00 l -0.00,-1.18 -1.48,-0.01 z m 11.82,0.00 0,0.90 0.98,-0.01 -0.01,-0.87 c 0,0 -0.98,1.16e-4 -0.97,-0.01 z m 2.35,0.01 -0.20,0.02 -0.01,2.82 0.23,-0.02 -0.00,-2.82 z m -37.47,0.01 c -0.18,0 -0.47,0.31 -0.47,0.48 0,0.06 -0.15,0.24 -0.33,0.39 -0.66,0.53 -0.89,0.76 -0.89,0.90 0,0.08 0.06,0.12 0.19,0.09 0.10,-0.02 0.22,0.00 0.26,0.07 0.04,0.07 0.17,0.09 0.34,0.05 0.14,-0.03 0.41,-0.06 0.60,-0.05 0.18,0.00 0.43,-0.06 0.55,-0.14 0.15,-0.10 0.26,-0.12 0.39,-0.05 0.14,0.07 0.26,0.05 0.46,-0.08 0.15,-0.10 0.36,-0.23 0.47,-0.29 0.32,-0.17 0.30,-0.34 -0.03,-0.34 -0.16,0 -0.31,-0.04 -0.31,-0.10 0,-0.06 -0.05,-0.07 -0.11,-0.03 -0.08,0.05 -0.09,-0.03 -0.04,-0.30 l 0.07,-0.38 -0.42,0.40 c -0.64,0.61 -0.95,0.63 -0.34,0.01 0.27,-0.27 0.43,-0.50 0.36,-0.50 -0.12,0 -0.67,0.35 -0.87,0.56 -0.05,0.05 -0.18,0.16 -0.28,0.24 -0.16,0.12 -0.17,0.12 -0.05,-0.15 0.06,-0.16 0.21,-0.38 0.38,-0.53 0.08,-0.08 0.15,-0.23 0.08,-0.23 z m 37.12,0.00 -0.89,0.00 0,0.86 0.90,0.01 -0.00,-0.88 z m 1.89,0.28 c -0.15,0 -0.29,0.08 -0.31,0.26 l -0.07,-0.00 0,0.64 c 0.00,-0.00 0.01,-0.00 0.02,-0.00 0.06,-0.01 0.13,-0.01 0.18,-0.01 l -0.00,-0.24 0.11,0.00 c 0.02,0.00 0.04,0.00 0.07,0.00 0.01,0 0.03,-0.00 0.05,-0.00 0.15,-0.02 0.26,-0.16 0.26,-0.32 0,-0.17 -0.14,-0.32 -0.32,-0.32 z m -6.78,0.28 0.01,0.95 0.76,-0.00 -0.01,-0.93 -0.76,-0.00 z m -15.69,0.06 -1.01,0.01 c 0.01,0.34 0.01,0.70 0.01,0.97 l 1.03,0 -0.03,-0.98 z m -1.36,0.02 -1.00,0.01 c 0.00,0.29 0.00,0.60 0.01,0.89 0.19,0.01 0.84,0.03 1.00,0.03 -0.01,-0.30 -0.01,-0.63 -0.01,-0.94 z m -7.55,0.20 c 0.20,0.00 0.37,0.08 0.37,0.27 l 0,0.13 c 0,0.32 -0.47,0.42 -0.65,0.21 -0.19,-0.23 -0.12,-0.58 0.18,-0.62 0.02,-0.00 0.05,-0.00 0.08,-0.00 z m 29.52,0.14 -0.91,0.00 0,0.86 0.91,-0.02 0,-0.84 z m -31.19,0.00 c -0.04,-0.00 -0.00,0.18 0.12,0.50 0.18,0.43 0.18,0.43 0.04,0.43 -0.05,0 -0.14,-0.10 -0.20,-0.22 -0.08,-0.19 -0.09,-0.17 -0.06,0.12 0.02,0.19 0.07,0.43 0.11,0.53 0.04,0.10 0.03,0.17 -0.02,0.17 -0.05,0 -0.14,-0.13 -0.20,-0.30 -0.16,-0.48 -0.23,-0.35 -0.16,0.33 0.05,0.59 0.05,0.61 -0.09,0.43 C 8.06,32.55 7.96,32.28 7.93,32.07 7.86,31.64 7.79,31.65 7.62,32.13 L 7.51,32.45 7.25,31.91 C 7.04,31.46 6.99,31.40 6.96,31.60 c -0.01,0.13 -0.10,0.24 -0.18,0.24 -0.18,0 -0.25,0.38 -0.11,0.63 0.09,0.16 0.11,0.16 0.17,-0.05 0.10,-0.37 0.23,-0.25 0.26,0.25 0.02,0.40 0.06,0.48 0.23,0.48 0.11,0 0.30,0.10 0.43,0.22 0.25,0.25 0.42,0.29 0.43,0.10 0,-0.07 0.11,-0.00 0.24,0.15 0.13,0.15 0.27,0.28 0.30,0.28 0.02,0 0.05,-0.16 0.05,-0.35 0,-0.40 0.22,-0.49 0.39,-0.16 -0.03,-0.59 -0.30,-0.80 0.10,-0.82 -0.04,-0.11 0.00,-0.19 0.10,-0.22 C 9.08,32.04 9.24,31.78 9.33,31.70 9.31,31.61 9.24,31.49 9.17,31.44 9.10,31.38 8.94,31.15 8.83,30.93 8.73,30.74 8.66,30.65 8.63,30.65 z m 30.14,0.00 c 0,0 -0.98,0.01 -0.97,0.01 l -0.01,0.92 0.98,-0.06 0,-0.87 z m -25.33,0.16 c 1.02,-2.9e-5 2.10,0.00 2.79,0.00 l -0.00,0.66 -0.05,-0.00 0.02,0.09 c 0.41,0.03 1.77,0.07 2.31,0.07 0.50,0.02 0.69,0.01 0.83,0.02 l 0.01,0.19 c -0.42,0.03 -2.55,-0.03 -3.25,-0.09 l 0.00,-0.19 -0.01,-0.10 -0.55,-0.01 c -1.88,-0.05 -4.51,-0.15 -4.80,-0.16 0.13,-0.11 0.29,-0.29 0.26,-0.48 0.44,-0.00 1.41,-0.00 2.43,-0.00 z m 28.25,0.00 c -0.16,0 -0.29,0.11 -0.29,0.35 l -0.10,-0.01 0,0.53 c 0.01,-0.01 0.03,-0.02 0.05,-0.03 l 0.14,-0.02 0.00,-0.16 0.25,0.00 -0.00,-0.00 c 0.15,-0.02 0.27,-0.16 0.27,-0.32 0,-0.17 -0.14,-0.32 -0.32,-0.32 z m -6.05,0.44 -0.72,0.02 -0.02,0.98 0.75,-0.03 0,-0.97 z m 4.18,0.31 -0.90,0.06 0.01,0.92 0.89,-0.07 0,-0.90 z m -29.50,0.02 c 0.06,-9.1e-4 0.13,0.01 0.20,0.04 0.26,0.08 0.27,0.39 0.17,0.53 l -0.13,0.14 c -0.26,0.14 -0.48,0.05 -0.63,-0.13 -0.15,-0.18 0.05,-0.58 0.40,-0.58 z m 31.40,0.03 c -0.17,0 -0.33,0.09 -0.31,0.37 0,0.01 -0.02,0.01 -0.06,0.00 l 0,0.53 c 0.02,-0.01 0.05,-0.02 0.08,-0.02 l 0.11,-0.03 0,-0.20 0.13,0.00 c 0.03,0.00 0.06,0.00 0.09,0 l 0.00,0 0,-0.00 c 0.15,-0.02 0.27,-0.16 0.27,-0.32 0,-0.17 -0.14,-0.32 -0.32,-0.32 z m -2.93,0.02 -0.98,0.04 0,0.94 0.98,-0.06 0,-0.92 z m -4.36,0.45 c 0.06,0 0.11,0.05 0.11,0.12 0,0.06 -0.05,0.12 -0.11,0.12 -0.06,0 -0.11,-0.05 -0.11,-0.12 0,-0.06 0.05,-0.12 0.11,-0.12 z m -6.98,0.23 c -0.46,0 -0.94,0.08 -1.39,0.06 0.04,0.18 0.02,0.86 0.05,1.14 0.45,-0.01 0.90,-0.04 1.35,-0.06 l -0.01,-1.14 z m 8.20,0.01 -0.74,0.05 0.00,0.89 0.74,-0.06 -0.00,-0.88 z m 6.02,0.19 c -0.17,0 -0.32,0.14 -0.32,0.32 0,0.00 4.22e-4,0.01 0.00,0.02 l -0.04,0.00 -0.01,-0.00 0,0.55 c 0.01,-0.00 0.03,-0.01 0.05,-0.02 l 0.14,-0.01 -0.01,-0.18 c 0.03,-0.00 0.16,-0.01 0.19,-0.00 0.17,0 0.31,-0.17 0.31,-0.35 0,-0.17 -0.14,-0.32 -0.32,-0.32 z M 10.36,32.57 c 0.11,-7.6e-5 0.23,0.04 0.32,0.14 0.09,0.11 0.21,0.27 0.14,0.40 l -0.11,0.17 c -0.13,0.14 -0.42,0.21 -0.65,0.04 C 9.90,33.23 9.87,32.97 9.97,32.79 c 0.07,-0.14 0.23,-0.22 0.38,-0.22 z m 25.29,0.79 -0.73,0.05 -0.00,0.99 0.72,-0.09 0.01,-0.95 z m 6.03,0.04 c -0.17,0 -0.32,0.14 -0.32,0.32 l -0.06,0.00 0,0.31 c 0.01,0.00 0.02,0.00 0.04,0.00 -0.01,0.00 -0.03,0.00 -0.04,0.00 l 0,0.23 c 0.07,-0.03 0.14,-0.04 0.19,-0.06 l 0.00,-0.18 c 0.06,0.00 0.11,0.00 0.19,0.00 0.17,0 0.32,-0.14 0.32,-0.32 0,-0.17 -0.14,-0.32 -0.32,-0.32 z m -31.33,0.22 c 0.14,0.00 0.30,0.07 0.38,0.21 0.15,0.29 -0.00,0.44 -0.10,0.51 -0.22,0.16 -0.43,0.11 -0.59,-0.03 -0.17,-0.17 -0.07,-0.54 0.08,-0.63 0.05,-0.04 0.14,-0.06 0.23,-0.05 z m 0.70,0.55 c 0.32,0.04 1.13,0.04 1.83,0.10 0.72,0.05 1.78,0.18 2.31,0.26 1.31,0.20 3.56,0.46 4.51,0.54 0.30,0.03 0.88,0.11 1.16,0.11 0.01,-0.44 0.46,-0.47 0.80,-0.51 0.18,-0.01 0.43,-0.09 0.58,-0.04 0.26,0.09 0.31,0.46 0.69,0.59 0,0.04 -0.40,0.09 -0.63,0.13 -0.20,-0.08 -0.17,-0.44 -0.49,-0.52 -0.04,0.03 0.01,0.12 0.08,0.17 0.19,0.19 0.27,0.35 0.07,0.63 -0.23,0.37 -0.83,0.22 -0.94,0.02 -0.11,-0.14 -0.16,-0.29 -0.16,-0.29 -0.11,0.03 -0.06,0.26 -0.03,0.34 0.05,0.12 0.11,0.28 0.18,0.35 -1.02,-0.09 -1.86,-0.26 -2.81,-0.38 -0.47,-0.03 -1.12,-0.19 -1.51,-0.25 -0.98,-0.11 -1.90,-0.20 -2.84,-0.37 -0.71,-0.13 -2.52,-0.35 -2.89,-0.35 -0.22,0 -0.42,-0.04 -0.51,-0.10 0.31,-0.12 0.54,-0.29 0.57,-0.45 z m 30.62,0.03 c -0.17,0 -0.32,0.14 -0.32,0.32 0.15,-0.01 0.41,-0.05 0.63,-0.10 0,-0.17 -0.13,-0.21 -0.31,-0.21 z m -6.04,0.22 -0.73,0.09 0,1.17 0.71,-0.14 0.01,-1.12 z m 5.71,0.21 c -0.01,3.85e-4 -0.02,0.00 -0.02,0.00 l 0.07,0.12 2.24,0.12 -0.01,-0.11 c 0,0 -2.03,-0.14 -2.27,-0.14 z m -30.87,0.18 c 0.09,8.94e-4 0.17,0.02 0.22,0.09 0.14,0.19 0.15,0.35 0.08,0.47 -0.18,0.34 -0.77,0.32 -0.74,-0.25 0,-0.18 0.23,-0.31 0.43,-0.31 z m 34.41,0.03 0,0.09 1.83,0.14 -0.74,0.21 0.00,0.17 1.06,-0.26 -0.00,-0.21 -0.04,0.01 c -0.06,-0.00 -2.11,-0.12 -2.11,-0.15 z m 0.95,0.49 -1.06,0.30 0.00,0.17 1.06,-0.26 -0.00,-0.21 z m -4.50,0.14 c -0.01,-3.47e-4 -0.03,0 -0.02,0.00 l 0.06,0.10 2.55,0.12 0.15,-0.06 c 0,0 -2.44,-0.16 -2.74,-0.17 z m -4.37,0.11 0.07,0.09 2.70,0.17 -0.04,-0.09 c 0,0 -2.75,-0.15 -2.74,-0.17 z m 7.64,0.09 -1.08,0.27 -0.02,0.20 0.27,-0.06 -0.00,0.40 0.19,0.03 0.15,0.15 0.08,0.19 0.01,0.56 -0.34,-0.03 0,-0.59 -0.07,-0.02 -0.01,0.66 0.42,0.07 0.50,-0.20 0.01,-1.57 -0.12,0.03 0.00,-0.10 z m -34.16,0.13 c 0.48,0 0.50,0.47 0.36,0.63 l 0,0.00 c -0.10,0.15 -0.40,0.20 -0.62,-0.00 -0.20,-0.20 -0.04,-0.63 0.25,-0.63 z m 34.66,0.00 -0.29,0.06 -0.03,0.87 0.45,-0.06 0.26,-0.06 0.21,-0.18 0.40,-0.04 0.39,-0.26 -0.01,-0.15 -0.56,-0.04 -0.34,-0.09 -0.48,-0.01 z m -1.75,0.18 -1.06,0.27 0.00,0.20 1.06,-0.26 -0.00,-0.21 z m -9.77,0.12 0.07,0.11 1.62,0.12 0.14,-0.10 -1.84,-0.12 z m 10.13,0.04 -2.52,0.70 0.03,1.17 0.36,-0.04 0.34,-0.20 0.26,-0.12 0.18,-0.01 0.35,-0.15 0.04,-0.09 0.17,-0.06 0.25,-0.01 0.32,-0.14 0.18,-0.17 -0.01,-0.84 z m -1.61,0.14 -1.06,0.27 0.00,0.16 -0.15,0.04 -0.01,-0.16 -1.09,0.28 0.00,0.23 0.21,-0.05 0.01,0.45 0.12,0.16 0.17,0.11 0.29,0.10 0,0.70 -0.27,-0.04 -0.17,-0.07 -0.07,-0.21 0.00,-0.36 -0.08,-0.01 -0.00,0.74 0.61,0.09 0.50,-0.18 0,-1.78 0.98,-0.25 -0.00,-0.22 z m -5.04,0.05 0.01,0.09 2.99,0.20 0.18,-0.06 c 0,0 -3.18,-0.20 -3.19,-0.23 z m -25.42,0.17 c 0.01,-3.84e-4 0.04,7.61e-4 0.06,0.00 0.34,0.06 1.22,0.21 1.58,0.26 0.36,0.05 0.88,0.16 1.17,0.24 0.28,0.07 0.89,0.19 1.35,0.25 0.46,0.06 1.06,0.18 1.32,0.26 0.66,0.20 1.56,0.44 2.73,0.59 0.36,0.04 0.84,0.16 0.99,0.18 0.01,-0.14 0.08,-0.35 0.21,-0.44 0.16,-0.11 0.39,-0.20 0.89,-0.22 0.39,-0.02 0.58,0.01 0.84,0.22 -0.14,0.04 -0.48,0.14 -0.58,0.15 -0.09,-0.02 -0.15,-0.03 -0.24,-0.02 0.03,0.06 0.06,0.15 0.10,0.27 0.11,0.52 -0.65,0.88 -1.02,0.44 -0.13,-0.25 -0.22,-0.08 -0.15,0.16 0.13,0.28 0.29,0.35 0.64,0.32 0.19,0 0.33,0.05 0.43,0.16 0.07,0.05 0.22,0.07 0.33,0.11 l 0.00,0.00 c 0.14,0.01 0.46,0.25 0.56,0.39 0.10,0.13 0.15,0.19 0.13,0.22 -0.09,0.09 -0.23,-0.04 -0.41,-0.01 -0.23,0.04 -0.25,0.01 -0.25,-0.25 0.00,-0.07 -0.00,-0.15 -0.04,-0.20 -0.05,-0.07 -0.13,-0.09 -0.21,-0.11 0.03,0.08 0.05,0.19 0.04,0.31 -0.01,0.20 -0.16,0.47 -0.42,0.51 -0.55,0.08 -0.71,-0.22 -0.72,-0.25 -0.04,-0.10 -0.14,-0.30 -0.06,-0.48 0.04,-0.12 0.13,-0.21 0.24,-0.28 l -0.48,-0.13 c -1.18,-0.31 -2.05,-0.51 -2.85,-0.64 -0.44,-0.07 -0.98,-0.20 -1.18,-0.28 -0.20,-0.07 -0.87,-0.26 -1.47,-0.41 -2.27,-0.54 -3.57,-0.89 -4.15,-1.02 0.15,-0.08 0.32,-0.30 0.62,-0.30 z m 19.97,0.08 c 0.03,0.01 -0.23,0.07 -0.23,0.07 l 3.44,0.34 -0.01,-0.10 -3.19,-0.31 z m -21.12,0.14 c 0.15,-8.9e-4 0.29,0.05 0.32,0.26 0.12,0.58 -0.63,0.49 -0.70,0.20 -0.09,-0.15 0.03,-0.47 0.31,-0.46 0.02,-0.00 0.04,-0.00 0.06,-0.00 z m 29.11,0.21 -1.20,0.31 0,0.25 1.21,-0.32 -0.00,-0.24 z m -8.25,0.15 0.10,0.09 4.80,0.50 0.14,-0.07 -5.05,-0.52 z m 8.61,0.09 -3.13,0.86 0.06,1.53 0.64,-0.32 0.01,-0.09 0.14,-0.07 0.15,0.04 0.50,-0.25 0.28,-0.06 0.31,-0.07 0.20,-0.26 0.32,0.04 0.25,-0.12 0.21,-0.03 0.01,-1.17 z m -1.74,0.09 -1.17,0.32 -0.00,0.28 1.20,-0.32 -0.02,-0.27 z m -11.05,0.09 -0.25,0.06 1.83,0.26 -0.09,-0.11 -1.48,-0.21 z m 3.71,0.12 0,0.09 3.99,0.47 0.03,-0.12 -4.02,-0.43 z m 5.98,0.14 -1.20,0.32 -0.00,0.22 -0.12,0.03 -0.00,-0.20 -1.25,0.33 -0.00,0.29 1.28,-0.34 0,0.56 c 0.18,0.12 0.42,0.22 0.56,0.51 -0.00,0.28 -0.01,0.56 -0.01,0.84 -0.23,-0.05 -0.40,-0.16 -0.43,-0.39 -0.01,-0.14 -0.02,-0.28 -0.03,-0.42 -0.02,-0.03 -0.05,-0.06 -0.07,-0.09 l 0,0.95 c 0.17,0.05 0.35,0.11 0.53,0.17 l 0.68,-0.31 -0.02,-2.15 0.13,-0.03 -0.00,-0.28 z m -5.98,0.29 0.09,0.11 2.56,0.34 0.06,-0.07 -2.72,-0.37 z m -5.95,0.01 -0.18,0.07 4.16,0.73 -0.11,-0.15 -3.86,-0.65 z m 10.55,0.43 -4.68,1.31 -0.01,1.70 0.73,0 0.45,-0.26 0.31,-0.20 0.23,0 0.51,-0.21 0.09,-0.18 0.37,-0.01 0.68,-0.20 0.47,-0.10 0.09,-0.15 0.23,-0.01 0.45,-0.26 0.03,-1.37 z m -1.39,0.00 -1.22,0.32 -0.00,0.32 1.23,-0.35 0,-0.29 z m -3.16,0.05 -0.04,0.14 1.60,0.23 -1.05,0.27 0.01,0.31 1.24,-0.33 0.01,-0.31 -0.07,0.01 0.06,-0.04 -1.76,-0.29 z" id="path2991" style="fill:#000000" />
</svg>
