<?xml version="1.0" encoding="UTF-8" standalone="no"?>
<!-- Created with Inkscape (http://www.inkscape.org/) -->
<svg xmlns:dc="http://purl.org/dc/elements/1.1/" xmlns:cc="http://creativecommons.org/ns#" xmlns:rdf="http://www.w3.org/1999/02/22-rdf-syntax-ns#" xmlns:svg="http://www.w3.org/2000/svg" xmlns="http://www.w3.org/2000/svg" version="1.1" width="100%" height="100%" viewBox="0 0 48 48" id="svg2">
<defs id="defs30" />
<path d="m 10.84,6.47 c -0.02,0.00 -0.05,0.01 -0.07,0.01 -0.40,0.10 -0.63,0.48 -0.80,0.83 -1.45,1.81 -2.97,3.58 -4.33,5.47 -1.64,2.20 -3.09,4.54 -4.59,6.84 -0.08,0.17 -0.35,0.31 -0.29,0.53 0.13,0.41 0.57,0.59 0.91,0.81 0.53,0.30 1.09,0.60 1.69,0.74 0.31,0.33 0.16,0.82 0.18,1.24 -0.01,3.98 0.11,7.96 0.08,11.94 0.74,0.55 1.62,0.87 2.47,1.23 1.85,0.66 3.78,1.09 5.66,1.68 3.20,0.92 6.41,1.88 9.66,2.66 0.80,0.17 1.59,0.39 2.40,0.52 0.33,0.04 0.66,0.02 0.99,-0.00 0.08,0.11 0.32,0.39 0.40,0.13 0.10,-0.23 0.37,-0.29 0.60,-0.27 0.64,-0.02 1.27,-0.21 1.89,-0.39 5.37,-1.39 10.74,-2.79 16.13,-4.15 0.16,-0.11 0.44,0.04 0.56,-0.16 -0.01,-0.25 -0.14,-0.50 -0.09,-0.77 -0.01,-1.22 0.06,-2.45 0.07,-3.67 0.05,-2.35 0.10,-4.71 0.16,-7.06 -0.09,-0.18 0.23,-0.36 0.34,-0.18 0.45,0.20 0.90,0.51 1.14,0.97 -0.05,-0.17 0.18,-0.41 0.34,-0.25 0.12,0.20 0.16,0.48 0.36,0.63 0.20,-0.19 0.02,-0.48 -0.06,-0.69 -0.58,-1.62 -1.11,-3.28 -1.97,-4.79 -1.23,-1.94 -1.73,-2.31 -1.98,-2.94 -0.25,-0.62 -1.16,-1.66 -1.79,-2.46 -0.92,-1.13 -1.95,-2.19 -3.14,-3.06 -0.89,-0.55 -1.97,-0.58 -2.98,-0.73 -2.17,-0.26 -4.33,-0.58 -6.49,-0.92 -0.02,-0.01 -0.05,-0.02 -0.08,-0.01 C 27.02,9.98 25.81,9.78 24.61,9.57 21.80,9.08 18.99,8.56 16.20,7.99 15.14,7.77 14.08,7.53 13.03,7.26 12.30,7.00 11.64,6.47 10.84,6.47 z m 1.28,1.76 c 0.05,-3.23e-4 0.10,0.00 0.16,0.02 1.02,0.23 2.05,0.47 3.08,0.69 -1.00,0.60 -1.88,1.40 -2.84,2.08 -1.21,0.94 -2.49,1.80 -3.68,2.78 -0.29,1.05 1.00,1.13 1.00,1.27 -0.00,0.29 0.00,0.59 -0.03,0.86 -0.04,1.42 -0.17,2.87 0.03,4.28 0.48,0.77 1.64,0.75 2.42,1.12 2.60,0.79 5.23,1.49 7.86,2.21 0.16,-0.04 0.29,-0.12 0.38,-0.23 0.12,-0.02 0.23,-0.11 0.33,-0.19 0.13,-0.11 0.22,-0.27 0.34,-0.40 0.24,-0.27 0.49,-0.53 0.74,-0.80 0.14,-0.17 0.28,-0.34 0.40,-0.54 0.71,-1.07 1.43,-2.13 2.13,-3.21 0.35,-0.58 0.63,-1.20 0.92,-1.82 0.46,-0.99 0.90,-1.99 1.35,-2.99 0.04,-0.11 0.11,-0.23 0.15,-0.35 l -0.01,0.02 -6.19,9.94 c 0.14,-0.57 -0.05,-1.42 0.10,-1.95 0.08,-1.32 -0.20,-2.55 -0.06,-3.87 0.03,0.07 0.94,0.10 1.47,-0.47 1.18,-1.29 2.86,-2.77 3.69,-3.61 0.96,-0.80 1.24,-1.03 1.89,-1.59 l -0.43,0.72 c 0.18,-0.26 0.35,-0.53 0.52,-0.80 0.15,-0.13 0.30,-0.27 0.52,-0.46 3.59e-4,-0.01 6.47e-4,-0.03 0,-0.05 2.30,0.29 4.60,0.58 6.91,0.88 0.20,-0.12 0.46,0.23 0.24,0.36 -1.34,1.29 -2.54,2.70 -3.82,4.06 -2.86,3.14 -5.61,6.39 -8.01,9.90 -0.09,0.19 -0.30,0.39 -0.53,0.31 -0.41,-0.06 -0.79,-0.28 -1.21,-0.34 C 16.19,24.56 10.39,23.09 4.61,21.51 L 1.34,20.63 C 1.12,20.51 1.21,20.19 1.38,20.06 3.76,17.29 6.11,14.50 8.23,11.52 9.25,10.21 10.57,9.15 11.96,8.26 c 0.05,-0.01 0.10,-0.02 0.15,-0.02 z M 15.68,8.94 c 1.58,0.33 3.18,0.62 4.78,0.84 2.20,0.29 4.42,0.56 6.63,0.84 -0.29,0.16 -0.57,0.38 -0.71,0.50 -2.07,1.54 -3.14,3.43 -5.16,5.04 -0.78,0.13 -3.19,-0.45 -3.96,-0.59 -1.94,-0.50 -5.17,-0.98 -7.11,-1.51 -0.36,-0.71 0.90,-1.12 1.36,-1.52 1.03,-0.67 1.66,-1.81 2.72,-2.46 0.49,-0.37 0.96,-0.75 1.44,-1.14 z m 21.14,3.35 c 0.01,-0.00 0.02,-7.37e-4 0.03,0 1.42,0.98 2.44,2.41 3.49,3.75 0.99,1.27 1.93,2.58 2.89,3.88 0.04,0.01 0.08,0.03 0.05,0.04 l 0.21,0.35 c 0.21,0.36 1.79,3.37 2.00,3.73 -0.20,-0.05 -1.20,-0.74 -1.82,-1.13 -0.01,-0.14 -0.05,-0.27 -0.11,-0.40 -0.35,-0.96 -0.55,-1.02 -1.67,-2.61 -0.80,-1.15 -1.62,-2.30 -2.45,-3.43 -0.67,-0.91 -1.33,-1.83 -2.07,-2.69 -0.22,-0.25 -0.44,-0.52 -0.68,-0.76 -0.10,-0.10 -0.22,-0.20 -0.34,-0.28 0.04,-0.04 0.09,-0.09 0.13,-0.14 0.12,-0.08 0.17,-0.29 0.34,-0.31 z m -0.74,0.74 c 0.04,0.01 0.08,0.03 0.12,0.06 0.48,0.45 0.92,0.95 1.34,1.47 0.30,0.38 0.61,0.77 0.90,1.17 0.44,0.58 0.87,1.18 1.31,1.78 1.14,1.60 2.27,3.23 3.33,4.90 0.04,0.07 0.08,0.14 0.13,0.21 -4.3e-5,0.00 0,0.02 0,0.03 0.00,0.00 0.01,0.01 0.02,0.01 0.01,0.02 0.02,0.03 0.04,0.05 0.07,3.91 0.10,7.83 0.04,11.75 0.08,0.18 -0.03,0.46 -0.26,0.45 -3.21,0.81 -6.41,1.70 -9.60,2.62 -0.02,-1.64 -0.04,-3.29 -0.02,-4.94 0.03,-1.18 0.12,-2.37 0.18,-3.56 0.02,-0.44 0.04,-0.88 0.06,-1.32 -0.06,-0.99 -0.09,-1.98 -0.11,-2.98 -0.02,-0.29 0.00,-0.61 -0.09,-0.89 0.05,-0.22 0.00,-0.63 -0.24,-0.60 -0.72,0.20 -1.45,0.44 -2.18,0.63 -0.90,0.25 -1.83,0.46 -2.75,0.68 -0.01,0.01 -0.02,0.03 -0.03,0.05 -5.03e-4,7.98e-4 -0.00,-7.98e-4 -0.00,0 -0.04,-0.00 -0.09,-0.00 -0.13,0.00 -0.16,0.02 -0.25,0.20 -0.26,0.39 -0.05,0.42 -0.04,0.85 -0.06,1.27 -0.03,1.06 0.00,2.13 0,3.20 0.08,-0.78 0.00,-1.57 0.03,-2.36 0.01,-0.59 0.01,-1.18 0.04,-1.77 0.02,1.07 -0.00,2.15 0,3.22 -0.00,1.03 -0.03,2.07 -0.11,3.11 -0.05,0.84 -0.07,1.69 -0.04,2.54 0.02,1.56 0.06,3.13 0.01,4.69 -0.01,0.09 -0.01,0.20 0.00,0.29 -0.48,0.14 -0.97,0.28 -1.46,0.43 -0.14,0.11 -0.38,0.20 -0.53,0.04 -0.15,-1.43 0.05,-2.87 -0.01,-4.30 0.09,-3.22 0.21,-6.45 0.11,-9.67 0.03,-0.51 -0.15,-1.08 0.14,-1.55 3.32,-3.76 6.71,-7.46 10.09,-11.18 z m -25.76,1.96 c 0.11,-0.00 0.31,0.09 0.43,0.09 2.96,0.63 6.17,1.22 9.13,1.90 0.47,0.20 0.19,1.28 0.36,2.04 0.07,1.19 0.05,2.40 -0.11,3.58 -0.56,0.70 -1.63,-0.06 -2.37,-0.09 -2.33,-0.59 -4.66,-1.21 -6.97,-1.86 -0.83,-0.60 -0.37,-1.94 -0.59,-2.85 -0.01,-0.91 -0.16,-1.85 0.04,-2.76 0.01,-0.03 0.04,-0.05 0.08,-0.05 z m 0.74,0.61 c -0.00,9e-4 -0.01,0.00 -0.01,0.00 -0.18,0.11 -0.23,0.36 -0.20,0.56 0.06,0.92 0.12,1.86 0.26,2.78 0.01,0.08 0.04,0.16 0.06,0.24 -9.49e-4,9.48e-4 9.49e-4,0.00 0,0.00 -0.05,0.06 -0.09,0.13 -0.10,0.22 -0.01,0.16 0.05,0.31 0.10,0.45 0.02,0.15 0.08,0.31 0.21,0.40 0.16,0.11 0.36,0.11 0.54,0.17 0.86,0.23 1.74,0.40 2.62,0.59 0.80,0.17 1.61,0.33 2.41,0.52 0.40,0.09 0.81,0.19 1.22,0.31 0.22,0.07 0.45,0.14 0.65,0.26 -0.01,0.00 -0.03,0.01 -0.05,0.01 -0.04,0.00 -0.10,0.01 -0.15,0.02 0.11,0.00 0.22,0.02 0.33,0.01 0.00,0.00 0.01,-0.00 0.02,0 0.08,0.00 0.17,-0.01 0.22,-0.08 0.00,-0.00 0.00,-0.00 0.00,-0.00 0.11,-0.07 0.20,-0.18 0.21,-0.31 0.05,-0.32 0.02,-0.65 0.04,-0.97 0.02,-0.73 0.00,-1.47 -0.04,-2.20 -0.02,-0.23 -0.04,-0.48 -0.13,-0.70 -0.10,-0.17 -0.29,-0.29 -0.48,-0.37 -0.54,-0.19 -1.09,-0.34 -1.64,-0.47 -1.66,-0.41 -3.33,-0.82 -5.00,-1.21 l -0.99,-0.23 c -0.03,0.00 -0.06,-0.01 -0.10,-0.01 -0.00,-1.8e-4 -0.01,-9.01e-4 -0.01,0 z m 0.64,0.41 c 0.04,0.00 0.08,0.01 0.12,0.02 0.53,0.10 1.05,0.23 1.57,0.35 0.45,0.10 0.91,0.21 1.37,0.32 -0.03,0.10 -0.04,0.23 -0.03,0.35 0.01,0.61 0.06,1.22 0.09,1.83 -0.01,0.16 -0.02,0.33 -0.02,0.50 -0.00,0.33 0.04,0.65 0.04,0.99 -5.03e-4,0.13 0.01,0.36 -0.13,0.34 -0.00,0.00 -0.00,0.00 -0.00,0.00 -0.14,-0.03 -0.29,-0.06 -0.44,-0.10 -0.69,-0.18 -1.39,-0.36 -2.08,-0.54 -0.16,-0.07 -0.28,-0.22 -0.37,-0.37 -0.02,-0.05 -0.06,-0.10 -0.08,-0.15 -0.08,-0.41 -0.13,-0.82 -0.17,-1.24 -0.06,-0.61 -0.09,-1.24 -0.10,-1.86 -0.00,-0.08 0.01,-0.17 0.04,-0.25 0.03,-0.08 0.09,-0.15 0.17,-0.19 0.01,-0.00 0.02,-0.00 0.03,-0.00 z m 3.63,0.84 c 0.11,0.03 0.23,0.06 0.35,0.09 -0.05,0.11 -0.09,0.23 -0.16,0.32 0.15,-0.18 0.22,0.13 0.20,0.27 0.07,0.72 0.07,1.45 0.12,2.18 0.01,0.31 0.03,0.62 0.04,0.94 -0.01,0.09 -0.04,0.21 -0.04,0.31 -0.24,-0.05 -0.48,-0.10 -0.72,-0.16 0.06,-0.02 0.13,-0.04 0.20,-0.06 0.05,-0.04 0.18,-0.19 0.10,-0.26 -0.06,0.06 -0.09,0.17 -0.16,0.22 0.08,-0.19 0.05,-0.43 0.04,-0.65 -0.01,-0.23 -0.02,-0.47 -0.02,-0.71 0.01,-0.63 -0.03,-1.26 -0.07,-1.90 -0.02,-0.20 0.07,-0.38 0.14,-0.55 1.43e-4,-0.01 -0.00,-0.02 -0.00,-0.03 z m 0.61,0.16 c 0.61,0.15 1.23,0.31 1.85,0.47 0.28,0.09 0.59,0.15 0.85,0.30 0.08,0.04 0.16,0.08 0.22,0.15 0.06,0.06 0.13,0.13 0.16,0.22 0.07,0.16 0.05,0.35 0.08,0.53 0.05,0.70 0.11,1.40 0.12,2.10 -0.00,0.28 0.00,0.57 -0.06,0.85 -0.01,0.05 -0.02,0.10 -0.04,0.15 -0.07,-0.06 -0.17,-0.11 -0.26,-0.13 -0.29,-0.09 -0.60,-0.14 -0.91,-0.21 -0.61,-0.11 -1.22,-0.26 -1.82,-0.39 0.01,-0.05 0.02,-0.10 0.01,-0.15 -0.04,-0.61 -0.00,-1.22 -0.02,-1.83 -0.01,-0.63 -0.10,-1.27 -0.17,-1.90 -0.01,-0.04 -0.01,-0.09 -0.02,-0.15 z m 24.52,4.64 c -0.02,9.57e-4 -0.05,0.00 -0.08,0.01 -0.72,0.21 -1.45,0.43 -2.18,0.64 -0.90,0.26 -1.83,0.51 -2.75,0.76 -0.22,0.15 -0.32,0.34 -0.34,0.50 -0.05,0.05 -0.09,0.10 -0.09,0.16 -0.05,0.21 -0.04,0.42 -0.06,0.63 -0.03,0.52 0.00,1.02 0,1.54 0.08,-0.39 0.00,-0.75 0.03,-1.14 0.01,-0.28 0.01,-0.57 0.04,-0.86 0.02,0.51 -0.00,1.04 0,1.56 -0.00,0.50 -0.03,1.00 -0.11,1.52 -0.05,0.42 -0.07,0.84 -0.04,1.24 0.02,0.75 0.06,1.49 0.01,2.26 -0.02,0.07 -0.02,0.17 0.09,0.19 0.04,-9.49e-4 0.08,-0.00 0.13,-0.02 -0.00,0.43 0.50,0.71 0.64,-0.00 1.37,-0.37 3.02,-0.77 4.38,-1.18 0.23,-0.07 0.24,-0.36 0.39,-0.51 0.03,-0.01 0.05,-0.03 0.07,-0.06 0.00,-0.00 0.01,-0.00 0.01,-0.00 0.03,-0.04 0.04,-0.11 0.01,-0.16 -0.00,-0.03 -0.00,-0.06 -0.00,-0.10 -0.02,-0.84 -0.05,-1.69 -0.03,-2.54 0.03,-0.58 0.12,-1.17 0.19,-1.76 0.02,-0.22 0.04,-0.43 0.06,-0.65 -0.06,-0.46 -0.09,-0.93 -0.11,-1.41 -0.02,-0.14 0.00,-0.30 -0.09,-0.41 0.04,-0.08 0.01,-0.20 -0.15,-0.19 z M 4.43,21.96 c 0.04,0.00 0.09,0.01 0.14,0.04 l 0.47,0.13 c 3.47,0.98 6.95,1.96 10.43,2.94 2.22,0.61 4.45,1.20 6.69,1.75 0.40,0.05 0.83,0.32 1.22,0.07 0.37,-0.22 0.60,-0.60 0.92,-0.89 0.11,-0.11 0.34,-0.33 0.48,-0.13 0.13,0.24 0.03,0.52 0.06,0.78 0.01,4.28 0.10,8.57 0.03,12.85 -0.01,0.21 0.10,0.47 -0.05,0.64 -0.22,0.14 -0.46,-0.05 -0.69,-0.08 C 17.73,39.73 11.84,37.02 5.74,35.22 5.31,35.08 4.85,35.00 4.44,34.79 4.07,34.49 4.12,33.96 4.14,33.53 c 0.06,-1.99 0.09,-3.98 0.10,-5.98 0.02,-1.79 -0.01,-3.57 -0.04,-5.37 0.00,-0.12 0.08,-0.19 0.18,-0.20 0.01,-0.00 0.02,-0.00 0.04,-0.00 z m 35.44,0.60 c 0.00,0.42 -0.01,0.86 -0.00,1.29 -0.00,0.50 -0.03,1.01 -0.11,1.53 -0.05,0.42 -0.07,0.84 -0.04,1.24 0.02,0.75 0.06,1.49 0.01,2.26 -0.00,0.01 -0.00,0.03 -0.01,0.05 -0.50,0.15 -0.99,0.30 -1.50,0.44 -0.80,0.23 -1.61,0.45 -2.43,0.68 -0.02,-0.75 -0.04,-1.51 -0.02,-2.28 0.03,-0.58 0.12,-1.17 0.18,-1.76 0.02,-0.22 0.04,-0.44 0.05,-0.66 -0.06,-0.46 -0.09,-0.93 -0.11,-1.41 -0.01,-0.10 -0.00,-0.21 -0.03,-0.30 1.24,-0.34 2.69,-0.69 3.95,-1.05 -0.00,0.06 -0.00,0.12 -0.00,0.18 -0.03,0.52 0.00,1.02 0,1.54 0.08,-0.39 0.00,-0.76 0.03,-1.14 0.00,-0.19 0.01,-0.40 0.02,-0.60 0.00,-0.00 0.01,-0.00 0.02,-0.00 z m -7.17,1.63 c -0.03,0.36 -0.03,0.73 -0.04,1.10 -0.03,1.06 0.00,2.13 0,3.20 0.08,-0.78 0.00,-1.57 0.03,-2.36 0.01,-0.59 0.00,-1.18 0.03,-1.78 0.02,1.07 -0.00,2.15 0,3.23 -0.00,1.03 -0.03,2.07 -0.10,3.11 -0.05,0.84 -0.07,1.69 -0.04,2.54 0.01,1.44 0.04,2.88 0.01,4.33 -0.02,-0.00 -0.04,-0.00 -0.06,-0.01 -0.36,-0.09 -0.72,-0.18 -1.09,-0.23 -0.41,-0.07 -0.82,-0.13 -1.23,-0.28 -0.02,-0.00 -0.04,-0.01 -0.06,-0.01 0.02,-0.26 0.00,-0.56 0.01,-0.84 0.00,-1.44 -0.01,-2.89 -0.05,-4.33 -0.03,-1.63 -0.08,-3.26 -0.04,-4.90 0.01,-0.58 0.02,-1.17 0.01,-1.76 0.00,-0.06 0.00,-0.14 -0.02,-0.20 -0.03,-0.03 -0.06,-0.03 -0.10,-0.02 -0.09,0.03 -0.16,0.22 -0.16,0.38 0.01,0.60 -0.04,1.19 -0.08,1.79 -0.07,0.95 -0.08,1.92 -0.07,2.88 0.02,1.56 0.10,3.12 0.11,4.68 0.01,0.72 7.2e-5,1.45 0,2.18 -0.00,-0.00 -0.01,0.00 -0.02,0.01 -0.04,0.11 0.00,0.26 0.06,0.28 0.15,0.02 0.30,0.11 0.44,0.20 0.23,0.13 0.47,0.20 0.71,0.26 0.39,0.07 0.79,0.11 1.19,0.20 0.07,0.01 0.15,0.03 0.22,0.05 -1.23,0.35 -2.46,0.72 -3.70,1.08 1.44e-4,-0.01 -6.47e-4,-0.02 0,-0.03 -0.02,-1.76 -0.05,-3.52 -0.03,-5.28 0.03,-1.18 0.12,-2.37 0.19,-3.56 0.02,-0.44 0.04,-0.88 0.05,-1.32 -0.06,-0.99 -0.09,-1.98 -0.10,-2.98 -0.01,-0.18 -0.00,-0.36 -0.02,-0.55 0.40,-0.09 0.80,-0.19 1.20,-0.30 0.90,-0.23 1.79,-0.48 2.69,-0.75 0.02,-0.00 0.05,-0.01 0.07,-0.02 z M 9.07,26.16 c -0.68,0.64 -0.24,1.64 -0.20,2.43 0.19,0.95 0.12,2.10 1.04,2.80 1.70,1.13 1.94,1.29 3.96,1.83 1.25,0.28 2.41,0.89 3.74,0.87 0.38,-0.05 1.36,0.12 1.45,0.14 0.10,-0.65 0.55,-1.39 0.35,-2.12 -0.09,-1.19 -0.25,-2.42 -0.87,-3.50 -0.64,-0.57 -1.68,-0.62 -2.53,-0.87 -2.89,-0.61 -3.87,-0.95 -6.76,-1.57 l -0.16,0 z m 9.99,8.09 c -1.11e-4,7.18e-4 1.1e-4,0.00 0,0.00 0.01,0.00 0.00,3.34e-4 0,-0.00 z m -8.75,-7.08 c 1.78,0.26 1.67,0.43 3.34,0.76 -0.06,0.12 -0.08,0.31 -0.07,0.46 0.01,0.65 0.06,1.30 0.08,1.96 -0.00,0.17 -0.02,0.35 -0.02,0.53 -0.00,0.35 0.04,0.70 0.04,1.06 -3.59e-4,0.09 1.62e-4,0.24 -0.04,0.32 -0.66,-0.22 -1.33,-0.46 -2.39,-0.89 -1.11,-0.37 -1.55,-1.35 -1.57,-2.22 0.07,-0.62 -0.37,-1.41 0.23,-1.92 0.11,-0.06 0.26,-0.06 0.39,-0.06 z m 3.93,0.88 c 1.13,0.25 2.26,0.53 3.39,0.78 0.77,0.38 0.85,1.26 1.02,1.95 0.17,0.65 0.01,1.32 0.01,1.97 0.15,0.30 -0.27,1.08 -0.24,1.02 -0.60,-0.39 -1.55,-0.36 -2.26,-0.66 -0.87,-0.32 -1.45,-0.51 -1.99,-0.71 0.03,-0.01 0.05,-0.02 0.08,-0.04 0.04,-0.04 0.15,-0.20 0.08,-0.28 -0.05,0.06 -0.07,0.18 -0.13,0.24 0.07,-0.21 0.04,-0.46 0.04,-0.69 -0.01,-0.25 -0.01,-0.50 -0.02,-0.76 0.01,-0.67 -0.03,-1.35 -0.06,-2.02 -0.02,-0.21 0.06,-0.40 0.12,-0.59 5.04e-4,-0.07 -0.02,-0.13 -0.04,-0.18 z" />
</svg>
