<?xml version="1.0" encoding="UTF-8" standalone="no"?>
<!-- Created with Inkscape (http://www.inkscape.org/) -->
<svg xmlns:dc="http://purl.org/dc/elements/1.1/" xmlns:cc="http://creativecommons.org/ns#" xmlns:rdf="http://www.w3.org/1999/02/22-rdf-syntax-ns#" xmlns:svg="http://www.w3.org/2000/svg" xmlns="http://www.w3.org/2000/svg" version="1.1" width="100%" height="100%" viewBox="0 0 48 48" id="svg3970">
<defs id="defs17" />
<path d="m 24.69,5.08 c -5.37,0.09 -9.59,4.17 -12.63,8.21 -4.65,6.38 -7.84,13.72 -10.28,21.20 -0.26,0.44 0.49,0.73 1.12,0.84 9.08,2.50 18.17,5.00 27.26,7.50 5.52,-3.24 11.04,-6.48 16.57,-9.73 -0.98,-2.54 -2.03,-5.07 -3.18,-7.55 0.28,-2.62 0.55,-5.25 0.82,-7.87 -1.03,-0.64 -2.45,-0.70 -3.61,-1.18 -0.88,-0.27 -1.76,-0.54 -2.65,-0.82 C 37.09,14.16 36.02,12.68 34.86,11.26 32.27,8.25 28.92,5.10 24.69,5.08 z m 2.30,1.00 c 2.52,0.45 4.52,2.44 6.30,4.19 1.48,1.61 2.82,3.34 4.04,5.15 -0.53,-0.16 -1.07,-0.32 -1.61,-0.48 -3.27,1.06 -6.53,2.16 -9.79,3.26 0.00,0.97 0.73,2.09 0.96,3.14 1.41,4.13 2.82,8.27 4.22,12.40 -1.73,0.26 -3.56,0.15 -3.34,-2.17 C 26.01,24.42 23.71,17.31 22.89,9.94 22.31,8.05 23.55,6.39 25.50,6.23 25.99,6.13 26.49,6.09 26.99,6.09 z M 20.85,6.77 c 2.30,0.00 1.17,2.77 1.62,4.26 1.08,7.75 3.49,15.24 5.34,22.84 C 21.96,35.35 15.83,33.80 10.27,31.81 8.23,30.97 6.06,30.20 4.38,28.72 7.25,21.74 10.65,14.69 16.20,9.44 c 1.34,-1.03 2.74,-2.59 4.54,-2.66 0.03,-0.00 0.07,-0.00 0.11,-0.00 z m 22.98,11.25 -1.72,16.21 -4.57,-13.97 6.30,-2.24 z M 26.62,18.96 34.41,21.10 33.48,39.12 26.62,18.96 z m 10.21,1.59 c 0.27,0.00 0.46,0.19 0.49,0.72 0.97,2.95 1.93,5.92 2.90,8.88 -0.43,0.21 -0.83,0.31 -1.17,0.22 -1.12,-2.56 -2.19,-5.38 -4.24,-7.35 l 0.09,-1.87 c 0.56,-0.00 1.39,-0.62 1.92,-0.60 z m 6.60,6.01 c 0.07,0.16 0.15,0.32 0.22,0.48 -0.09,0.12 -0.20,0.25 -0.32,0.39 0.03,-0.29 0.06,-0.58 0.09,-0.88 z" />
</svg>
