<?xml version="1.0" encoding="UTF-8" standalone="no"?>
<!-- Created with Inkscape (http://www.inkscape.org/) -->
<svg xmlns:dc="http://purl.org/dc/elements/1.1/" xmlns:cc="http://creativecommons.org/ns#" xmlns:rdf="http://www.w3.org/1999/02/22-rdf-syntax-ns#" xmlns:svg="http://www.w3.org/2000/svg" xmlns="http://www.w3.org/2000/svg" version="1.0" width="100%" height="100%" viewBox="0 0 48 48" id="svg2">
<defs id="defs7" />
<path d="m 23.98,38.61 c -0.05,-0.08 0.02,-1.60 0.08,-1.70 0.02,-0.03 -0.02,-0.10 -0.09,-0.16 -0.10,-0.08 -0.12,-0.20 -0.07,-0.62 l 0.05,-0.51 -0.32,0.31 c -0.31,0.30 -0.45,0.37 -1.98,0.93 -1.40,0.51 -2.96,0.91 -4.55,1.16 -2.00,0.31 -2.91,0.18 -3.39,-0.46 -0.14,-0.19 -0.34,-0.52 -0.44,-0.72 -0.10,-0.20 -0.30,-0.60 -0.45,-0.88 -0.27,-0.53 -0.38,-0.93 -0.52,-1.98 -0.20,-1.50 -0.26,-2.19 -0.28,-3.07 -0.01,-0.51 -0.05,-1.41 -0.08,-1.99 -0.05,-0.94 -0.04,-1.12 0.12,-1.73 0.19,-0.69 0.22,-1.18 0.16,-2.40 l -0.03,-0.71 0.28,-0.07 0.28,-0.07 -0.05,-0.64 c -0.02,-0.35 -0.05,-0.76 -0.05,-0.91 0,-0.18 -0.04,-0.28 -0.14,-0.32 -0.08,-0.02 -0.20,-0.07 -0.27,-0.10 -0.11,-0.04 -0.11,-0.03 0,0.04 0.10,0.08 0.09,0.08 -0.04,0.05 -0.09,-0.02 -0.79,-0.10 -1.56,-0.18 C 9.82,21.76 9.03,21.64 8.82,21.57 8.19,21.35 7.58,20.90 7.38,20.50 7.28,20.31 7.11,20.02 6.99,19.86 6.54,19.23 6.48,18.32 6.84,17.76 l 0.13,-0.20 -0.43,0.05 c -0.57,0.07 -1.69,0.60 -2.32,1.09 -0.52,0.41 -0.80,0.76 -1.24,1.58 -0.41,0.77 -0.74,0.74 -0.91,-0.08 -0.15,-0.75 -0.05,-3.25 0.20,-4.95 0.36,-2.37 0.84,-3.67 1.36,-3.67 0.17,0 0.22,0.06 0.33,0.43 0.07,0.24 0.12,0.53 0.12,0.66 0,0.44 1.10,1.93 1.73,2.32 0.13,0.08 0.29,0.20 0.35,0.25 0.44,0.42 1.37,0.73 2.80,0.91 0.58,0.07 1.73,0.22 2.57,0.33 1.16,0.15 1.55,0.17 1.68,0.10 0.09,-0.05 0.20,-0.08 0.23,-0.07 0.03,0.01 0.20,-0.07 0.37,-0.19 0.17,-0.11 0.37,-0.21 0.45,-0.21 0.08,0 0.28,-0.07 0.45,-0.17 0.29,-0.16 0.32,-0.16 0.62,-0.03 0.24,0.10 0.35,0.12 0.48,0.04 0.24,-0.12 0.62,-0.11 0.82,0.03 0.08,0.06 0.27,0.12 0.41,0.12 0.14,0.00 0.34,0.06 0.44,0.13 0.19,0.13 0.44,0.62 0.44,0.88 0,0.16 -0.01,0.15 2.70,0.55 0.81,0.11 1.57,0.24 1.68,0.28 0.11,0.04 0.37,0.11 0.56,0.16 0.19,0.05 0.52,0.22 0.74,0.39 0.35,0.27 0.46,0.30 1.33,0.40 0.52,0.06 1.02,0.15 1.12,0.21 0.14,0.09 0.22,0.08 0.53,-0.07 0.42,-0.21 0.51,-0.39 0.28,-0.55 -0.09,-0.06 -0.21,-0.23 -0.27,-0.37 -0.14,-0.36 -0.02,-0.59 0.45,-0.82 0.31,-0.15 0.40,-0.25 0.47,-0.50 0.12,-0.44 0.11,-0.56 -0.08,-0.74 -0.30,-0.28 -0.34,-0.41 -0.15,-0.65 0.09,-0.12 0.18,-0.38 0.20,-0.57 0.01,-0.19 0.06,-0.52 0.11,-0.73 0.16,-0.76 0.27,-1.65 0.23,-1.98 -0.01,-0.18 -0.15,-0.59 -0.29,-0.91 -0.33,-0.73 -0.34,-0.95 -0.03,-1.02 0.12,-0.02 0.46,-0.11 0.73,-0.19 0.61,-0.16 2.96,-0.18 3.88,-0.02 2.09,0.36 2.32,0.42 3.96,1.06 1.07,0.41 1.91,0.67 2.58,0.79 0.75,0.13 1.52,0.43 1.52,0.60 0,0.08 -0.19,0.43 -0.44,0.79 -0.83,1.21 -0.81,1.16 -0.82,2.20 -0.00,1.12 -0.12,1.93 -0.33,2.23 -0.08,0.12 -0.18,0.38 -0.21,0.59 -0.03,0.20 -0.09,0.51 -0.14,0.67 -0.11,0.39 -0.84,1.86 -0.89,1.81 -0.09,-0.09 -0.29,0.33 -0.32,0.72 -0.02,0.29 -0.00,0.44 0.08,0.53 0.06,0.06 0.17,0.39 0.22,0.73 0.09,0.55 0.14,0.64 0.51,1.04 0.28,0.30 0.64,0.55 1.15,0.80 1.52,0.76 3.65,2.22 4.69,3.22 0.31,0.30 0.63,0.56 0.69,0.56 0.20,0 0.79,0.60 1.13,1.17 0.18,0.30 0.46,0.93 0.63,1.40 0.16,0.46 0.34,0.94 0.39,1.07 0.04,0.13 0.05,0.26 0.02,0.29 -0.03,0.03 -0.08,0.01 -0.10,-0.04 -0.02,-0.05 -0.08,-0.10 -0.14,-0.10 -0.11,0 -0.83,-1.75 -0.76,-1.86 0.02,-0.04 0.01,-0.07 -0.03,-0.07 -0.04,0 -0.14,-0.15 -0.23,-0.34 -0.14,-0.32 -0.61,-0.78 -1.02,-0.99 -0.26,-0.13 -0.67,-0.11 -1.42,0.07 -1.49,0.38 -2.38,1.35 -2.91,3.18 -0.14,0.49 -0.31,1.02 -0.37,1.16 -0.06,0.14 -0.15,0.45 -0.21,0.69 -0.09,0.41 -0.20,0.60 -0.30,0.50 -0.09,-0.09 0.26,-1.52 0.64,-2.57 0.41,-1.15 0.62,-1.56 0.92,-1.83 0.09,-0.08 0.17,-0.19 0.17,-0.25 0,-0.13 -0.43,-0.56 -0.86,-0.85 -0.19,-0.13 -0.52,-0.38 -0.72,-0.55 -0.20,-0.17 -0.70,-0.53 -1.12,-0.79 -0.85,-0.54 -0.88,-0.60 -0.80,-1.45 0.09,-1.05 0.10,-1.05 0.71,-0.98 0.60,0.07 1.45,0.48 2.21,1.06 0.15,0.12 0.68,0.45 1.17,0.74 0.48,0.28 1.05,0.65 1.26,0.81 0.45,0.34 1.23,0.79 1.34,0.79 0.15,0 -0.59,-0.62 -1.55,-1.28 -2.14,-1.48 -3.86,-2.60 -4.51,-2.95 l -0.28,-0.15 -0.50,0.55 c -0.28,0.30 -1.22,1.09 -2.11,1.76 -1.60,1.20 -1.87,1.44 -2.23,1.96 -0.10,0.15 -0.22,0.25 -0.26,0.22 -0.12,-0.07 -0.67,-1.09 -0.67,-1.24 0,-0.22 -0.12,-0.23 -0.56,-0.04 l -0.41,0.17 -0.10,0.64 c -0.11,0.66 -0.23,0.96 -0.55,1.40 -0.59,0.80 -1.31,2.62 -1.68,4.26 -0.31,1.37 -0.58,2.02 -0.76,1.83 -0.02,-0.02 0.05,-0.39 0.16,-0.83 0.26,-1.03 0.28,-1.44 0.11,-2.01 -0.60,-2.00 -0.59,-1.95 -0.48,-2.44 0.13,-0.62 0.68,-1.71 1.13,-2.23 l 0.36,-0.42 -0.34,0.03 -0.34,0.03 0.18,-0.20 c 0.37,-0.40 0.76,-1.59 0.51,-1.58 -0.06,0.00 -0.60,0.12 -1.20,0.27 l -1.09,0.27 -0.44,1.05 c -1.08,2.59 -1.27,3.22 -1.43,4.76 -0.06,0.65 -0.16,1.31 -0.20,1.47 -0.04,0.15 -0.07,0.30 -0.05,0.32 0.06,0.06 1.55,0.27 2.00,0.28 l 0.47,0.00 -0.04,0.77 c -0.05,0.98 -0.10,1.32 -0.20,1.32 -0.04,0 -0.08,-0.39 -0.08,-0.91 V 34.82 l -0.26,-0.05 c -0.14,-0.02 -0.53,-0.05 -0.86,-0.05 -0.52,-0.00 -0.74,-0.03 -1.31,-0.17 -0.09,-0.02 -0.13,0.10 -0.18,0.60 -0.03,0.34 -0.07,0.77 -0.10,0.94 -0.03,0.28 -0.01,0.31 0.22,0.39 0.23,0.07 1.57,0.19 2.14,0.19 0.10,-5.92e-4 0.18,0.02 0.18,0.06 0,0.03 -0.49,0.06 -1.09,0.05 -0.59,-0.00 -1.12,0.01 -1.15,0.05 -0.03,0.03 -0.08,0.37 -0.11,0.76 -0.05,0.77 -0.23,1.23 -0.37,0.99 z m -7.60,-0.97 c 1.86,-0.16 2.77,-0.36 4.68,-1.04 1.31,-0.46 1.78,-0.65 2.37,-0.94 l 0.49,-0.25 v -0.54 c 0,-0.64 0.05,-0.80 0.25,-0.80 0.25,0 0.30,-0.22 0.36,-1.43 0.08,-1.75 0.08,-1.76 -0.10,-2.61 -0.10,-0.43 -0.18,-0.87 -0.18,-0.97 0.00,-0.16 0.00,-0.16 0.12,-0.01 0.06,0.08 0.14,0.31 0.17,0.50 0.03,0.19 0.09,0.50 0.14,0.68 l 0.08,0.33 0.10,-0.29 c 0.13,-0.37 0.14,-0.80 0.02,-1.33 -0.05,-0.25 -0.07,-0.57 -0.02,-0.82 0.06,-0.40 0.06,-0.40 0.13,-0.16 0.03,0.13 0.11,0.47 0.16,0.73 l 0.09,0.48 0.83,-1.65 c 0.46,-0.91 0.83,-1.66 0.83,-1.68 0,-0.01 -0.23,0.05 -0.52,0.16 -0.46,0.17 -1.14,0.52 -1.98,1.02 -0.36,0.21 -1.37,0.99 -2.47,1.90 -0.98,0.81 -1.60,1.21 -1.95,1.23 -0.12,0.00 -0.34,0.07 -0.48,0.14 -0.13,0.06 -0.30,0.12 -0.37,0.12 -0.21,0 -0.14,0.19 0.12,0.37 0.55,0.36 1.00,1.23 1.13,2.21 0.04,0.35 0.03,0.44 -0.05,0.44 -0.07,0 -0.19,-0.23 -0.31,-0.65 -0.24,-0.79 -0.36,-1.05 -0.73,-1.53 -0.26,-0.34 -0.90,-0.76 -1.18,-0.76 -0.12,-5.92e-4 -0.13,0.19 -0.02,0.40 0.18,0.33 0.58,1.53 0.67,2.05 0.13,0.77 0.06,1.57 -0.20,2.15 -0.12,0.26 -0.23,0.46 -0.25,0.44 -0.01,-0.01 0.01,-0.26 0.08,-0.54 0.16,-0.70 0.15,-1.37 -0.04,-2.08 -0.17,-0.64 -0.23,-0.75 -0.28,-0.56 -0.21,0.74 -0.30,1.09 -0.34,1.36 -0.06,0.38 -0.69,1.90 -0.86,2.08 -0.09,0.09 -0.08,0.04 0.02,-0.21 0.07,-0.18 0.21,-0.60 0.30,-0.92 0.09,-0.32 0.19,-0.66 0.23,-0.75 0.14,-0.34 0.18,-0.52 0.27,-1.22 0.11,-0.90 0.08,-1.86 -0.05,-2.02 -0.05,-0.06 -0.19,-0.37 -0.29,-0.67 -0.10,-0.30 -0.24,-0.60 -0.30,-0.68 -0.20,-0.22 -0.42,-1.02 -0.49,-1.71 l -0.06,-0.66 -0.35,0.05 c -0.19,0.02 -0.70,0.13 -1.13,0.23 -0.83,0.19 -0.74,0.19 -2.39,-0.15 -0.21,-0.04 -0.22,-0.02 -0.28,0.33 -0.06,0.45 -0.01,2.05 0.12,3.77 0.05,0.67 0.13,1.67 0.17,2.23 0.05,0.74 0.14,1.20 0.32,1.73 0.53,1.54 1.03,2.39 1.48,2.52 0.35,0.10 0.42,0.10 1.94,-0.03 z m 13.07,-6.88 c 0.35,-0.71 0.73,-1.49 0.86,-1.71 0.12,-0.22 0.20,-0.42 0.18,-0.44 -0.02,-0.02 -0.24,0.14 -0.49,0.38 -0.53,0.50 -0.70,0.54 -0.61,0.15 0.07,-0.33 0.49,-1.19 0.76,-1.55 0.19,-0.26 0.19,-0.26 0.02,-0.31 -0.18,-0.04 -0.54,0.07 -0.73,0.25 -0.05,0.05 -0.18,0.28 -0.28,0.50 -0.09,0.22 -0.26,0.51 -0.38,0.64 -0.28,0.34 -0.65,1.10 -0.83,1.69 -0.13,0.45 -0.13,0.53 -0.01,0.92 0.07,0.23 0.23,0.76 0.36,1.18 l 0.23,0.76 0.14,-0.59 c 0.08,-0.32 0.43,-1.17 0.78,-1.89 z M 19.03,30.20 c 0.05,-0.06 0.23,-0.16 0.40,-0.22 0.83,-0.27 1.73,-0.85 2.99,-1.94 0.36,-0.31 0.70,-0.58 0.74,-0.58 0.03,0 0.40,-0.25 0.81,-0.55 1.16,-0.87 2.23,-1.32 3.36,-1.42 0.70,-0.06 1.44,-0.30 1.94,-0.64 0.21,-0.14 0.30,-0.27 0.34,-0.50 0.03,-0.21 0.12,-0.34 0.29,-0.44 0.19,-0.11 0.24,-0.20 0.24,-0.42 0,-0.15 -0.04,-0.29 -0.10,-0.31 -0.05,-0.01 -0.56,-0.01 -1.13,0.00 -0.94,0.03 -1.05,0.02 -1.32,-0.14 -0.16,-0.10 -0.32,-0.26 -0.35,-0.36 -0.08,-0.27 -0.04,-0.72 0.10,-1.00 0.11,-0.22 0.11,-0.26 -0.05,-0.53 -0.09,-0.16 -0.24,-0.29 -0.33,-0.29 -0.08,0 -0.26,-0.10 -0.40,-0.23 -0.28,-0.27 -0.26,-0.26 -1.09,-0.32 l -0.61,-0.04 v 0.51 c 0,0.40 0.02,0.50 0.11,0.46 0.24,-0.09 0.20,0.12 -0.05,0.29 -0.15,0.09 -0.34,0.30 -0.43,0.46 -0.25,0.48 -1.15,1.02 -1.85,1.12 -0.19,0.02 -0.94,-0.01 -1.66,-0.08 -0.71,-0.07 -1.87,-0.19 -2.57,-0.26 -0.69,-0.06 -1.37,-0.14 -1.51,-0.16 -0.34,-0.04 -0.55,0.22 -0.55,0.73 -0.00,0.28 0.03,0.40 0.11,0.40 0.16,0 0.21,0.27 0.22,1.13 0.00,0.99 0.28,3.08 0.49,3.67 0.09,0.25 0.27,0.74 0.41,1.09 l 0.24,0.63 0.39,-0.00 c 0.21,-0.00 0.39,0.02 0.39,0.06 0,0.11 0.31,0.07 0.41,-0.05 z m 6.29,-8.99 c -0.06,-0.11 0.02,-0.25 0.16,-0.25 0.17,0 0.25,0.17 0.11,0.26 -0.15,0.09 -0.22,0.09 -0.28,-0.00 z m 0.43,-0.22 c -0.09,-0.09 -0.06,-0.18 0.11,-0.23 0.09,-0.02 0.16,-0.10 0.16,-0.17 0,-0.15 0.13,-0.15 0.19,-0.01 0.02,0.06 -0.04,0.19 -0.15,0.29 -0.20,0.20 -0.23,0.21 -0.32,0.12 z m 15.99,8.16 c 0.34,-0.24 0.54,-0.33 1.24,-0.51 l 0.36,-0.09 -0.28,-0.20 C 42.93,28.22 42.46,27.90 42.04,27.63 41.62,27.36 40.89,26.89 40.42,26.58 39.17,25.76 38.83,25.61 38.24,25.58 l -0.50,-0.02 -0.01,0.29 c -0.00,0.16 -0.02,0.48 -0.03,0.71 l -0.02,0.42 1.02,0.63 c 1.03,0.64 1.66,1.06 2.25,1.52 0.18,0.13 0.36,0.25 0.40,0.25 0.03,0 0.22,-0.11 0.41,-0.24 z m -3.24,-2.11 c -0.48,-0.14 -0.61,-0.47 -0.34,-0.88 0.18,-0.28 0.54,-0.34 0.93,-0.16 0.39,0.18 0.44,0.25 0.44,0.59 0.00,0.45 -0.41,0.63 -1.03,0.44 z m 0.65,-0.21 c 0.18,-0.07 0.16,-0.31 -0.03,-0.49 -0.28,-0.26 -0.99,-0.05 -0.87,0.25 0.08,0.21 0.60,0.35 0.90,0.24 z m 4.27,1.90 0.21,-0.06 -0.21,-0.00 c -0.11,-0.00 -0.32,0.05 -0.46,0.11 l -0.25,0.11 0.25,-0.05 c 0.13,-0.02 0.34,-0.08 0.46,-0.11 z M 30.23,28.52 c 0.17,-0.17 0.29,-0.40 0.33,-0.61 l 0.05,-0.32 -0.17,0.21 c -0.21,0.25 -0.61,1.01 -0.54,1.01 0.03,0 0.18,-0.12 0.33,-0.28 z m 2.86,-0.59 c 0.13,-0.14 0.43,-0.39 0.65,-0.55 0.22,-0.16 0.71,-0.54 1.09,-0.84 0.38,-0.30 0.94,-0.72 1.24,-0.94 0.30,-0.21 0.73,-0.58 0.96,-0.81 0.45,-0.47 0.44,-0.31 0.17,-1.70 -0.07,-0.39 -0.15,-0.72 -0.16,-0.74 -0.01,-0.01 -0.30,0.20 -0.63,0.48 -0.66,0.55 -1.53,1.09 -2.54,1.56 -0.75,0.35 -1.84,0.72 -2.10,0.72 -0.14,0 -0.17,0.03 -0.12,0.14 0.03,0.08 0.11,0.37 0.18,0.65 0.06,0.27 0.19,0.73 0.29,1.01 0.53,1.57 0.52,1.56 0.61,1.42 0.04,-0.07 0.19,-0.25 0.33,-0.40 z m -0.53,-1.32 c -0.68,-0.41 -0.20,-1.51 0.66,-1.51 0.08,0 0.24,0.11 0.36,0.25 0.29,0.35 0.30,0.89 0.01,1.16 -0.26,0.24 -0.72,0.28 -1.05,0.08 z m 0.83,-0.21 c 0.27,-0.33 0.02,-1.04 -0.37,-1.04 -0.27,0.00 -0.39,0.11 -0.44,0.42 -0.08,0.53 0.51,0.98 0.81,0.61 z m -4.06,1.02 c 0.25,-0.13 0.30,-0.23 0.63,-1.33 0.17,-0.57 0.27,-0.78 0.47,-0.93 l 0.25,-0.19 -0.22,-0.51 c -0.19,-0.44 -0.24,-0.50 -0.37,-0.43 -0.18,0.10 -0.23,0.36 -0.13,0.77 0.08,0.34 -0.11,1.11 -0.31,1.22 -0.05,0.03 -0.16,0.25 -0.23,0.48 -0.07,0.23 -0.18,0.56 -0.26,0.73 -0.15,0.35 -0.14,0.36 0.19,0.19 z m 2.03,-0.30 c 0.39,-0.17 0.40,-0.18 0.33,-0.44 -0.04,-0.14 -0.11,-0.49 -0.15,-0.76 -0.09,-0.60 -0.26,-0.81 -0.61,-0.77 -0.36,0.04 -0.48,0.20 -0.67,0.90 -0.28,1.05 -0.29,0.96 0.11,1.10 0.50,0.17 0.53,0.17 0.99,-0.02 z M 14.98,26.95 c 0.76,-0.09 1.42,-0.16 1.46,-0.16 0.03,0 0.04,-0.12 0.00,-0.27 -0.03,-0.15 -0.08,-0.71 -0.11,-1.24 -0.04,-0.80 -0.07,-0.96 -0.17,-0.94 -0.58,0.13 -3.23,0.18 -3.48,0.06 -0.14,-0.06 -0.14,-0.00 -0.09,1.13 0.02,0.66 0.08,1.24 0.11,1.28 0.03,0.03 0.25,0.12 0.47,0.18 0.22,0.06 0.41,0.11 0.41,0.12 0,0.00 0.62,-0.06 1.39,-0.16 z m 13.17,-0.80 c 0.51,-0.16 0.98,-0.28 1.04,-0.25 0.07,0.02 0.12,-0.06 0.16,-0.30 0.03,-0.18 0.04,-0.35 0.02,-0.37 -0.01,-0.01 -0.26,0.06 -0.54,0.18 -0.28,0.11 -0.62,0.21 -0.76,0.21 -0.55,0 -0.77,0.09 -0.94,0.42 -0.26,0.51 -0.21,0.51 1.02,0.11 z m 1.67,-1.03 -0.00,-0.22 -0.11,0.25 c -0.06,0.13 -0.11,0.36 -0.11,0.50 l -5.92e-4,0.25 0.12,-0.28 c 0.06,-0.15 0.12,-0.38 0.11,-0.50 z m 1.40,-0.34 c -0.02,-0.04 -0.01,-0.14 0.02,-0.22 0.07,-0.12 0.08,-0.12 0.13,0.04 0.03,0.10 0.11,0.18 0.17,0.18 0.20,0 0.57,-0.17 0.67,-0.31 0.10,-0.13 0.33,-0.07 0.24,0.06 -0.04,0.07 0.59,-0.18 0.69,-0.28 0.03,-0.03 0.12,-0.05 0.20,-0.05 0.08,0 0.15,-0.06 0.15,-0.13 0,-0.10 0.05,-0.12 0.27,-0.07 0.24,0.05 0.26,0.04 0.15,-0.08 -0.08,-0.10 -0.09,-0.16 -0.02,-0.23 0.11,-0.11 0.27,-0.01 0.21,0.14 -0.03,0.09 -0.00,0.11 0.10,0.06 0.26,-0.09 0.64,-0.35 0.96,-0.63 0.08,-0.07 0.21,-0.12 0.28,-0.09 0.09,0.03 0.12,-0.00 0.12,-0.13 0,-0.15 0.03,-0.17 0.21,-0.13 0.18,0.04 0.21,0.03 0.16,-0.10 -0.03,-0.10 -0.00,-0.18 0.07,-0.21 0.07,-0.02 0.12,-0.01 0.12,0.03 0,0.04 0.03,0.06 0.08,0.03 0.04,-0.02 0.05,-0.10 0.03,-0.17 -0.03,-0.07 0.03,-0.15 0.17,-0.20 0.26,-0.10 0.27,-0.19 0.03,-0.35 -0.16,-0.11 -0.16,-0.12 -0.04,-0.25 0.15,-0.15 0.18,-0.36 0.06,-0.44 -0.04,-0.02 -0.05,-0.12 -0.02,-0.22 0.02,-0.11 0.01,-0.16 -0.03,-0.12 -0.14,0.08 -0.52,-0.13 -0.57,-0.34 -0.05,-0.20 -0.34,-0.26 -0.40,-0.08 -0.03,0.08 -0.06,0.08 -0.15,-0.00 -0.09,-0.09 -0.09,-0.13 0.04,-0.23 0.15,-0.11 0.14,-0.12 -0.10,-0.12 -0.18,0 -0.26,-0.04 -0.26,-0.12 0,-0.07 0.07,-0.12 0.17,-0.12 0.10,0 0.16,-0.04 0.14,-0.10 -0.04,-0.14 -0.32,-0.18 -0.40,-0.05 -0.05,0.08 -0.09,0.08 -0.20,-0.00 -0.13,-0.11 -0.16,-0.07 -0.13,0.19 0.01,0.11 -0.03,0.14 -0.17,0.12 -0.14,-0.02 -0.19,0.01 -0.19,0.13 -5.92e-4,0.08 -0.04,0.17 -0.10,0.19 -0.06,0.02 -0.10,-0.03 -0.10,-0.14 0,-0.20 -0.18,-0.22 -0.37,-0.03 -0.12,0.12 -0.14,0.12 -0.28,-5.92e-4 -0.08,-0.07 -0.17,-0.11 -0.20,-0.08 -0.02,0.02 -0.07,-0.08 -0.10,-0.24 -0.03,-0.16 -0.11,-0.32 -0.19,-0.35 -0.12,-0.04 -0.12,-0.06 -0.01,-0.15 0.06,-0.05 0.17,-0.20 0.23,-0.34 0.09,-0.21 0.09,-0.23 -0.01,-0.14 -0.15,0.13 -0.28,-0.04 -0.14,-0.18 0.07,-0.07 0.14,-0.04 0.29,0.14 0.15,0.18 0.18,0.31 0.15,0.56 -0.03,0.26 -0.01,0.33 0.13,0.41 0.12,0.06 0.19,0.06 0.22,0.00 0.03,-0.04 0.12,-0.06 0.20,-0.03 0.11,0.03 0.16,5.92e-4 0.18,-0.14 0.01,-0.13 0.07,-0.18 0.17,-0.16 0.10,0.01 0.14,-0.03 0.14,-0.15 0,-0.14 0.03,-0.17 0.16,-0.13 0.12,0.03 0.16,0.00 0.16,-0.11 0,-0.10 0.05,-0.16 0.16,-0.16 0.18,0 0.34,-0.37 0.34,-0.81 0,-0.22 -0.02,-0.26 -0.13,-0.22 -0.10,0.03 -0.12,0.12 -0.08,0.34 0.04,0.27 0.01,0.32 -0.43,0.75 -0.26,0.25 -0.58,0.48 -0.71,0.50 -0.13,0.02 -0.23,0.08 -0.23,0.12 0,0.04 -0.05,0.07 -0.12,0.07 -0.06,0 -0.12,-0.05 -0.12,-0.12 0,-0.06 0.06,-0.12 0.13,-0.12 0.08,0 0.11,-0.04 0.08,-0.13 -0.02,-0.07 -0.07,-0.23 -0.10,-0.34 -0.04,-0.17 -0.02,-0.20 0.09,-0.18 0.08,0.01 0.13,0.05 0.11,0.09 -0.04,0.07 0.16,0.22 0.32,0.22 0.14,0.00 0.09,-0.18 -0.08,-0.32 -0.08,-0.06 -0.14,-0.15 -0.14,-0.20 0,-0.05 -0.06,-0.13 -0.13,-0.19 -0.08,-0.06 -0.11,-0.14 -0.07,-0.21 0.05,-0.08 0.09,-0.07 0.18,0.04 0.12,0.17 0.12,0.18 0.15,-0.19 0.01,-0.22 -0.00,-0.27 -0.13,-0.27 -0.08,0 -0.15,-0.05 -0.15,-0.13 0,-0.10 0.05,-0.12 0.23,-0.08 0.14,0.03 0.18,0.02 0.12,-0.01 -0.18,-0.12 -0.02,-0.37 0.20,-0.33 0.14,0.02 0.19,0.00 0.17,-0.09 -0.01,-0.07 0.03,-0.13 0.10,-0.13 0.07,0 0.12,0.07 0.12,0.16 0,0.09 0.05,0.16 0.12,0.16 0.07,0 0.12,0.07 0.12,0.16 0,0.10 0.06,0.17 0.18,0.19 0.15,0.02 0.17,-0.00 0.14,-0.16 -0.02,-0.10 -0.07,-0.20 -0.12,-0.22 -0.04,-0.01 -0.08,-0.10 -0.08,-0.18 0,-0.08 -0.05,-0.16 -0.11,-0.16 -0.06,0 -0.13,-0.04 -0.15,-0.09 -0.04,-0.14 -0.74,-0.00 -0.74,0.14 0,0.06 -0.05,0.11 -0.11,0.11 -0.13,0 -0.32,0.41 -0.32,0.72 0,0.17 -0.03,0.20 -0.17,0.18 -0.11,-0.01 -0.17,-0.07 -0.15,-0.17 0.03,-0.18 -0.03,-0.18 -0.20,-0.02 -0.06,0.06 -0.18,0.12 -0.24,0.12 -0.06,0 -0.12,-0.05 -0.12,-0.12 0,-0.14 -0.30,-0.17 -0.35,-0.02 -0.01,0.05 -0.09,0.07 -0.18,0.04 -0.08,-0.03 -0.12,-0.09 -0.09,-0.14 0.03,-0.05 -0.02,-0.11 -0.12,-0.13 -0.12,-0.03 -0.17,-0.09 -0.14,-0.20 0.02,-0.11 -0.00,-0.15 -0.12,-0.15 -0.08,0 -0.16,-0.05 -0.16,-0.12 0,-0.15 0.14,-0.24 0.21,-0.13 0.02,0.04 0.09,0.06 0.14,0.03 0.05,-0.03 0.01,-0.11 -0.10,-0.20 -0.16,-0.12 -0.21,-0.13 -0.31,-0.02 -0.14,0.14 -0.28,0.07 -0.21,-0.09 0.02,-0.06 0.12,-0.12 0.22,-0.12 0.16,-0.00 0.16,-0.00 -0.03,-0.11 -0.11,-0.05 -0.22,-0.07 -0.23,-0.04 -0.04,0.12 -0.26,0.07 -0.26,-0.05 0,-0.07 0.07,-0.12 0.17,-0.12 0.16,0 0.16,-0.01 0.03,-0.25 -0.07,-0.14 -0.10,-0.29 -0.07,-0.34 0.02,-0.04 -0.02,-0.10 -0.12,-0.13 -0.22,-0.05 -0.23,-0.27 -0.01,-0.27 0.20,0 0.42,-0.61 0.26,-0.71 -0.04,-0.02 -0.06,-0.08 -0.03,-0.13 0.02,-0.04 -0.02,-0.07 -0.12,-0.07 -0.09,0 -0.18,0.03 -0.21,0.06 -0.02,0.03 -0.25,0.05 -0.51,0.04 -0.35,-0.01 -0.46,0.00 -0.46,0.09 0,0.16 -0.15,0.24 -0.27,0.14 -0.06,-0.05 -0.21,-0.04 -0.43,0.04 -0.18,0.06 -0.42,0.14 -0.53,0.17 -0.12,0.02 -0.17,0.09 -0.15,0.16 0.03,0.07 -0.02,0.11 -0.16,0.11 -0.13,0 -0.20,0.04 -0.20,0.12 0,0.07 -0.05,0.15 -0.12,0.17 -0.15,0.05 -0.16,0.29 -0.02,0.43 0.06,0.06 0.06,0.13 0.01,0.20 -0.04,0.05 -0.07,0.14 -0.07,0.19 0.02,0.21 0.16,0.51 0.28,0.61 0.12,0.09 0.11,0.10 -0.03,0.15 -0.09,0.02 -0.25,0.19 -0.36,0.38 -0.14,0.24 -0.24,0.33 -0.39,0.33 -0.31,0 -0.49,0.45 -0.30,0.75 0.06,0.10 0.10,0.10 0.30,0.00 0.21,-0.11 0.23,-0.10 0.46,0.16 0.21,0.25 0.26,0.27 0.43,0.19 l 0.19,-0.09 -0.18,-0.00 c -0.16,-0.00 -0.23,-0.08 -0.19,-0.27 0.00,-0.03 -0.03,-0.06 -0.10,-0.06 -0.13,0 -0.50,-0.48 -0.44,-0.58 0.06,-0.10 0.55,0.15 0.55,0.29 0,0.17 0.23,0.24 0.37,0.11 0.10,-0.08 0.13,-0.06 0.20,0.10 0.04,0.11 0.14,0.23 0.22,0.26 0.12,0.04 0.09,0.10 -0.18,0.35 -0.18,0.16 -0.43,0.35 -0.56,0.42 -0.25,0.13 -0.31,0.37 -0.09,0.37 0.08,0 0.12,0.05 0.10,0.14 -0.01,0.08 -0.09,0.13 -0.17,0.12 -0.16,-0.02 -0.12,0.12 0.10,0.48 0.22,0.35 0.44,0.50 0.62,0.40 0.12,-0.06 0.19,-0.04 0.35,0.13 0.22,0.23 0.26,0.47 0.08,0.47 -0.06,0 -0.15,0.09 -0.20,0.21 -0.05,0.11 -0.12,0.21 -0.16,0.21 -0.03,0 -0.07,-0.09 -0.08,-0.21 -0.00,-0.11 0.02,-0.21 0.06,-0.21 0.04,0 0.08,-0.05 0.08,-0.12 0,-0.15 -0.09,-0.16 -0.22,-0.03 -0.12,0.12 -0.27,0.02 -0.27,-0.18 0,-0.08 -0.04,-0.16 -0.09,-0.16 -0.05,0 -0.18,-0.10 -0.29,-0.23 -0.15,-0.17 -0.19,-0.19 -0.19,-0.09 0,0.07 -0.05,0.19 -0.12,0.26 -0.15,0.15 -0.00,0.28 0.16,0.14 0.08,-0.07 0.13,-0.07 0.17,0.00 0.03,0.05 0.00,0.14 -0.07,0.20 -0.11,0.08 -0.12,0.13 -0.03,0.32 0.05,0.12 0.15,0.22 0.20,0.22 0.06,0 0.10,0.10 0.10,0.25 0,0.27 -0.14,0.34 -0.22,0.10 -0.05,-0.14 -0.18,-0.27 -0.28,-0.27 -0.08,-0.00 -0.20,0.46 -0.18,0.68 0.03,0.26 0.26,0.39 0.37,0.20 0.10,-0.19 0.23,-0.15 0.23,0.05 5.91e-4,0.15 0.05,0.19 0.24,0.20 0.17,0.01 0.23,-0.01 0.20,-0.09 -0.02,-0.06 -5.92e-4,-0.14 0.05,-0.17 0.05,-0.03 0.11,0.01 0.14,0.11 0.05,0.21 0.09,0.21 0.34,0.04 0.10,-0.07 0.23,-0.10 0.29,-0.06 0.05,0.03 0.28,0.06 0.49,0.06 0.28,0.00 0.37,-0.02 0.31,-0.09 -0.05,-0.06 -0.04,-0.11 0.00,-0.15 0.10,-0.06 0.25,0.01 0.25,0.14 0,0.05 0.06,0.14 0.14,0.20 0.11,0.09 0.12,0.12 0.03,0.18 -0.13,0.09 -0.04,0.68 0.11,0.74 0.05,0.02 0.10,0.16 0.09,0.32 -0.00,0.28 0.21,0.72 0.36,0.72 0.04,0 0.06,-0.03 0.03,-0.08 z m 0.33,-0.26 c -0.07,-0.11 0.08,-0.28 0.20,-0.21 0.09,0.06 0.03,0.30 -0.07,0.30 -0.03,0 -0.09,-0.04 -0.12,-0.09 z m -0.59,-0.08 c -0.03,-0.05 -0.02,-0.13 0.02,-0.17 0.05,-0.05 0.09,-0.03 0.13,0.04 0.05,0.15 -0.07,0.26 -0.15,0.12 z m 1.58,-0.17 c 0.05,-0.15 0.23,-0.18 0.23,-0.03 0,0.07 -0.06,0.13 -0.13,0.13 -0.07,0 -0.11,-0.04 -0.09,-0.09 z m -0.64,-0.06 c -0.06,-0.10 0.09,-0.20 0.20,-0.13 0.09,0.05 0.03,0.20 -0.08,0.20 -0.04,0 -0.09,-0.03 -0.12,-0.07 z m -0.66,-0.06 c -0.07,-0.07 0.01,-0.19 0.15,-0.19 0.06,0 0.12,0.05 0.12,0.12 0,0.12 -0.17,0.17 -0.27,0.07 z m 1.67,-0.11 c -0.06,-0.11 0.03,-0.26 0.13,-0.20 0.10,0.06 0.10,0.29 -5.91e-4,0.29 -0.04,0 -0.10,-0.03 -0.13,-0.08 z M 32.30,23.84 c 0.01,-0.08 0.06,-0.14 0.11,-0.14 0.04,0 0.09,0.06 0.11,0.14 0.01,0.09 -0.02,0.14 -0.11,0.14 -0.08,0 -0.12,-0.05 -0.11,-0.14 z m -0.63,0.00 c -0.09,-0.09 -0.06,-0.19 0.07,-0.19 0.06,0 0.12,0.05 0.12,0.12 0,0.13 -0.09,0.16 -0.19,0.07 z m -0.64,-0.14 c 0,-0.06 0.03,-0.14 0.07,-0.16 0.08,-0.05 0.19,0.16 0.11,0.23 -0.09,0.09 -0.19,0.05 -0.19,-0.07 z m 2.27,-0.05 c 0,-0.09 0.04,-0.15 0.09,-0.13 0.15,0.05 0.17,0.20 0.03,0.26 -0.09,0.03 -0.13,-0.00 -0.13,-0.12 z m -0.62,0.01 c -0.08,-0.14 0.03,-0.29 0.14,-0.18 0.06,0.06 0.06,0.11 0,0.18 -0.06,0.06 -0.10,0.06 -0.14,0 z m -0.62,-0.12 c -0.07,-0.09 -0.07,-0.13 -0.00,-0.18 0.13,-0.08 0.30,0.10 0.19,0.21 -0.06,0.06 -0.11,0.05 -0.18,-0.03 z M 31.37,23.43 c 0.01,-0.08 0.06,-0.14 0.11,-0.13 0.12,0.03 0.10,0.21 -0.03,0.25 -0.07,0.02 -0.10,-0.01 -0.08,-0.11 z m 2.90,0.05 c -0.06,-0.10 0.09,-0.20 0.20,-0.13 0.09,0.05 0.03,0.21 -0.08,0.21 -0.04,0 -0.09,-0.03 -0.12,-0.07 z m -3.54,-0.08 c -0.08,-0.14 0.03,-0.29 0.14,-0.18 0.06,0.06 0.06,0.11 0,0.18 -0.06,0.06 -0.10,0.06 -0.14,0 z m 2.90,-0.04 c 0,-0.06 0.05,-0.12 0.12,-0.12 0.06,0 0.12,0.05 0.12,0.12 0,0.06 -0.05,0.12 -0.12,0.12 -0.06,0 -0.12,-0.05 -0.12,-0.12 z M 32.98,23.30 c 0.05,-0.15 0.23,-0.18 0.23,-0.03 0,0.07 -0.06,0.13 -0.13,0.13 -0.07,0 -0.11,-0.04 -0.10,-0.09 z m -0.60,-0.11 c 0,-0.06 0.05,-0.12 0.12,-0.12 0.06,0 0.12,0.05 0.12,0.12 0,0.06 -0.05,0.12 -0.12,0.12 -0.06,0 -0.12,-0.05 -0.12,-0.12 z m 2.32,0.04 c -0.08,-0.14 0.03,-0.29 0.14,-0.18 0.06,0.06 0.06,0.11 0,0.18 -0.06,0.06 -0.10,0.06 -0.14,0 z m -3.00,-0.13 c 0,-0.06 0.05,-0.12 0.12,-0.12 0.06,0 0.12,0.05 0.12,0.12 0,0.06 -0.05,0.12 -0.12,0.12 -0.06,0 -0.12,-0.05 -0.12,-0.12 z m 2.32,0.04 c -0.07,-0.12 0.02,-0.25 0.16,-0.20 0.06,0.02 0.09,0.09 0.07,0.16 -0.05,0.13 -0.16,0.15 -0.23,0.03 z m -2.95,-0.07 c -0.06,-0.10 0.09,-0.20 0.20,-0.13 0.09,0.05 0.03,0.21 -0.08,0.21 -0.04,0 -0.09,-0.03 -0.12,-0.07 z m 2.28,0.00 c -0.02,-0.04 0.00,-0.11 0.07,-0.17 0.13,-0.10 0.26,0.01 0.17,0.16 -0.06,0.10 -0.18,0.10 -0.24,0.00 z m -0.62,-0.14 c 0.01,-0.08 0.06,-0.14 0.11,-0.13 0.12,0.03 0.10,0.21 -0.03,0.25 -0.07,0.02 -0.10,-0.01 -0.08,-0.11 z m -0.64,-0.03 c -0.02,-0.04 0.00,-0.10 0.08,-0.13 0.16,-0.06 0.25,0.00 0.17,0.13 -0.07,0.11 -0.18,0.11 -0.25,0.00 z m 2.93,-0.02 c 0.01,-0.05 0.09,-0.11 0.17,-0.13 0.09,-0.01 0.12,0.01 0.08,0.10 -0.05,0.15 -0.31,0.18 -0.26,0.02 z M 31.44,22.77 c 0,-0.06 0.05,-0.12 0.12,-0.12 0.06,0 0.12,0.05 0.12,0.12 0,0.06 -0.05,0.12 -0.12,0.12 -0.06,0 -0.12,-0.05 -0.12,-0.12 z m 2.91,0.04 c -0.02,-0.04 -0.01,-0.10 0.03,-0.13 0.10,-0.06 0.25,0.01 0.25,0.13 0,0.10 -0.22,0.10 -0.29,0.00 z m -3.59,-0.13 c 0,-0.06 0.07,-0.12 0.16,-0.12 0.11,0 0.15,0.04 0.11,0.12 -0.02,0.06 -0.10,0.12 -0.16,0.12 -0.06,0 -0.11,-0.05 -0.11,-0.12 z m 2.32,0.04 c -0.06,-0.10 0.01,-0.25 0.13,-0.25 0.10,0 0.10,0.22 0.00,0.29 -0.04,0.02 -0.10,0.01 -0.13,-0.03 z m 0.63,-0.05 c 0,-0.07 0.04,-0.11 0.10,-0.10 0.15,0.05 0.18,0.23 0.03,0.23 -0.07,0 -0.13,-0.06 -0.13,-0.13 z m 1.65,-0.02 c -0.06,-0.10 0.09,-0.20 0.20,-0.13 0.09,0.05 0.03,0.20 -0.08,0.20 -0.04,0 -0.09,-0.03 -0.12,-0.07 z m -5.87,-0.13 c 0,-0.06 0.05,-0.12 0.12,-0.12 0.06,0 0.12,0.05 0.12,0.12 0,0.06 -0.05,0.12 -0.12,0.12 -0.06,0 -0.12,-0.05 -0.12,-0.12 z m 2.32,0.04 c -0.06,-0.09 0.01,-0.25 0.13,-0.25 0.04,0 0.07,0.07 0.07,0.16 0,0.17 -0.12,0.22 -0.21,0.08 z m 0.64,0 c 0.04,-0.12 0.17,-0.14 0.21,-0.02 0.01,0.05 -0.02,0.10 -0.10,0.10 -0.07,0 -0.12,-0.03 -0.11,-0.08 z m 2.26,-0.04 c 0,-0.06 0.05,-0.12 0.12,-0.12 0.06,0 0.12,0.05 0.12,0.12 0,0.06 -0.05,0.12 -0.12,0.12 -0.06,0 -0.12,-0.05 -0.12,-0.12 z m -5.90,-0.08 c 0,-0.08 0.05,-0.12 0.14,-0.11 0.08,0.01 0.14,0.06 0.14,0.11 0,0.04 -0.06,0.09 -0.14,0.11 -0.09,0.01 -0.14,-0.02 -0.14,-0.11 z m 2.31,0.03 c -0.08,-0.14 0.10,-0.30 0.22,-0.18 0.09,0.09 0.03,0.27 -0.09,0.27 -0.04,0 -0.09,-0.04 -0.13,-0.09 z m 2.91,-0.03 c 0,-0.06 0.05,-0.12 0.12,-0.12 0.06,0 0.12,0.05 0.12,0.12 0,0.06 -0.05,0.12 -0.12,0.12 -0.06,0 -0.12,-0.05 -0.12,-0.12 z m -5.86,-0.03 c -0.02,-0.04 -0.01,-0.10 0.03,-0.13 0.10,-0.06 0.25,0.01 0.25,0.13 0,0.10 -0.22,0.10 -0.29,5.92e-4 z m 2.31,-0.08 c 0,-0.10 0.04,-0.16 0.10,-0.14 0.05,0.01 0.10,0.08 0.10,0.14 0,0.06 -0.04,0.12 -0.10,0.14 -0.06,0.02 -0.10,-0.03 -0.10,-0.14 z m 2.91,0.08 c -0.06,-0.10 0.09,-0.20 0.20,-0.13 0.09,0.05 0.03,0.20 -0.08,0.20 -0.04,0 -0.09,-0.03 -0.12,-0.07 z m 2.35,-0.03 c -0.07,-0.18 0.02,-0.28 0.15,-0.15 0.07,0.07 0.07,0.12 0.00,0.19 -0.07,0.07 -0.11,0.06 -0.15,-0.04 z m -8.25,-0.09 c -0.03,-0.08 0.00,-0.12 0.11,-0.12 0.09,0 0.16,0.05 0.16,0.12 0,0.06 -0.05,0.12 -0.11,0.12 -0.06,0 -0.13,-0.05 -0.16,-0.12 z m 2.34,0.03 c -0.09,-0.14 0.09,-0.26 0.20,-0.12 0.07,0.09 0.07,0.13 -0.02,0.16 -0.06,0.02 -0.15,0.00 -0.18,-0.03 z m 2.91,-0.03 c 0,-0.06 0.05,-0.12 0.12,-0.12 0.06,0 0.12,0.05 0.12,0.12 0,0.06 -0.05,0.12 -0.12,0.12 -0.06,0 -0.12,-0.05 -0.12,-0.12 z m 2.32,0.04 c -0.06,-0.09 0.01,-0.25 0.13,-0.25 0.04,0 0.07,0.07 0.07,0.16 0,0.17 -0.12,0.22 -0.21,0.08 z m -5.89,-0.06 c -0.02,-0.03 -0.00,-0.12 0.03,-0.18 0.05,-0.09 0.09,-0.09 0.17,-0.02 0.05,0.05 0.07,0.13 0.04,0.18 -0.06,0.10 -0.18,0.12 -0.24,0.02 z m 2.94,-0.01 c -0.06,-0.10 0.09,-0.20 0.20,-0.13 0.09,0.05 0.03,0.21 -0.08,0.21 -0.04,0 -0.09,-0.03 -0.12,-0.07 z m 2.27,-0.01 c -0.08,-0.14 0.10,-0.30 0.22,-0.18 0.09,0.09 0.03,0.27 -0.09,0.27 -0.04,0 -0.09,-0.04 -0.13,-0.09 z m -5.86,-0.15 c 0,-0.12 0.03,-0.15 0.13,-0.12 0.14,0.05 0.12,0.21 -0.03,0.26 -0.05,0.01 -0.10,-0.04 -0.10,-0.13 z m 2.95,0.03 c 0,-0.06 0.05,-0.12 0.12,-0.12 0.06,0 0.12,0.05 0.12,0.12 0,0.06 -0.05,0.12 -0.12,0.12 -0.06,0 -0.12,-0.05 -0.12,-0.12 z m 2.29,-0.01 c 0.01,-0.08 0.06,-0.14 0.11,-0.13 0.12,0.03 0.10,0.21 -0.03,0.25 -0.07,0.02 -0.10,-0.01 -0.08,-0.12 z m -2.94,-0.04 c 0.05,-0.15 0.23,-0.18 0.23,-0.03 0,0.07 -0.06,0.13 -0.13,0.13 -0.07,0 -0.11,-0.04 -0.10,-0.09 z m 2.31,0.04 c -0.10,-0.10 -0.05,-0.19 0.11,-0.19 0.11,0 0.15,0.04 0.11,0.12 -0.05,0.13 -0.13,0.16 -0.22,0.07 z m 2.89,-0.07 c 0,-0.06 0.05,-0.12 0.12,-0.12 0.06,0 0.12,0.05 0.12,0.12 0,0.06 -0.05,0.12 -0.12,0.12 -0.06,0 -0.12,-0.05 -0.12,-0.12 z m -5.86,-0.03 c -0.02,-0.04 -0.01,-0.10 0.03,-0.13 0.10,-0.06 0.25,0.01 0.25,0.13 0,0.10 -0.22,0.10 -0.29,5.92e-4 z m 2.31,-0.04 c 0,-0.07 0.04,-0.12 0.10,-0.10 0.11,0.03 0.10,0.17 -0.02,0.21 -0.04,0.01 -0.08,-0.03 -0.08,-0.11 z m 2.89,0.02 c 0.01,-0.05 0.08,-0.10 0.14,-0.10 0.06,0 0.12,0.04 0.14,0.10 0.02,0.06 -0.03,0.10 -0.14,0.10 -0.10,0 -0.16,-0.04 -0.14,-0.10 z m -5.84,-0.11 c 0,-0.07 0.04,-0.11 0.10,-0.10 0.15,0.05 0.18,0.23 0.03,0.23 -0.07,0 -0.13,-0.06 -0.13,-0.13 z m 2.29,-0.01 c 0.01,-0.08 0.06,-0.14 0.11,-0.14 0.04,0 0.09,0.06 0.11,0.14 0.01,0.09 -0.02,0.14 -0.11,0.14 -0.08,0 -0.12,-0.05 -0.11,-0.14 z m 2.93,0.02 c 0,-0.06 0.05,-0.12 0.12,-0.12 0.06,0 0.12,0.05 0.12,0.12 0,0.06 -0.05,0.12 -0.12,0.12 -0.06,0 -0.12,-0.05 -0.12,-0.12 z m -5.91,-0.08 c 0,-0.08 0.05,-0.12 0.14,-0.11 0.08,0.01 0.14,0.06 0.14,0.11 0,0.04 -0.06,0.09 -0.14,0.11 -0.09,0.01 -0.14,-0.02 -0.14,-0.11 z m 2.32,0.04 c -0.06,-0.10 0.09,-0.20 0.20,-0.13 0.09,0.05 0.03,0.21 -0.08,0.21 -0.04,0 -0.09,-0.03 -0.12,-0.07 z m 2.92,-0.01 c 0.04,-0.13 0.22,-0.15 0.25,-0.03 0.01,0.04 -0.04,0.09 -0.13,0.11 -0.10,0.01 -0.14,-0.00 -0.11,-0.08 z m -5.90,-0.08 c 0.04,-0.13 0.22,-0.15 0.25,-0.03 0.01,0.04 -0.04,0.09 -0.13,0.11 -0.10,0.01 -0.14,-0.00 -0.11,-0.08 z m 2.34,-0.02 c 0,-0.07 0.06,-0.13 0.13,-0.13 0.14,0 0.12,0.18 -0.03,0.23 -0.05,0.01 -0.10,-0.02 -0.10,-0.09 z m 2.31,0.00 c -0.07,-0.18 0.02,-0.28 0.15,-0.15 0.07,0.07 0.07,0.12 0.00,0.19 -0.07,0.07 -0.11,0.06 -0.15,-0.04 z m 0.55,-0.01 c 0,-0.08 0.05,-0.12 0.14,-0.11 0.08,0.01 0.14,0.06 0.14,0.11 0,0.04 -0.06,0.09 -0.14,0.11 -0.09,0.01 -0.14,-0.02 -0.14,-0.11 z m 2.36,0 c 0,-0.06 0.05,-0.12 0.12,-0.12 0.06,0 0.12,0.05 0.12,0.12 0,0.06 -0.05,0.12 -0.12,0.12 -0.06,0 -0.12,-0.05 -0.12,-0.12 z m -5.91,-0.08 c 0,-0.06 0.05,-0.12 0.12,-0.12 0.06,0 0.12,0.05 0.12,0.12 0,0.06 -0.05,0.12 -0.12,0.12 -0.06,0 -0.12,-0.05 -0.12,-0.12 z m 2.31,0.03 c -0.08,-0.14 0.10,-0.30 0.22,-0.18 0.09,0.09 0.03,0.27 -0.09,0.27 -0.04,0 -0.10,-0.04 -0.13,-0.09 z m 2.91,-0.03 c 0,-0.08 0.05,-0.12 0.14,-0.11 0.08,0.01 0.14,0.06 0.14,0.11 0,0.04 -0.06,0.09 -0.14,0.11 -0.09,0.01 -0.14,-0.02 -0.14,-0.11 z m -5.86,-0.03 c -0.06,-0.10 0.09,-0.20 0.20,-0.13 0.09,0.05 0.03,0.21 -0.08,0.21 -0.04,0 -0.09,-0.03 -0.12,-0.07 z m 2.35,-0.03 c -0.07,-0.18 0.02,-0.28 0.15,-0.15 0.07,0.07 0.07,0.12 0.00,0.19 -0.07,0.07 -0.11,0.06 -0.15,-0.04 z m 2.88,0.03 c -0.06,-0.10 0.09,-0.20 0.20,-0.13 0.09,0.05 0.03,0.21 -0.08,0.21 -0.04,0 -0.09,-0.03 -0.12,-0.07 z m -3.54,-0.09 c -0.06,-0.11 0.03,-0.26 0.13,-0.20 0.10,0.06 0.10,0.29 -5.91e-4,0.29 -0.04,0 -0.10,-0.03 -0.13,-0.08 z m 2.92,-0.06 c 0.01,-0.08 0.06,-0.14 0.11,-0.14 0.04,0 0.09,0.06 0.11,0.14 0.01,0.09 -0.02,0.14 -0.11,0.14 -0.08,0 -0.12,-0.05 -0.11,-0.14 z m 2.30,0.06 c -0.06,-0.10 0.01,-0.25 0.13,-0.25 0.10,0 0.10,0.22 0.00,0.29 -0.04,0.02 -0.10,0.01 -0.13,-0.03 z M 27.98,21.33 c 0,-0.06 0.05,-0.12 0.12,-0.12 0.06,0 0.12,0.05 0.12,0.12 0,0.06 -0.05,0.12 -0.12,0.12 -0.06,0 -0.12,-0.05 -0.12,-0.12 z m 2.31,0.03 c -0.08,-0.14 0.10,-0.30 0.22,-0.18 0.09,0.09 0.03,0.27 -0.09,0.27 -0.04,0 -0.09,-0.04 -0.13,-0.09 z m 2.91,-0.03 c 0,-0.06 -0.06,-0.15 -0.13,-0.20 -0.08,-0.04 -0.11,-0.13 -0.08,-0.22 0.03,-0.07 0.09,-0.11 0.14,-0.08 0.04,0.03 0.06,0.11 0.04,0.18 -0.03,0.07 0.01,0.14 0.12,0.16 0.19,0.05 0.23,0.27 0.04,0.27 -0.06,0 -0.12,-0.05 -0.12,-0.12 z m 2.36,0.03 c -0.09,-0.06 -0.10,-0.09 -0.02,-0.18 0.08,-0.08 0.12,-0.08 0.20,-0.00 0.13,0.13 -0.01,0.29 -0.18,0.18 z m -5.90,-0.16 c 0,-0.10 0.04,-0.16 0.10,-0.14 0.05,0.01 0.10,0.08 0.10,0.14 0,0.06 -0.04,0.12 -0.10,0.14 -0.06,0.02 -0.10,-0.03 -0.10,-0.14 z m 2.95,0.04 c 0,-0.07 0.04,-0.12 0.10,-0.10 0.11,0.03 0.10,0.17 -0.02,0.21 -0.04,0.01 -0.08,-0.03 -0.08,-0.11 z m 2.27,-0.04 c 0,-0.10 0.04,-0.16 0.10,-0.14 0.05,0.01 0.10,0.08 0.10,0.14 0,0.06 -0.04,0.12 -0.10,0.14 -0.06,0.02 -0.10,-0.03 -0.10,-0.14 z m -2.95,-0.04 c 0,-0.06 0.05,-0.12 0.12,-0.12 0.06,0 0.12,0.05 0.12,0.12 0,0.06 -0.05,0.12 -0.12,0.12 -0.06,0 -0.12,-0.05 -0.12,-0.12 z m 2.32,0.04 c -0.06,-0.11 0.03,-0.26 0.13,-0.20 0.10,0.06 0.10,0.29 -5.91e-4,0.29 -0.04,0 -0.10,-0.03 -0.13,-0.08 z m -2.95,-0.07 c -0.06,-0.10 0.09,-0.20 0.20,-0.13 0.09,0.05 0.03,0.20 -0.08,0.20 -0.04,0 -0.09,-0.03 -0.12,-0.07 z m 2.27,-0.01 c -0.08,-0.14 0.10,-0.30 0.22,-0.18 0.09,0.09 0.03,0.27 -0.09,0.27 -0.04,0 -0.09,-0.04 -0.13,-0.09 z m -2.90,-0.11 c 0,-0.06 0.05,-0.12 0.12,-0.12 0.06,0 0.12,0.05 0.12,0.12 0,0.06 -0.05,0.12 -0.12,0.12 -0.06,0 -0.12,-0.05 -0.12,-0.12 z m 5.23,0 c 0,-0.06 0.05,-0.12 0.12,-0.12 0.06,0 0.12,0.05 0.12,0.12 0,0.06 -0.05,0.12 -0.12,0.12 -0.06,0 -0.12,-0.05 -0.12,-0.12 z m -5.90,-0.08 c 0,-0.06 0.05,-0.12 0.12,-0.12 0.06,0 0.12,0.05 0.12,0.12 0,0.06 -0.05,0.12 -0.12,0.12 -0.06,0 -0.12,-0.05 -0.12,-0.12 z m 2.32,0.04 c -0.09,-0.14 0.04,-0.27 0.17,-0.16 0.06,0.05 0.09,0.13 0.07,0.17 -0.06,0.09 -0.18,0.09 -0.24,-0.00 z m 2.91,-0.04 c 0,-0.06 0.05,-0.12 0.12,-0.12 0.06,0 0.12,0.05 0.12,0.12 0,0.06 -0.05,0.12 -0.12,0.12 -0.06,0 -0.12,-0.05 -0.12,-0.12 z m -5.89,-0.05 c 0.04,-0.13 0.22,-0.15 0.25,-0.03 0.01,0.04 -0.04,0.09 -0.13,0.11 -0.10,0.01 -0.14,-0.00 -0.11,-0.08 z m 2.34,-0.02 c 0,-0.07 0.05,-0.13 0.13,-0.13 0.14,0 0.12,0.18 -0.03,0.23 -0.05,0.01 -0.09,-0.02 -0.09,-0.09 z m 2.89,0.01 c 0.01,-0.05 0.08,-0.10 0.14,-0.10 0.06,0 0.12,0.04 0.14,0.10 0.02,0.06 -0.03,0.10 -0.14,0.10 -0.10,0 -0.16,-0.04 -0.14,-0.10 z m -3.51,-0.03 c -0.09,-0.09 -0.06,-0.19 0.07,-0.19 0.06,0 0.12,0.05 0.12,0.12 0,0.13 -0.09,0.16 -0.19,0.07 z m 2.89,-0.07 c 0,-0.06 0.05,-0.12 0.12,-0.12 0.06,0 0.12,0.05 0.12,0.12 0,0.06 -0.05,0.12 -0.12,0.12 -0.06,0 -0.12,-0.05 -0.12,-0.12 z m -3.57,-0.01 c -0.06,-0.06 0.00,-0.19 0.11,-0.19 0.04,0 0.07,0.05 0.07,0.12 0,0.13 -0.09,0.16 -0.19,0.07 z m 2.89,-0.07 c 0,-0.06 0.05,-0.12 0.12,-0.12 0.06,0 0.12,0.05 0.12,0.12 0,0.06 -0.05,0.12 -0.12,0.12 -0.06,0 -0.12,-0.05 -0.12,-0.12 z m 2.31,0.03 c -0.08,-0.14 0.10,-0.30 0.22,-0.18 0.09,0.09 0.03,0.27 -0.09,0.27 -0.04,0 -0.09,-0.04 -0.13,-0.09 z m -5.84,-0.13 c 0.01,-0.08 0.06,-0.14 0.11,-0.13 0.12,0.03 0.10,0.21 -0.03,0.25 -0.07,0.02 -0.10,-0.01 -0.08,-0.11 z m 2.30,0.05 c -0.06,-0.10 0.01,-0.25 0.13,-0.25 0.10,0 0.10,0.22 0.00,0.29 -0.04,0.02 -0.10,0.01 -0.13,-0.03 z m 0.59,0.00 c -0.06,-0.10 0.09,-0.20 0.20,-0.13 0.09,0.05 0.03,0.21 -0.08,0.21 -0.04,0 -0.09,-0.03 -0.12,-0.07 z m 2.31,-0.04 c 0,-0.06 0.05,-0.12 0.12,-0.12 0.06,0 0.12,0.05 0.12,0.12 0,0.06 -0.05,0.12 -0.12,0.12 -0.06,0 -0.12,-0.05 -0.12,-0.12 z m -5.90,-0.08 c 0,-0.06 0.05,-0.12 0.12,-0.12 0.06,0 0.12,0.05 0.12,0.12 0,0.06 -0.05,0.12 -0.12,0.12 -0.06,0 -0.12,-0.05 -0.12,-0.12 z m 2.31,0.03 c -0.07,-0.11 0.09,-0.27 0.20,-0.20 0.05,0.03 0.09,0.08 0.09,0.12 0,0.11 -0.24,0.17 -0.30,0.07 z m 2.91,-0.03 c 0,-0.06 0.05,-0.12 0.12,-0.12 0.06,0 0.12,0.05 0.12,0.12 0,0.06 -0.05,0.12 -0.12,0.12 -0.06,0 -0.12,-0.05 -0.12,-0.12 z m -5.86,-0.03 c -0.06,-0.10 0.09,-0.20 0.20,-0.13 0.09,0.05 0.03,0.20 -0.08,0.20 -0.04,0 -0.09,-0.03 -0.12,-0.07 z m 2.35,-0.03 c -0.07,-0.18 0.02,-0.28 0.15,-0.15 0.07,0.07 0.07,0.12 0.00,0.19 -0.07,0.07 -0.11,0.06 -0.15,-0.04 z m 2.88,0.03 c -0.06,-0.10 0.09,-0.20 0.20,-0.13 0.09,0.05 0.03,0.20 -0.08,0.20 -0.04,0 -0.09,-0.03 -0.12,-0.07 z m -3.54,-0.08 c -0.08,-0.14 0.03,-0.29 0.14,-0.18 0.06,0.06 0.06,0.11 0,0.18 -0.06,0.06 -0.10,0.06 -0.14,0 z m 2.90,-0.04 c 0,-0.07 0.06,-0.13 0.13,-0.13 0.14,0 0.12,0.18 -0.03,0.23 -0.05,0.01 -0.10,-0.02 -0.10,-0.10 z m -3.59,-0.05 c -0.05,-0.09 0.02,-0.24 0.12,-0.24 0.03,0 0.09,0.05 0.11,0.11 0.05,0.13 -0.16,0.25 -0.24,0.13 z m 2.97,0.03 c -0.06,-0.06 0.00,-0.19 0.11,-0.19 0.04,0 0.07,0.05 0.07,0.12 0,0.13 -0.09,0.16 -0.19,0.07 z m 2.25,-0.03 c -0.08,-0.14 0.10,-0.30 0.22,-0.18 0.09,0.09 0.03,0.27 -0.09,0.27 -0.04,0 -0.09,-0.04 -0.13,-0.09 z m -5.86,-0.16 c 0,-0.10 0.04,-0.16 0.10,-0.14 0.05,0.01 0.10,0.08 0.10,0.14 0,0.06 -0.04,0.12 -0.10,0.14 -0.06,0.02 -0.10,-0.03 -0.10,-0.14 z m 2.95,0.04 c 0,-0.06 0.05,-0.12 0.12,-0.12 0.06,0 0.12,0.05 0.12,0.12 0,0.06 -0.05,0.12 -0.12,0.12 -0.06,0 -0.12,-0.05 -0.12,-0.12 z m -3.58,-0.03 c -0.08,-0.14 0.03,-0.29 0.14,-0.18 0.06,0.06 0.06,0.11 0,0.18 -0.06,0.06 -0.10,0.06 -0.14,0 z m 2.90,-0.04 c 0,-0.06 0.05,-0.12 0.12,-0.12 0.06,0 0.12,0.05 0.12,0.12 0,0.06 -0.05,0.12 -0.12,0.12 -0.06,0 -0.12,-0.05 -0.12,-0.12 z m -0.62,-0.03 c -0.06,-0.10 0.09,-0.20 0.20,-0.13 0.09,0.05 0.03,0.20 -0.08,0.20 -0.04,0 -0.09,-0.03 -0.12,-0.07 z m 2.27,0 c -0.02,-0.03 0.00,-0.11 0.07,-0.16 0.08,-0.07 0.12,-0.06 0.16,0.02 0.05,0.13 -0.16,0.25 -0.23,0.14 z M 29.84,19.90 c 0,-0.06 0.05,-0.12 0.12,-0.12 0.06,0 0.12,0.05 0.12,0.12 0,0.06 -0.05,0.12 -0.12,0.12 -0.06,0 -0.12,-0.05 -0.12,-0.12 z m 2.32,0.04 c -0.06,-0.11 0.03,-0.26 0.13,-0.20 0.10,0.06 0.10,0.29 -0.00,0.29 -0.04,0 -0.10,-0.03 -0.13,-0.08 z m -2.99,-0.12 c 0,-0.06 0.05,-0.12 0.12,-0.12 0.06,0 0.12,0.05 0.12,0.12 0,0.06 -0.05,0.12 -0.12,0.12 -0.06,0 -0.12,-0.05 -0.12,-0.12 z m 2.32,0.04 c -0.06,-0.11 0.03,-0.26 0.13,-0.20 0.10,0.06 0.10,0.29 -0.00,0.29 -0.04,0 -0.10,-0.03 -0.13,-0.08 z m -2.97,-0.09 c 0.04,-0.13 0.22,-0.15 0.25,-0.03 0.01,0.04 -0.04,0.09 -0.13,0.11 -0.10,0.02 -0.14,-0.00 -0.11,-0.08 z m 2.34,-0.02 c 0,-0.07 0.06,-0.13 0.13,-0.13 0.14,0 0.12,0.18 -0.03,0.23 -0.05,0.01 -0.10,-0.02 -0.10,-0.10 z m -0.67,-0.09 c 0,-0.06 0.05,-0.12 0.12,-0.12 0.06,0 0.12,0.05 0.12,0.12 0,0.06 -0.05,0.12 -0.12,0.12 -0.06,0 -0.12,-0.05 -0.12,-0.12 z m -0.61,-0.01 c -0.09,-0.09 -0.06,-0.19 0.07,-0.19 0.06,0 0.12,0.05 0.12,0.12 0,0.13 -0.09,0.16 -0.19,0.07 z m 2.91,-0.04 c 0.05,-0.15 0.23,-0.18 0.23,-0.03 0,0.07 -0.05,0.13 -0.13,0.13 -0.07,0 -0.11,-0.04 -0.09,-0.10 z m -3.60,-0.06 c -0.02,-0.04 0.00,-0.10 0.08,-0.13 0.16,-0.06 0.25,0.00 0.17,0.13 -0.06,0.11 -0.18,0.11 -0.25,0.00 z m 2.36,0.00 c -0.06,-0.10 0.01,-0.25 0.13,-0.25 0.10,0 0.10,0.22 0.00,0.29 -0.04,0.02 -0.10,0.00 -0.13,-0.03 z m 0.63,-0.05 c 0,-0.07 0.04,-0.11 0.10,-0.09 0.15,0.05 0.18,0.23 0.03,0.23 -0.07,0 -0.13,-0.06 -0.13,-0.13 z m -3.63,-0.07 c 0,-0.06 0.05,-0.12 0.12,-0.12 0.06,0 0.12,0.05 0.12,0.12 0,0.06 -0.05,0.12 -0.12,0.12 -0.06,0 -0.12,-0.05 -0.12,-0.12 z m 2.31,0.03 c -0.07,-0.11 0.08,-0.28 0.20,-0.21 0.09,0.05 0.03,0.30 -0.07,0.30 -0.03,0 -0.09,-0.04 -0.12,-0.09 z m -0.59,-0.10 c -0.07,-0.18 0.02,-0.28 0.15,-0.15 0.07,0.07 0.07,0.12 0.00,0.19 -0.07,0.07 -0.11,0.06 -0.15,-0.04 z m -0.66,-0.04 c -0.08,-0.14 0.03,-0.29 0.14,-0.18 0.06,0.06 0.06,0.11 0,0.18 -0.06,0.06 -0.10,0.06 -0.14,0 z m 2.90,-0.04 c 0,-0.06 0.05,-0.12 0.12,-0.12 0.06,0 0.12,0.05 0.12,0.12 0,0.06 -0.05,0.12 -0.12,0.12 -0.06,0 -0.12,-0.05 -0.12,-0.12 z m -3.59,-0.04 c -0.07,-0.11 0.08,-0.28 0.20,-0.21 0.09,0.05 0.03,0.30 -0.07,0.30 -0.03,0 -0.09,-0.04 -0.12,-0.09 z m 2.96,0.01 c -0.06,-0.10 0.09,-0.20 0.20,-0.13 0.09,0.05 0.03,0.20 -0.08,0.20 -0.04,0 -0.09,-0.03 -0.12,-0.07 z m -0.67,-0.08 c -0.02,-0.04 -0.01,-0.10 0.03,-0.13 0.10,-0.06 0.25,0.01 0.25,0.13 0,0.10 -0.22,0.10 -0.29,5.9e-4 z m -0.63,-0.13 c 0,-0.06 0.05,-0.12 0.12,-0.12 0.06,0 0.12,0.05 0.12,0.12 0,0.06 -0.05,0.12 -0.12,0.12 -0.06,0 -0.12,-0.05 -0.12,-0.12 z m 2.32,0.04 c -0.08,-0.14 0.03,-0.29 0.14,-0.18 0.06,0.06 0.06,0.11 0,0.18 -0.06,0.06 -0.10,0.06 -0.14,0 z m -2.98,-0.10 c 0.04,-0.13 0.22,-0.15 0.25,-0.03 0.01,0.04 -0.04,0.09 -0.13,0.11 -0.10,0.01 -0.14,-0.00 -0.12,-0.08 z m 2.36,-0.04 c 0.01,-0.08 0.06,-0.14 0.11,-0.13 0.12,0.03 0.10,0.21 -0.03,0.25 -0.07,0.02 -0.10,-0.01 -0.08,-0.11 z m -2.99,-5.91e-4 c -0.07,-0.07 0.01,-0.19 0.15,-0.19 0.06,0 0.12,0.05 0.12,0.12 0,0.12 -0.17,0.17 -0.27,0.07 z m 2.32,-0.09 c 0.01,-0.08 0.06,-0.14 0.11,-0.14 0.04,0 0.09,0.06 0.11,0.14 0.01,0.09 -0.02,0.14 -0.11,0.14 -0.08,0 -0.12,-0.05 -0.11,-0.14 z m -0.63,0.00 c -0.09,-0.09 -0.06,-0.19 0.07,-0.19 0.06,0 0.12,0.05 0.12,0.12 0,0.13 -0.09,0.16 -0.19,0.07 z m -0.68,-0.11 c -0.02,-0.04 0.00,-0.10 0.08,-0.13 0.16,-0.06 0.25,0.00 0.17,0.13 -0.07,0.11 -0.18,0.11 -0.25,0.00 z M 29.33,18.55 c 0,-0.06 0.05,-0.12 0.12,-0.12 0.06,0 0.12,0.05 0.12,0.12 0,0.06 -0.05,0.12 -0.12,0.12 -0.06,0 -0.12,-0.05 -0.12,-0.12 z m 2.97,0.02 c 0.05,-0.15 0.23,-0.18 0.23,-0.03 0,0.07 -0.06,0.13 -0.13,0.13 -0.07,0 -0.11,-0.04 -0.10,-0.10 z M 31.63,18.49 c 0.04,-0.13 0.22,-0.15 0.25,-0.03 0.01,0.04 -0.04,0.09 -0.13,0.11 -0.10,0.02 -0.14,-0.00 -0.11,-0.08 z m -1.23,-0.06 c -0.08,-0.14 0.03,-0.29 0.14,-0.18 0.06,0.06 0.06,0.11 0,0.18 -0.06,0.06 -0.10,0.06 -0.14,0 z m 0.62,-0.05 c 0,-0.07 0.04,-0.11 0.09,-0.09 0.15,0.05 0.18,0.23 0.03,0.23 -0.07,0 -0.13,-0.05 -0.13,-0.13 z m 2.27,0.01 c 0,-0.07 0.05,-0.13 0.13,-0.13 0.14,0 0.12,0.18 -0.03,0.23 -0.05,0.01 -0.09,-0.02 -0.09,-0.10 z m -3.58,-0.04 c -0.06,-0.09 0.01,-0.25 0.13,-0.25 0.04,0 0.07,0.07 0.07,0.16 0,0.17 -0.12,0.22 -0.21,0.08 z m 2.91,-0.04 c 0,-0.06 0.05,-0.12 0.12,-0.12 0.06,0 0.12,0.05 0.12,0.12 0,0.06 -0.05,0.12 -0.12,0.12 -0.06,0 -0.12,-0.05 -0.12,-0.12 z m -3.54,-0.12 c 0,-0.10 0.04,-0.16 0.10,-0.14 0.05,0.01 0.10,0.08 0.10,0.14 0,0.06 -0.04,0.12 -0.10,0.14 -0.06,0.02 -0.10,-0.03 -0.10,-0.14 z m 2.91,0.08 c -0.06,-0.10 0.09,-0.20 0.20,-0.13 0.09,0.05 0.03,0.20 -0.08,0.20 -0.04,0 -0.09,-0.03 -0.12,-0.07 z m -0.63,-0.13 c 0,-0.06 0.05,-0.12 0.12,-0.12 0.06,0 0.12,0.05 0.12,0.12 0,0.06 -0.05,0.12 -0.12,0.12 -0.06,0 -0.12,-0.05 -0.12,-0.12 z m -0.65,-0.05 c 0.05,-0.15 0.23,-0.18 0.23,-0.03 0,0.07 -0.06,0.13 -0.13,0.13 -0.07,0 -0.11,-0.04 -0.09,-0.10 z m 2.30,0.01 c -0.09,-0.14 0.04,-0.27 0.17,-0.16 0.06,0.05 0.09,0.13 0.07,0.17 -0.06,0.09 -0.18,0.09 -0.24,-0.00 z M 27.14,17.96 c 0,-0.07 0.06,-0.13 0.13,-0.13 0.14,0 0.12,0.18 -0.03,0.23 -0.05,0.01 -0.09,-0.02 -0.09,-0.09 z m 2.92,0.06 c -0.07,-0.07 0.01,-0.19 0.15,-0.19 0.06,0 0.12,0.05 0.12,0.12 0,0.12 -0.17,0.17 -0.27,0.07 z m 2.31,-0.08 c 0.01,-0.08 0.06,-0.14 0.11,-0.13 0.12,0.03 0.10,0.21 -0.03,0.25 -0.07,0.02 -0.10,-0.01 -0.08,-0.12 z m -2.96,-0.07 c 0,-0.06 0.05,-0.12 0.12,-0.12 0.06,0 0.12,0.05 0.12,0.12 0,0.06 -0.05,0.12 -0.12,0.12 -0.06,0 -0.12,-0.05 -0.12,-0.12 z m 2.31,0.03 c -0.07,-0.12 0.01,-0.19 0.17,-0.13 0.07,0.02 0.11,0.08 0.08,0.13 -0.06,0.11 -0.18,0.10 -0.25,-0.00 z m -2.97,-0.09 c 0.04,-0.13 0.22,-0.15 0.25,-0.03 0.01,0.04 -0.04,0.09 -0.13,0.11 -0.10,0.02 -0.14,-0.00 -0.11,-0.08 z m 2.30,0.02 c -0.02,-0.04 0.00,-0.11 0.07,-0.17 0.13,-0.10 0.26,0.01 0.17,0.16 -0.06,0.10 -0.18,0.10 -0.24,0.00 z m -2.91,-0.14 c 0,-0.07 0.04,-0.11 0.09,-0.10 0.15,0.05 0.18,0.23 0.03,0.23 -0.07,0 -0.13,-0.06 -0.13,-0.13 z m 2.27,0.00 c 0,-0.06 0.05,-0.12 0.12,-0.12 0.06,0 0.12,0.05 0.12,0.12 0,0.06 -0.05,0.12 -0.12,0.12 -0.06,0 -0.12,-0.05 -0.12,-0.12 z m -0.67,-0.08 c 0,-0.06 0.05,-0.12 0.12,-0.12 0.06,0 0.12,0.05 0.12,0.12 0,0.06 -0.05,0.12 -0.12,0.12 -0.06,0 -0.12,-0.05 -0.12,-0.12 z m -0.63,-0.04 c -0.02,-0.04 0.00,-0.10 0.08,-0.13 0.16,-0.06 0.25,0.00 0.17,0.13 -0.06,0.11 -0.18,0.11 -0.25,0.00 z m -1.26,-0.08 c -0.06,-0.10 0.01,-0.25 0.13,-0.25 0.10,0 0.10,0.22 5.91e-4,0.29 -0.04,0.02 -0.10,0.01 -0.13,-0.03 z m 0.63,-0.04 c 0,-0.06 0.05,-0.12 0.12,-0.12 0.06,0 0.12,0.05 0.12,0.12 0,0.06 -0.05,0.12 -0.12,0.12 -0.06,0 -0.12,-0.05 -0.12,-0.12 z m 2.32,0.04 c -0.06,-0.10 0.01,-0.25 0.13,-0.25 0.10,0 0.10,0.22 0.00,0.29 -0.04,0.02 -0.10,0.01 -0.13,-0.03 z m 0.65,-0.01 c 0.05,-0.15 0.23,-0.18 0.23,-0.03 0,0.07 -0.06,0.13 -0.13,0.13 -0.07,0 -0.11,-0.04 -0.10,-0.09 z m -1.31,-0.05 c -0.02,-0.03 -0.00,-0.12 0.03,-0.18 0.05,-0.09 0.09,-0.09 0.17,-0.02 0.05,0.05 0.07,0.13 0.04,0.18 -0.06,0.10 -0.18,0.12 -0.24,0.02 z m -0.64,-0.08 c 0,-0.12 -0.36,-0.19 -0.43,-0.08 -0.03,0.05 -0.09,0.06 -0.15,0.03 -0.13,-0.08 -0.11,-0.30 0.03,-0.30 0.06,0 0.12,-0.05 0.12,-0.12 0,-0.10 -0.03,-0.11 -0.16,-0.04 -0.22,0.11 -0.34,0.10 -0.34,-0.02 0,-0.15 0.35,-0.47 0.52,-0.47 0.07,0 0.15,-0.05 0.18,-0.12 0.06,-0.17 0.30,-0.15 0.30,0.02 0,0.19 0.45,0.46 0.66,0.39 0.19,-0.06 0.32,0.10 0.13,0.17 -0.07,0.02 -0.13,0.09 -0.13,0.15 0,0.08 -0.21,0.22 -0.69,0.45 -0.03,0.01 -0.06,-0.00 -0.06,-0.05 z m -1.31,-0.19 c -0.08,-0.14 0.10,-0.30 0.22,-0.18 0.09,0.09 0.03,0.27 -0.09,0.27 -0.04,0 -0.09,-0.04 -0.13,-0.09 z m 2.96,0.01 c -0.02,-0.04 -0.01,-0.10 0.03,-0.13 0.10,-0.06 0.25,0.01 0.25,0.13 0,0.10 -0.22,0.10 -0.29,0.00 z m -0.63,-0.13 c 0,-0.06 0.05,-0.12 0.12,-0.12 0.06,0 0.12,0.05 0.12,0.12 0,0.06 -0.05,0.12 -0.12,0.12 -0.06,0 -0.12,-0.05 -0.12,-0.12 z m 0.39,-0.18 c -0.09,-0.09 -0.06,-0.19 0.07,-0.19 0.06,0 0.12,0.05 0.12,0.12 0,0.13 -0.09,0.16 -0.19,0.07 z M 28.28,16.48 c -0.02,-0.04 -0.01,-0.10 0.03,-0.13 0.10,-0.06 0.25,0.01 0.25,0.13 0,0.10 -0.22,0.10 -0.29,0.00 z m 2.37,0.02 c -0.10,-0.10 -0.05,-0.27 0.07,-0.27 0.06,0 0.12,0.05 0.12,0.12 0,0.14 -0.12,0.23 -0.19,0.15 z m -0.71,-0.17 c -0.15,-0.28 -0.47,-0.39 -0.76,-0.27 -0.14,0.05 -0.25,0.14 -0.25,0.18 0,0.17 -0.26,0.05 -0.41,-0.19 -0.18,-0.30 -0.14,-0.44 0.09,-0.38 0.11,0.03 0.15,-0.00 0.15,-0.11 0,-0.08 0.05,-0.16 0.12,-0.16 0.06,0 0.12,0.05 0.12,0.12 0,0.14 0.26,0.16 0.39,0.03 0.06,-0.06 0.15,-0.05 0.31,0.05 0.21,0.13 0.22,0.13 0.34,-0.01 0.10,-0.14 0.12,-0.14 0.16,-0.02 0.02,0.07 0.04,0.18 0.02,0.24 -0.01,0.06 0.04,0.11 0.14,0.11 0.15,0.00 0.17,0.05 0.13,0.28 -0.00,0.04 -0.07,0.09 -0.16,0.12 -0.08,0.02 -0.19,0.07 -0.24,0.09 -0.05,0.02 -0.13,-0.02 -0.18,-0.10 z M 28.02,16.14 c -0.06,-0.11 0.03,-0.26 0.13,-0.20 0.10,0.06 0.10,0.29 -0.00,0.29 -0.04,0 -0.10,-0.03 -0.13,-0.08 z m 2.67,-0.39 c 0.01,-0.08 0.06,-0.14 0.11,-0.13 0.12,0.03 0.10,0.21 -0.03,0.25 -0.07,0.02 -0.10,-0.01 -0.08,-0.11 z M 28.07,15.42 c 0,-0.06 0.05,-0.12 0.12,-0.12 0.06,0 0.12,0.05 0.12,0.12 0,0.06 -0.05,0.12 -0.12,0.12 -0.06,0 -0.12,-0.05 -0.12,-0.12 z m 2.33,0.05 c -0.02,-0.03 -0.01,-0.11 0.02,-0.17 0.08,-0.14 0.26,-0.03 0.20,0.12 -0.05,0.13 -0.16,0.16 -0.23,0.05 z m -0.58,-0.07 c -0.10,-0.10 -0.05,-0.27 0.07,-0.27 0.06,0 0.12,0.05 0.12,0.12 0,0.14 -0.12,0.23 -0.19,0.15 z M 29.13,15.30 c -0.08,-0.14 0.03,-0.29 0.14,-0.18 0.06,0.06 0.06,0.11 0,0.18 -0.06,0.06 -0.10,0.06 -0.14,0 z m -0.66,-0.07 c -0.02,-0.03 -0.00,-0.12 0.03,-0.18 0.06,-0.10 0.08,-0.10 0.15,0 0.08,0.13 0.04,0.25 -0.07,0.25 -0.04,0 -0.09,-0.03 -0.11,-0.06 z m 1.63,-0.22 c 0,-0.06 0.05,-0.12 0.12,-0.12 0.06,0 0.12,0.05 0.12,0.12 0,0.06 -0.05,0.12 -0.12,0.12 -0.06,0 -0.12,-0.05 -0.12,-0.12 z m -0.65,-0.05 c 0.04,-0.13 0.22,-0.15 0.25,-0.03 0.01,0.04 -0.04,0.09 -0.13,0.11 -0.10,0.01 -0.14,-0.00 -0.11,-0.08 z m -0.60,-0.11 c 0,-0.06 0.05,-0.12 0.12,-0.12 0.06,0 0.12,0.05 0.12,0.12 0,0.06 -0.05,0.12 -0.12,0.12 -0.06,0 -0.12,-0.05 -0.12,-0.12 z m 1.64,-0.04 c -0.07,-0.12 0.01,-0.19 0.17,-0.13 0.07,0.02 0.11,0.09 0.08,0.13 -0.06,0.11 -0.18,0.10 -0.25,-0.00 z M 29.84,14.66 c 0,-0.06 0.05,-0.12 0.12,-0.12 0.06,0 0.12,0.05 0.12,0.12 0,0.06 -0.05,0.12 -0.12,0.12 -0.06,0 -0.12,-0.05 -0.12,-0.12 z m -0.67,-0.08 c 0,-0.06 0.05,-0.12 0.12,-0.12 0.06,0 0.12,0.05 0.12,0.12 0,0.06 -0.05,0.12 -0.12,0.12 -0.06,0 -0.12,-0.05 -0.12,-0.12 z m 1.72,-0.07 c -0.07,-0.18 0.02,-0.28 0.15,-0.15 0.07,0.07 0.07,0.12 0.00,0.19 -0.07,0.07 -0.11,0.06 -0.15,-0.04 z m -0.66,-0.04 c -0.08,-0.14 0.03,-0.29 0.14,-0.18 0.06,0.06 0.06,0.11 0,0.18 -0.06,0.06 -0.10,0.06 -0.14,0 z m -15.38,9.60 c 0.02,-0.08 0.08,-0.15 0.14,-0.15 0.06,0 0.08,0.06 0.05,0.16 -0.03,0.14 -0.00,0.16 0.20,0.16 0.16,0 0.24,-0.04 0.24,-0.12 0,-0.06 0.05,-0.12 0.12,-0.12 0.06,0 0.12,0.03 0.12,0.08 0,0.04 0.07,0.08 0.16,0.08 0.19,0 0.22,-0.12 0.05,-0.19 -0.15,-0.06 -0.10,-0.84 0.07,-1.12 0.11,-0.17 0.11,-0.20 0.00,-0.20 -0.07,0 -0.12,-0.03 -0.12,-0.07 0,-0.12 -0.27,-0.18 -0.34,-0.07 -0.05,0.08 -0.10,0.08 -0.23,0.00 -0.20,-0.12 -0.45,-0.14 -0.38,-0.02 0.02,0.04 -0.02,0.08 -0.12,0.08 -0.09,0 -0.17,-0.05 -0.17,-0.11 0,-0.18 -0.26,-0.23 -0.39,-0.07 -0.10,0.13 -0.12,0.13 -0.22,0.01 -0.17,-0.22 -0.37,-0.25 -0.42,-0.06 -0.04,0.18 -0.22,0.13 -0.22,-0.06 0,-0.06 -0.07,-0.12 -0.16,-0.12 -0.11,0 -0.16,0.05 -0.16,0.16 0,0.09 0.05,0.16 0.12,0.16 0.06,0 0.12,0.05 0.12,0.12 0,0.06 -0.05,0.12 -0.12,0.12 -0.13,0 -0.17,0.26 -0.06,0.37 0.03,0.03 0.05,0.29 0.03,0.57 -0.02,0.43 -0.01,0.50 0.10,0.46 0.07,-0.02 0.15,-0.01 0.17,0.02 0.02,0.04 0.34,0.07 0.71,0.06 0.57,-0.00 0.67,-0.02 0.70,-0.16 z m -0.61,-0.02 c 0,-0.07 0.04,-0.12 0.10,-0.10 0.11,0.04 0.10,0.17 -0.02,0.21 -0.04,0.01 -0.08,-0.03 -0.08,-0.11 z m -0.67,-0.08 c 0,-0.06 0.05,-0.12 0.12,-0.12 0.06,0 0.12,0.05 0.12,0.12 0,0.06 -0.05,0.12 -0.12,0.12 -0.06,0 -0.12,-0.05 -0.12,-0.12 z m 1.64,-0.12 c -0.06,-0.11 0.03,-0.26 0.13,-0.20 0.10,0.06 0.10,0.29 -5.9e-4,0.29 -0.04,0 -0.10,-0.03 -0.13,-0.08 z m -1.26,-0.08 c -0.06,-0.09 0.01,-0.25 0.13,-0.25 0.04,0 0.07,0.07 0.07,0.16 0,0.17 -0.12,0.22 -0.21,0.08 z m 0.59,0.00 c -0.02,-0.04 -0.01,-0.10 0.03,-0.13 0.10,-0.06 0.25,0.01 0.25,0.13 0,0.10 -0.22,0.10 -0.29,0.00 z m -1.27,-0.09 c -0.07,-0.12 0.01,-0.19 0.17,-0.13 0.07,0.02 0.11,0.08 0.08,0.13 -0.06,0.11 -0.18,0.10 -0.25,-0.00 z m 1.66,-0.21 c 0.01,-0.08 0.06,-0.14 0.11,-0.13 0.12,0.03 0.10,0.21 -0.03,0.25 -0.07,0.02 -0.10,-0.01 -0.08,-0.11 z m 0.59,0.03 c 0.01,-0.05 0.08,-0.10 0.14,-0.10 0.06,0 0.12,0.04 0.14,0.10 0.02,0.06 -0.03,0.10 -0.14,0.10 -0.10,0 -0.16,-0.04 -0.14,-0.10 z m -1.87,-0.15 c 0,-0.09 0.04,-0.15 0.10,-0.13 0.15,0.05 0.17,0.20 0.03,0.26 -0.09,0.03 -0.13,-0.00 -0.13,-0.12 z m 0.65,0.12 c -0.06,-0.06 0.00,-0.19 0.11,-0.19 0.04,0 0.07,0.05 0.07,0.12 0,0.13 -0.09,0.16 -0.19,0.07 z m 0.32,-0.28 c -0.06,-0.10 0.01,-0.25 0.13,-0.25 0.10,0 0.10,0.22 0.00,0.29 -0.04,0.02 -0.10,0.01 -0.13,-0.03 z m 0.63,-0.04 c 0,-0.06 0.05,-0.12 0.12,-0.12 0.06,0 0.12,0.05 0.12,0.12 0,0.06 -0.05,0.12 -0.12,0.12 -0.06,0 -0.12,-0.05 -0.12,-0.12 z m -1.30,-0.03 c -0.02,-0.04 0.00,-0.11 0.07,-0.17 0.13,-0.10 0.26,0.01 0.17,0.16 -0.06,0.10 -0.18,0.10 -0.24,0.00 z m -0.63,-0.13 c 0,-0.06 0.05,-0.12 0.12,-0.12 0.06,0 0.12,0.05 0.12,0.12 0,0.06 -0.05,0.12 -0.12,0.12 -0.06,0 -0.12,-0.05 -0.12,-0.12 z m 2.32,-0.04 c -0.06,-0.11 0.03,-0.26 0.13,-0.20 0.10,0.06 0.10,0.29 -0.00,0.29 -0.04,0 -0.10,-0.03 -0.13,-0.08 z m -0.67,-0.08 c -0.02,-0.04 0.00,-0.10 0.08,-0.13 0.16,-0.06 0.25,0.00 0.17,0.13 -0.07,0.11 -0.18,0.11 -0.25,0.00 z m -1.27,-0.09 c -0.03,-0.05 -0.01,-0.13 0.04,-0.18 0.07,-0.07 0.11,-0.06 0.17,0.02 0.08,0.13 0.04,0.25 -0.08,0.25 -0.04,0 -0.09,-0.04 -0.13,-0.09 z m 0.63,-0.04 c 0,-0.14 0.18,-0.12 0.23,0.03 0.01,0.05 -0.02,0.10 -0.10,0.10 -0.07,0 -0.13,-0.06 -0.13,-0.13 z m 8.46,0.01 c 0.22,-0.02 0.50,-0.09 0.63,-0.16 0.34,-0.18 0.87,-0.73 1.00,-1.04 0.18,-0.43 0.15,-1.65 -0.03,-2.00 C 24.22,19.21 23.74,18.75 23.40,18.56 22.89,18.25 22.28,18.12 20.39,17.87 c -0.91,-0.11 -1.74,-0.23 -1.84,-0.25 -0.25,-0.05 -0.23,0.05 0.04,0.25 0.21,0.15 0.22,0.15 0.10,0.00 -0.11,-0.14 -0.11,-0.15 0.06,-0.05 0.10,0.05 0.17,0.14 0.16,0.20 -0.01,0.06 0.10,0.10 0.31,0.11 0.43,0.01 1.39,0.17 1.45,0.23 0.10,0.10 -0.05,0.11 -0.57,0.01 -0.52,-0.09 -1.28,-0.05 -1.01,0.05 0.06,0.02 0.77,0.13 1.56,0.22 1.76,0.21 1.99,0.27 2.37,0.61 0.82,0.72 0.86,1.86 0.08,2.45 -0.50,0.38 -0.88,0.37 -5.54,-0.16 -0.58,-0.06 -1.79,-0.20 -2.70,-0.29 -0.90,-0.09 -2.10,-0.22 -2.65,-0.29 C 11.68,20.93 10.79,20.83 10.25,20.78 9.04,20.65 8.57,20.47 8.32,20.03 8.10,19.63 8.09,19.39 8.30,18.91 c 0.18,-0.43 0.60,-0.80 1.00,-0.88 0.35,-0.06 1.71,0.02 2.00,0.14 0.20,0.07 1.11,0.11 1.03,0.04 -0.01,-0.01 -0.16,-0.05 -0.33,-0.07 -0.16,-0.02 -0.44,-0.08 -0.63,-0.13 C 11.21,17.96 10.50,17.86 9.82,17.78 8.37,17.62 8.24,17.65 7.79,18.31 c -0.29,0.43 -0.38,0.93 -0.28,1.59 0.10,0.70 0.79,1.24 1.87,1.47 0.43,0.09 2.90,0.40 3.62,0.46 0.23,0.01 1.45,0.14 2.70,0.28 1.98,0.22 5.05,0.54 5.94,0.62 0.29,0.02 0.37,0.02 1.12,-0.06 z m -0.01,-1.02 c 0.02,-0.01 -0.02,-0.18 -0.11,-0.36 -0.22,-0.45 -0.08,-0.77 0.37,-0.88 0.36,-0.08 0.39,-0.20 0.12,-0.44 -0.15,-0.13 -0.39,-0.18 -1.28,-0.27 -0.60,-0.05 -1.21,-0.12 -1.36,-0.14 l -0.26,-0.04 0.00,0.45 c 0.00,0.40 -0.13,0.82 -0.51,1.51 -0.01,0.02 0.36,0.09 0.83,0.15 0.47,0.05 0.94,0.11 1.03,0.12 0.18,0.03 1.06,-0.03 1.15,-0.08 z m -3.33,-0.39 c 0.20,-0.23 0.40,-0.84 0.33,-1.02 -0.02,-0.07 -0.14,-0.13 -0.27,-0.13 -0.19,0 -0.21,0.02 -0.18,0.25 0.02,0.13 0.00,0.25 -0.03,0.25 -0.03,0 -0.06,0.05 -0.06,0.11 0,0.06 -0.12,0.22 -0.26,0.34 -0.21,0.18 -0.24,0.24 -0.14,0.30 0.20,0.13 0.46,0.08 0.63,-0.11 z m -1.18,-0.12 c 0.08,-0.11 0.11,-0.11 0.11,-0.02 0.00,0.08 0.04,0.07 0.16,-0.04 0.26,-0.28 0.44,-0.70 0.41,-0.97 -0.04,-0.45 -0.21,-0.36 -0.37,0.18 -0.09,0.32 -0.23,0.61 -0.39,0.76 -0.13,0.13 -0.20,0.24 -0.14,0.24 0.05,0 0.15,-0.06 0.21,-0.14 z m 5.07,-0.12 c 0.08,-0.21 0.07,-0.28 -0.00,-0.33 -0.16,-0.10 -0.21,-0.08 -0.36,0.14 -0.11,0.17 -0.11,0.23 -0.03,0.33 0.16,0.19 0.29,0.15 0.40,-0.14 z m -5.86,0.04 c -0.05,-0.15 0.22,-0.24 0.32,-0.10 0.05,0.08 0.07,0.05 0.04,-0.11 -0.04,-0.27 0.06,-0.37 0.23,-0.22 0.10,0.08 0.12,0.06 0.12,-0.09 0.00,-0.11 0.05,-0.27 0.12,-0.36 0.10,-0.14 0.10,-0.18 -0.01,-0.32 -0.13,-0.14 -0.13,-0.15 0.04,-0.20 0.10,-0.02 0.18,-0.07 0.18,-0.11 0,-0.03 0.02,-0.13 0.05,-0.21 0.04,-0.11 0.02,-0.13 -0.08,-0.09 -0.15,0.05 -0.26,-0.06 -0.18,-0.19 0.03,-0.06 0.09,-0.05 0.17,0.01 0.09,0.08 0.11,0.05 0.11,-0.16 0,-0.17 -0.04,-0.26 -0.12,-0.26 -0.14,0 -0.17,-0.22 -0.02,-0.27 0.05,-0.01 0.07,-0.07 0.03,-0.13 -0.05,-0.08 -0.09,-0.08 -0.18,-0.00 -0.09,0.07 -0.14,0.07 -0.22,5.91e-4 -0.07,-0.07 -0.07,-0.11 0.01,-0.17 0.06,-0.03 0.08,-0.11 0.05,-0.17 -0.04,-0.07 -0.08,-0.07 -0.15,-0.00 -0.15,0.15 -0.24,0.10 -0.19,-0.11 0.02,-0.11 0.02,-0.22 -0.01,-0.24 -0.11,-0.06 -0.44,0.10 -0.44,0.23 0,0.07 -0.06,0.12 -0.14,0.12 -0.11,0 -0.10,0.03 0.05,0.21 0.10,0.11 0.29,0.21 0.41,0.21 0.40,0.00 0.78,0.49 0.46,0.61 -0.08,0.03 -0.12,-0.00 -0.12,-0.12 0,-0.11 -0.04,-0.16 -0.14,-0.14 -0.19,0.03 -0.25,0.32 -0.06,0.32 0.07,0 0.12,0.04 0.10,0.10 -0.01,0.05 -0.08,0.10 -0.15,0.10 -0.06,0 -0.14,0.07 -0.16,0.16 -0.02,0.09 -0.12,0.18 -0.23,0.19 -0.10,0.01 -0.18,0.08 -0.18,0.14 0,0.14 -0.22,0.16 -0.27,0.02 -0.04,-0.13 -0.78,0.30 -0.99,0.60 -0.10,0.14 -0.14,0.29 -0.11,0.38 0.03,0.09 0,0.18 -0.10,0.26 -0.17,0.12 -0.24,0.11 0.78,0.16 0.30,0.01 0.35,-0.00 0.35,-0.14 0,-0.08 0.05,-0.16 0.12,-0.16 0.14,0 0.16,0.17 0.03,0.31 -0.06,0.06 -0.01,0.09 0.20,0.08 0.20,-0.00 0.28,-0.04 0.25,-0.11 z M 16.18,20.90 c 0.04,-0.21 0.23,-0.24 0.23,-0.03 0,0.10 -0.05,0.17 -0.13,0.17 -0.07,0 -0.12,-0.05 -0.10,-0.14 z m 1.01,-0.26 c 0.01,-0.08 0.06,-0.14 0.11,-0.14 0.04,0 0.09,0.06 0.11,0.14 0.01,0.09 -0.02,0.14 -0.11,0.14 -0.08,0 -0.12,-0.05 -0.11,-0.14 z m -0.69,-0.06 c 0,-0.08 0.05,-0.12 0.14,-0.11 0.08,0.01 0.14,0.06 0.14,0.11 0,0.04 -0.06,0.09 -0.14,0.11 -0.09,0.01 -0.14,-0.02 -0.14,-0.11 z m -0.65,-0.06 c 0.01,-0.05 0.08,-0.10 0.14,-0.10 0.06,0 0.12,0.04 0.14,0.10 0.02,0.06 -0.03,0.10 -0.14,0.10 -0.10,0 -0.16,-0.04 -0.14,-0.10 z m 1.02,-0.15 c -0.03,-0.05 -0.01,-0.13 0.04,-0.18 0.07,-0.07 0.11,-0.06 0.17,0.02 0.08,0.13 0.04,0.25 -0.08,0.25 -0.04,0 -0.09,-0.04 -0.13,-0.09 z m 0.63,-0.03 c 0,-0.06 0.05,-0.12 0.12,-0.12 0.06,0 0.12,0.05 0.12,0.12 0,0.06 -0.05,0.12 -0.12,0.12 -0.06,0 -0.12,-0.05 -0.12,-0.12 z m -1.26,-0.08 c 0,-0.06 0.05,-0.12 0.12,-0.12 0.06,0 0.12,0.05 0.12,0.12 0,0.06 -0.05,0.12 -0.12,0.12 -0.06,0 -0.12,-0.05 -0.12,-0.12 z m 1.64,-0.12 c -0.06,-0.09 0.01,-0.25 0.13,-0.25 0.04,0 0.07,0.07 0.07,0.16 0,0.17 -0.12,0.22 -0.21,0.08 z M 17.26,19.99 c 0,-0.07 0.06,-0.13 0.13,-0.13 0.14,0 0.12,0.18 -0.03,0.23 -0.05,0.01 -0.10,-0.02 -0.10,-0.10 z m -0.67,-0.09 c 0,-0.14 0.18,-0.12 0.23,0.03 0.01,0.05 -0.02,0.10 -0.10,0.10 -0.07,0 -0.13,-0.06 -0.13,-0.13 z m 1.05,-0.11 c -0.08,-0.14 0.03,-0.29 0.14,-0.18 0.06,0.06 0.06,0.11 0,0.18 -0.06,0.06 -0.10,0.06 -0.14,0 z m 0.29,-0.38 c 0,-0.06 0.05,-0.12 0.12,-0.12 0.06,0 0.12,0.05 0.12,0.12 0,0.06 -0.05,0.12 -0.12,0.12 -0.06,0 -0.12,-0.05 -0.12,-0.12 z m -0.54,-1.30 c -0.02,-0.04 0.00,-0.10 0.08,-0.13 0.16,-0.06 0.25,0.00 0.17,0.13 -0.06,0.11 -0.18,0.11 -0.25,0.00 z m -2.49,2.70 c 0,-0.09 0.05,-0.16 0.13,-0.16 0.09,0 0.12,0.05 0.08,0.18 -0.04,0.17 -0.03,0.17 0.06,0.03 0.06,-0.08 0.09,-0.22 0.06,-0.32 -0.03,-0.12 0.00,-0.18 0.13,-0.21 0.09,-0.02 0.17,-0.09 0.17,-0.16 0,-0.06 0.05,-0.11 0.12,-0.11 0.06,0 0.16,-0.07 0.21,-0.16 0.04,-0.09 0.14,-0.16 0.20,-0.16 0.09,0 0.21,-0.16 0.21,-0.29 0,-0.01 -0.11,-0.04 -0.24,-0.06 -0.19,-0.02 -0.24,-0.00 -0.23,0.09 0.01,0.07 -0.02,0.13 -0.06,0.13 -0.04,0 -0.08,-0.05 -0.09,-0.12 -0.00,-0.06 -0.01,-0.16 -0.02,-0.20 -0.00,-0.04 -0.05,-0.03 -0.10,0.01 -0.05,0.05 -0.14,0.07 -0.21,0.04 -0.08,-0.03 -0.11,0.00 -0.09,0.10 0.01,0.09 -0.03,0.16 -0.13,0.18 -0.12,0.02 -0.15,-0.00 -0.11,-0.14 0.02,-0.11 0.00,-0.17 -0.06,-0.17 -0.06,0 -0.17,-0.02 -0.24,-0.05 -0.09,-0.03 -0.12,-0.01 -0.08,0.07 0.05,0.14 -0.08,0.26 -0.22,0.18 -0.06,-0.03 -0.05,-0.09 0.01,-0.17 0.07,-0.09 0.06,-0.11 -0.08,-0.11 -0.10,0 -0.30,-0.09 -0.43,-0.21 -0.30,-0.25 -0.70,-0.27 -0.82,-0.04 -0.04,0.08 -0.08,0.31 -0.07,0.50 0.01,0.27 0.04,0.34 0.17,0.34 0.10,0 0.15,0.04 0.13,0.14 -0.01,0.08 -0.08,0.14 -0.15,0.14 -0.06,0 -0.13,0.08 -0.15,0.18 -0.01,0.13 0.01,0.18 0.11,0.18 0.09,0 0.12,0.05 0.10,0.15 -0.03,0.11 0.01,0.15 0.21,0.17 0.14,0.01 0.23,-0.00 0.19,-0.03 -0.06,-0.06 0.09,-0.28 0.21,-0.28 0.04,0 0.06,0.09 0.04,0.20 -0.03,0.16 -0.00,0.20 0.15,0.20 0.11,0 0.20,-0.06 0.23,-0.15 0.05,-0.20 0.22,-0.20 0.22,0.00 0,0.14 0.09,0.20 0.35,0.24 0.03,0.00 0.06,-0.06 0.06,-0.15 z m -0.33,-0.37 c 0,-0.08 0.05,-0.12 0.14,-0.11 0.08,0.01 0.14,0.06 0.14,0.11 0,0.04 -0.06,0.09 -0.14,0.11 -0.09,0.01 -0.14,-0.02 -0.14,-0.11 z m -1.22,-0.04 c -0.06,-0.10 0.01,-0.25 0.13,-0.25 0.10,0 0.10,0.22 0.00,0.29 -0.04,0.02 -0.10,0.01 -0.13,-0.03 z m 0.63,-0.04 c 0,-0.06 0.05,-0.12 0.12,-0.12 0.06,0 0.12,0.05 0.12,0.12 0,0.06 -0.05,0.12 -0.12,0.12 -0.06,0 -0.12,-0.05 -0.12,-0.12 z m 0.96,-0.13 c -0.08,-0.14 0.10,-0.30 0.22,-0.18 0.09,0.09 0.03,0.27 -0.09,0.27 -0.04,0 -0.09,-0.04 -0.13,-0.09 z m -0.62,-0.11 c 0,-0.07 0.06,-0.13 0.13,-0.13 0.07,0 0.11,0.04 0.10,0.09 -0.05,0.15 -0.23,0.18 -0.23,0.03 z m -0.67,-0.09 c 0,-0.08 0.05,-0.12 0.14,-0.11 0.08,0.01 0.14,0.06 0.14,0.11 0,0.04 -0.06,0.09 -0.14,0.11 -0.09,0.01 -0.14,-0.02 -0.14,-0.11 z m 1.64,-0.12 c -0.02,-0.04 0.00,-0.10 0.08,-0.13 0.16,-0.06 0.25,0.00 0.17,0.13 -0.07,0.11 -0.18,0.11 -0.25,0.00 z m -1.27,-0.09 c -0.08,-0.14 0.10,-0.30 0.22,-0.18 0.09,0.09 0.03,0.27 -0.09,0.27 -0.04,0 -0.09,-0.04 -0.13,-0.09 z m 0.63,-0.03 c 0,-0.06 0.05,-0.12 0.12,-0.12 0.06,0 0.12,0.05 0.12,0.12 0,0.06 -0.05,0.12 -0.12,0.12 -0.06,0 -0.12,-0.05 -0.12,-0.12 z m -1.26,-0.08 c 0,-0.06 0.05,-0.12 0.12,-0.12 0.06,0 0.12,0.05 0.12,0.12 0,0.06 -0.05,0.12 -0.12,0.12 -0.06,0 -0.12,-0.05 -0.12,-0.12 z m 0.39,-0.18 c -0.10,-0.10 -0.05,-0.28 0.07,-0.28 0.07,0 0.12,0.07 0.12,0.16 0,0.16 -0.08,0.21 -0.19,0.11 z m -0.69,-0.12 c -0.07,-0.11 0.08,-0.28 0.20,-0.21 0.09,0.06 0.03,0.30 -0.07,0.30 -0.03,0 -0.09,-0.04 -0.12,-0.09 z m 0.34,-0.32 c -0.02,-0.04 -0.01,-0.10 0.03,-0.13 0.10,-0.06 0.25,0.01 0.25,0.13 0,0.10 -0.22,0.10 -0.29,0.00 z m -0.78,1.19 c 0.02,-0.41 -0.08,-1.52 -0.15,-1.61 -0.03,-0.04 -2.63,-0.32 -2.83,-0.30 -0.10,0.01 -0.25,0.02 -0.33,0.02 -0.07,0.00 -0.26,0.10 -0.41,0.23 l -0.27,0.22 0.36,0.08 c 0.43,0.10 0.54,0.32 0.35,0.70 -0.08,0.17 -0.22,0.29 -0.39,0.34 l -0.26,0.07 0.38,0.17 c 0.35,0.15 2.38,0.47 3.25,0.50 l 0.26,0.01 0.02,-0.48 z M 2.93,19.83 c 0.52,-1.31 0.92,-3.87 0.93,-6.04 0.00,-1.48 -0.07,-1.99 -0.30,-1.92 -0.05,0.01 -0.24,0.31 -0.42,0.66 -0.51,1.01 -0.78,2.62 -0.99,5.88 -0.06,1.00 -0.05,1.27 0.05,1.64 0.07,0.24 0.15,0.47 0.17,0.51 0.08,0.13 0.35,-0.22 0.55,-0.73 z m -0.64,0.05 c -0.01,-0.03 -0.04,-0.21 -0.04,-0.40 -0.01,-0.38 0.23,-0.87 0.49,-0.94 0.20,-0.05 0.33,-0.58 0.39,-1.64 0.04,-0.81 0.04,-0.84 -0.16,-1.03 -0.34,-0.31 -0.37,-0.81 -0.10,-1.88 0.30,-1.23 0.46,-1.63 0.63,-1.60 0.11,0.02 0.13,0.17 0.15,0.86 0.03,1.24 -0.38,4.56 -0.69,5.43 -0.07,0.20 -0.13,0.44 -0.13,0.53 0,0.40 -0.40,0.92 -0.52,0.67 z M 27.37,20.30 c 0.17,-0.45 0.19,-0.60 0.10,-0.77 -0.14,-0.26 -0.23,-0.20 -0.24,0.16 -0.00,0.18 -0.06,0.45 -0.13,0.59 -0.11,0.23 -0.11,0.25 0.02,0.25 0.08,0 0.18,-0.09 0.24,-0.23 z m -0.44,-0.10 c -0.02,-0.03 -0.15,-0.09 -0.29,-0.12 -0.13,-0.03 -0.25,-0.09 -0.25,-0.13 0,-0.04 0.06,-0.06 0.14,-0.04 0.08,0.02 0.23,0.06 0.33,0.09 0.16,0.04 0.18,0.02 0.18,-0.18 -0.00,-0.40 -0.08,-0.46 -0.46,-0.33 -0.47,0.16 -0.49,0.45 -0.05,0.70 0.30,0.17 0.50,0.18 0.40,0.03 z m -1.03,-0.48 c 0.04,-0.25 -0.00,-0.44 -0.11,-0.44 -0.04,0 -0.07,0.15 -0.07,0.33 0,0.38 0.12,0.45 0.19,0.11 z m -0.39,-0.12 c 0.01,-0.31 -0.04,-0.37 -0.45,-0.43 -0.34,-0.05 -0.35,-0.04 -0.35,0.16 0,0.39 0.14,0.55 0.49,0.52 0.27,-0.02 0.31,-0.05 0.31,-0.25 z M 9.14,19.54 C 9.32,19.21 8.89,18.93 8.65,19.22 c -0.05,0.06 -0.07,0.20 -0.04,0.29 0.06,0.21 0.42,0.23 0.53,0.02 z M 7.19,19.07 c 0.00,-0.29 0.06,-0.68 0.13,-0.88 0.11,-0.33 0.11,-0.35 -0.03,-0.39 -0.18,-0.04 -0.28,0.10 -0.40,0.62 -0.06,0.30 -0.05,0.43 0.09,0.77 0.09,0.22 0.18,0.40 0.19,0.40 0.00,0 0.01,-0.23 0.02,-0.52 z m 10.07,0.10 c 0,-0.04 -0.04,-0.07 -0.10,-0.06 -0.18,0.03 -0.16,-0.25 0.02,-0.29 0.17,-0.04 0.19,-0.23 0.02,-0.28 -0.13,-0.04 -0.38,0.38 -0.32,0.57 0.05,0.16 0.37,0.23 0.37,0.08 z m 10.72,-0.36 c 0,-0.04 -0.05,-0.05 -0.11,-0.03 -0.06,0.02 -0.15,0.00 -0.21,-0.05 -0.12,-0.12 -0.12,0.05 5.92e-4,0.29 0.09,0.17 0.09,0.17 0.21,0.02 0.06,-0.08 0.11,-0.19 0.11,-0.23 z m -11.67,0.10 c 0.07,-0.09 0.19,-0.16 0.25,-0.16 0.05,0 0.10,-0.03 0.10,-0.08 0,-0.04 0.08,-0.16 0.18,-0.26 0.16,-0.16 0.16,-0.18 0.03,-0.26 -0.09,-0.05 -0.12,-0.14 -0.09,-0.27 0.04,-0.16 0.02,-0.18 -0.16,-0.15 -0.15,0.02 -0.20,0.00 -0.20,-0.09 0,-0.07 0.06,-0.13 0.15,-0.13 0.09,0 0.19,-0.09 0.26,-0.25 0.11,-0.26 0.11,-0.24 -0.22,-0.86 -0.07,-0.13 -0.19,-0.23 -0.29,-0.23 -0.09,0 -0.14,0.03 -0.11,0.08 0.02,0.04 -0.02,0.11 -0.12,0.14 -0.16,0.05 -0.16,0.07 -0.04,0.30 0.06,0.13 0.12,0.29 0.12,0.35 0,0.06 0.05,0.09 0.11,0.06 0.09,-0.03 0.11,0.04 0.09,0.40 -0.01,0.24 -0.06,0.53 -0.12,0.65 -0.08,0.15 -0.08,0.21 -0.00,0.26 0.05,0.03 0.08,0.12 0.05,0.20 -0.02,0.07 -0.08,0.11 -0.13,0.09 -0.09,-0.05 -0.27,0.24 -0.19,0.32 0.09,0.09 0.19,0.05 0.34,-0.11 z m 0.10,-0.63 c 0,-0.06 0.05,-0.12 0.12,-0.12 0.06,0 0.12,0.05 0.12,0.12 0,0.06 -0.05,0.12 -0.12,0.12 -0.06,0 -0.12,-0.05 -0.12,-0.12 z m 0.12,-1.22 c -0.08,-0.13 0.10,-0.30 0.21,-0.19 0.06,0.06 0.05,0.11 -0.03,0.18 -0.09,0.07 -0.13,0.07 -0.18,0.00 z m -0.29,-0.46 c 0,-0.14 0.18,-0.12 0.23,0.03 0.01,0.05 -0.02,0.09 -0.10,0.09 -0.07,0 -0.13,-0.06 -0.13,-0.13 z M 4.03,18.58 c 0.58,-0.48 1.24,-0.84 1.96,-1.05 0.77,-0.23 2.59,-0.24 4.36,-0.03 0.79,0.09 1.84,0.21 2.33,0.26 0.48,0.04 1.01,0.11 1.16,0.13 0.21,0.03 0.27,0.01 0.27,-0.08 0,-0.16 -0.26,-0.22 -1.26,-0.26 -0.91,-0.04 -3.53,-0.27 -3.95,-0.35 -0.46,-0.08 -1.10,-0.12 -2.08,-0.14 -0.80,-0.01 -0.96,0.00 -1.17,0.15 -0.38,0.27 -0.41,0.28 -0.74,0.33 -0.19,0.03 -0.46,0.17 -0.69,0.38 -0.20,0.18 -0.44,0.36 -0.51,0.40 -0.11,0.06 -0.32,0.69 -0.22,0.69 0.02,0 0.27,-0.19 0.55,-0.42 z m 11.57,0.25 c 0.17,-0.13 0.21,-0.23 0.20,-0.44 -0.01,-0.14 0.00,-0.26 0.04,-0.26 0.08,0 0.22,-0.22 0.22,-0.35 5.92e-4,-0.05 -0.05,-0.08 -0.12,-0.05 -0.08,0.03 -0.12,-0.00 -0.12,-0.12 0,-0.09 0.03,-0.17 0.07,-0.17 0.04,0 0.03,-0.15 -0.01,-0.33 -0.04,-0.18 -0.13,-0.33 -0.19,-0.33 -0.06,0 -0.11,-0.06 -0.11,-0.14 -0.00,-0.18 -0.37,-0.46 -0.56,-0.42 -0.20,0.04 -0.23,0.23 -0.03,0.23 0.23,0 0.30,0.13 0.11,0.24 -0.11,0.06 -0.12,0.08 -0.02,0.09 0.06,0.00 0.19,0.00 0.27,-0.00 0.08,-0.00 0.14,0.04 0.14,0.12 0,0.09 -0.04,0.12 -0.16,0.09 -0.14,-0.03 -0.15,-0.02 -0.07,0.13 0.05,0.09 0.13,0.20 0.17,0.23 0.04,0.03 0.04,0.12 -0.02,0.24 -0.05,0.10 -0.07,0.30 -0.05,0.43 0.03,0.16 0.01,0.26 -0.07,0.29 -0.12,0.04 -0.14,0.36 -0.01,0.36 0.04,0 0.05,0.07 0.03,0.16 -0.05,0.21 0.02,0.21 0.31,-0.00 z m -0.15,-0.23 c -0.08,-0.14 0.03,-0.29 0.14,-0.18 0.06,0.06 0.06,0.11 0,0.18 -0.06,0.06 -0.10,0.06 -0.14,0 z m 0.00,-0.67 c -0.02,-0.04 0.00,-0.11 0.07,-0.17 0.13,-0.10 0.26,0.01 0.17,0.16 -0.06,0.10 -0.18,0.10 -0.24,0.00 z m 0.07,-0.61 c -0.07,-0.11 0.09,-0.27 0.21,-0.20 0.05,0.03 0.09,0.08 0.09,0.12 0,0.11 -0.24,0.17 -0.30,0.07 z m -1.13,1.44 c -0.07,-0.14 -0.06,-0.16 0.11,-0.16 0.11,0 0.22,0.04 0.25,0.10 0.02,0.05 0.02,0.02 0.00,-0.08 -0.03,-0.12 0.01,-0.24 0.12,-0.35 0.17,-0.17 0.24,-0.39 0.08,-0.29 -0.04,0.02 -0.10,-0.01 -0.13,-0.08 -0.03,-0.08 -5.91e-4,-0.17 0.08,-0.22 0.13,-0.07 0.13,-0.09 0.01,-0.28 -0.07,-0.11 -0.11,-0.23 -0.09,-0.27 0.02,-0.03 -0.03,-0.09 -0.13,-0.11 -0.13,-0.03 -0.16,-0.09 -0.13,-0.22 0.03,-0.12 0.00,-0.17 -0.10,-0.17 -0.08,0 -0.16,-0.04 -0.18,-0.09 -0.02,-0.06 -0.11,-0.05 -0.30,0.04 -0.15,0.08 -0.24,0.18 -0.21,0.23 0.03,0.06 0.09,0.04 0.17,-0.06 0.08,-0.11 0.13,-0.13 0.20,-0.06 0.11,0.11 0.02,0.27 -0.14,0.27 -0.14,0 -0.15,0.09 -0.02,0.23 0.13,0.13 0.23,0.12 0.23,-0.02 0,-0.06 0.05,-0.12 0.12,-0.12 0.06,0 0.12,0.05 0.12,0.12 0,0.06 -0.05,0.12 -0.12,0.12 -0.19,0 -0.23,0.14 -0.08,0.29 0.09,0.09 0.12,0.21 0.08,0.39 -0.02,0.14 -0.01,0.32 0.03,0.40 0.06,0.12 0.04,0.16 -0.08,0.19 -0.09,0.02 -0.17,5.92e-4 -0.17,-0.05 -0.00,-0.05 -0.03,-0.00 -0.06,0.11 -0.06,0.22 0.02,0.33 0.27,0.33 0.12,0.00 0.13,-0.02 0.06,-0.16 z m 0.09,-0.64 c 0.01,-0.08 0.06,-0.14 0.11,-0.13 0.12,0.03 0.10,0.21 -0.03,0.25 -0.07,0.02 -0.10,-0.01 -0.08,-0.11 z m 0.04,-0.60 c -0.02,-0.03 0.00,-0.13 0.06,-0.21 0.09,-0.13 0.11,-0.13 0.16,-0.01 0.08,0.21 -0.11,0.41 -0.23,0.22 z M 34.57,17.93 c 0,-0.03 -0.08,-0.14 -0.18,-0.23 -0.10,-0.08 -0.15,-0.11 -0.11,-0.05 0.03,0.05 0.01,0.16 -0.03,0.23 -0.08,0.10 -0.06,0.12 0.11,0.12 0.12,0 0.22,-0.03 0.22,-0.07 z M 17.47,17.36 c 0.14,-0.21 0.14,-0.21 -0.09,-0.18 -0.17,0.01 -0.24,0.07 -0.26,0.21 -0.03,0.26 0.18,0.24 0.36,-0.02 z m -3.58,0.06 c -0.00,-0.02 -0.07,-0.14 -0.16,-0.24 -0.14,-0.17 -0.33,-0.21 -1.74,-0.39 C 7.36,16.18 7.07,16.14 6.50,16.00 6.19,15.92 5.84,15.76 5.62,15.58 5.41,15.43 5.18,15.30 5.11,15.30 c -0.18,0 -0.68,-0.50 -0.68,-0.69 0,-0.22 0.09,-0.18 0.36,0.14 0.12,0.16 0.30,0.29 0.38,0.29 0.08,0 0.32,0.15 0.53,0.33 0.32,0.28 0.90,0.54 0.90,0.40 0,-0.02 -0.21,-0.17 -0.48,-0.34 C 5.53,15.07 4.75,14.29 4.38,13.69 l -0.28,-0.45 -0.00,0.71 c -0.00,0.73 -0.21,2.93 -0.30,3.23 -0.04,0.15 -0.03,0.15 0.18,-0.01 0.28,-0.21 0.93,-0.26 1.04,-0.09 0.05,0.08 0.09,0.06 0.17,-0.11 0.09,-0.20 0.15,-0.22 0.57,-0.24 0.25,-0.00 0.67,-0.00 0.91,0.00 0.24,0.01 0.44,-0.01 0.44,-0.05 0,-0.05 0.13,-0.05 0.35,-0.00 0.19,0.04 0.51,0.09 0.71,0.11 0.19,0.01 0.42,0.07 0.51,0.11 0.08,0.04 0.23,0.06 0.33,0.03 0.09,-0.02 0.25,-0.00 0.34,0.04 0.09,0.05 0.56,0.11 1.04,0.13 0.47,0.02 1.36,0.11 1.96,0.19 1.31,0.17 1.47,0.18 1.47,0.11 z m 24.47,-0.48 c -0.09,-0.09 -0.13,-0.09 -0.22,0.04 -0.08,0.13 -0.08,0.15 0.01,0.11 0.06,-0.02 0.14,0.00 0.18,0.06 0.05,0.08 0.07,0.08 0.10,-0.00 0.02,-0.06 -0.01,-0.16 -0.08,-0.22 z M 17.51,16.59 c 0,-0.06 -0.03,-0.09 -0.08,-0.06 -0.04,0.03 -0.15,0.00 -0.22,-0.05 -0.12,-0.09 -0.13,-0.09 -0.08,0.04 0.03,0.08 0.05,0.18 0.05,0.22 0,0.03 0.07,0.04 0.16,0.02 0.09,-0.02 0.16,-0.09 0.16,-0.16 z m 21.23,-1.40 c -0.00,-1.51 -0.01,-1.69 -0.11,-1.62 -0.04,0.02 -0.10,-0.02 -0.12,-0.10 -0.10,-0.34 -1.12,-1.19 -1.42,-1.19 -0.04,0 -0.14,-0.05 -0.22,-0.11 -0.07,-0.06 -0.30,-0.17 -0.51,-0.24 -0.20,-0.07 -0.80,-0.27 -1.32,-0.46 -1.04,-0.37 -1.56,-0.45 -2.85,-0.45 -1.04,-0.00 -2.34,0.25 -3.27,0.63 -0.36,0.15 -0.40,0.19 -0.44,0.51 -0.02,0.19 -0.10,0.78 -0.17,1.30 -0.07,0.52 -0.11,0.97 -0.09,0.99 0.02,0.02 0.31,-0.09 0.64,-0.25 0.33,-0.16 0.66,-0.29 0.74,-0.28 0.07,0.00 0.41,-0.05 0.73,-0.13 0.59,-0.14 3.04,-0.21 3.24,-0.09 0.04,0.02 0.38,0.10 0.74,0.17 0.77,0.14 2.02,0.60 2.68,0.97 0.25,0.14 0.66,0.45 0.90,0.69 0.24,0.23 0.47,0.42 0.51,0.41 0.03,-0.00 0.04,0.02 0.01,0.06 -0.04,0.07 0.19,0.50 0.29,0.50 0.02,0.00 0.04,-0.57 0.04,-1.28 z m -9.46,-1.98 c -0.59,-0.48 -0.43,-1.28 0.33,-1.65 0.35,-0.16 0.93,-0.04 1.12,0.24 0.34,0.52 0.17,1.21 -0.35,1.43 -0.38,0.16 -0.88,0.14 -1.10,-0.02 z m 1.21,-0.32 c 0.24,-0.26 0.24,-0.67 0.00,-0.93 -0.13,-0.14 -0.27,-0.19 -0.56,-0.19 -0.49,0 -0.77,0.23 -0.77,0.67 0,0.67 0.85,0.96 1.32,0.45 z m 7.36,2.96 c 0,-0.07 -0.03,-0.10 -0.08,-0.07 -0.04,0.02 -0.06,0.08 -0.03,0.13 0.07,0.11 0.12,0.09 0.12,-0.05 z m 1.51,-2.50 c 0.14,-0.24 0.33,-0.56 0.43,-0.70 l 0.16,-0.26 -0.53,-0.16 c -0.29,-0.09 -0.69,-0.19 -0.90,-0.22 -0.48,-0.06 -1.50,-0.39 -2.64,-0.85 -1.78,-0.71 -2.52,-0.87 -4.98,-1.06 -1.05,-0.08 -1.45,-0.08 -1.94,0.00 -0.83,0.14 -1.24,0.27 -1.24,0.39 0,0.17 0.51,1.22 0.60,1.22 0.04,0 0.31,-0.09 0.59,-0.21 0.28,-0.11 0.95,-0.31 1.49,-0.43 0.88,-0.19 1.10,-0.21 2.24,-0.17 1.35,0.04 1.60,0.09 3.16,0.67 1.63,0.60 2.42,1.10 2.88,1.81 0.15,0.24 0.31,0.44 0.34,0.44 0.03,2.37e-4 0.17,-0.19 0.32,-0.44 z m -6.87,24.10 c -0.09,-0.02 -0.30,-0.07 -0.48,-0.11 l -0.31,-0.07 -0.00,-0.94 c -0.00,-1.22 0.03,-1.36 0.32,-1.29 0.12,0.03 0.41,0.07 0.64,0.09 0.23,0.01 0.83,0.07 1.35,0.12 0.51,0.04 1.52,0.09 2.25,0.10 1.21,0.01 1.53,0.05 1.40,0.19 -0.15,0.15 -3.68,0.01 -5.18,-0.20 l -0.43,-0.06 -0.05,0.68 c -0.02,0.37 -0.07,0.78 -0.09,0.90 -0.03,0.20 -0.01,0.23 0.32,0.32 0.53,0.13 0.57,0.15 0.57,0.25 0,0.09 -0.01,0.09 -0.29,0.02 z m 3.35,-2.02 c -0.06,-0.02 -0.13,-0.02 -0.16,0.00 -0.02,0.02 0.02,0.04 0.11,0.04 0.09,-0.00 0.11,-0.02 0.05,-0.05 z m 0.42,0 c -0.06,-0.02 -0.13,-0.02 -0.16,0.00 -0.02,0.02 0.02,0.04 0.11,0.04 0.09,-0.00 0.11,-0.02 0.05,-0.05 z m -2.51,1.85 c -0.18,-0.02 -0.37,-0.33 -0.37,-0.60 0,-0.08 0.07,-0.25 0.17,-0.37 0.21,-0.26 0.65,-0.30 0.86,-0.06 0.36,0.39 -0.11,1.13 -0.67,1.04 z m 0.51,-0.64 c 0,-0.34 -0.23,-0.47 -0.45,-0.26 -0.32,0.29 -0.19,0.56 0.24,0.52 0.17,-0.01 0.21,-0.06 0.21,-0.26 z m -9.79,-0.33 c -0.10,-0.07 -0.15,-0.22 -0.15,-0.43 0,-0.34 0.18,-0.54 0.50,-0.54 0.32,0 0.47,0.23 0.41,0.62 -0.03,0.18 -0.10,0.37 -0.15,0.40 -0.15,0.10 -0.43,0.07 -0.60,-0.04 z m 0.54,-0.29 c 0,-0.28 -0.09,-0.42 -0.30,-0.42 -0.16,0 -0.20,0.04 -0.20,0.23 0,0.29 0.05,0.35 0.30,0.35 0.13,0 0.19,-0.04 0.19,-0.16 z m 10.64,-1.10 c -0.20,-0.03 -0.58,-0.04 -0.84,-0.02 -0.26,0.01 -0.76,-0.00 -1.10,-0.05 -0.34,-0.04 -0.93,-0.11 -1.29,-0.14 l -0.66,-0.05 0.05,-0.47 c 0.03,-0.26 0.08,-0.50 0.12,-0.54 0.03,-0.03 0.47,-0.04 0.97,-0.00 0.86,0.05 0.90,0.06 0.85,0.23 -0.02,0.09 -0.06,0.34 -0.08,0.55 -0.03,0.29 -0.01,0.24 0.10,-0.19 l 0.14,-0.57 1.09,0.05 c 1.61,0.07 1.53,0.04 1.47,0.62 -0.07,0.73 -0.07,0.73 -0.83,0.61 z m 0.42,-0.41 c 0.02,-0.02 0.07,-0.15 0.10,-0.28 l 0.05,-0.23 -0.61,-0.00 c -0.33,-0.00 -0.75,-0.02 -0.93,-0.04 -0.33,-0.04 -0.33,-0.03 -0.43,0.40 -0.04,0.22 -0.04,0.22 0.43,0.25 0.55,0.03 1.30,-0.01 1.38,-0.09 z m -1.52,-0.21 c -0.08,-0.10 -0.08,-0.13 0.02,-0.18 0.18,-0.07 0.41,0.02 0.36,0.15 -0.05,0.15 -0.27,0.17 -0.39,0.02 z m 0.86,-0.04 c -0.00,-0.12 0.03,-0.16 0.19,-0.16 0.14,0 0.20,0.04 0.20,0.16 0,0.11 -0.05,0.16 -0.19,0.16 -0.13,0 -0.19,-0.05 -0.20,-0.16 z m -3.07,0.20 c 0.03,0.01 0.05,-0.16 0.06,-0.40 0.00,-0.23 -0.00,-0.36 -0.02,-0.28 -0.01,0.08 -0.05,0.13 -0.08,0.11 -0.03,-0.01 -0.06,0.14 -0.07,0.35 -0.00,0.21 0.00,0.34 0.02,0.28 0.02,-0.05 0.06,-0.09 0.09,-0.07 z m 0.98,-0.17 c 0.06,-0.35 0.00,-0.44 -0.28,-0.44 -0.25,0 -0.34,0.12 -0.34,0.46 0,0.14 0.05,0.20 0.19,0.22 0.35,0.05 0.38,0.03 0.44,-0.24 z m 0.74,-0.02 c 0.02,-0.09 0.00,-0.14 -0.03,-0.12 -0.04,0.02 -0.07,0.10 -0.07,0.16 0,0.17 0.05,0.14 0.10,-0.04 z" />
</svg>
