<?xml version="1.0" encoding="UTF-8" standalone="no"?>
<!-- Created with Inkscape (http://www.inkscape.org/) -->
<svg xmlns:dc="http://purl.org/dc/elements/1.1/" xmlns:cc="http://creativecommons.org/ns#" xmlns:rdf="http://www.w3.org/1999/02/22-rdf-syntax-ns#" xmlns:svg="http://www.w3.org/2000/svg" xmlns="http://www.w3.org/2000/svg" version="1.0" width="100%" height="100%" viewBox="0 0 48 48" id="svg2">
<defs id="defs7" />
<path d="M 22.15,37.58 C 21.17,37.50 20.72,37.36 19.75,36.85 18.57,36.23 16.63,34.61 15.91,33.66 15.69,33.36 15.28,33.09 14.87,32.97 c -0.91,-0.27 -1.13,-0.26 -1.93,0.09 -0.69,0.31 -1.35,0.50 -2.03,0.59 -0.21,0.02 -0.57,0.22 -0.80,0.44 -0.67,0.63 -1.48,0.96 -2.27,0.93 -1.06,-0.03 -1.57,-0.30 -2.02,-1.08 -0.46,-0.78 -0.72,-2.47 -0.39,-2.47 0.10,0 0.52,-0.28 0.93,-0.64 0.40,-0.35 0.82,-0.64 0.94,-0.64 0.11,0 0.46,-0.15 0.77,-0.33 0.31,-0.18 0.66,-0.28 0.77,-0.22 0.11,0.05 0.06,-0.00 -0.10,-0.14 C 8.55,29.33 8.30,29.22 8.16,29.22 7.70,29.21 6.37,28.47 5.89,27.95 5.46,27.48 5.42,27.32 5.42,26.35 5.42,25.18 5.45,25.10 6.10,24.61 L 6.54,24.27 6.00,23.86 C 5.36,23.37 5.00,22.30 5.17,21.39 5.29,20.74 6.28,19.64 7.69,18.58 L 8.47,18.00 7.59,17.89 c -1.02,-0.12 -1.26,-0.00 -1.87,0.86 -0.58,0.83 -2.06,1.92 -2.77,2.03 -0.31,0.05 -0.57,0.02 -0.57,-0.05 0,-0.08 -0.21,-0.13 -0.47,-0.11 -0.26,0.01 -0.46,-0.01 -0.44,-0.07 0.01,-0.05 -0.09,-0.33 -0.24,-0.62 -0.30,-0.56 -0.24,-1.54 0.14,-2.31 0.11,-0.22 0.25,-0.78 0.31,-1.24 0.06,-0.45 0.15,-0.79 0.22,-0.75 0.06,0.03 0.49,-0.29 0.96,-0.73 0.92,-0.87 2.26,-1.84 2.90,-2.11 0.22,-0.09 0.72,-0.19 1.12,-0.23 0.39,-0.03 0.97,-0.13 1.28,-0.21 0.30,-0.08 1.36,-0.15 2.34,-0.15 0.98,-4.83e-4 2.02,-0.08 2.30,-0.18 0.32,-0.11 0.57,-0.12 0.67,-0.02 0.17,0.17 1.11,0.07 1.11,-0.11 0,-0.07 0.24,-0.38 0.54,-0.70 0.47,-0.50 0.63,-0.57 1.29,-0.57 0.48,0 1.08,-0.15 1.65,-0.42 0.86,-0.40 0.95,-0.41 2.28,-0.26 0.75,0.08 1.40,0.14 1.43,0.12 C 21.82,9.96 21.64,9.74 21.38,9.48 21.13,9.23 20.76,8.59 20.56,8.06 20.22,7.15 20.21,7.09 20.48,6.90 21.00,6.52 21.43,6.65 21.72,7.26 c 0.14,0.31 0.27,0.66 0.27,0.78 0,0.40 1.06,1.05 1.72,1.05 0.34,0 0.70,0.08 0.80,0.18 0.13,0.13 0.30,0.07 0.68,-0.23 0.89,-0.75 2.24,-0.80 2.43,-0.07 0.12,0.46 -0.04,0.61 -0.72,0.61 -0.20,0 -0.75,0.19 -1.23,0.44 -0.62,0.31 -0.85,0.52 -0.81,0.72 0.03,0.15 0.10,0.28 0.16,0.28 0.05,0.00 0.72,0.11 1.47,0.24 1.14,0.20 1.45,0.32 1.93,0.77 0.80,0.74 1.82,1.53 3.22,2.47 1.35,0.91 1.80,1.36 2.55,2.56 0.39,0.63 0.64,0.86 1.03,0.94 0.28,0.06 0.54,0.15 0.59,0.21 0.04,0.05 0.46,0.30 0.93,0.55 0.78,0.42 0.87,0.43 1.13,0.19 0.32,-0.29 0.68,-0.33 0.92,-0.08 0.09,0.09 0.54,0.26 1.00,0.39 0.81,0.21 0.87,0.20 1.94,-0.24 0.60,-0.25 1.22,-0.47 1.36,-0.47 0.14,0 0.85,0.18 1.57,0.41 0.72,0.23 1.41,0.44 1.52,0.47 0.26,0.07 0.25,0.25 -0.02,0.63 -0.21,0.29 -0.25,0.28 -1.30,-0.22 -1.38,-0.68 -2.15,-0.78 -2.98,-0.41 -0.62,0.28 -0.74,0.66 -0.15,0.48 0.58,-0.18 0.91,0.99 0.98,3.58 0.02,0.73 0.08,1.32 0.13,1.32 0.05,0 0.19,-0.16 0.30,-0.36 0.29,-0.52 2.91,-2.69 3.25,-2.69 0.29,0 0.11,0.32 -0.30,0.54 -0.24,0.12 -0.65,0.41 -0.92,0.63 -2.09,1.77 -2.46,2.14 -2.47,2.47 l -0.01,0.35 0.57,-0.33 c 0.69,-0.41 1.97,-0.42 2.63,-0.03 0.40,0.23 0.43,0.30 0.28,0.71 -0.18,0.50 -0.42,0.50 -1.93,0.03 -0.64,-0.20 -0.84,-0.20 -1.16,-0.03 -0.21,0.11 -0.38,0.25 -0.38,0.31 0,0.06 -0.18,0.38 -0.41,0.72 l -0.41,0.61 0.33,0.41 c 0.18,0.22 0.43,0.65 0.56,0.93 0.13,0.28 0.31,0.52 0.40,0.52 0.09,0 0.16,0.09 0.16,0.20 0,0.11 0.24,0.46 0.55,0.79 0.30,0.32 0.50,0.62 0.45,0.67 -0.05,0.05 0.00,0.09 0.13,0.09 0.24,0.00 0.90,1.22 0.74,1.38 -0.23,0.23 -1.59,-0.96 -2.20,-1.96 -0.26,-0.42 -0.30,-0.44 -0.60,-0.24 -0.15,0.10 -0.12,0.30 0.14,0.95 0.38,0.92 0.32,1.32 -0.19,1.32 -0.32,0 -0.34,0.06 -0.27,0.80 0.04,0.50 0.23,1.02 0.50,1.41 0.44,0.64 0.56,1.23 0.22,1.12 -0.10,-0.03 -0.22,-0.19 -0.25,-0.34 -0.02,-0.15 -0.22,-0.53 -0.43,-0.84 -0.40,-0.59 -0.79,-2.04 -0.69,-2.55 0.04,-0.23 0.18,-0.30 0.50,-0.28 0.23,0.01 0.43,-0.03 0.43,-0.12 0,-0.27 -1.17,-2.56 -1.31,-2.56 -0.07,0 -0.13,0.06 -0.13,0.13 0,0.31 -2.11,2.93 -3.37,4.18 -0.80,0.79 -1.28,1.38 -1.16,1.42 0.42,0.15 0.17,0.34 -0.40,0.31 -0.70,-0.03 -0.92,0.21 -0.40,0.45 0.38,0.16 0.41,0.29 0.21,0.79 -0.10,0.28 -0.14,0.26 -0.44,-0.16 -0.18,-0.25 -0.47,-0.76 -0.66,-1.12 -0.29,-0.57 -0.44,-0.68 -1.32,-0.96 -1.07,-0.33 -1.54,-0.79 -1.36,-1.35 0.14,-0.46 -0.48,-0.67 -2.09,-0.70 l -1.28,-0.02 0.04,0.64 c 0.03,0.43 -0.05,0.81 -0.27,1.16 -0.42,0.68 -1.51,1.46 -2.24,1.59 -0.65,0.11 -1.02,0.35 -0.89,0.56 0.04,0.07 0.00,0.14 -0.09,0.14 -0.10,0 -0.46,0.22 -0.81,0.49 -0.34,0.27 -0.62,0.44 -0.62,0.38 0,-0.06 -0.09,-0.04 -0.20,0.03 -0.10,0.07 -0.74,0.09 -1.40,0.04 z m 1.77,-0.99 c 1.17,-0.59 2.13,-2.37 2.30,-4.27 0.05,-0.60 -0.14,-1.96 -0.46,-3.24 -0.05,-0.22 -0.11,-0.51 -0.13,-0.64 -0.01,-0.13 -0.11,-0.39 -0.21,-0.57 -0.10,-0.18 -0.22,-0.53 -0.26,-0.78 -0.04,-0.24 -0.19,-0.56 -0.32,-0.72 -0.13,-0.15 -0.20,-0.32 -0.14,-0.37 0.05,-0.05 -0.01,-0.14 -0.15,-0.20 -0.14,-0.05 -0.22,-0.15 -0.18,-0.23 0.09,-0.15 -0.57,-1.44 -0.75,-1.44 -0.07,0 -0.13,-0.09 -0.13,-0.21 0,-0.11 -0.51,-0.75 -1.14,-1.40 -1.69,-1.76 -1.96,-2.15 -1.77,-2.52 0.09,-0.16 0.27,-0.39 0.41,-0.51 0.13,-0.11 0.21,-0.26 0.16,-0.33 -0.12,-0.20 -1.68,1.41 -1.68,1.75 0,0.18 0.53,0.76 1.36,1.46 1.86,1.58 2.97,2.82 3.54,3.95 0.26,0.52 0.52,0.99 0.57,1.03 0.05,0.04 0.13,0.26 0.18,0.48 0.04,0.22 0.20,0.82 0.35,1.35 0.28,1.05 0.32,3.33 0.06,4.36 -0.19,0.79 -0.97,2.15 -1.06,1.88 -0.03,-0.11 0.00,-0.28 0.09,-0.39 0.32,-0.40 0.83,-2.43 0.83,-3.34 0,-1.04 -0.33,-2.68 -0.81,-3.97 -0.37,-1.01 -1.55,-2.53 -2.90,-3.74 -2.52,-2.24 -2.87,-2.63 -2.87,-3.20 0,-0.41 0.13,-0.66 0.57,-1.08 0.31,-0.29 0.62,-0.54 0.69,-0.54 0.06,0 0.27,-0.28 0.46,-0.62 l 0.34,-0.62 -0.37,-0.70 c -0.23,-0.44 -0.50,-0.72 -0.72,-0.75 -0.45,-0.06 -0.47,0.42 -0.02,0.93 0.56,0.64 0.32,1.06 -0.70,1.23 -0.48,0.07 -0.64,0.01 -1.06,-0.39 -0.27,-0.26 -0.49,-0.59 -0.49,-0.73 0,-0.19 -0.09,-0.21 -0.52,-0.09 -0.28,0.08 -0.69,0.14 -0.90,0.14 -0.21,0 -0.55,0.18 -0.75,0.40 -0.50,0.54 -1.09,0.35 -1.16,-0.37 -0.04,-0.46 -0.35,-0.74 -0.35,-0.32 0,0.12 -0.07,0.11 -0.24,-0.02 -0.31,-0.26 -0.43,-0.13 -0.31,0.35 0.06,0.25 0.33,0.49 0.77,0.70 0.93,0.43 1.19,1.01 0.85,1.88 -0.14,0.35 -0.21,0.70 -0.17,0.77 0.04,0.07 0.33,0.08 0.63,0.03 0.30,-0.04 0.65,-0.01 0.76,0.07 0.11,0.08 0.52,0.21 0.91,0.28 0.49,0.08 0.90,0.29 1.35,0.71 0.62,0.58 0.64,0.63 0.71,1.87 0.07,1.28 -0.13,2.26 -0.44,2.07 -0.27,-0.16 -0.18,0.16 0.25,0.94 0.39,0.70 0.40,0.80 0.23,1.59 -0.28,1.26 -0.46,1.53 -1.44,2.08 -0.49,0.27 -0.94,0.58 -1.01,0.67 -0.06,0.09 -0.11,0.11 -0.12,0.04 -0.00,-0.18 -0.41,0.24 -0.51,0.53 -0.24,0.70 1.94,3.15 3.71,4.14 1.00,0.56 2.24,0.96 3.08,0.99 0.22,0.00 0.73,-0.14 1.12,-0.34 z M 36.12,34.63 c 0.61,-0.31 2.71,-2.54 3.59,-3.81 0.40,-0.59 1.05,-1.63 1.42,-2.31 0.71,-1.30 0.86,-1.97 1.05,-4.82 0.09,-1.39 -0.19,-2.92 -0.54,-2.85 -0.10,0.02 -0.19,-0.02 -0.19,-0.10 0,-0.22 -0.98,-0.78 -1.54,-0.86 -0.27,-0.04 -0.65,-0.15 -0.83,-0.25 -0.46,-0.24 -0.59,-0.22 -0.35,0.06 0.11,0.13 0.34,0.24 0.51,0.24 0.17,0 0.26,0.07 0.21,0.16 -0.05,0.08 -0.02,0.16 0.05,0.16 0.22,0 0.52,1.58 0.41,2.17 -0.04,0.26 -0.22,0.98 -0.38,1.60 -0.16,0.61 -0.34,1.41 -0.39,1.77 -0.11,0.71 -0.48,2.07 -0.83,3.06 -0.26,0.75 -1.40,2.38 -2.44,3.48 -0.76,0.81 -1.74,1.40 -2.32,1.41 -0.34,0.00 -0.35,0.00 -0.03,0.20 0.26,0.16 0.73,0.35 2.14,0.90 0.02,0.00 0.24,-0.08 0.48,-0.20 z M 9.26,34.18 c 0.38,-0.24 0.70,-0.89 0.56,-1.13 -0.06,-0.10 -0.03,-0.12 0.09,-0.04 0.11,0.06 0.17,0.06 0.14,-0.01 C 10.03,32.90 9.87,32.50 9.70,32.08 9.46,31.47 9.26,31.26 8.71,30.99 8.10,30.69 7.94,30.68 7.28,30.84 c -0.76,0.19 -1.70,1.03 -1.70,1.52 0,0.38 0.77,1.80 1.08,1.99 0.35,0.21 2.15,0.09 2.59,-0.18 z M 6.97,33.87 C 6.81,33.77 6.55,33.48 6.39,33.21 6.00,32.58 6.22,31.89 6.90,31.54 c 0.56,-0.29 0.56,-0.29 0.68,0.40 0.14,0.82 0.37,1.14 1.01,1.41 l 0.58,0.24 -0.39,0.22 c -0.47,0.26 -1.40,0.28 -1.81,0.04 z m 0.87,-0.70 c -0.27,-0.31 -0.49,-0.70 -0.49,-0.87 0,-0.40 -0.27,-0.56 -0.57,-0.31 -0.15,0.12 -0.22,0.41 -0.19,0.77 0.05,0.63 0.50,0.97 1.31,0.98 l 0.45,0.00 -0.49,-0.56 z M 27.30,34.21 c 0,-0.08 0.10,-0.11 0.23,-0.06 0.40,0.15 0.60,-0.68 0.48,-2.11 -0.11,-1.43 -1.38,-5.50 -2.40,-7.68 -0.31,-0.68 -0.58,-1.32 -0.58,-1.42 0,-0.09 -0.68,-0.84 -1.52,-1.66 -0.84,-0.81 -1.52,-1.60 -1.52,-1.75 0,-0.14 0.21,-0.49 0.48,-0.77 0.55,-0.57 0.54,-0.56 0.29,-0.71 -0.12,-0.07 -0.14,-0.04 -0.05,0.09 0.09,0.15 0.05,0.18 -0.12,0.11 -0.19,-0.07 -0.30,0.05 -0.45,0.48 -0.10,0.32 -0.36,0.74 -0.58,0.94 -0.50,0.46 -0.42,0.61 1.18,2.16 1.29,1.24 2.14,2.25 2.14,2.53 0,0.08 0.05,0.18 0.12,0.21 0.36,0.16 1.43,2.70 2.03,4.82 0.49,1.74 0.49,3.40 0.00,4.67 -0.06,0.16 -0.03,0.28 0.07,0.28 0.09,0 0.17,-0.07 0.17,-0.15 z M 12.70,32.50 c 0.55,-0.23 1.04,-0.48 1.09,-0.56 0.05,-0.08 0.26,-0.01 0.48,0.15 0.83,0.64 0.91,0.58 0.64,-0.46 l -0.24,-0.94 h -1.25 c -1.18,0 -2.94,-0.42 -3.42,-0.81 -0.18,-0.15 -1.02,0.01 -1.03,0.20 -0.01,0.50 0.02,0.60 0.19,0.60 0.32,0.00 1.89,1.61 1.89,1.94 0,0.42 0.44,0.39 1.65,-0.11 z m 22.05,-0.06 c 0.22,-0.17 0.57,-0.59 0.77,-0.92 0.20,-0.32 0.46,-0.69 0.57,-0.81 0.51,-0.53 1.63,-2.28 1.94,-3.05 0.18,-0.47 0.42,-1.30 0.53,-1.85 0.10,-0.54 0.28,-1.36 0.40,-1.82 0.12,-0.45 0.21,-1.36 0.21,-2.01 l -0.00,-1.18 -0.96,-0.45 c -0.53,-0.24 -1.40,-0.73 -1.95,-1.08 -0.54,-0.34 -1.05,-0.63 -1.13,-0.63 -0.08,0 0.14,0.32 0.50,0.72 0.36,0.39 0.66,0.84 0.65,1.00 -0.00,0.18 -0.42,-0.16 -1.20,-1.00 -0.66,-0.70 -1.27,-1.26 -1.36,-1.24 -0.08,0.02 -0.14,-0.05 -0.12,-0.16 0.02,-0.11 -0.06,-0.17 -0.20,-0.14 -0.13,0.02 -0.18,-0.00 -0.11,-0.06 0.14,-0.14 -0.50,-0.87 -0.78,-0.87 -0.11,0 -0.25,-0.08 -0.31,-0.18 -0.07,-0.12 -0.04,-0.14 0.11,-0.05 0.12,0.07 0.08,-0.02 -0.08,-0.21 -0.34,-0.38 -0.49,-0.45 -0.32,-0.14 0.05,0.11 -0.06,0.01 -0.27,-0.21 -0.20,-0.23 -0.74,-0.70 -1.18,-1.04 -0.44,-0.34 -0.97,-0.78 -1.18,-0.98 -0.21,-0.20 -0.43,-0.36 -0.49,-0.36 -0.06,0 -0.19,-0.18 -0.29,-0.40 -0.10,-0.22 -0.27,-0.38 -0.37,-0.36 -0.10,0.02 -0.20,-0.04 -0.22,-0.15 -0.01,-0.11 -0.03,-0.26 -0.04,-0.34 -0.01,-0.13 -1.16,-0.52 -2.13,-0.72 -0.42,-0.08 -0.42,-0.08 -0.26,0.59 0.19,0.84 0.07,2.02 -0.29,2.79 -0.31,0.67 -1.29,1.67 -1.62,1.67 -0.43,0 -0.09,0.40 0.37,0.43 0.25,0.02 0.61,0.06 0.79,0.10 0.17,0.03 0.38,0.07 0.46,0.08 0.08,0.00 0.01,0.15 -0.14,0.33 -0.28,0.31 -0.28,0.32 0.09,0.32 0.21,0.00 0.48,0.06 0.60,0.14 0.17,0.11 0.14,0.16 -0.12,0.24 -0.18,0.05 -0.43,0.05 -0.54,-0.01 -0.11,-0.06 -0.34,-0.14 -0.51,-0.17 -0.17,-0.02 -0.45,-0.17 -0.63,-0.32 -0.17,-0.15 -0.26,-0.18 -0.20,-0.08 0.14,0.23 -0.22,0.97 -0.68,1.39 -0.18,0.16 -0.33,0.36 -0.33,0.43 0,0.18 0.72,0.88 1.24,1.19 0.42,0.25 1.50,1.73 1.96,2.68 0.12,0.25 0.29,0.39 0.42,0.34 0.12,-0.04 0.26,0.03 0.31,0.17 0.08,0.21 0.30,0.24 1.40,0.18 0.72,-0.04 1.56,-0.15 1.87,-0.24 1.24,-0.36 1.35,-0.00 0.12,0.39 -0.46,0.14 -0.96,0.38 -1.12,0.51 -0.15,0.13 -0.38,0.20 -0.52,0.15 -0.30,-0.11 -0.75,0.04 -0.64,0.22 0.07,0.12 -0.55,0.07 -0.99,-0.07 -0.19,-0.06 0.04,0.79 0.81,2.96 0.63,1.77 0.87,2.58 0.98,3.30 0.09,0.60 0.39,1.18 0.39,0.75 0,-0.10 0.12,-0.19 0.26,-0.19 0.50,0 2.00,-0.85 2.38,-1.35 0.20,-0.27 0.53,-1.08 0.72,-1.79 0.23,-0.86 0.49,-1.45 0.79,-1.77 0.24,-0.26 0.55,-0.68 0.67,-0.94 0.24,-0.50 0.95,-1.06 0.95,-0.75 0,0.09 -0.26,0.47 -0.58,0.82 -0.32,0.35 -0.60,0.82 -0.62,1.03 -0.05,0.52 -0.21,0.75 -0.43,0.62 -0.10,-0.06 -0.12,-0.03 -0.05,0.08 0.06,0.10 0.00,0.36 -0.13,0.58 -0.14,0.21 -0.25,0.51 -0.25,0.67 -0.00,0.58 -0.34,1.50 -0.67,1.81 -0.18,0.17 -0.30,0.35 -0.25,0.40 0.04,0.04 0.39,-0.22 0.76,-0.60 0.72,-0.73 1.17,-1.58 1.35,-2.57 0.06,-0.33 0.18,-0.60 0.28,-0.60 0.17,0 0.13,0.26 -0.27,1.71 -0.17,0.60 -0.47,1.08 -1.11,1.76 -0.86,0.91 -0.91,1.16 -0.24,1.19 0.13,0.00 0.38,0.11 0.55,0.24 0.44,0.33 1.26,0.29 1.74,-0.08 z m -3.91,-7.68 c 0,-0.19 1.14,-1.32 1.33,-1.32 0.07,0 0.34,-0.14 0.59,-0.32 0.30,-0.21 0.49,-0.26 0.56,-0.14 0.13,0.21 0.14,0.19 -0.68,0.61 -0.37,0.18 -0.93,0.56 -1.24,0.84 -0.31,0.27 -0.56,0.42 -0.56,0.33 z m -1.36,-1.16 c 0.05,-0.08 0.23,-0.16 0.41,-0.16 0.17,0 0.31,-0.07 0.31,-0.17 0,-0.09 0.08,-0.11 0.18,-0.05 0.12,0.08 0.09,0.18 -0.11,0.33 -0.34,0.25 -0.94,0.29 -0.79,0.05 z m 6.13,-1.60 c -0.14,-0.35 -0.32,-0.64 -0.40,-0.64 -0.07,0 -0.22,-0.32 -0.32,-0.73 -0.10,-0.40 -0.39,-1.07 -0.65,-1.48 -0.25,-0.41 -0.43,-0.78 -0.39,-0.83 0.09,-0.09 0.77,0.72 1.05,1.27 0.11,0.22 0.32,0.58 0.48,0.81 0.29,0.43 0.77,1.69 0.77,2.03 0.00,0.41 -0.29,0.17 -0.54,-0.44 z m 6.98,8.30 c 0,-0.18 -0.85,-1.54 -0.96,-1.54 -0.26,0 -0.31,0.28 -0.07,0.48 0.13,0.10 0.23,0.32 0.23,0.46 0,0.32 0.30,0.65 0.59,0.65 0.11,0 0.20,-0.02 0.20,-0.05 z M 17.97,29.94 c 0.27,-0.16 0.66,-1.24 0.67,-1.86 0.00,-0.31 -0.10,-0.80 -0.25,-1.07 -0.14,-0.27 -0.26,-0.60 -0.26,-0.74 0,-0.24 -0.64,-0.21 -1.60,0.07 -0.33,0.09 -0.27,0.12 0.29,0.13 0.78,0.01 1.01,0.18 1.28,0.96 0.25,0.73 0.23,1.49 -0.03,1.87 -0.19,0.27 -0.42,0.31 -1.72,0.31 -0.95,-0.00 -1.61,-0.07 -1.82,-0.21 -0.27,-0.17 -0.06,-0.19 1.33,-0.12 l 1.66,0.08 0.23,-0.57 c 0.26,-0.63 0.17,-1.42 -0.19,-1.56 -0.12,-0.04 -0.23,-0.20 -0.23,-0.33 0,-0.19 -0.22,-0.24 -1.11,-0.24 -0.97,0 -1.17,0.05 -1.62,0.42 -0.52,0.44 -0.54,0.62 -0.22,1.64 0.09,0.29 0.06,0.36 -0.10,0.31 -0.12,-0.04 -0.28,-0.37 -0.35,-0.74 -0.18,-0.94 0.11,-1.51 0.89,-1.70 0.81,-0.20 0.76,-0.46 -0.08,-0.37 -1.03,0.10 -3.61,-0.16 -4.02,-0.42 C 10.49,25.65 9.96,25.44 9.52,25.31 9.08,25.17 8.39,24.92 7.99,24.73 7.19,24.36 6.86,24.31 6.86,24.55 c 0,0.09 -0.22,0.36 -0.48,0.60 -0.48,0.43 -0.48,0.45 -0.38,1.59 l 0.10,1.15 1.07,0.49 c 0.59,0.27 1.21,0.49 1.38,0.49 0.16,0.00 0.74,0.18 1.27,0.41 0.53,0.22 1.03,0.42 1.12,0.45 0.08,0.02 0.26,0.08 0.40,0.13 0.13,0.04 0.33,0.11 0.44,0.14 0.36,0.09 5.97,-0.00 6.15,-0.10 z m -7.12,-0.67 c -0.15,-0.04 -0.28,-0.14 -0.28,-0.23 0,-0.08 0.07,-0.11 0.16,-0.05 0.18,0.11 0.20,-0.46 0.04,-1.04 -0.10,-0.36 -0.12,-0.34 -0.21,0.24 l -0.10,0.64 -0.02,-0.61 c -0.02,-0.67 0.20,-1.23 0.50,-1.23 0.13,0 0.19,0.36 0.19,1.20 v 1.18 c 0,-0.01 -0.12,-0.05 -0.28,-0.09 z m 3.84,-1.17 c 0.12,-0.70 0.15,-0.73 0.25,-0.33 0.04,0.17 -0.01,0.45 -0.13,0.60 -0.19,0.25 -0.21,0.22 -0.12,-0.27 z m 2.42,-2.31 c 0.05,-0.05 -0.29,-0.09 -0.77,-0.09 -1.22,-0.00 -1.54,-0.12 -1.91,-0.71 -0.36,-0.58 -0.41,-1.31 -0.14,-1.91 0.15,-0.33 0.33,-0.42 1.08,-0.51 0.49,-0.06 1.31,-0.12 1.82,-0.12 0.50,-0.00 0.92,-0.02 0.92,-0.03 0,-0.01 -0.19,-0.15 -0.43,-0.30 -0.34,-0.22 -0.95,-0.31 -2.85,-0.40 -2.34,-0.11 -4.22,-0.48 -4.03,-0.78 0.14,-0.23 -0.97,-0.65 -1.73,-0.65 -0.79,0 -1.12,-0.23 -0.57,-0.40 0.44,-0.14 1.91,-0.20 1.91,-0.08 0,0.05 0.42,0.33 0.95,0.61 1.02,0.56 1.22,0.49 0.94,-0.32 -0.08,-0.24 -0.12,-0.51 -0.09,-0.61 0.07,-0.21 0.93,1.07 0.93,1.39 0,0.12 0.14,0.22 0.32,0.22 0.17,0 0.32,-0.07 0.32,-0.16 0,-0.09 0.15,-0.37 0.34,-0.63 0.33,-0.44 0.33,-0.48 0.07,-0.88 -0.14,-0.22 -0.32,-0.38 -0.39,-0.34 -0.38,0.23 -1.19,-1.14 -1.07,-1.83 0.07,-0.39 -0.02,-0.67 -0.40,-1.25 -0.27,-0.41 -0.53,-0.91 -0.58,-1.11 -0.12,-0.48 0.05,-1.16 0.30,-1.17 0.10,-0.00 0.37,-0.19 0.59,-0.42 l 0.40,-0.42 -3.23,0.08 -3.23,0.08 -1.10,0.58 c -1.30,0.69 -3.43,2.41 -3.43,2.77 4.83e-5,0.16 0.08,0.22 0.25,0.15 0.14,-0.05 0.22,-0.04 0.19,0.02 -0.03,0.06 -0.22,0.47 -0.43,0.90 -0.67,1.42 -0.22,2.99 0.84,2.99 0.43,-1.61e-4 2.11,-1.30 2.49,-1.93 0.21,-0.35 0.29,-0.84 0.31,-1.94 0.01,-0.80 0.06,-1.51 0.10,-1.55 0.21,-0.21 0.31,0.24 0.30,1.30 -0.00,0.63 0.01,1.21 0.05,1.28 0.15,0.26 1.00,-0.43 1.10,-0.91 0.05,-0.27 0.28,-0.88 0.50,-1.35 0.22,-0.47 0.36,-1.00 0.32,-1.16 -0.04,-0.16 -0.01,-0.30 0.06,-0.30 0.16,0 0.17,0.12 0.16,1.51 -0.00,0.52 -0.06,1.01 -0.14,1.08 -0.07,0.07 -0.11,-0.13 -0.09,-0.46 0.03,-0.54 0.02,-0.52 -0.16,0.20 -0.11,0.44 -0.26,0.96 -0.32,1.15 -0.09,0.30 -0.05,0.34 0.25,0.29 1.48,-0.22 2.06,-0.23 2.63,-0.03 0.71,0.24 0.95,0.20 1.47,-0.26 0.19,-0.18 0.41,-0.27 0.48,-0.20 0.06,0.06 -0.01,0.19 -0.17,0.28 -0.28,0.15 -0.26,0.19 0.16,0.53 0.39,0.31 0.42,0.38 0.19,0.47 -0.14,0.05 -0.48,-0.00 -0.74,-0.14 -0.26,-0.13 -0.50,-0.21 -0.53,-0.18 -0.03,0.03 -0.49,0.08 -1.02,0.10 -0.53,0.02 -1.03,0.10 -1.12,0.17 -0.08,0.06 -0.89,0.61 -1.79,1.21 -0.89,0.59 -1.59,1.17 -1.55,1.27 0.03,0.10 -0.00,0.23 -0.09,0.29 -0.09,0.05 -0.17,0.44 -0.17,0.85 0,0.59 0.09,0.84 0.43,1.19 0.56,0.59 0.74,0.56 0.61,-0.07 -0.09,-0.47 -0.05,-0.44 0.42,0.31 0.49,0.79 0.61,0.87 1.87,1.32 1.57,0.56 1.55,0.56 1.41,0.20 -0.07,-0.20 0.01,-0.16 0.34,0.12 0.24,0.22 0.49,0.45 0.54,0.53 0.23,0.31 5.60,0.50 5.89,0.20 z m -6.97,-2.38 c 0.02,-0.59 0.11,-1.16 0.20,-1.25 0.12,-0.12 0.13,0.08 0.04,0.68 -0.23,1.54 -0.28,1.67 -0.25,0.57 z m -2.88,0.02 C 6.88,22.67 7.05,22.54 7.45,23.27 c 0.19,0.35 0.28,0.63 0.20,0.63 -0.07,0 -0.25,-0.22 -0.39,-0.49 z m 3.31,0.00 c -0.00,-0.22 0.10,-0.55 0.23,-0.72 0.23,-0.30 0.23,-0.30 0.23,0.00 -3.22e-4,0.17 -0.10,0.50 -0.23,0.72 l -0.22,0.40 -0.00,-0.41 z m -0.24,-4.09 c -0.26,-0.12 -0.68,-0.22 -0.92,-0.22 -0.24,-0.00 -0.44,-0.07 -0.44,-0.16 0,-0.08 0.14,-0.16 0.31,-0.16 0.43,0 1.61,0.48 1.61,0.66 0,0.07 -0.01,0.13 -0.04,0.13 -0.02,-0.00 -0.25,-0.11 -0.52,-0.23 z m 8.09,6.16 c 0.10,-0.10 0.19,-0.29 0.19,-0.42 0,-0.18 -0.04,-0.18 -0.23,-0.03 -0.13,0.10 -0.20,0.25 -0.15,0.33 0.04,0.07 -0.11,0.16 -0.36,0.19 -0.43,0.06 -0.43,0.06 -0.03,0.09 0.22,0.01 0.49,-0.06 0.60,-0.16 z m -0.32,-1.04 c 0.03,-0.54 -0.04,-1.01 -0.21,-1.33 -0.28,-0.55 -0.04,-0.53 -2.52,-0.22 -0.72,0.09 -0.75,0.11 -0.85,0.71 -0.07,0.43 -0.03,0.72 0.13,0.96 0.22,0.31 0.24,0.32 0.30,0.04 0.03,-0.16 0.00,-0.51 -0.06,-0.77 -0.11,-0.45 -0.11,-0.46 0.11,-0.16 0.13,0.17 0.23,0.53 0.21,0.80 -0.04,0.94 -0.09,0.91 1.41,0.85 l 1.40,-0.05 0.04,-0.83 z m 0.46,-1.21 c -0.04,-0.11 -0.08,-0.01 -0.08,0.20 0,0.22 0.03,0.31 0.08,0.20 0.04,-0.11 0.04,-0.29 0,-0.40 z m 3.22,-5.45 c -0.05,-0.20 -0.08,-0.41 -0.06,-0.45 0.04,-0.12 -1.03,-1.63 -1.11,-1.55 -0.06,0.06 0.50,1.45 0.91,2.23 0.09,0.17 0.07,0.31 -0.03,0.38 -0.11,0.06 -0.13,0.04 -0.06,-0.07 0.06,-0.10 0.03,-0.18 -0.05,-0.18 -0.09,0 -0.17,0.16 -0.17,0.35 v 0.35 l 0.34,-0.34 c 0.23,-0.23 0.31,-0.45 0.24,-0.71 z M 19.09,17.58 c 0,-0.11 -0.10,-0.21 -0.24,-0.21 -0.13,0 -0.24,0.09 -0.24,0.21 0,0.11 0.10,0.21 0.24,0.21 0.13,0 0.24,-0.09 0.24,-0.21 z m 3.63,-0.20 c -0.11,-0.46 -0.88,-1.74 -0.98,-1.63 -0.09,0.09 0.61,1.78 0.81,1.93 0.25,0.18 0.28,0.14 0.17,-0.29 z m -7.65,0.11 c 0,-0.16 -0.49,-0.38 -0.60,-0.27 -0.04,0.04 -0.02,0.15 0.03,0.24 0.12,0.20 0.56,0.22 0.56,0.02 z m 4.02,-0.58 c 0,-0.13 -0.07,-0.20 -0.16,-0.15 -0.08,0.05 -0.16,0.16 -0.16,0.25 0,0.08 0.07,0.15 0.16,0.15 0.08,0 0.16,-0.11 0.16,-0.25 z m -1.92,-0.18 c 0.56,-0.39 0.59,-0.46 0.52,-1.38 -0.14,-1.92 -0.89,-3.13 -1.98,-3.19 -0.49,-0.02 -1.93,0.53 -1.93,0.75 0,0.04 0.22,-0.03 0.49,-0.17 0.97,-0.50 2.17,-0.17 2.63,0.72 0.23,0.44 0.22,0.48 -0.15,0.78 -0.22,0.17 -0.40,0.37 -0.40,0.45 0,0.23 -0.87,0.67 -1.57,0.78 -0.91,0.14 -1.35,0.00 -1.99,-0.65 l -0.55,-0.56 0.06,0.56 c 0.11,1.00 1.16,1.77 2.73,2.00 1.42,0.20 1.70,0.19 2.13,-0.09 z m 1.53,-0.36 c -0.15,-0.25 -0.41,-0.04 -0.30,0.24 0.06,0.16 0.14,0.19 0.25,0.08 0.08,-0.08 0.10,-0.23 0.04,-0.33 z m 4.57,-0.49 c -0.38,-0.24 -0.50,-0.17 -0.31,0.18 0.13,0.25 0.22,0.29 0.36,0.15 0.13,-0.13 0.12,-0.22 -0.05,-0.33 z m -4.34,-0.27 c -0.00,-0.41 -0.01,-0.42 -0.23,-0.13 -0.23,0.30 -0.18,0.57 0.09,0.57 0.08,0 0.14,-0.19 0.14,-0.44 z m 5.07,-0.04 c 0.17,-0.28 -0.08,-0.51 -0.33,-0.30 -0.12,0.10 -0.22,0.25 -0.22,0.32 0,0.19 0.44,0.17 0.56,-0.01 z m -2.75,-0.82 c 0.65,-0.03 0.83,0.01 1.08,0.32 0.25,0.31 0.34,0.34 0.55,0.16 0.61,-0.51 0.77,-1.21 0.53,-2.42 -0.24,-1.25 -0.84,-1.92 -1.77,-2.00 -0.38,-0.03 -0.95,-0.09 -1.26,-0.14 -0.30,-0.04 -0.45,-0.03 -0.32,0.01 0.35,0.14 0.97,0.73 1.16,1.10 0.15,0.30 0.14,0.30 -0.16,-0.01 -0.18,-0.18 -0.58,-0.50 -0.90,-0.69 -0.31,-0.19 -0.53,-0.42 -0.48,-0.50 0.14,-0.23 -0.63,-0.17 -1.29,0.10 l -0.60,0.25 0.41,0.43 c 0.48,0.51 0.85,1.48 1.01,2.64 0.09,0.71 0.15,1.15 0.21,1.37 0.00,0.02 0.24,-0.09 0.53,-0.26 0.28,-0.17 0.87,-0.34 1.30,-0.36 z m -5.27,-0.24 c 0.39,-0.40 0.71,-0.80 0.71,-0.88 0,-0.24 -0.77,-0.65 -1.12,-0.59 -0.32,0.05 -0.32,0.06 0.07,0.49 0.54,0.58 0.07,0.61 -0.50,0.03 l -0.41,-0.41 -0.88,0.36 c -0.48,0.20 -0.92,0.45 -0.96,0.56 -0.04,0.10 0.07,0.35 0.26,0.55 0.18,0.19 0.33,0.30 0.33,0.23 0,-0.06 0.11,-0.00 0.25,0.13 0.14,0.14 0.52,0.25 0.89,0.25 0.55,0 0.74,-0.10 1.35,-0.74 z m 8.59,0.41 c 0,-0.09 -0.07,-0.12 -0.16,-0.07 -0.08,0.05 -0.16,0.13 -0.16,0.17 0,0.03 0.07,0.07 0.16,0.07 0.08,0 0.16,-0.07 0.16,-0.17 z m -5.79,-0.75 c 0.00,-0.11 -0.18,-0.20 -0.40,-0.20 -0.40,0 -0.40,0.00 -0.12,0.38 0.28,0.37 0.52,0.29 0.52,-0.18 z m 5.79,0.20 c 0,-0.11 -0.09,-0.28 -0.22,-0.38 -0.17,-0.14 -0.24,-0.10 -0.31,0.16 -0.04,0.19 -0.05,0.40 -0.01,0.47 0.11,0.18 0.55,-0.02 0.55,-0.25 z m 0.32,-0.67 c 0,-0.32 -0.04,-0.38 -0.18,-0.25 -0.09,0.10 -0.13,0.29 -0.08,0.43 0.14,0.38 0.26,0.30 0.26,-0.18 z m -6.34,-0.31 c -0.09,-0.23 -0.13,-0.24 -0.25,-0.05 -0.09,0.14 -0.07,0.27 0.04,0.34 0.25,0.15 0.33,0.04 0.20,-0.29 z m 6.11,-0.22 c 0.12,-0.20 -0.51,-0.90 -0.67,-0.73 -0.14,0.14 0.20,0.91 0.41,0.91 0.08,0 0.20,-0.07 0.26,-0.17 z M 17.89,12.97 c 0.05,-0.08 -0.01,-0.16 -0.15,-0.16 -0.13,0 -0.25,0.07 -0.25,0.16 0,0.08 0.06,0.16 0.15,0.16 0.08,0 0.19,-0.07 0.25,-0.16 z m 0.24,-0.41 c 0,-0.52 -1.10,-1.48 -1.45,-1.26 -0.08,0.05 -0.14,0.00 -0.14,-0.09 0,-0.14 -0.05,-0.14 -0.21,-0.01 -0.11,0.09 -0.25,0.13 -0.30,0.08 -0.11,-0.11 -0.76,0.07 -0.76,0.23 0,0.10 0.16,0.14 0.92,0.20 0.15,0.01 0.49,-0.03 0.74,-0.10 0.44,-0.12 0.46,-0.11 0.35,0.32 -0.07,0.30 -0.04,0.49 0.09,0.58 0.24,0.15 0.77,0.18 0.77,0.04 z m 6.59,-0.22 c 0,-0.08 -0.07,-0.16 -0.17,-0.16 -0.09,0 -0.12,0.07 -0.07,0.16 0.05,0.08 0.13,0.16 0.17,0.16 0.03,0 0.07,-0.07 0.07,-0.16 z m -0.32,-0.62 c 0,-0.24 -0.45,-0.53 -0.74,-0.47 -0.26,0.05 -0.26,0.06 0.00,0.33 0.29,0.29 0.74,0.38 0.74,0.14 z m -1.40,-1.30 c -0.08,-0.32 -0.23,-0.40 -0.42,-0.21 -0.11,0.11 0.17,0.53 0.37,0.53 0.06,0 0.08,-0.14 0.04,-0.32 z m 1.07,-0.14 c 0,-0.14 -0.37,-0.33 -0.67,-0.33 -0.10,0 -0.08,0.09 0.03,0.24 0.21,0.26 0.64,0.32 0.64,0.09 z m 2.52,-1.07 c 0.29,-0.05 0.49,-0.15 0.45,-0.22 -0.14,-0.22 -1.68,0.23 -1.68,0.50 0,0.08 -0.18,0.22 -0.40,0.33 -0.22,0.10 -0.40,0.24 -0.40,0.31 0,0.07 0.33,-0.08 0.75,-0.34 0.41,-0.26 0.99,-0.52 1.28,-0.57 z M 21.96,8.98 C 21.82,8.83 21.61,8.41 21.50,8.06 21.24,7.29 21.04,6.99 20.86,7.10 c -0.32,0.20 0.67,2.16 1.09,2.16 0.22,0 0.22,-0.02 0.00,-0.28 z M 43.48,28.31 c -0.51,-0.28 -1.09,-0.86 -0.97,-0.98 0.03,-0.03 0.31,0.11 0.61,0.34 0.32,0.25 0.75,0.41 1.07,0.41 0.34,0 0.49,0.06 0.45,0.20 -0.09,0.30 -0.62,0.30 -1.16,0.01 z" />
</svg>
