<?xml version="1.0" encoding="UTF-8" standalone="no"?>
<!-- Created with Inkscape (http://www.inkscape.org/) -->
<svg xmlns:dc="http://purl.org/dc/elements/1.1/" xmlns:cc="http://creativecommons.org/ns#" xmlns:rdf="http://www.w3.org/1999/02/22-rdf-syntax-ns#" xmlns:svg="http://www.w3.org/2000/svg" xmlns="http://www.w3.org/2000/svg" version="1.1" width="100%" height="100%" viewBox="0 0 48 48" id="svg3021" xml:space="preserve" style="overflow:visible">
<defs id="defs243" />
<path d="M 32.01,0.72 17.68,14.56 l -0.20,0.00 0,0.00 -0.39,-0.07 -0.28,-0.09 -0.03,0.00 -0.84,0.46 -0.01,0.02 -0.06,0.47 -0.09,0.28 -0.00,0.00 -0.33,0.53 -0.50,0.70 0,0.00 -0.41,0.66 0,0.00 -0.00,0.01 -5.61,0.49 -0.01,0 -0.03,0.03 0,1.29 0.03,0.03 0.24,0.03 -0.01,0.69 -0.05,0.56 0,0.00 -0.07,0.53 -0.12,0.31 0,0.00 -0.17,0.23 -0.00,0.00 -0.33,0.23 -0.40,0.14 -0.40,0.09 -0.76,0.15 -0.00,0 -0.35,0.11 -0.00,0.00 -0.21,0.13 -0.00,0.00 -0.19,0.23 -0.00,0.01 -0.05,0.32 0,0.00 0.00,1.59 0.02,0.03 0.15,0.05 0,0.65 0.02,0.03 5.45,1.93 0.21,7.13 0,0.00 -0.00,0.07 -0.03,0.07 -0.18,0.21 -0.00,0.02 0.25,1.53 0.02,0.02 0.28,0.09 -0.07,0.15 -0.14,0 -0.00,0.00 -0.12,0.02 -0.00,0.00 -0.16,0.08 -0.01,0.00 -0.12,0.13 -0.00,0.00 -0.08,0.16 -0.00,0.01 0,0.15 0,0.00 0.02,0.18 0.00,0.00 0.09,0.17 0.00,0.00 0.12,0.12 0.00,0.00 0.16,0.08 0.01,0.00 0.22,0.00 0.13,0 0.00,-0.00 c 0.01,0.00 0.03,0.00 0.05,0.00 0.35,0 0.62,-0.27 0.62,-0.62 0,-0.04 -0.00,-0.08 -0.01,-0.13 l 0.03,-0.04 0.00,-0.00 0.15,-0.26 0.00,-0.00 0.06,-0.24 0.16,-0.03 0.02,-0.02 0.24,-1.69 -0.00,-0.02 -0.16,-0.19 -0.00,-0.00 -0.03,-0.08 0,-0.00 -0.01,-0.15 0,-0.00 0,-0.00 0.57,-6.20 5.30,1.87 0,7.51 -0.92,0.22 -0.00,0 0,0.00 -0.01,0.00 0,0.00 -0.01,0 -0.13,0.13 -0.00,0.02 0,1.21 -0.43,0 -0.21,-0.02 -0.16,-0.02 -0.16,0.00 -0.14,0.04 -0.10,0.07 -0.06,0.09 -0.02,0.08 0,0.07 0.01,0.06 0.05,0.07 0.09,0.08 0.12,0.06 0.16,0.03 0.16,0 0.22,-0.02 0.31,-0.07 0.38,-0.08 0.00,-0.00 0.34,0.16 -0.09,0.02 -0.21,0.03 -0.23,0.06 -0.15,0.06 -0.12,0.09 -0.04,0.08 -0.02,0.07 0.01,0.09 0.03,0.08 0.08,0.07 0.09,0.03 0.27,0.06 0.32,-0.00 0.27,-0.07 0.21,-0.09 0.29,-0.18 0.07,-0.05 0.39,0.18 -0.00,0.00 -0.10,0.04 -0.10,0.07 -0.09,0.08 -0.09,0.09 -0.08,0.09 -0.04,0.08 -0.03,0.09 -0.01,0.10 0.00,0.10 0.06,0.09 0.16,0.12 0.11,0.03 0.10,0.01 0.10,0.00 0.12,-0.01 0.08,-0.03 0.06,-0.04 0.06,-0.07 0.04,-0.09 0.09,-0.18 0.08,-0.19 0.07,-0.10 0.01,-0.00 0.96,0.45 0.02,-0.00 0.00,-0.00 0.01,-0.00 0.00,-0.00 1.27,-0.55 0.01,-0.02 0,-1.25 0.01,-0.02 0,-0.04 -0.18,-0.22 -0.01,-0.01 -0.03,-0.00 -0.19,-0.08 0,-0.20 3.73,-7.24 c 0.04,-0.00 0.08,-0.02 0.12,-0.02 l -0.08,0.17 0.01,0.04 1.12,0.36 0.01,0.02 0.06,0.02 0.00,0 0.01,0.00 0.88,0.34 0.28,9.64 0,0.11 -0.06,0.11 -0.00,0.00 -0.24,0.27 -0.00,0.03 0.34,2.06 0.02,0.02 0.38,0.13 -0.07,0.15 -0.18,0.00 -0.00,0 -0.12,0.01 -0.00,0.00 -0.21,0.11 -0.00,0.00 -0.16,0.17 -0.00,0.00 -0.08,0.19 -0.00,0.00 -0.01,0.19 0,0.00 0.03,0.22 0.00,0.01 0.11,0.21 0.00,0.00 0.13,0.15 0.00,0.00 0.20,0.10 0.00,0.00 0.26,0.02 0.00,0 0.16,0 0.02,-0.02 c 0.01,9.46e-4 0.03,0.00 0.04,0.00 0.41,0 0.75,-0.32 0.75,-0.73 0,-0.06 -0.00,-0.12 -0.02,-0.19 l 0.02,-0.04 0.18,-0.32 0.00,-0.00 0.04,-0.19 0.37,-0.08 0.02,-0.02 0,-0.00 0.11,-0.02 0.25,-2.30 -0.25,-0.32 0,-0.10 0.85,-9.40 0.19,-0.02 0.02,-0.01 0.03,-0.07 0,-0.00 0.17,-0.46 0.00,-0.00 0.26,-0.50 0.00,-0.00 0.31,-0.39 0.00,-0.00 0.40,-0.40 0.00,0 0.38,-0.30 0.25,-0.19 0.00,0 0.32,-0.17 0.46,-0.23 0.00,-0.01 0.00,-0.00 0,-0.00 0.00,-0.01 0,-0.32 c 0.29,-0.06 0.59,-0.13 0.89,-0.20 0.34,-0.07 0.68,-0.16 1.02,-0.25 l 0.02,0.66 0.00,0 -0.00,0.08 -0.03,0.08 -0.17,0.14 -0.01,0.03 0.24,1.50 0.02,0.02 0.29,0.10 -0.07,0.15 c -0.06,9.48e-4 -0.13,-0.00 -0.20,0.01 -0.06,0.00 -0.12,0.04 -0.18,0.07 -0.06,0.02 -0.09,0.09 -0.14,0.14 -0.05,0.05 -0.08,0.13 -0.12,0.20 -0.00,0.05 -0.02,0.11 -0.02,0.17 0.01,0.06 0.02,0.12 0.04,0.19 0.04,0.06 0.07,0.13 0.11,0.19 0.05,0.04 0.08,0.11 0.15,0.14 0.05,0.02 0.10,0.07 0.17,0.06 0.07,0.00 0.14,0.01 0.22,0.01 0.03,-0.00 0.06,0.00 0.09,-0.00 0.03,-0.05 0.09,-0.03 0.15,-0.04 0.27,-0.03 0.49,-0.29 0.49,-0.57 0.00,-0.05 -0.04,-0.12 0,-0.17 0.05,-0.10 0.11,-0.20 0.15,-0.30 0.01,-0.07 0.03,-0.14 0.04,-0.21 l 0.17,-0.03 0.02,-0.02 0.23,-1.68 -0.00,-0.02 -0.16,-0.15 -0.00,-0.00 -0.00,-0.00 -0.02,-0.06 -0.02,-0.16 0,-0.00 0,-0.00 0.10,-1.16 c 0.28,-0.21 0.45,-0.59 0.45,-0.95 0.01,-1.45 0.01,-2.90 0.00,-4.36 l 0.22,-0.14 0.40,-0.19 0.76,-0.25 0.84,-0.23 0.14,-0.06 0.03,0.02 0.09,-0.02 0.00,-0.00 0.15,-0.07 0.00,-0.00 0.09,-0.09 0.00,-0.00 0.08,-0.10 0.00,-0.00 0.03,-0.11 0,-0.00 0.00,-0.14 0,-0.00 -0.00,-4.39 0,-0.01 0,-0.07 -0.00,-0.01 -0.01,-0.03 -0.00,-0.00 -0.05,-0.06 -0.00,-0.00 -0.08,-0.05 -0.00,-0.00 -0.08,-0.04 -0.00,0 -0.17,-0.05 -0.00,-0.00 -0.01,0.03 -0.32,-0.08 -0.87,-0.11 -1.15,-0.11 -1.42,-0.07 -1.61,-0.02 -0.69,-0.01 -0.43,-0.92 -0.00,-0.00 -0.02,-0.03 0.01,-0.00 0.00,0 0.68,-0.40 0.61,-0.40 0.00,-0.00 1.37,-0.99 1.29,-1.01 0.82,-0.67 0.00,-0.00 0.33,-0.32 0.00,-0.00 0.27,-0.37 0.00,-0.00 0.16,-0.31 0.00,-0.00 0.07,-0.23 0,-0.00 0.03,-0.25 0.00,-0.00 0,-0.16 0.02,-0.18 -0.02,-0.24 L 39.83,9.87 39.76,9.70 39.58,9.52 39.34,9.34 39.06,9.18 38.04,8.80 36.63,8.41 35.15,7.91 34.50,7.62 34.07,7.40 33.83,7.13 l -0.11,-0.28 -0.01,-0.11 1.67,-1.32 0.04,0.01 3.99,-3.08 -0.01,-0.06 -0.00,0 0,-0.26 -7.39,-1.28 z m -0.50,0.60 0.25,0.49 -0.39,0.37 0.90,-0.84 0.68,0.06 0.66,0.12 0.21,0.07 0.22,0.08 0.19,0.13 0.13,0.12 0.16,0.22 0.10,0.21 0.01,0.34 -0.50,0.25 -0.01,0.03 0.11,0.90 0.02,-0.00 -0.00,0.03 0.15,0.07 -0.01,0.05 L 34.19,4.57 34.05,4.20 33.94,4.05 33.78,4.02 33.65,3.98 33.54,3.85 33.47,3.68 33.38,3.44 33.34,3.28 33.25,3.15 33.07,3.11 32.90,3.01 32.77,2.77 32.72,2.62 32.54,2.48 l -0.14,-0.04 -0.12,0 -0.25,0.08 -0.19,0.10 -0.22,0.14 -0.47,0.13 -0.50,0 -12.13,11.54 -0.42,0.09 -0.00,0 -0.22,0.00 13.68,-13.23 z m 2.80,0.18 5.00,0.82 -3.87,2.99 -0.02,-0.09 0,-0.00 -0.03,-0.19 -0.00,-0.00 -0.06,-0.15 -0.06,-0.17 -0.00,-0.00 -0.12,-0.18 -0.10,-0.13 -0.00,-0.00 -0.18,-0.18 -0.00,-0.00 -0.15,-0.11 -0.00,-0.00 -0.30,-0.14 -0.11,-0.85 0.50,-0.25 0.01,-0.03 -0.01,-0.38 0,-0.00 -0.05,-0.31 0,-0.00 -0.10,-0.26 -0.00,-0.01 -0.15,-0.17 -0.00,-0.00 -0.10,-0.08 z m -5.04,3.66 0.11,0 0.05,0.02 0.08,0.05 0.03,0.04 0,0.04 -0.02,0.05 -0.00,0 0,-0.00 -0.08,-0.02 -0.09,-0.00 -0.07,0 -0.09,0.03 -0.07,0.06 -0.05,0.06 -0.02,0.04 0,0.04 0.02,0.08 0.02,0.04 0.02,0.03 0.01,0.03 -0.04,0.02 -0.08,0 -0.10,-0.00 -0.08,-0.07 -0.00,-0.09 0,-0.09 0.06,-0.14 0.07,-0.10 0.11,-0.08 0.12,-0.04 0.09,-0.02 z m 0.07,0.35 0.09,0.15 0,0.00 4.02,9.29 0.00,0.00 0.10,0.12 0.00,0.00 0.38,0.37 0.00,0.00 0.20,0.31 0.00,0.00 1.92,4.11 -0.15,0.01 -1.69,-3.65 -0.38,0.01 0.02,0.04 0.29,0.01 0.01,0.04 1.63,3.53 -0.44,0.04 -0.09,0.00 -1.87,-4.08 -0.07,-0.31 -0.12,-0.41 -0.13,-0.33 -0.56,-1.26 0.51,1.31 0.05,0.21 0,0.33 0.04,0.33 0.04,0.18 1.73,4.06 -0.00,0.00 -1.69,-3.89 -0.12,-0.31 0,-0.00 -0.03,-0.38 -0.02,-0.35 -0.00,-0.00 -3.77,-9.41 -0.02,-0.07 0.03,-0.04 0.08,-0.03 z m 3.09,0.42 c 0.01,-0.00 0.02,-6.43e-4 0.03,0 0.03,0.00 0.06,0.01 0.09,0.02 0.12,0.08 0.13,0.28 0.02,0.46 -0.11,0.15 -0.30,0.22 -0.43,0.14 -0.11,-0.08 -0.12,-0.28 -0.00,-0.44 0.07,-0.10 0.17,-0.17 0.27,-0.18 z m 3.72,2.84 0.07,0.02 0.00,0 1.81,0.51 0.49,0.15 0.00,0 0.39,0.16 0.00,0.00 0.35,0.18 0.00,0.00 0.23,0.16 0.00,0.00 0.18,0.22 0.09,0.21 0,0.24 0.00,0 -0.03,0.24 0,0.00 -0.06,0.22 -0.00,0.00 -0.15,0.29 -0.00,0.00 -0.26,0.36 -0.00,0.00 -0.32,0.31 -0.00,0.00 -0.82,0.66 -1.29,1.01 -1.37,0.98 -0.00,0.00 -0.61,0.40 -0.67,0.40 -0.00,0 -0.02,0.01 -0.14,-0.22 -0.00,-0.00 -0.38,-0.38 -0.00,-0.00 -0.09,-0.11 -0.00,-0.00 -0.07,-0.16 0.37,-0.51 0.00,-0.00 0.46,-0.71 0.33,-0.57 0,-0.00 0.37,-0.69 0.39,-0.76 0.28,-0.60 0.00,-0.00 0.20,-0.64 0.17,-0.70 0,-0.00 0.09,-0.72 z m -15.80,5.35 0.00,0 0.63,0 0.00,0 0.74,0.07 0.66,0.16 0.74,0.26 0.00,0.00 0.62,0.17 0.30,0.07 0.00,0 0.44,0.05 0.00,0 0.34,0 0.00,0 0.53,-0.10 0.31,-0.06 0.69,0.80 -0.18,0.24 -0.00,0.00 -0.28,0.50 -0.00,0.00 -0.03,0.05 0,0.00 -0.00,0.00 -0.11,0.36 -0.01,0.04 -0.10,0.38 0,0.00 -0.03,0.50 -0.07,0.76 -0.06,0.67 -0.16,0.56 -0.10,0.14 -10.97,-1.63 0.07,-0.19 0.20,-0.43 0.00,-0.00 0.41,-0.66 -0.00,0 0.50,-0.70 0.34,-0.54 0.00,-0.00 0.09,-0.30 0.00,-0.00 0.05,-0.45 0.81,-0.45 0.27,0.09 0.00,0 0.40,0.07 0.00,0.00 0.56,-0.02 0.00,0 0.97,-0.21 0.71,-0.16 0,0.00 0.60,-0.07 z m 12.61,1.19 0.00,0.12 0.03,0.38 0.00,0.00 0.12,0.30 -0.09,0.04 -0.00,0.00 -0.56,0.18 -0.00,0 -0.60,0.10 -0.00,0 -0.50,0.03 0,-0.00 -0.48,0.00 -4.98,0.21 0.09,-0.29 0.00,-0.00 0,-0.00 0,-0.00 0.01,-0.01 0.00,-0.00 5.05,-0.25 0,-0.00 0.40,-0.02 0.00,0 0.43,-0.07 0.00,0 0.32,-0.12 0.00,-0.00 0.32,-0.21 0.00,-0.00 0.37,-0.33 0.00,-0.00 0.02,-0.02 z m 0.20,0.89 0.19,0.44 -1.20,0.03 -6.32,0.23 0.02,-0.08 0,-0.00 0.00,-0.01 5.01,-0.21 0.48,-0.00 0.00,-0.00 0.51,-0.03 0.00,0 0.61,-0.10 0.00,0 0.57,-0.18 0.00,-0.00 0.09,-0.04 z m 7.82,1.00 0.02,0.01 0.00,0.00 0.07,0.04 0.00,0.00 0.04,0.04 0.00,0.00 0.00,0.02 0,0.05 0,0.00 -0.01,0.04 -0.04,0.02 -0.00,0.00 -0.11,0.05 -0.00,0 -0.17,0.06 -0.27,0.05 0,-0.00 -1.40,0.24 -0.00,0 -1.30,0.16 -0.84,0.13 -0.55,0.08 -0.00,0 -0.25,0.04 -0.00,0.00 -0.11,0.03 -0.00,0.00 -0.05,0.03 -0.01,0.02 0,0.02 0.00,0.01 0.00,0.01 0.01,0.01 0.04,0.02 0.00,0.00 0.02,0.00 0,0.00 0.05,0.02 0.00,0.00 0.51,0.15 1.37,0.46 0.08,0.05 0.10,0.12 0.00,0.00 0.03,0.10 c -0.09,0.31 -0.50,0.39 -0.77,0.49 -0.55,0.12 -1.09,0.15 -1.65,0.22 -0.70,0.03 -1.43,0.15 -2.15,0.20 -1.89,0.19 -3.79,0.34 -5.68,0.55 -0.18,0.05 -0.55,-0.02 -0.45,0.28 0.01,0.54 -0.01,1.09 0.02,1.63 l -0.88,-0.17 -0.00,-1.89 0.07,-0.00 0.77,0.18 5.30,-0.54 -0.68,-0.13 1.41,-0.10 0.00,0 1.84,-0.17 1.34,-0.14 0.00,0 0.54,-0.11 0.00,0 0.32,-0.10 0.00,-0.00 0.12,-0.08 0.01,-0.03 0,-0.11 -0.00,-0.02 -0.07,-0.10 -0.01,-0.00 -0.18,-0.10 -0.00,-0.00 -0.51,-0.16 -1.11,-0.34 -0.00,0 -0.12,-0.05 -0.00,-0.00 -0.06,-0.03 -0.02,-0.05 -0.00,-0.00 -0.00,-0.05 0.01,-0.04 0.06,-0.06 0.06,-0.04 0.10,-0.03 0,0.00 0.21,-0.06 0.00,0 0.28,-0.06 0.41,-0.06 1.52,-0.21 1.02,-0.14 0.76,-0.12 0.45,-0.08 0.20,-0.04 0.15,-0.03 0.01,-0.00 0.07,-0.06 0.00,-0.01 0.01,-0.06 -0.00,-0.02 -0.02,-0.05 z m 0.16,0.33 0.00,4.28 0,0.00 -0.00,0.14 -0.03,0.09 0,0.00 -0.07,0.08 -0.09,0.08 -0.00,0.00 -0.14,0.06 -0.00,0.00 -0.03,0.00 0,-4.63 0.05,-0.01 0.00,0 0.17,-0.06 0.00,0 0.11,-0.05 0.00,-0.00 0.02,-0.01 z m -26.71,0.08 -0.01,0.03 -3.90,0.38 -0.03,0.03 0,0.01 -0.93,0.10 -0.46,-0.10 5.34,-0.47 z m -0.05,0.11 -0.10,0.23 -0.10,0.24 0.01,0.04 0.01,0.00 8.16,1.21 1.06,0.29 0.00,0 4.88,0.78 -0.89,0.09 -16.50,-2.57 3.46,-0.34 z m 18.14,0.24 0.36,0.07 1.26,0.43 0.65,1.52 -1.28,0.12 -0.00,0 -1.45,0.10 -0.00,0 -0.38,-0.04 -0.00,0 -0.13,0.01 -1.57,-0.25 -1.60,0.16 -2.34,-0.39 -0.13,-0.38 1.56,-0.24 1.43,-0.15 1.98,-0.04 0.40,0.02 0.31,0.14 2.23,-0.27 -0.01,0 -0.09,-0.10 -0.30,-0.09 -0.48,-0.04 -1.07,-0.02 -1.14,0.05 -1.75,0.14 -1.91,0.22 -1.21,0.23 -0.19,-0.52 0.00,-0.06 6.40,-0.56 0.48,-0.02 z m -21.89,0.12 0,0.00 16.50,2.57 -0.52,0.05 -0.03,0.03 0,0.18 -16.03,-2.54 0.00,-0.31 0.07,-0.00 z m -1.75,0.01 0.59,0.13 0,0.97 17.10,3.07 0.00,0.45 0.00,0.00 -16.69,-3.23 -0.00,-0.00 -0.27,-0.05 -0.00,0.00 -0.46,-0.08 -0.01,-0.01 -0.24,-0.04 0,-1.21 z m 28.19,0.13 0,0.55 -0.42,-0.14 -0.05,-0.01 0,-0.32 0.38,-0.05 0.00,0 0.10,-0.01 z m -27.08,0.32 16.58,2.79 0.00,0.41 -16.59,-2.95 0,-0.25 z m 20.29,0.83 -0.19,0.06 -0.07,0.08 0.01,0.09 0.23,0.01 0.27,0 0.16,-0.01 0.13,-0.06 0.02,-0.06 0,-0.07 -0.12,-0.03 -0.17,-0.00 -0.28,0 z m -1.06,0.04 -0.33,0.01 -0.13,0.08 0,0.11 0.24,0.04 0.47,0 0.10,-0.04 0.08,-0.08 -0.08,-0.06 -0.10,-0.05 -0.24,-0.01 z m -20.06,0.00 0.42,0.08 0,0.70 0,0.00 -0.03,0.59 -0.03,0.36 -0.10,0.30 -0.09,0.25 0,0.00 -0.23,0.25 -0.10,0.13 -0.00,0.00 -0.13,0.12 -0.00,0.00 -0.20,0.09 -0.00,0.00 -0.28,0.07 -1.23,0.25 -0.30,0.07 -0.00,0.00 -0.20,0.12 -0.00,0.01 -0.11,0.21 -0.00,0.00 -0.06,0.21 0,0.00 -0.01,0.25 0,0.00 0.00,0.83 -0.01,0 0,0.53 -0.27,-0.09 -0.14,-0.05 -0.00,-1.56 0,-0.00 0.05,-0.31 0.18,-0.22 0.19,-0.12 0.35,-0.11 0,0.00 0.77,-0.15 0.41,-0.09 0.00,0 0.40,-0.14 0.00,-0.00 0.34,-0.24 0.00,-0.00 0.19,-0.25 0.00,-0.00 0.12,-0.31 0,-0.00 0.07,-0.55 0.05,-0.56 0,-0.00 0.01,-0.66 z m 23.05,0.01 -0.18,0.02 -0.17,0.09 -0.04,0.12 0.02,0.16 0,0.04 0.03,0.07 0.12,-0.02 0.07,-0.02 0.06,-0.09 0.01,-0.10 0.07,-0.08 0.24,-0.01 0.20,0.06 0.22,0.06 0.07,0 0,-0.10 -0.17,-0.09 -0.33,-0.11 -0.26,0 z m -22.29,0.13 16.75,3.24 0.05,0.06 0,0.39 0.00,0.02 0.11,0.12 0,1.38 -0.02,0.52 0,0.00 -0.08,0.53 -0.17,0.39 -0.18,0.23 -0.00,0.00 -0.24,0.19 -0.00,0.00 -0.38,0.24 -0.00,0 -0.00,0.00 -0.65,0.24 -13.11,-3.56 0,-0.79 0,-0.00 -0.02,-0.28 -0.00,-0.01 -0.10,-0.17 -0.01,-0.00 -0.20,-0.09 -0.00,-0.00 -0.30,-0.02 -0.00,0 -1.13,-0.04 -0.21,-0.08 -0.09,-0.14 0,-0.00 -0.03,-0.14 0,-0.00 -0.04,-0.46 0,-0.00 0,-0.00 0.14,-1.76 z m 28.32,0.04 c -0.00,1.21 -7.39e-4,2.43 0,3.65 8.76e-4,1.44 -2e-6,2.89 -0.00,4.33 -0.00,0.34 -0.16,0.68 -0.44,0.89 -0.00,9.49e-4 -0.00,0.00 -0.00,0.00 l -0.12,0.05 0,-8.62 c 0.20,-0.07 0.44,-0.14 0.58,-0.32 z m -1.53,0.49 0,8.86 c -0.17,-0.00 -0.56,0.26 -0.47,-0.08 l 0,-8.72 c 0.15,-0.00 0.31,-0.02 0.47,-0.05 z m -0.94,0.09 0,9.00 -0.73,0.15 0,-9.09 0.73,-0.07 z m -9.03,2.53 0.87,0.17 c 0.01,0.02 0.01,0.05 0.02,0.08 l -0.81,-0.16 -0.00,-0.01 -0.07,-0.07 z m 0.08,0.18 0.82,0.16 c 0.01,0.11 7.87e-4,0.22 0.01,0.33 l -0.84,-0.19 0,-0.30 z m -18.82,0.16 0.09,0.00 -0.02,0.03 -0.47,0.12 -0.35,0.10 -0.15,0.08 -0.08,0.09 -0.01,0.08 -0.03,0.05 -0.01,-0.01 0,-0.10 0.01,-0.11 0.09,-0.10 0.23,-0.09 0.59,-0.12 0.12,-0.03 z m 18.89,0.23 0.79,0.18 0.00,-0.00 c 0.01,0.02 0.01,0.05 0.03,0.07 l -0.77,-0.17 -0.00,-0.02 -0.04,-0.05 z m -18.66,0.11 15.05,4.42 -0.18,0.06 -0.00,0.00 -0.16,0.13 -0.00,0.00 -0.09,0.13 -0.00,0.00 -0.03,0.14 0,0.00 0,0.05 -15.49,-4.78 0.12,-0.04 0.00,0 0.82,-0.18 z m 18.72,0.03 0.81,0.18 c 0.01,0.86 0.10,1.75 -0.16,2.59 -0.25,0.57 -0.78,0.99 -1.37,1.19 -0.40,0.20 -0.85,0.31 -1.28,0.45 -0.25,0.13 -0.46,0.30 -0.59,0.55 -0.22,0.58 -0.13,1.23 -0.15,1.85 l 0,0.58 -0.73,-0.24 -0.21,-0.07 0,-1.25 0.00,-0.55 0,-0.00 0.06,-0.28 0.00,-0.00 0,-0.00 0.18,-0.38 0.00,-0.00 0.00,-0.00 0.00,0.00 0.18,0.12 0.22,0.04 0.34,0 0.13,-0.07 0.20,-0.16 0.32,-0.17 0.51,-0.19 0.50,-0.17 0.54,-0.24 0.34,-0.21 0.21,-0.15 0.07,-0.07 0.00,-0.09 -0.00,-0.07 -0.15,0 -0.09,0.03 -0.05,0.00 -0.10,0 -0.09,-0.00 -0.08,-0.02 -0.05,0 -0.16,0.02 0.13,-0.10 0.00,-0.00 0.19,-0.24 0.00,-0.00 0.18,-0.40 0.00,-0.00 0.09,-0.55 0,-0.00 0.02,-0.53 0,-0.00 0,-1.33 z m -19.71,0.25 15.53,4.79 0,0.29 -15.53,-4.94 -0.00,-0.14 z m -0.02,0.19 -0.00,0.01 15.57,4.95 0,0.55 -15.80,-5.20 0,-0.14 0.03,-0.11 0.20,-0.07 z m -0.29,0.39 16.24,5.34 0,0.89 -16.69,-5.58 0,-0.51 0.45,-0.13 z m -0.77,0.61 0.26,0.09 17.33,5.80 0.44,0.15 0,0.93 -18.05,-6.38 0,-0.60 z m 5.48,2.62 0.93,0.33 0,8.90 -0.70,-0.23 -0.25,-1.49 0.17,-0.19 0.00,-0.00 0.04,-0.09 0.00,-0.01 0.00,-0.08 0,-0.00 -0.21,-7.11 z m 11.98,0.31 -0.16,0.16 -0.00,0.00 -0.19,0.40 -0.00,0.00 -0.06,0.30 0,0.00 -0.00,0.55 0,0.25 -0.30,-0.10 0,-1.07 0,-0.00 0.03,-0.13 0.07,-0.11 0.15,-0.13 0.00,0 0.19,-0.07 0.00,0 0.28,-0.05 z m 13.46,1.07 0.00,2.93 -0.66,-0.23 -0.23,-1.46 0.16,-0.14 0.01,-0.01 0.03,-0.09 0,-0.00 0.00,-0.10 0.00,-0.00 -0.02,-0.68 c 0.13,-0.03 0.26,-0.06 0.39,-0.08 0.09,-0.02 0.19,-0.06 0.29,-0.09 z m -2.77,0.68 0,0.28 -5.63,1.36 -0.00,0 0.00,0.05 0.00,0 0.00,0 0.16,0 0.00,0 0.65,-0.07 0.00,0 0.62,0.00 0.64,0.16 0.24,0.09 0.16,0.24 0,0.17 -0.05,0.08 -0.00,0.00 -0.12,0.11 -0.16,0.07 -0.23,0.06 -0.00,0.00 -0.13,0.09 -0.01,0.01 -0.01,0.12 0,0.00 0,0.09 0.00,0.01 0.04,0.12 0.00,0.00 0.03,0.02 -0.86,0.13 -0.05,-0.15 0,-0.00 -0.10,-0.24 -0.00,-0.01 -0.22,-0.20 -0.00,-0.00 -0.24,-0.16 -0.01,-0.00 -0.00,0 -0.31,-0.05 -0.00,0 -0.39,-0.04 -0.00,0 -0.43,0 -0.42,0.01 0,-0.03 -0.00,0 0,-0.79 c 2.30,-0.54 4.59,-1.09 6.89,-1.62 z m -15.06,0.62 0.50,0.17 0,7.80 -0.50,-0.28 0,-7.69 z m 1.10,0.38 0.84,0.29 0,3.78 -0.84,1.63 0,-5.71 z m 0.91,0.32 0.50,0.17 0,7.98 -0.50,-0.29 0,-7.86 z m -1.44,0.19 0.02,0.08 0.14,0.21 0.06,0.39 0.08,0.49 0.06,0.25 0.06,0.07 0,1.14 -0.44,0.90 0,-3.56 z m 2.53,0.19 0.48,0.17 -0.48,0.93 0,-1.10 z m 0.65,0.23 0.18,0.06 -0.83,1.62 0,-0.43 0.65,-1.26 z m 2.75,0.06 -3.40,6.63 0,-0.44 3.16,-6.12 c 0.08,-0.01 0.16,-0.03 0.24,-0.05 z m -2.32,0.08 0.77,0.27 0.04,-0.00 0.00,-0.01 c 0.18,0.00 0.39,-0.10 0.59,-0.12 0.14,-0.03 0.28,-0.06 0.42,-0.09 l -2.92,5.67 0,-3.60 1.07,-2.09 z m 13.30,0.10 0.19,0.06 c -0.00,0.02 -0.01,0.04 -0.01,0.06 -0.06,-0.00 -0.16,-0.00 -0.22,-0.00 -0.04,0.00 0.01,-0.04 0.01,-0.06 0.01,-0.02 0.02,-0.03 0.03,-0.05 z m 0.75,0.05 c -0.01,0.06 -0.03,0.12 -0.04,0.18 -0.05,0.09 -0.10,0.20 -0.16,0.30 -0.03,0.05 -0.07,0.10 -0.11,0.15 -0.06,0.04 -0.11,0.09 -0.18,0.13 -0.04,0.01 -0.08,0.04 -0.13,0.04 -0.05,0.00 -0.11,0.01 -0.16,-0.00 -0.03,-0.02 -0.08,-0.04 -0.10,-0.08 -0.01,-0.03 -0.01,-0.07 0.01,-0.10 0.02,-0.06 0.08,-0.09 0.13,-0.13 0.05,-0.03 0.10,-0.07 0.14,-0.13 0.03,-0.04 0.07,-0.08 0.08,-0.14 0.01,-0.05 0.02,-0.10 0.04,-0.16 l 0.10,0.03 0.01,-0.00 0.00,0.00 0.37,-0.07 z m -1.04,0.15 c 0.09,-0.01 -0.05,0.04 -0.06,0.07 -0.19,0.16 -0.25,0.47 -0.13,0.70 0.06,0.13 0.18,0.24 0.32,0.29 -0.06,-0.00 -0.13,-0.01 -0.20,-0.02 -0.05,-0.03 -0.12,-0.05 -0.17,-0.10 -0.04,-0.04 -0.08,-0.08 -0.10,-0.14 -0.02,-0.05 -0.07,-0.10 -0.07,-0.16 -0.00,-0.05 -0.03,-0.11 -0.01,-0.17 0.00,-0.04 0.00,-0.09 0.03,-0.12 0.02,-0.05 0.06,-0.11 0.10,-0.15 0.03,-0.04 0.06,-0.08 0.11,-0.10 0.05,-0.02 0.10,-0.06 0.16,-0.06 0.00,-0.00 0.01,-0.00 0.02,-0.00 z m -8.17,0.11 0.38,0.04 0.31,0.05 0.15,0.10 0.07,0.05 0.00,0.00 0.20,0.19 0.09,0.22 0,0.00 0,0.00 0.01,0.03 0.01,0.06 -1.99,-0.76 0.27,-0.00 0.43,0 0,-0.00 z m 2.87,0.98 -0.20,1.95 -0.07,0.11 -0.15,0.08 -0.40,0 -0.16,0.04 -0.04,0.10 0.04,0.06 0.06,0.09 0.23,-0.02 0.36,0 0.08,0.09 0.02,0.10 -0.53,6.21 0,0.37 -0.03,0.10 -0.12,0.03 -0.22,0.03 -0.20,0.05 -0.10,0.12 0,-9.44 1.45,-0.12 z m -1.53,0.02 0,11.90 -0.96,-0.33 -0.26,-1.55 0,-0.21 0.01,-0.11 0.04,-0.08 0.08,-0.07 0.22,0 0.15,0.02 0.19,0.02 0.27,0.04 0.05,0 0.05,-0.02 0.01,-0.04 0,-0.06 -0.04,-0.04 -0.08,-0.05 -0.25,-0.07 -0.17,-0.07 -0.07,-0.10 -0.00,-0.04 -0.04,-1.05 -0.14,-7.02 0.03,-0.23 0.07,-0.17 0.11,-0.18 0.14,-0.10 0.36,-0.14 0.14,-0.10 0.05,-0.07 z m -9.34,1.67 0,0.94 -0.09,0.09 -0.07,0.27 0,0.22 -0.07,0.21 -0.11,0.12 -0.07,0.08 -0.02,0.05 0,-1.26 0.44,-0.75 z m 0.91,0.28 0,0.44 -0.84,1.63 0,-0.44 0.84,-1.63 z m 0,0.97 0,2.39 -0.84,-0.38 0,-0.37 0.84,-1.63 z m -9.02,0.64 0.22,0.07 -0.02,0.06 c -0.05,-0.01 -0.10,-0.02 -0.16,-0.02 -0.03,0 -0.06,0.00 -0.09,0.00 l 0.05,-0.12 z m 0.82,0.04 -0.05,0.20 -0.14,0.25 -0.00,0.00 -0.11,0.16 -0.00,0.00 -0.15,0.12 -0.00,0.00 -0.16,0.05 -0.13,0.01 -0.00,0 -0.08,-0.00 -0.05,-0.02 -0.03,-0.05 0,-0.05 0,-0.02 0.03,-0.07 0.05,-0.07 0.00,-0.00 0.13,-0.08 0.00,-0.00 0.11,-0.12 0.00,-0.01 0.08,-0.22 0.11,0.03 0.01,-0.00 0.01,-0.00 0.36,-0.07 z m -1.11,0.16 c -0.17,0.10 -0.28,0.30 -0.28,0.52 0,0.23 0.12,0.43 0.31,0.54 l -0.09,-0.00 -0.14,-0.07 -0.11,-0.11 -0.00,-0.00 -0.00,-0.00 -0.08,-0.15 0,-0.00 -0.00,-0.00 -0.02,-0.16 0,-0.00 0,-0.13 0.07,-0.15 0.11,-0.12 0.15,-0.07 0.00,-0.00 0.09,-0.02 z m 6.36,1.07 0.00,0 3.12,1.48 -0.01,0.00 0.02,0.15 -3.21,-1.56 0.07,-0.07 z m -0.11,0.14 3.28,1.59 0.00,-0.00 0,1.41 -0.55,-0.26 0,-0.33 0,-0.49 0,-0.19 -0.52,-0.24 0,0.66 -0.39,0.17 -0.07,-0.03 0,-0.33 0,-0.43 0,-0.25 -0.49,-0.22 0,0.57 -0.50,0.12 0,-0.25 0,-0.39 0,-0.27 -0.39,-0.18 0,0.49 -0.33,0.03 0,-1.15 z m 4.42,1.01 0.13,0.17 -1.23,0.34 -0.02,-0.18 1.12,-0.32 z m -4.08,0.56 0,0.03 -0.05,-0.02 0.05,-0.01 z m 11.22,3.19 0.04,0.04 0.10,-0.00 0.17,-0.02 0.37,0 0.10,0.01 0.12,0.05 0.04,0.13 -0.03,0.21 -0.00,0.21 -0.02,0.11 -0.08,0.22 -0.14,0.30 -0.07,0.07 -0.16,0.09 -0.08,0.01 -0.10,-0.01 -0.11,-0.15 -0.11,-0.10 -0.02,-0.00 0,-1.19 z m -0.64,2.00 0.29,0.10 -0.01,0.04 c -0.06,-0.01 -0.13,-0.03 -0.20,-0.03 -0.04,0 -0.08,0.00 -0.12,0.01 l -0.01,0 0.05,-0.12 z m 0.99,0.11 -0.03,0.15 -0.00,0.00 -0.18,0.31 -0.13,0.22 -0.19,0.14 -0.00,0 -0.20,0.07 -0.16,0.01 -0.00,0 -0.11,-0.00 -0.06,-0.04 -0.00,-0.00 -0.03,-0.05 -0.00,-0.06 0.00,-0.00 -0.00,-0.00 0,-0.00 0.04,-0.11 0,-0.00 0.06,-0.09 0.00,-0.00 0.18,-0.10 0,-0.00 0.00,-0.00 0,-0.00 0.13,-0.14 0.00,-0.01 0.08,-0.23 0.22,0.07 0.00,-0.00 0.00,0.00 0.38,-0.08 z m -1.30,0.09 0.00,0 0.02,0 c -0.22,0.13 -0.36,0.37 -0.36,0.65 0,0.30 0.18,0.56 0.44,0.67 l -0.19,-0.01 -0.00,-0.00 -0.18,-0.08 -0.13,-0.14 -0.00,-0.00 -0.11,-0.19 0,-0.00 -0.00,-0.00 -0.03,-0.20 0,-0.00 0,-0.00 0.01,-0.17 0,-0.00 0.07,-0.17 0.00,-0.00 0.00,-0.00 0.15,-0.16 0.00,-0.00 0.19,-0.09 0.00,-0.00 0.11,-0.01 z" />
</svg>
