<?xml version="1.0" encoding="UTF-8" standalone="no"?>
<!-- Created with Inkscape (http://www.inkscape.org/) -->
<svg xmlns:dc="http://purl.org/dc/elements/1.1/" xmlns:cc="http://creativecommons.org/ns#" xmlns:rdf="http://www.w3.org/1999/02/22-rdf-syntax-ns#" xmlns:svg="http://www.w3.org/2000/svg" xmlns="http://www.w3.org/2000/svg" version="1.1" width="100%" height="100%" viewBox="0 0 48 48" id="violin_xA0_Image_1_" xml:space="preserve">
<defs id="defs227" />
<path d="m 43.32,29.39 c -0.53,-0.46 -1.10,-0.85 -1.65,-1.09 -0.02,-0.08 -0.08,-0.17 -0.20,-0.25 -1.30,-0.54 -2.81,-1.48 -3.67,-2.57 -0.25,0.09 -0.28,0.32 -0.46,0.53 -0.50,0.11 -1.20,0.19 -1.96,-0.08 -1.85,-0.68 -4.35,-2.81 -3.99,-4.36 0.07,-0.27 0.44,-0.38 0.35,-0.70 -0.22,-0.27 -0.59,-0.23 -0.89,-0.42 -0.69,-0.45 -1.28,-1.46 -1.94,-2.26 -0.48,-0.59 -1.00,-1.23 -1.71,-1.72 -1.22,-0.84 -3.08,-1.57 -4.28,-1.40 -0.25,0.03 -0.45,0.25 -0.75,0.19 -0.39,0.45 -1.28,0.37 -1.38,0.92 0.33,-0.13 0.66,-0.39 1.00,-0.48 -0.32,0.30 -0.65,0.59 -1.00,0.57 C 19.33,15.12 18.07,14.28 16.66,13.24 15.43,12.34 14.01,11.05 12.82,10.54 12.16,9.85 11.16,9.05 10.27,8.60 10.05,8.59 10.29,8.93 10.02,8.80 9.92,8.69 9.82,8.65 9.73,8.65 9.69,8.44 10.12,8.58 9.85,8.32 9.81,7.99 9.21,7.95 9.17,7.73 9.31,7.65 9.45,7.53 9.59,7.34 9.81,6.77 9.08,5.53 8.39,6.39 8.32,6.67 8.46,6.93 8.08,7.23 7.70,7.00 7.34,6.99 6.96,6.86 7.24,5.75 5.84,5.83 5.18,6.00 5.36,5.42 5.20,4.69 4.68,4.31 4.55,4.21 4.38,4.26 4.13,4.18 3.69,4.03 3.44,3.95 3.12,3.98 2.47,4.39 1.57,4.82 1.52,5.65 1.77,5.10 2.27,4.48 2.94,4.58 3.13,4.61 3.26,4.81 3.50,4.72 3.34,4.47 2.97,4.49 2.96,4.26 3.11,4.13 3.45,4.38 3.66,4.53 3.92,4.72 4.28,5.06 4.35,5.29 4.23,5.48 4.09,5.43 3.96,5.46 4.56,6.24 3.52,7.37 2.70,6.83 2.20,6.49 1.88,5.69 2.57,5.20 2.85,5.11 3.17,5.45 3.45,5.27 3.25,4.96 2.71,4.98 2.38,4.94 1.07,6.17 1.98,7.64 3.41,8.35 3.44,9.01 3.23,10.02 4.28,10.20 4.57,10.07 5.00,9.41 4.76,9.34 4.77,9.51 4.40,9.93 4.24,9.74 4.47,9.46 4.71,9.42 4.60,9.13 5.13,9.09 5.67,9.21 6.23,9.68 6.43,9.34 6.66,9.35 6.88,9.22 7.21,9.55 7.38,9.40 7.42,9.28 7.50,9.04 6.59,9.02 6.55,8.53 6.69,8.29 6.86,8.71 7.00,8.49 6.66,8.13 6.15,8.30 6.01,8.56 6.18,8.66 6.48,8.46 6.52,8.75 6.29,8.67 6.10,9.20 5.88,9.21 5.78,8.79 5.64,9.16 5.44,8.84 5.45,8.61 5.74,8.39 5.91,8.48 5.80,8.40 5.79,8.31 5.89,8.21 6.00,8.22 6.11,8.26 6.21,8.24 5.21,7.65 4.04,8.01 3.18,7.24 4.81,7.71 6.38,7.54 8.06,8.73 8.29,8.61 8.33,8.33 8.63,8.46 8.63,8.71 8.26,8.57 8.35,8.89 8.85,9.27 9.50,9.62 9.44,10.16 9.22,10.19 8.60,9.35 8.13,9.04 7.86,8.86 7.26,8.63 7.81,9.02 7.60,9.17 7.83,9.28 7.72,9.53 7.41,9.72 7.07,9.44 6.76,9.55 6.34,9.96 6.17,10.35 6.26,10.72 c -0.06,0.07 -0.15,-0.09 -0.22,-0.02 0.39,1.01 1.16,-0.40 1.69,-0.40 -0.01,0.15 -0.19,0.12 -0.10,0.32 l 0.96,0.82 c 0.54,-0.13 0.99,-0.83 1.58,-0.56 0.41,0.18 0.97,0.83 1.55,1.33 1.92,1.65 4.22,3.71 5.59,4.96 0.05,0.41 0.02,0.85 -0.17,1.28 l -0.37,0.43 c 0.08,0.23 0.29,0.46 0.23,0.70 -0.38,0.32 -0.53,0.74 -0.65,0.95 -0.10,0.18 -0.27,0.33 -0.36,0.52 -0.61,1.28 -0.49,2.72 0.02,3.89 0.17,0.39 0.39,0.90 0.58,1.18 1.25,1.78 3.74,2.25 4.81,3.62 -0.00,0.59 0.85,0.97 1.10,0.18 1.22,-0.35 2.87,0.86 3.63,1.94 0.79,1.11 1.48,2.75 1.01,3.81 -0.19,0.09 -0.26,0.35 -0.31,0.56 0.43,0.47 1.14,0.74 1.55,1.33 0.15,0.21 0.25,0.51 0.36,0.74 0.41,0.82 0.78,1.59 1.35,2.34 1.41,1.84 3.51,2.87 5.25,2.99 0.36,0.02 0.78,0.13 1.14,0.13 0.75,0.00 1.38,-0.30 2.08,-0.56 1.02,-0.38 2.33,-1.07 3.06,-1.99 -0.15,-0.26 -0.35,0.10 -0.37,-0.15 0.41,0.03 0.29,-0.55 0.63,-0.63 -0.67,0.67 0.43,1.25 0.74,0.30 0.08,-0.25 -0.11,-0.40 -0.04,-0.63 0.15,-0.08 0.44,-0.57 0.43,-0.80 l -0.16,0.19 c 0.03,-0.24 -0.11,-0.48 0.03,-0.73 0.34,0.13 -0.04,0.48 0.26,0.48 0.53,-0.28 0.91,-0.91 1.30,-1.41 0.84,-1.09 1.17,-2.00 1.25,-3.13 0.06,-0.97 -0.04,-1.43 -0.30,-2.20 -0.06,-0.20 -0.05,-0.43 -0.13,-0.62 -0.36,-0.82 -1.13,-1.79 -2.02,-2.56 z m -0.09,0.19 c 1.09,0.95 1.81,2.05 2.14,3.41 0.16,0.10 -0.03,0.24 -0.06,0.37 0.34,0.60 0.11,1.26 0.05,1.90 -0.10,-0.64 -0.00,-1.29 -0.10,-1.94 -0.51,-1.56 -1.32,-3.09 -3.09,-4.25 -0.57,-0.37 -1.16,-0.80 -1.75,-1.08 -0.74,-0.35 -1.96,-0.72 -2.63,-1.75 -0.29,0.23 -0.53,0.20 -0.88,0.25 -0.13,0.01 -0.26,0.11 -0.35,0.11 -0.46,-0.01 -0.86,-0.43 -1.33,-0.30 -0.46,-0.48 -1.29,-0.57 -1.97,-1.02 -0.25,-0.17 -0.56,-0.48 -0.82,-0.71 -0.61,-0.54 -0.99,-0.96 -1.30,-1.71 -0.15,-0.37 -0.33,-0.86 -0.32,-1.10 0.01,-0.25 0.07,-0.53 0.36,-0.61 -0.81,-0.46 -1.33,-0.98 -1.96,-1.93 0.49,0.03 0.64,0.59 0.97,0.92 0.38,0.38 0.85,0.58 1.33,0.89 -0.52,0.49 -0.35,0.93 -0.43,1.39 0.32,0.26 0.35,0.77 0.62,1.13 0.09,0.12 0.30,0.23 0.43,0.37 0.31,0.33 0.45,0.46 0.87,0.75 0.20,0.14 0.37,0.34 0.58,0.49 1.04,0.78 2.20,1.17 3.17,1.21 0.36,-0.11 0.73,-0.29 1.09,-0.49 0.36,0.46 0.73,0.86 1.36,1.25 0.75,0.46 1.65,0.97 2.47,1.44 0.09,0.05 0.22,0.05 0.32,0.11 0.44,0.28 0.85,0.58 1.22,0.90 z m -0.39,0.28 c 0.11,0.09 0.22,0.20 0.33,0.31 0.72,0.70 1.21,1.49 1.53,2.23 0.63,1.48 0.67,3.39 -0.44,4.92 -0.33,0.46 -0.68,0.85 -1.04,1.21 -0.17,-0.31 -0.22,-0.64 -0.61,-0.94 0.05,-0.41 -0.21,-0.80 -0.41,-1.19 0.35,0.02 0.51,0.91 0.77,1.25 -0.03,-0.72 -0.58,-1.40 -0.88,-2.10 -0.35,0.23 0.26,0.39 0.04,0.62 -0.18,-0.16 -0.08,-0.35 -0.31,-0.51 -0.21,0.32 0.24,0.63 0.39,0.92 0.12,0.24 0.20,0.54 0.18,0.75 -0.42,-0.15 -0.31,-0.72 -0.62,-1.03 -0.14,0.10 0.01,0.17 0.02,0.27 -0.83,-0.82 -1.71,-2.04 -2.18,-3.05 -0.97,-1.10 -1.34,-2.25 -1.97,-3.38 -0.28,-0.04 -0.13,0.20 -0.33,0.38 -0.34,-0.63 -0.85,-1.26 -1.32,-1.89 0.56,-0.15 1.42,0.34 1.57,-0.66 0.08,-0.56 -0.84,-1.33 -1.27,-0.67 -0.08,0.13 -0.08,0.30 -0.01,0.41 0.31,0.48 0.65,0.10 0.85,-0.11 0.31,0.26 0.07,0.57 -0.08,0.68 -0.29,0.20 -0.68,-0.29 -0.86,-0.06 -0.13,-0.21 -0.04,-0.26 -0.28,-0.16 -0.19,-0.12 -0.25,-0.25 -0.16,-0.39 -0.11,-0.08 -0.04,0.18 -0.21,0.24 -0.16,-0.47 -0.85,-0.85 -0.78,-1.43 -0.19,-0.11 -0.36,-0.03 -0.54,-0.05 -0.93,-1.12 -2.73,-1.99 -3.76,-2.97 -0.07,-0.07 -0.23,-0.12 -0.15,-0.30 -0.12,-0.03 -0.22,0.14 -0.36,-0.06 0.13,-0.28 0.14,-0.55 0.29,-0.84 -0.37,0.07 -0.23,0.49 -0.44,0.71 -0.24,-0.43 0.26,-0.92 0.35,-1.38 -0.39,0.22 -0.37,0.81 -0.59,1.17 -2.75,-1.98 -5.89,-4.28 -8.36,-6.25 0.87,-0.57 1.81,-0.74 2.76,-0.65 0.96,0.08 2.40,0.72 3.49,1.72 1.00,0.92 1.96,2.66 3.27,3.65 -0.46,2.89 4.71,6.45 7.16,5.39 1.60,1.49 3.32,1.80 5.01,3.27 z M 27.57,17.13 c 0.68,0.56 1.27,1.23 1.63,1.90 -0.14,-0.00 -0.61,-0.16 -0.43,-0.37 -0.52,-0.15 -0.72,-0.77 -1.12,-1.14 -0.48,-0.44 -1.35,-1.08 -1.96,-1.43 -0.11,-0.06 -0.28,-0.03 -0.41,-0.10 -0.34,-0.18 -0.68,-0.33 -1.07,-0.40 -0.12,-0.02 -0.26,-0.01 -0.40,-0.02 -0.31,-0.01 -0.81,-0.15 -1.13,-0.04 0.50,-0.40 1.43,-0.19 2.22,0.05 0.81,0.26 1.83,0.83 2.71,1.57 z m 0.94,2.91 c -0.12,0.11 -0.15,0.21 -0.01,0.31 0.07,-0.05 0.14,-0.03 0.20,-0.15 l -0.18,-0.16 z m 0.30,0.42 c -0.16,0.00 -0.12,0.16 -0.07,0.27 0.10,-0.09 0.14,-0.19 0.07,-0.27 z m 0.24,0.20 c -0.02,0.18 -0.22,0.38 -0.04,0.55 0.06,-0.18 0.21,-0.38 0.04,-0.55 z m 0.63,0.63 c -0.21,0.36 -0.44,0.73 -0.32,1.06 0.04,-0.35 0.41,-0.72 0.32,-1.06 z m -0.32,-0.20 c -0.10,0.23 -0.25,0.47 -0.17,0.69 0.15,-0.23 0.33,-0.47 0.17,-0.69 z M 22.27,15.44 c 0.03,0.08 0.00,0.18 -0.06,0.28 l -0.14,-0.12 c 0.06,-0.11 0.14,-0.10 0.21,-0.15 z m 23.05,19.86 c 0.02,0.42 -0.19,0.86 -0.44,1.30 0.11,-0.43 0.19,-0.86 0.44,-1.30 z m -1.37,-0.95 c -0.04,-0.03 -0.08,-0.04 -0.14,-0.01 0.11,0.17 0.06,0.59 0.40,0.60 -0.08,-0.13 -0.13,-0.47 -0.25,-0.58 z m -0.41,0.00 c -0.04,-0.02 -0.09,-0.07 -0.13,-0.03 0.25,0.46 0.35,0.94 0.65,1.40 -0.01,-0.46 -0.31,-0.91 -0.51,-1.37 z m -9.16,-7.77 c 0.27,0.31 -0.23,0.30 -0.38,0.34 -0.05,-0.15 0.28,-0.20 0.38,-0.34 z m 8.75,7.85 c -0.18,0.13 0.12,0.47 0.21,0.43 -0.04,-0.14 -0.15,-0.29 -0.21,-0.43 z M 32.07,25.03 c 0.06,0.05 0.12,0.10 0.19,0.16 -0.10,0.14 -0.33,-0.04 -0.08,0.18 -0.44,-0.28 -0.87,-0.52 -1.43,-0.97 0.09,-0.17 0.04,-0.11 0.20,-0.24 0.42,0.44 0.68,0.50 1.11,0.86 z m 0.38,0.33 c 0.11,0.21 0.01,0.32 0.30,0.43 -0.11,0.12 -0.24,-0.09 -0.35,0.02 -0.02,-0.14 -0.17,-0.28 0.05,-0.45 z m -1.82,-1.40 c 0.12,0.08 0.21,0.24 0.02,0.36 -0.26,-0.38 -0.46,-0.24 -0.82,-0.61 0.18,-0.15 0.52,-0.15 0.56,0.22 0.05,-0.04 0.15,-0.02 0.23,0.02 z M 29.47,23.05 c 0.21,0.15 -0.20,0.42 -0.30,0.16 0.09,-0.18 0.21,0.01 0.30,-0.16 z m 0.24,0.21 c 0.09,0.05 -0.15,0.34 -0.21,0.15 0.06,-0.11 0.14,-0.10 0.21,-0.15 z m -0.77,-0.57 c 0.21,0.12 -0.15,0.40 -0.25,0.20 0.08,-0.12 0.16,-0.18 0.25,-0.20 z m 0.34,0.29 c -0.09,0.13 -0.19,0.19 -0.31,0.07 -0.01,-0.15 0.17,-0.18 0.31,-0.07 z m 14.02,12.03 c 0.23,0.41 0.29,0.85 0.59,1.26 -0.02,-0.40 -0.27,-1.03 -0.59,-1.26 z M 28.71,22.55 c 0.08,0.08 -0.10,0.28 -0.17,0.11 l 0.12,-0.14 c 0.02,0.00 0.04,0.01 0.05,0.02 z m 6.80,5.85 c 0.49,0.46 0.95,1.31 1.40,1.97 0.10,0.15 0.37,0.29 0.26,0.47 -0.27,0.05 -0.36,-0.32 -0.53,-0.54 -0.49,-0.63 -0.96,-1.19 -1.41,-1.88 0.00,-0.06 0.01,-0.12 0.07,-0.18 0.07,0.04 0.14,0.10 0.21,0.17 z m -0.40,-0.31 c 0.02,0.00 0.05,0.03 0.06,0.10 -0.22,0.03 -0.13,-0.13 -0.06,-0.10 z m 7.86,6.77 c -0.04,-0.03 -0.10,-0.05 -0.18,-0.03 0.27,0.61 0.64,1.22 0.77,1.84 0.26,-0.37 -0.25,-0.88 -0.41,-1.28 -0.05,-0.14 -0.04,-0.41 -0.17,-0.52 z M 28.48,22.44 c 0.08,0.08 -0.11,0.27 -0.18,0.10 l 0.12,-0.14 c 0.02,0.00 0.04,0.02 0.05,0.03 z m -0.87,-0.74 c 0.06,0.27 0.08,0.10 0.33,0.28 -0.15,0.30 -0.36,0.02 -0.55,-0.13 0.06,-0.11 0.14,-0.10 0.21,-0.15 z m 0.43,0.37 0.09,0.08 -0.12,0.14 -0.14,-0.12 c 0.05,-0.09 0.11,-0.04 0.17,-0.10 z m 5.57,4.78 c 0.04,0.07 0.04,0.14 -0.02,0.22 -0.09,-0.05 -0.04,-0.11 -0.10,-0.16 0.04,-0.03 0.09,-0.00 0.13,-0.05 z m -0.28,-0.21 c 0.15,0.13 0.10,0.43 0.00,0.64 -0.23,-0.04 -0.19,-0.18 -0.43,-0.28 0.22,-0.15 0.06,-0.27 0.19,-0.42 0.10,-0.00 0.18,0.01 0.23,0.05 z m 0.52,0.48 c 0.02,0.01 0.04,0.04 0.05,0.07 -0.11,0.04 -0.22,0.22 -0.35,0.20 -0.17,-0.13 0.13,-0.38 0.29,-0.27 z m 0.84,0.73 c 0.06,0.04 0.11,0.14 0.00,0.17 l -0.09,-0.08 c 0.04,-0.03 0.01,-0.05 -0.01,-0.08 0.02,-0.04 0.06,-0.03 0.10,-0.00 z m -8.54,-7.23 0.14,0.12 c -0.09,0.13 -0.19,0.18 -0.30,0.06 0.00,-0.16 0.05,-0.05 0.16,-0.18 z m 0.24,0.20 c 0.09,0.05 0.04,0.11 0.10,0.16 -0.04,0.03 -0.09,0.00 -0.13,0.05 l -0.09,-0.08 0.12,-0.14 z m 5.82,4.99 c 0.13,0.18 -0.08,0.21 -0.20,0.24 -0.06,0.11 0.21,0.19 -0.02,0.32 -0.11,-0.12 -0.00,-0.27 -0.25,-0.38 0.09,-0.11 0.04,-0.22 0.20,-0.34 0.09,0.03 0.20,0.27 0.28,0.16 z m -6.27,-5.31 c 0.02,0.01 0.05,0.03 0.07,0.06 -0.10,0.17 -0.26,0.07 -0.27,-0.06 0.06,-0.05 0.12,-0.05 0.20,-0.00 z m 5.75,4.93 c 0.06,0.11 0.01,0.24 -0.06,0.37 -0.02,-0.12 -0.12,-0.35 0.06,-0.37 z m 2.37,2.03 c 0.96,1.11 2.06,2.55 2.96,3.81 l -0.24,0.29 c -0.94,-1.28 -1.95,-2.57 -2.92,-3.86 l 0.21,-0.24 z m -3.01,-2.52 c 0.20,0.14 0.32,0.29 0.13,0.56 -0.29,-0.30 -1.24,-0.60 -0.75,-1.07 0.13,0.23 0.41,0.36 0.61,0.50 z m -0.90,-0.76 c 0.09,0.07 0.03,0.15 0.15,0.23 -0.13,0.19 -0.28,0.24 -0.44,0.12 0.06,-0.13 0.06,-0.37 0.24,-0.38 0.02,0.00 0.03,0.02 0.04,0.03 z m -5.14,-4.40 c 0.09,0.05 0.05,0.11 0.01,0.17 -0.03,-0.04 -0.06,-0.02 -0.09,0.00 -0.04,-0.05 0.03,-0.11 0.08,-0.18 z m 0.18,0.16 c 0.09,0.05 0.06,0.11 0.01,0.18 -0.03,-0.04 -0.06,-0.01 -0.09,0.00 -0.04,-0.05 0.03,-0.12 0.07,-0.18 z m 6.26,5.37 c 0.10,0.14 0.07,0.29 -0.05,0.45 -0.26,-0.23 -0.05,-0.21 0.05,-0.45 z m -6.89,-5.83 c 0.03,0.02 0.07,0.06 0.10,0.10 -0.34,-0.01 -0.96,-0.37 -0.96,-0.74 0.01,0.11 0.11,0.21 0.22,0.11 0.08,0.27 0.36,0.32 0.62,0.52 z m 5.05,4.34 c 0.19,0.16 0.24,0.34 0.21,0.52 -0.17,0.07 -0.36,-0.05 -0.56,-0.22 0.11,-0.12 0.22,-0.29 0.34,-0.29 z m -6.24,-5.28 -0.13,0.15 c -0.07,-0.08 -0.28,-0.16 -0.10,-0.26 0.07,-0.00 0.15,0.04 0.23,0.11 z m 0.09,0.08 0.10,0.08 -0.13,0.15 -0.14,-0.12 c 0.05,-0.09 0.11,-0.05 0.17,-0.11 z M 28.81,23.24 28.64,23.43 c 0.12,0.10 0.23,-0.12 0.36,-0.02 0.12,0.06 0.02,0.15 -0.03,0.23 0.11,0.12 0.20,-0.15 0.32,0.01 0.01,0.16 -0.15,0.09 -0.25,0.29 -0.59,-0.36 -1.20,-0.98 -2.02,-1.56 0.12,-0.19 0.25,-0.18 0.38,-0.25 0.25,0.41 0.52,0.39 0.87,0.84 0.33,-0.03 0.18,0.27 0.52,0.27 z m 13.73,11.87 c 0.30,0.67 0.57,1.35 0.96,2.01 0.02,-0.32 -0.18,-0.72 -0.35,-1.05 -0.16,-0.34 -0.34,-0.77 -0.61,-0.95 z m 2.13,1.83 c -0.03,0.17 -0.09,0.52 -0.31,0.57 0.01,-0.18 0.13,-0.37 0.31,-0.57 z M 21.98,17.53 c 0.13,0.12 0.24,0.33 0.38,0.35 -0.27,0.11 -0.53,-0.29 -0.66,-0.40 0.10,-0.06 0.19,-0.02 0.27,0.04 z m 5.09,4.39 -0.20,0.24 c -0.20,-0.04 -0.61,-0.39 -0.68,-0.58 0.36,-0.17 0.48,0.13 0.88,0.34 z m -5.67,-4.82 c 0.07,0.03 0.12,0.17 0.24,0.25 -0.13,0.01 -0.27,-0.06 -0.42,-0.19 0.08,-0.07 0.13,-0.08 0.17,-0.06 z m 4.70,4.06 c 0.01,0.01 0.03,0.04 0.05,0.06 L 25.91,21.52 c -0.62,-0.63 -1.46,-0.99 -1.93,-1.66 0.07,-0.01 0.14,-0.07 0.21,-0.15 0.11,0.08 0.12,0.17 0.02,0.27 0.10,0.00 0.20,-0.11 0.31,-0.07 0.05,0.05 -0.03,0.12 -0.07,0.18 0.38,-0.01 0.28,0.43 0.65,0.31 0.10,0.26 0.34,0.43 0.66,0.49 0.11,0.08 0.12,0.17 0.02,0.27 0.10,0.02 0.20,-0.10 0.31,-7e-4 z m -5.20,-4.45 c 0.11,0.11 0.20,0.31 0.35,0.31 -0.17,0.13 -0.55,-0.16 -0.61,-0.36 0.10,-0.05 0.18,-0.02 0.25,0.04 z m -0.70,-0.51 c 0.07,0.07 0.13,0.17 0.19,0.25 -0.14,0.06 -0.32,-0.24 -0.47,-0.32 0.11,-0.03 0.20,-0.00 0.28,0.06 z M 19.44,15.61 c 0.12,0.10 0.22,0.21 0.14,0.30 -0.13,-0.25 -0.65,-0.29 -0.49,-0.49 0.05,0.01 0.22,0.09 0.35,0.19 z m 4.55,3.98 c 0.01,0.01 0.02,0.03 0.04,0.06 l -0.16,0.18 -0.39,-0.33 c 0.08,-0.09 0.18,0.06 0.26,-0.10 0.04,0.04 -0.01,0.08 -0.03,0.13 0.10,0.14 0.18,-0.05 0.28,0.04 z M 37.40,31.12 c 0.04,0.05 0.04,0.11 0.08,0.16 -0.12,0.13 -0.33,-0.07 -0.15,-0.21 0.02,0.01 0.05,0.03 0.06,0.04 z M 18.99,15.33 c 0.01,0.00 0.03,0.03 0.05,0.04 -0.07,0.04 -0.14,0.04 -0.22,-0.02 0.05,-0.03 0.11,-0.04 0.16,-0.01 z m 3.89,3.34 c 0.09,0.09 -9.64e-4,0.20 -0.11,0.32 l -0.19,-0.16 c 0.09,-0.19 0.20,-0.07 0.30,-0.15 z m 0.24,0.20 c 0.14,0.16 -0.15,0.41 -0.30,0.15 0.09,-0.12 0.20,-0.08 0.30,-0.15 z m 0.19,0.16 c 0.07,0.08 0.04,0.17 -0.06,0.27 -0.18,-0.07 0.00,-0.17 0.06,-0.27 z m 0.24,0.20 c 0.09,0.05 -0.14,0.33 -0.21,0.14 0.06,-0.11 0.14,-0.09 0.21,-0.14 z m 9.55,8.20 c -0.01,0.28 -0.34,0.30 -0.49,0.58 -0.92,-1.11 -1.74,-1.54 -2.86,-2.55 0.00,-0.09 0.04,-0.17 0.16,-0.27 -0.13,9.41e-4 -0.25,0.19 -0.39,0.16 -0.09,-0.09 -3.08e-4,-0.21 0.11,-0.33 -0.12,-0.05 -0.22,0.23 -0.36,0.02 l 0.16,-0.19 c -0.10,-0.02 -0.20,0.10 -0.30,0.16 -0.20,-0.24 -0.08,-0.26 -0.38,-0.33 0.14,-0.06 0.28,-0.27 0.43,-0.31 0.07,0.08 0.03,0.17 -0.07,0.27 0.11,0.07 0.19,-0.19 0.30,-0.15 0.83,0.74 1.57,1.33 2.46,1.93 0.11,0.55 0.76,0.56 1.25,0.99 z m 9.21,7.91 c -0.07,0.37 0.31,0.70 0.49,1.09 0.16,0.34 0.17,0.93 0.52,0.95 -0.26,-0.69 -0.54,-1.37 -1.02,-2.05 z M 22.00,17.98 c 0.05,0.06 0.04,0.13 -0.06,0.21 0.34,5.08e-4 0.18,0.23 0.46,0.23 -0.27,0.38 -0.63,-0.31 -0.94,-0.47 0.21,-0.39 0.28,0.18 0.45,-0.03 0.03,0.01 0.06,0.03 0.08,0.05 z M 8.57,6.47 C 8.84,6.79 8.86,7.14 8.88,7.48 8.70,7.27 8.79,7.04 8.42,6.84 8.45,6.72 8.39,6.60 8.57,6.47 z m 9.24,7.95 c 0.09,0.06 0.17,0.15 0.22,0.25 -0.16,0.05 -0.35,-0.27 -0.52,-0.36 0.09,0.00 0.21,0.04 0.30,0.11 z m 3.22,2.83 c 0.04,0.07 0.04,0.14 -0.02,0.22 0.35,-0.09 0.22,0.20 0.56,0.23 l -0.16,0.19 c -0.37,-0.28 -0.44,-0.29 -0.81,-0.62 l 0.12,-0.14 c 0.20,0.00 0.05,0.31 0.32,0.11 z m 1.45,1.24 0.10,0.08 -0.16,0.19 -0.10,-0.08 0.16,-0.19 z m -5.82,-4.97 c 0.02,0.00 0.04,0.04 0.05,0.11 -0.22,0.03 -0.13,-0.14 -0.05,-0.11 z m 21.19,18.23 c 0.08,0.05 0.14,0.16 0.02,0.21 -0.01,-0.07 -0.06,-0.14 -0.15,-0.21 0.02,-0.03 0.07,-0.02 0.12,0.00 z M 20.57,16.94 20.71,17.06 c -0.10,0.29 -0.47,0.02 -0.46,-0.14 0.10,-0.18 0.16,0.00 0.18,0.07 0.04,0.03 0.08,-0.02 0.13,-0.05 z m 13.10,11.24 c 0.43,0.48 0.56,0.70 0.99,1.18 l -0.24,0.29 c 0.11,0.08 0.20,-0.03 0.30,-0.15 0.69,0.71 1.04,1.45 1.75,2.17 7.7e-4,0.24 -0.19,0.71 -0.51,0.40 0.05,-0.09 0.11,-0.04 0.17,-0.10 -0.52,-0.62 -0.97,-1.25 -1.59,-1.87 -0.03,-0.20 0.22,-0.17 0.19,-0.33 -0.11,-0.07 -0.19,0.20 -0.30,0.15 -0.09,-0.20 -0.40,-0.38 -0.49,-0.59 l 0.20,-0.24 c -0.12,-0.10 -0.23,0.11 -0.35,0.11 -0.01,-0.17 0.06,-0.24 -0.16,-0.30 l 0.21,-0.24 c -0.14,-0.10 -0.25,0.26 -0.40,0.08 0.06,-0.09 0.14,-0.05 0.21,-0.15 -0.11,-0.17 -0.20,0.10 -0.31,0.07 -0.11,-0.14 0.26,-0.38 0.32,-0.47 z m 4.80,4.13 c 0.10,0.08 0.18,0.20 0.25,0.28 0.07,0.09 0.09,0.41 0.22,0.62 0.09,0.15 0.28,0.25 0.35,0.38 0.04,0.08 0.02,0.23 0.06,0.30 0.05,0.08 0.19,0.12 0.24,0.21 0.14,0.26 0.09,0.46 0.26,0.65 0.52,0.61 1.10,1.23 1.69,1.96 0.01,0.16 -0.19,0.09 -0.07,0.27 0.11,0.17 0.21,0.05 0.32,0.02 0.17,0.10 -0.15,0.25 -0.06,0.36 0.17,0.06 0.04,-0.18 0.21,-0.15 0.09,0.09 -0.00,0.21 -0.11,0.32 0.09,0.06 0.17,-0.14 0.26,-0.11 0.08,0.09 -0.17,0.22 -0.02,0.32 0.07,0.04 0.14,-0.08 0.21,-0.15 -0.13,0.29 0.11,0.26 0.04,0.54 0.13,0.12 0.21,-0.36 0.35,-0.11 -0.26,0.18 -0.08,0.33 -0.27,0.51 -0.60,-0.53 -1.44,-1.42 -1.69,-2.13 -0.10,-0.02 -0.21,0.03 -0.30,0.16 -0.44,-0.22 -0.31,-0.87 -0.94,-1.06 -0.06,0.15 0.17,0.52 0.31,0.51 0.05,0.28 -0.20,-0.04 -0.27,-0.07 -0.61,-0.29 -1.68,-1.48 -2.33,-2.00 0.28,-0.17 0.12,-0.70 0.52,-0.90 -0.06,-0.35 -0.42,-0.79 -0.75,-0.98 -0.00,-0.11 0.23,-0.36 0.38,-0.24 0.18,0.07 -0.00,0.17 -0.06,0.27 0.40,0.19 0.54,0.45 0.63,0.72 0.19,-0.17 0.15,-0.12 0.29,-0.34 0.14,-0.20 -0.18,-0.09 -0.11,-0.26 0.14,-0.05 0.26,-0.00 0.37,0.07 z M 19.08,15.73 c 0.10,0.16 -0.01,0.11 -0.12,0.23 -0.29,-0.16 -0.30,-0.29 -0.57,-0.40 0.00,-0.16 0.05,-0.05 0.16,-0.19 0.13,0.22 0.29,0.35 0.52,0.36 z m 0.18,0.16 c 0.29,0.36 0.38,0.38 0.77,0.66 -0.35,0.27 -0.51,-0.26 -0.98,-0.50 0.06,-0.11 0.14,-0.10 0.21,-0.15 z m 0.92,0.79 c 0.05,0.10 -0.06,0.09 -0.12,0.14 -0.05,-0.10 0.06,-0.09 0.12,-0.14 z m 8.59,7.37 c 0.00,0.14 -0.23,0.41 -0.37,0.43 -0.07,-0.31 -0.64,-0.28 -0.41,-0.60 -0.24,0.09 -0.26,-0.04 -0.46,-0.14 -0.00,-0.10 0.09,-0.21 0.20,-0.32 -0.12,-0.01 -0.23,0.15 -0.35,0.20 -0.03,-0.11 0.12,-0.24 0.15,-0.37 -0.12,1.43e-4 -0.23,0.08 -0.34,0.20 -0.18,-0.07 -0.00,-0.18 0.06,-0.27 -0.12,-0.02 -0.23,0.09 -0.35,0.11 -0.19,-0.11 0.43,-0.42 0.02,-0.32 0.02,-0.57 0.34,-0.00 0.59,0.18 0.38,0.29 0.85,0.55 1.25,0.90 z m -13.97,-11.90 0.10,0.08 -0.08,0.09 -0.10,-0.08 0.08,-0.09 z m 3.49,2.99 0.14,0.12 c -0.10,0.17 -0.22,0.18 -0.35,0.03 0.06,-0.09 0.14,-0.05 0.21,-0.15 z m 8.68,7.45 c -0.16,0.17 -0.32,0.47 -0.51,0.31 0.04,-0.23 0.18,-0.19 0.28,-0.42 0.08,0.08 0.15,0.02 0.23,0.11 z M 26.24,22.05 c 0.10,0.09 0.21,0.20 0.31,0.28 -0.24,0.17 -0.51,0.06 -0.78,-0.17 0.00,-0.09 0.04,-0.19 0.16,-0.28 0.09,0.00 0.20,0.08 0.30,0.17 z m -8.80,-7.54 c 0.18,0.22 0.04,0.26 0.34,0.29 -0.16,0.24 -0.36,-0.00 -0.55,-0.14 0.06,-0.11 0.14,-0.09 0.21,-0.14 z m 0.58,0.49 c 0.11,0.08 0.12,0.17 0.02,0.27 l -0.14,-0.12 0.12,-0.14 z m 7.56,6.51 c 0.07,0.04 0.13,0.11 0.11,0.24 -0.22,-0.03 -0.30,0.11 -0.43,0.21 -0.45,-0.49 -0.63,-0.57 -1.11,-0.95 L 24.31,20.82 c -0.38,0.24 -0.84,-0.34 -1.27,-0.67 l 0.12,-0.14 c -0.30,-0.03 -0.26,-0.31 -0.61,-0.27 -0.04,-0.33 -0.39,-0.34 -0.35,-0.55 -0.07,-0.13 -0.38,0.09 -0.19,-0.16 -0.10,-0.00 -0.20,0.04 -0.31,0.07 -0.11,-0.08 0.12,-0.19 0.15,-0.28 -0.24,0.05 -0.23,-0.24 -0.45,-0.05 -0.11,-0.25 -0.46,-0.35 -0.63,-0.54 -0.05,-0.06 -0.01,-0.18 -0.01,-0.17 -0.13,-0.12 -0.28,0.04 -0.32,-0.11 -0.02,-0.11 0.14,-0.10 -0.09,-0.08 0.00,-0.45 -0.71,-0.14 -0.59,-0.67 -0.07,-0.00 -0.15,0.02 -0.22,0.05 -0.07,-0.08 -0.03,-0.17 0.07,-0.27 -0.49,0.10 -0.49,-0.50 -0.94,-0.47 0.06,-0.06 0.12,-0.13 0.07,-0.18 0.60,0.22 1.07,0.73 1.62,1.14 1.68,1.24 3.52,2.63 5.01,3.96 0.06,0.05 0.15,0.09 0.22,0.14 z M 13.59,11.28 c 0.06,0.03 0.13,0.14 0.20,0.17 -0.10,0.03 -0.21,0.00 -0.32,-0.10 0.03,-0.07 0.07,-0.09 0.11,-0.07 z m 3.65,3.13 c 0.05,0.10 -0.06,0.09 -0.12,0.14 -0.05,-0.10 0.06,-0.09 0.12,-0.14 z m 10.62,9.14 c -0.00,-0.00 -0.01,0.00 -0.03,0.02 -0.07,0.05 -0.13,0.20 -0.03,0.13 0.05,-0.04 0.09,-0.13 0.07,-0.15 z M 16.54,13.85 c 0.20,0.14 0.38,0.38 0.52,0.49 -0.27,0.13 -0.60,-0.45 -0.90,-0.61 0.12,-0.02 0.25,0.03 0.38,0.11 z M 12.79,10.67 c 0.06,0.06 0.13,0.15 0.19,0.17 -0.18,0.14 -0.15,-0.13 -0.38,-0.24 0.05,-0.04 0.12,-0.00 0.18,0.06 z m 3.24,2.79 0.10,0.08 c -0.06,0.12 -0.14,0.03 -0.22,-0.02 0.04,-0.03 0.08,-0.00 0.12,-0.05 z m -0.16,-0.11 c 0.01,0.02 0.02,0.05 0.02,0.08 -0.08,0.07 -0.17,0.03 -0.27,-0.07 0.08,-0.10 0.19,-0.07 0.24,-0.00 z m -0.67,-0.55 c 0.06,0.04 0.10,0.14 -0.00,0.18 l -0.09,-0.08 c 0.04,-0.03 0.02,-0.06 -0.00,-0.09 0.02,-0.04 0.06,-0.03 0.10,-0.00 z M 11.66,9.79 c 0.06,0.05 0.09,0.12 0.03,0.20 -0.15,-0.22 -0.41,-0.17 -0.43,-0.37 0.06,0.02 0.28,0.07 0.40,0.17 z m 0.30,0.26 c 0.13,0.07 0.26,0.27 0.39,0.34 -0.16,0.05 -0.34,-0.27 -0.51,-0.36 0.04,-0.01 0.08,-0.00 0.12,0.01 z M 8.48,7.06 C 8.60,7.18 8.61,7.29 8.51,7.42 8.39,7.43 8.28,7.33 8.27,7.21 8.33,7.12 8.41,7.17 8.48,7.06 z m 6.89,5.91 0.24,0.20 c -0.08,0.20 -0.21,-0.05 -0.32,-0.11 l 0.08,-0.09 z M 10.71,8.99 c 0.05,0.03 0.08,0.08 0.06,0.11 L 10.68,9.21 10.44,9.00 c 0.04,-0.09 0.18,-0.06 0.27,-0.00 z m 3.78,3.27 c 0.11,0.08 0.19,0.20 0.16,0.35 -0.15,-0.22 -0.53,-0.32 -0.53,-0.45 0.09,-0.01 0.24,0.02 0.36,0.10 z m 29.65,25.48 c -0.17,0.37 -0.61,1.12 -1.05,1.03 0.37,-0.25 0.80,-0.85 1.05,-1.03 z M 13.68,11.70 c 0.08,0.06 0.16,0.15 0.24,0.21 -0.14,0.14 -0.31,-0.13 -0.47,-0.24 0.07,-0.07 0.14,-0.03 0.22,0.02 z M 12.85,11.07 c 0.15,0.13 0.30,0.26 0.45,0.39 -0.58,-0.14 -1.20,-0.80 -1.81,-1.30 0.42,0.16 0.89,0.52 1.36,0.91 z M 9.48,8.19 c 0.04,0.04 -0.02,0.16 0.10,0.24 -0.05,0.08 -0.39,-0.17 -0.19,-0.25 0.05,-0.00 0.08,0.00 0.09,0.01 z m 8.54,7.35 c 0.18,0.15 0.38,0.32 0.57,0.54 -0.09,0.11 -0.20,0.06 -0.29,0.24 -0.49,-0.23 -0.48,-0.80 -0.77,-0.66 -0.15,-0.07 -0.00,-0.18 -0.02,-0.27 -0.13,0.18 -1.22,-0.48 -0.96,-0.74 -0.07,-0.04 -0.14,0.12 -0.22,0.05 -0.20,-0.09 0.05,-0.21 0.11,-0.32 -0.12,-0.07 -0.21,0.26 -0.35,0.11 -0.22,-0.18 0.14,-0.17 0.19,-0.33 0.64,0.63 1.18,0.90 1.74,1.36 z M 8.95,7.80 C 8.85,8.09 8.70,7.73 8.58,7.82 8.54,7.75 8.54,7.68 8.61,7.60 8.77,7.62 8.74,7.74 8.95,7.80 z m 0.09,0.08 0.10,0.08 -0.08,0.10 -0.10,-0.08 0.08,-0.10 z M 8.51,7.51 8.34,7.71 C 8.12,7.58 8.36,7.36 8.51,7.51 z m 2.81,2.41 c 0.09,0.05 0.05,0.11 0.01,0.17 -0.03,-0.04 -0.05,-0.01 -0.08,0.01 -0.05,-0.05 0.03,-0.12 0.07,-0.18 z M 10.43,9.18 c 0.11,0.08 0.21,0.19 0.27,0.29 -0.37,-0.04 -0.49,-0.26 -0.84,-0.39 0.16,-0.12 0.38,-0.04 0.57,0.09 z m 5.51,4.76 c 0.09,0.08 0.18,0.16 0.24,0.24 -0.09,0.12 -0.20,0.07 -0.30,0.15 -0.49,-0.51 -0.53,-0.62 -1.16,-0.99 l 0.20,-0.24 c 0.29,0.29 0.72,0.59 1.02,0.84 z M 14.78,12.98 c 0.14,0.12 -0.11,0.39 -0.25,0.19 0.08,-0.12 0.16,-0.17 0.25,-0.19 z m 17.61,15.11 c -0.01,0.15 -0.19,0.31 -0.23,0.46 0.13,0.20 0.23,-0.11 0.36,0.06 0.00,0.24 -0.28,0.26 -0.43,0.31 -0.09,0.09 0.15,0.16 0.20,0.25 -0.09,0.12 -0.18,0.24 -0.29,0.25 -0.12,-0.11 0.08,-0.24 -0.03,-0.35 -0.67,0.05 0.15,0.73 0.44,0.55 0.19,-0.18 0.37,-0.63 0.61,-0.31 -0.02,-0.11 -0.03,-0.24 -0.02,-0.36 0.13,-0.02 0.43,0.33 0.26,0.48 0.43,-0.06 0.29,0.49 0.59,0.58 -0.22,0.27 -0.46,0.26 -0.68,0.59 0.29,0.10 0.59,-0.29 0.73,-0.55 0.69,0.61 1.59,1.60 1.99,2.39 -0.21,0.30 -0.65,0.24 -0.71,0.64 0.18,0.10 0.38,0.18 0.57,0.31 -0.16,0.47 -0.74,0.56 -1.06,0.94 0.17,0.18 0.34,0.06 0.50,0.00 0.08,0.19 0.24,0.22 0.42,0.28 0.26,-0.34 0.53,-0.52 0.80,-0.73 0.13,-0.08 0.08,0.24 0.10,0.25 0.08,0.05 0.12,-0.12 0.17,-0.10 0.24,0.08 0.39,0.46 0.67,0.58 -0.17,0.28 -0.54,0.34 -0.58,0.59 0.25,0.01 0.47,-0.41 0.73,-0.46 0.13,0.32 -0.38,0.35 -0.54,0.63 0.37,0.09 0.46,-0.59 0.88,-0.33 -0.21,0.35 -0.45,0.32 -0.68,0.60 0.31,0.21 0.56,-0.55 0.87,-0.43 0.21,0.10 -0.09,0.24 -0.15,0.37 0.16,0.02 0.30,-0.38 0.49,-0.07 -0.22,0.38 -0.49,0.27 -0.72,0.63 0.35,0.28 0.60,-0.72 0.97,-0.33 -0.21,0.31 -0.46,0.20 -0.68,0.50 0.32,0.28 0.57,-0.38 0.87,-0.43 0.13,0.32 -0.38,0.35 -0.54,0.63 0.27,0.25 0.47,-0.46 0.73,-0.37 0.18,0.07 -0.00,0.18 -0.06,0.28 0.13,0.02 0.25,-0.23 0.40,0.01 -0.15,0.32 -0.67,0.23 -0.54,0.53 0.24,-0.01 0.45,-0.43 0.69,-0.41 0.15,0.28 -0.03,0.22 0.29,0.34 -0.14,0.23 -0.30,0.28 -0.46,0.43 0.24,0.20 0.42,-0.34 0.65,-0.26 0.14,0.27 -0.31,0.31 -0.45,0.53 0.19,0.11 0.34,-0.27 0.51,-0.31 0.15,0.25 0.30,0.23 0.43,0.46 -0.17,0.12 -0.32,0.34 -0.52,0.22 -0.01,0.48 0.08,0.96 0.11,1.44 0.31,-0.29 -0.15,-0.92 0.16,-1.37 0.38,0.56 0.16,1.16 0.36,1.73 0.15,-0.57 -0.15,-1.09 0.00,-1.67 0.25,0.46 0.13,0.95 0.29,1.42 0.16,-0.34 -0.14,-0.65 0.10,-1.00 0.26,0.20 0.05,0.44 0.18,0.66 0.10,0.00 0.19,-0.10 0.30,-0.06 0.09,0.24 0.27,0.20 0.48,0.41 -0.23,0.19 -0.39,0.39 -0.68,0.58 -0.02,0.01 -0.12,-0.04 -0.13,-0.03 -0.58,0.37 -1.06,0.76 -1.69,0.99 -1.12,0.41 -2.28,0.32 -3.53,-0.00 -1.19,-0.31 -3.01,-1.22 -4.11,-2.77 -0.22,-0.32 -0.36,-0.67 -0.57,-1.08 -0.14,-0.28 -0.15,-0.66 -0.30,-0.92 -0.19,-0.35 -0.40,-0.57 -0.70,-0.94 -0.24,-0.30 -0.64,-0.70 -1.20,-0.85 0.21,-0.68 0.23,-1.49 0.01,-2.26 -0.07,-0.26 -0.10,-0.41 -0.36,-0.65 l 0.12,-0.14 c -0.84,-1.81 -3.50,-4.34 -5.37,-3.84 -0.11,0.12 -0.21,0.29 -0.33,0.29 -0.35,-1.05 -1.59,-1.65 -2.71,-2.33 -2.84,-1.72 -4.14,-4.33 -1.81,-7.11 0.49,0.15 0.51,0.55 0.89,0.51 l -0.12,0.14 c 0.08,0.13 0.43,-0.04 0.24,0.21 0.07,0.02 0.15,0.02 0.21,-0.06 0.05,0.07 -0.06,0.15 -0.11,0.23 0.13,0.15 0.24,-0.00 0.36,-0.02 -0.07,0.39 0.73,0.29 0.39,0.51 0.14,0.15 0.26,-0.14 0.42,0.10 l -0.16,0.18 c 0.11,0.07 0.20,-0.04 0.30,-0.06 0.11,0.08 0.12,0.17 0.02,0.27 0.11,0.07 0.20,-0.04 0.31,-0.07 0.03,0.08 -0.00,0.18 -0.07,0.27 0.12,0.04 0.24,-0.05 0.36,-0.02 0.08,0.08 -0.11,0.18 -0.07,0.27 0.11,0.06 0.20,-0.15 0.32,0.02 l -0.16,0.18 c 0.17,0.09 0.32,-0.10 0.48,-0.08 0.11,0.11 -0.04,0.28 -0.16,0.28 0.13,0.20 0.23,-0.08 0.36,-0.02 0.22,0.17 -0.10,0.10 -0.16,0.27 0.17,0.08 0.31,-0.29 0.49,-0.07 l -0.24,0.29 c 0.12,0.02 0.23,-0.09 0.35,-0.11 0.11,0.08 -0.12,0.18 -0.16,0.27 0.12,0.10 0.23,-0.07 0.35,-0.20 0.25,0.11 -0.09,0.27 -0.02,0.40 0.11,0.13 0.19,-0.29 0.31,-0.15 0.22,0.17 -0.10,0.12 -0.16,0.28 0.14,0.12 0.25,-0.21 0.40,-0.08 0.21,0.14 -0.10,0.09 -0.16,0.28 0.13,0.15 0.23,-0.19 0.35,-0.12 0.23,0.18 -0.20,0.13 -0.11,0.32 0.13,0.04 0.26,-0.14 0.39,-0.16 0.13,0.16 -0.08,0.24 -0.19,0.33 0.13,0.15 0.24,-0.00 0.36,-0.02 0.07,0.08 0.03,0.17 -0.07,0.27 0.16,0.13 0.28,-0.26 0.45,-0.04 -0.10,0.17 -0.26,0.09 -0.24,0.29 0.15,0.10 0.28,-0.24 0.43,-0.20 0.21,0.11 -0.13,0.27 -0.19,0.41 0.16,0.17 0.27,-0.28 0.43,-0.21 0.25,0.22 -0.10,0.22 -0.23,0.37 0.21,0.23 0.36,-0.34 0.57,-0.08 -0.10,0.20 -0.23,0.11 -0.33,0.29 0.20,0.25 0.34,-0.23 0.52,-0.21 0.09,0.28 -0.21,0.22 -0.37,0.43 0.25,0.31 0.41,-0.49 0.66,-0.18 0.01,0.24 -0.25,0.12 -0.38,0.34 -0.06,0.17 0.23,0.05 0.19,0.25 0.31,0.07 0.29,-0.57 0.62,-0.22 -0.16,0.15 -0.34,0.19 -0.51,0.40 0.22,0.11 0.39,-0.29 0.60,-0.32 0.22,0.19 -0.17,0.23 -0.24,0.38 0.17,0.24 0.27,-0.33 0.43,-0.21 0.21,0.23 -0.24,0.28 -0.32,0.47 0.19,0.12 0.34,-0.25 0.51,-0.40 l 0.19,0.16 c -0.15,0.15 -0.31,0.21 -0.46,0.44 0.24,0.26 0.41,-0.47 0.66,-0.18 -0.12,0.15 -0.36,0.07 -0.34,0.29 0.16,0.11 0.29,-0.17 0.43,-0.30 l 0.18,0.16 c -0.17,0.21 -0.38,0.17 -0.55,0.45 0.31,0.12 0.39,-0.14 0.60,-0.41 0.26,0.24 -0.15,0.28 -0.27,0.52 0.16,0.11 0.28,-0.17 0.42,-0.30 0.19,0.15 0.35,-0.05 0.52,-0.21 0.13,-0.14 -0.03,-0.27 0.19,-0.42 0.15,-0.01 0.31,0.20 0.47,0.32 -0.09,0.17 -0.20,0.07 -0.29,0.25 0.16,0.19 0.27,-0.34 0.43,-0.12 0.21,0.10 -0.09,0.28 -0.16,0.28 0.12,0.18 0.20,-0.09 0.30,-0.16 0.23,0.14 -0.01,0.29 0.24,0.21 0.18,0.07 -0.01,0.18 -0.07,0.27 0.14,0.08 0.26,-0.14 0.40,-0.07 1.02,0.90 1.84,1.55 2.65,2.20 z M 8.14,7.36 c 0.19,0.20 -0.29,0.23 0,0 z M 14.31,12.65 c 0.08,0.23 0.04,0.19 0.29,0.24 -0.00,0.16 -0.05,0.05 -0.16,0.19 -0.16,-0.16 -0.13,-0.22 -0.34,-0.29 0.06,-0.11 0.14,-0.09 0.21,-0.15 z M 6.69,6.16 C 6.77,6.21 6.82,6.30 6.84,6.42 6.56,6.68 6.27,6.77 5.96,6.67 5.79,6.90 5.62,7.01 5.42,6.80 5.56,6.41 5.82,6.59 6.07,6.35 6.14,6.17 5.84,6.18 5.77,6.09 6.01,6.07 6.46,5.99 6.69,6.16 z m 6.93,5.97 c 0.13,0.11 0.26,0.22 0.39,0.35 -0.69,-0.26 -1.46,-0.74 -2.30,-1.63 0.27,-0.04 0.61,0.14 0.62,0.35 0.04,0.03 0.08,-0.02 0.13,-0.05 0.31,0.35 0.74,0.63 1.15,0.96 z M 8.00,7.33 C 7.50,7.70 7.14,6.98 6.68,7.20 6.90,6.81 7.58,7.09 8.00,7.33 z M 27.17,23.78 c 0.09,0.11 -0.18,0.28 -0.24,0.29 -0.09,-0.19 -0.21,-0.20 -0.39,-0.33 0.09,-0.38 0.56,-0.22 0.37,0.06 0.09,0.03 0.18,0.02 0.27,-0.02 z m 0.72,0.62 c 0.09,0.09 -0.00,0.21 -0.11,0.32 -0.09,-0.26 -0.63,-0.27 -0.40,-0.60 0.25,0.13 0.22,0.34 0.51,0.27 z m 0.19,0.16 0.14,0.12 c -0.05,0.56 -0.69,0.01 -0.14,-0.12 z M 4.70,4.57 C 4.84,4.69 4.96,4.91 5.02,5.01 4.91,5.16 4.77,5.02 4.65,5.04 4.58,5.16 4.84,5.09 4.80,5.26 4.72,5.31 4.63,5.32 4.55,5.37 4.44,4.85 3.78,4.49 3.46,4.18 3.77,4.10 4.10,4.42 4.44,4.70 4.56,4.80 4.54,4.55 4.43,4.52 4.53,4.47 4.62,4.50 4.70,4.57 z m 6.45,5.55 c 0.05,0.07 -0.06,0.15 -0.11,0.23 l -0.29,-0.25 c 0.21,-0.24 0.19,0.12 0.41,0.01 z m 0.24,0.20 c 0.13,0.14 0.33,0.27 0.21,0.43 -0.13,-0.18 -0.25,-0.08 -0.38,-0.24 l 0.16,-0.19 z m 14.72,12.64 c 0.00,0.03 -0.10,0.19 -0.13,0.21 -0.10,0.07 -0.12,-0.04 0.07,-0.19 0.03,-0.02 0.05,-0.02 0.05,-0.01 z m -0.71,-0.58 c 0.01,0.00 0.02,0.01 0.02,0.06 -0.08,0.12 -0.16,0.18 -0.25,0.20 -0.10,-0.18 -0.10,-0.09 -0.29,-0.24 L 25.01,22.26 c -0.51,-0.01 -0.93,-0.62 -1.24,-0.81 0.09,-0.12 0.20,-0.09 0.30,-0.16 -0.05,0.22 0.17,0.14 0.29,0.25 0.00,0.00 -0.04,0.13 -0.04,0.13 0.03,0.03 0.22,0.01 0.23,0.02 0.03,0.03 0.01,0.18 0.01,0.18 0.03,0.02 0.58,0.19 0.71,0.43 0.00,0.01 -0.13,0.14 -0.13,0.15 0.04,0.04 0.19,-0.09 0.25,-0.09 z M 10.35,9.50 10.49,9.63 10.36,9.78 C 10.25,9.70 10.25,9.60 10.35,9.50 z M 23.11,20.45 c 0.09,0.09 -0.00,0.21 -0.11,0.32 -0.35,-0.32 -0.40,-0.33 -0.76,-0.57 0.06,-0.11 0.14,-0.09 0.21,-0.15 0.01,0.25 0.36,0.24 0.66,0.39 z m 2.62,2.25 c 0.08,0.05 -0.17,0.40 -0.26,0.20 0.08,-0.12 0.17,-0.18 0.26,-0.20 z m 0.74,0.69 c 0.04,0.03 -0.01,0.12 -0.19,0.03 0.10,-0.06 0.16,-0.06 0.19,-0.03 z m -4.81,-4.10 c 0.09,0.19 0.23,0.53 0.43,0.37 0.11,0.11 -0.04,0.28 -0.16,0.28 -0.26,-0.29 -0.34,-0.42 -0.63,-0.54 -0.04,-0.05 0.05,-0.12 -0.00,-0.18 0.18,-0.17 0.15,0.23 0.36,0.06 z m 0.63,0.54 c 0.09,0.05 -0.15,0.34 -0.21,0.15 0.06,-0.11 0.14,-0.10 0.21,-0.15 z m 1.16,0.99 c 0.14,0.12 -0.11,0.40 -0.25,0.20 0.08,-0.12 0.16,-0.18 0.25,-0.20 z m 0.19,0.16 c 0.09,0.05 -0.15,0.34 -0.21,0.15 0.06,-0.11 0.14,-0.10 0.21,-0.15 z m 0.19,0.16 c 0.03,0.04 0.00,0.09 0.05,0.13 -0.07,0.04 -0.14,0.04 -0.22,-0.02 0.05,-0.09 0.11,-0.04 0.17,-0.10 z M 19.87,17.85 c 0.09,0.11 0.09,0.23 0.02,0.35 -0.01,-0.22 -0.18,0.00 -0.32,-0.20 0.09,-0.12 0.20,-0.07 0.30,-0.15 z m 1.01,0.87 c -0.01,0.17 0.01,0.17 0.19,0.25 -0.33,0.30 -0.16,-0.08 -0.49,-0.09 0.09,-0.19 0.20,-0.08 0.30,-0.15 z m 2.33,2.00 c 0.07,0.11 0.03,0.15 -0.08,0.18 l -0.09,-0.08 c 0.05,-0.09 0.11,-0.04 0.17,-0.10 z m -5.33,-4.49 c -0.12,0.18 -0.24,0.26 -0.39,0.07 0.12,-0.16 0.25,-0.18 0.39,-0.07 z m 0.68,0.58 c 0.11,0.11 -0.12,0.17 -0.16,0.18 -0.06,-0.26 -0.34,-0.19 -0.43,-0.37 0.33,-0.31 0.40,0.32 0.59,0.18 z m 0.19,0.16 c 0.11,0.08 -0.12,0.18 -0.16,0.27 -0.14,-0.09 -0.03,-0.21 0.02,-0.32 0.04,0.05 0.09,0.07 0.13,0.04 z m 0.58,0.49 c 0.21,0.12 -0.16,0.39 -0.25,0.19 0.08,-0.12 0.16,-0.17 0.25,-0.19 z m 0.34,0.29 c -0.09,0.13 -0.19,0.18 -0.30,0.06 0.09,-0.13 0.19,-0.18 0.30,-0.06 z m 0.77,0.66 c 0.01,0.17 0.12,0.11 0.24,0.21 -0.29,0.39 -0.19,-0.19 -0.40,-0.02 -0.11,-0.11 0.12,-0.17 0.16,-0.18 z M 16.24,14.90 c 0.10,0.09 -0.00,0.21 -0.11,0.32 -0.20,-0.16 -0.01,-0.23 0.11,-0.32 z m 0.43,0.37 c 0.00,0.28 0.13,0.10 0.34,0.29 -0.24,0.29 -0.36,-0.03 -0.55,-0.04 -0.10,-0.11 0.15,-0.24 0.21,-0.24 z m 0.92,0.79 c -0.10,0.07 -0.19,0.19 -0.31,0.07 0.09,-0.13 0.19,-0.19 0.31,-0.07 z m 0.34,0.29 c 0.04,0.07 0.04,0.14 -0.02,0.22 -0.20,-0.10 -0.10,-0.21 0.02,-0.22 z m 10.37,8.90 c -0.12,0.50 -0.76,0.54 -0.87,0.93 0.26,-0.22 1.05,-0.55 0.87,-0.93 z M 14.61,13.56 c 0.08,0.07 -0.07,0.16 -0.12,0.25 l -0.14,-0.12 c 0.06,-0.11 0.14,-0.09 0.21,-0.15 0.02,0.00 0.04,0.01 0.05,0.02 z m -2.53,-2.15 c 0.14,0.11 -0.01,0.32 -0.10,0.32 -0.10,-0.09 -0.00,-0.21 0.10,-0.32 z m 3.32,2.85 c 0.02,0.01 0.03,0.05 0.02,0.11 l -0.08,0.09 c -0.20,-0.11 -0.02,-0.24 0.05,-0.20 z m 0.21,0.18 c -0.04,0.24 0.06,0.11 0.24,0.20 -0.16,0.30 -0.38,0.01 -0.46,-0.14 0.07,-0.04 0.15,7.23e-4 0.22,-0.05 z m 0.77,0.66 c 0.05,0.30 -0.28,0.03 0,0 z M 11.80,11.24 c 0.01,0.01 0.02,0.03 0.03,0.05 -0.19,0.10 0.13,0.17 -0.06,0.27 -0.02,-0.05 -0.05,-0.11 -0.01,-0.18 -0.07,0.00 -0.15,-0.08 -0.22,-0.02 -0.07,-0.14 0.14,-0.22 0.26,-0.12 z m 1.48,1.27 c 0.10,0.08 0.13,0.16 0.26,0.32 -0.23,0.16 -0.24,-0.28 -0.46,-0.14 -0.07,-0.08 -0.04,-0.17 0.06,-0.27 0.05,0.03 0.09,0.06 0.13,0.09 z m 1.04,0.89 c 0.08,0.08 -0.11,0.28 -0.18,0.11 l 0.12,-0.14 c 0.02,0.00 0.04,0.01 0.06,0.03 z M 9.45,9.25 c 0.06,0.05 0.11,0.19 0.21,0.26 -0.18,0.14 -0.15,-0.13 -0.38,-0.24 0.07,-0.05 0.12,-0.05 0.16,-0.01 z m 1.46,1.25 c 0.10,0.14 0.03,0.29 0.21,0.43 -0.15,0.08 -0.48,-0.14 -0.51,-0.27 0.09,-0.18 0.21,0.09 0.30,-0.15 z m 2.03,1.74 0.09,0.08 -0.12,0.14 -0.14,-0.12 c 0.05,-0.08 0.11,-0.04 0.17,-0.10 z m 1.16,0.99 c 0.05,0.05 -0.03,0.12 -0.07,0.18 l -0.14,-0.12 c 0.06,-0.13 0.14,0.00 0.21,-0.06 z m 0.82,0.71 c 0.08,0.19 -0.22,0.14 -0.32,-0.02 0.08,-0.25 0.22,0.16 0.32,0.02 z m 13.97,11.99 c -0.20,0.28 -0.44,0.41 -0.74,0.87 0.08,0.06 0.14,0.13 0.15,0.21 0.03,-0.21 0.19,-0.43 0.31,-0.65 0.15,0.01 0.31,0.22 0.44,-0.03 -0.43,-0.03 -0.03,-0.14 -0.16,-0.39 z M 28.54,25.66 c -0.00,-0.00 -0.02,-0.00 -0.05,0.00 -0.37,0.14 -0.45,0.57 -0.80,0.74 0.07,0.13 0.10,0.26 0.25,0.38 0.15,-0.15 0.31,-0.21 0.46,-0.44 -0.20,-0.31 -0.33,0.35 -0.53,0.13 0.28,-0.26 0.29,-0.50 0.57,-0.76 0.05,0.05 0.11,-0.03 0.09,-0.06 z m 12.36,10.66 -0.08,0.10 0.10,0.08 0.08,-0.10 -0.10,-0.08 z m 0.19,0.16 -0.08,0.10 0.10,0.08 0.08,-0.10 -0.10,-0.08 z M 28.71,25.87 c -0.00,-0.01 -0.02,-0.01 -0.06,0.01 -0.06,0.05 -0.30,0.34 -0.11,0.23 0.04,-0.04 0.19,-0.21 0.18,-0.25 z M 7.60,7.90 c 0.02,0.01 0.05,0.04 0.08,0.08 C 7.52,8.22 7.35,8.22 7.16,8.12 7.22,7.95 7.40,7.77 7.60,7.90 z M 4.77,5.49 C 4.96,5.62 4.99,5.91 4.81,5.94 4.63,5.80 4.61,5.65 4.77,5.49 z M 7.35,7.69 C 7.25,7.85 6.76,7.91 6.48,7.62 6.76,7.45 7.06,7.74 7.35,7.69 z M 36.04,32.58 c 0.21,0.13 -0.19,0.41 -0.29,0.25 0.09,-0.17 0.20,-0.07 0.29,-0.25 z M 3.77,4.94 c -0.03,-0.03 -0.08,-0.04 -0.12,-0.00 0.17,0.04 0.08,0.31 0.24,0.21 C 3.89,5.11 3.84,5.00 3.77,4.94 z m 2.54,2.19 C 6.17,7.27 5.88,7.23 5.85,7.08 5.99,6.89 6.16,7.08 6.31,7.14 z m 3.39,2.91 0.14,0.12 -0.16,0.19 c -0.14,-0.09 -0.09,-0.20 0.02,-0.32 z m 16.30,14.08 c 0.10,0.10 -0.15,0.23 -0.20,0.24 -0.10,-0.10 0.15,-0.23 0.20,-0.24 z M 5.01,6.17 C 5.12,6.25 5.24,6.52 5.37,6.66 5.10,6.78 4.84,6.92 4.56,6.73 4.56,6.54 4.82,6.34 4.96,6.15 c 0.01,0.00 0.03,0.00 0.04,0.01 z M 6.38,7.54 C 6.45,7.67 6.13,7.66 6.02,7.48 6.13,7.38 6.27,7.61 6.38,7.54 z M 5.48,6.93 5.63,7.05 C 5.56,7.17 5.48,7.15 5.41,7.20 5.33,7.12 5.37,7.03 5.48,6.93 z M 8.25,9.30 C 8.14,9.48 8.02,9.53 7.90,9.51 7.78,9.39 7.77,9.28 7.87,9.15 7.99,9.19 8.12,9.22 8.25,9.30 z M 18.46,18.13 c 0.09,0.09 -0.26,0.22 -0.13,0.32 -0.29,0.03 -0.15,-0.33 0.06,-0.36 0.03,0.01 0.06,0.02 0.07,0.04 z M 8.30,9.43 c 0.04,0.21 -0.00,0.21 0.11,0.35 l -0.21,0.24 c 0.09,0.11 0.16,-0.25 0.27,-0.02 -0.18,0.18 -0.07,0.12 0.05,0.22 C 8.48,10.47 8.27,10.61 8.08,10.76 7.94,10.65 8.38,10.50 8.24,10.39 8.12,10.30 8.04,10.58 7.94,10.64 7.86,10.40 8.23,10.04 7.84,9.97 8.09,9.75 8.07,9.53 8.30,9.43 z M 5.27,6.98 c 0.01,0.01 0.02,0.02 0.03,0.04 C 5.23,7.19 5.13,7.05 5.04,7.14 4.96,7.03 5.16,6.91 5.27,6.98 z M 3.66,5.61 C 3.56,5.59 3.49,5.80 3.39,5.73 3.04,5.44 2.70,5.35 2.41,5.89 2.58,5.96 2.30,6.29 2.56,6.20 2.55,5.70 3.44,5.60 3.51,6.08 3.63,6.03 3.50,5.79 3.68,5.88 3.76,5.97 3.81,6.06 3.79,6.15 3.43,6.12 3.28,6.58 2.87,6.63 3.04,6.82 3.18,6.68 3.34,6.78 3.51,6.50 3.70,6.48 3.89,6.33 3.81,6.09 3.90,5.84 3.66,5.61 z M 29.91,28.24 c -0.26,-0.04 -0.21,0.31 -0.48,0.26 -0.27,-0.20 0.22,-0.47 -0.09,-0.67 -0.20,0.81 -0.45,1.63 -0.66,2.45 0.23,0.22 0.14,-0.14 0.35,-0.02 -0.09,0.09 0.15,0.16 0.20,0.25 -0.07,0.21 -0.12,0.42 -0.13,0.64 0.26,0.00 0.04,-0.57 0.37,-0.43 0.13,0.29 -0.23,0.62 -0.02,0.91 0.17,-0.22 -0.02,-0.65 0.30,-0.74 0.21,0.14 0.04,0.32 0.08,0.48 0.16,-0.06 0.02,-0.32 0.20,-0.24 0.58,0.39 0.68,0.82 1.05,1.23 -0.08,0.45 -0.13,0.92 -0.34,1.39 -0.14,0.09 -0.54,0.01 -0.56,-0.23 0.07,-0.16 0.19,0.23 0.27,0.07 0.00,-0.23 0.28,-0.39 0.26,-0.70 -0.20,-0.05 -0.40,-0.23 -0.39,-0.42 -0.21,0.32 -0.44,0.22 -0.59,0.50 -0.47,0.85 1.14,1.73 1.78,0.76 0.12,-0.55 0.17,-1.09 0.05,-1.63 0.26,-0.35 0.40,-0.69 0.28,-1.01 -0.25,0.12 -0.08,0.56 -0.30,0.83 -0.69,-0.44 0.30,-1.01 -0.06,-1.48 -0.20,0.30 -0.04,0.57 -0.25,0.88 -0.09,-0.00 -0.18,-0.05 -0.28,-0.16 0.11,-0.32 0.43,-0.66 0.23,-0.96 -0.30,0.26 0.00,0.48 -0.30,0.74 -0.06,-0.05 -0.12,0.00 -0.18,-0.07 -0.10,-0.39 0.38,-0.84 0.13,-1.23 -0.31,0.11 0.04,0.95 -0.38,0.93 -0.29,-0.32 0.43,-0.96 -0.03,-1.13 -0.09,0.31 0.07,0.77 -0.24,0.97 -0.23,-0.26 -0.43,-0.25 -0.66,-0.49 0.14,-0.17 0.04,-0.33 0.18,-0.51 0.19,-0.01 0.29,0.21 0.29,0.34 0.68,-0.59 0.38,-1.01 -0.06,-1.49 z m 6.25,5.36 c 0.06,0.17 -0.24,0.31 -0.33,0.39 -0.06,-0.12 0.24,-0.38 0.33,-0.39 z M 9.16,10.53 c 0.02,0.01 -0.02,0.11 -0.08,0.15 -0.09,0.07 -0.03,-0.08 0.03,-0.14 0.02,-0.01 0.03,-0.02 0.04,-0.01 z M 5.52,7.47 c -0.24,0.10 -0.51,0.04 -0.79,-0.16 0.25,-0.04 0.51,-0.07 0.79,0.16 z M 29.20,27.79 c -0.16,-0.01 -0.34,-0.08 -0.50,-0.00 -0.08,0.54 -0.53,1.27 -0.50,1.76 0.46,-0.27 0.19,-1.29 0.71,-1.41 0.07,0.04 -0.11,0.33 0.05,0.22 0.03,-0.18 0.18,-0.38 0.23,-0.56 z m 6.79,5.82 c -0.24,0.19 -0.49,0.24 -0.73,0.55 -0.09,-0.04 0.50,-0.76 0.73,-0.55 z m 0.27,0.23 c 0.02,-0.01 -0.45,0.46 -0.24,0.21 0.16,-0.15 0.23,-0.21 0.24,-0.21 z m 0.55,0.47 c -0.20,0.26 -0.43,0.24 -0.64,0.54 0.23,0.15 0.52,-0.33 0.64,-0.54 z m 5.62,4.82 c -0.17,0.21 -0.37,0.23 -0.58,0.09 0.02,-0.22 0.39,-0.12 0.58,-0.09 z M 4.87,6.92 c 0.02,0.02 0.04,0.05 0.03,0.10 C 4.83,7.08 4.73,6.92 4.67,7.00 4.59,6.85 4.79,6.84 4.87,6.92 z M 37.07,34.63 c -0.12,0.17 -0.67,0.30 -0.51,0.49 0.14,-0.04 0.51,-0.41 0.51,-0.49 z m -0.63,-0.45 c -0.20,0.27 -0.43,0.22 -0.63,0.55 0.20,0.03 0.73,-0.39 0.63,-0.55 z M 18.05,18.48 c 0.09,0.31 -0.23,0.47 -0.34,0.71 -0.12,0.25 -0.06,0.63 -0.39,0.83 -0.17,0.77 -0.19,1.18 -0.03,2.00 0.06,0.32 0.12,0.73 0.25,0.97 0.07,0.13 0.26,0.22 0.39,0.41 0.16,0.23 0.49,0.83 0.85,1.16 1.30,1.19 3.50,1.75 4.26,3.57 0.19,-0.00 0.35,-0.41 0.55,-0.44 0.53,-0.12 1.17,0.06 1.89,0.44 0.99,0.51 2.14,1.62 2.78,2.63 0.16,0.26 0.48,0.56 0.24,0.80 -0.54,-1.00 -1.98,-2.66 -3.24,-3.28 -0.81,-0.40 -1.64,-0.61 -2.14,0.34 -0.55,-0.19 -0.54,-0.78 -0.91,-1.19 -0.28,-0.32 -0.67,-0.61 -1.01,-0.87 -1.25,-0.92 -2.65,-1.60 -3.52,-2.86 -0.09,-0.13 -0.13,-0.36 -0.22,-0.52 -0.09,-0.16 -0.28,-0.32 -0.34,-0.47 -0.24,-0.59 -0.05,-1.20 -0.23,-1.88 0.32,-0.75 0.50,-1.72 1.17,-2.35 z m 10.33,8.87 c -0.19,0.46 -0.27,0.92 -0.34,1.38 0.24,-0.47 0.44,-0.93 0.34,-1.38 z m -1.28,-1.08 c -0.01,-0.00 -0.03,-0.00 -0.06,0.01 -0.06,0.27 -0.13,0.55 -0.20,0.83 -0.06,0.25 -0.20,0.58 -0.11,0.82 0.32,-0.52 0.20,-1.01 0.47,-1.53 -0.03,-0.04 -0.03,-0.12 -0.08,-0.13 z m 13.54,11.66 c 0.01,0.01 0.02,0.02 0.02,0.04 0.02,0.16 -0.41,0.05 -0.18,-0.07 0.01,-0.00 0.11,-0.00 0.16,0.02 z M 4.15,6.62 c 0.08,0.08 -0.05,0.19 0.10,0.27 -0.12,0.09 -0.35,0.03 -0.37,-0.15 0.06,-0.09 0.14,-0.05 0.21,-0.15 0.02,0.01 0.04,0.02 0.05,0.03 z M 26.76,26.12 c -0.25,0.54 -0.35,1.08 -0.37,1.61 0.28,-0.55 0.37,-1.08 0.37,-1.61 z m 0.67,0.58 c -0.26,0.48 -0.28,0.95 -0.38,1.43 0.24,-0.31 0.45,-0.99 0.38,-1.43 z m 0.29,0.34 c 0.09,0.45 -0.51,1.29 -0.24,1.46 0.01,-0.42 0.51,-1.22 0.24,-1.46 z m 12.32,10.57 c -0.12,0.15 -0.49,0.15 -0.24,0.37 0.05,-0.12 0.33,-0.25 0.24,-0.37 z m 2.17,1.87 c 0.21,0.36 -0.55,0.79 -0.76,1.18 -0.12,-0.05 -0.22,0.23 -0.36,0.02 -1.03,0.81 -2.16,1.11 -3.26,1.15 -0.63,0.02 -1.34,-0.05 -1.97,-0.25 -0.11,0.02 -0.15,0.07 -0.07,0.18 -0.28,-0.01 -0.59,-0.23 -0.87,-0.15 -0.18,-0.09 0.02,-0.21 -0.15,-0.30 -0.85,-0.51 -1.70,-0.93 -2.34,-1.58 -1.01,-1.03 -1.42,-2.41 -2.25,-3.46 -0.05,-0.61 -0.90,-1.26 -1.50,-1.37 -0.16,0.06 -0.09,0.32 -0.20,0.24 -0.16,-0.12 -0.13,-0.26 -0.34,-0.38 0.09,-0.27 0.24,-0.27 0.36,-0.51 0.06,0.07 -0.10,0.15 -0.02,0.22 0.61,-0.69 0.24,-1.71 0.21,-2.51 0.22,0.86 0.62,1.93 -0.15,2.73 0.17,0.16 0.32,-0.06 0.48,-0.08 0.39,0.18 0.72,0.40 1.00,0.69 0.60,0.63 0.88,1.58 1.32,2.39 0.04,0.08 0.18,0.12 0.24,0.20 0.11,0.17 0.12,0.45 0.22,0.61 0.13,0.22 0.39,0.36 0.58,0.59 2.06,2.39 5.09,2.90 7.31,2.06 0.55,-0.20 0.75,-0.31 1.30,-0.73 0.41,-0.31 0.80,-0.34 1.23,-0.95 z m 0.24,0.21 c 0.03,0.19 -0.17,0.40 -0.36,0.61 -0.14,-0.18 0.23,-0.40 0.36,-0.61 z m -3.14,-2.62 c -0.15,-0.14 -0.38,0.06 -0.16,0.19 l 0.16,-0.19 z M 3.09,6.04 C 3.07,6.02 3.04,6.00 3.00,5.98 2.84,6.15 2.70,6.31 2.95,6.44 3.12,6.42 3.25,6.19 3.09,6.04 z M 37.68,35.75 c -0.12,-0.07 -0.27,0.09 -0.15,0.20 0.07,-0.05 0.14,-0.03 0.21,-0.15 -0.01,-0.02 -0.03,-0.03 -0.05,-0.04 z m 0.97,0.84 -0.08,0.09 0.09,0.08 0.08,-0.09 -0.09,-0.08 z M 7.21,9.72 c 0.25,0.12 -0.24,0.68 -0.31,0.76 -0.15,-0.11 0.08,-0.26 0.02,-0.38 0.13,0.06 0.35,-0.20 0.23,-0.40 0.02,0.00 0.04,0.01 0.06,0.01 z M 28.01,27.61 c 0.12,0.30 -0.46,0.91 -0.14,1.05 -0.09,-0.31 0.43,-0.91 0.14,-1.05 z m -2.03,-1.65 c -0.06,0.45 -0.32,0.93 -0.25,1.38 0.14,-0.46 0.35,-0.93 0.25,-1.38 z m 0.43,0.37 c -0.17,0.13 -0.23,0.49 -0.05,0.45 -0.06,-0.14 0.11,-0.31 0.05,-0.45 z m 3.06,2.76 c 0.14,0.13 0.16,0.50 -0.04,0.67 -0.12,-0.23 -0.17,-0.47 -0.14,-0.71 0.07,-0.02 0.13,-0.00 0.18,0.03 z m -3.82,-3.16 c -0.21,0.26 -0.42,0.90 -0.44,1.30 0.33,-0.44 0.36,-0.88 0.44,-1.30 z m 3.21,2.83 c -0.01,-0.01 -0.03,-0.02 -0.05,-0.03 -0.15,0.13 -0.10,0.24 -0.06,0.36 0.11,-0.11 0.20,-0.22 0.11,-0.32 z M 5.04,8.32 5.23,8.49 C 5.07,8.72 4.88,8.64 4.71,8.80 4.55,8.73 4.70,8.62 4.61,8.53 4.75,8.42 4.90,8.43 5.04,8.32 z M 25.27,25.69 c -0.23,0.09 -0.15,0.40 -0.22,0.64 -0.07,0.25 -0.29,0.54 -0.17,0.78 0.18,-0.48 0.40,-0.96 0.39,-1.42 z m 17.13,14.78 c 0.18,0.15 0.17,0.32 0.07,0.49 -0.10,-0.13 -0.10,-0.21 -0.27,-0.16 -0.10,-0.09 0.15,-0.22 0.19,-0.33 z M 6.85,10.05 c 0.02,0.01 0.04,0.03 0.05,0.05 -0.01,-0.01 -0.03,-0.02 -0.05,-0.05 z m 17.99,15.44 c -0.27,0.25 -0.35,0.86 -0.31,1.24 0.17,-0.42 0.32,-0.83 0.31,-1.24 z M 4.00,7.77 C 4.08,8.04 3.61,8.12 3.40,8.18 3.27,8.10 3.46,7.99 3.38,7.91 3.58,7.81 3.81,7.95 4.00,7.77 z M 32.05,31.83 c -0.17,0.49 -0.28,0.99 -0.25,1.47 0.20,-0.27 -0.05,-0.75 0.34,-0.88 0.03,0.29 -0.19,0.62 -0.02,0.91 0.06,-0.30 0.08,-0.61 0.20,-0.92 -0.40,-0.05 -0.06,-0.36 -0.26,-0.56 z m 7.56,6.49 c -0.03,-0.03 -0.07,-0.04 -0.13,-0.03 0.19,0.63 0.12,1.28 0.18,1.92 0.20,-0.43 0.08,-0.91 0.04,-1.31 -0.02,-0.17 0.00,-0.47 -0.09,-0.58 z M 24.44,25.39 c -0.18,0.30 -0.29,0.59 -0.25,0.88 0.07,-0.29 0.48,-0.61 0.25,-0.88 z m -0.28,-0.16 c -0.19,0.27 -0.43,0.93 -0.48,1.35 0.27,-0.28 0.43,-0.93 0.48,-1.35 z m -1.29,-1.03 c -0.13,0.64 -0.50,1.31 -0.40,1.93 0.12,-0.64 0.50,-1.31 0.40,-1.93 z M 4.31,8.36 c 0.03,0.02 0.06,0.05 0.10,0.09 C 3.80,8.46 3.70,9.15 3.69,9.60 3.19,9.21 3.79,7.97 4.31,8.36 z M 21.45,23.08 c -0.43,0.59 -0.49,1.15 -0.45,1.71 0.15,-0.57 0.26,-1.13 0.45,-1.71 z m 0.33,0.28 c -0.10,0.09 -0.14,0.19 -0.06,0.28 0.07,-0.09 0.10,-0.19 0.06,-0.28 z m 0.34,0.29 c -0.19,0.32 -0.42,1.00 -0.52,1.49 -0.02,0.13 -0.16,0.20 -0.01,0.31 0.16,-0.29 0.19,-0.76 0.36,-1.20 0.06,-0.18 0.32,-0.40 0.17,-0.60 z m 0.34,0.29 c -0.21,0.32 -0.60,1.04 -0.42,1.48 0.21,-0.50 0.31,-0.99 0.42,-1.48 z m 0.72,0.62 c -0.15,0.24 -0.14,0.55 -0.20,0.83 -0.06,0.27 -0.25,0.58 -0.15,0.87 0.20,-0.15 0.12,-0.51 0.20,-0.83 0.06,-0.27 0.35,-0.61 0.15,-0.87 z m 0.43,0.37 c -0.13,0.47 -0.36,0.97 -0.29,1.43 0.27,-0.42 0.07,-0.82 0.39,-1.25 -0.05,-0.05 -0.01,-0.12 -0.10,-0.17 z m 15.62,13.40 c -0.08,0.39 0.01,0.80 0.03,1.13 0.01,0.23 -0.04,0.44 0.01,0.67 0.19,-0.18 0.08,-0.56 0.07,-0.86 -0.01,-0.31 0.03,-0.68 -0.11,-0.94 z M 21.01,22.79 c -0.07,0.20 -0.28,0.41 -0.17,0.60 0.07,-0.20 0.28,-0.41 0.17,-0.60 z m 5.12,4.40 c -0.02,-0.01 -0.03,-0.00 -0.06,0.01 0.07,0.07 -0.07,0.16 0.05,0.22 0.09,-0.04 0.07,-0.20 0.01,-0.24 z m 2.48,2.13 c -0.10,0.15 -0.22,0.32 -0.14,0.46 0.11,-0.02 0.25,-0.32 0.14,-0.46 z m -8.38,-7.11 c -0.09,0.19 -0.47,0.78 -0.36,1.12 0.10,-0.37 0.48,-0.76 0.36,-1.12 z m 0.43,0.37 c -0.07,0.23 -0.56,0.74 -0.34,0.79 -0.00,-0.25 0.45,-0.55 0.34,-0.79 z m 7.27,6.24 c -0.09,0.14 -0.38,0.30 -0.10,0.42 0.15,-0.14 0.09,-0.28 0.10,-0.42 z m 10.90,9.46 c -0.03,-0.02 -0.07,-0.03 -0.12,-0.03 0.27,0.40 0.03,1.08 0.28,1.34 -0.00,-0.33 0.07,-1.12 -0.16,-1.30 z M 3.19,7.73 C 3.28,7.81 3.08,8.01 3.01,7.84 L 3.13,7.70 c 0.02,0.00 0.04,0.01 0.06,0.03 z M 32.44,32.85 c -0.12,0.19 -0.11,0.36 -0.05,0.54 0.06,-0.18 0.22,-0.37 0.05,-0.54 z M 1.49,6.44 C 1.46,6.41 1.44,6.39 1.40,6.38 1.56,6.65 1.55,7.18 1.88,7.29 1.65,7.06 1.67,6.62 1.49,6.44 z M 21.59,23.87 c -0.00,-0.00 -0.02,-0.01 -0.03,-0.02 -3.1e-4,0.30 -0.27,0.61 -0.20,0.91 0.01,-0.25 0.36,-0.74 0.23,-0.89 z m 16.98,14.59 c -0.18,0.25 -0.06,0.48 0.06,0.72 -0.02,0.39 -0.17,0.80 -0.00,1.18 0.16,-0.64 0.06,-1.27 -0.05,-1.90 z m 1.55,1.33 -0.12,0.14 0.10,0.08 c 0.03,0.02 0.06,0.03 0.08,-0.01 -0.05,-0.07 -0.01,-0.14 -0.06,-0.21 z M 19.72,22.35 c -0.02,0.02 -0.06,0.05 -0.09,0.00 -0.12,0.11 -0.06,0.21 0.07,0.31 0.12,-0.11 0.16,-0.22 0.02,-0.32 z m 12.81,11.08 c -0.14,0.16 -0.07,0.30 -0.05,0.45 -0.34,0.71 -0.25,1.38 -0.33,2.06 -0.03,0.26 -0.22,0.55 -0.03,0.81 0.26,-0.32 0.09,-0.80 0.13,-1.23 0.04,-0.47 0.09,-1.04 0.20,-1.51 0.04,-0.20 0.30,-0.36 0.09,-0.59 z m -8.38,-7.11 c -0.12,0.14 -0.25,0.29 -0.10,0.41 0.17,-0.01 0.16,-0.27 0.10,-0.41 z M 3.14,8.38 C 2.98,8.32 2.38,7.85 2.62,8.10 2.64,8.13 2.90,8.49 3.14,8.38 z M 30.19,31.63 c -0.01,-0.01 -0.03,-0.01 -0.06,-0.01 0.01,0.18 -0.17,0.37 -0.05,0.54 0.05,-0.13 0.22,-0.46 0.11,-0.53 z M 2.29,7.71 C 2.18,7.62 2.03,7.54 1.99,7.56 2.22,7.69 2.17,7.84 2.38,7.98 2.48,7.91 2.40,7.80 2.29,7.71 z M 20.68,23.68 c 0.00,0.22 -0.33,0.71 0.01,0.76 -0.10,-0.21 0.16,-0.70 -0.01,-0.76 z m 9.11,7.82 c -0.12,0.20 -0.25,0.41 -0.08,0.60 0.10,-0.20 0.17,-0.41 0.08,-0.60 z m 0.63,0.54 c -0.08,0.12 -0.13,0.25 -0.06,0.37 0.08,-0.12 0.13,-0.25 0.06,-0.37 z m 7.71,6.62 c -0.12,0.14 -0.08,0.28 -0.01,0.41 0.07,-0.14 0.03,-0.28 0.01,-0.41 z m -0.47,-0.38 c -0.03,-0.01 -0.07,-0.00 -0.13,0.03 0.06,0.07 0.06,0.37 0.25,0.29 -0.03,-0.09 -0.02,-0.29 -0.11,-0.32 z M 19.64,22.86 c -0.07,-0.05 -0.14,-0.07 -0.21,-0.08 -0.22,0.18 0.17,0.46 0.28,0.16 -0.02,-0.02 -0.05,-0.05 -0.07,-0.07 z m 12.35,10.61 c -0.02,0.33 -0.05,0.66 -0.01,0.99 -0.12,0.39 -0.06,0.81 -0.13,1.23 -0.03,0.20 -0.26,0.45 -0.08,0.68 0.23,-0.07 0.06,-0.32 0.09,-0.50 0.11,-0.75 0.40,-1.91 0.13,-2.40 z m 0.73,0.79 c -0.30,0.77 -0.15,1.52 -0.27,2.29 0.22,-0.38 0.05,-1.12 0.32,-1.66 -0.20,-0.19 0.07,-0.43 -0.04,-0.63 z m -1.64,-1.32 c 0.15,0.12 0.01,0.26 -0.10,0.41 -0.06,-0.13 -0.02,-0.26 0.10,-0.41 z m 6.16,5.38 c -0.06,0.32 -0.09,0.87 0.12,1.02 -0.02,-0.34 0.13,-0.70 -0.12,-1.02 z m -7.26,-6.15 c -0.09,0.10 -0.17,0.42 0.02,0.35 -0.10,-0.11 0.17,-0.25 -0.02,-0.35 z m 1.74,1.49 c -0.21,0.36 -0.14,0.94 -0.05,1.13 -0.08,-0.37 0.17,-0.76 0.05,-1.13 z m 6.01,5.16 c -0.20,0.37 -0.01,0.73 -0.00,1.09 0.12,-0.37 0.07,-0.73 0.00,-1.09 z m 1.16,1.09 c -0.11,0.11 -0.05,0.21 -0.02,0.32 0.12,-0.11 0.16,-0.22 0.02,-0.32 z M 20.17,23.90 c -0.03,-0.02 -0.08,-0.03 -0.10,0.00 0.02,0.02 0.05,0.05 0.00,0.09 l 0.09,0.08 c 0.11,-0.03 0.06,-0.13 0.00,-0.18 z m 6.57,5.66 0.10,0.08 -0.08,0.09 -0.10,-0.08 0.08,-0.09 z m 9.65,8.29 c -0.12,0.43 -0.00,0.84 0.09,1.25 0.15,-0.43 0.12,-0.84 -0.09,-1.25 z m 0.43,0.37 c 0.06,0.41 -0.06,0.84 0.09,1.25 0.15,-0.43 0.12,-0.84 -0.09,-1.25 z M 21.32,24.99 c -0.06,-0.03 -0.13,0.17 0.05,0.13 -0.01,-0.08 -0.02,-0.12 -0.05,-0.13 z m 14.70,12.61 c -0.07,0.60 0.05,1.20 0.04,1.81 -0.00,0.20 -0.18,0.43 0.05,0.62 0.19,-0.37 0.13,-0.85 0.12,-1.23 -0.01,-0.38 0.00,-0.85 -0.22,-1.21 z m -8.62,-7.32 c 0.06,0.06 0.12,0.14 0.19,0.17 -0.16,0.14 -0.30,-0.12 -0.38,-0.24 0.05,-0.04 0.12,0.00 0.19,0.06 z m 10.76,9.25 c -0.09,0.34 -0.24,0.68 -0.01,0.99 0.08,-0.33 0.00,-0.66 0.01,-0.99 z m -5.23,-4.40 c -0.02,0.83 -0.26,1.68 -0.12,2.50 0.18,-0.30 0.15,-0.78 0.18,-1.19 0.02,-0.44 0.09,-0.91 -0.05,-1.30 z m 2.76,2.36 c -0.21,0.01 -7.62e-4,0.15 -0.15,0.28 0.26,0.61 -0.23,1.28 0.05,1.90 0.19,-0.74 0.19,-1.46 0.09,-2.18 z m -2.36,-1.95 c -0.17,0.87 -0.22,1.74 -0.12,2.59 0.11,-0.87 0.26,-1.74 0.12,-2.59 z m 1.58,1.51 c -0.04,-0.03 -0.12,-0.04 -0.25,-0.02 -0.09,-0.08 0.04,-0.18 -0.11,-0.26 -0.14,0.73 -0.30,1.47 -0.19,2.19 0.36,-0.57 -0.05,-1.32 0.40,-1.75 0.06,0.25 -0.11,0.76 0.11,0.85 -0.12,-0.27 0.24,-0.85 0.03,-1.00 z m 0.41,0.37 c -0.15,0.37 -0.05,0.65 -0.06,0.95 -0.01,0.43 -0.28,0.91 -0.03,1.31 0.12,-0.30 0.13,-0.61 0.15,-0.96 0.03,-0.42 0.12,-0.98 -0.05,-1.31 z M 16.70,21.54 c 0.17,0.22 -0.20,0.49 -0.39,0.75 -0.11,-0.21 0.24,-0.65 0.39,-0.75 z m 17.07,14.65 c -0.24,0.47 0.01,0.89 -0.25,1.37 0.17,0.27 -0.12,0.58 0.02,0.86 0.14,-0.23 0.18,-0.61 0.23,-0.96 0.05,-0.36 0.02,-0.77 0.09,-1.09 -0.05,-0.05 -0.01,-0.11 -0.10,-0.16 z m -6.84,-5.80 c 0.87,0.74 1.10,1.61 1.42,2.49 -0.18,0.12 -0.11,-0.04 -0.28,-0.15 0.07,0.29 0.00,0.53 -0.30,0.74 -0.14,-0.59 -0.66,-1.11 -0.99,-1.69 -0.06,-0.11 -0.03,-0.25 -0.11,-0.35 -0.22,-0.29 -0.55,-0.42 -0.51,-0.77 0.15,-0.19 0.05,0.01 0.18,0.07 0.23,-0.25 0.13,-0.46 0.41,-0.48 0.06,0.04 0.12,0.09 0.18,0.14 z m -0.95,-0.71 0.09,0.08 -0.08,0.09 -0.09,-0.08 0.08,-0.09 z m 5.19,4.54 c -0.23,0.21 0.12,0.37 0.00,0.58 -0.02,0.28 -0.25,0.59 -0.06,0.87 0.21,-0.49 0.34,-0.99 0.06,-1.45 z m 6.17,5.37 c -0.13,0.25 -0.03,0.48 -0.03,0.72 0.06,-0.24 0.10,-0.49 0.03,-0.72 z M 16.74,21.99 c 0.11,0.20 -0.39,0.68 -0.48,0.75 -0.08,-0.19 0.36,-0.60 0.48,-0.75 z m 17.41,14.94 c -0.21,0.16 -0.09,0.52 -0.11,0.82 -0.02,0.31 -0.17,0.67 -0.06,0.96 0.18,-0.60 0.16,-1.19 0.18,-1.78 z m -8.23,-7.00 c 0.08,0.07 -0.06,0.16 -0.12,0.24 l -0.14,-0.12 c 0.06,-0.11 0.14,-0.09 0.21,-0.14 0.02,0.00 0.04,0.01 0.05,0.02 z m -0.93,-0.77 c 0.07,0.11 0.03,0.16 -0.07,0.18 l -0.09,-0.08 c 0.05,-0.09 0.11,-0.04 0.16,-0.10 z m 12.73,11.09 c -0.07,0.08 -0.07,0.15 -0.02,0.22 0.07,-0.08 0.07,-0.15 0.02,-0.22 z m -6.15,-5.19 c -0.15,0.34 -0.29,0.68 -0.18,1.01 0.27,-0.18 0.26,-0.70 0.18,-1.01 z m 5.48,4.70 c -0.16,0.20 -0.15,0.39 0.00,0.58 0.06,-0.20 0.13,-0.39 -0.00,-0.58 z M 16.77,22.43 c 0.03,0.51 0.37,1.00 0.65,1.49 l -0.33,0.38 c 0.25,0.02 0.26,0.06 0.15,0.30 0.09,0.09 0.17,-0.15 0.26,-0.20 0.05,0.13 -0.05,0.28 -0.19,0.42 -0.05,-0.01 -0.10,-0.02 -0.14,-0.02 0.04,0.50 0.43,-0.38 0.56,-0.37 0.05,0.17 0.14,0.35 0.04,0.54 -0.40,-0.15 -0.47,0.74 -0.93,0.20 l 0.32,-0.37 c -0.19,-0.00 -0.29,0.12 -0.49,-0.01 -0.43,-0.32 -0.40,-1.35 -0.45,-1.82 0.28,-0.02 0.25,-0.51 0.54,-0.54 z M 30.60,34.30 c -0.07,0.14 -0.25,0.29 -0.10,0.41 0.12,-0.01 0.23,-0.28 0.10,-0.41 z m 9.06,8.10 c 0.08,0.08 -0.11,0.18 -0.16,0.28 -0.09,-0.09 -4.6e-5,-0.20 0.11,-0.32 0.02,0.01 0.04,0.02 0.05,0.03 z m -4.95,-4.15 c 0.07,0.35 -0.23,0.74 0.08,1.08 0.08,-0.33 0.13,-0.91 -0.08,-1.08 z M 16.62,22.81 c -0.07,0.14 -0.25,0.29 -0.10,0.41 0.12,-0.14 0.25,-0.29 0.10,-0.41 z m 9.07,7.88 c -0.16,0.23 -0.50,-0.16 -0.38,-0.24 0.16,0.23 0.16,0.13 0.38,0.24 z m -0.90,-0.66 c 0.03,0.03 0.06,0.06 0.08,0.12 -0.15,-0.01 -0.30,-0.06 -0.45,-0.14 0.13,-0.05 0.27,-0.07 0.37,0.01 z M 22.46,28.07 c 0.39,0.28 -0.21,0.33 0,0 z m -4.20,-3.56 c 0.11,0.11 0.20,0.24 0.14,0.33 -0.03,-0.19 -0.39,-0.35 -0.44,-0.55 0.04,0.00 0.18,0.09 0.29,0.21 z m 5.03,4.36 c -0.20,0.07 -0.61,-0.11 -0.70,-0.35 0.22,-0.07 0.46,0.20 0.70,0.35 z m 0.98,0.86 c 0.04,0.03 0.09,0.09 0.13,0.18 -0.47,-0.17 -1.04,-0.11 -1.39,-0.43 0.23,-0.03 0.49,0.12 0.72,-0.06 0.20,0.23 0.38,0.19 0.53,0.31 z m -2.72,-2.27 c 0.09,0.35 -0.24,0.46 -0.47,0.85 -0.21,-0.10 0.28,-0.50 0.05,-0.45 -0.04,-0.19 0.31,-0.24 0.42,-0.39 z m 17.67,15.23 c 0.08,0.08 -0.11,0.28 -0.18,0.11 l 0.13,-0.15 c 0.02,0.00 0.04,0.02 0.05,0.03 z M 21.86,27.81 c 0.03,0.19 -0.18,0.40 -0.36,0.61 -0.08,-0.18 0.20,-0.40 0.36,-0.61 z m -5.81,-4.90 c -0.15,0.58 0.39,1.11 0.21,1.70 -0.22,-0.58 -0.30,-1.17 -0.40,-1.77 0.05,-0.05 0.12,0.03 0.18,0.07 z m 2.11,1.90 c 0.02,0.01 0.03,0.05 0.02,0.11 l -0.08,0.09 c -0.20,-0.11 -0.02,-0.24 0.05,-0.20 z m 0.21,0.18 c 0.04,0.07 0.04,0.14 -0.02,0.22 -0.20,-0.10 -0.09,-0.21 0.02,-0.22 z m 3.63,3.12 c 0.18,0.22 -0.34,0.69 -0.43,0.80 0.00,-0.25 0.15,-0.52 0.43,-0.80 z m 6.21,5.37 c 0.09,0.08 0.17,0.30 0.02,0.40 -0.17,-0.13 -0.02,-0.29 -0.12,-0.43 0.03,-0.00 0.06,0.00 0.10,0.03 z M 22.27,28.50 c 0.08,0.21 -0.26,0.89 -0.54,0.72 0.28,-0.23 0.28,-0.63 0.54,-0.72 z m -4.30,-3.52 c 0.11,0.08 0.12,0.17 0.02,0.27 l -0.14,-0.12 0.12,-0.14 z m 4.56,3.91 0.14,0.12 c -0.29,0.20 -0.31,0.62 -0.58,0.67 -0.13,-0.23 0.26,-0.69 0.43,-0.80 z m 5.29,4.62 c 0.14,0.15 0.09,0.32 0.17,0.48 -0.22,0.02 -0.22,-0.34 -0.17,-0.48 z m -9.51,-7.84 c 0.03,0.02 0.05,0.04 0.07,0.08 -0.09,0.11 -0.20,0.07 -0.29,0.25 -0.31,-0.15 0.00,-0.48 0.21,-0.34 z m 9.22,7.92 c 0.05,0.05 0.05,0.11 -0.00,0.17 l -0.14,-0.12 0.08,-0.09 c 0.02,0.01 0.05,0.03 0.06,0.04 z m 0.09,0.25 c 0.04,0.07 0.04,0.14 -0.02,0.22 -0.09,-0.05 -0.04,-0.11 -0.10,-0.16 0.04,-0.03 0.09,-0.00 0.13,-0.05 z m -8.62,-7.38 c 0.08,0.04 0.10,0.14 0.18,0.23 -0.08,0.05 -0.18,-0.08 -0.26,0.11 -0.09,-0.11 -0.20,-0.22 -0.02,-0.36 0.04,-0.00 0.07,0.00 0.10,0.01 z m -0.49,-0.34 c 0.13,0.09 0.19,0.19 0.07,0.31 -0.17,0.01 -0.26,-0.17 -0.07,-0.31 z m 9.16,8.03 c 0.04,0.02 0.07,0.08 0.07,0.14 -0.10,0.10 -0.22,8.83e-4 -0.23,-0.11 0.05,-0.05 0.11,-0.05 0.16,-0.02 z M 16.36,24.69 c 0.05,0.17 0.31,0.33 0.21,0.52 -0.18,-0.16 -0.27,-0.34 -0.21,-0.52 z m 4.69,4.07 c 0.05,0.05 0.10,0.10 0.11,0.13 -0.27,0.24 -0.38,-0.29 -0.61,-0.27 -0.01,-0.21 0.32,-0.02 0.50,0.13 z m 6.62,5.89 c 0.11,0.06 0.13,0.14 0.05,0.22 l -0.14,-0.12 0.08,-0.10 z m -5.42,-4.56 c -0.17,0.21 -0.38,0.12 -0.59,-0.00 0.05,-0.11 -0.06,-0.20 0.11,-0.32 0.16,0.16 0.32,0.26 0.47,0.32 z m -3.03,-2.58 c 0.07,0.03 0.10,0.11 -1.42e-4,0.23 -0.10,0.05 -0.23,-0.20 -0.33,-0.11 -0.04,-0.14 0.20,-0.18 0.33,-0.11 z m -0.57,-0.44 c 0.02,0.01 0.04,0.05 0.07,0.08 -0.54,0.29 -0.92,-0.51 -1.22,-0.63 0.41,-0.22 0.36,0.28 0.79,0.34 l -0.13,0.15 c 0.16,0.06 0.31,-0.08 0.48,0.05 z m 9.38,8.07 0.14,0.12 c 0.04,0.23 -0.41,0.75 -0.65,0.86 -0.18,-0.30 0.28,-0.65 0.50,-0.98 z m -9.17,-7.86 c 0.05,0.04 0.07,0.14 -0.02,0.22 l -0.19,-0.16 c 0.06,-0.10 0.16,-0.10 0.22,-0.05 z m -1.33,-0.99 c -0.07,0.04 -0.15,0.05 -0.23,-0.02 0.06,-0.12 0.15,-0.03 0.23,0.02 z m -0.96,-0.74 c 0.16,0.19 0.26,0.40 0.41,0.60 -0.22,0.11 -0.51,-0.40 -0.41,-0.60 z m 13.79,12.09 c 0.83,0.84 1.32,2.25 2.50,3.07 -0.30,0.30 -0.62,0.54 -0.70,0.92 -0.61,-0.29 -1.25,-1.05 -1.82,-1.81 0.27,-0.05 0.31,0.45 0.58,0.41 0.25,-0.29 -0.21,-0.52 -0.33,-0.78 0.21,-0.27 0.57,-0.56 0.34,-0.79 -0.31,0.11 -0.56,0.61 -0.74,0.87 -0.29,-0.30 -0.38,-0.63 -0.62,-0.95 0.16,-0.12 0.18,0.04 0.28,0.16 0.14,-0.17 -0.17,-0.32 -0.17,-0.48 0.20,-0.14 0.22,0.13 0.37,0.24 0.16,-0.19 -0.40,-0.33 -0.12,-0.53 0.17,0.09 0.06,0.20 0.24,0.29 0.06,-0.18 -0.02,-0.35 -0.21,-0.52 0.12,-0.16 0.27,0.10 0.39,-0.07 z m 1.98,2.10 c 0.02,0.02 0.05,0.04 0.08,0.08 -0.20,0.04 -0.25,-0.23 -0.08,-0.08 z m 3.98,3.60 c 0.05,0.13 -0.27,0.24 -0.40,0.07 0.11,-0.25 0.27,0.01 0.40,-0.07 z m -2.99,-2.30 c 0.05,0.04 0.07,0.14 -0.02,0.22 L 33.11,41.10 c 0.06,-0.10 0.15,-0.10 0.21,-0.05 z m -5.26,-4.45 0.09,0.08 c -0.06,0.12 -0.15,0.03 -0.23,-0.02 0.04,-0.03 0.09,-0.00 0.13,-0.05 z m 0.32,0.28 c 0.02,0.01 0.03,0.02 0.05,0.04 -0.12,-0.00 -0.23,0.15 -0.36,0.02 -0.01,-0.14 0.16,-0.17 0.30,-0.07 z m 4.51,3.87 c 0.11,0.06 0.09,0.14 0.15,0.21 -0.12,0.13 -0.33,-0.08 -0.15,-0.21 z m -4.32,-3.69 c 0.05,0.03 0.09,0.09 0.10,0.16 -0.13,-0.01 -0.26,0.05 -0.41,-0.10 0.07,-0.10 0.21,-0.12 0.30,-0.06 z m 7.18,6.24 c 0.10,0.09 0.00,0.21 -0.10,0.32 -0.24,-0.17 -0.06,-0.33 0.10,-0.32 z m -3.29,-2.73 c -0.07,0.05 -0.15,0.00 -0.22,0.05 -0.01,0.25 0.40,0.14 0.22,-0.05 z m -3.53,-2.95 c -0.09,0.14 -0.20,0.09 -0.32,-0.02 0.10,-0.03 0.20,-0.08 0.32,0.02 z M 27.18,36.10 c 0.09,0.05 0.04,0.30 0.26,0.30 -0.13,0.22 -0.29,0.08 -0.45,-0.05 0.07,-0.08 0.07,-0.15 0.02,-0.22 0.07,-0.03 0.13,-0.04 0.16,-0.02 z m 5.65,4.92 c 0.11,0.11 -0.04,0.24 -0.15,0.37 -0.21,-0.11 0.01,-0.36 0.15,-0.37 z m 0.30,0.28 c 0.03,0.03 0.04,0.07 0.03,0.09 -0.04,0.14 -0.27,-0.04 -0.14,-0.12 0.03,-0.02 0.07,-0.00 0.10,0.02 z m -4.13,-3.48 c 0.10,0.12 -0.16,0.18 -0.22,0.05 0.06,-0.13 0.15,0.01 0.22,-0.05 z m 0.15,0.21 c 0.00,0.21 0.05,0.26 0.16,0.39 -0.29,0.09 -0.11,-0.18 -0.39,-0.33 0.06,-0.13 0.15,0.01 0.22,-0.05 z m 0.85,1.75 0.09,0.08 c -0.06,0.12 -0.14,0.03 -0.22,-0.02 0.04,-0.03 0.09,-0.00 0.13,-0.05 z m 0.25,0.29 c 0.06,0.26 -0.34,-0.09 0,0 z m 2.76,2.36 c 0.06,0.24 0.09,0.17 0.34,0.29 -0.43,0.32 -0.40,-0.25 -0.79,-0.25 0.14,-0.08 0.30,-0.01 0.45,-0.04 z m -0.76,-0.47 c 0.05,0.03 0.06,0.11 -0.02,0.22 -0.13,-0.13 -0.24,-0.02 -0.37,-0.15 0.08,-0.10 0.30,-0.13 0.39,-0.06 z m -0.41,-0.22 c 0.01,0.01 0.03,0.03 0.04,0.06 -0.09,0.08 -0.20,0.04 -0.31,0.07 -0.07,-0.14 0.14,-0.24 0.26,-0.13 z" />
</svg>
