<?xml version="1.0" encoding="UTF-8" standalone="no"?>
<!-- Created with Inkscape (http://www.inkscape.org/) -->
<svg xmlns:dc="http://purl.org/dc/elements/1.1/" xmlns:cc="http://creativecommons.org/ns#" xmlns:rdf="http://www.w3.org/1999/02/22-rdf-syntax-ns#" xmlns:svg="http://www.w3.org/2000/svg" xmlns="http://www.w3.org/2000/svg" version="1.1" width="100%" height="100%" viewBox="0 0 48 48" id="svg2">
<defs id="defs13" />
<path d="m 9.12,42.59 c -0.12,-1.54 2.92,-2.41 4.09,-3.64 1.88,-1.31 3.77,-2.62 5.64,-3.95 -2.19,-0.11 -4.40,-0.04 -6.60,-0.06 C 9.36,36.94 6.50,38.98 3.58,40.95 2.03,39.29 5.95,38.49 6.84,37.27 7.94,36.50 9.04,35.73 10.13,34.96 7.52,34.93 4.90,34.92 2.29,34.87 1.66,33.19 2.13,31.17 1.98,29.35 1.98,25.72 1.98,22.08 1.98,18.44 3.33,17.47 5.14,17.27 6.67,16.64 19.64,12.43 32.60,8.22 45.60,4.10 c 0.82,1.57 0.18,3.91 0.37,5.79 -0.07,8.22 -0.01,16.44 -0.21,24.66 -1.78,0.70 -4.05,0.17 -6.03,0.35 -6.23,0.00 -12.47,0.00 -18.71,0.00 -3.84,2.67 -7.66,5.40 -11.55,8.02 -0.07,-0.10 -0.38,-0.20 -0.34,-0.36 z m 2.27,-8.50 c 0.56,-0.48 -2.07,-0.08 -2.35,-1.02 -0.35,-0.36 0.32,-1.54 -0.57,-1.28 -0.22,0.92 -1.18,2.56 -2.87,2.03 -1.77,0.07 -1.39,-1.81 -2.64,-2.13 -0.16,-1.10 1.37,-1.00 0.83,-2.36 0,-2.07 0,-4.14 0,-6.21 -1.59,-0.30 -0.14,-1.31 -0.01,-1.96 -0.40,-1.93 2.28,-2.55 3.62,-1.74 0.60,0.75 1.83,1.49 1.55,-0.06 -0.12,-1.84 3.07,-1.93 4.08,-0.87 0.62,1.23 1.31,0.01 1.00,-0.86 0.27,-1.25 2.31,-1.47 3.36,-0.97 0.68,0.65 1.99,1.65 1.72,-0.00 -0.36,-1.32 1.32,-1.85 2.38,-1.77 1.33,-0.55 2.22,2.35 2.70,0.95 0.11,-0.61 -0.24,-1.45 0.18,-1.91 1.14,-1.04 3.12,-1.00 4.15,0.17 -0.03,1.69 1.20,0.42 0.75,-0.56 -0.02,-0.77 -0.16,-1.67 0.82,-1.90 1.06,-0.63 3.62,-0.40 3.54,1.14 -0.10,1.57 1.16,0.46 0.71,-0.48 -0.45,-1.73 0.65,-3.43 2.60,-3.01 1.08,0.06 2.10,0.76 1.76,1.91 -0.17,1.79 1.17,0.77 0.71,-0.37 0,-0.97 0,-1.94 0,-2.92 1.16,-1.15 3.15,-1.23 4.33,-0.05 0.04,1.02 -0.01,2.06 0.13,3.08 1.51,0.81 -0.52,1.32 -0.06,2.40 -0.01,5.09 -0.02,10.18 -0.03,15.27 1.75,-0.00 0.53,1.41 0.03,1.75 -0.07,0.90 0.09,1.92 -0.12,2.75 -1.16,1.11 -3.18,1.02 -4.27,-0.14 0,-0.90 0,-1.80 0,-2.70 -0.98,-0.31 -0.69,0.64 -0.71,1.29 0.04,0.92 0.15,1.98 -1.07,2.16 -1.10,0.45 -3.53,0.13 -3.29,-1.43 0.43,-0.92 -0.59,-2.72 -0.71,-1.15 -0.10,0.65 0.23,1.53 -0.18,2.04 -1.12,1.05 -3.32,0.98 -4.18,-0.26 0,-0.71 0,-1.43 0,-2.14 -1.30,-0.15 -0.41,1.65 -0.80,2.34 -1.27,1.35 -3.40,0.75 -4.51,-0.15 -0.20,0.32 -2.62,1.41 -1.51,1.36 7.56,-0.00 15.12,0.06 22.68,-0.01 0.11,-9.79 0.17,-19.58 0.18,-29.38 C 31.13,9.36 16.93,13.92 2.75,18.52 2.49,22.25 2.69,26.02 2.63,29.77 c 0.40,1.60 -1.12,5.17 1.60,4.50 2.28,0.01 4.56,0.00 6.85,0.01 0.09,-0.06 0.20,-0.13 0.29,-0.19 z m 8.81,-0.02 c 0.55,-0.59 -1.80,-0.88 -1.08,-2.17 0.40,-0.83 -1.10,-0.87 -0.71,-0.02 0.29,1.05 -0.46,1.76 -1.50,1.92 -1.07,0.58 -2.16,-0.93 -2.99,9.1e-5 -1.43,0.95 2.19,0.30 2.99,0.50 1.01,-0.04 2.08,0.08 3.06,-0.06 0.08,-0.05 0.16,-0.10 0.24,-0.15 z M 6.79,32.92 C 8.01,32.80 7.57,31.63 7.64,30.81 7.63,27.34 7.62,23.88 7.61,20.41 6.78,19.68 4.62,19.53 4.38,20.76 4.37,24.64 4.36,28.52 4.35,32.39 c 0.60,0.64 1.62,0.80 2.44,0.53 z M 5.46,31.74 C 4.62,29.51 7.96,31.51 5.72,31.90 L 5.46,31.74 z m 0.54,-0.46 c -0.26,-0.50 -0.22,0.48 0,0 z M 5.66,22.31 C 4.16,21.01 7.47,20.59 6.32,22.22 6.15,22.38 5.88,22.41 5.66,22.31 z m 0.34,-0.73 c -0.51,-0.17 0.01,0.76 0,0 z m 5.67,11.37 c 1.28,-0.04 1.00,-1.17 1.01,-2.03 0.01,-3.88 0.02,-7.76 0.03,-11.64 -0.71,-0.98 -3.46,-0.99 -3.29,0.54 0,4.19 0,8.39 0,12.59 0.63,0.50 1.44,0.79 2.25,0.54 z m -1.13,-1.54 c -0.61,-2.90 2.84,0.67 0,0 z m 0.57,-0.35 c 0.01,-0.64 -0.55,0.36 0,0 z m -0.43,-9.94 c -1.62,-0.80 1.14,-2.14 0.69,-0.35 -0.09,0.27 -0.41,0.43 -0.69,0.35 z m 0.25,-0.65 c -0.26,-0.50 -0.22,0.48 0,0 z m 6.23,12.34 c 1.08,-0.39 0.78,-2.55 -0.25,-1.13 -0.54,0.38 -1.09,0.76 -1.63,1.14 0.58,0.28 1.30,0.19 1.89,-0.01 z m 5.17,-0.24 c 0.87,-0.26 0.47,-1.21 0.55,-1.90 -0.19,-0.93 0.62,-3.99 -0.85,-2.57 -0.81,0.57 -1.62,1.14 -2.44,1.71 0.06,0.85 -0.13,1.85 0.09,2.62 0.76,0.58 1.84,0.84 2.64,0.14 z m -1.55,-1.71 c -0.90,-1.73 2.25,-0.88 0.69,0.18 -0.23,0.10 -0.53,0.01 -0.69,-0.18 z m 0.59,-0.44 c -0.52,0.05 -0.07,-0.04 0,0 z m 5.98,2.32 c 1.24,-0.46 0.99,-3.90 -0.48,-1.88 -0.88,0.61 -3.28,1.79 -0.80,2.06 0.43,0.01 0.88,0.01 1.29,-0.17 z m 4.96,-0.01 c 1.19,-0.18 0.73,-1.35 0.81,-2.17 -0.00,-1.35 -0.01,-2.70 -0.02,-4.06 -1.08,0.75 -2.17,1.51 -3.26,2.26 -4.33e-4,1.17 -8.67e-4,2.34 -0.00,3.52 0.67,0.58 1.64,0.76 2.47,0.44 z M 31.23,30.58 c -1.58,-1.06 1.42,-1.97 0.69,-0.27 -0.16,0.19 -0.43,0.35 -0.69,0.27 z m 0.28,-0.67 c -0.27,-0.50 -0.17,0.63 0,0 z m 5.98,2.71 c 1.13,-0.19 0.65,-1.34 0.75,-2.12 -0.00,-1.72 0.03,-3.45 -0.05,-5.17 -1.34,1.26 -3.86,-1.34 -3.22,1.33 -0.01,1.84 -0.00,3.69 -0.01,5.54 0.71,0.58 1.67,0.78 2.54,0.42 z m -1.37,-2.39 c -1.26,-1.58 2.07,-1.34 0.64,0.03 l -0.31,0.07 -0.32,-0.10 -9e-6,0 z m 0.45,-0.50 c -0.06,-0.56 -0.41,0.35 0,0 z m 6.03,2.83 c 1.11,-0.18 0.63,-1.31 0.73,-2.08 -0.02,-7.19 0.05,-14.38 -0.05,-21.57 -0.35,-1.25 -3.57,-1.19 -3.24,0.43 0.02,7.51 -0.05,15.03 0.05,22.54 0.18,0.95 1.78,0.98 2.51,0.67 z m -1.37,-2.75 c -0.89,-2.17 2.51,-0.32 0.28,0.16 l -0.28,-0.16 0,0 z m 0.52,-0.46 c -0.24,-0.50 -0.20,0.46 0,0 z M 41.51,12.70 c -1.47,-1.17 1.57,-1.82 0.72,-0.18 -0.17,0.19 -0.47,0.33 -0.72,0.18 z m 0.35,-0.55 c -0.04,-0.61 -0.51,0.28 0,0 z M 13.83,32.39 c 0.69,-1.45 -1.09,-0.81 -0.51,0.33 0.17,-0.11 0.34,-0.22 0.51,-0.33 z m 1.21,-0.85 c 0.61,-0.67 0.61,-1.70 1.76,-1.23 0.58,-0.37 1.28,-0.69 1.01,-1.52 -0.01,-3.67 -0.02,-7.34 -0.03,-11.01 -0.90,-0.66 -2.84,-0.83 -3.26,0.34 0.01,4.57 -0.03,9.15 0.05,13.73 l 0.15,-0.09 0.30,-0.20 -1.03e-4,5.5e-5 z m 0.67,-11.94 c -1.12,-1.66 2.14,-1.18 0.65,0.08 -0.20,0.12 -0.47,0.06 -0.65,-0.08 z m 0.51,-0.52 c -0.52,0.05 -0.07,-0.04 0,0 z m 7.65,12.42 c 0.91,-0.68 -1.02,-0.72 -0.35,0.21 l 0.35,-0.21 7e-6,0 z M 16.12,30.73 c -0.18,-0.30 -0.40,0.43 0,0 z m 9.11,-0.19 c 0.46,-1.31 2.57,-1.02 2.83,-2.34 0,-1.43 0,-2.87 0,-4.31 -1.05,1.04 -3.29,1.48 -3.35,3.10 0.12,1.11 -0.29,3.13 0.20,3.76 l 0.31,-0.21 6.2e-5,2.82e-4 z M 8.82,30.37 c 0.23,-2.87 0.06,-5.79 0.11,-8.68 -1.03,-0.06 -0.59,1.02 -0.68,1.69 -0.01,2.34 -0.02,4.68 -0.03,7.03 0.20,-0.00 0.40,0.01 0.60,-0.04 z m 5.20,-5.14 c 0,-1.63 0,-3.26 0,-4.90 -1.03,-0.06 -0.59,1.02 -0.68,1.69 -0.01,2.70 -0.02,5.40 -0.03,8.10 0.98,0.31 0.69,-0.64 0.71,-1.29 6e-6,-1.20 -1.2e-5,-2.40 9e-6,-3.61 z m 10.09,4.33 c 0.46,-1.02 -0.16,-4.09 -0.62,-2.01 0.07,0.65 -0.15,1.66 0.11,2.08 0.16,-0.02 0.33,-0.05 0.51,-0.07 z m 5.17,-0.28 c -0.16,-0.24 -0.26,0.27 0,0 z M 19.12,23.82 c 0,-1.62 0,-3.24 0,-4.86 -1.03,-0.06 -0.59,1.02 -0.68,1.69 -0.01,2.84 -0.02,5.69 -0.03,8.53 0.84,-0.29 0.76,-1.06 0.71,-1.80 -6e-6,-1.18 1.2e-5,-2.38 -9e-6,-3.56 z m 15.26,3.50 c -0.13,-0.52 0.38,-2.27 -0.51,-1.39 -0.41,0.94 -0.10,2.08 -0.20,3.12 0.98,0.31 0.69,-0.64 0.71,-1.29 1.8e-5,-0.14 -3.7e-5,-0.29 3e-5,-0.43 z m 5.08,-1.02 c -0.00,-0.81 -0.00,-1.63 -0.00,-2.44 -0.58,0.71 -0.85,1.46 -0.71,2.38 -0.11,0.83 -0.02,3.48 0.71,2.15 -8.77e-4,-0.69 -0.00,-1.39 -0.00,-2.09 z m -18.11,0.81 c 0.45,-0.47 1.42,-0.68 1.55,-1.32 0,-3.16 0,-6.32 0,-9.48 -0.82,-0.78 -3.09,-0.90 -3.29,0.40 0.03,3.84 -0.08,7.69 0.08,11.52 0.56,-0.35 1.10,-0.74 1.64,-1.12 z m -0.49,-8.81 c -1.53,-1.40 1.92,-1.62 0.57,-0.06 l -0.33,0.12 -0.24,-0.06 3e-6,-1.1e-5 z m 0.35,-0.55 c -0.04,-0.61 -0.51,0.28 0,0 z m 8.05,7.66 c 0.38,-1.14 -0.44,-3.28 -0.69,-1.32 -8.75e-4,1.37 -0.00,2.74 -0.00,4.12 0.82,-0.28 0.71,-1.05 0.69,-1.78 0.00,-0.33 0.00,-0.67 0.00,-1.01 z m 2.06,0.85 c 0.91,-0.64 2.22,-1.12 1.82,-2.45 0.43,-2.30 -1.91,0.89 -3.23,-0.32 -0.13,0.51 -0.02,1.46 -0.05,2.14 -0.24,1.37 0.14,1.96 1.20,0.81 l 0.26,-0.18 1.6e-5,-1e-6 z m -7.13,-4.89 c 4.33e-4,-1.25 8.67e-4,-2.51 0.00,-3.77 -1.03,-0.06 -0.59,1.02 -0.68,1.69 -0.01,2.10 -0.01,4.21 -0.02,6.31 0.86,-0.24 0.74,-1.02 0.71,-1.75 2.65e-4,-0.82 6.1e-4,-1.65 8.25e-4,-2.48 z m 13.53,3.58 c 2.35,-0.88 1.07,-4.78 -1.38,-3.71 -2.63,0.77 -1.22,5.06 1.38,3.71 l 4.5e-5,-6.5e-5 z m -11.44,-1.29 c 1.03,-0.61 2.16,-1.24 1.77,-2.59 0,-2.11 0,-4.23 0,-6.34 -0.79,-0.93 -3.50,-0.98 -3.36,0.58 0.01,3.12 -0.05,6.24 0.06,9.37 0.52,-0.30 1.01,-0.67 1.52,-1.01 z M 25.83,16.82 c -0.96,-1.83 2.25,-0.88 0.62,0.15 -0.21,0.07 -0.46,0.00 -0.62,-0.15 z m 0.56,-0.46 c -0.34,-0.53 -0.28,0.54 0,0 z m 7.82,7.89 c 0.31,-1.92 0.09,-3.95 0.17,-5.92 0.00,-1.15 0.00,-2.30 0.01,-3.46 -0.94,-0.06 -0.66,0.81 -0.69,1.46 -0.00,2.75 -0.01,5.51 -0.02,8.27 0.17,-0.11 0.36,-0.23 0.53,-0.35 z m -2.36,-1.33 c 2.63,-0.93 0.83,-5.03 -1.59,-3.60 -2.39,1.09 -0.94,4.79 1.59,3.60 z m 7.63,-5.15 c 0,-1.41 0,-2.83 0,-4.25 -1.03,-0.06 -0.59,1.02 -0.68,1.69 -0.00,1.94 -0.01,3.89 -0.02,5.84 1.35,2.28 0.43,-2.29 0.71,-3.29 l -1.3e-5,-4.9e-5 z m -3.54,3.06 c 0.94,-0.76 2.83,0.67 2.32,-1.13 -8.5e-5,-2.93 -1.7e-4,-5.87 -2.55e-4,-8.81 -0.80,-0.81 -3.06,-0.96 -3.29,0.31 0,3.44 0,6.89 0,10.34 0.29,-0.27 0.60,-0.53 0.97,-0.70 z m 0.24,-6.90 c -1.02,-1.69 2.25,-0.98 0.61,0.17 l -0.31,0.00 -0.30,-0.17 -5e-6,0 z m 0.53,-0.39 c -0.12,-0.86 -0.40,0.54 0,0 z m -7.63,6.03 c 0.46,-0.56 0.11,-1.44 0.22,-2.15 0.23,-0.74 -0.20,-1.71 -0.68,-0.78 0.01,1.20 -0.08,2.42 0.02,3.61 0.13,-0.23 0.24,-0.48 0.43,-0.68 z m 3.95,-6.76 c -1.69,-1.47 -3.97,0.07 -3.15,2.20 0.35,1.31 -0.97,4.67 1.30,3.50 1.32,0.11 2.32,1.43 1.96,-0.53 -0.04,-1.72 0.16,-3.50 -0.11,-5.18 z m -1.72,2.71 c -1.70,-1.18 1.74,-1.89 0.53,-0.11 l -0.25,0.13 -0.27,-0.01 0,-7e-6 z m 0.27,-0.64 c -0.24,-0.47 -0.19,0.41 0,0 z" />
</svg>
