<?xml version="1.0" encoding="UTF-8" standalone="no"?>
<!-- Created with Inkscape (http://www.inkscape.org/) -->
<svg xmlns:dc="http://purl.org/dc/elements/1.1/" xmlns:cc="http://creativecommons.org/ns#" xmlns:rdf="http://www.w3.org/1999/02/22-rdf-syntax-ns#" xmlns:svg="http://www.w3.org/2000/svg" xmlns="http://www.w3.org/2000/svg" version="1.1" width="100%" height="100%" viewBox="0 0 48 48" id="pigeon_x26_crow_xA0_Image_1_" xml:space="preserve">
<defs id="defs25" />
<path d="m 45.26,10.56 c -0.78,-0.01 -0.83,0.88 -1.17,1.35 -0.24,0.34 -0.62,0.65 -0.89,1.00 -0.45,0.59 -0.86,1.16 -1.22,1.67 -0.43,0.59 -0.87,1.20 -1.12,1.89 -1.11,1.31 -1.69,2.91 -2.79,4.24 -1.07,1.29 -1.95,2.72 -2.90,4.13 -0.83,-1.28 -1.60,-2.97 -2.67,-3.79 -0.39,-0.30 -0.74,-0.64 -1.11,-0.89 -0.48,-0.32 -1.34,-0.39 -1.56,-1.11 0.49,0.01 0.69,-0.27 1.11,-0.33 0.08,-0.36 0.23,-0.66 0.44,-0.89 0.53,0.01 0.57,-0.46 1.11,-0.44 0.14,-0.78 0.75,-0.93 1.00,-1.45 -0.02,0.04 -0.25,-0.19 -0.22,-0.33 0.04,-0.19 0.48,-0.15 0.44,-0.33 0.08,-0.38 -0.40,-0.18 -0.44,-0.44 0.28,-0.27 0.73,-0.37 0.66,-1.00 -0.57,0.00 -0.81,0.23 -0.89,-0.33 -0.90,0.50 -1.43,1.39 -2.11,2.12 -1.36,0.64 -2.55,1.47 -4.13,1.89 -0.48,-0.26 -0.68,-0.80 -1.45,-0.78 -1.20,-0.76 -2.21,-1.73 -3.79,-2.12 -0.04,1.36 1.11,2.44 2.45,2.79 -0.48,0.80 1.03,1.28 1.22,2.12 -0.83,1.93 -2.01,3.49 -4.01,4.24 -1.27,0.47 -2.52,0.58 -3.68,0.67 C 17.02,23.94 16.63,23.36 15.72,23.31 14.78,22.36 13.83,21.28 12.26,21.07 11.18,20.93 10.63,20.59 9.80,20.40 c -0.22,-0.05 -0.48,0.06 -0.67,0 C 8.01,20.03 7.26,19.14 6.22,18.95 5.65,18.29 5.00,17.71 3.88,17.61 c -0.05,0.32 0.46,0.64 0.22,0.78 -0.40,-0.18 -0.54,-0.64 -1.11,-0.67 -0.43,0.09 -0.14,0.38 -0.33,0.55 -1.62,0.39 -0.07,1.92 0.67,2.23 -0.09,0.19 -0.49,0.18 -0.22,0.44 0.40,0.44 1.22,0.47 1.71,0.83 -0.15,-0.08 -0.36,-0.06 -0.48,0.05 0.19,0.54 0.89,0.94 1.45,0.77 0.56,0.73 1.67,0.92 3.01,0.89 0.37,0.25 0.85,0.40 1.56,0.33 1.29,0.90 2.78,1.61 3.79,2.79 -0.57,0.76 -1.05,1.62 -2.12,1.89 -0.66,1.00 -1.81,1.53 -3.01,2.00 -0.09,0.36 -0.81,0.52 -0.56,0.89 0.53,0.29 0.71,-0.26 1.34,0 -0.12,0.16 -0.12,0.28 0,0.44 1.26,0.25 1.24,-0.96 2.34,-0.56 0.28,-0.19 0.47,-0.48 0.77,-0.66 0.02,0.19 0.19,0.25 0.44,0.22 0.31,-0.02 0.13,-0.53 0.55,-0.44 0.26,0.03 0.20,0.39 0.56,0.33 0.13,-0.20 0.29,-0.38 0.44,-0.56 0.28,0.44 1.09,0.49 1.56,0.44 0.34,-0.21 -0.25,-0.69 0.11,-0.89 0.60,-0.08 0.81,0.22 1.22,0.33 1.29,-0.85 2.79,-1.36 4.13,-1.89 1.19,0.62 1.41,2.23 1.89,3.57 1.00,-0.08 0.73,-1.08 0.89,-2.01 0.14,-0.81 0.77,-1.50 0.56,-2.23 -0.34,-0.22 -0.22,-0.57 -0.44,-0.89 -0.25,-0.36 -0.72,-0.42 -0.78,-0.89 -0.07,-0.67 0.35,-0.80 0.56,-1.11 0.12,-0.18 0.24,-0.19 0.33,-0.33 0.28,-0.43 0.43,-1.26 0.78,-1.78 0.38,-0.57 0.90,-0.89 1.22,-1.11 0.31,0.24 0.55,0.56 0.89,0.78 0.57,2.24 1.93,3.72 2.79,5.69 -2.02,1.88 -4.32,3.49 -6.25,5.47 0.03,0.22 0.41,0.10 0.44,0.33 0.58,-0.49 1.60,0.06 1.89,-0.77 0.29,0.71 0.84,0.03 1.22,-0.11 0.93,0.73 1.21,-0.68 2.23,-0.33 0.25,-0.30 0.38,-0.72 0.33,-1.33 -0.49,0.13 -0.38,1.68 -1.11,0.89 0.09,-0.31 0.36,-0.45 0.33,-0.89 -0.71,0.32 -0.57,1.51 -1.45,1.67 -0.07,-0.78 0.41,-0.99 0.56,-1.56 -0.67,-0.08 -0.34,0.84 -1.00,0.78 -0.01,-0.27 0.17,-0.34 0.22,-0.56 -0.47,0.05 -0.49,0.54 -0.78,0.78 -0.68,-0.09 -0.81,1.32 -1.33,0.67 0.46,-0.39 1.34,-0.96 1.33,-1.45 -0.51,0.44 -1.22,1.31 -1.78,1.34 1.73,-1.65 3.68,-3.09 5.47,-4.69 0.23,0.25 0.92,0.96 1.22,0.44 -0.24,-0.27 -0.82,-0.22 -0.89,-0.67 0.35,-0.05 0.68,-0.13 0.78,-0.44 -0.18,-0.29 -1.04,0.50 -1.22,-0.11 0.01,-0.47 0.85,-0.10 0.89,-0.56 -0.29,-0.31 -1.02,0.56 -1.22,0 0.15,-0.33 0.95,-0.01 0.89,-0.55 -0.33,-0.25 -0.55,0.35 -1.11,0.22 0.04,-0.26 -0.20,-0.24 -0.11,-0.56 0.43,-0.04 0.92,-0.04 1.00,-0.44 -0.25,-0.35 -1.14,0.65 -1.33,0 0.20,-0.37 0.79,0.06 1.00,-0.44 -0.32,-0.34 -1.23,0.35 -1.45,-0.22 -0.03,-0.29 0.43,-0.08 0.33,-0.44 -0.32,-0.34 -0.76,-0.57 -1.00,-1.00 0.45,-0.49 2.16,0.63 2.56,-0.22 -0.43,-0.13 -0.85,0.12 -1.00,-0.44 0.21,-0.04 0.67,0.15 0.56,-0.22 -1.56,0.16 -3.02,-0.17 -3.57,-1.33 1.04,0.25 1.60,1.00 2.68,1.22 -0.98,-1.18 -2.57,-1.07 -3.68,-2.12 0.30,-0.70 -1.06,-0.62 -1.11,-1.33 1.42,0.51 2.87,1.59 4.24,1.78 -0.78,-0.41 -1.75,-0.81 -2.67,-1.22 -0.88,-0.39 -1.93,-0.76 -2.23,-1.45 0.72,-0.02 0.78,0.62 1.56,0.56 0.37,0.45 1.14,0.69 1.78,1.00 0.58,0.27 1.29,0.91 1.78,0.55 -1.00,-0.33 -2.44,-0.83 -2.79,-1.45 1.02,0.30 1.52,0.70 1.78,0.78 0.64,0.18 0.31,0.06 0,-0.11 -0.08,-0.04 -0.47,-0.23 -0.89,-0.44 -1.61,-0.81 -3.24,-1.98 -4.80,-2.67 -0.10,-0.34 -0.54,-0.35 -0.55,-0.78 0.84,0.46 1.72,0.87 2.45,1.45 0.13,0.16 0.38,0.21 0.67,0.22 1.05,0.95 2.49,1.16 3.57,2.01 0.22,0.17 0.32,0.50 0.55,0.67 0.85,0.61 1.81,0.92 2.57,1.67 1.11,1.09 1.79,2.35 2.67,3.79 0.20,0.46 0.13,1.20 0.89,1.11 0.04,-0.68 -0.43,-0.83 -0.56,-1.33 1.50,-1.14 2.14,-3.14 3.46,-4.46 0.19,0.00 0.34,-0.02 0.44,-0.11 0.35,-1.18 1.06,-2.21 1.67,-3.23 0.46,-0.78 0.86,-1.56 1.34,-2.23 0.16,-0.22 0.43,-0.92 0.89,-0.67 -1.24,1.70 -1.80,3.93 -2.56,6.02 -0.69,1.92 -1.93,3.56 -3.01,5.02 -0.65,0.10 -1.29,-0.49 -1.67,0 1.04,0.25 2.20,0.72 3.12,1.00 0.16,0.05 0.39,-0.05 0.55,0 0.16,0.05 0.29,0.29 0.44,0.33 0.87,0.23 2.51,-0.00 2.12,1.33 -0.19,-0.24 -0.55,-0.25 -0.78,0 0.13,-0.03 0.38,0.32 0.11,0.33 -1.66,-0.20 -2.47,1.55 -4.13,1.78 -0.46,0.06 -0.96,-0.05 -1.45,0 -0.71,0.08 -1.40,0.47 -2.12,0.56 -1.67,0.20 -2.20,-0.73 -3.46,-0.56 -0.07,0.44 0.42,0.32 0.78,0.33 0.01,0.30 -0.18,0.22 0,0.44 1.21,-0.06 2.24,0.05 2.45,1.00 -0.35,-0.05 -0.25,0.34 -0.67,0.22 -0.02,-0.45 -0.23,-0.73 -0.44,-1.00 -0.36,0.27 0.41,0.69 0,1.00 -0.54,-0.09 -0.52,-0.74 -0.89,-1.00 -0.28,0.21 0.25,0.56 0.11,1.00 -0.46,0.08 -0.57,-0.17 -1.00,-0.11 0.72,1.24 1.81,0.27 3.35,0.33 0.47,-0.64 -0.61,-0.80 -0.33,-1.22 0.77,-0.11 1.42,-0.34 2.12,-0.44 0.63,-0.08 1.38,0.07 2.01,-0.11 0.53,-0.15 0.74,-0.51 1.11,-0.78 0.98,-0.71 2.19,-1.44 3.80,-0.95 -0.02,-0.40 0.12,-0.58 0.10,-0.94 -0.10,-1.97 -3.15,-1.48 -4.46,-2.45 0.38,-0.47 0.48,-1.16 0.78,-1.67 0.46,-0.78 1.17,-1.28 1.45,-2.00 0.63,-1.65 1.10,-3.30 1.67,-4.69 0.17,-0.43 0.27,-0.89 0.44,-1.22 0.07,-0.15 0.35,-0.19 0.44,-0.33 0.30,-0.45 0.28,-1.22 0.89,-1.45 0.14,-1.43 1.90,-1.79 1.45,-3.46 -0.05,-0.00 -0.11,-0.01 -0.16,-0.01 z m -22.28,5.82 c 1.53,0.36 2.16,1.63 3.68,2.01 -0.30,0.36 -0.81,-0.20 -1.11,-0.33 -0.19,-0.08 -0.47,-0.00 -0.67,-0.11 -0.31,-0.16 -0.67,-0.54 -1.00,-0.78 -0.35,-0.25 -0.67,-0.49 -0.89,-0.77 z m 3.79,3.68 c 0.40,0.62 1.25,0.60 1.89,0.89 0.67,0.30 1.15,0.86 1.78,1.11 0.10,-0.37 -0.61,-0.48 -0.33,-0.67 0.75,-0.37 1.35,0.37 1.56,1.00 0.07,0.21 -0.22,0.67 0.22,0.67 0.39,-0.03 -0.27,-0.41 0.11,-0.44 0.38,0.58 0.88,1.05 1.33,1.56 0.25,0.41 0.54,1.38 1.11,1.11 -0.58,-1.19 -1.42,-2.14 -2.34,-3.01 -0.75,-1.93 -3.85,-0.96 -5.36,-2.23 z m 1.56,2.23 c 0.44,0.33 1.34,0.22 1.78,0.56 -0.51,0.17 -1.75,0.11 -1.78,-0.56 z m 5.92,3.23 c 0.09,0.50 0.29,0.89 0.77,1.00 -0.09,-0.50 -0.29,-0.89 -0.77,-1.00 z m 5.02,1.33 c -0.00,0.22 -0.30,0.14 -0.22,0.44 l 0.44,0 c 0.03,-0.25 -0.02,-0.42 -0.22,-0.44 z m 1.32,0.54 c -0.02,0.00 -0.06,0.00 -0.09,0.01 -0.26,0.37 0.22,0.72 0.56,0.44 l 0,-0.33 C 40.96,27.47 40.82,27.41 40.61,27.43 z m -3.83,0.22 c -0.01,0.00 -0.03,0.00 -0.05,0.01 -0.17,0.32 0.00,0.35 -0.11,0.78 0.41,0.04 0.46,-0.27 0.55,-0.56 -0.20,-0.00 -0.14,-0.26 -0.39,-0.23 z m -3.27,0.02 c -0.57,-0.00 -1.18,0.27 -1.24,0.77 0.38,0.18 0.88,-0.27 1.33,-0.44 0.18,-0.06 0.52,0.18 0.44,-0.22 -0.16,-0.06 -0.34,-0.10 -0.53,-0.10 z m -5.82,4.57 c 0.01,0.42 -0.22,0.60 -0.56,0.67 -0.01,-0.42 0.22,-0.60 0.56,-0.67 z" />
</svg>
