<?xml version="1.0" encoding="UTF-8" standalone="no"?>
<!-- Created with Inkscape (http://www.inkscape.org/) -->
<svg xmlns:dc="http://purl.org/dc/elements/1.1/" xmlns:cc="http://creativecommons.org/ns#" xmlns:rdf="http://www.w3.org/1999/02/22-rdf-syntax-ns#" xmlns:svg="http://www.w3.org/2000/svg" xmlns="http://www.w3.org/2000/svg" version="1.1" width="100%" height="100%" viewBox="0 0 48 48" id="svg2">
<defs id="defs12" />
<path d="m 40.44,14.68 c 1.15,0.33 2.55,1.56 2.72,2.39 0.16,0.82 0.02,1.71 -0.37,2.37 -0.27,0.44 -0.35,0.71 -0.30,0.92 0.04,0.16 0.49,0.74 0.99,1.27 0.98,1.05 1.38,1.71 1.52,2.48 0.13,0.73 -0.32,1.68 -1.10,2.29 -0.92,0.72 -1.78,0.98 -3.09,0.94 -1.54,-0.04 -3.04,-0.57 -4.96,-1.74 l -0.93,-0.57 -2.58,0.47 c -2.39,0.44 -3.48,0.65 -7.04,1.36 -3.74,0.75 -12.91,2.97 -13.22,3.20 -0.07,0.05 -0.22,0.39 -0.31,0.74 C 11.20,32.83 8.63,35.09 6.72,35.25 5.51,35.35 4.47,34.74 3.73,33.50 3.45,33.01 3.39,32.76 3.33,31.71 3.27,30.82 3.30,30.29 3.45,29.73 L 3.64,28.95 3.25,28.46 c -1.68,-2.14 -1.36,-4.35 0.76,-5.40 0.39,-0.19 0.71,-0.24 1.41,-0.21 1.18,0.04 1.71,0.21 3.43,1.08 l 1.42,0.72 2.77,-0.41 c 1.52,-0.22 3.45,-0.53 4.28,-0.67 1.38,-0.23 2.32,-0.40 7.13,-1.29 0.89,-0.16 3.40,-0.68 5.57,-1.15 3.90,-0.84 3.94,-0.86 4.35,-1.29 0.23,-0.25 0.57,-0.86 0.79,-1.46 0.67,-1.80 1.57,-2.96 2.68,-3.47 0.59,-0.27 1.88,-0.35 2.53,-0.16 z m -2.40,0.96 c -0.95,0.54 -1.75,1.74 -2.37,3.59 -0.22,0.66 -0.75,1.32 -1.26,1.58 -0.42,0.20 -4.89,1.22 -7.05,1.60 -0.86,0.15 -1.60,0.29 -1.64,0.31 -0.13,0.07 -3.83,0.77 -6.33,1.19 -1.33,0.22 -2.66,0.45 -2.96,0.51 -1.12,0.21 -5.85,0.91 -6.12,0.90 -0.15,-0.00 -0.82,-0.29 -1.48,-0.65 -1.46,-0.78 -2.41,-1.09 -3.39,-1.13 -0.84,-0.02 -1.27,0.14 -1.83,0.72 -1.11,1.16 -0.88,2.45 0.79,4.34 0.59,0.66 0.66,0.80 0.67,1.30 0.01,0.67 -0.20,0.76 -0.23,0.09 -0.02,-0.48 -0.21,-0.79 -0.42,-0.66 -0.38,0.23 -0.47,2.65 -0.12,3.47 0.63,1.47 2.04,1.96 3.57,1.24 1.09,-0.52 2.32,-1.71 2.81,-2.72 0.22,-0.45 0.43,-1.05 0.47,-1.31 0.03,-0.26 0.13,-0.53 0.21,-0.59 0.20,-0.15 7.07,-1.84 11.26,-2.77 3.75,-0.82 10.11,-2.07 11.64,-2.29 0.83,-0.11 0.89,-0.10 1.33,0.17 0.96,0.60 2.94,1.57 3.66,1.78 2.91,0.84 5.65,-0.72 4.84,-2.76 -0.06,-0.17 -0.54,-0.77 -1.04,-1.32 -0.50,-0.55 -0.96,-1.12 -1.01,-1.26 -0.14,-0.43 -0.36,-0.21 -0.39,0.39 -0.02,0.59 -0.17,0.74 -0.32,0.31 -0.13,-0.41 0.14,-1.61 0.49,-2.12 0.55,-0.80 0.71,-1.22 0.69,-1.84 -0.01,-0.91 -0.48,-1.47 -1.76,-2.12 -0.85,-0.43 -1.89,-0.42 -2.69,0.02 z" />
</svg>
