<?xml version="1.0" encoding="UTF-8" standalone="no"?>
<!-- Created with Inkscape (http://www.inkscape.org/) -->
<svg xmlns:dc="http://purl.org/dc/elements/1.1/" xmlns:cc="http://creativecommons.org/ns#" xmlns:rdf="http://www.w3.org/1999/02/22-rdf-syntax-ns#" xmlns:svg="http://www.w3.org/2000/svg" xmlns="http://www.w3.org/2000/svg" version="1.0" width="100%" height="100%" viewBox="0 0 48 48" id="svg2">
<defs id="defs9" />
<path d="M 7.13,4.88 C 5.34,5.40 3.89,6.54 4.48,8.75 4.78,9.87 4.46,10.39 3.98,8.99 c -1.19,-1.67 -0.38,2.74 0.24,3.31 1.42,1.06 -0.74,4.06 -0.51,4.32 0.73,-0.60 1.20,-2.66 1.56,-2.44 -0.04,0.68 -0.39,2.81 -0.34,2.01 -1.22,0.18 -1.41,2.33 -2.72,2.11 0.67,-0.08 -0.21,-0.37 0.86,-1.00 0.74,-0.82 -2.31,1.59 -1.09,2.54 1.65,1.22 3.49,-1.17 5.43,-0.53 1.32,0.93 1.26,3.31 3.04,3.73 0.43,1.07 2.32,2.32 3.58,3.10 1.11,0.14 2.65,0.17 3.50,1.23 0.01,1.69 -0.57,3.55 -1.41,5.08 -1.10,1.89 -0.92,4.27 -2.25,6.11 -1.05,0.83 -3.14,2.62 -2.74,3.64 1.15,0.63 2.91,-0.18 3.07,-1.51 1.50,-1.26 1.46,-3.68 2.41,-5.39 0.67,-0.68 2.09,-2.06 1.08,-2.16 1.17,0.75 1.74,-1.54 1.08,-1.48 1.38,1.11 1.86,-1.92 2.62,-2.87 0.54,-0.91 3.10,-2.20 1.81,-0.22 -0.36,0.67 -1.24,2.80 -0.23,1.37 0.04,0.83 0.74,3.11 0.38,1.12 0.26,-0.52 0.93,2.70 0.06,1.20 -0.48,-0.49 0.52,1.33 -0.54,-0.18 -0.60,1.13 -0.40,-2.96 -0.72,-0.52 0.20,2.18 2.98,1.85 4.45,2.71 1.74,1.27 4.04,0.66 5.07,-1.14 0.03,-1.33 -2.36,-0.57 -3.12,0.05 -1.68,-0.06 -5.30,-1.10 -2.91,-3.06 0.97,-1.85 3.16,-3.50 2.98,-5.65 1.45,-1.01 3.15,-1.50 4.78,-2.21 1.29,0.19 3.60,0.90 4.31,2.57 1.34,1.82 1.62,4.25 1.00,6.42 -0.29,0.88 -0.16,2.46 -1.49,2.11 -1.79,-0.20 -2.92,1.38 -4.29,2.20 -1.21,-0.29 3.96,-2.35 0.98,-1.16 -0.38,-0.15 -3.66,1.30 -1.31,0.06 0.85,-0.23 2.47,-0.94 0.66,-0.35 -1.79,0.70 -3.69,1.21 -5.49,1.81 -0.90,-0.02 2.00,-1.02 -0.03,-0.33 -0.82,0.18 -3.24,2.36 -1.18,1.04 2.69,-0.49 5.42,-0.83 8.16,-1.06 0.48,-0.42 -1.73,0.21 -0.50,-0.56 0.99,-1.32 2.67,-1.18 3.62,-1.38 -0.12,0.77 -2.13,1.82 -2.26,3.25 -0.51,1.05 1.85,0.26 2.28,0.19 0.55,-1.27 1.67,-1.92 2.01,-3.34 1.02,0.65 3.11,0.05 3.36,-1.66 1.41,-0.66 1.09,-2.81 0.95,-3.81 -0.58,-1.34 0.32,-3.70 -0.89,-4.34 -0.12,1.20 -1.24,-0.21 -1.99,-0.23 -1.04,-0.47 -1.13,-1.07 -0.02,-0.17 1.12,0.49 -2.01,-1.32 -0.65,-0.85 -1.33,-0.91 2.78,1.43 0.76,0.18 -0.73,-0.84 2.05,1.19 1.51,0.23 1.17,2.15 1.12,-1.01 0.25,-1.27 -0.31,0.29 0.46,0.94 -0.29,0.85 -0.22,-0.33 -1.97,-0.90 -1.90,-1.00 -2.75,-0.76 4.17,0.61 0.91,-0.28 -1.88,0.26 -3.01,-1.65 -1.36,-2.78 0.79,-0.87 0.99,-1.51 0.00,-2.30 -0.44,-0.89 -0.72,-1.40 0.17,-0.61 -0.43,-0.49 -1.37,-2.37 -0.95,-0.98 1.19,2.46 -1.53,-1.66 -1.09,-0.23 0.69,-0.15 1.90,3.63 1.33,1.32 0.72,0.98 1.34,2.32 0.25,1.10 -0.04,0.43 1.00,1.48 0.06,0.82 -0.64,-0.89 -0.22,-1.34 -1.20,-2.10 -0.11,-0.82 -2.25,-1.88 -1.04,-0.70 1.06,0.23 1.82,2.16 1.03,2.10 -0.46,-0.37 0.71,1.89 0.63,2.27 -0.31,-0.72 -0.16,1.23 -0.48,-0.15 0.16,-1.06 -0.77,-0.86 -0.16,0.34 -0.68,0.02 0.31,1.42 -0.60,0.22 -0.37,0.02 0.48,1.49 -0.30,0.18 -0.79,-0.34 -0.90,-1.05 -0.60,0.21 0.61,-0.29 0.81,1.95 0.91,0.83 0.31,0.90 0.05,0.91 0.47,1.17 -0.48,0.76 0.15,0.58 0.20,1.20 0.73,0.66 -0.07,1.68 -0.07,0.42 -0.49,-1.05 0.31,1.84 -0.26,0.26 0.37,1.28 0.63,1.68 1.39,2.69 0.30,0.08 -0.96,0.22 -0.77,-0.81 -0.11,-0.18 -0.00,0.54 -0.45,-0.45 0.17,0.65 0.38,1.71 -0.24,0.37 -0.05,-0.40 -0.75,-1.76 0.04,-0.88 -0.18,-0.65 -0.73,-1.24 -0.70,-1.98 0.14,1.78 -0.21,0.37 -0.33,-0.46 -0.14,1.14 -0.42,1.09 -0.53,-0.22 -0.15,1.75 0.02,-1.87 -0.33,-0.19 0.03,1.17 -0.41,-3.92 0.02,-1.23 0.32,1.59 -0.05,-1.13 0.66,0.29 -0.40,-1.03 -0.88,-1.50 -0.10,-0.85 -0.39,-0.95 -0.51,-1.46 -0.93,-1.50 -0.29,-0.93 0.73,-0.85 0.00,-1.78 -0.17,0.48 -1.88,-1.38 -2.95,-1.22 -0.77,-0.78 -3.81,0.42 -1.33,-0.00 1.02,-0.10 2.38,0.77 0.67,0.26 -0.94,-0.12 -2.79,0.43 -0.79,0.12 0.07,0.40 -1.41,0.35 -0.24,0.49 -0.93,0.14 -2.75,0.58 -0.78,0.26 1.10,-0.18 0.14,0.30 1.38,0.17 -0.34,0.21 -2.61,0.13 -2.60,0.51 0.88,-0.42 3.49,-0.09 1.10,-0.00 0.25,0.36 -2.22,0.28 -2.51,0.75 0.95,-0.30 3.83,-0.59 3.36,-0.46 -0.39,0.40 -2.27,0.03 -1.18,0.48 -1.57,-0.23 -2.34,1.35 -3.25,0.23 0.16,-0.41 -1.46,-0.03 -0.07,0.29 -0.74,-0.21 -2.69,-0.03 -2.60,-0.38 1.46,-0.59 0.80,-0.05 0.08,-0.51 1.85,-0.73 -0.30,0.07 -0.88,-0.18 0.46,0.83 -1.55,0.08 -1.93,0.56 0.85,0.07 -1.44,0.40 -1.24,1.36 0.80,-1.17 1.20,-1.17 1.63,-0.66 0.54,-0.06 -1.58,1.81 -0.31,0.67 0.85,-0.57 0.14,0.60 -0.38,0.93 0.65,-0.55 1.22,-0.97 1.11,-0.14 0.95,-0.14 3.13,0.47 2.21,0.56 2.90,1.08 -2.48,-0.31 -1.67,0.21 0.87,-0.10 3.67,0.72 2.92,0.93 -0.70,-0.62 -3.90,-0.28 -3.46,-0.88 -0.04,-0.46 -0.92,-0.64 0.31,-0.45 0.99,0.15 1.83,0.07 0.34,-0.09 -0.89,-0.69 -1.92,0.11 -2.03,0.80 0.55,-0.20 1.51,0.37 -0.16,0.13 -1.05,-0.47 -2.39,2.58 -1.09,0.66 0.46,-1.11 3.29,0.13 1.11,-0.18 -0.80,0.16 1.11,1.34 -0.51,0.98 0.30,0.37 0.78,0.67 -0.41,0.31 0.52,-0.15 -0.48,-0.78 0.62,-0.49 -0.57,-1.11 -1.00,0.65 -1.16,0.62 0.47,0.69 0.41,0.13 0.50,0.18 2.08,0.32 1.32,0.64 -0.25,0.37 0.96,-0.02 2.52,1.13 0.67,0.31 -1.26,0.02 -1.81,-1.92 -2.18,-0.10 -0.87,0.14 0.27,-2.29 -0.47,-0.69 -0.37,1.35 -0.43,0.52 -0.55,-0.15 -0.30,1.27 -0.72,-1.87 -0.81,-0.37 -0.59,0.50 -0.34,-2.16 -0.37,-0.50 -0.16,0.46 -0.74,-1.42 -0.49,0.07 -0.80,-0.54 -0.57,-3.83 -0.81,-1.30 -0.48,0.05 -0.27,-2.99 -0.41,-0.73 0.18,2.32 -0.81,-0.68 -0.69,-1.00 -0.20,2.05 -0.16,-1.24 -0.44,-1.76 -0.32,-0.84 0.37,3.44 -0.13,2.58 -0.14,-0.26 -0.55,-2.44 -0.20,-2.97 -0.08,-0.90 1.08,0.37 0.96,1.18 0.04,0.76 0.38,2.25 0.23,0.57 -0.72,-1.01 0.30,-3.31 0.67,-1.33 0.08,0.79 0.63,3.09 0.32,1.01 -0.84,-1.38 0.79,-2.69 0.99,-1.48 0.13,2.66 -0.04,-1.94 0.69,-0.59 0.31,-0.84 1.09,-3.06 0.81,-0.93 0.21,0.46 0.62,-3.03 0.39,-0.68 -0.24,2.45 0.12,4.96 -0.59,7.35 -0.01,1.51 0.38,-1.61 0.57,-2.07 0.08,-2.02 0.20,-4.18 1.03,-6.02 -0.00,-0.47 -0.27,-0.92 0.84,-1.03 -0.43,0.27 -1.04,0.79 -0.17,0.31 -0.31,0.86 -1.02,4.26 -0.02,2.31 1.24,-1.06 -1.88,2.84 0.11,1.22 0.55,-0.65 0.92,-1.24 -0.06,-0.74 0.61,-0.84 1.61,-2.55 1.78,-3.09 -0.54,0.94 -1.40,1.40 -1.13,1.89 -1.22,1.22 0.33,-2.16 1.28,-2.34 1.46,-0.44 -2.08,4.02 -0.21,1.51 0.58,-0.95 2.14,-1.64 2.74,-2.10 -0.66,0.27 -2.63,1.24 -1.15,0.06 0.38,-0.11 1.86,-1.01 2.02,-1.14 -0.58,-0.20 -2.45,1.67 -2.77,1.11 -0.12,0.23 0.88,-0.77 0.76,-0.56 1.07,-0.55 1.79,-1.13 1.79,-0.79 0.50,-0.03 1.14,-1.69 0.53,-0.14 1.42,-0.35 -0.47,-0.23 1.03,-0.58 0.26,0.61 2.08,-1.41 3.06,-1.32 0.84,-0.34 1.82,-0.82 1.50,-0.91 0.88,-0.08 0.72,-0.19 0.72,0.11 1.29,-0.43 1.12,-0.68 0.83,-0.72 0.88,-0.28 1.20,-0.36 0.81,0.23 1.14,-0.09 -1.19,0.90 0.59,0.27 0.96,-0.27 0.62,-0.11 0.12,-0.35 1.07,-0.21 2.63,-1.07 3.65,-0.54 -1.13,-0.03 -1.82,0.12 -0.24,0.44 1.20,0.48 3.06,-0.23 2.53,0.72 0.27,0.65 -3.34,-1.03 -1.86,-0.08 -1.07,-0.10 -1.74,-0.11 -0.25,0.09 0.92,-0.24 3.92,0.99 1.38,0.59 -1.61,0.04 1.86,0.08 2.10,0.94 0.58,0.17 -0.32,-0.47 -0.21,-0.68 -0.83,-0.20 -0.50,-1.64 -0.03,-0.83 0.33,0.48 0.86,0.44 -0.10,0.36 1.71,0.33 1.98,2.19 1.92,3.20 -0.64,-0.19 0.50,1.55 -0.54,0.90 -0.01,0.45 0.84,0.94 -0.05,1.35 -1.09,-1.62 0.02,1.94 0.27,0.20 0.73,-0.97 0.07,-3.32 1.69,-2.09 1.80,-0.56 -0.75,-1.36 -0.99,-2.43 -1.10,-1.27 0.69,1.63 1.43,1.94 -1.90,0.49 -1.24,-1.89 -2.52,-2.60 -1.05,-0.72 1.35,0.14 -0.07,-0.89 C 41.06,7.33 39.30,7.08 37.68,6.65 34.90,5.81 32.14,7.11 29.62,8.15 28.80,8.88 27.61,9.06 26.60,9.65 c -1.68,0.73 -1.37,1.06 -2.85,1.31 -2.29,0.52 -4.49,1.55 -6.23,3.20 -1.21,1.06 -2.66,3.18 -4.41,1.89 -0.55,-0.78 -1.46,-1.18 -1.89,-2.12 C 9.93,13.32 9.97,11.55 9.57,10.17 9.50,9.33 7.14,6.52 7.74,8.74 8.28,10.09 7.64,13.18 6.95,10.29 6.73,8.99 5.84,5.91 7.58,5.78 8.66,7.44 8.07,4.53 7.13,4.88 z M 6.76,5.40 c -0.21,0.40 -0.54,0.44 0,0 z M 5.76,5.87 C 5.52,6.40 5.58,8.67 5.44,8.57 5.25,7.70 4.91,6.49 5.76,5.87 z m 0.49,0.25 c 0.03,0.35 -0.26,0.15 0,0 z M 6.03,6.92 c 0.20,1.13 -0.32,1.83 0,0 z M 36.63,6.97 c 0.63,0.04 -0.60,0.04 0,0 z m 0.79,0.00 c 0.33,0.04 -0.24,0.09 0,0 z m -1.55,0.07 c 0.47,0.04 -0.38,0.06 0,0 z m -0.98,0.09 c 1.05,0.30 -2.21,0.41 -0.09,0.00 l 0.09,-0.00 0,1.6e-6 z m 3.29,0.05 c 0.96,0.18 2.08,0.56 0.42,0.33 -0.70,0.28 -1.55,-0.33 -0.25,-0.09 C 38.40,7.29 37.67,7.17 38.18,7.20 z m -5.60,0.07 c 0.30,0.80 -1.64,0.74 -0.11,0.13 l 0.11,-0.13 0,10e-8 z m 0.51,0.03 c -0.02,0.27 -0.45,0.11 0,0 z m 3.15,0.04 c -0.50,0.05 0.47,0.04 0,0 z m -2.17,0.31 c 0.33,0.04 -0.24,0.09 0,0 z m 1.31,0.11 c -0.85,0.18 0.51,0.12 0,0 z m 5.18,0.21 c 0.74,0.27 -0.30,0.23 0,0 z m -7.37,0.05 c -0.86,0.24 0.25,0.26 0,0 z m -2.09,0.05 c -0.58,0.63 -2.21,1.49 -0.84,0.25 0.29,-0.05 0.59,-0.07 0.84,-0.25 z M 7.93,8.22 C 9.46,9.27 9.73,11.41 9.46,13.10 10.07,12.96 9.77,14.53 9.36,14.43 9.07,14.72 8.89,13.26 8.56,12.76 9.04,11.61 8.88,13.39 9.10,11.81 9.62,10.32 8.39,9.21 7.93,8.22 z m 28.59,0.01 c -0.86,-0.32 -4.07,1.19 -1.85,0.33 0.16,-0.19 2.54,-0.21 1.85,-0.33 z m 4.56,0.05 c -0.29,0.21 0.26,0.07 0,0 z m -8.04,0.05 c -1.24,0.16 0.19,0.25 0,0 z m 8.88,0.02 c 0.93,0.28 -1.03,0.18 0,0 z m -9.90,0.08 c -0.81,0.14 0.12,0.15 0,0 z M 6.06,8.52 c 0.34,1.18 -0.23,1.26 0,0 z m 26.38,0 c -1.57,0.49 -0.43,0.49 0,0 z m 1.39,0.09 c -1.14,0.16 -3.53,1.50 -3.59,1.72 1.12,-0.68 2.51,-1.15 3.59,-1.72 z m -2.40,0.01 c -0.52,0.14 -0.38,0.45 0,0 z M 7.97,8.77 c 0.34,0.23 -0.07,0.90 0,0 z M 30.81,8.91 c -0.51,0.11 0.01,0.21 0,0 z m 5.51,0.00 c -2.73,0.15 1.93,0.11 2.21,0.13 -0.72,-0.14 -1.48,-0.11 -2.21,-0.13 z m -4.88,0.03 c -0.62,0.18 -0.16,0.27 0,0 z m 3.45,0.04 c -1.24,-0.03 -1.45,0.94 -0.05,0.14 0.18,0.08 0.18,-0.20 0.05,-0.14 z m -31.25,0.02 c 0.52,0.41 -0.25,0.46 0,0 z m 1.21,0.05 c 0.09,0.25 -0.09,0.23 0,0 z m 25.56,0.00 c -1.12,0.67 -3.99,2.11 -4.07,2.34 0.75,-0.50 2.34,-1.12 2.13,-0.63 0.70,-0.61 2.78,-1.89 0.79,-0.75 -1.90,0.75 0.79,-0.63 1.14,-0.95 z m 0.47,0.12 c -0.66,0.13 -0.61,0.43 0,0 z m 2.54,0.01 c -0.23,0.10 0.33,0.03 0,0 z m -4.80,0.02 c -0.22,0.34 -0.10,0.16 0,0 z m 4.60,0.07 c -1.05,0.29 -0.67,0.71 0,0 z m 1.16,0.10 c -0.31,0.27 0.69,0.09 0,0 z m 6.10,0.04 c 1.12,0.99 -1.27,-0.36 0.23,0.57 1.70,1.16 0.99,0.24 -0.23,-0.57 z m -12.39,0.00 c 0.17,1.16 -2.80,0.86 -0.93,0.46 0.21,-0.57 0.55,0.06 0.93,-0.46 z M 8.17,9.49 c 0.25,0.57 0.58,3.41 -0.00,1.47 -0.01,-0.48 -0.08,-0.99 0.00,-1.47 z m 28.55,0.05 c -0.53,0.22 2.07,0.05 0,0 z m -0.58,0.01 c -0.76,0.27 -2.47,-0.05 -2.16,0.51 1.63,-0.59 -2.30,1.42 -0.18,0.53 0.56,0.09 3.29,-0.18 2.63,0.10 -0.60,-0.28 -2.70,0.55 -2.37,0.28 0.35,-0.65 -1.45,0.94 -0.60,0.04 -1.20,0.93 -0.52,-0.85 -1.61,0.16 -0.81,0.55 -3.06,1.31 -1.09,0.10 0.66,-0.56 3.89,-1.97 1.37,-0.94 -1.65,0.89 -3.00,2.28 -4.93,2.53 -1.04,0.31 -2.53,1.09 -0.65,0.35 0.67,-0.27 2.74,-1.11 0.97,-0.04 0.42,-0.14 3.01,-1.58 2.60,-0.98 -0.84,0.53 2.78,-1.21 0.76,-0.22 0.33,-0.02 2.38,0.17 0.64,0.45 -0.91,0.54 -3.75,1.66 -1.29,0.73 0.46,-0.57 3.54,-0.51 2.47,-0.23 -1.36,0.73 -3.18,0.82 -3.89,1.19 0.74,-0.25 1.69,-0.33 0.41,0.24 1.20,-0.24 2.69,-1.41 3.76,-1.09 -0.90,0.47 -2.34,0.99 -0.50,0.42 0.76,0.15 -1.97,0.76 -2.58,0.85 -1.25,0.32 -4.00,1.15 -4.30,1.47 1.46,-0.38 3.36,-1.29 4.54,-1.35 -0.81,0.25 -1.64,0.95 -0.33,0.32 0.79,-0.40 3.46,-1.35 2.22,-0.61 1.33,0.10 3.05,0.28 4.31,1.31 0.39,-0.14 0.79,1.82 1.05,1.09 -1.12,-1.01 0.70,0.58 0.67,0.63 -0.65,-1.05 -0.49,-2.18 0.29,-0.59 0.97,1.41 -1.13,-2.58 -2.50,-2.27 -2.12,-1.14 3.27,2.06 0.52,1.01 -0.71,-1.20 -3.00,-0.49 -3.18,-1.68 1.08,0.88 2.01,-1.13 3.17,0.26 0.64,0.49 2.55,1.70 0.81,0.33 -1.53,-0.54 -2.40,-2.19 -3.72,-0.65 1.07,-0.70 1.27,-1.64 0.20,-0.58 -1.09,-0.73 2.76,-0.95 2.55,-1.40 1.34,0.10 2.93,0.99 3.84,1.59 -0.61,-0.97 -3.00,-1.45 -3.23,-1.67 0.39,-1.07 3.34,1.39 3.03,0.78 -0.95,-0.83 -3.50,-1.28 -3.67,-1.62 0.82,-0.14 1.84,0.25 0.81,-0.31 1.53,-0.04 -0.03,-1.09 -1.19,-0.56 1.18,0.17 -1.37,0.40 -0.70,-0.07 -0.66,-0.23 1.45,-0.27 1.04,-0.44 z m 2.63,0.06 c 0.77,0.32 1.08,0.18 0,0 z m -6.43,0.15 c -2.00,1.01 -3.97,2.13 -6.13,2.80 -0.82,0.39 -3.41,1.90 -2.92,1.96 0.74,-0.75 2.44,-1.61 3.76,-2.08 1.79,-0.72 3.63,-1.62 5.29,-2.68 z m 9.79,0.03 c -0.40,0.15 0.33,0.13 0,0 z m -3.83,0.03 c -0.33,0.18 0.56,0.16 0,0 z m 1.57,0 c -0.53,-0.00 0.78,0.44 0,0 z m -35.85,0.00 c 1.20,1.10 0.22,1.45 0,0 z M 36.74,10.10 c 2.44,0.18 -1.92,0.61 -0.31,0.09 l 0.31,-0.09 0,5e-6 z m -2.21,0.05 c 1.21,0.28 0.22,0.62 0,0 z m -0.26,0.08 c 0.26,0.23 -0.71,0.13 0,0 z m 5.62,0.03 c 0.51,0.48 2.66,0.73 0.91,0.14 0.12,0.55 -0.67,-0.30 -0.91,-0.14 z M 5.13,10.31 c 0.22,0.14 -0.08,0.65 0,0 z m 20.95,0.00 c -0.00,0.23 0.01,0.06 0,0 z m 13.02,0.02 c 0.76,0.34 4.07,1.95 2.11,0.73 -0.69,-0.26 -1.39,-0.54 -2.11,-0.73 z m 2.72,0.07 c 0.30,0.55 1.39,0.39 0,0 z M 29.72,10.64 c -0.67,0.01 -0.59,0.44 0,0 z m -23.53,0.00 c 0.26,0.16 0.04,0.33 0,0 z m 32.43,0.09 c 1.50,0.05 2.42,1.95 2.88,2.53 C 41.22,11.78 40.05,11.08 38.62,10.74 z m -9.54,0.06 c -1.83,0.72 -3.80,1.23 -5.37,2.49 1.07,-0.59 2.69,-1.53 4.10,-1.93 0.37,-0.20 0.98,-0.33 1.26,-0.56 z m 12.75,0.00 c 0.16,0.51 0.79,0.42 0,0 z m -6.91,0.05 c 0.23,0.15 -0.46,0.14 0,0 z m 8.46,0.09 c 0.09,0.25 -0.09,0.23 0,0 z m -5.52,0.08 c 0.46,0.29 3.37,1.46 1.30,0.46 -0.42,-0.17 -0.85,-0.37 -1.30,-0.46 z m -2.62,0.04 c 0.82,0.37 -1.45,0.56 -1.86,0.86 -0.66,-0.36 1.51,-1.03 1.54,-0.61 l 0.14,-0.18 0.17,-0.07 -1.1e-5,-1.2e-5 z m 5.67,0.24 c -0.49,0.62 2.12,1.15 0.13,0.23 -0.14,-0.07 0.17,-0.30 -0.13,-0.23 z m -9.11,0.15 c 0.46,0.11 -0.42,0.25 0,0 z m 0.91,0.08 c 0.94,0.10 -1.49,0.13 0,0 z m 3.29,0.00 c 0.62,0.04 -0.60,0.04 0,0 z m -10.15,0.03 c -0.52,0.12 0.31,0.16 0,0 z m -2.78,0.03 c 0.27,0.15 -0.14,0.20 0,0 z m 12.28,0.04 c 1.17,0.43 -0.92,0.17 0,0 z M 8.61,11.88 c 0.41,0.24 -0.38,0.36 0,0 z m 24.19,0 c 0.22,0.16 -0.46,0.14 0,0 z m -10.08,0.00 c 0.01,0.20 -0.63,0.11 0,0 z m -17.18,0.00 c 0.37,0.05 -0.37,0.06 0,0 z m 29.43,0.01 c -0.38,0.63 -0.65,0.21 0,0 z m -30.65,0.02 c 0.77,0.61 0.38,0.99 0,0 z m 29.60,0.01 c 0.40,0.70 -2.09,0.34 -0.24,0.09 l 0.17,-0.07 0.06,-0.02 -3e-6,-9e-6 z m 6.23,0.09 c 0.20,0.37 0.37,0.20 0,0 z m -4.88,0.01 c 0.57,0.26 -0.99,0.20 0,0 z m -13.11,0.01 c 0.26,0.16 -0.38,0.11 0,0 z M 7.26,12.20 c -0.59,0.66 1.75,1.16 0.21,0.92 0.60,0.62 -0.80,-0.13 -0.82,-0.30 -0.21,-0.33 0.30,-0.53 0.61,-0.62 z m 33.96,0 c 0.12,0.91 1.06,0.95 0,0 z m -4.89,0.00 c 0.49,0.99 0.97,0.00 2.06,1.00 0.61,0.75 1.63,0.69 0.22,0.00 -0.72,-0.40 -1.47,-0.79 -2.29,-1.00 z m -2.13,0.01 c -0.22,0.40 -0.35,0.03 0,0 z m -26.40,0.05 c 0.27,0.34 -0.59,0.44 0,0 z m 23.11,0.07 c -1.81,0.66 -3.56,1.06 -5.37,1.66 -0.72,0.18 -3.28,1.88 -1.27,0.74 0.97,-0.56 3.75,-1.69 3.11,-0.96 1.10,-0.53 2.53,-1.01 3.52,-1.45 z m -10.72,0.02 c 0.20,0.24 -0.36,0.22 0,0 z m 20.23,0.08 c 0.10,0.99 1.46,2.25 0.72,0.93 -0.41,-0.15 -0.29,-0.79 -0.72,-0.93 z m -18.33,0.04 c 0.31,0.07 -0.59,0.22 0,0 z m 13.14,0.11 c -1.73,0.09 3.14,1.51 0.66,0.52 -0.37,-0.09 -0.59,-0.23 -0.66,-0.52 z m -13.52,0.03 c -0.36,0.37 -0.93,0.16 2e-6,-5.5e-5 l -2e-6,5.5e-5 z m 14.42,0 c 0.26,0.32 0.49,0.16 0,0 z m 4.12,0.03 c 0.14,0.50 0.55,0.35 0,0 z m -33.17,0.05 c -0.58,0.10 0.72,0.13 0,0 z m 14.70,0.15 c -1.05,0.23 -1.94,3.30 -2.09,2.86 0.51,-1.03 0.70,-2.68 2.09,-2.86 z m 18.30,0 c -0.09,0.27 0.94,1.75 1.13,1.64 -0.23,-0.60 -0.61,-1.23 -1.13,-1.64 z m -19.35,0.14 c -0.37,0.86 -1.57,3.73 -0.82,1.27 0.18,-0.44 0.25,-1.14 0.82,-1.27 z m 13.01,0 c -0.28,0.19 0.27,0.20 0,0 z m 3.35,0.03 c 0.35,0.49 2.73,1.08 0.86,0.30 -0.29,-0.08 -0.56,-0.25 -0.86,-0.30 z m -15.20,0.12 c -0.59,0.11 0.11,0.24 0,0 z m -12.97,0.02 c -0.34,0.19 0.22,0.31 0,0 z m 1.25,0.01 c 0.19,0.63 0.30,2.76 -0.03,0.94 -0.06,-0.30 -0.12,-0.65 0.03,-0.94 z m -3.31,0.04 c 0.33,0.03 -0.23,0.09 0,0 z m 17.31,0.01 c -1.04,0.28 -2.52,1.81 -0.77,0.49 0.25,-0.16 0.57,-0.26 0.77,-0.49 z m -17.51,0.07 c 0.03,0.21 -0.49,0.22 0,0 z m 13.13,0.00 c -0.59,0.76 -0.77,0.30 2e-6,9e-6 l -2e-6,-9e-6 z m 3.50,0.00 c -0.63,0.26 0.17,0.19 0,0 z m 19.14,0.04 c -0.03,0.49 0.72,0.26 0,0 z m -9.25,0.03 c 0.84,0.15 -0.50,0.27 0,0 z m -26.05,0.04 c 1.83,0.38 -0.70,0.43 0,0 z m 27.29,0.09 c -0.27,0.39 -0.32,0.15 0,0 z m -24.04,0.00 c 0.35,0.35 -0.10,0.74 0,0 z m 30.96,0.06 c 0.28,0.53 0.84,0.40 0,0 z m -3.39,0.00 c -0.88,0.45 1.26,0.66 0,0 z m 2.14,0.00 c -0.12,0.48 1.27,1.32 0.15,1.11 1.11,1.49 0.56,-0.96 -0.15,-1.11 z m -31.57,0.06 c 0.42,0.34 0.56,1.78 0.74,1.60 0.18,0.51 0.75,-1.65 0.60,0.09 -0.08,0.80 0.12,2.26 0.31,0.55 -0.28,0.68 -0.27,-2.51 0.16,-0.60 0.46,0.64 -1.40,3.38 -0.24,2.09 -0.53,0.92 -0.26,1.91 0.17,0.52 0.15,0.46 -1.03,2.63 -0.53,3.92 C 9.52,23.13 9.65,20.18 9.46,20.14 8.45,21.87 9.17,20.46 9.03,20.25 8.84,20.67 9.14,18.56 8.63,20.07 8.58,21.30 8.39,19.44 8.88,19.23 7.11,20.35 8.93,17.64 9.04,18.95 9.80,17.79 8.83,19.09 9.21,18.02 8.34,17.72 8.38,19.41 8.04,18.37 6.84,17.66 7.27,18.25 7.27,18.53 9.00,18.82 6.27,19.14 5.47,19.22 4.28,19.40 4.62,19.12 4.39,18.79 3.90,18.58 4.82,18.63 4.80,18.27 4.99,17.83 6.38,16.45 5.28,17.15 5.07,16.43 6.85,16.26 7.47,16.14 8.40,15.62 8.02,15.93 7.95,15.63 9.24,14.88 6.54,15.61 8.23,14.70 8.76,14.88 8.04,14.10 8.54,13.76 z m 14.25,0 c -0.70,0.23 0.37,0.28 0,0 z M 7.49,13.92 c 0.03,0.72 -0.91,0.07 0,0 z m -0.72,0.00 c -0.18,0.06 -0.81,1.03 -0.90,1.42 -0.59,-0.31 0.32,-1.44 0.90,-1.42 z m 1.16,0.01 c 0.30,0.32 -0.44,0.09 0,0 z m 26.75,0.04 c -1.94,0.82 0.28,0.56 0,0 z m -6.79,0.01 c -0.37,0.05 0.37,0.06 0,0 z m 3.19,0.07 c -0.53,0.08 -0.16,0.26 0.08,0.01 l -0.08,-0.01 z m -3.46,0.00 c -0.83,0.06 -2.56,1.00 -0.71,0.28 0.22,-0.12 0.51,-0.11 0.71,-0.28 z m -8.07,0.10 c -0.36,0.12 0.22,0.20 0,0 z m 8.88,0.07 c -0.97,0.25 -0.84,0.54 0,0 z m -21.57,0.01 c 0.55,0.37 -1.49,0.61 2e-7,-3e-6 l -2e-7,3e-6 z m 34.89,0.06 c 0.48,1.11 1.00,0.67 0,0 z m -34.32,0.13 c 0.67,0.28 -0.17,0.20 0,0 z m 21.48,0.03 c -0.49,0.06 0.14,0.22 0,0 z m -10.05,0.01 c -0.01,1.01 -0.57,2.84 -0.64,3.46 -0.06,-1.18 0.19,-2.36 0.64,-3.46 z m -8.21,0.02 c 0.47,0.23 -0.35,0.03 0,0 z m -1.91,0.00 c -0.35,0.46 0.10,0.47 0,0 z m 2.31,0.08 c 0.09,0.26 -0.09,0.23 0,0 z m 21.90,0 c -1.48,0.12 -3.08,0.67 -4.27,1.34 -1.05,0.40 -1.49,0.66 -0.08,0.24 0.88,-0.40 2.25,-1.28 3.87,-1.37 0.43,0.58 -2.56,0.77 -3.24,1.38 0.92,-0.17 3.57,-1.32 4.21,-0.79 -1.12,-0.27 1.69,0.90 0.25,-0.26 1.61,-0.07 -0.63,-0.22 -0.74,-0.54 z m 6.95,0.00 c 0.27,0.19 0.10,0.89 0,0 z m -16.23,0.00 c -0.82,0.27 -1.86,1.45 -0.47,0.35 -0.46,-0.07 0.66,-0.23 0.47,-0.35 z m 4.32,0.00 c -0.79,-0.03 -1.09,0.45 0,0 z m -9.43,0.07 c -0.07,0.99 -0.36,0.80 -1.1e-5,0 l 1.1e-5,0 z m 0.86,0.01 c -0.34,0.91 -0.10,1.23 0,0 z m 2.53,0.04 c -0.65,0.43 -1.41,2.50 -0.39,0.74 0.57,-0.12 -0.44,-0.01 0.39,-0.74 z m 3.64,0 c -1.05,0.27 -0.72,0.75 0,0 z m 15.98,0.03 c 0.07,0.65 0.65,0.54 0,-3e-6 l 0,3e-6 z m -19.26,0.01 c -0.77,1.07 0.65,0.36 0,0 z m 4.82,0.02 c -0.91,0.11 -3.14,1.35 -1.09,0.48 0.35,-0.16 0.79,-0.22 1.09,-0.48 z m -20.43,0.01 c 0.43,0.28 -0.41,0.24 0,0 z m 2.17,0.07 c -0.40,0.31 0.11,0.41 0,0 z m 2.15,0.00 c 0.09,0.25 -0.09,0.23 0,0 z m -0.17,0.25 c 0.39,0.94 0.28,1.21 0.35,0.06 0.68,1.03 -0.16,2.69 -0.19,3.39 0.84,-0.69 0.52,-2.95 0.60,-3.02 1.25,0.40 0.51,3.21 0.91,2.98 -0.12,-0.78 0.07,-3.21 0.23,-1.06 -0.03,1.09 0.70,2.57 -0.55,3.21 0.13,-1.41 -0.61,1.93 -0.47,0.11 0.35,-0.60 0.65,-1.22 0.23,-0.87 0.46,-1.59 -0.60,0.70 -0.21,0.40 -0.46,1.26 -1.08,3.86 -0.72,1.82 -0.04,-1.23 -0.01,-2.60 0.81,-3.17 -0.93,1.87 0.60,-0.30 0.09,-0.64 -0.40,0.67 -1.60,2.50 -0.92,0.92 0.87,-0.27 -1.10,-0.05 -0.16,-1.15 0.07,-1.33 -0.59,3.19 -0.46,0.98 0.13,-1.45 1.01,-2.48 0.49,-3.78 l -0.02,-0.15 -0.00,-0.02 1e-6,9e-5 z m 13.70,0.00 c -0.96,0.77 -1.08,0.09 -1.35,0.37 -1.72,1.19 -3.27,3.08 -3.82,5.14 0.16,-1.65 2.16,-2.89 2.69,-3.81 -0.73,0.25 1.15,-1.35 0.66,-0.31 0.22,-0.73 1.50,-0.95 1.81,-1.38 z m 16.86,0.00 c 0.48,0.84 0.31,1.28 -0.34,0.53 0.78,1.65 1.59,-0.12 0.34,-0.53 z m -7.02,0.06 c 0.92,0.31 2.29,1.73 2.99,2.30 -0.68,-1.05 -1.78,-1.95 -2.99,-2.30 z m 7.91,0.06 c -0.67,0.29 0.47,0.36 0,0 z m -4.48,0.05 c -0.14,0.20 0.27,0.15 0,0 z M 7.40,15.49 C 6.82,16.11 5.29,15.44 6.80,15.61 l 0.45,-0.06 0.13,-0.06 -5e-7,7e-6 z m 21.34,0.01 c -0.79,0.05 -2.30,0.83 -0.62,0.23 -0.20,0.01 0.99,-0.21 0.62,-0.23 z m -19.03,0.00 c -0.08,0.25 0.07,0.45 0,0 z m 12.52,0.07 c -0.43,0.07 -0.53,0.97 0,0 z M 5.76,15.71 c 0.55,0.24 -0.52,0.19 0,0 z m 28.79,0 c -0.20,0.27 0.35,0.15 0,0 z m -16.88,0.03 c -0.09,0.22 0.09,0.37 0,0 z m -9.30,0.04 c -0.99,0.43 0.14,0.88 0,0 z m 8.27,0.03 c 0.38,0.31 -0.37,0.40 0,0 z m -5.92,0.00 c 0.35,0.56 -0.64,0.07 0,0 z m 12.39,0.04 c 0.33,0.04 -0.24,0.10 0,0 z m 9.53,0 c -0.24,0.10 0.33,0.04 0,0 z m -13.46,0.01 c -0.42,0.71 -0.35,3.84 -0.19,1.41 0.04,-0.47 0.12,-0.94 0.19,-1.41 z m 21.60,0.11 c 0.31,1.14 1.46,0.87 0.27,0.32 l -0.27,-0.32 -2e-6,-5.1e-5 z m -28.94,0.01 c -0.13,0.65 0.33,3.28 0.18,1.14 -0.08,-0.36 0.00,-0.81 -0.18,-1.14 z m 11.69,0 c -0.43,0.16 0.44,0.22 0,0 z m 3.52,0 c -1.10,0.25 -1.07,0.63 0,0 z m 10.02,0 c 1.10,0.42 -0.16,0.47 0,0 z m 1.37,0 c 0.06,0.40 0.37,0.43 0,0 z m -32.92,0.00 c 1.60,0.29 -0.99,0.69 0,0 z m 26.92,0.07 c 0.49,0.20 -0.42,0.08 0,0 z m -7.75,0.07 c -1.04,0.18 -1.88,0.56 -2.39,0.99 -0.24,0.58 1.86,-1.05 2.39,-0.99 z m -2.67,0.00 c -0.80,0.53 -1.95,2.48 -0.61,0.75 0.19,-0.25 0.46,-0.45 0.61,-0.75 z m 12.69,0 c 0.79,0.20 2.30,1.73 1.35,1.48 0.13,1.39 -1.15,0.15 -0.51,1.88 0.25,1.03 -1.03,-1.78 -0.23,-1.79 -0.40,-0.88 -0.76,-1.16 0.37,-0.22 0.57,0.11 -1.48,-1.05 -0.98,-1.35 z m -17.82,0.03 c 0.08,0.15 -0.30,0.36 0,0 z m 17.14,0.03 c 0.74,0.11 0.48,1.02 0,0 z M 7.72,16.26 c -0.29,0.21 0.26,0.07 0,0 z m 23.20,0.01 c -1.03,0.10 0.11,0.17 0,0 z m -7.26,0.00 c -0.99,0.28 -0.41,0.54 0,0 z m 9.63,0.03 c 1.35,0.55 -1.30,0.07 0,0 z M 7.98,16.36 c -0.35,0.12 0.22,0.20 0,0 z m 18.15,0.00 c -0.83,0.23 -0.47,0.45 0,0 z m -8.61,0.03 c -0.42,1.66 -0.06,4.06 0.08,5.35 -0.19,-0.41 0.63,-2.27 -0.08,-1.14 -0.07,-1.13 0.52,-3.99 -0.10,-2.03 -0.11,-0.72 0.11,-1.44 0.10,-2.17 z m 13.63,0.00 c -0.28,0.19 0.27,0.20 0,0 z M 7.39,16.43 c -0.99,0.20 -1.81,0.40 -0.29,0.22 0.00,0.05 0.63,-0.15 0.29,-0.22 z m 22.98,0.00 c -1.17,0.20 -1.93,0.84 0,0 z m -1.18,0.01 c -1.01,0.07 -2.76,0.91 -0.68,0.24 0.19,-0.06 0.62,-0.15 0.68,-0.24 z m -1.87,0.05 c -0.88,0.07 -3.25,1.47 -1.12,0.48 0.20,-0.14 1.22,-0.38 1.12,-0.48 z m 5.18,0.00 c 0.88,0.26 -0.66,-0.02 0,0 z m -7.37,0.00 c -0.77,0.04 -2.99,1.28 -2.71,1.33 0.79,-0.53 2.05,-1.01 2.71,-1.33 z M 5.10,16.59 c -0.28,0.94 -1.16,0.29 0,0 z m 5.63,0.10 c 0.11,0.89 -1.00,1.78 -0.33,0.38 -0.03,-0.56 0.14,0.27 0.33,-0.38 z m 10.33,0.03 c -1.07,0.92 -0.53,0.69 0,0 z m 11.66,0.00 c 0.47,0.05 -0.38,0.06 0,0 z m -12.47,0.01 c -0.34,1.09 -1.17,0.45 0,0 z m -2.49,0.00 c -0.08,0.22 0.07,0.39 0,0 z m 15.58,0.02 c 0.73,0.35 1.58,0.12 1.20,0.66 0.41,0.94 0.81,1.83 -0.07,0.40 -0.23,-0.93 -0.96,-0.43 -1.13,-1.07 z m -26.83,0.01 c -1.57,0.22 0.47,0.28 0,0 z m 22.98,0.18 c -1.54,0.65 1.15,0.10 -7e-6,-5e-6 l 7e-6,5e-6 z m 3.61,0.00 c 0.51,0.15 -0.29,0.32 0,0 z m -4.02,0.03 c -0.63,0.18 0.44,0.09 0,0 z m -2.05,0.00 c -0.54,0.08 -0.16,0.26 0.08,0.01 l -0.08,-0.01 z m -12.74,0.00 c -0.43,0.72 -0.73,0.26 0,0 z m 16.90,0.00 c -0.69,0.06 0.18,0.29 0,0 z m 8.21,0.01 c 0.36,0.43 0.00,0.51 0,0 z m -34.98,0.05 c 0.47,0.01 -0.51,0.42 0,0 z m 5.10,0 c -0.28,0.21 0.27,0.06 0,0 z m 19.03,0.04 c -1.40,0.34 -0.48,0.35 0,0 z m -21.88,0.03 c -0.74,-0.10 1.06,0.57 0,0 z m 10.26,0 c -0.27,1.68 0.18,1.88 0,0 z m 22.91,0 c 0.40,0.53 1.01,2.10 -0.00,0.69 -0.14,-0.19 -0.18,-0.50 0.00,-0.69 z m -15.24,0.01 c -0.88,0.15 -1.84,0.97 -0.36,0.20 -0.19,0.05 0.63,-0.20 0.36,-0.20 z m -13.43,0.02 c -0.51,0.56 0.13,0.71 0,0 z m 20.97,0.04 c 0.97,-0.22 2.02,0.89 0.93,0.34 -0.32,0.07 -0.64,-0.22 -0.93,-0.34 z m -5.70,0.00 c -0.48,0.13 0.26,0.09 0,0 z m 5.51,0 c 0.33,0.03 -0.23,0.09 0,0 z m -16.16,0.10 c 0.01,0.95 0.41,1.08 0,0 z m -6.34,0.04 c -0.21,0.13 0.32,0.16 0,0 z m 16.58,0.00 c -0.83,0.24 0.25,0.16 0,0 z m 7.89,0.02 c 0.61,0.56 0.86,2.20 0.05,0.91 0.69,0.51 -0.03,-0.69 -0.05,-0.91 z m -6.31,0.00 c -0.82,0.09 -1.29,0.59 0,0 z m -5.66,0.05 c -0.24,0.09 0.33,0.04 0,0 z m -7.55,0.04 c -0.06,0.73 0.62,3.20 0.30,1.16 -0.09,-0.37 -0.11,-0.82 -0.30,-1.16 z m 14.47,0.00 c -0.66,0.35 1.56,0.04 0,0 z m -0.33,0.05 c -0.91,0.06 -3.41,1.18 -1.19,0.41 0.34,-0.13 1.02,-0.22 1.19,-0.41 z m -21.55,0.04 c -0.42,0.17 0.44,0.22 0,0 z m 8.42,0.01 c -0.14,0.40 0.37,0.28 0,0 z m -8.74,0.00 c -1.08,0.04 -0.36,0.66 0,0 z m 32.10,0 c -0.09,0.28 0.39,0.20 0,0 z m -16.85,0.06 c -0.87,0.46 -2.14,2.61 -1.96,2.73 0.47,-1.02 1.28,-1.92 1.96,-2.73 z m 4.75,0.00 c -0.89,0.27 0.27,0.13 0,0 z m 5.48,0.00 c 0.70,-0.10 1.07,0.47 0,0 z m 6.02,0.00 c -0.06,0.42 0.28,0.29 0,0 z m -0.63,0.00 c 0.04,0.56 0.39,0.36 0,0 z m -1.79,0.05 c -0.14,0.20 0.27,0.15 0,0 z m -9.45,0.07 c -0.50,0.12 -0.00,0.20 0,0 z m 13.19,0.03 c 1.31,0.79 0.29,1.55 0,0 z m -0.77,0.00 c -0.05,0.62 0.20,0.32 0,0 z m -18.15,0.01 c -0.59,0.60 -0.23,0.62 3e-6,3e-6 l -3e-6,-3e-6 z m 12.62,0.02 c 0.75,0.69 -2.00,0.24 -0.12,0.13 l 0.10,-0.06 0.01,-0.07 0,0 z m -9.36,0.00 c 0.46,0.10 0.22,0.03 0,0 z m -8.31,0.08 c 0.01,1.20 0.46,1.73 0.07,0.23 l -0.07,-0.23 -0.00,-0.00 2.3e-5,2.4e-5 z m 4.61,0.00 c -0.76,0.61 -1.17,2.35 -0.32,0.55 l 0.19,-0.31 0.13,-0.24 0,0 z m -8.56,0.07 c -0.52,0.54 -0.11,1.25 0,0 z m -8.40,0.01 c 1.13,0.27 -0.79,1.82 -0.68,0.88 0.32,-0.18 0.63,-0.49 0.68,-0.88 z m 26.16,0.05 c -0.68,0.26 0.52,0.13 0,0 z m 2.23,0.00 c 0.93,0.08 0.45,0.50 0,0 z m -3.91,0.00 c -0.48,0.13 0.25,0.09 0,0 z m 10.16,0 c 0.36,1.58 0.89,1.79 0,0 z m 0.58,0 c 0.02,0.39 0.23,0.21 0,0 z m -31.63,0.02 c -0.01,0.41 0.48,0.10 0,0 z m 30.19,0.03 c 0.36,1.04 0.67,0.93 0,0 z m -2.40,0.07 c 0.27,0.20 -0.28,0.19 0,0 z m -15.11,0.02 c -0.65,0.60 -0.98,2.34 -0.20,0.50 -0.05,-0.16 0.33,-0.34 0.20,-0.50 z m 11.81,0.02 c 1.20,0.00 -0.77,0.29 0,0 z m -2.34,0.00 c -1.14,0.34 -0.10,0.59 0,10e-6 l 0,-10e-6 z M 5.07,18.45 C 4.27,19.60 8.06,18.27 5.77,18.63 5.55,18.25 5.20,18.76 5.07,18.45 z m 2.04,0.02 c -0.35,0.12 0.22,0.20 0,0 z m 26.09,0 c 0.32,0.39 -0.83,0.10 0.27,0.56 -0.53,0.20 -1.53,-0.16 -0.27,-0.56 z m -14.21,0.00 c -0.88,0.56 -0.24,0.67 2.7e-5,3e-5 l -2.7e-5,-3e-5 z m 4.58,0.00 c 1.66,0.12 -0.91,0.33 0,0 z m 12.51,0.04 c 0.99,1.28 -0.28,0.73 0,0 z m -5.63,0.00 c 1.03,0.32 -0.66,-0.00 0,0 z m -4.12,0.02 c -0.36,0.11 0.21,0.20 0,0 z m -16.82,0.02 c -0.54,1.21 0.25,1.26 0,0 z m 6.85,0.02 c -0.12,0.74 0.48,0.80 0,0 z m 9.55,0.00 c -0.37,0.05 0.37,0.06 0,0 z m 9.82,0.03 c 1.00,1.43 -0.67,0.10 0,0 z m -6.02,0.08 c 0.86,0.28 2.14,0.09 0.32,0.39 0.11,-0.11 -1.15,-0.28 -0.32,-0.39 z m 1.98,0.01 c 1.41,0.27 -0.54,0.33 -0.19,0.03 l 0.19,-0.03 0,-1.4e-5 z m -27.90,0.00 c -0.00,0.23 0.01,0.06 0,0 z m 20.54,0 c 0.85,-0.01 2.37,1.05 0.68,0.34 -0.22,-0.07 -0.54,-0.14 -0.68,-0.34 z m -1.35,0.01 c 0.93,-0.16 3.15,1.32 1.07,0.31 0.14,0.31 -0.88,-0.31 -1.07,-0.31 z m -16.25,0.06 c -0.14,0.20 0.27,0.15 0,0 z m 31.46,0.01 c 0.28,0.94 0.43,0.61 0,0 z m -34.63,0.05 c 0.27,0.06 -0.28,0.21 0,0 z m -0.39,0.07 c -0.17,0.12 0.26,0.19 0,0 z m 6.61,0.00 c -0.43,1.01 -0.14,1.72 0,0 z m 27.87,0.00 c -0.12,0.36 0.35,0.37 0,0 z m -11.38,0.03 c 0.62,0.45 0.99,0.78 -0.09,0.27 -0.29,-0.11 -0.03,-0.29 0.09,-0.27 z m 8.00,0.00 c 0.72,0.28 -0.42,0.22 0,0 z m -11.40,0.03 c 1.03,0.51 0.15,0.33 0,0 z m 9.27,0 c 0.91,0.25 -0.87,0.23 -3e-6,4e-5 l 3e-6,-4e-5 z m -10.55,0.03 c -0.92,0.39 -2.12,3.72 -0.99,1.42 0.26,-0.50 0.74,-0.97 0.99,-1.42 z m -4.37,0.00 c -0.44,0.78 -0.54,2.35 -0.94,2.21 0.26,0.77 0.70,1.84 0.45,0.18 0.38,0.55 0.56,2.11 0.55,0.63 -0.51,-0.30 -0.24,-2.26 -0.07,-3.03 z m 13.94,0.00 c 0.70,0.51 -0.19,0.18 0,0 z m -21.06,0.03 c 0.32,0.67 -0.59,2.27 -0.20,0.48 0.07,-0.11 -0.00,-0.44 0.20,-0.48 z m -0.89,0.00 c -0.29,1.13 0.18,0.76 0,0 z m 6.85,0.00 c -0.78,0.79 -0.18,4.27 -0.35,1.49 0.24,-0.06 0.26,1.59 0.29,0.32 0.84,0.35 -0.81,-1.16 0.21,-1.71 l -0.06,-0.07 -0.09,-0.03 2.3e-5,-3e-6 z m 13.50,0.02 c 0.28,0.25 -0.79,0.17 0,0 z m -12.74,0.03 c -0.31,0.85 0.17,0.78 0,0 z m 11.75,0.02 c 0.85,0.12 -0.89,0.09 0,0 z m 4.82,0.04 c 0.65,0.24 -0.19,0.47 0,0 z m -20.91,0.02 c -0.41,0.30 0.05,0.91 0,0 z m 15.47,0 c 0.74,0.10 -0.75,0.11 0,0 z m 8.06,0.00 c 0.26,0.16 0.04,0.33 0,0 z M 3.88,19.33 c 0.04,0.82 -2.67,0.74 -0.66,0.26 l 0.24,-0.09 0.42,-0.16 0,-1.85e-4 z m 29.01,0.00 c 0.80,0.32 0.62,1.04 0,0 z m -2.72,0.04 c 1.24,0.70 -0.28,0.51 0,-2e-6 l 0,2e-6 z m -7.46,0.00 c 0.71,0.23 -0.43,0.01 0,0 z m 2.60,0.00 c 0.33,0.04 -0.24,0.09 0,0 z m 12.52,0.00 c -0.08,0.23 0.09,0.25 0,0 z m -5.73,0.07 c 0.37,0.05 -0.36,0.06 0,0 z m -7.79,0.00 c 1.05,0.42 -0.05,0.64 -0.22,0.21 l 0.09,-0.17 0.13,-0.04 2e-6,2.8e-5 z m 7.19,0.06 c 0.03,0.50 -0.73,-0.02 0,0 z m -2.78,0.05 c 1.00,0.19 -1.38,0.09 0,2.2e-5 l 0,-2.2e-5 z m -3.78,0.01 c 1.16,0.44 0.31,0.82 0,0 z m -8.83,0.02 c 0.03,0.36 0.42,0.18 0,0 z m -3.45,0.05 c -0.70,0.63 -0.03,0.77 0,0 z m 17.06,0 c 0.64,0.24 -1.47,0.17 0,0 z m 2.46,0.03 c 0.81,0.19 -0.29,0.47 0,0 z m -5.77,0.04 c 0.37,0.26 0.16,0.45 0,0 z m -3.27,0.07 c 0.82,0.28 2.11,0.51 0.34,0.51 -0.11,-0.21 -0.69,-0.21 -0.34,-0.51 z m -12.55,0.02 c 0.16,1.04 -0.29,2.39 -0.05,0.57 l 0.01,-0.41 0.04,-0.16 -4e-6,0 z m 20.82,0.05 c 0.27,0.20 -0.27,0.20 0,0 z m 4.61,0 c 0.46,0.84 -0.32,0.87 0,0 z m -8.20,0.00 c 0.51,0.05 -0.51,0.05 0,0 z m 8.57,0 c 0.45,0.92 0.12,2.21 0.07,0.51 0.12,-0.07 -0.26,-0.45 -0.07,-0.51 z m -10.41,0.02 c 0.75,0.45 1.11,1.78 0.23,0.47 0.02,-0.12 -0.43,-0.34 -0.23,-0.47 z m 0.92,0.04 c 0.76,0.31 0.02,0.57 0,0 z m -16.69,0.00 c 0.33,1.00 -0.45,1.72 0,0 z m 19.17,0.03 c 0.31,0.16 -0.52,0.13 0,0 z m 0.70,0.03 c 0.26,0.11 -1.01,0.22 0,0 z m -1.10,0.00 c 0.54,0.05 -0.54,0.17 0,0 z m 10.15,0 c 0.38,0.17 -0.39,0.36 0,0 z m -8.66,0.00 c 0.23,0.27 -0.69,0.20 0,0 z m -11.86,0.03 c -0.51,1.35 -0.14,1.24 0,0 z m 2.88,0.04 c -0.51,0.53 -1.00,1.98 -0.22,0.47 -0.08,-0.14 0.46,-0.34 0.22,-0.47 z m 6.32,0.03 c 0.71,-0.07 0.65,1.49 0.10,0.22 -0.09,-0.06 -0.53,-0.18 -0.10,-0.22 z m 4.68,0.12 c 0.56,0.12 -0.46,0.12 0,0 z m -1.36,0.00 c -0.02,0.32 -2.11,0.30 -0.38,0.06 l 0.28,-0.04 0.10,-0.01 -1e-6,-8e-6 z m -2.18,0.00 c 0.37,0.18 0.02,0.67 -1e-6,-3e-6 l 1e-6,3e-6 z m 8.65,0.02 c -0.15,0.61 0.55,1.91 0.13,0.37 l -0.04,-0.22 -0.08,-0.14 -1.5e-5,-2e-6 z m -23.36,0.05 c -0.08,0.23 0.09,0.25 0,0 z m 15.62,0.01 c 0.18,0.41 -0.47,0.39 0,0 z m 0.92,0.13 c 0.33,0.04 -0.24,0.10 0,0 z m 0.54,0 c 0.48,0.04 -0.49,0.06 0,0 z m -12.54,0.00 c -0.08,0.22 0.08,0.27 0,0 z m 17.58,0 c 0.08,0.27 -0.08,0.22 0,0 z m -26.85,0.00 c 0.15,1.09 -0.84,1.10 0,0 z m 11.45,0.04 c -0.61,0.83 -1.51,1.48 -1.61,2.48 0.40,-0.92 1.19,-1.56 1.61,-2.48 z m -9.56,0.01 c -0.54,1.08 0.21,1.12 0,0 z m 15.83,0.07 c 0.49,0.13 -0.37,0.16 0,0 z m 3.68,0 c 0.44,0.02 -0.62,0.40 0,0 z m -0.53,0.00 c 0.50,0.12 -0.64,0.17 0,0 z m -19.56,0.03 c 0.07,0.43 -0.08,0.20 0,0 z m 19.20,0.04 c 0.23,0.30 -0.23,0.30 0,0 z m 1.32,0.02 c 1.35,0.21 -0.64,0.52 0,0 z m 7.47,0.01 c 0.96,0.67 -0.20,0.53 0,0 z m -25.37,0.04 c 0.40,0.45 0.00,1.20 0,0 z m 17.18,0.01 c 0.34,0.29 -0.69,0.13 0,0 z m -9.19,0.00 c -0.74,0.35 -0.14,0.71 0,0 z m -1.98,0.05 c -0.81,0.54 -1.29,3.15 -0.49,0.96 0.04,-0.30 0.58,-0.73 0.49,-0.96 z m 18.62,0.02 c -0.03,0.30 0.26,0.24 0,0 z m -25.66,0.02 c 0.47,0.88 -0.02,1.33 -0.07,1.15 -0.08,1.29 -0.30,1.32 -0.20,-0.01 0.77,-0.98 -0.63,-0.14 0.27,-1.14 l 5.5e-5,-10e-7 z m 14.85,0.03 c 0.49,0.24 -0.36,0.17 0,0 z m -5.25,0.07 c 0.66,0.38 -0.84,0.24 0,0 z m -11.17,0.01 c 0.29,0.81 -0.40,1.03 1.4e-5,0 l -1.4e-5,0 z m 2.01,0 c 0.60,0.89 -0.36,3.75 -0.09,1.32 -0.11,-0.40 -0.09,-0.95 0.09,-1.32 z m 5.83,0.06 c -0.45,0.29 0.24,0.15 0,0 z m 9.65,0.00 c 0.29,0.28 -0.06,0.43 0,0 z m 11.44,0 c 0.33,0.04 -0.24,0.09 0,0 z m -13.26,0.01 c 0.45,0.26 0.04,0.40 0,0 z m 10.71,0.01 c 0.12,1.20 0.73,1.93 0,0 z m -27.00,0.03 c 0.27,0.80 -0.57,1.06 0,0 z m 3.97,0.00 c 0.09,0.47 -0.34,0.46 0,0 z m 18.53,0 c 0.43,0.23 -0.43,0.16 0,0 z m -1.95,0.00 c 0.51,0.05 -0.51,0.05 0,0 z m 7.43,0.02 c 0.15,1.02 0.16,0.08 0,0 z m 0.33,0.04 c -0.15,0.20 0.27,0.16 0,0 z m -8.42,0.08 c 0.88,0.15 -0.42,0.18 0,0 z m -16.88,0.07 c 0.80,0.12 -0.01,1.49 -0.11,1.73 -0.02,-0.57 -0.06,-1.18 0.11,-1.73 z m 5.22,0 c -0.59,1.00 -0.17,0.87 0,0 z m 1.39,0.02 c -1.04,0.09 -1.70,3.51 -0.92,1.33 0.14,-0.55 0.67,-0.88 0.92,-1.33 z m -8.01,0.06 c 0.26,1.11 -0.31,1.00 0,0 z m -2.53,0.02 c 0.22,0.21 -0.36,0.11 0,0 z m 29.72,0.00 c 0.87,0.07 -0.24,0.42 0,0 z m -7.11,0.04 c 0.62,0.18 -0.45,0.09 0,0 z m -15.89,0.01 c -0.09,0.23 0.09,0.25 0,0 z m -4.43,0.02 c 0.26,0.47 -0.68,0.67 0,0 z m 26.31,0.07 c -0.08,0.24 0.08,0.36 0,0 z m -7.77,0.04 c 0.38,0.17 -0.39,0.36 0,0 z m -0.46,0.00 c 0.33,0.04 -0.24,0.09 0,0 z m -14.67,0.01 c 0.53,0.30 -0.42,0.82 0,0 z m 21.43,0.00 c 0.34,0.16 -0.23,0.35 0,0 z m -13.34,0.03 c 1.25,0.10 3.97,0.19 3.98,1.63 0.86,0.12 0.52,1.34 0.18,0.20 -0.91,-1.51 -3.11,-1.07 -4.38,-1.80 l 0.21,-0.03 -2e-6,-1e-6 z m 7.94,0.11 c 0.76,0.29 -0.79,0.08 0,0 z m 0.92,0.00 c 0.22,0.21 -0.36,0.11 0,0 z m 7.99,0.13 c 0.51,0.48 -0.14,0.15 0,0 z m -26.16,0.02 c 0.02,0.91 0.85,-0.69 0.16,0.81 -0.11,0.87 0.16,2.18 -0.23,1.30 -0.18,0.66 -0.44,-2.27 0.07,-2.12 z m 24.19,0.01 c -0.09,0.25 0.08,0.44 0,0 z m -17.26,0.03 c -0.92,0.35 0.02,0.64 0,0 z m 2.04,0.02 c 1.35,0.25 2.93,0.33 3.91,1.01 -0.45,0.62 -1.33,-0.81 -1.26,-0.15 -0.86,-0.30 -2.45,-0.13 -2.64,-0.86 z m 7.30,0.03 c -0.31,0.32 -0.55,0.18 5e-6,3.8e-5 l -5e-6,-3.8e-5 z m -19.55,0.01 c 0.50,0.40 -0.36,0.84 0,0 z m 31.10,0 c 0.25,0.20 -0.18,0.12 0,0 z m -30.28,0.03 c 0.11,0.32 -0.09,0.27 0,0 z m 19.13,0.00 c 0.57,0.14 0.14,0.34 0,0 z m -9.17,0.03 c 0.94,0.37 1.51,0.14 0.60,0.57 -1.07,-0.22 -0.18,-0.06 -0.60,-0.57 l -4e-6,-5e-6 z m 18.23,0.01 c 0.55,0.26 0.37,0.66 0,0 z m -7.75,0.05 c 0.29,0.19 -0.99,0.47 0,-10e-7 l 0,10e-7 z M 14.20,22.57 c 0.82,-0.00 -0.19,3.05 -0.09,0.77 0.02,-0.25 -0.01,-0.53 0.09,-0.77 z m 3.83,0 c -0.40,1.09 0.09,1.27 0,0 z m 9.80,0.10 c 0.51,0.37 -0.40,0.04 0,0 z m 1.77,0.15 c 1.40,0.26 0.06,0.55 0,0 z m 11.33,0.04 c 0.45,0.68 1.53,0.72 0.17,0.07 l -0.16,-0.07 -0.00,0 7e-5,3.8e-5 z m -1.19,0.04 c 0.49,0.24 0.33,0.50 0,0 z m -16.47,0.01 c 1.09,0.16 -0.92,0.31 0,0 z m 19.83,0.00 c 1.17,0.32 0.18,0.71 0,0 z m -18.71,0.10 c 1.65,0.23 -2.77,0.39 0,-3.3e-5 l 0,3.3e-5 z m 4.01,0.01 c 0.50,0.21 -0.23,0.19 0,0 z m -15.98,0.00 c 0.26,1.26 -0.34,1.57 0,0 z m 16.80,0.04 c 1.15,0.27 0.29,0.46 0,0 z m -6.99,0.02 c 0.50,0.21 -0.23,0.20 0,0 z m -10.90,0.07 c 0.64,0.58 -0.25,0.32 0,0 z m 3.38,0.01 c 0.54,0.19 0.33,2.37 0.11,0.95 -0.31,1.19 -0.26,-0.75 -0.11,-0.95 z m 25.13,0.02 c 0.99,0.80 0.55,1.40 0,0 z m -2.21,0.06 c 0.50,0.71 0.59,1.92 0.07,0.47 -0.01,-0.16 -0.20,-0.30 -0.07,-0.47 z m -16.17,0.03 c 0.97,0.00 2.29,0.20 0.52,0.15 -1.19,-0.18 1.16,0.62 -0.08,0.44 -0.09,-0.00 -0.84,-0.49 -0.43,-0.60 z m -10.70,0.01 c 0.25,0.20 -0.18,0.12 0,0 z m 5.75,0.03 c 0.34,0.15 -0.23,0.37 0,0 z m 22.00,0.07 c -0.18,0.23 0.21,0.35 0,0 z m -9.17,0.01 c 0.48,0.00 0.12,0.26 0,0 z m 13.07,0.09 c 0.39,0.69 1.37,0.90 0,0 z m -15.71,0.01 c 0.25,0.20 -0.18,0.11 0,0 z m -1.75,0.00 c 0.27,0.11 -0.47,0.12 0,0 z m -1.16,0.03 c 1.21,0.36 -1.84,0.32 0,0 z m -2.44,0.14 c 0.73,0.12 0.40,0.38 0,0 z m 19.33,0.04 c 0.62,0.34 -0.11,0.23 0,0 z m -25.38,0.00 c 0.28,0.73 0.18,2.95 -0.09,0.79 0.07,-0.21 -0.14,-0.61 0.09,-0.79 z m 3.55,0.00 c 1.42,0.83 0.35,0.54 0.28,0.67 1.32,0.32 1.18,0.84 -0.01,0.32 0.83,0.41 -0.22,0.47 1.13,0.70 0.92,0.23 -2.20,0.49 -0.82,0.08 -1.39,-0.21 -1.37,-0.30 -0.38,-0.33 -0.95,-0.13 -0.89,-0.20 -0.16,-0.28 -0.83,-0.28 0.46,0.08 -0.07,-0.99 l 0.04,-0.18 -3.8e-5,5.5e-5 z m 22.28,0.06 c 1.44,0.58 0.06,0.45 0,0 z m -2.58,0.02 c -0.23,0.36 0.34,0.16 0,0 z m -10.08,0.08 c 0.35,0.00 0.11,0.27 0,0 z m -5.33,0.04 c 1.23,-0.03 1.38,0.32 0.07,0.21 -0.27,0.04 -0.84,-0.24 -0.07,-0.21 z m -7.02,0.03 c 0.46,0.22 -0.35,0.19 0,0 z m 24.10,0.05 c 0.74,0.43 0.13,0.60 0,0 z m -23.47,0.01 c 0.26,0.24 -0.03,0.30 0,0 z m -3.60,0.07 c 0.20,0.33 0.06,1.59 0,0 z m 30.47,0.07 c 0.37,0.20 -0.10,0.46 0,0 z m -27.99,0.06 c 0.31,0.58 -0.29,0.78 0,0 z m 25.44,0 c 1.96,1.05 1.66,3.71 1.55,5.60 -1.04,0.98 -1.79,2.14 -2.36,3.56 -1.35,-0.72 0.36,-3.15 0.34,-4.65 0.08,-1.56 1.49,-3.00 0.45,-4.50 z m -1.19,0.02 c 0.30,0.66 -0.05,0.67 0,0 z m -13.31,0.05 c 0.50,0.21 -0.23,0.19 0,0 z m -0.94,0.01 c 0.42,0.17 -0.05,0.38 0,0 z m -7.41,0.06 c 0.35,0.25 -0.07,0.24 2e-6,0 l -2e-6,0 z m 1.93,0 c 1.36,0.38 1.03,0.89 0.09,0.20 -0.15,-5.66e-4 -0.63,-0.15 -0.09,-0.20 z m 2.41,0 c 0.41,0.19 -0.41,0.19 0,0 z m 18.25,0 c 0.42,0.31 -0.07,0.51 0,0 z m 1.34,0.07 c 0.60,0.54 0.01,0.30 0,0 z m -18.16,0.01 c 1.20,0.06 -2.53,0.50 -0.34,0.02 l 0.34,-0.02 0,3.9e-5 z m -6.34,0.00 c 0.32,0.21 -0.10,0.50 0,0 z m 25.62,0.00 c 0.90,0.32 0.54,2.08 0.22,0.28 0.66,1.44 -0.90,0.00 -0.22,-0.28 z m -28.95,0.04 c 0.27,0.20 -0.28,0.19 0,0 z m 28.13,0 c 0.36,0.21 0.24,0.39 0,0 z M 24.91,24.83 c 1.03,-0.25 0.34,2.02 0.70,0.24 1.36,-0.32 -0.14,0.89 0.40,1.97 -0.17,0.55 -0.55,-1.90 -0.45,-0.19 -0.13,0.91 -0.43,1.49 -0.48,2.40 0.03,-1.39 -0.60,-2.48 -0.35,-3.88 -0.77,-0.13 -1.88,-0.48 -0.18,-0.21 0.74,-0.67 0.52,3.61 0.57,1.07 -0.29,-0.78 0.50,-1.36 -0.20,-1.40 z m 2.58,0.10 c 0.48,0.86 -0.18,0.50 0,0 z m 0.37,0 c 0.28,0.28 -0.25,0.40 0,0 z m 10.94,0.07 c -0.18,0.12 0.25,0.20 0,0 z m 3.84,0.01 c 0.65,0.77 0.30,2.84 0.25,0.80 -0.46,-0.61 -0.13,-0.51 -0.25,-0.80 z m -15.61,0.02 c 0.66,0.39 -0.57,0.25 9e-6,-1e-6 l -9e-6,1e-6 z m -7.93,0.03 c 0.28,0.44 -0.06,-0.06 0,0 z m 2.67,0.00 c 0.57,0.21 -0.28,0.04 0,0 z m 0.84,0.00 c 0.48,0.04 -0.50,0.05 0,0 z m 17.37,0.09 c 0.36,0.38 -0.17,0.55 0,0 z m -19.79,0.14 c 0.62,0.04 -0.60,0.04 0,0 z m 22.82,0.03 c 1.07,0.12 0.56,1.84 0.50,0.87 -0.00,-0.31 -0.45,-0.54 -0.50,-0.87 z m -26.30,0.03 c 0.34,0.23 -0.19,0.18 0,0 z m 7.05,0.00 c 0.82,0.08 -0.65,0.09 0,0 z m -7.92,0.00 c 0.26,0.16 0.04,0.33 0,0 z m 6.88,0.07 c 0.52,0.37 -0.40,0.04 0,0 z m 0.53,0.08 c 0.97,0.04 0.92,0.00 0.99,0.78 0.47,-1.45 0.66,3.81 0.17,1.82 -0.27,2.77 -0.22,-3.01 -0.07,-0.14 0.47,-0.45 -0.14,-1.68 -0.92,-1.65 1.09,0.40 0.36,-0.83 -0.17,-0.80 z m 2.81,0.03 c 0.64,1.17 -0.34,0.62 0,0 z m 13.60,0.06 c 0.52,0.52 0.28,1.01 0,0 z m -18.51,0.04 c 1.11,0.46 -0.49,0.13 0,0 z m -0.34,0.47 c 0.37,0.05 -0.36,0.06 0,0 z m 0.55,0.23 c 0.33,0.04 -0.24,0.09 0,0 z m -0.04,0.14 c 0.49,0.37 -0.64,0.05 0,0 z m 5.92,0.09 c 0.09,0.25 -0.09,0.23 0,0 z m -7.68,0.07 c 0.33,0.04 -0.23,0.10 0,0 z m 24.11,0.01 c 0.65,0.83 -0.75,-0.03 0,0 z m -24.15,0.28 c 0.85,0.24 0.21,0.55 0,0 z m 23.76,0.15 c 0.52,0.35 -0.64,0.79 0,0 z m -18.09,0.07 c -0.29,0.37 0.47,0.44 -3e-6,0 l 3e-6,0 z m -4.82,0.00 c 1.67,0.05 -0.60,0.24 0,0 z m -1.60,0.12 c 0.93,0.00 0.22,0.36 9e-6,1.8e-5 l -9e-6,-1.8e-5 z m 20.55,0.02 c 0.31,0.47 -0.16,0.54 0,0 z m 4.47,0.14 c 0.42,0.60 -0.20,0.40 0,0 z m -3.43,0.00 c 0.25,0.20 -0.18,0.12 0,0 z m -20.27,0.01 c 0.91,0.49 -0.10,0.30 0,0 z m 19.95,0.14 c 0.39,0.41 -0.21,0.51 0,0 z m -20.95,0.00 c 0.89,0.21 -0.36,0.19 0,0 z m 4.66,0.10 c 0.07,0.43 -0.08,0.20 0,0 z m 2.81,0.04 c 0.27,0.15 -0.14,0.20 0,0 z m -2.61,0.15 c 0.40,0.74 -0.15,2.06 -0.02,0.40 l 0.02,-0.39 0.00,-0.00 -2.6e-5,5.3e-5 z m 19.81,0.19 c 0.72,0.57 -0.27,0.64 0,0 z M 23.66,28.36 c 0.37,0.50 -0.18,2.84 -0.07,0.96 0.05,-1.37 -1.10,1.68 -0.29,-0.46 l 0.21,-0.35 0.16,-0.14 -1.2e-5,-5e-6 z m -4.64,0.03 c 0.03,0.96 -0.98,0.55 0,0 z m 16.72,0.22 c -2.01,0.23 -4.27,0.21 -5.89,1.62 -0.84,0.23 -2.14,2.97 -1.13,2.45 0.02,-0.94 0.33,-1.76 0.24,-0.25 0.01,-2.04 2.23,-3.08 4.03,-3.33 1.74,-0.30 3.95,-0.61 5.35,0.26 -0.62,-0.81 -1.68,-0.70 -2.60,-0.75 z m -10.97,0.09 c 0.77,0.92 -0.50,1.93 -0.25,0.58 0.05,0.72 0.30,-0.38 0.25,-0.58 z m 18.87,0 c 0.73,0.75 0.13,1.17 0,0 z m -22.66,0.00 c 0.28,0.18 -0.62,0.09 0,0 z m 18.61,0.03 c 0.33,0.15 -0.32,0.46 0,0 z m -13.43,0.11 c 0.31,0.38 -0.41,0.09 0,0 z m -0.44,0.07 c 0.24,0.38 -0.25,0.12 0,0 z m 17.52,0.00 c 0.24,0.22 -0.03,0.37 0,0 z m -24.65,0.12 c 0.62,0.62 0.19,0.89 0.08,1.45 -0.62,0.19 -0.61,2.88 -0.13,1.50 -0.14,-0.50 1.01,0.44 0.10,0.55 -0.51,1.13 -0.89,-0.88 -0.65,-1.27 -0.31,0.69 -0.45,1.41 -0.86,1.56 0.24,-1.05 1.22,-2.87 1.23,-3.42 -0.86,1.56 -1.16,3.50 -2.12,4.93 -0.31,-0.42 0.28,-0.74 -0.29,-0.80 0.53,-0.73 0.83,-1.20 0.48,0.28 0.20,-0.69 0.73,-2.05 0.29,-1.51 -0.07,-0.43 0.80,-1.85 0.52,-0.91 0.30,-1.07 1.30,-3.39 1.12,-1.50 -0.41,0.79 -0.38,1.80 0.01,0.26 0.05,-0.36 0.44,-0.74 0.20,-1.12 z m 21.27,0.00 c 0.09,0.25 -0.09,0.23 0,0 z m -19.13,0.00 c 0.84,0.21 -0.74,0.22 -0.07,0.00 l 0.07,-0.00 -1e-6,-4.2e-5 z m 18.83,0.08 c 0.39,0.35 0.02,0.87 0,0 z m -20.01,0.01 c 0.38,0.18 -0.38,0.14 0,0 z m 19.07,0.12 c -0.42,0.17 0.44,0.22 0,0 z m 4.60,0.00 c 0.27,0.09 -0.18,0.41 0,0 z m -17.57,0.15 c 0.27,0.15 -0.14,0.20 0,0 z m -5.23,0.00 c 1.07,-0.02 -0.86,0.51 -0.07,0.73 -0.87,0.18 -0.10,1.32 -0.95,1.40 0.81,-1.06 -1.16,0.62 -0.22,-0.62 0.72,-0.78 0.46,-0.50 1.25,-1.51 z m 19.72,0.06 c 0.28,0.19 -0.18,0.37 0,0 z m 0.76,0.08 c -0.92,0.31 1.77,0.36 0,0 z m -17.53,0.03 c 0.30,1.10 -0.55,1.23 0,0 z m 20.50,0.07 c 0.40,1.01 -0.20,1.58 0.04,0.26 l -0.04,-0.26 -8e-6,10e-7 z m -0.49,0.00 c 0.43,0.87 0.32,1.74 -0.18,1.28 -0.63,-0.22 0.70,-0.56 0.18,-1.28 z m -1.38,0.03 c -0.64,0.41 0.45,0.00 0,0 z m -24.28,0.07 c 0.12,1.04 -0.82,0.77 0,0 z m 21.84,0.02 c 0.68,0.46 -0.09,0.70 0,0 z m -15.30,0.06 c 0.09,0.25 -0.09,0.23 0,0 z m 15.82,0.05 c 0.27,0.18 -0.17,0.37 0,0 z m -16.04,0.12 c 1.07,0.60 -0.34,0.86 0,0 z m -0.26,0.05 c 0.41,1.22 -0.45,1.30 0,0 z m 13.97,0.13 c -0.47,0.14 0.36,0.45 0,0 z m 4.97,0.02 c -0.05,0.49 -0.38,0.29 0,0 z m -2.76,0.06 c 0.09,0.25 -0.09,0.23 0,0 z m -2.84,0.00 c 0.00,0.44 0.07,0.08 0,0 z m -14.23,0.00 c -0.16,1.50 0.25,1.72 0,0 z m 21.61,0.05 c 0.66,0.28 2.59,0.78 0.85,0.10 -0.28,-0.07 -0.57,-0.07 -0.85,-0.10 z m -4.95,0.08 c 0.47,0.37 -0.30,0.46 0,0 z m -3.15,0.09 c -0.15,0.36 0.51,0.05 0,0 z m 6.48,0.07 c 0.34,1.09 -0.57,0.77 0,0 z m -23.33,0.06 c -0.84,0.44 0.68,0.15 0,0 z m 20.34,0.10 c 0.20,0.13 -0.43,0.98 0,0 z m -9.05,0.00 c -0.23,1.03 -0.01,1.04 0.31,0.23 -0.08,1.31 0.02,0.48 0.27,-0.01 -0.49,1.19 1.03,1.18 0.38,0.13 -0.40,1.34 0.33,-0.89 -0.97,-0.35 z m 4.88,0.04 c -0.68,0.26 0.52,0.13 0,0 z m 6.67,0.04 c 0.60,0.24 -0.93,1.33 -0.03,1.50 0.37,-1.37 0.55,1.28 -0.12,0.49 -0.87,-0.37 -1.02,1.18 -1.44,0.58 1.15,-0.77 0.41,-1.79 1.60,-2.58 z m -11.89,0.06 c -0.55,1.16 0.24,0.99 0,0 z m -0.63,0.04 c -0.70,1.41 0.21,1.19 0,0 z m 0.29,0 c -0.36,1.27 0.35,0.97 0,0 z m -0.68,0.07 c -0.41,1.00 0.18,1.30 0,0 z m 2.71,0.00 c -1.08,1.87 2.96,-0.25 0.80,0.38 -0.79,0.79 -0.58,0.25 -0.80,-0.38 z m 2.69,0.07 c -0.59,0.25 0.55,0.06 0,0 z m -10.28,0.07 c -0.10,0.45 0.04,0.00 0,0 z m 9.59,0.09 c 0.45,0.39 0.08,0.09 0,0 z m 5.13,0.09 c 0.27,0.85 -0.89,1.42 0,0 z m 0.35,0.03 c 0.28,0.20 -0.25,0.31 0,0 z m -16.69,0.24 c -0.12,0.36 0.35,0.37 0,0 z m 19.30,0.06 c 0.27,0.32 -0.14,0.28 0,0 z m -17.78,0.06 c 0.41,0.20 -0.76,0.09 0,0 z m 18.25,0.03 c 0.09,0.25 -0.09,0.23 0,0 z m -3.23,0.10 c 0.25,0.30 -0.21,0.40 0,0 z m -14.26,0.46 c 1.63,0.26 1.12,1.09 0,0 z m -7.50,0.03 c 0.37,0.14 0.05,0.69 0,0 z m 6.90,0.12 c 0.41,0.13 -0.67,0.14 0,0 z m -1.55,0.03 c 0.50,0.21 -0.23,0.20 0,0 z m 8.04,0 c 0.87,0.22 -0.74,0.52 0,0 z m 8.22,0 c 0.27,0.25 -0.19,0.68 0,0 z m -14.41,0.04 c 0.88,0.32 3.27,0.70 1.17,0.66 -0.19,-0.38 -3.04,-0.24 -1.17,-0.66 z m 4.73,0.16 c 2.22,0.34 -1.15,1.59 -0.71,1.25 -0.89,0.53 -0.60,-0.25 -1.64,-0.18 1.43,0.03 -1.51,-0.38 0.41,-0.58 0.66,0.44 2.77,0.56 1.75,-0.22 -0.05,-0.12 0.07,-0.25 0.19,-0.25 z m 9.31,0.09 c 0.18,0.61 -0.48,2.46 -0.50,1.41 -0.47,0.92 0.52,-1.40 -0.34,0.18 -0.59,0.69 -0.61,2.48 -0.82,0.79 0.00,-0.34 0.47,-0.94 -0.45,-0.17 0.42,-0.83 1.26,-0.78 1.21,-0.76 0.27,-0.52 0.92,-0.81 0.90,-1.46 z m 5.57,0.17 c -0.58,0.35 1.49,0.11 0,0 z m -0.94,0.02 c -0.99,0.24 -1.15,0.91 -0.03,0.25 0.68,0.14 1.10,0.03 0.03,-0.25 z m -25.91,0.28 c 0.50,0.21 -0.23,0.19 0,0 z m 6.23,0.18 c -1.65,0.06 -0.91,0.60 0.24,0.07 l -0.03,-0.06 -0.20,-0.01 0,-4e-6 z m 14.35,0.07 c 0.22,0.20 -0.35,0.12 0,0 z m -20.69,0.08 c -0.22,0.34 -0.10,0.17 0,0 z m 21.61,0.07 c 0.25,0.29 -0.40,0.98 0,0 z m -23.31,0.04 c 0.12,0.66 -0.35,0.35 0,0 z m 6.64,0.05 c -0.79,0.27 -1.52,0.73 -2.40,0.53 -0.76,-0.15 -3.86,0.10 -1.96,0.18 0.25,0.27 1.22,-0.26 1.03,0.23 1.01,-0.51 2.54,0.12 3.33,-0.95 z m 7.30,0.10 c -0.01,0.47 -0.96,0.61 0,0 z m -12.76,0.00 c 0.28,0.53 -0.46,0.63 0,0 z m 21.82,0.03 c 0.08,0.45 -0.09,0.25 0,0 z m -4.27,0.35 c -1.16,0.93 -0.96,0.44 0,0 z m -20.32,0.00 c -1.56,0.92 -2.54,3.10 -4.55,3.80 -1.06,0.33 -2.57,2.66 -1.66,2.63 0.61,-1.10 0.32,-0.54 0.01,-0.42 0.33,-1.19 1.61,-1.84 2.60,-2.61 1.76,-0.51 2.33,-3.27 4.05,-3.19 0.80,-0.25 -0.23,-0.17 -0.46,-0.19 z m 14.64,0.00 c 0.61,0.05 -0.51,0.05 0,0 z m 4.53,0 c -0.12,0.40 -0.77,0.15 0,0 z m -13.79,0.30 c -0.54,0.38 0.39,0.04 0,0 z m 13.03,0.07 c 0.64,0.21 -1.08,0.21 0,0 z m -1.40,0.00 c -0.91,0.73 -0.22,0.39 0.44,0.29 -0.66,0.72 -3.39,1.05 -1.28,0.04 0.26,-0.14 0.54,-0.29 0.84,-0.34 z m 0.96,0.38 c 0.67,0.26 -1.80,0.61 -0.21,0.03 l 0.21,-0.03 z M 30.04,35.34 c -0.68,0.87 -2.77,1.15 -0.83,0.37 0.22,-0.22 0.54,-0.30 0.83,-0.37 z m -2.87,0.14 c -1.03,0.40 -2.55,1.62 -2.89,2.14 0.94,-0.73 1.90,-1.48 2.89,-2.14 z m 10.84,0.09 c 0.17,0.36 -0.34,0.39 0,0 z m -11.93,0.21 c -1.78,0.67 -2.68,2.71 -4.49,3.25 -0.82,0.24 -3.39,1.35 -1.33,0.23 1.32,-0.74 -2.55,1.04 -0.60,-0.03 0.58,-0.42 3.45,-1.68 1.51,-0.43 -0.37,0.66 1.48,-0.77 1.79,-1.32 0.71,-0.55 2.02,-1.61 0.52,-0.58 -1.49,1.31 -3.43,2.02 -5.23,2.80 -1.42,0.67 -3.09,1.35 -4.18,2.29 0.70,0.54 2.12,-0.75 3.27,-0.67 0.74,-0.18 3.59,-0.81 1.37,-0.61 0.63,-1.10 2.97,-1.26 2.90,-1.39 -0.44,-0.41 2.20,0.16 0.09,0.40 -0.84,0.24 -2.63,1.78 -1.83,1.30 0.75,-0.39 4.03,-1.45 1.50,-0.78 -2.13,0.79 1.18,-0.84 1.85,-0.87 0.58,-0.24 4.17,-0.93 1.86,-0.65 -0.66,0.53 -3.93,0.49 -1.63,0.10 1.80,-0.40 3.68,-0.61 4.92,-1.36 2.24,-0.65 -1.64,0.22 -2.26,0.51 -1.00,0.36 -4.63,1.52 -2.35,-0.24 0.71,-0.71 1.58,-1.30 2.34,-1.91 z m 8.13,0.04 c -2.78,0.19 -5.58,0.65 -8.26,1.44 1.58,-0.23 3.75,-0.77 5.58,-0.98 0.95,-0.22 1.74,-0.14 1.90,0.05 1.68,-0.48 0.28,0.05 -0.54,0.39 1.02,-0.32 1.83,-0.03 1.64,0.15 1.36,0.32 0.57,-1.24 -0.31,-1.05 z m -6.62,0.31 c 0.86,0.33 -1.94,0.25 0,5e-6 l 0,-5e-6 z m 9.42,0.20 c -0.12,1.02 -1.20,0.59 2e-6,-6e-6 l -2e-6,6e-6 z m -0.71,0.07 c -0.01,0.34 -0.41,0.21 0,0 z m -6.61,0.37 c -0.91,0.05 -3.28,0.68 -3.28,0.87 0.94,-0.42 3.02,-0.57 3.28,-0.87 z m -4.01,0.55 c -1.24,0.30 -0.40,0.41 0,0 z M 14.68,37.84 c 0.33,0.04 -0.24,0.09 0,0 z m -0.13,0.53 c 0.41,0.26 -0.22,0.22 0,0 z m -0.06,0.31 c -0.07,1.15 0.13,0.16 0.18,0.68 0.42,0.76 -0.88,0.40 -0.97,0.74 -1.43,0.26 -0.57,2.19 -0.04,0.22 0.75,1.49 -1.59,1.94 -1.01,0.27 0.34,-1.28 1.68,-0.85 1.85,-1.92 z m 0.42,0.54 c 0.29,0.24 -0.34,0.67 0,0 z m 4.09,0.66 c 0.21,0.63 -0.75,0.33 0,0 z m -10.01,0.04 c -0.72,0.57 -0.98,2.25 -0.24,0.50 -0.04,-0.19 0.31,-0.30 0.24,-0.50 z m 9.13,0.00 c -0.24,0.67 -3.07,1.29 -0.94,0.35 0.30,-0.13 0.61,-0.28 0.94,-0.35 z m 0.31,0.30 c 0.48,0.87 -1.12,0.58 -2e-6,0 l 2e-6,0 z m -0.68,0.24 c 0.04,0.54 -0.77,0.12 0,0 z m 4.63,0.07 c -0.86,0.08 -2.84,0.58 -1.57,0.57 0.50,0.09 1.51,-0.38 1.57,-0.57 z m -10.38,0.32 c 0.07,0.23 -0.38,0.50 0,0 z m 8.95,0.36 c -0.89,0.15 0.42,0.18 0,0 z m -5.13,0.03 c 0.53,0.05 -0.14,0.23 0,0 z m -0.49,0.12 c -0.51,0.51 0.09,-0.06 0,0 z m -3.25,0.00 c 0.44,0.72 -1.30,1.22 0,0 z m 2.29,0.37 c 0.58,0.21 -0.57,0.18 0,0 z" />
</svg>
