<?xml version="1.0" encoding="UTF-8" standalone="no"?>
<!-- Created with Inkscape (http://www.inkscape.org/) -->
<svg xmlns:dc="http://purl.org/dc/elements/1.1/" xmlns:cc="http://creativecommons.org/ns#" xmlns:rdf="http://www.w3.org/1999/02/22-rdf-syntax-ns#" xmlns:svg="http://www.w3.org/2000/svg" xmlns="http://www.w3.org/2000/svg" version="1.1" width="100%" height="100%" viewBox="0 0 48 48" id="svg2" xml:space="preserve">
<defs id="defs516" />
<path d="m 3.12,2.13 c 0.06,1.12 -0.31,2.56 0.14,3.53 0.07,0.24 0.21,0.41 0.31,0.61 l -0.01,-0.00 c 0.05,0.18 -0.11,0.59 0.09,0.63 l 0.00,-0.00 c 0.05,0.18 0.10,0.43 0.31,0.60 a 0.13,0.13 0 0 0 0.04,0.02 l -0.00,0.00 c 0.18,0.28 0.25,0.67 0.60,0.80 0.07,0.17 0.16,0.32 0.20,0.45 0.04,0.14 0.05,0.25 -0.03,0.41 A 0.17,0.17 0 0 0 4.77,9.39 C 4.55,10.02 4.03,10.34 3.76,10.93 3.59,11.02 3.50,11.20 3.46,11.36 3.39,11.41 3.32,11.47 3.25,11.53 a 0.17,0.17 0 0 0 -0.04,0.05 C 3.03,11.76 2.96,12.06 2.76,12.23 l 0.03,0.02 a 0.12,0.12 0 0 0 -3.88e-4,7.96e-4 c -0.41,0.56 -0.48,1.38 -0.12,2.01 0.02,1.48 -0.31,2.59 -0.72,3.63 l 0.01,0.01 a 0.14,0.14 0 0 0 -0.02,0.03 c -0.38,0.79 -0.78,1.71 -0.77,2.65 l -0.02,-0.00 c -0.21,0.82 0.06,1.43 0.53,1.80 0.11,0.48 0.39,0.87 0.76,1.06 0.39,0.20 0.89,0.18 1.38,-0.10 0.35,-0.13 0.52,-0.03 0.91,-0.14 0.10,-0.28 0.28,-0.50 0.45,-0.72 -0.15,-1.59 1.15,-2.50 2.61,-2.79 0.10,-0.46 0.33,-0.80 0.72,-0.99 0.72,0.33 1.17,0.15 1.62,-0.27 0.61,0.94 1.54,1.57 1.95,2.71 0.01,0.07 0.02,0.13 0.02,0.19 -0.09,0.88 -0.62,2.49 0.00,3.20 0.00,0.08 0.00,0.17 0.01,0.27 l -0.01,-0.00 c -0.05,0.53 -0.03,0.84 0.36,1.08 l 0.01,-0.01 c 0.23,0.33 0.39,0.75 0.58,1.16 0.19,0.41 0.43,0.81 0.85,1.08 l -0.01,0.01 c 0.04,0.18 0.04,0.43 0.10,0.60 a 0.17,0.17 0 0 0 0.01,0.05 c 0.47,1.08 0.89,2.58 1.14,3.84 0.08,0.45 0.04,1.03 0.03,1.59 -0.01,0.55 7.35e-4,1.09 0.30,1.47 a 0.17,0.17 0 0 0 0.02,0.03 c 0.42,1.36 0.55,3.17 0.17,4.66 l 0.01,-0.00 c -0.05,0.27 -0.21,0.51 -0.38,0.77 -0.16,0.25 -0.34,0.53 -0.38,0.87 -0.64,0.56 -0.98,1.43 -1.23,2.40 0.13,0.04 0.22,0.13 0.36,0.18 l 0.00,-0.00 c 0.48,0.20 1.02,0.23 1.53,0.16 l -0.00,0.01 0.81,0 c 0.27,0.35 0.35,0.90 0.99,0.90 l -0.00,-0.01 c 0.14,0.02 0.27,0.02 0.38,0.04 a 0.14,0.14 0 0 0 0.06,-0.00 c 1.30,0.20 2.36,-0.49 2.44,-1.74 l -0.01,0.00 c 0.03,-0.17 -0.01,-0.33 -0.06,-0.46 -0.05,-0.13 -0.11,-0.25 -0.12,-0.35 l 0.02,0.00 0,-0.27 c 0.12,-0.15 0.51,-0.03 0.63,-0.18 0.72,-0.98 0.08,-2.39 0,-3.60 -0.15,-2.26 0.32,-4.35 0.54,-6.57 0.03,-0.17 0.34,-0.07 0.27,-0.36 -0.04,-0.28 -0.26,-0.39 -0.27,-0.72 0.61,-0.38 0.19,-1.79 0.90,-2.16 0.84,-0.43 1.14,0.35 1.71,0.54 0.31,-0.21 -0.33,-0.42 0,-0.63 0.21,0.25 0.49,0.50 0.81,0.18 0.39,0.53 1.36,0.49 1.89,0.90 0.48,-0.46 1.13,-0.27 1.62,-0.63 0.46,0.16 0.41,0.67 0.72,1.08 0.32,0.43 0.88,0.66 0.99,1.17 0.29,1.43 -0.93,2.35 -1.44,3.42 l 0.01,0.00 c -0.50,0.54 -0.78,1.21 -1.00,1.88 l -3.85e-4,-3.84e-4 c -0.36,0.67 -0.04,1.41 0.14,2.04 -0.07,0.36 -0.12,0.74 -0.07,1.11 0.05,0.38 0.23,0.75 0.59,1.03 0.29,0.39 0.09,1.29 0.49,1.57 0.16,-0.01 0.30,-0.05 0.36,-0.18 l -0.02,-0.02 c 0.50,-0.39 0.95,-0.87 1.35,-1.35 l 0.02,0.02 c 1.12,-0.63 0.36,-2.56 -0.09,-3.42 -0.26,-1.01 0.94,-1.51 1.17,-2.25 0.09,-0.31 -0.05,-0.69 0,-0.99 0.04,-0.24 0.49,-1.07 0.63,-1.26 0.37,-0.52 1.14,-0.82 1.35,-1.53 -0.45,-0.96 -3.12,-3.19 -0.90,-3.69 0.75,0.35 0.48,1.27 0.72,2.25 0.15,0.64 0.51,1.24 0.54,1.71 0.02,0.40 -0.14,0.77 -0.09,1.17 0.04,0.33 0.30,0.65 0.36,0.99 0.12,0.81 -0.09,1.58 0,2.43 l 0.01,-0.00 c -0.01,0.12 -0.01,0.24 0.00,0.36 l -0.01,-0.00 c 0.04,0.74 -0.07,1.30 -0.27,1.80 l 0.01,0.01 a 0.14,0.14 0 0 0 -0.03,0.04 c -0.11,0.26 -0.25,0.54 -0.35,0.84 -0.19,0.13 -0.02,0.62 -0.08,0.89 l 0.02,0.02 c -0.23,0.20 -0.31,0.48 -0.44,0.66 a 0.13,0.13 0 0 0 -0.01,0.03 c -0.46,0.54 -0.82,1.69 -0.36,2.34 0.10,-0.01 0.15,0.03 0.22,0.06 a 0.14,0.14 0 0 0 0.08,0.03 c 0.53,0.05 1.02,-0.05 1.50,-0.19 l -0.00,0.00 c 0.73,-0.10 1.11,-0.56 1.38,-1.13 0.08,-0.09 0.13,-0.21 0.14,-0.32 0.00,-0.11 -0.01,-0.21 -0.04,-0.30 -0.05,-0.15 -0.12,-0.29 -0.15,-0.40 l 0.01,0.00 c 0.03,-0.35 0.29,-0.48 0.45,-0.72 0.27,-1.72 -0.51,-3.27 -0.36,-4.59 0.12,-1.05 0.69,-1.51 0.81,-2.43 0.07,-0.58 -0.12,-1.30 0,-1.98 -0.65,-0.95 -0.94,-2.83 -0.18,-3.96 0.00,-0.21 -0.15,-0.26 -0.09,-0.54 0.33,-0.47 0.41,-1.20 0.81,-1.62 -0.10,-0.39 0.06,-1.08 0,-1.71 0.54,-0.14 0.47,-0.91 0.81,-1.26 -0.04,-0.25 -0.13,-0.46 -0.18,-0.72 0.70,-0.19 0.38,-1.24 0.18,-1.71 0.40,-0.65 -0.29,-0.93 -0.18,-1.80 -0.38,-0.33 -0.78,-0.65 -0.99,-1.17 0.82,-0.08 1.30,0.17 1.89,0.32 a 0.16,0.16 0 0 0 0.10,0.06 c 0.08,0.01 0.13,0.02 0.18,0.04 l -0.02,0.01 c 0.00,0.05 0.01,0.10 0.09,0.08 l 0.01,-0.03 c 0.11,0.11 0.24,0.22 0.42,0.27 a 0.18,0.18 0 0 0 0.05,0.01 c 0.87,0.52 1.67,1.12 1.76,2.44 0.23,0.27 0.30,-0.36 0.54,-0.09 0.20,0.84 0.75,1.34 0.72,2.43 0.54,0.48 0.78,1.25 1.35,1.71 l 7.96e-4,-0.00 c 0.43,0.42 0.86,0.80 1.18,1.30 a 0.15,0.15 0 1 0 0.25,-0.16 c -0.35,-0.55 -0.82,-0.96 -1.26,-1.39 l 0.01,-0.01 c -0.04,-0.35 -0.56,-0.58 -0.36,-0.90 0.54,0.05 0.42,0.77 0.90,0.90 0.01,-0.13 -0.03,-0.33 0.09,-0.36 0.68,0.12 1.09,0.53 1.53,0.90 l 0.02,-0.02 c 0.19,0.35 0.42,0.68 0.50,1.03 a 0.12,0.12 0 1 0 0.24,-0.05 c -0.08,-0.39 -0.31,-0.71 -0.50,-1.04 -0.04,-0.55 -0.75,-0.92 -0.45,-1.52 l 0.09,0 0.00,-0.00 a 0.15,0.15 0 0 0 0.02,0.01 c 0.44,0.29 0.80,0.75 0.99,1.25 a 0.15,0.15 0 0 0 0.28,-0.10 C 47.31,24.02 46.94,23.53 46.46,23.20 46.17,22.53 45.21,22.55 45.12,21.69 44.13,21.47 43.67,20.73 42.95,20.25 c 0.07,-1.00 -1.00,-0.85 -0.90,-1.89 -1.18,-0.25 -1.53,-1.34 -2.79,-1.53 l -0.01,0.01 c -0.09,-0.09 -0.22,-0.15 -0.34,-0.19 -0.54,-0.34 -1.40,-0.39 -1.88,-0.80 -0.42,0.24 -0.63,0.12 -0.99,-0.09 -0.32,0.17 -0.98,0.12 -1.20,-0.10 a 0.11,0.11 0 0 0 -0.00,-0.00 c -0.01,-0.02 -0.03,-0.04 -0.04,-0.06 l -0.00,0.02 c -0.45,-0.28 -0.93,-0.38 -1.43,-0.38 -0.48,-0.00 -0.97,0.08 -1.44,0.19 l 0.00,-0.01 c -0.39,-0.48 -1.04,-0.13 -1.69,-0.17 a 0.16,0.16 0 0 0 -0.04,-0.00 c -0.29,-0.02 -0.59,-0.05 -0.90,-0.06 -0.91,-0.03 -1.84,0.03 -2.70,0.44 a 0.16,0.16 0 0 0 -0.00,0.00 c -0.67,0.09 -1.45,0.07 -2.22,0.07 -0.28,-0.04 -0.31,-0.34 -0.63,-0.36 -1.15,0.10 -1.47,-0.63 -2.07,-1.08 -0.35,0.01 -0.27,0.39 -0.63,0.18 -0.12,-0.12 -0.12,-0.51 0,-0.63 -0.37,-0.02 -0.35,0.11 -0.63,0 -0.09,-0.26 -0.06,-0.65 -0.27,-0.81 -0.39,-0.06 -0.50,0.15 -0.90,0.09 -0.38,-0.37 -0.47,-1.02 -1.35,-0.90 -0.10,-0.10 -0.10,-0.31 -0.09,-0.54 -0.26,-0.12 -0.39,0.05 -0.81,0 0.01,-0.22 0.01,-0.43 -0.18,-0.45 -0.71,0.13 -1.00,-0.91 -1.89,-0.90 -0.33,-0.71 -1.51,-0.58 -1.71,-1.44 0.46,-1.33 2.67,-0.93 2.79,-2.61 0.83,-0.44 1.91,-1.05 1.71,-2.25 -0.67,-0.23 -1.37,0.23 -2.25,0.09 -0.78,0.65 -1.78,1.09 -2.61,1.71 -0.44,0.11 -0.87,0.31 -1.25,0.56 -0.57,0.17 -1.05,0.43 -1.54,0.69 -0.03,0.00 -0.06,0.00 -0.09,0.01 l 0.00,-0.01 -0.18,0 C 9.23,6.92 9.24,6.37 8.53,6.55 8.33,6.36 8.34,5.96 7.90,6.01 7.96,6.31 7.75,6.34 7.54,6.37 7.50,6.74 7.83,6.73 7.72,7.18 6.53,7.23 6.22,6.39 6.01,5.47 4.97,4.61 4.38,3.31 3.66,2.13 l -0.54,0 z M 15.83,4.38 c 0.19,0.24 -0.44,0.68 -0.63,0.54 0.05,-0.33 0.30,-0.47 0.63,-0.54 z M 4.29,5.02 C 4.58,5.12 5.13,5.69 4.75,5.91 4.73,5.66 4.56,5.44 4.36,5.29 l 0.02,-0.00 C 4.38,5.17 4.27,5.16 4.29,5.02 z M 14.51,5.28 c 0.08,-0.00 0.12,0.03 0.14,0.09 -0.16,0.67 -0.60,1.07 -1.35,1.17 0.18,-0.62 0.89,-0.72 1.17,-1.26 0.01,-0.00 0.02,-0.00 0.03,-0.00 z M 4.24,5.46 c 0.00,7.44e-5 0.01,9.31e-4 0.02,0.00 C 4.42,5.58 4.54,5.75 4.56,5.92 4.36,6.21 4.31,5.69 4.14,5.65 4.13,5.63 4.12,5.62 4.12,5.60 4.13,5.52 4.15,5.46 4.24,5.46 z m -0.67,0.08 c 0.00,-6.2e-5 0.00,-1.72e-4 0.00,0 0.08,0.00 0.18,0.20 0.27,0.19 0.02,0.04 0.04,0.09 0.08,0.14 a 0.15,0.15 0 0 0 0.01,0.02 l -0.00,0.00 c -0.00,0.14 0.01,0.31 -0.18,0.27 l -7.71e-4,0.00 C 3.65,5.99 3.52,5.83 3.46,5.64 l 0.02,0.00 c 0.02,-0.07 0.05,-0.10 0.08,-0.10 z m 9.29,0.44 -0.00,0.01 c 0.32,0.35 -0.28,0.55 -0.36,0.81 0.02,0.18 0.18,0.24 0.27,0.36 C 12.54,7.94 11.42,7.82 11.14,8.53 10.67,8.55 10.22,8.82 9.63,8.54 9.61,8.46 9.59,8.37 9.56,8.28 9.53,8.18 9.49,8.08 9.39,8.00 l 0.03,-0.01 c 0.01,-0.40 0.50,-0.33 0.53,-0.70 0.01,-0.00 0.03,-0.00 0.05,-0.00 a 0.13,0.13 0 0 0 0.00,-0.00 c 0.14,0.04 0.03,0.33 0.29,0.26 0.28,0.01 0.21,-0.32 0.36,-0.45 0.54,0.22 0.71,-0.25 0.99,-0.54 l -0.02,-0.01 c 0.36,-0.24 0.77,-0.43 1.19,-0.53 z M 3.93,6.55 C 4.31,6.56 4.30,6.96 4.29,7.36 4.21,7.36 4.19,7.30 4.13,7.28 4.03,7.17 3.99,7.01 3.93,6.82 l 0.00,7.71e-4 0,-0.27 z m 1.46,1.09 c 0.20,-0.00 0.43,0.06 0.60,0.16 0.19,0.44 -0.34,0.65 -0.36,1.16 -0.12,0.08 -0.18,0.22 -0.22,0.33 -0.01,0.05 -0.03,0.09 -0.04,0.14 l -0.00,-0.01 C 5.25,9.44 5.17,9.39 5.13,9.31 5.23,9.09 5.22,8.87 5.16,8.69 5.10,8.48 4.99,8.31 4.92,8.15 a 0.17,0.17 0 0 0 -0.01,-0.02 c -0.00,-0.34 0.22,-0.47 0.48,-0.47 z m 7.31,0.15 c 0.11,-0.00 0.12,0.08 0.23,0.09 -0.01,0.07 -0.09,0.09 -0.08,0.18 l -0.18,0 -0.00,0 c 0,-0.09 9.9e-5,-0.18 0.00,-0.27 0.01,-0.00 0.02,-0.00 0.03,-0.00 z M 9.25,8.16 c 0.02,-9.68e-4 0.04,9.31e-4 0.07,0.00 0.03,0.04 0.06,0.09 0.08,0.15 0.02,0.09 0.04,0.20 0.08,0.31 l 0.00,0.02 0.02,0.01 0.02,0.01 -0.02,0.00 C 9.56,8.88 9.78,8.87 9.70,9.16 9.19,9.13 9.01,8.77 8.98,8.26 9.08,8.24 9.13,8.17 9.25,8.16 z M 6.72,8.80 c 0.32,0.06 0.17,0.71 0,0.81 -0.33,0.06 -0.38,-0.15 -0.72,-0.09 -0.01,0.37 0.27,0.44 0.36,0.72 0.05,0.36 -0.11,0.95 0.08,1.17 l 0.00,0.00 a 0.09,0.09 0 0 0 -0.00,0.02 c -0.00,0.02 -0.00,0.04 -0.01,0.06 -0.08,0.01 -0.10,0.08 -0.19,0.09 -0.04,-0.04 -0.08,-0.08 -0.12,-0.12 A 0.10,0.10 0 0 0 6.08,11.45 L 6.09,11.41 C 6.05,10.74 6.06,10.00 5.73,9.61 l -0.04,0.00 C 5.71,9.54 5.73,9.47 5.75,9.41 5.78,9.32 5.80,9.27 5.85,9.24 a 0.17,0.17 0 0 0 0.06,-0.06 C 6.16,9.02 6.57,9.04 6.72,8.80 z m 0.99,0.08 c 0.19,0.01 0.19,0.22 0.18,0.45 C 7.59,9.40 7.58,9.02 7.72,8.89 z m 3.93,0.47 c 0.32,4.30e-4 0.61,0.35 1.02,0.33 0.21,0.68 1.10,0.69 1.53,1.17 0.18,-0.02 0.17,-0.24 0.27,-0.36 1.59,0.84 2.67,2.18 3.87,3.42 -0.02,0.18 -0.18,0.24 -0.27,0.36 l 0.00,0.00 0.01,0.01 c -0.05,0.02 -0.10,0.04 -0.14,0.06 -1.11,-0.22 -1.34,-1.33 -2.48,-1.52 0.01,0.52 0.35,0.73 0.81,0.81 -0.11,1.03 0.92,1.28 0.36,2.25 -0.20,-0.06 -0.02,-0.51 -0.36,-0.45 -0.04,0.91 -0.32,1.59 -0.63,2.25 -0.44,-0.15 -0.07,-0.57 0,-0.81 0.09,-0.30 0.30,-0.63 0.36,-0.90 -0.39,-0.48 -0.74,-0.99 -1.08,-1.53 -0.21,-0.03 -0.19,0.16 -0.45,0.09 0.19,-0.76 -0.57,-0.56 -0.45,-1.26 -0.05,-0.02 -0.34,-0.22 -0.36,0 -0.82,-1.21 -1.51,-2.57 -2.25,-3.87 0.08,-0.04 0.15,-0.06 0.23,-0.06 z m -2.60,0.08 c 0.17,0.00 0.39,0.10 0.65,0.33 0.01,0.10 -0.01,0.25 0.09,0.27 l 0.00,0.00 a 0.09,0.09 0 0 0 -0.00,0.05 c 0.00,0.06 0.01,0.14 0.03,0.22 l -0.02,-0.00 C 9.65,10.73 9.35,10.97 8.89,11.05 8.37,10.33 8.52,9.45 9.05,9.45 z M 5.25,9.97 c 0.25,-0.00 0.22,0.26 0.21,0.51 -0.03,0.02 -0.06,0.04 -0.10,0.06 l 0.01,-0.03 C 5.30,10.34 5.22,10.18 5.19,9.97 c 0.02,-0.00 0.03,-0.00 0.05,-0.00 z m 4.83,0.14 c 0.46,3.37e-4 1.24,1.50 0.78,1.57 l -0.00,0.00 c -0.07,-0.14 -0.14,-0.32 -0.29,-0.45 l 0.02,-0.00 C 10.40,10.91 10.25,10.55 10.00,10.27 9.99,10.23 9.99,10.19 9.98,10.14 c 0.03,-0.02 0.06,-0.03 0.10,-0.03 z M 4.74,10.42 C 5.00,11.01 5.24,11.60 5.19,12.50 4.92,12.43 4.89,12.14 4.92,11.77 l -0.04,-0.01 a 0.09,0.09 0 0 0 -0.00,-0.07 c -0.03,-0.06 -0.02,-0.13 -0.01,-0.23 0.01,-0.09 0.03,-0.22 -0.03,-0.34 l -0.01,-0.01 -0.01,-0.01 c -0.02,-0.01 -0.06,-0.03 -0.10,-0.06 0.11,-0.24 -0.04,-0.42 0.06,-0.58 z m 2.43,0 c 0.22,0.04 0.43,0.61 0.05,0.63 -0.01,-0.02 -0.03,-0.05 -0.05,-0.09 l 0.00,0.00 0,-0.54 z m -1.60,0.13 -0.01,0.04 c -0.06,0.33 0.15,0.38 0.08,0.72 -0.34,0.05 -0.11,-0.46 -0.17,-0.70 0.03,-0.02 0.06,-0.04 0.10,-0.06 z m 1.43,0.47 c 0.03,0.06 0.07,0.13 0.12,0.18 l -0.04,0.01 0,0.27 c -0.25,-0.07 -0.23,0.12 -0.45,0.08 l -0.01,0.00 c 0.01,-0.04 0.01,-0.07 0.02,-0.11 0.02,-0.08 0.14,-0.07 0.26,-0.07 0.02,-0.17 -0.10,-0.19 -0.09,-0.36 l 0.18,0 0.00,-0.02 z m -2.80,0.02 c 0.11,0.00 0.12,0.11 0.27,0.08 l 0.01,-0.04 c 0.06,0.04 0.12,0.08 0.17,0.11 0.03,0.05 0.02,0.11 0.01,0.20 -0.01,0.07 -0.02,0.17 -0.00,0.27 l -0.02,-0.00 0,0.45 c -0.08,-3.11e-4 -0.10,0.06 -0.17,0.08 -0.05,0.00 -0.12,0.00 -0.18,0.01 l 0.00,-0.01 C 4.09,12.19 4.31,11.73 4.02,11.77 l -0.01,0.02 c -0.05,-0.11 -0.12,-0.21 -0.21,-0.32 0.01,-0.09 0.05,-0.18 0.11,-0.22 0.09,0.08 -0.10,0.47 0.20,0.34 0.28,-0.12 -0.12,-0.44 0.08,-0.54 z m 3.70,0.04 c 0.05,-10e-5 0.11,0.01 0.16,0.04 0.21,0.37 -0.21,0.61 0,0.99 0.42,-0.14 0.55,-0.58 1.17,-0.54 0.27,0.21 1.62e-4,0.51 0.18,0.72 l 0.00,0.00 a 0.13,0.13 0 0 0 -0.00,0.06 c 0.06,0.55 0.36,1.05 0.65,1.49 a 0.13,0.13 0 0 0 0.06,0.05 l -0.00,0.00 c 0.38,0.61 0.19,1.83 0.27,2.52 -0.38,-0.12 -0.21,-0.70 -0.27,-1.08 -0.15,-1.07 -0.65,-1.72 -0.81,-2.52 -0.34,0.01 -0.36,0.35 -0.36,0.72 -0.18,0.32 -0.50,0.51 -0.45,1.08 -0.42,0.26 -0.73,0.65 -1.17,0.90 -0.24,0.92 -0.24,2.09 -0.81,2.70 -0.21,0.02 -0.33,0.14 -0.63,0.09 -0.26,-0.40 0.11,-0.80 0.18,-1.17 l -0.01,0.00 C 6.20,16.83 6.26,16.46 6.24,16.09 l 0.03,0.00 c -0.01,-0.25 0.04,-0.59 -0.08,-0.72 -0.28,-0.04 -0.36,0.11 -0.45,0.27 -0.00,0.26 0.07,0.44 0.24,0.53 0.00,0.30 -0.05,0.62 -0.14,0.92 l -0.01,-0.01 c -0.22,0.10 -0.35,0.30 -0.45,0.54 -0.21,0.00 -0.26,-0.15 -0.54,-0.09 -0.09,0.51 0.41,0.42 0.27,0.99 -0.29,0.15 -0.42,-0.49 -0.72,-0.63 -0.34,0.11 0.04,0.70 -0.09,1.17 -0.15,0.41 -0.58,1.03 -0.26,1.62 l 0.01,-0.01 c 0.05,0.13 0.10,0.27 0.17,0.41 0.14,0.69 -0.01,1.57 -0.54,2.03 l 0.01,0.01 C 3.26,23.40 2.88,23.40 2.57,23.24 2.27,23.08 2.03,22.76 1.93,22.31 l 0.02,0.00 C 1.99,22.14 2.30,22.25 2.22,21.96 2.25,21.57 1.85,21.60 1.68,21.42 1.66,21.06 1.66,20.69 1.45,20.54 1.46,19.74 1.80,18.91 2.15,18.17 2.38,18.09 2.28,17.91 2.40,17.81 2.74,17.54 3.23,17.73 3.57,17.63 4.04,17.49 4.35,17.09 4.74,17.09 4.83,16.34 5.13,15.80 5.55,15.38 5.63,15.03 5.33,15.06 5.28,14.84 5.42,14.37 5.72,14.07 6.18,13.94 l -0.00,-0.01 c 0.03,0.00 0.06,0.01 0.09,0.01 0.27,0.43 -0.46,0.74 -0.09,1.26 0.76,-0.68 2.08,-0.79 2.25,-2.07 -0.60,-0.07 -1.59,0.24 -2.14,0.53 -0.00,-7.96e-4 -0.01,-0.00 -0.01,-0.00 -0.00,-0.05 -0.01,-0.09 -0.08,-0.07 0.25,-0.70 0.98,-0.93 1.35,-1.53 -0.21,-0.36 0.04,-0.95 0.37,-0.95 z m 2.35,0.24 c 0.00,-2.05e-4 0.00,-7.5e-5 0.00,0 0.03,0.00 0.10,0.09 0.21,0.08 0.08,0.09 0.13,0.22 0.21,0.35 l -0.00,-0.00 c 0.00,0.26 0.44,0.57 0.18,0.81 -0.20,-0.37 -0.41,-0.73 -0.63,-1.10 -0.00,-0.10 0.00,-0.13 0.02,-0.14 z m -0.44,0.07 c 0.14,-0.00 0.15,0.12 0.23,0.18 l 0.00,-0.00 c 0.21,0.36 0.42,0.72 0.62,1.09 -0.02,0.28 0.37,1.03 0.06,1.00 -0.11,-0.55 -0.39,-1.04 -0.69,-1.48 -0.02,-0.32 -0.30,-0.39 -0.26,-0.78 0.01,-0.00 0.02,-0.00 0.03,-0.00 z M 3.62,11.67 c 0.05,0.06 0.09,0.13 0.13,0.19 l -0.00,-0.00 c 3.17e-4,0.09 -0.07,0.10 -0.09,0.18 -0.11,-0.03 -0.18,-0.11 -0.18,-0.26 0.04,-0.03 0.09,-0.07 0.14,-0.11 z m 2.20,0.01 0.21,0 c 0.02,0.02 0.05,0.05 0.08,0.08 l -0.02,0.00 0,0.18 -0.27,0 0,-0.27 z m 8.47,0.09 0,0.36 0.27,0 c 0.01,-0.22 -0.13,-0.28 -0.27,-0.36 z m -7.82,0.36 c 0.04,7.96e-4 0.10,0.02 0.15,0.08 -0.11,0.14 -0.22,0.30 -0.43,0.35 -0.00,-0.03 -0.01,-0.06 -0.02,-0.09 l 0.01,0.00 c 0.05,-0.14 0.14,-0.35 0.29,-0.35 z m 3.33,0.15 c 0.31,0.45 0.59,0.93 0.69,1.46 -0.09,0.00 -0.15,-0.02 -0.21,-0.06 -0.26,-0.41 -0.51,-0.86 -0.58,-1.31 0.00,-0.04 0.02,-0.07 0.08,-0.06 l 0.02,-0.02 z m -4.08,0.10 c 0.15,0.00 0.12,0.18 0.27,0.19 0.01,0.03 0.02,0.06 0.03,0.09 l -0.02,-0.00 0,0.18 c -0.21,-0.00 -0.27,-0.15 -0.43,-0.01 -0.01,-0.02 -0.03,-0.05 -0.05,-0.08 l 0.03,0.01 c 0.02,-0.12 0.12,-0.17 0.09,-0.36 0.03,-0.00 0.05,-0.01 0.07,-0.01 z m -2.78,0.10 0.18,0 c 0.01,0.51 0.25,1.27 -0.08,1.62 l -0.16,0 c -0.26,-0.49 -0.22,-1.15 0.06,-1.62 z m 1.54,0.00 c 0.11,0.30 0.19,0.64 0.35,0.89 l 0.02,-0.00 c 0.01,0.08 0.03,0.16 0.04,0.23 l 0.00,0.03 0.02,0.02 c 0.06,0.06 0.14,0.10 0.20,0.13 l -0.03,0.02 0,0.26 C 4.60,13.84 4.44,13.23 4.38,12.51 c 0.02,-0.00 0.05,-0.00 0.09,-0.00 z m 0.80,0.35 0.16,0 c 0.02,0.03 0.04,0.07 0.06,0.10 l -0.05,-0.01 c -0.01,0.09 -0.08,0.13 -0.15,0.17 -0.00,-0.00 -0.01,-0.00 -0.02,-0.00 -0.03,-0.11 -0.09,-0.14 0.00,-0.25 z m 6.76,0.08 0.27,0 c -0.07,0.28 -0.05,0.66 -0.18,0.90 l -7.96e-4,-7.96e-4 c -0.36,-0.09 -0.09,-0.62 -0.08,-0.90 z M 5.19,13.28 c 0.03,0.00 0.06,0.01 0.09,0.02 l 0,3.89e-4 c 0.02,0.06 0.00,0.17 0.09,0.18 -0.01,0.07 -0.07,0.10 -0.18,0.09 l 0.00,0.00 c -0.03,-0.01 -0.05,-0.03 -0.07,-0.04 -0.00,-0.04 -0.01,-0.09 -0.02,-0.14 l 0.00,0.00 c 0.00,-0.05 0.01,-0.10 0.09,-0.09 l -0.00,-0.02 z m 3.88,1.10 c 0.27,0.56 0.75,1.41 0.54,2.16 l -0.01,0.00 a 0.12,0.12 0 0 0 -0.00,-0.00 C 9.45,16.21 9.37,15.84 9.24,15.46 l 0.01,0.00 C 9.23,15.09 8.90,14.67 9.07,14.39 z m 9.10,0.17 -0.00,0.00 c 0.09,-2.1e-4 0.10,0.07 0.18,0.09 -0.05,0.46 0.07,1.09 -0.36,1.17 -0.04,-0.48 0.04,-0.83 0.08,-1.22 0.02,-0.01 0.06,-0.02 0.09,-0.04 z m -4.77,0.19 c 0.12,-0.00 0.19,0.04 0.27,0.09 -0.25,0.52 -0.22,1.33 -0.81,1.53 l 0,-0.27 -0.00,-0.00 -0.03,-0.02 c 0.29,-0.28 0.43,-0.67 0.47,-1.05 l 0.01,0.00 c 0.00,-0.11 0.11,-0.12 0.09,-0.27 z m -0.35,0.26 c -0.03,0.29 -0.13,0.58 -0.32,0.80 -0.34,-0.08 0.18,-0.46 0.04,-0.80 l 0.27,0 0.00,-0.00 z m -4.69,0.27 0.18,0 0,0.18 -0.18,0 0,-0.18 z m 24.91,0.13 c 0.46,-0.00 0.90,0.08 1.31,0.32 0.30,0.42 0.22,0.70 0.53,1.06 l -0.21,0 a 0.09,0.09 0 0 0 -0.02,0 0.09,0.09 0 1 0 0.02,0.19 l 0.24,0 c 0.34,0.09 0.58,0.29 0.87,0.44 4.21e-4,0.08 -0.07,0.10 -0.08,0.17 -0.29,-0.12 -0.61,-0.26 -0.95,-0.28 -0.10,-0.00 -0.20,0.00 -0.31,0.02 l 0.00,-0.01 c -0.11,-0.00 -0.12,-0.11 -0.27,-0.09 -0.07,-0.25 0.12,-0.23 0.09,-0.45 -0.26,-0.01 -0.48,0.18 -0.68,0.03 -0.00,-0.02 -0.02,-0.07 -0.03,-0.12 0.08,-0.15 0.28,-0.19 0.54,-0.17 -0.18,-0.20 -0.49,-0.28 -0.81,-0.36 -0.09,-3.23e-4 -0.10,0.07 -0.18,0.09 -0.01,0.25 0.02,0.44 0.16,0.53 0.01,0.07 0.03,0.17 0.11,0.25 a 0.14,0.14 0 0 0 0.00,0.00 l -0.01,0.01 c 0.26,0.68 0.90,1.53 0.81,2.25 -0.01,0.10 -0.02,0.21 -0.18,0.18 -0.01,0.20 0.43,0.39 0.18,0.54 l 0,0.01 c -0.09,-0.04 -0.19,-0.08 -0.29,-0.12 a 0.06,0.06 0 0 0 -0.02,-0.00 0.06,0.06 0 0 0 -0.01,0.12 c 0.09,0.02 0.17,0.06 0.25,0.10 0.04,0.09 0.09,0.17 0.16,0.23 -0.20,0.28 -0.41,-0.17 -0.63,-0.18 0.05,0.39 0.47,0.42 0.45,0.90 -0.42,-0.12 -0.22,0.37 -0.63,0.27 0.06,0.20 0.18,0.35 0.18,0.63 -0.25,0.04 -0.40,0.19 -0.45,0.45 -0.24,0.03 -0.08,-0.33 -0.27,-0.36 l -0.01,0.01 c -0.05,-0.11 -0.09,-0.25 -0.15,-0.39 -0.06,-0.15 -0.14,-0.30 -0.30,-0.41 l 0.02,-0.01 c -0.21,-0.62 -0.78,-0.90 -1.08,-1.44 -0.19,-1.33 0.57,-1.70 0.72,-2.70 -0.13,-0.25 -0.58,-0.19 -0.72,-0.45 -0.14,0.40 -0.48,0.06 -0.72,0.36 0.00,0.32 0.34,0.77 0.18,0.98 -0.03,-0.00 -0.08,-0.02 -0.12,-0.04 a 0.12,0.12 0 0 0 -0.06,-0.00 0.12,0.12 0 0 0 -0.02,0.25 c 0.06,0.02 0.13,0.05 0.21,0.06 l -0.00,0.01 c 0.06,0.06 0.22,0.44 -0.09,0.36 l -0.00,0.02 c -0.11,-0.16 -0.28,-0.28 -0.45,-0.37 l 0.01,-0.00 c -0.11,-0.18 -0.26,-0.33 -0.45,-0.45 -0.33,0.09 -0.08,0.75 0.36,0.63 l -0.00,-0.01 c 0.14,0.07 0.27,0.17 0.36,0.29 -0.00,0.14 0.00,0.30 -0.17,0.26 l -0.00,0.02 c -0.05,-0.07 -0.12,-0.11 -0.19,-0.14 -0.06,-0.02 -0.12,-0.03 -0.17,-0.05 l 0.01,-0.00 c -0.02,-0.18 -0.24,-0.17 -0.36,-0.27 l -0.01,0.02 c -0.01,-0.03 -0.03,-0.07 -0.04,-0.11 a 0.12,0.12 0 0 0 -0.13,-0.07 0.12,0.12 0 0 0 -0.09,0.17 c 0.01,0.03 0.02,0.06 0.03,0.08 l -0.01,-0.00 c -0.00,0.49 -0.08,0.74 -3.84e-4,1.43 -0.05,0.01 -0.10,0.04 -0.15,0.08 -0.08,0.06 -0.16,0.18 -0.15,0.31 l 0.00,0.02 0.01,0.02 c 0.06,0.16 0.10,0.34 0.15,0.54 l -0.09,0.09 C 29.26,21.03 29.16,20.83 29.09,20.62 a 0.10,0.10 0 0 0 -0.11,-0.07 0.10,0.10 0 0 0 -0.09,0.14 c 0.07,0.25 0.20,0.48 0.32,0.70 a 0.14,0.14 0 0 0 0.00,0.06 c 0.06,0.25 -0.00,0.57 0.14,0.90 0.09,0.80 0.03,1.51 -0.08,2.39 a 0.16,0.16 0 0 0 -0.00,0.01 c -0.03,0.18 -0.14,0.37 -0.21,0.60 -0.39,-0.22 0.15,-0.81 0.03,-1.31 0.10,-0.59 0.15,-1.26 -0.02,-1.87 a 0.16,0.16 0 0 0 -0.00,-0.00 c 5.83e-4,-0.30 -0.05,-0.61 -0.19,-0.89 a 0.15,0.15 0 0 0 -0.03,-0.04 c -0.03,-0.17 -0.05,-0.41 -0.24,-0.59 a 0.13,0.13 0 0 0 -0.10,-0.03 0.13,0.13 0 0 0 -0.07,0.23 c 0.10,0.09 0.11,0.26 0.16,0.46 a 0.15,0.15 0 0 0 -3.84e-4,0.00 c -0.02,0.01 -0.05,0.02 -0.09,0.03 a 0.18,0.18 0 0 0 -0.04,-0.02 C 28.33,21.03 28.19,20.81 28.20,20.57 a 0.11,0.11 0 0 0 -0.12,-0.12 0.11,0.11 0 0 0 -0.11,0.11 c -0.02,0.33 0.14,0.58 0.23,0.83 a 0.18,0.18 0 0 0 -0.02,0.09 c -9.81e-4,0.09 -4.47e-4,0.20 -0.00,0.28 -0.02,0.00 -0.06,0.01 -0.09,0.02 l 0.00,-0.01 -0.01,0.01 c -0.00,4.96e-4 -0.00,10e-4 -0.00,0.00 -0.20,-0.53 -0.32,-1.13 -0.63,-1.65 a 0.12,0.12 0 0 0 -0.06,-0.05 l 0.00,-0.01 c -0.04,-0.34 -0.08,-0.69 -0.45,-0.72 -0.13,0.01 -0.08,0.21 -0.09,0.36 -0.62,-0.11 -0.44,0.57 -0.99,0.54 0.01,0.13 -0.03,0.33 0.09,0.36 l 0.00,-0.00 c -0.03,0.17 0.01,0.34 0.06,0.48 0.06,0.16 0.12,0.31 0.12,0.46 a 0.11,0.11 0 0 0 0.00,0.03 l -0.02,0.00 c -0.01,0.25 0.04,0.58 -0.05,0.76 -0.02,0.01 -0.05,0.02 -0.09,0.03 -0.09,-0.70 -0.13,-1.53 -0.57,-2.12 -0.00,-0.08 0.00,-0.19 -0.01,-0.31 -0.01,-0.10 -0.07,-0.21 -0.17,-0.29 -0.00,-0.03 -0.00,-0.06 -0.00,-0.09 0.03,-0.04 0.08,-0.09 0.13,-0.12 a 0.12,0.12 0 0 0 -0.09,-0.22 0.12,0.12 0 0 0 -0.04,0.02 c -0.05,0.04 -0.15,0.11 -0.21,0.21 l -0.01,0.02 0,0.03 c 5.96e-4,0.05 0.00,0.10 0.00,0.17 a 0.13,0.13 0 0 0 -0.00,0.07 c -0.01,0.02 -0.03,0.05 -0.05,0.08 -0.01,-0.03 -0.03,-0.06 -0.04,-0.09 a 0.09,0.09 0 0 0 -0.10,-0.06 0.09,0.09 0 0 0 -0.07,0.12 c 0.01,0.05 0.04,0.12 0.09,0.18 a 0.13,0.13 0 0 0 -7.97e-4,0.01 l 0,0.31 -0.08,0 C 24.56,20.15 24.47,19.96 24.35,19.78 a 0.10,0.10 0 0 0 -0.09,-0.05 0.10,0.10 0 0 0 -0.02,0.00 0.10,0.10 0 0 0 -0.06,0.16 c 0.12,0.19 0.23,0.40 0.35,0.62 a 0.10,0.10 0 0 0 0.03,0.04 c 0.24,0.61 -0.15,1.86 0.72,1.84 -0.00,0.13 0.00,0.25 -0.00,0.36 -0.35,0.03 -0.46,0.31 -0.52,0.62 -0.32,-0.21 0.20,-0.75 -0.07,-0.97 -0.11,-0.80 -0.28,-1.62 -0.64,-2.37 0.00,-0.19 -0.12,-0.25 -0.25,-0.33 a 0.15,0.15 0 0 0 -0.00,-0.01 c -0.09,-0.30 -0.25,-0.58 -0.36,-0.84 -0.10,-0.26 -0.16,-0.50 -0.08,-0.77 a 0.15,0.15 0 0 0 0.00,-0.03 c 0.11,-0.24 0.11,-0.84 -0.02,-1.04 l -0.04,0.01 c 0.03,-0.04 0.08,-0.08 0.14,-0.13 l -0.00,0.02 c 0.03,0.11 0.11,0.18 0.27,0.18 0.15,-0.15 -0.04,-0.22 -0.00,-0.49 0.02,-0.04 0.05,-0.10 0.08,-0.15 l 0.01,0.01 c 0.20,-0.03 0.42,-0.05 0.36,-0.36 0.87,0.04 1.83,0.14 2.51,-0.21 a 0.16,0.16 0 0 0 0.03,-0.01 c 1.04,-0.49 2.26,-0.46 3.42,-0.34 a 0.16,0.16 0 0 0 0.06,-0.00 c 0.55,0.14 1.10,0.17 1.70,0.12 l -0.00,-0.02 c 0.47,-0.10 0.94,-0.19 1.40,-0.19 z m -14.18,0.04 0.27,0 c 0.33,0.92 0.00,2.45 -0.27,3.33 -0.53,-0.30 -0.86,-1.40 -0.72,-2.16 l -0.00,0 c 0.11,-0.56 0.69,-0.72 0.72,-1.17 z m -10.07,0.07 c 0.13,0.35 0.21,0.72 0.36,1.10 a 0.12,0.12 0 0 0 0.01,0.02 C 9.41,16.96 9.27,17.35 8.89,17.36 8.77,17.00 9.05,17.04 9.16,16.91 9.11,16.42 8.82,16.17 8.89,15.56 l 0.08,0 0.01,-0.01 z m 6.02,0.01 c 0.26,0.39 -0.21,0.79 -0.27,1.17 l -3.84e-4,7.96e-4 0.03,0.01 c -0.15,0.16 -0.21,0.36 -0.29,0.53 a 0.09,0.09 0 0 0 -3.84e-4,3.84e-4 l -0.00,-0.00 c -0.20,0.18 -0.21,0.56 -0.54,0.63 l 0,-0.18 -0.03,-0.01 c 0.23,-0.33 0.51,-0.66 0.61,-1.10 0.26,-0.25 0.19,-0.83 0.50,-1.04 z m -0.90,0.08 c 0.41,0.05 0.01,0.45 -0.07,0.60 l -0.09,0.04 c -0.02,-0.01 -0.05,-0.03 -0.08,-0.05 0.07,-0.20 0.23,-0.33 0.25,-0.60 z m 7.50,0.26 c 0.44,-0.00 0.31,0.56 0.69,0.63 0.33,-0.17 0.37,-0.64 0.90,-0.63 0.09,0.13 0.27,0.18 0.27,0.41 -0.02,0.04 -0.05,0.09 -0.07,0.13 l -0.01,-0.01 c -0.13,0.01 -0.08,0.21 -0.09,0.35 -0.03,0.03 -0.07,0.06 -0.10,0.09 -0.11,2.23e-4 -0.18,0.04 -0.25,0.09 -0.06,0.27 0.09,0.32 0.08,0.54 l -0.26,0 c 0.02,0.20 0.08,0.37 0.25,0.44 a 0.15,0.15 0 0 0 -0.00,0.00 c -0.11,0.35 -0.02,0.69 0.09,0.98 0.11,0.26 0.25,0.51 0.33,0.75 -0.22,0.12 -0.37,-0.47 -0.50,-0.65 -0.25,-0.07 -0.23,0.12 -0.45,0.08 -0.17,-0.37 -0.82,-0.73 -0.54,-1.26 -0.02,-0.15 -0.15,-0.20 -0.36,-0.18 0.16,-0.73 -0.45,-0.68 -0.54,-1.17 0.44,0.05 0.45,-0.32 0.54,-0.63 0.00,-3.47e-4 0.01,-7.35e-4 0.02,-7.96e-4 z m 7.38,0.04 c -0.23,-4.34e-4 -0.46,0.16 -0.47,0.49 0.33,-0.05 0.95,0.17 0.90,-0.27 l -3.84e-4,7.96e-4 c -0.10,-0.14 -0.26,-0.22 -0.43,-0.22 z m -22.14,0.04 a 0.13,0.13 0 0 0 -0.01,0.00 0.13,0.13 0 0 0 -0.11,0.11 c -0.00,0.01 -0.02,0.07 -0.06,0.12 a 0.13,0.13 0 1 0 0.22,0.14 c 0.04,-0.06 0.09,-0.13 0.11,-0.23 a 0.13,0.13 0 0 0 -0.13,-0.16 z m 6.89,0.34 c 0.03,0.02 0.07,0.05 0.11,0.07 a 0.11,0.11 0 0 0 0.00,0.01 c -0.08,0.30 -0.25,0.58 -0.45,0.84 -0.05,0.00 -0.10,0.01 -0.10,0.07 -0.18,-0.30 0.41,-0.60 0.45,-0.99 l -0.00,-0.01 z m 0.39,0.10 0.15,0 0.03,0.01 a 0.10,0.10 0 0 0 -0.00,0.01 c -0.06,0.40 -0.31,0.71 -0.56,1.06 l -0.00,-0.00 c -0.12,0.08 -0.18,0.24 -0.27,0.36 -0.27,-0.11 0.06,-0.34 0.09,-0.45 l -0.03,-0.01 c 0.22,-0.27 0.42,-0.58 0.52,-0.93 l 0.08,-0.04 z m -2.73,0.18 c 0.12,-0.00 0.19,0.04 0.26,0.09 0.06,0.27 -0.15,0.26 -0.08,0.54 l 0.00,7.96e-4 0.01,-0.00 c -0.01,0.10 -0.02,0.19 -0.03,0.27 -0.00,0.03 -0.01,0.05 -0.02,0.08 -0.03,-0.00 -0.06,-0.02 -0.04,-0.08 l -0.01,0.00 c 0.02,-0.14 0.02,-0.30 7.96e-4,-0.45 l 0.01,0.00 c 0.03,-0.21 -0.16,-0.19 -0.08,-0.45 z m 25.95,3.84e-4 0.18,0 0,0.18 -0.18,0 0,-0.18 z m 0.93,0.17 c 0.13,-0.00 0.15,0.10 0.21,0.16 -0.00,0.03 -0.01,0.07 -0.02,0.11 -0.19,0.03 -0.27,-0.06 -0.22,-0.28 0.01,-0.00 0.02,-0.00 0.03,-0.00 z m -23.40,0.09 0.03,0 0.18,0 c -0.11,0.18 -0.14,0.45 -0.45,0.45 l -0.00,-0.00 c 0.08,-0.16 0.14,-0.32 0.23,-0.44 z m 23.91,0 c 0.07,0.02 0.13,0.06 0.18,0.08 l -0.00,0.00 c 0.12,0.05 0.01,0.34 0.18,0.36 l 0.02,-0.00 c -0.02,0.07 -0.04,0.15 -0.06,0.22 -0.05,-0.02 -0.13,-0.04 -0.23,-0.05 0.00,-0.20 -0.14,-0.25 -0.27,-0.33 l -0.06,0.02 c 0.03,-0.07 0.04,-0.14 0.05,-0.21 l 0.00,0.01 c 0.09,2.11e-4 0.10,-0.07 0.18,-0.08 l 0,-7.97e-4 z M 17.63,17.01 c 0.03,-0.00 0.06,0.01 0.08,0.07 0.14,0.90 0.52,1.58 0.81,2.34 l 0.00,-0.01 c 0.02,0.10 0.05,0.20 0.10,0.29 a 0.13,0.13 0 0 0 0.03,0.04 c 0.17,0.55 0.31,1.18 0.38,1.70 a 0.14,0.14 0 0 0 -0.02,0.07 c -0.00,0.31 0.06,0.60 0.10,0.88 0.03,0.24 0.04,0.46 -0.01,0.69 l -0.10,0 c -0.09,-2.11 -1.10,-3.96 -1.48,-5.94 l 0.01,0.00 c -0.01,-0.09 0.03,-0.16 0.09,-0.16 z m -0.59,0.07 c 0.13,-0.00 0.15,0.11 0.22,0.17 0.40,2.05 1.41,3.90 1.47,5.96 a 0.14,0.14 0 0 0 -0.00,0.03 c -0.02,1.11 -0.30,2.17 -0.42,3.30 a 0.15,0.15 0 0 0 -0.00,0.00 c -0.13,0.15 -0.14,0.35 -0.14,0.51 0.00,0.13 0.01,0.26 0.00,0.36 l -0.14,0 c -0.05,-2.04 0.56,-3.67 0.25,-5.74 -0.23,-1.57 -1.04,-2.87 -1.27,-4.35 l 0,-0.26 c 0.01,-0.00 0.02,-0.00 0.03,-0.00 z m -5.88,0.09 0.07,0 c 0.01,0.08 0.01,0.18 -7.97e-4,0.27 l -0.16,0 0,-0.18 c 0.05,-0.00 0.10,-0.01 0.08,-0.09 z m -3.17,0.07 c 0.20,0.00 0.18,0.59 -0.07,0.46 l 0,-3.84e-4 0,-0.45 c 0.02,-0.01 0.04,-0.01 0.07,-0.01 z m 8.52,0.01 c 0.12,-0.00 0.14,0.08 0.20,0.15 0.24,1.55 1.05,2.84 1.27,4.33 0.29,1.99 -0.32,3.61 -0.26,5.74 a 0.15,0.15 0 0 0 0.03,0.09 c 0.04,0.08 0.12,0.12 0.07,0.30 -0.60,-0.08 -0.27,-1.10 -0.36,-1.71 l -0.00,7.96e-4 c 0.48,-2.36 0.47,-4.87 -0.53,-7.13 a 0.15,0.15 0 0 0 -0.09,-0.08 c -0.14,-0.54 -0.27,-1.09 -0.35,-1.70 0.01,-0.00 0.02,-0.00 0.03,-0.00 z m -4.61,0.09 c 0.17,0.08 0.26,0.26 0.25,0.53 l 0.05,0.01 c -0.09,0.14 -0.15,0.32 -0.11,0.50 a 0.11,0.11 0 0 0 -0.01,0.04 c -0.01,0.09 -0.03,0.19 -0.06,0.28 -0.16,0.11 -0.26,-0.12 -0.22,-0.40 l -0.02,0 c 0.04,-0.10 0.04,-0.24 -0.02,-0.37 l 0.05,0.01 0,-0.08 -0.05,-0.01 c 0.07,-0.09 0.11,-0.20 0.13,-0.29 0.01,-0.08 0.02,-0.15 0.02,-0.22 z m 27.58,0.00 c 0.17,-0.00 0.39,0.43 0.15,0.51 -0.10,-0.03 -0.19,-0.11 -0.28,-0.21 a 0.18,0.18 0 0 0 -0.00,-0.00 l 0.03,-0.03 -0.03,0.02 a 0.18,0.18 0 0 0 -0.00,-0.00 c 0.02,-0.08 0.03,-0.16 0.06,-0.24 0.02,-0.03 0.05,-0.04 0.08,-0.04 z m -4.57,0.19 c 0.31,-0.00 0.62,0.13 0.95,0.26 0.01,0.09 0.11,0.11 0.08,0.25 l 3.84e-4,7.96e-4 c -0.14,-0.02 -0.29,-0.07 -0.45,-0.11 -0.09,-0.02 -0.19,-0.04 -0.29,-0.05 -0.07,-0.00 -0.16,-0.00 -0.24,0.01 l 0.00,-0.02 c -0.19,0.01 -0.28,-0.07 -0.27,-0.27 0.04,-0.00 0.08,-0.01 0.09,-0.05 0.04,-0.00 0.08,-0.01 0.12,-0.01 z m -6.89,0.33 7.96e-4,3.85e-4 c -0.07,0.31 0.04,0.43 0.35,0.36 l 0,-0.36 -0.36,0 z m -16.37,0.17 c 0.00,-2.1e-4 0.01,0 0.02,3.85e-4 0.02,0.08 0.02,0.16 0.00,0.22 -0.18,0.14 -0.32,-0.21 -0.03,-0.22 z m 8.66,3.85e-4 c 0.08,-0.00 0.12,0.03 0.14,0.09 -0.04,1.06 -0.60,1.61 -0.72,2.61 -0.42,-0.14 -0.33,-0.80 -0.36,-1.35 l 7.97e-4,3.84e-4 c 0.34,-0.40 0.75,-0.74 0.90,-1.35 0.01,-0.00 0.02,-0.00 0.03,-0.00 z m -5.16,0.00 c 0.22,0.00 -0.07,0.53 0.15,0.54 0.50,1.65 1.29,3.27 0.98,4.95 -0.48,-0.02 -0.11,-0.57 -0.15,-0.89 l -0.00,0.00 c 0.02,-0.47 -0.01,-0.97 -0.16,-1.44 a 0.15,0.15 0 0 0 -0.02,-0.05 c -0.08,-0.37 -0.21,-0.72 -0.42,-1.06 -0.03,-0.26 -0.17,-0.48 -0.29,-0.68 -0.07,-0.41 -0.31,-0.94 -0.07,-1.35 0.00,-2.35e-4 0.00,-4.34e-4 0.01,-3.84e-4 z m 12.15,0 3.84e-4,3.85e-4 c -0.03,0.17 -0.25,0.16 -0.18,0.45 0.34,0.18 0.35,-0.40 0.18,-0.45 z m -11.62,3.85e-4 c 0.41,0.27 0.30,1.07 0.62,1.44 0.78,1.96 0.63,4.13 0.36,6.22 l -0.03,0 c -0.02,-0.02 -0.04,-0.06 -0.05,-0.10 -0.07,-0.34 -0.11,-0.71 -0.08,-1.15 l -0.01,0.00 c 0.02,-0.12 0.01,-0.25 0.01,-0.36 0.19,0.01 0.03,-0.32 0.08,-0.45 l -0.00,3.85e-4 c 0.36,-1.83 -0.49,-3.53 -0.99,-5.18 -0.01,-0.18 0.02,-0.30 0.09,-0.40 z m -3.37,0.00 c 0.09,0.04 0.20,0.21 0.08,0.25 a 0.09,0.09 0 0 0 -0.01,0.00 c -0.03,0.00 -0.07,0.01 -0.11,0.02 -0.01,-0.09 0.00,-0.19 0.04,-0.28 z m 22.82,0.07 c 0.09,-3.48e-4 0.19,0.01 0.30,0.04 0.16,0.04 0.33,0.10 0.52,0.12 l -0.00,0.01 c 0.11,0.03 0.18,0.11 0.18,0.27 -0.06,0.01 -0.17,0.00 -0.17,0.08 -0.02,-4.22e-4 -0.05,-0.00 -0.09,-0.02 -0.06,-0.02 -0.14,-0.08 -0.21,-0.13 a 0.08,0.08 0 0 0 -0.06,-0.01 0.08,0.08 0 0 0 -0.03,0.16 c 0.06,0.04 0.15,0.11 0.24,0.15 0.07,0.03 0.16,0.04 0.25,0.01 l -0.00,0.02 c 0.22,0.10 0.35,0.30 0.45,0.54 -0.22,0.68 -0.95,0.39 -1.17,-0.09 0.22,-0.67 -0.40,-0.87 -0.27,-1.17 l -0.00,-0.00 c 0.02,-0.00 0.05,-0.00 0.07,-0.00 z m -22.32,0.18 c 0.14,-0.00 0.19,0.09 0.16,0.27 l -0.00,0.00 0.02,-0.00 c -0.01,0.06 -0.03,0.12 -0.04,0.18 -0.17,-0.02 -0.17,-0.23 -0.15,-0.44 0.00,-3.71e-4 0.01,-6.12e-4 0.01,-7.96e-4 z m -0.37,0.17 0.00,0.00 c -0.02,0.15 0.09,0.45 -0.18,0.36 l -0.02,-0.00 c 0.03,-0.11 0.06,-0.22 0.08,-0.33 0.02,-0.00 0.05,-0.01 0.08,-0.01 a 0.09,0.09 0 0 0 0.02,-0.00 z m 0.73,0.18 c 0.36,0.07 0.06,0.82 0.16,1.16 l 0.02,-0.00 c -0.03,0.14 -0.03,0.27 -0.03,0.40 -0.02,0.07 -0.15,0.05 -0.17,0.14 -0.40,-0.45 -0.05,-1.06 0,-1.53 l -0.02,0.00 c 0.01,-0.06 0.02,-0.12 0.04,-0.18 z m -6.95,0.26 c 0.09,0.32 -0.00,0.94 -0.45,0.99 -0.01,-0.06 -0.00,-0.16 -0.07,-0.17 -0.00,-0.05 -0.01,-0.12 -0.02,-0.18 l 0.01,0.00 c -0.02,-0.41 0.15,-0.62 0.54,-0.63 z m 23.96,0.06 c 0.06,0.02 0.13,0.04 0.18,0.06 0.04,0.01 0.07,0.03 0.10,0.05 l -0.01,-0.00 c 0.01,0.19 -0.07,0.28 -0.27,0.26 l 0,-0.36 -0.00,-0.02 z M 16.55,19.16 c 0.04,-1.61e-4 0.07,0.01 0.09,0.04 0.96,2.17 0.98,4.59 0.51,6.89 -0.09,-0.01 -0.06,-0.15 -0.16,-0.17 l -0.07,0.02 c 0.28,-2.14 0.47,-4.43 -0.37,-6.54 l 0,-0.23 z m 2.26,0.08 c 0.14,-0.00 0.27,0.31 0.03,0.28 -0.01,-0.05 -0.03,-0.12 -0.06,-0.19 l 0.01,0.00 0,-0.08 c 0.00,-8.58e-4 0.00,-0.00 0.01,-0.00 z M 5.10,19.52 c 0.12,0.02 0.15,0.14 0.25,0.17 0.00,0.05 0.01,0.12 0.02,0.18 l -0.01,-0.00 C 5.27,20.57 4.76,20.66 4.83,21.33 4.53,21.39 4.68,21.00 4.47,20.97 l -0.01,0.01 C 4.39,20.87 4.34,20.74 4.29,20.61 l 0.00,7.96e-4 c 0.05,-0.57 0.61,-0.64 0.81,-1.08 z m 9.90,0.09 c 0.10,0.17 0.19,0.33 0.22,0.51 a 0.13,0.13 0 0 0 -0.00,0.04 c -0.03,0.02 -0.06,0.04 -0.10,0.07 -0.08,-0.13 -0.13,-0.32 -0.26,-0.50 0.02,-0.06 0.09,-0.09 0.15,-0.13 z m 7.49,0.08 c 0.49,0.33 0.51,1.15 0.71,1.78 -0.00,0.03 -0.00,0.06 -0.00,0.09 -0.56,-0.30 -0.49,-1.23 -0.70,-1.88 z m -7.83,0.17 c 0.09,0.14 0.14,0.33 0.27,0.52 0.04,0.37 0.22,0.67 0.31,0.97 a 0.14,0.14 0 0 0 -0.00,0.07 c 0.01,0.05 0.02,0.18 0.04,0.33 l -0.00,-0.00 c 0.01,0.25 0.01,0.49 -0.27,0.45 0.02,-0.98 -0.37,-1.55 -0.54,-2.34 l 0.18,0 0.00,-0.00 z m 15.58,0.00 c 0.28,0.18 0.50,-0.08 0.72,0.08 0.11,0.41 -0.24,0.35 -0.18,0.72 l 0,3.84e-4 c -0.38,-0.07 -0.48,-0.42 -0.54,-0.81 z m -5.18,0.01 c 0.02,0.02 0.03,0.05 0.04,0.10 0.01,0.07 0.00,0.17 0.00,0.27 l -0.05,0.05 -0.03,0 0,-0.31 a 0.13,0.13 0 0 0 -0.00,-0.04 c 0.01,-0.02 0.02,-0.04 0.04,-0.07 z m -11.55,0.07 0.16,0 0,0.36 -0.18,0 -0.00,-0.00 a 0.09,0.09 0 0 0 0.01,-0.04 c -0.00,-0.11 -0.00,-0.21 0.01,-0.31 z m 10.26,0.16 c 0.35,0.72 0.52,1.54 0.64,2.36 l -0.02,-0.00 c -0.19,0.16 0.09,0.81 -0.26,0.81 l -0.01,0.00 c -0.04,-0.26 -0.06,-0.54 -0.10,-0.82 l 0.03,0.00 0,-0.45 -0.05,0.01 c 0.08,-0.26 0.02,-0.55 -0.09,-0.77 a 0.16,0.16 0 0 0 -0.02,-0.04 l 0.00,-7.97e-4 c -0.05,-0.34 -0.40,-0.74 -0.18,-1.08 l 0.09,0 0.01,-0.01 z M 3.03,20.16 c -0.06,0.27 -0.06,0.17 0,0.45 0.25,-0.01 0.38,-0.15 0.36,-0.45 l -0.36,0 z m 24.06,0.09 c 0.07,-3.72e-4 0.10,0.05 0.15,0.08 0.25,0.46 0.37,1.01 0.58,1.54 l -0.01,-0.00 c -0.09,0.29 0.19,0.98 -0.18,0.99 0.15,-1.20 -0.43,-1.67 -0.54,-2.61 z m -11.80,0.08 c 0.16,0.28 0.27,0.58 0.34,0.90 a 0.15,0.15 0 0 0 -0.00,0.04 c -0.03,0.01 -0.07,0.03 -0.12,0.04 a 0.14,0.14 0 0 0 -0.00,-0.00 c -0.08,-0.34 -0.26,-0.62 -0.30,-0.92 0.03,-0.02 0.06,-0.04 0.09,-0.06 z m 14.42,0.08 -0.00,0.00 c 0.17,0.15 0.24,0.41 0.27,0.72 l 0.03,-0.01 c -0.01,0.13 0.00,0.25 0.04,0.38 -0.02,0.05 -0.06,0.08 -0.14,0.08 -0.00,-0.00 -0.00,-0.00 -0.00,-0.01 -0.01,-0.02 -0.02,-0.06 -0.03,-0.12 -0.01,-0.09 -0.02,-0.25 -0.12,-0.37 -0.04,-0.17 -0.08,-0.36 -0.16,-0.56 -0.00,-0.03 0.00,-0.04 0.03,-0.06 0.02,-0.01 0.05,-0.02 0.08,-0.04 z m -4.48,0.03 c 0.36,0.52 0.41,1.28 0.50,1.98 a 0.13,0.13 0 0 0 -0.00,0.00 c -0.09,0.25 -0.11,0.55 -0.03,0.82 -0.04,0.13 -0.04,0.26 -0.05,0.37 -0.00,0.05 -0.01,0.09 -0.02,0.13 -0.00,-0.00 -0.00,-0.00 -0.00,-0.00 -0.01,-0.03 -0.03,-0.09 -0.03,-0.16 -0.00,-0.13 0.03,-0.31 -0.01,-0.50 l 0,-0.24 -0.01,0.00 c 0.03,-0.18 0.00,-0.35 0.01,-0.49 a 0.13,0.13 0 0 0 -0.04,-0.10 c -0.14,-0.54 -0.26,-1.10 -0.31,-1.74 l -0.02,-0.00 0.05,-0.05 z M 2.40,20.52 c -0.16,0.17 -0.01,0.22 0,0.44 l 0.00,-3.84e-4 c -0.01,0.03 -0.02,0.06 -0.03,0.09 a 0.14,0.14 0 1 0 0.26,0.08 c 0.00,-0.02 0.01,-0.06 0.02,-0.09 0.25,-0.09 -0.02,-0.38 0,-0.54 l -0.26,0 z m 23.77,0.15 c 0.17,-0.00 0.26,0.45 0.28,0.75 l 0.01,-0.00 c -0.00,0.03 -0.01,0.06 -0.02,0.09 -0.05,-0.00 -0.07,-0.03 -0.10,-0.05 -0.02,-0.16 -0.08,-0.30 -0.13,-0.43 -0.04,-0.12 -0.07,-0.23 -0.06,-0.34 0.00,-0.00 0.01,-0.00 0.02,-0.00 z M 3.30,20.97 c -0.06,0.31 -0.29,0.45 -0.35,0.76 -0.01,0.01 -0.03,0.02 -0.05,0.04 a 0.12,0.12 0 1 0 0.12,0.20 c 0.07,-0.04 0.12,-0.10 0.16,-0.14 l 0.02,0.02 c 0.25,0.07 0.23,-0.12 0.45,-0.09 -0.01,-0.28 0.06,-0.66 -0.09,-0.81 l -0.27,0 z m 9.19,7.97e-4 c 0.45,0.26 0.89,0.54 0.81,1.35 l 0.01,-0.00 c -0.00,0.03 -0.01,0.06 -0.02,0.09 -0.26,0.02 -0.25,0.80 0.01,0.80 0.39,0.06 0.24,-0.41 0.27,-0.72 l -0.01,0.00 c 0.00,-0.02 0.01,-0.05 0.01,-0.08 0.42,0.26 0.48,0.89 1.07,0.98 0.04,0.57 0.25,0.99 0.53,1.34 0.02,0.11 0.04,0.24 0.10,0.37 a 0.13,0.13 0 1 0 0.25,-0.10 c -0.04,-0.10 -0.06,-0.22 -0.09,-0.35 l 0.01,0.00 c 0.34,-0.07 0.38,0.93 0.81,1.08 l 0.00,-0.00 c 0.03,0.08 0.08,0.19 0.19,0.26 l -0.02,0.01 c 0.69,0.51 0.17,1.71 0.62,2.41 0.00,0.03 0.01,0.07 0.02,0.10 l -0.01,-0.00 0,0.18 c -0.40,-0.04 -0.47,-0.42 -0.45,-0.90 -0.46,0.19 -0.43,-0.09 -0.63,-0.36 -0.92,0.23 -1.08,-0.65 -1.78,-0.89 -0.00,-0.04 -0.00,-0.09 -0.00,-0.15 a 0.13,0.13 0 0 0 -0.15,-0.13 0.13,0.13 0 0 0 -0.12,0.15 c 0.00,0.06 0.00,0.14 0.01,0.21 l -0.01,-0.00 c 0.06,0.69 1.09,0.87 0.81,1.62 -0.32,-0.00 -0.40,-0.25 -0.63,-0.36 l -0.00,0.02 c -0.36,-0.22 -0.57,-0.57 -0.76,-0.97 -0.19,-0.40 -0.35,-0.85 -0.62,-1.23 a 0.13,0.13 0 0 0 -0.00,-0.00 c -0.11,-0.29 -0.15,-0.66 -0.29,-0.93 -0.00,-0.06 -0.01,-0.13 -0.01,-0.21 0.24,-0.54 -0.10,-1.15 -0.09,-1.70 0.01,-0.63 0.42,-1.20 0.09,-1.52 -0.00,-0.06 -0.01,-0.12 -0.02,-0.18 l 0.01,0.00 c -3.19e-4,-0.09 0.07,-0.10 0.09,-0.18 z m 22.89,0.09 c 0.27,0.05 0.25,0.40 0.45,0.54 l 3.84e-4,0 0.00,-3.84e-4 c 0.00,0.12 0.04,0.23 0.08,0.32 0.03,0.08 0.06,0.15 0.08,0.21 -0.30,0.09 -0.78,-0.70 -0.62,-1.08 z m -5.13,0.18 0.17,0 0,0.18 -0.14,0 c -0.01,-0.06 -0.02,-0.12 -0.03,-0.18 z m -0.67,0.09 c 0.01,0.04 0.01,0.10 0.03,0.16 0.01,0.06 0.02,0.13 0.06,0.21 0.02,0.05 0.07,0.10 0.13,0.13 l -0.01,0.01 0,0.54 c -0.11,-0.00 -0.08,-0.15 -0.18,-0.18 l -0.00,0.00 c -0.08,-0.22 -0.04,-0.50 -0.11,-0.81 l 0.08,-0.08 z m 2.40,0.07 c 0.21,-0.01 0.06,0.33 0.24,0.36 l 0.00,-0.00 c 0.05,0.27 0.14,0.52 0.26,0.77 -4.1e-4,0.13 -0.02,0.24 -0.09,0.31 -0.06,-0.52 -0.65,-0.94 -0.45,-1.44 0.00,-0.00 0.01,-0.00 0.02,-0.00 z m -5.15,0.00 c 0.46,0.33 0.19,1.71 0.17,2.15 -0.08,1.99e-4 -0.10,-0.06 -0.16,-0.08 -0.00,-0.06 -0.01,-0.12 -0.02,-0.18 l 0.01,0.00 c -0.02,-0.57 0.07,-1.27 -0.08,-1.71 l -0.01,0.00 c 0.00,-0.03 0.01,-0.06 0.01,-0.08 0.03,0.01 0.12,-0.05 0.08,-0.08 z m -11.16,0.01 c 0.10,0.37 0.13,0.77 0.11,1.16 -0.07,0.02 -0.10,0.10 -0.22,0.08 0.00,-0.26 0.22,-0.73 0.02,-0.96 -0.01,-0.07 -0.02,-0.16 -0.03,-0.24 0.04,-0.00 0.07,-0.02 0.11,-0.03 z m 7.87,0.01 c 0.01,7.36e-4 0.03,0.00 0.05,0.02 0.05,0.12 0.08,0.27 0.06,0.40 l -0.00,-0.00 c -0.10,-0.01 -0.21,-0.02 -0.18,-0.18 l -0.01,0.00 c 0.01,-0.07 0.01,-0.13 0.01,-0.19 0.00,-0.03 0.02,-0.05 0.05,-0.05 z m 5.06,0.05 c 0.08,0.19 0.12,0.41 0.12,0.62 -0.03,0.00 -0.06,0.01 -0.09,0.02 -0.03,-0.08 -0.06,-0.17 -0.11,-0.26 0.01,-0.11 0.01,-0.25 0.01,-0.36 0.02,-0.00 0.05,-0.01 0.07,-0.02 z m 7.49,0.01 c 0.35,0.10 0.67,0.60 0.45,0.99 -0.24,0.03 -0.08,-0.33 -0.27,-0.36 l -0.00,0.00 c -0.01,-0.12 -0.07,-0.23 -0.10,-0.32 -0.03,-0.08 -0.06,-0.15 -0.06,-0.21 l 0.00,7.97e-4 0,-0.09 z m -16.76,3.84e-4 c 0.49,0.43 0.29,2.03 0.36,3.06 l 0.01,-0.00 c -0.01,0.08 -0.01,0.15 -0.01,0.22 -2.23e-4,0.06 -0.00,0.11 -0.00,0.16 -0.22,0.49 -0.14,1.30 -0.39,1.77 a 0.14,0.14 0 0 0 -0.09,0.08 c -0.02,0.05 -0.07,0.12 -0.11,0.18 a 0.17,0.17 0 0 0 -0.00,0.00 c -0.02,-0.01 -0.05,-0.03 -0.09,-0.05 a 0.22,0.22 0 0 0 0.00,-0.04 l 0,-0.13 a 0.22,0.22 0 0 0 -0.01,-0.09 c 0.45,-1.06 0.60,-2.28 0.41,-3.41 0.10,-0.30 0.08,-0.60 0.04,-0.87 -0.04,-0.27 -0.09,-0.54 -0.09,-0.79 l 0.01,0.00 c -0.01,-0.01 0.01,-0.07 0,-0.08 z m 13.20,0.08 c 0.07,0.06 0.12,0.15 0.16,0.26 0.04,0.11 0.08,0.24 0.14,0.37 -0.02,0.08 -0.08,0.12 -0.15,0.16 -0.11,-0.23 -0.19,-0.46 -0.23,-0.72 l 0.03,0.01 c 0.00,-0.04 0.00,-0.07 0.04,-0.09 z m -4.29,0.44 a 0.18,0.18 0 0 0 0.03,0.01 c 0.03,0.07 0.06,0.15 0.10,0.24 -0.06,0.22 -0.03,0.43 -0.02,0.63 0.01,0.17 0.01,0.33 -0.02,0.47 -0.33,0.13 -0.08,-0.95 -0.15,-1.35 0.02,-0.00 0.04,-0.01 0.06,-0.01 z m 0.52,0.36 c 0.11,0.49 0.07,1.03 -0.00,1.55 -0.07,0.05 -0.04,0.22 -0.04,0.34 -0.36,-0.10 -0.05,-0.45 -0.08,-0.77 0.07,-0.21 0.05,-0.42 0.04,-0.61 -0.01,-0.18 -0.02,-0.34 0.00,-0.48 0.02,-0.00 0.05,-0.01 0.08,-0.02 z m -5.19,0.00 c 0.11,9.8e-4 0.08,0.15 0.18,0.18 l 0.00,-0.00 c 0.03,0.23 0.04,0.47 0.08,0.72 l -0.00,-7.97e-4 c -0.00,0.11 -0.11,0.12 -0.09,0.27 -0.35,-0.28 0.01,-0.82 -0.18,-1.17 z m 2.52,0.07 0,0.01 0,0.62 c -0.04,0.00 -0.09,0.01 -0.16,0.02 -0.04,-0.19 -0.02,-0.41 0.04,-0.59 a 0.13,0.13 0 0 0 0.00,-0.01 c 0.03,-0.01 0.07,-0.02 0.11,-0.04 z m 9.82,0.28 c 0.27,0.17 0.45,0.44 0.45,0.90 l -3.84e-4,-3.84e-4 c -0.34,-0.08 -0.58,-0.62 -0.45,-0.90 z M 21.96,22.95 c 0.06,0.02 0.17,0.00 0.18,0.08 -0.01,0.64 0.17,1.24 0.04,1.82 a 0.16,0.16 0 0 0 -0.03,0.08 c -0.08,0.59 -0.17,1.16 -0.31,1.73 -0.15,0.23 0.07,0.85 -0.31,0.85 0.12,-1.31 0.44,-3.05 0.45,-4.59 z m 22.34,0.18 0.27,0 0,0.26 c -0.19,0.01 -0.28,-0.07 -0.27,-0.26 z m -13.12,0.08 c 0.31,0.00 0.06,0.57 0.14,0.81 l 3.84e-4,3.84e-4 c -0.29,-0.03 -0.14,-0.51 -0.18,-0.81 0.01,-0.00 0.02,-0.00 0.03,-0.00 z m -5.90,0.02 c 0.00,0.09 -0.00,0.23 -7.97e-4,0.37 0.00,0.09 0.01,0.20 0.06,0.30 0.04,0.07 0.11,0.14 0.20,0.18 0.05,0.21 0.01,0.47 -0.06,0.72 -0.28,-0.07 0.12,-0.84 -0.37,-0.71 -0.01,-0.35 0.02,-0.66 0.16,-0.87 z m 1.17,0.09 c 0.02,10e-4 0.05,0.01 0.09,0.04 0.01,0.06 0.01,0.12 0.03,0.19 l -0.01,-0.00 c 0.02,0.17 -0.10,0.19 -0.08,0.36 -0.17,0.02 -0.17,-0.12 -0.27,-0.18 -0.11,0.43 -0.16,0.92 -0.25,1.37 -0.05,0.10 -0.07,0.21 -0.09,0.30 -0.01,0.05 -0.02,0.09 -0.04,0.12 -0.28,-0.02 -0.09,-0.28 -0.04,-0.49 a 0.16,0.16 0 0 0 0.01,-0.03 c 0.10,-0.29 0.19,-0.65 0.09,-1.00 0.06,-0.11 0.08,-0.23 0.09,-0.34 0.00,-0.09 0.01,-0.17 0.02,-0.24 0.10,-0.01 0.19,-0.02 0.28,-0.04 a 0.14,0.14 0 0 0 0.02,-0.00 l 0.00,0.01 c 0.08,-0.02 0.11,-0.05 0.16,-0.05 z m -6.37,0.05 c 0.15,-0.00 0.19,0.09 0.16,0.27 l 0.02,-0.00 c -0.04,0.39 -0.03,0.79 7.96e-4,1.18 l -0.02,-0.00 c 0.08,0.53 -0.21,0.68 -0.18,1.17 -0.20,-0.15 -0.03,-0.68 -0.09,-0.99 l -0.01,0.00 c 0.01,-0.08 0.01,-0.16 0.01,-0.23 1.37e-4,-0.05 0.00,-0.10 0.00,-0.14 0.19,-0.25 0.02,-0.86 0.07,-1.24 0.00,-3.6e-4 0.00,-6.13e-4 0.01,-7.97e-4 z m 7.55,0 0.18,0 0,0.72 -0.18,0 0,-0.72 z m -8.61,0.00 0.07,0 c 0.15,1.04 0.01,2.17 -0.41,3.15 a 0.22,0.22 0 0 0 -0.00,0.00 c -0.02,-0.01 -0.05,-0.02 -0.07,-0.03 0.12,-1.03 0.37,-2.04 0.42,-3.12 z m 1.50,0.38 c 0.12,0.16 0.12,0.78 7.97e-4,0.94 -0.02,-0.31 -0.02,-0.63 -7.97e-4,-0.94 z m 12.23,0.06 c 0.30,0.19 -0.11,0.41 -0.09,0.63 l 0.00,0.00 0.01,0.00 c -0.14,0.16 -0.18,0.35 -0.20,0.53 -0.02,0.19 -0.01,0.37 -0.05,0.54 l -0.03,-0.01 c -0.05,0.30 -0.20,0.97 -0.44,0.81 -0.01,-0.13 0.02,-0.25 0.07,-0.40 0.05,-0.15 0.12,-0.32 0.13,-0.52 0.14,-0.48 0.16,-1.21 0.59,-1.59 z m -16.76,0.09 c 0.09,0.01 0.13,0.09 0.17,0.17 -0.00,0.10 -0.00,0.19 -0.01,0.28 -0.24,0.23 -0.15,-0.23 -0.16,-0.46 z m 5.04,0.09 c 0.39,0.41 -0.00,1.30 -0.08,1.80 l -3.84e-4,3.84e-4 c -0.16,-0.43 0.20,-1.11 0.09,-1.80 z m 14.61,0.08 c 0.00,-1.74e-4 0.00,-1.24e-4 0.00,0 0.15,0.00 0.82,0.75 0.47,0.97 -0.21,-0.27 -0.36,-0.63 -0.50,-0.97 l 0.01,0.00 c 0.00,-0.00 0.00,-0.00 0.01,-0.00 z m -0.37,0.09 0.17,0 c 0.14,0.36 0.31,0.76 0.58,1.06 l -0.03,0.01 c -0.01,0.09 0.01,0.23 -0.07,0.26 -0.10,-0.07 -0.17,-0.17 -0.23,-0.30 -0.06,-0.13 -0.12,-0.29 -0.22,-0.44 0.05,-0.31 -0.27,-0.24 -0.18,-0.59 z m -7.21,0.08 c 0.26,0.13 -0.11,0.35 0,0.63 l 0,7.97e-4 0.01,-0.00 c -0.01,0.09 -0.02,0.19 -0.03,0.27 -0.14,0.03 -0.04,0.30 -0.16,0.35 -0.19,-0.01 -0.03,-0.38 -0.09,-0.54 l -0.01,-0.00 c 0.03,-0.01 0.07,-0.04 0.11,-0.07 l 0.01,-0.01 0.00,-0.01 c 0.05,-0.13 0.08,-0.28 0.03,-0.43 l 0.02,0.00 c -3.22e-4,-0.09 0.07,-0.10 0.08,-0.18 z m 5.43,0.08 c 0.11,0.00 0.17,0.04 0.24,0.09 -0.18,0.29 -0.16,0.79 -0.54,0.90 l 0,-0.26 c 0.03,-0.07 0.05,-0.13 0.08,-0.19 l 0.00,0.01 c 0.07,-0.02 0.10,-0.07 0.09,-0.18 l -0.02,-0.00 c 0.02,-0.06 0.03,-0.12 0.04,-0.18 0.06,-0.02 0.09,-0.07 0.07,-0.17 0.00,-2.48e-4 0.01,-5.21e-4 0.02,-3.84e-4 z m -0.43,0.00 c 0.01,-0.00 0.02,0.01 0.04,0.08 l 0.00,-0.00 c -0.00,0.03 -0.01,0.07 -0.02,0.10 -0.05,0.02 -0.08,0.07 -0.06,0.17 l 0.03,0.00 a 0.14,0.14 0 0 0 7.96e-4,0.00 c -0.03,0.07 -0.07,0.16 -0.11,0.27 l -0.01,-0.01 c -0.21,0.05 0.04,0.58 -0.27,0.54 l -0.02,0.00 c 0.03,-0.18 0.02,-0.35 0.04,-0.51 0.01,-0.15 0.05,-0.29 0.15,-0.41 l 0.00,0.01 c 0.14,0.06 0.17,-0.25 0.22,-0.26 z m -6.34,0.17 c 0.22,0.08 0.24,0.63 0.08,0.81 l 3.84e-4,3.84e-4 c -0.38,-0.11 0.00,-0.44 -0.09,-0.81 z m 0.90,3.84e-4 0.17,0 c 0.01,0.08 -0.00,0.16 -0.03,0.25 -0.01,0.00 -0.03,0.01 -0.05,0.03 l 0.00,-0.01 c -0.10,-0.01 -0.09,-0.14 -0.09,-0.27 z m 2.07,0 c 0.43,0.23 -0.20,0.85 -0.27,1.17 -0.08,-0.01 -0.09,-0.10 -0.09,-0.20 0.03,-0.18 0.14,-0.36 0.21,-0.61 0.13,-0.03 0.17,-0.16 0.14,-0.35 z m 5.22,0.18 c 0.12,0.02 0.15,0.14 0.27,0.18 l 0.01,-0.02 c 0.08,0.12 0.15,0.29 0.24,0.46 0.08,0.16 0.19,0.33 0.38,0.44 l -0.01,0.01 c -0.01,0.13 0.03,0.33 -0.08,0.36 l -0.02,0.00 a 0.11,0.11 0 0 0 -0.01,-0.02 c -0.23,-0.33 -0.36,-0.79 -0.76,-1.06 l 0,-0.35 z m -6.52,0.26 c 0.35,-0.01 -0.07,0.79 -0.05,0.27 l -0.01,0.00 c 0.01,-0.10 0.01,-0.19 0.03,-0.27 0.01,-0.00 0.03,-0.00 0.04,-0.00 z m -5.96,0.10 c 0.06,0.00 0.14,0.00 0.14,0.08 -0.09,0.72 0.04,1.43 -0.45,1.89 l 0,-0.29 c 0.14,-0.56 0.22,-1.11 0.30,-1.67 z m 3.73,0.16 0.00,0.01 c 0.19,0.19 0.06,0.83 -0.27,0.81 l 0,-0.27 -0.01,-0.00 c 0.11,-0.07 0.17,-0.20 0.20,-0.30 0.02,-0.09 0.04,-0.17 0.07,-0.23 z m 8.63,0.02 c 0.29,0.20 0.42,0.58 0.65,0.93 -0.00,0.06 -0.01,0.13 -0.08,0.13 l -0.00,0.00 c -0.22,-0.27 -0.42,-0.55 -0.62,-0.86 0.00,-0.08 -0.00,-0.18 0.05,-0.21 z m -3.03,0.07 c 0.05,0.00 0.10,0.01 0.08,0.09 l 0.01,-0.00 c -0.01,0.12 -0.06,0.25 -0.11,0.40 -0.05,0.15 -0.11,0.33 -0.09,0.53 -0.26,0.56 -0.47,1.18 -0.79,1.68 -0.07,-0.01 -0.10,-0.07 -0.09,-0.18 l -0.01,0.00 c 0.11,-0.33 0.31,-0.65 0.45,-1.00 l 0.01,0.01 c 0.18,-0.50 0.34,-1.04 0.54,-1.53 z m 2.61,0.27 0.17,0 c 0.20,0.31 0.41,0.60 0.65,0.89 l -0.01,0.00 c 0.08,0.19 0.65,0.65 0.30,0.79 -0.29,-0.24 -0.46,-0.64 -0.77,-0.97 l 0.01,-0.00 c -0.09,-0.24 -0.57,-0.44 -0.36,-0.72 z m 0.18,0.89 c 0.27,0.29 0.44,0.71 0.80,1.00 l -0.00,7.96e-4 c -0.08,0.24 0.52,0.44 0.13,0.53 -0.39,-0.36 -0.70,-0.85 -1.15,-1.23 l 0.02,-0.02 c 0.00,-0.14 -0.01,-0.31 0.18,-0.27 l 0.00,-0.01 z m -3.75,0.01 c 0.13,0.00 0.17,0.10 0.15,0.27 l 0.00,-0.00 c -0.13,0.32 -0.32,0.63 -0.45,0.99 l -0.00,-0.00 c -0.17,0.09 -0.28,0.73 -0.54,0.45 l -0.01,0.00 c 0.01,-0.07 0.02,-0.13 0.04,-0.20 0.44,-0.32 0.50,-1.03 0.78,-1.51 0.01,-7.35e-4 0.01,-0.00 0.02,-0.00 z m -12.34,0.25 c 0.01,0.00 0.03,0.01 0.05,0.02 l 0,0.07 a 0.22,0.22 0 0 0 0.02,0.09 c -0.05,0.20 -0.03,0.40 -0.03,0.57 -0.02,0.02 -0.06,0.03 -0.07,-0.03 l -0.00,0.00 c 0.03,-0.16 0.00,-0.33 0.00,-0.46 -0.00,-0.11 0.00,-0.19 0.03,-0.26 z m 0.95,0.18 0.00,0.00 c 0.13,0.01 0.08,0.21 0.08,0.36 l 0.01,-0.00 c -0.05,0.17 -0.09,0.35 -0.11,0.54 -0.17,0 -0.02,0.32 -0.07,0.45 -0.25,-0.13 -0.17,-0.46 -0.11,-0.74 a 0.17,0.17 0 0 0 0.02,-0.06 c 0.03,-0.10 0.09,-0.23 0.08,-0.39 0.02,-0.04 0.06,-0.09 0.09,-0.15 z m -0.52,0.09 c 0.03,0.01 0.06,0.03 0.09,0.05 a 0.17,0.17 0 0 0 0,0.02 c 0.00,0.02 -0.01,0.11 -0.04,0.20 -0.04,0.02 -0.06,0.07 -0.05,0.16 l -0.07,0 c 10e-4,-0.15 -0.00,-0.29 0.01,-0.41 a 0.22,0.22 0 0 0 0.06,-0.03 z m 15.31,0.00 0.03,0 c 0.40,0.35 0.71,0.85 1.16,1.23 l -0.03,0.02 c 0.09,0.20 0.30,0.29 0.26,0.63 -0.25,-0.19 -0.39,-0.50 -0.63,-0.72 l -0.02,0.02 c -0.14,-0.19 -0.28,-0.46 -0.54,-0.64 l 0.02,-0.01 c -0.04,-0.23 -0.49,-0.30 -0.27,-0.54 z m -4.68,3.84e-4 c 0.06,0.02 0.17,0.00 0.18,0.08 0.07,0.25 -0.12,0.23 -0.08,0.45 l 0.03,0.01 c -0.04,0.04 -0.08,0.10 -0.12,0.16 l -7.96e-4,-0.00 c -0.38,0.26 -0.53,1.23 -1.06,1.08 0.18,-0.33 0.54,-0.64 0.69,-1.10 l 0.01,0.01 c 0.21,-0.15 0.23,-0.48 0.36,-0.72 z m -3.96,0.08 c -0.01,0.22 -0.13,0.34 -0.36,0.36 l 3.84e-4,-3.84e-4 c 0.01,-0.22 0.13,-0.34 0.35,-0.36 z m 3.28,0.08 c 0.33,0.00 -0.04,0.22 0.05,0.45 l 0.02,-0.00 c -0.13,0.40 -0.52,0.72 -0.72,1.17 a 0.12,0.12 0 0 0 -0.00,0.00 l -0.01,-0.00 c -0.11,0.02 -0.16,0.12 -0.34,0.09 0.19,-0.38 0.47,-0.75 0.71,-1.17 0.25,-0.01 0.10,-0.42 0.25,-0.54 0.01,-4.09e-4 0.02,-4.59e-4 0.03,-3.84e-4 z m -5.33,0.08 c 0.02,-6.12e-4 0.04,10e-4 0.07,0.00 -0.22,0.44 -0.65,1.14 -1.08,1.08 l -3.85e-4,7.96e-4 -0.00,-3.85e-4 c 0.19,-0.14 0.35,-0.32 0.46,-0.54 0.27,-0.08 0.18,-0.53 0.53,-0.54 z m 1.37,0.09 c 0.01,-1.23e-4 0.03,0.00 0.04,0.00 -0.10,0.38 -0.62,0.59 -0.36,1.08 l 0.04,-0.01 c -0.03,0.10 -0.11,0.19 -0.19,0.28 a 0.07,0.07 0 0 0 -0.01,0.01 l -0.02,-0.01 c -0.17,-0.02 -0.19,0.10 -0.36,0.09 l 0,-0.36 -0.03,0.01 c 0.00,-0.04 0.02,-0.07 0.06,-0.11 0.04,-0.05 0.09,-0.11 0.15,-0.17 a 0.09,0.09 0 0 0 -0.09,-0.15 0.09,0.09 0 0 0 -0.06,0.03 c -0.04,0.05 -0.09,0.10 -0.15,0.17 -0.03,0.04 -0.06,0.08 -0.08,0.14 -0.81,0.16 0.52,-0.99 1.05,-1.00 z m -5.09,0.00 0.00,0.00 c 0.06,0.02 0.17,0.00 0.18,0.09 -0.13,0.70 0.09,1.35 0,1.89 -0.41,-0.15 -0.22,-0.91 -0.27,-1.44 l -0.02,0.00 c 0.02,-0.18 0.06,-0.36 0.11,-0.55 z m 6.94,0.00 c 0.41,0.31 -0.46,0.68 -0.54,1.08 0.02,0.31 0.39,-0.16 0.36,0.08 l 0.00,-7.97e-4 c -0.03,0.04 -0.06,0.09 -0.10,0.15 -0.05,0.06 -0.10,0.14 -0.14,0.23 l -0.01,-0.01 -0.26,0 c -0.01,-0.10 0.01,-0.25 -0.09,-0.27 l -0.00,-0.00 a 0.13,0.13 0 0 0 0.00,-0.04 l 0,-0.13 c 0.38,-0.24 0.56,-0.69 0.80,-1.07 z m 1.44,0.00 c 0.10,0.01 0.14,0.10 0.18,0.18 l 0.02,0.00 c -0.23,0.41 -0.54,0.81 -0.76,1.25 -0.15,0.03 -0.28,0.44 -0.42,0.17 l -0.01,0.00 c 0.09,-0.20 0.26,-0.38 0.42,-0.58 0.16,-0.19 0.32,-0.41 0.39,-0.69 l 0.00,0.00 c 0.12,-0.05 0.16,-0.19 0.18,-0.36 z m -0.41,0.25 c -0.04,0.23 -0.18,0.42 -0.35,0.63 -0.16,0.19 -0.35,0.40 -0.47,0.66 l -0.01,-0.02 c -0.05,0.04 -0.27,0.36 -0.36,0.09 l -0.01,0.00 c 0.02,-0.05 0.06,-0.10 0.10,-0.15 0.05,-0.06 0.11,-0.14 0.15,-0.23 l 0.01,0.02 c 0.49,-0.07 0.55,-1.06 0.90,-0.99 l 0.03,-0.01 z m -4.99,0.01 0.03,0.01 c -0.09,0.21 -0.24,0.39 -0.43,0.53 l -0.13,0 c 0.00,-0.35 0.18,-0.53 0.54,-0.54 z m 6.99,0.09 c 0.02,0.01 0.04,0.03 0.03,0.08 l 0.03,0.01 c -0.03,0.08 -0.04,0.16 -0.06,0.24 -0.05,-0.02 -0.07,-0.07 -0.06,-0.16 l -0.04,-0.01 c 0.02,-0.05 0.05,-0.10 0.09,-0.15 z m 4.60,0.08 c 0.14,0.11 0.25,0.30 0.38,0.48 -0.00,0.03 -0.02,0.05 -0.08,0.04 l 0.00,0.00 c -0.03,-0.01 -0.06,-0.02 -0.08,-0.04 -0.02,-0.21 -0.63,-0.37 -0.21,-0.49 z m -18.85,0.29 c 0.21,-0.00 0.44,0.39 0.22,0.60 -0.18,-0.11 -0.30,-0.29 -0.36,-0.54 l 3.84e-4,0 c 0.04,-0.04 0.08,-0.06 0.13,-0.06 z m 1.95,0.03 c 0.18,-0.00 0.33,0.19 0.34,0.02 0.33,0.62 1.02,0.89 1.44,1.44 0.10,-0.04 0.20,-0.09 0.27,-0.18 0.62,0.55 0.06,1.79 0.18,2.88 0.01,0.16 -0.08,0.21 -0.26,0.18 0.02,0.21 0.14,0.33 0.08,0.63 -0.28,0.01 -0.17,-0.36 -0.36,-0.45 -0.34,-0.07 -0.14,0.39 -0.54,0.27 -0.46,-0.79 -0.14,-1.81 -0.36,-2.70 -0.16,-0.69 -0.67,-1.21 -0.86,-1.76 a 0.14,0.14 0 0 0 -0.00,-0.01 c -0.01,-0.06 -0.02,-0.13 -0.04,-0.19 l 0.00,0.00 0,-0.09 c 0.03,-0.01 0.06,-0.02 0.10,-0.02 z m 7.72,0.03 c 0.04,5.46e-4 0.07,0.04 0.09,0.15 -0.01,0.02 -0.03,0.05 -0.05,0.08 -0.02,0.03 -0.05,0.07 -0.07,0.13 -0.18,0.11 -0.44,0.49 -0.57,0.19 0.05,-0.06 0.11,-0.14 0.15,-0.23 l 0.00,0.02 c 0.13,-0.00 0.31,-0.35 0.43,-0.35 z m 0.34,0.16 0.02,0.00 c 0.03,0.00 0.06,0.00 0.08,0.03 a 0.13,0.13 0 0 0 -3.85e-4,0.01 l 0,0.14 c -0.03,0.10 -0.11,0.16 -0.26,0.16 l -0.02,-0.00 a 0.11,0.11 0 0 0 0.00,-0.01 c 0.00,-0.05 0.02,-0.08 0.06,-0.13 0.03,-0.05 0.08,-0.11 0.11,-0.19 a 0.11,0.11 0 0 0 0.00,-0.00 z m 8.85,0.16 c 0.06,0.03 0.12,0.06 0.20,0.10 l -0.02,0.01 c -0.03,0.15 0.13,0.23 0,0.27 l -0.03,0.01 a 0.06,0.06 0 0 0 -0.00,-0.00 c -0.04,-0.07 -0.11,-0.12 -0.16,-0.17 -0.04,-0.03 -0.07,-0.07 -0.08,-0.11 l 0.02,0.01 c 0.00,-0.05 0.01,-0.10 0.09,-0.09 l 0,-0.02 z m -19.91,0.02 c 1.04,0.42 1.88,1.05 2.52,1.89 0.22,1.30 0.15,2.90 0.72,3.87 -0.95,-0.31 -0.69,1.18 -1.17,1.62 0.07,0.28 0.35,0.36 0.36,0.72 -0.56,-0.18 -0.68,-0.81 -1.07,-1.17 a 0.17,0.17 0 0 0 -0.02,-0.03 C 15.62,35.27 15.58,34.81 15.59,34.27 c 0.01,-0.53 0.06,-1.13 -0.03,-1.66 -0.25,-1.26 -0.66,-2.75 -1.14,-3.87 0.02,-0.03 0.06,-0.06 0.07,-0.11 z m 19.67,0.07 c 0.01,0.09 0.07,0.16 0.12,0.21 0.04,0.04 0.09,0.08 0.12,0.11 0.14,0.55 0.85,0.54 0.88,1.21 -0.18,-0.02 -0.17,-0.24 -0.36,-0.27 l -0.02,0.00 a 0.12,0.12 0 0 0 -0.01,-0.03 C 34.59,29.52 34.16,29.23 34.01,28.80 l 0.02,0.00 c 0.00,-0.05 0.01,-0.10 0.08,-0.09 l 0.03,-0.01 z m -17.92,0.10 c 0.19,0.00 0.19,0.20 0.22,0.36 l -7.96e-4,-3.84e-4 c -0.23,0.02 -0.29,-0.12 -0.26,-0.35 0.01,-0.00 0.02,-0.00 0.04,-0.00 z m 17.26,0.00 c 0.12,-0.00 0.19,0.04 0.27,0.09 l 0.01,-0.01 c 0.17,0.49 0.60,0.79 0.87,1.14 -0.02,0.05 -0.08,0.09 -0.14,0.12 -0.05,-0.02 -0.12,-0.04 -0.20,-0.06 l 0.00,-0.01 c -0.28,-0.40 -0.65,-0.72 -0.81,-1.26 z m 0.78,1.53 c 0.07,0.02 0.13,0.04 0.20,0.07 a 0.13,0.13 0 0 0 0.00,7.96e-4 l -0.00,0.01 c 0.94,0.54 1.70,1.51 1.35,2.88 l 0,3.84e-4 c -0.34,-0.01 -0.35,-0.36 -0.63,-0.45 -0.24,-0.06 -0.18,0.17 -0.36,0.18 -0.02,0.68 0.37,0.95 0.90,1.08 0.01,0.49 -0.16,0.79 -0.54,0.90 -0.24,-0.56 -0.48,-1.14 -0.90,-1.53 0.37,-0.69 -0.46,-1.68 0.08,-2.25 -0.01,-0.20 -0.54,-0.34 -0.27,-0.54 l -0.00,-0.02 c 0.11,0.03 0.21,0.13 0.30,0.25 a 0.10,0.10 0 0 0 0.15,-0.12 c -0.08,-0.11 -0.20,-0.24 -0.35,-0.30 0.01,-0.05 0.00,-0.13 0.05,-0.15 z m -3.30,0.08 c 0.21,0.20 0.54,0.29 0.54,0.72 l 0,3.85e-4 c -0.24,-0.17 -0.57,-0.26 -0.54,-0.72 z M 16.40,30.77 a 0.15,0.15 0 0 0 -0.01,0.00 0.15,0.15 0 0 0 -0.10,0.22 c 0.28,0.58 0.36,1.24 0.34,1.91 a 0.15,0.15 0 1 0 0.30,0.00 c 0.01,-0.69 -0.06,-1.40 -0.37,-2.05 a 0.15,0.15 0 0 0 -0.13,-0.08 0.15,0.15 0 0 0 -0.01,0 z m 4.02,0.02 c 0.65,0.85 0.17,2.11 0.18,3.15 -0.81,-0.64 -0.06,-2.17 -0.18,-3.15 z m 11.08,2.34 0.18,0 0,0.18 -0.18,0 0,-0.18 z m -13.37,0.08 c 0.34,-0.00 0.17,0.50 0.21,0.81 l 0.01,-0.00 c -0.03,0.12 -0.06,0.23 -0.09,0.37 l -0.00,-0.00 c -0.35,-0.16 -0.25,-0.80 -0.18,-1.17 0.01,-0.00 0.03,-0.00 0.05,-0.00 z m 0.21,0.81 -0.00,3.84e-4 0.00,0.00 c -1.61e-4,-0.00 -2.23e-4,-0.00 -3.84e-4,-0.00 z M 35.99,33.56 c 0.02,0.08 0.08,0.21 0.20,0.37 l -0.27,0 0,-0.35 0.06,-0.02 z m -15.92,0.29 c 0.32,0.57 0.17,1.64 -0.18,2.07 -0.09,3.23e-4 -0.10,-0.07 -0.18,-0.09 l -0.01,0.02 c -0.02,-0.09 -0.05,-0.18 -0.09,-0.29 a 0.12,0.12 0 0 0 -0.13,-0.07 0.12,0.12 0 0 0 -0.08,0.16 c 0.03,0.08 0.05,0.17 0.09,0.27 l -0.02,-0.00 c -0.40,0.04 -0.33,-1.16 -0.99,-1.17 -0.01,-0.15 0.07,-0.19 0.08,-0.31 0.03,-0.11 0.05,-0.21 0.08,-0.32 l 0.00,0.00 c 0.68,0.11 0.90,-0.23 1.44,-0.27 z m 10.74,0.17 c 0.02,1.24e-4 0.04,0.00 0.06,0.00 0.00,0.78 -0.86,0.70 -0.81,1.53 -0.06,0.33 0.34,0.19 0.36,0.45 -0.05,0.75 -0.76,0.85 -0.72,1.71 -0.11,0.12 -0.39,0.08 -0.63,0.08 l 0,0.81 c 0.32,-0.24 0.71,-0.30 1.08,0 0.07,0.37 -0.17,0.42 -0.18,0.72 -0.11,-0.00 -0.12,-0.11 -0.27,-0.09 -0.23,0.51 -0.87,0.62 -0.90,1.35 0.24,0.28 0.57,0.00 1.08,0.09 0.12,0.18 0.25,0.36 0.26,0.66 -0.37,0.43 -0.77,0.87 -1.22,1.22 l -0.13,0 c -0.07,-0.34 0.21,-0.32 0.26,-0.54 -0.16,-0.28 -0.22,-0.67 -0.63,-0.72 l -0.00,0.00 a 0.13,0.13 0 0 0 -0.04,-0.06 c -0.31,-0.24 -0.46,-0.54 -0.51,-0.87 -0.05,-0.33 -0.00,-0.70 0.07,-1.05 l 0.03,0.01 c 0.47,-0.57 -0.42,-1.06 -0.18,-1.98 l -0.00,0.00 c 0.21,-0.67 0.49,-1.32 0.97,-1.82 l 0.01,0.01 c 0.22,0.01 0.43,0.01 0.54,-0.08 0.45,-0.46 0.77,-1.44 1.46,-1.44 z m -13.23,1.62 c 0.16,-0.00 0.24,0.08 0.23,0.26 -0.01,0.03 -0.02,0.07 -0.03,0.10 -0.06,0.01 -0.08,0.07 -0.14,0.08 l -3.84e-4,0.00 c -0.05,-0.10 -0.11,-0.19 -0.17,-0.28 0.00,-0.08 0.07,-0.10 0.08,-0.17 0.01,-10e-4 0.02,-0.00 0.03,-0.00 z m 12.12,0.18 c -0.10,0.12 -0.53,0.71 -0.08,0.81 0.07,-0.28 0.45,-0.27 0.36,-0.72 -0.12,0.00 -0.19,-0.04 -0.27,-0.08 l -7.97e-4,-3.85e-4 z m -12.42,0.06 c 0.07,0.10 0.14,0.19 0.19,0.29 l -0.01,-0.00 0,0.27 c -0.18,-0.11 -0.30,-0.29 -0.36,-0.54 l 0.18,0 0.00,-0.02 z m 17.62,0.81 c 0.15,-0.00 0.24,0.35 0.39,0.37 -0.01,0.06 -0.06,0.09 -0.15,0.09 -0.12,-0.09 -0.23,-0.24 -0.39,-0.36 l 0.00,-0.00 c 0.05,-0.07 0.10,-0.10 0.14,-0.10 z m -0.49,0.28 0.23,0 c 0.12,0.09 0.22,0.24 0.39,0.35 l -0.01,0.00 c 0.06,0.26 0.42,0.23 0.36,0.63 -0.46,-0.12 -0.59,-0.59 -0.97,-0.80 -0.00,-0.06 -0.00,-0.12 0.00,-0.18 z m -15.06,0.44 c 0.49,0.05 0.87,0.68 0.72,1.08 l -0.00,0.00 c -0.03,-0.03 -0.06,-0.06 -0.09,-0.10 C 19.84,38.03 19.47,37.86 19.34,37.46 z m -2.79,0.72 c 1.05,0.03 0.65,1.16 0.63,1.98 -0.00,0.14 0.10,0.32 0.09,0.45 -0.10,0.83 -0.82,1.71 -0.09,2.34 l 0.01,-0.01 c 0.02,0.04 0.05,0.09 0.07,0.14 l 0,0.23 c -0.42,0.03 -0.47,-0.30 -0.90,-0.27 l -0.01,0.01 -0.02,-0.03 -0.02,-0.03 -0.03,-0.01 c -0.43,-0.18 -0.86,-0.12 -1.25,-0.13 -0.02,-0.25 0.24,-0.21 0.27,-0.41 l 0.04,0 a 0.09,0.09 0 1 0 0,-0.18 l -0.04,0 0,-0.08 -0.01,0.00 c 0.02,-0.28 0.17,-0.52 0.34,-0.78 0.16,-0.25 0.35,-0.53 0.42,-0.87 0.49,-0.70 0.35,-1.39 0.51,-2.30 z m 11.85,0.26 c -0.01,4.09e-4 -0.03,0.00 -0.04,0.00 l 0,7.97e-4 0,0.17 c 0.09,-4.21e-4 0.10,0.07 0.18,0.08 -0.00,-0.12 0.00,-0.28 -0.13,-0.27 z m 6.79,0.00 c 0.85,0.34 0.45,2.00 0.36,2.61 l -0.13,0 c -0.07,-0.05 -0.17,-0.14 -0.26,-0.23 a 0.13,0.13 0 0 0 -0.09,-0.03 0.13,0.13 0 0 0 -0.08,0.23 c 0.10,0.09 0.21,0.21 0.33,0.29 l -0.02,0.01 c -0.01,0.21 -0.01,0.42 0.16,0.44 0.03,0.15 0.11,0.29 0.15,0.40 0.02,0.07 0.03,0.13 0.03,0.18 -0.00,0.04 -0.01,0.09 -0.06,0.14 l -0.01,-0.01 c -0.45,-0.05 -0.58,-0.43 -1.17,-0.36 -0.13,0.52 0.45,0.32 0.45,0.72 -0.22,-0.01 -0.43,-0.01 -0.54,0.09 -0.07,0.32 0.20,0.43 3.85e-4,0.63 -0.45,0.12 -0.89,0.22 -1.35,0.17 0.02,-0.38 0.34,-1.60 0.27,-2.06 0.14,-0.21 0.22,-0.42 0.35,-0.56 l 0.00,0.01 c 0.21,-0.14 0.39,-0.32 0.54,-0.54 0.05,-0.35 -0.49,-0.10 -0.36,-0.54 l -3.85e-4,0 c 0.08,-0.24 0.19,-0.48 0.30,-0.72 0.07,-0.02 0.11,-0.10 0.14,-0.17 l 0.45,0 c 0.30,-0.11 0.21,-0.62 0.54,-0.72 z m -15.49,0.17 c 0.04,0.05 0.08,0.09 0.12,0.13 a 0.16,0.16 0 0 0 0.09,0.05 c 1.06,0.93 0.81,2.97 -0.49,3.50 -0.18,-0.26 -0.70,-0.19 -0.99,-0.36 -0.21,-0.30 0.19,-0.60 0.27,-0.90 l -0.00,-7.96e-4 c 0.04,-0.06 0.07,-0.12 0.10,-0.18 0.64,-0.59 -0.04,-2.03 0.89,-2.24 l 0.00,-0.00 z m -2.11,3.69 c 0.21,-0.00 0.23,0.18 0.22,0.40 -0.03,0.05 -0.07,0.10 -0.10,0.13 -0.08,0.00 -0.09,0.07 -0.17,0.08 l -0.01,0.01 c -0.02,-0.04 -0.05,-0.09 -0.08,-0.14 -0.03,-0.23 0.15,-0.24 0.09,-0.50 0.01,-0.00 0.03,-0.00 0.04,-0.00 z m 0.76,0.09 c 0.38,0.16 0.78,0.29 1.26,0.36 0.12,0.14 0.07,0.44 0.25,0.53 0.02,0.14 0.09,0.26 0.13,0.37 0.04,0.10 0.06,0.18 0.05,0.26 -0.06,0.02 -0.10,0.07 -0.08,0.17 -0.53,0.02 -0.85,0.12 -1.44,0.26 0.13,0.64 -0.02,1.05 -0.72,1.08 l 0.00,0.01 c -0.10,-0.01 -0.19,-0.01 -0.28,-0.02 -0.23,-0.58 0.16,-1.10 0.45,-1.43 0.12,-0.45 -0.41,-0.24 -0.36,-0.63 0.11,-0.03 0.18,-0.11 0.18,-0.27 l -3.84e-4,-0.00 a 0.13,0.13 0 0 0 0.03,-0.01 c 0.10,-0.06 0.16,-0.16 0.22,-0.26 l 0.01,0.01 c 0.15,-0.08 0.16,-0.31 0.27,-0.45 z m -3.42,0.69 c 0.40,0.02 0.78,-0.02 1.12,0.08 -0.22,0.30 -0.41,0.65 -0.31,1.28 -0.06,0.01 -0.16,0.00 -0.17,0.07 -0.45,0.05 -0.92,0.01 -1.34,-0.15 a 0.13,0.13 0 0 0 -0.00,-0.00 l 0.00,-0.00 c 0.19,-0.46 0.46,-0.85 0.72,-1.26 l -0.00,-0.02 z" />
</svg>
