<?xml version="1.0" encoding="UTF-8" standalone="no"?>
<!-- Created with Inkscape (http://www.inkscape.org/) -->
<svg xmlns:dc="http://purl.org/dc/elements/1.1/" xmlns:cc="http://creativecommons.org/ns#" xmlns:rdf="http://www.w3.org/1999/02/22-rdf-syntax-ns#" xmlns:svg="http://www.w3.org/2000/svg" xmlns="http://www.w3.org/2000/svg" xmlns:xlink="http://www.w3.org/1999/xlink" xmlns:sodipodi="http://sodipodi.sourceforge.net/DTD/sodipodi-0.dtd" xmlns:inkscape="http://www.inkscape.org/namespaces/inkscape" id="svg2" version="1.1" inkscape:version="0.48.4 r9939" sodipodi:docname="elephant01.svg" viewBox="0 0 48 48" height="100%" width="100%">
<defs/>
<path style="fill:#000000" d="m 24.61,45.73 c -0.25,-0.09 -0.67,-0.34 -0.93,-0.55 -0.46,-0.37 -0.49,-0.37 -1.03,-0.23 -0.78,0.21 -1.41,-0.03 -1.80,-0.70 -0.24,-0.42 -0.27,-0.60 -0.21,-1.35 0.03,-0.47 0.08,-1.17 0.11,-1.55 0.02,-0.37 0.10,-0.80 0.17,-0.94 0.07,-0.13 0.13,-0.50 0.12,-0.80 -0.00,-0.30 0.05,-0.66 0.12,-0.81 0.18,-0.34 0.17,-0.84 -0.03,-1.45 -0.09,-0.27 -0.19,-1.11 -0.22,-1.86 -0.05,-1.35 -0.05,-1.37 -0.50,-1.96 l -0.45,-0.59 0,-1.35 c 0,-1.08 -0.04,-1.42 -0.21,-1.68 -0.11,-0.18 -0.27,-0.44 -0.35,-0.57 -0.10,-0.18 -0.31,-0.26 -0.80,-0.32 -0.36,-0.04 -0.84,-0.11 -1.05,-0.16 l -0.38,-0.08 -0.13,1.19 c -0.10,0.89 -0.32,1.75 -0.89,3.42 -0.49,1.43 -0.78,2.51 -0.82,3.01 -0.05,0.71 -0.02,0.86 0.40,1.74 0.59,1.25 1.05,2.57 1.05,3.07 0,0.52 -0.50,1.02 -1.13,1.12 -0.26,0.04 -0.68,0.23 -0.93,0.43 -0.24,0.19 -0.58,0.39 -0.74,0.43 -0.52,0.13 -1.58,-0.02 -2.20,-0.33 C 11.23,42.59 10.93,42.53 10.41,42.56 9.66,42.60 9.11,42.33 8.65,41.70 8.28,41.20 8.23,40.17 8.54,39.36 8.72,38.87 8.80,38.40 8.80,37.66 c 3.71e-5,-0.61 0.07,-1.25 0.20,-1.60 0.16,-0.48 0.17,-0.68 0.05,-1.15 -0.08,-0.35 -0.13,-1.48 -0.11,-3.03 l 0.02,-2.47 -0.57,-1.60 C 7.09,24.15 6.92,23.60 6.79,22.62 6.71,22.06 6.61,21.55 6.56,21.50 6.45,21.37 5.62,21.78 5.08,22.24 4.54,22.70 3.97,23.61 3.97,24.02 c 0,0.18 0.13,0.63 0.30,0.99 0.36,0.77 0.39,1.57 0.11,2.64 -0.10,0.40 -0.22,0.76 -0.25,0.79 -0.03,0.03 -0.16,-0.06 -0.28,-0.22 -0.19,-0.26 -0.23,-0.26 -0.38,-0.08 -0.09,0.11 -0.28,0.19 -0.42,0.17 -0.14,-0.01 -0.41,0.01 -0.61,0.07 -0.26,0.07 -0.39,0.04 -0.49,-0.08 -0.07,-0.09 -0.23,-0.21 -0.36,-0.26 -0.20,-0.07 -0.22,-0.19 -0.17,-1.10 0.06,-1.12 0.25,-1.62 0.90,-2.31 0.32,-0.35 0.41,-0.57 0.48,-1.16 0.12,-1.14 0.65,-2.06 2.03,-3.56 C 5.50,19.17 6.16,18.33 6.30,18.04 6.48,17.68 6.60,17.05 6.70,16.03 6.77,15.21 6.91,14.21 7.00,13.80 7.47,11.74 8.35,9.76 9.19,8.84 9.62,8.37 11.32,7.18 11.56,7.18 c 0.17,0 2.38,-1.39 2.93,-1.85 0.42,-0.35 0.73,-0.76 1.03,-1.39 0.23,-0.48 0.54,-0.96 0.68,-1.04 0.34,-0.21 3.53,-0.96 4.80,-1.14 1.26,-0.17 1.83,-0.03 2.51,0.57 0.44,0.40 0.51,0.42 0.87,0.30 0.61,-0.21 1.35,-0.16 2.53,0.18 0.97,0.28 1.24,0.31 2.45,0.26 0.74,-0.03 1.52,-0.13 1.73,-0.21 0.20,-0.08 0.81,-0.16 1.36,-0.16 0.92,-0.01 1.03,0.01 1.62,0.38 0.34,0.22 0.72,0.51 0.85,0.64 0.27,0.30 0.53,0.30 1.52,-0.00 0.96,-0.30 2.70,-0.33 3.22,-0.06 0.19,0.09 0.64,0.43 1.01,0.75 0.80,0.68 1.64,1.18 2.64,1.55 1.28,0.47 2.85,2.43 3.29,4.09 0.13,0.50 0.12,0.61 -0.05,0.89 -0.11,0.17 -0.39,0.39 -0.62,0.49 -0.22,0.09 -0.46,0.24 -0.51,0.34 -0.05,0.09 -0.10,0.80 -0.10,1.58 l -0.00,1.41 -0.43,0.29 c -0.35,0.24 -0.53,0.28 -0.99,0.22 -1.90,-0.24 -1.77,-0.26 -2.27,0.17 -0.68,0.60 -0.75,0.78 -0.46,1.33 0.78,1.50 0.77,2.68 -0.04,4.66 -0.48,1.17 -0.54,1.61 -0.21,1.50 0.76,-0.24 0.76,-0.24 0.83,0.06 0.10,0.40 -0.11,0.92 -0.58,1.36 -0.35,0.33 -0.38,0.42 -0.36,1.05 0.01,0.38 0.14,1.17 0.28,1.75 0.30,1.28 0.25,2.27 -0.18,3.52 l -0.30,0.85 0.30,0.87 c 0.25,0.73 0.29,1.00 0.22,1.65 -0.05,0.49 -0.02,1.00 0.07,1.39 0.12,0.48 0.12,0.73 0.00,1.20 -0.12,0.50 -0.12,0.66 0.05,1.07 0.15,0.36 0.18,0.67 0.12,1.20 -0.06,0.61 -0.03,0.81 0.23,1.38 0.17,0.36 0.31,0.86 0.31,1.10 0,0.87 -0.48,1.61 -1.16,1.75 -0.21,0.04 -0.57,0.25 -0.81,0.45 -0.23,0.20 -0.61,0.45 -0.84,0.54 -0.49,0.20 -0.94,0.10 -1.95,-0.45 -0.54,-0.30 -0.72,-0.33 -1.36,-0.28 -0.62,0.05 -0.79,0.02 -1.15,-0.22 -0.23,-0.15 -0.53,-0.50 -0.66,-0.75 -0.20,-0.39 -0.22,-0.54 -0.10,-0.92 0.07,-0.25 0.21,-0.75 0.31,-1.10 0.18,-0.65 0.14,-1.51 -0.07,-1.51 -0.06,0 -0.35,0.19 -0.64,0.43 -1.07,0.88 -2.36,1.18 -3.86,0.90 -0.46,-0.08 -0.90,-0.15 -0.97,-0.16 -0.22,-0.00 -0.29,0.97 -0.11,1.80 0.09,0.45 0.18,1.22 0.20,1.71 0.03,0.86 0.02,0.89 -0.36,1.25 -0.35,0.31 -0.50,0.36 -1.14,0.36 -0.48,0 -0.90,0.08 -1.20,0.23 -0.69,0.35 -0.91,0.38 -1.41,0.19 z m 0.90,-0.93 c 0.10,-0.05 0.26,-0.18 0.34,-0.28 0.38,-0.45 -1.14,-0.99 -2.01,-0.70 -0.47,0.15 -0.51,0.24 -0.31,0.62 0.29,0.54 1.28,0.72 1.98,0.35 z m 2.10,-0.30 c 0.37,-0.19 0.62,-0.61 0.51,-0.89 -0.15,-0.40 -1.65,0.02 -1.84,0.52 -0.19,0.50 0.62,0.72 1.32,0.36 z M 22.68,43.96 c 0.20,-0.20 0.00,-0.51 -0.32,-0.51 -0.16,0 -0.34,-0.06 -0.39,-0.13 -0.05,-0.08 -0.00,-0.11 0.14,-0.06 0.88,0.26 0.89,0.26 1.16,-0.30 0.19,-0.41 0.23,-0.45 0.17,-0.16 -0.16,0.75 -0.18,0.73 0.87,0.82 0.54,0.04 1.14,0.11 1.32,0.16 0.26,0.07 0.35,0.04 0.43,-0.14 0.05,-0.12 0.23,-0.24 0.40,-0.25 0.95,-0.07 1.63,-0.21 1.68,-0.33 0.03,-0.07 -0.05,-0.61 -0.19,-1.18 -0.13,-0.57 -0.25,-1.27 -0.25,-1.56 -7.43e-4,-0.47 -0.08,-0.61 -0.87,-1.48 -0.80,-0.89 -1.34,-1.78 -1.63,-2.69 -0.22,-0.72 -0.31,-2.86 -0.20,-4.87 0.09,-1.67 0.08,-2.19 -0.08,-3.03 -0.10,-0.55 -0.23,-1.75 -0.27,-2.65 -0.04,-0.90 -0.10,-1.63 -0.13,-1.63 -0.03,0 -0.33,0.25 -0.67,0.55 -0.71,0.64 -1.70,0.99 -3.19,1.14 -0.82,0.08 -0.92,0.12 -0.89,0.33 0.01,0.13 0.04,0.83 0.07,1.55 0.07,1.97 0.43,2.38 1.03,1.16 0.18,-0.37 0.37,-0.68 0.43,-0.68 0.13,0 0.13,0.01 -0.22,0.80 -0.43,0.95 -0.66,1.85 -0.66,2.62 -0.00,0.75 0.13,1.16 0.50,1.53 l 0.26,0.26 0.72,-0.78 c 0.77,-0.83 1.13,-0.93 0.51,-0.14 -0.79,1.01 -0.95,1.47 -0.93,2.75 0.01,1.15 0.51,3.56 0.69,3.38 0.11,-0.11 2.05,-0.12 1.98,-0.01 -0.03,0.05 -0.32,0.09 -0.65,0.09 -0.76,0 -1.16,0.31 -1.56,1.20 -0.41,0.93 -0.39,1.06 0.10,0.95 0.22,-0.04 0.61,-0.19 0.86,-0.32 0.61,-0.31 0.59,-0.10 -0.01,0.24 -0.53,0.29 -1.26,1.05 -1.54,1.59 -0.21,0.41 -0.23,1.63 -0.04,1.87 0.15,0.19 1.13,0.13 1.34,-0.08 z m 16.43,-0.40 c 0.51,-0.30 0.74,-0.57 0.74,-0.88 0,-0.22 -0.28,-0.38 -1.05,-0.60 -0.32,-0.09 -0.31,-0.09 0.12,-0.05 0.27,0.02 0.62,0.09 0.77,0.13 0.27,0.08 0.28,0.06 0.20,-0.53 l -0.08,-0.61 0.63,-0.08 c 0.35,-0.04 0.66,-0.15 0.69,-0.23 0.03,-0.08 -0.05,-0.37 -0.19,-0.64 -0.20,-0.40 -0.23,-0.62 -0.17,-1.24 0.05,-0.57 0.02,-0.86 -0.13,-1.20 -0.19,-0.41 -0.78,-0.82 -1.19,-0.83 -0.20,-0.00 -0.83,-0.35 -0.65,-0.36 0.07,-0.00 0.45,0.10 0.84,0.24 0.39,0.13 0.76,0.21 0.81,0.18 0.18,-0.11 0.34,-0.92 0.24,-1.26 -0.16,-0.55 -0.63,-1.42 -0.97,-1.78 -0.17,-0.18 -0.26,-0.34 -0.19,-0.34 0.06,0 0.28,0.16 0.47,0.36 0.19,0.20 0.39,0.33 0.45,0.30 0.15,-0.09 0.12,-1.22 -0.04,-1.62 -0.08,-0.19 -0.45,-0.81 -0.82,-1.39 -0.79,-1.22 -1.08,-1.94 -1.18,-2.86 -0.08,-0.81 0.06,-0.52 0.35,0.69 0.23,0.99 0.90,2.19 1.18,2.13 0.10,-0.01 0.30,-0.37 0.46,-0.83 0.32,-0.95 0.36,-2.12 0.10,-3.31 -0.09,-0.45 -0.19,-0.99 -0.21,-1.20 -0.04,-0.42 -0.13,-0.43 -1.36,-0.17 -0.68,0.14 -2.13,0.04 -2.71,-0.19 -0.15,-0.06 -0.36,0.12 -0.84,0.72 -0.35,0.44 -0.80,0.93 -1.01,1.08 -0.36,0.26 -0.37,0.28 -0.30,1.02 0.08,0.88 0.41,2.05 0.58,2.05 0.06,0 0.23,-0.22 0.36,-0.49 0.22,-0.44 0.49,-0.65 0.49,-0.38 0,0.23 -0.63,2.02 -0.81,2.30 -0.24,0.36 -0.37,2.09 -0.19,2.55 0.08,0.21 0.25,0.34 0.48,0.39 0.57,0.11 0.92,0.47 1.03,1.08 0.05,0.30 0.17,0.79 0.26,1.08 0.15,0.51 0.14,0.55 -0.12,0.77 -0.17,0.13 -0.48,0.23 -0.76,0.23 -0.67,0 -0.78,0.25 -0.60,1.44 0.07,0.51 0.10,1.20 0.05,1.52 -0.07,0.51 -0.05,0.60 0.14,0.64 0.18,0.03 0.15,0.08 -0.14,0.22 -0.50,0.24 -0.56,0.74 -0.12,1.17 0.28,0.28 0.38,0.31 0.84,0.23 0.69,-0.11 0.70,-0.12 0.70,-0.66 0,-0.49 -0.13,-0.68 -0.55,-0.78 -0.14,-0.03 -0.06,-0.06 0.19,-0.07 0.34,-0.01 0.47,-0.08 0.58,-0.32 0.07,-0.17 0.20,-0.30 0.28,-0.30 0.08,0 0.10,0.08 0.04,0.21 -0.05,0.11 -0.12,0.43 -0.15,0.69 -0.05,0.45 -0.04,0.47 0.23,0.39 0.16,-0.04 0.51,-0.11 0.78,-0.14 l 0.49,-0.05 -0.54,0.18 c -1.17,0.39 -1.21,0.85 -0.09,1.37 0.78,0.36 1.01,0.37 1.56,0.04 z m 1.81,-1.03 c 0.31,-0.22 0.57,-0.81 0.51,-1.19 -0.05,-0.41 -0.48,-0.43 -0.94,-0.04 -0.32,0.27 -0.37,0.38 -0.31,0.71 0.13,0.78 0.25,0.86 0.74,0.52 z M 13.83,42.16 c 0.68,-0.35 0.66,-0.81 -0.06,-1.12 l -0.45,-0.19 0.60,0.07 0.60,0.07 -0.04,-0.63 -0.04,-0.63 0.22,0.31 c 0.12,0.17 0.34,0.31 0.49,0.32 0.18,0.00 0.20,0.03 0.08,0.08 -0.10,0.03 -0.22,0.13 -0.27,0.20 -0.15,0.23 -0.10,0.91 0.07,0.97 0.25,0.09 0.73,-0.18 0.94,-0.57 0.17,-0.31 0.17,-0.35 -0.04,-0.52 -0.18,-0.13 -0.20,-0.21 -0.08,-0.35 0.18,-0.22 -0.06,-1.00 -0.71,-2.23 -0.44,-0.84 -0.44,-0.88 -0.44,-2.28 0.00,-1.41 0.01,-1.45 0.57,-2.85 0.61,-1.53 1.08,-2.98 1.08,-3.34 0,-0.56 -0.94,-0.77 -1.88,-0.40 -0.65,0.25 -0.92,0.48 -1.21,1.03 -0.26,0.50 -0.31,0.30 -0.07,-0.28 0.22,-0.52 0.82,-1.02 1.78,-1.47 0.94,-0.44 0.97,-0.60 0.24,-1.63 -0.37,-0.52 -0.92,-1.03 -1.88,-1.75 -0.74,-0.55 -1.63,-1.30 -1.96,-1.67 -0.68,-0.75 -1.50,-1.93 -1.41,-2.02 0.03,-0.03 0.24,0.21 0.45,0.54 0.53,0.84 1.38,1.60 2.48,2.23 1.10,0.63 1.89,1.36 2.80,2.57 0.36,0.49 0.83,0.98 1.03,1.08 0.53,0.27 2.33,0.39 2.47,0.17 0.12,-0.19 0.13,-1.51 0.00,-1.95 -0.09,-0.33 -0.18,-0.39 -1.06,-0.70 -0.95,-0.33 -2.12,-1.51 -1.81,-1.82 0.16,-0.16 0.81,0.09 0.69,0.28 -0.14,0.24 0.19,0.60 0.89,0.95 0.66,0.32 0.81,0.34 2.19,0.34 1.11,0 1.64,-0.05 2.12,-0.22 0.77,-0.26 1.65,-1.02 2.10,-1.78 0.32,-0.55 0.32,-0.57 0.19,-1.66 -0.15,-1.19 -0.27,-1.45 -0.71,-1.45 -0.20,0 -0.39,0.17 -0.68,0.62 -0.66,1.03 -2.96,2.96 -3.52,2.96 -0.06,-8.66e-4 0.16,-0.16 0.51,-0.37 0.79,-0.46 2.06,-1.80 1.97,-2.08 -0.30,-0.90 -0.69,-2.49 -0.69,-2.81 -0.00,-0.44 -0.15,-0.60 -0.70,-0.72 -0.60,-0.12 -1.01,-0.61 -1.10,-1.32 -0.09,-0.73 -0.29,-0.87 -1.03,-0.71 -0.60,0.13 -1.56,-0.10 -1.90,-0.48 -0.46,-0.51 -0.58,-1.07 -0.42,-1.99 0.17,-1.04 0.12,-1.13 -1.14,-1.79 -0.94,-0.49 -1.35,-0.92 -1.35,-1.41 8.67e-4,-0.17 0.19,-0.76 0.42,-1.30 0.43,-0.98 0.75,-2.15 0.66,-2.40 -0.02,-0.07 -0.52,0.17 -1.09,0.54 -0.57,0.37 -1.46,0.90 -1.98,1.17 -1.92,1.01 -2.66,1.78 -3.33,3.45 -1.01,2.52 -1.24,3.94 -1.24,7.88 -4.95e-4,4.00 0.01,4.07 1.70,8.76 l 0.58,1.60 0.00,2.22 c 0.00,1.86 0.03,2.29 0.21,2.62 0.25,0.47 0.26,0.90 0.04,1.64 -0.11,0.38 -0.13,0.77 -0.07,1.27 0.10,0.78 0.05,1.05 -0.42,2.06 -0.17,0.37 -0.32,0.83 -0.32,1.02 -0.00,0.33 0.00,0.34 0.80,0.34 0.80,0 0.81,-6.18e-4 0.99,-0.43 0.28,-0.67 0.43,-0.53 0.34,0.32 l -0.07,0.76 0.29,-0.09 c 0.16,-0.05 0.46,-0.11 0.66,-0.14 l 0.37,-0.05 -0.39,0.15 c -0.59,0.23 -0.86,0.54 -0.70,0.80 0.24,0.39 0.69,0.53 1.47,0.48 0.41,-0.02 0.91,-0.14 1.12,-0.24 z m -1.23,-1.27 c 0.08,-0.03 0.25,-0.03 0.37,-0.00 0.12,0.03 0.05,0.05 -0.15,0.06 -0.20,0.00 -0.30,-0.02 -0.21,-0.05 z m 5.67,-17.29 c 0.03,-0.09 -0.05,-0.54 -0.20,-1.00 -0.31,-0.96 -0.28,-2.16 0.07,-3.19 0.29,-0.84 0.36,-0.62 0.11,0.36 -0.24,0.96 -0.20,1.23 0.32,2.57 0.26,0.66 0.46,0.99 0.63,1.03 0.22,0.05 0.22,0.07 -0.05,0.22 -0.40,0.22 -0.98,0.22 -0.90,0.00 z m -7.94,18.16 c 0.41,-0.41 0.05,-1.04 -0.60,-1.04 -0.55,0 -0.87,0.37 -0.67,0.76 0.08,0.15 0.21,0.32 0.28,0.37 0.23,0.15 0.79,0.10 0.99,-0.09 z m 20.97,-2.16 c 0.44,-0.07 1.04,-0.26 1.32,-0.43 0.56,-0.32 1.15,-0.95 1.15,-1.23 0,-0.09 0.08,-0.17 0.19,-0.17 0.10,0 0.25,-0.15 0.32,-0.35 0.12,-0.32 0.16,-0.34 0.70,-0.29 0.85,0.08 0.97,-0.13 0.56,-1.01 -0.17,-0.37 -0.37,-0.68 -0.42,-0.68 -0.05,0 -0.27,0.19 -0.48,0.43 -0.20,0.23 -0.45,0.43 -0.54,0.43 -0.22,0 -0.46,0.25 -0.46,0.50 0,0.18 -0.04,0.19 -0.36,0.07 -0.29,-0.11 -0.40,-0.10 -0.58,0.06 -0.20,0.18 -0.24,0.18 -0.51,-0.03 -0.16,-0.13 -0.38,-0.23 -0.50,-0.23 -0.31,0 -0.90,0.32 -1.23,0.67 -0.16,0.17 -0.34,0.31 -0.41,0.31 -0.06,0 0.11,-0.24 0.39,-0.55 0.56,-0.61 0.58,-0.66 0.33,-0.99 -0.16,-0.21 -0.21,-0.22 -0.64,-0.06 -0.81,0.29 -0.86,0.28 -0.38,-0.02 0.25,-0.16 0.49,-0.32 0.53,-0.36 0.03,-0.03 -0.05,-0.36 -0.21,-0.73 -0.23,-0.55 -0.27,-0.89 -0.27,-2.02 0.00,-1.41 0.17,-2.16 1.09,-4.85 0.66,-1.95 1.35,-4.77 1.50,-6.22 0.07,-0.66 0.06,-0.69 -0.44,-1.26 -0.60,-0.68 -1.62,-1.22 -2.97,-1.57 -0.51,-0.13 -0.78,-0.24 -0.61,-0.24 0.39,-0.00 2.01,0.43 2.50,0.69 0.20,0.10 0.64,0.44 0.96,0.74 0.32,0.30 0.65,0.51 0.72,0.47 0.07,-0.04 0.12,-0.64 0.12,-1.51 l 0,-1.43 -0.52,-0.52 c -0.49,-0.48 -1.49,-0.92 -2.11,-0.92 -0.10,0 -0.22,-0.05 -0.26,-0.12 -0.04,-0.06 -0.02,-0.12 0.04,-0.12 0.27,0 1.79,0.52 2.17,0.75 0.52,0.31 0.61,0.18 0.45,-0.66 -0.20,-1.07 -0.26,-1.98 -0.16,-2.44 0.07,-0.34 0.11,-0.18 0.18,0.86 0.05,0.80 0.20,1.69 0.39,2.34 0.17,0.57 0.31,1.27 0.31,1.54 0.00,0.76 0.09,0.85 0.79,0.67 0.46,-0.11 0.68,-0.11 1.00,0.00 0.22,0.08 0.46,0.11 0.53,0.07 0.23,-0.14 0.65,-1.50 0.66,-2.17 0.00,-0.37 -0.08,-0.97 -0.21,-1.33 -0.22,-0.65 -0.22,-1.90 -0.00,-2.77 0.08,-0.33 0.08,-0.34 -0.54,-0.34 -0.75,0 -1.25,-0.20 -1.25,-0.51 0,-0.30 0.56,-0.57 0.77,-0.37 0.19,0.19 0.34,0.18 0.34,-0.02 0,-0.10 0.19,-0.20 0.48,-0.24 0.58,-0.09 0.87,-0.44 0.87,-1.05 0,-0.36 -0.10,-0.53 -0.68,-1.07 -0.70,-0.67 -1.15,-1.44 -0.91,-1.59 0.07,-0.04 0.16,0.03 0.19,0.17 0.08,0.31 0.23,0.33 0.34,0.04 C 35.76,7.40 35.81,5.74 35.66,5.29 35.57,5.01 35.19,4.54 34.66,4.04 33.61,3.05 33.30,2.97 31.82,3.27 31.24,3.40 30.18,3.52 29.46,3.55 28.31,3.61 28.06,3.58 27.18,3.29 25.47,2.74 24.39,2.94 23.30,4.00 c -0.64,0.62 -0.77,1.08 -0.70,2.35 0.03,0.64 -0.00,1.13 -0.12,1.48 -0.23,0.68 -0.07,0.81 0.48,0.39 0.24,-0.18 0.46,-0.31 0.49,-0.29 0.02,0.02 -0.38,0.50 -0.92,1.06 -0.71,0.74 -0.99,1.13 -1.05,1.45 -0.10,0.56 0.00,1.10 0.32,1.55 0.37,0.52 0.22,0.71 -0.15,0.21 -0.63,-0.82 -0.68,-1.76 -0.13,-2.58 0.23,-0.35 0.27,-0.50 0.17,-0.76 -0.09,-0.24 -0.05,-0.47 0.17,-1.03 0.35,-0.85 0.36,-0.95 0.11,-1.15 -0.10,-0.08 -0.18,-0.25 -0.18,-0.38 0,-0.13 -0.21,-0.37 -0.51,-0.57 -0.50,-0.33 -0.51,-0.34 -0.19,-0.38 0.18,-0.02 0.44,0.02 0.58,0.09 0.34,0.18 0.49,0.06 0.49,-0.38 0,-0.59 0.33,-1.25 0.89,-1.75 L 23.59,2.85 23.24,2.55 c -0.65,-0.58 -1.59,-0.54 -4.61,0.18 -1.94,0.46 -2.18,0.59 -2.53,1.30 -0.28,0.58 -0.35,0.83 -0.68,2.39 -0.10,0.50 -0.41,1.46 -0.67,2.13 -0.26,0.66 -0.45,1.29 -0.41,1.39 0.03,0.10 0.41,0.29 0.83,0.43 1.00,0.33 1.19,0.48 1.54,1.16 0.26,0.53 0.27,0.62 0.13,1.48 -0.25,1.55 0.22,2.04 1.57,1.63 0.54,-0.16 0.79,-0.18 1.05,-0.08 0.42,0.16 0.71,0.72 0.71,1.35 0,0.27 0.03,0.57 0.07,0.68 0.08,0.21 0.97,0.50 1.16,0.37 0.27,-0.16 0.90,-1.65 1.03,-2.45 l 0.14,-0.85 0.22,0.50 c 0.28,0.63 0.21,1.04 -0.38,2.25 -0.38,0.78 -0.45,1.04 -0.45,1.72 0.00,0.47 0.08,1.00 0.21,1.28 l 0.20,0.48 0.24,-0.26 c 0.24,-0.26 0.47,-0.35 1.10,-0.42 0.22,-0.02 0.30,-0.10 0.28,-0.28 -0.38,-3.30 -0.37,-3.64 0.15,-5.32 0.23,-0.74 0.43,-1.40 0.43,-1.46 3.71e-4,-0.05 -0.14,-0.01 -0.31,0.09 -0.19,0.12 -0.49,0.19 -0.77,0.16 -0.36,-0.03 -0.49,-0.11 -0.62,-0.38 -0.09,-0.19 -0.35,-0.42 -0.58,-0.52 -0.61,-0.25 -0.51,-0.38 0.29,-0.39 0.67,-0.00 1.65,0.31 1.83,0.60 0.11,0.19 0.28,0.12 0.36,-0.14 0.16,-0.50 0.20,-0.11 0.05,0.50 -0.11,0.46 -0.11,0.67 -0.01,0.79 0.10,0.12 0.08,0.20 -0.06,0.33 -0.32,0.26 -0.53,0.90 -0.53,1.59 0,0.68 0.06,0.73 0.50,0.39 0.32,-0.25 1.03,-0.63 1.18,-0.63 0.05,0 -0.26,0.23 -0.70,0.52 l -0.80,0.52 0.01,1.29 c 0.01,0.92 0.11,1.70 0.35,2.72 0.29,1.24 0.34,1.74 0.39,4.05 0.06,3.03 0.03,2.98 1.14,2.07 0.89,-0.73 1.26,-0.79 2.11,-0.36 0.68,0.34 0.65,0.55 -0.03,0.31 -0.61,-0.21 -1.01,-0.16 -1.79,0.24 -0.85,0.45 -1.28,0.81 -1.28,1.11 0,0.34 0.18,0.37 0.76,0.11 0.29,-0.13 0.62,-0.24 0.72,-0.24 0.10,-8.66e-4 -0.10,0.13 -0.45,0.29 -0.79,0.36 -0.90,0.57 -0.77,1.37 0.05,0.34 0.04,1.63 -0.02,2.89 -0.21,3.78 0.14,5.30 1.62,6.84 1.19,1.24 2.14,1.52 4.08,1.19 z M 30.08,21.30 c -0.10,-0.05 -0.46,-0.14 -0.81,-0.19 -0.53,-0.07 -1.19,-0.30 -0.87,-0.31 0.06,-9.9e-4 0.01,-0.11 -0.11,-0.24 -0.20,-0.22 -0.20,-0.24 -0.01,-0.24 0.20,0 2.05,0.95 2.05,1.06 0,0.06 -0.03,0.06 -0.24,-0.06 z m -3.71,-0.31 c 0,-0.11 0.73,-0.43 0.98,-0.43 0.29,0 0.34,0.31 0.05,0.41 -0.23,0.08 -1.04,0.10 -1.04,0.01 z m 4.70,-2.63 c -0.79,-0.42 -0.94,-0.54 -0.61,-0.48 0.38,0.07 1.73,0.85 1.73,1.00 0,0.07 0.08,0.11 -1.11,-0.52 z m -4.36,0.38 c -0.15,-0.15 -0.09,-0.24 0.22,-0.39 0.45,-0.20 0.62,-0.17 0.62,0.10 0,0.15 -0.08,0.24 -0.21,0.24 -0.11,0 -0.28,0.02 -0.38,0.06 -0.09,0.03 -0.21,0.02 -0.25,-0.02 z m 2.08,-4.12 c -0.04,-0.07 0.00,-0.09 0.11,-0.04 0.21,0.08 0.25,0.17 0.07,0.17 -0.06,0 -0.15,-0.05 -0.19,-0.12 z m 3.65,-1.86 c 9.9e-4,-0.16 0.05,-0.38 0.12,-0.48 0.08,-0.13 0.09,-0.05 0.04,0.24 -0.09,0.53 -0.16,0.63 -0.16,0.23 z m 0.50,23.76 c 0.35,-0.19 0.29,-0.34 -0.18,-0.43 -0.73,-0.13 -1.20,0.30 -0.50,0.47 0.40,0.09 0.43,0.09 0.68,-0.03 z m 0.94,-0.61 c 0.03,-0.15 0.16,-0.24 0.33,-0.24 0.26,0 0.56,-0.20 0.56,-0.39 0,-0.05 -0.12,-0.09 -0.28,-0.09 -0.15,0 -0.48,-0.11 -0.73,-0.24 -0.35,-0.18 -0.53,-0.21 -0.77,-0.12 -0.36,0.13 -0.40,0.35 -0.09,0.44 0.11,0.03 0.32,0.11 0.46,0.18 0.22,0.10 0.22,0.10 -0.03,0.04 -0.32,-0.08 -0.77,0.03 -0.77,0.19 0,0.16 0.63,0.47 0.97,0.48 0.18,0.00 0.31,-0.08 0.35,-0.24 z m -2.14,-0.30 c 0.10,-0.10 0.21,-0.34 0.26,-0.54 0.14,-0.67 0.77,-0.95 1.67,-0.73 0.15,0.03 0.19,-0.19 0.25,-1.37 0.03,-0.78 0.14,-1.56 0.22,-1.73 0.12,-0.26 0.10,-0.45 -0.15,-1.23 -0.16,-0.50 -0.34,-1.20 -0.39,-1.54 -0.04,-0.34 -0.13,-0.65 -0.20,-0.69 -0.06,-0.04 -0.51,0.02 -1.00,0.13 l -0.89,0.20 -0.22,0.60 c -1.08,2.92 -1.25,4.85 -0.53,6.41 0.33,0.72 0.62,0.87 0.98,0.50 z m 1.48,-8.60 c 0.79,-0.29 2.18,-1.48 2.18,-1.85 0,-0.13 -0.34,-0.47 -0.83,-0.84 -0.45,-0.34 -0.99,-0.79 -1.19,-1.00 -0.19,-0.20 -0.40,-0.38 -0.45,-0.38 -0.05,0 -0.13,0.20 -0.17,0.46 -0.04,0.25 -0.26,1.17 -0.50,2.04 -0.23,0.86 -0.42,1.67 -0.42,1.77 0,0.23 0.34,0.18 1.39,-0.20 z m 6.68,-2.38 c 0.78,-0.41 1.41,-1.04 1.22,-1.23 -0.07,-0.07 -0.21,-0.06 -0.37,0.01 -0.42,0.22 -1.94,0.15 -2.97,-0.14 -0.75,-0.21 -1.05,-0.38 -1.46,-0.79 -0.54,-0.54 -1.23,-1.79 -1.38,-2.52 -0.08,-0.40 -0.12,-0.43 -0.62,-0.47 -0.88,-0.06 -1.07,0.15 -1.17,1.33 -0.13,1.65 0.09,2.08 1.80,3.33 0.82,0.60 1.16,0.74 2.01,0.87 1.06,0.16 2.14,0.01 2.94,-0.40 z M 39.78,23.32 c 0.10,-0.04 0.22,-0.27 0.27,-0.52 0.04,-0.24 0.29,-0.99 0.56,-1.65 0.57,-1.42 0.73,-2.79 0.44,-3.62 -0.09,-0.27 -0.23,-0.49 -0.31,-0.49 -0.07,0 -0.30,0.23 -0.51,0.53 -0.62,0.86 -0.98,1.01 -2.39,1.01 l -1.21,4.95e-4 -0.25,0.58 c -0.14,0.32 -0.42,0.82 -0.61,1.11 l -0.36,0.52 0.34,0.63 c 0.18,0.34 0.55,0.81 0.81,1.03 0.72,0.61 2.58,1.11 3.23,0.85 z M 5.57,21.17 c 0.79,-0.65 1.26,-1.79 0.79,-1.95 -0.22,-0.07 -2.37,2.38 -2.64,3.01 -0.39,0.93 -0.27,0.96 0.54,0.14 0.43,-0.42 1.02,-0.97 1.30,-1.20 z M 38.47,17.76 c 0.74,-0.22 1.12,-0.62 1.65,-1.74 0.56,-1.20 0.84,-1.34 2.60,-1.34 1.31,0 1.47,-0.02 1.71,-0.26 0.33,-0.33 0.43,-1.18 0.24,-2.00 -0.18,-0.77 -4.95e-4,-1.25 0.55,-1.42 0.87,-0.26 0.92,-0.30 0.92,-0.75 0,-0.53 -0.31,-1.21 -1.08,-2.34 C 44.47,6.97 44.44,6.94 42.45,6.02 41.94,5.78 41.20,5.30 40.81,4.96 40.41,4.61 39.93,4.25 39.73,4.15 39.22,3.88 37.82,3.91 36.86,4.21 c -0.99,0.30 -1.15,0.47 -0.96,1.00 0.07,0.21 0.13,0.63 0.13,0.92 0,0.29 0.06,0.57 0.15,0.62 0.08,0.05 0.61,0.07 1.17,0.05 0.57,-0.01 1.02,0.01 1.02,0.07 0,0.06 -0.31,0.18 -0.69,0.26 -1.17,0.26 -1.84,0.62 -1.40,0.77 0.08,0.02 0.07,0.17 -0.02,0.43 -0.12,0.33 -0.11,0.43 0.09,0.72 0.74,1.03 0.80,1.43 0.43,2.60 -0.13,0.40 -0.32,1.22 -0.43,1.81 -0.19,1.06 -0.19,1.08 0.11,2.28 0.18,0.70 0.28,1.35 0.23,1.55 -0.04,0.18 -0.03,0.39 0.00,0.46 0.11,0.18 1.03,0.15 1.76,-0.06 z" />
</svg>
