<?xml version="1.0" encoding="UTF-8" standalone="no"?>
<!-- Created with Inkscape (http://www.inkscape.org/) -->
<svg xmlns:dc="http://purl.org/dc/elements/1.1/" xmlns:cc="http://creativecommons.org/ns#" xmlns:rdf="http://www.w3.org/1999/02/22-rdf-syntax-ns#" xmlns:svg="http://www.w3.org/2000/svg" xmlns="http://www.w3.org/2000/svg" version="1.1" width="100%" height="100%" viewBox="0 0 48 48" id="svg2">
<defs id="defs46" />
<path d="m 11.46,1.19 c -0.05,-2.42e-4 -0.10,0.00 -0.15,0.01 C 11.11,1.24 10.93,1.32 10.80,1.38 9.70,1.88 9.07,2.97 8.43,3.83 7.48,5.10 6.73,6.52 6.08,7.95 5.66,8.88 5.29,9.85 5.06,10.87 c -0.35,1.60 -0.48,3.25 -0.46,4.89 0.00,0.15 0.00,0.30 0.01,0.46 -0.13,-0.05 -0.26,-0.07 -0.39,-0.08 -0.16,-0.00 -0.31,0.00 -0.44,0.01 -0.32,0.00 -0.67,0.03 -1.01,0.18 -0.27,0.11 -0.52,0.30 -0.72,0.53 -0.25,0.31 -0.39,0.68 -0.50,1.03 -0.14,0.46 -0.14,0.92 -0.20,1.35 -0.04,0.33 -0.28,0.77 -0.13,1.26 0.16,0.54 0.64,0.88 1.00,1.18 0.44,0.36 0.95,0.62 1.45,0.84 0.32,0.14 0.67,0.26 1.05,0.31 0.17,0.02 0.33,-0.00 0.46,-0.03 0.13,-0.02 0.23,-0.02 0.30,-0.00 0.20,0.05 0.54,0.27 0.80,0.48 0.21,0.16 0.35,0.28 0.41,0.34 1.54,2.86 3.41,5.54 5.44,8.06 0.81,1.01 1.69,2.01 2.68,2.89 -0.00,-4.18e-4 -0.00,4.13e-4 -0.01,0 -0.19,-0.01 -0.41,-0.03 -0.61,-0.03 -0.19,0.00 -0.38,0.02 -0.54,0.07 -0.32,0.11 -0.46,0.39 -0.59,0.52 -0.20,0.20 -0.42,0.41 -0.62,0.64 -0.20,0.23 -0.38,0.47 -0.55,0.72 -0.18,0.27 -0.49,0.56 -0.59,0.98 -0.11,0.48 -0.11,1.06 0.14,1.53 0.22,0.38 0.62,0.61 1.01,0.73 0.54,0.17 1.10,0.07 1.60,-0.00 0.75,-0.12 1.45,-0.43 2.13,-0.71 0.54,-0.22 1.03,-0.53 1.53,-0.76 0.40,-0.18 1.35,-0.62 1.51,-0.70 0.19,0.10 0.39,0.21 0.59,0.31 1.66,0.84 3.42,1.54 5.23,2.03 0.95,0.25 1.92,0.43 2.89,0.58 -0.08,0.04 -0.16,0.09 -0.22,0.13 -0.20,0.12 -0.58,0.22 -0.76,0.58 -0.21,0.40 -0.06,0.84 -0.02,1.17 0.09,0.66 0.30,1.29 0.56,1.90 0.17,0.41 0.35,0.88 0.72,1.24 0.36,0.35 0.83,0.61 1.32,0.73 0.44,0.10 0.96,0.13 1.42,-0.06 0.42,-0.18 0.63,-0.59 0.85,-0.85 0.34,-0.41 0.72,-0.83 0.97,-1.35 0.21,-0.46 0.27,-0.96 0.36,-1.41 0.08,-0.36 0.24,-0.77 0.21,-1.23 -0.00,-0.05 -0.01,-0.10 -0.02,-0.15 0.00,3.8e-4 0.00,-3.82e-4 0.00,0 2.35,0.31 4.72,0.67 7.11,0.80 1.24,0.06 2.57,0.31 3.88,-0.00 0.67,-0.16 1.42,-0.44 1.92,-1.03 0.36,-0.43 0.39,-0.98 0.48,-1.40 0.07,-0.33 0.19,-0.74 0.10,-1.17 -0.17,-0.90 -0.76,-1.63 -1.21,-2.30 -0.55,-0.83 -1.19,-1.62 -1.92,-2.32 -1.13,-1.07 -2.40,-2.01 -3.74,-2.81 -1.77,-1.05 -3.69,-1.78 -5.58,-2.55 -0.05,-0.11 -0.62,-1.22 -0.89,-1.72 -0.27,-0.49 -0.45,-1.11 -0.89,-1.60 -0.47,-0.52 -1.09,-0.93 -1.75,-1.19 -0.35,-0.14 -0.72,-0.13 -1.03,-0.17 -0.84,-0.09 -1.66,0.28 -2.08,0.57 -0.11,0.07 -0.12,0.17 -0.14,0.25 -0.01,0.08 -0.02,0.16 -0.02,0.26 -0.00,0.19 0.01,0.43 0.04,0.65 0.01,0.16 0.04,0.32 0.06,0.47 C 26.83,25.65 25.94,25.37 25.04,25.08 23.54,24.59 22.00,24.25 20.59,23.66 19.56,23.24 18.56,22.73 17.65,22.12 16.34,21.25 15.12,20.24 14.03,19.11 13.03,18.07 12.20,16.86 11.36,15.65 10.71,14.73 10.01,13.87 9.61,12.90 9.18,11.85 9.02,10.69 8.88,9.52 8.76,8.54 8.62,7.56 8.81,6.66 9.01,5.65 9.53,4.68 10.12,3.77 c 0.18,-0.27 0.70,-0.59 1.16,-0.91 0.22,-0.16 0.44,-0.32 0.59,-0.55 0.15,-0.22 0.20,-0.54 0.07,-0.83 -0.06,-0.13 -0.19,-0.22 -0.31,-0.25 -0.05,-0.01 -0.11,-0.02 -0.17,-0.02 z m -0.00,0.56 c 0.03,0.08 0.02,0.13 -0.04,0.23 -0.07,0.11 -0.24,0.26 -0.45,0.40 C 10.54,2.70 9.96,2.98 9.65,3.47 9.04,4.40 8.49,5.42 8.26,6.55 c -0.04,0.24 -0.07,0.48 -0.08,0.73 -0.04,0.03 -0.02,0.11 -0.00,0.20 -0.00,0.09 -0.00,0.18 -0.00,0.28 C 8.14,7.87 8.12,7.97 8.07,8.05 8.02,8.16 7.91,8.23 7.85,8.33 7.79,8.44 7.82,8.62 7.72,8.67 7.57,8.74 7.40,8.56 7.24,8.53 7.12,8.51 7.00,8.45 6.90,8.50 6.74,8.57 6.66,8.76 6.58,8.91 6.51,9.02 6.49,9.15 6.44,9.27 6.39,9.41 6.30,9.55 6.25,9.69 c -0.04,0.13 -0.01,0.28 -0.07,0.40 -0.06,0.10 -0.17,0.17 -0.27,0.25 -0.04,0.03 -0.10,0.08 -0.15,0.11 C 5.96,9.69 6.26,8.93 6.60,8.18 7.24,6.77 7.97,5.39 8.88,4.16 9.55,3.27 10.15,2.29 11.03,1.89 c 0.10,-0.04 0.26,-0.10 0.36,-0.12 0.03,-0.00 0.04,-0.00 0.05,-0.00 z M 6.73,10.65 c 0.01,-0.00 0.02,-0.00 0.03,0 0.06,0.00 0.10,0.09 0.13,0.15 0.07,0.19 0.03,0.41 0,0.62 -0.05,0.30 -0.21,0.59 -0.34,0.87 -0.11,0.25 -0.22,0.52 -0.39,0.75 -0.14,0.21 -0.42,0.33 -0.52,0.57 -0.10,0.25 -0.06,0.54 -0.01,0.81 0.04,0.25 0.17,0.49 0.26,0.73 0.10,0.25 0.30,0.47 0.32,0.74 0.03,0.36 -0.18,0.70 -0.25,1.06 -0.06,0.34 -0.17,0.68 -0.14,1.02 0.01,0.18 0.09,0.37 0.18,0.54 0.13,0.27 0.31,0.52 0.50,0.75 0.25,0.30 0.64,0.50 0.85,0.84 0.18,0.31 0.26,0.68 0.30,1.04 0.02,0.27 0.00,0.56 -0.07,0.83 -0.08,0.30 -0.35,0.54 -0.40,0.85 -0.02,0.13 -0.02,0.27 -0.01,0.40 -0.02,-0.04 -0.05,-0.09 -0.07,-0.13 -0.30,-0.56 -0.57,-1.14 -0.82,-1.73 l 0.52,1.72 c -0.07,-0.05 -0.14,-0.12 -0.23,-0.19 -0.28,-0.21 -0.62,-0.45 -0.95,-0.54 -0.18,-0.05 -0.34,-0.02 -0.48,-0.00 -0.13,0.02 -0.25,0.04 -0.34,0.03 C 4.46,22.41 4.14,22.30 3.84,22.16 3.35,21.95 2.88,21.70 2.48,21.38 l 2.62,0.71 -3.51,-1.71 c -0.00,-0.00 0.00,-0.01 0,-0.01 L 4.18,21.39 1.72,19.52 c 0.00,-0.01 0.00,-0.03 0.00,-0.04 L 4.28,20.94 1.85,18.52 c 0.00,-0.00 0.00,-0.01 0.00,-0.02 l 3.28,2.78 -3.09,-3.54 c 0.00,-0.00 0.00,-0.01 0.00,-0.01 l 3.25,3.16 -2.88,-3.80 c 0.00,-0.01 0.02,-0.02 0.03,-0.03 L 4.88,19.48 2.86,16.75 c 0.00,-0.00 0.00,-0.00 0.00,-0.00 l 1.75,1.97 -1.26,-2.12 c 0.00,-0.00 0.01,0.00 0.02,0 l 1.38,1.31 -0.54,-1.35 c 0.10,0.00 0.19,0.02 0.26,0.06 -0.01,-0.00 0.05,0.06 0.09,0.13 0.03,0.06 0.06,0.12 0.06,0.12 a 0.21,0.21 0 0 0 0.25,0.11 L 5.43,18.71 C 5.25,17.74 5.18,16.74 5.16,15.75 c -0.01,-1.59 0.10,-3.19 0.44,-4.73 0.06,0.06 0.18,0.15 0.27,0.16 0.23,0.00 0.41,-0.22 0.61,-0.34 0.07,-0.04 0.14,-0.16 0.22,-0.18 z m 8.49,10.34 c 0.67,0.57 1.37,1.10 2.11,1.59 0.95,0.63 1.98,1.15 3.03,1.59 1.47,0.61 3.02,0.95 4.50,1.42 1.31,0.42 2.62,0.84 3.92,1.29 0.01,0.19 0.12,0.39 0.34,0.36 0.23,0.02 0.41,0.30 0.31,0.52 -0.04,0.28 0.16,0.52 0.28,0.76 0.14,0.17 0.30,0.39 0.55,0.38 0.22,-0.12 0.08,-0.46 -0.12,-0.51 -0.16,-0.07 -0.28,-0.42 -0.02,-0.43 0.35,0.00 0.61,0.31 0.75,0.61 0.16,0.29 0.29,0.61 0.51,0.86 0.16,0.13 0.32,0.34 0.54,0.32 0.25,-0.04 0.39,-0.27 0.58,-0.42 0.29,-0.26 0.32,-0.70 0.15,-1.04 0.34,0.13 0.68,0.26 1.02,0.40 0.22,0.09 0.45,0.18 0.67,0.27 -0.37,-0.09 -0.60,-0.14 -0.60,-0.14 0,0 0.16,0.44 0.07,1.03 -0.10,0.81 0.47,1.44 0.90,2.02 0.21,0.78 0.06,1.86 -0.76,2.22 -0.83,0.48 -1.33,1.57 -0.98,2.50 0.48,0.29 1.85,0.84 0.91,1.45 -0.63,0.32 -1.44,0.64 -1.55,1.44 -0.12,0.52 0.14,0.87 0.53,1.04 -1.27,-0.15 -2.54,-0.28 -3.80,-0.45 0.19,-0.02 0.33,-0.10 0.29,-0.29 -0.20,-0.10 -0.51,-0.33 -0.10,-0.37 0.43,-0.41 0.69,-1.06 0.46,-1.64 -0.17,-0.65 0.34,-1.14 0.69,-1.61 0.35,-0.43 0.07,-0.93 0.10,-1.40 0.03,-0.50 0.16,-1.15 -0.28,-1.52 -0.61,-0.49 -1.17,-1.06 -1.82,-1.52 -0.37,-0.28 -0.64,-0.69 -0.76,-1.15 -0.29,-0.63 -1.06,-0.90 -1.72,-0.76 -0.71,0.06 -1.45,0.34 -1.83,0.99 -0.41,0.47 -0.45,1.14 -0.21,1.71 0.23,0.60 0.68,1.14 1.30,1.38 0.65,0.14 0.85,0.84 0.44,1.35 -0.09,0.61 -1.03,0.68 -0.95,1.35 0.19,0.54 -0.08,1.36 -0.75,1.37 -0.53,-0.21 -1.12,0.06 -1.43,0.50 -0.82,-0.32 -1.64,-0.69 -2.44,-1.09 -1.01,-0.51 -1.99,-1.08 -2.93,-1.71 0.14,-0.01 0.28,-0.03 0.42,-0.03 0.61,-0.05 1.13,0.42 1.33,0.97 0.35,0.15 0.76,0.14 1.14,0.09 0.69,-0.18 1.31,-0.02 1.99,-0.32 0.40,-0.13 0.64,-0.52 0.74,-0.88 0.11,-0.50 0.68,-0.65 1.01,-0.97 0.36,-0.29 0.33,-0.92 -0.06,-1.17 -0.44,-0.20 -0.94,-0.13 -1.40,-0.00 -0.78,0.25 -1.46,0.74 -2.17,1.15 -0.09,0.09 -0.17,0.21 -0.27,0.30 -0.21,0.22 -0.57,0.34 -0.85,0.14 -0.61,-0.33 -1.35,-0.38 -2.03,-0.23 -0.23,0.04 -0.46,0.27 -0.49,0.51 C 16.24,35.06 15.98,34.86 15.72,34.65 14.56,33.70 13.55,32.56 12.59,31.37 11.52,30.03 10.48,28.64 9.52,27.21 c 0.11,0.05 0.24,0.09 0.36,0.16 0.49,0.27 0.92,0.67 1.44,0.89 0.24,0.10 0.51,0.17 0.78,0.21 0.36,0.04 0.72,0.04 1.09,0 0.32,-0.03 0.64,-0.13 0.95,-0.22 0.14,-0.04 0.30,-0.08 0.43,-0.16 0.08,-0.05 0.11,-0.16 0.21,-0.20 0.12,-0.04 0.28,-0.01 0.40,0 0.11,0.01 0.32,0.02 0.47,0.09 0.09,0.04 0.22,0.18 0.25,0.20 0.03,0.01 0.30,0.12 0.36,0.12 0.05,0 0.47,0.05 0.71,0.05 0.13,-0.00 0.37,-0.02 0.40,-0.04 0.03,-0.01 0.25,-0.10 0.38,-0.13 0.13,-0.03 0.32,-0.04 0.40,-0.07 0.08,-0.02 0.39,-0.15 0.49,-0.21 0.10,-0.05 0.38,-0.23 0.40,-0.26 0.01,-0.03 0.20,-0.25 0.22,-0.31 0.02,-0.05 0.12,-0.29 0.13,-0.40 0.00,-0.10 0.04,-0.57 0.01,-0.85 -0.02,-0.23 -0.10,-0.47 -0.16,-0.70 -0.05,-0.20 -0.07,-0.41 -0.18,-0.59 -0.23,-0.38 -0.65,-0.61 -0.97,-0.93 -0.18,-0.18 -0.34,-0.39 -0.54,-0.56 -0.22,-0.18 -0.49,-0.31 -0.73,-0.48 -0.17,-0.12 -0.35,-0.25 -0.49,-0.41 -0.14,-0.16 -0.19,-0.39 -0.33,-0.55 -0.13,-0.16 -0.32,-0.27 -0.47,-0.41 -0.12,-0.12 -0.26,-0.23 -0.35,-0.38 z m 14.32,3.13 c 0.00,-2.25e-4 0.01,1.75e-4 0.01,0 0.00,-8.9e-5 0.00,7.8e-5 0.00,0 l 1.20,2.78 -0.73,-2.75 c 0.02,0.00 0.04,0.00 0.07,0.00 l 1.39,2.97 -0.81,-2.87 c 0.02,0.00 0.04,0.01 0.06,0.02 0.00,0.00 0.00,0.00 0.00,0.00 l 1.32,2.68 -0.80,-2.42 c 0.03,0.01 0.06,0.03 0.09,0.04 l 1.52,2.60 -0.83,-2.08 c 0.09,0.08 0.19,0.17 0.28,0.27 0.35,0.39 0.53,0.96 0.84,1.51 0.23,0.42 0.68,1.30 0.82,1.57 l -5.78,-2.07 a 0.21,0.21 0 0 0 -0.01,-0.18 0.21,0.21 0 0 0 -0.00,-0.00 c -9.83e-4,-0.00 -0.00,-0.00 -0.00,-0.00 -0.00,-0.04 -0.02,-0.10 -0.03,-0.18 -0.02,-0.15 -0.06,-0.37 -0.08,-0.58 -0.02,-0.21 -0.04,-0.43 -0.03,-0.60 8.44e-4,-0.05 0.00,-0.10 0.00,-0.14 l 1.88,2.07 -1.13,-2.48 c 0.00,-0.00 0.01,-0.00 0.02,-0.00 l 1.42,2.28 -0.69,-2.42 z m 9.26,6.80 c 0.31,0.16 0.63,0.33 0.93,0.51 1.26,0.74 2.46,1.63 3.53,2.63 0.14,0.85 0.39,1.77 -0.03,2.58 -0.18,1.41 -1.16,1.03 -1.37,0.14 -0.18,-0.47 -0.31,-0.97 -0.56,-1.43 -0.67,-1.49 -1.27,-3.07 -2.36,-4.32 -0.04,-0.04 -0.09,-0.08 -0.14,-0.12 z m -24.60,4.08 c 0.18,-0.00 0.38,0.00 0.58,0.01 0.38,0.03 0.70,0.08 0.70,0.08 a 0.21,0.21 0 0 0 0.20,-0.09 l 3.37,2.19 c -0.15,0.07 -1.12,0.52 -1.52,0.70 -0.53,0.24 -1.02,0.55 -1.52,0.76 -0.68,0.28 -1.35,0.57 -2.04,0.69 -0.30,0.05 -0.60,0.09 -0.88,0.09 l 3.48,-1.38 -4.39,0.77 3.69,-1.06 -3.98,0.31 3.74,-1.00 -3.66,0.08 4.69,-0.71 -4.18,-0.05 c 0.00,-0.00 0.00,-0.00 0.00,-0.00 l 3.81,-0.29 -3.43,-0.16 c 0.01,-0.01 0.02,-0.02 0.03,-0.03 l 2.35,-0.16 -1.90,-0.28 c 0.00,-0.00 0.00,-0.00 0.00,-0.00 0.01,-0.01 0.02,-0.02 0.03,-0.03 l 1.89,-0.03 -1.57,-0.31 c 0.02,-0.02 0.05,-0.03 0.07,-0.04 0.07,-0.02 0.22,-0.03 0.40,-0.04 z m 30.72,0.95 c 0.10,0.14 0.20,0.28 0.30,0.43 0.47,0.70 0.98,1.37 1.13,2.10 0.05,0.26 -0.02,0.59 -0.10,0.95 -0.09,0.46 -0.15,0.90 -0.36,1.15 -0.36,0.43 -1.00,0.69 -1.63,0.84 -0.47,0.11 -0.97,0.14 -1.49,0.14 -0.01,-0.01 -0.03,-0.03 -0.05,-0.05 -0.04,-0.04 -0.08,-0.10 -0.13,-0.14 -0.06,-0.05 -0.13,-0.12 -0.21,-0.14 -0.01,-0.00 -0.03,-0.00 -0.04,-0.00 -0.04,0.00 -0.08,0.01 -0.11,0.01 l -0.01,0 c -0.02,0.00 -0.05,0.00 -0.07,0.00 l -0.03,0.00 c -0.00,0.00 -0.01,0.00 -0.01,0.00 -0.00,0 -0.02,0.00 -0.04,0.00 -0.01,0.00 -0.03,0.00 -0.04,0.00 -0.00,0.00 -0.01,0.00 -0.02,0.00 -0.00,0.00 -0.01,0.01 -0.02,0.02 -0.01,0.01 -0.04,0.02 -0.05,0.03 -0.01,0.00 -0.03,0.01 -0.05,0.02 -0.02,0.00 -0.04,0.01 -0.05,0.03 -0.01,0.03 -0.02,0.07 -0.02,0.10 -0.02,-0.00 -0.05,-0.00 -0.08,-0.00 0.26,-0.40 0.72,-0.46 1.09,-0.24 0.04,0.10 0.14,0.23 0.27,0.21 0.07,-0.00 0.10,-0.10 0.06,-0.16 -0.03,-0.07 -0.09,-0.14 -0.15,-0.20 -0.14,-0.12 -0.24,-0.17 -0.42,-0.21 -0.22,-0.03 -0.48,-0.03 -0.68,0.09 -0.12,0.07 -0.24,0.15 -0.36,0.24 -0.06,0.06 -0.10,0.15 -0.10,0.24 -0.25,-0.02 -0.52,-0.04 -0.78,-0.05 -2.26,-0.12 -4.52,-0.46 -6.79,-0.76 0.10,-0.01 0.21,-0.03 0.31,-0.07 0.69,-0.18 1.78,0.06 1.92,-0.92 0.05,-0.67 0.68,-1.44 1.27,-0.70 0.65,0.66 1.17,1.68 2.19,1.83 0.65,0.08 1.04,-0.72 1.52,-1.07 0.79,-0.46 1.19,1.01 1.84,1.21 0.86,0.35 1.73,-0.33 2.23,-0.98 0.91,-1.06 0.61,-2.64 -0.00,-3.78 -0.04,-0.07 -0.09,-0.14 -0.14,-0.21 z m -16.04,4.47 3.95,0.40 a 0.21,0.21 0 0 0 0.02,0.10 c 0,0 0.03,0.08 0.06,0.18 0.03,0.09 0.05,0.22 0.06,0.26 0.01,0.33 -0.11,0.70 -0.20,1.11 -0.10,0.47 -0.16,0.93 -0.34,1.32 -0.19,0.42 -0.52,0.80 -0.84,1.20 l 0.76,-3.11 -2.08,4.03 c -0.00,1.21e-4 -0.00,-9.3e-5 -0.01,0 l 1.49,-3.93 -2.38,3.77 c -0.00,-0.00 -0.00,-0.00 -0.01,-0.00 l 2.09,-4.25 -2.89,3.74 2.36,-3.87 -2.77,3.27 c -0.00,-0.01 -0.00,-0.02 -0.01,-0.03 l 2.26,-3.27 -2.55,2.62 c -0.00,-0.00 -0.00,-0.01 -0.00,-0.02 l 2.05,-2.64 -2.33,1.87 c -0.00,-0.01 -0.00,-0.02 -0.00,-0.03 l 1.91,-1.98 -2.09,1.17 c -0.00,-0.01 -0.00,-0.03 -0.00,-0.05 l 1.83,-1.60 -1.03,0.21 c 0.26,-0.14 0.60,-0.30 0.60,-0.30 a 0.21,0.21 0 0 0 0.12,-0.17 z" />
</svg>
