<?xml version="1.0" encoding="UTF-8" standalone="no"?>
<svg xmlns:dc="http://purl.org/dc/elements/1.1/" xmlns:cc="http://creativecommons.org/ns#" xmlns:rdf="http://www.w3.org/1999/02/22-rdf-syntax-ns#" xmlns:svg="http://www.w3.org/2000/svg" xmlns="http://www.w3.org/2000/svg" version="1.0" viewBox="0 0 48 48" id="svg2" width="100%" height="100%">
<defs id="defs442" />
<path style="fill:#000000" d="m 41.63,9.49 c -0.08,0.00 -0.16,0.05 -0.26,0.14 -0.10,0.09 -0.52,0.34 -0.94,0.55 -0.41,0.21 -0.85,0.50 -0.97,0.63 -0.12,0.13 -0.24,0.20 -0.28,0.17 -0.04,-0.04 -0.03,4.17e-4 -0.00,0.08 0.04,0.11 -0.04,0.25 -0.22,0.40 -0.15,0.13 -0.40,0.41 -0.55,0.62 -0.15,0.20 -0.35,0.44 -0.44,0.53 -0.26,0.25 -0.57,0.75 -0.88,1.39 -0.16,0.32 -0.38,0.67 -0.52,0.76 -0.12,0.10 -0.26,0.30 -0.29,0.45 -0.10,0.39 -0.94,1.19 -1.60,1.52 -0.91,0.45 -1.12,0.52 -1.97,0.55 -0.44,0.02 -1.01,0.05 -1.27,0.07 -0.25,0.02 -0.86,0.07 -1.37,0.11 -0.49,0.03 -1.06,0.11 -1.24,0.17 -0.56,0.17 -3.09,0.10 -4.69,-0.14 -0.41,-0.06 -0.89,-0.12 -1.06,-0.13 -0.16,-0.01 -0.31,-0.07 -0.33,-0.13 -0.02,-0.06 -0.13,-0.07 -0.32,-0.02 -0.16,0.04 -0.44,0.05 -0.62,0.01 -0.34,-0.07 -3.16,-0.06 -3.68,0.00 -0.34,0.05 -0.78,0.21 -1.19,0.43 -0.16,0.08 -0.33,0.15 -0.38,0.15 -0.19,0 -1.81,0.74 -1.81,0.83 0,0.05 -0.04,0.06 -0.10,0.03 -0.05,-0.03 -0.09,0.02 -0.09,0.11 0,0.10 -0.03,0.15 -0.06,0.11 -0.03,-0.03 -0.18,0.08 -0.32,0.25 -0.15,0.17 -0.42,0.47 -0.60,0.67 -0.17,0.19 -0.40,0.47 -0.49,0.63 -0.28,0.47 -0.65,0.57 -1.96,0.56 -1.06,0 -2.06,0.08 -2.25,0.20 -0.05,0.02 -0.08,0.07 -0.08,0.13 0,0.04 0.26,0.01 0.57,-0.06 0.40,-0.10 0.64,-0.12 0.78,-0.05 0.12,0.06 0.29,0.11 0.39,0.12 0.75,0.05 0.78,0.06 0.55,0.28 -0.16,0.16 -0.02,0.15 0.25,-0.02 0.12,-0.08 0.51,-0.20 0.88,-0.26 0.80,-0.14 1.32,-0.38 1.10,-0.51 -0.13,-0.08 -0.12,-0.10 0.10,-0.13 0.12,-0.01 0.26,-0.15 0.27,-0.27 0.01,-0.05 0.02,-0.14 0.03,-0.20 0,-0.05 0.06,-0.07 0.12,-0.03 0.08,0.04 0.07,0.09 -0.02,0.15 -0.12,0.07 -0.12,0.09 0,0.09 0.10,0 0.07,0.08 -0.09,0.27 -0.13,0.16 -0.17,0.22 -0.09,0.15 0.22,-0.19 0.32,-0.14 0.25,0.10 -0.06,0.22 -0.06,0.22 0.09,0.03 0.19,-0.24 0.21,-0.40 0.03,-0.31 -0.15,0.08 0.20,-0.22 0.42,-0.36 0.12,-0.07 0.13,-0.10 0.02,-0.17 -0.10,-0.07 -0.05,-0.15 0.21,-0.31 0.42,-0.25 0.67,-0.29 0.47,-0.06 -0.07,0.08 -0.08,0.15 -0.03,0.15 0.08,0 0.43,-0.51 0.43,-0.65 0,-0.03 -0.04,-0.06 -0.10,-0.06 -0.05,0 -0.10,0.07 -0.10,0.16 0,0.09 -0.06,0.14 -0.12,0.11 -0.07,-0.02 -0.24,-0.00 -0.38,0.04 -0.19,0.07 -0.22,0.07 -0.13,-0.03 0.16,-0.16 0.96,-0.51 0.89,-0.39 -0.20,0.32 0.66,-0.17 1.06,-0.60 0.35,-0.38 0.39,-0.40 1.45,-0.49 0.04,-0.01 0.07,-0.07 0.07,-0.16 0,-0.12 0.03,-0.14 0.16,-0.07 0.18,0.10 0.67,0.04 0.59,-0.08 -0.03,-0.05 0.04,-0.06 0.15,-0.03 0.11,0.03 0.23,0.09 0.26,0.14 0.03,0.05 0.10,0.09 0.15,0.09 0.06,0 0.07,-0.05 0.04,-0.10 -0.03,-0.06 0.03,-0.10 0.14,-0.10 0.12,0 0.21,0.04 0.21,0.10 0,0.05 0.05,0.10 0.11,0.10 0.05,0 0.07,-0.04 0.04,-0.10 -0.03,-0.05 -0.00,-0.08 0.06,-0.06 0.07,0.03 0.37,0.06 0.68,0.09 0.47,0.04 0.51,0.03 0.35,-0.09 -0.18,-0.13 -0.18,-0.14 0.00,-0.07 0.11,0.03 0.26,0.10 0.33,0.16 0.06,0.05 0.12,0.05 0.12,0 0,-0.04 0.19,-0.07 0.41,-0.05 0.33,0.04 0.40,0.02 0.33,-0.09 -0.06,-0.11 -0.05,-0.12 0.06,-0.02 0.08,0.07 0.35,0.17 0.61,0.22 0.25,0.06 0.54,0.14 0.65,0.18 0.17,0.06 0.17,0.04 0.05,-0.10 -0.07,-0.09 -0.18,-0.14 -0.24,-0.10 -0.06,0.03 -0.07,0.01 -0.03,-0.06 0.06,-0.09 0.13,-0.09 0.30,0.02 0.22,0.15 0.41,0.18 1.22,0.21 0.25,0 0.45,0.04 0.45,0.09 0,0.04 0.15,0.05 0.34,0.02 0.19,-0.04 0.37,-0.02 0.40,0.03 0.03,0.05 0.22,0.02 0.43,-0.05 0.50,-0.17 0.77,-0.17 0.38,0.00 -0.29,0.13 -0.28,0.14 0.32,0.10 0.34,-0.02 0.72,-0.09 0.84,-0.15 0.12,-0.06 0.28,-0.09 0.35,-0.06 0.08,0.03 0.29,-6.39e-4 0.47,-0.05 0.18,-0.05 0.76,-0.12 1.29,-0.15 0.52,-0.02 1.00,-0.08 1.06,-0.12 0.12,-0.08 0.30,-0.09 1.58,-0.15 0.47,-0.03 0.99,-0.09 1.14,-0.16 0.15,-0.06 0.39,-0.14 0.52,-0.17 0.14,-0.03 0.25,-0.10 0.25,-0.14 0,-0.04 0.10,-0.11 0.23,-0.15 l 0.27,-0.09 c 0.68,-0.30 0.54,-0.32 1.87,0.38 0.38,0.21 0.91,0.59 1.13,0.85 0.19,0.20 0.22,0.32 0.17,0.64 -0.04,0.22 -0.01,0.45 0.04,0.51 0.14,0.18 0.02,0.79 -0.13,0.73 -0.08,-0.04 -0.14,0.08 -0.18,0.38 -0.02,0.24 -0.07,0.52 -0.13,0.62 -0.05,0.13 -0.04,0.17 0.03,0.12 0.08,-0.04 0.07,0.04 -0.01,0.25 -0.14,0.32 -0.53,0.66 -0.40,0.34 0.03,-0.08 0.11,-0.12 0.17,-0.08 0.07,0.04 0.08,-0.10 0.04,-0.44 -0.04,-0.32 -0.02,-0.54 0.04,-0.62 0.07,-0.07 0.09,-0.15 0.05,-0.19 -0.12,-0.11 -0.29,0.13 -0.32,0.46 -0.01,0.17 -0.08,0.38 -0.15,0.46 -0.09,0.11 -0.09,0.22 -0.00,0.46 0.11,0.32 0.07,0.54 -0.09,0.44 -0.05,-0.04 -0.09,-0.02 -0.09,0.03 0,0.05 0.05,0.13 0.10,0.16 0.06,0.03 0.09,0.13 0.09,0.21 0,0.08 -0.03,0.13 -0.09,0.10 -0.08,-0.06 -0.21,0.39 -0.22,0.77 0,0.10 -0.03,0.18 -0.07,0.18 -0.05,0 -0.08,-0.19 -0.07,-0.42 0.01,-0.27 -0.04,-0.43 -0.13,-0.46 -0.08,-0.03 -0.11,-0.00 -0.06,0.06 0.04,0.06 -0.05,0.23 -0.19,0.37 -0.18,0.18 -0.23,0.29 -0.16,0.34 0.12,0.07 0.10,0.64 -0.03,0.93 -0.07,0.16 -0.10,0.16 -0.23,0.02 -0.13,-0.12 -0.13,-0.23 -0.05,-0.58 0.19,-0.77 0.21,-0.89 0.10,-0.86 -0.13,0.05 -0.49,0.99 -0.38,0.99 0.05,0 0.08,0.11 0.07,0.27 -0.01,0.20 0.01,0.27 0.13,0.25 0.10,-0.01 0.09,0.03 -0.04,0.13 -0.14,0.11 -0.19,0.25 -0.16,0.46 0.01,0.19 -0.01,0.29 -0.07,0.25 -0.11,-0.07 -0.22,0.16 -0.22,0.46 0,0.14 0.05,0.18 0.15,0.14 0.19,-0.07 0.19,-0.01 -0.00,0.34 -0.09,0.15 -0.30,0.35 -0.46,0.44 -0.16,0.10 -0.25,0.22 -0.22,0.28 0.04,0.06 0.02,0.07 -0.03,0.03 -0.06,-0.03 -0.10,-0.14 -0.10,-0.24 0.01,-0.09 -0.02,-0.28 -0.05,-0.42 -0.04,-0.14 -0.03,-0.19 -0.00,-0.12 0.09,0.19 0.42,0.34 0.49,0.22 0.04,-0.06 0.00,-0.09 -0.07,-0.08 -0.07,0.02 -0.13,-0.02 -0.12,-0.09 0.04,-0.47 0.04,-0.48 0.14,-0.32 0.12,0.18 0.12,0.02 0,-0.25 -0.05,-0.11 -0.09,-0.13 -0.09,-0.07 -0.01,0.07 -0.08,0.13 -0.16,0.13 -0.08,0 -0.15,0.06 -0.15,0.14 0,0.09 -0.07,0.12 -0.20,0.09 -0.14,-0.04 -0.22,0.01 -0.29,0.18 -0.05,0.13 -0.10,0.18 -0.10,0.11 -0.01,-0.06 -0.05,-0.12 -0.11,-0.12 -0.05,0 -0.06,0.06 -0.03,0.14 0.03,0.08 -0.06,0.25 -0.20,0.39 -0.14,0.15 -0.26,0.21 -0.26,0.15 0,-0.06 -0.03,-0.08 -0.06,-0.05 -0.04,0.04 -0.00,0.20 0.06,0.37 l 0.12,0.30 0.29,-0.33 c 0.16,-0.17 0.29,-0.37 0.29,-0.42 0,-0.06 0.04,-0.02 0.09,0.05 0.08,0.11 0.09,0.08 0.04,-0.11 -0.03,-0.15 -0.02,-0.29 0.03,-0.32 0.05,-0.04 0.09,-0.01 0.10,0.06 0.09,0.63 0.07,0.79 -0.06,1.00 -0.09,0.13 -0.15,0.31 -0.14,0.40 0.02,0.10 -0.01,0.18 -0.06,0.18 -0.06,0 -0.11,0.07 -0.11,0.16 0,0.08 0.04,0.12 0.10,0.09 0.06,-0.03 0.06,0.00 0.03,0.09 -0.03,0.09 -0.14,0.16 -0.23,0.16 -0.13,0 -0.13,-0.01 -0.02,-0.09 0.09,-0.06 0.10,-0.11 0.02,-0.15 -0.13,-0.08 -0.26,0.18 -0.16,0.33 0.03,0.06 0.00,0.20 -0.05,0.31 -0.09,0.16 -0.08,0.20 0.05,0.20 0.09,0 0.15,-0.09 0.15,-0.25 0,-0.17 0.04,-0.23 0.15,-0.19 0.13,0.05 0.13,0.08 0,0.27 -0.18,0.25 -0.20,0.41 -0.04,0.31 0.07,-0.04 0.10,-0.00 0.07,0.07 -0.03,0.08 -0.12,0.15 -0.21,0.17 -0.12,0.03 -0.15,-0.01 -0.09,-0.14 0.04,-0.12 0.03,-0.15 -0.06,-0.10 -0.07,0.05 -0.10,0.14 -0.07,0.21 0.02,0.07 -0.00,0.18 -0.06,0.24 -0.06,0.06 -0.08,0.14 -0.04,0.18 0.04,0.03 0.14,-0.02 0.22,-0.13 0.15,-0.19 0.15,-0.19 0.08,0 -0.05,0.14 -0.03,0.17 0.06,0.11 0.10,-0.06 0.11,-0.02 0.02,0.13 -0.06,0.12 -0.17,0.24 -0.24,0.28 -0.08,0.05 -0.07,0.02 0.02,-0.09 0.08,-0.10 0.11,-0.20 0.08,-0.23 -0.03,-0.03 -0.10,0.03 -0.16,0.14 -0.14,0.27 -0.08,0.95 0.12,1.24 0.17,0.25 0.14,0.40 -0.09,0.40 -0.12,0 -0.19,0.19 -0.15,0.43 0.01,0.05 -0.08,0.11 -0.19,0.14 -0.11,0.03 -0.20,0.10 -0.20,0.19 0,0.08 0.06,0.11 0.16,0.07 0.11,-0.04 0.15,0.00 0.14,0.13 -0.04,0.33 -0.00,0.45 0.09,0.39 0.11,-0.07 0.14,0.07 0.03,0.19 -0.10,0.09 -0.11,2.41 -0.02,3.02 0.04,0.27 0.17,0.62 0.28,0.78 0.25,0.35 0.26,0.41 0.06,0.41 -0.25,0 -0.12,0.30 0.15,0.36 0.25,0.05 0.40,0.20 0.40,0.39 0,0.13 0.06,0.25 0.13,0.28 0.06,0.02 0.09,0.07 0.05,0.11 -0.03,0.04 -0.19,0.01 -0.35,-0.06 -0.15,-0.08 -0.51,-0.14 -0.81,-0.13 -0.51,0.02 -0.52,0.02 -0.49,-0.26 0.02,-0.16 0.09,-0.38 0.15,-0.49 0.14,-0.26 0.05,-0.54 -0.14,-0.47 -0.10,0.04 -0.16,-0.02 -0.18,-0.16 -0.02,-0.15 -0.08,-0.21 -0.21,-0.19 -0.14,0.02 -0.16,-0.01 -0.12,-0.20 0.03,-0.13 0.06,-0.43 0.09,-0.69 0.02,-0.25 0.07,-0.61 0.10,-0.82 0.07,-0.38 -0.21,-2.76 -0.34,-3.02 -0.05,-0.09 -0.09,-0.32 -0.09,-0.51 -0.01,-0.57 -0.14,-1.22 -0.24,-1.15 -0.05,0.03 -0.07,0.12 -0.05,0.18 0.03,0.07 -0.03,0.18 -0.13,0.24 -0.14,0.09 -0.19,0.07 -0.24,-0.04 -0.11,-0.28 -0.06,-0.38 0.08,-0.19 0.12,0.17 0.13,0.14 0.25,-0.34 0.14,-0.66 0.14,-0.67 -0.01,-0.53 -0.10,0.08 -0.13,0.06 -0.13,-0.08 0,-0.10 0.03,-0.17 0.07,-0.14 0.04,0.02 0.04,-0.05 0.01,-0.16 -0.03,-0.11 -0.09,-0.17 -0.16,-0.13 -0.06,0.03 -0.07,0.01 -0.03,-0.04 0.16,-0.26 0.15,-0.52 -0.02,-0.52 -0.11,0 -0.13,-0.03 -0.05,-0.11 0.17,-0.17 0.04,-0.48 -0.18,-0.44 -0.10,0.02 -0.19,0.01 -0.19,-0.03 0,-0.13 -0.70,-0.54 -0.80,-0.48 -0.19,0.12 -0.32,-0.29 -0.16,-0.50 0.08,-0.11 0.15,-0.15 0.15,-0.09 0,0.05 0.03,0.04 0.09,-0.03 0.06,-0.10 0.10,-0.07 0.15,0.12 0.03,0.14 0.11,0.26 0.16,0.26 0.06,0 0.02,-0.14 -0.05,-0.31 -0.09,-0.17 -0.14,-0.37 -0.11,-0.45 0.05,-0.13 0.09,-0.12 0.31,0.02 0.14,0.09 0.31,0.26 0.37,0.38 0.10,0.19 0.10,0.20 -0.05,0.06 -0.19,-0.15 -0.23,-0.01 -0.04,0.17 0.09,0.09 0.14,0.07 0.24,-0.06 0.10,-0.14 0.10,-0.20 -0.03,-0.34 -0.14,-0.15 -0.13,-0.16 0.09,-0.11 0.20,0.06 0.21,0.04 0.10,-0.09 -0.10,-0.13 -0.10,-0.17 0,-0.21 0.11,-0.04 0.10,-0.06 0,-0.06 -0.07,-0.01 -0.11,-0.05 -0.08,-0.10 0.03,-0.05 -0.01,-0.14 -0.10,-0.21 -0.21,-0.19 -0.40,0.01 -0.25,0.28 0.06,0.10 0.07,0.22 0.04,0.26 -0.10,0.10 -0.33,-0.15 -0.33,-0.38 0,-0.11 -0.04,-0.28 -0.09,-0.36 -0.08,-0.12 -0.10,-0.10 -0.11,0.09 -0.01,0.14 -0.01,0.27 -0.01,0.31 0,0.03 -0.15,0.25 -0.34,0.49 -0.19,0.24 -0.34,0.49 -0.34,0.56 0,0.06 -0.06,0.12 -0.13,0.12 -0.08,0 -0.13,-0.10 -0.11,-0.21 0.01,-0.12 0.07,-0.20 0.15,-0.18 0.11,0.03 0.10,0.00 0.01,-0.08 -0.09,-0.10 -0.17,-0.08 -0.34,0.04 -0.13,0.09 -0.28,0.16 -0.33,0.16 -0.11,0 0.65,-0.52 0.80,-0.54 0.17,-0.03 0.35,-0.17 0.35,-0.27 0,-0.06 -0.05,-0.07 -0.11,-0.03 -0.06,0.03 -0.04,-0.05 0.05,-0.19 0.16,-0.23 0.16,-0.25 0,-0.31 -0.12,-0.05 -0.15,-0.01 -0.10,0.09 0.03,0.09 0.02,0.13 -0.03,0.09 -0.05,-0.03 -0.16,0.04 -0.24,0.16 -0.11,0.14 -0.16,0.17 -0.20,0.06 -0.03,-0.08 -0.09,-0.03 -0.17,0.14 -0.07,0.16 -0.17,0.28 -0.21,0.28 -0.05,0 -0.17,0.09 -0.28,0.21 -0.11,0.12 -0.24,0.18 -0.30,0.15 -0.07,-0.04 -0.07,-0.00 -0.04,0.08 0.03,0.09 0.01,0.16 -0.03,0.16 -0.13,0 -0.14,-0.42 -0.00,-0.58 0.06,-0.08 0.08,-0.16 0.05,-0.20 -0.07,-0.07 -0.68,0.55 -0.68,0.69 0,0.13 0.18,0.11 0.26,-0.03 0.05,-0.07 0.03,-0.08 -0.06,-0.03 -0.09,0.06 -0.11,0.04 -0.05,-0.03 0.05,-0.09 0.11,-0.09 0.17,-0.03 0.07,0.07 0.06,0.21 -0.03,0.41 -0.15,0.33 -0.43,0.45 -0.32,0.13 0.04,-0.09 -0.07,-0.01 -0.24,0.15 -0.17,0.18 -0.39,0.33 -0.50,0.33 -0.15,-0.01 -0.11,-0.04 0.12,-0.25 0.36,-0.30 0.19,-0.34 -0.19,-0.04 -0.14,0.11 -0.26,0.29 -0.26,0.40 0,0.10 -0.04,0.19 -0.10,0.19 -0.05,0 -0.10,-0.05 -0.10,-0.11 0,-0.08 -0.04,-0.08 -0.14,0 -0.16,0.13 -1.07,0.22 -1.07,0.10 0,-0.04 -0.15,-0.06 -0.36,-0.05 -0.29,0.01 -0.34,-0.02 -0.31,-0.16 0.05,-0.19 -0.25,-0.34 -0.43,-0.23 -0.06,0.04 -0.16,0.02 -0.23,-0.02 -0.07,-0.05 -0.29,-0.10 -0.50,-0.12 -0.21,-0.01 -0.50,-0.06 -0.65,-0.11 -0.32,-0.09 -0.80,0.21 -0.67,0.41 0.04,0.07 0.03,0.09 -0.03,0.05 -0.06,-0.03 -0.22,-0.02 -0.36,0.03 -0.30,0.11 -0.34,0.04 -0.08,-0.17 0.15,-0.13 0.15,-0.14 -0.10,-0.09 -0.14,0.03 -0.34,0.08 -0.45,0.13 -0.11,0.04 -0.07,-0.01 0.09,-0.16 l 0.27,-0.21 -0.36,-0.35 c -0.20,-0.19 -0.37,-0.35 -0.39,-0.35 -0.08,0 0.26,0.53 0.41,0.65 0.17,0.12 0.17,0.13 -0.03,0.19 -0.11,0.03 -0.19,0.02 -0.16,-0.03 0.08,-0.13 -0.21,-0.30 -0.54,-0.33 -0.25,-0.02 -0.31,-0.06 -0.27,-0.20 0.03,-0.13 0.00,-0.15 -0.07,-0.09 -0.15,0.12 -0.58,0.22 -0.53,0.13 0.03,-0.04 -0.04,-0.12 -0.14,-0.19 -0.12,-0.07 -0.21,-0.07 -0.25,-0.01 -0.03,0.06 0.02,0.10 0.12,0.11 0.12,0 0.13,0.01 0.05,0.06 -0.08,0.03 -0.22,-0.04 -0.32,-0.15 -0.17,-0.18 -0.25,-0.19 -0.55,-0.11 -0.19,0.06 -0.39,0.08 -0.44,0.05 -0.04,-0.03 -0.25,0.10 -0.46,0.29 -0.21,0.19 -0.43,0.35 -0.49,0.36 -0.13,0 -0.92,1.05 -1.28,1.70 -0.14,0.25 -0.34,0.60 -0.46,0.77 -0.11,0.17 -0.37,0.64 -0.57,1.04 -0.34,0.68 -0.93,1.55 -1.10,1.62 -0.05,0.02 -0.08,0.09 -0.08,0.15 0,0.06 -0.08,0.19 -0.18,0.30 -0.15,0.19 -0.15,0.20 0,0.14 0.20,-0.07 0.19,-8.74e-4 -0.17,1.22 -0.32,1.06 -0.76,2.25 -0.89,2.43 -0.06,0.07 -0.07,0.16 -0.03,0.19 0.04,0.04 0.11,0.00 0.16,-0.07 0.08,-0.12 0.09,-0.11 0.10,0.05 0.01,0.11 0.01,0.26 0,0.32 -0.01,0.07 0.03,0.13 0.09,0.13 0.05,0 0.09,-0.04 0.09,-0.09 0,-0.22 0.20,-0.08 0.26,0.17 0.04,0.16 0.13,0.38 0.21,0.50 0.13,0.19 0.12,0.22 -0.03,0.31 -0.25,0.14 -0.09,0.26 0.16,0.12 0.14,-0.07 0.21,-0.07 0.21,0 0,0.05 -0.06,0.10 -0.14,0.10 -0.20,0 -0.27,0.27 -0.11,0.40 0.08,0.07 0.12,0.16 0.09,0.21 -0.08,0.13 -0.48,0.11 -0.63,-0.03 -0.11,-0.09 -0.13,-0.09 -0.07,0 0.04,0.07 0.02,0.13 -0.03,0.13 -0.06,0 -0.11,-0.07 -0.11,-0.16 0,-0.13 -0.02,-0.14 -0.15,-0.03 -0.12,0.10 -0.16,0.08 -0.21,-0.04 -0.03,-0.09 -0.14,-0.16 -0.24,-0.16 -0.13,0 -0.17,-0.05 -0.13,-0.20 0.03,-0.11 0.09,-0.20 0.14,-0.20 0.10,0 0.12,-0.44 0.03,-0.79 -0.04,-0.12 -0.14,-0.22 -0.23,-0.22 -0.19,0 -0.44,-0.36 -0.35,-0.51 0.03,-0.06 0.08,-0.25 0.11,-0.42 0.03,-0.18 0.08,-0.37 0.13,-0.42 0.04,-0.06 0.13,-0.37 0.20,-0.71 0.07,-0.33 0.22,-0.89 0.35,-1.24 0.16,-0.46 0.22,-0.81 0.20,-1.31 -0.01,-0.38 0.02,-0.78 0.08,-0.89 0.07,-0.13 0.07,-0.20 -0.02,-0.23 -0.18,-0.06 -0.13,-0.17 0.24,-0.62 0.19,-0.23 0.35,-0.48 0.35,-0.56 0,-0.08 0.06,-0.14 0.13,-0.14 0.07,0 0.20,-0.13 0.30,-0.29 0.23,-0.39 0.21,-0.52 -0.03,-0.21 l -0.20,0.25 0.15,-0.45 c 0.09,-0.25 0.13,-0.54 0.10,-0.64 -0.02,-0.09 0.00,-0.15 0.04,-0.12 0.04,0.03 0.13,-0.09 0.19,-0.27 0.14,-0.38 0.14,-0.41 0,-0.32 -0.14,0.08 -0.08,-0.38 0.06,-0.49 0.06,-0.04 0.04,-0.09 -0.04,-0.16 -0.10,-0.07 -0.11,-0.13 -0.00,-0.31 0.09,-0.18 0.09,-0.24 0,-0.30 -0.09,-0.05 -0.09,-0.09 -0.00,-0.14 0.06,-0.04 0.10,-0.20 0.09,-0.34 -0.01,-0.15 0.00,-0.33 0.06,-0.40 0.04,-0.07 0.02,-0.12 -0.03,-0.12 -0.06,0 -0.11,0.04 -0.11,0.12 0,0.09 -0.02,0.09 -0.12,0 -0.10,-0.10 -0.10,-0.15 -0.01,-0.20 0.06,-0.04 0.14,-0.19 0.18,-0.34 0.06,-0.24 0.03,-0.29 -0.20,-0.38 -0.19,-0.07 -0.24,-0.14 -0.18,-0.23 0.05,-0.06 0.08,-0.18 0.07,-0.25 -0.01,-0.06 -0.02,-0.17 -0.03,-0.22 -0.02,-0.21 -0.31,-0.08 -0.31,0.12 -0.01,0.36 -0.16,0.00 -0.24,-0.55 -0.04,-0.26 -0.11,-0.50 -0.17,-0.53 -0.05,-0.04 -0.09,-0.16 -0.09,-0.28 0,-0.22 -0.43,-0.82 -0.52,-0.72 -0.02,0.03 -0.03,-0.09 0,-0.25 0.03,-0.19 0.00,-0.30 -0.06,-0.30 -0.07,0 -0.09,0.04 -0.06,0.10 0.03,0.05 0.02,0.09 -0.03,0.09 -0.17,0 -0.19,-0.24 -0.03,-0.43 0.08,-0.09 0.10,-0.17 0.03,-0.17 -0.06,0 -0.20,0.14 -0.31,0.33 -0.24,0.40 -0.62,0.76 -0.62,0.60 0,-0.07 0.04,-0.12 0.10,-0.12 0.05,0 0.15,-0.10 0.21,-0.23 0.10,-0.19 0.07,-0.19 -0.18,0.05 -0.16,0.16 -0.36,0.28 -0.45,0.28 -0.09,0 -0.18,0.07 -0.22,0.15 -0.09,0.24 -0.28,0.18 -0.21,-0.06 0.05,-0.15 0.03,-0.19 -0.04,-0.15 -0.06,0.04 -0.11,0.14 -0.11,0.22 0,0.08 -0.03,0.14 -0.09,0.14 -0.05,0 -0.10,-0.10 -0.10,-0.23 -0.01,-0.22 -0.01,-0.22 -0.16,0.03 l -0.14,0.25 0.02,-0.30 c 0.01,-0.17 0.06,-0.36 0.12,-0.43 0.05,-0.07 0.06,-0.16 0.02,-0.20 -0.04,-0.04 -0.14,0.01 -0.21,0.11 -0.09,0.12 -0.14,0.14 -0.17,0.06 -0.02,-0.07 -0.17,0.01 -0.37,0.22 L 8.98,23.11 9.21,22.73 c 0.19,-0.32 0.19,-0.37 0.05,-0.37 -0.09,0 -0.14,-0.03 -0.09,-0.09 0.03,-0.05 0.00,-0.12 -0.04,-0.16 -0.06,-0.03 -0.29,0.12 -0.53,0.34 -0.23,0.22 -0.45,0.38 -0.48,0.34 -0.03,-0.03 0.01,-0.08 0.08,-0.10 0.15,-0.06 0.16,-0.23 0,-0.23 -0.06,0 -0.24,0.15 -0.39,0.32 -0.24,0.28 -0.27,0.30 -0.22,0.10 0.07,-0.30 -0.00,-0.28 -0.43,0.14 -0.25,0.24 -0.39,0.31 -0.44,0.24 -0.06,-0.09 -0.09,-0.09 -0.12,0.00 -0.03,0.08 -0.08,0.11 -0.11,0.08 -0.04,-0.03 0.09,-0.23 0.30,-0.45 0.20,-0.21 0.36,-0.42 0.35,-0.46 C 7.07,22.32 7.78,21.89 8.13,21.80 8.28,21.77 8.38,21.69 8.35,21.64 8.25,21.47 8.08,21.53 7.59,21.84 7.34,22.01 6.98,22.25 6.80,22.36 c -0.36,0.24 -0.86,1.10 -0.77,1.34 0.08,0.20 0.33,0.20 0.62,0.01 0.28,-0.21 1.14,-0.46 1.27,-0.38 0.06,0.03 0.16,-0.02 0.23,-0.11 0.07,-0.10 0.15,-0.13 0.18,-0.06 0.04,0.06 0.13,0.07 0.20,0.04 0.07,-0.03 0.31,-0.05 0.53,-0.06 0.33,-0.02 0.40,0.01 0.35,0.13 -0.03,0.08 -0.01,0.12 0.03,0.06 0.05,-0.04 0.16,-0.00 0.24,0.07 0.20,0.18 0.70,0.28 0.77,0.15 0.04,-0.05 0.14,-0.09 0.23,-0.09 0.20,0 0.95,-0.38 1.04,-0.53 0.09,-0.14 0.31,0.01 0.25,0.18 -0.03,0.08 -0.01,0.15 0.02,0.17 0.04,0.02 0.17,0.37 0.30,0.79 0.32,1.06 0.43,1.32 0.52,1.27 0.09,-0.05 0.20,0.18 0.20,0.42 0,0.09 0.13,0.38 0.30,0.65 0.29,0.47 0.29,0.51 0.25,1.61 -0.02,0.60 -0.07,1.15 -0.10,1.21 -0.03,0.05 -0.06,0.31 -0.06,0.57 -0.01,0.46 -0.29,1.12 -0.62,1.47 -0.46,0.46 -0.57,1.02 -0.42,2.16 0.05,0.37 0.01,0.64 -0.14,1.08 -0.14,0.41 -0.16,0.59 -0.08,0.59 0.09,0 0.09,0.02 0,0.08 -0.06,0.04 -0.17,0.29 -0.23,0.55 -0.07,0.26 -0.16,0.47 -0.21,0.47 -0.04,0 -0.05,0.12 -0.04,0.26 0.02,0.14 -0.03,0.45 -0.11,0.68 -0.20,0.56 -0.24,1.08 -0.09,1.08 0.06,0 0.20,0.14 0.30,0.30 0.15,0.26 0.16,0.33 0.04,0.47 -0.07,0.09 -0.12,0.18 -0.10,0.20 0.05,0.07 0.01,0.23 -0.05,0.22 -0.05,-0.01 -0.48,-0.00 -0.99,0.00 -0.80,0.03 -0.85,0.04 -0.40,0.10 0.49,0.06 0.48,0.05 -0.28,0.09 -0.43,0.03 -0.83,0.01 -0.89,-0.03 -0.06,-0.06 -0.13,-0.06 -0.21,0.01 -0.07,0.07 -0.24,0.12 -0.38,0.12 -0.14,0 -0.34,0.05 -0.44,0.13 -0.18,0.13 -0.18,0.14 -0.01,0.21 0.12,0.04 0.22,0.01 0.28,-0.09 0.05,-0.09 0.21,-0.15 0.40,-0.15 0.18,0 0.83,-0.02 1.44,-0.03 1.26,-0.04 1.43,-0.01 1.26,0.19 -0.06,0.08 -0.15,0.12 -0.18,0.09 -0.19,-0.11 -1.84,-0.02 -2.77,0.13 -0.43,0.08 -0.97,-0.07 -0.81,-0.22 0.04,-0.04 -0.08,-0.06 -0.26,-0.03 -0.28,0.05 -0.32,0.02 -0.27,-0.13 0.05,-0.16 -5.60e-4,-0.17 -0.47,-0.14 -0.29,0.02 -0.74,0.07 -0.99,0.11 -0.58,0.10 -2.13,0.10 -2.13,0.01 0,-0.13 0.68,-0.24 2.06,-0.33 0.49,-0.04 0.68,-0.01 0.68,0.08 0,0.09 0.02,0.08 0.09,-0.01 0.04,-0.08 0.11,-0.13 0.15,-0.13 0.38,0.05 1.38,-0.01 1.33,-0.08 -0.03,-0.06 -0.42,-0.09 -0.89,-0.07 -0.77,0.02 -2.00,-0.07 -1.54,-0.13 0.33,-0.04 1.14,-0.08 2.28,-0.10 0.67,-0.02 0.99,-0.05 0.86,-0.11 -0.11,-0.04 -0.41,-0.05 -0.68,-0.03 -0.27,0.02 -0.48,-6.4e-4 -0.48,-0.05 0,-0.11 1.21,-0.11 1.43,-0.00 0.17,0.10 0.48,-0.05 0.36,-0.17 -0.14,-0.13 -2.66,-0.07 -4.62,0.11 -0.51,0.05 -0.51,0.16 0.01,0.16 0.50,0 0.55,0.05 0.32,0.36 -0.14,0.19 -0.14,0.18 -0.09,-0.02 0.05,-0.19 0.02,-0.21 -0.20,-0.17 -0.26,0.05 -0.36,0.22 -0.13,0.24 0.22,0.01 -0.27,0.16 -0.77,0.23 -0.26,0.04 -0.45,0.11 -0.42,0.16 0.07,0.11 -0.31,0.23 -0.45,0.15 -0.12,-0.07 -0.50,0.03 -0.50,0.14 0,0.04 0.67,0.08 1.49,0.08 0.83,0 1.66,0.03 1.85,0.05 0.19,0.02 0.65,0.05 1.00,0.06 0.65,0.02 0.82,0.12 0.23,0.14 -0.22,0.01 -0.30,0.05 -0.29,0.18 0,0.09 0.07,0.17 0.14,0.17 0.06,0 0.09,-0.05 0.06,-0.11 -0.04,-0.06 -6.64e-4,-0.04 0.09,0.02 0.10,0.08 0.19,0.09 0.22,0.03 0.07,-0.11 2.14,-0.10 2.25,0.02 0.04,0.04 -0.06,0.07 -0.22,0.08 -0.27,0 -0.28,0.00 -0.06,0.09 0.27,0.11 0.55,0.01 0.48,-0.16 -0.04,-0.10 0.00,-0.11 0.20,-0.03 0.14,0.06 0.40,0.07 0.58,0.03 0.31,-0.06 0.59,-0.06 1.34,-0.03 0.25,0.01 0.33,0.04 0.29,0.15 -0.04,0.12 0.11,0.15 0.77,0.18 0.77,0.03 1.09,-0.02 0.78,-0.15 -0.07,-0.03 -0.02,-0.03 0.10,-0.03 0.12,0.01 0.22,0.07 0.22,0.14 0,0.15 0.16,0.17 0.25,0.03 0.03,-0.06 0.01,-0.10 -0.06,-0.10 -0.07,0 -0.10,-0.03 -0.06,-0.06 0.09,-0.09 0.48,0.06 0.42,0.17 -0.04,0.05 0.05,0.04 0.22,-0.03 0.37,-0.16 0.51,-0.28 0.27,-0.24 -0.10,0.02 -0.28,0.00 -0.39,-0.04 -0.13,-0.05 0.01,-0.07 0.42,-0.07 0.43,0 0.61,0.03 0.56,0.12 -0.04,0.07 -0.01,0.07 0.08,-0.00 0.08,-0.07 0.29,-0.10 0.47,-0.07 0.19,0.03 0.32,0.01 0.32,-0.04 0,-0.06 -0.18,-0.11 -0.39,-0.11 -0.22,0 -0.42,-0.03 -0.44,-0.08 -0.05,-0.07 0.41,-0.07 1.17,0.00 0.38,0.04 0.51,-0.07 0.20,-0.17 -0.10,-0.03 -0.05,-0.04 0.10,-0.02 0.19,0.02 0.27,-0.00 0.27,-0.12 0,-0.12 0.02,-0.12 0.18,-0.00 0.15,0.12 0.16,0.12 0.05,-0.02 -0.09,-0.11 -0.29,-0.15 -0.79,-0.14 -0.36,0 -0.72,-0.02 -0.79,-0.06 -0.07,-0.05 0.01,-0.08 0.23,-0.09 0.19,0 0.44,-0.01 0.55,-0.03 0.11,-0.02 0.47,-0.07 0.81,-0.11 0.33,-0.03 0.70,-0.08 0.81,-0.09 0.11,-0.01 0.37,-0.03 0.59,-0.04 0.21,0 0.36,-0.03 0.34,-0.09 -0.03,-0.04 0.39,-0.06 0.95,-0.06 0.54,0.01 0.98,-0.01 0.95,-0.06 -0.03,-0.04 -0.34,-0.06 -0.72,-0.04 -0.36,0.01 -0.76,-0.00 -0.88,-0.06 -0.17,-0.07 -0.18,-0.09 -0.05,-0.09 0.10,-0.01 0.22,-0.10 0.28,-0.22 0.10,-0.17 0.18,-0.20 0.53,-0.14 0.28,0.04 0.37,0.03 0.28,-0.03 -0.11,-0.08 -0.10,-0.11 0.05,-0.15 0.16,-0.04 0.16,-0.05 -0.03,-0.06 -0.13,0 -0.23,0.04 -0.23,0.10 0,0.10 -0.01,0.10 -0.07,0.01 -0.10,-0.16 -0.68,-0.02 -0.68,0.17 0,0.15 -0.16,0.17 -1.64,0.22 -0.40,0.02 -0.74,0.06 -0.74,0.09 0,0.11 0.47,0.16 0.63,0.08 0.08,-0.05 0.27,-0.05 0.43,0 0.16,0.04 0.39,0.07 0.52,0.05 0.12,-0.02 0.22,0.00 0.22,0.06 0,0.06 -0.15,0.10 -0.32,0.11 -0.18,0 -0.46,0.01 -0.63,0.03 -1.18,0.17 -2.18,0.11 -2.18,-0.11 0,-0.10 -0.12,-0.14 -0.37,-0.13 -0.21,0 -0.32,0.03 -0.25,0.06 0.19,0.07 0.14,0.19 -0.08,0.20 -0.11,0.01 -0.20,-0.02 -0.20,-0.09 0,-0.06 -0.11,-0.03 -0.25,0.06 -0.29,0.19 -0.62,0.21 -0.62,0.03 0,-0.25 -0.37,-1.17 -0.45,-1.12 -0.10,0.06 -0.27,-0.36 -0.21,-0.53 0.03,-0.06 -0.03,-0.20 -0.15,-0.31 -0.17,-0.17 -0.18,-0.27 -0.11,-0.81 0.05,-0.33 0.16,-0.81 0.25,-1.05 0.08,-0.23 0.21,-0.66 0.29,-0.94 0.19,-0.74 0.44,-1.35 0.85,-1.97 l 0.34,-0.55 0.31,0.36 c 0.55,0.65 1.01,1.68 1.31,2.97 0.02,0.05 0.05,0.14 0.09,0.20 0.03,0.05 0.04,0.30 0.03,0.54 -0.01,0.24 0.02,0.48 0.08,0.55 0.06,0.06 0.12,0.18 0.14,0.26 0.06,0.25 0.20,0.34 0.54,0.34 0.31,0.01 0.33,0.04 0.38,0.41 0.04,0.29 0.11,0.43 0.30,0.52 l 0.25,0.13 -0.26,0 c -0.15,0 -0.39,0.07 -0.55,0.15 -0.16,0.08 -0.40,0.12 -0.55,0.09 l -0.25,-0.04 0.25,0.10 c 0.32,0.14 1.29,0.02 1.36,-0.16 0.06,-0.17 0.67,-0.19 0.67,-0.03 0,0.07 -0.10,0.09 -0.24,0.07 -0.14,-0.03 -0.27,-0.00 -0.30,0.06 -0.04,0.11 0.06,0.12 0.72,0.06 0.07,0 0.10,-0.07 0.07,-0.16 -0.05,-0.11 0.00,-0.15 0.26,-0.15 0.17,0 0.41,-0.04 0.53,-0.12 0.27,-0.15 3.09,-0.22 3.45,-0.09 0.14,0.05 0.28,0.05 0.33,0.00 0.11,-0.11 1.02,-0.16 1.11,-0.06 0.04,0.04 0.18,-0.00 0.32,-0.09 0.13,-0.09 0.21,-0.10 0.18,-0.04 -0.11,0.16 6.14e-4,0.12 0.19,-0.06 0.14,-0.14 0.18,-0.14 0.27,-0.01 0.07,0.11 0.11,0.11 0.15,0.00 0.02,-0.06 0.14,-0.12 0.26,-0.12 0.22,-0.01 0.22,-0.01 0.03,-0.15 -0.24,-0.18 -0.23,-0.18 0.36,-0.00 0.35,0.11 0.48,0.12 0.51,0.03 0.03,-0.09 0.09,-0.09 0.26,0 0.11,0.07 0.34,0.13 0.50,0.13 0.16,0 0.31,0.03 0.33,0.09 0.02,0.05 0.22,0.11 0.45,0.14 0.24,0.02 0.40,0.00 0.37,-0.04 -0.03,-0.05 -0.17,-0.09 -0.31,-0.09 -0.16,0 -0.27,-0.07 -0.30,-0.20 -0.04,-0.14 -0.14,-0.20 -0.35,-0.20 -0.16,0 -0.27,-0.03 -0.24,-0.09 0.08,-0.12 -0.69,-0.25 -0.86,-0.15 -0.08,0.04 -0.09,0.03 -0.05,-0.03 0.04,-0.07 0.17,-0.12 0.29,-0.13 0.21,0 0.21,-0.00 -0.03,-0.09 -0.32,-0.13 -0.71,-0.03 -0.71,0.17 0,0.14 0.03,0.14 0.15,0.03 0.12,-0.10 0.15,-0.10 0.15,0.02 0,0.12 -0.13,0.15 -0.53,0.15 -0.29,0 -0.62,0.05 -0.74,0.11 -0.11,0.06 -0.51,0.11 -0.91,0.11 -0.38,0.01 -0.79,0.03 -0.90,0.05 -0.11,0.03 -0.26,0.05 -0.33,0.05 -0.07,0.01 -0.10,0.05 -0.06,0.11 0.04,0.06 -0.08,0.11 -0.27,0.12 -0.76,0.03 -1.23,-0.01 -1.30,-0.13 -0.05,-0.08 -0.21,-0.10 -0.44,-0.06 -0.25,0.04 -0.34,0.01 -0.30,-0.05 0.04,-0.06 0.00,-0.08 -0.05,-0.06 -0.07,0.03 -0.11,0.09 -0.09,0.14 0.04,0.11 -0.50,0.24 -0.72,0.16 -0.11,-0.03 -0.10,-0.06 0.05,-0.12 0.16,-0.06 0.16,-0.07 0.02,-0.07 -0.09,-0.01 -0.22,0.06 -0.27,0.16 -0.06,0.10 -0.11,0.13 -0.11,0.06 0,-0.06 -0.19,-0.35 -0.43,-0.65 -0.23,-0.29 -0.56,-0.74 -0.73,-0.98 -0.16,-0.24 -0.35,-0.45 -0.41,-0.48 -0.22,-0.08 -0.52,-0.88 -0.69,-1.85 -0.16,-0.88 -0.17,-0.95 -0.01,-1.06 0.14,-0.10 0.22,-0.06 0.53,0.21 0.42,0.39 0.77,0.40 0.82,0.03 0.02,-0.14 -0.05,-0.34 -0.18,-0.46 -0.25,-0.27 -0.26,-0.80 -0.03,-1.06 0.13,-0.15 0.17,-0.35 0.15,-0.93 -0.02,-0.64 6.13e-4,-0.76 0.19,-0.93 0.24,-0.21 0.99,-0.25 2.47,-0.11 0.88,0.08 2.47,0.17 3.20,0.18 0.57,0 1.97,-0.15 2.12,-0.25 0.06,-0.04 0.24,-0.09 0.39,-0.12 0.15,-0.02 0.50,-0.14 0.78,-0.25 0.28,-0.12 0.59,-0.25 0.71,-0.30 0.59,-0.25 0.87,-0.32 1.43,-0.34 0.33,-0.02 0.66,6.4e-4 0.75,0.05 0.09,0.06 0.14,0.41 0.16,1.24 0.02,0.63 0.09,1.40 0.14,1.70 0.18,0.92 -0.00,3.44 -0.31,4.34 -0.23,0.68 -0.25,1.18 -0.05,1.10 0.20,-0.08 0.27,0.03 0.16,0.22 -0.05,0.10 -0.05,0.23 0,0.31 0.05,0.08 0.03,0.22 -0.02,0.33 -0.08,0.16 -0.17,0.18 -0.49,0.13 -0.27,-0.04 -0.39,-0.02 -0.39,0.06 0,0.09 -0.02,0.09 -0.12,0 -0.07,-0.07 -0.26,-0.12 -0.43,-0.11 -0.25,0 -0.27,0.02 -0.10,0.08 0.11,0.05 0.26,0.06 0.34,0.03 0.10,-0.04 0.13,-0.01 0.08,0.11 -0.06,0.15 -7.43e-4,0.15 0.51,0.10 0.31,-0.03 0.69,-0.00 0.83,0.05 0.24,0.10 0.24,0.10 -0.07,0.10 -0.18,0.01 -0.33,0.05 -0.33,0.09 0,0.04 0.23,0.07 0.50,0.06 0.58,-0.03 0.64,0.01 0.18,0.15 l -0.33,0.09 0.40,-0.00 c 0.22,0 0.56,-0.00 0.76,0.00 0.34,0.02 0.34,0.02 0.10,0.12 -0.14,0.06 -0.45,0.08 -0.71,0.04 -1.51,-0.18 -3.99,-0.22 -4.37,-0.05 -0.20,0.09 -0.14,0.10 0.33,0.06 0.63,-0.05 0.72,0.03 0.30,0.25 -0.19,0.10 -0.62,0.14 -1.69,0.12 -0.79,0 -1.78,-0.00 -2.19,-0.01 -0.41,0 -0.87,0.00 -1.01,0.03 -0.14,0.03 -0.29,0.05 -0.33,0.05 -0.05,0.01 -0.05,0.06 -0.02,0.11 0.04,0.06 0.10,0.08 0.14,0.06 0.17,-0.11 1.34,-0.16 1.28,-0.06 -0.03,0.06 -0.01,0.09 0.04,0.09 0.05,0 0.12,-0.04 0.16,-0.09 0.04,-0.07 0.11,-0.07 0.18,-0.02 0.07,0.05 0.26,0.08 0.42,0.06 0.22,-0.02 0.25,-0.00 0.11,0.05 -0.11,0.04 -0.46,0.07 -0.79,0.06 -0.36,0 -0.57,0.03 -0.54,0.10 0.02,0.05 0.07,0.08 0.12,0.07 0.05,0 0.56,-0.03 1.15,-0.07 0.58,-0.04 1.09,-0.09 1.13,-0.11 0.04,-0.02 0.09,-0.00 0.12,0.03 0.03,0.05 0.28,0.09 0.56,0.09 0.28,0.01 0.49,-0.02 0.46,-0.05 -0.11,-0.10 0.33,-0.32 0.62,-0.32 0.15,0.01 0.74,-0.02 1.30,-0.05 0.55,-0.04 1.31,-0.08 1.67,-0.09 0.36,-0.02 0.86,-0.08 1.11,-0.14 0.61,-0.16 0.81,-0.15 0.81,0.03 0,0.08 0.06,0.16 0.13,0.16 0.06,0.01 0.17,0.01 0.22,0.03 0.06,0.01 0.16,0.03 0.23,0.03 0.06,0.01 0.12,0.07 0.12,0.13 0,0.05 -0.04,0.06 -0.09,0.03 -0.15,-0.10 -2.64,-0.12 -2.64,-0.03 0,0.09 0.32,0.11 1.37,0.10 0.52,-0.01 0.66,0.01 0.50,0.08 -0.18,0.09 -0.18,0.10 0.04,0.06 0.14,-0.03 0.30,-0.04 0.35,-0.06 0.18,-0.05 1.40,6.4e-4 1.35,0.05 -0.06,0.06 -1.28,0.15 -2.11,0.16 -0.48,0 -0.51,0.01 -0.23,0.08 0.18,0.05 0.64,0.07 1.03,0.06 0.50,-0.02 0.69,4.17e-4 0.66,0.08 -0.04,0.11 0.39,0.13 1.51,0.07 0.05,0 0.06,-0.04 0.03,-0.09 -0.03,-0.05 -0.31,-0.06 -0.62,-0.04 -0.33,0.02 -0.55,-0.00 -0.55,-0.06 0,-0.06 0.37,-0.09 0.91,-0.09 0.50,0 0.91,0.03 0.91,0.09 0,0.04 -0.11,0.07 -0.25,0.06 -0.14,-0.02 -0.25,0.00 -0.25,0.06 0,0.13 0.34,0.14 2.50,0.08 0.69,-0.02 1.24,-0.08 1.24,-0.12 0,-0.04 -0.49,-0.07 -1.09,-0.06 -0.65,0.01 -1.19,-0.03 -1.32,-0.10 -0.11,-0.06 -0.57,-0.11 -1.02,-0.12 -0.45,-0.01 -0.82,-0.03 -0.82,-0.05 0,-0.03 0.12,-0.09 0.28,-0.15 0.29,-0.12 1.08,-0.13 1.81,-0.03 0.30,0.04 0.43,0.02 0.43,-0.06 0,-0.09 0.18,-0.10 0.69,-0.05 1.07,0.11 1.35,0.15 1.46,0.21 0.06,0.04 0.09,0.01 0.06,-0.06 -0.02,-0.08 -0.18,-0.16 -0.34,-0.17 -0.16,-0.02 -0.33,-0.07 -0.39,-0.12 -0.05,-0.04 -0.22,-0.06 -0.37,-0.04 -0.16,0.02 -0.28,-0.01 -0.28,-0.06 0,-0.05 0.09,-0.09 0.19,-0.09 0.11,0 0.22,-0.04 0.25,-0.08 0.03,-0.05 -0.08,-0.05 -0.25,-0.03 -0.18,0.03 -0.29,0.10 -0.29,0.21 0,0.13 -0.02,0.13 -0.09,0.02 -0.05,-0.07 -0.14,-0.10 -0.20,-0.06 -0.06,0.04 -0.44,0.03 -0.85,-0.03 -1.18,-0.17 -1.83,-0.21 -1.73,-0.12 0.05,0.05 0.34,0.12 0.64,0.15 0.72,0.08 0.81,0.18 0.16,0.16 -0.28,0 -0.69,0.01 -0.91,0.04 -0.22,0.02 -0.51,0.01 -0.65,-0.01 -0.22,-0.06 -0.23,-0.06 -0.05,-0.13 0.11,-0.04 0.32,-0.04 0.48,0.00 0.31,0.09 0.32,0.07 0.15,-0.21 -0.07,-0.10 -0.09,-0.22 -0.05,-0.26 0.12,-0.13 1.46,-0.17 1.53,-0.04 0.04,0.06 -1.96e-4,0.11 -0.11,0.12 -0.10,0 -0.06,0.03 0.11,0.09 0.16,0.05 0.33,0.07 0.37,0.04 0.05,-0.03 0.47,-0.07 0.96,-0.09 0.47,-0.02 0.90,-0.06 0.93,-0.09 0.03,-0.03 0.10,-0.02 0.16,0.03 0.17,0.14 0.46,0.16 1.02,0.07 0.66,-0.11 0.70,-0.12 2.13,-0.21 0.67,-0.04 1.26,-0.10 1.31,-0.14 0.16,-0.09 0.29,-0.08 0.50,0.06 0.26,0.17 0.66,0.17 0.66,-0.00 0,-0.08 -0.17,-0.16 -0.46,-0.20 -0.66,-0.09 -0.87,-0.08 -0.80,0.03 0.03,0.05 0.00,0.10 -0.04,0.10 -0.06,0 -0.10,-0.03 -0.10,-0.09 0,-0.21 -0.50,-0.31 -1.86,-0.35 -0.87,-0.03 -1.33,-0.15 -1.17,-0.31 0.05,-0.04 0.94,0.02 2.68,0.19 0.28,0.03 0.69,0.08 0.91,0.13 0.22,0.05 0.46,0.08 0.53,0.07 0.06,-0.01 0.17,-0.02 0.22,-0.03 0.06,-0.01 0.04,-0.09 -0.02,-0.21 -0.07,-0.10 -0.15,-0.16 -0.18,-0.11 -0.07,0.11 -0.56,0.22 -0.65,0.14 -0.07,-0.07 -0.16,-0.08 -0.92,-0.19 -1.41,-0.17 -2.41,-0.24 -3.18,-0.24 -0.72,0 -0.83,-0.01 -0.78,-0.15 0.04,-0.13 -0.08,-0.15 -0.83,-0.16 -1.41,-0.02 -2.17,0.05 -2.63,0.22 -0.15,0.06 -0.29,0.09 -0.30,0.09 -0.12,-0.04 -0.23,0.01 -0.23,0.08 0,0.06 0.13,0.05 0.33,-0.00 0.17,-0.06 0.65,-0.13 1.03,-0.14 0.39,-0.02 0.84,-0.05 0.99,-0.08 0.18,-0.02 0.32,0.03 0.40,0.14 0.10,0.13 0.25,0.16 0.83,0.14 0.68,-0.03 0.86,0.03 0.86,0.31 0,0.05 -0.03,0.04 -0.09,-0.03 -0.10,-0.16 -1.41,-0.23 -1.89,-0.10 -0.18,0.05 -0.31,0.04 -0.33,-0.01 -0.02,-0.05 -0.22,-0.10 -0.43,-0.10 -0.26,0 -0.38,0.04 -0.34,0.10 0.04,0.06 0.20,0.09 0.36,0.06 0.16,-0.02 0.29,-4.44e-4 0.29,0.06 0,0.07 0.25,0.09 0.72,0.06 0.39,-0.03 0.67,-0.01 0.59,0.02 -0.17,0.10 0.23,0.19 0.69,0.15 0.75,-0.07 1.29,-0.07 1.46,-0.00 0.22,0.10 1.17,0.13 1.31,0.05 0.14,-0.08 0.91,0.11 0.85,0.21 -0.03,0.04 -0.22,0.07 -0.42,0.06 -0.21,-0.01 -0.41,0.02 -0.44,0.07 -0.04,0.05 -0.16,0.03 -0.28,-0.02 -0.11,-0.07 -0.21,-0.08 -0.21,-0.03 0,0.05 -0.06,0.09 -0.12,0.10 -0.74,0.05 -1.18,0.09 -1.28,0.16 -0.06,0.04 -0.14,0.01 -0.17,-0.07 -0.03,-0.08 -0.11,-0.13 -0.17,-0.11 -0.07,0.02 -0.48,0.05 -0.93,0.09 -0.44,0.03 -1.01,0.08 -1.27,0.11 -0.30,0.04 -0.42,0.01 -0.35,-0.05 0.06,-0.05 0.34,-0.11 0.63,-0.12 0.29,-0.01 0.58,-0.06 0.65,-0.11 0.07,-0.04 -0.24,-0.05 -0.71,-0.03 -0.64,0.02 -0.79,0.00 -0.67,-0.08 0.08,-0.06 0.37,-0.11 0.65,-0.10 0.28,0 0.47,-0.02 0.43,-0.09 -0.03,-0.05 -0.27,-0.07 -0.54,-0.05 -0.27,0.03 -0.49,0.01 -0.49,-0.03 0,-0.04 -0.15,-0.08 -0.32,-0.07 -0.31,0.01 -0.32,0.00 -0.08,0.09 0.27,0.09 0.24,0.10 -0.29,0.15 -0.19,0.02 -0.37,0.07 -0.40,0.13 -0.10,0.16 -0.77,0.19 -0.77,0.04 0,-0.07 -0.08,-0.21 -0.21,-0.30 -0.11,-0.09 -0.27,-0.32 -0.34,-0.50 -0.07,-0.17 -0.16,-0.32 -0.21,-0.32 -0.05,0 -0.09,-0.07 -0.09,-0.15 0,-0.08 0.05,-0.15 0.10,-0.15 0.06,0 0.00,-0.09 -0.09,-0.19 -0.26,-0.26 -0.35,-0.96 -0.27,-1.93 0.04,-0.42 0.09,-1.04 0.12,-1.38 0.02,-0.33 0.09,-0.73 0.15,-0.89 0.06,-0.15 0.09,-0.48 0.06,-0.75 -0.03,-0.26 0.03,-0.86 0.13,-1.39 0.10,-0.50 0.24,-1.29 0.30,-1.73 0.13,-0.95 0.32,-1.38 0.75,-1.63 0.16,-0.09 0.40,-0.29 0.53,-0.43 0.28,-0.31 1.15,-2.03 1.15,-2.26 0,-0.09 0.10,-0.33 0.21,-0.53 0.12,-0.20 0.19,-0.44 0.16,-0.56 -0.04,-0.15 -0.02,-0.18 0.06,-0.10 0.10,0.08 0.11,0.04 0.08,-0.18 -0.02,-0.16 0.05,-0.45 0.16,-0.68 0.59,-1.16 0.82,-1.65 0.94,-2.02 0.07,-0.22 0.27,-0.60 0.43,-0.84 0.29,-0.42 0.30,-0.42 0.48,-0.22 0.11,0.11 0.23,0.18 0.28,0.15 0.16,-0.10 0.23,-0.74 0.12,-1.15 -0.08,-0.35 -0.06,-0.44 0.19,-0.85 0.15,-0.25 0.25,-0.47 0.23,-0.50 -0.10,-0.10 0.31,-0.83 0.47,-0.84 0.13,-0.01 0.16,0.05 0.12,0.28 -0.06,0.40 0.35,1.53 0.53,1.46 0.08,-0.03 0.14,-0.01 0.14,0.04 0,0.06 0.05,0.07 0.10,0.04 0.06,-0.04 0.08,-0.16 0.05,-0.28 -0.06,-0.21 -0.06,-0.22 0.06,-0.02 0.07,0.11 0.21,0.21 0.30,0.23 0.15,0.02 0.17,-0.05 0.17,-0.55 -0.01,-0.33 0.03,-0.60 0.10,-0.62 0.06,-0.02 0.11,-0.09 0.11,-0.16 0,-0.07 0.11,-0.18 0.27,-0.25 0.21,-0.10 0.28,-0.09 0.34,0.00 0.05,0.07 0.09,0.08 0.09,0.03 0,-0.06 0.03,-0.04 0.07,0.03 0.05,0.07 0.35,0.15 0.70,0.17 0.55,0.05 0.63,0.02 0.88,-0.21 0.21,-0.22 0.26,-0.36 0.26,-0.80 0,-0.43 -0.07,-0.67 -0.37,-1.21 -0.21,-0.36 -0.45,-0.68 -0.54,-0.72 -0.25,-0.08 -0.90,-0.96 -0.90,-1.22 0,-0.28 -0.20,-0.75 -0.32,-0.75 -0.14,0 -0.09,-0.22 0.09,-0.37 0.09,-0.07 0.35,-0.23 0.59,-0.34 0.65,-0.31 1.06,-0.71 1.08,-1.04 0.03,-0.41 -0.13,-0.41 -0.66,-0.00 -0.35,0.27 -0.60,0.36 -0.95,0.39 -0.27,0.02 -0.66,0.11 -0.87,0.20 -0.21,0.09 -0.53,0.16 -0.72,0.14 l -0.33,-0.02 0.23,-0.42 c 0.18,-0.33 0.21,-0.45 0.11,-0.51 -0.10,-0.06 -0.19,-0.09 -0.28,-0.08 z m 3.13,0.37 c 0.01,0.00 -0.00,0.03 -0.04,0.09 -0.09,0.15 -1.11,0.80 -1.26,0.80 -0.07,0 -0.20,0.06 -0.30,0.16 -0.12,0.10 -0.25,0.13 -0.40,0.09 l -0.23,-0.07 0.28,-0.23 c 0.15,-0.13 0.37,-0.25 0.49,-0.25 0.59,-0.03 0.82,-0.09 1.11,-0.33 0.22,-0.17 0.33,-0.25 0.35,-0.25 z m -3.97,0.50 c 0.04,3.13e-4 0.05,0.04 0.09,0.10 0.04,0.06 0.03,0.07 -0.03,0.04 -0.15,-0.09 -0.47,0.18 -0.39,0.32 0.04,0.06 0.13,0.07 0.19,0.03 0.07,-0.04 0.06,0.00 -0.02,0.10 -0.13,0.17 -0.36,0.14 -0.26,-0.04 0.11,-0.16 -0.12,-0.10 -0.26,0.08 -0.12,0.15 -0.12,0.16 0.03,0.10 0.31,-0.11 0.30,0.12 -0.01,0.50 -0.17,0.21 -0.31,0.42 -0.31,0.48 0.01,0.05 0.12,-0.03 0.25,-0.20 l 0.24,-0.29 -0.13,0.38 c -0.07,0.21 -0.19,0.42 -0.27,0.46 -0.07,0.05 -0.10,0.12 -0.07,0.15 0.09,0.08 0.40,-0.06 0.34,-0.15 -0.03,-0.05 0.01,-0.12 0.08,-0.17 0.08,-0.04 0.31,-0.41 0.52,-0.82 0.21,-0.40 0.43,-0.71 0.49,-0.69 0.06,0.02 0.23,-0.00 0.38,-0.04 0.28,-0.08 0.58,0.09 1.37,0.79 0.37,0.33 0.53,0.74 0.29,0.74 -0.25,0 -0.19,0.17 0.20,0.59 0.20,0.21 0.51,0.56 0.71,0.77 0.19,0.20 0.34,0.41 0.34,0.47 0,0.05 0.04,0.07 0.09,0.04 0.08,-0.05 0.33,0.43 0.37,0.72 0.02,0.10 -0.01,0.11 -0.12,0.01 -0.11,-0.09 -0.18,-0.09 -0.26,-0.01 -0.09,0.09 -0.05,0.19 0.14,0.39 0.21,0.22 0.25,0.32 0.17,0.46 -0.10,0.16 -0.15,0.15 -0.60,-0.19 -0.33,-0.24 -0.55,-0.34 -0.68,-0.29 -0.14,0.05 -0.12,0.09 0.13,0.19 0.37,0.16 0.66,0.42 0.66,0.62 0,0.11 -0.08,0.09 -0.32,-0.08 -0.18,-0.13 -0.35,-0.26 -0.38,-0.29 -0.12,-0.14 -0.36,-0.15 -0.52,-0.01 -0.13,0.12 -0.20,0.12 -0.37,0.00 -0.22,-0.13 -0.28,-0.28 -0.12,-0.28 0.06,0 0.12,0.04 0.16,0.10 0.09,0.14 0.34,0.12 0.31,-0.03 -0.01,-0.06 -0.08,-0.27 -0.15,-0.46 -0.10,-0.24 -0.16,-0.30 -0.22,-0.20 -0.06,0.08 -0.09,0.09 -0.09,0.02 0,-0.15 -0.28,-0.26 -0.35,-0.15 -0.02,0.05 0.04,0.20 0.15,0.34 0.14,0.17 0.17,0.28 0.09,0.32 -0.14,0.10 -0.59,-0.15 -0.59,-0.32 0,-0.07 -0.04,-0.13 -0.10,-0.13 -0.05,0 -0.09,0.06 -0.09,0.14 0,0.08 0.04,0.18 0.09,0.21 0.06,0.03 0.10,0.10 0.10,0.15 0,0.13 -0.32,0.00 -0.47,-0.18 -0.11,-0.13 -0.13,-0.13 -0.13,-0.01 -0.01,0.11 -0.04,0.10 -0.14,-0.03 -0.18,-0.23 -0.29,-0.22 -0.21,0.03 0.05,0.14 0.03,0.19 -0.03,0.15 -0.06,-0.03 -0.14,-0.01 -0.18,0.04 -0.05,0.08 -0.13,0.04 -0.26,-0.12 l -0.20,-0.24 0.05,0.30 c 0.03,0.16 0.08,0.39 0.12,0.50 0.03,0.11 -0.01,0.05 -0.12,-0.14 -0.22,-0.42 -0.56,-0.57 -0.76,-0.33 -0.07,0.09 -0.08,0.13 -0.02,0.09 0.07,-0.04 0.14,-0.00 0.17,0.07 0.04,0.08 0.01,0.12 -0.06,0.09 -0.09,-0.03 -0.12,0.07 -0.09,0.38 0.03,0.37 0.01,0.40 -0.07,0.19 -0.06,-0.13 -0.12,-0.22 -0.15,-0.20 -0.04,0.04 0.08,0.73 0.21,1.13 0.05,0.17 0.04,0.17 -0.14,-0.00 -0.13,-0.13 -0.19,-0.29 -0.16,-0.44 0.04,-0.18 0.03,-0.19 -0.03,-0.05 -0.07,0.17 -0.09,0.16 -0.20,-0.08 -0.07,-0.15 -0.15,-0.25 -0.19,-0.22 -0.03,0.04 0.00,0.17 0.09,0.29 0.08,0.13 0.18,0.32 0.21,0.42 0.06,0.16 0.05,0.17 -0.08,0.06 -0.09,-0.07 -0.18,-0.11 -0.20,-0.08 -0.09,0.08 0.05,0.38 0.16,0.32 0.05,-0.03 0.09,0.02 0.09,0.12 0,0.13 -0.10,0.07 -0.42,-0.18 -0.24,-0.19 -0.55,-0.41 -0.69,-0.48 -0.14,-0.07 -0.35,-0.22 -0.47,-0.33 -0.13,-0.11 -0.23,-0.17 -0.23,-0.13 0,0.04 -0.06,-4.18e-4 -0.16,-0.08 -0.22,-0.23 -0.44,-0.20 -0.44,0.06 0,0.19 -0.02,0.20 -0.10,0.08 -0.06,-0.10 -0.09,-0.11 -0.09,-0.03 0,0.07 -0.10,0.13 -0.22,0.12 -0.13,0 -0.17,-0.03 -0.10,-0.06 0.17,-0.07 0.15,-0.23 -0.01,-0.23 -0.08,0 -0.18,-0.05 -0.21,-0.11 -0.05,-0.07 0.04,-0.08 0.32,-0.04 0.35,0.06 0.37,0.05 0.19,-0.09 -0.16,-0.13 -0.17,-0.18 -0.06,-0.31 0.07,-0.08 0.16,-0.13 0.20,-0.10 0.14,0.09 0.22,-0.15 0.10,-0.30 -0.09,-0.11 -0.06,-0.17 0.15,-0.31 0.17,-0.11 0.22,-0.19 0.15,-0.24 -0.08,-0.05 -0.05,-0.13 0.11,-0.24 0.13,-0.09 0.20,-0.16 0.16,-0.16 -0.04,0 0.06,-0.19 0.23,-0.41 0.16,-0.23 0.27,-0.45 0.24,-0.50 -0.03,-0.05 0.02,-0.12 0.10,-0.15 0.09,-0.03 0.16,-0.12 0.16,-0.19 0,-0.06 0.09,-0.20 0.20,-0.30 0.11,-0.10 0.20,-0.23 0.20,-0.30 0,-0.06 0.12,-0.22 0.26,-0.36 l 0.26,-0.24 -0.06,0.53 c -0.06,0.45 -0.05,0.51 0.09,0.46 0.09,-0.03 0.16,-0.14 0.17,-0.23 0.02,-0.48 0.07,-0.65 0.22,-0.74 0.20,-0.11 0.23,-0.32 0.03,-0.25 -0.11,0.04 -0.11,-0.00 0.02,-0.26 0.17,-0.34 0.23,-0.40 0.87,-0.75 0.28,-0.15 0.38,-0.21 0.43,-0.21 z m 0.17,1.41 c -0.10,0.00 -0.21,0.09 -0.34,0.25 -0.23,0.30 -0.26,0.40 -0.11,0.49 0.06,0.03 0.10,-0.00 0.10,-0.09 0,-0.10 0.05,-0.13 0.15,-0.10 0.10,0.04 0.15,8.76e-4 0.15,-0.12 0,-0.16 0.01,-0.17 0.09,-0.03 0.06,0.09 0.10,0.10 0.10,0.03 0,-0.06 0.07,-0.10 0.18,-0.08 0.22,0.04 0.26,-0.21 0.05,-0.29 -0.09,-0.04 -0.12,-0.00 -0.07,0.07 0.05,0.09 0.04,0.09 -0.06,-0.00 -0.08,-0.08 -0.16,-0.12 -0.24,-0.11 z m 0.72,0.40 c -0.03,0.00 -0.05,0.03 -0.05,0.09 0,0.05 -0.15,0.10 -0.34,0.10 -0.18,0 -0.39,0.07 -0.46,0.15 -0.07,0.08 -0.23,0.15 -0.35,0.15 -0.13,0 -0.25,0.07 -0.29,0.15 -0.03,0.08 -4.43e-4,0.15 0.06,0.15 0.09,0 0.09,0.03 0,0.12 -0.14,0.14 -0.16,0.28 -0.03,0.28 0.05,0 0.13,-0.09 0.16,-0.21 0.04,-0.11 0.09,-0.19 0.11,-0.16 0.03,0.02 -6.39e-4,0.16 -0.05,0.30 -0.12,0.31 -0.03,0.43 0.15,0.19 0.13,-0.16 0.13,-0.16 0.14,0 0,0.10 0.06,0.18 0.14,0.18 0.22,0 0.28,-0.16 0.11,-0.30 -0.08,-0.07 -0.12,-0.16 -0.09,-0.21 0.03,-0.05 0.00,-0.09 -0.06,-0.09 -0.07,0 -0.09,-0.03 -0.06,-0.07 0.04,-0.03 0.15,0.01 0.26,0.11 0.14,0.13 0.24,0.14 0.45,0.07 0.14,-0.06 0.33,-0.08 0.41,-0.05 0.08,0.04 0.15,0.00 0.15,-0.05 0,-0.06 0.10,-0.11 0.23,-0.11 0.17,0 0.22,-0.06 0.22,-0.25 0,-0.17 -0.04,-0.25 -0.15,-0.22 -0.08,0.01 -0.24,-0.04 -0.34,-0.15 -0.13,-0.12 -0.24,-0.18 -0.30,-0.17 z m -2.15,0.70 c -0.13,0 -0.23,0.03 -0.23,0.09 0,0.13 0.11,0.13 0.30,0 0.12,-0.08 0.11,-0.09 -0.06,-0.09 z m -0.53,0.11 c -0.05,0.01 -0.13,0.05 -0.23,0.13 -0.14,0.11 -0.15,0.18 -0.06,0.37 0.08,0.19 0.08,0.20 0.06,0.04 -0.01,-0.11 0.07,-0.28 0.18,-0.37 0.14,-0.12 0.14,-0.19 0.05,-0.17 z m 0.40,0.29 c -0.05,0.01 -0.13,0.05 -0.19,0.13 -0.10,0.12 -0.08,0.13 0.08,0.09 0.12,-0.03 0.21,-0.09 0.21,-0.14 0,-0.07 -0.03,-0.09 -0.09,-0.08 z m 2.22,0.02 c -0.10,0.00 -0.21,0.03 -0.24,0.07 -0.03,0.04 -0.02,0.15 0.00,0.25 0.06,0.14 0.09,0.14 0.25,-0.03 0.11,-0.11 0.19,-0.22 0.19,-0.23 0,-0.04 -0.10,-0.05 -0.21,-0.05 z m -1.80,0.02 c -0.04,0.00 -0.11,0.04 -0.21,0.11 -0.23,0.16 -0.60,0.52 -0.60,0.59 0,0.09 0.29,-0.08 0.34,-0.21 0.03,-0.08 0.14,-0.19 0.25,-0.25 0.17,-0.09 0.20,-0.08 0.15,0.04 -0.04,0.08 -0.01,0.15 0.03,0.15 0.17,0 0.24,-0.18 0.15,-0.35 -0.04,-0.06 -0.07,-0.09 -0.11,-0.09 z m -1.31,0.34 c -0.01,0.00 -0.01,0.01 -0.01,0.04 0,0.19 0.36,0.87 0.53,0.98 0.05,0.04 0.03,0.09 -0.02,0.13 -0.06,0.04 -0.19,-0.07 -0.31,-0.26 -0.12,-0.20 -0.20,-0.26 -0.20,-0.17 0,0.22 0.33,0.62 0.52,0.65 0.11,0.01 0.14,-0.06 0.12,-0.28 -0.03,-0.20 -0.00,-0.27 0.07,-0.22 0.07,0.04 0.08,0.03 0.04,-0.03 -0.04,-0.07 -0.02,-0.12 0.03,-0.12 0.06,0 0.11,-0.07 0.11,-0.17 0,-0.15 -0.01,-0.15 -0.18,0 -0.26,0.24 -0.31,0.22 -0.52,-0.26 -0.08,-0.17 -0.15,-0.28 -0.18,-0.27 z m 3.33,0.81 c -0.05,0 -0.07,0.07 -0.04,0.15 0.04,0.08 0.08,0.15 0.10,0.15 0.02,0 0.03,-0.07 0.03,-0.15 0,-0.08 -0.03,-0.15 -0.09,-0.15 z m -0.56,0.10 c -0.02,0.00 -0.04,0.02 -0.04,0.07 0,0.05 0.07,0.16 0.16,0.23 0.14,0.12 0.16,0.11 0.13,-0.05 -0.03,-0.15 -0.18,-0.27 -0.25,-0.25 z m 0.86,0.03 c -0.00,0.00 -0.01,0.00 -0.01,0.00 -0.08,0.08 0.01,0.45 0.13,0.45 0.10,0 0.10,-0.07 0,-0.33 -0.02,-0.08 -0.07,-0.13 -0.11,-0.13 z m -1.25,0.09 c -0.04,-0.00 -0.11,0.07 -0.16,0.19 -0.12,0.22 -0.11,0.22 0.06,0.06 0.10,-0.10 0.15,-0.20 0.12,-0.24 -0.00,-0.00 -0.01,-0.00 -0.01,-0.00 z m -2.42,0.08 c -0.05,-0.00 -0.10,0.03 -0.14,0.12 -0.03,0.08 -0.00,0.23 0.05,0.33 0.10,0.17 0.10,0.17 0.11,-0.01 0,-0.17 0.02,-0.18 0.11,-0.05 0.08,0.12 0.08,0.10 0.06,-0.09 -0.01,-0.17 -0.11,-0.29 -0.20,-0.29 z m -0.34,0.42 c -0.03,0.00 -0.04,0.04 -0.06,0.13 -0.04,0.18 0.18,0.74 0.29,0.74 0.03,0 0.02,-0.12 -0.00,-0.26 -0.05,-0.17 -0.03,-0.23 0.03,-0.19 0.18,0.11 0.11,-0.11 -0.09,-0.29 -0.09,-0.08 -0.13,-0.13 -0.16,-0.13 z m 1.91,0.42 c 0.01,-0.00 0.03,0.04 0.07,0.13 0.06,0.14 0.06,0.32 -0.00,0.49 -0.05,0.14 -0.08,0.32 -0.05,0.39 0.03,0.08 0.01,0.16 -0.03,0.18 -0.04,0.03 -0.07,-0.07 -0.06,-0.22 0.01,-0.15 0.02,-0.45 0.03,-0.68 0.01,-0.20 0.01,-0.29 0.03,-0.30 z m -2.02,0.26 c -0.02,-0.00 -0.02,0.03 -0.03,0.09 0,0.09 0.07,0.22 0.15,0.29 0.19,0.16 0.19,8.76e-4 0,-0.26 -0.06,-0.08 -0.09,-0.12 -0.11,-0.12 z m -0.24,0.08 c -0.05,0 -0.06,0.03 -0.03,0.09 0.03,0.05 0.01,0.10 -0.04,0.10 -0.05,0 -0.12,-0.06 -0.14,-0.13 -0.04,-0.07 -0.06,-0.06 -0.06,0.03 -0.01,0.19 0.23,0.42 0.32,0.32 0.11,-0.10 0.07,-0.43 -0.04,-0.43 z m 3.90,0.20 c 0.00,-9.63e-4 0.00,9.64e-4 0.01,0.00 0.02,0.02 0.06,0.35 0.09,0.75 0.04,0.54 0.04,0.61 -0.03,0.30 -0.08,-0.38 -0.12,-1.04 -0.07,-1.06 z m -0.18,0.14 c 0.00,-7.93e-4 0.01,0.00 0.02,0.02 0.02,0.07 0.02,0.21 0,0.30 -0.03,0.10 -0.05,0.03 -0.05,-0.12 0,-0.12 0.01,-0.20 0.03,-0.20 z m -4.47,0.44 0.25,0.12 c 0.14,0.07 0.42,0.23 0.62,0.36 0.45,0.27 0.55,0.29 0.37,0.06 -0.08,-0.10 0.05,-0.02 0.29,0.17 0.23,0.18 0.42,0.39 0.42,0.47 0,0.07 0.03,0.13 0.07,0.13 0.05,0 0.16,0.15 0.25,0.34 0.23,0.49 -0.04,0.42 -0.42,-0.12 -0.17,-0.22 -0.41,-0.46 -0.53,-0.53 -0.13,-0.07 -0.37,-0.24 -0.53,-0.38 -0.17,-0.14 -0.42,-0.34 -0.55,-0.44 l -0.25,-0.18 z m -1.38,0.44 c -0.00,-0.00 -0.01,0.01 -0.03,0.07 -0.36,0.04 -1.18,1.37 -0.47,0.74 0.30,0.60 0.54,-0.77 0.50,-0.81 z m 3.77,0.07 c 0.06,0 0.09,0.03 0.09,0.09 0,0.05 0.03,0.18 0.06,0.28 0.06,0.16 0.04,0.16 -0.09,-0.01 -0.19,-0.23 -0.21,-0.35 -0.06,-0.35 z m -2.69,0.04 c -0.01,0.00 -0.03,0.07 -0.03,0.20 0,0.16 0.02,0.22 0.05,0.12 0.02,-0.09 0.02,-0.23 0,-0.30 -0.00,-0.01 -0.01,-0.02 -0.02,-0.02 z m 0.29,0.07 c -0.02,0.00 -0.03,0.05 -0.03,0.14 0,0.11 0.03,0.14 0.06,0.06 0.03,-0.07 0.01,-0.16 -0.01,-0.19 -0.00,-0.01 -0.01,-0.01 -0.02,-0.01 z m 2.83,0.00 c 0.04,-0.00 0.11,0.10 0.12,0.26 0.06,0.54 0.06,0.81 0.04,1.08 l -0.01,0.30 -0.08,-0.28 c -0.08,-0.25 -0.13,-0.91 -0.11,-1.28 0.00,-0.06 0.01,-0.08 0.03,-0.09 z m -3.69,0.01 -0.05,0.13 c -0.56,0.77 0.42,0.31 0.05,-0.13 z m -1.58,0.25 c -0.03,0.01 -0.11,0.10 -0.16,0.26 -0.29,0.59 -0.05,0.54 0.11,-0.01 0.08,-0.18 0.08,-0.25 0.04,-0.24 z m -5.31,0.42 c -0.10,-9.64e-4 -0.21,0.04 -0.29,0.06 -0.75,0.23 0.53,0.27 0.45,-0.00 -0.04,-0.04 -0.10,-0.05 -0.16,-0.06 z m 1.49,0.13 c -0.02,0.00 -0.10,0.03 -0.23,0.11 -0.28,0.38 0.36,-0.13 0.23,-0.11 z m -0.69,0.08 c -0.02,-8.23e-4 -0.08,0.02 -0.19,0.08 -0.20,0.36 0.30,-0.07 0.19,-0.08 z m 4.05,0.03 -0.07,0.01 -0.13,0.11 c -0.45,0.44 0.21,0.15 0.21,-0.13 z m -17.40,0.05 c -0.02,0.00 -0.05,0.03 -0.09,0.09 0.06,0.29 0.19,-0.11 0.09,-0.09 z m 15.26,0.00 c -0.11,0.03 -0.21,0.10 -0.32,0.16 -0.43,0.08 -0.61,0.90 -0.09,0.33 0.32,0.05 -0.04,0.86 0.44,0.45 0.22,0.24 0.13,-0.29 0.06,-0.45 0.18,-0.48 -0.51,-0.00 -0.09,-0.49 z m -13.01,0.03 c -0.06,0.00 -0.12,0.00 -0.16,0.01 l -0.13,0.04 -0.13,0.06 c -0.73,0.54 0.22,0.10 0.53,-0.01 -0.17,0.57 0.65,0.00 0.85,0.43 0.59,-0.39 -0.46,-0.55 -0.95,-0.54 z m -2.98,0.02 c 0.22,0.00 0.22,0.16 -0.02,0.32 -0.13,0.09 -0.35,0.16 -0.48,0.16 -0.22,0.01 -0.22,8.76e-4 -0.06,-0.12 0.10,-0.07 0.22,-0.13 0.27,-0.13 0.04,0 0.05,-0.03 0.01,-0.09 -0.03,-0.05 0.05,-0.11 0.17,-0.13 0.04,-0.00 0.07,-0.00 0.10,-0.00 z m 15.09,0.04 c -0.02,0.01 -0.10,0.05 -0.23,0.14 -0.32,0.34 0.36,-0.18 0.23,-0.14 z m 3.34,0.07 c -0.02,-0.00 -0.06,0.02 -0.11,0.10 -0.54,-0.03 -0.88,1.29 -0.31,0.31 0.23,-0.25 -0.00,0.49 0.37,-0.17 0.08,-0.06 0.10,-0.23 0.05,-0.24 z m -17.25,0.09 -0.09,0.06 -0.12,0.10 c -0.73,0.62 0.61,-0.00 0.22,-0.16 z m 16.45,0.00 c -0.01,6.21e-4 -0.07,0.04 -0.17,0.15 -0.33,0.62 0.25,-0.15 0.17,-0.15 z m -3.78,0.01 c -0.11,0.05 -0.22,0.13 -0.32,0.19 -0.81,0.66 0.32,0.14 0.32,-0.19 z m 2.96,0 c -0.04,-0.00 -0.10,0.03 -0.18,0.15 -0.34,0.44 -0.02,0.92 0.16,0.23 0.11,-0.14 0.11,-0.38 0.02,-0.39 z m -4.43,0.04 c -0.07,-0.01 -0.34,0.06 -0.39,0.11 -0.83,0.07 -0.25,0.44 0.22,0.03 0.18,-0.09 0.21,-0.13 0.17,-0.14 z m 10.28,0.07 c 0.00,-0.00 0.02,0.02 0.04,0.09 0.02,0.09 0.09,0.14 0.15,0.11 0.07,-0.04 0.08,-0.01 0.04,0.04 -0.12,0.20 -0.26,0.13 -0.25,-0.11 0.00,-0.08 0.00,-0.13 0.01,-0.13 z m -9.80,0.04 c -0.09,0.00 -0.20,0.04 -0.28,0.10 -0.36,0.18 -0.56,0.58 -0.06,0.15 0.17,-0.00 0.24,-0.17 0.49,0.01 0.06,-0.19 -0.02,-0.27 -0.14,-0.26 z m 7.03,0.01 c -0.02,0.00 -0.06,0.04 -0.11,0.11 0.22,0.33 0.24,-0.14 0.11,-0.11 z m -15.32,0.00 c -0.02,0.00 -0.07,0.03 -0.12,0.12 0.18,0.14 0.21,-0.12 0.12,-0.12 z m 9.62,0.01 c -0.06,-0.00 -0.24,0.10 -0.45,0.25 -0.52,0.41 0.25,0.05 0.25,0.13 0.23,-0.27 0.27,-0.38 0.20,-0.38 z m -9.04,0.00 c -0.03,0.00 -0.07,0.03 -0.10,0.08 -0.45,0.78 0.69,-0.15 0.26,0.52 0.25,0.05 0.77,-0.44 0.29,-0.39 -0.08,0.08 -0.28,-0.24 -0.44,-0.21 z m 6.12,0.11 c -0.03,-0.00 -0.09,0.00 -0.19,0.01 l -0.19,0.06 c -0.42,0.27 0.64,-0.07 0.38,-0.08 z m -4.50,0.01 c -0.05,0.00 -0.14,0.04 -0.28,0.11 -0.36,0.11 -0.22,0.63 -0.69,0.49 0.39,0.34 -0.73,0.07 -0.78,0.15 -0.01,-0.28 -0.35,0.58 -0.39,0.65 0.24,-0.16 0.39,-0.35 0.27,0.03 0.46,-0.17 0.45,-0.93 0.74,-0.35 -0.50,0.74 1.04,-0.66 0.99,0 0.54,0.26 0.78,-0.74 0.55,-0.43 0.08,0.30 -0.76,-0.05 -0.06,-0.20 0.50,-0.07 1.13,-0.60 0.25,-0.23 -0.48,0.10 -1.27,0.99 -0.95,0.09 0.27,-0.13 0.50,-0.36 0.35,-0.34 z m 1.41,0.01 c -0.09,-0.00 -0.17,0.05 -0.20,0.20 -0.48,0.43 0.51,0.02 0.70,0.13 0.00,-0.06 -0.28,-0.33 -0.49,-0.34 z m -7.98,0.00 c -0.01,0.00 -0.03,0.00 -0.05,0.00 -0.27,0.44 0.29,-0.03 0.05,-0.00 z m 18.18,0.09 c -0.01,0.00 -0.03,0.00 -0.05,0.01 -0.27,0.44 0.29,-0.03 0.05,-0.01 z m -18.52,0.08 c -0.02,0.00 -0.09,0.05 -0.23,0.18 -0.37,0.64 0.33,-0.20 0.23,-0.18 z m 17.08,0.15 c -0.02,0.00 -0.06,0.04 -0.11,0.11 0.22,0.33 0.24,-0.14 0.11,-0.11 z m -9.08,0.22 c -0.06,-1.68e-4 -0.15,0.04 -0.30,0.15 0.30,0.37 0.52,-0.15 0.30,-0.15 z m -9.46,0.00 c 0.04,-0.00 0.00,0.07 -0.12,0.23 -0.10,0.13 -0.22,0.22 -0.26,0.19 -0.04,-0.03 0.02,-0.13 0.14,-0.24 0.13,-0.11 0.21,-0.17 0.24,-0.18 z m 6.24,0.19 c -0.02,0.00 -0.07,0.03 -0.14,0.09 0.05,0.27 0.26,-0.12 0.14,-0.09 z m 3.07,0.39 c -0.03,-1.9e-5 -0.08,0.02 -0.16,0.10 0.13,0.14 0.26,-0.10 0.16,-0.10 z m 6.51,0.05 c -0.01,0.00 -0.02,0.00 -0.03,0.01 -0.34,0.00 -0.78,0.37 -0.33,0.60 0.35,-1.05 0.14,1.03 0.42,-0.03 0.05,-0.08 0.08,-0.60 -0.06,-0.59 z m 0.49,0.28 c -0.03,0.00 -0.09,0.05 -0.16,0.14 -0.38,0.57 0.69,0.89 0.33,0.39 -0.11,0.08 -0.00,-0.56 -0.17,-0.54 z m -12.19,0.33 c -0.02,0.00 -0.06,0.02 -0.09,0.06 -0.32,0.30 -0.10,1.26 0.01,0.35 0.20,-0.78 0.19,0.96 0.26,-0.06 -0.00,-0.10 -0.05,-0.37 -0.17,-0.35 z m 1.47,0.00 c -0.09,0.28 0.31,0.23 -0.12,0.68 -0.12,0.26 0.05,0.31 0.12,0.43 0.09,-0.42 0.25,-1.01 0,-1.11 z m 0,1.11 c -0.02,0.12 -0.05,0.23 -0.05,0.32 0.09,-0.16 0.08,-0.25 0.05,-0.32 z m 0.75,-0.91 c -0.04,-6.14e-4 -0.10,0.02 -0.21,0.09 -0.24,0.39 -0.28,1.48 0.12,0.57 -0.05,-0.15 0.26,-0.66 0.08,-0.66 z m -1.84,0.14 c -0.01,0.00 -0.03,0.03 -0.04,0.09 0.24,0.28 0.12,-0.12 0.04,-0.09 z m 12.07,0.27 c -0.27,0.87 0.22,0.42 0,0 z M 8.99,22.45 c 0.03,0 -0.01,0.07 -0.10,0.18 -0.19,0.21 -0.22,0.37 -0.05,0.26 0.07,-0.05 0.08,-0.03 0.03,0.04 -0.05,0.09 -0.10,0.10 -0.18,0.02 -0.07,-0.07 -0.05,-0.16 0.08,-0.31 0.10,-0.11 0.20,-0.20 0.23,-0.20 z m 21.30,0.02 c -0.01,0.00 -0.04,0.07 -0.10,0.24 0.06,0.52 -0.02,1.20 0.50,1.10 0.42,0.50 0.08,-0.89 -0.19,-0.37 -0.43,-0.18 0.36,-0.35 -0.10,-0.60 -0.14,0.14 -0.05,-0.39 -0.10,-0.37 z M 9.59,22.66 c 0.01,0.00 0.04,0.03 0.07,0.08 0.03,0.05 0.02,0.12 -0.03,0.15 -0.05,0.03 -0.09,-0.01 -0.09,-0.09 0,-0.10 0.01,-0.15 0.04,-0.14 z m 10.01,0.01 -0.01,0.16 c 0.27,0.76 0.32,0.30 0.01,-0.16 z m -0.50,0.24 c -0.00,0.00 -0.01,0.04 -0.01,0.13 -0.02,0.54 0.31,0.96 0.21,0.14 -0.09,-0.01 -0.17,-0.29 -0.19,-0.27 z m 1.11,0.05 -0.01,0.13 c -0.02,0.44 -0.19,0.68 0.10,0.41 0.17,0.76 0.45,-0.41 -0.04,-0.44 l -0.04,-0.10 z m -1.63,0.17 c -0.01,5.09e-4 -0.02,0.00 -0.03,0.00 -0.10,0.39 0.01,1.70 0.14,0.60 0.23,-0.11 0.05,-0.61 -0.11,-0.61 z m -6.31,0.02 c 0.01,-0.00 0.05,0.06 0.13,0.24 0.08,0.16 0.14,0.23 0.15,0.15 0.01,-0.36 0.20,0.17 0.19,0.55 0,0.22 -0.03,0.33 -0.06,0.25 -0.02,-0.08 -0.13,-0.36 -0.24,-0.62 -0.13,-0.33 -0.20,-0.56 -0.17,-0.57 z m 2.30,0.10 c -0.07,0.09 -0.06,0.22 -0.05,0.34 0.02,0.94 0.52,-0.16 0.05,-0.34 z m 11.21,0.14 c -0.02,2.77e-4 -0.05,0.00 -0.09,0.01 -0.57,0.65 0.45,-0.01 0.09,-0.01 z m -0.49,0.01 c -0.02,0.00 -0.06,0.02 -0.14,0.06 l -0.13,0.10 c -0.66,0.69 0.42,-0.19 0.28,-0.17 z m -0.71,0.18 c -0.01,0.00 -0.02,0.00 -0.05,0.02 l -0.08,0.08 -0.10,0.10 c -0.63,0.65 0.41,-0.24 0.23,-0.21 z m -3.35,0.03 c -0.02,0.15 -0.02,0.30 -0.02,0.46 -0.04,0.46 -0.34,0.61 0.16,0.81 -0.12,-0.38 -0.03,-0.57 0.23,-0.15 0.05,-0.44 0.10,-0.86 -0.37,-1.11 z m 8.45,0.03 c -0.02,-0.00 -0.05,0.02 -0.09,0.08 -0.41,0.20 -0.85,0.80 -0.08,0.42 0.14,0.01 0.27,-0.50 0.18,-0.50 z m -10.16,0.00 c -0.00,-0.00 -0.02,0.03 -0.03,0.16 0.07,0.45 0.06,-0.14 0.03,-0.16 z m 1.30,0.01 -0.05,0.18 c -0.13,0.57 0.44,-0.03 0.05,-0.18 z m 9.15,0.01 c -0.02,0.00 -0.05,0.02 -0.09,0.06 -0.06,0.63 0.24,-0.09 0.09,-0.06 z m -9.75,0.15 c -0.01,-0.00 -0.02,0.02 -0.03,0.14 0.09,0.28 0.06,-0.11 0.03,-0.14 z m 3.48,0.00 -0.05,0.03 -0.06,0.13 c -0.16,0.51 0.24,0.08 0.12,-0.17 z m 1.40,0.02 c -0.02,0.00 -0.07,0.03 -0.15,0.09 -0.27,0.56 0.29,-0.12 0.15,-0.09 z m -6.31,0.04 c -0.00,5.96e-4 -0.01,0.00 -0.02,0.01 l 0.01,0.21 c 0.08,0.74 0.13,-0.23 0.01,-0.22 z m 17.55,0.01 -0.04,0.19 c -0.01,0.87 0.32,-0.16 0.04,-0.19 z m -21.42,0.04 c -0.02,0.00 -0.05,0.00 -0.08,0.01 l 0.06,0.19 c 0.39,0.22 0.29,0.97 0.40,1.06 0.31,-0.41 0.02,-1.30 -0.39,-1.28 z m 9.46,0.16 c -0.03,-4.16e-4 -0.11,0.04 -0.28,0.15 -0.45,0.66 0.41,-0.15 0.28,-0.15 z m -9.27,0.07 c 0.01,-0.00 0.05,0.03 0.12,0.16 -0.02,0.29 -0.16,-0.14 -0.12,-0.16 z m 15.02,0.02 c -0.06,0.01 -0.13,0.09 -0.19,0.30 -0.30,0.48 -0.07,0.82 0.28,0.22 0.14,-0.21 0.05,-0.54 -0.08,-0.52 z m 0.45,0.08 c -0.02,0.00 -0.05,0.02 -0.10,0.09 0.06,0.29 0.19,-0.10 0.10,-0.09 z m 0.16,0.01 0.02,0.13 c 0.07,0.84 0.53,-0.03 -0.02,-0.13 z m -17.85,0.00 c 0.04,-0.00 0.14,0.13 0.20,0.34 0.04,0.14 0.02,0.23 -0.03,0.23 -0.06,0 -0.11,-0.02 -0.11,-0.07 0,-0.04 -0.03,-0.18 -0.06,-0.32 -0.03,-0.11 -0.02,-0.17 0.00,-0.17 z m 8.84,0.07 c -0.01,0.00 -0.03,0.02 -0.05,0.08 0.20,0.48 0.14,-0.10 0.05,-0.08 z m 8.42,0.09 c 0.01,-0.00 0.00,0.03 -0.05,0.13 l -0.08,0.08 c -0.50,0.52 0.06,-0.22 0.13,-0.22 z m -9.60,0.13 c -0.04,0.01 -0.08,0.11 -0.06,0.36 -0.14,0.65 0.58,1.03 0.13,0.34 0.26,-0.18 0.05,-0.73 -0.06,-0.70 z m 1.97,0.05 c -0.01,0.00 -0.02,0.04 -0.04,0.11 -0.44,0.10 0.24,1.56 0.26,1.56 -0.17,-0.51 0.07,-1.18 -0.26,-1.31 0.15,0.07 0.10,-0.38 0.04,-0.35 z m 13.81,0.12 c 0.00,-0.00 0.01,0.00 0.02,0.01 0.04,0.03 0.02,0.19 -0.01,0.34 -0.05,0.15 -0.07,0.31 -0.06,0.35 0.01,0.05 -0.02,0.07 -0.08,0.07 -0.05,0 -0.10,0.07 -0.10,0.16 0,0.08 -0.03,0.13 -0.09,0.09 -0.12,-0.07 0.07,-0.65 0.20,-0.65 0.05,0 0.09,-0.10 0.09,-0.22 0,-0.09 0.01,-0.15 0.03,-0.16 z m -22.25,0.00 c -0.01,-0.00 -0.02,0.02 -0.03,0.14 0.09,0.28 0.06,-0.11 0.03,-0.14 z m 1.69,0.06 c -0.02,0.00 -0.06,0.03 -0.11,0.11 0.22,0.33 0.24,-0.13 0.11,-0.11 z m 5.90,0.06 -0.02,0.13 c 0.07,0.65 0.33,-0.07 0.02,-0.13 z m 9.29,0.05 c -0.04,0.00 -0.10,0.03 -0.17,0.09 0.38,0.31 0.37,-0.11 0.17,-0.09 z m -10.12,0.00 c -0.02,0.00 -0.02,0.05 0.00,0.17 -0.10,0.31 0.71,1.17 0.32,0.46 0.09,-0.06 -0.24,-0.65 -0.33,-0.64 z m -1.60,0.12 c -0.05,0.00 -0.10,0.03 -0.12,0.09 0.22,0.37 0.57,0.69 0.26,-0.02 -0.02,-0.04 -0.08,-0.07 -0.14,-0.06 z m 2.23,0.06 -0.00,0.05 c -0.53,0.48 0.84,1.63 0.87,1.00 -0.24,-0.38 -0.75,-0.49 -0.86,-1.06 z m 9.77,0.00 c -0.03,0.00 -0.06,0.01 -0.09,0.05 -0.38,0.57 1.15,0.80 0.34,0.11 -0.06,-0.06 -0.14,-0.17 -0.24,-0.16 z m -12.97,0.02 c -0.02,0.00 -0.05,0.02 -0.06,0.05 0.11,0.40 1.12,0.96 0.45,0.23 -0.02,-0.08 -0.25,-0.30 -0.38,-0.28 z m 5.44,0.16 c -0.02,0.00 -0.07,0.03 -0.12,0.12 0.18,0.14 0.21,-0.12 0.12,-0.12 z m -7.60,0.00 c -0.00,0.00 -0.02,0.03 -0.03,0.10 -0.63,0.17 0.16,1.67 0.04,0.41 0.01,-0.00 0.02,-0.52 -0.01,-0.51 z m 0.20,0.12 c -0.01,-0.00 -0.02,0.02 -0.03,0.14 0.09,0.28 0.06,-0.11 0.03,-0.14 z m 14.56,0.06 c -0.04,0.00 -0.10,0.04 -0.17,0.11 0.30,0.33 0.36,-0.14 0.17,-0.11 z m 4.84,0.03 c 0.00,-0.00 0.01,0.00 0.02,0.01 0.03,0.03 0.04,0.11 0.01,0.19 -0.03,0.08 -0.06,0.05 -0.06,-0.06 -0.00,-0.08 0.00,-0.14 0.03,-0.14 z m -12.29,0.10 c -0.01,-0.00 -0.02,0.02 -0.03,0.14 0.09,0.28 0.06,-0.11 0.03,-0.14 z m 2.68,0.00 c -0.02,0.00 -0.04,0.00 -0.08,0.01 l -0.16,0.09 c -0.47,0.51 0.56,-0.14 0.24,-0.11 z m -0.52,0.04 c -0.01,-0.00 -0.08,0.01 -0.21,0.08 -0.45,0.48 0.29,-0.06 0.21,-0.08 z m -8.02,0.02 c -0.02,0.00 -0.05,0.05 -0.11,0.14 0.04,0.45 0.20,-0.17 0.11,-0.14 z m 7.29,0.01 c -0.01,-0.00 -0.04,0.01 -0.10,0.06 -0.38,0.46 0.09,0.63 0.23,0.13 -0.28,0.23 -0.06,-0.18 -0.12,-0.20 z m -1.05,0.02 c -0.02,-0.00 -0.05,-0.00 -0.08,0.00 l -0.07,0.11 c -0.05,0.54 0.50,-0.09 0.15,-0.11 z m -7.14,0.03 c -0.06,3.7e-5 -0.15,0.08 -0.27,0.29 -0.43,0.31 0.07,1.00 0.40,0.71 0.08,-0.25 0.07,-1.00 -0.13,-1.00 z m -2.97,0.02 c 0.02,0 0.08,0.06 0.14,0.13 0.08,0.10 0.07,0.14 -0.02,0.14 -0.08,0 -0.14,-0.06 -0.14,-0.14 0,-0.07 0.01,-0.13 0.02,-0.13 z m 4.26,0.00 c -0.13,0.00 -0.27,0.08 -0.36,0.18 -0.27,0.52 0.59,0.89 -0.27,1.19 0.58,0.30 0.78,-0.65 1.34,-0.50 -0.49,-0.14 -0.48,-0.26 -0.42,-0.75 -0.07,-0.09 -0.17,-0.12 -0.28,-0.11 z m 6.43,0.00 c -0.02,0.00 -0.08,0.02 -0.18,0.09 -0.20,0.30 0.28,-0.10 0.18,-0.09 z m -4.25,0.04 c -0.02,-0.00 -0.06,0.00 -0.09,0.02 0.33,0.54 0.30,0.00 0.09,-0.02 z m -3.51,0.05 c 0.02,0.00 0.04,0.02 0.05,0.09 -0.22,0.30 -0.14,-0.10 -0.05,-0.09 z m 16.50,0.04 c -0.06,0.00 -0.27,0.16 -0.32,0.24 -0.16,0.49 -0.15,0.26 -0.64,0.32 0.08,0.44 0.07,0.71 0.51,0.19 0.38,-0.23 0.46,-0.48 0.34,-0.55 0.12,-0.16 0.13,-0.21 0.09,-0.21 z m -17.61,0.09 c -0.00,0.00 -0.01,0.05 -0.03,0.19 0.05,0.45 0.05,-0.20 0.03,-0.19 z m 3.83,0.07 c -0.00,0.00 -0.01,0.03 -0.01,0.09 0.03,0.50 0.88,0.91 0.19,0.22 -0.03,0.04 -0.14,-0.34 -0.18,-0.32 z m 7.53,0 c -0.05,0.00 -0.13,0.05 -0.23,0.16 -0.71,0.33 0.83,0.17 0.50,-0.05 -0.11,-0.02 -0.17,-0.12 -0.27,-0.11 z m -6.83,0.07 -0.02,0.13 c 0.39,0.20 -0.01,0.90 0.42,0.30 0.63,0.28 -0.07,-0.26 -0.31,-0.30 l -0.09,-0.13 z m -1.41,0.09 c -0.02,0.00 -0.07,0.03 -0.13,0.12 0.18,0.14 0.21,-0.12 0.13,-0.12 z m 7.14,0.02 c -0.05,0.00 -0.14,0.07 -0.16,0.14 -0.45,0.06 -0.66,0.40 -0.02,0.17 0.28,0.01 -0.50,0.71 0.10,0.27 0.46,-0.01 0.29,-0.32 0.09,-0.44 0.05,-0.11 0.03,-0.14 -0.00,-0.14 z m 3.71,0.18 c -0.03,0.00 -0.08,0.03 -0.16,0.10 0.03,0.28 0.30,-0.13 0.16,-0.10 z m -8.41,0.01 c -0.01,0.00 -0.00,0.03 0.04,0.09 0.48,0.27 0.01,-0.12 -0.04,-0.09 z m 5.51,0.09 c -0.02,0.00 -0.05,0.02 -0.10,0.09 0.06,0.29 0.19,-0.10 0.10,-0.09 z m 0.61,0 c -0.02,0.00 -0.05,0.02 -0.10,0.09 0.06,0.29 0.19,-0.10 0.10,-0.09 z m 6.78,0.09 c 0.02,-0.00 0.07,0.04 0.11,0.16 0.03,0.08 0.02,0.12 -0.03,0.09 -0.06,-0.03 -0.10,-0.09 -0.10,-0.16 0,-0.05 0.01,-0.08 0.02,-0.09 z m -4.89,0.00 c -0.03,0.00 -0.08,0.03 -0.16,0.09 0.15,0.30 0.31,-0.11 0.16,-0.09 z m -4.93,0.00 c -0.02,0.00 -0.05,0.03 -0.10,0.09 0.06,0.29 0.19,-0.11 0.10,-0.09 z m 6.09,0 c -0.02,0.00 -0.05,0.03 -0.10,0.09 0.06,0.29 0.19,-0.11 0.10,-0.09 z m -5.59,0.04 c -0.01,0.00 -0.04,0.00 -0.09,0.03 l -0.07,0.07 -0.09,0.10 c -0.50,0.58 0.43,-0.22 0.26,-0.20 z m 3.52,0.03 c -0.02,0.00 -0.06,0.05 -0.12,0.17 -0.27,0.03 -0.64,0.64 -0.04,0.36 0.16,-0.02 0.25,-0.55 0.16,-0.53 z m 5.22,0.31 c -0.01,-1.47e-4 -0.03,0.02 -0.06,0.09 -0.20,0.69 -0.02,-0.34 -0.35,0.25 -0.11,-0.29 -0.60,0.36 -0.03,0.41 0.48,-0.64 -0.11,0.23 0.23,0.20 -0.23,0.34 -0.49,1.58 0.00,0.60 0.00,-0.19 0.29,-1.57 0.20,-1.57 z m -6.97,0.00 c -0.04,0.00 -0.12,0.04 -0.26,0.12 l -0.08,0.07 c -0.30,0.56 0.59,-0.23 0.35,-0.19 z m -3.47,0.00 -0.16,0.08 c -0.86,-0.01 0.01,0.55 0.18,-0.06 l -0.02,-0.01 z m 0.28,0.00 c -0.02,0.00 -0.05,0.02 -0.10,0.09 0.06,0.29 0.19,-0.10 0.10,-0.09 z m 3.50,0.02 c -0.05,0.00 -0.12,0.04 -0.20,0.14 0.10,0.19 0.58,0.43 0.15,0.83 0.61,-0.03 0.21,-0.60 0.46,-0.91 -0.17,0.13 -0.25,-0.07 -0.40,-0.06 z m 0.40,0.06 c 0.02,-0.01 0.04,-0.03 0.06,-0.06 -0.02,0.02 -0.04,0.04 -0.06,0.06 z m -2.42,0 c -0.03,0.00 -0.08,0.03 -0.16,0.10 0.03,0.28 0.30,-0.13 0.16,-0.10 z m 2.77,0.03 c -0.03,0.00 -0.10,0.03 -0.22,0.09 -0.30,0.59 0.43,-0.11 0.22,-0.09 z m -9.09,0.07 c 0.03,0 -0.03,0.07 -0.13,0.15 -0.13,0.10 -0.15,0.15 -0.06,0.15 0.07,0 0.11,0.03 0.06,0.06 -0.03,0.03 -0.11,0.02 -0.18,-0.02 -0.09,-0.05 -0.07,-0.11 0.06,-0.21 0.11,-0.07 0.21,-0.13 0.24,-0.13 z m 6.60,0.02 c -0.04,0.00 -0.09,0.02 -0.13,0.07 0.14,0.17 0.43,0.07 0.22,0.30 0.35,-0.02 0.12,-0.39 -0.08,-0.38 z m -7.69,0.07 c -0.03,-1.9e-5 -0.08,0.02 -0.16,0.10 0.13,0.14 0.26,-0.10 0.16,-0.10 z m 1.26,0.00 c 0.03,0 0.03,0.04 0,0.09 -0.09,0.13 0.14,0.18 0.68,0.15 0.29,-0.01 0.47,0.02 0.47,0.08 0,0.06 0.03,0.08 0.06,0.05 0.04,-0.03 0.15,-0.02 0.26,0.03 0.10,0.05 0.24,0.06 0.31,0.02 0.21,-0.13 0.36,-0.12 0.30,0.03 -0.04,0.12 0.00,0.14 0.23,0.08 0.28,-0.06 0.28,-0.06 0.09,0.09 -0.20,0.16 -0.20,0.16 0.03,0.22 0.24,0.07 0.26,0.12 0.13,0.33 -0.07,0.11 -0.13,0.12 -0.23,0.03 -0.13,-0.12 -1.86,-0.62 -2.31,-0.69 -0.14,-0.02 -0.26,-0.03 -0.28,-0.03 -0.02,-0.01 6.38e-4,-0.07 0.05,-0.14 0.04,-0.06 0.08,-0.15 0.09,-0.20 0.03,-0.15 0.04,-0.17 0.10,-0.17 z m 10.23,0 c 0.07,0 0.13,0.08 0.13,0.18 0,0.10 -0.06,0.19 -0.13,0.19 -0.07,0 -0.13,-0.09 -0.13,-0.19 0,-0.10 0.06,-0.18 0.13,-0.18 z m 0.95,0 c 0.01,-5.96e-4 0.03,0.01 0.03,0.04 0,0.02 -0.06,0.09 -0.14,0.15 -0.11,0.09 -0.16,0.09 -0.22,0 -0.04,-0.07 -0.03,-0.09 0.03,-0.05 0.06,0.03 0.13,0.02 0.17,-0.03 0.03,-0.06 0.08,-0.10 0.12,-0.10 z m 0.37,0.30 c 0.03,-5.95e-4 0.06,0.01 0.06,0.04 0,0.02 -0.07,0.06 -0.16,0.09 -0.08,0.03 -0.12,0.02 -0.09,-0.03 0.03,-0.06 0.12,-0.10 0.19,-0.10 z m -4.04,0.02 c -0.03,-0.00 -0.11,0.01 -0.26,0.07 -0.21,0.45 0.42,-0.05 0.26,-0.07 z m 2.77,0.17 c 0.01,0.00 0.01,0.01 0.01,0.03 0,0.02 -0.09,0.12 -0.22,0.23 l -0.23,0.19 0.19,-0.23 c 0.13,-0.16 0.21,-0.23 0.24,-0.22 z m -2.50,0.03 c -0.04,0.00 -0.12,0.01 -0.23,0.03 -0.58,0.43 0.56,-0.04 0.23,-0.03 z m -2.26,0.01 c 0.01,0.00 0.03,0.00 0.05,0.01 0.09,0.03 0.16,0.08 0.16,0.11 0,0.02 -0.08,0.12 -0.17,0.21 -0.16,0.16 -0.15,0.17 0.05,0.20 0.21,0.03 0.32,0.32 0.12,0.32 -0.05,0 -0.09,0.04 -0.09,0.10 0,0.15 0.14,0.12 0.37,-0.09 0.18,-0.17 0.23,-0.18 0.39,-0.06 0.11,0.07 0.23,0.10 0.29,0.06 0.05,-0.04 0.19,-0.11 0.29,-0.15 0.16,-0.05 0.17,-0.04 0.06,0.08 -0.10,0.12 -0.06,0.14 0.25,0.11 0.34,-0.02 0.36,-0.01 0.19,0.11 -0.19,0.14 -0.58,0.09 -0.64,-0.06 -0.02,-0.05 -0.14,-0.02 -0.27,0.06 -0.13,0.09 -0.32,0.14 -0.42,0.12 -0.10,-0.01 -0.24,0.00 -0.31,0.06 -0.07,0.04 -0.19,0.02 -0.27,-0.04 -0.14,-0.11 -0.59,-0.10 -0.72,0.03 -0.04,0.04 -0.18,-4.18e-4 -0.31,-0.08 -0.13,-0.09 -0.23,-0.11 -0.23,-0.07 0,0.05 -0.04,0.00 -0.09,-0.07 -0.08,-0.12 -0.13,-0.11 -0.39,0.08 -0.23,0.17 -0.29,0.18 -0.24,0.06 0.05,-0.14 0.03,-0.15 -0.17,-0.03 -0.12,0.07 -0.20,0.06 -0.16,0.01 0.10,-0.17 -0.12,-0.24 -0.36,-0.11 l -0.23,0.11 0.22,-0.21 c 0.12,-0.11 0.29,-0.21 0.38,-0.21 0.08,0 0.15,-0.04 0.15,-0.09 0,-0.06 0.05,-0.10 0.11,-0.10 0.06,0 0.09,0.07 0.05,0.15 -0.03,0.08 -0.00,0.16 0.06,0.17 0.36,0.04 0.66,0.03 0.62,-0.03 -0.05,-0.09 0.44,-0.49 0.61,-0.49 0.07,0 0.07,0.03 0.00,0.08 -0.23,0.17 -0.34,0.49 -0.22,0.65 0.10,0.13 0.15,0.14 0.27,0.04 0.08,-0.07 0.16,-0.20 0.18,-0.30 0.02,-0.10 0.12,-0.27 0.23,-0.38 0.11,-0.11 0.17,-0.24 0.14,-0.29 -0.02,-0.04 -0.00,-0.06 0.03,-0.05 z m 4.20,0.05 c 0.06,0 -0.11,0.17 -0.38,0.39 -0.57,0.44 -1.15,0.77 -1.15,0.62 0,-0.05 0.10,-0.13 0.23,-0.17 0.33,-0.10 0.70,-0.41 0.58,-0.49 -0.05,-0.03 -0.14,-0.03 -0.20,0 -0.05,0.03 -0.10,0.01 -0.10,-0.03 0,-0.15 0.23,-0.14 0.38,0.00 0.06,0.06 0.15,0.08 0.19,0.04 0.04,-0.04 0.00,-0.12 -0.07,-0.17 -0.12,-0.08 -0.10,-0.10 0.07,-0.06 0.13,0.03 0.26,0.00 0.29,-0.04 0.03,-0.05 0.10,-0.09 0.16,-0.09 z m -5.32,0.00 c 0.02,0 0.01,0.02 -0.02,0.09 -0.03,0.05 -0.12,0.10 -0.18,0.10 -0.07,0 -0.06,-0.04 0.03,-0.10 0.09,-0.06 0.15,-0.09 0.17,-0.09 z m 6.91,0.00 c 0.02,0 0.00,0.02 -0.03,0.08 -0.03,0.05 -0.14,0.10 -0.23,0.09 -0.14,0 -0.13,-0.02 0.03,-0.09 0.13,-0.05 0.20,-0.08 0.23,-0.08 z m -0.62,0.08 c 0.02,-0.00 0.03,0.00 0.03,0.03 0,0.02 -0.08,0.10 -0.17,0.17 -0.16,0.13 -0.17,0.12 -0.04,-0.03 0.08,-0.10 0.14,-0.16 0.18,-0.16 z m 3.75,0.03 c -0.01,-0.00 -0.05,0.00 -0.11,0.03 -0.41,0.65 0.24,-0.02 0.11,-0.03 z m -15.17,0.09 c 0.02,0.00 0.05,0.01 0.10,0.06 0.08,0.07 0.29,0.11 0.49,0.09 0.19,-0.01 0.39,0.02 0.46,0.06 0.07,0.04 0.12,0.01 0.12,-0.05 0,-0.07 0.08,-0.05 0.20,0.06 0.11,0.10 0.20,0.15 0.20,0.12 0,-0.04 0.10,-0.02 0.23,0.02 0.12,0.05 0.32,0.05 0.45,0 0.16,-0.06 0.32,-0.04 0.50,0.06 0.21,0.11 0.23,0.15 0.09,0.16 -0.10,0.01 -0.21,0.02 -0.25,0.03 -0.05,0.01 -0.24,0.05 -0.43,0.09 -0.19,0.05 -0.41,0.13 -0.49,0.20 -0.12,0.09 -0.13,0.07 -0.08,-0.07 0.03,-0.09 0.03,-0.17 0.01,-0.17 -0.13,0 -0.84,0.58 -0.78,0.65 0.03,0.04 -0.01,0.03 -0.10,0.00 -0.09,-0.04 -0.20,-0.01 -0.24,0.06 -0.10,0.16 -0.12,0.60 -0.03,0.60 0.06,0 0.03,0.49 -0.07,1.10 -0.04,0.25 -0.08,0.31 -0.14,0.21 -0.07,-0.12 -0.10,-0.11 -0.16,0.03 -0.03,0.09 -0.12,0.17 -0.20,0.17 -0.08,0 -0.14,0.07 -0.14,0.15 0,0.08 0.05,0.15 0.11,0.15 0.05,0 0.07,0.05 0.03,0.11 -0.04,0.08 -0.09,0.07 -0.15,-0.02 -0.08,-0.12 -0.11,-0.10 -0.20,0.01 -0.09,0.13 -0.10,0.11 -0.05,-0.03 0.03,-0.09 0.01,-0.17 -0.03,-0.17 -0.06,0 -0.10,0.04 -0.10,0.10 0,0.05 -0.03,0.09 -0.07,0.09 -0.05,-0.01 -0.11,0.00 -0.15,0.01 -0.30,0.10 -0.57,0.01 -0.81,-0.24 -0.15,-0.16 -0.25,-0.33 -0.22,-0.38 0.03,-0.04 -0.02,-0.07 -0.11,-0.07 -0.09,0 -0.13,-0.05 -0.10,-0.10 0.04,-0.06 0.11,-0.08 0.16,-0.05 0.05,0.04 0.09,0.01 0.09,-0.03 0,-0.06 -0.06,-0.11 -0.12,-0.11 -0.08,0 -0.06,-0.05 0.03,-0.11 0.10,-0.05 0.15,-0.16 0.12,-0.24 -0.04,-0.09 0.00,-0.15 0.10,-0.15 0.10,0 0.13,-0.05 0.09,-0.17 -0.05,-0.12 -0.02,-0.14 0.07,-0.08 0.10,0.06 0.12,0.03 0.06,-0.07 -0.03,-0.09 0.04,-0.26 0.16,-0.39 0.12,-0.13 0.22,-0.28 0.22,-0.34 0.01,-0.05 0.06,-0.09 0.13,-0.08 0.16,0.04 0.16,-0.14 0,-0.20 -0.08,-0.04 -0.04,-0.08 0.09,-0.13 0.18,-0.05 0.20,-0.09 0.10,-0.15 -0.09,-0.06 -0.07,-0.09 0.09,-0.09 0.13,0 0.22,-0.05 0.22,-0.15 0,-0.13 0.04,-0.14 0.20,-0.05 0.14,0.08 0.20,0.08 0.20,0 0,-0.06 -0.07,-0.13 -0.15,-0.16 -0.08,-0.04 -0.15,-0.11 -0.15,-0.16 0,-0.06 0.07,-0.07 0.15,-0.03 0.08,0.03 0.15,4.43e-4 0.15,-0.06 0,-0.03 0.01,-0.05 0.03,-0.05 z m 4.84,0.06 c 0.05,-0.00 0.10,0.02 0.10,0.08 0,0.13 -0.23,0.32 -0.37,0.32 -0.11,0 -0.11,-0.05 -0.03,-0.20 0.06,-0.12 0.20,-0.20 0.30,-0.20 z m 5.53,0.16 c 0.00,0.00 0.01,0.00 0.02,0.00 0.07,0.03 0.13,0.06 0.13,0.08 0,0.01 -0.05,0.06 -0.13,0.13 -0.10,0.08 -0.13,0.06 -0.13,-0.06 0,-0.09 0.04,-0.15 0.10,-0.15 z m -14.33,0.24 c 0.03,-0.01 0.04,0.03 -0.00,0.14 -0.03,0.09 -0.08,0.14 -0.10,0.11 -0.03,-0.03 -0.01,-0.09 0.02,-0.15 0.03,-0.06 0.06,-0.09 0.08,-0.10 z m 4.12,0.01 c -0.31,1.07 0.58,0.15 0,0 z m 15.23,0.29 c -0.02,0.00 -0.08,0.05 -0.18,0.14 -0.15,0.40 0.29,-0.18 0.18,-0.14 z m -14.89,0.15 c -0.01,0.00 -0.03,0.00 -0.05,0.01 -0.27,0.44 0.29,-0.03 0.05,-0.01 z m 14.89,0.25 c -0.03,0.00 -0.07,0.05 -0.13,0.15 -0.12,0.25 0.08,0.42 -0.13,0.72 0.28,0.17 0.44,-0.92 0.26,-0.88 z m -14.69,0.32 c 0.05,-0.00 0.12,0.07 0.15,0.24 0.01,0.10 0.04,0.43 0.06,0.72 0.04,0.46 0.02,0.53 -0.14,0.53 -0.16,0 -0.17,-0.05 -0.10,-0.37 0.05,-0.20 0.06,-0.41 0.03,-0.46 -0.03,-0.06 -0.07,-0.23 -0.09,-0.39 -0.02,-0.16 0.02,-0.25 0.07,-0.26 z m -4.46,0.45 c -0.07,0.00 -0.21,0.10 -0.34,0.34 -0.52,0.62 -0.11,0.61 0.22,0.09 0.23,-0.27 0.22,-0.43 0.12,-0.43 z m 20.06,0.17 c 0.03,0.01 0.03,0.06 -0.01,0.15 -0.03,0.06 -0.11,0.11 -0.17,0.11 -0.06,0 -0.06,-0.05 0.01,-0.15 0.07,-0.08 0.13,-0.12 0.17,-0.11 z m -2.04,0.66 c 0.03,0 0.02,0.05 -0.00,0.11 -0.04,0.06 0.01,0.17 0.11,0.25 0.11,0.09 0.13,0.13 0.07,0.09 -0.07,-0.03 -0.13,-0.03 -0.13,-0.00 0,0.02 -0.03,0.12 -0.06,0.20 -0.05,0.12 -0.02,0.15 0.09,0.10 0.09,-0.03 0.16,-0.01 0.16,0.03 0,0.06 -0.07,0.09 -0.18,0.07 -0.17,-0.03 -0.19,0.02 -0.18,0.51 0,0.30 0.03,0.54 0.09,0.54 0.04,0 0.02,0.10 -0.03,0.22 -0.11,0.21 -0.11,0.22 0.05,0.09 0.09,-0.08 0.14,-0.21 0.11,-0.30 -0.03,-0.10 0.01,-0.26 0.09,-0.37 0.14,-0.18 0.14,-0.18 0.16,0.06 0.03,0.60 -0.06,1.79 -0.22,2.65 -0.06,0.35 -0.11,0.73 -0.11,0.83 0.01,0.09 -0.03,0.15 -0.08,0.12 -0.13,-0.08 -0.41,0.06 -0.34,0.17 0.03,0.05 0.12,0.06 0.19,0.03 0.07,-0.02 0.22,0.09 0.34,0.24 0.25,0.34 0.27,0.48 0.06,0.30 -0.13,-0.10 -0.15,-0.09 -0.15,0.08 0,0.12 0.04,0.24 0.12,0.28 0.06,0.04 0.08,0.03 0.04,-0.03 -0.03,-0.06 -6.65e-4,-0.09 0.09,-0.08 0.19,0.03 0.32,0.16 0.16,0.16 -0.07,0 -0.10,0.02 -0.08,0.07 0.03,0.04 -0.08,0.07 -0.23,0.07 -0.16,0.01 -0.26,-0.03 -0.24,-0.07 0.03,-0.04 -6.4e-4,-0.07 -0.05,-0.07 -0.06,0 -0.11,0.05 -0.11,0.13 0,0.07 -0.08,0.13 -0.19,0.13 -0.11,0 -0.17,-0.05 -0.14,-0.13 0.03,-0.07 0.09,-0.10 0.14,-0.06 0.05,0.03 0.09,0.00 0.09,-0.05 0,-0.05 -0.08,-0.14 -0.17,-0.20 -0.14,-0.08 -0.15,-0.13 -0.04,-0.35 0.10,-0.23 0.09,-0.29 -0.08,-0.46 -0.24,-0.24 -0.25,-0.39 -0.05,-0.88 0.08,-0.19 0.15,-0.55 0.15,-0.78 0,-0.22 0.05,-0.62 0.11,-0.87 0.06,-0.25 0.11,-0.81 0.12,-1.24 0.01,-0.42 0.05,-0.78 0.09,-0.78 0.18,0 0.19,-0.42 0.00,-0.56 -0.10,-0.09 -0.13,-0.13 -0.06,-0.10 0.06,0.04 0.14,0.02 0.18,-0.03 0.03,-0.05 0.08,-0.10 0.11,-0.10 z m -18.70,0.31 c -0.02,0.00 -0.04,0.02 -0.05,0.09 0.22,0.30 0.14,-0.10 0.05,-0.09 z m 5.06,0.00 c 0.00,-0.00 0.01,0.00 0.02,0.01 0.03,0.03 0.03,0.12 0.00,0.19 -0.03,0.08 -0.06,0.05 -0.06,-0.06 -0.00,-0.08 0.00,-0.14 0.03,-0.14 z m 15.09,0.18 c -0.01,0.00 -0.03,0.03 -0.04,0.10 0.24,0.28 0.12,-0.12 0.04,-0.10 z m -15.07,0.71 c 0.02,0 0.03,0.07 0.03,0.15 0,0.08 -0.03,0.15 -0.09,0.15 -0.05,0 -0.07,-0.07 -0.04,-0.15 0.04,-0.08 0.08,-0.15 0.10,-0.15 z m -4.87,0.35 c -0.02,0.00 -0.03,0.01 -0.04,0.03 -0.36,0.50 0.02,0.71 0.19,0.16 0.11,-0.08 -0.05,-0.20 -0.14,-0.19 z m 3.73,0.17 c 0.00,0.00 0.01,0.00 0.02,0.01 0.04,0.04 0.02,0.12 -0.03,0.18 -0.06,0.06 -0.19,0.09 -0.29,0.06 -0.16,-0.04 -0.15,-0.05 0.04,-0.06 0.12,0 0.22,-0.06 0.22,-0.13 0,-0.04 0.01,-0.06 0.04,-0.06 z m -1.16,0.08 c 0.06,0 0.09,0.04 0.08,0.12 -0.02,0.07 0.01,0.12 0.09,0.13 0.06,0 0.15,0.03 0.20,0.09 0.05,0.05 0.03,0.05 -0.03,0.01 -0.15,-0.09 -0.18,0.10 -0.03,0.19 0.06,0.04 0.07,0.12 0.03,0.18 -0.05,0.08 -0.02,0.07 0.09,-0.01 0.12,-0.10 0.17,-0.09 0.27,0.01 0.06,0.08 0.08,0.17 0.05,0.20 -0.04,0.03 -0.03,0.18 0,0.32 l 0.06,0.26 0.20,-0.23 0.19,-0.23 -0.06,0.27 c -0.04,0.18 -0.02,0.28 0.06,0.28 0.06,0 0.09,0.03 0.06,0.09 -0.04,0.05 -0.01,0.11 0.06,0.13 0.06,0.02 0.11,0.18 0.11,0.34 0,0.19 0.05,0.31 0.14,0.31 0.09,0 0.12,-0.06 0.08,-0.16 -0.05,-0.12 -0.02,-0.13 0.05,-0.05 0.06,0.06 0.08,0.19 0.03,0.28 -0.05,0.14 -0.09,0.15 -0.15,0.04 -0.06,-0.09 -0.09,-0.09 -0.09,-0.00 0,0.07 0.09,0.17 0.20,0.23 0.17,0.09 0.19,0.07 0.14,-0.07 -0.05,-0.15 -0.04,-0.16 0.05,-0.03 0.07,0.08 0.21,0.33 0.32,0.55 0.13,0.24 0.24,0.35 0.28,0.27 0.05,-0.07 0.16,0.06 0.30,0.33 0.12,0.25 0.27,0.46 0.33,0.48 0.24,0.08 -0.03,0.26 -0.49,0.33 -0.27,0.04 -0.56,0.11 -0.65,0.16 -0.13,0.07 -0.18,0.06 -0.18,-0.05 0,-0.08 0.04,-0.18 0.09,-0.21 0.13,-0.08 -0.06,-0.44 -0.28,-0.53 -0.09,-0.03 -0.28,-0.16 -0.41,-0.28 -0.14,-0.13 -0.29,-0.20 -0.34,-0.17 -0.06,0.04 -0.08,-0.06 -0.03,-0.25 0.07,-0.33 -0.22,-1.41 -0.70,-2.61 -0.27,-0.68 -0.28,-0.75 -0.14,-0.75 z m 1.05,0.31 c 0.10,-0.00 0.16,0.04 0.20,0.15 0.07,0.18 -0.00,0.34 -0.15,0.34 -0.06,0 -0.06,-0.09 -0.03,-0.20 0.04,-0.12 0.01,-0.20 -0.05,-0.20 -0.06,0 -0.08,0.03 -0.05,0.09 0.03,0.05 0.02,0.10 -0.03,0.10 -0.16,0 -0.22,-0.18 -0.09,-0.23 0.09,-0.03 0.16,-0.05 0.22,-0.06 z m 14.81,0.29 c -0.06,0 -0.14,0.05 -0.17,0.11 -0.11,0.17 0.00,0.21 0.15,0.03 0.08,-0.09 0.08,-0.15 0.02,-0.15 z m -15.32,0.12 c -0.02,0.00 -0.03,0.05 -0.03,0.14 0,0.11 0.03,0.14 0.06,0.06 0.03,-0.07 0.01,-0.16 -0.01,-0.19 -0.00,-0.01 -0.01,-0.01 -0.02,-0.01 z m 15.99,0.59 c 0.02,0 0.01,0.33 -0.03,0.73 -0.07,0.77 -0.15,1.04 -0.15,0.51 0,-0.41 0.12,-1.24 0.18,-1.24 z m 8.38,0.81 c -0.11,0 -0.14,0.06 -0.08,0.22 0.04,0.13 0.06,0.33 0.06,0.45 -0.01,0.37 0.16,0.26 0.22,-0.14 0.07,-0.41 0.03,-0.53 -0.20,-0.53 z m -23.68,0.20 c -0.01,0.00 -0.02,0.03 -0.02,0.11 0,0.09 0.05,0.20 0.10,0.23 0.13,0.08 0.13,-0.05 0,-0.25 -0.04,-0.06 -0.06,-0.09 -0.08,-0.09 z m 18.27,0.19 c -0.05,0 -0.08,0.06 -0.06,0.12 0.01,0.08 -0.10,0.14 -0.28,0.15 -0.16,0 -0.35,0.01 -0.41,0.01 -0.17,0.02 -0.12,0.31 0.05,0.32 0.12,0 0.11,0.02 -0.04,0.09 -0.15,0.06 -0.08,0.09 0.28,0.09 0.28,0.01 0.46,0.05 0.42,0.11 -0.03,0.05 -0.11,0.07 -0.18,0.04 -0.13,-0.05 -0.88,0.22 -0.88,0.31 0,0.03 0.11,0.02 0.25,0.00 0.13,-0.03 0.27,6.4e-4 0.30,0.05 0.04,0.05 0.18,0.06 0.33,0.03 0.20,-0.04 0.18,-0.01 -0.09,0.11 -0.21,0.09 -0.38,0.21 -0.38,0.26 0,0.06 0.07,0.07 0.18,0.03 0.09,-0.04 0.28,-0.10 0.42,-0.12 0.14,-0.02 0.36,-0.06 0.50,-0.09 0.25,-0.06 0.25,-0.06 -0.04,-0.13 l -0.30,-0.08 0.35,-0.00 c 0.35,-0.01 0.32,-0.15 -0.04,-0.24 -0.11,-0.03 0.02,-0.05 0.30,-0.06 l 0.50,-0.02 -0.28,-0.20 c -0.15,-0.11 -0.24,-0.25 -0.21,-0.30 0.03,-0.06 -0.08,-0.15 -0.25,-0.22 -0.17,-0.06 -0.31,-0.15 -0.31,-0.19 0,-0.04 -0.04,-0.08 -0.10,-0.08 z m 6.12,0.00 c -0.01,0 -0.03,0.02 -0.06,0.08 -0.04,0.07 -0.04,0.15 -0.01,0.18 0.09,0.09 0.19,-0.04 0.14,-0.18 -0.02,-0.05 -0.03,-0.08 -0.05,-0.08 z m 0.92,0.10 c -0.01,-6.94e-4 -0.01,0.01 0.00,0.06 0.03,0.05 4.43e-4,0.13 -0.06,0.15 -0.09,0.04 -0.10,0.06 -0.00,0.06 0.17,0.01 0.25,-0.16 0.12,-0.25 -0.02,-0.01 -0.04,-0.02 -0.05,-0.02 z m -6.79,0.23 c 0.01,0.00 0.02,0.03 0.03,0.09 0.02,0.10 4.43e-4,0.22 -0.06,0.28 -0.06,0.06 -0.06,-6.13e-4 -0.03,-0.19 0.03,-0.13 0.04,-0.19 0.06,-0.18 z m 5.93,0.04 c -0.04,0.00 -0.09,0.03 -0.12,0.09 -0.03,0.05 0.01,0.11 0.09,0.15 0.15,0.06 0.29,-0.07 0.18,-0.18 -0.04,-0.04 -0.09,-0.06 -0.14,-0.06 z m 0.84,0.11 c -0.01,0.00 -0.01,0.04 -0.01,0.11 0,0.22 -0.31,0.31 -0.64,0.19 -0.14,-0.05 -0.27,-0.08 -0.29,-0.06 -0.03,0.04 -0.76,0.04 -1.50,0.03 -0.52,-0.02 -0.91,0.04 -0.91,0.14 0,0.05 0.15,0.08 0.33,0.07 0.63,-0.04 0.94,-6.66e-4 0.80,0.09 -0.18,0.11 0.47,0.25 1.65,0.35 0.22,0.02 0.60,0.06 0.84,0.10 0.38,0.07 0.42,0.06 0.35,-0.09 -0.05,-0.15 -0.02,-0.17 0.13,-0.11 0.42,0.17 1.19,0.24 1.15,0.11 -0.02,-0.05 -0.11,-0.10 -0.19,-0.11 -0.08,-0.02 -0.31,-0.06 -0.50,-0.09 -0.19,-0.04 -0.39,-0.08 -0.45,-0.08 -0.05,-0.01 -0.16,-0.08 -0.23,-0.15 -0.07,-0.06 -0.20,-0.12 -0.28,-0.12 -0.08,0 -0.13,-0.04 -0.10,-0.08 0.02,-0.04 0.00,-0.14 -0.05,-0.22 -0.03,-0.06 -0.05,-0.09 -0.07,-0.09 z m -8.20,0.23 c -0.08,-0.00 -0.17,0.02 -0.21,0.08 -0.04,0.05 -0.03,0.12 0,0.15 0.03,0.04 0.06,0.00 0.06,-0.05 0,-0.06 0.07,-0.09 0.15,-0.06 0.08,0.04 0.15,0.02 0.15,-0.03 0,-0.06 -0.07,-0.09 -0.15,-0.09 z m -6.42,0.16 c -0.07,-0.01 -0.23,0.04 -0.32,0.15 -0.07,0.08 -0.20,0.15 -0.29,0.14 -0.11,0 -0.09,-0.03 0.06,-0.09 0.12,-0.05 0.22,-0.12 0.22,-0.15 0,-0.08 -0.23,-0.06 -0.39,0.03 -0.21,0.13 -0.02,0.33 0.25,0.27 0.13,-0.04 0.24,-0.03 0.24,0.00 0,0.11 0.95,0.13 1.01,0.03 0.03,-0.05 0.25,-0.03 0.49,0.06 0.24,0.08 0.62,0.16 0.86,0.19 l 0.42,0.05 -0.34,-0.15 c -0.18,-0.08 -0.40,-0.15 -0.47,-0.15 -0.08,0 -0.14,-0.04 -0.14,-0.08 0,-0.04 -0.08,-0.08 -0.17,-0.09 -0.10,-0.01 -0.30,-0.03 -0.46,-0.06 -0.18,-0.03 -0.25,-0.01 -0.21,0.06 0.05,0.08 -0.02,0.09 -0.26,0.05 -0.18,-0.04 -0.37,-0.07 -0.42,-0.07 -0.05,0 -0.06,-0.04 -0.03,-0.09 0.03,-0.06 0.01,-0.09 -0.03,-0.10 z M 41.23,36.70 c 0.17,0 0.30,0.03 0.30,0.09 0,0.11 -0.47,0.12 -0.54,0.00 -0.03,-0.05 0.07,-0.08 0.24,-0.09 z m 0.86,0.09 0.50,0.06 c 0.28,0.03 0.54,0.09 0.60,0.14 0.13,0.13 -0.00,0.11 -0.60,-0.06 l -0.50,-0.14 z m -4.72,0.04 c -0.10,0.00 -0.22,0.02 -0.38,0.06 -0.46,0.12 -0.30,0.29 0.24,0.26 0.32,-0.02 0.44,-0.07 0.42,-0.17 -0.02,-0.11 -0.11,-0.16 -0.28,-0.16 z m 1.04,0.01 c -0.33,0.00 -0.51,0.01 -0.55,0.04 -0.15,0.09 0.47,0.16 1.52,0.17 0.53,0.01 0.93,-0.02 0.93,-0.07 0,-0.06 -0.19,-0.11 -0.42,-0.11 -0.66,-0.02 -1.14,-0.02 -1.47,-0.02 z m -3.35,0.19 c -0.04,0.00 -0.08,0.01 -0.13,0.04 -0.20,0.12 -0.10,0.19 0.14,0.10 0.11,-0.03 0.15,-0.09 0.10,-0.13 -0.03,-0.01 -0.07,-0.02 -0.11,-0.01 z m -22.86,0.06 c -0.02,-0.00 -0.07,0.04 -0.15,0.12 -0.22,0.22 -0.23,0.32 -0.02,0.40 0.08,0.03 0.13,0.02 0.09,-0.03 -0.03,-0.05 -4.43e-4,-0.10 0.06,-0.13 0.06,-0.02 0.10,-0.12 0.08,-0.23 -0.02,-0.09 -0.03,-0.13 -0.06,-0.13 z m 9.32,0.03 c -0.01,-0.00 -0.03,0.00 -0.03,0.00 -0.03,0.03 -0.28,0.06 -0.56,0.07 -0.28,0 -0.51,0.04 -0.51,0.09 0,0.04 0.09,0.05 0.20,0.02 0.12,-0.04 0.27,-0.02 0.33,0.03 0.08,0.06 0.18,0.06 0.27,0.01 0.20,-0.13 0.33,-0.12 0.25,0 -0.04,0.06 0.08,0.09 0.29,0.09 0.21,0 0.36,-0.04 0.36,-0.12 0,-0.06 -0.03,-0.08 -0.07,-0.05 -0.03,0.04 -0.16,0.01 -0.29,-0.06 -0.09,-0.06 -0.18,-0.10 -0.23,-0.11 z m 18.89,0.02 c -0.04,-0.00 -0.09,0.00 -0.15,0.02 -0.16,0.05 -0.13,0.07 0.14,0.13 0.19,0.04 0.41,0.07 0.50,0.07 0.14,-0.01 0.14,-0.02 -0.02,-0.11 -0.09,-0.05 -0.21,-0.08 -0.26,-0.04 -0.05,0.03 -0.10,0.01 -0.13,-0.03 -0.00,-0.02 -0.03,-0.03 -0.08,-0.03 z m -15.11,0.14 c -0.05,0 -0.15,0.02 -0.33,0.08 l -0.25,0.08 0.27,0.00 c 0.15,0.01 0.30,-0.03 0.33,-0.09 0.03,-0.05 0.03,-0.08 -0.01,-0.08 z m 3.29,0.04 c -0.04,0.00 -0.07,0.01 -0.07,0.03 0,0.04 0.11,0.10 0.25,0.12 0.14,0.03 0.25,0.01 0.25,-0.02 0,-0.04 -0.11,-0.10 -0.25,-0.12 -0.07,-0.01 -0.13,-0.01 -0.18,-0.01 z m -5.95,0.03 c -0.06,0 -0.13,0.03 -0.16,0.09 -0.03,0.06 0.00,0.07 0.09,0.04 0.18,-0.07 0.21,-0.14 0.07,-0.14 z m -11.31,0.00 c -0.02,0 -0.07,0.02 -0.17,0.09 -0.13,0.08 -0.12,0.10 0.03,0.10 0.09,0 0.17,-0.05 0.17,-0.10 0,-0.06 -5.62e-4,-0.09 -0.02,-0.09 z m 27.26,0.01 c 0.06,0 0.12,0.02 0.24,0.07 0.15,0.06 0.07,0.09 -0.30,0.08 -0.39,0 -0.45,-0.02 -0.25,-0.08 0.16,-0.05 0.24,-0.07 0.30,-0.07 z m -9.15,0.01 c -0.12,4.77e-4 -0.17,0.03 -0.17,0.11 0,0.08 0.03,0.12 0.09,0.09 0.04,-0.03 0.15,0.02 0.23,0.10 0.09,0.08 0.23,0.12 0.31,0.09 0.13,-0.05 0.12,-0.08 0.01,-0.15 -0.09,-0.07 -0.03,-0.08 0.15,-0.04 0.15,0.04 0.27,0.02 0.27,-0.03 0,-0.05 -0.09,-0.10 -0.22,-0.11 -0.13,0 -0.37,-0.01 -0.55,-0.03 -0.05,-0.00 -0.10,-0.01 -0.14,-0.01 z m -6.14,0.06 c -0.14,0 -0.25,0.04 -0.25,0.10 0,0.05 0.11,0.10 0.25,0.10 0.14,0 0.25,-0.05 0.25,-0.10 0,-0.06 -0.11,-0.10 -0.25,-0.10 z m 4.03,0.00 c 0.15,0.00 0.41,0.04 0.53,0.09 0.14,0.07 0.08,0.08 -0.20,0.03 -0.22,-0.03 -0.42,-0.07 -0.44,-0.09 -0.03,-0.03 0.02,-0.04 0.11,-0.03 z m -10.39,0.04 c -0.05,-0.00 -0.09,0.01 -0.09,0.05 0,0.06 0.07,0.10 0.15,0.10 0.08,0 0.15,-0.02 0.15,-0.04 0,-0.02 -0.07,-0.05 -0.15,-0.09 -0.02,-0.00 -0.03,-0.01 -0.05,-0.01 z m 26.39,0.01 c -0.13,0.00 -0.23,0.01 -0.21,0.05 0.03,0.05 0.24,0.09 0.46,0.09 0.23,0 0.39,-0.02 0.36,-0.05 -0.05,-0.05 -0.39,-0.09 -0.62,-0.09 z m -33.37,0.00 c -0.11,0.00 -0.35,0.02 -0.62,0.05 -0.35,0.05 -0.71,0.13 -0.81,0.18 -0.11,0.07 -0.04,0.08 0.24,0.05 0.22,-0.03 0.58,-0.07 0.78,-0.09 0.35,-0.02 0.57,-0.12 0.47,-0.19 -0.00,-0.00 -0.02,-0.00 -0.06,-0.00 z m 29.79,0.13 c 0.09,0 0.16,0.03 0.16,0.09 0,0.05 -0.03,0.10 -0.09,0.10 -0.06,0 -0.13,-0.05 -0.16,-0.10 -0.03,-0.06 0.00,-0.09 0.09,-0.09 z m 0.47,0.03 c 0.10,0 0.19,0.04 0.19,0.08 0,0.04 -0.05,0.08 -0.11,0.08 -0.05,0 -0.07,0.03 -0.04,0.09 0.03,0.05 0.04,0.10 0.01,0.10 -0.03,0 -0.10,-0.08 -0.15,-0.18 -0.07,-0.14 -0.05,-0.18 0.10,-0.18 z m -20.55,0.06 c 0.06,0 0.14,0.05 0.17,0.11 0.11,0.17 -0.00,0.21 -0.15,0.04 -0.08,-0.09 -0.08,-0.15 -0.02,-0.15 z m -8.86,0.01 c -0.10,-0.00 -0.16,0.01 -0.14,0.03 0.10,0.10 0.59,0.16 0.59,0.06 0,-0.04 -0.14,-0.08 -0.32,-0.09 -0.04,-0.00 -0.08,-0.00 -0.12,-0.00 z m -0.70,0.02 c -0.10,0 -0.29,0.02 -0.62,0.07 -0.29,0.04 -0.33,0.07 -0.15,0.09 0.18,0.02 0.20,0.04 0.08,0.07 -0.10,0.02 -0.18,0.07 -0.18,0.13 0,0.04 0.09,0.06 0.20,0.03 0.11,-0.03 0.20,-0.09 0.20,-0.14 0,-0.05 0.11,-0.09 0.24,-0.09 0.14,0 0.27,-0.03 0.31,-0.09 0.03,-0.05 0.01,-0.07 -0.08,-0.07 z m 23.44,0.01 -0.08,0.23 c -0.10,0.31 -0.02,0.38 0.29,0.24 0.15,-0.07 0.25,-0.08 0.25,-0.02 0,0.06 0.04,0.10 0.10,0.10 0.05,0 0.06,-0.06 0.03,-0.14 -0.06,-0.16 -0.43,-0.17 -0.45,-0.01 -0.01,0.05 -0.04,-0.00 -0.08,-0.15 l -0.06,-0.25 z m -14.14,0.05 c 0.05,-0.00 0.08,0.02 0.08,0.07 0,0.04 -0.10,0.09 -0.22,0.09 -0.18,0.02 -0.20,-0.00 -0.08,-0.07 0.09,-0.06 0.16,-0.09 0.22,-0.09 z m 19.59,0.11 c 0.19,0 0.27,0.02 0.18,0.05 -0.10,0.02 -0.26,0.02 -0.35,0 -0.10,-0.03 -0.01,-0.05 0.17,-0.05 z M 27.72,38.05 c -0.09,0.00 -0.17,0.02 -0.21,0.04 -0.10,0.06 -0.05,0.09 0.15,0.08 0.17,0 0.46,0.02 0.65,0.06 0.23,0.05 0.32,0.04 0.25,-0.03 -0.11,-0.10 -0.56,-0.18 -0.85,-0.16 z m -0.73,0.04 c -0.05,0 -0.09,0.03 -0.09,0.09 0,0.05 0.07,0.10 0.16,0.10 0.08,0 0.12,-0.05 0.09,-0.10 -0.03,-0.06 -0.10,-0.09 -0.16,-0.09 z m -10.48,0.00 c -0.09,0 -0.16,0.03 -0.12,0.09 0.03,0.05 0.18,0.10 0.33,0.10 0.21,0 0.24,-0.02 0.12,-0.10 -0.10,-0.06 -0.23,-0.09 -0.33,-0.09 z m -0.94,0.03 c -0.17,0.00 -0.39,0.02 -0.65,0.06 -0.30,0.05 -0.59,0.06 -0.63,0.04 -0.03,-0.02 -0.09,-0.00 -0.12,0.03 -0.03,0.05 0.23,0.07 0.58,0.05 0.34,-0.01 0.78,-0.03 0.96,-0.03 0.17,0.01 0.32,-0.03 0.32,-0.08 0,-0.06 -0.17,-0.09 -0.46,-0.08 z m 1.64,0.00 c -0.09,-9.64e-4 -0.13,0.01 -0.09,0.04 0.15,0.14 0.65,0.22 0.65,0.11 0,-0.05 -0.03,-0.10 -0.07,-0.11 -0.05,0 -0.21,-0.01 -0.37,-0.03 -0.04,-0.00 -0.07,-0.00 -0.10,-0.00 z M 9.97,38.23 c -0.09,-0.00 -0.12,0.02 -0.09,0.07 0.03,0.05 0.18,0.10 0.32,0.10 0.32,0 0.25,-0.09 -0.12,-0.16 -0.04,-0.00 -0.08,-0.01 -0.11,-0.01 z m 16.14,0.17 c -0.20,0 -0.34,0.03 -0.31,0.06 0.10,0.09 0.79,0.13 0.73,0.03 -0.03,-0.05 -0.21,-0.09 -0.41,-0.09 z m 16.98,0.00 c 0.11,-0.01 0.17,0.02 0.13,0.05 -0.03,0.03 -0.12,0.03 -0.19,0.00 -0.08,-0.03 -0.05,-0.06 0.06,-0.06 z m -33.71,0.00 c -0.10,0.00 -0.16,0.02 -0.16,0.06 0,0.06 0.06,0.09 0.14,0.06 0.07,-0.03 0.48,0.03 0.92,0.15 0.89,0.23 1.08,0.26 0.86,0.10 -0.12,-0.08 -0.09,-0.10 0.13,-0.06 0.15,0.02 0.30,0.00 0.33,-0.03 0.03,-0.05 -0.19,-0.08 -0.48,-0.07 -0.29,0.01 -0.67,-0.01 -0.84,-0.06 -0.41,-0.10 -0.72,-0.14 -0.90,-0.14 z m 29.92,0 c -0.18,-0.00 -0.41,0.03 -0.41,0.09 0,0.03 0.15,0.05 0.34,0.04 0.19,0 0.32,-0.03 0.29,-0.09 -0.01,-0.03 -0.11,-0.05 -0.22,-0.05 z m -23.36,0.08 c -0.29,0 -0.52,0.04 -0.52,0.08 0,0.08 0.91,0.04 1.00,-0.03 0.02,-0.02 -0.19,-0.04 -0.47,-0.04 z m 6.07,0 c -0.29,0 -0.51,0.02 -0.48,0.05 0.07,0.08 0.88,0.09 0.96,0.02 0.03,-0.04 -0.18,-0.07 -0.47,-0.07 z m 5.36,0 c -0.09,0 -0.20,0.04 -0.23,0.10 -0.08,0.13 0.05,0.13 0.25,0 0.13,-0.08 0.13,-0.10 -0.02,-0.10 z m 0.42,0 c -0.19,0 -0.21,0.02 -0.12,0.12 0.09,0.09 0.15,0.09 0.24,0 0.09,-0.09 0.07,-0.12 -0.12,-0.12 z m 2.36,0.04 c -0.07,-0.00 -0.14,0.00 -0.17,0.03 -0.01,0.02 -0.30,0.02 -0.65,0.03 -0.34,0.01 -0.62,0.05 -0.62,0.08 0,0.04 0.19,0.06 0.43,0.05 0.23,0 0.61,-0.02 0.86,-0.02 0.23,-0.01 0.42,-0.06 0.42,-0.10 0,-0.04 -0.14,-0.07 -0.27,-0.07 z m 0.51,0.00 c -0.03,0.00 -0.06,0.02 -0.08,0.05 -0.04,0.06 0.03,0.09 0.14,0.09 0.25,0 0.27,-0.05 0.06,-0.13 -0.04,-0.02 -0.08,-0.02 -0.12,-0.02 z m -12.58,0.06 c 0.17,0 0.24,0.02 0.18,0.05 -0.07,0.02 -0.21,0.02 -0.30,0 -0.10,-0.03 -0.04,-0.05 0.12,-0.05 z m 5.92,0 c -0.07,0 -0.41,0.04 -0.76,0.07 -0.40,0.04 -0.70,0.12 -0.81,0.24 -0.17,0.17 -0.15,0.18 0.61,0.16 0.43,-0.01 0.81,-0.06 0.84,-0.11 0.03,-0.04 0.16,-0.05 0.29,-0.03 0.14,0.03 0.27,-6.4e-4 0.30,-0.05 0.04,-0.05 0.12,-0.09 0.18,-0.09 0.09,0 0.09,0.02 0.01,0.08 -0.07,0.04 0.21,0.06 0.62,0.06 0.41,0.01 0.75,-0.01 0.75,-0.04 0,-0.04 -0.06,-0.07 -0.12,-0.08 -0.74,-0.04 -1.55,-0.14 -1.59,-0.17 -0.02,-0.03 -0.11,0.00 -0.19,0.07 -0.13,0.09 -0.14,0.09 -0.08,-0.00 0.04,-0.07 0.02,-0.11 -0.06,-0.10 z m -7.45,0.17 c -0.03,5.56e-4 -0.06,0.00 -0.09,0.01 -0.17,0.06 -0.15,0.08 0.09,0.08 0.23,0.01 0.27,0.05 0.23,0.21 -0.03,0.11 -0.01,0.20 0.03,0.20 0.05,0 0.09,-0.05 0.09,-0.11 0,-0.05 0.03,-0.08 0.09,-0.04 0.05,0.03 0.12,0.02 0.15,-0.03 0.07,-0.12 -0.35,-0.33 -0.60,-0.32 z m -0.55,0.00 c -0.05,0 -0.09,0.04 -0.09,0.10 0,0.05 0.07,0.09 0.16,0.09 0.08,0 0.12,-0.04 0.09,-0.09 -0.03,-0.06 -0.09,-0.10 -0.16,-0.10 z m 10.27,0.02 c -0.06,0.00 -0.10,0.02 -0.10,0.05 0,0.10 0.71,0.25 0.80,0.17 0.07,-0.08 -0.02,-0.13 -0.41,-0.20 -0.11,-0.02 -0.21,-0.02 -0.27,-0.02 z m -4.40,0.00 c -0.29,0.00 -0.64,0.03 -0.83,0.07 -0.13,0.04 -0.26,0.03 -0.29,0.00 -0.03,-0.03 -0.06,0.00 -0.06,0.07 0,0.13 1.50,0.04 1.66,-0.10 0.05,-0.04 -0.18,-0.06 -0.47,-0.05 z m -15.65,0.03 c 0.14,-0.00 0.18,0.02 0.12,0.07 -0.02,0.03 -0.28,0.07 -0.58,0.09 -0.66,0.06 -0.60,-0.04 0.06,-0.13 0.17,-0.02 0.30,-0.03 0.39,-0.03 z m 0.43,0.05 c 0.14,0 0.19,0.02 0.13,0.05 -0.07,0.02 -0.19,0.02 -0.25,0 -0.07,-0.03 -0.02,-0.05 0.12,-0.05 z m 8.89,0 c -0.16,0 -0.41,0.03 -0.55,0.05 -0.14,0.03 -0.29,0.09 -0.34,0.13 -0.10,0.10 0.50,0.03 0.95,-0.11 0.24,-0.07 0.24,-0.07 -0.05,-0.07 z m 4.72,0 c -0.16,0.01 -0.30,0.05 -0.30,0.09 0,0.04 0.14,0.07 0.30,0.07 0.17,-0.01 0.30,-0.05 0.30,-0.09 0,-0.04 -0.13,-0.07 -0.30,-0.07 z m 2.54,0 c 0.14,0 0.19,0.02 0.13,0.05 -0.07,0.02 -0.19,0.02 -0.25,0 -0.07,-0.03 -0.01,-0.05 0.12,-0.05 z m -11.71,0.09 c -0.03,0 -0.07,0.03 -0.17,0.09 -0.12,0.08 -0.10,0.09 0.08,0.09 0.13,0 0.20,-0.03 0.17,-0.09 -0.03,-0.06 -0.05,-0.09 -0.08,-0.09 z m 17.65,0 c 0.11,-0.01 0.17,0.02 0.13,0.05 -0.03,0.03 -0.11,0.04 -0.19,0.01 -0.08,-0.03 -0.05,-0.06 0.06,-0.06 z m 0.51,0.01 c 0.17,0 0.24,0.02 0.18,0.05 -0.07,0.02 -0.21,0.02 -0.30,0 -0.10,-0.03 -0.04,-0.05 0.12,-0.05 z m 0.72,0.00 c 0.07,0 0.10,0.06 0.07,0.14 -0.03,0.07 -0.08,0.13 -0.12,0.13 -0.04,0 -0.08,-0.06 -0.08,-0.13 0,-0.08 0.05,-0.14 0.13,-0.14 z m 0.39,0 c 0.08,0 0.15,0.06 0.15,0.14 0,0.07 -0.10,0.13 -0.22,0.12 -0.13,0 -0.17,-0.03 -0.10,-0.06 0.06,-0.02 0.10,-0.08 0.08,-0.12 -0.03,-0.04 0.00,-0.08 0.09,-0.08 z m -13.99,0.07 c -0.16,0 -0.28,0.01 -0.28,0.03 0,0.10 0.28,0.13 0.41,0.05 0.10,-0.06 0.07,-0.09 -0.13,-0.09 z m 5.57,0 c -0.09,-0.00 -0.16,0.03 -0.16,0.11 0,0.06 -0.09,0.09 -0.20,0.06 -0.11,-0.03 -0.20,-0.01 -0.20,0.03 0,0.09 0.03,0.10 0.55,0.14 0.17,0.01 0.42,0.05 0.59,0.08 0.20,0.06 0.27,0.04 0.27,-0.06 0,-0.09 -0.07,-0.13 -0.20,-0.11 -0.11,0.02 -0.26,-0.03 -0.34,-0.11 -0.08,-0.08 -0.20,-0.13 -0.29,-0.14 z m 19.32,0 c -0.23,0 -0.38,0.02 -0.35,0.06 0.11,0.10 0.89,0.12 0.82,0.02 -0.03,-0.05 -0.24,-0.09 -0.46,-0.09 z m 2.72,0.00 c -0.03,0.00 -0.06,0.02 -0.06,0.06 0.01,0.25 0.67,0.40 0.87,0.20 0.04,-0.04 -0.07,-0.06 -0.24,-0.06 -0.17,0 -0.34,-0.05 -0.37,-0.10 -0.04,-0.07 -0.13,-0.10 -0.19,-0.09 z m -3.23,0.00 c -0.02,0.01 -0.13,0.04 -0.25,0.06 -0.13,0.02 -0.23,0.08 -0.23,0.12 0,0.05 0.11,0.06 0.25,0.03 0.14,-0.02 0.25,-0.08 0.25,-0.13 0,-0.05 -0.01,-0.08 -0.02,-0.08 z m -11.07,0.00 c 0.01,-0.01 0.02,0.02 0.02,0.08 0,0.05 -0.21,0.09 -0.47,0.08 l -0.48,-0.00 0.45,-0.07 c 0.25,-0.04 0.46,-0.08 0.48,-0.08 z m -26.72,0.08 c -0.34,0 -0.59,0.02 -0.57,0.05 0.10,0.09 1.21,0.13 1.21,0.03 0,-0.05 -0.28,-0.09 -0.63,-0.09 z m 25.71,0.01 c 0.02,0 0.00,0.02 -0.03,0.08 -0.03,0.05 -0.14,0.10 -0.23,0.09 -0.14,0 -0.13,-0.01 0.03,-0.09 0.13,-0.05 0.20,-0.08 0.23,-0.08 z m 3.99,0.09 c -0.04,4.77e-4 -0.09,0.00 -0.14,0.00 -0.20,0.01 -0.37,0.04 -0.37,0.09 0,0.08 0.59,0.02 0.69,-0.06 0.03,-0.02 -0.04,-0.04 -0.16,-0.03 z m 4.76,0.10 c 0.14,0 0.19,0.02 0.13,0.05 -0.07,0.02 -0.19,0.02 -0.25,0 -0.07,-0.03 -0.02,-0.05 0.12,-0.05 z m -6.65,0.11 c -0.08,0 -0.12,0.03 -0.09,0.09 0.03,0.04 0.09,0.08 0.15,0.08 0.05,0 0.09,-0.04 0.09,-0.08 0,-0.05 -0.07,-0.09 -0.15,-0.09 z m -19.03,0.07 c 0.04,0 0.08,0.03 0.08,0.09 0,0.05 0.07,0.10 0.15,0.10 0.08,0 0.15,0.04 0.15,0.08 0,0.05 0.11,0.14 0.25,0.22 0.14,0.07 0.25,0.17 0.25,0.22 0,0.05 -0.03,0.07 -0.09,0.03 -0.06,-0.03 -0.14,0.03 -0.20,0.12 -0.09,0.17 -0.11,0.17 -0.28,-0.01 -0.10,-0.10 -0.13,-0.16 -0.08,-0.13 0.06,0.03 0.17,0.01 0.25,-0.04 0.13,-0.07 0.12,-0.09 -0.02,-0.09 -0.10,0 -0.18,-0.05 -0.18,-0.10 0,-0.06 -0.02,-0.09 -0.06,-0.09 -0.21,0.03 -0.29,-0.02 -0.29,-0.21 0,-0.11 0.03,-0.20 0.07,-0.20 z m 4.18,0.00 c 0.11,-0.01 0.17,0.02 0.13,0.05 -0.03,0.03 -0.12,0.03 -0.19,0.00 -0.08,-0.03 -0.05,-0.06 0.06,-0.06 z m -0.77,0.05 c 0.18,0.00 0.24,0.05 0.14,0.15 -0.06,0.06 -0.21,0.12 -0.34,0.13 -0.13,0.01 -0.26,0.03 -0.30,0.04 -0.03,0 -0.04,0.10 -0.01,0.21 0.04,0.15 0.11,0.18 0.33,0.14 0.15,-0.04 0.30,-0.02 0.33,0.03 0.07,0.10 -0.50,0.10 -0.75,-0.00 -0.14,-0.06 -0.15,-0.12 -0.06,-0.36 0.08,-0.22 0.19,-0.30 0.42,-0.32 0.09,-0.01 0.17,-0.01 0.23,-0.01 z m 5.39,0.00 c -0.35,-0.00 -0.77,0.00 -1.18,0.03 -1.52,0.09 -1.19,0.18 0.55,0.14 l 1.60,-0.04 -0.91,0.19 c -1.08,0.24 -1.30,0.32 -0.62,0.24 0.33,-0.04 0.46,-0.01 0.41,0.05 -0.04,0.08 0.22,0.09 0.93,0.05 0.54,-0.03 1.44,-0.06 1.99,-0.06 0.57,-0.01 0.98,-0.06 0.98,-0.12 0,-0.10 -0.51,-0.11 -1.90,-0.03 -0.40,0.03 -0.71,0.01 -0.69,-0.02 0.04,-0.06 0.60,-0.12 1.44,-0.14 0.23,-0.01 0.45,-0.05 0.50,-0.09 0.04,-0.05 -0.41,-0.05 -1.01,-0.03 -0.59,0.03 -1.08,0.01 -1.08,-0.03 0,-0.07 -0.43,-0.12 -1.02,-0.12 z m 7.92,0.02 c -0.10,0.00 -0.19,0.03 -0.23,0.08 -0.03,0.05 0.06,0.11 0.19,0.14 0.25,0.04 0.40,-0.04 0.28,-0.17 -0.04,-0.04 -0.14,-0.06 -0.24,-0.05 z M 27.96,39.76 c -0.08,0 -0.12,0.03 -0.09,0.09 0.03,0.05 0.10,0.06 0.15,0.03 0.13,-0.09 0.10,-0.12 -0.06,-0.12 z m 12.74,0.03 c -0.17,0.00 -0.29,0.03 -0.29,0.06 0,0.08 0.03,0.09 0.86,0.13 1.24,0.06 2.23,0.17 2.60,0.29 0.31,0.11 0.41,0.11 0.49,0.01 0.15,-0.18 0.04,-0.23 -0.53,-0.23 -0.26,-0.01 -0.52,-0.04 -0.57,-0.07 -0.09,-0.06 -1.16,-0.14 -2.35,-0.19 -0.06,-0.00 -0.13,-0.00 -0.19,0 z M 6.58,39.95 c 0.20,0 0.39,0.02 0.39,0.09 0,0.05 -0.24,0.09 -0.52,0.09 -0.34,0 -0.48,-0.02 -0.39,-0.09 0.09,-0.06 0.32,-0.09 0.52,-0.09 z M 31.57,40.08 c -0.00,6.95e-4 -0.01,0.00 -0.02,0.00 -0.07,0.02 -0.55,0.06 -1.08,0.09 -1.17,0.07 -1.24,0.08 -1.48,0.26 -0.11,0.09 -0.15,0.10 -0.10,0.02 0.11,-0.19 -0.31,-0.30 -1.34,-0.34 -0.51,-0.01 -0.94,-0.02 -0.95,-0.01 -0.01,0.01 -0.47,0.03 -1.02,0.06 -0.81,0.03 -1.03,0.06 -1.13,0.22 -0.11,0.15 -0.26,0.17 -0.92,0.15 -1.54,-0.05 -1.96,-0.03 -1.96,0.11 0,0.06 0.23,0.09 0.59,0.08 0.57,-0.02 4.73,0.08 6.24,0.14 0.42,0.02 0.78,-6.39e-4 0.78,-0.05 0,-0.04 -0.21,-0.09 -0.47,-0.10 -0.79,-0.03 -1.55,-0.05 -2.40,-0.08 -0.43,-0.02 -0.93,-0.05 -1.11,-0.09 l -0.31,-0.08 0.30,-0.02 c 0.17,-0.02 0.41,-0.04 0.55,-0.06 0.40,-0.08 2.31,-0.11 2.74,-0.06 0.22,0.03 0.38,0.10 0.37,0.17 -0.01,0.06 0.09,0.12 0.22,0.14 0.16,0.03 0.21,-0.00 0.16,-0.09 -0.06,-0.08 -0.03,-0.09 0.04,-0.04 0.07,0.05 0.10,0.14 0.06,0.21 -0.03,0.08 0.03,0.16 0.12,0.18 0.34,0.08 2.91,0.09 2.83,0 -0.08,-0.07 -0.69,-0.11 -2.17,-0.12 -0.33,-0.01 -0.45,-0.06 -0.55,-0.22 -0.11,-0.21 -0.09,-0.22 0.42,-0.16 0.33,0.04 0.46,0.02 0.34,-0.02 -0.13,-0.06 0.01,-0.08 0.47,-0.07 0.36,0 0.65,0.04 0.63,0.08 -0.03,0.05 0.02,0.08 0.13,0.09 0.37,0.02 0.90,0.08 1.24,0.15 0.54,0.11 0.71,0.11 0.77,0.03 0.02,-0.04 0.14,-0.06 0.27,-0.03 0.12,0.03 0.45,0.07 0.73,0.08 0.80,0.05 1.67,0.18 1.67,0.25 0,0.06 -0.20,0.06 -2.10,0 -0.57,-0.01 -1.06,-2.21e-4 -1.09,0.03 -0.06,0.05 1.01,0.10 2.81,0.12 0.38,0.01 0.65,-0.03 0.61,-0.08 -0.03,-0.05 0.02,-0.07 0.11,-0.03 0.14,0.05 0.15,0.03 0.05,-0.12 -0.12,-0.19 -0.86,-0.31 -2.03,-0.31 -0.31,0 -0.61,-0.05 -0.64,-0.10 -0.04,-0.07 -0.13,-0.07 -0.26,0 -0.18,0.10 -0.52,0.08 -1.20,-0.05 -0.14,-0.03 -0.40,-0.05 -0.59,-0.06 -0.22,-0.01 -0.31,-0.05 -0.28,-0.14 0.02,-0.06 0.00,-0.10 -0.04,-0.09 z M 18.17,40.09 c -0.20,0.00 -0.35,0.02 -0.37,0.05 -0.04,0.07 0.81,0.14 1.00,0.08 0.01,0 0.14,0.03 0.29,0.09 0.17,0.06 0.30,0.07 0.33,0.01 0.03,-0.05 -0.04,-0.12 -0.17,-0.15 -0.27,-0.06 -0.75,-0.09 -1.08,-0.09 z m 18.44,0 c 0.12,0.00 0.26,0.02 0.31,0.07 0.03,0.04 -0.05,0.06 -0.20,0.06 -0.14,0 -0.28,-0.04 -0.31,-0.08 -0.02,-0.04 0.07,-0.06 0.19,-0.06 z m 3.66,0.00 c -0.08,0 -0.18,0.00 -0.28,0.01 -0.52,0.04 -0.49,0.22 0.04,0.23 1.22,0.05 2.39,0.18 2.64,0.31 0.09,0.05 0.22,0.06 0.28,0.02 0.07,-0.04 -0.01,-0.12 -0.21,-0.20 -0.31,-0.13 -0.59,-0.18 -1.75,-0.29 -0.27,-0.03 -0.51,-0.05 -0.55,-0.06 -0.02,-0.01 -0.07,-0.01 -0.16,-0.01 z m -19.01,0.05 c 0.17,0 0.24,0.02 0.18,0.05 -0.07,0.02 -0.21,0.02 -0.30,0 -0.10,-0.03 -0.04,-0.05 0.12,-0.05 z m -5.68,0.01 c 0.33,0 0.48,0.01 0.33,0.03 -0.15,0.02 -0.42,0.02 -0.61,0 -0.18,-0.02 -0.05,-0.03 0.27,-0.03 z m -4.93,0.01 c 0.01,0.00 0.04,0.01 0.06,0.02 0.14,0.05 0.14,0.07 0.01,0.14 -0.22,0.12 -1.83,0.21 -1.76,0.10 0.05,-0.08 0.52,-0.12 1.41,-0.12 0.09,0 0.17,-0.03 0.17,-0.09 0,-0.03 0.03,-0.06 0.09,-0.05 z m 9.35,0.37 c -0.81,0.00 -1.82,0.03 -2.64,0.07 -0.50,0.03 -0.81,0.08 -0.73,0.13 0.07,0.05 0.82,0.05 1.67,0.02 0.85,-0.04 1.89,-0.08 2.33,-0.08 0.42,-0.01 0.78,-0.05 0.78,-0.09 0,-0.04 -0.60,-0.06 -1.42,-0.06 z m 17.19,0.13 c -0.14,0.00 -0.26,0.02 -0.28,0.07 -0.10,0.16 0.03,0.21 0.63,0.22 0.36,0 0.58,-0.03 0.62,-0.12 0.02,-0.07 -0.06,-0.11 -0.20,-0.13 -0.12,0 -0.40,-0.02 -0.62,-0.04 -0.05,-0.00 -0.10,-0.00 -0.14,0 z m 1.92,0.05 c -0.24,0.00 -0.44,0.03 -0.47,0.09 -0.07,0.11 -0.07,0.11 0.61,0.15 0.28,0.01 0.55,0.03 0.60,0.05 0.25,0.06 0.37,-0.00 0.26,-0.13 -0.08,-0.10 -0.60,-0.17 -1.00,-0.16 z m -27.73,0.09 c -0.28,0 -0.34,0.03 -0.23,0.10 0.20,0.13 0.47,0.13 0.55,0 0.04,-0.06 -0.09,-0.10 -0.32,-0.10 z m 29.65,0.10 c -0.12,0 -0.21,0.01 -0.21,0.03 0,0.09 0.30,0.14 0.35,0.06 0.04,-0.06 -0.03,-0.10 -0.14,-0.10 z" />
</svg>
