<?xml version="1.0" encoding="UTF-8" standalone="no"?>
<!-- Created with Inkscape (http://www.inkscape.org/) -->
<svg xmlns:dc="http://purl.org/dc/elements/1.1/" xmlns:cc="http://creativecommons.org/ns#" xmlns:rdf="http://www.w3.org/1999/02/22-rdf-syntax-ns#" xmlns:svg="http://www.w3.org/2000/svg" xmlns="http://www.w3.org/2000/svg" version="1.1" width="100%" height="100%" viewBox="0 0 48 48" id="svg2">
<defs id="defs4" />
<path d="M 13.89,33.50 C 11.81,33.44 9.73,33.22 7.71,32.69 5.60,32.29 3.53,31.16 2.23,29.44 1.48,28.02 1.54,26.19 2.68,24.98 4.12,23.49 6.39,23.18 7.78,21.62 c 1.08,-1.13 2.46,-2.11 3.98,-2.52 1.68,-0.33 3.29,0.21 4.96,0.14 1.43,0.02 2.76,-1.12 4.13,-0.92 0.54,0.11 3.05,-0.48 1.24,-0.23 -1.25,-0.31 -2.33,-1.83 -0.96,-2.82 0.94,-1.08 1.84,-2.56 3.45,-2.61 1.93,-0.28 3.87,-0.66 5.82,-0.39 1.71,-0.07 3.20,0.90 4.66,1.65 1.40,1.04 3.01,1.98 3.79,3.63 1.22,1.79 1.70,3.94 2.13,6.03 0.65,1.54 1.05,3.20 1.74,4.72 0.79,1.14 2.74,0.63 3.15,2.11 0.23,1.33 -1.49,2.48 -2.58,2.68 -1.43,0.23 -2.94,-0.21 -3.17,-1.86 -1.05,-1.36 -2.95,-1.60 -4.15,-2.82 -1.36,-0.49 -2.32,-2.26 -3.75,-2.2 -2.23,0.76 -4.51,1.48 -6.90,1.54 -1.92,0.38 -3.90,0.16 -5.84,0.10 -1.66,-0.13 -3.52,-0.47 -4.92,0.67 1.24,-0.78 3.43,1.74 1.78,2.05 -0.21,-0.48 -1.55,-1.91 -0.20,-0.94 0.64,1.52 0.57,-0.34 -0.41,-0.63 -1.08,-0.28 -3.31,-0.39 -3.97,-0.04 -0.58,0.88 -1.01,-0.07 -0.42,-0.29 -1.39,-0.32 1.55,-0.48 1.68,-1.14 0.67,-1.60 1.73,0.50 0.26,0.66 -0.98,-0.29 -1.19,0.53 -0.05,0.19 0.95,-0.45 2.23,-0.02 2.54,-1.51 0.67,-0.30 -0.02,1.48 1.02,0.42 1.02,-0.45 -0.37,0.50 1.10,0.22 0.54,-0.07 0.89,-1.31 1.07,-0.01 1.58,0.69 0.11,-0.81 0.46,-1.16 0.79,0.83 1.95,1.46 3.11,1.34 0.80,-0.08 3.02,-0.10 2.96,-0.34 -0.84,-0.16 0.94,-0.97 1.24,-1.17 1.44,-0.25 -1.35,1.80 0.18,1.03 0.63,-0.07 3.14,-0.45 2.62,-0.60 -0.91,0.39 -2.11,0.16 -0.61,-0.42 0.60,-1.57 1.63,-0.55 2.36,0.05 1.10,-0.33 0.61,-0.23 0.04,-0.54 -0.79,-2.14 1.81,0.90 2.54,0.46 0.83,0.30 0.41,1.38 1.01,0.15 0.40,-0.21 1.09,0.86 1.32,-0.26 1.57,-0.05 0.32,2.22 -0.21,0.61 -0.72,0.45 -1.08,1.08 -0.12,0.92 0.16,1.42 0.64,-1.04 1.15,0.42 0.45,1.17 -1.26,-0.43 -0.32,0.62 0.79,0.00 1.20,0.85 1.72,0.50 -0.85,-0.18 -1.59,-2.29 -0.24,-1.06 1.28,0.52 0.20,1.66 1.49,2.30 0.92,0.11 1.12,2.90 1.75,1.96 0.49,1.10 0.21,-0.11 0.54,0.01 -0.01,1.16 1.10,-0.31 -0.02,-0.61 -0.52,-1.31 0.79,0.85 1.09,1.06 0.18,-0.62 0.91,0.29 0.25,-0.75 1.10,0.96 0.20,-0.49 0.27,-0.49 0.35,0.27 1.28,1.19 0.64,0.12 1.01,0.31 -0.57,-1.38 -1.08,-0.51 -0.79,-1.03 2.24,0.15 0.46,-0.68 -1.17,-0.34 -2.67,-0.73 -3.46,-1.96 -0.45,1.01 -0.98,-0.40 -0.73,-0.73 -0.13,-0.71 -1.92,-0.01 -0.76,-0.76 -0.52,-0.42 -1.07,-0.81 -1.29,-1.67 -0.73,-0.37 -1.59,-1.25 -1.87,-1.67 -0.25,-0.39 -0.50,-0.86 0.23,-0.16 0.96,0.46 -2.46,-2.23 -0.82,-1.77 0.42,0.56 1.41,2.57 1.42,0.72 0.31,-1.59 0.39,-0.15 0.72,0.43 0.30,-0.60 1.13,-2.43 0.65,-0.66 -0.71,1.13 0.43,2.93 1.20,3.26 0.01,0.65 0.47,1.71 1.02,2.58 1.14,0.83 2.14,1.81 3.63,2.02 1.19,-0.00 1.23,2.87 1.92,0.86 0.03,-0.72 -1.83,-1.28 -0.20,-0.80 -0.44,-0.90 -2.50,-0.37 -2.63,-1.04 1.15,0.48 -0.78,-1.72 -0.79,-0.76 -0.78,-0.04 -0.21,-0.68 0.22,-0.52 -0.29,-0.52 -0.45,-2.59 -1.30,-1.45 -0.18,-0.69 -0.26,-1.06 0.36,-1.20 -0.14,-0.55 -1.96,-0.38 -1.27,-1.39 0.93,0.51 1.12,-0.53 0.43,-0.69 -0.98,-0.04 0.55,-1.11 -0.55,-1.39 0.22,-0.69 0.29,-1.54 -0.57,-1.73 0.35,-0.58 -0.04,-2.05 -0.47,-0.97 -0.78,-0.60 0.60,-1.34 -0.55,-1.96 -0.29,-0.72 -0.91,1.30 -1.08,-0.06 0.78,-0.46 -0.17,-1.61 -0.10,-0.27 -0.46,-0.60 -0.70,-2.14 -2.07,-1.87 0.08,-1.09 -0.96,-1.17 -1.56,-0.82 -0.41,-1.28 -1.57,-1.00 -1.78,-0.19 0.33,-1.36 -2.03,-1.62 -1.62,-0.50 -0.89,-0.27 0.45,-0.86 -0.80,-0.81 -1.66,-0.13 -3.30,0.38 -4.95,0.56 -0.70,0.48 -1.33,0.54 -1.45,1.37 -0.90,0.11 -2.55,2.12 -1.54,2.49 1.09,-1.50 -0.61,0.91 0.93,0.70 1.52,0.21 0.50,-0.21 0.23,-0.52 1.20,-0.17 0.52,-0.62 -0.28,-0.36 1.28,-0.68 2.26,0.78 3.64,0.82 -0.86,0.03 -3.61,-1.10 -1.55,0.13 2.06,1.63 -2.61,-1.67 -0.58,0.12 0.76,-0.31 0.84,0.88 0.21,0.76 0.79,0.95 1.44,-0.66 1.75,0.04 0.40,-0.64 1.35,-1.11 0.69,-0.05 0.19,0.49 0.51,-0.75 0.45,0.23 0.60,0.14 1.95,0.35 0.86,-0.22 0.64,-0.76 1.70,-1.67 0.91,-0.10 -0.76,1.01 1.85,0.37 2.55,0.60 0.78,-0.73 1.34,0.42 0.04,0.23 -0.44,0.36 0.86,0.78 -0.24,0.60 -0.18,0.26 -0.96,-0.36 -0.61,0.59 -1.26,1.35 0.25,-1.57 -1.40,-1.19 -0.58,0.30 -0.76,0.68 -0.99,-0.03 -1.60,-0.10 0.16,1.92 -0.32,2.81 0.19,1.86 -0.41,-0.57 -0.75,-0.81 0.68,-1.19 -0.44,-1.10 -0.13,-2.24 -1.41,-0.33 -3.12,0.46 -4.00,1.56 0.06,-0.70 -0.63,-1.87 -1.08,-2.07 -0.79,0.14 -0.99,1.40 -1.65,0.29 -1.29,-0.37 -1.63,1.01 -2.11,1.56 -0.53,-1.27 -2.65,-0.72 -3.82,-1.10 -1.60,-0.14 -3.45,0.04 -3.94,1.68 -0.36,1.04 -1.42,-0.56 -1.83,0.81 -0.12,0.57 0.35,1.74 -0.59,0.84 -0.98,-0.17 -0.95,1.90 -2.07,0.96 -1.16,0.25 -1.43,0.76 -1.33,1.73 -0.61,-1.07 -2.15,0.80 -0.87,0.12 1.06,0.21 1.94,0.74 2.72,0.84 -0.18,1.14 1.21,1.70 0.60,2.66 0.07,1.14 1.78,0.75 1.53,0.00 -0.09,-1.04 1.43,-0.28 0.27,0.16 0.44,0.48 2.27,1.23 1.23,0.20 0.58,-0.07 1.28,1.32 1.48,0.31 0.47,0.80 0.87,-0.57 1.15,0.40 0.94,0.01 2.03,1.06 2.76,0.56 -0.82,-1.12 0.00,-1.07 0.44,-0.04 1.22,-0.32 0.33,0.37 -0.27,0.47 -1.49,0.19 -2.80,-1.04 -4.36,-0.86 -1.26,0.01 -2.54,-0.06 -3.81,-0.05 -1.43,-0.59 -0.54,-2.05 -1.16,-3.04 -1.02,-1.11 -1.39,1.94 -0.46,2.54 1.46,1.60 3.76,1.79 5.75,2.28 2.44,0.19 4.93,0.44 7.36,-0.02 1.07,-0.44 4.13,-0.83 3.57,1.04 -1.49,0.63 -3.08,0.02 -4.64,0.31 -1.16,-0.02 -2.45,0.20 -3.51,0.21 z m 0.41,-0.29 c 0.07,-1.00 1.89,0.54 1.01,-0.47 -0.45,-0.58 -1.69,-0.01 -1.91,0.02 0.10,0.45 0.23,0.70 0.90,0.45 z m -1.66,-0.18 c 0.65,-1.11 -1.77,0.19 -2.29,-0.83 -1.89,0.28 0.75,-0.04 0.88,0.91 0.33,-0.04 1.32,0.29 1.41,-0.08 z m 8.12,0.07 c 0.10,-0.68 -1.21,-0.18 -1.39,-1.01 -1.05,-0.41 -1.21,1.48 -1.83,0.25 C 15.79,32.15 17.35,33.61 18.34,32.93 c 0.80,-0.17 1.64,0.31 2.42,0.16 z m 0.81,-0.16 c 0.28,-0.33 -0.68,0.17 0,0 z M 8.84,32.64 C 8.60,31.32 7.26,31.29 6.26,31.27 5.69,30.86 5.23,29.13 4.67,30.43 4.38,31.50 6.15,30.96 6.05,31.96 7.02,32.68 6.98,32.14 7.55,31.57 8.44,31.68 7.75,33.05 8.84,32.64 z m 11.74,-0.48 c -0.01,-0.22 -0.24,0.11 0,0 z M 5.32,31.57 c -0.41,-0.22 0.25,0.27 0,0 z m 38.53,-1.26 c -0.11,-0.22 -0.16,0.06 0,0 z M 3.65,29.50 C 4.53,29.03 4.55,27.84 4.45,26.90 4.49,25.55 3.57,26.93 2.82,26.14 1.79,26.25 1.94,27.99 2.32,28.29 c 1.06,-0.69 1.65,1.09 0.39,0.91 -0.54,0.51 0.94,0.61 0.93,0.30 z M 3.76,27.98 C 2.75,28.08 2.00,26.81 3.38,26.80 3.94,26.68 4.55,28.03 3.76,27.98 z m 35.06,-1.39 c -0.47,-0.79 -1.31,-3.68 -2.28,-2.53 0.75,0.83 1.55,1.74 2.28,2.53 z m -6.44,-0.91 c -0.03,-0.71 -0.26,0.54 0,0 z m 8.89,-0.09 c -0.21,-0.44 -0.31,0.26 0,0 z m -0.94,-1.50 c -0.03,-0.36 -0.39,0.13 0,0 z M 40.22,22.52 c -0.07,-0.10 -0.07,0.10 0,0 z M 23.51,19.44 c 0.42,-1.18 -0.27,-0.63 -1.23,-0.78 -0.30,0.76 0.75,0.94 1.23,0.78 z m 0.41,-0.11 c 0.12,-0.23 -0.36,0.18 0,0 z m -0.65,-0.89 c 0.91,-0.34 -0.09,-0.72 -0.44,-0.04 -0.75,1.95e-4 -0.21,0.24 0.44,0.04 z m 19.96,13.05 c -1.35,-0.20 -0.65,-0.82 0,0 z M 41.4,31.08 c -0.13,-0.88 0.75,0.06 0,0 z M 40.57,30.88 c -0.08,-0.64 0.44,0.43 0,0 z m 1.84,0 c -0.21,-0.71 1.03,-0.04 0,0 z m 2.39,-0.12 c -0.71,-0.70 0.58,0.06 0,0 z m -3.79,-0.34 c -0.43,-0.74 0.91,-0.08 0,-10e-4 l 0,10e-4 z m 0.77,-0.03 c -0.32,-0.83 0.85,0.17 0,0 z m -2.17,-0.42 c -0.05,-0.42 0.32,0.11 0,0 z m 0.66,-0.10 c -0.72,-1.33 1.48,0.12 -10e-4,0 l 10e-4,0 z M 12.30,29.51 c -0.63,-1.11 1.25,-0.11 0,0 z M 10.12,29.24 C 9.63,28.94 8.27,29.39 9.46,28.58 c 0.32,0.59 1.92,-0.24 0.78,0.71 l -0.12,-0.05 -0.00,10e-4 z M 7.51,29.20 C 6.38,28.13 7.57,27.97 7.83,29.08 7.75,29.15 7.61,29.38 7.51,29.20 z M 42.01,29.19 c -0.21,-1.10 0.76,0.05 0,0 z M 7.68,28.37 c -0.42,-1.08 1.29,0.17 0,0 z M 9.06,28.31 C 7.70,27.97 10.24,27.38 9.92,26.43 10.42,25.60 11.43,27.40 10.46,27.27 c -1.17,0.56 0.11,1.23 0.36,0.02 0.99,-0.76 1.24,1.42 -0.19,1.04 C 9.98,28.13 9.70,28.45 9.06,28.31 z m 31.48,-0.28 c -0.77,-0.92 1.26,-0.18 0,0 z M 8.25,27.83 C 6.92,27.18 8.91,25.45 9.42,26.82 9.03,27.05 8.73,28.03 8.25,27.83 z M 7.15,27.77 c -0.67,-1.36 1.35,-0.16 0,0 z m 7.17,-0.01 c -0.09,-0.70 1.20,-2.10 0.89,-0.62 -0.19,0.21 -0.53,0.78 -0.89,0.62 z M 6.62,27.70 c -1.07,-1.09 1.13,0.31 0,0 z m 30.70,-0.28 c -0.77,-1.30 1.71,-0.44 0,0 z M 12.24,27.36 c -0.98,-0.55 1.11,-1.96 0.90,-0.42 -0.17,0.18 -0.65,0.60 -0.90,0.42 z m 28.91,0.01 c -0.99,-1.20 1.41,-0.33 0,0 z M 22.43,27.25 c -0.70,-1.04 1.47,-0.78 1.49,-2.00 0.61,0.18 -0.42,2.34 -1.49,2.00 z m 1.81,-0.05 c -0.98,0.07 0.53,-0.97 0.06,-1.61 0.74,-1.06 1.12,-0.88 0.98,0.32 0.25,0.51 -0.32,1.67 -1.04,1.29 z m 0.59,-0.34 c -0.04,-0.19 -0.30,0.36 0,0 z m 15.35,0.17 c -0.77,-1.14 1.48,-0.46 0,0 z M 17.46,26.82 c -0.11,-1.13 2.05,-1.16 0.70,-0.16 -0.18,0.13 -0.48,0.26 -0.70,0.16 z m -3.94,-0.19 c -0.32,-0.81 -1.28,-2.09 0.23,-2.51 -0.28,1.13 1.82,0.48 1.74,0.56 -0.07,0.97 -1.25,1.56 -1.98,1.94 z m 2.92,0.01 c 0.32,-0.64 0.44,-2.07 0.73,-2.35 0.16,0.67 -0.04,2.02 -0.73,2.35 z M 6.91,26.57 C 6.00,25.59 8.80,25.00 7.53,26.41 7.38,26.62 7.12,26.60 6.91,26.57 z m 13.51,-0.17 c -0.49,-0.91 0.94,-1.80 0.39,-0.24 -0.03,0.14 -0.24,0.46 -0.39,0.24 z m -8.92,-0.12 c -0.34,-0.62 -1.73,-0.93 -0.44,-1.49 0.94,0.05 2.32,0.18 0.99,1.19 -0.15,0.03 -0.32,0.44 -0.55,0.30 z m 14.66,-0.21 c -0.53,-1.36 1.56,-1.37 0.45,-0.12 -0.02,0.11 -0.50,0.46 -0.45,0.12 z m -8.86,0.04 c 0.88,-0.57 -0.35,-2.02 1.06,-2.06 0.40,0.79 -0.44,1.79 -1.06,2.06 z M 19.4,26.02 c -0.06,-1.31 -1.08,-2.69 0.41,-3.71 0.67,-0.96 -0.91,2.26 0.43,1.11 0.51,-0.74 0.96,-1.46 0.47,-0.11 -0.24,0.60 -1.27,1.57 -0.24,1.11 C 19.97,24.83 19.79,25.66 19.4,26.02 z m 17.72,0 c -0.56,-0.92 1.01,-0.26 0,0 z M 15.79,25.98 c -0.43,-1.38 1.39,-1.14 0.39,-0.14 0.15,0.45 -0.40,-0.00 -0.39,0.14 z m 6.50,-0.08 c -1.72,-0.15 0.00,-2.79 0.36,-2.27 -0.65,0.70 0.30,2.53 0.33,0.82 1.19,-2.10 0.90,1.54 -0.41,1.50 L 22.29,25.90 l 0.00,0.00 z m 0.32,-0.10 c -0.02,-0.20 -0.40,0.07 0,0 z m 12.27,0.11 c -0.86,0.48 -2.24,-0.78 -1.14,-1.16 0.11,0.51 2.09,0.32 1.14,1.16 z m 4.77,-0.04 c 0.34,-1.21 0.97,0.43 0,0 z M 27.94,25.75 c 0.21,-0.76 0.05,-1.61 -0.54,-0.83 -0.18,-0.69 -0.33,-2.73 0.48,-1.06 -0.00,0.62 1.04,0.33 0.58,1.46 -0.06,0.20 -0.30,0.47 -0.52,0.43 z M 6.10,25.68 c -0.99,-0.79 0.97,-2.32 0.57,-0.57 -0.17,0.14 -0.31,0.61 -0.57,0.57 z m 22.62,-0.08 c 0.08,-0.74 0.12,-2.75 0.60,-0.92 C 29.48,25.08 29.08,25.65 28.73,25.60 z M 4.94,25.46 C 4.05,24.94 4.97,23.31 5.55,24.81 5.77,25.23 5.35,25.58 4.94,25.46 z m 30.80,-0.01 c -0.95,-1.03 1.81,-0.84 0,0 z m -2.99,-0.26 c -1.70,-0.08 0.62,-1.56 0.21,-0.13 0.06,0.15 -0.12,0.23 -0.21,0.13 z M 9.14,25.08 C 7.92,24.29 9.37,23.32 10.33,22.94 10.10,23.72 11.16,24.52 9.81,24.73 9.59,24.83 9.43,25.23 9.14,25.08 z M 38.99,24.84 c -0.47,-1.55 1.14,-0.21 0,0 z M 34.40,24.63 c -0.96,-1.54 1.57,-0.67 0,0 z m -7.86,-0.04 c 0.00,-0.89 -0.74,-2.99 -0.03,-3.22 0.45,0.97 0.58,2.39 0.03,3.22 z m 4.78,-0.06 c -0.67,-0.22 -1.49,-1.63 -0.40,-0.72 0.29,-1.79 1.80,0.88 0.40,0.73 l 0.00,-0.00 z M 7.42,24.35 C 5.99,23.38 9.16,22.40 8.26,23.96 7.99,24.01 7.69,24.66 7.42,24.35 z m 5.22,-0.09 c -1.57,-0.27 -0.93,-2.06 0.44,-1.25 1.11,-0.43 0.38,1.92 -0.44,1.25 z m 3.83,-0.13 c -1.49,-0.69 1.22,-0.48 0,0 z m -2.1,-0.05 c -0.66,-1.43 1.53,-0.19 0,0 z m 19.15,-0.04 c -0.58,-0.83 1.34,-1.03 0.27,-0.00 0.01,0.13 -0.29,0.11 -0.27,0.00 z M 32.48,23.93 c -1.01,-0.81 1.61,-1.78 0.61,-0.38 -0.02,0.22 -0.36,0.65 -0.61,0.38 z m -8.18,0.01 c -1.40,-0.75 0.93,-1.93 0.74,-0.34 -0.28,0.41 -0.44,0.17 -0.74,0.34 z m 0.86,-0.07 c 0.34,-0.73 -0.61,-2.22 0.57,-2.31 -0.04,0.69 0.61,2.45 -0.57,2.31 z m 3.26,-0.04 c -0.78,-0.20 -0.88,-2.68 -0.11,-1.89 0.20,0.36 0.64,2.03 0.11,1.89 z m 10.17,0 c -0.64,-1.32 1.35,-0.58 0,0 z m -9.21,-0.16 c -0.92,-0.88 0.47,-0.56 0.18,0.18 l -0.18,-0.18 0.00,-0.00 z m -7.96,-0.05 c -0.46,-1.14 1.14,-0.97 1.30,-1.95 -0.20,-0.64 -1.45,1.34 -1.26,0.01 0.95,-1.55 2.77,0.20 1.37,1.33 -0.51,-0.08 -1.10,-0.02 -1.42,0.61 z m -6.16,-0.2 c -0.96,-1.02 1.43,-0.91 0.19,0.02 L 15.24,23.41 z m 2.19,0.01 c -0.91,-0.43 -0.28,-0.99 0.30,-0.68 0.40,-1.26 1.45,0.94 0.02,0.22 0.07,0.23 -0.01,0.58 -0.32,0.46 z M 29.78,23.17 c -1.22,-1.06 0.51,-0.87 0.18,0.04 L 29.78,23.16 29.78,23.17 z m 0.87,-0.07 c -1.26,-0.27 -0.40,-2.55 0.10,-0.97 -0.41,0.16 0.34,1.25 -0.10,0.97 z m -16.33,-0.06 c -0.49,-1.18 1.35,-0.96 0.38,0.06 -0.12,0.01 -0.28,0.04 -0.38,-0.06 z m -5.86,0.02 c -0.86,-1.14 1.43,-1.95 0.41,-0.36 -0.13,0.11 -0.22,0.32 -0.41,0.36 z M 31.82,22.98 c -0.90,-1.23 1.58,-0.51 0,0 z m 6.39,-0.28 c -0.44,-1.50 1.44,-0.31 0,0 z m 0.90,-0.12 c -0.27,-1.86 1.23,0.47 0,0 z M 9.72,22.56 c -0.57,-1.22 1.90,-1.82 0.70,-0.44 -0.27,0.03 -0.45,0.49 -0.70,0.44 z m 7.79,0.01 c -1.72,-0.61 1.34,-0.90 0,0 z m -6.25,-0.08 c -0.52,-0.99 2.15,-2.03 0.91,-0.54 -0.31,0.09 -0.57,0.72 -0.91,0.54 z m 20.06,-0.06 c -0.92,-0.95 1.08,-1.91 0.38,-0.46 -0.19,-0.02 -0.15,0.65 -0.38,0.46 z m -7.43,-0.1 c -0.28,-1.15 0.74,0.09 0,0 z m -7.57,-0.03 c -1.16,-0.24 -0.79,-1.82 0.27,-0.98 -0.43,0.28 0.17,0.95 -0.27,0.98 z m 2.52,-0.13 C 17.85,21.61 17.82,20.96 19.11,20.91 20.08,19.66 18.91,22.57 18.83,22.15 z M 29.05,22.09 c -0.98,-1.55 1.48,-1.02 0,0 z M 13.47,21.99 c -0.51,-1.14 2.22,-0.18 0.60,-0.21 -0.33,-0.29 -0.40,0.48 -0.60,0.21 z m 18.97,-0.09 c -0.14,-1.59 2.36,-0.29 1.13,-0.07 -0.37,-0.37 -0.76,-0.18 -1.13,0.07 z m -7.84,-0.05 c -0.26,-0.61 0.04,-2.89 0.67,-1.39 0.19,0.50 -0.28,1.22 -0.67,1.39 z M 35.92,21.52 C 35.38,21.12 33.36,19.02 35.10,20.21 35.83,20.04 36.52,21.61 35.92,21.52 z m 2.89,0.02 c -0.64,-1.00 1.23,-1.78 0.51,-0.27 -0.09,0.11 -0.30,0.45 -0.51,0.27 z m -1.76,-0.11 c -1.25,-0.71 0.92,-2.50 0.16,-0.81 -0.24,0.11 0.14,1.01 -0.16,0.81 z M 23.80,21.26 c -0.94,-0.28 -0.41,-1.88 0.23,-1.12 -0.18,0.22 0.28,1.30 -0.23,1.12 z m -3.19,0.03 c -2.03,-0.24 0.95,-2.66 0.21,-1.06 0.55,-0.05 1.98,-0.67 0.88,0.30 C 21.38,20.81 21.09,21.33 20.61,21.29 z M 38.22,21.09 C 37.53,20.24 39.28,19.05 38.65,20.54 38.56,20.67 38.41,21.24 38.22,21.09 z M 27.83,21.03 c -0.85,-0.76 0.38,-2.12 0.23,-0.47 -0.02,0.01 -0.00,0.80 -0.23,0.47 z m 2.88,0.03 c -0.13,-1.27 2.39,-0.49 0.44,-0.31 -0.30,-0.13 -0.30,0.36 -0.44,0.31 z M 14.8,20.86 C 12.94,20.50 16.05,19.06 15.00,20.61 15.15,20.83 15.12,21.21 14.8,20.86 z m 1.77,0.04 c -1.41,-0.74 1.77,-1.37 0.34,-0.00 -0.05,0.14 -0.28,0.10 -0.34,0.00 z m 11.99,0.05 c -1.11,-1.02 1.06,-2.13 0.87,-0.75 -0.37,0.64 -0.99,-0.13 -0.86,0.74 l -0.01,0.00 z M 13.66,20.86 c 0.01,-0.24 0.37,0.13 0,0 z m 12.18,-0.25 c -0.70,-0.60 0.39,-2.15 0.31,-0.58 -0.03,0.01 -0.04,0.92 -0.31,0.58 z m -13.44,0.02 c -0.86,-0.80 2.21,-0.39 0.24,-0.02 L 12.40,20.63 z m 20.23,-0.36 c -0.67,-0.17 -1.65,-1.04 -0.20,-0.59 0.32,0.08 1.12,0.77 0.20,0.59 z M 18.98,20.15 c -0.58,-0.88 -1.7e-4,-0.85 0.95,-1.08 0.29,0.16 -0.73,1.24 -0.95,1.08 z m 14.73,-0.04 c -1.23,-0.38 -1.44,-1.79 0.15,-1.18 -0.29,0.50 -0.79,0.78 0.08,1.18 l -0.23,0 -0.00,-0.00 z M 11.43,19.94 c -0.04,-0.87 2.08,-0.11 0.44,-0.03 -0.13,-0.01 -0.37,0.33 -0.44,0.03 z m 2.49,-0.06 c -1.71,-0.78 1.12,-0.34 0,0 z m 21.21,-0.55 c -0.33,-0.62 -2.43,-0.91 -0.72,-1.01 0.57,-0.18 1.10,0.88 0.72,1.01 z m 2.18,0.01 c -1.13,-0.98 1.84,-2.70 0.71,-0.87 -0.09,0.32 -0.43,0.87 -0.71,0.87 z m -16.23,-0.07 c -0.35,-0.76 1.24,-0.18 0,0 z m 9.64,-0.71 c 0.44,-1.12 1.37,-1.59 2.27,-0.61 -0.80,-0.00 -1.46,0.62 -2.27,0.61 z m -1.82,-0.03 c -0.13,-1.45 1.41,-0.28 0,0 z m 0.89,-0.02 c -0.19,-0.86 1.03,-0.23 0,0 z m 6.15,-0.04 c -0.63,-0.82 1.22,-2.39 0.57,-0.56 -0.08,0.27 -0.16,0.70 -0.57,0.56 z m 0.35,-0.33 c -0.07,-0.10 -0.07,0.10 0,0 z m -9.10,0 c -0.77,-0.66 1.25,-1.30 0.28,-0.04 0.03,0.05 -0.32,0.13 -0.28,0.04 z m 3.53,-0.22 c -0.33,-0.72 0.72,-0.05 0,0 z m 3.47,-0.10 c -0.54,-0.95 1.27,-0.18 0,0 z m 0.67,-0.16 c -0.11,-1.32 0.91,0.50 0,0 z m -5.06,0.03 c -0.41,-1.02 1.57,-0.88 0,0 z M 26.14,17.64 c -0.41,-0.98 1.00,0.03 0,0 z m 5.10,-0.44 c -0.30,-0.51 -1.29,-1.63 -0.35,-1.88 0.55,2.18 -0.08,-2.46 0.64,-0.36 0.28,1.73 0.33,-1.58 0.63,0.24 0.09,0.60 -0.49,2.00 -0.92,2.01 z m 0.17,-0.54 c -0.15,-0.38 -0.22,0.27 0,0 z m -3.13,0.50 c 0.12,-0.59 -0.65,-0.90 0.28,-1.35 -0.13,-1.47 1.13,1.50 -0.27,1.35 L 28.29,17.16 z m 3.93,-0.03 c -0.00,-0.48 0.42,-2.31 0.73,-0.92 0.05,0.41 -0.28,0.95 -0.73,0.92 z m 2.51,0.01 c -1.49,-0.07 0.71,-1.38 0,0 z m -9.54,-0.24 c 0.11,-1.80 0.94,0.44 0,0 z m 1.81,0.03 c -1.27,-0.20 0.52,-2.52 0.13,-0.59 -0.13,0.05 0.05,0.75 -0.13,0.59 z m 8.68,0.01 c -0.59,-0.65 0.99,-0.08 0.00,0 l -0.00,0 z M 24.67,16.87 c -0.77,-1.05 1.37,-0.04 0,0 z m 10.51,-0.09 c -0.61,-1.14 0.64,-2.03 1.22,-0.80 -0.49,1.20 -0.54,-1.08 -0.96,0.39 -0.05,0.09 -0.06,0.54 -0.26,0.41 z m -5.8,-0.23 c -0.38,-0.63 0.11,-2.03 0.54,-0.82 -0.04,0.25 -0.20,0.90 -0.54,0.82 z m -5.49,-0.12 c -0.73,-0.88 0.61,-0.42 0,0 z m 10.28,-0.15 c -0.53,-0.69 1.11,-1.68 0.47,-0.29 -0.10,0.09 -0.29,0.45 -0.47,0.29 z m -9.84,-0.02 c -0.45,-0.81 0.70,-0.02 0.00,-10e-4 l -0.00,10e-4 z m 0.67,-0.11 c -1.06,-0.98 1.17,-0.32 0,0 z m 0.91,-0.50 c -0.51,-1.17 1.09,-0.96 0.31,-0.01 0.01,0.43 -0.31,-0.11 -0.31,0.01 z m 1.84,-0.19 c -0.06,-1.21 0.74,-0.08 0,0 z m -4.00,-0.11 c -0.86,-0.06 0.10,-0.80 -0.04,-0.95 0.71,0.20 1.48,0.71 0.44,0.79 0.70,0.13 -0.21,0.37 -0.40,0.15 z m 0.25,-0.18 c -0.05,-0.37 -0.19,0.12 0,0 z m 9.70,0.17 c -0.40,-1.20 1.19,-1.68 0.51,-0.25 -0.11,0.18 -0.27,0.53 -0.51,0.25 z m -1.02,-0.21 c -0.93,-0.74 0.64,-1.66 0.27,-0.16 -0.02,0.11 -0.15,0.20 -0.27,0.16 z m -3.26,-0.03 c -0.59,0.02 -2.54,-1.11 -1.86,-1.29 0.63,1.10 0.96,0.22 1.68,0.00 0.05,0.96 0.76,0.70 0.40,-0.16 C 29.96,14.33 31.37,15.29 29.42,15.05 z m -2.40,-0.01 c -0.55,-1.70 1.33,-0.71 0,0 z m -1.48,-0.57 c -0.10,-0.61 0.35,-0.02 0,0 z m 0.61,0.02 c -0.58,-0.47 -0.14,-1.49 0.42,-0.77 0.07,0.32 -0.21,0.60 -0.42,0.77 z m -1.25,-0.44 c -0.00,-0.63 0.73,-0.12 0,0 z m 6.07,-0.13 c -0.70,-1.46 1.22,-0.72 0,0 z m -6.67,-0.31 c -0.03,-0.75 1.27,-0.03 -0.00,-10e-4 l 0.00,10e-4 z m 1.44,-0.26 c -0.92,-0.57 1.81,-0.47 0.09,0.03 L 25.74,13.31 25.74,13.31 z m 2.87,-0.28 c -0.86,-1.10 1.09,-0.03 0,0 z" id="path4" />
</svg>
