<?xml version="1.0" encoding="UTF-8" standalone="no"?>
<!-- Created with Inkscape (http://www.inkscape.org/) -->
<svg xmlns:dc="http://purl.org/dc/elements/1.1/" xmlns:cc="http://creativecommons.org/ns#" xmlns:rdf="http://www.w3.org/1999/02/22-rdf-syntax-ns#" xmlns:svg="http://www.w3.org/2000/svg" xmlns="http://www.w3.org/2000/svg" version="1.1" width="100%" height="100%" viewBox="0 0 48 48" id="svg2" xml:space="preserve">
<defs id="defs4" />
<path d="m 9.57,3.73 c -0.69,0.01 -1.36,0.52 -1.79,1.15 -0.56,0.08 -1.06,0.29 -1.63,0.63 0,0.04 -0.00,0.08 -0.01,0.13 0.14,0.09 0.32,0.21 0.32,0.40 -1.19,0.59 -0.51,2.21 -0.51,3.29 -0.04,0.24 -0.10,0.47 -0.16,0.71 0.07,0.07 0.75,-0.16 0.96,-0.23 0.12,1.24 -1.91,2.23 -1.29,3.33 0.02,0 0.05,-8.93e-4 0.07,0.00 0.04,-0.04 0.08,-0.07 0.12,-0.10 0,0.53 -0.18,1.18 0.38,1.65 0.19,0.31 0.04,0.47 0.14,0.81 0.01,0.00 0.03,0.01 0.04,0.02 0.10,-0.04 0.20,-0.08 0.30,-0.11 0.02,0.47 0.04,0.76 -0.23,1.22 0,0.44 0.57,0.09 0.75,0.09 0.32,1.01 0.35,0.69 -0.36,1.56 -0.07,0.22 -0.15,0.44 -0.23,0.67 -0.19,0.09 -0.56,0.50 -0.75,0.74 -0.04,0.16 -0.43,1.49 0.05,1.62 0,0.10 -1.85,2.16 -2.11,2.38 -1.22,1.40 -3.40,2.66 -2.38,4.96 1.80,1.08 2.64,-1.23 4.15,-1.50 0.00,-0.06 0.14,-0.20 0.18,-0.25 -0.16,-0.96 -1.10,-0.50 0.01,-1.23 0.25,-0.19 0.81,-0.58 0.90,-0.75 0.03,0 0.06,0.00 0.09,0.01 -0.08,0.50 -0.59,1.51 -0.96,1.98 0,0.05 -0.14,0.21 -0.20,0.31 -5.45e-4,0 -0.00,-0.00 -0.00,-0.00 -0.66,1.48 -1.16,3.31 -1.22,5.01 0.04,0.29 0.41,3.10 0.79,3.28 0,0.56 1.13,1.38 1.58,1.64 0.60,0.16 1.97,0.08 2.46,-0.14 0,-0.38 0.92,-0.73 1.07,-0.80 0.94,-1.18 0.58,-2.49 -0.27,-3.60 -0.21,-0.14 0.03,-0.53 -0.05,-0.72 -0.03,0 -0.07,0.00 -0.11,0.01 -0.42,0.74 0.06,1.20 0.39,1.90 0.58,1.78 -0.17,2.15 -1.47,2.96 -0.71,0.09 -2.38,0.21 -2.70,-0.60 -0.00,3e-6 -0.01,0.00 -0.02,0.01 -0.04,-0.04 -0.08,-0.08 -0.13,-0.11 -2.28,-3.54 -0.21,-7.98 1.40,-11.23 -0.03,-0.03 0.15,-0.25 0.16,-0.26 -0.00,-0.02 -0.01,-0.04 -0.03,-0.05 l 0.05,-0.02 0,-0.09 c -0.04,0.04 -0.21,0.29 -0.28,0.26 0,-0.58 0.34,-1.15 0.30,-1.50 0.02,-0.00 0.04,-0.00 0.07,-0.00 0.06,-0.13 0.02,-0.16 0.04,-0.23 0.02,-0.01 0.04,-0.02 0.06,-0.03 0,-0.01 -0.00,-0.02 -0.01,-0.03 0.00,-0.03 0.01,-0.06 0.01,-0.09 0.09,-0.05 0.07,-0.07 0.14,-0.09 -0.04,-0.04 -0.05,-0.07 -0.06,-0.11 0.02,-0.00 0.04,-0.01 0.06,-0.02 0.04,-0.28 0.14,-0.49 0.18,-0.67 0.40,-0.81 0.21,-4.99 -0.62,-5.55 -0.12,0.02 -0.27,0.17 -0.51,0.20 0,-0.07 -9.97e-4,-0.07 0.06,-0.27 0.12,-0.12 0.09,-0.49 0.14,-0.61 -0.03,-0.73 0.05,-0.67 -0.56,-0.53 0,-0.01 -0.00,-0.02 -0.01,-0.03 0.67,-1.08 1.13,-1.80 1.16,-3.03 -0.00,-0.36 -0.04,-0.71 0.00,-1.01 0.04,0 0.02,-0.08 0.02,-0.11 -0.07,-0.04 -0.08,-0.09 -0.09,-0.13 -0.14,0 -0.27,0.26 -0.52,0.18 l 0,-0.05 c 0.24,-0.50 0.22,-0.82 0.23,-1.29 0.01,-0.00 0.02,-0.01 0.03,-0.01 C 7.66,9.88 7.54,8.97 7.96,8.97 8.25,9.21 8.85,9.75 9.20,9.57 9.19,9.28 9.09,8.61 9.22,8.43 c 0.32,0 0.53,0.20 0.81,0.23 0.09,-0.09 0.11,-0.69 0.18,-0.86 0.29,0 1.13,0.75 1.61,0.80 0.03,-0.04 0.05,-0.07 0.08,-0.10 C 11.91,8.48 10.18,7.48 10.15,7.49 10.04,7.76 9.95,8.03 9.90,8.43 c -0.71,0 -1.24,-1.23 -1.07,0.81 -0.22,0 -0.73,-0.70 -0.82,-0.92 -0.43,0 -0.50,0.81 -0.81,0.88 C 7.07,9.09 6.83,8.69 6.61,8.76 c 0,0.28 0.29,0.33 0.29,0.62 C 6.69,9.54 6.61,9.63 6.29,9.67 6.29,8.97 6.49,8.62 6.16,7.96 6.12,7.56 6.26,5.95 6.83,6.32 7.17,6.24 6.72,5.63 6.67,5.56 6.77,5.26 7.37,5.42 7.51,5.52 7.46,6.29 7.68,6.62 7.32,7.36 c 0.00,0.02 0.01,0.05 0.01,0.08 C 7.73,7.49 7.82,6.38 7.76,6.18 8.09,4.73 9.15,3.48 10.53,4.55 c 0.05,0.13 0.84,-0.33 0.92,-0.38 0.03,0.01 0.06,0.03 0.09,0.05 0,1.08 0.47,0.07 1.37,0.19 l 0,0.06 c -0.09,0.09 -0.41,1.06 0.13,0.73 0.23,-0.01 1.75,0.18 1.68,0.46 -0.93,0.04 -1.03,0.22 -0.75,1.08 -0.27,-0.00 -0.47,0.02 -0.82,0.04 -0.12,-0.19 -0.36,-0.48 -0.42,-0.66 -0.03,-0.00 -0.07,-0.01 -0.11,-0.02 -0.18,-0.18 -0.78,-0.39 -1.01,-0.09 0.04,0.09 0.56,0.14 0.65,0.18 0.20,0.14 0.70,0.71 0.62,1.03 -0.45,-0.45 -0.96,-0.48 -1.62,-0.34 0,0 -0.09,0.06 -0.13,0.05 0,-0.07 -0.00,-0.15 -0.01,-0.22 -0.38,-0.19 -0.05,1.06 0.35,1.27 0.15,-0.15 -0.10,-0.60 -0.13,-0.81 0.45,-0.56 1.52,0.41 1.84,0.73 0.09,-0.09 0.05,-0.13 0.07,-0.19 0.09,0 -0.01,-0.66 -0.01,-0.68 0.38,-0.04 1.08,-0.04 1.27,0.33 0.06,0.04 0.12,0.05 0.16,0.05 0.12,-0.25 -0.42,-0.74 -0.50,-1.04 0.42,0 1.07,0.28 1.55,0.31 0.54,-0.03 2.02,-0.36 2.35,-0.69 1.81,-0.49 3.89,-0.63 5.52,0.29 l 0,0.05 c 0,0 -0.62,-0.20 -0.62,0.05 0.42,0.08 0.76,0.20 1.09,0.38 0,0.00 1.82,0.99 2.00,1.35 0,0.15 -0.76,-0.27 -1.02,-0.00 0.13,0.13 1.13,0.29 1.48,0.50 -0.04,0.04 -0.69,0.06 -0.49,0.31 1.23,-0.11 1.59,7.30e-4 2.59,0.66 2.81,2.82 7.45,2.89 10.90,4.45 0.48,0.27 2.46,1.45 2.33,1.97 -0.14,-0.07 -0.20,-0.17 -0.43,-0.14 -1e-6,0.01 0,0.03 0,0.05 0.22,0.24 0.81,0.53 0.86,0.77 0.28,0.06 1.37,1.38 1.22,1.86 -0.09,-0.14 -0.39,-0.28 -0.58,-0.28 -0.07,0.07 0.00,0.14 0.05,0.27 1.29,0 1.68,5.46 0.84,6.29 0,0.60 0.20,0.96 0.07,1.63 10e-7,0.84 -0.58,1.86 -0.76,2.80 -0.07,0.22 -0.10,0.66 -0.11,0.94 -0.01,-0.00 -0.04,-0.01 -0.06,-0.01 -0.04,-0.30 -0.03,-0.60 -0.24,-0.77 -0.12,0.12 0.40,2.24 0.42,2.62 -0.00,0 -0.01,0.00 -0.02,0.01 -0.23,-0.15 -0.24,-0.60 -0.43,-0.74 l -0.07,0.02 c 10e-7,0.34 0.96,2.12 1.21,2.46 0.42,1.05 1.39,1.68 1.57,2.88 -0.10,-0.03 -0.13,-0.09 -0.15,-0.18 -0.38,0.07 0.15,0.62 0.28,0.95 0,0.43 -1.12,2.88 -1.76,2.68 -0.23,0.11 -0.83,0.71 -1.23,0.95 -0.68,0.17 -1.35,0.34 -1.51,-0.60 -0.04,2e-6 -0.25,-0.83 -0.26,-0.93 0.21,0 0.21,0.25 0.38,0.25 0.06,-0.13 -1.81,-2.28 -2.19,-2.79 -0.72,-1.25 -1.00,-2.12 -1.05,-3.49 -0.04,-0.11 -0.05,-0.16 -0.14,-0.22 -0.06,0.03 -0.08,0.11 -0.18,0.26 -0.71,-1.28 -0.60,-2.31 -0.99,-3.60 -0.07,-0.07 -0.40,-0.98 -0.41,-1.04 0.15,0.02 0.42,0.09 0.52,0.09 0.18,-0.24 -0.88,-1.75 -1.10,-2.11 0.02,-0.00 0.04,-0.01 0.05,-0.01 0.14,0.14 1.30,0.86 1.38,0.86 -0.04,-0.25 -1.41,-1.17 -1.85,-1.24 0,0.43 1.12,1.61 1.28,2.24 -0.20,0 -0.46,-0.09 -0.73,-0.07 -0.01,0.03 0.75,2.55 0.75,3.25 -0.37,0.37 -0.40,0.47 -0.47,1.11 -0.24,0.24 -1.68,-0.54 -1.91,-0.77 -0.42,0.14 -0.47,0.35 -0.41,0.88 -0.43,10e-7 -2.60,-1.67 -2.84,-0.22 -0.01,0 -0.04,0.00 -0.06,0.01 -0.66,-0.53 -1.24,-0.62 -2.13,-0.64 -0.78,-0.18 -1.07,-0.52 -1.53,-1.15 0.13,-0.41 1.03,-2.45 0.36,-2.51 -8e-6,0.95 -0.66,1.98 -1.18,2.80 -0.00,0.00 -0.21,0.28 -0.28,0.25 -0.02,-0.38 -0.01,-0.82 -0.11,-1.11 -0.09,0.14 -0.13,0.77 -0.17,1.07 -0.12,0.43 -0.85,2.28 -1.48,2.28 -0.03,-0.07 -0.05,-0.30 -0.05,-0.35 -0.01,-0.01 -0.03,-0.03 -0.05,-0.04 -0.10,0.07 -0.20,0.57 -0.26,0.80 -0.55,1.66 -2.26,2.20 -2.63,4.09 -0.35,0.17 -0.46,-0.32 -0.63,0.24 0,0.49 0.08,0.49 -0.48,0.46 -0.14,0.14 -0.22,1.48 -0.21,1.93 0.06,0.23 0.12,0.46 0.18,0.70 -0.61,0.77 -2.43,1.58 -3.53,1.34 -1e-6,-0.28 0.37,-0.46 0.24,-0.71 -0.24,0 -0.71,0.49 -1.33,0.47 -1.69,-0.67 -1.89,-1.45 -1.14,-3.02 0.21,-0.62 0.41,-1.07 0.66,-1.55 0.21,-0.28 0.36,-0.48 0.41,-0.69 -0.14,-0.14 -0.24,0.23 -0.37,0.16 -0.04,-0.92 0.18,-1.76 0.70,-2.44 0.10,-0.09 0.52,-0.47 0.48,-0.56 -0.07,-0.00 -0.14,-0.01 -0.23,-0.01 -0.32,-0.98 1.27,-2.40 1.58,-3.08 0.15,-1.33 2.14,-3.01 1.62,-4.23 -0.02,-0.00 -0.05,-0.00 -0.09,-0.00 -0.00,0.00 -0.01,0.01 -0.02,0.03 -0.05,0.67 -1.24,3.01 -1.79,3.19 -0.28,-0.24 -0.68,-0.44 -0.60,-0.82 0.12,0 0.28,0.07 0.36,0.07 0.15,-0.15 0.01,-0.58 0.04,-0.76 0.00,-0.00 0.01,-0.01 0.02,-0.01 0.14,0.09 0.35,0.27 0.48,0.30 0.08,-0.04 0.06,-1.04 0.07,-1.15 0.09,-0.21 0.19,-0.43 0.29,-0.63 -0.01,-0.03 -0.03,-0.06 -0.04,-0.09 l -0.08,0 c -0.28,0.49 -0.33,0.76 -0.41,1.43 l 0,0.12 c -0.13,-0.09 -0.29,-0.24 -0.37,-0.34 -0.17,0.05 -0.16,0.62 -0.18,0.87 -0.14,0 -0.14,-0.10 -0.30,-0.07 -0.19,0.32 -0.26,0.80 -0.41,1.26 -0.14,-0.07 -0.51,-0.63 -0.45,-0.81 2.46,-1.85 2.06,-5.25 1.64,-7.80 0.71,-0.57 0.39,-1.19 0.58,-1.38 -0.34,-1.04 -1.55,-2.51 -2.55,-2.86 -0.11,-0.00 -0.23,-0.01 -0.34,-0.01 -0.00,0.01 -0.01,0.03 -0.02,0.05 -0.04,-0.01 -0.09,-0.02 -0.14,-0.03 -2e-6,0.01 0,0.04 0,0.06 0.23,0.06 1.33,0.62 1.17,0.96 -0.87,-2e-6 0.59,0.53 0.71,0.61 0.47,0.58 0.77,1.08 0.52,1.91 -0.00,0.00 -0.02,0.01 -0.03,0.02 -0.30,-0.30 0.03,-0.92 -0.81,-0.82 -0.30,-0.61 -0.69,-0.25 -1.11,-0.11 -0.92,-0.39 -1.94,0.14 -1.80,1.28 0.16,0.31 0.51,0.53 0.51,0.91 -0.14,-0.03 -0.63,-0.32 -0.79,-0.24 0,1.30 -1.84,3.04 -2.48,4.33 0.10,0.04 0.21,0.09 0.31,0.15 0.23,-0.15 0.90,-1.34 1.09,-1.64 0.29,-0.33 0.50,-0.83 0.71,-1.01 0.33,1.00 0.72,1.59 0.66,2.72 0.11,0.76 0.68,1.30 -0.59,1.12 -0.75,-0.21 -4.73,-3.11 -4.95,-0.85 0.26,0.95 2.72,0.93 3.49,1.93 1.00,0.50 1.53,1.07 2.72,1.18 1.37,-0.18 0.93,-0.76 1.93,0.99 0.02,-8e-6 0.04,0.00 0.06,0.01 0.32,-0.19 0.26,-0.60 0.34,-0.84 0.22,-8e-6 0.44,0.37 0.57,0.52 -0.09,0.46 -1.02,1.61 -1.33,2.25 -0.31,0.88 -0.05,1.70 -0.79,2.44 -0.36,1.01 -0.17,2.10 -0.71,2.99 -0.42,1.56 -1.68,3.02 0.14,4.11 0.22,0.44 1.98,0.58 2.40,0.60 1.51,-0.14 2.52,-0.49 3.58,-1.50 l 0.06,0 c -8e-6,-0.15 0.13,-0.24 0.13,-0.34 -0.55,-0.55 -0.19,-1.55 -0.19,-2.11 0.26,-0.07 0.44,-0.15 0.57,-0.28 -0.05,-0.15 -0.05,-0.42 -0.04,-0.53 1.16,0.28 0.53,-0.33 0.93,-1.04 l 0.05,0 c 1.08,1.08 0.97,2.37 0.13,3.61 -0.64,2.26 3.03,1.73 4.02,1.38 0.75,-0.04 1.75,-0.09 2.01,-0.90 0.01,-0.00 0.03,-0.01 0.04,-0.02 0,-0.29 0.27,-1.43 -0.04,-1.59 -0.04,-0.17 -0.18,-0.52 -0.18,-0.63 0.58,-0.91 -0.46,-3.01 -1.05,-3.75 0,-1.29 -0.22,-2.02 -1.11,-2.98 0.02,-0.14 1.03,-1.15 1.17,-1.19 0.56,0.61 1.32,1.00 2.10,1.15 0.00,-0.01 0.01,-0.03 0.01,-0.05 0.02,-8e-6 0.04,0.00 0.05,0.01 0.06,0.13 0.00,0.74 0.07,1.05 0.42,0.91 0.30,1.20 0.30,2.29 0.26,1.11 1.02,1.89 1.19,3.14 -0.09,1.09 -0.75,1.92 -0.51,3.13 0.90,1.14 4.56,0.81 5.72,0.12 0.26,-0.81 0.06,-2.16 -0.02,-2.93 0.21,-0.21 0.14,-0.82 0.02,-0.94 0.22,-1.37 0.48,-3.89 -0.21,-5.16 0,-0.49 1.08,0.53 0.74,-0.25 -9e-6,-0.26 0.03,-0.60 0.12,-0.76 l 0.05,0 c 0.01,0.13 0.08,0.31 0.12,0.48 0.43,0.43 0.90,1.65 0.94,2.27 0.44,1.23 1.26,2.51 2.22,3.47 0.85,0.94 0.23,3.07 1.98,3.02 1.72,-0.23 4.19,-2.51 4.06,-4.33 -0.15,-0.77 -0.19,-1.52 -0.67,-2.15 -0.00,-0.03 -0.01,-0.05 -0.02,-0.08 -0.70,-0.77 -1.56,-2.53 -1.62,-3.52 -0.29,-1.51 0.11,-2.95 0.49,-4.33 0.20,-1.22 0.21,-2.49 0.54,-3.60 0.01,-0.00 0.03,-0.00 0.05,-0.00 0.25,1.36 -0.02,3.26 0.03,4.74 -0.00,0.05 -0.14,0.39 -0.08,0.48 0.30,0 0.63,-0.42 0.74,-0.53 0.95,-0.31 1.43,-2.78 1.40,-3.61 -0.23,-1.45 -1.54,-2.10 -1.97,-3.40 -0.52,-0.52 -0.55,-2.51 -0.82,-3.21 -0.47,-0.79 -1.03,-1.39 -1.52,-2.08 -0.47,-0.87 -0.83,-1.25 -1.65,-1.89 C 38.70,13.12 36.62,12.66 34.32,11.98 33.50,11.81 32.65,11.38 31.81,11.17 30.17,10.27 28.73,9.02 26.98,8.32 26.36,7.50 25.07,6.90 24.18,6.46 22.53,4.05 18.39,5.61 16.10,6.33 c -0.51,0 -1.02,-0.03 -1.54,-0.28 l 0,-0.05 c 0.23,-0.06 0.47,0.04 0.67,0.05 0.05,-0.09 0.06,-0.08 0.06,-0.15 C 14.53,4.94 14.40,4.93 13.07,4.78 c -0.09,-0.09 0.25,-0.46 0.25,-0.46 0,-0.34 -1.24,0.03 -1.54,0.03 0.04,-0.14 0.07,-0.29 0.10,-0.44 -0.41,0 -0.91,0.09 -1.37,0.14 C 10.20,3.82 9.88,3.72 9.57,3.73 z M 8.00,6.05 c -0.01,5.21e-4 -0.02,0.00 -0.03,0.00 0,0.57 0.04,1.21 0.69,1.43 0.02,-0.01 0.04,-0.02 0.05,-0.03 C 8.26,6.95 8.18,6.76 8.06,6.08 8.05,6.06 8.03,6.05 8.00,6.05 z m 9.33,2.35 c -0.71,0 -1.56,1.22 -2.06,1.01 -0.12,0 -0.12,-0.01 -0.15,0.14 0.06,0.10 0.43,0.43 0.54,0.41 0.19,-0.39 0.90,-0.88 1.22,-1.00 0,0.07 -0.22,0.65 -0.04,0.74 1.80,-1.33 4.18,0.38 4.37,2.35 0.66,1.32 -0.37,2.45 -0.04,3.85 -0.01,0 -0.03,0.00 -0.05,0.01 -0.12,-0.09 -0.22,-0.21 -0.38,-0.25 -0.18,0.96 0.11,1.73 -0.57,2.64 -0.28,0.65 -0.73,0.86 -0.73,1.75 -0.01,0 -0.03,1.16e-4 -0.05,0.00 -0.06,-0.06 -0.29,-0.33 -0.44,-0.33 -0.19,0.38 -0.40,0.77 -0.61,1.16 0.08,0.04 0.10,0.04 0.14,0.04 0.33,-0.24 0.49,-0.56 0.58,-0.83 0.02,-0.00 0.04,-0.00 0.05,-0.00 0.13,0.14 0.28,0.33 0.40,0.52 0.28,0 0.27,-1.09 0.52,-1.21 0,-0.16 0.20,-0.40 0.23,-0.44 0.66,-0.82 0.78,-1.79 0.85,-2.73 0.14,0 0.35,0.18 0.50,0.21 0.17,-0.09 -0.12,-0.61 -0.14,-0.75 0.04,-0.96 0.37,-2.03 0.49,-2.93 -0.04,-0.33 -0.08,-0.98 -0.24,-1.20 -0.45,-1.66 -1.35,-2.66 -3.12,-2.93 -0.19,0.00 -1.40,0.40 -1.41,0.39 0.09,-0.28 0.28,-0.44 0.15,-0.64 z m 6.61,1.22 c 0,0.00 0.32,1.30 0.34,1.58 -0.14,0 -1.04,-1.53 -1.41,-1.15 0.03,0.08 0.05,0.16 0.04,0.33 -0.22,0 -0.64,-0.57 -1.04,-0.49 -0.01,0.02 1.04,0.85 1.15,0.82 0.07,-0.18 0.08,-0.27 0.09,-0.41 0.51,1.09e-4 1.00,1.34 1.27,1.34 0.02,-0.01 0.04,-0.02 0.06,-0.03 0,-0.65 -0.08,-1.06 -0.19,-1.63 0.62,0.08 1.25,0.79 1.83,1.04 0.76,0.89 0.60,0.04 0.63,-0.53 0.01,-0.00 0.02,-0.01 0.03,-0.01 0.54,0.29 1.08,0.60 1.61,0.91 -0.14,-0.11 -1.99,-1.64 -1.99,-1.14 0.14,0.26 0.18,0.53 0.12,0.91 -0.01,0 -0.03,9.4e-5 -0.04,0.00 -0.61,-0.55 -1.73,-1.27 -2.53,-1.53 z m -5.96,1.18 c -0.25,0.00 -0.49,0.15 -0.72,0.51 -0.02,0.09 -0.00,0.28 -0.06,0.39 -0.25,-0.01 -0.80,-0.28 -1.02,-0.24 -0.06,0.20 -0.03,0.43 -0.04,0.70 -0.85,0.85 -1.57,-0.48 -1.79,-0.45 -0.30,0.77 2.22,1.63 1.99,0.04 0.42,0.08 0.71,0.18 1.11,0.18 l 0.05,-0.05 c -0.13,-0.76 0.18,-0.83 0.78,-0.77 1.42,0.77 1.24,2.02 0.71,3.50 -0.00,0.00 -0.02,0.01 -0.04,0.02 -0.08,0.79 0.33,1.39 -0.60,1.73 -0.02,0.03 -0.04,0.06 -0.08,0.10 0.47,0.94 0.01,1.08 -0.63,1.73 0.00,0.01 0.01,0.03 0.02,0.05 0.04,0.00 0.09,0.01 0.13,0.03 0.67,-0.50 1.05,-0.76 0.83,-1.68 0,-0.11 1.01,-0.74 0.50,-1.25 0.08,-1.65 1.04,-2.32 -0.00,-3.90 C 18.77,11.13 18.37,10.81 17.98,10.82 z M 6.95,11.28 c 0.04,-0.00 0.08,0.00 0.12,0.01 0.08,0.82 0.04,2.28 -0.68,3.01 -0.45,0 -0.55,-1.20 -0.06,-1.31 0.37,-0.57 -0.42,-0.28 -0.64,-0.28 0.12,-0.46 0.77,-1.40 1.27,-1.42 z m 5.87,1.50 c -0.11,0.12 -0.65,0.85 -0.24,0.98 0.04,-0.04 0.07,-0.09 0.10,-0.14 0.28,-1.01 1.00,0.19 1.21,0.12 0.02,-0.04 0.02,-0.04 0.03,-0.19 -0.32,-0.26 -0.65,-0.76 -1.10,-0.76 z m 0.34,1.00 c -0.37,-0.00 -0.69,0.40 -0.43,1.00 0,0.16 -0.12,0.15 -0.18,0.36 0.00,0.00 0.01,0.02 0.02,0.04 0.19,0 0.33,-0.17 0.40,-0.21 0.83,-0.27 1.40,-0.10 1.95,0.49 0.03,-1.1e-4 0.05,-3.1e-5 0.08,0.00 0.01,-0.00 0.03,-0.01 0.04,-0.02 0,-0.43 -0.72,-0.67 -1.04,-0.81 l 0,-0.06 c 0.61,-0.30 0.73,0.01 1.21,0.01 l 0.03,-0.03 c -0.33,-0.67 -0.97,-0.08 -1.43,-0.19 -0.14,-0.39 -0.40,-0.56 -0.65,-0.57 z m 0.78,1.44 c -0.10,-0.00 -0.25,0.17 -0.36,0.26 -0.23,0.04 -0.49,-0.05 -0.77,-0.05 l 0,0.06 c 0.26,0.14 0.44,0.18 0.70,0.21 0.26,-0.13 0.43,-0.26 0.47,-0.48 -0.01,-0.00 -0.02,-0.01 -0.04,-0.01 z m 15.63,0.92 c -0.07,0.00 -0.07,0.00 -0.11,0.04 0.01,0 0.03,-3.1e-5 0.04,0.00 l 0.07,-0.05 z M 7.44,18.08 c 0.00,-1.16e-4 0.00,0 0.00,0 0.24,0.49 0.43,2.82 0.05,3.20 -0.13,0 -0.25,0.05 -0.45,0.11 l -0.05,0 c -0.08,-0.72 -0.26,-1.03 -1.03,-1.03 0.04,-0.33 0.43,-0.63 0.65,-0.74 0.08,-0.41 0.80,-1.31 0.80,-1.53 0.01,-0.00 0.02,-0.00 0.02,-0.00 z m 33.82,0.13 c -0.06,10e-4 -0.12,0.02 -0.17,0.06 0.48,0.98 2.10,3.15 1.89,4.22 -0.30,-0.11 -0.61,-0.22 -0.92,-0.33 -0.25,0.25 1.02,1.41 0.84,1.97 -0.14,0 -0.38,-0.19 -0.57,-0.09 0,0.05 0.33,1.05 0.42,1.05 0.29,-0.09 -0.14,-0.67 -0.09,-0.77 0.20,0.06 0.26,0.08 0.37,0.24 0.04,-0.00 0.07,-0.01 0.10,-0.01 0.16,-0.51 -0.44,-1.40 -0.60,-1.87 0.43,0.15 0.27,0.19 0.55,0.40 0.60,-0.22 -0.66,-3.21 -1.03,-3.58 -0.13,-0.24 -0.47,-0.68 -0.54,-0.91 0.86,0.28 1.21,1.10 1.69,1.78 l 0.07,0 c 0.29,-0.30 -1.36,-2.16 -2.03,-2.15 z m -20.13,2.43 c -0.04,0.00 -0.07,0.02 -0.07,0.08 0.35,0.63 0.71,2.16 0.45,2.95 -0.18,-0.18 -0.66,-1.24 -1.04,-1.24 -0.02,0.04 0.03,0.91 0.03,1.05 -0.02,0 -0.04,0.00 -0.07,0.01 -0.14,-0.10 -0.70,-0.64 -0.90,-0.43 0.05,0.32 -0.17,0.64 -0.09,0.87 0.02,0 0.04,0.00 0.06,0.01 0.19,-0.19 0.28,-0.50 0.28,-0.67 1.36,0.54 0.59,1.10 0.97,-0.41 0.11,0.11 0.75,1.31 0.84,1.31 0.37,-0.86 0.09,-2.30 -0.17,-3.13 0.00,-0.01 0.01,-0.03 0.01,-0.04 0.11,0.15 0.51,0.50 0.65,0.63 0.26,-0.17 -0.68,-1.02 -0.95,-1.01 z m -5.39,0.10 c 0.48,0 0.37,0.23 0.47,0.44 0.07,0.00 0.14,0.02 0.22,0.04 0.02,-0.03 0.04,-0.05 0.06,-0.08 0.82,0 0.83,3.56 0.83,3.70 0,1.94 -0.82,5.05 -3.29,5.24 -1.60,0 -2.70,-1.34 -4.09,-1.93 C 9.78,28.15 8.94,27.96 8.94,27.90 8.39,27.82 8.19,27.65 8.23,27.13 c 0.99,-0.67 2.63,0.34 3.49,0.77 0.80,0.70 1.89,1.00 2.59,0.12 0.91,-1.63 0.49,-4.17 -0.28,-5.74 -0.04,-0.12 -0.30,-0.74 -0.10,-0.74 0.14,-0.77 1.16,-0.71 1.60,-0.27 0.20,-0.01 0.13,-0.39 0.20,-0.51 z m -9.23,0.27 0.05,0 c 0.00,0.14 -0.02,0.81 0,0.86 0.32,0 0.56,-0.26 0.82,-0.26 0.04,0.22 -0.69,2.45 -0.94,2.77 -0.53,0.57 -1.27,1.05 -1.91,1.60 -0.05,0.02 -2.48,0.70 -2.32,1.02 0.18,0.04 0.61,-0.19 0.65,-0.23 1.09,-0.31 1.69,-0.68 2.44,0.06 0,0.01 -9.41e-5,0.03 -0.00,0.05 -1.09,0.43 -1.92,1.51 -3.13,1.73 -1.32,-0.26 -0.68,-1.82 -0.19,-2.54 0.18,-0.20 1.29,-1.51 1.46,-1.51 0.04,-0.13 0.09,-0.14 0.14,-0.16 0.67,-0.72 2.94,-3.03 2.94,-3.40 z m 38.36,1.24 c 0.22,0.22 0.42,0.60 0.61,0.90 0.66,0.67 1.15,1.76 0.99,2.75 -0.01,0 -0.03,-4.64e-4 -0.05,0.00 -0.09,-0.22 -0.19,-0.54 -0.36,-0.69 -0.02,0 -0.04,0 -0.07,0.00 -0.02,0.03 -0.02,0.03 -0.02,0.12 0.18,0.73 0.29,1.58 -0.09,2.36 l -0.05,0 c 0.04,-0.33 0.05,-0.59 0.00,-0.86 l -0.04,-0.02 c -0.14,0.04 -0.14,0.67 -0.18,0.67 -0.04,0.26 -0.10,0.38 -0.31,0.70 -0.01,-0.01 -0.04,-0.02 -0.06,-0.03 -0.04,-0.62 -0.04,-0.62 -0.02,-0.64 -0.25,-0.60 0.27,-1.98 0.12,-2.07 -0.03,0.02 -0.06,0.04 -0.09,0.08 -0.15,-0.15 0.01,-0.82 0.03,-0.96 0.04,-0.88 -0.40,-1.53 -0.40,-2.31 l 0.04,-0.02 z m -31.17,0.77 c 1.16,0 1.07,3.90 0.49,4.76 -0.08,0.08 -0.26,-0.76 -0.26,-0.79 -0.24,-0.37 0.36,-1.53 0.22,-1.72 -0.18,0 -0.16,0.22 -0.38,0.39 -0.26,-0.13 -0.61,-1.44 -0.61,-1.71 0.25,-0.28 0.38,-0.67 0.54,-0.93 z M 27.07,24.66 c -0.06,0.00 -0.12,0.01 -0.16,0.03 l 0,0.09 c 0.99,0.74 2.13,2.67 1.81,3.96 -0.00,0 -0.01,0.00 -0.02,0.01 -0.26,-0.29 -0.47,-0.66 -0.86,-0.75 -0.06,0.06 -0.05,0.52 0.04,0.68 0.18,0 0.12,-0.22 0.12,-0.30 0.41,0.08 0.56,0.64 0.78,0.95 0.01,-0.00 0.02,-0.01 0.03,-0.01 0.37,-1.49 -0.28,-3.22 -1.27,-4.30 l 0,-0.05 c 1.01,0 2.58,1.58 3.30,1.58 0.12,-0.12 -0.23,-0.75 -0.26,-0.93 1.09,0.33 2.04,0.86 2.90,1.55 0.09,0.11 0.25,0.32 0.39,0.28 0,-0.33 -0.06,-0.63 -0.04,-0.90 0.13,0.07 0.49,0.55 0.57,0.55 0.08,-0.08 -0.66,-1.06 -0.89,-0.96 0,0.24 0.13,0.54 0.13,0.89 -0.00,0 -0.01,0.00 -0.02,0.01 -0.40,-0.26 -2.56,-1.82 -3.27,-1.65 -0.00,0.02 -0.02,0.04 -0.04,0.07 0.08,0.21 0.24,0.51 0.24,0.75 C 30.07,25.88 27.84,24.64 27.07,24.66 z M 9.77,28.57 c -0.01,1.16e-4 -0.04,0.00 -0.06,0.00 -0.34,0.88 -1.61,1.86 -2.18,2.93 -0.42,1.13 -0.38,3.27 1.30,3.16 0.11,-0.04 0.23,-0.09 0.34,-0.13 0.22,-0.22 0.36,-0.75 0.03,-0.75 -0.05,0.09 -0.02,0.24 -0.04,0.45 -0.46,0.23 -1.51,-0.17 -0.69,-0.74 0.52,-0.24 0.29,-0.43 0.34,-0.88 0.26,-0.46 0.66,-0.30 0.71,-0.52 -0.51,-0.58 -1.17,0.46 -1.19,1.01 -0.14,0.11 -0.26,0.21 -0.43,0.41 -0.31,0 -0.06,-2.16 0.33,-2.35 0.25,-0.57 0.86,-1.14 1.19,-1.56 0.17,-0.32 0.34,-0.63 0.51,-0.95 -0.05,-0.02 -0.08,-0.06 -0.16,-0.06 z M 31.73,32.90 c 0.80,-3.48e-4 1.89,1.12 2.64,0.62 0,-0.20 -0.25,-0.38 -0.25,-0.57 2.03,0.67 1.43,3.56 1.43,5.27 -0.04,0.04 -0.11,-0.11 -0.19,-0.30 -0.03,0 -0.07,2.3e-4 -0.11,0.00 -0.08,0.24 0.27,0.78 0.27,1.20 -0.02,-0.00 -0.25,-0.25 -0.34,-0.29 -0.00,0.00 -0.01,0.01 -0.03,0.02 -0.00,-0.00 -0.01,-0.01 -0.03,-0.02 -0.03,0.06 -0.04,0.04 -0.04,0.16 0.78,1.05 0.40,2.04 0.40,3.28 -0.23,0.35 -1.98,0.45 -2.49,0.48 -0.36,0 -1.82,-0.07 -2.07,-0.32 -1.09,-0.21 0.14,-2.03 0.22,-2.64 0.04,-1.01 -0.94,-2.62 -0.66,-3.30 -0.03,-0.04 -0.06,-0.08 -0.10,-0.12 -0.28,0.09 -0.05,0.38 -0.23,0.57 -0.00,-0.00 -0.01,-0.01 -0.03,-0.01 -0.14,-0.60 -0.27,-1.98 0.03,-2.50 -0.01,-0.03 -0.04,-0.06 -0.06,-0.09 -0.05,0.00 -0.11,0.01 -0.18,0.02 0.01,0.05 -0.02,0.10 -0.04,0.22 l -0.04,0 c -0.25,-0.59 -0.19,-1.14 -0.10,-1.68 0.43,0.06 1.13,0.53 1.36,0.53 0.11,-0.15 0.22,-0.30 0.33,-0.45 0.11,-0.07 0.23,-0.10 0.37,-0.10 z m -6.22,0.45 c 0.64,0.53 1.02,1.30 1.02,2.19 -0.42,0 -0.04,0.45 0.09,0.72 0.56,0.18 1.07,2.50 0.90,2.97 -0.03,0.00 -0.09,0.01 -0.14,0.09 0.06,0.35 0.20,0.65 0.30,1.02 0.04,0.33 0.14,1.43 -0.28,1.64 -0.03,0.06 -0.68,0.51 -0.96,0.44 0.08,-0.13 0.08,-0.23 -0.00,-0.28 -0.14,0.02 -0.28,0.18 -0.45,0.35 -0.28,0.16 -0.82,0.23 -1.25,0.25 -0.90,0 -2.55,0.09 -2.23,-1.26 0.03,-0.06 1.18,-1.84 0.47,-1.14 l -0.04,0 c 0.04,-0.59 0.14,-1.10 0.01,-1.64 -0.62,-1.63 -1.24,-0.95 0.16,-2.30 0.87,-1.01 0.87,-1.71 1.87,-2.37 0.16,-0.21 0.40,-0.62 0.53,-0.70 z" />
</svg>
