<?xml version="1.0" encoding="UTF-8" standalone="no"?>
<!-- Created with Inkscape (http://www.inkscape.org/) -->
<svg xmlns:dc="http://purl.org/dc/elements/1.1/" xmlns:cc="http://creativecommons.org/ns#" xmlns:rdf="http://www.w3.org/1999/02/22-rdf-syntax-ns#" xmlns:svg="http://www.w3.org/2000/svg" xmlns="http://www.w3.org/2000/svg" version="1.0" width="100%" height="100%" viewBox="0 0 48 48" id="svg2">
<defs id="defs8" />
<path d="m 39.68,44.95 c -1.86,-0.19 -2.98,-0.79 -3.22,-1.74 -0.10,-0.39 -0.14,-0.43 -0.62,-0.59 -0.86,-0.28 -2.20,-1.02 -4.06,-2.25 -2.46,-1.63 -5.90,-4.23 -6.42,-4.85 -0.07,-0.09 -0.17,-0.14 -0.21,-0.11 -0.04,0.02 -1.10,0.16 -2.37,0.30 -2.76,0.30 -3.89,0.49 -4.61,0.76 -0.68,0.25 -1.14,0.63 -1.14,0.94 0,0.14 -0.20,0.44 -0.57,0.81 -0.31,0.32 -1.25,1.48 -2.07,2.59 -2.27,3.05 -2.94,3.76 -3.58,3.76 -0.49,0 -0.52,-0.27 -0.18,-1.25 0.68,-1.94 2.80,-6.48 3.30,-7.08 0.19,-0.23 0.19,-0.23 0.19,-0.02 10e-4,0.11 -0.15,0.72 -0.34,1.35 -0.38,1.26 -0.44,1.69 -0.20,1.49 0.13,-0.10 0.30,-0.52 1.22,-2.91 0.20,-0.53 0.32,-0.69 0.60,-0.84 0.61,-0.32 1.22,-1.12 1.80,-2.35 0.99,-2.08 1.07,-2.22 1.40,-2.51 0.40,-0.35 0.56,-0.36 0.77,-0.07 0.23,0.33 0.19,0.77 -0.19,1.95 -0.19,0.58 -0.33,1.08 -0.31,1.10 0.01,0.01 0.26,-0.38 0.55,-0.88 0.86,-1.51 1.54,-2.31 1.82,-2.14 0.15,0.09 0.11,0.29 -0.10,0.57 -0.16,0.20 -0.20,0.40 -0.20,1.08 0,0.52 0.03,0.79 0.09,0.73 0.05,-0.05 0.20,-0.56 0.34,-1.14 0.46,-1.97 0.85,-2.72 1.37,-2.68 0.36,0.02 0.50,-0.10 1.74,-1.61 1.29,-1.58 1.36,-1.66 1.69,-1.86 0.22,-0.13 0.30,-0.14 0.42,-0.04 0.20,0.16 0.21,1.20 0.01,1.20 -0.24,0 -0.26,0.29 -0.05,0.70 0.27,0.53 1.47,1.90 1.67,1.90 0.08,0 0.21,0.07 0.29,0.17 0.22,0.29 0.15,0.37 -0.11,0.12 l -0.25,-0.23 v 0.42 c 0,0.70 0.19,1.29 0.52,1.56 0.16,0.13 0.34,0.24 0.40,0.24 0.05,0 0.41,-0.29 0.80,-0.65 0.93,-0.88 1.41,-1.22 2.03,-1.41 l 0.51,-0.16 0.31,0.31 c 0.37,0.37 0.67,0.39 1.13,0.08 0.67,-0.45 0.94,-1.56 0.52,-2.14 l -0.19,-0.26 0.48,-0.46 c 0.27,-0.26 0.48,-0.55 0.48,-0.67 0,-0.16 -1.29,-2.26 -1.55,-2.52 -0.03,-0.03 0.08,0.32 0.25,0.79 0.42,1.14 0.49,1.39 0.49,1.77 0,0.24 -0.04,0.32 -0.17,0.32 -0.27,-0.00 -0.37,-0.11 -0.55,-0.60 -0.43,-1.14 -1.27,-1.65 -3.48,-2.11 -0.79,-0.16 -1.60,-0.34 -1.79,-0.40 -0.71,-0.22 -1.51,-0.72 -2.00,-1.25 -0.55,-0.59 -0.69,-0.63 -1.43,-0.37 -0.54,0.19 -0.66,0.13 -0.86,-0.46 -0.21,-0.65 -0.21,-0.65 1.01,-0.95 3.44,-0.82 5.34,-0.85 5.91,-0.08 0.07,0.09 0.38,0.30 0.68,0.45 0.31,0.15 1.17,0.83 2.00,1.58 2.06,1.84 2.61,2.18 2.74,1.68 0.04,-0.16 -0.03,-0.29 -0.32,-0.54 -0.29,-0.25 -0.51,-0.62 -0.95,-1.61 -0.67,-1.52 -0.91,-1.93 -1.15,-2.00 -0.18,-0.05 -0.30,-0.46 -0.30,-1.10 -10e-4,-0.41 0.09,-0.46 0.60,-0.28 0.23,0.08 0.61,0.15 0.85,0.15 h 0.43 l 0.98,-1.88 c 1.11,-2.13 2.10,-4.20 2.43,-5.09 0.21,-0.57 0.52,-1.86 0.46,-1.92 -0.01,-0.01 -0.65,0.60 -1.42,1.38 -3.16,3.20 -5.95,5.37 -7.18,5.57 -0.43,0.07 -0.78,-0.21 -0.78,-0.62 0,-0.24 -0.01,-0.25 -0.42,-0.18 -0.79,0.13 -1.91,0.44 -2.22,0.62 -0.27,0.16 -0.30,0.22 -0.27,0.61 0.19,2.64 -3.16,0.05 -4.92,-3.80 l -0.39,-0.85 0.08,1.50 c 0.14,2.58 0.10,4.36 -0.09,4.73 -0.27,0.50 -0.78,0.55 -1.38,0.12 -0.15,-0.10 -0.37,-0.19 -0.50,-0.19 -0.49,0.00 -2.14,0.52 -4.85,1.53 -4.62,1.72 -6.37,2.22 -8.22,2.33 -1.59,0.09 -2.86,-0.26 -3.54,-0.99 -0.30,-0.32 -0.23,-0.63 0.25,-1.11 0.75,-0.72 2.35,-0.96 5.75,-0.84 5.76,0.20 7.38,0.01 8.37,-0.97 0.57,-0.57 0.69,-1.64 0.30,-2.74 -0.20,-0.57 -0.48,-3.89 -0.40,-4.77 0.07,-0.84 0.28,-1.63 0.60,-2.25 0.53,-1.05 2.02,-2.49 2.44,-2.36 0.56,0.17 1.27,1.45 2.15,3.86 1.25,3.42 1.79,4.58 2.17,4.68 0.10,0.02 0.21,0.13 0.24,0.23 0.10,0.33 0.46,0.70 0.68,0.70 0.12,0 0.35,-0.12 0.51,-0.28 0.21,-0.20 0.50,-0.33 1.03,-0.45 1.36,-0.30 2.65,-1.05 4.04,-2.36 1.24,-1.15 2.56,-2.85 4.87,-6.20 2.39,-3.47 3.50,-4.63 4.42,-4.63 0.28,0 0.66,0.61 0.86,1.40 0.25,1.01 0.14,3.42 -0.24,5.27 -0.87,4.13 -2.65,8.38 -4.15,9.94 -0.36,0.37 -0.39,0.45 -0.33,0.77 0.09,0.52 0.59,1.10 1.80,2.12 1.20,1.00 1.61,1.49 1.77,2.09 0.16,0.61 0.04,1.17 -0.48,2.18 -0.46,0.90 -0.47,0.93 -0.47,1.82 0.00,1.50 0.45,2.48 2.86,6.29 1.39,2.19 2.14,3.60 2.50,4.70 0.20,0.62 0.24,0.95 0.24,1.90 0,1.07 -0.02,1.19 -0.29,1.75 -0.36,0.75 -1.56,1.96 -2.46,2.48 -0.71,0.41 -0.96,0.44 -2.71,0.26 z m 0.32,-1.51 c -1.20,-2.00 -2.32,-4.29 -2.32,-4.72 0,-0.08 0.04,-0.18 0.10,-0.21 0.16,-0.10 0.11,-0.47 -0.13,-0.90 -0.24,-0.42 -0.24,-0.64 -0.01,-0.64 0.14,0 0.31,0.41 0.65,1.57 0.25,0.88 0.41,1.05 0.65,0.68 0.09,-0.14 0.24,-0.25 0.33,-0.25 0.33,10e-4 0.77,0.38 1.06,0.93 0.16,0.31 0.32,0.56 0.36,0.56 0.03,10e-4 0.08,-0.47 0.10,-1.05 0.05,-1.17 0.18,-1.48 0.39,-0.90 0.11,0.30 0.17,0.36 0.42,0.36 0.16,0 0.37,0.07 0.47,0.15 0.16,0.14 0.17,0.13 0.23,-0.14 0.03,-0.16 0.12,-0.35 0.20,-0.41 0.10,-0.09 0.16,-0.05 0.28,0.17 0.08,0.15 0.17,0.45 0.21,0.65 0.03,0.20 0.10,0.37 0.13,0.37 0.16,0 0.31,-0.26 0.31,-0.58 0,-0.75 -0.93,-3.01 -1.73,-4.20 -0.19,-0.28 -0.38,-0.65 -0.41,-0.81 -0.15,-0.70 -0.92,-1.03 -1.88,-0.81 -1.85,0.43 -3.87,2.19 -3.88,3.40 -0.00,0.19 -0.07,0.44 -0.15,0.55 -0.49,0.65 0.36,3.42 1.23,4.01 0.45,0.30 0.49,0.30 0.48,0.02 -0.00,-0.15 0.07,-0.25 0.26,-0.31 0.24,-0.08 0.31,-0.05 0.64,0.29 0.20,0.21 0.61,0.77 0.91,1.24 0.63,0.98 0.90,1.30 1.10,1.30 0.11,0 0.09,-0.07 -0.05,-0.32 z m -7.54,-5.05 c 0,-0.14 0.19,-0.62 0.44,-1.07 0.24,-0.44 0.47,-0.99 0.51,-1.21 0.12,-0.71 0.46,-0.85 0.87,-0.36 l 0.24,0.28 0.23,-0.50 c 0.13,-0.27 0.44,-0.73 0.69,-1.01 0.66,-0.74 0.90,-1.07 0.84,-1.17 -0.03,-0.04 -0.30,-0.08 -0.60,-0.08 -0.32,0 -0.54,-0.04 -0.54,-0.10 0,-0.05 -0.05,-0.08 -0.12,-0.06 -0.07,0.02 -0.11,0.16 -0.09,0.34 0.05,0.55 0.04,0.55 -1.88,-0.51 -0.76,-0.42 -1.12,-0.45 -1.35,-0.13 l -0.16,0.22 -0.19,-0.23 c -0.19,-0.23 -1.09,-0.76 -1.17,-0.68 -0.02,0.02 0.17,0.53 0.43,1.13 0.32,0.74 0.47,1.23 0.48,1.54 0.00,0.41 -0.01,0.45 -0.26,0.48 -0.33,0.03 -0.34,0.09 -0.03,0.53 0.78,1.09 1.26,1.83 1.26,1.96 0,0.11 -0.10,0.14 -0.42,0.13 -0.23,-0.00 -0.46,-0.01 -0.51,-0.00 -0.15,0.01 0.37,0.52 0.69,0.66 0.48,0.21 0.65,0.18 0.65,-0.11 z m 5.16,-5.44 c 0.10,-0.17 -0.06,-0.41 -0.30,-0.41 -0.13,0 -0.26,-0.06 -0.30,-0.15 -0.03,-0.08 -0.09,-0.15 -0.14,-0.15 -0.13,0 -0.10,0.54 0.03,0.68 0.14,0.14 0.64,0.16 0.72,0.02 z m 1.50,-0.43 c -0.03,-0.17 -0.11,-0.34 -0.16,-0.36 -0.05,-0.02 -0.21,-0.16 -0.35,-0.32 -0.17,-0.19 -0.35,-0.28 -0.55,-0.28 -0.27,0 -0.28,0.02 -0.22,0.27 0.14,0.58 0.64,1.01 1.19,1.02 0.15,0.00 0.17,-0.04 0.11,-0.32 z m 1.15,-0.32 c 0,-0.20 -0.46,-1.22 -0.66,-1.46 -0.31,-0.37 -0.51,-0.38 -0.60,-0.02 -0.18,0.70 0.00,1.22 0.51,1.43 0.21,0.08 0.75,0.12 0.75,0.04 z m -0.66,-6.56 c 0.03,-0.21 0.08,-0.45 0.11,-0.53 0.03,-0.10 -0.03,-0.16 -0.23,-0.20 -0.17,-0.03 -0.31,-0.13 -0.34,-0.24 -0.07,-0.27 0.16,-0.88 0.51,-1.32 0.35,-0.44 0.38,-0.59 0.11,-0.59 -0.44,0 -1.21,1.46 -1.21,2.32 0,0.33 0.23,0.84 0.42,0.92 0.38,0.15 0.55,0.06 0.61,-0.32 z m -2.06,-0.64 c 0.03,-0.36 0.02,-0.36 -0.33,-0.36 -0.33,0 -0.35,0.02 -0.29,0.22 0.09,0.29 0.35,0.59 0.48,0.54 0.05,-0.01 0.12,-0.20 0.13,-0.40 z m -16.53,-8.08 c -0.05,-0.10 -0.14,-0.22 -0.20,-0.25 -0.15,-0.09 -0.97,-1.78 -1.10,-2.25 -0.15,-0.56 -0.13,-1.74 0.04,-3.00 0.22,-1.53 0.21,-1.60 -0.13,-1.60 -0.42,0 -0.60,0.09 -0.76,0.40 -0.19,0.37 -0.18,1.25 0.01,2.56 0.12,0.78 0.13,1.08 0.05,1.16 -0.18,0.18 -0.13,0.87 0.09,1.24 0.21,0.34 1.87,1.94 2.02,1.94 0.04,0 0.03,-0.08 -0.02,-0.19 z m 17.29,-7.99 c 0.30,-0.42 0.55,-0.82 0.55,-0.89 0,-0.07 -0.08,-0.19 -0.18,-0.26 -0.10,-0.07 -0.21,-0.20 -0.24,-0.30 -0.08,-0.24 -0.19,-0.22 -0.52,0.10 -0.60,0.59 -0.82,1.55 -0.45,1.93 0.11,0.11 0.21,0.20 0.24,0.20 0.02,0 0.29,-0.34 0.60,-0.76 z m -8.73,19.47 c -0.59,-0.21 -1.19,-0.77 -1.39,-1.28 -0.32,-0.84 0.16,-1.39 1.47,-1.66 0.97,-0.20 1.92,0.18 2.68,1.09 0.67,0.80 0.56,0.95 -1.20,1.66 -0.84,0.33 -1.06,0.36 -1.56,0.18 z" />
</svg>
