<?xml version="1.0" encoding="UTF-8" standalone="no"?>
<!-- Created with Inkscape (http://www.inkscape.org/) -->
<svg xmlns:dc="http://purl.org/dc/elements/1.1/" xmlns:cc="http://creativecommons.org/ns#" xmlns:rdf="http://www.w3.org/1999/02/22-rdf-syntax-ns#" xmlns:svg="http://www.w3.org/2000/svg" xmlns="http://www.w3.org/2000/svg" version="1.1" width="100%" height="100%" viewBox="0 0 48 48" id="svg2">
<defs id="defs39" />
<path d="m 6.36,1.32 c -0.04,0.00 -0.08,0.00 -0.13,0.01 -0.14,0.01 -0.29,0.07 -0.44,0.14 -0.03,-0.01 -0.07,-0.04 -0.18,-0.04 -0.07,-0.00 -0.20,0.03 -0.26,0.14 -0.01,0.03 -0.01,0.06 -0.02,0.09 -0.03,0.01 -0.07,0.02 -0.12,0.05 -0.10,0.06 -0.22,0.14 -0.33,0.23 -0.19,0.16 -0.37,0.36 -0.46,0.62 -0.41,0.14 -0.85,0.32 -1.80,0.36 -0.22,0.01 -0.39,0.15 -0.45,0.33 -0.02,0.09 -0.02,0.21 0.04,0.30 0.04,0.06 0.10,0.09 0.17,0.11 0.04,0.05 0.09,0.08 0.15,0.12 0.08,0.05 0.18,0.09 0.30,0.14 0.23,0.09 0.53,0.20 0.84,0.32 0.61,0.23 1.24,0.57 1.40,0.88 l 0,0.00 c 0.34,0.63 0.73,0.73 0.91,0.84 0.09,0.05 0.14,0.09 0.22,0.25 0.07,0.16 0.16,0.43 0.23,0.91 0.28,1.84 -0.75,4.19 -1.42,5.84 -0.35,0.90 -0.69,2.58 -0.73,4.43 -0.04,1.85 0.20,3.86 1.06,5.39 7.85e-4,0.00 0.00,0.00 0.00,0.01 0.11,0.23 0.28,0.86 0.50,1.49 0.22,0.63 0.51,1.30 0.98,1.69 l 0.14,-0.10 c 0.03,0.07 0.04,0.09 0.08,0.17 0.15,0.27 0.34,0.58 0.58,0.80 l 0.27,-0.14 c 0.39,1.45 0.61,3.13 1.96,4.59 l 0.00,0.00 c 0.04,0.04 0.06,0.08 0.17,0.11 0.05,0.01 0.18,-0.00 0.23,-0.07 0.03,-0.03 0.02,-0.05 0.03,-0.08 0.06,0.07 0.10,0.10 0.17,0.20 0.18,0.26 0.38,0.58 0.61,0.88 0.22,0.29 0.45,0.57 0.72,0.77 0.23,0.16 0.52,0.25 0.80,0.19 0.03,0.02 0.08,0.05 0.14,0.10 0.12,0.09 0.30,0.21 0.52,0.34 0.42,0.25 0.98,0.51 1.60,0.51 l 0.05,-0.20 c 0.18,-0.01 0.55,0.01 0.99,0.03 0.45,0.02 0.98,0.04 1.47,0.03 0.49,-0.01 0.95,-0.06 1.29,-0.21 l -0.01,-0.36 c 0.18,-0.09 0.50,-0.24 0.84,-0.49 0.00,-0.00 0.00,-0.00 0.00,-0.00 0.22,-0.15 0.44,-0.35 0.58,-0.45 -0.06,1.59 0.58,2.57 1.13,3.36 0.27,0.39 0.52,0.74 0.66,1.09 0.13,0.35 0.17,0.70 0.03,1.17 -0.07,0.25 -0.43,0.52 -1.03,0.74 -0.60,0.21 -1.42,0.38 -2.33,0.50 -1.82,0.24 -4.00,0.32 -5.63,0.37 l -0.00,0 c -0.43,0.02 -0.80,0.20 -1.10,0.46 -0.30,0.26 -0.54,0.59 -0.75,0.95 -0.43,0.71 -0.78,1.49 -1.20,1.90 -0.43,0.41 -0.90,0.56 -1.29,0.72 -0.19,0.07 -0.37,0.15 -0.51,0.31 -0.13,0.15 -0.19,0.39 -0.14,0.64 0.04,0.23 0.25,0.37 0.46,0.44 0.20,0.07 0.44,0.10 0.68,0.10 0.24,0.00 0.48,-0.01 0.69,-0.05 0.15,-0.02 0.28,-0.06 0.39,-0.13 0.42,0.09 0.77,0.02 1.02,-0.15 0.26,-0.19 0.40,-0.47 0.51,-0.73 0.10,-0.25 0.19,-0.50 0.26,-0.62 0.03,-0.05 0.06,-0.08 0.08,-0.08 0.00,-0.00 0.02,0.00 0.02,0.00 -0.00,0.00 4.7e-5,0.00 -0.00,0.01 -0.03,0.11 -0.11,0.27 -0.19,0.44 -0.07,0.16 -0.15,0.33 -0.11,0.53 0.01,0.10 0.09,0.22 0.20,0.27 0.10,0.05 0.21,0.06 0.34,0.05 0.00,-1.07e-4 0.00,1.08e-4 0.00,0 0.39,-0.02 0.66,-0.09 0.86,-0.24 0.19,-0.15 0.28,-0.36 0.34,-0.57 0.11,-0.42 0.14,-0.89 0.62,-1.51 0.00,-0.00 0.00,-0.00 0.00,-0.00 0.15,-0.19 0.09,-0.16 0.36,-0.23 0.26,-0.06 0.81,-0.18 1.96,-0.54 9.68e-4,-3.22e-4 0.00,3.23e-4 0.00,0 1.06,-0.29 2.48,-0.46 3.77,-0.53 1.29,-0.06 2.47,-0.01 3.01,0.09 0.89,0.19 1.60,-0.05 1.94,-0.54 0.34,-0.49 0.28,-1.20 -0.20,-1.79 -0.20,-0.24 -0.51,-1.05 -0.67,-2.05 -0.15,-0.93 -0.17,-2.05 0.02,-3.09 0.94,0.23 1.71,0.28 2.16,0.53 0.85,0.49 1.58,0.61 2.14,0.75 0.56,0.13 0.92,0.25 1.24,0.76 8.6e-4,0.00 0.00,0.00 0.00,0.00 0.56,0.96 1.37,1.41 2.11,1.72 0.74,0.30 1.43,0.48 1.83,0.86 l 0,-0.00 c 3.17,2.99 4.15,4.75 4.70,5.78 0.27,0.51 0.44,0.86 0.76,1.09 0.32,0.23 0.74,0.28 1.43,0.25 0.37,-0.01 1.19,0.23 1.97,0.40 0.38,0.08 0.77,0.14 1.12,0.14 0.34,-0.00 0.68,-0.09 0.90,-0.34 l 0.00,-0.00 c 0.40,-0.51 0.63,-0.85 0.84,-1.10 0.20,-0.25 0.37,-0.43 0.67,-0.65 0.00,-0.00 0.00,-0.00 0.00,-0.00 0.23,-0.16 0.37,-0.41 0.32,-0.67 -0.05,-0.25 -0.32,-0.42 -0.65,-0.44 l -0.00,0 c -0.89,-0.03 -1.46,0.25 -1.85,0.50 -0.19,0.12 -0.34,0.23 -0.45,0.28 -0.08,0.03 -0.13,0.04 -0.19,0.03 -0.04,-0.07 -0.09,-0.14 -0.16,-0.19 -0.11,-0.08 -0.26,-0.14 -0.43,-0.18 -0.33,-0.07 -0.76,-0.07 -1.21,0.07 -0.00,0.00 -0.00,0.00 -0.01,0.00 -0.11,0.02 -0.24,0.04 -0.36,-0.01 -0.12,-0.05 -0.26,-0.17 -0.38,-0.53 -0.52,-1.64 -1.91,-2.91 -3.34,-4.13 -1.42,-1.22 -2.90,-2.40 -3.66,-3.79 l 0,-0.00 c -0.86,-1.55 -1.87,-1.88 -2.61,-1.94 -0.93,-0.07 -1.47,-0.38 -2.05,-0.87 -0.51,-0.43 -1.07,-1.02 -1.83,-1.67 0.20,-0.10 0.36,-0.24 0.47,-0.36 0.16,-0.18 0.24,-0.28 0.39,-0.32 0.58,0.11 1.41,0.13 2.15,0.24 0.38,0.05 0.74,0.12 1.00,0.23 0.26,0.10 0.41,0.24 0.46,0.40 l 0.40,0 c 0.13,-0.39 0.11,-0.81 0.03,-1.17 0.00,0.00 0.00,0.00 0.01,0.01 l 0.36,-0.17 c -0.03,-0.39 -0.16,-0.67 -0.28,-0.87 -0.09,-0.16 -0.13,-0.22 -0.15,-0.27 0.28,-0.24 0.51,-0.51 0.67,-0.76 0.19,0.19 0.29,0.45 0.35,0.65 0.02,0.06 0.03,0.10 0.06,0.16 0.01,0.02 0.02,0.06 0.08,0.10 0.05,0.04 0.18,0.05 0.25,0.02 0.06,-0.03 0.09,-0.07 0.11,-0.10 0.02,-0.03 0.03,-0.06 0.04,-0.10 0.00,-0.00 0.00,-0.01 0.00,-0.02 0.94,0.73 2.02,1.03 3.35,1.04 0.09,0.09 0.20,0.18 0.39,0.30 0.23,0.15 0.52,0.32 0.86,0.47 0.67,0.30 1.50,0.55 2.27,0.38 l 0.10,-0.36 c -0.81,-0.80 -0.73,-1.68 -0.76,-2.53 0.14,-0.00 0.30,-0.01 0.46,-0.07 l 0.10,-0.32 c -0.00,-0.01 -0.01,-0.01 -0.02,-0.02 0.07,-0.00 0.14,-0.00 0.22,-0.02 l 0.10,-0.36 C 40.50,26.30 40.26,25.60 40.08,24.89 39.94,24.34 39.83,23.79 39.59,23.35 l 0.19,-0.25 c -0.83,-1.48 -1.83,-3.04 -3.63,-3.99 0.02,-0.01 0.02,-0.02 0.19,-0.06 l 0.01,-0.41 c -0.89,-0.27 -1.97,-0.33 -2.81,-0.16 l -0.23,-0.22 c -0.91,0.25 -1.36,0.07 -1.80,-0.15 -0.40,-0.21 -0.79,-0.52 -1.37,-0.52 -0.24,-0.32 -0.57,-0.44 -0.85,-0.48 -0.10,-0.01 -0.18,-0.01 -0.27,-0.02 0.00,-0.00 0.01,-0.01 0.01,-0.02 l -0.22,-0.32 c -0.77,0.18 -0.67,0.17 -2.15,0.07 l -0.00,0 c -1.22,-0.05 -2.15,-0.37 -2.96,-0.61 -0.81,-0.24 -1.53,-0.43 -2.28,-0.15 -0.91,0.33 -1.38,0.29 -1.80,0.26 -0.40,-0.02 -0.81,0.00 -1.34,0.41 -1.18,-0.07 -2.31,-0.05 -3.30,0.72 L 14.66,17.19 c -1.28,1.00 -2.35,2.28 -3.49,3.31 l -0.00,0.00 c -0.53,0.49 -1.11,0.56 -1.65,0.41 -0.43,-0.11 -0.81,-0.39 -1.06,-0.71 0.00,-0.00 0.01,-0.00 0.02,-0.00 0.05,-0.01 0.09,-0.03 0.14,-0.06 0.01,-0.00 0.02,-0.01 0.04,-0.03 0.01,-0.01 0.05,-0.03 0.07,-0.12 0.00,-0.04 2.15e-4,-0.12 -0.03,-0.16 -0.03,-0.04 -0.07,-0.06 -0.10,-0.07 -0.05,-0.02 -0.07,-0.01 -0.09,-0.01 -0.31,0 -0.51,-0.10 -0.68,-0.25 -0.16,-0.14 -0.28,-0.34 -0.37,-0.52 -0.74,-2.05 0.29,-4.87 1.18,-7.80 0.87,-2.86 1.56,-5.85 0.04,-8.32 0.08,-0.08 0.16,-0.22 0.18,-0.40 L 8.55,2.19 c -0.07,0.03 -0.16,0.01 -0.34,-0.07 -0.17,-0.09 -0.38,-0.24 -0.63,-0.39 -0.24,-0.15 -0.52,-0.30 -0.83,-0.36 -0.11,-0.02 -0.24,-0.03 -0.37,-0.03 z m 0.01,0.42 c 0.09,-0.00 0.17,0.00 0.26,0.02 0.23,0.04 0.47,0.16 0.70,0.30 0.22,0.14 0.44,0.30 0.66,0.41 0.08,0.04 0.17,0.06 0.26,0.09 -0.01,0.01 -0.02,0.00 -0.05,0.04 l 0,0.04 -0.02,0.03 c 0.00,0.01 0.01,0.02 0.02,0.03 l 0,0.12 c 1.54,2.32 0.88,5.22 0,8.13 -0.77,2.55 -1.74,5.08 -1.40,7.21 0.02,0.27 0.06,0.55 0.12,0.83 l 0.00,0.01 c 0.16,0.46 0.05,0.73 -0.03,1.05 -0.08,0.27 -0.13,0.59 0.04,0.99 -0.04,0.00 -0.10,-0.01 -0.14,-0.00 -0.09,0.02 -0.16,0.09 -0.20,0.16 -0.08,0.14 -0.08,0.32 -0.09,0.46 -0.00,0.07 -0.01,0.13 -0.02,0.17 -0.01,0.04 -0.02,0.05 -0.03,0.05 -0.00,0.00 -0.02,0.01 -0.09,-0.01 -0.06,-0.02 -0.16,-0.07 -0.30,-0.16 l -0.16,0.12 c 0.06,0.20 0.06,0.32 0.05,0.37 -0.01,0.05 -0.01,0.05 -0.04,0.06 -0.03,0.00 -0.08,0.00 -0.15,0.01 -0.01,0.00 -0.02,0.01 -0.04,0.01 -0.42,-0.67 -0.69,-1.50 -0.85,-2.40 -0.13,-0.82 -0.17,-1.69 -0.15,-2.52 0.02,-0.92 0.12,-1.81 0.25,-2.57 0.01,-0.09 0.03,-0.18 0.05,-0.27 0.01,-0.05 0.01,-0.10 0.03,-0.15 0.04,-0.22 0.09,-0.44 0.15,-0.65 0.00,-0.02 0.01,-0.05 0.02,-0.08 0.05,-0.20 0.12,-0.39 0.18,-0.54 3.23e-4,-8.6e-4 -3.22e-4,-0.00 0,-0.00 0.12,-0.30 0.26,-0.63 0.40,-0.98 0.04,-0.08 0.09,-0.15 0.13,-0.21 0.98,-1.31 1.77,-2.51 2.15,-3.71 0.38,-1.19 0.35,-2.38 -0.27,-3.64 l -0.19,0 c -0.19,0.37 -0.50,0.60 -0.81,0.73 -0.31,0.12 -0.64,0.13 -0.82,0.07 -0.16,-0.05 -0.27,-0.11 -0.34,-0.17 -0.04,-0.05 -0.09,-0.13 -0.14,-0.21 0.07,0.05 0.15,0.10 0.26,0.14 0.17,0.05 0.48,0.12 0.76,-0.00 0.14,-0.06 0.26,-0.18 0.34,-0.37 0.06,-0.16 0.09,-0.38 0.07,-0.65 0.00,6.34e-4 0.01,-1.72e-4 0.02,0 0.01,2.47e-4 0.02,5.16e-4 0.04,-0.00 0.01,-0.00 0.05,-0.00 0.08,-0.05 0.02,-0.04 0.01,-0.10 0,-0.12 C 7.08,3.95 7.06,3.94 7.05,3.93 7.02,3.90 6.99,3.88 6.93,3.84 6.82,3.77 6.65,3.67 6.35,3.51 l -0.01,-0.00 c -0.05,-0.01 -0.09,-0.05 -0.14,-0.09 0.06,0.03 0.14,0.05 0.24,0.05 0.12,0 0.22,-0.02 0.29,-0.08 0.07,-0.05 0.11,-0.11 0.14,-0.17 0.03,-0.05 0.05,-0.10 0.06,-0.13 0.01,-0.02 0.01,-0.02 0.03,-0.02 l 0,-0.21 c -0.02,-0.00 -0.02,-0.00 -0.04,-0.02 -0.01,-0.02 -0.03,-0.06 -0.06,-0.12 -0.02,-0.05 -0.06,-0.12 -0.12,-0.17 -0.06,-0.05 -0.15,-0.09 -0.27,-0.10 -0.14,-0.01 -0.25,0.01 -0.34,0.07 -0.08,0.05 -0.14,0.11 -0.19,0.17 -0.11,0.10 -0.20,0.19 -0.56,0.15 l -0.00,0 C 5.21,2.81 5.16,2.73 5.07,2.64 5.03,2.60 4.97,2.55 4.89,2.54 c 0.06,-0.08 0.14,-0.18 0.23,-0.25 0.09,-0.07 0.19,-0.14 0.27,-0.19 0.08,-0.04 0.15,-0.07 0.15,-0.07 l 0.09,-0.13 c 0.02,0.00 0.02,0.01 0.07,0.02 l 0.15,-0.01 c 0.14,-0.07 0.27,-0.11 0.39,-0.13 0.03,-0.00 0.06,-0.00 0.09,-0.00 z m 0.01,0.88 c 0.02,-9.03e-4 0.04,9.35e-4 0.07,0.00 l 0.00,0 c 0.08,0.00 0.12,0.02 0.15,0.05 0.02,0.02 0.05,0.05 0.07,0.10 0.02,0.04 0.03,0.09 0.07,0.15 0.00,0.00 0.00,0.00 0.01,0.01 -0.00,0.00 -0.00,0.00 -0.00,0.00 -0.03,0.05 -0.05,0.10 -0.07,0.15 -0.01,0.03 -0.04,0.06 -0.06,0.08 l 0,-0.06 c -0.20,-0.06 -0.25,-0.13 -0.28,-0.19 -0.02,-0.06 -0.00,-0.15 0.00,-0.26 l -0.05,-0.03 c 0.02,-0.00 0.05,-0.01 0.09,-0.02 z m -1.52,0.16 c -0.00,-2.25e-4 0.01,0.01 0.05,0.06 0.08,0.09 0.25,0.23 0.63,0.32 l 0,0.00 c 0.13,0.03 0.19,0.10 0.30,0.23 0.11,0.13 0.26,0.30 0.54,0.45 9.57e-4,4.94e-4 0.00,-4.94e-4 0.00,0 0.34,0.18 0.37,0.61 0.18,0.88 -0.09,0.13 -0.22,0.22 -0.41,0.22 -0.19,0.00 -0.44,-0.07 -0.74,-0.32 l -0.00,-0.00 C 5.11,4.40 4.68,4.22 4.26,4.07 4.12,4.01 3.98,3.95 3.85,3.90 c 0.87,0.16 1.34,0.16 1.68,0.29 l 0.00,0.00 c 0.11,0.03 0.34,0.17 0.52,0.26 0.04,0.02 0.08,0.04 0.12,0.05 0.04,0.01 0.08,0.02 0.13,0.00 0.02,-0.00 0.06,-0.02 0.08,-0.05 0.01,-0.02 0.02,-0.06 0.02,-0.08 0.00,-0.05 -0.01,-0.09 -0.03,-0.15 C 6.34,4.09 6.23,3.98 6.09,3.89 5.95,3.80 5.80,3.73 5.65,3.73 l -0.00,0 c -1.17,0.07 -1.90,-0.07 -2.37,-0.22 -0.18,-0.05 -0.32,-0.11 -0.44,-0.15 0.92,-0.06 1.42,-0.28 1.79,-0.40 l 0.08,-0.09 c 0.03,-0.01 0.07,-0.02 0.11,-0.04 l 0.00,0 c 0.02,-0.01 0.03,-0.01 0.04,-0.01 z m 0.95,0.26 c 0.01,6.66e-4 0.02,-6.02e-4 0.04,0 0.01,0.02 0.04,0.06 0.07,0.11 -0.03,-0.03 -0.07,-0.07 -0.12,-0.11 z m -1.78,0.19 c -0.01,1.29e-4 -0.02,0.00 -0.04,0.00 -0.10,0.01 -0.17,0.08 -0.27,0.18 l 0.11,0.17 c 0.09,-0.03 0.19,-0.05 0.27,-0.05 0.04,-0.00 0.07,-0.00 0.10,-0.00 0.01,-8.70e-4 0.03,-6.23e-4 0.05,-0.00 0.01,-0.00 0.02,-0.00 0.04,-0.02 0.01,-0.01 0.04,-0.05 0.04,-0.09 l -0.05,-0.09 c -0.10,-0.05 -0.17,-0.09 -0.26,-0.09 z m 1.61,0.69 0,0.00 c 0.07,0 0.21,0.04 0.32,0.12 0.10,0.06 0.17,0.15 0.20,0.20 -0.00,-0.00 -0.01,-0.00 -0.01,-0.00 -0.15,-0.07 -0.36,-0.21 -0.55,-0.27 -0.00,-8.27e-4 -0.00,-0.00 -0.00,-0.00 -0.05,-0.02 -0.12,-0.02 -0.18,-0.04 0.07,-0.00 0.14,-0.00 0.22,-0.00 z m 2.06,1.06 c 0.38,1.03 0.46,2.00 0.18,3.04 -0.25,0.94 -0.82,1.97 -1.68,3.13 0.19,-0.52 0.37,-1.07 0.50,-1.62 0.00,-0.01 0.00,-0.03 0.01,-0.05 0.00,-0.01 0.00,-0.03 0.01,-0.04 0.35,-1.50 0.31,-2.73 -0.05,-3.68 0.24,-0.09 0.74,-0.27 1.03,-0.76 z m -1.23,0.66 -0.03,0.07 c 0.03,0.07 0.06,0.15 0.08,0.23 -0.08,-0.13 -0.18,-0.22 -0.27,-0.29 0.07,1.72e-4 0.14,-0.00 0.22,-0.01 z M 22.11,16.28 c 0.42,-0.01 0.88,0.10 1.43,0.27 0.79,0.24 1.77,0.57 3.06,0.63 0.00,5.7e-5 0.00,-5.7e-5 0.00,0 1.12,0.08 1.41,0.09 1.83,0.01 l -0.02,0.17 c 0.27,0.13 0.55,0.08 0.79,0.10 0.24,0.02 0.42,0.08 0.61,0.37 l 0.19,0.09 c 0.48,-0.03 0.78,0.22 1.25,0.48 0.39,0.21 0.92,0.38 1.67,0.27 l 0.21,0.26 c 0.01,-0.00 0.02,-0.00 0.03,-0.01 -0.05,0.07 -0.09,0.17 -0.12,0.26 l 0.03,0.11 c 0.28,0.23 0.71,0.25 1.16,0.35 0.38,0.08 0.79,0.22 1.14,0.53 -0.02,0.00 -0.07,0.00 -0.09,0.01 -0.08,0.01 -0.14,0.01 -0.19,0.08 -0.02,0.03 -0.03,0.10 -0.01,0.13 0.01,0.03 0.03,0.05 0.05,0.07 0.04,0.04 0.09,0.08 0.15,0.13 0.20,0.16 0.51,0.43 0.74,0.90 -0.31,-0.25 -0.71,-0.51 -1.17,-0.69 -0.31,-0.12 -0.65,-0.20 -0.97,-0.18 -0.32,0.01 -0.63,0.11 -0.88,0.35 l 0.05,0.18 c 0.41,0.08 0.65,0.17 0.85,0.34 0.11,0.08 0.21,0.21 0.33,0.35 -0.48,-0.24 -0.92,-0.30 -1.37,-0.19 l 0,0.20 c 0.68,0.16 1.39,0.58 1.82,1.50 -0.37,-0.32 -0.83,-0.55 -1.26,-0.65 -0.30,-0.06 -0.58,-0.07 -0.81,0.00 -0.22,0.08 -0.39,0.27 -0.41,0.54 -0.02,0.40 0.10,0.62 0.20,0.80 0.10,0.18 0.17,0.33 0.11,0.72 l 0.07,0.11 c 0.76,0.23 1.06,0.50 1.29,0.73 0.23,0.23 0.41,0.45 0.86,0.54 l 0.10,-0.16 c -0.08,-0.11 -0.10,-0.20 -0.10,-0.24 -9.67e-4,-0.04 0.00,-0.05 0.02,-0.06 0.01,-0.01 0.05,-0.01 0.08,-0.01 0.03,0.00 0.06,0.02 0.07,0.04 0.57,0.88 1.23,2.00 2.11,2.89 0.04,0.04 0.08,0.08 0.12,0.12 -1.36,-0.01 -2.36,-0.31 -3.27,-1.11 l -0.29,0.08 c -0.09,-0.25 -0.24,-0.57 -0.60,-0.78 l -0.08,0.14 -0.22,-0.05 c -0.11,0.22 -0.44,0.65 -0.80,0.93 -0.21,-0.27 -0.43,-0.50 -0.55,-0.58 -0.97,-0.94 -2.38,-1.20 -3.44,-2.01 0.92,0.03 2.14,0.22 2.83,0.37 -0.57,-0.99 -1.82,-1.58 -2.98,-1.62 -0.63,-0.05 -1.30,-0.07 -1.88,-0.36 -0.12,0.80 0.21,2.06 -0.72,2.77 -0.91,0.89 -0.17,2.03 0.84,2.36 0.60,0.32 1.24,0.50 1.90,0.61 -0.14,0.09 -0.25,0.23 -0.34,0.33 -0.15,0.16 -0.28,0.30 -0.60,0.35 l -0.06,0.24 c -1.34,-1.07 -2.79,-1.97 -4.57,-2.05 -1.22,-0.21 -2.22,0.73 -3.37,0.75 -0.94,0.81 0.80,1.61 1.27,2.23 1.15,0.93 2.48,1.67 3.89,2.14 l -0.11,0.06 c -0.19,0.86 -0.22,1.76 -0.16,2.59 -0.13,-0.94 0.17,-2.09 -0.69,-2.72 -0.17,-0.08 -0.36,-0.11 -0.55,-0.11 -1.07e-4,0.02 -3.22e-4,0.05 0,0.07 -0.01,-0.03 -0.02,-0.06 -0.04,-0.09 -0.29,-0.56 -0.93,-0.78 -1.53,-0.77 -0.22,0.07 -0.36,0.20 -0.44,0.36 -0.00,-0.10 -0.00,-0.22 0,-0.33 0.00,-0.09 0.00,-0.17 -0.02,-0.25 -0.02,-0.07 -0.07,-0.16 -0.16,-0.21 -0.09,-0.04 -0.18,-0.03 -0.25,-0.01 -0.06,0.01 -0.12,0.04 -0.17,0.08 -0.21,0.13 -0.45,0.36 -0.64,0.50 l -0.00,0.00 c -0.33,0.24 -0.67,0.38 -0.90,0.51 -0.05,0.03 -0.10,0.06 -0.15,0.11 -0.04,0.05 -0.10,0.16 -0.07,0.27 -0.21,0.04 -0.46,0.06 -0.74,0.07 -0.47,0.01 -0.98,-0.00 -1.44,-0.03 -0.45,-0.02 -0.83,-0.04 -1.08,-0.03 -0.06,0.00 -0.11,0.01 -0.17,0.03 -0.02,0.00 -0.05,0.02 -0.09,0.05 -0.02,0.01 -0.03,0.05 -0.05,0.08 -0.37,-0.07 -0.74,-0.24 -1.04,-0.41 -0.19,-0.11 -0.36,-0.23 -0.48,-0.32 -0.06,-0.04 -0.11,-0.08 -0.16,-0.11 -0.02,-0.01 -0.04,-0.02 -0.06,-0.04 -0.02,-0.01 -0.02,-0.03 -0.13,-0.03 l -0.08,0.01 c -0.16,0.06 -0.31,0.02 -0.51,-0.11 -0.20,-0.14 -0.42,-0.39 -0.63,-0.68 -0.21,-0.28 -0.41,-0.59 -0.60,-0.87 -0.19,-0.27 -0.35,-0.51 -0.56,-0.65 l -0.01,-0.00 c -0.06,-0.03 -0.13,-0.08 -0.26,-0.04 -0.05,0.02 -0.09,0.06 -0.12,0.10 -0.98,-1.28 -1.19,-2.71 -1.56,-4.08 -3.23e-4,-0.00 3.22e-4,-0.00 0,-0.00 -0.04,-0.17 -0.08,-0.28 -0.18,-0.37 -0.05,-0.04 -0.14,-0.08 -0.23,-0.07 -0.08,0.01 -0.14,0.06 -0.17,0.10 -0.01,0.01 -0.01,0.02 -0.02,0.04 -0.08,-0.12 -0.17,-0.26 -0.24,-0.40 -0.14,-0.25 -0.24,-0.49 -0.29,-0.60 l -0.37,0.01 c -0.20,-0.30 -0.37,-0.70 -0.52,-1.10 -0.21,-0.61 -0.36,-1.21 -0.53,-1.55 l -0.00,-0.01 c -0.01,-0.02 -0.02,-0.04 -0.03,-0.06 l 0.10,-0.03 c 0,-0.00 -0.00,0.02 -0.02,0.03 -0.01,0.00 -0.00,0.00 0.01,0 0.03,-0.00 0.10,0.00 0.18,-0.02 0.08,-0.02 0.17,-0.10 0.19,-0.22 0.01,-0.06 0.00,-0.15 -0.00,-0.25 0.04,0.02 0.10,0.06 0.14,0.07 0.09,0.03 0.18,0.03 0.26,-0.00 0.07,-0.04 0.11,-0.11 0.13,-0.18 0.01,-0.07 0.02,-0.14 0.02,-0.21 0.00,-0.14 0.02,-0.29 0.06,-0.36 0.02,-0.03 0.04,-0.05 0.08,-0.07 0.04,-0.01 0.11,-0.01 0.22,0.01 l 0.11,-0.16 c -0.25,-0.43 -0.19,-0.68 -0.10,-0.98 0.06,-0.21 0.13,-0.44 0.12,-0.74 0.07,0.11 0.17,0.23 0.29,0.34 0.12,0.11 0.27,0.20 0.44,0.27 l -0.07,0.12 c 0.28,0.53 0.84,0.98 1.49,1.16 0.65,0.17 1.42,0.07 2.05,-0.51 1.03,-0.93 1.98,-2.02 3.04,-2.93 0.00,0.02 0.01,0.05 0.02,0.07 l 0.34,0.05 c 0.97,-1.01 2.06,-1.01 3.41,-0.92 l 0.15,-0.05 c 0.49,-0.41 0.70,-0.39 1.11,-0.36 0.41,0.02 0.99,0.06 1.97,-0.29 0.19,-0.07 0.38,-0.10 0.57,-0.11 z m 12.20,2.52 c 0.40,-0.00 0.85,0.02 1.26,0.09 -0.05,0.04 -0.09,0.09 -0.13,0.17 l 0.05,0.14 c 0.06,0.02 0.13,0.05 0.19,0.08 l 0.01,0.05 c 1.64,0.78 2.59,2.09 3.39,3.46 -0.06,-0.00 -0.13,-0.01 -0.20,0.01 l -0.04,0.17 c 0.06,0.06 0.12,0.13 0.18,0.20 l -0.01,0.09 c 0.28,0.31 0.43,0.96 0.62,1.69 0.13,0.54 0.32,1.11 0.66,1.60 -0.08,-0.03 -0.17,-0.06 -0.24,-0.07 l -0.13,0.10 c 0,0.10 0.03,0.19 0.08,0.27 l -0.01,0.01 c 0.01,0.06 0.04,0.11 0.07,0.15 -0.02,-0.00 -0.04,-0.00 -0.05,-0.00 -0.06,-0.00 -0.09,-0.01 -0.11,-0.01 -0.00,5e-6 -0.00,-0.00 -0.03,0.00 -0.00,0.00 -0.00,9.68e-4 -0.01,0.00 -0.00,0.00 -0.02,0.01 -0.02,0.01 -4.3e-5,3.1e-5 -0.02,0.02 -0.02,0.02 -2.2e-5,3.4e-5 -0.01,0.05 -0.01,0.05 0,8e-6 0.00,0.00 0.00,0.01 l -0.00,0.00 c 0.00,0.02 0.00,0.04 0.00,0.06 l -0.11,0.12 c 0.05,0.73 -0.07,1.72 0.56,2.63 -1.26,-0.03 -2.23,-0.61 -3.03,-1.41 -0.85,-0.86 -1.50,-1.96 -2.08,-2.85 l -0.00,-0.00 c -0.05,-0.07 -0.12,-0.11 -0.20,-0.13 -0.07,-0.01 -0.16,-0.00 -0.24,0.03 -0.07,0.04 -0.12,0.13 -0.12,0.24 8.6e-4,0.04 0.01,0.08 0.02,0.13 -0.22,-0.09 -0.33,-0.23 -0.52,-0.41 -0.23,-0.23 -0.57,-0.51 -1.30,-0.75 0.04,-0.37 -0.04,-0.59 -0.14,-0.76 -0.10,-0.19 -0.20,-0.32 -0.18,-0.68 0.01,-0.19 0.10,-0.29 0.27,-0.35 0.16,-0.06 0.41,-0.06 0.69,0 0.54,0.12 1.18,0.49 1.52,0.99 l 0.19,-0.09 c -0.31,-1.10 -0.99,-1.70 -1.69,-1.99 0.37,0.02 0.75,0.16 1.19,0.49 l 0.15,-0.14 c -0.27,-0.38 -0.45,-0.65 -0.69,-0.84 -0.18,-0.15 -0.42,-0.24 -0.71,-0.31 0.17,-0.10 0.35,-0.17 0.56,-0.17 0.28,-0.01 0.59,0.05 0.89,0.17 0.60,0.22 1.16,0.64 1.43,0.92 l 0.18,-0.10 c -0.23,-0.78 -0.71,-1.18 -0.97,-1.39 -0.03,-0.02 -0.04,-0.04 -0.07,-0.06 0.06,-0.01 0.16,-0.01 0.29,-0.03 l 0.07,-0.17 c -0.43,-0.47 -0.96,-0.65 -1.42,-0.75 -0.42,-0.09 -0.79,-0.14 -1.00,-0.27 0.04,-0.11 0.10,-0.20 0.19,-0.26 0.05,-0.04 0.11,-0.07 0.19,-0.10 0.18,-0.02 0.37,-0.04 0.58,-0.04 z m -8.32,5.32 c 1.35,0.48 3.03,0.10 4.10,1.26 -0.19,0.18 -1.83,-0.25 -2.47,-0.05 0.69,1.08 2.23,1.14 3.17,1.97 0.24,0.13 0.74,0.61 1.04,1.01 0.02,0.20 0.14,0.34 0.24,0.50 -0.02,0.06 -0.14,0.07 -0.38,-0.02 -0.03,0.07 0.00,0.22 0.07,0.39 l -0.00,0.01 c 0.09,0.15 0.19,0.51 0.21,0.87 -0.06,0.02 -0.18,-0.01 -0.39,-0.14 -2.09,-0.54 -4.51,-0.18 -6.30,-1.65 -0.97,-0.98 0.71,-1.88 0.83,-2.89 0.08,-0.42 -0.03,-0.84 -0.13,-1.25 z m 13.93,2.94 c 0.00,-3.23e-4 0.00,0.00 0.00,0.00 l -0.09,0.09 c 0.00,-0.00 0.00,-0.03 0.00,-0.03 -2.1e-5,4.9e-5 0.02,-0.03 0.02,-0.03 -4.2e-5,4.6e-5 0.01,-0.01 0.02,-0.01 0.02,-0.01 0.03,-0.01 0.04,-0.02 z m -17.97,1.63 c 2.50,-0.05 4.54,1.72 6.32,3.29 0.12,0.10 0.24,0.20 0.36,0.31 0.11,0.10 0.22,0.20 0.33,0.29 0.08,0.07 0.16,0.13 0.25,0.20 0.50,0.39 1.05,0.71 1.73,0.73 0.09,0.01 0.20,0.02 0.30,0.03 0.08,0.00 0.16,0.01 0.25,0.03 1.08,0.26 1.74,1.26 2.29,2.20 0.61,0.88 1.39,1.61 2.21,2.31 0.42,0.36 0.85,0.73 1.27,1.09 0.53,0.45 1.05,0.91 1.51,1.38 0.08,0.09 0.17,0.19 0.26,0.29 0.04,0.04 0.09,0.08 0.13,0.13 0.58,0.66 1.05,1.35 1.29,2.12 0.02,0.08 0.05,0.16 0.09,0.23 0.01,0.05 0.03,0.11 0.04,0.16 -1.41,-0.69 -1.72,-2.43 -2.79,-3.48 -1.12,-1.44 -2.79,-2.29 -3.95,-3.69 -0.53,-1.02 -1.23,-2.21 -2.56,-2.20 -1.17,0.40 -2.31,0.08 -3.45,-0.21 -3.45,0.08 -6.86,-1.56 -9.07,-4.19 0.45,-0.64 1.60,-0.47 2.33,-0.98 0.17,-0.04 0.36,-0.08 0.54,-0.09 0.08,-0.00 0.16,-0.00 0.24,-0.01 z m -0.76,4.16 c 0.75,0.00 1.30,0.62 1.46,1.33 0.05,0.35 0.13,0.70 0.23,1.04 0.21,0.81 0.49,1.61 0.97,2.31 0.10,0.16 0.20,0.34 0.28,0.53 0.07,0.26 0.15,0.51 0.23,0.72 0.08,0.43 0.03,0.86 -0.26,1.23 -0.59,0.58 -1.41,0.15 -2.09,0.12 -2.11,0.40 -4.26,0.43 -6.40,0.39 -0.80,-0.07 -1.58,0.33 -1.85,1.11 -0.08,0.43 -0.15,0.84 -0.25,1.24 -0.24,0.47 -0.29,0.88 -0.36,1.15 -0.01,0.06 -0.03,0.11 -0.05,0.16 -0.25,0.28 -0.72,0.41 -0.83,0.22 0.01,-0.04 0.02,-0.08 0.05,-0.14 0.06,-0.14 0.14,-0.31 0.20,-0.46 0.01,-0.04 0.02,-0.08 0.03,-0.12 0.21,-0.51 0.06,-1.16 -0.65,-0.76 -0.84,0.55 -1.10,1.80 -2.19,2.03 -0.00,0.00 -0.01,0.00 -0.02,0.00 -0.16,0.02 -0.36,0.04 -0.55,0.04 -0.44,-0.04 -0.89,-0.24 -0.67,-0.50 0.06,-0.05 0.17,-0.11 0.32,-0.17 0.35,-0.14 0.91,-0.32 1.42,-0.81 0.52,-0.50 0.86,-1.31 1.27,-1.98 0.00,-0.00 0.00,-0.01 0.01,-0.01 0.03,-0.05 0.07,-0.11 0.11,-0.17 0.00,-0.00 0.00,-0.00 0.00,-0.01 0.25,-0.37 0.55,-0.70 0.95,-0.92 0.13,-0.05 0.27,-0.08 0.43,-0.09 9.67e-4,-3.3e-5 0.00,3.2e-5 0.00,0 1.62,-0.05 3.81,-0.13 5.67,-0.37 0.92,-0.12 1.77,-0.29 2.42,-0.52 0.21,-0.07 0.40,-0.16 0.57,-0.25 0.05,-0.02 0.11,-0.04 0.17,-0.07 0.03,-0.04 0.06,-0.07 0.09,-0.09 0.00,-0.00 0.01,-0.00 0.02,-0.01 0.22,-0.11 0.25,0.53 0.47,0.02 0.33,-0.99 0.05,-2.15 -0.56,-2.98 -0.61,-0.80 -1.21,-1.77 -1.14,-2.83 0.02,-0.15 0.09,-0.37 0.29,-0.35 0.05,-0.00 0.11,-0.01 0.16,-0.01 z m 1.55,0.80 c 1.26,0.39 0.68,2.08 0.98,3.07 -0.50,-0.96 -0.71,-2.03 -0.98,-3.07 z m 4.58,0.55 c 1.41,0.13 2.64,1.20 4.04,0.28 1.33,-0.04 1.76,1.26 2.43,2.13 1.57,1.92 4.02,3.08 5.09,5.42 0.49,0.92 1.63,2.55 2.77,2.03 0.04,-0.03 0.08,-0.07 0.13,-0.10 0.00,-5.37e-4 0.00,5.38e-4 0.00,0 l 0.01,-0.00 c 0.35,-0.11 0.70,-0.12 0.95,-0.07 0.34,0.16 0.49,0.52 0.10,0.79 1.02,0.52 1.54,-0.73 2.37,-1.14 0.21,-0.04 0.45,-0.07 0.74,-0.06 0.00,9.5e-5 0.00,-1.01e-4 0.00,0 0.01,9.67e-4 0.02,0.00 0.04,0.00 0.05,0.13 0.04,0.26 -0.01,0.38 -0.29,0.22 -0.49,0.43 -0.69,0.68 -0.08,0.11 -0.18,0.24 -0.28,0.38 -0.15,0.16 -0.29,0.33 -0.38,0.50 -0.04,0.06 -0.09,0.12 -0.14,0.18 -0.30,0.16 -0.62,0.21 -0.94,0.20 -0.21,-0.02 -0.43,-0.05 -0.67,-0.11 -0.10,-0.02 -0.20,-0.04 -0.30,-0.07 -0.62,-0.17 -1.25,-0.40 -1.87,-0.36 -1.36,0.18 -1.72,-1.33 -2.37,-2.23 -0.52,-0.82 -1.34,-1.92 -2.69,-3.33 -0.46,-0.49 -0.94,-0.96 -1.43,-1.42 l -0.00,-0.00 c -0.00,-0.00 -0.01,-0.01 -0.02,-0.02 -0.10,-0.09 -0.20,-0.18 -0.30,-0.27 C 32.94,37.51 31.79,37.30 30.96,36.64 30.73,36.43 30.51,36.17 30.32,35.84 l 0,-0.00 c -0.03,-0.05 -0.06,-0.09 -0.09,-0.14 -0.67,-1.05 -2.26,-0.79 -3.25,-1.44 l 0.17,-0.01 0.17,-0.00 z m 1.90,0.28 c 0.27,0.04 0.55,0.07 0.83,0.07 -0.15,0.03 -0.30,0.07 -0.44,0.11 -0.13,-0.06 -0.26,-0.13 -0.39,-0.19 z M 24.63,39.29 c 0.03,0.04 0.06,0.09 0.09,0.13 0.35,0.42 0.39,0.85 0.23,1.16 0.03,-0.19 -0.00,-0.39 -0.15,-0.58 -0.44,0.28 -0.97,0.69 -1.57,0.56 0.49,8.6e-4 0.97,-0.15 1.22,-0.63 0.10,-0.21 0.15,-0.43 0.17,-0.65 z m 0.08,0.98 c 0.18,0.76 -0.53,0.86 -1.16,0.81 -0.04,-0.00 -0.09,-0.01 -0.14,-0.02 l -0.00,0 c -0.63,-0.13 -1.80,-0.16 -3.12,-0.10 -1.31,0.06 -2.75,0.23 -3.87,0.54 l -0.00,0 c -0.34,0.10 -0.61,0.18 -0.85,0.25 -0.10,0.02 -0.20,0.05 -0.30,0.07 -0.01,0.00 -0.02,0.01 -0.04,0.01 -0.16,0.04 -0.25,0.06 -0.36,0.09 -0.39,0.02 -0.66,-0.18 -0.21,-0.63 0.53,-0.63 1.44,-0.34 2.17,-0.43 1.81,-0.00 3.64,-0.11 5.43,-0.40 0.77,0.37 1.86,0.55 2.48,-0.20 z m -10.07,0.70 c -0.38,0.31 -0.67,0.84 -0.32,1.10 -0.20,0.07 -0.32,0.16 -0.46,0.34 0.04,-0.21 0.07,-0.42 0.10,-0.64 0.12,-0.36 0.37,-0.63 0.68,-0.80 z m -2.38,2.11 c 0.17,-0.01 0.20,0.10 0.16,0.26 -0.01,-0.01 -0.03,-0.02 -0.05,-0.03 -0.14,-0.06 -0.30,-0.07 -0.43,-0.02 -0.13,0.04 -0.22,0.14 -0.29,0.25 -0.13,0.20 -0.20,0.46 -0.30,0.69 -0.09,0.23 -0.21,0.43 -0.36,0.55 -0.12,0.09 -0.27,0.14 -0.52,0.11 0.62,-0.46 0.92,-1.28 1.55,-1.74 0.11,-0.04 0.20,-0.07 0.26,-0.07 z m 28.51,0.56 c 0.11,0.14 0.24,0.25 0.37,0.31 0.02,0.01 0.04,0.01 0.07,0.02 -0.26,0.02 -0.52,-0.04 -0.77,-0.29 0.05,0.02 0.11,0.05 0.18,0.08 0.06,-0.03 0.11,-0.07 0.14,-0.12 z m 3.39,0.42 c -0.05,0.06 -0.09,0.13 -0.12,0.20 -0.41,0.51 -0.55,0.32 -0.69,0.01 0.18,0.04 0.37,0.01 0.53,-0.05 0.10,-0.04 0.19,-0.10 0.28,-0.16 z" />
</svg>
