<?xml version="1.0" encoding="UTF-8" standalone="no"?>
<!-- Created with Inkscape (http://www.inkscape.org/) -->
<svg xmlns:dc="http://purl.org/dc/elements/1.1/" xmlns:cc="http://creativecommons.org/ns#" xmlns:rdf="http://www.w3.org/1999/02/22-rdf-syntax-ns#" xmlns:svg="http://www.w3.org/2000/svg" xmlns="http://www.w3.org/2000/svg" version="1.1" width="100%" height="100%" viewBox="0 0 48 48" id="svg2" xml:space="preserve">
<defs id="defs4" />
<path d="m 30.52,1.58 c -0.57,0.00 -1.23,0.23 -1.77,0.45 -0.60,0.25 -1.12,0.68 -1.57,1.08 -0.46,0.38 -0.82,0.74 -1.13,1.17 l 0.40,-0.03 -0.60,0.80 0.32,-0.03 C 25.94,5.32 25.80,5.56 25.68,5.75 25.56,5.94 25.49,6.06 25.48,6.15 l 0.23,-0.07 c -0.16,0.17 -0.25,0.50 -0.27,1.01 -0.05,0.48 -0.04,0.92 0.11,1.97 0.16,1.05 0.55,3.06 0.88,4.27 0.29,1.17 0.86,1.89 0.96,2.82 0.10,0.91 0.05,2.07 -0.31,2.66 -0.41,0.54 -1.16,0.60 -2.05,0.68 -0.92,0.06 -1.97,-0.34 -3.30,-0.23 -1.35,0.09 -3.30,0.28 -4.67,0.78 -1.37,0.49 -2.42,1.18 -3.50,2.09 -1.11,0.90 -2.13,2.09 -3.02,3.19 -0.88,1.06 -1.72,2.41 -2.21,3.18 -0.49,0.72 -0.64,0.97 -0.76,1.29 -0.15,0.33 -0.17,0.52 -0.07,0.64 -0.25,0.59 -0.43,1.11 -0.56,1.56 -0.14,0.43 -0.21,0.80 -0.24,1.09 -0.37,0.43 -0.56,0.87 -0.60,1.33 -0.03,0.45 0.07,0.92 0.36,1.40 -0.16,0.33 -0.26,0.69 -0.24,1.09 -0.00,0.38 0.10,0.80 0.28,1.25 -0.38,0.45 -0.50,0.82 -0.40,1.08 0.09,0.27 0.45,0.44 1.04,0.52 0.57,0.04 1.38,-0.03 2.42,-0.23 0.28,0.26 0.61,0.41 1.04,0.48 0.42,0.05 0.90,0.01 1.45,-0.11 0.02,0.23 0.02,0.52 0,0.96 -0.03,0.42 -0.08,0.94 -0.16,1.57 -0.35,0.17 -0.66,0.37 -1.00,0.60 -0.35,0.21 -0.76,0.47 -1.00,0.76 -0.14,0.18 -0.26,0.38 -0.33,0.60 -0.06,0.02 -0.12,0.05 -0.18,0.08 -0.13,0.06 -0.21,0.13 -0.26,0.29 -0.03,0.13 -0.01,0.34 0.05,0.58 0.01,-0.23 0.08,-0.39 0.19,-0.49 0.11,-0.11 0.37,-0.06 0.46,-0.13 0.01,-0.03 0.03,-0.06 0.03,-0.10 0.29,-0.08 0.61,-0.13 0.95,-0.14 0.47,-0.00 1.11,0.08 1.56,0.20 0.33,0.07 0.62,0.16 0.86,0.26 0.05,0.11 0.35,0.17 0.44,0.34 0.07,0.15 0.07,0.37 0,0.62 0.19,-0.23 0.27,-0.44 0.31,-0.61 0.01,-0.17 -0.08,-0.32 -0.16,-0.43 -0.01,-0.02 -0.04,-0.05 -0.06,-0.08 0.24,-0.16 0.54,-0.33 0.91,-0.51 0.57,-0.30 1.79,-0.68 2.09,-0.92 0.00,-0.00 0.01,-0.01 0.01,-0.01 0.10,-0.02 0.22,-0.03 0.30,0.00 0.15,0.07 0.29,0.24 0.39,0.48 -0.01,-0.31 -0.05,-0.51 -0.14,-0.67 -0.11,-0.15 -0.25,-0.20 -0.41,-0.23 -0.10,-0.03 -0.21,-0.04 -0.33,-0.02 -0.07,-0.03 -0.17,-0.07 -0.27,-0.10 -0.43,-0.16 -1.15,-0.28 -2.13,-0.35 -0.29,-0.50 -0.51,-0.99 -0.64,-1.49 -0.15,-0.50 -0.21,-0.99 -0.19,-1.48 0.30,-0.29 0.55,-0.56 0.80,-0.88 0.23,-0.32 0.44,-0.66 0.64,-1.01 1.64,0.00 2.87,-0.01 3.79,-0.07 0.90,-0.05 1.39,-0.19 1.56,-0.32 -0.09,0.55 -0.11,0.99 -0.07,1.33 0.01,0.33 0.13,0.50 0.28,0.60 l -0.03,2.58 c -0.24,0.23 -0.52,0.54 -0.80,0.93 -0.30,0.37 -0.75,0.92 -0.96,1.37 -0.12,0.23 -0.25,0.54 -0.32,0.81 -0.06,0.01 -0.13,0.02 -0.18,0.04 -0.17,0.03 -0.29,0.10 -0.37,0.27 -0.07,0.16 -0.10,0.37 -0.07,0.68 0.07,-0.27 0.18,-0.42 0.34,-0.52 0.07,-0.04 0.17,-0.04 0.27,-0.03 0.00,0.01 0.01,0.02 0.02,0.03 0.17,0.15 0.85,-0.12 1.33,-0.24 0.43,-0.13 0.90,-0.47 1.40,-0.44 0.51,0.01 1.23,0.59 1.65,0.64 0.13,0.01 0.22,0.00 0.29,-0.02 0.07,0.03 0.15,0.06 0.19,0.12 0.09,0.13 0.13,0.36 0.11,0.62 0.13,-0.26 0.19,-0.49 0.19,-0.66 -0.02,-0.16 -0.09,-0.26 -0.19,-0.35 0.01,-0.01 0.02,-0.02 0.03,-0.03 0.20,-0.25 0.37,-0.78 0.72,-1.05 0.28,-0.22 0.98,-0.31 1.26,-0.44 0.17,0.06 0.29,0.20 0.43,0.43 -0.04,-0.30 -0.11,-0.52 -0.22,-0.65 -0.10,-0.10 -0.22,-0.16 -0.34,-0.17 -0.17,-0.11 -0.41,-0.21 -0.60,-0.28 -0.38,-0.14 -0.81,0.04 -1.29,-0.16 -0.47,-0.20 -0.95,-0.57 -1.49,-1.08 -0.09,-0.73 -0.15,-1.29 -0.15,-1.69 -0.01,-0.41 0.00,-0.62 0.07,-0.68 0.11,-0.25 0.24,-0.56 0.32,-0.88 0.07,-0.32 0.14,-0.69 0.19,-1.08 0.50,-0.02 1.18,-0.41 2.09,-1.17 0.90,-0.79 2.18,-2.26 3.26,-3.38 1.05,-1.15 2.23,-2.37 3.02,-3.26 0.77,-0.88 1.05,-1.19 1.64,-1.89 0.58,-0.71 1.48,-1.44 1.85,-2.27 0.33,-0.82 0.33,-1.93 0.27,-2.62 -0.06,-0.72 -0.30,-1.31 -0.64,-1.61 -0.37,-0.31 -0.82,-0.37 -1.44,-0.19 -0.05,-0.86 -0.19,-1.72 -0.44,-2.60 -0.26,-0.88 -0.84,-1.76 -1.01,-2.66 -0.18,-0.93 -0.13,-2.27 -0.03,-2.77 0.09,-0.49 0.24,-0.35 0.60,-0.20 0.34,0.10 0.82,0.53 1.52,0.93 0.70,0.38 1.62,0.88 2.66,1.40 1.01,0.49 2.74,1.17 3.46,1.61 0.70,0.41 0.51,0.72 0.76,0.96 0.22,0.23 0.31,0.34 0.68,0.52 0.36,0.17 0.87,0.33 1.52,0.50 0.13,0.28 0.26,0.39 0.40,0.36 0.11,-0.04 0.29,-0.23 0.36,-0.60 0.04,-0.40 0.34,-0.94 0,-1.65 C 42.38,15.83 41.56,15.12 40.68,13.99 39.78,12.82 38.49,11.14 37.42,9.63 36.33,8.09 34.96,5.98 34.23,4.95 33.49,3.92 33.09,3.46 33.02,3.53 32.95,3.10 32.70,2.72 32.34,2.40 31.96,2.06 31.35,1.66 30.76,1.60 c -0.07,-0.00 -0.15,-0.01 -0.24,-0.01 z m 0.15,0.15 c 0.17,-8.39e-4 0.33,0.02 0.53,0.11 0.37,0.13 0.91,0.54 1.21,0.84 0.28,0.29 0.43,0.54 0.48,0.84 -0.31,-0.07 -0.49,0.01 -0.56,0.27 -0.06,0.25 1.87e-4,0.66 0.19,1.25 -0.27,0.06 -0.52,0.02 -0.68,-0.11 C 31.68,4.79 31.64,4.41 31.53,4.18 31.40,3.95 31.26,3.70 31.09,3.58 30.88,3.46 30.58,3.49 30.40,3.42 30.22,3.33 30.05,3.22 29.95,3.06 c 0.01,0.25 3e-6,0.45 -0.03,0.64 -0.03,0.16 -0.16,0.21 -0.19,0.44 -0.05,0.23 0.03,0.80 -0.07,0.96 -0.12,0.14 -0.48,-0.20 -0.60,-0.07 -0.11,0.11 -0.09,0.45 -0.11,0.72 -0.03,0.25 -0.03,0.70 -0.15,0.84 C 28.58,6.73 28.11,6.57 27.98,6.57 27.88,6.49 27.87,6.35 27.94,6.12 27.99,5.91 28.17,5.60 28.39,5.24 l -0.60,0.27 c 0.09,-0.35 0.23,-0.62 0.44,-0.88 0.19,-0.26 0.45,-0.46 0.76,-0.64 -0.13,-0.03 -0.31,-0.01 -0.44,0.03 C 28.40,4.07 28.23,4.18 28.10,4.31 28.16,4.06 28.25,3.83 28.39,3.66 28.51,3.47 28.66,3.33 28.87,3.22 28.55,3.28 28.31,3.34 28.10,3.42 27.89,3.49 27.74,3.57 27.62,3.66 l 0.84,-0.76 -0.96,0.28 c 0.32,-0.37 0.67,-0.65 1.12,-0.88 0.43,-0.23 1.04,-0.41 1.49,-0.48 0.20,-0.03 0.38,-0.07 0.55,-0.07 z m -2.76,1.46 -0.58,0.63 1.01,-0.37 c -0.15,0.17 -0.24,0.35 -0.33,0.53 -0.09,0.18 -0.12,0.36 -0.15,0.56 l 0.48,-0.27 C 28.05,4.53 27.87,4.76 27.76,5.01 27.64,5.24 27.60,5.48 27.66,5.72 l 0.40,-0.18 c -0.29,0.50 -0.43,0.86 -0.44,1.07 -0.00,0.17 0.23,0.09 0.40,0.11 0.14,0.01 0.29,0.03 0.48,0.03 -0.19,0.29 -0.33,0.75 -0.36,1.41 -0.04,0.64 -0.09,1.43 0.11,2.53 0.19,1.08 0.77,3.13 1.09,4.03 0.29,0.89 0.50,1.13 0.72,1.33 0.20,0.17 0.29,-0.48 0.53,-0.19 0.23,0.27 0.60,1.15 0.84,1.87 0.22,0.72 0.43,1.54 0.50,2.38 0.02,0.81 -0.06,1.85 -0.19,2.47 -0.12,0.60 -0.32,0.95 -0.56,1.13 0.11,-0.37 0.13,-0.72 0.07,-1.05 -0.07,-0.34 -0.22,-0.62 -0.48,-0.92 -0.03,0.39 -0.11,0.74 -0.23,1.05 -0.13,0.29 -0.30,0.54 -0.52,0.76 0.00,-0.39 0.00,-0.68 0,-0.92 -0.01,-0.24 -0.03,-0.41 -0.08,-0.52 -0.04,0.40 -0.15,0.76 -0.36,1.04 -0.21,0.27 -0.49,0.49 -0.88,0.64 0.11,-0.39 0.19,-0.73 0.24,-1.09 0.03,-0.35 0.05,-0.69 0.03,-1.00 -0.28,0.31 -0.50,0.55 -0.72,0.68 -0.21,0.13 -0.39,0.17 -0.56,0.11 0.21,-0.19 0.37,-0.43 0.48,-0.68 0.11,-0.25 0.15,-0.56 0.16,-0.88 -0.14,0.28 -0.31,0.47 -0.56,0.64 -0.26,0.14 -0.54,0.23 -0.92,0.27 0.21,-0.25 0.41,-0.48 0.52,-0.72 0.09,-0.23 0.17,-0.47 0.16,-0.68 -0.09,0.15 -0.24,0.28 -0.48,0.32 -0.25,0.03 -0.53,0.02 -0.93,-0.03 0.25,-0.22 0.43,-0.42 0.60,-0.56 0.14,-0.16 0.29,-0.28 0.36,-0.35 -0.48,0.12 -0.87,0.17 -1.17,0.15 -0.31,-0.03 -0.52,-0.15 -0.65,-0.33 0.84,-0.11 1.46,-0.28 1.86,-0.59 0.39,-0.31 0.39,-0.67 0.48,-1.21 0.04,-0.55 0.08,-1.29 -0.08,-2.07 -0.17,-0.80 -0.67,-1.61 -0.94,-2.68 -0.29,-1.09 -0.66,-2.70 -0.80,-3.72 C 25.62,8.35 25.55,7.64 25.61,7.06 25.66,6.47 25.78,6.07 26.04,5.85 l -0.32,0.09 c 0.03,-0.07 0.13,-0.21 0.29,-0.39 0.14,-0.17 0.35,-0.42 0.63,-0.70 l -0.46,0.03 c 0.05,-0.09 0.14,-0.21 0.25,-0.33 0.10,-0.14 0.23,-0.27 0.39,-0.44 l -0.42,0.05 c 0.17,-0.22 0.36,-0.39 0.50,-0.51 0.13,-0.13 0.28,-0.21 0.38,-0.23 0.20,-0.06 0.41,-0.13 0.61,-0.19 z m 2.21,0.22 c 0.05,-0.00 0.17,0.10 0.29,0.14 0.12,0.01 0.33,0.03 0.50,0.11 0.15,0.07 0.38,0.25 0.48,0.45 0.10,0.18 0.16,0.47 0.17,0.69 -0.02,0.17 -0.20,0.35 -0.17,0.51 0.02,0.15 0.29,0.38 0.33,0.48 0.02,0.09 -1.88e-4,0.21 -0.20,0.17 C 31.32,5.97 30.68,5.76 30.42,5.58 30.15,5.39 29.97,5.03 29.91,4.87 c -0.09,-0.19 0.01,-0.18 0.05,-0.34 0.01,-0.19 0.10,-0.42 0.13,-0.61 0.00,-0.19 -0.05,-0.41 0,-0.47 0.00,-0.00 0.01,-0.01 0.02,-0.01 z m 2.73,0.22 c 0.06,-0.00 0.12,0.02 0.20,0.08 0.18,0.17 0.32,0.38 0.80,1.09 0.47,0.68 1.30,1.89 2.09,3.02 0.78,1.13 1.74,2.60 2.54,3.66 0.76,1.03 1.42,1.78 2.05,2.54 0.60,0.74 1.33,1.50 1.65,1.89 0.31,0.39 0.41,0.52 0.27,0.44 -0.09,-0.10 -0.19,-0.16 -0.27,-0.12 -0.08,0.01 -0.20,0.12 -0.28,0.28 -0.09,-0.37 -0.27,-0.67 -0.48,-0.88 -0.23,-0.23 -0.49,-0.37 -0.84,-0.44 -0.76,-0.82 -1.60,-1.82 -2.62,-3.10 C 36.96,10.84 35.43,8.86 34.55,7.65 33.66,6.45 33.09,5.60 32.74,5.03 32.40,4.44 32.46,4.38 32.46,4.18 c -0.00,-0.21 0.03,-0.34 0.16,-0.40 0.05,-0.05 0.13,-0.12 0.23,-0.12 z M 30.69,3.89 c -0.07,0.00 -0.15,0.01 -0.23,0.03 -0.07,0.01 -0.13,0.05 -0.19,0.13 -0.07,0.05 -0.14,0.15 -0.17,0.30 -0.03,0.15 -0.04,0.43 0.03,0.62 0.07,0.16 0.20,0.31 0.37,0.41 0.15,0.07 0.35,0.11 0.51,0.14 0.11,0.03 0.21,0.06 0.25,0.07 -0.02,-0.11 -0.03,-0.21 -0.01,-0.32 0.01,-0.10 0.09,-0.13 0.13,-0.27 0.00,-0.16 0.03,-0.49 -0.01,-0.66 -0.07,-0.17 -0.19,-0.33 -0.33,-0.39 -0.09,-0.04 -0.21,-0.07 -0.33,-0.07 z m -0.12,0.09 c 0.03,-7.74e-4 0.06,0.00 0.11,0.01 0.11,0 0.30,0.04 0.43,0.16 0.10,0.14 0.19,0.37 0.20,0.58 -0.01,0.15 -0.10,0.36 -0.23,0.46 -0.13,0.09 -0.39,0.11 -0.52,0.08 C 30.40,5.24 30.33,5.11 30.26,4.95 30.19,4.77 30.17,4.49 30.21,4.34 30.23,4.20 30.32,4.08 30.42,4.04 c 0.04,-0.04 0.08,-0.05 0.13,-0.06 z m 0.14,0.34 c -0.03,4.66e-4 -0.06,0.00 -0.08,0.01 -0.07,0.01 -0.11,0.11 -0.11,0.21 -0.01,0.08 -0.00,0.21 0.03,0.29 0.04,0.07 0.13,0.12 0.23,0.13 0.08,-0.03 0.22,-0.09 0.26,-0.19 0.01,-0.11 -0.02,-0.31 -0.09,-0.39 -0.04,-0.05 -0.15,-0.08 -0.23,-0.08 z m 1.83,1.30 c 0.07,-8.30e-4 0.22,0.08 0.43,0.28 0.39,0.39 1.11,1.38 1.85,2.34 0.73,0.91 1.65,2.22 2.45,3.22 0.77,0.97 1.56,1.99 2.17,2.70 0.59,0.69 0.98,0.99 1.37,1.52 0.39,0.51 0.64,1.27 0.84,1.65 0.15,0.37 0.28,0.57 0.11,0.64 -0.18,0.06 -0.81,-0.01 -1.17,-0.23 -0.35,-0.24 -0.39,-0.20 -0.96,-1.13 C 39.06,15.69 37.87,13.40 37.10,12.17 36.33,10.94 35.65,10.05 35.08,9.31 34.47,8.55 34.01,8.21 33.59,7.65 33.14,7.06 32.59,6.18 32.50,5.88 32.45,5.72 32.46,5.63 32.54,5.63 z m -2.15,0.53 c 0.26,4.19e-4 0.92,0.27 1.25,0.44 0.37,0.14 0.45,0.25 0.92,0.60 0.47,0.35 1.16,0.79 1.85,1.53 0.65,0.72 1.63,2.11 2.09,2.86 0.45,0.72 1.15,1.87 0.64,1.56 C 36.62,12.85 34.40,10.68 33.38,9.75 32.36,8.80 31.61,8.20 31.09,7.61 30.56,7.00 30.19,6.38 30.28,6.20 c 0.01,-0.02 0.05,-0.03 0.11,-0.03 z m 0.81,0.57 c 0.88,0.87 1.68,1.59 2.42,2.21 0.72,0.60 1.36,1.09 1.93,1.44 C 34.82,9.81 34.12,9.26 33.38,8.63 32.64,8.00 31.94,7.41 31.20,6.74 z m 0.16,0.48 c 0.89,0.87 1.67,1.59 2.41,2.21 0.73,0.60 1.35,1.09 1.93,1.44 C 34.96,10.28 34.24,9.68 33.51,9.08 32.77,8.45 32.08,7.84 31.37,7.22 z m -1.50,0.06 c 0.17,-0.00 0.40,0.07 0.69,0.24 0.66,0.56 1.33,1.15 2.05,1.81 0.70,0.66 1.51,1.35 2.21,2.05 0.68,0.66 1.41,1.49 1.93,1.93 0.49,0.40 0.71,0.15 1.09,0.60 0.36,0.46 0.74,1.15 1.12,2.13 C 38.02,15.72 37.05,15.29 36.04,14.79 35.02,14.28 33.81,13.60 32.94,13.10 32.06,12.60 31.26,12.19 30.84,11.77 30.42,11.33 30.63,10.92 30.44,10.44 30.21,9.92 29.74,9.25 29.59,8.75 c -0.14,-0.52 -0.17,-1.11 0,-1.33 0.06,-0.08 0.15,-0.12 0.27,-0.12 z m 1.90,0.70 c 0.89,0.87 1.67,1.59 2.41,2.21 0.73,0.60 1.35,1.09 1.93,1.44 C 35.18,10.83 34.35,10.14 33.63,9.52 32.90,8.90 32.29,8.39 31.77,7.99 z m 9.04,7.42 c 0.05,-0.00 0.35,0.22 0.51,0.41 0.17,0.17 0.34,0.54 0.44,0.72 0.06,0.19 0.03,0.40 0,0.40 -0.06,-0.03 -0.12,-0.26 -0.28,-0.52 -0.19,-0.26 -0.64,-0.92 -0.68,-1.01 -0.00,-0.01 -4.67e-4,-0.01 0.00,-0.01 z m 1.52,1.32 c 0.09,1.87e-4 0.21,0.02 0.35,0.06 0.08,0.27 0.09,0.57 0.03,0.88 -0.05,0.29 -0.23,0.62 -0.44,0.96 -0.02,-0.25 -0.06,-0.47 -0.11,-0.72 -0.06,-0.26 -0.25,-0.61 -0.24,-0.72 0,-0.10 0.19,0.12 0.24,0.07 0.01,-0.07 -0.11,-0.40 -0.03,-0.48 0.04,-0.04 0.10,-0.06 0.18,-0.06 0.00,-1.87e-4 0.01,-3.73e-4 0.01,-2.8e-4 z m -18.79,3.13 c 0.03,-9.3e-5 0.06,4.67e-4 0.09,0.00 -0.08,0.26 -2.07,0.53 -2.87,0.83 0.87,-0.38 1.80,-0.83 2.77,-0.83 z m -3.54,0.01 c 0.21,9.33e-4 0.40,0.03 0.56,0.09 -1.12,-0.02 -2.19,0.48 -3.20,0.93 -0.25,-0.20 1.47,-1.03 2.63,-1.03 z m 0.94,0.20 c 0.01,-8.4e-4 0.00,0.00 -0.00,0.01 -0.01,-0.00 -0.02,-0.00 -0.03,-0.00 -0.33,0.08 -2.24,0.80 -2.66,1.36 -0.24,-0.32 1.68,-1.48 2.66,-1.36 0.02,-0.00 0.03,-0.00 0.04,-0.00 z m 4.06,0.06 c -0.01,0.29 -0.14,0.66 -0.50,0.65 -1.37,-0.28 0.17,0.01 0.50,-0.65 z m 0.50,0.19 c -0.04,0.28 -0.15,0.56 -0.34,0.78 -1.25,1.12 -0.26,-0.24 0.34,-0.78 z m 0.31,0.47 c -0.07,0.22 -0.18,0.44 -0.36,0.60 -1.21,0.62 0.08,-0.11 0.36,-0.60 z m -2.08,0.09 0.16,0.05 0.12,0.14 c 0.48,2.10 -0.77,4.09 -1.95,5.73 0.53,-1.12 0.60,-2.22 1.37,-3.19 0.70,-1.11 -1.60,-2.66 0.28,-2.73 z m 9.08,0.11 c 0.17,-0.00 0.39,0.08 0.65,0.31 0.95,1.23 0.64,3.11 -0.25,4.29 l -0.28,0.21 c -0.07,-0.64 0.81,-2.29 0.05,-3.24 -0.84,-0.40 -0.79,-1.56 -0.16,-1.56 z m -6.09,0.04 c -0.16,0.41 -0.45,0.87 -0.92,0.97 -1.78,0.07 0.52,-0.37 0.92,-0.97 z m -6.06,0.22 c 0.25,9.33e-4 -1.39,1.16 -1.70,1.66 0.21,-0.54 0.54,-1.05 1.03,-1.38 0.40,-0.20 0.60,-0.28 0.67,-0.28 z m 0.66,0.15 c 0.23,-0.00 -0.67,1.04 -1.25,1.11 0.20,-0.27 0.42,-0.53 0.67,-0.76 0.33,-0.25 0.51,-0.35 0.58,-0.35 z m 0.95,0.10 0.02,0.19 0.00,0.18 c -0.12,1.52 -0.85,0.28 -0.02,-0.37 z m 0.34,0.22 0.12,0.16 0.02,0.26 c -0.17,1.29 -0.58,0.36 -0.15,-0.43 z m -1.05,0.38 c 0.07,0.18 0.14,0.38 0.13,0.59 -0.36,1.37 -0.68,-0.01 -0.13,-0.59 z m 5.64,0 c 0.34,0.61 -0.31,1.00 -0.83,1.06 -2.12,0.24 0.81,-0.14 0.83,-1.06 z m -8.44,0.01 c 0.08,0.08 -1.52,1.22 -2.08,1.74 0.43,-0.82 1.26,-1.35 2.08,-1.74 z m 6.68,0.20 c -0.09,0.23 -0.21,0.46 -0.35,0.66 -1.20,1.10 -0.29,-0.14 0.35,-0.66 z m -7.86,0.00 c 0.08,0.00 -1.10,1.30 -1.59,1.60 0.30,-0.39 0.64,-0.75 1.01,-1.08 0.38,-0.37 0.55,-0.51 0.58,-0.51 z m -2.42,0.00 c 0.23,0.21 -1.31,1.29 -1.99,1.56 0.50,-0.69 1.26,-1.14 1.99,-1.56 z m 0.81,0.25 c -0.01,0.07 -1.75,1.39 -2.35,2.01 0.58,-0.87 1.49,-1.45 2.35,-2.01 z m 4.68,0 0.19,0.10 0.12,0.11 c 0.04,1.18 -1.09,0.96 -0.32,-0.22 z m -2.09,0.27 c 0.20,-0.00 -0.55,0.78 -1.11,0.91 0.12,-0.24 0.33,-0.42 0.54,-0.58 0.32,-0.23 0.50,-0.32 0.57,-0.33 z m 9.45,0.07 c 0.13,0.29 -0.00,0.66 -0.34,0.71 -1.63,0.12 -0.01,-0.07 0.34,-0.71 z m -8.14,0.09 c -0.05,0.29 -0.12,0.58 -0.22,0.87 -0.67,1.50 -0.42,-0.34 0.22,-0.87 z m -0.44,0.15 c -0.13,0.38 -0.27,0.77 -0.43,1.15 -0.82,1.75 -0.35,-0.83 0.43,-1.15 z m 3.13,0.05 c 0.17,0.02 0.30,0.18 0.31,0.35 -0.21,1.29 -0.06,0.40 -0.31,-0.35 z m -3.84,0.01 c 0.00,-1.87e-4 0.00,-9.3e-5 0.00,0 0.06,0.00 0.04,0.11 -0.11,0.39 -0.26,0.56 -0.53,1.12 -0.76,1.70 -0.76,-0.51 0.61,-2.08 0.87,-2.10 z m 3.35,0.00 c 0.41,0.34 0.55,0.94 0.31,1.43 -0.95,2.17 -0.81,-0.42 -0.31,-1.43 z m -6.06,0.04 c 0.12,0.01 -1.52,1.31 -2.23,1.54 0.59,-0.70 1.40,-1.16 2.23,-1.54 z m 5.59,0.07 c 0.04,1.08 -0.25,2.22 -1.09,2.97 -0.53,-0.40 0.28,-2.37 1.09,-2.97 z m 9.01,0.06 c 0.17,0.35 0.40,0.87 0.06,1.20 -1.47,0.82 0.31,-0.41 -0.06,-1.20 z m -10.52,0.05 c 0.05,-0.00 0.11,0.12 0.16,0.46 0.98,-0.43 0.12,0.80 -0.48,1.18 -0.05,-0.23 0.12,-1.64 0.31,-1.64 z m 8.16,0.08 c 0.09,0.27 0.20,0.73 -0.12,0.90 -1.31,0.38 0.22,-0.26 0.12,-0.90 z m -2.01,0.08 c -0.00,0.01 -0.01,0.03 -0.02,0.05 0.00,-0.01 0.01,-0.03 0.02,-0.05 z m -0.02,0.06 c -0.16,0.45 -0.44,0.90 -0.91,1.07 -1.93,0.36 0.57,-0.25 0.91,-1.07 z m 3.24,0.01 c 0.10,0.27 0.24,0.73 -0.08,0.91 -1.27,0.42 0.12,-0.28 0.08,-0.91 z M 17.41,24.35 c 0.09,0.34 0.17,0.72 0.08,1.07 -0.03,0.05 -0.06,0.10 -0.10,0.14 0.13,-0.07 0.25,-0.06 0.36,0.09 -0.21,0.64 -0.51,1.26 -0.91,1.81 -0.46,0.09 -0.13,-1.10 0.29,-1.66 -0.36,0.14 -0.22,-1.13 0.26,-1.46 z m -0.26,1.46 c 0.06,-0.02 0.14,-0.10 0.24,-0.23 -0.08,0.04 -0.16,0.13 -0.24,0.23 z m -1.09,-1.45 c 0.26,-0.00 -0.91,0.65 -1.54,0.63 0.23,-0.20 0.55,-0.28 0.83,-0.40 0.41,-0.16 0.62,-0.22 0.71,-0.22 z m 10.87,0.02 c -0.12,0.97 -1.17,1.35 -2.00,1.52 -0.20,-0.02 1.70,-0.83 2.00,-1.52 z M 16.99,24.50 c -0.09,0.41 -0.23,0.81 -0.43,1.18 -1.19,1.60 -0.24,-0.70 0.43,-1.18 z m -4.07,0.03 c 0.00,-4.67e-4 -0.00,0.00 -0.01,0.01 -0.00,6.54e-4 -0.00,0.00 -0.00,0.00 -0.17,0.17 -1.37,1.40 -1.72,1.79 -0.37,-0.43 1.09,-1.57 1.72,-1.79 0.01,-0.01 0.01,-0.01 0.02,-0.01 z m 3.53,0.03 c -0.24,0.47 -0.52,0.92 -0.87,1.31 -1.33,1.59 -0.00,-1.21 0.87,-1.31 z m 3.01,0.26 c 0.19,0.54 -0.08,0.96 -0.34,1.44 -0.84,1.70 -0.64,-1.19 0.34,-1.44 z m 7.82,0.11 c -0.00,0.03 -0.01,0.06 -0.03,0.09 -0.24,0.76 -0.70,1.61 -1.57,1.74 -0.47,-0.12 1.28,-1.01 1.57,-1.74 0.01,-0.03 0.02,-0.06 0.03,-0.09 z m -6.92,0.09 c -0.12,0.29 -0.24,0.59 -0.40,0.87 -0.77,1.64 -0.57,-0.71 0.40,-0.87 z m -2.18,0.07 c 0.00,-9.3e-5 0.00,-9.3e-5 0.00,0 0.08,0.00 0.14,0.50 0.52,0.16 -0.16,0.46 -0.33,0.93 -0.58,1.35 -0.70,1.44 -0.42,-0.47 -0.11,-1.03 0.08,-0.36 0.13,-0.48 0.17,-0.48 z m 9.71,0.03 c 0.14,0.31 0.12,0.72 -0.12,0.98 -1.12,1.04 -0.01,-0.34 0.12,-0.98 z m 0.72,0.15 c 0.35,0.31 0.17,0.83 -0.05,1.16 -1.08,1.69 0.29,-0.30 0.05,-1.16 z m -6.23,0.05 c -0.16,0.90 -0.61,1.73 -1.14,2.47 -0.11,0.26 0.29,-2.11 1.14,-2.47 z m -7.08,0.01 c -0.21,0.32 -0.45,0.64 -0.72,0.92 -1.43,1.41 -0.13,-0.67 0.72,-0.92 z m 14.36,0.00 c 0.29,0.24 0.29,0.69 0.09,1.00 -1.09,1.61 -0.14,-0.13 -0.09,-1.00 z m -16.88,0.05 c 0.08,0.00 -1.40,1.11 -1.51,1.71 -0.31,-0.74 1.01,-1.28 1.45,-1.68 0.03,-0.01 0.05,-0.02 0.05,-0.02 z m 0.45,0.00 c 0.16,-0.01 -0.98,1.16 -1.31,1.58 -0.08,-0.52 0.43,-0.91 0.77,-1.22 0.32,-0.25 0.48,-0.36 0.53,-0.36 z m 1.14,0.12 c -0.09,0.30 -0.29,0.56 -0.50,0.80 -1.17,1.67 -0.47,-0.56 0.50,-0.80 z m 6.97,0.30 c 0.15,0.88 -0.35,1.68 -0.83,2.41 -0.06,0.15 -0.15,0.29 -0.27,0.41 0.08,-0.13 0.18,-0.27 0.27,-0.41 0.35,-0.81 0.07,-1.90 0.83,-2.41 z m -7.86,0.01 c -0.11,0.20 -0.23,0.40 -0.37,0.60 -0.95,1.46 -0.41,-0.27 0.37,-0.60 z m 6.71,0.15 c -0.16,1.44 -0.87,3.02 -2.17,3.77 1.18,-1.00 1.39,-2.57 2.17,-3.77 z m -3.65,0.20 c 0.27,0.55 -0.86,1.87 -1.01,1.59 0.17,-0.67 0.30,-1.35 1.01,-1.59 z m -0.88,0.12 c -0.08,0.52 -0.25,1.05 -0.58,1.47 -1.16,1.55 -0.28,-1.27 0.58,-1.47 z m -5.16,0.19 c 0.25,-0.01 -0.67,1.09 -1.29,1.00 -0.35,0.16 0.68,-0.56 0.73,-0.64 0.31,-0.25 0.49,-0.35 0.56,-0.35 z m 10.23,0.04 c -0.20,1.02 -0.49,2.17 -1.55,2.61 0.20,-0.25 1.06,-1.93 1.55,-2.61 z m -1.68,0.11 c 0.12,0.52 -0.32,1.06 -0.54,1.51 -0.35,0.65 -1.52,2.58 -1.69,2.08 0.97,-1.07 1.47,-2.51 2.23,-3.60 z m -0.64,0.03 c -0.05,1.44 -1.16,2.65 -2.03,3.75 0.86,-1.19 0.98,-2.77 2.03,-3.75 z m -3.60,0.08 c -0.12,0.41 -0.29,0.81 -0.48,1.20 -1.08,1.84 -0.38,-0.78 0.48,-1.20 z m 2.57,0.05 c 0.23,0.69 -0.01,1.25 -0.31,1.89 -0.22,0.61 -1.36,2.19 -1.25,1.88 1.08,-1.04 0.87,-2.61 1.57,-3.78 z m 2.11,0 c -0.25,1.11 -1.03,2.01 -1.70,2.92 -0.05,0.07 -0.10,0.14 -0.15,0.20 0.04,-0.06 0.10,-0.13 0.15,-0.20 0.63,-0.92 1.29,-2.57 1.70,-2.92 z m 8.40,0.16 c -0.00,0.51 -0.66,0.66 -1.04,0.78 -1.77,0.44 0.53,-0.30 1.04,-0.78 z m -2.58,0.24 c -0.05,0.52 -0.62,0.74 -1.06,0.85 -1.67,0.41 0.61,-0.36 1.06,-0.85 z m -13.11,0.00 c -0.30,0.83 -0.76,1.60 -1.31,2.30 -0.34,-0.29 0.56,-1.88 1.31,-2.30 z m 0.68,0.05 c -0.31,0.94 -0.81,1.83 -1.52,2.54 -0.07,-1.00 0.94,-1.80 1.52,-2.54 z m 3.58,0 c 0.01,1.45 -0.83,2.77 -1.68,3.89 -1.09,1.29 -0.03,-0.10 0.36,-0.78 0.67,-0.93 0.71,-2.16 1.31,-3.10 z m -2.58,0.05 c -0.40,0.80 -0.84,1.64 -1.63,2.14 -0.46,-0.17 1.02,-1.69 1.63,-2.14 z m -3.63,0.02 c 0.08,-0.00 0.05,0.08 -0.15,0.30 -0.30,0.20 -0.60,0.40 -0.90,0.59 -1.49,0.57 0.71,-0.89 1.06,-0.90 z m 1.31,0.08 c -0.48,0.74 -1.16,1.31 -1.85,1.86 -0.16,-0.12 1.19,-1.61 1.85,-1.86 z m -1.23,0.20 C 9.52,28.62 8.76,29.59 7.80,30.29 7.76,29.38 9.50,28.42 10.34,27.76 z m 13.16,0.05 c -0.16,0.41 -0.44,0.86 -0.91,0.97 -1.79,0.08 0.51,-0.36 0.91,-0.97 z m -12.97,0.06 c -0.53,0.80 -1.11,1.58 -1.78,2.28 -0.30,0.21 0.98,-1.95 1.78,-2.28 z m 4.71,0.01 c -0.50,1.64 -1.12,3.42 -2.33,4.68 -1.28,1.06 0.06,-0.15 0.46,-0.80 0.87,-1.17 1.00,-2.72 1.86,-3.87 z m 0.72,0.03 c -0.52,1.60 -1.24,3.23 -2.46,4.43 -1.19,1.15 0.38,-0.38 0.59,-0.96 0.89,-1.07 0.54,-2.94 1.87,-3.47 z m 0.81,0.01 c -0.06,1.20 -0.70,2.44 -1.56,3.28 0.34,-0.42 1.07,-2.36 1.56,-3.28 z m -2.48,0.77 c 0.33,0.80 -0.42,1.69 -0.77,2.38 -0.11,0.43 -1.54,2.11 -1.23,1.36 1.04,-1.01 0.97,-2.98 2.00,-3.74 z m 10.08,0.22 c 0.13,0.28 0.00,0.67 -0.34,0.71 -1.65,0.12 0.01,-0.07 0.34,-0.71 z m -10.92,0.01 c 0.22,0.76 -0.31,1.37 -0.59,2.05 -0.00,0.53 -1.76,2.36 -1.08,1.32 0.92,-0.86 1.10,-2.73 1.68,-3.37 z m 14.97,0.39 c -0.41,0.83 -1.14,1.49 -2.04,1.75 0.03,-0.24 1.65,-1.00 2.04,-1.75 z m -15.60,0.16 c -0.41,1.10 -0.65,2.48 -1.74,3.15 0.87,-0.88 0.98,-2.35 1.74,-3.15 z m 9.33,0.02 c 0.13,0.29 0.00,0.67 -0.34,0.72 -1.65,0.12 0.01,-0.07 0.34,-0.72 z m -9.88,0.27 c -0.34,1.09 -0.91,2.51 -1.98,3.09 0.89,-0.88 1.03,-2.38 1.98,-3.09 z m -1.07,0.18 c -0.66,0.98 -0.93,2.61 -2.23,2.95 0.83,-0.52 1.33,-2.22 2.23,-2.95 z m 14.63,0 c -0.00,0.01 -0.01,0.02 -0.01,0.03 0.00,-0.01 0.01,-0.02 0.01,-0.03 z m -0.02,0.04 c -0.41,0.83 -1.13,1.49 -2.03,1.75 0.01,-0.23 1.64,-0.99 2.03,-1.75 z m -15.30,0.02 c 0.02,0 0.05,0.00 0.08,0.00 -0.28,0.86 -0.90,1.52 -1.54,2.14 -0.13,0.19 -0.28,0.35 -0.46,0.44 0.15,-0.14 0.31,-0.29 0.46,-0.44 0.55,-0.79 0.80,-2.15 1.46,-2.15 z m 1.08,0.00 C 11.07,31.14 10.65,32.74 9.48,33.21 10.64,32.49 10.55,30.79 11.60,30.08 z m -2.08,0.08 C 8.79,30.85 8.08,31.55 7.41,32.29 7.02,32.11 8.66,30.55 9.52,30.17 z m 0.36,0.03 C 9.57,31.17 8.92,32.05 7.98,32.47 7.76,31.99 9.29,30.84 9.88,30.20 z m 6.48,0.34 c -0.05,0.07 -0.11,0.14 -0.17,0.21 0.05,-0.07 0.11,-0.14 0.17,-0.21 z m 3.70,0.00 c -0.16,0.41 -0.44,0.87 -0.91,0.97 -1.79,0.09 0.51,-0.37 0.91,-0.97 z m -1.97,0.44 c 0.12,0.29 -9.3e-5,0.67 -0.35,0.72 -1.63,0.12 -0.01,-0.07 0.35,-0.72 z m 3.62,0.20 c 0.33,1.00 -1.69,1.17 -2.33,1.48 -0.24,-0.05 1.90,-0.76 2.33,-1.48 z m 3.20,1.06 c -0.40,0.83 -1.13,1.49 -2.03,1.75 0.01,-0.23 1.64,-1.00 2.03,-1.75 z M 8.28,32.64 c 0.02,-10e-4 0.03,0.00 0.05,0.02 0.11,0.55 -1.66,2.34 -1.28,1.57 0.35,-0.34 0.99,-1.59 1.23,-1.60 z m 13.76,0.01 c -0.05,0.06 -0.14,0.13 -0.24,0.19 -0.65,0.49 -1.44,0.80 -2.26,0.87 -0.28,-0.04 1.49,-0.37 2.26,-0.87 0.08,-0.06 0.16,-0.12 0.24,-0.19 z M 7.59,32.75 c 0.44,2.8e-4 -0.69,0.93 -0.72,1.15 -0.83,1.55 0.02,-0.74 0.48,-1.11 0.10,-0.03 0.18,-0.04 0.24,-0.04 z m 8.93,0.15 c -0.16,0.41 -0.44,0.87 -0.91,0.97 -1.79,0.08 0.51,-0.36 0.91,-0.97 z m -1.94,0.07 c 0.34,1.00 -1.69,1.17 -2.33,1.48 -0.24,-0.05 1.90,-0.76 2.33,-1.48 z m -6.02,0.17 c 0.14,0.00 -0.64,1.38 -1.27,1.41 0.31,-0.34 0.63,-0.68 0.91,-1.04 0.20,-0.26 0.31,-0.36 0.35,-0.37 0.00,-1.86e-4 0.00,-3.74e-4 0.00,-2.79e-4 z m 2.37,0.14 C 10.62,34.60 9.00,35.95 7.60,35.60 8.94,35.25 10.04,34.33 10.93,33.30 z m -1.96,0.09 c 0.24,-0.02 -0.88,1.93 -1.69,1.42 0.42,-0.28 0.85,-0.57 1.21,-0.94 0.26,-0.33 0.41,-0.47 0.47,-0.47 z m 1.05,0.04 c 0.18,0.21 -1.52,1.91 -2.61,1.85 0.99,-0.42 1.83,-1.12 2.61,-1.85 z m 4.29,0.91 c 0.13,0.29 0.00,0.67 -0.34,0.72 -1.63,0.12 -0.02,-0.07 0.34,-0.72 z m 6.28,2.59 c 0.05,0.00 0.11,0.07 0.11,0.20 -0.02,0.19 -0.27,0.62 -0.24,0.95 0.02,0.31 0.25,0.84 0.44,0.82 0.19,-0.06 0.45,-0.94 0.64,-1.10 0.13,-0.15 0.37,-0.10 0.31,0.13 -0.08,0.21 -0.50,0.78 -0.68,1.17 -0.19,0.38 -0.35,0.98 -0.42,1.03 -0.08,0 0.06,-0.66 0,-0.90 -0.09,-0.23 -0.32,-0.32 -0.41,-0.52 -0.10,-0.25 -0.15,-0.58 -0.13,-0.86 0.03,-0.29 0.20,-0.75 0.31,-0.86 0.02,-0.03 0.05,-0.05 0.08,-0.05 z M 12.38,37.18 c 0.10,-0.00 0.21,0.01 0.29,0.04 0.23,0.09 0.43,0.36 0.48,0.66 0.01,0.29 -0.14,0.82 -0.24,1.08 -0.11,0.23 -0.27,0.07 -0.29,0.37 -0.03,0.29 0.33,1.35 0.24,1.33 -0.11,-0.05 -0.72,-1.23 -0.77,-1.61 -0.05,-0.39 0.45,-0.46 0.50,-0.70 0.02,-0.27 -0.11,-0.68 -0.26,-0.77 -0.17,-0.07 -0.46,0.24 -0.64,0.26 -0.17,-0.01 -0.35,-0.19 -0.33,-0.28 0.01,-0.11 0.21,-0.21 0.44,-0.27 0.13,-0.05 0.36,-0.10 0.57,-0.10 z m -3.47,0.44 c 0.16,-0.01 -1.67,2.23 -1.18,1.25 0.21,-0.31 0.47,-0.59 0.74,-0.86 0.27,-0.27 0.40,-0.38 0.43,-0.38 z m -0.79,0.00 c 0.16,-0.00 -1.82,2.09 -1.26,1.16 0.24,-0.29 0.50,-0.56 0.80,-0.80 0.29,-0.25 0.43,-0.35 0.46,-0.35 z m 0.32,0.01 c 0.15,-0.00 -1.73,2.18 -1.21,1.21 C 7.44,38.55 7.72,38.28 8.00,38.02 8.28,37.75 8.41,37.64 8.44,37.64 z m 0.79,0.00 c 0.15,-0.02 -1.53,2.32 -1.10,1.32 0.19,-0.32 0.43,-0.63 0.69,-0.90 0.25,-0.29 0.37,-0.41 0.40,-0.41 z m 11.91,1.91 c 0.00,0 0.01,0.01 0.02,0.03 0.03,0.12 0.19,0.90 0.21,1.21 -0.02,0.27 -0.21,0.47 -0.21,0.57 0.01,0.09 0.27,0.05 0.24,0.08 -0.07,0.03 -0.50,0.22 -0.55,0.13 -0.03,-0.11 0.19,-0.52 0.26,-0.77 0.03,-0.28 -0.02,-0.63 0,-0.84 -0.00,-0.18 -0.00,-0.43 0.02,-0.43 z m -8.82,0.70 c 0.00,6.53e-4 0.01,0.00 0.02,0.02 0.03,0.10 0.12,0.52 0.15,0.86 -0.01,0.29 -0.16,0.81 -0.10,0.93 0.05,0.08 0.36,-0.33 0.50,-0.33 0.13,0.00 0.30,0.27 0.31,0.35 -0.03,0.05 -0.16,-0.13 -0.35,-0.06 -0.17,0.04 -0.52,0.46 -0.64,0.35 -0.11,-0.13 -0.06,-0.76 -0.04,-1.06 0.01,-0.30 0.05,-0.55 0.11,-0.72 0.02,-0.16 0.01,-0.33 0.04,-0.33 z m 9.11,1.63 c 0.01,-0.00 0.06,0.02 0.14,0.06 0.19,0.11 0.70,0.59 1.17,0.84 0.47,0.21 1.38,0.36 1.61,0.50 0.16,0.11 -0.21,0.07 -0.44,0.28 -0.23,0.19 -0.57,0.98 -0.88,0.93 -0.32,-0.07 -0.77,-0.90 -1.01,-1.30 -0.25,-0.41 -0.47,-0.93 -0.52,-1.13 -0.04,-0.12 -0.09,-0.19 -0.06,-0.19 z m -0.80,0.27 c 0.23,0.00 0.27,0.59 0.55,1.01 0.29,0.44 1.11,1.44 1.10,1.66 -0.05,0.17 -0.86,-0.47 -1.32,-0.48 -0.47,-0.01 -1.02,0.30 -1.39,0.44 -0.39,0.12 -0.65,0.30 -0.79,0.33 -0.14,0.01 -0.15,0 -0.04,-0.21 0.09,-0.25 0.36,-0.69 0.68,-1.15 0.29,-0.47 0.85,-1.46 1.15,-1.57 0.02,-0.00 0.04,-0.01 0.06,-0.01 z m -7.30,0.32 c 0.04,-0.00 0.13,0.03 0.29,0.06 0.28,0.03 0.88,0.14 1.37,0.26 0.45,0.09 1.46,0.22 1.43,0.40 -0.03,0.16 -1.15,0.36 -1.61,0.59 -0.46,0.23 -0.93,0.80 -1.15,0.72 -0.23,-0.11 -0.14,-0.98 -0.19,-1.32 -0.05,-0.33 -0.21,-0.56 -0.17,-0.66 0,-0.04 0.00,-0.06 0.03,-0.06 z m -1.02,0.26 c 0.09,9.98e-4 0.18,0.04 0.27,0.17 0.20,0.29 0.53,1.52 0.52,1.77 -0.03,0.23 -0.36,-0.23 -0.68,-0.31 -0.33,-0.07 -0.90,-0.14 -1.32,-0.11 -0.45,0.01 -1.09,0.19 -1.28,0.22 -0.19,0.00 -0.05,0.01 0.13,-0.13 0.17,-0.19 0.56,-0.65 0.90,-0.90 0.31,-0.26 0.74,-0.48 1.03,-0.57 0.15,-0.05 0.28,-0.13 0.41,-0.13 z" />
</svg>
