<?xml version="1.0" encoding="UTF-8" standalone="no"?>
<!-- Created with Inkscape (http://www.inkscape.org/) -->
<svg xmlns:dc="http://purl.org/dc/elements/1.1/" xmlns:cc="http://creativecommons.org/ns#" xmlns:rdf="http://www.w3.org/1999/02/22-rdf-syntax-ns#" xmlns:svg="http://www.w3.org/2000/svg" xmlns="http://www.w3.org/2000/svg" version="1.1" width="100%" height="100%" viewBox="0 0 48 48" id="svg2">
<defs id="defs12" />
<path d="m 12.06,46.44 c -0.32,-0.22 -0.45,-0.43 -0.49,-0.81 -0.03,-0.27 -0.01,-0.37 0.08,-0.51 0.06,-0.09 0.19,-0.33 0.27,-0.52 0.14,-0.34 0.53,-1.16 0.64,-1.35 0.13,-0.22 0.71,-1.58 0.71,-1.66 -2.4e-4,-0.04 0.03,-0.17 0.08,-0.28 0.12,-0.28 0.24,-1.03 0.26,-1.70 0.01,-0.30 0.03,-1.06 0.06,-1.68 0.03,-0.97 0.02,-1.28 -0.11,-2.35 -0.12,-0.97 -0.14,-1.35 -0.10,-1.86 0.02,-0.35 0.08,-1.29 0.12,-2.09 0.04,-0.80 0.13,-1.77 0.20,-2.19 0.07,-0.40 0.13,-0.79 0.14,-0.86 0.08,-0.58 0.13,-0.84 0.27,-1.35 0.08,-0.31 0.20,-0.75 0.24,-0.96 0.18,-0.82 0.41,-1.43 1.18,-3.18 0.14,-0.33 0.34,-0.80 0.44,-1.03 0.17,-0.40 0.52,-1.14 1.13,-2.42 0.15,-0.32 0.28,-0.60 0.28,-0.62 0,-0.02 0.06,-0.15 0.15,-0.28 0.29,-0.47 1.16,-2.86 1.80,-5.00 0.08,-0.28 0.27,-0.84 0.41,-1.24 0.22,-0.62 0.43,-1.60 0.54,-2.52 0.06,-0.54 0.38,-2.24 0.45,-2.44 0.20,-0.56 0.32,-0.87 0.35,-0.90 0.01,-0.01 0.08,-0.13 0.15,-0.25 0.06,-0.12 0.20,-0.37 0.30,-0.54 0.23,-0.42 0.83,-1.04 1.31,-1.36 0.63,-0.42 1.63,-0.77 2.65,-0.92 0.48,-0.07 0.95,-0.14 1.04,-0.16 0.08,-0.01 0.33,-0.04 0.54,-0.06 0.87,-0.08 1.26,-0.22 2.52,-0.89 0.24,-0.13 0.70,-0.28 1.22,-0.40 0.74,-0.17 0.94,-0.19 1.87,-0.20 1.04,-0.00 1.93,0.09 2.47,0.28 0.31,0.11 0.99,0.57 1.05,0.71 0.08,0.22 0.03,0.40 -0.16,0.60 -0.11,0.11 -0.27,0.20 -0.35,0.20 -0.31,0 -2.06,0.49 -2.41,0.68 -0.09,0.04 -0.21,0.09 -0.26,0.09 -0.05,0 -0.10,0.02 -0.11,0.04 -0.01,0.02 -0.20,0.14 -0.44,0.26 -0.23,0.11 -0.59,0.31 -0.80,0.45 -0.62,0.38 -1.70,1.45 -1.70,1.68 0,0.02 -0.05,0.12 -0.12,0.21 -0.17,0.22 -0.51,0.87 -0.51,0.98 0,0.05 -0.05,0.21 -0.12,0.36 -0.06,0.14 -0.17,0.42 -0.23,0.62 -0.06,0.19 -0.13,0.40 -0.17,0.47 -0.08,0.16 -0.21,0.87 -0.43,2.32 -0.07,0.49 -0.13,1.01 -0.13,1.15 0.00,0.40 0.08,1.02 0.14,1.15 0.06,0.12 0.26,0.84 0.38,1.36 0.03,0.17 0.09,0.35 0.13,0.39 0.03,0.04 0.07,0.14 0.08,0.22 0.03,0.18 0.20,0.82 0.26,0.95 0.02,0.05 0.07,0.27 0.12,0.48 0.10,0.51 0.18,0.83 0.31,1.25 0.05,0.19 0.14,0.52 0.19,0.74 0.04,0.21 0.17,0.74 0.28,1.17 0.11,0.43 0.21,0.86 0.22,0.96 0.01,0.09 0.06,0.46 0.11,0.82 0.05,0.35 0.09,0.75 0.10,0.89 0.00,0.13 0.04,0.34 0.09,0.45 0.04,0.10 0.11,0.38 0.15,0.61 0.19,1.14 0.32,2.08 0.35,2.57 0.11,1.69 0.15,4.62 0.07,5.73 -0.03,0.58 -0.24,1.36 -0.46,1.79 -0.04,0.09 -0.08,0.21 -0.08,0.27 -2.4e-4,0.05 -0.04,0.14 -0.09,0.18 -0.05,0.04 -0.09,0.10 -0.09,0.14 0,0.13 -0.34,0.73 -0.60,1.08 -0.65,0.84 -0.83,1.29 -1.12,2.83 -0.25,1.31 -0.24,2.94 0.00,3.82 0.17,0.61 0.57,1.03 1.04,1.09 0.33,0.04 0.84,0.25 1.00,0.42 0.15,0.15 0.30,0.40 0.37,0.66 0.05,0.20 0.04,0.25 -0.05,0.36 -0.32,0.32 -1.30,0.52 -2.46,0.51 -0.25,-0.00 -1.30,0.01 -2.33,0.03 -3.17,0.06 -3.18,0.06 -3.47,-0.08 L 22.84,45.69 22.45,45.88 c -0.53,0.25 -0.93,0.31 -2.19,0.31 -0.60,0.00 -1.41,0.02 -1.80,0.06 -1.73,0.14 -2.48,0.19 -3.73,0.22 -0.53,0.01 -1.29,0.04 -1.70,0.06 -0.70,0.03 -0.75,0.03 -0.96,-0.10 z m 4.45,-2.47 c 0.23,-0.19 0.45,-0.35 0.48,-0.35 0.02,0 0.10,-0.05 0.16,-0.12 0.16,-0.18 1.03,-0.57 1.58,-0.71 0.37,-0.09 1.43,-0.09 1.46,-0.00 0.01,0.03 0.06,0.07 0.11,0.07 0.12,0 0.75,0.52 1.26,1.04 0.23,0.24 0.49,0.46 0.58,0.49 0.39,0.15 0.80,-0.02 2.08,-0.89 0.69,-0.47 0.83,-0.55 1.12,-0.66 0.84,-0.31 1.48,-0.17 2.45,0.50 0.16,0.11 0.37,0.23 0.47,0.27 0.17,0.06 0.17,0.06 0.13,-0.07 -0.07,-0.24 -0.22,-0.90 -0.27,-1.20 -0.07,-0.47 -0.04,-2.77 0.03,-3.02 0.08,-0.24 0.24,-1.12 0.30,-1.67 0.02,-0.19 0.08,-0.42 0.14,-0.51 0.05,-0.08 0.15,-0.36 0.22,-0.61 0.43,-1.67 0.48,-1.85 0.63,-2.74 0.02,-0.15 0.09,-0.55 0.15,-0.86 0.21,-1.23 0.26,-1.56 0.39,-2.90 0.12,-1.25 0.15,-5.47 0.04,-6.18 -0.04,-0.24 -0.10,-0.72 -0.14,-1.05 -0.07,-0.70 -0.26,-1.65 -0.45,-2.29 -0.07,-0.24 -0.14,-0.53 -0.16,-0.64 -0.03,-0.19 -0.26,-1.08 -0.48,-1.83 -0.06,-0.23 -0.13,-0.49 -0.14,-0.57 -0.01,-0.08 -0.12,-0.46 -0.23,-0.83 -0.11,-0.37 -0.29,-1.01 -0.40,-1.42 -0.11,-0.41 -0.21,-0.76 -0.23,-0.79 -0.03,-0.03 -0.89,0.50 -0.96,0.60 -0.01,0.02 -0.12,0.06 -0.24,0.09 -0.11,0.02 -0.42,0.18 -0.69,0.36 -0.26,0.17 -0.50,0.31 -0.51,0.31 -0.01,0 -0.17,0.09 -0.35,0.22 -0.17,0.12 -0.37,0.23 -0.43,0.26 -0.10,0.03 -0.35,0.36 -0.94,1.22 -0.12,0.17 -0.30,0.49 -0.41,0.70 -0.17,0.36 -0.56,1.45 -0.62,1.73 -0.09,0.47 -0.34,2.41 -0.38,2.93 -0.04,0.55 -0.22,2.41 -0.28,2.96 -0.10,0.89 -0.15,1.55 -0.14,1.86 0.01,0.39 -0.14,1.36 -0.30,1.83 -0.07,0.21 -0.13,0.43 -0.13,0.49 -0.00,0.15 -0.33,1.14 -0.56,1.70 -0.19,0.46 -0.30,0.67 -0.83,1.56 -0.46,0.77 -1.25,1.69 -1.90,2.19 -0.10,0.08 -0.25,0.20 -0.34,0.28 -0.08,0.07 -0.31,0.20 -0.52,0.28 -0.20,0.07 -0.41,0.16 -0.46,0.18 -0.15,0.07 -0.47,-0.00 -0.67,-0.16 l -0.18,-0.14 0.26,-1.11 c 0.14,-0.61 0.28,-1.31 0.30,-1.56 0.01,-0.24 0.06,-0.55 0.09,-0.67 0.09,-0.33 0.31,-1.80 0.38,-2.59 0.09,-1.04 -0.05,-1.13 -0.16,-0.10 -0.00,0.05 -0.03,0.18 -0.05,0.27 -0.10,0.42 -0.25,1.39 -0.33,2.19 -0.04,0.46 -0.28,1.58 -0.38,1.77 -0.04,0.08 -0.11,0.32 -0.15,0.51 -0.04,0.19 -0.10,0.42 -0.13,0.51 -0.03,0.08 -0.07,0.30 -0.09,0.47 -0.02,0.17 -0.04,0.33 -0.06,0.36 -0.04,0.06 -0.04,5.37 0.00,5.98 0.02,0.30 0.06,0.89 0.10,1.32 0.03,0.42 0.06,0.86 0.06,0.97 -0.01,0.19 -0.00,0.20 0.16,0.14 0.09,-0.03 0.37,-0.22 0.61,-0.41 z M 28.61,22.65 c -0.04,-0.05 -0.05,-0.09 -0.01,-0.09 0.03,0 0.08,0.04 0.10,0.09 0.02,0.05 0.02,0.09 0.01,0.09 -0.01,0 -0.05,-0.04 -0.10,-0.09 z M 24.70,6.85 C 24.85,6.75 25.09,6.48 25.24,6.26 25.48,5.91 25.52,5.80 25.50,5.58 25.48,5.36 25.45,5.30 25.27,5.21 24.99,5.07 24.76,5.13 24.43,5.42 c -0.30,0.27 -0.32,0.31 -0.11,0.31 0.31,0 0.37,0.30 0.10,0.54 -0.09,0.08 -0.14,0.09 -0.26,0.03 -0.11,-0.05 -0.13,-0.11 -0.11,-0.29 0.01,-0.12 0.02,-0.21 0.01,-0.21 -0.03,0 -0.28,0.25 -0.28,0.29 0,0.02 -0.04,0.09 -0.08,0.15 -0.04,0.05 -0.10,0.19 -0.13,0.30 -0.03,0.17 -0.01,0.22 0.16,0.37 0.17,0.14 0.25,0.17 0.46,0.14 0.14,-0.01 0.37,-0.11 0.51,-0.21 z m 3.89,-1.10 c 0.44,-0.43 0.88,-0.83 0.98,-0.88 0.09,-0.05 0.18,-0.11 0.18,-0.14 0,-0.10 1.18,-0.94 1.49,-1.06 0.16,-0.06 0.30,-0.14 0.30,-0.17 0,-0.03 0.06,-0.05 0.14,-0.05 0.07,-0.00 0.20,-0.04 0.26,-0.09 0.10,-0.08 0.10,-0.09 0.02,-0.13 -0.17,-0.06 -1.47,0.49 -1.75,0.75 -0.07,0.06 -0.15,0.12 -0.18,0.12 -0.02,0 -0.15,0.11 -0.28,0.25 -0.13,0.14 -0.27,0.25 -0.31,0.25 -0.04,0 -0.07,0.02 -0.07,0.04 -6.9e-5,0.02 -0.14,0.14 -0.32,0.27 -0.35,0.24 -0.95,0.86 -0.95,0.98 -6e-4,0.04 -0.07,0.14 -0.15,0.22 -0.14,0.13 -0.48,0.72 -0.48,0.83 3.59e-4,0.02 0.08,-0.05 0.17,-0.17 0.09,-0.12 0.53,-0.58 0.97,-1.01 z" />
</svg>
