<?xml version="1.0" encoding="UTF-8" standalone="no"?>
<!-- Created with Inkscape (http://www.inkscape.org/) -->
<svg xmlns:dc="http://purl.org/dc/elements/1.1/" xmlns:cc="http://creativecommons.org/ns#" xmlns:rdf="http://www.w3.org/1999/02/22-rdf-syntax-ns#" xmlns:svg="http://www.w3.org/2000/svg" xmlns="http://www.w3.org/2000/svg" version="1.0" width="100%" height="100%" viewBox="0 0 48 48" id="svg2">
<defs id="defs66" />
<path d="m 13.13,6.82 c -0.48,0.01 -0.92,0.09 -1.25,0.27 -0.30,0.16 -1.18,0.92 -1.98,1.68 -1.46,1.39 -1.91,2.43 -1.41,3.17 0.16,0.28 0.35,0.23 1.04,-0.19 1.01,-0.63 1.72,-0.63 2.06,0 0.30,0.56 -0.30,2.01 -1.35,3.17 -0.37,0.40 -0.80,0.99 -0.99,1.30 -1.18,2.03 -1.51,2.74 -1.82,3.97 -0.18,0.73 -0.37,1.51 -0.42,1.72 -0.44,1.79 0.09,4.68 1.13,6.25 0.56,0.82 2.74,2.96 3.03,2.96 0.09,0 0.30,0.14 0.47,0.30 0.66,0.63 3.74,2.32 3.95,2.17 0.14,-0.07 0.47,-0.02 0.75,0.11 0.26,0.16 0.54,0.21 0.61,0.16 0.16,-0.18 -0.71,-1.11 -1.04,-1.11 -0.16,0 -0.94,-0.33 -1.72,-0.73 -0.80,-0.40 -1.51,-0.66 -1.58,-0.59 C 12.45,31.63 10.41,30.02 9.49,29.03 9.18,28.70 8.61,27.75 8.21,26.90 7.53,25.45 7.50,25.24 7.62,23.23 c 0.14,-2.60 0.59,-4.04 1.75,-5.94 1.32,-2.15 1.60,-2.46 2.22,-2.58 1.94,-0.37 1.94,-0.37 2.01,-1.01 0.04,-0.35 0.02,-0.33 -0.28,0.04 -0.59,0.82 -0.85,0.16 -0.52,-1.30 0.23,-0.99 0.30,-1.13 0.38,-0.64 0.09,0.71 0.75,0.68 0.75,-0.04 0,-0.44 -0.61,-0.68 -1.77,-0.71 l -0.71,-0.02 0.59,-0.26 c 0.33,-0.14 0.63,-0.28 0.70,-0.28 0.37,-0.11 2.03,-0.97 2.15,-1.13 0.07,-0.11 0.25,0.04 0.40,0.37 0.18,0.44 0.16,0.66 -0.06,1.01 -0.26,0.33 -0.33,0.33 -0.35,0.07 0,-0.28 -0.07,-0.25 -0.40,0.04 -0.33,0.33 -0.33,0.49 -0.11,0.94 0.28,0.52 0.28,0.52 0.18,-0.11 -0.04,-0.44 -1.04e-4,-0.59 0.14,-0.45 0.14,0.14 0.28,0.59 0.33,1.04 0.04,0.49 0.02,0.66 -0.11,0.45 -0.14,-0.23 -0.23,-0.23 -0.38,-0.02 -0.18,0.30 0.02,0.59 0.42,0.59 0.35,0.02 0.85,-0.64 0.94,-1.23 0.04,-0.23 0.21,-0.73 0.37,-1.11 0.14,-0.37 0.21,-0.87 0.14,-1.11 -0.26,-0.80 0.52,-0.23 0.97,0.66 0.28,0.66 0.35,1.23 0.25,2.41 -0.07,0.94 -0.04,1.37 0.07,1.08 0.16,-0.40 0.21,-0.37 0.21,0.23 0.02,1.08 0.78,2.86 1.56,3.67 0.40,0.37 1.70,1.20 2.91,1.79 1.18,0.61 2.17,1.13 2.17,1.18 0,0.04 -0.87,-0.23 -1.94,-0.63 -1.08,-0.40 -2.32,-0.87 -2.77,-1.04 -1.20,-0.44 -5.09,-0.16 -6.53,0.47 -1.51,0.66 -2.50,2.13 -2.86,4.21 -0.21,1.32 0.96,3.59 2.57,4.99 1.30,1.11 3.50,2.31 4.92,2.69 0.75,0.18 4.02,0.18 4.94,-0.02 1.01,-0.21 2.98,-0.99 3.26,-1.27 0.16,-0.16 0.40,-0.30 0.49,-0.30 0.11,0 0.56,-0.35 1.04,-0.78 1.51,-1.46 2.63,-1.93 4.61,-2.10 0.40,-0.02 0.75,-0.11 0.75,-0.19 0,-0.09 -0.59,-0.11 -1.30,-0.04 -1.25,0.09 -1.70,-0.14 -1.01,-0.56 0.28,-0.18 1.87,-0.16 3.10,0.04 0.35,0.04 0.64,1.06e-4 0.64,-0.14 0,-0.18 -1.23,-0.30 -3.36,-0.30 -0.23,0 -0.42,-0.16 -0.42,-0.37 0,-0.21 -0.16,-0.64 -0.38,-0.94 -0.37,-0.54 -0.37,-0.54 0.14,-0.25 0.66,0.35 1.58,0.63 3.43,1.08 0.78,0.21 1.84,0.47 2.36,0.59 0.52,0.11 1.25,0.28 1.61,0.33 0.37,0.07 0.78,0.16 0.90,0.25 0.11,0.07 0.61,0.16 1.11,0.21 0.47,0.07 1.13,0.16 1.46,0.23 1.42,0.33 1.65,0.35 1.65,0.12 0,-0.11 -0.14,-0.23 -0.28,-0.26 -0.16,0 -0.52,-0.04 -0.78,-0.11 -0.26,-0.04 -0.80,-0.14 -1.20,-0.21 -0.73,-0.09 -4.00,-0.89 -7.19,-1.75 -3.14,-0.82 -4.73,-1.42 -6.34,-2.34 -0.87,-0.52 -1.80,-0.99 -2.03,-1.09 -0.23,-0.07 -0.37,-0.21 -0.30,-0.30 0.09,-0.07 0.96,0.26 1.96,0.73 0.99,0.47 1.91,0.85 2.03,0.85 0.11,0 0.57,0.14 0.97,0.33 0.73,0.33 2.39,0.85 3.33,1.01 0.26,0.04 0.56,0.16 0.70,0.28 0.14,0.11 0.64,0.26 1.09,0.28 0.44,0.04 0.87,0.16 0.94,0.25 0.07,0.09 0.56,0.23 1.06,0.30 0.52,0.07 1.70,0.35 2.60,0.64 1.98,0.56 2.88,0.75 2.65,0.51 -0.28,-0.28 -3.26,-1.27 -4.31,-1.41 -0.52,-0.09 -1.11,-0.23 -1.30,-0.33 -0.18,-0.09 -0.80,-0.25 -1.37,-0.35 -0.54,-0.09 -1.56,-0.35 -2.22,-0.61 -0.68,-0.23 -1.39,-0.45 -1.56,-0.45 -0.35,0 -1.04,-0.28 -3.74,-1.56 -0.92,-0.44 -1.75,-0.80 -1.82,-0.80 -0.23,0 -2.74,-1.13 -4.07,-1.84 C 19.22,17.50 18.61,16.26 18.35,11.76 18.23,9.77 18.16,9.52 17.61,9.09 17.28,8.83 17.09,8.52 17.16,8.38 17.26,8.23 17.21,8.19 17.09,8.26 16.95,8.35 16.69,8.24 16.52,8.02 15.89,7.27 14.37,6.79 13.13,6.82 z m 1.01,0.90 c 0.17,0.00 0.49,0.12 0.85,0.36 0.33,0.21 0.59,0.47 0.59,0.59 0,0.26 -1.32,-0.37 -1.53,-0.73 -0.09,-0.15 -0.04,-0.22 0.09,-0.22 z M 12.14,7.95 c 0.04,0 0.04,0.21 -0.02,0.47 -0.07,0.28 -0.18,0.45 -0.25,0.38 C 11.74,8.66 11.98,7.95 12.14,7.95 z m -0.14,2.15 c 0.20,-0.00 0.29,0.06 0.21,0.12 -0.07,0.07 -0.28,0.09 -0.45,0.02 -0.18,-0.07 -0.11,-0.14 0.14,-0.14 0.03,-0.00 0.06,-0.00 0.09,-0.00 z m -2.24,0.21 c 0.49,0.02 0.49,0.02 -0.06,0.35 -0.63,0.33 -0.85,0.30 -0.59,-0.09 0.07,-0.14 0.37,-0.25 0.66,-0.25 z m 4.48,2.90 c -0.07,0.00 -0.13,0.10 -0.20,0.27 -0.18,0.52 0.07,0.78 0.42,0.42 0.21,-0.21 0.21,-0.35 0,-0.56 -0.09,-0.09 -0.16,-0.13 -0.22,-0.13 z m 2.21,1.36 c -0.07,0 -0.18,0.09 -0.25,0.23 -0.07,0.11 -0.02,0.23 0.09,0.23 0.14,0 0.26,-0.11 0.26,-0.23 0,-0.14 -0.04,-0.23 -0.09,-0.23 z m 1.01,0.02 c -0.08,-0.00 -0.13,0.23 -0.11,0.73 0.04,0.87 0.56,2.08 0.92,2.08 0.11,0 0.14,-0.18 0.04,-0.42 -0.11,-0.21 -0.30,-0.85 -0.45,-1.42 -0.16,-0.62 -0.31,-0.95 -0.41,-0.96 z m -2.16,2.91 c -0.09,0.01 -0.19,0.11 -0.26,0.25 -0.07,0.18 -0.02,0.40 0.06,0.47 0.11,0.07 0.26,-0.04 0.35,-0.23 0.07,-0.18 0.02,-0.40 -0.06,-0.47 -0.02,-0.01 -0.06,-0.02 -0.09,-0.02 z m 2.96,1.90 c 0.21,0.00 0.43,0.05 0.56,0.17 0.07,0.09 0.28,0.09 0.47,0.02 0.18,-0.07 0.33,0.02 0.33,0.18 0,0.28 0.04,0.28 0.21,0.02 0.26,-0.42 1.02,0.28 0.80,0.80 -0.07,0.18 -0.04,0.33 0.06,0.28 0.11,-0.02 0.45,0.04 0.75,0.14 0.63,0.21 0.47,0.61 -0.28,0.61 -0.63,0 -1.60,-0.94 -1.13,-1.11 0.14,-0.07 0.28,-0.21 0.28,-0.32 0,-0.14 -0.12,-0.16 -0.23,-0.09 -0.14,0.09 -0.40,0.02 -0.59,-0.11 -0.23,-0.18 -0.35,-0.21 -0.35,-0.04 0,0.14 0.09,0.30 0.21,0.38 0.11,0.07 0.26,0.40 0.30,0.73 0.11,0.54 0.09,0.56 -0.25,0.28 -0.21,-0.18 -0.51,-0.28 -0.66,-0.23 -0.16,0.07 -0.30,-0.02 -0.30,-0.21 -0.02,-0.21 -0.09,-0.21 -0.30,0.06 -0.21,0.28 -0.42,0.33 -0.83,0.19 -0.71,-0.26 -0.66,-0.61 0.14,-0.64 1.16,-0.04 1.49,-0.11 1.39,-0.37 -0.04,-0.14 -0.33,-0.23 -0.59,-0.23 -0.28,0.02 -0.51,-0.09 -0.51,-0.26 0,-0.15 0.25,-0.24 0.52,-0.24 z m -1.02,0.12 c 0.14,0 0.25,0.09 0.25,0.23 0,0.11 -0.04,0.23 -0.09,0.23 -0.07,0 -0.18,-0.11 -0.25,-0.23 -0.07,-0.14 -0.02,-0.23 0.09,-0.23 z m -1.58,1.21 c 0.15,0.00 0.29,0.12 0.51,0.34 0.47,0.44 0.28,0.80 -0.42,0.80 -0.78,0 -1.15,-0.47 -0.66,-0.85 0.26,-0.20 0.42,-0.30 0.57,-0.29 z m -2.91,0.08 0.49,0.80 c 0.28,0.42 0.45,0.85 0.35,0.92 -0.21,0.21 -0.51,-0.24 -0.68,-1.02 L 12.73,20.86 z m 1.06,0.42 c 0.14,0 0.45,0.23 0.66,0.52 0.35,0.44 0.32,0.49 -0.07,0.49 -0.23,0 -0.51,-0.23 -0.63,-0.49 -0.16,-0.37 -0.16,-0.52 0.04,-0.52 z m 10.54,0.05 c 0.19,0.00 0.71,0.27 1.76,0.84 0.66,0.37 1.18,0.73 1.16,0.80 -0.04,0.07 -0.02,0.11 0.04,0.11 0.37,-0.02 1.61,0.80 1.35,0.90 -0.16,0.04 -0.52,-0.09 -0.78,-0.33 -0.35,-0.30 -0.45,-0.32 -0.45,-0.06 0,0.21 -0.18,0.09 -0.49,-0.26 -0.49,-0.59 -0.49,-0.58 -0.38,-0.04 0.11,0.44 0.07,0.49 -0.21,0.25 -0.18,-0.14 -0.33,-0.42 -0.33,-0.59 0,-0.18 -0.11,-0.33 -0.25,-0.33 -0.11,0 -0.16,0.09 -0.09,0.23 0.07,0.11 0.04,0.23 -0.06,0.23 -0.26,0 -0.85,-0.66 -1.20,-1.35 -0.14,-0.27 -0.18,-0.42 -0.03,-0.41 z m -2.14,0.13 0.82,0.02 c 0.68,0.02 0.95,0.21 1.58,1.06 0.92,1.30 0.80,1.51 -0.26,0.42 -0.44,-0.44 -0.90,-0.83 -1.04,-0.83 -0.11,0 0.12,0.38 0.57,0.83 0.44,0.44 0.73,0.82 0.66,0.82 -0.49,0 -0.99,-0.42 -1.63,-1.32 l -0.70,-1.01 z m -10.06,0.03 c 0.12,-0.02 0.47,0.42 0.85,1.15 0.26,0.49 0.37,0.92 0.23,0.92 -0.28,0 -0.82,-0.85 -1.06,-1.63 -0.08,-0.29 -0.08,-0.43 -0.02,-0.44 z m 6.83,0.33 c 0.06,-0.00 0.18,0.07 0.38,0.24 0.26,0.21 0.42,0.47 0.35,0.59 -0.18,0.28 -0.80,-0.26 -0.80,-0.66 0,-0.11 0.01,-0.17 0.06,-0.17 z m -1.63,0.08 c 0.04,0 0.14,0.16 0.23,0.35 0.07,0.18 0.02,0.35 -0.09,0.35 -0.14,0 -0.23,-0.16 -0.23,-0.35 0,-0.18 0.04,-0.35 0.09,-0.35 z m 0.59,0 c 0.14,0 0.25,0.09 0.25,0.23 0,0.11 -0.04,0.23 -0.09,0.23 -0.07,0 -0.18,-0.12 -0.25,-0.23 -0.07,-0.14 -0.02,-0.23 0.09,-0.23 z m -6.30,0.13 c 0.04,1.04e-4 0.13,0.15 0.31,0.45 0.21,0.37 0.54,0.89 0.75,1.13 0.33,0.37 0.40,0.37 0.77,0.02 0.23,-0.21 0.35,-0.52 0.28,-0.70 -0.07,-0.18 -1.06e-4,-0.33 0.14,-0.33 0.14,0 0.25,0.18 0.25,0.42 0,0.56 0.92,1.47 0.96,0.97 0.02,-0.18 0.02,-0.40 0,-0.52 0,-0.09 0.07,-0.16 0.21,-0.16 0.14,0 0.23,0.09 0.23,0.19 0,0.21 1.68,1.11 1.96,1.04 0.09,-0.02 0.16,0.04 0.16,0.16 0,0.11 0.18,0.16 0.42,0.11 0.26,-0.09 0.54,0.11 0.82,0.59 l 0.42,0.73 -1.16,-0.59 c -1.27,-0.63 -1.58,-0.71 -1.35,-0.35 0.07,0.11 0.04,0.23 -0.09,0.23 -0.11,0 -0.26,-0.14 -0.33,-0.30 -0.07,-0.21 -0.21,-0.19 -0.51,0.11 -0.40,0.35 -0.38,0.40 0.32,0.75 0.85,0.44 0.92,0.56 0.26,0.51 -0.49,-0.02 -1.89,-1.20 -1.89,-1.58 0,-0.14 -0.12,-0.16 -0.23,-0.09 -0.16,0.09 -0.16,0.26 -0.04,0.42 0.21,0.28 0.56,1.82 0.42,1.82 -0.04,0 -0.26,-0.38 -0.47,-0.83 -0.23,-0.47 -0.49,-0.78 -0.61,-0.70 -0.14,0.07 -0.40,-0.28 -0.61,-0.80 -0.21,-0.54 -0.47,-0.92 -0.56,-0.85 -0.11,0.07 -0.25,0.02 -0.35,-0.11 -0.07,-0.11 -0.28,-0.23 -0.47,-0.23 -0.23,0 -0.30,0.26 -0.23,0.87 0.07,0.87 0.07,0.87 -0.23,0.30 -0.16,-0.33 -0.23,-0.63 -0.16,-0.70 0.09,-0.07 0.16,-0.38 0.16,-0.71 0,-0.33 0.11,-0.56 0.25,-0.54 0.16,0.02 0.23,-0.16 0.16,-0.47 -0.03,-0.17 -0.03,-0.26 -0.00,-0.26 z M 21.66,22.16 c 0.35,0 0.80,0.23 1.06,0.52 0.49,0.61 0.59,1.01 0.16,0.73 -0.16,-0.09 -0.40,-0.19 -0.54,-0.21 -0.11,0 -0.35,-0.04 -0.51,-0.04 -0.16,-0.02 -0.40,-0.26 -0.54,-0.52 -0.21,-0.42 -0.18,-0.47 0.38,-0.47 z m -6.20,0.23 c 0.07,0 0.18,0.09 0.25,0.23 0.07,0.11 0.02,0.23 -0.09,0.23 -0.14,0 -0.25,-0.12 -0.25,-0.23 0,-0.14 0.04,-0.23 0.09,-0.23 z m 6.51,0 c -0.09,0 -0.14,0.16 -0.07,0.35 0.09,0.18 0.23,0.35 0.35,0.35 0.09,0 0.14,-0.16 0.06,-0.35 -0.09,-0.18 -0.23,-0.35 -0.35,-0.35 z m -5.54,0.06 c 0.18,0 0.35,0.09 0.35,0.21 0,0.09 -0.09,0.19 -0.21,0.19 -0.14,0 -0.28,-0.09 -0.35,-0.19 -0.07,-0.11 0.02,-0.21 0.21,-0.21 z m -1.90,0.48 c 0.03,-0.00 0.08,0.01 0.12,0.03 0.14,0.07 0.23,0.25 0.23,0.37 0,0.14 -0.09,0.16 -0.23,0.09 -0.11,-0.07 -0.23,-0.26 -0.23,-0.38 0,-0.08 0.04,-0.12 0.11,-0.13 z m 3.07,0.01 c 0.04,-0.01 0.13,0.01 0.29,0.04 0.23,0.07 0.61,0.40 0.87,0.73 0.42,0.56 0.42,0.59 0,0.35 -0.26,-0.14 -0.63,-0.44 -0.89,-0.70 -0.25,-0.29 -0.34,-0.40 -0.27,-0.42 z m 1.12,0.04 c 0.08,-0.01 0.29,0.08 0.52,0.26 0.30,0.23 0.52,0.52 0.45,0.61 -0.14,0.21 -1.01,-0.49 -1.01,-0.83 0,-0.02 0.01,-0.04 0.04,-0.04 z m -1.62,0.19 c 0.07,0.01 0.21,0.11 0.37,0.27 0.23,0.23 0.40,0.49 0.35,0.54 -0.14,0.14 -0.80,-0.47 -0.80,-0.75 0,-0.05 0.02,-0.07 0.07,-0.06 z m 3.82,0.28 c 0.07,-5.8e-5 0.20,0.04 0.36,0.13 0.26,0.16 0.47,0.37 0.47,0.47 0,0.28 -0.32,0.23 -0.66,-0.09 -0.30,-0.30 -0.35,-0.51 -0.17,-0.51 z m 1.22,0.46 c 0.07,0.00 0.18,0.03 0.32,0.10 0.26,0.14 0.42,0.35 0.33,0.49 -0.09,0.14 -0.26,0.14 -0.47,-0.04 -0.37,-0.30 -0.41,-0.56 -0.18,-0.55 z m -1.73,0.08 c 0.14,-0.01 0.49,0.34 0.91,0.96 0.68,0.99 0.68,1.04 0.07,0.80 -0.33,-0.14 -1.06,-1.25 -1.06,-1.63 0,-0.08 0.02,-0.13 0.07,-0.13 z m 5.33,0.04 c 0.12,0.00 0.28,0.13 0.55,0.38 0.23,0.21 0.42,0.49 0.42,0.63 0,0.14 -0.11,0.12 -0.28,-0.04 -0.16,-0.16 -0.47,-0.28 -0.70,-0.28 -0.26,0 -0.35,-0.11 -0.28,-0.35 0.09,-0.22 0.17,-0.33 0.29,-0.33 z m -13.71,0.13 c 0.05,0.00 0.13,0.05 0.25,0.12 0.23,0.16 0.59,0.80 0.80,1.44 0.42,1.27 0.35,1.84 -0.04,0.66 -0.14,-0.40 -0.35,-0.73 -0.47,-0.73 -0.11,0 -0.30,-0.35 -0.45,-0.80 -0.16,-0.52 -0.20,-0.70 -0.09,-0.69 z m 12.00,0.07 c 0.59,0.02 0.63,0.04 0.25,0.25 -0.33,0.18 -0.52,0.18 -0.70,0 -0.18,-0.18 -0.07,-0.25 0.45,-0.25 z m 3.33,0.07 c 0.19,-7.41e-4 0.46,0.00 0.80,0.01 0.82,0.02 1.65,0.11 1.82,0.21 0.59,0.37 0.26,0.51 -1.16,0.49 -0.94,-0.02 -1.56,-0.14 -1.80,-0.40 -0.24,-0.24 -0.25,-0.32 0.33,-0.32 z m -7.58,0.05 c 0.28,0.00 0.53,0.16 0.40,0.36 -0.07,0.11 -6.64e-4,0.21 0.11,0.21 0.14,0 0.25,0.11 0.25,0.28 0,0.14 -0.21,0.07 -0.47,-0.16 -0.26,-0.23 -0.47,-0.35 -0.47,-0.25 0,0.09 -0.12,0.09 -0.26,0 -0.18,-0.09 -0.16,-0.21 0.04,-0.33 0.11,-0.07 0.24,-0.10 0.37,-0.10 z m 1.61,0.26 0.75,0.38 c 0.40,0.21 0.82,0.49 0.90,0.63 0.30,0.49 -0.49,0.19 -1.06,-0.40 l -0.58,-0.61 z m 3.76,0.39 c 0.06,0.00 0.14,0.05 0.25,0.14 0.21,0.16 0.30,0.35 0.25,0.40 -0.16,0.16 -0.61,-0.16 -0.61,-0.45 0,-0.07 0.03,-0.10 0.10,-0.10 z m -5.54,0.14 c 0.14,0 0.23,0.09 0.23,0.19 0,0.11 0.16,0.40 0.37,0.66 0.30,0.37 0.35,0.37 0.23,0.02 -0.16,-0.52 -0.09,-0.49 0.56,0.07 0.56,0.47 0.51,0.92 -0.04,0.56 -0.16,-0.11 -0.45,-0.21 -0.61,-0.23 -0.59,-0.09 -1.27,-1.28 -0.75,-1.28 z m 4.14,0.04 c 0.33,0 0.52,0.09 0.45,0.21 -0.07,0.11 -0.26,0.21 -0.45,0.21 -0.18,0 -0.37,-0.09 -0.45,-0.21 -0.07,-0.11 0.11,-0.21 0.45,-0.21 z M 11.52,25.49 c 0.13,0.00 0.32,0.20 0.48,0.58 0.35,0.75 0.35,0.82 0.04,0.82 -0.11,0 -0.23,-0.16 -0.23,-0.35 0,-0.18 -0.09,-0.35 -0.23,-0.35 -0.11,0 -0.23,-0.16 -0.23,-0.35 0,-0.23 0.07,-0.34 0.18,-0.34 z m 17.53,0.00 c 0.20,-0.00 0.29,0.06 0.21,0.12 -0.07,0.07 -0.28,0.09 -0.45,0.02 -0.18,-0.07 -0.11,-0.14 0.14,-0.14 0.03,-0.00 0.06,-0.00 0.09,-0.00 z m -11.93,0.21 c 0.07,0 0.23,0.21 0.37,0.47 0.14,0.26 0.18,0.47 0.14,0.47 -0.07,0 -0.23,-0.21 -0.37,-0.47 -0.14,-0.26 -0.18,-0.47 -0.14,-0.47 z m 8.00,0.24 c 0.03,-0.00 0.10,0.07 0.21,0.22 0.18,0.26 0.28,0.28 0.37,0.04 0.04,-0.14 0.18,-0.23 0.28,-0.16 0.09,0.04 0.56,0.11 1.04,0.16 0.47,0.02 0.80,0.11 0.73,0.21 -0.04,0.09 -0.30,0.14 -0.56,0.09 -0.26,-0.04 -0.47,0.02 -0.47,0.14 0,0.14 -0.16,0.14 -0.45,-0.02 -0.33,-0.16 -0.47,-0.16 -0.54,0.04 -0.14,0.37 -0.66,0.00 -0.66,-0.47 0,-0.17 0.01,-0.26 0.05,-0.27 z m 5.02,0.12 c 0.25,-0.00 0.34,0.15 0.23,0.46 -0.11,0.28 -0.23,0.28 -0.63,0.06 -0.49,-0.26 -0.49,-0.26 -0.04,-0.42 0.18,-0.06 0.33,-0.10 0.45,-0.10 z M 14.93,26.20 c 0.01,-0.01 0.12,0.07 0.33,0.26 0.23,0.23 0.35,0.47 0.28,0.56 -0.09,0.07 -0.28,-0.11 -0.42,-0.42 -0.14,-0.26 -0.21,-0.39 -0.19,-0.40 z m 9.54,0.06 c 0.03,-0.00 0.08,0.01 0.12,0.03 0.14,0.07 0.23,0.26 0.23,0.38 0,0.14 -0.09,0.16 -0.23,0.09 -0.11,-0.07 -0.23,-0.25 -0.23,-0.37 0,-0.08 0.04,-0.13 0.11,-0.13 z m 4.26,0.10 c 0.10,-0.00 0.26,0.05 0.48,0.21 0.30,0.23 0.59,0.49 0.59,0.59 0,0.28 -0.30,0.21 -0.75,-0.14 -0.47,-0.34 -0.54,-0.66 -0.31,-0.66 z m -6.62,0.04 c 0.18,0 0.35,0.09 0.35,0.23 0,0.11 -0.16,0.16 -0.35,0.09 -0.18,-0.09 -0.35,-0.18 -0.35,-0.23 0,-0.04 0.16,-0.09 0.35,-0.09 z m 20.97,0 c -0.30,0.02 -0.28,0.09 0.07,0.35 0.26,0.18 0.63,0.35 0.82,0.35 0.30,-0.02 0.28,-0.09 -0.06,-0.35 -0.26,-0.18 -0.64,-0.35 -0.83,-0.35 z m -24.36,0.06 c 0.03,-0.00 0.16,0.05 0.40,0.17 0.30,0.14 0.99,0.42 1.54,0.59 0.52,0.16 0.78,0.30 0.54,0.32 -0.23,0.02 -0.35,0.12 -0.28,0.26 0.07,0.11 0.02,0.23 -0.09,0.23 -0.14,0 -0.25,-0.11 -0.25,-0.23 0,-0.14 -0.11,-0.23 -0.25,-0.23 -0.11,0 -0.16,0.09 -0.09,0.23 0.26,0.42 -0.68,0.23 -1.77,-0.38 -0.59,-0.30 -0.83,-0.52 -0.54,-0.45 0.44,0.11 0.52,0.07 0.42,-0.28 -0.07,-0.23 -0.02,-0.21 0.14,0.09 0.16,0.30 0.37,0.54 0.49,0.54 0.28,0 0.23,-0.33 -0.09,-0.68 -0.13,-0.13 -0.18,-0.19 -0.14,-0.20 z m 16.76,0.02 c -0.29,0 -0.76,0.06 -1.41,0.18 -0.73,0.14 -0.68,0.16 0.40,0.18 0.66,0 1.27,-0.06 1.35,-0.18 0.07,-0.11 -0.03,-0.18 -0.33,-0.18 z m -11.36,0.39 c 0.14,0 0.30,0.16 0.40,0.35 0.21,0.59 -0.09,0.68 -0.40,0.14 -0.16,-0.35 -0.16,-0.49 0,-0.49 z m 14.35,0.00 c -0.03,5.55e-4 -0.09,0.02 -0.16,0.09 -0.04,0.04 -0.52,0.16 -1.04,0.23 -0.52,0.09 -1.60,0.25 -2.43,0.37 -2.65,0.42 -2.98,0.47 -4.47,0.64 -0.82,0.07 -1.41,0.23 -1.34,0.35 0.07,0.11 0.52,0.16 1.01,0.07 1.20,-0.18 2.62,-0.37 3.45,-0.47 0.40,-0.02 0.70,-0.09 0.70,-0.11 0,-0.04 0.47,-0.14 1.65,-0.33 1.98,-0.30 2.48,-0.44 2.62,-0.63 0.07,-0.13 0.06,-0.21 0,-0.21 z m -25.89,0.04 c 0.07,-0.02 0.22,0.13 0.55,0.47 0.35,0.33 0.56,0.75 0.49,0.92 -0.09,0.23 -0.18,0.14 -0.30,-0.21 -0.09,-0.33 -0.28,-0.49 -0.47,-0.42 -0.21,0.09 -0.33,-0.04 -0.33,-0.40 0,-0.21 0.00,-0.33 0.05,-0.35 z m 15.51,0.09 c 0.06,-0.00 0.15,0.00 0.27,0.03 0.28,0.07 0.49,0.23 0.49,0.35 0,0.30 -0.75,0.14 -0.87,-0.21 -0.04,-0.10 -0.00,-0.16 0.10,-0.17 z m -5.29,0.10 c 0.07,0 0.18,0.09 0.25,0.23 0.07,0.11 0.02,0.23 -0.09,0.23 -0.14,0 -0.25,-0.11 -0.25,-0.23 0,-0.14 0.04,-0.23 0.09,-0.23 z m 0.70,0 c 0.07,0 0.18,0.09 0.25,0.23 0.07,0.11 0.02,0.23 -0.09,0.23 -0.14,0 -0.25,-0.11 -0.25,-0.23 0,-0.14 0.04,-0.23 0.09,-0.23 z m 1.54,0 c 0.14,0 0.30,0.09 0.37,0.23 0.07,0.14 -0.02,0.16 -0.21,0.09 -0.42,-0.16 -0.49,-0.32 -0.16,-0.32 z m 15.43,0 c -0.14,0 -0.30,0.09 -0.37,0.23 -0.07,0.14 0.02,0.16 0.21,0.09 0.42,-0.16 0.49,-0.32 0.16,-0.32 z m -13.48,0.07 c 0.17,-0.02 0.85,0.38 1.02,0.63 0.21,0.35 -0.35,0.28 -0.73,-0.09 -0.18,-0.18 -0.32,-0.40 -0.32,-0.49 0,-0.02 0.01,-0.03 0.03,-0.04 z m -4.77,0.39 c 0.14,0 0.23,0.11 0.23,0.25 0,0.11 0.12,0.16 0.23,0.09 0.14,-0.07 0.23,0.02 0.23,0.23 0,0.30 -0.09,0.33 -0.47,0.11 C 21.97,28.06 21.83,27.61 22.23,27.61 z m 18.73,0 c -0.14,0 -0.28,0.09 -0.35,0.19 -0.07,0.11 0.02,0.21 0.21,0.21 0.18,0 0.35,-0.09 0.35,-0.21 0,-0.09 -0.09,-0.19 -0.21,-0.19 z m -1.52,0.02 c -0.42,0.00 -1.96,0.23 -3.40,0.52 -1.34,0.28 -2.44,0.59 -2.44,0.68 0,0.11 0.23,0.14 0.54,0.09 0.28,-0.07 1.25,-0.28 2.17,-0.49 0.89,-0.18 1.82,-0.35 2.01,-0.33 0.18,0 -0.54,0.23 -1.65,0.47 -1.11,0.26 -2.03,0.56 -2.08,0.66 -0.04,0.11 -0.30,0.16 -0.59,0.09 -0.37,-0.07 -0.42,-0.04 -0.21,0.12 0.26,0.16 0.21,0.23 -0.16,0.35 -0.28,0.07 -0.49,0.02 -0.49,-0.09 0,-0.23 -1.02,-0.16 -3.60,0.28 -1.01,0.16 -1.84,0.37 -1.84,0.47 0,0.09 0.23,0.14 0.54,0.06 1.96,-0.42 3.62,-0.66 3.48,-0.49 -0.11,0.11 -0.94,0.33 -2.12,0.51 -2.58,0.42 -2.98,0.66 -1.13,0.68 1.04,0.02 1.25,0.35 0.44,0.73 -0.26,0.11 -0.49,0.30 -0.49,0.42 0,0.11 -0.21,0.14 -0.45,0.04 -0.30,-0.09 -0.54,-2.11e-4 -0.73,0.28 -0.16,0.26 -0.23,0.28 -0.16,0.07 0.09,-0.42 -0.37,-0.94 -0.87,-0.94 -0.21,0 -0.37,0.16 -0.37,0.35 0,0.23 0.14,0.28 0.42,0.18 0.35,-0.14 0.35,-0.11 0.06,0.23 -0.28,0.37 -0.28,0.40 0.11,0.25 0.23,-0.07 0.07,0.16 -0.37,0.52 -0.44,0.37 -0.85,0.66 -0.90,0.61 -0.04,-0.04 -0.30,0.07 -0.61,0.26 -0.30,0.21 -0.97,0.44 -1.46,0.54 -1.16,0.18 -1.42,0.33 -1.04,0.56 0.40,0.23 -2.24,0.52 -3.43,0.35 -0.85,-0.11 -1.84,-0.75 -2.32,-1.46 -0.09,-0.16 -0.35,-0.30 -0.54,-0.30 -0.21,0 0.02,0.35 0.59,0.87 0.54,0.47 0.97,0.99 0.97,1.18 0,0.33 0.37,0.42 0.51,0.09 0.04,-0.09 0.26,-0.11 0.49,-0.04 0.35,0.11 0.30,0.21 -0.33,0.59 -0.42,0.23 -0.68,0.33 -0.59,0.16 0.26,-0.40 0.02,-0.30 -0.94,0.33 -0.87,0.59 -2.08,0.77 -2.34,0.35 -0.21,-0.35 -1.06,-0.28 -1.20,0.12 -0.09,0.18 -0.28,0.35 -0.45,0.35 -0.18,0 -0.49,0.18 -0.73,0.40 -0.28,0.28 -0.85,0.40 -2.08,0.42 -2.81,0.07 -3.22,0.11 -3.22,0.32 0,0.21 1.80,0.14 2.53,-0.09 0.16,-0.04 0.35,-6.66e-4 0.42,0.11 0.07,0.11 0.28,0.16 0.47,0.07 0.18,-0.07 0.35,-1.05e-4 0.35,0.14 0,0.14 -0.18,0.26 -0.40,0.28 -0.23,0 -0.68,0.04 -1.01,0.06 -0.33,0.04 -1.11,0.11 -1.72,0.14 -0.63,0.04 -1.21,0.21 -1.28,0.33 -0.07,0.14 -0.06,0.18 0.04,0.09 0.09,-0.09 0.30,-0.02 0.45,0.14 0.40,0.52 1.84,0.59 1.72,0.09 C 7.93,40.42 8.02,40.28 8.14,40.28 10.98,39.95 11.57,39.83 11.57,39.66 c 0,-0.09 -0.26,-0.14 -0.59,-0.06 -0.33,0.04 -0.59,-0.00 -0.59,-0.14 0,-0.11 0.28,-0.23 0.61,-0.23 0.33,0 0.80,-0.11 1.06,-0.23 0.49,-0.28 0.61,-0.02 0.16,0.42 -0.44,0.44 0.09,0.87 0.70,0.54 0.49,-0.26 0.99,0.04 0.54,0.33 -0.23,0.14 -1.61,0.21 -2.03,0.11 -0.56,-0.14 -2.55,0.02 -2.38,0.16 0.09,0.11 2.60,0.21 5.54,0.25 2.96,0.04 7.46,0.11 10.01,0.19 4.09,0.07 4.71,0.04 4.97,-0.30 0.30,-0.33 0.26,-0.37 -0.45,-0.25 -0.40,0.04 -0.75,-0.00 -0.75,-0.12 0,-0.11 0.71,-0.16 1.61,-0.11 1.79,0.11 3.05,-0.09 2.34,-0.40 -0.23,-0.09 -0.78,-0.11 -1.23,-0.04 -0.44,0.07 -0.82,0.04 -0.82,-0.09 0,-0.11 0.14,-0.21 0.30,-0.23 0.92,-0.04 1.68,-0.21 1.89,-0.42 0.16,-0.16 0.09,-0.18 -0.21,-0.14 -1.08,0.23 -2.93,0.25 -3.00,0.02 -0.04,-0.16 -1.11,-0.25 -2.96,-0.23 -1.58,0 -2.88,-0.07 -2.88,-0.16 0,-0.09 -0.28,-0.33 -0.64,-0.49 -1.04,-0.52 -1.15,-0.94 -0.51,-1.91 0.37,-0.56 0.80,-0.89 1.27,-1.01 0.89,-0.16 3.71,-1.25 4.00,-1.54 0.14,-0.11 0.42,-0.21 0.63,-0.21 0.21,0 0.52,-0.16 0.68,-0.35 0.16,-0.18 0.44,-0.35 0.63,-0.35 0.18,0 0.66,-0.21 1.04,-0.49 0.37,-0.26 0.68,-0.42 0.68,-0.35 0,0.04 0.35,6.66e-4 0.78,-0.11 1.46,-0.47 4.31,-1.18 5.02,-1.27 0.40,-0.04 2.36,-0.14 4.38,-0.23 3.33,-0.11 3.71,-0.16 4.09,-0.61 0.54,-0.66 0.49,-0.94 -0.21,-1.49 -0.44,-0.30 -0.80,-0.38 -1.34,-0.26 -1.20,0.26 -4.00,0.83 -4.90,0.97 -0.44,0.07 -1.23,0.21 -1.70,0.33 -0.52,0.09 -0.85,0.09 -0.75,-0.02 0.07,-0.11 0.25,-0.21 0.40,-0.21 0.66,0 2.06,-0.52 1.94,-0.70 -0.07,-0.11 0.07,-0.26 0.28,-0.30 0.38,-0.10 0.42,-0.14 0.22,-0.14 z m -12.75,0.23 c 0.20,-0.00 0.29,0.06 0.21,0.12 -0.07,0.07 -0.28,0.09 -0.45,0.02 -0.18,-0.07 -0.11,-0.14 0.14,-0.14 0.03,-0.00 0.06,-0.00 0.09,-0.00 z m -11.72,0.01 c 0.02,-0.00 0.08,0.04 0.19,0.13 0.16,0.16 0.23,0.35 0.16,0.42 -0.07,0.07 -0.21,-0.04 -0.28,-0.28 -0.07,-0.18 -0.10,-0.27 -0.07,-0.28 z m 0.78,0 c 0.05,0.00 0.19,0.12 0.42,0.34 0.40,0.37 0.49,0.80 0.21,0.80 -0.11,0 -0.30,-0.26 -0.47,-0.59 -0.17,-0.38 -0.23,-0.57 -0.16,-0.56 z m 5.86,0.20 c 0.07,0 0.18,0.09 0.25,0.23 0.07,0.11 0.02,0.23 -0.09,0.23 -0.14,0 -0.25,-0.12 -0.25,-0.23 0,-0.14 0.04,-0.23 0.09,-0.23 z m -7.63,0.01 c 0.01,-0.01 0.12,0.07 0.33,0.26 0.23,0.23 0.35,0.47 0.28,0.56 -0.09,0.07 -0.28,-0.11 -0.42,-0.42 -0.14,-0.26 -0.21,-0.39 -0.19,-0.40 z m 9.54,0.06 c 0.03,-0.00 0.08,0.01 0.12,0.03 0.14,0.07 0.23,0.26 0.23,0.38 0,0.14 -0.09,0.16 -0.23,0.09 -0.11,-0.07 -0.23,-0.25 -0.23,-0.37 0,-0.08 0.04,-0.13 0.10,-0.13 z m 1.50,0.15 c 0.16,0 0.54,0.23 0.82,0.49 0.44,0.44 0.47,0.47 0.04,0.25 -0.92,-0.52 -1.20,-0.75 -0.87,-0.75 z m 19.85,0.09 c 0.02,-0.00 0.05,0.00 0.08,0.02 0.14,0.07 0.23,0.30 0.23,0.49 0,0.18 -0.09,0.28 -0.23,0.21 -0.11,-0.07 -0.23,-0.30 -0.23,-0.49 0,-0.14 0.06,-0.22 0.15,-0.23 z m -18.29,0.14 c 0.07,0 0.18,0.09 0.25,0.23 0.07,0.11 0.02,0.23 -0.09,0.23 -0.14,0 -0.25,-0.12 -0.25,-0.23 0,-0.14 0.04,-0.23 0.09,-0.23 z m -5.74,0.09 c 0.07,-0.01 0.15,0.06 0.25,0.24 0.11,0.21 0.33,0.37 0.45,0.37 0.14,0 0.16,-0.14 0.06,-0.30 -0.09,-0.14 0.04,-0.07 0.33,0.16 0.28,0.26 0.47,0.52 0.40,0.59 -0.09,0.07 -0.23,-0.02 -0.35,-0.21 -0.16,-0.23 -0.23,-0.25 -0.23,-0.06 0,0.40 -0.23,0.37 -0.80,-0.04 -0.23,-0.18 -0.35,-0.45 -0.26,-0.61 0.05,-0.07 0.10,-0.11 0.14,-0.12 z m -3.84,0.14 c 0.11,0 0.30,0.09 0.37,0.23 0.07,0.11 0.04,0.23 -0.09,0.23 -0.11,0 -0.30,-0.11 -0.38,-0.23 -0.07,-0.14 -0.04,-0.23 0.09,-0.23 z m 15.35,0.09 c -0.06,3.29e-4 -0.13,0.00 -0.20,0.00 -0.52,0 -1.01,0.09 -1.06,0.18 -0.07,0.11 -0.47,0.19 -0.87,0.19 -0.42,0 -0.92,0.11 -1.11,0.23 -0.28,0.18 -0.28,0.23 0.11,0.23 0.26,0 0.85,-0.09 1.27,-0.23 0.44,-0.11 1.18,-0.26 1.61,-0.28 1.08,-0.06 1.19,-0.34 0.25,-0.33 z m -14.43,0.14 c 0.14,0 0.33,0.11 0.40,0.25 0.26,0.40 -0.02,0.49 -0.35,0.09 -0.18,-0.21 -0.19,-0.35 -0.04,-0.35 z m 4.99,0.23 c 0.11,0 0.30,0.11 0.38,0.25 0.26,0.37 0.02,0.45 -0.30,0.07 -0.16,-0.18 -0.19,-0.33 -0.07,-0.33 z m 17.90,0 c 0.04,0 0.14,0.09 0.21,0.19 0.07,0.11 -0.02,0.21 -0.21,0.21 -0.18,0 -0.28,-0.09 -0.21,-0.21 0.07,-0.09 0.16,-0.19 0.21,-0.19 z m -21.34,0.09 c 0.04,0.00 0.20,0.12 0.43,0.33 0.33,0.30 0.89,0.59 1.25,0.61 0.87,0.11 1.34,0.61 0.59,0.63 -0.33,0.02 -0.68,0.00 -0.82,-0.02 -0.11,-0.04 -0.42,-0.09 -0.64,-0.09 -0.23,-0.02 -0.49,-0.11 -0.56,-0.21 -0.09,-0.09 -0.47,-0.16 -0.85,-0.16 -0.42,0 -0.63,-0.09 -0.54,-0.25 0.09,-0.14 0.21,-0.19 0.28,-0.12 0.23,0.23 1.04,-0.35 0.87,-0.63 -0.02,-0.05 -0.03,-0.07 -0.01,-0.07 z m 22.84,0 c 0.36,-0.00 0.43,0.04 0.24,0.16 -0.40,0.26 -1.16,0.28 -1.16,0.02 0,-0.09 0.33,-0.19 0.73,-0.19 0.06,-0.00 0.12,-0.00 0.17,-0.00 z m -13.95,0.14 c -0.11,0 -0.16,0.09 -0.09,0.23 0.07,0.11 0.18,0.23 0.25,0.23 0.04,0 0.09,-0.11 0.09,-0.23 0,-0.14 -0.11,-0.23 -0.25,-0.23 z m 11.38,0.04 c 0.33,0 0.45,0.04 0.30,0.11 -0.16,0.04 -0.45,0.04 -0.59,0 -0.16,-0.07 -0.04,-0.11 0.28,-0.11 z m -23.32,0.02 c 0.18,0 0.35,0.04 0.35,0.06 0,0.18 -0.44,0.30 -0.56,0.14 -0.07,-0.11 0.02,-0.21 0.21,-0.21 z m 16.34,0.16 c 0.14,0 0.07,0.11 -0.11,0.23 -0.18,0.11 -0.45,0.23 -0.59,0.23 -0.11,0 -0.07,-0.11 0.11,-0.23 0.18,-0.11 0.47,-0.23 0.59,-0.23 z m -15.68,0.05 c 0.04,0.00 0.12,0.03 0.24,0.08 0.23,0.07 0.35,0.21 0.28,0.28 -0.07,0.07 -0.26,-4.53e-4 -0.42,-0.16 -0.13,-0.14 -0.17,-0.21 -0.10,-0.20 z m 10.07,0.67 c -0.02,1.84e-4 -0.05,0.00 -0.09,0.00 -0.26,0 -0.33,0.07 -0.14,0.14 0.16,0.07 0.37,0.04 0.45,-0.02 0.08,-0.06 -0.01,-0.12 -0.21,-0.12 z m -0.65,0.74 c -0.33,0 -0.44,0.04 -0.28,0.11 0.14,0.04 0.42,0.04 0.59,0 0.14,-0.07 0.02,-0.11 -0.30,-0.11 z m 0.82,0.42 c -0.18,0 -0.35,0.09 -0.35,0.23 0,0.11 0.16,0.16 0.35,0.09 0.18,-0.09 0.35,-0.19 0.35,-0.23 0,-0.04 -0.16,-0.09 -0.35,-0.09 z m -6.86,0.65 c -0.06,3.71e-4 -0.13,0.00 -0.19,0.02 -0.23,0.09 -0.42,0.26 -0.42,0.38 0.02,0.26 0.11,0.28 1.16,0.32 0.44,0.02 0.54,0.09 0.33,0.23 -0.23,0.14 -0.11,0.25 0.45,0.47 0.89,0.30 1.18,0.16 0.54,-0.32 -0.35,-0.26 -0.37,-0.33 -0.09,-0.35 0.30,0 0.30,-0.04 0.02,-0.21 -0.18,-0.11 -0.47,-0.16 -0.61,-0.09 -0.16,0.04 -0.45,-0.04 -0.61,-0.23 C 20.88,32.37 20.66,32.29 20.46,32.29 z m 9.22,2.05 c -0.28,-0.00 -0.52,0.04 -0.46,0.14 0.07,0.07 0.37,0.14 0.70,0.14 0.33,0 0.54,-0.04 0.47,-0.14 -0.10,-0.09 -0.43,-0.14 -0.71,-0.14 z m -1.20,1.37 c -0.03,9.3e-5 -0.06,5.03e-4 -0.09,0.00 -0.23,0.02 -0.40,0.07 -0.33,0.14 0.21,0.21 0.80,0.21 0.80,0.02 0,-0.10 -0.16,-0.17 -0.38,-0.16 z m -7.50,0.35 c 0.47,0.00 0.76,0.22 0.40,0.47 -0.35,0.23 -0.59,0.99 -0.33,0.99 0.14,0 0.23,0.09 0.23,0.21 0,0.11 -0.21,0.16 -0.47,0.09 -0.49,-0.14 -0.64,-0.66 -0.23,-0.90 0.49,-0.30 0.21,-0.56 -0.37,-0.35 -0.85,0.33 -1.27,0.28 -1.13,-0.09 0.07,-0.18 0.25,-0.30 0.40,-0.23 0.16,0.04 0.61,6.66e-4 0.99,-0.11 0.18,-0.05 0.36,-0.07 0.51,-0.07 z M 3.57,36.84 c -0.14,0 -0.30,0.16 -0.37,0.38 -0.21,0.54 -0.18,0.56 0.56,0.56 0.40,0 0.70,-0.12 0.70,-0.23 0,-0.14 -0.21,-0.23 -0.49,-0.23 -0.26,0 -0.40,-0.11 -0.32,-0.23 0.07,-0.14 0.04,-0.23 -0.07,-0.23 z m 3.25,0.30 c -0.67,0.00 -1.65,0.13 -1.82,0.31 -0.14,0.16 -0.19,0.35 -0.12,0.42 0.09,0.07 -0.06,0.14 -0.35,0.14 -0.28,0 -0.52,0.09 -0.52,0.19 0,0.11 0.94,0.19 2.13,0.19 1.16,-0.02 2.12,-0.09 2.12,-0.19 0,-0.09 0.35,-0.02 0.78,0.14 0.80,0.33 1.44,0.26 1.20,-0.14 -0.09,-0.14 0.14,-0.18 0.59,-0.11 0.61,0.11 1.44,-0.26 1.44,-0.66 0,-0.23 -1.72,0.11 -2.08,0.45 C 9.63,38.38 9.40,38.36 9.49,37.84 9.56,37.50 9.37,37.43 8.45,37.46 c -0.61,0 -1.06,-0.07 -0.99,-0.16 0.06,-0.10 -0.23,-0.14 -0.63,-0.14 z m 11.85,0.68 c 0.44,0 0.63,0.05 0.42,0.12 -0.23,0.04 -0.61,0.04 -0.82,0 -0.23,-0.07 -0.04,-0.12 0.40,-0.12 z m -2.46,0.04 c 0.21,-0.00 0.33,0.05 0.33,0.19 0,0.09 -0.12,0.19 -0.26,0.19 -0.11,0 -0.18,0.09 -0.09,0.21 0.23,0.37 -0.26,0.49 -0.90,0.19 l -0.59,-0.28 0.61,-0.25 C 15.69,37.97 16.00,37.89 16.22,37.88 z m -3.22,0.38 c 0.14,0 0.23,0.09 0.23,0.23 0,0.11 -0.09,0.23 -0.23,0.23 -0.11,0 -0.23,-0.11 -0.23,-0.23 0,-0.14 0.12,-0.23 0.23,-0.23 z m 5.93,0.06 c 0.94,-0.01 2.22,0.09 2.59,0.28 0.35,0.18 0.63,0.49 0.63,0.68 0,0.30 -0.06,0.31 -0.35,0.09 -0.37,-0.33 -2.15,-0.26 -2.58,0.09 -0.21,0.16 -0.42,0.14 -0.70,-0.06 -0.54,-0.42 -0.77,-0.73 -0.66,-0.92 0.06,-0.10 0.50,-0.16 1.07,-0.16 z m 15.79,0.19 c -0.12,0 -0.17,0.06 -0.17,0.21 0,0.11 0.28,0.23 0.66,0.21 0.56,0 0.59,-0.02 0.16,-0.21 -0.31,-0.14 -0.52,-0.21 -0.65,-0.21 z m -14.25,0.16 c -0.28,-0.00 -0.62,0.01 -0.95,0.07 -0.87,0.14 -0.84,0.14 0.42,0.19 0.73,0 1.34,-0.02 1.34,-0.07 0,-0.11 -0.34,-0.18 -0.81,-0.19 z m -6.08,0.05 c 0.15,-0.00 0.27,0.06 0.27,0.21 0,0.11 -0.26,0.26 -0.59,0.30 -0.47,0.09 -0.54,0.07 -0.33,-0.19 0.17,-0.21 0.44,-0.32 0.64,-0.32 z m -11.06,0.09 c -0.15,-0.00 -0.30,0.03 -0.36,0.09 -0.35,0.33 -0.02,0.42 1.51,0.45 0.92,0 1.65,-0.09 1.65,-0.21 0,-0.09 -0.49,-0.18 -1.11,-0.21 -0.63,0 -1.32,-0.04 -1.53,-0.09 -0.05,-0.01 -0.10,-0.01 -0.16,-0.02 z m 23.83,0.15 c 0.20,-0.00 0.30,0.06 0.21,0.12 -0.07,0.07 -0.28,0.09 -0.45,0.02 -0.18,-0.07 -0.11,-0.14 0.14,-0.14 0.03,-0.00 0.06,-0.00 0.09,-0.00 z m -3.12,0.03 c 0.08,-0.00 0.17,-4.46e-4 0.29,0.01 0.33,0.04 0.66,0.23 0.70,0.40 0.07,0.21 -0.02,0.26 -0.25,0.16 -0.21,-0.07 -0.45,-0.04 -0.52,0.07 -0.16,0.26 -0.11,0.25 1.77,0.37 2.29,0.11 2.31,0.11 1.53,0.35 -0.87,0.26 -7.36,0.21 -8.14,-0.07 -1.25,-0.44 0.49,-0.92 2.08,-0.56 0.56,0.14 0.85,0.09 0.96,-0.11 0.16,-0.23 0.28,-0.23 0.59,0.02 0.33,0.26 0.40,0.23 0.52,-0.21 0.07,-0.28 0.19,-0.42 0.44,-0.44 z m -8.53,0.28 c 0.03,-0.00 0.06,0.00 0.08,0.02 0.07,0.07 -0.02,0.23 -0.21,0.35 -0.26,0.16 -0.16,0.23 0.35,0.23 0.52,0 0.61,-0.06 0.35,-0.23 -0.71,-0.44 -0.07,-0.37 1.04,0.11 l 1.18,0.51 -2.06,0 c -1.13,0 -2.06,-0.09 -2.06,-0.18 0,-0.11 0.14,-0.21 0.33,-0.21 0.16,0 0.44,-0.16 0.61,-0.35 0.12,-0.15 0.26,-0.25 0.36,-0.25 z m 13.75,0.13 c 0.44,0 0.78,0.09 0.70,0.19 -0.11,0.18 -1.56,0.09 -1.56,-0.09 0,-0.04 0.37,-0.09 0.85,-0.09 z m 4.30,0.11 c -0.13,0.00 -0.23,0.01 -0.27,0.05 -0.28,0.28 -0.14,0.49 0.42,0.59 0.54,0.11 1.32,-0.14 1.08,-0.35 -0.17,-0.15 -0.84,-0.29 -1.23,-0.29 z m -28.82,0.66 c -0.12,0.00 -0.32,0.05 -0.62,0.14 -0.37,0.09 -0.92,0.11 -1.20,0 -0.30,-0.11 -0.59,-0.09 -0.66,0.02 -0.09,0.14 -0.11,0.23 -0.06,0.25 0.04,0 0.28,0.07 0.54,0.14 0.80,0.21 1.84,0.09 2.03,-0.21 0.16,-0.25 0.18,-0.36 -0.01,-0.35 z M 32.38,40.50 c -0.18,0.00 -0.37,0.02 -0.56,0.05 -1.27,0.23 -1.53,0.33 -1.53,0.54 0,0.14 0.66,0.21 1.72,0.14 2.08,-0.11 1.96,-0.09 1.63,-0.42 -0.21,-0.21 -0.70,-0.33 -1.26,-0.31 z" />
</svg>
