<?xml version="1.0" encoding="UTF-8" standalone="no"?>
<!-- Created with Inkscape (http://www.inkscape.org/) -->
<svg xmlns:dc="http://purl.org/dc/elements/1.1/" xmlns:cc="http://creativecommons.org/ns#" xmlns:rdf="http://www.w3.org/1999/02/22-rdf-syntax-ns#" xmlns:svg="http://www.w3.org/2000/svg" xmlns="http://www.w3.org/2000/svg" version="1.1" width="100%" height="100%" viewBox="0 0 48 48" id="svg2">
<defs id="defs4" />
<path d="M 10.23,6.95 C 9.50,6.97 8.84,7.18 8.29,7.58 7.18,8.37 6.54,9.84 6.60,11.71 c 0.06,1.86 0.82,4.13 2.53,6.55 l 0.15,-0.10 c -2.27,2.00 -3.59,2.89 -7.79,7.61 l 0.05,0.00 c 1.65,2.77 3.29,4.95 5.07,6.66 0.07,0.01 0.15,0.03 0.22,0.05 -0.07,-0.01 -0.14,-0.03 -0.22,-0.04 1.80,1.72 3.76,2.96 6.01,3.81 0.55,1.66 1.87,2.61 3.40,2.96 1.69,0.38 3.64,0.07 5.20,-0.72 4.03e-4,-1.61e-4 9.33e-4,1.61e-4 0.00,0 0.59,-0.23 1.19,-0.42 1.80,-0.60 4.77,0.09 8.56,-0.15 11.90,-1.07 -2.79,-0.39 -5.56,-0.74 -8.09,-0.81 0.12,0.18 0.24,0.37 0.35,0.59 -2.02,0.47 -4.10,0.87 -6.07,1.64 l -0.00,0.00 -0.00,0.00 c -1.50,0.77 -3.41,1.08 -5.03,0.71 -1.50,-0.34 -2.75,-1.25 -3.24,-2.92 -0.02,-0.10 -0.04,-0.21 -0.06,-0.32 -0.07,-0.46 -0.10,-0.91 -0.09,-1.33 -1.94,-0.66 -3.87,-1.38 -5.86,-1.88 1.99,0.43 3.91,0.94 5.87,1.65 0.01,-0.25 0.05,-0.50 0.10,-0.74 -2.00,-1.57 -5.09,-2.81 -6.95,-3.45 2.07,0.69 4.46,1.38 6.99,3.29 0.02,-0.08 0.04,-0.17 0.06,-0.26 -2.72,-1.93 -5.89,-3.28 -8.83,-4.93 2.96,1.59 5.92,2.81 8.88,4.77 0.01,-0.04 0.02,-0.08 0.03,-0.12 -2.31,-1.72 -5.44,-3.06 -8.24,-4.56 2.78,1.43 5.73,2.51 8.28,4.43 0.01,-0.04 0.03,-0.08 0.04,-0.12 -3.03,-2.24 -6.21,-3.91 -9.32,-5.87 3.12,1.91 6.44,3.37 9.38,5.71 0.02,-0.06 0.05,-0.12 0.08,-0.18 -0.90,-1.33 -2.35,-2.57 -3.55,-3.85 1.24,1.22 2.63,2.44 3.64,3.67 0.62,-1.30 1.63,-2.47 2.72,-3.74 0,0 0.17,0.62 0.25,0.90 0.16,0.39 1.64,-2.01 1.37,-2.64 -0.01,-0.02 -0.03,-0.04 -0.04,-0.07 0.01,0.02 0.03,0.04 0.04,0.07 0.47,0.75 0.70,1.56 0.88,2.44 1.19,-0.28 1.32,-0.28 2.26,-1.18 l 0.02,1.78 1.69,0.14 -0.48,1.38 1.75,0.76 -0.17,1.33 c 0.09,0.07 0.17,0.14 0.26,0.21 4.04,-2.41 8.92,-3.49 13.02,-3.49 0.61,-5.79e-4 1.21,0.02 1.79,0.07 -5.83,-0.06 -9.84,1.08 -14.35,3.78 0.21,0.16 0.42,0.32 0.62,0.48 4.51,-1.23 8.48,-1.67 11.80,-1.67 2.31,-0.00 4.31,0.19 5.96,0.47 1.01,-0.76 2.02,-1.63 3.06,-2.62 l 0.05,0.00 c -0.00,-0.01 -0.00,-0.03 -0.01,-0.04 0,-8.1e-5 0.01,-0.00 0.01,-0.00 l -0.01,-0.00 c -1.07,-4.63 -4.34,-6.92 -5.75,-9.15 1.00,-1.13 1.66,-2.57 2.02,-4.07 0.45,-1.92 0.38,-3.94 -0.18,-5.50 C 41.42,9.93 40.31,8.80 38.71,8.74 37.26,8.69 35.44,9.49 33.26,11.53 30.88,9.66 28.42,8.86 25.95,8.85 22.95,8.85 19.94,10.01 17.04,11.82 15.56,9.64 14.04,8.27 12.62,7.55 11.78,7.13 10.97,6.94 10.23,6.95 z m 0.00,0.27 c 0.68,-0.01 1.44,0.16 2.24,0.57 1.36,0.68 2.85,2.02 4.31,4.16 -0.78,0.50 -1.55,1.05 -2.32,1.63 C 13.32,12.04 12.34,10.67 12.53,8.49 6.36,6.28 6.08,12.70 9.48,17.98 9.44,18.01 9.39,18.05 9.36,18.08 7.68,15.71 6.94,13.49 6.88,11.70 6.82,9.90 7.44,8.53 8.45,7.81 8.95,7.45 9.56,7.24 10.24,7.23 z m 28.31,1.79 c 0.04,-1.52e-4 0.09,-5.16e-4 0.13,0.00 1.47,0.05 2.48,1.06 3.03,2.56 0.55,1.49 0.62,3.46 0.17,5.34 -0.33,1.43 -0.96,2.80 -1.89,3.88 C 39.81,20.45 39.65,20.07 39.57,19.69 39.50,19.55 39.43,19.42 39.36,19.28 43.88,13.58 40.79,6.01 34.24,12.37 33.99,12.14 33.74,11.92 33.48,11.71 35.55,9.79 37.25,9.03 38.56,9.02 z M 22.55,15.86 c 0.68,3.18 1.64,5.64 3.39,3.61 2.15,-1.05 2.47,-1.60 3.62,0.73 2.63,0.73 3.22,0.92 3.84,3.79 2.80,0.98 5.09,2.10 7.19,4.30 -2.81,-0.04 -5.43,0.04 -8.03,-0.64 -0.84,-0.22 -2.91,-0.43 -1.98,-1.67 -1.44,0.37 -4.48,-0.26 -6.00,-1.81 0.44,-0.62 0.80,-1.20 0.96,-1.98 -1.18,0.72 -2.05,0.59 -1.47,1.86 -2.08,1.09 -2.31,0.72 -3.05,2.94 -0.09,-2.29 0.82,-8.92 1.53,-11.14 z m -0.75,0.09 C 21.12,18.22 18.16,24.19 17.85,26.33 L 17.46,24.52 c -0.80,-1.11 -0.58,-1.74 -0.62,-3.11 -0.44,2.61 -3.40,3.34 -5.71,2.60 l 0.84,0.96 C 10.11,25.18 8.96,25.08 7.21,24.69 L 8.57,25.93 c -2.09,0.20 -4.15,-0.18 -6.22,-0.45 3.46,-3.14 8.03,-5.19 11.72,-6.85 1.83,0.87 5.79,0.03 7.73,-2.67 z m -7.30,8.97 c 0.45,-2.42e-4 0.84,0.18 1.14,0.48 0.51,0.51 0.76,1.35 0.73,2.19 a 0.10,0.10 0 0 1 -0.07,0.09 c -1.04,0.26 -1.93,0.31 -2.50,-0.04 -0.28,-0.18 -0.47,-0.46 -0.54,-0.86 -0.06,-0.39 -0.02,-0.88 0.16,-1.51 a 0.10,0.10 0 0 1 0.04,-0.06 c 0.33,-0.18 0.66,-0.27 0.95,-0.29 0.03,-0.00 0.06,-0.00 0.09,-0.00 z m -0.00,0.19 c -0.02,1.61e-4 -0.05,8.24e-4 -0.08,0.00 -0.25,0.01 -0.52,0.09 -0.83,0.25 -0.16,0.58 -0.20,1.03 -0.14,1.37 0.06,0.34 0.21,0.57 0.45,0.72 0.46,0.29 1.28,0.27 2.27,0.03 0.01,-0.77 -0.23,-1.52 -0.67,-1.96 -0.26,-0.26 -0.60,-0.43 -1.00,-0.43 z m 0.17,0.38 c 0.21,0 0.38,0.08 0.38,0.19 0,0.10 -0.17,0.19 -0.38,0.19 -0.21,0 -0.38,-0.08 -0.38,-0.19 0,-0.10 0.17,-0.19 0.38,-0.19 z m 11.46,0.28 c 0.04,-1.61e-4 0.08,-3.22e-4 0.13,0.00 0.59,0.02 1.26,0.19 2.01,0.46 a 0.10,0.10 0 0 1 0.06,0.08 c 0.04,0.73 -0.09,1.31 -0.35,1.74 -0.26,0.43 -0.66,0.72 -1.12,0.87 -0.93,0.30 -2.14,0.07 -3.25,-0.52 a 0.10,0.10 0 0 1 -0.05,-0.11 c 0.34,-1.36 0.91,-2.12 1.71,-2.40 0.26,-0.09 0.54,-0.13 0.85,-0.13 z m 0.00,0.20 c -0.28,-5e-6 -0.55,0.03 -0.79,0.12 -0.71,0.25 -1.23,0.91 -1.56,2.19 1.05,0.55 2.18,0.74 3.02,0.47 0.42,-0.13 0.77,-0.39 1.01,-0.78 0.23,-0.38 0.35,-0.89 0.32,-1.56 -0.70,-0.25 -1.33,-0.40 -1.88,-0.42 -0.04,-0.00 -0.08,-0.00 -0.12,-0.00 z m -0.15,0.44 c 0.32,0 0.59,0.10 0.59,0.22 0,0.12 -0.26,0.22 -0.59,0.22 -0.32,0 -0.59,-0.10 -0.59,-0.22 0,-0.12 0.26,-0.22 0.59,-0.22 z m -10.16,5.91 c -0.71,0.65 -1.53,1.15 -2.34,1.67 -0.40,1.33 -0.30,2.01 0.19,3.28 1.08,0.53 3.85,1.25 4.75,-0.02 0.28,-0.58 0.84,-2.32 0.51,-2.88 -0.84,-0.38 -0.35,-1.64 -0.76,-1.78 -0.45,-0.14 -2.34,-0.25 -2.34,-0.25 z m 21.91,0.34 c -4.04,0.00 -8.32,0.54 -12.40,1.63 0.14,0.12 0.29,0.24 0.43,0.36 4.07,-0.79 7.16,-1.08 9.73,-1.09 2.18,-0.01 3.99,0.17 5.70,0.41 -5.15,-0.53 -10.25,-0.25 -15.28,0.83 0.10,0.09 0.20,0.20 0.30,0.30 0.80,-0.06 1.58,-0.09 2.36,-0.09 3.17,-0.02 6.14,0.37 9.09,0.81 1.20,-0.50 2.37,-1.11 3.52,-1.86 0.50,-0.32 0.99,-0.66 1.49,-1.04 -1.59,-0.19 -3.26,-0.28 -4.97,-0.28 z M 15.93,33.41 c 0.53,0 0.96,0.22 0.96,0.51 0,0.28 -0.43,0.50 -0.96,0.50 -0.53,0 -0.96,-0.22 -0.96,-0.50 0,-0.28 0.43,-0.51 0.96,-0.51 z m 12.54,1.85 c -0.70,0.00 -1.40,0.02 -2.10,0.06 0.12,0.13 0.23,0.28 0.34,0.43 0.04,7e-6 0.08,-2.42e-4 0.12,0 2.56,0.01 5.46,0.44 8.43,0.96 0.77,-0.22 1.51,-0.47 2.25,-0.77 -2.97,-0.37 -5.91,-0.68 -8.76,-0.69 -0.10,-3.62e-4 -0.20,-3.62e-4 -0.30,0 z" />
</svg>
