<?xml version="1.0" encoding="UTF-8" standalone="no"?>
<!-- Created with Inkscape (http://www.inkscape.org/) -->
<svg xmlns:dc="http://purl.org/dc/elements/1.1/" xmlns:cc="http://creativecommons.org/ns#" xmlns:rdf="http://www.w3.org/1999/02/22-rdf-syntax-ns#" xmlns:svg="http://www.w3.org/2000/svg" xmlns="http://www.w3.org/2000/svg" version="1.1" width="100%" height="100%" viewBox="0 0 48 48" id="svg2">
<defs id="defs9" />
<path d="M 16.18,42.12 C 14.33,41.34 12.97,40.31 13.06,39.77 c 0.03,-0.23 0.40,-0.64 0.81,-0.92 0.40,-0.27 1.05,-0.81 1.44,-1.18 l 0.70,-0.67 -0.50,-0.40 c -0.27,-0.22 -0.74,-0.93 -1.03,-1.58 -0.29,-0.64 -0.80,-1.45 -1.13,-1.80 -0.33,-0.34 -0.74,-0.93 -0.91,-1.31 -0.25,-0.55 -0.47,-0.69 -1.10,-0.69 -0.43,0 -1.07,0.17 -1.43,0.37 C 9.40,31.85 8.86,31.90 7.62,31.78 5.53,31.57 5.16,31.40 4.45,30.34 3.97,29.64 3.83,29.11 3.75,27.77 c -0.09,-1.65 -0.08,-1.70 0.66,-2.47 0.57,-0.59 0.73,-0.93 0.65,-1.39 -0.05,-0.33 -0.04,-1.22 0.35,-1.74 2.02,-2.65 0.66,-0.97 0.13,0.41 -0.62,1.60 -0.52,1.70 1.75,2.07 0.74,0.12 1.55,0.30 1.78,0.41 0.33,0.14 0.38,0.11 0.24,-0.16 -0.10,-0.21 -0.10,-0.27 0.01,-0.14 0.11,0.11 0.20,0.33 0.20,0.48 0,0.14 0.13,0.32 0.30,0.38 0.18,0.07 0.24,0.00 0.15,-0.16 -0.11,-0.20 0.00,-0.20 0.42,0.01 0.34,0.17 0.47,0.36 0.33,0.46 -0.14,0.10 -0.00,0.34 0.35,0.61 0.41,0.30 0.51,0.49 0.32,0.63 -0.18,0.13 -0.04,0.36 0.45,0.76 l 0.72,0.57 -0.15,-0.73 c -0.11,-0.53 -0.09,-0.63 0.07,-0.35 0.32,0.53 0.30,2.08 -0.02,1.85 -0.16,-0.11 -0.19,-0.06 -0.08,0.13 0.12,0.22 0.23,0.23 0.41,0.03 0.34,-0.39 0.60,-0.33 0.45,0.10 -0.22,0.65 1.03,0.42 2.47,-0.45 1.59,-0.96 1.87,-1.58 1.53,-3.44 -0.15,-0.87 -0.15,-1.18 0.00,-1.00 0.12,0.14 0.23,0.98 0.24,1.86 0.00,0.88 0.08,1.55 0.17,1.49 0.34,-0.23 0.14,0.35 -0.50,1.50 -0.36,0.65 -0.88,1.27 -1.14,1.38 -0.44,0.18 -0.42,0.22 0.27,0.53 0.41,0.18 0.98,0.56 1.26,0.85 0.43,0.44 0.54,0.46 0.72,0.14 0.11,-0.20 0.22,-0.53 0.23,-0.74 0.01,-0.20 0.04,-0.48 0.06,-0.62 0.01,-0.13 0.35,-0.83 0.75,-1.54 0.71,-1.27 1.89,-2.12 2.89,-2.07 0.21,0.00 -0.08,0.18 -0.65,0.37 -1.25,0.43 -1.74,1.08 -2.50,3.33 -0.32,0.95 -0.87,2.02 -1.26,2.43 -0.72,0.77 -1.53,2.34 -1.53,2.97 0,0.20 -0.28,0.74 -0.63,1.20 -0.61,0.80 -0.66,1.35 -0.16,1.78 0.14,0.12 0.08,0.15 -0.14,0.06 -0.71,-0.26 -0.02,0.76 0.71,1.05 0.57,0.22 0.68,0.19 0.79,-0.22 0.07,-0.26 0.06,-0.62 -0.03,-0.79 -0.11,-0.21 -0.05,-0.21 0.20,0.02 0.20,0.18 0.37,0.51 0.37,0.71 0,0.24 0.13,0.32 0.38,0.21 0.32,-0.12 0.31,-0.09 -0.04,0.22 -0.42,0.37 -0.42,0.38 0,0.74 0.55,0.47 0.68,0.47 0.85,-0.01 0.18,-0.55 0.16,-1.35 -0.03,-1.35 -0.09,0 -0.30,-0.25 -0.47,-0.56 -0.30,-0.56 -0.30,-0.56 0.17,-0.08 0.26,0.26 0.50,0.43 0.53,0.37 0.02,-0.05 0.39,-0.87 0.80,-1.81 0.61,-1.40 0.98,-1.88 2.02,-2.67 1.69,-1.29 3.37,-3.40 4.33,-5.46 0.91,-1.93 0.90,-1.90 0.44,-2.42 -0.26,-0.29 -0.67,-0.36 -1.72,-0.27 l -1.37,0.11 0.97,-0.49 c 0.57,-0.29 1.45,-0.49 2.17,-0.49 1.11,0 1.22,0.05 1.43,0.69 0.21,0.62 0.25,0.64 0.45,0.23 0.12,-0.24 0.16,-0.62 0.09,-0.83 -0.15,-0.45 0.12,-1.08 0.87,-2.00 0.60,-0.74 0.75,-1.35 0.20,-0.83 -0.31,0.29 -0.33,0.15 -0.19,-1.47 0.09,-1.07 0.07,-1.92 -0.05,-2.11 -0.11,-0.17 -0.14,-0.59 -0.05,-0.94 l 0.16,-0.62 0.02,0.62 c 0.01,0.34 0.16,1.07 0.33,1.62 0.28,0.90 0.31,0.94 0.41,0.37 0.05,-0.34 0.11,0.21 0.13,1.23 0.02,1.56 -0.06,2.07 -0.58,3.23 -0.33,0.75 -0.89,1.71 -1.23,2.13 -0.34,0.41 -0.59,0.84 -0.55,0.95 0.03,0.10 0.73,-0.06 1.56,-0.39 1.52,-0.60 5.41,-3.70 5.18,-4.13 -0.06,-0.11 0.03,-0.26 0.21,-0.34 0.18,-0.08 0.27,-0.30 0.19,-0.52 -0.07,-0.21 -0.01,-0.38 0.13,-0.38 0.16,0 0.20,-0.19 0.12,-0.50 -0.08,-0.28 -0.04,-0.50 0.09,-0.50 0.13,0 0.23,-0.20 0.23,-0.45 0,-0.58 0.66,-3.13 0.78,-3.00 0.04,0.05 -0.06,0.65 -0.24,1.33 -0.43,1.64 -0.26,2.02 0.30,0.64 0.31,-0.77 0.39,-1.27 0.26,-1.66 -0.10,-0.31 -0.08,-1.02 0.03,-1.65 0.12,-0.60 0.18,-1.94 0.13,-2.98 -0.04,-1.03 -0.05,-1.68 -0.00,-1.43 0.04,0.24 0.15,0.39 0.23,0.33 0.08,-0.05 0.09,1.19 0.02,2.77 -0.14,3.44 0.16,6.05 0.67,5.54 0.26,-0.27 0.28,-0.26 0.06,0.06 -0.26,0.39 -0.25,0.73 0.01,1.62 0.16,0.55 1.37,1.43 1.60,1.17 0.07,-0.08 0.30,-0.16 0.51,-0.16 0.38,-0.00 0.55,-0.75 0.76,-3.28 0.07,-0.95 0.02,-1.27 -0.19,-1.27 -0.16,0 -0.29,0.06 -0.29,0.14 -5.4e-5,0.08 -0.27,0.16 -0.61,0.18 l -0.61,0.04 0.54,-0.49 c 0.41,-0.38 0.47,-0.54 0.24,-0.70 -0.18,-0.13 -0.04,-0.19 0.38,-0.16 0.37,0.02 0.82,-2.00 0.89,-1.92 0.07,0.07 -0.06,3.42 -0.19,4.85 -0.13,1.43 -0.17,2.85 -0.10,3.17 0.06,0.31 0.58,1.20 1.14,1.97 0.56,0.77 1.54,2.24 1.30,2.10 -0.23,-0.14 -1.20,-1.16 -1.25,-1.10 -0.05,0.06 -0.10,-0.02 -0.10,-0.19 -0.00,-0.17 -0.35,-0.88 -0.77,-1.59 -0.64,-1.07 -0.84,-1.24 -1.24,-1.08 -0.70,0.29 -2.16,-0.98 -2.51,-2.20 -0.41,-1.42 -0.69,-1.45 -1.26,-0.12 -0.27,0.64 -0.50,1.24 -0.50,1.31 -0.00,0.07 0.36,0.33 0.80,0.57 0.71,0.38 0.79,0.38 0.67,0.03 -0.07,-0.22 -0.04,-0.33 0.06,-0.25 0.11,0.07 0.36,0.76 0.56,1.51 0.33,1.30 0.39,1.37 1.08,1.37 0.40,0 0.87,-0.14 1.04,-0.31 0.17,-0.17 0.12,-0.05 -0.10,0.25 -0.23,0.31 -0.61,0.56 -0.86,0.56 -0.40,0 -0.41,0.03 -0.09,0.43 0.19,0.24 0.43,0.83 0.54,1.30 0.13,0.60 0.36,0.92 0.74,1.04 0.29,0.09 0.39,0.18 0.21,0.19 -0.24,0.01 -0.21,0.15 0.14,0.56 0.64,0.72 1.28,0.46 1.08,-0.43 -0.12,-0.54 -0.09,-0.59 0.17,-0.31 0.17,0.18 0.26,0.43 0.19,0.56 -0.06,0.12 0.04,0.15 0.26,0.06 0.21,-0.09 0.43,-0.16 0.48,-0.16 0.05,0 0.09,-0.11 0.09,-0.26 0,-0.14 -0.10,-0.19 -0.23,-0.09 -0.13,0.09 -0.11,-0.06 0.04,-0.34 0.15,-0.28 0.36,-0.45 0.45,-0.39 0.09,0.06 0.13,-0.23 0.09,-0.66 -0.07,-0.72 -0.05,-0.75 0.27,-0.38 0.29,0.32 0.30,0.48 0.08,0.83 -0.15,0.23 -0.36,0.67 -0.47,0.96 -0.11,0.29 -0.63,0.78 -1.16,1.09 l -0.95,0.56 -0.82,-0.99 c -0.45,-0.54 -0.92,-1.39 -1.04,-1.89 -0.12,-0.49 -0.47,-1.27 -0.79,-1.74 -0.31,-0.47 -0.57,-0.96 -0.57,-1.11 0,-0.45 -0.91,-1.57 -1.62,-1.99 -0.66,-0.38 -0.70,-0.38 -1.01,0.13 -0.17,0.29 -0.81,0.95 -1.42,1.45 -1.22,1.01 -1.72,2.04 -1.72,3.56 0,0.80 -0.17,1.22 -0.89,2.15 -0.68,0.89 -0.89,1.36 -0.89,2.07 0,0.77 -0.04,0.85 -0.27,0.51 -0.15,-0.21 -0.47,-0.52 -0.72,-0.67 -0.39,-0.25 -0.37,-0.26 0.16,-0.12 0.47,0.12 0.61,0.06 0.61,-0.24 0,-0.22 0.35,-0.84 0.77,-1.37 1.26,-1.57 1.08,-1.78 -1.51,-1.84 -1.05,-0.02 -1.82,0.39 -1.37,0.75 0.27,0.22 0.41,0.89 0.14,0.70 -0.11,-0.07 -0.32,0.19 -0.47,0.60 -0.15,0.41 -0.36,0.74 -0.48,0.74 -0.11,0 -0.02,0.27 0.19,0.60 0.22,0.33 0.46,0.55 0.54,0.50 0.07,-0.05 0.19,0.12 0.25,0.40 0.13,0.59 0.18,0.59 -1.31,0.10 -0.74,-0.24 -1.14,-0.49 -1.05,-0.66 0.08,-0.16 0.04,-0.19 -0.10,-0.09 -0.14,0.09 -0.25,0.26 -0.25,0.37 0,0.40 2.92,1.54 3.89,1.51 0.38,-0.01 0.36,-0.05 -0.10,-0.26 -0.32,-0.14 -0.45,-0.31 -0.31,-0.42 0.13,-0.09 0.29,-0.34 0.36,-0.55 0.09,-0.26 0.81,-0.46 0.82,-0.10 0.00,0.28 -0.54,0.88 -0.39,1.05 0.57,0.64 -0.14,0.78 -1.71,0.33 -1.85,-0.53 -3.06,-1.20 -2.95,-1.61 0.04,-0.16 0.51,-0.53 1.04,-0.82 1.17,-0.64 1.64,-1.53 1.44,-2.73 -0.23,-1.38 -0.38,-1.27 -1.93,1.38 -0.54,0.93 -1.58,2.22 -2.44,3.01 -1.34,1.24 -1.49,1.47 -1.50,2.30 -0.00,0.70 -0.11,0.96 -0.45,1.08 -0.24,0.08 -0.39,0.26 -0.32,0.39 0.07,0.12 -1.09,0.95 -1.30,0.95 -0.49,0 0.75,-1.28 1.36,-1.59 0.49,-0.25 0.67,-0.88 0.25,-0.88 -0.12,0 -0.16,-0.13 -0.07,-0.28 0.09,-0.18 0.06,-0.22 -0.10,-0.10 -0.14,0.10 -0.50,0.73 -0.81,1.40 l -0.54,1.22 0.49,0.10 c 0.42,0.09 0.41,0.11 -0.10,0.14 -0.62,0.03 -0.73,0.32 -0.89,2.41 -0.04,0.63 -0.15,0.76 -0.72,0.80 -0.36,0.03 -1.29,-0.21 -2.06,-0.53 z m 1.95,-0.02 c -0.30,-0.19 -0.73,-0.36 -0.95,-0.36 -0.22,-0.00 -0.34,-0.10 -0.28,-0.22 0.06,-0.11 -0.27,-0.39 -0.76,-0.60 -0.48,-0.21 -0.88,-0.28 -0.88,-0.16 0,0.12 -0.18,0.03 -0.41,-0.20 -0.37,-0.39 -0.38,-0.49 -0.09,-1.02 0.41,-0.76 0.23,-0.93 -0.58,-0.55 -0.96,0.44 -1.00,0.91 -0.15,1.64 0.76,0.65 3.46,1.83 4.25,1.85 0.39,0.00 0.37,-0.03 -0.11,-0.34 z M 16.33,35.56 c 0.15,-0.49 0.59,-1.28 0.96,-1.75 0.79,-1.02 0.65,-1.37 -0.78,-1.94 -0.51,-0.20 -1.11,-0.45 -1.33,-0.55 -0.21,-0.10 -0.38,-0.08 -0.36,0.03 0.07,0.45 -0.02,0.84 -0.21,0.84 -0.30,0 -0.54,-1.35 -0.26,-1.45 0.35,-0.13 0.28,-0.55 -0.09,-0.55 -0.23,0 -0.33,0.27 -0.33,0.94 -0.00,0.59 -0.07,0.82 -0.18,0.61 -0.10,-0.18 -0.13,-0.60 -0.08,-0.94 0.14,-0.87 -0.29,-0.75 -0.71,0.18 -0.34,0.78 -0.34,0.81 0.35,1.62 0.38,0.45 0.80,0.75 0.92,0.66 0.12,-0.08 0.15,-0.02 0.06,0.13 -0.08,0.16 -0.00,0.35 0.18,0.44 0.19,0.08 0.29,0.24 0.22,0.36 -0.13,0.25 0.51,1.77 0.87,2.04 0.40,0.30 0.47,0.23 0.77,-0.70 z M 27.27,33.70 c 0,-0.13 -0.07,-0.26 -0.16,-0.27 -0.09,-0.01 -0.37,-0.04 -0.63,-0.08 -0.26,-0.03 -0.46,0.08 -0.46,0.27 0,0.19 0.25,0.33 0.63,0.33 0.34,0 0.63,-0.11 0.63,-0.25 z M 9.67,31.26 c 0.30,-0.23 0.83,-0.39 1.18,-0.35 0.69,0.08 1.93,-0.39 1.93,-0.75 0,-0.30 -0.38,-0.27 -0.55,0.03 -0.07,0.13 -0.25,0.24 -0.40,0.24 -0.14,-0.00 -0.08,-0.12 0.12,-0.26 0.21,-0.14 0.38,-0.36 0.38,-0.50 0,-0.13 -0.23,-0.07 -0.51,0.13 -0.30,0.22 -0.86,0.34 -1.39,0.29 -0.65,-0.06 -0.95,0.03 -1.16,0.37 -0.16,0.25 -0.40,0.46 -0.53,0.46 -0.13,0 -0.05,-0.23 0.17,-0.53 0.42,-0.53 0.42,-0.53 -0.24,-0.38 -0.36,0.08 -1.22,0.21 -1.90,0.30 -1.13,0.14 -1.30,0.09 -2.00,-0.54 -0.42,-0.39 -0.59,-0.47 -0.37,-0.19 0.21,0.28 0.38,0.64 0.38,0.79 0,0.62 1.35,1.06 3.90,1.26 0.24,0.02 0.69,-0.15 0.99,-0.39 z M 15.35,30.68 c -0.07,-0.13 -0.23,-0.25 -0.36,-0.25 -0.12,0 -0.16,0.11 -0.08,0.25 0.07,0.13 0.23,0.25 0.36,0.25 0.12,0 0.16,-0.11 0.08,-0.25 z m 0.83,-0.46 c -0.02,-0.15 0.07,-0.21 0.23,-0.14 0.16,0.07 0.43,-0.23 0.65,-0.75 l 0.37,-0.87 -0.93,0.53 c -1.45,0.83 -1.56,0.96 -1.10,1.35 0.43,0.37 0.86,0.31 0.78,-0.10 z M 8.23,29.68 c 0,-0.01 0.33,-0.06 0.75,-0.11 0.41,-0.04 0.84,-0.23 0.96,-0.42 0.16,-0.26 0.23,-0.27 0.32,-0.02 0.06,0.17 0.21,0.31 0.33,0.31 0.11,0 0.14,-0.12 0.06,-0.27 -0.08,-0.15 0.11,-0.07 0.44,0.16 0.56,0.41 0.62,0.41 0.97,0.01 0.35,-0.39 0.29,-0.50 -0.92,-1.71 -1.23,-1.21 -1.28,-1.31 -0.89,-1.65 0.37,-0.33 0.38,-0.35 0.01,-0.20 -0.21,0.08 -0.76,-0.06 -1.22,-0.34 C 8.58,25.12 7.85,24.92 7.34,24.94 l -0.89,0.02 1.11,0.32 c 0.67,0.19 0.89,0.32 0.55,0.33 -0.30,0.00 -1.13,-0.13 -1.83,-0.32 -0.74,-0.20 -1.33,-0.24 -1.40,-0.11 -0.06,0.12 0.10,0.23 0.38,0.24 0.28,0.00 0.71,0.11 0.95,0.24 0.32,0.16 0.23,0.19 -0.33,0.09 -0.43,-0.07 -1.05,-0.01 -1.39,0.12 -0.60,0.25 -0.60,0.27 -0.24,0.89 0.33,0.58 0.33,0.62 0.00,0.47 -0.61,-0.26 -0.42,0.73 0.32,1.73 0.68,0.90 0.70,0.91 2.17,0.80 0.81,-0.05 1.48,-0.11 1.48,-0.13 z m -2.02,-0.51 c -0.27,-0.11 -0.08,-0.17 0.54,-0.19 0.53,-0.01 0.90,0.05 0.83,0.13 -0.20,0.22 -0.87,0.25 -1.37,0.05 z M 5.33,28.69 c 0.07,-0.14 0.40,-0.26 0.72,-0.26 0.69,0 0.61,0.12 -0.23,0.35 -0.41,0.11 -0.58,0.08 -0.48,-0.09 z m 1.67,-0.10 c 0,-0.05 0.24,-0.14 0.55,-0.21 0.30,-0.06 0.49,-0.02 0.43,0.09 -0.11,0.20 -0.98,0.31 -0.98,0.11 z M 4.25,28.24 c -0.05,-0.10 0.51,-0.20 1.26,-0.22 1.26,-0.03 1.29,-0.02 0.47,0.17 -1.14,0.27 -1.61,0.29 -1.74,0.05 z M 7.45,27.75 c 0,-0.37 0.97,-0.41 1.67,-0.07 0.52,0.25 0.51,0.25 -0.72,0.34 -0.66,0.04 -0.94,-0.03 -0.94,-0.26 z M 5.11,27.42 c -0.27,-0.13 0.01,-0.16 0.77,-0.07 0.67,0.07 1.26,0.18 1.31,0.23 0.19,0.18 -1.67,0.04 -2.09,-0.15 z M 6.47,26.64 C 4.04,26.36 3.80,26.14 6.11,26.32 c 1.04,0.08 1.98,0.24 2.10,0.37 0.11,0.12 0.16,0.21 0.11,0.19 -0.05,-0.01 -0.89,-0.12 -1.85,-0.24 z m 0.81,-0.65 c 0.21,-0.06 0.56,-0.06 0.77,0 0.21,0.06 0.03,0.11 -0.38,0.11 -0.42,0 -0.60,-0.05 -0.38,-0.11 z M 27.43,28.86 c 0.34,-0.50 0.46,-1.33 0.24,-1.78 -0.15,-0.31 -0.50,-0.40 -1.47,-0.38 -1.20,0.02 -1.22,0.03 -0.41,0.21 1.01,0.21 1.31,0.62 1.15,1.57 -0.11,0.72 0.11,0.90 0.48,0.37 z m 3.84,-0.57 c 0,-0.06 -0.10,-0.11 -0.22,-0.11 -0.12,0 -0.22,0.11 -0.22,0.26 0,0.14 0.10,0.19 0.22,0.11 0.12,-0.08 0.22,-0.20 0.22,-0.26 z M 10.90,26.67 c -0.22,-0.27 -0.50,-0.50 -0.62,-0.50 -0.12,0 -0.04,0.22 0.18,0.50 0.22,0.27 0.50,0.50 0.62,0.50 0.12,0 0.04,-0.22 -0.18,-0.50 z m 18.86,-1.62 c 0.38,-0.81 0.39,-0.93 0.08,-0.64 -0.44,0.41 -1.02,1.59 -1.01,2.07 0.00,0.39 0.25,0.01 0.92,-1.42 z M 6.00,24.66 c -0.60,-0.29 -0.77,-0.29 -0.77,0 0,0.13 0.27,0.24 0.61,0.23 0.54,-0.01 0.56,-0.04 0.16,-0.23 z M 19.09,36.81 c 0.07,-0.08 0.26,-0.09 0.42,-0.01 0.17,0.08 0.12,0.13 -0.13,0.15 -0.23,0.01 -0.36,-0.04 -0.29,-0.13 z m -1.67,-1.88 c 0.15,-0.17 0.33,-0.24 0.39,-0.17 0.06,0.07 -0.05,0.21 -0.27,0.31 -0.31,0.13 -0.34,0.10 -0.12,-0.14 z m -0.18,-4.58 c 0.27,-0.33 0.52,-0.79 0.55,-1.02 0.06,-0.50 0.54,-0.88 0.92,-0.72 0.31,0.13 0.51,-0.35 0.77,-1.91 0.24,-1.47 1.09,-4.04 1.10,-3.35 0.00,0.29 -0.14,0.95 -0.33,1.47 -0.47,1.28 -0.28,1.34 0.33,0.09 0.41,-0.83 0.49,-1.27 0.39,-2.31 -0.07,-0.81 -0.05,-1.10 0.06,-0.78 0.10,0.27 0.19,0.95 0.20,1.50 0.01,0.94 -0.13,1.32 -1.18,2.98 -0.73,1.16 -0.16,1.03 0.84,-0.18 1.05,-1.27 1.18,-1.71 1.46,-4.93 0.10,-1.17 0.35,-2.61 0.57,-3.21 0.55,-1.57 0.62,-1.14 0.08,0.58 -0.46,1.50 -0.51,3.69 -0.09,4.74 0.12,0.32 0.11,0.42 -0.04,0.31 -0.13,-0.09 -0.29,0.10 -0.37,0.44 -0.07,0.33 -0.40,0.96 -0.72,1.40 -0.48,0.65 -0.53,0.83 -0.27,1.03 0.26,0.20 0.26,0.22 -0.01,0.17 -0.44,-0.08 -1.78,0.73 -1.78,1.08 0,0.28 -2.58,3.22 -2.83,3.22 -0.07,0 0.08,-0.27 0.36,-0.60 z m 23.40,-0.82 c 6.65e-4,-0.11 0.30,-0.39 0.66,-0.63 0.85,-0.55 0.85,-0.38 -0.00,0.30 -0.36,0.29 -0.66,0.44 -0.66,0.33 z M 16.58,28.05 c 0.15,-0.20 0.32,-0.37 0.38,-0.37 0.06,0 -0.01,0.16 -0.16,0.37 -0.15,0.20 -0.32,0.37 -0.38,0.37 -0.06,0 0.01,-0.16 0.16,-0.37 z m 1.33,-0.41 c -8.91e-4,-0.08 0.28,-0.95 0.63,-1.93 0.35,-0.97 0.57,-1.84 0.50,-1.92 -0.07,-0.08 0.01,-0.11 0.19,-0.07 0.53,0.13 0.53,-1.36 -0.00,-2.55 -0.26,-0.57 -0.43,-1.09 -0.38,-1.14 0.16,-0.18 1.11,2.35 1.11,2.99 0,0.35 -0.26,0.99 -0.58,1.42 -0.32,0.43 -0.58,1.02 -0.58,1.32 -8.92e-4,0.29 -0.20,0.88 -0.44,1.29 -0.24,0.41 -0.44,0.67 -0.44,0.59 z m -3.34,-0.33 c 0,-0.06 0.22,-0.25 0.50,-0.41 0.45,-0.27 0.47,-0.26 0.19,0.11 -0.28,0.38 -0.69,0.56 -0.69,0.30 z m 8.24,-0.63 c 0.18,-0.13 0.57,-0.24 0.87,-0.25 0.71,-0.00 0.53,0.13 -0.42,0.33 -0.54,0.11 -0.68,0.08 -0.44,-0.08 z m -10.46,-0.62 -0.51,-0.62 0.50,0.10 c 0.52,0.11 1.56,0.79 1.56,1.02 0,0.07 -0.22,-0.04 -0.49,-0.25 -0.62,-0.49 -0.98,-0.50 -0.61,-0.01 0.45,0.61 0.12,0.42 -0.43,-0.24 z m 3.33,0.39 c 0,-0.13 0.10,-0.32 0.22,-0.40 0.12,-0.08 0.22,-0.04 0.22,0.09 0,0.13 -0.10,0.32 -0.22,0.40 -0.12,0.08 -0.22,0.04 -0.22,-0.09 z m 6.23,-0.28 c 0,-0.13 0.04,-0.25 0.09,-0.25 0.05,0 0.16,0.11 0.23,0.25 0.07,0.13 0.03,0.25 -0.09,0.25 -0.12,0 -0.23,-0.11 -0.23,-0.25 z m 0.66,-0.25 c 0,-0.13 0.04,-0.25 0.09,-0.25 0.05,0 0.16,0.11 0.23,0.25 0.07,0.13 0.03,0.25 -0.09,0.25 -0.12,0 -0.23,-0.11 -0.23,-0.25 z m -8.38,-0.26 c 0.22,-0.15 0.60,-0.75 0.83,-1.33 0.23,-0.57 0.36,-0.76 0.29,-0.41 -0.16,0.80 -0.80,1.82 -1.22,1.94 -0.17,0.05 -0.13,-0.03 0.08,-0.19 z m 11.73,0.02 c 0,-0.14 0.10,-0.26 0.22,-0.26 0.12,0 0.22,0.04 0.22,0.11 0,0.06 -0.10,0.18 -0.22,0.26 -0.12,0.08 -0.22,0.03 -0.22,-0.11 z M 13.46,25.43 c 0,-0.13 -0.14,-0.19 -0.31,-0.11 -0.17,0.07 -0.37,0.01 -0.46,-0.13 -0.08,-0.14 -0.21,-0.23 -0.30,-0.18 -0.08,0.04 -0.36,-0.16 -0.62,-0.47 -0.44,-0.52 -0.45,-0.56 -0.06,-0.68 0.22,-0.06 0.40,-0.04 0.39,0.04 -0.10,0.86 0.66,1.14 0.85,0.30 0.13,-0.58 0.55,-0.80 0.97,-0.50 0.25,0.17 -0.06,0.28 -0.42,0.58 -0.24,0.20 -0.07,0.44 0.01,0.54 0.08,0.09 0.31,0.03 0.50,-0.13 0.27,-0.26 0.33,-0.24 0.33,0.08 0,0.21 -0.20,0.51 -0.44,0.66 -0.28,0.17 -0.44,0.17 -0.44,0.01 z m -0.33,-0.51 c -0.07,-0.13 -0.18,-0.25 -0.23,-0.25 -0.05,0 -0.09,0.11 -0.09,0.25 0,0.13 0.10,0.25 0.23,0.25 0.12,0 0.17,-0.11 0.09,-0.25 z m 10.50,0.19 c -0.11,-0.53 -0.10,-0.54 0.17,-0.12 0.16,0.24 0.34,0.36 0.39,0.25 0.05,-0.11 0.08,-0.09 0.06,0.03 -0.06,0.49 -0.51,0.38 -0.63,-0.16 z m 9.05,0.21 c 0,-0.18 0.12,-0.33 0.27,-0.33 0.15,0 0.22,0.15 0.16,0.33 -0.06,0.18 -0.18,0.33 -0.27,0.33 -0.08,0 -0.16,-0.15 -0.16,-0.33 z M 11.43,24.72 c -0.27,-0.39 -0.26,-0.40 0.08,-0.09 0.21,0.18 0.38,0.38 0.38,0.43 0,0.20 -0.18,0.07 -0.47,-0.34 z m 4.93,0.06 c 0,-0.13 0.09,-0.42 0.21,-0.62 0.11,-0.20 0.21,-0.26 0.21,-0.12 0,0.13 -0.09,0.42 -0.21,0.62 -0.11,0.20 -0.21,0.26 -0.21,0.12 z M 18.01,23.76 c -0.08,-0.49 -0.06,-0.99 0.04,-1.11 0.11,-0.12 0.20,0.26 0.22,0.89 0.03,1.34 -0.06,1.42 -0.26,0.21 z M 5.95,23.96 c -0.27,-0.19 -0.21,-0.55 0.60,-3.64 0.45,-1.72 0.46,-0.79 0.01,1.34 -0.24,1.14 -0.38,2.17 -0.32,2.29 0.14,0.26 0.06,0.26 -0.29,0.01 z m 6.61,-0.18 c 0,-0.64 0.81,-1.24 1.20,-0.88 0.15,0.14 0.36,0.17 0.46,0.07 0.10,-0.10 0.10,-0.04 0.01,0.13 -0.09,0.17 -0.34,0.25 -0.57,0.17 -0.27,-0.09 -0.52,0.04 -0.76,0.42 -0.33,0.53 -0.35,0.53 -0.35,0.07 z m 4.47,0.13 c 0,-0.20 0.14,-0.65 0.31,-1.00 0.18,-0.36 0.31,-0.46 0.31,-0.25 0,0.20 -0.14,0.65 -0.31,1.00 -0.18,0.36 -0.31,0.46 -0.31,0.25 z m -5.58,-0.49 c 0,-0.36 0.80,-1.34 1.01,-1.23 0.11,0.05 -0.06,0.40 -0.40,0.77 -0.33,0.37 -0.61,0.58 -0.61,0.46 z m 17.38,-0.11 c -0.00,-0.26 0.04,-0.41 0.11,-0.32 0.07,0.08 0.08,0.29 0.01,0.48 -0.07,0.20 -0.12,0.14 -0.13,-0.15 z M 7.84,23.24 c 0.15,-0.06 0.40,-0.06 0.55,0 0.15,0.06 0.02,0.12 -0.27,0.12 -0.30,0 -0.43,-0.05 -0.27,-0.12 z M 39.07,23.17 c 0,-0.12 -0.17,-0.28 -0.38,-0.34 -0.21,-0.06 -0.12,-0.10 0.19,-0.09 0.38,0.01 0.54,0.13 0.47,0.34 -0.12,0.37 -0.28,0.42 -0.28,0.09 z M 9.67,22.96 c 0,-0.10 -0.40,-0.79 -0.89,-1.53 C 8.29,20.69 8.06,20.11 8.06,19.95 c 0,-0.15 -0.00,-0.14 0.20,0.19 0.20,0.34 0.40,0.66 0.44,0.72 0.03,0.05 0.25,-0.08 0.48,-0.31 0.41,-0.42 0.46,-1.37 0.14,-3.10 -0.13,-0.72 -0.04,-0.91 0.87,-1.91 l 1.02,-1.11 -0.78,-0.52 -0.78,-0.52 v 0.64 c 0,0.43 0.09,0.60 0.29,0.51 0.16,-0.07 0.29,0.02 0.29,0.21 0,0.18 -0.08,0.28 -0.19,0.20 -0.10,-0.07 0.21,0.54 0.25,0.72 0.09,0.50 -1.80,-0.25 -3.17,-0.94 C 6.04,14.19 4.96,13.09 4.38,11.93 4.23,11.62 4.10,11.31 4.10,11.24 c 0,-0.07 0.90,-0.12 2.01,-0.12 h 2.01 l 1.06,1.19 c 0.58,0.65 1.34,1.35 1.68,1.56 0.68,0.40 0.72,0.37 1.49,-1.18 0.21,-0.42 1.19,-1.04 2.11,-1.92 2.02,-1.93 1.86,-1.05 -0.29,0.61 -0.81,0.62 -1.62,1.38 -1.79,1.69 -0.31,0.54 -0.30,0.56 0.35,0.41 0.77,-0.17 2.10,0.25 2.52,0.81 0.19,0.26 -0.01,0.21 -0.64,-0.16 -0.72,-0.42 -1.12,-0.50 -1.83,-0.37 -1.09,0.20 -0.95,0.49 0.24,0.51 0.50,0.00 1.04,0.20 1.31,0.47 l 0.45,0.46 -0.55,0.57 c -0.30,0.31 -0.56,0.78 -0.57,1.03 -0.01,0.26 -0.06,0.32 -0.12,0.13 -0.06,-0.17 -0.27,-0.31 -0.48,-0.32 -0.30,-0.00 -0.29,-0.05 0.07,-0.29 0.24,-0.15 0.64,-0.49 0.88,-0.75 0.38,-0.40 0.39,-0.50 0.11,-0.70 -0.18,-0.12 -0.43,-0.24 -0.55,-0.25 -0.12,-0.01 -0.60,-0.05 -1.07,-0.09 -1.05,-0.09 -2.04,0.65 -1.48,1.12 0.28,0.24 0.28,0.26 -0.04,0.14 -0.51,-0.18 -1.51,0.75 -1.50,1.42 0.00,0.30 0.14,0.82 0.30,1.15 0.34,0.69 0.14,1.81 -0.45,2.55 -0.30,0.37 -0.31,0.53 -0.09,0.84 0.38,0.51 0.63,0.47 1.14,-0.18 l 0.43,-0.56 -0.24,0.57 c -0.13,0.31 -0.38,0.63 -0.55,0.71 -0.16,0.07 -0.25,0.29 -0.18,0.48 0.06,0.19 0.06,0.35 -0.01,0.35 -0.07,0 -0.13,-0.08 -0.13,-0.19 z M 9.28,14.84 C 9.18,14.73 9.08,14.61 9.07,14.57 9.06,14.53 8.94,14.04 8.81,13.49 8.35,11.59 8.08,11.36 6.22,11.36 H 4.57 l 0.48,0.94 c 0.69,1.34 1.05,1.71 1.99,2.05 0.45,0.16 0.88,0.39 0.95,0.51 0.06,0.11 0.42,0.20 0.79,0.19 0.37,-0.01 0.59,-0.11 0.48,-0.22 z M 23.04,22.65 c 0,-0.13 0.04,-0.25 0.09,-0.25 0.05,0 0.16,0.11 0.23,0.25 0.07,0.13 0.03,0.25 -0.09,0.25 -0.12,0 -0.23,-0.11 -0.23,-0.25 z m -1.20,-1.44 c -0.25,-1.76 -0.13,-2.93 0.45,-4.20 0.31,-0.69 0.65,-1.59 0.75,-2.00 0.16,-0.72 0.17,-0.73 0.19,-0.10 0.01,0.35 -0.23,1.20 -0.55,1.87 -0.48,1.03 -0.57,1.54 -0.57,3.29 0,1.14 -0.03,2.07 -0.06,2.07 -0.03,0 -0.12,-0.42 -0.20,-0.94 z m -9.51,0.36 c 0.10,-0.12 0.48,-0.17 0.83,-0.13 0.58,0.08 0.57,0.10 -0.19,0.22 -0.47,0.07 -0.75,0.03 -0.63,-0.08 z m 6.90,-2.03 c -1.12,-1.94 -1.60,-2.91 -1.43,-2.91 0.06,0 0.37,0.50 0.69,1.12 0.32,0.63 0.69,1.05 0.82,0.96 0.13,-0.09 0.17,-0.04 0.08,0.11 -0.08,0.15 0.11,0.73 0.44,1.29 0.32,0.55 0.55,1.05 0.50,1.10 -0.04,0.04 -0.55,-0.71 -1.12,-1.69 z m -1.28,0.10 -0.03,-1.38 -0.42,1.00 c -0.23,0.55 -0.42,0.91 -0.43,0.80 -0.00,-0.10 -0.22,-0.07 -0.47,0.07 -0.42,0.25 -0.43,0.23 -0.16,-0.24 0.15,-0.28 0.45,-0.58 0.66,-0.65 0.29,-0.10 0.34,-0.33 0.25,-1.06 -0.11,-0.85 -0.09,-0.89 0.24,-0.54 0.49,0.52 0.75,1.71 0.56,2.62 -0.12,0.60 -0.15,0.48 -0.18,-0.62 z m 17.38,1.00 c 0,-0.20 0.08,-0.60 0.19,-0.87 0.12,-0.31 0.19,-0.36 0.19,-0.12 0,0.20 -0.08,0.60 -0.19,0.87 -0.12,0.31 -0.19,0.36 -0.19,0.12 z M 11.62,19.36 c -0.71,-0.45 -0.40,-2.47 0.44,-2.83 0.30,-0.12 0.27,-0.04 -0.10,0.35 -0.32,0.34 -0.50,0.81 -0.50,1.37 0,0.69 0.09,0.86 0.50,0.93 0.27,0.04 0.39,0.15 0.27,0.24 -0.12,0.09 -0.40,0.05 -0.61,-0.07 z m 16.76,-0.20 c 0,-0.14 0.10,-0.26 0.22,-0.26 0.12,0 0.22,0.04 0.22,0.11 0,0.06 -0.10,0.18 -0.22,0.26 -0.12,0.08 -0.22,0.03 -0.22,-0.11 z M 6.55,18.86 c 0,-0.10 0.24,-0.51 0.54,-0.89 0.40,-0.53 0.60,-0.63 0.80,-0.41 0.14,0.15 0.25,2.07 0.19,2.33 -0.08,0.38 0.47,0.06 0.08,0.18 -0.39,0.12 -0.36,-2.43 -0.47,-2.43 -0.32,0 -0.75,0.72 -0.63,1.08 0.06,0.18 -0.36,1.86 -0.53,1.86 -0.17,0 0.02,-1.62 0.02,-1.72 z m 29.17,0.11 c 0,-0.13 0.15,-0.46 0.34,-0.73 0.32,-0.45 0.33,-0.45 0.08,0.14 -0.32,0.76 -0.42,0.91 -0.42,0.59 z M 20.49,18.16 c -0.06,-0.12 0.02,-0.28 0.19,-0.36 0.21,-0.09 0.28,-0.01 0.19,0.22 -0.14,0.42 -0.22,0.45 -0.39,0.13 z m 7.86,-0.46 c -0.27,-0.39 -0.26,-0.40 0.08,-0.09 0.37,0.32 0.48,0.53 0.30,0.53 -0.04,0 -0.22,-0.19 -0.38,-0.43 z M 16.25,17.37 c 0.08,-0.15 -0.00,-0.23 -0.23,-0.18 -0.21,0.04 -0.58,-0.22 -0.85,-0.63 -0.45,-0.67 -0.45,-0.72 -0.07,-1.04 0.29,-0.24 0.32,-0.36 0.11,-0.46 -0.19,-0.08 -0.17,-0.13 0.07,-0.15 0.27,-0.01 0.41,-0.35 0.52,-1.29 0.12,-1.00 0.33,-1.48 1.00,-2.28 0.49,-0.58 1.98,-1.32 2.12,-1.21 0.17,0.11 -1.01,0.85 -1.50,1.42 -0.69,0.81 -0.74,0.97 -0.74,2.60 0,0.95 -0.07,1.74 -0.16,1.74 -0.09,0 -0.16,-0.11 -0.16,-0.26 0,-0.14 -0.09,-0.20 -0.20,-0.12 -0.11,0.07 -0.24,0.01 -0.28,-0.13 -0.04,-0.15 -0.22,0.01 -0.39,0.37 -0.25,0.54 -0.26,0.70 -0.01,0.96 0.23,0.24 0.26,0.22 0.15,-0.14 -0.07,-0.24 -0.05,-0.38 0.05,-0.31 0.11,0.07 0.24,-0.00 0.30,-0.17 0.07,-0.21 0.25,-0.14 0.58,0.24 0.26,0.31 0.38,0.56 0.26,0.56 -0.12,0 -0.28,-0.11 -0.35,-0.25 -0.07,-0.13 -0.24,-0.25 -0.38,-0.25 -0.13,0 -0.07,0.20 0.12,0.45 0.42,0.52 0.46,0.79 0.13,0.79 -0.12,0 -0.16,-0.12 -0.08,-0.26 z m 0.13,-4.35 c 0.12,-0.54 0.54,-1.32 0.92,-1.74 0.55,-0.60 0.58,-0.67 0.14,-0.36 -0.76,0.54 -1.29,1.64 -1.42,2.97 -0.11,1.11 -0.08,1.04 0.35,-0.86 z m 12.56,3.68 c -0.34,-2.24 -0.36,-2.46 -0.16,-1.94 0.22,0.59 0.54,2.88 0.40,2.88 -0.05,0 -0.16,-0.42 -0.24,-0.94 z m -11.70,0 c -0.00,-0.42 0.12,-0.56 0.50,-0.56 0.28,0 0.70,-0.17 0.94,-0.39 0.41,-0.37 0.39,-0.38 -0.23,-0.23 -0.77,0.18 -0.71,0.09 0.28,-0.44 0.40,-0.21 0.66,-0.29 0.59,-0.16 -0.07,0.12 -0.03,0.23 0.08,0.23 0.11,0 0.26,-0.14 0.32,-0.31 0.08,-0.23 0.11,-0.23 0.12,-0.00 0.01,0.33 -1.48,1.57 -1.91,1.57 -0.14,0 -0.37,0.19 -0.49,0.43 -0.20,0.39 -0.22,0.37 -0.23,-0.12 z m 23.73,-0.56 c -0.14,-1.05 -1.00,-3.26 -1.26,-3.26 -0.08,0 -0.57,0.17 -1.10,0.37 -0.52,0.20 -0.99,0.33 -1.04,0.27 -0.05,-0.05 0.26,-0.23 0.71,-0.40 0.44,-0.16 0.96,-0.57 1.16,-0.91 0.35,-0.60 0.33,-0.64 -0.73,-1.87 -0.60,-0.68 -1.61,-1.59 -2.26,-2.01 -0.64,-0.41 -2.27,-1.67 -2.27,-1.74 0,-0.07 1.68,1.09 2.38,1.54 1.78,1.13 1.79,1.13 3.28,1.61 0.73,0.23 1.90,0.80 2.59,1.28 0.69,0.47 1.34,0.85 1.44,0.85 0.10,0 0.31,0.23 0.47,0.51 0.27,0.49 0.24,0.50 -0.55,0.35 -0.46,-0.08 -1.42,-0.48 -2.12,-0.89 -0.70,-0.40 -1.38,-0.73 -1.50,-0.73 -0.41,0 -0.21,1.51 0.35,2.75 0.31,0.68 0.63,1.69 0.69,2.25 0.15,1.31 -0.06,1.31 -0.24,0.00 z M 42.65,11.51 C 42.21,10.97 40.70,10.21 39.07,9.71 l -0.55,-0.17 0.53,0.65 c 0.33,0.40 0.77,0.65 1.15,0.65 0.34,0 0.98,0.28 1.43,0.62 1.09,0.83 1.69,0.85 0.99,0.02 z m -19.13,4.36 c 0,-0.34 0.05,-0.48 0.11,-0.31 0.06,0.17 0.06,0.45 0,0.62 -0.06,0.17 -0.11,0.03 -0.11,-0.31 z m -3.91,-1.69 c 0.11,-0.10 0.27,-0.30 0.36,-0.43 0.09,-0.14 0.16,-0.06 0.16,0.18 0.00,0.24 -0.50,1.20 -0.70,1.20 -0.20,0 0.05,-0.85 0.17,-0.95 z m 0.29,-0.17 c -0.01,-0.17 -0.00,-1.38 0.02,-1.52 0.21,-1.11 0.14,-1.36 -0.45,-1.50 -0.89,-0.22 -1.10,-1.12 -0.25,-1.12 0.20,0 0.27,0.14 0.18,0.41 -0.12,0.36 -0.09,0.36 0.24,0.06 0.33,-0.30 0.36,-0.29 0.22,0.11 -0.11,0.35 -0.07,0.43 0.18,0.32 0.23,-0.10 0.34,0.02 0.36,0.41 0.03,0.83 -0.34,2.92 -0.55,3.01 -0.10,0.04 0.07,0.62 0.18,-0.27 0.02,-0.21 -0.06,0.26 -0.13,0.26 -0.07,0 0.10,0.00 0.09,-0.17 z m 3.16,-1.75 c -0.00,-0.26 0.04,-0.41 0.11,-0.32 0.07,0.08 0.08,0.29 0.01,0.48 -0.07,0.20 -0.12,0.14 -0.13,-0.15 z m 4.41,-0.20 C 26.91,10.83 25.16,7.93 24.50,7.13 23.59,6.02 22.78,5.57 21.64,5.55 c -1.30,-0.02 -1.99,0.33 -3.32,1.72 -0.62,0.65 -3.49,3.54 -3.35,3.25 0.43,-0.92 4.20,-4.62 5.39,-5.06 1.34,-0.50 2.20,-0.38 4.11,0.57 1.85,0.93 3.19,0.88 5.20,-0.15 1.41,-0.73 1.66,-0.79 2.42,-0.55 0.46,0.14 1.09,0.49 1.40,0.78 L 34.83,7.10 33.12,6.10 C 31.89,5.39 31.05,5.45 29.67,6.24 28.19,7.09 26.28,7.31 25.32,6.75 24.35,6.18 24.26,6.23 24.80,7.03 c 1.27,1.87 3.28,5.58 3.03,5.58 -0.06,0 -0.22,-0.25 -0.36,-0.56 z M 35.65,9.53 C 35.06,8.17 34.62,7.01 34.67,6.95 c 0.12,-0.14 2.21,4.65 2.12,4.88 -0.03,0.09 -0.55,-0.93 -1.14,-2.29 z M 23.48,10.76 c 0,-0.26 0.66,-1.66 0.79,-1.66 0.06,0 -0.05,0.36 -0.25,0.81 -0.41,0.91 -0.53,1.10 -0.53,0.84 z M 29.43,6.93 c 0.15,-0.06 0.45,-0.07 0.66,-0.00 0.21,0.06 0.09,0.11 -0.27,0.12 -0.36,0.00 -0.54,-0.04 -0.39,-0.11 z" />
</svg>
