<?xml version="1.0" encoding="UTF-8" standalone="no"?>
<!-- Created with Inkscape (http://www.inkscape.org/) -->
<svg xmlns:dc="http://purl.org/dc/elements/1.1/" xmlns:cc="http://creativecommons.org/ns#" xmlns:rdf="http://www.w3.org/1999/02/22-rdf-syntax-ns#" xmlns:svg="http://www.w3.org/2000/svg" xmlns="http://www.w3.org/2000/svg" version="1.1" width="100%" height="100%" viewBox="0 0 48 48" id="svg2">
<defs id="defs70" />
<path d="m 15.78,12.68 c -2.37,0.17 -4.67,1.00 -7.07,0.92 -1.94,-0.44 -2.99,1.27 -4.23,2.40 -1.00,1.35 -2.33,2.48 -3.17,3.94 -0.31,1.83 0.21,3.66 0.81,5.37 0.13,1.31 1.20,2.66 0.46,3.89 -0.47,1.06 0.53,2.58 -0.56,3.35 -0.74,1.02 -0.91,3.03 0.29,3.83 1.39,0.13 3.79,-0.81 2.44,-2.63 -0.60,-1.36 1.44,-3.62 2.02,-1.52 0.92,1.54 0.40,4.22 2.99,3.88 1.31,0.21 2.01,-1.13 0.49,-1.56 -0.45,-1.59 -0.48,-3.67 0.72,-4.99 0.82,-1.97 2.75,0.53 4.22,0.28 2.34,0.72 4.92,0.95 7.23,0.03 0.01,1.56 -0.81,3.43 -0.45,5.09 0.16,1.27 -1.14,3.11 0.98,3.35 1.14,-0.13 2.43,0.10 3.37,-0.54 -0.05,-1.34 -2.58,-1.85 -1.27,-3.52 0.59,-1.58 1.43,-4.08 3.47,-3.94 0.87,1.32 1.76,2.55 2.59,3.87 -0.11,2.08 2.37,2.14 3.79,1.84 1.74,-0.62 -1.48,-1.80 -1.42,-3.02 -0.35,-1.43 -0.58,-2.91 -0.55,-4.41 1.38,0.19 0.73,1.74 1.70,2.40 1.08,1.36 2.55,2.38 3.97,3.36 0.93,0.23 2.12,0.64 2.64,-0.45 0.58,-0.98 0.88,-2.01 1.69,-2.84 1.33,-0.97 2.51,-2.22 3.29,-3.73 0.81,-0.68 1.04,-3.57 -0.16,-1.65 -0.74,1.50 -2.58,2.08 -4.05,2.41 0.54,-0.71 1.74,-3.13 -0.10,-2.30 -1.78,1.33 -3.64,-0.55 -3.17,-2.46 -0.61,-2.09 1.75,-1.11 2.61,-2.38 0.91,-0.23 0.95,-1.91 -0.10,-1.55 -1.40,-0.00 -2.89,1.05 -3.61,-0.23 -1.65,0.92 -2.10,-1.94 -3.13,-2.75 -1.46,-1.10 -2.61,-2.92 -4.51,-3.22 -1.91,-0.54 -3.59,0.74 -5.50,0.62 -2.84,0.28 -5.64,-0.47 -8.37,-1.12 l -0.37,-0.00 z m 0.00,0.39 c 1.99,0.26 3.93,0.99 5.96,1.12 2.10,0.06 4.31,0.15 6.28,-0.71 1.61,-0.15 3.37,0.14 4.34,1.58 1.89,1.02 2.71,3.07 4.11,4.58 0.32,0.67 1.67,-0.71 1.27,0.41 1.02,0.68 2.76,-0.62 3.92,-0.22 -0.25,1.00 -1.77,1.83 -2.90,1.67 -0.73,0.85 -0.32,2.65 -0.20,3.78 0.73,1.74 2.67,1.48 4.00,0.65 0.33,0.74 -2.14,2.70 -0.34,2.54 1.58,-0.45 3.46,-1.00 4.24,-2.62 0.36,-0.36 -0.68,1.68 -1.10,2.21 -0.60,1.27 -2.03,1.94 -2.92,3.09 l -0.17,-0.08 c 0,0 -0.42,-0.04 -0.48,-0.04 -0.05,0 -0.42,-0.10 -0.47,-0.13 -0.04,-0.02 -0.38,-0.19 -0.38,-0.19 l -0.85,-0.34 0.60,0.30 c 0.03,0.01 0.56,0.27 0.62,0.31 0.05,0.03 0.24,0.10 0.29,0.14 0.04,0.03 0.42,0.02 0.42,0.02 l 0.36,0.09 c -0.04,0.06 -0.09,0.13 -0.13,0.20 -0.11,0.06 -0.21,0.15 -0.29,0.25 -0.00,-0.03 -0.01,-0.07 -0.01,-0.09 -0.00,-0.03 -0.07,-0.11 -0.11,-0.15 -0.03,-0.03 -0.36,-0.12 -0.36,-0.12 l -0.37,-0.09 -0.55,0.03 0.47,0.05 0.34,0.04 0.41,0.15 c 0,0 0.11,0.13 0.11,0.18 0,0.02 -0.00,0.06 -0.00,0.11 -0.38,0.61 -0.37,1.62 -1.11,2.00 -0.13,0.17 -0.30,0.28 -0.49,0.35 L 39.77,33.65 l -0.50,-0.66 -0.11,-0.64 0.02,0.72 0.22,0.47 0.63,0.71 c -0.69,0.09 -1.56,-0.34 -2.03,-0.79 -0.42,-0.32 -0.85,-0.64 -1.27,-0.98 -0.02,-0.07 -0.07,-0.22 -0.11,-0.33 -0.20,-0.50 -0.53,-0.97 -0.66,-1.50 -0.10,-0.41 -0.10,-0.85 -0.11,-1.28 -0.01,-0.47 -0.05,-0.96 0.05,-1.42 0.12,-0.50 0.66,-1.39 0.66,-1.39 0,0 -0.58,0.77 -0.75,1.22 -0.21,0.59 -0.30,1.23 -0.27,1.86 0.01,0.40 0.15,0.80 0.27,1.19 0.13,0.41 0.27,0.83 0.50,1.19 0.05,0.08 0.14,0.19 0.23,0.28 -0.82,-0.68 -1.59,-1.43 -2.14,-2.36 0.09,-0.65 -0.18,-1.14 -0.65,-1.45 0.09,0.03 0.19,0.05 0.27,0.04 0.46,-0.08 0.83,-0.50 1.11,-0.89 0.38,-0.53 0.69,-1.86 0.69,-1.86 0,0 -0.25,0.92 -0.52,1.31 -0.21,0.30 -0.51,0.54 -0.83,0.72 -0.33,0.18 -1.08,0.36 -1.08,0.36 l 0.02,0.14 c -0.22,-0.08 -0.47,-0.14 -0.73,-0.15 -0.02,0.03 -0.03,0.06 -0.05,0.10 0.14,-0.64 0.28,-1.29 0.28,-1.48 0,-0.27 -0.06,0.30 -0.13,0.44 -0.28,0.55 -0.66,1.07 -1.11,1.50 -0.32,0.30 -0.72,0.53 -1.11,0.75 -0.44,0.23 -1.39,0.58 -1.39,0.58 0,0 1.09,-0.08 1.64,-0.08 0.31,0.00 0.63,0.03 0.94,0.05 0.17,0.00 0.39,0.13 0.52,0.02 0.24,-0.19 0.10,-0.61 0.16,-0.92 0.03,-0.17 0.07,-0.38 0.12,-0.59 -0.05,0.52 0.12,1.30 0.08,1.80 0.24,1.74 0.38,3.77 2.06,4.80 1.14,1.05 -2.59,0.69 -2.82,0.02 -0.35,-1.50 -1.33,-2.56 -2.14,-3.80 -0.44,-0.78 -0.92,-1.62 -1.96,-1.47 0.29,-0.28 0.41,-0.72 0.57,-1.10 0.16,-0.41 0.36,-1.20 0.40,-1.36 -0.11,0.33 -0.88,1.74 -1.40,2.47 -0.06,0.08 -0.18,0.21 -0.22,0.25 -0.00,0.00 -0.00,0.00 -0.00,0.00 -1.33,1.23 -2.18,2.95 -2.66,4.70 -1.09,1.34 2.97,2.79 0.75,2.91 -0.94,0.05 -3.53,0.62 -3.02,-1.08 0.53,-1.68 -0.10,-3.44 0.47,-5.17 0.25,-1.02 0.67,-2.79 -1.04,-1.80 -0.55,0.23 -1.40,0.35 -2.25,0.37 -2.34,-0.01 -4.64,-0.71 -6.83,-1.49 -0.43,-0.41 -0.78,-0.40 -1.09,-0.18 0.03,-0.03 0.09,-0.09 0.09,-0.09 0,0 -0.42,-0.11 -0.67,-0.11 -0.01,3.97e-4 -0.03,0.00 -0.04,0.00 -0.36,0.03 -0.69,0.23 -1.03,0.39 -0.42,0.19 -0.85,0.40 -1.22,0.69 -0.18,0.14 -0.42,0.29 -0.47,0.52 -0.06,0.32 0.20,0.63 0.33,0.94 0.17,0.44 0.30,0.92 0.58,1.31 0.10,0.14 0.39,0.50 0.39,0.36 0,-0.13 0.11,-1.06 0.30,-1.55 C 9.79,30.59 9.98,30.33 10.16,30.06 9.43,31.48 9.38,33.38 9.97,34.82 12.48,35.90 7.59,36.24 7.99,34.66 7.57,33.39 7.49,31.15 5.90,30.97 4.42,30.93 3.91,33.42 4.61,34.50 5.28,35.80 2.39,36.61 1.95,35.43 1.75,34.36 1.80,33.00 2.66,32.49 3.40,31.41 2.32,29.77 3.25,28.65 3.21,28.26 3.14,27.86 3.06,27.46 c 0.03,0.05 0.06,0.11 0.09,0.14 0.14,0.16 0.35,0.26 0.55,0.36 0.31,0.15 1.00,0.36 1.00,0.36 0,0 -0.60,-0.33 -0.89,-0.52 C 3.57,27.63 3.16,27.29 2.99,27.15 2.82,26.40 2.60,25.65 2.42,24.90 1.82,23.25 1.13,21.21 1.96,19.55 3.21,18.29 4.15,16.76 5.49,15.59 c 0.96,-1.76 2.88,-1.64 4.61,-1.64 1.92,-0.12 3.76,-0.75 5.67,-0.86 z m 12.96,14.36 c 0.00,-0.02 0.01,-0.04 0.01,-0.06 0,0 -0.01,0.04 -0.01,0.06 z M 9.51,16.76 c 0,0.22 -0.25,0.77 -0.22,1.17 0.04,0.68 0.52,1.27 0.66,1.95 0.13,0.65 0.11,1.33 0.16,2.00 0.03,0.48 0.11,0.96 0.11,1.44 -0.00,0.36 -0.02,0.73 -0.06,1.10 -0.06,-0.59 -0.12,-1.12 -0.12,-1.12 0,0 -0.05,0.55 -0.07,0.82 -0.04,0.43 -0.01,0.87 -0.11,1.30 -0.16,0.67 -0.40,1.34 -0.78,1.93 -0.38,0.58 -0.93,1.03 -1.45,1.49 -0.37,0.32 -1.18,0.90 -1.18,0.90 0,0 1.56,-0.75 2.47,-1.29 0.55,-0.19 1.21,-0.40 1.67,-0.46 0.46,-0.06 1.39,0.05 1.39,0.05 0,0 -0.65,-0.60 -0.83,-1.00 -0.49,-1.06 -0.52,-2.28 -0.61,-3.45 -0.05,-0.72 0.09,-1.45 0.05,-2.17 -0.03,-0.65 -0.14,-1.30 -0.27,-1.94 -0.19,-0.92 -0.78,-2.73 -0.78,-2.73 z m 21.82,0.22 c 0,0 1.85,2.64 2.75,3.98 0.24,0.36 0.52,0.71 0.72,1.11 0.25,0.50 0.39,1.06 0.61,1.58 0.13,0.32 0.41,0.97 0.41,0.97 0,0 0.02,-1.36 -0.05,-2.03 -0.04,-0.37 -0.10,-0.76 -0.25,-1.11 -0.18,-0.44 -0.43,-0.86 -0.75,-1.22 -0.39,-0.45 -0.94,-0.75 -1.39,-1.16 -0.72,-0.67 -2.06,-2.11 -2.06,-2.11 z m -6.13,1.75 c 0,0 -0.13,1.66 -0.33,2.47 -0.26,1.06 -0.78,2.04 -1.11,3.09 -0.11,0.38 -0.17,0.78 -0.30,1.16 -0.21,0.61 -0.56,1.17 -0.78,1.78 -0.02,0.05 -0.04,0.12 -0.06,0.19 -0.28,0.13 -0.78,0.34 -1.10,0.39 -0.86,0.12 -1.75,-0.03 -2.62,-0.16 -0.89,-0.14 -1.78,-0.33 -2.61,-0.66 -1.01,-0.40 -2.01,-0.90 -2.84,-1.61 -0.88,-0.75 -2.17,-2.73 -2.17,-2.73 0,0 0.59,2.68 1.50,3.62 0.49,0.51 1.28,0.63 1.95,0.89 0.89,0.33 1.79,0.66 2.73,0.83 1.37,0.25 2.84,0.68 4.18,0.27 0.30,-0.09 0.68,-0.42 0.94,-0.66 -0.13,0.48 -0.27,1.08 -0.27,1.08 0,0 0.75,-0.49 0.92,-0.89 0.11,-0.26 -0.09,-0.59 0,-0.86 0.06,-0.19 0.33,-0.27 0.39,-0.47 0.02,-0.08 -0.04,-0.16 -0.02,-0.25 0.03,-0.21 0.23,-0.37 0.27,-0.58 0.04,-0.21 -0.04,-0.44 0,-0.66 0.05,-0.28 0.20,-0.53 0.30,-0.80 0.17,-0.46 0.34,-0.92 0.50,-1.39 0.10,-0.31 0.21,-0.62 0.27,-0.94 0.15,-0.75 0.23,-1.51 0.27,-2.28 0.01,-0.26 0,-0.80 0,-0.80 z m 13.32,2.92 c 0,0 -0.20,0.22 -0.33,0.30 -0.17,0.11 -0.37,0.21 -0.58,0.25 -0.20,0.03 -0.61,-0.02 -0.61,-0.02 0,0 0.17,0.47 0.38,0.52 0.25,0.06 0.53,-0.13 0.72,-0.30 0.21,-0.19 0.41,-0.75 0.41,-0.75 z m -6.88,1.08 c 0,0 -0.36,0.22 -0.85,0.49 0.00,-0.00 0.07,-0.02 0.07,-0.02 l 0.78,-0.47 z m -0.85,0.49 c -0.12,0.04 -1.44,0.47 -2.15,0.72 -0.68,0.24 -1.37,0.45 -2.03,0.75 -0.86,0.38 -2.50,1.33 -2.50,1.33 0,0 1.87,-0.84 2.84,-1.19 0.61,-0.22 1.26,-0.33 1.86,-0.58 0.55,-0.23 1.36,-0.68 1.98,-1.03 z M 8.75,25.21 c 0,0 -0.71,0.70 -1.11,1.00 -0.26,0.19 -0.55,0.37 -0.86,0.50 -0.33,0.14 -1.05,0.30 -1.05,0.30 0,0 0.34,0.13 0.52,0.13 0.24,0.00 0.49,-0.07 0.72,-0.16 0.23,-0.09 0.47,-0.22 0.66,-0.39 0.45,-0.38 1.11,-1.39 1.11,-1.39 z m 25.74,0.11 c 0,0 -0.74,1.47 -1.00,2.25 -0.05,0.16 -0.11,0.50 -0.11,0.50 0,0 0.43,-0.82 0.61,-1.25 0.20,-0.48 0.50,-1.50 0.50,-1.50 z m -4.93,0.27 c -0.31,0.00 -0.63,0.03 -0.94,0.06 -0.39,0.03 -0.78,0.12 -1.17,0.22 -1.33,0.33 -3.92,1.22 -3.92,1.22 0,0 2.67,-0.64 4.04,-0.80 0.44,-0.05 0.89,-0.07 1.33,-0.05 0.29,0.01 0.62,-0.02 0.89,0.11 0.11,0.05 0.24,0.15 0.27,0.27 0.12,0.47 -0.36,1.42 -0.36,1.42 0,0 0.34,-0.57 0.52,-0.86 0.23,-0.38 0.81,-0.70 0.72,-1.14 -0.03,-0.18 -0.29,-0.27 -0.47,-0.33 -0.29,-0.09 -0.60,-0.12 -0.92,-0.11 z m 1.95,0.62 c 0,0 -0.42,0.92 -0.66,1.36 -0.24,0.44 -0.47,0.92 -0.80,1.30 -0.31,0.36 -1.11,0.92 -1.11,0.92 0,0 0.64,0.01 0.91,-0.13 0.23,-0.13 0.36,-0.40 0.52,-0.61 0.29,-0.36 0.65,-0.70 0.83,-1.14 0.22,-0.52 0.30,-1.69 0.30,-1.69 z m 7.90,0.68 -0.30,0.03 -0.48,0.09 0.74,-0.02 0.23,0.09 0.63,0.62 -0.17,-0.20 -0.37,-0.44 -0.27,-0.16 z m -0.24,0.21 -0.41,0.18 0.49,-0.14 0.25,0.11 0.43,0.32 -0.27,-0.31 -0.25,-0.14 -0.23,-0.01 z m 0.09,0.18 -0.26,0.19 0.40,-0.14 0.13,0 -0.27,-0.04 z m 0.32,0.47 -0.41,0.05 0.05,0.19 0.50,0.25 0.11,-0.08 -0.05,-0.30 -0.19,-0.11 z m -1.13,0.20 0.21,0.54 0.41,0.28 0.52,-0.01 0.44,-0.10 -0.49,0.02 -0.43,0 -0.39,-0.29 -0.27,-0.43 z m 0.33,0.01 0.19,0.28 c 0,0 0.12,0.15 0.20,0.15 0.07,0 0.32,0.03 0.32,0.03 L 39.15,28.32 38.80,28.00 z m -27.95,1.04 c -0.17,0.25 -0.33,0.51 -0.50,0.73 0.16,-0.25 0.32,-0.50 0.50,-0.73 z m 29.68,2.39 c -0.00,0.00 0.45,0.14 0.45,0.14 l 0.37,0.19 0.23,0.19 0.11,0.12 -0.01,-0.11 -0.29,-0.29 -0.41,-0.16 c 0,0 -0.42,-0.08 -0.46,-0.08 -9.6e-4,0 -0.00,-2.84e-4 -0.00,0 z m -1.02,0.13 -0.34,0.03 -0.21,0.05 -0.18,0.26 c 0,0 -0.04,0.42 -0.04,0.51 0,0.08 0.12,0.33 0.12,0.33 l -0.06,-0.22 0.03,-0.46 0.15,-0.33 0.54,-0.18 z m 0.94,0.24 c -0.12,0.00 -0.26,0.01 -0.26,0.01 l -0.36,0.02 c 0,0 -0.32,0.09 -0.36,0.10 l 0.28,-0.02 0.41,-0.02 c 0,0 0.36,0.02 0.41,0.03 0.04,0.00 0.30,0.04 0.30,0.04 0,0 0.40,0.29 0.44,0.33 l 0.21,0.21 c 0,0 -0.07,-0.15 -0.10,-0.20 -0.03,-0.04 -0.27,-0.29 -0.32,-0.34 -0.04,-0.04 -0.44,-0.13 -0.49,-0.16 -0.01,-0.01 -0.08,-0.01 -0.15,-0.01 z m -0.15,0.70 -0.16,0.13 c 0,0 -8.4e-5,0.30 0.08,0.41 0.08,0.11 0.27,0.36 0.39,0.36 0.11,0 0.52,-0.22 0.52,-0.22 0,0 0.08,-0.08 0.08,-0.19 0,-0.11 -0.13,-0.39 -0.13,-0.39 L 40.75,32.57 40.30,32.54 z" />
</svg>
