<?xml version="1.0" encoding="UTF-8" standalone="no"?>
<!-- Created with Inkscape (http://www.inkscape.org/) -->
<svg xmlns:dc="http://purl.org/dc/elements/1.1/" xmlns:cc="http://creativecommons.org/ns#" xmlns:rdf="http://www.w3.org/1999/02/22-rdf-syntax-ns#" xmlns:svg="http://www.w3.org/2000/svg" xmlns="http://www.w3.org/2000/svg" version="1.0" width="100%" height="100%" viewBox="0 0 48 48" id="svg3074">
<defs id="defs8" />
<path d="m 22.07,39.94 c 0,-0.14 0.30,-0.17 1.67,-0.17 1.69,0.00 2.35,-0.08 2.35,-0.30 0,-0.06 -0.20,-0.11 -0.45,-0.10 -0.45,0.01 -1.36,-0.18 -1.76,-0.38 -0.11,-0.05 -0.45,-0.10 -0.75,-0.10 -0.29,0 -0.57,-0.05 -0.61,-0.12 -0.11,-0.19 0.48,-0.13 1.95,0.17 0.73,0.15 1.38,0.26 1.43,0.23 0.04,-0.02 -0.02,-0.22 -0.15,-0.44 -0.25,-0.42 -0.31,-0.81 -0.11,-0.81 0.13,0 0.16,-0.63 0.04,-1.06 -0.06,-0.24 -0.15,-0.27 -0.78,-0.27 -0.50,0 -0.74,-0.05 -0.81,-0.18 -0.05,-0.10 -0.29,-0.28 -0.52,-0.41 -0.56,-0.30 -0.91,-1.17 -0.72,-1.82 0.06,-0.24 0.12,-0.67 0.12,-0.96 8.76e-4,-0.43 -0.05,-0.55 -0.36,-0.78 -0.20,-0.14 -0.36,-0.34 -0.36,-0.43 0,-0.08 -0.05,-0.15 -0.12,-0.15 -0.20,0 -0.13,0.31 0.12,0.54 0.30,0.27 0.25,0.32 -0.36,0.35 -0.43,0.02 -0.52,-0.02 -0.70,-0.31 -0.11,-0.19 -0.30,-0.34 -0.45,-0.34 -0.13,-8.77e-4 -0.42,-0.10 -0.63,-0.23 -0.29,-0.17 -0.37,-0.29 -0.32,-0.49 0.06,-0.24 0.08,-0.24 0.29,-0.05 0.12,0.11 0.31,0.16 0.42,0.12 0.17,-0.06 0.17,-0.09 -0.04,-0.28 -0.13,-0.11 -0.28,-0.33 -0.32,-0.49 -0.08,-0.27 -0.07,-0.27 0.36,-0.09 0.26,0.10 0.59,0.15 0.81,0.11 0.30,-0.06 0.42,-0.01 0.67,0.24 0.16,0.17 0.43,0.32 0.59,0.32 0.16,0 0.30,0.05 0.30,0.12 0,0.06 0.13,0.12 0.29,0.12 0.27,0 0.29,-0.03 0.22,-0.42 -0.13,-0.82 0.37,-3.11 0.69,-3.11 0.15,0 0.15,0.07 -0.01,0.38 -0.26,0.49 -0.47,1.60 -0.43,2.24 0.05,0.73 0.22,1.03 0.59,1.03 0.16,0 0.22,0.05 0.17,0.18 -0.03,0.10 0.03,0.44 0.17,0.76 l 0.24,0.57 -0.07,-0.48 c -0.16,-1.00 -0.26,-1.95 -0.21,-2.01 0.10,-0.11 0.27,0.31 0.28,0.70 0.00,0.48 0.43,1.82 0.67,2.05 0.09,0.09 0.22,0.16 0.29,0.16 0.07,0 0.13,0.10 0.13,0.24 0,0.13 0.04,0.24 0.09,0.25 0.04,0.00 0.20,0.02 0.33,0.05 0.22,0.04 0.24,-0.02 0.24,-0.65 0.00,-0.87 0.15,-1.61 0.32,-1.61 0.08,0 0.09,0.12 0.04,0.33 -0.20,0.85 -0.21,1.56 -0.02,1.72 0.19,0.16 0.35,0.03 1.01,-0.83 0.26,-0.33 0.16,-0.42 -0.13,-0.14 -0.56,0.52 -0.58,0.14 -0.03,-0.57 0.75,-0.98 2.12,-3.02 2.40,-3.56 0.12,-0.24 0.26,-0.73 0.31,-1.08 0.04,-0.34 0.12,-0.59 0.17,-0.53 0.09,0.09 0,0.77 -0.22,1.66 -0.06,0.25 -0.26,0.67 -0.44,0.93 -0.20,0.29 -0.33,0.66 -0.36,1.00 -0.01,0.29 -0.09,0.65 -0.17,0.80 -0.07,0.14 -0.17,0.61 -0.21,1.04 -0.07,0.76 0.06,1.19 0.77,2.53 0.02,0.04 -0.01,0.11 -0.07,0.15 -0.06,0.04 -0.30,-0.29 -0.52,-0.75 -0.35,-0.73 -0.39,-0.93 -0.36,-1.71 0.01,-0.48 0.00,-0.88 -0.02,-0.88 -0.03,0 -0.38,0.66 -0.79,1.48 -0.59,1.19 -0.73,1.60 -0.73,2.06 0,0.32 0.04,0.60 0.09,0.63 0.05,0.02 0.31,0.02 0.59,-0.00 0.49,-0.05 0.50,-0.06 0.46,-0.49 -0.01,-0.24 -0.09,-0.63 -0.16,-0.87 -0.17,-0.57 -0.16,-1.09 0.02,-1.09 0.09,8.78e-4 0.15,0.21 0.16,0.61 0.00,0.48 0.07,0.68 0.33,0.95 0.17,0.18 0.32,0.39 0.32,0.47 0,0.16 0.62,0.24 1.31,0.15 l 0.52,-0.06 -0.33,-0.47 c -0.31,-0.44 -0.34,-0.56 -0.38,-1.93 -0.06,-2.04 0.10,-3.19 0.43,-2.98 0.07,0.04 0.06,0.32 -0.00,0.76 -0.08,0.49 -0.08,0.92 0.01,1.51 0.17,0.99 0.72,2.30 1.02,2.39 0.11,0.03 0.31,0.19 0.44,0.35 0.12,0.16 0.37,0.32 0.56,0.37 l 0.33,0.08 -0.19,-0.37 C 32.90,35.26 32.76,35.06 32.68,35.01 32.61,34.97 32.39,34.71 32.20,34.44 l -0.35,-0.49 0,-2.37 c 0,-1.84 0.03,-2.36 0.15,-2.31 0.10,0.03 0.14,0.35 0.11,1.14 -0.03,1.17 0.27,3.15 0.54,3.47 0.08,0.10 0.16,0.22 0.16,0.27 0,0.24 1.18,1.42 1.43,1.42 0.21,0 1.01,-0.46 1.00,-0.59 -8.77e-4,-0.04 -0.19,-0.20 -0.43,-0.36 -0.42,-0.27 -0.61,-0.60 -0.75,-1.27 -0.04,-0.20 -0.01,-0.33 0.07,-0.33 0.07,0 0.13,0.13 0.13,0.29 0,0.34 0.69,1.17 0.98,1.17 0.11,0 0.23,-0.11 0.27,-0.24 0.04,-0.15 0.16,-0.24 0.35,-0.24 0.42,0 0.64,-0.22 1.01,-1.00 0.42,-0.92 0.60,-0.78 0.24,0.18 -0.25,0.68 -0.34,0.78 -0.84,1.03 -0.31,0.15 -0.56,0.35 -0.56,0.46 0,0.20 0.01,0.22 0.64,0.97 0.78,0.93 0.94,1.19 0.94,1.53 0,0.18 0.05,0.37 0.12,0.41 0.06,0.04 0.12,0.20 0.12,0.37 0,0.16 0.06,0.29 0.14,0.29 0.07,0 0.25,0.09 0.38,0.21 0.22,0.20 0.23,0.20 0.16,-0.02 -0.30,-1.03 -0.16,-1.27 0.23,-0.39 0.21,0.46 0.27,0.51 0.66,0.51 0.33,0 0.43,-0.05 0.44,-0.24 0.13,-1.55 0.20,-2.09 0.41,-3.08 0.13,-0.63 0.23,-1.16 0.23,-1.18 0,-0.01 0.13,-0.18 0.30,-0.38 0.16,-0.19 0.30,-0.42 0.30,-0.50 0,-0.08 0.05,-0.15 0.11,-0.15 0.06,0 0.25,-0.25 0.43,-0.57 0.37,-0.66 0.33,-1.13 -0.12,-1.53 -0.31,-0.27 -0.39,-0.79 -0.14,-1.03 0.21,-0.21 -0.19,-0.61 -0.67,-0.66 -0.33,-0.03 -0.37,-0.07 -0.35,-0.35 0.04,-0.44 -0.29,-0.70 -1.00,-0.74 -0.33,-0.02 -0.60,-0.09 -0.58,-0.16 0.03,-0.24 -0.24,-0.42 -0.63,-0.42 -0.56,0 -0.61,-0.17 -0.14,-0.50 0.21,-0.15 0.41,-0.29 0.44,-0.31 0.02,-0.02 -0.04,-0.17 -0.16,-0.35 -0.11,-0.17 -0.17,-0.34 -0.14,-0.38 0.03,-0.03 0.01,-0.16 -0.05,-0.29 -0.10,-0.18 -0.21,-0.21 -0.63,-0.15 -0.66,0.09 -1.55,0.51 -1.64,0.76 -0.03,0.10 -0.32,0.45 -0.63,0.77 -0.55,0.57 -0.55,0.59 -0.62,1.57 -0.04,0.66 -0.11,1.01 -0.22,1.04 -0.12,0.04 -0.15,-0.12 -0.14,-0.66 0.00,-0.39 -0.01,-0.82 -0.06,-0.96 -0.04,-0.15 0.00,-0.32 0.14,-0.45 0.94,-0.89 1.13,-1.09 1.13,-1.18 0,-0.16 0.74,-0.75 1.19,-0.94 0.40,-0.16 0.49,-0.33 0.27,-0.46 -0.13,-0.08 -1.74,0.82 -2.19,1.24 -0.16,0.15 -0.37,0.28 -0.45,0.28 -0.08,0 -0.34,0.17 -0.58,0.38 -0.23,0.21 -0.46,0.35 -0.49,0.32 -0.09,-0.09 0.07,-0.46 0.21,-0.46 0.09,0 1.19,-0.71 1.74,-1.13 0.43,-0.33 1.01,-0.71 1.25,-0.81 0.15,-0.06 0.27,-0.18 0.27,-0.26 0,-0.10 -0.04,-0.10 -0.17,0.00 -0.13,0.11 -0.20,0.09 -0.30,-0.10 -0.07,-0.13 -0.12,-0.29 -0.11,-0.34 0.05,-0.33 -0.04,-0.52 -0.25,-0.52 -0.13,0 -0.24,-0.07 -0.24,-0.16 0,-0.21 -0.32,-0.30 -0.84,-0.22 -0.41,0.06 -1.09,0.65 -1.76,1.53 -0.19,0.25 -0.37,0.42 -0.41,0.39 -0.14,-0.14 0.24,-0.86 1.51,-2.74 0.01,-0.02 0.05,-0.02 0.08,0.00 0.02,0.02 -0.10,0.31 -0.30,0.63 -0.38,0.61 -0.33,0.73 0.14,0.32 0.16,-0.14 0.44,-0.34 0.63,-0.45 0.39,-0.23 0.39,-0.51 -0.00,-0.69 -0.15,-0.06 -0.27,-0.17 -0.27,-0.23 0,-0.06 -0.13,-0.29 -0.30,-0.50 -0.16,-0.21 -0.40,-0.66 -0.53,-0.99 -0.75,-1.91 -1.52,-2.97 -2.54,-3.49 -0.45,-0.23 -1.77,-0.56 -2.26,-0.56 -0.36,-0.00 -1.19,0.64 -1.03,0.80 0.05,0.05 0.14,0.01 0.20,-0.07 0.05,-0.09 0.14,-0.13 0.19,-0.08 0.05,0.04 -0.08,0.27 -0.29,0.49 -0.21,0.22 -0.39,0.48 -0.39,0.57 -0.00,0.27 -0.47,1.06 -0.47,0.82 -0.00,-0.13 -0.07,-0.18 -0.18,-0.13 -0.10,0.03 -0.18,0.01 -0.18,-0.04 0,-0.17 0.71,-1.49 1.05,-1.95 l 0.29,-0.39 -0.32,-0.12 c -0.17,-0.06 -0.34,-0.12 -0.38,-0.12 -0.07,0 -2.58,-1.18 -2.85,-1.34 -2.21,-1.33 -2.80,-1.76 -2.80,-2.02 0,-0.09 -0.10,-0.17 -0.23,-0.17 -0.13,0 -0.66,-0.13 -1.19,-0.29 -0.52,-0.16 -1.30,-0.33 -1.74,-0.37 -0.43,-0.04 -1.10,-0.16 -1.49,-0.25 -0.38,-0.09 -0.82,-0.14 -0.97,-0.11 -0.15,0.03 -0.44,-0.00 -0.64,-0.09 -0.33,-0.14 -0.41,-0.12 -1.06,0.26 -0.38,0.23 -0.70,0.45 -0.70,0.50 0,0.14 -1.51,1.31 -1.83,1.41 -0.73,0.23 -1.73,1.78 -2.17,3.35 -0.06,0.23 -0.23,0.78 -0.37,1.22 -0.44,1.38 -0.40,2.50 0.18,4.63 0.33,1.22 0.45,1.55 0.74,2.10 0.14,0.27 0.14,0.41 0.02,0.74 -0.12,0.35 -0.09,0.56 0.31,1.85 0.47,1.51 0.86,2.28 1.28,2.50 0.15,0.08 0.24,0.25 0.24,0.48 0,0.19 0.04,0.48 0.10,0.63 0.20,0.53 0.28,1.39 0.31,3.45 0.01,1.14 0.07,2.16 0.11,2.27 0.06,0.14 0.22,0.19 0.57,0.18 l 0.49,-0.01 -0.05,-0.60 c -0.03,-0.39 -0.13,-0.65 -0.28,-0.76 -0.18,-0.13 -0.19,-0.18 -0.05,-0.27 0.13,-0.08 0.15,-0.33 0.09,-1.18 -0.04,-0.59 -0.03,-1.44 0.01,-1.88 0.08,-0.72 0.04,-1.03 -0.18,-1.69 -0.05,-0.14 -0.08,-0.14 -0.14,0.04 -0.07,0.20 -0.11,0.19 -0.44,-0.15 -0.33,-0.35 -0.73,-1.21 -0.61,-1.33 0.02,-0.02 0.12,-0.00 0.21,0.04 0.08,0.05 0.25,0.08 0.36,0.06 0.11,-0.01 0.28,0.08 0.38,0.22 0.15,0.22 0.21,0.24 0.44,0.09 0.19,-0.12 0.24,-0.23 0.19,-0.46 -0.03,-0.16 -0.10,-0.52 -0.14,-0.79 -0.04,-0.26 -0.11,-0.54 -0.17,-0.61 -0.05,-0.06 -0.21,-0.42 -0.35,-0.78 -0.41,-1.05 -0.72,-1.69 -0.85,-1.78 -0.15,-0.09 -0.15,-0.30 8.77e-4,-0.30 0.06,0 0.35,0.48 0.63,1.06 0.28,0.58 0.55,1.12 0.61,1.19 0.05,0.06 0.17,0.22 0.26,0.36 0.14,0.20 0.19,0.21 0.36,0.07 0.16,-0.13 0.23,-0.13 0.41,0.00 0.11,0.09 0.25,0.23 0.31,0.32 0.05,0.08 0.15,0.15 0.22,0.15 0.07,0 0.03,-0.15 -0.09,-0.33 -0.38,-0.57 -0.72,-1.29 -0.88,-1.81 -0.09,-0.34 -0.39,-0.75 -0.91,-1.28 -0.42,-0.42 -0.89,-1.04 -1.05,-1.36 -0.15,-0.32 -0.39,-0.69 -0.54,-0.83 -0.24,-0.22 -0.25,-0.35 -0.23,-1.77 0.01,-0.91 0.07,-1.58 0.15,-1.66 0.09,-0.09 0.11,0.02 0.06,0.43 -0.04,0.33 -0.01,0.59 0.05,0.64 0.06,0.04 0.12,0.19 0.12,0.34 8.76e-4,0.14 0.08,0.51 0.19,0.81 0.25,0.73 1.26,2.65 1.49,2.84 0.15,0.13 0.17,0.07 0.10,-0.39 -0.04,-0.32 -0.16,-0.61 -0.31,-0.73 -0.30,-0.23 -0.74,-1.21 -0.66,-1.44 0.08,-0.21 0.63,0.65 0.63,0.99 8.77e-4,0.12 0.04,0.19 0.09,0.16 0.05,-0.03 0.08,-0.51 0.06,-1.07 -0.03,-1.16 0.20,-2.68 0.43,-2.76 0.10,-0.03 0.13,0.02 0.09,0.17 -0.10,0.36 -0.20,1.09 -0.13,0.93 0.03,-0.08 0.15,-0.15 0.25,-0.15 0.15,0 0.17,0.08 0.08,0.51 -0.14,0.73 -0.12,2.28 0.04,3.61 0.16,1.20 0.63,2.50 1.22,3.37 0.49,0.73 1.58,1.80 1.72,1.71 0.07,-0.04 0.10,-0.00 0.06,0.08 -0.03,0.09 0.10,0.29 0.33,0.46 0.21,0.16 0.48,0.38 0.59,0.48 0.10,0.10 0.25,0.17 0.33,0.14 0.07,-0.02 0.16,0.01 0.21,0.08 0.04,0.07 0.17,0.12 0.29,0.12 0.11,0 0.39,0.22 0.60,0.48 0.21,0.26 0.34,0.48 0.27,0.48 -0.22,0 -1.05,-0.39 -1.42,-0.68 -0.67,-0.51 -0.77,-0.42 -0.71,0.61 0.05,0.97 0.51,2.18 1.28,3.39 0.24,0.38 0.34,0.67 0.30,0.85 -0.06,0.25 -0.02,0.27 0.65,0.29 0.39,0.01 0.81,0.07 0.94,0.14 0.27,0.15 -3.43,0.05 -4.19,-0.11 -0.28,-0.06 -0.60,-0.07 -0.71,-0.03 -0.11,0.04 -0.23,0.02 -0.28,-0.04 -0.11,-0.16 -1.45,-0.31 -1.54,-0.16 -0.04,0.06 0.01,0.43 0.12,0.82 0.19,0.68 0.57,1.20 0.80,1.06 0.13,-0.08 1.21,-0.28 1.94,-0.36 0.49,-0.05 0.52,-0.04 0.32,0.11 -0.12,0.09 -0.32,0.14 -0.45,0.11 -0.13,-0.03 -0.32,0.00 -0.42,0.08 -0.09,0.08 -0.29,0.12 -0.42,0.08 -0.13,-0.03 -0.27,-0.01 -0.31,0.04 -0.03,0.06 -0.34,0.11 -0.67,0.11 -0.33,0 -0.60,0.05 -0.60,0.12 0,0.08 -0.48,0.10 -1.43,0.05 -0.78,-0.03 -1.66,-0.06 -1.95,-0.05 -0.32,0.00 -0.51,-0.04 -0.51,-0.13 0,-0.10 0.24,-0.12 0.85,-0.08 l 0.85,0.06 0.01,-0.68 c 0.03,-1.24 0.02,-1.40 -0.18,-3.29 -0.11,-1.02 -0.25,-1.96 -0.31,-2.07 C 11.03,31.57 10.83,31.09 10.65,30.62 10.46,30.15 10.26,29.70 10.20,29.62 9.95,29.29 9.20,26.67 9.18,26.04 9.16,25.67 9.06,25.15 8.96,24.90 8.85,24.64 8.76,24.39 8.76,24.35 c 0,-0.04 -0.11,-0.29 -0.26,-0.56 -0.28,-0.53 -0.73,-2.25 -0.58,-2.25 0.05,0 0.06,-0.56 0.03,-1.25 -0.05,-1.10 -0.02,-1.36 0.24,-2.16 0.26,-0.78 1.18,-2.80 1.73,-3.78 0.25,-0.45 1.51,-1.56 2.13,-1.89 0.52,-0.27 0.68,-0.38 1.46,-1.00 0.55,-0.44 3.55,-0.84 3.96,-0.52 0.06,0.05 0.61,0.24 1.22,0.42 1.94,0.58 2.86,0.97 3.82,1.64 0.95,0.66 1.89,1.20 3.55,2.04 1.61,0.82 2.10,0.98 3.60,1.21 2.16,0.32 2.56,0.68 4.16,3.70 0.22,0.42 0.47,0.85 0.54,0.93 0.07,0.08 0.11,0.22 0.09,0.31 -0.06,0.32 0.38,0.92 0.98,1.33 0.52,0.35 0.61,0.47 0.61,0.81 0.00,0.30 0.07,0.42 0.30,0.51 0.34,0.12 1.74,1.06 1.84,1.23 0.03,0.06 0.09,0.22 0.11,0.37 0.02,0.14 0.13,0.35 0.23,0.46 0.10,0.11 0.18,0.25 0.18,0.31 -0.00,0.06 0.14,0.42 0.33,0.80 0.26,0.53 0.45,0.74 0.84,0.94 0.74,0.38 1.71,1.41 1.82,1.96 0.03,0.16 0.15,0.60 0.25,0.97 0.33,1.18 0.33,1.46 -0.03,2.12 -0.18,0.32 -0.48,0.68 -0.66,0.78 -0.22,0.12 -0.39,0.39 -0.53,0.80 -0.18,0.55 -0.47,2.16 -0.41,2.21 0.01,0.01 0.46,0.12 1.00,0.25 0.66,0.15 0.86,0.24 0.64,0.26 -0.18,0.02 -0.43,-0.02 -0.57,-0.09 -0.13,-0.07 -0.43,-0.12 -0.67,-0.12 -0.40,0 -0.43,0.02 -0.50,0.45 -0.04,0.25 -0.15,0.63 -0.25,0.85 -0.18,0.41 -0.27,0.44 -1.16,0.40 -0.24,-0.01 -0.48,0.03 -0.52,0.11 -0.04,0.07 -0.02,0.12 0.04,0.12 0.07,0 0.12,0.05 0.12,0.12 0,0.16 -0.81,0.15 -0.92,-0.01 -0.04,-0.07 -0.24,-0.10 -0.46,-0.06 -0.21,0.03 -0.54,0.02 -0.74,-0.03 l -0.36,-0.11 0.38,-0.01 c 0.54,-0.01 0.80,-0.13 0.66,-0.29 -0.06,-0.07 -0.19,-0.45 -0.29,-0.85 -0.10,-0.39 -0.21,-0.74 -0.25,-0.78 -0.08,-0.08 -1.74,-0.05 -2.04,0.03 -0.12,0.03 -0.22,0.01 -0.22,-0.05 0,-0.11 1.35,-0.34 1.67,-0.27 0.20,0.03 0.19,-0.05 -0.04,-0.40 -0.18,-0.28 -0.24,-0.29 -1.10,-0.24 -0.64,0.03 -1.01,0.12 -1.25,0.29 -0.30,0.21 -0.47,0.23 -1.79,0.17 -1.96,-0.09 -2.16,-0.09 -3.28,0.03 l -0.97,0.10 0.04,0.60 c 0.04,0.58 0.37,1.40 0.66,1.63 0.24,0.19 0.83,0.28 2.64,0.44 0.30,0.02 0.94,0.08 1.43,0.13 0.59,0.06 0.88,0.04 0.88,-0.03 0,-0.07 -0.12,-0.14 -0.27,-0.17 -0.15,-0.02 0.23,-0.08 0.85,-0.14 0.62,-0.05 1.12,-0.15 1.12,-0.21 0,-0.06 0.20,-0.09 0.45,-0.07 0.42,0.03 0.45,0.06 0.41,0.38 l -0.04,0.35 0.80,-0.05 c 0.44,-0.02 0.80,-0.00 0.80,0.04 0,0.05 -0.06,0.10 -0.15,0.11 -0.62,0.07 -0.97,0.07 -1.55,-0.03 -0.43,-0.07 -1.10,-0.07 -1.88,-0.00 -0.79,0.07 -1.33,0.07 -1.56,-0.00 -0.25,-0.08 -0.43,-0.07 -0.64,0.03 -0.22,0.11 -0.33,0.12 -0.46,0.01 C 30.84,39.55 29.76,39.40 29.76,39.56 c 0,0.06 -0.28,0.12 -0.63,0.14 -0.34,0.01 -0.72,0.08 -0.84,0.14 -0.31,0.16 -1.74,0.14 -1.91,-0.03 -0.11,-0.11 -0.23,-0.11 -0.54,-0.00 -0.21,0.07 -1.15,0.17 -2.07,0.22 -1.41,0.07 -1.67,0.05 -1.67,-0.09 z m 12.60,-0.57 c 0.09,-0.09 -0.03,-0.11 -0.52,-0.06 -0.88,0.09 -1.12,0.33 -0.25,0.25 0.35,-0.03 0.70,-0.11 0.78,-0.19 z m -6.98,-0.06 c 0,-0.09 -0.11,-0.30 -0.24,-0.48 -0.32,-0.41 -0.55,-1.54 -0.59,-2.92 -0.01,-0.49 -0.06,-0.60 -0.32,-0.72 -0.45,-0.20 -0.53,-0.02 -0.43,1.02 0.05,0.51 0.04,1.22 -0.00,1.57 -0.05,0.37 -0.05,0.71 0.01,0.83 0.27,0.46 0.49,0.65 0.87,0.74 0.60,0.14 0.70,0.13 0.70,-0.04 z M 13.56,37.51 c -0.08,-0.08 -0.26,-0.09 -0.54,-0.01 l -0.41,0.11 0.54,0.01 c 0.38,0.00 0.50,-0.02 0.41,-0.11 z m 10.94,-1.61 c 0,-0.08 -0.11,-0.48 -0.25,-0.88 -0.14,-0.39 -0.26,-0.91 -0.26,-1.15 -0.00,-0.46 -0.12,-0.67 -0.49,-0.87 -0.23,-0.12 -0.24,-0.09 -0.17,1.04 0.05,1.02 0.10,1.23 0.39,1.60 0.31,0.41 0.79,0.57 0.79,0.26 z m 0.97,-0.52 c 0,-0.70 -0.31,-1.37 -0.70,-1.52 -0.16,-0.06 -0.32,-0.09 -0.34,-0.07 -0.09,0.09 0.36,1.51 0.58,1.82 0.34,0.48 0.46,0.42 0.46,-0.22 z m -7.90,0.35 c -0.08,-0.03 -0.22,-0.03 -0.30,0 -0.08,0.03 -0.01,0.06 0.15,0.06 0.16,0 0.23,-0.02 0.15,-0.06 z m 14.62,-0.01 c 0,-0.05 -0.21,-0.27 -0.48,-0.49 -0.26,-0.22 -0.49,-0.49 -0.49,-0.60 -0.01,-0.29 -0.57,-1.45 -0.60,-1.24 -0.07,0.64 0.05,1.19 0.43,1.79 0.34,0.54 0.47,0.64 0.78,0.64 0.20,0 0.36,-0.04 0.36,-0.09 z M 16.29,35.41 c -0.08,-0.15 -0.23,-0.41 -0.35,-0.58 -0.11,-0.16 -0.23,-0.60 -0.28,-0.97 -0.04,-0.37 -0.14,-0.86 -0.23,-1.09 -0.08,-0.23 -0.25,-0.72 -0.37,-1.09 -0.30,-0.92 -0.50,-1.20 -0.79,-1.13 -0.18,0.04 -0.28,-0.04 -0.43,-0.40 -0.19,-0.47 -0.19,-0.47 -0.32,-0.16 -0.16,0.41 -0.19,5.23 -0.03,5.36 0.10,0.08 1.73,0.30 2.65,0.35 0.30,0.01 0.31,-0.00 0.18,-0.25 z m 1.74,-0.33 c 0,-0.06 -0.22,-0.43 -0.48,-0.81 -0.26,-0.38 -0.48,-0.76 -0.48,-0.85 0,-0.46 -0.74,-2.30 -1.05,-2.61 -0.19,-0.18 -0.44,-0.46 -0.55,-0.62 l -0.20,-0.28 -0.00,0.42 c -0.00,0.23 0.16,0.89 0.37,1.46 0.20,0.57 0.42,1.40 0.47,1.85 0.06,0.52 0.19,0.94 0.36,1.19 0.24,0.34 0.32,0.37 0.93,0.37 0.36,0 0.66,-0.05 0.66,-0.11 z m 6.04,-2.43 c -0.04,-0.07 -0.13,-0.13 -0.21,-0.13 -0.08,0 -0.07,0.07 0.02,0.18 0.16,0.20 0.31,0.15 0.18,-0.05 z m -9.52,-3.90 c -0.04,-0.07 -0.17,-0.12 -0.27,-0.12 -0.16,0 -0.16,0.02 0.03,0.17 0.25,0.18 0.37,0.16 0.24,-0.04 z m 23.98,-1.59 c 0,-0.06 -0.08,-0.12 -0.18,-0.12 -0.09,0 -0.18,0.05 -0.18,0.12 0,0.06 0.08,0.12 0.18,0.12 0.10,0 0.18,-0.05 0.18,-0.12 z m -1.28,-2.19 c -0.04,-0.06 -0.12,-0.12 -0.19,-0.12 -0.06,0 -0.08,0.05 -0.04,0.12 0.04,0.06 0.13,0.12 0.19,0.12 0.06,0 0.08,-0.05 0.04,-0.12 z M 11.80,23.08 c -0.21,-0.42 -0.41,-0.69 -0.44,-0.60 -0.02,0.08 0.08,0.37 0.26,0.63 0.17,0.26 0.31,0.53 0.31,0.60 0,0.06 0.05,0.12 0.12,0.12 0.06,0 -0.05,-0.34 -0.26,-0.76 z m -0.77,-1.67 c -0.04,-0.06 -0.09,-0.12 -0.12,-0.12 -0.02,0 -0.05,0.05 -0.05,0.12 0,0.06 0.05,0.12 0.12,0.12 0.07,0 0.09,-0.05 0.05,-0.12 z m 15.78,-3.23 c -0.03,-0.03 -0.10,0.03 -0.15,0.15 -0.06,0.17 -0.05,0.18 0.06,0.06 0.08,-0.08 0.12,-0.18 0.08,-0.21 z M 41.73,39.72 c 0,-0.06 0.04,-0.12 0.10,-0.12 0.05,0 0.29,-0.03 0.51,-0.06 0.28,-0.04 0.35,-0.03 0.22,0.04 -0.30,0.18 -0.85,0.28 -0.85,0.14 z m 1.95,-0.10 c 0,-0.14 0.68,-0.41 0.87,-0.34 0.08,0.03 -0.05,0.14 -0.31,0.25 -0.54,0.23 -0.56,0.23 -0.56,0.09 z m 1.89,-0.01 c -0.21,-0.09 -0.20,-0.10 0.09,-0.11 0.18,-0.00 0.33,0.04 0.33,0.11 0,0.14 -0.09,0.14 -0.42,0 z m -6.16,-0.11 c 0,-0.05 0.15,-0.14 0.33,-0.19 0.48,-0.13 1.49,-0.17 1.49,-0.05 0,0.14 -0.51,0.24 -0.82,0.16 -0.14,-0.03 -0.43,-0.01 -0.63,0.05 -0.20,0.07 -0.37,0.08 -0.37,0.02 z m -18.91,-0.60 c -0.11,-0.07 0.16,-0.12 0.82,-0.15 0.54,-0.02 0.99,8.79e-4 0.99,0.05 0,0.04 -0.12,0.09 -0.27,0.10 -0.15,0.00 -0.52,0.03 -0.82,0.05 -0.30,0.02 -0.62,-8.77e-4 -0.72,-0.06 z M 8.09,38.65 c -0.44,-0.10 -0.49,-0.27 -0.08,-0.27 0.26,0 0.39,0.05 0.39,0.18 0,0.10 -0.01,0.17 -0.03,0.16 -0.01,-0.00 -0.14,-0.04 -0.27,-0.07 z m 1.25,-0.10 c 0.11,-0.20 0.27,-0.23 1.47,-0.23 1.62,-0.00 1.63,0.14 0.01,0.22 -0.63,0.02 -1.26,0.09 -1.39,0.14 -0.19,0.08 -0.21,0.06 -0.09,-0.13 z M 45.09,38.23 c -0.33,-0.13 -0.71,-0.30 -0.85,-0.37 -0.13,-0.07 -0.37,-0.17 -0.54,-0.23 -0.22,-0.07 -0.17,-0.08 0.17,-0.03 0.26,0.03 0.87,0.25 1.34,0.47 0.93,0.44 0.85,0.55 -0.12,0.15 z m -2.28,-0.79 c 0.08,-0.03 0.22,-0.03 0.30,0 0.08,0.03 0.01,0.06 -0.15,0.06 -0.16,0 -0.23,-0.02 -0.15,-0.06 z M 10.46,36.74 C 10.25,36.53 3.61,36.38 2.78,36.56 2.53,36.61 2.30,36.60 2.23,36.54 c -0.07,-0.07 0.01,-0.11 0.24,-0.11 0.19,0 0.48,-0.08 0.63,-0.19 0.24,-0.17 0.52,-0.17 2.92,-0.00 1.45,0.10 2.98,0.17 3.38,0.17 1.47,-0.03 1.89,0.01 1.89,0.20 0,0.12 -0.12,0.18 -0.40,0.18 -0.22,0 -0.42,-0.02 -0.45,-0.05 z m 10.63,-0.53 c 0,-0.14 0.29,-0.27 0.62,-0.27 0.29,0 0.31,0.18 0.02,0.20 -0.11,0.00 -0.31,0.05 -0.42,0.09 -0.12,0.05 -0.21,0.03 -0.21,-0.02 z M 3.43,35.50 c 0.09,-0.25 -0.41,-0.44 -1.26,-0.45 -0.65,-0.00 -0.66,-0.00 -0.18,-0.09 0.26,-0.05 0.53,-0.06 0.58,-0.03 0.05,0.03 0.59,0.10 1.20,0.16 0.61,0.05 1.14,0.16 1.19,0.23 0.11,0.18 2.13,0.04 2.79,-0.18 0.09,-0.03 0.23,-0.00 0.30,0.05 0.07,0.06 0.67,0.14 1.33,0.17 1.91,0.08 1.50,0.18 -0.67,0.16 -1.09,-0.01 -2.75,0.02 -3.68,0.07 -1.50,0.08 -1.68,0.07 -1.61,-0.09 z m 0.80,-0.10 c 0,-0.02 -0.10,-0.07 -0.24,-0.11 C 3.86,35.25 3.75,35.27 3.75,35.33 c 0,0.06 0.11,0.11 0.24,0.11 0.13,0 0.24,-0.02 0.24,-0.04 z M 1.10,35.00 c 0.04,-0.04 0.14,-0.04 0.23,-0.00 0.09,0.03 0.06,0.06 -0.07,0.07 -0.12,0.00 -0.20,-0.02 -0.16,-0.06 z M 38.43,34.55 c -0.49,-0.25 -0.34,-1.17 0.19,-1.17 0.07,-8.77e-4 0.23,0.19 0.36,0.42 0.17,0.32 0.19,0.48 0.10,0.63 -0.17,0.27 -0.30,0.30 -0.66,0.11 z m 0.27,-0.57 c -0.03,-0.13 -0.11,-0.24 -0.17,-0.24 -0.12,0 -0.14,0.40 -0.02,0.52 0.14,0.14 0.26,-0.03 0.20,-0.28 z M 25.93,33.30 c -0.20,-0.53 0.07,-2.24 0.36,-2.24 0.20,0 0.22,0.14 0.03,0.33 -0.19,0.19 -0.30,1.74 -0.12,1.74 0.07,0 0.13,0.08 0.13,0.18 0,0.24 -0.32,0.23 -0.41,-0.00 z m 14.08,-0.52 c 0,-0.14 0.46,-0.26 0.68,-0.17 0.31,0.12 0.17,0.28 -0.25,0.28 -0.23,0 -0.42,-0.04 -0.42,-0.10 z m -0.64,-0.39 c -0.31,-0.18 -0.25,-0.43 0.13,-0.57 0.27,-0.09 0.40,-0.07 0.63,0.09 l 0.28,0.21 -0.38,0.19 c -0.44,0.22 -0.39,0.22 -0.66,0.06 z m -2.36,-0.49 c -0.12,-0.15 -0.48,-0.55 -0.80,-0.89 -0.61,-0.63 -0.68,-0.84 -0.41,-1.23 0.09,-0.13 0.20,-0.40 0.25,-0.60 0.04,-0.19 0.23,-0.65 0.40,-1.00 0.31,-0.63 0.52,-0.82 0.52,-0.46 0,0.10 -0.04,0.18 -0.09,0.18 -0.27,0 -0.75,1.45 -0.76,2.27 0,0.44 0.03,0.50 0.27,0.50 0.50,0.00 1.68,0.52 1.88,0.83 0.24,0.37 0.11,0.52 -0.54,0.61 -0.41,0.05 -0.52,0.02 -0.71,-0.21 z m 0.56,-0.35 c 0,-0.06 -0.05,-0.12 -0.12,-0.12 -0.07,0 -0.09,0.05 -0.05,0.12 0.04,0.06 0.09,0.12 0.12,0.12 0.02,0 0.05,-0.05 0.05,-0.12 z M 20.57,29.92 c -0.11,-0.21 -0.24,-0.57 -0.28,-0.79 -0.04,-0.22 -0.12,-0.42 -0.18,-0.46 -0.13,-0.08 -0.11,-1.11 0.02,-1.51 0.08,-0.23 0.09,-0.19 0.04,0.20 -0.05,0.49 0.41,2.21 0.70,2.58 0.07,0.09 0.08,0.20 0.01,0.27 -0.07,0.07 -0.19,-0.03 -0.32,-0.27 z m -3.64,-1.64 c -0.22,-0.38 -0.44,-0.83 -0.49,-1.00 -0.37,-1.26 -0.59,-2.22 -0.53,-2.28 0.12,-0.12 0.18,0.02 0.25,0.61 0.06,0.57 0.34,1.48 0.52,1.72 0.05,0.07 0.17,0.32 0.26,0.56 0.08,0.23 0.26,0.54 0.39,0.68 0.13,0.15 0.18,0.29 0.11,0.33 -0.06,0.04 -0.30,-0.24 -0.52,-0.62 z m -0.83,0.27 c -0.73,-0.88 -1.66,-3.72 -1.22,-3.72 0.06,0 0.12,0.21 0.12,0.47 0,0.25 0.06,0.65 0.13,0.88 0.17,0.53 0.72,1.73 0.82,1.81 0.04,0.03 0.17,0.21 0.29,0.39 0.22,0.35 0.10,0.46 -0.15,0.15 z m 2.68,-0.15 c 0,-0.20 0.05,-0.41 0.12,-0.45 0.07,-0.04 0.09,0.07 0.04,0.32 -0.10,0.54 -0.16,0.58 -0.16,0.12 z M 11.97,20.55 c 0,-0.30 0.02,-0.42 0.05,-0.27 0.02,0.15 0.02,0.39 0,0.54 -0.02,0.15 -0.05,0.02 -0.05,-0.27 z m 4.31,-2.03 c -0.26,-0.68 -0.15,-2.60 0.14,-2.60 0.10,0 0.10,2.64 0.00,2.74 -0.03,0.03 -0.10,-0.02 -0.15,-0.13 z m -0.75,-2.01 c 0.05,-0.15 0.15,-0.52 0.23,-0.80 0.07,-0.28 0.31,-0.72 0.52,-0.97 0.20,-0.25 0.41,-0.57 0.45,-0.71 0.08,-0.26 0.71,-0.67 1.03,-0.66 0.17,0.00 0.16,0.03 -0.04,0.18 -0.60,0.44 -1.28,1.10 -1.28,1.24 0,0.08 -0.05,0.15 -0.12,0.15 -0.06,0 -0.12,0.15 -0.12,0.34 0,0.18 -0.06,0.40 -0.13,0.47 -0.07,0.07 -0.17,0.31 -0.21,0.53 -0.04,0.22 -0.15,0.42 -0.24,0.45 -0.12,0.04 -0.14,-0.01 -0.07,-0.23 z m -2.61,-1.50 c 0,-0.45 0.32,-1.12 0.59,-1.23 0.12,-0.04 0.10,0.02 -0.04,0.26 -0.20,0.31 -0.25,0.49 -0.28,1.10 -0.02,0.44 -0.25,0.31 -0.25,-0.14 z m 4.15,0.19 c 0,-0.20 1.25,-1.24 1.49,-1.24 0.22,0 0.04,0.22 -0.62,0.76 -0.72,0.58 -0.86,0.66 -0.86,0.48 z m -2.63,-1.43 c 0.04,-0.10 0.07,-0.26 0.07,-0.35 0,-0.09 0.17,-0.28 0.38,-0.44 0.35,-0.25 0.38,-0.25 0.29,-0.03 -0.13,0.35 -0.61,1.03 -0.73,1.03 -0.05,0 -0.07,-0.08 -0.03,-0.19 z" />
</svg>
