<?xml version="1.0" encoding="UTF-8" standalone="no"?>
<!-- Created with Inkscape (http://www.inkscape.org/) -->
<svg xmlns:dc="http://purl.org/dc/elements/1.1/" xmlns:cc="http://creativecommons.org/ns#" xmlns:rdf="http://www.w3.org/1999/02/22-rdf-syntax-ns#" xmlns:svg="http://www.w3.org/2000/svg" xmlns="http://www.w3.org/2000/svg" version="1.1" width="100%" height="100%" viewBox="0 0 48 48" id="svg2" xml:space="preserve">
<defs id="defs4" />
<path d="m 41.73,7.22 c -0.97,0.01 -1.84,0.36 -2.57,0.89 -0.84,0.60 -1.53,1.44 -2.08,2.31 -1.04,1.65 -1.59,3.37 -1.72,3.81 -2.93,0.36 -6.48,0.97 -6.48,0.97 l -0.00,0 -0.00,0 -4.52,1.09 c -0.08,-0.23 0.00,-0.67 0.15,-1.06 0.15,-0.40 0.35,-0.74 0.35,-0.74 l 0.13,-0.23 -0.27,0 c -1.04,0 -2.02,0.75 -2.74,1.48 -0.64,0.64 -1.06,1.26 -1.15,1.40 -0.07,0.01 -1.81,0.40 -3.87,0.81 -2.10,0.42 -4.48,0.86 -5.55,0.92 -1.69,0.09 -5.65,-0.47 -7.20,-0.70 -0.40,-0.06 -0.63,-0.10 -0.63,-0.10 l -0.02,-0.00 -0.02,0.00 C 2.73,18.23 2.25,18.47 2.01,18.80 l -0.00,-0.00 c 0,0 -0.00,0.02 -0.00,0.02 -0.04,0.05 -0.07,0.11 -0.10,0.18 -0.16,0.40 -0.03,0.86 0.21,1.31 0.25,0.44 0.63,0.88 1.03,1.27 0.77,0.77 1.59,1.36 1.62,1.38 2.00e-4,1.44e-4 0.00,0.00 0.00,0.00 0.20,0.22 0.40,0.44 0.60,0.66 -0.12,0.10 -0.70,0.59 -1.41,1.26 -0.78,0.75 -1.63,1.64 -1.91,2.33 -0.24,0.60 -0.67,1.27 -0.93,1.85 -0.12,0.29 -0.21,0.56 -0.19,0.81 0.01,0.25 0.18,0.48 0.47,0.59 0.11,0.04 0.21,0.08 0.30,0.12 0.16,0.07 0.28,0.13 0.40,0.17 0.11,0.03 0.25,0.05 0.37,-0.01 0.11,-0.06 0.19,-0.17 0.28,-0.33 0.09,-0.15 0.19,-0.36 0.33,-0.65 0.31,-0.65 0.75,-1.70 1.38,-2.65 0.60,-0.92 1.38,-1.74 2.33,-2.04 0.54,0.50 1.12,0.96 1.80,1.38 0.19,0.12 0.40,0.23 0.62,0.35 0.32,0.16 0.67,0.32 1.05,0.48 0.38,0.15 0.79,0.30 1.23,0.43 0.49,0.15 1.03,0.29 1.62,0.41 0.59,0.13 1.23,0.25 1.94,0.35 0.08,0.01 0.17,0.02 0.26,0.03 0.40,0.05 0.80,0.08 1.21,0.08 l 1.22,1.56 c -0.01,0.06 -0.06,0.31 -0.05,0.67 0.00,0.20 0.02,0.41 0.08,0.60 0.06,0.19 0.16,0.37 0.35,0.48 0.23,0.12 0.54,0.49 0.78,0.82 0.23,0.32 0.38,0.58 0.39,0.60 0.01,0.61 0.18,1.02 0.36,1.27 0.16,0.22 0.31,0.31 0.36,0.33 0,0 0.21,0.19 0.43,0.45 0.21,0.25 0.43,0.58 0.45,0.76 0.01,0.10 0.05,0.20 0.12,0.33 0.06,0.13 0.14,0.29 0.23,0.46 0.19,0.35 0.44,0.76 0.68,1.17 0.24,0.40 0.49,0.80 0.67,1.10 0.09,0.14 0.16,0.27 0.21,0.36 0.02,0.04 0.04,0.08 0.05,0.10 0.00,0.01 0.00,0.01 0.00,0.01 0.01,0.07 0.06,0.10 0.09,0.12 0.03,0.02 0.06,0.03 0.10,0.05 0.07,0.03 0.17,0.06 0.27,0.09 0.41,0.11 1.01,0.22 1.01,0.22 l 0.00,0 0.00,0 0.94,0.06 0.02,0.00 0.02,-0.00 c 0.27,-0.09 0.46,-0.21 0.59,-0.33 0.12,-0.12 0.18,-0.26 0.19,-0.38 0.01,-0.23 -0.13,-0.38 -0.15,-0.40 l -0.00,-0.01 -1.53,-1.89 -0.00,-0.01 -1.79,-3.69 c -9.27e-4,-0.00 -0.00,-0.00 -0.00,-0.00 -0.34,-1.59 -0.73,-2.58 -1.05,-3.18 -0.15,-0.30 -0.29,-0.50 -0.39,-0.63 -0.09,-0.11 -0.15,-0.16 -0.15,-0.17 l 0.00,-0.00 -1.40,-1.50 c 3.47,-1.11 6.78,-3.79 9.08,-6.23 0.71,-0.75 1.32,-1.48 1.81,-2.15 0.27,-0.37 0.52,-0.72 0.71,-1.04 0.79,-1.28 2.33,-2.12 3.93,-2.66 2.07,3.20 4.92,4.07 7.27,4.11 2.35,0.03 4.22,-0.74 4.39,-0.81 l 0.01,-0.00 -0.12,-0.28 -0.00,0.00 -0.00,0 c -0.17,0.07 -0.34,0.06 -0.50,0.00 -0.16,-0.05 -0.32,-0.16 -0.46,-0.28 -0.27,-0.24 -0.44,-0.54 -0.44,-0.54 -1.05,-2.80 -3.42,-3.26 -4.29,-3.35 0.57,-0.48 0.94,-1.28 1.07,-2.14 0.15,-1.02 0.00,-2.11 -0.53,-2.82 -0.46,-0.60 -0.33,-1.17 -0.08,-1.63 0.24,-0.46 0.62,-0.77 0.62,-0.77 l 0.28,-0.24 -0.37,-0.02 c -0.14,-0.01 -0.28,-0.01 -0.42,-0.01 z m 0.04,0.32 c -0.13,0.14 -0.29,0.34 -0.42,0.58 -0.28,0.52 -0.43,1.26 0.10,1.97 0.46,0.60 0.62,1.63 0.47,2.59 -0.14,0.96 -0.58,1.83 -1.23,2.17 l 0.04,0.18 -0.16,-0.20 c 0,0 -0.10,-0.11 -0.32,-0.26 -0.22,-0.14 -0.58,-0.34 -1.12,-0.53 -0.13,-0.04 -0.30,-0.05 -0.53,-0.06 -0.22,-0.00 -0.50,0.00 -0.82,0.02 -0.58,0.03 -1.30,0.11 -2.07,0.20 0.17,-0.56 0.69,-2.11 1.64,-3.61 0.53,-0.84 1.20,-1.65 2.00,-2.23 0.70,-0.50 1.52,-0.81 2.44,-0.82 z m -3.18,6.75 c 0.21,0.00 0.37,0.02 0.43,0.04 0.50,0.17 0.82,0.35 1.02,0.48 -0.52,0.02 -2.47,0.15 -4.68,0.87 -1.68,0.54 -3.35,1.41 -4.23,2.84 -0.03,0.05 -0.07,0.11 -0.11,0.16 l -4.18,3.16 -0.01,0.00 -0.00,0.01 c 0,0 -0.04,0.09 -0.20,0.29 -0.16,0.20 -0.44,0.50 -0.90,0.89 -0.92,0.79 -2.57,1.96 -5.47,3.45 -0.31,0.16 -0.61,0.30 -0.91,0.41 -0.15,0.06 -0.31,0.11 -0.46,0.16 l -1.35,-1.43 -0.01,-0.00 -0.00,-0.00 c -0.10,-0.07 -0.21,-0.12 -0.31,-0.14 0.27,-0.02 0.49,0.02 0.61,0.13 l 0.10,-0.10 c -0.11,-0.11 -0.25,-0.17 -0.43,-0.18 -0.04,-0.00 -0.08,-0.00 -0.13,-0.00 -0.13,6.88e-4 -0.28,0.01 -0.44,0.05 -0.40,0.08 -0.85,0.27 -1.20,0.50 -0.66,0.41 -1.90,0.61 -1.90,0.61 l 0.02,0.14 c 0,0 1.25,-0.18 1.96,-0.63 0.25,-0.16 0.57,-0.30 0.87,-0.40 -0.11,0.08 -0.20,0.20 -0.28,0.32 -0.24,0.37 -0.38,0.89 -0.46,1.23 -0.03,0.14 -0.04,0.23 -0.05,0.29 -0.87,-0.10 -1.60,-0.39 -2.19,-0.75 C 12.37,26.03 11.76,25.03 11.76,25.03 l -0.00,-0.01 -0.02,-0.00 -0.27,-0.13 -0.76,-0.36 c -0.34,-0.55 -0.58,-0.72 -0.77,-0.74 -0.07,-0.00 -0.12,0.02 -0.16,0.05 C 9.69,23.51 9.61,23.30 9.45,23.20 9.28,23.08 9.04,23.09 8.69,23.12 c -0.07,0.00 -0.15,0.00 -0.22,0 l -0.00,0 C 8.31,23.10 8.17,23.06 8.05,23.00 7.72,22.84 7.47,22.56 7.35,22.27 c -9.10e-4,-0.00 -0.00,-0.00 -0.00,-0.00 -9.49e-4,-0.00 6.11e-4,-0.00 0,-0.00 -3.99e-4,-8.87e-4 -0.00,-0.00 -0.00,-0.00 l -0.00,-0.02 C 7.28,22.08 7.16,22.00 7.04,21.95 6.91,21.91 6.78,21.91 6.65,21.93 6.42,21.96 6.26,22.03 6.22,22.05 l -1.20,-1.02 c 0.03,0.00 0.07,0.01 0.11,0.01 0.09,0 0.18,-0.02 0.25,-0.07 0.06,-0.04 0.12,-0.11 0.12,-0.20 3.71e-5,-0.08 -0.05,-0.15 -0.12,-0.20 -0.06,-0.04 -0.16,-0.08 -0.25,-0.08 -0.09,0 -0.18,0.03 -0.25,0.08 -0.06,0.04 -0.12,0.11 -0.12,0.20 3.68e-5,0.08 0.05,0.15 0.12,0.20 0.01,0.00 0.02,0.01 0.03,0.02 -0.41,-0.08 -0.77,-0.18 -1.08,-0.28 -0.00,-0.00 -0.00,-0.02 -0.00,-0.02 l -0.03,0.01 C 3.05,20.41 2.63,20.09 2.40,19.80 2.25,19.62 2.18,19.44 2.14,19.29 c 0.00,-0.05 0.01,-0.11 0.03,-0.16 0.04,-0.11 0.13,-0.22 0.27,-0.33 -0.00,0.01 -0.00,0.03 -0.00,0.05 0,0.08 0.05,0.15 0.12,0.20 0.06,0.04 0.16,0.07 0.25,0.07 0.09,0 0.18,-0.02 0.25,-0.07 0.06,-0.04 0.12,-0.11 0.12,-0.20 0,-0.08 -0.05,-0.15 -0.12,-0.20 -0.05,-0.03 -0.11,-0.06 -0.17,-0.07 0.17,-0.06 0.37,-0.11 0.62,-0.15 7.66e-4,1.24e-4 0.01,0.00 0.01,0.00 0.04,0.05 0.11,0.12 0.20,0.20 0.21,0.19 0.55,0.47 1.08,0.79 1.05,0.62 2.84,1.41 5.79,2.03 0,0 0.51,0.12 0.99,0.53 0.48,0.40 0.93,1.09 0.81,2.25 -0.06,0.60 0.04,1.01 0.27,1.27 0.23,0.25 0.57,0.34 0.94,0.33 0.72,-0.00 1.57,-0.37 2.01,-0.59 0.84,-0.42 2.09,-0.42 2.09,-0.42 l 0,-0.15 c 0,0 -1.25,-0.00 -2.16,0.44 -0.43,0.21 -1.27,0.57 -1.94,0.57 -0.33,0.00 -0.63,-0.07 -0.82,-0.28 -0.19,-0.21 -0.30,-0.56 -0.24,-1.14 0.12,-1.21 -0.35,-1.96 -0.87,-2.39 -0.51,-0.43 -1.06,-0.55 -1.06,-0.55 C 7.72,20.68 5.95,19.90 4.91,19.28 4.39,18.97 4.06,18.71 3.85,18.52 c -0.02,-0.02 -0.03,-0.03 -0.05,-0.05 0.10,0.01 0.12,0.02 0.33,0.05 l 0.00,0 c 0.03,0.00 0.09,0.01 0.13,0.01 0.79,0.53 3.18,2.00 6.15,2.42 0.00,2.17e-4 0.00,-2.16e-4 0.00,0 0.00,0.00 0.58,0.23 1.16,0.61 0.28,0.18 0.57,0.41 0.78,0.66 0.20,0.24 0.33,0.50 0.31,0.77 l 0.15,0.00 c 0.01,-0.32 -0.13,-0.62 -0.35,-0.88 -0.22,-0.26 -0.51,-0.49 -0.81,-0.68 -0.59,-0.38 -1.19,-0.62 -1.19,-0.62 l -0.00,-0.00 -0.00,0 C 9.08,20.62 7.81,20.18 6.78,19.73 c 0.08,-0.00 0.17,-0.03 0.23,-0.07 0.06,-0.04 0.12,-0.11 0.12,-0.20 3.71e-5,-0.08 -0.05,-0.15 -0.12,-0.20 -0.06,-0.04 -0.16,-0.08 -0.25,-0.08 -0.09,0 -0.18,0.03 -0.25,0.08 -0.06,0.04 -0.12,0.11 -0.12,0.20 1.83e-5,0.04 0.01,0.08 0.03,0.11 -0.19,-0.09 -0.38,-0.18 -0.56,-0.27 0.00,5.6e-4 0.01,0 0.02,0 0.09,0 0.18,-0.02 0.25,-0.07 0.06,-0.04 0.12,-0.11 0.12,-0.20 0,-0.08 -0.05,-0.15 -0.12,-0.20 -0.00,-0.00 -0.00,-0.00 -0.00,-0.00 1.78,0.24 4.03,0.49 5.26,0.42 1.12,-0.06 3.48,-0.50 5.58,-0.92 2.10,-0.42 3.93,-0.82 3.93,-0.82 l 0.00,0 3.32,-0.80 4.66,-1.12 c 0,0 0.00,6e-6 0.00,0 0.01,-0.00 3.62,-0.62 6.56,-0.98 0.86,-0.10 1.66,-0.19 2.29,-0.23 0.31,-0.02 0.59,-0.02 0.80,-0.02 z m -14.15,0.35 c -0.07,0.13 -0.13,0.22 -0.24,0.50 -0.15,0.39 -0.29,0.86 -0.16,1.24 l -2.76,0.67 c 0.20,-0.27 0.51,-0.66 0.92,-1.08 0.62,-0.63 1.44,-1.22 2.25,-1.34 z m 16.31,0.44 0.01,0.07 c 0,0 3.19,-0.07 4.41,3.21 l 0.00,0.00 0.00,0.01 c 0,0 0.19,0.32 0.50,0.60 0.12,0.11 0.28,0.22 0.45,0.30 -0.76,0.24 -2.05,0.56 -3.55,0.54 -2.26,-0.03 -4.96,-0.84 -6.97,-3.90 2.41,-0.75 4.82,-0.84 4.82,-0.84 l 0.28,-0.00 z M 4.64,18.59 c 0.33,0.05 0.66,0.09 1.10,0.15 -0.04,0.01 -0.08,0.03 -0.11,0.05 -0.06,0.04 -0.12,0.11 -0.12,0.20 0,0.04 0.01,0.07 0.03,0.11 -0.36,-0.20 -0.66,-0.37 -0.90,-0.53 z m -1.81,0.09 c 0.07,0 0.14,0.01 0.18,0.05 0.04,0.03 0.06,0.07 0.06,0.11 0,0.03 -0.01,0.07 -0.06,0.10 -0.04,0.03 -0.11,0.05 -0.18,0.05 -0.07,0 -0.14,-0.02 -0.18,-0.05 -0.04,-0.03 -0.07,-0.07 -0.07,-0.10 0,-0.03 0.02,-0.07 0.07,-0.11 0.04,-0.03 0.11,-0.05 0.18,-0.05 z m 3.06,0.15 c 0.07,0 0.14,0.02 0.18,0.05 0.04,0.03 0.07,0.07 0.07,0.10 0,0.03 -0.02,0.07 -0.07,0.10 -0.04,0.03 -0.11,0.05 -0.18,0.05 -0.07,0 -0.14,-0.02 -0.18,-0.05 -0.04,-0.03 -0.07,-0.07 -0.07,-0.10 0,-0.03 0.02,-0.07 0.07,-0.10 0.04,-0.03 0.11,-0.05 0.18,-0.05 z m -2.00,0.19 c -0.09,0 -0.18,0.02 -0.25,0.07 -0.06,0.04 -0.12,0.11 -0.12,0.20 -3.71e-5,0.08 0.05,0.15 0.12,0.20 0.06,0.04 0.15,0.07 0.25,0.07 0.09,0 0.18,-0.02 0.25,-0.07 0.06,-0.04 0.12,-0.11 0.12,-0.20 3.71e-5,-0.08 -0.05,-0.15 -0.12,-0.20 -0.06,-0.04 -0.16,-0.07 -0.25,-0.07 z m 26.87,0.06 c -0.10,0.14 -0.20,0.30 -0.32,0.46 -0.01,0.02 -0.03,0.04 -0.05,0.07 -0.14,0.11 -2.77,2.21 -4.41,3.61 -1.30,1.11 -3.22,2.37 -5.85,3.52 0.06,-0.03 0.12,-0.05 0.19,-0.09 2.91,-1.50 4.57,-2.67 5.50,-3.47 0.46,-0.40 0.75,-0.71 0.92,-0.92 0.15,-0.18 0.19,-0.27 0.20,-0.29 l 0.00,-0.00 3.81,-2.89 z m -26.87,0.04 c 0.07,0 0.14,0.01 0.18,0.05 0.04,0.03 0.07,0.07 0.07,0.11 1.48e-5,0.03 -0.02,0.07 -0.07,0.10 -0.04,0.03 -0.11,0.05 -0.18,0.05 -0.07,0 -0.14,-0.02 -0.18,-0.05 -0.04,-0.03 -0.06,-0.07 -0.06,-0.10 -1.48e-5,-0.03 0.01,-0.07 0.06,-0.11 0.04,-0.03 0.11,-0.05 0.18,-0.05 z m 2.87,0.12 c 0.07,0 0.14,0.02 0.18,0.05 0.04,0.03 0.07,0.07 0.07,0.11 -1.48e-5,0.03 -0.02,0.07 -0.07,0.10 -0.04,0.03 -0.11,0.05 -0.18,0.05 -0.07,0 -0.13,-0.02 -0.18,-0.05 -0.04,-0.03 -0.07,-0.07 -0.07,-0.10 -1.49e-5,-0.03 0.02,-0.07 0.07,-0.11 0.04,-0.03 0.11,-0.05 0.18,-0.05 z M 2.95,19.48 c -0.09,0 -0.18,0.02 -0.25,0.07 -0.06,0.04 -0.12,0.11 -0.12,0.20 -3.71e-5,0.08 0.05,0.15 0.12,0.20 0.06,0.04 0.16,0.08 0.25,0.08 0.09,0 0.18,-0.03 0.25,-0.08 0.06,-0.04 0.12,-0.11 0.12,-0.20 C 3.32,19.67 3.27,19.60 3.20,19.55 3.13,19.50 3.04,19.48 2.95,19.48 z m 0,0.11 c 0.07,0 0.13,0.02 0.18,0.05 0.04,0.03 0.07,0.07 0.07,0.10 1.48e-5,0.03 -0.02,0.07 -0.07,0.11 -0.04,0.03 -0.11,0.05 -0.18,0.05 -0.07,0 -0.14,-0.02 -0.18,-0.05 -0.04,-0.03 -0.07,-0.07 -0.07,-0.11 -1.48e-5,-0.03 0.02,-0.07 0.07,-0.10 0.04,-0.03 0.11,-0.05 0.18,-0.05 z m 2.12,0.19 c -0.09,0 -0.18,0.02 -0.25,0.07 -0.06,0.04 -0.12,0.11 -0.12,0.20 3.69e-5,0.08 0.05,0.15 0.12,0.20 0.06,0.04 0.15,0.07 0.25,0.07 0.09,0 0.18,-0.02 0.25,-0.07 0.06,-0.04 0.12,-0.11 0.12,-0.20 3.71e-5,-0.08 -0.05,-0.15 -0.12,-0.20 -0.06,-0.04 -0.16,-0.07 -0.25,-0.07 z m -2.85,0.01 c 0.02,0.03 0.04,0.06 0.06,0.09 0.25,0.31 0.69,0.64 1.44,0.91 0.09,0.23 0.37,0.90 0.75,1.55 C 4.17,22.13 3.76,21.78 3.36,21.38 2.97,21.00 2.61,20.57 2.38,20.17 2.31,20.04 2.25,19.92 2.21,19.81 z m 1.73,0.04 c -0.09,0 -0.18,0.02 -0.25,0.07 -0.06,0.04 -0.12,0.11 -0.12,0.20 -3.71e-5,0.08 0.05,0.15 0.12,0.20 0.06,0.04 0.16,0.07 0.25,0.07 0.09,0 0.18,-0.02 0.25,-0.07 0.06,-0.04 0.12,-0.11 0.12,-0.20 3.71e-5,-0.08 -0.05,-0.15 -0.12,-0.20 -0.06,-0.04 -0.16,-0.07 -0.25,-0.07 z m 1.12,0.05 c 0.07,0 0.14,0.02 0.18,0.05 0.04,0.03 0.07,0.07 0.07,0.10 -1.48e-5,0.03 -0.02,0.07 -0.07,0.10 -0.04,0.03 -0.11,0.05 -0.18,0.05 -0.07,0 -0.13,-0.02 -0.18,-0.05 -0.04,-0.03 -0.07,-0.07 -0.07,-0.10 -1.48e-5,-0.03 0.02,-0.07 0.07,-0.10 0.04,-0.03 0.11,-0.05 0.18,-0.05 z m -1.12,0.06 c 0.07,0 0.14,0.02 0.18,0.05 0.04,0.03 0.07,0.07 0.07,0.10 1.48e-5,0.03 -0.02,0.07 -0.07,0.10 -0.04,0.03 -0.11,0.05 -0.18,0.05 -0.07,0 -0.14,-0.02 -0.18,-0.05 -0.04,-0.03 -0.07,-0.07 -0.07,-0.10 -1.47e-5,-0.03 0.02,-0.07 0.07,-0.10 0.04,-0.03 0.11,-0.05 0.18,-0.05 z m 26.01,0.21 c -0.39,0.48 -0.83,0.99 -1.32,1.51 -0.03,0.03 -0.07,0.07 -0.11,0.11 -0.58,0.51 -4.70,4.05 -9.27,5.76 l -0.17,-0.18 c 0.11,-0.04 0.24,-0.09 0.35,-0.13 3.03,-1.23 5.19,-2.64 6.64,-3.86 1.37,-1.16 3.15,-2.60 3.89,-3.19 z m -23.82,0.00 c -0.09,0 -0.18,0.03 -0.25,0.08 -0.06,0.04 -0.12,0.11 -0.12,0.20 0,0.08 0.05,0.14 0.12,0.19 0.06,0.04 0.16,0.08 0.25,0.08 0.09,0 0.18,-0.03 0.25,-0.08 0.06,-0.04 0.12,-0.11 0.12,-0.19 0,-0.08 -0.05,-0.15 -0.12,-0.20 -0.06,-0.04 -0.15,-0.08 -0.25,-0.08 z m 0,0.11 c 0.07,0 0.14,0.02 0.18,0.05 0.04,0.03 0.06,0.07 0.06,0.11 0,0.03 -0.01,0.07 -0.06,0.10 -0.04,0.03 -0.11,0.05 -0.18,0.05 -0.07,0 -0.14,-0.02 -0.18,-0.05 -0.04,-0.03 -0.07,-0.07 -0.07,-0.10 0,-0.03 0.02,-0.07 0.07,-0.11 0.04,-0.03 0.11,-0.05 0.18,-0.05 z m -1.00,0.28 c 0.07,0 0.14,0.02 0.18,0.05 0.04,0.03 0.07,0.07 0.07,0.11 -1.49e-5,0.03 -0.02,0.07 -0.07,0.10 -0.04,0.03 -0.11,0.05 -0.18,0.05 -0.07,0 -0.13,-0.02 -0.18,-0.05 -0.04,-0.03 -0.07,-0.07 -0.07,-0.10 -1.48e-5,-0.03 0.02,-0.07 0.07,-0.11 0.04,-0.03 0.11,-0.05 0.18,-0.05 z m 2.50,0.19 c -0.09,0 -0.18,0.02 -0.25,0.07 -0.06,0.04 -0.12,0.11 -0.12,0.20 3.68e-5,0.08 0.05,0.15 0.12,0.20 0.06,0.04 0.16,0.08 0.25,0.08 0.09,0 0.18,-0.03 0.25,-0.08 0.06,-0.04 0.12,-0.11 0.12,-0.20 3.7e-5,-0.08 -0.05,-0.15 -0.12,-0.20 -0.06,-0.04 -0.16,-0.07 -0.25,-0.07 z m -3.71,0.09 c 0.28,0.09 0.60,0.17 0.97,0.25 0.03,0.07 0.33,0.80 0.72,1.63 0.24,0.51 0.50,1.05 0.76,1.49 -0.13,-0.13 -0.26,-0.27 -0.39,-0.41 L 5.88,23.74 C 5.59,23.43 5.30,23.12 5.00,22.78 l -0.00,-0.01 -0.01,-0.00 c 0,0 -0.06,-0.04 -0.15,-0.11 -0.41,-0.64 -0.75,-1.40 -0.89,-1.75 z m 3.71,0.01 c 0.07,0 0.14,0.02 0.18,0.05 0.04,0.03 0.07,0.07 0.07,0.10 -1.48e-5,0.03 -0.02,0.07 -0.07,0.11 -0.04,0.03 -0.11,0.05 -0.18,0.05 -0.07,0 -0.14,-0.02 -0.18,-0.05 -0.04,-0.03 -0.07,-0.07 -0.07,-0.11 -1.48e-5,-0.03 0.02,-0.07 0.07,-0.10 0.04,-0.03 0.11,-0.05 0.18,-0.05 z m -2.67,0.10 c 0.00,0.00 0.01,0.00 0.02,0.00 l -0.04,0.05 0.01,-0.06 z m 1.29,0.09 c -0.09,0 -0.18,0.02 -0.25,0.07 -0.06,0.04 -0.12,0.11 -0.12,0.20 3.68e-5,0.08 0.05,0.15 0.12,0.20 0.06,0.04 0.16,0.07 0.25,0.07 0.09,0 0.18,-0.02 0.25,-0.07 0.06,-0.04 0.12,-0.11 0.12,-0.20 3.71e-5,-0.08 -0.05,-0.15 -0.12,-0.20 -0.06,-0.04 -0.15,-0.07 -0.25,-0.07 z m 0,0.11 c 0.07,0 0.14,0.02 0.18,0.05 0.04,0.03 0.06,0.07 0.06,0.10 -1.48e-5,0.03 -0.01,0.07 -0.06,0.10 -0.04,0.03 -0.11,0.05 -0.18,0.05 -0.07,0 -0.14,-0.02 -0.18,-0.05 -0.04,-0.03 -0.07,-0.07 -0.07,-0.10 -1.48e-5,-0.03 0.02,-0.07 0.07,-0.10 0.04,-0.03 0.11,-0.05 0.18,-0.05 z m -1.11,0.12 0.98,0.83 c 0.02,0.06 0.28,0.83 0.72,1.73 0.27,0.57 0.61,1.18 1.00,1.70 -0.31,-0.24 -0.61,-0.50 -0.90,-0.77 -0.00,-0.00 -0.01,-0.01 -0.02,-0.02 C 6.61,24.44 6.14,23.54 5.76,22.71 5.47,22.10 5.27,21.63 5.15,21.34 z m 2.80,0.07 c -0.09,0 -0.18,0.02 -0.25,0.07 -0.06,0.04 -0.12,0.11 -0.12,0.20 0,0.08 0.05,0.15 0.12,0.20 0.06,0.04 0.16,0.07 0.25,0.07 0.09,0 0.18,-0.02 0.25,-0.07 0.06,-0.04 0.12,-0.11 0.12,-0.20 0,-0.08 -0.05,-0.15 -0.12,-0.20 -0.06,-0.04 -0.15,-0.07 -0.25,-0.07 z m 0,0.11 c 0.07,0 0.14,0.02 0.18,0.05 0.04,0.03 0.06,0.07 0.06,0.10 0,0.03 -0.01,0.07 -0.06,0.10 -0.04,0.03 -0.11,0.05 -0.18,0.05 -0.07,0 -0.14,-0.02 -0.18,-0.05 -0.04,-0.03 -0.07,-0.07 -0.07,-0.10 0,-0.03 0.02,-0.07 0.07,-0.10 0.04,-0.03 0.11,-0.05 0.18,-0.05 z m -1.11,0.54 c 0.05,0.00 0.10,0.00 0.15,0.02 0.09,0.02 0.15,0.07 0.19,0.18 l 0.00,0.02 c 6.55e-4,0.00 -4.98e-4,0.00 0,0.00 2.13e-4,4.87e-4 0.00,0.00 0.00,0.00 4.24e-4,0.00 -4.70e-4,0.00 0,0.00 6.79e-4,0.00 0.00,0.00 0.00,0.00 5.55e-4,0.00 -4.78e-4,0.00 0,0.00 7.87e-4,0.00 0.00,0.00 0.00,0.00 0.00,0.00 0.00,0.01 0.00,0.02 0.08,0.23 0.42,1.08 0.82,2.01 0.32,0.74 0.68,1.52 0.98,2.02 C 8.95,26.35 8.86,26.30 8.77,26.25 8.64,26.16 8.51,26.08 8.38,26.00 7.86,25.45 7.37,24.61 7.00,23.84 6.61,23.03 6.36,22.35 6.30,22.18 c 0.06,-0.02 0.19,-0.06 0.37,-0.09 0.05,-0.00 0.11,-0.01 0.16,-0.00 z m 1.42,0.27 c -0.09,0 -0.18,0.02 -0.25,0.07 -0.06,0.04 -0.12,0.11 -0.12,0.20 3.69e-5,0.08 0.05,0.15 0.12,0.20 0.06,0.04 0.16,0.07 0.25,0.07 0.09,0 0.18,-0.02 0.25,-0.07 0.06,-0.04 0.12,-0.11 0.12,-0.20 3.7e-5,-0.08 -0.05,-0.15 -0.12,-0.20 -0.06,-0.04 -0.15,-0.07 -0.25,-0.07 z m 0,0.11 c 0.07,0 0.13,0.02 0.18,0.05 0.04,0.03 0.07,0.07 0.07,0.10 -1.48e-5,0.03 -0.02,0.07 -0.07,0.11 -0.04,0.03 -0.11,0.05 -0.18,0.05 -0.07,0 -0.14,-0.01 -0.18,-0.05 -0.04,-0.03 -0.07,-0.07 -0.07,-0.11 -1.48e-5,-0.03 0.02,-0.07 0.07,-0.10 0.04,-0.03 0.11,-0.05 0.18,-0.05 z m -0.67,0.40 c 0.10,0.09 0.22,0.18 0.36,0.25 0.01,0.04 1.02,2.24 2.08,3.77 C 9.81,26.79 9.58,26.69 9.38,26.58 9.36,26.58 9.34,26.57 9.33,26.56 9.02,26.13 8.58,25.20 8.19,24.31 7.94,23.75 7.75,23.26 7.59,22.87 z m 19.73,0.13 c -2.17,2.03 -4.94,3.99 -7.78,4.88 l -0.17,-0.18 c 3.24,-1.22 6.26,-3.35 7.96,-4.69 z m -19.16,0.20 c 0.08,0.02 0.17,0.04 0.27,0.05 l -0.05,0.02 c 0,0 0.53,0.98 1.19,2.03 0.32,0.52 0.68,1.05 1.03,1.49 0.14,0.18 0.28,0.33 0.41,0.47 -0.21,-0.07 -0.41,-0.15 -0.61,-0.23 -0.03,-0.01 -0.06,-0.02 -0.09,-0.04 -0.98,-1.36 -1.94,-3.38 -2.14,-3.80 z m 0.77,0.04 c 0.20,-0.00 0.33,0.01 0.42,0.07 0.11,0.08 0.19,0.25 0.25,0.62 l 0.03,0.23 0.03,-0.07 c 0.13,0.28 0.49,0.99 1.00,1.76 0.45,0.67 1.01,1.37 1.62,1.81 -0.24,-0.06 -0.48,-0.13 -0.71,-0.20 -0.08,-0.02 -0.16,-0.05 -0.25,-0.08 -0.19,-0.15 -0.41,-0.39 -0.64,-0.68 -0.33,-0.42 -0.69,-0.95 -1.02,-1.47 C 9.08,24.25 8.59,23.36 8.55,23.28 c 0.05,0.00 0.10,1.9e-5 0.15,-0.00 0.08,-0.00 0.16,-0.01 0.23,-0.01 z m -3.35,0.62 c 0.02,0.02 0.04,0.04 0.06,0.07 l 0.04,0.04 c -0.22,0.18 -0.85,0.71 -1.56,1.39 -0.79,0.76 -1.62,1.66 -1.88,2.32 -0.24,0.65 -0.51,1.11 -0.68,1.47 -0.08,0.18 -0.15,0.34 -0.17,0.48 -0.02,0.14 -0.01,0.28 0.05,0.41 l 0.07,0.13 c -0.00,-0.00 -0.01,-0.00 -0.01,-0.00 -0.20,-0.07 -0.26,-0.16 -0.27,-0.32 -0.01,-0.15 0.05,-0.39 0.17,-0.67 0.24,-0.54 0.68,-1.21 0.94,-1.86 0.22,-0.56 1.06,-1.48 1.83,-2.22 0.70,-0.67 1.29,-1.16 1.40,-1.26 z m 4.27,0.02 c 0.01,-0.00 0.02,-0.00 0.04,0 0.10,0.01 0.32,0.14 0.66,0.68 0.01,0.03 0.33,0.84 1.06,1.71 0.53,0.64 1.29,1.31 2.30,1.72 -0.24,-0.04 -0.47,-0.09 -0.70,-0.13 -0.11,-0.02 -0.22,-0.05 -0.33,-0.07 C 12.14,27.50 11.40,26.63 10.83,25.79 10.23,24.88 9.83,24.05 9.79,23.95 c 0.01,-0.01 0.03,-0.03 0.07,-0.03 z m 3.49,0.07 c -0.09,0.00 -0.17,0.00 -0.25,0.01 -0.14,0.02 -0.24,0.04 -0.24,0.04 l 0.04,0.14 c 0,0 0.34,-0.10 0.71,-0.04 0.36,0.05 0.75,0.26 0.87,0.92 l 0.15,-0.02 C 14.52,24.34 14.06,24.07 13.65,24.01 c -0.10,-0.01 -0.20,-0.02 -0.29,-0.01 z m -7.55,0.12 c 0.24,0.26 0.50,0.51 0.75,0.76 -0.98,0.36 -1.75,1.21 -2.34,2.11 -0.64,0.97 -1.09,2.03 -1.40,2.68 -0.13,0.28 -0.23,0.49 -0.31,0.63 -0.07,0.13 -0.14,0.20 -0.16,0.21 -0.02,0.01 -0.04,0.01 -0.12,-0.00 -0.08,-0.02 -0.20,-0.08 -0.37,-0.16 -0.01,-0.00 -0.04,-0.01 -0.06,-0.02 l -0.17,-0.30 c -0.05,-0.09 -0.06,-0.18 -0.03,-0.30 0.02,-0.12 0.08,-0.27 0.16,-0.44 0.16,-0.35 0.43,-0.82 0.68,-1.49 0.22,-0.59 1.04,-1.50 1.84,-2.26 0.68,-0.65 1.31,-1.19 1.56,-1.39 z m 7.71,0.09 c -0.23,0 -0.44,0.06 -0.60,0.18 -0.15,0.11 -0.25,0.29 -0.25,0.48 0,0.09 0.02,0.18 0.07,0.26 0.00,0.01 0.01,0.03 0.02,0.05 9.47e-4,7.04e-4 -4.72e-4,0.00 0,0.00 9.41e-4,0.00 0.00,0.00 0.00,0.00 0.00,0.00 0.00,0.00 0.00,0.01 0.01,0.02 0.03,0.04 0.05,0.06 0.00,0.00 0.00,0.00 0.00,0.00 0.00,0.00 0.00,0.00 0.00,0.00 l 0,0.00 c 9.01e-4,8.6e-4 0.00,-8.58e-4 0.00,0 0.00,0.00 0.00,0.00 0.00,0.00 0.15,0.14 0.39,0.24 0.66,0.24 0.23,0 0.44,-0.07 0.59,-0.19 0.15,-0.11 0.26,-0.28 0.26,-0.47 0,-0.19 -0.10,-0.36 -0.26,-0.48 -0.15,-0.11 -0.36,-0.18 -0.59,-0.18 z m 0,0.15 c 0.19,0 0.37,0.05 0.50,0.15 0.12,0.09 0.20,0.22 0.20,0.36 0,0.13 -0.07,0.26 -0.20,0.35 -0.12,0.09 -0.29,0.15 -0.48,0.15 0.18,-0.08 0.30,-0.24 0.30,-0.43 0,-0.28 -0.26,-0.50 -0.57,-0.50 -0.07,0 -0.14,0.01 -0.20,0.03 0.12,-0.07 0.28,-0.12 0.45,-0.12 z M 13.26,24.61 c 0.01,0 0.03,0.00 0.04,0.00 -0.01,6.79e-4 -0.03,0.00 -0.05,0.00 -0.02,0.00 -0.04,0.01 -0.07,0.01 -0.04,0.01 -0.08,0.03 -0.12,0.06 -0.03,0.02 -0.06,0.06 -0.08,0.10 -0.00,0.01 -0.01,0.02 -0.01,0.03 -0.00,0.00 -0.00,0.01 -0.00,0.02 -4.37e-4,0.00 4.13e-4,0.00 0,0.00 -0.00,0.02 -0.00,0.04 -0.00,0.06 l 0,0.00 c 5.2e-5,0.09 0.05,0.17 0.12,0.23 0.01,0.01 0.03,0.02 0.05,0.03 0.02,0.01 0.04,0.02 0.06,0.02 0.04,0.01 0.09,0.02 0.14,0.02 0.02,0 0.04,-7.01e-4 0.07,-0.00 0.06,-0.01 0.12,-0.03 0.17,-0.07 -0.07,0.07 -0.18,0.11 -0.31,0.11 -0.12,0 -0.23,-0.04 -0.31,-0.11 -0.00,-0.00 -0.00,-0.00 -0.00,-0.00 l -0.00,-0.00 c -0.01,-0.01 -0.03,-0.03 -0.04,-0.05 -5.68e-4,-7.78e-4 -0.00,7.77e-4 -0.00,0 l 0,-0.00 c -8.8e-4,-0.00 8.49e-4,-0.00 0,-0.00 -0.02,-0.04 -0.04,-0.09 -0.04,-0.15 0,-0.18 0.18,-0.34 0.42,-0.34 z m -2.47,0.11 0.60,0.28 -0.06,0.03 c 0,0 0.59,1.05 1.69,1.94 0.79,0.64 1.86,1.19 3.15,1.18 l 0.08,0.11 c -0.39,0.01 -0.76,-0.00 -1.10,-0.05 -1.59,-0.24 -2.70,-1.15 -3.41,-2.00 -0.51,-0.61 -0.82,-1.20 -0.95,-1.49 z m 2.54,0.04 c 0.06,0 0.12,0.02 0.16,0.05 0.04,0.03 0.06,0.07 0.06,0.11 -2e-5,0.03 -0.02,0.07 -0.06,0.11 -0.04,0.03 -0.10,0.05 -0.16,0.05 -0.06,0 -0.12,-0.02 -0.16,-0.05 -0.04,-0.03 -0.06,-0.07 -0.06,-0.11 0,-0.00 0.00,-0.01 0.00,-0.02 0.00,-0.02 0.02,-0.06 0.06,-0.08 0.04,-0.03 0.10,-0.05 0.16,-0.05 z m 4.04,0.11 c -0.13,-6.69e-4 -0.28,0.01 -0.44,0.04 -0.40,0.08 -0.85,0.28 -1.20,0.50 -0.66,0.41 -1.90,0.61 -1.90,0.61 l 0.02,0.15 c 0,0 1.25,-0.18 1.96,-0.63 0.33,-0.21 0.76,-0.39 1.15,-0.48 0.38,-0.08 0.72,-0.05 0.87,0.09 l 0.10,-0.11 c -0.11,-0.11 -0.25,-0.16 -0.43,-0.18 -0.04,-0.00 -0.08,-0.00 -0.13,-0.00 z m -5.85,0.17 0.13,0.06 c 0.01,0.03 0.62,1.02 1.89,1.78 0.60,0.36 1.35,0.66 2.25,0.76 l 0.03,0.04 0.22,0.28 c -1.19,-0.02 -2.18,-0.54 -2.94,-1.14 -0.92,-0.74 -1.46,-1.57 -1.60,-1.79 z m 5.79,0.07 c -0.13,-6.69e-4 -0.28,0.01 -0.44,0.04 -0.40,0.08 -0.85,0.27 -1.20,0.50 -0.66,0.41 -1.90,0.61 -1.90,0.61 l 0.02,0.14 c 0,0 1.25,-0.18 1.96,-0.63 0.33,-0.21 0.76,-0.39 1.15,-0.47 0.38,-0.08 0.72,-0.05 0.87,0.09 l 0.10,-0.11 c -0.11,-0.11 -0.25,-0.16 -0.43,-0.18 -0.04,-0.00 -0.08,-0.00 -0.13,-0.00 z m -0.31,0.69 c 0.02,-0.00 0.05,-0.00 0.08,0.00 0.06,0.01 0.13,0.04 0.21,0.10 l 3.67,3.92 0.00,0.00 0.00,0.00 c 0,0 0.03,0.03 0.12,0.14 0.08,0.11 0.21,0.29 0.36,0.58 0.29,0.57 0.68,1.54 1.02,3.12 l 0.00,0.01 0.00,0.01 1.81,3.74 0.00,0.01 0.00,0.01 1.56,1.93 0.00,0.00 0.00,0.00 c 0,0 0.07,0.08 0.07,0.17 -0.00,0.04 -0.01,0.10 -0.09,0.17 -0.07,0.07 -0.22,0.16 -0.45,0.24 l -0.90,-0.05 c -0.02,-0.00 -0.59,-0.10 -0.97,-0.21 -0.00,-0.00 -0.00,-0.00 -0.00,-0.00 l -2.01,-3.65 c 0.00,-0.12 -0.04,-0.26 -0.11,-0.40 -0.08,-0.15 -0.19,-0.31 -0.30,-0.46 -0.23,-0.29 -0.46,-0.53 -0.46,-0.53 l -0.00,-0.00 -0.00,-0.00 c -0.47,-0.23 -0.63,-0.60 -0.67,-0.91 -0.04,-0.31 0.02,-0.55 0.02,-0.55 l 0.00,-0.03 -0.01,-0.02 c 0,0 -0.25,-0.38 -1.13,-1.32 -0.84,-0.90 -0.54,-1.92 -0.54,-1.92 l 0.01,-0.03 -0.02,-0.02 -2.09,-2.57 c 0.00,-0.01 0.00,-0.00 0.00,-0.02 0.07,-0.33 0.21,-0.82 0.41,-1.14 0.10,-0.15 0.21,-0.26 0.31,-0.30 0.02,-0.00 0.05,-0.01 0.08,-0.01 z m -0.86,1.68 1.99,2.44 c -0.00,0.02 -0.01,0.08 -0.02,0.15 l -0.01,-0.02 -1.95,-2.50 c 0.00,-0.00 0.01,-0.05 0.01,-0.07 z m 1.94,2.90 c 0.00,0.40 0.11,1.00 0.63,1.56 0.83,0.89 1.07,1.24 1.09,1.27 -0.01,0.05 -0.06,0.27 -0.02,0.58 0.04,0.34 0.23,0.75 0.73,1.01 0.00,0.00 0.00,0.00 0.00,0.00 0.00,0.00 0.23,0.22 0.45,0.51 0.11,0.14 0.21,0.29 0.29,0.43 0.07,0.14 0.11,0.27 0.10,0.35 l -0.00,0.02 0.01,0.02 1.93,3.52 c -0.00,-0.00 -0.01,-0.00 -0.01,-0.00 -0.01,-0.00 -0.02,-0.01 -0.02,-0.01 -0.00,-0.01 -0.01,-0.02 -0.01,-0.03 -0.01,-0.03 -0.03,-0.07 -0.06,-0.12 -0.05,-0.09 -0.13,-0.22 -0.22,-0.37 -0.18,-0.30 -0.42,-0.69 -0.67,-1.09 -0.24,-0.40 -0.49,-0.82 -0.67,-1.16 -0.09,-0.17 -0.17,-0.32 -0.23,-0.44 -0.05,-0.12 -0.08,-0.22 -0.09,-0.24 -0.04,-0.32 -0.29,-0.64 -0.53,-0.92 -0.23,-0.27 -0.45,-0.48 -0.45,-0.48 l -0.01,-0.01 -0.02,-0.00 c 0,0 -0.13,-0.05 -0.28,-0.26 -0.15,-0.20 -0.31,-0.56 -0.31,-1.16 l 0,-0.03 -0.01,-0.03 c 0,0 -0.17,-0.29 -0.42,-0.64 -0.24,-0.34 -0.55,-0.72 -0.88,-0.91 -0.09,-0.05 -0.16,-0.15 -0.21,-0.30 -0.04,-0.15 -0.06,-0.33 -0.07,-0.52 -0.00,-0.18 0.00,-0.35 0.01,-0.48 z" />
</svg>
