<?xml version="1.0" encoding="UTF-8" standalone="no"?>
<!-- Created with Inkscape (http://www.inkscape.org/) -->
<svg
   xmlns:svg="http://www.w3.org/2000/svg"
   xmlns="http://www.w3.org/2000/svg"
   version="1.0"
   width="100%"
   height="100%"
   viewBox="0 0 48 48"
   id="ontology">
  <defs
     id="defs2385" />
  <rect
     width="47"
     height="47"
     ry="9.1800003"
     x="0.5"
     y="0.5"
     id="r2393"
     style="opacity:1;fill:#ecc669;fill-opacity:1;fill-rule:nonzero;stroke:#cc9954;stroke-width:1;stroke-linecap:butt;stroke-linejoin:round;marker:none;stroke-miterlimit:4;stroke-dasharray:none;stroke-dashoffset:0;stroke-opacity:1;visibility:visible;display:inline;overflow:visible;enable-background:accumulate" />
  <path
     d="M 39.641432,10.31 C 39.641432,19.46 39.641432,28.6 39.641432,37.75 C 37.71067,37.75 35.793317,37.75 33.862556,37.75 C 33.862556,31.76 33.862556,25.76 33.862556,19.77 C 32.092691,21.6 30.027849,22.87 27.869151,23.69 C 27.869151,21.64 27.869151,19.59 27.869151,17.54 C 30.792109,16.43 33.661435,14.11 34.921793,10.31 C 36.490537,10.31 38.05928,10.31 39.641432,10.31 z"
     id="text3590"
     style="font-size:28.38999939px;font-style:normal;font-variant:normal;font-weight:normal;font-stretch:normal;fill:#30251c;fill-opacity:1;stroke:none;font-family:Arial Black;-inkscape-font-specification:Arial Black" />
  <path
     d="M 6.2248866,23.717023 C 6.2248857,18.620406 6.842431,15.053982 8.0775246,13.017745 C 9.3208463,10.981555 11.210535,9.9634477 13.746597,9.9634204 C 14.965211,9.9634477 15.965634,10.189016 16.74787,10.640127 C 17.530082,11.079098 18.168213,11.65826 18.662263,12.377617 C 19.156286,13.084829 19.54328,13.834692 19.823249,14.627208 C 20.111422,15.407576 20.341972,16.322044 20.514901,17.370613 C 20.852477,19.370269 21.021272,21.455255 21.021288,23.625576 C 21.021272,28.490556 20.465481,32.050883 19.353914,34.306566 C 18.242318,36.562255 16.327928,37.690097 13.610736,37.690099 C 12.08745,37.690097 10.856476,37.330407 9.9178114,36.611026 C 8.9791379,35.891645 8.2092647,34.83696 7.6081897,33.446965 C 7.1717885,32.459345 6.8300801,31.112029 6.5830634,29.405016 C 6.3442778,27.685825 6.2248857,25.78983 6.2248866,23.717023 M 11.214658,23.735312 C 11.214652,27.149338 11.416384,29.484278 11.819853,30.740139 C 12.231544,31.983821 12.824387,32.605659 13.598386,32.605655 C 14.108882,32.605659 14.549397,32.343512 14.919934,31.819212 C 15.298686,31.28273 15.574523,30.44142 15.747445,29.29528 C 15.928581,28.149155 16.019155,26.362895 16.019166,23.936496 C 16.019155,20.376183 15.813307,17.986374 15.40162,16.767065 C 14.998147,15.535602 14.388835,14.919861 13.573684,14.919839 C 12.742048,14.919861 12.14097,15.547796 11.770449,16.803643 C 11.399916,18.047339 11.214652,20.357893 11.214658,23.735312"
     id="text2382"
     style="font-size:30.78072929px;font-style:normal;font-variant:normal;font-weight:normal;font-stretch:normal;text-align:center;line-height:80.00000119%;writing-mode:lr-tb;text-anchor:middle;fill:#30251c;fill-opacity:1;stroke:none;stroke-width:1px;stroke-linecap:butt;stroke-linejoin:miter;stroke-opacity:1;font-family:Arial Black;-inkscape-font-specification:Arial Black" />
  <path
     d="M 23.142142,29.033076 L 25.387268,29.033076 L 26.47806,34.327733 L 27.605919,29.033076 L 29.782208,29.033076 L 27.394114,37.388092 L 25.482581,37.388092 L 23.142142,29.033076"
     id="text2386"
     style="font-size:16.11212158px;font-style:normal;font-variant:normal;font-weight:normal;font-stretch:normal;text-align:center;line-height:80.00000119%;writing-mode:lr-tb;text-anchor:middle;fill:#30251c;fill-opacity:1;stroke:none;stroke-width:1px;stroke-linecap:butt;stroke-linejoin:miter;stroke-opacity:1;font-family:Arial Black;-inkscape-font-specification:Arial Black" />
</svg>
