<?xml version="1.0" encoding="UTF-8" standalone="no"?>
<!-- Created with Inkscape (http://www.inkscape.org/) -->
<svg
   xmlns:svg="http://www.w3.org/2000/svg"
   xmlns="http://www.w3.org/2000/svg"
   version="1.0"
   width="100%"
   height="100%"
   viewBox="0 0 48 48"
   id="ontology">
  <defs
     id="defs2385" />
  <rect
     width="47"
     height="47"
     ry="9.1800003"
     x="0.5"
     y="0.5"
     id="r2393"
     style="opacity:1;fill:#ecc669;fill-opacity:1;fill-rule:nonzero;stroke:#cc9954;stroke-width:1;stroke-linecap:butt;stroke-linejoin:round;marker:none;stroke-miterlimit:4;stroke-dasharray:none;stroke-dashoffset:0;stroke-opacity:1;visibility:visible;display:inline;overflow:visible;enable-background:accumulate" />
  <path
     d="M 23.08697,27.210894 L 6.77326,27.210894 C 6.9601592,25.599994 7.525309,24.086995 8.468711,22.671891 C 9.4210082,21.247896 11.201008,19.570247 13.808714,17.638938 C 15.401806,16.455248 16.420855,15.556348 16.865866,14.942236 C 17.310855,14.328149 17.533355,13.745199 17.533367,13.193385 C 17.533355,12.597099 17.310855,12.0898 16.865866,11.671484 C 16.429755,11.2443 15.877956,11.0307 15.210465,11.030684 C 14.516256,11.0307 13.946656,11.24875 13.501664,11.684834 C 13.065557,12.12095 12.771857,12.890799 12.620564,13.994386 L 7.1737603,13.553835 C 7.3873591,12.02305 7.7789589,10.83045 8.348561,9.9760332 C 8.9181584,9.1127508 9.7191581,8.4541511 10.751562,8.000232 C 11.792857,7.5374514 13.230207,7.3060515 15.063615,7.3060316 C 16.977105,7.3060515 18.463405,7.5241014 19.522518,7.960182 C 20.590504,8.3963011 21.427103,9.0682508 22.032319,9.9760332 C 22.646403,10.87495 22.953453,11.8851 22.95347,13.006485 C 22.953453,14.199099 22.601903,15.338298 21.898819,16.424087 C 21.204604,17.509897 19.936354,18.702497 18.094067,20.001889 C 16.999355,20.758396 16.265106,21.287946 15.891316,21.59054 C 15.526406,21.893146 15.094756,22.289196 14.596365,22.778691 L 23.08697,22.778691 L 23.08697,27.210894 M 24.729021,13.033185 L 31.177075,13.033185 L 33.433227,16.984787 L 36.049828,13.033185 L 42.043982,13.033185 L 37.211279,19.788289 L 42.391082,27.210894 L 36.049828,27.210894 L 33.433227,22.645191 L 30.349375,27.210894 L 24.462021,27.210894 L 29.615124,19.788289 L 24.729021,13.033185 M 48.972637,13.300185 L 43.832884,12.379035 C 44.260082,10.74145 45.078882,9.4865507 46.289285,8.6143324 C 47.508581,7.7421514 49.23073,7.3060515 51.455738,7.3060316 C 54.010028,7.3060515 55.856778,7.7822013 56.995992,8.7344825 C 58.135177,9.6868006 58.704777,10.88385 58.704793,12.325635 C 58.704777,13.171149 58.473377,13.936549 58.010592,14.621836 C 57.547777,15.307148 56.849127,15.907898 55.914641,16.424087 C 56.671127,16.610998 57.249627,16.829048 57.650142,17.078238 C 58.299827,17.478747 58.802676,18.008297 59.158693,18.666888 C 59.523576,19.316597 59.706026,20.095346 59.706043,21.00314 C 59.706026,22.142346 59.407876,23.237045 58.811593,24.287242 C 58.215277,25.328544 57.356427,26.133994 56.235041,26.703593 C 55.113628,27.264294 53.640679,27.544643 51.816188,27.544644 C 50.03618,27.544643 48.629981,27.335494 47.597586,26.917193 C 46.574081,26.498894 45.728582,25.889244 45.061084,25.088242 C 44.402482,24.278345 43.895182,23.263745 43.539183,22.044441 L 48.972637,21.32354 C 49.18623,22.418246 49.51553,23.179195 49.960537,23.606391 C 50.41443,24.024695 50.98848,24.233845 51.682688,24.233842 C 52.412479,24.233845 53.017679,23.966845 53.498289,23.432841 C 53.987778,22.898845 54.232528,22.186846 54.23254,21.29684 C 54.232528,20.389046 53.996678,19.685947 53.52499,19.187539 C 53.062179,18.689147 52.430279,18.439947 51.629288,18.439938 C 51.202079,18.439947 50.61468,18.546747 49.867087,18.760339 L 50.147437,14.875486 C 50.45003,14.919999 50.68588,14.942248 50.854988,14.942236 C 51.566979,14.942248 52.158829,14.715299 52.630539,14.261386 C 53.111129,13.807499 53.351429,13.269049 53.351439,12.646035 C 53.351429,12.04975 53.173429,11.5736 52.817439,11.217584 C 52.461429,10.8616 51.971929,10.6836 51.348938,10.683584 C 50.70813,10.6836 50.18748,10.8794 49.786987,11.270984 C 49.38648,11.6537 49.11503,12.3301 48.972637,13.300185"
     transform="scale(0.7212056,1.3865672)"
     id="text2382"
     style="font-size:27.3408165px;font-style:normal;font-variant:normal;font-weight:normal;font-stretch:normal;fill:#30251c;fill-opacity:1;stroke:none;stroke-width:1px;stroke-linecap:butt;stroke-linejoin:miter;stroke-opacity:1;font-family:Arial Black;-inkscape-font-specification:Arial Black" />
</svg>
