<?xml version="1.0" encoding="UTF-8" standalone="no"?>
<svg
   xmlns:dc="http://purl.org/dc/elements/1.1/"
   xmlns:cc="http://creativecommons.org/ns#"
   xmlns:rdf="http://www.w3.org/1999/02/22-rdf-syntax-ns#"
   xmlns:svg="http://www.w3.org/2000/svg"
   xmlns="http://www.w3.org/2000/svg"
   xmlns:sodipodi="http://sodipodi.sourceforge.net/DTD/sodipodi-0.dtd"
   xmlns:inkscape="http://www.inkscape.org/namespaces/inkscape"
   version="1.0"
   width="100%"
   height="100%"
   viewBox="0 0 96 96"
   id="svg8"
   sodipodi:docname="2x2b.svg"
   inkscape:version="0.92.3 (2405546, 2018-03-11)">
  <metadata
     id="metadata14">
    <rdf:RDF>
      <cc:Work
         rdf:about="">
        <dc:format>image/svg+xml</dc:format>
        <dc:type
           rdf:resource="http://purl.org/dc/dcmitype/StillImage" />
      </cc:Work>
    </rdf:RDF>
  </metadata>
  <defs
     id="defs12" />
  <sodipodi:namedview
     pagecolor="#ffffff"
     bordercolor="#666666"
     borderopacity="1"
     objecttolerance="10"
     gridtolerance="10"
     guidetolerance="10"
     inkscape:pageopacity="0"
     inkscape:pageshadow="2"
     inkscape:window-width="1366"
     inkscape:window-height="719"
     id="namedview10"
     showgrid="false"
     inkscape:zoom="2.4583333"
     inkscape:cx="-17.288137"
     inkscape:cy="46.372881"
     inkscape:window-x="0"
     inkscape:window-y="25"
     inkscape:window-maximized="1"
     inkscape:current-layer="layer4" />
  <g
     inkscape:groupmode="layer"
     id="layer1"
     inkscape:label="grid"
     style="display:none">
    <path
       inkscape:connector-curvature="0"
       style="fill:none;stroke:#000000;stroke-width:0.30000001"
       d="m 0,48 c 9.6,-0.76 24.07,-5.19 19.74,3.45 -4.32,8.64 12.96,8.64 8.64,0 C 24.07,42.81 38.4,47.79 48,48 c 9.6,0.21 22.89,-4.41 19.58,4.23 -3.32,8.64 13.96,8.64 8.64,0 C 70.89,43.59 86.4,47.01 96,48 M 48,0 c 0.72,9.6 4.73,23.99 -3.91,18.96 -8.64,-5.03 -8.64,12.25 0,8.64 8.64,-3.61 4.61,10.8 3.91,20.4 -0.7,9.6 -3.54,23.61 5.1,20.11 8.64,-3.5 8.64,13.78 0,8.64 C 44.46,71.61 48.74,86.4 48,96 M 5,0 h 86 a 5,5 0 0 1 5,5 v 86 a 5,5 0 0 1 -5,5 H 5 A 5,5 0 0 1 0,91 V 5 A 5,5 0 0 1 5,0"
       id="path6" />
  </g>
  <g
     inkscape:groupmode="layer"
     id="layer2"
     inkscape:label="pieces"
     style="display:inline">
    <path
       style="fill:#de8787;fill-opacity:1;stroke:none;stroke-width:0.40000001;stroke-linejoin:round;stroke-miterlimit:4;stroke-dasharray:none;stroke-opacity:1"
       d="M 5,0.15039062 C 2.3196423,0.15039062 0.15039064,2.3196423 0.15039062,5 V 47.828125 C 4.9085386,47.434571 10.832449,46.172741 15.089844,46.050781 c 2.151264,-0.06163 3.884453,0.155898 4.841797,0.996094 0.478671,0.420098 0.748025,1.002783 0.748047,1.742187 2e-5,0.739405 -0.257092,1.635852 -0.804688,2.728516 -1.062111,2.124223 -0.792092,3.658647 0.113281,4.69336 0.905373,1.034712 2.485599,1.568359 4.072266,1.568359 1.586667,0 3.166892,-0.533648 4.072265,-1.568359 0.905375,-1.034714 1.175393,-2.569137 0.113282,-4.69336 -0.544876,-1.09228 -0.802688,-1.979276 -0.804688,-2.705078 -0.002,-0.725802 0.265286,-1.292731 0.740235,-1.691406 0.949896,-0.797355 2.664879,-0.961405 4.798828,-0.865235 4.23002,0.190632 10.132446,1.45574 14.886719,1.580079 0.363624,-4.790936 1.516489,-10.708154 1.53125,-14.990235 0.0075,-2.162275 -0.289041,-3.896727 -1.070313,-4.835937 -0.390636,-0.469606 -0.893764,-0.750444 -1.574219,-0.814454 -0.680455,-0.06401 -1.539932,0.09776 -2.605468,0.542969 -2.199278,0.918911 -3.901428,0.507638 -5.021485,-0.564453 -1.120056,-1.072091 -1.666015,-2.772448 -1.666015,-4.425781 0,-1.653333 0.544657,-3.27314 1.675781,-4.169922 1.131123,-0.896782 2.837024,-1.024335 5.029297,0.251953 1.068742,0.622196 1.934439,0.937946 2.617187,1.003906 0.682748,0.06596 1.177495,-0.106306 1.560547,-0.472656 0.766103,-0.7327 1.066747,-2.324123 1.060547,-4.394531 C 49.391992,10.8631 48.237542,4.9431648 47.865234,0.15039062 Z"
       id="path48"
       inkscape:connector-curvature="0" />
    <path
       style="fill:#de8787;fill-opacity:1;stroke:none;stroke-width:0.40000001;stroke-linejoin:round;stroke-miterlimit:4;stroke-dasharray:none;stroke-opacity:1"
       d="M 48.169922,0.15039062 C 48.541968,4.9097964 49.692627,10.8123 49.705078,14.964844 c 0.0063,2.098342 -0.264775,3.762544 -1.154297,4.613281 -0.444761,0.425369 -1.047982,0.627047 -1.796875,0.554687 -0.748893,-0.07236 -1.648977,-0.407664 -2.740234,-1.042968 -2.127728,-1.238712 -3.66253,-1.093062 -4.691406,-0.277344 -1.028877,0.815718 -1.5625,2.34888 -1.5625,3.935547 0,1.586667 0.534275,3.213575 1.574218,4.208984 1.039944,0.995409 2.576544,1.389995 4.697266,0.503907 1.094463,-0.457295 1.99983,-0.635014 2.75,-0.564454 0.75017,0.07056 1.343683,0.398199 1.779297,0.921875 0.871228,1.047352 1.144219,2.840322 1.136719,5.029297 -0.01492,4.329333 -1.164245,10.234333 -1.527344,14.992188 4.74218,0.07735 10.370485,-0.986646 14.458984,-1.035156 2.066963,-0.02452 3.74854,0.20328 4.734375,1.035156 0.492918,0.415938 0.800671,0.988497 0.869141,1.722656 0.06847,0.734159 -0.09277,1.627131 -0.511719,2.720703 -0.814373,2.119332 -0.3682,3.659262 0.664063,4.701172 1.032262,1.04191 2.678958,1.576172 4.265625,1.576172 1.586666,0 3.097708,-0.534225 3.876953,-1.560547 0.779244,-1.026322 0.875444,-2.562278 -0.435547,-4.691406 -0.673623,-1.091952 -1.025243,-2.001233 -1.095703,-2.767578 -0.07046,-0.766346 0.151672,-1.392579 0.607422,-1.861328 0.9115,-0.937501 2.684554,-1.275222 4.904296,-1.326172 4.392783,-0.100826 10.57094,0.977157 15.341797,1.478515 V 5 C 95.849609,2.3196423 93.680358,0.15039063 91,0.15039062 Z"
       id="path46"
       inkscape:connector-curvature="0" />
    <path
       style="fill:#de8787;fill-opacity:1;stroke:none;stroke-width:0.40000001;stroke-linejoin:round;stroke-miterlimit:4;stroke-dasharray:none;stroke-opacity:1"
       d="M 15.097656,46.349609 C 10.885669,46.470268 4.9453503,47.738833 0.15039062,48.132812 V 91 C 0.15039063,93.680358 2.3196423,95.849609 5,95.849609 H 47.847656 C 48.190215,91.09708 47.335338,85.084734 47.4375,80.84375 c 0.05154,-2.139615 0.333374,-3.837965 1.21875,-4.710938 0.442688,-0.436485 1.043638,-0.646268 1.789062,-0.574218 0.745427,0.07205 1.639225,0.413311 2.730469,1.0625 2.128262,1.266118 3.663488,1.137809 4.691407,0.335937 1.027917,-0.801872 1.5625,-2.325442 1.5625,-3.912109 0,-1.586667 -0.533519,-3.221086 -1.574219,-4.230469 C 56.814768,67.80507 55.276441,67.391126 53.15625,68.25 c -1.094813,0.443499 -2.018679,0.612729 -2.798828,0.542969 -0.78015,-0.06976 -1.41457,-0.385321 -1.90625,-0.894531 -0.983361,-1.018423 -1.4105,-2.774514 -1.552734,-4.921876 -0.281757,-4.25377 0.581499,-10.076105 0.9375,-14.841796 -4.797856,-0.128615 -10.693188,-1.389931 -14.869141,-1.578125 -2.109801,-0.09508 -3.768959,0.102586 -4.59375,0.794921 -0.412396,0.34617 -0.632659,0.806154 -0.630859,1.460938 0.0018,0.654784 0.23886,1.502592 0.771484,2.570312 1.097888,2.195778 0.828377,3.900103 -0.15625,5.025391 -0.984627,1.125288 -2.643542,1.671875 -4.296875,1.671875 -1.653333,0 -3.314201,-0.546587 -4.298828,-1.671875 -0.984627,-1.125288 -1.254139,-2.829613 -0.15625,-5.025391 0.534903,-1.067336 0.773456,-1.924638 0.773437,-2.59375 -1.8e-5,-0.669109 -0.225547,-1.149863 -0.644531,-1.517578 -0.837969,-0.735429 -2.511733,-0.982745 -4.636719,-0.921875 z"
       id="path44"
       inkscape:connector-curvature="0" />
    <path
       style="fill:#de8787;fill-opacity:1;stroke:none;stroke-width:0.40000001;stroke-linejoin:round;stroke-miterlimit:4;stroke-dasharray:none;stroke-opacity:1"
       d="m 80.515625,46.654297 c -2.191507,0.0503 -3.89775,0.414062 -4.695313,1.234375 -0.39878,0.410156 -0.58943,0.928494 -0.52539,1.625 0.06404,0.696506 0.393857,1.56867 1.052734,2.636719 1.349009,2.190871 1.280678,3.897571 0.419922,5.03125 -0.860756,1.133678 -2.463854,1.677734 -4.117187,1.677734 -1.653334,0 -3.370778,-0.545972 -4.478516,-1.664063 -1.107738,-1.118089 -1.578049,-2.818863 -0.732422,-5.019531 0.408551,-1.066428 0.556411,-1.918182 0.494141,-2.585937 -0.06227,-0.667755 -0.326121,-1.152266 -0.763672,-1.521485 -0.875102,-0.738436 -2.495322,-0.989073 -4.53711,-0.964843 -4.045272,0.048 -9.69731,1.121362 -14.49414,1.039062 -0.356549,4.786711 -1.219551,10.615211 -0.941406,14.814453 0.140265,2.11764 0.578439,3.808345 1.470703,4.732422 0.446132,0.462039 1.001243,0.742651 1.716797,0.806641 0.715553,0.06399 1.593016,-0.09389 2.658203,-0.525391 2.199809,-0.891126 3.902185,-0.458663 5.021484,0.626953 1.119299,1.085617 1.666016,2.793933 1.666016,4.447266 0,1.653333 -0.545654,3.267263 -1.677735,4.15039 -1.132081,0.883129 -2.837558,0.987476 -5.029296,-0.316406 -1.068757,-0.635811 -1.93027,-0.956034 -2.607422,-1.021484 -0.677153,-0.06545 -1.166205,0.111017 -1.548828,0.488281 -0.76525,0.754528 -1.077947,2.390475 -1.128907,4.505859 -0.100858,4.186833 0.752823,10.194363 0.410157,14.998047 H 91 c 2.680358,0 4.849609,-2.169251 4.849609,-4.849609 V 48.132812 C 91.056705,47.630994 84.861259,46.554557 80.515625,46.654297 Z"
       id="rect37"
       inkscape:connector-curvature="0" />
  </g>
  <g
     inkscape:groupmode="layer"
     id="layer3"
     inkscape:label="dynamic"
     style="display:inline">
    <path
       inkscape:connector-curvature="0"
       style="display:inline;fill:#ff7f2a;fill-opacity:1;stroke:none;stroke-width:0.40000001;stroke-linejoin:round;stroke-miterlimit:4;stroke-dasharray:none;stroke-opacity:1"
       d="m -23.830078,-23.849609 c 0.372046,4.759406 1.522705,10.661909 1.535156,14.814453 0.0063,2.098342 -0.264775,3.762544 -1.154297,4.613281 -0.444761,0.425369 -1.047982,0.627047 -1.796875,0.554687 -0.748893,-0.07236 -1.648977,-0.407664 -2.740234,-1.042968 -2.127728,-1.238712 -3.66253,-1.093062 -4.691406,-0.277344 -1.028877,0.815718 -1.5625,2.34888 -1.5625,3.935547 0,1.586667 0.534275,3.213575 1.574218,4.208984 1.039944,0.995409 2.576544,1.389995 4.697266,0.503907 1.094463,-0.457295 1.99983,-0.635014 2.75,-0.564454 0.75017,0.07056 1.343683,0.398199 1.779297,0.921875 0.871228,1.047352 1.144219,2.840322 1.136719,5.029297 -0.01492,4.329333 -1.164245,10.234333 -1.527344,14.992188 4.74218,0.07735 10.370485,-0.986646 14.458984,-1.035156 2.066963,-0.02452 3.74854,0.20328 4.734375,1.035156 0.492918,0.415938 0.800671,0.988497 0.869141,1.722656 0.06847,0.734159 -0.09277,1.627131 -0.511719,2.720703 -0.814373,2.119332 -0.3682,3.659262 0.664063,4.701172 1.032262,1.04191 2.678958,1.576172 4.265625,1.576172 1.586666,0 3.097708,-0.534225 3.876953,-1.560547 C 5.306588,31.973678 5.402788,30.437722 4.091797,28.308594 3.418174,27.216642 3.066554,26.307361 2.996094,25.541016 2.925634,24.77467 3.147766,24.148437 3.603516,23.679688 c 0.9115,-0.937501 2.684554,-1.275222 4.904296,-1.326172 4.392783,-0.100826 10.57094,0.977157 15.341797,1.478515 V -19 c 0,-2.680357 -2.169251,-4.849609 -4.849609,-4.849609 z"
       id="p10" />
    <path
       inkscape:connector-curvature="0"
       style="display:inline;fill:#ff7f2a;fill-opacity:1;stroke:none;stroke-width:0.40000001;stroke-linejoin:round;stroke-miterlimit:4;stroke-dasharray:none;stroke-opacity:1"
       d="m -8.902344,-25.650391 c -4.211987,0.120659 -10.152306,1.389224 -14.947265,1.783203 V 19 c 0,2.680358 2.169251,4.849609 4.849609,4.849609 H 23.847656 C 24.190215,19.09708 23.335338,13.084734 23.4375,8.84375 c 0.05154,-2.139615 0.333374,-3.837965 1.21875,-4.710938 0.442688,-0.436485 1.043638,-0.646268 1.789062,-0.574218 0.745427,0.07205 1.639225,0.413311 2.730469,1.0625 2.128262,1.266118 3.663488,1.137809 4.691407,0.335937 1.027917,-0.801872 1.5625,-2.325442 1.5625,-3.912109 0,-1.586667 -0.533519,-3.221086 -1.574219,-4.230469 C 32.814768,-4.19493 31.276441,-4.608874 29.15625,-3.75 c -1.094813,0.443499 -2.018679,0.612729 -2.798828,0.542969 -0.78015,-0.06976 -1.41457,-0.385321 -1.90625,-0.894531 -0.983361,-1.018423 -1.4105,-2.774514 -1.552734,-4.921876 -0.281757,-4.25377 0.581499,-10.076105 0.9375,-14.841796 -4.797856,-0.128615 -10.693188,-1.389931 -14.869141,-1.578125 -2.109801,-0.09508 -3.768959,0.102586 -4.59375,0.794921 -0.412396,0.34617 -0.632659,0.806154 -0.630859,1.460938 0.0018,0.654784 0.23886,1.502592 0.771484,2.570312 1.097888,2.195778 0.828377,3.900103 -0.15625,5.025391 -0.984627,1.125288 -2.643542,1.671875 -4.296875,1.671875 -1.653333,0 -3.314201,-0.546587 -4.298828,-1.671875 -0.984627,-1.125288 -1.254139,-2.829613 -0.15625,-5.025391 0.534903,-1.067336 0.773456,-1.924638 0.773437,-2.59375 -1.8e-5,-0.669109 -0.225547,-1.149863 -0.644531,-1.517578 -0.837969,-0.735429 -2.511733,-0.982745 -4.636719,-0.921875 z"
       id="p01" />
    <path
       inkscape:connector-curvature="0"
       style="display:inline;fill:#ff7f2a;fill-opacity:1;stroke:none;stroke-width:0.40000001;stroke-linejoin:round;stroke-miterlimit:4;stroke-dasharray:none;stroke-opacity:1"
       d="m 8.515625,-25.345703 c -2.191507,0.0503 -3.89775,0.414062 -4.695313,1.234375 -0.39878,0.410156 -0.58943,0.928494 -0.52539,1.625 0.06404,0.696506 0.393857,1.56867 1.052734,2.636719 1.349009,2.190871 1.280678,3.897571 0.419922,5.03125 -0.860756,1.133678 -2.463854,1.677734 -4.117187,1.677734 -1.653334,0 -3.370778,-0.545972 -4.478516,-1.664063 -1.107738,-1.118089 -1.578049,-2.818863 -0.732422,-5.019531 0.408551,-1.066428 0.556411,-1.918182 0.494141,-2.585937 -0.06227,-0.667755 -0.326121,-1.152266 -0.763672,-1.521485 -0.875102,-0.738436 -2.495322,-0.989073 -4.53711,-0.964843 -4.045272,0.048 -9.69731,1.121362 -14.49414,1.039062 -0.356549,4.786711 -1.219551,10.615211 -0.941406,14.814453 0.140265,2.11764 0.578439,3.808345 1.470703,4.732422 0.446132,0.462039 1.001243,0.742651 1.716797,0.806641 0.715553,0.06399 1.593016,-0.09389 2.658203,-0.525391 2.199809,-0.891126 3.902185,-0.458663 5.021484,0.626953 1.119299,1.085617 1.666016,2.793933 1.666016,4.447266 0,1.653333 -0.545654,3.267263 -1.677735,4.15039 -1.132081,0.883129 -2.837558,0.987476 -5.029296,-0.316406 -1.068757,-0.635811 -1.93027,-0.956034 -2.607422,-1.021484 -0.677153,-0.06545 -1.166205,0.111017 -1.548828,0.488281 -0.76525,0.754528 -1.077947,2.390475 -1.128907,4.505859 -0.100858,4.186833 0.752823,10.194363 0.410157,14.998047 H 19 c 2.680358,0 4.849609,-2.169251 4.849609,-4.849609 v -42.867188 c -4.792904,-0.501818 -10.98835,-1.578255 -15.333984,-1.478515 z"
       id="p11" />
    <path
       inkscape:connector-curvature="0"
       style="display:inline;fill:#ff7f2a;fill-opacity:1;stroke:none;stroke-width:0.40000001;stroke-linejoin:round;stroke-miterlimit:4;stroke-dasharray:none;stroke-opacity:1"
       d="m -19,-23.849609 c -2.680358,0 -4.849609,2.169252 -4.849609,4.849609 v 42.828125 c 4.758148,-0.393554 10.682058,-1.655384 14.939453,-1.777344 2.151264,-0.06163 3.884453,0.155898 4.841797,0.996094 0.478671,0.420098 0.748025,1.002783 0.748047,1.742187 2e-5,0.739405 -0.257092,1.635852 -0.804688,2.728516 -1.062111,2.124223 -0.792092,3.658647 0.113281,4.69336 0.905373,1.034712 2.485599,1.568359 4.072266,1.568359 1.586667,0 3.166892,-0.533648 4.072265,-1.568359 0.905375,-1.034714 1.175393,-2.569137 0.113282,-4.69336 -0.544876,-1.09228 -0.802688,-1.979276 -0.804688,-2.705078 -0.002,-0.725802 0.265286,-1.292731 0.740235,-1.691406 0.949896,-0.797355 2.664879,-0.961405 4.798828,-0.865235 4.23002,0.190632 10.132446,1.45574 14.886719,1.580079 0.363624,-4.790936 1.516489,-10.708154 1.53125,-14.990235 C 25.405938,6.683428 25.109397,4.948976 24.328125,4.009766 23.937489,3.54016 23.434361,3.259322 22.753906,3.195312 22.073451,3.131302 21.213974,3.293072 20.148438,3.738281 17.94916,4.657192 16.24701,4.245919 15.126953,3.173828 14.006897,2.101737 13.460938,0.40138 13.460938,-1.251953 c 0,-1.653333 0.544657,-3.27314 1.675781,-4.169922 1.131123,-0.896782 2.837024,-1.024335 5.029297,0.251953 1.068742,0.622196 1.934439,0.937946 2.617187,1.003906 0.682748,0.06596 1.177495,-0.106306 1.560547,-0.472656 0.766103,-0.7327 1.066747,-2.324123 1.060547,-4.394531 -0.01231,-4.103697 -1.166755,-10.023632 -1.539063,-14.816406 z"
       id="p00" />
  </g>
  <g
     inkscape:groupmode="layer"
     id="layer4"
     inkscape:label="template"
     style="display:inline">
    <rect
       style="display:inline;fill:none;fill-opacity:1;stroke:#092362;stroke-width:0.40000001;stroke-linejoin:round;stroke-miterlimit:4;stroke-dasharray:none;stroke-opacity:1"
       id="rect908"
       width="48"
       height="48"
       x="-24"
       y="-24" />
    <rect
       y="-36"
       x="-36"
       height="72"
       width="72"
       id="rect910"
       style="display:inline;fill:none;fill-opacity:1;stroke:#092362;stroke-width:0.59968168;stroke-linejoin:round;stroke-miterlimit:4;stroke-dasharray:none;stroke-opacity:1" />
  </g>
</svg>
