<?xml version="1.0" encoding="UTF-8" standalone="no"?>
<!-- Created with Inkscape (http://www.inkscape.org/) -->
<svg
   xmlns:svg="http://www.w3.org/2000/svg"
   xmlns="http://www.w3.org/2000/svg"
   version="1.0"
   width="100%"
   height="100%"
   viewBox="0 0 48 48"
   id="svg2383">
  <defs
     id="defs2385" />
  <rect
     width="48"
     height="48"
     ry="5.2857141"
     x="0"
     y="0"
     id="rect2393"
     style="fill:#ffffff;fill-opacity:1;fill-rule:evenodd;stroke:none;stroke-width:1;stroke-linecap:butt;stroke-linejoin:miter;marker:none;marker-start:none;marker-mid:none;marker-end:none;stroke-miterlimit:4;stroke-dasharray:none;stroke-dashoffset:0;stroke-opacity:1;visibility:visible;display:inline;overflow:visible;enable-background:accumulate" />
  <rect
     width="44"
     height="44"
     ry="5.2857141"
     x="2"
     y="2"
     id="rect3165"
     style="fill:#55ddff;fill-opacity:1;fill-rule:evenodd;stroke:none;stroke-width:1;stroke-linecap:butt;stroke-linejoin:miter;marker:none;marker-start:none;marker-mid:none;marker-end:none;stroke-miterlimit:4;stroke-dasharray:none;stroke-dashoffset:0;stroke-opacity:1;visibility:visible;display:inline;overflow:visible;enable-background:accumulate" />
  <path
     d="M 7.28125,2 C 4.3529644,2 2,4.3529644 2,7.28125 L 2,14.15625 C 7.7634036,16.742619 15.339518,18.34375 23.6875,18.34375 C 32.319606,18.34375 40.172268,16.651235 46,13.90625 L 46,7.28125 C 46,4.3529644 43.647035,2 40.71875,2 L 7.28125,2 z"
     id="path3958"
     style="fill:#ccf6ff;fill-opacity:0.28181817;fill-rule:evenodd;stroke:none;stroke-width:1;stroke-linecap:butt;stroke-linejoin:miter;marker:none;marker-start:none;marker-mid:none;marker-end:none;stroke-miterlimit:4;stroke-dasharray:none;stroke-dashoffset:0;stroke-opacity:1;visibility:visible;display:inline;overflow:visible;enable-background:accumulate" />
  <text
     x="52.42857"
     y="21.285713"
     id="text3728"
     xml:space="preserve"
     style="font-size:64px;font-style:normal;font-variant:normal;font-weight:normal;font-stretch:normal;text-align:start;line-height:80.00000119%;writing-mode:lr-tb;text-anchor:start;fill:#000000;fill-opacity:1;stroke:none;stroke-width:1px;stroke-linecap:butt;stroke-linejoin:miter;stroke-opacity:1;font-family:Arial Black;-inkscape-font-specification:Arial Black"><tspan
       x="52.42857"
       y="21.285713"
       id="tspan3730" /></text>
  <path
     d="M 24,6.6559418 C 23.863873,6.6559418 19.485129,19.388428 19.375,19.468442 C 19.264871,19.548455 5.8233155,19.776478 5.78125,19.905942 C 5.7391844,20.035407 16.489185,28.120228 16.53125,28.249692 C 16.573316,28.379157 12.639871,41.26343 12.75,41.343442 C 12.860129,41.423455 23.863873,33.687193 24,33.687192 C 24.136127,33.687192 35.139872,41.423454 35.25,41.343442 C 35.360129,41.263429 31.426684,28.379157 31.46875,28.249692 C 31.510816,28.120227 42.260816,20.035406 42.21875,19.905942 C 42.176684,19.776477 28.73513,19.548455 28.625,19.468442 C 28.514871,19.388429 24.136128,6.6559416 24,6.6559418 z"
     id="path2396"
     style="opacity:1;fill:#1399c1;fill-opacity:1;fill-rule:evenodd;stroke:none;stroke-width:2.5;stroke-linecap:round;stroke-linejoin:round;marker:none;marker-start:none;marker-mid:none;marker-end:none;stroke-miterlimit:4;stroke-dasharray:none;stroke-dashoffset:0;stroke-opacity:1;visibility:visible;display:inline;overflow:visible;enable-background:accumulate" />
</svg>
