<?xml version="1.0" encoding="UTF-8" standalone="no"?>
<!-- Created with Inkscape (http://www.inkscape.org/) -->
<svg
   xmlns:svg="http://www.w3.org/2000/svg"
   xmlns="http://www.w3.org/2000/svg"
   version="1.0"
   width="100%"
   height="100%"
   viewBox="0 0 48 48"
   id="svg2383">
  <defs
     id="defs2385" />
  <rect
     width="48"
     height="48"
     ry="5.2857141"
     x="0"
     y="0"
     id="rect2393"
     style="fill:#ffffff;fill-opacity:1;fill-rule:evenodd;stroke:none;stroke-width:1;stroke-linecap:butt;stroke-linejoin:miter;marker:none;marker-start:none;marker-mid:none;marker-end:none;stroke-miterlimit:4;stroke-dasharray:none;stroke-dashoffset:0;stroke-opacity:1;visibility:visible;display:inline;overflow:visible;enable-background:accumulate" />
  <rect
     width="44"
     height="44"
     ry="5.2857141"
     x="2"
     y="2"
     id="rect3165"
     style="fill:#e44a4a;fill-opacity:1;fill-rule:evenodd;stroke:none;stroke-width:1;stroke-linecap:butt;stroke-linejoin:miter;marker:none;marker-start:none;marker-mid:none;marker-end:none;stroke-miterlimit:4;stroke-dasharray:none;stroke-dashoffset:0;stroke-opacity:1;visibility:visible;display:inline;overflow:visible;enable-background:accumulate" />
  <path
     d="M 7.28125,2 C 4.3529644,2 2,4.3529644 2,7.28125 L 2,14.15625 C 7.7634036,16.742619 15.339518,18.34375 23.6875,18.34375 C 32.319606,18.34375 40.172268,16.651235 46,13.90625 L 46,7.28125 C 46,4.3529644 43.647035,2 40.71875,2 L 7.28125,2 z"
     id="path3958"
     style="fill:#ffcccc;fill-opacity:0.28181817;fill-rule:evenodd;stroke:none;stroke-width:1;stroke-linecap:butt;stroke-linejoin:miter;marker:none;marker-start:none;marker-mid:none;marker-end:none;stroke-miterlimit:4;stroke-dasharray:none;stroke-dashoffset:0;stroke-opacity:1;visibility:visible;display:inline;overflow:visible;enable-background:accumulate" />
  <text
     x="52.42857"
     y="21.285713"
     id="text3728"
     xml:space="preserve"
     style="font-size:64px;font-style:normal;font-variant:normal;font-weight:normal;font-stretch:normal;text-align:start;line-height:80.00000119%;writing-mode:lr-tb;text-anchor:start;fill:#000000;fill-opacity:1;stroke:none;stroke-width:1px;stroke-linecap:butt;stroke-linejoin:miter;stroke-opacity:1;font-family:Arial Black;-inkscape-font-specification:Arial Black"><tspan
       x="52.42857"
       y="21.285713"
       id="tspan3730" /></text>
  <path
     d="M 12.5625,5.1404604 C 12.489482,5.1404606 10.121573,11.972541 10.0625,12.01546 C 10.003428,12.058379 2.8038139,12.164766 2.7812502,12.23421 C 2.7586865,12.303654 8.5086862,16.633515 8.5312502,16.70296 C 8.5538133,16.772403 6.4721775,23.691292 6.5312502,23.73421 C 6.5903225,23.77713 12.489482,19.60921 12.5625,19.60921 C 12.635518,19.60921 18.534678,23.777128 18.59375,23.73421 C 18.652821,23.691293 16.539937,16.772404 16.5625,16.70296 C 16.585064,16.633514 22.366314,12.303653 22.34375,12.23421 C 22.321186,12.164765 15.090323,12.058379 15.03125,12.01546 C 14.972177,11.972542 12.635518,5.1404603 12.5625,5.1404604 z"
     id="path2396"
     style="fill:#ca3b3b;fill-opacity:1;fill-rule:evenodd;stroke:none;stroke-width:2.5;stroke-linecap:round;stroke-linejoin:round;marker:none;marker-start:none;marker-mid:none;marker-end:none;stroke-miterlimit:4;stroke-dasharray:none;stroke-dashoffset:0;stroke-opacity:1;visibility:visible;display:inline;overflow:visible;enable-background:accumulate" />
  <path
     d="M 23.8125,24.26546 C 23.739481,24.265461 21.402823,31.097541 21.34375,31.14046 C 21.284679,31.183379 14.053814,31.289766 14.03125,31.35921 C 14.008686,31.428653 19.758686,35.758515 19.78125,35.82796 C 19.803813,35.897403 17.722177,42.816292 17.78125,42.85921 C 17.840322,42.902127 23.739482,38.73421 23.8125,38.73421 C 23.885517,38.734211 29.784678,42.902128 29.84375,42.85921 C 29.902822,42.81629 27.789937,35.897404 27.8125,35.82796 C 27.835065,35.758514 33.616314,31.428653 33.59375,31.35921 C 33.571185,31.289764 26.340323,31.183379 26.28125,31.14046 C 26.222177,31.097542 23.885518,24.26546 23.8125,24.26546 z"
     id="path3219"
     style="fill:#ca3b3b;fill-opacity:1;fill-rule:evenodd;stroke:none;stroke-width:2.5;stroke-linecap:round;stroke-linejoin:round;marker:none;marker-start:none;marker-mid:none;marker-end:none;stroke-miterlimit:4;stroke-dasharray:none;stroke-dashoffset:0;stroke-opacity:1;visibility:visible;display:inline;overflow:visible;enable-background:accumulate" />
  <path
     d="M 35.4375,5.1404604 C 35.364483,5.1404606 32.996573,11.972541 32.9375,12.01546 C 32.878429,12.058379 25.678814,12.164766 25.65625,12.23421 C 25.633688,12.303654 31.383686,16.633515 31.40625,16.70296 C 31.428813,16.772403 29.347177,23.691292 29.40625,23.73421 C 29.465322,23.77713 35.364482,19.60921 35.4375,19.60921 C 35.510519,19.60921 41.409678,23.777128 41.46875,23.73421 C 41.527824,23.691293 39.414937,16.772404 39.4375,16.70296 C 39.460067,16.633514 45.241314,12.303653 45.21875,12.23421 C 45.196187,12.164765 37.965323,12.058379 37.90625,12.01546 C 37.847179,11.972542 35.510518,5.1404603 35.4375,5.1404604 z"
     id="path3221"
     style="fill:#ca3b3b;fill-opacity:1;fill-rule:evenodd;stroke:none;stroke-width:2.5;stroke-linecap:round;stroke-linejoin:round;marker:none;marker-start:none;marker-mid:none;marker-end:none;stroke-miterlimit:4;stroke-dasharray:none;stroke-dashoffset:0;stroke-opacity:1;visibility:visible;display:inline;overflow:visible;enable-background:accumulate" />
</svg>
