<?xml version="1.0" encoding="UTF-8" standalone="no"?>
<!-- Created with Inkscape (http://www.inkscape.org/) -->
<svg
   xmlns:svg="http://www.w3.org/2000/svg"
   xmlns="http://www.w3.org/2000/svg"
   version="1.0"
   width="100%"
   height="100%"
   viewBox="0 0 48 48"
   id="svg2383">
  <defs
     id="defs2385" />
  <rect
     width="48"
     height="48"
     ry="5.2857141"
     x="0"
     y="0"
     id="rect2393"
     style="fill:#ffffff;fill-opacity:1;fill-rule:evenodd;stroke:none;stroke-width:1;stroke-linecap:butt;stroke-linejoin:miter;marker:none;marker-start:none;marker-mid:none;marker-end:none;stroke-miterlimit:4;stroke-dasharray:none;stroke-dashoffset:0;stroke-opacity:1;visibility:visible;display:inline;overflow:visible;enable-background:accumulate" />
  <rect
     width="44"
     height="44"
     ry="5.2857141"
     x="2"
     y="2"
     id="rect3165"
     style="fill:#4fe44a;fill-opacity:1;fill-rule:evenodd;stroke:none;stroke-width:1;stroke-linecap:butt;stroke-linejoin:miter;marker:none;marker-start:none;marker-mid:none;marker-end:none;stroke-miterlimit:4;stroke-dasharray:none;stroke-dashoffset:0;stroke-opacity:1;visibility:visible;display:inline;overflow:visible;enable-background:accumulate" />
  <path
     d="M 7.28125,2 C 4.3529644,2 2,4.3529644 2,7.28125 L 2,14.15625 C 7.7634036,16.742619 15.339518,18.34375 23.6875,18.34375 C 32.319606,18.34375 40.172268,16.651235 46,13.90625 L 46,7.28125 C 46,4.3529644 43.647035,2 40.71875,2 L 7.28125,2 z"
     id="path3958"
     style="fill:#ccffd1;fill-opacity:0.28181817;fill-rule:evenodd;stroke:none;stroke-width:1;stroke-linecap:butt;stroke-linejoin:miter;marker:none;marker-start:none;marker-mid:none;marker-end:none;stroke-miterlimit:4;stroke-dasharray:none;stroke-dashoffset:0;stroke-opacity:1;visibility:visible;display:inline;overflow:visible;enable-background:accumulate" />
  <text
     x="52.42857"
     y="21.285713"
     id="text3728"
     xml:space="preserve"
     style="font-size:64px;font-style:normal;font-variant:normal;font-weight:normal;font-stretch:normal;text-align:start;line-height:80.00000119%;writing-mode:lr-tb;text-anchor:start;fill:#000000;fill-opacity:1;stroke:none;stroke-width:1px;stroke-linecap:butt;stroke-linejoin:miter;stroke-opacity:1;font-family:Arial Black;-inkscape-font-specification:Arial Black"><tspan
       x="52.42857"
       y="21.285713"
       id="tspan3730" /></text>
  <path
     d="M 12.5625,4.3603856 C 12.489482,4.3603858 10.121573,11.192467 10.0625,11.235385 C 10.003428,11.278304 2.8038139,11.384691 2.7812502,11.454135 C 2.7586865,11.52358 8.5086862,15.85344 8.5312502,15.922885 C 8.5538133,15.992328 6.4721775,22.911218 6.5312502,22.954136 C 6.5903225,22.997056 12.489482,18.829136 12.5625,18.829136 C 12.635518,18.829136 18.534678,22.997054 18.59375,22.954136 C 18.652821,22.911219 16.539937,15.99233 16.5625,15.922885 C 16.585064,15.85344 22.366314,11.523578 22.34375,11.454135 C 22.321186,11.38469 15.090323,11.278304 15.03125,11.235385 C 14.972177,11.192467 12.635518,4.3603855 12.5625,4.3603856 z"
     id="path2396"
     style="fill:#3bb533;fill-opacity:1;fill-rule:evenodd;stroke:none;stroke-width:2.5;stroke-linecap:round;stroke-linejoin:round;marker:none;marker-start:none;marker-mid:none;marker-end:none;stroke-miterlimit:4;stroke-dasharray:none;stroke-dashoffset:0;stroke-opacity:1;visibility:visible;display:inline;overflow:visible;enable-background:accumulate" />
  <path
     d="M 35.4375,4.3603856 C 35.364483,4.3603858 32.996573,11.192467 32.9375,11.235385 C 32.878429,11.278304 25.678814,11.384691 25.65625,11.454135 C 25.633688,11.52358 31.383686,15.85344 31.40625,15.922885 C 31.428813,15.992328 29.347177,22.911218 29.40625,22.954136 C 29.465322,22.997056 35.364482,18.829136 35.4375,18.829136 C 35.510519,18.829136 41.409678,22.997054 41.46875,22.954136 C 41.527824,22.911219 39.414937,15.99233 39.4375,15.922885 C 39.460067,15.85344 45.241314,11.523578 45.21875,11.454135 C 45.196187,11.38469 37.965323,11.278304 37.90625,11.235385 C 37.847179,11.192467 35.510518,4.3603855 35.4375,4.3603856 z"
     id="path3221"
     style="fill:#3bb533;fill-opacity:1;fill-rule:evenodd;stroke:none;stroke-width:2.5;stroke-linecap:round;stroke-linejoin:round;marker:none;marker-start:none;marker-mid:none;marker-end:none;stroke-miterlimit:4;stroke-dasharray:none;stroke-dashoffset:0;stroke-opacity:1;visibility:visible;display:inline;overflow:visible;enable-background:accumulate" />
  <path
     d="M 12.5625,25.045535 C 12.489482,25.045535 10.121573,31.877616 10.0625,31.920535 C 10.003428,31.963454 2.8038139,32.069841 2.7812502,32.139285 C 2.7586865,32.208729 8.5086862,36.53859 8.5312502,36.608035 C 8.5538133,36.677478 6.4721775,43.596367 6.5312502,43.639285 C 6.5903225,43.682205 12.489482,39.514285 12.5625,39.514285 C 12.635518,39.514285 18.534678,43.682203 18.59375,43.639285 C 18.652821,43.596368 16.539937,36.677479 16.5625,36.608035 C 16.585064,36.538589 22.366314,32.208728 22.34375,32.139285 C 22.321186,32.06984 15.090323,31.963454 15.03125,31.920535 C 14.972177,31.877617 12.635518,25.045535 12.5625,25.045535 z"
     id="path3258"
     style="fill:#3bb533;fill-opacity:1;fill-rule:evenodd;stroke:none;stroke-width:2.5;stroke-linecap:round;stroke-linejoin:round;marker:none;marker-start:none;marker-mid:none;marker-end:none;stroke-miterlimit:4;stroke-dasharray:none;stroke-dashoffset:0;stroke-opacity:1;visibility:visible;display:inline;overflow:visible;enable-background:accumulate" />
  <path
     d="M 35.4375,25.045535 C 35.364483,25.045535 32.996573,31.877616 32.9375,31.920535 C 32.878429,31.963454 25.678814,32.069841 25.65625,32.139285 C 25.633688,32.208729 31.383686,36.53859 31.40625,36.608035 C 31.428813,36.677478 29.347177,43.596367 29.40625,43.639285 C 29.465322,43.682205 35.364482,39.514285 35.4375,39.514285 C 35.510519,39.514285 41.409678,43.682203 41.46875,43.639285 C 41.527824,43.596368 39.414937,36.677479 39.4375,36.608035 C 39.460067,36.538589 45.241314,32.208728 45.21875,32.139285 C 45.196187,32.06984 37.965323,31.963454 37.90625,31.920535 C 37.847179,31.877617 35.510518,25.045535 35.4375,25.045535 z"
     id="path3260"
     style="fill:#3bb533;fill-opacity:1;fill-rule:evenodd;stroke:none;stroke-width:2.5;stroke-linecap:round;stroke-linejoin:round;marker:none;marker-start:none;marker-mid:none;marker-end:none;stroke-miterlimit:4;stroke-dasharray:none;stroke-dashoffset:0;stroke-opacity:1;visibility:visible;display:inline;overflow:visible;enable-background:accumulate" />
</svg>
