<?xml version="1.0" encoding="UTF-8" standalone="no"?>
<svg xmlns:svg="http://www.w3.org/2000/svg" xmlns="http://www.w3.org/2000/svg" version="1.0" width="100%" height="100%" viewBox="0 0 48 48" id="svg2383">
<defs id="defs2385"/>
<g id="g2385">
<rect width="40" height="40" ry="2.5" x="4" y="4" id="r2393" style="fill:#e4e4e4;fill-opacity:1;fill-rule:evenodd;stroke:#acacac;stroke-width:7;stroke-linecap:round;stroke-linejoin:miter;marker:none;stroke-miterlimit:4;stroke-dasharray:none;stroke-dashoffset:0;stroke-opacity:1;visibility:visible;display:inline;overflow:visible;enable-background:accumulate"/>
<path d="M 24,42.15 C 23.36,42.15 22.7,41.92 22.21,41.43 L 5.96,25.15 C 4.98,24.17 4.98,22.6 5.96,21.62 L 6.18,21.4 L 16,21.4 L 16,7.59 C 16,6.2 17.11,5.09 18.5,5.09 L 29.5,5.09 C 30.88,5.09 32,6.2 32,7.59 L 32,21.4 L 41.81,21.4 L 42.03,21.62 C 43.01,22.6 43.01,24.17 42.03,25.15 L 25.78,41.43 C 25.29,41.92 24.63,42.15 24,42.15 z" id="r3165" style="fill:#5b5b5b;fill-opacity:1;fill-rule:evenodd;stroke:none;marker:none;visibility:visible;display:inline;overflow:visible;enable-background:accumulate"/>
</g>
</svg>
