<?xml version="1.0" encoding="UTF-8" standalone="no"?>

<svg xmlns:svg="http://www.w3.org/2000/svg" xmlns="http://www.w3.org/2000/svg" version="1.0" width="100%" height="100%" viewBox="0 0 48 48" id="svg2383">
<defs id="defs2385"/>
<rect width="40" height="40" ry="2.5" x="4" y="4" id="r2393" style="fill:#e4e4e4;fill-opacity:1;fill-rule:evenodd;stroke:#ffffff;stroke-width:7;stroke-linecap:round;stroke-linejoin:miter;marker:none;stroke-miterlimit:4;stroke-dasharray:none;stroke-dashoffset:0;stroke-opacity:1;visibility:visible;display:inline;overflow:visible;enable-background:accumulate"/>
<path d="M 17.43,11.75 L 21.14,14.9 L 26.14,14.9 L 29.89,11.75 L 17.43,11.75 z" id="p2409" style="fill:#b3b3b3;fill-opacity:1;fill-rule:evenodd;stroke:none"/>
<path d="M 16.74,12.65 L 16.74,22.96 L 20.52,19.9 L 20.52,15.71 L 16.74,12.65 z" id="p2407" style="fill:#b3b3b3;fill-opacity:1;fill-rule:evenodd;stroke:none"/>
<path d="M 30.71,12.65 L 26.93,15.71 L 26.93,19.9 L 30.71,22.96 L 30.71,12.65 z" id="p2405" style="fill:#333333;fill-opacity:1;fill-rule:evenodd;stroke:none"/>
<path d="M 19.52,21.87 L 17.58,23.43 L 19.52,25 L 21.93,25 L 25.52,25 L 27.93,25 L 29.86,23.43 L 27.93,21.87 L 25.52,21.87 L 21.93,21.87 L 19.52,21.87 z" id="p2403" style="fill:#b3b3b3;fill-opacity:1;fill-rule:evenodd;stroke:none"/>
<path d="M 16.74,23.87 L 16.74,34.18 L 20.52,31.12 L 20.52,26.93 L 16.74,23.87 z" id="p2401" style="fill:#b3b3b3;fill-opacity:1;fill-rule:evenodd;stroke:none"/>
<path d="M 30.71,23.87 L 26.93,26.93 L 26.93,31.12 L 30.71,34.18 L 30.71,23.87 z" id="p2399" style="fill:#333333;fill-opacity:1;fill-rule:evenodd;stroke:none"/>
<path d="M 21.14,31.96 L 17.43,35.09 L 29.89,35.09 L 26.14,31.96 L 21.14,31.96 z" id="p2383" style="fill:#b3b3b3;fill-opacity:1;fill-rule:evenodd;stroke:none"/>
<g id="g3325">
<path d="M 9.18,5.56 C 4.66,5.56 0.96,9.25 0.96,13.78 C 0.96,18.3 4.66,21.96 9.18,21.96 C 13.71,21.96 17.37,18.3 17.37,13.78 C 17.37,9.25 13.71,5.56 9.18,5.56 z" id="p3242" style="fill:#333333;fill-opacity:1;fill-rule:evenodd;stroke:none;marker:none;visibility:visible;display:inline;overflow:visible;enable-background:accumulate"/>
<path d="M 10.46,15.81 C 9.44,15.81 8.43,15.81 7.41,15.81 C 7.38,15.06 7.48,14.25 8.02,13.66 C 8.63,13 9.43,12.54 10.08,11.92 C 10.52,11.53 10.36,10.74 9.74,10.59 C 9.1,10.4 8.28,10.66 8.06,11.28 C 7.83,11.53 8.08,12.23 7.57,12.05 C 6.63,11.94 5.69,11.84 4.75,11.73 C 4.84,10.38 5.71,9 7.17,8.55 C 8.36,8.18 9.68,8.16 10.91,8.41 C 12.26,8.71 13.51,9.72 13.6,11.04 C 13.73,11.92 13.21,12.74 12.51,13.3 C 11.9,13.87 11.05,14.25 10.62,14.97 C 10.49,15.23 10.46,15.52 10.46,15.81 L 10.46,15.81 z M 7.31,16.55 C 8.39,16.55 9.48,16.55 10.57,16.55 C 10.57,17.42 10.57,18.3 10.57,19.18 C 9.48,19.18 8.39,19.18 7.31,19.18 C 7.31,18.3 7.31,17.42 7.31,16.55 z" id="text3234" style="font-size:12.35px;font-style:normal;font-variant:normal;font-weight:normal;font-stretch:normal;text-align:start;line-height:80.00%;writing-mode:lr-tb;text-anchor:start;fill:#ffffff;fill-opacity:1;stroke:none;font-family:Arial Black;-inkscape-font-specification:Arial Black"/>
</g>
</svg>
