<?xml version="1.0" encoding="UTF-8" standalone="no"?>
<svg xmlns:svg="http://www.w3.org/2000/svg" xmlns="http://www.w3.org/2000/svg" version="1.0" width="100%" height="100%" viewBox="0 0 48 48" id="svg2383">
<defs id="defs2385"/>
<rect width="40" height="40" ry="2.5" x="4" y="4" id="r2393" style="fill:#e4e4e4;fill-opacity:1;fill-rule:evenodd;stroke:#ffffff;stroke-width:7;stroke-linecap:round;stroke-linejoin:miter;marker:none;stroke-miterlimit:4;stroke-dasharray:none;stroke-dashoffset:0;stroke-opacity:1;visibility:visible;display:inline;overflow:visible;enable-background:accumulate"/>
<path d="M 10.93,12.18 L 9.43,24.56 L 13.46,25.37 C 13.84,24.79 14.21,24.37 14.53,24.15 C 14.95,23.85 15.38,23.71 15.84,23.71 C 16.56,23.71 17.12,24.01 17.56,24.65 C 17.99,25.29 18.21,26.31 18.21,27.68 C 18.21,29.02 17.99,30.03 17.56,30.71 C 17.13,31.38 16.59,31.71 15.93,31.71 C 15.34,31.71 14.86,31.47 14.43,30.93 C 14.01,30.39 13.74,29.59 13.62,28.56 L 8.81,29.25 C 9.04,30.32 9.33,31.24 9.68,31.96 C 10.03,32.69 10.50,33.33 11.06,33.90 C 11.62,34.47 12.29,34.89 13.09,35.18 C 13.89,35.47 14.87,35.62 16,35.62 C 17.56,35.62 18.84,35.25 19.84,34.53 C 20.85,33.80 21.61,32.77 22.15,31.40 C 22.70,30.03 22.99,28.58 23,27.09 C 22.99,24.97 22.46,23.23 21.40,21.84 C 20.34,20.45 18.95,19.75 17.25,19.75 C 16.74,19.75 16.23,19.83 15.71,20 C 15.20,20.16 14.68,20.41 14.15,20.75 L 14.56,17.31 L 22.18,17.31 L 22.18,12.18 L 10.93,12.18 z M 24.31,18.53 L 28.56,26.5 L 24.06,35.21 L 29.18,35.21 L 31.87,29.84 L 34.15,35.21 L 39.65,35.21 L 35.15,26.5 L 39.37,18.53 L 34.15,18.53 L 31.87,23.18 L 29.90,18.53 L 24.31,18.53 z" id="text3155" style="font-size:27.66px;font-style:normal;font-variant:normal;font-weight:normal;font-stretch:normal;fill:#5b5b5b;fill-opacity:1;stroke:none;font-family:Arial Black;-inkscape-font-specification:Arial Black"/>
</svg>
