<?xml version="1.0" encoding="UTF-8" standalone="no"?>
<!-- Created with Inkscape (http://www.inkscape.org/) -->

<svg
 xmlns:dc="http://purl.org/dc/elements/1.1/"
 xmlns:cc="http://creativecommons.org/ns#"
 xmlns:rdf="http://www.w3.org/1999/02/22-rdf-syntax-ns#"
 xmlns:svg="http://www.w3.org/2000/svg"
 xmlns="http://www.w3.org/2000/svg"
 version="1.0"
 width="100%"
 height="100%"
 viewBox="0 0 48 48"
 id="ontology">
<metadata
 id="metadata7">
<rdf:RDF>
<cc:Work
 rdf:about="">
<dc:format>image/svg+xml</dc:format>
<dc:type
 rdf:resource="http://purl.org/dc/dcmitype/StillImage" />
<dc:title></dc:title>
</cc:Work>
</rdf:RDF>
</metadata>
<defs
 id="defs2385" />
<rect
 width="47"
 height="47"
 ry="9.1800003"
 x="0.5"
 y="0.5"
 id="r2393"
 style="fill:#ecc669;stroke-linejoin:round" />
<path
 d="m 9.6875,0.5 c -2.678009,0 -5.0748464,1.1512645 -6.75,2.96875 L 3.5,3.75 2.3125,7.4375 0.84375,7.1875 C 0.62324227,7.978043 0.5,8.8247439 0.5,9.6875 l 0,2.75 L 2.3125,12.125 3.5,15.8125 1.375,16.875 0.5625,17.5625 0.5,17.6875 l 0,4.84375 3.1875,-0.625 0.875,-0.59375 1.625,-1.6875 3.125,2.28125 -1.09375,2.125 -0.25,1 L 8.4375,29 10.3125,29.625 13,26.6875 l 0.375,-0.96875 0.34375,-2.375 3.8125,0 0.34375,2.375 0.375,0.96875 2.6875,2.9375 1.90625,-0.625 0.4375,-3.96875 -0.25,-1 -1.09375,-2.125 3.125,-2.28125 1.625,1.6875 0.875,0.59375 3.875,0.75 1.15625,-1.625 L 30.6875,17.5625 29.875,16.875 27.75,15.8125 l 1.21875,-3.6875 2.3125,0.40625 1.03125,-0.0625 3.59375,-1.6875 0,-2.03125 L 32.3125,7.09375 31.28125,7.03125 28.96875,7.4375 27.75,3.75 29.875,2.6875 30.6875,2 31.5,0.5 9.6875,0.5 z m 5.84375,0.71875 c 4.594281,0 8.3125,3.751047 8.3125,8.40625 0,4.655202 -3.718219,8.4375 -8.3125,8.4375 -4.594281,0 -8.3125,-3.782298 -8.3125,-8.4375 0,-4.655203 3.718219,-8.40625 8.3125,-8.40625 z m 29.84375,9.0625 -2.65625,3.65625 -0.1875,0.9375 0.0625,2.875 -4,0.875 -1.0625,-2.6875 -0.5625,-0.75 -3.84375,-2.28125 -1.6875,1.1875 0.65625,4.4375 0.53125,0.8125 2.0625,1.96875 -2.25,3.46875 -2.625,-1.09375 -0.9375,-0.15625 -4.3125,1.15625 -0.375,2.03125 3.59375,2.65625 0.90625,0.21875 2.875,-0.09375 0.8125,4.03125 -2.625,1.09375 -0.78125,0.5625 -2.25,3.9375 1.15625,1.6875 4.40625,-0.71875 0.78125,-0.5 2,-2.09375 3.40625,2.25 -1.125,2.65625 -0.125,0.9375 1.0625,4.15625 0.03125,0 c 0.953573,0 1.886591,-0.138824 2.75,-0.40625 L 42.96875,44.4375 43.1875,43.5 43.125,40.625 l 4,-0.875 0.1875,0.4375 C 47.434386,39.588828 47.5,38.948215 47.5,38.3125 l 0,-19.53125 -0.25,-0.15625 0.25,-0.59375 0,-6.875 -0.125,-0.5 -2,-0.375 z"
 id="path4339"
 style="color:#000000;fill:#cc9954;stroke:#cc9954;stroke-width:0.69999999" />
<path
 d="M 10.90625,5.53125 9.875,6.96875 9.8125,7.3125 9.84375,8.4375 8.28125,8.78125 7.875,7.71875 7.65625,7.4375 6.15625,6.5625 5.5,7 5.78125,8.75 5.96875,9.0625 6.75,9.8125 5.90625,11.15625 4.875,10.75 4.53125,10.6875 2.84375,11.125 2.6875,11.90625 4.09375,12.9375 4.4375,13.03125 5.5625,13 5.875,14.5625 4.84375,15 4.5625,15.21875 l -0.875,1.5 0.4375,0.65625 1.71875,-0.28125 0.3125,-0.1875 0.75,-0.8125 1.3125,0.875 L 7.8125,18 7.75,18.375 8.1875,20.0625 8.96875,20.21875 10,18.78125 10.0625,18.4375 10.03125,17.3125 11.59375,16.96875 12,18 l 0.21875,0.3125 1.5,0.875 L 14.375,18.71875 14.09375,17 13.90625,16.6875 13.09375,15.90625 13.96875,14.5625 15,15 15.34375,15.0625 17.03125,14.625 17.1875,13.8125 15.78125,12.78125 15.4375,12.71875 14.3125,12.75 14,11.1875 15.03125,10.75 l 0.28125,-0.21875 0.875,-1.5 L 15.75,8.375 l -1.71875,0.25 -0.3125,0.21875 -0.75,0.8125 -1.3125,-0.875 L 12.0625,7.75 12.125,7.375 11.6875,5.6875 10.90625,5.53125 z m -4.84375,13 L 5.46875,18.875 5.5625,20.6875 5.71875,20.90625 6.59375,21.75 5.875,23 4.71875,22.6875 4.4375,22.65625 l -1.59375,0.8125 0,0.6875 1.59375,0.8125 0.28125,0 1.15625,-0.34375 0.71875,1.25 -0.875,0.84375 -0.15625,0.25 -0.09375,1.78125 0.59375,0.375 1.46875,-1.03125 0.125,-0.21875 0.3125,-1.1875 1.40625,0 0.3125,1.1875 0.125,0.21875 L 11.28125,29.125 11.875,28.75 11.78125,26.96875 11.625,26.71875 10.78125,25.875 11.5,24.625 l 1.125,0.34375 0.28125,0 1.59375,-0.8125 0,-0.6875 -1.59375,-0.8125 L 12.625,22.6875 11.5,23 10.78125,21.75 11.625,20.90625 11.78125,20.6875 11.875,18.875 l -0.59375,-0.34375 -1.46875,1 -0.125,0.25 -0.3125,1.15625 -1.40625,0 -0.3125,-1.15625 -0.125,-0.25 -1.46875,-1 z m 3.125,9.375 L 8.375,28.1875 8.15625,29.875 8.28125,30.3125 8.75,31.25 7.40625,32.21875 6.6875,31.5 6.3125,31.25 4.65625,30.90625 4.125,31.625 l 0.84375,1.5 0.34375,0.28125 0.90625,0.46875 -0.5,1.59375 -1,-0.1875 -0.46875,0.03125 -1.53125,0.71875 0,0.875 1.53125,0.71875 0.46875,0.03125 1,-0.15625 0.5,1.5625 -0.90625,0.46875 -0.34375,0.3125 -0.84375,1.5 0.53125,0.6875 1.65625,-0.3125 0.375,-0.25 0.71875,-0.75 1.34375,1 -0.46875,0.90625 -0.125,0.4375 0.21875,1.71875 0.8125,0.25 1.15625,-1.25 0.15625,-0.4375 0.15625,-1 1.65625,0 0.125,1 0.1875,0.4375 1.15625,1.25 0.8125,-0.25 0.1875,-1.71875 -0.09375,-0.4375 -0.46875,-0.90625 1.34375,-1 0.6875,0.75 0.375,0.25 1.6875,0.3125 0.5,-0.6875 -0.8125,-1.5 -0.375,-0.3125 -0.90625,-0.46875 0.5,-1.5625 1.03125,0.15625 0.4375,-0.03125 1.53125,-0.71875 0,-0.875 L 18.6875,35.3125 18.25,35.28125 17.21875,35.46875 16.71875,33.875 17.625,33.40625 18,33.125 l 0.8125,-1.5 -0.5,-0.71875 L 16.625,31.25 16.25,31.5 15.5625,32.21875 14.21875,31.25 l 0.46875,-0.9375 0.09375,-0.4375 -0.1875,-1.6875 -0.8125,-0.28125 -1.15625,1.25 -0.1875,0.4375 -0.125,1.03125 -1.65625,0 -0.15625,-1.03125 -0.15625,-0.4375 -1.15625,-1.25 z m 2.25,4.875 c 1.985033,0 3.59375,1.614616 3.59375,3.625 0,2.010384 -1.608717,3.65625 -3.59375,3.65625 -1.9850331,0 -3.59375,-1.645866 -3.59375,-3.65625 0,-2.010384 1.6087169,-3.625 3.59375,-3.625 z"
 id="path4370"
 style="color:#000000;fill:none;stroke:#ecc669;stroke-width:2.5999999;stroke-linejoin:round" />
<rect
 width="3.2008164"
 height="3.574245"
 rx="0"
 ry="0"
 x="-37.806252"
 y="36.85149"
 transform="scale(-1,1)"
 id="rect4867"
 style="color:#000000;fill:#deb094;fill-rule:evenodd;stroke:#000000;stroke-width:0.5;stroke-linecap:round" />
<path
 d="m 37.465979,39.737536 c 0.431,0 0.76664,0.291813 0.875,0.6875 0.88784,0.437864 1.5,1.186783 1.5,2.031251 0,0.195984 -0.0342,0.379997 -0.0937,0.5625 -0.01,0.0093 -0.0212,0.02205 -0.0313,0.03125 -0.6607,0.60198 -1.79345,0.96875 -3.0625,0.96875 -1.52287,0 -2.22313,-0.500251 -2.78125,-1.3125 -0.009,-0.07216 -0.0313,-0.144906 -0.0313,-0.21875 0,-0.654034 0.23139,-1.268232 0.65625,-1.718751 -0.004,-0.03317 0,-0.05961 0,-0.09375 0,-0.517199 0.4203,-0.9375 0.9375,-0.9375 l 2.03125,0 z"
 id="path4870"
 style="color:#000000;fill:#ff5707;fill-rule:evenodd;stroke-width:0.5" />
<path
 d="m 33.934729,41.74826 c 0.54791,0.756354 1.25588,1.218751 2.71875,1.218751 1.26905,0 2.4018,-0.36677 3.0625,-0.968751 0.0101,-0.0092 0.0214,-0.02195 0.0313,-0.03125 0.0466,0.160036 0.0937,0.330527 0.0937,0.500001 0,0.195984 -0.0342,0.379997 -0.0937,0.5625 -0.01,0.0093 -0.0212,0.02205 -0.0313,0.03125 -0.6607,0.60198 -1.79345,0.96875 -3.0625,0.96875 -1.52287,0 -2.22313,-0.500251 -2.78125,-1.3125 -0.009,-0.07216 -0.0313,-0.144906 -0.0313,-0.21875 0,-0.25606 0.0251,-0.513585 0.0937,-0.750001 z"
 id="path4872"
 style="color:#000000;fill:#f8ffff;fill-rule:evenodd;stroke-width:0.5" />
<path
 d="m 37.465979,39.737536 c 0.431,0 0.76664,0.291813 0.875,0.6875 0.88784,0.437864 1.5,1.186783 1.5,2.031251 0,0.195984 -0.0342,0.379997 -0.0937,0.5625 -0.01,0.0093 -0.0212,0.02205 -0.0313,0.03125 -0.6607,0.60198 -1.79345,0.96875 -3.0625,0.96875 -1.52287,0 -2.22313,-0.500251 -2.78125,-1.3125 -0.009,-0.07216 -0.0313,-0.144906 -0.0313,-0.21875 0,-0.654034 0.23139,-1.268232 0.65625,-1.718751 -0.004,-0.03317 0,-0.05961 0,-0.09375 0,-0.517199 0.4203,-0.9375 0.9375,-0.9375 l 2.03125,0 z"
 id="path4875"
 style="color:#000000;fill:none;stroke:#000000;stroke-width:0.5;stroke-linecap:round" />
<path
 d="m 37.814969,41.016085 c -0.52811,-0.226332 -1.65977,-0.150888 -1.99927,0"
 id="path4877"
 style="fill:none;stroke:#000000;stroke-width:0.5;stroke-linecap:round" />
<rect
 width="3.2008164"
 height="3.574245"
 rx="0"
 ry="0"
 x="27.88969"
 y="36.85149"
 id="rect4539-2-6"
 style="color:#000000;fill:#deb094;fill-rule:evenodd;stroke:#000000;stroke-width:0.5;stroke-linecap:round" />
<path
 d="m 28.229963,39.737536 c -0.431,0 -0.76664,0.291813 -0.875,0.6875 -0.88784,0.437864 -1.5,1.186783 -1.5,2.031251 0,0.195984 0.0342,0.379997 0.0937,0.5625 0.01,0.0093 0.0212,0.02205 0.0313,0.03125 0.6607,0.60198 1.79345,0.96875 3.0625,0.96875 1.52287,0 2.22313,-0.500251 2.78125,-1.3125 0.009,-0.07216 0.0313,-0.144906 0.0313,-0.21875 0,-0.654034 -0.23139,-1.268232 -0.65625,-1.718751 0.004,-0.03317 0,-0.05961 0,-0.09375 0,-0.517199 -0.4203,-0.9375 -0.9375,-0.9375 l -2.03125,0 z"
 id="path4550-1-5"
 style="color:#000000;fill:#ff5707;fill-rule:evenodd;stroke-width:0.5" />
<path
 d="m 31.761213,41.74826 c -0.54791,0.756354 -1.25588,1.218751 -2.71875,1.218751 -1.26905,0 -2.4018,-0.36677 -3.0625,-0.968751 -0.0101,-0.0092 -0.0214,-0.02195 -0.0313,-0.03125 -0.0466,0.160036 -0.0937,0.330527 -0.0937,0.500001 0,0.195984 0.0342,0.379997 0.0937,0.5625 0.01,0.0093 0.0212,0.02205 0.0313,0.03125 0.6607,0.60198 1.79345,0.96875 3.0625,0.96875 1.52287,0 2.22313,-0.500251 2.78125,-1.3125 0.009,-0.07216 0.0313,-0.144906 0.0313,-0.21875 0,-0.25606 -0.0251,-0.513585 -0.0937,-0.750001 z"
 id="path4554-4-5"
 style="color:#000000;fill:#f8ffff;fill-rule:evenodd;stroke-width:0.5" />
<path
 d="m 28.229963,39.737536 c -0.431,0 -0.76664,0.291813 -0.875,0.6875 -0.88784,0.437864 -1.5,1.186783 -1.5,2.031251 0,0.195984 0.0342,0.379997 0.0937,0.5625 0.01,0.0093 0.0212,0.02205 0.0313,0.03125 0.6607,0.60198 1.79345,0.96875 3.0625,0.96875 1.52287,0 2.22313,-0.500251 2.78125,-1.3125 0.009,-0.07216 0.0313,-0.144906 0.0313,-0.21875 0,-0.654034 -0.23139,-1.268232 -0.65625,-1.718751 0.004,-0.03317 0,-0.05961 0,-0.09375 0,-0.517199 -0.4203,-0.9375 -0.9375,-0.9375 l -2.03125,0 z"
 id="path4542-5-0"
 style="color:#000000;fill:none;stroke:#000000;stroke-width:0.5;stroke-linecap:round" />
<path
 d="m 27.880973,41.016085 c 0.52811,-0.226332 1.65977,-0.150888 1.99927,0"
 id="path4565-9-7"
 style="fill:none;stroke:#000000;stroke-width:0.5;stroke-linecap:round" />
<path
 d="m 37.456589,34.011043 0.83642,1.130458 c 0.5106,0.690095 1.31,0.888707 1.92048,0.437014 0.85478,-0.757331 1.48912,-2.256841 0.43555,-3.83062 -0.21868,-0.29354 -3.19245,2.263148 -3.19245,2.263148 z"
 id="path3537-5"
 style="fill:#ffc78f;fill-rule:evenodd;stroke:#000000;stroke-width:0.5" />
<path
 d="m 34.698592,27.063945 c -0.52322,0.0031 -1.16232,0.03125 -1.9375,0.03125 l -0.0625,0 c -1.16277,0 -1.99575,-0.02495 -2.625,0 -1.04874,0.0416 -1.53959,0.221089 -1.875,1.03125 -0.04472,0.108021 -0.128317,0.302708 -0.1875,0.4375 -0.431413,-0.756858 -1.253987,-1.28125 -2.1875,-1.28125 -1.384394,0 -2.5,1.146856 -2.5,2.53125 0,1.384394 1.115606,2.5 2.5,2.5 0.264959,0 0.510274,-0.04881 0.75,-0.125 -0.275709,0.88954 -0.461312,1.758463 -0.375,2.40625 0.0169,0.126852 0.0449,0.224115 0.0625,0.34375 l 12.9375,0 c 0.0174,-0.119635 0.0456,-0.216898 0.0625,-0.34375 0.0485,-0.36402 0.02336,-0.816465 -0.0625,-1.28125 0.03259,-0.02319 0.06063,-0.03898 0.09375,-0.0625 0.89713,-0.637203 1.59796,-1.199457 1.25,-1.6875 l -1.78125,-2.5 c -0.350676,-0.491852 -0.882438,-0.759713 -1.4375,-0.8125 -0.01445,-0.0341 -0.04939,-0.09334 -0.0625,-0.125 -0.40249,-0.972191 -0.99286,-1.071643 -2.5625,-1.0625 z"
 id="path4368-5"
 style="fill:#3cab5a;fill-rule:evenodd;stroke-width:0.5" />
<path
 d="m 29.242207,30.867074 0,2.125 -0.34375,0.625 -2.625,0 c -0.004,0.0315 -0.0274,0.06266 -0.0313,0.09375 -0.01,0.08039 -0.0254,0.141383 -0.0313,0.21875 -0.022,0.234541 -0.0265,0.457121 0,0.65625 0.0169,0.126853 0.0449,0.224115 0.0625,0.34375 0.1976,1.338096 0.42578,2.277573 0.59375,2.9375 l 0,0.408842 4.78125,0 0,-0.06509 c 0,-0.981399 2.17787,-0.954829 2.15625,0 l 0,0.06509 4.8125,0 0,-0.408842 c 0.16797,-0.659927 0.39615,-1.599404 0.59375,-2.9375 0.019,-0.128668 0.0442,-0.205996 0.0625,-0.34375 0.0265,-0.199129 0.022,-0.421709 0,-0.65625 -0.006,-0.06723 -0.0223,-0.118675 -0.0313,-0.1875 l -2.3125,0 -0.6875,-0.8125 0,-2.0625 -7,0 z"
 id="path4389-4"
 style="color:#000000;fill:#315a7a;stroke-width:0.5" />
<path
 d="m 34.548407,27.051611 0,4.032083 c -10e-6,0.496322 0.40997,0.920712 0.88943,0.920712 l 0.3067,0 c 0.47945,0 0.85876,-0.424388 0.85876,-0.920712 l 0,-3.778094 c -0.41999,-0.237572 -1.05579,-0.262952 -2.05489,-0.253989 z m -4.47781,0.03174 c -0.52437,0.02079 -0.90911,0.06678 -1.19612,0.222241 l 0,3.778094 c 0,0.496324 0.37929,0.920713 0.85875,0.920713 l 0.33737,0 c 0.47945,0 0.85875,-0.424391 0.85876,-0.920713 l 0,-4.000335 c -0.25422,1.27e-4 -0.65389,-0.0082 -0.85876,0 z"
 id="path4372-3"
 style="fill:#376e91;fill-rule:evenodd;stroke-width:0.49999997" />
<path
 d="m 31.205387,32.448888 c -0.47947,0 -0.85876,0.302857 -0.85876,0.685689 l 0,0.71018 c 0,0.382832 0.40841,0.554308 0.85876,0.685689 l 1.57178,0.458551 1.49521,-0.458551 c 0.44757,-0.137264 0.85876,-0.302857 0.85876,-0.685689 l 0,-0.71018 c 0,-0.382832 -0.37931,-0.685689 -0.85876,-0.685689 l -3.06699,0 z"
 id="path4374-6"
 style="fill:#376e91;fill-rule:evenodd;stroke:#000000;stroke-width:0.5;stroke-linecap:round;stroke-linejoin:round" />
<path
 d="m 39.242567,33.684753 c -1.4634,-0.26263 -2.49308,0.590344 -2.97498,-0.698472 l 0,-1.111205 c 0,-0.02183 9e-4,-0.04208 0,-0.0635 0.20813,-0.170264 0.33736,-0.436244 0.33736,-0.730219 l 0,-3.778096 m -2.05488,-0.253989 0,3.936837 -3.61905,0 0,-3.905088 m -2.05489,0.22224 0,3.778096 c 0,0.293975 0.12924,0.559955 0.33737,0.730219 -9e-4,0.02142 0,0.04166 0,0.0635 l 0,1.111205 c -0.48245,1.290241 -1.50905,0.470101 -2.97498,0.730219"
 id="path4376-4"
 style="fill:none;stroke:#000000;stroke-width:0.5;stroke-linecap:round;stroke-linejoin:round" />
<path
 d="m 34.698592,27.063945 c -0.52322,0.0031 -1.16232,0.03125 -1.9375,0.03125 l -0.0625,0 c -1.16277,0 -1.99575,-0.02495 -2.625,0 -1.04874,0.0416 -1.53959,0.221089 -1.875,1.03125 -0.04004,0.09671 -0.135945,0.319201 -0.1875,0.4375 -0.431413,-0.756858 -1.253987,-1.28125 -2.1875,-1.28125 -1.384394,0 -2.5,1.146856 -2.5,2.53125 0,1.384394 1.115606,2.5 2.5,2.5 0.264959,0 0.510274,-0.04881 0.75,-0.125 -0.164601,0.532474 -0.285113,1.059003 -0.34375,1.53125 -0.01,0.08039 -0.02535,0.141383 -0.03125,0.21875 -0.022,0.234541 -0.0265,0.457121 0,0.65625 0.0169,0.126853 0.0449,0.224115 0.0625,0.34375 0.1976,1.338096 0.42578,2.246323 0.59375,2.90625 l 0,0.4375 4.8125,0 0,-0.09375 c 0,-0.981399 2.14662,-0.954829 2.125,0 l 0.03125,0.09375 4.78125,0 0,-0.4375 c 0.16797,-0.659927 0.39615,-1.568154 0.59375,-2.90625 0.019,-0.128668 0.0442,-0.205996 0.0625,-0.34375 0.0265,-0.199129 0.022,-0.421709 0,-0.65625 -0.007,-0.07818 -0.02105,-0.137783 -0.03125,-0.21875 -0.01502,-0.120936 -0.03909,-0.248111 -0.0625,-0.375 0.0449,-0.03194 0.07909,-0.06114 0.125,-0.09375 0.89713,-0.637203 1.59796,-1.199457 1.25,-1.6875 l -1.78125,-2.5 c -0.350676,-0.491852 -0.882438,-0.759713 -1.4375,-0.8125 -0.01279,-0.03032 -0.05077,-0.09666 -0.0625,-0.125 -0.4025,-0.972192 -0.99286,-1.071643 -2.5625,-1.0625 z"
 id="path4378-0"
 style="color:#000000;fill:none;stroke:#000000;stroke-width:0.5;stroke-linecap:round" />
<path
 d="m 42.477589,18.827055 c 0,5.441584 0.182877,10.744517 -9.85791,10.744517 -10.121342,0 -9.857911,-5.302933 -9.857911,-10.744517 0,-5.441584 4.416343,-9.857941 9.857911,-9.857941 5.441565,0 9.85791,4.416357 9.85791,9.857941 z"
 id="path2411-4"
 style="fill:#deb094;fill-rule:evenodd;stroke:#000000;stroke-width:0.50000006;stroke-linecap:round;stroke-linejoin:round" />
<path
 d="m 30.405867,21.223532 c -0.280754,1.219512 0.561507,2.39212 2.292823,2.39212 1.731315,0 2.479992,-0.891182 2.526784,-2.439025 0.0468,-1.547843 -4.819607,0.04691 -4.819607,0.04691 z"
 id="path4999"
 style="fill:#5c372c;stroke:#000000;stroke-width:0.49999997" />
<path
 d="M 29.177626,10.373903 C 28.127685,8.825037 26.555041,6.8903415 25.271375,6.4676535 c -0.144159,-0.04746 -0.297528,-0.09017 -0.4375,-0.09375 -0.139972,-0.0036 -0.251933,0.02208 -0.375,0.0625 -1.969064,0.646768 -1.529804,7.3981505 -1.25,8.2499995 0.0724,0.220416 0.245159,0.373595 0.5,0.5"
 id="path4898"
 style="color:#000000;fill:#deb094;fill-rule:evenodd;stroke:#000000;stroke-width:0.5;stroke-linecap:round;stroke-linejoin:round" />
<path
 d="m 25.771375,7.905153 c -0.09728,-0.0034 -0.164471,0.02492 -0.25,0.0625 -1.167601,0.512928 -1.12962,4.968575 -0.96875,6.8125 l 0.9375,-0.46875 c 0.696607,-1.348823 1.695712,-2.509516 2.906251,-3.40625 -0.698705,-1.268707 -1.562516,-2.607212 -2.312501,-2.9375 -0.100188,-0.04411 -0.215223,-0.05917 -0.3125,-0.0625 z"
 id="path4926"
 style="color:#000000;fill:#bc6e56;fill-rule:evenodd;stroke-width:0.5" />
<path
 d="m 37.089405,10.253007 c 1.259843,-1.38353 3.092013,-3.0745075 4.422796,-3.3100525 0.149451,-0.02646 0.307337,-0.04688 0.446392,-0.03048 0.139058,0.01637 0.24622,0.05774 0.362275,0.115274 1.856869,0.9206295 0.460483,7.5406155 0.0622,8.3439275 -0.103056,0.207857 -0.295871,0.334868 -0.566118,0.423687"
 id="path4931"
 style="color:#000000;fill:#deb094;fill-rule:evenodd;stroke:#000000;stroke-width:0.5;stroke-linecap:round;stroke-linejoin:round" />
<path
 d="m 40.812554,8.294583 c 0.09677,0.01049 0.159245,0.04809 0.238549,0.09747 1.082641,0.674002 0.41042,5.078813 -0.01144,6.881026 l -0.861177,-0.597501 c -0.497391,-1.434289 -1.320991,-2.725453 -2.391465,-3.785463 0.872285,-1.156254 1.917933,-2.35808 2.707315,-2.578179 0.105449,-0.02939 0.221457,-0.02791 0.318215,-0.01736 z"
 id="path4933"
 style="color:#000000;fill:#bc6e56;fill-rule:evenodd;stroke-width:0.5" />
<path
 d="m -84.048458,135.755 a 1.9637489,1.9637489 0 1 1 -3.927498,0 1.9637489,1.9637489 0 1 1 3.927498,0 z"
 transform="matrix(0.82022767,0,0,0.81641406,100.88889,-93.977175)"
 id="path4471-9"
 style="color:#000000;fill:#ffffff;fill-rule:evenodd;stroke:#000000;stroke-width:0.61100894;stroke-linecap:round;stroke-linejoin:round" />
<path
 d="m -53.630922,43.797504 a 0.86571306,0.86571306 0 1 1 -1.731426,0 0.86571306,0.86571306 0 1 1 1.731426,0 z"
 transform="matrix(0.99873298,0,0,0.99419174,84.820712,-26.705632)"
 id="path4467-99"
 style="fill-rule:evenodd;stroke-width:0.49999997" />
<path
 d="m 17.368579,27.064899 a 0.42570049,0.42570049 0 1 1 -0.851401,0 0.42570049,0.42570049 0 1 1 0.851401,0 z"
 transform="matrix(0.85519336,0,0,0.81134297,15.687536,-5.372463)"
 id="path4469-6"
 style="fill:#ffffff;fill-rule:evenodd;stroke-width:0.5" />
<path
 d="m -84.048458,135.755 a 1.9637489,1.9637489 0 1 1 -3.927498,0 1.9637489,1.9637489 0 1 1 3.927498,0 z"
 transform="matrix(-0.88555652,0,0,0.88243174,-41.213837,-102.89306)"
 id="path4490-3"
 style="color:#000000;fill:#ffffff;fill-rule:evenodd;stroke:#000000;stroke-width:0.56561548;stroke-linecap:round;stroke-linejoin:round" />
<path
 d="m -53.630922,43.797504 a 0.86571306,0.86571306 0 1 1 -1.731426,0 0.86571306,0.86571306 0 1 1 1.731426,0 z"
 transform="matrix(-1.0782792,0,0,1.0745852,-23.86589,-30.18172)"
 id="path4492-2"
 style="fill-rule:evenodd;stroke-width:0.49999997" />
<path
 d="m 17.368579,27.064899 a 0.42570049,0.42570049 0 1 1 -0.851401,0 0.42570049,0.42570049 0 1 1 0.851401,0 z"
 transform="matrix(-0.92330709,0,0,0.87695065,50.348457,-7.123484)"
 id="path4494-8"
 style="fill:#ffffff;fill-rule:evenodd;stroke-width:0.5" />
<path
 d="m 36.321122,20.310512 c 0,-1.292651 -1.681518,-2.340551 -3.755777,-2.340551 -2.074259,0 -3.755776,1.0479 -3.755776,2.340551 0,2.618962 1.681517,2.34055 3.755776,2.34055 2.074259,0 3.755777,0.122375 3.755777,-2.34055 z"
 id="path4891"
 style="color:#000000;fill:#deb094;fill-rule:evenodd;stroke:#000000;stroke-width:0.49999997;stroke-linecap:round;stroke-linejoin:round" />
<path
 d="m 30.775394,21.674249 c 0,0 -0.309183,-0.860899 -0.240476,-1.033078 0.06871,-0.172179 0.549659,-0.516539 0.893196,-0.482103"
 id="path4935"
 style="fill:none;stroke:#000000;stroke-width:0.49999997;stroke-linecap:round" />
<path
 d="m 34.421055,21.674249 c 0,0 0.309182,-0.860899 0.240475,-1.033078 -0.06871,-0.172179 -0.549659,-0.516539 -0.893196,-0.482103"
 id="path4937"
 style="fill:none;stroke:#000000;stroke-width:0.49999997;stroke-linecap:round" />
<path
 d="m 34.373352,13.988192 c 0.468685,-0.08418 1.475189,-0.455132 2.32375,0.413937"
 id="path4993"
 style="fill:none;stroke:#000000;stroke-width:0.49999997;stroke-linecap:round" />
<path
 d="m 27.998898,27.455458 c 1.86607,1.083525 6.982714,1.264112 9.209959,0.120392"
 id="path4997"
 style="fill:none;stroke:#000000;stroke-width:0.5;stroke-linecap:round" />
<path
 d="m 31.183799,24.089816 c 0.489509,0.272601 2.066814,0.654241 2.882662,0.16356"
 id="path5001"
 style="fill:none;stroke:#000000;stroke-width:0.5;stroke-linecap:round" />
<path
 d="m 30.975,13.988192 c -0.468685,-0.08418 -1.475189,-0.455132 -2.32375,0.413937"
 id="path5003"
 style="fill:none;stroke:#000000;stroke-width:0.49999997;stroke-linecap:round" />
<path
 d="m 16.348861,25.82251 a 2.2479684,2.2479684 0 1 1 -4.495936,0 2.2479684,2.2479684 0 1 1 4.495936,0 z"
 transform="translate(11.615213,-5.592376)"
 id="path5005"
 style="color:#000000;fill:#ea8d6a;fill-rule:evenodd;stroke-width:0.5" />
<path
 d="m 16.348861,25.82251 a 2.2479684,2.2479684 0 1 1 -4.495936,0 2.2479684,2.2479684 0 1 1 4.495936,0 z"
 transform="matrix(-1,0,0,1,53.514641,-5.592376)"
 id="path5007"
 style="color:#000000;fill:#ea8d6a;fill-rule:evenodd;stroke-width:0.5" />
<path
 d="m 32.862899,2.7608738 c -3.625095,0 -6.565683,2.9288197 -6.565683,6.5394002 0,0.719813 0.12533,1.407562 0.341082,2.055247 1.079216,0.637548 3.459661,1.070092 6.224601,1.070092 2.76494,0 5.157744,-0.432544 6.241659,-1.070092 0.215751,-0.647685 0.324024,-1.335434 0.324024,-2.055247 0,-3.6105805 -2.940588,-6.5394002 -6.565683,-6.5394002 z"
 id="path4932-8-4"
 style="color:#000000;fill:#dfea19;fill-rule:evenodd;stroke-width:0.5" />
<path
 d="m 26.331332,8.612898 c -0.02355,0.225266 -0.03409,0.44796 -0.03409,0.679425 0,0.719801 0.12533,1.40755 0.341082,2.055235 1.079216,0.637548 3.459661,1.070092 6.224601,1.070092 2.76494,0 5.157744,-0.432544 6.241659,-1.070092 0.215751,-0.647685 0.324024,-1.335434 0.324024,-2.055235 0,-0.231465 -0.0099,-0.454159 -0.03409,-0.679425 l -13.063135,0 z"
 id="rect5151-3-6"
 style="color:#000000;fill:#d9c511;stroke-width:0.5" />
<path
 d="m 32.862899,2.760874 c -3.625095,0 -6.565683,2.9288205 -6.565683,6.5394 0,0.719813 0.12533,1.407563 0.341082,2.055248 1.079216,0.637548 3.459661,1.070091 6.224601,1.070091 2.76494,0 5.157744,-0.432543 6.241659,-1.070091 0.215751,-0.647685 0.324024,-1.335435 0.324024,-2.055248 0,-3.6105795 -2.940588,-6.5394 -6.565683,-6.5394 z"
 id="path5149-5-8"
 style="color:#000000;fill:none;stroke:#000000;stroke-width:0.5;stroke-linecap:round" />
<path
 d="m 30.330025,10.371695 c -1.038618,0.02671 -1.965144,0.126541 -2.20952,0.447104 -1.588484,1.709565 -0.672048,2.522886 0,2.522886 0.658747,0 2.599407,-0.783866 4.747749,-0.81434 2.148342,0.03044 4.089003,0.81434 4.747749,0.81434 0.672036,0 1.588472,-0.813321 0,-2.522886 -0.459122,-0.602205 -3.285389,-0.435824 -4.747749,-0.415177 -0.683961,-0.0099 -1.625624,-0.05541 -2.538229,-0.03193 z"
 id="path3596-2-1-1-2"
 style="fill:#edd717;stroke:#000000;stroke-width:0.5" />
<rect
 width="4.7701659"
 height="2.1808248"
 rx="0.46919665"
 ry="0.46731958"
 x="30.394131"
 y="7.6721759"
 id="rect5158-4-6"
 style="color:#000000;fill:#fefbf7;fill-rule:evenodd;stroke:#000000;stroke-width:0.5;stroke-linecap:round" />
<path
 d="m 118.78435,-62.454151 a 2.5883846,2.5883846 0 1 1 -5.17677,0 2.5883846,2.5883846 0 1 1 5.17677,0 z"
 transform="matrix(0.90239676,-0.43090613,0.43090613,0.90239676,-54.396904,135.39893)"
 id="path3522-3-3"
 style="fill:#deb094;fill-rule:evenodd;stroke:#000000;stroke-width:0.5;stroke-linecap:round" />
<path
 d="m 19.151875,14.571134 c -1.016939,0.713213 -1.583377,1.849013 -1.340753,2.974376 l 0.111963,0.519317 c 0.262076,1.21559 1.384997,2.042524 2.741901,2.190075 0.753006,3.49267 1.50601,6.985329 2.259016,10.477998 -1.175567,0.693543 -1.851417,1.940253 -1.589341,3.155843 l 0.111963,0.519318 c 0.242624,1.125362 1.226738,1.926869 2.44721,2.157705 l -0.658606,-3.05481 3.085358,-0.665192 0.658606,3.05481 c 1.016939,-0.713213 1.552829,-1.842427 1.310205,-2.96779 L 28.177434,32.413467 C 27.914629,31.194495 26.790985,30.336925 25.428947,30.192844 24.675916,26.685827 23.924019,23.21254 23.16993,19.714846 c 1.181675,-0.692497 1.858734,-1.906323 1.595928,-3.125295 l -0.111963,-0.519318 c -0.242624,-1.125362 -1.196191,-1.933455 -2.416663,-2.164291 l 0.658606,3.05481 -3.085358,0.665192 z"
 id="rect4743-9-0"
 style="color:#000000;fill:#434343;fill-rule:evenodd;stroke:#000000;stroke-width:0.5" />
<path
 d="m 19.735023,35.322762 a 1.0742855,1.0742855 0 1 1 -2.148571,0 1.0742855,1.0742855 0 1 1 2.148571,0 z"
 transform="matrix(0.63379545,1.2566221,-0.89286305,0.45032834,44.820012,-12.48348)"
 id="path3527-2-9"
 style="fill:#deb094;fill-rule:evenodd;stroke:#000000;stroke-width:0.42146361;stroke-linecap:round" />
<path
 d="m 21.384294,25.177552 c -0.641721,-0.01466 -1.179005,0.727025 -1.198667,1.626712 -0.01585,0.724943 0.306704,1.334084 0.769063,1.556034 -0.146723,0.388972 -0.156504,0.879749 -0.02247,1.37801 0.268028,0.996532 1.050252,1.663657 1.766099,1.473077 0.715856,-0.190544 1.094339,-1.174149 0.826272,-2.170671 -0.196071,-0.728695 -0.676189,-1.242667 -1.199507,-1.40856 0.103864,-0.237149 0.171551,-0.495188 0.178034,-0.791526 0.01966,-0.899687 -0.477114,-1.648417 -1.118824,-1.663076 z"
 id="path3247-7"
 style="fill:#deb094;fill-rule:evenodd;stroke:#000000;stroke-width:0.50000006;stroke-linecap:round" />
<path
 d="m 9.1798119,27.905574 -0.8174787,0.26871 -0.2007845,1.706673 0.1075629,0.443009 0.4732767,0.915067 -1.3409513,0.987692 -0.7099154,-0.740769 -0.3800551,-0.246923 -1.670811,-0.334072 -0.5019603,0.704457 0.8246491,1.503325 0.3513722,0.297761 0.9178704,0.45027 -0.5163021,1.597737 -1.0039207,-0.174299 -0.4517643,0.02905 -1.5417354,0.718982 0,0.871492 1.5417354,0.726245 0.4517643,0.02905 1.0039207,-0.174298 0.5163021,1.590474 -0.9178704,0.457534 -0.3513722,0.297761 -0.8246491,1.503324 0.5019603,0.697195 1.670811,-0.326811 0.3800551,-0.246923 0.7099154,-0.740768 1.3409513,0.987691 -0.4732767,0.915068 -0.1075629,0.443009 0.2007845,1.706674 0.8174787,0.26871 1.1545081,-1.263664 0.16493,-0.421222 0.150588,-1.024004 1.649299,0 0.150588,1.024004 0.164929,0.421222 1.154509,1.263664 0.817478,-0.26871 0.200785,-1.706674 -0.107563,-0.443009 -0.473277,-0.915068 1.340951,-0.987691 0.709915,0.740768 0.380056,0.246923 1.670811,0.326811 0.50196,-0.697195 -0.824649,-1.503324 -0.351372,-0.297761 -0.917871,-0.457534 0.516302,-1.590474 1.003921,0.174298 0.451765,-0.02905 1.541735,-0.726245 0,-0.871492 -1.541735,-0.718982 -0.451765,-0.02905 -1.003921,0.174299 -0.516302,-1.597737 0.917871,-0.45027 0.351372,-0.297761 0.824649,-1.503325 -0.50196,-0.704457 -1.670811,0.334072 -0.380056,0.246923 -0.709915,0.740769 -1.340951,-0.987692 0.473277,-0.915067 0.107563,-0.443009 -0.200785,-1.706673 -0.817478,-0.26871 -1.154509,1.256402 -0.164929,0.428484 -0.150588,1.024004 -1.649299,0 L 10.49925,29.59046 10.33432,29.161976 9.1798119,27.905574 z m 2.2588211,4.865835 c 1.985033,0 3.592602,1.628098 3.592602,3.638482 0,2.010384 -1.607569,3.638483 -3.592602,3.638483 -1.9850331,0 -3.5926026,-1.628099 -3.5926026,-3.638483 0,-2.010384 1.6075695,-3.638482 3.5926026,-3.638482 z"
 id="path3179"
 style="color:#000000;fill:#3b9d3d;stroke:#cc9954;stroke-width:0.69999993;stroke-linejoin:round" />
<path
 d="m 6.0560466,18.529222 -0.5951815,0.348597 0.1147338,1.801085 0.1434172,0.232398 0.8605035,0.849706 -0.7170864,1.24914 -1.1473378,-0.334072 -0.2724931,-0.0072 -1.5991014,0.798868 0,0.697194 1.5991014,0.806131 0.2724931,-0.01452 1.1473378,-0.32681 0.7170864,1.24914 -0.8605035,0.842442 -0.1434172,0.232399 -0.1147338,1.808348 0.5951815,0.348597 1.4843684,-1.002217 0.1290759,-0.246923 0.2868343,-1.176516 1.4341722,0 0.286835,1.176516 0.129075,0.246923 1.4843686,1.002217 0.595181,-0.348597 -0.114734,-1.808348 -0.143417,-0.232399 -0.860503,-0.842442 0.717086,-1.24914 1.147338,0.32681 0.272493,0.01452 1.599102,-0.806131 0,-0.697194 -1.599102,-0.798868 -0.272493,0.0072 -1.147338,0.334072 -0.717086,-1.24914 0.860503,-0.849706 0.143417,-0.232398 0.114734,-1.801085 -0.595181,-0.348597 -1.4843686,1.002217 -0.129075,0.23966 -0.286835,1.176516 -1.4341722,0 -0.2868343,-1.176516 -0.1290759,-0.23966 z"
 id="path3299"
 style="color:#000000;fill:#3d7e96;stroke:#cc9954;stroke-width:0.69999993;stroke-linejoin:round" />
<path
 d="m 14.320074,12.748331 1.108607,-0.03133 0.353733,0.07826 1.396357,1.029799 -0.147735,0.786626 -1.674839,0.453006 -0.358022,-0.05542 -1.0217,-0.431418 -0.868097,1.342749 0.802212,0.770899 0.194418,0.30868 0.263331,1.730694 -0.653874,0.453217 -1.495382,-0.876726 -0.213208,-0.295657 -0.417565,-1.037508 -1.549301,0.332814 0.02586,1.121662 L 9.985902,18.786983 8.9617667,20.204706 8.1850595,20.058835 7.7450864,18.366141 7.8015003,18.0036 8.2325556,16.96775 6.9095743,16.095499 6.144036,16.910812 5.8380862,17.108966 4.126507,17.383401 3.6816239,16.723829 4.5549381,15.206605 4.8481038,14.989498 5.8753489,14.562185 5.5535776,12.995969 4.4449704,13.027299 4.0912372,12.949042 2.6948803,11.919243 2.8426148,11.132617 4.5174537,10.679611 4.8754766,10.735028 5.897176,11.166446 6.7652732,9.8236969 5.9630616,9.0527979 5.7686429,8.7441178 5.5053125,7.0134238 6.1591858,6.560207 7.6545683,7.4369333 7.8677765,7.7325899 8.2853409,8.770098 9.8346425,8.4372844 9.8087847,7.3156222 9.8877511,6.9573171 10.911885,5.5395935 l 0.776707,0.1458716 0.439973,1.6926941 -0.05641,0.3625406 -0.431055,1.0358504 1.322981,0.8722505 0.765538,-0.8153123 0.30595,-0.1981548 1.711579,-0.2744342 0.444883,0.6595717 -0.873314,1.5172239 -0.293166,0.217107 -1.027245,0.427313 z"
 id="path4261"
 style="color:#000000;fill:#e21e1e;stroke:#cc9954;stroke-width:0.69999993;stroke-linejoin:round" />
<rect
 width="47"
 height="47"
 ry="9.1800003"
 x="0.5"
 y="0.5"
 id="rect4365"
 style="fill:none;stroke:#cc9954;stroke-linejoin:round" />
</svg>
