<?xml version="1.0" encoding="UTF-8" standalone="no"?>
<!-- Created with Inkscape (http://www.inkscape.org/) -->

<svg
 xmlns:dc="http://purl.org/dc/elements/1.1/"
 xmlns:cc="http://creativecommons.org/ns#"
 xmlns:rdf="http://www.w3.org/1999/02/22-rdf-syntax-ns#"
 xmlns:svg="http://www.w3.org/2000/svg"
 xmlns="http://www.w3.org/2000/svg"
 version="1.0"
 width="100%"
 height="100%"
 viewBox="0 0 48 48"
 id="ontology">
<metadata
 id="metadata8">
<rdf:RDF>
<cc:Work
 rdf:about="">
<dc:format>image/svg+xml</dc:format>
<dc:type
 rdf:resource="http://purl.org/dc/dcmitype/StillImage" />
<dc:title></dc:title>
</cc:Work>
</rdf:RDF>
</metadata>
<defs
 id="defs2385" />
<path
 d="m 24.488705,30.295889 c 1.312722,-0.0066 2.574955,-0.341829 3.503958,-0.946604 l 13.884563,-9.058466 c 1.393505,-0.81513 1.969083,-2.064121 1.51468,-3.247375 -0.444306,-1.17668 -1.84791,-2.083841 -3.655427,-2.379655 -1.807517,-0.295813 -3.736209,0.08546 -4.988345,0.986045 l -5.271085,3.431437 0,-12.6936861 c 0.03029,-1.189827 -0.918905,-2.28105 -2.494172,-2.879251 -1.565169,-0.598201 -3.534252,-0.598201 -5.109519,0 -1.575267,0.598201 -2.514368,1.689424 -2.494173,2.879251 l 0,12.6936861 -5.271085,-3.431437 c -1.242037,-0.900587 -3.170729,-1.281858 -4.9782475,-0.986045 -1.817615,0.295814 -3.21112,1.202975 -3.665524,2.379655 -0.454404,1.183254 0.131272,2.432245 1.514679,3.247375 l 13.8542705,9.038746 c 0.969395,0.631068 2.292215,0.979471 3.655427,0.966324 z"
 id="path2460"
 style="fill:none;stroke:#ffffff;stroke-width:2;stroke-linecap:butt;stroke-linejoin:miter;stroke-miterlimit:4;stroke-opacity:1;stroke-dasharray:none;stroke-dashoffset:0;marker:none;visibility:visible;display:inline;overflow:visible;enable-background:accumulate" />
<rect
 width="40.271187"
 height="11.593221"
 rx="4.3728814"
 ry="4.3728814"
 x="4.2711864"
 y="32.745762"
 id="rect2987"
 style="color:#000000;fill:none;stroke:#ffffff;stroke-width:2;stroke-linecap:butt;stroke-linejoin:miter;stroke-miterlimit:4;stroke-opacity:1;stroke-dasharray:none;stroke-dashoffset:0;marker:none;visibility:visible;display:inline;overflow:visible;enable-background:accumulate" />
</svg>
