<?xml version="1.0" encoding="UTF-8" standalone="no"?>
<!-- Created with Inkscape (http://www.inkscape.org/) -->
<svg
   xmlns:svg="http://www.w3.org/2000/svg"
   xmlns="http://www.w3.org/2000/svg"
   version="1.0"
   width="100%"
   height="100%"
   viewBox="0 0 48 48"
   id="ontology">
  <defs
     id="defs2385" />
  <path
     d="M 36.586292,6.3075247 C 33.061665,4.7573755 28.8183,5.4037149 25.923515,8.2984994 C 23.348961,10.873053 22.52663,14.529365 23.467979,17.788813 L 17.804762,23.45203 C 14.545665,22.511317 10.888635,23.333379 8.3144484,25.907566 C 5.419664,28.802351 4.7733245,33.045716 6.3234738,36.570343 L 13.137032,29.756784 L 18.092347,34.712099 L 11.278789,41.525657 C 14.803414,43.075808 19.04678,42.429468 21.941565,39.534683 C 24.515754,36.960495 25.337814,33.303467 24.397101,30.044369 L 30.060318,24.381152 C 33.319767,25.322501 36.976077,24.50017 39.550632,21.925617 C 42.445416,19.030831 43.091757,14.787465 41.541606,11.26284 L 34.728048,18.076398 L 29.772733,13.121083 L 36.586292,6.3075247 z"
     id="rect2388"
     style="fill:#ffffff;fill-opacity:1;fill-rule:evenodd;stroke:none;stroke-width:1;stroke-linecap:round;stroke-linejoin:round;marker:none;marker-start:none;marker-mid:none;marker-end:none;stroke-miterlimit:4;stroke-dasharray:none;stroke-dashoffset:0;stroke-opacity:1;visibility:visible;display:inline;overflow:visible;enable-background:accumulate" />
</svg>
