<?xml version="1.0" encoding="UTF-8" standalone="no"?>
<!-- Created with Inkscape (http://www.inkscape.org/) -->
<svg xmlns:dc="http://purl.org/dc/elements/1.1/" xmlns:cc="http://creativecommons.org/ns#" xmlns:rdf="http://www.w3.org/1999/02/22-rdf-syntax-ns#" xmlns:svg="http://www.w3.org/2000/svg" xmlns="http://www.w3.org/2000/svg" version="1.1" width="100%" height="100%" viewBox="0 0 48 48" id="ant_xA0_Image_1_" xml:space="preserve">
<defs id="defs15" />
<path d="m 38.49,1.50 c -0.44,-0.00 -0.53,0.34 -0.82,0.49 -0.07,0.33 -0.01,0.34 -0.09,0.75 -0.46,0.54 -0.84,1.17 -1.03,1.98 -1.12,0.54 -1.38,1.95 -2.26,2.74 0.06,0.28 -0.09,0.34 -0.09,0.56 -0.12,-0.00 -0.20,0.04 -0.28,0.09 0.07,0.32 -0.13,0.36 -0.09,0.66 -0.98,0.77 -1.47,1.95 -2.26,2.92 -0.40,0.50 -1.01,0.89 -1.41,1.41 -0.30,0.39 -0.55,0.97 -0.84,1.41 -0.94,1.43 -1.50,3.02 -2.83,4.05 0.05,-0.80 -0.19,-1.31 -0.47,-1.79 0.16,-1.24 -0.85,-1.27 -1.13,-2.07 0.41,-0.09 0.76,-0.24 1.13,-0.37 0.27,-0.44 0.32,-1.12 0.28,-1.89 0.64,0.19 1.39,0.35 1.88,0 0.31,-0.70 0.29,-1.43 0.47,-1.98 C 28.95,9.43 29.80,8.66 29.93,7.47 28.54,8.32 28.32,10.34 27.66,11.91 27.24,11.68 26.48,11.77 26.06,11.53 25.62,10.36 25.36,9.02 23.70,9.08 23.59,9.44 23.19,9.36 22.94,9.55 22.31,10.02 21.97,10.77 21.52,11.44 c -0.30,0.13 -1.35,0.00 -1.79,0.28 C 19.42,10.82 19.56,9.45 19.35,8.42 19.27,7.98 19.09,7.13 18.50,7.19 c -0.17,0.67 0.36,1.21 0.47,1.88 0.14,0.90 0.03,1.86 0.09,3.02 0.46,0.55 1.76,0.18 2.45,0.09 0.14,1.05 -0.20,2.00 0.75,2.45 0.36,0.01 0.86,-0.11 0.75,0.38 -1.52,0.26 -1.39,2.18 -2.17,3.20 -0.71,-0.34 -1.04,-1.01 -1.51,-1.69 -0.69,-1.01 -1.20,-1.99 -1.79,-2.92 C 15.96,11.07 14.59,8.38 13.21,5.96 12.98,5.83 12.99,6.40 12.84,6.06 12.89,5.65 13.09,5.75 12.93,5.30 12.14,4.21 11.37,3.08 10.85,1.71 c -0.51,0.13 -0.83,0.35 -1.13,0.47 1.80,1.43 2.84,3.63 3.77,5.94 0.34,-0.03 0.39,0.23 0.47,0.47 -0.30,0.14 -0.51,-0.48 -0.56,0 0.13,0.36 0.73,0.27 0.84,0.66 0.32,1.17 1.03,2.08 1.70,3.01 0.72,1.00 1.35,2.33 1.98,3.30 0.29,0.46 0.38,0.91 0.75,1.23 0.63,1.09 1.10,2.35 2.74,2.45 0.25,-0.03 0.40,-0.43 0.66,-0.18 -0.04,1.87 -1.28,2.55 -1.41,4.34 -0.64,-0.01 -0.61,0.68 -0.94,1.03 -0.33,0.35 -0.80,0.37 -1.22,0.66 -0.38,0.26 -0.51,0.60 -0.85,0.94 -1.14,1.12 -2.09,2.05 -2.73,3.68 0.12,0.06 0.17,0.20 0.18,0.37 -1.26,1.44 -1.65,3.76 -2.54,5.57 -0.05,0.30 0.06,0.43 0.09,0.66 -1.18,1.58 -1.77,3.76 -3.39,4.90 0.47,-0.03 0.36,0.51 0.75,0.56 0.40,-0.75 0.79,-1.53 1.60,-1.88 -0.21,-0.83 0.67,-1.28 0.28,-1.70 -0.08,0.19 -0.00,0.56 -0.37,0.47 0.33,-0.39 0.32,-1.12 0.85,-1.31 0.01,0.14 -0.03,0.34 0.09,0.37 0.22,-0.47 0.49,-0.89 0.75,-1.32 0.29,-0.04 0.03,0.46 0.37,0.37 0.04,-2.48 1.56,-4.27 1.98,-6.70 1.40,-1.99 3.06,-3.73 4.91,-5.28 0.23,-0.07 0.37,-0.25 0.66,-0.28 -0.00,-0.42 0.46,-0.50 0.66,-0.84 0.21,-0.35 0.11,-1.04 0.66,-1.13 -0.29,1.17 -1.07,1.88 -1.70,2.73 l 0,0.66 c -0.21,0.34 -0.49,0.63 -0.56,1.13 -1.48,1.38 -1.95,3.77 -3.02,5.57 -0.07,0.32 0.13,0.35 0.09,0.65 -0.92,1.90 -1.04,4.61 -1.98,6.51 0.11,0.23 0.35,-0.19 0.47,0.09 0.03,0.19 -0.51,0.47 -0.09,0.47 0.20,-0.05 0.12,-0.54 0.37,-0.28 -0.11,0.29 -0.26,0.55 -0.37,0.85 l -0.47,0 c -0.90,1.05 -1.17,2.72 -2.26,3.58 0.13,0.50 -0.36,0.39 -0.28,0.84 -0.17,0.19 -0.54,0.21 -0.65,0.47 0.26,0.08 0.46,0.22 0.75,0.28 0.36,-0.60 0.99,-0.95 1.03,-1.88 0.59,0.02 0.46,-0.66 0.94,-0.75 0.29,-1.37 1.14,-2.19 1.51,-3.49 0.25,-0.00 0.55,0.05 0.56,-0.19 -0.15,-0.16 -0.28,-0.34 -0.28,-0.65 0.65,-2.08 0.64,-5.27 1.98,-6.42 0.26,-0.96 0.71,-1.73 1.31,-2.36 0.01,0.91 -0.04,1.36 0.28,1.89 0.07,2.00 0.88,3.26 1.79,4.43 0.72,-0.03 0.74,0.64 1.41,0.66 0.29,-0.10 0.23,-0.58 0.56,-0.66 0.26,0.07 0.24,-0.13 0.47,-0.09 1.32,-1.72 2.68,-3.91 2.26,-7.08 l 0.28,0 c -0.39,-0.62 -0.73,-1.77 -0.75,-2.45 1.36,1.05 1.79,3.18 2.54,4.72 0.24,0.48 0.90,1.13 0.37,1.70 -0.89,-0.49 -1.19,-2.06 -1.60,-2.92 -0.11,-0.25 -0.15,-0.91 -0.56,-0.75 0.74,1.27 0.97,3.05 1.88,4.15 0.21,2.15 0.33,3.77 0.37,6.04 -0.07,0.33 -0.38,0.43 -0.37,0.84 0.52,0.08 0.32,-0.54 0.75,-0.56 0.45,1.34 1.47,2.11 1.79,3.58 0.73,0.61 1.34,1.36 1.70,2.35 0.36,-0.12 0.48,0.04 0.75,-0.09 0.11,-0.64 -0.57,-0.87 -0.84,-1.22 -0.05,-0.07 -0.10,-0.34 -0.19,-0.47 -0.44,-0.67 -1.00,-1.13 -1.13,-1.98 -0.28,-0.12 -0.42,-0.39 -0.66,-0.56 -0.07,-0.65 -0.42,-1.02 -0.66,-1.51 0.23,-0.82 -0.16,-1.44 -0.28,-2.26 -0.12,-0.90 -0.13,-1.88 -0.28,-2.74 -0.10,-0.59 -0.31,-1.02 -0.28,-1.60 0.01,-0.27 0.13,-0.55 0.09,-0.85 -0.10,-0.85 -0.70,-1.33 -1.03,-2.07 -0.61,-1.37 -1.01,-3.09 -1.98,-3.87 -0.05,-0.57 -0.41,-0.83 -0.75,-1.13 0.16,-1.31 -1.26,-1.80 -1.23,-3.30 0.66,0.24 0.59,1.23 0.94,1.79 0.38,0.18 0.59,0.54 0.84,0.85 0.98,0.22 1.29,0.95 1.88,1.60 0.41,0.45 0.86,0.82 1.23,1.23 0.80,0.89 1.28,2.02 2.07,2.82 0.13,0.95 0.89,1.78 1.23,2.83 0.07,0.22 0.01,0.53 0.09,0.75 0.04,0.13 0.23,0.24 0.28,0.37 0.19,0.51 0.51,1.19 0.56,1.60 0.05,0.49 -0.61,1.33 0.37,1.31 -0.23,-0.19 -0.45,-0.61 0,-0.75 0.46,1.26 1.20,2.26 1.70,3.49 -0.22,0.02 -0.05,0.41 0.09,0.37 0.01,-0.11 -0.01,-0.26 0.09,-0.28 0.55,0.67 1.05,1.40 1.60,2.07 0.16,-0.36 0.69,-0.36 0.75,-0.84 -0.22,-0.03 -0.38,-0.11 -0.56,-0.19 -0.78,-0.82 -1.26,-1.58 -1.89,-2.73 -0.50,-0.92 -1.13,-1.57 -0.84,-2.54 -0.38,-0.77 -0.90,-1.45 -1.22,-2.26 -0.58,-1.49 -1.31,-2.68 -1.70,-4.24 -1.37,-1.96 -2.91,-3.76 -4.91,-5.10 -0.03,-0.59 -0.53,-0.71 -0.84,-1.03 -0.01,-1.22 -0.81,-2.20 -1.03,-3.02 -0.11,-0.42 -0.17,-1.11 0,-1.51 1.01,0.75 2.00,0.19 2.45,-0.47 0.19,-0.28 0.40,-0.67 0.66,-1.03 0.43,-0.61 0.77,-1.19 1.13,-1.79 0.33,-0.54 0.82,-1.31 0.84,-1.98 1.45,-1.56 2.90,-3.13 4.05,-5.00 0.29,-0.11 0.82,-0.49 0.56,-0.84 -5.19e-4,0.13 -0.26,0.47 -0.37,0.19 1.08,-1.11 1.72,-2.68 2.83,-3.77 0.06,-1.27 1.49,-1.63 1.22,-2.92 -0.07,-0.01 -0.15,-0.02 -0.21,-0.02 z M 10.42,2.07 c 0.15,-0.03 0.12,0.33 -0.13,0.10 0.05,-0.06 0.09,-0.09 0.13,-0.10 z m 0.29,0.47 c 0.10,0.00 0.12,0.09 0.23,0.09 0.03,0.18 -0.43,0.13 -0.28,-0.09 0.01,-0.00 0.03,-0.00 0.04,-0.00 z m 26.80,0.66 c 0.14,0.02 0.09,0.42 -0.12,0.28 l 0,-0.19 c 0.08,0.01 0.08,-0.03 0.09,-0.09 0.01,-0.00 0.02,-0.00 0.03,-0.00 z M 37.01,3.97 c 0.55,0.12 -0.34,0.44 0,0 z m -0.58,1.03 c 0.06,0.00 0.10,0.04 0.11,0.09 -0.90,1.04 -1.44,2.46 -2.45,3.39 0.61,-1.30 1.50,-2.33 2.26,-3.49 0.02,-0.00 0.05,-0.00 0.07,-0.00 z M 14.49,9.07 c 0.10,0.00 0.12,0.09 0.23,0.09 0.68,1.30 1.57,2.39 2.07,3.87 -0.92,-1.18 -1.83,-2.38 -2.36,-3.96 0.01,-0.00 0.03,-0.00 0.05,-0.00 z m 19.40,0.00 c 0.30,0.11 -0.17,0.42 -0.28,0.56 -0.44,0.58 -1.06,1.53 -1.70,1.98 -0.10,0.52 -0.52,0.73 -0.84,1.03 -0.14,0.51 -0.49,0.82 -0.94,1.03 1.26,-1.53 2.40,-3.19 3.77,-4.62 z m -9.84,0.30 c 0.51,-0.01 1.02,0.31 1.06,0.82 -0.61,0.24 -1.29,-0.20 -1.41,-0.75 0.11,-0.04 0.23,-0.06 0.34,-0.06 z m -0.67,0.30 c 0.16,-0.00 0.30,0.11 0.32,0.43 -0.30,0.14 -0.66,0.38 -1.03,0.18 0.06,-0.28 0.43,-0.61 0.71,-0.61 z m 0.35,0.64 c 0.38,-0.00 0.81,0.12 1.10,0.25 -0.03,0.28 -0.15,0.47 -0.28,0.66 -0.78,0.09 -1.23,-0.14 -1.51,-0.56 0.13,-0.24 0.39,-0.34 0.69,-0.34 z m -1.16,0.06 c 0.36,1.04 2.41,1.53 2.64,0.09 0.50,0.03 0.38,0.68 0.56,1.03 -0.78,0.03 -1.74,0.20 -1.70,1.32 0.23,0.16 0.46,-0.47 0.37,-0.94 1.00,-0.09 2.81,-0.25 3.30,0.47 -1.02,0.01 -2.03,0.02 -2.73,-0.28 0.02,0.41 0.71,0.16 0.94,0.38 0.08,0.55 0.07,1.24 -0.18,1.69 -1.09,0.21 -2.92,0.32 -3.87,-0.09 -0.24,-0.63 -0.13,-1.18 -0.18,-1.88 0.18,-0.15 0.69,0.00 0.84,-0.19 -0.83,-0.19 -2.24,0.33 -3.11,0.09 0.15,-0.42 0.62,-0.23 0.94,-0.28 0.65,-0.09 1.43,-0.22 2.17,-0.19 0.15,0.13 0.29,0.26 0.47,0.37 -0.07,0.45 0.08,0.66 0.19,0.94 0.23,-0.42 -0.05,-1.14 -0.28,-1.41 l -1.03,0 c 0.06,-0.53 0.20,-0.99 0.66,-1.13 z m -0.28,2.12 c -0.15,0.00 -0.29,0.12 -0.38,0.42 0.32,0.07 0.11,-0.38 0.47,-0.28 0.10,0.26 0.60,0.84 0.19,1.03 -0.34,0.02 -0.37,-0.74 -0.66,-0.47 0.17,0.38 0.70,0.95 1.03,0.37 0.07,-0.54 -0.31,-1.09 -0.65,-1.08 z m 3.30,0.13 c -0.68,0.02 -1.19,0.96 -0.75,1.51 0.65,-0.05 0.99,-0.87 0.75,-1.51 z m -0.28,0.19 c 0.40,0.16 -0.01,1.02 -0.37,1.03 -0.05,-0.52 0.16,-0.77 0.37,-1.03 z m 4.58,1.12 c 0.10,0.00 0.12,0.09 0.23,0.09 -0.28,0.85 -0.64,1.61 -1.22,2.17 l 0,0.37 c -0.97,0.79 -1.12,2.40 -2.55,2.73 0.22,-0.61 0.77,-1.01 1.13,-1.51 0.37,-0.51 0.63,-1.09 1.12,-1.51 0.27,-0.91 0.81,-1.57 1.23,-2.35 0.01,-0.00 0.03,-0.00 0.05,-0.00 z m -12.42,0.09 c 0.18,0.00 0.11,0.25 0.37,0.18 0.45,1.21 1.26,2.07 1.79,3.21 0.36,0.51 0.94,0.82 1.32,1.32 -1.11,0.01 -1.78,-1.48 -2.26,-2.35 -0.47,-0.86 -0.95,-1.60 -1.22,-2.36 z m 6.22,0.45 c 0.36,-0.02 0.82,0.13 0.94,0.29 -0.12,0.53 -1.08,0.12 -1.41,0.19 -0.04,-0.33 0.18,-0.46 0.46,-0.48 z m 0.42,0.71 c 0.62,0.01 1.19,0.21 1.46,0.71 l 0.00,0 c 0.54,1.01 -0.07,2.17 -0.47,3.11 -0.57,-0.10 -0.80,-0.70 -1.41,-0.75 -0.62,-0.04 -0.91,0.36 -1.51,0.56 -0.59,-0.67 -0.53,-1.99 -0.19,-2.92 0.43,-0.42 1.32,-0.72 2.12,-0.71 z m 1.74,2.41 c 0.42,0.12 0.46,1.08 0.28,1.51 -1.06,-0.01 -0.40,-0.92 -0.28,-1.51 z m -4.53,0.09 c 0.34,0.12 0.29,0.64 0.47,0.94 -0.23,0.14 -0.31,0.38 -0.66,0.18 -0.03,-0.47 0.02,-0.85 0.19,-1.13 z m 2.33,0.90 c 0.12,0.00 0.25,0.01 0.39,0.04 l 0.00,-0.00 c 0.96,0.33 1.25,2.22 0.56,3.11 -0.31,-0.31 -0.25,-0.85 -0.75,-1.03 -0.52,-0.18 -1.19,0.11 -1.23,0.75 -0.61,-0.17 -0.43,-1.13 -0.47,-1.89 0.32,-0.50 0.64,-1.00 1.48,-0.98 z m -1.86,2.30 c 0.39,0.10 0.36,0.63 0.56,0.94 -0.50,0.50 -0.38,1.63 -1.13,1.88 -0.63,-0.89 0.33,-1.94 0.56,-2.83 z m 1.62,0.05 c 0.21,-0.01 0.44,0.05 0.64,0.22 0.15,0.85 0.35,1.65 0.28,2.73 -0.47,0.27 -1.09,0.26 -1.70,0.19 -0.50,-1.03 0.22,-1.74 0.19,-2.83 0.16,-0.18 0.36,-0.30 0.58,-0.32 z m 1.75,0.22 c 0.35,0.01 0.36,0.59 0.49,0.94 0.20,0.59 0.62,1.37 0.18,2.07 -0.38,-0.08 -0.37,-0.61 -0.56,-1.03 l -0.00,0 c -0.34,-0.77 -0.85,-1.21 -0.18,-1.98 0.02,-0.00 0.04,-0.00 0.07,-0.00 z m -4.44,2.44 c 0.19,-0.01 0.34,0.09 0.30,0.38 -0.03,0.29 -0.21,0.54 -0.85,0.47 -0.20,-0.46 0.22,-0.83 0.54,-0.86 z m 1.34,0.10 c 0.78,0.58 -0.24,1.97 -0.85,2.35 -0.59,-1.00 0.50,-1.69 0.85,-2.35 z m 2.54,0 c 0.34,0.63 1.09,1.34 0.84,2.26 -0.96,-0.01 -0.97,-0.98 -1.32,-1.60 0.09,-0.28 0.38,-0.37 0.47,-0.66 z m 1.69,0.28 c 0.32,0.14 0.60,0.33 0.66,0.75 -0.26,0.35 -0.65,0.04 -0.94,-0.09 -0.09,-0.41 0.19,-0.43 0.28,-0.65 z m -3.15,0.31 c 0.28,-0.01 0.57,0.07 0.60,0.24 -0.21,0.32 0.08,0.74 -0.47,1.03 -0.46,-0.01 -0.58,-0.35 -0.66,-0.75 l 0.85,0 c -0.10,-0.21 -0.59,-0.03 -0.85,-0.09 -0.02,-0.28 0.24,-0.42 0.52,-0.43 z m -3.30,0.24 c 0.10,0.00 0.12,0.09 0.23,0.09 -1.25,1.27 -2.46,2.48 -3.58,3.96 -0.30,0.40 -0.72,1.07 -1.31,1.13 0.13,-0.97 0.95,-1.73 1.51,-2.45 0.82,-1.05 1.75,-2.17 3.11,-2.74 0.01,-0.00 0.03,-0.00 0.05,-0.00 z m 4.27,0.34 c 0.06,-0.00 0.13,0.00 0.21,0.04 -0.13,0.44 0.29,0.62 0.09,0.85 -0.35,0.07 -0.45,-0.11 -0.75,-0.09 -0.00,-0.41 0.16,-0.77 0.45,-0.79 z m 2.95,0.13 0.28,0 c 0.71,0.34 1.12,1.11 1.70,1.70 0.87,0.89 1.57,1.47 2.26,2.64 0.17,0.30 0.59,0.63 0.37,1.03 -0.91,-0.78 -1.45,-1.85 -2.26,-2.73 -0.80,-0.86 -1.65,-1.67 -2.35,-2.64 z m -4.69,0.08 c 0.07,0.00 0.15,0.03 0.25,0.10 l 0,0.47 c -0.30,0.01 -0.41,0.21 -0.75,0.19 0.07,-0.28 0.18,-0.78 0.50,-0.76 z m 0.95,0.69 c 0.44,0.00 0.89,0.09 1.27,0.25 0.88,0.37 1.50,1.45 1.51,2.74 -2.09,-0.06 -3.99,-0.42 -5.85,0 0.14,-1.02 0.66,-2.13 1.51,-2.64 0.41,-0.24 0.97,-0.36 1.55,-0.35 z m -2.28,0.26 c 0.08,0.00 0.17,0.03 0.25,0.08 -0.10,0.33 -0.32,0.55 -0.66,0.66 -0.21,-0.31 0.05,-0.76 0.40,-0.75 z m 4.47,0.01 c 0.34,-0.01 0.57,0.32 0.59,0.73 -0.52,0.01 -0.69,-0.30 -0.84,-0.65 0.09,-0.04 0.17,-0.06 0.25,-0.07 z m -5.00,0.82 c 0.06,0.00 0.10,0.04 0.11,0.09 -0.25,0.85 -0.82,1.37 -0.75,2.54 -0.47,0.46 -0.59,1.29 -1.13,1.70 -0.31,0.68 -0.36,1.64 -1.32,1.69 0.20,-0.98 0.73,-1.91 1.13,-2.82 0.52,-1.20 1.06,-2.36 1.88,-3.21 0.02,-0.00 0.05,-0.00 0.07,-0.00 z m 2.86,1.96 c 1.09,-8.12e-4 2.13,0.08 2.91,0.39 0.14,0.58 0.14,1.68 0,2.26 -1.89,-0.14 -4.05,-0.46 -6.23,0 -0.07,-1.09 -0.11,-1.60 0.09,-2.54 l 0.00,0 c 0.98,-0.02 2.12,-0.11 3.21,-0.11 z m -8.15,1.24 c 0.06,0.00 0.09,0.04 0.11,0.09 -0.52,1.59 -1.15,3.24 -1.79,4.72 -0.12,0.29 -0.09,0.87 -0.56,0.84 -0.39,-0.26 0.14,-0.92 0.28,-1.31 0.53,-1.54 1.00,-3.08 1.89,-4.34 0.02,-0.00 0.05,-0.00 0.07,-0.00 z m 16.45,0.56 0.19,0 c 0.47,0.27 0.44,0.91 0.66,1.41 0.10,0.23 0.27,0.43 0.37,0.66 0.32,0.69 0.61,1.42 0.94,2.17 0.17,0.39 0.62,0.83 0.37,1.22 -0.41,0.11 -0.53,-0.40 -0.66,-0.66 -0.38,-0.79 -0.66,-1.89 -1.03,-2.82 -0.23,-0.59 -0.60,-1.11 -0.75,-1.70 -0.10,-0.01 -0.07,-0.17 -0.09,-0.28 z m -9.19,0.77 c 1.31,-0.01 2.70,0.21 3.81,0.45 -0.14,0.70 -0.34,1.35 -0.56,1.98 -1.22,-0.01 -3.46,-0.21 -5.00,0.19 -0.31,-0.59 -0.41,-1.40 -0.47,-2.26 0.66,-0.24 1.43,-0.34 2.22,-0.35 z m -5.05,1.68 c 0.10,-0.01 0.16,0.01 0.18,0.09 -0.27,1.21 -0.83,2.91 -1.13,4.34 -0.14,0.68 0.19,2.04 -0.75,1.98 -0.01,-0.54 0.22,-1.09 0.37,-1.70 0.42,-1.62 0.72,-3.18 1.32,-4.72 z m 5.76,0.93 c 0.80,-0.01 1.60,0.04 2.25,0.19 -0.35,0.80 -0.79,1.53 -1.41,2.07 -0.71,-0.16 -1.25,0.20 -1.70,0.09 -0.85,-0.20 -1.06,-1.36 -1.41,-2.17 l 0.00,0 c 0.66,-0.11 1.46,-0.18 2.27,-0.19 z m 5.97,0.30 c 0.04,-0.02 0.07,0.30 0.06,0.36 -0.04,0.18 -0.18,0.07 -0.09,-0.28 0.01,-0.04 0.02,-0.07 0.03,-0.08 z m 0.06,0.64 c 0.41,1.37 0.70,3.57 0.66,4.81 -0.65,0.21 -0.45,-0.54 -0.47,-1.03 -0.03,-1.03 -0.28,-2.48 -0.19,-3.77 z m -16.23,0.94 c 0.22,0.22 -0.12,0.69 -0.37,0.75 0.02,-0.35 0.21,-0.53 0.37,-0.75 z m 21.52,0.37 c 0.20,-0.01 0.30,0.07 0.28,0.28 -0.20,0.01 -0.30,-0.07 -0.28,-0.28 z m -0.32,0.08 c 0.10,0.00 0.12,0.09 0.23,0.10 0.18,0.69 0.44,1.22 0.75,1.79 0.28,0.51 0.79,0.98 0.84,1.69 -0.77,-0.72 -1.22,-2.28 -1.88,-3.30 -0.11,-0.12 -0.03,-0.14 0,-0.28 0.01,-0.00 0.03,-0.00 0.05,-0.00 z m -11.38,0.19 0.56,0 c 0.01,0.16 -0.11,0.19 -0.09,0.37 -0.30,0.02 -0.45,-0.11 -0.47,-0.37 z m -11.42,2.17 c 0.25,0.13 -0.04,0.51 -0.28,0.47 0.08,-0.16 0.22,-0.27 0.28,-0.47 z m -0.28,0.84 c 0.02,0.24 -0.03,0.40 -0.28,0.37 -0.17,-0.16 0.02,-0.37 0.28,-0.37 z m 25.16,0.55 c 0.13,-0.00 0.31,0.12 0.24,0.29 -0.29,0.10 -0.22,-0.14 -0.37,-0.18 0.01,-0.07 0.07,-0.10 0.13,-0.10 z m -6.46,0.01 c 0.34,0.25 0.43,0.76 0.75,1.03 -0.30,0.07 -0.70,-0.54 -0.75,-1.03 z m 6.88,0.65 c 0.19,-0.00 0.31,0.07 0.28,0.28 -0.24,0.02 -0.40,-0.03 -0.37,-0.28 0.03,-0.00 0.06,-0.00 0.08,-0.00 z m -26.64,0.00 c 0.03,-0.00 0.07,-0.00 0.11,0 0.09,0.38 -0.44,0.50 -0.37,0.09 0.06,-0.05 0.15,-0.08 0.25,-0.09 z m 5.21,0.18 c 0.38,0.02 -0.03,0.44 -0.09,0.56 -0.23,0.49 -0.53,1.63 -1.13,1.79 0.15,-1.04 0.90,-1.49 1.23,-2.36 z m 21.95,0.30 c 0.03,0.00 0.08,0.02 0.14,0.07 -0.23,0.28 -0.29,-0.08 -0.14,-0.07 z m -6.08,1.20 c 0.40,-0.02 0.41,0.33 0.47,0.66 -0.35,-0.02 -0.36,-0.38 -0.47,-0.66 z m -17.28,1.03 c 0.18,-0.03 0.13,0.43 -0.09,0.28 l 0,-0.19 c 0.08,0.01 0.08,-0.03 0.09,-0.09 z m 18.03,0.09 c 0.11,0.04 0.19,0.12 0.18,0.28 -0.15,0.02 -0.16,-0.08 -0.28,-0.09 0.01,-0.07 0.09,-0.09 0.09,-0.19 z M 13.51,44.39 c 0.02,-0.00 0.05,4.87e-4 0.08,0.00 0.17,0.16 -0.02,0.37 -0.28,0.37 -0.02,-0.21 0.02,-0.36 0.19,-0.38 z m -0.47,0.66 c 0.19,0.05 0.19,0.14 0.09,0.28 l -0.19,0 0,-0.00 c -0.02,-0.15 0.09,-0.15 0.09,-0.28 z m -0.37,0.47 c 0.19,0.05 0.19,0.14 0.09,0.28 l -0.19,0 c -0.02,-0.15 0.09,-0.16 0.09,-0.28 z m 20.68,0.28 0.18,0 0,0.28 -0.28,0 c -0.02,-0.15 0.08,-0.15 0.09,-0.28 z" />
</svg>
