<?xml version="1.0" encoding="UTF-8" standalone="no"?>
<!-- Created with Inkscape (http://www.inkscape.org/) -->
<svg xmlns:dc="http://purl.org/dc/elements/1.1/" xmlns:cc="http://creativecommons.org/ns#" xmlns:rdf="http://www.w3.org/1999/02/22-rdf-syntax-ns#" xmlns:svg="http://www.w3.org/2000/svg" xmlns="http://www.w3.org/2000/svg" version="1.1" width="100%" height="100%" viewBox="0 0 48 48" id="Layer_1" xml:space="preserve">
<defs id="defs35" />
<path d="m 38.10,2.80 c -0.18,-0.00 -0.38,0.01 -0.57,0.06 -0.33,0.09 -0.69,0.13 -1.04,0.16 -1.20,0.09 -2.35,0.42 -3.51,0.74 -0.98,0.26 -1.85,0.74 -2.69,1.31 -0.29,0.20 -0.61,0.36 -0.95,0.56 0.02,-1.22 0.10,-1.68 0.43,-2.20 l -1.14,0 c 0,0.71 0.03,1.40 -0.01,2.08 C 28.58,5.80 28.42,6.12 28.22,6.25 27.57,6.67 26.88,7.03 26.20,7.40 25.90,7.56 25.62,7.76 25.27,7.39 25.12,7.23 24.77,7.27 24.51,7.22 c -0.10,-0.01 -0.24,0.01 -0.32,-0.04 -0.41,-0.31 -0.82,0.04 -1.23,-0.01 -0.04,-0.00 -0.11,0.03 -0.14,0.07 -0.30,0.49 -0.57,0.34 -0.86,-0.01 C 21.86,7.13 21.71,7.07 21.59,7.00 21.01,6.65 20.39,6.29 20.27,5.56 20.16,4.90 20.16,4.22 20.11,3.46 19.77,3.54 19.46,3.62 19.27,3.66 19.33,4.37 19.39,4.99 19.44,5.61 19.06,5.43 18.68,5.26 18.31,5.06 17.67,4.72 17.08,4.30 16.42,4.04 15.50,3.69 14.55,3.41 13.59,3.19 12.83,3.02 12.03,2.99 11.25,2.90 10.57,2.82 9.91,2.72 9.28,3.17 8.65,3.61 7.93,3.91 7.29,4.32 6.61,4.76 5.98,5.25 5.34,5.74 5.24,5.82 5.23,6.00 5.18,6.14 5.33,6.17 5.51,6.27 5.62,6.22 6.12,6.01 6.61,5.79 7.06,5.50 7.94,4.92 8.79,4.29 9.66,3.69 c 0.06,-0.04 0.18,-0.04 0.27,-0.03 0.91,0.08 1.82,0.17 2.73,0.26 0.61,0.05 1.26,0.00 1.84,0.18 0.87,0.26 1.70,0.67 2.54,1.04 0.64,0.28 1.25,0.63 1.89,0.91 0.15,0.06 0.38,-0.01 0.57,-0.02 0.09,0.38 0.20,0.77 0.27,1.16 0.02,0.15 0.01,0.36 -0.07,0.47 -0.34,0.44 -0.71,0.87 -1.09,1.28 -0.82,0.87 -1.67,1.71 -2.48,2.59 -0.27,0.30 -0.46,0.70 -0.65,1.07 -0.14,0.27 -0.03,0.49 0.25,0.61 0.27,0.11 0.55,0.20 0.83,0.30 0.31,0.11 0.62,0.22 0.93,0.33 -2.23e-4,0.04 0,0.09 0,0.13 -0.29,0.14 -0.59,0.30 -0.89,0.44 -0.77,0.36 -1.56,0.69 -2.30,1.11 -0.68,0.38 -0.72,0.60 -0.54,1.40 0.02,0.10 0.01,0.27 -0.04,0.33 -0.80,0.78 -0.91,1.87 -1.22,2.85 -0.26,0.83 -0.38,1.71 -0.47,2.59 -0.06,0.59 -0.58,1.13 -0.23,1.78 0.02,0.04 -0.08,0.17 -0.14,0.23 -0.22,0.21 -0.52,0.38 -0.67,0.63 -0.38,0.65 -0.96,1.09 -1.51,1.58 -0.05,0.05 -0.11,0.12 -0.11,0.20 -0.00,0.04 0.07,0.12 0.13,0.13 0.29,0.09 0.59,0.17 0.87,0.26 0.22,-0.33 0.39,-0.80 0.72,-1.03 0.50,-0.36 0.79,-0.85 1.10,-1.35 0.15,-0.25 0.46,-0.43 0.56,-0.69 0.19,-0.52 0.38,-1.07 0.41,-1.63 0.08,-1.36 0.30,-2.70 0.60,-4.03 0.03,-0.16 0.06,-0.33 0.09,-0.50 0.05,-0.00 0.11,-0.01 0.17,-0.02 0.07,0.18 0.16,0.37 0.21,0.57 0.24,1.13 0.10,2.28 0.10,3.42 -0.00,1.11 -0.00,2.23 -0.03,3.34 -0.00,0.15 -0.14,0.36 -0.28,0.44 -0.61,0.31 -1.27,0.55 -1.87,0.89 -0.60,0.33 -1.16,0.73 -1.73,1.13 -0.09,0.06 -0.16,0.26 -0.15,0.38 0.10,0.77 0.23,1.55 0.34,2.32 0.01,0.13 -0.02,0.28 0.01,0.40 0.22,0.85 0.48,1.71 0.69,2.57 0.18,0.74 0.33,1.50 0.51,2.26 0.12,0.54 0.26,1.08 0.41,1.62 0.18,0.66 0.42,1.30 0.57,1.97 0.21,0.91 0.81,1.83 0.10,2.79 -0.00,0.01 -0.00,0.02 -0.01,0.03 -0.26,0.66 -0.54,1.32 -0.80,1.98 -0.08,0.21 -0.11,0.46 -0.16,0.69 0.29,0.04 0.58,0.10 0.88,0.12 0.09,0.00 0.20,-0.06 0.20,-0.06 0.01,-0.35 -0.07,-0.70 0.06,-0.90 0.36,-0.53 0.42,-1.15 0.65,-1.72 0.10,-0.25 0.15,-0.57 0.34,-0.73 0.55,-0.46 0.59,-0.78 0.26,-1.43 -0.36,-0.70 -0.65,-1.46 -0.91,-2.21 -0.26,-0.76 -0.45,-1.56 -0.67,-2.35 -0.20,-0.74 -0.41,-1.49 -0.60,-2.24 -0.19,-0.77 -0.37,-1.56 -0.55,-2.34 -0.15,-0.68 -0.29,-1.36 -0.44,-2.05 0.95,-0.52 1.87,-1.03 2.80,-1.53 0.36,-0.20 0.58,-0.05 0.63,0.39 0.07,0.71 0.11,1.43 0.25,2.13 0.17,0.87 0.42,1.74 0.64,2.61 0.00,0.02 0.02,0.05 0.03,0.07 0.13,0.37 0.26,0.75 0.41,1.13 0.04,0.10 0.12,0.20 0.20,0.29 0.12,0.15 0.29,0.28 0.40,0.44 0.47,0.74 0.49,1.79 1.45,2.22 0.02,0.01 0.04,0.04 0.05,0.06 0.23,0.44 0.43,0.92 0.71,1.33 0.23,0.34 0.51,0.80 0.85,0.87 0.46,0.09 0.64,0.40 0.91,0.65 0.50,0.46 0.94,1.04 1.68,1.14 0.63,0.08 1.28,0.10 1.92,0.13 0.19,0.00 0.42,0.03 0.57,-0.05 0.59,-0.36 1.21,-0.70 1.59,-1.33 0.07,-0.12 0.26,-0.30 0.36,-0.28 0.35,0.05 0.49,-0.16 0.64,-0.38 0.37,-0.54 0.73,-1.11 1.10,-1.66 0.06,-0.09 0.21,-0.25 0.24,-0.23 0.28,0.15 0.30,-0.11 0.39,-0.23 0.22,-0.30 0.44,-0.61 0.66,-0.92 0.06,-0.09 0.10,-0.19 0.14,-0.30 0.09,-0.21 0.15,-0.45 0.28,-0.64 0.21,-0.32 0.52,-0.59 0.70,-0.94 0.34,-0.65 0.61,-1.35 0.91,-2.03 0.12,-0.27 0.29,-0.54 0.36,-0.83 0.23,-1.02 0.44,-2.06 0.66,-3.11 1.06,0.33 1.91,1.00 2.76,1.68 0.06,0.05 0.06,0.23 0.03,0.34 -0.16,0.64 -0.33,1.28 -0.51,1.91 -0.16,0.55 -0.32,1.11 -0.53,1.65 -0.35,0.88 -0.74,1.76 -1.14,2.63 -0.11,0.25 -0.29,0.47 -0.48,0.75 -0.00,-0.01 0.07,0.09 0.05,0.16 -0.06,0.20 -0.16,0.40 -0.25,0.60 -0.45,1.02 -0.91,2.05 -1.37,3.07 -0.25,0.56 -0.21,0.71 0.21,1.15 0.10,0.10 0.15,0.25 0.23,0.38 0.25,0.41 0.44,0.89 0.78,1.21 0.23,0.22 0.38,0.42 0.44,0.71 0.03,0.17 0.09,0.34 0.16,0.57 0.37,-0.19 0.70,-0.36 1.02,-0.56 0.03,-0.01 0.00,-0.24 -0.05,-0.27 -0.91,-0.49 -1.16,-1.52 -1.82,-2.23 -0.05,-0.05 -0.05,-0.21 -0.02,-0.29 0.53,-1.40 1.06,-2.81 1.61,-4.22 0.33,-0.86 0.69,-1.72 1.05,-2.57 0.18,-0.43 0.44,-0.83 0.61,-1.26 0.15,-0.39 0.23,-0.82 0.36,-1.23 0.11,-0.35 0.26,-0.70 0.37,-1.06 0.08,-0.28 0.11,-0.59 0.18,-0.88 0.08,-0.34 0.19,-0.67 0.27,-1.02 0.01,-0.06 -0.03,-0.17 -0.08,-0.23 -0.40,-0.42 -0.78,-0.89 -1.25,-1.22 -0.60,-0.42 -1.28,-0.73 -1.93,-1.07 -0.57,-0.29 -0.61,-0.46 -0.53,-1.12 0.09,-0.81 0.13,-1.64 0.14,-2.46 0.01,-0.60 -0.07,-1.21 -0.07,-1.82 0.00,-0.36 0.10,-0.72 0.16,-1.08 0.07,-0.42 0.13,-0.86 0.24,-1.28 0.03,-0.13 0.23,-0.32 0.34,-0.31 0.13,0.01 0.34,0.18 0.37,0.32 0.14,0.59 0.23,1.20 0.35,1.80 0.04,0.24 0.15,0.48 0.17,0.73 0.13,1.18 0.26,2.36 0.37,3.55 0.02,0.25 0.14,0.36 0.37,0.44 0.16,0.05 0.30,0.19 0.44,0.31 0.42,0.38 0.79,0.88 1.29,1.13 0.42,0.20 0.77,0.42 1.05,0.78 0.05,0.07 0.24,0.13 0.30,0.09 0.19,-0.13 0.37,-0.29 0.53,-0.47 0.18,-0.20 0.19,-0.40 -0.11,-0.52 -0.66,-0.26 -1.29,-0.56 -1.84,-1.04 -0.62,-0.53 -1.01,-1.16 -1.17,-1.94 -0.04,-0.23 0.03,-0.50 -0.00,-0.74 -0.12,-0.73 -0.25,-1.46 -0.41,-2.18 -0.18,-0.82 -0.36,-1.65 -0.63,-2.45 -0.12,-0.38 -0.41,-0.73 -0.71,-1.01 -0.17,-0.16 -0.28,-0.23 -0.23,-0.49 0.09,-0.57 -0.05,-1.08 -0.61,-1.36 -0.87,-0.43 -1.76,-0.84 -2.64,-1.26 -0.25,-0.12 -0.49,-0.27 -0.80,-0.45 0.74,-0.24 1.36,-0.45 1.99,-0.64 0.47,-0.14 0.67,-0.40 0.56,-0.88 -0.06,-0.29 -0.15,-0.60 -0.31,-0.85 -0.91,-1.50 -1.85,-2.99 -2.79,-4.47 -0.19,-0.30 -0.08,-0.85 0.23,-1.02 0.50,-0.25 1.00,-0.51 1.51,-0.76 0.92,-0.45 1.79,-0.99 2.85,-1.14 1.30,-0.18 2.59,-0.44 3.88,-0.66 0.34,-0.05 0.67,-0.11 1.02,0.08 0.76,0.42 1.54,0.80 2.33,1.18 0.51,0.25 1.04,0.51 1.58,0.71 0.14,0.05 0.38,-0.12 0.57,-0.19 C 43.29,5.22 43.27,4.98 43.13,4.87 42.89,4.69 42.59,4.58 42.31,4.44 41.44,4.03 40.61,3.55 39.71,3.24 39.19,3.05 38.67,2.82 38.10,2.80 z m -0.12,0.27 c 0.01,0.05 0.02,0.11 0.03,0.17 -0.79,0.14 -1.58,0.29 -2.37,0.44 -0.00,0.00 -0.01,0.00 -0.01,0.01 -0.00,-0.03 -0.01,-0.07 -0.01,-0.10 0.00,0.03 0.01,0.06 0.02,0.10 0.00,-7.24e-4 0.01,-0.00 0.01,-0.00 0.71,-0.51 1.55,-0.41 2.33,-0.61 z M 10.33,3.21 c 0.92,0.07 1.85,0.14 2.77,0.21 -0.00,0.07 -0.01,0.14 -0.01,0.21 -0.92,-0.09 -1.84,-0.19 -2.77,-0.29 0.00,-0.04 0.00,-0.09 0.01,-0.13 z m 29.08,0.24 c 0.62,0.27 1.25,0.55 1.87,0.83 -0.03,0.06 -0.05,0.13 -0.09,0.19 -0.60,-0.30 -1.21,-0.61 -1.82,-0.92 0.01,-0.03 0.02,-0.07 0.03,-0.10 z m -3.82,0.07 c 0.00,0.02 0.00,0.04 0.01,0.06 -0.34,0.17 -0.71,0.23 -1.08,0.29 -0.00,-0.04 -0.02,-0.09 -0.03,-0.14 0.36,-0.07 0.73,-0.14 1.10,-0.22 z M 7.97,4.25 c 0.03,0.04 0.06,0.08 0.09,0.13 C 7.69,4.62 7.33,4.87 6.97,5.11 6.94,5.07 6.90,5.03 6.87,4.99 7.24,4.74 7.60,4.50 7.97,4.25 z M 28.53,6.78 c 0.04,0.15 0.09,0.30 0.13,0.46 0.06,0.24 0.05,0.53 0.18,0.73 0.81,1.29 1.66,2.58 2.50,3.87 0.17,0.26 0.19,0.49 -0.19,0.60 -0.73,0.20 -1.45,0.44 -2.19,0.63 -0.11,0.03 -0.30,-0.04 -0.39,-0.12 -0.46,-0.42 -0.92,-0.86 -1.36,-1.32 -0.08,-0.08 -0.09,-0.22 -0.14,-0.34 0.00,-0.38 -0.01,-0.75 -0.48,-0.86 -0.28,-0.06 -0.46,-0.68 -0.37,-0.95 0.14,-0.43 0.24,-0.88 0.35,-1.33 0.05,-0.23 0.16,-0.36 0.40,-0.47 0.41,-0.19 0.77,-0.50 1.17,-0.74 0.12,-0.07 0.27,-0.09 0.41,-0.13 z m -7.99,0.27 c 0.35,0.15 0.57,0.24 0.78,0.35 0.07,0.04 0.15,0.14 0.15,0.22 0.03,0.40 -0.01,0.81 0.08,1.19 0.18,0.70 -0.08,1.14 -0.65,1.50 -0.39,0.24 -0.42,0.52 -0.23,1.13 -0.27,0.16 -0.57,0.31 -0.82,0.52 -0.26,0.21 -0.52,0.45 -0.72,0.72 -0.13,0.18 -0.22,0.18 -0.41,0.12 -0.52,-0.15 -1.06,-0.27 -1.58,-0.42 -0.13,-0.03 -0.25,-0.14 -0.38,-0.22 0.07,-0.10 0.14,-0.22 0.23,-0.31 0.64,-0.61 1.29,-1.22 1.95,-1.82 0.62,-0.56 1.20,-1.15 1.62,-1.88 0.07,-0.13 0.03,-0.34 0.03,-0.52 2.24e-4,-0.16 -0.02,-0.33 -0.03,-0.59 z m 3.36,0.36 c 0.07,0.12 0.21,0.24 0.22,0.37 0.02,0.47 -0.18,0.93 0.04,1.43 0.09,0.20 -0.02,0.50 -0.05,0.76 0.06,0.01 0.12,0.03 0.18,0.05 0.05,-0.18 0.15,-0.36 0.15,-0.54 0.01,-0.50 -0.02,-1.01 0,-1.52 0.00,-0.14 0.18,-0.41 0.25,-0.40 0.30,0.04 0.53,0.18 0.57,0.56 0.04,0.54 0.13,1.07 0.23,1.61 0.02,0.12 0.11,0.25 0.20,0.36 0.16,0.21 0.24,0.40 0.13,0.69 -0.14,0.39 0.00,0.59 0.50,0.70 -0.22,0.25 -0.42,0.49 -0.58,0.67 -0.25,-0.10 -0.59,-0.29 -0.62,-0.24 -0.17,0.23 -0.28,0.53 -0.43,0.87 -0.62,-0.02 -1.36,-0.06 -2.13,-0.10 0.01,-0.09 0.02,-0.14 0.02,-0.20 0.00,-0.15 0.01,-0.30 0.01,-0.45 -0.16,0.00 -0.33,0.01 -0.50,0.01 -0.12,-5.22e-4 -0.27,0.02 -0.36,-0.03 -0.25,-0.16 -0.49,-0.36 -0.78,-0.58 0.25,-0.02 0.48,0.00 0.66,-0.07 0.17,-0.07 0.33,-0.23 0.43,-0.40 0.03,-0.05 -0.12,-0.24 -0.21,-0.34 -0.27,-0.31 -0.46,-0.34 0.04,-0.72 0.19,-0.14 0.29,-0.45 0.37,-0.71 0.14,-0.48 0.02,-1.07 0.51,-1.43 0.14,-0.10 0.30,-0.18 0.51,-0.30 0.26,0.99 -0.23,1.93 0.00,2.84 0.06,0.00 0.13,0.00 0.20,0.00 0.08,-0.94 0.17,-1.88 0.26,-2.83 0.04,-0.01 0.08,-0.03 0.12,-0.05 z m -3.73,0.51 c 0.04,0.04 0.08,0.08 0.12,0.12 -0.22,0.20 -0.45,0.41 -0.67,0.61 l -0.51,0.51 c -0.02,0.09 -0.01,0.21 -0.07,0.26 -0.79,0.74 -1.60,1.47 -2.40,2.20 -0.01,0.01 -0.05,-0.00 -0.15,-0.01 0.27,-0.32 0.51,-0.62 0.77,-0.90 0.43,-0.44 0.88,-0.87 1.35,-1.28 0.13,-0.12 0.33,-0.17 0.51,-0.26 -0.16,-0.41 0.21,-0.44 0.42,-0.59 0.11,-0.32 0.23,-0.64 0.63,-0.65 z m 9.53,0.50 c 0.20,0.27 0.41,0.55 0.61,0.83 -0.04,0.02 -0.08,0.05 -0.12,0.07 -0.19,-0.28 -0.38,-0.56 -0.57,-0.85 0.02,-0.01 0.05,-0.04 0.08,-0.06 z m -8.94,3.39 c 0.15,-0.01 0.30,0.10 0.50,0.37 0.58,0.79 1.31,1.00 2.24,0.90 0.61,-0.06 1.25,0.03 1.87,-0.02 0.48,-0.03 0.86,-0.30 1.12,-0.74 0.28,-0.50 0.41,-0.50 0.81,-0.07 0.39,0.42 0.71,0.94 1.18,1.26 0.74,0.52 1.56,0.93 2.36,1.37 0.81,0.44 1.65,0.84 2.45,1.30 0.27,0.15 0.35,0.50 0.18,0.78 -0.36,0.58 -0.79,1.05 -1.50,1.28 -0.60,0.19 -1.18,0.53 -1.69,0.90 -0.70,0.52 -1.46,0.67 -2.31,0.60 -0.06,-0.00 -0.14,0.00 -0.21,0.01 -0.00,0.02 -0.00,0.04 -0.00,0.06 -0.95,-0.10 -1.90,-0.22 -2.86,-0.30 -0.58,-0.04 -1.17,-0.05 -1.76,-0.03 -1.26,0.02 -2.52,0.06 -3.79,0.10 -0.56,0.02 -0.97,-0.28 -1.35,-0.62 -0.58,-0.51 -1.22,-0.85 -1.99,-1.02 -0.69,-0.15 -1.18,-0.68 -1.63,-1.21 -0.21,-0.25 0.10,-0.94 0.53,-1.21 0.16,-0.10 0.35,-0.18 0.53,-0.27 0.84,-0.40 1.69,-0.80 2.55,-1.20 0.89,-0.42 1.55,-1.14 2.22,-1.83 0.24,-0.25 0.40,-0.39 0.56,-0.40 z m -4.20,0.79 c 0.05,-4.3e-5 0.11,0.01 0.18,0.03 0.53,0.18 1.08,0.33 1.65,0.50 -0.40,0.43 -1.47,0.29 -2.20,-0.24 0.09,-0.19 0.20,-0.29 0.37,-0.29 z m 14.68,0.14 c 0.19,-3.7e-5 0.34,0.11 0.45,0.32 -0.66,0.45 -1.57,0.56 -1.96,0.21 0.45,-0.17 0.87,-0.34 1.29,-0.49 0.07,-0.02 0.14,-0.04 0.21,-0.04 z m -16.25,5.51 c 0.18,0.28 0.36,0.57 0.55,0.85 0.25,0.37 0.52,0.74 0.75,1.13 0.11,0.18 0.13,0.42 0.24,0.61 0.16,0.27 0.33,0.59 0.58,0.76 0.29,0.19 0.45,0.38 0.46,0.72 0.00,0.06 -0.01,0.18 0.00,0.19 0.58,0.19 0.47,0.84 0.79,1.22 0.52,0.61 0.92,1.33 1.39,1.99 0.45,0.62 0.91,1.24 1.39,1.85 0.38,0.48 0.81,0.93 1.19,1.42 0.30,0.39 0.16,0.91 -0.18,1.25 -0.51,0.49 -1.01,1.01 -1.43,1.58 -0.71,0.96 -1.37,1.98 -2.04,2.98 -0.08,0.12 -0.15,0.26 -0.22,0.40 -0.15,0.35 -0.38,0.40 -0.63,0.11 C 17.36,34.83 16.92,34.23 16.69,33.47 16.54,32.97 16.18,32.53 16.01,32.04 15.65,30.96 15.32,29.86 15.03,28.76 14.88,28.17 14.79,27.55 14.73,26.93 14.65,26.08 14.63,25.22 14.61,24.36 c -0.00,-0.36 0.08,-0.72 0.09,-1.09 0.01,-0.34 -0.01,-0.69 -0.01,-1.03 5.22e-4,-0.79 0.00,-1.58 0.01,-2.37 4.47e-4,-0.05 0.03,-0.10 0.10,-0.27 0.10,0.22 0.19,0.35 0.21,0.49 0.11,0.87 0.23,1.74 0.32,2.62 0.02,0.24 -0.10,0.50 -0.07,0.75 0.04,0.38 0.17,0.75 0.25,1.13 0.21,1.04 0.41,2.09 0.65,3.14 0.09,0.42 0.28,0.82 0.41,1.23 0.23,0.74 0.46,1.48 0.71,2.22 0.03,0.11 0.20,0.18 0.31,0.27 0.03,-0.12 0.12,-0.27 0.09,-0.38 -0.40,-1.17 -0.85,-2.34 -1.24,-3.52 -0.18,-0.57 -0.26,-1.18 -0.38,-1.78 -0.13,-0.63 -0.30,-1.27 -0.39,-1.91 -0.05,-0.39 0.04,-0.81 0.00,-1.21 -0.08,-0.75 -0.19,-1.50 -0.33,-2.24 -0.13,-0.69 -0.31,-1.38 -0.47,-2.07 0.03,-0.00 0.06,-0.01 0.09,-0.02 z m 0.89,0.16 c 0.35,0.16 0.73,0.29 1.07,0.48 0.36,0.21 0.67,0.52 1.05,0.70 0.68,0.32 0.79,0.96 1.01,1.57 0.23,0.66 0.50,1.31 0.79,1.94 0.48,1.04 0.99,2.08 1.51,3.12 0.18,0.36 0.42,0.70 0.63,1.05 -0.04,0.02 -0.08,0.05 -0.13,0.08 C 21.39,26.91 20.93,26.39 20.53,25.84 19.88,24.95 19.26,24.03 18.63,23.12 18.06,22.29 17.50,21.45 16.92,20.62 16.65,20.24 16.34,19.90 16.09,19.51 15.93,19.23 15.84,18.91 15.73,18.60 c 0.04,-0.04 0.09,-0.09 0.13,-0.14 z m 16.16,0.33 c 0.07,-0.00 0.17,0.02 0.22,0.06 0.04,0.03 0.03,0.20 -0.01,0.26 -0.37,0.48 -0.77,0.95 -1.15,1.42 -0.23,0.29 -0.45,0.59 -0.68,0.89 -0.49,0.63 -0.97,1.26 -1.48,1.88 -0.79,0.97 -1.60,1.94 -2.40,2.90 -0.04,0.05 -0.10,0.08 -0.16,0.13 -0.38,0.45 -0.77,0.91 -1.16,1.36 -0.04,-0.03 -0.08,-0.06 -0.12,-0.09 0.40,-0.63 0.69,-1.34 1.27,-1.86 0.42,-0.59 0.90,-1.15 1.27,-1.78 0.41,-0.70 0.73,-1.45 1.08,-2.19 0.19,-0.40 0.30,-0.85 0.53,-1.23 0.14,-0.23 0.40,-0.42 0.64,-0.58 0.44,-0.29 0.90,-0.56 1.36,-0.82 0.23,-0.13 0.46,-0.26 0.71,-0.36 0.02,-0.00 0.04,-0.01 0.06,-0.01 z m -18.94,0.45 c 0.07,0.01 0.15,0.03 0.23,0.04 -0.14,0.60 -0.28,1.21 -0.43,1.81 0.02,0.08 0.07,0.16 0.06,0.24 -0.14,0.99 -0.30,1.98 -0.45,2.97 -0.06,0.01 -0.13,0.02 -0.20,0.04 -0.07,-0.14 -0.23,-0.30 -0.21,-0.42 0.19,-0.92 0.42,-1.83 0.63,-2.75 0.12,-0.65 0.24,-1.30 0.36,-1.95 z m 19.58,0.69 c 0.06,0.00 0.12,0.01 0.18,0.02 -0.01,0.38 0.04,0.78 -0.21,1.14 0.05,0.24 0.15,0.49 0.14,0.73 -0.03,1.34 -0.04,2.68 -0.17,4.02 -0.11,1.11 -0.36,2.22 -0.61,3.32 -0.18,0.83 -0.45,1.65 -0.72,2.47 -0.06,0.20 -0.26,0.36 -0.39,0.53 -0.07,0.25 -0.11,0.54 -0.24,0.78 -0.43,0.77 -0.89,1.52 -1.37,2.27 -0.30,0.48 -0.46,0.45 -0.74,-0.06 C 28.13,34.45 27.82,33.64 27.30,33.00 26.53,32.03 25.90,30.90 24.81,30.21 c 0.07,0.16 0.11,0.37 0.23,0.50 1.12,1.17 2.16,2.42 2.89,3.89 0.17,0.36 0.35,0.72 0.51,1.09 0.03,0.07 -0.03,0.19 -0.04,0.29 -0.22,-0.42 -0.66,-0.25 -0.99,-0.39 -0.07,0.17 -0.13,0.31 -0.17,0.45 -0.01,0.05 0.01,0.13 0.05,0.17 0.02,0.02 0.13,0.02 0.14,0 0.22,-0.47 0.62,-0.14 0.93,-0.20 -0.05,0.18 -0.07,0.39 -0.16,0.56 -0.66,1.30 -1.53,2.48 -2.56,3.52 -0.98,0.98 -1.59,1.05 -2.87,0.49 -1.40,-0.60 -2.39,-1.66 -2.80,-3.21 -0.17,-0.64 -0.19,-1.22 -0.13,-1.89 0.06,-0.72 0.29,-1.24 0.71,-1.78 0.34,-0.45 0.55,-1.00 0.87,-1.48 0.16,-0.24 0.44,-0.42 0.64,-0.65 0.17,-0.20 0.31,-0.43 0.46,-0.66 0.19,-0.29 0.43,-0.42 0.81,-0.37 0.37,0.04 0.76,-0.04 0.92,-0.49 0.18,0.02 0.35,0.05 0.53,0.08 -0.43,-0.48 -0.42,-0.76 -0.00,-1.24 0.23,-0.27 0.42,-0.58 0.64,-0.87 0.06,-0.08 0.17,-0.13 0.26,-0.18 0.24,-0.11 0.56,-0.16 0.47,-0.57 -0.01,-0.04 0.11,-0.14 0.18,-0.19 0.18,-0.12 0.41,-0.20 0.56,-0.37 0.43,-0.48 0.83,-0.98 1.24,-1.49 0.08,-0.10 0.11,-0.23 0.16,-0.36 0.08,-0.22 0.07,-0.53 0.46,-0.44 0.04,0.01 0.12,-0.05 0.16,-0.10 0.42,-0.49 0.85,-0.98 1.24,-1.51 0.14,-0.19 0.15,-0.48 0.25,-0.71 0.06,-0.15 0.17,-0.40 0.28,-0.42 0.43,-0.05 0.61,-0.34 0.80,-0.67 0.06,-0.11 0.19,-0.19 0.30,-0.28 0.07,-0.18 0.14,-0.36 0.24,-0.61 0.26,0.34 0.12,0.52 -0.07,0.69 0.01,0.15 0.08,0.33 0.02,0.44 -0.32,0.63 -0.24,1.33 -0.38,1.99 -0.16,0.76 -0.30,1.53 -0.50,2.28 -0.33,1.31 -0.67,2.62 -1.06,3.91 -0.17,0.59 -0.47,1.14 -0.70,1.72 -0.04,0.11 -0.04,0.25 -0.06,0.37 0.05,0.02 0.10,0.04 0.16,0.07 0.19,-0.35 0.44,-0.68 0.56,-1.05 0.49,-1.48 0.96,-2.98 1.39,-4.48 0.18,-0.64 0.24,-1.31 0.36,-1.97 0.15,-0.86 0.31,-1.73 0.49,-2.59 0.03,-0.15 0.15,-0.29 0.23,-0.44 0.03,-0.36 0.07,-0.72 0.11,-1.08 z m -13.73,0.05 c 3.35,0.06 6.55,0.13 9.83,0.20 -0.20,0.54 -0.41,1.02 -0.57,1.51 -0.42,1.37 -1.24,2.51 -2.13,3.61 -0.86,1.06 -1.55,2.25 -1.88,3.61 -0.06,0.25 -0.12,0.51 -0.20,0.77 -0.07,0.25 -0.20,0.49 -0.52,0.45 -0.27,-0.03 -0.38,-0.22 -0.47,-0.50 -0.40,-1.24 -0.65,-2.54 -1.36,-3.70 -0.69,-1.14 -1.19,-2.40 -1.75,-3.63 -0.32,-0.71 -0.58,-1.45 -0.92,-2.33 z m 16.27,1.47 c 0.12,0.59 0.26,1.19 0.36,1.79 0.09,0.60 0.13,1.22 0.19,1.83 -0.24,-0.00 -0.34,-0.10 -0.37,-0.49 -0.03,-0.33 -0.02,-0.67 -0.06,-1.00 -0.08,-0.69 -0.19,-1.38 -0.28,-2.07 0.05,-0.01 0.11,-0.02 0.17,-0.03 z m -21.11,5.02 c 0.14,0.72 0.14,0.70 -0.41,0.99 -0.71,0.36 -1.40,0.75 -2.11,1.13 -0.13,0.07 -0.28,0.10 -0.44,0.16 -0.09,-0.18 -0.18,-0.33 -0.32,-0.59 1.09,-0.56 2.17,-1.11 3.29,-1.69 z m 19.43,0.91 c 0.03,-0.00 0.06,4.27e-4 0.09,0.01 0.39,0.16 0.79,0.34 1.15,0.57 0.45,0.29 0.88,0.63 1.26,0.92 -0.09,0.18 -0.14,0.35 -0.25,0.44 -0.08,0.06 -0.29,0.07 -0.37,0.02 -0.57,-0.38 -1.14,-0.79 -1.71,-1.19 -0.10,-0.07 -0.24,-0.11 -0.31,-0.20 -0.08,-0.13 -0.11,-0.31 -0.17,-0.47 0.10,-0.02 0.22,-0.07 0.32,-0.08 z M 10.69,28.77 c 0.04,0.31 0.09,0.62 0.14,0.93 0.15,0.59 0.30,1.18 0.46,1.77 -0.03,0.01 -0.07,0.02 -0.11,0.03 -0.21,-0.55 -0.42,-1.10 -0.43,-1.72 -0.07,-0.32 -0.14,-0.65 -0.22,-0.98 0.05,-0.01 0.10,-0.02 0.15,-0.03 z m 25.12,2.04 c 0.20,0.56 -0.01,1.02 -0.20,1.48 -0.06,-0.01 -0.12,-0.03 -0.19,-0.05 0.13,-0.47 0.26,-0.95 0.39,-1.43 z m -24.35,1.41 c 0.06,0.24 0.13,0.50 0.20,0.74 -0.05,0.01 -0.11,0.02 -0.17,0.04 -0.05,-0.25 -0.10,-0.50 -0.16,-0.75 0.04,-0.01 0.09,-0.02 0.13,-0.03 z m 14.13,0.28 c -0.03,0.07 -0.09,0.15 -0.08,0.23 0.03,0.20 0.08,0.40 0.16,0.72 0.06,-0.01 0.26,-0.01 0.28,-0.07 0.04,-0.16 0.07,-0.36 0.01,-0.51 C 25.91,32.73 25.72,32.64 25.59,32.52 z m -4.96,0.11 c 0.01,0.02 0.03,0.04 0.05,0.06 -0.12,0.23 -0.24,0.47 -0.37,0.69 -0.04,0.06 -0.13,0.10 -0.19,0.15 -0.00,-0.09 -0.05,-0.22 -0.00,-0.28 0.16,-0.22 0.35,-0.42 0.53,-0.63 z m 4.30,0.05 c -0.16,0.10 -0.33,0.20 -0.49,0.30 0.00,0.03 0.00,0.07 0.01,0.10 0.12,0.02 0.28,0.10 0.35,0.05 0.11,-0.08 0.16,-0.24 0.23,-0.37 -0.03,-0.02 -0.06,-0.05 -0.10,-0.08 z m -13.21,0.79 c 0.17,0.71 0.36,1.42 0.54,2.13 -0.07,0.01 -0.15,0.03 -0.22,0.05 -0.16,-0.71 -0.32,-1.43 -0.48,-2.15 0.05,-0.01 0.11,-0.02 0.17,-0.04 z m 15.07,0.60 c -0.11,0.35 -0.21,0.64 -0.30,0.92 0.03,0.00 0.06,0.01 0.09,0.02 0.22,-0.14 0.44,-0.29 0.67,-0.44 -0.13,-0.14 -0.26,-0.27 -0.46,-0.50 z m 7.93,0.05 c 0.03,0.01 0.07,0.03 0.11,0.04 -0.15,0.98 -0.56,1.86 -1.06,2.70 -0.04,-0.01 -0.09,-0.03 -0.14,-0.05 0.36,-0.89 0.73,-1.79 1.09,-2.69 z m -15.10,0.18 c -0.09,0.75 -0.31,1.50 -0.24,2.22 0.06,0.71 0.42,1.40 0.64,2.10 -0.03,0.02 -0.06,0.05 -0.09,0.07 -0.13,-0.18 -0.30,-0.35 -0.41,-0.54 -0.29,-0.52 -0.56,-1.06 -0.85,-1.60 -0.16,-0.30 -0.16,-0.59 -0.02,-0.92 0.22,-0.52 0.44,-1.02 0.98,-1.32 z m 4.33,0.25 c -0.04,0.00 -0.08,0.00 -0.12,0.00 -0.01,0.17 -0.03,0.35 -0.06,0.61 0.24,-0.08 0.36,-0.12 0.48,-0.17 -0.10,-0.16 -0.20,-0.31 -0.29,-0.45 z m -2.32,0.31 c -0.07,0.00 -0.14,0.01 -0.21,0.01 0.01,0.18 0.02,0.36 0.03,0.54 0.07,-0.01 0.20,-0.03 0.20,-0.05 0.00,-0.16 -0.02,-0.33 -0.03,-0.50 z m 3.19,0.51 c -0.06,0.17 -0.12,0.34 -0.18,0.51 0.06,0.02 0.19,0.07 0.20,0.06 0.08,-0.15 0.15,-0.32 0.22,-0.48 -0.07,-0.02 -0.16,-0.06 -0.23,-0.09 z m -1.25,0.10 c -0.15,0.28 -0.25,0.48 -0.35,0.68 0.44,-0.07 0.50,-0.20 0.35,-0.68 z m -11.30,0.82 c 0.36,0.25 0.36,0.24 0.43,1.02 0.14,0.42 0.29,0.83 0.42,1.26 0.01,0.05 -0.04,0.16 -0.09,0.19 -0.05,0.02 -0.19,-0.02 -0.20,-0.06 -0.08,-0.40 -0.14,-0.81 -0.21,-1.22 -0.10,-0.36 -0.21,-0.72 -0.35,-1.19 z m 13.58,0.15 c -0.52,0.15 -0.61,0.39 -0.33,0.76 0.11,-0.25 0.20,-0.47 0.33,-0.76 z m -3.06,0.17 c -0.08,0.29 -0.13,0.45 -0.18,0.61 0.03,0.02 0.07,0.05 0.11,0.08 0.10,-0.09 0.25,-0.16 0.29,-0.28 0.02,-0.07 -0.10,-0.20 -0.23,-0.42 z m 10.79,0.51 c 0.03,0.02 0.06,0.05 0.10,0.08 -0.55,1.43 -1.10,2.87 -1.67,4.30 -0.03,0.08 -0.16,0.12 -0.26,0.19 -0.28,-0.38 -0.03,-0.70 0.07,-0.98 0.43,-1.09 0.92,-2.16 1.40,-3.24 0.06,-0.14 0.23,-0.24 0.35,-0.37 z m -8.26,1.30 c -0.11,0.25 -0.20,0.43 -0.32,0.68 0.44,-0.07 0.51,-0.23 0.32,-0.68 z m -11.92,0.75 c 0.09,0.77 0.72,1.36 0.74,2.28 -0.24,-0.11 -0.47,-0.14 -0.51,-0.25 -0.19,-0.53 -0.34,-1.08 -0.47,-1.63 -0.02,-0.11 0.07,-0.25 0.11,-0.38 0.04,-0.00 0.09,-0.00 0.13,-0.01 z m 7.27,0.24 c 0.26,0.24 0.53,0.49 0.80,0.73 -0.02,0.02 -0.04,0.05 -0.07,0.08 -0.27,-0.24 -0.55,-0.48 -0.82,-0.72 0.03,-0.03 0.06,-0.06 0.10,-0.09 z" />
</svg>
