<?xml version="1.0" encoding="UTF-8" standalone="no"?>
<!-- Created with Inkscape (http://www.inkscape.org/) -->
<svg xmlns:dc="http://purl.org/dc/elements/1.1/" xmlns:cc="http://creativecommons.org/ns#" xmlns:rdf="http://www.w3.org/1999/02/22-rdf-syntax-ns#" xmlns:svg="http://www.w3.org/2000/svg" xmlns="http://www.w3.org/2000/svg" version="1.1" width="100%" height="100%" viewBox="0 0 48 48" id="Layer_1" xml:space="preserve">
<defs id="defs45" />
<path d="m 38.38,2.30 c -0.02,-0.02 -0.06,-0.04 -0.11,-0.05 -0.08,-0.02 -0.31,0.20 -0.37,0.35 -0.10,0.23 -0.08,0.52 -0.17,0.76 -0.25,0.69 -0.52,1.38 -0.81,2.11 -0.32,0.14 -0.71,0.31 -1.07,0.47 -0.06,-0.51 -0.11,-0.93 -0.16,-1.34 -0.05,0.00 -0.11,0.00 -0.16,0.00 -0.08,0.48 0.25,1.05 -0.23,1.48 -0.00,-0.41 0.14,-0.82 -0.15,-1.28 -0.03,0.58 -0.07,1.06 -0.08,1.54 -0.01,0.42 0.26,0.67 0.81,0.67 C 35.60,6.85 35.42,6.71 35.24,6.57 35.57,6.13 36.17,5.98 36.71,6.17 c 0.17,0.06 0.39,0.13 0.54,0.08 0.38,-0.13 0.64,5.66e-4 0.89,0.26 0.08,0.08 0.18,0.14 0.27,0.21 C 38.29,6.19 37.61,5.99 37.70,5.31 37.55,5.35 37.44,5.37 37.34,5.39 c -0.01,-0.63 0.63,-1.05 0.51,-1.66 0.05,-0.03 0.17,-0.05 0.20,-0.12 0.11,-0.27 0.18,-0.57 0.31,-0.84 0.08,-0.18 0.13,-0.35 0.01,-0.45 z m 3.92,5.07 c -0.06,-0.05 -0.15,-0.07 -0.26,-0.06 -0.40,0.05 -0.79,0.13 -1.19,0.19 -0.50,0.07 -1.02,0.14 -1.53,0.21 0.02,-0.43 0.04,-0.75 0.06,-1.07 -0.04,-0.00 -0.09,-0.00 -0.14,-0.00 -0.07,0.31 -0.14,0.62 -0.22,0.98 -0.26,-0.24 -0.09,-0.68 -0.52,-0.75 -0.04,0.24 -0.08,0.45 -0.11,0.66 -0.24,-0.29 -0.49,-0.58 -0.74,-0.88 -0.03,0.02 -0.06,0.05 -0.09,0.08 0.24,0.37 0.56,0.73 0.70,1.14 0.15,0.47 -0.23,0.82 -0.55,1.22 -0.45,-0.57 -0.88,-1.10 -1.30,-1.64 -0.04,0.03 -0.09,0.06 -0.13,0.10 0.42,0.56 0.84,1.13 1.26,1.69 C 37.02,9.82 37.01,9.82 36.58,9.29 36.25,8.88 35.92,8.49 35.59,8.09 c -0.03,-0.04 -0.12,-0.04 -0.19,-0.06 -0.01,0.02 -0.03,0.05 -0.05,0.07 0.49,0.62 0.99,1.25 1.49,1.88 -0.19,0.12 -0.33,0.20 -0.48,0.29 -0.08,-0.05 -0.18,-0.11 -0.30,-0.19 0.02,0.14 0.04,0.23 0.08,0.41 C 35.82,10.10 35.57,9.78 35.33,9.45 35.09,9.12 34.86,8.79 34.47,8.65 c -0.02,0.02 -0.05,0.05 -0.07,0.08 0.52,0.63 1.05,1.26 1.58,1.90 -0.27,0.21 -0.49,0.38 -0.70,0.54 -0.55,-0.62 -1.08,-1.22 -1.61,-1.81 -0.03,0.02 -0.07,0.05 -0.11,0.08 0.03,0.07 0.04,0.16 0.10,0.22 0.39,0.45 0.79,0.91 1.19,1.36 0.33,0.36 0.32,0.44 -0.12,0.78 -0.57,-0.56 -1.02,-1.29 -1.76,-1.71 0.03,0.16 0.12,0.28 0.21,0.39 0.36,0.46 0.89,0.76 1.13,1.35 0.12,0.30 0.17,0.45 -0.15,0.53 -0.04,-0.07 -0.08,-0.21 -0.12,-0.20 -0.47,0.04 -0.61,-0.38 -0.88,-0.62 -0.31,-0.28 -0.62,-0.57 -0.94,-0.86 -0.03,0.03 -0.06,0.06 -0.09,0.09 0.03,0.05 0.05,0.12 0.09,0.16 0.47,0.45 0.95,0.91 1.44,1.35 0.14,0.13 0.30,0.22 0.11,0.45 -0.15,0.18 -0.27,0.40 -0.41,0.62 l -1.97,-1.80 -0.10,0.10 2.02,1.85 -0.56,0.61 c -0.60,-0.55 -1.18,-1.09 -1.77,-1.61 -0.08,-0.07 -0.22,-0.10 -0.34,-0.15 -0.00,0.02 -0.01,0.05 -0.02,0.07 l 2.11,1.93 c -0.24,0.05 -0.41,0.08 -0.46,0.09 -0.13,0.36 -0.25,0.69 -0.37,1.01 -0.74,-0.54 -1.43,-1.05 -2.13,-1.56 -0.03,0.05 -0.07,0.10 -0.11,0.15 0.65,0.49 1.31,0.98 1.97,1.48 -0.04,0.01 -0.08,0.02 -0.12,0.04 0.01,0.11 0.02,0.23 0.04,0.37 -0.14,-0.07 -0.26,-0.14 -0.37,-0.20 -0.01,0.01 -0.03,0.03 -0.05,0.05 0.09,0.11 0.17,0.23 0.27,0.35 -0.01,0.01 -0.02,0.02 -0.03,0.03 -0.74,-0.51 -1.48,-1.03 -2.22,-1.55 -0.04,0.06 -0.08,0.12 -0.13,0.18 0.76,0.53 1.53,1.07 2.33,1.62 l -0.54,0.59 c -0.70,-0.44 -1.38,-0.88 -2.07,-1.31 -0.03,0.05 -0.07,0.11 -0.11,0.17 0.72,0.46 1.45,0.93 2.19,1.41 -0.14,0.18 -0.29,0.37 -0.43,0.56 -0.68,-0.43 -1.30,-0.94 -2.02,-1.29 -0.02,0.04 -0.05,0.09 -0.08,0.14 0.69,0.45 1.38,0.90 2.07,1.35 -0.01,0.01 -0.02,0.03 -0.03,0.04 -0.07,-0.01 -0.14,-0.02 -0.15,-0.02 0.00,0.20 0.01,0.41 0.03,0.72 -0.84,-0.49 -1.55,-0.90 -2.26,-1.32 -0.03,0.05 -0.06,0.11 -0.10,0.16 0.35,0.20 0.71,0.41 1.07,0.63 0.37,0.21 0.74,0.43 1.12,0.66 -0.05,0.11 -0.11,0.18 -0.13,0.26 -0.05,0.39 -0.26,0.40 -0.55,0.23 -0.33,-0.19 -0.68,-0.38 -1.02,-0.56 -0.30,-0.16 -0.60,-0.31 -0.91,-0.48 -0.03,0.05 -0.06,0.11 -0.09,0.17 0.76,0.42 1.53,0.84 2.34,1.28 -0.14,0.13 -0.24,0.24 -0.28,0.28 -0.03,0.21 -0.05,0.37 -0.08,0.58 -0.85,-0.45 -1.61,-0.86 -2.37,-1.26 -0.03,0.06 -0.06,0.12 -0.09,0.18 0.77,0.42 1.55,0.85 2.32,1.28 -0.01,0.03 -0.02,0.05 -0.04,0.08 -0.15,-0.05 -0.31,-0.11 -0.46,-0.17 -0.01,0.01 -0.02,0.02 -0.03,0.04 l 0.39,0.36 c -0.04,0.13 -0.08,0.25 -0.14,0.42 -0.14,-0.05 -0.27,-0.09 -0.39,-0.15 -0.52,-0.29 -1.04,-0.59 -1.57,-0.87 -0.09,-0.05 -0.23,-0.02 -0.34,-0.03 0.65,0.43 1.29,0.79 1.94,1.13 0.20,0.10 0.30,0.22 0.15,0.44 -0.14,-0.05 -0.28,-0.11 -0.42,-0.16 -0.01,0.03 -0.03,0.06 -0.05,0.09 l 0.35,0.32 c -0.01,0.02 -0.04,0.05 -0.05,0.08 -0.76,-0.33 -1.53,-0.67 -2.29,-1.00 -0.02,0.05 -0.05,0.10 -0.07,0.15 0.71,0.39 1.43,0.78 2.15,1.17 -0.00,0.01 -0.01,0.02 -0.01,0.04 -0.12,-0.01 -0.24,-0.03 -0.32,-0.04 0.05,0.21 0.11,0.41 0.17,0.62 -0.04,0.02 -0.09,0.05 -0.14,0.08 -0.66,-0.30 -1.33,-0.61 -2.00,-0.92 -0.01,0.03 -0.03,0.06 -0.04,0.09 0.55,0.54 1.33,0.74 1.99,1.12 -0.05,0.13 -0.09,0.23 -0.13,0.35 -0.12,-0.02 -0.23,-0.05 -0.34,-0.08 -0.00,0.01 -0.01,0.03 -0.02,0.05 0.09,0.07 0.19,0.15 0.28,0.23 -0.01,0.03 -0.03,0.06 -0.04,0.09 -0.78,-0.35 -1.57,-0.71 -2.36,-1.06 -0.02,0.04 -0.04,0.09 -0.06,0.14 0.77,0.40 1.54,0.81 2.30,1.21 -0.05,0.14 -0.10,0.25 -0.15,0.38 -0.08,-0.02 -0.16,-0.05 -0.23,-0.08 -0.07,-0.02 -0.15,-0.04 -0.22,-0.06 -0.01,0.02 -0.02,0.05 -0.03,0.08 0.14,0.09 0.29,0.18 0.43,0.28 -0.11,0.04 -0.20,0.03 -0.27,-8.19e-4 -0.48,-0.25 -0.95,-0.53 -1.44,-0.77 -0.16,-0.08 -0.36,-0.30 -0.58,0.01 0.75,0.35 1.47,0.70 2.24,1.06 -0.15,0.24 -0.27,0.43 -0.43,0.68 -0.68,-0.35 -1.39,-0.73 -2.10,-1.10 -0.03,0.06 -0.06,0.11 -0.09,0.18 0.72,0.41 1.45,0.83 2.16,1.24 -0.08,0.09 -0.20,0.17 -0.26,0.29 -0.13,0.27 -0.27,0.32 -0.54,0.15 -0.44,-0.28 -0.91,-0.54 -1.38,-0.80 -0.12,-0.07 -0.28,-0.08 -0.43,-0.13 -0.02,0.05 -0.04,0.10 -0.06,0.15 0.70,0.45 1.58,0.67 2.01,1.51 -0.04,0.09 -0.10,0.21 -0.17,0.35 -0.70,-0.39 -1.37,-0.76 -2.03,-1.13 -0.03,0.05 -0.06,0.11 -0.09,0.16 0.69,0.42 1.38,0.85 2.07,1.28 l -0.03,0.05 c -0.24,-0.11 -0.48,-0.22 -0.73,-0.34 -0.06,0.37 0.75,0.26 0.32,0.79 -0.67,-0.41 -1.34,-0.82 -2.00,-1.24 -0.04,0.06 -0.08,0.12 -0.12,0.18 0.58,0.37 1.16,0.74 1.67,1.07 -0.02,0.28 -0.04,0.48 -0.06,0.68 0.03,0.00 0.08,0.00 0.12,0.01 0.09,-0.16 0.19,-0.33 0.30,-0.52 0.05,0.04 0.13,0.09 0.13,0.10 -0.11,0.20 -0.23,0.40 -0.39,0.67 -0.66,-0.42 -1.32,-0.86 -1.99,-1.29 -0.02,0.04 -0.05,0.08 -0.08,0.12 0.57,0.64 1.45,0.92 2.01,1.60 -0.12,-0.05 -0.25,-0.11 -0.43,-0.20 0.06,0.16 0.10,0.25 0.13,0.32 -0.19,-0.08 -0.54,-0.28 -0.59,-0.23 -0.22,0.25 -0.32,0.00 -0.43,-0.06 -0.36,-0.21 -0.70,-0.46 -1.05,-0.69 -0.03,0.04 -0.06,0.08 -0.09,0.12 0.38,0.53 1.07,0.71 1.55,1.19 -0.12,0.04 -0.21,0.07 -0.30,0.11 0.00,0.04 0.01,0.08 0.02,0.13 0.15,-0.02 0.31,-0.05 0.47,-0.08 -0.00,-0.03 -0.00,-0.06 -0.01,-0.09 0.10,0.06 0.22,0.13 0.23,0.14 -0.15,0.22 -0.30,0.42 -0.44,0.62 -0.16,-0.13 -0.36,-0.29 -0.55,-0.45 -0.02,0.03 -0.05,0.06 -0.08,0.09 l 0.69,0.63 c -0.02,0.03 -0.05,0.07 -0.08,0.10 -0.33,-0.21 -0.66,-0.43 -0.99,-0.65 -0.02,0.02 -0.05,0.05 -0.08,0.08 0.24,0.24 0.62,0.41 0.54,0.87 0.07,-0.06 0.15,-0.13 0.28,-0.24 -0.09,0.19 -0.16,0.33 -0.24,0.48 -0.61,-0.50 -1.19,-0.98 -1.78,-1.46 -0.04,0.05 -0.08,0.10 -0.12,0.15 0.60,0.50 1.20,1.00 1.77,1.48 -0.34,0.24 -0.71,0.50 -1.10,0.79 -0.48,-0.35 -1.00,-0.73 -1.52,-1.11 -0.02,0.03 -0.05,0.06 -0.08,0.10 0.07,0.07 0.13,0.16 0.21,0.22 0.29,0.23 0.60,0.45 0.90,0.69 0.49,0.40 0.49,0.41 0.37,0.76 -0.21,-0.01 -0.48,0.04 -0.62,-0.05 -0.37,-0.28 -0.68,-0.64 -1.03,-0.95 -0.06,-0.06 -0.17,-0.07 -0.26,-0.11 -0.03,0.04 -0.06,0.09 -0.09,0.14 0.63,0.52 1.26,1.05 1.90,1.58 l 0.01,0.27 c -0.24,-0.53 -0.34,-0.23 -0.44,-0.16 -0.11,-0.09 -0.20,-0.17 -0.29,-0.24 -0.42,-0.31 -0.85,-0.62 -1.29,-0.92 -0.08,-0.05 -0.21,-0.04 -0.32,-0.06 0.05,0.09 0.08,0.21 0.16,0.27 0.30,0.25 0.61,0.49 0.93,0.72 0.29,0.20 0.23,0.48 0.21,0.82 -0.06,-0.12 -0.13,-0.25 -0.13,-0.25 -0.36,0.17 -0.52,-0.13 -0.74,-0.30 -0.30,-0.23 -0.59,-0.48 -0.89,-0.72 -0.03,0.03 -0.06,0.06 -0.09,0.09 0.06,0.10 0.12,0.22 0.21,0.29 0.28,0.23 0.59,0.42 0.86,0.67 0.16,0.14 0.26,0.35 0.38,0.51 -0.55,0.32 -0.80,-0.01 -1.09,-0.27 -0.15,-0.14 -0.32,-0.27 -0.49,-0.39 -0.07,-0.05 -0.17,-0.07 -0.26,-0.10 -0.02,0.03 -0.04,0.07 -0.06,0.11 0.48,0.39 0.96,0.78 1.44,1.16 l -0.53,0.58 -1.43,-1.31 c -0.03,0.03 -0.07,0.07 -0.11,0.11 0.37,0.40 0.74,0.81 1.13,1.24 -0.40,0.12 -0.06,0.32 0.01,0.49 -0.03,0.02 -0.07,0.04 -0.10,0.07 l -1.45,-1.33 c -0.02,0.02 -0.05,0.05 -0.07,0.08 0.34,0.47 0.68,0.96 0.99,1.38 -0.11,0.14 -0.20,0.26 -0.30,0.37 -0.39,-0.39 -0.80,-0.81 -1.21,-1.23 -0.03,0.02 -0.06,0.05 -0.09,0.08 0.22,0.55 0.96,0.95 0.63,1.79 -0.47,-0.50 -0.87,-0.92 -1.27,-1.34 -0.04,0.04 -0.09,0.08 -0.14,0.13 0.26,0.29 0.50,0.59 0.78,0.87 0.47,0.47 0.46,0.62 -0.13,0.97 -0.39,-0.44 -0.78,-0.89 -1.17,-1.34 -0.03,0.03 -0.08,0.06 -0.11,0.09 0.03,0.08 0.05,0.17 0.11,0.24 0.25,0.32 0.51,0.63 0.76,0.94 0.18,0.22 0.22,0.41 -0.12,0.52 l -1.36,-1.24 c -0.02,0.02 -0.05,0.04 -0.07,0.06 0.37,0.46 0.74,0.91 1.10,1.37 -0.33,0.21 -0.64,0.17 -0.87,-0.11 -0.22,-0.30 -0.46,-0.59 -0.69,-0.89 -0.03,0.02 -0.06,0.04 -0.10,0.07 0.04,0.29 0.04,0.57 0.41,0.76 0.23,0.11 0.39,0.38 0.55,0.61 0.01,0.02 -0.19,0.21 -0.32,0.35 -0.43,-0.50 -0.82,-0.96 -1.21,-1.42 -0.04,0.03 -0.09,0.07 -0.14,0.11 0.38,0.49 0.77,0.99 1.15,1.49 -0.12,0.10 -0.22,0.19 -0.32,0.27 0.01,0.02 0.02,0.04 0.03,0.07 0.14,-0.02 0.29,-0.05 0.43,-0.08 0.00,0.05 0.00,0.10 0.00,0.16 -0.18,-0.01 -0.44,0.03 -0.55,-0.07 -0.36,-0.32 -0.67,-0.71 -1.01,-1.07 -0.07,-0.07 -0.17,-0.13 -0.25,-0.20 -0.03,0.03 -0.06,0.06 -0.10,0.09 0.21,0.28 0.41,0.58 0.63,0.86 0.38,0.47 0.38,0.51 -0.20,0.81 -0.41,-0.38 -0.60,-0.99 -1.15,-1.26 0.16,0.34 0.40,0.62 0.60,0.93 0.42,0.64 0.41,0.64 0.25,1.01 -0.47,-0.53 -0.92,-1.05 -1.37,-1.56 0.00,0.59 0.59,0.87 0.79,1.40 -0.25,0.17 -0.47,0.33 -0.73,-0.01 -0.22,-0.30 -0.49,-0.58 -0.75,-0.90 -0.15,0.39 -0.11,0.44 0.60,1.05 -0.06,0.16 -0.12,0.30 -0.19,0.49 -0.33,-0.45 -0.66,-0.90 -0.99,-1.34 -0.05,0.03 -0.10,0.06 -0.15,0.10 0.29,0.44 0.59,0.89 0.84,1.27 l -0.21,0.23 c 0.06,-0.40 -0.16,-0.58 -0.50,-0.71 -0.06,-0.02 -0.07,-0.14 -0.12,-0.21 -0.04,-0.06 -0.11,-0.13 -0.16,-0.19 -0.04,0.02 -0.08,0.05 -0.12,0.07 0.19,0.35 0.38,0.70 0.57,1.05 l -0.06,0.04 c -0.09,-0.11 -0.18,-0.22 -0.27,-0.33 -0.02,0.01 -0.04,0.02 -0.06,0.04 0.03,0.11 0.07,0.23 0.11,0.35 C 9.58,43.37 8.90,43.66 8.88,42.75 8.76,42.90 8.72,42.98 8.66,43.03 8.52,43.15 8.37,43.26 8.22,43.38 8.14,43.21 8.05,43.05 8.00,42.88 c -0.02,-0.08 0.04,-0.20 0.08,-0.30 0.08,-0.19 0.17,-0.39 0.27,-0.59 -0.04,-0.03 -0.08,-0.06 -0.12,-0.10 -0.10,0.11 -0.22,0.22 -0.31,0.34 -0.31,0.43 -0.27,0.86 -0.06,1.36 0.29,0.70 0.67,0.99 1.41,0.87 0.15,-0.02 0.44,0.02 0.45,0.07 0.02,0.18 -0.03,0.38 -0.07,0.57 -0.02,0.12 -0.08,0.23 -0.13,0.35 0.06,0.02 0.13,0.05 0.19,0.08 0.16,-0.34 0.33,-0.69 0.54,-1.12 -0.02,0.33 -0.04,0.57 -0.07,0.82 0.04,0.01 0.09,0.04 0.13,0.05 0.28,-0.31 0.13,-0.81 0.30,-1.17 0.04,0.00 0.09,0.01 0.13,0.02 -0.01,0.31 -0.03,0.62 -0.04,0.93 0.02,0.01 0.05,0.02 0.08,0.03 0.10,-0.24 0.20,-0.49 0.31,-0.74 0.01,0.00 0.02,0.00 0.04,0.00 -0.02,0.18 -0.04,0.37 -0.06,0.56 0.04,0.01 0.09,0.02 0.14,0.03 0.07,-0.38 0.15,-0.77 0.23,-1.16 0.07,0.01 0.14,0.03 0.21,0.04 -0.03,0.37 -0.07,0.75 -0.11,1.13 0.04,0.00 0.08,0.00 0.13,0.01 0.06,-0.19 0.12,-0.38 0.19,-0.57 0.06,0.02 0.13,0.06 0.20,0.09 0.07,-0.30 0.14,-0.61 0.25,-1.05 0.30,0.33 0.56,0.62 0.87,0.97 -0.05,-0.27 -0.10,-0.49 -0.14,-0.71 0.02,-0.00 0.04,-0.01 0.06,-0.02 0.11,0.18 0.23,0.37 0.35,0.56 0.03,-0.01 0.06,-0.03 0.10,-0.04 -0.08,-0.25 -0.16,-0.50 -0.24,-0.76 0.53,-0.04 0.36,0.45 0.62,0.75 0.10,-0.23 0.27,-0.42 0.25,-0.59 -0.02,-0.22 -0.18,-0.43 -0.28,-0.64 0.01,-0.01 0.02,-0.02 0.04,-0.03 0.18,0.20 0.36,0.41 0.54,0.61 0.02,-0.00 0.04,-0.01 0.06,-0.02 -0.05,-0.21 -0.10,-0.43 -0.15,-0.64 0.02,-0.01 0.05,-0.02 0.07,-0.03 0.13,0.21 0.25,0.43 0.38,0.65 0.04,-0.02 0.09,-0.04 0.13,-0.06 -0.10,-0.31 -0.20,-0.62 -0.30,-0.93 0.02,-0.01 0.04,-0.02 0.06,-0.03 0.13,0.19 0.26,0.39 0.39,0.58 0.02,-0.01 0.05,-0.02 0.08,-0.03 -0.05,-0.23 -0.10,-0.46 -0.16,-0.69 0.03,-0.01 0.07,-0.02 0.11,-0.03 0.09,0.27 0.18,0.54 0.27,0.81 0.02,0.00 0.04,0.01 0.06,0.01 0.02,-0.16 0.04,-0.33 0.06,-0.48 0.18,0.15 0.38,0.26 0.55,-0.05 -8.4e-5,-0.00 -0.00,-0.00 -0.00,-0.00 -0.00,0.00 -0.00,0.00 -0.00,0.00 0.00,-0.00 0.00,-0.00 0.00,-0.01 -0.10,-0.40 -0.21,-0.80 -0.33,-1.26 0.44,0.38 0.48,0.80 0.33,1.26 4.93e-4,0.00 -2.51e-4,0.00 3.18e-4,0.00 0.17,-0.18 0.34,-0.36 0.52,-0.55 -0.00,-7.43e-4 -0.00,-10e-4 -0.00,-0.00 2.91e-4,-0.00 9.59e-4,-0.00 0.00,-0.01 -0.02,-0.03 -0.04,-0.06 -0.05,-0.09 -0.05,-0.36 -0.11,-0.72 -0.11,-1.09 0.26,0.36 0.21,0.78 0.17,1.19 0.00,0.00 0.00,0.00 0.00,0.01 -4.46e-4,4.69e-4 -0.00,0.00 -0.00,0.00 0.04,0.01 0.11,0.03 0.13,0.02 0.27,-0.31 0.51,-0.64 0.39,-1.10 -0.04,-0.20 -0.03,-0.42 -0.04,-0.63 0.06,-0.00 0.13,-0.00 0.20,-0.00 0.02,0.43 0.05,0.87 0.07,1.23 0.08,-0.11 0.32,-0.33 0.40,-0.59 0.10,-0.36 0.12,-0.76 0.10,-1.14 -0.01,-0.30 0.07,-0.39 0.34,-0.33 0.31,0.07 0.62,0.18 0.94,0.27 0.11,0.03 0.23,0.03 0.35,0.04 0.01,-0.03 0.02,-0.07 0.04,-0.11 L 19.24,39.30 c 0.01,-0.02 0.03,-0.04 0.05,-0.07 0.19,0.08 0.39,0.17 0.59,0.26 0.02,-0.03 0.04,-0.07 0.07,-0.11 -0.19,-0.13 -0.39,-0.26 -0.58,-0.39 0.01,-0.02 0.03,-0.05 0.04,-0.08 0.28,0.12 0.56,0.24 0.85,0.36 0.02,-0.04 0.04,-0.08 0.06,-0.12 -0.27,-0.16 -0.54,-0.33 -0.81,-0.49 0.01,-0.02 0.03,-0.05 0.05,-0.08 0.30,0.16 0.60,0.32 0.91,0.49 -0.04,-0.46 -0.49,-0.47 -0.73,-0.73 0.21,0.07 0.41,0.14 0.74,0.26 -0.17,-0.20 -0.26,-0.31 -0.35,-0.41 0.01,-0.01 0.02,-0.02 0.03,-0.04 0.21,0.17 0.43,0.35 0.68,0.55 0.04,-0.12 0.06,-0.21 0.09,-0.30 -0.00,1.18e-4 -0.00,0.00 -0.00,0.00 -0.00,-0.00 -0.00,-0.00 -0.00,-0.01 -0.33,-0.21 -0.66,-0.43 -0.96,-0.63 0.45,-0.06 0.77,0.13 0.96,0.63 0.00,0.00 0.00,0.00 0.01,0.00 0.11,-0.01 0.23,-0.02 0.40,-0.04 -0.01,-0.43 -0.02,-0.83 -0.04,-1.21 0.08,0.18 0.19,0.40 0.30,0.63 0.04,-0.01 0.09,-0.03 0.13,-0.05 -0.16,-0.42 -0.32,-0.85 -0.48,-1.28 0.02,-0.01 0.04,-0.02 0.06,-0.03 0.17,0.37 0.34,0.74 0.49,1.07 0.11,-0.14 0.20,-0.39 0.32,-0.40 0.33,-0.04 0.36,-0.22 0.31,-0.46 -0.09,-0.46 -0.21,-0.92 -0.32,-1.38 l 0.11,-0.03 c 0.10,0.33 0.20,0.66 0.32,0.99 0.04,0.12 0.13,0.22 0.20,0.34 0.06,-0.12 0.18,-0.25 0.19,-0.38 0.03,-0.57 -0.05,-1.13 -0.45,-1.62 0.53,-0.31 1.00,-0.15 1.47,0.10 0.01,-0.03 0.03,-0.06 0.05,-0.09 -0.09,-0.11 -0.18,-0.22 -0.32,-0.38 0.22,0.08 0.40,0.14 0.58,0.21 0.01,-0.03 0.03,-0.07 0.05,-0.10 -0.24,-0.14 -0.49,-0.28 -0.73,-0.43 0.01,-0.02 0.02,-0.05 0.03,-0.08 0.29,0.11 0.58,0.22 0.88,0.34 0.02,-0.02 0.04,-0.05 0.06,-0.08 -0.19,-0.15 -0.38,-0.30 -0.64,-0.51 0.32,0.06 0.56,0.12 0.80,0.17 0.01,-0.04 0.02,-0.08 0.04,-0.12 -0.20,-0.11 -0.41,-0.22 -0.62,-0.33 0.00,-0.02 0.00,-0.04 0.01,-0.07 0.24,0.05 0.49,0.10 0.76,0.16 -0.01,-0.41 -0.43,-0.34 -0.72,-0.61 0.39,0.12 0.67,0.21 0.94,0.30 0.02,-0.03 0.04,-0.06 0.06,-0.10 -0.24,-0.17 -0.48,-0.35 -0.73,-0.52 l 0.00,-0.07 c 0.31,0.07 0.62,0.15 1.06,0.25 l -0.60,-0.55 c 0.01,-0.02 0.02,-0.04 0.04,-0.06 0.22,0.11 0.44,0.22 0.66,0.33 0.02,-0.03 0.04,-0.07 0.07,-0.10 -0.25,-0.20 -0.51,-0.40 -0.76,-0.61 0.01,-0.01 0.02,-0.03 0.03,-0.05 0.26,0.15 0.53,0.30 0.79,0.45 0.02,-0.03 0.04,-0.06 0.06,-0.10 l -0.64,-0.58 c 0.02,-0.03 0.04,-0.06 0.06,-0.09 0.24,0.16 0.48,0.33 0.72,0.50 0.03,-0.02 0.06,-0.05 0.09,-0.08 -0.15,-0.17 -0.27,-0.38 -0.45,-0.51 -0.18,-0.14 -0.42,-0.21 -0.64,-0.32 0.35,-0.24 0.35,-0.24 1.25,0.67 0.10,-0.46 0.07,-0.88 -0.31,-1.23 -0.14,-0.12 -0.24,-0.28 -0.37,-0.43 0.04,-0.03 0.08,-0.06 0.13,-0.09 0.25,0.34 0.50,0.69 0.77,1.06 0.00,-0.13 -0.02,-0.28 0.03,-0.35 0.13,-0.16 0.19,-0.22 0.11,-0.37 -0.16,-0.30 -0.34,-0.60 -0.50,-0.90 -0.05,-0.09 -0.08,-0.19 -0.11,-0.29 0.05,-0.02 0.10,-0.04 0.16,-0.07 0.21,0.43 0.42,0.86 0.64,1.29 0.04,-0.02 0.09,-0.04 0.13,-0.06 -0.21,-0.55 -0.42,-1.11 -0.64,-1.67 0.02,-0.01 0.05,-0.02 0.07,-0.03 0.19,0.41 0.39,0.83 0.59,1.25 0.04,-0.01 0.08,-0.03 0.12,-0.04 l -0.57,-1.50 c 0.03,-0.01 0.07,-0.02 0.11,-0.04 0.18,0.40 0.37,0.81 0.56,1.21 0.34,-0.23 0.36,-0.23 0.26,-0.58 -0.16,-0.52 -0.36,-1.04 -0.56,-1.61 0.24,-0.11 0.53,-0.29 0.85,-0.38 0.31,-0.08 0.66,-0.07 1.08,-0.10 -0.22,-0.42 -0.61,-0.30 -0.96,-0.26 0.00,-0.05 0.01,-0.10 0.01,-0.15 0.32,-0.02 0.64,-0.04 0.97,-0.06 -0.09,-0.12 -0.22,-0.20 -0.35,-0.20 -0.17,-0.00 -0.35,0.04 -0.53,0.07 -0.14,0.02 -0.29,0.03 -0.43,0.05 -0.00,-0.04 -0.01,-0.08 -0.01,-0.12 0.41,-0.09 0.83,-0.19 1.35,-0.31 -0.25,-0.06 -0.38,-0.09 -0.52,-0.13 0.00,-0.02 0.01,-0.04 0.01,-0.06 0.26,0.02 0.53,0.05 0.79,0.07 0.01,-0.03 0.02,-0.07 0.03,-0.11 -0.26,-0.08 -0.53,-0.16 -0.80,-0.24 0.00,-0.02 0.01,-0.04 0.02,-0.06 0.27,0.03 0.54,0.07 0.81,0.11 0.00,-0.03 0.01,-0.07 0.02,-0.10 -0.30,-0.10 -0.60,-0.20 -0.90,-0.30 0.01,-0.02 0.01,-0.06 0.02,-0.09 0.33,0.10 0.67,0.20 1.01,0.30 0.35,-0.55 0.36,-0.63 -0.08,-1.03 -0.22,-0.20 -0.49,-0.34 -0.79,-0.55 0.39,-0.11 0.52,0.21 0.72,0.37 0.22,0.17 0.40,0.43 0.85,0.26 -0.39,-0.51 -0.76,-0.98 -1.13,-1.48 0.47,0.04 0.67,0.44 0.91,0.79 0.04,-0.03 0.08,-0.07 0.12,-0.11 -0.22,-0.36 -0.45,-0.73 -0.67,-1.09 0.02,-0.01 0.05,-0.03 0.08,-0.05 0.26,0.38 0.53,0.76 0.84,1.20 -0.02,-0.79 -0.56,-1.24 -0.99,-1.75 0.06,-0.04 0.12,-0.08 0.19,-0.13 0.33,0.37 0.66,0.75 1.01,1.15 -0.00,-0.11 -0.01,-0.19 -0.02,-0.28 0.41,-0.00 0.17,-0.25 0.11,-0.36 -0.18,-0.32 -0.42,-0.62 -0.62,-0.94 -0.08,-0.13 -0.11,-0.30 -0.17,-0.45 0.06,-0.03 0.12,-0.06 0.19,-0.10 0.24,0.39 0.49,0.78 0.78,1.24 0.48,-0.91 -0.29,-1.44 -0.59,-2.12 0.68,-0.14 1.33,-0.28 1.99,-0.42 -0.02,-0.13 -0.04,-0.26 -0.07,-0.42 -0.43,8.77e-4 -0.84,3.29e-4 -1.25,0.00 -5.35e-4,-0.04 -2.2e-4,-0.09 -7.37e-4,-0.14 0.47,-0.03 0.94,-0.07 1.33,-0.10 -0.09,-0.04 -0.29,-0.12 -0.49,-0.21 0.00,-0.02 0.01,-0.04 0.02,-0.06 0.24,0.05 0.49,0.10 0.85,0.18 -0.47,-0.45 -0.99,-0.45 -1.59,-0.50 0.69,-0.28 1.17,0.01 1.69,0.19 l -0.35,-0.32 c 0.13,0.01 0.24,0.02 0.35,0.04 0.01,-0.04 0.03,-0.09 0.05,-0.13 -0.40,-0.20 -0.80,-0.40 -1.20,-0.60 0.00,-0.03 0.01,-0.06 0.02,-0.09 0.49,0.12 0.98,0.24 1.53,0.38 -0.24,-0.19 -0.46,-0.36 -0.69,-0.53 0.01,-0.02 0.03,-0.05 0.05,-0.07 0.23,0.16 0.46,0.33 0.77,0.55 -0.19,-0.61 -0.72,-0.65 -1.11,-0.87 0.01,-0.03 0.03,-0.06 0.04,-0.09 0.39,0.17 0.78,0.34 1.18,0.52 0.01,-0.02 0.03,-0.04 0.04,-0.06 -0.22,-0.18 -0.45,-0.36 -0.68,-0.54 0.01,-0.01 0.02,-0.03 0.03,-0.05 0.26,0.16 0.53,0.32 0.80,0.49 0.02,-0.04 0.06,-0.08 0.09,-0.12 -0.15,-0.11 -0.30,-0.24 -0.46,-0.35 -0.16,-0.11 -0.34,-0.20 -0.52,-0.30 0.02,-0.04 0.04,-0.08 0.06,-0.12 0.38,0.16 0.77,0.34 1.15,0.50 0.21,-0.80 -0.65,-0.81 -0.94,-1.29 0.26,0.03 0.51,0.10 0.70,0.24 0.19,0.13 0.33,0.35 0.50,0.53 0.02,-0.01 0.05,-0.03 0.08,-0.05 -0.14,-0.26 -0.28,-0.53 -0.43,-0.80 0.02,-0.01 0.04,-0.02 0.06,-0.03 0.18,0.31 0.37,0.63 0.62,1.05 0.02,-0.87 -0.71,-1.18 -0.96,-1.76 0.03,-0.02 0.06,-0.05 0.09,-0.08 l 0.63,0.58 c 0.02,-0.02 0.04,-0.05 0.07,-0.07 -0.12,-0.21 -0.24,-0.43 -0.36,-0.65 0.03,-0.02 0.07,-0.04 0.11,-0.06 0.25,0.46 0.51,0.93 0.76,1.39 0.04,-0.02 0.09,-0.04 0.14,-0.07 -0.27,-0.56 -0.54,-1.14 -0.84,-1.77 0.11,-0.02 0.24,-0.09 0.37,-0.08 0.53,0.05 1.09,0.03 1.56,0.38 0.05,0.04 0.16,0.00 0.25,0.00 0.00,-0.02 0.01,-0.05 0.02,-0.07 -0.17,-0.11 -0.34,-0.23 -0.51,-0.35 0.01,-0.01 0.02,-0.03 0.03,-0.05 0.21,0.08 0.43,0.17 0.64,0.25 0.01,-0.04 0.03,-0.08 0.05,-0.12 -0.39,-0.18 -0.79,-0.37 -1.18,-0.56 0.02,-0.04 0.04,-0.09 0.06,-0.13 0.35,0.15 0.71,0.30 1.13,0.47 -0.07,-0.12 -0.13,-0.20 -0.20,-0.32 0.16,0.09 0.28,0.17 0.41,0.24 -0.23,-0.54 -0.69,-0.80 -1.22,-0.99 0.02,-0.04 0.05,-0.09 0.08,-0.14 0.46,0.27 0.93,0.54 1.43,0.82 0.03,-0.05 0.16,-0.20 0.15,-0.22 -0.32,-0.38 -0.66,-0.74 -1.04,-1.15 0.65,0.08 1.08,0.43 1.42,0.94 -0.03,-0.62 -0.56,-0.88 -0.94,-1.24 l 0.09,-0.09 c 0.39,0.32 0.78,0.64 1.17,0.97 0.02,-0.01 0.04,-0.03 0.07,-0.05 -0.30,-0.38 -0.60,-0.77 -0.90,-1.16 0.54,0.12 0.76,0.57 1.06,0.96 0.12,-0.03 0.25,-0.07 0.47,-0.13 -0.28,-0.51 -0.55,-0.98 -0.83,-1.48 0.17,-0.15 0.41,-0.49 0.53,-0.45 0.44,0.13 0.84,0.40 1.32,0.64 -0.18,-0.56 -0.74,-0.68 -1.12,-1.03 0.38,0.15 0.76,0.30 1.14,0.45 0.02,-0.04 0.04,-0.09 0.06,-0.14 -0.41,-0.19 -0.83,-0.38 -1.22,-0.56 0.12,-0.18 0.24,-0.38 0.33,-0.51 0.29,-0.00 0.53,-3.02e-4 0.77,-0.01 0.76,-0.03 1.52,-0.06 2.29,-0.12 0.14,-0.01 0.38,-0.12 0.40,-0.23 0.02,-0.11 -0.00,-0.22 -0.08,-0.29 z M 34.72,5.04 c -0.03,-9.39e-4 -0.07,-0.00 -0.11,-0.00 -0.04,0.50 -0.08,1.01 -0.12,1.52 -0.03,-0.00 -0.06,-0.00 -0.09,-0.00 -0.04,-0.43 -0.09,-0.87 -0.14,-1.31 -0.05,-0.00 -0.11,-0.02 -0.17,-0.02 0.02,0.56 0.06,1.14 0.09,1.71 -0.22,-0.47 -0.18,-1.03 -0.67,-1.40 0.09,0.51 0.18,0.98 0.27,1.46 -0.04,0.01 -0.09,0.02 -0.13,0.03 -0.19,-0.41 -0.13,-0.95 -0.61,-1.24 0.20,0.64 0.40,1.28 0.22,2.00 -0.70,-0.29 -1.39,-0.47 -2.11,-0.25 -0.00,0.03 -0.01,0.07 -0.02,0.11 0.49,0.06 0.98,0.13 1.47,0.20 -0.00,0.03 -0.01,0.07 -0.02,0.11 -0.59,-0.06 -1.19,-0.33 -1.78,0.03 0.57,0.02 1.14,0.05 1.63,0.43 -0.34,-0.02 -0.67,-0.14 -1.01,-0.18 -0.65,-0.07 -0.86,-0.02 -1.04,0.17 0.29,0.03 0.57,0.06 0.85,0.09 -0.33,0.07 -0.66,0.04 -0.99,0.04 -0.30,0.00 -0.44,0.25 -0.29,0.52 -0.12,0.02 -0.25,0.04 -0.38,0.06 -0.00,0.04 -0.01,0.08 -0.02,0.12 0.71,-0.03 1.14,0.37 1.56,0.84 0.18,0.20 0.48,0.30 0.73,0.45 l 0.07,-0.11 c -0.13,-0.11 -0.25,-0.23 -0.39,-0.32 -0.36,-0.24 -0.35,-0.36 0.01,-0.57 0.06,-0.03 0.11,-0.12 0.17,-0.18 C 31.58,9.35 31.52,9.30 31.45,9.28 31.03,9.14 30.60,9.00 30.15,8.85 31.25,8.57 31.84,9.50 32.68,9.82 32.58,9.65 32.46,9.52 32.32,9.41 32.14,9.27 31.98,9.16 32.20,8.91 32.41,8.68 32.58,8.60 32.82,8.86 32.94,8.98 33.10,9.06 33.24,9.16 33.25,9.02 33.22,8.93 33.16,8.86 33.03,8.70 32.88,8.54 32.74,8.38 32.91,8.24 33.08,8.11 33.25,7.97 c 0.01,-0.01 0.05,-0.01 0.10,-0.02 0.26,0.17 0.53,0.34 0.81,0.52 0.03,-0.03 0.06,-0.07 0.09,-0.11 -0.10,-0.10 -0.20,-0.23 -0.32,-0.32 -0.37,-0.30 -0.35,-0.56 0.10,-0.69 0.15,-0.04 0.36,0.11 0.54,0.19 0.12,0.05 0.24,0.14 0.36,0.22 0.02,-0.03 0.04,-0.06 0.06,-0.10 -0.19,-0.19 -0.38,-0.38 -0.60,-0.61 0.15,-0.12 0.28,-0.23 0.39,-0.31 -0.03,-0.58 -0.06,-1.13 -0.09,-1.67 z M 30.88,10.18 C 30.45,9.91 30.02,9.63 29.59,9.37 c -0.06,-0.03 -0.17,0.01 -0.26,0.02 0.01,0.09 0.02,0.18 0.03,0.23 -0.12,0.05 -0.23,0.10 -0.42,0.19 0.68,0.22 1.11,0.52 1.33,1.13 0.08,0.21 0.45,0.33 0.68,0.49 0.02,-0.04 0.05,-0.08 0.07,-0.13 -0.50,-0.51 -0.50,-0.51 -0.14,-1.13 z m -1.23,0.30 C 29.33,10.22 28.93,9.98 28.71,9.95 29.01,10.27 29.29,10.57 29.58,10.87 c -0.03,0.03 -0.07,0.06 -0.10,0.10 l -0.77,-0.70 c 0.01,0.15 0.09,0.23 0.15,0.32 0.07,0.09 0.12,0.20 0.18,0.30 0,0 -0.00,-0.01 -0.00,-0.01 0.13,0.24 0.31,0.46 0.40,0.72 0.13,0.37 0.46,0.39 0.69,0.57 0.02,-0.02 0.04,-0.05 0.07,-0.08 -0.12,-0.14 -0.25,-0.28 -0.35,-0.39 0.08,-0.23 0.22,-0.45 0.20,-0.65 -0.00,-0.14 -0.19,-0.36 -0.43,-0.56 z m -0.59,0.41 c -0.16,-0.13 -0.32,-0.26 -0.48,-0.39 -0.03,0.02 -0.06,0.05 -0.09,0.08 0.06,0.12 0.13,0.24 0.15,0.27 -0.20,0.17 -0.02,0.32 0.01,0.44 0.05,0.16 0.12,0.33 0.18,0.50 -0.02,0.00 -0.04,0.01 -0.06,0.02 -0.18,-0.29 -0.36,-0.59 -0.54,-0.88 l -0.05,0.05 c 0.15,0.42 0.31,0.85 0.46,1.28 -0.03,0.01 -0.07,0.03 -0.10,0.05 -0.16,-0.40 -0.29,-0.84 -0.71,-1.07 0.33,0.66 0.73,1.30 0.60,1.97 -0.71,0.15 -1.35,0.24 -1.96,0.44 -0.17,0.05 -0.25,0.41 -0.37,0.63 0.03,0.11 0.07,0.22 0.10,0.33 -0.08,0.01 -0.21,0.04 -0.35,0.06 0.41,0.13 0.84,0.12 1.22,0.26 0.37,0.14 0.68,0.43 1.02,0.66 0.05,-0.03 0.10,-0.07 0.15,-0.11 -0.52,-0.25 -0.68,-0.61 -0.32,-1.15 -0.67,-0.01 -1.22,-0.03 -1.77,-0.05 0.37,-0.35 0.84,-0.20 1.27,-0.20 0.19,-0.00 0.38,0.13 0.57,0.22 0.21,0.10 0.41,0.21 0.62,0.33 0.05,-0.02 0.10,-0.05 0.15,-0.08 -0.54,-0.25 -0.75,-0.56 -0.26,-1.00 0.24,0.11 0.50,0.22 0.77,0.34 0.04,-0.03 0.09,-0.06 0.13,-0.09 -0.47,-0.26 -0.91,-0.53 -0.39,-1.06 0.14,0.03 0.30,0.06 0.40,0.08 -0.03,-0.22 -0.16,-0.46 -0.08,-0.58 0.15,-0.24 0.12,-0.43 0.02,-0.66 -0.10,-0.22 -0.18,-0.45 -0.27,-0.68 z m 2.38,3.24 c -0.48,-0.43 -1.09,-0.82 -1.40,-0.80 0.70,0.54 1.32,1.02 2.02,1.56 -0.09,-0.21 -0.33,-0.49 -0.62,-0.75 z m -3.44,-0.55 c 0.00,0.05 0.01,0.10 0.02,0.16 -0.44,0.02 -0.89,0.05 -1.33,0.08 -0.00,-0.03 -0.01,-0.06 -0.01,-0.10 0.44,-0.05 0.88,-0.10 1.32,-0.15 z m -0.66,1.80 c -0.74,-0.44 -1.39,-0.51 -1.87,-0.17 0.52,0.08 1.07,0.03 1.46,0.40 -0.57,-0.09 -1.13,-0.17 -1.68,-0.26 -0.01,0.06 -0.02,0.12 -0.04,0.18 0.09,0.03 0.17,0.06 0.27,0.08 0.35,0.07 0.72,0.13 1.07,0.24 0.09,0.02 0.16,0.19 0.23,0.29 -1.25,-0.50 -1.45,-0.54 -1.71,-0.29 0.94,0.24 1.14,0.34 1.37,0.70 -0.48,-0.32 -0.98,-0.51 -1.54,-0.38 0.04,0.07 0.10,0.10 0.17,0.11 0.53,0.10 1.04,0.21 1.36,0.76 0.11,0.18 0.47,0.22 0.72,0.33 0.01,-0.04 0.03,-0.09 0.04,-0.13 -0.52,-0.41 -0.52,-0.41 -0.22,-1.02 0.18,0.03 0.38,0.07 0.57,0.11 l 0.03,-0.07 -0.38,-0.35 c 0.05,-0.19 0.09,-0.36 0.13,-0.53 z m -0.88,1.89 c -0.48,-0.42 -0.94,-0.85 -1.64,-0.84 -0.01,0.15 -0.03,0.29 -0.05,0.43 0.53,0.24 0.93,0.59 1.21,1.12 0.16,0.31 0.51,0.33 0.82,0.33 0.01,-0.04 0.03,-0.08 0.04,-0.13 -0.17,-0.07 -0.35,-0.14 -0.54,-0.23 0.05,-0.23 0.10,-0.45 0.16,-0.69 z m -1.13,0.15 c -0.21,-0.18 -0.46,-0.33 -0.69,-0.50 -0.02,0.02 -0.04,0.05 -0.06,0.08 0.34,0.38 0.69,0.77 1.03,1.15 -0.02,0.01 -0.04,0.03 -0.06,0.05 -0.34,-0.36 -0.70,-0.72 -1.05,-1.08 -0.02,0.02 -0.04,0.05 -0.07,0.08 0.30,0.42 0.60,0.84 0.90,1.27 -0.02,0.01 -0.05,0.03 -0.07,0.05 -0.27,-0.32 -0.56,-0.64 -0.83,-0.96 -0.04,0.03 -0.08,0.07 -0.12,0.10 0.10,0.12 0.21,0.25 0.33,0.39 -0.13,-0.07 -0.23,-0.14 -0.44,-0.26 0.07,0.20 0.10,0.31 0.15,0.41 0.22,0.50 0.49,1.00 0.67,1.52 0.20,0.57 0.36,0.73 1.04,0.65 -0.10,-0.06 -0.20,-0.15 -0.32,-0.19 -0.27,-0.09 -0.31,-0.26 -0.26,-0.52 0.04,-0.21 0.03,-0.44 0.04,-0.55 0.25,0.10 0.57,0.23 0.89,0.36 0.04,-0.04 0.08,-0.08 0.13,-0.12 -0.57,-0.22 -1.00,-0.50 -0.44,-1.05 -0.23,-0.30 -0.42,-0.58 -0.65,-0.81 -0.02,-0.02 -0.06,-0.05 -0.09,-0.08 z m -0.23,2.92 c -0.89,-0.36 -1.76,0.02 -1.99,0.83 0.45,-0.09 0.90,-0.19 1.35,-0.29 0.00,0.04 0.01,0.08 0.02,0.12 -0.36,0.10 -0.73,0.23 -1.10,0.30 -0.39,0.07 -0.76,0.15 -0.75,0.74 0.98,-0.55 1.75,0.15 2.63,0.43 -0.39,-0.38 -1.19,-0.57 -0.42,-1.30 0.26,0.11 0.57,0.25 0.88,0.39 0.02,-0.03 0.05,-0.07 0.07,-0.11 -0.25,-0.37 -1.22,-0.30 -0.69,-1.12 z m 4.26,3.90 c 0.04,0.04 0.08,0.09 0.12,0.15 -0.42,-0.09 -0.78,-0.18 -1.15,-0.26 0.33,-0.04 0.71,-0.18 1.02,0.10 z m -5.10,-2.01 c -0.61,-0.29 -1.22,-0.19 -1.84,0.05 0.03,0.07 0.06,0.13 0.09,0.19 -0.42,0.22 -0.56,0.53 -0.36,0.85 -0.00,1.18e-4 -0.00,0.00 -0.00,0.00 0.00,0.00 0.00,0.00 0.00,0.00 10e-4,-0.00 0.00,-0.00 0.00,-0.00 0.50,-0.09 0.84,0.23 1.22,0.46 0.31,0.18 0.61,0.38 0.93,0.55 0.05,0.02 0.14,-0.02 0.28,-0.05 -0.33,-0.38 -1.17,-0.33 -0.72,-1.11 -0.43,-0.11 -0.80,-0.21 -1.17,-0.31 -0.01,0.03 -0.02,0.07 -0.03,0.11 l 0.23,0.21 c -0.18,-0.05 -0.31,-0.08 -0.40,-0.10 -0.11,-0.31 0.04,-0.39 0.28,-0.33 0.52,0.15 1.05,0.33 1.57,0.50 0.18,0.06 0.36,0.14 0.54,0.21 0.02,-0.05 0.03,-0.10 0.06,-0.15 -0.22,-0.12 -0.53,-0.19 -0.65,-0.39 -0.11,-0.17 -0.02,-0.48 -0.02,-0.70 z m -2.11,1.10 c -0.07,0.12 -0.15,0.25 -0.21,0.35 0.44,0.40 0.86,0.75 1.23,1.14 0.27,0.28 0.59,0.33 0.92,0.39 0.02,-0.04 0.04,-0.09 0.06,-0.13 -0.25,-0.12 -0.51,-0.24 -0.75,-0.35 0.05,-0.24 0.09,-0.47 0.14,-0.69 -0.49,-0.24 -0.94,-0.47 -1.39,-0.70 z m 0.29,0.84 c -0.18,-0.15 -0.40,-0.26 -0.60,-0.39 0.24,0.50 0.45,0.93 0.67,1.38 -0.18,-0.03 -0.32,-0.06 -0.51,-0.10 0.10,-0.03 0.15,-0.05 0.21,-0.06 -0.05,-0.09 -0.09,-0.22 -0.17,-0.26 -0.19,-0.08 -0.42,-0.12 -0.70,-0.20 0.14,0.15 0.25,0.27 0.37,0.40 -0.14,-0.03 -0.26,-0.05 -0.49,-0.10 0.21,0.25 0.39,0.40 0.49,0.59 0.11,0.20 0.16,0.44 0.23,0.67 0.05,0.19 0.09,0.40 0.13,0.60 -0.32,-0.41 -0.22,-1.04 -0.75,-1.37 0.21,0.66 0.40,1.28 0.62,1.98 -0.72,-0.33 -1.29,-0.06 -1.87,0.12 0.00,0.04 0.00,0.08 0.00,0.12 0.09,0.01 0.19,0.03 0.36,0.06 -0.26,0.05 -0.46,0.10 -0.66,0.14 0.00,0.04 0.01,0.09 0.01,0.13 l 1.17,-0.07 c -0.37,0.13 -0.76,0.16 -1.13,0.25 -0.14,0.03 -0.30,0.14 -0.37,0.26 -0.15,0.24 -0.23,0.53 -0.39,0.77 -0.26,0.39 -0.59,0.74 -0.83,1.15 -0.18,0.31 -0.28,0.68 -0.42,1.03 -0.03,-0.01 -0.13,-0.04 -0.24,-0.08 0.03,0.17 0.12,0.28 0.20,0.39 0.07,0.10 0.14,0.21 0.22,0.33 -0.24,-0.13 -0.44,-0.24 -0.64,-0.36 -0.01,0.02 -0.03,0.04 -0.05,0.06 0.11,0.21 0.22,0.42 0.33,0.63 -0.01,0.00 -0.03,0.01 -0.05,0.02 -0.11,-0.13 -0.23,-0.25 -0.35,-0.38 l -0.13,0.06 c 0.41,0.57 0.58,1.20 0.54,1.89 -0.46,-0.10 -0.91,-0.21 -1.36,-0.28 -0.19,-0.02 -0.44,-0.01 -0.58,0.09 -0.24,0.20 -0.42,0.48 -0.62,0.73 0.07,0.08 0.14,0.15 0.25,0.26 -0.22,-0.07 -0.38,-0.13 -0.54,-0.18 -0.09,0.13 -0.16,0.31 -0.29,0.38 -0.15,0.08 -0.35,0.09 -0.53,0.13 0.06,0.17 0.12,0.34 0.18,0.51 0.00,0.02 -0.00,0.05 -0.00,0.08 -0.17,-0.07 -0.34,-0.14 -0.52,-0.21 -0.05,0.15 -0.09,0.28 -0.14,0.43 -0.06,-0.08 -0.11,-0.16 -0.15,-0.21 -0.18,0.13 -0.34,0.25 -0.47,0.34 0.01,0.38 0.07,0.78 0.04,1.18 -0.03,0.36 -0.16,0.72 -0.25,1.08 -0.42,-0.48 -0.94,-0.76 -1.58,-0.76 -0.01,0.04 -0.03,0.08 -0.05,0.12 0.19,0.06 0.38,0.13 0.57,0.19 -0.14,0.03 -0.30,0.06 -0.40,0.00 -0.28,-0.15 -0.46,-0.05 -0.63,0.17 -0.17,0.24 -0.41,0.36 -0.71,0.41 -0.36,0.06 -0.44,0.37 -0.18,0.64 -0.40,-0.24 -0.61,0.20 -0.93,0.26 0.17,0.23 0.35,0.47 0.52,0.70 -0.01,0.01 -0.04,0.02 -0.06,0.03 -0.19,-0.12 -0.39,-0.25 -0.59,-0.38 -0.01,0.02 -0.03,0.05 -0.05,0.07 0.14,0.15 0.28,0.30 0.49,0.51 -0.31,-0.19 -0.54,-0.33 -0.77,-0.47 -0.01,0.02 -0.02,0.05 -0.03,0.08 0.27,0.31 0.54,0.62 0.81,0.93 -0.03,0.02 -0.06,0.05 -0.09,0.08 C 8.54,40.61 8.29,40.21 7.77,40.23 c 0.35,0.29 0.76,0.53 0.90,1.09 C 7.67,40.38 7.67,40.38 7.30,40.65 c 0.02,0.03 0.05,0.08 0.08,0.08 0.66,0.02 0.80,0.57 1.05,1.02 0.11,0.20 0.23,0.40 0.39,0.68 0.12,-0.42 -0.28,-0.85 0.24,-1.06 l 0.49,0.45 C 9.47,41.47 9.40,41.21 9.33,40.96 l 0.11,-0.03 c 0.13,0.19 0.26,0.40 0.43,0.65 0.20,-0.42 -0.42,-0.76 -0.00,-1.12 0.15,0.25 0.29,0.49 0.44,0.73 0.06,-0.01 0.12,-0.02 0.18,-0.04 -0.16,-0.46 -0.47,-0.93 -0.01,-1.34 -0.33,-0.27 -0.62,-0.50 -0.91,-0.74 0.16,0.05 0.34,0.10 0.56,0.17 6.98e-4,1.48e-4 0.00,0.00 0.00,0.00 0.01,0.00 0.04,0.00 0.05,0.01 -0.10,-0.15 -0.16,-0.24 -0.27,-0.40 0.25,0.17 0.44,0.31 0.72,0.49 -0.19,-0.04 -0.31,-0.06 -0.44,-0.09 0.00,0.00 0.00,0.00 0.00,0.00 -0.02,-0.00 -0.03,-0.01 -0.06,-0.01 0.34,0.48 0.63,0.91 0.96,1.37 0.09,-0.49 -0.52,-0.90 0.04,-1.36 0.18,0.29 0.36,0.57 0.53,0.84 0.03,-0.02 0.07,-0.05 0.11,-0.08 -0.11,-0.27 -0.23,-0.55 -0.35,-0.83 0.14,-0.10 0.28,-0.19 0.43,-0.29 0.15,0.25 0.28,0.47 0.42,0.70 0.05,-0.02 0.10,-0.05 0.15,-0.07 -0.03,-0.10 -0.05,-0.22 -0.12,-0.32 -0.17,-0.25 -0.23,-0.47 0.11,-0.63 0.05,-0.02 0.09,-0.10 0.13,-0.15 0.17,0.23 0.34,0.47 0.54,0.75 0.20,-0.36 -0.52,-0.70 0.10,-0.96 0.17,0.22 0.35,0.43 0.52,0.65 0.04,-0.02 0.07,-0.04 0.11,-0.06 -0.05,-0.14 -0.08,-0.30 -0.18,-0.42 -0.20,-0.25 -0.18,-0.46 0.08,-0.68 0.18,0.24 0.34,0.47 0.51,0.70 0.03,-0.02 0.07,-0.04 0.10,-0.07 -0.10,-0.25 -0.29,-0.52 -0.27,-0.77 0.01,-0.26 0.23,-0.51 0.33,-0.71 0.14,0.27 0.33,0.61 0.51,0.95 0.05,-0.02 0.11,-0.05 0.16,-0.08 -0.13,-0.29 -0.25,-0.58 -0.39,-0.90 0.19,-0.09 0.36,-0.18 0.55,-0.27 0.13,0.23 0.25,0.44 0.37,0.64 0.04,-0.01 0.09,-0.03 0.13,-0.05 -0.04,-0.14 -0.06,-0.30 -0.14,-0.42 -0.18,-0.27 -0.14,-0.46 0.16,-0.59 0.21,0.22 0.43,0.44 0.64,0.66 0.04,-0.04 0.08,-0.07 0.13,-0.11 -0.19,-0.26 -0.39,-0.52 -0.59,-0.79 l 0.36,-0.40 0.61,0.56 c 0.03,-0.02 0.06,-0.05 0.09,-0.08 -0.09,-0.12 -0.21,-0.24 -0.26,-0.39 -0.04,-0.14 -0.06,-0.35 0.01,-0.45 0.15,-0.18 0.30,-0.09 0.42,0.10 0.05,0.09 0.17,0.15 0.27,0.22 0.03,-0.01 0.06,-0.03 0.09,-0.05 -0.15,-0.32 -0.64,-0.64 -0.02,-1.00 l 0.43,0.40 c 0.02,-0.02 0.05,-0.05 0.08,-0.08 -0.09,-0.10 -0.25,-0.20 -0.26,-0.32 -0.01,-0.18 0.05,-0.38 0.09,-0.57 0.13,0.05 0.27,0.09 0.39,0.16 0.12,0.07 0.24,0.17 0.43,0.31 -0.06,-0.46 -0.80,-0.62 -0.24,-1.10 0.20,0.15 0.38,0.29 0.56,0.43 0.02,-0.02 0.05,-0.05 0.08,-0.08 -0.08,-0.31 -0.76,-0.47 -0.28,-0.92 0.22,0.15 0.45,0.30 0.67,0.46 0.04,-0.03 0.08,-0.07 0.13,-0.11 -0.38,-0.27 -0.83,-0.53 -0.31,-1.02 0.33,0.02 0.37,0.58 0.91,0.48 -0.23,-0.21 -0.38,-0.37 -0.56,-0.50 -0.21,-0.16 -0.23,-0.36 -0.07,-0.53 0.05,-0.05 0.28,0.03 0.41,0.09 0.14,0.06 0.27,0.15 0.41,0.23 0.01,-0.03 0.03,-0.06 0.05,-0.09 -0.12,-0.11 -0.24,-0.21 -0.36,-0.33 -0.07,-0.07 -0.21,-0.21 -0.19,-0.24 0.27,-0.49 -0.18,-0.69 -0.44,-1.08 0.54,0.44 1.00,0.82 1.46,1.20 0.04,-0.05 0.08,-0.10 0.12,-0.15 -0.18,-0.14 -0.36,-0.31 -0.56,-0.43 -0.19,-0.12 -0.26,-0.24 -0.12,-0.44 0.13,-0.19 0.28,-0.26 0.49,-0.09 0.14,0.11 0.29,0.22 0.44,0.33 0.03,-0.04 0.07,-0.08 0.11,-0.12 -0.14,-0.13 -0.30,-0.26 -0.44,-0.41 -0.07,-0.08 -0.19,-0.25 -0.17,-0.27 0.29,-0.33 0.11,-0.54 -0.19,-0.74 0.55,0.13 0.80,0.79 1.43,0.75 -0.06,-0.12 -0.13,-0.21 -0.23,-0.28 -0.59,-0.38 -0.59,-0.37 -0.18,-0.96 0.24,0.13 0.48,0.27 0.72,0.41 0.02,-0.05 0.05,-0.10 0.08,-0.15 -0.18,-0.13 -0.43,-0.23 -0.53,-0.41 -0.09,-0.16 -0.01,-0.41 -0.01,-0.66 0.33,0.13 0.56,0.22 0.78,0.32 0.03,-0.03 0.06,-0.07 0.10,-0.11 -0.32,-0.21 -0.76,-0.39 -0.38,-0.86 0.20,0.05 0.41,0.11 0.70,0.19 -0.45,-0.62 -0.45,-0.62 -0.30,-1.03 0.24,0.10 0.48,0.21 0.73,0.31 0.02,-0.03 0.04,-0.06 0.07,-0.09 -0.06,-0.06 -0.11,-0.17 -0.19,-0.20 -0.34,-0.14 -0.60,-0.31 -0.34,-0.74 0.02,-0.04 -0.03,-0.15 -0.08,-0.21 -0.17,-0.24 -0.34,-0.51 -0.56,-0.72 -0.02,-0.02 -0.04,-0.04 -0.07,-0.06 z m 0.72,7.04 c -0.35,-0.24 -0.71,-0.48 -1.07,-0.72 -0.04,0.06 -0.08,0.12 -0.12,0.19 0.36,0.23 0.72,0.46 1.09,0.69 0.03,-0.05 0.07,-0.11 0.11,-0.17 z m -2.67,-1.75 c -0.01,0.04 -0.02,0.08 -0.03,0.13 -0.34,-0.10 -0.69,-0.21 -1.03,-0.32 0.00,-0.04 0.00,-0.08 0.01,-0.12 0.35,0.10 0.70,0.21 1.06,0.31 z m 2.20,3.46 c -0.09,0.02 -0.19,0.05 -0.29,0.07 -0.04,-0.34 -0.37,-0.32 -0.57,-0.47 -0.22,-0.16 -0.44,-0.34 -0.67,-0.52 -0.02,0.03 -0.05,0.06 -0.08,0.09 0.27,0.52 0.86,0.71 1.27,1.10 0.05,0.04 0.25,-0.05 0.38,-0.09 -0.01,-0.06 -0.02,-0.12 -0.03,-0.18 z M 9.73,39.54 c 0.14,0.13 0.21,0.31 0.21,0.54 -0.25,-0.28 -0.48,-0.55 -0.71,-0.80 0.21,0.06 0.38,0.15 0.49,0.25 z m -0.27,4.27 c -0.40,-0.04 -0.39,0.10 -0.21,0.32 -0.38,-0.10 -0.70,-0.18 -1.08,-0.29 0.45,-0.53 0.81,-0.26 1.29,-0.03 z" />
</svg>
