<?xml version="1.0" encoding="UTF-8" standalone="no"?>
<!-- Created with Inkscape (http://www.inkscape.org/) -->
<svg xmlns:dc="http://purl.org/dc/elements/1.1/" xmlns:cc="http://creativecommons.org/ns#" xmlns:rdf="http://www.w3.org/1999/02/22-rdf-syntax-ns#" xmlns:svg="http://www.w3.org/2000/svg" xmlns="http://www.w3.org/2000/svg" version="1.1" width="100%" height="100%" viewBox="0 0 48 48" id="Layer_1" xml:space="preserve">
<defs id="defs127" />
<path d="m 17.84,2.56 c 0.00,0.47 -0.02,0.51 -0.43,0.43 -0.03,-0.00 -0.08,0.01 -0.12,0.03 0.02,0.05 0.02,0.11 0.06,0.15 0.09,0.12 0.23,0.23 0.31,0.37 0.15,0.26 0.21,0.55 0.43,0.81 0.49,0.56 0.96,1.18 1.59,1.62 0.03,0.02 0.04,0.09 0.09,0.15 L 19.43,6.09 c -0.00,0.02 -0.02,0.04 -0.03,0.06 0.53,0.14 0.44,0.69 0.71,1 -0.05,0.04 -0.08,0.08 -0.09,0.09 l 0.5,0.65 L 20.5,7.93 c -0.10,-0.07 -0.20,-0.14 -0.31,-0.21 -0.02,0.02 -0.06,0.03 -0.09,0.06 0.86,0.61 1.14,1.60 1.59,2.43 -0.09,0.03 -0.14,0.05 -0.15,0.09 -0.06,0.20 -0.07,0.42 -0.15,0.62 -0.26,0.67 -0.54,1.35 -0.81,2.03 -0.06,0.17 -0.14,0.35 -0.15,0.53 -0.02,0.41 -0.30,0.78 -0.15,1.21 0.03,0.10 0.07,0.23 0.06,0.34 -0.08,1.09 -0.05,2.19 0.40,3.21 0.16,0.35 0.35,0.70 0.56,1.03 0.16,0.25 0.38,0.46 0.62,0.75 -0.15,-0.02 -0.29,0.00 -0.31,-0.03 -0.07,-0.21 -0.31,-0.31 -0.43,-0.46 -0.25,-0.32 -0.44,-0.66 -0.75,-0.96 -0.30,-0.30 -0.46,-0.76 -0.68,-1.15 -0.25,-0.44 -0.31,-0.98 -0.75,-1.34 -0.06,-0.05 -0.06,-0.18 -0.09,-0.28 -0.07,-0.27 -0.17,-0.52 -0.40,-0.68 -0.02,0.00 -0.06,0.02 -0.09,0.03 0.03,0.14 0.08,0.27 0.12,0.46 -0.11,-0.14 -0.19,-0.22 -0.28,-0.34 -0.06,0.08 -0.10,0.15 -0.15,0.21 -0.03,-0.01 -0.06,-0.01 -0.09,-0.03 0.03,-0.79 0.21,-1.58 0.28,-2.37 0.06,-0.80 0.16,-1.61 0.25,-2.46 -0.06,0.18 -0.13,0.35 -0.18,0.5 -0.01,-0.00 -0.01,-0.02 -0.03,-0.03 0.04,-0.30 0.08,-0.60 0.12,-0.90 l -0.09,0 c -0.04,0.17 -0.07,0.33 -0.12,0.5 C 18.06,10.61 17.93,10.56 17.81,10.5 17.79,10.53 17.75,10.55 17.75,10.56 17.50,9.91 17.27,9.28 17.03,8.62 17.00,8.65 16.97,8.67 16.93,8.71 16.82,8.43 16.72,8.16 16.62,7.90 16.60,7.91 16.55,7.92 16.53,7.93 c 0.00,0.05 0.02,0.10 0.03,0.15 -0.02,0.01 -0.06,0.01 -0.09,0.03 -0.10,-0.68 -0.56,-1.12 -1,-1.62 -0.02,0.08 -0.03,0.15 -0.06,0.28 -0.24,-0.56 -0.46,-1.06 -0.71,-1.62 l 0,0.34 C 14.52,5.27 14.38,5.11 14.28,4.93 14.17,4.75 14.11,4.56 14.03,4.37 13.95,4.20 13.90,4.02 13.84,3.84 13.81,3.85 13.77,3.86 13.75,3.87 l 0.06,0.37 c -0.03,0.00 -0.06,-0.00 -0.09,0 -0.03,-0.12 -0.10,-0.24 -0.12,-0.37 -0.02,-0.16 -0.06,-0.25 -0.28,-0.18 0.05,0.09 0.08,0.19 0.15,0.31 -0.18,0.07 -0.33,0.15 -0.5,0.21 -0.05,0.02 -0.12,0.01 -0.18,0.03 0.03,0.05 0.07,0.14 0.12,0.18 0.08,0.07 0.20,0.13 0.28,0.21 0.36,0.44 0.73,0.89 1.09,1.34 0.03,0.04 0.05,0.07 0.09,0.12 -0.08,0.01 -0.14,0.03 -0.28,0.06 0.12,0.07 0.15,0.09 0.21,0.12 0.37,0.19 0.69,0.44 0.65,0.93 -0.00,0.05 0.02,0.10 0.06,0.15 0.22,0.34 0.46,0.67 0.71,1.06 C 15.57,8.37 15.44,8.32 15.31,8.25 15.29,8.27 15.26,8.28 15.25,8.31 c 0.41,0.30 0.90,0.58 0.87,1.09 0.41,0.50 0.75,0.92 1.09,1.34 -0.39,0.13 0.08,0.44 -0.09,0.62 -0.04,-0.00 -0.11,0.00 -0.18,0 0.08,0.26 0.16,0.50 0.25,0.75 -0.02,0.01 -0.06,0.02 -0.09,0.03 -0.06,-0.05 -0.12,-0.10 -0.18,-0.15 -0.01,0.01 -0.04,0.04 -0.06,0.06 0.06,0.14 0.12,0.26 0.18,0.40 0.03,0.09 0.10,0.18 0.09,0.28 -0.05,0.64 -0.17,1.29 -0.06,1.93 0.05,0.31 0.14,0.62 0.21,0.93 0.01,0.06 0.02,0.14 0.03,0.21 0.00,0.14 -0.01,0.30 0.03,0.43 0.07,0.23 0.20,0.45 0.31,0.68 -0.04,0.01 -0.10,0.02 -0.12,0.03 0.23,0.22 0.46,0.44 0.75,0.71 L 18,17.75 c 0.26,0.34 0.52,0.69 0.78,1.03 -0.02,0.01 -0.04,0.04 -0.06,0.06 -0.07,-0.01 -0.17,-0.04 -0.25,-0.06 0.07,0.11 0.19,0.16 0.28,0.21 0.07,0.04 0.17,0.08 0.21,0.15 0.29,0.53 0.72,0.96 1.15,1.37 0.09,0.08 0.22,0.17 0.34,0.18 0.27,0.02 0.40,0.19 0.59,0.34 0.28,0.21 0.53,0.52 1.03,0.5 -0.11,0.10 -0.18,0.17 -0.25,0.21 -0.13,0.07 -0.34,0.10 -0.40,0.21 -0.26,0.46 -0.76,0.46 -1.15,0.59 -0.92,0.29 -1.69,0.83 -2.34,1.5 -0.57,0.58 -1.06,1.24 -1.59,1.87 -0.19,0.23 -0.39,0.47 -0.59,0.71 0.01,0.02 0.04,0.04 0.06,0.06 0.08,-0.05 0.15,-0.12 0.28,-0.21 -0.10,0.20 -0.17,0.34 -0.25,0.5 0.02,0.01 0.04,0.02 0.06,0.03 0.05,-0.05 0.10,-0.10 0.15,-0.15 0.00,-0.03 0.02,-0.06 0.03,-0.09 l 0.06,0 c -0.03,0.03 -0.06,0.06 -0.09,0.09 -0.24,1.15 -0.47,2.30 -0.71,3.46 0.01,0.00 0.04,0.02 0.06,0.03 0.04,-0.10 0.07,-0.22 0.15,-0.40 -0.01,0.21 -0.00,0.37 -0.03,0.5 -0.06,0.29 -0.19,0.55 -0.06,0.87 0.03,0.09 -0.00,0.23 -0.03,0.34 -0.03,0.17 -0.11,0.35 -0.12,0.53 -0.01,0.25 0.00,0.49 0,0.75 -0.01,0.57 0.03,1.15 -0.40,1.62 0.00,0.51 -0.50,0.82 -0.56,1.34 -0.04,0.40 -0.30,0.76 -0.46,1.15 -0.05,0.12 -0.10,0.26 -0.12,0.40 -0.05,0.30 -0.11,0.55 -0.37,0.78 -0.55,0.48 -1.05,1.04 -1.43,1.68 -0.12,0.20 -0.14,0.53 -0.56,0.46 0.17,0.27 0.68,0.16 0.5,0.65 0.10,-0.04 0.20,-0.10 0.25,-0.18 0.14,-0.27 0.25,-0.57 0.40,-0.87 L 12.68,40.25 c 0.03,-0.05 0.05,-0.09 0.06,-0.12 0.11,-0.50 0.41,-0.87 0.75,-1.25 0.37,-0.41 0.76,-0.81 1.15,-1.21 0.06,0.00 0.14,-0.02 0.15,-0.06 0.03,-0.15 0.00,-0.32 0.06,-0.46 0.12,-0.34 0.30,-0.69 0.43,-1.03 0.06,-0.17 0.09,-0.35 0.15,-0.53 0.20,-0.61 0.40,-1.23 0.62,-1.87 0.06,0.00 0.20,0.02 0.28,0.03 0.05,0.15 0.08,0.25 0.12,0.37 0.02,-0.00 0.03,0.00 0.06,0 l 0,-0.93 c 0.02,-4.35e-4 0.04,4.55e-4 0.06,0 0.05,0.16 0.10,0.33 0.18,0.56 -0.03,-0.66 -0.05,-1.25 -0.09,-1.84 0.02,-0.00 0.03,0.00 0.06,0 0.05,0.31 0.12,0.62 0.18,0.93 0.15,-0.62 -0.17,-1.17 -0.21,-1.78 0.06,0.02 0.12,0.02 0.15,0.03 l 0,-1.59 c 0.04,0.05 0.07,0.10 0.09,0.15 0.02,0.05 0.03,0.10 0.06,0.15 C 17.08,29.77 17.13,29.75 17.15,29.75 16.94,28.92 16.93,28.10 17,27.31 c 0.18,-0.05 0.33,-0.03 0.43,-0.12 0.18,-0.16 0.34,-0.36 0.5,-0.56 0.14,-0.17 0.29,-0.38 0.43,-0.56 0.01,0.00 0.02,0.02 0.03,0.03 -0.02,0.08 -0.04,0.18 -0.09,0.34 0.42,-0.56 0.78,-1.06 1.15,-1.56 0.01,0.00 0.01,-0.00 0.03,0 -0.05,0.12 -0.12,0.25 -0.18,0.40 0.58,-0.61 1.15,-1.18 1.71,-1.78 0.17,0.15 0.31,0.23 0.43,-0.06 0.02,-0.05 0.13,-0.08 0.21,-0.09 0.19,-0.03 0.40,-0.04 0.56,-0.06 -0.04,0.11 -0.08,0.30 -0.18,0.46 -0.04,0.07 -0.18,0.12 -0.28,0.15 -0.11,0.03 -0.22,0.03 -0.34,0.06 0.00,0.02 -0.00,0.06 0,0.09 0.21,0 0.45,-0.05 0.65,0 0.17,0.04 0.34,0.19 0.43,0.34 0.03,0.06 -0.14,0.25 -0.25,0.43 -0.24,-0.65 -0.50,-0.81 -0.81,-0.59 0.02,0.01 0.03,0.02 0.06,0.03 0.35,0.06 0.48,0.36 0.28,0.65 -0.03,0.04 -0.03,0.10 -0.06,0.15 -0.37,0.69 -0.77,1.38 -1.15,2.09 L 20.5,27.03 c -0.27,0.57 -0.54,1.14 -0.81,1.71 l -0.15,-0.09 c -0.08,0.42 -0.16,0.81 -0.25,1.21 -0.03,-0.00 -0.05,0.00 -0.09,0 l 0,-0.75 c -0.02,6e-4 -0.06,-6.81e-4 -0.09,0 -0.02,0.19 -0.03,0.38 -0.06,0.59 -0.13,-0.04 -0.23,-0.07 -0.31,-0.09 0.05,-0.20 0.10,-0.37 0.15,-0.56 -0.02,-0.00 -0.03,-0.02 -0.06,-0.03 -0.09,0.20 -0.21,0.41 -0.31,0.62 -0.02,-0.01 -0.03,-0.01 -0.06,-0.03 0.05,-0.16 0.10,-0.33 0.15,-0.5 -0.02,7e-4 -0.06,-7.38e-4 -0.09,0 -0.02,-0.10 -0.10,-0.23 -0.06,-0.31 0.15,-0.30 0.29,-0.60 0.34,-0.96 0.03,-0.25 0.17,-0.52 0.31,-0.75 0.32,-0.53 0.65,-1.06 1.03,-1.56 0.33,-0.43 0.73,-0.83 1.09,-1.21 -0.26,0.22 -0.52,0.42 -0.78,0.65 -0.09,0.08 -0.19,0.22 -0.28,0.31 -0.20,0.21 -0.42,0.40 -0.62,0.62 -0.11,0.12 -0.22,0.28 -0.25,0.43 -0.04,0.26 -0.21,0.39 -0.40,0.53 -0.01,0.01 -0.03,0.05 -0.06,0.09 0.05,0.01 0.10,0.01 0.15,0.03 -0.10,0.17 -0.25,0.34 -0.31,0.53 -0.20,0.64 -0.31,1.30 -0.78,1.84 -0.01,0.01 0,0.04 0,0.09 0.07,-0.03 0.10,-0.06 0.25,-0.12 -0.13,0.30 -0.23,0.55 -0.34,0.78 0.01,0.00 0.01,0.02 0.03,0.03 0.09,-0.10 0.18,-0.21 0.31,-0.34 -0.04,0.13 -0.07,0.20 -0.12,0.34 0.12,-0.07 0.19,-0.11 0.31,-0.18 -0.03,0.16 -0.04,0.27 -0.06,0.37 -0.04,0.21 -0.11,0.43 -0.12,0.65 -0.01,0.49 -0.01,0.97 0,1.46 0.01,0.46 0.07,0.93 0.09,1.40 0.01,0.34 0,0.67 0,0.93 0.05,0.16 0.08,0.27 0.09,0.37 0.02,0.44 0.04,0.87 0.06,1.31 0.00,0.03 -0.02,0.07 0,0.09 0.24,0.23 0.24,0.53 0.21,0.84 -0.02,0.25 0,0.52 0,0.78 0.02,9e-4 0.03,-8.52e-4 0.06,0 l 0,-0.84 c 0.34,0.25 0.37,0.31 0.25,0.62 -0.13,0.33 -0.26,0.66 -0.40,1 -0.02,0.05 -0.02,0.12 -0.03,0.18 0.02,0.00 0.03,0.02 0.06,0.03 0.09,-0.22 0.21,-0.44 0.31,-0.68 0.02,0.07 0.01,0.10 0.03,0.15 l 0.06,0.03 c 0.05,-0.30 0.13,-0.60 0.18,-0.90 l 0.31,0 c -0.06,0.37 -0.12,0.72 -0.18,1.09 l 0,-0.78 c -0.03,0.00 -0.05,-0.00 -0.09,0 -0.06,0.35 -0.15,0.70 -0.21,1.06 0.03,0.01 0.09,0.01 0.12,0.03 l 0.21,-0.31 c -0.05,0.49 -0.15,0.97 -0.18,1.46 -0.04,0.63 -0.04,1.30 -0.09,1.93 -0.00,0.08 -0.12,0.17 -0.21,0.21 -0.03,0.01 -0.18,-0.12 -0.18,-0.18 -0.00,-0.31 -0.01,-0.62 0.03,-0.93 0.04,-0.28 0.17,-0.53 0.25,-0.81 0.04,-0.17 0.08,-0.38 0.12,-0.56 -0.02,-0.00 -0.06,0.00 -0.09,0 -0.06,0.20 -0.12,0.39 -0.18,0.59 l -0.03,0 0.21,-1.71 c -0.02,-0.01 -0.03,-0.02 -0.06,-0.03 -0.01,0.02 -0.02,0.03 -0.03,0.06 -0.09,0.46 -0.18,0.93 -0.28,1.40 -0.06,0.30 -0.17,0.60 -0.18,0.90 -0.01,0.35 0.05,0.70 0.09,1.06 0.02,0.26 -0.09,0.47 -0.21,0.68 -0.27,0.46 -0.52,0.95 -0.78,1.43 -0.14,0.26 -0.25,0.53 -0.37,0.81 -0.02,0.05 0,0.15 0,0.21 0.02,0.00 0.03,-0.00 0.06,0 l 0.09,-0.15 c 0.13,0.03 0.27,0.05 0.40,0.09 0.02,0.08 0.06,0.18 0.09,0.28 0.03,0.00 0.06,-0.00 0.09,0 0.01,-0.10 0.06,-0.22 0.03,-0.31 -0.06,-0.15 -0.00,-0.24 0.06,-0.37 0.17,-0.34 0.32,-0.70 0.46,-1.06 0.19,-0.47 0.36,-0.95 0.71,-1.34 0.10,-0.11 0.17,-0.28 0.18,-0.43 0.02,-0.39 0.00,-0.81 0.03,-1.21 0.05,-0.79 0.14,-1.58 0.21,-2.37 0.03,-0.34 0.05,-0.67 0.09,-1.06 0.07,0.16 0.12,0.27 0.18,0.40 0.01,-0.00 0.01,-0.02 0.03,-0.03 -0.02,-0.27 -0.04,-0.53 -0.06,-0.81 0.02,-0.00 0.06,0.00 0.09,0 0.05,0.10 0.10,0.23 0.18,0.40 0.02,-0.11 0.03,-0.15 0.03,-0.18 -0.15,-0.60 -0.32,-1.23 -0.46,-1.84 -0.02,-0.10 0.02,-0.22 0.06,-0.40 -0.17,-0.33 -0.26,-0.88 -0.21,-1.37 0.05,0.09 0.10,0.19 0.15,0.28 0.03,-0.01 0.06,-0.04 0.09,-0.06 -0.10,-0.18 -0.18,-0.36 -0.31,-0.59 0.00,-0.02 0.00,-0.12 0,-0.21 -0.02,-0.36 -0.02,-0.72 -0.06,-1.09 -0.04,-0.55 -0.11,-1.10 -0.15,-1.65 -0.00,-0.06 0.04,-0.17 0.09,-0.18 0.30,-0.09 0.34,-0.39 0.43,-0.62 0.17,-0.44 0.31,-0.87 0.5,-1.31 0.11,-0.25 0.26,-0.50 0.40,-0.75 0.39,-0.70 0.82,-1.41 1.21,-2.12 0.10,-0.19 0.21,-0.35 0.46,-0.15 -0.18,0.23 -0.41,0.43 -0.56,0.68 -0.26,0.44 -0.51,0.89 -0.71,1.37 -0.35,0.83 -0.74,1.68 -1,2.56 -0.26,0.89 -0.15,1.83 0,2.75 0.03,0.22 0.14,0.43 0.21,0.65 0.13,0.38 0.46,0.72 0.34,1.18 -6e-5,1.2e-4 -1.4e-4,-0.00 0.03,0 l 0.15,-0.25 c 0.11,0.25 0.19,0.43 0.28,0.62 0.28,0.11 0.53,0.31 0.65,0.68 0.03,-0.11 0.04,-0.17 0.06,-0.25 0.29,0.19 0.17,0.47 0.21,0.75 0.04,-0.09 0.10,-0.18 0.15,-0.28 0.02,-0.00 0.03,-0.02 0.06,-0.03 0.06,0.17 0.14,0.35 0.21,0.56 0.04,-0.11 0.07,-0.21 0.12,-0.34 0.08,0.07 0.14,0.13 0.21,0.18 0.04,0.03 0.11,0.10 0.15,0.09 0.28,-0.07 0.32,0.05 0.31,0.28 -0.00,0.13 -0.02,0.27 -0.03,0.40 0.03,0.00 0.08,-0.00 0.12,0 L 23.37,36.34 c 0.40,-0.01 0.23,0.34 0.40,0.53 0.05,-0.11 0.08,-0.18 0.12,-0.28 0.19,0.22 0.42,0.41 0.65,0.25 0.26,-0.19 0.66,-0.17 0.84,-0.5 0.00,-0.00 0.02,-0.00 0.06,0 0.03,0.10 0.07,0.22 0.12,0.37 0.08,-0.26 0.12,-0.47 0.18,-0.68 0.03,-0.01 0.08,-0.01 0.12,-0.03 0.11,0.13 0.21,0.24 0.34,0.40 -0.01,-0.19 -0.09,-0.37 -0.03,-0.5 0.04,-0.09 0.28,-0.10 0.43,-0.15 0.03,0.13 0.03,0.22 0.06,0.31 l 0.09,0.03 c 0.07,-0.31 -0.13,-0.80 0.37,-0.78 0.10,-0.16 0.16,-0.40 0.28,-0.43 0.24,-0.06 0.24,-0.23 0.31,-0.40 0.02,-0.06 0.08,-0.11 0.12,-0.18 0.05,0.06 0.08,0.11 0.09,0.12 0.07,-0.17 0.13,-0.36 0.21,-0.53 0.08,-0.15 0.19,-0.28 0.28,-0.43 0.06,-0.11 0.09,-0.23 0.15,-0.34 0.23,-0.42 0.34,-0.90 0.34,-1.37 -3.4e-4,-0.53 -0.15,-1.06 -0.15,-1.59 -3.4e-4,-0.78 -0.25,-1.49 -0.5,-2.21 C 28.19,27.45 27.94,27.03 27.75,26.59 27.40,25.82 26.87,25.27 26.12,24.87 25.86,24.73 25.68,24.45 25.46,24.25 c 0.13,0.00 0.23,0.06 0.34,0.09 0.49,0.12 0.87,0.42 1.15,0.81 0.52,0.72 0.98,1.49 1.46,2.25 0.21,0.34 0.41,0.67 0.65,1 0.18,0.24 0.33,0.49 0.34,0.81 0.00,0.06 0.10,0.13 0.15,0.18 0.14,0.14 0.28,0.27 0.40,0.43 0.03,0.04 -0.04,0.17 -0.06,0.28 -0.06,0.51 -0.10,1.02 -0.18,1.53 -0.07,0.45 -0.06,0.94 -0.43,1.31 -0.09,0.09 -0.14,0.25 -0.21,0.37 0.02,0.01 0.06,0.04 0.09,0.06 0.09,-0.13 0.18,-0.27 0.28,-0.40 0.01,0.00 0.01,-0.00 0.03,0 l -0.28,1.37 c 0.02,0.06 0.10,0.16 0.09,0.21 -0.10,0.56 -0.19,1.10 -0.34,1.65 -0.14,0.56 -0.11,0.72 0.37,0.96 0,0.22 -0.03,0.43 0,0.65 0.07,0.46 0.29,0.91 0.21,1.40 -0.00,0.05 0.02,0.12 0.06,0.21 0.04,-0.09 0.07,-0.17 0.12,-0.28 l 0,1.40 c 0.02,-3.06e-4 0.06,3.97e-4 0.09,0 l 0,-0.59 c 0.14,0.41 0.23,0.82 0.31,1.25 0.08,0.45 0.45,0.70 0.71,1.03 0.27,0.34 0.61,0.67 0.65,1.15 0.00,0.06 0.05,0.12 0.09,0.18 0.01,-0.00 0.04,-0.02 0.06,-0.03 -0.00,-0.06 0.00,-0.12 0,-0.18 0.02,-0.00 0.03,-0.02 0.06,-0.03 0.06,0.19 0.09,0.41 0.18,0.59 0.12,0.23 0.27,0.44 0.43,0.65 0.01,0.01 0.10,0.00 0.15,0 0.00,-0.05 0.01,-0.09 0.03,-0.12 0.03,-0.10 0.05,-0.21 0.09,-0.31 0.07,0.03 0.17,0.10 0.25,0.12 0.04,0.01 0.10,-0.04 0.15,-0.06 -0.04,-0.06 -0.07,-0.12 -0.12,-0.18 -0.14,-0.20 -0.32,-0.41 -0.46,-0.62 0.01,-0.01 0.04,-0.04 0.06,-0.06 0.13,0.07 0.27,0.17 0.40,0.25 0.01,-0.02 0.04,-0.07 0.06,-0.09 -0.03,-0.04 -0.07,-0.09 -0.12,-0.12 -0.30,-0.15 -0.59,-0.27 -0.78,-0.62 C 31.92,42.49 31.61,42.24 31.37,41.96 31.11,41.68 31.05,41.40 31.12,41 c 0.08,0.10 0.16,0.22 0.28,0.37 0.02,-0.10 0.03,-0.11 0.03,-0.12 -0.47,-0.52 -0.62,-1.23 -0.78,-1.87 -0.17,-0.70 -0.62,-1.31 -0.56,-2.09 0.01,-0.19 -0.09,-0.33 0.18,-0.34 -0.01,-0.29 -0.01,-0.57 -0.03,-0.84 0.05,0.06 0.09,0.14 0.18,0.25 0.00,-0.11 0,-0.17 0,-0.21 2e-4,-0.39 -0.00,-0.79 0.03,-1.18 0.02,-0.24 0.18,-0.48 0.15,-0.71 -0.08,-0.80 0.32,-1.55 0.34,-2.34 0.01,-0.56 0.07,-1.12 0.06,-1.68 -0.00,-0.26 -0.09,-0.52 -0.15,-0.81 0.13,-0.01 0.25,-0.04 0.37,-0.06 -0.02,-0.10 -0.06,-0.20 -0.09,-0.34 0.15,0.10 0.25,0.17 0.40,0.28 -0.20,-0.30 -0.38,-0.53 -0.53,-0.78 -0.22,-0.38 -0.27,-0.86 -0.59,-1.21 -0.21,-0.23 -0.36,-0.55 -0.53,-0.84 0.03,-0.03 0.09,-0.06 0.12,-0.09 C 29.69,25.95 29.37,25.58 29,25.18 c 0.16,0.04 0.24,0.07 0.40,0.12 -0.07,-0.08 -0.09,-0.14 -0.12,-0.15 C 28.74,25.02 28.42,24.60 28,24.31 c -0.24,-0.17 -0.47,-0.36 -0.71,-0.53 -0.18,-0.12 -0.39,-0.23 -0.56,-0.37 -0.04,-0.03 -0.04,-0.14 -0.06,-0.21 0.06,0.01 0.15,0.01 0.21,0.03 0.07,0.01 0.14,0.03 0.21,0.03 0.08,-0.00 0.16,-0.06 0.21,-0.03 0.22,0.14 0.44,0.31 0.65,0.46 0.38,0.28 0.75,0.58 1.15,0.84 0.85,0.56 1.77,1.01 2.53,1.71 0.05,0.05 0.15,0.11 0.21,0.09 0.30,-0.08 0.37,0.12 0.43,0.34 0.04,0.17 0.11,0.32 0.12,0.5 0.03,0.66 0.06,1.33 0.09,2 0.06,0.06 0.07,0.18 0.03,0.37 -0.06,0.26 -0.10,0.54 -0.15,0.81 -0.01,0.05 0.01,0.12 0.03,0.18 0.01,-0.00 0.01,0.00 0.03,0 0.04,-0.20 0.09,-0.42 0.15,-0.68 l 0,1.62 c 0.05,-0.08 0.08,-0.12 0.12,-0.18 0.01,0.25 0.02,0.51 0.06,0.75 0.03,0.22 -0.13,0.47 0.06,0.75 0.03,-0.14 0.04,-0.23 0.06,-0.31 0.02,-0.00 0.07,0.00 0.09,0 0.02,0.14 0.03,0.26 0.06,0.40 0.01,-7e-4 0.04,6.81e-4 0.06,0 l 0.06,-0.34 c 0.14,0.21 0.21,0.46 0.31,0.68 0.09,0.24 0.24,0.46 0.31,0.71 0.06,0.24 0.08,0.50 0.12,0.75 0.02,-0.00 0.03,-0.02 0.06,-0.03 l 0,-0.34 c 0.02,-0.00 0.06,0.00 0.09,0 0.12,0.54 0.22,1.08 0.34,1.62 0.02,-0.00 0.04,0.00 0.06,0 C 34.51,35.81 34.51,35.63 34.5,35.43 c 0.25,0.48 0.19,1.07 0.62,1.43 0.04,-0.03 0.07,-0.05 0.12,-0.09 0.07,0.17 0.15,0.32 0.21,0.46 0.02,-0.01 0.06,-0.02 0.09,-0.03 -0.01,-0.09 -0.03,-0.19 -0.06,-0.34 0.55,0.43 0.81,1.01 0.96,1.65 0.02,-0.00 0.03,-0.02 0.06,-0.03 0.02,-0.05 0.06,-0.10 0.09,-0.15 0.08,0.13 0.09,0.25 0.12,0.37 0.01,0.06 0.03,0.12 0.06,0.18 0.04,-0.04 0.10,-0.08 0.15,-0.12 0.14,0.20 0.32,0.40 0.15,0.68 -0.02,0.04 0.02,0.20 0.09,0.25 0.05,0.03 0.20,0.01 0.25,-0.03 0.05,-0.04 0.06,-0.16 0.06,-0.25 -0.00,-0.06 -0.06,-0.12 -0.09,-0.18 -0.00,-0.01 -0.01,-0.03 -0.03,-0.06 l 0.21,0 c -0.02,-0.08 -0.05,-0.14 -0.09,-0.28 0.14,0.04 0.25,0.07 0.34,0.09 0.07,0.01 0.15,0.02 0.21,0 0.04,-0.01 0.10,-0.14 0.09,-0.15 -0.04,-0.05 -0.11,-0.09 -0.18,-0.12 -0.08,-0.03 -0.21,-0.00 -0.25,-0.06 -0.21,-0.33 -0.42,-0.67 -0.59,-0.96 0.03,0.01 0.15,0.02 0.25,0.06 l 0,-0.03 C 36.84,37.27 36.29,36.83 35.71,36.37 35.81,36.32 35.87,36.28 35.87,36.28 35.75,36.03 35.63,35.82 35.53,35.59 35.34,35.18 35.19,34.77 35,34.37 c -0.27,-0.55 -0.55,-1.12 -0.96,-1.59 -0.14,-0.16 -0.07,-0.30 0.12,-0.40 0.06,0.11 0.11,0.23 0.18,0.34 0.09,-0.33 -0.30,-0.67 0.03,-0.90 -0.06,-0.32 -0.11,-0.60 -0.15,-0.90 -0.03,-0.26 -0.06,-0.54 -0.09,-0.81 -0.02,-0.21 -0.03,-0.42 -0.06,-0.65 0.08,0.06 0.14,0.09 0.18,0.12 -0.47,-1.48 -0.95,-2.94 -1.43,-4.46 0.14,0.03 0.22,0.03 0.34,0.06 -0.38,-0.29 -0.73,-0.52 -1.03,-0.81 -0.26,-0.25 -0.56,-0.44 -0.87,-0.62 -0.04,-0.02 -0.12,-0.06 -0.12,-0.09 -0.03,-0.24 -0.24,-0.26 -0.40,-0.34 -0.34,-0.17 -0.69,-0.37 -1.06,-0.5 C 29.00,22.56 28.33,22.44 27.68,22.21 27.42,22.12 27.19,21.86 26.96,21.68 26.94,21.67 26.94,21.65 26.93,21.62 26.90,21.44 26.90,21.24 26.87,21.03 27.03,21.02 27.17,21.02 27.31,21 c 0.07,-0.01 0.20,-0.04 0.21,-0.09 0.10,-0.32 0.40,-0.34 0.62,-0.31 0.46,0.05 0.81,-0.14 1.12,-0.40 0.50,-0.44 0.98,-0.93 1.46,-1.40 -0.00,-0.01 -0.02,-0.04 -0.03,-0.06 -0.11,0.06 -0.22,0.12 -0.34,0.18 -0.01,-0.02 -0.04,-0.03 -0.06,-0.06 L 30.84,18.37 c -0.12,-0.03 -0.15,-0.04 -0.21,-0.06 0.54,-0.70 0.76,-1.58 1.5,-2.15 -0.19,-0.11 -0.30,-0.28 -0.18,-0.5 0.27,-0.52 0.34,-1.08 0.37,-1.65 0.02,-0.46 -0.01,-0.94 0,-1.40 0.01,-0.61 0.04,-1.22 0.06,-1.84 0.00,-0.08 0.01,-0.16 -0.03,-0.21 -0.13,-0.14 -0.07,-0.24 0,-0.37 C 32.50,9.89 32.66,9.61 32.81,9.34 33.14,8.73 33.46,8.11 33.78,7.5 33.97,7.13 34.18,6.77 34.37,6.40 34.51,6.13 34.60,5.79 34.81,5.59 35.28,5.13 35.83,4.74 36.34,4.31 36.41,4.25 36.49,4.16 36.5,4.09 c 0.00,-0.18 0.04,-0.23 0.25,-0.18 0.05,0.01 0.14,-0.12 0.21,-0.18 -0.06,-0.04 -0.12,-0.07 -0.18,-0.12 -0.14,-0.11 -0.30,-0.21 -0.5,-0.37 C 36.22,3.32 36.14,3.46 36.06,3.62 35.98,3.57 35.93,3.53 35.87,3.5 c -0.01,0.06 -0.00,0.12 -0.03,0.18 -0.03,0.08 -0.06,0.18 -0.12,0.25 -0.20,0.20 -0.42,0.38 -0.62,0.59 -0.21,0.23 -0.43,0.49 -0.62,0.75 -0.15,0.19 -0.46,0.22 -0.5,0.53 -3.41e-4,0.00 -0.15,-0.01 -0.31,-0.03 -0.09,0.12 -0.24,0.31 -0.37,0.5 -0.07,0.10 -0.13,0.22 -0.18,0.34 -0.09,0.21 -0.29,0.35 -0.31,0.62 C 32.77,7.39 32.60,7.51 32.5,7.65 32.47,7.68 32.44,7.71 32.43,7.75 c -0.24,0.72 -0.51,1.46 -0.75,2.18 -0.06,0.20 -0.27,0.34 -0.46,0.31 -0.06,0.40 -0.24,0.77 -0.15,1.21 0.11,0.60 -0.14,1.22 -0.09,1.84 0.02,0.30 0.05,0.61 0.15,0.90 0.02,0.06 0.04,0.12 0.06,0.21 -0.07,-0.05 -0.12,-0.07 -0.25,-0.15 0.10,0.29 0.17,0.52 0.25,0.75 0.08,0.24 0.05,0.43 -0.21,0.56 -0.16,0.07 -0.33,0.19 -0.43,0.34 -0.48,0.68 -0.94,1.36 -1.40,2.06 -0.36,0.54 -0.70,1.13 -1.28,1.5 -0.04,0.02 -0.07,0.03 -0.12,0.06 -0.00,-0.07 0.00,-0.09 0.03,-0.12 0.28,-0.34 0.61,-0.65 0.84,-1.03 0.35,-0.58 0.36,-1.27 0.40,-1.93 0.04,-0.60 -0.15,-1.23 0.15,-1.81 0.02,-0.04 0.02,-0.10 0,-0.15 -0.15,-0.36 -0.11,-0.69 0.06,-1.03 C 29.25,13.40 29.24,13.32 29.25,13.25 l -0.09,-0.03 c -0.05,0.12 -0.10,0.24 -0.15,0.37 -0.05,0.14 -0.10,0.27 -0.31,0.15 0.15,-0.41 -0.09,-0.74 -0.25,-1.09 C 28.21,12.14 27.84,11.69 27.75,11.12 27.74,11.07 27.71,11.01 27.68,10.96 27.53,10.68 27.34,10.41 27.21,10.12 27.17,10.02 27.19,9.86 27.25,9.78 27.62,9.26 27.76,8.64 27.96,8.06 28.16,7.48 28.31,6.89 28.87,6.53 28.94,6.48 28.95,6.36 29,6.28 L 28.93,6.25 c -0.09,0.08 -0.16,0.17 -0.28,0.28 -0.02,-0.18 -0.12,-0.36 -0.06,-0.46 0.13,-0.23 0.38,-0.41 0.56,-0.62 0.03,-0.04 0.10,-0.13 0.09,-0.15 -0.08,-0.19 0.06,-0.19 0.18,-0.25 0.25,-0.12 0.47,-0.26 0.71,-0.40 -0.01,-0.02 0.01,-0.03 0,-0.06 -0.14,0.04 -0.29,0.07 -0.43,0.12 0.09,-0.12 0.20,-0.20 0.31,-0.31 0.13,-0.13 0.25,-0.28 0.37,-0.43 C 30.50,3.81 30.53,3.63 30.75,3.65 30.80,3.66 30.84,3.56 30.90,3.5 30.51,3.53 30.23,3.17 30.34,2.81 30.13,2.76 30.07,2.82 30.06,3 30.04,3.32 29.84,3.49 29.59,3.46 29.27,3.95 28.96,4.42 28.65,4.90 28.68,4.62 28.72,4.36 28.75,4.12 c -0.03,-0.00 -0.08,0.00 -0.12,0 -0.01,0.13 -0.00,0.24 -0.03,0.37 -0.04,0.21 -0.08,0.46 -0.18,0.65 -0.30,0.55 -0.68,1.06 -0.96,1.62 C 27.20,7.24 27.10,7.77 26.90,8.25 26.64,8.88 26.50,9.53 26.62,10.31 26.46,10.17 26.34,10.10 26.21,10 c 0.02,0.22 0.04,0.38 0.06,0.59 -0.14,-0.01 -0.27,-0.04 -0.46,-0.06 0.08,0.09 0.14,0.14 0.18,0.18 0.11,0.12 0.22,0.23 0.31,0.37 0.27,0.43 0.52,0.88 0.81,1.31 0.17,0.25 0.42,0.45 0.62,0.68 0.10,0.12 0.19,0.29 0.28,0.43 -0.02,0.01 -0.03,0.01 -0.06,0.03 -0.05,-0.06 -0.12,-0.12 -0.15,-0.15 -0.05,0.40 -0.12,0.83 -0.18,1.31 -0.07,-0.15 -0.10,-0.27 -0.15,-0.37 -0.05,0.10 -0.04,0.18 -0.03,0.28 0.03,0.19 0.11,0.40 0.12,0.59 0.01,0.51 0.05,1.02 0,1.53 -0.04,0.48 -0.15,0.99 -0.34,1.43 -0.16,0.39 -0.49,0.70 -0.75,1.06 0.04,-0.64 0.54,-1.13 0.37,-1.81 -0.03,0.12 -0.05,0.25 -0.09,0.40 -0.24,-0.23 -0.19,-0.48 -0.15,-0.71 0.00,-0.03 0.10,-0.06 0.15,-0.09 0.02,0.05 0.04,0.09 0.06,0.15 0.01,0.05 0.02,0.11 0.03,0.21 0.17,-0.32 0.08,-0.67 -0.15,-0.87 -0.27,-0.22 -0.70,-0.22 -0.96,0 -0.10,0.08 -0.22,0.16 -0.28,0.28 -0.09,0.19 -0.18,0.35 -0.43,0.31 -0.04,-0.00 -0.10,0.03 -0.15,0.06 L 24.68,17 c -0.03,0.08 -0.03,0.14 0,0.18 0.10,0.13 0.05,0.24 -0.06,0.31 -0.06,0.03 -0.14,0.02 -0.21,0.03 -0.00,-0.10 -0.03,-0.21 -0.03,-0.31 0.01,-0.12 0.03,-0.25 0.06,-0.37 -0.02,-0.00 -0.03,-0.02 -0.06,-0.03 -0.06,0.16 -0.12,0.36 -0.18,0.53 -0.03,-0.00 -0.06,-0.02 -0.09,-0.03 0.02,-0.19 0.03,-0.40 0.06,-0.59 -0.02,-0.01 -0.06,-0.01 -0.09,-0.03 -0.11,0.14 -0.22,0.30 -0.31,0.40 -0.13,-0.14 -0.26,-0.30 -0.40,-0.46 -0.21,0.46 -0.20,0.45 -0.59,0.31 0.04,0.12 0.09,0.22 0.12,0.31 -0.09,0.11 -0.18,0.23 -0.28,0.34 l -0.06,-0.06 0.12,-0.5 c -0.02,-0.07 -0.09,-0.21 -0.15,-0.37 0.25,0.03 0.49,0.06 0.71,0.09 -0.00,-0.06 -0.02,-0.08 -0.03,-0.09 -0.18,-0.19 -1.01,-0.20 -1.18,0 -0.03,0.03 -0.05,0.10 -0.06,0.15 -0.00,0.14 -0.01,0.31 0.03,0.43 0.26,0.63 0.24,1.36 0.68,1.93 0.01,0.02 -0.00,0.05 0,0.09 -0.22,-0.26 -0.42,-0.54 -0.56,-0.84 -0.09,-0.20 -0.10,-0.43 -0.15,-0.65 -0.10,-0.49 -0.21,-0.97 -0.28,-1.46 -0.06,-0.45 -0.06,-0.91 -0.09,-1.37 -0.03,-0.49 -0.08,-1.00 -0.12,-1.5 -0.00,-0.04 -0.01,-0.08 -0.03,-0.12 -0.01,0.00 -0.04,-0.00 -0.06,0 -0.01,0.10 -0.03,0.20 -0.06,0.34 -0.18,-0.27 -0.00,-0.44 0.09,-0.62 0.42,-0.79 0.89,-1.57 1.31,-2.37 0.24,-0.45 0.20,-0.50 -0.06,-0.78 -0.04,0.06 -0.07,0.11 -0.12,0.18 -0.42,-1.17 -0.86,-2.31 -1.28,-3.46 -0.01,0.00 -0.01,-0.00 -0.03,0 l 0,0.31 c -0.02,0.00 -0.04,0.02 -0.06,0.03 -0.10,-0.24 -0.20,-0.49 -0.31,-0.75 -0.02,0.02 -0.07,0.03 -0.12,0.09 -0.04,-0.15 -0.08,-0.29 -0.12,-0.43 L 20.5,5.90 C 20.40,5.87 20.28,5.87 20.25,5.81 20.04,5.41 19.85,5.00 19.65,4.59 19.54,4.36 19.42,4.12 19.31,3.90 c -0.02,0.01 -0.06,0.04 -0.09,0.06 0.05,0.14 0.13,0.29 0.18,0.43 C 19.00,3.70 18.44,3.14 17.84,2.56 z m 12.18,23.75 c 0.13,0.18 0.24,0.37 0.37,0.56 0.02,-0.02 0.06,-0.06 0.09,-0.09 -0.14,-0.15 -0.32,-0.31 -0.46,-0.46 z M 18,3.15 c 0.03,0.00 0.09,0.02 0.12,0.06 0.20,0.28 0.39,0.55 0.59,0.84 0.06,0.09 0.17,0.16 0.25,0.25 0.22,0.24 0.44,0.48 0.65,0.75 0.12,0.15 0.25,0.35 0.34,0.53 0.03,0.07 -0.00,0.15 0,0.25 -0.08,-0.01 -0.18,0.01 -0.25,-0.03 -0.37,-0.26 -0.65,-0.62 -0.90,-1 C 18.71,4.66 18.47,4.60 18.59,4.34 18.47,4.26 18.29,4.23 18.21,4.12 18.07,3.92 17.96,3.66 17.84,3.43 17.86,3.42 17.91,3.42 17.93,3.40 c 0.21,0.31 0.44,0.62 0.65,0.93 0.00,-0.07 0.03,-0.16 0,-0.21 C 18.40,3.80 18.20,3.48 18,3.15 z M 30.28,3.37 c 0.13,0.18 0.09,0.30 -0.03,0.43 -0.32,0.35 -0.67,0.73 -1,1.09 -0.24,0.26 -0.47,0.51 -0.71,0.78 0.30,-0.97 0.92,-1.70 1.75,-2.31 z M 36.37,3.59 C 36.38,3.85 35.79,4.36 35.53,4.37 35.80,4.11 36.07,3.87 36.37,3.59 z M 13.40,4.25 c 0.47,0.36 0.76,0.86 1,1.40 -0.38,-0.42 -0.95,-0.73 -1,-1.40 z m 21.81,0.40 c 0.11,0.03 0.19,0.04 0.25,0.06 -0.09,0.04 -0.10,0.25 -0.37,0.25 -0.13,-0.00 -0.27,0.25 -0.40,0.40 -0.07,0.08 -0.17,0.18 -0.25,0.28 C 34.40,5.62 34.40,5.58 34.37,5.56 34.67,5.23 34.96,4.93 35.21,4.65 z M 14.59,5.75 c 0.02,0.00 0.06,-0.00 0.09,0 0.14,0.25 0.28,0.51 0.46,0.84 -0.33,-0.10 -0.51,-0.30 -0.62,-0.53 -0.03,-0.07 0.03,-0.20 0.06,-0.31 z m 19.12,0.31 c 0.23,-0.01 0.15,0.14 0.12,0.25 -0.07,0.26 -0.16,0.52 -0.25,0.78 C 33.62,7.10 33.65,7.11 33.68,7.12 33.79,6.83 33.88,6.54 34,6.21 c 0.16,0.25 0.10,0.46 -0.03,0.68 -0.34,0.57 -0.67,1.16 -1,1.75 -0.26,0.47 -0.49,0.95 -0.75,1.43 -0.03,0.06 -0.12,0.10 -0.21,0.18 -0.04,-0.24 -0.05,-0.43 -0.09,-0.62 0.03,0.00 0.05,0.02 0.09,0.03 0.05,-0.09 0.15,-0.21 0.15,-0.31 0.03,-0.60 0.26,-1.10 0.56,-1.62 0.16,-0.28 0.28,-0.61 0.43,-0.90 C 33.27,6.61 33.40,6.39 33.56,6.12 33.53,6.27 33.51,6.39 33.5,6.5 c 0.02,0.00 0.03,0.02 0.06,0.03 0.05,-0.14 0.10,-0.30 0.15,-0.46 z M 20,6.12 c 0.12,0.03 0.30,0.01 0.37,0.09 0.20,0.23 0.42,0.49 0.53,0.78 0.10,0.27 0.36,0.37 0.46,0.62 0.08,0.20 0.27,0.39 0.15,0.65 -0.01,0.02 0.11,0.10 0.15,0.15 0.03,0.03 0.04,0.07 0.06,0.12 0.12,0.34 0.25,0.68 0.37,1.03 0.06,0.19 -0.04,0.30 -0.21,0.34 -0.04,0.01 -0.12,-0.07 -0.18,-0.12 0.17,-0.13 -0.00,-0.19 -0.06,-0.28 -0.16,-0.24 -0.30,-0.50 -0.46,-0.75 L 21.25,8.75 c 0.06,0.07 0.12,0.14 0.18,0.21 C 21.46,8.94 21.47,8.92 21.5,8.90 21.36,8.74 21.26,8.59 21.12,8.43 21.06,8.36 20.94,8.32 20.90,8.25 20.59,7.64 20.28,7.05 20,6.43 19.96,6.35 19.99,6.22 20,6.12 z m 8.12,0 c 0.38,0.12 0.40,0.21 0.18,0.56 -0.21,0.35 -0.41,0.71 -0.62,1.06 0.02,0.01 0.03,0.04 0.06,0.06 l 0.15,-0.21 c 0.01,0.00 0.04,-0.00 0.06,0 -0.15,0.43 -0.30,0.88 -0.46,1.31 -0.16,0.41 -0.34,0.82 -0.53,1.25 C 26.73,10.13 26.65,9.99 26.71,9.62 26.88,8.67 27.23,7.78 27.62,6.90 27.99,6.78 27.78,6.26 28.12,6.12 z M 20.28,6.65 20.18,6.71 C 20.33,6.90 20.47,7.12 20.62,7.31 20.65,7.29 20.69,7.27 20.71,7.25 20.57,7.05 20.42,6.84 20.28,6.65 z M 15.37,6.81 c 0.07,0.07 0.12,0.15 0.18,0.21 -0.01,0.01 -0.01,0.04 -0.03,0.06 -0.03,-0.02 -0.09,-0.05 -0.21,-0.12 0.13,0.26 0.26,0.46 0.37,0.68 0.04,-0.04 0.06,-0.07 0.12,-0.12 0.17,0.27 0.32,0.53 0.5,0.81 0.21,0.33 0.43,0.67 0.65,1 0.27,0.41 0.48,0.83 0.43,1.37 l -0.62,-0.75 c 0.01,-0.01 0.01,-0.04 0.03,-0.06 0.08,0.05 0.19,0.10 0.28,0.15 0.02,-0.01 0.04,-0.01 0.06,-0.03 -0.49,-0.37 -0.90,-0.83 -1.12,-1.46 0.08,0.07 0.12,0.13 0.18,0.18 C 16.23,8.71 16.25,8.66 16.25,8.65 16.06,8.41 15.86,8.21 15.68,7.96 15.47,7.66 15.17,7.36 15.25,6.93 c 0.00,-0.02 0.07,-0.06 0.12,-0.12 z m 6.96,3.34 c 0.30,0.49 -0.07,0.79 -0.21,1.12 -0.11,0.28 -0.33,0.53 -0.46,0.81 C 21.41,12.58 21.21,13.06 21,13.56 c -0.05,0.13 -0.10,0.25 -0.28,0.12 -0.01,0.10 -0.04,0.19 -0.06,0.28 -0.02,-0.00 -0.03,0.00 -0.06,0 -0.07,-0.68 0.20,-1.30 0.46,-1.90 -0.04,0.18 -0.08,0.40 -0.12,0.59 0.03,0.00 0.06,-0.00 0.09,0 0.10,-0.30 0.21,-0.60 0.31,-0.90 -0.01,-0.00 -0.04,0.00 -0.06,0 0.02,-0.02 0.04,-0.03 0.06,-0.06 0.04,-0.05 0.08,-0.12 0.09,-0.18 0.09,-0.40 0.15,-0.80 0.5,-1.09 0.12,-0.10 0.27,-0.17 0.40,-0.25 z M 26.75,10.31 c 0.19,0.14 0.40,0.26 0.59,0.40 -0.00,0.01 -0.02,0.04 -0.03,0.06 -0.04,-0.00 -0.08,-0.02 -0.15,-0.03 0.12,0.30 0.22,0.59 0.34,0.87 0.01,-0.00 0.04,0.00 0.06,0 C 27.54,11.51 27.51,11.38 27.5,11.28 l 0.03,0 c 0.32,0.67 0.69,1.34 1,2.03 0.06,0.13 -0.01,0.34 -0.03,0.53 -0.22,-0.12 -0.37,-0.22 -0.40,-0.5 -0.02,-0.18 -0.21,-0.37 -0.34,-0.53 -0.17,-0.20 -0.35,-0.38 -0.53,-0.59 -0.06,-0.07 -0.10,-0.16 -0.18,-0.31 0.13,0.05 0.20,0.08 0.31,0.12 -0.26,-0.29 -0.50,-0.55 -0.75,-0.81 0.01,-0.01 0.01,-0.04 0.03,-0.06 0.05,0.02 0.11,0.04 0.21,0.09 -0.16,-0.22 -0.30,-0.40 -0.43,-0.59 0.04,-0.03 0.08,-0.05 0.12,-0.09 0.09,0.14 0.18,0.28 0.28,0.43 0.02,-0.02 0.03,-0.04 0.06,-0.06 -0.03,-0.20 -0.42,-0.32 -0.12,-0.62 z m -4.5,0.09 c -0.36,0.22 -0.66,0.81 -0.56,1.03 L 22.25,10.40 z m 9.25,0.06 c 0.00,0.14 0.02,0.26 0.03,0.40 0.01,0.00 0.04,-0.00 0.06,0 0.02,-0.13 0.03,-0.24 0.06,-0.37 L 31.75,10.46 c 0.06,0.14 0.12,0.29 0.18,0.43 0.02,0.06 0.04,0.11 0.06,0.18 0.01,0.07 0.05,0.17 0.03,0.25 -0.06,0.23 -0.14,0.45 -0.21,0.68 0.02,0.01 0.06,0.02 0.09,0.03 0.03,-0.06 0.05,-0.12 0.09,-0.18 0.02,0.00 0.06,-0.00 0.09,0 -0.03,0.45 -0.09,0.92 -0.12,1.37 -0.00,0.12 0.07,0.25 0.06,0.37 -0.04,0.59 -0.11,1.18 -0.18,1.78 -0.00,0.08 -0.05,0.16 -0.12,0.21 -0.06,0.05 -0.22,0.12 -0.28,0.09 -0.09,-0.05 -0.14,-0.09 -0.06,-0.28 0.11,-0.25 0.18,-0.65 0.06,-0.87 -0.35,-0.61 -0.15,-1.27 -0.21,-1.90 0.07,0.24 0.14,0.50 0.21,0.75 l 0.12,-0.03 c -0.08,-0.36 -0.18,-0.72 -0.28,-1.12 0.05,0.05 0.09,0.08 0.12,0.12 0.19,-0.63 -0.33,-1.29 0.09,-1.90 z m -13.65,0.37 c 0.13,0.40 0.22,0.81 0.09,1.25 -0.06,0.21 0.08,0.45 0.06,0.68 -0.03,0.48 -0.12,0.96 -0.15,1.43 0.00,0.07 -0.00,0.14 0,0.21 0.00,0.42 -0.15,0.86 0.15,1.28 -0.18,0.14 -0.40,0.18 -0.5,-0.03 -0.13,-0.30 -0.33,-0.71 -0.25,-0.96 0.18,-0.56 0.01,-1.05 0.03,-1.59 0.00,-0.31 0.05,-0.65 0.06,-0.96 0.00,-0.24 -0.05,-0.47 -0.06,-0.71 -0.00,-0.10 0.04,-0.20 0.06,-0.31 0.02,0.00 0.06,-0.00 0.09,0 0.01,0.18 0.02,0.37 0.03,0.56 0.03,-0.00 0.03,10e-4 0.06,0 l 0,-0.71 c 0.08,-0.03 0.19,-0.07 0.31,-0.12 z m 0,3.59 c -0.02,-0.03 -0.06,-0.08 -0.09,-0.12 -0.07,0.11 -0.12,0.21 -0.18,0.31 -0.02,-0.00 -0.03,0.00 -0.06,0 0.04,0.18 0.05,0.36 0.09,0.56 0.08,-0.26 0.17,-0.51 0.25,-0.75 z m 10.18,-0.65 c 0.03,0.14 0.05,0.24 0.06,0.28 0.14,0.02 0.25,0.02 0.37,0.06 0.14,0.04 0.11,0.14 0.12,0.28 0.01,0.18 0.13,0.37 0.15,0.56 0.02,0.21 -0.01,0.43 -0.03,0.65 -0.00,0.08 -0.01,0.16 -0.03,0.25 -0.05,0.08 -0.12,0.15 -0.15,0.25 -0.08,0.25 -0.17,0.49 -0.25,0.75 -0.01,0.05 -0.02,0.13 -0.03,0.18 0.02,0.00 0.06,-0.00 0.09,0 0.11,-0.39 0.25,-0.79 0.37,-1.18 0.01,0.27 0.02,0.56 0.03,0.84 0.00,0.06 -0.06,0.12 -0.06,0.18 0.04,0.59 -0.17,1.09 -0.43,1.59 -0.08,0.16 -0.31,0.27 -0.46,0.40 -0.09,-0.17 -0.23,-0.32 -0.25,-0.5 -0.02,-0.28 -0.00,-0.59 0.06,-0.87 0.20,-0.78 0.17,-1.57 0.18,-2.37 0.00,-0.15 -0.10,-0.36 0.15,-0.43 0.00,-0.00 0.00,-0.05 0,-0.06 -0.16,-0.28 0.03,-0.54 0.09,-0.87 z m -6.93,0.12 c 0.04,0.12 0.13,0.24 0.15,0.37 0.03,0.21 -0.03,0.47 0.06,0.65 0.27,0.53 0.03,1.09 0.12,1.62 0.03,0.22 0.08,0.43 0.12,0.65 0.08,0.42 0.18,0.84 0.25,1.28 0.01,0.09 -0.07,0.25 -0.15,0.28 -0.10,0.03 -0.32,-0.01 -0.37,-0.09 -0.29,-0.44 -0.56,-0.89 -0.53,-1.46 0.00,-0.03 -0.01,-0.06 -0.03,-0.09 -0.21,-0.34 -0.19,-0.71 -0.18,-1.09 0.00,-0.22 -0.00,-0.45 -0.03,-0.68 0.10,0.06 0.16,0.08 0.21,0.12 -0.24,-0.41 -0.23,-0.84 -0.25,-1.31 0.14,0.00 0.24,0.02 0.31,0.03 0.11,-0.10 0.21,-0.19 0.31,-0.28 z m -0.56,2.12 c 0.12,0.31 0.25,0.62 0.37,0.93 C 20.93,16.95 20.96,16.95 21,16.93 L 20.65,16 c -0.03,0.01 -0.09,0.01 -0.12,0.03 z M 28.31,14.75 28.21,14.78 c 0.01,0.29 0.01,0.55 0.03,0.84 0.03,-9e-4 0.08,9.08e-4 0.12,0 -0.01,-0.29 -0.04,-0.58 -0.06,-0.87 z m -0.43,0.09 c 0.02,0.26 0.06,0.51 0.09,0.78 0.03,-0.00 0.06,0.00 0.09,0 -0.02,-0.26 -0.06,-0.51 -0.09,-0.78 -0.03,0.00 -0.05,-0.00 -0.09,0 z M 18.21,15.62 c 0.86,0.78 1.26,1.84 1.84,2.78 0.19,0.31 0.45,0.59 0.65,0.90 0.18,0.29 0.34,0.59 0.5,0.90 0.01,0.02 -0.03,0.09 -0.06,0.12 -0.13,0.15 -0.50,0.25 -0.65,0.12 C 20.12,20.14 19.74,19.81 19.43,19.43 19.14,19.07 18.96,18.64 18.71,18.25 18.32,17.60 17.91,16.95 17.5,16.28 c 0.08,0.01 0.14,0.01 0.28,0.03 -0.14,-0.10 -0.20,-0.18 -0.37,-0.31 0.43,0.10 0.68,0.00 0.81,-0.37 z m 12.81,0.06 c 0.41,0.49 -0.26,0.69 -0.25,1.15 0.19,-0.29 0.36,-0.53 0.53,-0.78 l 0.37,0.12 c 0.00,0.01 0.03,0.02 0.03,0.03 -0.33,0.47 -0.69,0.95 -1.03,1.43 -0.04,0.07 0.01,0.21 -0.03,0.28 -0.30,0.37 -0.37,0.89 -0.78,1.21 -0.14,0.11 -0.20,0.36 -0.34,0.5 -0.24,0.23 -0.54,0.44 -0.81,0.65 -0.20,0.16 -0.44,0.11 -0.59,-0.03 -0.12,-0.11 -0.15,-0.34 -0.18,-0.53 -0.01,-0.05 0.09,-0.15 0.15,-0.21 0.32,-0.38 0.67,-0.75 0.96,-1.15 0.63,-0.85 1.22,-1.72 1.84,-2.59 0.02,-0.02 0.06,-0.03 0.12,-0.09 z M 28,16.31 c -0.00,0.19 -0.02,0.40 -0.03,0.59 0.03,7e-4 0.06,-7.38e-4 0.09,0 l 0,-0.59 c -0.02,-4.35e-4 -0.03,4.54e-4 -0.06,0 z m -10.09,0.09 c -0.02,0.02 -0.06,0.03 -0.09,0.06 0.15,0.17 0.34,0.35 0.5,0.53 0.02,-0.02 0.03,-0.03 0.06,-0.06 -0.15,-0.17 -0.30,-0.35 -0.46,-0.53 z m 8.15,0.12 c 0.27,-0.05 0.53,0.06 0.65,0.34 -0.17,-0.00 -0.31,0.00 -0.46,0 -0.07,0.16 0.35,0.18 0.15,0.37 -0.12,-0.05 -0.24,-0.10 -0.37,-0.15 0.01,-0.04 0.05,-0.15 0.09,-0.25 -0.02,-0.01 -0.04,-0.01 -0.06,-0.03 -0.07,0.08 -0.15,0.14 -0.25,0.25 -0.01,-0.15 -0.01,-0.27 -0.03,-0.40 0.09,-0.05 0.18,-0.10 0.28,-0.12 z m -3.81,0.25 c 0.05,0.09 0.18,0.18 0.18,0.28 0.01,0.40 0,0.79 0,1.21 -0.11,-0.42 -0.25,-0.83 -0.34,-1.25 -0.01,-0.07 0.09,-0.16 0.15,-0.25 z m -3.21,0.18 c -0.03,0.02 -0.06,0.03 -0.09,0.06 l 0.56,0.81 c 0.03,-0.02 0.06,-0.04 0.09,-0.06 -0.19,-0.27 -0.37,-0.53 -0.56,-0.81 z m 8.90,0.06 c -0.03,0.26 -0.08,0.54 -0.12,0.81 0.03,0.00 0.08,-0.00 0.12,0 0.03,-0.26 0.05,-0.54 0.09,-0.81 -0.03,-0.00 -0.05,0.00 -0.09,0 z m 0.53,0.37 c -0.10,0.27 -0.20,0.53 -0.31,0.81 0.03,0.01 0.06,0.04 0.09,0.06 0.10,-0.27 0.23,-0.57 0.34,-0.84 -0.03,-0.01 -0.09,-0.01 -0.12,-0.03 z m 1.87,0.25 c -0.14,0.19 -0.28,0.39 -0.43,0.59 0.03,0.02 0.06,0.06 0.09,0.09 0.14,-0.19 0.29,-0.39 0.43,-0.59 -0.03,-0.02 -0.06,-0.06 -0.09,-0.09 z m -11.56,0.03 c 0.23,0.37 0.43,0.73 0.65,1.09 C 19.45,18.76 19.47,18.76 19.5,18.75 19.38,18.33 19.00,17.74 18.78,17.68 z m 4.87,0 c 0.04,-0.00 0.10,0.01 0.15,0.03 0.36,0.13 0.70,0.01 1.06,-0.03 0.08,-0.01 0.16,0.01 0.25,0 0.57,-0.07 0.80,0.21 0.84,0.84 0.01,0.24 0.07,0.50 0.12,0.75 0.08,0.44 0.14,0.87 0.25,1.31 0.05,0.23 0.21,0.46 0.31,0.68 0.18,0.44 0.15,0.92 0,1.34 -0.17,0.49 -0.47,0.93 -1,1.15 -0.10,0.04 -0.25,0.02 -0.37,0.03 -0.00,0.00 0.00,0.02 0,0.03 -0.15,-0.03 -0.31,-0.06 -0.46,-0.09 -0.29,-0.05 -0.59,-0.08 -0.84,0.15 -0.04,0.04 -0.13,0.03 -0.21,0.03 -0.67,-0.06 -1.08,-0.42 -1.34,-1.06 -0.23,-0.57 -0.31,-1.11 -0.12,-1.68 0.10,-0.33 0.34,-0.63 0.43,-0.96 C 22.82,19.82 22.83,19.40 22.87,19 c 0.03,-0.41 0.13,-0.78 0.43,-1.09 0.11,-0.11 0.20,-0.21 0.34,-0.21 z m 1.43,0.12 c -0.06,-0.00 -0.11,0.00 -0.15,0.03 -0.08,0.05 -0.15,0.20 -0.15,0.31 0.00,0.16 0.12,0.35 0.09,0.5 -0.06,0.29 0.20,0.36 0.28,0.56 0.00,0.01 0.05,0.01 0.06,0 0.09,-0.13 0.24,-0.25 0.28,-0.40 0.04,-0.18 0,-0.39 0,-0.59 -0.04,0.00 -0.08,-0.00 -0.09,0 -0.05,-0.14 -0.07,-0.27 -0.15,-0.34 -0.03,-0.03 -0.09,-0.05 -0.15,-0.06 z m 4.43,0.03 c -0.12,0.20 -0.24,0.41 -0.37,0.62 0.03,0.01 0.05,0.04 0.09,0.06 0.12,-0.20 0.25,-0.41 0.37,-0.62 -0.02,-0.01 -0.06,-0.04 -0.09,-0.06 z m -5.68,0.03 c -0.06,-0.00 -0.19,0.09 -0.18,0.15 0.00,0.07 0.13,0.14 0.25,0.28 0.10,-0.14 0.20,-0.23 0.18,-0.28 -0.02,-0.07 -0.16,-0.15 -0.25,-0.15 z m 0.53,0.06 c -0.06,0.05 -0.19,0.13 -0.18,0.18 0.01,0.18 0.06,0.36 0.12,0.62 0.05,-0.29 0.08,-0.53 0.12,-0.75 -0.02,-0.02 -0.04,-0.04 -0.06,-0.06 z M 19.43,18 c -0.02,0.01 -0.06,0.04 -0.09,0.06 0.15,0.25 0.31,0.49 0.46,0.75 0.02,-0.01 0.06,-0.04 0.09,-0.06 C 19.75,18.49 19.58,18.25 19.43,18 z m 4.31,0.43 c -0.03,0.00 -0.02,0.11 -0.06,0.12 -0.19,0.04 -0.30,0.18 -0.18,0.31 0.11,0.12 0.34,0.21 0.5,0.18 0.24,-0.03 0.26,-0.27 0.12,-0.56 -0.04,0.06 -0.10,0.12 -0.15,0.18 -0.01,-0.07 -0.02,-0.16 -0.06,-0.21 C 23.87,18.43 23.80,18.42 23.75,18.43 z m 3.46,0.15 c 0.14,0.19 0.27,0.36 0.46,0.62 -0.15,-0.04 -0.25,-0.06 -0.34,-0.09 0.06,-0.19 -0.35,-0.27 -0.12,-0.53 z m -5.18,0.18 c 0.15,0.19 -0.05,0.32 -0.18,0.40 -0.10,0.05 -0.29,-0.01 -0.43,-0.03 0.00,-0.02 -0.00,-0.03 0,-0.06 0.19,-0.10 0.41,-0.19 0.62,-0.31 z m 7.03,0.06 c -0.15,0.21 -0.31,0.43 -0.46,0.65 0.02,0.01 0.06,0.01 0.09,0.03 0.15,-0.21 0.31,-0.40 0.46,-0.62 -0.02,-0.02 -0.06,-0.04 -0.09,-0.06 z m 0.71,0.03 c -0.43,0.39 -0.87,0.79 -1.37,1.25 0.62,-0.30 1.05,-0.72 1.37,-1.25 z M 27,18.90 c 0.06,0.20 0.10,0.36 0.15,0.53 -0.02,0.01 -0.04,0.01 -0.06,0.03 -0.13,-0.09 -0.25,-0.17 -0.40,-0.28 0.08,-0.07 0.17,-0.16 0.31,-0.28 z m -6.93,0.03 c -0.03,0.01 -0.06,0.01 -0.09,0.03 0.18,0.29 0.34,0.60 0.53,0.90 0.03,-0.02 0.09,-0.04 0.12,-0.06 -0.18,-0.29 -0.37,-0.58 -0.56,-0.87 z M 19.46,19 c -0.02,0.02 -0.03,0.04 -0.06,0.06 0.17,0.24 0.32,0.50 0.5,0.75 L 20,19.75 C 19.82,19.50 19.63,19.24 19.46,19 z m 2.75,0.12 c 0.34,0.19 0.46,0.59 0.28,1 -0.23,-0.17 -0.44,-0.34 -0.68,-0.53 0.16,-0.18 0.28,-0.33 0.40,-0.46 z m 5.34,0.62 0.15,0.56 c -0.04,0.01 -0.07,0.01 -0.12,0.03 -0.04,-0.18 -0.10,-0.37 -0.15,-0.56 0.04,-0.01 0.08,-0.01 0.12,-0.03 z m -0.37,0.21 c 0.05,0.23 0.11,0.46 0.18,0.75 -0.37,-0.27 -0.45,-0.63 -0.18,-0.75 z M 21.5,20.18 c 0.02,0.54 -0.15,0.73 -0.5,0.56 0.17,-0.19 0.33,-0.37 0.5,-0.56 z m 0.34,0.09 c 0.16,0.09 0.30,0.29 0.31,0.5 0.00,0.13 -0.12,0.36 -0.25,0.40 -0.11,0.04 -0.31,-0.10 -0.43,-0.15 0.13,-0.28 0.25,-0.49 0.37,-0.75 z m 0.12,1.65 c 0.06,0.33 0.14,0.61 0.15,0.90 0.00,0.11 -0.14,0.23 -0.25,0.40 -0.18,-0.36 -0.31,-0.59 -0.43,-0.87 -0.02,-0.05 0.03,-0.20 0.09,-0.25 0.12,-0.08 0.27,-0.11 0.43,-0.18 z m 5.87,0.53 c 0.00,0.02 0.02,0.06 0.03,0.09 -0.10,0.13 -0.21,0.24 -0.31,0.37 -0.02,-0.00 -0.06,0.00 -0.09,0 0.02,-0.12 0.02,-0.26 0.09,-0.37 0.03,-0.05 0.18,-0.06 0.28,-0.09 z M 21.06,22.56 c 0.17,-0.01 0.25,0.07 0.34,0.28 0.10,0.24 -5.8e-4,0.37 -0.18,0.46 -0.13,-0.25 -0.25,-0.46 -0.37,-0.68 0.07,-0.02 0.16,-0.05 0.21,-0.06 z m 7.21,0.09 c 0.04,-0.00 0.11,-0.01 0.18,0 1.27,0.21 2.31,0.87 3.28,1.68 0.39,0.33 0.70,0.68 0.87,1.12 -0.26,0.21 -0.49,0.37 -0.75,0.59 0.01,0.00 -0.03,-0.00 -0.06,-0.03 C 31.21,25.30 30.39,24.93 29.59,24.5 29.08,24.22 28.62,23.87 28.15,23.53 27.96,23.38 27.84,23.16 28,22.90 c 0.08,-0.14 0.13,-0.23 0.28,-0.25 z M 20.37,22.75 c 0.16,0.00 0.30,0.10 0.40,0.25 0.14,0.20 0.08,0.50 -0.12,0.68 -0.43,0.38 -0.87,0.73 -1.31,1.12 -0.60,0.53 -1.13,1.14 -1.59,1.81 -0.12,0.17 -0.26,0.33 -0.40,0.5 -0.25,-0.22 -0.46,-0.42 -0.68,-0.62 -0.08,0.03 -0.22,0.10 -0.34,0.15 -0.02,-0.01 -0.04,-0.04 -0.06,-0.06 0.05,-0.14 0.09,-0.31 0.18,-0.43 0.54,-0.68 1.05,-1.40 1.65,-2.03 0.58,-0.61 1.29,-1.09 2.12,-1.34 0.06,-0.01 0.10,-0.03 0.15,-0.03 z m 1.93,0.59 0.12,0 c 0.13,0.20 0.26,0.41 0.40,0.62 -0.01,0.03 -0.01,0.05 -0.03,0.09 -0.17,-0.06 -0.41,-0.06 -0.5,-0.18 -0.07,-0.11 -0.01,-0.35 0,-0.53 z m 7.25,0 c -0.01,0.02 -0.01,0.03 -0.03,0.06 0.24,0.11 0.47,0.25 0.71,0.37 0.01,-0.02 0.05,-0.06 0.06,-0.09 -0.24,-0.11 -0.45,-0.34 -0.75,-0.34 z m -0.71,0.06 c -0.01,0.03 -0.02,0.08 -0.03,0.12 0.21,0.06 0.43,0.14 0.65,0.21 0.00,-0.03 0.02,-0.08 0.03,-0.12 -0.21,-0.06 -0.43,-0.15 -0.65,-0.21 z m -9.12,0.43 -0.56,0.40 c 0.02,0.03 0.06,0.05 0.09,0.09 l 0.53,-0.43 c -0.02,-0.02 -0.03,-0.03 -0.06,-0.06 z m 7.25,0.06 c 0.05,0.00 0.09,0.01 0.15,0.06 -0.13,0.19 -0.25,0.38 -0.37,0.56 -0.02,-0.00 -0.06,0.00 -0.09,0 -0.01,-0.14 -0.06,-0.34 0,-0.43 0.06,-0.09 0.16,-0.20 0.31,-0.18 z m -2.59,0.06 0.31,0 c -0.06,0.20 -0.13,0.37 -0.18,0.56 -0.01,1.13e-4 -0.01,-1.13e-4 -0.03,0 -0.02,-0.18 -0.06,-0.35 -0.09,-0.56 z m 5.96,0.15 c -0.01,0.02 -0.01,0.06 -0.03,0.09 0.30,0.13 0.60,0.27 0.90,0.40 0.01,-0.03 0.01,-0.06 0.03,-0.09 -0.30,-0.13 -0.60,-0.27 -0.90,-0.40 z m -6.81,0.09 c 0.02,0.03 0.03,0.05 0.06,0.09 -0.22,0.24 -0.50,0.39 -0.87,0.43 0.26,-0.18 0.54,-0.34 0.81,-0.53 z m 0.53,0 c 0.12,-0.01 0.20,0.05 0.21,0.21 0.00,0.09 0.12,0.18 0.18,0.28 0.07,-0.08 0.17,-0.15 0.21,-0.25 0.04,-0.10 7.5e-4,-0.26 0.18,-0.25 0.15,0.01 0.35,-0.03 0.37,0.21 0.00,0.02 0.01,0.05 0.03,0.06 0.31,0.13 0.26,0.24 -0.12,0.34 0.15,0.04 0.22,0.11 0.28,0.09 0.37,-0.12 0.64,0.12 0.90,0.31 0.55,0.39 0.89,0.95 1.21,1.53 0.20,0.35 0.22,0.80 0.43,1.15 0.31,0.53 0.32,1.14 0.46,1.71 0.03,0.15 -0.01,0.30 0,0.46 0.01,0.19 0.10,0.40 0.09,0.59 -0.02,0.38 0.12,0.75 -0.09,1.12 -0.06,0.10 0.01,0.29 0,0.43 -0.02,0.15 -0.21,0.25 -0.12,0.46 0.02,0.06 -0.11,0.22 -0.21,0.31 0.00,0.14 0.21,0.37 -0.18,0.40 -0.01,8.51e-4 -0.00,0.12 0,0.18 0.00,0.04 0.03,0.08 0.06,0.12 -0.01,0.01 -0.04,0.01 -0.06,0.03 -0.10,-0.07 -0.19,-0.14 -0.34,-0.25 0.00,0.09 0.01,0.17 0.03,0.25 0.01,0.05 0.04,0.10 0.06,0.15 0.02,0.06 0.04,0.11 0.06,0.18 l -0.18,0 c -0.16,0.17 -0.31,0.36 -0.46,0.53 -0.06,-0.11 -0.11,-0.18 -0.15,-0.25 -0.02,0.02 -0.09,0.04 -0.09,0.06 0.02,0.11 0.02,0.23 0.09,0.31 0.11,0.13 0.14,0.25 -0.03,0.34 l 0,-0.21 -0.21,0 0,0.53 C 26.49,35.27 26.31,35.07 26.12,34.87 c -0.02,0.00 -0.06,0.02 -0.09,0.03 0.15,0.29 0.47,0.61 -0.09,0.81 -0.00,-0.15 -0.02,-0.30 -0.03,-0.43 -0.02,-0.01 -0.03,-0.01 -0.06,-0.03 -0.03,0.05 -0.10,0.09 -0.12,0.15 -0.02,0.06 -0.03,0.14 -0.03,0.21 0.00,0.07 0.03,0.17 0.06,0.28 -0.41,0.14 -0.38,-0.35 -0.59,-0.5 -0.02,0.01 -0.03,0.01 -0.06,0.03 0.06,0.21 0.12,0.44 0.18,0.65 -0.32,-0.23 -0.32,-0.24 -0.34,-0.65 -0.10,0.13 -0.20,0.22 -0.21,0.31 -0.04,0.25 0.00,0.46 0.34,0.46 l -0.5,0 c 0.01,-0.07 0.02,-0.14 0.03,-0.18 -0.41,-0.13 -0.08,-0.49 -0.25,-0.68 -0.10,0.03 -0.08,0.02 -0.09,0.28 -0.00,0.11 -0.05,0.22 -0.09,0.37 0.04,0.03 0.12,0.11 0.25,0.21 -0.32,0.07 -0.41,-0.09 -0.5,-0.31 -0.11,0.09 -0.19,0.17 -0.31,0.28 -0.25,-0.08 -0.27,-0.36 -0.37,-0.56 -0.02,-0.05 -0.04,-0.12 -0.06,-0.18 -0.05,0.03 -0.09,0.11 -0.15,0.12 -0.10,0.02 -0.18,0.01 -0.34,0.03 0.00,-0.02 -0.01,0.00 -0.03,0.06 -0.07,-0.02 -0.15,-0.04 -0.21,-0.06 0.00,-0.10 0.02,-0.20 0.03,-0.31 l -0.06,0 c -0.03,0.04 -0.06,0.08 -0.09,0.12 -0.09,-0.10 -0.19,-0.20 -0.28,-0.31 -0.05,-0.06 -0.08,-0.16 -0.15,-0.18 -0.71,-0.28 -0.99,-0.95 -1.31,-1.56 -0.47,-0.90 -0.47,-1.89 -0.40,-2.87 0.08,-1.13 0.54,-2.18 1.06,-3.18 0.25,-0.49 0.50,-1.00 0.81,-1.46 0.28,-0.41 0.61,-0.80 1.15,-0.96 0.22,-0.06 0.35,-0.31 0.56,-0.46 0.09,-0.06 0.23,-0.14 0.34,-0.15 z m 3.31,0.09 c 0.17,-0.03 0.41,0.01 0.56,0.15 0.43,0.41 0.89,0.79 1.28,1.25 0.30,0.35 0.52,0.77 0.75,1.18 0.33,0.61 0.62,1.24 0.93,1.87 0.01,0.04 0.03,0.11 0.06,0.18 -0.27,-0.00 -0.41,0.51 -0.75,0.12 0.01,0.06 0.01,0.13 0.03,0.21 -0.07,0.00 -0.14,0.02 -0.21,0.03 -0.00,0.06 0.00,0.11 0,0.18 -0.04,-0.01 -0.11,0.01 -0.12,0 -0.08,-0.15 -0.13,-0.31 -0.21,-0.46 -0.25,-0.44 -0.50,-0.91 -0.78,-1.34 -0.56,-0.88 -1.14,-1.75 -1.71,-2.62 -0.24,-0.36 -0.24,-0.46 0.03,-0.71 0.03,-0.03 0.09,-0.05 0.15,-0.06 z m 0.5,0.46 c -0.02,0.04 -0.06,0.08 -0.09,0.12 L 28.62,25.43 c 0.01,-0.02 0.01,-0.06 0.03,-0.09 -0.26,-0.19 -0.51,-0.36 -0.78,-0.56 z M 21.34,25.25 c -0.12,0.24 -0.25,0.50 -0.37,0.75 l 0.09,0.03 0.37,-0.71 C 21.40,25.29 21.38,25.26 21.34,25.25 z m 6.62,0.09 c -0.03,0.02 -0.05,0.06 -0.09,0.09 0.18,0.21 0.35,0.44 0.53,0.65 C 28.43,26.06 28.46,26.02 28.5,26 L 27.96,25.34 z M 20.56,25.43 c -0.24,0.19 -0.42,0.41 -0.53,0.71 0.02,0.02 0.03,0.04 0.06,0.06 0.18,-0.23 0.37,-0.47 0.56,-0.71 -0.03,-0.02 -0.06,-0.03 -0.09,-0.06 z M 32.5,25.81 c 0.15,-0.05 0.29,-0.00 0.37,0.15 0.12,0.26 0.22,0.55 0.31,0.84 0.13,0.41 0.27,0.82 0.37,1.25 0.12,0.54 0.19,1.10 0.28,1.65 0.04,0.26 0.06,0.54 0.09,0.81 0.01,0.11 0.08,0.22 -0.09,0.31 -0.01,0.00 0.05,0.17 0.09,0.25 0.13,0.24 0.08,0.92 -0.09,1.15 -0.04,-0.08 -0.06,-0.15 -0.09,-0.21 -0.10,0.09 -0.19,0.22 -0.31,0.28 -0.11,0.05 -0.26,0.01 -0.40,0.03 -0.08,-0.99 -0.17,-1.90 -0.25,-2.84 -0.06,-0.82 -0.10,-1.64 -0.18,-2.46 -0.02,-0.24 -0.17,-0.48 -0.28,-0.71 -0.05,-0.13 -0.19,-0.27 0.03,-0.40 0.06,-0.03 0.10,-0.07 0.15,-0.09 z m -3.59,0.25 c -0.01,0.02 -0.04,0.03 -0.06,0.06 0.24,0.18 0.47,0.37 0.71,0.56 0.01,-0.02 0.04,-0.03 0.06,-0.06 -0.22,-0.21 -0.39,-0.47 -0.71,-0.56 z M 20.43,26.5 c -0.08,0.19 -0.16,0.39 -0.25,0.59 0.03,0.01 0.06,0.01 0.09,0.03 L 20.56,26.56 C 20.51,26.54 20.48,26.52 20.43,26.5 z m 8.43,0.15 c 0.20,0.32 0.40,0.62 0.59,0.93 0.02,-0.34 -0.37,-0.90 -0.59,-0.93 z m -9.18,0.12 c -0.21,0.29 -0.43,0.57 -0.65,0.87 0.04,0.02 0.08,0.06 0.12,0.09 0.21,-0.29 0.44,-0.60 0.65,-0.90 -0.03,-0.02 -0.08,-0.03 -0.12,-0.06 z M 16.5,26.96 c 0.08,-0.03 0.13,-0.05 0.12,0.18 l 0.21,0.03 c 0.00,0.03 0.00,0.04 0,0.06 -0.02,0.13 -0.05,0.27 -0.06,0.40 -0.04,0.80 -0.08,1.60 -0.12,2.40 -0.02,0.65 -0.04,1.31 -0.06,1.96 -0.01,0.41 -0.04,0.83 -0.25,1.21 -0.04,0.07 -0.04,0.15 -0.06,0.25 -0.27,-0.06 -0.51,-0.12 -0.81,-0.18 0.07,-0.63 0.14,-1.31 0.21,-2 0.01,-0.13 -0.01,-0.24 0,-0.37 0.05,-0.53 0.08,-1.09 0.15,-1.62 0.04,-0.37 0.12,-0.75 0.18,-1.12 0.06,-0.38 0.14,-0.75 0.21,-1.18 0.04,0.08 0.16,0.00 0.25,-0.03 z m 16.34,0.12 c 0.09,0.29 0.19,0.55 0.28,0.81 0.09,-0.26 -0.08,-0.70 -0.28,-0.81 z M 29.93,27.56 c -0.04,0.03 -0.05,0.06 -0.09,0.09 0.21,0.28 0.40,0.58 0.62,0.87 0.03,-0.02 0.06,-0.06 0.09,-0.09 -0.20,-0.29 -0.41,-0.58 -0.62,-0.87 z m -13.56,0.40 0,0.75 c 0.02,1.13e-4 0.03,-1.7e-4 0.06,0 l 0,-0.75 c -0.02,-0.00 -0.03,0.00 -0.06,0 z m 13.40,0.25 c -0.03,0.02 -0.08,0.04 -0.12,0.06 0.13,0.20 0.27,0.39 0.40,0.59 0.03,-0.02 0.06,-0.04 0.09,-0.06 l -0.37,-0.59 z M 33,28.34 c -0.02,3.4e-4 -0.04,0.03 -0.06,0.03 l 0,0.84 c 0.02,-3.18e-4 0.04,3.41e-4 0.06,0 l 0,-0.87 z m 0.34,0.5 c 0.04,0.35 0.07,0.70 0.12,1.06 0.03,-0.00 0.09,0.00 0.12,0 -0.04,-0.35 -0.11,-0.70 -0.15,-1.06 -0.03,0.00 -0.05,-0.00 -0.09,0 z M 16.37,29.5 l -0.06,0.96 0.09,0 C 16.42,30.14 16.44,29.82 16.46,29.5 l -0.09,0 z m 14.06,0.09 c 0.15,-0.02 0.30,0.06 0.31,0.25 0.01,0.44 0.01,0.89 0.06,1.34 0.04,0.41 -0.04,0.79 -0.18,1.18 0.03,-0.02 0.08,-0.03 0.12,-0.06 -0.34,0.39 -0.18,0.91 -0.40,1.34 l 0,-0.78 c -0.03,-0.00 -0.03,0.00 -0.06,0 0,0.33 0.00,0.63 0,0.96 -0.00,0.30 -0.00,0.63 -0.03,0.93 -0.02,0.27 -0.08,0.54 -0.12,0.81 -0.04,0.30 -0.07,0.60 -0.12,0.90 -0.03,0.17 -0.04,0.40 -0.34,0.37 -0.12,-0.01 -0.24,0.05 -0.37,0.09 -0.33,-0.35 -0.11,-0.73 -0.06,-1.09 0.06,-0.42 0.14,-0.85 0.21,-1.28 0.10,-0.66 0.20,-1.30 0.31,-1.96 0.09,-0.60 0.19,-1.20 0.28,-1.81 0.04,-0.29 0.08,-0.59 0.12,-0.90 0.09,0.02 0.14,0.04 0.21,0.06 0.01,-0.03 0.03,-0.04 0.03,-0.06 -0.01,-0.11 -0.18,-0.27 0.03,-0.31 z m -11.90,0.37 c 0.09,0.04 0.15,0.05 0.21,0.06 0.22,0.01 0.27,0.15 0.28,0.34 0.01,0.50 0.03,1.02 0.06,1.53 0.01,0.25 0.16,0.53 0.09,0.75 -0.17,0.54 0.12,1.05 0.06,1.59 -0.04,0.38 0.08,0.79 0.15,1.18 0.00,0.00 0.02,0.02 0.03,0.03 0.07,0.48 0.15,0.95 0.21,1.43 0.02,0.16 -0.29,0.51 -0.43,0.53 -0.28,0.03 -0.43,-0.18 -0.46,-0.40 -0.11,-0.71 -0.22,-1.42 -0.28,-2.15 -0.08,-1.02 -0.06,-2.07 -0.15,-3.09 -0.05,-0.63 -0.01,-1.20 0.21,-1.81 z m 14.81,0.59 c 0.06,0.36 0.11,0.70 0.18,1.09 0.14,-0.33 0.03,-0.96 -0.18,-1.09 z m -0.12,0.65 c -0.12,0.23 -0.06,0.84 0.12,1.03 -0.04,-0.36 -0.07,-0.66 -0.12,-1.03 z M 16.25,31.78 c 0,0.25 -0.00,0.52 0,0.78 4.5e-4,0.05 0.02,0.10 0.03,0.15 0.01,-0.00 0.01,-0.02 0.03,-0.03 l 0,-0.90 -0.06,0 z M 33.68,32.75 c 0.12,0.21 0.22,0.43 0.37,0.62 0.70,0.89 1.06,1.94 1.40,3 0.01,0.04 0.02,0.10 0.03,0.15 -0.04,-0.00 -0.11,-0.03 -0.15,-0.03 -0.06,0.00 -0.12,0.01 -0.21,0.03 -0.20,-0.50 -0.40,-1.03 -0.62,-1.56 -0.19,-0.47 -0.39,-0.96 -0.59,-1.43 -0.08,-0.19 -0.04,-0.43 -0.28,-0.56 -0.01,-0.00 0.04,-0.16 0.06,-0.21 z m -18.09,1.03 c -0.08,0.41 0.14,0.88 -0.18,1.28 -0.13,0.37 -0.26,0.74 -0.40,1.12 -0.08,0.23 -0.17,0.46 -0.28,0.68 -0.05,0.10 -0.18,0.17 -0.25,0.28 -0.12,0.21 -0.22,0.45 -0.34,0.68 -0.03,0.00 -0.10,0.01 -0.18,0.03 -0.10,-0.27 0.01,-0.70 0.43,-1.28 l -0.15,0.43 c 0.02,0.01 0.03,0.01 0.06,0.03 0.09,-0.19 0.18,-0.39 0.28,-0.59 l -0.09,0 c -0.01,-0.10 -0.06,-0.23 -0.03,-0.31 0.28,-0.64 0.57,-1.27 0.87,-1.90 0.07,-0.15 0.18,-0.31 0.28,-0.46 z m -0.18,1.28 c -0.02,-0.03 -0.08,-0.09 -0.09,-0.09 -0.14,0.07 -0.40,0.72 -0.37,0.90 0.15,-0.27 0.31,-0.54 0.46,-0.81 z m 3.5,-1.18 c 0.06,0.44 0.11,0.89 0.18,1.34 0.04,-0.00 0.08,0.00 0.12,0 C 19.14,34.77 19.07,34.32 19,33.87 l -0.09,0 z m 10.87,0.84 -0.12,1.18 0.09,0 c 0.12,-0.39 0.21,-0.77 0.12,-1.18 -0.02,-1.13e-4 -0.06,1.14e-4 -0.09,0 z M 23.5,35.25 c 0.02,0.25 -0.17,0.49 0.21,0.62 C 23.69,35.78 23.65,35.68 23.62,35.59 23.59,35.48 23.84,35.34 23.5,35.25 z m 11.43,0.12 c -0.02,0.01 -0.06,0.01 -0.09,0.03 0.09,0.22 0.19,0.45 0.28,0.68 0.03,-0.01 0.05,-0.04 0.09,-0.06 -0.09,-0.22 -0.18,-0.43 -0.28,-0.65 z m -15.71,0.34 -0.12,0.03 c 0.04,0.30 0.11,0.60 0.15,0.90 0.03,-0.00 0.05,0.00 0.09,0 -0.03,-0.30 -0.08,-0.63 -0.12,-0.93 z m -0.87,1.12 c -0.01,0.26 -0.01,0.54 -0.03,0.81 0.19,-0.12 0.20,-0.60 0.03,-0.81 z M 36.09,37 c 0.40,0.25 0.77,0.70 1.31,1.68 -0.26,-0.12 -0.37,-0.30 -0.43,-0.56 -0.03,-0.13 -0.17,-0.23 -0.28,-0.34 -0.06,-0.06 -0.20,-0.05 -0.25,-0.12 C 36.29,37.43 36.20,37.20 36.09,37 z M 29.5,37.21 l 0.12,0 c 0.02,0.17 0.04,0.35 0.06,0.53 0.02,-0.00 0.06,0.00 0.09,0 0.00,-0.07 0.01,-0.15 0.03,-0.31 0.08,0.21 0.13,0.36 0.21,0.56 -0.10,-0.05 -0.17,-0.11 -0.25,-0.15 -0.00,0.04 -0.01,0.08 0,0.09 0.59,0.68 0.75,1.56 0.93,2.40 0.07,0.35 0.14,0.70 0.18,1.06 0.01,0.11 -0.07,0.22 -0.12,0.34 -0.10,-0.09 -0.27,-0.16 -0.31,-0.28 -0.18,-0.57 -0.34,-1.16 -0.5,-1.75 -0.17,-0.68 -0.34,-1.37 -0.5,-2.06 -0.03,-0.13 0.01,-0.29 0.03,-0.43 z M 13.68,38.18 13.75,38.25 c -0.21,0.32 -0.52,0.55 -0.84,0.78 -0.02,0.10 -0.04,0.20 -0.06,0.28 -0.05,0.02 -0.12,0.06 -0.18,0.09 0.14,0.33 -0.28,0.28 -0.34,0.53 -0.04,0.22 -0.23,0.41 -0.37,0.62 -0.02,-0.01 -0.06,-0.01 -0.09,-0.03 0.17,-0.27 0.34,-0.57 0.53,-0.84 0.16,-0.22 0.35,-0.43 0.53,-0.65 0.25,-0.28 0.52,-0.55 0.78,-0.84 z m 16.53,0.96 -0.15,0.06 c 0.17,0.29 0.13,0.66 0.37,0.93 0.02,-0.00 0.03,-0.02 0.06,-0.03 -0.09,-0.32 -0.18,-0.64 -0.28,-0.96 z m 0.34,1.43 c -0.03,0.00 -0.05,0.02 -0.09,0.03 0.07,0.26 0.11,0.51 0.18,0.78 0.03,-0.00 0.06,-0.02 0.09,-0.03 -0.06,-0.26 -0.11,-0.51 -0.18,-0.78 z m 0.84,2.06 c 0.57,0.30 1.11,1.15 0.96,1.53 -0.33,-0.52 -0.64,-1.02 -0.96,-1.53 z m -12.81,0.06 c 7.94e-4,0.50 -0.40,0.82 -0.56,1.25 -0.15,0.41 -0.35,0.81 -0.53,1.21 -0.03,-0.01 -0.06,-0.01 -0.09,-0.03 0.03,-0.18 0.04,-0.36 0.12,-0.53 0.17,-0.38 0.33,-0.82 0.59,-1.15 0.17,-0.22 0.34,-0.40 0.37,-0.68 0.00,-0.01 0.01,-0.02 0.03,-0.03 0.01,-0.00 0.01,-0.02 0.06,-0.03 z" />
</svg>
